<svg width="525" height="142" viewBox="0 0 525 142" fill="none" xmlns="http://www.w3.org/2000/svg">
<g clip-path="url(#clip0_39_3744)">
<path d="M343.724 53.8503L372.28 84.8525" stroke="#DCDDDD" stroke-miterlimit="10"/>
<path d="M372.28 53.8503L343.724 84.8525" stroke="#DCDDDD" stroke-miterlimit="10"/>
<path d="M152.72 53.8503L181.258 84.8525" stroke="#DCDDDD" stroke-miterlimit="10"/>
<path d="M181.276 53.8503L152.72 84.8525" stroke="#DCDDDD" stroke-miterlimit="10"/>
<path d="M142.797 0.195068H0.196289V141.823H142.797V0.195068Z" stroke="#DCDDDD" stroke-miterlimit="10"/>
<path d="M68.4627 27.1735V44.4028H65.8748V43.1443H56.9154V44.4382H54.4346V27.1558H68.4627V27.1735ZM56.9154 29.5842V33.8915H65.8748V29.5842H56.9154ZM65.8748 40.7513V36.2667H56.9154V40.7513H65.8748Z" fill="white"/>
<path d="M85.3821 32.2962C86.6492 35.2209 88.6838 37.9684 91.0575 39.5459C90.4329 40.0245 89.5762 40.964 89.1657 41.6376C88.3983 41.0526 87.6844 40.3613 87.024 39.5814V41.3185H82.8656V44.7041H80.3312V41.3185H76.1014V39.5282C75.3875 40.3436 74.6201 41.0881 73.8169 41.7262C73.3886 41.1235 72.6211 40.2195 72.0679 39.7764C74.4059 38.1811 76.4583 35.3095 77.7077 32.2784H72.7639V29.85H80.3312V25.9858H82.8656V29.85H90.4686V32.2784H85.3821V32.2962ZM80.3134 38.8901V32.2962H80.1706C79.2782 34.7423 78.0468 37.0112 76.6011 38.8901H80.3134ZM86.4529 38.8901C85.0251 37.0112 83.8293 34.7423 82.937 32.2962H82.8477V38.8901H86.4351H86.4529Z" fill="white"/>
<path d="M50.4011 61.189V63.1211H32.0361V61.189H35.0345C34.8203 60.3914 34.3028 59.3278 33.803 58.5302L35.3736 57.9452H33.0891V56.0131H36.5872C36.3017 55.4991 35.9269 54.8964 35.5521 54.4355L37.6759 53.6733C38.247 54.276 38.8003 55.0737 39.0502 55.6586L38.1756 56.0131H43.1194C43.6013 55.3041 44.1545 54.3646 44.4758 53.6733L46.8317 54.3469C46.4925 54.9496 46.1178 55.5168 45.7608 56.0131H49.4017V57.9452H46.7781L48.4736 58.4061C47.9739 59.4342 47.4385 60.4445 46.9923 61.189H50.3833H50.4011ZM34.5348 63.9897H47.9203V72.3739H45.4574V71.8598H36.8728V72.4625H34.5348V64.0074V63.9897ZM35.8555 57.9452C36.4444 58.7429 36.9442 59.8064 37.1405 60.5332L35.5342 61.189H38.0686V57.9452H35.8555ZM36.8906 65.7977V67.0207H45.4752V65.7977H36.8906ZM45.4752 69.9986V68.7578H36.8906V69.9986H45.4752ZM41.9593 57.9275H40.3173V61.1713H41.9593V57.9275ZM45.0826 60.7104C45.4931 59.9482 45.975 58.7606 46.2605 57.9275H44.2438V61.1713H46.6532L45.1005 60.7104H45.0826Z" fill="white"/>
<path d="M70.5507 69.2895V71.7179H52.2393V69.2895H62.1267C63.144 66.8433 64.197 63.1919 64.7325 60.3735L67.4631 60.8875C66.6957 63.7945 65.6427 66.9674 64.7325 69.2895H70.5507ZM69.694 59.7354H53.1495V57.3247H60.4669C60.2706 56.4207 59.8601 55.0913 59.5032 54.1163L61.9126 53.5137C62.3409 54.524 62.7871 55.8357 63.0013 56.7043L60.8417 57.3247H69.694V59.7354ZM57.3258 68.8109C57.0759 66.6661 56.3442 63.3868 55.6481 60.8875L58.0754 60.3026C58.8428 62.8196 59.5746 65.9925 59.9137 68.1373L57.3258 68.7932V68.8109Z" fill="white"/>
<path d="M89.1122 72.2851C88.9873 71.7888 88.7909 71.2039 88.5411 70.5658C83.2761 71.2748 82.3659 71.452 81.759 71.7002C81.7233 71.5052 81.5984 71.2039 81.4556 70.8494C81.4913 71.0621 81.527 71.2748 81.5806 71.4698L79.5281 72.1256C79.4746 71.6825 79.3675 71.1862 79.2247 70.6367C74.4416 71.2393 73.6028 71.4166 73.0316 71.6825C72.9067 71.3102 72.5141 70.3531 72.2285 69.839C72.8353 69.6972 73.3529 69.1832 74.1382 68.3323C74.5844 67.8892 75.4767 66.7902 76.4762 65.3899C74.0668 65.6026 73.4421 65.7267 73.0673 65.8862C72.9603 65.4785 72.5855 64.5391 72.2999 64.0427C72.7104 63.9364 73.0673 63.5819 73.4778 63.0678C73.9062 62.5538 75.2269 60.5508 75.9408 58.6364L78.2074 59.4872C77.4935 60.8698 76.5476 62.3588 75.566 63.5996L77.7969 63.4578C78.2966 62.6779 78.7607 61.8802 79.189 61.0471L81.3664 61.9866C79.8851 64.4859 78.0646 66.9497 76.2263 68.9882L78.6357 68.74C78.4394 68.2437 78.2252 67.7297 78.0111 67.3042L79.9564 66.7016C80.4383 67.641 80.8845 68.74 81.1879 69.7858C81.7412 69.5909 82.2231 69.0768 82.9013 68.3501C83.3475 67.9069 84.2398 66.8079 85.2393 65.4253C82.6336 65.638 82.0089 65.7798 81.5984 65.9394C81.4556 65.5317 81.0808 64.5922 80.831 64.0782C81.2415 63.9896 81.5984 63.6528 82.0446 63.121C82.4551 62.607 83.7936 60.6394 84.5432 58.725L86.8099 59.5581C86.0781 60.9407 85.1144 62.412 84.1149 63.635L86.5422 63.4755C87.024 62.7133 87.5059 61.9334 87.9164 61.1357L90.0759 62.0752C88.6303 64.539 86.792 66.9852 84.9716 69.0059L87.7379 68.7046C87.4702 68.226 87.2025 67.7297 86.9169 67.2688L88.8445 66.4711C89.8975 67.9955 90.8434 70.0163 91.2182 71.3811L89.1479 72.2851H89.1122ZM76.2442 57.2184H72.6033V55.109H76.2442V53.7441H78.6179V55.109H81.2415V57.2184H78.6179V58.3883H76.2442V57.2184ZM84.5611 57.2184H81.9554V55.109H84.5611V53.7441H86.9348V55.109H90.54V57.2184H86.9348V58.3883H84.5611V57.2184Z" fill="white"/>
<path d="M108.048 69.9632C108.726 69.9632 108.833 69.6087 108.923 67.2512C109.44 67.6235 110.475 68.0134 111.136 68.1729C110.886 71.3813 110.243 72.1967 108.262 72.1967H105.674C103.319 72.1967 102.73 71.4699 102.73 69.2365V65.5673H100.427C99.999 68.9352 98.9281 71.2395 93.6631 72.4803C93.4133 71.8244 92.7707 70.7963 92.2532 70.2646C96.7507 69.4137 97.5182 67.9248 97.8394 65.5673H95.1266V59.1861H100.463V57.5908H93.0206V55.4282H100.463V53.7266H102.908V55.4282H110.582V57.5908H102.908V59.1861H108.566V65.5673H105.193V69.2188C105.193 69.8746 105.317 69.9632 106.049 69.9632H108.048ZM97.4825 63.4757H106.103V61.2954H97.4825V63.4757Z" fill="white"/>
<path d="M38.4433 86.7845C37.9614 87.6176 37.3546 88.4685 36.6942 89.3016V100.185H34.3741V91.8718C33.7672 92.4745 33.1604 93.0417 32.5536 93.5025C32.3751 92.9885 31.7683 91.6236 31.4114 91.0387C33.214 89.7979 35.1772 87.8481 36.3551 85.8805L38.4611 86.7845H38.4433ZM38.1042 82.4417C36.7656 84.2852 34.7131 86.2528 32.8213 87.4758C32.5715 86.9263 32.0003 85.9514 31.6255 85.4551C33.1961 84.4979 34.9809 82.8672 35.8197 81.52L38.1042 82.4417ZM50.3653 95.0092H47.599V97.863C47.599 98.962 47.4027 99.5293 46.6174 99.866C45.8678 100.203 44.8683 100.203 43.4941 100.203C43.387 99.5647 43.0479 98.6784 42.7445 98.0758C43.5833 98.1112 44.5471 98.1112 44.7969 98.1112C45.0825 98.0935 45.1539 98.0048 45.1539 97.7921V95.0092H40.9241C41.7272 95.7714 42.7266 96.8172 43.2264 97.5085L41.4238 98.7671C40.9776 98.0049 39.9424 96.8172 39.1036 95.9841L40.6028 95.0092H37.7829V92.9885H45.1717V91.8541H38.2648V89.9042H49.9549V91.8541H47.6168V92.9885H50.3653V95.0092ZM49.2945 89.018H39.2999V82.0872H49.2945V89.018ZM46.8673 83.7534H41.6201V84.7638H46.8673V83.7534ZM46.8673 86.3237H41.6201V87.3695H46.8673V86.3237Z" fill="white"/>
<path d="M64.8395 96.144C66.9991 96.8708 69.4441 97.7393 70.8719 98.3597L69.7832 100.221C68.0342 99.3523 64.429 97.9875 61.9125 97.1366L62.5372 96.1263H61.9304C60.9845 97.8102 58.6286 99.4587 53.2565 100.31C52.971 99.7423 52.3642 98.9092 51.918 98.3774C55.5588 97.8279 57.6113 97.0126 58.7535 96.1086H52.0072V94.141H60.0921C60.1099 93.9638 60.1278 93.7865 60.1278 93.5915V92.2621H62.5015V93.6624C62.5015 93.822 62.5015 93.9638 62.4836 94.1233H65.9996C65.5713 93.7688 65.0894 93.3965 64.661 93.1129L65.3928 92.4394H64.6253C64.5361 91.8899 64.2862 91.234 64.0364 90.72C64.6789 90.7554 65.4285 90.7554 65.6426 90.7554C65.8568 90.7377 65.9282 90.6845 65.9282 90.4718V89.3019H62.5729C63.0905 89.7096 63.6259 90.1173 63.9114 90.5073L62.3409 91.6949C61.9661 91.1808 61.1094 90.4186 60.3598 89.9223L61.1808 89.3019H59.1819V87.7598H59.9672C59.7708 87.3521 59.4496 86.909 59.1819 86.6431C61.0023 86.4658 62.7335 86.0936 64.2327 85.5264C63.7865 85.03 63.1618 84.4451 62.555 83.9665C61.9125 84.2147 61.1629 84.4451 60.3777 84.6755C60.1278 84.2501 59.5924 83.612 59.1997 83.3284C61.627 82.8498 63.4296 82.1408 64.4826 81.3608L66.4636 81.7685C66.1781 82.0167 65.8925 82.2294 65.5891 82.4421H68.3911L68.7659 82.3889L69.9974 83.0093C69.105 84.6046 67.6951 85.7213 65.9817 86.5013H68.177V87.7775H70.4614V89.3196H68.177V90.5604C68.177 91.4999 67.9985 91.9253 67.3203 92.2089C67.0347 92.333 66.6778 92.3862 66.2495 92.4216C66.8563 92.8293 67.4631 93.2902 67.82 93.6624L67.356 94.1233H70.7113V96.0908H64.7681L64.8395 96.144ZM55.3804 89.2665C55.3804 90.2059 55.0948 92.1735 53.7741 93.2725C53.3636 92.9534 52.5069 92.4748 51.9537 92.2444C53.0424 91.3935 53.2744 89.9932 53.2922 89.2487H52.1678V87.4053H56.4691V86.3063H52.9531V81.9812H54.952V84.4983H56.4691V81.5204H58.6465V92.9357H56.4691V89.2487H55.3982L55.3804 89.2665ZM62.912 85.8277C61.9304 85.934 61.0023 86.0227 60.0921 86.129L59.8958 84.9237C60.7346 84.8705 61.7341 84.7819 62.8941 84.711V85.8277H62.912ZM65.9996 87.8307V86.5899C64.7324 87.1571 63.3225 87.5471 61.8054 87.8307H65.9996ZM64.4647 83.7892C64.9109 84.1438 65.3571 84.5692 65.7319 84.9591C66.3208 84.6224 66.8384 84.2324 67.2668 83.7892H64.4647Z" fill="white"/>
<path d="M90.0759 82.1582V100.203H87.7914V99.2634H75.2982V100.238H73.1387V82.1582H90.0759ZM87.7914 97.4554V83.9662H75.2982V97.4554H87.7914ZM87.3452 94.5839H84.7395V95.8601C84.7395 96.6223 84.5789 96.8882 84.0078 97.0477C83.4545 97.2073 82.6514 97.2073 81.5448 97.2073C81.4377 96.7818 81.2414 96.3742 81.0629 96.0196C81.634 96.0374 82.2944 96.0374 82.4729 96.0196C82.6692 96.0196 82.7584 95.9665 82.7584 95.7715V94.5661H79.1889C79.7065 95.0625 80.2776 95.736 80.5454 96.1969L78.9569 96.9768C78.6892 96.4982 78.1181 95.7183 77.5648 95.1688L78.832 94.5661H75.7087V93.2899H82.7763V92.705H84.7574V93.2899H85.8282C85.6854 93.0949 85.4712 92.8468 85.2392 92.6163C81.9018 92.7404 78.5821 92.829 76.1192 92.8822L76.0478 91.6237H80.5454V90.9678H76.5475V86.8732H80.5454V86.2705H75.9764V84.9943H80.5454V84.2498H82.5086V84.9943H87.1132V86.2705H82.5086V86.8732H86.5599V90.9678H85.5426C86.1851 91.4642 86.8276 92.0668 87.2203 92.5277L86.1494 93.3076H87.3631V94.5839H87.3452ZM78.3501 88.4331H80.5275V87.8481H78.3501V88.4331ZM80.5275 89.9575V89.3725H78.3501V89.9575H80.5275ZM82.4907 87.8481V88.4331H84.6324V87.8481H82.4907ZM84.6324 89.3725H82.4907V89.9575H84.6324V89.3725ZM82.4907 91.5882H84.097L83.8828 91.411L84.561 90.9501H82.4729V91.5882H82.4907Z" fill="white"/>
<path d="M99.4636 83.1687C98.9461 84.8704 98.25 87.0506 97.7146 88.6282C98.9282 90.1703 99.1959 91.5175 99.1959 92.6519C99.1959 93.9459 98.9282 94.779 98.2857 95.2221C97.9823 95.4703 97.6075 95.5766 97.1435 95.6653C96.7865 95.7007 96.3225 95.7184 95.8585 95.7007C95.8406 95.1158 95.6621 94.2295 95.3409 93.68C95.6978 93.6977 95.9834 93.6977 96.2154 93.6977C96.4296 93.68 96.6259 93.6445 96.7865 93.5205C97.0364 93.3432 97.1078 92.9355 97.1078 92.4038C97.1078 91.4643 96.8401 90.2235 95.7157 88.8764C96.1262 87.6356 96.5188 85.863 96.8579 84.5158H95.2873V100.256H93.217V82.4065H97.5897L97.9288 82.3001L99.4993 83.2041L99.4636 83.1687ZM110.94 88.8941C110.208 89.3904 109.387 89.9222 108.566 90.3653C109.244 92.4215 110.44 94.6372 111.618 95.8957C111.136 96.2325 110.422 96.9415 110.101 97.4024C108.869 95.9666 107.656 93.5382 106.888 91.287L106.817 91.3225C107.781 94.5131 107.334 97.8632 106.21 98.9622C105.585 99.7244 104.907 99.9726 103.854 99.9903C103.426 99.9903 102.783 99.9903 102.212 99.9549C102.176 99.3345 102.034 98.4659 101.641 97.8278C102.301 97.8987 102.98 97.9341 103.408 97.9341C103.89 97.9341 104.193 97.8455 104.479 97.3669C104.836 96.9947 105.086 96.0198 105.103 94.779C103.604 95.9489 101.677 96.9947 100.035 97.6328C99.7135 97.1188 99.1245 96.392 98.6248 95.9666C100.838 95.3462 103.515 93.9459 104.907 92.5456C104.836 92.2265 104.746 91.872 104.622 91.4997C103.479 92.4215 101.944 93.3609 100.713 93.9636C100.427 93.4673 99.9098 92.6874 99.4458 92.2797C100.927 91.7834 102.837 90.7375 103.961 89.8158C103.765 89.4613 103.515 89.0713 103.247 88.7345C102.176 89.4968 101.052 90.1349 99.9991 90.6135C99.7135 90.2058 99.0353 89.3549 98.607 88.9473C100.088 88.3978 101.57 87.6178 102.765 86.6961H99.2495V84.6576H102.444C101.962 83.9841 101.213 83.2396 100.534 82.6369L102.284 81.5734C103.229 82.247 104.193 83.2573 104.693 83.9841L103.729 84.6576H105.55C106.174 83.7714 106.977 82.4951 107.388 81.5557L109.69 82.1938C109.137 83.0801 108.548 83.9309 107.995 84.6576H110.993V86.7138H105.621C105.353 86.9974 105.086 87.2633 104.782 87.5115C105.353 88.1319 105.799 88.8586 106.139 89.6031C107.334 88.9295 108.602 88.0432 109.476 87.3342L110.975 88.8941H110.94Z" fill="white"/>
<path d="M58.0041 118.354V110.697H55.1128V109.668H62.0376V110.697H59.1463V118.354H57.9862H58.0041Z" fill="#DCDDDD"/>
<path d="M65.8925 117.574C65.4999 117.911 65.1073 118.141 64.7503 118.283C64.3755 118.425 63.9829 118.496 63.5724 118.496C62.8763 118.496 62.3409 118.319 61.9661 117.982C61.5913 117.645 61.4128 117.22 61.4128 116.688C61.4128 116.387 61.4842 116.103 61.627 115.837C61.7698 115.589 61.9483 115.376 62.1803 115.217C62.4123 115.057 62.6622 114.951 62.9477 114.862C63.1619 114.809 63.4831 114.756 63.8936 114.703C64.7682 114.596 65.3928 114.472 65.8033 114.33C65.8033 114.189 65.8033 114.1 65.8033 114.047C65.8033 113.604 65.6962 113.302 65.4999 113.125C65.2322 112.877 64.8217 112.771 64.2684 112.771C63.7687 112.771 63.3939 112.859 63.144 113.036C62.8942 113.214 62.7336 113.515 62.6086 113.976L61.5556 113.834C61.6449 113.391 61.8055 113.019 62.0197 112.753C62.2338 112.487 62.5551 112.274 62.9656 112.115C63.3761 111.973 63.8579 111.884 64.4112 111.884C64.9645 111.884 65.3928 111.955 65.7319 112.079C66.071 112.203 66.3209 112.363 66.4815 112.558C66.6421 112.753 66.7492 112.983 66.8206 113.285C66.8563 113.462 66.8742 113.799 66.8742 114.277V115.695C66.8742 116.688 66.892 117.308 66.9455 117.574C66.9991 117.84 67.0883 118.088 67.2133 118.336H66.0889C65.9818 118.124 65.9104 117.858 65.8747 117.556L65.8925 117.574ZM65.8033 115.199C65.4107 115.358 64.8217 115.483 64.0543 115.607C63.6081 115.678 63.3047 115.748 63.1083 115.819C62.9299 115.89 62.7871 116.014 62.68 116.174C62.5729 116.333 62.5372 116.493 62.5372 116.688C62.5372 116.972 62.6443 117.202 62.8585 117.397C63.0727 117.592 63.3939 117.681 63.8044 117.681C64.2149 117.681 64.5897 117.592 64.9109 117.415C65.2322 117.237 65.4642 116.989 65.6248 116.67C65.7319 116.422 65.8033 116.068 65.8033 115.607V115.217V115.199Z" fill="#DCDDDD"/>
<path d="M68.552 118.354V112.061H69.5158V112.948C69.9798 112.256 70.658 111.902 71.5325 111.902C71.9073 111.902 72.2643 111.973 72.5855 112.115C72.9068 112.256 73.1388 112.434 73.2994 112.646C73.46 112.859 73.5671 113.125 73.6385 113.426C73.6742 113.621 73.6921 113.976 73.6921 114.472V118.336H72.6212V114.508C72.6212 114.064 72.5855 113.745 72.4963 113.533C72.407 113.32 72.2643 113.143 72.0501 113.019C71.8359 112.894 71.5861 112.824 71.3005 112.824C70.8365 112.824 70.4438 112.965 70.1226 113.249C69.7835 113.533 69.6228 114.082 69.6228 114.897V118.336H68.552V118.354Z" fill="#DCDDDD"/>
<path d="M75.1554 118.886L76.1905 119.045C76.2262 119.364 76.3511 119.595 76.5475 119.736C76.8152 119.931 77.1721 120.038 77.6361 120.038C78.1359 120.038 78.5107 119.931 78.7784 119.736C79.0461 119.541 79.2246 119.258 79.3317 118.903C79.3852 118.691 79.4209 118.23 79.403 117.538C78.939 118.088 78.35 118.354 77.654 118.354C76.7795 118.354 76.1013 118.035 75.6372 117.414C75.1554 116.794 74.9233 116.05 74.9233 115.163C74.9233 114.561 75.0304 114.011 75.2446 113.497C75.4588 112.983 75.78 112.593 76.1905 112.327C76.601 112.044 77.1007 111.919 77.654 111.919C78.4036 111.919 79.0104 112.221 79.5101 112.823V112.061H80.4917V117.503C80.4917 118.478 80.3847 119.169 80.1883 119.595C79.992 120.002 79.6708 120.321 79.2424 120.57C78.8141 120.8 78.2787 120.924 77.6361 120.924C76.8866 120.924 76.2619 120.747 75.7979 120.41C75.3338 120.073 75.1018 119.559 75.1197 118.886H75.1554ZM76.0477 115.11C76.0477 115.943 76.2084 116.546 76.5475 116.918C76.8866 117.29 77.297 117.485 77.7968 117.485C78.2965 117.485 78.707 117.29 79.0461 116.918C79.3852 116.546 79.5458 115.943 79.5458 115.145C79.5458 114.348 79.3673 113.798 79.0282 113.408C78.6891 113.018 78.2787 112.823 77.7789 112.823C77.2792 112.823 76.9044 113.018 76.5653 113.408C76.2262 113.798 76.0656 114.366 76.0656 115.128L76.0477 115.11Z" fill="#DCDDDD"/>
<path d="M86.4886 116.333L87.5951 116.475C87.4166 117.113 87.0954 117.61 86.6314 117.982C86.1495 118.336 85.5605 118.514 84.8109 118.514C83.8829 118.514 83.1511 118.23 82.5978 117.663C82.0624 117.096 81.7769 116.298 81.7769 115.27C81.7769 114.242 82.0446 113.391 82.5978 112.806C83.1511 112.221 83.865 111.938 84.7395 111.938C85.6141 111.938 86.2744 112.221 86.8098 112.788C87.3453 113.356 87.613 114.171 87.613 115.199C87.613 115.27 87.613 115.359 87.613 115.483H82.8834C82.9191 116.174 83.1154 116.706 83.4724 117.078C83.8293 117.45 84.2755 117.627 84.7931 117.627C85.1857 117.627 85.5248 117.521 85.7925 117.326C86.0781 117.113 86.2923 116.794 86.4529 116.333H86.4886ZM82.9548 114.614H86.4886C86.435 114.082 86.3101 113.692 86.0781 113.426C85.739 113.019 85.2928 112.806 84.7395 112.806C84.2398 112.806 83.8293 112.966 83.4902 113.302C83.1511 113.639 82.9726 114.065 82.9369 114.614H82.9548Z" fill="#DCDDDD"/>
<path d="M333.8 0.195068H191.199V141.823H333.8V0.195068Z" stroke="#DCDDDD" stroke-miterlimit="10"/>
<path d="M245.384 55.5523C245.242 57.3249 244.92 59.2215 244.51 60.4446C244.099 60.2319 243.243 59.966 242.779 59.8419C243.243 58.672 243.457 56.8994 243.582 55.2864L245.384 55.5523ZM259.894 52.5389C259.841 54.5597 259.751 56.4917 259.68 58.1048H261.465V60.3028H250.489V58.1048H252.38C252.559 56.474 252.737 54.5597 252.898 52.5389H250.292C250.453 52.9998 250.578 53.4252 250.631 53.762L249.061 54.4001C249.025 54.152 248.936 53.8861 248.865 53.5847C244.849 54.2229 244.135 54.4356 243.724 54.6483C243.617 54.2229 243.243 53.1771 242.993 52.6098C243.492 52.4858 243.939 52.0249 244.545 51.2981C244.813 51.0145 245.295 50.3941 245.848 49.5788C244.278 49.756 243.832 49.8801 243.546 50.0219C243.421 49.5788 243.082 48.5861 242.814 48.0012C243.225 47.8948 243.564 47.5226 243.957 46.9022C244.331 46.3527 245.616 44.1193 246.295 41.9922L248.436 42.8607C247.704 44.5447 246.723 46.335 245.706 47.753L247.08 47.6467C247.562 46.8313 248.026 45.945 248.436 45.0587L250.364 46.2641C249.614 47.6112 248.704 48.9938 247.758 50.2878L249.168 49.7915C249.525 50.5537 249.918 51.4754 250.185 52.2731V50.3764H253.023C253.148 48.657 253.237 46.9376 253.309 45.3246H251.006V43.1266H259.966C259.966 45.3955 259.948 47.9125 259.912 50.3764H261.715V52.5567H259.876L259.894 52.5389ZM247.419 55.1623C247.669 56.4386 247.883 58.0871 247.936 59.2038L246.241 59.6292C246.223 58.5302 246.027 56.8285 245.813 55.5168L247.401 55.1623H247.419ZM248.329 51.8831C248.133 51.369 247.954 50.8195 247.74 50.341C247.258 50.9791 246.759 51.5818 246.241 52.1667L248.311 51.8831H248.329ZM249.4 54.5419C249.775 55.5346 250.221 56.864 250.382 57.7148L248.775 58.2998C248.615 57.4135 248.204 56.1018 247.865 55.0737L249.4 54.5597V54.5419ZM257.253 58.1048C257.36 56.4563 257.449 54.5597 257.521 52.5389H255.254C255.111 54.5774 254.951 56.5095 254.808 58.1048H257.253ZM255.7 45.3069C255.629 46.9376 255.522 48.6393 255.415 50.3587H257.592C257.628 48.657 257.645 46.9376 257.645 45.3069H255.682H255.7Z" fill="white"/>
<path d="M266.516 55.6942C266.248 57.3959 265.713 59.3102 265.231 60.4978C264.749 60.232 263.749 59.9306 263.196 59.7888C263.767 58.6544 264.231 56.8464 264.463 55.2511L266.516 55.6765V55.6942ZM270.103 54.4711C270.067 54.1698 269.996 53.8507 269.907 53.4608C265.302 54.1698 264.517 54.3825 264.017 54.6307C263.892 54.1875 263.535 53.0885 263.267 52.4681C263.821 52.344 264.303 51.9541 264.999 51.2096C265.302 50.926 265.837 50.3411 266.498 49.5434C264.731 49.7561 264.267 49.8802 263.928 50.022C263.821 49.5789 263.464 48.5153 263.196 47.9304C263.607 47.824 263.981 47.4518 264.445 46.8668C264.909 46.2996 266.355 44.1371 267.212 42.01L269.389 42.9317C268.515 44.5802 267.426 46.2642 266.319 47.6468L267.997 47.5227C268.532 46.7427 269.086 45.8565 269.568 45.0056L271.549 46.3351C270.317 48.3026 268.729 50.2347 267.122 51.9009L269.389 51.5818C269.246 51.0678 269.068 50.5538 268.907 50.0929L270.763 49.6143C271.317 50.9792 271.888 52.7872 272.12 53.8862L270.103 54.4711ZM268.818 55.0915C269.139 56.5096 269.425 58.3176 269.532 59.5584L267.533 60.0724C267.497 58.8494 267.23 56.9882 266.944 55.5701L268.818 55.0915ZM271.12 54.5952C271.62 55.7828 272.173 57.2895 272.387 58.2821L270.567 58.9912C270.371 57.9631 269.835 56.3855 269.371 55.1979L271.102 54.5952H271.12ZM281.49 45.6792C281.49 45.6792 281.472 46.53 281.472 46.7959C281.258 55.4283 281.008 58.4948 280.24 59.5407C279.669 60.2851 279.116 60.5156 278.259 60.6396C277.528 60.7814 276.278 60.7637 275.118 60.6928C275.082 60.037 274.761 58.9912 274.333 58.2999C275.564 58.4062 276.671 58.4062 277.206 58.4062C277.581 58.4239 277.831 58.353 278.045 58.0872C278.616 57.4845 278.83 54.6484 279.009 47.9304H274.244C273.762 48.9407 273.262 49.8625 272.709 50.5892C272.28 50.2347 271.227 49.5434 270.656 49.2421C272.048 47.5581 273.119 44.7929 273.69 42.1164L276.046 42.5772C275.796 43.623 275.493 44.6689 275.136 45.6615H281.49V45.6792ZM276.225 55.6765C275.618 54.4357 274.119 52.6099 272.78 51.3337L274.404 50.1106C275.761 51.3337 277.349 53.0708 278.009 54.2939L276.225 55.6765Z" fill="white"/>
<path d="M226.18 79.464C225.467 78.8082 224.003 77.7269 222.879 77.0179L224.235 75.5112C225.342 76.1493 226.876 77.1065 227.626 77.7978L226.198 79.464H226.18ZM228.465 81.9633C227.608 84.0195 226.555 86.2175 225.538 88.0964L223.521 86.7315C224.414 85.2426 225.699 82.8319 226.662 80.5807L228.465 81.9633ZM241.476 85.0476H236.71C238.299 85.5439 240.351 86.2707 241.458 86.8202L240.369 88.6105C239.191 87.9901 236.835 87.0506 235.122 86.4834L236.086 85.0653H234.961C234.069 86.6252 232.338 87.8837 229.214 88.6282C228.947 88.1319 228.322 87.281 227.858 86.8202C229.982 86.4479 231.303 85.8453 232.159 85.0476H228.144V83.275H233.284C233.355 82.9914 233.444 82.7078 233.48 82.4065H228.982V80.6339H233.534V79.854H229.054V75.8126H233.534V75.1744H230.607V72.8169H228.501L226.948 74.3591C226.323 73.5791 224.967 72.3915 223.914 71.5761L225.449 70.1935C226.377 70.9203 227.68 71.9129 228.411 72.6574V70.9912H230.589V69.8213H232.891V70.9912H236.425V69.8213H238.852V70.9912H241.119V72.8169H238.852V75.1744H235.8V75.8126H240.458V79.854H235.8V80.6339H240.726V82.4065H235.747C235.729 82.7078 235.693 82.9914 235.604 83.275H241.476V85.0476ZM233.534 78.3296V77.3547H231.213V78.3296H233.534ZM232.909 73.6855H236.443V72.8169H232.909V73.6855ZM235.818 77.3547V78.3296H238.174V77.3547H235.818Z" fill="white"/>
<path d="M249.275 75.0328C248.829 75.9368 248.311 76.8762 247.722 77.8157H247.74V88.5751H245.491V80.9354C245.01 81.5558 244.51 82.123 244.046 82.5839C243.796 82.0876 243.118 80.8822 242.725 80.3682C244.331 78.8438 246.063 76.5394 247.116 74.2706L249.257 75.0328H249.275ZM248.936 70.7432C247.615 72.6398 245.67 74.8732 243.992 76.3267C243.742 75.7772 243.225 74.8555 242.886 74.3592C244.278 73.1893 245.973 71.2749 246.794 69.8746L248.936 70.7432ZM247.883 86.8203C248.597 85.8986 249.15 84.3919 249.454 83.1157L251.274 83.8247C250.935 85.1541 250.399 86.7849 249.686 87.8484L247.883 86.8203ZM261.822 82.318H255.7C256.129 83.027 256.593 83.8779 256.842 84.4451L254.986 85.1009C254.736 84.4805 254.201 83.4347 253.773 82.6548L254.808 82.318H248.793V80.4214H261.804V82.318H261.822ZM253.862 74.1997C253.898 73.8806 253.951 73.5438 253.987 73.1716H249.061V71.2927H254.147C254.183 70.7432 254.201 70.2646 254.237 69.8037L256.771 69.8923L256.575 71.2927H261.733V73.1716H256.307C256.253 73.5261 256.182 73.8806 256.146 74.1997H261.126V79.5174H249.793V74.1997H253.862ZM256.396 86.5544C256.967 86.5544 257.074 86.3417 257.146 84.8882C257.574 85.1718 258.413 85.4732 258.984 85.5972C258.77 87.7775 258.199 88.327 256.646 88.327H254.147C252.077 88.327 251.56 87.7598 251.56 86.0227V83.5765H253.666V86.0049C253.666 86.5012 253.791 86.5722 254.451 86.5722H256.414L256.396 86.5544ZM253.023 75.8836H251.649V77.8334H253.023V75.8836ZM256.075 75.8836H254.665V77.8334H256.075V75.8836ZM257.681 77.8334H259.163V75.8836H257.681V77.8334ZM259.841 83.0093C260.733 84.1969 261.661 85.739 261.982 86.8026L260.109 87.6357C259.841 86.5899 258.984 84.9768 258.092 83.7892L259.841 83.0093Z" fill="white"/>
<path d="M269.532 76.8586C269.264 79.8011 268.747 82.2117 267.961 84.1261C269.817 85.7037 272.316 86.0582 275.279 86.0759C276.457 86.0759 280.633 86.0759 281.989 86.0228C281.65 86.5191 281.275 87.5649 281.151 88.203H275.225C271.834 88.203 269.068 87.7599 266.998 86.0582C266.373 87.104 265.623 87.9194 264.784 88.5575C264.445 88.0966 263.553 87.2813 263.053 86.9977C264.017 86.3418 264.802 85.4555 265.445 84.3565C264.767 83.3107 264.16 82.0522 263.678 80.4746L265.427 79.8897C265.695 80.7937 266.034 81.5736 266.409 82.2117C266.765 81.1837 267.015 80.0138 267.194 78.6666H263.963C264.767 77.1777 265.802 75.0329 266.641 73.0299H263.66V70.9737H269.871C269.104 72.7817 268.158 74.8911 267.301 76.6104H267.783L268.193 76.575L269.532 76.8763V76.8586ZM273.762 73.2249H270.335V71.4168H273.762V69.9102H276.028V71.4168H280.454V74.1111H281.561V75.9369H280.454V78.5957H276.028V79.5529H280.651V81.2723H276.028V82.2472H281.311V84.1261H276.028V85.491H273.762V84.1261H269.3V82.2472H273.762V81.2723H270.103V79.5529H273.762V78.5957H270.228V76.7877H273.762V75.9191H269.228V74.0934H273.762V73.2071V73.2249ZM276.028 73.2249V74.1111H278.348V73.2249H276.028ZM278.348 75.9369H276.028V76.8054H278.348V75.9369Z" fill="white"/>
<path d="M302.032 72.7284H298.534C298.944 73.1361 299.337 73.5792 299.587 73.8983L297.909 75.0682H299.283V78.8615C299.283 79.1983 299.266 79.3755 299.319 79.4641C299.355 79.5528 299.444 79.5705 299.515 79.5705H299.819C299.926 79.5705 299.997 79.5528 300.069 79.5173C300.122 79.4819 300.194 79.3755 300.229 79.1451C300.265 78.8969 300.283 78.3829 300.301 77.7448C300.658 78.0638 301.336 78.3829 301.854 78.5601C301.818 79.3223 301.711 80.1377 301.586 80.5099C301.425 80.829 301.211 81.0949 300.925 81.2544C300.64 81.3962 300.212 81.4671 299.855 81.4671H298.873C298.373 81.4671 297.838 81.3076 297.499 80.9885C297.195 80.6695 297.035 80.315 297.017 79.3046L296.232 80.7758C295.875 80.5631 295.357 80.315 294.822 80.0136C294.554 80.4213 294.179 80.7581 293.679 81.0772H293.947V82.2471H301.925V84.1083H296.588C298.248 84.7818 300.568 85.8454 301.729 86.6785L299.997 88.3092C298.909 87.4938 296.606 86.3062 294.911 85.544L296.535 84.126H293.947V88.6637H291.609V84.126H283.649V82.2648H291.609V81.0949H291.895C291.627 80.8467 291.341 80.6163 291.109 80.4745V80.5808C288.629 80.9176 286.041 81.2367 284.095 81.5026L283.828 79.6237C284.595 79.5528 285.541 79.4464 286.54 79.3223V76.8762H284.042V75.2277H289.093C288.718 74.6605 288.04 73.9515 287.54 73.402L288.307 72.7993H286.951C286.308 73.6147 285.648 74.3237 284.952 74.8909C284.613 74.4478 283.828 73.6501 283.346 73.2424C284.577 72.3739 285.719 71.0799 286.38 69.7505L288.504 70.3886C288.397 70.5836 288.289 70.814 288.165 71.009H292.591V72.7993H289.646C290.128 73.2779 290.592 73.7742 290.859 74.1464L289.521 75.2277H291.109V76.8762H288.736V79.0742C289.503 78.9678 290.288 78.8792 291.056 78.7728L291.109 80.2972C292.055 79.9427 292.662 79.535 293.037 79.1096C292.466 78.826 291.895 78.5424 291.377 78.3297L292.216 77.0003C292.662 77.1775 293.144 77.408 293.644 77.6207C293.662 77.5143 293.662 77.408 293.662 77.3016V76.6812H291.77V75.1214H297.856C297.517 74.6073 296.821 73.8451 296.285 73.2956L297.035 72.7993H295.464C294.893 73.6147 294.322 74.3237 293.697 74.8909C293.287 74.5187 292.412 73.8097 291.877 73.4729C293.055 72.5689 294.072 71.1863 294.625 69.7682L296.785 70.3354C296.678 70.5836 296.588 70.7963 296.481 71.0445H302.086V72.8348L302.032 72.7284ZM290.735 84.9059C289.503 86.4658 287.361 87.7775 285.184 88.3978C284.827 87.8129 284.113 86.9089 283.596 86.4303C285.612 86.0226 287.683 85.1895 288.789 84.1792L290.752 84.9059H290.735ZM295.625 77.2839C295.625 77.6561 295.589 78.0284 295.518 78.3829C296.107 78.6665 296.606 78.9501 297.017 79.1628V76.5926H295.625V77.2662V77.2839Z" fill="white"/>
<path d="M215.936 107.559V98.8735H217.096V102.436H221.647V98.8735H222.807V107.559H221.647V103.464H217.096V107.559H215.936Z" fill="#DCDDDD"/>
<path d="M228.715 106.779C228.322 107.116 227.93 107.347 227.573 107.488C227.198 107.63 226.805 107.701 226.395 107.701C225.699 107.701 225.163 107.524 224.788 107.187C224.414 106.85 224.235 106.425 224.235 105.893C224.235 105.592 224.307 105.308 224.449 105.042C224.592 104.794 224.771 104.581 225.003 104.422C225.235 104.262 225.484 104.156 225.77 104.067C225.984 104.014 226.305 103.961 226.716 103.908C227.59 103.801 228.215 103.677 228.626 103.535C228.626 103.394 228.626 103.305 228.626 103.252C228.626 102.809 228.518 102.507 228.322 102.33C228.054 102.082 227.644 101.976 227.091 101.976C226.591 101.976 226.216 102.064 225.966 102.242C225.734 102.419 225.556 102.72 225.431 103.181L224.378 103.039C224.467 102.596 224.628 102.224 224.842 101.958C225.056 101.692 225.377 101.479 225.788 101.32C226.198 101.178 226.68 101.089 227.233 101.089C227.787 101.089 228.215 101.16 228.554 101.284C228.893 101.408 229.143 101.568 229.304 101.763C229.464 101.958 229.571 102.188 229.643 102.49C229.679 102.667 229.696 103.004 229.696 103.482V104.9C229.696 105.893 229.714 106.513 229.768 106.779C229.821 107.045 229.911 107.293 230.036 107.541H228.911C228.804 107.329 228.733 107.063 228.697 106.762L228.715 106.779ZM228.626 104.404C228.233 104.564 227.644 104.688 226.877 104.812C226.43 104.883 226.127 104.954 225.931 105.024C225.752 105.095 225.609 105.219 225.502 105.379C225.395 105.538 225.359 105.698 225.359 105.893C225.359 106.177 225.467 106.407 225.681 106.602C225.895 106.797 226.216 106.886 226.627 106.886C227.037 106.886 227.412 106.797 227.733 106.62C228.054 106.442 228.286 106.194 228.447 105.875C228.554 105.627 228.626 105.273 228.626 104.812V104.422V104.404Z" fill="#DCDDDD"/>
<path d="M231.374 107.559V101.266H232.338V102.153C232.802 101.461 233.48 101.107 234.355 101.107C234.729 101.107 235.086 101.178 235.408 101.32C235.729 101.461 235.961 101.639 236.121 101.851C236.282 102.064 236.389 102.33 236.461 102.631C236.496 102.826 236.514 103.181 236.514 103.677V107.541H235.443V103.713C235.443 103.269 235.408 102.95 235.318 102.738C235.229 102.525 235.086 102.348 234.872 102.224C234.658 102.1 234.408 102.029 234.123 102.029C233.658 102.029 233.266 102.17 232.945 102.454C232.606 102.738 232.445 103.287 232.445 104.103V107.541H231.374V107.559Z" fill="#DCDDDD"/>
<path d="M242.279 107.559V106.762C241.868 107.382 241.279 107.701 240.512 107.701C240.012 107.701 239.548 107.559 239.12 107.293C238.691 107.01 238.37 106.638 238.138 106.141C237.906 105.645 237.781 105.078 237.781 104.44C237.781 103.801 237.888 103.234 238.103 102.738C238.317 102.224 238.62 101.834 239.048 101.568C239.477 101.302 239.941 101.16 240.458 101.16C240.833 101.16 241.172 101.249 241.476 101.408C241.779 101.568 242.011 101.781 242.207 102.029V98.9092H243.278V107.595H242.279V107.559ZM238.888 104.422C238.888 105.22 239.066 105.822 239.405 106.23C239.744 106.638 240.155 106.833 240.619 106.833C241.083 106.833 241.494 106.638 241.815 106.265C242.136 105.893 242.315 105.308 242.315 104.528C242.315 103.66 242.154 103.039 241.815 102.632C241.476 102.224 241.065 102.029 240.583 102.029C240.101 102.029 239.709 102.224 239.388 102.614C239.066 103.004 238.906 103.606 238.906 104.44L238.888 104.422Z" fill="#DCDDDD"/>
<path d="M249.311 105.539L250.417 105.68C250.239 106.318 249.918 106.815 249.454 107.187C248.972 107.542 248.383 107.719 247.633 107.719C246.705 107.719 245.973 107.435 245.42 106.868C244.885 106.301 244.599 105.503 244.599 104.475C244.599 103.447 244.867 102.596 245.42 102.011C245.973 101.426 246.687 101.143 247.562 101.143C248.436 101.143 249.097 101.426 249.632 101.993C250.168 102.561 250.435 103.376 250.435 104.404C250.435 104.475 250.435 104.564 250.435 104.688H245.706C245.741 105.379 245.938 105.911 246.295 106.283C246.652 106.655 247.098 106.833 247.615 106.833C248.008 106.833 248.347 106.726 248.615 106.531C248.9 106.318 249.115 105.999 249.275 105.539H249.311ZM245.777 103.819H249.311C249.257 103.287 249.132 102.897 248.9 102.632C248.561 102.224 248.115 102.011 247.562 102.011C247.062 102.011 246.652 102.171 246.312 102.507C245.973 102.844 245.795 103.27 245.759 103.819H245.777Z" fill="#DCDDDD"/>
<path d="M251.738 107.559V98.8735H252.809V107.559H251.738Z" fill="#DCDDDD"/>
<path d="M256.378 107.559L259.734 98.8735H260.983L264.57 107.559H263.25L262.232 104.936H258.574L257.61 107.559H256.378ZM258.895 103.996H261.858L260.947 101.586C260.662 100.859 260.465 100.256 260.323 99.7775C260.216 100.327 260.055 100.894 259.859 101.444L258.895 103.996Z" fill="#DCDDDD"/>
<path d="M265.338 107.559V101.266H266.301V102.223C266.551 101.78 266.783 101.479 266.98 101.337C267.194 101.195 267.426 101.125 267.676 101.125C268.033 101.125 268.407 101.231 268.782 101.461L268.407 102.454C268.14 102.294 267.89 102.223 267.622 102.223C267.39 102.223 267.176 102.294 266.997 102.436C266.801 102.578 266.676 102.773 266.605 103.021C266.48 103.393 266.426 103.819 266.426 104.262V107.559H265.355H265.338Z" fill="#DCDDDD"/>
<path d="M273.565 105.255L274.618 105.397C274.493 106.123 274.208 106.691 273.726 107.098C273.244 107.506 272.673 107.719 271.977 107.719C271.102 107.719 270.406 107.435 269.889 106.868C269.353 106.301 269.104 105.503 269.104 104.439C269.104 103.766 269.211 103.163 269.443 102.649C269.675 102.135 270.014 101.763 270.478 101.497C270.942 101.249 271.442 101.107 271.995 101.107C272.691 101.107 273.244 101.284 273.69 101.621C274.137 101.975 274.404 102.454 274.529 103.092L273.494 103.252C273.387 102.826 273.226 102.507 272.959 102.295C272.709 102.082 272.405 101.975 272.048 101.975C271.513 101.975 271.067 102.17 270.728 102.56C270.389 102.95 270.228 103.553 270.228 104.386C270.228 105.219 270.389 105.84 270.71 106.23C271.031 106.62 271.459 106.797 271.995 106.797C272.423 106.797 272.762 106.673 273.048 106.407C273.333 106.141 273.512 105.751 273.583 105.219L273.565 105.255Z" fill="#DCDDDD"/>
<path d="M275.529 107.559V98.8735H276.599V101.993C277.099 101.408 277.742 101.125 278.491 101.125C278.955 101.125 279.366 101.213 279.723 101.408C280.062 101.586 280.312 101.851 280.472 102.171C280.615 102.49 280.704 102.968 280.704 103.589V107.577H279.633V103.589C279.633 103.057 279.526 102.667 279.277 102.419C279.044 102.171 278.723 102.046 278.295 102.046C277.974 102.046 277.67 102.135 277.403 102.295C277.117 102.454 276.921 102.685 276.796 102.968C276.671 103.252 276.617 103.642 276.617 104.138V107.577H275.546L275.529 107.559Z" fill="#DCDDDD"/>
<path d="M282.328 100.097V98.8735H283.399V100.097H282.328ZM282.328 107.559V101.266H283.399V107.559H282.328Z" fill="#DCDDDD"/>
<path d="M287.397 106.602L287.558 107.541C287.254 107.612 286.987 107.63 286.737 107.63C286.344 107.63 286.041 107.577 285.827 107.453C285.612 107.329 285.452 107.169 285.38 106.974C285.291 106.779 285.256 106.354 285.256 105.715V102.099H284.47V101.266H285.256V99.7065L286.326 99.0684V101.266H287.415V102.099H286.326V105.786C286.326 106.088 286.344 106.283 286.38 106.371C286.416 106.46 286.487 106.531 286.558 106.584C286.648 106.637 286.773 106.655 286.933 106.655C287.058 106.655 287.219 106.655 287.397 106.619V106.602Z" fill="#DCDDDD"/>
<path d="M292.769 105.539L293.876 105.68C293.697 106.318 293.376 106.815 292.912 107.187C292.43 107.542 291.841 107.719 291.092 107.719C290.164 107.719 289.432 107.435 288.879 106.868C288.343 106.301 288.058 105.503 288.058 104.475C288.058 103.447 288.325 102.596 288.879 102.011C289.432 101.426 290.146 101.143 291.02 101.143C291.895 101.143 292.555 101.426 293.091 101.993C293.626 102.561 293.894 103.376 293.894 104.404C293.894 104.475 293.894 104.564 293.894 104.688H289.164C289.2 105.379 289.396 105.911 289.753 106.283C290.11 106.655 290.556 106.833 291.074 106.833C291.466 106.833 291.806 106.726 292.073 106.531C292.359 106.318 292.573 105.999 292.734 105.539H292.769ZM289.236 103.819H292.769C292.716 103.287 292.591 102.897 292.359 102.632C292.02 102.224 291.574 102.011 291.02 102.011C290.521 102.011 290.11 102.171 289.771 102.507C289.432 102.844 289.253 103.27 289.218 103.819H289.236Z" fill="#DCDDDD"/>
<path d="M299.373 105.255L300.426 105.397C300.301 106.123 300.015 106.691 299.533 107.098C299.051 107.506 298.48 107.719 297.784 107.719C296.91 107.719 296.214 107.435 295.696 106.868C295.161 106.301 294.911 105.503 294.911 104.439C294.911 103.766 295.018 103.163 295.25 102.649C295.482 102.135 295.821 101.763 296.285 101.497C296.749 101.249 297.249 101.107 297.802 101.107C298.498 101.107 299.051 101.284 299.498 101.621C299.944 101.975 300.212 102.454 300.336 103.092L299.301 103.252C299.194 102.826 299.034 102.507 298.766 102.295C298.516 102.082 298.213 101.975 297.856 101.975C297.32 101.975 296.874 102.17 296.535 102.56C296.196 102.95 296.035 103.553 296.035 104.386C296.035 105.219 296.196 105.84 296.517 106.23C296.838 106.62 297.267 106.797 297.802 106.797C298.231 106.797 298.57 106.673 298.855 106.407C299.141 106.141 299.319 105.751 299.391 105.219L299.373 105.255Z" fill="#DCDDDD"/>
<path d="M303.692 106.602L303.852 107.541C303.549 107.612 303.281 107.63 303.031 107.63C302.639 107.63 302.335 107.577 302.121 107.453C301.907 107.329 301.746 107.169 301.675 106.974C301.586 106.779 301.55 106.354 301.55 105.715V102.099H300.765V101.266H301.55V99.7065L302.621 99.0684V101.266H303.71V102.099H302.621V105.786C302.621 106.088 302.639 106.283 302.675 106.371C302.71 106.46 302.782 106.531 302.853 106.584C302.942 106.637 303.067 106.655 303.228 106.655C303.353 106.655 303.513 106.655 303.692 106.619V106.602Z" fill="#DCDDDD"/>
<path d="M304.316 105.68L305.369 105.521C305.423 105.946 305.601 106.265 305.869 106.496C306.137 106.726 306.53 106.832 307.011 106.832C307.493 106.832 307.868 106.726 308.1 106.531C308.332 106.336 308.457 106.106 308.457 105.822C308.457 105.574 308.35 105.397 308.136 105.255C307.993 105.166 307.618 105.042 307.047 104.9C306.262 104.705 305.709 104.528 305.405 104.386C305.102 104.244 304.87 104.049 304.709 103.784C304.548 103.535 304.477 103.252 304.477 102.933C304.477 102.649 304.548 102.401 304.673 102.153C304.798 101.922 304.977 101.71 305.209 101.55C305.369 101.426 305.601 101.32 305.887 101.231C306.173 101.142 306.476 101.107 306.815 101.107C307.315 101.107 307.743 101.178 308.118 101.32C308.493 101.461 308.778 101.656 308.957 101.905C309.135 102.153 309.26 102.472 309.332 102.879L308.279 103.021C308.225 102.702 308.1 102.436 307.868 102.259C307.636 102.082 307.315 101.993 306.904 101.993C306.405 101.993 306.065 102.082 305.851 102.241C305.637 102.401 305.53 102.596 305.53 102.809C305.53 102.95 305.566 103.074 305.655 103.181C305.744 103.287 305.887 103.394 306.065 103.464C306.173 103.5 306.494 103.589 307.011 103.73C307.779 103.925 308.296 104.103 308.6 104.227C308.903 104.351 309.135 104.546 309.314 104.794C309.492 105.042 309.564 105.343 309.564 105.716C309.564 106.088 309.456 106.407 309.26 106.726C309.046 107.045 308.743 107.275 308.35 107.453C307.957 107.63 307.511 107.719 307.011 107.719C306.19 107.719 305.566 107.541 305.137 107.205C304.709 106.868 304.423 106.354 304.316 105.698V105.68Z" fill="#DCDDDD"/>
<path d="M524.821 0.195068H382.22V141.823H524.821V0.195068Z" stroke="#DCDDDD" stroke-miterlimit="10"/>
<path d="M414.31 42.0632H421.77V44.1903H404.601V42.0632H411.811V39.6348H406.582V37.5786H411.811V35.292H407.582V33.5726C406.707 34.1576 405.85 34.6539 405.012 35.0793C404.672 34.4944 404.084 33.679 403.53 33.1472C405.779 32.2432 408.278 30.577 410.17 28.8044H407.492V26.6064H414.399C416.131 29.1235 419.361 31.6582 422.788 32.899C422.288 33.4131 421.538 34.4057 421.181 35.0793C420.307 34.6716 419.468 34.193 418.647 33.6612V35.3097H414.328V37.5963H419.611V39.6525H414.328V42.0809L414.31 42.0632ZM417.951 33.1827C416.095 31.8887 414.417 30.3288 413.114 28.7867C411.776 30.3288 409.991 31.8887 408.153 33.1827H417.969H417.951Z" fill="white"/>
<path d="M442.58 33.2712C441.527 34.6361 440.26 36.125 439.243 37.1354C440.117 38.8548 441.295 40.1488 443.009 41.3364C442.473 41.7441 441.813 42.5063 441.527 43.1444C439.832 41.8681 438.636 40.5033 437.708 38.8193V42.01C437.708 43.2153 437.458 43.8357 436.762 44.2079C436.084 44.6156 435.049 44.7042 433.55 44.7042C433.442 44.0661 433.05 43.038 432.746 42.3999C433.71 42.4354 434.656 42.4354 434.96 42.4176C435.263 42.4176 435.406 42.3113 435.406 42.01V38.7307C433.996 40.0956 432.532 41.4782 431.283 42.5949L430.176 40.911C428.088 41.5668 425.911 42.2581 424.18 42.7899L423.68 40.521C424.394 40.3437 425.197 40.1133 426.107 39.8652V35.0261H424.09V32.8458H426.107V29.3184H423.983V27.1027H430.373V29.3184H428.338V32.8458H430.069V35.0261H428.338V39.2093L430.391 38.5889L430.605 39.8829C431.908 38.9257 433.71 37.5254 435.388 36.1428V31.3569H430.748V29.1766H435.388V25.9683H437.69V29.1766H440.439C439.921 28.5739 439.047 27.8295 438.315 27.2977L439.618 26.0923C440.457 26.6064 441.51 27.4749 442.045 28.0776L440.903 29.1766H442.634V31.3569H437.69V32.1545C437.886 33.2535 438.136 34.2107 438.422 35.1147C439.171 34.1575 439.957 33.0585 440.457 32.1545L442.527 33.2358L442.58 33.2712ZM432.764 32.2609C433.532 33.3598 434.406 34.7779 434.71 35.7883L432.746 36.6923C432.461 35.7351 431.658 34.2107 430.908 33.0762L432.764 32.2609Z" fill="white"/>
<path d="M453.449 42.329C453.449 43.3571 453.253 43.9065 452.557 44.2611C451.915 44.5978 450.987 44.6333 449.755 44.6333C449.63 44.0306 449.291 43.1444 448.988 42.6126C449.737 42.648 450.54 42.648 450.808 42.6303C451.058 42.6303 451.129 42.5594 451.129 42.3112V40.521H447.578C447.363 42.0454 446.899 43.552 446.078 44.6865C445.722 44.3142 444.776 43.5875 444.276 43.3393C445.525 41.5313 445.65 39.0143 445.65 37.0467V32.4558H453.432V42.3112L453.449 42.329ZM462.623 28.9461V31.0909H444.365V28.9461H448.666C448.309 28.2725 447.72 27.404 447.149 26.7481L449.434 25.9682C450.166 26.7304 450.969 27.8117 451.308 28.5739L450.201 28.9461H455.805C456.412 28.0244 457.055 26.8368 457.465 25.915L460.071 26.6772C459.589 27.4572 459.036 28.2371 458.536 28.9461H462.623ZM451.129 38.7838V37.4899H447.828C447.828 37.9153 447.81 38.3407 447.774 38.7838H451.147H451.129ZM447.828 34.3347V35.7173H451.129V34.3347H447.828ZM457.394 40.84H455.199V32.6685H457.394V40.84ZM459.214 32.1013H461.57V42.0631C461.57 43.2507 461.356 43.8356 460.535 44.2079C459.767 44.5624 458.679 44.6333 457.233 44.6156C457.108 43.9775 456.733 42.9848 456.359 42.3644C457.394 42.3999 458.429 42.3999 458.786 42.3821C459.107 42.3821 459.214 42.2935 459.214 42.0276V32.1013Z" fill="white"/>
<path d="M482.755 41.3896V43.7471H464.747V41.3896H469.405C469.744 39.7588 470.119 37.8799 470.458 35.9124H467.031V33.5726H470.833C471.011 32.4382 471.172 31.2683 471.315 30.1693H465.907V27.8118H481.452V30.1693H473.992C473.831 31.2683 473.653 32.4382 473.474 33.5726H477.204L477.633 33.484L479.542 33.6258C479.417 35.9656 479.168 38.8017 478.882 41.3896H482.773H482.755ZM473.082 35.9124C472.742 37.8977 472.403 39.7766 472.064 41.3896H476.276C476.473 39.5639 476.651 37.5609 476.776 35.9124H473.064H473.082Z" fill="white"/>
<path d="M495.73 33.803C497.069 37.7027 499.496 40.8578 503.28 42.3822C502.673 42.8786 501.887 43.9421 501.513 44.6334C497.854 42.9317 495.516 40.007 493.945 36.1428C492.857 39.493 490.679 42.6127 486.396 44.6688C486.021 44.013 485.307 43.1444 484.593 42.6481C489.216 40.6097 491.125 37.2773 491.911 33.8385H484.968V31.3746H492.321C492.518 29.4957 492.5 27.67 492.518 26.0215H495.141C495.123 27.67 495.105 29.5134 494.909 31.3746H502.833V33.8385H495.73V33.803Z" fill="white"/>
<path d="M427.428 66.8257C426.928 68.2615 426.089 69.91 425.393 70.9381C425.036 70.6367 424.269 70.1227 423.823 69.8568C424.501 68.9173 425.179 67.5525 425.607 66.3117L427.446 66.8257H427.428ZM430.248 65.6558V72.3029H427.928V65.6558H424.18V63.6528H427.928V62.1107H424.055V60.1432H426.018C425.911 59.5405 425.679 58.6719 425.429 58.0515L427.089 57.6438H424.358V55.694H427.803C427.624 55.1445 427.392 54.595 427.196 54.1164L429.605 53.5315C429.909 54.1873 430.266 55.0204 430.516 55.694H433.407V57.6438H430.89L432.532 57.9629C432.229 58.7251 431.925 59.505 431.622 60.1254H433.728V62.093H430.284V63.6351H433.407V65.6381H430.284L430.248 65.6558ZM427.339 57.6616C427.642 58.3174 427.91 59.186 427.999 59.7532L426.553 60.1609H429.463C429.766 59.4341 430.123 58.4238 430.337 57.6793H427.357L427.339 57.6616ZM442.687 62.5361H440.814V72.3738H438.475V62.5361H436.602V62.7843C436.602 65.7267 436.334 69.8568 434.62 72.427C434.21 72.0016 433.264 71.2394 432.764 71.009C433.139 70.424 433.443 69.7682 433.675 69.0591L432.247 69.9454C431.925 69.1478 431.247 67.8538 430.676 66.9321L432.247 66.099C432.8 66.8966 433.425 67.9602 433.764 68.7224C434.335 66.7903 434.388 64.6277 434.388 62.7843V55.6408C436.584 55.2332 439.029 54.6128 440.51 53.9392L442.348 55.6763C440.689 56.3321 438.6 56.8107 436.619 57.183V60.3204H442.723V62.5184L442.687 62.5361Z" fill="white"/>
<path d="M453.646 57.2718C453.646 57.2718 453.628 58.0694 453.61 58.3708C453.307 66.8436 453.003 69.981 452.289 70.9205C451.825 71.6295 451.379 71.86 450.737 71.984C450.166 72.1081 449.327 72.1081 448.434 72.0904C448.399 71.3636 448.131 70.3001 447.756 69.6265C448.47 69.6797 449.113 69.7152 449.47 69.7152C449.773 69.7152 449.951 69.6265 450.183 69.3429C450.63 68.758 450.933 66.2764 451.165 59.647H449.184C448.934 64.6988 448.202 69.3075 445.793 72.4981C445.365 71.9131 444.561 71.1332 443.901 70.7964C446.043 68.0667 446.65 64.0607 446.81 59.647H444.454V57.325H446.882C446.899 56.1905 446.899 55.0029 446.899 53.833H449.327C449.327 55.0029 449.309 56.1728 449.291 57.325H453.664L453.646 57.2718ZM462.159 56.0133V71.8777H459.66V70.6369H456.965V72.0195H454.556V56.0133H462.159ZM459.66 68.3326V58.2821H456.965V68.3326H459.66Z" fill="white"/>
<path d="M482.434 61.8981C481.827 64.6279 480.774 66.8081 479.328 68.5098C480.471 69.3429 481.791 69.9987 483.326 70.4064C482.826 70.8673 482.13 71.8067 481.809 72.4449C480.203 71.8954 478.846 71.1155 477.669 70.1583C476.544 71.08 475.223 71.8245 473.814 72.4094C473.528 71.8245 472.921 70.9382 472.457 70.4773C473.76 70.0519 474.974 69.3961 476.062 68.5098C475.045 67.3044 474.26 65.8864 473.635 64.2379C473.385 67.0208 472.618 70.2114 470.547 72.3562C470.19 71.8954 469.262 71.08 468.781 70.7964C470.012 69.5556 470.654 67.9957 471.047 66.4004C469.013 67.3931 466.817 68.4212 465.05 69.2011L464.122 66.879C464.836 66.6309 465.657 66.3118 466.603 65.9396V60.5864H464.426V58.3176H466.603V53.9748H468.834V58.3176H470.904V60.5864H468.834V65.0178L470.53 64.3088L471.047 66.2764C471.386 64.6988 471.458 63.1035 471.458 61.7386V56.3855H475.83V53.6912H478.168V56.3855H480.988L481.327 56.3323L483.112 56.6691C482.755 58.2112 482.237 59.9306 481.773 61.0118L479.667 60.551C479.846 60.0369 480.024 59.3279 480.221 58.5834H478.168V61.3841H480.488L480.899 61.2955L482.416 61.8449L482.434 61.8981ZM473.76 58.6366V61.4373H475.866V58.6366H473.76ZM475.563 63.5289C476.08 64.8051 476.794 65.975 477.669 66.9677C478.49 65.9927 479.168 64.8229 479.632 63.5289H475.58H475.563Z" fill="white"/>
<path d="M410.08 88.4865C409.812 91.429 409.295 93.8397 408.51 95.754C410.366 97.3316 412.864 97.6861 415.827 97.7039C417.005 97.7039 421.181 97.7039 422.538 97.6507C422.199 98.147 421.824 99.1928 421.699 99.8309H415.774C412.383 99.8309 409.616 99.3878 407.546 97.6861C406.921 98.7319 406.172 99.5473 405.333 100.185C404.994 99.7246 404.101 98.9092 403.602 98.6256C404.565 97.9697 405.351 97.0835 405.993 95.9845C405.315 94.9387 404.708 93.6801 404.226 92.1026L405.975 91.5176C406.243 92.4216 406.582 93.2015 406.957 93.8397C407.314 92.8116 407.564 91.6417 407.742 90.2945H404.512C405.315 88.8056 406.35 86.6608 407.189 84.6578H404.208V82.6016H410.419C409.652 84.4096 408.706 86.519 407.849 88.2384H408.331L408.742 88.2029L410.08 88.5043V88.4865ZM414.31 84.8528H410.883V83.0448H414.31V81.5381H416.577V83.0448H421.003V85.7391H422.109V87.5648H421.003V90.2236H416.577V91.1808H421.199V92.9002H416.577V93.8751H421.859V95.754H416.577V97.1189H414.31V95.754H409.848V93.8751H414.31V92.9002H410.651V91.1808H414.31V90.2236H410.776V88.4156H414.31V87.5471H409.777V85.7213H414.31V84.8351V84.8528ZM416.577 84.8528V85.7391H418.897V84.8528H416.577ZM418.897 87.5648H416.577V88.4334H418.897V87.5648Z" fill="white"/>
<path d="M442.581 84.3744H439.082C439.493 84.7821 439.886 85.2252 440.135 85.5443L438.458 86.7142H439.832V90.5075C439.832 90.8442 439.814 91.0215 439.868 91.1101C439.903 91.1988 439.993 91.2165 440.064 91.2165H440.367C440.475 91.2165 440.546 91.1988 440.617 91.1633C440.671 91.1279 440.742 91.0215 440.778 90.7911C440.814 90.5429 440.831 90.0289 440.849 89.3907C441.206 89.7098 441.885 90.0289 442.402 90.2061C442.366 90.9683 442.259 91.7837 442.134 92.1559C441.974 92.475 441.76 92.7409 441.474 92.9004C441.188 93.0422 440.76 93.1131 440.403 93.1131H439.422C438.922 93.1131 438.386 92.9536 438.047 92.6345C437.744 92.3155 437.583 91.961 437.565 90.9506L436.78 92.4218C436.423 92.2091 435.906 91.961 435.37 91.6596C435.102 92.0673 434.728 92.4041 434.228 92.7232H434.496V93.8931H442.473V95.7542H437.137C438.797 96.4278 441.117 97.4914 442.277 98.3245L440.546 99.9552C439.457 99.1398 437.155 97.9522 435.459 97.19L437.084 95.772H434.496V100.31H432.158V95.772H424.198V93.9108H432.158V92.7409H432.443C432.176 92.4927 431.89 92.2623 431.658 92.1205V92.2268C429.177 92.5636 426.589 92.8827 424.644 93.1486L424.376 91.2697C425.144 91.1988 426.09 91.0924 427.089 90.9683V88.5222H424.59V86.8737H429.641C429.266 86.3065 428.588 85.5975 428.088 85.048L428.856 84.4453H427.499C426.857 85.2607 426.197 85.9697 425.501 86.5369C425.161 86.0938 424.376 85.2961 423.894 84.8884C425.126 84.0199 426.268 82.7259 426.928 81.3965L429.052 82.0346C428.945 82.2296 428.838 82.46 428.713 82.655H433.139V84.4453H430.194C430.676 84.9239 431.14 85.4202 431.408 85.7924L430.07 86.8737H431.658V88.5222H429.284V90.7202C430.052 90.6138 430.837 90.5252 431.604 90.4188L431.658 91.9432C432.604 91.5887 433.211 91.181 433.585 90.7556C433.014 90.472 432.443 90.1884 431.926 89.9757L432.764 88.6463C433.211 88.8235 433.693 89.054 434.192 89.2667C434.21 89.1603 434.21 89.054 434.21 88.9476V88.3272H432.318V86.7674H438.404C438.065 86.2533 437.369 85.4911 436.834 84.9416L437.583 84.4453H436.013C435.442 85.2607 434.87 85.9697 434.246 86.5369C433.835 86.1647 432.961 85.4557 432.425 85.1189C433.603 84.2149 434.621 82.8323 435.174 81.4142L437.333 81.9814C437.226 82.2296 437.137 82.4423 437.03 82.6905H442.634V84.4807L442.581 84.3744ZM431.283 96.5519C430.052 98.1118 427.91 99.4234 425.733 100.044C425.376 99.4589 424.662 98.5549 424.144 98.0763C426.161 97.6686 428.231 96.8355 429.338 95.8252L431.301 96.5519H431.283ZM436.173 88.9299C436.173 89.3021 436.138 89.6744 436.066 90.0289C436.655 90.3125 437.155 90.5961 437.565 90.8088V88.2386H436.173V88.9122V88.9299Z" fill="white"/>
<path d="M462.819 94.6551H460.714V98.147H458.268V97.3316H454.627V97.952C454.627 99.1396 454.342 99.6182 453.557 99.955C452.789 100.256 451.701 100.292 449.987 100.292C449.862 99.7246 449.505 98.9092 449.202 98.4129C450.166 98.4483 451.361 98.4483 451.683 98.4483C452.057 98.4306 452.182 98.3065 452.182 97.952V97.3316H446.043V95.6122H452.182V94.6728H444.187V92.847H452.182V91.9785H446.204V90.3832H452.182V89.4969H446.721V85.5264H452.182V84.711H444.651V82.8321H452.182V81.5381H454.627V82.8321H462.338V84.711H454.627V85.5264H460.357V89.4969H454.627V90.3832H460.696V92.847H462.802V94.6728L462.819 94.6551ZM452.2 87.9725V87.0153H449.023V87.9725H452.2ZM454.645 87.0153V87.9725H457.911V87.0153H454.645ZM454.645 92.8293H458.286V91.9608H454.645V92.8293ZM458.286 94.6551H454.645V95.5945H458.286V94.6551Z" fill="white"/>
<path d="M481.649 85.4907C481.131 86.6251 480.453 87.6001 479.632 88.4154C480.738 88.9295 481.988 89.3372 483.344 89.6031C482.826 90.0816 482.148 91.0211 481.827 91.6238C480.292 91.2515 478.918 90.6489 477.704 89.9044C476.508 90.6311 475.116 91.1629 473.581 91.5883C473.457 91.3756 473.26 91.0743 473.01 90.7552C472.725 91.996 472.386 93.2014 472.029 94.1054L470.405 93.3609C470.619 92.6164 470.869 91.6238 471.047 90.5957H469.976V97.6505C469.976 98.7318 469.816 99.3699 469.102 99.7421C468.424 100.114 467.513 100.168 466.264 100.168C466.21 99.5117 465.889 98.5368 465.586 97.8986C466.335 97.9164 467.139 97.9164 467.406 97.9164C467.656 97.8987 467.728 97.8632 467.728 97.615V93.3254C467.014 94.8144 466.175 96.1438 465.211 97.0301C465.015 96.3565 464.479 95.3639 464.122 94.7258C465.229 93.7508 466.282 92.1733 466.996 90.5957H464.479V88.5041H469.102C467.977 87.8305 466.46 87.0683 465.211 86.5542L466.728 85.0298C467.21 85.2071 467.781 85.4375 468.316 85.668C468.763 85.2957 469.209 84.8526 469.584 84.4094H464.747V82.4065H471.261L471.618 82.3178L473.153 83.275C472.475 84.3917 471.333 85.6148 470.208 86.5897C470.797 86.891 471.297 87.1924 471.69 87.476L470.708 88.5041H471.672L471.993 88.3977L473.439 88.8763L473.349 89.3372C474.242 89.089 475.081 88.7877 475.812 88.4154C475.295 87.9191 474.795 87.3519 474.385 86.7492C474.081 87.0683 473.778 87.3519 473.474 87.6178C473.01 87.2455 472.082 86.5897 471.511 86.2706C473.082 85.1539 474.581 83.3459 475.366 81.5024L477.597 82.1051C477.383 82.5837 477.133 83.0446 476.848 83.5054H482.791V85.4907H481.613H481.649ZM482.594 92.6696C482.594 92.6696 482.559 93.29 482.523 93.5736C482.202 97.0478 481.845 98.5899 481.256 99.2281C480.81 99.6889 480.381 99.8485 479.775 99.9371C479.275 99.9903 478.436 100.026 477.508 99.9725C477.49 99.3167 477.222 98.3772 476.865 97.7746C477.597 97.8632 478.275 97.8809 478.597 97.8809C478.882 97.8809 479.043 97.8455 479.239 97.6682C479.525 97.4023 479.792 96.5515 480.007 94.6903H477.669C476.99 97.0833 475.545 99.0154 472.368 100.256C472.1 99.6889 471.476 98.8558 470.976 98.4127C473.403 97.5264 474.563 96.2502 475.188 94.6903H472.743V92.705H475.687C475.795 92.1201 475.848 91.5351 475.884 90.9148H478.293C478.24 91.5174 478.168 92.1201 478.097 92.705H482.594V92.6696ZM475.973 85.4907C476.419 86.1111 476.99 86.696 477.651 87.1924C478.204 86.7138 478.632 86.1288 478.989 85.4907H475.973Z" fill="white"/>
<path d="M487.842 93.2014C487.681 95.7007 487.253 98.4482 486.128 100.309C485.718 99.884 484.7 99.0863 484.165 98.8027C485.45 96.4984 485.539 93.1305 485.539 90.5248V83.2928H485.557C487.967 83.0092 490.662 82.4951 492.393 81.8747L493.928 83.8954C492.179 84.4627 489.983 84.8349 487.913 85.0831V86.5011H493.107V93.2014H487.842ZM487.931 88.6282V91.0743H490.804V88.6282H487.931ZM503.28 90.4716H501.441V100.079H499.068V90.4716H496.962C496.872 93.6623 496.194 97.7746 493.374 100.274C493 99.813 492 98.9799 491.5 98.6432C494.285 96.1616 494.534 92.4392 494.534 89.5499V83.3105C496.997 82.9914 499.728 82.4065 501.477 81.7329L503.03 83.7891C501.281 84.3918 499.068 84.8349 496.997 85.1185V88.1673H503.297V90.4716H503.28Z" fill="white"/>
<path d="M436.173 118.354L439.528 109.668H440.778L444.365 118.354H443.044L442.027 115.731H438.368L437.405 118.354H436.173ZM438.69 114.791H441.652L440.742 112.38C440.456 111.654 440.26 111.051 440.117 110.572C440.01 111.122 439.85 111.689 439.653 112.239L438.69 114.791Z" fill="#DCDDDD"/>
<path d="M449.487 116.333L450.594 116.475C450.415 117.113 450.094 117.61 449.63 117.982C449.148 118.336 448.559 118.514 447.81 118.514C446.882 118.514 446.15 118.23 445.597 117.663C445.061 117.096 444.776 116.298 444.776 115.27C444.776 114.242 445.043 113.391 445.597 112.806C446.15 112.221 446.864 111.938 447.738 111.938C448.613 111.938 449.273 112.221 449.809 112.788C450.344 113.356 450.612 114.171 450.612 115.199C450.612 115.27 450.612 115.359 450.612 115.483H445.882C445.918 116.174 446.114 116.706 446.471 117.078C446.828 117.45 447.274 117.627 447.792 117.627C448.184 117.627 448.524 117.521 448.791 117.326C449.077 117.113 449.291 116.794 449.452 116.333H449.487ZM445.954 114.614H449.487C449.434 114.082 449.309 113.692 449.077 113.426C448.738 113.019 448.292 112.806 447.738 112.806C447.239 112.806 446.828 112.966 446.489 113.302C446.15 113.639 445.971 114.065 445.936 114.614H445.954Z" fill="#DCDDDD"/>
<path d="M456.055 118.354V117.557C455.645 118.177 455.056 118.496 454.288 118.496C453.789 118.496 453.325 118.354 452.896 118.088C452.468 117.805 452.147 117.432 451.915 116.936C451.683 116.44 451.558 115.873 451.558 115.235C451.558 114.596 451.665 114.029 451.879 113.533C452.093 113.019 452.396 112.629 452.825 112.363C453.253 112.097 453.717 111.955 454.235 111.955C454.61 111.955 454.949 112.044 455.252 112.203C455.555 112.363 455.787 112.576 455.984 112.824V109.704H457.055V118.39H456.055V118.354ZM452.664 115.217C452.664 116.014 452.843 116.617 453.182 117.025C453.521 117.432 453.931 117.627 454.395 117.627C454.859 117.627 455.27 117.432 455.591 117.06C455.912 116.688 456.091 116.103 456.091 115.323C456.091 114.455 455.93 113.834 455.591 113.426C455.252 113.019 454.842 112.824 454.36 112.824C453.878 112.824 453.485 113.019 453.164 113.409C452.843 113.799 452.682 114.401 452.682 115.235L452.664 115.217Z" fill="#DCDDDD"/>
<path d="M462.873 117.574C462.48 117.911 462.087 118.141 461.731 118.283C461.356 118.425 460.963 118.496 460.553 118.496C459.857 118.496 459.321 118.319 458.946 117.982C458.572 117.645 458.393 117.22 458.393 116.688C458.393 116.387 458.464 116.103 458.607 115.837C458.75 115.589 458.928 115.376 459.16 115.217C459.393 115.057 459.642 114.951 459.928 114.862C460.142 114.809 460.463 114.756 460.874 114.703C461.748 114.596 462.373 114.472 462.784 114.33C462.784 114.189 462.784 114.1 462.784 114.047C462.784 113.604 462.676 113.302 462.48 113.125C462.212 112.877 461.802 112.771 461.249 112.771C460.749 112.771 460.374 112.859 460.124 113.036C459.874 113.214 459.714 113.515 459.589 113.976L458.536 113.834C458.625 113.391 458.786 113.019 459 112.753C459.214 112.487 459.535 112.274 459.946 112.115C460.356 111.973 460.838 111.884 461.391 111.884C461.945 111.884 462.373 111.955 462.712 112.079C463.051 112.203 463.301 112.363 463.462 112.558C463.622 112.753 463.729 112.983 463.801 113.285C463.837 113.462 463.854 113.799 463.854 114.277V115.695C463.854 116.688 463.872 117.308 463.926 117.574C463.979 117.84 464.069 118.088 464.193 118.336H463.069C462.962 118.124 462.891 117.858 462.855 117.556L462.873 117.574ZM462.784 115.199C462.391 115.358 461.802 115.483 461.035 115.607C460.588 115.678 460.285 115.748 460.089 115.819C459.91 115.89 459.767 116.014 459.66 116.174C459.553 116.333 459.517 116.493 459.517 116.688C459.517 116.972 459.625 117.202 459.839 117.397C460.053 117.592 460.374 117.681 460.785 117.681C461.195 117.681 461.57 117.592 461.891 117.415C462.212 117.237 462.444 116.989 462.605 116.67C462.712 116.422 462.784 116.068 462.784 115.607V115.217V115.199Z" fill="#DCDDDD"/>
<path d="M465.104 116.475L466.157 116.316C466.21 116.741 466.389 117.06 466.656 117.29C466.924 117.521 467.317 117.627 467.799 117.627C468.281 117.627 468.655 117.521 468.887 117.326C469.119 117.131 469.244 116.9 469.244 116.617C469.244 116.369 469.137 116.191 468.923 116.05C468.78 115.961 468.406 115.837 467.834 115.695C467.049 115.5 466.496 115.323 466.192 115.181C465.889 115.039 465.657 114.844 465.496 114.578C465.336 114.33 465.264 114.047 465.264 113.728C465.264 113.444 465.336 113.196 465.461 112.948C465.586 112.717 465.764 112.505 465.996 112.345C466.157 112.221 466.389 112.115 466.674 112.026C466.96 111.937 467.263 111.902 467.602 111.902C468.102 111.902 468.53 111.973 468.905 112.115C469.28 112.256 469.566 112.451 469.744 112.7C469.923 112.948 470.047 113.267 470.119 113.674L469.066 113.816C469.012 113.497 468.887 113.231 468.655 113.054C468.423 112.877 468.102 112.788 467.692 112.788C467.192 112.788 466.853 112.877 466.639 113.036C466.424 113.196 466.317 113.391 466.317 113.604C466.317 113.745 466.353 113.869 466.442 113.976C466.532 114.082 466.674 114.188 466.853 114.259C466.96 114.295 467.281 114.383 467.799 114.525C468.566 114.72 469.084 114.897 469.387 115.022C469.691 115.146 469.923 115.341 470.101 115.589C470.279 115.837 470.351 116.138 470.351 116.511C470.351 116.883 470.244 117.202 470.047 117.521C469.833 117.84 469.53 118.07 469.137 118.248C468.745 118.425 468.298 118.514 467.799 118.514C466.978 118.514 466.353 118.336 465.925 117.999C465.496 117.663 465.211 117.149 465.104 116.493V116.475Z" fill="#DCDDDD"/>
</g>
<defs>
<clipPath id="clip0_39_3744">
<rect width="525" height="142" fill="white"/>
</clipPath>
</defs>
</svg>
