<?xml version="1.0" encoding="utf-8"?>
<!-- Generator: Adobe Illustrator 26.5.0, SVG Export Plug-In . SVG Version: 6.00 Build 0)  -->
<svg version="1.1" id="圖層_1" xmlns="http://www.w3.org/2000/svg" xmlns:xlink="http://www.w3.org/1999/xlink" x="0px" y="0px"
	 viewBox="0 0 493 119" style="enable-background:new 0 0 493 119;" xml:space="preserve">
<style type="text/css">
	.st0{fill:none;stroke:#0E5087;stroke-width:2.4406;stroke-miterlimit:10;}
	.st1{fill:none;stroke:#FFFFFF;stroke-width:1.5254;stroke-miterlimit:10;}
	.st2{fill:none;stroke:#FFFFFF;stroke-width:0.3051;stroke-miterlimit:10;}
	.st3{fill:#928369;}
	.st4{fill:#FFFFFF;}
</style>
<path class="st0" d="M280.6,84.9H493"/>
<path class="st1" d="M280.6,73.2H493 M333.1,0.6v104.2 M280.6,30.4h145.6l44.3,35.1v39"/>
<path class="st2" d="M475.7,92.5l-1.5-1.3v-12l1.5-1.4 M465.2,92.5l1.5-1.3v-12l-1.5-1.4 M493,0.5H280.6v104.3H493L493,0.5L493,0.5z
	 M338.5,77.8l-1.5,1.4v12l1.5,1.3 M327.9,92.5l1.5-1.3v-12l-1.5-1.4 M135.9,8.1v14.9"/>
<path class="st3" d="M441.1,71.1h-44.4v-19h44.4V71.1z M16.2,10.1c-1.8-2.5-3-6.4-3-10H6.8c0,4,1.5,7.2,4.1,11.6
	c3.1,5.2,3.8,12.8-0.7,19.4h6.3C20.9,24.5,20.5,16.1,16.2,10.1z M30.7,0H17.6v4.2h6v26.8h7.1L30.7,0L30.7,0z"/>
<path class="st4" d="M445.9,115.8c0.1-0.4,0.2-0.9,0.2-1.4l0.4,0.1c0,0.5-0.1,1.1-0.2,1.5L445.9,115.8L445.9,115.8z M447.5,115.4
	c-0.1-0.2-0.2-0.7-0.4-1v3.9h-0.5v-4.9h0.5v1l0.3-0.1c0.2,0.3,0.3,0.7,0.4,1L447.5,115.4z M450.3,117.8c0.1,0,0.1-0.1,0.2-0.6
	c0.1,0.1,0.3,0.2,0.4,0.2c0,0.7-0.2,0.9-0.5,0.9h-0.4c-0.4,0-0.5-0.2-0.5-0.6v-1.4H449c-0.1,1-0.3,1.7-1.4,2.1
	c-0.1-0.1-0.2-0.3-0.3-0.4c0.9-0.3,1.1-0.9,1.2-1.7h-0.6v-1.8h0.6c-0.1-0.2-0.3-0.6-0.5-0.9l0.4-0.2c0.2,0.3,0.4,0.6,0.5,0.9
	l-0.4,0.2h0.8c0.2-0.3,0.4-0.7,0.5-1.1l0.5,0.2c-0.2,0.3-0.3,0.6-0.5,0.9h0.6v1.8h-0.6v1.4c0,0.2,0,0.2,0.1,0.2L450.3,117.8
	L450.3,117.8z M448.3,115.7h1.6v-0.9h-1.6V115.7z M452.9,116.1c-0.2,0.1-0.3,0.1-0.5,0.2v1.4c0,0.2-0.1,0.4-0.2,0.5
	c-0.2,0.1-0.4,0.1-0.7,0.1c0-0.1-0.1-0.3-0.2-0.5c0.2,0,0.4,0,0.5,0c0.1,0,0.1,0,0.1-0.1v-1.3l-0.7,0.2l-0.1-0.5
	c0.2,0,0.5-0.1,0.8-0.2v-1.1h-0.7v-0.5h0.7v-1h0.5v1h0.5v0.5h-0.5v0.9l0.5-0.1L452.9,116.1z M454.1,116c-0.1,0.1-0.1,0.2-0.2,0.3
	h2.1c0,0,0,0.1,0,0.2c-0.1,1.1-0.1,1.5-0.3,1.6c-0.1,0.1-0.2,0.2-0.3,0.2s-0.3,0-0.5,0c0-0.1-0.1-0.3-0.1-0.4c0.2,0,0.4,0,0.5,0
	c0.1,0,0.1,0,0.2-0.1c0.1-0.1,0.1-0.4,0.2-1.2h-0.3c-0.2,0.7-0.6,1.2-1,1.6c-0.1-0.1-0.2-0.2-0.3-0.3c0.4-0.3,0.8-0.8,1-1.3h-0.4
	c-0.3,0.6-0.8,1.1-1.3,1.5c-0.1-0.1-0.2-0.2-0.3-0.3c0.5-0.3,0.9-0.7,1.2-1.2h-0.4c-0.2,0.2-0.4,0.4-0.5,0.5
	c-0.1-0.1-0.2-0.2-0.3-0.3c0.4-0.2,0.7-0.6,0.9-1H453v-0.4h3.1v0.4L454.1,116L454.1,116z M455.8,115.3h-2.4v-1.7h2.4V115.3z
	 M455.3,113.9h-1.5v0.4h1.5V113.9z M455.3,114.6h-1.5v0.4h1.5V114.6z M461.2,113.6v4.7h-0.5v-0.2h-3.5v0.2h-0.5v-4.7H461.2
	L461.2,113.6z M460.8,117.6V114h-3.5v3.6H460.8z M460.3,115.3c-0.1,0.5-0.3,0.9-0.6,1.3c0.1,0.2,0.2,0.4,0.3,0.4
	c0.1,0,0.1-0.2,0.2-0.5c0.1,0.1,0.2,0.2,0.3,0.2c-0.1,0.6-0.3,0.8-0.6,0.7c-0.2-0.1-0.4-0.2-0.5-0.5c-0.2,0.2-0.4,0.4-0.6,0.5
	c-0.1-0.1-0.2-0.2-0.3-0.3c0.2-0.1,0.3-0.2,0.4-0.3c-0.5,0.1-1.1,0.2-1.5,0.2l-0.1-0.4c0.4-0.1,1-0.2,1.6-0.2v0.3
	c0.1-0.1,0.2-0.2,0.3-0.3c-0.1-0.4-0.2-0.9-0.2-1.5h-1.6v-0.4h1.5c0-0.2,0-0.3,0-0.5h0.4c0,0.2,0,0.3,0,0.5h0.8
	c-0.1-0.1-0.3-0.3-0.5-0.4l0.2-0.2c0.2,0.1,0.4,0.2,0.5,0.4l-0.2,0.2h0.3v0.4h-1c0,0.4,0.1,0.8,0.2,1.1c0.2-0.2,0.2-0.5,0.3-0.9
	L460.3,115.3z M458.8,115.3v1h-1.2v-1H458.8z M458.5,115.6H458v0.5h0.5V115.6z M463.6,113.7c-0.2,0.5-0.3,1-0.5,1.4
	c0.3,0.4,0.4,0.8,0.4,1.1c0,0.3-0.1,0.5-0.2,0.7c-0.1,0.1-0.2,0.1-0.3,0.1c-0.1,0-0.2,0-0.3,0c0-0.1,0-0.3-0.1-0.4
	c0.1,0,0.2,0,0.2,0c0.1,0,0.1,0,0.2,0c0.1-0.1,0.1-0.2,0.1-0.4c0-0.3-0.1-0.6-0.4-1c0.1-0.4,0.2-0.8,0.3-1.2h-0.5v4.3H462v-4.7h1.2
	L463.6,113.7L463.6,113.7z M464.2,115.2c0.1-0.1,0.1-0.2,0.2-0.3c-0.1-0.1-0.3-0.2-0.4-0.4c-0.1,0.2-0.2,0.3-0.4,0.4
	c-0.1-0.1-0.2-0.2-0.3-0.3c0.4-0.3,0.6-0.8,0.8-1.3l0.4,0.1c0,0.1-0.1,0.2-0.1,0.3h0.5l0.2,0.1l0,0.1l0.2-0.1v-0.2h0.9l0.1,0
	l0.3,0.2c-0.2,0.5-0.4,0.9-0.7,1.3c0.2,0.3,0.5,0.6,0.8,0.8c-0.1,0.1-0.2,0.2-0.3,0.3c-0.2-0.2-0.4-0.3-0.6-0.6v0.3h-1.6v-0.2
	c-0.2,0.2-0.4,0.4-0.5,0.5c-0.1-0.1-0.2-0.2-0.2-0.3C463.8,115.7,464,115.5,464.2,115.2c-0.3,0.1-0.5,0.2-0.7,0.2l-0.1-0.3
	c0.2,0,0.5-0.1,0.8-0.1L464.2,115.2L464.2,115.2z M464.6,117.1c-0.2,0.3-0.5,0.7-0.7,1c-0.1-0.1-0.3-0.2-0.4-0.3
	c0.2-0.2,0.5-0.6,0.7-0.9L464.6,117.1L464.6,117.1z M465.4,116.7v1.6h-0.5v-1.6h-1.1v-0.4h2.7v0.4H465.4z M464.2,114.1
	c0,0,0,0.1-0.1,0.1c0.2,0.1,0.3,0.2,0.4,0.3c0.1-0.2,0.1-0.3,0.2-0.4L464.2,114.1L464.2,114.1z M465.9,115.5
	c-0.3-0.4-0.5-0.9-0.7-1.5c-0.2,0.6-0.4,1.1-0.7,1.5H465.9z M465.6,114c0.1,0.2,0.2,0.5,0.3,0.7c0.1-0.2,0.2-0.4,0.4-0.7H465.6z
	 M466.1,116.9c0.2,0.3,0.6,0.7,0.8,0.9l-0.4,0.2c-0.2-0.2-0.5-0.6-0.7-0.9L466.1,116.9L466.1,116.9z M475.6,117.5v0.5h-4.8v-0.5h2
	v-4.1h0.5v1.6h1.9v0.5h-1.9v2L475.6,117.5L475.6,117.5z M479.8,116.1c-0.1,0.1-0.1,0.2-0.2,0.3h1.3v0.4h-3.3c0,0.1,0,0.2,0,0.3h1
	c0,0,0,0.1,0,0.2c-0.1,0.5-0.1,0.8-0.2,0.9c-0.1,0.1-0.2,0.1-0.3,0.1s-0.3,0-0.5,0c0-0.1,0-0.3-0.1-0.4c0.2,0,0.4,0,0.4,0
	c0.1,0,0.1,0,0.2,0c0-0.1,0.1-0.2,0.1-0.5h-0.6c-0.2,0.4-0.5,0.7-1.1,0.9c0-0.1-0.2-0.2-0.2-0.3c0.5-0.1,0.7-0.3,0.9-0.6h-0.6v-0.4
	h0.8c0-0.1,0-0.2,0-0.3h-0.9v-0.4h1.3c0-0.1-0.1-0.2-0.2-0.3l0.3,0h-0.9v-1h3.5v1h-0.9L479.8,116.1L479.8,116.1z M480.9,113.7v0.4
	h-2.1v0.3h1.7v0.4h-3.9v-0.4h1.7v-0.3h-2v-0.4h2v-0.3h0.5v0.3H480.9z M477.3,115.7h2.6v-0.4h-2.6V115.7z M477.9,116
	c0.1,0.1,0.2,0.2,0.2,0.3l-0.1,0h1.1c0.1-0.1,0.1-0.2,0.2-0.3L477.9,116L477.9,116z M478.8,117h1.9v1.3h-0.5v-0.2h-0.9v0.2h-0.4
	L478.8,117L478.8,117z M479.2,117.3v0.5h0.9v-0.5H479.2z M483.3,114.7c-0.2,0.3-0.4,0.5-0.6,0.8v2.8h-0.5v-2.3
	c-0.2,0.2-0.4,0.3-0.5,0.5c-0.1-0.1-0.2-0.3-0.3-0.4c0.5-0.4,1.1-1,1.5-1.6L483.3,114.7L483.3,114.7z M483.1,113.5
	c-0.4,0.5-0.9,1-1.4,1.4c-0.1-0.1-0.2-0.3-0.3-0.4c0.4-0.3,0.9-0.8,1.2-1.2L483.1,113.5z M486.3,115.6h-0.8v2.1
	c0,0.3-0.1,0.4-0.3,0.5c-0.2,0.1-0.5,0.1-1,0.1c0-0.2-0.1-0.4-0.2-0.5c0.3,0,0.7,0,0.8,0c0.1,0,0.1,0,0.1-0.1v-2.1h-1.7v-0.5h3
	L486.3,115.6L486.3,115.6z M486.2,114.1h-2.6v-0.5h2.6V114.1z M488.7,117.7c-0.6,0.2-1.3,0.3-1.9,0.4l-0.1-0.5
	c0.2,0,0.5-0.1,0.9-0.2V116h-0.8v-0.4h0.8v-0.5h-0.5v-0.2c0,0-0.2,0.1-0.2,0.2c0-0.1-0.2-0.4-0.2-0.5c0.4-0.3,0.8-0.8,1-1.3l0.4,0.2
	c0,0-0.1,0.1-0.1,0.2c0.3,0.2,0.6,0.5,0.9,0.8l-0.3,0.4c-0.2-0.2-0.5-0.5-0.8-0.8c-0.1,0.2-0.3,0.5-0.5,0.6h1.1v0.4H488v0.5h0.6v0.4
	H488v1.4l0.7-0.1L488.7,117.7L488.7,117.7z M487.2,116.3c0.1,0.3,0.2,0.7,0.2,0.9l-0.4,0.1c0-0.2-0.1-0.7-0.2-1L487.2,116.3
	L487.2,116.3z M488.2,117.2c0.1-0.2,0.2-0.7,0.2-0.9l0.4,0.1c-0.1,0.3-0.2,0.7-0.3,0.9L488.2,117.2L488.2,117.2z M491.5,117.7
	c0,0.2-0.1,0.4-0.2,0.5c-0.2,0.1-0.4,0.1-0.8,0.1c0-0.1-0.1-0.3-0.2-0.5c0.3,0,0.5,0,0.6,0c0.1,0,0.1,0,0.1-0.1v-0.8
	c-0.5,0.1-1,0.2-1.4,0.4l-0.2-0.4c0,0.5-0.1,1.1-0.3,1.5c-0.1-0.1-0.3-0.2-0.4-0.3c0.2-0.5,0.3-1.1,0.3-1.6v-1.6h1v-1.5h0.5v1.5h1
	L491.5,117.7L491.5,117.7z M489.4,114.7c-0.1-0.3-0.3-0.7-0.5-1l0.4-0.2c0.2,0.3,0.4,0.7,0.5,1L489.4,114.7z M489.5,116.4
	c0,0.1,0,0.2,0,0.4c0.4-0.1,1-0.2,1.6-0.3v-1.2h-1.6V116.4L489.5,116.4z M489.7,115.6c0.4,0.1,0.9,0.2,1.2,0.4l-0.2,0.4
	c-0.2-0.2-0.8-0.3-1.2-0.4L489.7,115.6L489.7,115.6z M491.7,113.7c-0.2,0.4-0.4,0.7-0.5,1l-0.4-0.2c0.2-0.3,0.4-0.7,0.5-1
	L491.7,113.7L491.7,113.7z M423,114.6c-0.2,0.3-0.4,0.5-0.6,0.8v2.9h-0.2v-2.7c-0.2,0.3-0.5,0.5-0.8,0.7c0,0-0.1-0.1-0.1-0.1
	c0.5-0.4,1.2-1,1.5-1.6L423,114.6L423,114.6z M422.8,113.5c-0.3,0.4-0.9,0.9-1.3,1.3c0,0-0.1-0.1-0.1-0.1c0.5-0.3,1-0.8,1.3-1.2
	L422.8,113.5L422.8,113.5z M426.3,115.4h-0.9v2.6c0,0.2-0.1,0.2-0.2,0.2c-0.1,0-0.4,0-1,0c0,0,0-0.1-0.1-0.2c0.5,0,0.8,0,0.9,0
	c0.1,0,0.2,0,0.2-0.1v-2.6h-2v-0.2h3.1L426.3,115.4L426.3,115.4z M426.1,113.9h-2.6v-0.2h2.6V113.9z M428.7,114.7
	c-0.2-0.2-0.6-0.6-0.9-0.9c-0.2,0.4-0.6,0.8-0.9,1.1c0,0-0.1-0.1-0.1-0.1c0.4-0.3,0.8-0.9,1.1-1.4l0.2,0c0,0.1-0.1,0.2-0.1,0.2
	c0.3,0.3,0.7,0.6,0.9,0.9L428.7,114.7L428.7,114.7z M428.7,117.5v0.2c-0.7,0.2-1.4,0.3-1.9,0.4l-0.1-0.2c0.2-0.1,0.6-0.1,0.9-0.2
	v-1.8h-0.9v-0.2h0.9v-0.8h-0.6v-0.2h1.4v0.2h-0.6v0.8h0.8v0.2h-0.8v1.8L428.7,117.5L428.7,117.5z M427,116.3
	c0.1,0.3,0.2,0.8,0.2,1.1l-0.2,0c0-0.3-0.2-0.7-0.2-1.1L427,116.3L427,116.3z M428.1,117.3c0.1-0.3,0.2-0.8,0.3-1.1l0.2,0.1
	c-0.1,0.3-0.2,0.8-0.4,1.1L428.1,117.3L428.1,117.3z M431.3,117.9c0,0.2,0,0.2-0.2,0.2c-0.1,0-0.4,0-0.8,0c0-0.1,0-0.1-0.1-0.2
	c0.4,0,0.6,0,0.7,0s0.1,0,0.1-0.1v-1.2c-0.6,0.2-1.3,0.3-1.8,0.4l-0.1-0.2c0.5-0.1,1.2-0.2,1.9-0.4v-1.4h-1.9v1.2
	c0,0.6-0.1,1.4-0.4,2c0,0-0.1-0.1-0.1-0.1c0.3-0.5,0.4-1.3,0.4-1.9v-1.3h1v-1.5h0.2v1.6h1L431.3,117.9L431.3,117.9z M429.5,114.7
	c-0.1-0.3-0.3-0.7-0.6-1l0.2-0.1c0.2,0.3,0.5,0.7,0.6,1L429.5,114.7z M429.5,115.6c0.5,0.1,1.1,0.2,1.4,0.4l0,0.2
	c-0.3-0.2-0.9-0.3-1.4-0.4L429.5,115.6L429.5,115.6z M431.4,113.7c-0.2,0.3-0.5,0.7-0.7,1l-0.1-0.1c0.2-0.3,0.5-0.7,0.6-1
	L431.4,113.7L431.4,113.7z M434.7,113.4c0,0-0.1,0.1-0.1,0.2c0.6,0.9,1.5,1.4,2.4,1.9c0,0-0.1,0.1-0.1,0.1c-0.9-0.5-1.7-1-2.3-1.9
	c-0.5,0.8-1.4,1.4-2.3,1.9c0,0-0.1-0.1-0.1-0.1c1-0.4,2-1.3,2.5-2.1L434.7,113.4L434.7,113.4z M434.6,117.9h2.2v0.2h-4.5v-0.2h0.8
	v-2.1h0.2v2.1h1.3v-3.1h0.2v1.4h1.7v0.2h-1.7L434.6,117.9L434.6,117.9z M437.4,118c0.7,0,1.9-0.1,3.1-0.2v0.2
	c-1.1,0.1-2.3,0.2-3.1,0.2V118L437.4,118z M440.1,114.3h0.4v0.2h-0.4v0.5H439v0.3h1.2v0.2H439v0.3h1.4v0.2h-3.1v-0.2h1.4v-0.3h-1.2
	v-0.2h1.2v-0.3h-1.1v-0.2h1.1v-0.4h-1.5v-0.2h1.5V114h-1.1v-0.2h1.1v-0.4h0.2v0.4h1.1L440.1,114.3L440.1,114.3z M440.1,116.3v1.2
	h-2.3v-1.2H440.1z M438,116.8h0.9v-0.3H438V116.8z M438,117.4h0.9V117H438V117.4z M439,114.3h0.9V114H439V114.3z M439.9,114.5H439
	v0.4h0.9V114.5z M439.9,116.5H439v0.3h0.9V116.5z M439.9,117H439v0.3h0.9V117z M440.8,114.1h0.2v2.9h-0.2V114.1z M441.9,113.5v4.5
	c0,0.2-0.1,0.2-0.2,0.2s-0.3,0-0.8,0c0,0,0-0.1-0.1-0.2c0.3,0,0.6,0,0.7,0c0.1,0,0.1,0,0.1-0.1v-4.5H441.9z M443.5,114.5
	c0-0.2,0.2-0.3,0.3-0.3s0.3,0.1,0.3,0.3s-0.2,0.3-0.3,0.3S443.5,114.7,443.5,114.5z M443.5,117.2c0-0.2,0.2-0.3,0.3-0.3
	s0.3,0.1,0.3,0.3s-0.2,0.3-0.3,0.3S443.5,117.4,443.5,117.2z M468.8,113.4v4.9 M359.7,24.8v0.8h-9.4v-0.8h1.2v-2h7.1v2H359.7
	L359.7,24.8z M352.5,18h-2v-0.8h2v-0.6h0.9v0.6h1.3V18h-1.3v0.5h-0.9V18z M351,18.7h4.2v0.6h-1.5v0.5h1.2v1.6h-1.2v0.5h1.5v0.6H351
	L351,18.7L351,18.7z M351.7,19.3v0.5h1.2v-0.5H351.7z M354.1,20.3h-2.4v0.5h2.4V20.3z M352.9,21.3h-1.2v0.5h1.2V21.3z M352.4,24.8
	h1.2v-1.3h-1.2V24.8z M354.4,23.5v1.3h1.2v-1.3H354.4z M359.3,20.2h-2.9c-0.3,0.6-0.6,1.1-1,1.5c-0.1-0.2-0.4-0.5-0.5-0.7
	c0.5-0.6,1-1.5,1.3-2.5l0.9,0.2c-0.1,0.2-0.2,0.5-0.2,0.7h2.5L359.3,20.2L359.3,20.2z M356.7,18h-1.4v-0.7h1.4v-0.6h0.9v0.6h1.9V18
	h-1.9v0.5h-0.9V18z M356,22.3v-0.8h3.1v0.8H356z M356.4,23.6v1.3h1.2v-1.3H356.4z M370.4,17.3v8.5h-1v-0.6H363v0.6h-0.9v-8.5H370.4z
	 M363,18.2v2.5h2.7v-2.5H363z M363,24.2h2.7v-2.6H363V24.2z M369.4,18.2h-2.8v2.5h2.8V18.2z M369.4,24.2v-2.6h-2.8v2.6H369.4z
	 M381.6,17.8c-0.3,1-0.8,2-1.5,2.7c0.6,0.5,1.4,1,2.2,1.3c-0.2,0.2-0.5,0.5-0.6,0.8l-0.2-0.1v3.3h-0.9v-0.3h-2.3v0.4h-0.9v-3.3
	c-0.2,0.1-0.3,0.2-0.5,0.2c-0.1-0.1-0.2-0.3-0.3-0.4h-1.2v1.6l1.3-0.3l0.1,0.8c-1.4,0.4-2.9,0.7-4,1l-0.2-0.9c0.2,0,0.3-0.1,0.5-0.1
	V21h0.8v3.2l0.7-0.2v-3.9h-1.4V17h3.4v2.6c0.8-0.7,1.4-1.8,1.8-3l0.9,0.2c-0.1,0.2-0.2,0.5-0.3,0.8h1.7l0.2,0L381.6,17.8L381.6,17.8
	z M374.1,19.4h1.7v-1.6h-1.7V19.4z M376.8,21.9c0.8-0.3,1.5-0.8,2.2-1.4c-0.3-0.4-0.6-0.8-0.8-1.2c-0.2,0.4-0.5,0.7-0.8,0.9
	c-0.2-0.2-0.5-0.4-0.7-0.5v0.5h-1.1v1.3h1.2L376.8,21.9L376.8,21.9z M380.9,22.2c-0.5-0.3-1-0.7-1.4-1.1c-0.4,0.4-0.9,0.8-1.4,1.1
	H380.9z M380.6,24.7V23h-2.3v1.7H380.6z M378.7,18.4l-0.1,0.2c0.2,0.4,0.5,0.9,0.9,1.3c0.4-0.5,0.7-0.9,0.9-1.5L378.7,18.4
	L378.7,18.4z M352.4,65.3v2.5c0,0.5-0.1,0.7-0.4,0.9c-0.3,0.2-0.7,0.2-1.3,0.2c0-0.2-0.1-0.6-0.2-0.9c0.4,0,0.8,0,0.9,0
	s0.2,0,0.2-0.2v-2.2l-1.1,0.4l-0.2-0.9c0.4-0.1,0.8-0.2,1.3-0.3v-2.3h-1.2v-0.9h1.2v-2h0.9v2h1v0.9h-1v2c0.3-0.1,0.7-0.2,1-0.3
	l0.1,0.9L352.4,65.3L352.4,65.3z M359,65.2c-0.3,0.9-0.7,1.6-1.3,2.2c0.6,0.3,1.3,0.5,2.1,0.7c-0.2,0.2-0.5,0.5-0.6,0.8
	c-0.9-0.2-1.6-0.5-2.3-0.9c-0.6,0.4-1.3,0.7-2.1,0.9c-0.1-0.2-0.4-0.5-0.5-0.7c0.7-0.2,1.3-0.4,1.9-0.7c-0.4-0.3-0.7-0.7-1-1.1
	c-0.4,0.9-1,1.8-2,2.4c-0.1-0.2-0.4-0.5-0.6-0.7c1.4-0.9,2-2.3,2.2-3.7h-1.3v-0.8h1.4c0-0.2,0-0.5,0.1-0.6h-1.3v-0.8h0.7
	c-0.1-0.3-0.2-0.8-0.4-1.2l0.7-0.2c0.2,0.4,0.4,0.9,0.5,1.2l-0.6,0.2h2.7c0.3-0.5,0.7-1.2,0.9-1.6l0.9,0.3c-0.3,0.5-0.6,1-0.9,1.4
	h1.1v0.8H356c0,0.2,0,0.4-0.1,0.6h3.8v0.8h-3.9c0,0.2-0.1,0.4-0.1,0.5h2.8L359,65.2L359,65.2z M359.2,60.3c-1.5,0.3-3.6,0.5-5.4,0.5
	c0-0.2-0.1-0.5-0.2-0.7c1.8-0.1,3.9-0.2,5.1-0.5L359.2,60.3L359.2,60.3z M355.7,65.7c0.3,0.5,0.7,0.9,1.2,1.3
	c0.4-0.3,0.7-0.7,0.9-1.3H355.7z M356,62.2c0-0.3-0.2-0.9-0.2-1.3l0.8-0.1c0.1,0.4,0.2,1,0.3,1.3L356,62.2L356,62.2z M370.4,61.3
	v4.8h-1v-0.5h-2.7v3.2h-1v-3.2H363v0.6h-0.9v-4.9h3.6v-1.8h1v1.8H370.4L370.4,61.3z M365.7,64.7v-2.4h-2.7v2.4H365.7z M369.4,64.7
	v-2.4h-2.7v2.4H369.4z M381.6,60.7c-0.3,1-0.8,2-1.5,2.7c0.6,0.5,1.4,1,2.2,1.3c-0.2,0.2-0.5,0.5-0.6,0.8l-0.2-0.1v3.3h-0.9v-0.3
	h-2.3v0.4h-0.9v-3.3c-0.2,0.1-0.3,0.1-0.5,0.2c-0.1-0.1-0.2-0.3-0.3-0.4h-1.2v1.6l1.3-0.3l0.1,0.8c-1.4,0.4-2.9,0.7-4,1l-0.2-0.9
	c0.2,0,0.3-0.1,0.5-0.1V64h0.8v3.2l0.7-0.2v-3.9h-1.4v-3.2h3.4v2.6c0.8-0.7,1.4-1.8,1.8-3l0.9,0.2c-0.1,0.2-0.2,0.5-0.3,0.8h1.7
	l0.2,0L381.6,60.7z M374.1,62.3h1.7v-1.6h-1.7V62.3z M376.8,64.8c0.8-0.3,1.5-0.8,2.2-1.4c-0.3-0.4-0.6-0.8-0.8-1.2
	c-0.2,0.4-0.5,0.7-0.8,0.9c-0.2-0.2-0.4-0.4-0.7-0.5v0.5h-1.1v1.3h1.2L376.8,64.8L376.8,64.8z M380.9,65.1c-0.5-0.3-1-0.7-1.4-1.1
	c-0.4,0.4-0.9,0.8-1.4,1.1H380.9z M380.6,67.6v-1.7h-2.3v1.7H380.6z M378.7,61.3l-0.1,0.2c0.2,0.4,0.5,0.9,0.9,1.3
	c0.4-0.5,0.7-0.9,0.9-1.5H378.7L378.7,61.3z M328.6,44.3v0.8h-9.4v-0.8h1.2v-2h7.1v2H328.6L328.6,44.3z M321.4,37.5h-2.1v-0.8h2.1
	v-0.6h0.9v0.6h1.3v0.8h-1.3V38h-0.9V37.5z M319.8,38.2h4.2v0.6h-1.5v0.5h1.2v1.6h-1.2v0.5h1.5V42h-4.2L319.8,38.2L319.8,38.2z
	 M320.6,38.8v0.5h1.2v-0.5H320.6z M323,39.8h-2.4v0.5h2.4V39.8z M321.8,40.8h-1.2v0.5h1.2V40.8z M321.2,44.3h1.2v-1.3h-1.2V44.3z
	 M323.3,43.1v1.3h1.2v-1.3H323.3z M328.2,39.7h-2.9c-0.3,0.6-0.6,1.1-1,1.5c-0.1-0.2-0.4-0.5-0.6-0.7c0.6-0.6,1-1.5,1.3-2.5l0.9,0.2
	c-0.1,0.2-0.2,0.5-0.2,0.7h2.5L328.2,39.7L328.2,39.7z M325.5,37.5h-1.4v-0.7h1.4v-0.6h0.9v0.6h1.9v0.7h-1.9V38h-0.9V37.5z
	 M324.9,41.8V41h3.1v0.8H324.9z M325.3,43.1v1.3h1.2v-1.3H325.3z M327.8,52.1v4.5h-1v-0.4H321v0.5h-1v-4.5L327.8,52.1L327.8,52.1z
	 M327,51.4h-6.2v-3.8h6.2V51.4z M321,52.9v0.8h5.8v-0.8H321z M326.7,55.3v-0.9H321v0.9H326.7z M325.9,48.4h-4.1v0.7h4.1V48.4z
	 M325.9,49.8h-4.1v0.8h4.1V49.8z M327.9,59.6c-0.3,1-0.8,2-1.5,2.7c0.6,0.5,1.4,1,2.2,1.3c-0.2,0.2-0.5,0.5-0.6,0.8l-0.2-0.1v3.3
	H327v-0.3h-2.3v0.4h-0.9v-3.3c-0.2,0.1-0.3,0.1-0.5,0.2c-0.1-0.1-0.2-0.3-0.3-0.4h-1.2v1.6l1.3-0.3l0.1,0.8c-1.4,0.4-2.9,0.7-4,1
	l-0.2-0.9c0.2,0,0.3-0.1,0.5-0.1v-3.4h0.8V66l0.7-0.2v-3.9h-1.4v-3.2h3.4v2.6c0.8-0.7,1.4-1.8,1.8-3l0.9,0.2
	c-0.1,0.2-0.2,0.5-0.3,0.8h1.7l0.2,0L327.9,59.6L327.9,59.6z M320.5,61.1h1.7v-1.6h-1.7V61.1z M323.1,63.7c0.8-0.3,1.5-0.8,2.2-1.4
	c-0.3-0.4-0.6-0.8-0.8-1.2c-0.2,0.4-0.5,0.7-0.8,0.9c-0.2-0.2-0.5-0.4-0.7-0.5V62h-1.1v1.3h1.2L323.1,63.7L323.1,63.7z M327.3,64
	c-0.5-0.3-1-0.7-1.4-1.1c-0.4,0.4-0.9,0.8-1.4,1.1H327.3z M327,66.5v-1.7h-2.3v1.7H327z M325.1,60.2l-0.1,0.2
	c0.2,0.4,0.5,0.9,0.9,1.3c0.4-0.5,0.7-0.9,0.9-1.5H325.1L325.1,60.2z M406.4,62c-0.4,0.1-0.7,0.2-1,0.3V65c0,0.6-0.1,0.9-0.4,1.1
	c-0.3,0.2-0.8,0.2-1.5,0.2c0-0.3-0.2-0.9-0.3-1.2c0.4,0,0.8,0,0.9,0c0.1,0,0.2,0,0.2-0.2v-2.3l-1.1,0.3l-0.3-1.2
	c0.4-0.1,0.8-0.2,1.3-0.3v-1.9H403v-1.2h1.2v-2h1.2v2h1v1.2h-1v1.6l0.9-0.2L406.4,62L406.4,62z M412.2,62.9
	c-0.2,0.6-0.5,1.2-0.9,1.6c0.7,0.3,1.4,0.6,1.9,0.9l-0.9,0.9c-0.5-0.3-1.3-0.7-2.1-1.1c-0.9,0.5-2,0.9-3.4,1.1
	c-0.1-0.4-0.4-0.8-0.6-1.1c1-0.1,1.9-0.3,2.6-0.6c-0.6-0.2-1.3-0.5-1.9-0.7c0.2-0.3,0.5-0.7,0.8-1.2h-1.3v-1.1h2
	c0.2-0.3,0.3-0.7,0.5-1h-2.3v-1.1h1.6c-0.1-0.3-0.4-0.8-0.5-1.1l0.8-0.3h-1.6v-1.1h2.4c-0.1-0.3-0.2-0.5-0.4-0.8l1.5-0.2
	c0.2,0.3,0.4,0.7,0.5,1h2v1.1h-1.8l1,0.3c-0.2,0.4-0.5,0.8-0.6,1.1h1.6v1.1h-4l1,0.2c-0.1,0.2-0.2,0.5-0.4,0.8h1.4
	c0.1-0.2,0.1-0.4,0.1-0.6l1.3,0.2c0,0.2,0,0.3-0.1,0.5h0.9v1.1L412.2,62.9L412.2,62.9z M408.8,58.3c0.2,0.4,0.5,0.8,0.6,1.1
	l-0.8,0.3h1.7c0.2-0.4,0.5-1,0.6-1.4L408.8,58.3L408.8,58.3z M409.2,62.9c-0.2,0.2-0.3,0.5-0.4,0.6c0.4,0.1,0.8,0.3,1.3,0.5
	c0.3-0.3,0.6-0.7,0.8-1.1L409.2,62.9L409.2,62.9z M417.8,59.1c-0.3,0.5-0.6,0.9-0.9,1.3v5.9h-1.3v-4.5c-0.4,0.3-0.7,0.6-1,0.9
	c-0.1-0.3-0.4-1-0.6-1.3c1-0.7,2.1-1.7,2.7-2.8L417.8,59.1L417.8,59.1z M417.6,56.8c-0.7,1-1.9,2.1-2.9,2.7
	c-0.1-0.3-0.5-0.8-0.7-1.1c0.9-0.5,1.8-1.4,2.3-2.1L417.6,56.8z M423.1,61.6h1.3v1.2h-1.3v2.2c0,0.6-0.1,1-0.6,1.1
	c-0.5,0.2-1.1,0.2-2,0.2c-0.1-0.4-0.2-0.9-0.4-1.2c0.5,0,1.2,0,1.4,0s0.2,0,0.2-0.2v-2.2h-4.5v-1.2h4.5v-0.6h1.4L423.1,61.6
	L423.1,61.6z M424.5,57.5v1.2h-3v0.9h2.5v1.2h-6.3v-1.2h2.4v-0.9h-2.8v-1.2h2.8v-1.2h1.4v1.2H424.5z M419,62.9
	c0.5,0.5,1.1,1.3,1.4,1.8l-1.2,0.6c-0.3-0.5-0.9-1.3-1.3-1.9L419,62.9z M431.3,62.2v0.6h3.8v3.5h-1.2V66h-2.6v0.4h-1.2v-6.9h-0.6
	v-1.7l-0.4,0.8c-0.4-0.2-1-0.6-1.6-0.9c-0.2,0.2-0.4,0.4-0.6,0.6h1.7v0.9h-2v-0.6c-0.4,0.3-0.7,0.6-1.1,0.9
	c-0.1-0.2-0.4-0.9-0.5-1.2c0.9-0.5,1.7-1.3,2.2-2.1l1,0.4c-0.1,0.1-0.1,0.2-0.2,0.3c0.5,0.2,1.1,0.5,1.4,0.7h2.4
	c-0.1-0.3-0.3-0.6-0.5-0.9l1.2-0.5c0.2,0.4,0.5,0.9,0.6,1.2l-0.4,0.2h2.4v2h-0.9v2.7H431.3L431.3,62.2z M428.6,63.5
	c0.4,0.7,0.9,1.6,1.1,2.1l-0.9,0.5c-0.1-0.2-0.2-0.5-0.3-0.8c-2,0.7-2.3,0.9-2.6,1.1c-0.1-0.3-0.2-0.8-0.4-1.1
	c0.2-0.1,0.5-0.2,0.5-0.6v-5.1h3.4v3.9H427v1.3l1-0.3c-0.1-0.2-0.2-0.4-0.3-0.5L428.6,63.5L428.6,63.5z M427,60.5V61h1.2v-0.5H427z
	 M428.1,62.5v-0.6H427v0.6H428.1z M430.7,58.5v0.7h3.7v-0.7H430.7z M433.5,60.2h-2.1v0.9h2.1V60.2z M431.4,63.9V65h2.6v-1.1H431.4z
	 M309,22.7c-0.3,0.2-0.6,0.4-0.9,0.6c0.3,0.8,0.9,1.4,1.6,1.7c-0.1,0.1-0.3,0.3-0.4,0.5c-0.8-0.4-1.3-1-1.7-1.9
	c-0.1,0.1-0.2,0.1-0.2,0.2c0.2,0.8,0.1,1.5-0.3,1.8c-0.2,0.2-0.4,0.2-0.7,0.2c-0.2,0-0.3,0-0.5,0c0-0.2-0.1-0.4-0.2-0.5
	c0.2,0,0.4,0,0.6,0c0.2,0,0.3,0,0.4-0.1c0.2-0.1,0.2-0.5,0.2-0.9c-0.7,0.5-1.8,1-2.7,1.3c-0.1-0.2-0.2-0.4-0.3-0.5
	c1-0.2,2.3-0.8,2.9-1.3c0-0.1-0.1-0.2-0.1-0.4c-0.6,0.4-1.6,0.8-2.3,1c-0.1-0.2-0.2-0.3-0.3-0.5c0.8-0.2,1.9-0.6,2.4-1
	c-0.1-0.1-0.2-0.2-0.2-0.3c-0.5,0.3-1.2,0.5-1.8,0.7c-0.1-0.1-0.2-0.3-0.3-0.5c0.8-0.2,1.6-0.4,2.2-0.8h-1.3v-0.5h3.6v0.5H307
	c-0.1,0.1-0.3,0.2-0.4,0.3c0.3,0.2,0.5,0.5,0.6,0.9c0.5-0.3,1-0.7,1.3-1L309,22.7L309,22.7z M304.6,22H304v-1.3h2.3
	c-0.1-0.1-0.1-0.3-0.2-0.4l0.6-0.2c0.1,0.2,0.2,0.4,0.3,0.6h2.3V22h-0.6v-0.8h-4.2L304.6,22L304.6,22z M312.6,24.4
	c-0.5,0.5-1.3,1-2,1.2c-0.1-0.2-0.3-0.4-0.4-0.5c0.7-0.2,1.5-0.5,2-0.9L312.6,24.4L312.6,24.4z M313.5,23.6h2.6v0.5h-2.6v1.8h-0.6
	v-1.8h-2.6v-0.5h2.6v-0.3h0.6V23.6z M311.8,23.3c0-0.1,0-0.2,0-0.3c-1,0.1-1.2,0.2-1.3,0.2c0-0.1-0.1-0.3-0.2-0.4
	c0.1,0,0.2-0.2,0.4-0.3c0.1-0.1,0.2-0.3,0.4-0.6c-0.5,0.1-0.6,0.1-0.7,0.1c0-0.1-0.1-0.3-0.2-0.4c0.1,0,0.2-0.1,0.2-0.2
	c0.1-0.1,0.4-0.6,0.5-1.1l0.5,0.2c-0.2,0.4-0.4,0.8-0.6,1.1l0.5,0c0.1-0.2,0.2-0.4,0.3-0.6l0.4,0.2c-0.3,0.5-0.7,1.1-1.1,1.6
	l0.7-0.1c0-0.2-0.1-0.3-0.1-0.4l0.4-0.1c0.1,0.3,0.2,0.8,0.2,1.1L311.8,23.3L311.8,23.3z M314,23.1h-1.7v-2.4h0.5
	c0.1-0.2,0.1-0.4,0.1-0.6l0.5,0.1c-0.1,0.2-0.2,0.4-0.2,0.5h0.7L314,23.1L314,23.1z M313.5,21.2h-0.7v0.5h0.7V21.2z M313.5,22.1
	h-0.7v0.5h0.7V22.1z M314.2,24.2c0.6,0.3,1.4,0.8,1.8,1.1l-0.4,0.4c-0.4-0.3-1.2-0.8-1.8-1.1L314.2,24.2L314.2,24.2z M315.6,23.3
	c0-0.1,0-0.2-0.1-0.2c-1,0.1-1.2,0.2-1.3,0.2c0-0.1-0.1-0.3-0.2-0.5c0.1,0,0.2-0.2,0.4-0.3c0.1-0.1,0.2-0.3,0.5-0.6
	c-0.5,0.1-0.7,0.1-0.8,0.1c0-0.1-0.1-0.3-0.2-0.4c0.1,0,0.2-0.1,0.2-0.2c0.1-0.1,0.4-0.6,0.5-1.2l0.5,0.2c-0.2,0.4-0.4,0.9-0.6,1.2
	l0.5-0.1c0.1-0.2,0.2-0.4,0.3-0.5l0.4,0.2c-0.3,0.5-0.8,1.1-1.2,1.6l0.7-0.1c0-0.1-0.1-0.3-0.1-0.4l0.4-0.1c0.1,0.3,0.2,0.7,0.3,1
	L315.6,23.3L315.6,23.3z M319,23.1h3.4v2.7h-0.6v-0.3h-2.2v0.3H319v-2.3l-0.3,0.4c-0.1-0.2-0.4-0.4-0.6-0.6v2.6h-0.6v-2.2
	c-0.2,0.2-0.5,0.5-0.8,0.6c0-0.2-0.2-0.4-0.3-0.5c0.7-0.4,1.3-1.1,1.7-1.9h-1.5v-0.5h1.9l0.3,0.2c-0.2,0.5-0.4,0.9-0.7,1.3
	c0.2,0.2,0.5,0.5,0.7,0.6L319,23.1L319,23.1z M317.7,21.3c-0.1-0.2-0.3-0.6-0.5-0.9l0.5-0.2c0.2,0.3,0.4,0.6,0.5,0.9L317.7,21.3z
	 M322.4,20.5v0.5H319v-0.5H322.4z M322.1,21.3v1.5h-2.7v-1.5H322.1z M319.6,23.6v0.5h0.8v-0.5H319.6z M319.6,25.1h0.8v-0.5h-0.8
	V25.1z M321.6,21.7h-1.6v0.6h1.6V21.7z M321.9,23.6H321v0.5h0.9V23.6z M321.9,25.1v-0.5H321v0.5H321.9z M329.2,23.3
	c0,1.2-0.9,2.1-2.1,2.1s-2.1-0.9-2.1-2.1s0.9-2.1,2.1-2.1C328.3,21.1,329.2,22.1,329.2,23.3z M448.4,97.1v0.5h-5.8v-0.5h0.8v-1.9
	h4.3v1.9H448.4z M448.3,93.8h-5.6v-0.5h1.6c-0.2-0.3-0.4-0.7-0.6-1l0.5-0.2c0.3,0.3,0.5,0.7,0.7,1l-0.3,0.2h2l-0.4-0.1
	c0.2-0.3,0.5-0.7,0.6-1.1l0.6,0.2c-0.2,0.4-0.5,0.7-0.7,1h1.6L448.3,93.8L448.3,93.8z M444.9,94.3c-0.5,0.4-1.3,0.8-1.9,1.1
	c-0.1-0.1-0.2-0.4-0.4-0.5c0.6-0.2,1.4-0.6,1.8-0.9L444.9,94.3L444.9,94.3z M443.9,97.1h0.7v-1.4h-0.7V97.1z M445.2,95.7v1.4h0.7
	v-1.4H445.2z M446.4,94c0.6,0.2,1.5,0.5,2,0.8l-0.3,0.5c-0.5-0.2-1.3-0.6-2-0.9L446.4,94L446.4,94z M446.4,95.7v1.4h0.7v-1.4H446.4z
	 M452.4,95.5v2h-1.6v0.3h-0.5v-1.6c-0.1,0.2-0.2,0.3-0.4,0.4c-0.1-0.1-0.2-0.3-0.4-0.4c0.4-0.3,0.6-0.8,0.8-1.3H450v-0.5h0.5
	c0-0.2,0.1-0.3,0.1-0.5h-0.9v-0.5h1c0-0.2,0-0.3,0-0.5H450v-0.5h2.3v1h0.3v0.5h-0.3v1h-1.4c-0.1,0.2-0.1,0.4-0.2,0.5L452.4,95.5
	L452.4,95.5z M450.9,96v1h1v-1H450.9z M451.1,93.9c0,0.2-0.1,0.4-0.1,0.5h0.7v-0.5H451.1z M451.2,92.9c0,0.2,0,0.4-0.1,0.5h0.6v-0.5
	H451.2z M455.6,96.4h-1.2v1.4h-0.6v-1.4h-1.2v-0.5h1.2v-0.8h-0.9v-0.5h0.9v-0.7h-1v-0.5h0.5c-0.1-0.3-0.2-0.7-0.4-1l0.5-0.2
	c0.2,0.3,0.4,0.7,0.5,1l-0.4,0.2h2.1v0.5h-1.1v0.7h0.9v0.5h-0.9v0.8h1.2L455.6,96.4L455.6,96.4z M455.3,92.2
	c-0.2,0.4-0.4,0.8-0.5,1.1l-0.5-0.1c0.2-0.3,0.3-0.8,0.4-1.1L455.3,92.2L455.3,92.2z M458.2,94.4c0.2,0.2,0.6,0.9,0.7,1.1l-0.3,0.4
	c-0.1-0.2-0.2-0.5-0.4-0.8v2.8h-0.5v-2.6c-0.2,0.6-0.4,1.1-0.7,1.5c-0.1-0.2-0.2-0.4-0.3-0.5c0.4-0.5,0.7-1.4,0.9-2.2h-0.8v-0.5h0.8
	v-1.3h0.5v1.3h0.7V94h-0.7L458.2,94.4L458.2,94.4z M461.6,93.6c0.3,0.4,0.7,0.7,1.1,0.9c-0.1,0.1-0.3,0.3-0.4,0.4
	c-0.2-0.1-0.4-0.2-0.6-0.4v0.6h-2.1v-0.7c-0.2,0.2-0.4,0.3-0.6,0.4c-0.1-0.1-0.2-0.3-0.4-0.4c0.5-0.2,0.8-0.5,1.1-0.9h-0.9v-0.5h1.1
	c0.1-0.1,0.1-0.2,0.1-0.3c-0.4,0-0.7,0-1,0c0-0.1-0.1-0.3-0.1-0.4c1,0,2.2-0.1,2.9-0.2l0.3,0.4c-0.4,0.1-0.9,0.2-1.5,0.2
	c0,0.1-0.1,0.2-0.1,0.4h2v0.5L461.6,93.6L461.6,93.6z M462.5,97.2c0,0.2-0.1,0.4-0.2,0.5c-0.2,0.1-0.5,0.1-0.9,0.1
	c0-0.1-0.1-0.4-0.2-0.5c0.3,0,0.5,0,0.6,0c0.1,0,0.1,0,0.1-0.1v-1.5h-2.4v2h-0.5v-2.5h3.5L462.5,97.2L462.5,97.2z M460.3,97.2v0.2
	h-0.5v-1.4h1.6v1.2L460.3,97.2L460.3,97.2z M460.4,93.6c-0.1,0.1-0.2,0.2-0.2,0.3h1.1c-0.1-0.1-0.2-0.2-0.2-0.3H460.4z M461.2,94.3
	h-1v0.5h1V94.3z M460.3,96.4v0.5h0.7v-0.5H460.3z M358.3,83.5c-0.2,0.3-0.3,0.6-0.5,0.9v3.4h-0.6V85c-0.2,0.2-0.3,0.3-0.5,0.5
	c-0.1-0.1-0.2-0.4-0.3-0.5c0.5-0.4,1.1-1,1.4-1.6L358.3,83.5L358.3,83.5z M358.2,82.2c-0.4,0.5-0.9,1.1-1.5,1.5
	c-0.1-0.1-0.2-0.3-0.3-0.4c0.5-0.3,1-0.9,1.2-1.3L358.2,82.2z M361.7,85.3c-0.2,0.6-0.7,1.1-1.2,1.4c0.5,0.2,1,0.4,1.6,0.5
	c-0.1,0.1-0.3,0.4-0.4,0.5c-0.7-0.2-1.3-0.3-1.8-0.6c-0.5,0.3-1.2,0.5-1.8,0.6c-0.1-0.2-0.2-0.4-0.3-0.5c0.6-0.1,1.1-0.2,1.6-0.5
	c-0.2-0.2-0.4-0.3-0.6-0.5c-0.2,0.1-0.3,0.2-0.5,0.4c-0.1-0.1-0.3-0.3-0.4-0.4c0.2-0.1,0.4-0.2,0.5-0.4c-0.1-0.2-0.2-0.3-0.3-0.5
	l0.5-0.2c0.1,0.1,0.1,0.2,0.2,0.3c0.2-0.2,0.4-0.5,0.5-0.7c-0.8,0.1-1,0.1-1.1,0.1c0-0.1-0.1-0.4-0.2-0.5c0.2,0,0.4-0.1,0.7-0.3
	c0.1-0.1,0.4-0.2,0.7-0.4c-0.8,0-1,0.1-1.1,0.1c0-0.1-0.1-0.4-0.2-0.5c0.1,0,0.3-0.1,0.4-0.2c0.2-0.1,0.7-0.5,1.1-0.9l0.6,0.2
	c-0.4,0.3-0.8,0.7-1.2,0.9l1,0c0.3-0.2,0.5-0.4,0.8-0.6l0.5,0.3c-0.7,0.5-1.5,1-2.2,1.4l1.7-0.1c-0.1-0.2-0.2-0.3-0.4-0.4l0.5-0.2
	c0.3,0.4,0.8,1,1,1.3l-0.5,0.3c-0.1-0.2-0.2-0.3-0.3-0.5l-1.3,0.1c-0.1,0.2-0.2,0.3-0.3,0.5h1.4l0.1,0l0.4,0.2L361.7,85.3
	L361.7,85.3z M359.5,85.7c-0.1,0.1-0.1,0.2-0.2,0.2c0.2,0.2,0.5,0.4,0.8,0.6c0.4-0.2,0.7-0.5,0.9-0.8L359.5,85.7L359.5,85.7z
	 M369.9,83.4c0,0,0,0.2,0,0.3c-0.1,2.6-0.1,3.4-0.3,3.7c-0.1,0.2-0.2,0.2-0.5,0.3c-0.2,0-0.5,0-0.8,0c0-0.2-0.1-0.4-0.2-0.5
	c0.3,0,0.6,0,0.7,0c0.1,0,0.2,0,0.2-0.1c0.2-0.2,0.2-1,0.2-3.1h-0.8c-0.1,1.6-0.4,3-1.5,3.8c-0.1-0.1-0.3-0.3-0.4-0.4
	c0.1-0.1,0.2-0.2,0.3-0.3c-1,0.2-2,0.3-2.7,0.4l-0.1-0.6c0.4,0,0.8-0.1,1.3-0.2v-1h-1.2v-0.5h2.9v0.5H366v0.9
	c0.4-0.1,0.8-0.1,1.2-0.2v0.3c0.5-0.7,0.7-1.6,0.8-2.8h-0.7v-0.5h0.8c0-0.4,0-0.9,0-1.3h0.6c0,0.5,0,0.9,0,1.3H369.9L369.9,83.4
	L369.9,83.4z M367.2,82.9h-3.1v-0.5h3.1V82.9z M365.1,83.1c-0.1,0.3-0.3,0.6-0.4,0.9c0.2,0.3,0.4,0.7,0.5,1l-0.5,0.2
	c-0.1-0.3-0.3-0.7-0.5-1.1c0.2-0.3,0.3-0.8,0.4-1L365.1,83.1L365.1,83.1z M365.6,85.1c-0.1-0.3-0.3-0.7-0.5-1.1
	c0.2-0.3,0.4-0.8,0.5-1l0.5,0.1c-0.1,0.3-0.3,0.6-0.4,0.9c0.2,0.3,0.4,0.7,0.5,0.9L365.6,85.1L365.6,85.1z M366.6,85.1
	c-0.1-0.3-0.4-0.7-0.6-1.1c0.2-0.3,0.4-0.8,0.5-1l0.5,0.1c-0.2,0.3-0.3,0.6-0.5,0.9c0.2,0.3,0.5,0.7,0.6,0.9L366.6,85.1L366.6,85.1z
	 M372.9,84.8c-0.2-0.2-0.7-0.5-1.1-0.7l0.3-0.4c0.4,0.2,0.9,0.4,1.1,0.6L372.9,84.8z M373.4,85.6c-0.2,0.6-0.6,1.4-0.9,2l-0.5-0.3
	c0.3-0.5,0.7-1.3,0.9-1.9L373.4,85.6L373.4,85.6z M373.2,83.2c-0.2-0.2-0.7-0.5-1.1-0.7l0.4-0.4c0.3,0.2,0.8,0.5,1.1,0.6L373.2,83.2
	z M375.5,86.4c-0.3,0.6-0.8,1-2,1.3c-0.1-0.1-0.2-0.3-0.3-0.4c0.9-0.2,1.4-0.4,1.6-0.9h-1.5V86h1.7c0-0.1,0.1-0.3,0.1-0.5
	c-1.1,0.1-1.3,0.1-1.5,0.2c0-0.1-0.1-0.3-0.2-0.5c0.2,0,0.4-0.1,0.7-0.2c0.1-0.1,0.4-0.2,0.8-0.4c-0.9,0.1-1.1,0.1-1.2,0.1
	c0-0.1-0.1-0.3-0.2-0.5c0.1,0,0.2-0.1,0.4-0.2c0.2-0.1,0.8-0.4,1.2-0.7l0.2,0.2c-0.1-0.2-0.2-0.5-0.3-0.7l0.5-0.1
	c0.1,0.2,0.3,0.5,0.4,0.7l-0.4,0.1l0.1,0.1c-0.3,0.2-0.6,0.4-1,0.5l1.1,0c0.2-0.1,0.5-0.3,0.7-0.5l0.5,0.3c-0.7,0.4-1.4,0.8-2.1,1.1
	l1.8-0.1c-0.1-0.1-0.2-0.2-0.3-0.3l0.4-0.2c0.3,0.3,0.6,0.8,0.8,1l-0.5,0.2c-0.1-0.1-0.1-0.2-0.2-0.4l-1.3,0.1h0.1
	c0,0.2,0,0.3-0.1,0.5h1.9v0.4L375.5,86.4L375.5,86.4z M377.5,82.5c-1,0.2-2.5,0.4-3.8,0.4c0-0.1-0.1-0.3-0.2-0.4
	c1.3-0.1,2.7-0.2,3.6-0.4L377.5,82.5L377.5,82.5z M374.2,83.8c-0.1-0.2-0.2-0.5-0.3-0.7l0.5-0.1c0.1,0.2,0.3,0.5,0.3,0.7L374.2,83.8
	L374.2,83.8z M375.9,86.5c0.6,0.2,1.4,0.6,1.8,0.9l-0.3,0.4c-0.4-0.3-1.2-0.7-1.8-0.9L375.9,86.5L375.9,86.5z M376.4,83.6
	c0.2-0.2,0.4-0.6,0.5-0.9l0.5,0.2c-0.2,0.3-0.4,0.6-0.5,0.9L376.4,83.6L376.4,83.6z M149.7,22.3c0,0.5-2,0.9-2,0
	c0.1-1.3,0.1-2.4,0.1-3.6c-0.6,0.7-2,1.5-2.4,1.8c0.1,2.4-1.4-0.6-1.9-1.5c1.2-0.2,2.6-0.7,4.3-1.3v-4.8c-1,0-3,0-3.9,0.1l-0.3-0.7
	c0.9,0.2,2.9,0.1,4,0.1c0-1.4,0-3.1-0.1-4.3c4.9,0.5,2.1,0.9,2.1,1.5V22.3z M157,12.5c-0.8,0.7-2,1.5-3.4,2.2v5.2
	c-0.1,1.2,1.9,1.2,2.5,0.8c0.5-0.9,0.4-2.2,0.8-3.7h0.4c0.1,1.7-0.1,2.4,0.5,3.5c0.6,0.5,0.7,1,0.1,1.5c-1.1,0.7-3.5,0.5-4.7,0.4
	c-1-0.1-1.4-0.5-1.4-1.6c-0.1-1.7,0.1-11-0.1-12.4c4.8,0.6,1.9,0.8,1.9,1.6c0,0,0,4.2,0,4.2c0.9-1,1.9-2.2,2.4-3.5
	c0.7,0.5,2.1,1,2.3,1.7C158.3,12.9,157.2,12.5,157,12.5L157,12.5z M160.4,10c0.6,0.1,1.9,0.1,2.8,0.1c0-0.8,0-1.5-0.1-2.2
	c0.2,0.1,4.2,0.2,2.3,1c-0.5,0.1-0.3,0.8-0.3,1.1h4.1c0-0.8,0-1.5-0.1-2.2c0.3,0.1,4.2,0.2,2.3,1C170.8,9,171,9.7,171,10h0.2
	c0.3-0.3,1.1-1.4,1.2-1.4c0.5,0,2.3,1.7,1.4,1.9H171v5h0.5c0.3-0.3,1.2-1.5,1.3-1.5c0.5,0,2.5,1.9,1.4,1.9h-4.8
	c1.5,1.2,3.4,1.7,5.2,2l0,0.3c-0.7,0-0.9,1.2-1.3,1.4c-1.6-0.4-3.6-2.2-4.5-3.7h-3c-1.6,2.4-3.3,3.2-5.9,4l-0.1-0.3
	c1.6-0.9,3.1-2.1,4-3.8c-0.9,0-3,0-3.7,0l-0.2-0.7c0.7,0.1,2.5,0.1,3.5,0.1v-4.8c-0.8,0-2.2,0-2.6,0.1L160.4,10L160.4,10z
	 M163.5,19.1c0.6,0.1,1.8,0.2,2.7,0.1c0-0.7,0-1.4-0.1-2.1c0.5,0.1,3.7,0.1,2.4,0.9c-0.6,0.2-0.4,0.8-0.4,1.2h0.4c0,0,1-1.2,1.1-1.3
	c0.4-0.1,2.2,1.6,1.3,1.7H168v2.1h2.6c0.4-0.5,1.2-1.5,1.3-1.5c0.3,0,2.6,1.9,1.5,2c-1.4,0-11.9-0.1-12.9,0.1l-0.2-0.7
	c1.1,0.2,4.7,0.1,6,0.1v-2.1c-0.8,0-2.2,0-2.6,0.1L163.5,19.1z M165,11.9h4.1v-1.3H165V11.9z M165,13.6h4.1v-1.3H165V13.6z
	 M165,15.6h4.1v-1.5H165V15.6z M178.2,9.6h4.3c0-0.6,0-1,0-1.6l0,0c0.5,0.1,3.6,0.1,2.2,0.8c-0.5,0.2-0.4,0.5-0.4,0.8h3.9
	c0.3-0.2,0.7-0.8,1-0.8c0.2,0,2.6,1.6,1.3,1.8c-0.8,0-1.1,0.5-2,0.7c0.4,0.4-0.5,0.6-0.6,0.9l0,0.3h0.5c0,0,0.9-1.1,1-1.1
	c0.3,0,2,1.4,1.1,1.5h-2.6l-0.3,1.5c0,0,0,0.1-0.1,0.1c0.6,0.4,2.1,1.2,1.1,1.7c-0.3,0.3-0.3,0.5-0.3,0.8c0,0,0.1,3.2,0.1,3.2
	c0,0.4-1.9,0.9-1.8,0h-6.4c0.1,0.5-1.9,0.9-1.8,0c0.1-1.8,0.1-3.8-0.1-5.6c0.7,0.2,1.5,0.5,2.2,0.8h5.6c0.2-0.2,0.4-0.4,0.5-0.5
	c-0.6,0-0.9-0.1-0.8-0.4h-5.8c-0.3,0.3-1.7,0.3-1.6-0.2c0.2-0.5,0.3-0.9,0.4-1.3c-0.8,0-2,0-2.3,0.1l-0.2-0.7
	c0.6,0.1,1.8,0.2,2.7,0.1c0.2-0.8,0.3-1.5,0.3-2c0.5,0.1,1.1,0.3,1.8,0.6h5c0.9-0.6,0.9-1,1.9-0.1c0.1-0.3,0.2-0.5,0.3-0.8h-10.1
	c0,0.8,0.1,1.5-0.4,1.8c-0.6,0.5-1.8-0.3-1.6-1.1c0.2-0.9,1.3-0.4,1.7-2.3l0.4,0V9.6z M182,21.8c-2.1,0.7-3.4,0.9-5.6,1.1l0-0.4
	c1.8-0.5,3.2-0.9,4.6-2.1C182.4,20.9,184.1,22.2,182,21.8z M180.2,16.9h6.4v-1h-6.4V16.9z M180.2,18.4h6.4v-1h-6.4V18.4z
	 M180.2,19.8h6.4v-1h-6.4V19.8z M180.3,14h2.1l0.2-1h-2C180.4,13.3,180.4,13.6,180.3,14z M180.6,12.5h2l0.1-1h-1.9
	C180.7,11.8,180.7,12.2,180.6,12.5z M184,14h1.9l0.2-1h-1.9L184,14z M184.2,20.8c7.2,0,5.7,2,4.8,2.2c-1.3,0.3-1.8-1.1-4.9-1.7
	L184.2,20.8L184.2,20.8z M184.4,11.5l-0.2,1h1.9l0.2-1H184.4z M196.2,12.3c1.5,0.2,3,0.7,1.6,2h2.7c0.2-0.6,0.3-1.2,0.4-2
	c0.5,0.2,3.1,0.7,1.7,1.1c-0.6,0.1-0.8,0.8-1.4,0.9h1.8c0,0,1-1.3,1.2-1.3c0.3,0,2.3,1.8,1.3,1.8c0,0-5.3,0-5.3,0v1.4h2
	c0,0,1-1.2,1.2-1.2c0.2,0,2.1,1.6,1.2,1.6h-4.3v1.4h3.7c0.1,0,1.1-1.4,1.2-1.4c0.4,0,2.5,1.8,1.4,1.8h-6c1.8,1.7,3.9,2,6.4,2.4
	l-0.2,0.4c-0.7,0.2-0.9,1.2-1.1,1.5c-2-0.3-4.3-1.7-5.2-3.7v3.4c0,0.5-2,0.9-1.9,0c0.1-0.6,0.2-1.9,0.1-3.1c-1.8,1.7-3.9,2.4-6.3,3
	l-0.1-0.3c1.9-0.8,3.8-1.9,4.9-3.6c-1,0-3.6,0-4.4,0.1l-0.3-0.7c1.1,0.2,4.8,0.1,6.2,0.1v-1.4c-1,0-3.6,0-4.3,0l-0.2-0.6
	c0.9,0.2,3.4,0.1,4.6,0.1v-1.4c-1.1,0-4.4,0-5.3,0l-0.3-0.7c0.8,0.2,2.9,0.1,4,0.1c-0.3-0.5-0.4-1.2-0.9-1.7L196.2,12.3L196.2,12.3z
	 M197,8.1c4.9,0.5,1.9,0.8,1.9,1.5c0,0,0,2.1,0,2.1h1.1c0-1.1,0-2.5-0.2-3.6c4.5,0.4,1.9,0.9,1.9,1.4c0,0,0,2.2,0,2.2h0.5
	c0.7-1,1.2-2.1,1.5-3.2c0.8,0.3,3.7,1.1,1.5,1.5c-0.7,0.7-1.5,1.2-2.4,1.8h1.5c0,0,1-1.4,1.2-1.4c0.5,0,2.4,1.8,1.4,1.8
	c-1.3,0-13-0.1-14.1,0l-0.3-0.7c0.9,0.2,3.5,0.1,4.7,0.1C197.2,10.5,197.1,9.1,197,8.1L197,8.1z M193.7,8.8c1.5,0.4,2.8,0.3,2.9,1.6
	c0.1,0.5-0.5,1.3-1.1,1.2c-1-0.2-1-1.8-2-2.4L193.7,8.8z M61.6,80.5c-8.3,4.5-17.9-0.1-18.7-10.3h4.6c1.2,8.2,10.3,9.3,14.2,4.1
	c4.4-5.8-1-12.5-8.9-11.8v-4.5c6.2,0.9,11.1-5.2,6.5-9.3c-4.1-3.6-9.4-0.6-10.6,4.3H44c1.3-10.9,14.6-14.8,20.4-5.5
	c2.6,4.2,1.6,9.5-2.5,12.4C70.6,64.2,69.2,76.3,61.6,80.5z M234.1,80.5c-8.3,4.5-17.9-0.1-18.7-10.3h4.6c1.2,8.2,10.3,9.3,14.2,4.1
	c4.4-5.8-1-12.5-8.9-11.8v-4.5c6.2,0.9,11.1-5.2,6.5-9.3c-4.1-3.6-9.4-0.6-10.6,4.3h-4.8c1.3-10.9,14.6-14.8,20.4-5.5
	c2.6,4.2,1.6,9.5-2.5,12.4C243.2,64.2,241.8,76.3,234.1,80.5z M264,80.5c-8.3,4.5-17.9-0.1-18.7-10.3h4.6c1.2,8.2,10.3,9.3,14.2,4.1
	c4.4-5.8-1-12.5-8.9-11.8v-4.5c6.2,0.9,11.1-5.2,6.5-9.3c-4.1-3.6-9.4-0.6-10.6,4.3h-4.8c1.3-10.9,14.6-14.8,20.4-5.5
	c2.6,4.2,1.6,9.5-2.5,12.4C273,64.2,271.6,76.3,264,80.5z M89.5,42l3.9,2.6l-9,14.3c12.5-2.9,18.7,16.2,6.5,22
	c-10.5,5-22.3-6.2-13.4-20.2L89.5,42z M90.6,65.1c-6.6-6.7-16,3.8-9.7,10.2C87.5,82,96.9,71.5,90.6,65.1z M103.8,50.8
	c4-11.7,18.1-10.9,22.2,0.1c2.3,6.2,2.3,16.1,0,22.5c-4.1,11.5-18.1,11.4-22.1,0.2C101.9,67.9,101.8,56.9,103.8,50.8z M107.9,71.5
	c2.7,7.9,11.1,8.3,14,0c1.6-4.6,1.6-13.6,0.2-18.2c-2.6-8.6-11.4-8.4-14.1-0.4C106.7,56.7,106.6,67.8,107.9,71.5z M4.1,57.1
	c2.5-7.3,11.3-6.8,13.8,0.1c1.4,3.8,1.4,10,0,14c-2.5,7.1-11.3,7.1-13.7,0.1C2.9,67.8,2.8,60.9,4.1,57.1z M6.6,70
	c1.7,4.9,6.9,5.2,8.7,0c1-2.9,1-8.5,0.1-11.3c-1.6-5.3-7.1-5.2-8.8-0.2C5.9,60.8,5.8,67.7,6.6,70z M157.3,50.8
	c4-11.7,18.1-10.9,22.2,0.1c2.3,6.2,2.3,16.1,0,22.5c-4.1,11.5-18.1,11.4-22.1,0.2C155.4,67.9,155.3,56.9,157.3,50.8z M161.4,71.5
	c2.7,7.9,11.1,8.3,14,0c1.6-4.6,1.6-13.6,0.2-18.2c-2.6-8.6-11.4-8.4-14.1-0.4C160.2,56.7,160.1,67.8,161.4,71.5z M187,50.8
	c4-11.7,18.1-10.9,22.2,0.1c2.3,6.2,2.3,16.1,0,22.5c-4.1,11.5-18.1,11.4-22.1,0.2C185.1,67.9,185,56.9,187,50.8z M191.1,71.5
	c2.7,7.9,11.1,8.3,14,0c1.6-4.6,1.6-13.6,0.2-18.2c-2.6-8.6-11.4-8.4-14.1-0.4C189.9,56.7,189.8,67.8,191.1,71.5z M149,59.9h-14.4
	v4.2H149V59.9z M25.7,76.7L38,52.3H23v2.9h10.3L23.2,75.4L25.7,76.7z M89,107c-0.1-0.3-0.3-0.7-0.5-0.9c0,0,4.6,0,5.3-4.6l0.9,0.2
	C94.2,106.9,89,107,89,107z M89.3,104.5c0,0,1-1.3,2-3.4l1,0.2c-0.8,1.5-1.6,2.7-1.6,2.7c2.3,0.7,4.8,2.2,4.8,2.2l-0.8,0.8
	C94.7,107,91.8,105.3,89.3,104.5z M88.6,103.1l0-0.9h7l0,0.9H88.6z M91.7,97.3H89v0.9h6.3v-0.9H93l-0.6-1.2l-1.2,0.2L91.7,97.3z
	 M88.6,102.2l-0.2-0.9l-3.5,1l0.2,1L88.6,102.2z M85.4,107c1,0,1.9,0.1,1.9-1.1l0-9.6h-1l0,9.6c0,0.3-0.8,0.2-1.2,0.2L85.4,107z
	 M88.6,99.5v-1H85v1H88.6z M93.5,98.3c-0.2,0.7-0.8,1.7-0.8,1.7h-3.9v0.9h6.8V100h-1.8l0.8-1.4L93.5,98.3z M89.9,98.6
	c0.4,0.7,0.8,1.4,0.8,1.4l0.9-0.3c0,0-0.3-0.9-0.8-1.4L89.9,98.6z M103,96.2v3.7h-2.7v1h6.5v-1h-2.7v-3.7H103z M107.3,98.6v-1h-7.4
	v1 M105.7,101.2h-1.1v4.6c0,0.5-1,0.2-1.7,0.2l0.3,1c1.4-0.1,2.5,0.2,2.5-1.2V101.2z M107.3,103v-1l-7.4,0v1L107.3,103z M97.2,99.5
	c1-0.7,2.2-1.8,2.9-2.9l-1-0.4c-0.5,0.8-1.5,1.7-2.4,2.4C96.8,98.8,97.1,99.2,97.2,99.5z M101.6,103.3L101.6,103.3l-0.9,0.5
	c0.5,0.6,1.1,1.5,1.4,2l0.9-0.6C102.8,104.7,102.1,103.9,101.6,103.3z M97,103c0.4-0.3,0.8-0.7,1.2-1.1v5.2h1v-6.4
	c0.4-0.5,0.7-0.9,0.9-1.5l-0.9-0.4c-0.7,1.2-1.8,2.4-2.8,3.1L97,103z M113.1,101.9v-1.6h-2.5v1.6H113.1z M111.2,100.6l0.8-0.2
	c0.2,0.4,0.5,0.9,0.6,1.3l-0.8,0.2C111.7,101.9,111.6,101.3,111.2,100.6z M116.7,101.9v-1.6h-2.6v1.6H116.7z M115.3,100.2l0.9,0.2
	l-0.8,1.4l-0.8-0.3L115.3,100.2z M111.7,98.3h4V99h-4V98.3z M108.8,99.9l-0.6-0.8c2.1-0.6,4.2-1.6,5.2-3l1,0.3l-0.2,0.2
	c1.1,1,3.1,1.9,4.9,2.3l-0.7,0.8c0,0-2.4-0.5-4.8-2.5C111.8,99.2,108.8,99.9,108.8,99.9z M109.7,99.6l7.9,0v3.1h-7.9V99.6z
	 M110.4,103h6.7v3.9h-1.1v-0.3h-4.5v0.4h-1.1V103L110.4,103z M111.5,104.5h4.5v-0.7h-4.5V104.5z M111.5,105.9h4.5v-0.7h-4.5V105.9z
	 M129.6,99.5L129.6,99.5L129.6,99.5L129.6,99.5z M124.5,106.2l-0.8,0.4l-0.4-0.8l-2.8,1.2l-0.3-0.9c0.2-0.1,0.4-0.2,0.4-0.7v-5.6
	h3.4v4h-2.5v1.7l1.4-0.5l-0.4-0.8l0.8-0.3L124.5,106.2z M121.6,101.3h1.6v-0.8h-1.6V101.3z M121.6,103h1.6v-0.8h-1.6V103z
	 M120.3,99.5l-0.4-1c0.9-0.6,1.8-1.5,2.4-2.4l0.8,0.3c0,0.1-0.1,0.3-0.2,0.4c0.6,0.3,1.2,0.7,1.6,0.9v-0.2h2.7
	c-0.1-0.3-0.3-0.8-0.5-1l0.9-0.4c0.2,0.4,0.5,0.9,0.6,1.3l-0.2,0.1h2.6v2h-0.9v-1.1h-4.2v0.9h4.1v3.1h-3.4v0.8h4v3.7h-0.9v-0.4h-3
	v0.5h-0.9v-7.5h-0.7v-1.8l-0.5,0.8c-0.4-0.3-1-0.7-1.6-1C121.7,98.5,120.3,99.5,120.3,99.5z M121.4,98.4h2v0.8h-2V98.4z
	 M126.1,101.5h2.5v-1.3h-2.5V101.5z M126.1,105.6h3v-1.5h-3V105.6z M132.9,104.3c-1.2,0-1.1,1.9,0,1.9
	C134,106.2,134.1,104.3,132.9,104.3z M132.9,99.7c-1.2,0-1.1,1.9,0,1.9C134.1,101.6,134.1,99.6,132.9,99.7z M145.3,107.1
	c-1-0.2-1.8-0.6-2.6-1c-0.7,0.5-1.5,0.8-2.4,1c-0.1-0.2-0.4-0.7-0.6-0.8c0.8-0.2,1.5-0.4,2.2-0.8c-0.4-0.4-0.8-0.8-1.2-1.3
	c-0.4,1.1-1.1,2.1-2.2,2.8l-0.7-0.8c1.6-1,2.2-2.7,2.5-4.3h-1.5v-0.9h1.6c0-0.3,0-0.5,0-0.8H139v-0.8h0.8c-0.1-0.4-0.3-0.9-0.5-1.4
	l0.8-0.2c0.2,0.4,0.5,1,0.6,1.4l-0.7,0.2h3.1c0.4-0.6,0.8-1.4,1-1.9l1,0.3c-0.3,0.6-0.7,1.1-1,1.6h1.3v0.8h-3.9c0,0.2,0,0.5-0.1,0.8
	h4.3v0.9h-4.4c0,0.2-0.1,0.4-0.1,0.7h3l0.8,0.2c-0.3,1-0.8,1.9-1.5,2.5c0.7,0.4,1.6,0.6,2.4,0.8L145.3,107.1z M143.8,103.4h-2.5
	c0.3,0.6,0.8,1,1.4,1.5C143.2,104.5,143.6,104,143.8,103.4z M137.6,96.1h-1l0,9.7c-0.1,0.4-0.7,0.1-1.3,0.2l0.3,1
	c1.2,0,1.9,0,1.9-1.2L137.6,96.1z M138.8,99.5v-1h-3.5v1H138.8z M138.9,102.5l-0.1-1l-3.6,1.1l0.2,1.1L138.9,102.5z M144.7,96.3
	c-1.4,0.3-3.9,0.5-5.8,0.6c0.1,0.2,0.2,0.6,0.2,0.8c2.1,0,4.6-0.2,6.2-0.6L144.7,96.3z M142.6,99.1c0-0.4-0.2-1-0.3-1.5l-0.8,0.1
	c0.1,0.5,0.2,1.2,0.3,1.6l0,0L142.6,99.1z M157,98.3L157,98.3v5.6h-1.1v-0.6h-7.2v0.7h-1.1v-5.7H157z M148.6,99.3v2.9h7.2v-2.9
	H148.6z M152.8,107h-1.1V96.2h1.1V107z M162,99.4v-1.8h-1.9v1.8H162z M167.6,103.7H165v2h2.6V103.7z M168.5,106.9h-1v-0.4h-2.6v0.4
	h-1v-4.2h4.6V106.9z M162.9,99.8c0.9-0.8,1.6-2.2,2.1-3.5l1,0.2c-0.1,0.3-0.2,0.6-0.3,0.9h2l0.9,0.3c-1.4,4.3-5.2,5.7-5.2,5.7
	l-0.3-0.5h-1.4v1.9l1.5-0.3l0.1,0.9c-1.6,0.4-3.3,0.8-4.6,1.1l-0.2-1c0.2,0,0.4-0.1,0.6-0.1v-4h0.9v3.8l0.8-0.2v-4.6h-1.6v-3.7h3.9
	l0,3.6h-1.3v1.6h1.4v0.5c0,0,2.7-0.9,4.2-4.1h-2l0,0l-0.1,0.2c1.8,3.1,4.2,3.8,4.2,3.8l-0.7,0.9c0,0-2.2-0.6-4.1-3.9
	c-0.3,0.4-0.6,0.8-0.9,1.1L162.9,99.8z M175.4,101.4c3.9-2.3-0.8-6.7-3.8-4.2c-0.6,0.5-0.9,1.2-1.1,2.1l1.3,0.2
	c0.1-1.7,2.2-2.7,3.4-1.2c0.6,0.8,0.4,2.9-2.1,2.8l-0.1,1.2c2.8-0.8,3.9,2,2.4,3.6c-1.3,1.4-3.5,0.5-3.6-1.5l-1.3,0.2l0,0
	c0.1,0.9,0.4,1.6,1.1,2.2C175.4,109.9,180.5,103.3,175.4,101.4z M178.8,104.7L178.8,104.7C178.9,104.7,178.9,104.7,178.8,104.7
	L178.8,104.7z M185.2,98.6c0.8,1.9,0.8,6.6-1.3,8.2c-1.9,1.4-4.9,0.5-5-2l1.2-0.1c0.1,1.5,1.7,2.2,2.9,1.5c1.3-0.7,1.4-2.5,1.4-3.9
	c-1.4,2.4-5.7,1.8-5.7-2.2C178.7,95.8,183.8,95,185.2,98.6z M184.3,100c-0.1-3.3-4.3-3.1-4.2,0.1C180,103.2,184.3,103.1,184.3,100z
	 M193.4,102.4c2.3,3.5-2.9,6.7-5.6,4c-1.6-1.4-1.3-4.6,1-5c-2.9-1-1.3-5.2,1.5-4.9c2.9-0.3,4.5,3.9,1.6,4.9
	C192.6,101.6,193.1,102,193.4,102.4z M188.7,99.2c-0.1,2.3,3.4,2.3,3.4,0.1C192.1,97.1,188.7,96.9,188.7,99.2z M188.3,104.1
	c0,2.8,4.4,2.9,4.3,0C192.6,101.3,188.3,101.2,188.3,104.1z M200.8,99.2h1.3l0,1.6c0,1.1-0.1,1.8,3,1.3l0-0.7
	c-2.3,0.2-2.2,0.3-2.2-0.6v-1.6h1.9l-0.2,1.2l0.8,0.2l0.5-2.1l-0.8-0.1h-2v-0.7h2.3v-0.9h-2.3V96h-1v2.3h-2.3c0,4.9-0.1,6.5-1,8
	l0.8,0.6C200.7,105.1,200.8,103.4,200.8,99.2z M204.4,100.7l-0.1-0.8l-3.2,0.2l0.1,0.8L204.4,100.7z M199.1,96.6v3.2h-3.4v-3.2
	H199.1z M198.2,97.4h-1.8V99h1.8V97.4z M204.5,106.8c1,0,1.4-0.2,1.4-1.9l-0.8-0.4c0,1.4,0,1.4-0.5,1.4c-0.4,0-0.5,0-0.5-0.2v-2.6
	h-0.9v2.7C203.2,106.6,203.5,106.8,204.5,106.8z M196.3,106.9c2.5,0.3,2.2-0.7,2.5-4.2h-2.2l0.2-1h2.4v-0.9h-4.2v0.9h0.9l-0.4,1.9
	h2.3c-0.2,2.4,0,2.7-1.8,2.5L196.3,106.9z M200.8,107c1.3-0.8,1.6-2.2,1.6-4.1h-0.9c-0.1,1.6-0.3,2.7-1.4,3.4L200.8,107z
	 M209.1,96.4c-2.3,3.4-2.3,8.7,0,12l0.8-0.4c-2-3.4-2-7.9,0-11.3L209.1,96.4z M215.2,100.3l-0.8-0.5c-1.5,1-3.3,1.7-3.3,1.7l0.7,0.9
	C211.8,102.3,214,101.3,215.2,100.3z M220.8,102.2l0.6-0.8c0,0-1.6-0.8-3.6-1.5l-0.6,0.8C219.4,101.3,220.8,102.2,220.8,102.2z
	 M215.2,100.3L215.2,100.3L215.2,100.3L215.2,100.3z M211.3,98.5v0.9h10.2v-0.9L211.3,98.5z M215.2,98.2c0,0-0.5-1.1-1.2-1.9
	l-0.9,0.4c0.7,0.9,1.2,2,1.2,2L215.2,98.2z M218.4,98.6c0,0,0.7-0.8,1.4-2l-1.1-0.3c-0.4,1-1.1,2-1.1,2L218.4,98.6z M220.2,105.7
	h1.4v0.9h-10.5v-0.9h1.5v-3.5h7.7V105.7z M214.7,103h-1.2v2.6h1.2V103z M216.9,103h-1.3v2.6h1.3V103z M219.2,103h-1.3v2.6h1.3V103z
	 M231.2,99.4h2v-1h-4.8v1h1.8v7.6h1V99.4z M233.4,104.3L233.4,104.3v-1h-5.3v1H233.4z M232.9,101.8v-1h-4.5v1H232.9z M228.4,96.6
	c0.6,0.9,0.8,1.9,0.8,1.9l0.9-0.3c0,0-0.3-1.1-0.8-1.9L228.4,96.6z M233,96.4l-1-0.2c-0.2,0.6-0.5,1.5-0.8,2l0.9,0.3L233,96.4z
	 M223.2,104.9l-0.7-0.8c0,0,1.9-1.4,2.1-6.4h-1.3v-0.9h4.2v4.8h-4.3v-0.9h3.3v-2.9h-1C225.2,103.4,223.2,104.9,223.2,104.9z
	 M223.9,102.6h3.8l0,0l0,3.8h-2.9v0.6h-1V102.6z M222.7,99.6v-0.9h5.5v0.9H222.7z M226.7,103.6h-1.8v1.9h1.8V103.6z M243,105.9h-2.2
	l0,0v0.5h-0.8v-2.7h3V105.9z M242.2,104.4h-1.4v0.9h1.4V104.4z M242.8,107c1,0,2,0.1,2-0.9v-3.8h-6.4v4.7h0h1v-3.9h4.4v2.8
	c0,0.3-0.4,0.2-1.3,0.2L242.8,107z M238.5,101.4l-0.7-0.8c0,0,2-1,2.7-3.2c-0.6,0-1.3,0-1.8,0.1l-0.2-0.8c1.8,0,4-0.2,5.2-0.5
	l0.6,0.7c-0.8,0.1-1.7,0.3-2.7,0.4C240.8,100.2,238.5,101.4,238.5,101.4z M242.5,100.3h-1.9v0.8h1.9V100.3z M243.4,99.6v2.3h-3.8
	v-2.3H243.4z M243.2,99c0.5,0.7,1.3,1.3,2,1.6l-0.7,0.8c0,0-1.2-0.5-2.4-2.4h-3.9v-0.8h6.6V99H243.2z M237.7,103.3l0.6-0.8
	c-0.1-0.3-2.2-3.5-2.2-3.5s-0.6,2.9-1.8,4.8l0.5,1c0.4-0.4,1.4-3.1,1.7-4.1L237.7,103.3z M238.1,99.7v-1h-3.7v1 M236.9,96.1h-1V107
	h1V96.1z M249.6,101.4v1h2.4v3.2h-3.7v1h8.3v-1h-3.5v-3.2h3v-1H249.6z M246.6,106.3c0,0,3-2,4.3-10l-1.1-0.1c-1,7.2-3.9,9.3-3.9,9.3
	L246.6,106.3z M256.4,99.3v-1h-10.1v1 M263.9,104.4c0.4,0.4,0.9,0.9,1.1,1.3l-0.8,0.5c-0.2-0.4-0.6-1-1-1.4L263.9,104.4z
	 M267.1,106.1c0,1.1-1.5,0.9-2.2,0.9l-0.3-0.9c0.3,0,1.5,0.1,1.5-0.1l0-3h1L267.1,106.1z M257.8,98.3v-1h4.5v1 M258.2,103.2v-4.1
	h4.1v4.1 M257.8,105.1v-1h4.8v-0.5l5.9,0v0.8h-5.8v0.7 M260.6,107h-0.9V96.1h0.9V107z M261.5,100.8v-0.9l-2.6,0v0.9 M261.5,102.4
	v-0.9l-2.6,0v0.9 M268,98.4v3.1h-5.1v-3.1H268z M265.8,102.2h1l-0.4-0.5l0.8-0.4c0.5,0.5,1.1,1.2,1.3,1.6l-0.8,0.4l-0.3-0.5
	l-4.9,0.1l0-0.8l2.4,0v-6h0.9L265.8,102.2z M262.6,97.8V97h5.6v0.8H262.6z M263.7,100.2l0,0.6h3.4l0-0.6H263.7z M263.7,99v0.6h3.4
	V99H263.7z M270.3,96.4l-0.8,0.4c2,3.4,2,7.9,0,11.3l0.8,0.4C272.5,105,272.6,99.8,270.3,96.4z M8.2,105.8h-4v0.6h-1v-3h4.9V105.8z
	 M7.2,104.1h-3v0.9h3V104.1z M8.3,106.9c0.7,0,2.2,0.1,2.2-0.9v-4.2H1v5.2h1.1v-4.3h7.3v3.2c0,0.3-1.1,0.2-1.5,0.1L8.3,106.9z
	 M9.4,98.9v2.4h-7v-2.4H9.4z M8.2,99.6H3.4v0.8h4.8L8.2,99.6L8.2,99.6z M6.1,96.1L5,96.4l0.3,0.9H0.7v0.9h10.2v-0.9H6.5L6.1,96.1z
	 M22.9,106c-2.7-1-4.1-3.8-4.9-6.5c0.1-1.2,0.1-2.3,0.1-3.2h-1.2c0,3.8-0.3,7.9-4.7,9.9L13,107c2.6-1.3,3.9-3.3,4.5-5.5
	c0.9,2.5,2.3,4.4,4.5,5.5L22.9,106z M22.6,100.6v-1.1H12.4v1.1H22.6z M34.5,103v-1l-6.2,0v1 M30.9,107c1.5,0,2.4,0,2.4-1.2v-4.9
	h-1.1v4.9c0,0.3-0.8,0.2-1.6,0.1L30.9,107z M29.7,103.2l-0.8,0.5c0.5,0.6,1.1,1.4,1.4,1.9l0.9-0.6C30.9,104.5,30.3,103.7,29.7,103.2
	z M25.3,97.3l-0.8-0.1c-0.1,1.5-0.4,3-0.8,3.9l0.8,0.3C24.8,100.4,25.2,98.8,25.3,97.3z M27.9,99.6v-1h-3.2v1H27.9z M26.9,96.2h-1
	V107h1V96.2z M28,102.9l-0.1-1l-4,0.9l0.3,1.1L28,102.9z M28,102.9L28,102.9L28,102.9L28,102.9z M31.8,96.2h-1.1v3.5h-1.9v1h5.1v-1
	h-2.1L31.8,96.2z M34.2,98.3v-1h-5.8v1H34.2z M43.7,101h-4.4v-2.7h4.4V101z M42.6,99h-2.4v1.2h2.4V99z M45,104.7h-3.2v-3.1H45V104.7
	z M44.1,102.4h-1.4v1.5h1.4V102.4z M38.1,101.7h3.1v3.1h-3.1V101.7z M38.9,104h1.3v-1.5h-1.3V104z M46,105.3c-0.4,0.1-1.3,0.1-2,0.1
	l0,0l-5,0c-1.2,0-1.6-0.4-1.6-1.4v-6.4h8.3v-1h-9.8v1h0.5v6.4c0,1.9,0.9,2.5,2.8,2.5h4.9c0.9,0,1.9,0,2.2-0.1L46,105.3z M47.4,107
	h7.5v-1.9h-4.2c2.1-2,3.6-4.1,3.6-6.2c0-4.1-4.9-4.5-7.1-1.7l1.2,1.2c1.3-1.6,3.8-1.6,3.8,0.7c0,1.7-1.8,3.9-4.8,6.6V107z
	 M56.4,102.5h4.1v-1.6h-4.1C56.4,100.9,56.4,102.5,56.4,102.5z M61.7,105.5c1.9,2.4,7.8,2.1,7.7-1.7c0-1.3-1-2.3-2.3-2.7
	c1.2-0.5,1.9-1.4,1.9-2.6c0-3.6-4.9-3.8-7-1.6l1.1,1.4c3.7-3.3,5.5,2.4,0.9,2.1v1.6c5.4-0.4,2.9,6-1.3,2.2L61.7,105.5z M77.5,102.1
	h3.7v0.8h-4.9l-0.1,0.8h4c-0.2,2.9-0.4,3.6-3,3.3l-0.3-0.9c1.6,0,2,0.5,2.1-1.5h-3.1c-0.5,1.1-1.3,1.9-3.1,2.4l-0.6-0.8
	c2.2-0.6,2.7-1.7,3-3.2h-2.3c-0.1,1.5-0.6,3.1-1.5,4.2l-0.8-0.8c1.9-2.6,1.2-6.3,1.3-9.3c2.6-0.1,5.7-0.5,7.4-0.8l0.8,0.8
	c-2,0.4-4.7,0.7-7.2,0.8v0.5h7.4v2.7h-7.4l0,1h3.3l-0.4-0.7l1-0.2L77.5,102.1z M73.1,100.2h6.4v-0.9h-6.4V100.2z M6.8,20.3
	c0-1.9-1.5-3.4-3.4-3.4S0,18.4,0,20.3c0,1.9,1.5,3.4,3.4,3.4C5.3,23.7,6.8,22.2,6.8,20.3z M59.2,9.6h-3.4c1.1,1,2.4,1.9,3.8,2.5
	c-0.3,0.2-0.7,0.7-0.9,1c-1.6-0.8-3.2-2-4.5-3.5h-6.8c-1.2,1.4-2.6,2.6-4.4,3.6c-0.2-0.3-0.6-0.7-0.9-0.8c1.5-0.8,2.7-1.7,3.7-2.7
	h-3.4V8.6h4.4C47.2,8,47.6,7.3,48,6.7h-3.7v-1h4.2C48.8,5.1,49,4.5,49.2,4h-5.9v-1h6.2c0.1-0.6,0.3-1.2,0.3-1.8l1.6,0.1
	c0,0.2-0.2,0.3-0.4,0.3C51,2,50.9,2.4,50.8,2.9h7.5v1h-7.8c-0.2,0.6-0.4,1.1-0.6,1.7h7.7v1h-4.1c0.4,0.7,0.8,1.3,1.3,1.9h4.4
	L59.2,9.6z M43.3,16.6c1.4-0.4,3.6-1.2,5.6-2l0.2,1c-1.8,0.7-3.7,1.5-4.9,1.9c0,0.1-0.1,0.3-0.2,0.3L43.3,16.6z M46.3,11.1
	c0.9,0.6,2,1.5,2.4,2.1L47.9,14c-0.5-0.7-1.5-1.6-2.4-2.2L46.3,11.1z M51.3,17.1c0,1.3-0.6,1.3-3.3,1.3c0-0.3-0.2-0.7-0.4-1
	c0.6,0,1.1,0,1.5,0c0.8,0,0.9,0,0.9-0.3v-7l1.6,0.1c0,0.1-0.1,0.2-0.3,0.3L51.3,17.1L51.3,17.1z M49.4,6.7C49,7.3,48.7,8,48.2,8.6
	h5.1c-0.4-0.6-0.8-1.2-1.2-1.9H49.4z M57.5,18c-1.3-0.8-3.7-2-5.6-2.8l0.7-0.9c1.9,0.8,4.3,1.9,5.6,2.6L57.5,18z M52.6,13.2
	c0.8-0.6,1.8-1.6,2.4-2.3l1.1,0.9c-0.1,0.1-0.2,0.1-0.4,0.1c-0.6,0.6-1.6,1.5-2.4,2L52.6,13.2z M71.8,14h0.2l0.7,0.1
	c0,0.1,0,0.2-0.1,0.3c-0.2,2.2-0.4,3.2-0.8,3.5c-0.3,0.3-0.6,0.3-1,0.4c-0.4,0-1.1,0-2,0c0-0.3-0.1-0.7-0.3-1
	c0.8,0.1,1.5,0.1,1.8,0.1c0.3,0,0.4,0,0.5-0.1c0.2-0.2,0.4-0.8,0.5-2.3h-2.7c-0.5,1.5-1.5,2.7-3.8,3.4c-0.1-0.2-0.4-0.6-0.6-0.8
	c1.8-0.5,2.7-1.4,3.2-2.5H65v-1h2.9c0.1-0.4,0.1-0.8,0.2-1.3l1.4,0.1c0,0.1-0.1,0.2-0.3,0.2c0,0.3-0.1,0.6-0.1,0.9H71.8z M73.6,2.6
	h7.7v1h-7.7v1.2h6.3v0.9H66.2V4.8h6.2V3.6h-7.5v-1h7.5V1.1L74,1.2c0,0.1-0.1,0.2-0.4,0.3V2.6z M76.1,10l1.1,0.4
	c-0.1,0.1-0.2,0.2-0.4,0.1c-0.2,0.3-0.5,0.7-0.8,1.1h5.2v1H64.9v-1h5c-0.2-0.4-0.5-0.9-0.8-1.3l1.1-0.3c0.4,0.4,0.8,1,0.9,1.4
	l-0.6,0.2h4.8c-0.2-0.1-0.3-0.1-0.5-0.2c0.3-0.4,0.7-1,0.9-1.4h-8.5V6.7h11.6V10L76.1,10z M68.4,9.1h9.2V7.7h-9.2V9.1z M73.9,18.4
	v-4.8h6.4v4.7h-1.2v-0.6H75v0.7H73.9z M79.2,14.5H75v2.2h4.1V14.5z M94.4,8.2h-5.6v10.2h-1.2V1.9h6.8L94.4,8.2L94.4,8.2z M93.2,2.9
	h-4.4v1.6h4.4V2.9z M88.8,7.2h4.4V5.5h-4.4V7.2z M100.4,13.7h-2.6V18h-1.1v-4.3h-2.8c-0.1,1.2-0.7,3.2-2.5,4.5
	c-0.2-0.2-0.6-0.6-0.8-0.8c1.6-1,2.2-2.6,2.3-3.7h-2.4v-1h2.4v-2.2h-2.1V9.4h9.4v1h-2.2v2.2h2.6L100.4,13.7L100.4,13.7z M93.8,12.7
	h2.8v-2.2h-2.8V12.7z M103.1,1.9v14.7c0,1.6-0.7,1.6-3.6,1.6c0-0.3-0.2-0.9-0.4-1.3c0.8,0,2.8,0.3,2.8-0.3V8.2h-5.7V1.9H103.1z
	 M101.9,2.9h-4.5v1.6h4.5V2.9z M97.3,7.2h4.5V5.5h-4.5V7.2z M115.9,12.9c-0.7,5.7-0.3,5.5-4.8,5.3c0-0.3-0.2-0.8-0.4-1.1
	c3.5,0.1,3.4,0.8,3.9-3.4h-3.5l-0.1,0.6l-1-0.2c0.3-1.1,0.6-2.9,0.8-4.3h3.9V7.7H112c-0.8,0.6-1.7,1-2.5,1.4
	c-0.2-0.3-0.5-0.7-0.8-0.9c2.4-0.9,5-2.9,6.4-5.2H110v-1h5.9l0.2-0.1l0.8,0.4c0,0.1-0.1,0.1-0.2,0.2c-0.7,1.6-1.9,3.1-3.3,4.2h2.4
	v4.6h-1.1v-0.4h-3c-0.1,0.6-0.2,1.3-0.3,1.9h3.6L115.9,12.9z M110.9,3.7c0.8,0.5,1.7,1.1,2.2,1.6l-0.8,0.8c-0.4-0.5-1.4-1.2-2.1-1.7
	L110.9,3.7z M123.8,2.2c-0.1,0.1-0.2,0.1-0.4,0.1c-0.7,0.6-1.8,1.5-2.7,2.1c0.4,0.4,0.8,0.9,1.2,1.3c0.9-0.6,2.1-1.6,2.8-2.4
	l1.1,0.8c0,0.1-0.2,0.1-0.4,0.1c-0.7,0.6-1.8,1.5-2.8,2c1,0.8,2.3,1.5,3.6,1.9c-0.3,0.2-0.6,0.7-0.8,1c-0.9-0.3-1.7-0.8-2.5-1.3v2
	c0,0.5,0.1,0.5,0.4,0.5h0.6c0.7,0,0.7-0.1,0.8-0.9c0.2,0.2,0.6,0.4,0.9,0.5c-0.1,0.9-0.1,1.3-1.6,1.3h-0.9c-1.3,0-1.3-0.7-1.3-1.6
	V7.8h-2.7c0,1.2,0,2.8-2.1,4c-0.2-0.2-0.6-0.6-0.8-0.8c1.6-0.8,1.8-1.8,1.8-2.8V6.7h3.5c-1.6-1.4-2.9-3.2-3.7-5.4l1-0.3
	c0.3,0.8,0.8,1.7,1.3,2.4c0.8-0.6,1.9-1.6,2.5-2.2L123.8,2.2z M124.3,12.4c0,0.1-0.1,0.1-0.1,0.2c-0.5,1.4-1.4,2.5-2.4,3.4
	c1.1,0.6,2.4,1,3.9,1.2c-0.3,0.3-0.6,0.7-0.8,1c-1.6-0.3-2.9-0.8-4.1-1.6c-1.1,0.8-2.5,1.3-4,1.6c-0.1-0.3-0.4-0.7-0.6-0.9
	c1.3-0.3,2.5-0.7,3.6-1.4c-0.9-0.8-1.6-1.6-2.1-2.7l0.8-0.2H117v-0.9h6.4L124.3,12.4z M118.9,13.1c0.4,0.9,1.1,1.7,2,2.3
	c0.8-0.6,1.5-1.4,1.9-2.3H118.9z M45.9,28.6v-1.7h-0.7v-0.2h1.6v0.2h-0.7v1.7H45.9z M48.1,28.6l0.8-2h0.3l0.8,2h-0.3L49.4,28h-0.8
	l-0.2,0.6H48.1z M49,26.8l-0.3,1h0.7L49,26.8z M60.7,28.6l0.8-2h0.3l0.8,2h-0.3L62,28h-0.8l-0.2,0.6H60.7z M61.5,26.8l-0.3,1h0.7
	L61.5,26.8z M51.6,28.6v-2h0.3v2H51.6z M55.8,28l0.2,0c0,0.6,0.6,0.5,0.6,0.1v-1.4h0.3v1.5C56.9,28.8,55.8,28.9,55.8,28z M58.7,28.6
	v-2H59v2H58.7z M66.1,26.6h0.7c1.3,0,1.3,2,0,2l-0.8,0V26.6z M66.8,28.4c0.9,0,1-1.5,0-1.5h-0.4v1.5L66.8,28.4z M121.7,26.6h0.7
	c1.3,0,1.3,2,0,2l-0.8,0V26.6z M122.4,28.4c0.9,0,1-1.5,0-1.5h-0.4v1.5L122.4,28.4z M69.5,28.6v-2H71v0.2h-1.2v0.6h1.1v0.2h-1.1v0.7
	H71v0.2L69.5,28.6z M74.1,26.6h0.3l-0.8,2h-0.2l-0.8-2h0.3l0.6,1.7L74.1,26.6z M76,28.6v-2h1.5v0.2h-1.2v0.6h1.1v0.2h-1.1v0.7h1.2
	v0.2L76,28.6z M79.3,28.6v-2h0.3v1.7h1v0.2H79.3z M83.1,26.6c1.3,0,1.3,2.1,0,2.1C81.8,28.7,81.8,26.6,83.1,26.6z M83.1,28.4
	c0.9,0,0.9-1.6,0-1.6C82.2,26.8,82.2,28.4,83.1,28.4z M108.9,26.6c1.3,0,1.3,2.1,0,2.1C107.6,28.7,107.6,26.6,108.9,26.6z
	 M108.9,28.4c0.9,0,0.9-1.6,0-1.6C108,26.8,108,28.4,108.9,28.4z M85.8,28.6v-2h0.9c0.8,0,0.8,1.2,0,1.2H86v0.8H85.8z M86,27.6
	l0.6,0c0.5,0,0.5-0.8,0-0.8H86V27.6z M90,28.3l0.5-1.7h0.4v2h-0.2V27l-0.6,1.6h-0.2l-0.6-1.7v1.7H89v-2h0.4L90,28.3z M92.7,28.6v-2
	h1.5v0.2H93v0.6h1.1v0.2H93v0.7h1.2v0.2L92.7,28.6z M96,28.6v-2h0.3l1,1.6v-1.6h0.2v2h-0.3l-1-1.6v1.6H96z M99.9,28.6v-1.7h-0.7
	v-0.2h1.6v0.2h-0.7v1.7H99.9z M106.1,27.9l0.3,0c-0.2,1-1.7,1-1.7-0.3c0-1.3,1.5-1.4,1.7-0.5l-0.3,0c-0.2-0.6-1.2-0.6-1.2,0.4
	C104.9,28.3,105.9,28.7,106.1,27.9z M111.6,28.6v-0.3h0.3v0.3H111.6z M113.8,28.6v-0.3h0.3v0.3c0,0.2-0.1,0.3-0.2,0.4l0-0.1
	c0.1,0,0.1-0.2,0.1-0.3L113.8,28.6z M115.9,28.6v-2h0.3v1.7h1v0.2H115.9z M119.1,28.6v-1.7h-0.7v-0.2h1.6v0.2h-0.7v1.7H119.1z"/>
</svg>
