<svg xmlns="http://www.w3.org/2000/svg" viewBox="0 0 352.25 117.98"><defs><style>.cls-1{fill:#fff;opacity:0.12;}</style></defs><g id="圖層_2" data-name="圖層 2"><g id="圖層_1-2" data-name="圖層 1"><path class="cls-1" d="M345.54,37.23A22.1,22.1,0,0,1,339,37a26.3,26.3,0,0,0-4.6-1.11,37.4,37.4,0,0,0-4.81.87,15,15,0,0,1-1.72.17,5.43,5.43,0,0,0-1.36-1.07,9.16,9.16,0,0,0-2.34-.28s-.27-1.48-2.92-2.72-7.35-4.67-7.85-5.62-2-2.44-2.16-2.87-.7.83.19,2.19a28.93,28.93,0,0,1,2.27,3.73,9.34,9.34,0,0,0,5,5c3,1,4.43,1.63,4.34,2a1.29,1.29,0,0,1-1.32.84c-.67-.09-2.45-.62-2.59-.24s1.08,3.66,3.24,4.19a6.6,6.6,0,0,0,4.67-.67c.28-.29-1.54-.49-1.32-1.17s1.19-.4,1.71-.89,2-.33,2.38-.33-.2-.34-.2-.34,3.11.08,4.4.15,4.33-.61,5.24-.39,8.37-.79,8.67-1.41C348.06,36.7,346.73,37.07,345.54,37.23Z"/><path class="cls-1" d="M268,15.8c.68-.32.85-.32,1.33-.6a3.4,3.4,0,0,1,1.86-.46,3.45,3.45,0,0,0-.57-1.36c-.41-.45-.73-1.1-1-1.24s-.7-.28-.74-.39,1,0,1,0,.45-.57,1.73-.23a5.47,5.47,0,0,1,2.25,1.5,4,4,0,0,0,1.16-2.17c.3-1.48.53-2.81,1.24-3.54A29.09,29.09,0,0,0,280,3.07C281,1.41,282,0,282.3,0s.6,4.22-.49,6.58a19.41,19.41,0,0,1-1.95,3.33c-.35.67-.16,1.38-.73,2.87A20.8,20.8,0,0,1,277.34,16c-.14.28.11.79.38,1.18a8,8,0,0,0,1.54,1.29c.41.28.8.41.68.64s-.45.89-.94,1.1a2.36,2.36,0,0,1-1.39,0c-.32-.07-.29-1.23-.65-1.42a24,24,0,0,0-2.28-1.2,4.07,4.07,0,0,1-2.47-.36,3.65,3.65,0,0,0-2.34-.7c-.79,0-2.62.27-2.79.19S267.52,16,268,15.8Z"/><path class="cls-1" d="M333.27,107.21s.11-2.42,4.09-5,10.78-9.13,11.37-10.75,2.61-4.36,2.83-5.09,1.31,1.18.19,3.57a47.27,47.27,0,0,0-2.83,6.48c-.37,1.52-2.32,6.82-6.88,9.14s-6.75,3.59-6.52,4.19a2.06,2.06,0,0,0,2.3,1c1.06-.28,3.79-1.53,4.1-.94s-.93,6.1-4.28,7.43a10.66,10.66,0,0,1-7.64,0c-.51-.4,2.36-1.13,1.85-2.16s-2-.39-2.93-1.06-3.28-.08-3.89,0,.24-.58.24-.58-5,.81-7,1.21-7.1,0-8.51.52-13.62.57-14.22-.36c-.38-.59,1.83-.29,3.78-.29s8.18-.64,10.47-1.77a42.25,42.25,0,0,1,7.15-2.78c1.52-.33,6.11.31,7.91.33a22.81,22.81,0,0,0,2.79-.09,8.65,8.65,0,0,1,1.95-2A14.67,14.67,0,0,1,333.27,107.21Z"/><path class="cls-1" d="M59.34,12.72a4.54,4.54,0,0,1,1.77-.58,2.09,2.09,0,0,1,1.15.31,1.56,1.56,0,0,0,.69.2c.22,0,0,.13-.29.27s-.54.72-1,1.1S60,16.28,58.81,16.86s-2.63.72-3.39,1.15S54,19.66,53.61,19.8,52.29,18.59,52,18.12s.65-.94,1.34-1,1.44-.7,1.06-.87a23.63,23.63,0,0,1-3.27-4.91c-.43-1.12-.92-5.33-1.66-6.63S49,.53,49.24.42s1.95,2.42,2.62,3.29,1,1.37,1.14,1.39.32-.63.32-1.28-.16-1.59,1.45.5,3.48,3.15,3.36,4.25a16.07,16.07,0,0,0,0,2.87A11.59,11.59,0,0,0,58.4,13,4.81,4.81,0,0,0,59.34,12.72Z"/><path class="cls-1" d="M24.49,106a15.51,15.51,0,0,1-4.63-.14,17.37,17.37,0,0,0-3.25-.78,24.68,24.68,0,0,0-3.4.61,11.63,11.63,0,0,1-1.22.12,4,4,0,0,0-1-.76,6.59,6.59,0,0,0-1.66-.2s-.19-1-2.06-1.92-5.2-3.31-5.56-4-1.38-1.73-1.52-2-.5.59.13,1.56A20.63,20.63,0,0,1,2,101.11a6.6,6.6,0,0,0,3.51,3.55c2.11.73,3.13,1.15,3.07,1.42a.9.9,0,0,1-.93.6c-.48-.06-1.73-.44-1.83-.17s.76,2.59,2.29,3a4.6,4.6,0,0,0,3.3-.47c.2-.21-1.09-.35-.93-.83s.84-.28,1.2-.63,1.42-.23,1.69-.23-.14-.24-.14-.24,2.2.06,3.11.11,3.06-.44,3.71-.28,5.92-.56,6.13-1C26.28,105.63,25.34,105.89,24.49,106Z"/></g></g></svg>