<svg xmlns="http://www.w3.org/2000/svg" viewBox="0 0 1628.97 379.88"><defs><style>.cls-1{fill:#fff;opacity:0.12;}</style></defs><g id="圖層_2" data-name="圖層 2"><g id="圖層_1-2" data-name="圖層 1"><path class="cls-1" d="M199.7,117.46a13.89,13.89,0,0,1,5.4-1.78,6.49,6.49,0,0,1,3.5,1,4.57,4.57,0,0,0,2.12.61c.68,0-.07.41-.89.82s-1.64,2.2-3.08,3.36-5.07,6.92-8.7,8.7-8,2.19-10.34,3.49-4.45,5.06-5.54,5.48-4-3.7-5.07-5.14,2-2.88,4.11-3.08,4.38-2.12,3.22-2.67-8.7-11.57-10-15S171.62,96.92,169.36,93s-1.44-12.74-.55-13.08,6,7.39,8,10.06,3,4.18,3.47,4.25,1-1.92,1-3.91-.48-4.86,4.45,1.51,10.61,9.66,10.27,13a46.4,46.4,0,0,0,0,8.77,33,33,0,0,0,.82,4.79A13.46,13.46,0,0,0,199.7,117.46Z"/><path class="cls-1" d="M1577.86,27.92c-2.58.36-10.93.63-14.16-.44a56.22,56.22,0,0,0-10-2.39c-2.07-.16-8,1.51-10.39,1.87a30.57,30.57,0,0,1-3.71.38,11.64,11.64,0,0,0-2.94-2.31c-1.36-.59-5.07-.62-5.07-.62s-.58-3.19-6.31-5.86-15.89-10.12-17-12.16-4.23-5.29-4.66-6.21-1.52,1.79.4,4.75S1508.25,11,1509,13s4.3,8.59,10.75,10.84,9.56,3.52,9.37,4.35a2.75,2.75,0,0,1-2.85,1.81c-1.45-.17-5.29-1.33-5.59-.5s2.33,7.9,7,9.05,9.48-.81,10.08-1.44-3.32-1.07-2.83-2.53,2.56-.87,3.68-1.93,4.32-.71,5.15-.72-.43-.72-.43-.72,6.71.17,9.5.32,9.37-1.32,11.34-.84,18.1-1.71,18.73-3.05C1583.3,26.78,1580.43,27.57,1577.86,27.92Z"/><path class="cls-1" d="M74.86,368.92c-2.58.36-10.93.63-14.16-.44a56.22,56.22,0,0,0-10-2.39c-2.07-.16-8,1.51-10.39,1.87a30.57,30.57,0,0,1-3.71.38A11.64,11.64,0,0,0,33.71,366c-1.36-.59-5.07-.62-5.07-.62s-.58-3.19-6.31-5.86-15.89-10.12-17-12.16S1.13,342.1.7,341.18s-1.52,1.79.4,4.75S5.25,352,6,354s4.3,8.59,10.75,10.84,9.56,3.52,9.37,4.35A2.75,2.75,0,0,1,23.28,371c-1.45-.17-5.29-1.33-5.59-.5s2.33,7.9,7,9,9.48-.81,10.08-1.44-3.32-1.07-2.83-2.53,2.56-.87,3.68-1.93,4.32-.71,5.15-.72-.43-.72-.43-.72,6.71.17,9.5.32,9.37-1.32,11.34-.84,18.1-1.71,18.73-3.05C80.3,367.78,77.43,368.57,74.86,368.92Z"/><path class="cls-1" d="M1259.71,102.49c1.1-.53,1.38-.53,2.15-1s2.48-1,3-.75a5.47,5.47,0,0,0-.93-2.21c-.65-.73-1.17-1.79-1.57-2s-1.13-.45-1.19-.63,1.63.06,1.63.06.73-.93,2.81-.38a8.87,8.87,0,0,1,3.65,2.43,6.44,6.44,0,0,0,1.88-3.52c.49-2.4.86-4.55,2-5.75a46,46,0,0,0,6-6.91c1.67-2.69,3.19-5,3.72-5s1,6.83-.79,10.67a31.44,31.44,0,0,1-3.18,5.4c-.56,1.09-.24,2.24-1.17,4.66a33.83,33.83,0,0,1-2.91,5.22c-.22.45.18,1.28.63,1.91a12.66,12.66,0,0,0,2.49,2.09c.66.46,1.3.67,1.09,1a2.81,2.81,0,0,1-3.77,1.85c-.52-.13-.48-2-1-2.31a38,38,0,0,0-3.7-1.95c-.54-.09-2.16.51-4-.58a6,6,0,0,0-3.8-1.14c-1.29,0-4.25.45-4.52.31S1259,102.84,1259.71,102.49Z"/><path class="cls-1" d="M1583.09,160.79s.25-5.87,9.89-12.08,26.06-22.06,27.48-26,6.31-10.53,6.85-12.29,3.16,2.83.44,8.61-5.94,12-6.83,15.68-5.61,16.48-16.64,22.09-16.31,8.69-15.77,10.13a5,5,0,0,0,5.57,2.55c2.56-.67,9.18-3.71,9.91-2.28s-2.24,14.76-10.34,18-17.22.88-18.47-.1,5.71-2.74,4.48-5.23-4.82-1-7.08-2.57-7.94-.2-9.42,0,.59-1.39.59-1.39-12,2-17,2.91-17.15-.07-20.57,1.27-32.92,1.38-34.38-.87c-.92-1.42,4.44-.7,9.15-.7s19.78-1.56,25.3-4.28,13.63-5.92,17.3-6.72,14.78.74,19.12.79a55.49,55.49,0,0,0,6.75-.22s2.42-3.48,4.71-4.88S1583.09,160.79,1583.09,160.79Z"/></g></g></svg>