<svg xmlns="http://www.w3.org/2000/svg" viewBox="0 0 1493.25 1205.1"><defs><linearGradient id="a" x1="761.21" y1="987.77" x2="-144.08" y2="-158.25" gradientTransform="rotate(-144.06 588.128 510.471)" gradientUnits="userSpaceOnUse"><stop offset="0" stop-color="#00a2ff"/><stop offset="1" stop-color="#00c5d9"/></linearGradient></defs><g data-name="圖層 2"><path d="M375.86 6.23c-1.24.2-2.41.44-3.64.64-239.79 40-403.61 266-367.14 506.34l.59 3.7C45.76 768.36 268.94 945 517.57 932.69h.06c67.47-.8 127.64-16 181.31-26.83a201.2 201.2 0 0 1 216.14 100.73 192.13 192.13 0 0 1 11.5 24.87l.86 2.1c44.06 114.71 161 186.21 282.65 169 2.65-.36 5.23-.77 7.87-1.19.61-.16 1.17-.24 1.78-.34 119.23-21.14 200.81-133.67 183.88-253.57l-.29-1.85c-.36-2.64-.78-5.22-1.24-7.79q-.87-4.89-1.91-9.71c-14.08-65-5.41-132.72 27.65-190.37A492.19 492.19 0 0 0 1487 414.33l-.58-3.65C1446.37 170.9 1220.4 7.07 980.1 43.54l-3.7.59q-3.89.63-7.76 1.3C844.72 67.18 717.63 58 597.26 21.3a492 492 0 0 0-221.4-15.07z" style="opacity:.39;fill:url(#a)" data-name="圖層 1"/></g></svg>