<?xml version="1.0" encoding="utf-8"?>
<!-- Generator: Adobe Illustrator 26.5.0, SVG Export Plug-In . SVG Version: 6.00 Build 0)  -->
<svg version="1.1" id="圖層_1" xmlns="http://www.w3.org/2000/svg" xmlns:xlink="http://www.w3.org/1999/xlink" x="0px" y="0px"
	 viewBox="0 0 1243 174" style="enable-background:new 0 0 1243 174;" xml:space="preserve">
<style type="text/css">
	.st0{fill:#FFFFFF;}
</style>
<path class="st0" d="M331.8,137.9v20.2c6.8,10.6,32.7,5.4,44.6,5.7c-0.8,1.8-2,5.5-2.4,7.7c-13.3-0.1-38.3,3.6-45.5-6.9
	c-2.8,2.5-5.7,5-8.1,6.9c0,0.7-0.3,1.1-0.9,1.3l-3.9-8.4c2.7-1.7,6-3.7,8.8-6v-13.5h-7.4v-7H331.8z M322.6,114.5
	c3.9,2.7,8.6,6.6,10.7,9.7l-6,5.1c-2-3-6.5-7.3-10.3-10.2L322.6,114.5z M356.9,138.7h-9.4c-0.6,7.7-2.6,17-9,23.4
	c-1-1.7-3.7-4.3-5.5-5.3c9.9-11,6.7-25.6,7.3-38.2c8.3,2,19.6-3.3,25.4-5.5l6.9,5.9c-7,2.2-15.6,4.8-24.9,6.4v6.2h27.5v7h-10.7v23.9
	h-7.6V138.7z M397.8,150.7c-4.7,2.2-10,4.1-15.2,5.5c-0.7-1.7-2.1-4.4-3.2-5.8c10.6-2.2,21.1-7,26.5-12.4l9,0.3
	c-0.2,0.5-0.7,0.9-1.5,1c6.1,5.3,17.1,8.9,26.5,10.5c-1.5,1.7-2.9,4.4-3.7,6.2c-4.6-1-10-2.9-14.9-5.1v2.5h-23.4V150.7z
	 M388.2,127.5v7.1h-6.7v-11.9h24.1v-2.1h-19.8v-5.5H433v5.5h-19.9v2.1h24.6v11.9h-7v-7.1h-17.6v9.6h-7.5v-9.6H388.2z M430,155.7
	c-0.5,8.8,3.4,15.3-12.1,14.3c-0.5-1.8-1.7-4.3-2.6-5.8c1.7-0.1,8.1,0.7,7.3-0.8c0,0,0-2.6,0-2.6h-13.4v12.1h-7.4v-12.1h-14.7v-5.1
	H430z M388.9,139.9v-4.2h14.7v4.2H388.9z M390.3,129.6h13.3v4.1h-13.3V129.6z M416.4,148.2c-2.7-1.5-5.2-3.2-7.1-5
	c-1.8,1.7-4.1,3.4-6.8,5H416.4z M415.1,129.6h13.4v4.1h-13.4V129.6z M415.1,139.9v-4.2H430v4.2H415.1z M448.7,145.4v-14.8
	c-0.8,0.9-1.6,1.8-2.4,2.5c-0.7-1.3-2.3-4-3.3-5.2c3.6-3.3,7-9.1,9-15l6.9,2.2c-0.2,0.4-0.8,0.7-1.5,0.6c-0.6,1.5-1.2,2.9-1.9,4.3
	h3.9c1.1-2,2.3-4.4,2.9-6.2l6.9,1.8c-0.3,0.4-0.8,0.7-1.5,0.7l-2.5,3.7h6.7v4.8h-6.7v2.2h5.3v1c3.6-3.6,6.9-9.4,8.9-15.1l7,2.3
	c-0.2,0.4-0.7,0.7-1.5,0.6c-0.6,1.4-1.2,2.9-1.9,4.3h3.4c1-2,2.1-4.4,2.7-6.2l6.9,1.7c-0.1,0.4-0.6,0.7-1.5,0.7
	c-0.6,1.1-1.4,2.5-2.3,3.8h8.6v4.8h-8.1v2.2h6.1v4.5h-6.1v2.2h6.1v4.4h-6.1v2.3h9.3v4.8h-25.7v-14.8c-0.8,1-1.7,2-2.5,2.9
	c-0.7-1.1-2.2-3.2-3.2-4.6v2.7h-5.3v2.2h5.3v4.4h-5.3v2.3h7.3v4.8H448.7z M488.9,147.9l5.7,2.9c-3.7,4.3-7.2,8.8-12.6,11.7
	c6.3,1.7,13.3,2.7,20.9,3.2c-1.6,1.8-3.6,5.1-4.7,7.2c-9.5-1-18.2-2.9-25.5-5.9c-7.8,3-16.7,4.8-25.9,5.8c-0.6-2-2-5-3.2-6.7
	c7.2-0.6,14.2-1.7,20.5-3.4c-3-1.9-5.8-4.1-8.1-6.6l3.9-1.8h-13.5v-6.2h41.3L488.9,147.9z M459,127.2V125h-3.9v2.2H459z M459,133.9
	v-2.2h-3.9v2.2H459z M459,140.6v-2.3h-3.9v2.3H459z M464.3,154.3c2.3,2,5.3,3.7,8.7,5.2c3.2-1.5,6-3.2,8.4-5.2H464.3z M486.5,127.2
	V125h-3.9v2.2H486.5z M486.5,133.9v-2.2h-3.9v2.2H486.5z M486.5,140.6v-2.3h-3.9v2.3H486.5z M529.8,123.6v6h-23.2v-6H529.8z
	 M528.2,150.1v15.6c2.4-3.2,3.7-8.2,4.2-13.1l6.1,1.7c-0.6,5.7-1.8,11.6-5,15.4l-5.3-3.4v3.4h-12.6v2.5h-6.3v-21.9H528.2z
	 M528.1,132.6v5.8h-18.6v-5.8H528.1z M509.5,147v-5.7h18.6v5.7H509.5z M527.9,115v5.8h-18.3V115H527.9z M521.8,163.5v-7.4h-6.3v7.4
	H521.8z M564.8,117.6c-1.1,25.6-1.4,25.6-14.5,25.3c-0.1-2-0.8-4.7-1.8-6.5l0.8,0.1c-1.1-0.8-2.5-1.5-3.9-2.3
	c-2.3,4.1-5.6,7.9-10.8,10.9c-0.9-1.7-2.9-4.2-4.5-5.5c4.4-2.2,7.2-5.2,9.2-8.5c-2.3-1-4.8-2-7-2.7l3.6-5.3c1.9,0.6,3.9,1.3,5.9,2.1
	c0.4-1.2,0.6-2.4,0.9-3.6H533v-6.3c4.1,0.2,28.6-0.4,32,0.3L564.8,117.6z M546.7,163.6c-0.4,3,2.1,1.6,3.7,1.9c1,0,1.3-0.7,1.4-6.2
	c1.3,1.1,4.3,2.2,6.2,2.7c-0.6,11-4.5,10.2-11.4,10.1c-5.7,0-6.9-2.2-6.9-8.4v-13.2l8.6,0.5c-0.1,0.6-0.5,1-1.6,1.1V163.6z
	 M551.1,153.8c-2.1-2.7-6.8-6.5-10.8-9l4.8-4.1c4,2.3,8.9,5.8,11.2,8.6L551.1,153.8z M550.6,136.6c8.2,0.7,5.6-2.3,7-15h-8
	c-0.4,2-1,4.2-1.7,6.4c2.3,1.1,4.4,2.3,6,3.3L550.6,136.6z M560.6,169.9c-0.7-4.4-3.3-11.1-6.3-16l6.2-2.5c3.3,4.8,6,11.3,6.9,15.7
	L560.6,169.9z M592.8,123.6v6H570v-6H592.8z M590.8,150.1v19.3h-11.9v2.6h-6.2v-21.9H590.8z M590.7,132.6v5.8h-17.8v-5.8H590.7z
	 M572.9,147v-5.7h17.8v5.7H572.9z M590.5,115v5.8h-17.2V115H590.5z M584.6,156.1h-5.7v7.4h5.7V156.1z M624.5,139.7v15.7h-6.3
	l5.8,1.7c-0.3,0.4-0.8,0.7-1.7,0.7c-0.8,2-2.1,4.5-3.3,6.6h10.7v6.5h-37.5v-6.5h9.5c-0.4-2.3-1.5-5.3-2.5-7.7l5-1.3h-6.7v-15.6
	c-0.8,0.6-1.5,1.1-2.3,1.7c-0.9-1.6-2.8-4-4.2-5.3c2.5-1.4,4.8-3.4,6.7-6c-1.4-1.3-3.2-2.9-4.8-3.9l4-4.4c1.3,0.8,2.9,1.9,4.2,3
	c0.7-1.3,1.3-2.7,1.8-4.1h-8.3V115c0.5,0,12.4,0.1,12.4-0.2l4.1,1.6c-0.2-0.7-0.3-1.5-0.5-2.2l6-1.2c0.4,1.7,0.8,3.3,1.4,4.9
	c1.5-1.2,3-2.6,4.1-3.6l4.4,4.6c-0.4,0.3-1.1,0.4-1.7,0.3c-1.2,0.8-3.4,2.2-5.1,3.2c0.4,1,1,2,1.5,3c1.7-1.3,3.4-2.9,4.6-4.1l4.6,5
	c-0.3,0.3-1.1,0.4-1.6,0.3c-1.2,0.7-3.2,1.8-5,2.8c1.9,2.3,4.1,4.3,6.7,5.7c-1.6,1.3-3.7,3.9-4.7,5.8L624.5,139.7z M603.4,136.1
	v-2.2c-1.5,1.9-3,3.6-4.8,5.1h25c-1.9-1.5-3.6-3.4-5.1-5.5v2.5H603.4z M617.1,145h-12.8v4.5h12.8V145z M615,164.5l-2.3-0.8
	c1-2.3,2.2-5.6,3-8.2h-9.7c1.3,2.5,2.3,5.9,2.9,8.1l-3,0.9H615z M616.4,130.2c-2.2-4-3.9-8.6-5.1-13.7c-0.2,0.4-0.4,0.6-0.6,0.9
	c-1,4.8-2.7,9.1-4.8,12.8H616.4z M699.3,143.7c1.2-0.4,5,0.4,6.2,0.6c-1.8,27.4-4.3,30.1-21.3,28.5c-0.2-2.4-1.3-5.7-2.9-7.9
	c13.2,0.9,14.5,2.7,15.6-14.2h-11.6l-0.6,3l-7.7-1.2c1.3-5.8,2.8-14.8,3.5-22h17v-7.9h-19.9v-7h27.5v23.6h-7.6v-1.5h-10.2l-1,6.1
	H699.3z M719.9,114l9.4,0.5c-0.1,0.6-0.6,1-1.7,1.2v57.2h-7.7V114z M756.1,160.7c3.7-0.5,7.5-1,11.2-1.6l0.3,6.2
	c-9.6,1.8-19.7,3.5-26.2,4.5c-0.1,0.6-0.6,1-1.1,1.1l-2.8-7.7l11.2-1.5v-9.2h-9.4v-6.4h27v6.4h-10.3V160.7z M749,125
	c-0.1,0.6-0.6,0.8-1.3,0.8c-0.8,2-2.4,5.5-3.9,8.3c2.1,3.1,4,6.8,5,9.2l-5.3,2c-0.9-3-2.9-7.2-5.4-11.2c1.8-3.5,3.6-7.7,4.6-10.5
	L749,125z M767.1,115.7v6.7h-28.1v-6.7H767.1z M752.3,145c-1-3-3.2-7.1-5.7-11c1.8-3.4,3.7-7.5,4.8-10.2l6.5,1.4
	c-0.1,0.5-0.7,0.8-1.4,0.7c-0.8,2-2.5,5.3-4,8.1c2.2,3,4.2,6.5,5.1,9L752.3,145z M767.1,125.1c-0.1,0.5-0.6,0.8-1.3,0.8
	c-1,2-2.7,5.3-4.3,8.1c2.3,3.1,4.5,6.6,5.7,9l-5.3,2.2c-1.2-3-3.6-7.2-6.4-11.1c2-3.5,4-7.6,5.1-10.3L767.1,125.1z M796.1,160.5
	h-20.4l6,3.7c-0.2,0.3-0.6,0.4-1.1,0.4c-2.4,2.9-7.7,6.5-12.1,8.4c-1.2-1.3-3.4-3.4-5.1-4.8c4.3-1.8,9.1-5.1,11.6-7.8h-5.2v-33.9
	h8.3l0.8-4.6h-10.7v-6.4H798v6.4h-11.8c-0.3,1.4-0.7,3-1.2,4.6h11.2V160.5z M776.4,132.2v3.9h12.9v-3.9H776.4z M776.4,141.5v3.9
	h12.9v-3.9H776.4z M776.4,150.8v4h12.9v-4H776.4z M793.2,173.1c-1.9-2.4-6.1-6.2-9.3-8.8l5.6-3.6c3.2,2.3,7.5,5.9,9.6,8.3
	L793.2,173.1z M817.8,160.9c-0.2,0.4-0.8,0.7-1.6,0.6c-2.1,3.9-5.6,8.4-9,11.4c-1.4-1.3-3.9-3.2-5.7-4.3c3.1-2.5,6.2-6.7,8-10.5
	L817.8,160.9z M833.9,151v6.7h-32.2V151h5.8v-23.8h-5v-6.7h5v-6.8l8.4,0.5c-0.1,0.6-0.5,0.9-1.6,1.1v5.2h8v-6.8l8.6,0.5
	c-0.1,0.6-0.5,1-1.6,1.1v5.2h4.3v6.7h-4.3V151H833.9z M822.3,127.2h-8v3.8h8V127.2z M814.3,136.9v4h8v-4H814.3z M814.3,146.7v4.3h8
	v-4.3H814.3z M859.7,115.9v48.8c0,7-2.7,8.4-13.2,8.3c-0.3-2-1.2-5.3-2.2-7.2c2.2-0.2,8.4,1.2,8.1-1.2c0,0,0-12.8,0-12.8h-10.1
	c-0.8,7.7-2.8,15.8-7.1,21.5c-1.1-1.2-3.7-3.2-5.4-4.2l-3,1.8c-1.3-2.5-4.4-6.7-6.9-9.7l5.8-3.2c1.9,2.1,4.3,4.9,5.9,7.2
	c6.7-14.1,3.6-34.4,4.3-49.3H859.7z M842.9,139.4c0,1.7,0,3.6-0.1,5.5h9.6v-7.7h-9.5V139.4z M852.4,122.8h-9.5v7.6h9.5V122.8z
	 M873.2,149c-1.5,2-3,3.7-4.6,5.4c-0.8-1.6-2.6-5.2-3.7-6.8c4.7-4.8,10.2-12.9,13.5-20.5l7.9,3.1c-0.3,0.4-0.9,0.7-1.8,0.6
	c-1.3,2.5-2.7,5.1-4.2,7.6l1.7,0.6c-0.2,0.5-0.6,1-1.7,1.1v32.9h-7.1V149z M885.1,116.3c-0.3,0.4-0.8,0.7-1.7,0.6
	c-3.5,4.4-9.4,10.7-14.3,14.9c-0.9-1.5-2.8-4.2-4-5.6c4.3-3.4,9.7-8.9,12.3-13.1L885.1,116.3z M924.5,133.4v6.9h-39.7v-6.9h15.9
	v-6.8h-12.6v-6.6h12.6v-7l9.1,0.5c-0.1,0.6-0.6,1-1.7,1.2v5.3H921v6.6h-12.8v6.8H924.5z M885.4,146.4h22.5v-6.1l9.1,0.4
	c-0.1,0.6-0.5,1-1.7,1.2v4.5h8.4v6.7h-8.4c-1.1,11.7,5.3,20.8-14.3,19.8c-0.3-2-1.3-5.1-2.3-7.1c13.1,0.8,8.3,0.8,9.1-12.7h-22.5
	V146.4z M895.4,166.5c-1.1-2.7-3.9-6.8-6.5-9.7l5.7-3.2c2.7,2.9,5.7,6.7,6.9,9.4L895.4,166.5z M652.9,134
	c-11.8-0.2-11.8,18.3,0,18.1C664.7,152.3,664.7,133.8,652.9,134z M119.1,22.1H86.4c-0.6,1.7-1.2,3.5-1.8,5.3h24.6v53.2H98.7v-3.9
	H63.8v3.9H53.7V27.4h19.9c0.4-1.8,0.8-3.5,1-5.3H42.7v-9.3h18.9c-1.8-2.5-4-5.4-6-7.6L64.9,1c3.2,3,6.6,7.1,8.4,10.1l-3.2,1.7h18.3
	c2.6-3.4,5.4-8,7-11.5l13,3.8c-0.4,0.7-1.2,0.9-2.4,0.9c-1.4,2.2-3.3,4.5-5.3,6.8h18.4V22.1z M98.7,41.3v-5.2H63.8v5.2H98.7z
	 M63.8,48.9v5.5h34.9v-5.5H63.8z M63.8,67.8h34.9v-5.7H63.8V67.8z M141.1,19.5c-0.1,19.2,1,43-8.4,61.4c-1.8-1.8-6.3-4.6-8.6-5.6
	c9.9-19.6,6.6-44.5,7.2-65.1H162V1.6l12.7,0.7c-0.1,0.8-0.7,1.3-2.3,1.7v6.3h30.8v9.3H141.1z M176.6,61.9v8h27v8.6h-63.3v-8.6h26.6
	v-8H146v-8.7h20.9v-9.5l-4.7,5.6c-1.4-2-3.9-4.8-6.6-7.4c-2,3.6-4.6,6.7-7.9,9c-1.5-1.7-4.8-4.4-6.9-5.6
	c6.9-4.3,10.1-12.4,11.1-22.3l10.6,1.3c-0.2,0.7-0.8,1.2-1.8,1.3c-0.4,2.8-1,5.6-1.8,8.2c2.8,2.5,5.9,5.4,7.9,7.7V21.9l11.9,0.7
	c-0.1,0.8-0.7,1.3-2.2,1.5V43c5.2-4.5,8-11.6,9.2-20l10.5,1.7c-0.2,0.7-0.8,1.1-1.9,1.2c-0.5,2.7-1.2,5.3-2,7.8
	c4.3,3.4,9.2,7.5,11.9,10.2l-5.9,7c-2.2-2.4-5.9-5.9-9.6-9.1c-2.1,3.4-4.7,6.4-7.8,8.5c-0.9-1.1-2.7-2.6-4.3-3.9v6.9h22.3v8.7H176.6
	z M231,79V17.3c-0.2-0.2-12.9,6.7-13.1,6.7l-3.2-10.5L233,4.2h12.3V79H231z M270.6,3.5h6.8v15.3H292v6.5h-14.6v15.4h-6.8V25.3H256
	v-6.5h14.6V3.5z M324,4.2c-0.3,0.7-1.1,1.1-2.3,1.2c-1.5,4.2-3.7,9.3-5.9,13.8c3.9-0.2,8-0.3,12.2-0.4c-1.3-2.5-2.8-4.9-4.3-7.1
	l8.5-3.5c4.3,5.9,8.8,13.9,10.5,19.4l-9.2,3.9c-0.3-1.3-0.8-2.8-1.5-4.3c-10.7,0.8-21.5,1.5-28.7,2c-0.2,0.8-0.8,1.2-1.5,1.3
	l-2.9-11c1.9,0,4.2-0.1,6.6-0.1c2.6-5.6,5.3-12.7,6.8-18.3L324,4.2z M336.6,33.3v37.3c0,8.3-3.5,10-15.2,10c-0.5-2.7-1.9-6.5-3.2-9
	c2.3-0.2,8.8,1.3,8.5-1.2c0,0,0-4.5,0-4.5h-12.6v14.7h-9.3V33.3H336.6z M326.7,41.6h-12.6v4.4h12.6V41.6z M314.1,58.5h12.6v-4.9
	h-12.6V58.5z M366,30.5c2.8,0,3.4-1.3,3.7-8.6c2,1.5,6.1,3.1,8.9,3.7c-0.7,17.7-11.7,13.6-23.2,14c-9.9,0-12.3-2.9-12.3-12.2V1.8
	l12.3,0.7c-0.1,0.8-0.8,1.3-2.3,1.6v9.8c5.7-2.2,11.2-4.8,15.2-7l6.8,7.6c-6.3,1.8-13.7,5.4-22,7.6C352.6,33.8,353.9,29.7,366,30.5z
	 M353.1,67.8c0,3,0.6,3.4,3.9,3.4h9.6c2.9,0,3.5-1.6,3.9-10.1c2.1,1.5,6.1,3,8.8,3.7c-0.6,19.1-11.4,14.8-23.8,15.2
	c-9.9,0-12.4-2.9-12.4-12.2V41.2l12.2,0.7c-0.1,0.8-0.7,1.3-2.3,1.6v9.1c6-2.3,11.8-5.2,15.9-7.9l7,7.8c-6.7,2-14.2,6.2-23,8.5V67.8
	z M403.3,25.6c-0.3,0.7-0.9,1-2,1c-2.6,6.1-7,12.9-11.6,17.3c-1.7-1.7-5-4.3-7.1-5.6c4.2-3.6,8-9.9,10.1-15.8L403.3,25.6z
	 M426.6,12.5v9h-43.3v-9h17V1.6l12,0.7c-0.1,0.8-0.7,1.3-2.2,1.6v8.6H426.6z M419.5,40.9c-0.3,0.8-1,1.2-2.2,1.2
	c-1.3,4.5-2.8,8.9-4.8,12.9c3.3,3.9,6.1,7.6,7.9,10.9l-8.3,6.5c-1.2-2.3-2.9-5.1-5-8c-4.6,6.6-10.3,12.1-17.2,16
	c-1.3-2.1-4.5-5.8-6.5-7.6c7.1-3.7,12.9-9.4,17.2-16.5c-3.4-3.9-7-7.6-10.4-10.9l7.5-5.7c2.4,2.2,4.9,4.6,7.5,7.1
	c1-2.8,1.9-5.6,2.6-8.6L419.5,40.9z M462.4,26.2h-5c-1.8,12.6-4.5,23.1-9.1,31.9c3.7,5.9,8.5,10.8,14.4,14.1
	c-2.2,1.9-5.3,5.8-6.7,8.5c-5.6-3.4-10.1-8-13.7-13.6c-4.7,5.6-10.6,10.1-18.2,13.5c-0.9-2.3-3.4-6.5-5-8.5
	c7.9-3.3,13.7-8,18.1-14.4c-2.2-5-3.9-10.6-5.4-16.6c-1.1,2-2.3,3.9-3.5,5.5c-1.5-1.9-4.8-5.3-6.9-7c0.8-1.1,1.6-2.3,2.3-3.7l-7,3.9
	c-1.3-3.7-4.9-9.4-8.2-13.6l7.5-4.1c3.3,3.7,6.8,8.5,8.5,12.3c4.4-8.5,7.2-20.8,8.9-33.1l11.6,2.3C444.6,4.5,444,5,442.7,5
	c-0.7,4-1.4,8-2.3,11.9h22V26.2z M437.9,26.2l-0.3,0.6c1.3,7.1,2.8,13.8,5.1,19.9c2.3-5.9,3.8-12.7,4.8-20.4H437.9z M488.5,29.8
	l5.5,1.6c-2.1,11-3.1,22-6.5,29.9c14.6,11.2,40.2,6.9,59.3,7.4c-1.6,2.3-3.3,7-3.9,9.8c-17.9-0.4-46.2,2.7-59.5-8.5
	c-2.6,4.4-5.8,8.1-9.4,10.9c-1.5-2-5.4-5.5-7.5-6.8c4-2.8,7.3-6.5,9.9-11.3c-3.1-4.3-5.8-9.6-8-16.4l7.9-2.8
	c1.2,3.7,2.5,6.9,4.1,9.6c1.3-4.2,2.3-9,3-14.2h-5.8l-1.1,2.4l-9.1-2.3c3.7-7.4,7.8-16.6,10.9-24h-11.1V6.2c1.1,0,17.9,0.2,18.4-0.3
	c0,0,5.8,2.1,5.8,2.1c-3,6.2-5.9,13.5-9.8,22C483,30,487.4,30.1,488.5,29.8z M512.2,18.7v-3.4h-14.8V7.6h14.8V1.3l12,0.7
	c-0.1,0.8-0.7,1.3-2.2,1.6v4h16.9v11.1h7v7.7h-7v11.1H522V41h18.3v7.3H522v3.6h22v8h-22v7h-9.8v-7h-20.1v-8h20.1v-3.6h-16.4V41h16.4
	v-3.5H497v-7.6h15.2v-3.5h-21.3v-7.7H512.2z M529,15.2h-7v3.4h7V15.2z M529,29.9v-3.5h-7v3.5H529z M628.7,60.9H602
	c7.3,4.2,18.1,7.5,28.3,8.9c-2.2,2.1-5,6-6.5,8.5c-10.2-2.3-20.8-6.9-28.6-13.1v15.2h-9.8V65.2c-7.8,6.1-18.3,11-28.7,13.4
	c-1.4-2.4-4.2-6.2-6.2-8.2c10-1.7,20.3-5.1,27.5-9.5h-25.9V53h33.3v-2.2c-0.5,0.3-1,0.4-1.6,0.7c-1.1-1.7-4.4-4.9-6.3-6.3
	c-8,1.3-15.8,2.6-21.3,3.4c-0.1,0.7-0.6,1.1-1.3,1.3l-3-8.9c3.5-0.3,8-0.8,12.9-1.3v-8.9h-10.6v-7h30.3v7h-10.6v8l10.6-1.3l0.2,3.2
	c5.1-4.4,3.1-11.7,3.5-17.3h30.9c0.5,1.2-1.1,18.9,1,17.8c4.3,0,2.7-1.1,3.4-7.8c1.5,1.3,4.4,2.8,6.5,3.5
	c-0.7,8.3-0.9,12.1-8.4,12.1c-8.1,0.8-12.1-1.9-11.9-7.8l-4.8,4.4c-1.7-2.3-5.1-5.4-8.2-7.9c-0.8,3.2-2.3,6.3-5.2,8.9l5.7,0.3
	c-0.1,0.8-0.8,1.3-2.2,1.5V53h33.4V60.9z M570.4,23c-0.6-2.1-2.1-5.1-3.6-7.7h-1.7c-2.1,2.8-4.4,5.4-6.6,7.4c-1.9-1.6-5.4-3.9-7.5-5
	c4.8-3.9,9.5-10.6,12.1-16.8l10.6,3.5c-0.4,0.7-1.2,0.9-2.1,0.8l-1.3,2.3h18.9v6.1c3.4-3.7,6.3-8.3,8-12.7L608.1,4
	c-0.3,0.8-1.1,1-2.1,0.9l-1.3,2.5h24.6v7.9h-14.8c1.3,1.8,2.5,3.7,3.2,5.2l-8.5,2.4c-0.8-2-2.7-5-4.6-7.6h-5.1
	c-1.9,2.5-4.1,4.7-6.2,6.5c-2.1-1.4-5.8-3.3-8.3-4.4c0.8-0.6,1.7-1.3,2.5-2.1h-11.6c1.1,1.9,2.1,3.9,2.7,5.4L570.4,23z M609.9,30
	h-12.3c0,3.2,0,3.9-0.3,5.6l4.3-3.7c2.8,1.9,6,4.4,8.3,6.6V30z M663.3,13h5.2v27.4H695v4.9h-26.5v27.6h-5.2V45.3h-26.5v-4.9h26.5V13
	z M770.9,66.7h-11.3c8,2.5,16.1,5.4,21.4,7.5l-8.9,6.4c-5.6-2.7-15.3-6.5-24.6-9.6l4.9-4.4h-23l6.2,4.2c-6.8,3.2-17.2,7.7-26.7,9.9
	c-1.6-1.9-4.8-5-7-6.8c7.3-1.5,16.1-4.4,21.9-7.3h-11.1V38.8h23.5v-2.9h-33v-8.5H780v8.5h-33.9v2.9h24.8V66.7z M722.1,24.7V14.3
	h-14.6V6.8h14.6V1.5l12.1,0.7c-0.1,0.8-0.8,1.4-2.3,1.6v3h19.4V1.5l12.6,0.7c-0.1,0.8-0.8,1.4-2.3,1.6v3h14.4v7.5h-14.4v10.4H722.1z
	 M722.3,45.5v4h13.8v-4H722.3z M722.3,55.9V60h13.8v-4.1H722.3z M751.2,14.3h-19.4v3.8h19.4V14.3z M760.8,45.5h-14.7v4h14.7V45.5z
	 M760.8,60v-4.1h-14.7V60H760.8z M842.2,52.8l10.1,4.4c-0.4,0.6-1.3,0.9-2.3,0.8c-2,3.4-5.4,8.1-8.1,11.6H861v8.6h-71.5v-8.6H806
	c-1.3-3.9-4.2-9.5-7-13.7l7.5-3.1h-12.8v-8.6h25.7v-8.4h-15.6v-4.1c-4,2.9-8.3,5.7-12.7,8c-1.3-2.3-4.1-6-6.1-8
	c14.4-7.3,28.2-20.2,34.4-30.7l13.4,0.8c-0.3,0.8-1,1.6-2.2,1.7c8,11,22.4,21.6,35,27c-2.5,2.5-4.9,5.9-6.7,9c-4.3-2.3-8.6-5-12.8-8
	v4.4h-16.2v8.4h26.1v8.6H842.2z M819.4,52.8h-12.1c3.2,4.3,6.5,10,7.7,13.8l-6.8,2.9h11.2V52.8z M840.5,26.9
	c-6.3-5.1-11.8-10.6-15.6-15.8c-3.5,5.1-8.8,10.6-15,15.8H840.5z M833.6,67.1c2.8-3.8,6.2-9.8,8.1-14.3h-11.6v16.8h8.6L833.6,67.1z
	 M942.4,28.3l6.1,2.6c-0.2,0.6-0.7,1.1-1.1,1.4c-2.5,12.3-7,22.8-12.8,31.1c4.1,3.9,9,7,14.9,9.1c-2,1.8-4.9,5.6-6.2,8.1
	c-5.9-2.4-10.7-5.8-14.8-9.9c-3.8,3.9-8,7-12.6,9.6c-1.3-2.2-4.6-5.9-6.7-7.4c4.9-2.4,9.4-5.7,13.3-9.7C919.5,58.5,917,53,915,47
	c-1.8,13.9-5.3,25.6-11.6,33.6c-1.5-1.7-5.2-4.6-7.5-5.9c1.9-2.3,3.6-5.1,4.9-8.3l-5.1,1.8c-0.8-4-2.7-10.1-4.5-14.8l7.5-2.4
	c1.4,3.4,2.8,7.4,3.8,10.8c3.9-12,4.9-28.2,5.1-46.1h-6.6l0.2,0.1c-0.3,0.6-1.2,0.9-2.3,0.9c-3.9,6.4-9.7,14.8-15.2,21.5l8.7-0.1
	c-1-2.2-2-4.3-3.1-6.2l7.2-3c3.3,5.5,6.6,12.7,7.7,17.5l-7.8,3.4c-0.3-1.2-0.6-2.6-1.1-4l-4.4,0.3v34.5h-8.8V53.7
	c-0.4,0.4-0.9,0.6-1.7,0.5c-0.8,6.9-2.5,14.9-4.9,20c-1.8-1.2-5-2.7-7-3.5c2.1-4.6,3.4-12.6,4.1-19.7l9.5,2.2v-6.5
	c-3.6,0.2-7,0.3-9.6,0.5c-0.3,0.8-0.9,1.2-1.5,1.3l-2-10.1h5.8c1.4-1.8,2.8-3.6,4.2-5.6c-2.4-3.7-6.4-8-9.8-11.4l4.8-6.9l1.8,1.7
	c2.4-4.7,4.9-10.2,6.3-14.6l9.8,4c-0.3,0.5-1.1,0.8-2.3,0.8c-2,4.5-5.4,10.7-8.3,15.2c1,1.1,2,2.3,2.8,3.4c2.9-4.7,5.6-9.5,7.6-13.6
	l9,4.1V6.4c5.3,0.3,31.6-0.8,36.1,0.8c-1.2,6.2-2.4,13.1-4.1,21.4C934.1,28.5,941.5,28.7,942.4,28.3z M921.4,39.3
	c1.7-7.3,3.4-16.3,4.7-23.6H917c-0.2,14.6,5.1,30.1,11.5,40.3c3.5-5.2,6.3-11.3,8.3-18.3H931l-0.6,2.8L921.4,39.3z M1013.1,39.9
	c0.8,3.3,1.9,6.6,3.4,9.9c2.9-2.7,5.9-5.9,8-8.5l8.4,7.1c-0.4,0.5-1.7,0.6-2.4,0.4c-2.4,2.3-6.6,5.8-10.1,8.3
	c3.2,4.7,7.4,8.8,12.9,11.5c-1.9,1.8-4.9,5.7-6.2,8.2c-6.5-3.9-11-10-14.2-16.5c-0.7,11.7,4.6,21.5-15.2,20.4
	c-0.3-2.4-1.5-6-2.6-8.5c2.2-0.2,9,1.2,8.7-1.1c0,0,0-31.2,0-31.2h-17.9c0.8,2.1,1.6,4.1,2,5.8l4.8-3.9c3.4,2.9,7.7,7.1,9.6,10.1
	l-7,6.1c-1.7-3-5.6-7.4-9-10.5l-5.9,2.6c-0.3-1.3-0.7-2.7-1.2-4.2l-4.3,0.3v34.4h-8.8V53.5c-0.4,0.6-1.1,0.8-1.8,0.7
	c-0.8,6.9-2.5,14.9-4.9,20c-1.8-1.2-5-2.6-7-3.5c2.1-4.6,3.4-12.6,4.1-19.7l9.6,2.3v-6.5c-3.8,0.3-7.1,0.4-9.9,0.5
	c-0.3,0.8-0.9,1.2-1.5,1.3l-2-10.1h6c1.3-1.7,2.8-3.5,4.1-5.4c-2.4-3.7-6.4-8.2-9.9-11.5l4.9-6.9l1.8,1.7C962,11.6,964.5,6,966,1.6
	l9.8,4c-0.3,0.5-1.2,0.8-2.3,0.8c-2.1,4.6-5.5,10.9-8.5,15.5c1,1.2,2,2.3,2.8,3.4c2.9-4.8,5.7-9.6,7.7-13.8l9.5,4.3
	c-0.4,0.6-1.3,0.9-2.3,0.9c-3.9,6.5-9.7,14.8-15.2,21.5l8.6-0.1c-1-2.3-2.1-4.4-3.2-6.5l7.2-3c1.8,3.2,3.9,7,5.4,10.6v-8h26.7
	l0.8-3.9h-14.8l-0.6,2l-9.4-1.4c2.3-7,5.1-17.9,6.8-26.4l11.2,1.2c-0.2,0.8-0.8,1.3-2.3,1.4l-0.8,3.7c1.3,0,17.1,0.2,17.8-0.3
	c0,0,4.9,1,4.9,1c-0.6,4-2.6,14.4-4.4,22.7h10.6v8.5H1013.1z M982.3,51c1.9,4.5,3.9,10.2,4.9,14.1c-2.4,0.8-4.9,1.8-7.9,2.8
	c-0.7-3.9-2.7-9.9-4.4-14.5L982.3,51z M1003.8,64.1c-5.3,4.2-10.8,8.5-14.6,11.1c0.1,0.8-0.3,1.5-0.8,1.9l-5.4-9.5
	c4.4-2.4,11.2-6.7,17.8-11L1003.8,64.1z M1000.3,19.8h14.2l0.8-4.4h-13.8L1000.3,19.8z M1058.5,29.8l5.5,1.6
	c-2.1,11-3.1,22-6.5,29.9c14.6,11.2,40.2,6.9,59.3,7.4c-1.6,2.3-3.3,7-3.9,9.8c-17.9-0.4-46.2,2.7-59.5-8.5
	c-2.6,4.4-5.8,8.1-9.4,10.9c-1.5-2-5.4-5.5-7.5-6.8c4-2.8,7.3-6.5,9.9-11.3c-3.1-4.3-5.8-9.6-8-16.4l7.9-2.8
	c1.2,3.7,2.5,6.9,4.1,9.6c1.3-4.2,2.3-9,3-14.2h-5.8l-1.1,2.4l-9.1-2.3c3.7-7.4,7.8-16.6,10.9-24h-11.1V6.2c1.1,0,17.9,0.2,18.4-0.3
	c0,0,5.8,2.1,5.8,2.1c-3,6.2-5.9,13.5-9.8,22C1053,30,1057.3,30.1,1058.5,29.8z M1082.1,18.7v-3.4h-14.8V7.6h14.8V1.3l12,0.7
	c-0.1,0.8-0.7,1.3-2.2,1.6v4h16.9v11.1h7v7.7h-7v11.1h-16.9V41h18.3v7.3h-18.3v3.6h22v8h-22v7h-9.8v-7H1062v-8h20.1v-3.6h-16.4V41
	h16.4v-3.5h-15.2v-7.6h15.2v-3.5h-21.3v-7.7H1082.1z M1099,15.2h-7v3.4h7V15.2z M1099,29.9v-3.5h-7v3.5H1099z M1198.7,60.9h-26.7
	c7.3,4.2,18.1,7.5,28.3,8.9c-2.2,2.1-5,6-6.5,8.5c-10.2-2.3-20.8-6.9-28.6-13.1v15.2h-9.8V65.2c-7.8,6.1-18.3,11-28.7,13.4
	c-1.4-2.4-4.2-6.2-6.2-8.2c10-1.7,20.3-5.1,27.5-9.5h-25.9V53h33.3v-2.2c-0.5,0.3-1,0.4-1.6,0.7c-1.1-1.7-4.4-4.9-6.3-6.3
	c-8,1.3-15.8,2.6-21.3,3.4c-0.1,0.7-0.6,1.1-1.3,1.3l-3-8.9c3.5-0.3,8-0.8,12.9-1.3v-8.9h-10.6v-7h30.3v7H1144v8l10.6-1.3l0.2,3.2
	c5.1-4.4,3.1-11.7,3.5-17.3h30.9c0.5,1.2-1.1,18.9,1,17.8c4.3,0,2.7-1.1,3.4-7.8c1.5,1.3,4.4,2.8,6.5,3.5
	c-0.7,8.3-0.9,12.1-8.4,12.1c-8.1,0.8-12.1-1.9-11.9-7.8l-4.8,4.4c-1.7-2.3-5.1-5.4-8.2-7.9c-0.8,3.2-2.3,6.3-5.2,8.9l5.7,0.3
	c-0.1,0.8-0.8,1.3-2.2,1.5V53h33.4V60.9z M1140.3,23c-0.6-2.1-2.1-5.1-3.6-7.7h-1.7c-2.1,2.8-4.4,5.4-6.6,7.4
	c-1.9-1.6-5.4-3.9-7.5-5c4.8-3.9,9.5-10.6,12.1-16.8l10.6,3.5c-0.4,0.7-1.2,0.9-2.1,0.8l-1.3,2.3h18.9v6.1c3.4-3.7,6.3-8.3,8-12.7
	l10.8,3.2c-0.3,0.8-1.1,1-2.1,0.9l-1.3,2.5h24.6v7.9h-14.8c1.3,1.8,2.5,3.7,3.2,5.2l-8.5,2.4c-0.8-2-2.7-5-4.6-7.6h-5.1
	c-1.9,2.5-4.1,4.7-6.2,6.5c-2.1-1.4-5.8-3.3-8.3-4.4c0.8-0.6,1.7-1.3,2.5-2.1h-11.6c1.1,1.9,2.1,3.9,2.7,5.4L1140.3,23z M1179.8,30
	h-12.3c0,3.2,0,3.9-0.3,5.6l4.3-3.7c2.8,1.9,6,4.4,8.3,6.6V30z"/>
</svg>
