<svg xmlns="http://www.w3.org/2000/svg" viewBox="0 0 678.86 114.17"><defs><style>.cls-1{fill:#182c80;}</style></defs><g id="圖層_2" data-name="圖層 2"><g id="圖文"><path class="cls-1" d="M23.61,11.35c1.53.46,2.32,1,2.32,1.48s-.45.91-1.3,1-1.42.28-1.53.51a16.25,16.25,0,0,1-2.1,3.8A12.2,12.2,0,0,1,19,20.38h2.16a23,23,0,0,0,1.7-2c1.25-1.47,2.05-2.21,2.27-2.21.63,0,1.65.74,3,2.15s2.1,2.39,2.1,2.73c0,.57-.34.85-.91.85H18.21v7.32h2a22,22,0,0,0,1.76-2c1.25-1.59,2-2.38,2.21-2.38.69,0,1.71.79,3.18,2.32s2.16,2.44,2.16,2.78a.81.81,0,0,1-.91.91H18.21V33a24.25,24.25,0,0,1,6.59,2.21,3.88,3.88,0,0,1,2,3.12,4.19,4.19,0,0,1-1.36,3,3.09,3.09,0,0,1-2.38,1c-1,0-1.76-.79-2.44-2.38a18.16,18.16,0,0,0-2.45-4.14v14c0,.74-1,1.3-3,1.64a14.7,14.7,0,0,1-1.88.17c-1.08,0-1.59-.62-1.59-1.81A66.93,66.93,0,0,0,12.2,41v-.51a24.56,24.56,0,0,1-4.26,3.69,23.69,23.69,0,0,1-5.05,3.07L2,46.77c4.71-5.56,8-10.84,9.82-16H10.44c-3.24,0-5.51.06-6.87.17l-.91-2.21a46,46,0,0,0,7.78.45H12.2V21.91H9.76c-3.24,0-5.51.11-6.87.23L2,19.92a44.52,44.52,0,0,0,7.72.46h7.6c.29-1.71.57-3.24.8-4.71s.34-3.47.51-5.74C20.37,10.44,22,10.9,23.61,11.35Zm-4.88-10c1.42.06,2.15.4,2.15,1.08,0,.23-.45.57-1.3,1s-1.37.9-1.37,1.47V7.72h1.31a16.39,16.39,0,0,0,1.76-2c1.25-1.59,2-2.39,2.21-2.39.68,0,1.71.8,3.18,2.33s2.16,2.44,2.16,2.78c0,.63-.28.91-.85.91H10.67c-3.3,0-5.57.11-6.87.23L2.89,7.27a46,46,0,0,0,7.78.45H12.2V5.05A26.33,26.33,0,0,0,11.74.4C14.13.62,16.46,1,18.73,1.36Zm-6,10.9c1.13.91,1.7,1.65,1.7,2.33a5.64,5.64,0,0,1-1,3.4,3.82,3.82,0,0,1-2.78,1.25,1.31,1.31,0,0,1-1.14-.4c-.28-.17-.51-1-.74-2.55a19,19,0,0,0-1.7-5.68l.68-.68A22.9,22.9,0,0,1,12.71,12.26ZM37.06,8V19.07h6.41s.63-.62,1.76-1.87c1.48-1.7,2.44-2.61,2.9-2.61s1.7,1,3.8,2.89c1.31,1.19,2,1.93,2,2.22,0,.62-.4.9-1.14.9h-4V49.67c0,.68-1,1.25-3,1.59a18.54,18.54,0,0,1-1.93.17c-1,0-1.53-.63-1.53-1.76a87.55,87.55,0,0,0,.39-8.92V20.6H37.06v.69a93.44,93.44,0,0,1-.91,13.51,30.13,30.13,0,0,1-3.8,9.7,36,36,0,0,1-6.42,7.15l-1.07-.45a41.31,41.31,0,0,0,4.48-11c1-4.2,1.48-10.5,1.48-18.9s-.23-14.37-.63-18A48.75,48.75,0,0,1,37,5.85,24.09,24.09,0,0,0,41.15,4,22,22,0,0,0,46.37.17c1.87,1.48,3.4,2.55,4.54,3.35,1.7,1.25,2.55,2.16,2.55,2.67s-.34.68-.9.68l-2.9-.23A108.32,108.32,0,0,1,37.06,8Z"/><path class="cls-1" d="M74.46,5.28H94.67c.74-.74,1.42-1.48,2-2.16.91-1,1.53-1.59,2-1.59.68,0,2,.68,3.86,1.93,2.15,1.71,3.23,2.84,3.23,3.41s-.56,1.08-1.59,1.7a2.85,2.85,0,0,0-1.3,2V37.24l.45,12c0,.8-1.08,1.37-3.23,1.76-1,.12-1.65.23-2.1.23-1.2,0-1.76-.68-1.76-2V46.32H74.06v3.12c0,.68-1,1.25-3,1.59-.9.11-1.53.17-1.87.17-1.36,0-2-.62-2-1.76.29-4.43.46-8.34.46-11.75V13.28A103.33,103.33,0,0,0,67,2.61,43,43,0,0,1,74.46,5.28ZM96.26,23.9v-17H74.06v17Zm0,20.89V25.49H74.06v19.3Z"/><path class="cls-1" d="M125.94,11.52h12.43V10.39c0-4-.17-7.44-.46-10.39,1.82.17,4.09.51,6.87,1,1.93.23,2.9.69,2.9,1.25s-.63,1-1.82,1.37c-.91.22-1.3.68-1.3,1.3v6.64h11.12A24.88,24.88,0,0,0,157.78,9c1.53-1.88,2.44-2.84,2.78-2.84.74,0,1.93.9,3.64,2.66s2.55,3,2.55,3.3c0,.62-.4.91-1.14.91H146c3.23,6.13,6.58,10.78,10.1,14a34.66,34.66,0,0,0,11.58,6.87l-.23,1.36a6.12,6.12,0,0,0-3.92,3.92c-.45,1.53-1,2.27-1.64,2.27s-2.27-1.37-4.71-4.09a44.38,44.38,0,0,1-7.27-10.44,70.4,70.4,0,0,1-5.33-12.44v23h.22a17.18,17.18,0,0,0,1.93-2.38c1.37-1.82,2.22-2.73,2.5-2.73.74,0,1.93.91,3.58,2.62s2.44,2.78,2.44,3.12c0,.62-.4.91-1.14.91h-9.53v1.13c0,3.41.05,6.76.22,10.16,0,.68-1,1.25-3,1.65a16.52,16.52,0,0,1-1.87.17c-1.36,0-2-.63-2-1.82.29-3.69.46-7.09.46-10.16V39h-2.9c-3.23,0-5.5.11-6.86.22L127.7,37a45.83,45.83,0,0,0,7.77.45h2.9v-17a64.7,64.7,0,0,1-8.52,11.64A49,49,0,0,1,116,42.74l-.23-.62a61.6,61.6,0,0,0,11.13-12.89,73.81,73.81,0,0,0,8.74-16.17h-10.5a54.29,54.29,0,0,0-7.55.45l-.91-2.67A68.84,68.84,0,0,0,125.94,11.52Z"/><path class="cls-1" d="M181.16,6.19h2.22c.62-.8,1.19-1.54,1.75-2.22.8-1,1.42-1.53,1.76-1.53.63,0,1.76.57,3.47,1.7,2,1.59,3,2.61,3,3.13s-.46,1-1.25,1.58a2.46,2.46,0,0,0-1,1.76V31.22l.4,10.9c0,.74-1,1.25-3,1.59a18.76,18.76,0,0,1-1.93.17c-1,0-1.54-.57-1.54-1.76V39.9h-4.88v4.43c0,.74-.9,1.25-2.72,1.59a14.64,14.64,0,0,1-1.7.17c-1.37,0-2-.57-2-1.76.28-4,.45-7.6.45-10.67V13.28c0-2.67-.17-5.9-.45-9.76A37,37,0,0,1,181.16,6.19Zm4,16V7.72h-4.88V22.14Zm0,16.17V23.73h-4.88V38.31Zm14.65-9.76h9.76V27.47c0-1.08-.17-3-.45-5.79,3.12.46,5.16.85,6.07,1.08,2.44.46,3.69,1,3.69,1.59s-.51,1-1.53,1.36-1.59.74-1.59,1.31v1.53h1.14A7,7,0,0,0,218.23,27c1-1.14,1.53-1.76,1.7-1.76.57,0,1.36.62,2.5,1.82a8.41,8.41,0,0,1,1.76,2.15c0,.63-.23.91-.68.91h-7.78V45c0,2.33-.79,4-2.27,4.94a9.94,9.94,0,0,1-5.28,1.7c-.57,0-.91-.56-1-1.59-.34-1.7-2.33-3.4-6.07-5.05l.22-1.13a52.91,52.91,0,0,0,6.87.68c.91,0,1.36-.29,1.36-.91V30.14h-9.76c-3.29,0-5.56.11-6.87.23L192,28.15A53.31,53.31,0,0,0,199.78,28.55Zm1.08-19.24h2.44V5.51A39.7,39.7,0,0,0,202.9.4c2.56.28,5,.62,7.44,1,1.53.11,2.32.51,2.32,1.19,0,.28-.51.63-1.41,1s-1.48.85-1.48,1.42V9.31H214a18.7,18.7,0,0,0,1.93-2.39c1.36-1.81,2.21-2.72,2.5-2.72.74,0,1.93.91,3.57,2.61s2.44,2.78,2.44,3.12c0,.63-.39.91-1.13.91H209.77v8.63H212a17.73,17.73,0,0,0,1.93-2.39c1.37-1.81,2.22-2.72,2.5-2.72.74,0,1.93.91,3.52,2.61s2.44,2.84,2.44,3.18c0,.62-.4.91-1.08.91H203.53c-3.24,0-5.51.11-6.87.23l-.85-2.22a48.93,48.93,0,0,0,7.49.4V10.84h-2.44c-3.24,0-5.51.12-6.87.23l-.85-2.22A43.53,43.53,0,0,0,200.86,9.31Zm2,25.31c1.48,1,2.22,1.88,2.22,2.62a5.36,5.36,0,0,1-.91,3.18,3.59,3.59,0,0,1-2.67,1.24,3.24,3.24,0,0,1-1.82-.39c-.45-.23-.79-1.08-1.08-2.67A13,13,0,0,0,196,32.81l.63-.68A31.66,31.66,0,0,1,202.9,34.62Z"/><path class="cls-1" d="M244.05,8.12c1.81,1.36,2.72,2.61,2.72,3.63A5,5,0,0,1,245.64,15a2.94,2.94,0,0,1-2.39,1.36,4.29,4.29,0,0,1-2.1-.51c-.45-.34-1-1.53-1.7-3.57-.79-2.33-2.84-5.11-6.19-8.35l.85-.68A48.45,48.45,0,0,1,244.05,8.12Zm14.87-6.87c1.48.06,2.27.45,2.27,1.19,0,.23-.45.57-1.36,1s-1.53.9-1.53,1.47V18.62h11.12c.51-.63.91-1.14,1.25-1.59,1.08-1.14,1.82-1.76,2.27-1.76s1.82.68,3.75,2c1.76,1.36,2.66,2.33,2.66,2.84s-.45,1-1.24,1.59c-1.08.79-1.59,1.48-1.59,2.16V46.09c0,1.87-1.08,3.35-3.24,4.37A11,11,0,0,1,269,51.65c-.51,0-1-.73-1.31-2.15-.51-1.71-2.5-3.12-6-4.32l.23-1.08a47.4,47.4,0,0,0,7.1.69c.85,0,1.3-.57,1.3-1.82V20.15H240.13V50.29c0,.68-1,1.25-2.84,1.65a17,17,0,0,1-1.81.17,1.59,1.59,0,0,1-1.76-1.82c.11-2,.22-3.91.22-6V23.9a78.37,78.37,0,0,0-.45-8.18,51.71,51.71,0,0,1,8.12,2.9h10.27V5.28a32.61,32.61,0,0,0-.45-5.11C254,.45,256.48.79,258.92,1.25Zm-6.7,25.09h5.39A22.65,22.65,0,0,1,259.83,24a2,2,0,0,1,1.36-.9,10.66,10.66,0,0,1,3,1.41C266,25.71,267,26.57,267,27s-.4,1-1.08,1.53a2.11,2.11,0,0,0-.74,1.59v3.29c0,1.76.06,4.15.23,7.1,0,.74-1,1.3-2.84,1.64a14.66,14.66,0,0,1-1.81.17c-1,0-1.54-.56-1.54-1.81V39.45H251v2c0,.73-.91,1.25-2.66,1.59a15.35,15.35,0,0,1-1.76.17,1.54,1.54,0,0,1-1.76-1.76c.11-1.93.22-3.86.22-5.79v-4.2a73,73,0,0,0-.45-7.95A50.62,50.62,0,0,1,252.22,26.34Zm7,11.58v-10H251v10ZM274.7,5c2.21.79,3.35,1.53,3.35,2.27,0,.45-.51.79-1.53,1s-1.65.51-1.82.85a40.13,40.13,0,0,1-10.61,7.55L263,15.72a30,30,0,0,0,6.47-12.88C271.29,3.52,273.05,4.26,274.7,5Z"/><path class="cls-1" d="M302.05,6.36c1.88.56,2.84,1.19,2.84,1.81s-.57,1-1.59,1.14-1.64.4-1.76.62a41.26,41.26,0,0,1-1.76,4h9.54V9.54A55.94,55.94,0,0,0,308.64.4c1.76.22,4,.62,6.87,1.08,2.21.34,3.34.73,3.34,1.13,0,.68-.62,1.19-1.87,1.65a1.53,1.53,0,0,0-1.25,1.47V14h7.1a24.46,24.46,0,0,0,1.93-2.1c1.59-2,2.67-3,3.18-3s1.87,1.08,4.25,3.24c1.42,1.36,2.16,2.16,2.16,2.5,0,.62-.45.91-1.3.91H315.73V29.91h5.57a29.42,29.42,0,0,0,2-2.49c1.47-1.88,2.33-2.84,2.61-2.84.74,0,2,.91,3.69,2.72s2.5,2.9,2.5,3.29c0,.57-.4.86-1.14.86H315.73v16.4h10.45c.11-.11.85-1,2.21-2.55,1.59-1.93,2.56-3,2.84-3,.79,0,2.1,1,3.8,2.79s2.67,2.95,2.67,3.4-.4.91-1.14.91H294.9a63.65,63.65,0,0,0-6.87.23l-.91-2.22a62.93,62.93,0,0,0,7.78.4h14.42V31.45h-8.46c-3.23,0-5.5.11-6.87.22l-.91-2.21a46,46,0,0,0,7.78.45h8.46V15.5H299a33.25,33.25,0,0,1-2.89,4.71,51.47,51.47,0,0,1-7.72,8.34l-.85-.85A71.29,71.29,0,0,0,292.86,17,73.66,73.66,0,0,0,296,4.65C298,5.22,300.07,5.79,302.05,6.36Z"/><path class="cls-1" d="M351,17.77a4.64,4.64,0,0,1,1.76,3.52,4.75,4.75,0,0,1-1.42,3.12,3.31,3.31,0,0,1-2.56,1.08c-.79,0-1.42-.86-2-2.56A20.17,20.17,0,0,0,343,16l.68-1.13A23.17,23.17,0,0,1,351,17.77Zm9.08-4.71Q357.26,24.63,355.8,31a53.41,53.41,0,0,0-1.25,8.69,27.13,27.13,0,0,0,.12,3.06,30.11,30.11,0,0,1,.73,5.34,2.18,2.18,0,0,1-.68,1.87,2.83,2.83,0,0,1-2.21.8,5.12,5.12,0,0,1-3.07-.8,2.21,2.21,0,0,1-.68-1.87,13.22,13.22,0,0,1,.51-2.95,19.8,19.8,0,0,0,.17-2.39,5.71,5.71,0,0,0-.68-3c-.45-.73-1.93-1.42-4.42-2l.22-1.36a14.66,14.66,0,0,0,4.88-.51,4.33,4.33,0,0,0,1.76-2.56L359,12.83ZM356,4a4.4,4.4,0,0,1,1.87,3.46,4.2,4.2,0,0,1-1.36,3,3.09,3.09,0,0,1-2.38,1c-.85,0-1.59-.85-2.16-2.55a21,21,0,0,0-4.09-7l.46-.91A24.9,24.9,0,0,1,356,4ZM379.36,8V19.07h4.2a15.7,15.7,0,0,0,2-2.49c1.48-1.88,2.33-2.84,2.61-2.84.8,0,2,.9,3.69,2.66s2.56,2.9,2.56,3.3c0,.62-.4.9-1.14.9h-14V31.9h3.12a25.84,25.84,0,0,1,2.38-2.55,2.33,2.33,0,0,1,1.59-1A10.6,10.6,0,0,1,389.69,30c1.93,1.36,2.95,2.33,2.95,2.84s-.4,1.08-1.13,1.59a2.45,2.45,0,0,0-.86,1.7v6.47c0,1.82.06,4.32.23,7.49,0,.69-1,1.25-3.07,1.65a18.61,18.61,0,0,1-2,.17c-1,0-1.53-.62-1.53-1.82V47.85H368.52v2.44c0,.68-1,1.25-3,1.65-.9.11-1.58.17-1.93.17a1.6,1.6,0,0,1-1.81-1.82c.11-2,.23-4.09.23-6.19V37.24c0-2.9-.18-5.74-.4-8.46a61.31,61.31,0,0,1,8.29,3.12h3V20.6h-5.33c-3.24,0-5.51.12-6.87.23l-.91-2.21a46,46,0,0,0,7.78.45h5.33V8.8c-3.91.45-7.6.79-11.12.91l-.4-1.31A72.93,72.93,0,0,0,375,4.88,40.37,40.37,0,0,0,384.69.17c1.82,1.36,3.24,2.44,4.37,3.24,1.65,1.19,2.5,2,2.5,2.55s-.34.68-.91.68l-2.89-.23C384.81,7,382,7.55,379.36,8Zm4.88,38.37V33.43H368.52V46.32Z"/><path class="cls-1" d="M428.9,29.57A4.6,4.6,0,0,1,425.5,31a4.85,4.85,0,0,1-4.83-4.82,4.85,4.85,0,0,1,4.83-4.83,4.85,4.85,0,0,1,4.82,4.83A4.64,4.64,0,0,1,428.9,29.57Z"/><path class="cls-1" d="M463.58,5.51V4.43a20.24,20.24,0,0,0-.4-4c1.37.22,3.07.45,5.11.79,1.87.23,2.84.57,2.84,1s-.51.91-1.42,1.25c-.68.23-1,.63-1,1.19v.86h5.11V4.43a16.37,16.37,0,0,0-.46-4c1.42.22,3.13.45,5.17.79,1.87.23,2.84.57,2.84,1s-.51.91-1.48,1.25a1.19,1.19,0,0,0-1,1.19v.86H480a9.85,9.85,0,0,0,1.48-1.65c1-1.25,1.65-1.87,1.87-1.87.57,0,1.42.62,2.61,1.87a8.76,8.76,0,0,1,1.82,2.33c0,.62-.28.9-.85.9h-8V9.54c0,.62-.8,1.07-2.27,1.36a13.5,13.5,0,0,1-1.48.17c-.91,0-1.36-.29-1.36-.91V7.09h-5.11V9.31c0,.4-.29.74-.85,1a8.56,8.56,0,0,1,1.81,1c1.25.85,1.93,1.41,1.93,1.76a1,1,0,0,1-.51.79,1.69,1.69,0,0,0-.62.74v5.79c0,.45-.63.79-1.88,1a10.46,10.46,0,0,1-1.19.06c-.79,0-1.13-.29-1.13-.86v-.45H462.5V21c1.36.34,2.61.68,3.8,1s1.93.85,1.93,1.3-.34.68-1,.8a2.31,2.31,0,0,0-1.19.51c-.45.85-.91,1.64-1.36,2.33l.68.34h5.28c.34-.8.68-1.54.91-2.22.22-.91.51-2,.73-3.35,1.42.46,2.84.85,4.21,1.2s2,.79,2,1.24-.34.74-1,.86-1.14.28-1.19.51a8.14,8.14,0,0,1-2.22,1.7.16.16,0,0,1-.11.06h4.77s.45-.46,1.3-1.37c1.14-1.3,1.93-2,2.27-2s1.37.79,3.07,2.27c1,.91,1.59,1.53,1.59,1.76,0,.57-.34.85-.91.85h-9.76v4.48h1.3a13.28,13.28,0,0,0,1.25-1.3c1.08-1.2,1.76-1.82,2.1-1.82s1.19.74,2.78,2.1c.91.91,1.42,1.42,1.42,1.65,0,.62-.22.91-.62.91h-8.23v4.65H478a16.57,16.57,0,0,0,1.25-1.31c1.07-1.19,1.76-1.81,2.1-1.81s1.19.74,2.78,2.16c.91.85,1.42,1.41,1.42,1.64,0,.57-.23.85-.68.85h-8.63v4.66h1.3s.46-.46,1.25-1.37c1.08-1.24,1.76-1.93,2.1-1.93s1.31.74,2.95,2.22c1,1,1.48,1.53,1.48,1.76,0,.57-.28.91-.85.91H465.62v2.83c0,.63-.9,1.08-2.61,1.42a11.21,11.21,0,0,1-1.64.17c-1.2,0-1.76-.56-1.76-1.59a62.55,62.55,0,0,0,.45-7.32V31.84a25.22,25.22,0,0,1-3.12,2.27l-.68-.68a31.05,31.05,0,0,0,3.63-5.84,30.86,30.86,0,0,0,2-6.13,12.51,12.51,0,0,1-1.31.34,5.81,5.81,0,0,1-1.19.11.94.94,0,0,1-1.08-1.08V14.19c0-.85-.11-1.87-.23-3.12a37.39,37.39,0,0,1,4.32,1.53h2.78c.45-.68.85-1.25,1.19-1.76.06-.11.12-.17.17-.17h-.11a11,11,0,0,1-1.48.17c-.91,0-1.36-.28-1.36-.91V7.09c-3,0-5.17.06-6.41.18l-.91-2.22A41.52,41.52,0,0,0,463.58,5.51Zm2.67,13.11V14.19H462.5v4.43Zm4.65,10.16h-5.28v4.48h5.28Zm0,6h-5.28v4.65h5.28Zm0,6.18h-5.28v4.66h5.28Zm5.17-28.38h3.52c.45-.62.85-1.13,1.19-1.59a1.25,1.25,0,0,1,1-.62,5.89,5.89,0,0,1,2.27,1.13c1.25.85,1.93,1.42,1.93,1.76a1,1,0,0,1-.51.8,1.38,1.38,0,0,0-.62.74v5.56c0,.45-.68.79-2,1a13,13,0,0,1-1.31.06c-.79,0-1.13-.34-1.13-1.08v-.23h-3.75v.45c0,.46-.68.8-1.93,1a5.81,5.81,0,0,1-1.19.11.94.94,0,0,1-1.08-1.08V14.36c0-.79-.11-1.82-.23-3.06A27.26,27.26,0,0,1,476.07,12.6Zm4.37,6V14.19h-3.75v4.43Zm14.08-17c1.7.57,2.55,1.13,2.55,1.7s-.45.91-1.36,1-1.42.34-1.53.57c-.63,2.5-1.31,4.71-2,6.64H500l1.58-1.59c.68-.68,1.2-1.08,1.54-1.08s1.47.74,3.18,2.16c1.53,1.31,2.32,2.22,2.32,2.73s-.45.62-1.25.68a3.53,3.53,0,0,0-1.59.17,67.2,67.2,0,0,1-5.33,9.31l-.91-.4c.23-1.59.4-3.18.57-4.77l-.11.06c-.91.34-1.31.74-1.31,1.13-.34,4.43-.68,8.12-1.14,11.13a28.81,28.81,0,0,0,2.22,5.45,22.26,22.26,0,0,0,3.35,5,23.78,23.78,0,0,0,5.28,4.15l-.4,1.59a4.92,4.92,0,0,0-4,2.55c-.68,1.25-1.24,1.87-1.58,1.87s-1.14-1-2.22-2.89A29.58,29.58,0,0,1,497,41.15c-.34-1.3-.68-2.61-.91-3.91a1.7,1.7,0,0,0-.11.39,22.88,22.88,0,0,1-5.11,8.63,27.35,27.35,0,0,1-8.23,5.62l-.4-.91a32.09,32.09,0,0,0,5.57-7.15,31.1,31.1,0,0,0,3.46-9.31,66.77,66.77,0,0,0,1.14-12.15c0-2.83-.12-5.16-.23-7.09,1.76.23,3.52.57,5.22.91a15.12,15.12,0,0,1,2.84.68c.11-1.25.28-2.56.4-3.8h-9c-.34.85-.68,1.58-1,2.27a51.69,51.69,0,0,1-5.11,8.57l-.91-.85a86.52,86.52,0,0,0,2.78-10.68A122.22,122.22,0,0,0,489.12,0C490.94.57,492.76,1.08,494.52,1.59Z"/><path class="cls-1" d="M518.58,27.25c.68-.63,1.24-1.25,1.76-1.82.79-.85,1.41-1.31,1.81-1.31.57,0,1.54.69,2.9,1.93,1.59,1.37,2.38,2.16,2.38,2.5,0,.57-.4,1-1.19,1.48S525,31.16,525,31.67v10a9.43,9.43,0,0,0,6.36,3.41,154.8,154.8,0,0,0,17,.57,142.5,142.5,0,0,0,16.8-1.08l.23,1.08c-1.42.34-2.61,1.64-3.52,4-.17,1-.45,1.53-.91,1.53H546.56c-3.24,0-7.38-.23-12.43-.62-5-1-8.52-3.3-10.67-6.93-.17,0-.34.17-.51.45a30.18,30.18,0,0,1-4.6,6c0,1.48-.29,2.22-.85,2.22-.34,0-.74-.46-1.14-1.25a64.92,64.92,0,0,1-3.12-6.7c2.61-.4,4.6-.79,6-1.13V28.78a22.61,22.61,0,0,0-5.11.45l-.91-2.66A19.8,19.8,0,0,0,518.58,27.25Zm4-12.43c1.36.85,2,1.81,2,2.89a4.42,4.42,0,0,1-1.36,3,3.08,3.08,0,0,1-2.44,1c-.91,0-1.7-.73-2.33-2.21a18.2,18.2,0,0,0-4.54-6.19l.46-.91A33.09,33.09,0,0,1,522.55,14.82ZM525.1,4.65c1.25.8,1.93,1.65,1.93,2.62a4.18,4.18,0,0,1-1.36,3,3.1,3.1,0,0,1-2.44,1c-.85,0-1.59-.69-2.16-2.16a16.77,16.77,0,0,0-4.25-5.85l.45-.85A29.36,29.36,0,0,1,525.1,4.65Zm12.09,2.84V31.84a62.69,62.69,0,0,0,6.87-1.7l.23.68a32.3,32.3,0,0,1-10.9,7.55c-.45.12-.62.29-.62.63a2.47,2.47,0,0,0-.23.79c-.11.51-.34.74-.62.74-.8,0-1.65-1.25-2.62-3.8-.34-.69-.79-1.88-1.41-3.47a31.86,31.86,0,0,0,3.34-.45V13.51a62.1,62.1,0,0,0-.68-10.67,43,43,0,0,1,5.85,1.87A6.73,6.73,0,0,0,537,4a13.73,13.73,0,0,0,2.39-3.8c1.64,1.31,3,2.27,4,3a9.9,9.9,0,0,0,1,.8c0-.46-.06-.85-.06-1.31a38.74,38.74,0,0,1,6.92,2.44H555c.51-.51.91-1,1.25-1.36,1.08-1,1.82-1.48,2.27-1.48s1.76.68,3.63,1.93c1.71,1.31,2.61,2.22,2.61,2.73s-.45.91-1.3,1.53c-1.08.74-1.59,1.42-1.59,2V33.66c0,1.82-1,3.12-3,4a10.4,10.4,0,0,1-4.09,1.08c-.34,0-.68-.63-.9-2a5.7,5.7,0,0,0-3.07-3.29v8.85c0,.74-.91,1.25-2.72,1.59a13.32,13.32,0,0,1-1.76.17c-1.37,0-2-.56-2-1.76.28-4,.45-7.6.45-10.67V12.37c0-1.81-.11-3.86-.22-6.18L542.3,6A36.1,36.1,0,0,1,537.19,7.49ZM550.76,31.9a18.9,18.9,0,0,0,4,.45c.69,0,1.08-.51,1.08-1.53V6.64h-5Z"/><path class="cls-1" d="M587.54,5.05H592c.91-1,1.65-1.81,2.16-2.38a2.35,2.35,0,0,1,1.82-1.14c.56,0,1.76.8,3.46,2.27S602,6.36,602,6.87s-.73,1-2.21,1.53-2,.91-2,1.14a31.25,31.25,0,0,0,2.61,13A26.94,26.94,0,0,0,606,32.18a29.66,29.66,0,0,0,6.87,6.7,40.58,40.58,0,0,0,8.86,5l-.46,1.53a5.62,5.62,0,0,0-3.74,2.84c-1,1.64-1.59,2.5-1.82,2.5-1,0-2.67-.91-4.82-2.73a45.72,45.72,0,0,1-8.75-9.93c-2.49-3.75-4.48-8.86-6-15.27a49.74,49.74,0,0,1-6.58,13.39,38.8,38.8,0,0,1-8.86,8.92,73.91,73.91,0,0,1-10,6.3L570,50.06a59.89,59.89,0,0,0,10.84-10.33,56.72,56.72,0,0,0,7-11.58,78.83,78.83,0,0,0,3.75-10.67,41.36,41.36,0,0,0,1.76-10.84h-5.79c-2.33,0-4.6.11-6.87.23l-.91-2.22C582.71,4.94,585.27,5.05,587.54,5.05Z"/><path class="cls-1" d="M633,16.18V8.63A69.59,69.59,0,0,0,632.54.4c1.53.22,3.58.51,6.13,1,1.93.34,3,.68,3,1.08s-.56,1-1.7,1.36c-.79.23-1.19.68-1.19,1.25V15.21c.23-.34.51-.68.79-1,1.14-1.48,1.88-2.21,2.1-2.21.57,0,1.54.73,2.9,2.15.79.91,1.36,1.59,1.7,2h6.7a5,5,0,0,1-.74-2.33,14.8,14.8,0,0,0-2.33-5.68c-2,.06-3.51.12-4.42.23l-.91-2.21a45.51,45.51,0,0,0,7.78.45h5.5v-2a26,26,0,0,0-.45-4.48c2.27.23,4.42.51,6.47.85,1.3.12,2,.4,2,1,0,.22-.4.51-1.2.85s-1.25.85-1.25,1.36V6.64h5.34a23,23,0,0,0,1.7-2c1.25-1.47,2.05-2.21,2.27-2.21.63,0,1.65.74,3,2.16s2.1,2.38,2.1,2.67a.81.81,0,0,1-.91.9H666.43c.74.34,1.42.63,2.1.91,1.87.68,2.84,1.31,2.84,2,0,.4-.46.68-1.36.85s-1.42.34-1.54.68a18.5,18.5,0,0,1-4.37,3.58h4.37s.63-.63,1.76-1.88c1.48-1.7,2.44-2.55,2.9-2.55s1.7,1,3.8,2.84c1.25,1.19,1.93,1.93,1.93,2.21,0,.63-.4.91-1.08.91h-39V32.58c2.33-.51,4.54-1.08,6.7-1.76l.17.63a39,39,0,0,1-13,8.85c-.51.12-.74.34-.74.68a3.58,3.58,0,0,0-.23.8c-.11.56-.34.79-.62.79-.85,0-1.82-1.36-2.9-4.2-.34-.79-.85-2-1.59-3.8,2.28-.23,4.43-.57,6.48-.91V17.71c-2.79,0-4.77.11-6,.23l-.85-2.22A40.67,40.67,0,0,0,633,16.18Zm19.41,5.28h14.7c.74-.8,1.48-1.54,2.16-2.22a2,2,0,0,1,1.42-.85,10.51,10.51,0,0,1,3,1.42q2.73,1.88,2.73,2.55c0,.52-.4,1-1.14,1.54a2.06,2.06,0,0,0-.85,1.59v4.2c0,1.59.06,3.74.23,6.41,0,.74-.91,1.31-2.67,1.65a15.15,15.15,0,0,1-1.76.17c-1,0-1.53-.51-1.53-1.59v-.46h-1.36V43.2c0,1.25.28,1.87.85,2a7.65,7.65,0,0,0,2.33.23,2.59,2.59,0,0,0,2.1-.85,51,51,0,0,0,2.27-7.32l1.3.22.23,3.52a5.21,5.21,0,0,0,1.19,3.52,4.2,4.2,0,0,1,1,2.5,2.47,2.47,0,0,1-1.25,2.33c-1.41.91-3.69,1.42-6.86,1.42h-3.18a10.1,10.1,0,0,1-3.12-.46c-1.93-.45-2.84-1.93-2.84-4.43v-10H659.5a16.7,16.7,0,0,1-2.21,6.7,15.83,15.83,0,0,1-3.63,3.92,21.83,21.83,0,0,1-5.85,2.95,71.7,71.7,0,0,1-10.39,2.84L636.74,51a39.85,39.85,0,0,0,6.42-2.44,22.1,22.1,0,0,0,5.39-3.46,11.89,11.89,0,0,0,3.06-3.92,13.24,13.24,0,0,0,1.25-5.28h-.56c0,.69-.91,1.14-2.62,1.42a11.09,11.09,0,0,1-1.64.17c-1.19,0-1.76-.51-1.76-1.59a27.81,27.81,0,0,0,.23-3.29V23.73c0-1.25-.12-2.73-.23-4.49A50.22,50.22,0,0,1,652.41,21.46ZM668.7,27.7V23.05H652.3V27.7Zm0,6.64V29.23H652.3v5.11Zm-6.81-18.16a34.8,34.8,0,0,0,2-8H652.35A16.31,16.31,0,0,1,656,10.05c1.31,1,2,1.87,2,2.55a5,5,0,0,1-.85,3.07,5.43,5.43,0,0,1-.63.51Z"/><path d="M6.15,85.12H9.23v-.83A15.92,15.92,0,0,0,9,81.22l4,.53c1.43.15,2.15.4,2.15.72s-.39.75-1.15,1a1,1,0,0,0-.78.93v.72h5.58v-.83a15.1,15.1,0,0,0-.29-3.07l4,.53c1.43.15,2.18.4,2.18.72s-.4.75-1.18,1a1,1,0,0,0-.79.93v.72h4.08a11.25,11.25,0,0,0,1.07-1.33c.79-1,1.29-1.46,1.43-1.46.4,0,1.08.5,2,1.43s1.36,1.57,1.36,1.79-.22.53-.58.53H27.23a10.78,10.78,0,0,1,1.25.47,1.33,1.33,0,0,1,.75,1.07,2.29,2.29,0,0,1-.71,1.58,1.64,1.64,0,0,1-1.25.53c-.29,0-.51-.25-.68-.82a1.46,1.46,0,0,1-.54.32c-.57.15-.86.36-.86.65v1h2.36a11.82,11.82,0,0,0,.9-.93c.75-.86,1.25-1.29,1.46-1.29a7.14,7.14,0,0,1,2,1.51c.68.61,1,1,1,1.14a.48.48,0,0,1-.54.54H25.19a61.83,61.83,0,0,0,.43,6.9c.18,1.54.43,3,.72,4.3a43.59,43.59,0,0,0,1.5-8.66c.93.36,1.86.64,2.75.93,1.33.39,2,.72,2,1s-.33.61-.93.68-.86.25-.9.47a34.51,34.51,0,0,1-3.15,9,1.41,1.41,0,0,0-.1.18,7.25,7.25,0,0,0,.71,1.29c.65,1,1.11,1.54,1.43,1.54s.65-.57,1.08-1.75c.21-.61.57-1.51,1-2.72l.57.14a43.73,43.73,0,0,0-.57,4.47,2.68,2.68,0,0,0,.53,1.61,3,3,0,0,1,.58,1.33,1.12,1.12,0,0,1-1.25,1.25,5.27,5.27,0,0,1-3.05-1.32,10.23,10.23,0,0,1-2.82-3.22c-.07-.08-.11-.11-.11-.18a7.94,7.94,0,0,1-1.25,1,39.81,39.81,0,0,1-7,3.4l-.28-.57a26.93,26.93,0,0,0,5.29-3.68,1.75,1.75,0,0,0,.36-.36H14.28v1c0,.36-.47.61-1.36.75a5.34,5.34,0,0,1-.9.11c-.57,0-.82-.28-.82-.86.07-2,.14-3.75.14-5.29V98c0-1.28-.1-2.86-.28-4.72a18.65,18.65,0,0,1,3.36,1.11h3.36s.29-.29.79-.89c.64-.79,1.07-1.22,1.29-1.22s.82.5,1.86,1.43a3.82,3.82,0,0,0,.39.36c-.07-.72-.1-1.43-.1-2.22H10.09v7.41a43.06,43.06,0,0,1-.43,6.54,15.38,15.38,0,0,1-1.93,4.69,19.13,19.13,0,0,1-3.26,3.47l-.53-.28a23.31,23.31,0,0,0,1.89-5.3,41.27,41.27,0,0,0,.57-6H5.15a19.94,19.94,0,0,1-.46,3.76,10.52,10.52,0,0,1-.79,2.15,5.16,5.16,0,0,1-1.25,1.61,9.19,9.19,0,0,1-2.22,1.57l-.29-.54a5.39,5.39,0,0,0,.72-1.35,17.92,17.92,0,0,0,.61-2,19,19,0,0,0,.35-2.19c.08-.85.15-1.82.15-3a13.89,13.89,0,0,0-1.4.07L0,101a28.34,28.34,0,0,0,4.62.29H6.4c0-.68,0-1.4,0-2.11V97.28h-2v.43c0,.4-.5.68-1.43.86a7,7,0,0,1-.93.11c-.57,0-.82-.18-.82-.57v-5.3A10.51,10.51,0,0,0,1,90.27c.86.14,2,.29,3.26.5S6,91.13,6,91.42s-.32.57-.89.78-.65.4-.65.75v3.33h2c-.07-3.07-.14-5.4-.29-7a29.91,29.91,0,0,1,4.3,1.54H22c0-.68-.07-1.39-.14-2.18a6,6,0,0,1-1,.25,11,11,0,0,1-1.14.11c-.76,0-1.11-.22-1.11-.68.07-.68.14-1.18.14-1.54v-.72H13.17V88.2c0,.46-.61.78-1.79,1a10.68,10.68,0,0,1-1.15.1c-.78,0-1.14-.21-1.14-.68.07-.68.14-1.18.14-1.53v-1H5.62a34,34,0,0,0-4.76.29L.29,84.69A45.45,45.45,0,0,0,6.15,85.12Zm8.13,13.42h1.54V95.32H14.28Zm0,4.18h5.15V99.5H14.28ZM16,107.91v-4.22H14.28v4.22Zm6.22-12.59H18.61v3.22H19a12.22,12.22,0,0,1,.82-1,1,1,0,0,1,.71-.39,4.07,4.07,0,0,1,1.61.82,1.79,1.79,0,0,0,.29.18C22.36,97.25,22.26,96.32,22.18,95.32Zm2.29,11.45a20.75,20.75,0,0,1-1-3.12,23.47,23.47,0,0,1-.75-3.65,1,1,0,0,0-.33.36v3.76c0,.28-.46.5-1.32.64a5.12,5.12,0,0,1-.89.07c-.51,0-.72-.21-.72-.71v-.43h-.68v4.22H19s.28-.29.78-.89c.65-.79,1.08-1.22,1.29-1.22s.82.5,1.86,1.43c.29.29.54.5.68.65C23.94,107.52,24.19,107.16,24.47,106.77Zm.72-20.54.07-.15H22.65v1.4l2.65.43c.39.07.71.11,1,.18A11.14,11.14,0,0,0,25.19,86.23Z"/><path d="M48.24,83.65a2.12,2.12,0,0,1,1.25,1.75,2.6,2.6,0,0,1-.86,1.86,1.16,1.16,0,0,1-.43.36h5.12a18.49,18.49,0,0,0,1.22-6.29c1.64.28,3,.57,4.08.78,1.46.29,2.21.65,2.21,1s-.39.5-1.18.68c-.6.11-1,.25-1.07.46a17.23,17.23,0,0,1-4.19,3.33h5.19a14.69,14.69,0,0,0,1.33-1.57c1-1.15,1.53-1.76,1.71-1.76.5,0,1.26.58,2.33,1.69s1.61,1.82,1.61,2.07c0,.4-.25.57-.72.57H54v4H57.9a13.26,13.26,0,0,0,1.22-1.5c.86-1.15,1.39-1.72,1.57-1.72.47,0,1.22.57,2.22,1.64s1.54,1.76,1.54,2-.25.53-.68.53H54v4.19h7.41a9.31,9.31,0,0,0,1.29-1.57c.93-1.15,1.5-1.76,1.65-1.76.5,0,1.25.58,2.32,1.68s1.61,1.83,1.61,2.08-.25.57-.71.57H51.78a1.92,1.92,0,0,0,.61.11c1.5.32,2.29.64,2.29,1s-.32.57-.89.75a1.27,1.27,0,0,0-.93.93c-.18.68-.36,1.29-.51,1.83h8.88a10.15,10.15,0,0,0,1.36-1.58c1-1.18,1.54-1.78,1.72-1.78.5,0,1.25.57,2.32,1.68a6.91,6.91,0,0,1,1.61,2.07c0,.4-.25.57-.71.57H54.11a12.8,12.8,0,0,0,3.79,2.83,17.09,17.09,0,0,0,4,1.43,35.57,35.57,0,0,0,6.59,1.18l-.43.86a3.63,3.63,0,0,0-2,2c-.21.82-.39,1.25-.5,1.25a14,14,0,0,1-3.22-.93,20,20,0,0,1-4.29-2.15,9.73,9.73,0,0,1-3-2.89,17.69,17.69,0,0,1-2.21-3.55H52a12.44,12.44,0,0,1-2,3.73,15.67,15.67,0,0,1-4.61,3.54,34.05,34.05,0,0,1-9.16,2.5l-.29-.39a34.19,34.19,0,0,0,7.66-3.72,10.91,10.91,0,0,0,3.72-3.94,7.41,7.41,0,0,0,.82-1.72H41.41c-2.08,0-3.51.08-4.33.15l-.58-1.4a28.06,28.06,0,0,0,4.91.29h7A22,22,0,0,0,49,98.82h-7.7c-2.07,0-3.5.07-4.33.15l-.57-1.4a33.76,33.76,0,0,0,4.9.25h8.66V93.63H45.16c-2,0-3.47.08-4.33.15l-.57-1.4a28.29,28.29,0,0,0,4.9.29h4.76v-4h-7c-2.07,0-3.5.08-4.33.15L38,87.34a29.25,29.25,0,0,0,4.9.28h3.47a2.65,2.65,0,0,1-.78-1.11,10.64,10.64,0,0,0-2.83-3.75l.29-.58A22,22,0,0,1,48.24,83.65Z"/><path d="M76.33,84h1.15c.46-.39.93-.79,1.39-1.15A3.33,3.33,0,0,1,80,82.18a4.81,4.81,0,0,1,1.9,1.11c1.22,1,1.86,1.76,1.86,2.11s-.39.47-1.14.61a1.82,1.82,0,0,0-1.51.79l-3.68,7.26h1.71a11.34,11.34,0,0,1,.94-.89,2.4,2.4,0,0,1,1.18-.65,5.16,5.16,0,0,1,2.11,1.19c1.07,1,1.64,1.68,1.64,2s-.39.57-1.14.85-1,.58-1.08.83a45.19,45.19,0,0,1-2.32,7.83c-.22.47-.47.9-.72,1.33a6.41,6.41,0,0,0,2.79,1.54c1.76.71,5.12,1,10.13,1a80.13,80.13,0,0,0,11.67-.86l.25.86a3.89,3.89,0,0,0-2.29,2.72c-.22,1-.58,1.47-1,1.47-8.52,0-14.14-.39-16.82-1.14a11.24,11.24,0,0,1-6.12-3.51c-.36.46-.71.89-1.07,1.29a24.2,24.2,0,0,1-4.94,3.79l-.57-.43a28.62,28.62,0,0,0,5-7.37,15.59,15.59,0,0,1-1-4.8c.07-.64,0-1-.29-1-.07,0-.14.32-.21.93a15.54,15.54,0,0,1-.54,2.65,8.4,8.4,0,0,0-.22,1c.08.22.18.43.26.61a2.47,2.47,0,0,1,.14.5c0,.29-.14.43-.4.43s-.85-.36-1.5-1.07c-.53-.5-1.11-1-1.72-1.47a17.67,17.67,0,0,0,2.94-4c.43-.72.86-1.11,1.25-1.11.82,0,1.25.54,1.25,1.54a15.06,15.06,0,0,0,1,3A42,42,0,0,0,79.27,95H76.91l-.72,1.39c-.18.51-.43.76-.79.79a5.82,5.82,0,0,1-1.14.07A3.88,3.88,0,0,1,73,97c-.36-.15-.54-.32-.54-.58L77.73,85h-1.4c-1.32,0-2.57.08-3.75.15L72,83.72A29,29,0,0,0,76.33,84Zm13.06,1.11c-.07-1.4-.17-2.65-.32-3.79,1.08.1,2.47.28,4.12.57,1.14.14,1.75.39,1.75.71s-.36.72-1,.93a.84.84,0,0,0-.68.86v.72h2.5c.43-.4.79-.79,1.15-1.15.5-.53.86-.82,1.11-.82a4.26,4.26,0,0,1,2,1.18c1.07.86,1.64,1.4,1.64,1.61,0,.36-.25.64-.68.93a1.38,1.38,0,0,0-.71,1v1.68h.43c.14-.25.35-.64.64-1.14.29-.65.5-1,.61-1s.57.39,1.14,1.14a3.9,3.9,0,0,1,.83,1.4c0,.36-.15.54-.43.54h-3.22c0,1.64.07,2.72.14,3.25V95c0,.47-.61.79-1.79,1a6.08,6.08,0,0,1-1.14.14.82.82,0,0,1-.93-.85H93.26v3.5h3.36a8,8,0,0,0,.9-1.11c.64-.86,1-1.29,1.18-1.29.36,0,1,.43,1.75,1.29a5.55,5.55,0,0,1,1.18,1.51c0,.39-.18.57-.53.57H93.26v3.79H97a14.61,14.61,0,0,0,1.18-1.39c.82-1,1.32-1.54,1.5-1.54q.64,0,2,1.5c.93,1,1.43,1.61,1.43,1.82,0,.4-.25.58-.68.58H93.26v2.65c0,.46-.57.78-1.72,1a8.64,8.64,0,0,1-1.07.1c-.86,0-1.25-.35-1.25-1.1.07-.94.1-1.83.14-2.65H86.82c-2,0-3.47.07-4.33.14l-.54-1.4a27.55,27.55,0,0,0,4.87.29h2.57c0-.89.08-1.75.08-2.54V99.79H88.36c-2,0-3.47.07-4.33.14l-.54-1.39a28.77,28.77,0,0,0,4.87.28h1.11v-3.5c-1.69,0-3,.07-4,.14l-.53-1.4a27.52,27.52,0,0,0,4.58.29V90.56H85.85c-.71,0-1.64.07-2.79.14l-.57-1.4a22.64,22.64,0,0,0,3.36.29h3.62v-2c0-.53,0-1,0-1.54-2.36,0-4,.08-5,.15l-.58-1.4A39.91,39.91,0,0,0,89.39,85.12Zm3.87,4.47h3.22V86.08H93.26Zm0,4.76h3.22V90.56H93.26Z"/><path d="M112.12,88.48h3.08a14.61,14.61,0,0,0,1.18-1.39c.82-1,1.32-1.54,1.47-1.54.43,0,1.14.5,2.07,1.5s1.43,1.61,1.43,1.83c0,.39-.25.57-.68.57h-8.55c-2,0-3.47.07-4.33.14l-.53-1.39A28.56,28.56,0,0,0,112.12,88.48Zm1.68-4.61h.72a11.25,11.25,0,0,0,1.07-1.33c.79-1,1.29-1.47,1.43-1.47.43,0,1.08.51,2,1.44s1.36,1.57,1.36,1.78a.51.51,0,0,1-.58.54h-6c-2,0-3.47.07-4.33.14l-.57-1.39A29.34,29.34,0,0,0,113.8,83.87Zm0,9.23h.72a11.25,11.25,0,0,0,1.07-1.33c.79-1,1.29-1.5,1.43-1.5.43,0,1.08.5,2,1.47a6.92,6.92,0,0,1,1.36,1.75.51.51,0,0,1-.58.57h-6c-2,0-3.47.07-4.33.15l-.57-1.4A28.29,28.29,0,0,0,113.8,93.1Zm-.28,8.94h1.54c.46-.53.93-1,1.36-1.43a1.25,1.25,0,0,1,.89-.53,6.78,6.78,0,0,1,1.9.89c1.14.79,1.71,1.32,1.71,1.61s-.28.64-.78,1a1.19,1.19,0,0,0-.61,1v2.93c0,1.11,0,2.61.14,4.47,0,.43-.61.79-1.79,1a10,10,0,0,1-1.14.1c-.65,0-1-.39-1-1.11v-1H113v1.54c0,.43-.57.78-1.72,1a9.25,9.25,0,0,1-1.07.11,1,1,0,0,1-1.15-1.11c.08-1.22.15-2.44.15-3.65v-3.51a45.72,45.72,0,0,0-.29-5A34.18,34.18,0,0,1,113.52,102Zm.43-4.47h.57a11.6,11.6,0,0,0,1.07-1.32c.79-1,1.29-1.51,1.43-1.51.43,0,1.08.5,2,1.47A7.12,7.12,0,0,1,120.39,98a.52.52,0,0,1-.58.58H114c-2,0-3.47.07-4.33.14l-.58-1.4A28.35,28.35,0,0,0,114,97.57ZM115.77,110v-7H113v7Zm9.91-12.17h6.73a11.44,11.44,0,0,1,1-.75,2.65,2.65,0,0,1,1.36-.65A6.74,6.74,0,0,1,137,97.89c1.11,1.08,1.68,1.76,1.68,2s-.43.54-1.21.61a3.34,3.34,0,0,0-1.44.36,17.56,17.56,0,0,1-3.18,5.08c-.29.36-.57.71-.86,1a36.57,36.57,0,0,0,8.12,3l-.14.85a3.51,3.51,0,0,0-2.22,1.65c-.39.86-.71,1.29-1,1.29a7.21,7.21,0,0,1-2.65-1.11,23.6,23.6,0,0,1-4.72-3.15s0,0,0,0a10,10,0,0,1-1.29.89,27.06,27.06,0,0,1-8.65,3.54l-.26-.71A29.3,29.3,0,0,0,127,107.3l.07-.07a12.46,12.46,0,0,1-1.25-1.79,19.66,19.66,0,0,1-2.54-6.58c-.71,0-1.32.07-1.82.11l-.58-1.4A44.59,44.59,0,0,0,125.68,97.82Zm2.08-14.1H130c.43-.5.83-.89,1.15-1.21a2.06,2.06,0,0,1,1.25-.76A4.87,4.87,0,0,1,134.66,83c1,.79,1.51,1.4,1.51,1.86s-.29.68-.86,1-1,.64-1,1.07v3.22c0,.58.07.93.22,1s.35.22.78.22l.61-.11c.29,0,.57-.36.79-1.08s.39-1.71.68-3l.57.11.15,1.68a3,3,0,0,0,.75,1.82c.71.65,1.07,1.11,1.07,1.4A1.85,1.85,0,0,1,138.64,94a8.59,8.59,0,0,1-3.3.65c-2.07,0-3.18-.11-3.4-.4-.93-.28-1.36-1.39-1.36-3.4V84.69h-3.07a24.36,24.36,0,0,1-.72,6.19,7.79,7.79,0,0,1-2.36,3.61,13.37,13.37,0,0,1-4.19,2.22L120,96a11.31,11.31,0,0,0,2.11-2.43,10,10,0,0,0,1-2.72,24.84,24.84,0,0,0,.39-4.37,29.84,29.84,0,0,0-.28-4.33A29,29,0,0,1,127.76,83.72ZM126.83,103a11.54,11.54,0,0,0,2.11,2.08,30.5,30.5,0,0,0,3.47-6.23h-8.16A16.63,16.63,0,0,0,126.83,103Z"/><path d="M168.66,108.81l-9.12-9.09-9.13,9.09-2-2,9.12-9.12-9.12-9.09,2-2,9.13,9.09,9.12-9.09,2,2-9.13,9.09,9.13,9.12Z"/><path d="M188.71,84.55h12.73c.47-.47.9-.93,1.29-1.36.58-.65,1-1,1.26-1a6.28,6.28,0,0,1,2.43,1.22c1.36,1.07,2,1.79,2,2.15s-.36.68-1,1.07a1.79,1.79,0,0,0-.83,1.29v16.78l.29,7.55c0,.5-.68.86-2,1.11-.61.07-1,.14-1.32.14-.76,0-1.11-.43-1.11-1.25v-1.82h-14v2c0,.43-.65.79-1.9,1a11.25,11.25,0,0,1-1.18.1c-.86,0-1.25-.39-1.25-1.11.18-2.79.28-5.26.28-7.4V89.59a63.58,63.58,0,0,0-.43-6.73A27.23,27.23,0,0,1,188.71,84.55Zm13.74,11.73V85.55h-14V96.28Zm0,13.17V97.28h-14v12.17Z"/><path d="M233.26,81.93c.86.07,1.32.29,1.32.68,0,.15-.28.36-.78.61s-.9.57-.9.93v1.54h7.84a13.26,13.26,0,0,0,1.22-1.5c.85-1.15,1.39-1.72,1.57-1.72.47,0,1.22.57,2.25,1.65a6.74,6.74,0,0,1,1.54,2c0,.4-.25.58-.71.58h-9.88a8,8,0,0,0,1.15.32c1,.28,1.46.61,1.46.93s-.28.57-.86.64-.89.18-1,.33A9.28,9.28,0,0,1,236,91.2a9.7,9.7,0,0,1-1.08,1h5.37c.36-.32.61-.57.82-.79.68-.57,1.15-.89,1.43-.89a6.36,6.36,0,0,1,2.26,1.21c1.07.86,1.64,1.44,1.64,1.72s-.28.61-.78,1c-.72.46-1,.89-1,1.29v14.52a3.05,3.05,0,0,1-2,2.76,7,7,0,0,1-2.72.75c-.29,0-.5-.43-.68-1.29-.29-1.07-1.4-1.93-3.26-2.65l0-.1a7.36,7.36,0,0,1-1,.1.85.85,0,0,1-1-1v-.58h-6.3v1.29c0,.47-.54.79-1.61,1a7,7,0,0,1-1,.11c-.79,0-1.14-.36-1.14-1.11.07-1.11.14-2.22.14-3.36v-1.68a39.16,39.16,0,0,0-.21-4.12,10.26,10.26,0,0,1-1.72.47l-.43-.4a6.09,6.09,0,0,0,1.86-1.25,4.75,4.75,0,0,0,1.32-1.57,8.57,8.57,0,0,0,.43-2.94v-1.5h-4v19.68c0,.43-.57.79-1.72,1a9.25,9.25,0,0,1-1.07.11c-.86,0-1.25-.4-1.25-1.15.17-2.5.28-4.76.28-6.69V96.85c0-1.68-.11-3.72-.28-6.15a23.37,23.37,0,0,1,4.33,1.54h4.18c-.18-.43-.39-1-.64-1.83a13.85,13.85,0,0,0-1.72-3.61l.07-.14h-3.72c-2,0-3.47.07-4.33.14l-.57-1.4a28.15,28.15,0,0,0,4.9.29h9.38v-1.4a16.86,16.86,0,0,0-.29-3C230.36,81.47,231.83,81.68,233.26,81.93Zm-.5,19.4c.5-.5,1-.93,1.43-1.33a1.59,1.59,0,0,1,1-.5,5.75,5.75,0,0,1,2,1c1.19.82,1.79,1.39,1.79,1.72s-.25.64-.71.93a1.34,1.34,0,0,0-.54,1v.57c0,1,0,2.33.14,4a.67.67,0,0,1-.39.58c1,.1,1.83.14,2.51.14s1-.36,1-1.15V98.68a8,8,0,0,1-3.36.54h-1.75a6.45,6.45,0,0,1-1.72-.18,1.6,1.6,0,0,1-1.54-1.76v-4H229v1.5a5.68,5.68,0,0,1-.78,3.05,5.78,5.78,0,0,1-2.33,1.78,8,8,0,0,1-1.07.51,31.87,31.87,0,0,1,3.4,1.25Zm.82-9.09c.29-.93.5-1.83.68-2.61s.29-1.83.4-3h-8.91c.32.14.6.32.89.46a4.41,4.41,0,0,1,1.5,1.43,2.31,2.31,0,0,1,.43,1.33,2.6,2.6,0,0,1-.78,1.86,1.66,1.66,0,0,1-.5.5Zm.47,15.1v-5h-6.3v5Zm1.54-11.88c0,.61.14.93.5,1a6.56,6.56,0,0,0,1.43.11,1.1,1.1,0,0,0,1-.4c.08-.28.22-1.07.43-2.39h.58l.14,1.68c0,.32.32.61,1,.89a.44.44,0,0,0,.21.07V93.24h-5.29Z"/><path d="M267,82.76c1.11.43,1.68.89,1.68,1.39,0,.22-.29.36-.86.43a1.93,1.93,0,0,0-.93.25A47.78,47.78,0,0,1,259,92.45q8.11-.15,16.53-.68a54.62,54.62,0,0,0-4.15-5l.4-.57A41.62,41.62,0,0,1,278.32,90a15,15,0,0,1,2.75,2.58,2.93,2.93,0,0,1,.64,1.75,3.55,3.55,0,0,1-.82,2.43,2.33,2.33,0,0,1-1.86,1c-.28,0-.64-.46-1.07-1.43a30.26,30.26,0,0,0-1.79-3.61A106.5,106.5,0,0,1,256,96.42c-.22,0-.32.26-.36.72s-.36.82-.64.82c-.54,0-1-.64-1.44-2-.28-.72-.68-1.86-1.21-3.44,1.64,0,3.33,0,5,0a41.82,41.82,0,0,0,6.08-11C264.65,81.9,265.86,82.33,267,82.76ZM260.39,99.5h12.38c.54-.64,1.07-1.21,1.57-1.71a1.64,1.64,0,0,1,1.08-.65,6.81,6.81,0,0,1,2.18,1.07c1.32.93,2,1.54,2,1.87s-.28.67-.78,1a1.31,1.31,0,0,0-.61,1.08v6.26c0,1.14,0,2.65.14,4.61,0,.43-.64.79-1.86,1-.57,0-1,.07-1.22.07-.64,0-1-.39-1-1.11v-1.82H260v1.82c0,.43-.61.79-1.79,1-.53,0-.93.07-1.14.07-.86,0-1.26-.39-1.26-1.11.18-2.68.29-5,.29-7.12V104.4c0-1.75-.11-3.9-.29-6.44A27,27,0,0,1,260.39,99.5Zm13.92,10.77V100.5H260v9.77Z"/><path d="M294.28,89.16c-.64,4.9-1.14,8.73-1.5,11.45s-.47,4.51-.47,5.48a13.44,13.44,0,0,0,.15,2,17.26,17.26,0,0,1,.57,3.54,1.64,1.64,0,0,1-.47,1.29,1.83,1.83,0,0,1-1.5.53,3.38,3.38,0,0,1-2-.53,1.54,1.54,0,0,1-.46-1.29,9.74,9.74,0,0,1,.32-2.08c.07-.71.1-1.25.1-1.68a4.16,4.16,0,0,0-.35-1.82c-.25-.47-1-.9-2.33-1.26l.14-.86a7.06,7.06,0,0,0,2.69-.32,2.48,2.48,0,0,0,1-1.46L293.6,89Zm-3.76,2.72a2.21,2.21,0,0,1,1,1.75,2.67,2.67,0,0,1-.86,1.9,1.93,1.93,0,0,1-1.5.64c-.4,0-.72-.46-1-1.39A11.51,11.51,0,0,0,286.3,91l.29-.58A13.68,13.68,0,0,1,290.52,91.88ZM293,83a1.85,1.85,0,0,1,1,1.51,2.63,2.63,0,0,1-.85,1.89,2,2,0,0,1-1.51.65c-.39,0-.71-.43-1-1.29a10.23,10.23,0,0,0-1.93-3.47l.28-.58A15.64,15.64,0,0,1,293,83Zm8.27,2.47c.75.22,1.14.47,1.14.72s-.25.39-.68.43-.68.18-.71.28a10.1,10.1,0,0,1-1.68,2.58,8.49,8.49,0,0,1-1.11,1.14c.71,0,1.43-.1,2.11-.17-.11-.29-.22-.61-.32-.9l.28-.29a9.23,9.23,0,0,1,1.86,1,1.77,1.77,0,0,1,.65,1.08,2.23,2.23,0,0,1-.4,1.39,1.56,1.56,0,0,1-1.14.54.41.41,0,0,1-.4-.18c-.1-.07-.17-.43-.25-1.11,0-.25-.07-.5-.1-.72l-.79.47v6.58c0,.29-.39.5-1.18.65a3.66,3.66,0,0,1-.75.07c-.5,0-.72-.22-.72-.72.07-.68.11-1.57.14-2.72-.35.08-.53.15-.53.22A9.78,9.78,0,0,1,295.6,98a8.68,8.68,0,0,1-1.46,1.75l-.29-.29c.22-.89.39-1.71.54-2.5s.21-1.79.32-2.94l2.07.61a2,2,0,0,0,.43.14V92.92c-.25.11-.5.18-.71.25s-.25.11-.25.18a.61.61,0,0,0-.07.28c-.08.22-.15.29-.22.29-.32,0-.68-.54-1.11-1.61-.14-.29-.32-.79-.57-1.47.93,0,1.86,0,2.76-.1.42-.86.75-1.65,1-2.37a23.21,23.21,0,0,0,.83-3.54C299.72,85.05,300.51,85.3,301.26,85.51ZM299,82c.75.26,1.15.51,1.15.76s-.22.43-.65.5-.68.21-.75.32a9.77,9.77,0,0,1-1.14,2.07,8.24,8.24,0,0,1-.72.83c.07,0,.11.07.18.07.47.29.72.61.72.93a2.08,2.08,0,0,1-.58,1.29,1.2,1.2,0,0,1-1,.39c-.29,0-.54-.25-.72-.79a7.22,7.22,0,0,0-1.39-2.14l.14-.43,1.61.36c.11-.61.21-1.19.32-1.76.11-.86.22-1.86.32-3.07C297.36,81.58,298.18,81.79,299,82Zm2,17.93H312.6a11.9,11.9,0,0,0,1-.82,2,2,0,0,1,1-.57,3.87,3.87,0,0,1,1.64,1c.93.71,1.4,1.18,1.4,1.36a1.16,1.16,0,0,1-.61.93,1.45,1.45,0,0,0-.64,1,2.47,2.47,0,0,0,.14,1.14v.25c0,.36-.29.61-.86.79a12.74,12.74,0,0,1,1.68,1.14c.86.72,1.29,1.22,1.29,1.43s-.28.47-.82.68-1,.51-1,.72c-.86,2.22-1.83,3.61-2.83,4.26a6,6,0,0,1-2.75.89c-.29,0-.47-.28-.58-.86-.25-.93-1.46-1.82-3.61-2.61l.14-.57c1.86.21,3.11.29,3.76.29a2.11,2.11,0,0,0,1.18-.29,3,3,0,0,0,1-1.4c.14-.39.32-.82.5-1.25h-15l-.29.82c0,.33-.64.51-1.93.58s-1.82-.18-1.82-.58l2-5c.18-.78.36-1.43.54-2,1,.43,2.11,1,3.47,1.82h12.2V100.9H301c-2.47,0-4.19.07-5.19.14l-.57-1.39A45,45,0,0,0,301,99.93Zm12.13,6.59c.46-.4.86-.72,1.18-1,.14-.11.25-.18.32-.25a5.45,5.45,0,0,1-.93.07.86.86,0,0,1-1-1v-.28H299.86l-.89,2.4ZM302.58,95a3.76,3.76,0,0,1,.5.54c0-1.11-.07-2.19-.14-3.19a18.58,18.58,0,0,1,2.58.86h1.07c.32-.36.64-.64.93-.93a.93.93,0,0,1,.61-.36,4.4,4.4,0,0,1,1.29.61c.78.54,1.21.9,1.21,1.07s-.18.43-.53.61a.86.86,0,0,0-.43.65v.57c0,.71,0,1.72.14,2.93,0,.29-.39.5-1.18.65a4,4,0,0,1-.79.07c-.46,0-.68-.22-.68-.72v-.68h-1.54v.83c0,.28-.39.5-1.11.64a5.7,5.7,0,0,1-.71,0c-.57,0-.86-.22-.86-.68a6.36,6.36,0,0,0,.07-.86l-.07.14a1.76,1.76,0,0,1-1.25.57.65.65,0,0,1-.54-.21c-.14-.07-.25-.5-.32-1.29a10.14,10.14,0,0,0-.82-2.83l.28-.28A12,12,0,0,1,302.58,95Zm8.34-11.27a3.69,3.69,0,0,1,.71,1.21c0,.4-.1.58-.28.58H308.7c.22.25.43.53.68.86a3.41,3.41,0,0,1,.82,1.36c0,.39-.14.57-.39.57h-1.07c.18.21.39.5.6.79a3.46,3.46,0,0,1,.86,1.43c0,.39-.14.57-.39.57h-3.65c-.72,0-1.65.07-2.79.14l-.57-1.39a23.79,23.79,0,0,0,3.36.28h.57c.18-.28.4-.68.68-1.21.15-.25.25-.47.36-.61H306c-.72,0-1.65.07-2.79.14l-.54-1.39a29.94,29.94,0,0,0,3.33.25h1c.14-.25.36-.61.61-1.11.14-.29.28-.54.35-.68h-2.64c-.72,0-1.65.07-2.79.14l-.58-1.4a28.65,28.65,0,0,0,3.37.26h3.47a7.06,7.06,0,0,0,.57-1c.29-.5.47-.78.57-.78S310.42,83.11,310.92,83.76Zm-2.26-2.18a3.16,3.16,0,0,1,.72,1.18c0,.35-.11.53-.29.53h-2.5c-.72,0-1.65.07-2.79.15l-.57-1.4a22.64,22.64,0,0,0,3.36.29c.14-.22.32-.5.57-.93s.43-.75.54-.75S308.2,81,308.66,81.58Zm-1.5,15.13v-2.5h-1.54v2.5ZM314.82,82c.75.26,1.14.51,1.14.76s-.25.35-.68.43-.68.17-.71.25a9.9,9.9,0,0,1-1.07,2.21,6.92,6.92,0,0,1-.76,1c.15.07.29.11.4.15.46.28.71.6.71.93a1.91,1.91,0,0,1-.57,1.25,1.24,1.24,0,0,1-1,.43c-.28,0-.53-.25-.71-.79a7.31,7.31,0,0,0-1.4-2.15l.15-.43c.6.15,1.11.25,1.53.33.15-.68.26-1.33.33-1.9.07-.86.18-1.93.25-3.18C313.28,81.58,314.07,81.79,314.82,82Zm2.93,3.23c.75.25,1.15.5,1.15.71s-.25.39-.68.47-.68.17-.72.25a13.27,13.27,0,0,1-2.18,3.15c-.36.35-.75.71-1.18,1.07.86,0,1.65-.11,2.4-.22-.15-.35-.29-.71-.43-1.07l.25-.29a11,11,0,0,1,2.18,1.11,1.75,1.75,0,0,1,.75,1.15A2.21,2.21,0,0,1,318.9,93a1.58,1.58,0,0,1-1.15.54c-.25,0-.43,0-.53-.18s-.25-.46-.33-1.14c0-.22-.07-.47-.1-.72l-.83.43v5.69c0,.29-.43.47-1.21.61a3.66,3.66,0,0,1-.75.07c-.5,0-.72-.21-.72-.68s.07-1,.11-1.75c-.29.07-.47.14-.5.21a8.12,8.12,0,0,1-1,1.68,8.31,8.31,0,0,1-1.39,1.4l-.29-.29c.18-.75.32-1.46.47-2.14s.18-1.51.25-2.47c.71.21,1.39.39,2.11.57a2.36,2.36,0,0,0,.39.14v-2a5.93,5.93,0,0,1-1,.29c-.22.07-.29.11-.29.18a.77.77,0,0,0-.07.28c-.07.22-.14.29-.22.29-.28,0-.6-.46-1-1.47-.1-.25-.28-.68-.53-1.32.78,0,1.57-.07,2.32-.14a17.38,17.38,0,0,0,1.4-2.37,22.91,22.91,0,0,0,1.32-4.07C316.21,84.8,317,85,317.75,85.23Zm.79,9.87c.5.47.75.86.75,1.18a2.43,2.43,0,0,1-.43,1.54,1.64,1.64,0,0,1-1.25.57.61.61,0,0,1-.5-.21c-.14-.07-.22-.5-.29-1.22a9,9,0,0,0-.71-2.75l.25-.29A10.28,10.28,0,0,1,318.54,95.1Z"/><path d="M328.24,91.27h7.41c.14-1.54.25-3.18.29-4.9,0-1.93-.08-3.58-.15-4.9,1.22.18,2.44.39,3.62.61,1.68.32,2.54.64,2.54.93s-.29.64-.79.89-.89.54-.89.79c-.22,2.43-.43,4.65-.68,6.58h7.83a16.57,16.57,0,0,0,1.4-1.64c1-1.22,1.61-1.86,1.79-1.86.5,0,1.32.6,2.39,1.75s1.69,1.93,1.69,2.18-.25.54-.72.54H340.84a31.15,31.15,0,0,0,2.32,6.51,18.74,18.74,0,0,0,4.3,5.87,26.67,26.67,0,0,0,7.37,4.69l-.14.82a4.25,4.25,0,0,0-2.51,1.9c-.43,1-.82,1.46-1.14,1.46s-1.15-.53-2.22-1.54A24.16,24.16,0,0,1,342,101.83a42.89,42.89,0,0,1-2.18-9.59h-.36a29.8,29.8,0,0,1-2.22,8.37,22.62,22.62,0,0,1-5.83,7.8,34.27,34.27,0,0,1-8.73,5.37l-.29-.72a33.8,33.8,0,0,0,7.48-6.65,24.27,24.27,0,0,0,4.62-8.7,37.61,37.61,0,0,0,1.07-5.47h-7.83a35.68,35.68,0,0,0-4.76.28l-.58-1.68A43.87,43.87,0,0,0,328.24,91.27Z"/><path d="M362.92,89.59h.72V87.34a57.84,57.84,0,0,0-.29-6c1.07.1,2.4.28,4,.57,1.11.14,1.68.39,1.68.71s-.35.65-1.07.86c-.5.15-.75.43-.75.82v5.3h.43a10.16,10.16,0,0,0,.86-.93c.61-.68,1-1,1.11-1s.79.36,1.46,1.08a4.46,4.46,0,0,1,1,1.32c0,.36-.14.54-.43.54h-4.47v3.5a14.14,14.14,0,0,1,4.15,2.19,4.38,4.38,0,0,1,1.33,3.11,2.3,2.3,0,0,1-.72,1.57,1.61,1.61,0,0,1-1.25.54c-.68,0-1.26-.64-1.72-1.93a15.74,15.74,0,0,0-1.79-3.44v16.53c0,.47-.54.83-1.61,1a8.7,8.7,0,0,1-1,.11c-.86,0-1.25-.39-1.25-1.15.18-2.11.29-4.08.29-5.86V98.93a23,23,0,0,1-2.4,3.72,16.36,16.36,0,0,1-2.93,3.15l-.54-.29a59.41,59.41,0,0,0,5.47-15h-.32c-2,0-3.47.07-4.33.14L358,89.3A28.15,28.15,0,0,0,362.92,89.59Zm14.28.14H378V88.05c0-2.5-.11-4.69-.29-6.58,1.15.14,2.58.32,4.33.61,1.22.18,1.83.43,1.83.78s-.39.68-1.15.9c-.57.14-.82.43-.82.79v5.18h2.26c.07,0,.42-.46,1.1-1.25s1.26-1.39,1.4-1.39c.39,0,1,.46,1.9,1.36s1.32,1.5,1.32,1.71a.5.5,0,0,1-.57.54h-7.09a38.11,38.11,0,0,0,4,9,14.3,14.3,0,0,0,4.51,4.44l-.1.86a3.5,3.5,0,0,0-2.37,2.29c-.28.89-.64,1.32-1,1.32s-.78-.86-1.64-2.58a37.09,37.09,0,0,1-2.47-6.58c-.47-1.57-.86-3.15-1.22-4.79v11.88c0,2.14,0,4.25.14,6.4,0,.43-.64.79-1.86,1a11.6,11.6,0,0,1-1.21.11c-.86,0-1.26-.4-1.26-1.15.18-2.33.29-4.47.29-6.4V98c-.36.85-.71,1.57-1,2.18a28.8,28.8,0,0,1-3.69,5.4,21.94,21.94,0,0,1-4.54,4l-.29-.43a34,34,0,0,0,4.58-7.58,61.76,61.76,0,0,0,3.55-10.88c-1.79,0-3.05.07-3.8.14l-.53-1.39A29.09,29.09,0,0,0,377.2,89.73Z"/><path d="M402,82.4c1.07.43,1.61.86,1.61,1.32,0,.25-.29.4-.79.43a2,2,0,0,0-.89.25A29.8,29.8,0,0,1,397.85,89l.68.43a3,3,0,0,1,1.14,2.29,2.18,2.18,0,0,1-.64,1.47,1.46,1.46,0,0,1-1.14.46c-.58,0-1.08-.5-1.51-1.53a11.83,11.83,0,0,0-2.82-4.19l.25-.43c1.14.32,2.07.64,2.82.93a42.78,42.78,0,0,0,1.93-7.19C399.75,81.61,400.89,82,402,82.4Zm4.11,5.72c1,.43,1.54.9,1.54,1.33,0,.21-.28.32-.78.36a2.32,2.32,0,0,0-.9.21,46.48,46.48,0,0,1-6.73,6.8c1.83-.14,3.58-.29,5.23-.5a13.59,13.59,0,0,0-1-2.4l.28-.29a13.08,13.08,0,0,1,3.4,2.44,4.14,4.14,0,0,1,1.22,2.47,2.5,2.5,0,0,1-.5,1.61,1.81,1.81,0,0,1-1.33.6,1.34,1.34,0,0,1-1-.32c-.25-.14-.46-.82-.61-2-.07-.36-.1-.72-.18-1.07-.71.43-1.43.82-2.14,1.18v8.94c0,2.29,0,4.08.14,5.44,0,.39-.61.68-1.75.9a10,10,0,0,1-1.18.1.88.88,0,0,1-1-1c.07-1.29.14-3.08.14-5.44v-2.57a2.14,2.14,0,0,0-.71.32,20.18,20.18,0,0,1-1.72,4.08,21.08,21.08,0,0,1-2.47,3.32l-.43-.39c.43-1.68.75-3.22,1-4.65s.43-3.33.57-5.4c1.18.32,2.33.64,3.44.93a.78.78,0,0,0,.35.1V100c-.6.21-1.18.39-1.75.54-.36.07-.5.17-.5.32s-.07.32-.11.53-.14.47-.28.47c-.5,0-1.08-.82-1.76-2.51-.18-.42-.5-1.18-.93-2.25,1.22,0,2.44-.11,3.65-.18a39.42,39.42,0,0,0,5.44-10C403.9,87.34,405,87.73,406.11,88.12Zm1.19,17a6,6,0,0,1,1.21,3.08,2.51,2.51,0,0,1-.53,1.72,2,2,0,0,1-1.44.68,1.16,1.16,0,0,1-1-.39c-.25-.18-.46-1-.61-2.4a18.52,18.52,0,0,0-1.46-5.33l.43-.4A15.6,15.6,0,0,1,407.3,105.08Zm6-21.07h4.8c.43-.43.82-.82,1.18-1.25.53-.58.93-.86,1.18-.86a4.85,4.85,0,0,1,2.18,1.25c1.15.89,1.76,1.47,1.76,1.68,0,.43-.29.79-.83,1.08s-.86.67-.86,1v24.73h.58a6,6,0,0,1,.6-1.4c.36-.64.65-1,.93-1s.51.28.93.86a4,4,0,0,1,.86,1.93.47.47,0,0,1-.53.53H407.65c-1.07,0-2.21,0-3.36.15l-.54-1.4c1.72.18,3,.29,3.9.29h1.26V89.16a45.77,45.77,0,0,0-.4-6.83A25,25,0,0,1,413.34,84ZM418.85,93V85h-6v8Zm0,9.09V93.92h-6V102Zm0,9.63V103h-6v8.66Z"/><path d="M455,108.81l-9.12-9.09-9.13,9.09-2-2,9.12-9.12-9.12-9.09,2-2,9.13,9.09L455,86.58l2,2-9.13,9.09L457,106.8Z"/><path d="M481.73,82.76c1.11.43,1.68.89,1.68,1.39,0,.22-.28.36-.85.43a1.94,1.94,0,0,0-.94.25,48.1,48.1,0,0,1-7.9,7.62q8.1-.15,16.53-.68a58.14,58.14,0,0,0-4.15-5l.39-.57A41.62,41.62,0,0,1,493,90a15,15,0,0,1,2.75,2.58,3,3,0,0,1,.65,1.75,3.6,3.6,0,0,1-.82,2.43,2.35,2.35,0,0,1-1.87,1c-.28,0-.64-.46-1.07-1.43a30.26,30.26,0,0,0-1.79-3.61,106.35,106.35,0,0,1-20.18,3.64c-.21,0-.32.26-.36.72s-.35.82-.64.82c-.54,0-1-.64-1.43-2-.29-.72-.68-1.86-1.22-3.44,1.65,0,3.33,0,5,0a41.82,41.82,0,0,0,6.08-11C479.37,81.9,480.59,82.33,481.73,82.76ZM475.11,99.5h12.38c.54-.64,1.08-1.21,1.58-1.71a1.6,1.6,0,0,1,1.07-.65,6.71,6.71,0,0,1,2.18,1.07c1.33.93,2,1.54,2,1.87s-.29.67-.79,1a1.31,1.31,0,0,0-.61,1.08v6.26c0,1.14,0,2.65.14,4.61,0,.43-.64.79-1.86,1-.57,0-1,.07-1.21.07-.65,0-1-.39-1-1.11v-1.82H474.75v1.82c0,.43-.6.79-1.78,1-.54,0-.93.07-1.15.07-.86,0-1.25-.39-1.25-1.11.18-2.68.28-5,.28-7.12V104.4c0-1.75-.1-3.9-.28-6.44A26.92,26.92,0,0,1,475.11,99.5ZM489,110.27V100.5H474.75v9.77Z"/><path d="M506.93,86.51h8.37a37.37,37.37,0,0,0-.43-5.29c1.11.14,2.54.36,4.33.64,1.4.22,2.11.47,2.11.75s-.39.72-1.14,1c-.58.17-.83.5-.83.93v2h7.41a9.76,9.76,0,0,0,1.36-1.57c1-1.18,1.54-1.79,1.72-1.79.5,0,1.25.57,2.32,1.72s1.61,1.82,1.61,2.07-.25.54-.71.54H519.34v4.08h7.12c.36-.32.61-.57.83-.79.68-.57,1.14-.89,1.43-.89a6.38,6.38,0,0,1,2.36,1.29c1.11.85,1.68,1.46,1.68,1.78s-.28.58-.78,1c-.72.5-1,.93-1,1.36v15.24a3,3,0,0,1-1.9,2.75,5.88,5.88,0,0,1-2.58.76c-.25,0-.46-.47-.68-1.36-.28-1.08-1.43-2-3.36-2.72l.14-.68a23.19,23.19,0,0,0,3.9.39c.36,0,.58-.36.58-1.11V92.52H507.89v20.4c0,.43-.6.79-1.79,1a10.73,10.73,0,0,1-1.14.11,1,1,0,0,1-1.11-1.15c.07-1.25.14-2.47.14-3.76V95a48.34,48.34,0,0,0-.28-5.15,34.32,34.32,0,0,1,4.79,1.68h6.8V87.48h-8.95a33.81,33.81,0,0,0-4.75.29L501,86.08A44.43,44.43,0,0,0,506.93,86.51Zm15.74,7.95c.93.5,1.43.86,1.43,1.14s-.25.5-.71.54-.9.11-1,.28a10.59,10.59,0,0,1-1.5,1.62,6.8,6.8,0,0,1-1.72,1.18h2.54a5.12,5.12,0,0,0,.86-.9c.57-.68.93-1,1.07-1,.29,0,.79.36,1.51,1.08s1,1.14,1,1.29c0,.39-.14.57-.43.57H519.2c0,1.43,0,2.72,0,3.9h2.36a6.38,6.38,0,0,0,.89-1.11c.65-.82,1-1.25,1.18-1.25.36,0,1,.43,1.76,1.25s1.18,1.36,1.18,1.54c0,.39-.18.57-.54.57h-6.83c0,2.9.1,5.08.25,6.55,0,.32-.36.57-1,.75a14.84,14.84,0,0,1-2.37.21.89.89,0,0,1-1-.68c.07-1.75.11-4,.14-6.83h-1.54c-2.07,0-3.5,0-4.33.11l-.57-1.4a28.29,28.29,0,0,0,4.9.29h1.54v-3.9h-1c-2.07,0-3.5.07-4.36.14L509.43,99a35.27,35.27,0,0,0,4.9.25h3.48a20.87,20.87,0,0,0,1.39-2.8,17.54,17.54,0,0,0,1-3.32C521.13,93.63,522,94.1,522.67,94.46Zm-7.76.57a2.35,2.35,0,0,1,1,1.82,2.29,2.29,0,0,1-.71,1.58,1.61,1.61,0,0,1-1.25.54c-.43,0-.76-.43-1-1.33a12.14,12.14,0,0,0-2-3.58l.28-.57A12.45,12.45,0,0,1,514.91,95Z"/><path d="M543.61,98.68h2.72c.54-.64,1-1.22,1.54-1.72s.68-.68,1-.68a6.28,6.28,0,0,1,2.08,1c1.22.86,1.86,1.47,1.86,1.79a1.19,1.19,0,0,1-.64.93,1.34,1.34,0,0,0-.47,1v7c0,1.08,0,2.54.11,4.48,0,.43-.61.78-1.76,1a10.37,10.37,0,0,1-1.18.11c-.64,0-1-.4-1-1.11v-1.15h-5v1.15c0,.43-.57.78-1.68,1a9.51,9.51,0,0,1-1.11.11,1,1,0,0,1-1.11-1.11c.07-1.22.14-2.44.14-3.65v-7a46.47,46.47,0,0,0-.28-5.05A38.1,38.1,0,0,1,543.61,98.68Zm4.26,5.58V99.65h-5v4.61Zm0,6.16v-5.19h-5v5.19ZM548.69,84h8.7c.57-.61,1.1-1.15,1.61-1.65a1.52,1.52,0,0,1,1-.61,6.71,6.71,0,0,1,2.19,1.08c1.32.93,2,1.54,2,1.86s-.32.68-.89,1a1.36,1.36,0,0,0-.65,1.07v3.47c0,1.18,0,2.76.14,4.76,0,.47-.64.82-1.93,1a12.71,12.71,0,0,1-1.29.1c-.64,0-1-.35-1-1.14v-.68H547.72v.82c0,.47-.6.83-1.78,1a8.39,8.39,0,0,1-1.15.07,1,1,0,0,1-1.11-1.11c.07-1.25.14-2.5.14-3.75V87.34a48.53,48.53,0,0,0-.28-5.16A34.46,34.46,0,0,1,548.69,84Zm9.95,4.76V85H547.72v3.8Zm0,4.58V89.73H547.72v3.62Zm.71,5.33h2.9c.57-.68,1.11-1.29,1.61-1.83a1.54,1.54,0,0,1,1.08-.68,7.28,7.28,0,0,1,2.18,1c1.32.93,2,1.54,2,1.9s-.25.68-.75,1a1.49,1.49,0,0,0-.5,1.07v6.59c0,1.14,0,2.68.14,4.61,0,.43-.64.79-1.86,1a11.64,11.64,0,0,1-1.21.1c-.68,0-1-.39-1-1.11v-1h-5.44v1.15c0,.43-.6.78-1.78,1a11.08,11.08,0,0,1-1.15.11,1,1,0,0,1-1.11-1.11c.07-1.29.14-2.51.14-3.8V102a48.67,48.67,0,0,0-.28-5.19A40.07,40.07,0,0,1,559.35,98.68Zm4.58,5.58V99.65h-5.44v4.61Zm0,6.16v-5.19h-5.44v5.19Z"/><path d="M578.61,85.69h2.54V84.4a15.62,15.62,0,0,0-.29-3.07c1.08.14,2.4.35,4,.57,1.43.14,2.18.39,2.18.71s-.4.75-1.18,1a1,1,0,0,0-.79.93v1.14h7.55V84.4a15.62,15.62,0,0,0-.29-3.07c1.08.14,2.44.35,4,.57s2.15.39,2.15.71-.4.75-1.18,1a1,1,0,0,0-.79.93v1.14h3.22a13.48,13.48,0,0,0,1.07-1.25c.72-.93,1.19-1.43,1.33-1.43.36,0,1,.46,1.79,1.39s1.29,1.47,1.29,1.68a.52.52,0,0,1-.58.58H596.5v3.07c0,.47-.61.79-1.75,1a11.46,11.46,0,0,1-1.18.1,1.26,1.26,0,0,1-.86-.21,3.13,3.13,0,0,1-.86.46c-.57.22-.9.43-.93.72v2h4.18a11.56,11.56,0,0,0,1.22-1.61c.47-.58.9-.9,1.33-.9a3.69,3.69,0,0,1,1.71.86c1.43,1,2.19,1.79,2.19,2.22a.79.79,0,0,1-.58.75c-.57.29-.82.65-.82,1.07v5.59h.43a7.11,7.11,0,0,0,.86-1c.61-.71,1-1.1,1.07-1.1.36,0,.86.39,1.58,1.14s1.11,1.22,1.11,1.4c0,.35-.15.53-.43.53H591.42a10.53,10.53,0,0,0,2.15,2.44,14,14,0,0,0,4.4,2.43,42.63,42.63,0,0,0,7.48,2l-.11.83a3.61,3.61,0,0,0-2.29,1.71c-.43.9-.79,1.36-1.07,1.36a7,7,0,0,1-2.33-.82,21.7,21.7,0,0,1-4-2.29,11,11,0,0,1-3.05-3,12.74,12.74,0,0,1-2.18-4.69h-.21a14,14,0,0,1-2.61,4.44,15.39,15.39,0,0,1-4.76,3.47,46.91,46.91,0,0,1-9.34,3l-.29-.58a36.59,36.59,0,0,0,8.34-4.22,12,12,0,0,0,4.08-4.69,10.05,10.05,0,0,0,.53-1.43h-8.48c-2,0-3.47.07-4.33.15l-.57-1.4a27.71,27.71,0,0,0,4.76.29v-2.4a43.89,43.89,0,0,0-.43-7.12,26.47,26.47,0,0,1,4.58,1.54h5.23c0-1.43-.18-3.19-.43-5.3,1.28.22,2.61.47,3.9.72a8.72,8.72,0,0,1,2.14.64,10.33,10.33,0,0,0,.11-1.22v-2h-7.55v3.07c0,.47-.61.79-1.79,1a10.17,10.17,0,0,1-1.14.1c-.76,0-1.11-.21-1.11-.68.07-.68.14-1.18.14-1.54v-2h-3.08a34.27,34.27,0,0,0-4.76.28l-.57-1.68A43.87,43.87,0,0,0,578.61,85.69Zm7.73,16.07a43.68,43.68,0,0,0,.54-7h-5.34v7Zm4.11,0h5.66v-7h-5.19A56.65,56.65,0,0,1,590.45,101.76Z"/><path d="M613.18,92.1a2.49,2.49,0,0,1,1.11,2,2.9,2.9,0,0,1-.93,2,2.19,2.19,0,0,1-1.61.64c-.47,0-.86-.46-1.18-1.47a12.15,12.15,0,0,0-2.29-4.11l.39-.72A15.33,15.33,0,0,1,613.18,92.1Zm4.72-2.65c-1,4.51-1.82,8-2.36,10.55a30.79,30.79,0,0,0-.71,5.12,16.74,16.74,0,0,0,.14,2.25,19.91,19.91,0,0,1,.57,3.87,1.78,1.78,0,0,1-.5,1.39,2.19,2.19,0,0,1-1.61.58,3.64,3.64,0,0,1-2.15-.58,1.68,1.68,0,0,1-.5-1.39,12.83,12.83,0,0,1,.32-2.33,17.6,17.6,0,0,0,.11-1.86,4.44,4.44,0,0,0-.36-1.89c-.25-.5-1-.93-2.32-1.33l.14-.82a7.67,7.67,0,0,0,2.79-.32,3.29,3.29,0,0,0,1-1.65l4.76-11.74Zm-2.47-6.3a2.47,2.47,0,0,1,1.08,2,3,3,0,0,1-.9,2,2.18,2.18,0,0,1-1.61.65c-.46,0-.86-.47-1.18-1.47a12.46,12.46,0,0,0-2.18-4.12l.43-.71A14.54,14.54,0,0,1,615.43,83.15Zm6.52.72h13.41a10.3,10.3,0,0,0,1.11-1.26c.79-.93,1.29-1.39,1.43-1.39.4,0,1,.46,1.9,1.36s1.33,1.5,1.33,1.71a.51.51,0,0,1-.58.54h-8V90h1.54c.43-.39.83-.79,1.18-1.14.54-.54.93-.83,1.22-.83a6.12,6.12,0,0,1,2.25,1.11c1.29,1,1.94,1.65,1.94,2s-.33.61-.93,1-.76.78-.76,1.14v12.85l.29,6.83c0,.43-.64.79-1.9,1a10.37,10.37,0,0,1-1.18.11c-.68,0-1-.4-1-1.15v-1.68H622.38v1.68c0,.43-.58.79-1.72,1a9.16,9.16,0,0,1-1.08.11c-.85,0-1.25-.4-1.25-1.15.18-2.5.29-4.76.29-6.69V94.64c0-1.69-.11-3.72-.29-6.16A23.94,23.94,0,0,1,622.7,90h1.5V84.83H622c-2,0-3.47.07-4.33.14l-.54-1.39A28.55,28.55,0,0,0,622,83.87Zm13.27,20.82v-4h-2.65a3.26,3.26,0,0,1-2.47-.79,2.52,2.52,0,0,1-.85-2.15V91h-1.69v.82a20.64,20.64,0,0,1-.68,5.62,8.3,8.3,0,0,1-1.93,3.25,10.29,10.29,0,0,1-2.57,2.15v1.86Zm-12.38-4.26a12.19,12.19,0,0,0,1-3,38.9,38.9,0,0,0,.36-5.58V91h-1.82v10.37A10.1,10.1,0,0,0,622.84,100.43Zm12.38,9.84v-4.61H622.38v4.61Zm-6-25.44h-1.69V90h1.69ZM632.57,97c0,.39.29.57.86.57h1.79V91h-2.65Z"/><path d="M663.85,82c.93,0,1.43.29,1.43.76,0,.14-.28.35-.86.6s-.93.58-.93.93v1.94h5.87A9.65,9.65,0,0,0,670.51,85c1-1.21,1.61-1.82,1.93-1.82s1.14.68,2.58,2c.86.82,1.32,1.32,1.32,1.54,0,.39-.25.57-.72.57h-23.9v3.18a96.53,96.53,0,0,1-.5,10.34,27.6,27.6,0,0,1-2.22,7.41,25.06,25.06,0,0,1-3.68,5.48l-.72-.29a41.76,41.76,0,0,0,2.33-8.41,103.32,103.32,0,0,0,.75-14.53,30.44,30.44,0,0,0-.43-6.12,27.86,27.86,0,0,1,5.26,1.94h6.91V84.55a20.06,20.06,0,0,0-.29-3.22C660.77,81.5,662.35,81.72,663.85,82Zm.86,7c.93.07,1.43.32,1.43.75,0,.15-.32.36-.89.61s-.93.58-.93.93v2.79h4.9a11.72,11.72,0,0,0,1.14-1.28c1-1.19,1.62-1.79,1.94-1.79s1.14.68,2.57,2c.86.83,1.33,1.33,1.33,1.54,0,.36-.25.54-.72.54H664.32v6.73h3.9c.53-.61,1-1.15,1.54-1.65a1.47,1.47,0,0,1,1-.61,6.46,6.46,0,0,1,2,1c1.21.86,1.86,1.47,1.86,1.75s-.29.72-.79,1a1.31,1.31,0,0,0-.61,1.07v3.51c0,1.15,0,2.68.15,4.62,0,.43-.65.78-1.86,1a12,12,0,0,1-1.22.11c-.64,0-1-.4-1-1.11v-1.15H657.05v1.25c0,.47-.6.83-1.79,1a10.73,10.73,0,0,1-1.14.11c-.75,0-1.11-.39-1.11-1.15.07-1.25.11-2.46.11-3.75v-3.65c0-1.76-.11-3.47-.25-5.15a33.07,33.07,0,0,1,4.79,1.68h2.61V91.56a20.12,20.12,0,0,0-.28-3.22C661.6,88.52,663.17,88.73,664.71,89Zm4.65,21.44v-7.7H657.05v7.7Z"/></g></g></svg>