<?xml version="1.0" encoding="utf-8"?>
<!-- Generator: Adobe Illustrator 26.0.2, SVG Export Plug-In . SVG Version: 6.00 Build 0)  -->
<svg version="1.1" id="圖層_1" xmlns="http://www.w3.org/2000/svg" xmlns:xlink="http://www.w3.org/1999/xlink" x="0px" y="0px"
	 viewBox="0 0 811.4 122.2" style="enable-background:new 0 0 811.4 122.2;" xml:space="preserve">
<style type="text/css">
	.st0{enable-background:new    ;}
	.st1{fill:#FFFFFF;}
	.st2{font-family:'NotoSerifCJKtc-SemiBold-B5pc-H';}
	.st3{font-size:59.907px;}
	.st4{letter-spacing:-5;}
	.st5{fill-rule:evenodd;clip-rule:evenodd;fill:#FFFFFF;}
	.st6{fill:none;stroke:#FFFFFF;stroke-width:2;stroke-miterlimit:10;}
</style>
<g class="st0">
	<path class="st1" d="M12.2,14.7c-0.1,0.4-0.5,0.6-1.2,0.6c-0.9,2.4-2.1,4.6-3.3,6.6l1.3,0.5c-0.1,0.3-0.4,0.5-1,0.6v18.3
		c-0.1,0.2-1.3,0.9-2.4,0.9H5.1V25.6c-1.2,1.5-2.6,2.9-4,4l-0.4-0.3c2.7-3.8,5.6-10,7.1-16.1L12.2,14.7z M26.6,35.5
		c0,0,2.2,1.7,3.5,3C30,38.8,29.7,39,29.2,39H9.7l-0.3-1h15.3L26.6,35.5z M11,19.6h12.5l1.9-2.5c0,0,2.1,1.7,3.4,3
		c-0.1,0.3-0.4,0.5-0.9,0.5H11.2L11,19.6z"/>
	<path class="st1" d="M60.3,22.5c-0.2,0.2-0.6,0.3-1.1,0.3c-0.8,0.8-2.1,1.9-3.1,2.5l-0.2-0.1c2.7,2.4,0.7,5.5-1.3,3.8
		c-0.1-1.8-1.3-4-2.4-5.3l0.3-0.2c1.5,0.4,2.5,1,3.3,1.6c0.2-0.7,0.3-1.8,0.4-2.7H35.3c0.2,1.8-0.3,3.1-1.1,3.6
		c-0.7,0.6-2,0.5-2.3-0.4c-0.3-0.9,0.2-1.6,1-2c0.8-0.6,1.5-2.2,1.2-3.7l0.5,0c0.2,0.6,0.4,1.1,0.6,1.6h14.9c1-1.6,2-3.7,2.6-5.3
		l3.8,1.5c-0.2,0.4-0.6,0.6-1.2,0.5c-1,1.1-2.6,2.3-4.2,3.4H56l1.6-1.6L60.3,22.5z M55.7,33.4c-0.3,0.3-0.6,0.4-1.4,0.4
		c-1.3,1.6-2.9,3-4.8,4c3.1,0.7,6.6,1,10.1,1.1v0.4c-1.3,0.3-2.1,1.3-2.4,2.8c-4.1-0.5-7.9-1.3-11.1-2.6c-3.8,1.5-8.4,2.3-13.5,2.6
		l-0.1-0.5c4.3-0.6,8.2-1.6,11.5-3.1c-1.5-0.8-2.8-1.7-4-2.8c-1.9,1.2-4,2.2-6.1,2.9l-0.2-0.4c1.7-1,3.5-2.4,5-3.9
		c-0.7-0.8-1.4-1.8-1.9-2.8l0.4-0.3c0.6,0.9,1.4,1.7,2.2,2.3c1.1-1.2,2-2.5,2.6-3.6l3.7,1.2c-0.1,0.3-0.5,0.5-1.1,0.4
		c-0.2,0.3-0.4,0.6-0.7,0.8h7.4l1.8-1.5L55.7,33.4z M37.7,23.6c1,3,0,5-1.2,5.7c-0.8,0.5-2,0.3-2.3-0.5c-0.3-0.8,0.3-1.5,1-1.9
		c1.1-0.5,2.1-1.8,2.1-3.3H37.7z M57.2,15.8c-0.3,0.3-1,0.2-1.8-0.1c-5.4,0.6-13.4,1.1-20.3,1L35.1,16c6.7-0.5,15.1-1.8,19.6-2.9
		L57.2,15.8z M37.1,17c6.2,1.2,3.7,5.6,1.4,3.8c-0.1-1.3-0.9-2.7-1.7-3.6L37.1,17z M42.9,23.5c-0.1,0.4-0.3,0.7-0.9,0.7v2.8
		c0,0.4,0.1,0.4,1.3,0.4h3.4c1.4,0,2.6,0,3.1,0c0.4,0,0.6-0.1,0.7-0.2c0.2-0.3,0.6-1.1,1-2.1h0.3l0.1,2.1c0.8,0.3,1,0.6,1,1
		c0,1.1-1.1,1.5-6.5,1.5h-3.7c-2.8,0-3.3-0.5-3.3-2.2v-4.4L42.9,23.5z M43,33.3c-0.6,0.5-1.2,1.1-1.8,1.6c1.6,0.9,3.4,1.7,5.5,2.3
		c1.8-1.1,3.3-2.4,4.4-3.8H43z M43.8,16.7c6.1,1.6,3.4,5.9,1.2,4c-0.1-1.3-0.8-2.9-1.5-3.8L43.8,16.7z M44.4,22.7
		c6.4,0.9,4.3,5.5,2,3.9c-0.2-1.3-1.3-2.8-2.3-3.7L44.4,22.7z"/>
	<path class="st1" d="M84.1,21.6c1.3,4.9,4.1,9.3,7.4,11.5l-0.1,0.3c-1.3,0.9-2,2.1-2.2,3.6c-3-3.4-4.8-9.2-5.7-15.1v19
		c0,0.3-1.2,1.1-2.3,1.1h-0.5V27.5c-2,3.8-4.8,7.1-8.5,9.8L71.8,37c4-4,6.6-9.7,8-15.4h-4.2l-0.1-0.2c-0.2,0.2-0.4,0.3-0.7,0.3h-4.5
		v2.2c7.4,2.7,4.8,7.8,2.2,5.6c-0.2-1.6-1.2-3.5-2.2-5v16.7c0,0.3-1.2,0.9-2.3,0.9h-0.6V28.9c-1.4,2.6-3.2,5-5.4,7l-0.4-0.4
		c2.7-3.8,4.5-8.9,5.5-13.9h-4.8L62,20.7h5.4v-7.5l4,0.4c-0.1,0.5-0.3,0.8-1.1,0.9v6.2h0.9l1.6-2.1c0,0,1.6,1.3,2.6,2.3l-0.1-0.2
		h5.4v-7.4l4,0.4c-0.1,0.4-0.3,0.7-1.2,0.9v6.1h2.8l1.7-2.2c0,0,1.8,1.5,3,2.6c-0.1,0.3-0.4,0.5-0.8,0.5H84.1z"/>
	<path class="st1" d="M98.3,17.1h-5.4l-0.2-0.9h5.5l-0.4-3l3.9,0.3c0,0.3-0.2,0.7-0.9,0.8l0.2,1.8h1.7l1.5-2c0,0,1.7,1.4,2.7,2.4
		c-0.1,0.3-0.4,0.5-0.8,0.5h-5l0.2,1.9c-0.4,0.6-1.5,0.8-2.8,0.8L98.3,17.1z M103.8,22.5c-0.2,0.3-0.7,0.3-1.4,0.3
		c-0.9,1.5-2.4,4-3.6,5.4c3.1,1.7,4.3,3.8,4.3,5.9c0,2.5-1,3.7-4,3.8c0-0.7-0.1-1.5-0.4-1.8c-0.2-0.2-0.7-0.4-1.4-0.6v-0.4h2
		c0.4,0,0.6,0,0.8-0.2c0.3-0.2,0.5-0.7,0.5-1.5c0-1.8-0.8-3.5-2.6-5.2c0.5-1.6,1.3-4.2,1.8-6.1h-2.6v19.1c0,0.2-0.8,0.8-2.1,0.8
		h-0.4v-22l3,1.2h2.1l1.5-1.4L103.8,22.5z M112.5,20.2c-0.1,0.3-0.4,0.5-1.2,0.6c2.1,1.6,5.5,2.8,9.1,3.3l0,0.4
		c-0.9,0.3-1.4,1.4-1.5,2.4c-3.3-1.2-6.2-3.3-7.9-5.8c-1.9,2.2-5.8,4.9-9.9,6.2l-0.2-0.3c3.4-1.8,6.8-5.1,8.1-7.7L112.5,20.2z
		 M117.2,32.5c0,0,1.7,1.2,2.8,2.2c-0.1,0.3-0.4,0.5-0.8,0.5h-9.7l2.4,0.8c-0.1,0.3-0.5,0.6-1.2,0.5c-1.2,0.9-3.1,2-5,2.8
		c2.5,0,5.9-0.1,9.5-0.2c-0.7-1.1-1.4-2.1-2.2-2.8l0.3-0.2c7.8,2.3,5.7,7.7,3.1,5.8c-0.1-0.7-0.4-1.3-0.7-2c-2.6,0.6-6.5,1.3-10.9,2
		c-0.1,0.2-0.3,0.3-0.5,0.4l-1.4-2.9c0,0,0.5-0.1,0.7-0.2c1.6-0.7,3.4-2.6,4.4-3.9h-4.5l-0.2-0.9h12.6L117.2,32.5z M111.2,31.1
		c0.6-0.8,1.3-2.1,1.7-3.2H105l-0.3-0.9h8.4l1.4-1.2l2.3,1.8c-0.2,0.2-0.6,0.3-1.2,0.3c-0.7,1.1-1.8,2.3-3.2,3.1h1.5l1.3-1.6
		c0,0,1.5,1.1,2.5,2c-0.1,0.3-0.3,0.5-0.7,0.5h-12.7l-0.2-0.9H111.2z M111.9,23c0,0,1.2,1,2,1.8c-0.1,0.3-0.3,0.5-0.8,0.5h-5.9
		l-0.2-0.9h3.7L111.9,23z M118.2,14.2c0,0,1.7,1.4,2.7,2.4c0,0.3-0.3,0.5-0.8,0.5h-5.9l-0.3,2.1c-0.5,0.4-1.7,0.6-2.9,0.3l0.4-2.4
		h-3.6l-0.2-0.9h4l0.5-3l3.8,0.7c-0.1,0.4-0.4,0.7-1.2,0.7l-0.2,1.6h2.3L118.2,14.2z"/>
	<path class="st1" d="M128.6,17.6c-1.7,2.2-3.6,4-5.6,5.2l-0.4-0.3c1.9-2.2,3.8-5.8,4.9-9.5l4,1.4c-0.2,0.3-0.5,0.6-1.2,0.6
		c-0.3,0.6-0.7,1.2-1,1.7h4.4l1.4-1.9c0,0,1.7,1.3,2.6,2.3c-0.1,0.3-0.4,0.5-0.8,0.5H128.6z M148.1,30.5l2.8,2.3
		c-0.2,0.2-0.6,0.4-1.2,0.5c-0.3,3.5-1,5.5-2.3,6.4c-0.8,0.5-1.9,0.8-3.3,0.8c0-0.8-0.1-1.5-0.5-1.9c-0.4-0.4-1.4-0.7-2.6-0.9v-0.5
		c1.1,0.1,3,0.2,3.6,0.2c0.5,0,0.7,0,1-0.2c0.5-0.4,1-1.9,1.2-4.3h-8v8.5c0,0.2-1,0.8-2.5,0.8h-0.6V35c-3.1,2.9-7.4,5-12.5,6.4
		L123,41c4.5-1.9,8.4-4.9,10.8-8.1h-5l-1.2,1.3l-2.8-1.9c0.3-0.2,0.7-0.5,1.2-0.7c0.4-1.7,0.9-4.4,1-5.9l3.3,1.5h5.4v-3.7h-10.3
		l-0.3-0.9H145l1.4-1.5l3,2.2c-0.2,0.2-0.6,0.5-1.2,0.6v4.7c0,0.2-1.5,0.8-2.4,0.8h-0.5v-1.3h-6.5V32h7.8L148.1,30.5z M135.8,32
		v-3.7h-6.2c-0.2,1.2-0.5,2.6-0.7,3.7H135.8z M130,18.2c5.8,0.8,3.6,5,1.5,3.3c-0.2-1.1-1-2.4-1.8-3.1L130,18.2z M148.8,14.6
		c0,0,1.8,1.4,2.9,2.4c-0.1,0.3-0.4,0.5-0.8,0.5h-10c-1.3,1.7-2.9,3.1-4.5,4l-0.4-0.3c1.6-2,3.1-5.1,4-8.3l3.9,1.5
		c-0.2,0.4-0.5,0.6-1.2,0.5c-0.3,0.6-0.7,1.1-1,1.7h5.6L148.8,14.6z M138.8,27.3h6.5v-3.7h-6.5V27.3z M142.2,18.2
		c6.1,0.5,3.9,4.9,1.6,3.2c-0.2-1.1-1.1-2.3-1.9-3L142.2,18.2z"/>
	<path class="st1" d="M175.6,26.3l2.3-3.1c0,0,2.6,2.2,4.2,3.7c-0.1,0.4-0.5,0.5-1,0.5h-27.6l-0.3-1H175.6z"/>
	<path class="st1" d="M196.8,32c-1.8,0.9-4.4,2.1-7.6,3.6v5.7c0,0.2-0.8,0.9-2.4,0.9h-0.4v-5.4l-0.9,0.4c-0.2,0.4-0.4,0.7-0.7,0.8
		l-1.7-3.4c0.8-0.1,1.9-0.3,3.4-0.7V15.3l2.9,1.4c1.5-1,3-2.2,4.3-3.4l3.3,2.6c-0.2,0.3-0.5,0.3-1.1,0.2c-1.9,0.7-4.5,1.3-6.6,1.7
		v4.3h2.5l1.6-2c0,0,1.8,1.4,2.8,2.4c-0.1,0.3-0.4,0.5-0.8,0.5h-6v4.8h2.5l1.6-2.1c0,0,1.8,1.5,2.9,2.5c-0.1,0.3-0.4,0.5-0.8,0.5
		h-6.2v4.5c2.3-0.5,4.9-1.1,7.5-1.7L196.8,32z M210.7,28.3c-0.2,0.3-0.5,0.4-1.3,0.4c-1.1,2.6-2.6,5.1-4.6,7.1
		c2.3,1.7,5,2.8,8.1,3.6l-0.1,0.3c-1.2,0.2-2.2,1.1-2.6,2.5c-2.9-1.2-5.3-2.7-7.2-4.8c-2.8,2.1-6.3,3.8-10.8,4.9l-0.2-0.4
		c4.1-1.5,7.3-3.5,9.8-6.1c-1.4-2-2.4-4.5-3.1-7.5h-2l-0.3-0.9h9.8l1.7-1.7L210.7,28.3z M195.4,26.4c2.6-2.4,3-5.5,3-8.1v-4l3.2,1.2
		h3.4l1.4-1.5l2.8,2.3c-0.2,0.2-0.6,0.4-1.2,0.5v5.2c0,0.3,0.1,0.4,0.4,0.4h0.7h0.7c0.1,0,0.3,0,0.5,0c0.2,0,0.4-0.1,0.6-0.1h0.3
		l0.1,0.1c0.7,0.3,1,0.6,1,1.1c0,1.1-1,1.6-3.6,1.6h-1.3c-2,0-2.2-0.6-2.2-2.3v-6.3h-4.1v1.9c0,2.5-0.6,6.3-5.4,8.5L195.4,26.4z
		 M199.3,28.2c0.8,2.4,2.1,4.4,3.8,6c1.4-1.8,2.5-3.8,3.3-6H199.3z"/>
	<path class="st1" d="M256.5,20.7c-0.2,0.2-0.7,0.5-1.3,0.7v10.5c0,0.2-1.6,0.8-2.6,0.8H252v-2.6h-7.9v11c0,0.3-1.3,1.1-2.5,1.1H241
		V30.1h-7.9v2c0,0.3-1.3,1-2.6,1h-0.5V18.6l3.3,1.4h7.6v-6.8l4.3,0.4c-0.1,0.4-0.3,0.8-1.2,0.9V20h7.6l1.5-1.7L256.5,20.7z
		 M241,29.2v-8.3h-7.9v8.3H241z M252,29.2v-8.3h-7.9v8.3H252z"/>
	<path class="st1" d="M284,37.2c0,0,2.2,1.7,3.6,2.9c-0.1,0.3-0.4,0.5-0.9,0.5h-27.8l-0.3-0.9h4.6V23.6l4.3,0.4
		c-0.1,0.4-0.3,0.7-1.2,0.8v14.8h5.5V17.2h-11.6l-0.2-0.9h20.9l1.9-2.5c0,0,2.2,1.7,3.6,2.9c-0.1,0.3-0.4,0.5-0.8,0.5h-10.5v10h4.7
		l1.9-2.4c0,0,2.1,1.7,3.5,2.8c-0.1,0.3-0.4,0.5-0.9,0.5h-9.2v11.6h6.9L284,37.2z"/>
	<path class="st1" d="M312.6,21.1c-1.2,5.1-3.4,9.5-7,13c3.6,2.5,7.8,4.1,12.5,5.1l-0.1,0.4c-1.5,0.2-2.6,1.1-3.2,2.6
		c-4.5-1.4-8.3-3.4-11.3-6.2c-3.6,2.8-8.3,4.9-14.4,6.3l-0.2-0.4c5.5-1.8,9.8-4.4,13-7.4c-3-3.3-5.1-7.7-6.3-13.2h-6.2l-0.2-0.9
		h23.1l2-2.6c0,0,2.2,1.7,3.5,2.9c-0.1,0.3-0.4,0.5-0.9,0.5H312.6z M296.3,21.1c1.4,4.9,3.9,8.6,7.3,11.4c2.8-3.3,4.5-7.1,5.4-11.4
		H296.3z M300.3,13.3c8.8,1.6,6.4,7.9,3.4,5.8c-0.4-1.9-2.1-4.2-3.6-5.6L300.3,13.3z"/>
	<path class="st1" d="M346.1,21.1c-0.6,4.8-1.8,9-4.1,12.5c1.8,2.4,4,4.4,7,5.8l-0.1,0.3c-1.4,0.2-2.2,1-2.6,2.3
		c-2.5-1.7-4.4-3.9-5.8-6.5c-2.5,2.8-5.9,5.1-10.8,6.7l-0.2-0.4c4.7-2.3,7.8-5.3,9.9-8.8c-1-2.5-1.6-5.2-2.1-8.1
		c-1.1,1.9-2.3,3.6-3.7,5l-0.4-0.3c1-1.9,1.9-4.2,2.7-6.7c-0.2,0.2-0.4,0.3-0.7,0.3h-4.9c-0.9,1.1-1.9,2.2-3.1,3.3h2.6l1.5-1.5
		l2.7,2.4c-0.2,0.2-0.6,0.3-1.2,0.4c-0.9,0.6-2.1,1.4-3.4,2.1l0.8,0.1c-0.1,0.4-0.4,0.7-1,0.8v1.5c1.9-0.2,3.9-0.6,6-0.9l0.1,0.5
		c-1.7,0.6-3.6,1.2-6.1,1.9v4.9c0,2.1-0.4,3.3-4,3.6c-0.1-0.9-0.2-1.6-0.7-2c-0.5-0.4-1.2-0.8-2.6-1v-0.4c0,0,3.2,0.2,3.8,0.2
		c0.5,0,0.7-0.1,0.7-0.5v-3.9c-1.4,0.4-3,0.9-4.7,1.3c-0.2,0.4-0.5,0.7-0.8,0.7l-1.3-3.2c1.4-0.1,3.8-0.4,6.8-0.8v-3.1l1.7,0.2
		c0.6-0.7,1.2-1.6,1.6-2.3h-3.4c-2.1,1.8-4.4,3.5-7,4.8l-0.3-0.4c1.9-1.3,3.6-2.8,5.2-4.4h-3.2l-0.3-0.9h4.3
		c0.9-1.1,1.8-2.1,2.6-3.3h-8.1l-0.2-0.9h5.7v-4h-4.1l-0.2-0.9h4.4v-4.1l4,0.3c-0.1,0.5-0.3,0.7-1.2,0.9v2.9h0.3l1.3-1.8
		c0,0,1,0.8,1.9,1.7c0.6-1.2,1.1-2.3,1.6-3.4l3.6,1.7c-0.2,0.3-0.5,0.5-1.3,0.4c-1.1,2.1-2.4,4.3-4.1,6.5h1l1.4-1.8
		c0,0,1.5,1.3,2.5,2.2c0.9-2.9,1.6-6.1,2-9.3l4.3,1.1c-0.1,0.4-0.5,0.7-1.2,0.7c-0.4,1.8-1,3.5-1.6,5h4.4l1.7-2.2
		c0,0,1.9,1.6,3.1,2.6c-0.1,0.3-0.4,0.5-0.8,0.5H346.1z M328.3,22.3c0.9-1.3,1.8-2.6,2.5-4h-3v4H328.3z M339.1,21.1
		c-0.4,1-0.8,1.9-1.3,2.8c0.6,2.6,1.4,5,2.6,7.2c1.3-3,2.1-6.3,2.4-10H339.1z"/>
	<path class="st1" d="M375.1,37.2c0,0,2.2,1.7,3.6,2.9c-0.1,0.3-0.4,0.5-0.9,0.5H350l-0.3-0.9h4.6V23.6l4.3,0.4
		c-0.1,0.4-0.3,0.7-1.2,0.8v14.8h5.5V17.2h-11.6l-0.2-0.9h20.9l1.9-2.5c0,0,2.2,1.7,3.6,2.9c-0.1,0.3-0.4,0.5-0.8,0.5h-10.5v10h4.7
		l1.9-2.4c0,0,2.1,1.7,3.5,2.8c-0.1,0.3-0.4,0.5-0.9,0.5h-9.2v11.6h6.9L375.1,37.2z"/>
	<path class="st1" d="M387.5,24.6c6.4,3.1,4,7.6,1.8,5.6c-0.1-1.5-1-3.4-1.8-4.9v15.9c0,0.3-1.2,1-2.2,1h-0.6V28.9
		c-1.2,2.3-2.7,4.5-4.6,6.3l-0.4-0.4c2.4-3.6,3.9-8.6,4.6-13.3h-3.9l-0.2-0.9h4.6v-7.5l3.9,0.4c-0.1,0.5-0.3,0.7-1.2,0.9v6.2h0.6
		l1.5-1.9c0,0,1.6,1.4,2.6,2.3c-0.1,0.3-0.4,0.5-0.8,0.5h-3.9V24.6z M388.6,41.6c6.9-3.1,12.7-7.3,16.9-14.6l3.7,2.1
		c-0.2,0.3-0.6,0.4-1.4,0.3c-1.5,2.1-3.2,3.9-5,5.4c8.8,2.9,6.6,8.8,3.5,6.7c-0.7-2-2.6-4.3-4.2-6.1c-3.9,3.1-8.3,5.2-13.4,6.7
		L388.6,41.6z M390.9,19.6l-0.2-0.9h13.9l1.7-2.3c0,0,1.9,1.6,3,2.7c-0.1,0.3-0.4,0.5-0.8,0.5h-9.5l2.4,0.9
		c-0.1,0.3-0.5,0.6-1.2,0.5c-1.4,1.7-3.7,3.7-5.8,5.2c1.7-0.1,3.9-0.2,6.3-0.3c0.9-1.3,1.8-2.6,2.6-4.1l3.6,1.9
		c-0.2,0.3-0.5,0.4-1.3,0.3c-4.1,5.9-9.4,9.7-15.9,12.3l-0.3-0.5c4-2.2,7.5-5,10.5-8.7c-1.7,0.5-3.7,1.1-5.9,1.6
		c-0.2,0.4-0.5,0.6-0.8,0.7l-1.1-3.2c0,0,0.6-0.1,0.8-0.3c1.6-1.2,3.6-4.3,4.5-6.3H390.9z M396.9,13.1c7.5,1.6,4.9,6.9,2.1,4.9
		c-0.3-1.6-1.4-3.5-2.4-4.7L396.9,13.1z"/>
	<path class="st1" d="M414.8,22.6c1.9,5.6,0.8,9.5-0.6,11.4c-0.9,1.4-2.4,1.7-3.2,0.9c-0.7-0.7-0.4-1.7,0.2-2.5
		c1.6-1.6,3.1-5.5,3.1-9.8L414.8,22.6z M422.5,19.3c0,0.4-0.3,0.7-1.1,0.8v16.6c0,0.8,0.3,1.1,1.9,1.1h4c1.7,0,3,0,3.6-0.1
		c0.5-0.1,0.7-0.2,0.9-0.6c0.4-0.7,0.9-2.6,1.5-5h0.4l0.1,5.3c1,0.4,1.3,0.7,1.3,1.3c0,1.5-1.5,2.1-7.9,2.1h-4.2
		c-3.4,0-4.5-0.6-4.5-3.2V18.8L422.5,19.3z M427.3,22.2c-0.6-2.8-2.8-6.2-4.6-8.4l0.3-0.2C432.9,17.7,430.6,24.6,427.3,22.2z
		 M436.7,34.4c-0.3-2.9-1.3-7.7-4-10.9l0.3-0.2C443.1,29.8,439.3,37.6,436.7,34.4z"/>
</g>
<g class="st0">
	<path class="st1" d="M517.6,100.6v5.1h-30.1v-4.1c4.2-4.4,8.5-8.9,11.7-12.4c7.5-8.1,10.5-13.7,10.5-19.4c0-6.1-3.5-10.3-9.4-10.3
		c-1.3,0-2.9,0.1-4.5,0.6l-1.7,5.3c-0.8,2.9-1.8,4.2-3.6,4.2c-1.5,0-2.5-0.8-3.3-2.1c1.2-7.2,7.5-10.8,14.6-10.8
		c9.2,0,13.5,5.1,13.5,12.6c0,6.3-3.3,11.2-14.2,22.1c-1.9,2-5.4,5.5-9.1,9.2H517.6z"/>
	<path class="st1" d="M532.1,64.2c-0.7,2.8-1.5,4-3.7,4c-1.4,0-2.6-0.6-3.2-2.4c1.5-6.3,7.2-9.2,13.6-9.2c8.4,0,13.7,4.8,13.7,11.7
		c0,5.6-3.7,10-10.2,12.1c7.8,1.4,11.7,5.9,11.7,12.3c0,8.1-6.6,14-16.2,14c-7,0-12.4-3-13.9-10c0.7-1.4,1.8-2.1,3.2-2.1
		c2,0,2.8,1.4,3.7,4.4l1.3,4.2c1.7,0.5,3.3,0.8,4.9,0.8c7.6,0,11.5-4.2,11.5-11.1c0-6.9-4-11-12-11h-3.5V79h2.9
		c6.8,0,11.2-3.8,11.2-10.5c0-5.7-3.4-9-9.4-9c-1.4,0-2.8,0.1-4.4,0.5L532.1,64.2z"/>
	<path class="st1" d="M563.3,104.9c13.4-4.5,19.7-11.9,21.3-22.5c-2.7,2.7-6.1,4.1-10.2,4.1c-8.1,0-14.4-5.6-14.3-14.7
		c0-9,6.3-15.1,15.3-15.1c9.3,0,15.1,7.4,15.1,19.4c0,14.1-8,26.3-26.7,31L563.3,104.9z M584.8,79.3c0.1-0.8,0.1-1.5,0.1-2.3
		c0-11.9-4.1-17.5-9.8-17.5c-5.2,0-9.6,4-9.6,11.8c0,7.9,4.6,11.7,10.6,11.7C579.5,82.9,582.3,81.8,584.8,79.3z"/>
	<path class="st1" d="M627.7,57.7v3.1l-17.7,44.9h-5l-0.7-0.7l19.5-42.2h-25.9v-5.1H627.7z"/>
	<path class="st1" d="M634,85.2h17.2v4H634V85.2z"/>
	<path class="st1" d="M686.7,103.5v2.2h-26.9v-2.2l10.8-1.3c0.1-4.1,0.1-8.1,0.1-12.1v-28l-10.2,1.2v-2.5l14.7-3.8l1,0.8l-0.3,10.6
		v21.7c0,4,0.1,8.1,0.1,12.1L686.7,103.5z"/>
	<path class="st1" d="M724.2,94.3c0,7.4-6.3,12.4-14.9,12.4c-9,0-15-4.2-15-11.9c0-5.7,3.8-9.3,10.9-12.9c-6.5-3.5-9.3-7.9-9.3-13
		c0-7.6,6-12.2,13.5-12.2c7.6,0,12.5,4.7,12.5,11.5c0,3.8-2.2,8.1-9.1,12C720.7,83.9,724.2,87.8,724.2,94.3z M719,94.7
		c0-4.5-2.8-7.6-11.6-11.7c-5.4,3.2-8,6.1-8,11.3c0,5.8,4,9.8,10,9.8C715.3,104,719,100.1,719,94.7z M710.6,79.1
		c4.8-3.3,6.8-6.4,6.8-10.8c0-4.8-2.9-8.8-8.1-8.8c-4.5,0-8.5,3.1-8.5,8.1C700.8,71.7,702.9,75.5,710.6,79.1z"/>
	<path class="st1" d="M761,94.3c0,7.4-6.3,12.4-14.9,12.4c-9,0-15-4.2-15-11.9c0-5.7,3.8-9.3,10.9-12.9c-6.5-3.5-9.3-7.9-9.3-13
		c0-7.6,6-12.2,13.5-12.2c7.6,0,12.5,4.7,12.5,11.5c0,3.8-2.2,8.1-9.1,12C757.5,83.9,761,87.8,761,94.3z M755.8,94.7
		c0-4.5-2.8-7.6-11.6-11.7c-5.4,3.2-8.1,6.1-8.1,11.3c0,5.8,4,9.8,10,9.8C752.1,104,755.8,100.1,755.8,94.7z M747.3,79.1
		c4.8-3.3,6.8-6.4,6.8-10.8c0-4.8-2.9-8.8-8-8.8c-4.5,0-8.5,3.1-8.5,8.1C737.6,71.7,739.6,75.5,747.3,79.1z"/>
	<path class="st1" d="M797.8,94.3c0,7.4-6.3,12.4-14.9,12.4c-9,0-15-4.2-15-11.9c0-5.7,3.8-9.3,10.9-12.9c-6.5-3.5-9.3-7.9-9.3-13
		c0-7.6,6-12.2,13.5-12.2c7.6,0,12.5,4.7,12.5,11.5c0,3.8-2.2,8.1-9.1,12C794.3,83.9,797.8,87.8,797.8,94.3z M792.6,94.7
		c0-4.5-2.8-7.6-11.6-11.7c-5.4,3.2-8.1,6.1-8.1,11.3c0,5.8,4,9.8,10,9.8C788.8,104,792.6,100.1,792.6,94.7z M784.1,79.1
		c4.8-3.3,6.8-6.4,6.8-10.8c0-4.8-2.9-8.8-8-8.8c-4.5,0-8.5,3.1-8.5,8.1C774.4,71.7,776.4,75.5,784.1,79.1z"/>
</g>
<g class="st0">
	<path class="st1" d="M245.1,100.9v5.6h-27.7v-4.3c3.6-3.7,7.1-7.4,10-10.4c6.7-7.1,9.4-11.8,9.4-17.3s-3.1-9-8-9
		c-0.9,0-2,0.1-3.2,0.4l-1.4,5.1c-0.7,3.2-2,4.3-3.8,4.3c-1.4,0-2.6-0.8-3.3-2.1c0.8-6.6,6.8-10.1,13.7-10.1
		c8.6,0,12.6,4.7,12.6,11.4c0,5.8-3.7,10.5-14,19.5c-1.9,1.7-4.6,4.3-7.7,7H245.1z"/>
</g>
<g class="st0">
	<path class="st1" d="M259.2,82.1c0,9.3-0.7,21.4-10.5,29.5l-0.7-0.5c5.7-8.5,6.3-19.1,6.3-29V66.4l4.6,1.8
		c10.1-1.2,22.4-3.4,29.1-5.3l4.9,5c-0.6,0.5-1.7,0.5-3.2-0.2c-8,0.9-20.1,1.6-30.6,1.6V73h27.3l2.4-2.6l5.2,3.8
		c-0.3,0.4-1.1,0.8-2.1,1.1v7.4c-0.1,0.4-2.5,1.4-4.2,1.4h-0.8V82h-27.8V82.1z M290.7,85.9c0,0,3.1,2.4,5.1,4.2
		c-0.2,0.6-0.7,0.8-1.4,0.8h-19.8c-0.2,1.8-0.4,3.5-0.8,5.2h11.4l2.6-2.5l4.8,4c-0.3,0.4-1,0.7-2.1,0.8c-0.6,6.2-1.8,10.2-4,11.6
		c-1.5,0.9-3.4,1.5-5.9,1.5c0-1.4-0.2-2.6-0.9-3.3c-0.8-0.7-2.7-1.4-4.8-1.7v-0.7c2.1,0.2,5.6,0.4,6.7,0.4c0.9,0,1.4-0.1,1.8-0.4
		c0.9-0.7,1.7-3.8,2.2-8.2h-12.3c-1.7,5.4-6,10.4-16.4,14.2l-0.5-0.8c11.3-6.1,12.4-13.2,12.6-20.1h-8.3l-0.4-1.5h17
		c-0.4-0.1-0.9-0.2-1.4-0.5c-0.5-1.9-2-4.2-3.2-5.5L273,83c9,0.6,8,6,5,6.4h10L290.7,85.9z M259.2,74.5v6h27.8v-6H259.2z"/>
	<path class="st1" d="M303.4,75.2c-1.1,1.2-2.3,2.2-3.4,3.1l-0.7-0.5c2.6-3.6,5.2-9.2,6.7-14.9l5.7,2.1c-0.2,0.6-0.9,1.1-2,1
		c-0.6,1.3-1.3,2.5-2.1,3.7l0.7,0.3h9.5l2.2-2.6c0,0,2.5,1.9,4,3.3c-0.1,0.6-0.6,0.8-1.3,0.8h-6.5v4.5h1.5l1.9-2.4
		c0,0,1.8,1.4,3.1,2.7c2.2-3.4,4.2-8.4,5.2-13.4l5.8,1.9c-0.2,0.6-0.8,1.1-1.9,1.1c-0.6,1.3-1.2,2.6-1.9,3.8l0.8,0.3h10.6l2.2-2.6
		c0,0,2.5,1.9,4.1,3.3c-0.2,0.6-0.6,0.8-1.4,0.8H339v4.5h1.8l1.9-2.5c0,0,2.3,1.7,3.7,3.2c-0.1,0.6-0.6,0.8-1.3,0.8H339v4.7h1.8
		l2-2.5c0,0,2.3,1.7,3.7,3.2c-0.2,0.6-0.6,0.8-1.4,0.8H339v4.6h3l2.2-2.8c0,0,2.6,2,4.2,3.5c-0.2,0.6-0.6,0.8-1.4,0.8h-17v0.6
		c0,0.4-1.4,1.4-3.6,1.4h-0.7V75.2c-0.9,1-1.9,1.9-3,2.7l-0.7-0.5h-0.3h-5.6v4.7h1.5l1.9-2.4c0,0,2.2,1.7,3.5,3.1
		c-0.2,0.6-0.6,0.8-1.3,0.8h-5.6v4.6h2.4l2.2-2.7c0,0,2.5,1.9,4.1,3.4c-0.2,0.6-0.6,0.8-1.4,0.8h-15.7v0.8c0,0.3-1.4,1.4-3.5,1.4
		h-0.7V75.2z M342.3,95c-0.4,0.5-1.1,0.6-2.5,0.7c-2.8,3.1-6.3,5.7-10.3,7.9c6.1,1.6,12.8,2.4,19.5,2.7L349,107
		c-2.2,0.6-3.6,2.3-4.1,4.7c-7.7-1-14.8-2.7-20.7-5.6c-7,2.9-15.2,4.7-24.1,5.5l-0.3-0.8c7.5-1.4,14.8-3.7,20.9-6.6
		c-4-2.4-7.3-5.6-9.8-9.5h-9l-0.5-1.5h32.8l3.3-2.8L342.3,95z M307.7,71.4v4.5h4.5v-4.5H307.7z M312.2,77.4h-4.5v4.7h4.5V77.4z
		 M312.2,83.7h-4.5v4.6h4.5V83.7z M310.8,62.8c10.1,1.6,6.3,8.9,2.6,6.1c-0.2-2-1.7-4.4-3.1-5.7L310.8,62.8z M312.3,94.8
		c3,3.2,7.3,5.6,12.3,7.4c3.6-2.2,6.8-4.7,9.2-7.4H312.3z M330,71.4v4.5h4.9v-4.5H330z M334.9,77.4H330v4.7h4.9V77.4z M334.9,83.7
		H330v4.6h4.9V83.7z M333.6,62.7c10.1,1.6,6.3,9,2.6,6.1c-0.2-1.9-1.6-4.3-3.1-5.7L333.6,62.7z"/>
	<path class="st1" d="M369.3,84.4c-1.8,1.2-4.2,2.6-7,4.3v17.1c0,3.5-0.7,5.5-6.2,6.1c-0.1-1.4-0.4-2.6-1-3.4
		c-0.7-0.8-1.7-1.3-3.8-1.6V106c0,0,4.3,0.3,5.3,0.3c0.8,0,1.1-0.3,1.1-0.9v-14c-1.3,0.7-2.6,1.4-4,2.2c-0.2,0.7-0.6,1.2-1.2,1.4
		l-2.3-5.9c1.5-0.3,4.2-1.1,7.4-2V76.7h-6.2l-0.4-1.5h6.6V62.9l6.6,0.7c-0.2,0.7-0.7,1.3-1.9,1.4v10.2h0.7l2.4-3.7
		c0,0,2.6,2.6,4.1,4.4c-0.2,0.6-0.6,0.8-1.4,0.8h-5.8v9.1c2.2-0.6,4.5-1.4,6.7-2.1L369.3,84.4z M386.8,91
		c3.1,5.6,8.7,10.2,14.2,12.3l-0.1,0.5c-1.9,0.5-3.4,2-4.1,4.5c-5.2-3.6-8.9-9.4-11.1-16.9v19.1c0,0.5-2.2,1.4-4,1.4h-0.9V96.6
		c-3.7,4.9-9,8.9-15.4,11.9l-0.5-0.7c6.2-4.2,10.8-10.3,13.5-16.8h-10.3l-0.4-1.5h13.2V83l6.6,0.6c-0.1,0.7-0.5,1.2-1.8,1.4v4.4h6.5
		l2.9-3.8c0,0,3.2,2.6,5.2,4.5c-0.2,0.6-0.7,0.8-1.4,0.8H386.8z M398.3,67.9c-0.5,0.5-1.6,0.5-3.1-0.1c-6.6,1.3-17.1,2.4-26.1,2.5
		l-0.2-0.9c8.4-1.3,19-4,24.3-6.3L398.3,67.9z M370.5,72.6c11.2,4.8,6.1,13.1,2.2,9.2c0.1-3-1.4-6.6-2.7-9L370.5,72.6z M379.8,71
		c11.1,4.7,6.1,13,2.1,9.2c0-3-1.3-6.5-2.7-8.9L379.8,71z M388.2,84.3c1.8-3.4,3.8-8.9,5.2-13.9l6.6,2.4c-0.3,0.6-0.9,1.1-2,0.9
		c-2.6,4.3-5.9,8.3-9,11L388.2,84.3z"/>
	<path class="st1" d="M450,105c1.5,0.6,1.8,1.2,1.8,2.2c0,2.2-2,3.2-10.6,3.2h-5.5c-4.9,0-6.1-1.1-6.1-4.8V85h-6.3
		c-1.1,13.5-5.6,22.2-20.9,26.8l-0.3-0.7c11.9-6,15-14.3,15.4-26.1h-14.7l-0.5-1.5h21.8V62.9l7.1,0.7c-0.1,0.7-0.6,1.3-1.9,1.5v18.4
		h13.1l3.2-4c0,0,3.6,2.7,5.7,4.6c-0.2,0.6-0.7,0.8-1.5,0.8h-15.3v0.8v18.5c0,0.9,0.3,1.2,2.1,1.2h4.8c1.9,0,3.5,0,4.2-0.1
		c0.7-0.1,0.9-0.2,1.2-0.8c0.5-1.1,1.3-4.5,2.2-8.4h0.6L450,105z M407.8,66.2c15.4,6.7,10.7,18,5.5,13.6c-0.5-4.4-3.3-9.7-6.1-13.2
		L407.8,66.2z M448.3,69.1c-0.3,0.6-1,0.9-2.2,0.8c-3.5,4.3-7.7,8.5-11.5,11.3l-0.6-0.5c2.1-3.5,5.1-9.5,7.2-14.8L448.3,69.1z"/>
</g>
<g class="st0">
	<path class="st1" d="M164.4,95.8c2.4-0.8,4.9-1.7,7.4-2.5l0.3,0.6c-3.4,2.4-8.6,5.9-15.6,10.1c-0.2,0.7-0.6,1.3-1.2,1.5l-2.7-5.9
		c1.5-0.4,4-1.2,7.1-2.2V79.8h-6l-0.4-1.5h6.4V64.4l6.8,0.6c-0.1,0.7-0.5,1.3-1.9,1.4v11.8h0.9l2.5-3.9c0,0,2.8,2.8,4.3,4.6
		c-0.1,0.6-0.6,0.8-1.4,0.8h-6.4V95.8z M197.4,85.6c0,0,3.5,2.7,5.5,4.7c-0.1,0.6-0.7,0.8-1.4,0.8h-14.1v19.2
		c-0.1,0.3-1.6,1.4-4.2,1.4h-0.8V91.1h-14.3l-0.4-1.5h14.8V68.7h-12.6l-0.4-1.5h24.1l3-3.8c0,0,3.3,2.6,5.3,4.5
		c-0.2,0.6-0.7,0.8-1.4,0.8h-12.9v20.9h7L197.4,85.6z M172.6,71.8c11.3,8.6,6.5,18.3,2.2,13.9c0.1-4.4-1.5-9.7-2.9-13.6L172.6,71.8z
		 M189.5,86.7c1.4-3.9,3-10,4-15.2l7.1,2.2c-0.3,0.6-0.8,1.1-2,1.1c-2.4,4.5-5.3,9.1-8.2,12.2L189.5,86.7z"/>
</g>
<g class="st0">
	<path class="st1" d="M31.8,100.4v5.6H4.1v-4.3c3.6-3.7,7.1-7.4,10-10.4c6.7-7.1,9.4-11.8,9.4-17.3s-3.1-9-8-9c-0.9,0-2,0.1-3.2,0.4
		l-1.4,5.1c-0.7,3.2-2,4.3-3.8,4.3c-1.4,0-2.6-0.8-3.3-2.1c0.8-6.6,6.8-10.1,13.7-10.1c8.6,0,12.6,4.7,12.6,11.4
		c0,5.8-3.7,10.5-14,19.5c-1.9,1.7-4.6,4.3-7.7,7H31.8z"/>
	<path class="st1" d="M65.7,93.9h-6.8v12.2h-6V93.9H35v-3.6l19.4-27.2h4.4v26.4h6.8V93.9z M52.8,89.5V69.2L38.3,89.5H52.8z"/>
</g>
<text transform="matrix(1 0 0 1 65.481 106.0732)" class="st1 st2 st3 st4">  </text>
<g class="st0">
	<path class="st1" d="M115,100.4v5.6H87.2v-4.3c3.6-3.7,7.1-7.4,10-10.4c6.7-7.1,9.4-11.8,9.4-17.3s-3.1-9-8-9c-0.9,0-2,0.1-3.2,0.4
		l-1.4,5.1c-0.7,3.2-2,4.3-3.8,4.3c-1.4,0-2.6-0.8-3.3-2.1c0.8-6.6,6.8-10.1,13.7-10.1c8.6,0,12.6,4.7,12.6,11.4
		c0,5.8-3.7,10.5-14,19.5c-1.9,1.7-4.6,4.3-7.7,7H115z"/>
	<path class="st1" d="M145.5,64.3c-12.2,2.8-18.5,9.6-19.7,19.8c2.7-2.7,6.1-4.2,9.8-4.2c7.2,0,12,5.3,12,13.1
		c0,8.7-5.6,14.1-13.9,14.1c-9.2,0-14.8-6.8-14.8-18.3c0-13.2,9.8-24.2,26.2-26.1L145.5,64.3z M141,93.6c0-6.9-2.9-10.2-7.5-10.2
		c-2.6,0-5.5,0.7-7.9,2.9c-0.1,0.5-0.1,1-0.1,1.4c0,11.4,3.2,16.8,8.2,16.8C138,104.6,141,101,141,93.6z"/>
</g>
<path id="Path_186479" class="st5" d="M724.5,28.6v6.5l-0.3,0.6h6.2l-0.3-0.6V17.4l0.3-0.6h-19.7l0.3,0.6v17.8l-0.3,0.6h6.2
	l-0.3-0.6v-6.5c0-2.2,1.8-4,4-4C722.7,24.6,724.5,26.4,724.5,28.6L724.5,28.6z"/>
<g class="st0">
	<path class="st1" d="M744.9,19.1v14.3c0,0.1-0.5,0.4-1.2,0.4h-0.2v-4.4c-0.9,0.5-2,1.2-3.4,1.9c-0.1,0.2-0.2,0.4-0.4,0.4l-0.7-1.9
		c0.3,0,0.6-0.1,1.1-0.2V19.1h-1l-0.1-0.5h5l0.9-1.2c0,0,1.1,0.8,1.7,1.4c-0.1,0.2-0.2,0.3-0.5,0.3H744.9z M743.5,19.1h-2.1V22h2.1
		V19.1z M743.5,22.5h-2.1v3.1h2.1V22.5z M741.5,29.3c0.6-0.1,1.4-0.3,2.1-0.5v-2.7h-2.1V29.3z M748.6,25.4l1.9,0.2
		c-0.1,0.2-0.2,0.4-0.6,0.4v2.4c0,2.1-0.7,4.2-4.2,5.4l-0.2-0.2c2-1,2.8-2.5,3-3.9h-1.2l-0.5,0.7l-1.4-1c0.1-0.1,0.3-0.3,0.5-0.4
		v-3.3l2,0.2c0,0.2-0.2,0.4-0.7,0.4v2.8h1.4c0-0.2,0-0.5,0-0.7V25.4z M753.6,22.3c2.9,1.6,1.7,3.7,0.7,2.8c0-0.3-0.1-0.6-0.1-0.8
		c-0.8,0.3-2,0.7-3.1,1c-0.1,0.1-0.2,0.1-0.2,0.1l-0.4-1.2c0.2,0.9-0.5,1.5-1.1,0.9c0-0.2,0-0.5-0.1-0.8c-0.8,0.3-1.9,0.7-3.1,1
		c-0.1,0.1-0.1,0.1-0.2,0.1l-0.4-1.4c0,0,0.3-0.1,0.4-0.1c0.6-0.5,1.2-1.3,1.8-2.1c-0.4,0.1-0.9,0.3-1.4,0.4
		c-0.1,0.1-0.2,0.2-0.3,0.2l-0.6-1.4c0,0,0.3-0.1,0.4-0.2c0.7-0.7,1.6-2.6,1.9-3.6l1.8,0.9c-0.1,0.1-0.3,0.3-0.6,0.3
		c-0.6,0.8-1.5,1.9-2.4,2.7c0.5,0,1.1,0,1.7,0c0.4-0.7,0.8-1.4,1-1.9l1.6,1.1c-0.1,0.1-0.3,0.2-0.7,0.2c-0.8,1.1-2.2,2.6-3.5,3.6
		c0.7,0,1.6-0.1,2.5-0.1c-0.2-0.6-0.4-1.1-0.6-1.5l0.2-0.1c0.9,0.5,1.4,1.1,1.6,1.6c0.1,0,0.3-0.1,0.4-0.2c0.5-0.5,1.2-1.3,1.7-2.2
		c-0.5,0.1-1,0.3-1.5,0.4c-0.1,0.1-0.2,0.2-0.3,0.2l-0.6-1.4c0,0,0.2-0.1,0.4-0.1c0.7-0.7,1.5-2.7,1.8-3.6l1.8,0.8
		c-0.1,0.2-0.3,0.3-0.6,0.3c-0.5,0.8-1.4,1.9-2.2,2.7c0.5,0,1.1,0,1.7,0c0.4-0.7,0.7-1.3,0.9-1.8l1.6,1.1c-0.1,0.1-0.3,0.2-0.7,0.2
		c-0.7,1.1-2,2.6-3.3,3.6c0.7,0,1.6-0.1,2.5-0.2c-0.2-0.6-0.4-1.1-0.7-1.5L753.6,22.3z M755.5,26.1c-0.1,0.2-0.2,0.4-0.6,0.4v3.6
		c0,0.1-0.6,0.4-1,0.4h-0.2v-0.9h-1.4v3.7c0,0.1-0.6,0.4-1.1,0.4h-0.3v-8.4l2,0.2c0,0.2-0.2,0.4-0.7,0.5v3h1.4v-3.2L755.5,26.1z"/>
	<path class="st1" d="M772.1,17.5c0,0,1.1,0.8,1.8,1.4c0,0.2-0.2,0.3-0.5,0.3h-3.6c-0.4,0.7-1,1.5-1.5,2.1h2.6l0.8-0.9l1.6,1.3
		c-0.1,0.1-0.3,0.3-0.7,0.3v7.7c0,0.1-0.6,0.4-1.4,0.4h-0.3v-0.6h-4.2v0.6c0,0.1-0.5,0.5-1.3,0.5h-0.3v-9.9l1.8,0.7h0.6
		c0.1-0.6,0.2-1.5,0.3-2.1h-3.1c-0.1,0.1-0.2,0.1-0.4,0.1h-3c-0.2,1.6-0.6,3-1.2,4.4l0.3,0.1h1.5l0.8-0.9l1.7,1.3
		c-0.1,0.1-0.4,0.3-0.7,0.4v6.7c0,0.1-0.8,0.4-1.3,0.4h-0.2v-1.1h-1.9v1.8c0,0.1-0.5,0.5-1.3,0.5h-0.2v-6.5c-0.5,0.7-1,1.4-1.5,2
		l-0.3-0.2c1.4-2.5,2.2-5.8,2.6-9h-2.3l-0.1-0.5h4.9l1-1.2c0,0,0.7,0.6,1.4,1.1h6.6L772.1,17.5z M760.4,24.4v5.8h1.9v-5.8H760.4z
		 M762.6,33.5c1.5-0.7,3.3-2,4.6-3.6l1.8,1.2c-0.1,0.2-0.3,0.2-0.7,0.1c-1.5,1.3-3.8,2.2-5.5,2.5L762.6,33.5z M766.7,21.9v2h4.2v-2
		H766.7z M766.7,26.4h4.2v-2h-4.2V26.4z M770.9,29v-2.1h-4.2V29H770.9z M769.5,30.3c5.4,0.6,4.7,4.1,2.9,3.3
		c-0.5-1.1-1.9-2.4-3.1-3.1L769.5,30.3z"/>
	<path class="st1" d="M779.3,28.5c0.8-0.2,1.6-0.5,2.5-0.7l0.1,0.2c-1.1,0.7-2.7,1.8-5,3c-0.1,0.2-0.2,0.4-0.4,0.5l-1-2
		c0.5-0.1,1.3-0.3,2.3-0.6v-6.1h-2.1l-0.1-0.5h2.2v-4.7l2.3,0.2c-0.1,0.2-0.2,0.4-0.7,0.5v4h0.6l0.8-1.2c0,0,0.9,0.9,1.4,1.5
		c0,0.2-0.2,0.3-0.5,0.3h-2.3V28.5z M791.3,31.5c0.6,0.2,0.7,0.4,0.7,0.7c0,0.8-0.9,1-4.7,1h-2.6c-2,0-2.6-0.3-2.6-1.8v-6.8
		l-1.6,0.7l-0.4-0.4l1.9-0.8v-4.4l2.2,0.2c0,0.2-0.2,0.4-0.6,0.5v2.9l1.9-0.8v-5.3l2.2,0.2c-0.1,0.2-0.2,0.4-0.7,0.5v3.9l2.1-0.9
		l0,0l0.8-0.9l1.5,1.6c-0.1,0.1-0.3,0.2-0.7,0.2c-0.4,2.1-1.2,5.1-2.2,7.1l-0.2-0.1c0.4-2.2,0.7-5.3,0.8-7.4l-2.1,0.9v7.2
		c0,0.2-0.7,0.5-1.3,0.5h-0.3v-7l-1.9,0.8V31c0,0.5,0.2,0.7,1.2,0.7h2.5c1.1,0,1.8,0,2.2-0.1c0.3,0,0.4-0.1,0.6-0.3
		c0.2-0.3,0.5-1.2,0.8-2.5h0.2L791.3,31.5z"/>
	<path class="st1" d="M808.2,22.5c0,0,1.2,0.9,1.9,1.5c-0.1,0.2-0.2,0.3-0.5,0.3h-12.5v1.5c0,2.2-0.2,5.7-3.2,8l-0.2-0.2
		c1.6-2.4,1.8-5.4,1.8-7.8v-2.7l1.9,0.7h9.8L808.2,22.5z M794.4,19.4h7.4l-0.1,0c-0.2-0.8-0.8-1.6-1.4-2.1l0.1-0.1
		c3,0,3.1,1.7,2.4,2.3h4.3l1-1.2c0,0,1.2,0.9,1.9,1.5c-0.1,0.2-0.2,0.3-0.5,0.3h-4l1.3,0.8c-0.1,0.2-0.3,0.2-0.7,0.1
		c-0.5,0.3-1,0.6-1.7,0.9c2.3,1.1,1.8,2.3,0.7,2c-0.6-0.4-1.4-0.9-2.5-1.4c-1.8,0.6-3.8,1-5.7,1.3l-0.1-0.3c1.5-0.4,3.1-0.9,4.5-1.6
		c-1-0.4-2.3-0.8-3.5-1.2l0.1-0.3c2.1,0.2,3.7,0.4,4.9,0.8c0.7-0.4,1.4-0.8,2-1.2h-10.4L794.4,19.4z M808.1,31.3
		c0,0,1.2,0.9,1.9,1.5c-0.1,0.2-0.2,0.3-0.5,0.3h-12.9l-0.1-0.5h5.9v-2.5h-3.4l-0.1-0.5h3.6v-2.1h-2.7c-0.6,0.9-1.3,1.6-2,2.1
		l-0.2-0.2c0.7-1.1,1.4-2.9,1.8-4.7l2.1,0.6c-0.1,0.2-0.3,0.4-0.7,0.4c-0.2,0.4-0.4,0.8-0.6,1.2h2.4v-2.4l2.3,0.2
		c0,0.2-0.2,0.4-0.6,0.5V27h1.8l1-1.2c0,0,1,0.8,1.8,1.4c-0.1,0.2-0.2,0.3-0.5,0.3h-4.1v2.1h1.6l0.9-1.1c0,0,1,0.8,1.7,1.4
		c-0.1,0.2-0.2,0.3-0.5,0.3h-3.8v2.5h3.1L808.1,31.3z"/>
</g>
<g id="Group_517" transform="translate(-6670)">
	<path id="Path_186480" class="st1" d="M7277.4,22.1l5.7,7.1c-0.7,1.1-1.5,2.2-2.2,3.3c-0.1,0.2-0.3,0.5-0.5,0.7
		c-0.1,0.1-0.2,0.2-0.4,0.2c-1.2-0.3-2.4-0.7-3.6-1c0,0-0.1-0.1-0.1-0.1c0.7-0.5,1.5-1,2.3-1.6c-0.4-0.5-0.7-1-1.1-1.5
		c-0.8-1-1.7-2.1-2.5-3.1c-0.1-0.1-0.2-0.5-0.1-0.6C7275.8,24.4,7276.6,23.3,7277.4,22.1z"/>
	<path id="Path_186481" class="st1" d="M7263.4,30c-0.6-0.2-1.1-0.4-1.7-0.5c-0.3,0-0.5-0.3-0.5-0.6c0-1.3,0-2.7,0-4
		c0-0.2,0.1-0.3,0.3-0.4c1.1-0.4,2.1-0.7,3.3-1.1c-0.1,0.7-0.3,1.4-0.4,2.1c0,0.1,0.1,0.4,0.1,0.5c0.8,0.3,1.7,0.5,2.5,0.7
		c0.9,0.3,1.8,0.5,2.7,0.8c0.4,0.1,0.5,0.3,0.5,0.6c0,1.1,0.1,2.2,0.1,3.4c0,0.3,0,0.5,0.1,0.8L7263.4,30z"/>
	<path id="Path_186482" class="st1" d="M7270,23.7c0,0.3,0,0.5-0.4,0.7c-1.2,0.4-2.4,0.8-3.6,1.2c-0.4,0.2-0.5,0-0.5-0.4
		c0-1.4-0.1-2.8-0.1-4.2c0-1.2-0.1-2.3-0.1-3.5c0-0.4,0-0.6,0.5-0.8c1.3-0.4,2.6-1,3.9-1.5c0.3-0.1,0.5-0.1,0.7,0.2
		c0.7,0.9,1.4,1.8,2.3,2.8h-2.9c0.1,0.9,0.1,1.6,0.2,2.4L7270,23.7z"/>
	<path id="Path_186483" class="st1" d="M7281.9,20.7c-0.7,1.1-1.4,2.1-2.2,3.3c-0.4-0.9-0.7-1.7-1-2.5c-1.2,0.4-2.4,0.7-3.5,1.1
		c-0.5,0.2-1,0.4-1.5,0.5c-0.7,0.2-1,0.1-1.4-0.4c-0.7-0.9-1.4-1.7-2-2.5c-0.3-0.4,0.1-0.5,0.3-0.5c1-0.4,2-0.7,3-1
		c1.3-0.4,2.6-0.9,3.8-1.4c0.3-0.1,0.7-0.2,1.1-0.3c0.2,0,0.4,0.1,0.5,0.2C7280,18.3,7280.9,19.5,7281.9,20.7z"/>
	<path id="Path_186484" class="st1" d="M7267.7,32.2c0.5,0.3,1,0.6,1.5,0.9c0.3,0.2,0.5,0.3,0.8-0.1c0.9-1.4,1.8-2.7,2.7-4
		c0.1-0.3,0.5-0.5,0.9-0.3c0,0,0,0,0,0c1.1,0.4,2.2,0.7,3.3,1c0.4,0.1,0.5,0.2,0.2,0.6c-1.2,1.7-2.4,3.5-3.6,5.2
		c-0.3,0.5-0.6,1-0.9,1.5c-0.1,0.3-0.5,0.4-0.7,0.3c0,0,0,0,0,0c-1.3-0.4-2.6-0.7-3.8-1.1c-0.1,0-0.4-0.2-0.4-0.4
		C7267.7,34.5,7267.7,33.4,7267.7,32.2z"/>
</g>
<g class="st0">
	<path class="st1" d="M638.3,22.1c-0.1,0.1-0.4,0.3-0.7,0.4v6c0,0.1-0.9,0.4-1.5,0.4h-0.3v-1.5h-4.5v6.3c0,0.2-0.8,0.6-1.4,0.6h-0.3
		v-6.9H625v1.2c0,0.2-0.8,0.6-1.5,0.6h-0.3v-8.3l1.9,0.8h4.3v-3.9l2.4,0.2c-0.1,0.2-0.2,0.4-0.7,0.5v3.1h4.3l0.9-1L638.3,22.1z
		 M629.5,26.9v-4.7H625v4.7H629.5z M635.8,26.9v-4.7h-4.5v4.7H635.8z"/>
	<path class="st1" d="M655,31.9c0,0,1.2,0.9,1.8,1.6c-0.1,0.2-0.2,0.3-0.5,0.3h-15.8l-0.1-0.5h7.5v-2.6h-4.8l-0.1-0.5h5v-2.3h-3.3
		c-1,1.2-2.2,2.1-3.4,2.8l-0.2-0.2c1.2-1.2,2.4-3,3.1-5.1c-0.2,0.1-0.4,0.1-0.7,0.1h-0.3v-7.3l1.9,0.7h7.2l0.9-0.9l1.8,1.4
		c-0.1,0.1-0.4,0.3-0.7,0.4v5c0,0.1-0.9,0.5-1.5,0.5h-0.3v-0.8H645v0.4c0,0.1-0.1,0.1-0.2,0.2l1.7,0.7c-0.1,0.2-0.3,0.3-0.7,0.3
		c-0.2,0.4-0.5,0.9-0.8,1.2h2.9V25l2.4,0.2c0,0.3-0.2,0.4-0.6,0.5v1.7h3.2l1-1.3c0,0,1.1,0.9,1.8,1.5c-0.1,0.2-0.2,0.3-0.5,0.3h-5.4
		v2.3h3l1-1.3c0,0,1.1,0.9,1.8,1.5c-0.1,0.2-0.2,0.3-0.5,0.3h-5.2v2.6h4.3L655,31.9z M645,19.5v2h7.4v-2H645z M652.5,24v-2H645v2
		H652.5z"/>
	<path class="st1" d="M664.8,25.2c-0.1,0.2-0.3,0.2-0.7,0.3c-0.2,1.9-0.7,3.7-1.7,5.3c1.9,1.2,4.6,1.5,8.3,1.5c1,0,3.1,0,4.3,0v0.2
		c-0.7,0.1-1,0.7-1.1,1.4h-3.4c-4.1,0-6.8-0.4-8.8-2.2c-0.8,1.1-1.9,2-3.3,2.7l-0.1-0.2c1.2-0.9,2.1-2,2.7-3.3c-0.8-1-1.5-2.5-2-4.3
		l0.2-0.1c0.6,1.6,1.3,2.7,2.1,3.6c0.6-1.4,0.9-3,1-4.7h-1.5l-0.6,0.6l-1.5-1c0.2-0.1,0.4-0.2,0.6-0.3c0.7-1.2,1.6-3.1,2.1-4.4h-3.1
		l-0.2-0.5h3.2l0.8-0.8l1.6,1.4c-0.1,0.2-0.4,0.2-0.8,0.3c-0.5,1.1-1.4,3-2.1,4.3h1.2l0.9-0.9L664.8,25.2z M674,20.9
		c0,0,0.9,0.9,1.4,1.4c-0.1,0.2-0.2,0.3-0.5,0.3h-2v2.5c0,0.1-0.8,0.4-1.3,0.4h-0.2v-0.6h-2v1.8h2l0.9-1.2c0,0,1,0.8,1.7,1.4
		c-0.1,0.2-0.2,0.3-0.5,0.3h-4.1v1.9h2.6l1-1.3c0,0,1.2,0.9,1.8,1.5c-0.1,0.2-0.2,0.3-0.5,0.3h-4.9v1.8c0,0.2-0.7,0.5-1.3,0.5h-0.3
		v-2.2h-3.9l-0.1-0.5h4.1v-1.9h-3.1l-0.1-0.5h3.2v-1.8h-2.8l-0.2-0.5h3v-1.8h-4.2l-0.1-0.5h4.4v-1.8h-3l-0.2-0.5h3.1v-1.9L670,18
		c-0.1,0.2-0.2,0.4-0.7,0.5v1.2h1.8l0.8-0.9l1.7,1.3c-0.1,0.1-0.4,0.3-0.7,0.4v1.5h0.2L674,20.9z M669.4,22.1h2v-1.8h-2V22.1z
		 M671.4,22.6h-2v1.8h2V22.6z"/>
	<path class="st1" d="M683,20.1c0,0,1,0.7,1.5,1.3c0,0.2-0.2,0.3-0.4,0.3h-7.1l-0.1-0.5h5.4L683,20.1z M686.6,20.5
		c0,1.5-0.3,3.8-3.2,5.2c0.1,0.1,0.2,0.2,0.3,0.3c-0.1,0.2-0.2,0.3-0.5,0.3h-5.6l-0.1-0.5h3.9l0.8-1c0,0,0.6,0.5,1.1,0.9l-0.1-0.2
		c1.6-1.5,1.8-3.4,1.8-5v-2.1l1.8,0.7h1.9l0.8-0.9l1.5,1.3c-0.1,0.1-0.3,0.2-0.7,0.3V23c0,0.2,0.1,0.3,0.3,0.3h0.6
		c0.2,0,0.4,0,0.5,0h0.3c0.1,0,0.2-0.1,0.4-0.1h0.2l0.1,0c0.4,0.2,0.6,0.3,0.6,0.6c0,0.6-0.5,0.9-2.2,0.9h-0.9
		c-1.2,0-1.3-0.3-1.3-1.3v-3.9h-2.4V20.5z M681.5,23.5l0.8-1c0,0,0.9,0.7,1.4,1.2c-0.1,0.2-0.2,0.3-0.5,0.3h-5.6l-0.1-0.5H681.5z
		 M683.2,33c0,0.1-0.7,0.5-1.2,0.5h-0.2v-0.9h-2.4v1c0,0.2-0.7,0.5-1.3,0.5h-0.2v-6.7l1.6,0.7h2.2l0.8-0.8l1.6,1.2
		c-0.1,0.1-0.4,0.3-0.7,0.3V33z M678.8,18c4.1,0.6,2.8,3.6,1.2,2.5c-0.2-0.8-0.8-1.8-1.3-2.4L678.8,18z M681.7,32.1v-3.5h-2.4v3.5
		H681.7z M692.3,26.5c-0.1,0.2-0.3,0.2-0.7,0.2c-0.6,1.5-1.5,2.9-2.7,4c1.3,0.8,2.9,1.4,4.7,1.8l0,0.2c-0.7,0.1-1.2,0.6-1.4,1.4
		c-1.7-0.6-3.1-1.4-4.3-2.5c-1.5,1.1-3.4,2-5.7,2.6L682,34c2.1-0.8,3.8-1.8,5.1-3.2c-0.9-1.1-1.6-2.6-2.1-4.4h-0.9l-0.2-0.5h5.8
		l1-0.9L692.3,26.5z M685.3,26.5c0.6,1.4,1.4,2.6,2.5,3.5c0.9-1.1,1.5-2.3,2-3.5H685.3z"/>
</g>
<line id="Line_5" class="st6" x1="486.2" y1="27.7" x2="578.8" y2="27.7"/>
<circle class="st1" cx="77" cy="87.5" r="2.4"/>
</svg>
