<svg xmlns="http://www.w3.org/2000/svg" width="811.396" height="122.191" viewBox="0 0 811.396 122.191">
  <g id="Group_535" data-name="Group 535" transform="translate(-808.218 -11573.508)">
    <g id="Group_516" data-name="Group 516" transform="translate(-6670)">
      <text id="仁愛林蔭第一段_中正文教正核心" data-name="仁愛林蔭第一段  中正文教正核心" transform="translate(7478.218 11609.508)" fill="#fff" font-size="31.143" font-family="Noto Serif CJK TC" font-weight="600" letter-spacing="-0.024em"><tspan x="0" y="0" xml:space="preserve">仁愛林蔭第一段  中正文教正核心</tspan></text>
    </g>
    <text id="_2397-1888" data-name="2397-1888" transform="translate(1292.159 11675.699)" fill="#fff" font-size="68.224" font-family="Noto Serif CJK TC"><tspan x="0" y="0">2397-1888</tspan></text>
    <text id="_2房雙採光" data-name="2房雙採光" transform="translate(1022.276 11676.472)" fill="#fff" font-size="59.907" font-family="Noto Serif CJK TC" font-weight="600" letter-spacing="-0.024em"><tspan x="0" y="0">2</tspan><tspan y="0" font-size="52.689">房雙採光</tspan></text>
    <text id="坪_" data-name="坪 " transform="translate(959.543 11676.888)" fill="#fff" font-size="52.689" font-family="Noto Serif CJK TC" font-weight="600" letter-spacing="-0.024em"><tspan x="0" y="0">坪 </tspan></text>
    <text id="_24_26" data-name="24  26" transform="translate(809 11676.055)" fill="#fff" font-size="59.907" font-family="Noto Serif CJK TC" font-weight="600" letter-spacing="-0.024em"><tspan x="0" y="0">24</tspan><tspan y="0" xml:space="preserve" letter-spacing="-0.1em">  </tspan><tspan y="0">26</tspan></text>
    <path id="Path_186479" data-name="Path 186479" d="M8202.723,11598.6v6.508l-.3.605h6.187l-.307-.6v-17.757l.307-.606h-19.713l.3.609v17.751l-.3.605h6.183l-.307-.6v-6.511a3.977,3.977,0,1,1,7.954,0Z" transform="translate(-6670)" fill="#fff" fill-rule="evenodd"/>
    <text id="聯碩地產" transform="translate(1546.613 11602.263)" fill="#fff" font-size="17.774" font-family="Noto Serif CJK TC" font-weight="600" letter-spacing="0.025em"><tspan x="0" y="0">聯碩地產</tspan></text>
    <g id="Group_517" data-name="Group 517" transform="translate(-6670)">
      <path id="Path_186480" data-name="Path 186480" d="M8085.638,11592.071l5.734,7.141q-1.1,1.676-2.2,3.348a7.655,7.655,0,0,1-.488.722.465.465,0,0,1-.37.16c-1.194-.321-2.381-.664-3.57-1.006-.032-.009-.053-.056-.1-.106.736-.5,1.47-1,2.3-1.571-.379-.511-.738-1.022-1.125-1.512-.824-1.04-1.671-2.062-2.485-3.107-.117-.149-.215-.474-.136-.592C8083.981,11594.389,8084.8,11593.259,8085.638,11592.071Z" fill="#fff"/>
      <path id="Path_186481" data-name="Path 186481" d="M8071.579,11600c-.573-.176-1.141-.375-1.72-.527a.558.558,0,0,1-.472-.623c0-1.327-.008-2.655.011-3.983a.575.575,0,0,1,.259-.446c1.064-.389,2.141-.742,3.277-1.127-.138.743-.273,1.4-.37,2.058-.022.148.053.428.146.458.819.274,1.652.506,2.482.748.891.263,1.777.544,2.676.775.362.093.452.262.457.616.014,1.122.067,2.245.113,3.367a7.152,7.152,0,0,0,.077.8Z" fill="#fff"/>
      <path id="Path_186482" data-name="Path 186482" d="M8078.185,11593.673c.032.308.033.531-.383.652-1.207.352-2.4.76-3.584,1.187-.423.152-.535.033-.545-.365q-.051-2.077-.118-4.154c-.036-1.161-.072-2.323-.122-3.484-.018-.409.036-.615.533-.772,1.325-.421,2.61-.975,3.9-1.5.3-.125.458-.124.672.153.689.895,1.416,1.759,2.265,2.8h-2.891c.056.864.123,1.632.151,2.4Z" fill="#fff"/>
      <path id="Path_186483" data-name="Path 186483" d="M8090.132,11590.687c-.743,1.09-1.441,2.111-2.239,3.28-.36-.914-.672-1.71-1-2.548-1.2.378-2.355.738-3.509,1.108-.5.159-.985.354-1.475.52-.742.249-.99.1-1.365-.392-.654-.865-1.36-1.69-2.022-2.549-.271-.353.108-.455.308-.525,1-.354,2.024-.663,3.03-1.009,1.282-.442,2.554-.909,3.834-1.354a5.414,5.414,0,0,1,1.061-.279.652.652,0,0,1,.485.224C8088.21,11588.323,8089.162,11589.5,8090.132,11590.687Z" fill="#fff"/>
      <path id="Path_186484" data-name="Path 186484" d="M8075.938,11602.158c.493.28,1.014.569,1.528.872.311.183.519.307.8-.137.858-1.362,1.79-2.68,2.691-4.016a.659.659,0,0,1,.9-.333c1.094.382,2.221.672,3.342.972.409.11.479.236.226.6-1.2,1.732-2.383,3.479-3.565,5.226-.321.476-.624.964-.921,1.455a.561.561,0,0,1-.776.273c-1.273-.405-2.567-.743-3.846-1.129-.148-.045-.357-.233-.36-.359C8075.927,11604.463,8075.938,11603.34,8075.938,11602.158Z" fill="#fff"/>
    </g>
    <text id="中星建設" transform="translate(1429.741 11602.802)" fill="#fff" font-size="17.774" font-family="Noto Serif CJK TC" font-weight="600" letter-spacing="0.025em"><tspan x="0" y="0">中星建設</tspan></text>
    <line id="Line_5" data-name="Line 5" x2="92.532" transform="translate(1294.444 11597.684)" fill="none" stroke="#fff" stroke-miterlimit="10" stroke-width="2"/>
  </g>
</svg>
