<?xml version="1.0" encoding="utf-8"?>
<!-- Generator: Adobe Illustrator 27.6.1, SVG Export Plug-In . SVG Version: 6.00 Build 0)  -->
<svg version="1.1" id="圖層_1" xmlns="http://www.w3.org/2000/svg" xmlns:xlink="http://www.w3.org/1999/xlink" x="0px" y="0px"
	 viewBox="0 0 692 123.9" style="enable-background:new 0 0 692 123.9;" xml:space="preserve">
<style type="text/css">
	.st0{fill:#C00442;}
</style>
<g>
	<path class="st0" d="M17.7,43.8H22c0.2-1.4,0.3-2.9,0.3-4.7c2.2,0.5,3.9,0.7,5.1,1c2.2,0.5,3.3,1,3.3,1.4s-0.5,0.9-1.3,1.1
		c-0.7,0.3-1.1,0.7-1.2,1.1h6.4c0.1-0.1,0.6-0.6,1.4-1.6c1-1.1,1.5-1.8,1.7-1.8c0.6,0,1.4,0.6,2.5,1.8c1.1,1.2,1.8,1.9,1.8,2.2
		c0,0.6-0.2,0.9-0.7,0.9H27.7c-0.2,0.8-0.5,1.5-0.7,2.1c2.8,0.2,5.2,0.5,7,1c2,0.6,3.6,1.4,4.7,2.5c0.9,1,1.3,2.2,1.3,3.7
		c0,0.7-0.2,1.2-0.5,1.5c-0.5,0.3-1,0.5-1.5,0.5c-0.8,0-2.2-1-4.3-3c-1.8-1.6-4.3-3.2-7.4-4.8c-0.5,0.8-0.9,1.4-1.3,1.9
		c-1.4,1.5-3,2.7-4.9,3.7c-2.5,1.1-5.7,1.9-9.8,2.6l-0.5-0.7c3.1-1.3,5.6-2.7,7.3-4.1c1.5-1.1,2.7-2.6,3.6-4.4
		c0.3-0.7,0.7-1.5,0.9-2.6h-4c-3.3,0-5.6,0.1-6.9,0.2l-0.9-2.2C11.7,43.6,14.3,43.8,17.7,43.8z M22.2,8.3c1.1,0.7,1.6,1.4,1.6,2.2
		c0,1-0.5,2-1.4,3c-0.3,0.4-0.7,0.7-1.1,0.8h4.9c1.4-2.6,2.4-5.5,3.1-8.6c1.6,0.6,3.2,1.1,4.8,1.7c1.5,0.6,2.3,1.2,2.3,1.8
		c0,0.3-0.4,0.5-1.2,0.6c-0.8,0.1-1.2,0.2-1.2,0.3c-1.7,1.5-3.6,3-5.9,4.2h5.4c0.1,0,0.7-0.7,1.6-2c1.2-1.5,1.9-2.2,2.2-2.2
		c0.6,0,1.5,0.7,2.8,2.2c1.4,1.5,2,2.4,2,2.7c0,0.6-0.3,0.9-0.9,0.9h-9.5v4.4h0.9c0.6-0.5,1.1-1,1.5-1.5c0.7-0.7,1.2-1.1,1.5-1.1
		c0.6,0,1.6,0.5,3.1,1.5c1.8,1.4,2.7,2.3,2.7,2.7s-0.4,0.9-1.1,1.4c-0.6,0.6-0.9,1.2-0.9,1.7v3.5l0.4,10c0,0.6-1,1.1-2.8,1.4
		c-0.8,0.1-1.4,0.2-1.8,0.2c-0.9,0-1.3-0.4-1.3-1.3H18.7v1.5c0,0.7-0.9,1.1-2.6,1.4c-0.8,0.1-1.3,0.2-1.6,0.2
		c-1.2,0-1.8-0.5-1.8-1.5c0.3-3.7,0.5-7.1,0.5-10v-3.1c0-2.5-0.2-5.5-0.5-9.1c2.2,0.6,4.3,1.3,6.2,2.2h1.8v-4.4h-2.9
		c-3.3,0-5.6,0.1-6.9,0.2l-0.9-2.2c1.8,0.3,4.4,0.5,7.8,0.5h1.5c-0.5-0.3-0.8-0.9-1.1-1.6c-0.6-1.8-1.8-3.5-3.3-5.2l0.5-0.9
		C18.6,7,20.9,7.7,22.2,8.3z M34.1,32v-2.3h-2c-1.5,0-2.6-0.3-3.3-0.9c-0.8-0.5-1.1-1.3-1.1-2.4v-4.7h-2.2v0.5c0,1.8-0.3,3.3-1,4.6
		c-0.6,1-1.5,1.9-2.9,2.7c-0.9,0.6-1.8,1-2.8,1.4V32H34.1z M20.4,26.7c0.4-1.2,0.6-2.7,0.6-4.5v-0.5h-2.3v7.4
		C19.5,28.4,20,27.6,20.4,26.7z M34.1,37.1v-3.5H18.7v3.5H34.1z M27.2,20.2v-4.4h-1.8v4.4H27.2z M32.1,25.5c0,0.5,0.3,0.7,1.1,0.7
		h0.9v-4.4h-2V25.5z M59.4,9.2c1.4,1.2,2.1,2.1,2.1,2.6s-0.6,0.8-1.6,1c-1.2,0.3-2,0.6-2.2,1c-2.1,5.7-4.1,10.2-6.2,13.5
		c2.9,2.4,4.9,4.5,6.2,6.4c0.8,1.2,1.5,2.7,2,4.3c0.6,1.5,0.9,3.1,0.9,4.7c0,2.2-0.5,3.6-1.3,4.5c-0.9,1.2-1.9,2.2-3,2.7
		c-1.1,0.7-2.1,1-2.8,1c-0.5,0-0.7-0.7-1-2.1c-0.3-1.5-1.8-3-4.1-4.3v12.1c0,0.6-0.9,1.1-2.6,1.4c-0.8,0.1-1.3,0.1-1.6,0.1
		c-1.4,0-2-0.5-2-1.5c0.2-4,0.4-7.4,0.4-10.4V17.1c0-2.6-0.2-5.8-0.4-9.5c2.5,0.6,4.9,1.4,7,2.4h2.4c0.8-0.9,1.5-1.6,2.2-2.3
		c0.7-0.5,1.2-0.8,1.6-0.8C56.1,6.9,57.5,7.7,59.4,9.2z M48.5,43.2c1.2,0.2,2.3,0.3,3.1,0.3c1,0,1.8-0.2,2.3-0.5
		c0.5-0.6,0.7-1.4,0.7-2.6c0-2.6-0.3-4.8-1-6.5c-0.9-2.2-2.2-4.3-3.9-6.6c1.1-4.6,2-9.8,2.7-15.7h-4V43.2z"/>
	<path class="st0" d="M79.5,9.6h22.1c0.6-0.5,1.1-1,1.6-1.3c1.1-0.9,2-1.4,2.7-1.4c0.7,0,2,0.9,4,2.6c2,1.6,3.1,2.8,3.1,3.5
		c0,0.6-0.9,0.9-2.4,1c-1.4,0.1-2.3,0.3-2.7,0.6c-4,2.4-7.5,4.4-10.3,5.8c0.5,0.2,0.8,0.4,0.8,0.6c0,0.7-0.6,1.3-1.6,1.9
		c-0.7,0.2-1.1,0.7-1.1,1.5v6.2h10.2c0.1-0.1,0.9-1,2.2-2.7c1.6-2,2.6-3.1,2.8-3.1c0.8,0,2.2,1,4,2.9c1.8,1.9,2.7,3.1,2.7,3.5
		c0,0.6-0.5,0.9-1.4,0.9H95.7v16.8c0,3.7-1.1,6.1-3.2,7.1c-2.5,1.2-4.4,1.8-5.6,1.8c-0.6,0-1.1-0.7-1.5-2.1
		c-0.6-2.3-3.3-4.1-8.1-5.7l0.2-1.4c3.2,0.6,5.9,0.9,8.2,0.9c1.2,0,2.1-0.2,2.7-0.5c0.5-0.2,0.7-0.8,0.7-1.7V32H74.6
		c-3.1,0-5.6,0.2-7.5,0.4l-0.9-2.7c3.4,0.5,6.5,0.7,9.3,0.7h13.6v-2c0-3.7-0.2-7-0.7-9.8c1.8,0.3,3.5,0.6,5,0.8
		c0.5,0.1,1,0.2,1.4,0.2c2.3-2.4,4.7-5.2,7.2-8.6H79.5c-2.4,0-4.7,0.2-6.9,0.5l-0.9-2.7C74,9.4,76.6,9.6,79.5,9.6z"/>
	<path class="st0" d="M152.1,7c1.4,0.1,2.2,0.5,2.2,1.1c0,0.3-0.5,0.6-1.2,1c-1,0.5-1.4,1-1.4,1.6V12h13.3c0.7-0.7,1.3-1.4,1.8-1.8
		c0.7-0.9,1.3-1.3,1.7-1.3c0.5,0,1.8,0.9,3.7,2.5c1.8,1.5,2.7,2.5,2.7,3.1c0,0.5-0.5,0.8-1.3,0.9c-1,0-1.6,0.1-1.8,0.2
		c-1.5,0.8-3.3,1.5-5.3,2.2c1,1.1,1.5,1.8,1.5,2c0,0.6-0.2,0.9-0.6,0.9H165c1.1,0.7,2.1,1.2,3,1.8c1.4,0.8,2.2,1.4,2.2,1.8
		c0,0.4-0.4,0.6-1.1,0.7c-0.9,0-1.4,0.2-1.5,0.4c-1,0.4-2,0.7-3,1c-0.3,0.1-0.6,0.2-0.9,0.2c3.8,1.5,7.6,2.5,11.4,3.1l-0.2,1.1
		c-1.6,0.5-2.7,1.6-3.2,3.2c-0.4,1.2-0.9,1.9-1.4,1.9c-0.7,0-2.4-0.7-5-2.2c-0.5-0.2-1-0.5-1.4-0.9v2.2c0,1.8,0.1,4.3,0.2,7.3
		c0,0.7-1,1.3-3,1.6c-0.9,0.1-1.5,0.1-1.9,0.1c-1,0-1.5-0.5-1.5-1.5h-5.1v9.3c0,2.7-0.9,4.4-2.7,5.2c-1.6,0.8-2.9,1.2-3.7,1.2
		c-0.6,0-1-0.6-1.3-1.8c-0.5-1.8-2.5-3.3-6-4.4L139,51c2.5,0.5,4.7,0.7,6.4,0.7c0.6,0,0.9-0.5,0.9-1.5v-7.8h-6.8
		c-0.3,0.5-1.1,0.8-2.2,1c1,0.6,2,1.1,2.9,1.6c1.6,0.9,2.5,1.6,2.5,2c0,0.5-0.4,0.8-1.2,0.9c-1,0-1.6,0.2-1.7,0.5
		c-1.6,1.5-3.2,2.8-5.1,3.9c-2,1.4-5.2,2.8-9.6,4.3l-0.4-0.9c2.4-1.8,4.6-3.7,6.5-5.9c1.8-2.2,3.2-4.1,4.1-6h-0.2
		c-1.4,0-2-0.6-2-1.8c0.3-2.8,0.5-5.8,0.5-8.9v-0.7c-2.6,1.2-6,2.6-10.2,4l-0.7-0.9c6-3.1,10.7-6.4,14.2-9.9
		c1.5-1.5,2.7-3.1,3.9-4.9h-3c-3.2,0-5.5,0.1-6.9,0.2l-0.9-2.2c1.8,0.3,4.4,0.5,7.8,0.5h3.9c1-1.7,1.9-3.6,2.6-5.6h-14
		c-0.1,1.5-0.2,2.6-0.3,3.2c-0.3,1.5-0.9,2.6-1.5,3.2c-0.5,0.3-0.9,0.5-1.4,0.5c-1.2,0-2.3-0.3-3.1-1.1c-0.8-0.6-1.1-1.5-1.1-2.7
		c0-0.5,0.6-1.1,1.7-1.8c1.2-0.7,2.2-1.4,2.8-2.3c0.7-0.8,1.2-2,1.7-3.7l1.3,0.2c0,1.1-0.1,2.1-0.1,2.9h14.9v-1.1
		c0-1.6-0.2-3.2-0.5-4.9C147.4,6.2,149.7,6.6,152.1,7z M134.1,23c0.9,0.5,1.3,1.1,1.3,1.7c0,1-0.5,1.9-1.2,2.8c-0.6,0.7-1.4,1-2.3,1
		c-0.5,0-0.9-0.5-1.2-1.6c-0.5-1.5-1.2-3-2.3-4.4l0.5-0.9C131.2,22,133.1,22.5,134.1,23z M157.6,34v-5.1h-18V34H157.6z M157.6,40.9
		v-5.3h-18v5.3H157.6z M156.4,27.3c0.1-0.1,0.2-0.2,0.3-0.2c-2.1-2-3.9-4.2-5.2-6.4h-3.7c-1.8,2.5-3.5,4.3-5.1,5.5
		c-0.5,0.5-0.9,0.8-1.3,1.1H156.4z M149.7,14.2c1.9,0.6,3,1.1,3,1.5c0,0.6-0.5,1.1-1.4,1.4c-1.1,0.2-1.7,0.5-1.7,0.9
		c-0.3,0.5-0.5,0.8-0.7,1.1h11.8c0.1-0.1,0.6-0.6,1.4-1.5c1-1.2,1.5-1.8,1.8-1.8s0.5,0.1,0.9,0.3c0.5-0.8,0.8-1.6,1.1-2.6h-18.1
		C148.3,13.8,149.1,14,149.7,14.2z M160.5,25c0.5-0.5,0.9-0.9,1.4-1.3c1-1.1,1.7-2.1,2.2-3.1h-10.2C155.9,22.5,158.2,23.9,160.5,25z
		 M163.7,45.9c1.7,0.6,3.3,1.3,4.8,2.3c1.2,1.1,1.9,2.3,1.9,3.7c0,0.7-0.5,1.6-1.2,2.7c-0.7,0.7-1.5,1-2.3,1c-0.9,0-1.7-0.5-2.5-1.5
		c-2.8-3.6-6.2-6.6-10.2-8.9l0.2-1.1C156.9,44.3,160.1,44.9,163.7,45.9z"/>
	<path class="st0" d="M209,14.4v13.8h10.8c0.2-0.1,0.9-0.9,2.3-2.6c1.6-2,2.5-3,2.8-3c0.8,0,2.1,1,3.8,2.8c1.8,1.9,2.7,3,2.7,3.4
		c0,0.6-0.4,0.9-1.1,0.9H209v16c0,4.3,0.1,7.6,0.2,10.2c0,0.8-1.2,1.4-3.5,1.8c-1,0.1-1.8,0.2-2.3,0.2c-1.2,0-1.8-0.7-1.8-2
		c0.3-2.4,0.5-5.7,0.5-10.2v-16h-14.2c-3.1,0-5.6,0.2-7.5,0.5l-0.9-2.7c3.4,0.5,6.5,0.7,9.4,0.7h13.3V15c-6.4,0.5-12.5,0.9-18.2,1
		l-0.5-1.5c9-1.1,15.7-2.4,20.1-3.6c4.7-1,9.4-2.7,14.2-4.8c2,1.6,3.7,2.8,5,3.7c1.8,1.4,2.8,2.4,2.8,3s-0.4,0.9-1.1,0.9l-2.8-0.5
		C217.2,13.6,213,14.1,209,14.4z"/>
	<path class="st0" d="M242.9,22v-6.5c0-3.1-0.2-5.9-0.7-8.4c1.6,0.2,3.7,0.5,6.3,1c2,0.3,3,0.7,3,1c0,0.6-0.5,1.1-1.5,1.5
		c-0.8,0.2-1.1,0.7-1.1,1.4v10h0.7c0.1-0.1,0.6-0.6,1.4-1.6c1-1.1,1.5-1.8,1.8-1.8c0.5,0,1.3,0.6,2.4,1.8c1.1,1.2,1.8,1.9,1.8,2.2
		c0,0.6-0.2,0.9-0.7,0.9h-7.3v17.7c2.7-0.3,5.3-0.8,7.8-1.3l0.2,0.7c-4.7,3.5-9.5,6-14.7,7.6c-0.6,0.1-0.9,0.3-0.9,0.6
		c-0.1,0.2-0.2,0.5-0.2,0.9c-0.1,0.5-0.3,0.7-0.6,0.7c-0.8,0-1.7-1.4-2.8-4.1c-0.3-0.7-0.8-2-1.5-3.7c2.3-0.1,4.5-0.3,6.7-0.6V23.5
		c-2.7,0.1-4.6,0.1-5.8,0.2l-0.9-2.2C237.8,21.8,240.1,22,242.9,22z M262,9.8h15c0.1-0.1,0.7-0.7,1.8-2c1.2-1.5,2-2.2,2.3-2.2
		c0.6,0,1.6,0.7,3,2.2c1.4,1.5,2,2.4,2,2.7c0,0.6-0.3,0.9-0.9,0.9h-12.2v24.9h4c0.2-0.1,0.9-0.9,2-2.5c1.5-1.9,2.3-2.8,2.6-2.8
		c0.8,0,2,0.9,3.7,2.7c1.7,1.8,2.6,3,2.6,3.3c0,0.6-0.4,0.9-1.1,0.9h-13.7v18.4c0,0.7-1.1,1.2-3.1,1.6c-0.9,0.1-1.6,0.2-2,0.2
		c-1.2,0-1.8-0.6-1.8-1.8c0.3-2.3,0.5-5.5,0.5-9.8v-8.6h-6.2c-3.2,0-5.5,0.1-6.9,0.2l-0.9-2.2c1.8,0.3,4.3,0.5,7.7,0.5h6.2V11.3H262
		c-3.3,0-5.6,0.1-6.9,0.2l-0.9-2.2C256,9.7,258.6,9.8,262,9.8z M263.1,21.3c1.7,2.3,2.6,4.3,2.6,6.2c0,1.5-0.6,2.7-1.6,3.6
		c-0.7,0.6-1.5,0.9-2.4,0.9c-0.6,0-1.1-0.3-1.5-1c-0.4-0.5-0.7-1.8-1-3.9c-0.4-3-1.4-6.6-3-10.7l0.7-0.5
		C259.6,17.7,261.7,19.5,263.1,21.3z M284,17.6c1.7,0.6,2.6,1.1,2.6,1.7c0,0.6-0.5,0.9-1.4,1c-0.9,0.2-1.4,0.3-1.5,0.6
		c-0.9,2.4-1.9,4.4-3,6s-2.6,3.2-4.3,4.9l-0.9-0.9c0.8-2.4,1.5-4.7,1.9-6.9c0.5-2.2,0.9-4.9,1.2-8C280.5,16.6,282.3,17.1,284,17.6z"
		/>
	<path class="st0" d="M311,20.4c1.1,1.5,1.8,2.4,1.8,2.9c0,0.6-0.3,0.9-0.9,0.9h-6.7v18.9c2.5-0.5,4.8-1.1,7.1-1.8l0.2,0.6
		c-4.4,3.8-9.1,6.5-14,8.2c-0.6,0.1-0.8,0.3-0.8,0.7c-0.1,0.2-0.2,0.5-0.2,0.8c-0.2,0.5-0.4,0.7-0.7,0.7c-0.7,0-1.6-1.2-2.6-3.9
		c-0.3-0.7-0.7-1.9-1.4-3.5c2.2-0.2,4.4-0.5,6.4-0.9v-20h-0.7c-1.1,0-2.6,0.1-4.4,0.2l-0.9-2.2c2.3,0.3,4.1,0.4,5.3,0.4h0.7v-7.1
		c0-3.1-0.2-5.9-0.7-8.4c1.6,0.2,3.7,0.5,6.3,1c2,0.3,3,0.7,3,1c0,0.6-0.5,1.1-1.5,1.5c-0.8,0.2-1.1,0.7-1.1,1.4v10.6h0.7
		c0.3-0.6,0.8-1.4,1.3-2.5c0.7-1.4,1.1-2.2,1.4-2.2C309,18,309.8,18.8,311,20.4z M335.5,16.6c0.4-0.7,0.9-1.1,1.4-1.1
		s1.7,0.5,3.3,1.5c2.2,1.3,3.3,2.2,3.3,2.7c0,0.3-0.5,0.9-1.5,1.5c-0.8,0.6-1.2,1.2-1.2,1.8c0,10.6-0.4,16.7-1.1,18.4
		c-0.6,1.5-1.5,2.6-2.7,3.2c-1.2,0.7-2.1,1-2.8,1c-0.6,0-1-0.7-1.2-2.3c-0.2-1.6-1.1-2.7-2.7-3.5v5.1c0,0.7-0.9,1.2-2.7,1.6
		c-0.8,0.1-1.4,0.2-1.7,0.2c-1.4,0-2-0.6-2-1.8c0.3-3.5,0.5-6.8,0.5-9.8V24.1l-4.7,1.6V49c0,1.2,0.5,1.9,1.4,2.1
		c1.8,0.2,4.6,0.3,8.5,0.3c2.4,0,4.5-0.2,6.1-0.5c1.2-0.2,2-0.6,2.4-1.1c0.3-0.3,0.8-1.2,1.2-2.6c0.6-1.6,1.1-3.7,1.8-6.4l1.4,0.2
		c0.1,2.8,0.1,4.7,0.1,5.3c0,1.8,0.3,3.1,1.1,3.7c0.9,0.9,1.4,1.8,1.4,2.4c0,1-0.8,1.9-2.3,2.6c-1.2,0.5-2.4,0.9-3.8,1
		c-2.4,0.3-5.6,0.6-9.5,0.6c-6.1,0-10.1-0.2-12.1-0.6c-1.6-0.3-2.7-1-3.3-1.9c-0.5-0.7-0.7-1.9-0.7-3.7V27.8
		c-1.6,0.5-3.1,1.1-4.4,1.9l-1.6-2c1.6,0,3.6-0.5,6-1.4V15.8c0-2.2-0.2-4.3-0.5-6.4c1.8,0.2,3.9,0.5,6.2,0.8
		c2.2,0.3,3.3,0.7,3.3,1.2c0,0.7-0.6,1.2-1.7,1.6c-0.7,0.3-1.1,0.8-1.2,1.5v9.7l4.7-1.6v-6.3c0-3.7-0.2-7.1-0.6-10
		c1.7,0.2,3.9,0.5,6.5,0.9c1.8,0.2,2.8,0.6,2.8,1.1c0,0.6-0.6,1.1-1.6,1.5c-0.7,0.2-1.1,0.7-1.1,1.4v9.3l3.7-1.3
		C334.5,18.2,335,17.3,335.5,16.6z M330.3,38.5c0.9,0.1,1.8,0.2,2.7,0.2c0.8,0,1.3-0.5,1.5-1.6c0.1-1.9,0.2-7.4,0.2-16.6l-4.4,1.5
		V38.5z"/>
	<path class="st0" d="M361.9,12h25.9c0.2-0.1,0.9-0.9,2.2-2.5c1.5-1.9,2.4-2.8,2.7-2.8c0.8,0,2,0.9,3.7,2.7s2.6,2.9,2.6,3.3
		c0,0.6-0.4,0.9-1.1,0.9h-19.1v17.1h7.1c0.2-0.1,0.9-0.9,2.2-2.5c1.5-1.9,2.4-2.8,2.7-2.8c0.8,0,2,0.9,3.7,2.7
		c1.7,1.8,2.6,2.9,2.6,3.3c0,0.6-0.4,0.9-1.1,0.9h-17.1v19.5h11.3c0.2-0.1,0.9-0.9,2.1-2.5c1.5-1.9,2.3-2.8,2.6-2.8
		c0.8,0,2,0.9,3.7,2.7c1.7,1.8,2.6,2.9,2.6,3.3c0,0.6-0.4,0.9-1.1,0.9h-41c-3.1,0-5.6,0.1-7.5,0.4l-0.9-2.7c3.4,0.5,6.5,0.7,9.3,0.7
		h12.4V32.2h-8.2c-3.1,0-5.6,0.2-7.5,0.5l-0.9-2.7c3.3,0.5,6.5,0.7,9.3,0.7h7.3V13.6h-11.1c-3.1,0-5.6,0.2-7.5,0.5l-0.9-2.7
		C356,11.8,359.1,12,361.9,12z"/>
	<path class="st0" d="M430.8,40.1l-1.1-1.2c2.3-2,3.5-4,3.5-5.7c0-0.2-0.2-0.3-0.4-0.4c-3.4-0.5-5.1-1.9-5.1-4.4
		c0-1.2,0.5-2.4,1.4-3.3c0.9-0.9,2-1.4,3.4-1.4c1.5,0,2.7,0.6,3.6,1.6s1.4,2.4,1.4,3.9C437.4,33.4,435.2,36.9,430.8,40.1z"/>
	<path class="st0" d="M470.6,11.3v-1.1c0-1.5-0.2-2.9-0.4-4c1.4,0.2,3.1,0.5,5.1,0.8c1.9,0.2,2.8,0.6,2.8,1c0,0.5-0.5,0.9-1.4,1.2
		c-0.7,0.2-1,0.6-1,1.2v0.9h5.1v-1.1c0-1.5-0.2-2.9-0.5-4c1.4,0.2,3.1,0.5,5.2,0.8c1.9,0.2,2.8,0.6,2.8,1c0,0.5-0.5,0.9-1.5,1.2
		c-0.7,0.2-1,0.6-1,1.2v0.9h1.1c0.1,0,0.6-0.6,1.5-1.6c1-1.2,1.6-1.9,1.9-1.9c0.6,0,1.4,0.6,2.6,1.9c1.2,1.3,1.8,2.1,1.8,2.3
		c0,0.6-0.3,0.9-0.9,0.9h-8v2.4c0,0.6-0.8,1.1-2.3,1.4c-0.7,0.1-1.2,0.2-1.5,0.2c-0.9,0-1.4-0.3-1.4-0.9v-3.1h-5.1v2.2
		c0,0.4-0.3,0.7-0.9,1c0.5,0.2,1.1,0.5,1.8,1c1.2,0.9,1.9,1.4,1.9,1.8c0,0.3-0.2,0.6-0.5,0.8c-0.3,0.3-0.6,0.5-0.6,0.7v5.8
		c0,0.5-0.6,0.8-1.9,1c-0.6,0.1-1,0.1-1.2,0.1c-0.8,0-1.1-0.3-1.1-0.9V26h-3.7v0.8c1.4,0.3,2.6,0.7,3.8,1c1.2,0.5,1.9,0.9,1.9,1.3
		s-0.3,0.7-1,0.8c-0.7,0.2-1.1,0.3-1.2,0.5c-0.5,0.9-0.9,1.6-1.4,2.3l0.7,0.3h5.3c0.3-0.8,0.7-1.5,0.9-2.2c0.2-0.9,0.5-2,0.7-3.3
		c1.4,0.5,2.8,0.9,4.2,1.2c1.3,0.4,2,0.8,2,1.2s-0.3,0.7-1,0.9c-0.7,0.1-1.1,0.3-1.2,0.5c-0.6,0.7-1.4,1.2-2.2,1.7
		c-0.1,0.1-0.1,0.1-0.1,0.1h4.8c0,0,0.5-0.5,1.3-1.4c1.1-1.3,1.9-2,2.3-2c0.3,0,1.4,0.8,3.1,2.3c1,0.9,1.6,1.5,1.6,1.8
		c0,0.6-0.3,0.9-0.9,0.9h-9.8v4.5h1.3c0,0,0.5-0.4,1.2-1.3c1.1-1.2,1.8-1.8,2.1-1.8c0.3,0,1.2,0.7,2.8,2.1c0.9,0.9,1.4,1.4,1.4,1.6
		c0,0.6-0.2,0.9-0.6,0.9h-8.2v4.7h1.8c0,0,0.5-0.4,1.2-1.3c1.1-1.2,1.8-1.8,2.1-1.8c0.3,0,1.2,0.7,2.8,2.2c0.9,0.9,1.4,1.4,1.4,1.6
		c0,0.6-0.2,0.9-0.7,0.9h-8.6v4.7h1.3c0,0,0.5-0.5,1.2-1.4c1.1-1.2,1.8-1.9,2.1-1.9c0.3,0,1.3,0.7,3,2.2c1,1,1.5,1.5,1.5,1.8
		c0,0.6-0.3,0.9-0.9,0.9h-18.8v2.8c0,0.6-0.9,1.1-2.6,1.4c-0.7,0.1-1.3,0.2-1.6,0.2c-1.2,0-1.8-0.6-1.8-1.6c0.3-2.4,0.5-4.8,0.5-7.3
		V37.7c-1,0.8-2,1.6-3.1,2.3l-0.7-0.7c1.6-2,2.8-4,3.6-5.8c0.8-1.8,1.5-3.8,2-6.1c-0.3,0.1-0.7,0.2-1.3,0.3c-0.6,0.1-1,0.1-1.2,0.1
		c-0.7,0-1.1-0.3-1.1-1.1V20c0-0.9-0.1-1.9-0.2-3.1c1.4,0.4,2.8,0.9,4.3,1.5h2.8c0.5-0.7,0.9-1.2,1.2-1.8c0.1-0.1,0.1-0.2,0.2-0.2
		h-0.1c-0.7,0.1-1.2,0.2-1.5,0.2c-0.9,0-1.4-0.3-1.4-0.9v-2.8c-3,0-5.2,0.1-6.4,0.2l-0.9-2.2C465,11.2,467.5,11.3,470.6,11.3z
		 M473.2,24.5V20h-3.7v4.4H473.2z M477.9,34.6h-5.3v4.5h5.3V34.6z M477.9,40.6h-5.3v4.7h5.3V40.6z M477.9,46.8h-5.3v4.7h5.3V46.8z
		 M483.1,18.4h3.5c0.5-0.6,0.9-1.1,1.2-1.6c0.3-0.4,0.6-0.6,1-0.6c0.4,0,1.1,0.4,2.3,1.1c1.2,0.9,1.9,1.4,1.9,1.8
		c0,0.3-0.2,0.6-0.5,0.8c-0.3,0.2-0.6,0.5-0.6,0.7v5.6c0,0.5-0.7,0.8-2,1c-0.6,0.1-1.1,0.1-1.3,0.1c-0.8,0-1.1-0.3-1.1-1.1V26h-3.7
		v0.5c0,0.5-0.7,0.8-1.9,1c-0.6,0.1-1,0.1-1.2,0.1c-0.7,0-1.1-0.3-1.1-1.1v-6.2c0-0.8-0.1-1.8-0.2-3.1
		C480.5,17.5,481.8,17.9,483.1,18.4z M487.4,24.5V20h-3.7v4.4H487.4z M501.5,7.4c1.7,0.6,2.6,1.1,2.6,1.7c0,0.6-0.5,0.9-1.4,1
		c-0.9,0.1-1.4,0.3-1.5,0.6c-0.6,2.5-1.3,4.7-2,6.6h7.8c0.6-0.6,1.1-1.1,1.6-1.6c0.7-0.7,1.2-1.1,1.5-1.1c0.5,0,1.5,0.7,3.2,2.2
		c1.5,1.3,2.3,2.2,2.3,2.7c0,0.4-0.5,0.6-1.2,0.7c-1,0-1.5,0.1-1.6,0.2c-1.5,3.1-3.2,6.2-5.3,9.3l-0.9-0.4c0.2-1.6,0.4-3.2,0.6-4.8
		c-0.1,0.1-0.1,0.1-0.1,0.1c-0.9,0.3-1.3,0.7-1.3,1.1c-0.3,4.4-0.7,8.1-1.1,11.1c0.6,1.9,1.3,3.7,2.2,5.4c1,2,2.1,3.6,3.3,5
		c1.2,1.4,3,2.8,5.3,4.1l-0.4,1.6c-1.8,0.2-3.2,1.1-4,2.6c-0.7,1.2-1.2,1.9-1.6,1.9c-0.4,0-1.1-1-2.2-2.9c-1.2-2-2.3-4.5-3.2-7.6
		c-0.3-1.3-0.7-2.6-0.9-3.9c-0.1,0.2-0.1,0.3-0.1,0.4c-1.1,3.3-2.8,6.1-5.1,8.6c-1.9,2-4.7,3.9-8.2,5.6l-0.4-0.9
		c2.1-2,4-4.4,5.6-7.2c1.4-2.3,2.6-5.4,3.5-9.3c0.7-3.4,1.1-7.4,1.1-12.1c0-2.8-0.1-5.2-0.2-7.1c1.8,0.2,3.5,0.6,5.2,0.9
		c1.3,0.2,2.3,0.5,2.8,0.7c0.1-1.2,0.3-2.6,0.4-3.8h-9c-0.3,0.9-0.7,1.6-1,2.3c-1.3,2.8-3,5.7-5.1,8.6l-0.9-0.9
		c1.2-3.9,2.2-7.4,2.8-10.7c0.7-3.4,1.2-7.5,1.7-12.4C497.9,6.4,499.8,6.9,501.5,7.4z"/>
	<path class="st0" d="M525.6,33.1c0.7-0.6,1.2-1.2,1.8-1.8c0.8-0.9,1.4-1.3,1.8-1.3c0.6,0,1.5,0.7,2.9,1.9c1.6,1.4,2.4,2.2,2.4,2.5
		c0,0.6-0.4,1-1.2,1.5c-0.8,0.6-1.2,1.1-1.2,1.6v10c1.7,2,3.8,3.1,6.4,3.4c2.9,0.4,8.6,0.6,17,0.6c5,0,10.6-0.3,16.8-1.1l0.2,1.1
		c-1.4,0.3-2.6,1.6-3.5,4c-0.2,1-0.5,1.5-0.9,1.5h-14.4c-3.2,0-7.4-0.2-12.4-0.6c-5-1-8.5-3.3-10.7-6.9c-0.2,0-0.3,0.2-0.5,0.5
		c-1.2,2.2-2.8,4.1-4.6,6c0,1.5-0.3,2.2-0.9,2.2c-0.3,0-0.7-0.5-1.1-1.2c-1-1.8-2-4.1-3.1-6.7c2.6-0.4,4.6-0.8,6-1.1V34.6
		c-2.3,0-4,0.2-5.1,0.5l-0.9-2.7C521.8,32.9,523.6,33.1,525.6,33.1z M529.5,20.7c1.4,0.9,2,1.8,2,2.9c0,1-0.5,2-1.4,3
		c-0.6,0.7-1.4,1-2.4,1c-0.9,0-1.7-0.7-2.3-2.2c-0.9-2.1-2.4-4.1-4.5-6.2l0.5-0.9C525.2,19,528,19.8,529.5,20.7z M532.1,10.5
		c1.2,0.8,1.9,1.6,1.9,2.6c0,1.1-0.5,2.1-1.4,3c-0.6,0.7-1.4,1-2.4,1c-0.9,0-1.6-0.7-2.2-2.2c-0.8-2-2.2-3.9-4.3-5.8l0.5-0.9
		C528,9,530.6,9.7,532.1,10.5z M544.2,13.3v24.4c2.4-0.5,4.7-1,6.9-1.7l0.2,0.7c-3.5,3.5-7.1,6-10.9,7.5c-0.5,0.1-0.6,0.3-0.6,0.6
		c-0.1,0.2-0.2,0.5-0.2,0.8c-0.1,0.5-0.3,0.7-0.6,0.7c-0.8,0-1.6-1.2-2.6-3.8c-0.3-0.7-0.8-1.9-1.4-3.5c1.1-0.1,2.2-0.2,3.3-0.5
		V19.3c0-4.7-0.2-8.2-0.7-10.7c1.7,0.4,3.7,1,5.8,1.9c0.2-0.2,0.4-0.5,0.6-0.7c0.8-0.8,1.6-2.1,2.4-3.8c1.6,1.3,3,2.3,4,3
		c0.3,0.3,0.7,0.6,1,0.8c0-0.5-0.1-0.9-0.1-1.3c2.4,0.6,4.8,1.4,6.9,2.4h3.7c0.5-0.5,0.9-1,1.2-1.4c1.1-1,1.8-1.5,2.3-1.5
		c0.6,0,1.8,0.7,3.6,1.9c1.7,1.3,2.6,2.2,2.6,2.7c0,0.4-0.5,0.9-1.3,1.5c-1.1,0.7-1.6,1.4-1.6,2v23.3c0,1.8-1,3.1-3,4
		c-1.6,0.7-3,1.1-4.1,1.1c-0.3,0-0.7-0.6-0.9-2c-0.3-1.2-1.4-2.4-3.1-3.3v8.9c0,0.7-0.9,1.2-2.7,1.6c-0.8,0.1-1.4,0.2-1.8,0.2
		c-1.4,0-2-0.6-2-1.8c0.3-4,0.5-7.6,0.5-10.7V18.2c0-1.8-0.1-3.9-0.2-6.2l-2.2-0.2C547.5,12.5,545.8,13,544.2,13.3z M557.8,37.7
		c1.6,0.3,2.9,0.5,4,0.5c0.7,0,1.1-0.5,1.1-1.5V12.5h-5.1V37.7z"/>
	<path class="st0" d="M594.5,10.9h4.4c0.9-1,1.6-1.8,2.2-2.4c0.6-0.7,1.1-1.1,1.8-1.1c0.6,0,1.8,0.8,3.5,2.3
		c1.7,1.5,2.6,2.6,2.6,3.1s-0.7,1-2.2,1.5c-1.4,0.5-2,0.9-2,1.1c0,4.8,0.9,9.1,2.6,13c1.2,3.7,3.1,6.9,5.6,9.6
		c1.8,2.4,4,4.7,6.9,6.7c2.8,2.1,5.8,3.7,8.9,5l-0.5,1.5c-1.5,0.3-2.7,1.2-3.7,2.8c-1,1.6-1.6,2.5-1.8,2.5c-1,0-2.7-0.9-4.8-2.7
		c-4-3.5-6.9-6.9-8.7-9.9c-2.5-3.7-4.5-8.9-6-15.3c-1.8,5.4-4,9.9-6.6,13.4c-2.3,3.3-5.3,6.3-8.9,8.9c-3.3,2.4-6.6,4.5-10,6.3
		l-0.7-1.4c3.5-2.5,7.1-5.9,10.8-10.3c2.6-3.3,4.9-7.2,7-11.6c1.3-2.9,2.6-6.5,3.7-10.7c1.1-4.1,1.8-7.7,1.8-10.8h-5.8
		c-2.3,0-4.6,0.1-6.9,0.2l-0.9-2.2C589.7,10.8,592.3,10.9,594.5,10.9z"/>
	<path class="st0" d="M640,22v-7.5c0-3.1-0.2-5.8-0.5-8.2c1.5,0.2,3.6,0.5,6.1,1c1.9,0.3,3,0.7,3,1.1c0,0.5-0.6,1-1.7,1.4
		c-0.8,0.2-1.2,0.7-1.2,1.2v10.2c0.2-0.3,0.5-0.7,0.8-1c1.1-1.5,1.9-2.2,2.1-2.2c0.6,0,1.5,0.7,2.9,2.2c0.8,0.9,1.4,1.6,1.7,2h6.7
		c-0.3-0.4-0.6-1.2-0.7-2.3c-0.3-1.8-1.1-3.7-2.3-5.7c-2,0.1-3.5,0.1-4.4,0.2l-0.9-2.2c1.8,0.3,4.4,0.5,7.8,0.5h5.5v-2
		c0-1.4-0.2-2.9-0.5-4.5c2.3,0.2,4.4,0.5,6.5,0.9c1.3,0.1,2,0.4,2,1c0,0.2-0.4,0.5-1.2,0.9c-0.9,0.4-1.2,0.9-1.2,1.4v2.4h5.3
		c0.1-0.1,0.7-0.7,1.7-2c1.2-1.5,2-2.2,2.3-2.2c0.6,0,1.6,0.7,3,2.2c1.4,1.5,2.1,2.4,2.1,2.7c0,0.6-0.3,0.9-0.9,0.9h-10.4
		c0.7,0.3,1.4,0.6,2.1,0.9c1.9,0.7,2.8,1.3,2.8,2c0,0.4-0.5,0.7-1.4,0.9c-0.9,0.1-1.4,0.3-1.5,0.7c-1.1,1.3-2.6,2.5-4.4,3.6h4.4
		c0,0,0.6-0.6,1.8-1.9c1.5-1.7,2.4-2.6,2.9-2.6s1.7,1,3.8,2.8c1.2,1.2,1.9,1.9,1.9,2.2c0,0.6-0.4,0.9-1.1,0.9h-39.1v14.9
		c2.3-0.5,4.5-1.1,6.7-1.8l0.2,0.6c-4.1,4.1-8.5,7-13,8.9c-0.5,0.1-0.7,0.3-0.7,0.7c-0.1,0.2-0.2,0.5-0.2,0.8
		c-0.1,0.6-0.3,0.8-0.6,0.8c-0.9,0-1.8-1.4-2.9-4.2c-0.3-0.8-0.9-2-1.6-3.8c2.3-0.2,4.4-0.6,6.5-0.9v-16c-2.8,0-4.8,0.1-6,0.2
		l-0.9-2.2C634.7,21.8,637,22,640,22z M659.4,27.3h14.7c0.7-0.8,1.5-1.5,2.2-2.2c0.5-0.6,1-0.9,1.4-0.9c0.4,0,1.4,0.5,3,1.4
		c1.8,1.2,2.7,2.1,2.7,2.6c0,0.5-0.4,1-1.1,1.5c-0.6,0.5-0.9,1-0.9,1.6v4.2c0,1.6,0.1,3.7,0.2,6.4c0,0.7-0.9,1.3-2.7,1.6
		c-0.8,0.1-1.4,0.2-1.8,0.2c-1,0-1.5-0.5-1.5-1.6v-0.5h-1.4V49c0,1.2,0.3,1.9,0.9,2c0.5,0.2,1.2,0.2,2.3,0.2c0.9,0,1.6-0.3,2.1-0.9
		c0.5-1,1.2-3.5,2.3-7.3l1.3,0.2l0.2,3.5c0,1.4,0.4,2.6,1.2,3.5c0.7,0.9,1,1.7,1,2.5c0,1.1-0.5,1.9-1.2,2.3
		c-1.4,0.9-3.7,1.4-6.9,1.4h-3.2c-1.2,0-2.2-0.2-3.1-0.5c-1.9-0.5-2.8-1.9-2.8-4.4v-10h-1.9c-0.5,3-1.2,5.2-2.2,6.7
		c-1,1.5-2.2,2.8-3.6,3.9c-1.5,1.1-3.5,2.1-5.8,3c-3.1,1.1-6.5,2-10.4,2.8l-0.7-1.3c2.2-0.6,4.3-1.4,6.4-2.4c2.1-1,3.9-2.1,5.4-3.5
		c1.4-1.2,2.4-2.6,3.1-3.9c0.7-1.5,1.1-3.2,1.2-5.3h-0.6c0,0.7-0.9,1.1-2.6,1.4c-0.7,0.1-1.3,0.2-1.6,0.2c-1.2,0-1.8-0.5-1.8-1.6
		c0.1-1,0.2-2,0.2-3.3v-8.9c0-1.2-0.1-2.7-0.2-4.5C655.3,25.6,657.3,26.4,659.4,27.3z M675.7,33.5v-4.7h-16.4v4.7H675.7z
		 M675.7,40.2v-5.1h-16.4v5.1H675.7z M668.9,22c1-2.4,1.6-5.1,2-8h-11.6c1.7,0.7,3,1.3,3.7,1.9c1.3,1,2,1.9,2,2.6
		c0,1.3-0.3,2.3-0.9,3.1c-0.2,0.2-0.5,0.4-0.6,0.5H668.9z"/>
</g>
<g>
	<path d="M13.2,91h3.1v-0.8c0-1.2-0.1-2.2-0.3-3.1c1.1,0.1,2.4,0.3,4,0.5c1.4,0.1,2.1,0.4,2.1,0.7c0,0.4-0.4,0.8-1.1,1
		c-0.5,0.2-0.8,0.5-0.8,0.9V91h5.6v-0.8c0-1.2-0.1-2.2-0.3-3.1c1.1,0.1,2.4,0.3,4,0.5c1.4,0.1,2.2,0.4,2.2,0.7c0,0.4-0.4,0.8-1.2,1
		c-0.5,0.2-0.8,0.5-0.8,0.9V91h4.1c0.1,0,0.4-0.5,1.1-1.3c0.8-1,1.3-1.5,1.4-1.5c0.4,0,1.1,0.5,2,1.4c0.9,1,1.4,1.6,1.4,1.8
		c0,0.4-0.2,0.5-0.6,0.5h-4.8c0.5,0.2,1,0.3,1.3,0.5c0.5,0.3,0.8,0.7,0.8,1.1c0,0.6-0.3,1.1-0.7,1.6c-0.3,0.4-0.8,0.5-1.3,0.5
		c-0.3,0-0.5-0.3-0.7-0.8c-0.1,0.1-0.3,0.2-0.5,0.3c-0.6,0.1-0.9,0.4-0.9,0.6v1h2.4c0,0,0.3-0.3,0.9-0.9c0.8-0.9,1.3-1.3,1.5-1.3
		s0.9,0.5,2,1.5c0.7,0.6,1,1,1,1.1c0,0.4-0.2,0.5-0.5,0.5h-7.3c0,2.7,0.2,5,0.4,6.9c0.2,1.5,0.4,3,0.7,4.3c0.6-2,1.1-4.9,1.5-8.7
		c0.9,0.4,1.9,0.6,2.8,0.9c1.3,0.4,2,0.7,2,1c0,0.4-0.3,0.6-0.9,0.7c-0.6,0.1-0.9,0.2-0.9,0.5c-1,4.2-2,7.2-3.1,9
		c-0.1,0.1-0.1,0.2-0.1,0.2c0.2,0.5,0.4,0.9,0.7,1.3c0.6,1,1.1,1.5,1.4,1.5c0.3,0,0.6-0.6,1.1-1.8c0.2-0.6,0.6-1.5,1-2.7l0.6,0.1
		c-0.4,2.5-0.6,4-0.6,4.5c0,0.6,0.2,1.1,0.5,1.6c0.4,0.6,0.6,1,0.6,1.3c0,0.8-0.4,1.3-1.3,1.3c-0.9,0-1.9-0.5-3-1.3
		c-1.2-0.9-2.1-1.9-2.8-3.2c-0.1-0.1-0.1-0.1-0.1-0.2c-0.4,0.4-0.8,0.8-1.3,1c-1.7,1.1-4.1,2.3-7,3.4l-0.3-0.6
		c2-1.1,3.8-2.3,5.3-3.7c0.1-0.1,0.3-0.2,0.4-0.4h-8.4v1c0,0.4-0.5,0.6-1.4,0.8c-0.4,0.1-0.7,0.1-0.9,0.1c-0.6,0-0.8-0.3-0.8-0.9
		c0.1-2,0.1-3.8,0.1-5.3v-6.6c0-1.3-0.1-2.9-0.3-4.7c1.2,0.3,2.3,0.6,3.4,1.1h3.4c0,0,0.3-0.3,0.8-0.9c0.6-0.8,1.1-1.2,1.3-1.2
		s0.8,0.5,1.9,1.4c0.1,0.1,0.3,0.3,0.4,0.4C29,99.2,29,98.4,29,97.6H17.1v7.4c0,2.5-0.1,4.7-0.4,6.5c-0.4,1.7-1,3.3-1.9,4.7
		c-0.8,1.1-1.9,2.3-3.3,3.5l-0.5-0.3c0.9-1.9,1.5-3.6,1.9-5.3c0.3-1.5,0.5-3.5,0.6-6h-1.3c-0.1,1.6-0.3,2.9-0.5,3.8
		c-0.2,0.8-0.5,1.5-0.8,2.1c-0.3,0.6-0.8,1.2-1.3,1.6c-0.6,0.6-1.4,1.1-2.2,1.6l-0.3-0.5c0.3-0.3,0.5-0.8,0.7-1.4
		c0.2-0.6,0.4-1.2,0.6-2c0.1-0.7,0.3-1.4,0.4-2.2c0.1-0.9,0.1-1.8,0.1-3c-0.5,0-1,0-1.4,0.1L7,106.9c1.3,0.2,2.8,0.3,4.6,0.3h1.8
		c0-0.7,0-1.4,0-2.1v-1.9h-2v0.4c0,0.4-0.5,0.7-1.4,0.9c-0.4,0.1-0.8,0.1-0.9,0.1c-0.6,0-0.8-0.2-0.8-0.6v-5.3c0-1-0.1-1.8-0.3-2.5
		c0.9,0.1,2,0.3,3.3,0.5c1.1,0.1,1.8,0.4,1.8,0.6c0,0.3-0.3,0.6-0.9,0.8c-0.4,0.1-0.6,0.4-0.6,0.8v3.3h2c-0.1-3.1-0.1-5.4-0.3-7
		c1.8,0.5,3.2,1,4.3,1.5H29c0-0.7-0.1-1.4-0.1-2.2c-0.3,0.1-0.6,0.2-1,0.3c-0.5,0.1-0.9,0.1-1.1,0.1c-0.8,0-1.1-0.2-1.1-0.7
		c0.1-0.7,0.1-1.2,0.1-1.5v-0.7h-5.6V94c0,0.5-0.6,0.8-1.8,1c-0.6,0.1-0.9,0.1-1.1,0.1c-0.8,0-1.1-0.2-1.1-0.7
		c0.1-0.7,0.1-1.2,0.1-1.5v-1h-3.6c-1.9,0-3.5,0.1-4.8,0.3l-0.6-1.7C9.4,90.8,11.4,91,13.2,91z M21.3,104.4h1.5v-3.2h-1.5V104.4z
		 M21.3,108.6h5.2v-3.2h-5.2V108.6z M23,113.8v-4.2h-1.7v4.2H23z M29.2,101.2h-3.6v3.2H26c0.3-0.4,0.6-0.7,0.8-1
		c0.2-0.2,0.5-0.4,0.7-0.4c0.3,0,0.8,0.3,1.6,0.8c0.1,0.1,0.2,0.1,0.3,0.2C29.4,103.1,29.3,102.2,29.2,101.2z M31.5,112.6
		c-0.4-0.9-0.8-2-1-3.1c-0.3-0.9-0.5-2.1-0.8-3.7c-0.2,0.1-0.3,0.3-0.3,0.4v3.8c0,0.3-0.5,0.5-1.3,0.6c-0.4,0.1-0.7,0.1-0.9,0.1
		c-0.5,0-0.7-0.2-0.7-0.7v-0.4h-0.7v4.2H26c0,0,0.3-0.3,0.8-0.9c0.6-0.8,1.1-1.2,1.3-1.2c0.2,0,0.8,0.5,1.9,1.4
		c0.3,0.3,0.5,0.5,0.7,0.6C30.9,113.4,31.2,113,31.5,112.6z M32.2,92.1l0.1-0.1h-2.6v1.4c1.1,0.2,2,0.3,2.6,0.4
		c0.4,0.1,0.7,0.1,1,0.2C33,93.3,32.6,92.7,32.2,92.1z"/>
	<path d="M55.2,89.5c0.8,0.5,1.3,1.1,1.3,1.8c0,0.6-0.3,1.3-0.9,1.9c-0.1,0.2-0.3,0.3-0.4,0.4h5.1c0.7-1.7,1.1-3.8,1.2-6.3
		c1.6,0.3,3,0.6,4.1,0.8c1.5,0.3,2.2,0.6,2.2,1c0,0.3-0.4,0.5-1.2,0.7c-0.6,0.1-1,0.2-1.1,0.5c-1,1.1-2.4,2.3-4.2,3.3h5.2
		c0.1,0,0.5-0.6,1.3-1.6c1-1.1,1.5-1.8,1.7-1.8c0.5,0,1.3,0.6,2.3,1.7c1.1,1.1,1.6,1.8,1.6,2.1c0,0.4-0.3,0.6-0.7,0.6H61v4h3.9
		c0.1,0,0.5-0.5,1.2-1.5c0.9-1.1,1.4-1.7,1.6-1.7c0.5,0,1.2,0.6,2.2,1.6s1.5,1.8,1.5,2c0,0.4-0.3,0.5-0.7,0.5H61v4.2h7.4
		c0.1,0,0.5-0.6,1.3-1.6c0.9-1.1,1.5-1.8,1.6-1.8c0.5,0,1.3,0.6,2.3,1.7c1.1,1.1,1.6,1.8,1.6,2.1c0,0.4-0.3,0.6-0.7,0.6H58.8
		c0.2,0.1,0.4,0.1,0.6,0.1c1.5,0.3,2.3,0.6,2.3,1c0,0.3-0.3,0.6-0.9,0.8c-0.6,0.2-0.9,0.5-0.9,0.9c-0.2,0.7-0.4,1.3-0.5,1.8h8.9
		c0.1,0,0.6-0.6,1.4-1.6c1-1.2,1.5-1.8,1.7-1.8c0.5,0,1.3,0.6,2.3,1.7c1.1,1.1,1.6,1.9,1.6,2.1c0,0.4-0.3,0.6-0.7,0.6H61.1
		c1.4,1.4,2.6,2.3,3.8,2.8c0.9,0.5,2.3,1,4,1.4c2,0.6,4.2,1,6.6,1.2l-0.4,0.9c-1,0.4-1.6,1.1-2,2c-0.2,0.8-0.4,1.3-0.5,1.3
		c-0.5,0-1.5-0.3-3.2-0.9c-1.6-0.6-3.1-1.3-4.3-2.1c-1.3-0.9-2.3-1.8-3-2.9c-0.8-0.9-1.5-2.1-2.2-3.5H59c-0.6,1.6-1.3,2.9-2,3.7
		c-1.3,1.5-2.8,2.6-4.6,3.5c-2.3,1.1-5.4,1.9-9.2,2.5l-0.3-0.4c3.3-1.2,5.8-2.4,7.7-3.7c1.6-1,2.8-2.3,3.7-3.9
		c0.3-0.5,0.6-1.1,0.8-1.7h-6.7c-2.1,0-3.5,0.1-4.3,0.1l-0.6-1.4c1.1,0.2,2.8,0.3,4.9,0.3h7c0.3-1.3,0.5-2.9,0.5-4.6h-7.7
		c-2.1,0-3.5,0.1-4.3,0.1l-0.6-1.4c1.1,0.2,2.8,0.2,4.9,0.2h8.7v-4.2h-4.8c-2,0-3.5,0.1-4.3,0.1l-0.6-1.4c1.1,0.2,2.8,0.3,4.9,0.3
		h4.8v-4h-7c-2.1,0-3.5,0.1-4.3,0.1L45,93.2c1.1,0.2,2.8,0.3,4.9,0.3h3.5c-0.3-0.3-0.6-0.6-0.8-1.1c-0.5-1.3-1.5-2.5-2.8-3.8
		l0.3-0.6C52.5,88.5,54.2,89,55.2,89.5z"/>
	<path d="M83.3,89.8h1.1c0.5-0.4,0.9-0.8,1.4-1.1c0.6-0.4,0.9-0.7,1.1-0.7c0.3,0,1,0.4,1.9,1.1c1.2,1,1.9,1.8,1.9,2.1
		c0,0.2-0.4,0.5-1.1,0.6c-0.8,0.1-1.3,0.4-1.5,0.8l-3.7,7.3h1.7c0.3-0.3,0.6-0.6,0.9-0.9c0.5-0.4,0.9-0.6,1.2-0.6
		c0.4,0,1.1,0.4,2.1,1.2c1.1,1,1.6,1.7,1.6,2c0,0.3-0.4,0.6-1.1,0.9c-0.7,0.3-1,0.6-1.1,0.8c-0.7,3.1-1.5,5.8-2.3,7.8
		c-0.2,0.5-0.5,0.9-0.7,1.3c0.7,0.7,1.6,1.2,2.8,1.5c1.8,0.7,5.1,1,10.1,1c3.8,0,7.7-0.3,11.7-0.9l0.3,0.9c-1.4,0.8-2.1,1.6-2.3,2.7
		c-0.2,1-0.6,1.5-1,1.5c-8.5,0-14.1-0.4-16.8-1.1c-2.8-0.7-4.8-1.9-6.1-3.5c-0.4,0.5-0.7,0.9-1.1,1.3c-1.7,1.6-3.4,2.9-4.9,3.8
		l-0.6-0.4c2.1-2.2,3.8-4.7,5-7.4c-0.5-1.4-0.9-3-1-4.8c0.1-0.6,0-1-0.3-1c-0.1,0-0.1,0.3-0.2,0.9c-0.1,0.9-0.3,1.8-0.5,2.6
		c-0.1,0.6-0.2,0.9-0.2,1c0.1,0.2,0.2,0.4,0.3,0.6c0.1,0.2,0.1,0.4,0.1,0.5c0,0.3-0.1,0.4-0.4,0.4c-0.4,0-0.9-0.4-1.5-1.1
		c-0.5-0.5-1.1-1-1.7-1.5c1.1-1.1,2.1-2.5,2.9-4c0.4-0.7,0.9-1.1,1.3-1.1c0.8,0,1.3,0.5,1.3,1.5c0.3,1.1,0.6,2.1,1,3
		c0.7-2.4,1.2-5.1,1.5-8.2h-2.4l-0.7,1.4c-0.2,0.5-0.4,0.8-0.8,0.8c-0.4,0.1-0.7,0.1-1.1,0.1c-0.3,0-0.7-0.1-1.3-0.3
		c-0.4-0.1-0.5-0.3-0.5-0.6l5.3-11.5h-1.4c-1.3,0-2.6,0.1-3.8,0.1L79,89.6C80.5,89.8,81.9,89.8,83.3,89.8z M96.4,91
		c-0.1-1.4-0.2-2.6-0.3-3.8c1.1,0.1,2.5,0.3,4.1,0.6c1.1,0.1,1.8,0.4,1.8,0.7c0,0.4-0.4,0.7-1,0.9c-0.5,0.1-0.7,0.4-0.7,0.9V91h2.5
		c0.4-0.4,0.8-0.8,1.1-1.1c0.5-0.5,0.9-0.8,1.1-0.8c0.4,0,1,0.4,2,1.2c1.1,0.9,1.6,1.4,1.6,1.6c0,0.4-0.3,0.6-0.7,0.9
		c-0.5,0.4-0.7,0.7-0.7,1v1.7h0.4c0.1-0.3,0.4-0.6,0.6-1.1c0.3-0.6,0.5-1,0.6-1c0.2,0,0.6,0.4,1.1,1.1c0.5,0.7,0.8,1.2,0.8,1.4
		c0,0.4-0.1,0.5-0.4,0.5h-3.2c0,1.6,0.1,2.7,0.1,3.3v1.2c0,0.5-0.6,0.8-1.8,1c-0.5,0.1-0.9,0.1-1.1,0.1c-0.6,0-0.9-0.3-0.9-0.9h-3.3
		v3.5h3.4c0.1,0,0.4-0.4,0.9-1.1c0.6-0.9,1-1.3,1.2-1.3c0.4,0,1,0.4,1.8,1.3c0.8,0.9,1.2,1.4,1.2,1.5c0,0.4-0.2,0.6-0.5,0.6h-7.8
		v3.8h3.8c0.1,0,0.5-0.5,1.2-1.4c0.8-1,1.3-1.5,1.5-1.5c0.4,0,1.1,0.5,2,1.5s1.4,1.6,1.4,1.8c0,0.4-0.3,0.6-0.7,0.6h-9.2v2.6
		c0,0.5-0.6,0.8-1.7,1c-0.5,0.1-0.9,0.1-1.1,0.1c-0.9,0-1.3-0.4-1.3-1.1c0.1-0.9,0.1-1.8,0.1-2.6h-2.5c-2,0-3.5,0.1-4.3,0.1
		l-0.5-1.4c1.1,0.2,2.7,0.3,4.9,0.3h2.6c0-0.9,0.1-1.8,0.1-2.5v-1.3h-1.1c-2,0-3.5,0.1-4.3,0.1l-0.5-1.4c1.1,0.2,2.7,0.3,4.9,0.3
		h1.1v-3.5c-1.7,0-3,0.1-4,0.1l-0.5-1.4c1.3,0.2,2.8,0.3,4.6,0.3v-3.8h-3.6c-0.7,0-1.6,0.1-2.8,0.1l-0.6-1.4
		c1.4,0.2,2.6,0.3,3.4,0.3h3.6v-2c0-0.5,0-1,0-1.5c-2.4,0-4,0.1-5,0.1l-0.6-1.4C92.4,90.9,94.2,91,96.4,91z M100.3,95.4h3.2v-3.5
		h-3.2V95.4z M100.3,100.2h3.2v-3.8h-3.2V100.2z"/>
	<path d="M119.1,94.3h3.1c0.1,0,0.5-0.5,1.2-1.4c0.8-1,1.3-1.5,1.5-1.5c0.4,0,1.1,0.5,2.1,1.5c0.9,1,1.4,1.6,1.4,1.8
		c0,0.4-0.3,0.6-0.7,0.6h-8.6c-2,0-3.5,0.1-4.3,0.1l-0.5-1.4C115.4,94.3,117,94.3,119.1,94.3z M120.8,89.7h0.7
		c0.1,0,0.4-0.5,1.1-1.3c0.8-1,1.3-1.5,1.4-1.5c0.4,0,1.1,0.5,2,1.4c0.9,1,1.4,1.6,1.4,1.8c0,0.4-0.2,0.5-0.6,0.5h-6
		c-2,0-3.5,0.1-4.3,0.1l-0.6-1.4C117,89.6,118.7,89.7,120.8,89.7z M120.8,98.9h0.7c0.1,0,0.4-0.5,1.1-1.3c0.8-1,1.3-1.5,1.4-1.5
		c0.4,0,1.1,0.5,2,1.5c0.9,1,1.4,1.6,1.4,1.8c0,0.4-0.2,0.6-0.6,0.6h-6c-2,0-3.5,0.1-4.3,0.1l-0.6-1.4
		C117,98.9,118.7,98.9,120.8,98.9z M120.5,107.9h1.5c0.5-0.5,0.9-1,1.4-1.4c0.3-0.4,0.6-0.5,0.9-0.5c0.3,0,0.9,0.3,1.9,0.9
		c1.1,0.8,1.7,1.3,1.7,1.6c0,0.3-0.3,0.6-0.8,1c-0.4,0.3-0.6,0.6-0.6,1v2.9c0,1.1,0,2.6,0.1,4.5c0,0.4-0.6,0.8-1.8,1
		c-0.5,0.1-0.9,0.1-1.1,0.1c-0.6,0-1-0.4-1-1.1v-1H120v1.5c0,0.4-0.6,0.8-1.7,1c-0.5,0.1-0.9,0.1-1.1,0.1c-0.8,0-1.1-0.4-1.1-1.1
		c0.1-1.2,0.1-2.4,0.1-3.7v-3.5c0-1.7-0.1-3.4-0.3-5C117.4,106.6,118.9,107.2,120.5,107.9z M120.9,103.4h0.6c0.1,0,0.4-0.5,1.1-1.3
		c0.8-1,1.3-1.5,1.4-1.5c0.4,0,1.1,0.5,2,1.5c0.9,1,1.4,1.6,1.4,1.8c0,0.4-0.2,0.6-0.6,0.6h-5.9c-2,0-3.5,0.1-4.3,0.1l-0.6-1.4
		C117.2,103.3,118.8,103.4,120.9,103.4z M122.8,115.8v-7H120v7H122.8z M132.7,103.7h6.7c0.4-0.4,0.8-0.6,1-0.8
		c0.6-0.4,1-0.6,1.4-0.6c0.3,0,1,0.5,2.2,1.5c1.1,1.1,1.7,1.8,1.7,2c0,0.3-0.4,0.5-1.2,0.6c-0.8,0.1-1.2,0.2-1.4,0.4
		c-0.8,1.9-1.8,3.5-3.2,5.1c-0.3,0.4-0.6,0.7-0.9,1c2.4,1.3,5.2,2.3,8.1,3l-0.1,0.9c-1.1,0.4-1.9,0.9-2.2,1.6
		c-0.4,0.9-0.7,1.3-1,1.3c-0.5,0-1.4-0.4-2.6-1.1c-1.5-0.7-3.1-1.8-4.7-3.1c0,0,0,0,0,0c-0.4,0.4-0.9,0.6-1.3,0.9
		c-2.1,1.4-5,2.6-8.7,3.5l-0.3-0.7c2.6-1.3,5.3-3.3,7.9-5.9c0,0,0,0,0.1-0.1c-0.5-0.6-0.9-1.1-1.3-1.8c-1-1.5-1.9-3.7-2.5-6.6
		c-0.7,0-1.3,0.1-1.8,0.1l-0.6-1.4C129.6,103.6,131.2,103.7,132.7,103.7z M134.8,89.6h2.3c0.4-0.5,0.8-0.9,1.1-1.2
		c0.5-0.5,0.9-0.8,1.3-0.8c0.5,0,1.2,0.4,2.3,1.2c1,0.8,1.5,1.4,1.5,1.9c0,0.3-0.3,0.7-0.9,1c-0.6,0.3-1,0.6-1,1.1V96
		c0,0.6,0.1,0.9,0.2,1c0.1,0.1,0.4,0.2,0.8,0.2l0.6-0.1c0.3,0,0.6-0.4,0.8-1.1c0.1-0.7,0.4-1.7,0.7-3l0.6,0.1l0.1,1.7
		c0,0.6,0.3,1.2,0.8,1.8c0.7,0.6,1.1,1.1,1.1,1.4c0,0.8-0.5,1.4-1.3,1.8c-1,0.4-2.1,0.6-3.3,0.6c-2.1,0-3.2-0.1-3.4-0.4
		c-0.9-0.3-1.4-1.4-1.4-3.4v-6.2h-3.1c0,2.6-0.3,4.7-0.7,6.2c-0.5,1.5-1.3,2.7-2.4,3.6c-1.1,0.9-2.5,1.6-4.2,2.2l-0.3-0.7
		c0.8-0.7,1.5-1.5,2.1-2.4c0.4-0.6,0.7-1.5,1-2.7c0.3-1.4,0.4-2.9,0.4-4.4c0-1.7-0.1-3.1-0.3-4.3C132,88.5,133.5,89,134.8,89.6z
		 M133.8,108.8c0.6,0.8,1.3,1.5,2.1,2.1c1.3-1.8,2.5-3.9,3.5-6.2h-6.7c-0.5,0-1,0-1.4,0C131.9,106.2,132.8,107.5,133.8,108.8z"/>
	<path d="M175.7,114.6l-9.1-9.1l-9.1,9.1l-2-2l9.1-9.1l-9.1-9.1l2-2l9.1,9.1l9.1-9.1l2,2l-9.1,9.1l9.1,9.1L175.7,114.6z"/>
	<path d="M195.7,90.4h12.7c0.5-0.5,0.9-0.9,1.3-1.4c0.6-0.6,1-1,1.3-1c0.4,0,1.3,0.4,2.4,1.2c1.4,1.1,2,1.8,2,2.1
		c0,0.3-0.4,0.7-1,1.1c-0.6,0.5-0.8,0.9-0.8,1.3v16.8l0.3,7.5c0,0.5-0.7,0.9-2,1.1c-0.6,0.1-1,0.1-1.3,0.1c-0.8,0-1.1-0.4-1.1-1.3
		v-1.8h-14v2c0,0.4-0.6,0.8-1.9,1c-0.6,0.1-1,0.1-1.2,0.1c-0.9,0-1.3-0.4-1.3-1.1c0.2-2.8,0.3-5.3,0.3-7.4V95.4
		c0-1.8-0.1-4.1-0.4-6.7C192.7,89.1,194.2,89.7,195.7,90.4z M209.4,102.1V91.4h-14v10.7H209.4z M209.4,115.3v-12.2h-14v12.2H209.4z"
		/>
	<path d="M240.3,87.8c0.9,0.1,1.3,0.3,1.3,0.7c0,0.1-0.3,0.4-0.8,0.6c-0.6,0.2-0.9,0.6-0.9,0.9v1.5h7.8c0.1,0,0.5-0.5,1.2-1.5
		c0.9-1.1,1.4-1.7,1.6-1.7c0.5,0,1.2,0.6,2.3,1.6c1,1.1,1.5,1.8,1.5,2c0,0.4-0.3,0.6-0.7,0.6h-9.9c0.4,0.1,0.8,0.3,1.1,0.3
		c1,0.3,1.5,0.6,1.5,0.9c0,0.4-0.3,0.6-0.9,0.6c-0.6,0.1-0.9,0.2-1,0.3c-0.4,0.9-0.9,1.7-1.5,2.3c-0.3,0.4-0.7,0.7-1.1,1h5.4
		c0.4-0.3,0.6-0.6,0.8-0.8c0.7-0.6,1.1-0.9,1.4-0.9c0.4,0,1.1,0.4,2.3,1.2c1.1,0.9,1.6,1.4,1.6,1.7s-0.3,0.6-0.8,1
		c-0.7,0.5-1,0.9-1,1.3v14.5c0,1.2-0.7,2.1-2,2.8c-1.1,0.5-2,0.8-2.7,0.8c-0.3,0-0.5-0.4-0.7-1.3c-0.3-1.1-1.4-1.9-3.3-2.6l0-0.1
		c-0.5,0.1-0.8,0.1-1,0.1c-0.6,0-1-0.3-1-1v-0.6h-6.3v1.3c0,0.5-0.5,0.8-1.6,1c-0.5,0.1-0.8,0.1-1,0.1c-0.8,0-1.1-0.4-1.1-1.1
		c0.1-1.1,0.1-2.2,0.1-3.4v-1.7c0-1.4-0.1-2.8-0.2-4.1c-0.6,0.2-1.1,0.4-1.7,0.5l-0.4-0.4c0.7-0.3,1.3-0.7,1.9-1.3
		c0.6-0.5,1-1,1.3-1.6c0.3-0.8,0.4-1.8,0.4-2.9v-1.5h-4v19.7c0,0.4-0.6,0.8-1.7,1c-0.5,0.1-0.9,0.1-1.1,0.1c-0.9,0-1.3-0.4-1.3-1.1
		c0.2-2.5,0.3-4.8,0.3-6.7v-9.4c0-1.7-0.1-3.7-0.3-6.2c1.5,0.4,3,0.9,4.3,1.5h4.2c-0.2-0.4-0.4-1-0.6-1.8c-0.4-1.4-1-2.5-1.7-3.6
		l0.1-0.1h-3.7c-2,0-3.5,0.1-4.3,0.1l-0.6-1.4c1.1,0.2,2.8,0.3,4.9,0.3h9.4v-1.4c0-1-0.1-2-0.3-3C237.4,87.3,238.8,87.5,240.3,87.8z
		 M239.8,107.2c0.5-0.5,1-0.9,1.4-1.3c0.4-0.3,0.7-0.5,1-0.5c0.3,0,0.9,0.3,2,1c1.2,0.8,1.8,1.4,1.8,1.7c0,0.3-0.3,0.6-0.7,0.9
		c-0.4,0.3-0.5,0.6-0.5,1v0.6c0,1,0,2.3,0.1,4c0,0.2-0.1,0.4-0.4,0.6c1,0.1,1.8,0.1,2.5,0.1c0.6,0,1-0.4,1-1.1v-9.6
		c-0.8,0.4-1.9,0.5-3.4,0.5h-1.8c-0.6,0-1.2,0-1.7-0.2c-1-0.1-1.5-0.8-1.5-1.8v-4H236v1.5c0,1.2-0.3,2.3-0.8,3
		c-0.5,0.7-1.3,1.3-2.3,1.8c-0.4,0.2-0.7,0.4-1.1,0.5c1.1,0.4,2.3,0.8,3.4,1.3H239.8z M240.6,98.1c0.3-0.9,0.5-1.8,0.7-2.6
		c0.1-0.9,0.3-1.8,0.4-3h-8.9c0.3,0.1,0.6,0.3,0.9,0.5c0.7,0.5,1.2,0.9,1.5,1.4c0.3,0.4,0.4,0.9,0.4,1.3c0,0.7-0.3,1.4-0.8,1.9
		c-0.2,0.3-0.4,0.4-0.5,0.5H240.6z M241,113.2v-5h-6.3v5H241z M242.6,101.3c0,0.6,0.1,0.9,0.5,1c0.3,0.1,0.8,0.1,1.4,0.1
		c0.5,0,0.8-0.1,1-0.4c0.1-0.3,0.2-1.1,0.4-2.4h0.6l0.1,1.7c0,0.3,0.3,0.6,1,0.9c0.1,0,0.1,0.1,0.2,0.1v-3.2h-5.3V101.3z"/>
	<path d="M274,88.6c1.1,0.4,1.7,0.9,1.7,1.4c0,0.2-0.3,0.4-0.9,0.4c-0.6,0.1-0.9,0.2-0.9,0.3c-2.3,2.8-4.9,5.3-7.9,7.6
		c5.4-0.1,10.9-0.3,16.5-0.7c-1-1.4-2.4-3.1-4.2-5l0.4-0.6c3,1.5,5.2,2.7,6.5,3.8c1.3,1,2.2,1.8,2.8,2.6c0.4,0.6,0.6,1.2,0.6,1.8
		c0,1-0.3,1.8-0.8,2.4c-0.6,0.7-1.2,1-1.9,1c-0.3,0-0.6-0.5-1.1-1.4c-0.5-1.2-1.1-2.4-1.8-3.6c-5.8,1.7-12.5,2.9-20.2,3.6
		c-0.2,0-0.3,0.3-0.4,0.7c-0.1,0.6-0.4,0.8-0.6,0.8c-0.5,0-1-0.6-1.4-2c-0.3-0.7-0.7-1.9-1.2-3.4c1.6,0,3.3,0,5,0
		c2.6-3.4,4.7-7.1,6.1-11C271.6,87.7,272.9,88.2,274,88.6z M267.4,105.3h12.4c0.5-0.6,1.1-1.2,1.6-1.7c0.4-0.4,0.8-0.6,1.1-0.6
		c0.3,0,1,0.4,2.2,1.1c1.3,0.9,2,1.5,2,1.9c0,0.4-0.3,0.7-0.8,1c-0.4,0.3-0.6,0.7-0.6,1.1v6.3c0,1.1,0,2.6,0.1,4.6
		c0,0.4-0.6,0.8-1.9,1c-0.6,0-1,0.1-1.2,0.1c-0.6,0-1-0.4-1-1.1v-1.8H267v1.8c0,0.4-0.6,0.8-1.8,1c-0.5,0-0.9,0.1-1.1,0.1
		c-0.9,0-1.3-0.4-1.3-1.1c0.2-2.7,0.3-5,0.3-7.1v-1.5c0-1.8-0.1-3.9-0.3-6.4C264.5,104.2,266,104.7,267.4,105.3z M281.3,116.1v-9.8
		H267v9.8H281.3z"/>
	<path d="M301.3,95c-0.6,4.9-1.1,8.7-1.5,11.5c-0.3,2.7-0.5,4.5-0.5,5.5c0,0.6,0,1.3,0.1,2c0.4,1.5,0.6,2.7,0.6,3.5
		c0,0.6-0.2,1-0.5,1.3c-0.3,0.4-0.8,0.5-1.5,0.5c-0.9,0-1.6-0.2-2-0.5c-0.3-0.2-0.5-0.7-0.5-1.3c0-0.5,0.1-1.1,0.3-2.1
		c0.1-0.7,0.1-1.3,0.1-1.7c0-0.8-0.1-1.4-0.4-1.8c-0.3-0.5-1-0.9-2.3-1.3l0.1-0.9c1.4,0,2.3-0.1,2.7-0.3c0.4-0.2,0.7-0.7,1-1.5
		l3.5-13.2L301.3,95z M297.5,97.7c0.6,0.5,1,1.1,1,1.8c0,0.7-0.3,1.3-0.9,1.9c-0.4,0.4-0.9,0.6-1.5,0.6c-0.4,0-0.7-0.5-1-1.4
		c-0.4-1.3-1-2.6-1.9-3.8l0.3-0.6C295.4,96.7,296.8,97.2,297.5,97.7z M300,88.9c0.6,0.4,1,0.9,1,1.5c0,0.7-0.3,1.3-0.9,1.9
		c-0.4,0.4-0.9,0.6-1.5,0.6c-0.4,0-0.7-0.4-1-1.3c-0.4-1.2-1-2.3-1.9-3.5l0.3-0.6C297.9,88,299.2,88.5,300,88.9z M308.3,91.4
		c0.8,0.2,1.1,0.5,1.1,0.7c0,0.2-0.3,0.4-0.7,0.4c-0.4,0.1-0.7,0.2-0.7,0.3c-0.5,1-1,1.9-1.7,2.6c-0.3,0.4-0.7,0.8-1.1,1.1
		c0.7,0,1.4-0.1,2.1-0.2c-0.1-0.3-0.2-0.6-0.3-0.9l0.3-0.3c0.9,0.4,1.5,0.8,1.9,1c0.4,0.4,0.6,0.8,0.6,1.1c0,0.6-0.1,1.1-0.4,1.4
		c-0.4,0.4-0.7,0.5-1.1,0.5c-0.2,0-0.3,0-0.4-0.2c-0.1-0.1-0.2-0.4-0.3-1.1c0-0.2-0.1-0.5-0.1-0.7c-0.3,0.2-0.5,0.3-0.8,0.5v6.6
		c0,0.3-0.4,0.5-1.2,0.6c-0.4,0.1-0.6,0.1-0.8,0.1c-0.5,0-0.7-0.2-0.7-0.7c0.1-0.7,0.1-1.6,0.1-2.7c-0.4,0.1-0.5,0.1-0.5,0.2
		c-0.3,0.9-0.7,1.6-1.1,2.1c-0.4,0.6-0.9,1.2-1.5,1.8l-0.3-0.3c0.2-0.9,0.4-1.7,0.5-2.5c0.1-0.8,0.2-1.8,0.3-2.9
		c0.7,0.2,1.4,0.4,2.1,0.6c0.1,0.1,0.3,0.1,0.4,0.1v-1.9c-0.3,0.1-0.5,0.2-0.7,0.2c-0.2,0-0.3,0.1-0.3,0.2c0,0.1-0.1,0.2-0.1,0.3
		c-0.1,0.2-0.1,0.3-0.2,0.3c-0.3,0-0.7-0.5-1.1-1.6c-0.1-0.3-0.3-0.8-0.6-1.5c0.9,0,1.9,0,2.8-0.1c0.4-0.9,0.8-1.6,1-2.4
		c0.3-1,0.6-2.2,0.8-3.5C306.7,90.9,307.5,91.1,308.3,91.4z M306,87.8c0.8,0.3,1.1,0.5,1.1,0.8c0,0.3-0.2,0.4-0.6,0.5
		c-0.4,0.1-0.7,0.2-0.8,0.3c-0.4,0.8-0.7,1.5-1.1,2.1c-0.2,0.3-0.5,0.6-0.7,0.8c0.1,0,0.1,0.1,0.2,0.1c0.5,0.3,0.7,0.6,0.7,0.9
		c0,0.4-0.2,0.9-0.6,1.3c-0.3,0.3-0.6,0.4-1,0.4c-0.3,0-0.5-0.2-0.7-0.8c-0.3-0.7-0.8-1.4-1.4-2.1l0.1-0.4c0.6,0.1,1.1,0.3,1.6,0.4
		c0.1-0.6,0.2-1.2,0.3-1.8c0.1-0.9,0.2-1.9,0.3-3.1C304.4,87.4,305.2,87.6,306,87.8z M308,105.8h11.6c0.4-0.3,0.7-0.5,1-0.8
		c0.4-0.4,0.8-0.6,1-0.6c0.3,0,0.9,0.4,1.6,1c0.9,0.7,1.4,1.2,1.4,1.4c0,0.4-0.2,0.6-0.6,0.9c-0.4,0.4-0.6,0.7-0.6,1
		c0,0.6,0,1,0.1,1.1v0.3c0,0.4-0.3,0.6-0.9,0.8c0.4,0.2,0.9,0.6,1.7,1.1c0.9,0.7,1.3,1.2,1.3,1.4c0,0.2-0.3,0.5-0.8,0.7
		c-0.6,0.2-1,0.5-1,0.7c-0.9,2.2-1.8,3.6-2.8,4.3c-1,0.6-2,0.9-2.8,0.9c-0.3,0-0.5-0.3-0.6-0.9c-0.3-0.9-1.5-1.8-3.6-2.6l0.1-0.6
		c1.9,0.2,3.1,0.3,3.8,0.3c0.5,0,0.9-0.1,1.2-0.3c0.3-0.1,0.6-0.6,1-1.4c0.1-0.4,0.3-0.8,0.5-1.3h-15l-0.3,0.8
		c0,0.3-0.6,0.5-1.9,0.6c-1.2,0-1.8-0.2-1.8-0.6l2-5c0.2-0.8,0.4-1.4,0.5-2c1,0.4,2.1,1,3.5,1.8h12.2v-2.3H308
		c-2.5,0-4.2,0.1-5.2,0.1l-0.6-1.4C303.8,105.7,305.7,105.8,308,105.8z M320.1,112.4c0.5-0.4,0.9-0.7,1.2-1c0.1-0.1,0.3-0.2,0.3-0.3
		c-0.4,0.1-0.8,0.1-0.9,0.1c-0.6,0-1-0.3-1-1V110h-12.9l-0.9,2.4H320.1z M309.6,100.9c0.2,0.2,0.4,0.4,0.5,0.5
		c0-1.1-0.1-2.2-0.1-3.2c0.9,0.2,1.7,0.5,2.6,0.9h1.1c0.3-0.4,0.6-0.6,0.9-0.9c0.2-0.2,0.4-0.4,0.6-0.4c0.2,0,0.6,0.2,1.3,0.6
		c0.8,0.5,1.2,0.9,1.2,1.1c0,0.2-0.2,0.4-0.5,0.6c-0.3,0.2-0.4,0.4-0.4,0.6v0.6c0,0.7,0,1.7,0.1,2.9c0,0.3-0.4,0.5-1.2,0.6
		c-0.4,0.1-0.6,0.1-0.8,0.1c-0.5,0-0.7-0.2-0.7-0.7v-0.7h-1.5v0.8c0,0.3-0.4,0.5-1.1,0.6c-0.4,0-0.6,0-0.7,0c-0.6,0-0.9-0.2-0.9-0.7
		c0-0.3,0.1-0.6,0.1-0.9c0,0.1-0.1,0.1-0.1,0.1c-0.4,0.4-0.8,0.6-1.3,0.6c-0.3,0-0.4-0.1-0.5-0.2c-0.1-0.1-0.3-0.5-0.3-1.3
		c-0.1-0.9-0.4-1.9-0.8-2.8l0.3-0.3C308.4,100.1,309.2,100.5,309.6,100.9z M317.9,89.6c0.5,0.6,0.7,1,0.7,1.2c0,0.4-0.1,0.6-0.3,0.6
		h-2.6c0.2,0.2,0.4,0.5,0.7,0.9c0.5,0.7,0.8,1.1,0.8,1.4c0,0.4-0.1,0.6-0.4,0.6h-1.1c0.2,0.2,0.4,0.5,0.6,0.8
		c0.6,0.7,0.9,1.2,0.9,1.4c0,0.4-0.1,0.6-0.4,0.6h-3.6c-0.7,0-1.6,0.1-2.8,0.1l-0.6-1.4c1.4,0.2,2.6,0.3,3.4,0.3h0.6
		c0.2-0.3,0.4-0.7,0.7-1.2c0.1-0.2,0.3-0.5,0.4-0.6H313c-0.7,0-1.6,0.1-2.8,0.1l-0.5-1.4c1.4,0.2,2.5,0.3,3.3,0.3h1
		c0.1-0.3,0.4-0.6,0.6-1.1c0.1-0.3,0.3-0.5,0.4-0.7h-2.6c-0.7,0-1.6,0.1-2.8,0.1l-0.6-1.4c1.4,0.2,2.6,0.3,3.4,0.3h3.5
		c0.1-0.2,0.4-0.5,0.6-1c0.3-0.5,0.5-0.8,0.6-0.8C317.1,88.6,317.4,89,317.9,89.6z M315.7,87.4c0.5,0.6,0.7,1,0.7,1.2
		c0,0.4-0.1,0.5-0.3,0.5h-2.5c-0.7,0-1.6,0.1-2.8,0.1l-0.6-1.4c1.4,0.2,2.6,0.3,3.4,0.3c0.1-0.2,0.3-0.5,0.6-0.9
		c0.3-0.5,0.4-0.8,0.5-0.8C314.9,86.5,315.2,86.8,315.7,87.4z M314.2,102.6V100h-1.5v2.5H314.2z M321.8,87.8
		c0.8,0.3,1.1,0.5,1.1,0.8c0,0.2-0.3,0.4-0.7,0.4c-0.4,0.1-0.7,0.2-0.7,0.3c-0.3,0.9-0.7,1.6-1.1,2.2c-0.2,0.4-0.5,0.7-0.8,1
		c0.1,0.1,0.3,0.1,0.4,0.1c0.5,0.3,0.7,0.6,0.7,0.9c0,0.4-0.2,0.9-0.6,1.3c-0.3,0.3-0.6,0.4-1,0.4c-0.3,0-0.5-0.2-0.7-0.8
		c-0.3-0.7-0.8-1.4-1.4-2.1l0.1-0.4c0.6,0.1,1.1,0.3,1.5,0.3c0.1-0.7,0.3-1.3,0.3-1.9c0.1-0.9,0.2-1.9,0.3-3.2
		C320.3,87.4,321.1,87.6,321.8,87.8z M324.8,91.1c0.8,0.2,1.1,0.5,1.1,0.7c0,0.2-0.3,0.4-0.7,0.5c-0.4,0.1-0.7,0.2-0.7,0.2
		c-0.6,1.3-1.4,2.3-2.2,3.1c-0.4,0.4-0.8,0.7-1.2,1.1c0.9,0,1.6-0.1,2.4-0.2c-0.1-0.4-0.3-0.7-0.4-1.1l0.3-0.3
		c1.1,0.4,1.8,0.8,2.2,1.1c0.5,0.4,0.8,0.8,0.8,1.1c0,0.6-0.1,1.1-0.4,1.4c-0.4,0.4-0.7,0.5-1.1,0.5c-0.3,0-0.4,0-0.5-0.2
		c-0.1-0.1-0.3-0.5-0.3-1.1c0-0.2-0.1-0.5-0.1-0.7c-0.3,0.2-0.6,0.3-0.8,0.4v5.7c0,0.3-0.4,0.5-1.2,0.6c-0.4,0.1-0.6,0.1-0.8,0.1
		c-0.5,0-0.7-0.2-0.7-0.7c0-0.5,0.1-1,0.1-1.8c-0.3,0.1-0.5,0.1-0.5,0.2c-0.3,0.6-0.6,1.2-1,1.7c-0.4,0.5-0.8,0.9-1.4,1.4l-0.3-0.3
		c0.2-0.8,0.3-1.5,0.5-2.1c0.1-0.7,0.2-1.5,0.3-2.5c0.7,0.2,1.4,0.4,2.1,0.6c0.1,0.1,0.3,0.1,0.4,0.1v-2c-0.4,0.1-0.7,0.2-1,0.3
		c-0.2,0.1-0.3,0.1-0.3,0.2c0,0.1-0.1,0.2-0.1,0.3c-0.1,0.2-0.1,0.3-0.2,0.3c-0.3,0-0.6-0.5-1-1.5c-0.1-0.2-0.3-0.7-0.5-1.3
		c0.8,0,1.6-0.1,2.3-0.1c0.6-0.8,1-1.6,1.4-2.4c0.5-1.1,1-2.5,1.3-4.1C323.2,90.6,324,90.9,324.8,91.1z M325.5,100.9
		c0.5,0.5,0.8,0.9,0.8,1.2c0,0.6-0.1,1.2-0.4,1.5c-0.4,0.4-0.8,0.6-1.3,0.6c-0.2,0-0.4-0.1-0.5-0.2c-0.1-0.1-0.2-0.5-0.3-1.2
		c-0.1-0.9-0.3-1.8-0.7-2.8l0.3-0.3C324.4,100.2,325.1,100.6,325.5,100.9z"/>
	<path d="M335.2,97.1h7.4c0.1-1.5,0.3-3.2,0.3-4.9c0-1.9-0.1-3.6-0.1-4.9c1.2,0.2,2.4,0.4,3.6,0.6c1.7,0.3,2.5,0.6,2.5,0.9
		c0,0.4-0.3,0.6-0.8,0.9c-0.6,0.3-0.9,0.5-0.9,0.8c-0.2,2.4-0.4,4.7-0.7,6.6h7.8c0.1,0,0.5-0.6,1.4-1.6c1-1.2,1.6-1.9,1.8-1.9
		c0.5,0,1.3,0.6,2.4,1.8c1.1,1.2,1.7,1.9,1.7,2.2c0,0.4-0.3,0.5-0.7,0.5h-13.1c0.6,2.3,1.3,4.5,2.3,6.5c1.1,2.3,2.5,4.2,4.3,5.9
		c2.2,2,4.7,3.5,7.4,4.7l-0.1,0.8c-1.3,0.5-2.1,1.1-2.5,1.9c-0.4,1-0.8,1.5-1.1,1.5c-0.4,0-1.1-0.5-2.2-1.5c-1.3-1-2.6-2.5-3.9-4.4
		c-1.1-1.4-2-3.3-2.9-5.7c-0.9-2.2-1.6-5.4-2.2-9.6h-0.4c-0.6,3.7-1.3,6.5-2.2,8.4c-1.4,3.1-3.4,5.7-5.8,7.8c-2.1,1.9-5,3.7-8.7,5.4
		l-0.3-0.7c2.9-1.9,5.3-4.1,7.5-6.7c1.9-2.1,3.4-5,4.6-8.7c0.5-1.6,0.8-3.5,1.1-5.5h-7.8c-1.9,0-3.5,0.1-4.8,0.3l-0.6-1.7
		C331.5,97,333.5,97.1,335.2,97.1z"/>
	<path d="M369.9,95.4h0.7v-2.3c0-2.3-0.1-4.3-0.3-6c1.1,0.1,2.4,0.3,4,0.6c1.1,0.1,1.7,0.4,1.7,0.7c0,0.4-0.4,0.6-1.1,0.9
		c-0.5,0.1-0.8,0.4-0.8,0.8v5.3h0.4c0.1,0,0.4-0.4,0.9-0.9c0.6-0.7,1-1,1.1-1c0.3,0,0.8,0.4,1.5,1.1s1,1.2,1,1.3
		c0,0.4-0.1,0.5-0.4,0.5h-4.5v3.5c1.9,0.7,3.3,1.4,4.2,2.2c0.9,0.9,1.3,1.9,1.3,3.1c0,0.6-0.3,1.1-0.7,1.6c-0.3,0.4-0.8,0.5-1.3,0.5
		c-0.7,0-1.3-0.6-1.7-1.9c-0.4-1.1-1-2.3-1.8-3.4v16.5c0,0.5-0.5,0.8-1.6,1c-0.5,0.1-0.8,0.1-1,0.1c-0.9,0-1.3-0.4-1.3-1.1
		c0.2-2.1,0.3-4.1,0.3-5.9v-7.8c-0.9,1.6-1.7,2.9-2.4,3.7c-0.9,1.2-1.9,2.3-2.9,3.1l-0.5-0.3c2.6-5.2,4.5-10.2,5.5-15h-0.3
		c-2,0-3.5,0.1-4.3,0.1l-0.6-1.4C366.2,95.4,367.8,95.4,369.9,95.4z M384.2,95.6h0.8v-1.7c0-2.5-0.1-4.7-0.3-6.6
		c1.1,0.1,2.6,0.3,4.3,0.6c1.2,0.2,1.8,0.4,1.8,0.8c0,0.4-0.4,0.7-1.1,0.9c-0.6,0.1-0.8,0.4-0.8,0.8v5.2h2.3c0.1,0,0.4-0.5,1.1-1.3
		c0.8-0.9,1.3-1.4,1.4-1.4c0.4,0,1,0.5,1.9,1.4c0.9,0.9,1.3,1.5,1.3,1.7c0,0.4-0.2,0.5-0.6,0.5h-7.1c1.3,3.9,2.6,6.9,4,9
		c1.5,2.1,3,3.6,4.5,4.4l-0.1,0.9c-1.1,0.4-1.9,1.1-2.4,2.3c-0.3,0.9-0.6,1.3-1,1.3c-0.3,0-0.8-0.9-1.6-2.6
		c-0.9-1.7-1.7-3.9-2.5-6.6c-0.5-1.6-0.9-3.1-1.2-4.8v11.9c0,2.1,0,4.3,0.1,6.4c0,0.4-0.6,0.8-1.9,1c-0.6,0.1-1,0.1-1.2,0.1
		c-0.9,0-1.3-0.4-1.3-1.1c0.2-2.3,0.3-4.5,0.3-6.4v-8.5c-0.4,0.9-0.7,1.6-1,2.2c-1.1,2-2.3,3.8-3.7,5.4c-1.4,1.6-2.9,2.9-4.5,4
		l-0.3-0.4c1.6-2,3.1-4.5,4.6-7.6c1.4-3.1,2.6-6.8,3.5-10.9c-1.8,0-3,0.1-3.8,0.1l-0.5-1.4C380.4,95.5,382,95.6,384.2,95.6z"/>
	<path d="M409,88.2c1.1,0.4,1.6,0.9,1.6,1.3c0,0.2-0.3,0.4-0.8,0.4c-0.5,0.1-0.8,0.2-0.9,0.2c-1.2,1.7-2.6,3.2-4.1,4.6
		c0.2,0.1,0.5,0.3,0.7,0.4c0.8,0.6,1.1,1.4,1.1,2.3c0,0.5-0.2,1-0.6,1.5c-0.3,0.3-0.7,0.5-1.1,0.5c-0.6,0-1.1-0.5-1.5-1.5
		c-0.5-1.4-1.5-2.8-2.8-4.2l0.2-0.4c1.1,0.3,2.1,0.6,2.8,0.9c0.8-2.3,1.5-4.7,1.9-7.2C406.7,87.5,407.9,87.8,409,88.2z M413.1,94
		c1,0.4,1.5,0.9,1.5,1.3c0,0.2-0.3,0.3-0.8,0.4c-0.5,0.1-0.8,0.1-0.9,0.2c-2,2.5-4.2,4.7-6.7,6.8c1.8-0.1,3.6-0.3,5.2-0.5
		c-0.2-0.8-0.6-1.6-1-2.4l0.3-0.3c1.6,0.9,2.8,1.7,3.4,2.4c0.8,0.9,1.2,1.8,1.2,2.5c0,0.7-0.2,1.2-0.5,1.6c-0.4,0.4-0.9,0.6-1.3,0.6
		c-0.5,0-0.8-0.1-1-0.3c-0.3-0.1-0.5-0.8-0.6-2c-0.1-0.4-0.1-0.7-0.2-1.1c-0.7,0.4-1.4,0.8-2.1,1.2v8.9c0,2.3,0,4.1,0.1,5.4
		c0,0.4-0.6,0.7-1.8,0.9c-0.5,0.1-0.9,0.1-1.2,0.1c-0.6,0-1-0.4-1-1c0.1-1.3,0.1-3.1,0.1-5.4v-2.6c-0.4,0.1-0.6,0.3-0.7,0.3
		c-0.5,1.6-1.1,3-1.7,4.1c-0.6,1.1-1.5,2.2-2.5,3.3l-0.4-0.4c0.4-1.7,0.8-3.2,1-4.7c0.2-1.5,0.4-3.3,0.6-5.4
		c1.2,0.3,2.3,0.6,3.4,0.9c0.1,0.1,0.2,0.1,0.4,0.1v-3.2c-0.6,0.2-1.2,0.4-1.8,0.5c-0.4,0.1-0.5,0.2-0.5,0.3c0,0.1-0.1,0.3-0.1,0.5
		c-0.1,0.3-0.1,0.5-0.3,0.5c-0.5,0-1.1-0.8-1.8-2.5c-0.2-0.4-0.5-1.2-0.9-2.3c1.2,0,2.4-0.1,3.6-0.2c2.3-3.1,4.2-6.5,5.4-10
		C410.9,93.2,412,93.6,413.1,94z M414.3,110.9c0.8,1.2,1.2,2.2,1.2,3.1c0,0.8-0.2,1.3-0.5,1.7c-0.4,0.5-0.9,0.7-1.4,0.7
		c-0.5,0-0.8-0.1-1-0.4c-0.3-0.2-0.5-1-0.6-2.4c-0.2-1.7-0.7-3.5-1.5-5.3l0.4-0.4C412.5,109,413.7,110.1,414.3,110.9z M420.3,89.8
		h4.8c0.4-0.4,0.8-0.8,1.2-1.3c0.5-0.6,0.9-0.9,1.2-0.9c0.4,0,1.1,0.4,2.2,1.3c1.1,0.9,1.8,1.5,1.8,1.7c0,0.4-0.3,0.8-0.8,1.1
		c-0.6,0.4-0.9,0.7-0.9,1v24.7h0.6c0.1-0.5,0.3-0.9,0.6-1.4c0.4-0.6,0.6-1,0.9-1c0.2,0,0.5,0.3,0.9,0.9c0.6,0.9,0.9,1.5,0.9,1.9
		c0,0.4-0.2,0.5-0.5,0.5h-18.5c-1.1,0-2.2,0-3.4,0.1l-0.5-1.4c1.7,0.2,3,0.3,3.9,0.3h1.3V95c0-3-0.1-5.3-0.4-6.8
		C416.9,88.5,418.5,89,420.3,89.8z M425.9,98.8v-8h-6v8H425.9z M425.9,107.9v-8.1h-6v8.1H425.9z M425.9,117.5v-8.7h-6v8.7H425.9z"/>
	<path d="M462,114.6l-9.1-9.1l-9.1,9.1l-2-2l9.1-9.1l-9.1-9.1l2-2l9.1,9.1l9.1-9.1l2,2l-9.1,9.1l9.1,9.1L462,114.6z"/>
	<path d="M488.7,88.6c1.1,0.4,1.7,0.9,1.7,1.4c0,0.2-0.3,0.4-0.9,0.4c-0.6,0.1-0.9,0.2-0.9,0.3c-2.3,2.8-4.9,5.3-7.9,7.6
		c5.4-0.1,10.9-0.3,16.5-0.7c-1-1.4-2.4-3.1-4.2-5l0.4-0.6c3,1.5,5.2,2.7,6.5,3.8c1.3,1,2.2,1.8,2.8,2.6c0.4,0.6,0.6,1.2,0.6,1.8
		c0,1-0.3,1.8-0.8,2.4c-0.6,0.7-1.2,1-1.9,1c-0.3,0-0.6-0.5-1.1-1.4c-0.5-1.2-1.1-2.4-1.8-3.6c-5.8,1.7-12.5,2.9-20.2,3.6
		c-0.2,0-0.3,0.3-0.4,0.7c-0.1,0.6-0.4,0.8-0.6,0.8c-0.5,0-1-0.6-1.4-2c-0.3-0.7-0.7-1.9-1.2-3.4c1.6,0,3.3,0,5,0
		c2.6-3.4,4.7-7.1,6.1-11C486.4,87.7,487.6,88.2,488.7,88.6z M482.1,105.3h12.4c0.5-0.6,1.1-1.2,1.6-1.7c0.4-0.4,0.8-0.6,1.1-0.6
		c0.3,0,1,0.4,2.2,1.1c1.3,0.9,2,1.5,2,1.9c0,0.4-0.3,0.7-0.8,1c-0.4,0.3-0.6,0.7-0.6,1.1v6.3c0,1.1,0,2.6,0.1,4.6
		c0,0.4-0.6,0.8-1.9,1c-0.6,0-1,0.1-1.2,0.1c-0.6,0-1-0.4-1-1.1v-1.8h-14.3v1.8c0,0.4-0.6,0.8-1.8,1c-0.5,0-0.9,0.1-1.1,0.1
		c-0.9,0-1.3-0.4-1.3-1.1c0.2-2.7,0.3-5,0.3-7.1v-1.5c0-1.8-0.1-3.9-0.3-6.4C479.2,104.2,480.7,104.7,482.1,105.3z M496,116.1v-9.8
		h-14.3v9.8H496z"/>
	<path d="M513.9,92.4h8.4c0-2-0.2-3.7-0.4-5.3c1.1,0.1,2.5,0.4,4.3,0.6c1.4,0.2,2.1,0.5,2.1,0.8c0,0.4-0.4,0.7-1.1,1
		c-0.6,0.2-0.8,0.5-0.8,0.9v2h7.4c0.1,0,0.6-0.6,1.4-1.6c1-1.2,1.5-1.8,1.7-1.8c0.5,0,1.3,0.6,2.3,1.7c1.1,1.1,1.6,1.8,1.6,2.1
		c0,0.4-0.2,0.5-0.7,0.5h-13.7v4.1h7.1c0.4-0.3,0.6-0.6,0.8-0.8c0.7-0.6,1.1-0.9,1.4-0.9c0.4,0,1.1,0.4,2.4,1.3
		c1.1,0.9,1.7,1.5,1.7,1.8c0,0.3-0.3,0.6-0.8,1c-0.7,0.5-1,0.9-1,1.4v15.2c0,1.2-0.6,2.1-1.9,2.8c-1,0.5-1.9,0.8-2.6,0.8
		c-0.2,0-0.5-0.5-0.7-1.4c-0.3-1.1-1.4-2-3.4-2.7l0.1-0.7c1.6,0.3,2.9,0.4,3.9,0.4c0.4,0,0.6-0.4,0.6-1.1V98.4h-19.1v20.4
		c0,0.4-0.6,0.8-1.8,1c-0.5,0.1-0.9,0.1-1.1,0.1c-0.8,0-1.1-0.4-1.1-1.1c0.1-1.3,0.1-2.5,0.1-3.8v-14.1c0-1.8-0.1-3.5-0.3-5.2
		c1.6,0.4,3.1,1,4.8,1.7h6.8v-4.1h-8.9c-1.9,0-3.5,0.1-4.8,0.3l-0.6-1.7C510.2,92.2,512.1,92.4,513.9,92.4z M529.7,100.3
		c0.9,0.5,1.4,0.9,1.4,1.1c0,0.3-0.2,0.5-0.7,0.5c-0.6,0-0.9,0.1-1,0.3c-0.5,0.6-1,1.1-1.5,1.6c-0.4,0.4-1,0.8-1.7,1.2h2.5
		c0.1,0,0.4-0.3,0.9-0.9c0.6-0.7,0.9-1,1.1-1c0.3,0,0.8,0.4,1.5,1.1c0.7,0.7,1,1.1,1,1.3c0,0.4-0.1,0.6-0.4,0.6h-6.6
		c0,1.4,0,2.7,0,3.9h2.4c0.1,0,0.4-0.4,0.9-1.1c0.6-0.8,1-1.3,1.2-1.3c0.4,0,1,0.4,1.8,1.3c0.8,0.9,1.2,1.4,1.2,1.5
		c0,0.4-0.2,0.6-0.5,0.6h-6.8c0,2.9,0.1,5.1,0.2,6.5c0,0.3-0.4,0.6-1,0.8c-0.9,0.1-1.6,0.2-2.4,0.2c-0.5,0-0.9-0.3-1-0.7
		c0.1-1.8,0.1-4,0.1-6.8h-1.5c-2.1,0-3.5,0-4.3,0.1l-0.6-1.4c1.1,0.2,2.8,0.3,4.9,0.3h1.5c0-1.2,0-2.5,0-3.9h-1
		c-2.1,0-3.5,0.1-4.4,0.1l-0.5-1.4c1.1,0.2,2.8,0.2,4.9,0.2h3.5c0.5-0.8,1-1.8,1.4-2.8c0.5-1.1,0.8-2.3,1-3.3
		C528.1,99.5,529,99.9,529.7,100.3z M521.9,100.9c0.6,0.5,1,1.1,1,1.8c0,0.6-0.3,1.1-0.7,1.6c-0.3,0.4-0.8,0.5-1.3,0.5
		c-0.4,0-0.8-0.4-1-1.3c-0.4-1.2-1.1-2.4-2-3.6l0.3-0.6C519.9,99.8,521.2,100.3,521.9,100.9z"/>
	<path d="M550.6,104.5h2.7c0.5-0.6,1-1.2,1.5-1.7c0.4-0.4,0.7-0.7,1-0.7s1,0.4,2.1,1c1.2,0.9,1.9,1.5,1.9,1.8c0,0.3-0.2,0.6-0.6,0.9
		c-0.3,0.3-0.5,0.6-0.5,1v7c0,1.1,0,2.5,0.1,4.5c0,0.4-0.6,0.8-1.8,1c-0.5,0.1-0.9,0.1-1.2,0.1c-0.6,0-1-0.4-1-1.1v-1.1h-5v1.1
		c0,0.4-0.6,0.8-1.7,1c-0.5,0.1-0.9,0.1-1.1,0.1c-0.8,0-1.1-0.4-1.1-1.1c0.1-1.2,0.1-2.4,0.1-3.7v-7c0-1.7-0.1-3.4-0.3-5
		C547.4,103.2,549,103.8,550.6,104.5z M554.9,110.1v-4.6h-5v4.6H554.9z M554.9,116.3v-5.2h-5v5.2H554.9z M555.7,89.8h8.7
		c0.6-0.6,1.1-1.1,1.6-1.6c0.4-0.4,0.7-0.6,1-0.6c0.3,0,1,0.4,2.2,1.1c1.3,0.9,2,1.5,2,1.9c0,0.4-0.3,0.7-0.9,1
		c-0.4,0.3-0.6,0.7-0.6,1.1v3.5c0,1.2,0,2.8,0.1,4.8c0,0.5-0.6,0.8-1.9,1c-0.6,0.1-1,0.1-1.3,0.1c-0.6,0-1-0.4-1-1.1v-0.7h-10.9v0.8
		c0,0.5-0.6,0.8-1.8,1c-0.5,0.1-0.9,0.1-1.1,0.1c-0.8,0-1.1-0.4-1.1-1.1c0.1-1.3,0.1-2.5,0.1-3.8v-4.1c0-1.8-0.1-3.5-0.3-5.2
		C552.2,88.5,553.9,89.1,555.7,89.8z M565.6,94.6v-3.8h-10.9v3.8H565.6z M565.6,99.2v-3.6h-10.9v3.6H565.6z M566.4,104.5h2.9
		c0.6-0.7,1.1-1.3,1.6-1.8c0.4-0.4,0.7-0.7,1.1-0.7c0.3,0,1,0.4,2.2,1c1.3,0.9,2,1.5,2,1.9c0,0.4-0.2,0.7-0.8,1
		c-0.4,0.4-0.5,0.7-0.5,1.1v6.6c0,1.1,0,2.7,0.1,4.6c0,0.4-0.6,0.8-1.9,1c-0.6,0.1-1,0.1-1.2,0.1c-0.7,0-1-0.4-1-1.1v-1h-5.4v1.1
		c0,0.4-0.6,0.8-1.8,1c-0.5,0.1-0.9,0.1-1.1,0.1c-0.8,0-1.1-0.4-1.1-1.1c0.1-1.3,0.1-2.5,0.1-3.8v-6.7c0-1.8-0.1-3.5-0.3-5.2
		C563,103.2,564.6,103.8,566.4,104.5z M570.9,110.1v-4.6h-5.4v4.6H570.9z M570.9,116.3v-5.2h-5.4v5.2H570.9z"/>
	<path d="M585.6,91.5h2.5v-1.3c0-1.1-0.1-2.2-0.3-3.1c1.1,0.1,2.4,0.4,4,0.6c1.4,0.1,2.2,0.4,2.2,0.7c0,0.4-0.4,0.8-1.2,1
		c-0.5,0.2-0.8,0.5-0.8,0.9v1.1h7.5v-1.3c0-1.1-0.1-2.2-0.3-3.1c1.1,0.1,2.4,0.4,4,0.6c1.4,0.1,2.1,0.4,2.1,0.7c0,0.4-0.4,0.8-1.2,1
		c-0.5,0.2-0.8,0.5-0.8,0.9v1.1h3.2c0.1,0,0.4-0.5,1.1-1.3c0.7-0.9,1.2-1.4,1.3-1.4c0.4,0,1,0.5,1.8,1.4c0.9,0.9,1.3,1.5,1.3,1.7
		c0,0.4-0.2,0.6-0.6,0.6h-8.1v3.1c0,0.5-0.6,0.8-1.8,1c-0.6,0.1-1,0.1-1.2,0.1c-0.4,0-0.7-0.1-0.9-0.2c-0.2,0.2-0.5,0.3-0.9,0.5
		c-0.6,0.2-0.9,0.4-0.9,0.7v2h4.2c0.5-0.6,0.9-1.1,1.2-1.6c0.5-0.6,0.9-0.9,1.3-0.9c0.4,0,0.9,0.3,1.7,0.9c1.4,1,2.2,1.8,2.2,2.2
		c0,0.4-0.2,0.6-0.6,0.8c-0.6,0.3-0.8,0.6-0.8,1.1v5.6h0.4c0.1,0,0.4-0.4,0.9-1c0.6-0.7,1-1.1,1.1-1.1c0.4,0,0.9,0.4,1.6,1.1
		c0.7,0.8,1.1,1.2,1.1,1.4c0,0.4-0.1,0.5-0.4,0.5h-13.3c0.5,0.9,1.3,1.7,2.1,2.4c1.1,0.9,2.5,1.8,4.4,2.4c2.3,0.9,4.8,1.5,7.5,2
		l-0.1,0.8c-1.2,0.4-2,1-2.3,1.7c-0.4,0.9-0.8,1.4-1.1,1.4c-0.4,0-1.2-0.3-2.3-0.8c-1.3-0.5-2.6-1.3-4-2.3c-1.1-0.7-2.1-1.7-3-3
		c-0.9-1.1-1.6-2.6-2.2-4.7h-0.2c-0.6,1.8-1.5,3.2-2.6,4.4c-1.1,1.3-2.6,2.4-4.8,3.5c-2,1-5.1,2-9.3,3l-0.3-0.6
		c3.3-1.3,6.1-2.6,8.3-4.2c1.8-1.2,3.1-2.8,4.1-4.7c0.2-0.4,0.4-0.9,0.5-1.4h-8.5c-2,0-3.5,0.1-4.3,0.1l-0.6-1.4
		c1.1,0.2,2.7,0.3,4.8,0.3v-2.4c0-3.1-0.1-5.5-0.4-7.1c1.3,0.3,2.9,0.8,4.6,1.5h5.2c0-1.4-0.2-3.2-0.4-5.3c1.3,0.2,2.6,0.5,3.9,0.7
		c1,0.2,1.8,0.4,2.1,0.6c0.1-0.5,0.1-0.9,0.1-1.2v-2h-7.5v3.1c0,0.5-0.6,0.8-1.8,1c-0.5,0.1-0.9,0.1-1.1,0.1c-0.8,0-1.1-0.2-1.1-0.7
		c0.1-0.7,0.1-1.2,0.1-1.5v-2h-3.1c-1.9,0-3.5,0.1-4.8,0.3l-0.6-1.7C581.9,91.4,583.8,91.5,585.6,91.5z M593.3,107.6
		c0.3-1.7,0.5-4.1,0.5-7h-5.3v7H593.3z M597.5,107.6h5.7v-7h-5.2C597.8,103.9,597.7,106.2,597.5,107.6z"/>
	<path d="M620.2,97.9c0.7,0.6,1.1,1.2,1.1,2c0,0.7-0.3,1.4-0.9,2c-0.4,0.4-1,0.6-1.6,0.6c-0.5,0-0.9-0.5-1.2-1.5
		c-0.4-1.4-1.2-2.8-2.3-4.1l0.4-0.7C617.8,96.8,619.3,97.4,620.2,97.9z M624.9,95.3c-1,4.5-1.8,8.1-2.4,10.6
		c-0.5,2.5-0.7,4.2-0.7,5.1c0,0.7,0,1.4,0.1,2.3c0.4,1.6,0.6,2.9,0.6,3.9c0,0.6-0.2,1.1-0.5,1.4c-0.4,0.4-0.9,0.6-1.6,0.6
		c-0.9,0-1.6-0.2-2.1-0.6c-0.4-0.3-0.5-0.8-0.5-1.4c0-0.5,0.1-1.3,0.3-2.3c0.1-0.8,0.1-1.4,0.1-1.9c0-0.8-0.1-1.4-0.4-1.9
		c-0.2-0.5-1-0.9-2.3-1.3l0.1-0.8c1.4,0,2.4-0.1,2.8-0.3c0.4-0.3,0.7-0.8,1-1.6l4.8-11.7L624.9,95.3z M622.4,89
		c0.7,0.6,1.1,1.2,1.1,2c0,0.7-0.3,1.4-0.9,2c-0.4,0.4-1,0.6-1.6,0.6c-0.5,0-0.9-0.5-1.2-1.5c-0.4-1.4-1.1-2.8-2.2-4.1l0.4-0.7
		C620.1,87.8,621.6,88.4,622.4,89z M628.9,89.7h13.4c0.1,0,0.5-0.5,1.1-1.3c0.8-0.9,1.3-1.4,1.4-1.4c0.4,0,1,0.5,1.9,1.4
		c0.9,0.9,1.3,1.5,1.3,1.7c0,0.4-0.2,0.5-0.6,0.5h-8v5.2h1.5c0.4-0.4,0.8-0.8,1.2-1.1c0.5-0.5,0.9-0.8,1.2-0.8
		c0.4,0,1.1,0.4,2.3,1.1c1.3,1,1.9,1.6,1.9,2c0,0.3-0.3,0.6-0.9,1c-0.5,0.4-0.8,0.8-0.8,1.1v12.8l0.3,6.8c0,0.4-0.6,0.8-1.9,1
		c-0.5,0.1-0.9,0.1-1.2,0.1c-0.7,0-1-0.4-1-1.1v-1.7h-12.8v1.7c0,0.4-0.6,0.8-1.7,1c-0.5,0.1-0.9,0.1-1.1,0.1
		c-0.9,0-1.3-0.4-1.3-1.1c0.2-2.5,0.3-4.8,0.3-6.7v-11.6c0-1.7-0.1-3.7-0.3-6.2c1.6,0.4,3,0.9,4.4,1.5h1.5v-5.2h-2.3
		c-2,0-3.5,0.1-4.3,0.1l-0.5-1.4C625.2,89.6,626.8,89.7,628.9,89.7z M642.2,110.5v-4h-2.6c-1.1,0-2-0.3-2.5-0.8
		c-0.6-0.4-0.9-1.1-0.9-2.1v-6.7h-1.7v0.8c0,2.3-0.2,4.1-0.7,5.6c-0.4,1.2-1,2.3-1.9,3.3c-0.8,0.9-1.6,1.6-2.6,2.1v1.9H642.2z
		 M629.8,106.3c0.5-1,0.8-2,1-3c0.2-1.5,0.4-3.4,0.4-5.6v-0.8h-1.8v10.4C629.5,106.9,629.7,106.6,629.8,106.3z M642.2,116.1v-4.6
		h-12.8v4.6H642.2z M636.2,90.7h-1.7v5.2h1.7V90.7z M639.6,102.8c0,0.4,0.3,0.6,0.9,0.6h1.8v-6.6h-2.6V102.8z"/>
	<path d="M670.9,87.8c0.9,0,1.4,0.3,1.4,0.8c0,0.1-0.3,0.4-0.9,0.6c-0.6,0.3-0.9,0.6-0.9,0.9v1.9h5.9c0,0,0.4-0.4,1.1-1.3
		c1-1.2,1.6-1.8,1.9-1.8c0.3,0,1.1,0.7,2.6,2c0.9,0.8,1.3,1.3,1.3,1.5c0,0.4-0.3,0.6-0.7,0.6h-23.9v3.2c0,3.9-0.2,7.4-0.5,10.3
		c-0.4,2.6-1.1,5.1-2.2,7.4c-0.9,1.9-2.1,3.7-3.7,5.5l-0.7-0.3c1.1-3,1.9-5.8,2.3-8.4c0.5-3.2,0.8-8.1,0.8-14.5
		c0-2.8-0.1-4.9-0.4-6.1c2.3,0.6,4,1.3,5.3,1.9h6.9v-1.7c0-1-0.1-2.1-0.3-3.2C667.8,87.3,669.4,87.6,670.9,87.8z M671.7,94.8
		c0.9,0.1,1.4,0.3,1.4,0.8c0,0.1-0.3,0.4-0.9,0.6c-0.6,0.3-0.9,0.6-0.9,0.9v2.8h4.9c0,0,0.4-0.4,1.1-1.3c1-1.2,1.6-1.8,1.9-1.8
		c0.3,0,1.1,0.7,2.6,2c0.9,0.8,1.3,1.3,1.3,1.5c0,0.4-0.2,0.5-0.7,0.5h-11.2v6.7h3.9c0.5-0.6,1-1.1,1.5-1.6c0.4-0.4,0.7-0.6,1-0.6
		c0.3,0,1,0.4,2,1c1.2,0.9,1.9,1.5,1.9,1.8c0,0.4-0.3,0.7-0.8,1c-0.4,0.3-0.6,0.7-0.6,1.1v3.5c0,1.1,0,2.7,0.1,4.6
		c0,0.4-0.6,0.8-1.9,1c-0.6,0.1-1,0.1-1.2,0.1c-0.6,0-1-0.4-1-1.1v-1.1h-12.3v1.3c0,0.5-0.6,0.8-1.8,1c-0.5,0.1-0.9,0.1-1.1,0.1
		c-0.8,0-1.1-0.4-1.1-1.1c0.1-1.3,0.1-2.5,0.1-3.8v-3.6c0-1.8-0.1-3.5-0.2-5.2c1.6,0.4,3.1,1,4.8,1.7h2.6V97.4c0-1-0.1-2.1-0.3-3.2
		C668.6,94.4,670.2,94.6,671.7,94.8z M676.4,116.3v-7.7h-12.3v7.7H676.4z"/>
</g>
</svg>
