<?xml version="1.0" encoding="utf-8"?>
<!-- Generator: Adobe Illustrator 26.0.2, SVG Export Plug-In . SVG Version: 6.00 Build 0)  -->
<svg version="1.1" id="圖層_1" xmlns="http://www.w3.org/2000/svg" xmlns:xlink="http://www.w3.org/1999/xlink" x="0px" y="0px"
	 viewBox="0 0 295.9 53.9" style="enable-background:new 0 0 295.9 53.9;" xml:space="preserve">
<style type="text/css">
	.st0{fill:#162982;}
</style>
<g>
	<g>
		<path d="M2.2,1.9h0.7c0.2-0.2,0.4-0.5,0.5-0.7c0.2-0.3,0.4-0.5,0.5-0.5c0.2,0,0.5,0.2,1,0.5C5.6,1.7,5.9,2,5.9,2.2
			c0,0.2-0.1,0.3-0.4,0.5C5.3,2.9,5.2,3,5.2,3.2v6.2l0.1,3.3c0,0.2-0.3,0.4-0.9,0.5c-0.3,0-0.5,0.1-0.6,0.1c-0.3,0-0.5-0.2-0.5-0.5
			V12H1.9v1.3c0,0.2-0.3,0.4-0.8,0.5c-0.2,0-0.4,0.1-0.5,0.1c-0.4,0-0.6-0.2-0.6-0.5c0.1-1.2,0.1-2.3,0.1-3.2V4
			c0-0.8-0.1-1.8-0.1-2.9C0.8,1.3,1.5,1.5,2.2,1.9z M3.4,6.7V2.3H1.9v4.3H3.4z M3.4,11.5V7.1H1.9v4.4H3.4z M7.8,8.6h2.9V8.3
			c0-0.3-0.1-0.9-0.1-1.7c0.9,0.1,1.6,0.3,1.8,0.3c0.7,0.1,1.1,0.3,1.1,0.5s-0.2,0.3-0.5,0.4c-0.3,0.1-0.5,0.2-0.5,0.4v0.5H13
			c0,0,0.2-0.2,0.4-0.5c0.3-0.3,0.5-0.5,0.5-0.5c0.2,0,0.4,0.2,0.8,0.5c0.3,0.4,0.5,0.6,0.5,0.6c0,0.2-0.1,0.3-0.2,0.3h-2.3v4.5
			c0,0.7-0.2,1.2-0.7,1.5c-0.5,0.3-1.1,0.5-1.6,0.5c-0.2,0-0.3-0.2-0.3-0.5c-0.1-0.5-0.7-1-1.8-1.5l0.1-0.3c0.9,0.1,1.6,0.2,2.1,0.2
			c0.3,0,0.4-0.1,0.4-0.3V9.1H7.8c-1,0-1.7,0-2.1,0.1L5.5,8.5C6,8.6,6.8,8.6,7.8,8.6z M8.1,2.8h0.7V1.7c0-0.5-0.1-1-0.1-1.5
			c0.8,0.1,1.5,0.2,2.2,0.3c0.5,0,0.7,0.2,0.7,0.4c0,0.1-0.2,0.2-0.4,0.3c-0.3,0.1-0.4,0.3-0.4,0.4v1.3h1.3c0,0,0.2-0.3,0.6-0.7
			c0.4-0.5,0.7-0.8,0.8-0.8c0.2,0,0.6,0.3,1.1,0.8C15,2.6,15.2,2.9,15.2,3c0,0.2-0.1,0.3-0.3,0.3h-4.1v2.6h0.7c0,0,0.2-0.3,0.6-0.7
			c0.4-0.5,0.7-0.8,0.8-0.8c0.2,0,0.6,0.3,1.1,0.8c0.5,0.5,0.7,0.9,0.7,1c0,0.2-0.1,0.3-0.3,0.3H8.9c-1,0-1.7,0-2.1,0.1L6.6,5.7
			c0.5,0.1,1.3,0.1,2.3,0.1V3.3H8.1c-1,0-1.7,0-2.1,0.1L5.8,2.7C6.3,2.8,7.1,2.8,8.1,2.8z M8.7,10.4c0.4,0.3,0.7,0.6,0.7,0.8
			c0,0.4-0.1,0.7-0.3,1c-0.2,0.3-0.5,0.4-0.8,0.4c-0.2,0-0.4,0-0.5-0.1c-0.1-0.1-0.2-0.3-0.3-0.8c-0.1-0.6-0.3-1.1-0.8-1.7l0.2-0.2
			C7.8,10,8.4,10.2,8.7,10.4z"/>
		<path d="M24.6,2.4c0.5,0.4,0.8,0.8,0.8,1.1c0,0.4-0.1,0.7-0.3,1c-0.2,0.3-0.4,0.4-0.7,0.4c-0.2,0-0.4-0.1-0.6-0.2
			c-0.1-0.1-0.3-0.5-0.5-1.1c-0.2-0.7-0.9-1.5-1.9-2.5L21.6,1C23,1.5,24,2,24.6,2.4z M29,0.4c0.4,0,0.7,0.1,0.7,0.4
			c0,0.1-0.1,0.2-0.4,0.3c-0.3,0.1-0.5,0.3-0.5,0.4v4.1h3.3c0.2-0.2,0.3-0.3,0.4-0.5c0.3-0.3,0.5-0.5,0.7-0.5c0.2,0,0.5,0.2,1.1,0.6
			c0.5,0.4,0.8,0.7,0.8,0.9c0,0.1-0.1,0.3-0.4,0.5c-0.3,0.2-0.5,0.4-0.5,0.6v6.7c0,0.6-0.3,1-1,1.3c-0.5,0.2-1,0.4-1.3,0.4
			c-0.2,0-0.3-0.2-0.4-0.6c-0.2-0.5-0.8-0.9-1.8-1.3l0.1-0.3c0.9,0.1,1.6,0.2,2.1,0.2c0.3,0,0.4-0.2,0.4-0.5V6.1h-9.1v9.1
			c0,0.2-0.3,0.4-0.9,0.5c-0.3,0-0.4,0.1-0.5,0.1c-0.4,0-0.5-0.2-0.5-0.5c0-0.6,0.1-1.2,0.1-1.8V7.2c0-0.8-0.1-1.7-0.1-2.5
			c0.8,0.2,1.6,0.5,2.4,0.9h3.1v-4c0-0.5-0.1-1-0.1-1.5C27.5,0.1,28.3,0.2,29,0.4z M27,7.9h1.6c0.2-0.3,0.4-0.5,0.7-0.7
			c0.1-0.2,0.3-0.3,0.4-0.3c0.1,0,0.4,0.2,0.9,0.4c0.5,0.4,0.8,0.6,0.8,0.8c0,0.2-0.1,0.3-0.3,0.5c-0.2,0.1-0.2,0.3-0.2,0.5v1
			c0,0.5,0,1.2,0.1,2.1c0,0.2-0.3,0.4-0.9,0.5c-0.3,0-0.4,0.1-0.5,0.1c-0.3,0-0.5-0.2-0.5-0.5v-0.3h-2.5v0.6c0,0.2-0.3,0.4-0.8,0.5
			c-0.2,0-0.4,0.1-0.5,0.1c-0.4,0-0.5-0.2-0.5-0.5c0-0.6,0.1-1.2,0.1-1.7V9.5c0-0.8-0.1-1.6-0.1-2.4C25.5,7.3,26.2,7.6,27,7.9z
			 M29.1,11.4v-3h-2.5v3H29.1z M33.8,1.5c0.7,0.2,1,0.5,1,0.7c0,0.1-0.2,0.2-0.5,0.3c-0.3,0.1-0.5,0.2-0.5,0.3
			C33,3.6,31.9,4.3,30.6,5l-0.3-0.3c1-1.2,1.6-2.4,1.9-3.9C32.8,1.1,33.3,1.3,33.8,1.5z"/>
		<path d="M42.9,1.7h9.9c0.1,0,0.3-0.3,0.7-0.8c0.5-0.6,0.7-0.9,0.8-0.9c0.2,0,0.6,0.3,1.1,0.8s0.8,0.9,0.8,1c0,0.2-0.1,0.3-0.3,0.3
			h-6.3c-0.6,1.2-1.1,2.3-1.6,3.1h3.4c0.3-0.3,0.5-0.5,0.8-0.8c0.2-0.2,0.4-0.3,0.5-0.3c0.1,0,0.5,0.2,1,0.5c0.6,0.4,1,0.8,1,0.9
			c0,0.2-0.1,0.3-0.4,0.5c-0.2,0.2-0.3,0.3-0.3,0.5v6.3c0,0.6,0,1.3,0.1,2.3c0,0.2-0.3,0.4-0.9,0.5c-0.3,0-0.5,0.1-0.6,0.1
			c-0.3,0-0.5-0.2-0.5-0.5v-0.8h-7.2v0.9c0,0.2-0.3,0.4-0.9,0.5c-0.3,0-0.4,0-0.5,0c-0.4,0-0.5-0.2-0.5-0.5c0-0.6,0.1-1.2,0.1-1.8
			V6.9c0-0.9-0.1-1.7-0.1-2.5c0.7,0.2,1.5,0.5,2.3,0.8h1.7c0.2-0.9,0.4-1.9,0.6-3.1h-4.4c-1,0-1.7,0-2.1,0.1l-0.3-0.7
			C41.1,1.6,41.9,1.7,42.9,1.7z M52,9.3V5.7h-7.2v3.6H52z M52,13.9V9.8h-7.2v4.1H52z"/>
		<path d="M66.2,0.5c0.6,0.2,0.9,0.3,0.9,0.5c0,0.2-0.2,0.3-0.5,0.3c-0.3,0.1-0.4,0.1-0.5,0.2c-0.4,0.3-0.8,0.6-1.2,0.9
			c0.1,0,0.1,0,0.2,0c0.7,0.1,1,0.2,1,0.3c0,0.2-0.2,0.4-0.6,0.5c-0.3,0.1-0.4,0.2-0.4,0.4v1.7c0,0.2-0.3,0.4-0.9,0.5
			c-0.1,0-0.1,0-0.2,0c0.5,0.2,1.1,0.4,1.6,0.6h6.2c0.2-0.1,0.4-0.3,0.5-0.4c0.2-0.2,0.4-0.3,0.5-0.3c0.2,0,0.5,0.2,1,0.5
			c0.6,0.4,0.9,0.8,0.9,0.9c0,0.2-0.1,0.3-0.4,0.5c-0.2,0.2-0.3,0.4-0.3,0.6v0.9l0.1,3.4c0,0.2-0.3,0.4-0.9,0.5
			c-0.3,0-0.5,0.1-0.6,0.1c-0.3,0-0.5-0.2-0.5-0.5v-0.1h-7v0.3c0,0.2-0.3,0.4-0.9,0.5c-0.3,0-0.4,0.1-0.5,0.1
			c-0.4,0-0.5-0.2-0.5-0.5c0-0.6,0.1-1.2,0.1-1.8V8.1c0-0.8-0.1-1.5-0.1-2.3c-0.1-0.1-0.1-0.1-0.1-0.2c0-0.3,0.1-0.6,0.1-0.7V3.2
			c-0.6,0.3-1.2,0.5-2,0.7l-0.2-0.3c0.6-0.4,1.3-0.9,2-1.6c0.6-0.5,1.1-1.2,1.6-2.1C65.2,0.2,65.7,0.3,66.2,0.5z M67.4,13.2
			c0.5,0.3,0.7,0.4,0.7,0.6c0,0.2-0.1,0.2-0.3,0.3c-0.3,0-0.4,0.1-0.5,0.2c-0.6,0.3-1.3,0.5-2,0.7c-0.8,0.3-2,0.5-3.7,0.8l-0.1-0.3
			c1-0.4,2-0.9,2.8-1.3c0.9-0.6,1.6-1.1,1.9-1.6C66.7,12.8,67.1,13,67.4,13.2z M72.3,8.3V6.9h-7v1.4H72.3z M72.3,10.1V8.8h-7v1.3
			H72.3z M72.3,11.9v-1.3h-7v1.3H72.3z M75.1,0.9c0.5,0.3,0.7,0.5,0.7,0.6s-0.1,0.2-0.3,0.2c-0.3,0-0.4,0.1-0.5,0.2
			c-0.6,0.2-1.3,0.4-2,0.5c-0.6,0.2-1.6,0.3-2.8,0.5v0.7c0,0.3,0.1,0.5,0.3,0.6c0.4,0.1,1.1,0.1,2,0.1c0.6,0,1.1,0,1.5-0.1
			c0.3,0,0.5-0.1,0.6-0.2c0.1-0.1,0.2-0.2,0.3-0.5c0.1-0.3,0.3-0.7,0.4-1.2l0.3,0.1c0,0.6,0.1,0.9,0.1,1.1c0,0.4,0.1,0.6,0.4,0.7
			c0.3,0.2,0.5,0.3,0.5,0.5c0,0.3-0.2,0.5-0.6,0.7c-0.3,0.1-0.6,0.2-1,0.3c-0.6,0.1-1.4,0.2-2.4,0.2c-1.6,0-2.6-0.1-3.2-0.2
			c-0.4-0.1-0.7-0.3-0.9-0.5c-0.1-0.2-0.2-0.5-0.2-1v-2c0-0.6-0.1-1.3-0.1-1.9c0.5,0,1.2,0.1,1.9,0.2c0.7,0.1,1,0.2,1,0.4
			c0,0.2-0.2,0.4-0.5,0.5c-0.2,0.1-0.4,0.2-0.4,0.4v0.8c0.6-0.2,1.2-0.5,1.7-0.8c0.9-0.5,1.6-0.9,1.9-1.4
			C74.3,0.5,74.8,0.7,75.1,0.9z M73.6,13.3c0.8,0.1,1.4,0.3,1.8,0.6c0.3,0.2,0.5,0.5,0.5,0.9c0,0.3-0.1,0.5-0.2,0.7
			c-0.2,0.1-0.4,0.2-0.7,0.2c-0.3,0-0.9-0.3-1.7-0.8c-0.8-0.5-2-1-3.6-1.5l0.1-0.3C71.5,13.1,72.7,13.2,73.6,13.3z"/>
		<path d="M88.9,10.3L88.6,10c0.7-0.6,1-1.2,1-1.7c0-0.1-0.1-0.1-0.1-0.1C88.5,8,88,7.5,88,6.8c0-0.4,0.1-0.7,0.4-1
			c0.3-0.3,0.6-0.4,1-0.4c0.4,0,0.8,0.2,1.1,0.5c0.3,0.3,0.4,0.7,0.4,1.2C90.9,8.3,90.3,9.4,88.9,10.3z"/>
		<path d="M105,2.5h4c0-0.9-0.1-1.8-0.2-2.5c0.5,0.1,1.2,0.2,2.1,0.3c0.7,0.1,1,0.2,1,0.4c0,0.2-0.2,0.3-0.5,0.5
			c-0.3,0.1-0.4,0.2-0.4,0.4v0.9h3.5c0.1,0,0.3-0.3,0.7-0.8c0.5-0.6,0.7-0.9,0.8-0.9c0.2,0,0.6,0.3,1.1,0.8s0.8,0.9,0.8,1
			c0,0.2-0.1,0.3-0.3,0.3h-6.5v1.9h3.4c0.2-0.2,0.3-0.3,0.4-0.4c0.3-0.3,0.5-0.4,0.7-0.4c0.2,0,0.5,0.2,1.1,0.6
			c0.5,0.4,0.8,0.7,0.8,0.9c0,0.1-0.1,0.3-0.4,0.5c-0.3,0.2-0.5,0.4-0.5,0.6V14c0,0.6-0.3,1-0.9,1.3c-0.5,0.2-0.9,0.4-1.2,0.4
			c-0.1,0-0.2-0.2-0.3-0.6c-0.1-0.5-0.7-1-1.6-1.3l0.1-0.3c0.8,0.1,1.4,0.2,1.9,0.2c0.2,0,0.3-0.2,0.3-0.5V5.4h-9.1v9.7
			c0,0.2-0.3,0.4-0.9,0.5c-0.3,0-0.4,0.1-0.5,0.1c-0.4,0-0.5-0.2-0.5-0.5c0-0.6,0.1-1.2,0.1-1.8V6.6c0-0.8-0.1-1.7-0.1-2.5
			c0.8,0.2,1.5,0.5,2.3,0.8h3.2V3h-4.3c-0.9,0-1.7,0.1-2.3,0.1l-0.3-0.8C103.2,2.5,104.1,2.5,105,2.5z M112.5,6.3
			c0.4,0.2,0.7,0.4,0.7,0.5c0,0.2-0.1,0.2-0.3,0.3c-0.3,0-0.4,0.1-0.5,0.1c-0.2,0.3-0.5,0.5-0.7,0.8c-0.2,0.2-0.5,0.4-0.8,0.6h1.2
			c0,0,0.2-0.2,0.4-0.4c0.3-0.3,0.4-0.5,0.5-0.5c0.1,0,0.4,0.2,0.7,0.5c0.3,0.3,0.5,0.5,0.5,0.6c0,0.2-0.1,0.3-0.2,0.3h-3.1
			c0,0.7,0,1.3,0,1.9h1.1c0,0,0.2-0.2,0.4-0.5c0.3-0.4,0.5-0.6,0.6-0.6c0.2,0,0.5,0.2,0.8,0.6c0.4,0.4,0.6,0.6,0.6,0.7
			c0,0.2-0.1,0.3-0.3,0.3h-3.3c0,1.4,0.1,2.4,0.1,3.1c0,0.2-0.2,0.3-0.5,0.4c-0.4,0.1-0.8,0.1-1.1,0.1c-0.3,0-0.4-0.1-0.5-0.3
			c0-0.8,0.1-1.9,0.1-3.3h-0.7c-1,0-1.7,0-2.1,0.1l-0.3-0.7c0.5,0.1,1.3,0.1,2.3,0.1h0.7c0-0.6,0-1.2,0-1.9h-0.5c-1,0-1.7,0-2.1,0.1
			l-0.3-0.7c0.5,0.1,1.3,0.1,2.3,0.1h1.7c0.2-0.4,0.5-0.8,0.7-1.3c0.2-0.5,0.4-1.1,0.5-1.6C111.7,5.9,112.1,6.2,112.5,6.3z
			 M108.8,6.6c0.3,0.3,0.5,0.5,0.5,0.9c0,0.3-0.1,0.5-0.3,0.8c-0.2,0.2-0.4,0.3-0.6,0.3c-0.2,0-0.4-0.2-0.5-0.6
			c-0.2-0.6-0.5-1.2-1-1.7l0.1-0.3C107.8,6.1,108.4,6.3,108.8,6.6z"/>
		<path d="M127.2,2.2V5h0.1c0,0,0.2-0.2,0.6-0.7c0.4-0.5,0.6-0.7,0.7-0.7c0.2,0,0.5,0.2,1,0.7s0.7,0.8,0.7,0.9
			c0,0.2-0.1,0.3-0.3,0.3h-2.7v0.9c0.9,0.4,1.5,0.7,1.9,1c0.4,0.3,0.7,0.6,0.7,0.9c0,0.4-0.1,0.7-0.3,0.9c-0.2,0.3-0.4,0.4-0.7,0.4
			c-0.2,0-0.3,0-0.5-0.1c-0.1-0.1-0.3-0.4-0.4-0.9c-0.1-0.4-0.3-0.8-0.7-1.3V15c0,0.2-0.3,0.4-0.9,0.5c-0.3,0-0.5,0.1-0.6,0.1
			c-0.3,0-0.5-0.2-0.5-0.5c0.1-0.6,0.1-1.5,0.1-2.7V9c-0.4,0.8-0.8,1.3-1.2,1.8c-0.4,0.6-0.9,1-1.4,1.5l-0.3-0.1
			c1.3-2.3,2.2-4.5,2.7-6.6H125c-1,0-1.7,0-2.1,0.1l-0.3-0.7C123.2,5,124,5,125,5h0.4V2.4c-0.8,0.1-1.6,0.1-2.3,0.2l-0.1-0.4
			c1.3-0.3,2.2-0.6,2.9-0.9c0.7-0.2,1.3-0.6,2-1.1c0.5,0.4,0.9,0.7,1.2,0.9c0.5,0.4,0.7,0.6,0.7,0.8S129.6,2,129.5,2l-0.7-0.1
			C128.2,2,127.7,2.1,127.2,2.2z M137.6,9c0.5,0.4,0.8,0.6,0.8,0.7c0,0.2-0.1,0.3-0.2,0.3l-2.2,0.3v1.8c0,1,0,2,0.1,3.1
			c0,0.2-0.3,0.4-0.9,0.5c-0.3,0-0.5,0.1-0.6,0.1c-0.4,0-0.6-0.2-0.6-0.5c0.1-1.1,0.1-2.1,0.1-3.1v-1.5l-3.7,0.5
			c-0.4,0.1-0.8,0.2-1.1,0.3l-0.5-0.7c0.4,0,0.9,0,1.5-0.1l3.9-0.5V3.3c0-1.2-0.1-2.2-0.1-3.1c0.5,0.1,1.2,0.2,2.1,0.3
			c0.6,0.1,0.9,0.2,0.9,0.4s-0.2,0.3-0.5,0.4c-0.3,0.1-0.4,0.2-0.4,0.4v7.9c0.1-0.2,0.2-0.4,0.3-0.5c0.2-0.3,0.3-0.5,0.4-0.5
			C136.8,8.5,137.1,8.7,137.6,9z M132.3,6.9c0.4,0.3,0.6,0.7,0.6,1.1c0,0.3-0.1,0.6-0.4,0.9c-0.2,0.2-0.4,0.3-0.7,0.3
			c-0.3,0-0.6-0.3-0.8-0.8c-0.3-0.7-0.8-1.5-1.5-2.2l0.1-0.3C131,6.3,131.8,6.6,132.3,6.9z M133,2.9c0.4,0.3,0.6,0.7,0.6,1.1
			c0,0.3-0.1,0.6-0.4,0.9c-0.2,0.2-0.4,0.3-0.7,0.3c-0.3,0-0.5-0.3-0.7-0.8c-0.2-0.8-0.7-1.5-1.3-2.2l0.1-0.3
			C131.8,2.2,132.6,2.5,133,2.9z"/>
		<path d="M147.2,3.4h2.8V3.2c0-1.2-0.1-2.2-0.1-3.1c0.5,0.1,1.2,0.2,2.1,0.3c0.6,0.1,0.9,0.2,0.9,0.4s-0.2,0.3-0.5,0.4
			c-0.3,0.1-0.4,0.2-0.4,0.4v1.9h1.9c0,0,0.3-0.3,0.6-0.8c0.5-0.6,0.7-0.9,0.8-0.9c0.2,0,0.6,0.3,1.1,0.8c0.5,0.5,0.8,0.9,0.8,1
			c0,0.2-0.1,0.3-0.3,0.3h-4.9v2.9h2.9c0.1,0,0.3-0.3,0.7-0.8c0.5-0.6,0.8-0.9,0.9-0.9c0.2,0,0.6,0.3,1.2,0.9s0.8,0.9,0.8,1.1
			c0,0.2-0.1,0.3-0.4,0.3h-5.5c1,1.4,1.9,2.4,3,3.1c1.2,0.8,2.3,1.3,3.5,1.6l-0.1,0.4c-0.5,0.2-0.9,0.5-1.1,1.1
			c-0.1,0.4-0.3,0.6-0.5,0.6c-0.2,0-0.7-0.3-1.4-1c-0.8-0.6-1.5-1.5-2.2-2.6c-0.7-1-1.2-2-1.6-3.1v4.6c0,1,0,2,0.1,3.1
			c0,0.2-0.3,0.4-0.9,0.5c-0.3,0-0.4,0.1-0.6,0.1c-0.4,0-0.6-0.2-0.6-0.5c0.1-1.1,0.1-2.1,0.1-3.1V8.6c-0.5,0.9-1,1.7-1.5,2.2
			c-0.7,0.8-1.4,1.5-2.3,2.1c-0.9,0.6-1.8,1.1-2.8,1.5l-0.1-0.3c1.1-0.8,2.2-1.7,3.1-2.9c0.9-1.2,1.7-2.5,2.4-4h-2.6
			c-1,0-1.7,0-2.1,0.1l-0.3-0.7c0.5,0.1,1.3,0.1,2.3,0.1h3.9V3.9h-2.8c-1,0-1.7,0-2.1,0.1l-0.3-0.7C145.4,3.4,146.1,3.4,147.2,3.4z"
			/>
		<path d="M166.2,2.8h4.3c0-1-0.1-1.9-0.1-2.6c0.5,0.1,1.2,0.2,2.1,0.3c0.6,0.1,0.9,0.2,0.9,0.4s-0.2,0.3-0.5,0.4
			c-0.3,0.1-0.4,0.2-0.4,0.4v1.1h3.5c0.1,0,0.3-0.3,0.6-0.8c0.4-0.6,0.7-0.9,0.8-0.9c0.2,0,0.6,0.3,1.1,0.8c0.5,0.5,0.8,0.9,0.8,1
			c0,0.2-0.1,0.3-0.3,0.3h-6.4v3.8c0.3,0.4,0.6,0.8,1,1.2c0.4-0.6,0.8-1.2,1-1.7c0.3-0.7,0.6-1.5,0.8-2.5c0.6,0.2,1.1,0.3,1.6,0.5
			c0.5,0.2,0.8,0.3,0.8,0.5s-0.1,0.3-0.4,0.3s-0.4,0.1-0.5,0.2c-0.1,0.3-0.3,0.5-0.4,0.7c0.7,0.3,1.2,0.5,1.5,0.8
			c0.4,0.4,0.6,0.8,0.6,1.3c0,0.3-0.1,0.5-0.4,0.8c-0.2,0.2-0.4,0.3-0.6,0.3s-0.5-0.3-0.7-0.8c-0.2-0.6-0.4-1.2-0.8-1.7
			c-0.2,0.2-0.4,0.4-0.5,0.6c-0.4,0.4-1,0.9-1.6,1.3c0.5,0.6,1.1,1.1,1.7,1.5c1.3,0.9,2.6,1.6,4,1.9l-0.1,0.4c-0.5,0.2-0.8,0.5-1,1
			c-0.1,0.4-0.3,0.6-0.4,0.6c-0.2,0-0.8-0.4-1.7-1.1c-0.9-0.7-1.8-1.7-2.6-2.9c-0.4-0.6-0.8-1.1-1.1-1.7v3.6c0,1,0,2,0.1,3.1
			c0,0.2-0.3,0.4-0.9,0.5c-0.3,0-0.4,0.1-0.6,0.1c-0.4,0-0.6-0.2-0.6-0.5c0.1-1.1,0.1-2.1,0.1-3.1v-1.9c-1.2,1.2-2.3,2.1-3.3,2.6
			c-1,0.6-2,1.2-3.2,1.7l-0.3-0.1c2.3-1.7,4.1-3.4,5.4-5c-0.1,0-0.2,0.1-0.3,0.1c-0.2,0-0.4-0.1-0.5-0.2c-0.1-0.1-0.3-0.4-0.3-0.8
			c-0.1-0.4-0.3-0.8-0.5-1.3c-0.2,0.3-0.4,0.7-0.7,1c-0.6,0.7-1.3,1.5-2.2,2.3l-0.3-0.3c0.7-1,1.2-2,1.5-2.9
			c0.4-0.9,0.7-2.1,0.9-3.3c0.6,0.2,1.1,0.3,1.6,0.5c0.5,0.2,0.8,0.4,0.8,0.5c0,0.2-0.1,0.3-0.4,0.3c-0.3,0.1-0.4,0.1-0.5,0.2
			c-0.2,0.4-0.3,0.8-0.5,1.1c0.5,0.2,0.9,0.4,1.2,0.6c0.5,0.4,0.8,0.8,0.8,1.1c0,0.1,0,0.2,0,0.2c0.2-0.3,0.5-0.7,0.7-1v-4h-4.3
			c-1,0-1.7,0-2.1,0.1l-0.3-0.7C164.4,2.8,165.2,2.8,166.2,2.8z"/>
		<path d="M191.5,10.3l-0.3-0.4c0.7-0.6,1-1.2,1-1.7c0-0.1-0.1-0.1-0.1-0.1c-1-0.1-1.5-0.6-1.5-1.3c0-0.4,0.1-0.7,0.4-1
			c0.3-0.3,0.6-0.4,1-0.4c0.4,0,0.8,0.2,1.1,0.5c0.3,0.3,0.4,0.7,0.4,1.2C193.5,8.3,192.8,9.4,191.5,10.3z"/>
		<path d="M207.5,7h9.3c0.1,0,0.3-0.3,0.6-0.8c0.5-0.6,0.7-0.9,0.8-0.9c0.2,0,0.6,0.3,1.1,0.8c0.5,0.5,0.8,0.9,0.8,1
			c0,0.2-0.1,0.3-0.3,0.3h-12.6c-0.9,0-1.7,0.1-2.3,0.1l-0.3-0.8C205.8,6.9,206.7,7,207.5,7z"/>
		<path d="M231.5,8.3c-1,1.1-2.1,2.1-3.1,2.7c-0.7,0.4-1,0.7-1,0.7v0.5c0,0.3-0.1,0.4-0.2,0.4c-0.2,0-0.5-0.3-0.9-1
			c-0.2-0.4-0.5-0.8-0.9-1.4c1.6-0.4,3.6-1.1,5.9-2.2L231.5,8.3z M227.9,3.6c0,0,0.2-0.3,0.5-0.7c0.4-0.5,0.7-0.8,0.7-0.8
			c0.2,0,0.5,0.3,1,0.8c0.5,0.5,0.7,0.8,0.7,0.9c0,0.2-0.1,0.3-0.3,0.3h-2.6c-1,0-1.7,0-2.1,0.1l-0.3-0.7
			C226.1,3.6,226.9,3.6,227.9,3.6z M235.1,5c0.9,0.1,1.3,0.3,1.3,0.4s-0.2,0.3-0.5,0.4c-0.3,0.1-0.4,0.3-0.4,0.4
			c-0.1,0.6-0.2,1.2-0.3,1.7c0.2,0.6,0.5,1.2,0.8,1.7c0.5,0.9,1.1,1.6,1.9,2.2c0.8,0.6,1.7,1.1,2.9,1.6l-0.1,0.3
			c-0.4,0.1-0.7,0.4-1,1c-0.2,0.4-0.4,0.6-0.4,0.6c-0.2,0-0.6-0.3-1.1-0.8c-0.7-0.6-1.3-1.3-1.8-2.1c-0.5-0.8-0.9-1.6-1.1-2.5
			c-0.1-0.3-0.2-0.6-0.3-0.9c-0.3,1-0.5,1.8-0.9,2.3c-0.3,0.6-1,1.3-1.8,2c-0.9,0.8-2,1.4-3.3,2.1l-0.3-0.2c1.3-1,2.3-2,3.1-3
			c0.5-0.7,0.9-1.6,1.2-2.5c0.3-1.1,0.4-2.2,0.4-3.5c0-0.4,0-0.9-0.1-1.5C234,4.9,234.6,5,235.1,5z M233.9,0.7
			c0.6,0.2,0.9,0.4,0.9,0.5c0,0.2-0.2,0.3-0.5,0.3c-0.3,0.1-0.5,0.1-0.5,0.2c-0.2,0.6-0.4,1.2-0.6,1.7h4.4c0.2-0.2,0.4-0.3,0.6-0.5
			c0.2-0.2,0.4-0.3,0.6-0.3c0.2,0,0.6,0.3,1.2,0.8c0.6,0.5,0.9,0.8,0.9,1c0,0.2-0.2,0.3-0.5,0.3c-0.4,0-0.6,0-0.6,0.1
			c-0.7,0.8-1.5,1.6-2.4,2.5L237,7.3c0.3-1.1,0.5-2.2,0.7-3.3h-4.9c-0.2,0.4-0.3,0.7-0.5,1c-0.5,0.8-1.1,1.7-1.9,2.6l-0.3-0.3
			c0.5-1.2,0.9-2.3,1.2-3.3c0.3-1.1,0.5-2.3,0.7-3.8C232.7,0.4,233.3,0.5,233.9,0.7z"/>
		<path d="M247.6,8.2c0.2-0.2,0.4-0.4,0.5-0.6c0.2-0.3,0.4-0.4,0.5-0.4c0.2,0,0.5,0.2,0.9,0.6c0.5,0.4,0.8,0.7,0.8,0.8
			c0,0.2-0.1,0.3-0.3,0.5c-0.2,0.2-0.3,0.4-0.3,0.5v2.8c0.5,0.5,1.1,0.9,1.8,0.9c0.8,0.1,2.4,0.2,4.8,0.2c1.5,0,3.1-0.1,4.9-0.3
			l0.1,0.3c-0.5,0.1-0.8,0.5-1.1,1.3c-0.1,0.3-0.1,0.5-0.3,0.5h-4.1c-0.9,0-2.1-0.1-3.6-0.2c-1.4-0.3-2.5-1-3.1-2.1
			c-0.1,0-0.1,0.1-0.2,0.2c-0.4,0.7-1,1.4-1.6,2c0,0.4-0.1,0.7-0.3,0.7c-0.1,0-0.2-0.1-0.3-0.4c-0.3-0.5-0.6-1.2-0.9-2
			c0.9-0.2,1.5-0.4,2-0.6V8.7c-0.7,0-1.2,0.1-1.6,0.1L246,8C246.5,8.1,247,8.2,247.6,8.2z M248.9,4.4c0.4,0.3,0.6,0.6,0.6,1
			c0,0.3-0.1,0.6-0.4,0.9c-0.2,0.2-0.4,0.3-0.7,0.3c-0.3,0-0.5-0.2-0.8-0.8c-0.3-0.7-0.8-1.4-1.5-2.1l0.1-0.3
			C247.6,3.8,248.5,4.1,248.9,4.4z M249.8,1.3c0.4,0.3,0.7,0.6,0.7,0.9c0,0.3-0.1,0.6-0.4,0.9c-0.2,0.2-0.4,0.3-0.7,0.3
			c-0.3,0-0.6-0.2-0.8-0.7c-0.3-0.6-0.8-1.3-1.6-1.9l0.1-0.3C248.4,0.8,249.3,1,249.8,1.3z M254,2.5v2.6h3.9c0,0,0.2-0.2,0.5-0.5
			c0.4-0.5,0.7-0.8,0.9-0.8s0.5,0.3,1.2,0.9c0.4,0.4,0.6,0.6,0.6,0.7c0,0.2-0.1,0.3-0.3,0.3h-2.4v6.8c0,0.2-0.3,0.4-0.9,0.5
			c-0.3,0-0.5,0.1-0.6,0.1c-0.4,0-0.5-0.2-0.5-0.5c0.1-0.6,0.1-1.6,0.1-2.8v-4H254c0,1-0.1,1.8-0.2,2.5c-0.2,0.9-0.5,1.8-0.9,2.6
			c-0.4,0.6-0.9,1.3-1.6,1.9l-0.3-0.1c0.4-1,0.7-2,0.9-2.9c0.2-1.1,0.3-2.8,0.3-5.1c0-1.6-0.1-2.8-0.2-3.5c0.9,0.3,1.6,0.5,2.2,0.8
			c0.8-0.2,1.5-0.4,2-0.6c0.7-0.3,1.5-0.7,2.3-1.2c0.6,0.4,1,0.8,1.4,1c0.5,0.4,0.8,0.7,0.8,0.8c0,0.1-0.1,0.2-0.3,0.2l-0.9-0.1
			C257.5,2.3,255.7,2.4,254,2.5z"/>
		<path d="M271,3.6c0.3,0.3,0.4,0.6,0.4,0.7c0,0.2-0.1,0.3-0.2,0.3h-1.6v2.8c0.4,0,0.8-0.1,1.1-0.2c-0.1-0.4-0.4-0.9-0.6-1.3
			l0.1-0.3c0.3,0.1,0.6,0.2,0.9,0.3c0.3-0.9,0.6-1.8,0.8-2.9c0.5,0.2,0.9,0.4,1.4,0.5c0.4,0.2,0.7,0.4,0.7,0.5
			c0,0.1-0.1,0.2-0.4,0.2c-0.2,0-0.4,0.1-0.4,0.1c-0.5,0.6-1,1.2-1.6,1.8c0.1,0,0.1,0.1,0.2,0.1c0.2,0.2,0.4,0.5,0.4,0.7
			s-0.1,0.5-0.4,0.8c-0.2,0.2-0.4,0.3-0.6,0.3c-0.1,0-0.2-0.1-0.3-0.2c-0.4,0.3-0.9,0.5-1.3,0.8v5.1c0,0.6-0.2,1.1-0.6,1.4
			c-0.5,0.3-0.9,0.5-1.3,0.5c-0.1,0-0.2-0.2-0.2-0.5c-0.1-0.5-0.5-1-1.2-1.5l0.1-0.3c0.6,0.2,1,0.3,1.3,0.3c0.2,0,0.3-0.1,0.3-0.3
			V9.4c-0.1,0-0.2,0.1-0.3,0.1c-0.1,0-0.2,0.1-0.2,0.3c-0.1,0.1-0.1,0.2-0.1,0.3c-0.1,0.2-0.2,0.3-0.3,0.3s-0.3-0.4-0.5-1.3
			c-0.1-0.2-0.2-0.6-0.3-1.2c0.6-0.1,1.2-0.1,1.7-0.2v-3h-0.2c-0.3,0-0.8,0-1.3,0.1L266.1,4c0.7,0.1,1.2,0.1,1.6,0.1h0.2V1.6
			c0-0.3-0.1-0.8-0.1-1.5c0.8,0.1,1.4,0.2,1.6,0.3c0.7,0.1,1,0.3,1,0.4c0,0.2-0.1,0.3-0.4,0.4c-0.3,0.1-0.4,0.2-0.4,0.4v2.6h0.1
			c0.1-0.1,0.2-0.3,0.3-0.6c0.2-0.3,0.3-0.5,0.3-0.5C270.5,3.1,270.7,3.3,271,3.6z M274.5,5.8c0.2,0.1,0.3,0.2,0.4,0.2
			c0.1-0.2,0.1-0.3,0.2-0.5c0.3-0.7,0.5-1.6,0.7-2.7c0.5,0.2,1,0.3,1.5,0.4c0.4,0.1,0.7,0.3,0.7,0.4c0,0.1-0.1,0.2-0.4,0.3
			c-0.3,0-0.4,0.1-0.4,0.2c-0.2,0.4-0.4,0.8-0.6,1.1l0.4,0.2h1.2c0.1-0.4,0.2-0.7,0.2-1c0.1-0.4,0.1-0.8,0.2-1.3
			c0.5,0.1,0.9,0.3,1.4,0.4c0.4,0.1,0.6,0.3,0.6,0.4s-0.1,0.2-0.3,0.3c-0.2,0-0.4,0.1-0.4,0.1c-0.2,0.3-0.4,0.6-0.6,0.8
			c-0.1,0.1-0.3,0.2-0.4,0.3h0.9c0,0,0.1-0.1,0.4-0.4c0.3-0.4,0.5-0.5,0.6-0.5c0.1,0,0.4,0.2,0.8,0.6c0.3,0.3,0.4,0.4,0.4,0.5
			c0,0.2-0.1,0.3-0.2,0.3h-2.2v2.2h0.1c0,0,0.1-0.1,0.3-0.3c0.3-0.3,0.4-0.5,0.5-0.5c0.1,0,0.3,0.2,0.8,0.6c0.3,0.2,0.4,0.4,0.4,0.4
			c0,0.2-0.1,0.3-0.2,0.3h-1.9v2.4h0.1c0,0,0.1-0.1,0.3-0.3c0.3-0.3,0.4-0.5,0.5-0.5c0.1,0,0.3,0.2,0.8,0.6c0.3,0.2,0.4,0.4,0.4,0.4
			c0,0.2-0.1,0.3-0.2,0.3h-1.9v2.6h0.3c0,0,0.1-0.1,0.4-0.4c0.3-0.3,0.5-0.5,0.6-0.5c0.1,0,0.3,0.2,0.8,0.6c0.3,0.2,0.4,0.4,0.4,0.5
			c0,0.2-0.1,0.3-0.2,0.3h-4.9v0.5c0,0.2-0.2,0.3-0.7,0.4c-0.2,0-0.4,0.1-0.5,0.1c-0.4,0-0.5-0.2-0.5-0.5c0.1-0.7,0.1-1.4,0.1-2.1
			V9.6c-0.2,0.1-0.3,0.1-0.3,0.2c-0.5,1.5-0.9,2.5-1.4,3.2c-0.4,0.6-0.9,1.1-1.3,1.4c-0.5,0.4-1.2,0.8-2.1,1.2l-0.1-0.3
			c0.8-0.7,1.4-1.4,1.8-1.9c0.4-0.6,0.8-1.4,1-2.3c0-0.1,0.1-0.3,0.1-0.4c-0.6,0.3-1.1,0.5-1.7,0.7c-0.1,0-0.2,0.1-0.2,0.1
			c0,0.1-0.1,0.1-0.1,0.2c0,0.1-0.1,0.2-0.2,0.2c-0.2,0-0.4-0.3-0.6-1c-0.1-0.2-0.2-0.5-0.4-0.9c0.4,0,0.8,0,1.1,0
			c0.9-1.4,1.6-3,2.1-4.6C273.5,5.5,274,5.7,274.5,5.8z M277,0.4c0.4,0,0.7,0.1,0.7,0.3c0,0.1-0.1,0.2-0.4,0.3
			c-0.3,0.1-0.4,0.3-0.4,0.5v0.6h2.1c0,0,0.2-0.2,0.6-0.7c0.4-0.5,0.6-0.7,0.7-0.7c0.2,0,0.5,0.2,1,0.7c0.4,0.5,0.7,0.8,0.7,0.9
			c0,0.2-0.1,0.3-0.3,0.3h-8.7c-1,0-1.7,0-2.1,0.1L270.6,2c0.5,0.1,1.3,0.1,2.3,0.1h2.1V1.6c0-0.5-0.1-1-0.1-1.5
			C275.6,0.2,276.3,0.3,277,0.4z M275.3,7c-0.3,0.4-0.7,0.7-1.1,1.1L274,7.9c0.3-0.4,0.5-0.9,0.7-1.3c-0.1,0-0.2,0.1-0.2,0.1
			c-0.8,1.2-1.7,2.3-2.8,3.3c0.5,0,1,0,1.5-0.1c0.1-0.5,0.2-1,0.2-1.6c0.6,0.2,1.1,0.3,1.4,0.5c0.2,0.1,0.3,0.1,0.4,0.2V7z M277.9,6
			h-1v2.2h1V6z M277.9,8.7h-1v2.4h1V8.7z M277.9,11.5h-1v2.6h1V11.5z"/>
		<path d="M295.5,14.3c-0.3,0.3-0.6,0.4-1,0.4c-0.4,0-0.7-0.1-1-0.4c-0.3-0.3-0.4-0.6-0.4-1s0.1-0.7,0.4-1c0.3-0.3,0.6-0.4,1-0.4
			c0.4,0,0.7,0.1,1,0.4c0.3,0.3,0.4,0.6,0.4,1S295.7,14,295.5,14.3z M295.5,5.2c-0.4,2-0.6,3.5-0.6,4.5V11h-0.8V9.6
			c0-1.1-0.2-2.6-0.6-4.5c-0.2-1.1-0.3-1.9-0.3-2.4c0-0.4,0.1-0.8,0.4-1c0.2-0.3,0.5-0.4,1-0.4s0.7,0.2,1,0.4c0.2,0.3,0.4,0.6,0.4,1
			C295.8,3.2,295.7,4,295.5,5.2z"/>
	</g>
	<g>
		<path class="st0" d="M68,38.9v-0.3c0-0.5-0.1-0.9-0.1-1.3c0.4,0.1,1,0.1,1.6,0.3c0.6,0.1,0.9,0.2,0.9,0.3c0,0.2-0.2,0.3-0.5,0.4
			c-0.2,0.1-0.3,0.2-0.3,0.4v0.3h1.6v-0.3c0-0.5-0.1-0.9-0.1-1.3c0.5,0.1,1,0.1,1.7,0.3c0.6,0.1,0.9,0.2,0.9,0.3
			c0,0.2-0.2,0.3-0.5,0.4C73,38.3,73,38.4,73,38.6v0.3h0.3c0,0,0.2-0.2,0.5-0.5c0.3-0.4,0.5-0.6,0.6-0.6c0.2,0,0.5,0.2,0.8,0.6
			c0.4,0.4,0.6,0.7,0.6,0.8c0,0.2-0.1,0.3-0.3,0.3H73v0.8c0,0.2-0.3,0.3-0.7,0.4c-0.2,0-0.4,0.1-0.5,0.1c-0.3,0-0.4-0.1-0.4-0.3v-1
			h-1.6v0.7c0,0.1-0.1,0.2-0.3,0.3c0.1,0.1,0.3,0.2,0.6,0.3c0.4,0.3,0.6,0.5,0.6,0.6c0,0.1-0.1,0.2-0.2,0.3
			c-0.1,0.1-0.2,0.2-0.2,0.2v1.9c0,0.1-0.2,0.3-0.6,0.3c-0.2,0-0.3,0-0.4,0c-0.3,0-0.4-0.1-0.4-0.3v-0.1h-1.2v0.3
			c0.4,0.1,0.8,0.2,1.2,0.3c0.4,0.1,0.6,0.3,0.6,0.4c0,0.1-0.1,0.2-0.3,0.3C69,44.9,68.8,45,68.8,45c-0.1,0.3-0.3,0.5-0.4,0.8
			l0.2,0.1h1.7c0.1-0.3,0.2-0.5,0.3-0.7c0.1-0.3,0.2-0.6,0.2-1.1c0.5,0.1,0.9,0.3,1.4,0.4c0.4,0.1,0.6,0.3,0.6,0.4
			c0,0.1-0.1,0.2-0.3,0.3c-0.2,0-0.4,0.1-0.4,0.2c-0.2,0.2-0.4,0.4-0.7,0.5c0,0,0,0,0,0h1.5c0,0,0.1-0.1,0.4-0.4
			c0.4-0.4,0.6-0.6,0.7-0.6c0.1,0,0.4,0.3,1,0.7c0.3,0.3,0.5,0.5,0.5,0.6c0,0.2-0.1,0.3-0.3,0.3h-3.1v1.4h0.4c0,0,0.1-0.1,0.4-0.4
			c0.3-0.4,0.6-0.6,0.7-0.6c0.1,0,0.4,0.2,0.9,0.7c0.3,0.3,0.5,0.5,0.5,0.5c0,0.2-0.1,0.3-0.2,0.3h-2.7v1.5h0.6c0,0,0.1-0.1,0.4-0.4
			c0.3-0.4,0.6-0.6,0.7-0.6c0.1,0,0.4,0.2,0.9,0.7c0.3,0.3,0.5,0.5,0.5,0.5c0,0.2-0.1,0.3-0.2,0.3h-2.8v1.5h0.4c0,0,0.1-0.1,0.4-0.4
			c0.3-0.4,0.6-0.6,0.7-0.6c0.1,0,0.4,0.2,1,0.7c0.3,0.3,0.5,0.5,0.5,0.6c0,0.2-0.1,0.3-0.3,0.3h-6.1v0.9c0,0.2-0.3,0.3-0.8,0.5
			c-0.2,0-0.4,0.1-0.5,0.1c-0.4,0-0.6-0.2-0.6-0.5c0.1-0.8,0.1-1.6,0.1-2.4v-3.5c-0.3,0.3-0.6,0.5-1,0.7l-0.2-0.2
			c0.5-0.7,0.9-1.3,1.2-1.9c0.3-0.6,0.5-1.2,0.6-2c-0.1,0-0.2,0.1-0.4,0.1c-0.2,0-0.3,0-0.4,0c-0.2,0-0.3-0.1-0.3-0.3v-2.1
			c0-0.3,0-0.6-0.1-1c0.5,0.1,0.9,0.3,1.4,0.5h0.9c0.1-0.2,0.3-0.4,0.4-0.6c0,0,0-0.1,0.1-0.1h0c-0.2,0-0.4,0.1-0.5,0.1
			c-0.3,0-0.4-0.1-0.4-0.3v-0.9c-1,0-1.7,0-2.1,0.1l-0.3-0.7C66.2,38.8,67,38.9,68,38.9z M68.9,43.1v-1.4h-1.2v1.4H68.9z M70.4,46.4
			h-1.7v1.4h1.7V46.4z M70.4,48.3h-1.7v1.5h1.7V48.3z M70.4,50.3h-1.7v1.5h1.7V50.3z M72,41.1h1.1c0.1-0.2,0.3-0.4,0.4-0.5
			c0.1-0.1,0.2-0.2,0.3-0.2s0.4,0.1,0.7,0.4c0.4,0.3,0.6,0.5,0.6,0.6c0,0.1-0.1,0.2-0.2,0.3c-0.1,0.1-0.2,0.2-0.2,0.2v1.8
			c0,0.1-0.2,0.3-0.6,0.3c-0.2,0-0.3,0-0.4,0c-0.3,0-0.4-0.1-0.4-0.3v-0.1h-1.2v0.1c0,0.1-0.2,0.3-0.6,0.3c-0.2,0-0.3,0-0.4,0
			c-0.2,0-0.3-0.1-0.3-0.3v-2c0-0.3,0-0.6-0.1-1C71.2,40.8,71.6,41,72,41.1z M73.5,43.1v-1.4h-1.2v1.4H73.5z M78,37.6
			c0.5,0.2,0.8,0.4,0.8,0.5s-0.1,0.3-0.4,0.3c-0.3,0-0.5,0.1-0.5,0.2c-0.2,0.8-0.4,1.5-0.6,2.1h2.5c0.2-0.2,0.4-0.4,0.5-0.5
			c0.2-0.2,0.4-0.3,0.5-0.3c0.1,0,0.5,0.2,1,0.7c0.5,0.4,0.8,0.7,0.8,0.9c0,0.1-0.1,0.2-0.4,0.2c-0.3,0-0.5,0-0.5,0.1
			c-0.5,1-1,2-1.7,3l-0.3-0.1c0.1-0.5,0.1-1,0.2-1.5c0,0,0,0,0,0c-0.3,0.1-0.4,0.2-0.4,0.4c-0.1,1.4-0.2,2.6-0.4,3.6
			c0.2,0.6,0.4,1.2,0.7,1.8c0.3,0.6,0.7,1.2,1.1,1.6c0.4,0.4,1,0.9,1.7,1.3l-0.1,0.5c-0.6,0.1-1,0.3-1.3,0.8
			c-0.2,0.4-0.4,0.6-0.5,0.6c-0.1,0-0.4-0.3-0.7-0.9c-0.4-0.7-0.8-1.5-1-2.5c-0.1-0.4-0.2-0.8-0.3-1.3c0,0.1,0,0.1,0,0.1
			c-0.3,1.1-0.9,2-1.6,2.8c-0.6,0.7-1.5,1.3-2.7,1.8L74,53.5c0.7-0.7,1.3-1.4,1.8-2.3c0.5-0.7,0.8-1.7,1.1-3
			c0.2-1.1,0.3-2.4,0.4-3.9c0-0.9,0-1.7-0.1-2.3c0.6,0.1,1.1,0.2,1.7,0.3c0.4,0.1,0.7,0.1,0.9,0.2c0-0.4,0.1-0.8,0.1-1.2h-2.9
			c-0.1,0.3-0.2,0.5-0.3,0.7c-0.4,0.9-1,1.8-1.6,2.8l-0.3-0.3c0.4-1.2,0.7-2.4,0.9-3.4c0.2-1.1,0.4-2.4,0.5-4
			C76.8,37.3,77.4,37.4,78,37.6z"/>
		<path class="st0" d="M89.4,45.9c0.2-0.2,0.4-0.4,0.6-0.6c0.3-0.3,0.5-0.4,0.6-0.4c0.2,0,0.5,0.2,0.9,0.6c0.5,0.4,0.8,0.7,0.8,0.8
			c0,0.2-0.1,0.3-0.4,0.5c-0.3,0.2-0.4,0.4-0.4,0.5v3.2c0.5,0.6,1.2,1,2,1.1c0.9,0.1,2.8,0.2,5.5,0.2c1.6,0,3.4-0.1,5.4-0.3l0.1,0.3
			c-0.5,0.1-0.8,0.5-1.1,1.3c-0.1,0.3-0.1,0.5-0.3,0.5h-4.6c-1,0-2.4-0.1-4-0.2c-1.6-0.3-2.7-1.1-3.4-2.2c-0.1,0-0.1,0.1-0.2,0.1
			c-0.4,0.7-0.9,1.3-1.5,1.9c0,0.5-0.1,0.7-0.3,0.7c-0.1,0-0.2-0.1-0.4-0.4c-0.3-0.6-0.7-1.3-1-2.2c0.8-0.1,1.5-0.3,1.9-0.4v-4.6
			c-0.7,0-1.3,0.1-1.6,0.1l-0.3-0.9C88.2,45.8,88.8,45.9,89.4,45.9z M90.7,41.9c0.4,0.3,0.7,0.6,0.7,0.9c0,0.3-0.1,0.7-0.4,1
			c-0.2,0.2-0.5,0.3-0.8,0.3c-0.3,0-0.5-0.2-0.8-0.7c-0.3-0.7-0.8-1.3-1.5-2l0.1-0.3C89.3,41.3,90.2,41.6,90.7,41.9z M91.5,38.6
			c0.4,0.3,0.6,0.5,0.6,0.8c0,0.3-0.1,0.7-0.4,1c-0.2,0.2-0.5,0.3-0.8,0.3c-0.3,0-0.5-0.2-0.7-0.7c-0.3-0.6-0.7-1.3-1.4-1.9l0.1-0.3
			C90.2,38.1,91,38.3,91.5,38.6z M95.4,39.5v7.8c0.8-0.1,1.5-0.3,2.2-0.5l0.1,0.2c-1.1,1.1-2.3,1.9-3.5,2.4c-0.1,0-0.2,0.1-0.2,0.2
			c0,0.1-0.1,0.1-0.1,0.3c0,0.2-0.1,0.2-0.2,0.2c-0.3,0-0.5-0.4-0.8-1.2c-0.1-0.2-0.3-0.6-0.5-1.1c0.4,0,0.7-0.1,1.1-0.1v-6.2
			c0-1.5-0.1-2.7-0.2-3.4c0.5,0.1,1.2,0.3,1.9,0.6c0.1-0.1,0.1-0.1,0.2-0.2c0.3-0.3,0.5-0.7,0.8-1.2c0.5,0.4,1,0.7,1.3,1
			c0.1,0.1,0.2,0.2,0.3,0.3c0-0.1,0-0.3,0-0.4c0.8,0.2,1.5,0.5,2.2,0.8h1.2c0.2-0.2,0.3-0.3,0.4-0.4c0.3-0.3,0.6-0.5,0.7-0.5
			c0.2,0,0.6,0.2,1.2,0.6c0.5,0.4,0.8,0.7,0.8,0.9c0,0.1-0.1,0.3-0.4,0.5c-0.3,0.2-0.5,0.5-0.5,0.6v7.5c0,0.6-0.3,1-1,1.3
			c-0.5,0.2-1,0.3-1.3,0.3c-0.1,0-0.2-0.2-0.3-0.6c-0.1-0.4-0.4-0.8-1-1.1v2.9c0,0.2-0.3,0.4-0.9,0.5c-0.3,0-0.5,0.1-0.6,0.1
			c-0.4,0-0.6-0.2-0.6-0.6c0.1-1.3,0.1-2.5,0.1-3.4v-6.2c0-0.6,0-1.2-0.1-2L97,39C96.5,39.2,95.9,39.4,95.4,39.5z M99.8,47.4
			c0.5,0.1,0.9,0.1,1.3,0.1c0.2,0,0.3-0.2,0.3-0.5v-7.8h-1.6V47.4z"/>
		<path class="st0" d="M112.1,43.5h3.1c0.2-0.2,0.3-0.3,0.5-0.4c0.3-0.3,0.6-0.4,0.8-0.4c0.2,0,0.6,0.3,1.1,0.7
			c0.1,0.1,0.1,0.1,0.2,0.2v-0.2c0-0.8-0.1-1.9-0.1-3.1c0.8,0.2,1.6,0.5,2.3,0.9h0.4c0.1-0.6,0.3-1.3,0.3-2.1h-0.8
			c-1,0-1.8,0-2.2,0.1l-0.3-0.7c0.6,0.1,1.4,0.1,2.5,0.1h3.4c0,0,0.2-0.2,0.6-0.7c0.4-0.5,0.7-0.8,0.7-0.8c0.2,0,0.5,0.3,1,0.7
			c0.5,0.5,0.7,0.8,0.7,0.9c0,0.2-0.1,0.3-0.3,0.3h-3.2c-0.5,0.8-1,1.5-1.6,2.1h1.4c0.3-0.3,0.5-0.5,0.7-0.7
			c0.2-0.1,0.3-0.2,0.5-0.2c0.1,0,0.5,0.2,1,0.5c0.6,0.4,0.9,0.7,0.9,0.9c0,0.2-0.1,0.3-0.4,0.5c-0.2,0.1-0.3,0.3-0.3,0.5v5.2
			c0,0.5,0,1.3,0.1,2.3c0,0.2-0.3,0.4-0.9,0.5c-0.3,0-0.5,0.1-0.6,0.1c-0.3,0-0.5-0.2-0.5-0.6v-0.3h-3.6v0.1c0,0.2-0.3,0.4-0.9,0.5
			c-0.3,0-0.4,0.1-0.5,0.1c-0.4,0-0.6-0.2-0.6-0.6c0.1-1.3,0.1-2.5,0.1-3.4v-1.8h-0.1c-0.4,0-0.7,0.1-0.8,0.1c-0.9,1-1.7,1.6-2.2,2
			l-0.1-0.1c0.2-0.7,0.5-1.5,0.7-2.7h-1.1v7.4c0,0.9-0.3,1.5-0.8,1.7c-0.5,0.3-0.9,0.4-1.2,0.4c-0.1,0-0.3-0.2-0.4-0.6
			c-0.1-0.6-0.8-1.1-1.8-1.5l0.1-0.3c0.7,0.1,1.3,0.2,1.8,0.2c0.2,0,0.4-0.2,0.4-0.5V44h-0.2c-0.8,0-1.5,0.1-2.2,0.1l-0.3-0.9
			C110.3,43.4,111.1,43.5,112.1,43.5z M112.6,38.6h1.6c0.2-0.1,0.3-0.3,0.5-0.4c0.3-0.3,0.6-0.4,0.8-0.4c0.2,0,0.6,0.3,1.2,0.8
			c0.6,0.5,0.9,0.8,0.9,1c0,0.2-0.2,0.3-0.7,0.3c-0.4,0-0.7,0.1-0.8,0.2c-0.7,0.5-1.2,0.9-1.7,1.2c0.3,0.3,0.5,0.6,0.5,1
			c0,0.3-0.1,0.6-0.4,0.9c-0.2,0.2-0.4,0.3-0.7,0.3c-0.3,0-0.5-0.2-0.8-0.8c-0.3-0.7-0.8-1.4-1.5-2.1l0.1-0.3
			c0.8,0.2,1.4,0.4,1.9,0.6c0.2-0.5,0.5-1.1,0.7-1.8h-1.6c-0.8,0-1.5,0.1-2.2,0.1l-0.3-0.9C110.8,38.5,111.6,38.6,112.6,38.6z
			 M115.4,53.8l-0.1-0.4c1.1-0.4,1.9-0.8,2.4-1.3c0.6-0.4,1.2-1,1.7-1.7c0.5,0.4,1,0.7,1.3,1c0.5,0.4,0.7,0.6,0.7,0.8
			c0,0.1-0.1,0.2-0.3,0.2l-0.8-0.1C118.5,53.2,116.8,53.6,115.4,53.8z M123.2,43.7v-2.1h-3.6v2.1H123.2z M123.2,46.4v-2.2h-3.6v2.2
			H123.2z M123.2,49.2v-2.4h-3.6v2.4H123.2z M124.3,51.2c0.5,0.2,0.9,0.4,1.2,0.7c0.2,0.2,0.3,0.4,0.3,0.6c0,0.3-0.1,0.6-0.3,0.9
			c-0.2,0.3-0.5,0.4-0.8,0.4c-0.2,0-0.5-0.3-1-1c-0.5-0.6-1.1-1.2-1.9-1.6l0.2-0.4C123,50.8,123.8,51,124.3,51.2z"/>
		<path class="st0" d="M138.1,40.6c0.5,0.2,0.8,0.5,0.8,0.7c0,0.1-0.1,0.2-0.4,0.2c-0.3,0-0.4,0.1-0.5,0.1c-1,1.2-2.2,2.4-3.5,3.4
			c1,0,1.8-0.1,2.7-0.1c-0.1-0.4-0.3-0.7-0.5-1.1l0.1-0.1c0.9,0.4,1.5,0.8,1.9,1.2c0.4,0.5,0.6,0.9,0.6,1.2c0,0.3-0.1,0.6-0.2,0.8
			c-0.2,0.2-0.4,0.3-0.7,0.3s-0.4,0-0.5-0.1c-0.1-0.1-0.3-0.4-0.3-1c0-0.2-0.1-0.4-0.1-0.6c-0.4,0.2-0.8,0.4-1.1,0.5v4.6
			c0,1.2,0,2.1,0.1,2.8c0,0.2-0.3,0.3-0.9,0.5c-0.3,0-0.5,0.1-0.6,0.1c-0.3,0-0.5-0.2-0.5-0.5c0-0.7,0.1-1.6,0.1-2.8v-1.3
			c-0.3,0.1-0.4,0.1-0.4,0.2c-0.3,0.8-0.6,1.5-0.9,2.1c-0.3,0.6-0.8,1.1-1.3,1.7l-0.2-0.2c0.2-0.9,0.4-1.6,0.5-2.4
			c0.1-0.8,0.2-1.7,0.3-2.8c0.6,0.2,1.2,0.3,1.8,0.5c0.1,0,0.2,0.1,0.3,0.1v-1.8c-0.4,0.1-0.8,0.2-1.2,0.3c-0.2,0-0.3,0.1-0.3,0.2
			c0,0.1-0.1,0.1-0.1,0.3c0,0.2-0.1,0.2-0.2,0.2c-0.3,0-0.5-0.4-0.9-1.3c-0.1-0.2-0.3-0.6-0.5-1.2c0.7,0,1.5,0,2.2,0
			c1.2-1.6,2.2-3.3,2.9-5C137,40.2,137.6,40.4,138.1,40.6z M136,37.7c0.5,0.2,0.8,0.4,0.8,0.7c0,0.1-0.1,0.2-0.4,0.2
			c-0.3,0-0.4,0.1-0.5,0.1c-0.6,0.8-1.4,1.6-2.2,2.3c0.1,0.1,0.3,0.2,0.4,0.2c0.4,0.3,0.6,0.7,0.6,1.2c0,0.3-0.1,0.5-0.3,0.8
			c-0.2,0.2-0.4,0.2-0.6,0.2c-0.3,0-0.5-0.3-0.8-0.8c-0.3-0.7-0.8-1.4-1.5-2.1l0.1-0.2c0.6,0.2,1.1,0.3,1.5,0.5
			c0.5-1.2,0.8-2.4,1.1-3.7C134.8,37.3,135.4,37.5,136,37.7z M138.7,49.3c0.4,0.6,0.6,1.1,0.6,1.6c0,0.4-0.1,0.7-0.3,0.9
			c-0.2,0.2-0.5,0.3-0.8,0.3c-0.3,0-0.4-0.1-0.5-0.2c-0.1-0.1-0.3-0.5-0.3-1.2c-0.1-0.9-0.3-1.8-0.8-2.7l0.2-0.2
			C137.8,48.3,138.4,48.9,138.7,49.3z M142,37.8c0.6,0.2,0.9,0.4,0.9,0.5c0,0.2-0.2,0.3-0.5,0.4c-0.3,0.1-0.5,0.1-0.5,0.2
			c-0.2,0.7-0.4,1.3-0.7,1.8h3.6c0.2-0.3,0.4-0.5,0.5-0.6c0.3-0.3,0.5-0.4,0.6-0.4c0.2,0,0.7,0.2,1.3,0.7c0.5,0.4,0.8,0.7,0.8,0.9
			c0,0.1-0.1,0.2-0.3,0.4c-0.2,0.2-0.4,0.4-0.4,0.5c-0.1,1.7-0.2,3.7-0.5,6.1c-0.2,1.9-0.5,3.2-0.9,3.8c-0.3,0.5-0.7,0.9-1.1,1.1
			c-0.5,0.3-0.9,0.5-1.2,0.5c-0.1,0-0.3-0.2-0.4-0.7c-0.2-0.5-1-1.1-2.4-1.6L141,51c1.1,0.1,1.8,0.2,2.3,0.2c0.4,0,0.7-0.1,0.9-0.5
			c0.2-0.4,0.3-1.5,0.5-3.4c0.2-2.2,0.4-4.2,0.4-6.1H141c-0.1,0.3-0.3,0.5-0.4,0.8c-0.5,0.8-1.1,1.6-1.9,2.5l-0.3-0.3
			c0.5-1.1,0.9-2.2,1.1-3.2c0.3-1,0.5-2.3,0.7-3.7C140.8,37.5,141.4,37.6,142,37.8z M142.8,44.9c0.7,0.5,1,1,1,1.4
			c0,0.5-0.2,0.9-0.5,1.2c-0.2,0.2-0.5,0.3-0.8,0.3c-0.3,0-0.5-0.1-0.7-0.2c-0.2-0.1-0.3-0.5-0.5-1c-0.2-0.8-0.6-1.7-1.4-2.7
			l0.2-0.1C141.3,44.1,142.2,44.5,142.8,44.9z"/>
		<path class="st0" d="M157.5,37.7c0.6,0.2,0.9,0.4,0.9,0.5c0,0.2-0.2,0.3-0.5,0.4c-0.3,0.1-0.5,0.1-0.5,0.2c-0.3,1-0.6,1.9-0.9,2.7
			c0.1,0.1,0.3,0.1,0.4,0.1c0.3,0.1,0.5,0.2,0.5,0.3c0,0.2-0.1,0.3-0.3,0.4c-0.1,0.1-0.2,0.2-0.2,0.4v10.5c0,0.2-0.3,0.3-0.8,0.5
			c-0.3,0-0.4,0.1-0.5,0.1c-0.4,0-0.6-0.2-0.6-0.5c0.1-1.2,0.1-2.4,0.1-3.6v-5.4c-0.4,0.7-1,1.4-1.5,2.1l-0.3-0.3
			c0.6-1.5,1.1-2.8,1.4-4.1c0.3-1.3,0.6-2.9,0.9-4.8C156.3,37.3,156.9,37.5,157.5,37.7z M161.1,38.2h5.7c0,0,0.2-0.2,0.5-0.6
			c0.4-0.5,0.6-0.7,0.7-0.7c0.2,0,0.5,0.2,0.9,0.7c0.4,0.5,0.6,0.8,0.6,0.9c0,0.2-0.1,0.3-0.3,0.3h-4.5c-0.4,0.4-1,0.8-1.5,1.2h2.4
			c0.2-0.2,0.4-0.3,0.5-0.5c0.2-0.2,0.4-0.3,0.5-0.3c0.2,0,0.5,0.2,1,0.5c0.5,0.4,0.8,0.6,0.8,0.7c0,0.2-0.1,0.4-0.3,0.5
			c-0.2,0.1-0.3,0.3-0.3,0.5v2.5c0.1-0.1,0.1-0.1,0.2-0.2c0.2-0.2,0.4-0.4,0.5-0.4c0.1,0,0.5,0.3,0.9,0.8c0.5,0.5,0.8,0.9,0.8,1.1
			c0,0.1-0.2,0.2-0.5,0.2c-0.4,0-0.6,0.1-0.8,0.1l-0.7,0.2c0.1,0,0.1,0.1,0.2,0.1c0.5,0.3,0.8,0.6,0.8,0.9c0,0.4-0.1,0.6-0.4,0.9
			c-0.1,0.1-0.3,0.2-0.5,0.2c-0.2,0-0.3-0.1-0.5-0.2c-0.1-0.1-0.2-0.3-0.3-0.7c-0.1-0.5-0.4-1.1-0.9-1.8l0.1-0.1
			c0.3,0.1,0.6,0.2,0.8,0.3l0.5-0.8h-8.9c0,0.3,0,0.6-0.1,0.8c-0.1,0.4-0.2,0.7-0.3,0.8c-0.1,0.1-0.2,0.1-0.3,0.1
			c-0.4,0-0.7-0.1-1-0.3c-0.2-0.2-0.3-0.4-0.3-0.8c0-0.1,0.1-0.3,0.4-0.4c0.3-0.2,0.6-0.3,0.8-0.6c0.2-0.2,0.3-0.5,0.5-0.9l0.3,0.1
			v0.7h0.4v-1.8c0-1.4-0.1-2.4-0.2-3.1c0.6,0.1,1.3,0.4,2.1,0.7h1c0.1-0.3,0.2-0.7,0.2-1.2h-1.5c-1,0-1.8,0-2.2,0.1l-0.3-0.7
			C159.2,38.2,160,38.2,161.1,38.2z M162.3,45c0.6,0.1,0.9,0.2,0.9,0.3c0,0.2-0.1,0.3-0.4,0.4c-0.2,0.1-0.3,0.2-0.3,0.4v0.1
			c0,0.3,0.1,0.5,0.2,0.5c0.3,0.1,0.8,0.1,1.4,0.1c0.4,0,0.7,0,1-0.1c0.2,0,0.3-0.1,0.4-0.2c0.1-0.1,0.1-0.2,0.2-0.4
			c0.1-0.2,0.2-0.5,0.3-0.9l0.3,0.1c0,0.4,0,0.7,0,0.8c0,0.3,0.1,0.5,0.3,0.5c0.3,0.1,0.4,0.3,0.4,0.4c0,0.3-0.1,0.5-0.4,0.7
			c-0.2,0.1-0.5,0.2-0.7,0.3c-0.5,0.1-1.1,0.1-1.8,0.1c-0.4,0-0.7,0-1,0c-0.2,0.3-0.4,0.6-0.6,0.8h2.8c0.1-0.1,0.3-0.2,0.5-0.4
			c0.3-0.2,0.5-0.3,0.6-0.3c0.2,0,0.6,0.2,1.1,0.5c0.5,0.4,0.8,0.7,0.8,1c0,0.1-0.2,0.3-0.5,0.3c-0.3,0-0.5,0.1-0.5,0.2
			c-0.4,0.4-0.8,0.8-1.3,1.1c0.1,0,0.2,0,0.3,0.1c1.2,0.2,2.5,0.4,3.9,0.5l-0.1,0.4c-0.4,0.2-0.8,0.5-0.9,0.9
			c-0.1,0.4-0.2,0.6-0.2,0.6c-0.3,0-0.9-0.1-2-0.4c-1-0.3-1.9-0.5-2.6-0.9c0,0-0.1,0-0.1,0c-0.6,0.3-1.3,0.5-2,0.7
			c-1.5,0.3-3.1,0.5-4.7,0.6l-0.1-0.3c1.6-0.3,3-0.6,4.1-1c0.5-0.3,1-0.5,1.4-0.7c-0.2-0.1-0.4-0.3-0.5-0.5
			c-0.4-0.3-0.8-0.7-1.1-1.1c-0.4,0.3-0.8,0.6-1.2,0.8c-0.7,0.4-1.4,0.7-2.1,0.9l-0.1-0.3c0.7-0.4,1.4-1,2-1.6c0.5-0.6,1-1.2,1.4-2
			c-0.1-0.1-0.2-0.2-0.3-0.3c-0.1-0.2-0.1-0.5-0.1-0.9v-0.1c0-0.6-0.1-1.2-0.1-1.7C161.2,44.8,161.7,44.9,162.3,45z M160.3,45.4
			c0,1.1-0.1,1.8-0.2,2.2c-0.1,0.4-0.3,0.7-0.6,0.9c-0.2,0.1-0.4,0.1-0.5,0.1c-0.4,0-0.7-0.1-0.9-0.3c-0.2-0.2-0.3-0.4-0.3-0.8
			c0-0.1,0.2-0.3,0.6-0.5c0.4-0.2,0.7-0.4,1-0.7c0.2-0.2,0.4-0.6,0.6-1L160.3,45.4z M166,41.3v-0.9h-4.7v0.9H166z M166,42.7v-0.9
			h-4.7v0.9H166z M166,44.1v-0.8h-4.7v0.8H166z M163.9,50.9c0.1,0,0.1,0.1,0.2,0.1c0.4-0.3,0.8-0.8,1.3-1.4h-3.3
			c-0.1,0.1-0.2,0.2-0.2,0.2c0,0-0.1,0.1-0.1,0.1C162.5,50.3,163.2,50.7,163.9,50.9z M164.9,45.1c0.3,0.1,0.4,0.3,0.4,0.5
			c0,0.3-0.1,0.5-0.4,0.8c-0.2,0.2-0.4,0.3-0.6,0.3c-0.1,0-0.3-0.1-0.4-0.4c-0.1-0.4-0.4-0.8-0.7-1.2l0.1-0.3
			C164.1,44.8,164.6,45,164.9,45.1z"/>
		<path class="st0" d="M180.9,38.2c0.5,0.2,0.8,0.4,0.8,0.5c0,0.2-0.2,0.3-0.5,0.4c-0.3,0.1-0.5,0.1-0.5,0.2
			c-0.2,0.6-0.5,1.1-0.7,1.5h2.9v-2.1c0-0.5-0.1-1-0.1-1.6c0.8,0.1,1.6,0.2,2.3,0.3c0.5,0,0.7,0.1,0.7,0.3c0,0.1-0.1,0.2-0.4,0.3
			c-0.3,0.1-0.4,0.3-0.4,0.5v2.2h1.6c0,0,0.2-0.2,0.6-0.7c0.5-0.6,0.9-1,1-1c0.1,0,0.6,0.3,1.4,1c0.5,0.4,0.7,0.7,0.7,0.8
			c0,0.2-0.1,0.3-0.4,0.3h-4.9v3.9h3.4c0,0,0.3-0.3,0.7-0.8c0.5-0.6,0.8-0.9,0.9-0.9c0.3,0,0.6,0.3,1.2,0.9c0.5,0.6,0.8,1,0.8,1.1
			c0,0.2-0.1,0.3-0.4,0.3h-4.6v4.6c0,0.5,0.1,0.9,0.2,1c0.2,0.1,0.6,0.1,1.4,0.1c0.5,0,0.8-0.1,1-0.2c0.3,0,0.5-0.3,0.5-0.9l0.6-2.2
			l0.4,0.1c0.1,1.5,0.1,2.3,0.1,2.3c0,0.3,0.1,0.5,0.3,0.6c0.3,0.2,0.4,0.4,0.4,0.6c0,0.4-0.1,0.8-0.4,1c-0.3,0.2-0.8,0.4-1.4,0.4
			c-0.4,0.1-1,0.2-1.8,0.2c-1.2,0-2,0-2.5-0.1c-0.4-0.1-0.7-0.3-0.8-0.4c-0.3-0.3-0.5-0.8-0.5-1.7v-5.4H183
			c-0.2,1.4-0.5,2.5-0.8,3.4c-0.4,1-0.8,1.8-1.3,2.3c-0.4,0.5-1,0.9-1.8,1.3c-0.8,0.5-1.9,0.8-3.2,1l-0.1-0.4
			c0.9-0.4,1.6-0.8,2.1-1.2c0.4-0.3,0.9-0.8,1.4-1.4c0.3-0.5,0.6-1.1,0.9-2c0.3-0.9,0.5-2,0.6-3.2h-2.8c-1,0-1.8,0-2.2,0.1l-0.3-0.7
			c0.6,0.1,1.4,0.1,2.5,0.1h5v-3.9h-3.2c-0.2,0.3-0.3,0.5-0.5,0.7c-0.5,0.7-1.3,1.4-2.2,2.2l-0.3-0.3c0.6-1,1.1-2,1.5-2.9
			c0.3-0.9,0.6-2,0.9-3.3C179.8,37.9,180.3,38.1,180.9,38.2z"/>
		<path class="st0" d="M206.7,37.4c0.5,0,0.7,0.1,0.7,0.3c0,0.1-0.1,0.2-0.4,0.3c-0.3,0.1-0.5,0.3-0.5,0.5v1.6h1.4
			c0.2-0.3,0.4-0.7,0.6-1.1c0.3-0.5,0.5-1.2,0.7-1.8c0.6,0.4,1.1,0.7,1.6,1c0.5,0.3,0.7,0.6,0.7,0.7c0,0.1-0.1,0.2-0.3,0.2l-1-0.1
			c-0.4,0.4-1,0.7-1.6,1.1h2.2c0.2-0.2,0.4-0.4,0.6-0.5c0.3-0.3,0.4-0.4,0.6-0.4c0.2,0,0.6,0.3,1.2,0.8c0.6,0.5,0.9,0.8,0.9,1
			c0,0.2-0.2,0.3-0.5,0.3c-0.3,0-0.5,0-0.6,0.1c-0.7,0.3-1.5,0.7-2.4,1l-0.1-0.1c-0.1,0.1-0.1,0.2-0.3,0.3c-0.2,0.1-0.3,0.2-0.3,0.3
			v1.1c0,0.2-0.3,0.4-0.9,0.5c-0.3,0-0.5,0.1-0.6,0.1c-0.3,0-0.5-0.1-0.5-0.4h-5c-0.1,0.2-0.3,0.3-0.9,0.4c-0.3,0.1-0.4,0.1-0.5,0.1
			c-0.4,0-0.6-0.2-0.6-0.5c0-0.3,0.1-0.7,0.1-1.1v-0.5c0-0.4-0.1-0.9-0.1-1.5c0.7,0.2,1.4,0.4,2.1,0.7h4.6c0.2-0.2,0.4-0.4,0.5-0.6
			c0.1-0.1,0.3-0.2,0.5-0.2c0.2,0,0.5,0.2,1,0.5c0.4,0.3,0.7,0.5,0.8,0.6c0.2-0.5,0.4-1,0.6-1.4H200c0,0.6-0.1,1-0.1,1.3
			c-0.1,0.5-0.3,0.9-0.5,1.1c-0.1,0.1-0.3,0.2-0.5,0.2c-0.4,0-0.8-0.1-1.1-0.4c-0.3-0.2-0.4-0.5-0.4-0.9c0-0.2,0.2-0.4,0.6-0.6
			c0.4-0.3,0.7-0.5,1-0.9c0.2-0.3,0.4-0.8,0.6-1.4l0.4,0.1c0,0.4,0,0.7,0,1h1.9c-0.1-0.1-0.2-0.3-0.3-0.5c-0.2-0.6-0.5-1.2-0.9-1.8
			l0.2-0.4c1,0.2,1.6,0.4,2,0.7c0.3,0.2,0.5,0.5,0.5,0.8c0,0.4-0.2,0.7-0.5,1c-0.1,0.1-0.2,0.2-0.3,0.2h1.9v-1.5
			c0-0.5-0.1-1-0.1-1.6C205.2,37.2,206,37.3,206.7,37.4z M202.6,45.4h6.2c0.2-0.2,0.4-0.3,0.6-0.5c0.3-0.2,0.4-0.3,0.6-0.3
			c0.2,0,0.6,0.2,1.1,0.5c0.6,0.5,0.9,0.8,0.9,1c0,0.2-0.1,0.3-0.4,0.5c-0.2,0.2-0.3,0.4-0.3,0.6l0.1,3.7c0,0.2-0.3,0.4-1,0.5
			c-0.3,0-0.5,0.1-0.6,0.1c-0.3,0-0.5-0.1-0.5-0.4h-7.1v0.1c0.7,0.3,1.2,0.6,1.6,0.8c0.5,0.3,0.8,0.5,0.8,0.8c0,0.2-0.2,0.3-0.5,0.3
			l-0.6-0.1c-1,0.3-1.9,0.5-2.7,0.6c-0.9,0.1-1.9,0.2-3,0.3l-0.1-0.4c1-0.3,1.8-0.6,2.5-0.9c0.4-0.2,0.9-0.5,1.3-0.8
			c-0.1,0-0.2,0.1-0.2,0.1c-0.3,0-0.5,0.1-0.6,0.1c-0.4,0-0.6-0.2-0.6-0.6c0-0.6,0.1-1.3,0.1-1.9v-2.2c0-0.9-0.1-1.8-0.1-2.6
			C200.8,44.7,201.6,45,202.6,45.4z M209.1,46.9v-1.1h-7.1v1.1H209.1z M209.1,48.7v-1.2h-7.1v1.2H209.1z M209.1,50.4v-1.3h-7.1v1.3
			H209.1z M208.1,43.7v-1.4h-5v1.4H208.1z M210.4,51.6c0.8,0.1,1.4,0.3,1.8,0.5c0.3,0.2,0.5,0.5,0.5,0.8s-0.1,0.6-0.2,0.8
			c-0.2,0.1-0.5,0.2-0.8,0.2c-0.3,0-0.9-0.3-1.6-0.8c-0.8-0.5-1.9-1-3.5-1.4l0.1-0.3C208.3,51.4,209.5,51.5,210.4,51.6z"/>
		<path class="st0" d="M234.4,37.7c0.6,0.4,0.9,0.7,0.9,0.9c0,0.1-0.1,0.3-0.4,0.4c-0.2,0.1-0.4,0.3-0.4,0.4v1.9
			c0,0.2-0.3,0.4-0.9,0.4c-0.3,0-0.5,0.1-0.6,0.1c-0.3,0-0.4-0.1-0.5-0.3h-9.8v2.1c0,1.7-0.1,3.2-0.2,4.5c-0.2,1.2-0.6,2.3-1.1,3.2
			c-0.4,0.8-1,1.6-1.8,2.4l-0.4-0.1c0.5-1.3,0.8-2.5,1-3.7c0.2-1.4,0.3-3.5,0.3-6.3c0-3-0.1-5.1-0.2-6.4c1.1,0.3,1.9,0.6,2.5,0.9
			h9.2c0.2-0.3,0.4-0.5,0.6-0.7c0.2-0.2,0.3-0.3,0.5-0.3C233.5,37.1,233.8,37.3,234.4,37.7z M225.7,49.6h1.8v-0.1
			c0-0.5-0.1-1-0.1-1.6c0.8,0.1,1.6,0.2,2.3,0.3c0.5,0,0.7,0.1,0.7,0.3c0,0.1-0.1,0.2-0.4,0.3c-0.3,0.1-0.5,0.3-0.5,0.5v0.2h2
			c0,0,0.2-0.3,0.6-0.7c0.4-0.5,0.7-0.8,0.8-0.8c0.2,0,0.6,0.3,1,0.8c0.5,0.5,0.7,0.8,0.7,0.9c0,0.2-0.1,0.3-0.3,0.3h-4.8v2.5h3.3
			c0,0,0.2-0.3,0.6-0.7c0.4-0.5,0.7-0.8,0.8-0.8c0.2,0,0.6,0.3,1.1,0.8c0.5,0.5,0.8,0.9,0.8,1c0,0.2-0.1,0.3-0.4,0.3h-11.5
			c-1,0-1.8,0-2.2,0.1l-0.3-0.7c0.6,0.1,1.4,0.1,2.5,0.1h3.4v-2.5h-1.8c-1,0-1.8,0-2.2,0.1l-0.3-0.7
			C223.7,49.5,224.6,49.6,225.7,49.6z M222.7,41h9.8v-2.3h-9.8V41z M225.6,43.2h7.2c0,0,0.2-0.2,0.6-0.6c0.4-0.5,0.6-0.7,0.7-0.7
			c0.2,0,0.5,0.2,1,0.7s0.7,0.8,0.7,0.9c0,0.2-0.1,0.3-0.3,0.3h-6.6c-0.7,1-1.4,1.8-2,2.5c1.8-0.1,3.5-0.2,5.2-0.4
			c-0.3-0.5-0.7-1-1.2-1.5l0.1-0.3c1.4,0.4,2.3,0.8,2.9,1.3c0.5,0.4,0.7,0.9,0.7,1.5c0,0.3-0.1,0.6-0.4,0.9
			c-0.2,0.2-0.4,0.3-0.7,0.3c-0.3,0-0.6-0.3-0.9-1c-0.1-0.2-0.2-0.5-0.3-0.7c-2.2,0.8-4.5,1.5-6.9,1.9c-0.3,0-0.4,0.1-0.4,0.2
			c0,0.1,0,0.1-0.1,0.3c0,0.2-0.1,0.2-0.1,0.2c-0.3,0-0.5-0.4-0.9-1.3c-0.1-0.2-0.3-0.6-0.5-1.2c0.8,0,1.5-0.1,2.2-0.1
			c0.3-0.7,0.6-1.6,0.9-2.5h-0.8c-1,0-1.8,0-2.2,0.1l-0.3-0.7C223.7,43.2,224.5,43.2,225.6,43.2z"/>
	</g>
</g>
</svg>
