<svg xmlns="http://www.w3.org/2000/svg" xmlns:xlink="http://www.w3.org/1999/xlink" width="376.343" height="327.733" viewBox="0 0 376.343 327.733"><defs><style>.a{fill:none;}.b{clip-path:url(#a);}.c{clip-path:url(#b);}.d{fill:#fff;font-size:9.541px;font-family:NotoSansTC-Regular, Noto Sans TC;}.e{clip-path:url(#c);}.f{clip-path:url(#d);}.g{clip-path:url(#e);}.h{clip-path:url(#f);}.i{clip-path:url(#g);}.j{clip-path:url(#h);}.k{clip-path:url(#i);}.l{clip-path:url(#j);}.m{clip-path:url(#k);}.n{clip-path:url(#l);}</style><clipPath id="a"><path class="a" d="M794.762,1993.027H722.019l-36.371,63,36.371,63h72.743l36.371-63Z"/></clipPath><clipPath id="b"><rect class="a" width="145.948" height="218.812" transform="matrix(0.223, -0.975, 0.975, 0.223, 655.14, 2102.639)"/></clipPath><clipPath id="c"><path class="a" d="M678.9,2060.221H606.162l-36.371,63,36.371,63H678.9l36.371-63Z"/></clipPath><clipPath id="d"><rect class="a" width="194.574" height="129.774" transform="translate(543.1 2057.716)"/></clipPath><clipPath id="e"><path class="a" d="M794.629,1858.482H721.886l-36.371,63,36.371,63h72.743l36.371-63Z"/></clipPath><clipPath id="f"><rect class="a" width="196.917" height="131.421" transform="translate(651.815 1854.695)"/></clipPath><clipPath id="g"><path class="a" d="M678.9,1925.677H606.162l-36.371,63,36.371,63H678.9l36.371-63Z"/></clipPath><clipPath id="h"><rect class="a" width="199.012" height="133.043" transform="translate(558.965 1923.294)"/></clipPath><clipPath id="i"><path class="a" d="M563.9,1993.677H491.162l-36.371,63,36.371,63H563.9l36.371-63Z"/></clipPath><clipPath id="j"><rect class="a" width="264.842" height="176.664" transform="translate(440.121 1945)"/></clipPath><clipPath id="k"><path class="a" d="M564.114,1858.482H491.371l-36.371,63,36.371,63h72.743l36.371-63Z"/></clipPath><clipPath id="l"><rect class="a" width="201.098" height="134.211" transform="translate(455.902 1854.789)"/></clipPath></defs><g transform="translate(247.809 -1846.482)"><g transform="translate(-702.599 -12)"><g class="b"><g class="c"><image width="218.812" height="145.948" transform="matrix(0.975, 0.223, -0.223, 0.975, 687.691, 1960.367)" xlink:href="Group%20566-image.png"/></g></g></g><text class="d" transform="translate(25.061 1992.17)"><tspan x="0" y="0">華平公園</tspan></text><g transform="translate(-702.599 -12)"><g class="e"><g class="f"><image width="194.574" height="129.774" transform="translate(543.1 2057.716)" xlink:href="Group%20566-image2.png"/></g></g></g><text class="d" transform="translate(-90.797 2059.365)"><tspan x="0" y="0">安平國小</tspan></text><g transform="translate(-702.599 -12)"><g class="g"><g class="h"><image width="196.917" height="131.421" transform="translate(651.815 1854.695)" xlink:href="Group%20566-image3.png"/></g></g></g><text class="d" transform="translate(24.928 1857.626)"><tspan x="0" y="0">台南市政府</tspan></text><g transform="translate(-702.599 -12)"><g class="i"><g class="j"><image width="199.012" height="133.043" transform="translate(558.965 1923.294)" xlink:href="Group%20566-image4.png"/></g></g></g><text class="d" transform="translate(-90.797 1924.82)"><tspan x="0" y="0">新光商圈</tspan></text><g transform="translate(-702.599 -12)"><g class="k"><g class="l"><image width="264.842" height="176.664" transform="translate(440.121 1945)" xlink:href="Group%20566-image5.png"/></g></g></g><text class="d" transform="translate(-205.797 1992.82)"><tspan x="0" y="0">金城國中</tspan></text><g transform="translate(-702.599 -12)"><g class="m"><g class="n"><image width="201.098" height="134.211" transform="translate(455.902 1854.789)" xlink:href="Group%20566-image6.png"/></g></g></g><text class="d" transform="translate(-205.587 1857.626)"><tspan x="0" y="0">市府商圈</tspan></text></g></svg>