<?xml version="1.0" encoding="UTF-8"?>
<svg id="_圖層_2" data-name="圖層_2" xmlns="http://www.w3.org/2000/svg" viewBox="0 0 216.06 39.79">
  <defs>
    <style>
      .cls-1 {
        fill: #c30d23;
      }

      .cls-2 {
        fill: none;
        stroke: #c30d23;
        stroke-miterlimit: 10;
        stroke-width: 3.15px;
      }
    </style>
  </defs>
  <g id="_圖層_1-2" data-name="圖層_1">
    <line class="cls-2" x1=".18" y1="38.21" x2="216.06" y2="38.21"/>
    <g>
      <path class="cls-1" d="M13.48,17.73c-.46-2.19-1.74-3.28-3.81-3.28-2.94,0-4.65,2.32-4.65,6.29s1.78,6.32,4.77,6.32c1.33,0,2.46-.55,3.16-1.52.41-.58.58-1.06.72-2.07l5.02.75c-.46,2.05-.99,3.23-2,4.41-1.5,1.71-3.83,2.63-6.75,2.63s-5.43-.92-7.14-2.65c-1.78-1.81-2.8-4.63-2.8-7.86s1.01-6.05,2.92-7.93c1.66-1.62,4.1-2.51,6.92-2.51,3.11,0,5.55,1.06,7.11,3.16.77.99,1.18,1.88,1.5,3.3l-4.97.96Z"/>
      <path class="cls-1" d="M40.8,20.67c0,6.37-3.88,10.59-9.74,10.59s-9.72-4.12-9.72-10.51,3.81-10.44,9.74-10.44,9.72,4.05,9.72,10.37ZM35.79,20.72c0-3.91-1.78-6.27-4.7-6.27s-4.75,2.39-4.75,6.27,1.81,6.37,4.75,6.37,4.7-2.41,4.7-6.37Z"/>
      <path class="cls-1" d="M52.96,30.8c-.12-.84-.39-1.74-1.04-3.57l-2.22-6.41c-.02-.12-.75-2.36-.82-2.56q-.27-.87-.39-1.21c.14,1.52.24,3.5.24,4.77v5.23c0,1.66.05,2.73.19,3.74h-4.75c.14-1.09.19-2.1.19-3.74v-12.56c0-1.45-.07-2.73-.19-3.76h6.37c.17,1.04.36,1.81.92,3.4l3.62,10.39,3.59-10.39c.55-1.62.75-2.39.89-3.4h6.39c-.14,1.16-.19,2.15-.19,3.76v12.56c0,1.83.05,2.77.19,3.74h-4.75c.14-1.11.19-2.03.19-3.74v-5.26c0-.58.07-2.39.12-3.14q.07-1.28.1-1.64c-.53,1.88-.77,2.75-1.09,3.62l-2.34,6.61c-.6,1.71-.92,2.77-1.04,3.55h-4.2Z"/>
      <path class="cls-1" d="M75.24,10.73c-.14.99-.19,1.81-.19,3.57v12.93c0,1.66.05,2.56.19,3.57h-5.31c.14-.94.19-1.95.19-3.57v-12.93c0-1.81-.05-2.51-.19-3.57h5.31Z"/>
      <path class="cls-1" d="M90.73,20.6c.7,1.04,1.16,1.81,1.74,2.87-.1-1.11-.14-2.22-.14-3.57v-5.5c0-1.59-.05-2.56-.19-3.67h5.14c-.14,1.09-.19,2.1-.19,3.67v12.81c0,1.47.07,2.58.19,3.59h-5.28c-.43-.92-.99-1.81-1.81-3.06l-4.46-6.73c-.65-.96-1.06-1.69-1.74-2.97.12,1.09.17,2.41.17,3.59v5.4c0,1.66.05,2.73.19,3.76h-5.14c.14-.94.19-2,.19-3.79v-12.69c0-1.4-.05-2.48-.19-3.59h5.23c.24.65.77,1.62,1.71,3.01l4.58,6.85Z"/>
      <path class="cls-1" d="M112.94,23.47c-1.23,0-1.64.02-2.39.12v-4.27c.89.12,1.47.14,3.16.14h1.93c1.23,0,2.12-.02,3.18-.12-.12.92-.17,1.71-.17,3.28v2.7c0,1.71.02,2.48.17,3.59-1.33.84-1.98,1.16-3.06,1.52-1.57.53-3.33.82-5.11.82-3.06,0-5.45-.84-7.16-2.58-1.83-1.83-2.85-4.7-2.85-8.01,0-6.34,3.83-10.37,9.91-10.37,3.01,0,5.31.94,6.9,2.87.65.75,1.04,1.47,1.42,2.63l-4.92,1.13c-.27-.87-.55-1.33-1.09-1.74-.63-.51-1.42-.75-2.44-.75-3.09,0-4.77,2.24-4.77,6.29,0,2.24.51,3.98,1.47,5.04.77.84,1.95,1.3,3.47,1.3,1.28,0,2.32-.27,3.5-.87v-2.75h-1.16Z"/>
      <path class="cls-1" d="M135.9,24.26c.1.87.27,1.3.63,1.78.58.72,1.59,1.13,2.82,1.13,1.86,0,2.97-.82,2.97-2.17,0-.75-.39-1.4-1.01-1.69-.51-.24-1.11-.41-3.62-.99-2.22-.48-2.99-.77-3.88-1.4-1.52-1.06-2.34-2.68-2.34-4.63,0-3.71,2.99-6.05,7.74-6.05,3.06,0,5.4.94,6.7,2.75.6.8.89,1.52,1.21,2.89l-5.11.55c-.29-1.57-1.16-2.22-2.99-2.22-1.47,0-2.56.8-2.56,1.91,0,.68.36,1.18,1.13,1.54q.48.22,3.33.8c1.83.39,2.99.8,3.91,1.37,1.74,1.09,2.6,2.7,2.6,4.92,0,1.81-.58,3.35-1.69,4.44-1.4,1.35-3.52,2.05-6.34,2.05-2.05,0-4.08-.43-5.38-1.18-1.21-.68-2.1-1.71-2.6-3.09-.24-.58-.36-1.13-.53-2.24l5.02-.48Z"/>
      <path class="cls-1" d="M169.73,20.67c0,6.37-3.88,10.59-9.74,10.59s-9.72-4.12-9.72-10.51,3.81-10.44,9.74-10.44,9.72,4.05,9.72,10.37ZM164.71,20.72c0-3.91-1.78-6.27-4.7-6.27s-4.75,2.39-4.75,6.27,1.81,6.37,4.75,6.37,4.7-2.41,4.7-6.37Z"/>
      <path class="cls-1" d="M191.97,20.67c0,6.37-3.88,10.59-9.74,10.59s-9.72-4.12-9.72-10.51,3.81-10.44,9.74-10.44,9.72,4.05,9.72,10.37ZM186.95,20.72c0-3.91-1.78-6.27-4.7-6.27s-4.75,2.39-4.75,6.27,1.81,6.37,4.75,6.37,4.7-2.41,4.7-6.37Z"/>
      <path class="cls-1" d="M206.87,20.6c.7,1.04,1.16,1.81,1.74,2.87-.1-1.11-.14-2.22-.14-3.57v-5.5c0-1.59-.05-2.56-.19-3.67h5.14c-.14,1.09-.19,2.1-.19,3.67v12.81c0,1.47.07,2.58.19,3.59h-5.28c-.43-.92-.99-1.81-1.81-3.06l-4.46-6.73c-.65-.96-1.06-1.69-1.74-2.97.12,1.09.17,2.41.17,3.59v5.4c0,1.66.05,2.73.19,3.76h-5.14c.14-.94.19-2,.19-3.79v-12.69c0-1.4-.05-2.48-.19-3.59h5.23c.24.65.77,1.62,1.71,3.01l4.58,6.85Z"/>
    </g>
    <line class="cls-2" x1=".18" y1="1.57" x2="216.06" y2="1.57"/>
  </g>
</svg>