<?xml version="1.0" encoding="UTF-8"?>
<svg id="_圖層_2" data-name="圖層_2" xmlns="http://www.w3.org/2000/svg" viewBox="0 0 404.26 71.53">
  <defs>
    <style>
      .cls-1 {
        fill: #c30d23;
      }

      .cls-2 {
        fill: none;
        stroke: #c30d23;
        stroke-miterlimit: 10;
        stroke-width: 3px;
      }
    </style>
  </defs>
  <g id="_圖層_1-2" data-name="圖層_1">
    <g>
      <g>
        <path class="cls-1" d="M25.22,31.71c-.86-4.1-3.25-6.13-7.13-6.13-5.5,0-8.71,4.33-8.71,11.77s3.34,11.82,8.93,11.82c2.48,0,4.6-1.04,5.91-2.84.77-1.08,1.08-1.98,1.35-3.88l9.38,1.4c-.86,3.83-1.85,6.04-3.74,8.25-2.8,3.2-7.17,4.92-12.63,4.92s-10.15-1.71-13.35-4.96c-3.34-3.38-5.23-8.66-5.23-14.71s1.89-11.32,5.46-14.84c3.11-3.02,7.67-4.69,12.95-4.69,5.82,0,10.38,1.98,13.31,5.91,1.44,1.85,2.21,3.52,2.8,6.18l-9.29,1.8Z"/>
        <path class="cls-1" d="M76.32,37.22c0,11.91-7.26,19.8-18.22,19.8s-18.18-7.71-18.18-19.67,7.13-19.53,18.22-19.53,18.18,7.58,18.18,19.4ZM66.94,37.31c0-7.31-3.34-11.73-8.8-11.73s-8.89,4.47-8.89,11.73,3.38,11.91,8.89,11.91,8.8-4.51,8.8-11.91Z"/>
        <path class="cls-1" d="M99.06,56.16c-.23-1.58-.72-3.25-1.94-6.68l-4.15-12c-.05-.23-1.4-4.42-1.53-4.78q-.5-1.62-.72-2.26c.27,2.84.45,6.54.45,8.93v9.79c0,3.11.09,5.1.36,6.99h-8.89c.27-2.03.36-3.92.36-6.99v-23.5c0-2.71-.14-5.1-.36-7.04h11.91c.32,1.94.68,3.38,1.71,6.36l6.77,19.44,6.72-19.44c1.04-3.02,1.4-4.47,1.67-6.36h11.95c-.27,2.17-.36,4.01-.36,7.04v23.5c0,3.43.09,5.19.36,6.99h-8.89c.27-2.07.36-3.79.36-6.99v-9.83c0-1.08.14-4.47.23-5.86q.14-2.39.18-3.07c-.99,3.52-1.44,5.14-2.03,6.77l-4.38,12.36c-1.13,3.2-1.71,5.19-1.94,6.63h-7.85Z"/>
        <path class="cls-1" d="M140.74,18.63c-.27,1.85-.36,3.38-.36,6.68v24.18c0,3.11.09,4.78.36,6.68h-9.92c.27-1.76.36-3.65.36-6.68v-24.18c0-3.38-.09-4.69-.36-6.68h9.92Z"/>
        <path class="cls-1" d="M169.7,37.08c1.31,1.94,2.17,3.38,3.25,5.37-.18-2.07-.27-4.15-.27-6.68v-10.28c0-2.98-.09-4.78-.36-6.86h9.61c-.27,2.03-.36,3.92-.36,6.86v23.95c0,2.75.14,4.83.36,6.72h-9.88c-.81-1.71-1.85-3.38-3.38-5.73l-8.35-12.59c-1.22-1.8-1.98-3.16-3.25-5.55.23,2.03.32,4.51.32,6.72v10.1c0,3.11.09,5.1.36,7.04h-9.61c.27-1.76.36-3.74.36-7.08v-23.73c0-2.62-.09-4.65-.36-6.72h9.79c.45,1.22,1.44,3.02,3.2,5.64l8.57,12.81Z"/>
        <path class="cls-1" d="M211.24,42.45c-2.3,0-3.07.05-4.47.23v-7.98c1.67.23,2.75.27,5.91.27h3.61c2.3,0,3.97-.05,5.95-.23-.23,1.71-.32,3.2-.32,6.13v5.05c0,3.2.05,4.65.32,6.72-2.48,1.58-3.7,2.17-5.73,2.84-2.93.99-6.23,1.53-9.56,1.53-5.73,0-10.19-1.58-13.4-4.83-3.43-3.43-5.32-8.8-5.32-14.98,0-11.86,7.17-19.4,18.54-19.4,5.64,0,9.92,1.76,12.9,5.37,1.22,1.4,1.94,2.75,2.66,4.92l-9.2,2.12c-.5-1.62-1.04-2.48-2.03-3.25-1.17-.95-2.66-1.4-4.56-1.4-5.77,0-8.93,4.2-8.93,11.77,0,4.2.95,7.44,2.75,9.43,1.44,1.58,3.65,2.44,6.5,2.44,2.39,0,4.33-.5,6.54-1.62v-5.14h-2.17Z"/>
        <path class="cls-1" d="M254.18,43.94c.18,1.62.5,2.44,1.17,3.34,1.08,1.35,2.98,2.12,5.28,2.12,3.47,0,5.55-1.53,5.55-4.06,0-1.4-.72-2.62-1.89-3.16-.95-.45-2.08-.77-6.77-1.85-4.15-.9-5.59-1.44-7.26-2.62-2.84-1.98-4.38-5.01-4.38-8.66,0-6.95,5.59-11.32,14.48-11.32,5.73,0,10.1,1.76,12.54,5.14,1.13,1.49,1.67,2.84,2.26,5.41l-9.56,1.04c-.54-2.93-2.17-4.15-5.59-4.15-2.75,0-4.78,1.49-4.78,3.56,0,1.26.68,2.21,2.12,2.89q.9.41,6.23,1.49c3.43.72,5.59,1.49,7.31,2.57,3.25,2.03,4.87,5.05,4.87,9.2,0,3.38-1.08,6.27-3.16,8.3-2.62,2.53-6.59,3.83-11.86,3.83-3.83,0-7.62-.81-10.06-2.21-2.26-1.26-3.92-3.2-4.87-5.77-.45-1.08-.68-2.12-.99-4.2l9.38-.9Z"/>
        <path class="cls-1" d="M317.47,37.22c0,11.91-7.26,19.8-18.22,19.8s-18.18-7.71-18.18-19.67,7.13-19.53,18.22-19.53,18.18,7.58,18.18,19.4ZM308.09,37.31c0-7.31-3.34-11.73-8.8-11.73s-8.89,4.47-8.89,11.73,3.38,11.91,8.89,11.91,8.8-4.51,8.8-11.91Z"/>
        <path class="cls-1" d="M359.06,37.22c0,11.91-7.26,19.8-18.22,19.8s-18.18-7.71-18.18-19.67,7.13-19.53,18.22-19.53,18.18,7.58,18.18,19.4ZM349.68,37.31c0-7.31-3.34-11.73-8.8-11.73s-8.89,4.47-8.89,11.73,3.38,11.91,8.89,11.91,8.8-4.51,8.8-11.91Z"/>
        <path class="cls-1" d="M386.94,37.08c1.31,1.94,2.17,3.38,3.25,5.37-.18-2.07-.27-4.15-.27-6.68v-10.28c0-2.98-.09-4.78-.36-6.86h9.61c-.27,2.03-.36,3.92-.36,6.86v23.95c0,2.75.14,4.83.36,6.72h-9.88c-.81-1.71-1.85-3.38-3.38-5.73l-8.35-12.59c-1.22-1.8-1.98-3.16-3.25-5.55.23,2.03.32,4.51.32,6.72v10.1c0,3.11.09,5.1.36,7.04h-9.61c.27-1.76.36-3.74.36-7.08v-23.73c0-2.62-.09-4.65-.36-6.72h9.79c.45,1.22,1.44,3.02,3.2,5.64l8.57,12.81Z"/>
      </g>
      <line class="cls-2" x1=".47" y1="70.03" x2="404.26" y2="70.03"/>
      <line class="cls-2" x1=".47" y1="1.5" x2="404.26" y2="1.5"/>
    </g>
  </g>
</svg>