<svg xmlns="http://www.w3.org/2000/svg" xmlns:xlink="http://www.w3.org/1999/xlink" width="218.942" height="60.908" viewBox="0 0 218.942 60.908">
  <defs>
    <linearGradient id="linear-gradient" y1="0.5" x2="1" y2="0.5" gradientUnits="objectBoundingBox">
      <stop offset="0" stop-color="#488726"/>
      <stop offset="1" stop-color="#146a31"/>
    </linearGradient>
  </defs>
  <g id="Group_1264" data-name="Group 1264" transform="translate(-1707 -9689.601)">
    <rect id="Rectangle_488" data-name="Rectangle 488" width="218.942" height="60.909" transform="translate(1707 9689.601)" opacity="0.49" fill="url(#linear-gradient)"/>
    <text id="返回2012" transform="translate(1768.242 9733.51)" fill="#fff" font-size="30.54" font-family="NotoSansHant-Medium, Noto Sans T Chinese" font-weight="500"><tspan x="0" y="0">返回2012</tspan></text>
    <g id="Group_1043" data-name="Group 1043">
      <g id="Group_1042" data-name="Group 1042">
        <g id="Group_1041" data-name="Group 1041">
          <path id="Path_751" data-name="Path 751" d="M1750.991,9709.58a3.747,3.747,0,0,1,1.455,7.2l-12.734,5.36,12.734,5.361a3.746,3.746,0,0,1-2.907,6.905l-20.935-8.814a3.746,3.746,0,0,1,0-6.9l20.935-8.813A3.725,3.725,0,0,1,1750.991,9709.58Z" fill="#fff"/>
        </g>
        <path id="Path_752" data-name="Path 752" d="M1726.312,9722.141a3.746,3.746,0,0,1,2.292-3.452l20.935-8.813a3.746,3.746,0,0,1,2.907,6.905l-12.734,5.36Z" fill="#fff"/>
      </g>
    </g>
  </g>
</svg>
