<svg xmlns="http://www.w3.org/2000/svg" xmlns:xlink="http://www.w3.org/1999/xlink" width="154" height="595" viewBox="0 0 154 595">
  <defs>
    <clipPath id="clip-path">
      <rect id="Rectangle_437" data-name="Rectangle 437" width="154" height="595" transform="translate(1765 8396)" fill="none"/>
    </clipPath>
    <clipPath id="clip-path-2">
      <path id="Path_719" data-name="Path 719" d="M1920.35,8945h-.341M1907.3,8478.9a7.49,7.49,0,0,1,5.472-5.953c0-5.4-2.4-9.739,3.611-9.739,1.212,0,2.42-2.231,3.631-2.231,1.192,0,2.4,2.231,3.611,2.231,6.015,0,3.612,4.342,3.612,9.739a7.5,7.5,0,0,1,5.475,5.953c9.782,0,8.788,2.186,8.788,10.542,0,5.676-3.517,3.5-8.681,3.5v.419a7.448,7.448,0,0,1-3.52,6.31l.389,8.558h16.992v-6.386H1957a8.289,8.289,0,0,1,8.261,8.263v3.3a8.291,8.291,0,0,1-8.261,8.265h-10.327v-6.4h-16.683l.994,21.859h15.689v-6.4H1957a8.288,8.288,0,0,1,8.261,8.262v3.319a8.287,8.287,0,0,1-8.261,8.247h-10.327v-6.4h-15.381l5.1,113.164a121.147,121.147,0,0,1,22.356,5.209c42.173,14.2,36.528,63.382,29.6,83.754-4.9,14.356,11.954,21.723,2.822,26.451,0-.637-2.822-1.581-3.458-1.894a9.9,9.9,0,0,0-4.4-.637c-3.148,0-7.568,1.894-8.188,4.1l-1.27,2.2a11.53,11.53,0,0,0-.558,3.147h-.2c.032,12.278.574,22.109,6.79,31.644,4.449,6.791,18.712,10.883,22.467,3.053,3.348.714,2.6,7.258-.871,11.691-3.085,3.939-2.153,7.131-1.068,12.25,4.186,19.641,17.364,31.007,10.775,58.387-8.171,34.031-53.643,47.629-91.178,48.327-37.538-.7-83.01-14.3-91.2-48.327-6.589-27.38,6.606-38.746,10.776-58.387,1.1-5.119,2.017-8.311-1.068-12.25-3.475-4.434-4.219-10.978-.868-11.691,3.751,7.83,18.015,3.738,22.463-3.053,6.22-9.534,6.775-19.365,6.791-31.644h-.2a10.784,10.784,0,0,0-.559-3.147l-1.253-2.2c-.637-2.2-5.04-4.1-8.187-4.1a9.972,9.972,0,0,0-4.42.637c-.62.313-3.455,1.257-3.455,1.894-9.132-4.729,7.719-12.095,2.835-26.451-6.943-20.372-12.588-69.553,29.6-83.754a120.933,120.933,0,0,1,22.357-5.209l4.715-104.9H1893.34v6.417H1883a8.3,8.3,0,0,1-8.265-8.278v-3.3a8.292,8.292,0,0,1,8.265-8.265h10.34v6.4h15.3l.993-21.862h-16.3v6.4H1883a8.292,8.292,0,0,1-8.265-8.262v-3.3a8.282,8.282,0,0,1,8.265-8.265h10.34v6.4h16.6l.76-16.838a7.456,7.456,0,0,1-3.521-6.31v-.419c-5.16,0-8.664,2.172-8.664-3.5C1898.52,8481.227,1897.637,8478.9,1907.3,8478.9Zm12.7,466.1h-.341" fill="none" stroke="#000" stroke-miterlimit="10" stroke-width="0.75" clip-rule="evenodd"/>
    </clipPath>
  </defs>
  <g id="Group_954" data-name="Group 954" transform="translate(-1765 -8396)">
    <g id="Group_953" data-name="Group 953" clip-path="url(#clip-path)">
      <g id="Group_952" data-name="Group 952">
        <g id="Group_951" data-name="Group 951" clip-path="url(#clip-path-2)">
          <g id="Group_950" data-name="Group 950">
            <g id="Group_944" data-name="Group 944">
              <g id="Group_923" data-name="Group 923">
                <path id="Path_708" data-name="Path 708" d="M1920,9024.078l-301.1-301.1.2-.2L1920,8421.88l301.1,301.1Zm-300.285-301.1L1920,9023.262l300.282-300.281L1920,8422.7Z" fill="none" stroke="#000" stroke-miterlimit="10" stroke-width="0.75"/>
              </g>
              <g id="Group_924" data-name="Group 924">
                <rect id="Rectangle_416" data-name="Rectangle 416" width="0.577" height="425.243" transform="translate(1646.441 8695.847) rotate(-45)" fill="none" stroke="#000" stroke-miterlimit="10" stroke-width="0.75"/>
              </g>
              <g id="Group_925" data-name="Group 925">
                <rect id="Rectangle_417" data-name="Rectangle 417" width="0.577" height="425.243" transform="translate(1673.776 8668.511) rotate(-45)" fill="none" stroke="#000" stroke-miterlimit="10" stroke-width="0.75"/>
              </g>
              <g id="Group_926" data-name="Group 926">
                <rect id="Rectangle_418" data-name="Rectangle 418" width="0.577" height="425.243" transform="translate(1701.112 8641.176) rotate(-45)" fill="none" stroke="#000" stroke-miterlimit="10" stroke-width="0.75"/>
              </g>
              <g id="Group_927" data-name="Group 927">
                <rect id="Rectangle_419" data-name="Rectangle 419" width="0.577" height="425.243" transform="translate(1728.447 8613.84) rotate(-45)" fill="none" stroke="#000" stroke-miterlimit="10" stroke-width="0.75"/>
              </g>
              <g id="Group_928" data-name="Group 928">
                <rect id="Rectangle_420" data-name="Rectangle 420" width="0.577" height="425.243" transform="translate(1755.782 8586.504) rotate(-45)" fill="none" stroke="#000" stroke-miterlimit="10" stroke-width="0.75"/>
              </g>
              <g id="Group_929" data-name="Group 929">
                <rect id="Rectangle_421" data-name="Rectangle 421" width="0.577" height="425.243" transform="translate(1783.118 8559.169) rotate(-45)" fill="none" stroke="#000" stroke-miterlimit="10" stroke-width="0.75"/>
              </g>
              <g id="Group_930" data-name="Group 930">
                <rect id="Rectangle_422" data-name="Rectangle 422" width="0.577" height="425.243" transform="translate(1810.454 8531.834) rotate(-45)" fill="none" stroke="#000" stroke-miterlimit="10" stroke-width="0.75"/>
              </g>
              <g id="Group_931" data-name="Group 931">
                <rect id="Rectangle_423" data-name="Rectangle 423" width="0.577" height="425.243" transform="translate(1837.789 8504.498) rotate(-45)" fill="none" stroke="#000" stroke-miterlimit="10" stroke-width="0.75"/>
              </g>
              <g id="Group_932" data-name="Group 932">
                <rect id="Rectangle_424" data-name="Rectangle 424" width="0.577" height="425.243" transform="translate(1865.124 8477.162) rotate(-45)" fill="none" stroke="#000" stroke-miterlimit="10" stroke-width="0.75"/>
              </g>
              <g id="Group_933" data-name="Group 933">
                <rect id="Rectangle_425" data-name="Rectangle 425" width="0.577" height="425.243" transform="translate(1892.459 8449.827) rotate(-45)" fill="none" stroke="#000" stroke-miterlimit="10" stroke-width="0.75"/>
              </g>
              <g id="Group_934" data-name="Group 934">
                <rect id="Rectangle_426" data-name="Rectangle 426" width="425.24" height="0.577" transform="translate(1892.461 8996.13) rotate(-45)" fill="none" stroke="#000" stroke-miterlimit="10" stroke-width="0.75"/>
              </g>
              <g id="Group_935" data-name="Group 935">
                <rect id="Rectangle_427" data-name="Rectangle 427" width="425.24" height="0.577" transform="translate(1865.126 8968.795) rotate(-45)" fill="none" stroke="#000" stroke-miterlimit="10" stroke-width="0.75"/>
              </g>
              <g id="Group_936" data-name="Group 936">
                <rect id="Rectangle_428" data-name="Rectangle 428" width="425.24" height="0.577" transform="translate(1837.79 8941.459) rotate(-45)" fill="none" stroke="#000" stroke-miterlimit="10" stroke-width="0.75"/>
              </g>
              <g id="Group_937" data-name="Group 937">
                <rect id="Rectangle_429" data-name="Rectangle 429" width="425.24" height="0.577" transform="translate(1810.454 8914.123) rotate(-45)" fill="none" stroke="#000" stroke-miterlimit="10" stroke-width="0.75"/>
              </g>
              <g id="Group_938" data-name="Group 938">
                <rect id="Rectangle_430" data-name="Rectangle 430" width="425.24" height="0.577" transform="translate(1783.119 8886.788) rotate(-45)" fill="none" stroke="#000" stroke-miterlimit="10" stroke-width="0.75"/>
              </g>
              <g id="Group_939" data-name="Group 939">
                <rect id="Rectangle_431" data-name="Rectangle 431" width="425.241" height="0.577" transform="translate(1755.783 8859.452) rotate(-45)" fill="none" stroke="#000" stroke-miterlimit="10" stroke-width="0.75"/>
              </g>
              <g id="Group_940" data-name="Group 940">
                <rect id="Rectangle_432" data-name="Rectangle 432" width="425.24" height="0.577" transform="translate(1728.448 8832.116) rotate(-45)" fill="none" stroke="#000" stroke-miterlimit="10" stroke-width="0.75"/>
              </g>
              <g id="Group_941" data-name="Group 941">
                <rect id="Rectangle_433" data-name="Rectangle 433" width="425.24" height="0.577" transform="translate(1701.112 8804.78) rotate(-45)" fill="none" stroke="#000" stroke-miterlimit="10" stroke-width="0.75"/>
              </g>
              <g id="Group_942" data-name="Group 942">
                <rect id="Rectangle_434" data-name="Rectangle 434" width="425.24" height="0.577" transform="translate(1673.776 8777.445) rotate(-45)" fill="none" stroke="#000" stroke-miterlimit="10" stroke-width="0.75"/>
              </g>
              <g id="Group_943" data-name="Group 943">
                <rect id="Rectangle_435" data-name="Rectangle 435" width="425.24" height="0.577" transform="translate(1646.441 8750.109) rotate(-45)" fill="none" stroke="#000" stroke-miterlimit="10" stroke-width="0.75"/>
              </g>
            </g>
            <g id="Group_945" data-name="Group 945">
              <rect id="Rectangle_436" data-name="Rectangle 436" width="0.577" height="494.972" transform="translate(1919.712 8475.493)" fill="none" stroke="#000" stroke-miterlimit="10" stroke-width="0.75"/>
            </g>
            <g id="Group_949" data-name="Group 949">
              <g id="Group_946" data-name="Group 946">
                <path id="Path_709" data-name="Path 709" d="M1923.655,8640.973a3.655,3.655,0,1,1-3.655-3.654A3.654,3.654,0,0,1,1923.655,8640.973Z" fill="none" stroke="#000" stroke-miterlimit="10" stroke-width="0.75"/>
                <path id="Path_710" data-name="Path 710" d="M1923.655,8695.643a3.656,3.656,0,1,1-3.656-3.655A3.656,3.656,0,0,1,1923.655,8695.643Z" fill="none" stroke="#000" stroke-miterlimit="10" stroke-width="0.75"/>
                <path id="Path_711" data-name="Path 711" d="M1923.656,8750.315a3.656,3.656,0,1,1-3.655-3.656A3.655,3.655,0,0,1,1923.656,8750.315Z" fill="none" stroke="#000" stroke-miterlimit="10" stroke-width="0.75"/>
                <path id="Path_712" data-name="Path 712" d="M1923.655,8804.984a3.655,3.655,0,1,1-3.655-3.655A3.655,3.655,0,0,1,1923.655,8804.984Z" fill="none" stroke="#000" stroke-miterlimit="10" stroke-width="0.75"/>
              </g>
              <g id="Group_947" data-name="Group 947">
                <path id="Path_713" data-name="Path 713" d="M1923.655,8859.654A3.656,3.656,0,1,1,1920,8856,3.656,3.656,0,0,1,1923.655,8859.654Z" fill="none" stroke="#000" stroke-miterlimit="10" stroke-width="0.75"/>
                <path id="Path_714" data-name="Path 714" d="M1923.656,8914.326a3.656,3.656,0,1,1-3.655-3.655A3.655,3.655,0,0,1,1923.656,8914.326Z" fill="none" stroke="#000" stroke-miterlimit="10" stroke-width="0.75"/>
                <path id="Path_715" data-name="Path 715" d="M1923.655,8969a3.655,3.655,0,1,1-3.655-3.655A3.655,3.655,0,0,1,1923.655,8969Z" fill="none" stroke="#000" stroke-miterlimit="10" stroke-width="0.75"/>
              </g>
              <g id="Group_948" data-name="Group 948">
                <path id="Path_716" data-name="Path 716" d="M1923.655,8476.962a3.655,3.655,0,1,1-3.655-3.656A3.655,3.655,0,0,1,1923.655,8476.962Z" fill="none" stroke="#000" stroke-miterlimit="10" stroke-width="0.75"/>
                <path id="Path_717" data-name="Path 717" d="M1923.655,8531.631a3.656,3.656,0,1,1-3.656-3.655A3.656,3.656,0,0,1,1923.655,8531.631Z" fill="none" stroke="#000" stroke-miterlimit="10" stroke-width="0.75"/>
                <path id="Path_718" data-name="Path 718" d="M1923.656,8586.3a3.656,3.656,0,1,1-3.655-3.654A3.654,3.654,0,0,1,1923.656,8586.3Z" fill="none" stroke="#000" stroke-miterlimit="10" stroke-width="0.75"/>
              </g>
            </g>
          </g>
        </g>
        <path id="Path_720" data-name="Path 720" d="M1920.35,8945h-.341M1907.3,8478.9a7.49,7.49,0,0,1,5.472-5.953c0-5.4-2.4-9.739,3.611-9.739,1.212,0,2.42-2.231,3.631-2.231,1.192,0,2.4,2.231,3.611,2.231,6.015,0,3.612,4.342,3.612,9.739a7.5,7.5,0,0,1,5.475,5.953c9.782,0,8.788,2.186,8.788,10.542,0,5.676-3.517,3.5-8.681,3.5v.419a7.448,7.448,0,0,1-3.52,6.31l.389,8.558h16.992v-6.386H1957a8.289,8.289,0,0,1,8.261,8.263v3.3a8.291,8.291,0,0,1-8.261,8.265h-10.327v-6.4h-16.683l.994,21.859h15.689v-6.4H1957a8.288,8.288,0,0,1,8.261,8.262v3.319a8.287,8.287,0,0,1-8.261,8.247h-10.327v-6.4h-15.381l5.1,113.164a121.147,121.147,0,0,1,22.356,5.209c42.173,14.2,36.528,63.382,29.6,83.754-4.9,14.356,11.954,21.723,2.822,26.451,0-.637-2.822-1.581-3.458-1.894a9.9,9.9,0,0,0-4.4-.637c-3.148,0-7.568,1.894-8.188,4.1l-1.27,2.2a11.53,11.53,0,0,0-.558,3.147h-.2c.032,12.278.574,22.109,6.79,31.644,4.449,6.791,18.712,10.883,22.467,3.053,3.348.714,2.6,7.258-.871,11.691-3.085,3.939-2.153,7.131-1.068,12.25,4.186,19.641,17.364,31.007,10.775,58.387-8.171,34.031-53.643,47.629-91.178,48.327-37.538-.7-83.01-14.3-91.2-48.327-6.589-27.38,6.606-38.746,10.776-58.387,1.1-5.119,2.017-8.311-1.068-12.25-3.475-4.434-4.219-10.978-.868-11.691,3.751,7.83,18.015,3.738,22.463-3.053,6.22-9.534,6.775-19.365,6.791-31.644h-.2a10.784,10.784,0,0,0-.559-3.147l-1.253-2.2c-.637-2.2-5.04-4.1-8.187-4.1a9.972,9.972,0,0,0-4.42.637c-.62.313-3.455,1.257-3.455,1.894-9.132-4.729,7.719-12.095,2.835-26.451-6.943-20.372-12.588-69.553,29.6-83.754a120.933,120.933,0,0,1,22.357-5.209l4.715-104.9H1893.34v6.417H1883a8.3,8.3,0,0,1-8.265-8.278v-3.3a8.292,8.292,0,0,1,8.265-8.265h10.34v6.4h15.3l.993-21.862h-16.3v6.4H1883a8.292,8.292,0,0,1-8.265-8.262v-3.3a8.282,8.282,0,0,1,8.265-8.265h10.34v6.4h16.6l.76-16.838a7.456,7.456,0,0,1-3.521-6.31v-.419c-5.16,0-8.664,2.172-8.664-3.5C1898.52,8481.227,1897.637,8478.9,1907.3,8478.9Zm12.7,466.1h-.341" fill="none" stroke="#000" stroke-miterlimit="10" stroke-width="0.75" fill-rule="evenodd"/>
      </g>
    </g>
  </g>
</svg>
