<svg xmlns="http://www.w3.org/2000/svg" width="317" height="179.42" viewBox="0 0 317 179.42">
  <g id="Group_1274" data-name="Group 1274" transform="translate(-30 -5208.186)">
    <g id="Group_1273" data-name="Group 1273">
      <text id="好好蓋房用心看得見" transform="translate(120.802 5260.563)" font-size="20" font-family="NotoSansHant-Bold, Noto Sans T Chinese" font-weight="700"><tspan x="-90" y="0">好好蓋房用心看得見</tspan></text>
      <text id="一棟棟的好作品眼見為憑_用心的每一項細節_都是昆旺建設獨到的價值展現_用最嚴謹的態度蓋好房_以及完工後的永續服務_創造內外兼具的永恆建築_" data-name="一棟棟的好作品眼見為憑，用心的每一項細節，都是昆旺建設獨到的價值展現；用最嚴謹的態度蓋好房，以及完工後的永續服務，創造內外兼具的永恆建築。" transform="translate(30 5282.606)" font-size="13" font-family="NotoSansHant-Regular, Noto Sans T Chinese"><tspan x="0" y="11">一棟棟的好作品眼見為憑，用心的每一項細節，都是昆</tspan><tspan x="0" y="31">旺建設獨到的價值展現；用最嚴謹的態度蓋好房，以及</tspan><tspan x="0" y="51">完工後的永續服務，創造內外兼具的永恆建築。</tspan></text>
      <text id="_BRAND" data-name=" BRAND" transform="translate(147.543 5229.811)" font-size="16" font-family="NotoSansHant-Medium, Noto Sans T Chinese" font-weight="500"><tspan x="0" y="0" xml:space="preserve"> BRAND</tspan></text>
      <g id="Group_462" data-name="Group 462" transform="translate(-8512)">
        <path id="Path_336" data-name="Path 336" d="M8569.019,5208.186h-24.813V5235.3h27.572v-14.935h-9.05v-4.329h9.05v-7.85h-2.759Zm-17.231,14.936v4.062h-4.824v-11.147h4.824v4.329h-3.445v2.756Zm17.231-9.844H8556.27v2.759h3.7v4.329h-3.017v2.756h3.017v4.062h-3.7v2.755h10.852v-2.755h-4.394v-4.062h6.291v9.42h-22.056v-2.6h7.58v-16.661h-7.58v-2.335h22.056Z" fill="#e40012"/>
        <g id="Group_461" data-name="Group 461">
          <path id="Path_337" data-name="Path 337" d="M8580.451,5227.837a41.29,41.29,0,0,0,4.26-1l.388,1.957c-2,.489-4.383.937-7.135,1.325l-.571-1.855a1.434,1.434,0,0,0,.938-1.447v-6.462h2.12v2.079h4.321v1.916h-4.321Zm11.7-15.818v7.706h-13.536v-7.706Zm-2.1,3v-1.2h-9.315v1.2Zm0,1.671h-9.315v1.244h9.315ZM8588.013,5230q-2.079,0-2.079-2.2v-7.42h2.12v2.242l5.77-.387v1.916l-5.77.388v2.792c0,.448.185.693.591.693h2.875a.619.619,0,0,0,.551-.326,5.518,5.518,0,0,0,.285-2.018l1.956.632c-.162,1.793-.428,2.874-.814,3.2a2.273,2.273,0,0,1-1.61.489Z"/>
          <path id="Path_338" data-name="Path 338" d="M8603.441,5227.9h-2.079v-.917h-2.427v1.345h-2.059V5212.57h6.564Zm-2.079-9.092v-4.26h-2.427v4.26Zm0,6.177v-4.179h-2.427v4.179Zm3.078-10.885v-2.08h10.253v2.08h-4.036v5.34h3.648v2.059h-3.648v6.013h4.26v2.08H8603.93v-2.08h4.587V5221.5h-3.792v-2.059h3.792v-5.34Z"/>
          <path id="Path_339" data-name="Path 339" d="M8620.846,5230.2h-1.978v-8.826a25.386,25.386,0,0,1-1.427,3.363l-.856-2.181a18.235,18.235,0,0,0,2.181-5.361h-1.691v-1.977h1.794v-3.812h1.978v3.812h1.386v1.977h-1.386v.938c.631.733,1.264,1.508,1.9,2.364l-1.061,1.59c-.325-.591-.591-1.1-.835-1.549Zm9.887-1.814a15.364,15.364,0,0,1-3.589,1.875l-.836-1.834a13.917,13.917,0,0,0,3.385-1.733,15.3,15.3,0,0,1-1.1-3.18v-.041H8625.9c0,.245-.021.469-.021.694a14.153,14.153,0,0,1,2.752,1.691l-1.06,1.611a14.058,14.058,0,0,0-1.916-1.427,6.7,6.7,0,0,1-2.874,4.158l-1.306-1.671a5.087,5.087,0,0,0,2.406-3.486c.081-.469.122-1,.163-1.57h-1.9V5221.6h6.095a36.478,36.478,0,0,1-.347-5.381v-1.937c-.733,1.264-1.387,2.324-1.937,3.139l1.02-.347a33.614,33.614,0,0,1,.814,3.4l-1.3.346a8,8,0,0,0-.163-.794c-1.02.163-2.141.305-3.384.468l-.307-1.406q.735-.245,2.2-2.569c-.652.082-1.346.143-2.079.2l-.286-1.345c.389-.184,1.04-1.488,1.978-3.914l1.631.571a24.814,24.814,0,0,1-1.712,3.18c.489-.061.938-.123,1.345-.163.286-.53.591-1.1.917-1.672l1.265.428v-2.385h1.957v4.791a42.041,42.041,0,0,0,.325,5.381h1.692c-.2-.306-.407-.591-.632-.876l1.631-.612a11.033,11.033,0,0,1,.836,1.488h1.834v1.875h-2.486l1.284.979a13.194,13.194,0,0,1-2.242,2.813c.429.55.835.835,1.224.835.3,0,.57-.794.814-2.344l1.651,1.081c-.51,2.161-1.284,3.261-2.3,3.261A3.651,3.651,0,0,1,8630.732,5228.388Zm-5.952-9.438,1.284-.224c-.082-.387-.185-.754-.266-1.081C8625.412,5218.176,8625.065,5218.624,8624.78,5218.95Zm10.885,1.2-1.386.346c-.082-.305-.144-.591-.2-.835-1.061.163-2.264.305-3.567.469l-.327-1.407c.49-.163,1.2-.979,2.142-2.426-.652.082-1.366.143-2.1.2l-.285-1.284c.367-.184,1.039-1.427,2-3.73l1.569.55a30.1,30.1,0,0,1-1.692,3c.511-.061.979-.122,1.387-.163.286-.489.592-1.019.9-1.569l1.469.509q-1.1,1.866-1.957,3.119l.958-.306A25.991,25.991,0,0,1,8635.665,5220.153Zm-5.137,3.322a11.857,11.857,0,0,0,.61,2.018,11.429,11.429,0,0,0,1.631-2.018Zm1.813-4.872c.489-.081.938-.162,1.386-.224q-.182-.61-.366-1.1A16.237,16.237,0,0,1,8632.342,5218.6Z"/>
          <path id="Path_340" data-name="Path 340" d="M8641.634,5230.2h-2.039v-8.99a25.414,25.414,0,0,1-1.793,4.159l-.856-2.14a19.279,19.279,0,0,0,2.486-6.034h-2.079v-2.018h2.242v-3.771h2.039v3.771h1.814v2.018h-1.814v1.06a36.62,36.62,0,0,1,2.2,2.935l-1.141,1.733c-.408-.836-.754-1.549-1.061-2.161Zm6.728-18.774v1.325h2.813v-1.325h1.937v1.325h2.345v1.631h-2.345v.938h1.957v1.569h-1.957v.958h2.813v1.631h-5.238v.877h4.158v5.034h1.183v1.713h-1.183v1.468c0,1.059-.652,1.61-1.936,1.61h-1.672l-.448-1.733,1.548.082q.612,0,.612-.367v-1.06h-6.421v3.1h-1.916v-3.1h-1.224v-1.713h1.224v-5.034h4.117v-.877h-5.137v-1.631h2.813v-.958h-1.957v-1.569h1.957v-.938h-2.345v-1.631h2.345v-1.325Zm-1.835,10.478v1.039h2.2v-1.039Zm2.2,3.485v-1.059h-2.2v1.059Zm2.446-10.069v-.938h-2.812v.938Zm0,2.527v-.958h-2.812v.958Zm1.773,4.057h-2.263v1.039h2.263Zm0,3.485v-1.059h-2.263v1.059Z"/>
        </g>
      </g>
    </g>
  </g>
</svg>
