<svg xmlns="http://www.w3.org/2000/svg" width="463" height="243.317" viewBox="0 0 463 243.317">
  <g id="Group_1263" data-name="Group 1263" transform="translate(-157.236 -8817.72)">
    <g id="Group_1262" data-name="Group 1262">
      <text id="好好蓋房用心看得見" transform="translate(373.236 8930.56)" font-size="48" font-family="NotoSansHant-Bold, Noto Sans T Chinese" font-weight="700"><tspan x="-216" y="0">好好蓋房用心看得見</tspan></text>
      <text id="一棟棟的好作品眼見為憑_用心的每一項細節_都是昆旺建設獨到的價值展現_用最嚴謹的態度蓋好房_以及完工後的永續服務_創造內外兼具的永恆建築_" data-name="一棟棟的好作品眼見為憑，用心的每一項細節，都是昆旺建設獨到的價值展現；用最嚴謹的態度蓋好房，以及完工後的永續服務，創造內外兼具的永恆建築。" transform="translate(157.236 8964.037)" font-size="20" font-family="NotoSansHant-Regular, Noto Sans T Chinese"><tspan x="0" y="18">一棟棟的好作品眼見為憑，用心的每一項細節，都是</tspan><tspan x="0" y="54">昆旺建設獨到的價值展現；用最嚴謹的態度蓋好房，</tspan><tspan x="0" y="90">以及完工後的永續服務，創造內外兼具的永恆建築。</tspan></text>
      <text id="_BRAND" data-name=" BRAND" transform="translate(370.923 8857.478)" font-size="32" font-family="NotoSansHant-Medium, Noto Sans T Chinese" font-weight="500"><tspan x="0" y="0" xml:space="preserve"> BRAND</tspan></text>
      <g id="Group_1040" data-name="Group 1040">
        <path id="Path_746" data-name="Path 746" d="M204.5,8817.72v0H163.95v0h-5.07v49.852h50.688v-27.458H192.934v-7.958h16.634V8817.72Zm-31.679,27.461v7.467H163.95v-20.492h8.869v7.958h-6.334v5.067Zm31.679-18.1H181.06v5.072h6.81v7.958h-5.546v5.067h5.546v7.467h-6.81v5.065h19.95v-5.065h-8.076v-7.467H204.5V8862.5H163.95v-4.786h13.936v-30.63H163.95v-4.293H204.5Z" fill="#e40012"/>
        <g id="Group_1039" data-name="Group 1039">
          <path id="Path_747" data-name="Path 747" d="M225.516,8853.849a75.848,75.848,0,0,0,7.832-1.836l.712,3.6c-3.672.9-8.057,1.724-13.116,2.436l-1.05-3.411a2.633,2.633,0,0,0,1.724-2.66V8840.1h3.9v3.823h7.945v3.522h-7.945Zm21.511-29.081v14.166H222.143v-14.166Zm-3.86,5.51v-2.211H226.041v2.211Zm0,3.072H226.041v2.286h17.126Zm-3.748,24.473q-3.822,0-3.822-4.047v-13.643h3.9v4.123l10.606-.712v3.522l-10.606.713v5.134c0,.824.338,1.273,1.087,1.273h5.284a1.136,1.136,0,0,0,1.012-.6,10.184,10.184,0,0,0,.525-3.71l3.6,1.161c-.3,3.3-.787,5.284-1.5,5.884a4.175,4.175,0,0,1-2.96.9Z"/>
          <path id="Path_748" data-name="Path 748" d="M267.782,8853.963h-3.823v-1.687H259.5v2.473h-3.784v-28.968h12.067Zm-3.823-16.715v-7.832H259.5v7.832Zm0,11.354v-7.682H259.5v7.682Zm5.659-20.012v-3.823h18.85v3.823h-7.42v9.819h6.708v3.785h-6.708v11.055h7.832v3.823h-20.2v-3.823h8.432V8842.2h-6.971v-3.785h6.971v-9.819Z"/>
          <path id="Path_749" data-name="Path 749" d="M299.779,8858.2h-3.635V8841.97a46.428,46.428,0,0,1-2.624,6.184l-1.573-4.011a33.6,33.6,0,0,0,4.009-9.854h-3.11v-3.636h3.3v-7.009h3.635v7.009h2.548v3.636h-2.548v1.723c1.162,1.35,2.323,2.774,3.485,4.348l-1.949,2.924c-.6-1.087-1.087-2.025-1.536-2.85Zm18.175-3.336a28.131,28.131,0,0,1-6.6,3.447l-1.537-3.373a25.506,25.506,0,0,0,6.221-3.185,28.11,28.11,0,0,1-2.024-5.846v-.075h-4.946c0,.45-.038.862-.038,1.273a26.105,26.105,0,0,1,5.06,3.111l-1.949,2.96a25.932,25.932,0,0,0-3.523-2.624,12.32,12.32,0,0,1-5.284,7.646l-2.4-3.073a9.355,9.355,0,0,0,4.422-6.409c.15-.862.225-1.835.3-2.885h-3.484v-3.448h11.2a67.141,67.141,0,0,1-.638-9.893v-3.562c-1.349,2.324-2.548,4.273-3.56,5.772l1.874-.639a62.1,62.1,0,0,1,1.5,6.26l-2.4.637a14.114,14.114,0,0,0-.3-1.461c-1.874.3-3.935.561-6.221.861l-.562-2.585q1.349-.453,4.047-4.724c-1.2.151-2.473.264-3.822.375l-.525-2.473c.712-.337,1.911-2.736,3.635-7.2l3,1.05a45.212,45.212,0,0,1-3.148,5.847c.9-.112,1.724-.226,2.474-.3.524-.973,1.086-2.022,1.686-3.072l2.323.787v-4.386h3.6v8.809a76.967,76.967,0,0,0,.6,9.893h3.11c-.374-.562-.749-1.086-1.162-1.61l3-1.125a20.259,20.259,0,0,1,1.537,2.735H326.8v3.448h-4.572l2.361,1.8a24.324,24.324,0,0,1-4.122,5.171c.786,1.012,1.536,1.537,2.248,1.537.562,0,1.049-1.461,1.5-4.31l3.035,1.985c-.937,3.974-2.36,6-4.235,6Q320.316,8857.953,317.954,8854.861Zm-10.942-17.352,2.361-.412c-.151-.712-.338-1.386-.487-1.985C308.174,8836.087,307.536,8836.911,307.012,8837.51Zm20.012,2.211-2.549.638c-.149-.562-.262-1.087-.375-1.536-1.948.3-4.159.562-6.558.861l-.6-2.586c.9-.3,2.211-1.8,3.935-4.46-1.2.151-2.511.264-3.861.375l-.524-2.36c.675-.337,1.911-2.623,3.673-6.857l2.885,1.011a55.513,55.513,0,0,1-3.11,5.51c.937-.112,1.8-.226,2.548-.3.524-.9,1.087-1.874,1.649-2.885l2.7.937q-2.023,3.428-3.6,5.733l1.761-.562A47.839,47.839,0,0,1,327.024,8839.721Zm-9.444,6.109a21.755,21.755,0,0,0,1.124,3.71,21.318,21.318,0,0,0,3-3.71Zm3.335-8.957c.9-.15,1.724-.3,2.549-.412q-.337-1.124-.675-2.024A30.067,30.067,0,0,1,320.915,8836.873Z"/>
          <path id="Path_750" data-name="Path 750" d="M338,8858.2H334.25V8841.67a47.053,47.053,0,0,1-3.3,7.646l-1.574-3.935a35.5,35.5,0,0,0,4.572-11.093h-3.823v-3.71h4.123v-6.935H338v6.935h3.336v3.71H338v1.948a67.364,67.364,0,0,1,4.048,5.4l-2.1,3.187c-.75-1.536-1.387-2.849-1.949-3.974Zm12.367-34.517v2.438h5.172v-2.437h3.56v2.438h4.31v3H359.1v1.724h3.6v2.885h-3.6v1.763h5.171v3h-9.63v1.61h7.644v9.256h2.174v3.149h-2.174v2.7c0,1.948-1.2,2.961-3.559,2.961h-3.074l-.824-3.187,2.848.15q1.125,0,1.124-.675V8852.5h-11.8v5.7h-3.522v-5.7h-2.248v-3.149h2.248V8840.1h7.57v-1.61H341.6v-3h5.171v-1.763h-3.6v-2.885h3.6v-1.724h-4.309v-3h4.309v-2.437Zm-3.373,19.264v1.911h4.048v-1.911Zm4.048,6.407V8847.4h-4.048v1.947Zm4.5-18.512v-1.724h-5.172v1.724Zm0,4.647v-1.763h-5.172v1.763Zm3.26,7.457h-4.159v1.911H358.8Zm0,6.407V8847.4h-4.159v1.947Z"/>
        </g>
      </g>
    </g>
  </g>
</svg>
