<?xml version="1.0" encoding="utf-8"?>
<!-- Generator: Adobe Illustrator 26.0.2, SVG Export Plug-In . SVG Version: 6.00 Build 0)  -->
<svg version="1.1" id="圖層_1" xmlns="http://www.w3.org/2000/svg" xmlns:xlink="http://www.w3.org/1999/xlink" x="0px" y="0px"
	 viewBox="0 0 318 75.4" style="enable-background:new 0 0 318 75.4;" xml:space="preserve">
<style type="text/css">
	.st0{fill:#FFFFFF;}
</style>
<g>
	<path class="st0" d="M23.9,30.9h11.9v2.8H9.3v-2.8h11.5V26h-8.4v-2.7h8.4v-4.5h-7v-2.7c-1.4,1-2.8,1.9-4.1,2.6
		c-0.4-0.8-1.2-1.8-1.8-2.5c3.7-1.7,8-5,11.1-8.3h-5V5.2h10c2.8,4.4,8,8.7,13.1,10.8c-0.6,0.6-1.5,1.9-2,2.8c-1.3-0.7-2.7-1.5-4-2.4
		v2.6h-7.2v4.5h8.5V26h-8.5V30.9z M13.9,16.2h17c-3.2-2.3-6.2-5.2-8.5-8.2C20.2,10.9,17,13.8,13.9,16.2z"/>
	<path class="st0" d="M44.6,25.3c-0.8,2.3-2,5-3.2,6.6c-0.5-0.4-1.4-1.1-2-1.5c1.2-1.6,2.2-3.8,2.9-5.9L44.6,25.3z M48.6,23.1v11.2
		h-2.8V23.1h-6v-2.6h6v-3h-6.2V15H43c-0.1-1.1-0.6-2.8-1.1-4.1l2.4-0.6c0.5,1.3,1,3,1.2,4.1L43.1,15h5c0.6-1.4,1.2-3.4,1.5-4.8
		l2.7,0.6c-0.5,1.5-1.1,3-1.6,4.2h3.7v2.6h-5.8v3H54v2.6H48.6z M53.9,10.1H40.1V7.6h5.7c-0.3-0.9-0.8-2-1.1-2.8L47.6,4
		c0.5,1.1,1.2,2.5,1.6,3.6h4.7V10.1z M51.7,24.3c1,1.6,2.1,3.6,2.6,5l-2,1.3c-0.5-1.4-1.6-3.5-2.5-5.1L51.7,24.3z M68.2,18H65v16.3
		h-2.9V18h-3.7v0.8c0,4.8-0.4,11.4-3.2,15.5c-0.4-0.6-1.6-1.5-2.2-1.8c2.5-3.8,2.7-9.4,2.7-13.7V7.4c3.5-0.6,7.3-1.7,9.6-2.7L67.6,7
		c-2.6,1.1-6,1.8-9.2,2.4v5.8h9.7V18z"/>
	<path class="st0" d="M76.1,23c-1.2-0.9-3.5-2.4-5.3-3.5l1.7-2c1.7,0.9,4.1,2.3,5.4,3.2L76.1,23z M71.4,32.1c1.7-1.8,4.2-5,6.2-7.9
		l1.8,2.2c-1.8,2.6-3.9,5.6-5.9,8L71.4,32.1z M78,9h-6.5V6.3H78V4.2h2.9v2.1h3.6V9h-3.6v2.5H78V9z M74.5,11.1c1.6,1,4.1,2.4,5.3,3.2
		l-1.7,2.3c-1.2-0.8-3.6-2.4-5.3-3.5L74.5,11.1z M97.6,14c-1.3,2.2-3.2,4.1-5.5,5.7c2.4,1.1,5.2,2,7.9,2.5c-0.6,0.6-1.3,1.8-1.7,2.5
		c-3-0.7-6-1.9-8.8-3.5c-2.3,1.3-4.8,2.4-7.3,3.2h14.4v9.9h-2.9v-1.4h-9.2v1.4h-2.8v-9.8c-0.6,0.2-1.1,0.3-1.7,0.5
		c-0.3-0.8-0.9-1.9-1.5-2.5c2.8-0.6,5.7-1.6,8.4-2.9c-1.2-0.8-2.3-1.7-3.2-2.7c-1,1.1-2.1,2.1-3.3,3c-0.5-0.6-1.4-1.5-2.1-1.8
		c3.2-2.2,5.6-5.2,7-7.7l2.9,0.6c-0.4,0.6-0.8,1.2-1.1,1.7h8.1l0.5-0.1L97.6,14z M84.5,27v3.8h9.2V27H84.5z M85.4,15.3
		c1,1.1,2.4,2.2,4,3.1c1.5-0.9,2.8-2,3.8-3.1H85.4z M89.4,9H86V6.3h3.4V4.2h2.8v2.1h6.6V9h-6.6v2.6h-2.8V9z"/>
	<path class="st0" d="M128.8,15.5c-1.3,4.3-3.2,8-5.5,11.2c1.1,2.8,2.3,4.5,3.6,4.5c0.8,0,1.2-1.7,1.4-5.9c0.7,0.7,1.7,1.4,2.5,1.7
		c-0.5,5.8-1.5,7.4-4.1,7.4c-2.3,0-4.1-1.8-5.5-5c-1.8,2-3.8,3.7-5.9,5c-0.4-0.7-1.5-1.9-2.1-2.5c2.6-1.5,4.9-3.4,6.8-5.8
		c-1.1-3.7-1.8-8.4-2.2-13.6h-10v4h7.9v1.2c-0.2,7.2-0.3,10-1,10.9c-0.6,0.7-1.2,1-2,1.1c-0.8,0.1-2.2,0.1-3.7,0.1
		c-0.1-0.9-0.3-2.1-0.8-2.9c1.3,0.1,2.5,0.2,3,0.2c0.4,0,0.8-0.1,1-0.4c0.3-0.5,0.5-2.3,0.6-7.3h-5c0,4.7-0.6,11.3-3.3,15.5
		c-0.5-0.6-1.8-1.7-2.4-2.1c2.5-4,2.7-9.6,2.7-13.9V9.5h12.9c-0.1-1.7-0.2-3.5-0.2-5.2h3.1c0,1.8,0,3.5,0.1,5.2h6
		c-1.2-1.1-3.3-2.5-4.9-3.5l1.8-1.9c1.8,1,4.2,2.5,5.4,3.7l-1.5,1.7h3.2v3h-9.8c0.3,3.9,0.8,7.5,1.5,10.4c1.5-2.4,2.7-5.2,3.6-8.2
		L128.8,15.5z"/>
</g>
<g>
	<path class="st0" d="M16.2,50.2V70h-0.8V50.2H16.2z"/>
	<path class="st0" d="M41.9,66.5h-7.2v2.6H33v-2.6h-7v-1.6h7v-1.3h-5.3v-7.1h12.6v7.1h-5.6v1.3h7.2V66.5z M33.3,55.7h-6.1v-3.9h6.1
		V55.7z M31.7,53h-3v1.5h3V53z M29.4,59.4H33V58h-3.6V59.4z M33,62.2v-1.4h-3.6v1.4H33z M40.8,55.7h-6.2v-3.9h6.2V55.7z M38.6,58
		h-3.9v1.4h3.9V58z M38.6,60.8h-3.9v1.4h3.9V60.8z M39.2,53h-3.1v1.5h3.1V53z"/>
	<path class="st0" d="M49.4,63c-0.1-0.3-0.1-0.7-0.2-1c-3.9,0.7-4.5,0.8-4.9,1.1c-0.1-0.4-0.3-1.2-0.5-1.7c0.4-0.1,0.8-0.6,1.4-1.3
		c0.3-0.3,0.8-1,1.4-2c-1.7,0.2-2.1,0.3-2.4,0.5c-0.1-0.4-0.3-1.2-0.5-1.6c0.3-0.1,0.7-0.5,1-1.1c0.4-0.6,1.6-2.8,2.4-4.9l1.5,0.7
		c-0.8,1.8-1.8,3.6-2.8,5l1.7-0.2c0.5-0.8,0.9-1.6,1.3-2.4l1.4,0.9c-1.1,2.1-2.5,4.2-3.9,5.9l2.5-0.4c-0.2-0.6-0.4-1.2-0.6-1.7
		l1.3-0.5c0.5,1.3,1.1,3,1.3,4L49.4,63z M45.9,64c-0.1,1.7-0.5,3.6-0.9,4.8c-0.3-0.2-1-0.4-1.4-0.5c0.4-1.2,0.7-2.9,0.8-4.5L45.9,64
		z M47.9,63.7c0.2,1.4,0.5,3.2,0.5,4.4L47,68.4c0-1.2-0.3-3-0.5-4.4L47.9,63.7z M49.8,63.1c0.4,1.2,0.8,2.7,1,3.7l-1.3,0.5
		c-0.1-1-0.6-2.6-0.9-3.7L49.8,63.1z M57.9,67.3c0.3,0,0.5,0,0.6-0.1c0.1,0,0.3-0.2,0.3-0.4c0.1-0.2,0.1-0.9,0.1-1.6
		c0.4,0.4,0.9,0.6,1.4,0.8c0,0.8-0.2,1.6-0.3,2c-0.1,0.4-0.4,0.6-0.8,0.8c-0.3,0.1-0.8,0.2-1.2,0.2h-1.5c-0.5,0-1-0.1-1.4-0.4
		c-0.4-0.3-0.6-0.7-0.6-2.4v-2.3h-3.3v-6.9h1.5v5.2h1.8v-6.8h-3.7v-1.7h3.7v-2.5h1.6v2.5h4.2v1.7h-4.2v6.8H58v-5.2h1.5v7.8H58v-0.9
		h-1.9v2.4c0,0.5,0.1,0.9,0.2,1c0.2,0.1,0.3,0.1,0.6,0.1H57.9z"/>
	<path class="st0" d="M63.4,56.1c-0.3,0.4-0.5,0.7-0.8,1c-0.2-0.3-0.6-1-0.9-1.3c1.1-1.2,2-2.9,2.6-4.7l1.3,0.4
		c-0.2,0.6-0.4,1.2-0.7,1.7h1.8c-0.2-0.5-0.4-1.1-0.7-1.6l1.4-0.4c0.3,0.6,0.7,1.5,0.9,2.1h1.6v1.2h-2v1h1.7v0.3
		c1-1.2,1.9-2.9,2.5-4.6l1.4,0.4c-0.2,0.6-0.4,1.2-0.7,1.7h1.8c-0.2-0.5-0.4-1.1-0.7-1.6l1.4-0.4c0.3,0.6,0.7,1.4,0.9,2h1.8v1.2
		h-2.4v1h2v1.1h-2v1h2v1.1h-2v1h2.6v1.2h-7.1v-4.7c-0.3,0.4-0.5,0.8-0.8,1.1c-0.1-0.2-0.4-0.6-0.7-0.9l0,0.3h-1.7v1h1.7v1.2h-1.7v1
		h2.2v1.2h-6.7V56.1z M76.4,62.5c-0.9,1.6-2.2,2.8-3.8,3.7c1.7,0.5,3.6,0.8,5.7,1c-0.4,0.4-0.8,1.2-1,1.7c-2.5-0.3-4.8-0.8-6.8-1.7
		c-2.3,0.9-5,1.5-7.6,1.8c-0.1-0.5-0.4-1.2-0.7-1.7c2.2-0.2,4.3-0.6,6.3-1.2c-1.3-0.8-2.4-1.7-3.2-2.7l0.5-0.3H63v-1.5h11.9l0.3-0.1
		L76.4,62.5z M66.5,54.4h-1.7v1h1.7V54.4z M66.5,56.5h-1.7v1h1.7V56.5z M66.5,58.6h-1.7v1h1.7V58.6z M67,63.3
		c0.9,0.8,2.1,1.6,3.4,2.2c1.2-0.6,2.3-1.3,3.2-2.2H67z M74.2,54.4h-1.7v1h1.7V54.4z M74.2,56.5h-1.7v1h1.7V56.5z M74.2,58.6h-1.7v1
		h1.7V58.6z"/>
	<path class="st0" d="M83.7,61.8v5.1c0,0.9-0.2,1.5-0.7,1.8C82.5,69,81.8,69,80.6,69c-0.1-0.5-0.3-1.3-0.5-1.8c0.7,0,1.4,0,1.6,0
		c0.2,0,0.3-0.1,0.3-0.3v-4.6L80.1,63l-0.4-1.8c0.6-0.2,1.4-0.4,2.3-0.7v-3.9H80v-1.7H82v-3.8h1.6v3.8h1.7v1.7h-1.7V60l1.4-0.5
		l0.3,1.7L83.7,61.8z M96.4,62.1h-2.4v7h-1.7v-7h-2.4c-0.2,2.5-1,5.2-3.5,7.1c-0.2-0.4-0.7-1-1.1-1.3c2.2-1.5,2.8-3.8,3-5.8h-2.6
		v-1.8h2.6v-3.6h-2v-1.7h2.5c-0.3-0.9-0.9-2.3-1.5-3.3l1.4-0.6c0.6,1,1.3,2.4,1.6,3.3l-1.4,0.6h3.2c0.6-1.1,1.2-2.8,1.6-4l1.8,0.7
		c-0.5,1.1-1.1,2.4-1.6,3.4h2.1v1.7h-2v3.6h2.4V62.1z M92.3,60.4v-3.6h-2.3v3.6H92.3z"/>
	<path class="st0" d="M106.7,50.2V70h-0.8V50.2H106.7z"/>
	<path class="st0" d="M116.4,65.9c4.9-4.8,7.5-8.3,7.5-11.3c0-2-1-3.3-2.8-3.3c-1.3,0-2.4,0.9-3.3,2l-1.5-1.6
		c1.4-1.7,2.9-2.7,5.1-2.7c3.1,0,5,2.2,5,5.5c0,3.5-2.6,7.2-6.1,10.8c0.9-0.1,1.9-0.2,2.7-0.2h4.2v2.4h-10.8V65.9z"/>
	<path class="st0" d="M126.6,63.1c0-2.4,1.5-4,3-4.9v-0.1c-1.2-1-2.2-2.3-2.2-4.3c0-2.8,2-4.7,4.8-4.7c2.9,0,4.7,2,4.7,4.8
		c0,1.9-1.2,3.4-2.2,4.3v0.1c1.5,0.9,2.8,2.4,2.8,4.8c0,2.7-2.2,4.8-5.4,4.8C128.9,67.9,126.6,65.9,126.6,63.1z M135,63.1
		c0-2.2-1.8-3.1-4.1-4.1c-1.2,0.9-2,2.2-2,3.8c0,1.8,1.4,3.1,3.2,3.1C133.8,65.9,135,64.8,135,63.1z M134.7,54.1
		c0-1.7-0.9-2.9-2.6-2.9c-1.4,0-2.4,1-2.4,2.6c0,2,1.6,2.9,3.4,3.7C134.2,56.5,134.7,55.3,134.7,54.1z"/>
	<path class="st0" d="M144.7,60.5c-1.1,0-1.8-0.8-1.8-1.6c0-0.9,0.7-1.7,1.8-1.7s1.8,0.8,1.8,1.7C146.4,59.7,145.8,60.4,144.7,60.5z
		"/>
	<path class="st0" d="M150.9,65.4l1.3-1.8c1,1.1,2.2,2,3.9,2c1.9,0,3.2-1.1,3.2-3c0-2-1.2-3.3-4.9-3.3v-2.1c3.3,0,4.4-1.4,4.4-3.2
		c0-1.6-1-2.6-2.6-2.6c-1.3,0-2.4,0.7-3.3,1.7l-1.4-1.8c1.3-1.3,2.9-2.2,4.8-2.2c3,0,5.1,1.7,5.1,4.7c0,2.1-1.1,3.6-2.9,4.3v0.1
		c1.9,0.5,3.4,2.1,3.4,4.6c0,3.3-2.5,5.2-5.6,5.2C153.7,67.9,152,66.8,150.9,65.4z"/>
	<path class="st0" d="M171.6,52.7c-0.6-0.8-1.6-1.4-2.6-1.4c-2.1,0-3.9,1.8-4,7c1-1.3,2.4-2.1,3.6-2.1c2.8,0,4.7,1.9,4.7,5.7
		c0,3.6-2.3,6-5,6c-3.2,0-5.8-2.9-5.8-9.1c0-7,3-9.8,6.3-9.8c1.9,0,3.2,0.9,4.2,2L171.6,52.7z M170.9,62c0-2.4-1-3.7-2.7-3.7
		c-1,0-2.1,0.6-3.1,2.1c0.3,3.6,1.5,5.3,3.3,5.3C169.8,65.8,170.9,64.3,170.9,62z"/>
	<path class="st0" d="M180.4,62.3l0.3,1.6c-1.8,0.8-3.7,1.7-5.2,2.3l-0.6-1.9c0.6-0.2,1.4-0.5,2.2-0.8v-6.2h-1.9v-1.7h1.9v-4.4h1.5
		v4.4h1.6v1.7h-1.6V63L180.4,62.3z M191.7,62.4h-4.8v6.7h-1.7v-6.7h-4.7v-1.7h4.7v-6.9H181V52h10.2v1.8h-4.3v6.9h4.8V62.4z
		 M182.9,54.7c0.5,1.5,0.9,3.4,1,4.7l-1.4,0.4c-0.1-1.3-0.5-3.2-1-4.7L182.9,54.7z M188.1,59.4c0.4-1.3,0.9-3.4,1.1-4.8l1.6,0.4
		c-0.5,1.7-1,3.6-1.4,4.8L188.1,59.4z"/>
	<path class="st0" d="M201.8,50.2V70H201V50.2H201.8z"/>
	<path class="st0" d="M225.7,56.2v7.9H224v-1h-8.9c-0.3,2.3-1.1,4.5-2.6,6.2c-0.3-0.4-0.9-1-1.3-1.3c2.3-2.5,2.5-6.3,2.5-9.1V53
		c3.6-0.4,7.8-1.1,10.2-1.9l1.4,1.4c-2.7,0.8-6.4,1.5-9.8,1.9v1.8H225.7z M224,61.3v-3.5h-8.6v1c0,0.8,0,1.6-0.1,2.5H224z"/>
	<path class="st0" d="M243.8,56.2v7.9h-1.7v-1h-8.9c-0.3,2.3-1.1,4.5-2.6,6.2c-0.3-0.4-0.9-1-1.3-1.3c2.3-2.5,2.5-6.3,2.5-9.1V53
		c3.6-0.4,7.8-1.1,10.2-1.9l1.4,1.4c-2.7,0.8-6.4,1.5-9.8,1.9v1.8H243.8z M242.1,61.3v-3.5h-8.6v1c0,0.8,0,1.6-0.1,2.5H242.1z"/>
	<path class="st0" d="M252.3,61.2c-0.5,0.2-1,0.4-1.5,0.6v5.3c0,0.9-0.2,1.3-0.6,1.6c-0.5,0.3-1.1,0.3-2.2,0.3
		c-0.1-0.4-0.3-1.2-0.5-1.6c0.7,0,1.3,0,1.5,0c0.2,0,0.3-0.1,0.3-0.3v-4.7l-1.5,0.6l-0.4-1.8c0.6-0.2,1.2-0.5,2-0.7v-3.9h-1.8v-1.7
		h1.8v-3.8h1.4v3.8h1.3v1.7h-1.3V60l1.2-0.5L252.3,61.2z M255.7,62.2c0.1-0.3,0.1-0.6,0.2-0.9l1.2,0.3c-0.6,3.4-2,6-4.4,7.5
		c-0.2-0.3-0.6-0.9-0.9-1.1c1.6-0.9,2.8-2.3,3.5-4.1c-2,0.6-2.4,0.8-2.7,1c-0.1-0.3-0.3-1-0.4-1.4c0.3-0.1,0.6-0.5,1-1.1
		c0.2-0.4,0.7-1.3,1.2-2.4c-1.3,0.2-1.7,0.3-1.9,0.4c-0.1-0.3-0.3-1-0.5-1.4c0.2-0.1,0.5-0.3,0.6-0.7c0.2-0.4,0.9-1.9,1.2-3.3
		l1.3,0.7c-0.3,1-0.8,2.1-1.3,3l1.2-0.1c0.2-0.4,0.3-0.8,0.4-1.2l1.2,0.8c-0.6,1.6-1.4,3.3-2.2,4.7L255.7,62.2z M263.9,54.7h-11.5
		v-1.6h4.9c-0.2-0.5-0.4-1-0.7-1.4l1.2-0.5c0.4,0.6,0.7,1.3,1,1.9h5.1V54.7z M263.9,68h-5.3v1h-1.3v-8.3c-0.1,0.1-0.2,0.3-0.3,0.4
		c-0.2-0.2-0.8-0.8-1.1-1c1-1.2,1.8-3.2,2.3-5l1.3,0.4c-0.2,0.6-0.4,1.2-0.6,1.8h1.8c-0.2-0.5-0.4-1.1-0.7-1.6l1.1-0.5
		c0.3,0.6,0.7,1.4,0.9,2.1h1.6v1.4h-2.1v1.7h1.8v1.3h-1.8v1.7h1.7v1.3h-1.7v2h2.2V68z M260.3,58.6h-1.7v1.7h1.7V58.6z M260.3,61.6
		h-1.7v1.7h1.7V61.6z M258.6,66.5h1.7v-2h-1.7V66.5z"/>
	<path class="st0" d="M271.5,66c-1.2,1.1-3.1,2.2-4.7,2.9c-0.3-0.4-0.9-1-1.2-1.3c1.6-0.5,3.3-1.4,4.3-2.3L271.5,66z M281.7,59.9
		h-15.8v-1.5h7.1c-0.1-0.3-0.3-0.5-0.4-0.7l0.9-0.3h-5.6v-5.6h12v5.6h-5.7c0.2,0.3,0.5,0.7,0.6,1h6.9V59.9z M274.7,64.9v2.6
		c0,0.8-0.2,1.2-0.8,1.4c-0.6,0.2-1.5,0.2-2.7,0.2c-0.1-0.5-0.3-1-0.5-1.5c0.9,0,1.8,0,2,0c0.3,0,0.3-0.1,0.3-0.3v-2.5h-4.8v-4.1
		h11.3v4.1H274.7z M269.4,53.9h8.7v-1h-8.7V53.9z M269.4,56.2h8.7v-1.1h-8.7V56.2z M269.9,63.6h8v-1.5h-8V63.6z M277,65.4
		c1.6,0.6,3.6,1.6,4.7,2.4l-1.2,1.2c-1-0.8-3.1-1.9-4.7-2.5L277,65.4z"/>
	<path class="st0" d="M292.3,50.2V70h-0.8V50.2H292.3z"/>
</g>
</svg>
