<svg xmlns="http://www.w3.org/2000/svg" width="661.819" height="328.499" viewBox="0 0 661.819 328.499">
  <g id="Group_6091" data-name="Group 6091" transform="translate(-632 -330.568)">
    <text id="_4字頭水岸第一排" data-name="4字頭水岸第一排" transform="translate(894.819 637.067)" font-size="67.521" font-family="NotoSansCJKtc-Black, Noto Sans CJK TC" font-weight="800"><tspan x="0" y="0">4</tspan><tspan y="0" font-size="51.075">字頭水岸第一排</tspan></text>
    <text id="新莊市心" transform="translate(632 637.904)" font-size="51.075" font-family="NotoSansCJKtc-Black, Noto Sans CJK TC" font-weight="800"><tspan x="0" y="0">新莊市心</tspan></text>
    <g id="Group_4906" data-name="Group 4906" transform="translate(-3326 -141)">
      <g id="Group_4903" data-name="Group 4903">
        <path id="Path_12004" data-name="Path 12004" d="M4200.393,528.776H4094.954l-14.257-1.849c-.1.729-10.338,73.317-68.464,103.91l10.321,19.607c45.694-24.05,65.869-68.2,74.377-95.935a5.061,5.061,0,0,1,4.856-3.574h98.606Z" fill="#009fe8"/>
        <path id="Path_12005" data-name="Path 12005" d="M4176.155,644.02l22.146,0V566.963H4077.142v77.221h82.732l0-22.128-48.028,0a6.269,6.269,0,0,1-6.25-6.248V595.393a6.269,6.269,0,0,1,6.25-6.249H4169.9a6.269,6.269,0,0,1,6.252,6.249Z" fill="#009fe8"/>
        <path id="Path_12006" data-name="Path 12006" d="M4063.353,550.935h-21.573V528.776h28.046Z" fill="#009fe8"/>
        <path id="Path_12007" data-name="Path 12007" d="M4285.888,675.252l-13.338-24.324c14.209-6.265,20.564-18.812,20.564-28.467V495.771h30.219v126.69C4323.333,644.494,4308.636,665.215,4285.888,675.252Z" fill="#009fe8"/>
        <path id="Path_12008" data-name="Path 12008" d="M4232.842,645.125l-15.959-15.846c11.356-9.2,22-21.537,24.578-39.327.606-4.21.491-20.823.289-34.556a4.561,4.561,0,0,0-4.788-4.23h-21.374V529.815h49.518l.21,11.371c.413,22.324.735,44.689-.252,51.512C4261.59,616.732,4247.435,633.3,4232.842,645.125Z" fill="#009fe8"/>
        <path id="Path_12009" data-name="Path 12009" d="M4380.141,649.131c-20.813-13.51-29.692-26.85-29.692-44.6V546.387l35.775-27.3,15.423,16.263-24.771,18.9a6.428,6.428,0,0,0-2.625,5.094v45.183c0,8.9,3.321,16.578,19.844,27.3Z" fill="#009fe8"/>
        <rect id="Rectangle_409" data-name="Rectangle 409" width="26.727" height="36.949" transform="translate(4557.303 485.591)" fill="#009fe8"/>
        <path id="Path_12010" data-name="Path 12010" d="M4521.861,495.656V473.491H4491v22.165a3.95,3.95,0,0,1-3.95,3.948h-26.358a3.949,3.949,0,0,1-3.949-3.948V483.685h-26.727v38.24h118.049V499.6h-22.255A3.948,3.948,0,0,1,4521.861,495.656Z" fill="#009fe8"/>
        <path id="Path_12011" data-name="Path 12011" d="M4584.385,536.182h-151.37l-3.4-.029a668.092,668.092,0,0,1-4.692,69.007c-4.087,31.925-18.264,49.174-42.139,51.261l1.964,22.466c34.872-3.05,57.085-28.217,62.545-70.865,2.04-15.948,3.228-31.761,3.92-44.469a5.1,5.1,0,0,1,5.1-4.823h128.063Z" fill="#009fe8"/>
        <path id="Path_12012" data-name="Path 12012" d="M4583.845,606.935h-55.966a5.008,5.008,0,0,1-5.012-5.008V593.77a5.009,5.009,0,0,1,5.012-5.012h40.959V567.843H4459.094v20.915h36.21a5.009,5.009,0,0,1,5.01,5.012v8.157a5.007,5.007,0,0,1-5.01,5.008h-59.193v23.036H4495.3a5.008,5.008,0,0,1,5.01,5.011v27.327h22.553V634.982a5.009,5.009,0,0,1,5.012-5.011h55.966Z" fill="#009fe8"/>
        <path id="Path_12013" data-name="Path 12013" d="M4063.455,509.386v6.5h25.318v-2.819a6.86,6.86,0,0,1,6.862-6.858h49.573a7.694,7.694,0,0,1,7.693,7.693,15.222,15.222,0,0,0,.128,1.984h25.192l0-2.487v-3.507l0-.507a3.178,3.178,0,0,1,3.177-3.176h21.449a3.174,3.174,0,0,0,3.175-3.174V487.231a3.176,3.176,0,0,0-3.175-3.175H4181.4a3.176,3.176,0,0,1-3.177-3.176l0-.507,0-8.8H4152.9l0,8.8v.507a3.175,3.175,0,0,1-3.173,3.176h-57.777a3.175,3.175,0,0,1-3.176-3.174v-9.314h-25.323l0,8.8v.663a3.176,3.176,0,0,1-3.2,3.176l-19.811-.119a3.179,3.179,0,0,0-3.2,3.176v15.767a3.176,3.176,0,0,0,3.174,3.174h19.852A3.178,3.178,0,0,1,4063.455,509.386Z" fill="#009fe8"/>
        <rect id="Rectangle_410" data-name="Rectangle 410" width="20.472" height="23.002" transform="translate(4590.528 606.944)" fill="#009fe8"/>
      </g>
      <g id="Group_4904" data-name="Group 4904">
        <rect id="Rectangle_411" data-name="Rectangle 411" width="9.43" height="8.623" transform="translate(3980.619 584.034)" fill="#588387"/>
        <rect id="Rectangle_412" data-name="Rectangle 412" width="9.103" height="8.623" transform="translate(3993.628 584.034)" fill="#588387"/>
        <rect id="Rectangle_413" data-name="Rectangle 413" width="9.43" height="8.098" transform="translate(3980.619 572.164)" fill="#588387"/>
        <path id="Path_12014" data-name="Path 12014" d="M4007.781,562.211v2.472H4004.2v-2.472H3981.1v2.472h-3.581v-2.472H3966v18.051h11.034v-8.1h-8.159v-3.772h45.6v3.772h-8.159v8.1h10.85V562.211Z" fill="#588387"/>
        <rect id="Rectangle_414" data-name="Rectangle 414" width="11.034" height="8.623" transform="translate(3966 584.034)" fill="#588387"/>
        <rect id="Rectangle_415" data-name="Rectangle 415" width="10.85" height="8.623" transform="translate(4006.315 584.034)" fill="#588387"/>
        <rect id="Rectangle_416" data-name="Rectangle 416" width="9.103" height="8.098" transform="translate(3993.628 572.164)" fill="#588387"/>
        <path id="Path_12015" data-name="Path 12015" d="M3993.628,596.429v6.178h20.685v3.772h-20.685v5.84h23.537v-15.79Z" fill="#588387"/>
        <rect id="Rectangle_417" data-name="Rectangle 417" width="4.831" height="19.098" transform="translate(3966 495.35)" fill="#588387"/>
        <path id="Path_12016" data-name="Path 12016" d="M3981.6,491.575v3.775h-7.184v19.1h6.124v3.772h-6.124v22.238h7.184v3.772H3966v14.21h11.523v-4.217h3.581v4.217H4004.2v-4.217h3.586v4.217h9.384V513.68h-34.79v-3.772h16.778v-3h3.585v3h14.427V482.129H3966v9.446Zm8.452,53.208h-3.583V532.4h3.583Zm26.213.5h-7.679V532.75h3.586v8.759h4.093Zm-30.939-30.131h30.26v15.467h-8.653v-3.772H4012v-7.926h-23.09v7.75h13.856l-.024,18.961h-7.518v-3.772h3.932V530.437h-13.83Zm-.812-29.154h30.749v19.683h-3.585V489.764H3988.1v4.608h18.573v3.77H3988.1v4.086h18.409V506h-21.992Z" fill="#588387"/>
        <path id="Path_12017" data-name="Path 12017" d="M3990.049,606.379h-21.34v-3.772h21.34v-6.178H3966v15.79h24.049Z" fill="#588387"/>
        <rect id="Rectangle_418" data-name="Rectangle 418" width="4.831" height="22.239" transform="translate(3966 518.22)" fill="#588387"/>
      </g>
      <g id="Group_4905" data-name="Group 4905">
        <path id="Path_12018" data-name="Path 12018" d="M3985.752,689.435v.238h-4.19l-7.394-10h-3.8v10h-3.637V664.052h8.344a12.189,12.189,0,0,1,5.081.949,6.928,6.928,0,0,1,3.122,2.649,7.407,7.407,0,0,1,1.048,3.954,8.118,8.118,0,0,1-.693,3.36,7.235,7.235,0,0,1-2.075,2.67,8.676,8.676,0,0,1-3.44,1.64Zm-15.38-12.77h4.153a6.81,6.81,0,0,0,4.489-1.285,4.478,4.478,0,0,0,1.521-3.618,4.25,4.25,0,0,0-1.406-3.441,6.25,6.25,0,0,0-4.13-1.184h-4.627Z" fill="#231815"/>
        <path id="Path_12019" data-name="Path 12019" d="M3989.706,668.5a2.588,2.588,0,0,1-.888-.89,2.235,2.235,0,0,1-.335-1.186,2.306,2.306,0,0,1,.335-1.225,2.588,2.588,0,0,1,.888-.89,2.261,2.261,0,0,1,1.187-.336,2.315,2.315,0,0,1,1.226.336,2.594,2.594,0,0,1,.889.89,2.32,2.32,0,0,1,.338,1.225,2.248,2.248,0,0,1-.338,1.186,2.594,2.594,0,0,1-.889.89,2.315,2.315,0,0,1-1.226.337A2.262,2.262,0,0,1,3989.706,668.5Zm-.474,21.173V672.355l3.4-.4v17.714Z" fill="#231815"/>
        <path id="Path_12020" data-name="Path 12020" d="M4012.876,672.355v.237l-6.918,17.081h-3.125l-7.077-17.081v-.237h3.716l4.192,11.149c.1.266.314.87.633,1.82l.235.75c.266-.894.541-1.751.833-2.57l3.954-11.149Z" fill="#231815"/>
        <path id="Path_12021" data-name="Path 12021" d="M4029.521,681.606h-12.058a5.863,5.863,0,0,0,1.442,4.311,5.03,5.03,0,0,0,3.619,1.345,8.59,8.59,0,0,0,2.748-.4,14.446,14.446,0,0,0,2.589-1.224l1.307,2.411a12.342,12.342,0,0,1-6.8,2.095,8.556,8.556,0,0,1-6.069-2.115q-2.271-2.117-2.274-6.7a11.554,11.554,0,0,1,.952-4.744,7.692,7.692,0,0,1,7.431-4.705,7.758,7.758,0,0,1,3.915.93,6.093,6.093,0,0,1,2.452,2.549,8.039,8.039,0,0,1,.83,3.717Zm-10.337-5.852a6.2,6.2,0,0,0-1.522,3.362h8.618v-.158a4.782,4.782,0,0,0-1.008-3.321,3.681,3.681,0,0,0-2.867-1.108A4.234,4.234,0,0,0,4019.184,675.754Z" fill="#231815"/>
        <path id="Path_12022" data-name="Path 12022" d="M4043.439,671.959c.369.053.763.133,1.187.237l-.633,3.521a7.4,7.4,0,0,0-2.452-.476,5.017,5.017,0,0,0-2.334.553,5.8,5.8,0,0,0-2.055,2.1v11.782h-3.4V672.315l3.4-.356v2.491a6.71,6.71,0,0,1,2.294-1.918,6.114,6.114,0,0,1,2.767-.652A8.833,8.833,0,0,1,4043.439,671.959Z" fill="#231815"/>
        <path id="Path_12023" data-name="Path 12023" d="M4049.449,689.573a11.167,11.167,0,0,1-3.44-1.758l1.5-2.414a10.2,10.2,0,0,0,6.008,2.057,5.039,5.039,0,0,0,2.729-.613,2,2,0,0,0,.951-1.8,2.064,2.064,0,0,0-.851-1.641,8.239,8.239,0,0,0-2.988-1.246l-1.222-.316a9.589,9.589,0,0,1-4.054-1.879,3.99,3.99,0,0,1-1.286-3.1,4.247,4.247,0,0,1,.832-2.588,5.44,5.44,0,0,1,2.313-1.76,8.449,8.449,0,0,1,3.341-.633,13.874,13.874,0,0,1,3.418.416,13.031,13.031,0,0,1,3.341,1.4l-1.382,2.412a14.55,14.55,0,0,0-2.808-1.205,9.281,9.281,0,0,0-2.529-.337,3.8,3.8,0,0,0-2.234.574,1.776,1.776,0,0,0-.812,1.522,1.474,1.474,0,0,0,.654,1.284,7.7,7.7,0,0,0,2.273.889l1.227.317a16.137,16.137,0,0,1,3.616,1.345,5.175,5.175,0,0,1,1.995,1.8,4.769,4.769,0,0,1,.633,2.511,4.875,4.875,0,0,1-.809,2.788,5.287,5.287,0,0,1-2.392,1.878,9.841,9.841,0,0,1-3.836.671A14.152,14.152,0,0,1,4049.449,689.573Z" fill="#231815"/>
        <path id="Path_12024" data-name="Path 12024" d="M4065.1,668.5a2.6,2.6,0,0,1-.891-.89,2.254,2.254,0,0,1-.335-1.186,2.326,2.326,0,0,1,.335-1.225,2.6,2.6,0,0,1,.891-.89,2.243,2.243,0,0,1,1.187-.336,2.332,2.332,0,0,1,1.227.336,2.618,2.618,0,0,1,.888.89,2.334,2.334,0,0,1,.334,1.225,2.262,2.262,0,0,1-.334,1.186,2.618,2.618,0,0,1-.888.89,2.333,2.333,0,0,1-1.227.337A2.244,2.244,0,0,1,4065.1,668.5Zm-.473,21.173V672.355l3.4-.4v17.714Z" fill="#231815"/>
        <path id="Path_12025" data-name="Path 12025" d="M4088.273,662.075v27.6h-3.082l-.159-1.265a13.959,13.959,0,0,1-2.888,1.285,9.2,9.2,0,0,1-2.727.454,7.068,7.068,0,0,1-3.914-1.047,6.6,6.6,0,0,1-2.47-3.006,11.485,11.485,0,0,1-.851-4.6,10.8,10.8,0,0,1,1.166-5.181,8.049,8.049,0,0,1,3.182-3.3,9.255,9.255,0,0,1,4.587-1.126,15.576,15.576,0,0,1,3.756.516v-9.925ZM4077,685.8a4.132,4.132,0,0,0,3.361,1.423,8.8,8.8,0,0,0,4.508-1.3V675.163a10.958,10.958,0,0,0-3.477-.594,5.561,5.561,0,0,0-2.868.731,5.043,5.043,0,0,0-1.978,2.274,8.923,8.923,0,0,0-.73,3.835A6.784,6.784,0,0,0,4077,685.8Z" fill="#231815"/>
        <path id="Path_12026" data-name="Path 12026" d="M4107.923,681.606h-12.059a5.867,5.867,0,0,0,1.443,4.311,5.024,5.024,0,0,0,3.619,1.345,8.606,8.606,0,0,0,2.748-.4,14.473,14.473,0,0,0,2.588-1.224l1.306,2.411a12.334,12.334,0,0,1-6.8,2.095,8.556,8.556,0,0,1-6.07-2.115q-2.271-2.117-2.273-6.7a11.553,11.553,0,0,1,.951-4.744,7.693,7.693,0,0,1,7.431-4.705,7.758,7.758,0,0,1,3.915.93,6.1,6.1,0,0,1,2.453,2.549,8.048,8.048,0,0,1,.828,3.717Zm-10.338-5.852a6.207,6.207,0,0,0-1.522,3.362h8.618v-.158a4.78,4.78,0,0,0-1.007-3.321,3.683,3.683,0,0,0-2.868-1.108A4.234,4.234,0,0,0,4097.585,675.754Z" fill="#231815"/>
        <path id="Path_12027" data-name="Path 12027" d="M4139.355,678.6a6.348,6.348,0,0,1,1.306,3.915,6.645,6.645,0,0,1-1.047,3.677,6.976,6.976,0,0,1-3.145,2.549,12.531,12.531,0,0,1-5.1.93h-9.255V664.052h8.937a11.464,11.464,0,0,1,4.627.85,6.831,6.831,0,0,1,2.963,2.332,5.859,5.859,0,0,1,1.031,3.421,5.558,5.558,0,0,1-1.051,3.321,6.364,6.364,0,0,1-3.3,2.214A6.862,6.862,0,0,1,4139.355,678.6Zm-13.6-11.545v8.066h4.783a6.9,6.9,0,0,0,3.914-1.009,4.056,4.056,0,0,0,.948-5.2,3.676,3.676,0,0,0-1.641-1.364,6.346,6.346,0,0,0-2.627-.494Zm9.8,18.424a3.994,3.994,0,0,0,1.266-3.045,4.055,4.055,0,0,0-1.346-3.2,5.87,5.87,0,0,0-3.993-1.187h-5.731v8.62h5.69A5.9,5.9,0,0,0,4135.56,685.481Z" fill="#231815"/>
        <path id="Path_12028" data-name="Path 12028" d="M4147.5,688.942a7.32,7.32,0,0,1-2.767-3.282,11.556,11.556,0,0,1-.908-4.685,10.217,10.217,0,0,1,1.186-5.2,7.076,7.076,0,0,1,3.2-2.964,10.836,10.836,0,0,1,4.585-.93,8.332,8.332,0,0,1,4.627,1.206,7.342,7.342,0,0,1,2.767,3.262,11.409,11.409,0,0,1,.909,4.665,10.326,10.326,0,0,1-1.184,5.239,7.089,7.089,0,0,1-3.205,2.966,10.848,10.848,0,0,1-4.584.929A8.344,8.344,0,0,1,4147.5,688.942Zm10.044-7.967a7.685,7.685,0,0,0-1.246-4.607,4.308,4.308,0,0,0-3.736-1.72,4.56,4.56,0,0,0-3.974,1.68,9.393,9.393,0,0,0,.059,9.313,4.383,4.383,0,0,0,3.795,1.738Q4157.544,687.379,4157.543,680.975Z" fill="#231815"/>
        <path id="Path_12029" data-name="Path 12029" d="M4179.92,671.959v17.714h-3.043l-.2-1.3a12.121,12.121,0,0,1-6.169,1.779,5.666,5.666,0,0,1-3.935-1.365,5.261,5.261,0,0,1-1.521-4.132v-12.3l3.4-.4v11.7a5.621,5.621,0,0,0,.314,2.075,2.025,2.025,0,0,0,1.029,1.107,4.7,4.7,0,0,0,1.977.337,10.945,10.945,0,0,0,4.744-1.464V672.355Z" fill="#231815"/>
        <path id="Path_12030" data-name="Path 12030" d="M4196.407,689.04a9.051,9.051,0,0,1-4.348,1.107,5.279,5.279,0,0,1-3.875-1.4,5.666,5.666,0,0,1-1.422-4.21v-9.49h-3.481v-2.688h3.481V668.44l3.4-.553v4.468h5.851l-.355,2.688h-5.5v8.936q0,3.322,2.449,3.322a6.038,6.038,0,0,0,1.387-.159,8.158,8.158,0,0,0,1.461-.514Z" fill="#231815"/>
        <path id="Path_12031" data-name="Path 12031" d="M4200.242,668.5a2.591,2.591,0,0,1-.888-.89,2.226,2.226,0,0,1-.335-1.186,2.3,2.3,0,0,1,.335-1.225,2.591,2.591,0,0,1,.888-.89,2.255,2.255,0,0,1,1.187-.336,2.316,2.316,0,0,1,1.226.336,2.611,2.611,0,0,1,.889.89,2.309,2.309,0,0,1,.338,1.225,2.237,2.237,0,0,1-.338,1.186,2.611,2.611,0,0,1-.889.89,2.317,2.317,0,0,1-1.226.337A2.256,2.256,0,0,1,4200.242,668.5Zm-.473,21.173V672.355l3.4-.4v17.714Z" fill="#231815"/>
        <path id="Path_12032" data-name="Path 12032" d="M4223.411,673.026v24h-3.4V688.6a11.483,11.483,0,0,1-5.655,1.542,6.531,6.531,0,0,1-3.836-1.107,6.846,6.846,0,0,1-2.389-3.025,11.137,11.137,0,0,1-.812-4.369,10,10,0,0,1,1.485-5.712,8.266,8.266,0,0,1,3.735-3.124,12.131,12.131,0,0,1,4.664-.93A21.271,21.271,0,0,1,4223.411,673.026Zm-3.4,13.048V675a13.185,13.185,0,0,0-2.689-.316,6.509,6.509,0,0,0-4.587,1.64q-1.775,1.642-1.777,5.4a6.427,6.427,0,0,0,1.128,4.051,3.837,3.837,0,0,0,3.222,1.444A11.257,11.257,0,0,0,4220.011,686.074Z" fill="#231815"/>
        <path id="Path_12033" data-name="Path 12033" d="M4243.617,671.959v17.714h-3.046l-.195-1.3a12.126,12.126,0,0,1-6.169,1.779,5.67,5.67,0,0,1-3.935-1.365,5.264,5.264,0,0,1-1.521-4.132v-12.3l3.4-.4v11.7a5.549,5.549,0,0,0,.319,2.075,2.013,2.013,0,0,0,1.028,1.107,4.685,4.685,0,0,0,1.975.337,10.974,10.974,0,0,0,4.747-1.464V672.355Z" fill="#231815"/>
        <path id="Path_12034" data-name="Path 12034" d="M4263.267,681.606h-12.059a5.854,5.854,0,0,0,1.441,4.311,5.024,5.024,0,0,0,3.617,1.345,8.589,8.589,0,0,0,2.748-.4,14.509,14.509,0,0,0,2.592-1.224l1.3,2.411a12.335,12.335,0,0,1-6.8,2.095,8.552,8.552,0,0,1-6.069-2.115q-2.277-2.117-2.273-6.7a11.54,11.54,0,0,1,.948-4.744,7.7,7.7,0,0,1,7.434-4.705,7.739,7.739,0,0,1,3.911.93,6.1,6.1,0,0,1,2.454,2.549,8.055,8.055,0,0,1,.832,3.717Zm-10.342-5.852a6.267,6.267,0,0,0-1.522,3.362h8.622v-.158a4.783,4.783,0,0,0-1.011-3.321,3.675,3.675,0,0,0-2.864-1.108A4.25,4.25,0,0,0,4252.925,675.754Z" fill="#231815"/>
      </g>
    </g>
    <g id="Group_4952" data-name="Group 4952" transform="translate(-3326 -141)">
      <line id="Line_89" data-name="Line 89" y1="44.678" x2="43.546" transform="translate(4168.617 737.506)" fill="none" stroke="#3f96e2" stroke-linecap="round" stroke-miterlimit="10" stroke-width="2"/>
      <line id="Line_90" data-name="Line 90" x2="43.546" y2="44.678" transform="translate(4168.617 737.506)" fill="none" stroke="#3f96e2" stroke-linecap="round" stroke-miterlimit="10" stroke-width="2"/>
    </g>
  </g>
</svg>
