<?xml version="1.0" encoding="UTF-8"?><svg id="_圖層_2" xmlns="http://www.w3.org/2000/svg" viewBox="0 0 49.24 11.61"><defs><style>.cls-1{fill:#fff;}</style></defs><g id="_圖層_1-2"><g><path class="cls-1" d="M49.24,11.61h-.21c-1.17,0-2.34,0-3.51,0-.14,0-.22-.04-.28-.17-.42-.78-.84-1.56-1.26-2.34-.06-.11-.12-.15-.25-.15-2,0-3.99,0-5.99-.02-.12,0-.18,.04-.24,.15-.42,.78-.85,1.54-1.26,2.32-.08,.16-.17,.21-.35,.21-4.12,0-8.25,0-12.38,0-.2,0-.39,0-.59-.02-.46-.06-.74-.37-.76-.84V.76c0-.53,.21-.75,.74-.75,3.62,0,7.24,0,10.85,0,.63,0,.92,.29,.93,.92,0,1.24,0,2.49,0,3.73v.16h-3.41V2.5h-5.6v6.57h.2c2.4,0,4.8,0,7.2,0,.15,0,.23-.04,.3-.17,1.6-2.9,3.21-5.8,4.81-8.7,.08-.14,.16-.19,.32-.19,1.59,0,3.17,0,4.76,0,.14,0,.21,.04,.27,.16,1.87,3.75,3.74,7.49,5.62,11.24,.03,.06,.05,.11,.09,.2Zm-6.6-4.98c-.67-1.28-1.32-2.52-1.99-3.79-.66,1.28-1.29,2.53-1.94,3.79h3.93Z"/><path class="cls-1" d="M0,11.6c.37-.7,.72-1.37,1.08-2.05C2.72,6.43,4.36,3.32,5.99,.2c.08-.15,.16-.19,.32-.19,1.59,0,3.17,0,4.76,0,.12,0,.19,.03,.25,.15,1.88,3.76,3.76,7.52,5.64,11.29,.02,.04,.04,.09,.07,.15-.08,0-.14,0-.21,0-1.17,0-2.34,0-3.51,0-.14,0-.22-.04-.28-.17-.42-.78-.85-1.56-1.26-2.34-.06-.11-.12-.15-.25-.15-2,0-3.99,0-5.99-.02-.12,0-.19,.04-.24,.15-.43,.8-.87,1.59-1.3,2.38-.05,.09-.1,.15-.22,.15-1.21,0-2.42,0-3.64,0-.03,0-.07,0-.14-.01ZM6.52,6.63h3.93c-.67-1.27-1.32-2.51-1.99-3.79-.66,1.28-1.29,2.53-1.94,3.79Z"/><path class="cls-1" d="M20.96,11.59h-3.47v-.21c0-3.48,0-6.97,0-10.45C17.49,.39,17.87,0,18.41,0c.59,0,1.17,0,1.76,0,.53,0,.79,.26,.79,.79V11.59Z"/></g></g></svg>