<svg width="91" height="21" viewBox="0 0 91 21" fill="none" xmlns="http://www.w3.org/2000/svg">
<g clip-path="url(#clip0_12_1064)">
<path d="M89.2142 4.10249C87.7405 2.18689 85.1135 0.19148 80.2919 0.0158839C80.1798 -7.944e-05 80.0676 0.0158839 79.9555 0.0158839C79.8273 0.0158839 79.7152 0.0158839 79.6031 0.0158839C74.7815 0.207444 72.1545 2.20286 70.6808 4.11845C69.127 6.11387 68.9668 8.28488 68.9668 8.28488V12.1001C68.9668 12.1001 69.127 14.2711 70.6808 16.2665C72.1545 18.1662 74.7815 20.1775 79.6031 20.3531C79.7152 20.3531 79.8273 20.3531 79.9555 20.3531C80.0516 20.3531 80.1798 20.3531 80.2919 20.3531C85.1135 20.1616 87.7245 18.1502 89.2142 16.2506C90.768 14.2552 90.9282 12.0841 90.9282 12.0841V8.26891C90.9282 8.26891 90.768 6.0979 89.2142 4.10249ZM80.404 18.1183H79.491C79.491 18.1183 75.3101 17.4957 74.349 12.8823C74.349 12.8823 74.2529 12.148 74.2369 10.1685C74.2369 8.1891 74.349 7.45478 74.349 7.45478C75.3261 2.84139 79.491 2.20286 79.491 2.20286H80.404C80.404 2.20286 84.5849 2.82543 85.546 7.45478C85.546 7.45478 85.6421 8.1891 85.6581 10.1685C85.6581 12.148 85.546 12.8823 85.546 12.8823C84.5688 17.4957 80.404 18.1183 80.404 18.1183Z" fill="white"/>
<path d="M56.5204 0.686523H46.605V7.87001H49.184V6.20983C49.184 6.20983 49.248 2.61808 53.0124 2.61808C53.0124 2.61808 53.7012 2.68194 54.5021 2.80964V16.7456C54.5021 16.7456 54.1497 17.879 53.1245 17.879H50.5455V20.3373H63.2002V17.879H60.6212C59.58 17.879 59.2436 16.7456 59.2436 16.7456V2.79368C60.0285 2.68194 60.7333 2.60212 60.7333 2.60212C64.5137 2.60212 64.5617 6.19386 64.5617 6.19386V7.85405H67.1407V0.686523H56.5044H56.5204Z" fill="white"/>
<path d="M34.3511 0.0158839C34.2229 -7.944e-05 34.1268 0.0158839 34.0147 0.0158839C33.8865 0.0158839 33.7904 0.0158839 33.6783 0.0158839C28.8567 0.207444 26.2297 2.20286 24.756 4.11845C23.2022 6.11387 23.042 8.28488 23.042 8.28488V12.1001C23.042 12.1001 23.2022 14.2711 24.756 16.2665C26.2297 18.1662 28.8567 20.1775 33.6783 20.3531C33.7904 20.3531 33.9025 20.3531 34.0147 20.3531C34.1268 20.3531 34.2389 20.3531 34.3511 20.3531C39.1726 20.1616 41.7997 18.1502 43.2734 16.2506C44.8112 14.2552 44.9874 12.0841 44.9874 12.0841V8.26891C44.9874 8.26891 44.8112 6.0979 43.2734 4.10249C41.7837 2.18689 39.1566 0.19148 34.3511 0.0158839ZM34.4632 18.1183H33.5501C33.5501 18.1183 29.3693 17.4957 28.4082 12.8823C28.4082 12.8823 28.3121 12.148 28.2961 10.1685C28.2961 8.1891 28.4082 7.45478 28.4082 7.45478C29.3693 2.84139 33.5501 2.20286 33.5501 2.20286H34.4632C34.4632 2.20286 38.644 2.82543 39.6212 7.45478C39.6212 7.45478 39.7013 8.1891 39.7333 10.1685C39.7173 12.148 39.6212 12.8823 39.6212 12.8823C38.644 17.4957 34.4632 18.1183 34.4632 18.1183Z" fill="white"/>
<path d="M10.5634 0.686523H0.647949V7.87001H3.22693V6.20983C3.22693 6.20983 3.29101 2.61808 7.05536 2.61808C7.05536 2.61808 7.76017 2.68194 8.5611 2.80964V16.7456C8.5611 16.7456 8.20869 17.879 7.18351 17.879H4.62054V20.3373H17.2592V17.879H14.6802C13.655 17.879 13.3026 16.7456 13.3026 16.7456V2.79368C14.0875 2.68194 14.7923 2.60212 14.7923 2.60212C18.5567 2.60212 18.6207 6.19386 18.6207 6.19386V7.85405H21.1997V0.686523H10.5634Z" fill="white"/>
</g>
<defs>
<clipPath id="clip0_12_1064">
<rect width="90.2804" height="20.3372" fill="white" transform="translate(0.647949)"/>
</clipPath>
</defs>
</svg>
