<svg width="101" height="24" viewBox="0 0 101 24" fill="none" xmlns="http://www.w3.org/2000/svg">
<g clip-path="url(#clip0_12_956)">
<path d="M30.2199 6.7214C32.2903 6.7214 33.9625 5.34856 33.9625 3.64049C33.9625 1.93241 32.2903 0.55957 30.2199 0.55957C28.1496 0.55957 26.4614 1.94838 26.4614 3.64049C26.4614 5.3326 28.1336 6.7214 30.2199 6.7214Z" fill="white"/>
<path d="M100.485 22.2858C99.9593 22.0623 99.1471 21.4557 99.1471 21.4557C99.0196 21.1364 99.0674 20.865 99.0674 20.865V9.13199C99.0674 7.18447 97.4908 7.77511 97.4908 7.77511L90.4356 10.3292C89.8941 10.6325 90.0056 11.0636 90.1489 11.319C90.1967 11.319 90.2922 11.3509 90.4356 11.3828C91.1841 11.6063 91.9485 12.7397 91.9485 12.7397V20.8171C91.6141 21.3758 91.0885 21.7111 90.3719 22.1421C89.2411 22.8125 90.4515 23.3393 90.4515 23.3393H99.6089C100.819 23.3393 101.042 22.5092 100.501 22.2858H100.485Z" fill="white"/>
<path d="M95.2455 6.7214C97.3159 6.7214 98.9881 5.34856 98.9881 3.64049C98.9881 1.93241 97.3159 0.55957 95.2455 0.55957C93.1751 0.55957 91.5029 1.94838 91.5029 3.64049C91.5029 5.3326 93.1751 6.7214 95.2455 6.7214Z" fill="white"/>
<path d="M72.4393 21.0084V11.8295C72.4393 11.8295 72.8852 7.39173 67.5659 7.39173C67.5659 7.39173 65.0974 7.32788 63.3774 9.46696V9.11577C63.3774 7.16824 61.8008 7.75889 61.8008 7.75889L54.7456 10.313C54.2041 10.6163 54.3156 11.0473 54.4589 11.3027C54.5226 11.3027 54.6182 11.3347 54.7456 11.3666C55.4941 11.5901 56.2585 12.7235 56.2585 12.7235V20.8009C55.9241 21.3596 55.3985 21.6949 54.6819 22.1259C54.4748 22.2536 54.3474 22.3813 54.2678 22.493C54.1085 21.9343 53.2485 21.6789 53.2485 20.9925V11.8295C53.2485 11.8295 53.6945 7.39173 48.3752 7.39173C48.3752 7.39173 45.9067 7.32788 44.1867 9.46696V9.11577C44.1867 7.16824 42.61 7.75889 42.61 7.75889L35.5708 10.313C35.0293 10.6163 35.1248 11.0473 35.2682 11.3027C35.3319 11.3027 35.4274 11.3347 35.5708 11.3666C36.3193 11.5901 37.0678 12.7235 37.0678 12.7235V20.8009C36.7333 21.3596 36.2078 21.6949 35.4911 22.1259C35.4593 22.1259 35.4433 22.1578 35.4274 22.1737C34.9178 21.9024 34.2967 21.4554 34.2967 21.4554C34.1693 21.1361 34.217 20.8648 34.217 20.8648V9.13173C34.217 7.18421 32.6404 7.77485 32.6404 7.77485L25.6011 10.329C25.0596 10.6323 25.1711 11.0633 25.2985 11.3187C25.3463 11.3187 25.4419 11.3506 25.6011 11.3826C26.3496 11.606 27.0982 12.7394 27.0982 12.7394V20.8169C26.907 21.1521 26.6204 21.4075 26.2859 21.647C25.9356 21.4714 25.3782 21.0563 24.5341 20.0985C22.8141 18.135 19.5015 13.4738 19.5015 13.4738H19.4537C20.457 12.7714 21.7311 11.5901 22.1133 9.86604C22.7982 6.84898 21.97 4.07136 19.8678 3.01779C17.7656 1.96421 16.3322 1.74072 11.3952 1.74072H2.54038C2.54038 1.74072 0.979635 1.99614 1.34593 2.89008C1.72815 3.78403 2.77926 3.03375 2.77926 5.82733V19.0609L2.69964 20.4816C2.69964 20.4816 2.17408 21.6789 1.12297 22.2057C0.0718573 22.7325 0.820376 23.4189 2.33334 23.4189H11.9845C11.9845 23.4189 12.9719 22.8921 12.287 22.2855C11.6022 21.6948 10.2485 21.7587 10.2485 19.7314V16.0438C10.4078 16.0119 10.5989 16.0119 10.8219 16.0438L16.7782 23.4189H44.5211L43.7248 23.3391H44.553C45.4608 23.3391 45.5245 22.2057 44.9989 21.9822C44.4733 21.7587 44.2663 21.4554 44.2663 21.4554C44.1389 21.1361 44.1867 20.8648 44.1867 20.8648V11.9253C44.3141 11.3187 44.6645 10.5365 45.5245 10.329C45.5245 10.329 47.2445 10.2492 47.2445 13.2662V21.1681C47.2445 21.1681 46.7985 22.1418 46.273 22.3653C45.7474 22.5888 46.2093 23.4189 46.7985 23.4189H53.6307C53.6307 23.4189 54.1085 23.355 54.2519 22.924C54.3952 23.1794 54.7456 23.3391 54.7456 23.3391H63.7437C64.6515 23.3391 64.7311 22.2057 64.1896 21.9822C63.6641 21.7587 63.4571 21.4554 63.4571 21.4554C63.3296 21.1361 63.3774 20.8648 63.3774 20.8648V11.9253C63.5048 11.3187 63.8393 10.5365 64.7152 10.329C64.7152 10.329 66.4352 10.2492 66.4352 13.2662V21.1681C66.4352 21.1681 65.9893 22.1418 65.4478 22.3653C64.9222 22.5888 65.3682 23.4189 65.9733 23.4189H72.8056C72.8056 23.4189 73.4745 23.3391 73.4745 22.6686C73.4745 21.9982 72.4233 21.7747 72.4233 21.0084H72.4393ZM11.4748 12.4361C10.9015 12.4361 10.5193 12.1169 10.2645 11.622V4.61412C10.2645 4.61412 10.3441 4.19907 10.5989 3.84788C11.6659 3.70421 14.2141 3.7521 15.2811 6.96072C15.3448 7.24806 15.3767 7.5354 15.3767 7.85467C15.3767 10.8558 12.6056 12.4361 11.4748 12.4361Z" fill="white"/>
<path d="M89.4644 20.2581C88.1903 20.2581 88.27 19.8112 88.27 18.9013V11.3825C88.27 11.3825 88.047 7.24805 82.4889 7.24805C76.9307 7.24805 74.1755 9.65851 73.7933 12.1328C73.427 14.6071 77.7748 16.4908 79.3514 13.8728C79.3514 13.8728 79.7974 12.8991 79.9566 11.1591C80.1 9.43502 80.7051 9.21153 81.2307 9.21153C81.7563 9.21153 82.2818 9.43502 82.2818 10.1853V13.346C80.5937 13.9686 77.8066 15.4053 76.1981 16.4908C74.1118 17.9115 74.0322 19.2684 74.0322 21.0084C74.0322 22.7484 76.66 23.4189 76.66 23.4189H78.6189C79.654 23.4189 81.6289 22.2695 82.6322 21.6469C82.8392 22.1258 83.1577 22.5569 83.6355 22.8282C85.2918 23.7222 88.3655 23.8818 89.7192 21.6948C89.7192 21.6948 90.7703 20.2741 89.4963 20.2741L89.4644 20.2581ZM79.4151 17.704C80.0522 16.4748 81.4218 15.7565 82.2659 15.4053V18.997C81.2785 21.8385 78.5233 19.428 79.4151 17.704Z" fill="white"/>
</g>
<defs>
<clipPath id="clip0_12_956">
<rect width="100.126" height="22.8754" fill="white" transform="translate(0.629395 0.55957)"/>
</clipPath>
</defs>
</svg>
