<svg width="90" height="35" viewBox="0 0 90 35" fill="none" xmlns="http://www.w3.org/2000/svg">
<g clip-path="url(#clip0_12_996)">
<path d="M20.9997 10.3098C19.5186 8.77729 10.1382 3.78077 10.1382 3.78077L4.53229 0.71582V3.38169L0.407471 1.09894V17.4454C0.407471 21.3404 2.7008 24.6927 6.0134 26.2092C7.22377 26.752 8.56155 27.0712 9.97895 27.0712C11.2052 27.0712 12.3838 26.8318 13.4667 26.4167C13.6738 26.4167 13.8808 26.4327 14.1038 26.4327C19.3752 26.4327 23.6752 22.1705 23.6752 16.9026C23.6752 14.3485 22.656 12.0178 20.9997 10.3098ZM9.89932 25.7303C8.70488 25.7303 7.55821 25.4749 6.53895 24.996C3.72006 23.703 1.7771 20.8615 1.7771 17.5411V3.6371L6.53895 6.27105V17.5411C6.53895 19.4248 8.05191 20.9413 9.91525 20.9413C11.7786 20.9413 13.2915 19.4248 13.2915 17.5411C13.2915 16.0087 12.2882 14.7316 10.9186 14.3006V9.43178C14.9319 9.94261 18.0375 13.3747 18.0375 17.5571C18.0375 22.0747 14.3904 25.7463 9.89932 25.7463V25.7303Z" fill="white"/>
<path d="M42.2289 15.9288C42.2289 15.9288 44.7611 15.1625 44.7611 11.8581C44.7611 8.55371 42.8659 7.14894 40.2541 6.44655C40.2541 6.44655 38.7889 6.31885 35.6833 6.31885H28.5007V26.4486H38.6615C38.6615 26.4486 42.9774 26.3847 44.9522 23.7188C46.927 21.037 45.5255 17.2856 42.213 15.9447L42.2289 15.9288ZM35.0463 11.2834H35.6196C35.6196 11.2834 37.4511 11.028 37.4511 12.4966C37.4511 13.8535 36.7981 13.9014 35.0463 13.9014V11.2834ZM35.8107 21.5957H35.0463V18.6744H36.0496C36.0496 18.6744 38.343 18.3552 38.343 20.1431C38.343 21.931 35.7948 21.6117 35.7948 21.6117L35.8107 21.5957Z" fill="white"/>
<path d="M60.3367 16.184L62.6619 26.4325H68.9526L76.1193 6.30273H68.443L65.1623 15.0347L63.2989 6.30273H57.3586L55.0652 14.9708L51.9915 6.30273H44.2356L51.4182 26.4325H57.4063L60.3367 16.184Z" fill="white"/>
<path d="M89.6882 12.6082V6.30273H76.7085L74.5745 12.6721H78.1896V26.3048V26.4325H85.5634V12.6082H89.6882Z" fill="white"/>
<path d="M3.30597 31.9399C3.57671 32.0197 3.78375 32.1315 3.91116 32.3071C4.03856 32.4826 4.10227 32.6742 4.10227 32.8817C4.10227 33.0573 4.05449 33.2329 3.97486 33.3926C3.89523 33.5522 3.76782 33.6799 3.60856 33.7757C3.4493 33.8715 3.17856 33.9193 2.78042 33.9193H1.71338V30.168H2.65301C3.08301 30.168 3.36968 30.1999 3.51301 30.2637C3.67227 30.3276 3.76782 30.4234 3.84745 30.5511C3.91116 30.6788 3.95893 30.8225 3.95893 30.9821C3.95893 31.1577 3.91116 31.3173 3.8156 31.4929C3.73597 31.6685 3.56079 31.8122 3.30597 31.9399ZM2.17523 31.7962H2.62116C2.84412 31.7962 3.0193 31.7643 3.13079 31.7004C3.24227 31.6366 3.33782 31.5408 3.40153 31.4291C3.46523 31.3173 3.49708 31.1896 3.49708 31.0619C3.49708 30.9182 3.4493 30.8065 3.33782 30.6948C3.22634 30.599 3.03523 30.5511 2.76449 30.5511H2.1593V31.7962H2.17523ZM2.17523 33.5362H2.81227C3.13079 33.5362 3.33782 33.4724 3.4493 33.3606C3.56079 33.2329 3.60856 33.0893 3.60856 32.9296C3.60856 32.8019 3.57671 32.6742 3.49708 32.5625C3.43338 32.4507 3.3219 32.3549 3.17856 32.2751C3.03523 32.2113 2.81227 32.1634 2.49375 32.1634H2.1593V33.5362H2.17523Z" fill="white"/>
<path d="M6.0293 33.9193V30.168H8.03596V30.583H6.49115V31.7643H7.82893V32.1315H6.49115V33.5043H8.14745V33.9193H6.0293Z" fill="white"/>
<path d="M9.979 33.0734H10.4249V33.1053C10.4249 33.3128 10.5046 33.4565 10.632 33.5363C10.7753 33.6161 10.9505 33.664 11.1894 33.664C11.3805 33.664 11.5557 33.6002 11.699 33.4725C11.8423 33.3447 11.906 33.1851 11.906 32.9776C11.906 32.802 11.8423 32.6743 11.7149 32.5785C11.6034 32.4827 11.4283 32.371 11.1894 32.2592L10.9983 32.1794C10.7594 32.0677 10.5683 31.9719 10.4249 31.8602C10.3134 31.7484 10.2179 31.6367 10.1542 31.509C10.0905 31.3813 10.0746 31.2376 10.0746 31.078C10.0746 30.7906 10.1701 30.5512 10.3612 30.3596C10.5523 30.168 10.839 30.0723 11.2531 30.0723C11.6194 30.0723 11.8742 30.1361 12.0334 30.2958C12.1768 30.4394 12.2564 30.615 12.2564 30.8066V30.8385H11.7946V30.8066C11.7946 30.8066 11.7786 30.6948 11.7309 30.631C11.6831 30.5671 11.6194 30.5192 11.5238 30.5033C11.4283 30.4713 11.3327 30.4554 11.2212 30.4554C10.9823 30.4554 10.8231 30.5192 10.7116 30.631C10.616 30.7587 10.5523 30.8864 10.5523 31.046C10.5523 31.1418 10.5683 31.2376 10.632 31.3334C10.6797 31.4132 10.7434 31.493 10.839 31.5569C10.9346 31.6207 11.0779 31.7005 11.3009 31.7963L11.5238 31.8921C11.8583 32.0517 12.0972 32.2113 12.2086 32.3869C12.336 32.5625 12.3838 32.7541 12.3838 32.9616C12.3838 33.1532 12.336 33.3288 12.2405 33.5044C12.1449 33.68 12.0334 33.8077 11.8583 33.9035C11.6831 33.9992 11.4601 34.0471 11.1894 34.0471C10.9186 34.0471 10.6957 34.0152 10.5205 33.9513C10.3453 33.8875 10.2179 33.7758 10.1223 33.6321C10.0268 33.4725 9.99493 33.3128 9.99493 33.1213V33.0893L9.979 33.0734Z" fill="white"/>
<path d="M15.1867 33.9195V30.5512H13.9763V30.1841H16.8271V30.5512H15.6485V33.9195H15.1867Z" fill="white"/>
<path d="M22.3214 33.9193H21.8596L21.0474 30.168H21.4933L22.0666 32.8019L22.1463 33.2489H22.1622L22.2259 32.8019L22.8788 30.168H23.3407L23.9777 32.8179L24.0574 33.2648H24.0733L24.1529 32.8179L24.7263 30.168H25.1244L24.3122 33.9193H23.8503L23.2133 31.2375L23.1177 30.7746H23.0859L22.9903 31.2375L22.3214 33.9193Z" fill="white"/>
<path d="M26.7171 33.9193H26.2871L27.7364 30.168H28.1823L29.536 33.9193H29.0423L28.676 32.8977H27.0993L26.7012 33.9193H26.7171ZM27.2586 32.5146H28.5486L27.9275 30.7746L27.2586 32.5146Z" fill="white"/>
<path d="M31.3993 33.9195V30.5512H30.2048V30.1841H33.0396V30.5512H31.8611V33.9195H31.3993Z" fill="white"/>
<path d="M34.7915 33.9193V30.168H36.7822V30.583H35.2534V31.7643H36.5911V32.1315H35.2534V33.5043H36.9097V33.9193H34.7915Z" fill="white"/>
<path d="M39.2827 33.9193H38.8208V30.168H39.9197C40.1904 30.168 40.3975 30.1999 40.5249 30.2797C40.6523 30.3595 40.7638 30.4872 40.8434 30.6469C40.923 30.8065 40.9549 30.9821 40.9549 31.1577C40.9549 31.3014 40.923 31.445 40.8752 31.5887C40.8275 31.7164 40.7478 31.8441 40.6523 31.9559C40.5567 32.0676 40.3975 32.1634 40.1904 32.2432C40.2701 32.2911 40.3338 32.323 40.3815 32.3709C40.4134 32.4188 40.4612 32.4826 40.5249 32.5625C40.5886 32.6423 40.6204 32.7381 40.6682 32.8179L41.2256 33.9353H40.7001L40.2064 32.9456C40.0949 32.7061 39.9356 32.4986 39.7445 32.323H39.2827V33.9353V33.9193ZM39.2827 31.9399H39.7445C39.9356 31.9399 40.0789 31.908 40.1745 31.8441C40.2701 31.7803 40.3497 31.6845 40.4134 31.5727C40.4771 31.461 40.493 31.3333 40.493 31.1896C40.493 31.0779 40.4771 30.9661 40.4293 30.8704C40.3815 30.7746 40.3338 30.6948 40.2382 30.6309C40.1586 30.567 39.9993 30.5351 39.7923 30.5351H39.3145V31.9239L39.2827 31.9399Z" fill="white"/>
<path d="M46.7201 33.9195V30.5512H45.5256V30.1841H48.3605V30.5512H47.1819V33.9195H46.7201Z" fill="white"/>
<path d="M50.1123 33.9193V30.168H52.119V30.583H50.5742V31.7643H51.9279V32.1315H50.5742V33.5043H52.2464V33.9193H50.1123Z" fill="white"/>
<path d="M56.2598 33.1053H56.6898V33.1372C56.6898 33.2809 56.642 33.4405 56.5465 33.5842C56.4509 33.7438 56.3235 33.8556 56.1642 33.9194C56.005 33.9992 55.7979 34.0312 55.575 34.0312C55.129 34.0312 54.7628 33.8715 54.4761 33.5363C54.1894 33.2011 54.062 32.7062 54.062 32.0517C54.062 31.3972 54.2053 30.9024 54.4761 30.5671C54.7628 30.2319 55.1291 30.0723 55.5909 30.0723C55.8139 30.0723 56.005 30.1042 56.1802 30.184C56.3394 30.2479 56.4828 30.3596 56.5624 30.5192C56.6579 30.6789 56.7057 30.8225 56.7057 30.9662V30.9981H56.2757V30.9662C56.2757 30.8704 56.2439 30.7906 56.1961 30.7108C56.1324 30.631 56.0687 30.5671 55.9572 30.5192C55.8616 30.4713 55.7342 30.4554 55.5909 30.4554C55.2246 30.4554 54.9539 30.615 54.7787 30.9183C54.6035 31.2216 54.5079 31.6047 54.5079 32.0677C54.5079 32.5306 54.6035 32.9297 54.7787 33.217C54.9539 33.5203 55.2246 33.68 55.5909 33.68C55.8298 33.68 56.005 33.6161 56.1165 33.5203C56.2279 33.4086 56.2757 33.2969 56.2757 33.1691V33.1372L56.2598 33.1053Z" fill="white"/>
<path d="M59.0148 33.9193H58.553V30.168H59.0148V31.8282H60.6393V30.168H61.1011V33.9193H60.6393V32.2113H59.0148V33.9193Z" fill="white"/>
<path d="M63.5379 33.9193H63.1079V30.168H63.5698L65.1783 32.8338L65.3375 33.1371V30.168H65.7516V33.9193H65.3057L63.6812 31.2375L63.522 30.9182V33.9034L63.5379 33.9193Z" fill="white"/>
<path d="M69.1438 34.0312C68.6979 34.0312 68.3316 33.8556 68.0609 33.5203C67.7742 33.1691 67.6309 32.6743 67.6309 32.0517C67.6309 31.4291 67.7742 30.9183 68.0609 30.5831C68.3316 30.2319 68.6979 30.0723 69.1438 30.0723C69.5897 30.0723 69.956 30.2479 70.2268 30.5831C70.5135 30.9183 70.6568 31.4132 70.6568 32.0517C70.6568 32.6902 70.5135 33.1691 70.2268 33.5203C69.956 33.8556 69.5897 34.0312 69.1438 34.0312ZM69.1438 33.664C69.4783 33.664 69.7331 33.5044 69.9083 33.217C70.0835 32.9297 70.179 32.5306 70.179 32.0517C70.179 31.5728 70.0835 31.1737 69.9083 30.8864C69.7331 30.5831 69.4623 30.4394 69.1438 30.4394C68.8253 30.4394 68.5705 30.5831 68.3953 30.8864C68.2042 31.1897 68.1246 31.5728 68.1246 32.0517C68.1246 32.5306 68.2042 32.9297 68.3953 33.217C68.5705 33.5044 68.8253 33.664 69.1438 33.664Z" fill="white"/>
<path d="M72.552 33.9193V30.168H73.0139V33.5043H74.8613V33.9193H72.552Z" fill="white"/>
<path d="M78.0146 34.0312C77.5687 34.0312 77.2024 33.8556 76.9316 33.5203C76.645 33.1691 76.5176 32.6743 76.5176 32.0517C76.5176 31.4291 76.645 30.9183 76.9316 30.5831C77.2024 30.2319 77.5687 30.0723 78.0146 30.0723C78.4605 30.0723 78.8109 30.2479 79.0976 30.5831C79.3842 30.9183 79.5276 31.4132 79.5276 32.0517C79.5276 32.6902 79.3842 33.1691 79.0976 33.5203C78.8109 33.8556 78.4605 34.0312 78.0146 34.0312ZM78.0146 33.664C78.3331 33.664 78.5879 33.5044 78.7791 33.217C78.9542 32.9297 79.0339 32.5306 79.0339 32.0517C79.0339 31.5728 78.9542 31.1737 78.7791 30.8864C78.5879 30.5831 78.3331 30.4394 78.0146 30.4394C77.6961 30.4394 77.4413 30.5831 77.2502 30.8864C77.075 31.1897 76.9794 31.5728 76.9794 32.0517C76.9794 32.5306 77.075 32.9297 77.2502 33.217C77.4413 33.5044 77.6961 33.664 78.0146 33.664Z" fill="white"/>
<path d="M83.9389 33.7438C83.5566 33.9354 83.2063 34.0312 82.8718 34.0312C82.5374 34.0312 82.2348 33.9513 82.0118 33.8077C81.8048 33.664 81.6296 33.4405 81.4863 33.1691C81.3589 32.8978 81.2952 32.5306 81.2952 32.0996C81.2952 31.6047 81.3589 31.2216 81.4863 30.9502C81.6137 30.6789 81.7889 30.4554 82.0118 30.2958C82.2348 30.1361 82.4896 30.0723 82.8081 30.0723C83.0152 30.0723 83.2063 30.1042 83.3815 30.184C83.5566 30.2479 83.7 30.3596 83.7955 30.5033C83.8911 30.6469 83.9389 30.7906 83.9389 30.9343V30.9662H83.5089V30.9343C83.5089 30.8545 83.477 30.7587 83.4133 30.6948C83.3496 30.615 83.27 30.5671 83.1585 30.5192C83.047 30.4713 82.9355 30.4554 82.8081 30.4554C82.4578 30.4554 82.2029 30.5991 82.0118 30.8864C81.8366 31.1737 81.7411 31.5728 81.7411 32.0677C81.7411 32.5625 81.8366 32.9616 82.0278 33.249C82.2189 33.5363 82.4737 33.68 82.8081 33.68C82.9992 33.68 83.2381 33.6321 83.4929 33.5203V32.4508H82.6966V32.0836H83.9229V33.7598L83.9389 33.7438Z" fill="white"/>
<path d="M87.2198 33.9193H86.7579V32.1474L85.6272 30.168H86.1687L87.0446 31.6845L87.9046 30.168H88.3665L87.2357 32.1474V33.9193H87.2198Z" fill="white"/>
</g>
<defs>
<clipPath id="clip0_12_996">
<rect width="89.2807" height="33.3154" fill="white" transform="translate(0.407471 0.71582)"/>
</clipPath>
</defs>
</svg>
