<svg width="109" height="39" viewBox="0 0 109 39" fill="none" xmlns="http://www.w3.org/2000/svg">
<g clip-path="url(#clip0_12_945)">
<path d="M73.1085 6.86721V17.2434C73.1085 17.387 73.0284 17.4828 72.9163 17.5467C72.5479 17.6584 72.2275 17.6584 71.9392 17.5467C71.827 17.4828 71.763 17.3711 71.763 17.2434V1.45565C71.763 1.29602 71.811 1.26409 71.9552 1.37583C72.2595 1.56739 72.66 1.82281 73.1085 2.12611H76.3763L77.2253 1.32794C77.3534 1.2162 77.4655 1.2162 77.5617 1.32794L78.3946 2.174C78.9873 2.76464 78.8752 3.17969 78.0743 3.37125C77.9942 3.38721 77.9461 3.45106 77.9461 3.53088V7.17051C77.9461 7.31418 77.866 7.44189 77.7058 7.52171C77.4015 7.64941 77.1131 7.66537 76.8248 7.58556C76.6646 7.52171 76.5845 7.40996 76.5845 7.25033V6.85125H73.0925L73.1085 6.86721ZM73.1085 4.28115H76.6005V2.60501H73.4289L73.1245 2.66886V4.28115H73.1085ZM73.1085 6.40427H76.6005V4.72813H73.1085V6.40427ZM79.8363 11.9595H77.898C77.834 12.4703 77.7859 12.8854 77.7379 13.1568C77.3534 14.8169 76.3282 15.9823 74.6623 16.6687C74.5342 16.7325 74.438 16.7166 74.39 16.6687C74.3419 16.5729 74.5822 16.3015 75.0948 15.9024C76.0399 14.9127 76.5205 13.6037 76.5685 11.9914H75.2069L74.1978 12.1351C74.0856 12.1511 74.0216 12.1351 74.0055 12.0712C73.9575 11.8957 73.9094 11.7041 73.8293 11.4806C73.8293 11.4168 73.8774 11.4008 74.0216 11.4168L75.2069 11.5445H76.5845C76.6166 10.8421 76.6326 9.99602 76.6326 8.97437H75.8156L74.8065 9.11804C74.6943 9.134 74.6303 9.11804 74.6143 9.05418C74.5662 8.87859 74.5181 8.68703 74.438 8.46354C74.438 8.39969 74.4861 8.38372 74.6303 8.39969L75.8156 8.52739H80.8775L81.8867 7.394C81.9668 7.31418 82.0629 7.31418 82.143 7.394L83.5205 8.44758C83.6967 8.57528 83.7448 8.68703 83.7128 8.81473C83.6647 8.92648 83.5366 8.99033 83.3604 9.00629H81.1818V11.5764H81.358L82.3672 10.443C82.4473 10.3632 82.5434 10.3632 82.6235 10.443L84.0011 11.4966C84.1773 11.6243 84.2414 11.736 84.1933 11.8478C84.1293 11.9595 84.0171 12.0234 83.8409 12.0393H81.1818V16.4931C81.1818 16.6208 81.1018 16.7325 80.9256 16.8443C80.6372 16.9879 80.3329 17.0039 80.0445 16.8922C79.8843 16.8283 79.8203 16.7485 79.8203 16.6368V12.0393L79.8363 11.9595ZM79.8363 11.4966V8.92648H78.0102C78.0102 9.93216 77.9621 10.7942 77.9301 11.4966H79.8523H79.8363ZM85.0743 6.86721H81.326V7.25033C81.326 7.34611 81.278 7.42593 81.1818 7.50574C80.8134 7.66538 80.445 7.6973 80.0926 7.5696C79.9965 7.52171 79.9484 7.44189 79.9484 7.33015V1.64721C79.9484 1.64721 79.9484 1.50354 79.9484 1.43969C79.9484 1.40776 79.9965 1.3918 80.0605 1.40776C80.461 1.61528 80.9095 1.8707 81.4221 2.14207H84.802L85.6831 1.32794C85.6831 1.32794 85.8432 1.28005 85.9233 1.35987L86.7723 2.20593C87.3009 2.73271 87.2208 3.06794 86.532 3.19565C86.4519 3.22758 86.4039 3.2595 86.4039 3.30739V16.3654C86.4199 16.6208 86.2757 16.8922 85.9874 17.1635C85.7311 17.419 85.2666 17.5786 84.5778 17.6424C84.5137 17.0039 84.1132 16.525 83.3764 16.1738C83.2482 16.11 83.2002 16.0301 83.2482 15.9344C83.2963 15.8226 83.3764 15.7747 83.4725 15.8067C84.0492 15.9823 84.5137 16.0461 84.8341 16.0142C84.9782 15.9663 85.0583 15.8705 85.0583 15.7428V6.86721H85.0743ZM81.6304 2.60501L81.326 2.66886V4.28115H85.0743V2.60501H81.6304ZM85.0743 6.40427V4.72813H81.326V6.40427H85.0743ZM104.729 7.01088C104.873 7.10666 104.953 7.23437 104.953 7.42593C104.953 7.66538 104.761 7.82501 104.425 7.88886C104.361 7.92079 104.329 7.98464 104.345 8.06446V8.22409C104.345 8.52739 104.361 8.75088 104.409 8.89455C104.473 9.05418 104.633 9.134 104.873 9.134C105.081 9.11804 105.242 9.08611 105.354 9.08611C105.594 9.02226 105.866 8.71895 106.187 8.19216C106.219 8.03253 106.299 7.96868 106.411 7.96868C106.539 8.0006 106.587 8.08042 106.587 8.19216C106.635 8.78281 106.731 9.07015 106.86 9.08611C107.084 9.18189 107.196 9.37345 107.196 9.6129C107.196 9.83638 107.116 10.012 106.94 10.1078C106.651 10.2834 106.027 10.3791 105.049 10.427L106.043 11.4806C106.203 11.6402 106.251 11.8318 106.171 12.0234C106.091 12.2149 105.818 12.2947 105.402 12.2788C105.322 12.2788 105.242 12.3267 105.21 12.4384C104.729 13.3004 104.216 14.0507 103.656 14.7052C104.745 15.2799 106.043 15.6151 107.516 15.7268C107.66 15.7268 107.725 15.7747 107.741 15.8865C107.741 15.9823 107.709 16.0621 107.58 16.11C106.924 16.3654 106.571 16.7804 106.475 17.3711C106.443 17.4828 106.331 17.5147 106.139 17.4668C104.809 17.0678 103.672 16.4292 102.711 15.5512C101.477 16.4931 99.9876 17.1157 98.2255 17.419C98.0974 17.4349 98.0173 17.403 98.0013 17.2912C98.0013 17.1795 98.0493 17.0997 98.1615 17.0678C99.6352 16.5569 100.917 15.8067 102.022 14.8329C101.317 13.9709 100.772 12.9333 100.356 11.736L99.475 11.8478C99.3148 11.8957 99.2347 11.8797 99.2187 11.8158C99.1706 11.6243 99.1226 11.4327 99.0745 11.2412C99.0745 11.1613 99.1386 11.1294 99.2507 11.1454L100.42 11.2412H103.736L104.601 10.3791C104.008 10.3153 103.624 10.1557 103.448 9.88427C103.207 9.56501 103.095 9.08611 103.095 8.46354V7.31418H101.958L101.445 7.37804V7.44189V7.61749C101.445 8.20813 101.349 8.71895 101.173 9.18189C100.853 9.94813 100.1 10.5068 98.9304 10.858C98.7702 10.9059 98.6741 10.874 98.626 10.7782C98.5779 10.6505 98.7862 10.443 99.2027 10.1716C99.7954 9.56501 100.084 8.71895 100.084 7.61749V7.44189C100.084 7.02684 100.084 6.59583 100.084 6.1329C100.084 5.97327 100.164 5.94134 100.308 6.02115C100.676 6.24464 101.125 6.51602 101.621 6.81932H103.095L103.448 6.24464L103.48 6.21271C102.006 5.1751 100.901 4.15345 100.212 3.16372C100.148 3.16372 100.1 3.19565 100.084 3.24354C98.9304 4.76005 97.3766 5.97327 95.4543 6.89914H97.0722L97.6969 6.27657C97.777 6.18079 97.8731 6.18079 97.9853 6.27657L98.8022 6.96299C98.9624 7.10666 99.0585 7.26629 99.0585 7.44189C99.0585 7.61749 98.8823 7.76116 98.5619 7.84097C98.4979 7.85694 98.4818 7.93675 98.4979 8.04849V10.1876C98.4979 10.3632 98.4178 10.459 98.3056 10.5228C97.9692 10.6505 97.6489 10.6824 97.3445 10.6026C97.2004 10.5547 97.1363 10.459 97.1363 10.3153V9.9162H94.9578C94.8456 10.5867 94.7335 11.289 94.6054 11.9755H96.7999L97.5688 11.0656C97.5688 11.0656 97.6969 11.0017 97.777 11.0656L98.8823 12.183C99.0425 12.3586 99.1066 12.5342 99.0585 12.7257C99.0105 12.9173 98.8182 13.029 98.4658 13.0769C98.3377 13.0769 98.2896 13.1727 98.2736 13.3802C98.0173 15.1202 97.793 16.2217 97.5848 16.6687C97.2484 17.2593 96.4795 17.5626 95.3102 17.6105C95.2621 16.7804 94.8777 16.2217 94.1568 15.9344C94.0127 15.8705 93.9646 15.7747 93.9967 15.663C94.0287 15.5512 94.1248 15.5034 94.253 15.5512C95.2141 15.8545 95.8548 15.9503 96.2232 15.8386C96.3354 15.7907 96.4155 15.6949 96.4956 15.5512C96.7358 14.9925 96.896 13.9709 96.9601 12.4703H94.9257L94.5092 12.5182C94.3811 12.9971 94.269 13.2525 94.1729 13.3004C93.7724 13.4122 93.436 13.3962 93.1797 13.3004C93.0516 13.2046 92.9875 13.1089 93.0195 13.0131C93.2918 12.0393 93.5321 10.7144 93.7404 9.05418C93.7564 8.94244 93.8204 8.89455 93.9005 8.92648C94.2209 9.10207 94.5893 9.27767 95.0218 9.45327H97.1203V7.37804H95.3903L94.4452 7.52171C94.333 7.52171 94.2369 7.48978 94.1729 7.40996C93.452 7.64941 92.7793 7.80905 92.1225 7.90483C91.9943 7.90483 91.9303 7.88886 91.9143 7.80905C91.8982 7.68134 91.9943 7.60152 92.2346 7.5696C95.6145 6.37235 97.8411 4.6962 98.9143 2.57308H94.9097L93.9646 2.71675C93.8365 2.76464 93.7564 2.76464 93.7404 2.71675C93.6763 2.50923 93.6122 2.30171 93.5642 2.07822C93.5642 2.01437 93.6122 1.9984 93.7404 2.01437L94.9097 2.11015H98.7702L99.7633 1.32794C99.8434 1.23216 99.9235 1.23216 99.9876 1.32794L100.853 2.28574C101.061 2.54115 101.109 2.76464 100.997 2.97216C100.949 3.03602 100.885 3.09987 100.805 3.1318C101.061 3.37125 101.349 3.6107 101.686 3.85015C102.519 3.1318 103.063 2.4773 103.319 1.8707C103.384 1.79088 103.448 1.77492 103.512 1.82281C103.832 1.98244 104.184 2.15804 104.601 2.33363C104.969 2.52519 105.114 2.73271 105.033 2.97216C104.921 3.19565 104.681 3.24354 104.329 3.1318C104.232 3.1318 104.152 3.1318 104.088 3.17969C103.528 3.62666 102.887 3.94593 102.15 4.20134C102.567 4.47271 103.015 4.72813 103.512 4.9995C104.537 4.23326 105.274 3.49895 105.722 2.76464C105.786 2.70079 105.85 2.68482 105.93 2.73271C106.251 2.92427 106.587 3.11583 106.988 3.32336C107.324 3.54684 107.452 3.75437 107.356 3.97785C107.228 4.20134 106.988 4.23326 106.635 4.0896C106.555 4.05767 106.459 4.05767 106.395 4.10556C105.69 4.61638 104.953 5.01547 104.184 5.28684C105.402 5.81363 106.651 6.16482 107.933 6.35638C108.061 6.35638 108.125 6.40427 108.141 6.4362C108.141 6.50005 108.125 6.57987 108.045 6.64372C107.516 6.99492 107.244 7.394 107.228 7.84097C107.196 7.93675 107.1 7.95271 106.924 7.90483C106.171 7.63345 105.45 7.33015 104.745 6.97895L104.729 7.01088ZM94.0928 3.38721C94.0928 3.38721 94.0287 3.27547 94.0607 3.19565C94.1248 3.11583 94.1889 3.09987 94.269 3.14776C94.5733 3.24354 94.8937 3.4351 95.2141 3.69051C95.5825 3.96189 95.8068 4.20134 95.8868 4.42482C96.015 4.66427 96.063 4.88776 96.031 5.11125C95.999 5.31877 95.8708 5.4784 95.6626 5.57418C95.4704 5.63804 95.2781 5.62207 95.0859 5.52629C94.9257 5.43051 94.8136 5.28684 94.7335 5.07932C94.5092 4.20134 94.301 3.62666 94.0928 3.38721ZM102.422 13.7793C102.519 13.8751 102.599 13.9549 102.679 14.0347C103.207 13.3164 103.592 12.5342 103.848 11.6722C103.816 11.6722 103.768 11.6881 103.688 11.7041H100.981C101.413 12.5501 101.894 13.2366 102.406 13.7634L102.422 13.7793ZM37.0508 8.38372H32.5176C31.172 10.5068 29.378 11.9914 27.1194 12.8534C26.9752 12.8854 26.8951 12.8534 26.847 12.7896C26.799 12.6938 26.847 12.598 26.9752 12.5342C28.6571 11.5125 30.0668 10.1237 31.1881 8.39969H28.3207L27.3116 8.54336C27.1994 8.55932 27.1354 8.54336 27.1194 8.46354C27.0713 8.28794 27.0232 8.09638 26.9431 7.88886C26.9431 7.82501 26.9912 7.80904 27.1354 7.82501L28.3207 7.93675H31.4604C31.8929 7.15455 32.1812 6.51602 32.3574 5.98923H30.1148L29.0896 6.1329C28.9775 6.14886 28.9134 6.1329 28.8974 6.06905C28.8493 5.89345 28.8013 5.70189 28.7212 5.49437C28.7212 5.43051 28.7693 5.41455 28.9134 5.41455L30.0988 5.54226H32.5016C32.7098 4.91969 32.886 4.32904 33.0462 3.80226H29.0576L28.0484 3.94593C27.9363 3.97785 27.8722 3.94593 27.8562 3.88207C27.8081 3.70648 27.7601 3.51492 27.68 3.29143C27.68 3.22758 27.7441 3.21161 27.8722 3.22758L29.0576 3.33932H33.1583C33.3025 2.71675 33.4306 2.03033 33.5428 1.31198C33.5748 1.20024 33.6389 1.15235 33.767 1.18427C34.2956 1.34391 34.8243 1.50354 35.3048 1.63125C35.7533 1.75895 35.9456 1.96648 35.8975 2.23785C35.8494 2.49326 35.5931 2.62097 35.1446 2.62097C35.0325 2.62097 34.9524 2.66886 34.9204 2.7806C34.8403 2.97216 34.7762 3.16372 34.7281 3.35528H38.5245L39.5818 2.174C39.6779 2.09418 39.758 2.09418 39.8381 2.174L41.3278 3.27547C41.504 3.40317 41.552 3.53088 41.52 3.64262C41.4559 3.75437 41.3438 3.81822 41.1676 3.83418H34.6C34.3757 4.3929 34.1675 4.96758 33.9432 5.57418H37.4513L38.4925 4.3929C38.5886 4.31308 38.6687 4.31308 38.7488 4.3929L40.2385 5.49437C40.4147 5.62207 40.4788 5.73382 40.4307 5.84556C40.3667 5.9573 40.2545 6.02115 40.0623 6.03712H36.2659C36.6504 6.70758 37.1149 7.36207 37.6595 7.98464H39.5017L40.5429 6.80336C40.639 6.72354 40.7191 6.72354 40.7992 6.80336L42.2729 7.90483C42.4491 8.03253 42.5131 8.14427 42.4651 8.27198C42.401 8.38372 42.2889 8.44758 42.0967 8.46354H38.06C39.4216 9.82042 40.9273 10.6984 42.5772 11.0975C42.7054 11.1294 42.7694 11.1773 42.7855 11.2571C42.7855 11.321 42.7214 11.3848 42.6093 11.4327C42.0166 11.6722 41.6481 12.0234 41.504 12.4703C41.4559 12.5501 41.3438 12.5501 41.1676 12.4703C39.5017 11.5285 38.1081 10.2035 37.0028 8.4795L37.0508 8.38372ZM29.2498 14.801C30.5473 14.6094 31.8608 14.1465 33.1743 13.4281C33.2705 13.3643 33.3506 13.3802 33.3986 13.4281C33.4467 13.5079 33.4467 13.5878 33.3666 13.6516C32.6778 14.3221 31.6206 15.0404 30.2109 15.8386C29.7784 16.0301 29.5542 16.2217 29.5702 16.3813C29.6182 16.6846 29.5221 16.8762 29.3139 16.9879C29.0576 17.0518 28.8654 16.9241 28.7052 16.5729C28.513 16.1259 28.3207 15.6949 28.1125 15.232C28.0484 15.0883 28.0805 15.0085 28.1926 14.9925C28.545 14.9287 28.8974 14.8648 29.2498 14.785V14.801ZM30.8356 11.1613C30.8356 11.1613 30.7556 11.0496 30.7716 10.9698C30.8196 10.89 30.8837 10.874 30.9798 10.9059C31.7968 11.0496 32.3574 11.3689 32.6618 11.8478C32.838 12.0712 32.9181 12.3107 32.902 12.5182C32.902 12.7417 32.7899 12.9013 32.6137 13.0131C32.4215 13.1089 32.2453 13.1248 32.0531 13.045C31.8608 12.9812 31.7167 12.8375 31.6045 12.63C31.2361 11.7839 30.9798 11.289 30.8356 11.1454V11.1613ZM35.6893 12.9173C36.314 12.3107 36.8266 11.4327 37.227 10.2993C37.2591 10.2195 37.3231 10.1876 37.4032 10.2355C37.8037 10.459 38.1721 10.6665 38.5406 10.858C38.8769 11.0336 38.9891 11.2252 38.909 11.4327C38.8129 11.6402 38.6046 11.6881 38.2843 11.5923C38.1881 11.5445 38.1241 11.5764 38.076 11.6402C37.5474 12.199 36.9387 12.6938 36.2499 13.1089C38.1721 13.7634 39.5337 14.5296 40.3186 15.3916C40.5429 15.7428 40.655 16.0621 40.655 16.3494C40.639 16.6368 40.5589 16.8283 40.4468 16.9401C40.3186 17.0358 40.1584 17.0678 39.9822 17.0678C39.822 17.0678 39.6779 16.956 39.5177 16.7804C38.2522 15.216 36.8106 14.0188 35.2247 13.2206V16.2696C35.2247 16.525 35.0645 16.7804 34.7922 17.0678C34.5039 17.3551 33.9913 17.5307 33.2544 17.6105C33.2865 17.1316 32.9341 16.6846 32.1652 16.2696C32.021 16.2217 31.9569 16.1259 31.973 15.9982C31.989 15.8865 32.0851 15.8386 32.2293 15.8705C32.6457 15.9503 33.0302 15.9982 33.3826 15.9982C33.5908 15.9982 33.719 15.9503 33.767 15.8705C33.8311 15.7747 33.8471 15.679 33.8311 15.5832V8.94244C33.8311 8.94244 33.8792 8.86262 33.9593 8.87859C34.4238 8.9584 34.8563 9.02226 35.2888 9.07015C35.7533 9.14996 35.9936 9.32556 35.9936 9.56501C35.9936 9.83638 35.7854 10.012 35.4009 10.0918C35.2728 10.1078 35.2087 10.1876 35.2247 10.2993V12.7736C35.3849 12.8215 35.5451 12.8694 35.6893 12.9173ZM36.7625 7.92079C36.3941 7.29822 36.0737 6.64372 35.7854 5.97327H33.767C33.3345 6.83528 33.0142 7.48978 32.8059 7.92079H36.7625ZM51.9961 13.476H50.9869L50.0418 13.6197C49.8977 13.6835 49.8176 13.6676 49.8016 13.6197C49.7535 13.4122 49.7055 13.2046 49.6574 12.9971C49.6574 12.9492 49.7055 12.9173 49.8176 12.9333L50.9869 13.029H52.0602C52.0762 12.598 52.0922 12.199 52.0922 11.8158C52.0922 11.7201 52.1563 11.6722 52.2524 11.6722C52.7169 11.736 53.2135 11.7999 53.6941 11.8797C54.0945 11.9435 54.2868 12.1032 54.2868 12.3586C54.2547 12.598 54.0465 12.7417 53.646 12.7896C53.5019 12.7896 53.4378 12.8694 53.4218 12.9812C53.4218 12.9971 53.4218 13.0131 53.4218 13.029H55.2158L56.1289 12.0872C56.225 11.9914 56.3211 12.0074 56.4012 12.1032L57.3463 13.0131C57.6026 13.2046 57.6987 13.4281 57.6667 13.6676C57.6026 13.8911 57.3943 14.0188 57.0419 14.0347C56.9458 14.0347 56.8818 14.1145 56.8657 14.2263C56.7536 15.4235 56.5774 16.2217 56.3211 16.6527C56.0007 17.2753 55.2639 17.6424 54.1266 17.7542C54.1266 17.1476 53.8863 16.6846 53.4057 16.3813C53.2295 16.3175 53.1655 16.2057 53.1975 16.0621C53.2455 15.9344 53.3417 15.8865 53.4858 15.9503C53.9664 16.078 54.3188 16.11 54.511 16.0621C54.7673 15.9823 54.9595 15.8386 55.1037 15.6151C55.2799 15.2479 55.392 14.5456 55.4241 13.5079H53.3417C53.2776 13.8911 53.1655 14.2423 53.0373 14.6094C52.3966 16.2536 51.067 17.2593 49.0807 17.6105C48.9366 17.6424 48.8565 17.6105 48.8405 17.5307C48.8405 17.419 48.8725 17.3391 48.9846 17.3072C49.4331 17.1476 49.8817 16.9081 50.3462 16.6048C51.2753 15.9184 51.8359 14.8968 52.0121 13.5079L51.9961 13.476ZM57.923 10.9538C58.1472 10.427 58.2914 9.9162 58.3715 9.42134C58.4195 9.24574 58.4996 9.16593 58.6118 9.21382C59.0122 9.38941 59.4287 9.54905 59.8612 9.69271C60.2456 9.83638 60.4058 10.0439 60.3257 10.2993C60.2456 10.5228 60.0214 10.5867 59.669 10.5228C59.5889 10.5228 59.3166 10.6665 58.9001 10.9538H61.5752L62.6324 9.77253C62.7285 9.69271 62.8086 9.69271 62.8887 9.77253L64.3624 10.874C64.5386 11.0017 64.6027 11.1134 64.5546 11.2412C64.4905 11.3529 64.3784 11.4168 64.1862 11.4327H50.3782L49.3691 11.5604C49.2569 11.5923 49.1929 11.5604 49.1768 11.4966C49.1288 11.321 49.0807 11.1294 49.0006 10.9059C49.0006 10.8421 49.0487 10.8261 49.1929 10.8421L50.3782 10.9698H54.4149L54.3668 10.89C54.2227 10.2355 54.0945 9.83638 53.9824 9.70868C53.9183 9.64482 53.9023 9.58097 53.9183 9.50116C53.9504 9.42134 54.0144 9.40538 54.1266 9.4373C54.7513 9.53308 55.1998 9.75657 55.4401 10.1078C55.6163 10.3951 55.6643 10.6824 55.6003 10.9857H57.939L57.923 10.9538ZM56.0168 4.96758V3.49895H50.7306L49.7215 3.64262C49.6093 3.65859 49.5453 3.64262 49.5293 3.57877C49.4812 3.40317 49.4331 3.21161 49.3531 2.98813C49.3531 2.94024 49.4011 2.90831 49.5453 2.92427L50.7306 3.05198H56.0168V1.24813C56.0168 1.24813 56.0488 1.15235 56.1129 1.16831C56.5774 1.24813 57.0419 1.32794 57.5385 1.40776C57.987 1.48758 58.2113 1.64721 58.2113 1.90262C58.2113 2.22189 57.987 2.41345 57.5545 2.46134C57.4424 2.49326 57.3783 2.55712 57.3783 2.63693V3.05198H61.1427L62.1999 1.8707C62.296 1.79088 62.3761 1.79088 62.4562 1.8707L63.9459 2.97216C64.1221 3.09987 64.1862 3.21161 64.1381 3.33932C64.0741 3.45106 63.9619 3.51492 63.7697 3.53088H57.3943V4.9995H59.9093L60.9184 3.86611C61.0145 3.78629 61.0946 3.78629 61.1747 3.86611L62.5523 4.91969C62.7285 5.04739 62.7926 5.15914 62.7445 5.27088C62.6805 5.38262 62.5683 5.44648 62.3761 5.46244H52.0121L50.9869 5.60611C50.8748 5.63804 50.8107 5.60611 50.7947 5.54226C50.7467 5.36666 50.6826 5.1751 50.6185 4.95161C50.6185 4.88776 50.6666 4.8718 50.8107 4.88776L51.9961 5.01547H55.9847L56.0168 4.96758ZM53.3897 9.00629V9.51712C53.3897 9.6129 53.3417 9.69271 53.2616 9.77253C52.8771 9.93217 52.5247 9.96409 52.1723 9.83638C52.0762 9.7885 52.0442 9.70868 52.0442 9.59694V6.11693C52.0442 6.11693 52.0281 5.97326 52.0281 5.90941C52.0281 5.87748 52.0762 5.86152 52.1563 5.87748C52.4606 6.03712 52.813 6.22868 53.1975 6.45216L53.8382 6.48409H60.1335L60.7582 5.86152C60.8383 5.76574 60.9344 5.76574 61.0466 5.86152L61.8635 6.54794C62.0397 6.69161 62.1198 6.85125 62.1198 7.02684C62.1198 7.2184 61.9436 7.34611 61.6232 7.42593C61.5592 7.45785 61.5431 7.50574 61.5592 7.63345V9.34152C61.5592 9.51712 61.4791 9.62886 61.3669 9.67675C61.0306 9.80446 60.7102 9.83638 60.4058 9.75657C60.2617 9.70868 60.1976 9.6129 60.1976 9.46923V9.00629H53.4218H53.3897ZM53.3897 8.54336H60.1656V6.94703H53.8222L53.3897 6.99492V8.54336ZM59.1083 16.509V17.2274C59.1083 17.3072 59.0443 17.403 58.9802 17.4828C58.5957 17.6424 58.2433 17.6744 57.8909 17.5467C57.7948 17.4988 57.7628 17.419 57.7628 17.3072V12.3745C57.7628 12.3745 57.7468 12.2309 57.7468 12.167C57.7468 12.1351 57.7948 12.1191 57.8749 12.1351C58.1793 12.3107 58.5477 12.5023 58.9642 12.7257H61.9917L62.6164 12.1191C62.6965 12.0234 62.7926 12.0234 62.9047 12.1191L63.7217 12.8056C63.8979 12.9492 63.978 13.1089 63.978 13.2845C63.978 13.4601 63.8018 13.6037 63.4814 13.6835C63.4333 13.6995 63.4013 13.7793 63.4173 13.8911V17.0518C63.4173 17.2274 63.3372 17.3232 63.2251 17.3711C62.8887 17.5147 62.5683 17.5307 62.264 17.4509C62.1198 17.403 62.0557 17.3072 62.0557 17.1635V16.4931H59.1404L59.1083 16.509ZM59.1083 16.0461H62.0237V13.2046H59.4768L59.1083 13.2525V16.0301V16.0461ZM18.0849 0.944824H17.2359C10.6844 2.58904 6.55157 5.12721 7.46463 7.47382C7.83305 8.43161 9.00241 9.37345 10.7164 9.99602C11.9819 10.443 13.5517 10.7942 15.3778 11.0336H15.4739L17.0437 5.36666H23.0667L24.252 0.944824H18.0689L18.0849 0.944824ZM15.3137 10.7782C13.5837 10.5388 12.078 10.2035 10.8606 9.77253L12.078 5.3507H16.8194L15.3137 10.7623V10.7782ZM22.9065 5.12721H17.1558L18.181 1.18427H23.9637L22.9065 5.12721ZM10.5242 10.5707L10.412 10.5388C7.84907 9.86831 6.00694 9.03822 5.23806 7.92079L2.37074 18.3927H13.4716L15.3938 11.4168H15.2496C13.5036 11.2092 11.9178 10.9219 10.5242 10.5547V10.5707ZM13.2794 18.1533H8.53787L10.5722 10.8261C11.9178 11.1613 13.4235 11.4327 15.0894 11.6243L13.2794 18.1533ZM15.5219 0.944824H1.1213L0 5.33473H5.41426C6.80787 3.51492 10.5402 1.96648 15.5219 0.944824Z" fill="white"/>
<path d="M7.35259 24.2672C6.88805 25.7518 6.29537 27.6354 5.78277 28.9764C6.87203 30.3173 7.08028 31.4826 7.08028 32.4564C7.08028 33.5738 6.84 34.2602 6.27935 34.6753C6.02305 34.8828 5.68666 34.9945 5.2862 35.0424C4.96583 35.0903 4.53333 35.0903 4.14889 35.0903C4.13287 34.5635 3.97268 33.7813 3.68435 33.2865C3.9887 33.3184 4.245 33.3184 4.43722 33.3024C4.62944 33.3024 4.78963 33.2705 4.94981 33.1747C5.15805 33.0151 5.23815 32.6799 5.23815 32.201C5.23815 31.4187 4.99787 30.3332 4.02074 29.1839C4.38916 28.0984 4.77361 26.5499 5.04592 25.3527H3.5562V38.6501H1.66602V23.5648H5.68666L5.975 23.485L7.35259 24.2832V24.2672ZM11.165 27.396C11.133 28.0984 11.1169 28.7529 11.0689 29.4074H15.7463C15.7463 29.4074 15.7303 29.998 15.7303 30.2534C15.5541 35.1861 15.3939 37.1336 14.8813 37.7721C14.4969 38.283 14.0964 38.4426 13.5357 38.5384C13.0392 38.6182 12.2062 38.6182 11.3412 38.5863C11.3092 37.9956 11.0689 37.1655 10.7325 36.5909C11.5014 36.6707 12.1742 36.6866 12.5106 36.6866C12.7829 36.6866 12.9591 36.6228 13.0872 36.4312C13.3916 36.096 13.5678 34.7072 13.6639 31.2272H10.8927C10.4762 34.4039 9.41898 36.9261 6.43953 38.5703C6.18324 38.0754 5.60657 37.389 5.14203 37.0059C8.79426 35.0903 9.05055 31.754 9.14666 27.38H6.96815V25.5123H11.1009C10.9728 24.8738 10.6844 23.9 10.4281 23.1657L12.2863 22.7188C12.5906 23.469 12.9431 24.4907 13.0872 25.1132L11.6936 25.5123H16.6593V27.38H11.181L11.165 27.396Z" fill="white"/>
<path d="M23.5312 36.8785C23.2589 36.2719 22.7784 35.33 22.3138 34.5319C21.9614 35.9366 21.3527 37.2775 20.3435 38.4429C20.0873 38.0597 19.5106 37.4531 19.1422 37.2137C20.744 35.2183 21.1605 32.744 21.2406 30.2697L19.831 30.7166C19.7188 29.5353 19.3664 27.5719 19.03 26.0713L20.3916 25.7361C20.744 27.1568 21.1285 28.9766 21.2566 30.126C21.2726 29.663 21.2726 29.232 21.2726 28.7851V23.0063H22.8905V28.801C22.8905 29.1682 22.8905 29.5513 22.8745 29.9344C23.1468 28.7851 23.4511 26.9812 23.5473 25.7201L25.1171 26.2629C24.7326 27.6357 24.3482 29.3438 24.0118 30.3974L22.8905 29.9504C22.8745 30.7485 22.8424 31.5786 22.7303 32.3768C23.307 33.2069 24.5084 35.1863 24.7967 35.6493L23.5152 36.8944L23.5312 36.8785ZM33.0142 32.3768C33.671 32.9196 34.552 33.3985 35.3529 33.6698C35.0165 33.9572 34.552 34.4999 34.3117 34.8671C33.2064 34.3563 32.0531 33.3506 31.3803 32.3768H28.4169C27.632 33.3027 26.2544 34.3084 25.053 34.7873C24.8127 34.4201 24.3642 33.8614 23.9958 33.5741C24.8287 33.3186 25.7738 32.9036 26.4786 32.3928H24.4123V30.988H26.9272V30.2058H24.9409V28.833H26.9272V28.1306H25.3573V23.2458H34.1035V28.1306H32.4055V28.833H34.4078V30.2058H32.4055V30.988H34.8723V32.3928H32.9982L33.0142 32.3768ZM33.1904 34.5478C32.854 34.9309 32.4535 35.346 32.1011 35.6972C33.0302 36.1601 33.8792 36.6071 34.4719 37.0062L33.3986 38.1396C32.7579 37.6766 31.7167 37.07 30.6435 36.5113V37.07C30.6435 37.8363 30.5153 38.1874 29.9867 38.4109C29.4741 38.6504 28.8173 38.6663 27.8723 38.6663C27.7922 38.2194 27.5198 37.6287 27.2796 37.2456C27.8562 37.2616 28.4329 37.2616 28.6091 37.2456C28.8013 37.2456 28.8654 37.2137 28.8654 37.0381V36.4155C27.5359 37.0062 26.1583 37.6128 25.037 38.0757L24.4283 36.7029C25.5656 36.3357 27.2155 35.6812 28.8654 35.0267V32.8078H30.6435V35.0267L30.8998 35.1385C31.3002 34.7394 31.7487 34.2126 32.0371 33.8135L33.1744 34.5478H33.1904ZM27.5359 33.606C27.8883 33.9252 28.3528 34.4201 28.545 34.7394L27.3436 35.6014C27.1674 35.2342 26.767 34.7394 26.3985 34.3722L27.5519 33.606H27.5359ZM27.1354 25.1295H32.2934V24.4909H27.1354V25.1295ZM27.1354 26.9014H32.2934V26.2788H27.1354V26.9014ZM28.7693 28.833H30.6114V28.1306H28.7693V28.833ZM28.7693 30.988H30.6114V30.2058H28.7693V30.988Z" fill="white"/>
<path d="M53.1817 27.5876V29.0243H50.1061L49.9779 30.3492H40.2067L40.3829 29.0243H37.7078V27.5876H40.5751L40.7513 26.2946H50.3624L50.2503 27.5876H53.1817ZM48.6644 36.3195C50.1541 36.7186 51.6599 37.1656 52.653 37.4848L51.2754 38.714C50.058 38.2511 48.0717 37.5806 46.1175 37.0698L46.8063 36.3036H43.6987L44.7239 37.0538C43.2982 37.7881 40.9115 38.4426 38.9412 38.73C38.7009 38.3469 38.2204 37.7243 37.8679 37.3571C39.3577 37.1496 41.1197 36.7665 42.3371 36.3036H39.9023V30.8122H50.9711V36.3036H48.6484L48.6644 36.3195ZM39.9984 27.1406H38.1883V24.1874H44.3875C44.2593 23.8362 44.0671 23.4691 43.8909 23.1658L45.6529 22.6709C45.9413 23.1338 46.2456 23.6926 46.4379 24.1714H52.637V27.1247H50.7468V25.7359H39.9984V27.1247V27.1406ZM41.8726 32.3447H48.9367V31.8498H41.8726V32.3447ZM41.8726 33.8292H48.9367V33.3025H41.8726V33.8292ZM41.8726 35.3138H48.9367V34.7711H41.8726V35.3138ZM42.1449 29.3436H44.3875L44.4516 28.8008H42.209L42.1449 29.3436ZM42.4012 27.3162L42.3371 27.8111H44.5637L44.6117 27.3162H42.4012ZM48.2319 29.3436L48.28 28.8008H46.1015L46.0374 29.3436H48.2319ZM48.4081 27.3162H46.2616L46.2296 27.8111H48.3761L48.4081 27.3162Z" fill="white"/>
<path d="M65.5638 28.753C66.9735 31.339 69.3602 33.8612 71.8431 35.2181C71.3465 35.6172 70.6577 36.4153 70.3374 36.9741C68.1909 35.6012 66.2366 33.4302 64.7469 31.0038V38.6342H62.5844V31.0836C61.1107 33.5419 59.1564 35.681 56.9779 37.0379C56.6415 36.5111 55.9367 35.7289 55.4722 35.3139C57.9871 33.957 60.3098 31.4029 61.7034 28.753H56.2571V26.7575H62.6004V22.8306H64.7629V26.7575H71.1383V28.753H65.5799H65.5638Z" fill="white"/>
<path d="M83.4726 29.4552C84.5939 32.7596 86.6443 35.4095 89.832 36.7025C89.3194 37.1335 88.6626 38.0274 88.3423 38.6021C85.2667 37.1654 83.2964 34.6911 81.9669 31.4186C81.0538 34.2441 79.2117 36.894 75.6076 38.6181C75.2872 38.0594 74.6945 37.3251 74.1018 36.91C77.9943 35.186 79.6122 32.3764 80.2689 29.4552H74.4222V27.3799H80.6053C80.7815 25.7836 80.7495 24.2511 80.7815 22.8623H82.9921C82.9761 24.2511 82.9601 25.8155 82.7838 27.3799H89.4636V29.4552H83.4887H83.4726Z" fill="white"/>
<path d="M99.5552 30.03H95.0861V38.6502H93.0837V23.501H99.5552V30.014V30.03ZM95.0861 25.1452V26.0232H97.665V25.1452H95.0861ZM97.665 28.4336V27.4758H95.0861V28.4336H97.665ZM107.388 36.2237C107.388 37.3731 107.148 37.9637 106.395 38.267C105.658 38.6023 104.537 38.6342 102.903 38.6342C102.823 38.0595 102.503 37.1177 102.182 36.5749C103.255 36.6388 104.505 36.6228 104.873 36.6228C105.242 36.6228 105.354 36.5111 105.354 36.1758V30.0779H100.757V23.5169H107.404V36.2078L107.388 36.2237ZM102.663 25.1452V26.0232H105.354V25.1452H102.663ZM105.354 28.4656V27.4599H102.663V28.4656H105.354Z" fill="white"/>
</g>
<defs>
<clipPath id="clip0_12_945">
<rect width="108.125" height="37.8011" fill="white" transform="translate(0 0.944824)"/>
</clipPath>
</defs>
</svg>
