<svg width="56" height="52" viewBox="0 0 56 52" fill="none" xmlns="http://www.w3.org/2000/svg">
<g clip-path="url(#clip0_12_1071)">
<path d="M3.39217 17.8091L0.268555 34.0597H52.537L55.6766 17.8091H3.39217ZM22.262 22.1192H17.921L15.8546 32.8784H12.1223L14.1886 22.1192H9.84763L10.4083 19.1979H22.8226L22.262 22.1192ZM29.5344 32.8784H25.8021L27.8685 22.1192H23.5274L24.0881 19.1979H38.3125L36.4544 22.1192H31.6008L29.5344 32.8784ZM44.2714 32.8784H42.4293L42.3332 30.9469H38.1363L36.967 32.8784H32.9784L41.6444 19.1979H44.6879L46.4179 32.8784H44.2714Z" fill="white"/>
<path d="M39.7542 28.2493H42.205L42.0128 24.4819L39.7542 28.2493Z" fill="white"/>
<path d="M40.1707 14.0257H51.3997C51.2715 13.7703 51.1274 13.5148 50.9832 13.2754H39.3538C39.6421 13.5148 39.9144 13.7703 40.1707 14.0257Z" fill="white"/>
<path d="M42.253 16.5003H52.5369C52.4408 16.2449 52.3287 15.9894 52.2165 15.75H41.6924C41.8846 16.0054 42.0608 16.2449 42.253 16.5003Z" fill="white"/>
<path d="M18.6417 12.0464H6.13129C5.9711 12.2858 5.81091 12.5412 5.66675 12.7967H17.6005C17.9369 12.5253 18.2893 12.2858 18.6417 12.0464Z" fill="white"/>
<path d="M15.7265 14.5205H4.72179C4.59364 14.76 4.48151 15.0154 4.36938 15.2708H15.0698C15.278 15.0154 15.5023 14.76 15.7425 14.5205H15.7265Z" fill="white"/>
<path d="M38.7609 12.7967H50.6947C50.5506 12.5412 50.3904 12.2858 50.2302 12.0464H37.7197C38.0721 12.2858 38.4245 12.5253 38.7609 12.7967Z" fill="white"/>
<path d="M14.6532 15.75H4.14508C4.03295 16.0054 3.93684 16.2449 3.82471 16.5003H14.1086C14.2848 16.2449 14.477 15.9894 14.6532 15.75Z" fill="white"/>
<path d="M28.1728 9.15696C31.3765 9.15696 34.388 10.0349 36.9509 11.5674H49.9099C45.2165 4.67127 37.2393 0.137695 28.1728 0.137695C19.1063 0.137695 11.1451 4.67127 6.45166 11.5674H19.4106C21.9736 10.0349 24.9691 9.15696 28.1728 9.15696Z" fill="white"/>
<path d="M17.0078 13.2754H5.3784C5.23423 13.5308 5.09006 13.7703 4.96191 14.0257H16.1909C16.4472 13.7703 16.7195 13.5148 17.0078 13.2754Z" fill="white"/>
<path d="M41.3079 15.2708H52.0083C51.8961 15.0154 51.768 14.76 51.6558 14.5205H40.6511C40.8754 14.76 41.0996 15.0154 41.3079 15.2708Z" fill="white"/>
<path d="M39.3376 38.6253H50.9671C51.1113 38.3699 51.2554 38.1304 51.3836 37.875H40.1546C39.8983 38.1304 39.61 38.3858 39.3376 38.6253Z" fill="white"/>
<path d="M41.6924 36.1507H52.2165C52.3287 35.8953 52.4248 35.6558 52.5369 35.4004H42.253C42.0768 35.6558 41.8846 35.9112 41.6924 36.1507Z" fill="white"/>
<path d="M17.6005 39.104H5.66675C5.82693 39.3594 5.9711 39.6148 6.13129 39.8543H18.6417C18.2893 39.6148 17.9369 39.3594 17.6005 39.104Z" fill="white"/>
<path d="M15.0536 36.6299H4.35327C4.4654 36.8853 4.59355 37.1247 4.70568 37.3802H15.7104C15.4861 37.1407 15.2619 36.8853 15.0376 36.6299H15.0536Z" fill="white"/>
<path d="M37.7197 39.8543H50.2302C50.3904 39.5989 50.5506 39.3594 50.6947 39.104H38.7609C38.4245 39.3754 38.0721 39.6148 37.7197 39.8543Z" fill="white"/>
<path d="M14.1086 35.3848H3.82471C3.92082 35.6402 4.03295 35.8956 4.14508 36.135H14.6692C14.477 35.8956 14.3008 35.6402 14.1246 35.3848H14.1086Z" fill="white"/>
<path d="M28.1728 42.744C24.9691 42.744 21.9576 41.866 19.4106 40.3335H6.45166C11.1451 47.2137 19.1223 51.7473 28.1728 51.7473C37.2232 51.7473 45.2005 47.2137 49.8939 40.3335H36.9349C34.3719 41.85 31.3765 42.744 28.1568 42.744H28.1728Z" fill="white"/>
<path d="M16.2069 37.8589H4.96191C5.10608 38.1143 5.23423 38.3538 5.3784 38.6092H17.0078C16.7195 38.3697 16.4472 38.1143 16.1909 37.8589H16.2069Z" fill="white"/>
<path d="M40.6353 37.3802H51.64C51.7521 37.1247 51.8803 36.8853 51.9924 36.6299H41.292C41.0838 36.8853 40.8595 37.1407 40.6353 37.3802Z" fill="white"/>
</g>
<defs>
<clipPath id="clip0_12_1071">
<rect width="55.4081" height="51.6253" fill="white" transform="translate(0.268555 0.137695)"/>
</clipPath>
</defs>
</svg>
