<svg viewBox="0 0 483 132" fill="#604C3F" xmlns="http://www.w3.org/2000/svg">
<path d="M123.8,53.8c2.4-0.1,2.8,3.8,0.2,3.8c0,0-7.3,0.5-7.3,0.5c-50.6,88.6-69.6,104.5-4.6,0.3l-57.7,3.6
	c-10.6,8.1-22.2,17.1-34.8,26.9c-0.8,0.7-2,0.5-2.7-0.3c-0.7-0.8-0.6-2.2,0.3-2.7c10.9-8.5,21-16.4,30.4-23.5l-37.1,2.4
	c2.1,1.2,0.4,4.2-1.8,3.4c-0.9-0.6-7.6-2.8-7.8-4.1c-0.6-1.7,1.1-2.7,2.5-2.8c0,0,49.7-3.1,49.7-3.1c26.3-19.6,50.5-39.2,77.8-54
	c27.1-11.2,6,17.5-11.8,49.7L123.8,53.8L123.8,53.8z M60,58l54.5-3.5c17-29.9,26.7-45.1,25.4-48.9c-7.7,1.2-13.8,6.1-20.8,10.1
	C100.6,27.6,85.8,38.5,60,58z M131.1,76.6c-0.5,4.2-5.9,7.9-5.5,1.3c0.6-3.8,5.4-29.1,11.8-21.8c12.5-8.3,15.6,14,1.5,13.3
	c15.5,7.1,34.5-3.8,48.4-10c11.5,5.1-51.6,26.9-52.9,9.2C133.4,70.7,132.3,73.4,131.1,76.6L131.1,76.6z M143.3,58.7
	c-3.4-2.2-4.8,2-7.8,7.4c1.7-1.7,4.4,0.4,6.5-1.1C144.2,63.6,145.7,60.4,143.3,58.7L143.3,58.7z M244.5,18.6
	c6.6,6.8-25.5,9-38.1,9.4c-31.2,49.3-9.2,50.8,30.3,31.4c1.5-0.7,3.2,1.1,2.5,2.6c-1.3,1.7-2.2,1.2-5.4,2.9
	c-49.3,23.9-57.1,2.2-31.9-36.8c-3.3,0.1-89-1.6-71.6-8.5c18.8,2.5,53,5,73.9,4.6c2.1-1.9,13.9-25.5,17.6-23
	c3.4,1.7-12.2,19.8-13,22.9C225.9,23.8,236,20.8,244.5,18.6L244.5,18.6z M260.7,62.7c-19.4,25.5-34.8,7.7-19.2-1.8
	c3.3-1.6,5.6-3.9,8.8-3.6c1.5,0.6,1.4,3-0.1,3.5c-23.2,9.7-6.4,20.9,10.7-4.4c0.7-72.6,59.6-74.8,4,1.1c0.4,3.9,1.3,6.8,2.6,8.6
	c11.4,3.5,36-3.5,52.1-6.9c2.4-0.5,3.3,3.2,0.9,3.7c-14.8,3.4-32.8,7.9-47.9,7.9c-8.3-0.2-9.3-2.7-11-9.3
	C261.3,62,261,62.4,260.7,62.7z M284.8,5.6c-14.3,3.3-19.6,32.5-20.2,45.8c8-13.3,20.4-30,20.4-45.8H284.8L284.8,5.6z M379.1,62.9
	c-12.2,6.8-28.5,13.8-43.1,14c-15,1-27.3-13.4-9.2-19.8c3.7-1.2,10.5-2.4,11.7,1.8c2.1,9.5-5.7,11.3-15.8,9.7
	C340.7,85.6,386.9,49.4,379.1,62.9L379.1,62.9z M326.8,61.3c-2.2,1-3.8,2-4.7,3.2c6.5,1.2,10.6,1,12.2-0.8
	C337.6,58.1,330.3,59.7,326.8,61.3L326.8,61.3z M401.5,71.7c-12.3,3-39,10.2-28.9-5.9c-0.1,0.4,15.2-17.2,16-9.5
	c-10.6,10.6-27.6,20,2.5,13.8c10.5-2.2,22.2-5.5,35.2-9.8c0.9-0.3,2.2,0.2,2.4,1.2C430.3,65.7,404,70.3,401.5,71.7L401.5,71.7z
	 M481.2,63.1c-11.6,3.6-30.7,14.3-42,4.8c-4.6,6.2-14,5.1-13.1-3.4c-0.1-3.6,5-10.7,8.7-7.4c1,1.3-0.4,3.3-1.9,3
	c-1.4,0.7-3,3.1-2.9,4.8c-0.6,5.1,4.5,3.2,6.6,0.2c-5.2-7.6,7.9-8.2,4.8-0.4C450.4,76.5,489.8,50.9,481.2,63.1L481.2,63.1z"/>
</svg>
