<svg width="60" height="60" viewBox="0 0 60 60" xmlns="http://www.w3.org/2000/svg">
<style type="text/css">
	.st0{
fill:none;stroke:#803031;stroke-width:2;
stroke-dasharray:158;
    transform-origin: 50%;
stroke-dashoffset:158;
animation: letterDraw 3s linear infinite;
}
@keyframes letterDraw {
  48% { stroke-dashoffset: 0;transform: rotate(360deg);}
  52% { stroke-dashoffset: 0;transform: rotate(360deg);}
  100% { stroke-dashoffset: 158;transform: rotate(1080deg);}
}
</style>
<path class="st0" d="M55,30c0,13.8-11.2,25-25,25S5,43.8,5,30S16.2,5,30,5S55,16.2,55,30z"/>
<path fill="#803031" d="M52.5,30C52.5,17.6,42.4,7.5,30,7.5S7.5,17.6,7.5,30c0,12.4,10.1,22.5,22.5,22.5S52.5,42.4,52.5,30z"/>
<path fill="#FFF" d="M34.4,23.5v13.6L46,29.9L34.4,23.5z M19,23.7l-0.3-0.2c1.3-1.7,2.4-3.5,2.8-5.7c2.2,0.5,1.1,0.9,0.6,1C21.5,20.7,20.2,22.5,19,23.7z M20.6,20.6c1.5,0.5,1.5,0.5,0.8,0.9v7.4c0,0.5-0.8,0.5-0.8,0V20.6z M29.2,24.9c1.2,0.8,0.9,1,0.7,1h-3.8V29c0,0.5-0.8,0.5-0.8,0v-8.6h-1.1c-0.5,1.1-1.1,2-1.9,2.9L22.1,23c1.1-1.6,1.9-3.3,2.2-5.2c2.1,0.5,1.2,0.8,0.6,1c-0.2,0.5-0.3,0.9-0.5,1.2h4.4l0.7-0.7c1.4,0.9,1,1.1,0.8,1.1h-4.2v2.4h2.3l0.7-0.7c1.3,0.9,0.9,1,0.7,1h-3.8v2.4h2.3L29.2,24.9zM19.4,41.2c0-4.6,0-4.9-0.1-5.2l0.9,0.5H23l0.4-0.5c1.4,0.7,0.7,1,0.4,1.2v3.9c0,0.5-0.7,0.5-0.7,0v-0.4h-2.9v0.6C20.1,41.7,19.4,41.7,19.4,41.2z M23,40.3v-3.5h-2.9v3.5H23z M21.5,35c0-3.9,0-4.2-0.1-4.5l0.9,0.5h4.4l0.4-0.5c1.4,0.8,0.7,1,0.4,1.2v3.2c0,0.5-0.7,0.5-0.7,0v-0.3h-4.5V35C22.2,35.5,21.5,35.5,21.5,35z M26.8,34.2v-2.9h-4.5v2.9H26.8zM25.4,41.2c0-4.6,0-4.8-0.1-5.2l0.9,0.5l2.9,0l0.4-0.5c1.4,0.8,0.7,1,0.4,1.2l0,3.9c0,0.5-0.7,0.5-0.7,0v-0.4h-3.1v0.6C26.2,41.7,25.4,41.7,25.4,41.2z M29.2,40.3v-3.5h-3.1v3.5H29.2z"/>
</svg>
