<?xml version="1.0" encoding="utf-8"?>
<!-- Generator: Adobe Illustrator 25.4.1, SVG Export Plug-In . SVG Version: 6.00 Build 0)  -->
<svg version="1.1" xmlns="http://www.w3.org/2000/svg" xmlns:xlink="http://www.w3.org/1999/xlink" x="0px" y="0px"
	 viewBox="0 0 408 293" style="enable-background:new 0 0 408 293;" xml:space="preserve">
<style type="text/css">
.bg{fill:#606060;}
#img{stroke-linecap:round;stroke-miterlimit:10;fill:none;stroke:#FFFFFF;}

.mask01{clip-path:url(#mask01);}
.mask02{clip-path:url(#mask02);}
.mask03{clip-path:url(#mask03);}
.mask04{clip-path:url(#mask04);}
.mask05{clip-path:url(#mask05);}
.mask06{clip-path:url(#mask06);}
.sw-18{stroke-width:18;}
.sw-19{stroke-width:19;}
.sw-20{stroke-width:20;}
.sw-21{stroke-width:21;}
.sw-22{stroke-width:22;}
.sw-23{stroke-width:23;}
.sw-24{stroke-width:24;}
.sw-25{stroke-width:25;}
.sw-26{stroke-width:26;}
.sw-27{stroke-width:27;}
.sw-29{stroke-width:29;}
.sw-30{stroke-width:30;}
.sw-33{stroke-width:33;}
.an01	{stroke-dasharray:	20	;stroke-dashoffset:	20	;animation: letterDraw	0.052s  	0s linear forwards;}
.an02	{stroke-dasharray:	102	;stroke-dashoffset:	102	;animation: letterDraw	0.2652s 	0.052s linear forwards;}
.an03	{stroke-dasharray:	35	;stroke-dashoffset:	35	;animation: letterDraw	0.091s  	0.3172s linear forwards;}
.an04	{stroke-dasharray:	18	;stroke-dashoffset:	18	;animation: letterDraw	0.0468s 	0.4082s linear forwards;}
.an05	{stroke-dasharray:	125	;stroke-dashoffset:	125	;animation: letterDraw	0.325s  	0.455s linear forwards;}
.an06	{stroke-dasharray:	18	;stroke-dashoffset:	18	;animation: letterDraw	0.0468s 	0.78s linear forwards;}
.an07	{stroke-dasharray:	112	;stroke-dashoffset:	112	;animation: letterDraw	0.2912s 	0.8268s linear forwards;}
.an08	{stroke-dasharray:	115	;stroke-dashoffset:	115	;animation: letterDraw	0.299s  	1.118s linear forwards;}
.an09	{stroke-dasharray:	26	;stroke-dashoffset:	26	;animation: letterDraw	0.0676s 	1.417s linear forwards;}
.an10	{stroke-dasharray:	23	;stroke-dashoffset:	23	;animation: letterDraw	0.0598s 	1.4846s linear forwards;}
.an11	{stroke-dasharray:	17	;stroke-dashoffset:	17	;animation: letterDraw	0.0442s 	1.5444s linear forwards;}
.an12	{stroke-dasharray:	75	;stroke-dashoffset:	75	;animation: letterDraw	0.195s  	1.5886s linear forwards;}
.an13	{stroke-dasharray:	34	;stroke-dashoffset:	34	;animation: letterDraw	0.0884s 	1.7836s linear forwards;}
.an14	{stroke-dasharray:	40	;stroke-dashoffset:	40	;animation: letterDraw	0.104s  	1.872s linear forwards;}
.an15	{stroke-dasharray:	107	;stroke-dashoffset:	107	;animation: letterDraw	0.2782s 	1.976s linear forwards;}
.an16	{stroke-dasharray:	24	;stroke-dashoffset:	24	;animation: letterDraw	0.0624s 	2.2542s linear forwards;}
.an17	{stroke-dasharray:	63	;stroke-dashoffset:	63	;animation: letterDraw	0.1638s 	2.3166s linear forwards;}
.an18	{stroke-dasharray:	152	;stroke-dashoffset:	152	;animation: letterDraw	0.3952s 	2.4804s linear forwards;}
.an19	{stroke-dasharray:	15	;stroke-dashoffset:	15	;animation: letterDraw	0.039s  	2.8756s linear forwards;}
.an20	{stroke-dasharray:	23	;stroke-dashoffset:	23	;animation: letterDraw	0.0598s 	2.9146s linear forwards;}
.an21	{stroke-dasharray:	64	;stroke-dashoffset:	64	;animation: letterDraw	0.1664s 	2.9744s linear forwards;}
.an22	{stroke-dasharray:	35	;stroke-dashoffset:	35	;animation: letterDraw	0.091s  	3.1408s linear forwards;}
.an23	{stroke-dasharray:	72	;stroke-dashoffset:	72	;animation: letterDraw	0.1872s 	3.2318s linear forwards;}
.an24	{stroke-dasharray:	47	;stroke-dashoffset:	47	;animation: letterDraw	0.1222s 	3.419s linear forwards;}
.an25	{stroke-dasharray:	72	;stroke-dashoffset:	72	;animation: letterDraw	0.1872s 	3.5412s linear forwards;}
.an26	{stroke-dasharray:	46	;stroke-dashoffset:	46	;animation: letterDraw	0.1196s 	3.7284s linear forwards;}
.an27	{stroke-dasharray:	151	;stroke-dashoffset:	151	;animation: letterDraw	0.3926s 	3.848s linear forwards;}
.an28	{stroke-dasharray:	17	;stroke-dashoffset:	17	;animation: letterDraw	0.0442s 	4.2406s linear forwards;}
.an29	{stroke-dasharray:	57	;stroke-dashoffset:	57	;animation: letterDraw	0.1482s 	4.2848s linear forwards;}
.an30	{stroke-dasharray:	31	;stroke-dashoffset:	31	;animation: letterDraw	0.0806s 	4.433s linear forwards;}
.an31	{stroke-dasharray:	58	;stroke-dashoffset:	58	;animation: letterDraw	0.1508s 	4.5136s linear forwards;}
.an32	{stroke-dasharray:	20	;stroke-dashoffset:	20	;animation: letterDraw	0.052s  	4.6644s linear forwards;}
.an33	{stroke-dasharray:	16	;stroke-dashoffset:	16	;animation: letterDraw	0.0416s 	4.7164s linear forwards;}																	



@keyframes letterDraw {
    to { stroke-dashoffset: 0;}
}
</style>
<g id="img">
	<g id="_x31_">
		<defs>
			<path id="SVGID_1_" d="M17.3,24c2.1,6.3,5.2,11.6,12.4,11.3c2.1,0.9,5.3,1.7,7.1,0c1.8-2.4,6.3-1,6.7-4.3
				c2.4-6.5,1.6-13.9-3.2-19.3c-1.8-2.4-4.3-5.1-7.4-5.6c-2.3-0.2-4.4-1.8-6.6-2.4c-1.5-0.5-2.8,0.9-4.3,0.5
				c-1.3,0.2-2.3,1.1-3.7,0.7c-3-0.3-7.5,2.6-6,5.9c0.2,0.4,0.2,0.6,0,1c-1.8,3.2,1.3,5.7,1.8,8.5C15.7,21.3,16.8,22.5,17.3,24z"/>
		</defs>
		<clipPath id="mask01">
			<use xlink:href="#SVGID_1_"  style="overflow:visible;"/>
		</clipPath>
	</g>
	<g id="_x32_">
		<defs>
			<path id="SVGID_2_" d="M73,126c-5.7,8.1-12.5,15.5-20.5,21.1
				c-0.5,0.4-1,1-1.8,0.5c-2.6,0.3-5.3,1.4-7.8,2.4c-3.8,1.2-8.3,0.1-12.3,0.4c-13.8-3.7-19.7-19.4-23.9-31.8
				c-3.1-11.1-2.2-23.2,0.7-34.2c0.4-1.7,0.7-3.8,0.6-5.6c-0.6-1.3-0.8-2.6-0.2-4c0.2-0.6-0.2-1.5-0.3-2.4c-4.1-0.8-2.8-6.1-5.1-8.6
				c-0.8-2.1-4-5.9-0.5-7c4.8-3.1,8.7-7.7,13-11.6c3.3-2.3,7.8-2,11.5-3.6c3.3-1.6,6.1-4.2,10.1-3.3c10.9-0.1,22,7,26.7,16.8
				c1.6,2.7,0.3,5.7,1.3,8.5c-1,3.7,1.1,7.7-0.5,11.3c-0.8,1.4-1.3,3-1.8,4.4c-1.6,1.7-0.5,4-1.7,5.8c-1.4,3.6-5.5,5.7-5.5,9.9
				c0,3.3-1.4,6.8,0.4,9.8c-1.7,6.4-6,10.3-12.2,10.5c-0.4-1.7-2.9,0.6-4,0.8c-4.6,1.9-9.6,4.4-14.4,1.6c-3.2-1.7-1.7-6.1-4.2-8.3
				c-0.1-1.3,1.3-2.7-0.4-3.5c-0.2,1.3-0.5,2.5,0.4,3.5c-1.8,6.1,2.5,13.4,4.7,19.4c0.5,1.1,1.7,1.9,1.7,3.3
				c1.2,1.2,2.6,2.4,3.6,3.8c7.1,7.7,13.3-0.4,18.5-5.5c1.7-1.3,0.9-1.9,0.8-3.8c3.9-3.5,1.5-3.7,8.2-6.3c2.4-1.8,4.9,5.6,8.5,1.6
				C69.2,122.6,74,119.8,73,126z M48.2,74c1.2-1.6-0.6-2.9-0.8-4.5c-1.2-5.1-4.2-13.6-10.5-7.8c-0.4,0.4-0.9,0.7-1.3,0.8
				c-3.3,0.7-6,3.9-6.4,7.3c0.4,0.3,0.9,0.6,1.4,1c0.2,1,0.1,1.9-0.7,2.6c0.2,0.4,0.4,0.9,0.5,1.2C39.4,73.1,46.1,73.5,48.2,74z
				 M20.5,101.9c1.4-2.9,4.8-0.7,7-2.3c1.7-0.7,3.7-2,5.5-2.1c0.8,0.4,1.2-0.2,1.8-0.6c1.4,1.7,2.6-0.1,4.5,0.1
				c0.3-0.3,0.7-0.8,1-1.1c-2.7-7.3,1.5-3.2,2.1-6.4c-2.3-2.5-6.6,1-9.5,0.9c-0.6,0-1,0.3-1.2,0.8c-0.6,1.7-2.7,1.9-3.9,3
				c-1,1.2-3.1,0.1-3.6,1.7C22.8,98.6,20.6,98,20.5,101.9z"/>
		</defs>
		<clipPath id="mask02">
			<use xlink:href="#SVGID_2_"  style="overflow:visible;"/>
		</clipPath>
	</g>
	<g id="_x33_">
		<defs>
			<path id="SVGID_3_" d="M49.9,126.4c0.5-1.8-0.8-2.2-2.1-3
				c-2.1-1.6-1.5-4.6-3.2-6.2c-0.9-0.5-1.6-0.9-1.5-2.2c0.4-4.9,3.9-8.5,12.2-10.5c0.7-0.5,1.3-0.9,1.9-1.3c0.4,0.3,0.9,0.7,1.4,1.1
				c0.4-1.2,1.4-1.1,2.5-1.2c2.7,0.5,3.3,3.9,6.3,4.2c3.7,1.2,6.5,4.8,8,8.3c1.8,2.2-0.5,4.7,0,7.5c-1.6,0.2-2,1.7-2.6,2.8
				C67.3,130.6,59.7,131,49.9,126.4z M199.7,115c-0.1,0.6-0.3,1.2,0.6,1.4c2.3,2.5,5.2,4.7,7.5,7.4c2.2,2.1,2.6,4.7,2.2,7.5
				c0.1,2.1,1.3,4.1,1.4,6.2c-1,2-1.1,4.3-2.3,6.3c-0.1,1-0.6,2.1-0.5,3c0.2,0.7,0.1,1.3-0.5,1.7c-4.5,2.5-9.5-4.8-14.7-2.7
				c-3.6,0.4-9.1-0.1-12.1-2.3c-3.2-1.2-7-1.7-8.7-5.2c-1.1-3.6-4.2-5.9-5.2-9.6c-2.8-7.3,0.7-14.6-1.3-22.1
				c-1.3-9.8-2.1-20.1,2.2-29.3c0.3-0.9,1.1-1.7,1.2-2.7c-0.1-4,2.8-7.1,3.2-11c1.3-4.2,3.5-8,6.3-11.4c1.1-1.4,1.1-3.6,2.8-4.4
				c1.5-0.7,1.8-1.9,1.6-3.4c7.4-3.9,8.2-1.1,14.4,0.4c3,0.7,6.2,0.6,9.1,1.7c9.9,1.4,18.7,5.6,23,15.1c6.2,8.4,5.5,19.2,1.7,28.3
				c-3.5,5.7-2.4,15.1-9.9,17.9c-3.9,1.9-3.7,7.6-9.2,7.1C205.9,116.9,206.2,111.1,199.7,115z M184.4,93.7
				c4.2,4.6,11.7,7.5,17.9,6.6c0.6-0.9,0.4-2.1,1.5-2.3c-1.6-1.8,1.2-2.2-0.1-4.1c-5.4-2.3-8.3-8.1-13.5-10.8
				c-0.8,0.2-1.2,0.7-1.4,1.7C188.1,88.1,184.6,90,184.4,93.7z M182.9,109c-3.8,9.4-3.6,15.3,8.1,15.6c0.4-0.7,1-1.3,1-1.8
				c0-3.2,2.1-5,4.3-7.1C191.1,114.6,187.4,111.5,182.9,109z M209.1,79.7c3.8,0.1,3-5.4,0.7-6.6c-0.4-1.2-0.9-1.9-2.1-2.5
				c-6.8-3-9.8-7.7-9.9-4.5c0,1.3-0.4,2.6-0.7,3.8c-0.2,0.6-0.9,0.9-0.4,1.7C199.6,75.3,204.9,77.6,209.1,79.7z M288.5,123.9
				c1.5,0.9-0.1,8.6,0.6,11.1c-0.6,8.2,6.2,22.4-5.2,25.4c-16.7,6-7.6,1.5-20.9,1.3c-6.9,0.7-5.4-1.7-2.5-6.1c1.4-2.9,5.4-3.8,8.3-5
				c8.1,0.4,5.3-8,5.4-13.3c-0.9-2.9,1.5-10.8-3.1-10.3c-6.1,0-11.9,1.6-17.9-0.1c-2.6,3.7,0,8.6-0.7,12.7c-1.3,2.5-2.3,5.2-5.2,6.4
				c-0.5,0.2-0.9,0.6-1.1,1.2c-1.6,1.7-2.6,7.1-5.3,6.1c-5.5-2.7-3.5,2.8-8.3,1.8c-2.3-0.4-2.4-3.5-4.3-4.5
				c-1.8-1.5-0.5-6.2,1.6-7.2c4.6-2.6,11.1-5.7,12.2-11.3c1.1-7.9,0.5-16.1,1.1-24.2c2.8-8,3-16.5,3.7-24.9c0-0.5-0.1-1.2-0.4-1.4
				c-1.9-1.7-2.8-4.1-4.2-6.1c-2-2.4-2.7-5.8-3.1-8.8c-0.4-3.2,5.5-1.1,7.6-2.4c6.9-2.1,1.2,1.5,19.7-2.6c2.3-0.8,4.7,2.5,6.4-0.1
				c3-1.6,3.4-0.4,7,0.3c3.4,0.7,6.3,2.4,7.9,4.5c4.8,9.7,3.2,18.4,1.2,28.5c-0.8,6.8-0.4,13.5-0.2,20.3
				C289.5,117.5,290.6,122.2,288.5,123.9z M272.4,82.6c-9.9-2.2-17.3-1.4-14.7,9.4c2.6,1.5,4.1-0.9,6.5-0.3c0.3,0.1,0.8,0.1,1-0.1
				c1-0.8,1.7,0.4,2.6,0.5c2.4,0.3,2.8,2.7,4.2,4.3c-0.1,0.8-0.4,1.8,0.4,2.7C272.9,93.6,272.9,88,272.4,82.6z M256.6,113.9
				c2.1-1.1,4,0.3,5.9,0c1.6-0.8,3.4-1.9,5.2-2c7.4-0.3,5.8-3.5,4.8-9c-3.5,1.6-6,4.4-9.8,5c-2.6-0.1-4.1,1.9-6.5,2.4
				c-6.4,1.3-2.9,9.7-2.9,14.3c0.7-2,2.1-3.2,2-5.2c-0.1-1.1,0.2-2,1.1-2.4C256.5,115.9,256.6,114.9,256.6,113.9z M208.1,1.5
				c-6.8-2-13.7-0.3-20,2.4c-1.9,1.1-1.2,3.9-2.7,5.4c0.4,3-0.9,7.4,1.8,9.6c1.2,0.4,0.4,1.6,0.9,2.6c0.5,1.3,2,2.2,1.9,3.8
				c1.1,1.2,2.3,2.7,3.2,4c4.2,1.7,9.3,12.6,14.3,7.6c2.3-2.5,4-6.1,7.5-7.2c1.6-6.5,1.9-13.9,0.9-20.4c-1.5-2.2-3.2-4.3-3.2-7.4
				C211.2,1.8,209.7,1.7,208.1,1.5z M116.2,146.6c-0.2-0.4-0.3-0.7-0.4-1c0.6-1,2-1.9,1.5-3.3c0.5-3.9,3.4-7.6,3.4-11.9
				c0.8-4.4-4.6-4.3-7.6-4.7c-2.1,0-3.6,1.9-5.7,2.1c-5,3.2-6.8-1.6-7.9,1c-4.7,19.8-6.4,10-18,20.9c-1.8,2-3,5-5.7,6
				c-2.6,0.8-3.8,3.2-5.9,4.6c-1.8,0.9-1.8,0.9-1.7,2.6c-3.7,4.7-11.5,6.1-16.5,2.6c-1.7-1-4-0.8-4.6-3.1c-0.2-0.6-0.9-1.2-0.9-1.8
				c0.2-2.2-1.5-3.7-2-5.6c-1.1-2.2,1.2-3,2.3-4.4c0.1-0.2,1-0.3,1.4-0.1c1.4,0.7,2.8,0.8,4.2,0.1c0.8-0.6,3.2,0.5,3-1.1
				c6.9-5.1,15.6-9.3,22.1-15.4c2.3-3.6,8.2-3.7,10.6-7.3c4.6-11.9,7.4-27-0.1-38.3c-0.9-2.4-2.7-4-3.5-6.3
				c-0.1-0.7-0.7-1.1-1.3-1.2c-1.6-0.5-3-1.7-3.9-3c-0.6-1.4-0.7-3-2.2-3.9c-0.3-0.2-0.6-0.9-0.5-1.2c0-2.3-2.2-4.2-0.4-6.4
				c1.7-2.2,5.3,0,7.5-0.8c9.9-2.3,20.4-1.2,30.2,1.2c7.9,1.6,17-2.3,23.7,3.9c5.3,3.6,4.7,8.7,4.2,14.2c0.4,4.5-0.5,9-0.7,13.5
				c0,2.6-2.4,4.6-1.8,7.5c0.1,4.8-2.2,9.6-1.6,14.5c0.7,6,0.2,11.9-1.2,17.7c0,5.3-2.8,10-3.3,15.3c-3,6.7-3.8,9.2-11.6,9.8
				c-7,1.5-9-7.6-7.9-12.8C113.2,148,114.2,147.3,116.2,146.6z M106.9,90.8c0.7-0.4,1.4-0.2,2.2,0.1c1.7-0.7,3.3-1.2,5.2-0.7
				c2.1-0.4,9.1,2.7,9.1-0.3c0.1-7.1-0.1-7.6-7.4-7.7c-4,0.9-9-2.7-12.4,0.2C104.8,85.4,103.8,88.8,106.9,90.8z M121.8,105.5
				c-1.4-1.3-4.7-1.8-6.4-1c-3.4,0.8-6.8,2.4-9.9-0.1c-2.1,2.9-1.1,6.2-1.5,9.5c0.3,2.6,5.7-2.1,7.6-1.8
				C117.8,110.3,122.6,115.7,121.8,105.5z M180.7,215.3c0.7-0.1,0.8-0.3,0.2-0.7c-0.5-0.6-0.5-1,0.2-1.6c0.7-2.4,0.7-4.5-1.8-5.9
				c-2.2-0.1-4.6-2.8-7-1.1c-0.3-0.3-0.6-0.5-0.9-0.7c-3,2.2-7.5,1.2-11.2,1.1c-4.2-0.6-9.8-1.1-20.4-0.6
				c-10.9,2.4-22.3-1.6-33.1-0.4c-0.3,0.7-0.8,1.2-0.8,1.8c-0.4,4.5-3.2,8.9-0.8,13.2c1.3,3.2,2.6,7.3,6.8,7c3-0.3,6.4,0.9,8.8-1.5
				c1.4,0.6,2.6,0.3,4-0.3c5.3-1.9,11.4-2.8,17.1-2.6c7.5-1.2,13.7-1.4,19.7-1.3c2.4,0.9,4.1-1.2,6.7-0.5c0.1,0.1,0.5,0.4,0.7,0.6
				c1.1-0.2,2.2,0.1,3.1-0.4c0.2-0.9,1.1-0.4,1.6-0.7c1.1-0.7,3.2-0.8,3.9-1.8c0.6-1.2,1.7-1.4,2.4-2.4
				C180.3,215.8,180.5,215.5,180.7,215.3z"/>
		</defs>
		<clipPath id="mask03">
			<use xlink:href="#SVGID_3_"  style="overflow:visible;"/>
		</clipPath>
	</g>
	<g id="_x34_">
		<defs>
			<path id="SVGID_4_" d="M139.9,205.8c1.7-2.3-2.2-3.5,0.7-8.1
				c-0.9-0.7-0.3-1.7-0.3-2.6c-2.3-1.9-3-7.6,0.1-9.3c0.3-0.1,0.7-0.5,0.8-0.9c0.7-1.5,2.5-3.1,4.1-2.8c3.2,1.1,6.3-2.7,8.7,2.1
				c1.7,5.2,5.1,10.1,5.5,15.6c0.5,1.9-1.3,5.8,0.8,6.5c1.1,5.6,1.9,10.8,1.3,15.3c-0.9,2.9-1.2,5.9-3.2,8.3c1.3,2,2.7-0.4,4.6,0.2
				c2.3-0.2,3.6,2.3,5.7,1.9c0.6-0.2,1.3-0.1,2,0c2.1,0.6,0.4,4-0.1,5.4c-1.4,0.6-2.1,1.8-2.9,2.9c-2.1,2.5-5.2,0.7-7.7,2.3
				c-7.3,4.3-10.9,0-16.6,1.2c-3.5,0.5-6.6,3.6-10.1,3.4c-3.6,2.4-8.9,1.7-12.6,4.3c-5.3,7-20.7,10.4-23.2-0.7
				c-0.3-3.3-4.5-4.9-3.2-8.3c0-0.6,0.3-1.5-0.1-2c-1.2-0.3-0.8-0.9-0.5-1.7c0.6-1.5,2-2.2,3.5-1.5c0-0.5-0.1-0.9-0.1-1.4
				c0.3-0.2,0.7-0.4,1.2-0.6c-0.2-0.5-0.4-0.9-0.6-1.4c2.9-6.6,6.4,2.3,11.2-0.4c3,6.3,19.1,0.2,25.2,0.1c7.5-0.4,12.6-2.6,7.8-10.7
				C139.5,217.6,138.4,211.9,139.9,205.8z M219.7,217.2c-3.1-1.3-7.7,1.8-11.6,3c-2.8,2.5-7.7,0.8-9.8,4c1.2,2.6,3.2,3.1,5.7,2.7
				c5.7-0.3,13.8,0.9,16.2,6.8c0.7,2.2-0.1,4.7,1.5,6.7c1,1.7,0.6,3.1-0.5,4.5c-5.6,5.2-10.1,11.7-18,13.2c-2.4,0.5-4.5,1.2-6.9,1
				c-1.5,0.7-2.4-0.3-3.4-1.3c1.7-2.8,5.3-3.9,6.1-7.2c2.9-2,6.7-2.8,9.3-5.2c2.8-5.3-6.5-7-9.9-5c-2.1,1-4,2.3-5.2,4.4
				c-3.9,6.4-10.2,11.7-17.2,14.4c-3.7,1-21.7,7.3-23.1,3.4c-0.6-1.9,0.5-3.6,0-5.4c0-1,0.9-1.4,1.6-2.3c-0.7-0.2-1.1-0.3-1.3-0.4
				c0.1-0.9,0.2-1.6,0.2-2.6c2.9-1.8,2.7-8.8,7.1-2.6c1.6-0.9,3-1.6,5-1.2c5.5-0.9,12.4-1.3,16.4-6.1c1.5-1.9,3.2-4.2,2.1-6.6
				c0.6-3.2,1.5-6.8-0.7-9.8c0.6-0.5,1.1-0.9,1.6-1.4c-0.9-2.2-1.9-4.3-2.8-6.5c0.3-0.2,0.5-0.5,0.7-0.7c-0.2-0.6-0.4-1.2-0.7-1.7
				c-0.8,0-1.2,0-1.5,0.1c1-1.4,0.4-6.7-1.4-8.3c1.4-0.7,2.6-1.8,2-3.5c1.6-1.5,4.5-0.4,6.6-0.8c1.3-0.3,1.8,0.7,2.8,1.2
				c0.3-0.3,0.7-0.6,1.3-1.2c0.6,1.3,1.4,2.8,3.1,2c1,0,2.1,0.6,2.6-0.6c6.3,1.3,12.3,2.5,18.8,2.3c6,0.5,10.6,0.6,10.9-0.6
				c0.5,2.2,3.8,1.3,5.4,1.3c3.7-1,3.3-3.1,7-0.3c2.9-0.4,2.4,0.2,4.6,1.9c0.1,1.6-1.4,1.9-2.3,3c-1.8,3.4-5.4,1.2-8,3
				c-2-1.4-2.8-1-2.9,0.2C228.1,216.7,224.1,217.3,219.7,217.2z"/>
		</defs>
		<clipPath id="mask04">
			<use xlink:href="#SVGID_4_" style="overflow:visible;"/>
		</clipPath>
		
	</g>
	<g id="_x35_">
		<defs>
			<path id="SVGID_5_" d="M233.5,248.9c-0.2-3.5-3.2-6-4.2-9.3
				c-2.6-5.7-3.9-11.9-6.7-17.6c-0.5-2.8-1.5-4.2-2.9-4.8c-1.9-3.7-3.2-7.3-3.2-10.8c-3-13.4-7-6.3-8.9-13.4
				c-0.6-7.7-6.8-5.2,0.5-12.8c5.2,0.7,7-2.9,11.2,2.2c0.3,0.3,0.6,0.5,0.7,0.9c0,2.7,4.2,3.3,3.3,5.9c-1.5,5.9,3.8,10.9,4.2,16.7
				c0.4,3.2,1.9,6.2,3.9,9.1c-0.3,2.1,1.6,6.7,2.2,8c1.3,5.7,2.5,11.2,6.5,15.9c2.8,3.6,4.5,7.7,5.7,12c2.4,7.8,8.4,14,13.7,20
				c3.8,4.9,10.2,5.3,15.8,3.6c2.5-0.9,5.7,1,8-0.9c2.4-0.7,5-1.2,7.3-2.5c3.1-1.6,13.4,0.1,9.2,4.9c-2.4,2.1-5.6,2.9-8.6,3.2
				c-1.7,0.2-3.2,0.7-4.1,2.5c-1,1.8-2.6,2.9-4.6,3.4c-2.7,1.6-5.1,3.9-8.2,5c-16.9,11.5-31.4-18.8-36.5-31.1
				C236.1,254.4,234.3,252.4,233.5,248.9z"/>
		</defs>
		<clipPath id="mask05">
			<use xlink:href="#SVGID_5_"  style="overflow:visible;"/>
		</clipPath>
	</g>
	<g id="_x36_">
		<defs>
			<path id="SVGID_6_" d="M240.9,189.6c1.4,3.3,0.9,7.5,5.9,8.1
				c6.3,2.8,11.2-2,12.4-8.1c0.7-3.5-2.6-7.1-5.3-8.8c-3.5-0.9-11.9-5.7-12.6,0.4c-1.5,1.5-1.5,4-0.2,5.7
				C240.2,187.9,240.2,188.9,240.9,189.6z M317.2,230.9c0.8-1.6-0.2-4.3,1.6-5.3c0.8-0.3,1.1-1.1,0.9-1.9c-1.9-3.6-0.1-7.6-2.1-11.1
				c-1.1-3.2,2.1-7.1-1.4-9.3c-2-2.5-4.8,0.6-7.1,1.1c-5.4,2.1-7.7,8.1-9.2,13.2c-0.4,1.3,0.3,3-0.9,4c-1.6,0.9-1.9,2.5-2.7,3.9
				c-1.1,0.4-0.9,1.1-0.6,1.9c0.6,1.1-0.1,2.4-0.9,2.9c1.4,5.2,3.2,10.6,9.4,10.3c1.6-0.1,2.5,1.6,4,1.8c5.4,1.5,10.5-4.8,7.5-9.4
				C316.2,232.3,317,231.7,317.2,230.9z M333.6,231.8c0.3,3.6-1.2,7.9,2.3,10.3c1.4,2.7,4.9,2.8,6.1,5.6
				c6.3,12.5,23.2,13.7,34.6,8.8c9.3-7.8-3.9-10.5-10-8.4c-8.9,5-17.8-2.9-20.4-11.3c-2.1-2.6,1.5-5.4,0-8.3
				c-0.7-1.3-1.2-3.5-2.8-3.9c-3.7-0.3-13.3-2.2-9.9,4.5c-0.2,1.1,0.6,1,1.1,1.1C334.2,230.8,333.5,231.3,333.6,231.8z M362.7,204.7
				c-0.6,1-1.1,1.9-0.6,3.1c0.1,0.2-0.1,0.7-0.3,0.9c-0.5,0.5-0.1,1,0.1,1.2c1.1,1.4,0.9,3.4,2.2,4.8c0.4,0.5,0.5,1,0.4,1.8
				c-0.7,2.7,2,4.7,1.1,7.4c-0.3,1.3,0,2.7,1.1,3.5c1.2,0.5,1.1,2.1,2.2,2.4c1-0.1,1.6,0.6,2.3,1.1c1.4,1.3,2.1,0.3,3.2-0.8
				c2.9-1.6,1.8-5.7,4.3-7.6c1-1.3,1.7-3,2.3-4.5c0.4-1.3-0.3-2.6,0.2-3.8c1-1.7,0.2-4.1-0.6-5.8c-1.7-2.5-4.5-3.1-7-4.1
				c-1.1-2-4.2-0.3-10.4-1.1C363,203.8,363,204.3,362.7,204.7z M404.3,230.4c0.1-1.3,0.8-2.1,1.9-2.6c3-1.9,1.7-6.1-1.2-7.2
				c-3.3-0.3-2.8-4.6-5.6-3.7c-2.4,0.7-3.3-2.1-5.6-2.2c-1.6,0.8-3.4,1.8-2.4,3.8c0.3,1.3-0.9,4.1-1.8,5c-1.2,2-0.3,4.6,1,6.4
				c1.5,2.5,4.6,1.2,7,1.6c0.8,0,1.8,0.6,2.4-0.5c1.1-0.3,2.3,0.2,3.7,0.3C403.8,231.2,404.2,230.8,404.3,230.4z M237.7,258.9
				c-3.1,0.7-3.8,4.5-5.8,6.5c-2.7,2.7-6.2,5.7-10.1,5.9c-3.8-0.8-8.1,3.6-11,0.2c-2.7-1-3.5-4.6-1.1-6.4c0.9-0.7,1.5-1.8,2.8-1.7
				c1.2-1.7,3.4-1.6,4.8-3c5.4,6.8,15.9-5.4,16.1-11.5c2.3-4.6,4.4-7.8,6.4-10c1.7-1.5,2.1-4.2,3.8-5.7c-6.8-9.5,4.5-6.7,10.3-7.9
				c2.4,0,3.9,3.2,5,5.1c0.9,2.2-0.3,4.5-1.3,6.4c-1.3,2.4-4.7,1.9-6.4,3.9c-1.8,3.3-5.9,6.1-5.8,10.2
				C243.1,255.2,240.5,257.4,237.7,258.9z"/>
		</defs>
		<clipPath id="mask06">
			<use xlink:href="#SVGID_6_"  style="overflow:visible;"/>
		</clipPath>
	</g>
	<path class="sw-29 mask01 an01" d="M19.9,10c3.3,2.6,11.4,9.2,13.1,13"/>
	<g class="mask02">
			<path class="sw-30 an02" d="M15.4,60.4c15-15.3,37.1-27.8,47.6,10.4c1.3,4.6-5.6,24.5-10.6,33"/>
		
			<path class="sw-19 an03" d="M17.5,90.3c15.3-7.7,25.4-9.2,32.6-9"/>
		
			<path class="sw-25 an04" d="M32.5,107.6c9.3-4.5,10.7-5.1,14.7-8.5"/>
		
			<path class="sw-23 an05" d="M22.4,66C5.8,92.9,16,146.3,39.2,140c23.6-6.4,25.3-21,25.3-21"/>
	</g>
	<g class="mask03">
			<line class="sw-26 an06" x1="51.4" y1="112.5" x2="65.3" y2="119.7"/>
			<path class="sw-24 an07" d="M84.4,70.3C102,82.8,97.5,153.6,52,158.5"/>
			<path class="sw-21 an08" d="M97.5,73c16.8-2.1,32.1-0.4,34.3,5.3c2.5,6.4,1.5,14.9,0.4,29.8c-1.4,18.1,1.2,28.1-10.8,45.6"/>	
			<path class="sw-19 an09" d="M104,99.1c15-3.6,25.2-2,25.2-2"/>		
			<path class="sw-19 an10" d="M102,122.3c1.3-0.9,21.3-4,21.3-4"/>
			<path class="sw-33 an11" d="M199,11c5.4,6,7.2,14.1,7.2,14.1"/>		
			<path class="sw-25 an12" d="M194.2,50.4c12,6.1,48,13.5,16.9,53.8"/>		
			<line class="sw-19 an13" x1="188.5" y1="74.4" x2="214.7" y2="91.2"/>		
			<path class="sw-19 an14" d="M178.7,95.8c2.9,4.4,15.5,13.7,25.4,9.2"/>		
			<path class="sw-27 an15" d="M190.7,46.9c-3.5,20.2-17,34.3-18.8,44.2c-4.2,23.8-8.8,44.3,14.9,45.9"/>		
			<path class="sw-19 an16" d="M199.7,122.3c2.3,6.1,4.3,21.5,4.3,21.5"/>		
			<path class="sw-20 an17" d="M248,90.4c-12.7,26.6,4.5,46.7-12.7,57.1"/>		
			<path class="sw-24 an18" d="M246.5,71.7c11.7,8,32.6-5.7,36-2.9c3.4,2.8,0.5,64.8,3.9,83.8c0.7,4.2-27,6.6-27,6.6"/>		
			<path class="sw-19 an19" d="M251.3,103.6c1.9,0,13.7-4.4,13.7-4.4"/>		
			<path class="sw-19 an20" d="M257.1,120.2c0,0,20-1.8,20.8-2"/>		
			<path class="sw-24 an21" d="M110.9,216c1-0.4,59.8-3,61.9-3"/>		
	</g>
	<g class="mask04">
			<path class="sw-23 an22" d="M146.9,189.2c2.1,3,5.4,29.6,3,33.4"/>		
			<path class="sw-23 an23" d="M100.7,241.1c8.3,14.7,24.8-3.2,65.8-8"/>		
			<path class="sw-20 an24" d="M189.2,214.4c13.2-0.5,46.8-3.9,46.8-3.9"/>		
			<path class="sw-18 an25" d="M186.2,208.2c10.8,21.5-3.3,50-30,47"/>		
			<path class="sw-18 an26" d="M193,234.3c12.9-2.5,36.3,2.9,6.3,20.1"/>
	</g>
	<path class="sw-19 mask05 an27" d="M212.6,186c10.6,14,29.1,99.8,56.1,97.6c10-0.8,29.2-10.8,29.2-10.8"/>
	<g class="mask06">
			<path class="sw-22 an28" d="M244.3,182.7c7.7,5.2,9,11.5,9,11.5"/>		
			<path class="sw-21 an29" d="M252.4,228.6c0,0-19.8,37.1-38.4,38.4"/>		
			<path class="sw-26 an30" d="M312.6,208.2c-5.4,17-8.1,24.7-5.4,27.9"/>	
			<path class="sw-22 an31" d="M338.9,224.1c-1.3,8.2,3.9,37,37.3,26.6"/>	
			<path class="sw-22 an32" d="M371.6,205.1c2,5.4,0.9,16.3,0,19"/>		
			<path class="sw-22 an33" d="M394,217.4c3.1,7.6,7.9,12.6,7.8,12.5"/>
	</g>
</g>
</svg>
