<svg xmlns="http://www.w3.org/2000/svg" viewBox="0 0 1088.92 129.16"><defs><style>.cls-1{font-size:22px;fill:#fff;font-family:NotoSansCJKtc-Medium-B5pc-H, Noto Sans CJK TC;letter-spacing:0.05em;}.cls-2{letter-spacing:-0.2em;}.cls-3{letter-spacing:0.05em;}.cls-4{letter-spacing:0.02em;}.cls-5{letter-spacing:0.07em;}.cls-6{letter-spacing:-0.18em;}.cls-7{letter-spacing:-0.23em;}.cls-8{letter-spacing:0.02em;}.cls-9{fill:#fff000;}.cls-10{font-size:19.94px;font-family:NotoSansCJKtc-Bold-B5pc-H, Noto Sans CJK TC;letter-spacing:0.02em;}.cls-11{letter-spacing:-0.23em;}.cls-12{font-family:NotoSansCJKtc-Regular-B5pc-H, Noto Sans CJK TC;}</style></defs><g id="圖層_2" data-name="圖層 2"><g id="圖層_3" data-name="圖層 3"><text class="cls-1" transform="translate(0 19.72)">398公頃城市願<tspan class="cls-2" x="156.75" y="0">景，</tspan><tspan class="cls-3" x="192.03" y="0">超越副都心的城市氣</tspan><tspan class="cls-2" x="400.3" y="0">魄，</tspan><tspan class="cls-3" x="435.58" y="0">這裡</tspan><tspan class="cls-4" x="481.86" y="0">是</tspan><tspan class="cls-5"><tspan x="0" y="43.2">未來機場捷運跨入新北市的門</tspan><tspan class="cls-6" x="305.1" y="43.2">面，</tspan><tspan x="341.04" y="43.2">更是新北都會</tspan><tspan class="cls-4" x="481.86" y="43.2">中</tspan></tspan><tspan class="cls-4"><tspan x="0" y="86.4">心</tspan><tspan class="cls-7" x="22.44" y="86.4">點，</tspan><tspan class="cls-8" x="56.32" y="86.4">迎接2025開發完</tspan><tspan class="cls-7" x="220.44" y="86.4">成，</tspan><tspan class="cls-8" x="254.32" y="86.4">預約不可限量增值前</tspan><tspan class="cls-7" x="456.28" y="86.4">景。</tspan></tspan></text><rect class="cls-9" x="566.69" width="522.24" height="112.12"/><text class="cls-10" transform="translate(601.87 29.36)">旗艦開<tspan class="cls-11" x="61.03" y="0">發：</tspan><tspan class="cls-12" x="91.74" y="0">398公頃規模超越副都心</tspan><tspan x="0" y="33.53">預約完</tspan><tspan class="cls-11" x="61.03" y="33.53">工：</tspan><tspan class="cls-12" x="91.74" y="33.53">第一期2025年預定完成</tspan><tspan x="0" y="67.06">寬闊綠</tspan><tspan class="cls-11" x="61.03" y="67.06">地：</tspan><tspan class="cls-12" x="91.74" y="67.06">公園綠地超過41公頃</tspan></text><rect x="584.65" y="16.54" width="11.45" height="11.45" transform="translate(1180.75 44.53) rotate(180)"/><rect x="584.65" y="50.03" width="11.45" height="11.45" transform="translate(1180.75 111.51) rotate(180)"/><rect x="584.65" y="83.52" width="11.45" height="11.45" transform="translate(1180.75 178.48) rotate(180)"/></g></g></svg>