<svg xmlns="http://www.w3.org/2000/svg" width="308" height="151.346" viewBox="0 0 308 151.346"><defs><style>.a,.c{fill:#fff;}.b{fill:#946134;font-size:26.437px;}.b,.c{font-family:NotoSerifCJKtc-Bold, Noto Serif CJK TC;font-weight:700;letter-spacing:0.04em;}.c{font-size:19px;}</style></defs><g transform="translate(-33.119 -270.78)"><g transform="translate(-455.5 -226.5)"><path class="a" d="M568.885,525.565h-11.8a35.8,35.8,0,0,0,13.5,9.308,24.607,24.607,0,0,0-4.867,5.961.658.658,0,0,1-.121.244,39.316,39.316,0,0,1-8.273-5.171v19.222h-7.544v-1.642h-18.43v1.886h-7.3V536.941a54.727,54.727,0,0,1-8.333,5.474,17.227,17.227,0,0,0-4.015-5.352q-.426-.3-.73-.548a41.715,41.715,0,0,0,14.112-10.95h-12.53v-6.022h16.607a30.7,30.7,0,0,0,1.52-3.1H517.91V510.6h14.964q.183-.607.791-3.042H515.841V501.6H534.76q.181-1.643.426-4.319l7.6.547q-.3,2.8-.426,3.772H565.54v5.961H541.269q-.123.489-.366,1.521t-.365,1.521h22.933v5.839H550.818q.973,1.826,1.765,3.1h16.3Zm-19.1,12.715v-3.832h-18.43v3.832Zm-18.43,9.489h18.43v-4.137h-18.43Zm16.788-22.2H534.09q-1.277,1.949-2.19,3.164h18.493A30.041,30.041,0,0,1,548.142,525.565Zm-4.805-9.124h-4.745a28.229,28.229,0,0,1-1.278,3.1h7.422A31.822,31.822,0,0,1,543.337,516.441Z"/><path class="a" d="M575.638,530.371v-7.239h4.988v7.483q0,13.078-2.92,19.83a16.81,16.81,0,0,0-4.258-3.346Q575.636,541.444,575.638,530.371Zm-1.034-10.4v-6.51h23.115v6.51h-8.152v35.463H583.3V519.97Zm22.264-18.858v6.509H576.185v-6.509Zm-4.623,43.737V523.072h4.866v21.777Zm6.386-44.71H630.81v6.144H598.631ZM599,555.433v-27.86h31.571v27.86h-6.752v-2.068H605.444v2.068Zm2.312-45.926h27.13v15.268h-27.13Zm10.037,23.967h-5.9v4.136h5.9Zm-5.9,9.855v4.257h5.9v-4.257Zm15.938-23.907V514.86H608v4.562Zm2.433,18.188v-4.136h-6.084v4.136Zm-6.084,9.976h6.084v-4.257h-6.084Z"/><path class="a" d="M682.637,543.754l6.691-.913.183,6.205q-6.2,1.035-23.359,3.407l-1.52-6.691,2.919-.305V527.573h5.719v17.276l3.041-.366V524.106H666.7v-6.691h9.611v-7.361h-2.859a37.62,37.62,0,0,1-3.406,6.509q-2.009-1.338-3.651-2.312-1.217,2.435-3.041,5.536v35.646H656.6V529.52a53.68,53.68,0,0,1-3.589,4.137,34.674,34.674,0,0,0-3.711-6.388,1.436,1.436,0,0,0-.243-.365,55.76,55.76,0,0,0,10.888-14.843q.487-.912.853-1.764l4.561,1.582a39.317,39.317,0,0,0,5.232-14.6l6.387,1.217q-.669,3.225-1.216,4.988h13.078v6.569h-6.2v7.361h6.388v6.691h-6.388v5.536h6.144v6.265h-6.144ZM659.765,497.28l6.692,2.433a59.987,59.987,0,0,1-11.741,13.747,19.629,19.629,0,0,1-1.52,1.279,27.34,27.34,0,0,0-3.65-5.658,44.16,44.16,0,0,0,8.942-9.672Q659.218,498.254,659.765,497.28Zm47.691,4.623v37.9q-.062,4.38-1.886,5.962a10.678,10.678,0,0,1-5.9,1.337,19.344,19.344,0,0,0-1.947-6.751H700.4a.662.662,0,0,0,.547-.731V508.412h-3.893v47.021h-6.63V501.9Z"/><path class="a" d="M765.852,500.017l5.353,3.346q-3.65,10.342-7.361,18.492,6.206,6.752,6.265,14.6-.06,6.875-3.406,9.185a10.214,10.214,0,0,1-4.319,1.581,31.683,31.683,0,0,1-5.048.122,16.056,16.056,0,0,0-1.825-7.117q3.041.123,3.65.122a5.753,5.753,0,0,0,2.372-.609q1.521-1.034,1.46-4.257-.061-6.571-6.388-12.775,2.13-5.11,5.475-15.755h-7.6v48.359H747.6V539.374q-.79,5.719-3.71,6.753a7.32,7.32,0,0,1-2.19.3q-7.664-.121-9.975-22.81h-8.091v12.956q.73-.121,7.726-1.46l.546,6.691q-3.831.852-11.739,2.373-4.625.912-6.691,1.338l-.913-7.056q.669-.121,2.129-.365t2.251-.365V500.808l4.745,1.825q11.617-2.007,18.187-4.806l5.6,5.414q-4.258,1.521-7.665,2.434-.062,6.021.183,11.009h7.847v6.936h-7.482q1.095,13.078,3.285,15.511a1.561,1.561,0,0,0,.669.365q1.277,0,1.459-6.935v-.121a12.647,12.647,0,0,0,3.832,2.98V500.261h17.155Zm-49.09,54.2v-6.509h22.872v6.509Zm6.874-37.533h7.6q-.244-4.5-.366-9.549-4.014.79-7.238,1.216Z"/></g><text class="b" transform="translate(187.393 367.918)"><tspan x="-140.79" y="0">│新中西區 綠富首席│</tspan></text><text class="c" transform="translate(187.119 417.126)"><tspan x="-153.653" y="0">公園綠覆第一排│3-4房│細膩鉅作</tspan></text></g></svg>