<?xml version="1.0" encoding="utf-8"?>
<!-- Generator: Adobe Illustrator 26.5.0, SVG Export Plug-In . SVG Version: 6.00 Build 0)  -->
<svg version="1.1" id="圖層_1" xmlns="http://www.w3.org/2000/svg" xmlns:xlink="http://www.w3.org/1999/xlink" x="0px" y="0px"
	 viewBox="0 0 308 472.6" style="enable-background:new 0 0 308 472.6;" xml:space="preserve">
<style type="text/css">
	.st0{fill:#FFFFFF;}
	.st1{fill:#F6F6F6;}
	.st2{fill:url(#SVGID_1_);}
	.st3{fill:url(#SVGID_00000154403068762699284310000017058362636215519397_);}
	.st4{fill:url(#SVGID_00000126306007559594673650000018027315047476764839_);}
	.st5{fill:url(#SVGID_00000078046816876913783510000003017466565818110869_);}
	.st6{fill:url(#SVGID_00000113311904022317159070000015778896597918121129_);}
	.st7{fill:url(#SVGID_00000093889803337318525660000013202575913847829940_);}
	.st8{fill:url(#SVGID_00000028325135755308152280000006477892227361500600_);}
	.st9{fill:url(#SVGID_00000043435375666592057450000010419415990003926415_);}
	.st10{fill:url(#SVGID_00000173848475565712833640000001212445467583964802_);}
	.st11{fill:url(#SVGID_00000132069201041492509200000011448211713911621288_);}
	.st12{fill:url(#SVGID_00000112594842601735649620000016874844916994821506_);}
	.st13{fill:url(#SVGID_00000153695393366949485930000017082356035995482785_);}
	.st14{fill:url(#SVGID_00000019639975272481972370000015437382332352966847_);}
	.st15{fill:url(#SVGID_00000089560274512157618140000001648265580807967650_);}
	.st16{fill:url(#SVGID_00000141453488691698161900000002908519086197655974_);}
	.st17{fill:url(#SVGID_00000131325096007323387860000017473470452325941144_);}
	.st18{fill:url(#SVGID_00000094607647395031636800000003804018400752170424_);}
	.st19{fill:url(#SVGID_00000043453735175375509900000008994867093426953638_);}
	.st20{fill:none;stroke:#FFFFFF;stroke-width:0.6874;stroke-miterlimit:10;}
</style>
<g>
	<path class="st0" d="M32.6,76.5c-2,0-3-0.5-3-1.6c0.5-6.9,0.8-13.8,0.8-20.8v-24H19.7v14c0.1,6.6,0.3,12.9,0.6,18.8
		c-0.3,0.8-1.5,1.7-3.5,2.6c-2.1,1-4.3,1.5-6.4,1.5c-1.5,0-2.3-0.5-2.3-1.6c0.3-5.1,0.6-10.7,0.7-16.9v-9.3c0-6.7-0.3-12.2-1-16.4
		l12.4,5.1h10.1V16.9H13.8C10.1,17,6.2,17.3,2.1,18l-2-4c2.9,0.3,6.3,0.5,10.4,0.6h19.9c0-5.5-0.3-9.9-0.8-13.3
		c4.8,0.8,8.2,1.5,10.4,2.1c2,0.5,3.2,1,3.6,1.4c0.3,0.3,0.1,0.6-0.5,1l-1.3,1v8h13.3l5.9-8c1.3,1.1,2.6,2.1,3.9,3.1
		c2.9,2.4,5.2,4.4,6.9,5.9c-0.2,0.8-1,1.3-2.3,1.3H43.5l0.8,0.1c-0.2,1.1-1,1.8-2.4,2v8.9h10l2.2-2.8c0.1-0.2,0.4-0.5,0.8-1
		c1-1.3,1.6-1.9,1.9-1.9c0.5,0,2.3,1.2,5.3,3.6c3,2.4,4.5,3.9,4.5,4.5c-0.8,0.8-1.7,1.4-3,1.6v23.1c0,4-0.7,6.8-2.1,8.5
		c-1.8,2.1-5.4,3.4-10.6,3.8c-0.1-3.9-0.6-6.5-1.4-7.9c-0.6-1-1.2-1.6-1.9-2.1c-0.9-0.7-2.1-1.2-3.6-1.4v-1c2.5,0.1,4.9,0.2,7.2,0.3
		c0.9,0,1.3-0.5,1.3-1.4V30.1H41.9v23.4c0.1,6.6,0.3,12.9,0.6,18.8C42.2,73.2,41,74,39,74.9C36.7,75.9,34.6,76.5,32.6,76.5z"/>
	<path class="st0" d="M101.4,77.6l-0.5-0.8c10.7-5.7,18.6-13.3,23.8-23c-2.2-6.3-3.8-13.5-5.1-21.7c-2.5,3.4-5.3,6.3-8.4,8.9
		l-0.8-0.5c0.3-0.6,0.6-1.5,1.2-2.8c0.3-0.9,0.5-1.6,0.8-2h-7.5v20.9c3.7-0.8,8-1.9,12.8-3.1l0.1,0.9c-8,5.3-18.9,11.3-32.8,18.1
		c-0.4,1.2-1.1,1.9-2,2.3l-5.3-12.2c0.3-0.1,0.8-0.1,1.4-0.2c1.2-0.3,2.3-0.5,3-0.6V39.1c0-6.7-0.3-12.2-1-16.4
		c5.4,1.2,8.8,2.1,10.3,2.8c1,0.5,1.2,1,0.5,1.4l-1.1,0.6v32.2l3.9-0.9V12.6h-5c-3,0.1-6,0.4-9.2,1.1l-1.9-4
		c2.9,0.3,6.3,0.5,10.4,0.6h14.2l2.4-3.6c0.2-0.3,0.5-0.7,0.8-1.2c1.2-1.6,1.9-2.5,2.2-2.5c0.5,0,2.2,1.2,4.9,3.6
		c2.7,2.5,4.2,4,4.2,4.5c-0.2,0.8-0.9,1.3-2.1,1.3h-10.7v19.8l4.1-6.5c1.6,1.7,3.3,3.4,5,5.1c1.4-4.5,2.5-8.7,3.3-12.9
		c1.3-6.3,1.7-11.8,1.3-16.7c4.9,1.2,8.6,2.1,11,2.8c2,0.6,3.2,1.2,3.6,1.5c0.3,0.3,0.1,0.6-0.5,0.9l-1.5,0.7
		c-1.2,4.5-2.8,8.9-4.7,13.2h9.6l2.4-3.8c0.2-0.3,0.5-0.8,1-1.4c1.1-1.6,1.8-2.4,2.1-2.4c0.5,0,2.2,1.2,4.9,3.8s4.2,4.1,4.2,4.7
		c-0.1,0.8-0.8,1.3-2.1,1.3h-4.3c-1.4,13.5-4.7,24.3-10,32.4c4.5,4.9,9.9,8.9,16.4,12l-0.2,0.8c-4.9,1.1-8,4.3-9.4,9.6
		c-4.9-3.8-9-8.9-12.4-15.1C121.9,69.2,112.9,74.3,101.4,77.6z M128,46.7c2.5-6.9,3.9-14.9,4.5-24h-7c-1,2-2.4,4.5-4.3,7.4
		C122.8,36.3,125.1,41.8,128,46.7z"/>
	<path class="st0" d="M156.4,70.4l-0.5-0.9c8.5-7.2,13.7-18.3,15.9-33.3h-4.5c-2.7,0.1-5.4,0.4-8.2,1.1l-2.1-4
		c2.7,0.3,5.8,0.5,9.7,0.6h4.7l2.3-2.7c0.2-0.2,0.5-0.5,1-1c1-1.2,1.6-1.8,1.9-1.8c0.5,0,2.1,1.2,4.7,3.5c2.7,2.3,4,3.8,4,4.3
		c-0.4,0.8-1.3,1.2-2.7,1.4C178.7,53.4,170,64.3,156.4,70.4z M183.7,77.6c-0.3-4.1-1-6.9-2.1-8.2c-0.8-1-1.7-1.8-2.7-2.3
		c-1.2-0.6-2.8-1.2-4.8-1.5v-1c3.6,0.1,7.3,0.3,10.9,0.5c1,0,1.6-0.5,1.6-1.6V23.1h-5.8c-3.4,0.1-6.9,0.4-10.4,1.1l-2.1-4
		c2.9,0.3,6.3,0.5,10.4,0.6h7.1l2.2-2.8c0.1-0.2,0.4-0.5,0.7-0.9c1.1-1.3,1.8-1.9,2.1-1.9c0.5,0,2.2,1.2,5.1,3.5
		c2.9,2.3,4.3,3.8,4.3,4.4c-0.6,0.8-1.5,1.2-2.5,1.5v0.2c1,4.7,2.6,9.2,4.9,13.4c4.3-6.2,7.8-12.3,10.4-18.4l11.8,8.5
		c-0.3,0.9-1.3,1.2-2.9,1c-5.8,4.3-12,8-18.2,11c5.1,8.2,13.1,14.2,24.1,17.9l-0.3,0.8c-2.2,0.6-4.1,1.9-5.6,3.8
		c-1.5,1.9-2.5,4.3-3.2,7.1c-5.8-4.5-10.3-9.7-13.5-15.7c-3.5-6.5-6-15.2-7.6-26.1v36.2c0,4.2-0.8,7.1-2.3,8.9
		C193.2,75.6,189.4,77,183.7,77.6z M194,16.5c-1.3-2-3.2-4.2-5.8-6.6c-3.1-2.8-6.3-5.2-9.8-7.3l0.2-0.8c7.4-0.7,13.1-0.1,17.3,1.6
		c3.5,1.5,5.6,3.6,6.3,6.3c0.5,2.5,0,4.5-1.7,6C198.6,17.4,196.4,17.7,194,16.5z"/>
	<path class="st0" d="M266.1,77.6c-1.6,0-2.4-0.5-2.4-1.6c0.2-1.9,0.3-4.3,0.5-7.3v-4.5h-15.5c-3.7,0.1-7.6,0.4-11.7,1.1l-2-4
		c2.9,0.3,6.3,0.5,10.4,0.6h18.8v-9.8h-13.3c-3.7,0.1-7.6,0.4-11.7,1.1l-2-4c2,0.3,4.5,0.5,7.4,0.6h3.4V38.3h-4.3
		c-2.5,0.1-5,0.4-7.6,1.1l-2-4c2.6,0.3,5.8,0.5,9.5,0.6h4.5V24.8H245c-1.6,0.1-3.3,0.4-5,1.1l-1.9-4c2.9,0.3,6.3,0.5,10.4,0.6h40.4
		l2.2-3.1c0.2-0.3,0.5-0.7,0.8-1.2c1-1.3,1.6-1.9,1.9-1.9c0.5,0,2.1,1,4.6,3.2c2.5,2.1,3.8,3.4,3.8,4.1c-0.2,0.8-0.9,1.3-2.1,1.3
		h-8.7v11.2h0.5l2.3-3.3c0.1-0.2,0.4-0.5,0.8-1c1.2-1.5,1.9-2.3,2.2-2.3c0.5,0,2.1,1.1,4.8,3.3c2.7,2.2,4,3.6,4,4.2
		c-0.2,0.8-0.9,1.3-2.1,1.3h-12.4v11.5l2.1-3.1c0.1-0.2,0.4-0.5,0.7-1c1-1.4,1.6-2.1,1.9-2.1c0.5,0,2,1,4.3,3.2
		c2.4,2.1,3.6,3.4,3.6,4.1c-0.2,0.8-0.9,1.3-2,1.3h-27.4V62h14.8l2.5-3.4c0.2-0.3,0.5-0.7,0.8-1.2c1.2-1.5,1.9-2.3,2.2-2.3
		c0.5,0,2.2,1.2,5,3.5s4.3,3.8,4.3,4.4c-0.1,0.8-0.8,1.3-2.1,1.3h-27.5v3.6c0.1,0.8,0.1,1.8,0.1,3c0.1,1.6,0.1,2.8,0.1,3.6
		c-0.2,0.6-1,1.3-2.5,1.9C270.7,77.1,268.6,77.6,266.1,77.6z M254.8,21.3c-1.4,0-2-0.5-2-1.6c0.1-0.5,0.1-1.1,0.1-1.9
		c0.1-0.6,0.1-1.2,0.1-1.6v-2.5h-6c-3.5,0.1-7.3,0.4-11.2,1.1l-1.9-4c2.9,0.3,6.3,0.5,10.4,0.6h8.8c0-4.1-0.2-7.5-0.6-10
		c4.3,0.9,7.6,1.6,9.6,2.3c1.8,0.5,2.9,0.9,3.2,1.3c0.3,0.3,0.1,0.6-0.4,1l-1.2,0.8v4.7h11.8c0-4.1-0.2-7.5-0.6-10
		c4.5,0.8,7.8,1.6,9.8,2.1c1.9,0.5,3,0.9,3.3,1.3c0.3,0.3,0.1,0.6-0.4,1l-1.3,0.9v4.7h5.4l2.3-3.5c0.2-0.3,0.5-0.7,0.8-1.2
		c1.1-1.5,1.8-2.3,2.1-2.3c0.5,0,2.1,1.2,4.6,3.6c2.5,2.3,3.8,3.8,3.8,4.4c-0.2,0.8-0.9,1.3-2.1,1.3h-16.9v1.6
		c0.1,0.5,0.1,1,0.1,1.6c0.1,0.6,0.1,1,0.1,1.2c-0.1,0.7-1,1.3-2.9,1.9c-1.9,0.6-4,0.9-6.4,0.9c-1.4,0-2-0.5-2-1.6
		c0.1-0.4,0.1-1,0.1-1.8c0.1-0.5,0.1-1,0.1-1.4v-2.5h-11.8v1.9c0.1,0.5,0.1,1.2,0.1,1.9c0.1,0.6,0.1,1,0.1,1.3
		c-0.1,0.7-1,1.3-2.8,1.9C259.2,21,257.1,21.3,254.8,21.3z M258,36.1h6.2V24.9H258V36.1z M258,49.9h6.2V38.4H258V49.9z M274.7,36.1
		h6.2V24.9h-6.2V36.1z M274.7,49.9h6.2V38.4h-6.2V49.9z"/>
	<path class="st0" d="M7.2,164.2c-0.8,0-1.5-0.1-2-0.5c-0.4-0.3-0.6-0.7-0.6-1.1c0.5-6.9,0.8-13.8,0.8-20.8V123
		c0-6.7-0.3-12.2-1-16.4l11.9,4.7h5.4l2.1-2.7c0.1-0.2,0.4-0.5,0.8-0.9c1-1.2,1.6-1.9,1.9-1.9c0.5,0,2.1,1.1,4.9,3.4
		c2.7,2.3,4.1,3.7,4.1,4.3c-0.6,0.8-1.6,1.4-3,1.8v21.8c0.1,6.6,0.3,12.9,0.6,18.8c-0.4,0.7-1.6,1.5-3.4,2.4c-2.1,1-4.1,1.4-5.7,1.4
		c-1.3,0-1.9-0.5-1.9-1.6c0.1-0.4,0.1-1,0.1-1.8c0.1-0.5,0.1-1,0.1-1.4v-2.4h-7v2.7c0.1,0.6,0.1,1.3,0.1,2.1
		c0.1,1.3,0.2,2.2,0.2,2.8c-0.2,0.8-1,1.6-2.4,2.4C11.6,163.7,9.5,164.2,7.2,164.2z M15.4,130.8h7v-17.3h-7L15.4,130.8L15.4,130.8z
		 M15.4,150.3h7V133h-7L15.4,150.3L15.4,150.3z M56.6,179.2c-0.3-3.8-1.1-6.4-2.3-7.8c-1.6-1.8-4.2-3.1-7.8-3.8v-1
		c3.8,0.1,7.7,0.3,11.5,0.5c1.2,0,1.7-0.6,1.7-1.8v-17.3H47.5c-1,6.7-3.2,12.5-6.7,17.3c-4.1,5.7-10.3,10.2-18.6,13.7l-0.5-0.6
		c6.7-5.4,11.2-12,13.7-19.8c1.9-5.8,2.8-13.6,2.8-23.3v-14.9c0-6.2-0.3-11.3-1-15.3l12.5,4.6H59l2.1-2.8c0.1-0.2,0.4-0.5,0.7-0.9
		c1-1.3,1.6-1.9,1.9-1.9c0.5,0,2.2,1.2,5,3.5c2.8,2.3,4.3,3.8,4.3,4.4c-0.8,0.8-1.7,1.4-3,1.6v52.9c0,4.1-0.8,6.9-2.3,8.6
		C65.9,177.4,62.2,178.7,56.6,179.2z M47.8,145.9h11.9V130H48.3v5.3C48.3,139.6,48.1,143.1,47.8,145.9z M48.3,127.8h11.5V112H48.3
		V127.8z"/>
	<path class="st0" d="M82.1,177.2l-1.9-4c2.9,0.3,6.3,0.5,10.4,0.6h20.6v-11.6h-6.4c-3.7,0.1-7.6,0.4-11.7,1.1l-1.9-4
		c2.9,0.3,6.3,0.5,10.4,0.6h9.7V150h-11c-4.5,5.8-10.3,10.4-17.2,13.5l-0.7-0.6c2.5-3,4.8-6.5,6.9-10.7c2.3-4.3,4.1-8.9,5.4-13.7
		c-0.3,0.1-0.7,0.1-1.2,0.1h-1.6v-18.3c0-6.7-0.3-12.2-1-16.4l13,5.3h24.7l4.9-5.8l10.3,8.2c-0.7,0.9-1.6,1.5-3,1.8v7.2
		c0.1,5.8,0.3,10.5,0.5,13.9c-0.3,0.5-1.5,1.2-3.7,1.9c-2.3,0.8-4.4,1.1-6.2,1.1h-2.1v-3.4h-26.1v0.8c0,0.6-1.1,1.4-3.4,2.4
		c3.9,1.4,6.3,2.5,7.2,3.2c0.7,0.5,0.5,1-0.3,1.3l-1.4,0.4c-1,1.9-2.2,3.7-3.5,5.6h9.3c0-5.1-0.3-9.2-0.8-12.4
		c4.8,0.9,8.3,1.6,10.5,2.3c2,0.5,3.2,1,3.6,1.4c0.3,0.3,0.1,0.6-0.5,1l-1.3,1v6.9h8.8l2.5-3.8c0.2-0.3,0.5-0.7,0.8-1.3
		c1.2-1.7,1.9-2.5,2.2-2.5c0.5,0,2.2,1.3,4.9,3.8c2.7,2.6,4.2,4.2,4.2,4.7c-0.2,0.8-1,1.3-2.2,1.3h-21.2v9.9h9l2.4-3.8
		c0.1-0.3,0.4-0.6,0.8-1.1c1.2-1.8,1.9-2.6,2.2-2.6c0.5,0,2.1,1.2,4.9,3.8s4.1,4.1,4.1,4.7c-0.2,0.8-1,1.3-2.2,1.3h-21.2v11.5h13.5
		l2.5-3.9c0.2-0.3,0.5-0.8,1-1.4c1.1-1.6,1.8-2.5,2.1-2.5c0.5,0,2.2,1.3,5,4c2.8,2.6,4.2,4.3,4.2,4.8c-0.2,0.8-0.9,1.3-2.1,1.3h-55
		C90.1,176.1,86.2,176.4,82.1,177.2z M103.3,120.4h26.1v-8.9h-26.1V120.4z M103.3,131.9h26.1v-9.3h-26.1V131.9z"/>
	<path class="st0" d="M159.8,146.2c-1.4-1.2-2.1-2.8-1.8-4.8c0.2-2.2,1.4-3.9,3.7-5.1c1.2-0.5,2.1-1.5,2.9-2.9c0.8-1.5,1-3.2,1-5.3
		l0.8-0.1c1.2,2.1,2,4.1,2.5,6.1h0.1l-0.6-26.9l7.6,1.4c2.2-2,4-4,5.2-6l6.6,5.8c1.9-0.1,3.6,0.1,5.1,0.4c1.2-1.9,1.9-3.7,2.4-5.5
		l8,4.8c-0.3,0.7-1.2,0.9-2.5,0.5c-1,1.2-1.7,2.1-2.4,2.6c1.1,1,1.7,2.1,1.8,3.3c0.1,1.1-0.3,2-1,2.6c-0.8,0.6-1.9,0.8-3.1,0.4
		c-0.8-1-1.6-1.9-2.3-2.6c-2.4,1.5-4.8,2.8-7.1,3.9c-0.2,0.7-0.8,1-1.8,1h-6.7l0.1,6.3h0.2l1.3-2.1c0.1-0.1,0.2-0.3,0.4-0.6
		c0.7-1,1.2-1.5,1.5-1.5c0.5,0,1.4,0.7,3,2.1c1.5,1.4,2.3,2.5,2.3,3c-0.1,0.8-0.8,1.3-1.9,1.3h-6.7l0.1,5.8h29.2l0.1-5.8h-1.7
		c-0.8,0.1-1.5,0.4-2.3,1.1l-2.1-4c1.2,0.3,2.7,0.5,4.3,0.6h1.9l0.2-6.3h-1.7c-0.8,0.1-1.5,0.4-2.3,1.1l-2.1-4
		c1.2,0.3,2.7,0.5,4.3,0.6h1.9l0.2-6.3h-2.1c-1,0.1-2.1,0.4-3.1,1.1l-2-4c1.2,0.3,2.7,0.5,4.5,0.6h2l1.7-2.4
		c0.1-0.1,0.3-0.4,0.6-0.8c0.8-1,1.3-1.6,1.6-1.6c0.5,0,2.1,1,4.8,3.2s4.1,3.4,4.1,4.1c-0.5,0.6-1.4,1.1-2.7,1.3l-0.7,19.1l1.4-1.6
		c0.1-0.1,0.3-0.3,0.5-0.5c0.7-0.7,1.2-1,1.5-1c0.5,0,2,1.4,4.7,4.1c2.7,2.7,4,4.4,4,5c-0.5,0.6-1.5,0.9-2.9,1
		c-5,2.5-9.1,4.5-12.2,5.6l-0.5-0.5c0.5-1.8,1-4.3,1.8-7.5h-46c0.9,5.4-0.5,8.9-4.3,10.4C163.1,147.7,161.3,147.5,159.8,146.2z
		 M185.7,179.2c-0.3-3.9-1-6.5-1.9-8c-1.4-1.8-3.8-3-7-3.6v-1c3.4,0.1,6.8,0.3,10.2,0.5c1,0,1.4-0.4,1.4-1.2v-6.5H173
		c-3.7,0.1-7.6,0.4-11.7,1.1l-2-4c2.9,0.3,6.3,0.5,10.4,0.6h18.7c0-3-0.1-5.4-0.4-7l7.8,1c0.9-1,2.1-2.6,3.8-4.7
		c0.1-0.3,0.3-0.5,0.4-0.5h-12.5c-3.7,0.1-7.6,0.4-11.7,1.1l-2.1-4c2.9,0.3,6.3,0.5,10.4,0.6h16.8l2.7-2.8c0.2-0.2,0.5-0.5,1-1
		c1.2-1.3,1.9-1.9,2.3-1.9c0.5,0,2.1,1.3,4.9,3.9s4.1,4.2,4.1,4.8c-0.6,0.6-1.6,1-3,1c-4.8,1.8-8.6,3.2-11.3,4
		c-0.2,1.1-1,1.7-2.5,1.9v3.5h13.3l2.4-3.8c0.2-0.3,0.5-0.7,0.8-1.3c1.2-1.7,1.9-2.5,2.2-2.5c0.5,0,2.2,1.3,4.9,3.8
		c2.7,2.6,4.2,4.2,4.2,4.7c-0.2,0.8-1,1.3-2.2,1.3h-25.7v7c0,4.1-0.8,7.1-2.3,8.8C194.9,177.4,191.2,178.7,185.7,179.2z
		 M178.1,117.7h0.3l3-4c1.4,1.3,2.9,2.7,4.3,4c1.6-1.5,3.3-3.4,5-5.5c-0.1-0.1-0.3-0.3-0.6-0.5c-1-0.8-1.8-1.4-2.3-1.6
		c-0.3,0-0.7-0.1-1-0.2c-3,0.8-5.9,1.4-8.8,1.9L178.1,117.7z M184.9,133.8l-0.6-1.1c2.1-1.4,4.5-3.4,6.9-6.1
		c-1.1-1.1-2.5-2.3-4.3-3.6l0.6-0.7c2.3,0,4.4,0.3,6.3,0.8c1.3-2,2.1-3.8,2.5-5.4c6.2,3.2,8.5,4.8,6.8,5l-1.2,0.1
		c-0.7,0.9-1.6,1.9-2.7,3.1c1.2,1.1,1.7,2.3,1.7,3.6c0.1,1.3-0.3,2.3-1.3,2.9c-0.9,0.6-2.1,0.7-3.4,0.1c-0.4-0.7-1.1-1.6-2-3
		C190.9,131.6,187.7,133,184.9,133.8z"/>
	<path class="st0" d="M242.3,179.8c-1.9,0-2.8-0.5-2.8-1.6c0.5-6.9,0.8-13.8,0.8-20.8v-36.8c0-6.7-0.3-12.2-1-16.4l12.6,5.5h36.8
		l2.5-3.6c0.2-0.3,0.5-0.6,0.8-1.1c1.2-1.6,1.9-2.5,2.3-2.5c0.5,0,2.2,1.2,5.2,3.6c2.9,2.4,4.3,3.9,4.3,4.5c-0.2,0.8-1,1.3-2.2,1.3
		h-50.8v59h41.4l2.5-3.6c0.1-0.2,0.4-0.5,0.7-1c1.2-1.8,2.1-2.7,2.4-2.7c0.5,0,2.2,1.2,5.2,3.6c2.9,2.5,4.3,4,4.3,4.5
		c-0.2,0.8-1,1.3-2.2,1.3h-54.4v3c0,0.6-0.8,1.3-2.3,2.1C246.9,179.4,244.7,179.8,242.3,179.8z M255.2,167.7c-1.2,0-1.7-0.5-1.7-1.6
		c0.2-2,0.3-4.6,0.5-7.8v-4.8c0-6.1-0.3-11-0.8-14.5l9.8,4.1h2.3l1.8-2.1c0.1-0.1,0.3-0.4,0.6-0.7c0.8-1,1.4-1.4,1.7-1.4
		c0.5,0,1.9,0.9,4.3,2.7c2.3,1.8,3.4,3,3.4,3.6c-0.5,0.7-1.4,1.2-2.4,1.4v5.6c0.1,4.6,0.3,8.2,0.5,10.9c-0.3,0.5-1.3,1.1-3,1.6
		c-1.8,0.6-3.4,1-4.7,1c-1.2,0-1.8-0.5-1.8-1.6c0.1-0.2,0.1-0.5,0.1-0.8c0.1-0.3,0.1-0.5,0.1-0.6V161h-3.3v3.8c0,0.5-0.8,1-2.3,1.6
		C258.6,167.3,257,167.7,255.2,167.7z M263,139.6c-1.2,0-1.9-0.5-1.9-1.6c0.2-1.9,0.3-4.2,0.5-6.9v-4.3c0-5.4-0.3-9.8-0.8-13.2
		l11.2,4.6h7.8l2.1-2.5c0.1-0.1,0.3-0.3,0.5-0.6c1-1.3,1.7-1.9,2.1-1.9c0.5,0,2.1,1.1,4.9,3.2c2.7,2.1,4.1,3.5,4.1,4.1
		c-0.6,0.8-1.5,1.2-2.7,1.5v4.6c0,0.7,0,1.6,0.1,2.8c0.1,2.6,0.2,4.6,0.3,5.9c-0.3,0.5-1.4,1.1-3.4,1.8c-2.1,0.7-3.9,1-5.4,1
		c-1.4,0-2-0.5-2-1.6c0.1-0.1,0.1-0.3,0.1-0.5c0-0.2,0.1-0.4,0.1-0.6V134h-8.9v2.3c0,0.5-1,1.2-2.8,2
		C266.9,139.1,264.9,139.6,263,139.6z M262.7,158.8h3.3v-13.5h-3.3V158.8z M271.7,131.8h8.9v-11.3h-8.9V131.8z M278.5,166.4
		c-1.2,0-1.7-0.5-1.7-1.6c0.2-2,0.3-4.5,0.5-7.4v-4.5c0-5.8-0.3-10.4-0.8-13.9l9.9,4.1h2.9l1.8-2.1c0.1-0.1,0.3-0.4,0.6-0.7
		c0.9-1,1.5-1.5,1.8-1.5c0.5,0,2,1,4.3,2.8c2.3,1.9,3.6,3.1,3.6,3.6c-0.5,0.6-1.3,1.1-2.4,1.3v5.5c0.1,4.5,0.3,8,0.5,10.7
		c-0.3,0.5-1.3,1.1-3,1.8c-1.8,0.6-3.4,1-4.8,1c-1.2,0-1.9-0.5-1.9-1.6c0.1-0.1,0.1-0.4,0.2-0.7c0-0.1,0-0.3,0.1-0.5v-1.4h-3.9v2.5
		c0,0.5-0.8,1-2.3,1.8C282,166,280.3,166.4,278.5,166.4z M286,158.8h3.9v-13.5H286V158.8z"/>
</g>
<g>
	<path class="st0" d="M60.9,268.6c-1.4,4.4-3.2,8-5.7,10.9c6,2.6,11.7,5.4,15.5,7.8l-3.8,4.4c-3.8-2.6-9.4-5.5-15.7-8.3
		c-5.4,4.4-12.9,6.9-22.9,8.5c-0.5-1.3-2-3.7-3.1-5c8.8-1,15.5-2.8,20.4-5.9c-4.9-2-9.8-3.8-14.3-5.2c1.4-2,3.1-4.5,4.6-7.2h-11
		v-4.7h13.7c1.6-3,3-6.1,4-8.9l5.7,1c-1,2.5-2.2,5.2-3.5,7.8h11.3c0.3-1.5,0.6-3.3,0.8-5l6,0.5c-0.2,1.6-0.6,3.1-0.9,4.6h9.1v4.7
		L60.9,268.6L60.9,268.6z M31.2,259.8h-5v-11.2h19.4c-0.7-1.6-1.5-3.5-2.2-5l5.4-1.4c1,2,2.3,4.5,3.1,6.4H70v11.2h-5.3v-6.6H31.2
		V259.8z M42.2,268.6c-1,1.8-2,3.4-3,4.9c3.4,1.2,7.1,2.5,10.6,3.8c2.2-2.3,3.8-5.2,5-8.8L42.2,268.6L42.2,268.6z"/>
	<path class="st0" d="M124.2,273.5h-21.4v18.1h-5.1v-18.1H76.6v-5h21.2V251H79.4v-4.9h41.9v4.9h-18.4v17.5h21.4L124.2,273.5
		L124.2,273.5z M87.3,253.2c2,3.7,4,8.5,4.7,11.5l-4.7,1.6c-0.7-3-2.5-8-4.4-11.7L87.3,253.2z M107.9,265c1.8-3.2,4.1-8.3,5.2-12
		l5.3,1.4c-1.9,4.2-4.2,9-6.2,12L107.9,265z"/>
	<path class="st0" d="M174.9,245v46.8H170v-2.3h-34.9v2.3h-4.7V245H174.9z M170,285v-35.5h-34.9V285H170z M166,262.2
		c-1.3,4.9-3.3,9.1-5.7,12.6c0.9,2.3,2.1,3.8,3.4,4c0.6,0.2,1.1-2,1.4-5.3c0.8,0.8,2.3,1.8,3.1,2.3c-0.7,6.1-3,8.2-6.1,7
		c-2-0.6-3.6-2.1-4.9-4.4c-1.8,2-4,3.8-6.4,5.4c-0.6-0.7-2-2.3-2.8-3c1.4-0.9,2.8-1.8,4.1-2.9c-5.2,0.9-10.6,1.8-14.9,2.6l-0.6-3.8
		c3.9-0.6,9.7-1.4,15.5-2.3l0.1,3.3c1.2-1,2.2-2.2,3.2-3.4c-1.3-4.1-2.1-9.3-2.6-14.9h-15.7v-3.7h15.3c-0.1-1.7-0.2-3.4-0.3-5.1h4.1
		c0.1,1.7,0.2,3.4,0.2,5.1h7.5c-1-1.2-3.4-2.7-5.3-3.7l2.3-2.3c1.9,0.9,4.2,2.3,5.4,3.5l-2.3,2.5h3.3v3.7h-10.5
		c0.4,3.8,0.9,7.5,1.5,10.5c1.4-2.6,2.5-5.4,3.3-8.5L166,262.2z M151,262.3v10.2h-11.8v-10.2H151z M147.5,265.1h-5v4.6h5V265.1z"/>
	<path class="st0" d="M226.5,252v25.5h-5.2v-2.9h-13.9v16.9h-5.2v-16.9h-13.8v3.1h-5V252h18.8v-9.3h5.2v9.3L226.5,252L226.5,252z
		 M202.2,269.8v-12.9h-13.8v12.9H202.2z M221.3,269.8v-12.9h-13.9v12.9H221.3z"/>
	<path class="st0" d="M246.6,256.7c-1.8,7.8-4.7,17.4-9.4,23.4c-1.2-0.9-3.4-2.2-4.7-2.6c4.5-5.5,7.4-14.7,8.6-21.8L246.6,256.7z
		 M260.2,243.4v41.7c0,3.3-0.9,4.7-3,5.6c-2.2,0.8-5.5,1-10.6,0.9c-0.3-1.4-1.2-3.8-2-5.2c3.6,0.2,7.5,0.2,8.6,0.1s1.5-0.4,1.5-1.4
		v-41.7L260.2,243.4L260.2,243.4z M272.3,255.2c4.6,7.4,9,17.1,10.2,23.6l-5.4,2.2c-1.1-6.3-5.4-16.2-9.7-23.9L272.3,255.2z"/>
	<path class="st0" d="M246.6,350.7l0.9,4.8c-5.7,2.5-11.8,4.9-16.6,6.7l-2-5.5c2-0.6,4.4-1.5,7-2.3v-18.2h-6V331h6v-12.7h4.9v12.9
		h5.3v5.1h-5.3v16.5L246.6,350.7z M282.5,351h-15.3v19.8h-5.4V351h-15.2v-5.1h15.2v-20.3h-13.5v-5.1H281v5.1h-13.7v20.3h15.3
		L282.5,351L282.5,351z M254.3,328.3c1.6,4.4,2.9,10.1,3.3,13.9l-4.5,1.1c-0.3-3.7-1.6-9.5-3-13.9L254.3,328.3z M270.9,342.2
		c1.3-3.8,2.9-9.9,3.6-14.2l5.1,1.1c-1.5,4.9-3.1,10.6-4.6,14.1L270.9,342.2z"/>
	<g>
		<path class="st0" d="M49.8,315.8h10.1v34.1h4.7v9.3h-4.7V370h-9.9v-10.8H26.9v-9.3L49.8,315.8z M49.9,349.8v-17.7l-12.1,17.7H49.9
			z"/>
		<path class="st0" d="M77.3,317.1h15.1v52.9h-10v-43.5H71.5L77.3,317.1z"/>
		<path class="st0" d="M111.3,345.9h18.3v9.1h-18.3V345.9z"/>
		<path class="st0" d="M146.7,317.1h24.8v9.3h-17.3l-2.2,9.6c0.6-0.2,1.2-0.3,1.7-0.3c0.6-0.1,1.1-0.1,1.6-0.1c4.8,0,8.8,1.6,12,4.9
			s4.8,7.5,4.8,12.6c0,5.1-1.7,9.5-5.3,13c-3.6,3.6-7.8,5.3-12.8,5.3c-4.5,0-8.4-1.3-11.6-3.8c-3.2-2.6-5.4-6.1-6.3-10.5h10.6
			c0.8,1.6,1.9,2.9,3.2,3.7c1.3,0.9,2.8,1.3,4.4,1.3c2.3,0,4.2-0.8,5.7-2.4s2.3-3.6,2.3-6.2c0-2.4-0.7-4.4-2.2-6
			c-1.5-1.6-3.2-2.3-5.3-2.3c-1.1,0-2.2,0.3-3.3,0.9c-1,0.5-2.1,1.4-3.1,2.5l-8.2-1.8L146.7,317.1z"/>
		<path class="st0" d="M187,334.1h-9.8c0.3-5.7,2.1-10.2,5.4-13.4c3.3-3.3,7.5-4.9,12.7-4.9c3.2,0,6.1,0.7,8.5,2
			c2.4,1.4,4.4,3.3,5.9,5.9c1.5,2.5,2.2,5.1,2.2,7.8c0,3.1-0.9,6.5-2.7,10.1c-1.8,3.6-5,7.9-9.8,12.8l-5.9,6.2h18.8v9.3h-36.7v-4.9
			l16.4-16.7c4-4,6.6-7.2,7.9-9.6s2-4.6,2-6.6c0-2-0.7-3.7-2-5c-1.4-1.3-3.1-2-5.2-2c-2.2,0-4,0.8-5.4,2.4
			C187.9,329.2,187.1,331.4,187,334.1z"/>
	</g>
</g>
<g>
	<g>
		<g>
			<path class="st1" d="M103.6,418.7v-2.3h13.6c0-0.4,0-1.1,0-2c0.2-0.6,0.2-2,0.2-4.2h5.3c-0.3,3.2-0.5,5.2-0.5,6.2h15.6v2.3h-16.1
				c-0.3,1.8-0.7,3.4-1.4,4.9H136v2.3h-16.1c-0.5,1.4-1.3,3.2-2.4,5.3h22.3v2.3h-12.3c2.1,4.3,6.1,7.1,12.3,8.5
				c-1.1,2.1-1.3,4-0.6,6c0,0.6,0,1,0,1.1c-0.2,0-0.4-0.1-0.6-0.2c-2.5-1.2-4.4-2.6-5.8-4.2v21.1h-4.4v-3.2h-14.8v3.2H109v-22.9
				c-1.1,1.4-2.8,3.1-5.3,5.1c-0.5,0.5-0.8,0.8-1.1,1.1H101c4.9-4.6,8.9-9.8,12-15.6h-11.2v-2.3h12c0.6-1.5,1.2-3.2,1.8-5.3h-10.3
				v-2.3H116c0.2-1.1,0.5-2.7,0.9-4.9H103.6z M126.4,433.4h-10c-0.7,1.4-2.3,3.4-4.7,6.2h1.8v1.3h14.7v-1.3h0.9
				C127.7,437.7,126.8,435.6,126.4,433.4z M113.4,443.1v7.4H126v2.3h-12.5v7.6h14.7v-17.1L113.4,443.1
				C113.4,443.2,113.4,443.1,113.4,443.1z"/>
			<path class="st1" d="M155.6,425.9H148v-2.3h8l0.2-2.7h4.7c-0.5,3.4-1.5,7-3.3,10.9v1.1c1.9,1.5,3.6,2.7,5.1,3.6h4.4v2.3h13.4
				v-2.3h4.4v28.7h-4.4v-3.2h-13.4v3.2h-4.4v-27.8c-0.5,1.6-1.2,2.8-2.3,3.6c-1.2-2.1-2.3-4.1-3.2-6.2v30.5h-4.4v-27.6
				c-1.2,1.6-2.6,3.3-4.2,5.1h-1.1C151.3,437.7,153.9,432.1,155.6,425.9z M152.5,410.1l0.2-0.2c1.9,1.4,4.1,3,6.5,4.9
				c-0.3,1.8-0.9,3.4-1.8,4.9C155.3,417.4,153.6,414.2,152.5,410.1z M186.3,412v2.3h-25V412H186.3z M164.5,434.3v-15.6h4.4v1.8h9.8
				v-1.8h4.4v15.6h-4.4V432H169v2.3H164.5z M167.2,441v7.8h4.4V441H167.2z M167.2,451v8.9h4.4V451H167.2z M169,429.8h9.8v-7.1H169
				V429.8z M176.1,448.7h4.4V441h-4.4V448.7z M176.1,459.9h4.4V451h-4.4V459.9z"/>
			<path class="st1" d="M201.8,423.2h5.3c-0.6,3.7-1.6,7-3.2,9.8h1.4v23.6c0.3,0,0.7-0.1,1.4-0.2c0.5,0,0.9-0.1,1.4-0.2v-21.3h4
				v20.9c0.5-0.2,1.2-0.5,2.3-1.1v-23.8h-7.1v-2.7h7.1v-9.4h-1.8c-0.7,1.6-1.9,4-3.6,7.1c-0.3,0.5-0.5,0.7-0.5,0.9h-0.9
				c1.5-3.6,2.3-9.1,2.3-16.5h4.4c-0.3,1.8-0.6,3.6-1.1,5.3h7.8v2.7h-2.7v9.8h4v-16.5h4v2.7h3.2v-2.7h4V452c0,2.7-1.4,4.6-4,5.8
				c-0.5-0.3-0.9-0.5-1.4-0.5l-1.8,0.6v7.1h-4v-14.9c-1.9,4.9-7.1,8.5-15.6,10.9c0.2-1.9-0.3-3.2-1.4-3.8v7.4h-4v-26
				c-1.6,1.6-3.2,3.2-4.4,4.9h-1.4C199.5,437.2,201.6,430.5,201.8,423.2z M201.3,410.3h5.8c-1.6,7.1-4.9,13.2-9.8,18.3h-1.8
				C199,424.5,200.9,418.4,201.3,410.3z M218.3,442.3v10.7l0.5-0.2c2.1-1.6,3.2-3.2,3.6-4.7v-17.4h-4v8.9h2.7v2.7L218.3,442.3
				L218.3,442.3z M229.4,417h-3.2v40.5c2.3-1.2,3.2-2.7,3.2-4.4V417z"/>
			<path class="st1" d="M260.5,414.9v12.7h6.7v2.7h-6.7v9.8c0,4.8,1.1,9.1,3.3,13.1l1.5-9.5h0.9l-0.6,10.9c-0.2,0.6,0.4,1.1,1.5,1.5
				l-0.9,6.9c-4.8-3.2-7.9-8.6-9.4-16c-0.5,1.6-1.6,4-3.6,7.1c1.2,1.1,2.9,2.3,5.1,4c-0.6,1.5-1.5,3.2-2.4,5.3
				c-1.4-3.2-2.3-6.1-2.7-9.1c-3,3.9-5.8,6.3-8.5,7.4c0.7-1.8,0.6-4-0.5-6.5c1.4,0,2.3-0.2,3.2-0.6v-42.9h4.4v3.6
				c3.9-1.2,7.4-2.8,10.7-4.9c1.6,0.9,3.2,1.8,4.9,2.7C265.8,413.8,263.4,414.5,260.5,414.9z M252,415.6v12h4.4v-12.2
				C254.8,415.7,253.3,415.8,252,415.6z M256.4,441.2v-10.9H252v21.6c1.9-1.8,3.6-3.7,4.9-5.8C256.6,444,256.4,442.3,256.4,441.2z
				 M272.9,465.2h-4.4v-54.9h4.4v3.2h4.4v-2.7h4.4v6.7c-0.3,5.2-2.5,9.3-6.7,12.2c4,1.2,6.2,3.2,6.7,6.2v17.5
				c-0.2,2.5-1.9,4.3-5.3,5.3c-0.2-0.5-0.6-0.6-1.4-0.5l-2.3,0.9L272.9,465.2L272.9,465.2z M274.7,429.8v-0.4
				c1.8-3.2,2.7-6.5,2.7-10v-3.3h-4.4v42.4c2.8-1.1,4.3-2.7,4.4-4.9v-18C277.3,433.5,276.5,431.6,274.7,429.8z"/>
		</g>
		<g>
			
				<linearGradient id="SVGID_1_" gradientUnits="userSpaceOnUse" x1="32.4459" y1="1141.8903" x2="85.1996" y2="1141.8903" gradientTransform="matrix(1 0 0 1 0 -702.4588)">
				<stop  offset="2.631580e-02" style="stop-color:#A1804E"/>
				<stop  offset="0.2947" style="stop-color:#FBDFB9"/>
				<stop  offset="0.5737" style="stop-color:#C79F62"/>
				<stop  offset="0.7842" style="stop-color:#F3DDC0"/>
				<stop  offset="1" style="stop-color:#AD8C5E"/>
			</linearGradient>
			<path class="st2" d="M77.9,439.4c1.6-1.3,7.2-6.5,7.4-15.6c0-0.2,0-0.2,0-0.4c0-1.9-0.4-3.9-1.1-5.7l-19.4,15.8l15.8-19.4
				c-1.9-0.7-3.8-1.1-5.7-1.1c-0.2,0-0.2,0-0.4,0c-9.1,0.2-14.3,5.8-15.6,7.4c-1.3-1.6-6.5-7.2-15.6-7.4c-0.2,0-0.2,0-0.4,0
				c-1.9,0-3.9,0.4-5.7,1.1l15.8,19.4l-19.4-15.8c-0.7,1.9-1.1,3.8-1.1,5.7c0,0.2,0,0.2,0,0.4c0.2,9.1,5.8,14.3,7.4,15.6
				c-1.6,1.3-7.2,6.5-7.4,15.6c0,0.2,0,0.2,0,0.4c0,1.9,0.4,3.9,1.1,5.7l19.4-15.8l-15.8,19.4c1.9,0.7,3.8,1.1,5.7,1.1
				c0.2,0,0.2,0,0.4,0c9.1-0.2,14.3-5.8,15.6-7.4c1.3,1.6,6.5,7.2,15.6,7.4c0.2,0,0.2,0,0.4,0c1.9,0,3.9-0.4,5.7-1.1l-15.8-19.4
				l19.4,15.8c0.7-1.9,1.1-3.8,1.1-5.7c0-0.2,0-0.2,0-0.4C85,446,79.4,440.7,77.9,439.4z M42.6,417.4c-0.3-0.4-1-2.4,3.3-2.3
				c7.8,0.2,12.5,6.2,12.6,6.3l0.3,16.8l0.3-16.8c0-0.1,4.8-6.1,12.6-6.3c4.3-0.1,3.6,1.9,3.3,2.3l-12.9,17.5c-1,1.3-2,2.4-3.3,3.5
				l0,0l-0.1-0.2l-0.1,0.2l0,0c-1.2-1.1-2.3-2.2-3.3-3.5L42.6,417.4z M36.7,455.7c-0.4,0.3-2.4,1-2.3-3.3c0.2-7.8,6.2-12.5,6.3-12.6
				l16.8-0.3l-16.8-0.3c-0.1,0-6.1-4.8-6.3-12.6c-0.1-4.3,1.9-3.6,2.3-3.3L54.2,436c1.3,1,2.4,2,3.5,3.3l0,0l-0.2,0.1l0.2,0.1l0,0
				c-1.1,1.2-2.2,2.3-3.5,3.3L36.7,455.7z M75.1,461.6c0.3,0.5,1,2.4-3.3,2.3c-7.8-0.2-12.5-6.2-12.6-6.3l-0.3-16.8l-0.3,16.8
				c0,0.1-4.8,6.1-12.6,6.3c-4.3,0.1-3.6-1.9-3.3-2.3l12.9-17.5c1-1.3,2-2.4,3.3-3.5l0,0l0.1,0.2l0.1-0.2l0,0
				c1.2,1.1,2.3,2.2,3.3,3.5L75.1,461.6z M81,455.7l-17.5-12.9c-1.3-1-2.4-2-3.5-3.3l0,0l0.2-0.1l-0.2-0.1l0,0
				c1.1-1.2,2.2-2.3,3.5-3.3L81,423.2c0.4-0.3,2.4-1,2.3,3.3c-0.2,7.8-6.2,12.5-6.3,12.6l-16.8,0.3l16.8,0.3c0.1,0,6.1,4.8,6.3,12.6
				C83.4,456.6,81.4,456,81,455.7z"/>
			
				<linearGradient id="SVGID_00000137811585188205949320000006687747035151561105_" gradientUnits="userSpaceOnUse" x1="45.8788" y1="1117.2809" x2="51.9904" y2="1117.2809" gradientTransform="matrix(1 0 0 1 0 -702.4588)">
				<stop  offset="2.631580e-02" style="stop-color:#A1804E"/>
				<stop  offset="0.2947" style="stop-color:#FBDFB9"/>
				<stop  offset="0.5737" style="stop-color:#C79F62"/>
				<stop  offset="0.7842" style="stop-color:#F3DDC0"/>
				<stop  offset="1" style="stop-color:#AD8C5E"/>
			</linearGradient>
			<path style="fill:url(#SVGID_00000137811585188205949320000006687747035151561105_);" d="M52,415.2l-0.4,1.1
				c-1.6-0.6-3.6-1.1-5.7-1.2l0,0l0.6-1.6C48.6,413.7,50.4,414.4,52,415.2z"/>
			
				<linearGradient id="SVGID_00000174591881120850082650000000316219416810062255_" gradientUnits="userSpaceOnUse" x1="65.6498" y1="1117.2809" x2="71.7616" y2="1117.2809" gradientTransform="matrix(1 0 0 1 0 -702.4588)">
				<stop  offset="2.631580e-02" style="stop-color:#A1804E"/>
				<stop  offset="0.2947" style="stop-color:#FBDFB9"/>
				<stop  offset="0.5737" style="stop-color:#C79F62"/>
				<stop  offset="0.7842" style="stop-color:#F3DDC0"/>
				<stop  offset="1" style="stop-color:#AD8C5E"/>
			</linearGradient>
			<path style="fill:url(#SVGID_00000174591881120850082650000000316219416810062255_);" d="M65.7,415.2l0.4,1.1
				c1.6-0.6,3.6-1.1,5.7-1.2l0,0l-0.6-1.6C69.2,413.7,67.3,414.4,65.7,415.2z"/>
			
				<linearGradient id="SVGID_00000142163562551920023700000007842637949015305651_" gradientUnits="userSpaceOnUse" x1="82.028" y1="1132.0708" x2="84.88" y2="1132.0708" gradientTransform="matrix(1 0 0 1 0 -702.4588)">
				<stop  offset="2.631580e-02" style="stop-color:#A1804E"/>
				<stop  offset="0.2947" style="stop-color:#FBDFB9"/>
				<stop  offset="0.5737" style="stop-color:#C79F62"/>
				<stop  offset="0.7842" style="stop-color:#F3DDC0"/>
				<stop  offset="1" style="stop-color:#AD8C5E"/>
			</linearGradient>
			<path style="fill:url(#SVGID_00000142163562551920023700000007842637949015305651_);" d="M83.1,432.6l-1.1-0.4
				c0.6-1.6,1.1-3.6,1.2-5.7l0,0l1.6,0.6C84.6,429.2,83.9,431,83.1,432.6z"/>
			
				<linearGradient id="SVGID_00000043447902236008283900000013226362690863102096_" gradientUnits="userSpaceOnUse" x1="82.028" y1="1151.7906" x2="84.88" y2="1151.7906" gradientTransform="matrix(1 0 0 1 0 -702.4588)">
				<stop  offset="2.631580e-02" style="stop-color:#A1804E"/>
				<stop  offset="0.2947" style="stop-color:#FBDFB9"/>
				<stop  offset="0.5737" style="stop-color:#C79F62"/>
				<stop  offset="0.7842" style="stop-color:#F3DDC0"/>
				<stop  offset="1" style="stop-color:#AD8C5E"/>
			</linearGradient>
			<path style="fill:url(#SVGID_00000043447902236008283900000013226362690863102096_);" d="M83.1,446.3l-1.1,0.4
				c0.6,1.6,1.1,3.6,1.2,5.7l0,0l1.6-0.6C84.6,449.7,83.9,447.8,83.1,446.3z"/>
			
				<linearGradient id="SVGID_00000060726793410050715700000008020315766524856767_" gradientUnits="userSpaceOnUse" x1="65.6551" y1="1166.5806" x2="71.7665" y2="1166.5806" gradientTransform="matrix(1 0 0 1 0 -702.4588)">
				<stop  offset="2.631580e-02" style="stop-color:#A1804E"/>
				<stop  offset="0.2947" style="stop-color:#FBDFB9"/>
				<stop  offset="0.5737" style="stop-color:#C79F62"/>
				<stop  offset="0.7842" style="stop-color:#F3DDC0"/>
				<stop  offset="1" style="stop-color:#AD8C5E"/>
			</linearGradient>
			<path style="fill:url(#SVGID_00000060726793410050715700000008020315766524856767_);" d="M65.7,463.8l0.4-1.1
				c1.6,0.6,3.6,1.1,5.7,1.2l0,0l-0.6,1.6C69.2,465.1,67.3,464.5,65.7,463.8z"/>
			
				<linearGradient id="SVGID_00000143613744940131639950000011214136242732615348_" gradientUnits="userSpaceOnUse" x1="45.8841" y1="1166.5806" x2="51.9952" y2="1166.5806" gradientTransform="matrix(1 0 0 1 0 -702.4588)">
				<stop  offset="2.631580e-02" style="stop-color:#A1804E"/>
				<stop  offset="0.2947" style="stop-color:#FBDFB9"/>
				<stop  offset="0.5737" style="stop-color:#C79F62"/>
				<stop  offset="0.7842" style="stop-color:#F3DDC0"/>
				<stop  offset="1" style="stop-color:#AD8C5E"/>
			</linearGradient>
			<path style="fill:url(#SVGID_00000143613744940131639950000011214136242732615348_);" d="M52,463.8l-0.4-1.1
				c-1.6,0.6-3.6,1.1-5.7,1.2l0,0l0.6,1.6C48.6,465.1,50.5,464.5,52,463.8z"/>
			
				<linearGradient id="SVGID_00000027575199629257292450000011892388791168223166_" gradientUnits="userSpaceOnUse" x1="32.7655" y1="1151.7906" x2="35.6175" y2="1151.7906" gradientTransform="matrix(1 0 0 1 0 -702.4588)">
				<stop  offset="2.631580e-02" style="stop-color:#A1804E"/>
				<stop  offset="0.2947" style="stop-color:#FBDFB9"/>
				<stop  offset="0.5737" style="stop-color:#C79F62"/>
				<stop  offset="0.7842" style="stop-color:#F3DDC0"/>
				<stop  offset="1" style="stop-color:#AD8C5E"/>
			</linearGradient>
			<path style="fill:url(#SVGID_00000027575199629257292450000011892388791168223166_);" d="M34.6,446.3l1.1,0.4
				c-0.6,1.6-1.1,3.6-1.2,5.7l0,0l-1.6-0.6C33.2,449.7,33.8,447.9,34.6,446.3z"/>
			
				<linearGradient id="SVGID_00000033332645626683707370000012517080001774801084_" gradientUnits="userSpaceOnUse" x1="32.7655" y1="1132.0708" x2="35.6175" y2="1132.0708" gradientTransform="matrix(1 0 0 1 0 -702.4588)">
				<stop  offset="2.631580e-02" style="stop-color:#A1804E"/>
				<stop  offset="0.2947" style="stop-color:#FBDFB9"/>
				<stop  offset="0.5737" style="stop-color:#C79F62"/>
				<stop  offset="0.7842" style="stop-color:#F3DDC0"/>
				<stop  offset="1" style="stop-color:#AD8C5E"/>
			</linearGradient>
			<path style="fill:url(#SVGID_00000033332645626683707370000012517080001774801084_);" d="M34.6,432.6l1.1-0.4
				c-0.6-1.6-1.1-3.6-1.2-5.7l0,0l-1.6,0.6C33.2,429.2,33.8,431,34.6,432.6z"/>
			
				<linearGradient id="SVGID_00000126321543989186500840000006999845027481709489_" gradientUnits="userSpaceOnUse" x1="25.6776" y1="1141.8904" x2="92.1109" y2="1141.8904" gradientTransform="matrix(1 0 0 1 0 -702.4588)">
				<stop  offset="2.631580e-02" style="stop-color:#A1804E"/>
				<stop  offset="0.2947" style="stop-color:#FBDFB9"/>
				<stop  offset="0.5737" style="stop-color:#C79F62"/>
				<stop  offset="0.7842" style="stop-color:#F3DDC0"/>
				<stop  offset="1" style="stop-color:#AD8C5E"/>
			</linearGradient>
			<path style="fill:url(#SVGID_00000126321543989186500840000006999845027481709489_);" d="M92.1,436.9c-0.8-1.8-1.9-3.5-3.3-4.8
				c-0.1-0.1-0.2-0.2-0.2-0.2c-6.6-6.3-14.2-6-16.2-5.8c0.2-2,0.5-9.6-5.8-16.2c-0.1-0.1-0.2-0.2-0.2-0.2c-1.4-1.4-3.1-2.5-4.8-3.3
				l-2.5,24.9l-2.5-24.9c-1.8,0.8-3.5,1.9-4.8,3.3c-0.1,0.1-0.2,0.2-0.2,0.2c-6.3,6.6-6,14.2-5.8,16.2c-2-0.2-9.6-0.5-16.2,5.8
				c-0.1,0.1-0.2,0.2-0.2,0.2c-1.4,1.4-2.5,3.1-3.3,4.8l24.9,2.5l-24.9,2.5c0.8,1.8,1.9,3.5,3.3,4.8c0.1,0.1,0.2,0.2,0.2,0.2
				c6.6,6.3,14.2,6,16.2,5.8c-0.2,2-0.5,9.6,5.8,16.2c0.1,0.1,0.2,0.2,0.2,0.2c1.4,1.4,3.1,2.5,4.8,3.3l2.5-24.9l2.5,24.9
				c1.8-0.8,3.5-1.9,4.8-3.3c0.1-0.1,0.2-0.2,0.2-0.2c6.3-6.6,6-14.2,5.8-16.2c2,0.2,9.6,0.5,16.2-5.8c0.1-0.1,0.2-0.2,0.2-0.2
				c1.4-1.4,2.5-3.1,3.3-4.8l-24.9-2.5L92.1,436.9z M63,412.4c0.1-0.6,1.1-2.3,4,0.7c5.4,5.7,4.4,13.3,4.4,13.3l-11.6,12.1
				l12.1-11.6c0.1,0,7.7-1,13.3,4.4c3.1,2.9,1.3,3.9,0.7,4l-21.4,3.2c-1.6,0.2-3.2,0.3-4.8,0.1l0,0v-0.2h-0.2l0,0
				c-0.2-1.6-0.2-3.2,0.1-4.8L63,412.4z M31.7,435.3c-0.6-0.1-2.3-1.1,0.7-4c5.7-5.4,13.3-4.4,13.3-4.4l12.1,11.6l-11.6-12.1
				c0-0.1-1-7.7,4.4-13.3c2.9-3.1,3.9-1.3,4-0.7l3.2,21.4c0.2,1.6,0.2,3.2,0.1,4.8l0,0h-0.2v0.2l0,0c-1.6,0.2-3.2,0.2-4.8-0.1
				L31.7,435.3z M54.7,466.6c-0.1,0.6-1.1,2.3-4-0.7c-5.4-5.7-4.4-13.3-4.4-13.3l11.6-12.1L45.8,452c-0.1,0-7.7,1-13.3-4.4
				c-3.1-2.9-1.3-3.9-0.7-4l21.4-3.2c1.6-0.2,3.2-0.2,4.8-0.1l0,0v0.2h0.2l0,0c0.2,1.6,0.1,3.2-0.1,4.8L54.7,466.6z M86,443.6
				c0.6,0.1,2.3,1.1-0.7,4c-5.7,5.4-13.3,4.4-13.3,4.4l-12.1-11.6l11.6,12.1c0,0.1,1,7.7-4.4,13.3c-2.9,3.1-3.9,1.3-4,0.7l-3.2-21.4
				c-0.2-1.6-0.2-3.2-0.1-4.8l0,0h0.2v-0.2l0,0c1.6-0.2,3.2-0.1,4.8,0.1L86,443.6z"/>
			<g>
				
					<linearGradient id="SVGID_00000076585568898367525360000005308886903372289159_" gradientUnits="userSpaceOnUse" x1="54.3374" y1="1133.1669" x2="56.0616" y2="1133.1669" gradientTransform="matrix(1 0 0 1 0 -702.4588)">
					<stop  offset="2.631580e-02" style="stop-color:#A1804E"/>
					<stop  offset="0.2947" style="stop-color:#FBDFB9"/>
					<stop  offset="0.5737" style="stop-color:#C79F62"/>
					<stop  offset="0.7842" style="stop-color:#F3DDC0"/>
					<stop  offset="1" style="stop-color:#AD8C5E"/>
				</linearGradient>
				<path style="fill:url(#SVGID_00000076585568898367525360000005308886903372289159_);" d="M56.1,430.4c0.2,0.4,0,1-0.5,1.1
					c-0.4,0.2-1,0-1.1-0.5c-0.2-0.4,0-1,0.5-1.1C55.3,429.7,55.8,430,56.1,430.4z"/>
				
					<linearGradient id="SVGID_00000020374252318932482010000016033364685877984955_" gradientUnits="userSpaceOnUse" x1="61.584" y1="1133.1619" x2="63.3082" y2="1133.1619" gradientTransform="matrix(1 0 0 1 0 -702.4588)">
					<stop  offset="2.631580e-02" style="stop-color:#A1804E"/>
					<stop  offset="0.2947" style="stop-color:#FBDFB9"/>
					<stop  offset="0.5737" style="stop-color:#C79F62"/>
					<stop  offset="0.7842" style="stop-color:#F3DDC0"/>
					<stop  offset="1" style="stop-color:#AD8C5E"/>
				</linearGradient>
				<path style="fill:url(#SVGID_00000020374252318932482010000016033364685877984955_);" d="M63.3,431c-0.2,0.4-0.6,0.6-1.1,0.5
					c-0.4-0.2-0.6-0.6-0.5-1.1c0.2-0.4,0.6-0.6,1.1-0.5C63.3,430.1,63.5,430.6,63.3,431z"/>
				
					<linearGradient id="SVGID_00000002360165251173821600000001878241672479903679_" gradientUnits="userSpaceOnUse" x1="66.7081" y1="1138.2534" x2="68.4323" y2="1138.2534" gradientTransform="matrix(1 0 0 1 0 -702.4588)">
					<stop  offset="2.631580e-02" style="stop-color:#A1804E"/>
					<stop  offset="0.2947" style="stop-color:#FBDFB9"/>
					<stop  offset="0.5737" style="stop-color:#C79F62"/>
					<stop  offset="0.7842" style="stop-color:#F3DDC0"/>
					<stop  offset="1" style="stop-color:#AD8C5E"/>
				</linearGradient>
				<path style="fill:url(#SVGID_00000002360165251173821600000001878241672479903679_);" d="M67.9,436.6c-0.4,0.2-1,0-1.1-0.5
					c-0.2-0.4,0-1,0.5-1.1c0.4-0.2,1,0,1.1,0.5S68.4,436.4,67.9,436.6z"/>
				
					<linearGradient id="SVGID_00000000919721516175462740000003865231105996795579_" gradientUnits="userSpaceOnUse" x1="66.7081" y1="1145.5322" x2="68.4323" y2="1145.5322" gradientTransform="matrix(1 0 0 1 0 -702.4588)">
					<stop  offset="2.631580e-02" style="stop-color:#A1804E"/>
					<stop  offset="0.2947" style="stop-color:#FBDFB9"/>
					<stop  offset="0.5737" style="stop-color:#C79F62"/>
					<stop  offset="0.7842" style="stop-color:#F3DDC0"/>
					<stop  offset="1" style="stop-color:#AD8C5E"/>
				</linearGradient>
				<path style="fill:url(#SVGID_00000000919721516175462740000003865231105996795579_);" d="M67.3,443.9c-0.4-0.2-0.6-0.6-0.5-1.1
					c0.2-0.4,0.6-0.6,1.1-0.5c0.4,0.2,0.6,0.6,0.5,1.1C68.2,443.9,67.7,444,67.3,443.9z"/>
				
					<linearGradient id="SVGID_00000036236860822689037040000004617378872580302220_" gradientUnits="userSpaceOnUse" x1="61.584" y1="1150.6946" x2="63.3082" y2="1150.6946" gradientTransform="matrix(1 0 0 1 0 -702.4588)">
					<stop  offset="2.631580e-02" style="stop-color:#A1804E"/>
					<stop  offset="0.2947" style="stop-color:#FBDFB9"/>
					<stop  offset="0.5737" style="stop-color:#C79F62"/>
					<stop  offset="0.7842" style="stop-color:#F3DDC0"/>
					<stop  offset="1" style="stop-color:#AD8C5E"/>
				</linearGradient>
				<path style="fill:url(#SVGID_00000036236860822689037040000004617378872580302220_);" d="M61.7,448.6c-0.2-0.4,0-1,0.5-1.1
					c0.4-0.2,1,0,1.1,0.5c0.2,0.4,0,1-0.5,1.1C62.4,449.2,61.9,449,61.7,448.6z"/>
				
					<linearGradient id="SVGID_00000037677269630124682240000016735943827371096504_" gradientUnits="userSpaceOnUse" x1="54.3374" y1="1150.6188" x2="56.0616" y2="1150.6188" gradientTransform="matrix(1 0 0 1 0 -702.4588)">
					<stop  offset="2.631580e-02" style="stop-color:#A1804E"/>
					<stop  offset="0.2947" style="stop-color:#FBDFB9"/>
					<stop  offset="0.5737" style="stop-color:#C79F62"/>
					<stop  offset="0.7842" style="stop-color:#F3DDC0"/>
					<stop  offset="1" style="stop-color:#AD8C5E"/>
				</linearGradient>
				<path style="fill:url(#SVGID_00000037677269630124682240000016735943827371096504_);" d="M54.4,447.8c0.2-0.4,0.6-0.6,1.1-0.5
					c0.4,0.2,0.6,0.6,0.5,1.1c-0.2,0.4-0.6,0.6-1.1,0.5S54.3,448.3,54.4,447.8z"/>
				
					<linearGradient id="SVGID_00000008839269272319445620000006655234594500675496_" gradientUnits="userSpaceOnUse" x1="49.2131" y1="1145.5272" x2="50.9374" y2="1145.5272" gradientTransform="matrix(1 0 0 1 0 -702.4588)">
					<stop  offset="2.631580e-02" style="stop-color:#A1804E"/>
					<stop  offset="0.2947" style="stop-color:#FBDFB9"/>
					<stop  offset="0.5737" style="stop-color:#C79F62"/>
					<stop  offset="0.7842" style="stop-color:#F3DDC0"/>
					<stop  offset="1" style="stop-color:#AD8C5E"/>
				</linearGradient>
				<path style="fill:url(#SVGID_00000008839269272319445620000006655234594500675496_);" d="M49.8,442.3c0.4-0.2,1,0,1.1,0.5
					c0.2,0.4,0,1-0.5,1.1c-0.4,0.2-1,0-1.1-0.5C49.1,443,49.4,442.5,49.8,442.3z"/>
				
					<linearGradient id="SVGID_00000015316563770301130330000006419167222640893849_" gradientUnits="userSpaceOnUse" x1="49.2131" y1="1138.312" x2="50.9374" y2="1138.312" gradientTransform="matrix(1 0 0 1 0 -702.4588)">
					<stop  offset="2.631580e-02" style="stop-color:#A1804E"/>
					<stop  offset="0.2947" style="stop-color:#FBDFB9"/>
					<stop  offset="0.5737" style="stop-color:#C79F62"/>
					<stop  offset="0.7842" style="stop-color:#F3DDC0"/>
					<stop  offset="1" style="stop-color:#AD8C5E"/>
				</linearGradient>
				<path style="fill:url(#SVGID_00000015316563770301130330000006419167222640893849_);" d="M50.4,435.1c0.4,0.2,0.6,0.6,0.5,1.1
					c-0.2,0.4-0.6,0.6-1.1,0.5c-0.4-0.2-0.6-0.6-0.5-1.1C49.5,435.1,50,434.8,50.4,435.1z"/>
			</g>
		</g>
	</g>
</g>
<line class="st20" x1="22.9" y1="215.2" x2="284.6" y2="215.2"/>
</svg>
