<svg xmlns="http://www.w3.org/2000/svg" width="398.489" height="134.734" viewBox="0 0 398.489 134.734"><g transform="translate(-3576.99 -688.427)" opacity="0.55"><path d="M3594.577,718l-6.2-11.02h-4.415V718h-4.305V690.69h8.943c5.64,0,9.868,2,9.868,7.9a7.6,7.6,0,0,1-5.714,7.827l6.68,11.578Zm-10.612-14.471h4.118c3.971,0,6.122-1.632,6.122-4.934s-2.151-4.453-6.122-4.453h-4.118Z" fill="#fff"/><path d="M3600.629,707.832c0-6.643,4.526-10.761,9.311-10.761,5.418,0,8.312,3.9,8.312,9.683a11.151,11.151,0,0,1-.185,2.154h-13.246c.334,3.894,2.782,6.232,6.307,6.232a8.656,8.656,0,0,0,4.859-1.522l1.484,2.709a12.371,12.371,0,0,1-6.9,2.153C3605.044,718.48,3600.629,714.547,3600.629,707.832Zm13.949-1.856c0-3.524-1.594-5.565-4.564-5.565-2.559,0-4.823,1.966-5.232,5.565Z" fill="#fff"/><path d="M3621.925,697.592h3.488l.334,2.819h.111c1.894-1.818,3.97-3.34,6.753-3.34,4.341,0,6.269,2.9,6.269,8.089V718h-4.266V705.679c0-3.525-1.038-4.934-3.45-4.934-1.892,0-3.191.965-5.009,2.782V718h-4.23Z" fill="#fff"/><path d="M3642.595,707.832c0-6.643,4.193-10.761,8.757-10.761a7.881,7.881,0,0,1,5.491,2.3l-.187-3.376v-7.568h4.268V718h-3.488l-.372-2.3h-.111a8.549,8.549,0,0,1-5.935,2.783C3645.9,718.48,3642.595,714.583,3642.595,707.832Zm14.061,4.636v-9.98a6.4,6.4,0,0,0-4.488-1.854c-2.857,0-5.157,2.708-5.157,7.123,0,4.637,1.817,7.2,5.008,7.2C3653.726,714.955,3655.172,714.175,3656.656,712.468Z" fill="#fff"/><path d="M3664.787,707.832c0-6.643,4.525-10.761,9.31-10.761,5.419,0,8.312,3.9,8.312,9.683a11.1,11.1,0,0,1-.185,2.154h-13.246c.334,3.894,2.783,6.232,6.308,6.232a8.661,8.661,0,0,0,4.859-1.522l1.484,2.709a12.371,12.371,0,0,1-6.9,2.153C3669.2,718.48,3664.787,714.547,3664.787,707.832Zm13.949-1.856c0-3.524-1.595-5.565-4.564-5.565-2.56,0-4.823,1.966-5.23,5.565Z" fill="#fff"/><path d="M3686.083,697.592h3.488l.334,3.671h.11c1.448-2.633,3.6-4.192,5.789-4.192a5.068,5.068,0,0,1,2.3.446l-.778,3.71a6.035,6.035,0,0,0-2.041-.334c-1.671,0-3.673,1.15-4.972,4.377V718h-4.23Z" fill="#fff"/><path d="M3699.554,691.247a2.507,2.507,0,0,1,2.708-2.524,2.53,2.53,0,1,1-2.708,2.524Zm.593,6.345h4.23V718h-4.23Z" fill="#fff"/><path d="M3709.683,697.592h3.488l.334,2.819h.111c1.893-1.818,3.97-3.34,6.753-3.34,4.341,0,6.271,2.9,6.271,8.089V718h-4.268V705.679c0-3.525-1.038-4.934-3.45-4.934-1.892,0-3.191.965-5.009,2.782V718h-4.23Z" fill="#fff"/><path d="M3730.241,721.782a5.388,5.388,0,0,1,2.97-4.452v-.187a3.748,3.748,0,0,1-1.856-3.376,5.037,5.037,0,0,1,2.264-3.784v-.149a6.981,6.981,0,0,1-2.672-5.416c0-4.639,3.673-7.347,7.9-7.347a8.5,8.5,0,0,1,2.97.521h7.234v3.191h-3.9a5.5,5.5,0,0,1,1.337,3.746c0,4.453-3.376,7.012-7.645,7.012a7.089,7.089,0,0,1-2.855-.631,2.7,2.7,0,0,0-1.114,2.151c0,1.225.817,2.005,3.414,2.005h3.746c4.824,0,7.347,1.484,7.347,4.972,0,3.933-4.156,7.124-10.685,7.124C3733.8,727.162,3730.241,725.344,3730.241,721.782Zm15.027-1.076c0-1.707-1.337-2.226-3.822-2.226h-3.078a12.949,12.949,0,0,1-2.747-.3,3.673,3.673,0,0,0-1.743,2.97c0,2,2.077,3.189,5.453,3.189C3742.894,724.341,3745.268,722.6,3745.268,720.706Zm-2.559-16.288c0-2.746-1.707-4.341-3.861-4.341s-3.858,1.558-3.858,4.341c0,2.708,1.745,4.377,3.858,4.377S3742.709,707.126,3742.709,704.418Z" fill="#fff"/><path d="M3757.848,707.832c0-6.828,4.711-10.761,10.092-10.761a8.764,8.764,0,0,1,5.973,2.338l-2.115,2.783a5.341,5.341,0,0,0-3.673-1.6c-3.412,0-5.861,2.9-5.861,7.236,0,4.3,2.336,7.16,5.75,7.16a6.991,6.991,0,0,0,4.452-1.856l1.745,2.821a9.952,9.952,0,0,1-6.6,2.523C3762.077,718.48,3757.848,714.583,3757.848,707.832Z" fill="#fff"/><path d="M3774.956,707.832c0-6.828,4.563-10.761,9.609-10.761s9.609,3.933,9.609,10.761c0,6.751-4.562,10.648-9.609,10.648S3774.956,714.583,3774.956,707.832Zm14.841,0c0-4.341-2-7.236-5.232-7.236-3.191,0-5.193,2.9-5.193,7.236,0,4.3,2,7.16,5.193,7.16C3787.794,714.992,3789.8,712.135,3789.8,707.832Z" fill="#fff"/><path d="M3798.072,697.592h3.489l.333,2.855H3802c1.745-1.854,3.786-3.376,6.307-3.376a5.447,5.447,0,0,1,5.64,3.748c2.005-2.151,4.081-3.748,6.641-3.748,4.268,0,6.271,2.9,6.271,8.089V718H3822.6V705.679c0-3.525-1.114-4.934-3.415-4.934-1.409,0-2.893.927-4.6,2.782V718h-4.266V705.679c0-3.525-1.076-4.934-3.414-4.934-1.371,0-2.893.927-4.6,2.782V718h-4.231Z" fill="#fff"/><path d="M3831.912,697.592h3.489l.334,2.855h.11c1.745-1.854,3.786-3.376,6.308-3.376a5.445,5.445,0,0,1,5.639,3.748c2.005-2.151,4.082-3.748,6.641-3.748,4.269,0,6.271,2.9,6.271,8.089V718h-4.266V705.679c0-3.525-1.114-4.934-3.414-4.934-1.41,0-2.894.927-4.6,2.782V718h-4.267V705.679c0-3.525-1.076-4.934-3.414-4.934-1.373,0-2.893.927-4.6,2.782V718h-4.231Z" fill="#fff"/><path d="M3865.161,691.247a2.508,2.508,0,0,1,2.709-2.524,2.53,2.53,0,1,1-2.709,2.524Zm.593,6.345h4.231V718h-4.231Z" fill="#fff"/><path d="M3875.96,711.318V701h-2.969v-3.191l3.154-.221.483-5.64h3.6v5.64h5.3V701h-5.3v10.352c0,2.449.852,3.71,2.967,3.71a6.085,6.085,0,0,0,2.19-.483l.778,3.155a13.088,13.088,0,0,1-4.007.742C3877.555,718.48,3875.96,715.623,3875.96,711.318Z" fill="#fff"/><path d="M3888.872,697.592h3.489l.333,2.855h.111c1.745-1.854,3.786-3.376,6.307-3.376a5.447,5.447,0,0,1,5.64,3.748c2.005-2.151,4.081-3.748,6.641-3.748,4.268,0,6.271,2.9,6.271,8.089V718H3913.4V705.679c0-3.525-1.114-4.934-3.414-4.934-1.41,0-2.894.927-4.6,2.782V718h-4.266V705.679c0-3.525-1.076-4.934-3.414-4.934-1.371,0-2.893.927-4.6,2.782V718h-4.231Z" fill="#fff"/><path d="M3921.267,707.832c0-6.643,4.526-10.761,9.311-10.761,5.418,0,8.312,3.9,8.312,9.683a11.173,11.173,0,0,1-.185,2.154h-13.246c.334,3.894,2.783,6.232,6.307,6.232a8.661,8.661,0,0,0,4.86-1.522l1.484,2.709a12.375,12.375,0,0,1-6.9,2.153C3925.682,718.48,3921.267,714.547,3921.267,707.832Zm13.949-1.856c0-3.524-1.594-5.565-4.564-5.565-2.559,0-4.823,1.966-5.231,5.565Z" fill="#fff"/><path d="M3942.565,697.592h3.489l.333,2.819h.111c1.894-1.818,3.971-3.34,6.753-3.34,4.341,0,6.271,2.9,6.271,8.089V718h-4.268V705.679c0-3.525-1.038-4.934-3.45-4.934-1.892,0-3.191.965-5.009,2.782V718h-4.23Z" fill="#fff"/><path d="M3965.276,711.318V701h-2.969v-3.191l3.155-.221.482-5.64h3.6v5.64h5.3V701h-5.3v10.352c0,2.449.853,3.71,2.968,3.71a6.083,6.083,0,0,0,2.189-.483l.779,3.155a13.1,13.1,0,0,1-4.008.742C3966.871,718.48,3965.276,715.623,3965.276,711.318Z" fill="#fff"/><path d="M3579.958,763.659V753.344h-2.968v-3.188l3.153-.224.482-5.639h3.6v5.639h5.306v3.412h-5.306V763.7c0,2.449.855,3.71,2.968,3.71a6.1,6.1,0,0,0,2.19-.483l.78,3.154a13.066,13.066,0,0,1-4.008.742C3581.554,770.82,3579.958,767.963,3579.958,763.659Z" fill="#fff"/><path d="M3590.795,760.172c0-6.828,4.562-10.76,9.608-10.76s9.609,3.932,9.609,10.76c0,6.752-4.562,10.648-9.609,10.648S3590.795,766.924,3590.795,760.172Zm14.84,0c0-4.341-2-7.236-5.232-7.236-3.19,0-5.193,2.9-5.193,7.236,0,4.3,2,7.16,5.193,7.16C3603.632,767.332,3605.635,764.475,3605.635,760.172Z" fill="#fff"/><path d="M3619,768l2-2.745a9.036,9.036,0,0,0,5.786,2.337c2.449,0,3.6-1.187,3.6-2.745,0-1.856-2.3-2.672-4.526-3.524-2.708-1.04-5.824-2.486-5.824-5.938,0-3.412,2.744-5.973,7.234-5.973a10.736,10.736,0,0,1,6.641,2.412l-2,2.634a7.634,7.634,0,0,0-4.564-1.781c-2.225,0-3.265,1.114-3.265,2.523,0,1.743,2.115,2.413,4.341,3.229,2.857,1.076,6.012,2.336,6.012,6.2,0,3.414-2.709,6.2-7.755,6.2A12.555,12.555,0,0,1,3619,768Z" fill="#fff"/><path d="M3637.585,762.77V749.932h4.267v12.317c0,3.525,1,4.9,3.414,4.9,1.892,0,3.191-.891,4.9-3.042V749.932h4.267v20.406h-3.488l-.334-3.08h-.111c-1.855,2.153-3.858,3.562-6.679,3.562C3639.477,770.82,3637.585,767.963,3637.585,762.77Z" fill="#fff"/><path d="M3659.738,749.932h3.488l.334,3.674h.111c1.447-2.636,3.6-4.194,5.788-4.194a5.057,5.057,0,0,1,2.3.446l-.778,3.71a6.006,6.006,0,0,0-2.041-.334c-1.67,0-3.673,1.15-4.972,4.379v12.725h-4.23Z" fill="#fff"/><path d="M3673.8,749.932h3.488l.334,2.226h.111a10.347,10.347,0,0,1,6.271-2.746c5.193,0,8.088,4.119,8.088,10.388,0,7.013-4.192,11.02-8.794,11.02a8.41,8.41,0,0,1-5.378-2.3l.11,3.487v6.6h-4.23Zm13.877,9.943c0-4.267-1.373-6.9-4.787-6.9-1.594,0-3.117.817-4.86,2.486v9.98a6.919,6.919,0,0,0,4.452,1.856C3685.451,767.3,3687.677,764.662,3687.677,759.875Z" fill="#fff"/><path d="M3694.322,764.921c0-4.379,3.71-6.641,12.206-7.57-.036-2.374-.89-4.451-3.9-4.451a11.233,11.233,0,0,0-5.9,2.077l-1.595-2.893a15.641,15.641,0,0,1,8.236-2.672c5.084,0,7.421,3.229,7.421,8.645v12.281h-3.487l-.371-2.338h-.111a10.145,10.145,0,0,1-6.494,2.82A5.637,5.637,0,0,1,3694.322,764.921Zm12.206.149v-5.01c-6.048.744-8.088,2.264-8.088,4.564,0,2,1.373,2.821,3.19,2.821C3703.412,767.445,3704.859,766.59,3706.528,765.07Z" fill="#fff"/><path d="M3713.58,768l2-2.745a9.039,9.039,0,0,0,5.786,2.337c2.449,0,3.6-1.187,3.6-2.745,0-1.856-2.3-2.672-4.525-3.524-2.709-1.04-5.825-2.486-5.825-5.938,0-3.412,2.744-5.973,7.234-5.973a10.736,10.736,0,0,1,6.641,2.412l-2,2.634a7.634,7.634,0,0,0-4.564-1.781c-2.225,0-3.265,1.114-3.265,2.523,0,1.743,2.115,2.413,4.341,3.229,2.857,1.076,6.012,2.336,6.012,6.2,0,3.414-2.708,6.2-7.755,6.2A12.55,12.55,0,0,1,3713.58,768Z" fill="#fff"/><path d="M3730.279,768l2-2.745a9.037,9.037,0,0,0,5.786,2.337c2.449,0,3.6-1.187,3.6-2.745,0-1.856-2.3-2.672-4.526-3.524-2.708-1.04-5.824-2.486-5.824-5.938,0-3.412,2.744-5.973,7.234-5.973a10.737,10.737,0,0,1,6.641,2.412l-2,2.634a7.634,7.634,0,0,0-4.564-1.781c-2.225,0-3.265,1.114-3.265,2.523,0,1.743,2.115,2.413,4.341,3.229,2.857,1.076,6.012,2.336,6.012,6.2,0,3.414-2.709,6.2-7.755,6.2A12.556,12.556,0,0,1,3730.279,768Z" fill="#fff"/><path d="M3757.032,763.659V753.344h-2.969v-3.188l3.154-.224.483-5.639h3.6v5.639h5.3v3.412h-5.3V763.7c0,2.449.852,3.71,2.967,3.71a6.107,6.107,0,0,0,2.19-.483l.778,3.154a13.056,13.056,0,0,1-4.007.742C3758.627,770.82,3757.032,767.963,3757.032,763.659Z" fill="#fff"/><path d="M3769.944,740.768h4.23v7.827l-.148,4.046c1.781-1.707,3.822-3.229,6.6-3.229,4.341,0,6.271,2.9,6.271,8.088v12.838h-4.268V758.021c0-3.525-1.038-4.936-3.45-4.936-1.892,0-3.191.965-5.009,2.783v14.47h-4.23Z" fill="#fff"/><path d="M3790.43,760.172c0-6.641,4.526-10.76,9.311-10.76,5.419,0,8.312,3.9,8.312,9.685a11.124,11.124,0,0,1-.185,2.151h-13.246c.334,3.9,2.783,6.233,6.307,6.233a8.675,8.675,0,0,0,4.86-1.52l1.484,2.708a12.381,12.381,0,0,1-6.9,2.151C3794.845,770.82,3790.43,766.888,3790.43,760.172Zm13.949-1.855c0-3.525-1.594-5.566-4.564-5.566-2.559,0-4.823,1.967-5.231,5.566Z" fill="#fff"/><path d="M3818.369,743.587a2.507,2.507,0,0,1,2.708-2.523,2.529,2.529,0,1,1-2.708,2.523Zm.593,6.345h4.231v20.406h-4.231Z" fill="#fff"/><path d="M3828.5,749.932h3.489l.334,2.819h.11c1.894-1.817,3.971-3.339,6.754-3.339,4.341,0,6.269,2.9,6.269,8.088v12.838h-4.267V758.021c0-3.525-1.037-4.936-3.45-4.936-1.892,0-3.191.965-5.008,2.783v14.47H3828.5Z" fill="#fff"/><path d="M3849.947,743.587a2.507,2.507,0,0,1,2.709-2.523,2.529,2.529,0,1,1-2.709,2.523Zm.593,6.345h4.231v20.406h-4.231Z" fill="#fff"/><path d="M3860.746,763.659V753.344h-2.969v-3.188l3.154-.224.483-5.639h3.6v5.639h5.3v3.412h-5.3V763.7c0,2.449.852,3.71,2.967,3.71a6.106,6.106,0,0,0,2.19-.483l.778,3.154a13.056,13.056,0,0,1-4.007.742C3862.341,770.82,3860.746,767.963,3860.746,763.659Z" fill="#fff"/><path d="M3873.063,743.587a2.507,2.507,0,0,1,2.708-2.523,2.529,2.529,0,1,1-2.708,2.523Zm.593,6.345h4.231v20.406h-4.231Z" fill="#fff"/><path d="M3882.006,764.921c0-4.379,3.71-6.641,12.207-7.57-.037-2.374-.891-4.451-3.9-4.451a11.236,11.236,0,0,0-5.9,2.077l-1.594-2.893a15.637,15.637,0,0,1,8.235-2.672c5.085,0,7.421,3.229,7.421,8.645v12.281h-3.486l-.372-2.338h-.111a10.145,10.145,0,0,1-6.494,2.82A5.637,5.637,0,0,1,3882.006,764.921Zm12.207.149v-5.01c-6.048.744-8.089,2.264-8.089,4.564,0,2,1.373,2.821,3.191,2.821C3891.1,767.445,3892.544,766.59,3894.213,765.07Z" fill="#fff"/><path d="M3903.417,765.553V740.768h4.23v25.006c0,1.15.519,1.558,1.04,1.558a2.955,2.955,0,0,0,.7-.074l.557,3.229a6.858,6.858,0,0,1-2.3.333C3904.567,770.82,3903.417,768.854,3903.417,765.553Z" fill="#fff"/><path d="M3577.843,812.513c0-6.828,4.713-10.761,10.091-10.761a8.755,8.755,0,0,1,5.973,2.339l-2.113,2.782a5.353,5.353,0,0,0-3.673-1.6c-3.414,0-5.863,2.9-5.863,7.236,0,4.3,2.338,7.16,5.75,7.16a7,7,0,0,0,4.454-1.854l1.743,2.819a9.953,9.953,0,0,1-6.6,2.523C3582.073,823.161,3577.843,819.265,3577.843,812.513Z" fill="#fff"/><path d="M3594.951,812.513c0-6.828,4.562-10.761,9.608-10.761s9.609,3.933,9.609,10.761c0,6.752-4.562,10.648-9.609,10.648S3594.951,819.265,3594.951,812.513Zm14.84,0c0-4.341-2-7.236-5.232-7.236-3.19,0-5.193,2.9-5.193,7.236,0,4.3,2,7.16,5.193,7.16C3607.788,819.673,3609.791,816.816,3609.791,812.513Z" fill="#fff"/><path d="M3618.067,802.273h3.488l.334,2.857h.11c1.745-1.856,3.786-3.378,6.307-3.378a5.448,5.448,0,0,1,5.64,3.748c2-2.151,4.082-3.748,6.641-3.748,4.269,0,6.271,2.895,6.271,8.089v12.838h-4.266V810.362c0-3.525-1.114-4.936-3.414-4.936-1.41,0-2.894.928-4.6,2.782v14.471h-4.266V810.362c0-3.525-1.076-4.936-3.414-4.936-1.371,0-2.893.928-4.6,2.782v14.471h-4.23Z" fill="#fff"/><path d="M3651.909,802.273h3.488l.334,2.857h.11c1.745-1.856,3.786-3.378,6.308-3.378a5.447,5.447,0,0,1,5.639,3.748c2-2.151,4.082-3.748,6.641-3.748,4.269,0,6.271,2.895,6.271,8.089v12.838h-4.266V810.362c0-3.525-1.114-4.936-3.414-4.936-1.409,0-2.893.928-4.6,2.782v14.471h-4.267V810.362c0-3.525-1.075-4.936-3.414-4.936-1.371,0-2.893.928-4.6,2.782v14.471h-4.23Z" fill="#fff"/><path d="M3685.156,795.927a2.507,2.507,0,0,1,2.708-2.523,2.53,2.53,0,1,1-2.708,2.523Zm.593,6.346h4.23v20.406h-4.23Z" fill="#fff"/><path d="M3695.954,816V805.685h-2.969v-3.191l3.155-.221.482-5.64h3.6v5.64h5.3v3.412h-5.3v10.353c0,2.448.853,3.709,2.968,3.709a6.1,6.1,0,0,0,2.189-.482l.778,3.154a13.085,13.085,0,0,1-4.007.742C3697.549,823.161,3695.954,820.3,3695.954,816Z" fill="#fff"/><path d="M3708.867,802.273h3.488l.334,2.857h.11c1.745-1.856,3.786-3.378,6.308-3.378a5.448,5.448,0,0,1,5.639,3.748c2-2.151,4.082-3.748,6.641-3.748,4.269,0,6.271,2.895,6.271,8.089v12.838h-4.266V810.362c0-3.525-1.114-4.936-3.414-4.936-1.41,0-2.893.928-4.6,2.782v14.471h-4.267V810.362c0-3.525-1.076-4.936-3.414-4.936-1.371,0-2.893.928-4.6,2.782v14.471h-4.23Z" fill="#fff"/><path d="M3741.263,812.513c0-6.641,4.526-10.761,9.311-10.761,5.419,0,8.312,3.9,8.312,9.685a11.058,11.058,0,0,1-.185,2.152h-13.246c.334,3.9,2.783,6.233,6.307,6.233a8.668,8.668,0,0,0,4.86-1.521l1.484,2.709a12.388,12.388,0,0,1-6.9,2.151C3745.678,823.161,3741.263,819.228,3741.263,812.513Zm13.949-1.856c0-3.525-1.594-5.565-4.564-5.565-2.559,0-4.823,1.966-5.229,5.565Z" fill="#fff"/><path d="M3762.561,802.273h3.489l.333,2.819h.111c1.894-1.818,3.971-3.34,6.753-3.34,4.342,0,6.27,2.895,6.27,8.089v12.838h-4.267V810.362c0-3.525-1.037-4.936-3.45-4.936-1.892,0-3.191.965-5.009,2.782v14.471h-4.23Z" fill="#fff"/><path d="M3785.271,816V805.685h-2.97v-3.191l3.155-.221.482-5.64h3.6v5.64h5.3v3.412h-5.3v10.353c0,2.448.853,3.709,2.968,3.709a6.107,6.107,0,0,0,2.19-.482l.778,3.154a13.092,13.092,0,0,1-4.008.742C3786.865,823.161,3785.271,820.3,3785.271,816Z" fill="#fff"/></g></svg>