<?xml version="1.0" encoding="utf-8"?>
<!-- Generator: Adobe Illustrator 27.6.1, SVG Export Plug-In . SVG Version: 6.00 Build 0)  -->
<svg version="1.1" id="圖層_1" xmlns="http://www.w3.org/2000/svg" xmlns:xlink="http://www.w3.org/1999/xlink" x="0px" y="0px"
	 viewBox="0 0 266.8 476.8" style="enable-background:new 0 0 266.8 476.8;" xml:space="preserve">
<style type="text/css">
	.st0{fill:#FAEE00;}
	.st1{fill:#FFFFFF;}
	.st2{fill:#F9ED00;}
</style>
<path class="st0" d="M7,418.7H6.3v-6.1H4v-0.6h5.2v0.6H7V418.7z"/>
<path class="st0" d="M27.7,411.9h0.7v2.9h3.7v-2.9h0.7v6.7h-0.7v-3.2h-3.7v3.2h-0.7V411.9z"/>
<path class="st0" d="M52.7,418h3.6v0.6h-4.3v-6.7h4.2v0.6h-3.5v2.3H56v0.6h-3.3V418z"/>
<path class="st0" d="M95.1,411.9H97c1.4,0,2.3,0.6,2.3,1.8c0,1.2-0.9,1.8-2.3,1.8h-1.2v3.1h-0.7V411.9z M95.7,414.9h1.2
	c1.1,0,1.6-0.4,1.6-1.2c0-0.8-0.6-1.2-1.6-1.2h-1.2V414.9z"/>
<path class="st0" d="M118.7,418.7h-0.7v-6.7h2c1.3,0,2.3,0.5,2.3,1.8c0,1-0.7,1.6-1.7,1.7l2,3.2h-0.8l-1.9-3.1h-1.1V418.7z
	 M118.7,414.9h1.2c1.1,0,1.7-0.4,1.7-1.2c0-0.9-0.7-1.2-1.7-1.2h-1.2V414.9z"/>
<path class="st0" d="M141.9,418h3.6v0.6h-4.3v-6.7h4.2v0.6h-3.5v2.3h3.3v0.6h-3.3V418z"/>
<path class="st0" d="M167.7,417.5L167.7,417.5l2.3-5.6h1v6.7h-0.7v-5.8h0l-2.4,5.8h-0.4l-2.4-5.8h0v5.8h-0.7v-6.7h1L167.7,417.5z"/>
<path class="st0" d="M191,418.7h-0.7v-6.7h0.7V418.7z"/>
<path class="st0" d="M211,418h3.6v0.6h-4.3v-6.7h4.2v0.6H211v2.3h3.3v0.6H211V418z"/>
<path class="st0" d="M234.1,418.7h-0.7v-6.7h2c1.3,0,2.3,0.5,2.3,1.8c0,1-0.7,1.6-1.7,1.7l2,3.2h-0.8l-1.9-3.1h-1.1V418.7z
	 M234.1,414.9h1.2c1.1,0,1.7-0.4,1.7-1.2c0-0.9-0.7-1.2-1.7-1.2h-1.2V414.9z"/>
<path class="st0" d="M257.3,418h3.6v0.6h-4.3v-6.7h4.2v0.6h-3.5v2.3h3.3v0.6h-3.3V418z"/>
<path class="st1" d="M27.5,344.3c-4,10.3-10.3,20.9-16.2,27.5c-1.3-1.6-4.1-4.9-5.8-6.4c5.8-5.6,11.5-14.7,14.8-23.8L27.5,344.3z
	 M42.7,373.2c4.4,6.9,9.4,15.8,12.1,21.7l-6.7,4.1c-0.7-1.8-1.7-3.9-2.8-6.2c-26.3,2.4-30,2.8-32.7,3.9c-0.4-1.6-1.7-5.8-2.7-8
	c1.8-0.6,3.3-2.3,5.4-5c2.3-2.7,9.1-13.4,13.4-23.8l7.6,3.6c-4.2,8.5-9.4,16.9-14.7,23.7l20-1.5c-1.7-3.1-3.5-6.4-5.2-9.2
	L42.7,373.2z M43.7,341.7c2.3,8.8,7.3,17.7,14,22.4c-1.5,1.6-3.8,5.2-4.9,7.5c-6.2-5.5-11.1-13.9-14.1-22.2H30v-7.7H43.7z"/>
<path class="st1" d="M123.2,342.6V399h-6.3v-2.3h-34v2.3h-6.1v-56.4H123.2z M116.9,390v-40.7h-34V390H116.9z M102.1,381.6
	c-0.2,1.4-0.1,3.5,0,4.5c-9.3,2.6-10.8,3.3-11.8,3.9c-0.2-1.1-0.9-3.1-1.5-3.8c0.8-0.4,1.8-1.1,1.8-3.5v-2.3
	c-1.5,0.6-2.9,1.2-4.3,1.7c-0.7-1-2.2-3.1-3.1-4.2c3.5-0.8,7.3-2.1,10.3-3.8h-6.2v-9h25.1v9h-11.7c-1.5,1.4-3.4,2.8-5.5,3.9v5.3
	L102.1,381.6z M114.9,363.4H84.7v-4.2h12.1v-2.5h-9.6v-4h9.6v-2.6h5.9v2.6h10v4h-10v2.5h12.3V363.4z M92.8,370.9h14.1v-2.6H92.8
	V370.9z M115.5,377.7c-1.4,1.3-3,2.3-4.6,3.3c1.9,1.6,3.6,3,4.8,4.3l-4.1,2.8c-2.7-3-8.4-7.7-13-10.9l3.9-2.5
	c1.5,1.1,3.3,2.4,5.1,3.7c1.5-1.2,3.1-2.5,4.1-3.6L115.5,377.7z"/>
<path class="st1" d="M172.6,355.5c-0.5,1.4-1,2.7-1.5,4h16.5V399h-6.8v-3h-24.8v3h-6.4v-39.6h14.4c0.4-1.3,0.7-2.6,0.9-4h-20.7v-6.9
	h12.5c-1.1-1.9-2.6-4.1-3.9-5.8l5.8-3c2,2.3,4.2,5.3,5.3,7.4l-2.4,1.4h12.5c1.6-2.6,3.3-6,4.2-8.6l7.5,1.9c-1.4,2.4-2.9,4.7-4.4,6.7
	h12.2v6.9H172.6z M180.8,366h-24.8v3.8h24.8V366z M180.8,375.5h-24.8v4.1h24.8V375.5z M180.8,389.5v-4.3h-24.8v4.3H180.8z"/>
<path class="st1" d="M229,373.3c-1.7,0.6-3.5,1.3-5.2,1.8v15.9c0,3.5-0.5,5.3-2.1,6.5c-1.7,1.2-4,1.4-7.6,1.4
	c-0.2-1.8-0.9-4.9-1.6-6.9c1.9,0.1,3.8,0.1,4.5,0.1c0.7,0,0.9-0.3,0.9-1.1v-13.9c-1.8,0.6-3.6,1.2-5.2,1.7l-1.4-7.2
	c1.9-0.4,4.1-1.1,6.6-1.8V359h-5.7v-6.9h5.7v-11.8h5.9v11.8h5v6.9h-5v9.1l4.4-1.4L229,373.3z M237.5,340.2h5.8v26.5
	c0,12.6-1.1,24.4-10.6,32.3c-1.1-1.5-3.3-3.8-4.6-5c3.8-3,6-6.6,7.4-10.6c-2.2,1.1-4.4,2-6.4,2.9l-2.5-6.5c2.7-0.8,6.5-2.1,10.5-3.6
	c0.2-2,0.3-4,0.4-6H230v-6.5h7.6v-6.5h-8.1v-6.7h8.1V340.2z M262.6,383.9h-9.4v15h-6.1v-58.7h6.1v10.3h8.5v6.7h-8.5v6.5h8v6.5h-8
	v6.9h9.4V383.9z"/>
<path class="st2" d="M19.6,457.8l3.5-0.4c0.1,0.9,0.4,1.6,0.9,2c0.5,0.5,1.1,0.7,1.8,0.7c0.7,0,1.4-0.3,1.9-0.8
	c0.5-0.6,0.8-1.3,0.8-2.3c0-0.9-0.2-1.6-0.7-2.2c-0.5-0.5-1.1-0.8-1.8-0.8c-0.5,0-1,0.1-1.7,0.3l0.4-2.9c1,0,1.7-0.2,2.2-0.6
	c0.5-0.4,0.8-1,0.8-1.8c0-0.6-0.2-1.1-0.6-1.5c-0.4-0.4-0.9-0.6-1.5-0.6c-0.6,0-1.1,0.2-1.6,0.6c-0.4,0.4-0.7,1-0.8,1.9l-3.3-0.6
	c0.2-1.1,0.6-2,1-2.7c0.5-0.7,1.1-1.2,1.9-1.6s1.8-0.6,2.8-0.6c1.8,0,3.2,0.6,4.2,1.7c0.9,0.9,1.3,2,1.3,3.1c0,1.6-0.9,3-2.7,3.9
	c1.1,0.2,1.9,0.7,2.6,1.5c0.6,0.8,1,1.8,1,2.9c0,1.6-0.6,3-1.8,4.2c-1.2,1.2-2.7,1.7-4.5,1.7c-1.7,0-3.1-0.5-4.2-1.5
	C20.4,460.6,19.8,459.4,19.6,457.8z"/>
<path class="st2" d="M39.6,457.9l3.6-0.4c0.1,0.8,0.4,1.5,0.9,1.9c0.5,0.5,1.1,0.7,1.7,0.7c0.8,0,1.4-0.3,1.9-0.9
	c0.5-0.6,0.8-1.5,0.8-2.8c0-1.2-0.3-2-0.8-2.6c-0.5-0.6-1.2-0.9-2-0.9c-1,0-2,0.5-2.8,1.4L40,454l1.8-9.8h9.5v3.4h-6.8l-0.6,3.2
	c0.8-0.4,1.6-0.6,2.5-0.6c1.6,0,2.9,0.6,4.1,1.7c1.1,1.2,1.7,2.7,1.7,4.5c0,1.5-0.4,2.9-1.3,4.1c-1.2,1.7-2.9,2.5-5.1,2.5
	c-1.7,0-3.1-0.5-4.2-1.4C40.5,460.8,39.8,459.5,39.6,457.9z"/>
<path class="st2" d="M65.4,443.9c1.8,0,3.2,0.6,4.3,1.9c1.2,1.5,1.8,4.1,1.8,7.6c0,3.5-0.6,6.1-1.8,7.7c-1,1.3-2.4,1.9-4.2,1.9
	c-1.8,0-3.3-0.7-4.4-2.1c-1.1-1.4-1.7-3.9-1.7-7.5c0-3.5,0.6-6.1,1.8-7.6C62.2,444.6,63.6,443.9,65.4,443.9z M65.4,446.9
	c-0.4,0-0.8,0.1-1.2,0.4c-0.3,0.3-0.6,0.8-0.8,1.5c-0.2,0.9-0.4,2.5-0.4,4.7s0.1,3.7,0.3,4.5c0.2,0.8,0.5,1.4,0.8,1.6
	c0.3,0.3,0.7,0.4,1.2,0.4c0.4,0,0.8-0.1,1.2-0.4c0.3-0.3,0.6-0.8,0.8-1.5c0.2-0.9,0.4-2.5,0.4-4.7s-0.1-3.7-0.3-4.5
	c-0.2-0.8-0.5-1.4-0.8-1.7C66.3,447,65.9,446.9,65.4,446.9z"/>
<path class="st2" d="M85.3,443.9c1.8,0,3.2,0.6,4.3,1.9c1.2,1.5,1.8,4.1,1.8,7.6c0,3.5-0.6,6.1-1.8,7.7c-1,1.3-2.4,1.9-4.2,1.9
	c-1.8,0-3.3-0.7-4.4-2.1c-1.1-1.4-1.7-3.9-1.7-7.5c0-3.5,0.6-6.1,1.8-7.6C82,444.6,83.4,443.9,85.3,443.9z M85.3,446.9
	c-0.4,0-0.8,0.1-1.2,0.4c-0.3,0.3-0.6,0.8-0.8,1.5c-0.2,0.9-0.4,2.5-0.4,4.7s0.1,3.7,0.3,4.5c0.2,0.8,0.5,1.4,0.8,1.6
	c0.3,0.3,0.7,0.4,1.2,0.4c0.4,0,0.8-0.1,1.2-0.4c0.3-0.3,0.6-0.8,0.8-1.5c0.2-0.9,0.4-2.5,0.4-4.7s-0.1-3.7-0.3-4.5
	c-0.2-0.8-0.5-1.4-0.8-1.7C86.1,447,85.7,446.9,85.3,446.9z"/>
<path class="st2" d="M123.3,456.5h-6.6v8.5h-3.1v-8.5H107l0.4,2c-2.6,1.1-5.3,2.1-7.6,3l-1.1-3.2c0.9-0.2,1.9-0.5,3-0.9v-7.9h-2.5
	v-3h2.5v-5.7h2.8v5.7h2.2v3h-2.2v6.9l2.3-0.8l0.1,0.6v-2.8h6.6v-8.8h-5.9v-3h14.9v3h-6v8.8h6.6V456.5z M110.7,445.8
	c0.6,1.9,1.2,4.4,1.4,6l-2.6,0.7c-0.1-1.7-0.7-4.2-1.2-6.1L110.7,445.8z M117.9,451.8c0.5-1.7,1.2-4.3,1.4-6.2l2.9,0.6
	c-0.6,2.2-1.3,4.7-2,6.2L117.9,451.8z"/>
<path class="st2" d="M144.7,453.4c1.8,4.2,5.2,7.2,10.3,8.6c-0.8,0.7-1.7,2-2.1,2.9c-4.9-1.6-8.1-4.6-10.3-8.9
	c-1.4,3.5-4.4,6.8-10.3,9c-0.4-0.8-1.4-2.1-2-2.7c6.1-2.1,8.6-5.5,9.7-8.9h-8.8v-3.2h9.4c0.1-0.7,0.1-1.4,0.1-2v-2.6H132v-3.2h20.8
	v3.2h-8.9v2.7c0,0.6,0,1.3-0.1,2h10v3.2H144.7z"/>
<path class="st2" d="M168.7,453.1c-0.4,2.3-1,4.5-1.9,6.4c0.5,0.3,1,0.7,1.8,1.2c1.8,1.1,4.3,1.2,7.3,1.2c3,0,7.7-0.3,10.6-0.7
	c-0.3,0.8-0.8,2.4-0.9,3.2c-2.1,0.1-6.8,0.3-9.9,0.3c-3.5,0-5.7-0.3-7.6-1.4c-1.1-0.6-2-1.5-2.6-1.5c-0.6,0-1.5,1.8-2.2,3.3l-2.1-3
	c0.6-0.8,1.3-1.4,1.9-1.9c1-1.4,1.8-3.3,2.2-5.1h-3.2c0.6-1.5,1.2-3.6,1.8-5.7h-2.3v-2.8h6.1c-0.5,1.8-1.2,3.9-1.8,5.8h0.3l0.4-0.1
	L168.7,453.1z M164.8,446c-0.3-1.2-1-3.1-1.5-4.6l2.8-0.8c0.5,1.4,1.2,3.2,1.6,4.4L164.8,446z M176.6,447c-0.2,0.6-0.4,1.6-0.5,2.2
	c-5.2,0.8-6.1,1-6.6,1.3c-0.1-0.6-0.6-1.8-1-2.3c0.4-0.2,0.9-0.7,0.9-1.7v-5h7.4v5h-5v1.3L176.6,447z M185.7,457.6h-5
	c1.6,0.8,3.3,1.7,4.3,2.5l-2.8,1.3c-0.9-0.8-2.6-1.9-4.2-2.7l1.5-1h-5.1l2,0.7c-1.3,1.2-3.4,2.4-5.2,3.2c-0.5-0.5-1.7-1.5-2.3-1.9
	c1.6-0.5,3.3-1.2,4.4-2h-4.7v-2.3h4.1v-1.6h-3.2v-2.3h3.2v-1.4h2.8v1.4h2.9v-1.4h2.9v1.4h3.2v2.3h-3.2v1.6h4.2V457.6z M171.8,443.3
	v1.2h2.4v-1.2H171.8z M175.6,455.3h2.9v-1.6h-2.9V455.3z M180.6,449.7c-2.4,0-2.9-0.9-2.9-3.1v-5.1h7.5v5h-5v0.2c0,0.7,0.1,1,0.7,1
	h2.7c0.5,0,1.4,0,1.8-0.2c0.1,0.7,0.1,1.5,0.2,2.1c-0.4,0.1-1.2,0.2-1.9,0.2H180.6z M180.1,443.4v1.2h2.4v-1.2H180.1z"/>
<path class="st2" d="M215.9,446.9c-3.3,4.9-8.7,10.1-14,13.5c1.6,1,3.8,1.2,6.6,1.2c2.7,0,6.7-0.3,9.2-0.6c-0.3,0.9-0.8,2.5-0.9,3.3
	c-1.9,0.1-5.8,0.3-8.4,0.3c-3.2,0-5.3-0.3-7.1-1.4c-1.1-0.7-2-1.5-2.6-1.5c-0.8,0-2,1.8-3.1,3.4l-2.3-2.9c1.9-2,4-3.4,5.4-3.4h0.2
	c4.3-2.6,8.8-6.6,11.6-10.2h-15.8v-3.1h10.2c-0.6-1.1-1.6-2.6-2.4-3.7l2.8-1.5c1,1.3,2.3,3.1,2.9,4.2l-1.6,0.9h6.2l0.6-0.2
	L215.9,446.9z"/>
<path class="st2" d="M234,460.8c-0.4-0.3-1-0.8-1.8-1.4v5.4h-2.9v-4.7c-1.1,1.4-2.3,2.6-3.6,3.4c-0.2-0.8-0.8-2.1-1.2-2.9
	c1.7-0.9,3.5-2.5,4.7-4h-3.8v-2.7h4v-2.5h2.9v2.5h3.7v2.7h-3.7v0.1c1,0.6,3.5,2.1,4.2,2.6L234,460.8z M235.2,446.7
	c-2.3,2.5-5.5,4.5-8.8,5.6c-0.4-0.8-1.3-1.9-1.9-2.4c3-0.9,5.9-2.4,8-4.2h-6.7v-2.7h9.5v-2.4h3.1v2.4h9.5v2.7h-6.7
	c2.8,1.3,6.5,3,7.5,3.6l-1,2.9c-2-1.4-6.6-3.9-9.3-5.4v5.6h-3.1V446.7z M244,456.7c1.4,1.7,3.5,3.5,5.4,4.5
	c-0.7,0.6-1.7,1.7-2.2,2.5c-1.2-0.9-2.4-2.3-3.6-3.7v5.2h-3v-5.2c-1.4,1.6-3,2.9-4.6,3.8c-0.4-0.7-1.3-1.7-1.9-2.2
	c2.3-0.9,4.7-2.8,6.1-4.8h-3.3V454h3.8v-2.6h3v2.6h4.8v2.7H244z"/>
<g>
	<g>
		<path class="st1" d="M86.6,43.9c0.9-0.7,3.9-3.5,4-8.5c0-0.1,0-0.1,0-0.2c0-1.1-0.2-2.1-0.6-3.1l-10.6,8.6L88,30.1
			c-1-0.4-2.1-0.6-3.1-0.6c-0.1,0-0.1,0-0.2,0c-5,0.1-7.8,3.2-8.5,4c-0.7-0.9-3.5-3.9-8.5-4c-0.1,0-0.1,0-0.2,0
			c-1.1,0-2.1,0.2-3.1,0.6L73,40.7L62.4,32c-0.4,1-0.6,2.1-0.6,3.1c0,0.1,0,0.1,0,0.2c0.1,5,3.2,7.8,4,8.5c-0.9,0.7-3.9,3.5-4,8.5
			c0,0.1,0,0.1,0,0.2c0,1.1,0.2,2.1,0.6,3.1L73,47.1l-8.6,10.6c1,0.4,2.1,0.6,3.1,0.6c0.1,0,0.1,0,0.2,0c5-0.1,7.8-3.2,8.5-4
			c0.7,0.9,3.5,3.9,8.5,4c0.1,0,0.1,0,0.2,0c1.1,0,2.1-0.2,3.1-0.6l-8.6-10.6L90,55.7c0.4-1,0.6-2.1,0.6-3.1c0-0.1,0-0.1,0-0.2
			C90.5,47.4,87.4,44.6,86.6,43.9z M67.3,31.8c-0.2-0.2-0.5-1.3,1.8-1.3C73.4,30.6,76,34,76,34l0.2,9.2l0.2-9.2c0,0,2.6-3.3,6.9-3.4
			c2.3,0,2,1,1.8,1.3l-7,9.5c-0.5,0.7-1.1,1.3-1.8,1.9l0,0l-0.1-0.1l-0.1,0.1l0,0c-0.7-0.6-1.3-1.2-1.8-1.9L67.3,31.8z M64.1,52.8
			c-0.2,0.2-1.3,0.5-1.3-1.8c0.1-4.3,3.4-6.9,3.4-6.9l9.2-0.2l-9.2-0.2c0,0-3.3-2.6-3.4-6.9c0-2.3,1-2,1.3-1.8l9.5,7
			c0.7,0.5,1.3,1.1,1.9,1.8l0,0l-0.1,0.1l0.1,0.1l0,0c-0.6,0.7-1.2,1.3-1.9,1.8L64.1,52.8z M85.1,56c0.2,0.2,0.5,1.3-1.8,1.3
			c-4.3-0.1-6.9-3.4-6.9-3.4l-0.2-9.2L76,53.8c0,0-2.6,3.3-6.9,3.4c-2.3,0-2-1-1.8-1.3l7-9.5c0.5-0.7,1.1-1.3,1.8-1.9l0,0l0.1,0.1
			l0.1-0.1l0,0c0.7,0.6,1.3,1.2,1.8,1.9L85.1,56z M88.3,52.8l-9.5-7c-0.7-0.5-1.3-1.1-1.9-1.8l0,0l0.1-0.1l-0.1-0.1l0,0
			c0.6-0.7,1.2-1.3,1.9-1.8l9.5-7c0.2-0.2,1.3-0.5,1.3,1.8c-0.1,4.3-3.4,6.9-3.4,6.9l-9.2,0.2l9.2,0.2c0,0,3.3,2.6,3.4,6.9
			C89.6,53.3,88.5,52.9,88.3,52.8z"/>
		<path class="st1" d="M72.5,30.6l-0.2,0.6c-0.9-0.4-1.9-0.6-3.1-0.7c0,0,0,0,0,0l0.3-0.9C70.6,29.9,71.6,30.2,72.5,30.6z"/>
		<path class="st1" d="M79.9,30.6l0.2,0.6c0.9-0.4,1.9-0.6,3.1-0.7c0,0,0,0,0,0l-0.3-0.9C81.8,29.9,80.8,30.2,79.9,30.6z"/>
		<path class="st1" d="M89.4,40.2l-0.6-0.2c0.4-0.9,0.6-1.9,0.7-3.1c0,0,0,0,0,0l0.9,0.3C90.2,38.3,89.9,39.3,89.4,40.2z"/>
		<path class="st1" d="M89.4,47.6l-0.6,0.2c0.4,0.9,0.6,1.9,0.7,3.1c0,0,0,0,0,0l0.9-0.3C90.2,49.5,89.9,48.5,89.4,47.6z"/>
		<path class="st1" d="M79.9,57.1l0.2-0.6c0.9,0.4,1.9,0.6,3.1,0.7c0,0,0,0,0,0l-0.3,0.9C81.8,57.9,80.8,57.6,79.9,57.1z"/>
		<path class="st1" d="M72.5,57.1l-0.2-0.6c-0.9,0.4-1.9,0.6-3.1,0.7c0,0,0,0,0,0l0.3,0.9C70.6,57.9,71.6,57.6,72.5,57.1z"/>
		<path class="st1" d="M62.9,47.6l0.6,0.2c-0.4,0.9-0.6,1.9-0.7,3.1c0,0,0,0,0,0L62,50.6C62.2,49.5,62.5,48.5,62.9,47.6z"/>
		<path class="st1" d="M62.9,40.2l0.6-0.2c-0.4-0.9-0.6-1.9-0.7-3.1c0,0,0,0,0,0L62,37.1C62.2,38.3,62.5,39.3,62.9,40.2z"/>
		<path class="st1" d="M94.3,42.5c-0.4-1-1-1.9-1.8-2.6c0,0-0.1-0.1-0.1-0.1c-3.6-3.4-7.8-3.3-8.9-3.2c0.1-1.1,0.3-5.3-3.2-8.9
			c0,0-0.1-0.1-0.1-0.1c-0.8-0.8-1.7-1.4-2.6-1.8l-1.4,13.6l-1.4-13.6c-1,0.4-1.9,1-2.6,1.8c0,0-0.1,0.1-0.1,0.1
			c-3.4,3.6-3.3,7.8-3.2,8.9c-1.1-0.1-5.3-0.3-8.9,3.2c0,0-0.1,0.1-0.1,0.1c-0.8,0.8-1.4,1.7-1.8,2.6l13.6,1.4l-13.6,1.4
			c0.4,1,1,1.9,1.8,2.6c0,0,0.1,0.1,0.1,0.1c3.6,3.4,7.8,3.3,8.9,3.2c-0.1,1.1-0.3,5.3,3.2,8.9c0,0,0.1,0.1,0.1,0.1
			c0.8,0.8,1.7,1.4,2.6,1.8l1.4-13.6L77.6,62c1-0.4,1.9-1,2.6-1.8c0,0,0.1-0.1,0.1-0.1c3.4-3.6,3.3-7.8,3.2-8.9
			c1.1,0.1,5.3,0.3,8.9-3.2c0,0,0.1-0.1,0.1-0.1c0.8-0.8,1.4-1.7,1.8-2.6l-13.6-1.4L94.3,42.5z M78.4,29.1c0-0.3,0.6-1.3,2.2,0.4
			c3,3.1,2.4,7.3,2.4,7.3l-6.4,6.6l6.6-6.4c0,0,4.2-0.5,7.3,2.4c1.7,1.6,0.7,2.1,0.4,2.2l-11.7,1.8c-0.9,0.1-1.7,0.2-2.6,0.1l0,0
			l0-0.1l-0.1,0v0c-0.1-0.9-0.1-1.7,0.1-2.6L78.4,29.1z M61.4,41.6c-0.3,0-1.3-0.6,0.4-2.2c3.1-3,7.3-2.4,7.3-2.4l6.6,6.4l-6.4-6.6
			c0,0-0.5-4.2,2.4-7.3c1.6-1.7,2.1-0.7,2.2-0.4l1.8,11.7c0.1,0.9,0.2,1.7,0.1,2.6v0l-0.1,0l0,0.1l0,0c-0.9,0.1-1.7,0.1-2.6-0.1
			L61.4,41.6z M73.9,58.7c0,0.3-0.6,1.3-2.2-0.4c-3-3.1-2.4-7.3-2.4-7.3l6.4-6.6l-6.6,6.4c0,0-4.2,0.5-7.3-2.4
			c-1.7-1.6-0.7-2.1-0.4-2.2l11.7-1.8c0.9-0.1,1.7-0.2,2.6-0.1l0,0l0,0.1l0.1,0l0,0c0.1,0.9,0.1,1.7-0.1,2.6L73.9,58.7z M91,46.1
			c0.3,0,1.3,0.6-0.4,2.2c-3.1,3-7.3,2.4-7.3,2.4l-6.6-6.4l6.4,6.6c0,0,0.5,4.2-2.4,7.3C79,60,78.5,59,78.4,58.7L76.7,47
			c-0.1-0.9-0.2-1.7-0.1-2.6l0,0l0.1,0l0-0.1l0,0c0.9-0.1,1.7-0.1,2.6,0.1L91,46.1z"/>
		<g>
			<path class="st1" d="M74.6,38.9c0.1,0.2,0,0.5-0.3,0.6c-0.2,0.1-0.5,0-0.6-0.3c-0.1-0.2,0-0.5,0.3-0.6
				C74.3,38.6,74.5,38.7,74.6,38.9z"/>
			<path class="st1" d="M78.6,39.3c-0.1,0.2-0.4,0.4-0.6,0.3c-0.2-0.1-0.4-0.4-0.3-0.6c0.1-0.2,0.4-0.4,0.6-0.3
				C78.6,38.8,78.7,39,78.6,39.3z"/>
			<path class="st1" d="M81.1,42.3c-0.2,0.1-0.5,0-0.6-0.3c-0.1-0.2,0-0.5,0.3-0.6c0.2-0.1,0.5,0,0.6,0.3
				C81.5,42,81.4,42.2,81.1,42.3z"/>
			<path class="st1" d="M80.8,46.3c-0.2-0.1-0.4-0.4-0.3-0.6c0.1-0.2,0.4-0.4,0.6-0.3c0.2,0.1,0.4,0.4,0.3,0.6
				C81.3,46.3,81,46.4,80.8,46.3z"/>
			<path class="st1" d="M77.7,48.8c-0.1-0.2,0-0.5,0.3-0.6c0.2-0.1,0.5,0,0.6,0.3c0.1,0.2,0,0.5-0.3,0.6
				C78.1,49.2,77.8,49.1,77.7,48.8z"/>
			<path class="st1" d="M73.8,48.5c0.1-0.2,0.4-0.4,0.6-0.3c0.2,0.1,0.4,0.4,0.3,0.6c-0.1,0.2-0.4,0.4-0.6,0.3
				C73.8,49,73.7,48.7,73.8,48.5z"/>
			<path class="st1" d="M71.2,45.4c0.2-0.1,0.5,0,0.6,0.3c0.1,0.2,0,0.5-0.3,0.6c-0.2,0.1-0.5,0-0.6-0.3
				C70.9,45.8,71,45.5,71.2,45.4z"/>
			<path class="st1" d="M71.6,41.5c0.2,0.1,0.4,0.4,0.3,0.6c-0.1,0.2-0.4,0.4-0.6,0.3C71,42.2,70.9,42,71,41.7
				C71.1,41.5,71.3,41.4,71.6,41.5z"/>
		</g>
	</g>
</g>
<g>
	<g>
		<g>
			<g>
				<g>
					<g>
						<g>
							<path class="st1" d="M102.1,30.9v-1.4h8.7c0-0.3,0-0.7,0-1.3c0.1-0.4,0.1-1.3,0.1-2.7h3.4c-0.2,2-0.3,3.3-0.3,4h10v1.4h-10.2
								c-0.2,1.1-0.5,2.2-0.9,3.1h10v1.4h-10.4c-0.3,0.9-0.8,2-1.6,3.4h14.2v1.4h-7.8c1.3,2.7,3.9,4.5,7.8,5.4
								c-0.7,1.3-0.8,2.6-0.4,3.8c0,0.4,0,0.6,0,0.7c-0.1,0-0.2,0-0.4-0.1c-1.6-0.8-2.8-1.7-3.7-2.7v13.5h-2.8v-2h-9.4v2h-2.8V46.2
								c-0.7,0.9-1.8,1.9-3.4,3.3c-0.3,0.3-0.5,0.5-0.7,0.7h-1c3.1-2.9,5.7-6.2,7.7-9.9H101v-1.4h7.7c0.4-0.9,0.8-2.1,1.1-3.4h-6.5
								V34h6.8c0.1-0.7,0.3-1.7,0.6-3.1H102.1z M116.6,40.2h-6.4c-0.5,0.9-1.5,2.2-3,4h1.1V45h9.4v-0.9h0.6
								C117.5,43,116.9,41.6,116.6,40.2z M108.4,46.5v4.7h8v1.4h-8v4.8h9.4V46.5H108.4z"/>
							<path class="st1" d="M135.2,35.4h-4.8V34h5.1l0.1-1.7h3c-0.3,2.2-1,4.5-2.1,6.9v0.7c1.2,0.9,2.3,1.7,3.3,2.3h2.8v1.4h8.5
								v-1.4h2.8v18.3h-2.8v-2h-8.5v2h-2.8V42.8c-0.3,1-0.8,1.8-1.4,2.3c-0.8-1.3-1.4-2.6-2-4v19.4h-2.8V42.9
								c-0.8,1-1.7,2.1-2.7,3.3h-0.7C132.5,43,134.2,39.4,135.2,35.4z M133.3,25.3l0.1-0.1c1.2,0.9,2.6,1.9,4.1,3.1
								c-0.2,1.1-0.6,2.2-1.1,3.1C135.1,30,134,28,133.3,25.3z M154.9,26.6V28h-15.9v-1.4H154.9z M140.9,40.8v-9.9h2.8V32h6.3v-1.1
								h2.8v9.9H150v-1.4h-6.3v1.4H140.9z M142.6,45v5h2.8v-5H142.6z M142.6,51.4v5.7h2.8v-5.7H142.6z M143.8,38h6.3v-4.5h-6.3V38z
								 M148.3,50h2.8v-5h-2.8V50z M148.3,57.1h2.8v-5.7h-2.8V57.1z"/>
							<path class="st1" d="M164.7,33.7h3.4c-0.4,2.4-1,4.4-2,6.2h0.9v15c0.2,0,0.5,0,0.9-0.1c0.3,0,0.6,0,0.9-0.1V41.1h2.6v13.3
								c0.3-0.1,0.8-0.3,1.4-0.7V38.5h-4.5v-1.7h4.5v-6h-1.1c-0.5,1-1.2,2.6-2.3,4.5c-0.2,0.3-0.3,0.5-0.3,0.6h-0.6
								c0.9-2.3,1.4-5.8,1.4-10.5h2.8c-0.2,1.1-0.4,2.3-0.7,3.4h5v1.7h-1.7v6.2h2.6V26.3h2.6V28h2v-1.7h2.6v25.8
								c0,1.7-0.9,2.9-2.6,3.7c-0.3-0.2-0.6-0.3-0.9-0.3l-1.1,0.4v4.5h-2.6V51c-1.2,3.1-4.5,5.4-10,6.9c0.1-1.2-0.2-2-0.9-2.4v4.7
								h-2.6V43.6c-1,1-2,2.1-2.8,3.1h-0.9C163.3,42.7,164.6,38.3,164.7,33.7z M164.4,25.5h3.7c-1,4.5-3.1,8.4-6.3,11.6h-1.1
								C162.9,34.6,164.1,30.7,164.4,25.5z M175.2,45.9v6.8l0.3-0.1c1.3-1,2.1-2,2.3-3V38.5h-2.6v5.7h1.7v1.7H175.2z M182.3,29.7h-2
								v25.8c1.4-0.8,2.1-1.7,2-2.8V29.7z"/>
							<path class="st1" d="M202.1,28.5v8.1h4.3v1.7h-4.3v6.2c0,3,0.7,5.8,2.1,8.4l1-6.1h0.6l-0.4,6.9c-0.1,0.4,0.2,0.7,1,1
								l-0.6,4.4c-3-2.1-5-5.5-6-10.2c-0.3,1-1,2.6-2.3,4.5c0.8,0.7,1.8,1.5,3.3,2.6c-0.4,0.9-0.9,2.1-1.6,3.4
								c-0.9-2-1.4-3.9-1.7-5.8c-1.9,2.5-3.7,4-5.4,4.7c0.5-1.1,0.4-2.5-0.3-4.1c0.9,0,1.5-0.1,2-0.4V26.3h2.8v2.3
								c2.5-0.8,4.7-1.8,6.8-3.1c1,0.6,2.1,1.1,3.1,1.7C205.5,27.8,204,28.2,202.1,28.5z M196.7,28.9v7.7h2.8v-7.8
								C198.5,28.9,197.5,29,196.7,28.9z M199.5,45.2v-6.9h-2.8V52c1.2-1.1,2.3-2.4,3.1-3.7C199.6,47,199.5,45.9,199.5,45.2z
								 M210,60.5h-2.8v-35h2.8v2h2.8v-1.7h2.8V30c-0.2,3.3-1.6,5.9-4.3,7.8c2.6,0.8,4,2.1,4.3,4V53c-0.1,1.6-1.2,2.7-3.4,3.4
								c-0.1-0.3-0.4-0.4-0.9-0.3l-1.4,0.6V60.5z M211.2,38v-0.3c1.1-2,1.7-4.1,1.7-6.4v-2.1H210v27.1c1.8-0.7,2.7-1.7,2.8-3.1V41.6
								C212.9,40.3,212.3,39.1,211.2,38z"/>
						</g>
					</g>
				</g>
			</g>
		</g>
	</g>
</g>
</svg>
