<svg xmlns="http://www.w3.org/2000/svg" width="246.101" height="83.834" viewBox="0 0 246.101 83.834">
  <g id="Group_456" data-name="Group 456" transform="translate(-655.435 -14322.5)">
    <g id="Group_453" data-name="Group 453">
      <g id="Group_449" data-name="Group 449">
        <path id="Path_321" data-name="Path 321" d="M700.243,14340.81c.264-.056.191-.172.363-.252l.374-.062c.181-.129.2-.521.338-.691.129-.054.186.035.444.063l-.014-.251c.07-.11.385-.158.488-.251l.227-.44c.035-.107.009-.062.056-.126a.7.7,0,0,0,.269.314l.066.063c.1-.135.252-.134.363-.251.272-.284.3-.708.639-.941l0-.063h.377a.961.961,0,0,0,.287-.5l.317.063c.172-.272.442-.33.461-.755a.58.58,0,0,1,.331.314c.394-.03,1.49-.856,1.5-1.256.152.055.105.023.2.126.608-.117.4-.524.712-.754.126-.1.309-.039.433-.126l.293-.377c.2-.148.475-.166.673-.314.049-.036.073-.226.112-.251h.5a1.512,1.512,0,0,0,.457-.816c.162.093.073-.016.136.188,1.337-.121,1.778-1.927,2.621-2.576a3.163,3.163,0,0,0-.4-1.633,4.824,4.824,0,0,0-1.434-.943l-.506-.062c-.293-.11-.6-.436-.911-.566-.833-.354-3.214-1.11-4.506-.815-.557.126-1.27.135-1.867.313a4.859,4.859,0,0,1-1.427.314c-.178-1.035-1.4-3.437-2.094-3.77-.232-.11-.392,0-.572-.126-.1-.069-.18-.32-.272-.377h-.943c-.357-.1-.9-.779-1.347-.5-.167.065-.133.091-.241.189.015.295.362.628.255,1.192-.326,1.726-.749,3.46-1.166,5.026-.262.982-.188,1.959-.734,2.638-.258.322-.874.389-1.288.566a17.276,17.276,0,0,0-2.561,1.382.532.532,0,0,0,.408.565c-.006.146,0,.177-.049.252-.128.295-.569.3-.789.5a.852.852,0,0,1-.509-.126c.045-.36.331-.484.593-.628l-.007-.125a3.048,3.048,0,0,0-1.277.753.865.865,0,0,1-.51-.125c-.14-.49-.275-1.4-.415-1.822l-.021-1.508c-.64-2.332-.761-5.043-2.243-6.471-.085-.091-.37.067-.495.127-.218.646.374,1.273.167,1.884-.07.2-.331.33-.21.754.065.226.345.621.3.879-.029.17-.263.445-.279.629l.216.5c-.387.824.18,1.636-.042,2.639-.165.743-.148,1.823-.293,2.639l.02,1.508c-.09.438-.4.728-.5,1.131-.92.016-1.035.4-1.6.691a5.366,5.366,0,0,0-1.041.5c-.309.255-.463.733-.827.941a7.552,7.552,0,0,1-1.49.315,18.035,18.035,0,0,0-1.916.564c-.464.2-.953.719-1.857.5-.671-.16-1.212-.583-1.86-.691.059,1.477-.4,1.955.3,3.141.1.162.137.4.279.5.394.29,1.213.268,1.542.628a.767.767,0,0,0,.545-.377c.134.17.243.466.349.629a5.3,5.3,0,0,0,1.86-.439c.411-.279.4-.884.946-1.068.065-.048.056-.04.185-.062.041-.518.472-.774.757-1.068a2.815,2.815,0,0,0,.96.314c-.154-1.187.378-1.094.845-1.76.064-.092.083-.315.167-.377l.5-.062a2.757,2.757,0,0,0,.778-.691,3,3,0,0,1,.652.44,2.734,2.734,0,0,1,.039,1.822l.059,1.067a3,3,0,0,0-.171.314l.069,1.256c-.072.438-.086.857-.178,1.32-.108.542-.415,1.785.007,2.387l.028.5c-.106.276-.519.361-.789.5-.484.254-1.451,1.265-2.415.628-.243-.008-.268,0-.384-.125s.154-.271.1-.44c-.215-.684.048-.546.192-1.067l-.049-.88c.056-.241.217-.523.273-.753.095-.392-.19-.624-.115-.943s.587-.876.237-1.382c-.033-.225-.015-.209-.143-.314l-.066-.062a10.853,10.853,0,0,0-.51,2.136c-.271,1-.738,2.012-1.093,2.953a9.624,9.624,0,0,1-.534,1.7c-.258.413-.841.56-1.208.879h-.753a5.384,5.384,0,0,0-.8,1.444l.122,1.068c-.088.313-.542.49-.646.817-.181.572.075,1.368-.08,1.946-.062.23-.3.391-.409.566-.207.341-.238.728-.443,1.068-.216.356-.59.666-.824,1-.36.521-.61,1.1-.977,1.633l-.716.691a22.786,22.786,0,0,1-1.825,2.2,1.046,1.046,0,0,1-.517-.252,6.879,6.879,0,0,1,.388-2.073l-.038-.69c.015-.049.169-.1.181-.125l.063-1.131c.043-.146.257-.355.286-.5l-.1-.691c.049-.221.225-.507.273-.754.131-.681-.251-2.475.077-3.141.129-.262.414-.244.6-.439.173-.179.139-.533.272-.754.215-.358.7-.423.831-.88a3,3,0,0,0-.248-2.2c-.076-.668-1.176-1.108-1.884-1.131a14.3,14.3,0,0,0-.031-1.7,1.416,1.416,0,0,1-.164-.69,8.229,8.229,0,0,0,.2-1,1.653,1.653,0,0,0-.223-.63c.048-.506.118-1.335.21-1.884.18-1.086-.391-2.389-.2-3.518.1-.606.181-1.5.325-2.073.126-.508-.035-.987.108-1.445.137-.437.4-.949.552-1.382.145-.409.023-1.057.234-1.444-.088-.742-.97-.942-1.571-1.132l-.443-.062c-.073-.053-.075-.249-.143-.314a4.478,4.478,0,0,0-2.628-.941c-.413.092-.934.319-1.3.377-.293.046-.346-.235-.639-.188a3.337,3.337,0,0,0-1.211.816l-.157.565c-.1.151-.3.071-.429.188s-.131.366-.224.5a2.758,2.758,0,0,1-.722.565c-.31.185-.807.151-1.114.313-.283.15-.91.692-1.357.44-.328.035-.35.179-.482.377a1.182,1.182,0,0,1-.576-.189c-1.15.029-.509-.431-.935-1l-.07-.125a5.829,5.829,0,0,0-.736.314c-.133.938.746,1.561.641,2.512a9.653,9.653,0,0,1-.488,1.382c-.331,1.339.44,2.039,1.032,2.765.08.1.1.261.206.314h.377c.189.072.622.314.768.251,1.108.029.593-.308,1.166-.5.417-.142.6.1.67-.377a.677.677,0,0,1,.324.188c.063-.06.1-.208.175-.251.151-.094.365-.02.495-.126.152-.124.114-.446.283-.564l.618-.189a10.82,10.82,0,0,1,.967-.69c.242.3.986.868.778,1.57-.039.131-.162.2-.164.439l.132,1.257c-.028.119-.178.188-.178.188-.053.159.2,1.261.216,1.634.031.559.287,1.674.237,2.01l-.31,1.193c-.117.7.376,1.038-.032,1.7-.422.682-1.478,1.021-2.115,1.508a10.663,10.663,0,0,0-2.534,3.016c-.111.249-.031.477-.151.691-.163.291-.608.558-.705.879l.045,1.947a12.071,12.071,0,0,0,.666,5.215c.187.326.543.647.747,1,.316.552.488,1.325.974,1.7a5.8,5.8,0,0,1-1.2,2.137c.022.145.022.177.076.251.148.063.4-.083.566,0,.316-.025.341-.077.356-.377.221.123.2.437.349.628.045.524-.033.692-.328.88l0,.063-.192-.062a1.453,1.453,0,0,1-.15-.44.623.623,0,0,0-.429.189.647.647,0,0,1-.29-.691c-.458.093-.439.434-.649.753-.455.693-.855,1.461-1.326,2.137l-.831.88a13.32,13.32,0,0,1-1.281,1.82c-.167.174-.447.262-.6.44-.172.2-.2.465-.405.628-.12.1-.288.122-.363.252l-.039.439c-.093.281-.376.536-.453.88a11.019,11.019,0,0,0,.121,2.2,3.72,3.72,0,0,1-.15.691,6.2,6.2,0,0,0,.307,2.136c.254.117.457.182.625-.062a2.105,2.105,0,0,1,.157.564c.111.041.062.013.129.063a2.166,2.166,0,0,0,1.693-1.194c.11.041.062.014.129.063.586-.045.631-.41.834-.816.129-.26.694-.373.911-.565l.227-.44a5.723,5.723,0,0,1,.967-.691c.375-.3.62-.828,1.005-1.13a9.048,9.048,0,0,1,.915-.5c.335-.207.552-.755.886-1,.232-.174.692-.33.848-.564.079-.119.029-.389.1-.5.183-.118.529-.024.747-.126a3.529,3.529,0,0,0,1.257-1.13c.154.059.1.068.258.125.4-.448.669-.339,1.221-.628.451-.235.57-.841.943-1.131l.492-.187c.217-.275.135-.756.318-1.068.128-.22.466-.292.6-.5l.105-.377.241-.188c.082-.213-.066-.529.024-.69l0-.063h.125l.081.314c.422-.06.436-.389.722-.565.322-.2.7-.214.981-.439.367-.294.51-.892.876-1.194l0-.062c.122-.028.083.026.13.062.239-.137.313-.464.464-.691.356-.535,1.2-1.963,1.763-2.2.017-.158-.1-.408-.032-.566.036-.084.389-.263.479-.438.137-.271-.047-.443.087-.691.3-.562.845-1.063,1.166-1.634.209-.372.2-.889.433-1.256-.037-.374-.044-.462.286-.5.07-.466-.129-.638-.426-.88a1.254,1.254,0,0,1,.15-.69.9.9,0,0,1,.719.5c.383-.25.319-.941.751-1.193.155-.091.479.056.565,0s.077-.313.168-.377l.621-.126c.122-.05.2-.26.3-.313h.377c.227-.084.454-.354.666-.44a5.93,5.93,0,0,0,1.473-.628c.2-.083.165-.052.171-.314l.2.189c.4-.045.246-.214.485-.315.287-.119.59.03.81-.125l.112-.251h.565c.255-.115.281-.378.667-.439l-.014-.252a5.323,5.323,0,0,1,.75-.062l-.014-.252h.44c.268-.265.542-.383.579-.879h.063a.823.823,0,0,0,.136.188l0,.063a.436.436,0,0,0,.3-.251.907.907,0,0,1,.255.063.4.4,0,0,1-.245.125l.007.126a.91.91,0,0,0,.622-.126c.251-.114.106-.284.223-.5l0-.063c.256.124.416.409.659.565a5.179,5.179,0,0,1,.164,1.821c-.062.216-.327.467-.4.691-.1.295.1.552-.08.817-.294.466-.986.339-1.473.628l-.234.313c-.519.39-1.118.623-1.64,1l-.475.5c-.5.336-1.133.395-1.459.88a4.723,4.723,0,0,0-.464,1.821c-.1.6.289,1.258.027,1.633.092.36.3.313.531.5a5.553,5.553,0,0,0,1.127-.063c.129-.048.141-.266.234-.314h.817c.729-.16,1.852-.1,2.359-.5.321.053.367.178.583.315l.007.125a10.365,10.365,0,0,1-1.065,1.194c-.723.54-2.018,1.067-2.276,2.01a3.609,3.609,0,0,0,.279,1.633c.068.306-.141.6-.017.817.11.269.275.271.464.439l.806-.188.178-.188c.369-.118.45.25.744-.188a1.38,1.38,0,0,1,.443.063c.138,1.364-.89,1.634-1.7,2.262l-.705.88c-.306.238-.679.372-.97.628-.143.126-.188.39-.349.5-.264.185-.712.138-.988.313-.3.2-.431.621-.708.817-.409.288-.8.411-1.219.69-.161.109-.228.4-.345.565l-.363.251a3.64,3.64,0,0,1-.524.754c.027,1.095.293,1.137.792,1.822,1.418.311,3.462-.959,4.112-1.759.049.011.04-.02.132.126.669-.032.274-.242.541-.44h.377l.29-.44c.165.08.14.065.2.253a6.635,6.635,0,0,1-.562,1.192,17.72,17.72,0,0,1-2.133,3.455l.014.252a1.1,1.1,0,0,0,.485-.314c.045.054.1.2.14.252l.017.313a.763.763,0,0,1-.2-.126c-.156.08-.133.065-.174.251-.142-.08-.07-.115-.144-.313a4.415,4.415,0,0,0-.837.754c-.087.139-.025.279-.1.439a27.517,27.517,0,0,1-1.954,3.268h-.126a2.075,2.075,0,0,1-.356-.754h-.126a.827.827,0,0,1,.091.5l.021.377a.621.621,0,0,1-.2-.251c-.152.092-.075-.016-.116.188h-.062c-.137-.381-.275-.211-.471-.564h-.126c.257.688-.3,2.018-.192,2.2a.853.853,0,0,0,.087.439.646.646,0,0,0,.384.126c.024-.288.1-.261.16-.5a.976.976,0,0,1,.2.188c.157.083.12-.187.182-.126l.007.126c.435-.046.256-.223.412-.5l.055-.125a2.427,2.427,0,0,1,.3.942c.231-.059.165-.114.366-.188a1.643,1.643,0,0,1,.213.439,1.137,1.137,0,0,0,.374-.062c.034-.108.009-.062.056-.126l0-.062a.828.828,0,0,0-.314,0l.059-.063c.155-.226.494-.181.67-.377h.063a.7.7,0,0,1-.289.44c.07.136.1.083.261.188.1.052.373-.074.492-.188.254-.189.192-.509.276-.691.079-.055.187.015.307-.126h.063a3.275,3.275,0,0,1-.094.566h.125c.932-1.076,1.47-2.539,2.374-3.645.367-.447.252-.784.814-1.192-.033-.129-.023-.121-.074-.189.059-.42.925-1.793,1.341-1.884a1.774,1.774,0,0,1,.1-.5c.093-.179.176-.064.3-.187.236-.229.455-.744.7-.943s.547-.235.726-.5c.366-.548.442-1.368.97-1.759-.1-.628-.2-1.258-.293-1.886.148-.882.734-1.469.671-2.638.062.087.089.351.15.439.089.141.171.134.324.188a9.212,9.212,0,0,1,.643-.88l0-.062c.2-.142.57-.007.747-.126l.653-.691c.05-.024.653-.047.687-.063a5.978,5.978,0,0,0,.719-.628l0-.062c.028-.124.07.126.07.126a1.974,1.974,0,0,0,1.322-1.068c.2.038.154.011.259.125.346-.067.486-.278.8-.376l.039-.439.75-.063a4.19,4.19,0,0,1,.835-.816h.376l.3-.314.318.063a1.825,1.825,0,0,0,.635-1,.8.8,0,0,0,.5-.126l-.014-.251c.512-.055.28-.364.53-.628l.06-.062a.91.91,0,0,1,.139.251.834.834,0,0,0,.248-.063c-.04-.67-.117-.971.3-1.382l-.041-.753c-.228-.5-2.176-.981-2.771-1.257a3.531,3.531,0,0,1,.722-1.7c-.062-.677-1.273-1.079-1.933-.88-1.1.333-1.806,1.094-2.873,1.445-.719.236-1.512.054-1.724-.5-.071-.109-.075-.143-.013-.251l-.025-.44h.063l.077.251c.572-.285.766-1.165,1.232-1.57.086-.049.11.008.255.063a.91.91,0,0,0,.289-.439.848.848,0,0,0,.255.063.961.961,0,0,1,.046-.314c.13.025.122.017.192.063.15-.1.084-.233.167-.377.067-.085.033.02.192.063.2.032.315-.268.545-.377.285-.136.676-.149.858-.377.131-.163.053-.416.161-.5s.393.008.5-.062c.148-.1.13-.285.227-.44a1.249,1.249,0,0,1,.726-.5,1,1,0,0,0-.039-.691c-.072-.144-.115-.137-.2-.252-.3.017-.647-.127-.813.063a1.418,1.418,0,0,1-.593-.5c-.693.021-.984.412-1.473.629-.826.366-1.869.54-2.318,1.256a2.278,2.278,0,0,1-.384-.126,1.017,1.017,0,0,0-.09-.5c-.071-1.238.552-1.3.89-2.073.146.015.178.013.255.063.508-.118.51-.646.761-1,.034-.109.009-.062.056-.126l.076.251c.455-.1.468-.461,1.04-.5a.677.677,0,0,0-.146-.377.662.662,0,0,1,.042-.378c.08,0,.029-.042.129.063.132-.058.088-.055.181-.126.085-.046.079-.02.192.063.437-.019.481-.34.527-.69.145-.015.177-.013.248-.063.23.057.194.038.265.251.619-.067.667-.585.953-.941.148-.056.264.09.45.188a1.265,1.265,0,0,1,.479-.438c.144-.065.062,0,.254.062l.224-.5a3.087,3.087,0,0,0,.307-.126l.695.063a6.574,6.574,0,0,0,1.685-1.319c.045.054.1.2.14.251.067.051.017.023.129.063a3.549,3.549,0,0,1,.094-.565l-.007-.126h.126l.147.377c.788-.014.629-.475,1.036-.566l.573.127c.327-.1.529-.5.781-.629.444-.228.561.135.992-.251l.464.439c.206-.059.273-.19.426-.251.415-.166.966-.026,1.305-.251.213-.143.137-.357.283-.566a3.289,3.289,0,0,1,.729-.438c-.065-1.29-.764-1.344-1.727-1.7-.173-.063-.349-.322-.524-.377-.294-.094-1.231.121-1.7,0-.7-.183-1.412-.875-2.359-.629a5.966,5.966,0,0,0-1.714.817c-.162.105-.361.361-.541.439-.267.115-.505.032-.747.125a10.272,10.272,0,0,1-1.165.5h-.754c-.118.064-.134.315-.293.377l-.939.063-.356.377c-.467.243-1.059-.134-1.571,0a2.165,2.165,0,0,0-.614.251l-.052.188a2.353,2.353,0,0,1-1,.063,1.012,1.012,0,0,1-.258-.125c-.013-.588.262-.355.537-.5.076-.129.023-.351.1-.5a3.941,3.941,0,0,1,1.752-1.256,2.1,2.1,0,0,1,.094-.565c.086-.006.088-.016.2.125a.516.516,0,0,0,.464-.691C700.164,14340.629,700.154,14340.65,700.243,14340.81Zm-37.157,22.112a2.185,2.185,0,0,0-.667-.69,12.186,12.186,0,0,1,.332-1.947,4.143,4.143,0,0,0,1.04-.5,2.157,2.157,0,0,0,.66.565c.068,1.377-.78,1.7-1.24,2.575Zm5.985,3.707c-1.066.762-1.932,1.924-2.995,2.638-.492.331-1.1.491-1.456.942a1.088,1.088,0,0,1-.83-.251c-.065-1.126.417-1.511.691-2.261l.094-.566.541-.439.1-.376a5.293,5.293,0,0,1,1.1-.5c.094-.049.154,0,.258.127a1.533,1.533,0,0,0,.716-.691c.147.085.149.219.209.377,1.144-.144,1.745-.251,2.2-1.068.1.074.116.254.206.314.263.173.277-.031.4.313C670.562,14365.721,669.418,14366.38,669.071,14366.629Zm14.871,17.841c-.1.163-.267.081-.422.314H683.4a16.886,16.886,0,0,0,1.267-2.073A4.532,4.532,0,0,1,683.942,14384.47Zm.779-1.821.056-.126S684.826,14382.56,684.721,14382.648Zm8.937-47.3a8.965,8.965,0,0,1-.792,2.7l-.834.817c-.187.294-.213.633-.388.941-.215.38-.694.692-.883,1.068l.014.252c-.156.3-.523.488-.642.879-.3.982.4,1.629.746,2.136.212.313.24.665.433,1a1.155,1.155,0,0,1,.3.942,2.945,2.945,0,0,1-1.2,1.068l-1.064.063c-.153.042-.261.177-.37.126h-.189c.04-.242.1-.578.143-.816l-.069-1.257a14.053,14.053,0,0,0,.1-3.831.71.71,0,0,1-.322-.127c.074-.15.12-.147.3-.187a22.107,22.107,0,0,1,.241-2.45c.1-.568-.161-1.123.042-1.508.268-.506.873-.619,1.264-1,.041-.063.068-.251.108-.314.051-.081.24.1.325.188.5-.063.481-.5.775-.754.564-.482,1.355-.8,1.675-1.507a1.624,1.624,0,0,1,.646.313C694.056,14334.78,693.772,14334.89,693.658,14335.344Zm4.073,30.405a11.116,11.116,0,0,0,1.672-1.57l.16-.5c.075-.105.3-.129.363-.251.1-.2.03-.409.157-.565.047-.086.173.079.321.126l.112-.251c.387.31,1,.7,1.2,1.192a.536.536,0,0,1,.035.629c-.122.37-.54.481-.841.691a12.724,12.724,0,0,1-2.308,1.444c-.309.131-.96.315-1.252.063C697.253,14366.659,697.6,14365.883,697.731,14365.749Zm.857-18.532c.366.057.465.22.712.377-.232,1.276-1.587,2.348-2.335,3.2-1.132.02-.717-.822-1.152-1.508.007-.516.362-.783.566-1.13h.44l-.011-.189A8.635,8.635,0,0,0,698.588,14347.217Zm1.171-8.354c-.548.418-1.551.813-2,1.257a.557.557,0,0,1-.317-.063,1.2,1.2,0,0,1-.325-.188,5.436,5.436,0,0,1,.541-1.57c.118-.165.384-.188.548-.313a2.568,2.568,0,0,0,.468-.63,6.131,6.131,0,0,0,.387-.941l.091-.628c.14-.183.468-.238.6-.44a10.054,10.054,0,0,0,.925-2.575,3.727,3.727,0,0,1,.28-.629l.359-.313-.031-.565c.041-.146.246-.3.289-.439l.028-.628c.148-.416.641-.534.761-1,.044-.068.037-.059.053-.189a8.406,8.406,0,0,0,2.548-.5,9.542,9.542,0,0,1,2.627.942c.117,1.94-.974,2.137-1.707,3.2a18.148,18.148,0,0,1-3.86,4.021C701.212,14337.3,700.583,14338.232,699.759,14338.862Z" fill="#267f98" fill-rule="evenodd"/>
        <path id="Path_322" data-name="Path 322" d="M695,14372.094c.176.03.186.076.314,0h.126l-.025-.439-.38-.063A1.463,1.463,0,0,0,695,14372.094Z" fill="#267f98" fill-rule="evenodd"/>
        <path id="Path_323" data-name="Path 323" d="M699.68,14375.989a3.546,3.546,0,0,0-.272-.377,3.608,3.608,0,0,0-1.623.188l-.82-.062c-.065.02-.218.221-.3.251-.3.106-.814-.033-1.061.126-.148.082-.046-.03-.119.125-.047.064-.022.016-.056.126.144.125.319.245.461.377.146-.083.141-.128.171-.314h.063c.177.277.374.612.551.879l.311-.062c.318.328.655.925,1.067,1.131.447.224.827.015.974.565h.063a.792.792,0,0,0,.049-.251c.393.144.232.35.474.628a10.192,10.192,0,0,0,1.239.816l.339.44c.24.138.483.1.705.251.255.169.223.449.415.69.215.271.7.1.97.5.145-.056.1-.023.181-.126a.709.709,0,0,1,.322.126c-.063.146-.053.114-.179.188.374.441,1.09.6,1.56.942h.126c-.046-.108-.016-.062-.07-.125l-.021-.377h.126a5.4,5.4,0,0,0,.422.815c.793.3,2.32.128,2.984.566.093-.178.144-.3.356-.377.087-.05.11.008.255.063l.356-.377h.251c.011-.007.491-.955.51-1a3.42,3.42,0,0,0-.3-1.948l-.041-.754a8.67,8.67,0,0,0-1.057-2.073c-.212-.271-.638-.378-.852-.628l-.084-.377c-.231-.388-.617-.395-.684-1-.293-.14-.56-.4-.844-.5a1.7,1.7,0,0,0-1.124.125c-.22.053-.262-.147-.387-.187a3.242,3.242,0,0,0-1,.063c-.525-.006-.763-.355-1.277-.377-.468.395-.651.034-1.124.125a3.138,3.138,0,0,0-1.344.691c-.221.47.259,1.455.1,1.759a1.06,1.06,0,0,1-.171.313c-.147-.014-.178-.012-.255-.062C699.511,14377.244,699.9,14376.558,699.68,14375.989Z" fill="#267f98" fill-rule="evenodd"/>
        <path id="Path_324" data-name="Path 324" d="M696.134,14375.486c-.051-.318-.139-.309-.279-.5h-.44c-.061.05-.014.022-.122.063-.034.108-.009.062-.056.125.016.522.106.521.356.754.4.016.491,0,.548-.313h.063C696.225,14375.489,696.172,14375.531,696.134,14375.486Z" fill="#267f98" fill-rule="evenodd"/>
        <path id="Path_325" data-name="Path 325" d="M691.22,14379.758h.063c-.033-.129-.023-.121-.074-.187Z" fill="#267f98" fill-rule="evenodd"/>
      </g>
      <g id="Group_450" data-name="Group 450">
        <path id="Path_326" data-name="Path 326" d="M767.031,14366.351a3.14,3.14,0,0,0-.555-.055.882.882,0,0,0-.277.055c.07.169.018.128.222.167a4.182,4.182,0,0,1-1.5.056,17.122,17.122,0,0,0-3.494,0c-.258.058-.594-.057-.776.055h-.333v-.055a.627.627,0,0,0,.166-.111l.056-.055-.056-.057a4.094,4.094,0,0,0-1.164.223c-.1.087-.081.048-.111.222h-.61a.713.713,0,0,0,.055-.222c-.193.014-.233.019-.333.11-.184.077-.112.017-.11.166-.236-.077-.12,0-.111-.222a2.064,2.064,0,0,0-.888.333c-.4-.128-.528.058-.943.167l-.5-.056a3.736,3.736,0,0,0-.776.167,4.008,4.008,0,0,1-1.83,0l-.167-.057a5.107,5.107,0,0,0-.055-1.664l-.056-.055v.055h-.111c.031-.232-.041-.159.167-.166a18.6,18.6,0,0,0-.167-3.826l-.055-.832h-.111a.411.411,0,0,1,0-.555c-.062-.232.018-.109-.222-.11.133-.389.127-.956.277-1.276-.115-.035-.1-.009-.166-.055-.137-.179.155-.944.166-1.276l.056-1.553c-.022-.086-.159-.4-.166-.444-.02-.126.095-.158.11-.222l-.055-1.053c-.108-.442-.169-1.234-.222-1.664-.026-.211.107-.669.056-.832a3.876,3.876,0,0,1-.111-1.276,1.3,1.3,0,0,0,.055-.5,28.4,28.4,0,0,1-.166-3.494,1.306,1.306,0,0,1,.111-.442.7.7,0,0,0-.056-.333,11.016,11.016,0,0,1,0-1.165c-.014-.451.2-.823.111-1.165s-.336-.507-.388-.942c-.475-.183-.806-.526-1.276-.666-.571-.171-2.29.561-2.662.721a13.369,13.369,0,0,0-4.1,2.552c-.41.4-.758.87-1.165,1.275-.462.462-1.654,1.15-1.941,1.664a1.251,1.251,0,0,0-.332,0,2.65,2.65,0,0,1,.61-1.387c-.094-.061-.146-.042-.333-.055.035-.2.085-.208-.056-.333.042-.151.008-.094.111-.111a1.384,1.384,0,0,0,.333-.666l-.055-.221.443-.444c-.174-.263.2-.537.278-.721v-.333a8.962,8.962,0,0,1,.776-1.165h.166c.112-.464.577-.728.666-1.164l.444-.057a1.687,1.687,0,0,1,1.164-.941c.022-.114.014-.107.056-.167.092-.166.278-.228.388-.388h.222c.124-.822,1.23-1.017,1.83-1.388.174-.106.369-.375.555-.442.317-.117.46.013.665-.167.15.092.056-.01.056.167a8.083,8.083,0,0,0,1.664-.556c.175-.085.4-.329.5-.333.126-.072.086-.119.166-.222a1.585,1.585,0,0,1,.887-.277,27.961,27.961,0,0,0,2.5-1.331c.031-.024.127.121.222.057a2.329,2.329,0,0,0,.61-1.055l-.111-.832c.048-.117.281-.237.333-.388a2.917,2.917,0,0,0-.277-1.886,4.3,4.3,0,0,1-.111-.61,3.539,3.539,0,0,0-2-1.719,2.109,2.109,0,0,0-1.386.277c-.676.291-1.284.379-1.942.665a4.9,4.9,0,0,1-1.275.61c-.01-.454-.21-.577-.333-.888l-.111-.721c-.014-.024-.148-.065-.166-.111-.107-.265-.037-.479-.167-.721l-.221-.223c-.764-1.709-.833-4.153-3.106-4.158a2.488,2.488,0,0,0-1.054.055,2.532,2.532,0,0,0-1.387,1.608c-.114.372.052.845,0,1.109-.084.438-.136.639.056.887a7.311,7.311,0,0,0,.277,2.163c.115.356-.3.972-.333,1.331a.847.847,0,0,0-.277.057,1.92,1.92,0,0,1-.055.665c-.114.021-.107.014-.167.056-.224.116-.156.412-.332.554-.084.068-.214-.031-.278.057l-.166.609c-.094.093-.265.043-.333.166v.222c-.1.237-.314.34-.388.61a.822.822,0,0,1-.222-.055c-.116.246-.307.434-.388.665h-.222c-.013.129-.011.157-.056.222a5.156,5.156,0,0,1-2.162.777l-.111.332a4.344,4.344,0,0,1-.832-.277h-.111v.166a1.843,1.843,0,0,0,.443.056c-.541.347-1.517-.466-2.273-.276a10.088,10.088,0,0,0-2.274.5,7.225,7.225,0,0,0-.832.775,1.877,1.877,0,0,0,.388,1.165c.317.555,1.533.636,2.274.832.573.152,1.194.329,1.719.5l.777.111c.446.207.823.518,1.275.721a2.609,2.609,0,0,1-.111,1.331,1.833,1.833,0,0,0,.056.665l-.167,1.165c-.036.116-.19.287-.221.388a.851.851,0,0,0,.055.39c.019.177-.09.147-.111.221-.078.268.083.512,0,.832s-.2.613-.277.943c-.1.418.049.979-.111,1.331l-.167.056c-.039.087.1.277.056.443-.031.125-.138.383-.166.5-.038.153.068.384.055.444s-.157.2-.166.222l.055.166c-.1.425-.176,1.1-.222,1.276v.111c-.044.105-.055-.111-.055-.111-.173.1-.174.322-.333.444.01.222.013.306.166.388-.081.138.014.065-.166.111v.222c.135-.073.039.026.111-.111h.055c-.069.263-.142.309.056.5-.014.313.036.222-.222.223.08.151.219.265.111.442a4.786,4.786,0,0,0,.055,1.276c.306-.053.3-.2.278-.555a4.934,4.934,0,0,1,0,1.941c.032.233-.01.166.166.166-.008.167-.041.154,0,.223-.059.35-.124.112-.222.276l.056.666a1.51,1.51,0,0,1-.111-.942,10.159,10.159,0,0,0,.055-1.388h-.277a24.034,24.034,0,0,0-.056,4.548c-.084-.134,0-.359-.055-.555-.132-.433.045-1.259-.166-1.608v-.11h-.111c0,1.651.061,2.731.055,4.049h-.166l-.056.5c.017.087.157.236.167.333l-.111.721.222.166c-.076.089-.034.064-.167.111.26,1.427.593,4.129-.277,5.1.057.045.014.021.111.057-.091.359-.462.465-.777.609a14.618,14.618,0,0,0-2.606,1.165H731.7v.056a2.824,2.824,0,0,0,1.442-.556h.388c-.073.136.026.04-.11.111v.111h.166v.167c-.2-.023-.255-.021-.333-.167-.293.078-.29.342-.5.5v.11a1.284,1.284,0,0,0,.555-.221l.055.055c-.392.374-.594.2-1.054.444-.19.1-.3.358-.5.443l-.554.056c-.088.036-.275.186-.389.222l-.388.056-.055.167-.278-.057c-.029.012-.108.165-.111.166-.181.082-.483-.1-.665-.055-.108.028-.191.193-.277.222-.167.056-.338-.123-.555,0-.113.064-.2.154-.277.166l-.5-.055c-.276.1-.613.145-.777.222-.048-.016-.171-.114-.277-.056v.111c-.028.014-.222.056-.222.056-.336.093-.6,0-.832.166h-.111a3.3,3.3,0,0,0,1.553-.111c.612-.158,1.216-.048,1.83-.222a23.128,23.128,0,0,0,2.33-.832c.374-.147.8-.021,1.109-.222.042.06.035.052.055.167a22.527,22.527,0,0,0,3.272-1.331l.555-.057c.439-.115.855-.181,1.331-.333a4.567,4.567,0,0,1,1.276-.442v-.167c.165-.081,1.1-.595,1.386-.443v.111c.113.079.1-.006.278,0,.06-1,1.134-.768,1.941-1.055a3.032,3.032,0,0,1,1.109-.388c.354.012.79.367,1.054.277.121.3.132.81.221,1,.056.115.285.306.333.443l-.055.223c.126.274.614.512.554.832-.044.145-.068.131-.111.276l-.055-.055c-.138-.082-.065.013-.111-.167h-.111l-.111.277c.106.073.047.073.222.11v.057a2.109,2.109,0,0,0-.721.276c-.189-.047-.141-.026-.222-.166h-.111v.277a12.074,12.074,0,0,0-2,.5,4.029,4.029,0,0,1-1,.111c-.083,0-.382.194-.5.222l-.332-.055c-.108.024-.378.2-.5.221-.248.042-.469-.113-.721-.055a7.036,7.036,0,0,1-.887.166.713.713,0,0,0-.055.222,5.2,5.2,0,0,0-1.664.277h-.111c.281.155-.428.341-.5.389-.042-.061-.035-.052-.056-.167a1.9,1.9,0,0,0-.721.222c-.211.079-.1.068-.166.223-.2-.023-.145.028-.167-.111a6.255,6.255,0,0,0-2.052.609c-.39.177-1.284.173-1.719.333-.079.029-.213.2-.277.223-.036.014-.162-.088-.278-.057a14.336,14.336,0,0,1-3.715.167v.166h-.167l.056-.055c-.1-.21-.739-.06-1.11-.167a11.38,11.38,0,0,1-2.329-.832.387.387,0,0,1,.166-.276,2.194,2.194,0,0,0-.72-.444c-.53-.361-1.079.209-1.442.333-.207.071-.335-.082-.555.056a2.675,2.675,0,0,0-.555.61c-.063.075-.028-.019-.166-.057a.486.486,0,0,1,.055-.276v-.111l-.388.388v.057c-.031.108-.055-.111-.055-.111-.068.077-.085.154-.167.223.007,1.161.619,1.368,1.11,2-.453-.234-.986-1.082-1.276-1.165.074-.1.073-.047.111-.221h-.167a1.266,1.266,0,0,0-.11-.389v-.056c-.066.1-.048.4-.111.5-.045.064-.221-.108-.222-.11h-.056c.035,1.914,2.947,2.619,4.548,3.05l1.22.056c.228.063.5.259.721.333.575.191,1.257.256,1.83.389l.5-.057a6.577,6.577,0,0,0,3.66-.831,17.578,17.578,0,0,1,1.719-.443c1.4-.462,3.021-.979,4.382-1.442,1.255-.428,2.7-.5,3.937-.943.261-.094.62-.33.888-.443.579-.244,1.207-.246,1.83-.443a14.429,14.429,0,0,0,1.442-.666c.289-.129.973-.618,1.331-.388.309.191.253.742.388.943l.278.165a2.858,2.858,0,0,0,1.442,1.442,4.072,4.072,0,0,0,3.327.056c.312-.131.657-.023.888-.222.11-.095.127-.269.221-.388.061-.077.21-.091.278-.167h.055c.088-.13.02-.324.111-.444.076-.1.27-.1.333-.221.225-.445-.061-.8,0-1.11.019-.093.152-.369.111-.5l-.167-.166c-.048-.221.114-.178.056-.333.067-.483,1.757-.635,2.274-.775a17.771,17.771,0,0,1,6.433-1.055.455.455,0,0,1-.277.056v.167a21.273,21.273,0,0,1,2.5.388l.554.055c.349.15.72.714,1.387.5.44-.142.454-.575.721-.888.035-.041.482-.284.554-.333A2.106,2.106,0,0,0,767.031,14366.351Zm-26.178-19.854h.056c.024.109-.024.072-.056.111v.11H740.8A.806.806,0,0,1,740.853,14346.5Zm-.222-.111h.056v.111h-.056Zm-.055.167h.055c.025.108-.024.071-.055.111v.055h-.055Zm-4.659,4.381v.056h-.055l.055-.277A.161.161,0,0,1,735.917,14350.933Zm-.166,8.431v.166c-.042-.06-.035-.052-.056-.166Zm0,1.607h.055v.111h-.055Zm.111,3.827c.045.065.044.093.055.222C735.873,14364.955,735.873,14364.927,735.862,14364.8Zm.055-.665h-.055v-.11h.055Zm-.055-.721v.055h-.056l.056-.5A.461.461,0,0,1,735.862,14363.412Zm.832-10.538v.167c-.042-.06-.035-.052-.056-.167Zm-.5,3.716h.055v.111H736.2Zm.055.555a.462.462,0,0,1-.055-.277A.472.472,0,0,1,736.25,14357.145Zm-.277-.222.055.055.056.057h-.056v.11h-.055Zm.222,2.385h-.056v-.11h.056Zm-.056-.167h-.055a9.5,9.5,0,0,1-.056-1.885l.333.721c-.01.09-.148.24-.111.389.015.058.14.021.111.166C736.324,14358.718,736.159,14358.815,736.139,14359.141Zm.167,3.328c-.045-.064-.045-.093-.056-.222C736.295,14362.312,736.295,14362.34,736.306,14362.469Zm.055.111v.111h-.055v-.111Zm.055.721v.111h-.11a.845.845,0,0,1,.11-.5A.371.371,0,0,1,736.416,14363.3Zm.222-6.711c-.042-.06-.035-.051-.055-.166h.055Zm0-2.439c-.048.07-.1-.042-.166-.111-.045-.057-.021-.014-.056-.111a.775.775,0,0,0,.222-.333A.487.487,0,0,1,736.638,14354.15Zm.333-.167a1.012,1.012,0,0,1,.056.5C736.909,14354.314,736.958,14354.177,736.971,14353.983Zm0,4.049c.1.036.054.011.111.055C736.986,14358.052,737.028,14358.077,736.971,14358.032Zm3.827-3.05h.055v.11H740.8Zm-.056.166h.056v.11h-.056Zm-.166.721v.111h-.055v-.111Zm-.166-7.875.111.055-.056.055v.057h-.111Zm.111,8.041c.106.237-.174.748-.222,1.054h-.056A4.71,4.71,0,0,1,740.521,14356.035Zm-.389,1.72h-.055l.111-.61C740.3,14357.334,740.168,14357.533,740.132,14357.755Zm-.166-3.55.111.056v.111C739.939,14354.29,740.012,14354.385,739.966,14354.205Zm.055,4.1h-.055l.055-.442C740.112,14358.007,740.047,14358.128,740.021,14358.309Zm-.221-10.094v-.055h.055l-.055.555h.166l.055-.278h.111l-.111.5c-.168-.069-.16-.132-.388-.166A2.692,2.692,0,0,1,739.8,14348.215Zm-.167.888.111.056v.11c-.045.058-.02.015-.055.111h-.111Zm.167,6.988h-.056v.111h-.055l.055-.167Zm-.278-6.045a1.049,1.049,0,0,1-.111.942v.11h-.055A2.389,2.389,0,0,1,739.522,14350.046Zm-.222,1.5c-.042-.06-.034-.051-.055-.166h.055Zm0-.388h.056v.11H739.3Zm3.55,8.817a5.959,5.959,0,0,1-.721,1.331l-.333.223-.111.5-.277.056c-.206.163-.141.392-.444.5-.082.035-.024.069-.111,0-.032-.054,0-.106,0-.278a.94.94,0,0,0-.332.777,1.485,1.485,0,0,0-.611.333h-.277l.056-.056a1.26,1.26,0,0,1,.5-.5c-.013-.13-.011-.156-.056-.223-.033-.172-.055-.166-.055-.166-.126-.075-.121-.193-.167-.333a1.721,1.721,0,0,0-.277.057h-.277l.166-1.11a3.438,3.438,0,0,1,.222-.776l.166-.056a5.64,5.64,0,0,0,.056-1.164c.139-.6.386-1.312.555-1.886a11.043,11.043,0,0,1,.665-2.5c.034-.043,0-.014.056,0a.489.489,0,0,1,.166.333h.222a4.1,4.1,0,0,0,.776,1.387c-.155.321.259.92.333,1.22l-.055.443.221.056c.252.308-.049.773-.111,1.055Zm-8.874,12.424c.1.035.054.011.111.056C733.991,14372.416,734.033,14372.441,733.976,14372.4Zm15.418-13.478v.167c-.042-.06-.035-.052-.055-.167Zm.056.333v.111h-.056v-.111Zm-4.493-13.588s.042.034-.055.111Zm-.321.3.155-.193c.051.111-.069.13-.155.193l-.067.083A.193.193,0,0,1,744.636,14345.969Zm-.233.194h.055c-.039.068-.209.384-.332.333Zm-.5.5.055-.056c.045.057.021.014.056.11C744.015,14346.718,743.8,14346.706,743.9,14346.663Zm-.278.443v.056h-.055l.277-.389h.056Zm3.328,5.768a3.851,3.851,0,0,0-.222-1c-.051-.132-.233-.31-.277-.444v-.554c-.051-.132-.228-.343-.277-.5-.085-.265-.014-.406-.111-.665-.09-.24-.324-.345-.444-.555h-.166c-.032-.44-.332-.612-.5-.943a5.865,5.865,0,0,1-.887-.332c.018-.2,0-.185.111-.277-.112-.062-.1-.028-.222,0a5.882,5.882,0,0,0,.555-.722h.222v-.221c.2-.092.487-.167.61-.333s.117-.4.277-.5c.824-.5,1.478-1.42,2.44-1.72.057-.044.014-.021.111-.056a8.973,8.973,0,0,1-.055,3,7.069,7.069,0,0,0,.111,1.664v1.22c.169.777-.029,1.828.166,2.606.018.072.155.283.166.333.107.478-.219,1.323.056,1.775v.443h-.056c-.057-.107-.591-.926-.665-1h-.167l-.055-.388-.277-.277-.167-.443C747.149,14352.848,747.163,14352.882,746.954,14352.874Zm2,13.976v.111a3.837,3.837,0,0,1-1.387-1.331c-.14-.269-.094-.466-.277-.665.032-.488.3-.426.443-.721.033-.07.111-.555.111-.555-.01-.056-.135-.024-.111-.166s.206-.57.222-.722c.019-.178-.109-.454-.055-.609a8.8,8.8,0,0,0,.776-1.831h.111c.011,1.578.4,3.563.167,4.881C748.885,14365.609,749.183,14366.486,748.951,14366.85Zm.443-3.271v.111a.639.639,0,0,1-.111-.444A.41.41,0,0,1,749.394,14363.578Zm-.111-.444v-.554l.111.111v.442Zm.167,2.829h-.056v-.111h.056Zm0-1.719h-.111v-.389l.111.056Zm-.111-3.383a5.544,5.544,0,0,0,0,1.274c-.409-.566-.155-2.534-.167-3.217.192.254-.032.637.111.888v.056c.176-.1.027-.071.111-.166v-.111h.056a.882.882,0,0,0,.055.444v.941c-.045-.057-.02-.013-.055-.109Zm.222,1.108a1.481,1.481,0,0,1-.056-.666A1.481,1.481,0,0,1,749.561,14361.97Zm9.761,4.714c.1.036.054.012.111.056C759.337,14366.7,759.378,14366.729,759.322,14366.684Zm6.211.166h-.055v-.11h.055Z" fill="#267f98" fill-rule="evenodd"/>
        <path id="Path_327" data-name="Path 327" d="M749.117,14338.4h.055c-.059-.042-.051-.035-.166-.057v.111C749.1,14338.419,749.06,14338.443,749.117,14338.4Z" fill="#267f98" fill-rule="evenodd"/>
        <path id="Path_328" data-name="Path 328" d="M742.129,14345.831l.055-.056v-.223h-.111a.814.814,0,0,0-.055.278Z" fill="#267f98" fill-rule="evenodd"/>
        <path id="Path_329" data-name="Path 329" d="M745.179,14347.384a.749.749,0,0,0-.111.222l.222-.056C745.241,14347.419,745.269,14347.458,745.179,14347.384Z" fill="#267f98" fill-rule="evenodd"/>
        <path id="Path_330" data-name="Path 330" d="M744.957,14347.772l.056-.057H744.9C744.85,14347.775,744.919,14347.779,744.957,14347.772Z" fill="#267f98" fill-rule="evenodd"/>
        <path id="Path_331" data-name="Path 331" d="M735.529,14356.257v-.333h-.111c-.057.045-.014.021-.111.057a1.13,1.13,0,0,0,.111.222v.055Z" fill="#267f98" fill-rule="evenodd"/>
        <path id="Path_332" data-name="Path 332" d="M733.532,14367.849a.529.529,0,0,1-.277.166v.166c.187-.071.18-.159.388-.221C733.57,14367.825,733.669,14367.92,733.532,14367.849Z" fill="#267f98" fill-rule="evenodd"/>
        <path id="Path_333" data-name="Path 333" d="M732.645,14368.459c-.073-.135.026-.039-.111-.111a.38.38,0,0,1-.222.111c.022.114.014.107.056.166l.055.055C732.5,14368.541,732.481,14368.52,732.645,14368.459Z" fill="#267f98" fill-rule="evenodd"/>
        <path id="Path_334" data-name="Path 334" d="M732.756,14370.954l-.111.111h-.055v.056c.128-.013.156-.011.221-.056h.056C732.794,14370.931,732.893,14371.026,732.756,14370.954Z" fill="#267f98" fill-rule="evenodd"/>
        <path id="Path_335" data-name="Path 335" d="M731.758,14371.343l-.056.166.056-.055C731.856,14371.4,731.82,14371.435,731.758,14371.343Z" fill="#267f98" fill-rule="evenodd"/>
        <path id="Path_336" data-name="Path 336" d="M732.035,14372.285v.111a3.368,3.368,0,0,0,.721-.277h.111v-.055h-.277A1.392,1.392,0,0,1,732.035,14372.285Z" fill="#267f98" fill-rule="evenodd"/>
        <path id="Path_337" data-name="Path 337" d="M766.975,14380.216l-.055-.554-.277-.278v-.276a4.732,4.732,0,0,0-.832-1.109c-.21-.249-.288-.592-.5-.832-.1-.075-.094,0-.167-.055-.141-.105-.066-.124-.166-.278l-.666-.554-.055-.333-.555-.389h-.277c-.079-.056-.086-.271-.166-.333-.11-.084-.418-.191-.5-.276-.055-.059.014-.175-.055-.223-.12-.083-.273-.032-.388-.11-.166-.112-.319-.408-.5-.5l-.5-.057c-.152-.066-.278-.27-.443-.333a8.605,8.605,0,0,1-.943-.221l-.111-.167a6.475,6.475,0,0,0-1.387-.055,2.17,2.17,0,0,0-.443-.111c-.159.027-.316.245-.444.277-.052.013-.154-.109-.277-.056l-.167.223-.665-.057a3.359,3.359,0,0,0-1.5.666c-.453.6-.021,1.7.278,2.163s.45,1.231.887,1.553l.5.11.167.278.443.166c.134.094.122.255.222.388.081.108.219.086.333.167a4.281,4.281,0,0,1,.776.832c.1.144.118.3.222.443l.167.056c.193.3.046.917.277,1.22a1.9,1.9,0,0,0,1.275.776c.111.424,1.372,1.074,1.72,1.387.042.061.035.052.055.166.313.038.4.19.555.057.087.094.123.309.222.388a2.3,2.3,0,0,0,1.109.388c.049-.013.216-.15.277-.166l.777.056c.331-.4.905-.593,1.22-1,.149-.192.1-.437.222-.666l.221-.222-.055-.167c.047-.156.335-.417.388-.554l-.055-.333A1.988,1.988,0,0,0,766.975,14380.216Z" fill="#267f98" fill-rule="evenodd"/>
        <path id="Path_338" data-name="Path 338" d="M733.422,14380.826a1.39,1.39,0,0,0-.056-.443c-.471.063-.649.517-1,.721a3.456,3.456,0,0,1-1.941.443l.111-.11c-.057-.045-.014-.021-.111-.056-.081-.034-1.469.2-1.664.222h-.5a.96.96,0,0,1-.61.111,5.465,5.465,0,0,1-1.11-.555l-.055-.111a.89.89,0,0,0,.5-.442,3.889,3.889,0,0,0,.666,0c0-.37-.116-.528-.389-.61a3.818,3.818,0,0,0-1.941.166c-.817-.367-1.511.8-1.664,1.331a2.02,2.02,0,0,0,.278,1.331,2.217,2.217,0,0,0,.61.555l.554.61a8.806,8.806,0,0,0,2.829,1.553,3.226,3.226,0,0,0,1.608-.111H731.2a13.293,13.293,0,0,0,1.608-.721l.389-.056c.068-.044.415-.608.5-.722C734.273,14383.031,732.786,14381.652,733.422,14380.826Z" fill="#267f98" fill-rule="evenodd"/>
      </g>
      <g id="Group_451" data-name="Group 451">
        <path id="Path_339" data-name="Path 339" d="M854.25,14346.178v.534a3.549,3.549,0,0,0,1.346,1.067c.229.08.79-.365.947-.437.579-.263.775-.742,1.246-1.067.136-.095.29-.058.448-.146l.449-.437c.243-.1.477-.038.7-.146a2.954,2.954,0,0,1,1.745-.1c.337-.02.259-.159.448-.242.327-.144,1.1.07,1.445-.049,1.209-.411,2.6-1.353,3.788-.533-.074.644-.77.637-1.047,1.067-.1.16-.066.289-.149.484s-.3.288-.4.438c-.186.275-.208.6-.4.873l-.349.291c-.1.149-.1.335-.2.485l-.249.194c-.169.29-.179.558-.349.825-.054.085-.216.189-.249.291l.05.291c-.037.139-.239.271-.3.388v.194l-.249.146a11.962,11.962,0,0,0-.5,1.746c-.358.962-.88,1.882-1.2,2.815-.3.891-.232,1.9-.5,2.813-.447,1.529-.59,3.3-1,4.9v3.251c0,1.744-.364,3.892.1,5.386a6.613,6.613,0,0,0,.7,1.65,17.013,17.013,0,0,1,1.495,1.407c.147.2.182.5.348.679.175.295.788.242,1.147.388l.2.2a7.484,7.484,0,0,0,1.644.048,8.266,8.266,0,0,0,1.246-1.213h1.944c.254.1.632.456,1,.243.56-.063.674-.588,1.047-.825.356-.228.84-.267,1.1-.582.347.029.393.189.6.339a3.341,3.341,0,0,1-.448,2.184c-.286.109-.684-.016-.847.049-.335.132-.441.6-.8.728-.306.181-.8-.062-1.2,0-.97.154-2.806-.257-3.638.243.02.1.013.093.05.145a1.992,1.992,0,0,0,1.1.777l.8-.049.249.243h1c.124.051.2.277.3.339s.905.134,1.1.193c.737.232,1.569.486,2.293.681h.9c.123.051.237.244.4.291a5.1,5.1,0,0,0,2.342-.485c.372-.138.343-.666.549-.971l.5-.388c.22-.358.229-.749.448-1.116.353-.589.756-.705,1.047-1.5a8.9,8.9,0,0,0,.249-2.669v-1.067a9.8,9.8,0,0,0,0-2.232c-.009-.411.152-1.064.1-1.31-.065-.3-.132-.772-.2-1.068v-1.455a10.4,10.4,0,0,1-.2-1.649,13.224,13.224,0,0,1,.2-3.251v-.729a11.8,11.8,0,0,1,0-2.474,2.36,2.36,0,0,0-.1-1.019v-2.185a10.642,10.642,0,0,0-.449-5.046,8.008,8.008,0,0,0-.448-1.7,4.232,4.232,0,0,0-1.495-1.019c-.44-.077-1.232.217-1.744.048-.109-.036-.234-.207-.349-.242-.432-.133-.747.243-1.146,0-.108-.045-.073-.042-.15-.1a1.255,1.255,0,0,1,.349-.729h.1c.27-.29.359-.7.7-.922a12.081,12.081,0,0,1,2.093-.922,8.044,8.044,0,0,1,1.1-.485,2.171,2.171,0,0,1,1.445.341h.847a5.092,5.092,0,0,0,.747-.681c1.7.025,2.815.148,3.24-1.116a2.641,2.641,0,0,0,0-.922l-.15-.1c-.192-.347-.278-.853-.6-1.067-.615-.411-1.494-.49-2.143-.874a4.288,4.288,0,0,0-.648-.388l-.548.049c-.163-.05-.317-.24-.5-.291l-2.043.048c-.935.246-2,.677-2.891.972h-.448c-.526.13-1.041.3-1.545.436-.168.044-.289-.07-.4-.048-.178.036-.312.235-.448.291h-.4c-.248.069-.439.155-.747.242a13.028,13.028,0,0,0-1.346.292,2.949,2.949,0,0,1-1.694.436,3.846,3.846,0,0,1-.648-.291c-.251-.1-.426-.052-.6-.193a1.718,1.718,0,0,1,.4-.729c.109-.066.289,0,.448-.048.249-.08.525-.359.748-.437h.448l.249-.243h.249c.889-.379,1.775-1,2.642-1.407h.249c.042-.019.724-.407.747-.436.313-.393.4-.908.848-1.165.188-.109.271.071.5,0,.245-.077.524-.392.747-.485h1.2c.082-.026.183-.155.25-.194.286-.168.621-.206.9-.388l.4-.388h.648a6.5,6.5,0,0,0,.8-.486c.389-.23.832-.245,1.2-.485a10.027,10.027,0,0,0,1.3-1.31,6.518,6.518,0,0,0,.9-.776c.074-.105.029-.222.1-.34l.3-.243c.141-.189.162-.43.3-.63a5.993,5.993,0,0,0,.847-1.456c.261-.828-.115-2,.349-2.62.116-.287.5-.217.6-.484.126-.349-.722-1.58-.947-1.65-.186-.112-.345.056-.548,0-.074-.02-.191-.171-.249-.194h-.4c-.309-.1-.62-.428-.9-.533-.224-.085-.295.1-.5,0l-.25-.242c-.688-.275-.856.491-1.5.291-.163-.051-.316-.242-.5-.291-.33-.089-.519.117-.847,0-.225-.081-.216-.235-.6-.243-.37.227-1.133-.09-1.595.048-.278.084-.6.3-.9.389a6.55,6.55,0,0,0-1.495.389,14.232,14.232,0,0,0-2.741,2.086c-.335.327-.962,1.163-1.4,1.31-.331.188-.9-.121-1.146-.242-.645-.322-1.346-.747-1.994-1.067-.2-.1-.451.011-.7-.1l-.249-.242c-.362-.123-1.507.2-1.994.048-.244-.077-.788-.5-1.2-.242-.527,0-.876.276-.747.873.01.049.1.266.05.388-.045.1-.3.236-.3.389a2.068,2.068,0,0,1-.1,1.165,12.738,12.738,0,0,1-1.445,2.279c-.392.58-.783,1.18-1.146,1.747-.2.31-.219.63-.4.971-.047.089-.213.19-.249.292v3.152a5.317,5.317,0,0,1,.6.874,4.417,4.417,0,0,0,1.495.922h1.445c.235.052.248-.173.448-.243h.748l.2-.193c.793-.3,1.958-.293,2.243-1.067h.05v-.971l.647-.582.15-.437.349-.291c.073-.105.029-.222.1-.34.159-.263.529-.355.648-.679a1.746,1.746,0,0,0-.05-.97c.1-.463.763-.315,1-.631l.1-.341.2-.193-.05-.389a10.207,10.207,0,0,1,.9-1.406c.717-.672,2.235-.8,3.24-1.213.491-.2.914-.619,1.495-.582.271.017.546-.127.747,0,.114.05.108.083.2.145-.039.3-.2.289-.3.485a6.111,6.111,0,0,1-.3.776l-.3.242c-.309.452-.383,1.015-.7,1.456l-.5.388-.149.438-1.3,1.213a3.956,3.956,0,0,0-.5.534c-.208.31-.205.75-.5.97-3.038,2.279-5.8,4.774-9.019,6.891a8.966,8.966,0,0,1-1.1.533H857.29c-.416.138-.634.545-.946.776a5.262,5.262,0,0,0-1.4,1.747l-.448.388v.485c-.115.32-.452.59-.549.971A1.993,1.993,0,0,1,854.25,14346.178Zm12.957,6.7h1.844c.862-.248,2.179-.26,2.641-.922a2.875,2.875,0,0,1,1.346.243c.657.514.3,2.1.548,3.008v.873a28.112,28.112,0,0,1,.6,7.133,16.061,16.061,0,0,1-.2,3.785v.97a2.235,2.235,0,0,1-.1.631c-.21.776.214,1.751-.2,2.28a2.777,2.777,0,0,1-1.844.437c-.571-.144-1.294-.329-1.844-.484h-.9a5.369,5.369,0,0,0-1.146-.1h-.648a2.284,2.284,0,0,1-.947-.632,2.368,2.368,0,0,1,1.1-1.892,14.639,14.639,0,0,1,1.2-1.068c.432-.259,1.055-.255,1.5-.532q.522-.511,1.046-1.02c.131-.146.746-1.219.648-1.5-.043-.124-.23-.264-.3-.388-.09-.159-.146-.351-.3-.437l-.3-.049c-.1-.047-.191-.206-.3-.243-.333-.109-.6.146-.947,0a10.162,10.162,0,0,1-1.047-.63c.008-.959,1.175-1.845,1.745-2.329a1.008,1.008,0,0,0-.249-.825c.146-.741.924-.9,1.146-1.5h.05v-.68c-.073-.124-.37-.07-.5-.146a9.682,9.682,0,0,0-1.794-.922,5.093,5.093,0,0,0-1.4.341c-.138.06-.3.245-.449.29a1.217,1.217,0,0,1-1-.34,2.163,2.163,0,0,1-.15-1.6v-.776A1.854,1.854,0,0,1,867.207,14352.874Z" fill="#267f98"/>
        <path id="Path_340" data-name="Path 340" d="M836.15,14342.3c.057.061.109.116.156.163a2.082,2.082,0,0,1,.34.489c.067.118.142.251.239.394l1.152,1.163.06.05a1.215,1.215,0,0,0,.386.162.622.622,0,0,1,.139.048,2.5,2.5,0,0,1,.261.225,2.191,2.191,0,0,0,.724.5l.051.019.532.044.286.286,1.3-.071.115-.129a6.777,6.777,0,0,0,1.382-2.1,1.279,1.279,0,0,1,.1-.136,1.322,1.322,0,0,0,.228-.368l.023-.066v-1.5l-.023-.065a3.874,3.874,0,0,0-.951-1.313l-.369-.148a1.779,1.779,0,0,1-.057-.188,1.829,1.829,0,0,0-.178-.468,2.56,2.56,0,0,0-.413-.5,2.353,2.353,0,0,1-.234-.26,7.083,7.083,0,0,1-.66-1.657v-.577l-.016-.054a2.444,2.444,0,0,0-.276-.577l-.122-.207-.182-.037a1.462,1.462,0,0,0-.276-.02c-.055,0-.148,0-.2-.007l-.026-.027a.837.837,0,0,0-.345-.249l-.075-.024-.82.051a.677.677,0,0,1-.2-.21,1.409,1.409,0,0,0-1.32-.624h-.193l-.121.125a.5.5,0,0,1-.393.189l-.312.006-.081.3a2.963,2.963,0,0,1-.268.6,4.212,4.212,0,0,0-.246.515l-.016.045-.047.375-.041.047a1,1,0,0,0-.215.334l-.029.088.048.384c-.038.056-.093.128-.131.177a2.1,2.1,0,0,0-.237.354l-.03.064-.054.541c-.019.046-.047.1-.076.167a1.862,1.862,0,0,0-.227,1.365,4.988,4.988,0,0,0,1.255,1.922l.089.046h.245A3.86,3.86,0,0,1,836.15,14342.3Z" fill="#267f98"/>
        <path id="Path_341" data-name="Path 341" d="M901.473,14381.938a.851.851,0,0,0-.711-.633.845.845,0,0,1-.179-.058c-.189-.1-.4-.22-.6-.339-.241-.138-.49-.28-.714-.4l-.073-.038-.561-.051-.036-.032a.97.97,0,0,0-.335-.219l-.064-.021h-1.373a12.745,12.745,0,0,0-3.51.314h-1l-.047.011a6.515,6.515,0,0,1-.717.1,7.24,7.24,0,0,0-.8.11,5.329,5.329,0,0,1-1.339.042,5.957,5.957,0,0,0-1.548.063,14.462,14.462,0,0,1-2.324.257,15.2,15.2,0,0,0-2.351.257h-.741l-.092.012a17.006,17.006,0,0,1-3.58.3h-2.256l-.091.01a9.724,9.724,0,0,1-2.111.1c-.232,0-.461-.009-.683-.009h-1l-.091.011a1,1,0,0,1-.286.044c-.009,0-.042-.019-.066-.029a2.167,2.167,0,0,0-.263-.108l-.073-.024-1.335.054c-.286-.061-.585-.1-.874-.13s-.562-.066-.8-.12a7.884,7.884,0,0,0-1.069-.154,5.935,5.935,0,0,1-1-.153l-1.192-.414-1.307-.225c-.627-.169-1.3-.29-1.95-.407-.609-.11-1.238-.225-1.81-.374l-1.5-.166c-.7-.168-1.452-.274-2.176-.376s-1.407-.2-2.047-.353a7.291,7.291,0,0,0-1.418-.153,5.863,5.863,0,0,1-1.346-.156,3.062,3.062,0,0,1-.334-.137,3.316,3.316,0,0,0-.454-.18,4.142,4.142,0,0,0-1.094-.121,3.107,3.107,0,0,1-.841-.087c-.294-.086-.6-.188-.929-.3-.4-.132-.8-.267-1.2-.381a2.758,2.758,0,0,0,.561-.561,2.018,2.018,0,0,1,.42-.426l.165-.105.023-.2a2.407,2.407,0,0,0-1.126-2.453l-.539-.592-.047-.03a.815.815,0,0,0-.351-.113h-.007l-.94-.987-1.261-1.211c-.012-.03-.022-.066-.036-.115a1.166,1.166,0,0,0-.175-.4l-.031-.043-.26-.217a.776.776,0,0,0-.121-.359l-.032-.047-.322-.275-.157-.473-.373-.318a3.014,3.014,0,0,1,.005-.787,6.444,6.444,0,0,0-.166-2.549,1.123,1.123,0,0,1,.314-.278,2.042,2.042,0,0,0,.453-.4c.056-.072.368-.721.368-.721a5.28,5.28,0,0,0,.051-2.271l-.02-.189a3.974,3.974,0,0,1,.023-.572c.016-.2.033-.41.032-.595l0-.178-.13-.122a9.722,9.722,0,0,1-1.87-2.854l-.057-.619-.738-.983-.052-.038a1.871,1.871,0,0,0-.6-.264,1.916,1.916,0,0,1-.288-.1l-.228-.228-.082-.032a2.231,2.231,0,0,0-1.074.012,2.431,2.431,0,0,1-.85.048.191.191,0,0,1-.084-.061c-.2-.218-.42-.286-.919-.289H836.5l-.116.1a2.4,2.4,0,0,1-.3.181c-.064.034-.126.067-.177.1l-.287.172.107.316a1.243,1.243,0,0,0,.5.63,1.123,1.123,0,0,1,.153.126l.214.588.052.059a.792.792,0,0,0,.276.191v.027a1.224,1.224,0,0,0,.063.43.952.952,0,0,0,.21.316l.041.047.05.5.027.061a1.1,1.1,0,0,0,.159.239c.022.027.058.072.075.1a2.885,2.885,0,0,1-.041.529,2.961,2.961,0,0,0-.006,1.114,8.694,8.694,0,0,1-.1,3.612c-.036.13-.073.257-.109.384a10.626,10.626,0,0,0-.536,3.19v.946l.014.052a6.178,6.178,0,0,0,2.842,4.171,4.3,4.3,0,0,1,.505.435,5.2,5.2,0,0,0,.594.509,5.779,5.779,0,0,0,.639.362c.926.477,1.479.82,1.192,1.86a1.2,1.2,0,0,1-.513.613,3.254,3.254,0,0,0-.441.392h-.11a5.279,5.279,0,0,0-2.8.437l-.2.13.059,1.346a4.782,4.782,0,0,1-1.328,1.41l-.122.079-.19.572.228.181a1.829,1.829,0,0,1,.548.634c.076.128.171.288.318.49a1.231,1.231,0,0,0,.306.28.753.753,0,0,1,.118.094l.125.165h.208a4.439,4.439,0,0,0,1.844-.4c.124-.05.253-.1.392-.149a.862.862,0,0,1,.2,0,1.023,1.023,0,0,0,.576-.072.82.82,0,0,0,.474-.554l.025-.071c.141-.085.725-.389.931-.489h.5l.262-.262h1.572l.062-.021a1.243,1.243,0,0,0,.32-.173c.033-.021.077-.051.108-.069h2.39c.956.207,2,.334,3.006.457a27.728,27.728,0,0,1,3.285.527,4.776,4.776,0,0,0,1,.116,4.013,4.013,0,0,1,.832.093c.283.072.578.136.862.2.438.093.892.189,1.319.324a1.146,1.146,0,0,1,.192.1,1.475,1.475,0,0,0,.48.221l.081.016.168-.033c.112.112.284.324.4.464a2.663,2.663,0,0,0,.727.729l.084.04h.441c.1.04.224.1.351.161a4.218,4.218,0,0,0,.712.295l.054.016h.421c.265.07.565.136.856.2s.613.135.874.206l.053.014H865a.691.691,0,0,0,.244.18,1.091,1.091,0,0,0,.626.028.587.587,0,0,1,.254-.014c.181.05.372.123.576.2s.418.159.629.219a2.159,2.159,0,0,0,.653.066,1.659,1.659,0,0,1,.455.039c.422.114,1.02.31,1.342.414a2.474,2.474,0,0,0,.952.071,1.815,1.815,0,0,1,.678.035,13.612,13.612,0,0,0,1.35.315c.358.071.7.139.975.214l.053.015h.573a8.824,8.824,0,0,0,2.278.292,6.539,6.539,0,0,0,1.441-.146,3.813,3.813,0,0,1,1.234.054,11.947,11.947,0,0,0,3.185-.109,14,14,0,0,0,1.641-.575c.375-.149.73-.292,1.1-.408h1.042l.054-.015a4.5,4.5,0,0,0,.721-.3c.127-.062.249-.119.345-.158h2.972l.077.021a2.174,2.174,0,0,0,1.073.07c.4-.1.778-.178,1.149-.251a13.033,13.033,0,0,0,1.6-.385c.156-.051.323-.117.5-.186a4.486,4.486,0,0,1,1.022-.318,1.22,1.22,0,0,1,.117.044,1.251,1.251,0,0,0,.856.1c.086-.022.286-.055.463-.083.125-.02.247-.038.344-.057l.6.054.077-.023c.3-.091.662-.164,1.045-.242a8.3,8.3,0,0,0,1.681-.458l.187-.085.06-.259a1.478,1.478,0,0,1,.1-.34l.207-.154Z" fill="#267f98"/>
      </g>
      <g id="Group_452" data-name="Group 452">
        <path id="Path_342" data-name="Path 342" d="M829.1,14369.7c-.39.119-.856-.016-1.2.09-.291.089-.625.007-.884.086-.416.127-.967.007-1.368.13l-.69.009a7,7,0,0,0-1.743.135l-.518.008a7.05,7.05,0,0,1-.916.05,12.106,12.106,0,0,0-1.795.172l-3.453.048a10.432,10.432,0,0,1-2.574-.074c-.317-.082-.7.05-.983-.022l-1.007.014c-.635-.167-1.393-.106-1.992-.267a2.82,2.82,0,0,0-1.113.089,1.543,1.543,0,0,1-.354-.068l-.921.014a10.229,10.229,0,0,1-2.822-.22c-.456-.128-.871-.025-1.288-.166-.386-.13-.871-.346-1.24-.5l-.173,0c-.1-.042-.23-.176-.343-.216l-.2,0c-.067-.023-.153-.121-.219-.144l-.374,0c-.071-.024-.168-.118-.248-.145l-.316.006-.2-.256a.424.424,0,0,0-.375.006c-.4,0-.272-.192-.495-.288l-.542.045c-.11-.043-.185-.246-.294-.291l-.341.042-.132-.146c-.217-.122-.5,0-.733-.1a5.973,5.973,0,0,0-.573-.213c-.423-.128-.783-.1-1.21-.24-1.843-.592-3.756-.936-5.524-1.617-.524-.2-1.028-.24-1.524-.457-.248-.108-.558-.137-.836-.246-.31-.122-.685-.281-1-.391-.2-.068-.511.085-.69.009-.123-.052-.17-.247-.27-.327s-.808-.327-.971-.171c-.51,0-.579-.6-.955-.76a.127.127,0,0,0-.173,0,.51.51,0,0,1-.325-.069.719.719,0,0,1,.007-.184l.365-.079c.032-.029.026-.125.069-.147.087-.049.19.016.255-.041.145-.129.187-.429.371-.521s.593-.256.633-.488a3.566,3.566,0,0,1,.168.44c.385-.009.512-.2.771-.306.221-.092.467-.074.635-.229.095-.087.18-.249.278-.336.444-.4.895-.7,1.308-1.122.115-.119.292-.426.4-.521l.255-.04c.052-.031.051-.146.093-.186.077-.073.182-.013.279-.078l.313-.52c.143-.1.52.139.728.063.19-.068.233-.392.371-.521a1.836,1.836,0,0,1,.352-.189,3.481,3.481,0,0,1,.472-.153l.4-.006a6.621,6.621,0,0,0,1.344-.57,12.169,12.169,0,0,0,1.476-1.162l1.208-.753a4.593,4.593,0,0,1,.548-.487c.5-.308,1-.611,1.478-.9a3.063,3.063,0,0,0,.463-.227c.523-.447.892-1.19,1.419-1.64.31-.265.707-.369,1.024-.6a30.591,30.591,0,0,1,2.9-1.771l.472-.154c.411-.191.859-.419,1.249-.644l.771-.306c.046-.026.109-.125.155-.148.205-.109.43-.06.612-.193.05-.037.024-.147.064-.185a1.63,1.63,0,0,1,.41-.19c.384-.178.765-.247,1.127-.457.133-.077.291-.239.426-.3l.748-.01a1.432,1.432,0,0,0,.381-.19l.167-.3.226-.04c.041-.025.037-.122.068-.149l.39-.115c.162-.074.377-.2.545-.266.288-.108.734.061.95-.013.108-.037.221-.181.348-.227l1.093-.015c.06-.026.168-.125.242-.151l.431-.006a3.037,3.037,0,0,0,.328-.151,2.807,2.807,0,0,0,1.116-1.525c.1-.281-.072-.671-.04-1.067a2.569,2.569,0,0,0-.1-1.323l-.427-.437c-.083-.121-.083-.3-.167-.438l-.194-.183-.127-1.064-.128-.109-.167-.439-.626-.654-.1-.366-.393-.4-.068-.33-1.122-1.2-.106-.4c-.124-.025-.317.08-.46.006-.1-.049-.137-.2-.261-.254a4.5,4.5,0,0,0-.978.015l-.2.3c-.131.073-.263-.087-.374,0-.223.117-.156.323-.218.593l-.318.483.011.331-.347.482a3.378,3.378,0,0,0,.086.479l-.411.668-.254.041c-.1.065-.157.382-.377.226-.372.018-.606.035-.779-.247l-.8.048-.206-.034c-.1.043-.188.2-.372.264l-1.18.016c-.022,0-.115-.063-.177-.034l-.2.3-.2,0-.171.26-.254.04c-.053.041-.077.15-.151.187l-.4.042-.1.149a.89.89,0,0,1-.653.082c-.187-.046-.445.07-.547.008-.368.015-.249.188-.426.3l-.431.006c-.044.028-.033.145-.065.186-.062.08-.152.024-.25.077s-.117.218-.2.26l-.431.006-.171.26c-.14.065-.269-.083-.35-.032-.117.044-.072.086-.122.187-.271.291-.95.219-1.238.5-.148-.034-.177-.133-.285-.217-.076-.694-.145-1.46-.233-2.206a2.64,2.64,0,0,0-.167-.918c.046-.271.237-.374.263-.7a2.287,2.287,0,0,0-.191-.881l-.1-.883-.232-.254-.068-.331-.161-.145-.068-.33a3.257,3.257,0,0,0-.225-.439c-.153-.237-.426-.351-.612-.544a8.2,8.2,0,0,0-.539-.654,3.525,3.525,0,0,1-.442-.325l-.762-.836c-.118-.09-.25-.088-.367-.179-.3-.236-.54-.8-.89-.945-.26-.187-.477.124-.749.011l-.2-.219-.3-.069c-.157-.112-.236-.357-.426-.436l-.005-.037-.6.009-.171.26c-.115.059-.182-.011-.25.077-.026.068.006.263-.018.332-.076.183-.372-.009-.538.081-.086.046-.149.246-.282.3-.341.134-.962-.2-1.107-.095-.173.093-.133.4-.218.592a3.077,3.077,0,0,1-.6.782,2.77,2.77,0,0,0-.211.408c.108.679.573.58.76,1.057.072.183-.032.263.052.441l.161.145.122.293.2.218.051.184.393.4c.071.106.084.224.155.329a3.824,3.824,0,0,0,.625.654,4.019,4.019,0,0,1,.481.656,2.177,2.177,0,0,0,.48.4l.3.364.21.071.3.363.21.071c.178.133.362.372.55.507s.319.108.516.214c.137.074.256.222.433.253.089.359.273.351.326.8a2.446,2.446,0,0,1,1.289.9c.075.15.007.464.131.624a1.876,1.876,0,0,0,1.094-.017.405.405,0,0,1,.268.07c0,.319-.152.14-.315.262l-.045.111a.611.611,0,0,1-.567.082c-.2-.045-.177.217-.31.3l-.378-.032c-.087.042-.079.2-.143.26-.124.114-.276-.067-.431.007-.1.047-.125.253-.224.3-.212.1-.85-.177-1.007.014a.331.331,0,0,0,.006.294,2.121,2.121,0,0,1-1.043.2,3.576,3.576,0,0,0-.379-.032c-.127.04-.123.242-.224.3l-.172,0c-.255.123-.581.3-.844.417-.177.08-.347.032-.534.118a11.952,11.952,0,0,1-1.23.569c-.128.041-.371-.125-.522-.029-.077.049-.094.219-.2.26l-.493-.028c-.107.049-.14.242-.224.3l-.551-.029c-.111.05-.125.248-.224.3l-1.961-.01-.2.3c-.235.123-.615-.129-.81-.026l-.118.224-.274.114c-.063.063-.52-.18-.635-.249a1.771,1.771,0,0,0-1.4.093c-.073.072-.064.189-.109.3l-.151.186a3.393,3.393,0,0,0,.229,1.691l.048.4a11.921,11.921,0,0,0,1.716,3.29,6.024,6.024,0,0,0,.7,1.058c-.015.087,0,.06-.045.111.068.322.291.33.411.546l.1.33c.1.155.217.088.367.179.241.147.384.579.658.69.171.124.365-.12.576-.009l.2.256a3.057,3.057,0,0,0,.777-.012c.27-.049.06-.249.145-.479l.3-.373a.337.337,0,0,0-.207-.291c.024-.3.69-.709.478-1.075l-.083-.7.175-.223a5.319,5.319,0,0,1,.489-.743c.48-.533.641-1.462,1.183-1.931.21-.184.4-.3.6-.487l.269-.409c.175-.13.32-.032.368-.3.08.033.079.036.128.109.252-.019.183-.16.315-.263l.254-.041.46-.741.279-.078.015-.111.415-.631c.206,0,.365.067.485-.044l.147-.224.349.032c.17-.09.181-.424.371-.521.114-.106.395-.012.576-.008l.341-.521.279-.077c.049-.059.039-.191.118-.223.17-.065.541.13.753.025l.146-.223.328-.151.122-.186.379.031c.083-.054.06-.2.17-.26.152-.134.415.114.6-.009l.113-.259c.118-.09.234.088.379.031.126-.05.162-.286.277-.335s.393.129.551.029l.171-.261.2,0,.094-.185.327-.152.094-.186c.212-.178.382.214.573-.266a2.81,2.81,0,0,0,.749-.011.237.237,0,0,0,.164-.076,1.664,1.664,0,0,1-.02-.4c.221-.119.6.08.806-.013.1-.042.1-.211.171-.26l.283-.041.143-.259.378.031c.028-.011.054-.059.106-.075a1.484,1.484,0,0,0-.006-.294,3.806,3.806,0,0,0,.525-.192l.7.027c.137-.064.157-.321.269-.408l.476-.117c.263-.1.594-.206.857-.307.579-.223.988-.03,1.117-.789.183.008.179.069.281.181l.017.147c-.106.153-.36.706-.517.743l-.3-.069c-.213.084-.08.3-.483.3a2.466,2.466,0,0,1,.039.331l-.318.483c-.044.11.022.227-.014.367l-.1.112-.107.554c-.152.374-.513.588-.664.967-.121,0-.274-.021-.307.077l.026.222c-.017.039-.556.539-.621.6-.868.784-1.827,1.482-2.7,2.247-.34.3-.73.457-1.064.751-.624.551-1.248,1.137-1.876,1.683-.373.325-.8.5-1.17.827-.49.437-.956.948-1.45,1.382-.653.574-1.37,1.009-2,1.611-.291.279-.575.625-.873.9-.211.19-.431.32-.63.523-.086.088-.157.256-.248.335-.058.05-.155-.01-.226.04l-.265.446c-.145.154-.317.23-.474.374l-.122.186-.255.04-.142.261c-.057.06-.128.055-.188.112-.145.142-.235.359-.4.484a1.71,1.71,0,0,1-.323.188l-.2,0c-.085.072.033.353-.034.441-.119.158-.281-.069-.456.043l-.093.187-.3.113c-.155.145-.288.628-.459.743l-.23,0-.142.26-.379-.03a9.519,9.519,0,0,1-.883,1.3c-.147.13-.381-.088-.576.008l-.146.224c-.106.1-.272.069-.352.188-.091.134-.093.3-.245.372-.069.069-.2.03-.263-.033-.346.094-.361.609-.6.818-.064.057-.17-.01-.254.041l-.22.334-.4.3-.362.594c-.176.16-.285.027-.4.3l-1.439.021c-.095-.05-.111-.2-.232-.254a.127.127,0,0,0-.173,0,.394.394,0,0,1-.4-.252c-.184,0-.351.036-.572.045a2.526,2.526,0,0,0-.492-.509c-.2-.143-.732-.026-.983-.023h-2.594c-.117.045-.2.18-.286.261a7.74,7.74,0,0,0,.8,3.341l.139,1.176.179,1.507c.026.078.12.188.145.256l.127,1.065c.066.2.23.482.308.658.068.153.031.284.106.4a4.574,4.574,0,0,0,.506.619c.039.035.1.022.123.072a2.5,2.5,0,0,1,.068.331,1,1,0,0,1,.7.542,1.031,1.031,0,0,0,.341-.042c.242.055.557.512,1.046.316a4.709,4.709,0,0,0,.426-.3l.287,0c.147-.059.341-.234.483-.3a4.761,4.761,0,0,1,.612-.192l.2,0c.047-.024.04-.119.069-.147.127-.131.3-.028.476-.117l.1-.149c.19-.118.513-.034.735-.121s.58-.248.795-.342l.461-.007c.07-.025.157-.125.212-.15s.785-.089.8-.085l.038.074c.107.029.264-.122.356-.153l1.036-.014c.565.154,1.184.293,1.726.454l1.029.17c2.274.76,4.515,1.339,6.72,2.226.473.19.951.494,1.411.717,1,.485,1.986.766,2.972,1.246,1.2.586,2.423,1.234,3.618,1.828.514.255,1,.39,1.517.642.708.346,1.457.7,2.223,1,.223.087.78.3.976.207l.146-.224c.182-.14.3-.034.368-.3l.662-.01c.089.054.143.248.265.291.063.022.125-.035.139-.039a.377.377,0,0,1,.177.035l.485-.044,1.727-.024.349.032c.12-.049.108-.24.2-.3l.921-.013c.454-.009.273-.16.487-.266l.551.03.171-.261c.063-.056.174.013.255-.04s.1-.266.224-.3a4.193,4.193,0,0,1,.493.029l1.7-.022c.169,0,.78-.077.859-.049.114.039.19.245.294.289l1.208-.017a3.33,3.33,0,0,0,.725-.452,2.412,2.412,0,0,1,.293-.444c.247-.236.608-.439.676-.857.047-.147-.142-.506-.087-.735.018-.071.129-.088.156-.148l.013-.369.147-.223-.01-.331c.009-.036.1-.05.106-.075l-.07-.588a1.614,1.614,0,0,1,.089-.223c.323-.112.91-.03,1.154-.236.214-.182.14-.669.446-.854.145-.087.4.032.571-.045.051-.021.126-.127.184-.149.18-.069.359.022.481-.08.227-.192.458-.386.678-.6.114-.108.172-.31.331-.372l.662-.01c.118-.046.214-.188.314-.262a4.1,4.1,0,0,1,.57-.3l.369-.042c.051-.023.126-.128.184-.15l.231,0c.08-.037.164-.176.232-.225l.279-.077.265-.446c.115-.1.265.041.378.032.04,0,.2-.217.229-.262h.028l0-.037A5.188,5.188,0,0,0,829.1,14369.7Z" fill="#267f98" fill-rule="evenodd"/>
      </g>
    </g>
    <g id="Group_455" data-name="Group 455">
      <g id="Group_454" data-name="Group 454">
        <path id="Path_343" data-name="Path 343" d="M709.706,14402.721l5.879-8.559h-2.83c-1.264,0-1.373.028-1.731.48a3.676,3.676,0,0,0-.659,1.307h-.289l.289-2.089h6.759v.3l-5.8,8.49H714.1c1.428,0,1.84-.123,2.239-.6a5.024,5.024,0,0,0,.728-1.441h.3l-.3,2.348h-7.363Z" fill="#267f98"/>
        <path id="Path_344" data-name="Path 344" d="M720.258,14398.366h.028a2.336,2.336,0,0,1,1.964-1.126,1.956,1.956,0,0,1,1.36.453c.4.356.481.715.481,1.854v1.524c0,1.085.014,1.153.1,1.3.11.207.3.275.728.275h.11v.3h-2.843v-.3h.137c.659,0,.81-.151.81-.865v-2.363c0-1.374-.275-1.771-1.25-1.771a1.954,1.954,0,0,0-1.621,1.209v2.211c0,1.1.014,1.153.1,1.3.11.207.3.275.729.275h.041v.3h-2.789v-.3h.151c.66,0,.81-.151.81-.865v-6.2c0-1.1-.109-1.276-.81-1.276h-.1v-.3h.068a7.056,7.056,0,0,0,1.223-.151,1.806,1.806,0,0,0,.44-.138h.137Z" fill="#267f98"/>
        <path id="Path_345" data-name="Path 345" d="M728.75,14397.24a2.967,2.967,0,0,1,0,5.934,2.967,2.967,0,0,1,0-5.934Zm0,5.632c1.264,0,1.813-.824,1.813-2.638s-.577-2.679-1.813-2.679-1.8.853-1.8,2.679S727.5,14402.872,728.75,14402.872Z" fill="#267f98"/>
        <path id="Path_346" data-name="Path 346" d="M734.26,14397.24a4.2,4.2,0,0,1,.179,1.14,2.779,2.779,0,0,1,2.115-1.14,1.57,1.57,0,0,1,1.608.934,2.081,2.081,0,0,1,.123.632v2.267c0,1.085.014,1.153.1,1.3.11.207.3.275.729.275h.082v.3h-2.816v-.3h.137c.66,0,.811-.151.811-.865v-2.954a1.049,1.049,0,0,0-1.141-1.167,2.188,2.188,0,0,0-1.744,1.167v2.239c0,1.1,0,1.153.1,1.3.11.207.3.275.728.275h.082v.3H732.57v-.3h.1c.659,0,.81-.151.81-.865v-2.349c0-1.1,0-1.169-.082-1.319-.124-.192-.3-.261-.728-.261h-.1v-.3a7.107,7.107,0,0,0,1.374-.274l.138-.041Z" fill="#267f98"/>
        <path id="Path_347" data-name="Path 347" d="M742.642,14402.474c1.278.082,1.868.233,2.294.646a1.745,1.745,0,0,1,.494,1.2c0,1.277-1.03,2.02-2.816,2.02-1.621,0-2.747-.687-2.747-1.7a.833.833,0,0,1,.824-.934.612.612,0,0,1,.206.041,1.335,1.335,0,0,0-.426.989c0,.8.866,1.332,2.171,1.332s2.116-.521,2.116-1.4a1.147,1.147,0,0,0-.372-.853c-.357-.289-.7-.356-1.868-.412a4.282,4.282,0,0,1-1.868-.343.884.884,0,0,1-.426-.742c0-.576.426-.976,1.223-1.112a2.264,2.264,0,0,1-1.278-1.909,2.114,2.114,0,0,1,2.225-2.047,2.51,2.51,0,0,1,1.8.7,1.552,1.552,0,0,1,1.168-.646.618.618,0,0,1,.659.563.408.408,0,0,1-.4.438.451.451,0,0,1-.385-.273c-.137-.221-.178-.262-.316-.262a.915.915,0,0,0-.563.357,2.159,2.159,0,0,1,.357,1.168,2,2,0,0,1-1.332,1.9,3.18,3.18,0,0,1-1.2.192c-.975.027-1.428.219-1.428.577,0,.33.329.425,1.442.494Zm-.206-1.4c.8,0,1.236-.632,1.236-1.744,0-1.154-.44-1.772-1.25-1.772s-1.25.633-1.25,1.841C741.172,14400.468,741.625,14401.072,742.436,14401.072Z" fill="#267f98"/>
        <path id="Path_348" data-name="Path 348" d="M746.49,14401.319h.261q.453,1.567,1.648,1.566a.95.95,0,0,0,.99-.976c0-.577-.261-.853-1.333-1.373-.851-.426-1.126-.632-1.36-1.059a1.392,1.392,0,0,1-.192-.741,1.488,1.488,0,0,1,2.665-.92,1.623,1.623,0,0,0,.261-.481h.247v1.7h-.247a1.661,1.661,0,0,0-1.415-1.5.848.848,0,0,0-.907.824c0,.5.289.769,1.291,1.235a2.881,2.881,0,0,1,1.347.922,1.89,1.89,0,0,1,.316,1.016,1.588,1.588,0,0,1-1.663,1.635,1.736,1.736,0,0,1-1.36-.618,1.689,1.689,0,0,0-.288.563h-.261Z" fill="#267f98"/>
        <path id="Path_349" data-name="Path 349" d="M752.742,14398.366h.027a2.337,2.337,0,0,1,1.964-1.126,1.959,1.959,0,0,1,1.361.453c.4.356.481.715.481,1.854v1.524c0,1.085.013,1.153.095,1.3.111.207.3.275.729.275h.109v.3h-2.843v-.3h.137c.66,0,.811-.151.811-.865v-2.363c0-1.374-.275-1.771-1.25-1.771a1.952,1.952,0,0,0-1.621,1.209v2.211c0,1.1.013,1.153.1,1.3.11.207.3.275.728.275h.041v.3h-2.788v-.3h.151c.659,0,.81-.151.81-.865v-6.2c0-1.1-.11-1.276-.81-1.276h-.1v-.3h.069a7.055,7.055,0,0,0,1.223-.151,1.785,1.785,0,0,0,.439-.138h.138Z" fill="#267f98"/>
        <path id="Path_350" data-name="Path 350" d="M764.1,14401.952a1.081,1.081,0,0,1-1.112,1.14,1,1,0,0,1-1.086-.962,3.967,3.967,0,0,1-2.211.962,1.243,1.243,0,0,1-1.36-1.14,1.64,1.64,0,0,1,.92-1.415,9.665,9.665,0,0,1,1.608-.825l1.043-.425v-.275c0-1.112-.3-1.483-1.263-1.483-.646,0-1.045.22-1.113.6l-.028.151c-.068.4-.261.6-.563.6a.39.39,0,0,1-.4-.4c0-.659,1.03-1.25,2.2-1.25,1.1,0,1.8.356,2.048,1.029a2.516,2.516,0,0,1,.082.894v2.706c0,.5.137.728.44.728.274,0,.466-.232.549-.645Zm-2.939-2.047c-1.14.467-1.717,1.058-1.717,1.758,0,.577.316.948.81.948a3.112,3.112,0,0,0,1.648-.838v-2.172Z" fill="#267f98"/>
        <path id="Path_351" data-name="Path 351" d="M766.318,14397.24a4.2,4.2,0,0,1,.178,1.14,2.781,2.781,0,0,1,2.116-1.14,1.569,1.569,0,0,1,1.607.934,2.052,2.052,0,0,1,.124.632v2.267c0,1.085.014,1.153.1,1.3.11.207.3.275.728.275h.083v.3h-2.817v-.3h.138c.659,0,.81-.151.81-.865v-2.954a1.049,1.049,0,0,0-1.14-1.167,2.188,2.188,0,0,0-1.745,1.167v2.239c0,1.1,0,1.153.1,1.3.109.207.3.275.728.275h.082v.3h-2.775v-.3h.1c.66,0,.811-.151.811-.865v-2.349c0-1.1,0-1.169-.082-1.319-.124-.192-.3-.261-.729-.261h-.1v-.3a7.123,7.123,0,0,0,1.374-.274l.137-.041Z" fill="#267f98"/>
        <path id="Path_352" data-name="Path 352" d="M778.588,14399.6l-.233.577-.275.66a2.889,2.889,0,0,0-.247.976.843.843,0,0,0,.934.838h.055v.3h-2.706v-.3a1.425,1.425,0,0,0,1.044-.6,2.678,2.678,0,0,0,.274-.509c.055-.123.151-.356.289-.714q.061-.145.33-.783l2.637-6.319h.261l3.049,7.24.275.646c.33.782.536.962,1.237,1.044v.3h-3.585v-.3h.384c.467,0,.742-.179.742-.5a1.305,1.305,0,0,0-.151-.494l-.165-.385-.687-1.677Zm1.731-4.176-1.594,3.874h3.2Z" fill="#267f98"/>
        <path id="Path_353" data-name="Path 353" d="M787.493,14397.24a4.11,4.11,0,0,1,.192,1.4h.027a2.082,2.082,0,0,1,1.772-1.4.913.913,0,0,1,.907.838.449.449,0,0,1-.439.467c-.248,0-.385-.124-.509-.5-.082-.232-.192-.33-.371-.33a1.26,1.26,0,0,0-.755.469,2.282,2.282,0,0,0-.563,1.9v.988c0,1.085,0,1.153.095,1.3.11.207.3.275.715.275h.192v.3h-2.912v-.3h.137c.66,0,.811-.151.811-.865v-2.268c0-1.1-.014-1.168-.1-1.318-.11-.192-.3-.261-.715-.261h-.137v-.3a11.912,11.912,0,0,0,1.552-.371Z" fill="#267f98"/>
        <path id="Path_354" data-name="Path 354" d="M792.549,14397.762v3.324c0,1.25.193,1.621.824,1.621a1.033,1.033,0,0,0,.838-.55l.207.125a1.583,1.583,0,0,1-1.429.892,1.36,1.36,0,0,1-1.2-.673,3.132,3.132,0,0,1-.206-1.621v-3.118h-.8v-.3c.81-.041,1.373-.659,1.538-1.717h.22v1.717h1.662v.3Z" fill="#267f98"/>
        <path id="Path_355" data-name="Path 355" d="M808.706,14393.86h2.8v.3h-.344c-.755,0-.934.056-1.071.3s-.151.453-.151,1.662v4.465c0,1.938.068,2.061,1.154,2.061h.412v.3h-4.355v-.3h.316c1.085,0,1.154-.123,1.154-2.061v-5.8H808.6l-3.571,8.159h-.316l-3.6-8.159h-.028v5.33c0,1.5.028,1.675.344,2.046a1.5,1.5,0,0,0,1.112.481v.3H799.3v-.3a1.455,1.455,0,0,0,1.141-.522c.288-.371.329-.577.329-2.046v-3.957c0-1.209-.027-1.415-.165-1.662s-.316-.3-1.058-.3H799.3v-.3h2.761l3.339,7.527Z" fill="#267f98"/>
        <path id="Path_356" data-name="Path 356" d="M818.065,14401.952a1.082,1.082,0,0,1-1.113,1.14,1,1,0,0,1-1.085-.962,3.97,3.97,0,0,1-2.212.962,1.243,1.243,0,0,1-1.36-1.14,1.641,1.641,0,0,1,.921-1.415,9.65,9.65,0,0,1,1.607-.825l1.044-.425v-.275c0-1.112-.3-1.483-1.264-1.483-.646,0-1.044.22-1.113.6l-.027.151c-.069.4-.261.6-.563.6a.39.39,0,0,1-.4-.4c0-.659,1.03-1.25,2.2-1.25,1.1,0,1.8.356,2.047,1.029a2.49,2.49,0,0,1,.082.894v2.706c0,.5.138.728.44.728.275,0,.467-.232.55-.645Zm-2.94-2.047c-1.14.467-1.717,1.058-1.717,1.758,0,.577.316.948.81.948a3.11,3.11,0,0,0,1.649-.838v-2.172Z" fill="#267f98"/>
        <path id="Path_357" data-name="Path 357" d="M820.278,14397.24a4.231,4.231,0,0,1,.179,1.14,2.78,2.78,0,0,1,2.115-1.14,1.568,1.568,0,0,1,1.607.934,2.054,2.054,0,0,1,.124.632v2.267c0,1.085.014,1.153.1,1.3.11.207.3.275.728.275h.083v.3h-2.816v-.3h.137c.66,0,.81-.151.81-.865v-2.954a1.048,1.048,0,0,0-1.14-1.167,2.188,2.188,0,0,0-1.744,1.167v2.239c0,1.1,0,1.153.1,1.3.11.207.3.275.728.275h.082v.3h-2.775v-.3h.1c.66,0,.811-.151.811-.865v-2.349c0-1.1,0-1.169-.082-1.319-.124-.192-.3-.261-.729-.261h-.1v-.3a7.107,7.107,0,0,0,1.374-.274l.137-.041Z" fill="#267f98"/>
        <path id="Path_358" data-name="Path 358" d="M826.063,14401.319h.261q.455,1.567,1.649,1.566a.949.949,0,0,0,.989-.976c0-.577-.261-.853-1.332-1.373-.852-.426-1.127-.632-1.36-1.059a1.384,1.384,0,0,1-.193-.741,1.488,1.488,0,0,1,2.665-.92,1.62,1.62,0,0,0,.262-.481h.247v1.7H829a1.662,1.662,0,0,0-1.415-1.5.848.848,0,0,0-.907.824c0,.5.288.769,1.291,1.235a2.876,2.876,0,0,1,1.346.922,1.881,1.881,0,0,1,.316,1.016,1.587,1.587,0,0,1-1.662,1.635,1.735,1.735,0,0,1-1.36-.618,1.672,1.672,0,0,0-.289.563h-.261Z" fill="#267f98"/>
        <path id="Path_359" data-name="Path 359" d="M832.288,14401.072c0,1.085.014,1.153.1,1.3.11.207.3.275.714.275h.151v.3h-2.967v-.3h.233c.66,0,.811-.151.811-.865v-2.377c0-1.4-.055-1.511-.852-1.511h-.192v-.3a9.275,9.275,0,0,0,1.854-.356h.152Zm-.591-7.35a.7.7,0,0,1,.687.714.694.694,0,1,1-1.388,0A.7.7,0,0,1,831.7,14393.723Z" fill="#267f98"/>
        <path id="Path_360" data-name="Path 360" d="M836.946,14397.24a2.967,2.967,0,1,1-2.927,2.953A2.886,2.886,0,0,1,836.946,14397.24Zm0,5.632c1.263,0,1.813-.824,1.813-2.638s-.577-2.679-1.813-2.679-1.8.853-1.8,2.679S835.7,14402.872,836.946,14402.872Z" fill="#267f98"/>
        <path id="Path_361" data-name="Path 361" d="M842.456,14397.24a4.233,4.233,0,0,1,.179,1.14,2.779,2.779,0,0,1,2.115-1.14,1.567,1.567,0,0,1,1.607.934,2.052,2.052,0,0,1,.124.632v2.267c0,1.085.014,1.153.1,1.3.11.207.3.275.729.275h.082v.3h-2.816v-.3h.137c.66,0,.81-.151.81-.865v-2.954a1.048,1.048,0,0,0-1.14-1.167,2.188,2.188,0,0,0-1.744,1.167v2.239c0,1.1,0,1.153.1,1.3.11.207.3.275.728.275h.082v.3h-2.775v-.3h.1c.66,0,.811-.151.811-.865v-2.349c0-1.1,0-1.169-.082-1.319-.124-.192-.3-.261-.729-.261h-.1v-.3a7.108,7.108,0,0,0,1.374-.274l.137-.041Z" fill="#267f98"/>
      </g>
    </g>
  </g>
</svg>
