<svg width="331" height="96" viewBox="0 0 331 96" fill="none" xmlns="http://www.w3.org/2000/svg">
<path d="M83.6617 24.9291V94.492H73.6759V43.2258C70.5813 47.6475 67.0878 51.7693 62.9935 55.4897L60.1967 52.3742C70.2835 38.6008 77.0736 14.5763 79.7695 0L90.9517 2.61229C89.2555 9.44813 86.9584 17.1886 83.6617 24.9291ZM150.462 58.3054V63.3319H123.302V94.492H112.816V63.3319H86.7563V58.3054H112.816V42.4229H90.5475V37.3964H112.816V1.30614H123.302V37.3964H146.368V42.4229H123.302V58.3054H150.462ZM99.539 34.8858C97.5397 27.5468 94.4451 17.9969 91.2494 9.75325L94.9449 7.7405C100.539 14.2766 106.627 24.1262 109.424 30.6622L99.539 34.8858ZM129.592 34.3826L126.295 31.9684C129.39 25.534 133.288 14.6781 135.484 6.83584L145.969 11.4609C142.577 18.2967 135.882 28.05 129.592 34.3826Z" fill="white"/>
<path d="M224.957 6.63281V82.1268C224.957 94.3907 214.674 98.4108 195.803 88.5612L196.999 84.3376C213.073 86.9499 214.376 86.0453 214.376 78.7062V56.7909H178.527C176.528 73.38 171.136 85.9436 158.257 95.4934L155.461 92.1745C168.44 77.3947 168.94 57.5938 168.94 35.4804V6.63281H224.957ZM214.37 51.5663V34.1796H179.521V36.3904C179.521 41.7167 179.42 46.8449 179.021 51.5716H214.37V51.5663ZM179.521 11.8627V28.9497H214.37V11.8627H179.521Z" fill="white"/>
<path d="M252.213 43.627C248.321 37.7976 244.126 32.7711 240.329 28.4458L242.823 25.0306C248.215 27.7445 254.707 31.9681 259.2 36.288L252.208 43.627H252.213ZM255.01 50.6663L259.206 51.8707C257.111 66.1473 254.011 83.0308 251.618 91.3762L240.733 86.8529C245.328 77.4048 250.82 62.9301 255.01 50.6663ZM255.707 17.7932C251.41 12.467 246.917 7.74021 243.025 3.72008L245.221 0.401188C250.113 2.41393 257.302 6.23066 262.396 10.2508L255.707 17.7879V17.7932ZM258.201 48.7553C260.998 45.34 263.39 41.1165 264.789 36.7912L267.782 37.5942C267.485 42.519 266.187 47.7489 264.385 51.9671L258.195 48.7499L258.201 48.7553ZM263.89 17.092C265.687 12.0655 267.086 6.03259 268.085 1.00608L275.673 3.21689C273.179 8.64488 270.579 13.468 268.186 16.9903C269.686 16.8886 271.281 16.7869 272.781 16.5888C273.977 14.1746 275.078 11.7657 275.976 9.35148L281.666 12.0655V9.45319H294.645C291.848 7.03897 289.253 5.22964 286.558 3.42031L287.855 0.203125C291.55 1.10779 296.044 2.61735 300.638 5.22964L297.942 9.45319H307.63V13.7731H281.969C278.172 19.806 273.583 25.3357 269.989 29.0507C272.387 28.7509 274.684 28.3494 277.077 27.7446L275.577 24.5274L278.172 23.1195C281.07 25.8335 283.367 29.2541 284.962 32.4659L279.571 34.8802C279.172 33.574 278.773 32.2679 278.273 30.9617C273.179 33.574 267.49 35.5868 262.098 36.6895L260.099 29.8537L265.294 29.5539C266.889 27.2414 268.591 24.5274 270.287 21.61C267.192 22.6163 264.395 23.3176 261.997 23.7191L260.599 16.9849C261.699 16.9849 262.795 17.0866 263.895 17.0866L263.89 17.092ZM276.572 71.1738H327.197C326.596 76.4037 325.602 81.3285 324.204 85.8519C321.109 96.9113 310.023 97.1093 295.246 87.961L296.644 84.1389C311.022 88.0573 313.218 87.7576 314.718 83.4376C315.319 81.6283 316.015 78.6145 316.414 75.9969H274.673C273.775 78.2077 272.876 80.4185 271.978 82.4313L262.694 80.3222C265.592 74.5944 269.585 64.4397 271.281 58.4068L279.47 61.624H313.521V56.5975H266.889V51.7744H322.906V66.249H278.47L276.572 71.1738ZM272.376 36.4914C274.275 40.4099 275.673 44.9332 276.572 48.4555L270.18 49.6599C270.18 45.4364 269.883 41.3145 269.383 37.1927L272.376 36.4914ZM278.965 47.6472C277.965 43.7287 276.667 39.7033 275.168 35.8865L277.864 34.5804C280.661 37.5942 283.256 41.5179 285.053 45.1366L278.959 47.6472H278.965ZM304.429 21.4119H284.957V17.1883H304.429V21.4119ZM304.429 29.1524H284.957V24.9288H304.429V29.1524ZM304.626 48.0487H285.255V32.6694H304.626V48.0487ZM298.234 36.6895H291.444V44.0285H298.234V36.6895ZM305.125 48.5518C307.422 45.1312 309.22 41.1111 310.416 36.8929L313.511 37.4978C313.213 42.5243 312.612 46.7479 310.916 51.1695L305.125 48.5572V48.5518ZM309.018 16.6852C310.815 11.6586 312.314 5.52941 313.112 0.29948L320.503 2.40858C318.605 6.9319 315.51 12.7614 313.112 16.6852C314.611 16.5834 316.106 16.5834 317.807 16.3854C319.003 13.7731 320.104 11.1555 321.104 8.54317L328.192 11.7604C324.496 18.2964 319.402 24.7308 315.51 28.949C318.004 28.6492 320.301 28.3441 322.699 27.8409C322.002 26.4331 321.402 25.0252 320.7 23.8208L323.199 22.4129C326.192 25.1269 329.388 29.8536 330.989 33.3706L325.698 35.9829C325.299 34.4733 324.698 32.664 323.901 30.8547C318.706 33.5687 312.617 35.1799 307.226 36.5824L305.428 29.5432C307.327 29.5432 309.023 29.4415 310.719 29.3398C312.415 27.0272 314.117 24.0135 315.712 20.7963C312.718 21.8027 310.118 22.3059 307.523 22.7073L306.125 16.5781C307.125 16.6798 308.124 16.6798 309.023 16.6798L309.018 16.6852ZM315.909 49.6599C315.808 45.7415 315.611 41.3145 315.01 36.9946L317.908 36.1917C319.907 40.2118 321.402 44.8368 322.103 48.2521L315.914 49.6599H315.909ZM330.489 44.8368L324.895 47.7542C323.699 44.0339 321.997 39.6123 320.2 35.8919L322.598 34.5857C325.496 37.2997 328.489 41.1218 330.483 44.8368H330.489Z" fill="white"/>
<path d="M20.514 15.8882V13.4365L0.00532913 13.4365V15.8882L20.514 15.8882Z" fill="#BC976C"/>
<path d="M45.8879 15.8931V13.4414L25.3793 13.4414V15.8931L45.8879 15.8931Z" fill="#BC976C"/>
<path d="M20.5087 21.1441V18.6924H1.52588e-05V21.1441H20.5087Z" fill="#BC976C"/>
<path d="M45.8826 21.1441V18.6924H25.374V21.1441H45.8826Z" fill="#BC976C"/>
<path d="M20.5087 26.396V23.9443H1.52588e-05V26.396H20.5087Z" fill="#BC976C"/>
<path d="M45.8826 26.396V23.9443H25.374V26.396H45.8826Z" fill="#BC976C"/>
<path d="M20.5087 31.647V29.1953H1.52588e-05V31.647H20.5087Z" fill="#BC976C"/>
<path d="M45.8826 31.647V29.1953H25.374V31.647H45.8826Z" fill="#BC976C"/>
<path d="M20.5087 36.898V34.4463H1.52588e-05V36.898H20.5087Z" fill="#BC976C"/>
<path d="M45.8826 36.898V34.4463H25.374V36.898H45.8826Z" fill="#BC976C"/>
<path d="M20.5087 42.1499V39.6982H1.52588e-05V42.1499H20.5087Z" fill="#BC976C"/>
<path d="M45.8826 42.1499V39.6982H25.374V42.1499H45.8826Z" fill="#BC976C"/>
<path d="M20.514 47.4009V44.9492H0.00532913V47.4009H20.514Z" fill="#BC976C"/>
<path d="M45.8826 47.4009V44.9492H25.374V47.4009H45.8826Z" fill="#BC976C"/>
<path d="M20.514 52.6529V50.2012H0.00532913V52.6529H20.514Z" fill="#BC976C"/>
<path d="M45.8826 52.6529V50.2012H25.374V52.6529H45.8826Z" fill="#BC976C"/>
<path d="M20.514 57.9038V55.4521H0.0053196V57.9038H20.514Z" fill="#BC976C"/>
<path d="M45.8826 57.9087V55.457H25.374V57.9087H45.8826Z" fill="#BC976C"/>
<path d="M20.514 63.1548V60.7031H0.00532913V63.1548H20.514Z" fill="#BC976C"/>
<path d="M45.8826 63.1607V60.709H25.374V63.1607H45.8826Z" fill="#BC976C"/>
<path d="M20.514 68.4068V65.9551H0.00532913V68.4068H20.514Z" fill="#BC976C"/>
<path d="M45.8879 68.4117V65.96H25.3793V68.4117H45.8879Z" fill="#BC976C"/>
<path d="M20.5087 73.6636V71.2119H9.53674e-06V73.6636H20.5087Z" fill="#BC976C"/>
<path d="M45.8826 73.6636V71.2119H25.374V73.6636H45.8826Z" fill="#BC976C"/>
<path d="M20.5087 78.9146V76.4629H1.33514e-05V78.9146H20.5087Z" fill="#BC976C"/>
<path d="M45.8826 78.9146V76.4629H25.374V78.9146H45.8826Z" fill="#BC976C"/>
<path d="M20.5087 84.1656V81.7139H9.53674e-06V84.1656H20.5087Z" fill="#BC976C"/>
<path d="M45.8826 84.1656V81.7139H25.374V84.1656H45.8826Z" fill="#BC976C"/>
<path d="M20.5087 89.4175V86.9658H1.90735e-05V89.4175H20.5087Z" fill="#BC976C"/>
<path d="M45.8826 89.4175V86.9658H25.374V89.4175H45.8826Z" fill="#BC976C"/>
<path d="M45.9783 94.6685V92.2168H-3.43323e-05V94.6685H45.9783Z" fill="#BC976C"/>
<path d="M41.6235 6.7554V4.30371L4.36547 4.30371V6.7554L41.6235 6.7554Z" fill="#BC976C"/>
<path d="M36.3541 11.3863V8.93457L9.36368 8.93457V11.3863L36.3541 11.3863Z" fill="#BC976C"/>
<path d="M4.35486 11.3857H6.79016L6.79016 4.30366H4.35486L4.35486 11.3857Z" fill="#BC976C"/>
<path d="M39.1829 11.3857H41.6182V4.30366H39.1829V11.3857Z" fill="#BC976C"/>
</svg>
