<?xml version="1.0" encoding="utf-8"?>
<!-- Generator: Adobe Illustrator 26.5.0, SVG Export Plug-In . SVG Version: 6.00 Build 0)  -->
<svg version="1.1" id="圖層_1" xmlns="http://www.w3.org/2000/svg" xmlns:xlink="http://www.w3.org/1999/xlink" x="0px" y="0px"
	 viewBox="0 0 855 169" style="enable-background:new 0 0 855 169;" xml:space="preserve">
<style type="text/css">
	.st0{fill:#FFFFFF;}
</style>
<path class="st0" d="M120.8,11.2C137.2,38,60.6,70.2,41.6,79C39,82.1,0.3,151.7,0.9,135.4c11.9-17.1,23.5-35.1,34.6-53.8
	c-3.8,1-10.9,6.6-10.7,0.7c3.9-2.9,9.4-3.9,14-6.4c12.3-21.3,20-37.3,23-48c11.6-8.1-9.7,33.3-16.9,45.4
	c164.7-72.8,7.2-94-13.2-23.7c-0.6,2.4-4.5,1.4-3.7-1C34.4,25.4,55.4,9.9,79.4,4.8C93.2,2.1,111.9,1.5,120.8,11.2z M100,86.2
	C84.7,96.7,79.2,78.9,97.6,75c1.6-0.4,3-1.3,4.5-0.6c1.5,0.7,1.1,3.3-0.5,3.5c-3.3,0.2-18.2,6.7-8.7,7.7c4.9-1.5,12.5-9.8,18.2-4.8
	c6.6,6.5,20.4,1.5,29.2,0.1c3.8,0,13.1-5.8,14.9-2.3c1.3,5.1-35.6,10.8-40.1,8.5C106.7,85.4,108.8,79.9,100,86.2L100,86.2z
	 M155.9,94.5c-0.5,4.2-5.9,7.9-5.5,1.3c0.6-3.8,5.4-29.1,11.8-21.8c12.5-8.3,15.6,14,1.4,13.3c15.5,7.1,34.5-3.8,48.4-10
	c11.5,5.1-51.6,26.9-52.9,9.2C158.1,88.7,157.1,91.3,155.9,94.5L155.9,94.5z M168,76.6c-3.4-2.2-4.8,2-7.8,7.4
	c1.7-1.7,4.4,0.4,6.5-1.1C168.9,81.6,170.5,78.4,168,76.6L168,76.6z M213.3,83c-2.5,5.9-4.3,15.8-8.5,10c-1.9-5.5,6.1-11.6,7.2-17.7
	c7.3-18.8,10.8-39.7,23.8-54.1c21.8-4.7-15.7,48.1-19.2,54.2c3.7-3.3,13.3-5.4,10.6,0.9c-1.2,1.4-8.9,6.8-8.8,7.7
	c11.7,11.6,31.6,1.6,44.5-3.2c4.4-1.4,6.3-3.6,9.4-3.4c1.6,0.6,1.6,2.9,0.1,3.5c-13.5,5.3-35.5,17.3-50,10.2
	c-3.6-2.2-11.6-5.8-5.7-10.9C215.3,81,214.3,81.9,213.3,83z M238.3,24.2c-9.5,8.9-12,23.4-18,38.2C226.9,50.5,239.3,34.4,238.3,24.2
	L238.3,24.2z M415.9,57.4c1.7,0.1,2.1,2.6,0.7,3.4c-1.8,0.8-3.8-0.4-5.9-0.5c-5.1,7.3-11.2,14.3-18.3,21
	c-11.8,12.5-25.1,32.2-32.4,46.6c-4.9,9.3-11.8,25.8-14.5,34c-1.6,3.2-0.5,7.2-4,7c-4-1.6,2.2-11.6,3.9-17.8
	c7.4-19.4,18.4-39.6,31.3-56.9c-12.1,9.1-56.2,29.7-64.8,14.1c-1.1-18.8,21.9-39.5,34.6-54.7c5.8-8.4,88.1-85.1,63.7-37.7
	c-1.5,1.2-7,14.2-10.6,12.1c-0.9-0.6-1-1.8-0.5-2.7c8-11.1,12.1-18.1,12.2-20.9c-26,11.9-85.7,70.1-95.6,98.2
	c-1.6,5.9,1.1,7.8,8.1,7.2c25.9-1.9,51-15.4,70.7-36c4.4-4.6,8.4-9.4,12-14.3c-9.3-0.9-21.1-3.5-29.1,0.4c-1,1-0.5,3.2-2.5,3.1
	c-3.2-0.4-1.8-4.8,0.2-6.1c4.3-3.5,15.6-3.9,34-0.9c1.1-3.7,6-2.8,4.1,0.7C414.1,57,415.1,57.2,415.9,57.4L415.9,57.4z M423.8,94.5
	c-0.5,4.2-5.9,7.9-5.5,1.3c0.6-3.8,5.4-29.1,11.8-21.8c12.5-8.3,15.6,14,1.5,13.3c15.5,7.1,34.5-3.8,48.4-10
	c11.5,5.1-51.6,26.9-52.9,9.2C426,88.7,425,91.3,423.8,94.5L423.8,94.5z M435.9,76.6c-3.4-2.2-4.8,2-7.8,7.4
	c1.7-1.7,4.4,0.4,6.5-1.1C436.8,81.6,438.4,78.4,435.9,76.6L435.9,76.6z M540.3,80.8c-12.2,6.8-28.5,13.8-43.1,14
	c-15,1-27.3-13.4-9.2-19.8c3.7-1.2,10.5-2.4,11.7,1.8c2.1,9.5-5.7,11.3-15.8,9.7C501.8,103.6,548.1,67.4,540.3,80.8L540.3,80.8z
	 M488,79.2c-2.2,1-3.8,2-4.7,3.2c6.5,1.2,10.6,1,12.2-0.8C498.8,76,491.5,77.6,488,79.2L488,79.2z M596.5,80.8
	c-12.2,6.8-28.5,13.8-43.1,14c-15,1-27.3-13.4-9.2-19.8c3.7-1.2,10.5-2.4,11.7,1.8c2.1,9.5-5.7,11.3-15.8,9.7
	C558.1,103.6,604.4,67.4,596.5,80.8L596.5,80.8z M544.3,79.2c-2.2,1-3.8,2-4.7,3.2c6.5,1.2,10.6,1,12.2-0.8
	C555.1,76,547.7,77.6,544.3,79.2L544.3,79.2z M601.2,88.7c-16.3,19.8-7.3-18.6,0.2-13.8c0.6,0.8,0.4,2.1-0.4,2.7
	c-2.4,2-4.2,7.6-5,10.9c5.8-6.9,19.6-21.5,18.1-4.2c6.7,4,24.3-2.6,31-4.5c3.4-0.9,5.2-2.7,7.9-2.4c1.6,0.6,1.4,3,0,3.6
	c-8.2,2.6-46,18.5-42.6-1C609.2,80.4,606.1,83.3,601.2,88.7L601.2,88.7z M711.6,80.8c-12.2,6.8-28.5,13.8-43.1,14
	c-15,1-27.3-13.4-9.2-19.8c3.7-1.2,10.5-2.4,11.7,1.8c2.1,9.5-5.7,11.3-15.8,9.7C673.2,103.6,719.5,67.4,711.6,80.8L711.6,80.8z
	 M659.4,79.2c-2.2,1-3.8,2-4.7,3.2c6.5,1.2,10.6,1,12.2-0.8C670.2,76,662.9,77.6,659.4,79.2L659.4,79.2z M709,94.5
	c-0.5,4.2-5.9,7.9-5.5,1.3c0.6-3.8,5.4-29.1,11.8-21.8c12.5-8.3,15.6,14,1.5,13.3c15.5,7.1,34.5-3.8,48.4-10
	c11.5,5.1-51.6,26.9-52.9,9.2C711.3,88.7,710.2,91.3,709,94.5L709,94.5z M721.2,76.6c-3.4-2.2-4.8,2-7.8,7.4
	c1.7-1.7,4.4,0.4,6.5-1.1C722.1,81.6,723.6,78.4,721.2,76.6L721.2,76.6z M780.3,124.5c-4.3,4.6-13.7,3.9-13.7-3
	c0.6-4.2,8.1-10.1,22.6-17.6c3.2-7.5,8.1-20.9,7.1-27.4c-5,1-14.5,11.1-20.8,13.2c-17.5,4.8-12.4-13.8-0.3-16.2
	c1.7,0.5,1.7,2.8,0.4,3.6c-6.5,2.7-12.7,12.5-0.8,8.8c4.6-1.9,9.1-6.4,13.2-9.2c19.7-14.3,11,15,6.7,24.5
	c15.6-7.6,34.8-15.6,57.5-23.8c1-0.4,2.2,0.1,2.5,1.1c0.4,1-0.3,2.1-1.2,2.5c-23.9,8.7-44.3,17.3-61.3,25.8
	C788.1,115.2,784.2,121.1,780.3,124.5L780.3,124.5z M778.9,120.5c2.4-2.5,4.9-6.1,7.4-10.8c-10.3,5.6-15.6,9.6-15.9,12.2
	C772,124.9,775.8,123.8,778.9,120.5L778.9,120.5z"/>
</svg>
