<svg width="292" height="89" viewBox="0 0 292 89" fill="none" xmlns="http://www.w3.org/2000/svg">
<path d="M15.2401 16.96H5.1001V1.31998H6.5101V15.81H15.2401V16.97V16.96Z" fill="#C6A93E"/>
<path d="M20.1099 16.96V1.31998H21.5199V16.97H20.1099V16.96Z" fill="#C6A93E"/>
<path d="M40.0401 9.64V16.96H38.7701V13.74L38.1601 15.15C37.1201 16.6 35.4601 17.28 33.5801 17.28C29.2701 17.28 26.6001 13.97 26.6001 9.21C26.6001 4.45 29.6101 1 33.9501 1C37.7101 1 39.7301 3.22 40.1601 6.19L40.1801 6.42H38.7701L38.7301 6.19C38.2501 3.81 36.6901 2.13 33.9001 2.13C30.6101 2.13 28.1601 4.87 28.1601 9.14C28.1601 13.41 30.4701 16.15 33.6701 16.15C36.1601 16.15 38.6401 14.34 38.6401 10.8H34.3801V9.64H40.0501H40.0401Z" fill="#C6A93E"/>
<path d="M57.94 16.96H56.53V9.88998H47.37V16.96H45.96V1.31998H47.37V8.68998H56.53V1.31998H57.94V16.97V16.96Z" fill="#C6A93E"/>
<path d="M69.7999 2.46998V16.96H68.3899V2.46998H62.6499V1.31998H75.5299V2.47998H69.7899L69.7999 2.46998Z" fill="#C6A93E"/>
<path d="M80.02 16.96V1.31998H81.43V16.97H80.02V16.96Z" fill="#C6A93E"/>
<path d="M97.1201 16.96L88.9801 2.66998C89.0301 4.59998 89.0501 6.92998 89.0501 8.87998V16.95H87.6401V1.31998H89.7701L97.9301 15.61C97.8901 13.66 97.8601 11.35 97.8601 9.39998V1.31998H99.2401L99.2601 16.97H97.1101L97.1201 16.96Z" fill="#C6A93E"/>
<path d="M117.83 9.64V16.96H116.56V13.74L115.95 15.15C114.91 16.6 113.25 17.28 111.37 17.28C107.06 17.28 104.39 13.97 104.39 9.21C104.39 4.45 107.41 1 111.74 1C115.5 1 117.52 3.22 117.95 6.19L117.97 6.42H116.56L116.52 6.19C116.04 3.81 114.48 2.13 111.69 2.13C108.4 2.13 105.95 4.87 105.95 9.14C105.95 13.41 108.26 16.15 111.46 16.15C113.95 16.15 116.43 14.34 116.43 10.8H112.17V9.64H117.84H117.83Z" fill="#C6A93E"/>
<path d="M150.25 8.99998C150.25 13.94 147.17 16.48 144.1 16.87C143.31 16.96 142.9 16.96 142.1 16.96H137.52V1.31998H142.17C142.99 1.31998 143.35 1.31998 144.05 1.38998C147.23 1.74998 150.24 4.01998 150.24 9.00998L150.25 8.99998ZM148.71 8.99998C148.71 4.98998 146.51 2.91998 143.93 2.55998C143.43 2.48998 142.93 2.48998 142.12 2.48998H138.95V15.78H142.06C142.83 15.78 143.38 15.78 143.99 15.69C146.57 15.3 148.73 13.06 148.73 8.99998H148.71Z" fill="#C6A93E"/>
<path d="M165.77 16.96H155.63V1.31998H165.54V2.47998H157.04V8.55998H164.95V9.73998H157.04V15.82H165.77V16.98V16.96Z" fill="#C6A93E"/>
<path d="M180.64 5.50999H179.17C178.9 3.37999 177.54 2.12999 175.47 2.12999C173.68 2.12999 172.02 3.05999 172.02 4.91999C172.02 6.77999 173.13 7.52999 175.81 8.20999C179.17 9.06999 180.84 10.34 180.84 12.93C180.84 15.52 178.57 17.28 175.58 17.28C172.41 17.28 170.12 15.67 169.78 12.65H171.28C171.67 14.89 173.39 16.14 175.63 16.14C177.69 16.14 179.35 14.96 179.35 13.15C179.35 11.13 178.17 10.27 175.25 9.53999C172.28 8.76999 170.51 7.72999 170.51 5.20999C170.51 2.68999 172.82 0.98999 175.59 0.98999C178.72 0.98999 180.35 2.95999 180.65 5.49999L180.64 5.50999Z" fill="#C6A93E"/>
<path d="M186.29 16.96V1.31998H187.7V16.97H186.29V16.96Z" fill="#C6A93E"/>
<path d="M206.22 9.64V16.96H204.95V13.74L204.34 15.15C203.3 16.6 201.64 17.28 199.76 17.28C195.45 17.28 192.78 13.97 192.78 9.21C192.78 4.45 195.8 1 200.13 1C203.89 1 205.91 3.22 206.34 6.19L206.36 6.42H204.95L204.9 6.19C204.42 3.81 202.86 2.13 200.07 2.13C196.78 2.13 194.33 4.87 194.33 9.14C194.33 13.41 196.64 16.15 199.84 16.15C202.33 16.15 204.81 14.34 204.81 10.8H200.55V9.64H206.22Z" fill="#C6A93E"/>
<path d="M221.62 16.96L213.48 2.66998C213.53 4.59998 213.55 6.92998 213.55 8.87998V16.95H212.14V1.31998H214.27L222.43 15.61C222.39 13.66 222.36 11.35 222.36 9.39998V1.31998H223.74L223.76 16.97H221.61L221.62 16.96Z" fill="#C6A93E"/>
<path d="M42.83 84C42.83 84.7 42.17 84.98 41.24 84.98H5.8C3.51 84.98 0.74 84.89 0 82.59C6.37 83.39 12.87 83.62 21.25 83.62C23.59 79.83 27.38 71.4 27.85 62.09C31.03 62.98 33.8 64.52 33.8 65.6C33.8 66.26 32.96 66.63 31.27 66.4C29.12 73.47 25.65 79.79 22.7 83.63H35.29C35.9 82.46 36.65 81.34 37.63 80.21C39.46 81.01 42.83 82.97 42.83 84ZM7.44 60.27C5.15 60.27 2.43 60.18 1.63 57.88C8 58.68 14.46 58.91 21.2 58.91H32.95C33.56 57.74 34.31 56.57 35.29 55.45C37.12 56.25 40.44 58.26 40.44 59.29C40.44 59.99 39.78 60.27 38.85 60.27H7.44ZM10.48 63.08C16 69.07 19 74.03 19 76.94C19 78.91 17.74 81.01 16.33 81.01C15.3 81.01 15.16 80.31 15.16 79.32C15.16 77.21 14.97 71.17 9.26 63.82C8.79 63.21 8.61 62.74 9.07 62.42C9.54 62.09 9.91 62.47 10.47 63.08H10.48ZM15.72 46.27C16.19 45.8 16.66 46.22 17.17 46.6C21.01 49.22 24.43 52.31 24.43 54.23C24.43 55.73 23.31 57.32 21.81 57.32C20.83 57.32 20.64 56.52 20.59 55.87C20.54 54.65 20.17 51.47 16.14 47.49C15.81 47.21 15.34 46.65 15.72 46.27Z" fill="black"/>
<path d="M54.3001 56.99C54.5301 58.68 54.6301 60.5 54.6301 61.95C54.6301 65.6 53.2301 68.08 50.7501 68.08C49.8101 68.08 49.0601 67.52 49.0601 66.82C49.0601 65.93 49.7201 65.46 50.4201 64.9C52.2001 63.45 53.3701 60.73 53.0401 57.04C52.9901 56.48 53.0901 56.15 53.5101 56.1C53.9301 56.05 54.2101 56.29 54.3001 56.99ZM59.9701 66.96C59.9701 73.94 60.0201 80.44 60.0601 86.29C60.0601 87.23 58.8001 88.12 57.6701 88.12C56.9701 88.12 56.6901 87.75 56.6901 87.23C56.7801 81.28 56.8301 75.06 56.8301 68.46V45.9C59.7301 46.18 61.9801 46.79 61.9801 47.68C61.9801 48.38 61.3701 48.66 59.9701 48.85V66.97V66.96ZM61.2301 56.9C61.0001 56.57 60.7101 56.24 61.1401 55.92C61.4201 55.73 61.7501 55.87 62.2201 56.29C64.9301 58.86 66.3901 61.02 66.3901 62.84C66.3901 64.15 65.3601 65.56 63.9601 65.56C63.3001 65.56 63.1201 65.09 63.1201 64.48C63.1201 63.08 63.3501 60.03 61.2501 56.9H61.2301ZM92.4101 84.15C92.4101 84.76 91.9901 85.04 91.0501 85.04H65.4901C63.6201 85.04 61.7001 84.67 61.3201 82.98C65.5301 83.54 71.5701 83.68 76.5301 83.68H78.7801C79.8601 76.7 80.9301 69.03 82.0601 61.21H73.0201L72.4601 63.83C72.6501 63.83 72.8801 63.88 73.1601 64.02C76.1601 65.28 79.2901 66.83 79.2901 68.7C79.2901 69.78 78.3101 70.81 77.2801 70.81C76.6201 70.81 76.3001 70.34 76.1601 69.78C75.9301 68.8 75.0401 66.88 72.5101 65.1L72.2301 64.91C71.8101 67.02 71.3901 69.12 70.9701 71.18C71.2001 71.13 71.4901 71.23 71.8101 71.41C74.7101 72.86 78.0801 74.83 78.0801 76.79C78.0801 77.82 77.0501 78.76 75.9701 78.76C75.3101 78.76 75.0301 78.24 74.8501 77.64C74.5701 76.7 73.7701 74.55 71.0601 72.44C70.9701 72.35 70.8301 72.25 70.7301 72.21C70.4501 73.75 70.1201 75.35 69.7901 76.89C69.6001 77.83 68.7601 78.72 67.2601 78.62C66.4601 78.57 66.2301 78.15 66.4201 77.31C68.2001 69.26 69.9301 61.02 71.7101 52.12H67.3601C65.4901 52.12 63.5701 51.7 63.1901 50.01C67.1201 50.62 72.4601 50.76 77.1901 50.76H84.4901C85.1001 49.68 85.8001 48.7 86.5501 47.81C87.9501 48.42 91.1401 50.15 91.1401 51.23C91.1401 51.84 90.7201 52.12 89.8301 52.12H74.8501L73.3101 59.84H81.8301C82.1601 59.18 82.5801 58.53 83.0901 57.87C84.7801 58.57 86.8801 60.16 86.8801 61.15C86.8801 61.76 86.2201 62.23 85.1501 62.37C84.0701 69.77 83.0401 77.12 82.0101 83.67H85.6101C86.2201 82.59 86.9701 81.56 87.7201 80.63C89.1701 81.24 92.4001 83.02 92.4001 84.14L92.4101 84.15Z" fill="black"/>
<path d="M108.41 71.65C106.87 78.44 104.1 83.63 99.9799 87.75C99.4199 88.31 99.0899 88.5 98.6199 88.03C98.2899 87.7 98.4299 87.37 98.8099 86.86C102.51 81.8 106.16 74.69 106.67 61.67C106.86 56.85 106.81 50.72 106.11 45.75C109.62 45.98 111.87 46.78 111.87 47.62C111.87 48.28 111.03 48.6 109.9 48.7C110.04 53.38 109.99 57.83 109.71 62.14C111.11 60.36 111.91 57.79 112.29 55.16C114.72 56.28 116.41 57.59 116.41 58.39C116.41 59.28 115.38 59.14 114.49 58.95C113.32 60.92 111.59 62.46 109.57 63.91C109.38 66.16 109.06 68.26 108.68 70.23C113.22 73.37 115.09 75.52 115.09 77.49C115.09 78.94 114.01 80.44 112.7 80.44C111.62 80.44 111.62 79.78 111.58 79.18C111.49 77.92 111.39 75.01 108.4 71.64L108.41 71.65ZM98.9099 67.06C98.9099 66.31 99.6099 65.8 100.13 65.23C101.67 63.54 102.42 61.02 102.1 57.27C102.05 56.71 102.15 56.38 102.61 56.33C102.99 56.28 103.27 56.52 103.45 57.17C104.01 59.14 104.34 61.52 104.34 63.54C104.34 65.97 103.12 68.41 100.5 68.41C99.5199 68.41 98.9099 67.8 98.9099 67.05V67.06ZM141.56 85.08C141.56 85.69 141.05 85.97 140.16 85.97H114.6C113.1 85.97 111.42 85.64 110.53 83.82C115.26 84.57 120.22 84.62 126.07 84.62H126.96C128.41 82.75 129.53 79.89 129.53 77.04C132.43 77.93 134.31 79.43 134.31 80.36C134.31 80.92 133.37 81.16 132.25 80.78C131.22 82.28 129.91 83.64 128.55 84.62H135.24C135.85 83.54 136.5 82.61 137.25 81.67C138.7 82.28 141.56 84.06 141.56 85.09V85.08ZM116.94 51.28C115.3 51.28 114.18 50.77 113.8 49.31C116.42 49.68 118.67 49.87 122.37 49.92C122.7 49.36 123.07 48.84 123.45 48.28C124.95 48.94 127.15 50.25 127.15 51.18C127.15 51.7 126.68 52.12 125.65 52.21C124.76 56.28 123.03 59.47 120.97 61.95C123.08 62.23 124.95 62.37 127.24 62.37C127.71 61.48 128.22 60.68 128.88 59.89C130.14 60.5 132.62 62.04 132.62 62.89C132.62 63.45 132.11 63.73 131.26 63.73H123.39C122.17 63.73 121 63.59 120.16 62.89C117.35 66.03 114.12 67.9 111.78 68.98C111.17 69.26 110.8 69.21 110.61 68.79C110.42 68.37 110.75 68.18 111.36 67.85C115.25 65.74 121.38 60.13 122.6 51.28H116.94ZM118.39 58.72C117.73 58.72 117.5 58.35 117.36 57.74C117.22 57.08 117.03 55.59 115.21 53.99C114.79 53.62 114.37 53.29 114.6 52.91C114.88 52.44 115.35 52.63 115.91 52.91C117.78 53.85 120.22 55.2 120.22 56.75C120.22 57.87 119.38 58.72 118.39 58.72ZM134.59 69.96V71.79C134.59 73.15 134.64 74.6 134.68 75.82C134.68 76.52 133.65 77.41 132.34 77.41C131.64 77.41 131.5 77.13 131.5 76.66V76.05H121.11C121.11 76.75 120.08 77.5 118.86 77.5C118.07 77.5 117.92 77.22 117.92 76.75C117.97 75.11 118.01 73.05 118.01 71.09V65.8C119.13 66.32 120.3 67.02 121.33 67.77H131.21C131.54 67.16 131.91 66.6 132.38 66.08C133.64 66.59 135.99 68.14 135.99 68.89C135.99 69.45 135.43 69.83 134.59 69.97V69.96ZM120.4 77.78C122.74 78.95 125.18 80.5 125.18 82.09C125.18 83.21 124.34 84.34 123.03 84.34C122.33 84.34 122.14 83.87 122.05 83.31C121.91 82.37 121.82 80.55 119.71 78.68C119.24 78.26 119.15 77.98 119.33 77.74C119.56 77.41 119.94 77.55 120.41 77.79L120.4 77.78ZM121.1 74.69H131.49V69.12H121.1V74.69ZM143.06 65.37C143.06 65.79 142.78 66.03 142.12 66.12C140.15 66.4 138.37 66.59 138.05 67.15C135.57 65.93 129.48 61.3 127.05 46.69C126.96 46.13 126.96 45.61 127.43 45.57C127.85 45.52 128.13 45.66 128.27 46.37C128.79 48.9 129.35 51.38 130.05 53.39C131.22 52.27 132.39 50.44 132.81 47.96C134.96 48.71 136.74 49.97 136.79 50.82C136.84 51.43 136.13 51.66 134.87 51.34C133.56 52.7 131.73 53.87 130.47 54.52C130.98 55.92 131.73 57.38 132.62 58.55C134.4 57.29 136.04 55.37 136.79 52.7C139.08 53.78 140.63 55.13 140.63 55.88C140.63 56.44 139.97 56.77 138.62 56.39C137.03 57.84 135.06 58.92 133.42 59.62C136.84 63.41 141.61 64.54 142.17 64.68C142.59 64.77 143.06 64.96 143.06 65.38V65.37Z" fill="black"/>
<path d="M191.36 74.59C190.89 77.21 190.14 81.28 190.14 82.22C190.14 82.97 190.42 83.44 191.31 83.67C190.28 85.5 187.52 87.18 180.4 87.18C173.94 87.18 172.35 86.01 172.35 82.31V66.39H167.43C167.01 80.25 159.28 86.1 150.11 88.02C149.41 88.16 148.85 88.16 148.71 87.55C148.57 86.94 149.09 86.85 149.69 86.66C156.95 84.51 163.87 78.75 164.11 66.39H155.54C153.39 66.39 151.23 66.06 150.48 64.14C157.03 64.94 162.37 65.03 168.46 65.03V46.54C171.69 46.82 173.61 47.52 173.61 48.37C173.61 48.93 173 49.45 171.69 49.54V65.04H182.22C182.78 64.01 183.58 62.79 184.56 61.62C186.85 62.65 189.52 64.43 189.52 65.46C189.52 65.98 189.14 66.4 187.93 66.4H175.62V81.99C175.62 83.53 176.04 84.38 180.11 84.38C186.52 84.38 188.63 80.73 189.9 74.46C189.99 73.95 190.18 73.62 190.74 73.62C191.4 73.62 191.44 74.14 191.35 74.6L191.36 74.59ZM155.41 50.81C155.03 50.44 154.85 50.15 155.22 49.78C155.45 49.55 155.78 49.55 156.34 49.97C160.97 53.43 164.3 56.48 164.3 58.68C164.3 60.18 163.08 61.44 161.82 61.44C160.88 61.44 160.79 60.88 160.65 60.22C160.46 59.19 159.76 55.35 155.41 50.81ZM175.12 61.34C174.74 60.97 175.03 60.54 175.31 60.26C177.51 58.06 180.13 54.55 181.21 49.35C184.11 50.33 186.36 51.74 186.36 52.67C186.36 53.42 185.42 53.56 183.97 53.42C181.39 57.21 178.4 59.6 176.39 61.1C176.01 61.38 175.45 61.66 175.13 61.33L175.12 61.34Z" fill="black"/>
<path d="M202.31 55.96C200.62 55.96 198.66 55.59 198.14 53.9C202.77 54.56 207.78 54.6 212.14 54.6C212.7 53.62 213.4 52.59 214.2 51.7C215.84 52.45 218.46 54.09 218.46 55.07C218.46 55.59 217.99 55.96 217.06 55.96H202.31ZM211.81 58.16C213.4 58.91 215.79 60.36 215.79 61.2C215.79 61.71 215.32 62.04 214.53 62.04H204.14C202.73 62.04 200.96 61.62 200.63 60.03C204.05 60.54 207 60.69 209.95 60.69C210.46 59.8 211.03 59 211.82 58.16H211.81ZM203.85 68.22C202.49 68.22 201.04 67.85 200.62 66.25C203.85 66.77 206.85 66.86 209.98 66.86C210.49 65.97 211.1 65.03 211.85 64.24C213.25 64.9 215.78 66.44 215.78 67.38C215.78 67.9 215.36 68.22 214.47 68.22H203.84H203.85ZM212.09 86.8C211.3 86.8 211.15 86.47 211.15 85.91V84.13H204.83V86.28C204.83 86.84 203.99 88.06 202.49 88.06C201.65 88.06 201.55 87.73 201.55 87.22C201.6 84.27 201.64 81.51 201.64 78.56V71.07C202.81 71.63 204.07 72.43 205.06 73.27H210.91C211.24 72.71 211.57 72.15 212.08 71.54C213.34 72.01 215.83 73.51 215.83 74.49C215.83 75.1 215.31 75.47 214.29 75.66V79.12C214.29 80.85 214.34 82.91 214.38 85.07C214.38 85.73 213.35 86.8 212.09 86.8ZM203.66 46.12C203.94 45.7 204.31 45.89 204.78 46.12C207.78 47.62 210.58 49.63 210.58 51.27C210.58 52.39 209.5 53.66 208.24 53.66C207.49 53.66 207.26 53.14 207.16 52.63C206.97 51.6 206.69 49.68 203.98 47.01C203.7 46.73 203.37 46.49 203.65 46.12H203.66ZM204.83 82.78H211.15V74.63H204.83V82.78ZM242.05 85.45C242.05 85.97 241.63 86.11 240.79 86.2C237.65 86.53 235.69 86.57 235.22 87.42C232.83 86.62 229.51 84.33 227.12 81.47C223.61 84.56 219.21 86.76 214.53 87.74C213.92 87.88 213.27 87.97 213.17 87.41C213.08 86.94 213.31 86.85 213.97 86.66C218.37 85.4 222.49 83.01 225.72 79.59C223.57 76.41 221.93 72.52 220.99 67.98H220.1C218.46 67.98 217.06 67.51 216.35 65.97C219.67 66.44 222.34 66.63 225.53 66.63H231.05C231.47 66.02 231.85 65.41 232.41 64.8C234.05 65.5 236.58 67.14 236.58 68.08C236.58 68.83 235.74 69.11 234.66 69.3C233.77 73.23 231.8 76.65 229.18 79.51C233.49 83.4 239.34 84.43 240.93 84.66C241.54 84.75 242.05 84.89 242.05 85.46V85.45ZM221.22 47.16C222.58 47.68 223.89 48.38 225.06 49.17H229.23C229.56 48.65 229.88 48.09 230.35 47.58C231.8 48.19 234.05 49.55 234.05 50.44C234.05 51 233.49 51.38 232.65 51.52V59.52C232.65 60.27 233.02 60.5 233.96 60.55C235.08 60.6 236.54 60.41 237.28 59.99C237.61 59.8 237.94 59.66 238.17 59.66C238.54 59.66 238.92 59.75 239.34 60.08C240 60.59 240.74 61.48 240.74 61.95C240.74 62.42 240.51 62.61 239.9 62.75C238.4 63.08 236.3 63.36 233.91 63.36C230.45 63.36 229.46 62.38 229.46 60.13V50.53H225.06C225.06 58.63 221.88 63.03 217.24 65.14C216.63 65.42 216.26 65.37 216.02 65.05C215.78 64.73 216.07 64.44 216.53 64.16C219.76 62.01 221.63 58.5 221.82 52.13C221.87 50.68 221.59 48.62 221.21 47.17L221.22 47.16ZM222.44 67.99C223.52 72.06 225.2 75.15 227.36 77.59C229.33 74.92 230.78 71.78 231.34 67.99H222.45H222.44Z" fill="black"/>
<path d="M251.97 56.1C250.05 56.1 248.08 55.63 247.71 53.99C253.05 54.65 258.38 54.74 263.3 54.74C263.86 53.76 264.52 52.91 265.31 52.02C266.85 52.68 269.62 54.31 269.62 55.25C269.62 55.76 269.2 56.09 268.26 56.09H251.97V56.1ZM262.55 58.25C264 58.86 266.62 60.4 266.62 61.29C266.62 61.81 266.24 62.13 265.31 62.13H254.54C253 62.13 251.08 61.85 250.61 60.12C254.03 60.64 257.44 60.78 260.77 60.78C261.28 59.89 261.8 59.09 262.55 58.25ZM254.17 68.46C252.67 68.46 250.94 67.99 250.61 66.45C254.26 66.96 257.26 67.11 260.63 67.11C261.19 66.22 261.75 65.38 262.55 64.54C263.96 65.15 266.58 66.79 266.58 67.63C266.58 68.15 266.16 68.47 265.32 68.47H254.18L254.17 68.46ZM266.76 74.83C266.76 75.44 266.15 75.81 265.17 76V79.32C265.17 81.57 265.22 83.67 265.26 85.73C265.26 86.34 264.32 87.37 262.97 87.37C262.22 87.37 262.03 87 262.03 86.48V84.23H254.68V86.43C254.68 86.99 253.79 88.16 252.34 88.16C251.59 88.16 251.4 87.83 251.4 87.32C251.45 84.42 251.49 81.47 251.49 78.43V71.41C252.66 71.97 253.92 72.72 254.91 73.52H261.79C262.12 72.91 262.45 72.4 262.91 71.83C264.74 72.63 266.75 73.94 266.75 74.83H266.76ZM254.17 46.23C254.4 45.9 254.73 46 255.2 46.23C257.96 47.63 260.96 49.65 260.96 51.38C260.96 52.55 259.93 53.67 258.76 53.67C258.01 53.67 257.73 53.3 257.64 52.69C257.45 51.61 256.89 49.32 254.41 47.07C254.03 46.74 253.94 46.56 254.18 46.23H254.17ZM254.69 82.89H262.04V74.88H254.69V82.89ZM291.16 63.32C291.16 63.93 290.65 64.21 289.8 64.21H279.83C279.83 71.28 279.92 79.24 279.97 85.84C279.97 86.59 279.03 87.85 277.44 87.85C276.6 87.85 276.46 87.48 276.46 86.87C276.55 79.89 276.6 72.4 276.6 64.21H269.95C268.31 64.21 266.49 63.84 265.97 62.15C269.2 62.67 272.52 62.85 276.6 62.85V46.23C279.97 46.51 281.75 47.21 281.75 48.01C281.75 48.62 281.23 48.95 279.83 49.09V62.85H284.46C285.07 61.77 285.77 60.7 286.61 59.71C288.2 60.46 291.15 62.28 291.15 63.31L291.16 63.32Z" fill="black"/>
</svg>
