<svg xmlns="http://www.w3.org/2000/svg" width="460.85" height="102.986" viewBox="0 0 460.85 102.986"><defs><style>.a{fill:#fff;}</style></defs><g transform="translate(-2841.15 -7547.637)"><path class="a" d="M2943.705,7597.728h-20.9a63.419,63.419,0,0,0,23.914,16.484,43.593,43.593,0,0,0-8.619,10.556,1.188,1.188,0,0,1-.214.432,69.6,69.6,0,0,1-14.651-9.157v34.04h-13.359v-2.908H2877.24v3.341h-12.929v-32.642a97.054,97.054,0,0,1-14.757,9.695,30.508,30.508,0,0,0-7.11-9.479q-.755-.538-1.294-.97a73.906,73.906,0,0,0,24.992-19.392h-22.19v-10.664h29.409a54.535,54.535,0,0,0,2.693-5.494h-22.622v-10.341h26.5q.324-1.077,1.4-5.386h-31.564v-10.558h33.5q.323-2.907.754-7.648l13.465.969q-.54,4.956-.754,6.679h41.044v10.558H2894.8q-.218.864-.646,2.692t-.647,2.694h40.612v10.341H2911.71q1.722,3.233,3.125,5.494h28.87Zm-33.826,22.517v-6.787H2877.24v6.787Zm-32.639,16.8h32.639v-7.326H2877.24Zm29.731-39.321h-24.885q-2.26,3.45-3.878,5.6h32.748A53.461,53.461,0,0,1,2906.971,7597.728Zm-8.51-16.158h-8.4a50.23,50.23,0,0,1-2.263,5.494h13.142A56.943,56.943,0,0,1,2898.461,7581.57Z"/><path class="a" d="M2955.663,7606.239V7593.42h8.834v13.251q0,23.161-5.171,35.118a29.7,29.7,0,0,0-7.541-5.926Q2955.663,7625.848,2955.663,7606.239Zm-1.831-18.42v-11.528h40.936v11.528h-14.436v62.8h-11.095v-62.8Zm39.428-33.4v11.526h-36.627v-11.526Zm-8.187,77.454v-38.565h8.618v38.565Zm11.31-79.178h56.987v10.881h-56.987Zm.647,97.923v-49.339h55.909v49.339h-11.956v-3.663h-32.534v3.663Zm4.094-81.333h48.046v27.038h-48.046Zm17.775,42.444h-10.45v7.324h10.45Zm-10.45,17.452v7.54h10.45v-7.54Zm28.225-42.337v-8.08h-23.7v8.08Zm4.309,32.209v-7.324h-10.774v7.324Zm-10.774,17.668h10.774v-7.54h-10.774Z"/><path class="a" d="M3145.153,7629.939l11.849-1.616.323,10.988q-10.986,1.833-41.366,6.033l-2.692-11.85,5.17-.539v-31.671h10.127v30.594l5.386-.647v-36.087h-17.021v-11.85h17.021v-13.035h-5.063a66.761,66.761,0,0,1-6.033,11.528q-3.555-2.372-6.465-4.1-2.156,4.311-5.386,9.8v63.127h-11.956v-45.892a94.887,94.887,0,0,1-6.356,7.326,61.549,61.549,0,0,0-6.572-11.311,2.533,2.533,0,0,0-.431-.647,98.778,98.778,0,0,0,19.283-26.285c.574-1.078,1.077-2.117,1.509-3.125l8.078,2.8q6.679-10.556,9.265-25.853l11.311,2.155q-1.185,5.711-2.154,8.834h23.161v11.633h-10.988v13.035h11.311v11.85h-11.311v9.8h10.881v11.1h-10.881Zm-40.506-82.3,11.851,4.309a106.284,106.284,0,0,1-20.792,24.345,34.862,34.862,0,0,1-2.692,2.264,48.434,48.434,0,0,0-6.463-10.02,78.22,78.22,0,0,0,15.835-17.128Q3103.679,7549.362,3104.647,7547.637Zm84.459,8.187v67.113q-.109,7.756-3.341,10.557-3.553,2.372-10.449,2.369a34.24,34.24,0,0,0-3.448-11.956h4.742a1.172,1.172,0,0,0,.968-1.294v-55.262h-6.894v83.272h-11.742v-94.8Z"/><path class="a" d="M3292.519,7552.484l9.481,5.925q-6.464,18.316-13.035,32.749,10.989,11.956,11.095,25.855-.107,12.174-6.033,16.265a18.062,18.062,0,0,1-7.648,2.8,55.99,55.99,0,0,1-8.94.216,28.447,28.447,0,0,0-3.232-12.6q5.383.218,6.463.216a10.217,10.217,0,0,0,4.2-1.077q2.691-1.832,2.585-7.541-.109-11.635-11.312-22.623,3.771-9.05,9.7-27.9h-13.464v85.64H3260.2v-28.223q-1.4,10.128-6.57,11.958a12.956,12.956,0,0,1-3.878.538q-13.573-.216-17.666-40.4h-14.329v22.944q1.295-.215,13.682-2.585l.968,11.85q-6.784,1.509-20.79,4.2-8.188,1.616-11.849,2.371l-1.617-12.5q1.185-.216,3.771-.647t3.986-.647v-65.39l8.4,3.232q20.576-3.554,32.209-8.51l9.911,9.587q-7.542,2.7-13.573,4.311-.109,10.662.323,19.5h13.9v12.282h-13.25q1.938,23.16,5.817,27.469a2.764,2.764,0,0,0,1.184.647q2.26,0,2.585-12.282v-.214a22.393,22.393,0,0,0,6.786,5.277v-62.264h30.38Zm-86.934,95.984v-11.526h40.506v11.526ZM3217.758,7582h13.466q-.431-7.969-.647-16.912-7.109,1.4-12.819,2.154Z"/></g></svg>