<svg width="924" height="80" viewBox="0 0 924 80" fill="none" xmlns="http://www.w3.org/2000/svg">
<path d="M8.8538 7.22785V5.23189L39.6449 5.09424V7.0902H37.0527C34.1224 7.0902 31.981 7.98494 30.651 9.75148C29.817 10.8986 29.3887 13.6746 29.4113 18.0565L29.5465 53.8232C29.5465 59.3293 28.983 63.78 27.8334 67.1984C26.6613 70.6168 24.6326 73.5992 21.7473 76.1458C18.862 78.6924 15.3682 79.9771 11.2657 80C7.95215 80 5.33739 79.1971 3.42139 77.5223C1.5054 75.8934 0.536133 73.9892 0.536133 71.8327C0.536133 70.0661 0.964414 68.7355 1.84352 67.8408C2.99311 66.7166 4.36812 66.166 5.92346 66.1431C7.05051 66.1431 8.06486 66.5101 8.9665 67.2672C9.86815 68.0243 11.0177 70.0203 12.4153 73.301C13.2268 75.2281 14.2862 76.2146 15.5485 76.1917C16.4952 76.1917 17.3969 75.5952 18.2084 74.4022C19.0424 73.2092 19.4481 71.0985 19.4256 68.0931L19.2227 18.1483C19.2227 14.4546 18.9748 11.9998 18.5014 10.8068C18.1407 9.91207 17.3969 9.13204 16.2698 8.48966C14.737 7.64081 13.1366 7.20491 11.446 7.22785H8.8538V7.22785Z" fill="#C9CACA"/>
<path d="M84.7045 53.571L56.8888 53.6857L52.065 65.2485C50.8703 68.0933 50.2842 70.2269 50.2842 71.6264C50.2842 72.7505 50.8027 73.7141 51.8621 74.563C52.9215 75.4118 55.1531 75.9395 58.6244 76.1918V78.1878L35.9932 78.2796V76.2836C38.9911 75.733 40.9297 75.0218 41.8088 74.15C43.6121 72.4064 45.5957 68.8963 47.7596 63.5967L72.7802 3.28198H74.6286L99.8972 64.0096C101.926 68.8963 103.774 72.0623 105.42 73.5076C107.065 74.953 109.364 75.7559 112.295 75.9395V77.9354L83.9606 78.0501V76.0542C86.8233 75.8936 88.7393 75.4118 89.7537 74.563C90.768 73.737 91.2639 72.7276 91.2414 71.5346C91.2414 69.9516 90.5201 67.4509 89.1 64.0555L84.7045 53.548V53.571ZM83.1942 49.5791L70.8868 20.0756L58.4892 49.6938L83.1942 49.602V49.5791Z" fill="#C9CACA"/>
<path d="M130.215 43.6142L130.305 64.9274C130.305 69.5387 130.823 72.3835 131.815 73.5077C133.168 75.0907 135.196 75.8707 137.924 75.8478H140.674V77.8208L109.883 77.9584V75.9625H112.588C115.631 75.9625 117.795 74.9301 119.102 72.9112C119.801 71.787 120.139 69.1487 120.139 64.9732L119.959 17.7126C119.959 13.1012 119.463 10.2564 118.493 9.13227C117.118 7.54927 115.067 6.76924 112.34 6.79218H109.635V4.81916L135.963 4.70445C142.387 4.68151 147.459 5.32389 151.178 6.65453C154.897 7.98517 158.031 10.2564 160.578 13.4454C163.125 16.6343 164.432 20.4198 164.432 24.8017C164.455 30.7666 162.539 35.6303 158.684 39.3928C154.83 43.1553 149.375 45.0366 142.297 45.0595C140.561 45.0595 138.69 44.9448 136.684 44.7154C134.678 44.463 132.514 44.096 130.215 43.6142V43.6142ZM130.215 40.5399C132.086 40.8841 133.754 41.1594 135.196 41.32C136.639 41.5035 137.879 41.5723 138.916 41.5723C142.59 41.5723 145.746 40.104 148.405 37.1904C151.065 34.2768 152.373 30.5372 152.35 25.9259C152.35 22.7599 151.696 19.8233 150.412 17.1161C149.127 14.4089 147.323 12.39 144.979 11.0365C142.635 9.70582 139.998 9.0405 137.022 9.0405C135.219 9.0405 132.897 9.40757 130.08 10.0958L130.192 40.517L130.215 40.5399Z" fill="#C9CACA"/>
<path d="M202.639 53.0661L174.823 53.1808L170 64.7436C168.805 67.5884 168.219 69.722 168.219 71.1215C168.219 72.2457 168.737 73.2092 169.797 74.0581C170.856 74.9069 173.088 75.4346 176.559 75.664V77.66L153.928 77.7517V75.7558C156.926 75.2052 158.864 74.494 159.743 73.6222C161.547 71.8786 163.53 68.3684 165.694 63.0688L190.715 2.80005H192.563L217.832 63.5277C219.86 68.4143 221.709 71.5803 223.354 73.0257C225 74.471 227.299 75.274 230.229 75.4575V77.4535L201.895 77.5682V75.5722C204.758 75.4117 206.674 74.9299 207.688 74.081C208.703 73.2322 209.198 72.2457 209.176 71.0527C209.176 69.4697 208.455 66.969 207.035 63.5736L202.639 53.0661V53.0661ZM201.129 49.0742L188.821 19.5707L176.424 49.1889L201.129 49.0971V49.0742Z" fill="#C9CACA"/>
<path d="M224.301 4.33704L243.799 4.24528L287.957 58.9162L287.777 16.7258C287.777 12.2291 287.258 9.43018 286.266 8.32896C284.959 6.81479 282.885 6.08064 280.045 6.08064H277.565V4.08468L302.586 3.96997V5.96593H300.061C297.018 5.96593 294.877 6.9295 293.615 8.7878C292.848 9.93491 292.465 12.5732 292.488 16.6569L292.736 78.3022H290.82L243.213 19.6165L243.393 64.6517C243.393 69.1484 243.889 71.9473 244.858 73.0714C246.211 74.5856 248.285 75.3198 251.057 75.3198H253.604V77.3157L228.584 77.4304V75.4345H231.063C234.129 75.4345 236.315 74.4709 237.578 72.6126C238.344 71.4655 238.727 68.8272 238.705 64.7435L238.502 13.8809C236.405 11.4032 234.827 9.77431 233.746 8.99428C232.664 8.21425 231.086 7.48011 228.989 6.79184C227.952 6.47065 226.397 6.31006 224.323 6.333V4.33704H224.301Z" fill="#C9CACA"/>
<path d="M370.662 39.53C375.643 40.5854 379.385 42.306 381.865 44.6691C385.313 47.9727 387.026 52.0105 387.049 56.7825C387.049 60.4073 385.944 63.8945 383.69 67.244C381.436 70.5706 378.348 73.0254 374.426 74.5626C370.481 76.0997 364.485 76.9027 356.393 76.9256L322.469 77.0633V75.0673H325.174C328.172 75.0673 330.336 74.0808 331.62 72.1307C332.432 70.8689 332.815 68.1847 332.815 64.078L332.635 16.8403C332.635 12.3208 332.094 9.453 331.057 8.26001C329.682 6.67701 327.631 5.89698 324.903 5.91992H322.198V3.94691L353.26 3.80926C359.053 3.78631 363.696 4.19927 367.213 5.04813C372.51 6.30994 376.567 8.60415 379.385 11.8849C382.18 15.1656 383.6 18.951 383.623 23.2182C383.623 26.889 382.563 30.1697 380.377 33.0833C378.19 35.997 374.967 38.1535 370.707 39.5759L370.662 39.53ZM342.891 36.7311C344.198 36.9835 345.686 37.167 347.377 37.2817C349.045 37.3964 350.893 37.4653 352.922 37.4423C358.084 37.4423 361.961 36.8458 364.553 35.6987C367.145 34.5516 369.129 32.808 370.504 30.4679C371.879 28.1278 372.555 25.5583 372.533 22.8053C372.533 18.5381 370.797 14.8903 367.348 11.8849C363.899 8.87945 358.895 7.38822 352.336 7.41116C348.797 7.41116 345.618 7.82412 342.801 8.62709L342.914 36.7311H342.891ZM343.026 71.6719C347.129 72.6354 351.186 73.0943 355.176 73.0713C361.578 73.0484 366.446 71.5572 369.782 68.6206C373.119 65.684 374.787 62.0362 374.764 57.7231C374.764 54.8783 373.975 52.1482 372.442 49.5328C370.91 46.9174 368.43 44.8526 365.004 43.3614C361.578 41.8701 357.34 41.136 352.268 41.1589C350.082 41.1589 348.211 41.2048 346.655 41.2966C345.1 41.3654 343.838 41.5031 342.891 41.6866L343.004 71.6719H343.026Z" fill="#C9CACA"/>
<path d="M427.037 1.81391C436.369 1.76803 444.461 5.34699 451.336 12.5279C458.211 19.7087 461.66 28.702 461.705 39.4848C461.75 50.5887 458.346 59.8344 451.471 67.1988C444.619 74.5632 436.278 78.2568 426.496 78.3027C416.6 78.3486 408.282 74.7926 401.52 67.6806C394.758 60.5456 391.354 51.2999 391.309 39.9436C391.264 28.3349 395.118 18.8369 402.85 11.4725C409.567 5.07168 417.637 1.8598 427.037 1.81391V1.81391ZM426.045 5.75995C419.621 5.78289 414.459 8.23769 410.604 13.1014C405.78 19.1581 403.414 28.0137 403.459 39.6683C403.504 51.5982 406.051 60.775 411.1 67.1988C414.977 72.0625 420.071 74.4943 426.383 74.4714C433.123 74.4485 438.69 71.7413 443.063 66.3729C447.436 61.0044 449.6 52.5388 449.555 40.9989C449.51 28.4955 447.053 19.1581 442.184 13.0326C438.285 8.16886 432.897 5.737 426.045 5.75995V5.75995Z" fill="#C9CACA"/>
<path d="M500.002 1.49213C509.334 1.44625 517.427 5.02521 524.302 12.2061C531.177 19.3869 534.625 28.3802 534.671 39.163C534.716 50.2669 531.312 59.5126 524.459 66.877C517.607 74.2414 509.267 77.9351 499.484 77.981C489.588 78.0268 481.271 74.4708 474.508 67.3588C467.746 60.2238 464.342 50.9782 464.297 39.6218C464.252 28.0132 468.107 18.5151 475.838 11.1507C482.556 4.74991 490.625 1.53802 500.025 1.49213H500.002ZM499.011 5.43817C492.586 5.46111 487.424 7.91591 483.57 12.7796C478.746 18.8363 476.379 27.692 476.424 39.3465C476.469 51.2764 479.017 60.4532 484.066 66.877C487.943 71.7407 493.037 74.1726 499.349 74.1496C506.088 74.1267 511.656 71.4195 516.029 66.0511C520.402 60.6826 522.566 52.217 522.521 40.6772C522.476 28.1737 520.019 18.8363 515.15 12.7108C511.25 7.84709 505.863 5.41523 499.011 5.43817V5.43817Z" fill="#C9CACA"/>
<path d="M565.821 35.47L592.42 62.1746C596.793 66.5794 600.512 69.5848 603.578 71.1678C606.666 72.7508 609.732 73.6456 612.82 73.8521V75.848L578.647 75.9857V73.9897C580.699 73.9897 582.164 73.6226 583.065 72.9114C583.967 72.2002 584.418 71.4202 584.418 70.5484C584.418 69.6766 584.238 68.9195 583.899 68.2313C583.561 67.543 582.457 66.2812 580.563 64.4229L555.655 39.5537L555.746 63.1152C555.746 66.8318 555.994 69.2637 556.467 70.4566C556.828 71.3514 557.571 72.1314 558.698 72.7738C560.231 73.6226 561.832 74.0585 563.522 74.0585H565.957V76.0545L535.323 76.1922V74.1962H537.848C540.823 74.1962 542.965 73.3015 544.295 71.5349C545.129 70.3878 545.557 67.6118 545.535 63.2299L545.354 15.9922C545.354 12.2985 545.106 9.82078 544.633 8.60486C544.272 7.73306 543.551 6.99891 542.446 6.35653C540.891 5.50768 539.268 5.07178 537.555 5.07178H535.008V3.07582L565.641 2.93817V4.93413H563.207C561.539 4.93413 559.938 5.37003 558.383 6.19594C557.301 6.76949 556.535 7.64129 556.106 8.78839C555.678 9.9355 555.475 12.3215 555.498 15.9004L555.588 38.2919C556.287 37.6036 558.698 35.3094 562.824 31.4093C573.283 21.5901 579.594 15.0286 581.781 11.7479C582.727 10.3026 583.201 9.04075 583.201 7.96248C583.201 7.13656 582.817 6.40242 582.074 5.78298C581.33 5.16355 580.067 4.84236 578.309 4.84236H576.664V2.8464L603.059 2.73169V4.72765C601.504 4.77353 600.107 5.00295 598.822 5.39297C597.559 5.78298 596.004 6.56301 594.178 7.71012C592.352 8.85722 590.098 10.6926 587.416 13.2162C586.649 13.9504 583.065 17.644 576.709 24.3202L565.776 35.47H565.821Z" fill="#C9CACA"/>
<path d="M655.964 0.850342L656.077 26.1554H654.116C653.462 21.3147 652.312 17.4604 650.644 14.5926C648.999 11.7249 646.632 9.45361 643.589 7.77884C640.546 6.10407 637.39 5.27816 634.144 5.27816C630.47 5.27816 627.427 6.4482 625.037 8.74241C622.648 11.0366 621.453 13.6291 621.476 16.5427C621.476 18.7681 622.242 20.8099 623.775 22.6224C625.984 25.3066 631.191 28.8855 639.464 33.3363C646.181 36.9841 650.779 39.7601 653.259 41.7101C655.738 43.6602 657.632 45.9544 658.962 48.6157C660.292 51.277 660.968 54.053 660.991 56.9666C660.991 62.4956 658.917 67.2905 654.724 71.3054C650.509 75.3432 645.099 77.3621 638.449 77.385C636.376 77.385 634.415 77.2474 632.566 76.9262C631.462 76.7427 629.208 76.1003 625.759 74.9761C622.31 73.852 620.124 73.3014 619.199 73.3014C618.32 73.3014 617.621 73.5767 617.103 74.1273C616.585 74.6779 616.224 75.7791 615.976 77.4768H614.015L613.925 52.4011H615.886C616.833 57.6319 618.072 61.555 619.65 64.1704C621.206 66.7629 623.595 68.9194 626.796 70.6401C629.997 72.3607 633.513 73.2096 637.322 73.1866C641.74 73.1866 645.212 71.9707 647.782 69.5847C650.351 67.1988 651.613 64.3998 651.591 61.165C651.591 59.3755 651.095 57.5631 650.103 55.7277C649.134 53.8924 647.601 52.1947 645.55 50.6346C644.175 49.5563 640.388 47.2851 634.234 43.7979C628.081 40.3107 623.685 37.5347 621.093 35.4699C618.478 33.4051 616.517 31.1109 615.165 28.5873C613.812 26.0866 613.136 23.3106 613.113 20.2823C613.113 15.0285 615.052 10.5089 618.996 6.70057C622.941 2.89218 627.968 0.965052 634.076 0.94211C637.886 0.94211 641.943 1.85979 646.226 3.74104C648.21 4.63578 649.607 5.07168 650.419 5.07168C651.343 5.07168 652.087 4.79638 652.673 4.22282C653.259 3.67221 653.71 2.54805 654.07 0.850342H656.031H655.964Z" fill="#C9CACA"/>
<path d="M723.947 2.22632L724.804 19.387H722.797C722.392 16.3816 721.851 14.225 721.174 12.9403C720.07 10.8525 718.605 9.33836 716.779 8.35185C714.953 7.36534 712.564 6.88356 709.588 6.9065L699.467 6.95238L699.693 62.8392C699.693 67.3359 700.189 70.1348 701.158 71.259C702.51 72.7731 704.584 73.5073 707.357 73.5073H709.836V75.5032L679.361 75.6409V73.6449H681.885C684.928 73.6449 687.07 72.6814 688.332 70.8231C689.098 69.676 689.482 67.0376 689.459 62.9539L689.234 7.06709L680.6 7.11298C677.242 7.11298 674.852 7.38828 673.455 7.89301C671.629 8.58127 670.051 9.91191 668.744 11.839C667.436 13.7891 666.67 16.4275 666.445 19.7311H664.438L665.227 2.59339L723.902 2.34103L723.947 2.22632Z" fill="#C9CACA"/>
<path d="M759.743 0.413766C769.075 0.367882 777.167 3.94684 784.042 11.1277C790.917 18.3086 794.366 27.3019 794.411 38.0846C794.456 49.1886 791.052 58.4342 784.177 65.7986C777.325 73.163 768.985 76.8567 759.202 76.9026C749.306 76.9485 740.988 73.3924 734.226 66.2804C727.464 59.1454 724.06 49.8998 724.015 38.5435C723.97 26.9348 727.824 17.4368 735.556 10.0724C742.273 3.67154 750.343 0.45965 759.743 0.413766ZM758.751 4.3598C752.327 4.38274 747.165 6.83754 743.31 11.7013C738.486 17.758 736.12 26.6136 736.165 38.2682C736.21 50.198 738.757 59.3749 743.806 65.7986C747.683 70.6623 752.777 73.0942 759.089 73.0713C765.829 73.0483 771.396 70.3412 775.769 64.9727C780.142 59.6043 782.306 51.1387 782.261 39.5988C782.216 27.0724 779.759 17.758 774.89 11.6324C770.991 6.76872 765.603 4.33686 758.751 4.3598V4.3598Z" fill="#C9CACA"/>
<path d="M866.632 74.7924L847.45 74.8842L822.993 40.7923C821.189 40.884 819.724 40.907 818.597 40.907C818.146 40.907 817.65 40.907 817.109 40.907C816.568 40.907 816.027 40.8611 815.464 40.8382L815.554 62.0825C815.554 66.6939 816.072 69.5387 817.064 70.6628C818.417 72.2458 820.423 73.0259 823.105 73.0029H825.923V74.9989L795.132 75.1365V73.1406H797.837C800.88 73.1406 803.044 72.1082 804.351 70.0893C805.095 68.9651 805.456 66.3268 805.433 62.1513L805.253 14.9136C805.253 10.3023 804.734 7.45747 803.742 6.33331C802.367 4.75031 800.316 3.97028 797.589 3.99322H794.884V1.99726L821.054 1.88255C828.695 1.85961 834.308 2.38728 837.937 3.51144C841.566 4.6356 844.655 6.70038 847.179 9.72874C849.726 12.7571 850.989 16.3819 851.011 20.5803C851.011 25.077 849.614 28.9771 846.728 32.3037C843.843 35.6303 839.402 37.9704 833.384 39.3699L848.306 60.293C851.71 65.0879 854.64 68.2769 857.097 69.8599C859.532 71.4429 862.732 72.4294 866.655 72.8423V74.8383L866.632 74.7924ZM815.464 37.4198C816.14 37.4198 816.726 37.4198 817.222 37.4198C817.718 37.4198 818.124 37.4198 818.439 37.4198C825.292 37.3969 830.454 35.8597 833.925 32.8314C837.396 29.803 839.109 25.9488 839.109 21.2686C839.109 16.7031 837.667 12.9865 834.849 10.1417C832.032 7.29688 828.312 5.87447 823.669 5.89741C821.618 5.89741 818.845 6.26448 815.351 6.95275L815.464 37.3739V37.4198Z" fill="#C9CACA"/>
<path d="M882.66 5.57561L882.772 34.4826L898.574 34.4138C902.676 34.4138 905.404 33.7485 906.779 32.4866C908.605 30.8348 909.619 27.8982 909.822 23.7457H911.783L911.895 49.1885H909.934C909.416 45.6324 908.92 43.3612 908.424 42.3517C907.793 41.0899 906.734 40.1034 905.291 39.3922C903.848 38.681 901.617 38.3369 898.619 38.3369L882.817 38.4057L882.908 62.5178C882.908 65.7526 883.065 67.7256 883.358 68.4139C883.651 69.1022 884.147 69.6757 884.846 70.0887C885.545 70.5016 886.897 70.7081 888.881 70.6852L901.076 70.6393C905.133 70.6393 908.086 70.3181 909.912 69.7445C911.738 69.171 913.518 68.0239 915.186 66.3262C917.373 64.0779 919.605 60.7054 921.881 56.2087H924L917.869 74.5624L862.485 74.7918V72.7958H865.01C866.701 72.7958 868.324 72.3599 869.834 71.534C870.961 70.9605 871.727 70.0887 872.133 68.9416C872.539 67.7945 872.719 65.4314 872.719 61.8754L872.539 14.3624C872.539 9.72812 872.043 6.86036 871.119 5.78209C869.834 4.35968 867.715 3.64848 864.74 3.64848H862.192V1.65252L917.576 1.4231L918.432 17.4367H916.359C915.592 13.6053 914.758 10.967 913.857 9.52164C912.955 8.09923 911.602 6.99802 909.844 6.24093C908.424 5.71326 905.945 5.43796 902.361 5.4609L882.637 5.55267L882.66 5.57561Z" fill="#C9CACA"/>
</svg>
