<svg viewBox="0 0 660 82" fill="#FFF" xmlns="http://www.w3.org/2000/svg">
<path d="M659.6,24.3c-5.2-18.7-81.6-8.2-106.8,3.8c3.3,0.1,4.7,1.4,4.4,4.5h-3.5v-0.9c0.2-1.4-2.2-1.6-2.4-0.3
	c0,0.2-0.1,0.4,0,0.7c0.4,1.5,5.6,2.5,6.1,5.3c0.1,0.4,0.2,1.1,0,2.2c-0.3,2.3-4.9,3.2-4.9,3.2s-5-1.7-5-4v-1.1h3.8v1.4
	c-0.1,1.4,2.4,1.6,2.6,0.3c0.1-0.3,0.1-0.7,0-1c-0.7-1.7-5.5-2.5-6.1-5.4c-0.2-0.9-0.1-2,0.3-2.8c-11.7,5.5-18.5,11.5-17.6,16.7
	c1.8,10.1,32.1,13.2,67.8,7c15.7-2.7,29.8-6.8,40.5-11.4c-3,0.2-5.6-1.1-5.4-4.3c0-0.6-0.1-6.2,0.1-6.6c0.3-2.4,2.2-3.4,4.8-3.4
	c2,0,4.6,0.6,4.8,3.4c0.1,0.6,0,0.9,0,1.4h-3.5c-0.1-0.9,0.3-2.2-1.3-2.3c-1,0-1.3,0.7-1.3,1c0,0.2,0,0.4,0,0.6c0,0.2,0,6.7,0,6.7
	c0.2,1.3,2.5,1.3,2.7,0c0.1-0.4,0-2.1,0-2.4h-1.4v-2.1h4.9v3.7c0,0.7-0.2,2-0.6,2.6C653.8,35.4,660.5,29.4,659.6,24.3L659.6,24.3z
	 M567.1,42.2L565.3,30h-0.1l-1.8,12.2h-3.8l2.5-13.7h6.2l2.5,13.7C570.8,42.2,567.1,42.2,567.1,42.2z M585.2,42.2l-0.1-11.9H585
	l-2.2,11.9h-3.5l-2.2-11.9H577l0,11.9h-3.5l0.3-13.7h5.6l1.6,10.2h0.1l1.6-10.2h5.6l0.3,13.7H585.2z M601.8,39.6
	c-0.4,2.7-3,3.1-4.8,3.1c-3.8,0-5.2-1.8-5-5h3.7c0,1.1-0.3,2.5,1.3,2.5c1.1,0.1,1.5-0.9,1.2-1.8c-0.7-1.7-5.5-2.5-6.1-5.3
	c-0.7-3.4,1.8-5,4.7-4.9c3.3,0,4.9,1.3,4.6,4.4h-3.5v-0.9c0.1-1.4-2.2-1.6-2.4-0.3c0,0.1,0,0.4,0,0.7c0.4,1.5,5.5,2.5,6.1,5.2
	C601.8,37.7,601.9,38.5,601.8,39.6L601.8,39.6z M614.6,38.3c0.1,2.7-1.4,4.3-4.8,4.3c-3.4,0-5-1.6-4.8-4.3v-9.8h3.5v10.1
	c0,0.2,0,0.4,0,0.5c0.2,1.3,2.3,1.3,2.5,0c0-0.1,0-0.3,0-0.5V28.5h3.5L614.6,38.3L614.6,38.3z M629.8,42.1h-4.9l-3.3-10.9h-0.1
	l0.2,10.9h-3.4V28.5h5.1l3.1,10.4h0.1l-0.2-10.4h3.5L629.8,42.1L629.8,42.1z M214.1,19.4c-4.7,0.1-4.7,7,0,7.1
	C218.8,26.4,218.8,19.5,214.1,19.4z M216.8,28.1h-5.4c-0.4,0-0.7,0.3-0.7,0.7v21.4c0,0.4,0.3,0.7,0.7,0.7h5.4c0.4,0,0.7-0.3,0.7-0.7
	V28.8C217.5,28.4,217.2,28.1,216.8,28.1z M235.5,27.5c-5.1,0-6.5,2.1-7.4,3v-1.7c0-0.4-0.3-0.7-0.7-0.7h-5.3c-0.4,0-0.7,0.3-0.7,0.7
	v21.4c0,0.4,0.3,0.7,0.7,0.7h5.4c0.4,0,0.7-0.3,0.7-0.7V38.1c0-3.1,1.9-5.4,5-5.4c3.4,0,5,2.4,5,5.4v12.1c0,0.4,0.3,0.7,0.7,0.7h5.4
	c0.4,0,0.7-0.3,0.7-0.7V36.4C245,29.7,240.4,27.5,235.5,27.5L235.5,27.5z M262.9,27.5c-5.1,0-6.5,2.1-7.4,3v-1.7
	c0-0.4-0.3-0.7-0.7-0.7h-5.3c-0.4,0-0.7,0.3-0.7,0.7v21.4c0,0.4,0.3,0.7,0.7,0.7h5.4c0.4,0,0.7-0.3,0.7-0.7V38.1
	c-0.1-7.3,10.3-7.2,10,0v12.1c0,0.4,0.3,0.7,0.7,0.7h5.4c0.4,0,0.7-0.3,0.7-0.7V36.4C272.4,29.7,267.8,27.5,262.9,27.5L262.9,27.5z
	 M306,26.5c4.7-0.1,4.7-7,0-7.1C301.3,19.5,301.3,26.4,306,26.5z M308.7,28.1h-5.4c-0.4,0-0.7,0.3-0.7,0.7v21.4
	c0,0.4,0.3,0.7,0.7,0.7h5.4c0.4,0,0.7-0.3,0.7-0.7V28.8C309.4,28.4,309.1,28.1,308.7,28.1z M192.9,34.4h-4.1v-8.8h4.1
	c3.3,0,6.1,0.6,6.1,4.4S196.3,34.4,192.9,34.4L192.9,34.4z M200.5,38.5c1.4-0.5,5.4-1.8,5.4-8.5s-4.4-9.1-12.2-9.1h-11
	c-0.4,0-0.7,0.3-0.7,0.7v28.6c0,0.4,0.3,0.7,0.7,0.7h5.4c0.4,0,0.7-0.3,0.7-0.7v-11h4.2l7.5,10.9c0.3,0.5,1,0.9,1.6,0.9h5.8
	c0.4,0,0.7-0.5,0.5-0.9L200.5,38.5L200.5,38.5z M292.3,41.9c0,3.3-2.1,5.3-5.7,5.4c-2.7,0.1-4.9-1.1-5-2.8c-0.1-4,8.2-3.9,10-3.7
	c0.7,0,0.7,0,0.7,0.4C292.3,41.1,292.3,41.9,292.3,41.9z M282.9,28.1c-4.6,1.3-6.4,4.2-7,6c-0.1,0.3,0.3,0.6,0.6,0.6h6.1
	c0.2,0,0.5-0.1,0.6-0.2c1.3-1.6,3.2-2,5-1.9c4.4,0.2,4,3.8,4,4.1c-14.8-1.3-18.4,5.2-16.6,10.1c2.1,5.6,12.9,6.2,16.5,2.3
	c0.4,1.2,0.5,1.8,1.5,1.8h4.6c0.4,0,0.7-0.3,0.7-0.7V36.7C298.9,26.9,288,26.8,282.9,28.1L282.9,28.1z M375.6,15h-11.9v39.3h11.9V15
	z M384.5,15h14l-11.7,19.2l12.5,20h-14.1l-10.7-19.6L384.5,15z M453.2,15h-11.9v39.3h11.9V15z M462.1,15h14l-11.7,19.2l12.6,20
	h-14.1l-10.7-19.6L462.1,15z M425,15h12l-12.6,39.3h-13.3L398.5,15H411l6.8,28L425,15z M425,56.8h9v11.5h-1.3v-0.9h-6.4v0.9H425
	V56.8z M432.7,58h-6.4v3.2h6.4V58z M432.7,62.5h-6.4V66h6.4V62.5z M437.2,59.7v-1.2h4.9v-2.1h1.2v2.1h5v1.2h-3.8
	c1,2.1,2.4,3.9,4.2,5.3l-0.9,1.1c-1.9-1.7-3.4-3.9-4.5-6.4v5.1h2.8V66h-2.8v2.2h-1.2V66h-2.7v-1.2h2.7v-5.1c-1,2.5-2.4,4.7-4.3,6.6
	l-0.9-1.1c1.8-1.6,3.1-3.4,4-5.6L437.2,59.7L437.2,59.7z M457.9,57.9c-0.1,0.3-0.2,0.7-0.4,1.1h3.8v5H458c-0.1,0.7,0.2,3.3-0.3,3.7
	c-0.3,0.4-1.7,0.3-2.3,0.3l-0.3-1.2l1.2,0.1c0.3,0,0.4-0.1,0.4-0.4V64h-3.4v-5h2.9c0.2-0.3,0.3-0.7,0.4-1.1h-4.2v2.9
	c0,3.5-0.4,5.9-1.3,7.2l-1.1-0.8c1.5-2.4,1-6.7,1.1-10.4h10.8v1.1H457.9L457.9,57.9z M455.3,64.9c-0.4,1-1.1,1.9-2,2.7l-1-0.7
	c0.8-0.7,1.4-1.4,1.9-2.3L455.3,64.9z M460.1,60.1h-5.6V61h5.6V60.1z M454.5,63.1h5.6V62h-5.6V63.1z M460.9,67.6
	c-0.6-1-1.3-1.8-1.9-2.6l1-0.5c0.5,0.6,1.2,1.4,2,2.4L460.9,67.6L460.9,67.6z M470.4,63.7c0.3,0.6,0.6,1.1,1.1,1.5
	c0.6-0.3,1.2-0.8,1.7-1.3l0.9,0.8c-0.6,0.5-1.1,1-1.7,1.2c0.8,0.5,1.7,0.9,2.8,1.2l-0.7,1.1c-2.2-0.6-4.5-2.2-5.2-4.5h-0.7
	c-0.2,0.2-0.4,0.4-0.6,0.6v2.3c0.7-0.1,1.4-0.2,2.1-0.5v1.1c-1.1,0.3-2.7,0.6-4.9,0.8l-0.2-1.1c0.4,0,1-0.1,1.8-0.2V65
	c-0.9,0.6-1.9,1-3,1.4l-0.5-1c1.5-0.4,2.7-1,3.7-1.7h-3.6v-1.1h5.6c-0.1-0.3-0.3-0.5-0.5-0.7l1.2-0.2c0.1,0.2,0.3,0.5,0.6,0.9h4.7
	v1.1L470.4,63.7L470.4,63.7z M468.2,62.3h-1.1v-1.9h-1.3c-0.2,1-0.6,1.7-1.4,2.3l-0.9-0.7c0.6-0.4,1-0.9,1.1-1.6h-1.3v-0.9h3.6v-0.8
	h-3v-2.2h1.1v1.2h1.9v-1.3h1.1L468.2,62.3L468.2,62.3z M472.4,56.3v1.3h2.7v1.1h-2.7v1.7h2.3v1.1H469v-1.1h2.3v-1.7h-2.5v-1.1h2.5
	v-1.3H472.4z M34.5,30.2h5.2l0.2,1.7c0.4-1.4,3-2.3,4.6-2.3c3.7,0,5.2,2.3,5.2,6.3v8.6H44v-7.7c0-1.5-0.3-2.7-1.8-2.7
	c-1.4,0-2.2,1.5-2.2,2.6v7.8h-5.5V30.2L34.5,30.2z M0.9,44.6V24.3h9.6c5.8,0,8.4,2.8,8.4,6.8c0,4.3-2.4,7.3-8.4,7.3H7.3v6.1
	C7.3,44.6,0.9,44.6,0.9,44.6z M9.9,33.6c1.5,0,3.2-0.3,3.2-2.1c0-1.8-1.8-2.2-3.2-2.2H7.3v4.3H9.9z M98,30.2h5.2l0.2,1.7
	c0.5-1.4,3.1-2.3,4.7-2.3c3.6,0,5.2,2.3,5.2,6.3v8.7h-5.8v-7.8c0-1.5-0.3-2.7-1.9-2.7c-1.4,0-2.1,1.5-2.1,2.6v7.8H98V30.2z
	 M71.5,39.4c0,0.6,0.3,1.4,0.6,1.7c0.9,0.8,3.4,0.9,3.4-0.7c0.1-2.4-8.7-0.3-8.7-6c0-4,3.1-4.9,6.3-4.9c3.2,0,7.6,0.6,7.4,5h-4.8
	c0-0.4-0.2-0.7-0.4-1c-0.3-0.4-0.7-0.6-1.5-0.6c-1-0.1-1.9,0.1-1.9,0.9c0.1,2.2,9,0.7,9,6c0,3.6-2.6,5.3-7.5,5.3
	c-3.1-0.1-7.1-1.7-7.1-5.6L71.5,39.4L71.5,39.4z M130.6,35.8c0.1-0.8-0.7-2.2-2-2.3c-2.2,0-2.7,2.1-2.7,3.8c0,2,0.9,3.6,2.6,3.6
	c1.5,0,2.2-1.4,2.2-2.5h5c0.1,3-1.9,6.5-7.5,6.5c-4.5,0-7.7-3.1-7.7-7.7c0-5.5,4.1-7.6,7.7-7.6c4.8,0,7.5,2.9,7.5,6.2H130.6
	L130.6,35.8z M28.4,44.6l-0.6-1.2c-1.1,0.9-2.2,1.4-4,1.4c-1.8-0.1-5.2-0.3-5.2-4.1c0-6.3,9.4-3.4,9.4-6.5c0-1-1.1-1-1.8-1
	c-1.1,0-1.9,0.2-2.1,1.9h-4.8c0-3,0.9-5.5,7.2-5.5s6.7,3.2,6.7,6.3v6.6c0,0.9,0.1,1.3,0.6,1.9v0.1L28.4,44.6z M28,38
	c-1.9,0.9-4.4,0.9-4.5,2.3c0,0.9,0.5,1.4,1.7,1.4C27,41.6,28.1,39.7,28,38L28,38z M60.6,44.6L60,43.4c-1.1,0.9-2.3,1.4-4,1.4
	c-1.8-0.1-5.3-0.3-5.3-4.1c0-6.3,9.4-3.4,9.4-6.5c0-1-1.2-1-1.8-1c-1.2,0-1.9,0.2-2.1,1.9h-4.8c0-3,0.9-5.5,7.2-5.5s6.7,3.2,6.7,6.3
	v6.6c0,0.9,0.1,1.3,0.6,1.9v0.1L60.6,44.6L60.6,44.6z M60.2,38c-1.9,0.9-4.5,0.9-4.5,2.3c0,0.9,0.5,1.4,1.7,1.4
	C59.2,41.6,60.3,39.7,60.2,38L60.2,38z M119.7,44.5V30.2h-5.3v14.3H119.7z M114.3,28.4h5.3v-4.1h-5.3V28.4z M89.5,29.7
	c4.7,0,7.7,3.3,7.7,7.6c0.1,10.2-15.5,10.2-15.4,0C81.7,32.9,84.7,29.7,89.5,29.7z M86.9,37.3c0,1.8,0.6,3.9,2.5,4
	c3.3,0.2,3.3-8.1,0-7.9C87.5,33.4,87,35.6,86.9,37.3z M139.1,41.7c0.3,0,0.9,0.1,0.9-0.4c0-0.4-0.3-0.5-0.6-0.5h-0.7v0.9H139.1z
	 M140.3,43.1H140l-0.7-1.1h-0.6v1.1h-0.3v-2.5h1c1-0.1,1.3,1.4,0.1,1.3L140.3,43.1z M141.1,42c-0.1-2.6-3.8-2.5-3.8,0
	C137.3,44.4,141,44.5,141.1,42z M137,41.9c0.1-2.9,4.3-2.9,4.3,0C141.3,44.8,137.1,44.8,137,41.9z"/>
</svg>
