<svg width="888" height="85" viewBox="0 0 888 85" fill="none" xmlns="http://www.w3.org/2000/svg">
<g clip-path="url(#clip0_27_1341)">
<path d="M83.4832 23.1975L81.077 34.9378L68.3714 33.5512L69.3982 30.4389H18.545V44.5981C19.0048 60.714 16.1388 74.0721 9.9622 84.6568C8.81272 83.2702 6.75897 81.2056 3.77031 78.4477C1.94646 76.8608 0.689691 75.7206 0 75.0273C4.58261 67.4316 6.63636 57.1858 6.17656 44.29V23.2283H34.0094V14.2459H47.0676V16.6649H79.3604V21.1484H47.0676V23.2283L83.4832 23.1975ZM52.2173 0.764648H65.2754V4.57022H83.8358V12.8593H65.2754V15.2782H52.2173V12.8439H32.2929V16.9884H19.2347V12.8439H1.02687V4.55482H19.2347V0.764648H32.2929V4.57022H52.2173V0.764648ZM19.2347 64.9972L80.3873 64.9818V74.3032H83.4832V81.56L15.8016 81.5754V74.3186H19.2347V64.9972ZM33.3197 31.1476H46.0254V32.5343L65.6126 31.841L66.3023 36.3244L46.3779 37.3567C46.6078 38.2812 47.6346 38.7434 49.4738 38.7434H63.896C65.9651 38.7434 67.2219 38.0501 67.6817 36.6634V35.9701C67.9116 35.5079 68.0188 35.1689 68.0188 34.9378L80.7245 36.3244C80.4946 37.0178 80.1421 37.8189 79.6976 38.7434C79.4677 39.4367 79.3604 39.8989 79.3604 40.13C78.2109 42.8879 75.4675 44.1667 71.1148 43.9356H42.9448C37.6724 43.9356 34.5765 42.4411 33.6722 39.4521L20.9666 40.1454L20.2769 33.582L33.3351 33.243V31.1476H33.3197ZM22.3307 63.2716V45.6612L77.6439 45.6458V63.2562L22.3307 63.2716ZM30.2391 71.2217V74.334H36.431V71.2217H30.2391ZM34.3619 50.1447V52.2093H43.9869V50.1447H34.3619ZM34.3619 56.3692V58.4492H43.9869V56.3692H34.3619ZM46.7304 71.2217V74.334H52.9223V71.2217H46.7304ZM65.6126 50.1447H55.6504V52.2093H65.6126V50.1447ZM55.6504 58.4338H65.6126V56.3538H55.6504V58.4338ZM69.7507 71.2063H63.2217V74.3186H69.7507V71.2063Z" fill="white"/>
<path d="M109.646 23.1973L115.485 25.2619V2.47466H127.516V25.6163L131.639 23.8907C132.099 24.8151 132.788 26.4328 133.708 28.7285C134.398 30.8085 134.965 32.4108 135.425 33.5664V5.58692H147.456V24.9229L150.889 23.5363C152.268 26.9875 153.755 30.562 155.364 34.2443V2.81362H167.733L167.748 82.2531H155.38V47.0169L152.284 48.4035C151.824 47.0168 151.134 45.1834 150.215 42.8723C149.05 39.2054 148.13 36.4321 147.441 34.5832V78.4475H135.409V47.7102L132.666 48.7425C132.206 47.1401 131.409 44.7212 130.26 41.4857C129.11 38.4967 128.191 36.1856 127.516 34.5832V41.84C128.206 60.267 124.436 74.5341 116.19 84.672C112.757 81.4519 109.324 78.4475 105.875 75.6896C112.741 67.1695 115.945 55.537 115.485 40.8078V34.9376C114.795 37.0176 113.876 40.4688 112.741 45.3067C112.052 47.6177 111.592 49.3433 111.362 50.4835L102.779 46.6933C103.009 46 103.469 44.8598 104.159 43.2421C104.389 42.5488 104.618 41.9787 104.848 41.5165L95.5758 45.661C94.6562 43.5965 93.047 39.9141 90.7633 34.6141C89.6138 32.0873 88.8168 30.2384 88.3571 29.0829L99.6986 24.245C100.388 25.6317 101.293 27.4651 102.442 29.7762C104.036 32.9963 105.186 35.4152 105.875 37.033C107.239 32.4108 108.496 27.8041 109.646 23.1973ZM95.2233 49.4512L107.255 53.2414C106.565 56.6926 105.538 61.6537 104.159 68.0939C102.779 74.3184 101.63 79.1408 100.726 82.6075L88.3571 79.4952C90.8706 70.9904 93.1696 60.9758 95.2233 49.4512ZM101.4 1.44238C102.09 2.59792 102.994 4.43138 104.143 6.97356C106.657 11.8114 108.373 15.2626 109.293 17.3272L96.9245 22.504C96.2349 20.9017 95.0854 18.1284 93.4914 14.2149C91.6522 10.3015 90.3955 7.54363 89.7058 5.92588L101.4 1.44238Z" fill="white"/>
<path d="M174.63 5.57205L256.396 5.55664V19.7158H220.318V36.294L226.847 28.6982C236.687 35.6007 245.852 42.3952 254.343 49.0665L244.38 61.1612C235.445 53.5654 227.429 47.1252 220.333 41.8252V82.9315H204.532L204.516 19.7313H174.63V5.57205Z" fill="white"/>
<path d="M260.243 33.8904L344.079 33.875V49.4209L260.243 49.4363V33.8904Z" fill="white"/>
<path d="M360.279 30.0694C360.969 33.2895 361.873 37.7884 363.023 43.5352C364.172 49.2975 364.969 53.9043 365.429 57.3555C366.333 53.9043 367.483 48.9586 368.862 42.503C370.012 36.9718 370.916 32.8272 371.605 30.0694L383.974 32.8272C383.054 35.5851 381.92 39.7297 380.541 45.2608C378.027 53.781 376.188 60.1134 375.054 64.2579C378.027 63.7957 380.893 63.4567 383.637 63.2256C383.407 66.9079 383.3 70.9446 383.3 75.3203C379.866 76.0136 374.487 76.8148 367.145 77.7392C359.36 78.8947 353.29 79.8192 348.938 80.4971L346.531 67.0312C350.424 66.8001 356.156 66.23 363.712 65.3056C364.402 63.2256 364.862 61.2843 365.092 59.4355L354.103 61.8544C353.183 55.8764 351.696 47.4641 349.627 36.6482C349.168 34.8148 348.815 33.3203 348.6 32.1647L360.279 30.0694ZM347.574 28.3438V15.5712H359.252V1.75094H373.337V15.5712H385.369V28.3438H347.574ZM398.074 1.05762H411.822V14.1845H430.382V26.6181H411.822V38.0195H427.976V83.2704H414.918V77.7238H398.427V83.255H385.369V38.0041H398.074V1.05762ZM398.411 50.792V65.9835H414.903V50.792H398.411Z" fill="white"/>
<path d="M506.402 0.6875H519.797V5.17099H540.411V14.8467H519.797V17.6046H506.402V14.8467H491.29V17.6046H477.894V14.8467H457.28V5.17099H477.894V0.6875H491.29V5.17099H506.402V0.6875ZM466.553 49.0507V18.6523L531.491 18.6369V49.0353H505.038V52.4865H536.993V73.5481C537.223 79.5261 534.127 82.6383 527.721 82.8694C525.652 83.1006 522.449 83.2084 518.096 83.2084C517.866 82.7462 517.636 81.8218 517.406 80.4505C516.946 79.295 516.594 78.386 516.379 77.6926L512.594 78.386C512.134 76.9993 511.904 75.6281 511.904 74.2414C502.739 74.7036 491.397 75.1658 477.894 75.6281L476.515 66.6457H492.669V61.8078H474.109V83.5628H461.051V52.4711H492.654V49.0199L466.553 49.0507ZM479.259 26.9414V30.3926H492.654V26.9414H479.259ZM479.274 37.3104V40.7616H492.669V37.3104H479.274ZM518.77 26.9414H505.022V30.3926H518.77V26.9414ZM518.785 40.7462V37.295H505.038V40.7462H518.785ZM518.096 62.1622C518.785 66.0756 519.69 69.989 520.839 73.9025C523.123 73.9025 524.272 72.978 524.272 71.1446V61.8232H505.038V66.3067C506.632 66.3067 508.241 66.3067 509.85 66.3067C509.85 65.8445 509.728 65.2744 509.513 64.5811C509.513 63.8878 509.39 63.4256 509.176 63.1945L518.096 62.1622Z" fill="white"/>
<path d="M613.993 20.7013L625.335 25.5392C622.592 31.7637 619.726 37.4027 616.752 42.4563L606.1 37.2795V45.2296H627.052V58.0022H606.1V83.5627H592.353V58.0022H573.118C573.118 59.3888 573.225 61.2223 573.455 63.5333C573.455 66.0755 573.578 67.909 573.808 69.0645C570.374 69.989 565.792 71.2523 560.06 72.8701C553.868 74.2567 549.178 75.3969 545.975 76.3213L543.231 63.1944C546.434 62.5011 549.53 61.8077 552.504 61.1144V33.4893H544.595V20.3624H552.504V1.02637H565.562V20.3624H572.428V33.4893H565.562V57.6632C566.252 57.6632 567.156 57.4321 568.305 56.9699C569.685 56.7388 570.819 56.5077 571.738 56.2766V45.2296H592.353V36.9405L581.701 42.4717C578.497 35.8004 575.631 30.3925 573.118 26.2479L584.107 20.7168C585.486 23.2589 587.31 26.479 589.609 30.3925C590.759 32.457 591.663 34.0748 592.353 35.2303V17.6199H574.145V5.18631H624.308V17.6199H606.1V36.617C609.533 30.3771 612.17 25.077 613.993 20.7013Z" fill="white"/>
<path d="M628.14 38.3115C638.669 30.9468 646.01 22.0723 650.118 11.7186L663.513 17.2498C657.107 31.3012 648.401 42.4714 637.412 50.7605C636.263 49.1581 634.209 46.3848 631.22 42.4714C629.856 40.6225 628.829 39.2359 628.14 38.3115ZM685.859 44.8749C689.982 49.7128 696.511 58.0018 705.446 69.7421C707.73 72.7311 709.447 74.9189 710.596 76.3056L698.228 84.2557C697.768 83.7935 697.201 82.9923 696.511 81.8368C695.362 79.7722 694.442 78.2623 693.768 77.3533C678.196 78.0466 659.758 79.31 638.454 81.1589L634.669 68.7253L641.198 68.3863C651.267 54.566 659.636 41.4391 666.272 29.0055L680.357 35.9079C677.828 39.3591 672.801 46.5081 665.245 57.3239C662.042 61.9307 659.743 65.274 658.379 67.3386L685.522 65.952L675.56 51.7927L685.859 44.8749ZM715.409 33.1192C714.719 34.5059 713.462 36.6937 711.638 39.6827C709.799 42.9028 708.435 45.2139 707.516 46.5851C693.538 38.0649 683.576 26.5558 677.614 12.0576H655.62V1.34961H687.913C694.105 15.8632 703.27 26.4479 715.409 33.1192Z" fill="white"/>
<path d="M719.593 83.5477L719.578 3.07595L797.911 3.06055L797.926 83.5323H784.531V80.0811H732.988V83.5323L719.593 83.5477ZM782.462 32.7656H735.042V26.2021H752.913V23.7832H737.111V16.8808H752.913V13.0752H732.988V56.9395C740.084 54.8595 745.357 52.795 748.79 50.715H737.801V35.5235H779.719V49.6827L784.179 53.4883C782.339 55.3371 780.516 56.8316 778.676 57.9718L784.516 60.7297V13.0598H764.591V16.8654H780.056V23.7678H764.591V26.1867H782.462V32.7656ZM737.111 65.5829C736.881 65.1207 736.529 64.5506 736.084 63.8573C734.705 61.3305 733.678 59.6049 732.988 58.6805V71.4531H784.531V61.4384L779.719 68.3408C777.665 67.1853 773.879 65.2286 768.377 62.4707C768.377 63.164 768.254 64.1963 768.04 65.5829C768.04 66.9696 767.917 68.0019 767.703 68.6952C760.606 69.1574 752.131 69.974 742.276 71.1141L740.897 64.8896L749.832 63.8573V59.7128C746.399 61.7928 742.153 63.7495 737.111 65.5829ZM749.479 41.748V44.5059H768.024V41.748H749.479ZM766.323 52.456L771.136 54.536C772.73 53.3804 774.232 52.117 775.596 50.7304H762.2L760.821 52.117V63.164L768.377 62.4707L761.158 58.6805L766.323 52.456Z" fill="white"/>
<path d="M870.129 6.51165L878.038 0.980469C881.931 4.8939 884.797 7.88289 886.636 9.96286L881.134 13.7684H886.973V25.8631H869.455C869.915 32.5498 870.252 38.2967 870.482 43.1345C872.536 38.99 874.375 34.5065 875.984 29.6687L886.636 34.1521C882.513 44.9834 878.053 54.0737 873.241 61.4383C873.241 61.6694 873.348 62.1316 873.578 62.8249C874.038 64.8895 874.605 66.5073 875.294 67.6628C875.524 68.5872 875.754 69.0494 875.984 69.0494C876.214 68.8183 876.444 68.2483 876.674 67.3238C877.134 65.7215 877.578 62.486 878.053 57.6481C878.053 58.1103 878.16 57.5403 878.39 55.9225C881.364 57.3092 884.582 58.5726 888.015 59.7127C887.326 65.475 886.406 70.1896 885.272 73.8719C884.122 79.8499 881.026 82.9621 875.999 83.1932C871.187 83.4243 867.187 80.2042 863.968 73.5329C860.765 76.753 857.102 80.2042 852.979 83.902C850.68 81.1441 847.937 78.1397 844.733 74.9196C850.925 70.3128 856.182 65.3671 860.535 60.067C858.926 52.0091 857.776 40.6078 857.086 25.8785H840.932V33.4742H856.044C856.044 44.3055 855.922 52.3635 855.707 57.6481C855.707 65.2439 852.611 69.2805 846.435 69.7428C845.515 69.7428 844.488 69.866 843.339 70.0817C842.189 70.0817 841.285 70.0817 840.595 70.0817C840.365 67.786 840.013 65.5982 839.568 63.5183C838.649 70.205 836.595 77.1074 833.392 84.2409C832.012 83.5476 830.066 82.6232 827.552 81.483C825.024 80.3275 823.092 79.4185 821.713 78.7252C821.943 78.2629 822.173 77.6929 822.403 76.9995C824.227 73.7794 825.376 71.1294 825.836 69.0494C825.146 69.2805 823.997 69.6349 822.403 70.0817C815.536 72.1617 809.912 73.764 805.574 74.9196L803.505 61.7927C805.574 61.5615 807.628 61.0993 809.697 60.406V32.0876H804.547V19.315H809.697V1.01128H821.728V19.315H826.188V32.0876H821.728V57.2938C821.958 57.2938 822.188 57.1859 822.418 56.9548C823.322 56.9548 824.702 56.6158 826.541 55.9225C826.541 59.3737 826.541 63.056 826.541 66.9695C828.135 60.745 828.947 52.1169 828.947 41.07V13.7838H856.78C856.55 11.2571 856.443 6.98927 856.427 0.995876H868.796C868.796 5.37152 868.903 9.6239 869.148 13.7684H876.367C874.712 11.6885 872.643 9.26954 870.129 6.51165ZM840.932 44.5058C840.932 49.3436 840.702 53.7193 840.243 57.6327H842.312C844.366 57.6327 845.285 56.7083 845.055 54.8748C845.285 51.6547 845.392 48.2035 845.392 44.5212H840.932V44.5058Z" fill="white"/>
</g>
<defs>
<clipPath id="clip0_27_1341">
<rect width="888" height="84" fill="white" transform="translate(0 0.6875)"/>
</clipPath>
</defs>
</svg>
