<?xml version="1.0" encoding="utf-8"?>
<!-- Generator: Adobe Illustrator 25.4.1, SVG Export Plug-In . SVG Version: 6.00 Build 0)  -->
<svg version="1.1" id="圖層_1" xmlns="http://www.w3.org/2000/svg" xmlns:xlink="http://www.w3.org/1999/xlink" x="0px" y="0px"
	 viewBox="0 0 276.2 119.3" style="enable-background:new 0 0 276.2 119.3;" xml:space="preserve">
<style type="text/css">
	.st0{fill:none;stroke:#000000;stroke-width:0.624;stroke-miterlimit:10;}
</style>
<g id="Group_1573" transform="translate(-12334.375 -2595.687)">
	<path id="Path_891" class="st0" d="M12334.7,2698.1v-85.4c9.2,0,16.6-7.4,16.6-16.6c0,0,0,0,0,0h242.4c0,9.2,7.4,16.6,16.6,16.6h0
		v85.4c-9.2,0-16.6,7.4-16.6,16.6h-242.4C12351.3,2705.5,12343.9,2698.1,12334.7,2698.1z"/>
</g>
<g>
	<path d="M104.9,55.7c-0.1,0.2-0.3,0.3-0.8,0.2c-0.4,0.7-1,1.4-1.7,2.2l0.6,0.3c-0.1,0.2-0.2,0.3-0.6,0.4v10.1
		c0,0.1-0.6,0.5-1.2,0.5h-0.3v-9.7c-0.9,0.9-1.9,1.8-3,2.6L97.9,62c2-2.1,4-5.4,5-7.5L104.9,55.7z M104.7,51.4
		c-0.1,0.2-0.3,0.3-0.7,0.2c-1.2,1.4-3.3,3.4-5.5,4.6L98.3,56c1.7-1.6,3.6-4.1,4.4-5.9L104.7,51.4z M114,55.5c0,0,1.1,1,1.8,1.7
		c0,0.2-0.2,0.3-0.5,0.3h-3v9.4c0,1.3-0.3,2.2-2.6,2.4c0-0.5-0.2-1-0.6-1.2c-0.4-0.3-1-0.5-2.2-0.7V67c0,0,2.7,0.2,3.2,0.2
		c0.4,0,0.5-0.1,0.5-0.5v-9.3h-6l-0.2-0.6h8.5L114,55.5z M105.8,52.7l-0.2-0.6h6.7l1-1.3c0,0,1.1,1,1.7,1.6c0,0.2-0.2,0.3-0.5,0.3
		H105.8z"/>
	<path d="M134.8,55.4c-0.4,3.3-1.2,6.1-2.8,8.4c1.2,1.7,2.7,3.1,4.8,4l-0.1,0.2c-0.7,0.1-1.2,0.6-1.4,1.3c-1.8-1.1-3.1-2.6-4.1-4.4
		c-1.5,1.9-3.6,3.3-6.5,4.4l-0.2-0.3c2.7-1.4,4.7-3.3,6-5.5c-0.8-1.9-1.4-4.1-1.7-6.4c-0.6,1.1-1.3,2-2,2.8l-0.3-0.2
		c0.2-0.4,0.5-0.9,0.7-1.4h-2.8v6.2c1.2-0.3,2.5-0.7,3.8-1.1l0.1,0.3c-1.9,0.9-4.5,2.2-8.2,3.8c-0.1,0.3-0.2,0.5-0.4,0.5l-0.9-2.1
		c0.3-0.1,0.7-0.2,1.2-0.3v-10l1.9,0.2c0,0.2-0.2,0.4-0.6,0.5v8.9c0.5-0.1,1.1-0.3,1.7-0.4V52.7h-3.7l-0.2-0.6h6.4l1-1.3
		c0,0,1.1,0.9,1.7,1.6c-0.1,0.2-0.2,0.3-0.5,0.3h-3.3v5.1h0.9l0.9-1.4c0,0,0.7,0.7,1.3,1.3c0.8-2.2,1.5-4.9,1.8-7.7l2.4,0.6
		c-0.1,0.3-0.3,0.5-0.7,0.5c-0.3,1.3-0.7,2.5-1.1,3.6h4l1-1.4c0,0,1.1,0.9,1.8,1.7c-0.1,0.2-0.2,0.3-0.5,0.3H134.8z M129.7,55.4
		c-0.2,0.4-0.4,0.8-0.6,1.2c0.5,2.2,1.1,4.2,2.1,5.9c1-2.1,1.6-4.4,1.9-7.1H129.7z"/>
	<path d="M144.2,57.6c3.7,2.1,2.5,5,1.3,3.8c-0.1-1-0.7-2.3-1.3-3.3v10.7c0,0.2-0.6,0.6-1.1,0.6h-0.3V60c-0.7,1.8-1.7,3.4-2.9,4.8
		l-0.2-0.3c1.4-2.5,2.4-5.7,2.9-8.9h-2.4l-0.1-0.6h2.9v-5l2.1,0.3c-0.1,0.3-0.2,0.5-0.7,0.6V55h0.4l0.9-1.2c0,0,0.9,0.9,1.5,1.5
		c-0.1,0.2-0.2,0.3-0.5,0.3h-2.3V57.6z M157.5,60.5c-0.2,0.2-0.4,0.3-0.8,0.2c-1,1.5-2,2.7-3.2,3.8c5.3,2.1,4.3,5.7,2.5,4.5
		c-0.5-1.3-1.8-3-2.9-4.2c-2.3,2.1-5,3.5-8,4.5L145,69c4.2-2,7.9-4.8,10.4-9.7L157.5,60.5z M146.4,54.3l-0.2-0.6h8.7l1-1.4
		c0,0,1.1,1,1.7,1.7c0,0.2-0.2,0.3-0.5,0.3h-5.7l1.3,0.6c-0.1,0.2-0.3,0.4-0.7,0.3c-0.8,1.2-2.2,2.6-3.5,3.6c1-0.1,2.5-0.2,4-0.3
		c0.6-0.8,1.1-1.8,1.6-2.7l1.9,1.1c-0.1,0.2-0.3,0.3-0.8,0.2c-2.4,3.9-5.6,6.5-9.5,8.2l-0.2-0.4c2.5-1.5,4.7-3.3,6.5-5.8
		c-1,0.3-2.4,0.7-3.8,1c-0.2,0.2-0.3,0.4-0.5,0.4l-0.6-1.9c0,0,0.3-0.1,0.5-0.2c1-0.9,2.4-3,3-4.3H146.4z M150.1,50
		c4.2,1.3,2.9,4.5,1.4,3.3c-0.2-1-1-2.3-1.6-3.1L150.1,50z"/>
	<path d="M163.4,56.4c1,3.7,0.2,6.3-0.6,7.5c-0.5,0.8-1.3,1.2-1.8,0.7c-0.4-0.4-0.2-1,0.1-1.5c1-1.1,1.9-3.8,1.9-6.7L163.4,56.4z
		 M167.8,54.1c0,0.3-0.2,0.5-0.6,0.6V66c0,0.5,0.2,0.7,1.2,0.7h2.6c1.1,0,2,0,2.4-0.1c0.3,0,0.4-0.1,0.5-0.4
		c0.2-0.4,0.5-1.8,0.8-3.5h0.2l0,3.6c0.6,0.2,0.7,0.4,0.7,0.8c0,0.9-0.8,1.2-4.8,1.2h-2.7c-1.9,0-2.5-0.4-2.5-1.9V53.8L167.8,54.1z
		 M171.1,56c-0.4-1.8-1.8-4.1-2.9-5.6l0.2-0.1C174,53.2,172.8,57.4,171.1,56z M176.9,64.1c-0.3-1.9-0.9-5-2.6-7.1l0.2-0.2
		C180.1,61,178.3,65.9,176.9,64.1z"/>
</g>
</svg>
