<svg xmlns="http://www.w3.org/2000/svg" width="317.188" height="339.188" viewBox="0 0 317.188 339.188">
  <g id="Group_1527" data-name="Group 1527" transform="translate(-282.906 -4467.906)">
    <path id="Path_2187" data-name="Path 2187" d="M567.827,4806.5H315.173a31.673,31.673,0,0,0-31.673-31.673V4500.173a31.673,31.673,0,0,0,31.673-31.673H567.827a31.673,31.673,0,0,0,31.673,31.673v274.654A31.673,31.673,0,0,0,567.827,4806.5Z" fill="none" stroke="#000" stroke-miterlimit="10" stroke-width="1.188"/>
    <g id="Group_1376" data-name="Group 1376">
      <g id="Group_1375" data-name="Group 1375">
        <g id="Group_1374" data-name="Group 1374">
          <g id="Group_1373" data-name="Group 1373">
            <path id="Path_2198" data-name="Path 2198" d="M433.75,4538q1.73.781,1.73,1.877a1.664,1.664,0,0,1-.772,1.365,17.961,17.961,0,0,0-3.523,3.867,43.731,43.731,0,0,1-7.157,7.279,14.1,14.1,0,0,1-4.184,2.957,3.4,3.4,0,0,1-1.653.8c-.378,0-.566-.134-.566-.4a57.965,57.965,0,0,0,6.621-6.631,37.125,37.125,0,0,0,5.959-8.152,6.044,6.044,0,0,0,.662-3.262q0-.4.649-.4A9.536,9.536,0,0,1,433.75,4538Zm.454-13.031q1.984,1.431,1.985,2.486c0,.167-.182.361-.544.584a12.362,12.362,0,0,0-1.023,1.251,36.7,36.7,0,0,1-4.9,5.671,20.958,20.958,0,0,1-4.5,3.17,6.61,6.61,0,0,1-2.248.917c-.229,0-.343-.062-.343-.188,0-.109.137-.247.411-.413a36.567,36.567,0,0,0,4.383-4.382,31.441,31.441,0,0,0,3.63-5.292,6.964,6.964,0,0,0,1.027-3.39q0-1.017.616-1.017A3.183,3.183,0,0,1,434.2,4524.967Zm-3.382,21.836a6.916,6.916,0,0,1,1.464,2.786,7.131,7.131,0,0,1-.294,1.256,38.56,38.56,0,0,0-.353,6.91l-.156,5.938a11.1,11.1,0,0,1-.648,3.231q-.411,1.488-.941,1.488-.708,0-1.3-1.672a11.479,11.479,0,0,1-1-3.536,14.072,14.072,0,0,1,.551-1.5q1.1-2.284,1.1-9.75a21.628,21.628,0,0,0-.89-6.122q0-.645.82-.644Q429.533,4545.183,430.822,4546.8Zm31.891-8.1q1.9.992,1.9,1.548,0,.869-1.225,1.116a9.253,9.253,0,0,1-2.977.31,63.7,63.7,0,0,0-10.393.907q-7.589,1.4-10.118,2.164a3.584,3.584,0,0,1-1.163.349,5.781,5.781,0,0,1-2.138-.859q-1.271-.675-1.271-1.1t1.074-.553q4.665-.744,10.816-1.9,8.991-1.964,11.494-2.574a7.675,7.675,0,0,1,1.419-.338A7.1,7.1,0,0,1,462.713,4538.706Zm-7.059-10.024q.987.471.987,1.178,0,.453-.841.711a25.233,25.233,0,0,1-4.336,1.164,46.566,46.566,0,0,1-6.636.97,6.154,6.154,0,0,1-3.065-.543q-.863-.664-.861-1.148,0-.379,1.243-.442a56.017,56.017,0,0,0,6.436-1.263,25.493,25.493,0,0,0,3.95-1.2,2.225,2.225,0,0,1,.71-.252A5.34,5.34,0,0,1,455.654,4528.682Zm-3.567,13.559a1.369,1.369,0,0,1,.924,1.5,9.921,9.921,0,0,1-.127,1.141,13.966,13.966,0,0,0-.318,3.566q0,4.893.142,7.828.141,3.182.141,6.361,0,4.268-.833,5.905-1.44,2.063-2.348,2.063a1.439,1.439,0,0,1-1.2-.875,30.566,30.566,0,0,0-4.012-4.932q-.854-.636-.854-1.113c0-.208.1-.312.284-.312a2.783,2.783,0,0,1,.99.263,12.9,12.9,0,0,0,3.694,1.316q.69,0,.886-1.427a90.053,90.053,0,0,0,.393-11.408,37.331,37.331,0,0,0-.732-8.157,5.686,5.686,0,0,1-.4-1.7q0-.8.593-.8A7.151,7.151,0,0,1,452.087,4542.241Z"/>
            <path id="Path_2199" data-name="Path 2199" d="M440.268,4616.1q.435,0,.435.575c0,.172-.23.376-.691.615q-2.835,1.639-8.71,4.507-3.182,1.589-7.535,4.046a1.626,1.626,0,0,1-.969.461,4.619,4.619,0,0,1-2.722-1.453q-1.287-1.293-1.287-2.046c0-.134.172-.217.518-.25a11.328,11.328,0,0,0,2.782-.551q5.369-1.45,15.72-5.153A12.784,12.784,0,0,1,440.268,4616.1ZM425.7,4607.06c.655.367.984.772.984,1.212a3.3,3.3,0,0,1-.147.936,8.791,8.791,0,0,0-.2,1.653l.75,11.371h-2.362l-1.5-12.5a4.355,4.355,0,0,0-.483-1.638,1.306,1.306,0,0,1-.339-.656q0-.982.934-.983A6.346,6.346,0,0,1,425.7,4607.06Zm13.3-12.719q.91.437.911,1.088,0,.524-.961.825a28.706,28.706,0,0,1-4.959,1.35,52.561,52.561,0,0,1-7.59,1.125,5.674,5.674,0,0,1-2.829-.5q-.793-.614-.794-1.06,0-.431,1.41-.5a63.225,63.225,0,0,0,7.3-1.436,28.675,28.675,0,0,0,4.481-1.364,2.518,2.518,0,0,1,.806-.286A4.936,4.936,0,0,1,438.995,4594.341Zm-5.641,3.57q1.074.6,1.074,1.323a3.624,3.624,0,0,1-.16,1.021,9.6,9.6,0,0,0-.214,1.8l-.286,17.764H431.19l-.535-19a4.739,4.739,0,0,0-.528-1.787,1.425,1.425,0,0,1-.368-.715q0-1.073,1.019-1.073A6.943,6.943,0,0,1,433.354,4597.911Zm5.034,7.391q1.32.687,1.319,1.22,0,.432-.95.72-1.341.24-2.722.527a6.557,6.557,0,0,1-1.34.144,9.589,9.589,0,0,1-2.08-.239q-1.075-.238-1.076-.558,0-.4,1.3-.717,2.734-.954,3.329-1.193a6.352,6.352,0,0,1,.833-.286A7.95,7.95,0,0,1,438.388,4605.3ZM452,4601.311a3.033,3.033,0,0,1,1.163,2.113,4.166,4.166,0,0,1-.417,1.406q-.5,2.02-.833,3.864a25.578,25.578,0,0,1-2.665,9.488,14.19,14.19,0,0,1-6.164,6.5,14.032,14.032,0,0,1-7.163,1.933q-.981,0-.981-.257,0-.441,1.264-.707a18.193,18.193,0,0,0,7.126-4.42,20.016,20.016,0,0,0,4.781-8.042,35.066,35.066,0,0,0,1.083-9.457,8.241,8.241,0,0,0-.224-2,3.169,3.169,0,0,1-.336-1.169q0-.688.856-.688A3.857,3.857,0,0,1,452,4601.311Zm-4.251-15.73q1.986,1.433,1.986,2.486a1.687,1.687,0,0,1-.372.926q-.327.793-.7,1.985a70.8,70.8,0,0,1-3.353,9A23.824,23.824,0,0,1,442.24,4605q-1.165,1.457-1.537,1.455c-.229,0-.342-.062-.342-.188a1.27,1.27,0,0,1,.228-.621,63.189,63.189,0,0,0,2.443-6.592,78.327,78.327,0,0,0,2.023-7.959,25.028,25.028,0,0,0,.572-5.1c0-.679.206-1.017.617-1.017A3.183,3.183,0,0,1,447.75,4585.581Zm-4.116,24.536a23.755,23.755,0,0,1,3.5,4.173,26.5,26.5,0,0,0,5.669,5.651q3.549,3.132,11.707,5.392.9.261.9.782,0,.335-.837.671a23.405,23.405,0,0,1-7.383,1.582,3.823,3.823,0,0,1-2.565-.892q-1.728-1.219-10.053-13.4a11.814,11.814,0,0,0-2.566-2.6q-1.1-.567-1.1-1.3,0-.671,1.09-.672A2.67,2.67,0,0,1,443.634,4610.117Zm14.847-13q1.347.822,1.347,1.292,0,.587-.915.763a59.848,59.848,0,0,0-9.089,1.889q-2.778.726-2.976.727a7.38,7.38,0,0,1-1.758-.236q-1.6-.412-1.6-1.059,0-.266.48-.333a64.639,64.639,0,0,0,10.021-3.2,11.809,11.809,0,0,1,1.957-.666A11.76,11.76,0,0,1,458.481,4597.12Z"/>
            <path id="Path_2200" data-name="Path 2200" d="M430.07,4663.972a3.15,3.15,0,0,1,.066,3.257q-3.144,7.364-5.762,10.558a19.082,19.082,0,0,1-4.4,4.445,3.1,3.1,0,0,1-1.782.834c-.291,0-.435-.111-.435-.336a38.8,38.8,0,0,0,5.857-7.813,50.679,50.679,0,0,0,5.069-11.656c.185-.384.347-.575.485-.575Q429.583,4662.686,430.07,4663.972Zm5.216-2.438q.834.4.835,1,0,.457-.912.719a28.952,28.952,0,0,1-4.7,1.178,53.92,53.92,0,0,1-7.2.982,5.221,5.221,0,0,1-2.594-.459q-.728-.562-.728-.972,0-.376,1.336-.44a64.075,64.075,0,0,0,6.916-1.258,28.808,28.808,0,0,0,4.245-1.194,2.513,2.513,0,0,1,.764-.252A4.525,4.525,0,0,1,435.286,4661.534Zm-4.589-12.565q1.4.969,1.4,1.938a3.292,3.292,0,0,1-.2.866,35.247,35.247,0,0,0-.605,5.249q-.606,9.276-.605,13.658l-.1,17.481a6.857,6.857,0,0,1-.706,2.849q-.5,1.259-1.109,1.26-.3,0-.958-1.374a10.173,10.173,0,0,1-.907-3.352,12.193,12.193,0,0,1,.308-2.349,50.213,50.213,0,0,0,.819-7.048q.666-7.252.666-17.62a59.313,59.313,0,0,0-.351-8.07,9.324,9.324,0,0,0-.6-2.707q-.2-.561-.352-1.021,0-.945.851-.945A6.554,6.554,0,0,1,430.7,4648.969Zm.327,19.382a19.913,19.913,0,0,1,2.449,1.308,6.806,6.806,0,0,1,2.072,2.054,4.236,4.236,0,0,1,.377,1.807,4.435,4.435,0,0,1-.3,1.488,1.026,1.026,0,0,1-.9.607c-.134,0-.334-.14-.6-.423a9.753,9.753,0,0,1-1.668-2.535,27.737,27.737,0,0,0-2-3.259,1.725,1.725,0,0,1-.534-.9q0-.329.225-.329A3.721,3.721,0,0,1,431.024,4668.351ZM455,4662.874a2.472,2.472,0,0,1,1.419,1.965,1.589,1.589,0,0,1-.29.879q-1.594,2.2-2.318,3.292a41.018,41.018,0,0,1-6.236,9.878,24.553,24.553,0,0,1-9.568,7.243,10.457,10.457,0,0,1-3.48,1.318c-.186,0-.28-.1-.28-.309A60.892,60.892,0,0,0,444.3,4678.6a37.521,37.521,0,0,0,5.881-8.545,12.828,12.828,0,0,0,1.708-5.982l-.328-1.453c0-.537.225-.807.673-.807A5.442,5.442,0,0,1,455,4662.874Zm4.415-7.111q1.807,1.247,1.808,1.9-.055.653-1.7.712a89.059,89.059,0,0,0-9.869.978q-3.139.451-8.3,1.73a6.717,6.717,0,0,1-1.233.3,4.443,4.443,0,0,1-2.258-.657q-1.344-.6-1.343-1.135c0-.159.336-.319,1.011-.478q10.457-1.759,17.167-3.31a16.2,16.2,0,0,1,2.964-.634A8.583,8.583,0,0,1,459.415,4655.763Zm-13.993,3.416a4.092,4.092,0,0,1,1.651.921,2.69,2.69,0,0,1,1,1.709,3.652,3.652,0,0,1-.845,1.616q-1.6,2.194-4.793,7.158a2.645,2.645,0,0,0-.375.923.363.363,0,0,0,.41.411q.541,0,3.382-.274a42.662,42.662,0,0,1,4.462-.411c.5,0,.748.151.748.452q0,.51-1.306.8-5.422,1.164-5.422,1.237a13.4,13.4,0,0,0-2.812.8,3.037,3.037,0,0,1-1.4.437q-.536,0-1.012-1.043a3.335,3.335,0,0,1-.594-1.628c0-.324.236-.647.709-.971q1.417-1.068,3.544-5.147a21.355,21.355,0,0,0,1.948-5.921Q444.8,4659.18,445.422,4659.179Zm12.367,14.214a2.47,2.47,0,0,1,1.419,1.965.966.966,0,0,1-.242.606q-1.334,1.515-1.94,2.271a28.21,28.21,0,0,1-5.213,6.814,20.632,20.632,0,0,1-8,5,9.985,9.985,0,0,1-2.91.909c-.186,0-.28-.1-.28-.309a47.471,47.471,0,0,0,8.012-5.947,26.31,26.31,0,0,0,4.685-5.948,8.084,8.084,0,0,0,1.361-4.163l-.327-1.453c0-.537.224-.807.672-.807A5.433,5.433,0,0,1,457.789,4673.393ZM447.533,4650.5a5.788,5.788,0,0,1,2.308,2.042,5.33,5.33,0,0,1,.537,2.283q0,2.383-1.9,2.383-.943,0-2.5-3.044-1.776-3.395-1.775-4.215,0-.36.486-.411A5.967,5.967,0,0,1,447.533,4650.5Zm6.4,31.915a31.512,31.512,0,0,1,3.548,1.575,9.207,9.207,0,0,1,3,2.476,4.386,4.386,0,0,1,.545,2.175,4.437,4.437,0,0,1-.3,1.489,1.028,1.028,0,0,1-.9.607,1.832,1.832,0,0,1-.924-.487,11.8,11.8,0,0,1-2.569-2.925,32.082,32.082,0,0,0-3.081-3.762q-.822-.7-.822-1.044c0-.219.075-.329.224-.329A6.386,6.386,0,0,1,453.929,4682.414Z"/>
            <path id="Path_2201" data-name="Path 2201" d="M424.367,4726.806q.321,0,.55.767a8.113,8.113,0,0,1,.826,3.017,18.722,18.722,0,0,1-.951,5.665,8.059,8.059,0,0,1-1.319,3.247q-.513.891-1.1.891a1.685,1.685,0,0,1-1.5-1.018,5.9,5.9,0,0,1-.28-1.831,9.55,9.55,0,0,1,.279-2.186,48.458,48.458,0,0,0,2.935-7.365Q424.018,4726.807,424.367,4726.806Zm7,.894a2.666,2.666,0,0,1,.869,1.688,19.723,19.723,0,0,0,2.493,7.171,12.187,12.187,0,0,0,10.2,5.4,15.507,15.507,0,0,0,6-1.027c.628-.228.944-.571.944-1.028a24.864,24.864,0,0,0-1.43-5.791,4.785,4.785,0,0,1-.357-1.468c0-.24.062-.359.187-.359q.509,0,1.145,1.006a31.012,31.012,0,0,0,6.491,5.958,3.1,3.1,0,0,1,1.528,2.709q0,1.3-3.2,2.933a21.513,21.513,0,0,1-16,.189,14.074,14.074,0,0,1-6.1-4.911,21.057,21.057,0,0,1-3.051-7.083q-.588-2.334-1.116-4.024a4.993,4.993,0,0,0-.528-1.369.585.585,0,0,1,.654-.668A2.129,2.129,0,0,1,431.366,4727.7Zm6.652-8.728a13.2,13.2,0,0,1,4.11,2.168,5.487,5.487,0,0,1,1.208,3.745q0,1.922-1.438,1.921a2.362,2.362,0,0,1-1.582-.828,33.261,33.261,0,0,1-4.467-6.3,1.506,1.506,0,0,1-.372-.746c.065-.3.214-.452.445-.452A5.267,5.267,0,0,1,438.018,4718.972Zm14.974,1.093a37.244,37.244,0,0,1,4.265,1.9,11.04,11.04,0,0,1,3.608,2.98,5.28,5.28,0,0,1,.656,2.621,6.281,6.281,0,0,1-.423,2.109,1.453,1.453,0,0,1-1.27.86,2.1,2.1,0,0,1-1.085-.61,14.388,14.388,0,0,1-3.016-3.656,39.556,39.556,0,0,0-3.619-4.7q-.965-.872-.964-1.306c0-.31.1-.466.317-.466A7.547,7.547,0,0,1,452.992,4720.065Z"/>
          </g>
        </g>
      </g>
    </g>
  </g>
</svg>
