<?xml version="1.0" encoding="utf-8"?>
<!-- Generator: Adobe Illustrator 25.4.1, SVG Export Plug-In . SVG Version: 6.00 Build 0)  -->
<svg version="1.1" id="圖層_1" xmlns="http://www.w3.org/2000/svg" xmlns:xlink="http://www.w3.org/1999/xlink" x="0px" y="0px"
	 viewBox="0 0 317.2 339.2" style="enable-background:new 0 0 317.2 339.2;" xml:space="preserve">
<style type="text/css">
	.st0{fill:none;stroke:#000000;stroke-width:1.188;stroke-miterlimit:10;}
</style>
<g id="Group_1527" transform="translate(-282.906 -4467.906)">
	<path id="Path_2187" class="st0" d="M567.8,4806.5H315.2c0-17.5-14.2-31.7-31.7-31.7v-274.7c17.5,0,31.7-14.2,31.7-31.7h252.7
		c0,17.5,14.2,31.7,31.7,31.7v274.7C582,4774.8,567.8,4789,567.8,4806.5C567.8,4806.5,567.8,4806.5,567.8,4806.5z"/>
</g>
<g>
	<path d="M153.4,67.4c-0.3,0.6-0.8,0.8-2,0.6c-1.2,1.8-2.7,3.8-4.4,5.8l1.7,0.7c-0.2,0.4-0.7,0.8-1.5,1v27.2
		c-0.1,0.4-1.7,1.3-3.3,1.3h-0.8v-26c-2.4,2.5-5.2,4.9-8,6.9l-0.6-0.6c5.4-5.7,10.8-14.4,13.4-20.3L153.4,67.4z M152.7,55.9
		c-0.3,0.6-0.8,0.8-1.9,0.6c-3.3,3.9-9,9.1-14.7,12.4l-0.5-0.6c4.6-4.4,9.6-11.1,11.9-15.8L152.7,55.9z M177.8,66.9
		c0,0,3.1,2.6,4.8,4.4c-0.1,0.6-0.6,0.9-1.3,0.9h-8.2v25.2c0,3.4-0.9,5.9-6.9,6.4c-0.1-1.5-0.6-2.6-1.5-3.3c-1-0.8-2.7-1.3-5.9-1.8
		v-0.8c0,0,7.3,0.6,8.7,0.6c1.1,0,1.4-0.4,1.4-1.2v-25h-16.1l-0.4-1.6h22.8L177.8,66.9z M155.7,59.3l-0.4-1.7h18l2.6-3.6
		c0,0,2.9,2.6,4.7,4.4c-0.1,0.6-0.7,0.9-1.4,0.9H155.7z"/>
	<path d="M177.5,128.4c-1.1,8.8-3.3,16.3-7.4,22.5c3.2,4.5,7.3,8.2,12.8,10.8l-0.2,0.6c-1.9,0.3-3.3,1.5-3.8,3.5
		c-4.8-3-8.4-7.1-11-11.8c-4.1,5-9.7,9-17.4,11.9l-0.4-0.7c7.3-3.9,12.5-8.8,16.1-14.6c-2.2-5.1-3.7-10.9-4.6-17.2
		c-1.6,2.9-3.4,5.4-5.3,7.5l-0.7-0.4c0.6-1.2,1.2-2.5,1.8-3.9h-7.5v16.7c3.3-0.9,6.8-1.9,10.3-2.9l0.2,0.8
		c-5,2.5-12.2,5.9-22.1,10.2c-0.2,0.7-0.7,1.2-1.2,1.4l-2.5-5.6c0.9-0.2,1.9-0.4,3.3-0.8v-26.7l5,0.6c-0.1,0.6-0.5,1-1.5,1.2v24
		c1.4-0.3,2.9-0.7,4.5-1.2v-32.9h-9.9l-0.4-1.6h17.2l2.7-3.6c0,0,2.9,2.5,4.7,4.3c-0.2,0.6-0.7,0.9-1.4,0.9h-8.9v13.6h2.3l2.4-3.6
		c0,0,1.9,1.9,3.5,3.5c2.2-5.9,4.1-13.2,4.9-20.6l6.4,1.6c-0.2,0.7-0.8,1.2-1.9,1.3c-0.8,3.5-1.8,6.7-2.9,9.8h10.8l2.6-3.7
		c0,0,3,2.5,4.7,4.4c-0.2,0.6-0.7,0.9-1.3,0.9H177.5z M163.8,128.4c-0.5,1.1-1,2.2-1.5,3.2c1.2,5.8,3,11.2,5.5,15.8
		c2.8-5.6,4.3-11.9,5-19H163.8z"/>
	<path d="M146.7,196c10,5.6,6.7,13.4,3.4,10.2c-0.3-2.7-1.9-6.2-3.4-8.8V226c0,0.6-1.7,1.6-3.1,1.6h-0.8v-25.2
		c-2,4.8-4.6,9.1-7.9,12.9l-0.7-0.7c3.9-6.6,6.4-15.4,7.7-24h-6.5l-0.4-1.6h7.7v-13.4l5.7,0.7c-0.2,0.8-0.5,1.3-1.8,1.6v11.1h1.1
		l2.3-3.3c0,0,2.5,2.4,4.1,4c-0.2,0.6-0.6,0.9-1.3,0.9h-6.3V196z M182.2,203.7c-0.4,0.6-1,0.8-2.1,0.5c-2.6,4-5.4,7.3-8.5,10.2
		c14.3,5.6,11.4,15.4,6.8,12.2c-1.3-3.5-4.8-8-7.8-11.2c-6.2,5.6-13.3,9.3-21.4,12.1l-0.4-0.9c11.4-5.5,21.1-13,28-26.1L182.2,203.7
		z M152.4,187.3l-0.4-1.6h23.3l2.6-3.8c0,0,2.9,2.6,4.6,4.5c-0.1,0.6-0.6,0.9-1.3,0.9h-15.4l3.6,1.6c-0.3,0.5-0.9,1-1.9,0.8
		c-2.2,3.1-5.9,6.9-9.3,9.6c2.8-0.2,6.6-0.4,10.7-0.7c1.5-2.2,3-4.7,4.3-7.3l5.2,3c-0.3,0.6-0.9,0.8-2.1,0.5
		c-6.5,10.5-15,17.4-25.5,22l-0.5-1c6.6-3.9,12.5-8.9,17.3-15.5c-2.8,0.8-6.4,1.9-10.2,2.8c-0.4,0.6-0.8,1-1.3,1.2l-1.7-5.1
		c0,0,0.9-0.2,1.3-0.4c2.8-2.3,6.3-8,8-11.6H152.4z M162.5,175.5c11.3,3.4,7.7,12,3.7,8.8c-0.6-2.8-2.5-6.3-4.2-8.4L162.5,175.5z"/>
	<path d="M141.9,254.6c2.6,9.9,0.6,16.9-1.5,20.1c-1.3,2.2-3.6,3.1-4.8,1.9c-1-1.1-0.6-2.6,0.4-4c2.7-2.9,5.1-10.2,5-17.9
		L141.9,254.6z M153.9,248.3c-0.1,0.7-0.5,1.3-1.7,1.5v30.5c0,1.5,0.5,2,3.2,2h6.9c3.1,0,5.4-0.1,6.3-0.2c0.9-0.1,1.1-0.3,1.4-1
		c0.6-1.2,1.3-4.8,2.2-9.3h0.7l0.1,9.7c1.5,0.6,1.9,1.1,1.9,2c0,2.3-2.2,3.1-12.8,3.1h-7.2c-5.2,0-6.8-1.1-6.8-5.2v-33.9
		L153.9,248.3z M162.6,253.4c-1.1-4.8-4.8-11-7.9-14.9l0.6-0.4C170.4,246,167.2,257.3,162.6,253.4z M178.3,275.1
		c-0.7-5-2.5-13.5-6.9-19.1l0.6-0.5C186.9,266.9,182.1,280,178.3,275.1z"/>
</g>
</svg>
