<?xml version="1.0" encoding="utf-8"?>
<!-- Generator: Adobe Illustrator 25.4.1, SVG Export Plug-In . SVG Version: 6.00 Build 0)  -->
<svg version="1.1" id="圖層_1" xmlns="http://www.w3.org/2000/svg" xmlns:xlink="http://www.w3.org/1999/xlink" x="0px" y="0px"
	 viewBox="0 0 276.2 127.2" style="enable-background:new 0 0 276.2 127.2;" xml:space="preserve">
<style type="text/css">
	.st0{fill:none;stroke:#000000;stroke-width:0.624;stroke-miterlimit:10;}
</style>
<g id="Group_1574" transform="translate(-49.375 -2797.364)">
	<path id="Path_892" class="st0" d="M49.7,2907.6v-93.3c9.2,0,16.6-7.4,16.6-16.6c0,0,0,0,0,0h242.4c0,9.2,7.4,16.6,16.6,16.6h0
		v93.3c-9.2,0-16.6,7.4-16.6,16.6H66.3C66.3,2915.1,58.9,2907.6,49.7,2907.6z"/>
</g>
<g>
	<path d="M101.6,64c0,2.6-0.2,6.6-3.2,9.3l-0.2-0.2c1.7-2.9,1.9-6.3,1.9-9.1v-3.1l1.7,0.8h10.8l1-1.4c0,0,1.1,1,1.9,1.7
		c-0.1,0.2-0.2,0.3-0.5,0.3h-13.5V64z M113.9,55.2c0,0,1.1,0.9,1.8,1.6c-0.1,0.2-0.2,0.3-0.5,0.3H111l1.2,0.9
		c-0.1,0.2-0.3,0.3-0.7,0.1c-0.5,0.4-1.2,0.8-1.9,1.1c2.7,1.3,2.2,2.7,1.2,2.4c-0.6-0.5-1.6-1.1-2.8-1.7c-1.9,0.7-4,1.3-6.1,1.5
		l-0.1-0.3c1.6-0.4,3.4-1.1,4.9-1.8c-1.1-0.5-2.5-1-3.8-1.4l0.1-0.4c2.2,0.2,3.9,0.6,5.1,1c0.9-0.5,1.7-1,2.3-1.5H99.1l-0.2-0.6h8
		c-0.2-0.9-0.9-1.9-1.6-2.5l0.2-0.2c2.8,0.3,3.1,2,2.5,2.7h4.9L113.9,55.2z M113.8,70.6c0,0,1.1,0.9,1.9,1.6
		c-0.1,0.2-0.2,0.3-0.5,0.3h-13.8l-0.2-0.6h6.4v-2.8h-3.7l-0.2-0.6h3.9V66h-3.1c-0.6,1-1.4,1.9-2.1,2.6l-0.3-0.2
		c0.8-1.3,1.7-3.3,2.1-5.5l2,0.7c-0.1,0.2-0.3,0.4-0.7,0.4c-0.2,0.5-0.4,0.9-0.6,1.4h2.8v-2.7l2.1,0.2c0,0.3-0.2,0.5-0.6,0.5v1.9
		h2.3l1-1.3c0,0,1.1,0.9,1.7,1.5c-0.1,0.2-0.2,0.3-0.5,0.3h-4.5v2.5h2l0.9-1.3c0,0,1,0.9,1.7,1.5c-0.1,0.2-0.2,0.3-0.5,0.3h-4.1v2.8
		h3.7L113.8,70.6z"/>
	<path d="M119.1,72.4c1.8-0.9,4-2.6,5.5-4.6l1.7,1.4c-0.1,0.2-0.3,0.2-0.7,0.1c-1.8,1.7-4.4,2.9-6.4,3.4L119.1,72.4z M134.8,56.8
		c0,0,1.1,0.9,1.7,1.5c-0.1,0.2-0.2,0.3-0.5,0.3h-5.4l1.8,0.6c-0.1,0.3-0.3,0.4-0.7,0.4c-0.4,0.6-1.1,1.3-1.8,1.8h2.9l0.9-1.2
		c0,0,1.1,0.9,1.7,1.5c-0.1,0.2-0.2,0.3-0.5,0.3h-6.5V64h3.2l0.9-1.2c0,0,1,0.8,1.6,1.4c-0.1,0.2-0.2,0.3-0.5,0.3h-5.2v2h5l1-1.3
		c0,0,1.1,0.9,1.8,1.6c-0.1,0.2-0.2,0.3-0.5,0.3h-7.2v5.6c0,0.1-0.5,0.5-1.3,0.5h-0.2v-6.1h-7.4l-0.2-0.6h7.5v-2h-5.5l-0.2-0.6h5.7
		v-1.9h-6.5l-0.2-0.6h4.7c-0.1,0-0.2-0.1-0.3-0.2c-0.1-0.8-0.6-1.9-1.1-2.4l0.2-0.1c2.6,0.8,2.5,2.4,1.8,2.8h3.4
		c0.5-0.8,0.9-1.9,1.2-2.8h-11l-0.2-0.6h6.3v-4l2,0.2c0,0.3-0.2,0.5-0.6,0.5v3.2h1.8v-4l2,0.2c0,0.3-0.2,0.5-0.6,0.5v3.2h0.6
		c0.6-1,1.3-2.5,1.8-3.6l2,0.8c-0.1,0.2-0.4,0.4-0.8,0.3c-0.6,0.8-1.6,1.7-2.5,2.4h2.5L134.8,56.8z M121.7,54.6
		c3.9,1.2,2.7,4.3,1.4,3.2c-0.1-1-0.9-2.3-1.6-3L121.7,54.6z M129.5,68.4c9,2.1,6.4,5.4,5,4.1c-1-1.1-2.7-2.6-5.1-3.7L129.5,68.4z"
		/>
	<path d="M155.6,70.2c0,0,1.2,1,2,1.8c-0.1,0.2-0.2,0.3-0.5,0.3h-14.3l-0.6,0.9l-1.8-1.2c0.2-0.2,0.5-0.4,0.8-0.5V54.6l1.8,1H154
		l1-1.4c0,0,1.1,1,1.9,1.7c0,0.2-0.2,0.3-0.5,0.3h-13.8v15.4h11.9L155.6,70.2z M147.1,59.8c-0.5,1.6-1.6,4.8-1.8,5.5
		c-0.2,0.5-0.3,1.1-0.3,1.5c0,0.7,0.5,1.5,0.5,2.8c0,0.8-0.4,1.2-1,1.2c-0.3,0-0.5-0.3-0.6-0.9c0.2-1.8,0.1-2.9-0.2-3.2
		c-0.2-0.2-0.5-0.2-0.8-0.3v-0.5h0.8c0.2,0,0.3,0,0.5-0.4c0.3-0.6,0.3-0.6,2.7-6L147.1,59.8z M143,60.1c3.5,0.6,2.4,3.4,1.1,2.4
		c-0.1-0.8-0.7-1.7-1.3-2.2L143,60.1z M143.8,56.8c3.7,0.9,2.6,3.6,1.4,2.7c-0.2-0.9-0.9-1.9-1.6-2.5L143.8,56.8z M147.5,71.1v-8.9
		c-0.4,0.6-0.8,1.1-1.2,1.5l-0.3-0.2c0.9-1.8,2-4.5,2.6-7l2,0.7c-0.1,0.2-0.3,0.4-0.7,0.4c-0.3,0.7-0.6,1.4-0.9,2l0.2,0.1h5l0.9-1.2
		c0,0,1,0.8,1.6,1.4c-0.1,0.2-0.2,0.3-0.5,0.3h-3.4v2.4h1.2l0.8-1.1c0,0,0.9,0.8,1.4,1.4c-0.1,0.2-0.2,0.3-0.5,0.3h-2.9v2.6h1.2
		l0.8-1c0,0,0.9,0.7,1.4,1.3c-0.1,0.2-0.2,0.3-0.5,0.3h-2.9v2.8h1.5l0.9-1.2c0,0,1,0.8,1.6,1.5c0,0.2-0.2,0.3-0.5,0.3h-7.3v0.6
		c0,0.1-0.5,0.6-1.2,0.6H147.5z M148.9,60.3v2.4h2.5v-2.4H148.9z M151.4,63.3h-2.5v2.6h2.5V63.3z M151.4,66.5h-2.5v2.8h2.5V66.5z
		 M150.9,56.5c3.3,1.2,2,3.7,0.9,2.7c-0.1-0.9-0.6-1.9-1.1-2.6L150.9,56.5z"/>
	<path d="M161.2,62.2c0.5,0,1.1-0.1,1.9-0.3v-6.1h-1.7l-0.2-0.6h7.2l0.9-1.2c0,0,1,0.9,1.7,1.5c0,0.2-0.2,0.3-0.5,0.3h-1.4v7.7
		c0,0.1-0.5,0.4-1.2,0.4h-0.2v-2.3c-1.3,0.5-2.9,1-5.1,1.8c-0.1,0.3-0.3,0.4-0.4,0.5L161.2,62.2z M166.7,66.4
		c-0.1,0.2-0.3,0.4-0.7,0.4c-0.2,0.4-0.3,0.7-0.5,1c3.8,1.7,2.8,4.5,1.4,3.5c-0.2-0.9-1-2.1-1.7-3c-1,1.7-2.3,2.9-3.8,3.6l-0.2-0.3
		c1.5-1.3,2.9-3.4,3.5-6.1L166.7,66.4z M176.1,64.5c-0.2,0.2-0.6,0.2-1-0.1c-1.3,0.2-2.9,0.4-4.7,0.6v7.8c0,0.1-0.5,0.5-1.2,0.5
		h-0.3v-8.2c-2,0.1-4,0.2-6,0.2l-0.1-0.4c4-0.4,9.1-1.3,11.8-2.2L176.1,64.5z M164.5,55.8v1.6h3.2v-1.6H164.5z M164.5,59.5h3.2V58
		h-3.2V59.5z M164.5,61.7c1-0.1,2.1-0.3,3.2-0.5v-1.1h-3.2V61.7z M178.1,56.5c-0.1,0.2-0.3,0.3-0.8,0.3c-0.4,1-1,2-1.7,2.8
		c3,2.2,2.1,4.1,1,3.3c-0.4-0.6-1.1-1.4-2-2.3c-1.2,1.1-2.7,2-4.5,2.6l-0.2-0.3c1.6-0.8,2.9-1.8,3.9-3c-0.9-0.8-2-1.6-3.2-2.3
		l0.2-0.3c1.6,0.5,2.8,1.1,3.8,1.7c0.5-0.8,0.8-1.5,1.1-2.4h-5.2l-0.2-0.6h5.4l0.9-0.9L178.1,56.5z M175.6,65.9
		c-0.1,0.3-0.3,0.4-0.7,0.4c-0.1,0.3-0.2,0.6-0.3,0.8c0.7,1.5,2,2.6,3.4,3.1l0,0.2c-0.6,0.1-0.9,0.6-1.1,1.3c-1.2-0.9-2-2.3-2.5-4.1
		c-0.9,1.8-2.1,3.1-3.5,3.9l-0.2-0.2c1.3-1.4,2.5-3.6,2.9-6.2L175.6,65.9z"/>
</g>
</svg>
