<svg xmlns="http://www.w3.org/2000/svg" width="317.188" height="339.188" viewBox="0 0 317.188 339.188">
  <g id="Group_1528" data-name="Group 1528" transform="translate(-801.906 -4467.906)">
    <path id="Path_2188" data-name="Path 2188" d="M1086.827,4806.5H834.173a31.673,31.673,0,0,0-31.673-31.673V4500.173a31.673,31.673,0,0,0,31.673-31.673h252.654a31.673,31.673,0,0,0,31.673,31.673v274.654A31.673,31.673,0,0,0,1086.827,4806.5Z" fill="none" stroke="#000" stroke-miterlimit="10" stroke-width="1.188"/>
    <g id="Group_1370" data-name="Group 1370">
      <g id="Group_1369" data-name="Group 1369">
        <path id="Path_2190" data-name="Path 2190" d="M949.275,4545.6q1.329.84,1.33,1.558a4.848,4.848,0,0,1-.272.795,16.737,16.737,0,0,0-.818,2.82,70.51,70.51,0,0,1-3.379,9.185,20.634,20.634,0,0,1-3.544,5.5,16.749,16.749,0,0,1-4.2,3.544,5.113,5.113,0,0,1-1.908.723q-.411,0-.411-.264a33.081,33.081,0,0,0,4.29-4.879,24.486,24.486,0,0,0,3.258-5.679,39.749,39.749,0,0,0,2.063-6.628,20.845,20.845,0,0,0,.705-4.587,11.61,11.61,0,0,0-.054-1.253,5.523,5.523,0,0,1-.22-1.135c.148-.516.406-.776.776-.776A5.483,5.483,0,0,1,949.275,4545.6Zm23.023-4.632q1.644.859,1.643,1.342c0,.5-.354.824-1.062.966a8,8,0,0,1-2.58.269,108.59,108.59,0,0,0-11.07.6q-8.085.926-10.779,1.433a5.753,5.753,0,0,1-1.238.231,5.018,5.018,0,0,1-1.853-.745q-1.1-.587-1.1-.958c0-.248.309-.407.93-.479q4.89-.537,11.336-1.366,9.423-1.415,12.045-1.855a11.292,11.292,0,0,1,1.488-.244A6.16,6.16,0,0,1,972.3,4540.972Zm4.658,23.918q1.767,1.065,1.767,1.926,0,.761-2.441.76-3-.1-6.476-.1-3.627,0-9.48.408a59.652,59.652,0,0,0-8.963,1.175,11.251,11.251,0,0,1-1.658.307,6.266,6.266,0,0,1-2.375-.758q-1.679-.81-1.678-1.314,0-.607,1.09-.708a50.656,50.656,0,0,0,7.8-.5q4.7-.552,10.333-.853a82.151,82.151,0,0,0,8.164-1,12.479,12.479,0,0,1,1.5-.2A12.855,12.855,0,0,1,976.956,4564.89Zm-6.476-37.526q1.668,1.151,1.668,1.753-.051.6-1.568.657a101.5,101.5,0,0,0-10.685,1q-3.4.462-8.985,1.772a7.719,7.719,0,0,1-1.336.308,4.108,4.108,0,0,1-2.084-.607q-1.24-.551-1.24-1.048,0-.219.934-.441,11.259-1.759,18.486-3.31a18.609,18.609,0,0,1,3.191-.634A7.922,7.922,0,0,1,970.48,4527.364ZM955.49,4547.7q1.331.6,1.331,1.444a.957.957,0,0,1-.338.734,9.234,9.234,0,0,0-1.545,2.081,22.063,22.063,0,0,1-3.14,3.918,6.334,6.334,0,0,1-1.835,1.591,1.39,1.39,0,0,1-.725.428c-.291,0-.435-.1-.435-.309a30.337,30.337,0,0,0,2.235-3.719,23.777,23.777,0,0,0,2.011-4.573,5.311,5.311,0,0,0,.223-1.829c0-.206.166-.308.5-.308A7.266,7.266,0,0,1,955.49,4547.7Zm9.457-16.975a2.787,2.787,0,0,1,.889,1.648q0,.492-.773.986-.855.642-1.456,1.184a42.739,42.739,0,0,1-5.487,4.835,16.832,16.832,0,0,1-4.93,2.515,9.317,9.317,0,0,1-2.358.443c-.8-.034-1.2-.158-1.2-.369a42.582,42.582,0,0,0,4.685-2.6,45.032,45.032,0,0,0,4.938-4.156,19.335,19.335,0,0,0,3.082-3.555,5.573,5.573,0,0,0,.59-1.252c.132-.37.329-.554.592-.554A3.18,3.18,0,0,1,964.947,4530.722Zm4.5,19.878q.911.437.911,1.088,0,.422-.96.661a34.391,34.391,0,0,1-4.959,1.081,65.021,65.021,0,0,1-7.59.9,5.667,5.667,0,0,1-2.829-.5q-.8-.614-.794-1.06,0-.351,1.409-.41,3.322-.352,7.3-1.172a33.9,33.9,0,0,0,4.48-1.114,2.919,2.919,0,0,1,.806-.235A4.924,4.924,0,0,1,969.444,4550.6Zm-.737,6.875q1.449.567,1.449.97,0,.647-1.756,1.05-1.781.193-3.012.383-1.1.193-5.616.959a26.335,26.335,0,0,1-3.561.384,6.019,6.019,0,0,1-1.868-.247q-1.121-.411-1.12-.9,0-.739,1.756-.821,5.151-.726,10.017-1.888,1.431-.291,1.574-.29A11.188,11.188,0,0,1,968.707,4557.475ZM954.844,4533.5q5.288,1.51,8.446,2.607a23.7,23.7,0,0,1,3.159,1.392q1.029.593,1.03,1.006,0,2.517-1.307,2.517a1.563,1.563,0,0,1-.792-.17q-.432-.236-1.152-.71a111.715,111.715,0,0,0-10.154-6.059.646.646,0,0,1-.288-.474c0-.171.078-.257.234-.257A4.491,4.491,0,0,1,954.844,4533.5Zm5.188-10.6a5.123,5.123,0,0,1,2.13,1.543,3.443,3.443,0,0,1,.5,1.724q0,2.583-2.064,2.582-.82,0-2.171-2.571a12.213,12.213,0,0,1-1.543-3.558q0-.39.526-.445A6.392,6.392,0,0,1,960.032,4522.9Zm2.491,21.576q.984.55.984,1.212a3.3,3.3,0,0,1-.147.936,8.776,8.776,0,0,0-.2,1.652l-.445,17.946h-2.363l-.308-19.075a4.352,4.352,0,0,0-.483-1.639,1.3,1.3,0,0,1-.339-.655q0-.984.935-.983A6.346,6.346,0,0,1,962.523,4544.474Z"/>
        <path id="Path_2191" data-name="Path 2191" d="M977.771,4593.915q1.55,1.033,1.549,1.9,0,.817-1.251.816-1.1,0-2.8-.1t-3.753-.1a88.053,88.053,0,0,0-12.326,1.054,65.4,65.4,0,0,0-12.327,2.561,11.186,11.186,0,0,1-2.528.9,4.637,4.637,0,0,1-2.276-1.163q-1.386-.94-1.385-1.384,0-.8,1.1-.911a47.1,47.1,0,0,0,7.984-.911q9.766-1.479,12.994-1.822,2.716-.341,7.728-.91,4.587-.91,4.841-.911A7.234,7.234,0,0,1,977.771,4593.915Zm-23.369,27.4a2.135,2.135,0,0,1,.944,1.607q0,.239-.488.513a5.177,5.177,0,0,0-.7.751q-.906.957-2.019,2.051a24.772,24.772,0,0,1-3.411,2.359,20.706,20.706,0,0,1-3.2,1.333,9.844,9.844,0,0,1-1.671.409c-.348,0-.523-.08-.523-.239a22.643,22.643,0,0,0,2.822-2.2,30.963,30.963,0,0,0,3.691-3.528,12.343,12.343,0,0,0,1.735-2.428,1.657,1.657,0,0,0,.362-.987q0-.478.5-.479A2.779,2.779,0,0,1,954.4,4621.317Zm20.163-6.989q1.767,1.066,1.767,1.926,0,.761-2.44.76-2.894-.094-6.234-.1-3.489,0-9.125.5a45.551,45.551,0,0,0-8.626,1.448,8.778,8.778,0,0,1-1.6.378,6.252,6.252,0,0,1-2.376-.759q-1.679-.808-1.677-1.314,0-.606,1.089-.708a40.432,40.432,0,0,0,7.522-.588q4.535-.647,9.964-1a66.172,66.172,0,0,0,7.87-1.176,10.125,10.125,0,0,1,1.445-.235A12.911,12.911,0,0,1,974.565,4614.328Zm-26.751-25.057a8.408,8.408,0,0,1,2.679,1.529,4.09,4.09,0,0,1,.787,2.643q0,1.4-1.046,1.4a1.461,1.461,0,0,1-1.012-.589,23.532,23.532,0,0,1-2.858-4.47,1.121,1.121,0,0,1-.239-.53c.048-.218.156-.328.324-.328A3.225,3.225,0,0,1,947.814,4589.271Zm22.068,14.047q1.668,1.151,1.669,1.753-.051.6-1.569.658-4.055.109-9.266.716-2.949.332-7.792,1.267a7.892,7.892,0,0,1-1.158.222,4.115,4.115,0,0,1-2.084-.607q-1.242-.552-1.241-1.048,0-.22.934-.441,9.812-1.37,16.108-2.575a17.982,17.982,0,0,1,2.781-.493A7.9,7.9,0,0,1,969.882,4603.318Zm-1.653,5.822c.886.345,1.33.642,1.33.888q0,.593-1.61.963-2.187.2-3.7.4-1.348.2-6.9,1a37.826,37.826,0,0,1-4.375.4,5.525,5.525,0,0,1-1.712-.226q-1.027-.376-1.028-.829,0-.676,1.61-.753,6.411-.738,12.468-1.92,1.782-.3,1.959-.295A10.207,10.207,0,0,1,968.229,4609.14Zm-14.258-10.392a8.107,8.107,0,0,1,2.64,1.767,5.3,5.3,0,0,1,.777,3.053q0,1.571-1.177,1.571-.459,0-.974-.676a28.239,28.239,0,0,1-2.747-5.139,1.428,1.428,0,0,1-.229-.608c.053-.247.175-.37.364-.37A2.806,2.806,0,0,1,953.971,4598.748Zm.978-13.44q1.719.658,1.719,1.591,0,.779,0,1.623-.03,5.172-.031,7.133a3.471,3.471,0,0,1-.249,1.445c-.166.393-.366.588-.6.588q-.4,0-.8-.709a3.917,3.917,0,0,1-.648-1.965l-.363-3.3a28.1,28.1,0,0,0-.456-3.607,4.406,4.406,0,0,0-.787-1.959c-.162-.16-.243-.275-.243-.343q0-.828.639-.828A4.688,4.688,0,0,1,954.949,4585.308Zm5.753,20.622a1.183,1.183,0,0,1,.639,1.029,7.957,7.957,0,0,1-.227,1.425,41.067,41.067,0,0,0-.38,6.014v6.982q0,3.311.162,5.69.079,1.292.081,2.12a4.849,4.849,0,0,1-.5,2.295q-.646,1.266-1.222,1.266t-1.149-1.422a6.564,6.564,0,0,1-.647-2.451q.07-.311.212-1.135a26.255,26.255,0,0,0,.354-5.626v-7.9q0-5.922-.529-7.264a4.494,4.494,0,0,1-.2-.948c0-.578.308-.869.923-.869A4.719,4.719,0,0,1,960.7,4605.93Zm2.618-22.537c.656.367.984.772.984,1.212a3.3,3.3,0,0,1-.147.936,8.793,8.793,0,0,0-.2,1.653l-.844,8.961h-2.362l.09-10.091a4.36,4.36,0,0,0-.483-1.639,1.3,1.3,0,0,1-.339-.655q0-.982.934-.983A6.346,6.346,0,0,1,963.32,4583.393Zm1.689,13.493q1.212.864,1.213,1.529,0,.171-.509.689-.6.949-1.1,1.9a15.26,15.26,0,0,1-2.8,3.448c-.509.461-.849.69-1.018.69-.229-.044-.342-.157-.342-.339a42.655,42.655,0,0,0,1.864-4.278,8.27,8.27,0,0,0,.414-2.183,7,7,0,0,0-.206-1.324q.121-.861.728-.86A3.487,3.487,0,0,1,965.009,4596.886Zm.87,23.452a35.006,35.006,0,0,1,4.181,2.078,11.237,11.237,0,0,1,3.538,3.264,6.35,6.35,0,0,1,.642,2.87,3.325,3.325,0,0,1-.224,1.117.769.769,0,0,1-.672.455,2.3,2.3,0,0,1-1.142-.583,14.276,14.276,0,0,1-3.171-3.5,38.816,38.816,0,0,0-3.8-4.5c-.678-.555-1.015-.972-1.015-1.249,0-.165.056-.247.168-.247A6.7,6.7,0,0,1,965.879,4620.338Zm4.277-35.14a3.932,3.932,0,0,1,1.881,1.14,2.761,2.761,0,0,1,1.22,1.9,1.147,1.147,0,0,1-.749,1.02,18.566,18.566,0,0,0-3.061,1.723q-3.062,2.108-3.674,2.1c-.174,0-.261-.1-.261-.314a.242.242,0,0,1,.187-.261,16.932,16.932,0,0,0,2.318-3.022,19.921,19.921,0,0,0,1.693-3.747C969.829,4585.379,969.977,4585.2,970.156,4585.2Z"/>
        <path id="Path_2192" data-name="Path 2192" d="M972.532,4648.311q1.808,1.248,1.808,1.9-.056.653-1.7.712-6.4.152-14.632.978-4.656.453-12.3,1.73a14.113,14.113,0,0,1-1.829.3,4.455,4.455,0,0,1-2.258-.658q-1.344-.6-1.344-1.135,0-.239,1.012-.477,15.32-1.761,25.152-3.31a33.787,33.787,0,0,1,4.342-.635A8.583,8.583,0,0,1,972.532,4648.311Zm-27.508,4.246a1.578,1.578,0,0,1,.98,1.571,7.906,7.906,0,0,1-.169,1.386,19.914,19.914,0,0,0-.252,3.653q0,10.835-.253,15.243-.339,6.55-.338,11.589,0,1.6.81,1.6,3.023,0,21.169-1.961,6.351-.6,8.467-.6a3.926,3.926,0,0,1,2.538,1.322,2.707,2.707,0,0,1,1.145,2.026q0,.881-1.295.881-.975,0-3.658-.245-3.17-.246-6.584-.245-6.242,0-14.163.694a26.356,26.356,0,0,0-8.162,1.8,4.942,4.942,0,0,1-1.68.556q-.648,0-1.376-1.083a4.311,4.311,0,0,1-1.133-2.167,4.986,4.986,0,0,1,.445-1.81,15.585,15.585,0,0,0,.888-4.345q.444-7.723.445-17.378,0-8.349-1-10.616a3.584,3.584,0,0,1-.5-1.551q0-.935,1.224-.934A6.21,6.21,0,0,1,945.024,4652.557Zm3.891,12.977a9.23,9.23,0,0,1,2.491.967,2.064,2.064,0,0,1,.734,1.669q0,1.746-1.308,1.747a1.342,1.342,0,0,1-.885-.441,17.735,17.735,0,0,1-2.5-3.353.788.788,0,0,1-.208-.4q.09-.411.405-.411A4.2,4.2,0,0,1,948.915,4665.534Zm5.593,4.6c.206,0,.308.139.308.415a7.369,7.369,0,0,1-.513,2.044q-.94,2.791-2.482,6.487-.513,1.377-1.112,3.459-.385,1.5-.941,1.494t-1.232-1.564a13.085,13.085,0,0,1-.891-3.22,1.143,1.143,0,0,1,.635-.955,7.568,7.568,0,0,0,2.16-2.095,38.481,38.481,0,0,0,3.6-5.771A.686.686,0,0,1,954.508,4670.135Zm-4.759-12.959a10.727,10.727,0,0,1,2.564.834,1.671,1.671,0,0,1,.754,1.439q0,1.92-1.438,1.921a1.407,1.407,0,0,1-.9-.413,16.843,16.843,0,0,1-2.527-3.145.719.719,0,0,1-.211-.373c.066-.3.214-.452.445-.452A5.074,5.074,0,0,1,949.749,4657.176Zm10.722-2.934q1.33.6,1.331,1.444a1.229,1.229,0,0,1-.4.918,11.527,11.527,0,0,0-1.83,2.6,27.277,27.277,0,0,1-3.717,4.9,7.585,7.585,0,0,1-2.172,1.989c-.382.358-.668.536-.858.536-.291,0-.435-.1-.435-.308a36.5,36.5,0,0,0,2.932-4.525,27.9,27.9,0,0,0,2.638-5.562,6.011,6.011,0,0,0,.294-2.226c0-.2.165-.308.5-.308A7.255,7.255,0,0,1,960.471,4654.242Zm-2.3,7.5a5.312,5.312,0,0,1,1.127,2.143,14.014,14.014,0,0,1-.227,1.58,79.18,79.18,0,0,0-.271,8.692l.186,7.471a8.541,8.541,0,0,1-.5,2.486q-.316,1.145-.724,1.144-.545,0-1-1.286a8.817,8.817,0,0,1-.77-2.72q.047-.462.322-2.079.644-3.156.643-13.473a16.64,16.64,0,0,0-.685-4.709c0-.33.211-.5.632-.5Q957.18,4660.493,958.172,4661.74Zm15.014-1.515q1.154.7,1.154,1.107c0,.335-.262.554-.784.654q-3.9.257-10.149,1.325-3.1.511-3.324.51a6.334,6.334,0,0,1-1.506-.2q-1.371-.353-1.37-.908c0-.135.177-.219.531-.254a97.034,97.034,0,0,0,11.109-2.431,17.536,17.536,0,0,1,2.169-.506A10.127,10.127,0,0,1,973.186,4660.225Zm1.755,17.608q1.391.726,1.391,1.136,0,.636-.9.818a6.817,6.817,0,0,1-2.183.227q-2.985,0-6.3.294-4.6.451-6.137.7a3.74,3.74,0,0,1-.705.113,4.237,4.237,0,0,1-1.567-.63c-.622-.331-.933-.6-.933-.811s.263-.345.788-.405q2.88-.328,6.679-.837,5.551-.867,7.1-1.136a6.542,6.542,0,0,1,.877-.15A5.215,5.215,0,0,1,974.941,4677.833Zm-2.8-11.552c.8.315,1.208.584,1.208.808q0,.539-1.463.875-1.635.162-2.766.32-1.007.16-5.153.8a26.6,26.6,0,0,1-3.269.32,5.023,5.023,0,0,1-1.556-.206c-.622-.227-.934-.479-.934-.753q0-.616,1.463-.685,4.75-.6,9.238-1.572c.88-.161,1.363-.243,1.451-.243A9.357,9.357,0,0,1,972.136,4666.281Zm.2,5.478q1.207.473,1.208.808,0,.54-1.463.876-1.664.137-2.815.27-1.023.137-5.245.679a32.5,32.5,0,0,1-3.327.27,5.025,5.025,0,0,1-1.556-.205q-.933-.342-.934-.754,0-.617,1.463-.684,4.84-.532,9.41-1.383c.9-.142,1.388-.213,1.479-.213A9.335,9.335,0,0,1,972.335,4671.759Zm-7.359-16.673a7.452,7.452,0,0,1,2.343,1.279,3.3,3.3,0,0,1,.689,2.207q0,1.922-1.438,1.921-.375,0-.8-.552a23.071,23.071,0,0,1-2.25-4.2,1.167,1.167,0,0,1-.187-.5c.065-.3.214-.453.445-.453A2.924,2.924,0,0,1,964.976,4655.086Zm-.062,6.722h2.995q-.442,8.079-.442,16.768v1.2h-2.59q.2-3.27.2-4.808Q965.079,4667.332,964.914,4661.808Z"/>
        <path id="Path_2193" data-name="Path 2193" d="M940.361,4727.175a6.353,6.353,0,0,1,.978.123c.621.082,1.012.123,1.176.123a12.759,12.759,0,0,0,2.017-.283q6.525-1.985,9.136-3.117a2.954,2.954,0,0,1,.949-.284q1.2,0,1.2.658t-1.076,1.074q-7.566,3.225-7.566,3.3a24.466,24.466,0,0,0-2.866,1.5,2.185,2.185,0,0,1-1.156.644,3.592,3.592,0,0,1-2.034-1.209q-1.44-1.485-1.439-1.98Q939.676,4727.174,940.361,4727.175Zm10.743,9.262a2.865,2.865,0,0,1,1.191,1.9c0,.1-.109.241-.327.413a6.178,6.178,0,0,0-.9,1.03,41.693,41.693,0,0,1-4.089,5,23.4,23.4,0,0,1-3.8,3.2,6.447,6.447,0,0,1-2.9,1.186c-.273,0-.411-.038-.411-.114a.441.441,0,0,1,.155-.265,25.157,25.157,0,0,0,3.8-3.77,39.376,39.376,0,0,0,4-5.894,9.136,9.136,0,0,0,1.192-3.452c0-.353.1-.531.307-.531Q949.749,4735.132,951.1,4736.437Zm7.761-27.828q1.528,1.056,1.53,1.606c-.032.368-.511.57-1.438.6a66.241,66.241,0,0,0-7.042.669q-2.241.309-5.921,1.183a4.943,4.943,0,0,1-.88.206,3.767,3.767,0,0,1-1.911-.556q-1.137-.505-1.137-.961,0-.2.856-.4,7.511-1.271,12.331-2.391a11.689,11.689,0,0,1,2.128-.458A7.221,7.221,0,0,1,958.865,4708.609Zm-10.571,3.187q.9.5.894,1.1a3,3,0,0,1-.133.852,8.083,8.083,0,0,0-.178,1.5l-.4,11.992h-2.148l-.281-13.019a3.917,3.917,0,0,0-.439-1.489,1.185,1.185,0,0,1-.308-.6q0-.894.85-.894A5.8,5.8,0,0,1,948.294,4711.8Zm5.435,3.081q1.087.426,1.087.728c0,.324-.439.585-1.316.788q-.558.094-.943.19-.342.094-1.757.476a5.375,5.375,0,0,1-1.113.19,4.5,4.5,0,0,1-1.4-.186q-.84-.308-.841-.677,0-.555,1.317-.616a18.76,18.76,0,0,0,2.908-1.037,3.5,3.5,0,0,1,.457-.159A8.333,8.333,0,0,1,953.729,4714.877Zm.2,4.383q1.086.425,1.087.728,0,.486-1.317.787-.558.1-.943.19-.342.1-1.756.476a5.325,5.325,0,0,1-1.114.19,4.5,4.5,0,0,1-1.4-.185q-.84-.307-.84-.677,0-.555,1.316-.617a18.654,18.654,0,0,0,2.908-1.036,3.461,3.461,0,0,1,.457-.159A8.391,8.391,0,0,1,953.929,4719.26ZM949,4741.9a28.763,28.763,0,0,1,3.209,1.394,8.279,8.279,0,0,1,2.716,2.189,3.814,3.814,0,0,1,.493,1.923,3.7,3.7,0,0,1-.249,1.241.856.856,0,0,1-.747.506,1.7,1.7,0,0,1-.845-.426,10.42,10.42,0,0,1-2.348-2.554,28.329,28.329,0,0,0-2.817-3.285c-.5-.406-.751-.709-.751-.913,0-.182.062-.273.187-.273A5.855,5.855,0,0,1,949,4741.9Zm14.131-12.688q1.109.855,1.109,1.4c0,.431-.26.712-.78.84a11.1,11.1,0,0,0-1.9.841,45.118,45.118,0,0,1-4.919,1.876,15.119,15.119,0,0,1-3.215.517c-1.059,0-1.588-.09-1.588-.274,0-.21.145-.357.432-.441a20.226,20.226,0,0,0,5.85-2.96,10.285,10.285,0,0,0,2.542-2.4c.224-.335.4-.5.527-.5A3.437,3.437,0,0,1,963.127,4729.217Zm-6.411-18.616a1,1,0,0,1,.541.87,6.745,6.745,0,0,1-.193,1.206,34.881,34.881,0,0,0-.321,5.089v4.913q0,2.329.137,4c.045.607.069,1.1.069,1.492a4.105,4.105,0,0,1-.426,1.941q-.547,1.072-1.033,1.072c-.325,0-.65-.4-.973-1.2a5.55,5.55,0,0,1-.547-2.073c.039-.144.1-.411.179-.8a15.345,15.345,0,0,0,.3-3.951v-5.547q0-5.01-.448-6.147a3.82,3.82,0,0,1-.168-.8q0-.735.781-.736A3.992,3.992,0,0,1,956.716,4710.6Zm2.49,22.945q1.251.606,1.251,1.573a37.4,37.4,0,0,0-.232,3.981q0,6.952-.463,12.282a8.112,8.112,0,0,1-.463,3.172q-.537,1.4-.965,1.4-.481,0-1.124-1.426a9.253,9.253,0,0,1-.75-2.971,4.981,4.981,0,0,1,.317-1.114,20.508,20.508,0,0,0,.794-4.308q.159-2.673.159-6.165a16.6,16.6,0,0,0-.594-5.18,2.654,2.654,0,0,1-.377-1.012c0-.515.181-.794.544-.834A3.27,3.27,0,0,1,959.206,4733.546Zm13.755-21.929q1.684.713,1.684,1.536a1.5,1.5,0,0,1-.5.863,6.612,6.612,0,0,0-1.471,2.049,23.4,23.4,0,0,1-4.116,6.527,14.651,14.651,0,0,1-4.7,3.074,11.54,11.54,0,0,1-3.655.7q-.81,0-.809-.4a18.342,18.342,0,0,0,5.847-3.545,17.08,17.08,0,0,0,3.792-4.886,7.125,7.125,0,0,0,1.29-3.492q0-.489-.445-.489-4.822,1.908-7.091,1.907a4.388,4.388,0,0,1-1.539-.275c-.431-.074-.646-.276-.646-.608q0-.275,1.295-.5a40.508,40.508,0,0,0,7.162-2.558,6.013,6.013,0,0,1,1.83-.73A6.922,6.922,0,0,1,972.961,4711.617Zm-3.552,22.31q1.8,1.3,1.806,2.26,0,.272-.446.631a13.1,13.1,0,0,0-.837,1.352,38.749,38.749,0,0,1-4.016,6.131,18.117,18.117,0,0,1-3.681,3.426,4.734,4.734,0,0,1-1.84.992q-.312,0-.312-.171t.322-.437a35.973,35.973,0,0,0,6.27-10.224,9.326,9.326,0,0,0,.8-3.583q0-.924.561-.925A2.906,2.906,0,0,1,969.409,4733.927Zm-7.856-19.053q6.159,3.471,9.838,5.99a25.176,25.176,0,0,1,3.679,3.2,3.873,3.873,0,0,1,1.2,2.314q0,2.183-1.133,2.181a1.34,1.34,0,0,1-.944-.315q-.513-.441-1.371-1.323a138.694,138.694,0,0,0-12.088-11.282,1.438,1.438,0,0,1-.342-.882c0-.148.066-.223.2-.223A3.014,3.014,0,0,1,961.553,4714.874Zm6.345,24.963a26.3,26.3,0,0,0,12.29,8.218q.924.285.925.5,0,.338-.707.631a8.859,8.859,0,0,1-4.28,1.067,2.556,2.556,0,0,1-2.085-.7,67.053,67.053,0,0,1-6.588-8.278,2.585,2.585,0,0,1-.484-1.1q0-.658.448-.658C967.491,4739.515,967.651,4739.623,967.9,4739.837Z"/>
      </g>
    </g>
  </g>
</svg>
