<?xml version="1.0" encoding="utf-8"?>
<!-- Generator: Adobe Illustrator 25.4.1, SVG Export Plug-In . SVG Version: 6.00 Build 0)  -->
<svg version="1.1" id="圖層_1" xmlns="http://www.w3.org/2000/svg" xmlns:xlink="http://www.w3.org/1999/xlink" x="0px" y="0px"
	 viewBox="0 0 317.2 339.2" style="enable-background:new 0 0 317.2 339.2;" xml:space="preserve">
<style type="text/css">
	.st0{fill:none;stroke:#000000;stroke-width:1.188;stroke-miterlimit:10;}
</style>
<path id="Path_2188" class="st0" d="M284.9,338.6H32.3c0-17.5-14.2-31.7-31.7-31.7V32.3c17.5,0,31.7-14.2,31.7-31.7h252.7
	c0,17.5,14.2,31.7,31.7,31.7v274.7C299.1,306.9,284.9,321.1,284.9,338.6C284.9,338.6,284.9,338.6,284.9,338.6z"/>
<g>
	<path d="M144.1,78c0,6.9-0.7,17.8-8.5,25.1l-0.6-0.6c4.7-7.7,5.2-16.9,5.2-24.5v-8.2l4.7,2.1H174l2.7-3.7c0,0,3.1,2.6,5,4.4
		c-0.2,0.6-0.7,0.9-1.4,0.9h-36.2V78z M177.2,54.5c0,0,3.1,2.5,4.9,4.3c-0.2,0.6-0.6,0.9-1.3,0.9h-11.4l3.2,2.3
		c-0.4,0.5-0.8,0.7-1.9,0.3c-1.4,1-3.2,2-5.2,2.9c7.2,3.5,5.9,7.3,3.1,6.5c-1.6-1.3-4.2-3-7.5-4.5c-5,1.9-10.9,3.4-16.3,4.2
		l-0.3-0.8c4.3-1.2,9-2.9,13.3-4.9c-3.1-1.3-6.6-2.6-10.3-3.6l0.3-1c5.9,0.6,10.4,1.6,13.8,2.7c2.3-1.3,4.4-2.6,6.1-3.9h-29.9
		L137,58h21.4c-0.5-2.5-2.4-5.2-4.3-6.7l0.5-0.4c7.6,0.8,8.4,5.4,6.7,7.1h13.2L177.2,54.5z M176.9,95.8c0,0,3.1,2.5,5,4.4
		c-0.2,0.6-0.7,0.9-1.4,0.9h-36.9l-0.5-1.7h17.1v-7.6h-10l-0.4-1.6h10.5v-6.7h-8.4c-1.7,2.8-3.7,5.2-5.8,6.9l-0.7-0.5
		c2.2-3.5,4.4-9,5.6-14.7l5.5,1.9c-0.3,0.6-0.9,1.1-1.9,1.1c-0.5,1.3-1.1,2.5-1.7,3.8h7.5v-7.3l5.7,0.6c-0.1,0.8-0.5,1.3-1.7,1.5
		v5.2h6.3l2.6-3.4c0,0,2.9,2.3,4.7,4.2c-0.2,0.6-0.7,0.9-1.3,0.9h-12.2v6.7h5.4l2.4-3.4c0,0,2.8,2.4,4.5,4.1
		c-0.2,0.6-0.6,0.9-1.3,0.9h-11.1v7.6h10L176.9,95.8z"/>
	<path d="M135.1,162.5c4.8-2.5,10.6-7,14.8-12.3l4.6,3.7c-0.4,0.5-0.9,0.7-1.9,0.3c-4.7,4.5-11.7,7.7-17.1,9L135.1,162.5z
		 M177.2,120.6c0,0,2.9,2.3,4.7,4c-0.2,0.6-0.7,0.9-1.4,0.9h-14.4l4.9,1.6c-0.2,0.7-0.9,1.1-2,1c-1.1,1.6-3,3.4-4.8,4.9h7.9l2.5-3.3
		c0,0,2.9,2.3,4.6,4c-0.2,0.6-0.7,0.9-1.3,0.9h-17.3v5.2h8.6l2.4-3.1c0,0,2.7,2.2,4.4,3.9c-0.2,0.6-0.6,0.9-1.4,0.9h-14v5.5h13.4
		l2.7-3.5c0,0,2.9,2.4,4.7,4.2c-0.2,0.6-0.7,0.9-1.4,0.9h-19.4v15.1c-0.1,0.3-1.3,1.2-3.4,1.2h-0.7v-16.3h-19.7l-0.5-1.6h20.2v-5.5
		h-14.8l-0.4-1.6h15.2v-5.2h-17.3l-0.5-1.6h12.7c-0.3-0.1-0.5-0.3-0.7-0.5c-0.2-2.2-1.7-5-3.1-6.6l0.6-0.4c7,2,6.8,6.5,4.8,7.5h9.2
		c1.2-2.2,2.4-5.2,3.3-7.5h-29.4l-0.4-1.6h16.9v-10.7l5.3,0.6c-0.1,0.7-0.5,1.2-1.6,1.4v8.7h4.8v-10.7l5.4,0.6
		c-0.1,0.7-0.5,1.2-1.6,1.5v8.6h1.7c1.7-2.7,3.6-6.6,4.8-9.5l5.4,2.1c-0.3,0.6-1,1-2,0.8c-1.7,2-4.2,4.6-6.7,6.6h6.6L177.2,120.6z
		 M142.1,114.5c10.6,3.3,7.3,11.6,3.7,8.5c-0.4-2.7-2.4-6.1-4.3-8L142.1,114.5z M163,151.6c24.2,5.6,17.3,14.6,13.4,10.9
		c-2.6-3-7.3-6.8-13.7-10L163,151.6z"/>
	<path d="M176.9,218.1c0,0,3.3,2.7,5.3,4.7c-0.2,0.6-0.6,0.9-1.4,0.9h-38.4l-1.7,2.5l-4.9-3.2c0.5-0.4,1.3-1.1,2.1-1.5v-45.3
		l4.7,2.7h30l2.8-3.8c0,0,3.1,2.6,5,4.5c-0.1,0.6-0.7,0.9-1.4,0.9h-37v41.5h32L176.9,218.1z M154,190.3c-1.3,4.3-4.3,12.9-4.8,14.6
		c-0.4,1.4-0.7,2.9-0.7,4c0.1,1.9,1.4,4,1.2,7.5c-0.1,2-1,3.3-2.7,3.3c-0.8,0-1.4-0.8-1.6-2.3c0.6-4.7,0.3-7.9-0.7-8.5
		c-0.6-0.4-1.3-0.6-2.2-0.7v-1.2h2.1c0.6,0,0.8,0,1.3-1c0.8-1.6,0.8-1.6,7.1-16L154,190.3z M143,191.2c9.3,1.7,6.3,9,3.1,6.5
		c-0.3-2.2-1.9-4.7-3.5-6L143,191.2z M145.2,182.1c9.8,2.3,7,9.8,3.7,7.2c-0.5-2.3-2.5-5.2-4.2-6.8L145.2,182.1z M155.2,220.5v-24
		c-1,1.5-2.1,2.9-3.2,4.2l-0.8-0.5c2.5-4.8,5.3-12,6.9-18.9l5.3,1.9c-0.2,0.6-0.8,1.1-1.9,1.1c-0.7,1.9-1.5,3.7-2.4,5.4l0.5,0.2H173
		l2.4-3.1c0,0,2.6,2.2,4.3,3.9c-0.2,0.6-0.6,0.9-1.3,0.9h-9.1v6.5h3.3l2-2.9c0,0,2.3,2.1,3.9,3.6c-0.2,0.6-0.6,0.9-1.3,0.9h-7.9v6.9
		h3.3l2-2.8c0,0,2.3,2,3.9,3.6c-0.2,0.6-0.6,0.9-1.3,0.9h-7.9v7.5h3.9l2.4-3.3c0,0,2.7,2.2,4.3,4c-0.1,0.6-0.6,0.9-1.3,0.9H159v1.6
		c0,0.4-1.2,1.6-3.1,1.6H155.2z M159,191.5v6.5h6.7v-6.5H159z M165.7,199.6H159v6.9h6.7V199.6z M165.7,208.1H159v7.5h6.7V208.1z
		 M164.3,181.4c8.8,3.2,5.5,10,2.3,7.3c-0.2-2.4-1.6-5.2-2.9-7L164.3,181.4z"/>
	<path d="M135.7,258.4c1.2-0.1,3-0.3,5.1-0.7v-16.4h-4.6l-0.4-1.6h19.3l2.4-3.3c0,0,2.8,2.3,4.6,4c-0.1,0.6-0.7,0.9-1.3,0.9H157V262
		c0,0.2-1.3,1.1-3.2,1.1h-0.7v-6.1c-3.4,1.2-7.9,2.8-13.8,4.7c-0.3,0.7-0.7,1.1-1.1,1.2L135.7,258.4z M150.7,269.7
		c-0.2,0.6-0.9,1.1-2,1c-0.4,1-0.8,1.9-1.3,2.7c10.1,4.5,7.4,12.1,3.8,9.3c-0.6-2.5-2.6-5.7-4.5-8c-2.7,4.6-6.2,7.7-10.2,9.7
		l-0.6-0.7c4.1-3.4,7.7-9,9.4-16.3L150.7,269.7z M175.9,264.6c-0.5,0.4-1.5,0.4-2.8-0.2c-3.6,0.6-7.9,1.2-12.5,1.6v20.9
		c0,0.3-1.3,1.4-3.3,1.4h-0.8v-21.9c-5.3,0.4-10.9,0.6-16,0.6l-0.2-1c10.8-1,24.4-3.5,31.6-5.8L175.9,264.6z M144.6,241.3v4.2h8.5
		v-4.2H144.6z M144.6,251.1h8.5v-3.9h-8.5V251.1z M144.6,257.2c2.6-0.4,5.6-0.9,8.5-1.3v-3.1h-8.5V257.2z M181.1,243
		c-0.4,0.5-0.9,0.7-2,0.7c-1.1,2.7-2.5,5.3-4.4,7.6c8.2,5.9,5.8,10.9,2.7,9c-1-1.6-2.9-3.8-5.3-6.1c-3.2,2.9-7.2,5.3-12.1,7
		l-0.4-0.8c4.2-2,7.7-4.8,10.4-8.1c-2.4-2.1-5.4-4.3-8.7-6.3l0.4-0.8c4.2,1.4,7.5,2.9,10.2,4.4c1.2-2,2.2-4.1,2.9-6.3h-14l-0.5-1.6
		h14.5l2.4-2.5L181.1,243z M174.4,268.3c-0.2,0.7-0.8,1.2-1.9,1.1c-0.3,0.7-0.6,1.5-0.9,2.2c1.9,4,5.5,7,9.1,8.4l-0.1,0.6
		c-1.5,0.3-2.4,1.5-2.9,3.6c-3.1-2.4-5.4-6.1-6.8-11.1c-2.3,4.8-5.5,8.3-9.3,10.5l-0.6-0.6c3.5-3.6,6.6-9.5,7.9-16.7L174.4,268.3z"
		/>
</g>
</svg>
