<?xml version="1.0" encoding="utf-8"?>
<!-- Generator: Adobe Illustrator 25.4.1, SVG Export Plug-In . SVG Version: 6.00 Build 0)  -->
<svg version="1.1" id="圖層_1" xmlns="http://www.w3.org/2000/svg" xmlns:xlink="http://www.w3.org/1999/xlink" x="0px" y="0px"
	 viewBox="0 0 276.2 111.4" style="enable-background:new 0 0 276.2 111.4;" xml:space="preserve">
<style type="text/css">
	.st0{fill:none;stroke:#000000;stroke-width:0.624;stroke-miterlimit:10;}
</style>
<g id="Group_1575" transform="translate(-49.375 -3015.319)">
	<path id="Path_893" class="st0" d="M49.7,3109.8v-77.6c9.2,0,16.6-7.4,16.6-16.6h242.4c0,9.2,7.4,16.6,16.6,16.6v77.6
		c-9.2,0-16.6,7.4-16.6,16.6H66.3C66.3,3117.3,58.9,3109.8,49.7,3109.8z"/>
</g>
<g>
	<path d="M112.3,51.4c-0.8,3.4-2.2,6.3-4.3,8.7c2.2,1.8,4.8,2.9,7.8,3.7l-0.1,0.2c-0.8,0.1-1.4,0.6-1.7,1.4
		c-2.8-0.9-5.2-2.4-7.1-4.3c-2.2,1.9-5,3.4-8.7,4.4l-0.1-0.3c3.4-1.2,6-2.9,8-5c-1.8-2.2-3.2-5.1-3.9-8.8h-3.8l-0.2-0.6h14.3
		l1.1-1.5c0,0,1.2,1,1.9,1.8c-0.1,0.2-0.2,0.3-0.5,0.3H112.3z M102.5,51.4c0.8,3.2,2.4,5.7,4.4,7.7c1.8-2.2,2.9-4.8,3.5-7.7H102.5z
		 M105,46.2c5,1.3,3.8,5.1,2.2,3.9c-0.3-1.3-1.4-2.8-2.3-3.7L105,46.2z"/>
	<path d="M118.9,57.3c1.8-2.6,3.8-6.8,4.9-11.1l2.4,0.9c-0.1,0.3-0.3,0.4-0.8,0.4c-0.6,1.6-1.2,3.1-2,4.4l0.8,0.3
		c-0.1,0.2-0.2,0.3-0.6,0.4v12.3c0,0.1-0.7,0.5-1.3,0.5H122V54c-0.9,1.3-1.9,2.5-2.9,3.4L118.9,57.3z M135.9,63
		c0.6,0.2,0.7,0.4,0.7,0.8c0,0.8-0.9,1.1-4.6,1.1h-2.5c-1.9,0-2.5-0.4-2.5-2V46.6l2.1,0.3c0,0.3-0.2,0.5-0.7,0.6v6.1h5l0.9-1.3
		c0,0,1,0.9,1.7,1.6c-0.1,0.2-0.2,0.3-0.5,0.3h-7.1v8.3c0,0.6,0.2,0.9,1.2,0.9h2.4c1.1,0,1.9,0,2.2-0.1c0.3,0,0.4-0.1,0.5-0.3
		c0.2-0.3,0.5-1.5,0.8-2.8h0.2L135.9,63z"/>
	<path d="M143.2,50.7c-1,1-2.1,2-3.4,2.7l-0.2-0.2c2.1-1.8,4-4.9,4.8-7.1l2.3,0.6c-0.1,0.3-0.3,0.4-0.8,0.4c6.1,1.6,4.7,5.1,3.3,4.1
		c-0.5-1.2-1.7-2.8-3.5-3.9c-0.6,1.1-1.5,2.2-2.5,3.3h3.1l0.8-1.1c0,0,0.9,0.8,1.5,1.4c-0.1,0.2-0.2,0.3-0.5,0.3h-4.9L143.2,50.7z
		 M148.9,58.7l1.6,1.4c-0.1,0.1-0.4,0.3-0.8,0.4v4.2c0,0.1-0.7,0.4-1.2,0.4h-0.2v-1.2h-4.4v1c0,0.1-0.5,0.5-1.2,0.5h-0.2V61
		c-0.5,1.3-1.3,2.6-2.5,3.7l-0.2-0.2c1.9-2.7,2.1-6,2.1-8.9V52l1.7,0.7h4.6l0.8-0.9l1.7,1.4c-0.1,0.2-0.4,0.4-0.8,0.4V58
		c0,0.1-0.7,0.5-1.2,0.5h-0.2v-0.6h-5.1c0,0.4-0.1,0.8-0.2,1.2l1.1,0.5h4L148.9,58.7z M148.3,57.2v-1.6h-5v0c0,0.5,0,1,0,1.6H148.3z
		 M143.3,53.3V55h5v-1.6H143.3z M148.4,63.3v-3.1h-4.4v3.1H148.4z M153.1,60.6c0,0.2-0.6,0.5-1.1,0.5h-0.3V48l2,0.2
		c-0.1,0.3-0.2,0.5-0.7,0.6V60.6z M157.2,46.8c-0.1,0.3-0.2,0.5-0.7,0.6v15.9c0,1.3-0.2,2-2.1,2.2c-0.1-0.5-0.2-0.9-0.4-1.2
		c-0.3-0.2-0.7-0.5-1.5-0.6v-0.3c0,0,1.8,0.1,2.2,0.1c0.3,0,0.4-0.1,0.4-0.4V46.6L157.2,46.8z"/>
	<path d="M163.7,60.1c0.5,2.3-0.4,3.8-1.2,4.3c-0.5,0.4-1.2,0.4-1.4-0.2c-0.2-0.5,0.1-0.9,0.6-1.2c0.8-0.4,1.7-1.6,1.8-3L163.7,60.1
		z M176.4,50.3c0,0,1.1,0.9,1.8,1.6c-0.1,0.2-0.2,0.3-0.5,0.3h-16.5l-0.1-0.6h10c0.4-0.8,0.8-2,1-2.8h-9.5l-0.2-0.6h7
		c-0.3-0.8-1.1-1.6-1.8-2l0.2-0.2c2.8,0,3.3,1.6,2.7,2.2h3.7l1-1.3c0,0,1.1,0.9,1.8,1.6c-0.1,0.2-0.2,0.3-0.5,0.3h-4.1l2,0.7
		c-0.1,0.3-0.3,0.4-0.7,0.4c-0.5,0.5-1.2,1.2-1.9,1.8h3.7L176.4,50.3z M165.4,59.3c0,0.1-0.7,0.5-1.3,0.5H164v-7l1.6,0.7h7.8
		l0.8-0.9l1.7,1.4c-0.1,0.2-0.4,0.3-0.8,0.4v4.6c0,0.1-0.7,0.5-1.3,0.5h-0.2V59h-8.1V59.3z M165.4,54.2V56h8.1v-1.8H165.4z
		 M173.6,58.4v-1.8h-8.1v1.8H173.6z M174,63.3c0.5,0.2,0.6,0.4,0.6,0.6c0,0.7-0.7,1-4.4,1h-2.6c-1.8,0-2.2-0.3-2.2-1.4V60l2,0.2
		c0,0.3-0.2,0.5-0.6,0.5v2.5c0,0.3,0.1,0.4,0.9,0.4h2.5c1.1,0,2,0,2.3,0c0.3,0,0.4-0.1,0.5-0.3c0.2-0.3,0.4-1.1,0.6-2.2h0.2
		L174,63.3z M165.7,48.9c3.6,0.8,2.2,3.6,0.9,2.5c-0.1-0.8-0.6-1.8-1.1-2.4L165.7,48.9z M168.6,59.4c4,1,2.9,4.1,1.6,3.1
		c-0.2-1-1-2.2-1.7-2.9L168.6,59.4z M174.7,60c4.5,1.6,3.4,5,2,3.9c-0.2-1.3-1.2-2.8-2.1-3.7L174.7,60z"/>
</g>
</svg>
