<?xml version="1.0" encoding="utf-8"?>
<!-- Generator: Adobe Illustrator 25.4.1, SVG Export Plug-In . SVG Version: 6.00 Build 0)  -->
<svg version="1.1" id="圖層_1" xmlns="http://www.w3.org/2000/svg" xmlns:xlink="http://www.w3.org/1999/xlink" x="0px" y="0px"
	 viewBox="0 0 317.2 339.2" style="enable-background:new 0 0 317.2 339.2;" xml:space="preserve">
<style type="text/css">
	.st0{fill:none;stroke:#000000;stroke-width:1.188;stroke-miterlimit:10;}
</style>
<path id="Path_2189" class="st0" d="M284.9,338.6H32.3c0-17.5-14.2-31.7-31.7-31.7V32.3c17.5,0,31.7-14.2,31.7-31.7h252.7
	c0,17.5,14.2,31.7,31.7,31.7v274.7C299.1,306.9,284.9,321.1,284.9,338.6C284.9,338.6,284.9,338.6,284.9,338.6z"/>
<g>
	<path d="M173.7,66.4c-2.1,9.1-5.8,16.9-11.6,23.2c5.8,4.7,13,7.9,20.9,9.9l-0.2,0.6c-2.1,0.2-3.7,1.6-4.5,3.9
		c-7.6-2.5-14-6.3-19.1-11.6c-5.9,5.2-13.5,9.1-23.4,11.7l-0.4-0.8c9-3.3,16.1-7.9,21.4-13.4c-4.9-6-8.5-13.7-10.5-23.5h-10.1
		l-0.4-1.7h38.4l2.9-4.1c0,0,3.3,2.8,5.2,4.9c-0.2,0.6-0.7,0.9-1.4,0.9H173.7z M147.4,66.4c2.2,8.6,6.4,15.4,11.8,20.7
		c4.8-5.9,7.8-12.8,9.4-20.7H147.4z M154,52.5c13.3,3.6,10.2,13.6,5.8,10.4c-0.8-3.4-3.7-7.5-6.3-9.9L154,52.5z"/>
	<path d="M135.1,143.9c4.9-7,10.1-18.3,13.1-29.8l6.3,2.4c-0.2,0.7-0.9,1.2-2,1.1c-1.5,4.3-3.3,8.2-5.4,11.9l2.2,0.9
		c-0.2,0.5-0.7,0.9-1.6,1v33c-0.1,0.4-1.8,1.5-3.4,1.5h-0.8v-30.5c-2.4,3.5-5.1,6.7-7.9,9.2L135.1,143.9z M180.9,159.4
		c1.5,0.6,1.9,1.1,1.9,2c0,2.2-2.3,2.9-12.4,2.9h-6.7c-5.1,0-6.8-1.2-6.8-5.4v-43.7l5.8,0.7c-0.1,0.7-0.5,1.4-1.8,1.6V134h13.4
		l2.5-3.6c0,0,2.8,2.5,4.5,4.4c-0.2,0.6-0.6,0.9-1.4,0.9h-19.1v22.2c0,1.7,0.6,2.3,3.3,2.3h6.5c2.9,0,5,0,6-0.2
		c0.7-0.1,1.1-0.2,1.4-0.8c0.5-0.9,1.3-3.9,2-7.6h0.7L180.9,159.4z"/>
	<path d="M144.5,188.1c-2.7,2.8-5.8,5.3-9.1,7.1l-0.6-0.6c5.7-4.8,10.8-13.1,13-19l6.2,1.7c-0.2,0.7-0.7,1-2,1.1
		c16.3,4.3,12.5,13.7,8.8,11c-1.3-3.2-4.7-7.4-9.3-10.4c-1.7,2.9-4,5.9-6.7,8.8h8.2l2.2-3c0,0,2.5,2.1,4.1,3.8
		c-0.2,0.6-0.7,0.9-1.4,0.9h-13.2L144.5,188.1z M159.8,209.5l4.4,3.6c-0.3,0.4-1.1,0.9-2,1.1v11.3c-0.1,0.3-2,1.2-3.3,1.2h-0.6v-3.3
		h-11.9v2.7c0,0.4-1.2,1.4-3.2,1.4h-0.6v-11.8c-1.3,3.6-3.4,7.1-6.8,9.9l-0.6-0.6c5-7.3,5.7-16.2,5.7-24v-9.7l4.4,2h12.2l2-2.4
		l4.5,3.7c-0.4,0.4-1.2,1-2.2,1.2v11.8c-0.1,0.3-2,1.2-3.2,1.2h-0.6v-1.7h-13.7c-0.1,1.1-0.3,2.2-0.5,3.3l3,1.4h10.8L159.8,209.5z
		 M158.1,205.5v-4.4h-13.4v0.1c0,1.3-0.1,2.8-0.1,4.3H158.1z M144.7,195.1v4.3h13.4v-4.3H144.7z M158.2,221.8v-8.2h-11.9v8.2H158.2z
		 M170.9,214.6c0,0.6-1.6,1.5-3,1.5h-0.7v-35.3l5.5,0.6c-0.2,0.8-0.6,1.3-1.8,1.5V214.6z M182,177.5c-0.2,0.8-0.6,1.3-1.8,1.5v42.6
		c0,3.4-0.6,5.4-5.7,5.9c-0.2-1.3-0.4-2.4-1.1-3.1c-0.7-0.7-1.8-1.2-4.1-1.6V222c0,0,4.8,0.4,5.9,0.4c0.9,0,1.1-0.3,1.1-1.1v-44.4
		L182,177.5z"/>
	<path d="M143.3,275c1.3,6.2-1.1,10.2-3.3,11.6c-1.4,1-3.3,1-3.8-0.4c-0.5-1.2,0.3-2.4,1.5-3.1c2.1-1.2,4.6-4.3,4.8-8.1L143.3,275z
		 M177.3,248.6c0,0,3.1,2.5,4.9,4.3c-0.2,0.6-0.7,0.9-1.3,0.9h-44.3l-0.4-1.6h26.9c1-2.2,2-5.4,2.7-7.6h-25.6l-0.4-1.6h18.8
		c-0.9-2-3-4.3-4.9-5.5l0.4-0.5c7.6,0,8.8,4.3,7.3,6h9.8l2.7-3.6c0,0,3.1,2.5,4.9,4.3c-0.2,0.6-0.6,0.9-1.3,0.9h-11l5.4,1.8
		c-0.2,0.7-0.9,1.1-1.9,1c-1.3,1.5-3.3,3.3-5.1,4.8h9.9L177.3,248.6z M148,272.9c0,0.4-1.8,1.3-3.4,1.3H144v-18.7l4.3,2h21l2.1-2.5
		l4.6,3.8c-0.4,0.4-1.1,0.9-2.2,1.2v12.5c-0.1,0.4-2,1.4-3.4,1.4h-0.7v-1.9H148V272.9z M148,259.1v4.7h21.8v-4.7H148z M169.8,270.2
		v-4.8H148v4.8H169.8z M171,283.5c1.3,0.4,1.7,1,1.7,1.7c0,2-1.8,2.6-11.8,2.6h-7.1c-4.8,0-5.8-0.8-5.8-3.9v-9.4l5.4,0.6
		c-0.1,0.7-0.6,1.2-1.5,1.3v6.7c0,0.8,0.2,1,2.5,1h6.7c3,0,5.3-0.1,6.1-0.1c0.8-0.1,1-0.2,1.3-0.7c0.5-0.9,1.1-3,1.7-5.8h0.7
		L171,283.5z M148.6,244.8c9.6,2,6,9.7,2.4,6.7c-0.3-2.2-1.7-4.8-2.9-6.4L148.6,244.8z M156.4,273c10.6,2.7,7.8,11,4.3,8.2
		c-0.5-2.7-2.8-6-4.7-7.7L156.4,273z M172.7,274.7c12.1,4.3,9.2,13.5,5.3,10.4c-0.5-3.4-3.3-7.5-5.8-9.9L172.7,274.7z"/>
</g>
</svg>
