<svg xmlns="http://www.w3.org/2000/svg" width="317.188" height="339.188" viewBox="0 0 317.188 339.188">
  <g id="Group_1529" data-name="Group 1529" transform="translate(-1321.906 -4467.906)">
    <path id="Path_2189" data-name="Path 2189" d="M1606.827,4806.5H1354.173a31.673,31.673,0,0,0-31.673-31.673V4500.173a31.673,31.673,0,0,0,31.673-31.673h252.654a31.673,31.673,0,0,0,31.673,31.673v274.654A31.673,31.673,0,0,0,1606.827,4806.5Z" fill="none" stroke="#000" stroke-miterlimit="10" stroke-width="1.188"/>
    <g id="Group_1372" data-name="Group 1372">
      <g id="Group_1371" data-name="Group 1371">
        <path id="Path_2194" data-name="Path 2194" d="M1487.052,4538.225q1.534,1.284,1.535,2.226a2.98,2.98,0,0,1-.638,1.757,10.692,10.692,0,0,0-1.276,3.075,34.739,34.739,0,0,1-6.381,11.422,23.629,23.629,0,0,1-8.421,6.442,21.685,21.685,0,0,1-9.7,2.2,5.6,5.6,0,0,1-1.667-.246c-.37-.11-.556-.219-.556-.329q0-.438,1.37-.729a32.74,32.74,0,0,0,11.505-5.1,28.447,28.447,0,0,0,9.039-10.5,20.29,20.29,0,0,0,2.192-8.9,6.318,6.318,0,0,0-.076-.923,2.739,2.739,0,0,1-.229-.923.744.744,0,0,1,.844-.839A5.052,5.052,0,0,1,1487.052,4538.225Zm7.04-4.189q1.947,1.344,1.947,2.046-.058.7-1.83.766-6.135.192-14.02,1.24-4.461.573-11.789,2.193a10.557,10.557,0,0,1-1.752.382,4.794,4.794,0,0,1-2.431-.708q-1.448-.642-1.447-1.223c0-.171.362-.342,1.089-.514q14.722-2.152,24.172-4.047a25.962,25.962,0,0,1,4.173-.774A9.173,9.173,0,0,1,1494.092,4534.036Zm-18.4,13.408q8.628,8.486,12.815,11.108a95.265,95.265,0,0,0,13.832,6.325q1.268.462,1.268.925t-1.214.71a64.861,64.861,0,0,1-9.594,1.242,6.634,6.634,0,0,1-3.522-1.144q-1.821-1.287-10.686-12.3a63.876,63.876,0,0,0-5.1-5.861,16.073,16.073,0,0,0-4.494-3.289q-.849-.143-.85-.858t1.074-.719Q1471.38,4543.587,1475.694,4547.444Zm.717-19.529a11.619,11.619,0,0,1,3.7,2.125,5.683,5.683,0,0,1,1.09,3.668q0,2.271-1.7,2.271a1.93,1.93,0,0,1-1.357-.844,34.242,34.242,0,0,1-3.831-6.409,1.664,1.664,0,0,1-.318-.76q.115-.534.525-.534A4.428,4.428,0,0,1,1476.411,4527.915Z"/>
        <path id="Path_2195" data-name="Path 2195" d="M1472.432,4587.389q2.166,1.562,2.166,2.712a1.786,1.786,0,0,1-.693,1.154,25.378,25.378,0,0,0-1.3,2.474,72.991,72.991,0,0,1-6.238,11.217,30.646,30.646,0,0,1-5.719,6.268q-2.166,1.815-2.859,1.814c-.249,0-.373-.068-.373-.2,0-.2.183-.46.552-.766a63.359,63.359,0,0,0,10.767-17.932,16.672,16.672,0,0,0,1.381-6.284c0-.739.224-1.11.672-1.11A3.474,3.474,0,0,1,1472.432,4587.389Zm-2.61,12.8a6.91,6.91,0,0,1,1.464,2.786,14.8,14.8,0,0,1-.294,1.842,82.556,82.556,0,0,0-.353,10.129l-.156,8.707a11.1,11.1,0,0,1-.648,3.231q-.411,1.488-.941,1.487-.708,0-1.3-1.672a11.46,11.46,0,0,1-1-3.536q.078-.528.551-2.383,1.1-3.617,1.1-15.446a21.633,21.633,0,0,0-.89-6.122q0-.644.82-.644Q1468.534,4598.565,1469.822,4600.186Zm13.427-11.378q1.621.978,1.621,2.2a9.116,9.116,0,0,1-.429,1.359,49.179,49.179,0,0,0-1.2,9.059q-.6,8.156-.6,12.458,0,6,1.817,7.643,2.18,1.646,6.419,1.646,4.719,0,6.37-1.2a8.922,8.922,0,0,0,2.713-4.813l.472-3.241q.117-1.11.59-1.111.273,0,.479,1.782a30.3,30.3,0,0,0,1.232,6.378,6,6,0,0,1,.48,2.157q0,1.536-2.871,2.83a20.839,20.839,0,0,1-8.717,1.536q-6.452,0-9.115-2.678-2.765-3-2.764-9.745,0-3.535.228-8.488.229-4.715.229-12.025a16.965,16.965,0,0,0-.5-4.6,3.58,3.58,0,0,1-.43-1.394c0-.492.318-.739.958-.739A5.646,5.646,0,0,1,1483.249,4588.808Zm13.368,12.084q1.812.706,1.813,1.212,0,.809-2.2,1.313-1.607.216-2.72.431-.99.215-5.069,1.076a19.185,19.185,0,0,1-3.215.431,7.561,7.561,0,0,1-2.334-.308q-1.4-.513-1.4-1.13,0-.924,2.194-1.027a76.5,76.5,0,0,0,8.864-2.169,14.174,14.174,0,0,1,1.393-.334A13.884,13.884,0,0,1,1496.617,4600.892Z"/>
        <path id="Path_2196" data-name="Path 2196" d="M1473.436,4646.354q1.952,1.626,1.953,2.546a2.007,2.007,0,0,1-.354.914q-.473.97-1.181,2.368-1.359,2.851-4.017,7.424a36.711,36.711,0,0,1-6.909,8.233q-3.78,3.174-5.139,3.174-.411,0-.411-.263c0-.108.144-.288.434-.539a44.646,44.646,0,0,0,7.5-8.938,45.862,45.862,0,0,0,5.2-9.421,11.424,11.424,0,0,0,.868-4.684c0-.9.249-1.356.751-1.356A3.1,3.1,0,0,1,1473.436,4646.354Zm-4.376,17.659q1.4.4,1.4,1.326-.274.823-.329,1.015a74.008,74.008,0,0,1-2.468,13.055,31.164,31.164,0,0,1-3.565,7.687,18.741,18.741,0,0,1-5.484,4.98,1.605,1.605,0,0,1-.823.194c-.027,0-.04-.075-.04-.223a25.358,25.358,0,0,0,4-5.172,32.471,32.471,0,0,0,4.107-9.728,39.894,39.894,0,0,0,1.166-9.538,5.972,5.972,0,0,0-.378-2,4.92,4.92,0,0,1-.432-1.119.622.622,0,0,1,.7-.707Q1467.337,4663.781,1469.06,4664.013Zm.1,16.5q1.563.6,1.564,1.446,0,.635.05,1.324.316,4.219.317,5.819a3.16,3.16,0,0,1-.227,1.314c-.152.356-.333.535-.544.535q-.363,0-.726-.645a3.576,3.576,0,0,1-.589-1.786l-.409-2.706a17.375,17.375,0,0,0-.511-2.96,3.158,3.158,0,0,0-.887-1.606c-.182-.131-.272-.225-.272-.282,0-.5.193-.753.58-.753A4.245,4.245,0,0,1,1469.156,4680.517Zm8.046-6.945q.907.672.907,1.118,0,.378-.361.378a12.959,12.959,0,0,0-2.65.252l-3.734.565a9.31,9.31,0,0,1-1.566.189,1.939,1.939,0,0,1-1.46-.429,1.249,1.249,0,0,1-.389-.805c0-.358.206-.536.616-.536a25.492,25.492,0,0,0,5.124-1.01,8.994,8.994,0,0,1,1.749-.336A4.281,4.281,0,0,1,1477.2,4673.572Zm4.557,5.757q1.679,1.187,1.679,1.826a1.02,1.02,0,0,1-.381.722,9.074,9.074,0,0,0-1.813,2.944l-.811,1.8q-.525,1.263-1.527,1.263-1.12,0-1.12-.685a3.154,3.154,0,0,1,.179-.75q.177-.937.535-3.063a19.562,19.562,0,0,0,.238-2.063q0-.684-1.245-.684a14.893,14.893,0,0,0-2.649.368,21.516,21.516,0,0,0-3.974,1.1,1.309,1.309,0,0,1-.636.221,2.147,2.147,0,0,1-1.391-.544q-.7-.453-.7-.726c0-.271.218-.408.654-.408a12.707,12.707,0,0,0,2.125-.32q2.372-.511,6.867-1.343a5.074,5.074,0,0,0,1.335-.449,2.16,2.16,0,0,1,.543-.127A5.99,5.99,0,0,1,1481.759,4679.329Zm.07-15.868c.662.473.993.839.993,1.1a3.365,3.365,0,0,1-.589,1.626,14.647,14.647,0,0,0-1.079,2.6l-1.864,5.526q-.492,1.3-.981,1.3-1,0-1-.856a22.279,22.279,0,0,1,.389-2.728,63.94,63.94,0,0,0,1.167-7.093c0-.25-.187-.376-.56-.376a18.374,18.374,0,0,0-2.325.307,42.125,42.125,0,0,0-4.584,1.023,5.8,5.8,0,0,1-1.129.307,1.825,1.825,0,0,1-1.04-.51q-.484-.289-.485-.654c0-.064.2-.128.608-.193q5.344-.959,9.335-2.019a6.18,6.18,0,0,1,1.082-.384A7.313,7.313,0,0,1,1481.829,4663.461Zm-4.607,4.39q1.086.424,1.087.728,0,.484-1.317.787-.877.144-1.484.288-.542.144-2.767.719a8.746,8.746,0,0,1-1.754.287,4.542,4.542,0,0,1-1.4-.184q-.84-.309-.84-.679,0-.553,1.317-.616a35.5,35.5,0,0,0,4.8-1.416,6.956,6.956,0,0,1,.755-.217A8.367,8.367,0,0,1,1477.222,4667.851Zm2.687,19.282q.988.732.989,1.22c0,.169-.129.254-.388.254a22.1,22.1,0,0,0-2.85.169l-4.017.381a16.089,16.089,0,0,1-1.685.127,2.114,2.114,0,0,1-1.592-.469,1.36,1.36,0,0,1-.425-.877q0-.585.673-.585a42.9,42.9,0,0,0,5.494-.668,15.057,15.057,0,0,1,1.877-.223A4.669,4.669,0,0,1,1479.909,4687.133Zm-.617-29.178c.805.315,1.208.583,1.208.808q0,.538-1.463.875-.849.16-1.436.32-.523.159-2.676.8a7.4,7.4,0,0,1-1.7.319,5.043,5.043,0,0,1-1.557-.205q-.933-.342-.934-.753,0-.617,1.463-.685a30.5,30.5,0,0,0,4.59-1.573,5.819,5.819,0,0,1,.721-.242A9.243,9.243,0,0,1,1479.292,4657.955Zm-5.137-7.83q2.037.444,3.969,1.04a10.761,10.761,0,0,1,3.359,1.634,2.042,2.042,0,0,1,.611,1.436,4.446,4.446,0,0,1-.3,1.489,1.029,1.029,0,0,1-.9.607,2.645,2.645,0,0,1-1.048-.358,11.465,11.465,0,0,1-2.914-2.144,29.793,29.793,0,0,0-3.5-2.759c-.621-.341-.932-.595-.932-.766,0-.219.075-.328.224-.328A11.4,11.4,0,0,1,1474.155,4650.125Zm14.572,9.277q1.152.516,1.22,1.178l-.149,15.066a4.514,4.514,0,0,1-.467,1.782q-.267.817-.734.817-.4,0-.934-1.213a3.44,3.44,0,0,1-.467-1.441,8.771,8.771,0,0,1,.114-.986q.055-1.211.057-2.274,0-3.78-.234-7.7a26.294,26.294,0,0,0-.527-3.987,3.788,3.788,0,0,1-.117-.894q0-.79.542-.791A8.1,8.1,0,0,1,1488.727,4659.4Zm9.692-10.289q1.719,1.14,1.72,2.215a4.177,4.177,0,0,1-.5,1.153,16.4,16.4,0,0,0-.948,4.942q-.558,6.81-.558,18.505v6.644q.234,3.3.233,6.369a7.989,7.989,0,0,1-1.175,4.2q-1.016,1.755-1.548,1.755-.633,0-1.455-1.346a29.518,29.518,0,0,0-4.047-5.066q-.7-.642-.7-.9,0-.36.42-.36a14.812,14.812,0,0,0,3.77,1.2.9.9,0,0,0,.959-.822,30.872,30.872,0,0,0,.638-5.367q.426-8.38.426-18.787,0-6.376-.237-9.564a12.042,12.042,0,0,0-.714-3.356q-.238-.9-.356-1.567,0-1.18,1.032-1.181A7.144,7.144,0,0,1,1498.419,4649.113Z"/>
        <path id="Path_2197" data-name="Path 2197" d="M1497.479,4720.043q1.947,1.343,1.947,2.045-.06.7-1.83.767-7.02.169-16.046,1.1-5.106.507-13.494,1.942a15.263,15.263,0,0,1-2.006.337,4.782,4.782,0,0,1-2.431-.708q-1.447-.642-1.447-1.222,0-.258,1.089-.515,16.794-1.958,27.571-3.678a36.743,36.743,0,0,1,4.759-.705A9.243,9.243,0,0,1,1497.479,4720.043Zm-29.53,21.227q.272,0,.466.648a6.886,6.886,0,0,1,.7,2.553,10.519,10.519,0,0,1-1.117,4.482,5.49,5.49,0,0,1-1.546,2.568,1.711,1.711,0,0,1-1.29.706,1.424,1.424,0,0,1-1.268-.862,4.978,4.978,0,0,1-.239-1.549,5.45,5.45,0,0,1,.319-1.739,32.685,32.685,0,0,0,3.341-5.864C1467.471,4741.584,1467.684,4741.27,1467.949,4741.27Zm22.4-30.522q.91.437.911,1.088,0,.525-1.33.825a52,52,0,0,1-6.86,1.35,98.955,98.955,0,0,1-10.5,1.126,5.663,5.663,0,0,1-2.829-.5q-.794-.613-.794-1.059t1.932-.5q4.553-.431,10-1.435a50.71,50.71,0,0,0,6.139-1.364,4.371,4.371,0,0,1,1.1-.287A4.937,4.937,0,0,1,1490.347,4710.748Zm-18,17.234q1.563.6,1.563,1.447a11.392,11.392,0,0,0,.132,1.689,58.278,58.278,0,0,1,.833,7.426,3.178,3.178,0,0,1-.226,1.314q-.228.535-.544.535-.365,0-.727-.645a3.561,3.561,0,0,1-.588-1.786l-.527-3.412a21.476,21.476,0,0,0-.659-3.733,3.956,3.956,0,0,0-1.141-2.026q-.351-.248-.351-.355c0-.5.194-.753.581-.753A4.272,4.272,0,0,1,1472.344,4727.982Zm.139,13.955a1.7,1.7,0,0,1,.757,1.123,11.287,11.287,0,0,0,2.17,4.768,9.849,9.849,0,0,0,3.683,2.58,13.131,13.131,0,0,0,5.2,1.01,15.74,15.74,0,0,0,5.439-.821q.857-.275.856-.822a15.657,15.657,0,0,0-1.175-4.108,3.009,3.009,0,0,1-.294-1.042q0-.288.15-.288.408,0,.921.737a24.269,24.269,0,0,0,5.221,4.362,2.23,2.23,0,0,1,1.229,1.982q0,1.036-2.762,2.348a18.781,18.781,0,0,1-7.232,1.309,21.175,21.175,0,0,1-6.539-1,11.919,11.919,0,0,1-5.23-3.4,13.33,13.33,0,0,1-2.615-4.908q-.5-1.616-.956-2.789a3.128,3.128,0,0,0-.452-.948.467.467,0,0,1,.522-.534A2.1,2.1,0,0,1,1472.483,4741.937Zm17.645-15.1q1.185.743,1.186,1.113a1.523,1.523,0,0,1-.336.909,8.155,8.155,0,0,0-.538,1.591q-1.411,5.229-2.622,8.638a2.559,2.559,0,0,1-1.618.867q-.354,0-.634-.591a2.875,2.875,0,0,1-.282-1.255,2.8,2.8,0,0,1,.2-.683,18.235,18.235,0,0,0,.785-4.248,30.937,30.937,0,0,0,.392-4.324q0-.9-1.061-.9a45.063,45.063,0,0,0-4.649.594q-4.542.714-6.271,1.07a5.742,5.742,0,0,1-1.622.356,2.387,2.387,0,0,1-1.3-.452q-.617-.527-.616-.829c0-.193.254-.321.761-.386a78.169,78.169,0,0,0,9.136-1.352q3.9-.87,5.139-1.159a3.674,3.674,0,0,1,1.237-.291A6.911,6.911,0,0,1,1490.128,4726.837Zm-15.53-11.527a8.319,8.319,0,0,1,2.492,2.45,10.1,10.1,0,0,1,.733,4.232q0,1.745-1.307,1.746-.417,0-.885-.9a45.332,45.332,0,0,1-2.5-6.859,2.55,2.55,0,0,1-.209-.812q.09-.412.405-.412A2.078,2.078,0,0,1,1474.6,4715.31Zm11.768,21.945q.907.672.907,1.118c0,.292-.172.437-.517.437a22.98,22.98,0,0,0-3.793.291l-5.345.656a16.571,16.571,0,0,1-2.242.218,1.935,1.935,0,0,1-1.459-.429,1.243,1.243,0,0,1-.39-.8q0-.538.617-.537a49.626,49.626,0,0,0,7.8-1.174,17.628,17.628,0,0,1,2.663-.391A4.287,4.287,0,0,1,1486.366,4737.255Zm-.3-5.757q1.208.472,1.208.808,0,.54-1.462.876-1.4.135-2.372.27-.864.136-4.42.678a22.9,22.9,0,0,1-2.8.271,5.025,5.025,0,0,1-1.557-.206c-.622-.227-.933-.479-.933-.753q0-.617,1.462-.685,4.043-.531,7.861-1.382c.749-.143,1.16-.213,1.235-.213A9.279,9.279,0,0,1,1486.065,4731.5Zm-5.749-25.04a4.718,4.718,0,0,1,1.953,1.466,3.365,3.365,0,0,1,.454,1.639q0,2.781-2.223,2.78-.7,0-1.844-2.556a13.339,13.339,0,0,1-1.312-3.539c0-.279.188-.439.566-.479A5.692,5.692,0,0,1,1480.316,4706.458Zm.112,35.115a12.307,12.307,0,0,1,3.375,1.338,2.889,2.889,0,0,1,.993,2.31q0,1.745-1.308,1.746a2.06,2.06,0,0,1-1.278-.556,22.983,22.983,0,0,1-3.607-4.23.95.95,0,0,1-.3-.5c.06-.274.195-.41.405-.41A5.562,5.562,0,0,1,1480.428,4741.573Zm5.124-27.337q1.323.944,1.323,1.668a1.7,1.7,0,0,1-.448.714q-.523.981-.971,1.962a15.48,15.48,0,0,1-2.466,3.567q-.672.716-.9.715c-.249-.049-.374-.173-.374-.37q.734-2.615,1.1-4.417a14.5,14.5,0,0,0,.244-2.253,7.757,7.757,0,0,0-.224-1.445c.088-.625.352-.939.794-.939A3.824,3.824,0,0,1,1485.552,4714.236Zm7.224,25.245a37.319,37.319,0,0,1,3.673,1.287,9.29,9.29,0,0,1,3.109,2.022,3,3,0,0,1,.565,1.777,5.547,5.547,0,0,1-.373,1.861,1.284,1.284,0,0,1-1.121.758,1.922,1.922,0,0,1-.932-.443,11.182,11.182,0,0,1-2.587-2.662,30.165,30.165,0,0,0-3.1-3.422q-.829-.635-.828-.951c0-.274.094-.411.28-.411A8.209,8.209,0,0,1,1492.776,4739.481Z"/>
      </g>
    </g>
  </g>
</svg>
