<?xml version="1.0" encoding="utf-8"?>
<!-- Generator: Adobe Illustrator 25.4.1, SVG Export Plug-In . SVG Version: 6.00 Build 0)  -->
<svg version="1.1" id="圖層_1" xmlns="http://www.w3.org/2000/svg" xmlns:xlink="http://www.w3.org/1999/xlink" x="0px" y="0px"
	 viewBox="0 0 272.5 119.3" style="enable-background:new 0 0 272.5 119.3;" xml:space="preserve">
<style type="text/css">
	.st0{fill:#FFFFFF;}
</style>
<path class="st0" d="M24.9,37.4c3.8,4.1,6.9,8.9,9.2,14l-5.3,2.4c-0.5-1.9-1.3-4.2-2.1-6.5c-5.1,2.9-10.6,5.3-16.2,7.1l-2.1-5.7
	c1.3-0.2,2.7-0.4,4.1-0.7V11.7h19.4v22.9H17.8v12.4c2.7-0.6,5.4-1.3,8-2.1c-0.9-2.3-1.9-4.6-2.7-6.3L24.9,37.4z M17.8,21.7h8.8v-7.4
	h-8.8V21.7z M17.8,31.9h8.8v-7.7h-8.8V31.9z M53,11.9v32.7c0,5.5-6.6,5.5-11.9,2.1l0.5-2.1c5.1,0.9,6.3,0.5,6.3-1.9V14.5h-7.6v43.2
	H35V11.9H53z"/>
<path class="st0" d="M93.8,34.7v23.1h-5V37.7H85c-0.2,8.9-2,15.3-7.2,20.1l-1.6-1.4c2.9-4.4,4.1-10.4,4.2-18.6h-3.7v-2.6h12.1V27
	h-4.7v2.8h-4.8V10.1h4.8v14.3h4.7V9.1h5v23.4c10.1-3.1,18.6-9.7,21.6-16.9H106l-0.8,0.8c2.1,1.2,4.1,2.6,5.9,4.3l-3.2,3
	c-1.3-2-2.9-3.8-4.5-5.5c-0.9,0.8-1.8,1.5-2.7,2.2c1.9,1.4,3.6,3.1,5,5l-3.3,2.5c-1-2.1-2.2-4.2-3.5-6.2c-1.2,0.9-2.5,1.6-3.8,2.4
	L94,22.5c4.1-3,8.4-8.7,11.3-14.2l4.6,2c-0.5,1-1.2,1.9-1.8,2.8h7.1l1.8-0.8l4.6,2.5C117.1,25.5,105.9,32.6,93.8,34.7z M122.8,35.1
	v2.7h-5.1v14.7c0,4.8-4.9,8-15.3,2.1l0.6-2.1c8.6,1.7,9.5,1.2,9.5-2.1V37.7H94.8v-2.7h17.8V28h5.2v7L122.8,35.1z M104.2,49.4
	c-2-3.3-4.2-6.5-6.6-9.5l1.4-1.5c3.4,2.1,6.5,4.8,9.2,7.8L104.2,49.4z"/>
<path class="st0" d="M144.9,38.9l-1.3-1.8c6.4-6.2,10.9-14.1,13.5-24.9l6.2,2.3C159.8,24,153.1,33.5,144.9,38.9z M187.6,53.7
	l-6.1,3.3c-0.9-2.3-2-5-3.3-7.6c-8.4,2.9-20.1,5-28.8,5.8l-1.6-6.6c2.1,0,4.4,0,6.7,0c3.9-6.8,6.8-14.1,8.7-21.7l6.6,2.6
	c-3.1,6.8-7,13.2-11.7,19c6.7-0.3,13.6-0.8,18.9-1.5c-1.4-2.7-2.9-5.4-4.4-7.9l1.8-1.5C179.5,42.3,183.9,47.7,187.6,53.7z
	 M173.8,14.7h-8.3V12h10.5c1.8,10.4,8.2,16.7,15.6,20.5l-4.6,6.3C180.3,33.8,175.5,25.6,173.8,14.7L173.8,14.7z"/>
<path class="st0" d="M233,26.8h-13.5v30.6h-5.3V11.1H233V26.8z M228.1,13.8h-8.5v3.8h8.4L228.1,13.8z M228.1,20.2h-8.5v4h8.4
	L228.1,20.2z M242.4,42.4v12.7h-4.9V42.4h-4.9c-0.6,7.2-4.2,11.7-10.3,14.1l-1.2-1.9c4.5-3.3,6.1-6.2,6.5-12.1h-6.6v-2.6h6.7v-6.4
	h-5.4v-2.7h25.4v2.7h-5.5v6.4h6.9v2.6L242.4,42.4z M237.5,39.8v-6.4h-4.7v6.4H237.5z M255.8,11.2v40.4c0,6.2-5,7.2-12.2,3.2l0.5-2.1
	c6,1.2,6.5,0.5,6.5-1.9v-24h-13.3V11.1L255.8,11.2z M250.5,13.8h-8.2v3.8h8.2V13.8z M250.5,20.2h-8.2v4h8.2V20.2z"/>
<path class="st0" d="M34.9,82.4c-3.4,0-4.8,3-4.8,6.6s1.2,6.6,4.9,6.6c1.3,0,2.6-0.5,3.7-1.3v1.5c-1.2,0.8-2.6,1.1-4,1
	c-4.4,0-6.3-3.4-6.3-7.8c0-5.1,2.6-7.7,6.2-7.7c1.4,0,2.8,0.3,4,1v1.6C37.7,82.9,36.3,82.4,34.9,82.4z"/>
<path class="st0" d="M47.4,88.9c0-4,2.3-7.7,6.4-7.7s6.5,3.6,6.5,7.7s-2.2,7.9-6.5,7.9S47.4,93,47.4,88.9z M58.6,89
	c0-3.6-1.9-6.7-4.9-6.7S49,85.4,49,89s2,6.7,4.8,6.7S58.6,92.7,58.6,89L58.6,89z"/>
<path class="st0" d="M82.6,83.2L82.6,83.2c-1.6,4.3-3.6,9.1-5.3,13.3h-1.4c-1.5-4-3.5-9.4-5.1-13.3h-0.1v13.3h-1.3v-15h2.1
	c1.8,4.4,3.8,9.3,5.2,12.9h0.1c1.4-3.5,3.5-8.8,5.1-12.9h2.2v15h-1.5V83.2z"/>
<path class="st0" d="M93.9,81.5h1.6v14.9h-1.6V81.5z"/>
<path class="st0" d="M106.6,83.5h-0.1v13h-1.3v-15h1.9c2.8,4.6,5.7,9.4,7.9,13.1h0.1V81.5h1.3v14.9h-1.9
	C111.7,91.9,108.8,87.1,106.6,83.5z"/>
<path class="st0" d="M127,89.3c0,4,1.7,6.3,5.3,6.3c1.1,0.1,2.2-0.2,3.3-0.7v-5h-3.4v-1h4.8v6.5c-1.5,0.9-3.1,1.3-4.8,1.2
	c-4.5,0-6.8-2.8-6.8-7.3c0-4.8,2.4-8.2,7-8.2c1.5,0,3,0.3,4.4,1v1.6c-1.2-0.9-2.7-1.4-4.2-1.4C129,82.3,127,85.2,127,89.3z"/>
<path class="st0" d="M161,96.8c-1.4,0.1-2.9-0.3-4.2-0.9v-1.6c1.2,0.9,2.6,1.4,4.1,1.4c1.9,0,3.7-1.1,3.7-3c0-1.6-1.2-2.3-3.7-3.3
	c-3-1.3-4.1-2.3-4.1-4.2c0-2.5,2.2-4,4.7-4c1.3,0,2.6,0.3,3.8,0.8v1.6c-1-0.9-2.4-1.3-3.7-1.3c-1.8,0-3.3,1.2-3.3,2.6
	s0.8,2.1,3.5,3.2s4.2,2.4,4.2,4.2C166.1,95.5,163.7,96.8,161,96.8z"/>
<path class="st0" d="M174.2,88.9c0-4,2.3-7.7,6.4-7.7s6.4,3.6,6.5,7.7s-2.2,7.9-6.5,7.9S174.2,93,174.2,88.9z M185.5,89
	c0-3.6-1.9-6.7-4.9-6.7s-4.7,3.1-4.7,6.7s2,6.7,4.8,6.7S185.5,92.7,185.5,89L185.5,89z"/>
<path class="st0" d="M195.8,88.9c0-4,2.3-7.7,6.4-7.7s6.4,3.6,6.5,7.7s-2.2,7.9-6.5,7.9S195.8,93,195.8,88.9z M207.1,89
	c0-3.6-1.9-6.7-4.9-6.7s-4.7,3.1-4.7,6.7s2,6.7,4.8,6.7S207.1,92.7,207.1,89L207.1,89z"/>
<path class="st0" d="M219.2,83.5h-0.1v13h-1.3v-15h1.9c2.8,4.6,5.7,9.4,7.9,13.1h0.1V81.5h1.3v14.9H227
	C224.3,91.9,221.4,87.1,219.2,83.5z"/>
</svg>
