<?xml version="1.0" encoding="utf-8"?>
<!-- Generator: Adobe Illustrator 25.4.1, SVG Export Plug-In . SVG Version: 6.00 Build 0)  -->
<svg version="1.1" id="圖層_1" xmlns="http://www.w3.org/2000/svg" xmlns:xlink="http://www.w3.org/1999/xlink" x="0px" y="0px"
	 viewBox="0 0 37.6 183" style="enable-background:new 0 0 37.6 183;" xml:space="preserve">
<style type="text/css">
	.st0{fill:#00422D;}
</style>
<path class="st0" d="M36.3,34.5l-2,4.2c-3.5-1.5-9.8-3.8-13.7-5l0.6-1.7h-6.9l2.5,2c-4.1,2.3-10,3.8-15.5,4.3L0.8,36
	c3.6-0.9,7.1-2.2,10.3-4H5.6V19c-0.8,0.1-1.5,0.2-2.3,0.3l-0.9-3.8c1.8,0,3.7-0.2,5.7-0.3v-1.9H3.8v-2h4.2V9.8H3.8V9H1.2V3.8h16.5
	c-1.9-0.7-3.9-1.3-5.5-1.8l0.4-2c3.4,0.1,6.7,0.6,10,1.4l-1.1,2.5h14.5v5.3h-2.6v1.1h-4.8v1.4h6.7v2h-6.7V16h1.8v-1.7h4v3.6H18.4
	v-3.6h4V16H24v-2.4h-6.2v-2h1l-0.9-0.9c1.1-1.3,2-2.8,2.7-4.3H6.3v1.3h10.9v2.1h-4.6v1.6h4.1v2h-4.1v1.5c1.7-0.2,3.2-0.3,4.4-0.5
	l0.5,1.8c-3.4,1.3-6.9,2.2-10.5,2.7h24.7V32h-7.2C28.5,32.5,32.4,33.3,36.3,34.5z M11,22.4h15.3V21H11V22.4z M11,26h15.3v-1.4H11V26
	z M11,29.6h15.3v-1.4H11V29.6z M24.1,10.1h-2.5c-0.6,0.5-1.2,1-1.8,1.4h4.3L24.1,10.1z M31.1,6.3h-8.5L24.3,7
	c-0.2,0.4-0.5,0.7-0.8,1.1H31L31.1,6.3z"/>
<path class="st0" d="M12.6,73.3c-0.4-1.3-0.9-2.5-1.4-3.8v16.9H5.8V71.8c-1,2.5-2.4,4.8-4,6.9L0,77.3c2.5-4.9,4.2-10.2,5-15.6H0.8
	V59h5v-4.3C4,55,2.3,55.1,0.9,55.2L0.6,53c4.2-0.9,8.3-2.5,12-4.6l3.5,4.2c-1.6,0.6-3.2,1-4.8,1.3v5.2h4.2v2.7h-4.2v2.9
	c2,1.9,3.7,4,5.2,6.3L12.6,73.3z M36.7,82.3V85H13.5v-2.7h8.8v-5.6h-7.7V74h7.7v-4.4c-2.4,0.2-4.6,0.2-6.2,0.2l-0.4-2.2
	c5.5-0.6,10.9-1.9,16.1-4l4.1,4.2c-2.5,0.7-5.1,1.1-7.7,1.3V74H36v2.7h-7.9v5.7L36.7,82.3z M34.6,63.3H16.4V50.8h18.2V63.3z
	 M29.2,53.4h-7.5v7.3h7.5L29.2,53.4z"/>
<path class="st0" d="M35.2,98.1v36.6h-5.4v-1.8H7.5v1.8H2V98.1H35.2z M29.8,100.9h-4.7c1.4,1.2,2.6,2.6,3.6,4.1l-1.8,1h2.2v2.7h-6.3
	c0.1,2.5,0.2,5,0.5,7.5c0.8-2,1.4-4.1,1.8-6.2l3.7,1.2c-0.8,3.6-2.3,7.1-4.5,10.2c0.2,0.9,0.7,1.7,1.5,2.3c0.6,0.3,0.8-0.8,0.9-4.7
	h2c1.2,8.3-0.2,10.5-3,9.9c-1.9-0.4-3.3-1.9-4.3-3.9c-2.1,2.1-4.6,3.6-7.4,4.7l-1-1.9c2.7-1.5,5.1-3.6,7.1-6c-1-4.3-1.6-8.6-1.6-13
	H8.1V106h10.5c0-1.4,0-2.9,0-4.2h4.2v4.2h2.5c-0.6-1.6-1.4-3.1-2-4.3l1.3-0.9h-17V123c3.8-0.6,7.5-1.6,11.1-2.8l0.7,1.8
	c-3.3,2.3-6.9,4-10.8,5.2l-1.1-3.6v6.5h22.3V100.9z M8.8,110.7h9v9.1h-9V110.7z M12.3,117.4h2v-4.3h-2V117.4z"/>
<path class="st0" d="M6.7,173.9v9.1H1.7v-37.3l4.4,1.1h1.6l1.1-0.9l4.5,1.7c-1,4.1-2.5,8-4.3,11.8c1.2,1.6,2.2,3.3,3,5.1
	c1.5-1.3,2.8-2.8,3.9-4.5c-0.7-0.9-1.6-1.9-2.3-2.8c-0.7,0.9-1.5,1.7-2.3,2.4l-1.3-1.3c2.5-4.2,4.3-8.9,5.1-13.8l4.4,0.9
	c-0.2,0.9-0.5,1.8-0.9,2.7h0.9l1.1-0.7l3.2,1.1c-0.2-1.1-0.5-2.2-0.6-3.4l2.2-0.4c0.2,0.8,0.4,1.6,0.6,2.4h4.5l1.4-0.8l4.4,2.6
	c-1.5,2.5-3.3,4.8-5.5,6.8c1.9,2,4.1,3.7,6.5,5l-3,4.6c-1.5-1.1-2.9-2.3-4.2-3.6v1.2h-12v-0.2c-1.5,1.7-3.4,3.1-5.4,4.2
	c0.2,0.8,0.3,1.7,0.4,2.5C13.3,173.9,10,175.7,6.7,173.9z M6.7,149.3v21.9c1.6,0.1,2-0.4,2-2.6c0.1-3.1-0.5-6.2-1.8-9
	c0.7-3.4,1.1-6.8,1.3-10.3L6.7,149.3z M9.8,181.6l-1.3-1.8c3.1-2.8,5.6-6.2,7.1-10.1l4.6,2.1C17.7,176,14.1,179.4,9.8,181.6z
	 M26.4,169v9.4c0,4.9-4.5,6.1-10.8,2.3l0.6-2.1c4.4,0.8,4.9,0.5,4.9-1.5V169h-7.4v-2.6h21.4v2.6H26.4z M17.5,157.3
	c0.2-0.5,0.5-1,0.6-1.6c-0.7-0.6-1.5-1.2-2.3-1.8c-0.3,0.6-0.7,1.1-1,1.6C15.8,156.1,16.7,156.6,17.5,157.3L17.5,157.3z M17.5,150.8
	l-0.6,1.2c0.7,0.2,1.5,0.5,2.3,0.8c0.2-0.7,0.3-1.4,0.5-2L17.5,150.8z M24.3,150.8c-0.8,3.4-2.3,6.6-4.2,9.5h8.9
	C26.8,157.4,25.2,154.2,24.3,150.8L24.3,150.8z M27,149.8c0.6,1.4,1.3,2.7,2.2,3.9c0.7-1.2,1.2-2.6,1.6-3.9H27z M37.6,177.7
	l-4.2,3.5c-1.8-3.3-3.9-6.5-6.1-9.6l1.6-1.6C32.2,172,35.1,174.6,37.6,177.7L37.6,177.7z"/>
</svg>
