<?xml version="1.0" encoding="utf-8"?>
<!-- Generator: Adobe Illustrator 25.4.1, SVG Export Plug-In . SVG Version: 6.00 Build 0)  -->
<svg version="1.1" id="圖層_1" xmlns="http://www.w3.org/2000/svg" xmlns:xlink="http://www.w3.org/1999/xlink" x="0px" y="0px"
	 viewBox="0 0 201 251.3" style="enable-background:new 0 0 201 251.3;" xml:space="preserve">
<style type="text/css">
	.st0{fill:#FFFFFF;}
</style>
<path class="st0" d="M15.5,125.1h-0.7v-2.9l-2.2-3.6h0.8l0.9,1.6c0.3,0.5,0.7,1.1,0.9,1.5h0.1c0.2-0.4,0.6-0.9,0.9-1.5l0.9-1.6h0.7
	l-2.2,3.6L15.5,125.1z M27.7,123.1H25l-0.7,2h-0.6l2.4-6.5h0.7l2.5,6.5h-0.8L27.7,123.1z M26.4,119.3L26.4,119.3
	c-0.1,0.3-0.3,0.6-0.4,1l-0.8,2.4h2.4l-0.8-2.4C26.6,119.9,26.5,119.6,26.4,119.3z M37.2,119.5L37.2,119.5l-0.1,5.7h-0.6v-6.5h0.8
	c1.2,2,2.5,4.1,3.4,5.7l0,0v-5.7h0.6v6.5h-0.8C39.5,123.1,38.2,121,37.2,119.5z M50,122c0,1.8,0.7,2.8,2.3,2.8c0.5,0,1-0.1,1.4-0.3
	v-2.2h-1.5v-0.4h2.1v2.8c-0.6,0.4-1.4,0.6-2.1,0.5c-2,0-3-1.2-3-3.2c0-2.1,1.1-3.6,3-3.6c0.7,0,1.3,0.1,1.9,0.4v0.7
	c-0.5-0.4-1.2-0.6-1.8-0.6C50.8,119,50,120.2,50,122z M77,119.3L77,119.3c-0.7,1.9-1.5,4-2.3,5.8H74c-0.7-1.8-1.5-4.1-2.2-5.8l0,0
	v5.8h-0.6v-6.5h0.9c0.8,1.9,1.6,4.1,2.2,5.6h0.1c0.6-1.5,1.5-3.8,2.2-5.6h1v6.5H77V119.3z M85.8,118.6h0.7v6.5h-0.7V118.6z
	 M95.2,119.5L95.2,119.5l-0.1,5.7h-0.6v-6.5h0.8c1.2,2,2.5,4.1,3.4,5.7l0,0v-5.7h0.6v6.5h-0.8C97.5,123.1,96.2,121,95.2,119.5z
	 M108,122c0,1.8,0.7,2.8,2.3,2.8c0.5,0,1-0.1,1.4-0.3v-2.2h-1.5v-0.4h2.1v2.8c-0.6,0.4-1.4,0.6-2.1,0.5c-2,0-3-1.2-3-3.2
	c0-2.1,1.1-3.6,3.1-3.6c0.7,0,1.3,0.1,1.9,0.4v0.7c-0.5-0.4-1.2-0.6-1.8-0.6C108.9,119,108,120.2,108,122z M128.6,118.6h0.7l1.5,4.3
	c0.1,0.3,0.4,1,0.5,1.3l0,0c0.1-0.3,0.4-1.1,0.5-1.4l1.6-4.3h0.7l-2.5,6.5h-0.6L128.6,118.6z M141.6,118.6h0.7v6.5h-0.7V118.6z
	 M150.4,125.1v-6.5h0.7v6h2.7v0.5L150.4,125.1z M161.4,125.1v-6.5h0.7v6h2.7v0.5L161.4,125.1z M175.9,123.1h-2.7l-0.7,2h-0.6
	l2.4-6.5h0.7l2.5,6.5h-0.8L175.9,123.1z M174.5,119.3L174.5,119.3c-0.1,0.3-0.3,0.6-0.4,1l-0.8,2.4h2.4l-0.9-2.4
	C174.7,119.9,174.6,119.6,174.5,119.3z M58.7,54.2c-1.1,2.6-2.3,5.2-3.7,7.6h33.6c-0.7,14.5-2,28-3.5,35.1c-1.8,8.1-8.9,11.8-23,1.3
	l1.5-4.2c10.3,3.5,12.5,2.7,13.3-2.2c1.3-8.1,2.1-16.3,2.3-24.5h-3.2C71,84.8,57.9,98.8,40.7,105.1l-1.5-4
	c9.6-5.3,23-15.9,28.1-33.7h-4.1C57,81.8,45,90.7,35.2,94.9l-1.6-4.1c7.8-4.2,17.1-12.7,21.4-23.4h-3.7c-3.2,4.3-7.1,8.1-11.6,11.1
	l-1.9-3.7c-1.4,8.5-7.7,12-17.1,4.4l0.9-4.2c6.6,1.5,8,1,8-6.2c0.1-9.1-1.8-18.2-5.7-26.5c2.3-8.8,3.9-17.7,4.9-26.7h-8.5v89.7h-8.8
	V8.2l7.7,2.3h8.9l1.9-2l9,4.1c-3.6,13-7,21.4-11.2,29.1c6.4,10.6,9.9,19.2,10.3,27.8c0.1,1.7,0,3.3-0.2,5
	c5.5-5.7,9.6-12.6,11.8-20.2h-13v-5.4h54.4v5.4L58.7,54.2z M82,42.6H43.9V10.3H82V42.6z M52.8,15.8v7.9h20.3v-7.9H52.8z M73.2,37.2
	v-8.3H52.8v8.3H73.2z M137.3,76.2h-22.7v12.4h-9.4V11.4h32.1V76.2z M128.2,16.9h-13.6v24h13.6V16.9z M128.2,46.3h-13.6v24.4h13.6
	V46.3z M180.9,8.7v85.1c0,12.2-10,16-27.1,4.6l1-4.3c15.4,3.7,16.5,1.7,16.5-4.3V66.3h-19.1c-2.2,17.9-8.2,30.5-22.4,40.4l-2.5-3.7
	c14.4-15.4,16.5-26.8,16.5-59.1V8.7H180.9z M171.4,60.7V39.6h-18.1v7.3c0,5-0.1,9.5-0.5,13.9L171.4,60.7z M153.3,14.2v20h18.1v-20
	L153.3,14.2z M8.3,228c4.7-4,10.3-9.6,13.3-14.4v-23.5H9.5v-5.5h21.4v27.8c4.9,8.1,11.1,8.6,22.7,8.8c12.7,0.1,25.4-0.9,37.9-2.8
	L89,230.4c-11.5,1-23.1,1.2-34.6,0.6c-15.1-1-21.3-3.7-27.4-15.6c-3.4,7.1-7.7,13.7-12.8,19.7L8.3,228z M11.3,160.6l2.1-3.7
	c4.8,2.5,12.1,7.2,17,12.2l-6.5,8.6C20.7,172.8,15.2,165.4,11.3,160.6L11.3,160.6z M14.6,139.5l2.1-3.7c4.8,2.3,12.4,6.9,17.2,11.7
	l-6.5,8.4C23.4,150.3,19.2,144.8,14.6,139.5L14.6,139.5z M36.4,142.6h49.7v69.3H36.5L36.4,142.6z M77.3,206.4v-58.3H45.4v58.3H77.3z
	 M50,159h22.5v35.6H50V159z M65,189.3v-25h-7.5v25.1L65,189.3z M129.3,182.6c-1.3,24.3-8.7,42.7-24.6,51.4l-1.8-3.8
	c9.5-8.1,14.3-18.6,16.7-32.8c-4.4,3.1-9.2,5.4-14.4,7l-2.4-10c1.6-0.1,3.1-0.3,4.6-0.5c3.5-7.1,6.4-14.4,8.7-22
	c-3.6,2-7.4,3.5-11.3,4.7l-2.1-10c1.1,0,2.2-0.1,3.4-0.1c2.7-8.3,4.7-18.3,6.3-30.5l8.8,2.6c-2.6,9.4-6,18.6-10.3,27.4
	c2.4-0.2,4.9-0.5,7.3-0.8c1-3.5,1.8-7.1,2.7-10.8l8.6,3.5c-3.8,12.4-9.4,24.2-16.6,35c2.5-0.6,5-1.3,7.7-2c0.3-3,0.6-6,0.7-9.3
	L129.3,182.6z M147.6,196c5.2,9.1,8.9,19,11.2,29.2l-8.1,3c-0.6-4.1-1.5-8.5-2.4-12.7c-6.9,6-14.6,11-23,14.6l-3.5-10.3
	c2.8-0.7,5.5-1.5,8.4-2.5v-66h10.4c-1.6-5-3.8-10.3-5.7-14.9l3.4-2.3c4.2,4.3,7.7,9.2,10.3,14.6l-4.4,2.6h11.9v40.3h-17.4V214
	c2.8-1.2,5.5-2.4,8.2-3.9c-1.1-4.4-2.1-8.6-3.1-12.3L147.6,196z M138.9,156.6v12.2h9.1v-12.2L138.9,156.6z M148,186.4v-12.4h-9.2
	v12.4H148z M184.7,205.3c-0.2,17.5-10.8,16.3-17.3,11l0.8-4.4c6.4,0.9,7.6-0.5,7.6-9.1c0.1-6.7-2.5-17.1-5.8-26.2
	c1.6-8.7,3.3-20.4,4.1-29.8h-6.8v87.7H159v-95.7l8,2.5h6.3l2.2-2.1l8.1,3.5c-2.8,14.1-6.2,25.4-9.8,33.8
	C180.1,186.1,184.8,195.8,184.7,205.3L184.7,205.3z"/>
</svg>
