<svg width="134" height="12" viewBox="0 0 134 12" fill="none" xmlns="http://www.w3.org/2000/svg">
<path d="M65.09 10.96V9.79003H69.39V0.530029H70.71V4.55003H75.03V5.72003H70.71V9.80003H75.96V10.97H65.09V10.96Z" fill="white"/>
<path d="M78.39 9.84008V10.9801H77.24V1.10008H81.08V9.84008H78.39ZM79.95 2.20008H78.39V4.75008H79.95V2.20008ZM79.95 5.85008H78.39V8.74008H79.95V5.85008ZM81.38 10.9601V9.86008H83.96V6.24008H81.88V5.14008H83.96V1.93008H81.63V0.830078H87.54V1.93008H85.19V5.14008H87.31V6.24008H85.19V9.86008H87.88V10.9601H81.37H81.38Z" fill="white"/>
<path d="M89.2 11.43V0.77002H93.87V5.02002H90.4V11.43H89.21H89.2ZM92.72 1.69002H90.39V2.47002H92.72V1.69002ZM92.72 3.29002H90.39V4.11002H92.72V3.29002ZM94.89 11.03V8.64002H93.53C93.53 8.64002 93.44 10.07 92.03 11.01L91.13 10.2C92.4 9.49002 92.41 8.63002 92.41 8.63002H91.05V7.70002H92.48V6.59002H91.37V5.68002H97.08V6.59002H96.04V7.70002H97.45V8.63002H96.04V11.02H94.89V11.03ZM94.89 6.60002H93.61V7.71002H94.89V6.60002ZM96.7 10.16C98.21 10.16 98.21 10.03 98.21 9.50002V5.02002H94.7V0.77002H99.4V9.46002C99.4 10.75 99.12 11.31 97.18 11.34L96.69 10.15L96.7 10.16ZM98.21 1.70002H95.85V2.47002H98.21V1.70002ZM98.21 3.29002H95.85V4.11002H98.21V3.29002Z" fill="white"/>
<path d="M109.45 6.90002C109.08 6.90002 108.5 6.76002 108.5 5.84002V4.96002H107.48V5.01002C107.48 5.28002 107.42 6.58002 106.3 7.18002L105.54 6.32002C106.45 6.05002 106.56 4.90002 106.56 4.34002C106.56 4.14002 106.55 4.02002 106.55 4.02002H108.74C107.53 3.31002 106.58 2.44002 106.11 1.88002C105.67 2.48002 105 3.32002 103.87 4.01002H105.37V6.89002H102.62L102.47 7.94002H105.47V9.31002C105.47 11.1 104.87 11.39 102.13 11.43L101.63 10.35H102.06C104.01 10.35 104.3 10.31 104.3 9.34002V8.81002H101.27L101.67 5.98002H104.3V4.95002H102.7V4.62002C102.35 4.84002 101.81 5.10002 101.27 5.32002L100.67 4.24002C101.86 3.98002 102.77 3.49002 102.77 3.49002C102.1 2.91002 101.22 2.42002 101.22 2.42002L101.88 1.60002C101.88 1.60002 102.86 2.31002 103.61 2.96002C104.45 2.46002 104.99 1.75002 104.99 1.75002H102.37V0.80002H106.48C106.48 0.80002 106.78 1.20002 107.24 1.63002C108 1.12002 108.51 0.52002 108.51 0.52002L109.3 1.15002C109.3 1.15002 108.74 1.71002 107.98 2.26002C108.21 2.43002 108.55 2.66002 108.83 2.85002C109.62 2.24002 110.12 1.64002 110.12 1.64002L110.94 2.28002C110.94 2.28002 110.39 2.84002 109.71 3.36002C110.2 3.60002 110.93 3.89002 111.65 4.07002L111.14 5.11002C110.59 4.91002 109.98 4.66002 109.52 4.44002V5.62002C109.52 5.96002 109.63 5.97002 109.8 5.97002H109.81C109.96 5.97002 110.07 5.96002 110.07 5.13002L111.03 5.62002C110.92 6.70002 110.64 6.93002 110.07 6.93002H109.46L109.45 6.90002ZM110.85 11.43C109.89 11.27 108.96 10.88 108.36 10.51C107.74 10.93 106.78 11.29 105.9 11.44L105.35 10.31C106.02 10.29 107.02 10.14 107.38 9.92002C106.98 9.63002 106.47 9.17002 106.17 8.80002L107.21 8.35002C107.43 8.72002 107.9 9.21002 108.28 9.45002C109.12 8.94002 109.4 8.24002 109.4 8.24002H105.79V7.30002H110.63V8.08002C110.46 8.51002 109.95 9.42002 109.22 9.93002C109.72 10.14 110.43 10.26 111.28 10.29L110.84 11.44L110.85 11.43Z" fill="white"/>
<path d="M116.74 11.6901C115 10.0101 114.25 8.23006 114.25 5.94006C114.25 3.44006 115.18 1.70006 116.74 0.190063L117.36 0.740063C116.13 2.10006 115.26 3.82006 115.26 5.94006C115.26 7.95006 116.08 9.72006 117.36 11.1301L116.74 11.6901Z" fill="white"/>
<path d="M120.41 10.23C121.57 10.23 121.64 10.07 121.64 9.78002V9.62002L121.62 7.50002H120.07C120.03 8.78002 119.84 10.19 119.39 11.44L118.34 10.55C118.94 9.20002 118.99 6.71002 118.99 5.81002V0.77002H122.82V9.88002C122.82 10.87 122.32 11.38 120.91 11.38L120.42 10.23H120.41ZM121.64 4.64002H120.14V5.33002C120.14 5.33002 120.13 5.78002 120.13 6.46002H121.64V4.65002V4.64002ZM121.64 1.87002H120.14V3.58002H121.64V1.87002ZM128.65 11.42C127.58 10.97 126.86 10.58 126.24 10.05C125.62 10.55 124.66 11.08 123.55 11.43L122.88 10.21C123.89 10 124.72 9.66002 125.27 9.28002C124.31 8.41002 123.71 7.35002 123.71 7.35002L124.81 6.75002C124.81 6.75002 125.15 7.60002 126.19 8.54002C127.12 7.63002 127.36 6.59002 127.36 6.59002H123.39V5.54002H128.69V6.58002C128.69 6.58002 128.4 8.04002 127.12 9.22002C127.61 9.57002 128.41 9.95002 129.31 10.21L128.66 11.42H128.65ZM127.44 5.04002C126.72 5.04002 126.37 4.63002 126.37 4.00002V1.87002H125.36C125.36 3.25002 124.98 4.55002 123.73 5.24002L123 4.20002C124.13 3.66002 124.17 2.41002 124.17 1.03002V0.77002H127.57V3.66002C127.57 3.90002 127.67 3.94002 127.9 3.94002C128.17 3.94002 128.2 3.67002 128.22 2.43002L129.26 3.02002C129.21 4.24002 129.1 5.04002 128.21 5.04002H127.45H127.44Z" fill="white"/>
<path d="M130.3 11.1201C131.58 9.71005 132.38 7.94005 132.38 5.93005C132.38 3.81005 131.51 2.09005 130.3 0.730054L130.91 0.180054C132.48 1.70005 133.4 3.44005 133.4 5.93005C133.4 8.22005 132.67 10.0001 130.91 11.6801L130.3 11.1201Z" fill="white"/>
<path d="M1.44999 6.08999C1.62999 6.85999 1.80999 7.29998 2.23999 8.02998C2.60999 7.12998 2.77999 6.53999 2.96999 5.15999H1.86999C1.50999 5.15999 1.06999 5.16998 0.70999 5.19999C1.62999 3.84999 2.22999 2.79999 2.77999 1.58999H1.24999C0.88999 1.58999 0.65999 1.59999 0.37999 1.64999V0.819985C0.65999 0.869985 0.87999 0.879985 1.25999 0.879985H2.46999C2.93999 0.879985 3.19999 0.869985 3.40999 0.829985L3.77999 1.31999C3.69999 1.42999 3.62999 1.58999 3.49999 1.84999C3.12999 2.64999 2.51999 3.71999 1.98999 4.47999H2.81999C3.37999 4.47999 3.60999 4.46999 3.82999 4.42999C3.80332 4.55665 3.76999 4.76999 3.72999 5.06999C3.55999 6.42999 3.20999 7.71999 2.71999 8.75999C3.79999 10.15 5.16999 10.64 7.84999 10.64C9.10999 10.64 10.66 10.56 11.83 10.46C11.66 10.84 11.63 10.93 11.56 11.34C10.62 11.37 9.00999 11.39 8.02999 11.39C5.00999 11.39 3.69999 10.94 2.35999 9.41999C1.85999 10.29 1.42999 10.84 0.58999 11.68C0.38999 11.37 0.20999 11.19 -0.0100098 11.05C0.89999 10.24 1.35999 9.67999 1.86999 8.77999C1.55999 8.32999 1.32999 7.89999 0.99999 7.10999C0.89999 6.86999 0.793324 6.63332 0.67999 6.39999L1.44999 6.08999ZM7.05999 1.72999H5.42999C5.05999 1.72999 4.79999 1.73999 4.50999 1.77999V1.01999C4.78999 1.06999 5.01999 1.07999 5.44999 1.07999H7.05999C7.04999 0.609985 7.02999 0.409985 6.99999 0.109985H7.86999C7.81999 0.379985 7.80999 0.609985 7.80999 1.07999H9.82999C10.25 1.07999 10.53 1.06999 10.76 1.03999C10.76 1.07999 10.7567 1.15332 10.75 1.25999C10.74 1.38999 10.74 1.65999 10.74 1.84999V2.75999H10.8C11.2 2.75999 11.45 2.73999 11.76 2.67999V3.44999C11.48 3.40999 11.24 3.39999 10.8 3.39999H10.74V4.44999C10.74 4.71999 10.75 5.04998 10.76 5.17999C10.35 5.15999 10.19 5.15999 9.84999 5.15999H7.80999V6.25999H9.84999C10.28 6.25999 10.63 6.24999 10.99 6.19999V6.95999C10.66 6.91999 10.34 6.90999 9.83999 6.90999H7.80999V8.03999H10.43C10.95 8.03999 11.3 8.00999 11.62 7.95999V8.73999C11.31 8.69999 10.96 8.68999 10.43 8.68999H7.80999V9.00999C7.80999 9.56999 7.81999 9.86999 7.86999 10.2H6.99999C7.03999 9.83999 7.05999 9.54999 7.05999 9.01999V8.68999H5.01999C4.51999 8.68999 4.23999 8.69999 3.87999 8.75999V7.95999C4.18999 8.00999 4.52999 8.03999 5.02999 8.03999H7.05999V6.90999H5.34999C4.93999 6.90999 4.60999 6.92999 4.29999 6.96999V6.19999C4.60999 6.24999 4.93999 6.25999 5.34999 6.25999H7.05999V5.15999H5.38999C5.02999 5.15999 4.79999 5.16999 4.49999 5.20999V4.44999C4.76999 4.49999 4.98999 4.50999 5.42999 4.50999H7.05999V3.39999H4.92999C4.38999 3.39999 4.06999 3.40999 3.75999 3.45999V2.67999C4.08999 2.72999 4.36999 2.75999 4.94999 2.75999H7.06999V1.71999L7.05999 1.72999ZM9.97999 2.76999V1.72999H7.79999V2.76999H9.97999ZM7.79999 4.52999H9.97999V3.41999H7.79999V4.52999Z" fill="white"/>
<path d="M22.81 7.91003C23.5 7.91003 23.88 7.89003 24.25 7.83003V8.66003C23.8 8.61003 23.39 8.58003 22.81 8.58003H19.44C20.64 9.60003 22.34 10.35 24.46 10.8C24.19 11.13 24.1 11.27 23.96 11.61C22.77 11.26 22.06 10.98 21.25 10.58C20.27 10.09 19.51 9.57003 18.81 8.86003C18.85 9.28003 18.86 9.62003 18.86 9.85003V10.57C18.86 11.22 18.87 11.57 18.94 11.87H18.02C18.07 11.54 18.1 11.19 18.1 10.57V9.85003C18.1 9.59003 18.11 9.32003 18.15 8.86003C17.47 9.47003 16.86 9.91003 15.95 10.4C15.15 10.84 14.41 11.13 13.14 11.54C12.99 11.21 12.83 10.98 12.63 10.78C14.57 10.34 16.27 9.58003 17.54 8.58003H14.44C13.87 8.58003 13.47 8.60003 13.02 8.66003V7.83003C13.35 7.88003 13.76 7.91003 14.44 7.91003H18.09C18.09 7.47003 18.08 7.30003 18.04 7.03003C17.84 7.18003 17.75 7.25003 17.46 7.41003C17.28 7.15003 17.17 7.04003 16.89 6.85003C18.17 6.22003 18.51 5.67003 18.51 4.18003C18.51 3.86003 18.5 3.68003 18.46 3.42003C18.73 3.46003 19 3.47003 19.51 3.47003H21.4C21.86 3.47003 22.2 3.46003 22.49 3.42003C22.45 3.79003 22.44 4.11003 22.44 4.66003V6.11003C22.44 6.34003 22.48 6.35003 22.93 6.35003C23.41 6.35003 23.53 6.32003 23.57 6.18003C23.62 6.01003 23.67 5.40003 23.67 4.73003C23.94 4.91003 24.09 4.99003 24.36 5.08003C24.33 5.87003 24.24 6.40003 24.12 6.63003C23.97 6.94003 23.69 7.03003 22.86 7.03003C21.91 7.03003 21.71 6.89003 21.71 6.29003V4.12003H19.25C19.21 5.70003 18.97 6.29003 18.09 7.00003H18.93C18.89 7.27003 18.88 7.45003 18.88 7.90003H22.82L22.81 7.91003ZM14.77 1.95003C14.32 2.58003 13.99 2.98003 13.48 3.45003C13.28 3.22003 13.14 3.12003 12.84 2.94003C13.91 2.06003 14.56 1.16003 14.93 0.0700293L15.75 0.310029C15.55 0.690029 15.46 0.870029 15.21 1.27003H17.23C17.84 1.27003 18.17 1.24003 18.49 1.19003V2.00003C18.18 1.96003 17.8 1.95003 17.32 1.95003H16.49C16.75 2.35003 16.88 2.57003 17.15 3.08003L16.45 3.34003C16.18 2.75003 16.02 2.42003 15.72 1.96003H14.76L14.77 1.95003ZM14.44 4.28003C13.96 4.28003 13.71 4.29003 13.39 4.34003V3.56003C13.7 3.61003 13.91 3.62003 14.44 3.62003H16.65C17.2 3.62003 17.42 3.61003 17.71 3.56003V4.34003C17.4 4.29003 17.15 4.28003 16.69 4.28003H15.95V5.81003C16.55 5.64003 16.86 5.55003 17.71 5.27003L17.77 5.90003C16.47 6.35003 15.4 6.67003 14.02 6.99003C13.62 7.09003 13.55 7.10003 13.25 7.20003L13.01 6.39003C13.57 6.35003 13.98 6.27003 15.19 5.99003V4.29003H14.44V4.28003ZM19.58 1.95003C19.27 2.44003 19.06 2.73003 18.64 3.19003C18.45 2.98003 18.33 2.91003 18.03 2.74003C18.83 1.96003 19.32 1.15003 19.65 0.0300293L20.43 0.270029C20.23 0.760029 20.18 0.860029 19.97 1.26003H22.92C23.55 1.26003 23.89 1.25003 24.29 1.18003V2.00003C23.88 1.95003 23.49 1.94003 22.95 1.94003H21.52C21.8 2.32003 21.94 2.54003 22.16 2.91003L21.5 3.27003C21.28 2.81003 21.09 2.45003 20.75 1.94003H19.6L19.58 1.95003ZM19.97 4.53003C20.52 5.16003 20.77 5.49003 21.19 6.12003L20.63 6.57003C20.22 5.87003 19.93 5.44003 19.44 4.92003L19.96 4.54003L19.97 4.53003Z" fill="white"/>
<path d="M27.31 6.20997C27.31 5.60997 27.32 5.16997 27.36 4.61997C26.88 5.44997 26.57 5.82997 25.7 6.67997C25.46 6.23997 25.42 6.20997 25.16 5.95997C26.45 4.76997 27.35 3.49997 28.03 1.93997C28.3 1.30997 28.5 0.679971 28.58 0.219971L29.47 0.539971C29.3966 0.726637 29.3 0.973304 29.18 1.27997C28.92 1.95997 28.5 2.80997 28.12 3.47997V10.3C28.12 10.9 28.15 11.36 28.21 11.83H27.21C27.27 11.39 27.3 10.98 27.3 10.27V6.20997H27.31ZM32.71 4.57997C33.04 6.63997 33.51 8.02997 34.32 9.24997C34.91 10.14 35.55 10.76 35.86 10.76C36.01 10.76 36.12 10.64 36.22 10.34C36.33 9.97997 36.42 9.39997 36.51 8.64997C36.83 8.92997 37.02 9.06997 37.26 9.19997C36.97 11.03 36.61 11.71 35.93 11.71C35.05 11.71 33.77 10.34 32.9 8.47997C32.43 7.43997 32.08 6.19997 31.85 4.65997L30.11 4.83997C29.57 4.88997 29.23 4.93997 28.85 5.02997L28.8 4.10997C28.95 4.11997 29 4.11997 29.05 4.11997C29.29 4.11997 29.73 4.08997 30.08 4.05997L31.74 3.88997C31.65 3.06997 31.6 2.29997 31.59 1.64997C31.58 1.09997 31.55 0.739971 31.5 0.479971H32.48C32.43 0.709971 32.42 0.939971 32.42 1.30997C32.42 2.07997 32.46 2.72997 32.59 3.79997L35.59 3.48997C36.32 3.40997 36.57 3.36997 36.88 3.27997L36.96 4.19997H36.65C36.48 4.19997 36.04 4.22997 35.68 4.26997L32.69 4.57997H32.71ZM33.95 0.489971C34.77 1.12997 35.2 1.52997 36.01 2.37997L35.4 2.96997C34.88 2.28997 34.21 1.63997 33.41 0.979971L33.96 0.489971H33.95Z" fill="white"/>
<path d="M40.39 6.06H39.51C39.01 6.06 38.76 6.07 38.44 6.14V5.31C38.76 5.37 39 5.39 39.51 5.39H40.39V3.99H40.01C39.73 3.99 39.51 4 39.29 4.04V3.3C38.97 3.65 38.89 3.71 38.58 3.98C38.44 3.7 38.34 3.58 38.08 3.35C38.85 2.79 39.06 2.57 39.51 1.94C39.97 1.27 40.16 0.91 40.51 0L41.21 0.28L41.12 0.48C41.83 1.16 42.43 1.81 43.01 2.58L42.49 3.12C41.92 2.3 41.27 1.49 40.83 1.08C40.29 2.12 40.08 2.43 39.31 3.27C39.49 3.31 39.68 3.32 40.01 3.32H41.6C41.94 3.32 42.15 3.31 42.34 3.27V4.03C42.11 3.99 41.91 3.98 41.59 3.98H41.13V5.38H41.78C42.3 5.38 42.57 5.37 42.8 5.3V6.11C42.48 6.07 42.23 6.06 41.78 6.06H41.13V10.1C41.73 9.93 42.01 9.84 43.03 9.52V10.25C41.54 10.75 40.73 10.97 39.33 11.3C38.96 11.39 38.86 11.42 38.58 11.51L38.41 10.64C38.82 10.62 39.29 10.54 40.39 10.28V6.06ZM39.19 9.72C39.04 8.64 38.9 8.07 38.55 7.02L39.21 6.84C39.57 7.93 39.67 8.34 39.87 9.53L39.18 9.72H39.19ZM41.63 9.05C41.91 8.23 42.03 7.77 42.18 6.79L42.83 6.99C42.63 8.02 42.52 8.38 42.22 9.22L41.63 9.04V9.05ZM44.21 3.45C43.79 2.37 43.5 1.81 42.91 0.99L43.61 0.61C44.22 1.6 44.49 2.1 44.92 3.08L44.21 3.45ZM45.83 1.21C45.83 0.8 45.8 0.52 45.75 0.15H46.67C46.62 0.51 46.59 0.79 46.59 1.21V3.81H47.9C48.37 3.81 48.77 3.79 49.05 3.75C49.01 4.06 49 4.36 49 4.8V10.74C49 11.42 48.74 11.61 47.88 11.61C47.48 11.61 47.06 11.58 46.43 11.53C46.39 11.25 46.35 11.06 46.25 10.71C46.93 10.84 47.32 10.88 47.77 10.88C48.15 10.88 48.24 10.83 48.24 10.6V8.84H44.32V10.33C44.32 10.93 44.35 11.42 44.4 11.77H43.51C43.55 11.41 43.57 10.92 43.57 10.35V4.84C43.57 4.28 43.57 4.15 43.53 3.78C43.78 3.82 44.13 3.83 44.64 3.83H45.83V1.21ZM48.24 4.51H44.32V5.93H48.24V4.51ZM44.32 8.13H48.24V6.64H44.32V8.13ZM49.62 0.96C49.11 2 48.65 2.79 48.15 3.51L47.5 3.14C48.13 2.31 48.43 1.76 48.88 0.63L49.62 0.96Z" fill="white"/>
<path d="M56.26 0.130005H56.83V11.85H56.26V0.130005Z" fill="white"/>
</svg>
