<svg width="240" height="133" viewBox="0 0 240 133" fill="none" xmlns="http://www.w3.org/2000/svg">
<g clip-path="url(#clip0_4_1137)">
<path d="M45.3796 23.8076C45.3796 23.8076 43.6727 24.4527 43.5343 24.7138C43.4728 24.8367 43.3651 24.9749 43.2421 25.021C42.8423 25.2053 42.381 25.3129 41.9965 25.5279C41.4583 25.8351 39.4592 26.5877 39.0901 26.8949C38.8749 26.8949 38.8902 26.9103 38.4597 27.2021C38.3828 27.2482 38.2597 27.4018 38.1982 27.3864C37.537 27.6322 37.4755 27.6629 37.1525 27.924C36.7527 28.2619 36.2606 28.5077 35.7993 28.7381C34.0924 29.5829 32.3855 30.4123 30.6785 31.2417C29.9096 31.6103 29.1254 31.9483 28.3719 32.3476C27.6184 32.747 26.9264 33.2999 26.1267 33.6071C25.3271 33.9143 24.6505 34.4212 23.9123 34.8205C23.5125 35.0356 23.0973 35.2045 22.6975 35.4196C21.9594 35.7882 21.2212 36.1722 20.4831 36.5562C18.8684 37.401 17.2692 38.2304 15.6699 39.0905C14.6242 39.6589 13.5939 40.2579 12.5328 40.8262C11.8255 41.2102 11.0873 41.5327 10.3799 41.9321C9.62644 42.3468 8.90369 42.823 8.15018 43.253C6.75081 44.0825 5.38219 44.9426 3.96744 45.7413C2.96789 46.3096 2.01447 47.0469 0.815009 47.1544C0.53821 47.1851 0.246034 46.8626 -0.0461426 46.709C0.0922569 46.5093 0.199901 46.2328 0.384433 46.1253C2.76798 44.7583 5.1669 43.422 7.56583 42.0703C9.5188 40.9644 11.441 39.8125 13.4094 38.7373C15.0855 37.8157 16.7925 36.9709 18.4994 36.0954C20.3293 35.1431 22.1593 34.2061 23.9738 33.2538C25.8807 32.2708 27.7721 31.2724 29.6944 30.3048C31.1245 29.5829 32.5854 28.8917 34.0155 28.1698C35.9223 27.2021 37.8292 26.2037 39.736 25.2514C41.366 24.4374 43.0115 23.6694 44.6415 22.8553C45.7487 22.3023 46.8251 21.7187 47.9323 21.1811C49.1318 20.5974 50.3466 20.0598 51.5461 19.5069C51.8536 19.3533 52.1458 19.169 52.4688 19.0154C54.2987 18.1706 56.1286 17.3104 57.9432 16.481C58.8966 16.0356 59.8654 15.5901 60.8342 15.1601C62.126 14.5918 63.4331 14.0542 64.7248 13.4705C65.5091 13.1172 66.2472 12.6718 67.0468 12.3339C68.7691 11.5966 70.4914 10.8901 72.2291 10.1835C74.0129 9.4616 75.8121 8.75505 77.6113 8.06386C79.5797 7.31124 81.5634 6.55861 83.5471 5.82134C85.8691 4.9612 88.2066 4.10105 90.5593 3.3177C92.0971 2.81083 93.681 2.42684 95.2495 1.99677C96.9719 1.53597 98.7095 1.0291 100.447 0.629748C101.524 0.383992 102.662 0.368633 103.738 0.153596C104.661 -0.0307207 105.583 -0.0614403 106.445 0.215035C108.228 0.783346 109.09 1.55133 108.259 3.57882C107.829 4.59256 107.167 5.51415 106.598 6.46645C106.168 7.18836 105.829 8.01778 105.23 8.54002C104.676 9.03153 104.722 9.89167 103.938 10.1989C103.692 10.291 103.569 10.7518 103.431 11.0744C103.215 11.5352 102.769 11.6888 102.4 11.9652C102.154 12.1496 102 12.5182 101.862 12.81C101.447 13.7162 100.678 14.3306 100.078 15.0986C99.4477 15.9281 98.8941 16.8189 98.279 17.6637C97.6177 18.5853 96.9257 19.4915 96.2183 20.3824C95.6955 21.0428 95.1112 21.6572 94.5883 22.3177C94.4345 22.5174 94.3577 22.8092 94.2808 23.055C94.127 23.5618 93.3427 23.6079 93.4042 24.253C92.5585 24.422 92.6661 25.3743 92.0971 25.8504C91.4974 26.3266 91.2667 27.2328 90.7285 27.8319C90.4056 28.1851 90.4363 28.7995 89.8058 28.9685C89.6059 29.0146 89.529 29.5521 89.3445 29.8133C89.1907 30.0129 89.0523 30.2126 88.8832 30.3969C88.5141 30.8424 88.1451 31.3032 87.776 31.7486C87.7299 31.81 87.653 31.8561 87.6222 31.9175C87.0225 32.962 86.392 33.9911 85.8538 35.0663C85.1156 36.5562 84.3929 38.0768 83.7778 39.6281C83.5625 40.1504 83.5625 40.8108 83.6548 41.3791C83.7932 42.2086 84.3314 42.439 85.1925 42.3929C87.6068 42.2854 89.5444 41.0105 91.5281 39.8585C92.1433 39.5053 92.7891 39.1827 93.3888 38.7987C94.3884 38.169 95.3264 37.4624 96.3414 36.8327C97.4486 36.1415 98.5711 35.481 99.5092 34.5441C99.6937 34.3597 99.9705 34.2829 100.186 34.1447C101.923 32.9774 103.661 31.7947 105.414 30.6273C106.368 29.9822 107.383 29.3985 108.29 28.7074C109.489 27.8011 110.766 27.0331 111.996 26.1884C113.611 25.0825 115.194 23.9612 116.84 22.9014C117.978 22.1641 119.177 21.5497 120.331 20.8585C121.161 20.3517 121.961 19.7987 122.791 19.2918C123.914 18.616 125.036 17.9555 126.174 17.2951C127.066 16.7728 127.943 16.2506 128.865 15.7898C129.803 15.3137 130.787 14.8836 131.772 14.4996C132.371 14.2692 133.417 14.9297 133.525 15.5441C133.555 15.713 133.525 15.9588 133.402 16.097C132.817 16.8957 132.264 17.7251 131.602 18.4317C130.926 19.1536 130.342 19.9677 129.68 20.7049C128.727 21.7801 127.712 22.8092 126.758 23.869C126.205 24.4834 125.697 25.1439 125.128 25.7429C124.713 26.1884 124.237 26.5877 123.806 27.0331C122.868 27.9855 121.93 28.9224 121.023 29.9054C120.392 30.5812 119.839 31.3185 119.223 31.9943C118.639 32.6395 118.009 33.2231 117.424 33.8682C117.055 34.2829 116.748 34.7437 116.394 35.1738C116.117 35.5117 115.81 35.8036 115.548 36.1568C114.672 37.3549 113.826 38.5837 112.919 39.7664C112.042 40.8876 111.473 42.1471 111.073 43.5142C110.673 44.8504 111.212 45.5109 112.596 45.2498C113.734 45.0348 114.856 44.7737 115.933 44.2207C117.563 43.3759 119.3 42.7462 120.946 41.9321C122.391 41.1948 123.76 40.3193 125.175 39.5206C125.759 39.1981 126.389 38.9369 126.974 38.6144C127.943 38.0768 128.881 37.5085 129.849 36.9709C130.834 36.4179 131.849 35.8957 132.833 35.3581C133.909 34.7745 134.986 34.1754 136.077 33.6071C137.092 33.0695 138.107 32.5627 139.138 32.0404C139.645 31.7793 140.168 31.5336 140.675 31.2724C142.059 30.5812 143.443 29.9054 144.812 29.1989C145.519 28.8456 146.165 28.3848 146.888 28.093C147.887 27.6936 148.826 27.1714 149.81 26.7106C150.21 26.5109 150.64 26.3727 151.071 26.2191C151.701 25.9733 152.332 25.7276 152.962 25.5125C154.192 25.1132 155.438 24.7292 156.684 24.4066C157.114 24.2838 158.037 24.9442 158.083 25.3743C158.114 25.574 158.037 25.8658 157.914 26.004C156.837 27.156 155.73 28.2773 154.638 29.4139C154.392 29.6597 154.208 29.9669 153.946 30.1973C152.424 31.5796 150.871 32.9159 149.364 34.3137C148.318 35.2813 147.318 36.3104 146.273 37.2935C145.842 37.6928 145.335 38.0154 144.92 38.4301C144.535 38.8141 144.228 39.2749 143.874 39.6896C143.705 39.8893 143.505 40.0582 143.336 40.2579C142.013 41.8246 140.629 43.3298 139.768 45.2191C139.384 46.0639 139.061 46.9701 139.599 47.8763C139.722 48.076 139.968 48.2757 140.183 48.3371C141.275 48.6443 142.352 48.3371 143.366 47.9838C145.243 47.3541 147.026 46.5093 148.733 45.4802C149.794 44.8351 150.963 44.3743 152.055 43.7599C153.131 43.1609 154.177 42.4697 155.238 41.8399C156.345 41.1795 157.468 40.5344 158.575 39.8893C159.421 39.3977 160.282 38.9062 161.128 38.4147C163.111 37.2781 165.08 36.1415 167.079 35.0202C169.632 33.5764 172.2 32.1633 174.752 30.7348C175.183 30.4891 175.86 30.6734 176.121 31.1035C176.475 31.6871 176.367 32.0865 175.875 32.5012C175.321 32.962 174.829 33.515 174.306 34.0065C173.691 34.5901 173.045 35.1431 172.461 35.7421C171.984 36.2336 171.554 36.7866 171.108 37.3242C169.97 38.7373 168.817 40.1504 167.694 41.5942C166.602 42.9919 165.679 44.4818 165.126 46.1714C164.957 46.6783 165.049 47.2773 165.08 47.8302C165.08 47.907 165.372 48.0146 165.526 48.0146C166.633 48.0146 167.571 47.477 168.494 46.9701C170.262 45.9871 171.907 44.8044 173.522 43.5756C175.89 41.7939 178.289 40.0429 180.673 38.2918C182.011 37.2935 183.364 36.2951 184.702 35.312C184.779 35.2506 184.871 35.2045 184.917 35.1277C185.102 34.8052 185.363 34.5901 185.732 34.7591C186.116 34.9434 186.532 35.1277 186.624 35.65C186.747 36.4179 186.239 36.8634 185.84 37.3856C184.44 39.152 183.164 40.9798 182.364 43.0994C181.98 44.1439 181.703 45.2344 181.411 46.3096C181.349 46.5247 181.411 46.7858 181.442 47.2158C182.287 46.7243 183.041 46.4018 183.656 45.8949C185.901 44.0517 188.1 42.1625 190.299 40.2579C191.437 39.2749 192.544 38.2458 193.652 37.2167C193.851 37.0323 193.974 36.7712 194.174 36.5869C194.39 36.3872 194.759 36.0186 194.897 36.0954C195.282 36.2797 195.697 36.5715 195.897 36.9402C196.204 37.5085 195.866 38.0461 195.589 38.5837C194.805 40.135 193.99 41.671 193.298 43.2838C193.006 43.9749 193.006 44.8044 192.883 45.5724C192.96 45.6184 193.036 45.6492 193.129 45.6952C193.959 44.9119 194.851 44.1593 195.635 43.3145C196.712 42.1779 197.727 40.9798 198.726 39.7817C199.341 39.0445 199.895 38.2458 200.433 37.4471C200.756 36.9709 201.156 36.9095 201.633 37.1706C202.555 37.6774 202.263 38.4608 202.155 39.1673C201.956 40.5344 201.679 41.886 201.433 43.253C201.402 43.4066 201.433 43.5756 201.433 43.7445C201.494 43.7906 201.556 43.8213 201.617 43.8674C202.14 43.3145 202.709 42.8076 203.155 42.1932C203.985 41.0566 204.723 39.8585 205.523 38.6912C205.938 38.0922 206.231 38 206.876 38.3379C207.461 38.6297 207.861 38.4608 208.245 38.0154C208.276 37.9846 208.291 37.9386 208.322 37.9232C208.614 37.7389 208.922 37.5699 209.214 37.3856C209.368 37.8003 209.675 38.2458 209.644 38.6451C209.583 39.5821 208.537 40.519 207.584 40.6419C207.461 40.6572 207.322 40.5804 207.215 40.5344C206.738 40.2886 206.384 40.4422 206.092 40.8723C205.692 41.4713 205.339 42.0857 204.893 42.654C204.262 43.4527 203.555 44.2053 202.894 44.9887C202.74 45.173 202.617 45.4034 202.494 45.6184C202.109 46.2482 201.817 46.3403 201.141 46.0485C199.895 45.4956 199.726 45.2191 199.756 43.8981C199.772 42.8998 199.756 41.9014 199.756 40.8108C199.387 41.2409 199.034 41.6556 198.68 42.0703C198.434 42.3622 198.188 42.6694 197.942 42.9766C197.373 43.6677 196.819 44.3589 196.235 45.0194C195.574 45.7874 194.913 46.5861 194.174 47.2773C193.836 47.5998 193.313 47.7074 192.898 47.907C192.237 47.4155 191.56 47.0162 191.391 46.1407C191.13 44.8504 191.299 43.6063 191.714 42.3929C191.898 41.8553 192.098 41.3177 192.175 40.688C191.775 40.9644 191.345 41.2102 190.991 41.5327C190.422 42.0703 189.93 42.7001 189.346 43.2223C188.669 43.8367 187.916 44.3897 187.208 44.9733C186.901 45.2191 186.593 45.4802 186.286 45.726C185.624 46.2482 184.948 46.7551 184.287 47.2773C183.779 47.6766 183.302 48.1067 182.78 48.4753C181.841 49.1358 181.088 49.1973 180.35 48.2142C179.596 47.2158 179.519 46.1099 179.812 44.8965C180.258 43.0994 181.073 41.4867 181.995 39.9046C182.118 39.6896 182.149 39.4131 182.241 39.0905C181.995 39.1366 181.872 39.1213 181.795 39.1827C180.304 40.3193 178.812 41.4713 177.32 42.6079C176.675 43.0994 176.013 43.5449 175.367 44.0057C174.291 44.7736 173.215 45.5724 172.138 46.325C170.939 47.1544 169.755 48.0606 168.478 48.7518C167.586 49.2433 166.679 49.8116 165.556 49.7502C164.542 49.7041 164.019 49.1051 163.588 48.3218C162.958 47.1698 163.219 46.0024 163.696 44.9119C164.695 42.6079 166.11 40.5344 167.755 38.6451C168.663 37.6007 169.616 36.5869 170.554 35.5578C170.8 35.2813 171.031 34.9741 171.277 34.6823C171.231 34.6209 171.2 34.5748 171.154 34.5133C170.754 34.6823 170.354 34.8513 169.97 35.0356C169.339 35.3581 168.709 35.7114 168.094 36.0493C166.679 36.8173 165.264 37.5853 163.865 38.384C162.604 39.1059 161.389 39.8893 160.128 40.6419C158.037 41.886 155.93 43.1148 153.839 44.3282C152.701 44.9887 151.547 45.6184 150.379 46.2328C149.118 46.9087 147.857 47.5691 146.596 48.2142C145.104 48.9669 143.582 49.7195 141.921 49.9499C139.937 50.2417 138.323 49.6427 137.692 47.308C137.4 46.2328 137.861 45.2805 138.307 44.3282C139.091 42.6079 140.322 41.1641 141.536 39.751C142.398 38.7373 143.397 37.8464 144.351 36.9095C145.289 35.9879 146.242 35.0817 147.211 34.1908C148.872 32.6702 150.563 31.1956 152.209 29.6443C153.054 28.8456 153.808 27.9701 154.592 27.1253C154.715 27.0024 154.777 26.8181 154.946 26.4956C154.085 26.7413 153.393 26.8949 152.731 27.1253C151.947 27.4171 151.194 27.7704 150.44 28.1083C149.425 28.5538 148.426 29.0146 147.411 29.4753C146.596 29.844 145.75 30.1819 144.935 30.5659C144.566 30.7502 144.228 31.0267 143.859 31.211C141.967 32.1633 140.045 33.0849 138.153 34.0372C136.846 34.6977 135.524 35.3581 134.232 36.0647C132.341 37.1091 130.48 38.2304 128.588 39.2749C126.697 40.3193 124.775 41.3177 122.868 42.3315C121.33 43.1609 119.808 44.021 118.255 44.8044C117.347 45.2652 116.394 45.6184 115.456 46.0024C114.918 46.2175 114.379 46.4632 113.826 46.6322C112.765 46.9394 111.658 46.9855 110.658 46.4632C109.289 45.7567 108.843 44.0057 109.428 42.5926C110.52 39.9814 112.18 37.7389 113.933 35.5732C115.379 33.7914 116.978 32.1326 118.547 30.4584C119.654 29.2603 120.807 28.1083 121.93 26.9103C123.375 25.3897 124.836 23.8844 126.236 22.3023C127.681 20.6589 129.034 18.9386 130.418 17.249C130.465 17.2029 130.465 17.1108 130.541 16.8189C129.957 17.034 129.496 17.1568 129.081 17.3872C127.051 18.5085 125.021 19.6451 123.022 20.8125C121.33 21.7955 119.654 22.8399 117.993 23.8844C116.948 24.5295 115.933 25.2053 114.918 25.8965C113.995 26.5263 113.088 27.2021 112.165 27.8319C110.735 28.7995 109.289 29.7211 107.875 30.6888C106.183 31.8407 104.507 33.0388 102.815 34.1908C101.785 34.8973 100.709 35.5271 99.6783 36.2336C98.7249 36.8787 97.8176 37.6007 96.8488 38.2304C95.388 39.1827 93.9271 40.1504 92.4047 41.0259C90.8515 41.9167 89.2676 42.7769 87.653 43.5295C86.4843 44.0671 85.1771 44.0671 83.9469 43.6831C82.6706 43.2838 81.7633 41.5635 81.8863 40.4268C82.1477 37.831 83.5471 35.7575 84.8081 33.6225C85.6539 32.2247 86.6073 30.8884 87.5607 29.5521C88.5141 28.2005 89.5137 26.8642 90.4978 25.5279C91.8511 23.6847 93.2197 21.8569 94.5883 20.0291C95.4033 18.9539 96.2491 17.9095 97.0641 16.8343C97.8484 15.8052 98.6173 14.7454 99.3862 13.7009C100.293 12.4875 101.231 11.274 102.123 10.0453C102.785 9.1544 103.4 8.23282 104.015 7.29588C104.599 6.38965 105.199 5.46807 105.706 4.51576C106.091 3.79386 106.398 3.01051 106.66 2.22716C106.86 1.62813 106.598 1.32094 105.968 1.36702C104.63 1.47453 103.277 1.53597 101.954 1.79709C99.8321 2.2118 97.7254 2.76475 95.6186 3.22554C95.4648 3.25626 95.2803 3.14875 95.1573 3.19483C94.3423 3.50202 93.5426 3.82457 92.7122 4.08569C91.7127 4.40825 90.6978 4.68472 89.6982 4.99192C88.6833 5.31447 87.6837 5.66774 86.6688 6.03638C85.9307 6.29749 85.2233 6.58933 84.4852 6.83508C83.7778 7.06548 83.055 7.23444 82.3476 7.49555C81.5019 7.80275 80.6869 8.15602 79.8565 8.49394C78.9338 8.86257 78.0111 9.26192 77.0731 9.59984C76.2735 9.89167 75.3815 10.0146 74.6434 10.4139C74.136 10.6904 73.3824 10.5061 73.0749 11.1819C73.0441 11.2433 72.9365 11.2894 72.875 11.274C72.2137 11.1819 71.737 11.7041 71.1373 11.8116C70.8144 11.8731 70.5376 12.1956 70.2146 12.3339C69.415 12.7025 68.6153 13.0558 67.8003 13.3783C67.2775 13.578 66.7085 13.7009 66.1703 13.8852C66.0011 13.9466 65.8781 14.1156 65.7243 14.1924C64.9862 14.5303 64.2481 14.8222 63.5099 15.1754C63.1255 15.3597 62.7718 15.5748 62.4028 15.7898C62.3566 15.8205 62.3105 15.8513 62.2644 15.8666C61.2802 16.2199 60.296 16.5732 59.3272 16.9418C59.1734 17.0032 59.035 17.1261 58.8966 17.2183C58.1124 17.8019 57.2666 18.232 56.3132 18.4931C55.6827 18.6621 55.1445 19.1382 54.514 19.3686C54.0219 19.5529 53.6528 20.1213 53.007 19.8755C52.9608 19.8601 52.8532 19.8909 52.8532 19.9062C52.8224 20.3977 52.3457 20.2441 52.1304 20.4285C51.5 20.9814 50.7003 21.2425 49.9929 21.6265C48.9165 22.2255 47.7786 22.7171 46.6714 23.2547C46.2869 23.439 45.8717 23.5926 45.4104 23.7769L45.3796 23.8076Z" fill="white"/>
<path d="M149.071 97.2118C150.532 96.8893 151.916 96.5974 153.285 96.2595C153.439 96.2288 153.639 95.9523 153.654 95.7834C153.746 94.785 153.808 93.7712 153.869 92.7575C153.915 91.882 153.931 91.0218 154.023 90.1463C154.146 88.9483 154.3 87.7502 154.454 86.5675C154.515 86.1221 154.577 85.6766 154.715 85.2466C154.792 85.0162 154.992 84.709 155.161 84.6783C155.438 84.6475 155.822 84.7551 155.991 84.9547C156.33 85.3541 156.468 85.8456 156.345 86.4293C156.114 87.5198 155.868 88.6257 155.761 89.7316C155.592 91.3137 155.546 92.8957 155.438 94.4778C155.407 94.8771 155.346 95.2765 155.299 95.7219C155.499 95.7219 155.653 95.768 155.792 95.7373C157.314 95.4301 158.852 95.1075 160.374 94.7696C161.143 94.6007 161.789 94.9693 162.081 95.6758C162.266 96.1366 162.035 96.3209 161.681 96.3824C160.928 96.5206 160.143 96.5821 159.39 96.7049C158.129 96.92 156.883 97.1657 155.622 97.4269C155.499 97.4576 155.346 97.6419 155.346 97.7801C155.299 98.6096 155.269 99.439 155.253 100.268C155.253 101.036 155.269 101.804 155.253 102.572C155.223 103.279 155.315 103.371 155.976 103.248C157.622 102.941 159.267 102.618 160.912 102.311C161.697 102.158 162.573 102.864 162.527 103.663C162.527 103.816 162.204 104.032 162.02 104.062C160.128 104.339 158.237 104.569 156.345 104.815C156.022 104.861 155.715 104.968 155.315 105.061C155.361 105.952 155.407 106.812 155.438 107.672C155.453 108.286 155.438 108.901 155.484 109.515C155.546 110.744 155.622 111.973 155.699 113.201C155.73 113.647 155.807 114.092 155.792 114.522C155.792 114.707 155.653 114.998 155.499 115.044C154.577 115.352 153.931 114.799 153.915 113.831C153.9 112.618 153.777 111.404 153.746 110.175C153.716 108.762 153.716 107.349 153.716 105.952C153.716 105.813 153.716 105.69 153.716 105.475C153.116 105.568 152.547 105.629 151.993 105.752C151.163 105.936 150.348 106.197 149.517 106.382C149.133 106.458 149.01 106.643 149.01 107.027C149.01 108.486 148.964 109.93 148.933 111.389C148.933 112.019 148.902 112.664 148.856 113.293C148.841 113.739 148.564 113.892 148.149 113.862C148.01 113.862 147.872 113.8 147.749 113.8C147.226 113.8 146.949 113.585 147.011 113.017C147.088 112.341 147.165 111.665 147.165 110.99C147.195 109.699 147.165 108.409 147.165 107.027C146.626 107.134 146.104 107.242 145.596 107.349C144.028 107.672 142.474 108.025 140.906 108.332C140.629 108.394 140.322 108.363 140.045 108.286C139.63 108.179 139.307 107.964 139.322 107.441C139.353 106.904 139.568 106.766 140.152 106.689C141.675 106.504 143.197 106.167 144.704 105.859C145.504 105.69 146.273 105.475 147.165 105.26V99.5158C146.842 99.5619 146.442 99.5926 146.057 99.6387C144.766 99.7923 143.474 99.9459 142.182 100.084C141.675 100.146 141.152 100.176 140.629 100.192C139.845 100.222 139.307 99.8691 139.168 99.2547C139.061 98.7632 139.276 98.4867 139.768 98.5328C141.506 98.7171 143.213 98.3945 144.904 98.072C145.688 97.9184 146.473 97.734 147.318 97.5497C147.318 95.7373 147.318 93.9709 147.318 92.1892C147.318 91.4058 147.272 90.6071 147.226 89.8238C147.149 88.7179 147.057 87.6273 146.58 86.5982C146.442 86.291 146.565 85.8763 146.58 85.5077C146.949 85.5538 147.411 85.4616 147.641 85.6613C148.026 85.9992 148.379 86.46 148.533 86.9515C149.01 88.5489 149.102 90.2231 149.102 91.882C149.102 93.6023 149.102 95.3379 149.102 97.1657L149.071 97.2118ZM149.025 102.803H148.979C148.979 103.34 148.964 103.893 148.995 104.431C148.995 104.554 149.256 104.784 149.348 104.769C150.671 104.492 151.978 104.185 153.285 103.847C153.423 103.817 153.577 103.601 153.593 103.448C153.654 102.972 153.669 102.48 153.669 102.004C153.669 100.806 153.623 99.6233 153.623 98.4252C153.623 98.0105 153.531 97.8416 153.085 97.9798C151.886 98.3177 150.671 98.6556 149.456 98.9475C149.118 99.0243 149.025 99.1932 149.025 99.5004C149.025 100.591 149.025 101.697 149.025 102.787V102.803Z" fill="white"/>
<path d="M177.474 97.0889C178.612 97.5804 179.781 97.9644 180.857 98.5481C182.026 99.1779 182.703 100.268 183.133 101.513C184.04 104.078 183.333 106.351 181.672 108.286C180.396 109.761 178.674 110.79 176.767 111.297C174.245 111.957 171.585 110.252 170.969 107.749C170.416 105.475 170.585 103.264 171.523 101.129C171.907 100.253 172.384 99.4083 172.815 98.5328C172.323 98.3792 171.723 98.2563 171.169 98.0105C169.078 97.0889 168.14 95.3686 167.955 93.1568C167.832 91.5901 168.171 90.1156 168.909 88.7332C169.001 88.5489 169.124 88.3646 169.247 88.1956C169.493 87.8424 169.662 87.5045 169.524 87.0129C169.293 86.1682 169.755 85.1698 170.554 84.6936C171.846 83.9103 173.261 83.5724 174.768 83.6031C175.644 83.6184 176.49 83.6031 177.351 83.9103C178.689 84.3864 179.781 85.1083 180.427 86.3832C181.488 88.4875 181.734 90.6378 180.842 92.8804C180.181 94.5699 179.074 95.8909 177.613 96.9507C177.52 97.0121 177.443 97.0889 177.443 97.0889H177.474ZM179.704 89.9006C179.581 89.3169 179.443 88.3492 179.166 87.443C178.858 86.4446 178.089 85.7381 177.136 85.3848C176.306 85.0776 175.429 84.9087 174.629 85.5998C174.153 86.0146 173.538 86.2603 173.076 86.675C171.846 87.7656 170.908 89.0865 170.231 90.5918C169.662 91.8666 169.401 93.1722 169.893 94.5239C170.277 95.599 171.046 96.3977 172.138 96.6896C173.261 96.9968 174.368 96.7357 175.352 96.0906C175.967 95.6912 176.582 95.2918 177.151 94.8311C178.628 93.6637 179.504 92.1585 179.704 89.8852V89.9006ZM177.136 98.9782C176.429 98.9167 175.69 98.886 175.137 99.5004C174.937 99.7308 174.799 100.053 174.552 100.207C173.876 100.637 173.584 101.282 173.307 102.004C172.615 103.801 172.353 105.614 172.753 107.518C173.045 108.931 174.506 109.945 175.875 109.561C177.782 109.039 179.443 108.087 180.657 106.489C181.688 105.137 182.057 103.617 181.519 101.973C180.965 100.299 179.35 98.9628 177.121 98.9628L177.136 98.9782Z" fill="white"/>
<path d="M227.452 64.2805C227.944 63.6661 228.359 63.1439 228.79 62.637C230.297 60.9167 231.927 59.3654 234.08 58.4899C235.448 57.9369 236.678 58.2595 237.739 59.2118C238.893 60.2563 239.462 61.6079 239.677 63.1285C239.785 63.8658 240.015 64.6184 240 65.3557C239.969 67.1835 239.6 68.9652 239.077 70.7316C238.662 72.1447 238.17 73.481 237.386 74.7251C236.832 75.6007 236.263 76.4762 235.602 77.2595C235.156 77.7971 234.387 77.8432 233.741 77.9814C233.572 78.0121 233.218 77.751 233.188 77.5821C233.126 77.3363 233.203 76.9984 233.357 76.7834C233.741 76.1997 234.187 75.6621 234.618 75.1245C235.787 73.6807 236.755 72.0833 237.263 70.3323C238.016 67.7518 238.478 65.0946 237.663 62.422C237.447 61.7001 236.986 61.0089 236.494 60.4406C235.986 59.8569 235.279 60.2563 234.649 60.3791C233.172 60.6863 232.157 61.7001 231.096 62.6524C229.712 63.8965 228.651 65.3711 227.913 67.0453C227.329 68.3662 226.729 69.7179 226.56 71.1924C226.529 71.4842 226.314 71.9911 226.222 71.9758C225.729 71.9297 225.191 71.8375 224.776 71.5764C224.576 71.4535 224.468 70.8698 224.561 70.5934C225.191 68.9345 225.422 67.1989 225.53 65.4632C225.622 63.9272 225.606 62.3605 225.084 60.8553C224.745 59.8569 224.33 59.5344 223.315 59.8262C221.808 60.2563 220.332 60.7785 219.24 62.0073C218.825 62.4834 218.348 62.9289 217.918 63.405C216.857 64.6184 216.165 66.0469 215.749 67.5675C215.473 68.5505 215.519 69.6411 215.549 70.6855C215.626 73.1124 217.01 74.9248 218.44 76.7373C219.302 77.8278 220.224 78.7648 221.531 79.3023C221.7 79.3638 221.885 79.7785 221.824 79.9321C221.762 80.1011 221.393 80.3161 221.208 80.27C220.378 80.1011 219.563 79.8707 218.886 79.3023C216.949 77.7049 215.503 75.7389 214.488 73.4656C214.15 72.6977 214.012 71.8068 213.889 70.962C213.704 69.6564 213.627 68.3201 214.058 67.0453C214.473 65.7858 214.904 64.4648 215.642 63.3897C217.272 61.055 219.255 59.0889 222.116 58.1827C223.746 57.6605 225.145 57.8909 226.206 59.1504C226.729 59.7648 226.929 60.7017 227.129 61.5311C227.329 62.3606 227.344 63.2514 227.467 64.2652L227.452 64.2805Z" fill="white"/>
<path d="M190.176 102.265C190.868 102.188 191.545 102.112 192.237 102.019C194.205 101.774 196.173 101.559 198.126 101.267C199.234 101.098 200.31 100.806 201.387 100.545C201.725 100.468 202.601 100.867 202.786 101.251C202.955 101.635 202.74 102.434 202.401 102.618C202.355 102.649 202.294 102.68 202.248 102.68C199.141 102.787 196.081 103.325 193.006 103.74C191.729 103.909 190.453 104.154 189.177 104.262C188.515 104.323 187.793 104.308 187.27 103.77C186.732 103.233 186.808 102.511 187.408 101.912C188.854 100.453 190.33 99.0243 191.714 97.5036C192.76 96.3517 193.744 95.1229 194.636 93.8327C195.251 92.9572 195.681 91.9588 195.804 90.8529C195.927 89.7009 195.497 89.2094 194.328 89.3169C192.883 89.4398 191.56 89.9466 190.222 90.4996C188.992 91.0065 187.931 91.7284 186.993 92.65C186.762 92.8804 186.532 93.1568 186.439 93.464C186.316 93.8941 186.147 94.0323 185.701 93.9248C185.24 93.8173 185.04 93.5715 185.04 93.1261C185.025 91.9281 185.809 91.2061 186.655 90.5764C188.5 89.1479 190.591 88.1956 192.883 87.7502C194.021 87.5352 195.174 87.4276 196.266 88.042C197.127 88.5335 197.573 89.3015 197.665 90.2385C197.804 91.7284 197.404 93.0954 196.666 94.401C195.481 96.5053 193.928 98.2716 192.206 99.9151C191.483 100.606 190.837 101.374 190.161 102.112C190.161 102.158 190.192 102.204 190.207 102.265H190.176Z" fill="white"/>
<path d="M39.3054 51.9006C39.3516 51.4244 39.3977 50.7179 39.49 50.0267C39.5361 49.6427 40.1666 49.4276 40.5356 49.6734C41.0739 50.042 41.3353 50.5335 41.2891 51.2247C41.2123 52.3153 41.12 53.4365 41.689 54.4349C41.8427 54.7114 42.0427 54.9725 42.2733 55.2029C43.0883 56.0938 43.6419 55.9095 44.8875 55.2029C45.9178 54.6346 46.6098 53.7284 46.9789 52.6071C47.0558 52.3921 47.1481 52.177 47.2557 51.9774C47.471 51.578 47.8401 51.3937 48.2706 51.5166C48.7166 51.6548 48.9011 51.9927 48.8242 52.4689C48.6397 53.5441 48.2552 54.5271 47.5171 55.3258C46.902 56.0016 46.2408 56.6314 45.4258 57.1229C43.9187 58.0137 42.1195 57.4762 40.9816 56.2627C39.859 55.08 39.4592 53.6516 39.3054 51.8852V51.9006Z" fill="white"/>
<path d="M39.9975 44.3129C40.1205 43.2684 40.2282 42.2239 40.3358 41.1795C40.3512 40.9798 40.3973 40.7955 40.3819 40.5958C40.3666 40.2732 40.0744 39.8893 40.5357 39.6896C41.0124 39.4745 41.7198 39.7049 41.9043 40.2118C42.135 40.8108 42.3503 41.4713 42.3195 42.1011C42.2888 42.9151 42.0274 43.7292 41.8736 44.5433C41.8582 44.6354 41.8275 44.7429 41.7659 44.8197C41.4891 45.0808 41.2277 45.5263 40.9202 45.557C40.4127 45.6184 39.9052 44.8504 39.9821 44.2975L39.9975 44.3129Z" fill="white"/>
<path d="M48.4859 41.287C48.3014 42.6386 48.163 43.8828 47.9323 45.0962C47.8862 45.342 47.4864 45.7567 47.3172 45.726C46.9635 45.6645 46.5944 45.4188 46.3484 45.1423C46.1792 44.9426 46.1485 44.5586 46.1792 44.2668C46.3023 43.0841 46.456 41.9014 46.656 40.734C46.7021 40.4883 46.9635 40.0736 47.0712 40.0889C47.471 40.135 47.9016 40.2732 48.2091 40.519C48.4244 40.688 48.4244 41.1027 48.4859 41.3023V41.287Z" fill="white"/>
<path d="M202.771 31.6871C202.924 30.5044 203.339 29.6443 203.908 28.861C204.201 28.4616 204.57 28.7688 204.8 28.9838C205.369 29.5061 205.446 30.1665 205.062 30.8731C204.816 31.3032 204.554 31.7332 204.278 32.1479C204.016 32.5166 203.616 32.5319 203.293 32.3323C203.047 32.1787 202.894 31.8715 202.771 31.7025V31.6871Z" fill="white"/>
<path d="M201.14 31.595C201.002 31.9022 200.941 32.3169 200.71 32.5166C200.31 32.8391 199.849 32.6395 199.587 32.0404C199.372 31.5336 199.203 30.996 199.095 30.4584C199.049 30.2126 199.172 29.8901 199.341 29.6904C199.587 29.4139 199.895 29.5521 200.172 29.7365C200.802 30.1358 201.048 30.6273 201.125 31.6103L201.14 31.595Z" fill="white"/>
<path d="M39.1671 84.6015H24.9735C26.5574 86.1989 28.7102 87.5812 31.4167 88.7486C34.154 89.9159 36.9373 90.8222 39.7822 91.4519L39.7053 91.882C37.983 92.3581 36.8451 93.7251 36.2607 95.9984C30.371 93.1568 26.2652 89.363 23.9432 84.6015H23.4357V93.1722C23.4357 93.2951 23.2358 93.464 22.8513 93.6483C22.4823 93.8019 21.9902 93.9555 21.3597 94.1245C20.76 94.2627 20.1756 94.3242 19.6066 94.3242H18.8224V87.7502C14.9164 91.5133 9.6265 94.3856 2.95257 96.3977L2.64502 95.9677C5.33612 94.5853 7.81193 92.8957 10.1186 90.8836C12.4099 88.8715 14.3013 86.7825 15.793 84.6168H3.75222L3.39853 83.5263H18.8378V77.5821L23.4511 78.135V83.5416H39.1671V84.6322V84.6015ZM39.6746 102.956V104.093H23.4511V109.023C23.4511 110.744 23.0666 112.003 22.3131 112.787C21.5596 113.601 19.9603 114.108 17.4999 114.307C17.3615 112.787 17.0386 111.757 16.5157 111.22C15.916 110.544 14.778 110.068 13.1172 109.807V109.254C15.9006 109.438 17.5614 109.53 18.0842 109.53C18.3764 109.53 18.561 109.484 18.6686 109.407C18.7762 109.3 18.8224 109.116 18.8224 108.854V104.078H3.24475L2.9372 102.941H18.8378V99.3007L23.3742 99.6847C24.6813 98.6095 25.7423 97.6112 26.5727 96.6742H10.1647L9.81103 95.6144H31.6166V97.4576C30.002 98.3484 27.7107 99.2086 24.7428 100.038C24.6044 100.422 24.1892 100.683 23.4511 100.775V102.926H39.6746V102.956Z" fill="white"/>
<path d="M76.0583 96.3363V98.4867C72.9059 103.187 68.7078 106.796 63.464 109.331C58.2509 111.865 51.4847 113.508 43.1808 114.261L42.9808 113.708C50.9004 111.804 57.1899 109.315 61.8185 106.228C61.1112 106.489 60.3269 106.412 59.4658 105.998C58.8968 104.354 57.6358 102.741 55.6675 101.144C52.4381 102.757 48.9935 104.016 45.349 104.907L45.1183 104.477C48.0555 103.125 50.8696 101.451 53.53 99.4697C56.2211 97.4883 58.4508 95.4608 60.25 93.4026C55.406 95.7066 49.5471 97.2886 42.6579 98.1795L42.4272 97.6726C53.6068 94.3856 61.5725 89.6395 66.3088 83.4188H58.2202C57.0207 84.2021 55.7905 84.9547 54.5141 85.692C56.9899 85.7995 58.5431 86.5214 59.1736 87.8884C59.6195 88.7793 59.5119 89.5627 58.866 90.2385C58.1894 90.9143 57.2975 91.0526 56.2057 90.6225C55.5291 89.2401 54.2988 87.9345 52.5304 86.7057C49.6855 88.1188 46.7484 89.194 43.6882 89.962L43.4114 89.578C46.3793 88.0881 49.1781 86.2296 51.823 83.9871C54.4526 81.7138 56.4363 79.5481 57.7588 77.4899L62.6028 79.2102C61.6955 80.5618 60.7421 81.6063 59.7425 82.3436H71.8602V84.4632C69.5074 87.3048 66.8009 89.6548 63.7254 91.5133L67.0162 92.7728C66.232 94.0323 65.1094 95.2304 63.6485 96.367H76.0429L76.0583 96.3363ZM70.5531 97.4268H62.1107C60.8036 98.3331 59.3427 99.2393 57.6973 100.13C58.7584 100.238 59.6964 100.437 60.4807 100.76C61.2957 101.067 61.8801 101.451 62.2799 101.897C62.6951 102.311 62.9873 102.757 63.141 103.233C63.2948 103.678 63.3409 104.124 63.264 104.569C63.1872 104.984 63.0026 105.352 62.7104 105.66C65.909 103.371 68.5386 100.622 70.5685 97.4422L70.5531 97.4268Z" fill="white"/>
<path d="M117.978 97.6726V98.7631H111.919V103.064C111.888 103.217 111.442 103.463 110.55 103.801C109.658 104.108 108.89 104.277 108.244 104.277H107.459V102.833H86.2689L85.9152 101.743H107.459V98.7631H82.8704L82.5629 97.6726H107.459V94.7696H86.5919L86.2382 93.633H107.075L108.751 91.9127C108.536 92.097 108.075 92.2967 107.336 92.4964C106.629 92.6807 105.937 92.7728 105.26 92.7728H104.476V90.1924H99.9858L99.8628 89.7163C99.709 90.0234 99.3861 90.1924 98.8786 90.1924H92.8967V92.0356C92.8967 92.2199 92.5123 92.4349 91.728 92.696C90.9745 92.9572 90.2056 93.08 89.4214 93.08H88.6832V90.177H82.3937L82.0862 89.0865H88.6986V86.2296H83.301L82.9935 85.093H88.6986V82.5125H82.6398L82.3322 81.3759H88.6986V77.5821L92.9121 78.0889V81.3759H99.2016V82.5125H92.9121V85.093H98.9248V86.2296H92.9121V89.0865H99.7859V89.4398L99.6629 89.0865H104.476V86.2296H101.078L100.77 85.093H104.476V82.5125H100.34L100.032 81.3759H104.492V77.5821L108.828 78.0889V81.3759H116.132V82.5125H108.828V85.093H115.625V86.2296H108.828V89.0865H116.886V90.177H108.828V91.7437L109.136 91.4673L113.395 94.6314C113.103 95 112.611 95.2611 111.904 95.4147V97.6419H117.962L117.978 97.6726ZM86.5457 104.523H87.1301C87.6222 105.875 87.8374 107.103 87.7606 108.209C87.6837 109.285 87.453 110.16 87.0532 110.867C86.6687 111.573 86.1613 112.08 85.5308 112.387C84.9003 112.694 84.2391 112.771 83.5317 112.587C82.8551 112.403 82.4245 111.988 82.24 111.327C82.0862 110.728 82.1631 110.191 82.4706 109.715C82.7782 109.238 83.2395 108.885 83.8392 108.624C84.5466 108.286 85.1617 107.733 85.7153 106.981C86.2843 106.197 86.5611 105.383 86.5303 104.508L86.5457 104.523ZM108.828 105.813L108.951 109.807C109.628 110.022 110.089 110.252 110.32 110.513C110.581 110.744 110.704 111.082 110.704 111.496C110.704 111.988 110.581 112.372 110.32 112.633C110.058 112.925 109.52 113.14 108.72 113.293C107.905 113.478 106.906 113.601 105.706 113.647C104.538 113.693 102.861 113.724 100.709 113.724H95.311C93.0505 113.724 91.5435 113.493 90.8207 113.017C90.098 112.541 89.7289 111.604 89.7289 110.191V104.354L94.3422 104.83V109.653C94.3422 109.884 94.4345 110.053 94.619 110.129C94.8035 110.206 95.2649 110.252 96.0184 110.252H105.368C105.86 110.222 106.26 110.037 106.537 109.699C107.013 109.146 107.629 107.856 108.413 105.829H108.843L108.828 105.813ZM97.0179 103.617L97.3255 103.34C100.401 103.525 102.308 104.354 103.031 105.844C103.507 106.75 103.4 107.564 102.723 108.271C102.016 109.023 101.155 109.116 100.14 108.547C100.063 108.501 99.9705 108.44 99.8628 108.394C99.709 107.58 99.3554 106.735 98.8018 105.844C98.2482 104.938 97.6484 104.185 97.0026 103.617H97.0179ZM109.182 104.984L109.489 104.707C113.057 105.153 115.333 106.289 116.286 108.117C116.855 109.238 116.824 110.237 116.163 111.097C115.533 111.957 114.687 112.172 113.626 111.727C113.395 111.65 113.165 111.527 112.965 111.373C112.78 110.252 112.319 109.1 111.596 107.933C110.873 106.766 110.058 105.783 109.166 104.999L109.182 104.984Z" fill="white"/>
<path d="M12.9788 125.29H12.3022C12.1638 127.164 11.8101 128.669 11.2104 129.805C11.6871 130.558 12.3329 131.157 13.1172 131.618L13.0711 131.725C12.4252 131.894 12.01 132.309 11.8562 132.985C11.318 132.463 10.872 131.741 10.5645 130.835C9.85712 131.741 8.9037 132.463 7.71962 133L7.62735 132.877C8.82681 131.987 9.68797 130.881 10.2262 129.544C10.0878 128.868 9.98014 128.039 9.88788 127.041C9.68796 127.379 9.48806 127.67 9.28814 127.932L9.11899 127.839C9.14974 127.716 9.21126 127.517 9.28814 127.24C9.24201 127.271 9.16512 127.302 9.07286 127.302H5.48985L5.45909 127.179C5.42834 127.271 5.32069 127.348 5.10541 127.394V132.447C5.10541 132.524 4.96701 132.632 4.70559 132.754C4.45954 132.893 4.18274 132.954 3.90594 132.954H3.62915V127.763C3.22933 128.147 2.87564 128.469 2.53733 128.715L2.42968 128.607C2.78337 128.039 3.12168 127.348 3.47537 126.549C3.82906 125.75 4.09048 125.059 4.25963 124.491L5.55136 125.182V123.385C5.55136 123.385 5.42834 123.385 5.33607 123.385C4.44416 124.291 3.50612 124.998 2.52195 125.505L2.41431 125.397C2.75262 124.982 3.07555 124.476 3.39848 123.877C3.72141 123.278 3.98283 122.755 4.15199 122.295L5.76665 123.231C5.76665 123.231 5.67438 123.354 5.56674 123.37L6.98149 123.585V122.433L8.04255 122.571V125.75H8.3501V123.416L9.41117 123.539V126.042C9.41117 126.042 9.30352 126.15 9.10361 126.211C8.9037 126.273 8.71917 126.319 8.55001 126.319C8.58077 126.349 8.64228 126.411 8.74992 126.518C8.85757 126.611 8.96521 126.718 9.05748 126.826C9.16512 126.918 9.25739 127.01 9.3189 127.087C9.68797 125.597 9.90325 124.03 9.94939 122.356L11.2719 122.663C11.1335 123.554 10.9797 124.322 10.7798 124.952H12.9942V125.259L12.9788 125.29ZM5.39758 126.995H7.93491L8.38086 126.319L8.31935 126.073H5.5206V125.551C5.15154 126.027 4.79785 126.457 4.47492 126.81L5.44372 127.164L5.38221 126.979L5.39758 126.995ZM5.78203 127.932L6.99687 128.085V129.13C6.96611 130.911 6.351 132.14 5.15154 132.831L5.0439 132.724C5.53598 131.956 5.78203 130.742 5.78203 129.099V127.916V127.932ZM6.58167 125.766H6.93535V123.738C6.93535 123.738 6.75082 123.846 6.58167 123.877V125.766ZM9.65721 129.959L9.70334 130.082C9.19588 130.681 8.70379 131.203 8.25784 131.649C8.18095 131.833 8.05793 131.956 7.91953 132.033L7.19678 130.819C7.35055 130.727 7.44282 130.635 7.48895 130.573C7.53509 130.512 7.55046 130.42 7.55046 130.312V127.947L8.74992 128.116V130.312C9.27277 130.113 9.56494 129.99 9.64183 129.959H9.65721ZM10.9643 125.274H10.6414C10.4569 125.812 10.2723 126.273 10.057 126.672C10.1647 127.317 10.3338 127.916 10.5491 128.484C10.7798 127.548 10.9182 126.488 10.9643 125.274Z" fill="white"/>
<path d="M19.3145 124.153H16.3312C15.6085 125.228 14.7319 126.057 13.6863 126.656L13.5632 126.58C13.9015 126.057 14.2245 125.397 14.532 124.644C14.8396 123.876 15.0702 123.108 15.224 122.325L16.8848 122.97C16.7926 123.323 16.6695 123.615 16.5311 123.846H19.3145V124.153ZM23.8817 128.899H19.6221C19.822 129.298 20.068 129.636 20.3756 129.928C20.6985 130.22 21.0676 130.45 21.4828 130.635C21.898 130.819 22.3132 130.957 22.7284 131.065C23.1435 131.172 23.6203 131.264 24.1431 131.341V131.464C23.4972 131.664 23.082 132.155 22.8975 132.954C21.9595 132.585 21.2213 132.109 20.6677 131.525C20.1295 130.942 19.7143 130.128 19.4529 129.068C19.3299 129.559 19.1453 130.005 18.8993 130.373C18.6686 130.757 18.3303 131.111 17.8997 131.464C17.4692 131.802 16.9002 132.094 16.1928 132.34C15.5008 132.585 14.6704 132.785 13.7016 132.954L13.6401 132.816C14.9934 132.309 15.9775 131.756 16.608 131.141C17.2385 130.512 17.6383 129.774 17.8075 128.93H14.1476L14.0553 128.622H17.8536C17.9151 128.254 17.9459 127.839 17.9613 127.394C16.6542 127.394 15.5008 127.348 14.5013 127.271V127.133C15.6392 126.994 16.8694 126.779 18.1765 126.487C19.4837 126.196 20.514 125.888 21.2675 125.597L21.5904 125.95C21.5289 125.428 21.2828 124.952 20.883 124.552L20.9599 124.491C21.9595 124.491 22.5746 124.706 22.8206 125.167C22.9744 125.443 22.9436 125.704 22.7437 125.95C22.5284 126.211 22.2516 126.288 21.898 126.18C21.8518 126.18 21.8057 126.15 21.7596 126.119L21.9595 127.255C21.2521 127.302 20.4986 127.332 19.6528 127.363C19.6221 127.839 19.5605 128.269 19.5144 128.622H23.8355V128.93L23.8817 128.899ZM16.2697 124.598L16.362 124.537C17.2693 124.644 17.8075 124.905 17.9766 125.335C18.0843 125.612 18.0228 125.842 17.7921 126.042C17.5307 126.257 17.2385 126.288 16.9156 126.15C16.8233 126.103 16.7464 126.042 16.6695 125.981C16.6695 125.489 16.5465 125.028 16.2851 124.598H16.2697ZM24.2661 123.83V124.137H20.7908C20.1603 125.013 19.3914 125.704 18.4841 126.18L18.3765 126.088C19.0377 125.013 19.499 123.738 19.7758 122.264L21.3905 122.955C21.2675 123.323 21.1444 123.615 21.0214 123.815H24.2815L24.2661 123.83Z" fill="white"/>
<path d="M27.9105 125.504V132.524C27.9105 132.524 27.8336 132.616 27.7105 132.677C27.5875 132.754 27.4337 132.816 27.2185 132.877C27.0032 132.939 26.8186 132.969 26.6187 132.969H26.3112V127.01C25.8498 127.486 25.3116 127.916 24.6965 128.315L24.5889 128.223C25.081 127.486 25.5423 126.595 25.9575 125.535C26.3881 124.475 26.6956 123.4 26.9109 122.325L28.6947 123.016C28.341 124.015 28.0796 124.844 27.8951 125.504H27.9105ZM35.3225 129.314L35.0303 131.295C35.4609 132.002 35.5532 132.462 35.3225 132.693C35.1226 132.908 34.8919 132.985 34.5998 132.954C34.3076 132.939 34.0308 132.862 33.7847 132.739C33.5233 132.631 33.2927 132.478 33.0927 132.309C31.6011 131.003 30.6938 129.053 30.3709 126.472L28.2949 126.718L28.1719 126.426L30.3401 126.165C30.2325 125.197 30.171 123.984 30.171 122.509L31.801 122.755C31.7856 124.107 31.801 125.182 31.8779 125.981L32.8467 125.873L35.0457 125.627V125.935L31.9087 126.303C32.1547 128.392 32.8467 129.882 34.0154 130.773C34.1692 130.911 34.2922 130.911 34.3999 130.757C34.6459 130.389 34.9227 129.913 35.2302 129.298H35.3379L35.3225 129.314ZM32.4315 122.786L32.5084 122.724C33.6002 122.724 34.2922 122.955 34.5998 123.446C34.7843 123.753 34.7689 124.045 34.569 124.306C34.3537 124.583 34.0769 124.675 33.7232 124.583C33.6156 124.552 33.5079 124.506 33.4157 124.445C33.2773 123.861 32.9543 123.293 32.4469 122.77L32.4315 122.786Z" fill="white"/>
<path d="M46.5791 124.337V124.644H36.0608L35.9685 124.337H46.5791ZM42.8885 129.237H44.703V132.478C44.703 132.478 44.6108 132.555 44.457 132.601C44.3032 132.647 44.1033 132.708 43.8727 132.739C43.642 132.785 43.4575 132.8 43.2883 132.8H42.9961V132.155H39.4439V132.401C39.4439 132.478 39.2901 132.585 38.9672 132.708C38.6596 132.831 38.3521 132.892 38.0445 132.892H37.8138V129.206H42.8731L42.8885 129.237ZM44.8722 125.919V126.226H37.9522L37.86 125.919H44.8722ZM44.9337 127.563V127.87H37.9522L37.86 127.563H44.9183H44.9337ZM39.4592 131.848H43.0115V129.544H39.4592V131.848ZM39.8898 122.402L39.9513 122.34C41.0585 122.31 41.7659 122.525 42.0581 123.001C42.2426 123.293 42.2272 123.584 42.0119 123.876C41.7967 124.168 41.5045 124.276 41.1354 124.23C40.9509 124.199 40.7817 124.122 40.628 124.015C40.5664 123.4 40.3204 122.863 39.8898 122.402Z" fill="white"/>
<path d="M50.9463 122.494L52.6993 122.694C52.7608 124.045 52.8838 125.136 53.053 125.965C53.2375 126.779 53.5297 127.547 53.9142 128.223C54.2986 128.899 54.8061 129.467 55.4519 129.928C56.0824 130.389 56.8667 130.757 57.8047 131.065V131.203C56.9897 131.372 56.4822 131.925 56.2977 132.877C55.6365 132.539 55.0829 132.124 54.6215 131.633C54.1602 131.126 53.8065 130.542 53.5297 129.882C53.2683 129.206 53.053 128.5 52.9146 127.762C52.7762 127.025 52.6839 126.165 52.607 125.182C52.5609 125.842 52.484 126.426 52.3764 126.948C52.2841 127.471 52.115 128.023 51.8689 128.622C51.6229 129.206 51.3153 129.744 50.9463 130.235C50.5772 130.711 50.0697 131.188 49.4546 131.679C48.8395 132.155 48.1168 132.585 47.2864 132.969L47.1787 132.831C47.5478 132.539 47.8861 132.232 48.1936 131.925C48.5012 131.618 48.778 131.31 49.0087 130.988C49.2393 130.665 49.4546 130.358 49.6391 130.051C49.8391 129.744 49.9928 129.406 50.1159 129.053C50.2543 128.699 50.3619 128.377 50.4695 128.085C50.5618 127.778 50.6387 127.44 50.7002 127.071C50.7617 126.687 50.8079 126.349 50.8386 126.057C50.8694 125.766 50.9001 125.412 50.9155 125.013C50.9155 124.614 50.9309 124.26 50.9309 123.984C50.9309 123.707 50.9309 123.354 50.9309 122.924V122.525L50.9463 122.494Z" fill="white"/>
<path d="M64.5556 127.071L65.1246 127.302C65.9703 127.67 66.5547 128.039 66.893 128.423C67.2313 128.807 67.4005 129.314 67.4005 129.928C67.4005 130.681 67.1237 131.264 66.5701 131.725C66.0165 132.171 65.2476 132.401 64.2942 132.401C63.3407 132.401 62.4488 132.186 61.7568 131.741L61.8183 129.867H62.4488L62.9255 131.679C63.2638 131.833 63.6637 131.909 64.1404 131.909C64.7247 131.909 65.1707 131.787 65.4936 131.525C65.8166 131.264 65.9857 130.896 65.9857 130.435C65.9857 130.036 65.8781 129.728 65.6782 129.498C65.4782 129.268 65.1092 129.037 64.6171 128.838L64.0942 128.607C63.3407 128.269 62.7871 127.901 62.4181 127.501C62.049 127.102 61.8645 126.58 61.8645 125.95C61.8645 125.213 62.1259 124.644 62.6641 124.23C63.2023 123.815 63.9097 123.615 64.7862 123.615C65.6013 123.615 66.324 123.83 66.9699 124.245L66.893 126.011H66.2625L65.7858 124.276C65.5551 124.168 65.2783 124.107 64.94 124.107C64.4326 124.107 64.0327 124.23 63.7252 124.475C63.4176 124.721 63.2639 125.059 63.2639 125.504C63.2639 125.888 63.3715 126.196 63.5868 126.441C63.8021 126.687 64.125 126.902 64.5556 127.102V127.071Z" fill="white"/>
<path d="M78.1496 131.725L78.9185 131.817V132.171H75.8737V131.817L76.6579 131.71C76.6579 130.85 76.6733 130.112 76.6733 129.513V128.131C76.6733 127.624 76.5964 127.255 76.458 127.056C76.3196 126.856 76.089 126.749 75.7814 126.749C75.3047 126.749 74.8126 126.994 74.3205 127.501C74.3513 127.67 74.3667 127.885 74.3667 128.131V129.513C74.3667 130.343 74.3667 131.08 74.3974 131.725L75.1355 131.817V132.171H72.0754V131.817L72.8904 131.71C72.8904 130.85 72.9058 130.112 72.9058 129.513V128.146C72.9058 127.639 72.8289 127.286 72.6905 127.071C72.5521 126.856 72.3214 126.749 72.0139 126.749C71.5833 126.749 71.1066 126.994 70.5991 127.501V129.498C70.5991 130.112 70.5991 130.85 70.6299 131.71L71.368 131.802V132.155H68.2771V131.802L69.1075 131.694C69.1075 130.834 69.1229 130.097 69.1229 129.498V128.684C69.1229 127.916 69.1229 127.348 69.0767 126.994L68.1848 126.902V126.626L70.3531 125.935L70.5068 126.042L70.5837 127.056C71.245 126.303 71.937 125.919 72.6751 125.919C73.5055 125.919 74.0283 126.319 74.2436 127.102C74.9049 126.319 75.6276 125.919 76.3811 125.919C76.9655 125.919 77.4114 126.103 77.6882 126.457C77.9804 126.81 78.1188 127.378 78.1188 128.131V129.483C78.1188 130.097 78.1188 130.834 78.1342 131.694L78.1496 131.725Z" fill="white"/>
<path d="M82.0246 131.725L82.7782 131.817V132.171H79.6719V131.817L80.5023 131.71C80.5023 130.85 80.5176 130.112 80.5176 129.513V128.715C80.5176 128.131 80.5176 127.563 80.4869 126.994L79.5796 126.902V126.595L81.8709 125.95L82.0246 126.057V127.824L82.0093 129.513C82.0093 130.128 82.0093 130.865 82.0246 131.725ZM81.8555 124.445C81.6863 124.598 81.471 124.675 81.225 124.675C80.979 124.675 80.7637 124.598 80.5945 124.445C80.4254 124.291 80.3331 124.091 80.3331 123.846C80.3331 123.6 80.4254 123.4 80.5945 123.231C80.7637 123.078 80.979 123.001 81.225 123.001C81.471 123.001 81.6863 123.078 81.8555 123.231C82.0246 123.385 82.1169 123.6 82.1169 123.846C82.1169 124.091 82.0246 124.291 81.8555 124.445Z" fill="white"/>
<path d="M85.8999 131.725L86.7764 131.817V132.171H83.501V131.817L84.3775 131.71C84.3929 131.003 84.4083 130.266 84.4083 129.513V123.784L83.501 123.723V123.4L85.7615 122.909L85.9153 123.016L85.8691 124.813V129.513C85.8691 130.266 85.8691 131.003 85.8999 131.725Z" fill="white"/>
<path d="M93.035 129.114H89.1291C89.1445 129.943 89.3444 130.558 89.7134 130.973C90.0825 131.387 90.5438 131.587 91.1282 131.587C91.8202 131.587 92.3892 131.295 92.8197 130.711L93.0504 130.865C92.8197 131.326 92.4968 131.694 92.0816 131.94C91.6664 132.186 91.1743 132.324 90.6207 132.324C89.7134 132.324 88.9753 132.032 88.4063 131.464C87.8374 130.896 87.5605 130.112 87.5605 129.114C87.5605 128.116 87.8681 127.363 88.4678 126.779C89.0676 126.196 89.7903 125.904 90.6207 125.904C91.3742 125.904 91.9893 126.134 92.4353 126.595C92.8812 127.056 93.1119 127.655 93.1119 128.377C93.1119 128.669 93.0811 128.899 93.035 129.083V129.114ZM89.1291 128.699H91.0513C91.2973 128.699 91.4665 128.638 91.5588 128.515C91.651 128.392 91.6972 128.177 91.6972 127.87C91.6972 127.424 91.5895 127.056 91.3742 126.779C91.1589 126.503 90.8668 126.365 90.5284 126.365C90.144 126.365 89.8211 126.564 89.5597 126.948C89.2982 127.332 89.1598 127.916 89.1291 128.699Z" fill="white"/>
<path d="M104.784 128.1V128.5L104.046 128.592C104.03 129.652 104.03 130.481 104.03 131.095V131.648C103.169 132.14 102.262 132.401 101.293 132.401C99.986 132.401 98.9403 132.002 98.1406 131.203C97.341 130.404 96.9412 129.329 96.9412 127.993C96.9412 126.656 97.341 125.612 98.156 124.813C98.971 124.015 100.032 123.615 101.355 123.615C102.277 123.615 103.092 123.815 103.815 124.23V126.18H103.123L102.646 124.306C102.323 124.153 101.97 124.076 101.554 124.076C100.678 124.076 99.9706 124.414 99.4324 125.105C98.8941 125.781 98.6327 126.749 98.6327 128.008C98.6327 129.268 98.8941 130.189 99.4324 130.896C99.9552 131.602 100.647 131.956 101.508 131.956C101.862 131.956 102.2 131.909 102.539 131.817V131.08C102.539 130.281 102.539 129.467 102.508 128.653L101.262 128.53V128.131H104.799L104.784 128.1Z" fill="white"/>
<path d="M107.721 131.725L108.474 131.817V132.171H105.368V131.817L106.199 131.71C106.199 130.85 106.214 130.112 106.214 129.513V128.715C106.214 128.131 106.214 127.563 106.183 126.994L105.276 126.902V126.595L107.567 125.95L107.721 126.057V127.824L107.706 129.513C107.706 130.128 107.706 130.865 107.721 131.725ZM107.552 124.445C107.383 124.598 107.167 124.675 106.921 124.675C106.675 124.675 106.46 124.598 106.291 124.445C106.122 124.291 106.029 124.091 106.029 123.846C106.029 123.6 106.122 123.4 106.291 123.231C106.46 123.078 106.675 123.001 106.921 123.001C107.167 123.001 107.383 123.078 107.552 123.231C107.721 123.385 107.813 123.6 107.813 123.846C107.813 124.091 107.721 124.291 107.552 124.445Z" fill="white"/>
<path d="M111.488 126.057L111.596 127.624C111.765 127.102 112.027 126.687 112.365 126.38C112.703 126.088 113.041 125.935 113.395 125.935C113.949 125.935 114.287 126.18 114.41 126.656C114.379 127.225 114.118 127.517 113.626 127.517C113.334 127.517 113.041 127.332 112.734 126.979L112.611 126.841C112.165 127.194 111.827 127.747 111.596 128.5V129.498C111.596 130.082 111.596 130.804 111.611 131.664L112.642 131.802V132.155H109.243V131.802L110.074 131.694C110.074 130.834 110.089 130.097 110.089 129.498V128.684C110.089 128.039 110.089 127.486 110.043 126.994L109.151 126.902V126.626L111.319 125.935L111.473 126.042L111.488 126.057Z" fill="white"/>
<path d="M116.978 131.725L117.855 131.817V132.171H114.579V131.817L115.44 131.71C115.456 131.003 115.471 130.266 115.471 129.513V123.784L114.564 123.723V123.4L116.824 122.909L116.978 123.016L116.932 124.813V129.513C116.932 130.266 116.932 131.003 116.963 131.725H116.978Z" fill="white"/>
</g>
<defs>
<clipPath id="clip0_4_1137">
<rect width="240" height="133" fill="white"/>
</clipPath>
</defs>
</svg>
