<?xml version="1.0" encoding="utf-8"?>
<!-- Generator: Adobe Illustrator 26.5.0, SVG Export Plug-In . SVG Version: 6.00 Build 0)  -->
<svg version="1.1" id="圖層_1" xmlns="http://www.w3.org/2000/svg" xmlns:xlink="http://www.w3.org/1999/xlink" x="0px" y="0px"
	 viewBox="0 0 346.5 415" style="enable-background:new 0 0 346.5 415;" xml:space="preserve">
<style type="text/css">
	.st0{fill:none;stroke-linecap:round;}
.an1{stroke:url(#bird1);stroke-width:96;stroke-dasharray:419;stroke-dashoffset:419;animation: letterDraw 0.7s 0s forwards;}																	
.an2{stroke:url(#bird1);stroke-width:65;stroke-dasharray:187;stroke-dashoffset:187;animation: letterDraw 0.3s 0.7s forwards;}		 															
.an3{stroke:url(#bird2);stroke-width:75;stroke-dasharray:309;stroke-dashoffset:309;animation: letterDraw 0.5s 1s forwards;}																	
.an4{stroke:url(#bird2);stroke-width:29;stroke-dasharray:60;stroke-dashoffset:60;animation: letterDraw 0.2s 1.5s  forwards;}																	
.an5{stroke:url(#bird3);stroke-width:46;stroke-dasharray:121;stroke-dashoffset:121;animation: letterDraw 0.3s 1.7s  forwards;}																	
.an6{stroke:url(#bird3);stroke-width:37;stroke-dasharray:66;stroke-dashoffset:66;animation: letterDraw 0.2s 2s forwards;}																	
.an7{stroke:url(#bird3);stroke-width:13;stroke-dasharray:31;stroke-dashoffset:31;animation: letterDraw 0.05s 2.2s forwards;}																	
.an8{stroke:url(#bird3);stroke-width:7;stroke-dasharray:20;stroke-dashoffset:20;animation: letterDraw 0.03s 2.3s forwards;}																	
.an9{stroke:url(#bird3);stroke-width:7;stroke-dasharray:21;stroke-dashoffset:21;animation: letterDraw 0.03s 2.4s forwards;}																	
		@keyframes letterDraw {
    to {
        stroke-dashoffset: 0
    }
}
</style>
<pattern  x="325.2" y="-17.5" width="346.5" height="415" patternUnits="userSpaceOnUse" id="bird1" viewBox="324.5 -433 346.5 415" style="overflow:visible;">
	<g>
		<image style="overflow:visible;" width="693" height="830" xlink:href="bird1.png"  transform="matrix(0.5 0 0 0.5 346.5 -415)">
		</image>		
		<image style="overflow:visible;" width="693" height="830" xlink:href="bird1.png"  transform="matrix(0.5 0 0 0.5 346.5 -830)">
		</image>
	</g>
</pattern>
<pattern  x="325.2" y="-17.5" width="346.5" height="415" patternUnits="userSpaceOnUse" id="bird3" viewBox="324.5 -433 346.5 415" style="overflow:visible;">
	<g>
		<image style="overflow:visible;" width="693" height="830" xlink:href="./s1/bird3.png"  transform="matrix(0.5 0 0 0.5 346.5 -415)">
		</image>
	</g>
</pattern>
<pattern  x="325.2" y="-17.5" width="346.5" height="415" patternUnits="userSpaceOnUse" id="bird2" viewBox="324.5 -433 346.5 415" style="overflow:visible;">
	<g>
		<image style="overflow:visible;" width="693" height="830" xlink:href="./s1/bird2.png"  transform="matrix(0.5 0 0 0.5 346.5 -415)">
		</image>
		<image style="overflow:visible;" width="693" height="830" xlink:href="./s1/bird2.png"  transform="matrix(0.5 0 0 0.5 0 -415)">
		</image>
	</g>
</pattern>
<g class="st0">
<path class="an1" d="M257.7,92.4C109.6,123.2,63.6,348,255.6,377.8"/>
<path class="an2" d="M133,56.9c-50.6,25.6-95,63.7-124.7,133.6"/>
<path class="an3" d="M227.7,66.8C88.4,73.8,42.2,195.9,69.2,279.7"/>
<path class="an4" d="M296.4,40.6c27,2,45.8,17,50.9,27.2"/>
<path class="an5" d="M264.5,65.2c50.6-6.8,25.4-74.6-39.1-23.5"/>
<path class="an6" d="M189.4,132.5c-19.3,17.2-15.2,47.4,3.7,55.3"/>
<path class="an7" d="M198.2,210.9c7.8-5.7,25-7.4,29.7-7.4"/>
<path class="an8" d="M231.9,204.8c4.2,0.3,13.1,2.7,14.8,10.1"/>
<path class="an9" d="M229.9,208.8c5.7,2.1,13.1,5.7,14.8,13.1"/>
	</g>
</svg>
