<svg  xmlns="http://www.w3.org/2000/svg" viewBox="0 0 330 177">
<path fill="#C80000" d="M64.5,68.3l1.8,1.9c-0.2,0.2-0.5,0.2-1,0.2c-0.7,1.3-2.1,3.6-3.1,4.9c4.8,3.2,4.9,7.6,0.4,8.3
	c0-1.1-0.3-1.3-1.5-1.5v-0.3c4.5,0.9,3.1-4.1,0.6-6.4c0.5-1.3,1.3-3.9,1.7-5.5h-2.9V87c0.1,0.2-1,0.7-1.7,0.6v-19l1.9,0.8h2.6
	L64.5,68.3L64.5,68.3z M71.3,77.3c0.3,1.7,0.9,3.2,1.7,4.4c1-0.8,2.2-2,3.1-3l1.9,1.5c-0.2,0.2-0.5,0.2-0.8,0
	c-1.3,0.8-2.7,1.5-3.9,1.9c1.2,1.8,2.9,3,5,3.9l0,0.2c-0.8,0.1-1.3,0.6-1.6,1.4c-1.3-0.8-2.3-1.7-3.1-2.7c-1.7,0.6-4,1.3-7.1,2.2
	c-0.1,0.3-0.3,0.4-0.5,0.5l-1.1-2.1c0.5,0,1.3-0.1,2.3-0.2V68.5c1.3,1,5.9,0.8,7.4,0.8l0.8-1l2.1,1.5c-0.1,0.2-0.5,0.4-1,0.4V78
	c0,0-0.6,0.4-1.7,0.4v-1.2H71.3L71.3,77.3z M74.8,69.8h-6V73h6V69.8z M68.8,76.8h6v-3.3h-6V76.8z M68.8,77.3V85l4.5-0.5
	c-1.2-1.8-2-4.1-2.4-7.2H68.8L68.8,77.3z M88.2,69.2l2.1,1.5c-0.1,0.2-0.5,0.4-0.9,0.4v12.1c0,0-0.5,0.5-1.7,0.5V82h-2.9
	c-0.1,1.3,0.6,2.9-1.7,2.7V69.4l1.9,0.8h2.5L88.2,69.2L88.2,69.2z M87.6,70.6h-2.9v5.2h2.9V70.6z M84.7,81.6h2.9v-5.3h-2.9V81.6z
	 M100.6,73.8l2.1,1.5c0.3,0.9-12.6,0.2-13,0.4l-0.1-0.5h5.1v-3.5h-4.1l-0.1-0.5h4.3V68l2.7,0.2c0,0.3-0.3,0.5-1,0.6v2.4h2l1.1-1.4
	l2,1.4c-0.3,0.8-4.3,0.3-5.1,0.4v3.5h3.1C99.6,75.2,100.6,73.8,100.6,73.8z M99.7,79l1-1.3l1.9,1.4c-0.3,0.8-2.9,0.3-3.6,0.4
	c-0.5,2.4,1.7,8.1-2.6,8.1c0-1.2-0.7-1.5-2.4-1.7v-0.3c0.4-0.2,3.5,0.4,3.3-0.4c0,0,0-5.7,0-5.7h-7.6L89.6,79h7.7v-2.6l2.6,0.2
	c0,0.3-0.2,0.4-0.9,0.5V79L99.7,79L99.7,79z M91.5,80.3c3.5,0.8,4.2,5.4,1.3,3.9c0-1.2-0.7-2.8-1.5-3.7L91.5,80.3L91.5,80.3z
	 M124.9,75.1l1.9,1.8c-0.2,0.2-0.4,0.2-0.9,0.3c-1.2,1.3-3.5,3.2-5.3,4.2l-0.2-0.2c1.1-1.1,2.6-3.1,3.4-4.6h-6.3v8.6
	c0,1.3-0.4,2.2-3,2.4c0-1.4-1.1-1.6-3.1-1.7v-0.3c0.4-0.2,4.4,0.4,4.3-0.3c0,0,0-8.6,0-8.6h-9.1l-0.2-0.5h17.2L124.9,75.1
	L124.9,75.1z M112,71.6c2.4,0.2,4.1,0.7,5.2,1.3c1.3-0.8,2.8-1.9,3.8-2.8h-11.8l-0.2-0.5h12.1l1.2-1l1.9,1.8c-0.2,0.1-0.5,0.2-1,0.2
	c-1.4,0.9-3.7,1.9-5.7,2.6c1.6,0.9,1.6,3.2-0.2,2.6c-0.8-1.1-2.7-2.8-5.5-3.9L112,71.6L112,71.6z M130.9,71.5
	c0.8,0.2,1.4,0.4,1.9,0.7c0.5-1.2,1.1-2.8,1.5-4.2l2.4,0.9c-0.1,0.3-0.3,0.4-0.8,0.3c-0.8,1.1-1.7,2.4-2.6,3.3
	c1.4,0.8,0.9,3-0.5,2.1c-0.2-1-1.1-2.2-2-2.9L130.9,71.5L130.9,71.5z M134.4,80.6c-0.1,0.3-0.2,0.4-0.7,0.4
	c-0.6,1.9-1.5,3.7-2.6,4.8l-0.3-0.2c0.6-1.3,1.2-3.5,1.4-5.6L134.4,80.6z M139.4,71.4c-0.2,0.3-0.5,0.3-0.9,0.2
	c-1.1,1.6-2.9,3.8-4.6,5.6c1.2,0,2.6-0.1,4.1-0.1c-0.3-0.6-0.7-1.2-1.1-1.6l0.2-0.2c3.3,0.7,4.3,4.8,1.6,3.6
	c-0.1-0.4-0.2-0.9-0.4-1.4c-0.6,0.1-1.2,0.2-1.9,0.4v9.1c0.1,0.2-1,0.6-1.6,0.5v-9.3c-0.8,0.1-1.7,0.3-2.7,0.5
	c-0.1,0.3-0.3,0.4-0.6,0.4l-0.7-1.9c0.6,0,1.4,0,2.4,0c1.3-2.1,2.9-4.9,3.8-6.9L139.4,71.4L139.4,71.4z M137.4,80.1
	c2.9,1.1,3.7,5.5,1,4.1c0-1.2-0.6-2.9-1.3-3.9L137.4,80.1z M148.9,71.3l2,1.6c-0.2,0.2-0.4,0.3-0.9,0.4c-0.9,9.4,1.4,13.6-4.2,14.3
	c0-1.1-0.3-1.4-2.8-1.8l0-0.4c7,1.2,4.4-3.1,5.3-12.6h-5.9c-0.9,1.4-1.9,2.7-2.9,3.6l-0.3-0.2c1.3-1.9,2.6-5.1,3.4-8.3l2.5,0.8
	c-0.1,0.2-0.3,0.4-0.8,0.4c-0.5,1.1-1,2.2-1.6,3.2h5.4L148.9,71.3L148.9,71.3z M141.7,76.2c3.9,0.9,5.4,6,2.1,4.7
	c-0.1-1.5-1.2-3.4-2.3-4.5L141.7,76.2z M164.6,68.4h-0.8V88h0.8V68.4z"/>
<path d="M188,87.1h-1.8l-5.4-9.1c6.8,0.7,5.3-8.2-1.3-6.8v15.9h-1.6V70.7c2.9-0.3,9.7,0.1,8.9,3.9
	c0,2.3-1.7,3.6-3.9,3.8L188,87.1L188,87.1z M201,87.1h-7.9V70.7h7.6v0.5h-5.9v6.6h5.3v0.5h-5.3v8.3h6.2L201,87.1L201,87.1z
	 M214.1,83c0,4.4-6,5.2-8.9,2.8l0.5-0.7c5.4,4.8,10.7-2.9,3.6-6.2c-8-3.8-1.1-12,4.3-6.8l-0.6,0.6c-1.4-2.2-5.8-2.3-6.2,0.7
	C206.8,77.3,214.9,78.5,214.1,83z M227.3,87.1h-7.9V70.7h7.6v0.5h-5.9v6.6h5.3v0.5h-5.3v8.3h6.2L227.3,87.1L227.3,87.1z M242.6,87.1
	h-1.8l-5.4-9.1c6.8,0.7,5.3-8.2-1.3-6.8v15.9h-1.6V70.7c2.9-0.3,9.7,0.1,8.9,3.9c0,2.3-1.7,3.6-3.9,3.8L242.6,87.1L242.6,87.1z
	 M260.1,70.7l-6.7,16.6l-6.7-16.6h1.9l5.4,13.6l5.4-13.6C259.6,70.7,260.1,70.7,260.1,70.7z M272,87.1h-7.9V70.7h7.6v0.5h-5.9v6.6
	h5.3v0.5h-5.3v8.3h6.2L272,87.1L272,87.1z"/>
<path d="M151.5,142.9l0.8-1.1l-0.8-1.1h0.4l0.6,0.8l0.6-0.8h0.3l-0.8,1.1l0.8,1.2h-0.4l-0.6-0.9l-0.7,0.9H151.5
	L151.5,142.9z M153.9,142.9v-2.2h0.4v2.2H153.9z M154.9,142.9v-2.2h0.3l1.3,1.7v-1.7h0.3v2.2h-0.3l-1.3-1.7v1.7H154.9L154.9,142.9z
	 M159.4,142.9c-2.6,1-2.6-3.1,0-2.1v0.3c-1.9-1-2.3,2.2-0.3,1.7V142h0.4V142.9z M161.1,142.9v-2.2h0.4v2h1.1v0.2H161.1z
	 M162.9,142.9v-2.2h0.4v2.2H162.9z M165.6,142.9l-0.3-0.6h-1.1l-0.3,0.6h-0.3l1-2.2h0.4l1,2.2H165.6L165.6,142.9z M165.2,142.1
	l-0.4-1l-0.4,1H165.2L165.2,142.1z M166.3,142.9v-2.2h0.3l1.3,1.7v-1.7h0.3v2.2h-0.3l-1.3-1.7v1.7H166.3L166.3,142.9z M171,143
	c-2.2-0.1-1.1-3.1,0.8-2.2v0.3c-2.2-1-2.1,2.6,0,1.5v0.3C171.6,142.9,171.3,143,171,143z M172.3,142.9v-2.2h0.4v0.9h1.2v-0.9h0.4
	v2.2h-0.4v-1.1h-1.2v1.1H172.3z M174.9,142.9v-2.2h1.4v0.2h-1v0.7h0.9v0.2h-0.9v0.8h1.1v0.2H174.9z M176.7,142.9v-2.2h0.3l1.3,1.7
	v-1.7h0.3v2.2h-0.3l-1.3-1.7v1.7H176.7L176.7,142.9z M181.1,142.9c-2.6,1-2.6-3.1,0-2.1v0.3c-1.9-1-2.3,2.2-0.3,1.7V142h0.4
	L181.1,142.9L181.1,142.9z M182.9,142.9v-2.2C185.7,140.2,185.6,143.4,182.9,142.9L182.9,142.9z M183.2,142.7c1.8,0.4,1.8-2.2,0-1.8
	L183.2,142.7L183.2,142.7z M185.4,142.9v-2.2h1.4v0.2h-1v0.7h0.9v0.2h-0.9v0.8h1.1v0.2H185.4z M188,142.9l-0.9-2.2h0.4l0.8,1.8
	l0.7-1.8h0.3l-0.9,2.2C188.3,142.9,188,142.9,188,142.9z M189.6,142.9v-2.2h1.4v0.2h-1v0.7h0.9v0.2h-0.9v0.8h1.1v0.2H189.6z
	 M191.4,142.9v-2.2h0.4v2h1.1v0.2H191.4z M194.3,143c-1.5,0.1-1.5-2.4,0-2.3C195.8,140.6,195.8,143.1,194.3,143L194.3,143z
	 M194.3,142.8c1.1,0.1,1.1-1.9,0-1.9C193.2,140.8,193.2,142.8,194.3,142.8L194.3,142.8z M196,142.9v-2.2c1.7-0.4,2.2,1.4,0.4,1.3
	v0.9L196,142.9L196,142.9z M196.3,141.8c1,0.2,1.1-1.1,0-0.9L196.3,141.8L196.3,141.8z M197.9,142.9v-2.2h0.5l0.7,1.7l0.7-1.7h0.4
	v2.2h-0.3v-1.8l-0.7,1.7h-0.3l-0.7-1.7v1.8L197.9,142.9L197.9,142.9z M200.8,142.9v-2.2h1.4v0.2h-1v0.7h0.9v0.2h-0.9v0.8h1.1v0.2
	H200.8z M202.7,142.9v-2.2h0.3l1.3,1.7v-1.7h0.3v2.2h-0.3l-1.3-1.7v1.7H202.7L202.7,142.9z M205.8,142.9v-2H205v-0.2h2.1v0.2h-0.9v2
	H205.8L205.8,142.9z M154,135.4v-6.9h4.6v6.9h1.5l0-1.3H159v-1h1.1l0-1.2H159v-1h1.2l0-1.1H159v-1.1h2.2l-0.1,6.7h0.6v1h-10.6v-1
	h0.6l-0.1-6.5c0.8-0.1,1.4-0.3,1.9-0.5l0.4,1c-0.3,0.1-0.9,0.3-1.3,0.4l0,1.1h1v1h-0.9l0,1.2h1v1h-1l0,1.3L154,135.4L154,135.4z
	 M155.3,137.2c-0.9,0.7-2.1,1.3-3.4,1.7l-0.7-1c1.3-0.3,2.4-0.8,3.3-1.4L155.3,137.2z M157.7,135.4v-5.9H155v5.9H157.7z M157.4,130
	v0.8h-2.2V130H157.4z M157.3,131.4v3.4h-1.9v-3.4H157.3z M156.6,132.3h-0.6v1.6h0.6V132.3z M161,138.9c-1-0.5-2.5-1.2-3.6-1.6
	l0.7-0.7c1.2,0.3,2.3,0.8,3.5,1.4L161,138.9L161,138.9z M202.7,129.6c-0.9,1.2-1.4,1.4-3.1,2h2.3v2.8h-2.2l-0.1,1.1h2.5
	c0,2.9-0.2,3.8-3.5,3.5l-0.3-1c1.8,0.1,2.9,0.4,2.7-1.6h-2.6l0.3-2.7h2.2v-1.1h-1.7l-0.4-0.5l-0.7,0.2l-0.6-1c0.6-0.1,1-0.2,1.7-0.4
	c-0.2-0.2-0.6-0.6-0.8-0.8l0.9-0.5c0.4,0.3,0.8,0.7,0.9,0.9c0.6-0.1,1.1-0.5,1.6-1h-2.8v-0.9h4.1c0.3,0.3,0.6,0.7,1,1
	c0.4-0.3,0.7-0.6,1-1.1l0.9,0.5c-0.2,0.3-0.8,0.9-1.1,1.1c0.2,0.1,0.6,0.3,0.8,0.4c0.4-0.4,0.8-0.9,1-1.2l0.9,0.5
	c-0.3,0.4-0.6,0.8-0.9,1.1c0.5,0.2,1,0.3,1.5,0.4l-0.5,1c-0.3-0.1-0.9-0.3-1.2-0.4c0,0.8-0.2,1.7,0.9,1.5l0.4,0.9
	c-1.5,0-2.7,0.2-2.4-1.7h-1c0,0.7-0.4,1.4-1.3,2l-0.9-0.7c0.9-0.4,1.2-1.2,1.1-2.1h2.6C204.7,131.1,203.6,130.5,202.7,129.6
	L202.7,129.6z M207.4,135.3c-0.4,0.8-0.9,1.4-1.5,2c0.5,0.3,0.8,0.5,1.8,0.7l-0.3,1c-0.8-0.2-1.7-0.6-2.4-1c-0.7,0.4-1.4,0.7-2.2,1
	l-0.4-0.9c0.9-0.2,1.2-0.4,1.7-0.7c-0.3-0.2-1-0.9-1.3-1.2l1.4,0.1c0.2,0.2,0.5,0.4,0.8,0.6c0.5-0.4,0.9-0.8,1.2-1.3h-3.4v-0.9h4.7
	L207.4,135.3L207.4,135.3z M177.2,134.5c-0.2,0.1-0.6,0.4-0.8,0.5v-2.9h0.9v-1h-0.9v-2.9h-1v2.9h-1.1v1h1.1v3.4
	c-0.2,0.1-0.9,0.3-1.1,0.5l0.2,1.3c1.3-0.6,2.2-1.1,2.8-1.5L177.2,134.5L177.2,134.5z M184.9,129.5h-0.3v0h-2.2V128h-1v1.5h-3.7
	c0,1.7,0.1,5-0.3,6.3c-0.3,1-0.6,1.9-0.5,3c0.9-1.3,1.8-3.2,1.9-5.9h1.2c-0.2,2.2,0.4,3.1-1.3,2.9l0.3,1.1c2.8,0.3,1.7-2.7,2-5h-2.2
	v-1.4h2.7c0.2,1.4,0,3.7,0.5,5.3c-0.6,0.8-1.1,1.4-1.9,1.9c0.1,0.2,0.3,0.9,0.3,1.1c0.9-0.7,1.4-1.2,1.9-1.9c0.5,1.2,1.8,1.9,2.3,2
	l0-1.4c-1.3-0.5-1.3-0.7-1.6-1.6c0.6-1,1.2-2.4,1.6-4l-1-0.4c-0.2,1-0.6,2.1-0.9,2.8c-0.3-1.5-0.1-2.6-0.3-4h2.5L184.9,129.5
	L184.9,129.5z M172.7,137.6c-2.6-0.2-6.5,0.9-7.8-1.4c0.3-0.6,0.4-1.8,0.4-2.5h-1.2c0.6-1,1.3-1.9,1.2-3.1h-2.5v0.9h1.4
	c-0.2,0.5-0.7,1.4-1.3,2.3v0.8h1.4c-0.2,1.5-0.8,2.6-1.7,3.4l0.7,0.8c0.5-0.5,0.9-1,1.1-1.7c1.4,2.3,5.7,1.2,8.6,1.5l0.2-1.1
	C173.1,137.6,172.9,137.6,172.7,137.6L172.7,137.6z M163.7,129.5l0.7,0.8l0.8-0.7c-0.5-0.6-1-1-1.5-1.5l-0.7,0.6
	C163.2,129,163.5,129.2,163.7,129.5L163.7,129.5z M169.9,135.3v-0.7h2.9v-4.2h-2.9v-0.6h3.2v-0.9h-3.2V128h-1v0.9h-3.1v0.9h3.1v0.6
	h-2.8v4.2h2.8v0.7h-3.3v0.9h3.3v1.1h1v-1.1h3.3v-0.9L169.9,135.3L169.9,135.3z M168.9,132.1h-1.3l-0.1,0.8h1.5v0.9H167
	c0-0.7,0-1.8,0-2.5h1.8V132.1z M169.9,133c0-0.3,0-1.4,0-1.7h1.9v0.8h-1.4l-0.1,0.8h1.5v0.9h-1.9 M191.5,128.4v4h3.5v5
	c0.1,0.6-1.2,0.3-1.6,0.3l0.3,1.1c0.9,0,2.5,0.3,2.4-1.1c0,0,0-9.3,0-9.3H191.5L191.5,128.4z M195.1,130h-2l-0.1,0.7h2.2v0.8h-2.5
	c0-0.7,0-1.5,0-2.2h2.5L195.1,130L195.1,130z M186.3,128.4v10.5h1.1v-6.6h3.5v-4H186.3z M189.8,130h-2l-0.1,0.7h2.1v0.8h-2.5
	c0-0.7,0-1.5,0-2.2h2.5L189.8,130L189.8,130z M192.8,135.1v-1.2h1.3V133h-5.9v0.9h1.4v1.2h-1.7v0.9h1.7c-0.1,0.8-0.7,1.5-1.6,1.9
	l0.8,0.7c1.2-0.7,1.8-1.5,1.8-2.6h1l-0.1-0.9h-0.8v-1.2h1.3c0,1.3,0,3.4,0,4.7h1V136h1.6v-0.9H192.8L192.8,135.1z M184.2,128.6h-1.1
	v1.1h1.1V128.6z M142.3,128.9c-0.6,0-1.7,0-2.3,0c0,0-0.2-0.1-0.5,0.4c-0.2,0.3-4.3,6.5-6.6,9.9c-2.3-3.4-6.4-9.6-6.6-9.9
	c-0.4-0.8-2.3-0.2-2.8-0.4c-2.1-0.4,8.5,13.6,7.5,12.6c0.4,0.4,0.6,0.3,0.7,0.3c0.6-0.1,2.5,0.3,3.1-0.3
	C133.8,142.4,144.3,128.5,142.3,128.9L142.3,128.9z M145.7,128.9c-0.6,0.1-1.1-0.3-1.6,0.4c-0.3,0.4-6.6,10-8,12
	c-0.4,0.9,2.7,0.3,2.7,0.5c1.1-0.2,6.2-9,8.6-12.3C147.9,128.7,146.1,128.9,145.7,128.9L145.7,128.9z M131,129.3
	c-0.3-0.4-0.5-0.4-0.5-0.4c-0.3,0.1-3.4-0.4-2.7,0.6c1.2,1.8,2.5,3.8,4.7,7.2c0.9,0.7,1.3-1.4,1.9-1.9
	C133.4,132.1,130.8,129.3,131,129.3z M135,133.2c-4.2-5.9-3-4,2.8-4.3c0.2,0,0.4,0.3,0.2,0.4C137.8,129.5,135.5,134,135,133.2
	L135,133.2z"/>
</svg>
