<svg xmlns="http://www.w3.org/2000/svg" viewBox="0 0 1115 548">
<style type="text/css">
	.st0{fill:#FFFFFF;}
	.st1{fill:#00CBD1;}
</style>
<path class="st0" d="M532.5,7.7C143.3,28.9,48.7,160,84.8,329.4c1.8,10.8,0.1,42.9-79.8,56.9c51.3,22.3,99.3-12.4,131,17.1
	c214,183.5,958.7,136.5,942-149.1C1068.1,84.6,855.4-10,532.5,7.7z"/>
<rect x="304" y="320" class="st1" width="156" height="3"/>
<rect x="696" y="320" class="st1" width="156" height="3"/>
<path class="st1" d="M855,211.6v3.3h-44v-3.3c12.3-0.4,13.4-1.5,13.4-13.2v-74.5c0-11.5-1.1-12.8-12.8-13.2v-3.3h42.8v3.3
	c-11.7,0.4-12.8,1.6-12.8,13.2v74.5C841.6,210,842.8,211.2,855,211.6z M736.8,103h-14.9c0.2,16-14,29.9-29.9,29.5v14.7
	c23.9,0.7,45.3-20.3,45-44.3H736.8z M762,159.5h10.5c22.9-0.2,34.3-28.5,17.9-44.6c-16.1-16.2-44.5-4.3-44.3,18.6c0,0,0,5.1,0,5.1
	h14.9v-5.1c-0.4-10,12.5-15.5,19.4-8.3c7.3,6.8,2,19.8-8,19.6h-62.3v70h15v-55.2h22c0.8,28.8,25.9,54.5,56.7,54.5v-14.7
	c-21.5,0-40.7-18.2-41.7-39.7L762,159.5z M675.9,200h-32.8c-24.1,0-35.8-11-35.8-33.8v-33.6h13.3v30.6c2,30.5,45.5,30.4,47.5,0v-24
	h-14.9v24c-0.8,11-16.8,11-17.6,0v-30.6h49.9v-14.7h-17.3v-14.4h-14.9v14.4h-17.6v-14.3h-14.9v14.3h-13.3v-14.3h-14.9v14.3h-15.8
	v14.7h15.8v36c0.9,29.1,18.9,45.9,49.8,46.2h33.8L675.9,200z M530.3,191.6h-31.7c-4.6,16.3-20.2,24.7-36.5,23.1v-13.1
	c9,0.7,18-1.4,22.3-10.1H459v-13h5.4v-55.3c0.4-10.4,9.7-19.2,20.1-19v13.1c-3.6-0.1-6.9,3.1-6.8,6.8v5.1h6.8v13.1h-6.8v11h6.8v13.1
	h-6.8v12.1h10.7v-47.9c1.1-35.4,52.4-35.3,53.5,0v33.4c0,5.8-3.2,11.4-8.1,14.4h18v-12.2h-6.2v-13.1h6.2v-11h-6.2V129h6.2v-5.1
	c0-3.7-3.2-6.9-6.9-6.8V104c10.4-0.2,19.7,8.6,20.1,19v55.5h5.8v13.1h-26.3c4.4,8.7,13.4,10.8,22.3,10.1v13.1
	c-16.3,1.5-31.8-6.9-36.4-23.2L530.3,191.6z M501.6,178.5h13.8c-14.7-9-7.9-31.6,9.1-31.5v13.1c-3.4-0.1-5.3,4.4-2.8,6.8
	c2.3,2.5,6.9,0.6,6.7-2.8v-33.4c-0.6-17.8-26.4-17.8-26.9,0v5.1c6.6-5,14.7-7.7,22.9-7.7v13.1c-12.4,0-22.9,9.3-22.9,20.3V178.5z"/>
<path class="st1" d="M570.1,232.4h2.2v19.3H570l-10.9-15.9v15.9H557v-19.3h2.3l10.8,15.7V232.4z M578.6,242.7h10.7v-1.9h-10.7v-6.5
	h11.4v-2h-13.6v19.3h14v-1.9h-11.8V242.7z M609.9,248.6l-4.3-16.2h-2.4l-4.4,16.2l-4.2-16.2H592l5.5,19.3h2.4l4.4-16.1l4.3,16.1h2.4
	l5.5-19.3H614L609.9,248.6z M639.8,242.5c-2.7-1.5-5.7-1.8-8.5-3c-2.2-0.6-2.3-3.9-0.3-4.8c3.1-1.6,8.2-0.7,8.5,3.4h2.2
	c-0.1-6.1-7.9-7.6-12.2-4.8c-2.8,1.6-2.9,6.2,0.1,7.6c2.7,1.3,5.7,1.7,8.4,3c1.6,0.6,2.5,2.8,1.5,4.3c-2.8,3.5-10.5,2.3-10.3-2.9
	H627c0.1,6.6,8.6,8.3,13.3,5.2C643.1,248.7,642.9,244,639.8,242.5z M643.7,234.4h6.7v17.4h2.2v-17.4h6.7v-2h-15.6V234.4z
	 M670.2,232.4l7.5,19.3h-2.4l-2-5.4h-8.8l-2,5.4h-2.3l7.5-19.3H670.2z M672.6,244.4l-3.6-9.7l-3.7,9.7H672.6z M695.2,251.7h-2.4
	c-2-3,1-8.5-5-8.5h-5.8v8.3h-2.2v-19.2c0,0,6.2,0,8.2,0c8.4,0,7.1,9.4,2.8,9.9C695.9,243.5,692.7,248.1,695.2,251.7z M687.8,234.4
	c-1.4,0-5.8,0-5.8,0v7.2c0,0,4.3,0,5.8,0C693.5,241.5,693.5,234.4,687.8,234.4z M696.8,234.3h6.7v17.4h2.2v-17.4h6.7v-1.9h-15.6
	L696.8,234.3z M737.3,244.9c0,6.9-10.9,6.9-10.9,0l0-12.6h-2.2v12.9c0,8.9,15.2,8.9,15.2,0v-12.9h-2.2V244.9z M745.8,243.8v7.8h-2.2
	v-19.2l8.6,0c7.7,0,7.7,11.4,0,11.4L745.8,243.8z M752,234.3l-6.2,0v7.6l6.2,0C757.1,241.9,757.1,234.3,752,234.3z"/>
<path class="st1" d="M473.4,348.1h-3.6c-5.9,0.5-11.3-4.9-10.7-10.8v-33.9c0-6.8,4.1-11.4,10.5-11.4h4.3v4.6h-4.3
	c-3.7,0-5.9,2.5-5.9,6.8v33.9c0,4.1,2.1,6.1,6,6.1h3.6V348.1z M696,338.2v-33.9c0-6.8-4.1-11.4-10.5-11.4h-4.3v4.6h4.3
	c3.7,0,5.9,2.5,5.9,6.8v33.9c0,4.1-2.1,6.1-6,6.1h-3.6v4.6h3.6C691.2,349.4,696.5,344.1,696,338.2z M526.5,331.8v-5.2h-20.7
	c0.2-1,0.4-2,0.5-3H526v-5.3h-19.2v-2.5H522v-5h-15.2v-2.6H524v-5.2h-9.3c1-1.2,2.1-2.7,3.3-4.3l-6.2-1.9c-1,2.1-2.1,4.1-3.5,5.9
	l1,0.3h-12.4l1.4-0.6c-0.9-2.1-2.1-4.1-3.7-5.7l-5.2,2.2c1,1.3,1.9,2.6,2.6,4.1h-8.6v5.2h17.2v2.6h-14.8v5h14.8v2.5h-19.2v5.3h18.4
	c0,1.1-0.3,2-0.5,3h-18.3v5.2h16.1c-2.4,3.2-7.1,5.3-16.8,6.6c1.3,1.6,2.3,3.5,3,5.4c12.4-2,17.9-5.6,20.6-11.1
	c3.9,6.6,10,9.9,20.3,11.1c0.9-2,2.1-3.9,3.6-5.5c-8.6-0.6-14.4-2.6-17.9-6.5L526.5,331.8z M554.2,317.9c-1.3-0.9-6.3-3.7-8.4-4.8
	h8.2v-4.7h-7.7c0-0.3,0-0.7,0-1v-2.2h6.5v-4.6h-12.4c0.4-1,0.7-2,1-3l-5.3-1.1c-0.9,3.7-2.8,7.1-5.5,9.8c1,0.5,2.6,1.4,3.8,2h-3.4
	v4.8h8.2c-1.2,2.5-3.8,5-8.9,7c1.4,1.2,2.7,2.5,3.8,4.1c3.7-1.6,6.8-4,9.2-7.2c2.2,1.5,4.4,3.1,6.5,4.9L554.2,317.9z M535.9,308.4
	c0.9-1,1.6-2.1,2.3-3.2h2.5v2.2c0,0.4,0,0.7,0,1.1H535.9z M537.8,343.5h5.9v-1.7h20.6v1.6h6.2v-21.1h-32.7L537.8,343.5z
	 M564.4,327.1v2.8h-20.6v-2.8H564.4z M543.7,337.1v-3h20.6v3H543.7z M555.8,300.4v19h19.1v-19H555.8z M569,314.1h-7.6v-8.5h7.6
	V314.1z M612.3,304.4c0.8-2.1,1.4-4.2,2-6.4l-5.7-1.3c-1.3,5.7-3.6,11.2-6.8,16.1v-8.2h-7.9c0.9-2,1.8-4.6,2.6-7.1l-6.5-0.9
	c-0.3,2.7-0.8,5.4-1.5,8h-5.7v37.2h5.4v-3.7h13.4v-23.4c1.4,0.8,2.6,1.8,3.9,2.8c1.8-2.5,3.2-5.1,4.4-7.9h10.7
	c-0.6,17.7-1.2,25.2-2.7,26.8c-2.7,1.8-5.1,0.5-9.7,0.6c1.1,1.8,1.7,3.7,1.9,5.8c4.3,0,9.8,1.1,12.7-2.8c2.1-2.7,2.6-10.6,3.3-33
	c0-0.7,0-2.7,0-2.7L612.3,304.4z M596.4,318.1h-8v-8.2h8V318.1z M588.4,333v-9.7h8v9.8L588.4,333z M618.1,327.2
	c-2.3-3.8-4.7-7.5-7.4-11.1l-4.7,2.7c2.6,3.7,4.9,7.6,7,11.6L618.1,327.2z M671,314.6c-2.2,2-4.5,3.8-6.9,5.4
	c-0.8-1.9-1.5-3.8-2.1-5.8h5.7v-5h-26.8v5h7.3c-4.9,2.4-10.2,4.1-15.6,5.1c1.2,1.5,2.2,3,3.1,4.7c4.1-1.1,8.2-2.6,12.1-4.3
	c0.5,0.4,0.9,0.8,1.3,1.2c-4.8,3-10.2,5.3-15.7,6.6c1.2,1.4,2.1,2.9,2.9,4.6c5.4-1.9,10.6-4.5,15.4-7.7c0.3,0.6,0.6,1.2,0.9,1.8
	c-6.3,4.8-13.4,8.2-21.1,10.2c1.2,1.5,2.2,3.2,3,4.9c6.9-2.4,13.5-5.8,19.5-10c0.7,6.8-3.9,7.4-9.4,6.5c1,1.7,1.6,3.7,1.8,5.7
	c3.8,0.1,7.6,0.8,10.5-2.1c4.9-3.7,4.9-16.3-4.3-24.3c1.5-0.9,2.8-1.8,4.1-2.9c2.9,11.7,7.8,20.9,16.8,25.7c1.2-1.9,2.5-3.6,4.1-5.1
	c-4.7-2.2-8.6-5.8-11.2-10.2c3.1-1.8,6.2-3.8,9.1-5.9L671,314.6z M639.1,306h30.4v5.9h6.2v-11h-18.3v-4.1h-6.1v4.1h-18v11.2h5.8
	L639.1,306z"/>
<g>
	<path class="st1" d="M725.7,420h-37.7v-6.5l6.7-6.5c11.4-10.6,18.1-17.6,18.1-24.9c0.4-5.1-4.5-9.6-9.5-8.7c-4.1,0.2-8,1.6-11.3,4
		l-3.3-7.6c13-8.8,36.7-5.5,36,11.5c0.3,11.3-11.6,21.7-21.1,29.9h22.2L725.7,420z M730.9,394.4h21.9v7.2h-21.9V394.4z M781.5,390.8
		c6.7,0.8,12.1,6.8,12.3,13.6c0,9.1-8.1,16.4-22.1,16.4c-5.2,0.2-10.5-1-15.2-3.3l2.6-8c7.3,4.3,22.8,4.5,22.6-5.5
		c0-8-9.5-9.5-16.5-9v-7.4c5.6,0.4,14.4-0.7,14.6-7.6c0-3.8-2.8-6.6-8.4-6.6c-3.7,0.1-7.3,1.1-10.5,3l-2.5-7.6
		c11.4-6.7,33.7-4.8,33.4,9.5c-0.2,5.9-4.6,11.2-10.4,12.5V390.8z M828,398.8c-0.1,1.1-0.3,2.3-0.5,3.4h19.1c0,0,0,1.7-0.2,2.6
		c-0.5,7.9-1.3,11.5-2.8,13c-1.3,1.2-3,1.9-4.8,2c-2.5,0.2-5.1,0.2-7.6,0c-0.2-2.1-0.8-4.1-1.9-5.8c2.8,0.2,5.4,0.3,6.6,0.3
		c0.7,0.1,1.5-0.1,2.1-0.6c0.7-0.6,1.1-2.4,1.5-6.1h-13.5c-2.7,6.3-8.6,11.1-15.3,12.5c-1-2.1-2.3-4-3.9-5.7
		c11-3,13.3-8.3,14.3-15.6h-10c-0.5,7.3-3.2,14.4-7.6,20.2c-1.8-1.6-3.8-2.9-5.9-4c9.6-11.6,6.7-26.6,7.2-39.6h42.1v14.3h-15.2v3.6
		h20v5.5L828,398.8z M850.4,372.9h-49.5v-6.3h49.5V372.9z M811.6,389.7c0,1.1,0,2.3,0,3.6h13v-3.6H811.6z M811.6,380.7v3.7h28.3
		v-3.7H811.6z M324.2,366c-1.6,4.2-3.5,8.2-5.6,12.2v41.3h-6.6v-30.9c-1.3,1.8-2.7,3.5-4.2,5.1c-1.1-2.5-2.4-4.8-3.9-7.1
		c6-6.5,10.7-14.2,13.6-22.6L324.2,366z M348.6,390.3c1.5,14.7,6.9,30.5,7.3,12.2c1.6,1.6,3.4,2.8,5.4,3.7c-0.9,9.2-3,11.3-7.6,11.3
		c-6.5,0-10.3-12.1-12-27.2h-10.2V402l10.7-1.6l0.4,6.3c-7,1.2-14.3,2.4-20.1,3.4l-1.5-6.6l3.7-0.5V369l4.8,1.5
		c7.9-0.9,15.7-2.5,23.4-4.8l5.2,5.3c-3.4,1.1-6.9,2-10.4,2.7c0,3.5,0,7,0.4,10.3h12.1v6.4L348.6,390.3z M323.1,412.3H347v6.3h-23.9
		V412.3z M341.1,383.7c0-2.9-0.3-6-0.5-9c-3.1,0.5-6.1,0.9-9,1.2v7.8H341.1z M387,367.2c-3.6,9.2-9.1,17.6-16,24.7
		c-2.1-2-4.3-3.8-6.6-5.4c6.7-5.8,11.8-13.2,14.7-21.5L387,367.2z M403.4,395.2c5.1,6.5,9.6,13.4,13.4,20.6l-7.2,4.1
		c-0.7-1.6-1.5-3.2-2.4-4.8c-14.3,1-28.9,1.9-39.2,2.3l-1-7.4l8.1-0.3c4.1-7.7,7.5-15.8,10.1-24.2l8.2,2.1
		c-3,7.4-6.4,14.7-10.2,21.8l19.9-1c-2.1-3.4-4.4-6.8-6.6-9.5L403.4,395.2z M402.6,365c4,7.7,9.2,14.6,15.4,20.6
		c-2.2,1.8-4.2,3.9-5.9,6.2c-6.4-7.3-12-15.3-16.5-23.9L402.6,365z M444.9,379.3h-23.1v-5.6h23.1V379.3z M473.9,391
		c-1.5,6.4-4.5,12.3-8.7,17.3c3.7,2.4,7.9,4.2,12.2,5.2c-1.9,1.8-3.5,3.9-4.8,6.2c-4.7-1.4-9-3.6-12.9-6.6c-4.2,3-8.9,5.3-13.8,6.8
		c-0.9-2-2-3.9-3.3-5.7v2.4h-12.2v2.4h-6v-20.6h18.3v15.1c4.3-1,8.3-2.8,11.9-5.3c-2.8-3.1-5.1-6.7-6.9-10.5l5.9-1.9h-8.1v-6.4h1.5
		c-1.3-1.5-2.7-2.9-4.3-4.1v2.1h-18.1V382h18.1v2.8c3.9-2.7,6.1-7.5,5.6-12.2v-7.2H468V379c0,1.6,0,1.8,0.8,1.8c2.4,0,2,0.2,2.3-6.1
		c1.7,1.2,3.7,2,5.7,2.6c-0.6,9.7-3.3,9.8-9.3,9.5c-4.8,0-6.1-1.8-6.1-7.8v-7.3h-6.5v1c0.5,6.3-2.2,12.7-7.1,16.7h20.5h1.2
		L473.9,391z M442.6,395.8h-18.1v-5.4h18.1V395.8z M442.6,371.2h-17.8v-5.4h17.8V371.2z M436.8,404.3h-6.4v6.9h6.2L436.8,404.3z
		 M453.8,396.1c1.5,3,3.5,5.8,5.9,8.1c2.2-2.4,4-5.1,5.3-8.1H453.8z M562.4,368.8v6.1h-51.2v-6.1H533V364h7.1v4.8H562.4z
		 M560.7,412.6c0,3.3-0.6,5.2-3,6.3c-3.1,1-6.3,1.4-9.5,1.1c-0.3-1.6-0.8-3.2-1.5-4.8h-15.1v2.7h-6v-16.4H548v11.8h4.3
		c0.9,0,1.2,0,1.2-1v-13.6h-33.4v21.3h-6.8V393h47.3L560.7,412.6z M553.1,377.2v13.4h-32.2v-13.4H553.1z M546,382h-18.5v3.8H546V382
		z M542,406.3h-10.3v4H542V406.3z M622.6,400.3h-14.8v19.6h-7v-19.6h-14.7l0.9,4.8c-5.8,2.5-12,4.8-17,6.8l-2.5-7.3
		c2-0.5,4.2-1.2,6.8-2.1v-18h-5.7v-6.8h5.7v-13h6.3v13h4.8v6.8h-4.8v15.9l5.2-1.8l0.2,1.4v-6.4h14.7v-20.1h-13.2v-6.8H621v6.8h-13.3
		v20.1h14.9V400.3z M594.4,375.8c1.4,4.5,2.4,9.1,3.1,13.8l-5.9,1.5c-0.5-4.7-1.4-9.4-2.8-14L594.4,375.8z M610.7,389.5
		c1.4-4.7,2.5-9.5,3.2-14.3l6.5,1.3c-1.4,5.1-3,10.7-4.4,14.3L610.7,389.5z M638.8,380.4c-1.9,5.1-4.8,9.8-8.6,13.7
		c-1.6-1.5-3.4-3-5.2-4.2c3.4-3.1,5.9-6.9,7.4-11.2L638.8,380.4z M646.8,414.7c-1.3-2.3-2.7-4.4-4.3-6.5c-3.1,4.6-6.9,8.6-11.4,11.7
		c-1.5-2-3.2-3.9-5.1-5.6c4.8-2.9,8.8-6.9,11.7-11.6c-2.4-2.6-4.8-5.2-7.4-7.4l5.1-4.1c1.9,1.5,3.8,3.3,5.7,5.2
		c1-2.1,1.8-4.3,2.4-6.5l7,1.6c-1.1,3.5-2.5,7-4.1,10.3c2.3,2.5,4.4,5.2,6.2,8.1L646.8,414.7z M656.3,377.7h-29.9v-6.4h11.4v-7.1
		h6.8v7.1H656L656.3,377.7z M677.3,381.3c-0.8,7.8-3,15.3-6.4,22.3c2.4,4.2,5.9,7.7,10.1,10.1c-1.8,1.8-3.5,3.7-4.8,5.9
		c-3.8-2.5-7.1-5.7-9.5-9.5c-3.4,4-7.6,7.3-12.4,9.5c-1.1-2.2-2.4-4.3-3.9-6.2c5.2-2.1,9.6-5.7,12.8-10.3c-1.5-3.6-2.8-7.4-3.6-11.3
		c-0.7,1.4-1.6,2.7-2.5,4c-1.6-1.7-3.4-3.3-5.3-4.8c0.7-0.9,1.3-1.8,1.8-2.7l-4.5,2.8c-1.4-3.4-3.4-6.7-5.7-9.5l5.2-3
		c2.3,2.6,4.2,5.4,5.8,8.5c3.3-7.3,5.4-15.1,6.2-23.1l6.9,1c-0.5,3.4-1.1,6.7-1.9,9.9h15.3v6.6L677.3,381.3z M663.6,381.9
		c0.8,4.7,2,9.3,3.5,13.7c1.6-4.6,2.7-9.4,3.2-14.3h-6.6L663.6,381.9z"/>
	<circle class="st1" cx="493.8" cy="394.8" r="6.8"/>
</g>
</svg>
