<svg width="237" height="80" viewBox="0 0 237 80" fill="none" xmlns="http://www.w3.org/2000/svg">
<path d="M118.769 78.6699C183.623 78.6699 236.197 61.2641 236.197 39.793C236.197 18.3218 183.623 0.916016 118.769 0.916016C53.9145 0.916016 1.33984 18.3218 1.33984 39.793C1.33984 61.2641 53.9145 78.6699 118.769 78.6699Z" fill="url(#paint0_linear_3383_16445)"/>
<path d="M236.303 39.7929C236.325 42.5497 235.423 45.2571 233.994 47.5979C232.558 49.9387 230.692 51.9904 228.63 53.7813C224.497 57.3912 219.689 60.0915 214.796 62.4887C209.875 64.8577 204.757 66.8037 199.568 68.4959C194.38 70.188 189.1 71.6192 183.784 72.8601C162.488 77.7744 140.586 79.6851 118.769 79.7204C96.9448 79.7415 75.0571 77.852 53.6905 73.1351C43.0318 70.745 32.4716 67.6357 22.5169 62.9612C17.5678 60.5992 12.7453 57.8353 8.56348 54.169C6.47961 52.3429 4.58583 50.2489 3.12853 47.8447C1.67123 45.4475 0.748976 42.6414 0.784176 39.7929C0.798257 36.9374 1.76275 34.1595 3.24117 31.8046C4.72663 29.4356 6.64153 27.3909 8.73948 25.6071C12.9495 22.0395 17.7719 19.3532 22.7141 17.0265C27.6703 14.728 32.8095 12.8526 38.0192 11.238C43.2289 9.62345 48.5019 8.22032 53.8242 7.03582C75.1346 2.37538 96.9518 0.239048 118.769 0.0698336C140.572 0.0204794 162.488 1.81837 183.777 6.76084C189.093 7.99469 194.373 9.41894 199.561 11.1111C204.75 12.8032 209.868 14.7492 214.789 17.1111C219.689 19.5013 224.483 22.2228 228.609 25.8327C230.664 27.6236 232.537 29.6612 233.973 32.002C235.409 34.3287 236.31 37.0362 236.303 39.7929ZM236.099 39.7929C236.099 37.0785 235.198 34.4204 233.776 32.1219C232.347 29.8234 230.495 27.7928 228.426 26.0443C224.286 22.526 219.499 19.8397 214.564 17.5976C204.651 13.1416 194.119 10.2297 183.503 8.00881C172.872 5.81607 162.101 4.34249 151.294 3.3272C140.481 2.34717 129.632 1.77609 118.769 1.76199C107.906 1.69854 97.0433 2.06518 86.2157 3.0029C80.8018 3.46824 75.4021 4.07458 70.0164 4.8431C64.6378 5.62571 59.2873 6.58458 53.9721 7.73382C43.3556 10.0182 32.8518 13.0923 23.0097 17.6893C18.1169 20.0019 13.3578 22.7234 9.30973 26.2769C7.28218 28.0466 5.46584 30.0631 4.08598 32.3334C2.71316 34.5966 1.86836 37.1841 1.88948 39.807C1.90356 42.4227 2.79061 44.9821 4.19159 47.2101C5.59961 49.4451 7.43003 51.4123 9.47166 53.1397C13.562 56.6015 18.314 59.2455 23.1998 61.5158C28.1068 63.772 33.2038 65.6121 38.3712 67.2056C43.5457 68.7919 48.7976 70.1386 54.0988 71.2808C64.6941 73.5652 75.4514 75.1093 86.2579 76.1105C97.0645 77.0975 107.913 77.6334 118.769 77.6405C129.625 77.6616 140.474 77.1398 151.287 76.2021C162.101 75.2503 172.858 73.7274 183.496 71.5629C194.112 69.349 204.644 66.4371 214.557 61.9882C219.492 59.7461 224.265 57.0457 228.397 53.5275C230.46 51.7719 232.319 49.7624 233.755 47.4639C235.184 45.1725 236.092 42.5214 236.099 39.807V39.7929Z" fill="#F5E8C8"/>
<path d="M63.0743 49.1422V51.3139H35.7588V49.1422H50.6838C52.3523 45.3913 54.2601 39.3208 55.2458 35.0341L57.8365 35.5064C56.5763 39.8778 54.7248 45.4477 53.1478 49.1422H63.0743ZM61.8423 33.4546H37.0823V31.3113H61.8423V33.4546ZM44.2351 47.8873C43.8056 44.5453 42.5102 39.4124 41.3345 35.5698L43.6155 35.041C44.8194 38.9682 46.1148 43.9601 46.6709 47.3303L44.2351 47.8873ZM48.7055 30.9659C48.4591 29.7038 47.8114 27.7085 47.2271 26.2138L49.4447 25.6567C50.0643 27.1515 50.7401 29.0551 51.0499 30.3172L48.7055 30.9588V30.9659Z" fill="#F3DEB9"/>
<path d="M91.9527 42.571C93.5226 44.9471 95.3742 48.1128 96.2401 50.0517L94.1773 51.1375C93.8394 50.3478 93.3466 49.2902 92.7623 48.2044C84.99 50.8131 83.9762 51.222 83.3286 51.6944C83.1737 51.081 82.7442 50.0235 82.3711 49.4665C82.8991 49.2338 83.6665 48.7333 83.6665 47.6193V27.3276H95.4094V41.0833H85.9475V48.2961L91.833 46.4771C91.2135 45.4195 90.5728 44.3689 90.0166 43.4594L91.9597 42.5781L91.9527 42.571ZM85.9404 29.2877V33.102H93.1565V29.2877H85.9404ZM93.1565 39.1091V35.0621H85.9404V39.1091H93.1565ZM108.328 44.2702C108.328 45.5041 108.053 46.1175 107.216 46.47C106.385 46.8507 104.998 46.8789 102.745 46.8507C102.654 46.2655 102.407 45.3842 102.069 44.7708C103.674 44.8272 105.089 44.8272 105.491 44.799C105.92 44.799 106.075 44.6792 106.075 44.2702V29.5486H100.492V52.5688H98.2395V27.4968H108.321V44.2702H108.328Z" fill="#F3DEB9"/>
<path d="M136.587 42.6559C137.108 41.5701 137.727 39.9555 138.248 38.3762H135.01V49.9885C135.01 51.1307 134.763 51.7794 133.869 52.0966C133.003 52.4492 131.652 52.4774 129.525 52.4774C129.434 51.8922 129.124 50.9826 128.814 50.4256C130.384 50.4538 131.806 50.4538 132.208 50.4256C132.672 50.4256 132.792 50.3058 132.792 49.9532V38.3691H127.737V36.4302H135.601C133.996 35.0201 131.469 33.3491 129.279 32.2351L130.511 30.825C131.497 31.3256 132.574 31.939 133.623 32.5524C134.672 31.5865 135.784 30.3244 136.678 29.1188H128.413V27.1799H138.121L138.586 27.0317L140.001 27.9695C138.741 29.9366 136.946 32.0448 135.221 33.6029C136.178 34.2516 137.037 34.9214 137.622 35.5066L136.882 36.4161H139.135L139.473 36.3315L140.888 36.684C140.057 38.9402 139.128 41.4925 138.269 43.0789L136.573 42.6418L136.587 42.6559ZM146.485 48.6701C144.788 50.193 141.951 51.7794 139.487 52.6325C139.149 52.2235 138.41 51.5466 137.974 51.1659C140.381 50.348 143.155 48.8463 144.479 47.556L146.485 48.6701ZM146.084 31.805C146.302 30.9237 146.513 29.9296 146.668 29.0201H140.255V27.1446H155.792V29.0201H149.196C148.921 29.986 148.611 30.9589 148.33 31.805H154.715V46.9991H141.423V31.805H146.077H146.084ZM152.561 33.5042H143.556V36.3456H152.561V33.5042ZM152.561 37.9038H143.556V40.7804H152.561V37.9038ZM152.561 42.4232H143.556V45.2998H152.561V42.4232ZM150.956 47.6759C152.807 48.7053 155.18 50.2846 156.412 51.3704L154.623 52.6325C153.455 51.5467 151.11 49.9038 149.231 48.7899L150.956 47.6759Z" fill="#F3DEB9"/>
<path d="M178.144 44.9187C177.623 47.3793 176.821 50.1361 176.046 51.927C175.582 51.6943 174.631 51.3982 174.075 51.2502C174.941 49.4593 175.617 46.8223 176.082 44.5027L178.144 44.9116V44.9187ZM185.023 43.0996C184.931 42.6272 184.804 42.1055 184.649 41.5132C176.694 42.6554 175.617 42.8881 174.997 43.2406C174.878 42.8035 174.505 41.7459 174.258 41.1607C174.934 41.0761 175.709 40.3711 176.786 39.3417C177.342 38.8129 178.51 37.5226 179.897 35.8798C176.046 36.317 175.3 36.465 174.843 36.6695C174.723 36.2324 174.378 35.2312 174.103 34.6742C174.688 34.5261 175.307 33.9409 176.011 33.0878C176.779 32.2065 179.278 28.9209 180.82 25.6987L182.946 26.5801C181.341 29.3368 179.398 32.1219 177.426 34.2934L181.432 33.9409C182.263 32.7987 183.157 31.593 183.868 30.3944L185.839 31.5649C183.558 34.8222 180.876 38.0162 178.222 40.5685L184.051 39.7506C183.741 38.8411 183.375 37.8751 183.037 37.022L184.854 36.5849C185.748 38.4885 186.67 41.0408 186.98 42.5355L185.008 43.0926L185.023 43.0996ZM181.629 44.3053C182.059 46.3852 182.523 48.9657 182.65 50.7283L180.707 51.2008C180.58 49.4734 180.179 46.773 179.785 44.7494L181.636 44.3123L181.629 44.3053ZM185.234 43.6919C186.036 45.4545 186.867 47.7671 187.24 49.2618L185.424 49.8752C185.086 48.3523 184.283 46.0044 183.509 44.2136L185.234 43.6848V43.6919ZM201.173 32.3404C200.743 45.3629 200.405 49.7624 199.258 51.1655C198.582 51.9833 197.899 52.2513 196.794 52.3712C195.773 52.4558 193.956 52.4276 192.26 52.3429C192.232 51.6943 191.95 50.7918 191.521 50.1714C193.464 50.3195 195.188 50.3194 195.928 50.3194C196.512 50.3194 196.85 50.263 197.16 49.8823C198.082 48.9446 198.518 44.5732 198.856 33.257H190.035C189.268 34.8716 188.402 36.3099 187.508 37.5085C187.078 37.1559 186.121 36.5707 185.536 36.2746C187.698 33.7223 189.359 29.7669 190.38 25.8045L192.598 26.2135C192.168 27.9127 191.577 29.6118 190.901 31.1982H201.165V32.3404H201.173ZM194.358 44.7142C193.4 42.9234 191.091 40.1948 189.021 38.2629L190.626 37.149C192.689 39.0244 195.069 41.6684 196.054 43.4522L194.358 44.7142Z" fill="#F3DEB9"/>
<path d="M73.2484 39.8564C73.2484 40.6955 72.5655 41.3794 71.7277 41.3794C70.8899 41.3794 70.207 40.6955 70.207 39.8564C70.207 39.0174 70.8899 38.3335 71.7277 38.3335C72.5655 38.3335 73.2484 39.0174 73.2484 39.8564Z" fill="#F3DEB9"/>
<path d="M120.29 39.8564C120.29 40.6955 119.607 41.3794 118.77 41.3794C117.932 41.3794 117.249 40.6955 117.249 39.8564C117.249 39.0174 117.932 38.3335 118.77 38.3335C119.607 38.3335 120.29 39.0174 120.29 39.8564Z" fill="#F3DEB9"/>
<path d="M167.331 39.8564C167.331 40.6955 166.648 41.3794 165.811 41.3794C164.973 41.3794 164.29 40.6955 164.29 39.8564C164.29 39.0174 164.973 38.3335 165.811 38.3335C166.648 38.3335 167.331 39.0174 167.331 39.8564Z" fill="#F3DEB9"/>
<defs>
<linearGradient id="paint0_linear_3383_16445" x1="118.769" y1="-2.44711" x2="118.769" y2="83.0694" gradientUnits="userSpaceOnUse">
<stop stop-color="#004A33"/>
<stop offset="0.48" stop-color="#003623"/>
<stop offset="0.72" stop-color="#003C27"/>
<stop offset="1" stop-color="#004A33"/>
</linearGradient>
</defs>
</svg>
