<svg width="19" height="359" viewBox="0 0 19 359" fill="none" xmlns="http://www.w3.org/2000/svg">
<path d="M12.9859 2.64434L13.8529 1.70934L15.6549 3.08634C15.5529 3.20534 15.3149 3.34134 14.9919 3.40934V7.65934C14.9749 7.77834 14.0569 8.11834 13.4619 8.11834H13.1559V2.64434H12.9859ZM12.2719 1.01234C12.2379 1.25034 12.1019 1.42034 11.6429 1.48834V13.6093C11.6429 13.7623 10.8609 14.1193 10.1129 14.1193H9.73886V0.757339L12.2719 1.01234ZM14.2099 7.99934C14.2099 7.99934 15.3149 8.88334 15.9609 9.47834C15.9099 9.66534 15.7399 9.75034 15.5019 9.75034H7.06986L6.93386 9.27434H13.2579L14.2099 7.99934ZM14.7539 10.1753C14.7539 10.1753 15.9779 11.0933 16.7259 11.7393C16.6749 11.9263 16.4879 12.0113 16.2499 12.0113H6.27086L6.13486 11.5353H13.6829L14.7539 10.1753ZM15.9269 3.52834C15.9269 3.52834 16.8449 4.44634 17.3549 5.04134C17.3039 5.22834 17.1339 5.31334 16.8959 5.31334H5.99886L5.86286 4.82034H15.1109L15.9269 3.52834ZM13.9209 7.04734V7.54034H7.25686L7.10386 7.04734H13.9209ZM13.9719 2.64434V3.12034H7.08686L6.93386 2.64434H13.9719ZM6.03286 3.13734C5.55686 4.24234 4.36686 6.77534 3.72086 7.99934H3.83986L3.22786 8.61134L1.56186 7.54034C1.79986 7.35334 2.24186 7.13234 2.58186 7.06434L1.95286 7.59134C2.64986 6.38434 3.87386 3.69834 4.29886 2.49134L6.03286 3.13734ZM4.07786 2.49134L4.92786 1.64134L6.62786 3.17134C6.32186 3.49434 5.33586 3.51134 4.50286 3.37534L4.29886 2.49134H4.07786ZM1.90186 8.91734C3.63586 13.6433 6.76386 14.3743 13.0879 14.3743C13.9719 14.3743 16.0119 14.3743 17.0659 14.3573V14.5443C16.3009 14.7143 15.9269 15.4113 15.8759 16.1933C15.1959 16.1933 13.6319 16.1933 12.9349 16.1933C6.37286 16.1933 3.31286 15.0713 1.71486 9.00234L1.90186 8.91734ZM4.70686 7.52334L5.64186 6.53734L7.34186 7.98234C7.22286 8.15234 7.06986 8.22034 6.69586 8.25434C6.21986 11.6883 5.01286 14.8843 1.11986 16.6863L0.983863 16.4823C3.80586 14.3913 4.63886 11.0253 4.89386 7.52334H4.70686ZM5.77786 7.52334V8.01634H2.61586L2.85386 7.52334H5.77786ZM5.14886 2.49134V2.98434H1.28986L1.13686 2.49134H5.14886ZM7.64786 32.6433C7.54586 32.7963 7.39286 32.8813 7.00186 32.8133C5.70986 33.8503 3.55086 34.8363 1.30686 35.2783L1.17086 35.0743C2.92186 34.1393 4.63886 32.5413 5.45486 31.2833L7.64786 32.6433ZM10.8949 31.7423C17.1679 31.6573 16.8449 35.7033 14.7029 35.0743C13.8869 33.9523 12.1359 32.6093 10.7929 31.8953L10.8949 31.7423ZM11.5919 25.6053C11.5749 26.7613 11.1159 28.5123 7.03586 29.3623L6.91686 29.1753C9.46686 28.1213 9.85786 26.7273 9.85786 25.6053V24.5853H11.5919V25.6053ZM14.2949 24.3983V24.8913H8.59986L8.44686 24.3983H14.2949ZM13.0539 24.3983L13.8699 23.5483L15.3659 24.7893C15.2639 24.9083 15.0939 24.9933 14.8049 25.0443V27.2033C14.8049 27.3563 14.8389 27.4073 15.0089 27.4073H15.3319C15.4509 27.4073 15.5529 27.4073 15.6209 27.4073C15.7059 27.4073 15.8079 27.3903 15.8759 27.2883C15.9779 27.1353 16.1649 26.6423 16.3519 26.0983H16.5389L16.5899 27.3053C16.9809 27.4753 17.0489 27.6623 17.0489 27.9683C17.0489 28.5803 16.4879 28.9543 15.1449 28.9543H14.4649C13.3429 28.9543 13.2069 28.6143 13.2069 27.6113V24.3983H13.0539ZM8.25986 26.1663C13.1899 25.7413 13.4109 28.7843 11.7789 28.5463C11.0139 27.7643 9.36486 26.7953 8.14086 26.3873L8.25986 26.1663ZM10.7759 29.4643C10.7419 29.7023 10.6059 29.8723 10.1469 29.9403V35.1763C10.1469 35.3293 9.22886 35.6693 8.39586 35.6693H8.03886V29.2263L10.7759 29.4643ZM14.9579 29.1583C14.9579 29.1583 16.1989 30.1443 16.9469 30.8243C16.8959 31.0113 16.7089 31.0963 16.4539 31.0963H1.83386L1.69786 30.6203H13.8529L14.9579 29.1583ZM1.85086 28.1553C3.02386 28.0703 5.77786 27.7473 8.54886 27.3733L8.58286 27.6113C7.39286 28.1043 5.64186 28.8183 3.14286 29.7023C3.05786 29.9233 2.88786 30.0593 2.70086 30.0933L1.85086 28.1553ZM6.06686 24.5173V28.0533L4.24786 28.4953V24.5173H6.06686ZM6.83186 23.4463C6.83186 23.4463 7.78386 24.1773 8.36186 24.7213C8.31086 24.9083 8.15786 24.9933 7.91986 24.9933H2.34386L2.20786 24.5003H5.99886L6.83186 23.4463ZM15.0939 20.1483C15.0939 20.1483 16.1649 20.9813 16.8109 21.5593C16.7599 21.7463 16.6069 21.8313 16.3519 21.8313H10.6229V21.3553H14.1589L15.0939 20.1483ZM7.98786 20.2163C7.98786 20.2163 8.95686 20.9983 9.51786 21.5593C9.48386 21.7463 9.31386 21.8313 9.07586 21.8313H4.31586V21.3553H7.12086L7.98786 20.2163ZM11.8129 22.2053C15.1959 22.1203 13.7509 24.6023 12.3739 23.6503C12.3399 23.1403 11.9999 22.5793 11.6769 22.3073L11.8129 22.2053ZM12.7309 20.4883C12.6629 20.6923 12.4419 20.8283 12.0679 20.7943C11.1839 22.2393 9.99386 23.3273 8.71886 23.9903L8.51486 23.8373C9.21186 22.8173 9.87486 21.2193 10.2319 19.5873L12.7309 20.4883ZM5.25086 22.1203C8.59986 21.8313 7.54586 24.4833 6.10086 23.7013C5.98186 23.1573 5.50586 22.5453 5.11486 22.2393L5.25086 22.1203ZM6.21986 20.4543C6.15186 20.6583 5.93086 20.8113 5.55686 20.7943C4.43486 22.5113 2.90486 23.6333 1.39186 24.3133L1.22186 24.1433C2.17386 23.1063 3.14286 21.4063 3.66986 19.5873L6.21986 20.4543ZM7.06986 39.3693C7.00186 39.6073 6.81486 39.7603 6.40686 39.7603C5.40386 43.6533 3.75486 46.4073 1.34086 48.2263L1.13686 48.0903C2.63286 45.8123 3.87386 42.3613 4.26486 38.7573L7.06986 39.3693ZM7.66486 41.8513L8.73586 40.7293L10.6229 42.4293C10.5039 42.6163 10.3339 42.6673 9.92586 42.7183C9.17786 47.8013 7.47786 52.4253 1.23886 54.7033L1.08586 54.5163C5.69286 51.8303 7.35886 47.0873 7.86886 41.8513H7.66486ZM3.80586 44.6393C8.85486 45.5913 6.98486 49.2973 5.14886 47.8013C5.04686 46.7303 4.38386 45.5233 3.66986 44.7583L3.80586 44.6393ZM8.65086 41.8513V42.3443H4.75786L4.87686 41.8513H8.65086ZM12.8669 44.0783C18.9869 45.4553 17.5419 49.6713 15.4169 48.2773C14.9579 46.8663 13.7339 45.2683 12.7139 44.1973L12.8669 44.0783ZM13.7679 39.1143C13.7339 39.3523 13.6149 39.5223 13.1389 39.5903V54.1253C13.1389 54.3123 12.2889 54.7203 11.5239 54.7203H11.1159V38.8423L13.7679 39.1143ZM4.02686 59.3383V59.8143H1.23886L1.08586 59.3383H4.02686ZM9.09286 58.3353C9.09286 58.3353 9.90886 59.0493 10.3849 59.5423C10.3509 59.7293 10.1809 59.8143 9.94286 59.8143H6.57686L6.44086 59.3383H8.36186L9.09286 58.3353ZM8.29386 57.8593C8.27686 58.0463 8.15786 58.1993 7.80086 58.2333V60.5963C7.80086 60.7153 7.01886 60.9873 6.37286 60.9873H6.06686V57.6553L8.29386 57.8593ZM5.50586 57.8593C5.47186 58.0633 5.35286 58.1993 4.97886 58.2503V60.6643C4.97886 60.7833 4.23086 61.0553 3.60186 61.0553H3.27886V57.6553L5.50586 57.8593ZM5.19986 64.4043C8.54886 64.8973 6.78086 67.1923 5.52286 66.0873C5.50586 65.5263 5.26786 64.8803 5.02986 64.4723L5.19986 64.4043ZM7.90286 61.6503L8.53186 61.0043L9.87486 62.0243C9.78986 62.1093 9.60286 62.2113 9.34786 62.2623V64.2683C9.34786 64.3873 8.66786 64.6593 8.25986 64.6593H8.03886V61.6503H7.90286ZM5.84586 61.0213L7.37586 61.6503H7.15486V64.3533C7.15486 64.4553 6.74686 64.7613 6.08386 64.7613H5.84586V61.0213ZM8.65086 63.6903V64.1663H6.47486V63.6903H8.65086ZM8.65086 61.6503V62.1433H6.47486V61.6503H8.65086ZM3.78886 61.6503L4.41786 61.0213L5.72686 62.0073C5.65886 62.1093 5.45486 62.2113 5.21686 62.2453V64.3533C5.21686 64.4553 4.55386 64.7273 4.12886 64.7273H3.92486V61.6503H3.78886ZM1.73186 61.0383L3.24486 61.6503H3.02386V64.5233C3.02386 64.6083 2.61586 64.9313 1.95286 64.9313H1.73186V61.0383ZM4.92786 65.2033C4.85986 65.4073 4.65586 65.5603 4.28186 65.5263C3.51686 67.1923 2.46286 68.6543 1.28986 69.6063L1.06886 69.4363C1.76586 68.2293 2.46286 66.3593 2.85386 64.5403L4.92786 65.2033ZM7.03586 66.3933V72.1223H5.42086V66.3933H7.03586ZM4.07786 73.1253C4.07786 73.2443 3.55086 73.6353 2.70086 73.6353H2.41186V67.4303L3.46586 65.9513L4.29886 66.2743H4.07786V73.1253ZM8.51486 70.8303C8.51486 70.8303 9.46686 71.5273 10.0449 72.0713C9.99386 72.2583 9.82386 72.3433 9.58586 72.3433H2.97286V71.8503H7.69886L8.51486 70.8303ZM8.10686 69.0113C8.10686 69.0113 8.95686 69.6573 9.46686 70.1503C9.43286 70.3373 9.27986 70.4223 9.04186 70.4223H2.95586V69.9463H7.35886L8.10686 69.0113ZM8.08986 67.1583C8.08986 67.1583 8.93986 67.8043 9.46686 68.2973C9.43286 68.4843 9.26286 68.5693 9.04186 68.5693H2.95586V68.0763H7.35886L8.08986 67.1583ZM8.39586 65.2883C8.39586 65.2883 9.27986 65.9853 9.85786 66.4783C9.80686 66.6653 9.63686 66.7503 9.39886 66.7503H3.00686V66.2743H7.59686L8.39586 65.2883ZM4.51986 63.6903V64.1663H2.37786V63.6903H4.51986ZM4.51986 61.6503V62.1433H2.37786V61.6503H4.51986ZM12.6799 67.2773C12.5779 70.5753 11.6259 72.5473 8.29386 73.6863L8.20886 73.4653C10.6229 71.9353 10.9459 70.0653 10.9289 67.2773H12.6799ZM14.9069 67.2943C14.9069 67.4813 14.9069 67.7023 14.9069 67.8213V71.4593C14.9069 71.6463 14.9409 71.7143 15.1279 71.7143H15.4169C15.5529 71.7143 15.6379 71.7143 15.7229 71.7143C15.8419 71.6973 15.8929 71.6803 15.9779 71.5443C16.0969 71.3233 16.3179 70.5413 16.5389 69.7253H16.7259L16.7939 71.5953C17.1849 71.7993 17.2529 72.0033 17.2529 72.3093C17.2529 72.9043 16.7259 73.2273 15.2299 73.2273H14.5159C13.3259 73.2273 13.1899 72.8363 13.1899 71.8333V67.2943H14.9069ZM10.0449 57.9613L11.9999 58.7093H14.1589L15.0599 57.6723L16.7599 59.0153C16.6409 59.1683 16.4709 59.2873 16.0799 59.3383V67.6513C16.0799 67.7363 15.4679 68.1103 14.5499 68.1103H14.2439V59.2023H11.7959V67.9233C11.7959 68.0593 11.2689 68.3993 10.3679 68.3993H10.0449V57.9613ZM15.2469 67.1583V67.6513H10.8099V67.1583H15.2469ZM15.2469 64.4383V64.9143H10.8099V64.4383H15.2469ZM15.2469 61.7353V62.2283H10.8099V61.7353H15.2469ZM8.71229 91.4623C6.34929 91.4623 5.00629 90.4423 4.78529 88.6403C4.95529 88.1643 5.34629 87.9433 5.73729 87.9433C6.33229 87.9433 6.68929 88.2493 6.84229 89.2183L7.19929 90.9693L6.40029 90.4593C6.92729 90.7313 7.35229 90.8843 7.99829 90.8843C9.80029 90.8843 10.8033 89.8473 10.8033 87.9603C10.8033 86.0053 9.85129 84.9343 8.01529 84.9343H7.30129V84.2883H7.93029C9.47729 84.2883 10.5313 83.3533 10.5313 81.3983C10.5313 79.7493 9.74929 78.8823 8.38929 78.8823C7.86229 78.8823 7.31829 79.0013 6.67229 79.2903L7.62429 78.8313L7.25029 80.5143C7.09729 81.2793 6.65529 81.5343 6.12829 81.5343C5.75429 81.5343 5.44829 81.3473 5.27829 81.0413C5.41429 79.1203 7.09729 78.3213 9.01829 78.3213C11.5343 78.3213 12.8093 79.5623 12.8093 81.3133C12.8093 83.0473 11.6363 84.4073 8.72929 84.6963V84.4583C11.9763 84.6283 13.1833 85.9883 13.1833 87.9773C13.1833 90.0513 11.4493 91.4623 8.71229 91.4623ZM3.16783 110.173V109.629L5.76883 109.374H6.00683V110.173H3.16783ZM4.74883 110.173C4.79983 108.269 4.79983 106.28 4.79983 104.07V103.543C4.79983 101.503 4.79983 99.5483 4.74883 97.5933H7.26483C7.21383 99.5143 7.21383 101.503 7.21383 103.543V104.07C7.21383 106.246 7.21383 108.218 7.26483 110.173H4.74883ZM6.00683 110.173V109.578H8.21683C10.9708 109.578 12.5008 107.453 12.5008 103.883C12.5008 100.177 10.9708 98.2053 8.31883 98.2053H6.00683V97.5933H8.55683C12.6028 97.5933 14.9998 99.9393 14.9998 103.866C14.9998 107.776 12.4668 110.173 8.28483 110.173H6.00683ZM3.16783 98.1543V97.5933H6.00683V98.3753H5.76883L3.16783 98.1543ZM10.1639 130.193C10.1469 130.295 9.53486 130.686 8.46386 130.686H8.08986V120.724H10.1639V130.193ZM7.10386 123.903C7.01886 124.09 6.86586 124.209 6.45786 124.175C5.42086 125.892 3.68686 127.949 1.39186 129.224L1.25586 129.054C2.80286 127.303 4.02686 124.617 4.51986 122.73L7.10386 123.903ZM11.6939 123.036C18.4599 125.229 17.0489 129.904 14.8389 128.357C14.3459 126.589 12.8669 124.532 11.5239 123.138L11.6939 123.036ZM14.8559 119.092C14.8559 119.092 16.2159 120.129 17.0489 120.826C16.9979 121.013 16.8109 121.098 16.5559 121.098H1.30686L1.17086 120.605H13.6489L14.8559 119.092ZM13.2579 115.199C13.2579 115.199 14.5839 116.168 15.3829 116.865C15.3319 117.052 15.1449 117.137 14.8899 117.137H3.26186L3.12586 116.661H12.0849L13.2579 115.199ZM7.59686 145.181C7.56286 145.419 7.40986 145.555 7.06986 145.606V147.391C7.06986 147.612 7.13786 147.663 7.78386 147.663H9.85786C10.6229 147.663 11.3029 147.663 11.5749 147.646C11.8469 147.629 11.9319 147.578 12.0509 147.408C12.2549 147.153 12.4929 146.558 12.8159 145.674H12.9859L13.0369 147.476C13.5979 147.646 13.7339 147.867 13.7339 148.207C13.7339 149.006 12.9859 149.278 9.67086 149.278H7.46086C5.62486 149.278 5.21686 149.006 5.21686 147.765V144.994L7.59686 145.181ZM7.22286 133.638C11.4729 133.196 10.4189 136.562 8.63386 135.678C8.39586 134.964 7.71586 134.182 7.10386 133.757L7.22286 133.638ZM13.5299 136.596C13.4619 136.783 13.2579 136.936 12.8839 136.902C12.2719 137.395 11.3029 138.092 10.4699 138.568H10.2489C10.5039 137.803 10.8099 136.647 10.9629 135.865L13.5299 136.596ZM5.47186 136.052C9.46686 136.341 7.73286 139.282 6.15186 138.092C6.10086 137.395 5.69286 136.613 5.31886 136.154L5.47186 136.052ZM5.86286 144.433C5.86286 144.603 4.99586 145.011 4.19686 145.011H3.92486V139.078L5.96486 139.877H12.8839V140.37H5.86286V144.433ZM12.1189 139.877L13.0199 138.891L14.9409 140.336C14.8389 140.472 14.6009 140.608 14.2439 140.693V144.297C14.2269 144.416 13.2749 144.824 12.6119 144.824H12.2889V139.877H12.1189ZM13.2239 143.719V144.212H4.97886V143.719H13.2239ZM13.2239 141.798V142.291H4.97886V141.798H13.2239ZM15.0429 137.038C15.0429 137.038 16.2329 137.922 16.9639 138.551C16.9129 138.738 16.7429 138.823 16.4879 138.823H1.51086L1.37486 138.33H13.9719L15.0429 137.038ZM13.9719 134.25C13.9719 134.25 15.1619 135.134 15.8929 135.763C15.8419 135.95 15.6719 136.035 15.4339 136.035H2.63286L2.49686 135.542H12.9179L13.9719 134.25ZM3.78886 144.994C4.48586 147 3.75486 148.394 2.88786 148.819C2.29286 149.108 1.54486 148.955 1.34086 148.343C1.18786 147.765 1.54486 147.323 2.05486 147.085C2.73486 146.796 3.51686 145.98 3.55086 144.994H3.78886ZM13.5809 144.994C18.3069 146.065 16.7769 149.601 15.0599 148.292C14.9579 147.17 14.2099 145.895 13.4109 145.113L13.5809 144.994ZM8.22586 144.501C12.3229 144.96 10.9119 148.037 9.34786 146.932C9.22886 146.099 8.63386 145.164 8.07286 144.62L8.22586 144.501ZM10.8099 155.545H10.6569L11.4219 154.746L13.0539 155.953C12.9689 156.055 12.7819 156.174 12.4929 156.225V157.908C12.4929 158.027 11.6259 158.316 11.0989 158.316H10.8099V155.545ZM5.60786 155.545V154.865L7.35886 155.545H11.6769V156.038H7.27386V158.01C7.27386 158.146 6.50886 158.503 5.82886 158.503H5.60786V155.545ZM6.44086 157.33H11.6939V157.806H6.44086V157.33ZM9.67086 161.699H9.56886L10.1129 161.155L11.2519 162.022C11.2009 162.107 11.0139 162.209 10.8269 162.243V164.181C10.8099 164.283 10.2149 164.538 9.85786 164.538H9.67086V161.699ZM7.32486 161.699V161.189L8.53186 161.699H10.4019V162.175H8.46386V164.266C8.46386 164.368 7.95386 164.623 7.49486 164.623H7.32486V161.699ZM7.83486 163.484H10.2659V163.96H7.83486V163.484ZM11.5409 160.322H11.3879L12.1189 159.523L13.6659 160.713C13.5809 160.815 13.3769 160.934 13.1219 160.985V165.898C13.1049 166.034 12.3059 166.34 11.7959 166.34H11.5409V160.322ZM5.04686 160.322V159.642L6.71286 160.322H12.5439V160.798H6.61086V166.102C6.61086 166.272 5.93086 166.612 5.28486 166.612H5.04686V160.322ZM5.65886 165.082H12.4929V165.558H5.65886V165.082ZM8.17486 157.33H9.85786V159.285H8.17486V157.33ZM4.23086 158.945H11.7619L12.6119 157.942C12.6119 157.942 13.5469 158.639 14.1419 159.166C14.1079 159.353 13.9379 159.438 13.6999 159.438H4.36686L4.23086 158.945ZM3.10886 167.02H15.2129V167.496H3.10886V167.02ZM14.3289 153.913H14.1589L15.0939 152.876L16.9299 154.338C16.8109 154.491 16.5729 154.627 16.2329 154.712V167.955C16.1989 168.108 15.3149 168.567 14.6179 168.567H14.3289V153.913ZM1.95286 153.913V153.063L3.97586 153.913H15.0769V154.389H3.82286V168.006C3.82286 168.261 3.09186 168.72 2.27586 168.72H1.95286V153.913ZM7.64786 182.263L7.42686 181.753C8.66786 181.141 9.34786 180.563 9.61986 179.288L9.84086 179.883C8.32786 179.322 7.66486 178.71 7.66486 177.911C7.66486 177.095 8.31086 176.449 9.17786 176.449C9.68786 176.449 10.0449 176.568 10.4189 176.891C10.6229 177.384 10.6739 177.707 10.6739 178.217C10.6739 180.308 9.51786 181.719 7.64786 182.263ZM14.1759 193.613L15.2469 192.559L17.0999 194.31C16.9639 194.446 16.7939 194.497 16.4369 194.514C15.8249 195.092 14.7539 195.874 13.9379 196.333L13.7679 196.214C14.0059 195.483 14.2609 194.31 14.3629 193.613H14.1759ZM3.49986 192.61C4.31586 194.667 3.83986 196.112 2.98986 196.639C2.42886 197.03 1.45986 196.826 1.20486 196.095C1.00086 195.398 1.40886 194.854 2.00386 194.565C2.58186 194.276 3.31286 193.477 3.27886 192.61H3.49986ZM15.0769 193.613V194.106H3.32986V193.613H15.0769ZM7.57986 190.774C12.5609 190.825 10.6059 194.752 8.61686 193.273C8.58286 192.389 8.10686 191.42 7.46086 190.876L7.57986 190.774ZM11.7959 199.325C11.7959 199.529 11.7959 199.767 11.7959 199.92V204.068C11.7959 204.306 11.8639 204.391 12.3739 204.391H13.8359C14.3459 204.391 14.8219 204.374 15.0599 204.374C15.2809 204.357 15.3659 204.306 15.4679 204.119C15.6719 203.83 15.9269 202.997 16.2669 201.943H16.4539L16.4879 204.221C17.0489 204.425 17.1679 204.663 17.1679 205.054C17.1679 205.853 16.4539 206.244 13.6319 206.244H11.9149C10.1639 206.244 9.80686 205.887 9.80686 204.544V199.325H11.7959ZM8.02186 199.342C7.74986 202.708 7.15486 205.343 1.22186 206.703L1.08586 206.482C5.38686 204.561 5.72686 202.113 5.84586 199.342H8.02186ZM11.9999 195.194C11.9999 195.194 13.1559 196.044 13.8869 196.656C13.8359 196.843 13.6489 196.928 13.4109 196.928H4.45186L4.31586 196.452H10.9799L11.9999 195.194ZM14.7369 197.931C14.7369 197.931 15.9439 198.832 16.6749 199.444C16.6239 199.631 16.4539 199.716 16.2159 199.716H1.95286L1.81686 199.24H13.6829L14.7369 197.931ZM2.27586 212.426H12.6289L13.8529 210.862C13.8529 210.862 15.2299 211.916 16.0799 212.63C16.0289 212.817 15.8249 212.902 15.5699 212.902H2.41186L2.27586 212.426ZM1.15386 223.833H13.6489L14.8899 222.252C14.8899 222.252 16.2839 223.306 17.1169 224.037C17.0659 224.224 16.8789 224.309 16.6239 224.309H1.28986L1.15386 223.833ZM7.97086 212.426H10.1639V224.02H7.97086V212.426ZM12.9859 230.644L13.8529 229.709L15.6549 231.086C15.5529 231.205 15.3149 231.341 14.9919 231.409V235.659C14.9749 235.778 14.0569 236.118 13.4619 236.118H13.1559V230.644H12.9859ZM12.2719 229.012C12.2379 229.25 12.1019 229.42 11.6429 229.488V241.609C11.6429 241.762 10.8609 242.119 10.1129 242.119H9.73886V228.757L12.2719 229.012ZM14.2099 235.999C14.2099 235.999 15.3149 236.883 15.9609 237.478C15.9099 237.665 15.7399 237.75 15.5019 237.75H7.06986L6.93386 237.274H13.2579L14.2099 235.999ZM14.7539 238.175C14.7539 238.175 15.9779 239.093 16.7259 239.739C16.6749 239.926 16.4879 240.011 16.2499 240.011H6.27086L6.13486 239.535H13.6829L14.7539 238.175ZM15.9269 231.528C15.9269 231.528 16.8449 232.446 17.3549 233.041C17.3039 233.228 17.1339 233.313 16.8959 233.313H5.99886L5.86286 232.82H15.1109L15.9269 231.528ZM13.9209 235.047V235.54H7.25686L7.10386 235.047H13.9209ZM13.9719 230.644V231.12H7.08686L6.93386 230.644H13.9719ZM6.03286 231.137C5.55686 232.242 4.36686 234.775 3.72086 235.999H3.83986L3.22786 236.611L1.56186 235.54C1.79986 235.353 2.24186 235.132 2.58186 235.064L1.95286 235.591C2.64986 234.384 3.87386 231.698 4.29886 230.491L6.03286 231.137ZM4.07786 230.491L4.92786 229.641L6.62786 231.171C6.32186 231.494 5.33586 231.511 4.50286 231.375L4.29886 230.491H4.07786ZM1.90186 236.917C3.63586 241.643 6.76386 242.374 13.0879 242.374C13.9719 242.374 16.0119 242.374 17.0659 242.357V242.544C16.3009 242.714 15.9269 243.411 15.8759 244.193C15.1959 244.193 13.6319 244.193 12.9349 244.193C6.37286 244.193 3.31286 243.071 1.71486 237.002L1.90186 236.917ZM4.70686 235.523L5.64186 234.537L7.34186 235.982C7.22286 236.152 7.06986 236.22 6.69586 236.254C6.21986 239.688 5.01286 242.884 1.11986 244.686L0.983863 244.482C3.80586 242.391 4.63886 239.025 4.89386 235.523H4.70686ZM5.77786 235.523V236.016H2.61586L2.85386 235.523H5.77786ZM5.14886 230.491V230.984H1.28986L1.13686 230.491H5.14886ZM8.95686 247.74L11.5409 248.505C11.4729 248.726 11.2689 248.862 10.8609 248.862C9.90886 251.616 8.44686 253.554 6.49186 254.795L6.30486 254.642C7.51186 252.993 8.54886 250.443 8.95686 247.74ZM10.2149 251.072H12.1359C11.3369 254.268 9.41586 257.277 6.57686 259.181L6.42386 258.994C8.44686 256.886 9.84086 253.826 10.2149 251.072ZM12.4759 251.072H14.5669C13.8189 255.764 11.7279 260.065 7.12086 262.598L6.96786 262.428C10.4359 259.504 12.1019 255.288 12.4759 251.072ZM14.6349 251.072H14.4309L15.4849 249.967L17.3039 251.565C17.1679 251.701 16.9299 251.82 16.5219 251.888C16.3009 258.297 15.8589 261.595 14.8049 262.632C14.1589 263.261 13.3939 263.55 12.2379 263.533C12.2379 262.904 12.1529 262.411 11.8639 262.139C11.5409 261.816 10.8439 261.561 10.0109 261.374V261.153C10.8779 261.221 12.1359 261.323 12.5779 261.323C12.9179 261.323 13.0879 261.255 13.2919 261.068C14.0399 260.439 14.4309 256.784 14.6349 251.072ZM8.93986 251.072H15.3319V251.548H8.71886L8.93986 251.072ZM3.97586 247.74L6.45786 247.995C6.40686 248.233 6.28786 248.403 5.82886 248.471V263.142C5.82886 263.312 5.06386 263.686 4.34986 263.686H3.97586V247.74ZM1.83386 248.93L4.16286 249.372C4.11186 249.593 3.92486 249.746 3.55086 249.78C3.10886 251.871 2.39486 253.809 1.34086 255.118L1.08586 254.999C1.52786 253.333 1.79986 251.021 1.83386 248.93ZM1.08586 256.937C2.22486 256.716 5.16586 255.968 8.02186 255.152L8.07286 255.356C6.86586 256.155 4.99586 257.311 2.36086 258.722C2.29286 258.926 2.12286 259.113 1.93586 259.181L1.08586 256.937ZM2.49686 251.854H5.91386L6.78086 250.477C6.78086 250.477 7.74986 251.446 8.29386 252.058C8.25986 252.245 8.08986 252.33 7.85186 252.33H2.49686V251.854ZM3.14286 267.709L5.79486 267.913C5.77786 268.151 5.65886 268.321 5.18286 268.389L5.35286 278.691L3.32986 279.354L3.14286 267.709ZM6.96786 269.664C12.5779 271.262 10.9799 275.223 8.97386 273.778C8.65086 272.418 7.64786 270.871 6.81486 269.766L6.96786 269.664ZM12.2719 277.348C18.7999 279.167 17.4569 283.57 15.2469 282.176C14.6689 280.595 13.2579 278.742 12.1019 277.467L12.2719 277.348ZM0.983863 279.116C2.56486 278.827 6.20286 277.892 9.58586 276.838L9.63686 277.042C8.05586 278.062 5.82886 279.388 2.51386 280.952C2.42886 281.156 2.25886 281.343 2.07186 281.411L0.983863 279.116ZM13.2069 267.76L16.0459 268.015C16.0119 268.287 15.8079 268.474 15.3999 268.525C15.0939 275.376 14.6519 280.034 4.91086 282.703L4.77486 282.431C12.7649 278.793 13.0879 274.475 13.2069 267.76ZM7.03586 288.919H6.47486L6.66186 288.851C6.57686 289.769 6.32186 291.588 6.13486 292.506H6.25386L5.74386 293.135L4.02686 292.234C4.23086 292.013 4.60486 291.775 4.87686 291.656L4.41786 292.285C4.62186 291.367 4.87686 289.259 4.92786 288.171L7.03586 288.919ZM9.53486 298.915C18.7999 299.153 15.5529 302.621 13.8189 301.295C13.0199 300.598 11.5919 299.731 9.48386 299.153L9.53486 298.915ZM9.17786 300.105C9.00786 300.275 8.68486 300.343 8.19186 300.207C6.72986 300.853 4.26486 301.431 2.02086 301.669L1.95286 301.431C3.87386 300.802 6.08386 299.578 7.15486 298.677L9.17786 300.105ZM6.08386 298.762C6.08386 298.932 5.23386 299.357 4.43486 299.357H4.14586V292.676L6.21986 293.492H13.6829V293.968H6.08386V298.762ZM11.8809 293.492L12.7479 292.557L14.5329 293.917C14.4479 294.036 14.2779 294.155 14.0059 294.189V298.558C13.9889 298.694 13.0199 299.051 12.3739 299.051H12.0339V293.492H11.8809ZM13.4789 298.099V298.575H5.09786V298.099H13.4789ZM13.5639 296.535V297.028H5.16586V296.535H13.5639ZM13.3089 295.039V295.515H4.92786V295.039H13.3089ZM10.1129 288.919C10.0449 289.871 9.90886 291.401 9.78986 292.268H8.05586C8.17486 291.367 8.32786 289.82 8.36186 288.919H10.1129ZM11.7789 288.919L12.4929 288.035L14.3459 289.378C14.2269 289.531 13.9889 289.65 13.6319 289.701C13.5809 290.432 13.4619 291.775 13.3429 292.71C12.9179 292.931 12.3569 293.016 11.5409 292.88C11.7279 291.622 11.8809 289.905 11.9489 288.919H11.7789ZM12.3909 292.03V292.506H5.01286V292.03H12.3909ZM12.8669 288.919V289.412H5.57386V288.919H12.8669ZM15.2299 289.463C15.2299 289.463 16.2669 290.194 16.9299 290.738C16.8789 290.925 16.7089 291.01 16.4709 291.01H1.44286L1.30686 290.517H14.2949L15.2299 289.463ZM8.03886 285.774C12.0509 285.655 10.1129 288.783 8.44686 287.44C8.53186 286.862 8.29386 286.199 7.91986 285.876L8.03886 285.774ZM14.2779 287.576L15.2469 286.59L16.9639 288.222C16.8449 288.375 16.6579 288.409 16.3179 288.426C15.8249 288.885 14.9579 289.463 14.3119 289.803L14.1419 289.684C14.2609 289.106 14.4139 288.137 14.4649 287.576H14.2779ZM3.61886 286.743C4.31586 288.46 3.87386 289.684 3.14286 290.075C2.61586 290.347 1.88486 290.177 1.69786 289.565C1.54486 289.004 1.90186 288.562 2.41186 288.341C2.92186 288.103 3.44886 287.423 3.38086 286.743H3.61886ZM15.3999 287.576V288.069H3.39786V287.576H15.3999ZM8.19186 311.676H14.5669V312.169H8.19186V311.676ZM2.70086 305.097C7.46086 305.301 6.25386 308.837 4.36686 307.8C4.07786 306.882 3.26186 305.845 2.56486 305.216L2.70086 305.097ZM1.18786 308.803C5.79486 308.99 4.48586 312.458 2.70086 311.37C2.46286 310.469 1.71486 309.5 1.05186 308.922L1.18786 308.803ZM2.02086 315.433C2.29286 315.433 2.36086 315.433 2.58186 315.093C3.02386 314.447 3.02386 314.447 6.66186 307.681L6.93386 307.766C6.11786 309.84 4.63886 313.631 4.36686 314.515C4.17986 315.076 4.02686 315.688 4.02686 316.113C4.06086 317.014 4.75786 317.592 4.70686 319.037C4.67286 319.87 4.09486 320.448 3.24486 320.448C2.83686 320.448 2.46286 320.193 2.30986 319.564C2.61586 317.796 2.54786 316.3 2.12286 316.028C1.88486 315.875 1.57886 315.773 1.20486 315.739V315.433C1.20486 315.433 1.83386 315.433 2.02086 315.433ZM11.8979 311.795H13.7509C13.7509 311.999 13.7509 312.237 13.7509 312.39V318.085C13.7509 318.306 13.8019 318.391 14.1249 318.391H14.8389C15.1279 318.391 15.3489 318.391 15.4849 318.374C15.6209 318.374 15.6889 318.34 15.7739 318.17C15.9439 317.881 16.1989 316.895 16.4709 315.875H16.6579L16.7089 318.272C17.1679 318.493 17.2529 318.697 17.2529 319.071C17.2529 319.785 16.6409 320.176 14.6349 320.176H13.5469C12.1359 320.176 11.8979 319.785 11.8979 318.578V311.795ZM7.15486 306.236V305.437L9.24586 306.236H13.8529L14.8049 305.148L16.5899 306.525C16.4879 306.678 16.3179 306.797 15.9439 306.848V312.611C15.9439 312.713 15.2979 313.07 14.2779 313.07H13.9209V306.712H9.07586V312.883C9.07586 313.019 8.48086 313.359 7.49486 313.359H7.15486V306.236ZM8.71886 311.829H10.8269C10.6059 316.113 9.36486 319.122 4.72386 320.686L4.62186 320.482C8.00486 318.391 8.66786 315.535 8.71886 311.829ZM3.51686 323.893C8.22586 324.607 6.50886 328.143 4.72386 326.8C4.58786 325.797 3.97586 324.692 3.38086 323.978L3.51686 323.893ZM14.7879 333.226H14.6179L15.5869 332.308L17.3039 333.736C17.1849 333.855 16.9639 333.974 16.6239 334.008C16.3689 337 15.8589 338.564 14.9919 339.176C14.4479 339.55 13.7849 339.72 12.9349 339.72C12.9349 339.21 12.8839 338.751 12.6629 338.496C12.4079 338.207 11.9659 338.02 11.3369 337.884V337.646C11.8979 337.714 12.8329 337.765 13.1729 337.765C13.4449 337.765 13.5979 337.731 13.7509 337.612C14.1929 337.272 14.6009 335.742 14.7879 333.226ZM4.16286 334.773H4.38386C5.31886 337 4.62186 338.53 3.73786 339.04C3.10886 339.397 2.34386 339.227 2.10586 338.615C1.91886 338.02 2.27586 337.544 2.80286 337.289C3.49986 336.932 4.21386 335.946 4.16286 334.773ZM6.23686 334.756C9.51786 337.051 7.18886 339.805 5.93086 338.088C6.23686 337 6.21986 335.759 6.03286 334.807L6.23686 334.756ZM8.34486 334.586C12.3569 335.776 10.6059 338.785 9.12686 337.459C9.10986 336.507 8.65086 335.402 8.17486 334.688L8.34486 334.586ZM10.7079 334.297C14.7199 334.416 13.5809 337.476 11.9829 336.541C11.8129 335.776 11.1669 334.892 10.5719 334.416L10.7079 334.297ZM4.26486 333.226H15.3319V333.719H3.80586L4.26486 333.226ZM6.72986 330.37H13.8019V330.846H6.38986L6.72986 330.37ZM2.22486 327.565H12.7649V328.058H2.36086L2.22486 327.565ZM11.5919 327.565H11.4219L12.1529 326.783L13.8189 328.058C13.6999 328.194 13.5469 328.262 13.2239 328.279L12.7139 330.523H10.8779L11.5919 327.565ZM13.1729 330.37H13.0029L13.7169 329.588L15.3319 330.829C15.2129 330.965 15.0599 331.016 14.7709 331.067L14.3289 333.379H12.6119L13.1729 330.37ZM8.20886 323.638L10.8099 324.403C10.7419 324.607 10.5889 324.743 10.1299 324.726C8.73586 328.806 6.13486 333.685 1.11986 336.507L0.949863 336.337C4.92786 333.073 7.25686 327.803 8.20886 323.638ZM10.1129 342.876C14.1759 343.318 12.4079 346.31 10.8439 345.069C10.7929 344.321 10.3849 343.471 9.95986 342.978L10.1129 342.876ZM8.83786 352.09C8.83786 352.226 8.24286 352.668 7.25686 352.668H6.91686V346.769L8.29386 344.882L9.07586 345.171H8.83786V352.09ZM14.6179 343.879C14.6179 343.879 15.7909 344.763 16.4879 345.375C16.4369 345.562 16.2669 345.647 16.0289 345.647H7.61386V345.171H13.5979L14.6179 343.879ZM10.2319 343.709C10.1469 343.913 9.94286 344.066 9.55186 344.032C8.51486 346.225 7.03586 347.84 5.33586 348.86L5.14886 348.707C6.20286 347.313 7.20586 345.12 7.71586 342.859L10.2319 343.709ZM10.5719 352.464C10.5379 352.634 10.4359 352.787 10.0959 352.838V358.04C10.0959 358.193 9.17786 358.516 8.42986 358.516H8.05586V352.226L10.5719 352.464ZM12.5609 345.29V351.512H10.7079V345.29H12.5609ZM14.3629 345.97C14.3629 345.97 15.4169 346.786 16.0629 347.364C16.0119 347.551 15.8419 347.636 15.6039 347.636H7.47786V347.143H13.4449L14.3629 345.97ZM14.3799 347.976C14.3799 347.976 15.4169 348.826 16.0289 349.404C15.9949 349.591 15.8249 349.676 15.5869 349.676H7.47786V349.2H13.4619L14.3799 347.976ZM14.9579 349.982C14.9579 349.982 16.0969 350.883 16.7769 351.495C16.7259 351.682 16.5389 351.767 16.3009 351.767H7.22286V351.291H13.9549L14.9579 349.982ZM15.0259 352.481C15.0259 352.481 16.3009 353.433 17.0659 354.113C17.0319 354.3 16.8449 354.385 16.5899 354.385H1.32386L1.18786 353.892H13.8869L15.0259 352.481ZM2.63286 349.302C2.92186 349.302 2.98986 349.302 3.21086 349.03C3.60186 348.554 3.60186 348.554 6.47486 344.661L6.72986 344.763C6.16886 345.868 4.94486 348.197 4.72386 348.707C4.57086 349.098 4.41786 349.54 4.43486 349.88C4.45186 350.492 5.04686 350.934 4.99586 352.005C4.97886 352.651 4.50286 353.093 3.63586 353.093C3.27886 353.093 2.93886 352.838 2.81986 352.379C3.02386 351.053 2.97286 350.05 2.59886 349.846C2.37786 349.727 2.13986 349.659 1.81686 349.625V349.302C1.81686 349.302 2.42886 349.302 2.63286 349.302ZM1.69786 345.154C5.77786 345.12 4.48586 348.231 2.85386 347.245C2.68386 346.514 2.08886 345.715 1.56186 345.273L1.69786 345.154ZM3.15986 343.012C7.29086 342.91 6.13486 346.106 4.43486 345.171C4.23086 344.44 3.58486 343.59 3.02386 343.131L3.15986 343.012Z" fill="black"/>
</svg>
