<svg width="377" height="50" viewBox="0 0 377 50" fill="none" xmlns="http://www.w3.org/2000/svg">
<g clip-path="url(#clip0_2423_8954)">
<path d="M7.61807 18.6652C6.27832 18.0466 5.22754 18.3693 5.22754 18.3693V32.7588H9.48321V21.1934C9.48321 21.1934 9.58829 19.5796 7.61807 18.6383" fill="white"/>
<path d="M6.09453 8.47243C0.630461 7.55796 -1.20841 12.8296 0.788079 15.5192C2.33798 17.5633 4.46582 17.133 6.56738 17.3751C8.48506 17.5902 10.2977 18.7199 10.2977 20.8985C10.2977 24.4488 10.3239 31.7645 10.3239 32.7866H11.7162V16.2185C11.7162 16.2185 12.0052 9.46759 6.09453 8.47243Z" fill="white"/>
<path d="M19.3345 5.11027C19.3345 0.726197 14.8687 0 13.5552 0H13.4764C12.1104 0 7.64453 0.726197 7.64453 5.11027C7.64453 9.01022 12.7146 9.22539 12.7146 14.8736V32.7864H14.2645V14.8467C14.2645 9.19849 19.3608 9.01022 19.3608 5.08338" fill="white"/>
<path d="M20.8581 8.47197C14.9475 9.46713 15.2364 16.2181 15.2364 16.2181V32.7861H16.6287C16.6287 31.7641 16.6287 24.4483 16.6287 20.898C16.6287 18.7194 18.4413 17.5898 20.3853 17.3746C22.4868 17.1325 24.6147 17.5629 26.1383 15.5188C28.161 12.8561 26.2959 7.5575 20.8318 8.47197" fill="white"/>
<path d="M19.3605 18.6652C17.4166 19.6065 17.4691 21.2203 17.4691 21.2203V32.7857H21.7248V18.3693C21.7248 18.3693 20.674 18.0466 19.3605 18.6652Z" fill="white"/>
<path d="M9.50957 45.3745C9.746 45.2131 9.92989 45.0249 10.0612 44.8097C10.2451 44.5138 10.3239 44.1911 10.3239 43.8414C10.3239 43.4649 10.2189 43.1152 10.035 42.7925C9.82481 42.4428 9.53584 42.2008 9.19434 42.0663C8.85284 41.9049 8.37998 41.8242 7.82832 41.8242H4.99121V49.4896H7.85459C8.32745 49.4896 8.72149 49.4358 9.03672 49.3552C9.35196 49.2745 9.64092 49.14 9.87735 48.9786C10.0875 48.7903 10.2977 48.5483 10.429 48.2524C10.5866 47.9297 10.6654 47.58 10.6654 47.2303C10.6654 46.7731 10.5341 46.3697 10.2977 46.02C10.1138 45.7511 9.82481 45.5359 9.50957 45.4014M7.85459 48.36H6.19961V46.0738H7.72325C8.16983 46.0738 8.48506 46.1007 8.72149 46.2083C8.93164 46.2621 9.08926 46.3966 9.22061 46.5848C9.35196 46.7731 9.4045 46.9614 9.4045 47.2303C9.4045 47.4455 9.37823 47.6338 9.27315 47.7952C9.19434 47.9297 9.08926 48.0641 8.95791 48.1448C8.82657 48.1986 8.66895 48.2793 8.45879 48.3331C8.35371 48.36 8.14356 48.3869 7.82832 48.3869M8.93165 44.5676C8.82657 44.7021 8.66895 44.8097 8.45879 44.8904C8.27491 44.9442 7.98594 44.9442 7.5919 44.9442H6.17334V42.9808H7.48682C7.98594 42.9808 8.35371 43.0077 8.5376 43.0883C8.72149 43.1421 8.85284 43.2497 8.95791 43.4111C9.06299 43.5994 9.11553 43.7876 9.11553 44.0028C9.11553 44.218 9.06299 44.4331 8.95791 44.5676" fill="white"/>
<path d="M17.2066 46.2083C17.2066 47.0959 17.049 47.7145 16.7863 48.0103C16.5236 48.3062 16.0508 48.4676 15.394 48.4676C15 48.4676 14.6848 48.3869 14.4221 48.2524C14.1594 48.091 13.9755 47.9028 13.8704 47.6069C13.7653 47.311 13.7128 46.8538 13.7128 46.2352V41.8242H12.5044V46.2352C12.5044 47.0421 12.5832 47.6876 12.7671 48.1448C12.9772 48.629 13.2925 49.0055 13.7391 49.2476C14.1856 49.4896 14.7636 49.6241 15.4466 49.6241C16.1296 49.6241 16.7601 49.4896 17.2066 49.1938C17.6532 48.8979 17.9685 48.5214 18.1523 48.0641C18.31 47.6069 18.415 47.0152 18.415 46.2352V41.8242H17.2066V46.2352V46.2083Z" fill="white"/>
<path d="M21.8563 41.8242H20.6479V49.4896H21.8563V41.8242Z" fill="white"/>
<path d="M25.1925 41.8242H23.9841V49.4896H28.7389V48.36H25.1925V41.8242Z" fill="white"/>
<path d="M35.3851 42.4966C35.0698 42.2277 34.7021 42.0394 34.2817 41.9318C33.9665 41.8511 33.5199 41.8242 32.9683 41.8242H30.3413V49.4896H33.0733C33.5199 49.4896 33.914 49.4358 34.2555 49.3552C34.597 49.2745 34.9122 49.14 35.1486 48.9517C35.4113 48.7903 35.6215 48.5483 35.8316 48.2524C36.0418 47.9565 36.1994 47.58 36.3308 47.1228C36.4621 46.6655 36.5409 46.1814 36.5409 45.5897C36.5409 44.9173 36.4358 44.3256 36.252 43.7876C36.0681 43.2766 35.7528 42.8194 35.3588 42.4697M31.5497 42.927H32.9157C33.4674 42.927 33.8614 42.9808 34.0979 43.0614C34.4394 43.1959 34.7021 43.4649 34.9385 43.8414C35.1749 44.218 35.3063 44.8097 35.3063 45.5628C35.3063 46.1007 35.2274 46.5579 35.1224 46.9614C34.991 47.311 34.8334 47.6338 34.6232 47.8221C34.4656 47.9834 34.2817 48.091 34.019 48.1717C33.7564 48.2524 33.4148 48.3062 32.942 48.3062H31.5497V42.927Z" fill="white"/>
<path d="M44.5532 41.8242H43.3448L40.4814 49.4896H41.7687L42.5567 47.2303H45.3676L46.2082 49.4896H47.5742L44.5532 41.9049V41.8242ZM44.9735 46.2083H42.9245L43.6601 44.218C43.7651 43.8952 43.8702 43.5994 43.949 43.2766C44.0541 43.5725 44.1855 43.949 44.3168 44.3256L44.9998 46.2083H44.9735Z" fill="white"/>
<path d="M56.7948 42.4966C56.4796 42.2277 56.1118 42.0394 55.6915 41.9318C55.3763 41.8511 54.956 41.8242 54.378 41.8242H51.7773V49.4896H54.5094C54.956 49.4896 55.35 49.4358 55.6915 49.3552C56.033 49.2745 56.3483 49.14 56.5847 48.9517C56.8211 48.7903 57.0575 48.5483 57.2677 48.2524C57.4778 47.9565 57.6355 47.58 57.7931 47.1228C57.9244 46.6655 58.0032 46.1814 58.0032 45.5897C58.0032 44.9173 57.8982 44.3256 57.7143 43.7876C57.5041 43.2766 57.2151 42.8194 56.8211 42.4697M53.012 42.927H54.4043C54.956 42.927 55.35 42.9808 55.5864 43.0614C55.9017 43.1959 56.1906 43.4649 56.4271 43.8414C56.6635 44.218 56.7686 44.8097 56.7686 45.5628C56.7686 46.1007 56.716 46.5579 56.5847 46.9614C56.4533 47.311 56.2957 47.6338 56.0856 47.8221C55.9279 47.9834 55.7441 48.091 55.4814 48.1717C55.2187 48.2524 54.8772 48.3062 54.4043 48.3062H52.9857V42.927H53.012Z" fill="white"/>
<path d="M64.3079 46.2621C64.3079 46.2621 64.124 46.1276 64.019 46.0738C64.5443 45.9393 64.9647 45.7242 65.2536 45.4014C65.5951 45.0249 65.779 44.5407 65.779 43.9759C65.779 43.5456 65.6739 43.1421 65.4638 42.7925C65.2536 42.4159 64.9647 42.1739 64.5969 42.0394C64.2554 41.9049 63.73 41.8242 63.0995 41.8242H59.7896V49.4896H60.9979V46.2083H61.9699C62.2589 46.2083 62.3902 46.2083 62.469 46.2352C62.6004 46.289 62.7317 46.3428 62.8631 46.4235C62.9944 46.5042 63.1258 46.6655 63.3097 46.9076C63.4936 47.1228 63.7037 47.4724 63.9927 47.9297L64.9909 49.5165H66.4883L65.1223 47.2841C64.8596 46.8807 64.5969 46.5579 64.3079 46.2621ZM64.3867 44.5676C64.2816 44.7559 64.124 44.8904 63.8876 44.9442C63.6512 45.0249 63.3359 45.0787 62.9156 45.0787H60.9979V42.9001H63.1258C63.6249 42.9001 63.9927 43.0076 64.2028 43.1959C64.413 43.3842 64.5181 43.6532 64.5181 43.949C64.5181 44.1642 64.4655 44.3525 64.3342 44.5407" fill="white"/>
<path d="M69.0102 46.1007H72.9769V44.9711H69.0102V42.9539H73.2658V41.8242H67.8018V49.4896H73.4234V48.36H69.0102V46.1007Z" fill="white"/>
<path d="M78.4409 41.8242H77.2325L74.3691 49.4896H75.6563L76.4444 47.2303H79.2816L80.1222 49.4896H81.4882L78.4672 41.9049V41.8242H78.4409ZM78.8612 46.2083H76.7859L77.4952 44.218C77.6003 43.8952 77.7054 43.5994 77.7842 43.2766C77.8893 43.5725 77.9943 43.949 78.152 44.3256L78.835 46.2083H78.8612Z" fill="white"/>
<path d="M86.532 47.069C86.427 47.3648 86.3482 47.6338 86.2693 47.849C86.2168 47.6607 86.138 47.4186 86.0592 47.1497L84.3254 41.8242H82.6704V49.4896H83.8525V43.8683L85.6914 49.4089V49.5165H86.7422L88.6073 43.9759V49.5165H89.7895V41.8511H88.2921L86.532 47.0959V47.069Z" fill="white"/>
<path d="M92.9943 48.817H93.3884C93.3884 48.9784 93.3358 49.1128 93.3096 49.2204C93.257 49.328 93.152 49.4087 93.0206 49.4625L92.9155 49.5163L93.2308 50.0004H93.3096C93.546 49.8659 93.7299 49.7045 93.835 49.4894C93.94 49.3011 93.9926 49.0321 93.9926 48.7094V47.7949H92.9943V48.817Z" fill="white"/>
<path d="M103.423 45.3736C103.134 45.2391 102.609 45.0778 101.821 44.8895C100.901 44.6743 100.56 44.486 100.455 44.4054C100.297 44.2709 100.218 44.0826 100.218 43.8674C100.218 43.5985 100.35 43.3833 100.56 43.195C100.796 43.0068 101.19 42.8992 101.742 42.8992C102.294 42.8992 102.661 43.0068 102.924 43.2219C103.187 43.4371 103.318 43.7599 103.371 44.1902V44.3247L104.527 44.244V44.1095C104.527 43.6523 104.395 43.2219 104.159 42.8723C103.922 42.4957 103.581 42.2268 103.161 42.0385C102.74 41.8771 102.241 41.7695 101.69 41.7695C101.19 41.7695 100.744 41.8771 100.323 42.0385C99.9032 42.2268 99.5879 42.4688 99.3515 42.8185C99.1414 43.1681 99.0363 43.5447 99.0363 43.9212C99.0363 44.2709 99.1414 44.6205 99.299 44.9164C99.4829 45.2122 99.7456 45.4543 100.113 45.6426C100.402 45.804 100.849 45.9384 101.532 46.1267C102.189 46.2881 102.609 46.4226 102.793 46.4764C103.056 46.584 103.266 46.7184 103.371 46.8798C103.476 47.0412 103.555 47.2026 103.555 47.4177C103.555 47.6329 103.502 47.7943 103.371 47.9557C103.239 48.117 103.056 48.2515 102.819 48.3591C102.556 48.4667 102.241 48.5205 101.9 48.5205C101.506 48.5205 101.164 48.4667 100.849 48.3053C100.56 48.1708 100.323 47.9826 100.192 47.7943C100.061 47.5791 99.9557 47.2833 99.9032 46.9336V46.7991L98.7473 46.9067V47.0412C98.7736 47.5522 98.9049 48.0094 99.1676 48.4129C99.4303 48.8163 99.7981 49.1391 100.271 49.3543C100.718 49.5425 101.295 49.6501 101.952 49.6501C102.478 49.6501 102.95 49.5425 103.397 49.3543C103.817 49.1391 104.159 48.8701 104.395 48.4936C104.632 48.1439 104.737 47.7405 104.737 47.337C104.737 46.9336 104.632 46.5571 104.422 46.2074C104.211 45.8846 103.896 45.6157 103.45 45.4274" fill="white"/>
<path d="M107.889 41.8496H106.681V49.4881H107.889V41.8496Z" fill="white"/>
<path d="M114.798 47.3364L111.225 41.8496H110.043V49.4881H111.225V44.0013L114.772 49.4881H115.954V41.8496H114.798V47.3364Z" fill="white"/>
<path d="M123.152 46.7464C123.02 47.3381 122.784 47.7684 122.442 48.0643C122.101 48.3602 121.681 48.5215 121.182 48.5215C120.761 48.5215 120.393 48.4139 120.026 48.1988C119.684 47.9836 119.421 47.6609 119.238 47.2036C119.08 46.7733 118.975 46.2085 118.975 45.6167C118.975 45.1595 119.054 44.6754 119.185 44.245C119.316 43.8147 119.579 43.465 119.921 43.223C120.262 42.9809 120.682 42.8464 121.234 42.8464C121.681 42.8464 122.048 42.954 122.364 43.1692C122.653 43.4113 122.889 43.7878 123.047 44.2719V44.3795L124.281 44.0837L124.229 43.9492C124.045 43.2499 123.677 42.6851 123.152 42.3085C122.653 41.932 122.022 41.7168 121.26 41.7168C120.604 41.7168 119.999 41.8782 119.448 42.174C118.896 42.4699 118.476 42.9271 118.187 43.5188C117.898 44.1106 117.74 44.8099 117.74 45.5898C117.74 46.316 117.872 46.9884 118.108 47.6071C118.371 48.2526 118.765 48.7367 119.264 49.0595C119.763 49.4091 120.42 49.5705 121.208 49.5705C121.996 49.5705 122.653 49.3553 123.178 48.925C123.73 48.4946 124.097 47.8491 124.281 47.0153V46.8809L123.099 46.5581V46.6926L123.152 46.7464Z" fill="white"/>
<path d="M127.25 46.1261H131.217V44.9965H127.25V42.9792H131.506V41.8496H126.042V49.4881H131.663V48.3585H127.25V46.1261Z" fill="white"/>
<path d="M137.679 42.8195H138.966V49.6512H140.148V41.7168H137.679V42.8195Z" fill="white"/>
<path d="M146.032 41.582C145.271 41.582 144.614 41.851 144.088 42.362C143.589 42.8999 143.327 43.5723 143.327 44.3523C143.327 45.1323 143.589 45.7778 144.036 46.2889C144.509 46.8268 145.113 47.0689 145.822 47.0689C145.927 47.0689 146.032 47.0689 146.164 47.0689L144.509 49.7047H145.901L147.74 46.7461C148.37 45.7509 148.686 44.9441 148.686 44.2985C148.686 43.5455 148.423 42.8999 147.924 42.3889C147.425 41.8779 146.768 41.6089 146.006 41.6089M145.954 42.7117C146.4 42.7117 146.768 42.873 147.057 43.1958C147.372 43.5186 147.53 43.922 147.53 44.3792C147.53 44.8365 147.398 45.2399 147.083 45.5358C146.794 45.8585 146.426 45.993 145.98 45.993C145.533 45.993 145.192 45.8316 144.929 45.5358C144.64 45.213 144.509 44.8365 144.509 44.3523C144.509 43.8682 144.64 43.4648 144.929 43.142C145.218 42.8462 145.56 42.6848 145.98 42.6848" fill="white"/>
<path d="M154.176 45.2395C154.36 45.0781 154.491 44.9167 154.596 44.7284C154.728 44.4595 154.833 44.1098 154.833 43.7333C154.833 43.1416 154.623 42.6305 154.176 42.2002C153.756 41.7968 153.204 41.5547 152.574 41.5547C151.943 41.5547 151.444 41.7699 151.024 42.2002C150.603 42.6305 150.367 43.1685 150.367 43.7602C150.367 44.1098 150.446 44.4326 150.577 44.7015C150.682 44.8898 150.813 45.0781 150.997 45.2126C150.708 45.4546 150.472 45.6967 150.314 45.9657C150.13 46.3153 150.025 46.7188 150.025 47.176C150.025 47.9022 150.262 48.5208 150.761 49.0318C151.234 49.5429 151.838 49.7849 152.521 49.7849C153.283 49.7849 153.913 49.5429 154.386 49.0318C154.859 48.5477 155.122 47.9022 155.122 47.1491C155.122 46.6919 155.017 46.2884 154.806 45.9388C154.649 45.6698 154.439 45.4277 154.15 45.2395M152.521 48.7091C152.153 48.7091 151.838 48.5746 151.575 48.3056C151.313 48.0367 151.181 47.687 151.181 47.2836C151.181 46.7994 151.313 46.4498 151.549 46.2077C151.812 45.9388 152.127 45.8043 152.574 45.8043C153.02 45.8043 153.335 45.9388 153.572 46.2077C153.834 46.4767 153.94 46.7994 153.94 47.2567C153.94 47.7139 153.808 48.0367 153.546 48.3056C153.283 48.5746 152.941 48.7091 152.521 48.7091ZM153.388 44.4326C153.204 44.594 152.915 44.6746 152.521 44.6746C152.206 44.6746 151.969 44.594 151.785 44.4057C151.602 44.2174 151.523 43.9753 151.523 43.6795C151.523 43.4105 151.628 43.1685 151.812 42.9802C152.022 42.7919 152.285 42.6843 152.6 42.6843C152.915 42.6843 153.204 42.7919 153.388 42.9802C153.598 43.1685 153.677 43.4105 153.677 43.7064C153.677 44.056 153.598 44.2981 153.414 44.4595" fill="white"/>
<path d="M160.481 46.5578C160.901 46.1544 161.19 45.7778 161.4 45.4013C161.61 45.0247 161.689 44.6213 161.689 44.191C161.689 43.4379 161.453 42.8462 160.98 42.3351C160.507 41.851 159.929 41.582 159.246 41.582C158.511 41.582 157.88 41.851 157.407 42.362C156.934 42.873 156.698 43.5455 156.698 44.3523V44.6751H157.828V44.4599C157.828 44.4599 157.828 44.3792 157.828 44.3523C157.828 44.3254 157.828 44.2716 157.828 44.2716C157.828 43.7606 157.959 43.3841 158.195 43.0882C158.432 42.8193 158.773 42.6848 159.167 42.6848C159.561 42.6848 159.903 42.8193 160.166 43.0882C160.428 43.3572 160.56 43.7068 160.56 44.1103C160.56 44.3792 160.481 44.6482 160.349 44.8903C160.192 45.1592 159.85 45.5358 159.351 46.0199L156.698 48.6019V49.6509H161.663V48.4944H158.432L160.481 46.5578Z" fill="white"/>
<path d="M215.463 48.7093H210.971V46.7996H190.927V48.7093H186.54V31.7378C185.411 32.706 183.651 33.9971 181.181 35.5839L178.423 31.6033C183.362 28.7254 186.882 26.1703 189.062 23.8303H178.817V20.011H191.715C192.635 18.8545 193.37 17.8056 193.974 16.8373H182.206V13.2332H195.524C195.84 12.6415 196.102 12.0498 196.339 11.5118C196.523 11.0815 196.733 10.6243 196.864 10.1401H180.157V6.40157H198.046C198.361 5.64848 198.65 4.41126 198.861 2.7168L203.51 2.98576C203.379 3.49679 203.274 4.0885 203.195 4.73401C203.09 5.35262 202.959 5.91744 202.827 6.40157H221.741V10.1401H201.724C201.409 10.8932 201.015 11.9153 200.542 13.2063H219.824V16.8104H199.018C198.572 17.8056 197.862 18.8545 197.048 19.9841H223.029V23.8034H212.022C214.885 26.6006 218.668 29.0751 223.37 31.3612L220.323 35.2343C219.482 34.6695 218.668 34.1315 217.853 33.6205C216.96 33.0557 216.146 32.464 215.489 31.8992V48.7093H215.463ZM210.971 31.3343H190.927V34.9653H210.971V31.3343ZM190.927 42.9804H210.971V38.7308H190.927V42.9804ZM210.235 27.4613C209.5 26.8965 208.79 26.3047 208.16 25.6323C207.477 24.9061 206.925 24.3144 206.452 23.8034H194.815C193.738 25.1751 192.635 26.3854 191.479 27.4613H210.262H210.235Z" fill="white"/>
<path d="M245.699 28.4031L243.414 32.5451C242.389 31.0658 241.207 29.6941 239.788 28.3762V48.7097H235.507V29.9362C233.589 32.5182 232.17 34.2396 231.356 34.9927L229.386 30.0976C233.641 26.1438 237.162 21.1142 239.92 15.0357H230.148V10.813H236.268C235.585 7.9889 234.692 5.56824 233.589 3.47034L237.871 2.74414C239.027 4.86894 240.025 7.55856 240.813 10.8399H244.701V14.7667C243.676 17.2143 242.205 20.0922 240.235 23.4004C241.969 24.6376 243.781 26.3052 245.725 28.43M274.307 7.9889H245.279V4.11585H274.307V7.962V7.9889ZM250.69 46.6925V48.7366H246.435V25.3369H273.046V48.7366H268.79V46.6925H250.664H250.69ZM248.116 10.7054H271.575V22.4859H248.116V10.6785V10.7054ZM257.547 29.1024H250.69V34.0244H257.547V29.1024ZM257.547 37.6016H250.69V42.927H257.547V37.6016ZM267.214 14.4171H252.529V18.8818H267.214V14.4171ZM268.843 29.1024H261.618V34.0244H268.843V29.1024ZM268.843 37.6016H261.618V42.927H268.843V37.6016Z" fill="white"/>
<path d="M290.41 17.429C292.407 19.6614 293.904 21.5172 294.981 22.9696L293.09 26.7889C292.669 26.0627 292.223 25.2558 291.697 24.422C291.224 23.7765 290.804 23.0503 290.41 22.2972V48.7093H286.286V25.0944C284.815 29.4247 283.475 32.6522 282.24 34.777L280.323 29.6668C282.818 25.7937 284.736 21.3827 286.023 16.5145H280.848V12.3725H286.286V2.7168H290.41V12.3725H293.615V16.5145H290.41V17.429ZM302.389 23.6958V27.542H308.615C307.827 21.571 307.38 13.3408 307.275 2.74369H311.189V3.4161C311.189 13.4753 311.636 21.5172 312.555 27.542H317.1C316.443 25.4441 316.023 24.422 315.891 24.422C315.261 24.5296 314.736 24.5834 314.368 24.6103C313.974 24.6641 313.606 24.691 313.265 24.7986L312.45 21.1676L313.79 21.0869C315.025 19.5807 316.312 17.7249 317.573 15.5194C316.653 15.627 315.839 15.7614 315.025 15.8421C314.368 15.8959 313.606 15.9766 312.739 16.0842L311.793 12.6684H312.844C314.263 9.95187 315.261 6.83191 315.918 3.30851L319.307 4.1154C318.413 7.58501 317.441 10.4091 316.338 12.5877C316.969 12.5608 317.415 12.5339 317.757 12.507C317.993 12.507 318.413 12.4532 319.018 12.3456C319.49 11.6194 320.042 10.3553 320.725 8.63396L323.93 9.95187C321.25 15.2504 319.123 18.9621 317.573 21.0331C318.807 20.9793 320.147 20.8179 321.566 20.6297C321.303 19.5269 321.093 18.5586 320.778 17.7249L323.405 17.1869C323.956 18.9083 324.455 21.4365 325.007 24.7986L322.38 25.5248C322.249 24.2875 322.117 23.6958 322.012 23.6958C322.012 23.6958 321.487 23.7496 320.646 23.8034C320.173 23.8841 319.701 23.911 319.201 23.9648C319.858 25.1482 320.331 26.3316 320.699 27.542H325.217V31.2805H313.081C313.554 33.5398 314.184 35.315 314.946 36.6598C315.918 35.6915 316.89 34.2122 317.835 32.1143L321.224 34.3198C319.359 37.117 317.862 39.1342 316.785 40.3446C316.785 40.5597 317.258 41.1783 318.229 42.1735C319.149 43.1687 319.806 43.6797 320.252 43.6797C320.988 43.6797 321.434 41.6087 321.592 37.4936L325.165 39.7259C324.56 45.5624 323.194 48.4941 321.04 48.4941C319.149 48.4941 316.758 46.7189 313.895 43.088C311.531 45.2128 308.589 47.0686 305.042 48.6017L302.809 44.5673C306.487 43.3031 309.561 41.6625 312.004 39.6184C310.9 37.2784 309.928 34.5081 309.14 31.2805H302.153L301.969 32.7329C304.202 34.3198 306.356 36.0681 308.352 37.9508L306.224 41.6087C304.07 39.3763 302.494 37.7894 301.47 36.9287C300.681 39.8873 299.394 42.55 297.66 44.9438C295.953 47.3107 294.928 48.521 294.639 48.521L291.855 44.7017C295.927 41.528 298.107 37.0632 298.422 31.2267H293.536V27.4613H298.632V24.0455L295.874 24.3951L294.928 20.791L296.82 20.7372C297.844 19.5269 299.026 17.7249 300.366 15.3042C298.58 15.5732 296.82 15.7614 295.165 15.8959L294.324 12.507L295.611 12.4532C296.794 10.2477 297.818 7.15467 298.711 3.17403L302.153 3.81954C301.154 7.26225 300.13 10.0864 299.053 12.3456C299.736 12.2649 300.235 12.238 300.681 12.1305C300.892 12.1305 301.286 12.1305 301.837 12.0498C302.468 10.8394 303.046 9.52153 303.545 7.93466L306.855 9.25257C304.307 14.4704 302.231 18.2628 300.55 20.6565C301.811 20.549 303.046 20.4414 304.202 20.2262C303.913 18.989 303.65 17.9938 303.413 17.2407L306.119 16.7566C306.618 18.5586 307.17 21.1138 307.669 24.3682L304.99 25.1213C304.99 24.9061 304.911 24.6372 304.858 24.3413C304.806 24.0455 304.753 23.7227 304.674 23.3462L302.494 23.6689L302.389 23.6958Z" fill="white"/>
<path d="M340.9 17.7782C342.87 19.6878 344.552 21.6782 345.865 23.7761L343.816 27.7298C343.264 26.7077 342.739 25.7664 342.266 24.9595C341.82 24.1257 341.373 23.3995 340.9 22.7271V48.655H336.855V25.0402C335.856 28.6712 334.648 31.8449 333.229 34.6152L331.259 29.4243C333.702 25.2285 335.541 20.9251 336.723 16.4603H331.601V12.3183H336.855V2.68945H340.9V12.3452H345.051V16.4872H340.9V17.7782ZM368.536 6.15906H375.418V9.68246H368.536V12.2645H373.895V15.5189H368.536V18.2085H376.023V21.8126H362.362V24.0988H373.264V36.2021H376.128V39.86H373.264V43.1413C373.264 46.6109 371.504 48.3592 367.958 48.3592H363.466L362.599 44.513L367.59 44.6744C368.615 44.6744 369.14 44.1096 369.14 43.0337V39.8869H351.723V48.655H347.573V39.8869H343.58V36.229H347.573V24.1257H358.08V21.8395H345.55V18.2354H351.96V15.5458H347.1V12.2914H351.96V9.70936H346.075V6.18596H351.96V2.68945H356.11V6.15906H364.385V2.68945H368.536V6.15906ZM358.08 27.7029H351.723V30.2311H358.08V27.7029ZM358.08 33.5125H351.723V36.229H358.08V33.5125ZM364.306 9.68246H356.11V12.2645H364.306V9.68246ZM356.11 18.2085H364.385V15.5189H356.11V18.2085ZM369.166 27.7029H362.389V30.2311H369.166V27.7029ZM369.166 33.5125H362.389V36.229H369.166V33.5125Z" fill="white"/>
<path d="M76.0242 4.8418V15.9499H65.2799V4.8418H61.4446V30.9311H65.2799V19.6347H76.0242V30.9311H79.8333V4.8418H76.0242Z" fill="white"/>
<path d="M96.6194 4.8418V20.6568C96.6194 23.185 96.199 25.0408 95.3584 26.2243C94.5703 27.327 93.3619 27.8649 91.6281 27.8649C90.6299 27.8649 89.7893 27.6229 89.0012 27.1656C88.2394 26.6815 87.6614 26.0629 87.2674 25.2291C87.0572 24.8257 86.9259 24.3415 86.8208 23.8036C86.7157 23.2388 86.6895 22.3512 86.6895 21.1947V4.8418H82.8804V21.2485C82.8804 24.6643 83.6159 27.2463 85.0345 28.9139C86.5056 30.6083 88.7648 31.469 91.812 31.469C94.6754 31.469 96.8558 30.5814 98.2743 28.8601C99.6666 27.1656 100.376 24.6105 100.376 21.2754V4.8418H96.5931H96.6194Z" fill="white"/>
<path d="M119.999 4.8418L120.262 25.0139L107.39 4.8418H103.371V30.9311H107.153L106.891 10.7321L119.789 30.9311H123.808V4.8418H119.999Z" fill="white"/>
<path d="M141.12 8.58037V4.8418H127.276V30.9311H131.033V19.7154H141.12V15.9499H131.033V8.58037H141.12Z" fill="white"/>
<path d="M157.906 4.8418V20.6568C157.906 23.185 157.486 25.0408 156.645 26.2243C155.857 27.327 154.623 27.8649 152.915 27.8649C151.917 27.8649 151.076 27.6229 150.288 27.1656C149.526 26.6815 148.948 26.0629 148.528 25.2291C148.318 24.8257 148.187 24.3415 148.082 23.8036C147.976 23.2388 147.95 22.3512 147.95 21.1947V4.8418H144.141V21.2485C144.141 24.6643 144.877 27.2463 146.295 28.9139C147.766 30.6083 150.025 31.469 153.073 31.469C155.936 31.469 158.117 30.5814 159.535 28.8601C160.927 27.1656 161.637 24.6105 161.637 21.2754V4.8418H157.854H157.906Z" fill="white"/>
<path d="M54.2729 24.7443C53.5111 25.605 52.6705 26.2774 51.7248 26.7615C50.4638 27.4339 49.019 27.7567 47.4428 27.7567C44.8684 27.7567 42.7143 26.8153 40.9017 24.8788C39.1154 22.9691 38.196 20.5754 38.196 17.7513C38.196 14.9272 39.0891 12.8562 40.9017 10.9196C42.7143 8.98312 44.8421 8.04175 47.4166 8.04175C49.0453 8.04175 50.4901 8.3914 51.751 9.06381C52.6179 9.52104 53.406 10.1665 54.1678 11.0003H58.8438C57.688 8.98312 56.1906 7.36935 54.3255 6.21281C52.3027 4.94869 49.991 4.33008 47.4428 4.33008C45.6828 4.33008 44.0278 4.65283 42.5042 5.29834C40.9805 5.94385 39.5882 6.88522 38.3798 8.12244C37.0664 9.41346 36.0681 10.9196 35.3851 12.5334C34.7021 14.1472 34.3606 15.8954 34.3606 17.7244C34.3606 21.5974 35.6215 24.8788 38.1434 27.4877C40.6653 30.0966 43.8176 31.4145 47.5742 31.4145C50.0173 31.4145 52.2502 30.7959 54.2204 29.5856C56.0855 28.4291 57.6354 26.7884 58.7913 24.7443H54.2467H54.2729Z" fill="white"/>
</g>
<defs>
<clipPath id="clip0_2423_8954">
<rect width="376.154" height="50" fill="white"/>
</clipPath>
</defs>
</svg>
