<?xml version="1.0" encoding="UTF-8"?>
<svg id="_圖層_1" data-name="圖層_1" xmlns="http://www.w3.org/2000/svg" version="1.1" xmlns:xlink="http://www.w3.org/1999/xlink" viewBox="0 0 1025 411">
  <!-- Generator: Adobe Illustrator 30.3.0, SVG Export Plug-In . SVG Version: 2.1.3 Build 182)  -->
  <defs>
    <linearGradient id="_未命名漸層" data-name="未命名漸層" x1="-.8" y1="206.2" x2="1024.2" y2="206.2" gradientTransform="translate(0 411) scale(1 -1)" gradientUnits="userSpaceOnUse">
      <stop offset="0" stop-color="#ff811e"/>
      <stop offset=".2" stop-color="#fd4b13"/>
      <stop offset=".5" stop-color="#e90f13"/>
      <stop offset=".8" stop-color="#821eaa"/>
      <stop offset="1" stop-color="#827ab5"/>
    </linearGradient>
  </defs>
  <path d="M198.7,154.9c-1.1,15.7-3.2,36-1.4,53,.6,4.5.8,11.4.7,17.2,0,6.5-5.8,4.8-7.7-.6-3.3-7.5-6.6-12.1-9.8-13.8-40.8,33.5-111.5,23.3-146.5-12.8C-46.3,115,22.4-24.8,140.2,2.7c8.7.8,27.6,13.6,38.2,15.3,5,.6,10.2-15.6,13.4-14.2,4,.2,2.8,3.4,2.1,6.8-2.6,10.3-3.9,29.6-3.9,58,1.5,9.8-7,11.1-8.4,1.9-3-17.2-7.4-29.9-13-38.3C151,1.9,92.8-2.7,69.3,23.8c-49.8,50.6-42.2,203,51.6,200.6,23.2.2,45.6-11.3,56.8-31.4,5.5-9.8,9.8-21.5,12.8-35.3,1.1-8.5,7.5-10.9,8.1-2.9h0ZM385.5,154.8c-1.6,100.7-155.8,97-157.2-1.3,0-100.8,157.5-99.2,157.2,1.3ZM352.5,155.7c0-24.8-5.5-44.4-16.5-58.8-7-9.2-16.8-13.8-29.2-13.8-35.8.2-45.5,37.9-45.4,71.3-5.3,85.1,94,103.7,91.1,1.3ZM583.5,224.9c0,1.7-2.1,2.6-6.3,2.6-16.3,0-43.7,0-62.6,0-5.2.4-8.6-2.2-4.8-4,.3-.5,19.1.1,20.4-2.5,2.7-3.1.6-109.3,1.2-115.9-11,27.8-27.3,71.3-40.8,110.4-4.5,12.8-6.8,13.3-11.6,1.3-5.4-14.8-21.2-51.5-47.5-110.1,1.7,2.1-4.1,119,3.5,115.6,2.7,1.2,16-1.8,17.2,2.6-1.1,4.6-14.5,1.9-19.3,2.6,0,0-20.1,0-20.1,0-2.6-.3-12.9,1.4-13-2.6-1.7-3,19.2-2,20.2-4.3,2.8-2.8.6-113.8,1.3-119.6,0-7.3-.8-11.6-2.3-12.9-1.5-1.3-6.6-2-15.3-2.3-3,0-4.6-.9-4.6-2.6,5.3-5,21.8-1.4,48.2-2.6,12.9,29.4,30.9,70.2,44.9,102,6-18.2,31.6-83.7,38.5-102,0,0,26.7,0,26.7,0,4.3.8,24.3-2.2,24.6,2.7.2,4.1-17.5,2.6-17.6,3.4-10.6-3.3-2.6,117.3-5,120.7.6,19,.8,13.6,18.6,14.8,3.5,0,5.3.9,5.3,2.6h0ZM671.5,225.2c.2,3.6-12,1.3-14.1,1.9-14.4,0-33.5,0-48.2,0-9.3.1-7.1-4.3,1.8-4.2,7-.4,10.7-1.2,11.1-2.3.8-17.9,1.2-115.3-.1-133.1-1.9-4-11.9-1.9-15.8-2.4-4.9,0-3.9-5.1,1.4-4.5,13.1,0,35.6,0,49.2,0,2.9.5,14.6-1.5,14.4,2.6,1.3,2.7-15.2,1.1-17.9,3.7-.7,1-1.1,3.9-1.1,8.9,0,0,0,121.4,0,121.4,0,2.1.9,3.5,2.6,4.2,1.8.6,5.9,1.2,12.5,1.6,2.8.2,4.2,1,4.2,2.2h0ZM851.8,82.9c-.9,4.7-17,0-20.2,3.5-.3.9-.5,3.8-.5,8.7v118.7c-.8,9.5,2.1,15.1-3.5,15.5-2.6,0-10.9-9-25-27-22.4-28.3-36.3-44.8-75.2-94.8,1.9,7.7-4.5,112.6,3.7,114.8,2.5.4,7,.6,13.5.6,2.3-.2,6,.3,5.6,2.1-3.1,4.3-9.5,1.8-19.3,1.8-11.1-1-19.8.7-31,.6-8,0-7.4-5.1,1.1-4.5,0,0,3.2,0,3.2,0,12.1-1.1,14.5.9,13.7-12.6-1.3-17.8,3.2-105.2-3.1-118.4-2.8-4.3-8.3-6.5-16.5-6.5-8.6.7-12.7-4.3-4.2-4.8,13.1.1,31.6,0,44.7,0l83,104.6c-.4-4.9.9-97.3-.7-98.8-2.4-2.4-11.9-.9-15.1-1.3-6.4.5-9.7-3.4-3.3-4.2,2.2-.2,10.1-.3,23.7-.3,13.8.7,24.2-1.7,25.7,2.3ZM1024.2,182.8c0,1.1-2.1,1.7-6.3,1.9h-11.2c-5.9,2.2-2.7,20.7-3.5,27.4-49.1,37.7-140.9,13-137.9-56.2-2.3-63.5,68.3-96,122.1-66.4,3.3,1.8,6,1.2,7-3.2,1.4-5.5,6.7-8.3,7.7-3.2-1.6,10.5-1.7,20.5-1.8,42.5,1,7.5-6.8,10.6-7.4,3.5-.5-14-4.7-25.1-12.8-33.3-8.1-8.3-18.6-12.4-31.5-12.4-55.8-.5-61.3,87.9-36.8,122.7,13.5,23.8,68.7,28.6,64.5-6.9-.7-16.1,1.2-13.6-14.8-14.4-1.6,0-4.1,0-5.6,0-6.2-1.3-1.7-5.5,5.6-4.8,11.8,0,46.4,0,50.3,0,3,.1,12.8-1,12.3,2.9h0ZM294.1,366.7c-2.6,42.5-61.3,54-94.6,33.6-6-3-5.1,4.3-6.3,7.7-.8,3.4-7.5,3-7-1,1.2-11.1,1.6-29.9,1.4-41.5.6-10.4,7.8-6.7,8.8,3.9,1.8,39.7,70.9,52.1,71,8.5-1.2-21.6-12.9-24.8-34.5-35.9-28.1-14.4-41.4-16.1-43.6-42.3,0-25.8,24.4-40.8,49.6-40.4,9.6-.5,20.8,4,31.3,8.4,3.9.2,2.4-10.3,7.4-9.3,6.8-.7,1.2,13,2.5,19,0,2.9.5,12.9,1.4,20.3-.3,6.5-6.5,4.2-7.4-1.9-3.7-17.6-17.5-31.1-35.5-31-29.4-2.9-33.5,37.8-10.9,48.7,19,10.2,68.7,24.2,66.5,53.2h0ZM472.4,335.8c-1.6,100.7-155.8,97-157.2-1.3,0-100.8,157.5-99.2,157.2,1.3ZM439.3,336.8c0-24.8-5.5-44.4-16.5-58.8-7-9.2-16.8-13.8-29.2-13.8-35.8.2-45.5,37.9-45.4,71.3-5.3,85.1,94,103.7,91.1,1.3h0ZM653.3,335.8c-1.6,100.7-155.8,97-157.2-1.3,0-100.8,157.5-99.2,157.2,1.3ZM620.2,336.8c0-24.8-5.5-44.4-16.5-58.8-7-9.2-16.8-13.8-29.2-13.8-35.8.2-45.5,37.9-45.4,71.3-5.3,85.1,94,103.7,91.1,1.3h0ZM824.2,263.9c-.9,4.7-17,0-20.2,3.5-.3.9-.5,3.8-.5,8.7v118.7c-.8,9.5,2.1,15.1-3.5,15.5-2.6,0-10.9-9-25-27-22.4-28.3-36.3-44.8-75.2-94.8,1.9,7.7-4.5,112.6,3.7,114.8,2.5.4,7,.6,13.5.6,2.3-.2,6,.3,5.6,2.1-3.1,4.3-9.5,1.8-19.3,1.8-11.1-1-19.8.7-31,.6-8,0-7.4-5.1,1.1-4.5,0,0,3.2,0,3.2,0,12.1-1.1,14.5.9,13.7-12.6-1.3-17.8,3.2-105.2-3.1-118.4-2.8-4.3-8.3-6.5-16.5-6.5-8.6.7-12.7-4.3-4.2-4.8,13.1.1,31.6,0,44.7,0l83,104.6c-.4-4.9.9-97.3-.7-98.8-2.4-2.4-11.9-.9-15.1-1.3-6.4.5-9.7-3.4-3.3-4.2,2.2-.2,10.1-.3,23.7-.3,13.8.7,24.2-1.7,25.7,2.3Z" fill="url(#_未命名漸層)"/>
</svg>