<svg width="18" height="282" viewBox="0 0 18 282" fill="none" xmlns="http://www.w3.org/2000/svg">
<path d="M15.5175 4.46399C14.9369 3.60322 14.1161 2.92261 13.0549 2.4622C11.9938 2.00179 10.7525 1.76157 9.35098 1.76157C7.9495 1.76157 6.68821 2.00179 5.62709 2.4622C4.56597 2.92261 3.74515 3.5832 3.16454 4.42395C2.58393 5.26471 2.30365 6.2656 2.30365 7.3866C2.30365 8.26739 2.48375 9.04809 2.84413 9.74871C3.20451 10.4493 3.70506 11.0899 4.36575 11.6704H8.10968V7.66685H9.73138V13.392H3.76515C1.70298 11.7305 0.681946 9.7287 0.681946 7.3866C0.681946 5.88526 1.02222 4.56408 1.72296 3.4631C2.4237 2.36211 3.42475 1.50134 4.72612 0.900805C6.02749 0.300268 7.56921 0 9.33106 0C11.0929 0 12.6345 0.300268 13.9359 0.920823C15.2372 1.52136 16.2383 2.40215 16.939 3.52315C17.6398 4.64415 17.9801 5.98535 17.9801 7.50671C17.9801 8.66775 17.7198 9.7287 17.2192 10.6896C16.7187 11.6504 16.018 12.4311 15.1171 13.0316L14.116 11.6704C14.7967 11.17 15.3573 10.5494 15.7577 9.80877C16.1582 9.06811 16.3583 8.30743 16.3583 7.50671C16.3583 6.34567 16.058 5.32476 15.4975 4.46399H15.5175Z" fill="white"/>
<path d="M3.5848 25.703C4.44571 26.4637 5.60693 26.844 7.08849 26.844H17.6797V28.5656H6.92841C5.66708 28.5656 4.56585 28.3253 3.60484 27.8449C2.66385 27.3645 1.92314 26.6639 1.42261 25.7831C0.922088 24.8823 0.661804 23.8413 0.661804 22.6403C0.661804 21.4392 0.922088 20.3983 1.42261 19.4975C1.92314 18.6167 2.66385 17.916 3.60484 17.4356C4.54583 16.9552 5.66708 16.715 6.92841 16.715H17.6797V18.4165H7.16865C5.66707 18.4165 4.48577 18.7968 3.60484 19.5575C2.72391 20.3182 2.28351 21.3391 2.28351 22.6403C2.28351 23.9414 2.70398 24.9824 3.56488 25.743L3.5848 25.703Z" fill="white"/>
<path d="M1.74288 35.0514C2.46363 33.9504 3.46471 33.0896 4.76608 32.4891C6.06745 31.8885 7.5891 31.5883 9.33094 31.5883C11.0728 31.5883 12.5743 31.8885 13.8957 32.4891C15.197 33.0896 16.2181 33.9504 16.9189 35.0514C17.6396 36.1523 17.9799 37.4535 17.9799 38.9348C17.9799 40.4162 17.6196 41.7173 16.9189 42.8183C16.1981 43.9193 15.197 44.78 13.8957 45.3806C12.5943 45.9811 11.0728 46.2814 9.33094 46.2814C7.5891 46.2814 6.08747 45.9811 4.76608 45.3806C3.46471 44.78 2.44361 43.9193 1.74288 42.8183C1.02212 41.7173 0.681824 40.4162 0.681824 38.9348C0.681824 37.4535 1.04214 36.1724 1.74288 35.0714V35.0514ZM3.14438 41.8574C3.72499 42.6982 4.54581 43.3588 5.60693 43.8192C6.66804 44.2796 7.90942 44.5198 9.3109 44.5198C10.7124 44.5198 11.9536 44.2796 13.0147 43.8192C14.0759 43.3588 14.8967 42.6982 15.4773 41.8574C16.0579 41.0167 16.3383 40.0358 16.3383 38.9148C16.3383 37.7938 16.0379 36.8129 15.4773 35.9722C14.8967 35.1314 14.0759 34.4708 13.0147 34.0304C11.9536 33.57 10.7124 33.3498 9.3109 33.3498C7.90942 33.3498 6.66804 33.57 5.60693 34.0304C4.54581 34.4909 3.72499 35.1314 3.14438 35.9722C2.56376 36.8129 2.28348 37.7938 2.28348 38.9148C2.28348 40.0358 2.56376 41.0167 3.14438 41.8574Z" fill="white"/>
<path d="M7.72921 52.3268L17.6797 46.7018V48.6635L9.49107 53.1275V53.2076L17.6797 57.6716V59.6534L7.72921 54.0083H0.982117V52.2868H7.72921V52.3268Z" fill="white"/>
<path d="M3.5848 70.7433C4.44571 71.504 5.60693 71.8843 7.08849 71.8843H17.6797V73.6058H6.92841C5.66708 73.6058 4.56585 73.3656 3.60484 72.8852C2.66385 72.4048 1.92314 71.7041 1.42261 70.8234C0.922088 69.9226 0.661804 68.8816 0.661804 67.6805C0.661804 66.4795 0.922088 65.4385 1.42261 64.5377C1.92314 63.657 2.66385 62.9563 3.60484 62.4759C4.54583 61.9955 5.66708 61.7552 6.92841 61.7552H17.6797V63.4568H7.16865C5.66707 63.4568 4.48577 63.8371 3.60484 64.5978C2.72391 65.3585 2.28351 66.3994 2.28351 67.6805C2.28351 68.9617 2.70398 70.0226 3.56488 70.7833L3.5848 70.7433Z" fill="white"/>
<path d="M0.982117 89.1598V87.3581L6.68819 85.3363V79.1308L0.982117 77.109V75.3074L17.6797 81.3328V83.1144L0.982117 89.1598ZM15.1971 82.1535L8.32994 79.7113V84.7358L15.1971 82.2936V82.1535Z" fill="white"/>
<path d="M0.982117 92.9231V91.2216H17.6797V92.9831L4.02536 101.951V102.051H17.6797V103.753H0.982117V101.991L14.6565 93.0232V92.9231H0.982117Z" fill="white"/>
<path d="M3.50478 127.674C2.62385 127.094 1.9432 126.313 1.44267 125.352C0.942147 124.391 0.701782 123.31 0.701782 122.129C0.701782 120.628 1.06224 119.327 1.783 118.186C2.50376 117.065 3.52477 116.184 4.84616 115.563C6.16755 114.943 7.68923 114.622 9.43106 114.622C11.1729 114.622 12.6344 114.943 13.9158 115.563C15.2171 116.184 16.2182 117.065 16.9189 118.186C17.6397 119.307 17.98 120.628 17.98 122.129C17.98 123.29 17.7397 124.371 17.2392 125.352C16.7387 126.333 16.058 127.114 15.1771 127.694L14.216 126.333C14.8767 125.872 15.3973 125.252 15.7977 124.491C16.1982 123.711 16.3983 122.93 16.3983 122.129C16.3983 121.008 16.098 120.007 15.5375 119.126C14.9568 118.266 14.1359 117.585 13.0948 117.105C12.0537 116.624 10.8326 116.384 9.4511 116.384C8.06965 116.384 6.7882 116.624 5.72709 117.105C4.64595 117.585 3.80507 118.246 3.22446 119.126C2.64384 120.007 2.32361 120.988 2.32361 122.129C2.32361 122.93 2.52379 123.711 2.92421 124.471C3.32463 125.212 3.8652 125.852 4.54591 126.333L3.52482 127.694L3.50478 127.674Z" fill="white"/>
<path d="M1.74288 132.979C2.46363 131.878 3.46471 131.017 4.76608 130.417C6.06745 129.816 7.5891 129.516 9.33094 129.516C11.0728 129.516 12.5743 129.816 13.8957 130.417C15.197 131.017 16.2181 131.878 16.9189 132.979C17.6396 134.08 17.9799 135.381 17.9799 136.862C17.9799 138.344 17.6196 139.645 16.9189 140.746C16.1981 141.847 15.197 142.708 13.8957 143.308C12.5943 143.909 11.0728 144.209 9.33094 144.209C7.5891 144.209 6.08747 143.909 4.76608 143.308C3.46471 142.708 2.44361 141.847 1.74288 140.746C1.02212 139.645 0.681824 138.344 0.681824 136.862C0.681824 135.381 1.04214 134.1 1.74288 132.999V132.979ZM3.14438 139.785C3.72499 140.626 4.54581 141.286 5.60693 141.747C6.66804 142.207 7.90942 142.447 9.3109 142.447C10.7124 142.447 11.9536 142.207 13.0147 141.747C14.0759 141.286 14.8967 140.626 15.4773 139.785C16.0579 138.944 16.3383 137.963 16.3383 136.842C16.3383 135.721 16.0379 134.74 15.4773 133.9C14.8967 133.059 14.0759 132.398 13.0147 131.958C11.9536 131.498 10.7124 131.277 9.3109 131.277C7.90942 131.277 6.66804 131.498 5.60693 131.958C4.54581 132.418 3.72499 133.059 3.14438 133.9C2.56376 134.74 2.28348 135.721 2.28348 136.842C2.28348 137.963 2.56376 138.944 3.14438 139.785Z" fill="white"/>
<path d="M0.982117 148.893V147.192H17.6797V148.953L4.02536 157.921V158.041H17.6797V159.743H0.982117V157.981L14.6565 149.013V148.893H0.982117Z" fill="white"/>
<path d="M1.50265 164.627C2.06324 163.586 2.84407 162.765 3.88517 162.145L4.7661 163.606C3.94523 164.087 3.3246 164.707 2.90415 165.488C2.48371 166.249 2.28351 167.129 2.28351 168.09C2.28351 168.831 2.40364 169.511 2.66391 170.112C2.90416 170.713 3.26446 171.173 3.70492 171.513C4.14539 171.854 4.64591 172.014 5.2065 172.014C5.76709 172.014 6.28774 171.874 6.68816 171.573C7.08858 171.273 7.42886 170.833 7.72918 170.212C8.02949 169.612 8.32983 168.771 8.63015 167.71C8.95048 166.589 9.27078 165.688 9.59112 164.987C9.91146 164.287 10.372 163.706 10.9926 163.226C11.5933 162.765 12.3941 162.525 13.3751 162.525C14.2561 162.525 15.0569 162.765 15.7576 163.226C16.4584 163.706 17.019 164.367 17.3994 165.208C17.7798 166.068 17.9799 167.029 17.9799 168.13C17.9799 169.331 17.7397 170.392 17.2392 171.293C16.7387 172.194 16.038 172.935 15.157 173.535L14.1961 172.194C14.8768 171.693 15.4173 171.093 15.7977 170.372C16.1981 169.652 16.3983 168.891 16.3983 168.09C16.3983 167.39 16.2782 166.749 16.0179 166.148C15.7777 165.568 15.4173 165.108 14.9768 164.767C14.5363 164.427 14.0559 164.267 13.5153 164.267C12.8346 164.267 12.294 164.447 11.8535 164.827C11.413 165.208 11.0927 165.668 10.8525 166.249C10.6122 166.829 10.372 167.57 10.1317 168.511C9.83141 169.612 9.49103 170.532 9.11063 171.273C8.75025 172.014 8.24975 172.614 7.62909 173.055C7.00844 173.495 6.22765 173.735 5.28666 173.735C4.34567 173.735 3.52485 173.495 2.82411 173.035C2.12338 172.574 1.58271 171.914 1.22233 171.053C0.84193 170.192 0.661804 169.191 0.661804 168.05C0.661804 166.789 0.942045 165.648 1.48261 164.607L1.50265 164.627Z" fill="white"/>
<path d="M0.982117 181.722V180.001H16.0781V174.736H17.6797V186.967H16.0781V181.722H0.982117Z" fill="white"/>
<path d="M0.982077 200.819V198.818L8.14965 194.594V190.911H0.982077V189.209H17.6797V193.913C17.6797 195.915 17.2592 197.456 16.4184 198.517C15.5775 199.598 14.3962 200.139 12.8546 200.139C11.6733 200.139 10.6924 199.819 9.93155 199.158C9.17075 198.497 8.65013 197.557 8.34981 196.335L0.962036 200.799L0.982077 200.819ZM9.77135 193.793C9.77135 195.275 10.0317 196.416 10.5722 197.216C11.1128 198.017 11.8735 198.397 12.8546 198.397C13.8356 198.397 14.6765 197.997 15.2371 197.216C15.7977 196.416 16.078 195.295 16.078 193.793V190.911H9.77135V193.793Z" fill="white"/>
<path d="M3.5848 212.09C4.44571 212.85 5.60693 213.231 7.08849 213.231H17.6797V214.952H6.92841C5.66708 214.952 4.56585 214.712 3.60484 214.232C2.66385 213.751 1.92314 213.05 1.42261 212.17C0.922088 211.269 0.661804 210.228 0.661804 209.027C0.661804 207.826 0.922088 206.785 1.42261 205.884C1.92314 205.003 2.66385 204.303 3.60484 203.822C4.54583 203.342 5.66708 203.102 6.92841 203.102H17.6797V204.803H7.16865C5.66707 204.803 4.48577 205.183 3.60484 205.944C2.72391 206.705 2.28351 207.746 2.28351 209.027C2.28351 210.308 2.70398 211.369 3.56488 212.13L3.5848 212.09Z" fill="white"/>
<path d="M3.50478 231.007C2.62385 230.426 1.9432 229.645 1.44267 228.684C0.942147 227.724 0.701782 226.643 0.701782 225.462C0.701782 223.96 1.06224 222.659 1.783 221.518C2.50376 220.377 3.52477 219.516 4.84616 218.896C6.16755 218.275 7.68923 217.955 9.43106 217.955C11.1729 217.955 12.6344 218.275 13.9158 218.896C15.2171 219.516 16.2182 220.397 16.9189 221.518C17.6397 222.639 17.98 223.96 17.98 225.462C17.98 226.623 17.7397 227.684 17.2392 228.684C16.7387 229.665 16.058 230.446 15.1771 231.027L14.216 229.665C14.8767 229.205 15.3973 228.584 15.7977 227.824C16.1982 227.043 16.3983 226.262 16.3983 225.462C16.3983 224.321 16.098 223.34 15.5375 222.459C14.9568 221.598 14.1359 220.917 13.0948 220.437C12.0537 219.957 10.8326 219.716 9.4511 219.716C8.06965 219.716 6.7882 219.957 5.72709 220.437C4.66597 220.917 3.80507 221.578 3.22446 222.459C2.62382 223.32 2.32361 224.321 2.32361 225.462C2.32361 226.262 2.52379 227.043 2.92421 227.804C3.32463 228.544 3.8652 229.185 4.54591 229.665L3.52482 231.027L3.50478 231.007Z" fill="white"/>
<path d="M0.982117 239.294V237.572H16.0781V232.308H17.6797V244.539H16.0781V239.294H0.982117Z" fill="white"/>
<path d="M17.6797 248.462H0.982117V246.76H17.6797V248.462Z" fill="white"/>
<path d="M1.74288 254.948C2.46363 253.847 3.46471 252.986 4.76608 252.386C6.06745 251.785 7.5891 251.485 9.33094 251.485C11.0728 251.485 12.5743 251.785 13.8957 252.386C15.197 252.986 16.2181 253.847 16.9189 254.948C17.6396 256.049 17.9799 257.35 17.9799 258.831C17.9799 260.313 17.6196 261.614 16.9189 262.715C16.1981 263.816 15.197 264.677 13.8957 265.277C12.5943 265.878 11.0728 266.178 9.33094 266.178C7.5891 266.178 6.08747 265.878 4.76608 265.277C3.46471 264.677 2.44361 263.816 1.74288 262.715C1.02212 261.614 0.681824 260.313 0.681824 258.831C0.681824 257.35 1.04214 256.069 1.74288 254.968V254.948ZM3.14438 261.754C3.72499 262.595 4.54581 263.255 5.60693 263.716C6.66804 264.176 7.90942 264.416 9.3109 264.416C10.7124 264.416 11.9536 264.176 13.0147 263.716C14.0759 263.255 14.8967 262.595 15.4773 261.754C16.0579 260.913 16.3383 259.932 16.3383 258.811C16.3383 257.69 16.0379 256.709 15.4773 255.869C14.8967 255.028 14.0759 254.367 13.0147 253.927C11.9536 253.467 10.7124 253.246 9.3109 253.246C7.90942 253.246 6.66804 253.467 5.60693 253.927C4.54581 254.387 3.72499 255.028 3.14438 255.869C2.56376 256.709 2.28348 257.69 2.28348 258.811C2.28348 259.932 2.56376 260.913 3.14438 261.754Z" fill="white"/>
<path d="M0.982117 270.862V269.161H17.6797V270.922L4.02536 279.89V280.01H17.6797V281.712H0.982117V279.95L14.6565 270.982V270.862H0.982117Z" fill="white"/>
</svg>
