<svg width="508" height="123" viewBox="0 0 508 123" fill="none" xmlns="http://www.w3.org/2000/svg">
<path d="M43.4799 106.7V111.96H24.7899V122.25H19.0699V111.96H0.929932V106.7H19.0699V102.5H5.54993V81.22H38.64V102.5H25.9899C25.8999 102.87 25.5299 103.05 24.7899 103.19V106.7H43.4799ZM10.9899 86.07V89.58H32.9099V86.07H10.9899ZM10.9899 94.1V97.61H32.9099V94.1H10.9899Z" fill="white"/>
<path d="M72.0901 111.92C71.0701 115.61 69.55 119.58 66.97 122.17L62.54 119.4C64.89 117.18 66.5601 113.68 67.4301 110.31L72.0901 111.93V111.92ZM105.6 103.43H74.6301V105.51H100.43L101.58 105.37L104.53 105.83C104.53 106.25 104.44 106.75 104.35 107.26C103.75 115.75 103.1 119.26 101.9 120.64C100.84 121.75 99.7301 122.3 95.9001 122.3C95.1201 122.3 94.24 122.3 93.36 122.25C93.31 120.91 92.7601 119.02 92.0701 117.82C93.7801 118 95.3001 118 95.9901 118C96.6801 118 97.05 117.91 97.47 117.54C98.07 116.85 98.6201 114.63 98.9901 109.42H69.1301V82.1899H79.8801C80.3401 80.8999 80.7601 79.56 80.9901 78.45L88.0101 79.5599C87.8701 79.9299 87.55 80.1099 86.86 80.1599L85.8 82.1899H99.0901V97.5599H74.6301V99.59H105.6V103.42V103.43ZM74.86 120.79C75 118.53 74.63 114.93 73.98 112.16L78.5001 111.47C79.2801 114.19 79.7001 117.79 79.7001 120.06L74.85 120.8L74.86 120.79ZM93.6501 86.03H74.6301V88.1099H93.6501V86.03ZM74.6301 93.7399H93.6501V91.52H74.6301V93.7399ZM83.54 119.91C83.36 117.83 82.4801 114.56 81.5101 112.06L85.7101 111.04C86.7701 113.49 87.7901 116.67 88.0601 118.66L83.54 119.91ZM91.5201 117.42C91.0601 115.76 89.8601 113.17 88.7001 111.24L92.6201 109.85C93.8201 111.7 95.11 114.23 95.67 115.85L91.5201 117.42Z" fill="white"/>
<path d="M161.91 109.2L165.42 111C165.28 111.28 165 111.37 164.77 111.55C163.39 113.49 161.4 115.24 158.86 116.67C161.91 117.32 165.37 117.73 169.01 117.92C167.99 119.03 166.75 121.01 166.1 122.35C161.02 121.89 156.5 120.92 152.58 119.49C148.8 120.78 144.32 121.75 139.24 122.44C138.73 121.24 137.58 119.49 136.61 118.42C140.53 118.05 144.04 117.45 147.09 116.71C145.94 115.97 144.87 115.14 143.91 114.26C142.57 114.91 141.14 115.51 139.57 116.11C138.92 115 137.54 113.43 136.57 112.74C141.42 111.36 145.11 109.42 147.42 107.39C146.45 106.84 146.13 105.82 146.08 104.21C144.88 105.83 143.31 107.58 141.6 108.78L138.32 106.15C139.15 105.69 139.98 105.04 140.77 104.35H137.26V97.6999H141.51V86.1599H149.03C149.21 85.6499 149.35 85.0999 149.45 84.5399H138.7V81.3599C138.52 81.4099 138.28 81.4099 138.01 81.4099C137.04 84.2699 135.93 87.1799 134.69 89.9899L136.08 90.4099C135.99 90.8299 135.62 91.0999 134.88 91.2399V122.35H129.62V99.5499C128.6 101.17 127.54 102.69 126.44 104.03C126.02 102.64 124.82 99.5499 124.13 98.1699C127.64 93.8299 131.15 86.2599 133.27 78.8799L138.72 80.6799V80.5899H167.8V84.5599H155.11C154.93 85.0699 154.69 85.6199 154.42 86.1799H164.57V97.7198H168.49V104.37H165.67C166.41 105.2 167.06 106.03 167.52 106.72L163.83 108.66C163.23 107.6 162.03 106.17 160.78 104.83C160.41 107.28 159.3 108.01 156.63 108.01H153.58C153.4 108.19 153.07 108.29 152.66 108.33L151.55 109.35H161.06L161.94 109.21L161.91 109.2ZM146.08 101.58L151.3 101.9C150.84 101.53 150.42 101.16 150.01 100.84H141.98V103.1C142.4 102.59 142.81 102.08 143.13 101.62L146.08 103.24V101.58ZM159.37 88.8399H146.45V90.2699H159.37V88.8399ZM159.37 94.0099V92.4899H146.45V94.0099H159.37ZM146.45 96.2198V97.6999H159.37V96.2198H146.45ZM148.25 112.47C149.54 113.44 151.07 114.27 152.87 114.96C154.72 114.22 156.29 113.39 157.53 112.47H148.25ZM156 105.04C156.92 105.04 157.15 104.81 157.34 103.47C158.03 103.84 159.37 104.25 160.43 104.49C160.01 104.03 159.55 103.57 159.14 103.2L162.6 101.4C162.92 101.68 163.2 101.91 163.52 102.23V100.85H155.44C156.18 101.5 156.78 102.14 157.19 102.74L153.87 104.68C153.36 103.94 152.44 102.97 151.47 102.1C151.38 102.38 151.05 102.52 150.41 102.65V103.94C150.41 104.91 150.69 105.05 151.93 105.05H155.99L156 105.04Z" fill="white"/>
<path d="M198.41 112.38C197.12 115.93 195.18 119.26 191.63 121.33L187.25 118.1C190.34 116.48 192.51 113.67 193.62 110.58L198.42 112.38H198.41ZM206.21 88.0099V86.2999H188.26V82.0999H206.21V78.6799L212.9 79.0499C212.85 79.5099 212.48 79.7899 211.65 79.9299V82.0999H229.93V86.2999H211.65V88.0099H224.67V101.63H221.85C224.71 103.25 227.48 105.23 229.14 106.8L225.31 109.75C224.66 109.1 223.88 108.41 223 107.72C218.8 107.9 214.55 108.04 210.45 108.18C212.2 109.38 213.87 110.72 214.79 111.87L210.91 115.05C209.71 113.34 206.85 111.08 204.4 109.56L205.92 108.36L191.8 108.73C191.71 109.1 191.34 109.38 190.97 109.42L188.94 104.11C191.39 104.16 203.48 104.11 206.2 104.11V101.62H193.41V87.9999H206.2L206.21 88.0099ZM198.64 91.4299V93.2299H206.21V91.4299H198.64ZM198.64 98.21H206.21V96.4099H198.64V98.21ZM205.1 115.61C205.1 116.86 205.47 116.95 207.45 116.95H213.36C214.93 116.95 215.25 116.53 215.48 113.81C216.54 114.59 218.8 115.33 220.28 115.61C219.63 120.5 218.11 121.7 213.96 121.7H206.81C200.95 121.7 199.61 120.27 199.61 115.65V110.57L206.35 110.94C206.26 111.4 205.93 111.68 205.1 111.82V115.61ZM219.18 91.4199H211.66V93.2199H219.18V91.4199ZM211.66 96.4099V98.21H219.18V96.4099H211.66ZM211.66 104.07L217.61 104.02C216.69 103.47 215.81 103 214.93 102.59L216.36 101.62H211.65V104.07H211.66ZM226.01 121.19C224.72 118.65 221.44 115.1 218.3 112.65L222.68 110.02C225.82 112.28 229.28 115.65 230.76 118.33L226.01 121.19Z" fill="white"/>
<path d="M284.03 111.97C285.88 111.6 287.77 111.19 289.71 110.77C288.79 109.29 287.77 107.86 286.76 106.57L291.1 104.31C294.1 107.96 297.38 112.89 298.67 116.31L293.96 118.89C293.59 117.78 292.99 116.54 292.3 115.2C287.18 116.68 282.05 118.06 278.59 118.99C278.5 119.45 278.17 119.77 277.85 119.87L275.68 113.59C276.6 113.45 277.62 113.22 278.77 113.04V81.0499H296.13V103.9H284.04V111.98L284.03 111.97ZM291 86.1699H284.03V89.96H291V86.1699ZM284.03 98.77H291V94.89H284.03V98.77ZM317.49 80.95V109.1C317.49 114.45 315.37 115.65 308.44 115.65C308.25 113.99 307.38 111.22 306.55 109.65C307.66 109.74 308.77 109.74 309.64 109.74C311.53 109.74 311.72 109.74 311.72 108.96V86.53H305.12V122.26H299.44V80.95H317.49Z" fill="white"/>
<path d="M348.27 78.7299L354.55 79.0999C354.5 79.5199 354.18 79.7899 353.35 79.8799V122.25H348.27V106.46H345.13C345.13 110.25 344.62 117.54 341.9 122.29C340.93 121.6 338.81 120.63 337.56 120.17C340.01 116.02 340.33 109.78 340.33 106.46H338.02V101.66H348.27V96.5799H344.67V98.0999H339.87V81.0199L345.78 81.3399C345.73 81.7599 345.46 82.0799 344.67 82.1699V91.8199H348.27V78.7099V78.7299ZM381.55 102.45V107.3H376.01V116.3C376.01 121.05 374.63 122.3 366.13 122.3C365.95 120.73 365.25 118.47 364.56 116.9C366.78 116.99 369.13 116.99 369.82 116.99C370.51 116.99 370.74 116.81 370.74 116.21V107.3H361.55C363.63 109.47 366.03 112.47 367.04 114.5L362.52 117.27C361.55 115.15 359.29 111.96 357.21 109.65L361.32 107.3H354.77V102.45H357.36C356.76 101.25 355.61 99.6799 354.73 98.7599C357.31 98.1099 359.9 97.2399 362.25 96.0799C361.28 95.0599 360.17 94.0999 359.16 93.3099L362.34 90.9099C363.54 91.7399 364.88 92.8899 365.99 93.9599C366.73 93.4499 367.47 92.9399 368.21 92.3399C367.01 91.3199 365.58 90.2599 364.24 89.4799L367.01 86.8499C368.35 87.5899 369.87 88.5999 371.12 89.6199C372.04 88.5999 372.87 87.4999 373.57 86.2999H365.77C363.14 88.9299 360.09 91.3799 357 93.1299C356.22 92.2099 354.51 90.5899 353.49 89.8099C358.52 87.3599 363.09 82.8399 365.54 78.6399L371.54 80.0199C371.4 80.3399 371.03 80.6199 370.43 80.6199C370.01 81.2699 369.51 81.9599 369 82.5999H376.25L377.13 82.4199L380.68 84.0399C380.54 84.3199 380.31 84.4999 380.08 84.6899C376.34 93.8799 368.03 99.4599 358.43 102.46H370.75V96.9199L377.21 97.1999C377.16 97.6199 376.89 97.9399 376.01 98.0799V102.46H381.55V102.45Z" fill="white"/>
<path d="M419.67 82.1C419.49 82.47 419.02 82.75 418.33 82.65C415.42 89.2 410.85 96.03 406.1 100.42C404.95 99.27 402.59 97.42 401.11 96.5C405.73 92.76 410.11 86.12 412.56 79.75L419.67 82.1ZM424.89 97.65C424.71 98.11 424.15 98.34 423.37 98.43C421.48 103.37 418.52 109.41 415.71 114.31C420.83 114.17 426.42 113.99 431.96 113.76C430.21 110.99 428.27 108.22 426.47 105.87L431.87 103.38C435.93 108.41 440.32 114.97 442.58 119.44L436.81 122.49C436.35 121.38 435.7 120.14 434.96 118.8C424.21 119.54 413.13 120.09 405.79 120.46C405.7 120.92 405.28 121.15 404.87 121.2L402.65 114.69L409.39 114.5C412.44 109.01 415.67 101.53 417.47 95.67L424.9 97.65H424.89ZM431.21 79.83C433.93 85.28 439.24 91.78 443.49 95.71C442.01 96.86 439.89 99.03 438.83 100.56C434.45 95.85 429.09 88.51 425.68 82.1L431.22 79.84L431.21 79.83Z" fill="white"/>
<path d="M482.81 96.96H470.26V122.25H464.86V80.48H482.81V96.96ZM477.59 84.45H470.25V86.8H477.59V84.45ZM470.25 92.99H477.59V90.4H470.25V92.99ZM496.37 111.77H491.2V121.42H486.35V111.77H481.78C481.23 114.72 479.61 119.2 475.87 121.74C475.13 120.77 473.42 119.25 472.36 118.51C475.18 116.66 476.51 113.99 477.02 111.77H472.4V107.25H477.29V103.74H473.09V99.36H495.57V103.74H491.19V107.25H496.36V111.77H496.37ZM482.02 107.25H486.36V103.74H482.02V107.25ZM504.13 80.48V115.79C504.13 121.1 502.15 122.11 494.3 122.11C494.12 120.59 493.38 118.05 492.64 116.62C493.84 116.67 495.13 116.71 496.15 116.71C498.46 116.71 498.69 116.71 498.69 115.74V97.05H485.86V80.48H504.14H504.13ZM498.68 84.45H491.11V86.8H498.68V84.45ZM491.11 93.08H498.68V90.4H491.11V93.08Z" fill="white"/>
<path d="M38.28 2.43997V16.12C38.28 16.75 37.45 16.68 37.45 16.05C36.34 8.61996 31.75 1.11996 23.21 1.11996C16.82 1.11996 14.25 4.37996 13.14 6.39996C10.57 10.78 10.22 20.36 10.22 26.82C10.22 36.96 10.64 41.48 12.44 45.64C14.11 49.74 17.3 51.75 23.14 51.75C30.5 51.75 36.75 47.79 38.77 37.37C38.84 36.88 39.6 36.88 39.6 37.51V51.4C39.6 51.68 39.46 51.82 39.18 51.82C38.35 51.82 38.9 50.57 36.05 50.57C33.48 50.57 29.66 52.58 23.48 52.58C10.49 52.58 0.280029 43.06 0.280029 27.44C0.280029 10.28 13.34 0.209961 23.13 0.209961C26.19 0.209961 27.92 1.03995 31.67 2.35995C37.71 4.71995 36.88 2.00998 37.85 2.00998C38.13 2.00998 38.27 2.14996 38.27 2.42996L38.28 2.43997Z" fill="white"/>
<path d="M70.65 0.419922C82.25 0.419922 94.54 10.6299 94.54 26.3999C94.54 42.1699 81.83 52.3799 70.65 52.3799C59.47 52.3799 46.76 42.1699 46.76 26.3999C46.76 10.6299 59.05 0.419922 70.65 0.419922ZM60.16 46.6099C62.38 50.2199 66.2 51.5399 70.65 51.5399C75.1 51.5399 78.92 50.2199 81.14 46.6099C84.68 41.0499 84.68 29.8699 84.68 26.3999C84.68 22.9299 84.61 12.0199 81.14 6.18991C78.99 2.57991 75.1 1.25992 70.65 1.25992C66.2 1.25992 62.31 2.57991 60.16 6.18991C56.69 12.0199 56.62 22.8599 56.62 26.3999C56.62 29.9399 56.62 41.0499 60.16 46.6099Z" fill="white"/>
<path d="M106.63 50.2898C106.91 50.2898 107.05 50.1498 107.05 49.8698V2.56982C107.05 2.28982 106.91 2.14981 106.63 2.14981H101.07C100.51 2.14981 100.51 1.31982 101.07 1.31982H116.21C116.42 1.31982 116.56 1.45983 116.63 1.66983L126.7 36.3298C126.77 36.6798 127.26 36.6798 127.46 36.3298L140.45 1.59982C140.52 1.38982 140.66 1.31982 140.8 1.31982H155.8C156.36 1.31982 156.36 2.14981 155.8 2.14981H150.24C149.96 2.14981 149.82 2.28982 149.82 2.56982V49.8698C149.82 50.1498 149.96 50.2898 150.24 50.2898H155.8C156.36 50.2898 156.36 51.1898 155.8 51.1898H135.31C134.75 51.1898 134.75 50.2898 135.31 50.2898H140.73C141.01 50.2898 141.15 50.1498 141.15 49.8698V4.51981C141.15 4.02981 140.59 3.88982 140.39 4.37982L123.17 50.5698C122.96 50.9198 122.54 50.9198 122.34 50.5698L108.66 4.93982C108.45 4.44982 107.83 4.51983 107.83 5.00983V49.8798C107.83 50.1598 107.97 50.2998 108.25 50.2998H113.95C114.51 50.2998 114.51 51.1998 113.95 51.1998H101.1C100.54 51.1998 100.54 50.2998 101.1 50.2998H106.66L106.63 50.2898Z" fill="white"/>
<path d="M168.09 50.2898C168.37 50.2898 168.51 50.1498 168.51 49.8698V2.56982C168.51 2.28982 168.37 2.14981 168.09 2.14981H162.67C162.11 2.14981 162.11 1.31982 162.67 1.31982H183.09C183.65 1.31982 183.65 2.14981 183.09 2.14981H177.6C177.32 2.14981 177.18 2.28982 177.18 2.56982V49.8698C177.18 50.1498 177.32 50.2898 177.6 50.2898H183.09C183.65 50.2898 183.65 51.1898 183.09 51.1898H162.67C162.11 51.1898 162.11 50.2898 162.67 50.2898H168.09Z" fill="white"/>
<path d="M195.46 50.2898C195.74 50.2898 195.88 50.1498 195.88 49.8698V2.56982C195.88 2.28982 195.74 2.14981 195.46 2.14981H190.04C189.48 2.14981 189.48 1.31982 190.04 1.31982H202.89C203.03 1.31982 203.17 1.38982 203.24 1.52982L226.86 34.7298C227.07 35.0098 227.62 34.9398 227.62 34.4498V2.56982C227.62 2.28982 227.48 2.14981 227.2 2.14981H221.85C221.29 2.14981 221.29 1.31982 221.85 1.31982H234.35C234.91 1.31982 234.91 2.14981 234.35 2.14981H228.93C228.65 2.14981 228.51 2.28982 228.51 2.56982V50.4298C228.51 50.9198 227.95 50.9898 227.75 50.6398L197.54 8.26981C197.33 7.98981 196.85 8.0598 196.85 8.5498V49.8798C196.85 50.1598 196.99 50.2998 197.27 50.2998H202.62C203.18 50.2998 203.18 51.1998 202.62 51.1998H190.05C189.49 51.1998 189.49 50.2998 190.05 50.2998H195.47L195.46 50.2898Z" fill="white"/>
<path d="M274.5 33.2796C274.5 32.9996 274.36 32.8596 274.08 32.8596H267.14C266.58 32.8596 266.58 32.0296 267.14 32.0296H289.09C289.65 32.0296 289.65 32.8596 289.09 32.8596H283.53C283.25 32.8596 283.11 32.9996 283.11 33.2796V49.6696C283.11 49.8796 283.04 50.0196 282.9 50.0896C282.27 50.2996 281.93 48.8396 279.36 48.8396C276.37 48.8396 272.62 52.4496 264.29 52.4496C250.4 52.4496 240.88 42.3096 240.88 27.3096C240.88 10.0796 253.94 0.0795898 263.73 0.0795898C266.92 0.0795898 268.59 0.839607 272.27 2.15961C274.77 3.19961 277.41 3.8996 278.1 2.0896C278.31 1.5996 278.93 1.73961 278.93 2.22961V15.9796C278.93 16.5396 278.1 16.6696 278.1 15.9096C276.99 8.33961 272.4 0.8396 263.79 0.8396C257.4 0.8396 255.04 4.16961 253.72 6.18961C251.15 10.4296 250.8 20.2196 250.8 26.6796C250.8 36.7496 251.15 41.3296 253.02 45.5696C254.69 49.5296 257.95 51.6796 263.72 51.6796C273.44 51.6796 274.49 47.5796 274.49 42.4396V33.2696L274.5 33.2796Z" fill="white"/>
<path d="M311.93 51.3398V34.4598C311.93 33.8998 312.69 33.8298 312.76 34.3898C314.08 44.5298 321.23 51.6798 328.53 51.6798C334.29 51.6798 339.92 48.5498 339.92 42.1598C339.92 36.3998 336.38 34.6598 326.31 29.7998C318.25 25.9798 313.74 23.6198 313.74 15.6298C313.74 7.63982 319.92 0.0698242 327.98 0.0698242C330.55 0.0698242 332.22 0.62983 334.79 1.66983C337.01 2.56983 338.89 2.84983 339.51 0.699829C339.72 0.209829 340.34 0.279806 340.34 0.769806V13.8998C340.34 14.4598 339.51 14.5898 339.51 13.8298C338.75 8.0598 335.13 0.839813 327.7 0.839813C324.02 0.839813 318.53 2.98981 318.53 9.23981C318.53 15.8398 323.32 18.2698 332.56 22.5098C339.37 25.6398 345.06 28.2098 345.06 36.1898C345.06 44.6598 337.07 52.4398 328.53 52.4398C321.65 52.4398 318.94 49.7298 315.54 49.7298C312.41 49.7298 313.18 51.7398 312.34 51.7398C312.06 51.7398 311.92 51.5998 311.92 51.3198L311.93 51.3398Z" fill="white"/>
<path d="M376.8 0.419922C388.4 0.419922 400.69 10.6299 400.69 26.3999C400.69 42.1699 387.98 52.3799 376.8 52.3799C365.62 52.3799 352.91 42.1699 352.91 26.3999C352.91 10.6299 365.2 0.419922 376.8 0.419922ZM366.31 46.6099C368.53 50.2199 372.35 51.5399 376.8 51.5399C381.25 51.5399 385.07 50.2199 387.29 46.6099C390.83 41.0499 390.83 29.8699 390.83 26.3999C390.83 22.9299 390.76 12.0199 387.29 6.18991C385.14 2.57991 381.25 1.25992 376.8 1.25992C372.35 1.25992 368.46 2.57991 366.31 6.18991C362.84 12.0199 362.77 22.8599 362.77 26.3999C362.77 29.9399 362.77 41.0499 366.31 46.6099Z" fill="white"/>
<path d="M432.09 0.419922C443.69 0.419922 455.98 10.6299 455.98 26.3999C455.98 42.1699 443.27 52.3799 432.09 52.3799C420.91 52.3799 408.2 42.1699 408.2 26.3999C408.2 10.6299 420.49 0.419922 432.09 0.419922ZM421.6 46.6099C423.82 50.2199 427.64 51.5399 432.09 51.5399C436.54 51.5399 440.36 50.2199 442.58 46.6099C446.12 41.0499 446.12 29.8699 446.12 26.3999C446.12 22.9299 446.05 12.0199 442.58 6.18991C440.43 2.57991 436.54 1.25992 432.09 1.25992C427.64 1.25992 423.75 2.57991 421.6 6.18991C418.13 12.0199 418.06 22.8599 418.06 26.3999C418.06 29.9399 418.06 41.0499 421.6 46.6099Z" fill="white"/>
<path d="M468.13 50.2898C468.41 50.2898 468.55 50.1498 468.55 49.8698V2.56982C468.55 2.28982 468.41 2.14981 468.13 2.14981H462.71C462.15 2.14981 462.15 1.31982 462.71 1.31982H475.56C475.7 1.31982 475.84 1.38982 475.91 1.52982L499.53 34.7298C499.74 35.0098 500.29 34.9398 500.29 34.4498V2.56982C500.29 2.28982 500.15 2.14981 499.87 2.14981H494.52C493.96 2.14981 493.96 1.31982 494.52 1.31982H507.02C507.58 1.31982 507.58 2.14981 507.02 2.14981H501.6C501.32 2.14981 501.18 2.28982 501.18 2.56982V50.4298C501.18 50.9198 500.62 50.9898 500.42 50.6398L470.21 8.26981C470 7.98981 469.52 8.0598 469.52 8.5498V49.8798C469.52 50.1598 469.66 50.2998 469.94 50.2998H475.29C475.85 50.2998 475.85 51.1998 475.29 51.1998H462.72C462.16 51.1998 462.16 50.2998 462.72 50.2998H468.14L468.13 50.2898Z" fill="white"/>
</svg>
