<svg width="71" height="506" viewBox="0 0 71 506" fill="none" xmlns="http://www.w3.org/2000/svg">
<path d="M30.7087 22.0839V65.2299C30.7087 68.2611 27.6811 69.263 25.439 68.6416V63.8349H8.23664V67.0182C8.23664 69.8084 5.82987 71.2922 2.96704 70.6708V15.9455L7.14726 16.7952C7.84397 16.9474 8.23664 17.3406 8.23664 17.8099H11.0995V8.88133H3.19504C2.02964 8.88133 1.5736 8.25989 0.408203 5.00047H26.6044C27.8458 5.00047 28.6185 4.53121 30.1639 2.83175C31.874 4.45512 32.9507 5.39363 32.9507 6.31945C32.9507 7.94282 31.8613 8.88133 28.9225 8.88133H22.9562V17.8099C23.8809 17.7338 24.6663 17.2645 25.439 16.1865L29.7839 17.5816C32.4187 18.4313 30.7087 20.6127 30.7087 22.0839ZM8.23664 47.8422H25.439V39.8521H24.6663C19.08 39.8521 18.3832 39.0785 18.3832 33.105V21.7034H15.7485C15.3558 33.1938 12.4169 39.7887 8.22404 43.7457V47.8548L8.23664 47.8422ZM10.4788 32.7119C11.0235 29.9978 11.3275 24.6458 11.4035 21.6907H8.22404V39.776C9.23743 37.6834 10.0101 35.1976 10.4661 32.7119H10.4788ZM25.439 59.713V51.9513H8.23664V59.713H25.439ZM15.7485 17.8099H18.3072V8.88133H15.7485V17.8099ZM22.6521 21.6907V34.1069C22.6521 35.4259 23.2729 35.8191 25.439 35.8191V21.6907H22.6521ZM44.7441 1.66495C44.2754 0.815221 44.9721 0.193777 45.8335 0.498159C48.5443 1.51276 51.4958 3.06003 52.8892 4.92437C54.1306 6.54774 53.6619 8.48817 52.5852 9.42668H63.2765C64.5179 9.42668 65.2906 8.72914 66.76 7.18186C68.3941 8.72914 69.6228 9.66765 69.6228 10.7457C69.6228 12.4578 68.0774 13.2314 65.7466 13.2314H33.2674C32.178 13.2314 31.8741 12.61 30.5567 9.42668H49.3931C48.9244 9.1223 48.4683 8.57695 48.0756 7.87941C47.1509 6.33214 45.6688 3.45319 44.7441 1.67763V1.66495ZM70.0915 49.5416C70.0915 51.0889 68.6981 51.9513 66.3673 51.9513H53.4213V65.6865C53.4213 69.6435 49.621 72.2815 47.2269 69.6435C45.6815 67.9313 42.654 66.0797 39.1705 64.9129C38.4738 64.6846 38.5498 63.7461 39.3225 63.7461C41.1846 63.7461 46.5302 64.0505 46.9229 63.8983C47.3916 63.7461 47.3916 63.5939 47.3916 63.2007V51.9513H34.2175C33.0521 51.9513 32.7481 51.1016 31.266 47.9944H47.3916V42.2492L51.8885 43.2638C54.2953 41.4755 56.4615 39.6112 57.2342 38.8375H36.3076C35.0662 38.8375 34.6735 37.8229 33.4448 34.9567H58.7162C60.0336 34.9567 60.8824 34.5635 62.0478 33.3333L64.6065 35.8952C66.3926 37.6834 65.7719 38.4571 64.9992 39.0024C62.9851 40.3975 58.0195 43.0355 53.4466 45.2042V47.9944H64.2138C65.6833 47.9944 66.304 47.5251 67.4694 46.0539C68.8628 47.5251 70.1042 48.6158 70.1042 49.5416H70.0915ZM57.0695 32.3187V29.9851H42.426C41.8053 32.2299 39.6391 33.0162 36.8396 32.547V15.7806L40.8678 16.5543C41.9572 16.7826 42.578 17.1757 42.578 17.4801H54.1306C55.372 17.4801 55.9927 17.0869 57.0821 15.8567L61.6551 17.3279C64.6066 18.2537 62.8205 19.8898 62.8205 21.6019V28.7422C62.8205 32.0016 60.1096 32.6992 57.0821 32.306L57.0695 32.3187ZM57.0695 26.2691V21.2215H42.578V26.2691H57.0695Z" fill="#231815"/>
<path d="M68.1407 129.239C68.1407 130.951 66.3546 131.877 63.9605 131.877H38.537V144.762C38.537 147.869 34.7368 148.871 32.0259 148.326V131.877H4.66441C3.42301 131.877 3.11897 130.862 1.71289 127.768H32.0133V122.175L33.4827 122.479C33.5587 122.479 33.5587 122.403 33.6347 122.327C38.6003 116.277 43.1732 109.441 46.3401 103.087H23.0828L25.9456 104.876C27.6557 105.966 27.8077 106.347 26.5663 107.983C25.9456 108.833 25.2489 109.695 24.4762 110.697C27.7317 112.016 30.2905 113.259 31.9119 114.882C35.7121 118.611 31.2152 123.646 28.1117 119.613C26.6423 117.748 24.6282 114.806 22.9181 112.625C18.9659 117.431 13.7722 122.948 8.57859 126.588C7.65387 127.21 6.71651 126.284 7.41322 125.497C12.6828 119.448 18.6492 110.291 21.8287 103.075H9.0346C7.7932 103.075 7.40057 102.225 6.00715 99.0416H35.4588C34.9141 98.6484 34.3694 98.1158 33.8374 97.2533C32.444 95.0846 31.5952 93.6008 30.5818 91.9013C30.1131 91.1277 30.5818 90.354 31.5952 90.6584C34.154 91.432 36.8649 92.2057 38.651 93.9939C40.1964 95.5412 39.7404 98.027 38.347 99.0416H56.7147C58.1081 99.0416 58.8048 98.344 60.1222 96.8729C61.7436 98.4201 63.0737 99.4347 63.0737 100.525C63.0737 102.149 61.7563 103.087 59.1975 103.087H47.7209L50.5077 105.028C52.1418 106.118 52.2178 106.423 50.9004 107.983C50.0517 108.997 48.8103 110.469 47.2522 112.092C52.8385 114.426 56.702 115.973 58.8048 117.989C63.0737 121.946 59.0328 126.994 55.2453 123.113C51.1411 119.004 48.5822 116.29 45.6307 113.804C42.6792 116.911 39.0436 120.323 35.4714 122.961L37.2576 123.354C38.1063 123.506 38.499 124.052 38.499 124.673V127.78H61.2116C62.605 127.78 63.5424 126.766 65.0118 125.218C66.5572 126.766 68.1153 127.856 68.1153 129.251L68.1407 129.239ZM1.78889 84.3805H20.9293V78.4832L25.6542 79.409C26.6676 79.6373 27.0477 80.0304 27.0477 80.4997V84.3805H43.8699V78.5592L48.5949 79.4851C49.5196 79.6373 49.9883 80.0304 49.9883 80.4997V84.3805H61.6169C63.1624 84.3805 63.7831 83.683 65.2652 82.1357C66.8993 83.683 68.128 84.5454 68.128 85.7883C68.128 87.5004 66.4939 88.2741 64.0238 88.2741H50.001V93.0047C50.001 95.6427 46.8974 96.8094 43.8826 96.1119V88.2741H27.0603V92.155C27.0603 95.5666 24.3495 96.5812 20.942 96.0358V88.2741H4.81642C3.57501 88.2741 3.1823 87.4244 1.78889 84.3932V84.3805Z" fill="#231815"/>
<path d="M66.9752 245.094C65.4298 254.555 64.4924 266.743 57.1326 271.867C55.4225 273.034 53.4845 272.793 52.0911 271.715C50.0009 270.091 46.8214 268.379 45.1113 267.682C44.4906 267.453 44.0979 266.363 45.3393 266.439C53.5604 266.984 53.4718 267.453 56.0306 263.408C57.8167 260.618 59.5901 253.16 60.5275 244.79H20.5365C15.9636 250.991 10.1493 256.902 2.09283 260.858C0.927425 261.404 0.382749 260.161 1.24413 259.463C10.39 251.778 16.3563 243.395 21.0052 234.238C23.1714 229.964 24.8815 225.626 26.2749 221.2H7.90719C6.66579 221.2 6.12107 219.653 5.12035 217.167H27.4403C28.7577 212.119 29.6824 207.161 30.3031 202.189L34.1033 203.508C36.0415 204.205 36.6621 204.599 36.4341 205.994C36.2821 207.161 35.5854 211.498 34.0273 217.167H45.884C47.2014 217.167 47.7461 216.698 48.8355 215.544L52.015 217.877C53.9531 219.348 54.0291 220.287 53.1044 221.441C50.6976 224.472 49.0762 226.869 46.7454 229.507H52.2431C53.5605 229.507 54.4851 229.038 55.4985 227.96L58.678 230.522C60.6921 232.158 60.5402 232.691 59.5268 233.933C57.5887 236.178 55.8786 238.207 53.5604 240.604H57.7407C59.0581 240.604 60.0715 239.831 60.9962 238.664L65.6451 240.757C69.1286 242.304 67.1146 244.168 66.9626 245.107L66.9752 245.094ZM19.7765 253.16C19.1558 258.056 18.6111 265.031 15.0515 268.988C11.0233 273.414 6.29841 269.064 9.78194 265.424C12.7208 262.317 16.1409 257.891 18.2311 253.008C18.6238 252.158 19.7005 252.463 19.7765 253.16ZM13.3415 203.888C12.9488 202.963 13.8861 202.569 14.6589 202.963C17.6104 204.358 19.8525 205.524 21.8666 208.467C24.5774 212.5 19.9285 218.093 17.1417 212.348C15.2036 208.391 14.1902 205.981 13.3415 203.888ZM23.5007 240.592H49.6969C50.9383 238.423 51.863 236.318 53.0284 233.68H27.681C26.9843 234.999 26.2115 236.318 25.4388 237.561C24.8181 238.575 24.1974 239.577 23.5007 240.592ZM32.1019 263.015C32.5706 268.443 26.2875 270.079 26.0595 264.651C25.9075 260.694 25.9075 256.42 25.5148 252.78C25.4388 251.765 26.0596 250.991 26.9083 252.006C29.3151 254.796 31.7852 259.146 32.1019 263.027V263.015ZM32.7986 221.187C31.9498 223.825 30.9364 226.616 29.695 229.495H43.1098C44.3512 227.009 45.352 224.447 46.6694 221.187H32.7986ZM43.6545 258.208C45.1999 262.558 40.247 265.652 38.6129 261.391C36.9788 257.206 35.6614 253.477 34.6607 250.763C34.4327 250.142 35.2054 249.292 35.9021 249.749C39.0056 251.841 42.4131 254.631 43.6545 258.208ZM49.8489 256.889C47.5181 253.312 45.6686 250.37 44.3512 248.43C43.7305 247.58 44.4273 246.882 45.276 247.187C48.4555 248.353 52.015 249.977 54.0291 252.856C56.6639 256.584 52.4837 260.922 49.8489 256.889Z" fill="#231815"/>
<path d="M63.7199 289.014C57.6775 293.44 48.0629 298.716 39.5378 302.521V345.198C39.5378 349.472 34.9649 352.186 32.0134 349.383C28.2132 345.73 24.1089 344.335 21.7021 343.562C20.7774 343.257 20.8534 342.166 21.8541 342.166C24.7169 342.166 31.3167 342.484 32.0134 342.243C32.4821 342.09 32.6341 341.773 32.6341 341.469V298.868L38.0557 300.035C38.1317 300.035 38.2077 300.111 38.2837 300.111C44.8708 295.926 51.0778 290.802 54.0926 288.088H7.97069C6.34926 288.088 5.95657 286.452 4.63916 283.51H54.3966C56.5627 283.51 57.5762 283.205 59.2736 281.886L62.6051 285.374C64.8473 287.784 64.6952 288.24 63.6945 289.027L63.7199 289.014Z" fill="#231815"/>
<path d="M34.0403 377.17C34.0403 378.794 32.6468 379.656 30.088 379.656H21.4109V385.16C26.2878 388.115 29.0873 389.815 31.2534 392.377C34.9777 396.803 30.6327 401.927 27.6939 397.729C24.9831 393.772 23.197 390.905 21.4109 388.496V423.106C21.4109 426.835 18.3833 427.989 15.2925 427.292V390.436C12.341 399.048 7.46409 408.281 1.87777 413.1C1.02906 413.797 0.167622 412.872 0.636315 412.085C3.96784 406.657 6.67872 400.367 9.00952 394C11.0236 388.407 12.189 384.298 13.0377 379.643H3.89184C2.57444 379.643 2.1818 378.794 0.864396 375.61H15.2798V357.766L20.0808 358.692C20.9295 358.844 21.3982 359.313 21.3982 359.782V375.61H27.9092C29.2266 375.61 29.8474 375.065 31.1648 373.594C32.8749 375.141 34.0276 376.156 34.0276 377.158L34.0403 377.17ZM65.354 369.18V422.954C65.354 426.518 62.4912 427.457 59.1597 426.987V420.545H42.1854V423.652C42.1854 427.139 38.4612 427.837 35.9784 427.216V362.801L40.944 363.815C41.8687 363.968 42.1854 364.513 42.1854 364.83H55.9041C57.2976 364.83 58.0703 364.133 59.1597 362.966L64.5053 364.678C67.3682 365.604 65.354 367.544 65.354 369.18ZM42.1727 368.952V381.99H59.147V368.952H42.1727ZM42.1727 386.099V399.136H59.147V386.099H42.1727ZM59.147 416.359V403.246H42.1727V416.359H59.147Z" fill="#231815"/>
<path d="M2.10547 438.63H37.4474C38.7648 438.63 39.4616 437.932 40.855 436.461C42.4764 438.008 43.8065 438.63 43.8065 440.025C43.8065 441.813 42.3371 442.435 39.6263 442.435H36.4467V467.889C36.4467 470.527 33.7359 471.846 30.4044 471.376V464.934C23.4246 466.798 14.2029 468.814 8.46452 470.057C6.2984 470.527 6.13369 470.374 3.04284 465.555C5.82967 465.251 9.00922 464.934 12.1887 464.629V442.435H4.98099C3.81559 442.435 3.35955 441.737 2.11815 438.63H2.10547ZM29.1503 492.949C33.3306 497.135 29.847 503.032 25.5021 497.68C23.488 495.194 21.5499 492.632 19.3078 489.69C14.7349 495.118 8.76848 500.787 3.65085 503.197C2.48545 503.742 1.78876 502.728 2.63748 501.954C8.9205 495.752 15.8116 486.9 19.4598 478.517L22.7913 480.609C24.4254 481.624 24.7294 482.156 24.1847 483.095C23.336 484.49 22.2466 486.05 21.0052 487.597C24.2607 489.309 26.8955 490.705 29.1376 492.949H29.1503ZM38.9929 475.803V501.409C38.9929 504.275 36.5101 506.063 32.7098 505.213V476.272C24.8814 476.893 14.3421 476.969 9.84522 476.5C8.60382 476.348 7.98312 474.877 9.84522 474.788C16.0396 474.395 23.716 473.862 32.4058 472.695C43.5658 471.224 51.4703 469.512 55.8912 467.965L58.222 470.374C59.7674 471.922 59.7674 472.543 58.146 473.012C54.1178 474.103 47.6827 474.953 39.0056 475.803H38.9929ZM30.3918 442.435H18.2184V447.013H30.3918V442.435ZM30.3918 450.742H18.2184V455.32H30.3918V450.742ZM30.3918 462.613V459.049H18.2184V463.932C22.6393 463.538 26.8956 463.082 30.3918 462.613ZM38.8409 443.132H58.9187C60.2361 443.132 60.8568 443.056 61.8702 442.042L64.0364 444.134C65.7464 445.77 66.1264 446.303 65.4297 447.47C63.3396 451.122 60.8568 454.534 58.07 457.476C61.5535 459.569 64.1883 461.433 65.2777 462.359C69.6226 466.24 66.5951 471.288 62.2502 467.559C60.0081 465.618 57.1326 463.285 54.1938 460.964C49.8489 464.616 44.8199 467.331 39.0816 469.03C38.0682 469.347 37.4475 468.104 38.4609 467.559C43.6545 464.616 47.6827 461.661 51.0142 458.478C46.834 455.143 42.9578 452.276 41.1717 450.957C40.0063 450.108 40.399 449.017 41.8684 449.562C46.1373 451.11 50.3176 453.215 53.9658 455.155C56.0559 452.67 57.8419 449.955 59.3874 447.013H41.7924C40.627 447.013 40.1583 446.316 38.8409 443.132ZM70.1546 498.847L67.9886 500.09C65.5058 501.485 65.3537 501.726 62.9469 499.696C59.7674 496.982 56.5879 493.254 53.4084 488.904C50.3809 493.089 46.5047 497.363 41.7797 500.394C40.6143 501.092 39.9176 500.166 40.7664 499.151C45.1873 493.799 50.7609 484.021 53.7124 476.335L57.5886 478.669C58.982 479.518 59.134 479.988 58.602 480.837C57.5886 482.461 56.5119 484.401 55.1945 486.342C58.9187 489.906 64.961 495.029 70.0026 497.591C70.7754 497.984 70.8514 498.441 70.1546 498.834V498.847Z" fill="#231815"/>
</svg>
