<svg width="298" height="133" viewBox="0 0 298 133" fill="none" xmlns="http://www.w3.org/2000/svg">
<path d="M39.7102 117.2C41.1002 117.69 42.8602 118.59 43.7702 119.33L42.1702 121.65C41.3402 120.88 39.6002 119.89 38.2002 119.28L39.7102 117.19V117.2ZM38.7802 130.79C39.8702 128.98 41.3802 126.04 42.5402 123.3L44.7402 124.97C43.7202 127.43 42.5102 130 41.5402 131.81C41.6602 131.97 41.7002 132.14 41.7002 132.27C41.7002 132.4 41.6802 132.53 41.6102 132.62L38.7802 130.79ZM43.4002 115.46C42.5702 114.67 40.8002 113.63 39.4102 113L40.9602 110.91C42.3302 111.47 44.1402 112.39 45.0202 113.18L43.4002 115.45V115.46ZM60.1502 121.72V124.11H58.4602V128.73H55.7902V127.89H53.1702V129.91C53.1702 132.35 52.1002 132.69 47.9302 132.69C47.8102 131.97 47.4402 130.93 47.0902 130.23C47.7602 130.25 48.5302 130.28 49.1102 130.28C50.4102 130.28 50.5002 130.28 50.5002 129.84V127.89H46.4902V125.59H50.5002V124.11H44.7002V121.72H50.5002V120.26H46.7202V118.45C46.5602 118.71 46.3902 118.94 46.2302 119.15C45.7402 118.69 44.7902 117.97 44.2102 117.57C45.2102 116.27 46.2002 114.04 46.7602 112.05L48.4502 112.56C51.4402 112.19 54.6002 111.56 56.5402 110.82L58.6702 112.84C58.6002 112.93 58.5102 112.93 58.0902 112.93C55.7002 113.72 52.0102 114.34 48.6502 114.69C48.1902 115.83 47.6102 116.96 47.0302 117.96H51.2002C51.0802 117.06 50.7402 115.83 50.3402 114.9L52.6602 114.23C53.1502 115.23 53.5602 116.53 53.7002 117.43L51.9602 117.96H57.3402C56.7602 116.78 55.8802 115.41 55.0202 114.34L57.1502 113.23C58.3802 114.58 59.5402 116.41 60.0502 117.68L58.4302 118.61V121.72H60.1202H60.1502ZM53.1702 120.26V121.72H55.7902V120.26H53.1702ZM55.7902 125.59V124.11H53.1702V125.59H55.7902Z" fill="white"/>
<path d="M68.1304 124.58C66.4104 125.39 64.4704 126.09 62.5604 126.58C62.3004 125.98 61.7904 124.98 61.4004 124.47C65.2704 123.66 69.1004 121.92 71.0704 119.92L74.3604 120.01C74.2904 120.2 74.1104 120.33 73.8004 120.36C76.0304 122.31 80.0404 123.61 83.5004 124.19C82.9704 124.82 82.4604 125.79 82.1304 126.46C80.4404 126.09 78.4904 125.42 76.6804 124.6V125.5H68.1204V124.57L68.1304 124.58ZM64.6004 116.14V118.74H62.1404V114.38H70.9504V113.61H63.7104V111.62H80.9704V113.61H73.6904V114.38H82.6904V118.74H80.1204V116.14H73.7004V119.64H70.9604V116.14H64.6004ZM79.8604 126.41V129.24C79.8604 131.1 79.2804 131.72 75.4504 131.65C75.2604 130.98 74.8504 130.1 74.5004 129.54C74.9604 129.54 75.4504 129.56 75.8704 129.56C77.1704 129.56 77.1704 129.54 77.1704 129.24V128.29H72.2804V132.72H69.5904V128.29H64.2104V126.41H79.8704H79.8604ZM64.8504 120.64V119.11H70.2304V120.64H64.8504ZM65.3604 116.88H70.2104V118.39H65.3604V116.88ZM74.8904 123.7C73.8904 123.14 72.9904 122.52 72.2904 121.89C71.6404 122.52 70.7804 123.12 69.8104 123.7H74.8904ZM74.4304 116.88H79.3204V118.39H74.4304V116.88ZM74.4304 120.64V119.11H79.8804V120.64H74.4304Z" fill="white"/>
<path d="M86.7101 122.68V117.28C86.4301 117.6 86.1301 117.93 85.8301 118.21C85.5801 117.72 84.9701 116.75 84.6201 116.31C85.9201 115.1 87.1901 112.97 87.8901 110.84L90.4201 111.65C90.3501 111.79 90.1401 111.9 89.8601 111.88C89.6501 112.41 89.4201 112.92 89.1601 113.46H90.5801C91.0001 112.72 91.4101 111.84 91.6501 111.19L94.1801 111.84C94.0901 112 93.9001 112.09 93.6201 112.09L92.7201 113.46H95.1601V115.22H92.7001V116.01H94.6501V116.36C95.9501 115.06 97.1801 112.93 97.9001 110.84L100.45 111.68C100.38 111.84 100.19 111.94 99.8901 111.91C99.6801 112.42 99.4501 112.95 99.1901 113.46H100.44C100.81 112.72 101.21 111.84 101.41 111.19L103.91 111.82C103.86 111.98 103.68 112.07 103.38 112.07C103.17 112.46 102.87 112.97 102.54 113.46H105.67V115.22H102.7V116.01H104.93V117.66H102.7V118.47H104.93V120.09H102.7V120.93H106.11V122.69H96.7401V117.29C96.4401 117.66 96.1401 118.01 95.8101 118.33C95.5501 117.91 95.0201 117.15 94.6301 116.66V117.66H92.6801V118.47H94.6301V120.09H92.6801V120.93H95.3501V122.69H86.7001L86.7101 122.68ZM101.41 123.58L103.5 124.65C103.41 124.79 103.24 124.88 103.13 124.95C102.09 126.57 100.65 127.9 98.9101 128.94C101.21 129.54 103.78 129.91 106.54 130.12C105.96 130.77 105.22 131.98 104.82 132.74C101.34 132.39 98.1901 131.7 95.5001 130.58C92.6501 131.67 89.4001 132.32 86.0401 132.69C85.8301 131.97 85.3201 130.88 84.8601 130.23C87.4801 130.02 90.0601 129.63 92.3501 128.98C91.2401 128.28 90.2401 127.47 89.3801 126.57L90.8201 125.92H85.8801V123.67H100.96L101.42 123.58H101.41ZM90.4901 116V115.21H89.0501V116H90.4901ZM90.4901 118.46V117.65H89.0501V118.46H90.4901ZM90.4901 120.92V120.08H89.0501V120.92H90.4901ZM92.4101 125.93C93.2701 126.67 94.3401 127.3 95.5901 127.83C96.7701 127.3 97.7901 126.67 98.6501 125.93H92.4101ZM100.5 116V115.21H99.0901V116H100.5ZM100.5 118.46V117.65H99.0901V118.46H100.5ZM100.5 120.92V120.08H99.0901V120.92H100.5Z" fill="white"/>
<path d="M116.33 114.7V116.9H107.84V114.7H116.33ZM115.75 124.39V130.07C116.63 128.91 117.09 127.08 117.28 125.27L119.51 125.87C119.28 127.93 118.86 130.11 117.7 131.51L115.75 130.26V131.49H111.13V132.39H108.83V124.39H115.74H115.75ZM115.7 117.97V120.08H108.9V117.97H115.7ZM108.9 123.26V121.17H115.7V123.26H108.9ZM115.65 111.57V113.68H108.97V111.57H115.65ZM113.42 129.29V126.6H111.12V129.29H113.42ZM129.12 112.5C128.73 121.85 128.61 121.85 123.81 121.73C123.76 121.01 123.51 120.01 123.14 119.36L123.44 119.38C123.02 119.1 122.54 118.82 122 118.52C121.17 120.03 119.96 121.42 118.06 122.51C117.73 121.88 116.99 120.98 116.41 120.52C118.01 119.71 119.05 118.62 119.77 117.41C118.91 117.04 118.03 116.69 117.22 116.44L118.52 114.52C119.22 114.73 119.96 114.98 120.68 115.29C120.82 114.85 120.91 114.41 121 113.97H117.5V111.65H127.17L127.73 111.6L129.19 111.76L129.12 112.5ZM122.49 129.31C122.49 129.96 122.54 130.01 122.88 130.01H123.85C124.22 130.01 124.31 129.75 124.36 127.76C124.85 128.15 125.94 128.57 126.61 128.73C126.38 131.65 125.71 132.42 124.13 132.42H122.44C120.35 132.42 119.91 131.63 119.91 129.33V124.51L123.06 124.7C123.04 124.91 122.87 125.05 122.48 125.12V129.32L122.49 129.31ZM124.11 125.72C123.34 124.72 121.63 123.33 120.17 122.43L121.91 120.92C123.37 121.78 125.16 123.05 125.99 124.07L124.11 125.72ZM123.92 119.43C124.45 119.45 124.87 119.45 125.2 119.45C125.45 119.45 125.62 119.38 125.8 119.17C126.1 118.8 126.31 117.41 126.47 113.95H123.55C123.39 114.69 123.2 115.48 122.95 116.29C123.79 116.71 124.55 117.12 125.13 117.5L123.92 119.43ZM127.58 131.61C127.33 129.99 126.37 127.55 125.26 125.77L127.51 124.87C128.72 126.63 129.69 129 130.04 130.62L127.58 131.62V131.61Z" fill="white"/>
<path d="M139.34 114.7V116.9H131.04V114.7H139.34ZM138.62 124.39V131.44H134.28V132.39H132.01V124.39H138.62ZM138.57 117.97V120.08H132.08V117.97H138.57ZM132.08 123.26V121.17H138.57V123.26H132.08ZM138.5 111.57V113.68H132.21V111.57H138.5ZM136.34 126.58H134.28V129.27H136.34V126.58ZM150.93 120.6V126.35H148.61L150.74 126.98C150.65 127.14 150.46 127.24 150.14 127.24C149.84 127.96 149.37 128.89 148.93 129.65H152.85V132.02H139.17V129.65H142.63C142.49 128.79 142.1 127.7 141.73 126.82L143.54 126.36H141.08V120.68C140.8 120.89 140.52 121.1 140.24 121.28C139.92 120.7 139.22 119.82 138.71 119.36C139.61 118.85 140.45 118.11 141.17 117.18C140.66 116.69 139.99 116.14 139.41 115.74L140.87 114.14C141.36 114.44 141.94 114.84 142.4 115.23C142.65 114.74 142.86 114.23 143.05 113.72H140.01V111.59H144.14L144.56 111.52L146.07 112.1C146 111.85 145.95 111.57 145.88 111.31L148.08 110.87C148.22 111.47 148.38 112.08 148.59 112.66C149.15 112.22 149.7 111.71 150.07 111.34L151.69 113.01C151.6 113.08 151.46 113.13 151.32 113.13C151.25 113.13 151.16 113.13 151.09 113.11C150.65 113.41 149.86 113.9 149.21 114.27C149.37 114.64 149.56 115.01 149.77 115.36C150.37 114.87 151.02 114.29 151.44 113.88L153.13 115.69C153.06 115.76 152.92 115.81 152.76 115.81C152.69 115.81 152.62 115.81 152.55 115.79C152.11 116.05 151.39 116.46 150.74 116.81C151.44 117.67 152.25 118.39 153.2 118.9C152.62 119.39 151.85 120.34 151.48 121.01L150.92 120.64L150.93 120.6ZM143.21 119.28V118.47C142.68 119.17 142.1 119.79 141.47 120.35H150.61C149.91 119.79 149.29 119.12 148.75 118.36V119.29H143.21V119.28ZM148.24 122.53H143.58V124.18H148.24V122.53ZM147.45 129.65L146.59 129.35C146.96 128.52 147.4 127.31 147.68 126.36H144.13C144.59 127.29 144.99 128.52 145.17 129.33L144.06 129.66H147.45V129.65ZM147.96 117.13C147.15 115.67 146.54 113.98 146.08 112.12C146.01 112.28 145.94 112.35 145.85 112.44C145.48 114.18 144.88 115.76 144.09 117.13H147.96Z" fill="white"/>
<path d="M178.26 122.03L178.89 121.98L180.54 122.26C180.52 122.49 180.49 122.82 180.42 123.07C179.75 132.28 179.12 132.72 174.69 132.72C174.09 132.72 173.41 132.7 172.74 132.67C172.67 131.79 172.28 130.58 171.7 129.77C173.14 129.91 174.65 129.93 175.27 129.93C175.76 129.93 176.04 129.88 176.34 129.65C176.83 129.23 177.15 127.72 177.41 124.59H173.17L172.96 125.68L170.15 125.24C170.64 123.11 171.17 119.84 171.43 117.22H177.65V114.32H170.37V111.75H180.41V120.35H177.65V119.79H173.94L173.59 122.02H178.28L178.26 122.03ZM185.77 111.2L189.2 111.39C189.18 111.62 188.99 111.76 188.57 111.83V132.73H185.76V111.21L185.77 111.2Z" fill="white"/>
<path d="M199.03 128.27C200.38 128.08 201.77 127.9 203.14 127.69L203.26 129.94C199.76 130.59 196.07 131.22 193.68 131.59C193.63 131.82 193.47 131.96 193.29 132.01L192.27 129.18L196.38 128.65V125.29H192.95V122.95H202.81V125.29H199.05V128.28L199.03 128.27ZM196.41 115.21C196.36 115.42 196.2 115.49 195.92 115.49C195.62 116.23 195.04 117.51 194.48 118.53C195.25 119.67 195.94 121.01 196.29 121.89L194.34 122.63C194.01 121.52 193.27 119.99 192.37 118.55C193.02 117.27 193.69 115.74 194.06 114.72L196.4 115.21H196.41ZM203.02 111.82V114.26H192.75V111.82H203.02ZM197.62 122.51C197.25 121.42 196.46 119.91 195.56 118.5C196.23 117.25 196.93 115.76 197.3 114.77L199.67 115.28C199.62 115.47 199.41 115.56 199.16 115.54C198.88 116.26 198.26 117.49 197.7 118.49C198.49 119.6 199.23 120.88 199.58 121.76L197.63 122.53L197.62 122.51ZM203.02 115.23C202.97 115.42 202.81 115.51 202.53 115.51C202.18 116.23 201.56 117.46 200.98 118.46C201.82 119.6 202.63 120.87 203.04 121.75L201.12 122.56C200.68 121.47 199.8 119.92 198.78 118.5C199.5 117.22 200.24 115.74 200.64 114.72L203.03 115.23H203.02ZM213.64 128.17H206.19L208.39 129.52C208.32 129.61 208.18 129.68 207.97 129.68C207.09 130.72 205.14 132.05 203.54 132.76C203.1 132.27 202.29 131.51 201.68 131.02C203.23 130.37 205 129.14 205.92 128.17H204.02V115.78H207.06L207.34 114.11H203.44V111.77H214.29V114.11H209.98C209.86 114.62 209.73 115.22 209.54 115.78H213.62V128.17H213.64ZM206.43 117.85V119.29H211.14V117.85H206.43ZM206.43 121.24V122.68H211.14V121.24H206.43ZM206.43 124.63V126.09H211.14V124.63H206.43ZM212.55 132.77C211.85 131.89 210.32 130.52 209.16 129.57L211.2 128.25C212.36 129.11 213.94 130.41 214.7 131.29L212.54 132.77H212.55Z" fill="white"/>
<path d="M221.55 128.34C221.48 128.48 221.27 128.59 220.97 128.55C220.2 129.99 218.93 131.63 217.7 132.72C217.19 132.26 216.26 131.56 215.64 131.17C216.78 130.27 217.91 128.73 218.56 127.32L221.55 128.34ZM227.42 124.72V127.16H215.66V124.72H217.77V116.02H215.94V113.59H217.77V111.11L220.85 111.3C220.83 111.51 220.66 111.62 220.27 111.69V113.59H223.19V111.11L226.32 111.3C226.3 111.51 226.13 111.65 225.74 111.69V113.59H227.32V116.02H225.74V124.72H227.41H227.42ZM223.2 116.02H220.28V117.41H223.2V116.02ZM220.28 119.55V121.01H223.2V119.55H220.28ZM220.28 123.15V124.73H223.2V123.15H220.28ZM236.86 111.88V129.69C236.86 132.24 235.89 132.77 232.04 132.73C231.95 132.01 231.6 130.78 231.25 130.09C231.85 130.14 232.5 130.14 232.99 130.14C234.08 130.14 234.2 130.14 234.2 129.65V124.96H230.51C230.21 127.79 229.49 130.74 227.91 132.82C227.52 132.38 226.54 131.64 225.94 131.29L224.83 131.94C224.34 131.01 223.23 129.48 222.3 128.39L224.41 127.23C225.11 128 225.96 129.02 226.57 129.87C228.01 127.02 228.15 123.35 228.15 120.45V111.87H236.87L236.86 111.88ZM230.74 120.46C230.74 121.09 230.74 121.78 230.69 122.48H234.19V119.65H230.73V120.46H230.74ZM234.2 114.41H230.74V117.19H234.2V114.41Z" fill="white"/>
<path d="M241.8 123.97C241.24 124.69 240.69 125.34 240.13 125.94C239.85 125.36 239.18 124.04 238.78 123.46C240.5 121.72 242.49 118.75 243.7 115.97L246.58 117.11C246.49 117.27 246.26 117.36 245.93 117.34C245.47 118.24 244.96 119.2 244.4 120.1L245 120.31C244.93 120.5 244.77 120.66 244.4 120.7V132.71H241.8V123.97ZM246.14 112.03C246.02 112.19 245.84 112.29 245.51 112.24C244.23 113.86 242.08 116.16 240.27 117.67C239.95 117.11 239.25 116.14 238.81 115.63C240.39 114.4 242.34 112.38 243.31 110.85L246.14 112.03ZM260.52 118.29V120.79H246.02V118.29H251.84V115.81H247.25V113.4H251.84V110.83L255.18 111.02C255.16 111.25 254.97 111.39 254.58 111.46V113.41H259.27V115.82H254.58V118.3H260.52V118.29ZM246.26 123.02H254.47V120.79L257.81 120.93C257.76 121.16 257.62 121.3 257.18 121.37V123.02H260.27V125.48H257.18V129.82C257.18 132.21 256.32 132.72 251.96 132.72C251.84 131.98 251.47 130.86 251.12 130.12C251.86 130.17 252.65 130.19 253.23 130.19C254.3 130.19 254.46 130.17 254.46 129.77V125.48H246.25V123.02H246.26ZM249.9 130.37C249.51 129.37 248.49 127.89 247.53 126.82L249.59 125.64C250.59 126.68 251.68 128.08 252.09 129.07L249.89 130.37H249.9Z" fill="white"/>
<path d="M164.62 121.81C164.62 123.64 163.14 125.12 161.31 125.12C159.48 125.12 158 123.64 158 121.81C158 119.98 159.48 118.5 161.31 118.5C163.14 118.5 164.62 119.98 164.62 121.81Z" fill="white"/>
<path d="M68.46 9.98026H53.82C53.56 10.7303 53.29 11.5603 52.99 12.3503H64.03V36.2002H59.34V34.4403H43.68V36.2002H39.17V12.3503H48.07C48.26 11.5603 48.41 10.7703 48.52 9.98026H34.25V5.81025H42.7C41.91 4.68025 40.9 3.37025 40 2.39025L44.17 0.510254C45.6 1.86025 47.14 3.70025 47.93 5.05025L46.5 5.80025H54.69C55.85 4.30025 57.13 2.23026 57.84 0.660255L63.66 2.35025C63.47 2.65025 63.13 2.76025 62.57 2.76025C61.93 3.74025 61.11 4.79025 60.2 5.80025H68.46V9.97025V9.98026ZM59.34 18.5803V16.2503H43.68V18.5803H59.34ZM43.68 22.0003V24.4803H59.34V22.0003H43.68ZM43.68 30.4902H59.34V27.9403H43.68V30.4902Z" fill="white"/>
<path d="M78.33 8.81002V14.97C78.33 21.05 77.8 30.4 74.58 36.34C73.75 35.55 71.76 34.27 70.71 33.82C73.68 28.38 73.94 20.49 73.94 14.93V4.64002H87.68V0.77002L93.39 1.07002C93.35 1.45002 93.09 1.67002 92.38 1.82002V4.64002H106.16V8.81002H78.33ZM94.21 27.81V31.42H106.3V35.29H77.91V31.42H89.85V27.81H80.5V23.9H89.85V19.66L87.75 22.18C87.11 21.28 85.98 20.04 84.78 18.88C83.88 20.49 82.71 21.88 81.25 22.9C80.57 22.15 79.11 20.95 78.17 20.38C81.25 18.46 82.68 14.82 83.16 10.39L87.93 10.99C87.86 11.29 87.59 11.52 87.1 11.55C86.91 12.83 86.65 14.07 86.31 15.23C87.59 16.36 88.94 17.67 89.84 18.68V9.89002L95.17 10.19C95.13 10.53 94.87 10.79 94.19 10.87V19.36C96.52 17.33 97.79 14.14 98.32 10.39L103.01 11.14C102.93 11.44 102.63 11.63 102.15 11.67C101.92 12.87 101.62 14.04 101.25 15.16C103.16 16.7 105.38 18.5 106.58 19.74L103.91 22.86C102.93 21.77 101.24 20.23 99.59 18.77C98.65 20.31 97.49 21.62 96.1 22.6C95.69 22.11 94.9 21.44 94.19 20.84V23.92H104.18V27.83H94.19L94.21 27.81Z" fill="white"/>
<path d="M118.61 35.5102V7.84023H118.52L112.76 10.8602L111.34 6.16024L119.5 1.99023H125V35.5102H118.61Z" fill="white"/>
<path d="M136.34 1.66016H139.39V8.50015H145.93V11.4202H139.39V18.3202H136.34V11.4202H129.8V8.50015H136.34V1.66016Z" fill="white"/>
<path d="M160.27 1.94034C160.12 2.24034 159.78 2.43034 159.22 2.47034C158.54 4.35034 157.57 6.64033 156.59 8.67033C158.36 8.59033 160.19 8.56034 162.07 8.48034C161.47 7.35034 160.79 6.26034 160.15 5.29034L163.98 3.71033C165.89 6.38033 167.92 9.94033 168.67 12.4203L164.54 14.1503C164.39 13.5903 164.16 12.9103 163.86 12.2403C159.05 12.6203 154.21 12.9203 151.02 13.1403C150.94 13.4803 150.64 13.6703 150.34 13.7403L149.03 8.82034C149.89 8.82034 150.91 8.78033 152 8.78033C153.16 6.26033 154.37 3.07033 155.04 0.590332L160.26 1.94034H160.27ZM165.94 15.0103V31.7203C165.94 35.4403 164.36 36.1903 159.11 36.1903C158.88 34.9903 158.25 33.2603 157.68 32.1703C158.47 32.2103 159.26 32.2503 159.9 32.2503C161.33 32.2503 161.48 32.2503 161.48 31.6503V29.6203H155.85V36.2303H151.68V15.0103H165.95H165.94ZM161.47 18.7303H155.84V20.7203H161.47V18.7303ZM155.84 26.2803H161.47V24.0603H155.84V26.2803ZM179.12 13.7403C180.36 13.7403 180.62 13.1803 180.77 9.87034C181.67 10.5503 183.51 11.2603 184.75 11.5203C184.26 16.4003 183.06 17.7903 179.57 17.7903H174.35C169.92 17.7903 168.83 16.4803 168.83 12.3103V0.890335L174.35 1.19034C174.31 1.57034 174.01 1.79034 173.34 1.90034V6.29034C175.89 5.31034 178.37 4.15034 180.14 3.14034L183.18 6.56033C183.03 6.71033 182.77 6.71033 182.32 6.71033C179.99 7.80033 176.61 9.00034 173.34 9.98034V12.2303C173.34 13.5803 173.57 13.7303 174.99 13.7303H179.12V13.7403ZM173.3 30.4503C173.3 31.8003 173.56 31.9903 175.03 31.9903H179.35C180.66 31.9903 180.93 31.2803 181.12 27.4503C182.06 28.1303 183.86 28.8003 185.06 29.1003C184.57 34.4303 183.41 35.9303 179.77 35.9303H174.4C169.97 35.9303 168.84 34.6203 168.84 30.4503V18.5503L174.32 18.8503C174.28 19.2303 174.02 19.4503 173.31 19.5603V23.6503C176.01 22.6003 178.6 21.3203 180.45 20.1203L183.6 23.6103C183.41 23.7603 183.07 23.7603 182.66 23.7603C180.29 25.0403 176.73 26.3503 173.31 27.4403V30.4403L173.3 30.4503Z" fill="white"/>
<path d="M195.83 11.5602C195.72 11.8602 195.42 12.0103 194.93 12.0103C193.77 14.7503 191.81 17.7903 189.75 19.7503C189 19.0003 187.5 17.8403 186.56 17.2303C188.44 15.6203 190.16 12.8003 191.1 10.1702L195.83 11.5602ZM206.27 5.66026V9.72025H186.86V5.66026H194.48V0.780251L199.85 1.08025C199.81 1.46025 199.55 1.68025 198.87 1.79025V5.66026H206.27ZM203.08 18.3903C202.97 18.7303 202.63 18.9202 202.1 18.9202C201.54 20.9502 200.82 22.9002 199.96 24.7002C201.42 26.4302 202.7 28.1203 203.49 29.5803L199.77 32.5103C199.24 31.4603 198.46 30.2203 197.52 28.9403C195.45 31.9103 192.9 34.3503 189.82 36.1103C189.22 35.1703 187.79 33.5203 186.89 32.6903C190.08 31.0403 192.67 28.4803 194.59 25.2903C193.09 23.5603 191.47 21.8703 189.93 20.4103L193.31 17.8603C194.4 18.8403 195.53 19.9303 196.65 21.0503C197.1 19.8103 197.51 18.5303 197.81 17.1803L203.07 18.3802L203.08 18.3903ZM222.31 11.8203H220.06C219.27 17.4503 218.03 22.1802 215.97 26.1302C217.62 28.8002 219.76 30.9703 222.43 32.4403C221.45 33.3003 220.06 35.0303 219.43 36.2303C216.91 34.6903 214.92 32.6203 213.27 30.1503C211.17 32.6703 208.5 34.6602 205.12 36.2002C204.71 35.1902 203.58 33.3103 202.87 32.4103C206.4 30.9503 209.03 28.8002 210.98 25.9502C210 23.7002 209.22 21.2203 208.54 18.5103C208.05 19.4103 207.53 20.2402 206.96 20.9902C206.28 20.1302 204.82 18.6203 203.88 17.8703C204.26 17.3803 204.59 16.8203 204.93 16.2203L201.78 17.9902C201.22 16.3402 199.6 13.7803 198.1 11.9103L201.48 10.0703C202.94 11.7203 204.52 13.9002 205.27 15.5902C207.22 11.7602 208.5 6.28025 209.25 0.760254L214.47 1.77025C214.36 2.11025 214.06 2.33025 213.49 2.33025C213.19 4.13025 212.85 5.90026 212.44 7.66026H222.32V11.8303L222.31 11.8203ZM211.31 11.8203L211.2 12.0803C211.76 15.2703 212.48 18.2803 213.49 20.9803C214.5 18.3103 215.18 15.2703 215.63 11.8203H211.31Z" fill="white"/>
<path d="M234.02 13.4302L236.5 14.1402C236.46 14.4002 236.35 14.7002 236.24 14.8902C235.75 19.8502 234.89 24.0902 233.61 27.5402C237.14 30.3202 241.91 30.9202 247.47 30.9602C249.72 30.9602 257.42 30.9602 260.2 30.8502C259.49 31.8602 258.74 33.9702 258.43 35.2402H247.35C240.97 35.2402 235.75 34.4901 231.77 31.4501C230.61 33.4401 229.18 35.0902 227.56 36.3302C226.88 35.4302 225.12 33.8502 224.18 33.2902C225.98 32.0502 227.45 30.3602 228.61 28.2202C227.22 26.3102 226.02 23.9002 225.04 20.8602L228.57 19.5802C229.1 21.2302 229.7 22.6602 230.41 23.8602C231.01 21.9802 231.46 19.8402 231.76 17.4802H229.17L228.68 18.5702L224.59 17.5201C226.24 14.2201 228.08 10.0802 229.47 6.78015H224.51V2.84015H231.95L232.78 2.73016L235.37 3.67015C235.26 3.90015 235.14 4.16015 234.99 4.38015C234.01 6.75015 232.51 10.1302 230.97 13.5402H233.22L234.01 13.4302H234.02ZM244.61 8.44016V6.90015H237.96V3.48016H244.61V0.660156L249.98 0.960152C249.94 1.34015 249.68 1.56015 249 1.67015V3.47015H256.59V8.43015H259.71V11.8801H256.59V16.8702H249V18.4501H257.19V21.7202H249V23.3302H258.88V26.9002H249V30.0502H244.61V26.9002H235.6V23.3302H244.61V21.7202H237.25V18.4501H244.61V16.8702H237.81V13.4501H244.61V11.8702H235.07V8.42015H244.61V8.44016ZM252.16 6.90015H249.01V8.44016H252.16V6.90015ZM252.16 13.4702V11.8902H249.01V13.4702H252.16Z" fill="white"/>
<path d="M296.84 27.3602H284.86C288.13 29.2402 292.97 30.7002 297.55 31.3402C296.57 32.2802 295.3 34.0402 294.66 35.1702C290.08 34.1602 285.35 32.0902 281.85 29.3102V36.1402H277.46V29.2702C273.97 32.0102 269.24 34.1902 264.62 35.2802C263.98 34.1902 262.74 32.5002 261.84 31.6002C266.31 30.8502 270.93 29.3102 274.16 27.3602H262.56V23.8302H277.47V22.8502C277.24 22.9602 277.02 23.0402 276.76 23.1502C276.27 22.4002 274.81 20.9702 273.94 20.3302C270.34 20.9302 266.88 21.4902 264.4 21.8702C264.36 22.1702 264.14 22.3602 263.84 22.4302L262.49 18.4502C264.07 18.3002 266.06 18.1102 268.27 17.8502V13.8702H263.5V10.7502H277.09V13.8702H272.36V17.4402L277.13 16.8802L277.2 18.3102C278.51 17.1102 278.78 15.7602 278.78 14.3702V10.5802H292.64V17.2602C292.64 18.4202 292.64 18.5702 293.09 18.5702C293.92 18.5702 294.03 18.5702 294.14 18.4602C294.48 18.2302 294.52 17.4102 294.59 15.0802C295.27 15.6802 296.58 16.3202 297.52 16.6602C297.22 20.3802 297.11 22.1102 293.76 22.1102H291.88C288.61 22.1102 288.46 19.6702 288.42 18.6202L286.28 20.5702C285.53 19.5602 283.99 18.1302 282.6 17.0402C282.26 18.4702 281.55 19.8602 280.27 21.0202L282.82 21.1702C282.78 21.5102 282.48 21.7702 281.84 21.8502V23.8402H296.82V27.3702L296.84 27.3602ZM270.7 10.3902C270.44 9.45017 269.76 8.10018 269.09 6.93018H268.34C267.4 8.17018 266.39 9.33018 265.37 10.2302C264.51 9.52018 262.97 8.50018 261.99 7.98018C264.13 6.21018 266.23 3.21018 267.4 0.430176L272.17 2.01018C271.98 2.31018 271.64 2.42017 271.23 2.39017L270.67 3.40018H279.16V6.14017C280.66 4.49017 281.98 2.42018 282.76 0.430176L287.6 1.86018C287.45 2.20018 287.11 2.31017 286.66 2.27017L286.1 3.40018H297.14V6.93018H290.49C291.09 7.76018 291.62 8.58018 291.92 9.26018L288.09 10.3502C287.71 9.45017 286.89 8.10018 286.02 6.93018H283.73C282.87 8.06018 281.89 9.03018 280.95 9.86018C280.01 9.22018 278.36 8.40018 277.23 7.87018C277.61 7.61018 277.98 7.27018 278.36 6.93018H273.14C273.63 7.79018 274.08 8.66018 274.34 9.33018L270.7 10.3802V10.3902ZM288.39 13.5402H282.87C282.87 14.9702 282.87 15.2702 282.76 16.0602L284.68 14.4102C285.92 15.2702 287.38 16.4002 288.4 17.3802V13.5502L288.39 13.5402Z" fill="white"/>
<path d="M14.2499 12.9101H10.0299C10.6499 14.8101 11.6599 16.3101 12.5099 16.3101C12.8599 16.3101 13.0299 15.6801 13.0999 14.2201C13.4999 14.5701 14.1199 14.9101 14.5799 15.0501C14.3299 17.5001 13.6899 18.0301 12.3899 18.0301C10.4999 18.0301 8.97992 15.8101 8.17992 12.9001H4.47992V15.5801C5.69992 15.4501 7.03992 15.2801 8.32992 15.1201L8.38992 16.7201C6.06992 17.1101 3.61992 17.5001 2.04992 17.7101C2.03992 17.8501 1.90992 17.9401 1.78992 17.9601L1.16992 15.9401C1.61992 15.9001 2.12992 15.8501 2.69992 15.7801V5.06006H13.2299V9.84006H9.72992C9.66992 9.87006 9.58992 9.90006 9.48992 9.91006C9.49992 10.3701 9.55992 10.8201 9.62992 11.2801H14.2499V12.8901V12.9101ZM11.4699 6.69006H4.47992V8.26006H11.4699V6.69006ZM4.47992 11.3001H7.83992C7.74992 10.8201 7.69992 10.3501 7.66992 9.86006H4.48992V11.3001H4.47992Z" fill="white"/>
<path d="M21.6398 10.24H17.7798V18.02H16.0698V4.97998H21.6398V10.24ZM20.0298 6.23997H17.7798V6.99998H20.0298V6.23997ZM17.7798 9.00998H20.0298V8.16998H17.7798V9.00998ZM28.3398 4.98997V15.97C28.3398 17.74 27.6198 18.03 24.9098 18.03C24.8698 17.67 24.7098 17.12 24.5298 16.68H20.9098V17.43H19.3398V11.14H24.9398V16.3C25.2298 16.3 25.4998 16.31 25.7298 16.31C26.4898 16.31 26.5798 16.31 26.5798 15.96V10.28H22.6198V4.98997H28.3198H28.3398ZM23.3298 12.39H20.9198V13.27H23.3298V12.39ZM20.9198 15.4H23.3298V14.49H20.9198V15.4ZM26.5998 6.23997H24.2798V6.99998H26.5998V6.23997ZM24.2798 9.02998H26.5998V8.16998H24.2798V9.02998Z" fill="white"/>
<path d="M5.3498 29.49V29.71C5.8098 29.98 7.1398 30.95 7.4698 31.21L6.48981 32.45C6.22981 32.16 5.7998 31.73 5.3498 31.31V34.32H3.6798V31.55C3.1298 32.3 2.52981 32.98 1.91981 33.44C1.65981 33.06 1.1598 32.5 0.799805 32.22C1.7498 31.61 2.73981 30.55 3.40981 29.5H1.1798V28.05H3.6898V27H1.0098V25.57H2.4398C2.3498 25.05 2.1798 24.42 1.9498 23.91L2.8898 23.64H1.3098V22.23H3.6998V20.75L5.74981 20.85C5.73981 20.99 5.6298 21.08 5.3698 21.12V22.23H7.7198V23.64H6.2798L7.4498 23.94C7.4098 24.04 7.2898 24.1 7.0898 24.11C6.9298 24.54 6.66981 25.09 6.40981 25.56H8.0198V26.99H5.6898C5.6298 27.05 5.5298 27.11 5.3698 27.12V28.04H7.7998V29.49H5.3698H5.3498ZM4.91981 25.54C5.13981 25.01 5.3998 24.23 5.5498 23.62H3.31981C3.58981 24.24 3.8098 24.99 3.8798 25.52L3.7898 25.55H4.90981L4.91981 25.54ZM14.5598 25.51V27.11H13.1598V34.3H11.4698V27.11H10.0298C10.0298 29.24 9.7098 32.34 7.7698 34.33C7.5498 33.96 6.9498 33.37 6.5498 33.15C8.2298 31.39 8.3898 28.96 8.3898 27.01V22.04L9.2798 22.3C10.6098 21.87 11.9698 21.29 12.7898 20.73L14.4198 21.97C14.3298 22.06 14.1898 22.06 14.0198 22.06C13.0098 22.59 11.4998 23.14 10.0298 23.56V25.52H14.5498L14.5598 25.51Z" fill="white"/>
<path d="M19.05 25.5899L20 25.8599C19.99 25.9599 19.94 26.0799 19.9 26.1499C19.71 28.0499 19.38 29.6799 18.89 30.9999C20.24 32.0699 22.07 32.2999 24.21 32.3099C25.07 32.3099 28.03 32.3099 29.09 32.2699C28.82 32.6599 28.53 33.4699 28.41 33.9599H24.16C21.71 33.9599 19.71 33.6699 18.18 32.4999C17.73 33.2599 17.19 33.8999 16.57 34.3699C16.31 34.0199 15.63 33.4199 15.27 33.1999C15.96 32.7199 16.52 32.0799 16.97 31.2599C16.44 30.5299 15.98 29.5999 15.6 28.4399L16.95 27.9499C17.15 28.5799 17.38 29.1299 17.66 29.5899C17.89 28.8699 18.06 28.0499 18.18 27.1399H17.19L17 27.5599L15.43 27.1599C16.06 25.8899 16.77 24.3099 17.3 23.0399H15.4V21.5299H18.25L18.57 21.4899L19.56 21.8499C19.52 21.9399 19.47 22.0399 19.42 22.1199C19.05 23.0299 18.47 24.3199 17.88 25.6299H18.74L19.04 25.5899H19.05ZM23.11 23.6699V23.0799H20.56V21.7699H23.11V20.6899L25.17 20.8099C25.16 20.9499 25.05 21.0399 24.8 21.0799V21.7699H27.71V23.6699H28.91V24.9999H27.71V26.9199H24.8V27.5199H27.94V28.7699H24.8V29.3899H28.59V30.7599H24.8V31.9699H23.11V30.7599H19.65V29.3899H23.11V28.7699H20.29V27.5199H23.11V26.9199H20.5V25.6099H23.11V24.9999H19.45V23.6699H23.11ZM26.01 23.0799H24.8V23.6699H26.01V23.0799ZM26.01 25.5999V24.9899H24.8V25.5999H26.01Z" fill="white"/>
<path d="M68.7798 77.7403H63.7098C67.2798 78.8703 70.9198 80.1803 73.2898 81.1203L69.3098 83.9703C66.7898 82.7703 62.4398 81.0403 58.2698 79.6903L60.4898 77.7403H50.1598L52.9398 79.6203C52.7898 79.7703 52.5298 79.8503 52.1898 79.8803C49.6398 81.3103 44.7898 83.1103 40.9598 84.0503C40.2498 83.1903 38.8198 81.8003 37.8398 81.0103C41.1098 80.3303 45.0498 79.0203 47.6398 77.7403H42.6498V65.2703H53.1998V63.9603H38.3998V60.1703H72.8698V63.9603H57.6598V65.2703H68.7798V77.7403ZM46.8898 58.9303V54.2703H40.3598V50.8903H46.8898V48.5203L52.2998 48.8203C52.2598 49.2003 51.9598 49.4603 51.2898 49.5303V50.8803H59.9598V48.5103L65.5898 48.8103C65.5498 49.1903 65.2498 49.4503 64.5798 49.5203V50.8703H71.0398V54.2503H64.5798V58.9103H46.8898V58.9303ZM46.9998 68.2803V70.0803H53.1998V68.2803H46.9998ZM46.9998 72.9003V74.7403H53.1998V72.9003H46.9998ZM59.9598 54.2703H51.2898V55.9603H59.9598V54.2703ZM64.2398 68.2803H57.6698V70.0803H64.2398V68.2803ZM64.2398 74.7403V72.9003H57.6698V74.7403H64.2398Z" fill="white"/>
<path d="M100.73 71.5101L105.27 73.4601C105.08 73.7201 104.71 73.8701 104.22 73.8401C103.32 75.3801 101.82 77.4801 100.58 79.0201H109.14V82.8901H77.1099V79.0201H84.5099C83.9499 77.2901 82.6299 74.7801 81.3599 72.9001L84.7399 71.5101H78.9899V67.6401H90.5199V63.8901H83.5399V62.0501C81.7399 63.3601 79.8199 64.6001 77.8699 65.6601C77.2699 64.6101 76.0299 62.9601 75.1299 62.0901C81.5899 58.8201 87.7499 53.0401 90.5599 48.3501L96.5699 48.6901C96.4599 49.0701 96.1199 49.4001 95.5899 49.4401C99.1899 54.3601 105.62 59.1301 111.29 61.5301C110.16 62.6601 109.11 64.2001 108.29 65.5501C106.38 64.5401 104.42 63.3001 102.54 61.9501V63.9001H95.2899V67.6501H106.97V71.5201H100.74L100.73 71.5101ZM90.5199 71.5101H85.0699C86.4999 73.4301 87.9599 75.9801 88.5299 77.7101L85.4899 79.0201H90.5199V71.5101ZM99.9499 59.9401C97.1299 57.6501 94.6599 55.1701 92.9699 52.8401C91.3899 55.1301 89.0299 57.6101 86.2499 59.9401H99.9599H99.9499ZM96.8699 77.9301C98.1099 76.2401 99.6499 73.5401 100.51 71.5101H95.2899V79.0201H99.1599L96.8699 77.9301Z" fill="white"/>
<path d="M145.64 60.54L148.38 61.7C148.3 61.96 148.08 62.19 147.89 62.34C146.76 67.86 144.77 72.5501 142.14 76.2701C143.98 78.0301 146.16 79.42 148.82 80.36C147.92 81.15 146.64 82.88 146.04 84C143.41 82.91 141.23 81.4101 139.39 79.5701C137.7 81.3001 135.79 82.7201 133.76 83.8501C133.16 82.8701 131.7 81.22 130.76 80.55C132.98 79.46 134.97 78 136.73 76.19C135.34 74.05 134.21 71.61 133.35 68.9C132.52 75.13 130.98 80.3501 128.17 83.9601C127.49 83.2101 125.84 81.9 124.83 81.29C125.69 80.24 126.44 79.0001 127.05 77.5701L124.76 78.4C124.42 76.6 123.56 73.86 122.73 71.75L126.11 70.66C126.75 72.16 127.35 73.96 127.8 75.5C129.57 70.13 130.02 62.8801 130.09 54.8501H127.12L127.2 54.89C127.05 55.15 126.67 55.3 126.15 55.3C124.42 58.15 121.79 61.95 119.35 64.95L123.26 64.91C122.81 63.93 122.36 63.0001 121.87 62.1301L125.1 60.78C126.56 63.26 128.07 66.4901 128.55 68.6301L125.06 70.17C124.95 69.64 124.8 69.01 124.57 68.37L122.62 68.48V83.95H118.68V71.9C118.49 72.09 118.27 72.1601 117.93 72.1301C117.55 75.2101 116.8 78.8101 115.75 81.1001C114.96 80.5701 113.5 79.9001 112.6 79.5201C113.54 77.4601 114.14 73.89 114.44 70.7L118.68 71.68V68.75C117.07 68.83 115.56 68.9 114.36 68.98C114.25 69.36 113.95 69.51 113.68 69.54L112.78 65.03H115.37C116.01 64.24 116.65 63.42 117.25 62.51C116.16 60.86 114.4 58.91 112.86 57.4L115 54.3201L115.83 55.0701C116.92 52.9701 118.01 50.49 118.65 48.54L123.04 50.34C122.93 50.57 122.55 50.72 122.03 50.72C121.13 52.75 119.63 55.53 118.31 57.55C118.76 58.04 119.21 58.56 119.55 59.05C120.86 56.95 122.07 54.81 122.97 52.97L127.03 54.81V50.72H140.1L141 50.61L143.22 51.06C143.18 51.32 143.11 51.66 143.03 51.92C142.65 54.17 142.02 57.4001 141.38 60.6301H144.95L145.66 60.5201L145.64 60.54ZM136.21 65.4601C136.96 62.1901 137.75 58.14 138.31 54.87H134.22C134.22 55.66 134.22 56.4801 134.18 57.2701C135.08 63.39 136.66 68.76 139.36 72.93C140.94 70.6 142.18 67.8601 143.08 64.7101H140.49L140.23 65.95L136.21 65.4601Z" fill="white"/>
<path d="M177.29 65.7201C177.67 67.1801 178.15 68.6901 178.79 70.1501C180.1 68.9501 181.46 67.4801 182.39 66.3201L186.14 69.5101C186.03 69.6601 185.76 69.7401 185.46 69.7401C185.31 69.7401 185.2 69.7401 185.05 69.7001C183.96 70.7501 182.08 72.2901 180.54 73.4201C181.97 75.5201 183.84 77.3601 186.32 78.5601C185.46 79.3501 184.14 81.1101 183.54 82.2401C180.65 80.4701 178.62 77.7701 177.16 74.8401V79.7601C177.16 83.1001 176.18 83.9701 170.36 83.9701C170.21 82.8801 169.68 81.2701 169.2 80.1801C169.99 80.2201 170.85 80.2601 171.49 80.2601C172.95 80.2601 173.1 80.2601 173.1 79.7001V65.7301H165.06C165.44 66.6701 165.77 67.5701 165.96 68.3201L168.1 66.5601C169.64 67.8701 171.55 69.7501 172.42 71.1001L169.27 73.8401C168.52 72.4901 166.75 70.5401 165.25 69.1501L162.58 70.3101C162.47 69.7501 162.28 69.1101 162.05 68.4301L160.13 68.5801V83.9801H156.19V71.8501C156 72.1101 155.7 72.1901 155.4 72.1501C155.02 75.2301 154.27 78.8301 153.22 81.1201C152.39 80.5901 150.97 79.9601 150.07 79.5401C151.01 77.4801 151.57 73.9101 151.91 70.7201L156.19 71.7301V68.8001C154.5 68.9101 153 68.9901 151.76 69.0301C151.65 69.4101 151.35 69.5601 151.08 69.5901L150.18 65.0801H152.88C153.48 64.3301 154.12 63.5001 154.72 62.6401C153.63 60.9901 151.87 58.9601 150.29 57.5001L152.47 54.4201L153.3 55.1701C154.39 53.0701 155.48 50.5501 156.15 48.5601L160.54 50.3601C160.39 50.5901 160.01 50.7401 159.53 50.7401C158.59 52.8101 157.05 55.6201 155.74 57.6901C156.19 58.2201 156.64 58.7401 157.02 59.2301C158.33 57.0901 159.57 54.9101 160.47 53.0301L164.71 54.9501C164.52 55.2101 164.15 55.3601 163.66 55.3601C161.93 58.2501 159.3 62.0101 156.86 65.0101L160.73 64.9701C160.28 63.9601 159.79 62.9801 159.3 62.0801L162.53 60.7301C163.36 62.1601 164.26 63.8801 164.93 65.5001V61.8901H176.91L177.29 60.1301H170.64L170.38 61.0301L166.17 60.3901C167.18 57.2701 168.46 52.3501 169.21 48.5601L174.24 49.0901C174.16 49.4701 173.9 49.6901 173.23 49.7301L172.85 51.3801H179.87L180.85 51.2701L183.07 51.7201C182.81 53.5201 181.91 58.1801 181.12 61.9001H185.89V65.7301H177.25L177.29 65.7201ZM163.51 70.7101C164.37 72.7401 165.27 75.2901 165.69 77.0201C164.6 77.4001 163.51 77.8101 162.16 78.3001C161.86 76.5301 160.96 73.8701 160.17 71.8001L163.51 70.7101ZM173.12 76.5701C170.75 78.4501 168.28 80.3601 166.59 81.5301C166.63 81.8701 166.48 82.2101 166.21 82.3901L163.81 78.1501C165.8 77.0601 168.84 75.1501 171.77 73.2301L173.12 76.5701ZM171.58 56.7401H177.96L178.3 54.7501H172.1L171.57 56.7401H171.58Z" fill="white"/>
<path d="M197.64 61.2202L200.12 61.9302C200.08 62.1902 199.97 62.4902 199.86 62.6802C199.37 67.6402 198.51 71.8802 197.23 75.3302C200.76 78.1102 205.53 78.7102 211.09 78.7502C213.34 78.7502 221.04 78.7502 223.82 78.6402C223.11 79.6502 222.36 81.7602 222.05 83.0302H210.97C204.59 83.0302 199.37 82.2802 195.39 79.2402C194.23 81.2302 192.8 82.8802 191.18 84.1202C190.5 83.2202 188.74 81.6402 187.8 81.0802C189.6 79.8402 191.07 78.1502 192.23 76.0102C190.84 74.0902 189.64 71.6902 188.66 68.6502L192.19 67.3702C192.72 69.0202 193.32 70.4502 194.03 71.6502C194.63 69.7702 195.08 67.6302 195.38 65.2702H192.79L192.3 66.3602L188.21 65.3102C189.86 62.0102 191.7 57.8802 193.09 54.5702H188.13V50.6302H195.57L196.4 50.5202L198.99 51.4602C198.88 51.6902 198.76 51.9502 198.61 52.1702C197.63 54.5402 196.13 57.9202 194.59 61.3302H196.84L197.63 61.2202H197.64ZM208.23 56.2302V54.6902H201.58V51.2702H208.23V48.4502L213.6 48.7502C213.56 49.1302 213.3 49.3502 212.62 49.4602V51.2602H220.21V56.2202H223.33V59.6702H220.21V64.6602H212.62V66.2402H220.81V69.5102H212.62V71.1202H222.5V74.6902H212.62V77.8402H208.23V74.6902H199.22V71.1202H208.23V69.5102H200.87V66.2402H208.23V64.6602H201.43V61.2402H208.23V59.6602H198.69V56.2102H208.23V56.2302ZM215.78 54.6902H212.63V56.2302H215.78V54.6902ZM215.78 61.2602V59.6802H212.63V61.2602H215.78Z" fill="white"/>
<path d="M260.46 75.1502H248.48C251.75 77.0302 256.59 78.4902 261.17 79.1302C260.19 80.0702 258.92 81.8302 258.28 82.9602C253.7 81.9502 248.97 79.8802 245.47 77.1002V83.9302H241.08V77.0602C237.59 79.8002 232.86 81.9802 228.24 83.0702C227.6 81.9802 226.36 80.2902 225.46 79.3902C229.93 78.6402 234.55 77.1002 237.78 75.1502H226.18V71.6202H241.09V70.6402C240.86 70.7502 240.64 70.8302 240.38 70.9402C239.89 70.1902 238.43 68.7602 237.56 68.1202C233.96 68.7202 230.5 69.2802 228.02 69.6602C227.98 69.9602 227.76 70.1502 227.46 70.2202L226.11 66.2402C227.69 66.0902 229.68 65.9002 231.89 65.6402V61.6602H227.12V58.5402H240.71V61.6602H235.98V65.2302L240.75 64.6702L240.82 66.1002C242.13 64.9002 242.4 63.5502 242.4 62.1602V58.3702H256.26V65.0502C256.26 66.2102 256.26 66.3602 256.71 66.3602C257.54 66.3602 257.65 66.3602 257.76 66.2502C258.1 66.0202 258.14 65.2002 258.21 62.8702C258.89 63.4702 260.2 64.1102 261.14 64.4502C260.84 68.1702 260.73 69.9002 257.38 69.9002H255.5C252.23 69.9002 252.08 67.4602 252.04 66.4102L249.9 68.3602C249.15 67.3502 247.61 65.9202 246.22 64.8302C245.88 66.2602 245.17 67.6502 243.89 68.8102L246.44 68.9602C246.4 69.3002 246.1 69.5602 245.46 69.6402V71.6302H260.44V75.1602L260.46 75.1502ZM234.32 58.1802C234.06 57.2402 233.38 55.8902 232.71 54.7202H231.96C231.02 55.9602 230.01 57.1202 228.99 58.0202C228.13 57.3102 226.59 56.2902 225.61 55.7702C227.75 54.0002 229.85 51.0002 231.02 48.2202L235.79 49.8002C235.6 50.1002 235.26 50.2102 234.85 50.1802L234.29 51.1902H242.78V53.9302C244.28 52.2802 245.6 50.2102 246.38 48.2202L251.22 49.6502C251.07 49.9902 250.73 50.1002 250.28 50.0602L249.72 51.1902H260.76V54.7202H254.11C254.71 55.5502 255.24 56.3702 255.54 57.0502L251.71 58.1402C251.33 57.2402 250.51 55.8902 249.64 54.7202H247.35C246.49 55.8502 245.51 56.8202 244.57 57.6502C243.63 57.0102 241.98 56.1902 240.85 55.6602C241.23 55.4002 241.6 55.0602 241.98 54.7202H236.76C237.25 55.5802 237.7 56.4502 237.96 57.1202L234.32 58.1702V58.1802ZM252.01 61.3302H246.49C246.49 62.7602 246.49 63.0602 246.38 63.8502L248.3 62.2002C249.54 63.0602 251 64.1902 252.02 65.1702V61.3402L252.01 61.3302Z" fill="white"/>
</svg>
