<svg width="737" height="372" viewBox="0 0 737 372" fill="none" xmlns="http://www.w3.org/2000/svg">
<path d="M53.2299 39.65C52.9799 40.88 51.7599 41.74 49.7899 41.74C45.3699 67.15 36.4099 99.18 16.3999 117.23C13.5799 114.04 7.43988 108.88 3.87988 106.43C22.2899 90.6001 30.2699 60.89 33.4599 36.35L53.2198 39.66L53.2299 39.65ZM30.1499 9.94995H86.7299C89.6799 48.3699 96.7899 85.93 119.99 104.58C115.82 107.16 109.19 112.93 105.63 116.73C83.5399 96.48 75.7999 61.37 72.4899 25.53H30.1399V9.93994L30.1499 9.94995Z" fill="white"/>
<path d="M167.75 34.4899C167.26 35.3499 166.03 35.8398 164.31 35.7198C161.85 40.5098 159.15 45.5398 156.21 50.3298L159.4 51.4299C159.03 52.4099 158.17 53.2699 156.21 53.5199V117.1H142.46V70.8298C139.51 74.6298 136.57 78.0699 133.62 81.2599C132.15 78.1899 128.59 71.1899 126.5 68.1299C135.58 58.9199 146.14 43.2099 152.52 28.4799L167.74 34.4899H167.75ZM165.42 7.60986C164.81 8.46986 163.82 8.95984 162.11 8.70984C155.36 17.2998 143.94 29.4499 134.37 37.4299C132.65 34.4799 128.97 29.3299 126.64 26.6299C134.99 20.1199 145.3 9.4499 150.45 1.3399L165.42 7.59985V7.60986ZM181.87 91.5698C180.03 100.9 176.96 110.23 169.96 116.12L159.28 108.39C164.93 103.73 168.36 95.8699 169.96 87.8899L181.87 91.5698ZM226.43 85.5599C233.43 92.3099 240.79 101.52 243.86 108.27L231.71 115.14C230.24 111.34 227.17 106.43 223.61 101.64C222.26 112.69 218.7 115.63 210.48 115.63H198.82C186.91 115.63 184.46 112.07 184.46 101.02V88.1299L198.21 88.8699C194.53 86.9099 190.48 85.0698 187.04 83.7098L191.58 78.3099H164.33V66.5299H242.39V78.3099H203.11C208.14 80.5199 213.18 83.0999 216.24 85.3099L208.26 95.1299C206.42 93.5299 203.6 91.8199 200.53 90.0999C200.04 90.7099 199.3 91.0798 197.95 91.1998V100.9C197.95 103.85 198.32 104.09 201.14 104.09H208.87C211.2 104.09 211.69 102.99 212.06 96.3599C214.39 98.0799 219.3 99.9199 222.86 100.66C220.53 97.5899 217.83 94.5198 215.25 91.8198L226.42 85.5599H226.43ZM164.45 10.0698H195.75C196 6.87982 196.12 3.68986 196.12 0.859863L214.04 2.3299C213.79 3.4399 212.81 4.16986 210.85 4.28986C210.6 6.12986 210.48 8.09994 210.11 10.0599H242.15V21.4698H208.52L207.42 27.8499H236.51V60.9899H169.62V27.8499H193.92C194.29 25.8899 194.53 23.6798 194.78 21.4698H164.46V10.0599L164.45 10.0698ZM188.63 50.6998V38.1799H180.9V50.6998H188.63ZM206.43 50.6998V38.1799H198.57V50.6998H206.43ZM216.49 38.1799V50.6998H224.59V38.1799H216.49Z" fill="white"/>
<path d="M289.27 72.6599C288.9 70.8199 288.41 68.7298 287.67 66.5198L281.41 66.8898V117.21H268.52V77.3198C267.91 78.1798 266.92 78.5499 265.82 78.4199C264.59 88.4799 262.14 100.27 258.58 107.75C256 106.03 251.22 103.95 248.27 102.59C251.34 95.8398 253.3 84.2998 254.41 73.7498L268.53 77.0599V67.7298C263.13 68.0998 258.22 68.3398 254.17 68.4698C253.92 69.6998 252.94 70.1899 251.96 70.3099L249.14 55.5798H257.61C259.7 52.9998 261.66 50.2998 263.75 47.3598C260.07 41.9598 254.3 35.4499 249.14 30.5399L256.26 20.4698L258.96 22.9299C262.4 16.0599 266.08 7.82983 268.17 1.32983L282.53 7.21979C282.04 7.95979 280.93 8.44977 279.22 8.44977C276.27 15.0798 271.24 24.2799 266.95 30.9099C268.55 32.7499 270.02 34.4698 271.25 36.1898C275.67 29.1898 279.72 22.0698 282.66 15.9398L296.53 22.1998C295.92 23.0598 294.69 23.5499 293.09 23.5499C287.32 32.9999 278.61 45.3998 270.63 55.3398L283.39 55.2198C282.04 51.9098 280.44 48.7098 278.85 45.7698L289.16 41.4698C294.07 49.8198 298.86 60.6198 300.33 67.7398L289.28 72.6498L289.27 72.6599ZM292.58 73.2698C295.77 80.8798 299.08 90.5798 300.56 97.0798C297 98.3098 293.44 99.5398 289.02 101.13C287.92 94.6198 284.6 84.4398 281.66 76.8298L292.58 73.2698ZM316.64 95.7298C316.64 101.38 317.74 102.23 324.86 102.23H346.58C352.59 102.23 353.7 99.8998 354.44 87.9898C357.51 90.1998 363.03 92.2898 366.71 93.1498C364.99 109.84 361.06 114.88 347.69 114.88H323.39C307.93 114.88 303.26 110.95 303.26 95.8498V50.4398C302.16 51.1798 300.93 51.7898 299.7 52.3998C297.98 49.3298 293.93 44.4198 291.6 42.2098C301.91 37.5498 309.03 29.1998 313.08 19.9898H297V7.34979H348.31L351.13 7.09979L358.74 8.56976C358.62 9.54976 358.49 10.8998 358.13 11.8798C356.78 27.2198 355.06 34.3399 352.36 37.2899C350.4 39.2499 348.43 40.1098 346.1 40.5998H361.44V83.3099H348.06V79.5098H316.64V95.7098V95.7298ZM331.74 40.6198C331.37 37.0598 330.14 32.6398 328.43 29.5698C332.48 30.0598 336.16 30.0599 337.88 30.0599C342.3 30.0599 343.03 27.5998 344.14 19.9898H327.81C325.11 27.1098 321.06 34.3498 315.29 40.6098H331.74V40.6198ZM316.64 53.3798V66.7598H325.97V53.3798H316.64ZM348.06 66.7598V53.3798H338.24V66.7598H348.06Z" fill="white"/>
<path d="M488.25 33.7498V47.4998H476.34V100.77C476.34 113.29 472.29 117.22 450.56 117.22C449.95 113.29 447.74 107.03 445.65 103.23C448.72 103.35 451.66 103.35 454.12 103.35H459.52C461.48 103.35 462.22 102.74 462.22 100.77V47.4998H436.08V39.0298H422.09L431.05 41.7298C430.68 42.7098 429.58 43.1998 427.98 43.1998C426.26 46.6398 423.68 51.2998 421.23 55.1098H432.15V67.0198H411.9V74.3798H428.47V86.2899H411.9V94.5098L435.71 92.0499L436.08 104.2C415.58 107.15 393.98 109.97 380.23 111.56C379.86 112.67 378.88 113.4 378.02 113.52L373.36 98.1799C380.11 97.6899 388.82 96.8298 398.28 95.8498V86.2798H381.46V74.3698H398.28V67.0098H377.41V55.0998H387.23C386.13 50.9298 384.04 45.7698 381.83 41.5998L389.07 39.0198H372.87V26.8698H380.48C379.37 21.9598 376.31 14.4698 372.87 8.82977L383.06 4.40979C386.01 8.94979 388.95 14.8398 390.55 19.5098V1.33984L405.03 2.19983C404.91 3.29983 403.93 3.91979 402.08 4.28979V26.8798H407.73V1.34979L422.34 2.20984C422.22 3.30984 421.48 3.9298 419.52 4.2998V20.8698C422.34 15.8398 425.66 8.95981 427.38 3.80981L441.5 9.57977C440.89 10.4398 439.54 10.8099 438.19 10.6799C435.86 15.5899 431.68 22.3398 428.37 26.8798H436.96V33.7498H462.25V2.07983L479.68 2.81982C479.56 4.04982 478.7 4.90984 476.37 5.39984V33.7498H488.28H488.25ZM390.55 22.4598L380.98 26.8798H390.55V22.4598ZM395.83 55.1098H413.14C411.91 54.6198 410.69 54.1298 409.46 53.7598C411.55 49.5898 414 43.8198 415.47 39.0298H393.99C396.69 43.8198 399.27 49.5898 399.88 53.6398L395.83 55.1098ZM419.52 22.8298V26.8798H427.99L419.52 22.8298ZM450.57 54.3698C455.23 63.0798 459.41 74.3798 460.39 81.8598L447.38 86.5198C446.52 79.1598 442.72 67.4898 438.42 58.5298L450.57 54.3598V54.3698Z" fill="white"/>
<path d="M537.96 54.5L539.43 67.14C535.01 68.61 530.59 70.0899 526.17 71.4399V101.14C526.17 114.4 521.14 116.85 501.99 116.85C501.5 113.17 499.66 107.15 497.82 103.35C502.61 103.6 507.76 103.6 509.36 103.6C511.08 103.48 511.69 102.99 511.69 101.27V75.86L500.77 79.17C500.65 80.4 499.67 81.13 498.68 81.38L494.14 64.6899C498.93 63.7099 504.94 62.36 511.69 60.76V37.8101H495.98V24.1899H511.69V1.35999L529.49 2.09998C529.37 3.44998 528.51 4.18999 526.18 4.54999V24.1899H538.45V37.8101H526.18V57.33L537.96 54.51V54.5ZM557.6 34.62C557.6 39.28 558.83 39.9 566.44 39.9H589.02C595.4 39.9 596.51 37.94 597.37 25.78C600.44 27.87 606.57 30.1999 610.63 30.9399C608.79 48.4899 604.49 53.03 590.25 53.03H565.09C547.66 53.03 543 48.86 543 34.74V1.22998L560.92 2.21002C560.8 3.31002 559.82 4.16998 557.61 4.41998V17.55C570.25 14.48 583.14 10.43 591.49 6.5L602.9 17.67C602.41 18.16 601.43 18.16 599.83 18.16C589.03 22.58 572.58 26.6299 557.61 29.5699V34.6L557.6 34.62ZM544.96 117.1V60.27H602.89V116.36H588.28V112.19H558.82V117.1H544.95H544.96ZM588.29 72.67H558.83V80.28H588.29V72.67ZM558.83 99.92H588.29V91.9399H558.83V99.92Z" fill="white"/>
<path d="M648.07 46.27C651.51 51.06 660.71 65.42 662.68 68.85L655.07 79.41C653.6 75.48 650.77 69.7099 648.07 64.1899V116.97H634.69V70.33C631.5 80.03 627.69 88.74 623.4 95C622.05 90.95 618.98 85.3 616.9 81.99C623.9 72.29 630.4 55.23 633.59 40.5H619.72V26.88H634.69V1.22998L651.26 2.21002C651.14 3.31002 650.28 4.04998 648.07 4.41998V26.88H660.34V40.5H648.07V46.27ZM686 95.12C685.75 95.86 684.77 96.22 683.42 96.1C679.25 101.99 672 109.48 665.13 114.27C663.04 111.45 659.12 107.64 656.05 105.31C662.56 101.14 669.31 94.14 673.23 88.13L686 95.13V95.12ZM733.62 87.14H703.92V104.08C703.92 115.74 698.89 117.21 683.3 117.21C682.81 113.53 680.97 108.74 679.37 105.3C681.7 105.42 684.03 105.55 685.87 105.55C690.04 105.55 690.29 105.3 690.29 103.95V87.13H660.83V75.35H733.62V87.13V87.14ZM682.19 23.8101V18.04H661.45V6.38H733.38V18.04H711.78V23.8101H730.19V55.35H665.01V23.8101H682.19ZM726.99 70.45H668.81V59.77H726.99V70.45ZM677.03 34.49V44.6801H683.53V34.49H677.03ZM700.35 34.49H693.48V44.6801H700.35V34.49ZM700.35 23.8101V18.04H693.6V23.8101H700.35ZM723.55 114.27C720.48 109.12 713.49 101.01 707.72 95.25L718.15 88.38C724.04 93.78 731.28 101.27 734.6 106.55L723.55 114.28V114.27ZM717.54 44.6801V34.49H710.3V44.6801H717.54Z" fill="white"/>
<path d="M11.3699 183.02C18.9799 185.47 29.0399 190.02 34.0799 193.82L26.0999 206.71C21.4399 202.66 11.6199 197.5 3.87988 194.56L11.3699 183.02ZM6.94989 254.58C12.8399 245.01 21.1899 229.42 27.5699 214.93L38.8599 223.64C33.3399 236.77 26.7099 250.4 21.1899 259.97C21.7999 260.83 22.1699 261.69 22.1699 262.43C22.1699 263.04 21.9199 263.66 21.5599 264.27L6.94989 254.57V254.58ZM17.6299 149.88C24.9899 153.07 34.6899 158.35 39.4799 162.77L30.5199 174.68C26.0999 170.14 16.6499 164.25 9.15985 160.56L17.6299 149.88ZM119.14 225.73H94.0999C100.97 234.94 111.04 243.65 120.86 248.56C117.42 251.26 112.76 256.66 110.43 260.59C101.35 254.7 92.3899 245.12 85.6399 234.57V264.03H71.1599V235.19C63.4299 246.24 53.3599 255.32 42.1899 260.97C40.0999 257.53 35.8099 252.38 32.8599 249.68C44.5199 244.89 55.3199 235.93 62.6899 225.75H39.7399V212.62H71.1599V199.98L88.8299 200.96C88.7099 202.06 87.8499 202.92 85.6399 203.29V212.62H119.15V225.75L119.14 225.73ZM77.1599 170.01C77.0399 170.99 76.1799 171.85 74.3399 172.1C72.4999 187.57 68.4499 199.1 44.7599 205.36C43.5299 202.05 40.2199 197.14 37.6399 194.68C57.2799 190.38 59.9799 182.53 61.2099 168.66L77.1699 170.01H77.1599ZM54.4499 166.33V180.81H41.6899V153.81H116.81V180.69H103.55V166.33H54.4499ZM82.7999 168.29L99.4899 169.27C99.3699 170.38 98.3899 171.11 96.2999 171.36V186.21C96.2999 189.16 96.6699 189.4 98.9999 189.4H105.14C107.1 189.4 107.6 188.54 107.96 183.14C110.42 184.98 115.94 187.07 119.62 187.8C118.15 198.36 114.71 201.3 106.73 201.3H96.6699C85.1299 201.3 82.7999 197.62 82.7999 186.2V168.28V168.29Z" fill="white"/>
<path d="M242.75 210.14V223.76H230.11V264.26H215.99V223.76H203.1C201.63 239.35 196.96 254.81 185.43 264.63C182.61 262.67 176.59 259.23 173.16 257.63C183.47 249.16 187.64 236.27 189.12 223.75H176.72V213.56H159.9V215.16C164.32 219.09 175.24 230.26 177.94 233.08L170.21 242.78C168 239.34 163.83 234.19 159.9 229.4V264.26H146.28V232.96C142.23 241.67 137.44 249.78 132.41 255.3C131.18 251.37 128.11 245.6 125.91 242.04C132.41 235.17 139.04 223.87 143.22 213.56H127.14V201.16H146.29V194.53H130.58V182.13H146.29V175.75H128.37V163.35H146.29V148.5L163.11 149.48C162.99 150.58 162.13 151.32 159.92 151.57V163.35H177.35V175.75H159.92V182.13H174.89V194.53H159.92V201.16H177.59V210.12H189.99V185.94H179.19V172.32H189.99V148.63L207.05 149.61C206.93 150.84 206.07 151.45 203.86 151.94V172.32H216.01V148.51L233.19 149.49C233.07 150.59 232.21 151.33 230.12 151.7V172.32H241.53V185.94H230.12V210.12H242.76L242.75 210.14ZM203.84 210.14H215.99V185.96H203.84V210.14Z" fill="white"/>
<path d="M364.27 224.01V238.37H321.92V264.39H306.7V238.37H250.85V224.01H270.49V191.61H306.7V176.64H279.7C274.3 185.6 268.04 193.82 261.53 199.96C258.83 197.14 253.31 192.23 249.75 189.9C260.55 180.57 270.62 164.12 276.14 148.17L293.94 153.69C293.45 154.67 292.22 155.29 290.5 155.16C289.52 157.61 288.41 159.95 287.31 162.4H357.4V176.64H321.93V191.61H354.7V205.36H321.93V224.02H364.28L364.27 224.01ZM285.22 224.01H306.7V205.35H285.22V224.01Z" fill="white"/>
<path d="M396.44 173.32V194.92C396.44 214.93 394.6 245.37 383.31 264.51C380.86 262.05 374.6 257.88 371.28 256.41C381.59 238.86 382.33 213.08 382.33 194.92V160.18H426.52V148.64L445.18 149.62C445.06 150.85 444.2 151.58 441.87 152.08V160.18H487.04V173.31H396.46L396.44 173.32ZM470.09 218.49L479.79 222.79C479.42 223.65 478.93 224.02 478.32 224.51C473.41 233.71 466.41 241.08 457.82 246.85C466.9 249.43 477.21 251.15 488.38 252.13C485.31 255.2 481.51 260.97 479.67 264.77C465.43 263.05 452.79 259.86 441.87 254.95C429.84 259.86 415.85 262.93 401 264.77C399.9 261.09 397.2 255.56 394.86 252.37C406.4 251.39 417.44 249.55 427.39 246.6C421.87 242.67 417.2 238.13 413.15 232.85L420.02 230.4H400.5V218.86H467.64L470.1 218.49H470.09ZM467.14 213.21H416.57V194.68H399.88V183.27H416.57V174.31L433.75 175.29C433.63 176.52 432.77 177.25 430.56 177.62V183.27H452.65V174.31L470.32 175.29C470.2 176.52 469.34 177.25 467.13 177.62V183.27H486.28V194.68H467.13V213.21H467.14ZM427.62 230.39C431.42 234.44 436.33 238 442.23 240.95C448.12 238 453.15 234.57 457.2 230.39H427.62ZM452.66 194.67H430.57V202.4H452.66V194.67Z" fill="white"/>
<path d="M532.56 223.27V225.11C536.49 227.44 547.78 235.67 550.6 237.88L542.25 248.44C540.04 245.99 536.36 242.3 532.55 238.74V264.39H518.31V240.82C513.65 247.2 508.49 252.97 503.34 256.9C501.13 253.71 496.84 248.92 493.77 246.47C501.87 241.31 510.34 232.23 515.99 223.27H496.97V210.87H518.33V201.91H495.5V189.76H507.65C506.91 185.34 505.44 179.94 503.48 175.64L511.46 173.31H497.96V161.28H518.34V148.64L535.77 149.5C535.65 150.73 534.79 151.46 532.58 151.83V161.28H552.59V173.31H540.32L550.26 175.89C549.89 176.75 548.91 177.24 547.19 177.36C545.84 181.04 543.63 185.71 541.42 189.76H555.17V201.91H535.29C534.8 202.4 533.94 202.89 532.59 203.02V210.88H553.33V223.28H532.59L532.56 223.27ZM528.88 189.64C530.72 185.1 532.93 178.47 534.28 173.31H515.25C517.58 178.59 519.42 184.97 520.04 189.51L519.3 189.76H529.24L528.87 189.64H528.88ZM610.99 189.52V203.14H599.08V264.39H584.72V203.14H572.45C572.45 221.31 569.75 247.7 553.18 264.63C551.34 261.44 546.18 256.41 542.75 254.56C557.11 239.59 558.46 218.84 558.46 202.27V159.92L566.07 162.13C577.36 158.45 589.02 153.54 596.02 148.75L609.89 159.31C609.15 160.05 607.93 160.05 606.45 160.05C597.86 164.59 584.97 169.26 572.45 172.81V189.5H610.99V189.52Z" fill="white"/>
<path d="M662.43 154.78C662.06 155.89 660.96 156.38 658.99 156.25C655.8 164.23 652.24 172.21 648.19 179.82L652.98 181.17C652.73 182.27 651.75 183.01 649.79 183.26V264.39H635.18V201.42C631.38 206.82 627.45 211.73 623.4 216.15C621.93 212.47 618.24 204.73 616.04 201.3C627.33 189.64 638.87 169.14 645.74 149.01L662.43 154.78ZM734.48 182.77H699.38V195.78H731.42V209.16H699.38V223.15H733.13V236.77H699.38V264.26H684.28V182.76H677.9C673.11 192.46 667.71 201.29 662.07 208.29C659.62 205.34 654.34 200.19 651.02 197.73C660.47 186.93 669.43 167.78 674.59 149.74L692.14 155.02C691.65 156 690.54 156.74 688.7 156.49C687.35 160.54 685.88 164.71 684.16 168.76H734.48V182.75V182.77Z" fill="white"/>
<path d="M1.95996 326.97H25.4999V330.28H1.95996V326.97ZM3.46991 309.13H24.0499V312.41H3.46991V309.13ZM5.34991 317.82H21.9199V321.1H5.34991V317.82Z" fill="white"/>
<path d="M36.8598 313.09L39.0898 314.06C39.0398 314.25 38.8998 314.46 38.7398 314.57C37.4998 321.35 34.6198 326.81 30.7798 329.66C30.2098 328.88 28.8998 327.59 28.0898 327.1C31.2598 324.98 33.6298 321.24 34.8398 316.47H28.9798V313.22H36.2698L36.8598 313.09ZM42.8898 311.34C43.3998 313.25 44.0198 315.08 44.7998 316.77C46.7398 315.02 48.8898 312.71 50.2598 310.77L53.6198 313.27C53.4298 313.49 53.0798 313.51 52.7298 313.49C51.1198 315.35 48.3498 317.79 46.1898 319.49C48.0998 322.72 50.6798 325.35 54.0198 326.94C53.2098 327.61 52.0798 328.98 51.5198 329.95C47.5898 327.74 44.8498 324.14 42.8898 319.7V327.72C42.8898 331.06 41.6798 331.94 35.9198 331.94C35.7898 330.92 35.1698 329.28 34.6598 328.34C35.7398 328.39 36.7598 328.39 37.5698 328.39C39.3498 328.39 39.4498 328.39 39.4498 327.72V306.55L43.6198 306.74C43.5898 307.04 43.4098 307.22 42.8898 307.28V311.34Z" fill="white"/>
<path d="M66.97 325.84C66.86 326.05 66.57 326.16 66.19 326.11C64.36 327.97 61.27 330.41 58.55 331.97C57.82 331.22 56.56 330.14 55.75 329.55C58.44 328.26 61.51 326 62.96 324.17L66.97 325.84ZM80.72 320.24V323.39H56.02V320.24H61.86V314.54H57.1V311.39H61.86V306.71L65.95 306.95C65.92 307.22 65.73 307.38 65.22 307.46V311.39H71.46V306.71L75.58 306.95C75.55 307.22 75.34 307.38 74.83 307.46V311.39H79.92V314.54H74.83V320.24H80.72ZM65.22 314.54V320.24H71.46V314.54H65.22ZM77.54 331.89C76.03 330.3 72.78 327.69 70.38 325.89L73.45 324.17C75.74 325.81 79.13 328.26 80.85 329.9L77.54 331.89Z" fill="white"/>
<path d="M89.55 316.4C90.3 317.45 92.32 320.6 92.75 321.35L91.08 323.66C90.76 322.8 90.14 321.54 89.55 320.33V331.9H86.62V321.68C85.92 323.8 85.09 325.72 84.15 327.09C83.85 326.2 83.18 324.97 82.72 324.24C84.25 322.12 85.68 318.38 86.38 315.15H83.34V312.16H86.62V306.54L90.25 306.75C90.22 306.99 90.04 307.15 89.55 307.23V312.15H92.27V315.14H89.55V316.4ZM108.38 325.28V327.65H106.87V329C106.87 331.61 105.71 331.91 101.81 331.91C101.68 331.16 101.33 330.08 100.98 329.35C101.57 329.38 102.19 329.4 102.68 329.4C103.78 329.4 103.89 329.4 103.89 328.97V327.65H96.57V331.9H93.66V327.65H91.8V325.28H93.66V318.66H98.72V317.66H92.34V315.35H95.7V314.25H93.47V312.07H95.7V310.99H92.9V308.76H95.7V306.53L99.39 306.74C99.36 306.98 99.18 307.14 98.69 307.22V308.75H101.68V306.52L105.39 306.73C105.36 307 105.18 307.13 104.69 307.21V308.74H107.86V310.97H104.69V312.05H107.3V314.23H104.69V315.33H108.24V317.64H101.62V318.64H106.87V325.26H108.38V325.28ZM98.72 320.9H96.57V321.98H98.72V320.9ZM96.57 324.1V325.28H98.72V324.1H96.57ZM98.69 311V312.08H101.68V311H98.69ZM98.69 314.25V315.35H101.68V314.25H98.69ZM103.88 320.89H101.62V321.97H103.88V320.89ZM101.62 325.27H103.88V324.09H101.62V325.27Z" fill="white"/>
<path d="M117.26 320.17C117.21 320.55 117.18 320.95 117.13 321.33C118.23 322.46 120.63 325.23 121.25 325.93L119.04 328.27C118.47 327.3 117.43 325.85 116.46 324.58C115.71 327.05 114.44 329.4 112.29 331.14C111.83 330.47 110.81 329.36 110.08 328.83C112.93 326.76 113.9 323.4 114.25 320.17H110.21V317.24H114.41V313.63H110.89V310.75H114.41V306.55L118.12 306.74C118.09 307.01 117.91 307.17 117.42 307.25V310.75H120.81V313.63H117.42V317.24H121.27V320.17H117.26ZM126.89 324.26C126.84 324.45 126.62 324.61 126.24 324.64C125.54 327.49 124.44 330.21 119.89 331.93C119.57 331.23 118.79 330.1 118.17 329.59C122.07 328.38 122.96 326.31 123.39 323.86L126.89 324.26ZM130.93 327.87C130.93 328.6 130.98 328.7 131.41 328.7H132.49C132.95 328.7 133.06 328.32 133.14 325.45C133.71 325.96 135 326.45 135.8 326.66C135.53 330.48 134.75 331.5 132.81 331.5H130.93C128.46 331.5 127.94 330.59 127.94 327.87V323.13H122.18V307.5H134.23V323.13H130.92V327.87H130.93ZM125.17 310.36V311.95H131.09V310.36H125.17ZM125.17 314.5V316.11H131.09V314.5H125.17ZM125.17 318.64V320.28H131.09V318.64H125.17Z" fill="white"/>
<path d="M143.74 313.55V312.72H137.55V310.76H143.74V309.95H139.65V308.2H143.74V306.53L147.29 306.74C147.26 306.98 147.1 307.12 146.62 307.22V308.19H151.38V310.75H153.07V312.71H151.38V315.29H146.62V316.1H151.92V317.88H146.62V318.69H153.02V320.74H137.58V318.69H143.74V317.88H138.95V316.1H143.74V315.29H139.54V313.54H143.74V313.55ZM153.16 330.36C148.02 330.71 142.56 330.98 139.06 331.14C139.01 331.38 138.85 331.52 138.63 331.54L137.55 328.69C141.26 328.61 147.5 328.45 153.21 328.21L153.16 330.36ZM151.6 327.67H139.36V321.51H151.6V327.67ZM142 323.04V323.85H144.04V323.04H142ZM142 325.3V326.13H144.04V325.3H142ZM146.63 309.94V310.75H148.65V309.94H146.63ZM148.65 313.54V312.71H146.63V313.54H148.65ZM148.86 323.84V323.03H146.74V323.84H148.86ZM148.86 326.13V325.3H146.74V326.13H148.86ZM157.41 310.04C157.38 310.28 157.2 310.44 156.74 310.52V325.1H153.81V309.82L157.41 310.04ZM158.92 307.08L162.66 307.24C162.63 307.51 162.47 307.7 161.99 307.78V328.17C161.99 331.02 161.08 331.91 156.07 331.86C155.96 331 155.53 329.6 155.1 328.69C156.53 328.74 157.87 328.74 158.33 328.74C158.76 328.74 158.92 328.61 158.92 328.17V307.08Z" fill="white"/>
<path d="M176.86 305.77H178.1V332.67H176.86V305.77Z" fill="white"/>
<path d="M194.89 307.63H214.47C214.44 310.24 214.42 312.79 214.42 315.22C214.42 322.64 214.66 328.43 215.63 328.43C215.87 328.4 216.06 326.76 216.09 324.61C216.6 325.5 217.33 326.55 217.89 327.14C217.59 330.42 216.98 331.93 215.31 331.93C211.38 331.93 211.3 322.22 211.3 310.65H197.96V317.08C197.96 321.6 197.53 328.03 194.52 332.01C193.98 331.47 192.64 330.58 191.91 330.26C194.65 326.6 194.9 321.17 194.9 317.08V307.64L194.89 307.63ZM203.12 316.21V314.68C201.64 314.84 200.16 314.95 198.74 315.03C198.66 314.38 198.26 313.31 197.96 312.66C201.78 312.39 206.11 311.83 208.61 310.99L211.03 313.28C210.92 313.41 210.81 313.41 210.38 313.41C209.3 313.73 207.99 314 206.59 314.22C206.54 314.41 206.32 314.57 205.92 314.62V316.21H210.17V324.09H205.92V326.75L207.75 326.67C207.48 326.13 207.19 325.59 206.89 325.11L209.47 324.33C210.63 326.13 211.78 328.47 212.16 330.09L209.42 330.98C209.31 330.44 209.1 329.8 208.86 329.12C205.04 329.44 201.22 329.71 198.66 329.87C198.63 330.14 198.45 330.27 198.2 330.3L197.26 327.02C198.79 326.97 200.86 326.91 203.12 326.83V324.09H199V316.21H203.12ZM201.48 321.64H203.12V318.65H201.48V321.64ZM207.56 318.65H205.92V321.64H207.56V318.65Z" fill="white"/>
<path d="M230.6 320.14C230.57 320.41 230.33 320.57 229.9 320.65C229.23 325.55 228.26 329.69 221.13 332C220.78 331.14 219.89 329.82 219.17 329.15C225.55 327.4 226.19 324.15 226.54 319.76L230.6 320.14ZM237.08 327.67C237.08 328.64 237.21 328.8 238.1 328.8H240.6C241.49 328.8 241.65 328.21 241.76 324.5C242.46 325.04 243.86 325.6 244.72 325.82C244.4 330.55 243.56 331.85 240.87 331.85H237.64C234.57 331.85 233.82 330.83 233.82 327.71V319.51H219.86V316.47H230.3V306.54L234.34 306.75C234.31 307.05 234.1 307.21 233.59 307.29V316.46H244.3V319.5H237.52C237.41 319.55 237.28 319.58 237.09 319.61V327.68L237.08 327.67ZM224.73 307.68C225.97 309.72 227.31 312.41 227.77 314.24L224.62 315.5C224.22 313.72 223.01 310.93 221.82 308.77L224.73 307.67V307.68ZM243.1 308.97C242.99 309.21 242.7 309.29 242.29 309.29C241.46 311.23 240 313.81 238.9 315.45C238.87 315.45 236.13 314.24 236.13 314.24C237.26 312.44 238.6 309.64 239.33 307.49L243.1 308.97Z" fill="white"/>
<path d="M255.14 313.09L257.37 314.06C257.32 314.25 257.18 314.46 257.02 314.57C255.78 321.35 252.9 326.81 249.06 329.66C248.49 328.88 247.18 327.59 246.37 327.1C249.54 324.98 251.91 321.24 253.12 316.47H247.26V313.22H254.55L255.14 313.09ZM261.17 311.34C261.68 313.25 262.3 315.08 263.08 316.77C265.02 315.02 267.17 312.71 268.54 310.77L271.9 313.27C271.71 313.49 271.36 313.51 271.01 313.49C269.4 315.35 266.63 317.79 264.47 319.49C266.38 322.72 268.96 325.35 272.3 326.94C271.49 327.61 270.36 328.98 269.8 329.95C265.87 327.74 263.13 324.14 261.17 319.7V327.72C261.17 331.06 259.96 331.94 254.2 331.94C254.07 330.92 253.45 329.28 252.94 328.34C254.02 328.39 255.04 328.39 255.85 328.39C257.63 328.39 257.73 328.39 257.73 327.72V306.55L261.9 306.74C261.87 307.04 261.69 307.22 261.17 307.28V311.34Z" fill="white"/>
<path d="M293.13 318.85C293.4 319.9 293.75 320.97 294.21 322.02C295.15 321.16 296.12 320.11 296.79 319.28L299.48 321.57C299.4 321.68 299.21 321.73 299 321.73C298.89 321.73 298.81 321.73 298.7 321.7C297.92 322.45 296.58 323.56 295.47 324.36C296.49 325.87 297.84 327.18 299.61 328.05C298.99 328.61 298.05 329.88 297.62 330.69C295.55 329.43 294.1 327.49 293.05 325.39V328.91C293.05 331.3 292.35 331.92 288.18 331.92C288.07 331.14 287.7 329.98 287.35 329.2C287.92 329.23 288.53 329.25 288.99 329.25C290.04 329.25 290.15 329.25 290.15 328.85V318.84H284.39C284.66 319.51 284.9 320.16 285.04 320.7L286.57 319.44C287.67 320.38 289.05 321.73 289.66 322.69L287.4 324.65C286.86 323.68 285.6 322.28 284.52 321.29L282.61 322.12C282.53 321.72 282.4 321.26 282.23 320.78L280.86 320.89V331.92H278.04V323.23C277.91 323.42 277.69 323.47 277.47 323.44C277.2 325.65 276.66 328.23 275.91 329.87C275.32 329.49 274.3 329.04 273.65 328.74C274.32 327.26 274.73 324.7 274.97 322.42L278.04 323.15V321.05C276.83 321.13 275.75 321.18 274.87 321.21C274.79 321.48 274.57 321.59 274.39 321.61L273.74 318.38H275.68C276.11 317.84 276.57 317.25 277 316.63C276.22 315.45 274.96 313.99 273.83 312.94L275.39 310.73L275.98 311.27C276.76 309.76 277.54 307.96 278.02 306.54L281.17 307.83C281.06 307.99 280.79 308.1 280.44 308.1C279.77 309.58 278.66 311.6 277.72 313.08C278.04 313.46 278.37 313.83 278.63 314.18C279.57 312.65 280.46 311.09 281.1 309.74L284.14 311.11C284.01 311.3 283.74 311.41 283.39 311.41C282.15 313.48 280.27 316.17 278.52 318.32L281.29 318.29C280.97 317.56 280.62 316.86 280.27 316.22L282.58 315.25C283.17 316.27 283.82 317.51 284.3 318.67V316.09H292.88L293.15 314.83H288.39L288.2 315.48L285.19 315.02C285.92 312.79 286.83 309.26 287.37 306.55L290.97 306.93C290.92 307.2 290.73 307.36 290.24 307.39L289.97 308.57H295L295.7 308.49L297.29 308.81C297.1 310.1 296.46 313.44 295.89 316.1H299.31V318.84H293.12L293.13 318.85ZM283.26 322.43C283.88 323.88 284.52 325.71 284.82 326.95C284.04 327.22 283.26 327.52 282.29 327.87C282.08 326.61 281.43 324.7 280.86 323.22L283.25 322.44L283.26 322.43ZM290.15 326.63C288.46 327.97 286.68 329.35 285.47 330.18C285.5 330.42 285.39 330.66 285.2 330.8L283.48 327.76C284.91 326.98 287.09 325.61 289.18 324.24L290.15 326.63ZM289.05 312.43H293.62L293.86 311H289.42L289.04 312.43H289.05Z" fill="white"/>
<path d="M312.96 312.61C312.88 312.8 312.72 312.93 312.5 313.01C311.69 315.11 310.54 317.18 309.16 319.06C310.48 319.97 312.71 321.62 313.33 322.1L311.45 324.76C310.83 324.01 309.78 322.96 308.76 322.02V331.95H305.56V323.21C304.51 324.21 303.44 325.04 302.33 325.74C302.06 324.91 301.28 323.32 300.77 322.7C303.86 320.98 306.82 317.88 308.62 314.47H301.6V311.56H305.55V306.56L309.48 306.77C309.45 307.04 309.24 307.2 308.75 307.28V311.56H310.34L310.82 311.43L312.94 312.61H312.96ZM321.06 327.97H326.84V331.14H311.45V327.97H317.72V318.04H312.55V314.92H317.72V306.8L321.78 307.04C321.75 307.31 321.54 307.47 321.05 307.55V314.92H326.19V318.04H321.05V327.97H321.06Z" fill="white"/>
<path d="M353.7 327.91V330.84H333.04V331.92H329.89V307.47H352.97V310.32H333.04V327.91H353.7ZM334.68 326.56V319.24H342.16V326.56H334.68ZM337.29 321.42V324.38H339.39V321.42H337.29ZM348.1 311.57V318.05H337.45V311.57H348.1ZM344.9 315.93V313.7H340.46V315.93H344.9ZM351.03 319.24V326.56H343.36V319.24H351.03ZM348.23 324.38V321.42H346.02V324.38H348.23Z" fill="white"/>
<path d="M367.85 305.77H369.09V332.67H367.85V305.77Z" fill="white"/>
<path d="M403.72 319.17H397.37V322.29H404.96V325.11H397.37V328.36H407.4V331.24H384.29V328.36H393.97V325.11H386.47V322.29H393.97V319.17H387.84V317.02C386.87 317.69 385.85 318.34 384.83 318.9C384.4 318.15 383.51 316.96 382.81 316.32C387.46 313.95 391.93 309.73 393.92 306.37L398.22 306.61C398.14 306.91 397.9 307.09 397.52 307.15C400.13 310.67 404.73 314.17 408.79 315.92C407.96 316.73 407.23 317.86 406.64 318.83C405.67 318.29 404.68 317.67 403.71 317.03V319.18L403.72 319.17ZM402.75 316.32C399.9 314.25 397.24 311.8 395.65 309.59C394.14 311.77 391.67 314.19 388.82 316.32H402.76H402.75Z" fill="white"/>
<path d="M435.55 327.91V330.84H414.89V331.92H411.74V307.47H434.82V310.32H414.89V327.91H435.55ZM416.53 326.56V319.24H424.01V326.56H416.53ZM419.14 321.42V324.38H421.24V321.42H419.14ZM429.95 311.57V318.05H419.3V311.57H429.95ZM426.75 315.93V313.7H422.31V315.93H426.75ZM432.88 319.24V326.56H425.21V319.24H432.88ZM430.08 324.38V321.42H427.87V324.38H430.08Z" fill="white"/>
<path d="M441.8 315.7V313.63C441.24 314.17 440.67 314.68 440.11 315.11C439.52 314.52 438.39 313.6 437.66 313.12C439.84 311.64 441.99 309.03 443.17 306.53L446.75 307.77C446.67 307.99 446.43 308.09 446.05 308.07C445.81 308.5 445.54 308.96 445.24 309.39H461.57V312.24H459.01V315.71H462.56V318.59H459.01V322.03H462.16V324.91H438.57V322.03H441.8V318.59H438.14V315.71H441.8V315.7ZM444.06 326.24C443.44 328.31 442.28 330.52 440.97 331.94L437.88 330.68C439.09 329.55 440.3 327.45 440.92 325.49L444.07 326.24H444.06ZM444.65 312.22V315.69H446.61V312.22H444.65ZM444.65 318.57V322.01H446.61V318.57H444.65ZM446.29 331.62C446.29 330.3 446.08 328.1 445.78 326.43L448.77 326.08C449.12 327.72 449.44 329.87 449.47 331.16L446.3 331.62H446.29ZM451.29 312.22H449.3V315.69H451.29V312.22ZM451.29 318.57H449.3V322.01H451.29V318.57ZM452.55 331.64C452.39 330.32 451.77 328.14 451.15 326.47L454.19 325.96C454.86 327.55 455.54 329.67 455.78 331.02L452.55 331.64ZM456.05 315.69V312.22H453.98V315.69H456.05ZM456.05 322.01V318.57H453.98V322.01H456.05ZM459.76 331.91C459.17 330.46 457.74 328.06 456.53 326.34L459.62 325.34C460.86 327.01 462.36 329.29 463.06 330.8L459.75 331.9L459.76 331.91Z" fill="white"/>
<path d="M477.45 306.93L480.06 307.06C480.01 307.41 479.68 307.65 479.23 307.79V315.38C479.23 319.5 481.79 325.76 490.23 328.88C489.48 329.58 488.45 330.98 487.97 331.92C481.46 329.26 478.2 323.82 477.45 321.13C476.75 323.9 473.76 329.17 467.36 331.92C466.93 331.19 465.8 329.8 465.07 329.15C473.25 326.03 475.7 319.44 475.7 315.4V306.79L477.45 306.92V306.93ZM465.64 319.36C467.6 317.69 468.52 315 468.89 311.91L472.14 312.64C471.68 316.03 470.88 319.26 468.56 321.19L465.63 319.36H465.64ZM489.42 313.6C489.26 313.81 488.96 313.92 488.59 313.9C487.59 316.02 485.87 318.9 484.58 320.73C484.55 320.7 481.81 319.36 481.81 319.36C483.1 317.37 484.63 314.28 485.5 311.88L489.43 313.6H489.42Z" fill="white"/>
<path d="M499.08 315.62L500.86 316.13C500.83 316.32 500.75 316.53 500.67 316.67C500.32 320.22 499.7 323.26 498.79 325.74C501.32 327.73 504.74 328.16 508.72 328.19C510.33 328.19 515.85 328.19 517.84 328.11C517.33 328.84 516.79 330.34 516.58 331.26H508.64C504.07 331.26 500.33 330.72 497.48 328.54C496.65 329.97 495.62 331.15 494.47 332.04C493.99 331.39 492.72 330.26 492.05 329.86C493.34 328.97 494.39 327.76 495.22 326.23C494.22 324.86 493.36 323.14 492.66 320.96L495.19 320.05C495.57 321.23 496 322.26 496.51 323.12C496.94 321.78 497.26 320.24 497.48 318.55H495.62L495.27 319.33L492.34 318.58C493.52 316.21 494.84 313.25 495.84 310.89H492.29V308.07H497.62L498.21 307.99L500.07 308.66C499.99 308.82 499.91 309.01 499.8 309.17C499.1 310.87 498.02 313.29 496.92 315.73H498.53L499.09 315.65L499.08 315.62ZM506.67 312.04V310.94H501.91V308.49H506.67V306.47L510.52 306.68C510.49 306.95 510.3 307.11 509.82 307.19V308.48H515.25V312.03H517.48V314.5H515.25V318.08H509.82V319.21H515.68V321.55H509.82V322.71H516.89V325.27H509.82V327.53H506.67V325.27H500.21V322.71H506.67V321.55H501.4V319.21H506.67V318.08H501.8V315.63H506.67V314.5H499.84V312.03H506.67V312.04ZM512.08 310.94H509.82V312.04H512.08V310.94ZM512.08 315.65V314.52H509.82V315.65H512.08Z" fill="white"/>
<path d="M544.47 325.6H535.89C538.23 326.94 541.7 327.99 544.98 328.45C544.28 329.12 543.37 330.39 542.91 331.19C539.63 330.46 536.24 328.98 533.74 326.99V331.89H530.59V326.97C528.09 328.93 524.7 330.49 521.39 331.27C520.93 330.49 520.05 329.28 519.4 328.63C522.6 328.09 525.91 326.99 528.22 325.59H519.91V323.06H530.59V322.36C530.43 322.44 530.27 322.49 530.08 322.58C529.73 322.04 528.68 321.02 528.06 320.56C525.48 320.99 523 321.39 521.23 321.66C521.2 321.87 521.04 322.01 520.83 322.06L519.86 319.21C520.99 319.1 522.42 318.97 524 318.78V315.93H520.58V313.7H530.32V315.93H526.93V318.49L530.35 318.09L530.4 319.11C531.34 318.25 531.53 317.28 531.53 316.29V313.57H541.46V318.36C541.46 319.19 541.46 319.3 541.78 319.3C542.37 319.3 542.45 319.3 542.53 319.22C542.77 319.06 542.8 318.47 542.85 316.8C543.33 317.23 544.28 317.69 544.95 317.93C544.74 320.59 544.65 321.83 542.26 321.83H540.91C538.57 321.83 538.46 320.08 538.44 319.33L536.91 320.73C536.37 320 535.27 318.98 534.27 318.2C534.03 319.22 533.52 320.22 532.6 321.05L534.43 321.16C534.4 321.4 534.19 321.59 533.73 321.64V323.07H544.46V325.6H544.47ZM525.75 313.44C525.56 312.77 525.08 311.8 524.59 310.96H524.05C523.38 311.85 522.65 312.68 521.93 313.33C521.31 312.82 520.21 312.09 519.51 311.72C521.04 310.46 522.55 308.3 523.38 306.31L526.8 307.44C526.67 307.65 526.42 307.74 526.13 307.71L525.73 308.44H531.81V310.4C532.89 309.22 533.83 307.74 534.39 306.31L537.86 307.33C537.75 307.57 537.51 307.65 537.19 307.63L536.79 308.44H544.7V310.97H539.94C540.37 311.56 540.75 312.15 540.96 312.64L538.22 313.42C537.95 312.77 537.36 311.81 536.74 310.97H535.1C534.48 311.78 533.78 312.48 533.11 313.07C532.44 312.61 531.25 312.02 530.45 311.64C530.72 311.45 530.99 311.21 531.26 310.97H527.52C527.87 311.59 528.19 312.21 528.38 312.69L525.77 313.44H525.75ZM538.42 315.7H534.47C534.47 316.72 534.47 316.94 534.39 317.5L535.76 316.32C536.65 316.94 537.7 317.75 538.42 318.44V315.7Z" fill="white"/>
<path d="M558.85 305.77H560.09V332.67H558.85V305.77Z" fill="white"/>
<path d="M596.52 322.86H590.57V328.78C590.57 331.61 589.47 331.93 584.95 331.93C584.84 331.07 584.44 329.91 584.06 329.08C584.76 329.11 585.49 329.13 586.05 329.13C587.4 329.13 587.45 329.1 587.45 328.7V322.86H581.48V312.85H586.46C586.59 312.15 586.73 311.4 586.84 310.67H579.44V315.78C579.44 320.41 579.06 327.37 576.67 331.87C576.05 331.33 574.63 330.55 573.82 330.26C576.08 326.12 576.27 320.04 576.27 315.79V307.75H598.95V310.68H590.48C590.27 311.38 590 312.16 589.73 312.86H596.54V322.87L596.52 322.86ZM586.4 324.77C586.29 324.96 586.05 325.09 585.7 325.07C584.52 327.09 582.58 329.27 580.67 330.64C580.08 330.13 578.95 329.32 578.2 328.89C580.06 327.68 581.88 325.61 582.91 323.64L586.41 324.77H586.4ZM584.52 315.27V316.7H593.32V315.27H584.52ZM584.52 318.96V320.44H593.32V318.96H584.52ZM596.76 330.53C595.85 329 593.72 326.68 591.92 325.04L594.4 323.51C596.18 325.07 598.41 327.25 599.43 328.81L596.77 330.53H596.76Z" fill="white"/>
<path d="M615.76 327.97H626.33V331.14H601.9V327.97H612.39V322.56H605.02V319.47H612.39V314.68H606.74C605.91 316.37 604.96 317.93 603.97 319.15C603.35 318.56 602.03 317.62 601.23 317.13C603.27 314.84 605.02 310.7 605.99 306.8L609.97 307.88C609.86 308.12 609.59 308.26 609.22 308.23C608.9 309.33 608.52 310.43 608.12 311.54H612.4V306.54L616.49 306.75C616.46 307.02 616.25 307.18 615.76 307.29V311.54H625.01V314.69H615.76V319.48H623.91V322.57H615.76V327.98V327.97Z" fill="white"/>
<path d="M651.76 315.57L653.83 317.16C653.75 317.27 653.61 317.32 653.43 317.32C653.35 317.32 653.27 317.32 653.19 317.29C652.81 317.59 652.25 318.02 651.68 318.42C652.49 318.96 653.37 319.39 654.26 319.71C653.61 320.25 652.78 321.27 652.38 321.97C651.9 321.76 651.41 321.49 650.93 321.19V325.66H646.17V329.13C646.17 331.63 644.99 331.96 641.14 331.96C640.95 331.15 640.49 330.08 640.14 329.38C641.14 329.41 642.27 329.41 642.62 329.41C642.94 329.41 643.05 329.3 643.05 329.03V325.67H638.42V321.29C637.96 321.59 637.48 321.88 636.97 322.15C636.67 321.61 636.06 320.89 635.49 320.4C635.22 324.35 634.31 328.98 631.54 332.02C631.11 331.43 629.9 330.27 629.31 329.9C631.09 327.91 631.92 325.38 632.3 322.85L629.91 324.28C629.91 324.52 629.75 324.74 629.51 324.82L628.51 321.65C629.59 321.19 631.04 320.47 632.6 319.69C632.63 318.96 632.63 318.26 632.63 317.59V316.65L630.24 317.75C630.11 316.32 629.49 314.04 628.79 312.29L631.08 311.32C631.78 312.83 632.4 314.74 632.64 316.08V308.84H640.95V306.58L645.09 306.79C645.06 307.06 644.85 307.22 644.34 307.33V308.84H654.08V311.56H644.66V311.59L646.03 311.72C646 311.99 645.79 312.18 645.38 312.18C645.27 312.5 645.14 312.85 645 313.18H653.63V315.6H651.77L651.76 315.57ZM641.75 327.06C641.67 327.28 641.45 327.36 641.1 327.33C640.16 328.81 638.65 330.42 637.15 331.5C636.61 330.99 635.59 330.15 634.94 329.75C636.31 328.86 637.68 327.38 638.46 325.98L641.74 327.06H641.75ZM635.56 311.54V317.57C635.56 318.27 635.53 319.02 635.51 319.8C636.32 319.37 637.04 318.91 637.72 318.4C637.18 317.97 636.59 317.51 636.05 317.14L637.69 315.71C638.23 316.03 638.85 316.46 639.41 316.89C639.81 316.46 640.19 316.03 640.51 315.57H636.31V313.15H641.9C642.14 312.61 642.33 312.07 642.49 311.54H635.55H635.56ZM648.1 320.9V319.9H641.11V320.9H648.1ZM648.1 323.75V322.7H641.11V323.75H648.1ZM647.29 317.99C646.67 317.24 646.11 316.43 645.65 315.57H643.82C643.34 316.4 642.77 317.21 642.13 317.99H647.29ZM651.03 331.58C650.33 330.4 648.69 328.57 647.34 327.28L649.79 326.07C651.13 327.28 652.83 329.03 653.64 330.21L651.03 331.58ZM648.58 315.57C648.98 316.11 649.47 316.62 649.98 317.1C650.57 316.59 651.19 316 651.62 315.57H648.58Z" fill="white"/>
<path d="M668.23 315.59C666.83 316.32 665.24 316.96 663.71 317.42C663.5 316.96 663.17 316.34 662.85 315.81V317.56C662.85 321.89 662.29 328.21 658.81 332.01C658.38 331.42 657.17 330.26 656.58 329.89C658.36 327.9 659.19 325.37 659.57 322.84L657.18 324.27C657.18 324.51 657.02 324.73 656.78 324.81L655.78 321.64C656.86 321.18 658.31 320.46 659.87 319.68C659.9 318.95 659.9 318.25 659.9 317.58V316.64L657.51 317.74C657.38 316.31 656.76 314.03 656.06 312.28L658.35 311.31C659.05 312.82 659.67 314.73 659.91 316.07V308.83H668.22V306.57L672.36 306.78C672.33 307.05 672.12 307.21 671.61 307.32V308.83H681.35V311.55H673.58C673.53 311.58 673.47 311.6 673.39 311.6C675.3 313.08 678.66 314.26 681.46 314.85C680.9 315.5 680.28 316.57 679.87 317.35L679.74 317.32C679.71 317.48 679.55 317.59 679.15 317.67V323.16C679.15 325.2 678.42 325.53 675.01 325.53C674.9 324.88 674.55 324.02 674.23 323.43C674.66 323.43 675.09 323.46 675.44 323.46C676.49 323.46 676.6 323.46 676.6 323.11V317.08L679.45 317.21C678.16 316.83 676.71 316.24 675.36 315.57V316.59H668.26V315.59H668.23ZM666.99 326.97C666.56 328.75 665.83 330.49 664.35 331.62L662.14 330.06C663.35 329.17 664.16 327.69 664.53 326.19L666.98 326.97H666.99ZM662.85 314.94C665.59 314.21 668.37 312.92 670.01 311.52H662.85V314.94ZM671.51 317.28V323.57C671.51 325.21 670.76 325.4 668.18 325.4C668.1 324.89 667.83 324.27 667.61 323.81C668.15 323.84 668.74 323.84 668.93 323.84C669.2 323.84 669.2 323.76 669.2 322.98H666.51V325.29H664.2V317.27H671.52L671.51 317.28ZM669.2 318.81H666.51V319.56H669.2V318.81ZM666.51 321.66H669.2V320.88H666.51V321.66ZM670.3 328.79C670.3 329.38 670.41 329.46 671.19 329.46H673.58C674.2 329.46 674.33 329.24 674.41 327.79C674.92 328.17 675.97 328.54 676.7 328.68C676.43 331.1 675.73 331.72 673.9 331.72H670.83C668.22 331.72 667.66 331.02 667.66 328.79V326.23L670.49 326.39C670.25 326.18 670.01 325.99 669.79 325.83L671.75 324.54C672.75 325.21 673.88 326.26 674.39 327.04L672.32 328.47C672.02 327.96 671.43 327.29 670.79 326.69C670.71 326.77 670.55 326.82 670.31 326.88V328.79H670.3ZM674.01 314.83C673.18 314.32 672.4 313.78 671.78 313.24C671.19 313.78 670.44 314.32 669.57 314.83H674.01ZM672.61 317.33L675.49 317.52C675.46 317.73 675.3 317.87 674.9 317.92V322.6H672.61V317.33ZM678.93 331.59C678.31 330.35 676.83 328.55 675.46 327.26L677.75 325.94C679.15 327.15 680.68 328.87 681.36 330.11L678.94 331.59H678.93Z" fill="white"/>
<path d="M697.61 327.97H708.18V331.14H683.75V327.97H694.24V322.56H686.87V319.47H694.24V314.68H688.59C687.76 316.37 686.81 317.93 685.82 319.15C685.2 318.56 683.88 317.62 683.08 317.13C685.12 314.84 686.87 310.7 687.84 306.8L691.82 307.88C691.71 308.12 691.44 308.26 691.07 308.23C690.75 309.33 690.37 310.43 689.97 311.54H694.25V306.54L698.34 306.75C698.31 307.02 698.1 307.18 697.61 307.29V311.54H706.86V314.69H697.61V319.48H705.76V322.57H697.61V327.98V327.97Z" fill="white"/>
<path d="M716.93 326.76C716.18 328.64 715.05 330.37 712.98 331.44L710.48 329.61C712.26 328.78 713.55 327.3 714.19 325.68L716.93 326.76ZM721.34 313.66C721.21 313.34 721.02 312.99 720.8 312.61C717.46 312.82 714.13 313.01 711.92 313.15C711.89 313.36 711.68 313.5 711.49 313.53L710.6 310.71L712.56 310.66C713.34 309.42 714.15 307.78 714.63 306.54L718.07 307.56C717.99 307.77 717.75 307.88 717.34 307.88C716.91 308.69 716.24 309.66 715.59 310.6L719.3 310.49C718.92 310.01 718.55 309.52 718.14 309.12L720.4 307.94C721.72 309.23 723.17 311.03 723.74 312.35L721.32 313.67L721.34 313.66ZM722.12 313.79V322.18C722.12 324.2 721.42 324.68 718.19 324.68C718.08 323.98 717.71 323.09 717.41 322.47C718.03 322.5 718.67 322.5 718.92 322.5C719.22 322.5 719.22 322.39 719.22 321.4H715.13V324.79H712.28V313.79H722.13H722.12ZM719.21 315.89H715.12V316.83H719.21V315.89ZM715.12 319.58H719.21V318.64H715.12V319.58ZM720.82 328.24C720.82 328.94 721.03 329.02 722.19 329.02H725.69C726.58 329.02 726.77 328.81 726.87 327.33C727.49 327.73 728.75 328.16 729.59 328.33C729.24 330.97 728.41 331.61 726.01 331.61H721.81C718.45 331.61 717.67 330.83 717.67 328.3V325.58L721.3 325.8C720.95 325.56 720.6 325.34 720.28 325.15L722.3 323.46C723.64 324.13 725.23 325.26 726.01 326.15L723.89 328.01C723.41 327.39 722.49 326.61 721.52 325.94C721.44 326.13 721.22 326.26 720.82 326.32V328.26V328.24ZM731.8 312.64C732.63 312.64 732.8 312.4 732.93 310.84C733.52 311.24 734.71 311.67 735.51 311.84C735.19 314.5 734.35 315.23 732.12 315.23H728.22C725.13 315.23 724.4 314.42 724.4 311.81V306.59L728.06 306.81C728.03 307.05 727.85 307.21 727.36 307.29V309.23C729.16 308.75 730.91 308.13 732.04 307.56L734.38 309.58C734.25 309.69 734.08 309.69 733.76 309.69C732.15 310.36 729.67 311.03 727.36 311.49C727.36 312.51 727.36 312.65 728.6 312.65H731.8V312.64ZM731.93 321.81C732.79 321.81 732.95 321.54 733.06 319.85C733.65 320.31 734.86 320.74 735.67 320.87C735.35 323.64 734.51 324.39 732.23 324.39H728.25C725.13 324.39 724.4 323.58 724.4 320.95V315.46L728.06 315.67C728.03 315.91 727.85 316.07 727.36 316.15V318.06C729.24 317.55 731.13 316.9 732.34 316.26L734.73 318.3C734.62 318.41 734.46 318.41 734.08 318.41C732.39 319.14 729.78 319.84 727.36 320.35V320.92C727.36 321.73 727.52 321.81 728.62 321.81H731.93ZM733.03 331.41C732.25 330.07 730.34 328.21 728.59 326.97L731.15 325.44C732.93 326.6 734.89 328.35 735.78 329.74L733.04 331.41H733.03Z" fill="white"/>
<path d="M15.4899 366.63H26.0599V369.8H1.62994V366.63H12.1199V361.22H4.74994V358.13H12.1199V353.34H6.46991C5.63991 355.03 4.68995 356.59 3.69995 357.81C3.07995 357.22 1.75996 356.28 0.959961 355.79C2.99996 353.5 4.74991 349.36 5.71991 345.46L9.69995 346.54C9.58995 346.78 9.31995 346.92 8.94995 346.89C8.62995 347.99 8.24991 349.09 7.84991 350.2H12.1299V345.2L16.2199 345.41C16.1899 345.68 15.9799 345.84 15.4899 345.95V350.2H24.7399V353.35H15.4899V358.14H23.64V361.23H15.4899V366.64V366.63Z" fill="white"/>
<path d="M34.8199 365.42C34.0699 367.3 32.9399 369.03 30.8699 370.1L28.3699 368.27C30.1499 367.44 31.4399 365.96 32.0799 364.34L34.8199 365.42ZM39.2299 352.32C39.0999 352 38.9099 351.65 38.6899 351.27C35.3499 351.48 32.0199 351.67 29.8099 351.81C29.7799 352.02 29.5699 352.16 29.3799 352.19L28.4899 349.37L30.4499 349.32C31.2299 348.08 32.0399 346.44 32.5199 345.2L35.9599 346.22C35.8799 346.43 35.6399 346.54 35.2299 346.54C34.7999 347.35 34.1299 348.32 33.4799 349.26L37.1899 349.15C36.8099 348.67 36.4399 348.18 36.0299 347.78L38.2899 346.6C39.6099 347.89 41.0599 349.69 41.6299 351.01L39.2099 352.33L39.2299 352.32ZM40.0099 352.45V360.84C40.0099 362.86 39.3099 363.34 36.0799 363.34C35.9699 362.64 35.5999 361.75 35.2999 361.13C35.9199 361.16 36.5599 361.16 36.8099 361.16C37.1099 361.16 37.1099 361.05 37.1099 360.06H33.0199V363.45H30.1699V352.45H40.0199H40.0099ZM37.0999 354.55H33.0099V355.49H37.0999V354.55ZM33.0099 358.24H37.0999V357.3H33.0099V358.24ZM38.7099 366.9C38.7099 367.6 38.9199 367.68 40.0799 367.68H43.5799C44.4699 367.68 44.6599 367.47 44.7599 365.99C45.3799 366.39 46.6399 366.82 47.4799 366.99C47.1299 369.63 46.2999 370.27 43.8999 370.27H39.6999C36.3399 370.27 35.5599 369.49 35.5599 366.96V364.24L39.1899 364.46C38.8399 364.22 38.4899 364 38.1699 363.81L40.1899 362.11C41.5299 362.78 43.1199 363.91 43.8999 364.8L41.7799 366.66C41.2999 366.04 40.3799 365.26 39.4099 364.59C39.3299 364.78 39.1099 364.91 38.7099 364.97V366.91V366.9ZM49.6899 351.3C50.5199 351.3 50.6899 351.06 50.8199 349.5C51.4099 349.9 52.5999 350.33 53.3999 350.5C53.0799 353.16 52.2399 353.89 50.0099 353.89H46.1099C43.0199 353.89 42.2899 353.08 42.2899 350.47V345.25L45.9499 345.47C45.9199 345.71 45.7399 345.87 45.2499 345.95V347.89C47.0499 347.41 48.7999 346.79 49.9299 346.22L52.2699 348.24C52.1399 348.35 51.9699 348.35 51.6499 348.35C50.0399 349.02 47.5599 349.69 45.2499 350.15C45.2499 351.17 45.2499 351.31 46.4899 351.31H49.6899V351.3ZM49.8199 360.47C50.6799 360.47 50.8399 360.2 50.9499 358.51C51.5399 358.97 52.7499 359.4 53.5599 359.53C53.2399 362.3 52.3999 363.05 50.1199 363.05H46.1399C43.0199 363.05 42.2899 362.24 42.2899 359.61V354.12L45.9499 354.33C45.9199 354.57 45.7399 354.73 45.2499 354.81V356.72C47.1299 356.21 49.0199 355.56 50.2299 354.92L52.6199 356.96C52.5099 357.07 52.3498 357.07 51.9698 357.07C50.2798 357.8 47.6699 358.5 45.2499 359.01V359.58C45.2499 360.39 45.4099 360.47 46.5099 360.47H49.8199ZM50.9199 370.07C50.1399 368.73 48.2299 366.87 46.4799 365.63L49.0399 364.1C50.8199 365.26 52.7799 367.01 53.6699 368.4L50.9299 370.07H50.9199Z" fill="white"/>
<path d="M67.4 348.9C67.97 349.84 68.5 350.94 68.93 352.02V345.21L72.56 345.4C72.53 345.67 72.32 345.83 71.86 345.91V356.75C71.86 361.89 71.08 367.59 66.24 370.63C65.84 370.01 64.84 368.85 64.2 368.32C67 366.89 68.15 364.37 68.61 361.62C67.78 362.32 66.97 362.94 66.35 363.4C66.38 363.64 66.27 363.88 66.08 363.99L64.2 360.84L64.52 360.68H62.61V364.5L65.35 363.77L65.73 366.38C62.61 367.38 59.25 368.37 57.12 368.99C57.09 369.23 56.91 369.42 56.69 369.5L55.51 366.27L56.59 366.03V357.13L59.6 357.32C59.57 357.53 59.38 357.67 58.98 357.72V365.44L60.03 365.17V355.16H56.78V346.23H64.9V349.97L67.4 348.89V348.9ZM59.36 348.87V352.53H62.16V348.87H59.36ZM65.06 357.96V360.41C66.16 359.82 67.53 359.04 68.91 358.26C68.94 357.75 68.94 357.24 68.94 356.75V355L67.08 355.83C66.78 354.24 65.9 351.85 64.9 350.02V355.16H62.61V357.96H65.06ZM76.28 357.69L76.82 357.13C78.3 358.31 80.4 360.01 81.37 361.11C80.59 361.97 79.94 362.67 79.3 363.4C78.65 362.59 77.47 361.44 76.29 360.39V366.01C76.29 367.22 76.37 367.41 76.83 367.41H78.09C78.52 367.41 78.6 366.71 78.68 364.4C79.35 364.91 80.48 365.48 81.34 365.64C81.04 368.97 80.29 370.27 78.33 370.27H76.23C73.92 370.27 73.27 369.36 73.27 365.99V345.22L76.98 345.43C76.95 345.7 76.77 345.83 76.28 345.94V353.02C76.95 351.62 77.62 349.98 78.03 348.64L81.37 350.42C81.24 350.61 80.94 350.69 80.59 350.66C79.92 352.22 78.65 354.48 77.74 355.85L76.29 355.02V357.71L76.28 357.69Z" fill="white"/>
<path d="M107.97 359.88H89.9499V361.17H104.64L105.31 361.12L107.11 361.42C107.08 361.66 107.06 361.98 106.98 362.25C106.33 370.02 105.85 370.59 101.9 370.59C101.52 370.59 101.09 370.59 100.64 370.56C100.61 369.7 100.29 368.54 99.8599 367.79C100.8 367.9 101.66 367.9 102.04 367.9C102.42 367.9 102.66 367.87 102.87 367.63C103.22 367.25 103.52 366.12 103.73 363.51H90.9799V363.54L94.1799 363.7C94.1499 363.92 93.9699 364.1 93.4799 364.16V366.42H96.5699V363.92L100.25 364.13C100.22 364.37 100.04 364.56 99.5499 364.61V368.86H87.3099V369.99H84.3999V363.96L88.0099 364.17C87.9799 364.41 87.7699 364.55 87.3099 364.63V366.41H90.5099V363.5H86.7399V347.23H92.7699C93.0099 346.5 93.2499 345.72 93.3599 345.1L97.4799 345.75C97.3999 345.96 97.2099 346.1 96.8099 346.1C96.6499 346.45 96.4298 346.83 96.2198 347.23H103.94V356.27H89.9499V357.48H107.97V359.87V359.88ZM100.68 349.47H89.9499V350.73H100.68V349.47ZM89.9499 354.04H100.68V352.7H89.9499V354.04Z" fill="white"/>
<path d="M135.61 359.18H125.09C124.9 359.56 124.71 359.96 124.5 360.34H132.46L133.11 360.29L134.75 360.48C134.75 360.72 134.7 361.04 134.67 361.31C134.21 370.54 133.86 370.73 129.18 370.59C129.13 369.76 128.83 368.63 128.45 367.93C129.2 368.01 129.85 368.04 130.2 368.04C130.55 368.04 130.74 367.99 130.95 367.72C131.25 367.37 131.49 366.08 131.65 362.85H131.14C129.98 365.86 128.02 368.77 125.79 370.54C125.39 370.08 124.55 369.2 124.01 368.76C125.81 367.44 127.37 365.26 128.39 362.84H127.07C125.51 365.72 122.98 368.44 120.26 370.1C119.91 369.62 119.16 368.62 118.67 368.16C120.77 367 122.81 365.04 124.16 362.83H122.84C121.9 364.04 120.8 365.12 119.61 365.92C119.23 365.41 118.43 364.55 117.86 364.09C117.03 364.47 115.74 364.44 115.09 364.41C115.09 363.63 114.79 362.45 114.42 361.75C114.9 361.78 115.34 361.78 115.66 361.78C116.55 361.78 116.9 361.24 116.9 359.87C116.87 358.66 116.31 357.04 114.72 355.22C115.29 353.5 115.85 351.1 116.28 349.25H114.13V370.61H111.33V346.37H117.44L117.92 346.26L119.94 347.28C119.91 347.44 119.81 347.6 119.7 347.68C119.14 349.83 118.25 352.71 117.47 354.86C118.38 355.94 118.98 356.93 119.35 357.85V356.61H135.6V359.17L135.61 359.18ZM119.74 359.18C119.79 359.5 119.82 359.85 119.82 360.18C119.82 361.44 119.6 362.39 119.15 363.06C120.36 362.01 121.41 360.67 122.19 359.19H119.74V359.18ZM133.43 346.29V355.54H121.27V346.29H133.43ZM130.34 349.84V348.55H124.18V349.84H130.34ZM130.34 353.28V351.96H124.18V353.28H130.34Z" fill="white"/>
<path d="M150.46 346.48C150.35 346.72 150.06 346.86 149.63 346.86C148.66 348.85 147.18 351.27 145.78 353.32C148.98 353.27 152.48 353.16 155.92 353.05C154.95 352.11 153.93 351.22 152.96 350.44L155.46 348.48C158.2 350.58 161.57 353.64 163.05 355.9L160.28 358.16C159.9 357.49 159.34 356.73 158.67 355.95C151.43 356.3 143.85 356.57 139.01 356.73C138.93 357 138.69 357.13 138.44 357.16L137.31 353.5L141.96 353.42C143.6 350.97 145.4 347.66 146.45 345L150.46 346.48ZM141.31 370.58V358.88H159.01V370.47H155.62V369.66H144.54V370.57H141.31V370.58ZM155.62 361.97H144.54V366.52H155.62V361.97Z" fill="white"/>
<path d="M176.86 344.44H178.1V371.34H176.86V344.44Z" fill="white"/>
<path d="M217.06 349.95H206.22V352.48H216.01V367.28C216.01 370.21 214.64 370.59 209.96 370.59C209.8 369.76 209.34 368.52 208.91 367.77C209.72 367.82 210.6 367.82 211.28 367.82C212.68 367.82 212.84 367.82 212.84 367.26V355.5H206.22V363.11L207.97 361.33C209.48 362.22 211.57 363.56 212.6 364.48L210.69 366.55C209.72 365.61 207.76 364.18 206.22 363.19V370.45H203.05V359.23L201.19 361.17C200.27 360.34 198.36 359.02 196.94 358.13L198.77 356.35C200.14 357.1 202.03 358.31 203.05 359.12V355.49H196.78V363.21L198.64 361.46C200.09 362.38 202.08 363.75 203.05 364.66L201.09 366.68C200.15 365.71 198.24 364.29 196.79 363.26V370.55H193.7V352.47H203.06V349.94H192.57V346.77H217.08V349.94L217.06 349.95ZM210.9 361.17C209.96 360.31 207.94 359.02 206.46 358.13L208.24 356.3C209.72 357.05 211.76 358.29 212.79 359.1L210.91 361.17H210.9Z" fill="white"/>
<path d="M227.85 351.75L230.08 352.72C230.03 352.91 229.89 353.12 229.73 353.23C228.49 360.01 225.61 365.47 221.77 368.32C221.2 367.54 219.89 366.25 219.08 365.76C222.25 363.64 224.62 359.9 225.83 355.13H219.97V351.88H227.26L227.85 351.75ZM233.88 350C234.39 351.91 235.01 353.74 235.79 355.43C237.73 353.68 239.88 351.37 241.25 349.43L244.61 351.93C244.42 352.15 244.07 352.17 243.72 352.15C242.11 354.01 239.34 356.45 237.18 358.15C239.09 361.38 241.67 364.01 245.01 365.6C244.2 366.27 243.07 367.64 242.51 368.61C238.58 366.4 235.84 362.8 233.88 358.36V366.38C233.88 369.72 232.67 370.6 226.91 370.6C226.78 369.58 226.16 367.94 225.65 367C226.73 367.05 227.75 367.05 228.56 367.05C230.34 367.05 230.44 367.05 230.44 366.38V345.21L234.61 345.4C234.58 345.7 234.4 345.88 233.88 345.94V350Z" fill="white"/>
<path d="M248.36 352.67C249.92 353.24 251.88 354.28 252.88 355.14L250.97 357.75C250.08 356.89 248.12 355.71 246.59 355.03L248.37 352.66L248.36 352.67ZM247.12 368.51C248.25 366.39 249.81 362.97 250.99 359.79L253.57 361.57C252.52 364.45 251.31 367.43 250.29 369.51C250.45 369.73 250.5 369.91 250.5 370.1C250.5 370.23 250.47 370.34 250.42 370.48L247.11 368.52L247.12 368.51ZM249.68 345.35C251.19 346.02 253.18 347.1 254.15 347.99L252.21 350.57C251.32 349.68 249.41 348.45 247.85 347.72L249.68 345.35ZM269.64 361.41V367.03H272.06V369.8H253.07V367.03H255.79V361.49C255.52 361.73 255.23 361.95 254.93 362.16C254.45 361.54 253.4 360.44 252.72 359.9C254.9 358.5 256.7 356.08 257.8 353.34H253.5V350.41H257.7C257.24 349.12 256.46 347.56 255.6 346.32L258.34 345.22C259.44 346.67 260.44 348.61 260.84 349.95L259.82 350.41H265.07L264.21 349.98C265.07 348.66 266.07 346.65 266.63 345.17L270.32 346.78C270.19 347 269.92 347.05 269.51 347.05C269 348.05 268.14 349.36 267.36 350.41H271.91V353.34H267.2C268.38 355.73 270.27 357.94 272.42 359.15C271.67 359.74 270.64 360.93 270.16 361.76L269.65 361.41H269.64ZM267.76 359.69C266.17 357.94 264.88 355.71 263.94 353.34H261.22C260.39 355.68 259.12 357.89 257.56 359.69H267.76ZM258.51 362.3V367.03H259.8V362.3H258.51ZM263.3 367.03V362.3H262.01V367.03H263.3ZM266.82 367.03V362.3H265.5V367.03H266.82Z" fill="white"/>
<path d="M275.59 352.64C277.29 353.23 279.52 354.31 280.62 355.22L278.76 357.91C277.74 356.99 275.59 355.79 273.86 355.06L275.58 352.64H275.59ZM274.51 368.19C275.72 366.2 277.42 362.94 278.71 359.93L281.27 361.84C280.11 364.58 278.79 367.35 277.69 369.37C277.85 369.56 277.9 369.75 277.9 369.91C277.9 370.04 277.87 370.18 277.79 370.29L274.51 368.19ZM277.17 345.35C278.84 345.97 281.02 347.1 282.09 348.01L280.23 350.67C279.23 349.7 277.11 348.46 275.41 347.71L277.16 345.34L277.17 345.35ZM289.79 364.13C289.66 364.34 289.39 364.45 289.04 364.4C287.48 366.58 285.14 369 282.96 370.59C282.34 369.97 281.13 369 280.38 368.49C282.48 367.14 284.76 364.86 286.06 362.73L289.8 364.13H289.79ZM282.1 350.38H284.95V345.19L288.82 345.4C288.79 345.67 288.61 345.83 288.09 345.88V350.37H292.29V345.18L296.19 345.39C296.16 345.66 295.98 345.82 295.46 345.9V350.37H298.61V353.38H295.46V358.95H299.23V361.96H281.37V358.95H284.95V353.38H282.1V350.37V350.38ZM292.3 353.39H288.1V358.96H292.3V353.39ZM296.66 370.5C295.66 368.75 293.3 366.06 291.33 364.15L294.05 362.56C296.01 364.36 298.49 366.92 299.62 368.69L296.66 370.49V370.5Z" fill="white"/>
<path d="M304.62 356.79C303.87 357.89 303.09 358.91 302.28 359.8C301.98 358.99 301.2 357.33 300.75 356.55C303.12 354.05 305.51 349.61 306.94 345.3L310.52 346.54C310.41 346.76 310.17 346.89 309.77 346.86C309.1 348.58 308.32 350.33 307.46 352L308.46 352.27C308.41 352.51 308.22 352.7 307.76 352.73V370.62H304.64V356.79H304.62ZM319.66 366.66H326.66V369.73H309.15V366.66H316.39V361.25H310.66V358.21H316.39V353.5H309.77V350.43H317.49C316.15 349.41 314.4 348.28 312.97 347.44L315.09 345.13C317.11 346.21 319.88 347.87 321.25 349.08L320.07 350.43H326.28V353.5H319.66V358.21H325.53V361.25H319.66V366.66Z" fill="white"/>
<path d="M353.48 359.23H345.28V361.44H351.47V370.59H348.24V369.78H339.17V370.59H336.08V361.44H342.05V359.23H334.65V356.35H342.05V354.04H334.6C334.6 357.27 334.55 365.61 331.18 370.66C330.56 370.12 329.11 369.29 328.3 368.96C331.1 364.84 331.34 358.79 331.34 354.49V346.53H351.84V354.04H344.04V354.07L346 354.15C345.97 354.42 345.76 354.58 345.27 354.66V356.35H353.47V359.23H353.48ZM334.6 349.36V351.22H348.59V349.36H334.6ZM348.24 366.95V364.26H339.17V366.95H348.24Z" fill="white"/>
<path d="M367.85 344.44H369.09V371.34H367.85V344.44Z" fill="white"/>
<path d="M391.37 354.18C392.55 354.77 395.16 356.28 395.89 356.74L393.6 358.81C392.79 358.14 391.29 356.98 390.05 356.12C389.05 357.55 387.5 358.92 385.07 360.07C384.67 359.4 383.75 358.43 383.05 357.89C385.82 356.84 387.22 355.5 387.89 354.18H383.32V351.65H385.39C384.8 351.19 383.91 350.68 383.29 350.39C384.55 349.18 385.58 347.08 386.09 345.04L389.37 345.87C389.29 346.11 389.02 346.19 388.75 346.17C388.64 346.55 388.48 346.95 388.35 347.35H395.13V349.93H391.63V351.09C391.63 351.28 391.63 351.47 391.6 351.65H395.74V354.18H391.36H391.37ZM387.07 349.93C386.69 350.58 386.26 351.17 385.83 351.65H388.55C388.58 351.44 388.58 351.22 388.58 351.03V349.93H387.07ZM387.42 370.59V359.1H404.26V370.56H400.95V369.67H390.59V370.58H387.42V370.59ZM400.95 361.63H390.59V363.16H400.95V361.63ZM390.59 367.09H400.95V365.5H390.59V367.09ZM396.8 347.32H407.18V358.19H404.01V357.03H399.84V358.29H396.8V347.31V347.32ZM399.84 354.31H404.01V350.17H399.84V354.31Z" fill="white"/>
<path d="M416.86 364.91C416.11 366.95 414.98 368.89 412.9 370.07L410.34 368.19C412.14 367.25 413.41 365.63 414.05 363.86L416.85 364.91H416.86ZM415.3 354.28C414.12 354.36 413.04 354.41 412.15 354.47C412.12 354.71 411.96 354.82 411.75 354.85L410.97 352.43C412.18 352.4 413.66 352.35 415.3 352.3V351.33H412.13V349.47H415.3V348.64H411.26V346.76H415.3V345.2L418.96 345.39C418.93 345.63 418.75 345.82 418.26 345.87V346.76H422.05V348.64H418.26V349.47H421.25V351.33H418.26V352.19L422.08 352.03L422.03 353.81C420.77 353.92 419.5 354 418.26 354.11V355H415.3V354.3V354.28ZM420.76 366.71C420.76 367.44 420.97 367.49 422.13 367.49H425.6C426.49 367.49 426.68 367.28 426.81 365.71C427.4 366.17 428.75 366.6 429.58 366.76C429.23 369.56 428.34 370.26 425.92 370.26H421.75C418.33 370.26 417.55 369.43 417.55 366.76V363.88L421.29 364.1C420.99 363.88 420.7 363.7 420.4 363.53L420.99 363.05H413.27V361.09H428.66V360.18H414.27V358.3H428.66V357.39H413.41V355.43H431.84V363.07H424.55C425.25 363.55 425.87 364.09 426.27 364.58L424.09 366.49C423.55 365.79 422.5 364.93 421.45 364.2C421.37 364.42 421.18 364.55 420.75 364.6V366.73L420.76 366.71ZM427.14 354.9V354.07H423.05V352.16H427.14V351.33H424.29V349.47H427.14V348.64H423.4V346.76H427.14V345.2L430.82 345.39C430.79 345.63 430.61 345.82 430.15 345.87V346.76H434.4V348.64H430.15V349.47H433.57V351.33H430.15V352.16H435.18V354.07H430.15V354.9H427.14ZM432.98 370.02C432.2 368.54 430.26 366.52 428.46 365.12L430.99 363.56C432.85 364.88 434.86 366.79 435.72 368.32L432.98 370.02Z" fill="white"/>
<path d="M448.96 354.85L450.52 355.17C450.49 355.38 450.44 355.47 450.36 355.65C450.09 359.34 449.47 362.46 448.42 365.01C450.22 366.87 452.67 367.35 455.68 367.35C456.92 367.35 461.79 367.35 463.32 367.3C462.89 368 462.46 369.37 462.3 370.21H455.52C451.94 370.21 449.17 369.64 447.05 367.63C446.32 368.73 445.49 369.67 444.49 370.43C444.17 369.84 443.57 368.98 443.01 368.39V370.65H440.13V357.31C439.59 358.25 439.03 359.11 438.44 359.89C438.22 359.06 437.55 357.28 437.2 356.45C439.03 353.95 440.8 349.56 441.88 345.31L445.32 346.41C445.21 346.62 445 346.76 444.59 346.73L444.38 347.38H447.63L448.19 347.3L449.83 347.84C449.8 347.89 448.89 350.53 447.17 354.91H448.46L448.94 354.86L448.96 354.85ZM443.71 352.05C443.63 352.26 443.44 352.45 443.01 352.51V367.82C443.84 367.15 444.6 366.26 445.22 365.18C444.41 363.73 443.77 361.87 443.26 359.56L445.68 358.83C445.92 360.01 446.22 361.06 446.57 361.95C447 360.52 447.32 358.96 447.54 357.27H446.22L445.87 358.1L443.23 357.53C444.25 355.16 445.38 352.18 446.22 349.86H444.15V348.14C443.75 349.35 443.29 350.59 442.8 351.77L443.71 352.04V352.05ZM454.25 350.95V349.74H450.86V347.4H454.25V345.38L457.86 345.59C457.83 345.83 457.64 345.99 457.19 346.07V347.39H461.63V350.94H463.08V353.28H461.63V356.91H457.19V358.17H461.92V360.54H457.19V361.83H462.6V364.22H457.19V366.67H454.26V364.22H449.88V361.83H454.26V360.54H450.55V358.17H454.26V356.91H450.87V354.57H454.26V353.28H449.12V350.94H454.26L454.25 350.95ZM458.9 349.74H457.18V350.95H458.9V349.74ZM458.9 354.58V353.29H457.18V354.58H458.9Z" fill="white"/>
<path d="M487.83 360.82H481.8C482.2 361.76 482.71 362.62 483.33 363.4C484.57 362.65 485.91 361.68 486.8 360.9L489.44 363.13C489.36 363.24 489.2 363.29 488.98 363.29C488.9 363.29 488.76 363.26 488.66 363.24C487.77 363.83 486.35 364.61 485.08 365.23C486.4 366.31 487.99 367.14 489.82 367.68C489.15 368.3 488.29 369.48 487.86 370.29C484.87 369.19 482.64 367.3 481 364.75V367.41C481 370.34 479.57 370.61 474.76 370.61C474.65 369.94 474.3 369 473.95 368.24L471.48 369.32C471.48 369.56 471.35 369.75 471.18 369.86L469.48 367.01C471.28 366.44 473.95 365.42 476.56 364.45C476.75 365.15 476.94 365.88 477.13 366.76C476.3 367.16 475.43 367.54 474.63 367.92C475.3 367.95 475.97 367.97 476.49 367.97C477.78 367.97 477.92 367.97 477.92 367.38V360.82H472.59C473.91 361.47 475.5 362.43 476.33 363.13L474.47 365.04C473.64 364.29 471.97 363.16 470.62 362.43L472.26 360.82H471.91V358.64H477.91V357.32H470.62V355.06H477.91V353.82H472.21V351.67H477.91V350.33H470.14V355.39C470.14 359.8 469.74 366.47 467.29 370.7C466.75 370.16 465.38 369.25 464.68 368.92C466.91 365.05 467.07 359.4 467.07 355.39V347.51H476.78V345.22L480.87 345.43C480.84 345.7 480.65 345.86 480.14 345.97V347.5H489.96V350.33H481.67C481.62 350.57 481.43 350.73 481 350.79V351.68H487.83V355.07H490.25V357.33H487.83V360.83V360.82ZM481 353.83V355.07H484.77V353.83H481ZM481 357.33V358.65H484.77V357.33H481Z" fill="white"/>
<path d="M501.51 346.54C501.4 346.76 501.16 346.89 500.76 346.86C500.09 348.58 499.31 350.33 498.45 352L499.45 352.27C499.4 352.51 499.21 352.7 498.75 352.73V370.62H495.63V356.79C494.88 357.89 494.1 358.91 493.29 359.8C492.99 358.99 492.21 357.33 491.76 356.55C494.13 354.05 496.52 349.61 497.95 345.3L501.53 346.54H501.51ZM510.68 362.57V367.06C511.41 367.17 512.13 367.19 512.91 367.19C513.83 367.19 516.87 367.19 518.02 367.16C517.59 367.86 517.16 369.34 517.02 370.23H512.72C508.95 370.23 505.91 369.45 503.87 365.82C503.25 367.7 502.44 369.34 501.34 370.55C500.8 370.04 499.67 369.18 498.92 368.77C501.04 366.59 501.91 362.48 502.23 357.96L505.84 358.5C505.79 358.71 505.57 358.88 505.22 358.9C505.11 359.9 505.01 360.89 504.84 361.83C505.46 363.74 506.35 364.98 507.42 365.78V356.53H501.74V346.36H516.4V356.53H510.67V359.62H516.94V362.55H510.67L510.68 362.57ZM504.79 349.36V353.56H513.18V349.36H504.79Z" fill="white"/>
<path d="M525.83 355.74V364.43C527.44 367.17 530.4 367.17 535.35 367.17C538.55 367.17 542.4 367.09 544.98 366.87C544.6 367.62 544.12 369.1 543.96 370.02C541.92 370.13 538.96 370.18 536.24 370.18C530.03 370.18 526.93 370.18 524.48 367.09C523.4 368.14 522.27 369.16 521.31 369.97C521.34 370.29 521.23 370.4 520.96 370.53L519.37 367.14C520.42 366.44 521.63 365.58 522.73 364.67V358.72H519.69V355.73H525.82L525.83 355.74ZM522.28 345.89C523.81 347.1 525.7 348.9 526.56 350.19L523.9 352.21C523.15 350.92 521.34 349.04 519.81 347.72L522.28 345.89ZM528.68 366.09V355.52C528.25 356 527.79 356.46 527.34 356.86C526.86 356.21 525.81 355 525.16 354.44C527.55 352.45 529.71 348.84 530.89 345.24L534.6 346.37C534.49 346.59 534.22 346.72 533.85 346.67C533.5 347.61 533.1 348.53 532.67 349.44H535.58C536.15 348.18 536.66 346.64 536.98 345.46L540.8 346.4C540.72 346.61 540.48 346.75 540.07 346.75C539.72 347.56 539.26 348.53 538.75 349.44H544.1V352.16H538.42V353.8H543.07V356.41H538.42V358.08H542.97V360.69H538.42V362.41H544.45V365.13H531.81V366.1H528.69L528.68 366.09ZM535.35 353.8V352.16H531.8V353.8H535.35ZM535.35 358.08V356.41H531.8V358.08H535.35ZM535.35 362.41V360.69H531.8V362.41H535.35Z" fill="white"/>
<path d="M558.85 344.44H560.09V371.34H558.85V344.44Z" fill="white"/>
<path d="M584.11 354.28L585.75 354.74C585.67 354.96 585.45 355.04 585.08 355.04C584.89 355.5 584.62 356.06 584.33 356.6H587.32V358.89H574.38V356.6H577.23C577.12 355.95 576.91 355.17 576.66 354.56L578.22 354.29V354.26L575.37 354.29V352.11H579.67V350.25L583.11 350.44C583.08 350.68 582.89 350.84 582.44 350.92V352.1H586.48V354.28H584.11ZM578.38 349.65V351.51H575.47V347.04H585.1V345.18L589.05 345.37C589.02 345.67 588.84 345.8 588.35 345.91V347.04H598.12V351.51H595.08V349.65H578.37H578.38ZM585.97 359.71V368.08C585.97 370.23 585.14 370.61 581.42 370.61C581.31 369.94 580.96 369.02 580.64 368.38C581.12 368.41 581.66 368.43 582.07 368.43C582.96 368.43 583.07 368.43 583.07 368.05V367.22H578.9V370.58H576.07V359.71H585.97ZM583.06 361.81H578.89V362.75H583.06V361.81ZM578.89 365.44H583.06V364.5H578.89V365.44ZM581.66 356.54C581.93 355.89 582.25 355.01 582.44 354.28H579.24C579.56 355.01 579.86 355.97 579.94 356.57L579.81 356.6H581.83L581.67 356.55L581.66 356.54ZM597.85 365.28V366.73C598.39 366.94 599.01 367.13 599.52 367.24C599.22 369.66 598.39 370.36 596.16 370.36H592.02C589.06 370.36 588.2 369.63 588.2 366.94V357.69H594.9V356.72H588.2V350.37L591.8 350.58C591.77 350.82 591.59 350.98 591.13 351.06V351.97H598.96V354.01H591.13V354.79H597.88V359.58H591.13V360.36H597.37V361.97H591.13V362.8H597.26V364.41H591.13V365.24H597.85V365.28ZM591.13 366.89C591.13 367.83 591.32 367.97 592.42 367.97H595.86C596.56 367.97 596.77 367.76 596.91 366.89H591.13Z" fill="white"/>
<path d="M611.94 358.48L612.18 361.2C611.18 361.44 610.19 361.68 609.19 361.9V370.59H606.02V362.63C604.81 362.9 603.71 363.14 602.79 363.33C602.76 363.6 602.55 363.73 602.33 363.79L601.28 360.32C602.57 360.13 604.21 359.84 606.01 359.54V353.73H604.37C604.16 355.18 603.89 356.53 603.54 357.58C602.98 357.18 601.93 356.58 601.23 356.26C601.88 354.08 602.12 350.23 602.28 346.79L605.59 347.46C605.54 347.67 605.32 347.81 604.94 347.81C604.89 348.73 604.83 349.69 604.72 350.66H606.01V345.23L609.88 345.44C609.85 345.68 609.67 345.87 609.18 345.92V350.65H611.63V353.72H609.18V358.97L611.92 358.49L611.94 358.48ZM624.5 350.22L626.25 350.35L626.17 351.37C625.74 363.42 625.34 367.75 624.37 369.02C623.72 370.04 623 370.53 620.71 370.53C620.33 370.53 619.93 370.53 619.53 370.5C619.5 369.67 619.23 368.51 618.83 367.62C618.37 368.72 617.89 369.69 617.35 370.5C616.68 370.04 615.47 369.37 614.55 369.02C617.4 365.5 618.88 358.8 619.55 353.23H618.53C617.64 358.26 615.76 364.64 613.34 368C612.61 367.49 611.43 366.92 610.49 366.6C613.1 363.61 614.9 358.02 615.9 353.23H614.93C614.28 355.3 613.53 357.18 612.64 358.64C612.1 358.13 610.95 357.32 610.22 356.89C611.83 354.28 612.94 349.57 613.5 345.08L617.13 345.83C617.08 346.07 616.83 346.21 616.43 346.21C616.24 347.55 615.97 348.9 615.68 350.25H623.8L624.5 350.22ZM622.08 353.23C621.62 357.67 620.57 363.24 618.96 367.33C619.69 367.38 620.33 367.41 620.71 367.41C621.11 367.41 621.36 367.28 621.62 366.87C622.21 366.06 622.67 362.67 622.99 353.23H622.08Z" fill="white"/>
<path d="M648.45 355.06L650.76 356C650.68 356.21 650.55 356.35 650.38 356.46C649.46 359.82 647.99 362.54 646 364.69C648.21 365.98 650.87 366.89 654.02 367.43C653.27 368.18 652.27 369.64 651.81 370.6C648.42 369.87 645.65 368.72 643.34 367.1C641.27 368.63 638.88 369.79 636.21 370.65C635.78 369.79 634.95 368.47 634.3 367.8C636.67 367.18 638.82 366.19 640.7 364.87C639.41 363.55 638.31 362.02 637.36 360.3C635.99 363.82 633.97 367.11 631.04 369.77C630.53 368.96 629.29 367.78 628.46 367.27C632.93 363.45 635.13 358.1 636.05 352.42H629.3V349.22H636.43C636.56 347.88 636.62 346.53 636.62 345.21L640.79 345.34C640.74 345.69 640.47 345.91 640.01 345.96C639.98 347.04 639.93 348.11 639.82 349.21H653.46V352.41H639.44C639.31 353.33 639.12 354.24 638.93 355.15H647.86L648.45 355.04V355.06ZM639.82 358.31C640.68 359.98 641.81 361.43 643.21 362.67C644.37 361.41 645.33 359.95 646.06 358.31H639.82Z" fill="white"/>
<path d="M677.54 357.89C677.46 358.11 677.22 358.19 676.87 358.19C676.57 358.59 676.22 359.05 675.85 359.48H680.91V361.96H656.32V359.48H661.19C660.98 358.92 660.65 358.32 660.36 357.81L662.11 357.38H657.21V355.01H666.87V353.93H659.74V351.64H666.87V350.62H657.97V348.28H662.81C662.51 347.53 662.08 346.61 661.65 345.91L664.58 345.16C665.2 346.02 665.79 347.2 666.06 347.98L665.06 348.28H672.05L671.05 347.98C671.62 347.12 672.26 345.94 672.64 345.07L676.43 345.96C676.38 346.17 676.13 346.26 675.76 346.26C675.33 346.88 674.76 347.63 674.23 348.28H679.26V350.62H670.19V351.64H677.53V353.93H670.19V355.01H680.09V357.38H675.33L677.54 357.89ZM660 370.59V362.95H677.33V370.51H674.02V369.76H663.18V370.59H660.01H660ZM674.02 365.42H663.18V367.28H674.02V365.42ZM666.86 357.38H663.5C663.96 358.03 664.36 358.89 664.55 359.48H666.86V357.38ZM672.37 359.48C672.77 358.83 673.23 358.05 673.55 357.38H670.19V359.48H672.37Z" fill="white"/>
<path d="M692.1 361.98L692.42 364.7C689.46 365.48 686.34 366.29 684.35 366.77C684.3 367.01 684.11 367.2 683.87 367.25L682.95 363.89C683.89 363.7 685.08 363.49 686.34 363.22V357.76H683.62V354.91H686.34V350.01H683.38V347.16H692.15V350.01H689.22V354.91H691.72V357.76H689.22V362.6L692.1 361.98ZM705.9 362.89L708.4 364.8C708.29 364.91 708.13 364.96 707.94 364.96C707.86 364.96 707.75 364.96 707.67 364.93C707.02 365.31 705.95 365.93 705.06 366.36C706.11 367.09 707.29 367.68 708.58 368.08C707.91 368.7 706.99 369.83 706.56 370.61C703.79 369.45 701.53 367.38 699.97 364.75V370.59H696.9V366.58C695.23 367.68 693.43 368.62 691.71 369.27C691.28 368.6 690.45 367.55 689.85 366.98C692.59 366.15 695.58 364.61 697.76 362.89H693.56V356.6H706.69V362.89H705.88H705.9ZM691.75 353.07H708.67V355.65H691.75V353.07ZM707.43 346.08V352.16H692.93V346.08H707.43ZM697.15 350.01V348.26H695.51V350.01H697.15ZM696.4 359.05V360.45H703.72V359.05H696.4ZM700.95 350.01V348.26H699.23V350.01H700.95ZM701.76 362.9C702.22 363.63 702.76 364.3 703.37 364.92C704.2 364.35 705.23 363.49 705.85 362.9H701.76ZM704.75 350.01V348.26H703V350.01H704.75Z" fill="white"/>
<path d="M716.5 361.33L719.06 360.5C719.25 361.39 719.41 362.28 719.6 363.33C716.88 364.46 714 365.59 712.09 366.32C712.06 366.56 711.9 366.75 711.69 366.83L710.26 363.25C711.15 363.01 712.28 362.69 713.49 362.31V354.7H710.85V351.66H713.49V345.47L717.2 345.68C717.17 345.95 716.99 346.08 716.5 346.16V351.65H718.89V354.69H716.5V361.33ZM726.67 364.21C726.62 364.42 726.4 364.61 726 364.64C725.25 367.3 724.06 369.4 718.74 370.72C718.44 369.94 717.64 368.6 716.99 367.98C721.56 367.2 722.56 365.91 722.99 363.81L726.68 364.21H726.67ZM735.9 351.78V354.39H719.14V351.78H722.8C722.64 351.13 722.34 350.41 722.07 349.82L723.12 349.61H719.81V347.11H725.73V345.2L729.6 345.39C729.57 345.66 729.39 345.82 728.9 345.93V347.11H735.33V349.61H732.37L733.31 349.85C733.26 350.04 733.01 350.15 732.66 350.15C732.42 350.63 732.07 351.23 731.75 351.79H735.89L735.9 351.78ZM731.19 366.98C731.19 367.65 731.27 367.73 731.73 367.73H732.94C733.4 367.73 733.5 367.46 733.59 365.42C734.16 365.88 735.45 366.36 736.25 366.55C735.95 369.67 735.2 370.48 733.32 370.48H731.19C728.63 370.48 728.12 369.59 728.12 367.04V363.6H720.56V355.42H734.36V363.6H731.83C731.72 363.73 731.53 363.84 731.18 363.9V366.99L731.19 366.98ZM723.6 357.38V358.56H731.19V357.38H723.6ZM723.6 360.42V361.66H731.19V360.42H723.6ZM728.85 351.73C729.12 351.11 729.41 350.3 729.6 349.61H725.03C725.38 350.31 725.7 351.14 725.81 351.73L725.57 351.78H729.01L728.85 351.73Z" fill="white"/>
</svg>
