<svg width="103" height="41" viewBox="0 0 103 41" fill="none" xmlns="http://www.w3.org/2000/svg">
<path d="M135.314 38.4532C131.214 35.8094 126.806 32.7344 122.006 33.3394C119.935 33.6001 117.965 34.5493 115.877 34.5727C111.661 34.6229 108.349 31.0299 105.613 27.7176C101.144 22.3131 96.6748 16.9052 92.2087 11.5007C90.1864 9.0541 88.1186 6.56742 85.4708 4.86952C82.8229 3.17162 79.4523 2.35944 76.5451 3.51922C72.2995 5.21378 69.7521 10.6918 65.205 10.9559C60.2722 11.2433 57.4461 5.41097 53.45 2.41626C48.6761 -1.16337 41.8214 -0.474852 36.7169 2.58003C31.6124 5.63491 27.9112 10.635 24.5633 15.6452C21.2154 20.6553 18.0003 25.8961 13.4727 29.7999C10.8021 32.0994 5.26009 37.3936 0 41H140C138.363 40.3081 136.778 39.3957 135.314 38.4532Z" fill="url(#paint0_linear_69_9636)"/>
<defs>
<linearGradient id="paint0_linear_69_9636" x1="69.9984" y1="-2.85793" x2="69.9984" y2="63.9149" gradientUnits="userSpaceOnUse">
<stop offset="0.11" stop-color="#096E63"/>
<stop offset="0.21" stop-color="#096E63" stop-opacity="0.96"/>
<stop offset="0.31" stop-color="#096E63" stop-opacity="0.85"/>
<stop offset="0.42" stop-color="#096E63" stop-opacity="0.65"/>
<stop offset="0.54" stop-color="#096E63" stop-opacity="0.38"/>
<stop offset="0.65" stop-color="#096E63" stop-opacity="0.04"/>
<stop offset="0.66" stop-color="#096E63" stop-opacity="0"/>
</linearGradient>
</defs>
</svg>
