<svg width="108" height="108" viewBox="0 0 108 108" fill="none" xmlns="http://www.w3.org/2000/svg">
<path fill="#FFF" d="M9.9,36l-5.8-2.4l-0.8,2l-0.3-0.1l1.7-4.2L5,31.4l-0.8,2l5.8,2.3L9.9,36z M11.5,32.3l-5.7-3.2L6,28.8l2.5,1.4
	l1.8-3.2l-2.5-1.4l0.2-0.3l5.7,3.2l-0.2,0.3l-2.9-1.6l-1.8,3.2l2.9,1.6L11.5,32.3z M14.9,26.6l-5.2-3.9l2.1-2.8l0.2,0.2l-1.9,2.5
	l2.1,1.6l1.6-2.1l0.2,0.2l-1.6,2.1l2.4,1.8l2-2.6l0.2,0.2L14.9,26.6L14.9,26.6z M19.9,20.6l-4.5-4.7l2.5-2.4l0.2,0.2l-2.3,2.2l1.9,2
	l1.9-1.9l0.2,0.2l-1.9,1.9l2.2,2.3L19.9,20.6L19.9,20.6z M23.7,17.2l-4.1-5.1l0.3-0.2l4.1,5.1L23.7,17.2z M29.1,13.3l-0.3,0.2
	L25.6,12l-1.2,0.8l1.7,2.5l-0.3,0.2l-3.6-5.4l1.5-1c2.1-1.8,4.2,1.2,2.2,2.6C25.9,11.8,29.1,13.3,29.1,13.3z M24.2,12.6
	c4-2,1.6-5.4-1.6-2.4L24.2,12.6z M32.1,11.8c-0.8,0.4-1.6,0.4-2.4,0.1l0.1-0.3c2.5,1.4,4.9-3,1.3-2.8c-4.2,1.1-4-4-0.1-3.1L30.9,6
	c-1.4-0.7-3.6,1-2.2,2.3c1,0.6,2.6-0.1,3.6,0.3C33.7,9.2,33.6,11.3,32.1,11.8L32.1,11.8z M36.8,9.6l-2.2-5.8l-2,0.7l-0.1-0.3
	l4.3-1.6l0.1,0.3l-2,0.7l2.2,5.8L36.8,9.6L36.8,9.6z M40.8,9.9l-0.2-0.2C41,9.3,41.1,8.8,41,8.3c-0.5,0.3-0.9-0.5-0.3-0.7
	C41.7,7.7,41.4,9.4,40.8,9.9L40.8,9.9z M46.9,7l-0.8-6.2L44,1.1l0-0.3l4.5-0.6l0,0.3l-2.1,0.3L47.3,7L46.9,7L46.9,7z M51,6.6l0-6.5
	h0.3l0,2.9l3.6,0l0-2.9h0.3l0.1,6.5h-0.3l0-3.3l-3.6,0l0,3.3H51z M57.6,6.7l0.8-6.5l3.5,0.4l0,0.3l-3.2-0.4l-0.3,2.6L61,3.4l0,0.3
	l-2.6-0.3l-0.4,3l3.2,0.4l0,0.3L57.6,6.7L57.6,6.7z M65.3,8.1L67,1.8l0.3,0.1l-1.7,6.3L65.3,8.1z M68,8.8l2.3-6.1l0.3,0.1
	c0.4,2,0.9,4.9,1.3,6.9l0,0C72.3,8.5,73.5,5.3,74,4l0.3,0.1L72,10.3l-0.3-0.1c-0.4-2-0.9-4.9-1.3-6.9h0c-0.5,1.4-1.6,4.3-2.1,5.7
	L68,8.8L68,8.8z M75.3,11.9l2.9-5.5l-1.9-1l0.1-0.3l4,2.1l-0.1,0.3l-1.9-1l-2.9,5.5L75.3,11.9L75.3,11.9z M78.9,13.9l3.7-5.4l2.9,2
	l-0.2,0.2L82.7,9l-1.5,2.1l2.2,1.5l-0.2,0.2L81,11.4l-1.7,2.5l2.7,1.9L81.8,16L78.9,13.9L78.9,13.9z M86.3,19.8L86,19.5l0.6-3.5
	L85.5,15l-2,2.3l-0.2-0.2l4.3-4.9l1.4,1.2c2.2,1.6-0.1,4.3-2,2.8L86.3,19.8L86.3,19.8z M85.7,14.8c2.9,3.4,5.6,0.2,1.9-2.2
	L85.7,14.8L85.7,14.8z M87.4,20.9l4.9-4.3l0.2,0.3c-0.6,2-1.5,4.7-2.2,6.7l0,0c0.9-0.9,3.5-3.1,4.5-4l0.2,0.2l-4.9,4.3L90,23.8
	c0.6-2,1.5-4.7,2.1-6.7l0,0c-1.1,1-3.4,3.1-4.5,4L87.4,20.9L87.4,20.9z M93.7,29.1l1.5-2l-1.5-2.2l-2.4,0.6l-0.2-0.3l6.7-1.7
	l0.2,0.2l-4.1,5.6L93.7,29.1z M94,24.8l1.4,2c0.7-1,1.5-2,2.3-3l0,0C96.6,24.1,95.1,24.5,94,24.8L94,24.8z M95.2,31.9l5.5-2.9
	l-1-1.9l0.3-0.1l2.1,4.1l-0.3,0.1l-1-1.9l-5.6,2.8L95.2,31.9z M97,35.7l6.1-2.5l0.1,0.3l-6,2.5L97,35.7L97,35.7z M99.9,41.9
	c-4-2,0.6-6.5,3.6-5.1C107.5,38.8,103,43.3,99.9,41.9L99.9,41.9z M99.1,38.4c-2.1,3.5,3.7,4.4,5.2,1.9
	C106.4,36.8,100.7,35.9,99.1,38.4L99.1,38.4z M99.7,44.7l6.5-0.9l0.1,0.4c-1.6,1.3-3.8,3.2-5.5,4.4v0c1.3-0.3,4.7-0.7,6-0.9l0,0.3
	l-6.5,0.9l0-0.4c1.6-1.3,3.8-3.2,5.5-4.5v0c-1.5,0.3-4.5,0.7-6,0.9L99.7,44.7L99.7,44.7z M100.6,54.9l2.3-0.9l0-2.6l-2.3-0.8v-0.3
	l6.6,2.2v0.3l-6.5,2.4L100.6,54.9L100.6,54.9z M103.1,51.5l0,2.4c1.2-0.4,2.4-0.9,3.6-1.2v0C105.7,52.4,104.2,51.9,103.1,51.5
	L103.1,51.5z M100.4,56.7l6.5,0.6l0,0.3l-6.2-0.6l-0.3,3l-0.3,0L100.4,56.7L100.4,56.7z M97.5,70l5.8,2.2l0.7-2l0.3,0.1l-1.6,4.3
	l-0.3-0.1l0.8-2l-5.8-2.2C97.4,70.4,97.5,70,97.5,70z M96,73.8l5.8,3.1l-0.2,0.3L99,75.8L97.3,79l2.5,1.4l-0.2,0.3L94,77.6l0.2-0.3
	l2.9,1.6l1.7-3.2l-2.9-1.6L96,73.8L96,73.8z M92.7,79.5l5.3,3.8l-2,2.9L95.8,86l1.8-2.6l-2.1-1.5l-1.5,2.2l-0.2-0.2l1.5-2.2L92.8,80
	l-1.9,2.7l-0.2-0.2L92.7,79.5L92.7,79.5z M87.8,85.7l4.6,4.6L90,92.8l-0.2-0.2l2.2-2.2l-1.9-1.9l-1.9,1.9L88,90.1l1.9-1.9l-2.3-2.3
	L87.8,85.7L87.8,85.7z M84.2,89.2l4.2,5l-0.2,0.2l-4.2-5L84.2,89.2z M78.8,93.2l0.3-0.2l3.3,1.4l1.2-0.8l-1.8-2.5l0.3-0.2l3.8,5.3
	l-1.5,1c-2.1,1.8-4.2-1.1-2.3-2.6C82.1,94.7,78.9,93.2,78.8,93.2z M83.8,93.8c-3.9,2-1.5,5.4,1.7,2.3C85.4,96.2,83.8,93.9,83.8,93.8
	z M75.9,94.8c0.8-0.4,1.6-0.5,2.4-0.2l-0.1,0.3c-2.6-1.3-4.8,3.2-1.2,2.9c4.2-1.2,4.2,3.9,0.2,3.1l0.1-0.3c2,0.9,3.9-2.4,1.2-2.6
	c-0.8,0-2.1,0.3-2.7,0C74.3,97.5,74.5,95.4,75.9,94.8L75.9,94.8z M71.3,97.1l2.3,5.8l2-0.8l0.1,0.3l-4.2,1.7l-0.1-0.3l2-0.8
	l-2.3-5.8L71.3,97.1L71.3,97.1z M67.3,96.9l0.2,0.2c-0.4,0.4-0.5,0.8-0.3,1.3c0.5-0.3,0.9,0.5,0.3,0.7
	C66.4,99.1,66.7,97.4,67.3,96.9L67.3,96.9z M61.2,99.9l1,6.2l2.1-0.3l0.1,0.3l-4.5,0.7l-0.1-0.3l2.1-0.3l-1-6.2L61.2,99.9L61.2,99.9
	z M57.2,100.5l0.2,6.5H57l-0.1-2.9l-3.6,0.1l0.1,2.9h-0.3l-0.2-6.5h0.3l0.1,3.3l3.6-0.1l-0.1-3.3L57.2,100.5L57.2,100.5z
	 M50.6,100.5l-0.6,6.5l-3.5-0.3l0-0.3l3.2,0.3l0.2-2.6l-2.6-0.3l0-0.3l2.7,0.3l0.3-3l-3.2-0.3l0-0.3L50.6,100.5L50.6,100.5z
	 M42.8,99.3l-1.5,6.4l-0.3-0.1l1.5-6.3C42.4,99.2,42.7,99.3,42.8,99.3z M40.1,98.7l-2.1,6.2l-0.3-0.1c-0.4-2-1.1-4.8-1.4-6.9h0
	c-0.3,1.2-1.5,4.5-1.9,5.7l-0.3-0.1l2.1-6.2l0.3,0.1c0.4,2,1,4.8,1.4,6.9h0c0.4-1.4,1.5-4.3,1.9-5.7C39.8,98.6,40.1,98.7,40.1,98.7z
	 M32.7,95.7l-2.8,5.6l1.9,0.9l-0.1,0.3l-4.1-2l0.1-0.3l1.9,0.9l2.8-5.6L32.7,95.7L32.7,95.7z M29.1,93.8l-3.6,5.5l-2.9-1.9l0.2-0.2
	l2.7,1.7l1.4-2.2l-2.2-1.5l0.2-0.2l2.2,1.5l1.7-2.6L25.9,92l0.2-0.2L29.1,93.8L29.1,93.8z M21.6,88.1l0.3,0.2l-0.6,3.5l1.1,0.9
	l2-2.4l0.3,0.2l-4.2,5l-1.4-1.1c-2.3-1.5,0-4.3,1.9-2.9L21.6,88.1L21.6,88.1z M22.2,93.1c-3-3.3-5.6-0.1-1.8,2.2L22.2,93.1
	L22.2,93.1z M20.4,87l-4.8,4.4l-0.2-0.3c0.6-2,1.4-4.8,2-6.8l0,0c-0.9,0.9-3.4,3.2-4.4,4.1l-0.2-0.2l4.8-4.4l0.2,0.3
	c-0.6,2-1.4,4.8-2,6.8l0,0c1.1-1.1,3.4-3.1,4.4-4.1L20.4,87L20.4,87z M13.9,79l-1.4,2l1.5,2.2l2.4-0.7l0.2,0.3l-6.7,1.9l-0.2-0.2
	l4-5.7L13.9,79L13.9,79z M13.7,83.2l-1.4-2c-0.7,1-1.4,2.1-2.2,3l0,0C11.1,84,12.6,83.6,13.7,83.2z M12.3,76.2l-5.5,3l1,1.8
	l-0.2,0.1l-2.2-4L5.7,77l1,1.8l5.5-3L12.3,76.2z M10.5,72.5l-6,2.5l-0.1-0.3l6-2.5L10.5,72.5z M7.4,66.3c4,1.9-0.4,6.5-3.5,5.1
	C-0.1,69.5,4.3,65,7.4,66.3z M8.3,69.8c2.6-6.2-10-2.2-4.2,1.4C5.2,71.7,7.5,70.9,8.3,69.8L8.3,69.8z M7.5,63.5l-6.4,1.1L1,64.3
	C2.6,63,4.8,61,6.4,59.7v0c-1.3,0.3-4.6,0.8-6,1.1l-0.1-0.3l6.4-1.1l0.1,0.4c-1.6,1.3-3.7,3.2-5.4,4.6v0C3,64,6,63.5,7.5,63.2
	C7.5,63.2,7.5,63.5,7.5,63.5z M6.5,53.3l-2.3,0.9l0.1,2.6l2.3,0.7v0.3l-6.6-2v-0.3L6.4,53L6.5,53.3L6.5,53.3z M4,56.8l-0.1-2.4
	c-1.1,0.4-2.3,0.9-3.5,1.3v0C1.4,56,2.9,56.4,4,56.8L4,56.8z M6.5,51.5L0,51.1l0-0.3l6.2,0.4l0.2-3l0.3,0L6.5,51.5z"/>
<path stroke="#FFF" d="M45,62.7c0,0,5.7-11.5-7.5-22.3L71.1,66 M61,41.7c0,0-9.5,8.6-23.5-1.3L71.2,66"/>
</svg>
