<svg width="108" height="108" viewBox="0 0 108 108" fill="none" xmlns="http://www.w3.org/2000/svg">
<path d="M9.89005 36.04L4.11005 33.69L3.32005 35.64L3.05005 35.53L4.76005 31.3L5.03005 31.41L4.24005 33.36L10.02 35.71L9.89005 36.04Z" fill="white"/>
<path d="M11.52 32.32L5.82996 29.11L5.98996 28.82L8.50996 30.24L10.29 27.08L7.76996 25.66L7.93996 25.36L13.63 28.57L13.46 28.87L10.55 27.23L8.76996 30.39L11.68 32.03L11.52 32.32Z" fill="white"/>
<path d="M14.93 26.64L9.69995 22.74L11.8 19.93L12.03 20.1L10.13 22.64L12.22 24.2L13.81 22.07L14.05 22.25L12.46 24.38L14.9 26.2L16.86 23.58L17.1 23.76L14.95 26.65L14.93 26.64Z" fill="white"/>
<path d="M19.93 20.62L15.4 15.92L17.91 13.5L18.11 13.71L15.84 15.9L17.74 17.87L19.66 16.02L19.86 16.22L17.94 18.07L20.18 20.39L19.94 20.62H19.93Z" fill="white"/>
<path d="M23.6899 17.21L19.5699 12.14L19.8299 11.93L23.9499 17L23.6899 17.21Z" fill="white"/>
<path d="M29.13 13.3L28.81 13.52L25.56 12L24.36 12.81L26.08 15.36L25.8 15.55L22.15 10.14L23.64 9.12997C24.81 8.33997 25.7 8.41997 26.33 9.33997C26.62 9.76997 26.72 10.19 26.63 10.61C26.54 11.03 26.29 11.42 25.86 11.77L29.12 13.3H29.13ZM24.2 12.56L25.32 11.8C26.35 11.11 26.59 10.35 26.03 9.52997C25.75 9.11997 25.43 8.90997 25.05 8.90997C24.67 8.90997 24.22 9.06997 23.71 9.41997L22.59 10.18L24.2 12.56Z" fill="white"/>
<path d="M32.11 11.84C31.31 12.25 30.52 12.29 29.72 11.96L29.81 11.64C30.54 11.94 31.26 11.91 31.96 11.55C32.42 11.31 32.74 11.01 32.89 10.64C33.05 10.27 33.04 9.89999 32.85 9.53999C32.75 9.34999 32.65 9.20999 32.52 9.09999C32.4 8.98999 32.25 8.91999 32.09 8.87999C31.92 8.83999 31.77 8.81999 31.65 8.80999C31.52 8.80999 31.34 8.80999 31.12 8.80999L30.03 8.86999C29.83 8.87999 29.66 8.87999 29.52 8.86999C29.38 8.86999 29.21 8.83999 29.02 8.78999C28.83 8.74999 28.65 8.65999 28.5 8.53999C28.35 8.41999 28.22 8.24999 28.11 8.04999C27.9 7.62999 27.88 7.21999 28.05 6.79999C28.23 6.37999 28.56 6.04999 29.03 5.79999C29.67 5.46999 30.31 5.42999 30.97 5.66999L30.89 5.96999C30.3 5.75999 29.73 5.79999 29.18 6.07999C28.78 6.28999 28.51 6.54999 28.36 6.87999C28.21 7.20999 28.23 7.52999 28.39 7.85999C28.48 8.02999 28.59 8.16999 28.71 8.26999C28.84 8.36999 28.99 8.43999 29.17 8.46999C29.34 8.49999 29.48 8.51999 29.58 8.51999C29.68 8.51999 29.82 8.51999 30.01 8.51999L31.11 8.45999C31.61 8.43999 32.01 8.47999 32.34 8.58999C32.66 8.69999 32.93 8.95999 33.14 9.36999C33.37 9.81999 33.39 10.27 33.2 10.73C33.01 11.19 32.65 11.56 32.1 11.84H32.11Z" fill="white"/>
<path d="M36.81 9.62001L34.61 3.78001L32.64 4.52001L32.54 4.25001L36.81 2.64001L36.91 2.91001L34.94 3.65001L37.14 9.49001L36.81 9.61001V9.62001Z" fill="white"/>
<path d="M40.78 9.86001L40.59 9.66001C40.97 9.27001 41.1 8.82001 40.96 8.31001C40.94 8.32001 40.9 8.34001 40.85 8.35001C40.74 8.38001 40.65 8.37001 40.56 8.33001C40.48 8.29001 40.42 8.21001 40.39 8.10001C40.36 7.99001 40.37 7.89001 40.42 7.81001C40.47 7.73001 40.55 7.67001 40.65 7.65001C40.78 7.61001 40.9 7.64001 41.01 7.73001C41.12 7.82001 41.2 7.96001 41.25 8.14001C41.34 8.45001 41.34 8.76001 41.25 9.06001C41.16 9.37001 41 9.63001 40.78 9.87001V9.86001Z" fill="white"/>
<path d="M46.9199 7.01002L46.07 0.830022L43.99 1.12002L43.95 0.830022L48.47 0.210022L48.5099 0.500022L46.4199 0.790022L47.2799 6.97002L46.93 7.02002L46.9199 7.01002Z" fill="white"/>
<path d="M50.9899 6.56L50.9399 0.03H51.2699L51.2899 2.92L54.9199 2.89L54.8999 0H55.2399L55.2899 6.53H54.9499L54.9299 3.19L51.2999 3.22L51.3199 6.56H50.9899Z" fill="white"/>
<path d="M57.59 6.69997L58.38 0.219971L61.86 0.639971L61.82 0.929971L58.67 0.549971L58.36 3.12997L61 3.44997L60.96 3.74997L58.32 3.42997L57.95 6.44997L61.2 6.83997L61.16 7.13997L57.58 6.70997L57.59 6.69997Z" fill="white"/>
<path d="M65.34 8.07001L67.01 1.76001L67.33 1.85001L65.66 8.16001L65.34 8.07001Z" fill="white"/>
<path d="M67.96 8.77997L70.25 2.65997L70.58 2.77997C70.68 3.29997 70.82 4.02997 70.99 4.95997C71.17 5.88997 71.33 6.73997 71.47 7.51997C71.61 8.29997 71.74 9.02997 71.85 9.70997L71.89 9.72997C72.08 9.12997 72.28 8.53997 72.49 7.97997L73.96 4.04997L74.26 4.15997L71.97 10.28L71.63 10.15C71.53 9.62997 71.4 8.89997 71.22 7.96997C71.05 7.03997 70.89 6.18997 70.75 5.40997C70.61 4.62997 70.48 3.89997 70.36 3.20997H70.33C70.06 3.96997 69.87 4.53997 69.73 4.88997L68.24 8.86997L67.95 8.75997L67.96 8.77997Z" fill="white"/>
<path d="M75.31 11.92L78.22 6.39997L76.36 5.41997L76.5 5.15997L80.53 7.28997L80.39 7.54997L78.52 6.56997L75.61 12.09L75.3 11.93L75.31 11.92Z" fill="white"/>
<path d="M78.87 13.95L82.56 8.57001L85.45 10.55L85.29 10.79L82.67 9.00001L81.2 11.14L83.4 12.65L83.23 12.9L81.03 11.39L79.31 13.9L82.01 15.75L81.84 16L78.87 13.96V13.95Z" fill="white"/>
<path d="M86.26 19.75L85.97 19.5L86.61 15.97L85.53 15.02L83.5 17.33L83.25 17.11L87.55 12.2L88.91 13.39C89.97 14.32 90.13 15.2 89.39 16.04C89.05 16.43 88.67 16.63 88.24 16.66C87.81 16.68 87.37 16.54 86.92 16.21L86.27 19.75H86.26ZM85.72 14.8L86.74 15.69C87.67 16.51 88.47 16.54 89.12 15.8C89.44 15.43 89.56 15.06 89.47 14.69C89.38 14.32 89.1 13.93 88.63 13.52L87.61 12.63L85.72 14.79V14.8Z" fill="white"/>
<path d="M87.4 20.9L92.3 16.59L92.53 16.85C92.37 17.36 92.15 18.06 91.86 18.97C91.58 19.87 91.32 20.7 91.07 21.45C90.83 22.2 90.6 22.9 90.37 23.56L90.4 23.59C90.85 23.15 91.3 22.73 91.75 22.33L94.91 19.56L95.13 19.8L90.22 24.11L89.98 23.84C90.14 23.33 90.36 22.63 90.65 21.73C90.93 20.83 91.2 20 91.44 19.25C91.68 18.5 91.91 17.79 92.13 17.13L92.11 17.1C91.51 17.66 91.07 18.06 90.79 18.31L87.59 21.12L87.39 20.89L87.4 20.9Z" fill="white"/>
<path d="M93.68 29.06L95.15 27.09L93.67 24.89L91.29 25.51L91.1 25.23L97.82 23.52L97.99 23.77L93.88 29.36L93.68 29.06ZM93.97 24.82L95.33 26.85L96.16 25.75C96.61 25.13 97.11 24.5 97.64 23.86L97.62 23.83C96.93 24.04 96.16 24.26 95.3 24.48L93.97 24.83V24.82Z" fill="white"/>
<path d="M95.22 31.9L100.77 29.05L99.81 27.18L100.07 27.05L102.15 31.11L101.89 31.24L100.93 29.36L95.38 32.21L95.22 31.9Z" fill="white"/>
<path d="M96.96 35.65L103.01 33.18L103.14 33.49L97.1 35.96L96.97 35.65H96.96Z" fill="white"/>
<path d="M99.93 41.88C99.19 41.58 98.71 41.06 98.49 40.31C98.27 39.56 98.39 38.86 98.84 38.21C99.3 37.56 100.01 37.08 100.99 36.79C101.96 36.5 102.81 36.51 103.54 36.81C104.27 37.11 104.75 37.64 104.97 38.39C105.19 39.14 105.08 39.84 104.63 40.49C104.18 41.14 103.47 41.6 102.49 41.89C101.51 42.18 100.65 42.17 99.91 41.88H99.93ZM99.12 38.38C98.7 38.95 98.59 39.56 98.79 40.22C98.99 40.88 99.41 41.34 100.07 41.58C100.73 41.83 101.5 41.82 102.4 41.55C103.29 41.29 103.94 40.87 104.35 40.31C104.76 39.75 104.86 39.14 104.67 38.47C104.47 37.8 104.05 37.34 103.4 37.1C102.75 36.85 101.98 36.86 101.09 37.12C100.2 37.38 99.54 37.8 99.12 38.37V38.38Z" fill="white"/>
<path d="M99.72 44.67L106.18 43.73L106.23 44.08C105.82 44.42 105.25 44.89 104.52 45.49C103.79 46.09 103.12 46.64 102.51 47.14C101.9 47.64 101.32 48.1 100.77 48.53V48.57C101.4 48.44 102 48.34 102.6 48.25L106.76 47.64L106.81 47.96L100.35 48.9L100.3 48.54C100.71 48.2 101.28 47.73 102.01 47.13C102.74 46.53 103.41 45.98 104.02 45.48C104.63 44.98 105.21 44.52 105.76 44.08V44.04C104.95 44.18 104.36 44.28 103.99 44.33L99.78 44.95L99.74 44.65L99.72 44.67Z" fill="white"/>
<path d="M100.55 54.9L102.86 54.05L102.82 51.4L100.49 50.62V50.29L107.05 52.51V52.81L100.56 55.26V54.9H100.55ZM103.1 51.5L103.14 53.94L104.43 53.47C105.15 53.2 105.9 52.94 106.7 52.69V52.65C106 52.45 105.24 52.21 104.4 51.93L103.09 51.49L103.1 51.5Z" fill="white"/>
<path d="M100.43 56.72L106.93 57.34L106.9 57.67L100.7 57.07L100.41 60.11L100.11 60.08L100.43 56.7V56.72Z" fill="white"/>
<path d="M97.53 70.02L103.37 72.23L104.11 70.27L104.38 70.37L102.77 74.64L102.5 74.54L103.25 72.57L97.41 70.36L97.53 70.03V70.02Z" fill="white"/>
<path d="M95.99 73.77L101.75 76.84L101.59 77.13L99.04 75.77L97.33 78.97L99.88 80.33L99.72 80.63L93.96 77.56L94.12 77.26L97.07 78.83L98.77 75.63L95.82 74.06L95.98 73.77H95.99Z" fill="white"/>
<path d="M92.71 79.53L98.04 83.31L96.01 86.17L95.77 86L97.6 83.41L95.48 81.91L93.94 84.08L93.7 83.91L95.24 81.74L92.76 79.98L90.87 82.65L90.63 82.48L92.71 79.54V79.53Z" fill="white"/>
<path d="M87.85 85.69L92.49 90.28L90.04 92.76L89.83 92.56L92.05 90.32L90.11 88.4L88.24 90.29L88.04 90.09L89.91 88.2L87.62 85.93L87.86 85.69H87.85Z" fill="white"/>
<path d="M84.1801 89.18L88.4201 94.14L88.1701 94.36L83.9301 89.4L84.1801 89.18Z" fill="white"/>
<path d="M78.83 93.23L79.15 93.01L82.44 94.45L83.62 93.62L81.84 91.11L82.11 90.92L85.89 96.25L84.42 97.29C83.27 98.1 82.38 98.05 81.73 97.14C81.43 96.72 81.32 96.3 81.4 95.87C81.48 95.45 81.72 95.05 82.14 94.69L78.85 93.23H78.83ZM83.78 93.85L82.68 94.63C81.67 95.35 81.45 96.11 82.02 96.92C82.3 97.32 82.64 97.52 83.02 97.52C83.4 97.52 83.84 97.34 84.35 96.98L85.45 96.2L83.79 93.86L83.78 93.85Z" fill="white"/>
<path d="M75.89 94.75C76.68 94.32 77.47 94.26 78.27 94.57L78.18 94.89C77.44 94.61 76.72 94.65 76.03 95.03C75.57 95.28 75.27 95.59 75.12 95.96C74.97 96.33 74.99 96.7 75.19 97.06C75.29 97.24 75.4 97.39 75.53 97.5C75.65 97.61 75.8 97.68 75.97 97.71C76.14 97.74 76.29 97.76 76.42 97.77C76.55 97.77 76.72 97.77 76.95 97.75L78.04 97.67C78.24 97.66 78.41 97.65 78.55 97.66C78.69 97.66 78.86 97.69 79.06 97.72C79.25 97.76 79.43 97.84 79.59 97.96C79.75 98.08 79.88 98.24 79.99 98.44C80.21 98.85 80.24 99.27 80.08 99.69C79.91 100.11 79.59 100.45 79.12 100.71C78.49 101.05 77.85 101.11 77.18 100.88L77.26 100.58C77.85 100.78 78.42 100.73 78.97 100.43C79.37 100.21 79.63 99.94 79.77 99.61C79.91 99.28 79.89 98.96 79.71 98.63C79.62 98.46 79.51 98.33 79.38 98.23C79.25 98.13 79.1 98.07 78.92 98.04C78.74 98.01 78.61 98 78.5 98C78.4 98 78.26 98 78.07 98.02L76.98 98.11C76.49 98.15 76.08 98.11 75.75 98.01C75.42 97.91 75.15 97.66 74.93 97.25C74.69 96.81 74.66 96.35 74.84 95.89C75.02 95.43 75.37 95.05 75.91 94.76L75.89 94.75Z" fill="white"/>
<path d="M71.2501 97.08L73.59 102.87L75.5401 102.08L75.6501 102.35L71.4201 104.06L71.3101 103.79L73.2701 103L70.9301 97.21L71.2601 97.08H71.2501Z" fill="white"/>
<path d="M67.26 96.94L67.45 97.14C67.08 97.54 66.96 97.99 67.11 98.49C67.13 98.48 67.17 98.46 67.22 98.45C67.33 98.42 67.42 98.42 67.51 98.46C67.6 98.5 67.65 98.58 67.69 98.69C67.73 98.8 67.72 98.9 67.67 98.98C67.62 99.06 67.55 99.12 67.45 99.15C67.32 99.19 67.2 99.17 67.09 99.08C66.98 98.99 66.9 98.86 66.84 98.67C66.74 98.36 66.74 98.05 66.82 97.75C66.9 97.44 67.05 97.17 67.27 96.93L67.26 96.94Z" fill="white"/>
<path d="M61.21 99.93L62.21 106.09L64.28 105.75L64.33 106.04L59.83 106.77L59.78 106.48L61.86 106.14L60.86 99.98L61.21 99.92V99.93Z" fill="white"/>
<path d="M57.15 100.48L57.36 107.01H57.03L56.94 104.13L53.31 104.24L53.4 107.13H53.06L52.85 100.61H53.19L53.3 103.94L56.93 103.83L56.82 100.49H57.15V100.48Z" fill="white"/>
<path d="M50.5501 100.5L49.9201 107L46.4301 106.66L46.4601 106.37L49.6201 106.68L49.8701 104.09L47.2201 103.83L47.2501 103.53L49.9001 103.79L50.1901 100.76L46.9401 100.45L46.9701 100.15L50.5601 100.5H50.5501Z" fill="white"/>
<path d="M42.75 99.31L41.23 105.66L40.9 105.58L42.42 99.23L42.74 99.31H42.75Z" fill="white"/>
<path d="M40.12 98.66L37.98 104.83L37.65 104.71C37.54 104.19 37.38 103.46 37.18 102.54C36.98 101.62 36.8 100.77 36.64 99.99C36.48 99.22 36.34 98.49 36.21 97.81H36.17C36 98.4 35.81 98.99 35.61 99.56L34.23 103.53L33.92 103.42L36.06 97.25L36.4 97.37C36.51 97.89 36.66 98.62 36.86 99.54C37.06 100.46 37.24 101.31 37.4 102.08C37.56 102.85 37.71 103.58 37.84 104.27H37.87C38.12 103.5 38.3 102.93 38.42 102.58L39.81 98.56L40.1 98.66H40.12Z" fill="white"/>
<path d="M32.71 95.71L29.93 101.3L31.81 102.24L31.68 102.5L27.6 100.47L27.73 100.21L29.62 101.15L32.4 95.56L32.71 95.72V95.71Z" fill="white"/>
<path d="M29.09 93.75L25.52 99.22L22.58 97.31L22.74 97.07L25.4 98.8L26.82 96.62L24.59 95.17L24.75 94.92L26.98 96.37L28.64 93.82L25.9 92.03L26.06 91.78L29.08 93.75H29.09Z" fill="white"/>
<path d="M21.56 88.13L21.86 88.38L21.31 91.92L22.42 92.84L24.39 90.48L24.65 90.69L20.47 95.7L19.09 94.55C18.01 93.65 17.83 92.77 18.55 91.91C18.88 91.51 19.26 91.3 19.69 91.26C20.12 91.23 20.56 91.36 21.02 91.68L21.58 88.12L21.56 88.13ZM22.23 93.07L21.19 92.2C20.24 91.4 19.44 91.39 18.81 92.15C18.5 92.53 18.39 92.9 18.49 93.26C18.59 93.63 18.88 94.01 19.36 94.4L20.4 95.27L22.24 93.06L22.23 93.07Z" fill="white"/>
<path d="M20.4 87L15.6 91.43L15.36 91.17C15.51 90.66 15.71 89.95 15.98 89.04C16.24 88.13 16.48 87.3 16.71 86.54C16.93 85.78 17.15 85.07 17.36 84.41L17.33 84.38C16.89 84.84 16.45 85.27 16.01 85.67L12.92 88.52L12.7 88.28L17.5 83.85L17.74 84.12C17.59 84.63 17.39 85.34 17.12 86.25C16.86 87.16 16.61 87.99 16.39 88.75C16.17 89.51 15.95 90.22 15.75 90.89L15.77 90.92C16.36 90.35 16.79 89.93 17.06 89.68L20.19 86.8L20.4 87.03V87Z" fill="white"/>
<path d="M13.91 78.98L12.49 80.99L14.02 83.15L16.39 82.48L16.58 82.75L9.89998 84.62L9.72998 84.38L13.71 78.7L13.92 78.99L13.91 78.98ZM13.72 83.23L12.31 81.23L11.51 82.35C11.07 82.98 10.59 83.62 10.07 84.28L10.09 84.31C10.78 84.08 11.54 83.85 12.39 83.61L13.72 83.23Z" fill="white"/>
<path d="M12.32 76.21L6.84003 79.19L7.84003 81.04L7.59003 81.18L5.41003 77.17L5.66003 77.03L6.67003 78.88L12.15 75.9L12.32 76.21Z" fill="white"/>
<path d="M10.5 72.51L4.47998 75.04L4.34998 74.73L10.37 72.2L10.5 72.51Z" fill="white"/>
<path d="M7.36997 66.33C8.11997 66.61 8.60997 67.12 8.84997 67.86C9.08997 68.6 8.98997 69.31 8.54997 69.97C8.10997 70.64 7.39997 71.12 6.42997 71.44C5.46997 71.75 4.60997 71.76 3.87997 71.48C3.13997 71.2 2.64997 70.68 2.40997 69.93C2.16997 69.18 2.26997 68.48 2.69997 67.83C3.12997 67.17 3.82997 66.69 4.79997 66.38C5.76997 66.07 6.62997 66.05 7.36997 66.33ZM8.25997 69.81C8.66997 69.23 8.75997 68.62 8.54997 67.96C8.33997 67.3 7.89997 66.86 7.23997 66.63C6.57997 66.4 5.79997 66.43 4.90997 66.71C4.01997 67 3.37997 67.42 2.98997 67.99C2.58997 68.56 2.49997 69.18 2.71997 69.83C2.92997 70.49 3.36997 70.94 4.01997 71.18C4.66997 71.41 5.43997 71.39 6.32997 71.1C7.21997 70.81 7.85997 70.38 8.26997 69.81H8.25997Z" fill="white"/>
<path d="M7.51999 63.55L1.07999 64.65L1.01999 64.3C1.41999 63.95 1.97999 63.47 2.69999 62.84C3.40999 62.22 4.06999 61.65 4.66999 61.14C5.26999 60.63 5.83998 60.15 6.36999 59.71V59.67C5.74999 59.81 5.13999 59.93 4.54999 60.03L0.409985 60.74L0.359985 60.42L6.79999 59.32L6.85999 59.68C6.45999 60.03 5.89999 60.51 5.17999 61.13C4.46999 61.75 3.80999 62.31 3.20999 62.83C2.60999 63.34 2.04999 63.82 1.50999 64.27V64.3C2.31999 64.14 2.90999 64.03 3.27999 63.96L7.46999 63.24L7.51999 63.54V63.55Z" fill="white"/>
<path d="M6.45001 53.32L4.16001 54.23L4.27001 56.87L6.62001 57.59V57.92L0.0100098 55.87V55.57L6.43001 52.96V53.32H6.45001ZM3.97001 56.78L3.87001 54.34L2.59001 54.84C1.88001 55.13 1.13001 55.41 0.34001 55.68V55.72C1.04001 55.9 1.81001 56.12 2.66001 56.38L3.98001 56.78H3.97001Z" fill="white"/>
<path d="M6.52 51.53L0 51.07L0.02 50.74L6.24 51.18L6.46 48.13L6.76 48.15L6.52 51.53Z" fill="white"/>
<path d="M44.96 62.72C44.96 62.72 50.68 51.22 37.41 40.44L71.11 66.04" stroke="white" stroke-miterlimit="10"/>
<path d="M60.96 41.71C60.96 41.71 51.42 50.31 37.48 40.42L71.19 66.01" stroke="white" stroke-miterlimit="10"/>
</svg>
