<svg width="919" height="388" viewBox="0 0 919 388" fill="none" xmlns="http://www.w3.org/2000/svg">
<path d="M1.42993 544.64C52.0399 429.24 134.86 350.31 233.47 338.57C272.48 333.93 319.36 333.08 347.84 334.54C376.32 336.01 399.89 325.41 412.37 319.09C424.85 312.77 426.23 310.72 427.84 307.11C429.45 303.49 431.28 298.3 432.74 294.62C434.2 290.94 435.29 288.77 442.94 286.64C450.59 284.51 464.79 282.42 486.25 280.58C507.71 278.74 536.43 277.15 553.18 276.49C569.94 275.83 574.73 276.09 568.5 277.15C562.27 278.21 545.01 280.06 524.7 282.3C504.39 284.53 481.02 287.15 463.55 289.09C446.08 291.03 434.5 292.29 428.25 292.99C422 293.69 421.06 293.82 418.66 289.13C416.25 284.44 412.37 274.91 410.1 269.05C407.83 263.19 407.18 260.99 413.23 260.37C419.27 259.76 432.01 260.73 454.81 262.17C477.61 263.61 510.46 265.51 531.54 267.29C552.62 269.06 561.92 270.7 561.55 271.59C561.17 272.48 551.12 272.64 527.9 271.98C504.68 271.33 468.31 269.87 446.56 269.48C424.81 269.09 417.69 269.78 415.67 266.65C413.66 263.52 416.75 256.59 418.66 250.99C420.57 245.4 421.31 241.15 425.56 239.17C429.81 237.19 437.58 237.48 456.57 241.09C475.56 244.7 505.78 251.63 523.84 255.98C541.9 260.34 547.81 262.12 542.21 262.31C536.61 262.5 519.5 261.08 497.2 257.22C474.9 253.36 447.4 247.05 430.51 244.06C413.62 241.07 407.34 241.41 405.4 239.37C403.46 237.33 405.85 232.9 408.4 227.04C410.95 221.19 413.66 213.91 418.82 212.06C423.99 210.2 431.6 213.76 448.3 219.91C465 226.06 490.77 234.8 511.76 241.79C532.75 248.78 548.95 254.02 559.33 258.3C569.71 262.58 574.28 265.9 566.95 264.57C559.62 263.24 540.4 257.26 515.93 248.97C491.45 240.69 461.72 230.11 443.69 224.01C425.66 217.91 419.32 216.3 415.92 215.22C412.52 214.14 412.05 213.59 415.62 205.1C419.19 196.61 426.81 180.18 440 151.11C453.2 122.04 471.97 80.33 482.98 60.42C493.99 40.51 497.23 42.4 507.72 47.25C518.21 52.1 535.96 59.92 557.2 69.65C578.44 79.38 603.17 91.01 615.52 97.7C627.87 104.39 627.84 106.13 627.3 108.44C626.76 110.76 625.72 113.65 619.37 141.04C613.02 168.43 601.35 220.32 595.48 246.77C589.61 273.22 589.53 274.24 591.18 276.78C592.83 279.32 596.21 283.37 597.04 286.61C597.87 289.85 596.14 292.28 588.47 293.44C580.8 294.59 567.17 294.47 542.67 297.31C518.16 300.15 482.77 305.94 462.89 309.23C443.01 312.52 438.64 313.32 436.52 312.95C434.4 312.58 434.51 311.05 438.72 308.97C442.93 306.88 451.23 304.24 470.81 300.82C490.39 297.4 521.26 293.21 542.88 291.18C564.51 289.15 576.9 289.28 586.58 290.64C596.26 292 603.24 294.58 608.52 296.63C613.8 298.67 617.37 300.18 619.93 299.5C622.49 298.83 624.04 295.97 628.27 293.63C632.5 291.29 639.4 289.46 660.21 288.14C681.02 286.81 715.72 285.99 741.65 285.42C767.57 284.85 784.72 284.52 794.39 284.03C804.06 283.54 806.26 282.89 807.36 281.89C808.45 280.89 808.44 279.54 808.34 272.05C808.25 264.56 808.08 250.93 807.35 220.45C806.62 189.96 805.33 142.61 803.63 119.06C801.93 95.51 799.81 95.76 797.9 96.53C796 97.31 794.31 98.61 794.28 128.05C794.25 157.49 795.88 215.06 795.51 243.96C795.14 272.86 792.76 273.09 770.63 274.34C748.5 275.59 706.61 277.86 679.77 279.37C652.93 280.87 641.14 281.61 632.18 283.1C623.23 284.59 617.11 286.84 613.7 287.55C610.29 288.26 609.58 287.44 607.52 285.26C605.46 283.08 602.04 279.54 599.74 277.08C597.44 274.62 596.27 273.25 600.28 271C604.3 268.75 613.51 265.61 630.5 261.15C647.5 256.69 672.28 250.9 693.73 246.17C715.18 241.43 733.3 237.75 747.09 235.27C760.89 232.79 770.36 231.52 776 232.49C781.64 233.46 783.44 236.67 785.25 241.12C787.06 245.56 788.88 251.24 790 254.73C791.12 258.22 791.53 259.54 787.47 260.02C783.41 260.5 774.88 260.16 759.97 262.16C745.06 264.17 723.76 268.53 702.36 270.35C680.95 272.17 659.43 271.44 644.18 273.22C628.93 275 619.94 279.28 615.17 280.6C610.4 281.93 609.86 280.3 611.22 277.71C612.57 275.12 615.82 271.58 636.23 265.66C656.64 259.74 694.23 251.45 721.94 246.63C749.65 241.81 767.48 240.46 777.09 238.46C786.7 236.46 788.08 233.79 788.16 207.66C788.24 181.53 787.02 131.93 786.43 105.96C785.83 79.98 785.86 77.63 786.89 77.89C787.92 78.15 789.96 81.02 791.45 83.93C792.94 86.84 793.9 89.78 793.07 89.26C792.24 88.73 789.62 84.74 786.51 78.17C783.4 71.6 779.8 62.46 776.94 57.27C774.08 52.08 771.97 50.84 771.18 53.14C770.39 55.44 770.92 61.27 772.21 70.18C773.5 79.09 775.55 91.09 776.03 104.53C776.51 117.97 775.42 132.85 774.93 151.31C774.44 169.77 774.54 191.82 775.17 205.01C775.8 218.2 776.95 222.55 778.34 216.43C779.73 210.31 781.36 193.73 781.87 169.4C782.38 145.07 781.76 112.99 780.63 93.28C779.5 73.57 777.86 66.21 776.46 61.42C775.06 56.62 773.9 54.38 771.37 49.99C768.84 45.59 764.93 39.04 763.09 38.62C761.25 38.2 761.48 43.9 762.14 56.71C762.8 69.52 763.88 89.44 764.14 110.8C764.4 132.16 763.83 154.98 763.15 171.17C762.47 187.36 761.69 196.94 761.16 202.46C760.63 207.98 760.37 209.45 744.2 216.1C728.03 222.75 695.97 234.59 673.05 243.14C650.13 251.68 636.35 256.93 634.8 255.71C633.25 254.49 643.94 246.8 663.15 237.18C682.36 227.56 710.1 216 727.57 208.76C745.04 201.52 752.23 198.58 755.58 194.38C758.93 190.18 758.42 184.71 757.38 156.57C756.33 128.43 754.75 77.63 753.65 51.79C752.56 25.95 751.96 25.09 748.45 26.33C744.95 27.57 738.54 30.93 733.9 33.31C729.26 35.7 726.38 37.12 724.6 44.38C722.81 51.65 722.11 64.77 720.65 83.87C719.19 102.98 716.95 128.07 715.13 143.12C713.31 158.18 711.9 163.19 708.86 167.08C705.82 170.97 701.15 173.74 691.39 180.68C681.63 187.62 666.79 198.73 655.52 208.01C644.25 217.29 636.56 224.75 628.07 233.89C619.58 243.03 610.29 253.85 605.11 260.03C599.92 266.22 598.83 267.77 599.28 266.17C599.74 264.57 601.74 259.8 608.31 250.34C614.88 240.88 626.01 226.71 641.39 210.57C656.77 194.43 676.41 176.31 686.59 167.09C696.78 157.88 697.52 157.58 698.85 152.84C700.19 148.1 702.12 138.92 705.85 112.35C709.58 85.78 715.1 41.83 718.76 20.84C722.42 -0.149984 724.21 1.83999 725.57 3.80999C726.93 5.77999 727.86 7.74997 727.61 12.29C727.36 16.83 725.95 23.95 725.38 25.29C724.82 26.63 725.1 22.19 725.03 17.17C724.95 12.14 724.51 6.51999 723.44 3.43999C722.37 0.359991 720.67 -0.180014 717.74 2.30999C714.81 4.79999 710.64 10.32 703.61 18.19C696.58 26.06 686.67 36.26 677.57 45.71C668.47 55.16 660.16 63.85 652.54 72.69C644.92 81.54 637.98 90.53 633.13 104.97C628.28 119.41 625.53 139.29 621.5 160.12C617.47 180.95 612.16 202.73 607.39 221.15C602.62 239.57 598.39 254.62 596.04 263.72C593.69 272.82 593.22 275.97 595.61 280.47C598 284.97 603.24 290.81 607.86 293.49C612.48 296.17 616.48 295.69 619.75 294.01C623.01 292.33 625.54 289.45 647.94 287.04C670.34 284.63 712.61 282.7 741.59 281.43C770.56 280.17 786.24 279.58 794.41 278.9C802.59 278.22 803.26 277.45 802.69 248.38C802.13 219.31 800.33 161.92 799.45 132.54C798.58 103.16 798.63 101.78 798.52 100.45C798.41 99.12 798.13 97.83 803.59 94.43C809.05 91.03 820.25 85.52 832.28 82.18C844.31 78.84 857.16 77.67 868.94 72.38C880.72 67.08 891.44 57.66 902.46 47.3C913.48 36.95 924.8 25.67 936.12 14.39" stroke="white" stroke-width="1.24" stroke-miterlimit="2.61"/>
</svg>
