<?xml version="1.0" encoding="utf-8"?>
<!-- Generator: Adobe Illustrator 26.5.0, SVG Export Plug-In . SVG Version: 6.00 Build 0)  -->
<svg version="1.1" id="圖層_1" xmlns="http://www.w3.org/2000/svg" xmlns:xlink="http://www.w3.org/1999/xlink" x="0px" y="0px"
	 viewBox="0 0 1920 370" style="enable-background:new 0 0 1920 370;" xml:space="preserve">
<style type="text/css">
	.st0{fill:#A77C22;}
</style>
<path class="st0" d="M1938.8,69.1l-14.4-2l-14.4-0.7l-14.5,0.9L1881,70l-14.5,5l-14.5,7.7l-14.3,11.2l-14.4,13.5l-28.7,28.6
	l-14.3,13.1l-14.3,11.3l-14.2,9l-14.3,6.5l-14.3,3.8l-14.3,1.3l-14.3-1l-14.4-2.9l-14.4-4.3l-14.4-5.1l-43.2-16.2l-14.4-4.9
	l-14.4-4.1l-14.4-3.1l-11.2-1.6l-3.3-0.7l-13.3-1l-15.6-0.3l-5.4,0.6l-8.8,0.4l-14.4,1.3l-28.8,3.4l-14.3,1.5l-14.3,1l-14.3-0.1
	l-14.3-1.3l-14.4-2.1l-43.1-7.7l-14.4-2.2l-14.4-1.8l-14.4-1.2l-14.4-0.7l-14.4-0.1l-14.4,0.5l-14.4,1.1l-14.4,1.5l-14.4,1.9
	l-14.4,2.5l-28.8,6.3l-14.4,3l-14.4,2.5l-14.3,1.9l-14.4,1.2l-14.3,0.5l-14.4-0.1l-14.4-0.6l-14.4-1l-28.7-2.5l-28.8-2.3l-14.4-0.7
	l-14.4-0.4l-14.4-0.1l-100.7,2l-871.7-0.6v1.1l843,0.7l28.8-0.1l71.9-1.6l28.7-0.4l14.4,0.1l14.4,0.4l14.4,0.7l57.5,4.7l14.4,1
	l14.4,0.6l14.4,0.1l14.4-0.5l14.4-1.2l14.4-1.9l14.4-2.5l43.1-9.3l14.4-2.5l14.4-1.9l14.4-1.5l14.3-1l14.4-0.5l14.3,0l14.4,0.6
	l14.4,1.2l14.4,1.8l14.4,2.2l43.1,7.7l14.4,2.1l14.4,1.3l14.4,0.1l14.4-1l35.6-4.1c0,0,18.3-2.3,21.8-2.4c0,0-10.4,1.8-21.3,5
	l-7.6,2.3l-17.5,5.6l-11.2,2.6l-14.3,2.5l-14.3,1.2l-14.3-0.1l-14.3-1L1378,154l-57.5-8.7l-14.4-1.8l-14.4-1.3l-14.4-0.8l-14.4-0.3
	l-14.4,0.3l-14.4,0.9l-14.4,1.5l-14.4,2.4l-43.1,9.9l-14.4,2.8l-14.3,2.1l-14.4,1.4l-14.3,0.7l-14.4,0l-14.4-0.5l-14.4-1l-28.8-2.6
	l-28.8-2.6l-14.4-0.9l-14.4-0.6l-14.4-0.2l-14.4,0.1l-14.4,0.3l-57.5,2.1l-28.8,0.7l-857.4-0.5v1.1l828.6,0.7l14.4,0l28.8-0.4
	l57.5-2l28.7-0.8l14.4-0.1l14.4,0.2l14.4,0.6l14.4,0.9l57.5,5.2l14.4,1l14.4,0.5l14.4,0l14.4-0.7l14.4-1.4l14.4-2.1l14.4-2.8
	l28.8-6.7l14.3-3.2l14.3-2.4l14.4-1.5l14.4-0.9l14.3-0.3l14.4,0.3l14.3,0.8l14.4,1.3l14.4,1.8l57.5,8.7l14.4,1.7l14.4,1l14.4,0.1
	l2.7-0.2l12.4-1c0,0,11.4-2.1,19.2-3.6l0,0c4.8-0.7,21.9-6.6,21.9-6.6l15.7-4.7l14.3-3.2l8.8-1l5.4-0.6l14.3,0.1l14.3,2.2l14.3,4.4
	l14.4,6.5l14.3,8.3l14.4,9.7l28.8,20.9l14.3,9.3l14.4,10.8l28.8,23.9l14.4,10.6l14.6,8.3l14.1,5.2l14.7,1.9l14.3-2l14.9-5.9
	l14.4-9.2l14.3-12l14.4-13.8l14.4-14.3l14.2-13l14.4-9.9l14.3-6l14.3-2.5l14.1,0.3l14.3,2.8l14.4,4.7l14.4,5.9l28.8,13.3l1.7,0.7
	v-1.2l-1.2-0.5l-28.8-13.3l-14.4-5.9l-14.5-4.7l-14.5-2.8l-14.3-0.4l-14.3,2.5l-14.5,6l-14.7,10.1l-14.3,13l-14.4,14.3l-14.3,13.8
	l-14.2,11.9l-14.2,9.2l-14.4,5.8l-14.2,2l-14.2-1.8l-14.2-5.2l-14.4-8.2l-14.4-10.6l-28.8-23.9l-14.4-10.8l-14.4-9.3l-28.8-20.9
	l-14.4-9.8l-7.4-4.3c-6.3-4.5-21.1-10-21.1-10c2.7,0.5,17.2,5.2,17.2,5.2l5.1,2.4l5.6,2.7l14.4,8.6l28.8,19.1l14.4,8.9l14.4,10.1
	l14.4,10.8l14.4,10.3l14.5,8.8l14.5,6.2l14.3,3.2l14.3-0.3l14.5-4l14.8-7.9l14.3-10.9l14.4-13.5l28.7-30l14.2-13.3l14.2-9.8
	l14.3-6.2l14.3-3l14.3-0.3l14.4,1.9l14.3,3.5l14.4,4.7l28.8,10.6l1.6,0.5v-1.1l-1.3-0.4l-28.8-10.6l-14.4-4.7l-14.4-3.6l-14.6-1.9
	l-14.5,0.4l-14.5,3.1l-14.5,6.2l-14.4,9.9l-14.3,13.4l-28.7,30l-14.3,13.4l-14.2,10.8l-14.4,7.7l-14.3,4l-14.2,0.3l-14.1-3.1
	l-14.4-6.2l-14.4-8.8l-14.4-10.3l-14.4-10.8l-2.6-1.8c-9.6-7.3-32.3-20.7-32.3-20.7c2.2,1.1,33.7,18.4,33.7,18.4l15,8l14.5,6.6
	l14.5,4.6l14.3,1.9l14.3-1.1l14.9-4.5l14.4-7.8l14.3-10.8l14.4-13.4l14.4-15.2l14.4-16l14.3-15.4l14.2-13.1l14.3-9.2l14.3-5.7
	l14.3-2.9l14.3-0.5l14.4,1.5l14.3,2.9l14.4,4l28.8,8.9l1.6,0.4v-1.1l-1.3-0.4l-28.8-8.9l-14.4-4l-14.4-3l-14.5-1.5l-14.5,0.5
	l-14.5,2.9l-14.5,5.8l-14.4,9.3l-14.3,13.1l-14.4,15.4l-14.4,16l-14.4,15.2l-14.3,13.4l-14.2,10.7l-14.2,7.7l-14.5,4.4l-14.3,1.1
	l-14.1-1.9l-14.3-4.5l-14.4-6.5l-28.8-15.6l-14.4-7.6l-12.7-7.3l-16.1-10.6l-14.4-8.6l-10.1-5l-19.9-6l-13.1-3.2l13.1,2l20.9,4.8
	l8.7,2.5l14.4,4.9l28.8,10.9l14.4,5.3l14.4,5.1l14.4,4.3l14.5,2.9l14.5,1l14.5-1.3l14.5-3.9l14.4-6.5l14.3-9L1781,150l14.4-13.1
	l28.8-28.7l14.3-13.5l14.2-11.1l14.3-7.6l14.3-4.9l14.3-2.8l14.4-0.9l14.3,0.7l14.3,2l14.4,2.9l28.8,6.9l1.6,0.4v-1.2l-30.1-7.1
	L1938.8,69.1L1938.8,69.1z"/>
<path class="st0" d="M1478.1,149l-30.7,6.5c-6.5,1.5-14.6,3.3-23.2,4.8l-3.2,0.7l-7.7,1.7l-6.6,0.6l-14.4,0.6l-14.4,0.1l-14.4-0.3
	l-71.9-3.8l-14.4-0.5l-14.4-0.2l-14.4,0.1l-14.4,0.5l-14.4,1l-14.4,1.9l-14.4,2.7l-28.8,5.9l-14.4,2.5l-14.4,2l-14.3,1.3l-14.4,0.6
	l-14.4,0l-14.4-0.5l-14.4-0.9l-57.5-5.2l-14.4-1l-14.4-0.7l-14.4-0.4l-14.4-0.1l-14.4,0.2l-71.9,2.3l-28.8,0.5l-843-0.5v1.1
	l828.6,0.6l14.4-0.1l100.7-2.9l14.4-0.2l14.4,0.1l14.4,0.4l14.4,0.7l71.9,6.3l14.4,0.9l14.4,0.5l14.4,0l14.4-0.7l14.4-1.3l14.4-2
	l14.4-2.5l28.8-5.9l14.3-2.7l14.3-1.8l14.4-1l14.4-0.5l14.4-0.1l14.4,0.2l14.4,0.5l43.1,2.4l28.8,1.4l14.4,0.3l13.4-0.1l15-0.8
	l-14.7,3.4l-13.8,3l-14.4,2.8l-14.4,2.5l-14.4,2l-14.4,1.6l-14.4,1.1l-14.4,0.7l-14.4,0.4l-28.7,0.2l-28.8-0.1l-14.4,0.5l-14.4,1.2
	l-43.1,4.5l-14.4,1.1l-14.4,0.7l-14.4,0.3l-14.4-0.1l-14.4-0.4l-86.3-5.7l-14.4-0.7l-14.4-0.4l-14.4-0.2l-14.4,0.1l-71.9,2
	l-28.8,0.5l-843-0.3v1.1l814.2,0.4h14.4l28.8-0.3l57.5-1.6l28.7-0.6l14.4-0.1l14.4,0.2l14.4,0.4l14.4,0.7l71.9,5l14.4,0.7l14.4,0.4
	l14.4,0.1l14.4-0.3l14.4-0.7l14.4-1.1l43.1-4.6l14.4-1.2l14.4-0.5l28.8,0.1l28.8-0.2l14.4-0.4l14.4-0.7l14.4-1.1l14.4-1.6l14.4-2
	l14.4-2.5l14.4-2.9l14.4-3.1l21.2-4.9c0,0,27.7-5.8,30-6.1l-29.3,8.7l-7.9,2.8l-43.1,17.2l-14.4,5.2l-14.3,4.5l-14.3,3.6l-14.4,2.7
	l-14.3,1.8l-14.3,0.9l-14.4,0.2l-14.4-0.4l-14.4-0.9l-14.4-1.2l-14.4-1l-14.4-0.6l-14.4-0.2l-14.4,0l-57.5,0.3l-28.8-0.2l-100.6-3.2
	l-28.8-0.4l-14.4,0l-86.3,1.7l-857.4,0v1.1l814.2,0.3l28.8-0.1l86.3-1.7l28.8-0.2l28.7,0.4l57.5,2.1l43.2,1.1l28.8,0.2l57.5-0.3
	l14.4,0l14.4,0.2l14.4,0.6l14.4,1l14.4,1.2l14.4,0.9l14.4,0.4l14.4-0.2l14.4-1l14.4-1.8l14.4-2.7l14.4-3.6l14.4-4.5l14.4-5.2
	l43.1-17.2l14.3-5l28.8-7.4l14.4-4l14.3-3.7l14.3-2.9l14.3-1.6l14.2,0.1l14.3,2l14.3,4.1l14.4,6.2l14.3,8.1l14.4,9.6l14.4,10.7
	l14.4,11l14.4,10.4l14.3,8.9l14.4,10l14.4,11l14.4,10.8l14.5,9.5l14.5,7.2l14.1,4.3l14.7,1.1l14.3-2.6l2.5-1l13-5l14.4-9.8
	l17.8-13.9l24.6-23.2l14.2-12l14.4-9l14.3-5l14.3-1.6l14.1,1.2l14.4,3.7l3,1.2l-0.8,2.5l-1.8-0.5l-14.6-2.3l-14.5-0.1l-14.5,2.4
	l-14.5,5.3l-14.4,8.5l-14.3,11.3l-22,19.6c0,0-13.3,12-21.4,16.5l-24.5,12.7l-3.6,1.9l-14.4,4.4l-14.3,1.1l-14.1-1.9l-14.3-4.5
	l-14.4-6.8l-14.4-8.2l-14.4-8.8l-14.4-8.2l-14.3-7.7l-14.4-9.6l-28.8-21.4l-14.4-10.1l-14.4-8.9l-14.4-7.3l-14.5-5.5l-14.5-3.6
	l-14.4-1.8l-14.4-0.1l-14.4,1.4l-14.4,2.4l-28.8,6.3l-14.4,4l-14.4,5.8l-43.1,20.9l-14.4,6.3l-14.3,5.3l-14.3,4.2l-14.3,3l-14.3,1.8
	l-14.3,0.6l-14.3-0.4l-14.4-1.3l-14.4-1.9l-28.8-4.6l-14.4-2l-14.4-1.6l-14.4-1.2l-14.4-0.8l-14.4-0.4l-14.4-0.1l-14.4,0.2
	l-57.5,1.8l-28.7,0.5l-71.9-0.4l-71.9,0.8l-886.1,0.1v1.1l828.6,0.3l129.4-1.2l71.9,0.4l14.4-0.2l57.5-1.7l28.7-0.5l14.4,0.1
	l14.4,0.4l14.4,0.8l14.4,1.2l14.4,1.6l14.4,2l28.8,4.6l14.4,1.9l14.4,1.3l14.4,0.4l14.4-0.6l14.4-1.8l14.4-3l14.4-4.2l14.4-5.4
	l14.4-6.3l28.8-14l14.3-6.9l14.3-5.8l14.4-4l28.7-6.3l14.3-2.4l14.3-1.3l14.3,0.1l14.2,1.7l14.3,3.6l14.4,5.5l14.3,7.3l14.3,8.9
	l14.4,10.1l28.8,21.4l14.4,9.7l14.4,7.7l14.4,8.2l14.4,8.8l14.4,8.2l14.5,6.8l14.5,4.6l14.3,1.9l14.3-1.1l14.5-4.4l15.9-8.3l14-7.5
	l-14.3,10.2l-14.6,8l-1.2,0.6l-14.3,4.9l-14.3,2.1l-14.3-0.6l-14.3-3l-14.4-5.1l-14.4-6.4l-7.1-3.4l-7.3-4.5l-14.4-6.6l-6.3-2
	l-8-3.6l-14.4-8.4l-14.4-9.5l-14.4-9.8l-14.4-9.4l-14.4-8.5l-14.4-7.1l-14.4-5.6l-14.4-3.9l-14.4-2.2l-14.4-0.6l-14.4,0.8l-14.4,1.9
	l-14.4,2.6l-14.4,3l-14.4,3.9l-14.4,5.8l-28.8,13.5l-14.4,6.5l-14.3,5.7l-14.3,4.6l-14.3,3.3l-14.3,2l-14.3,0.7l-14.3-0.4l-14.3-1.4
	l-14.4-2.2l-43.2-8.1l-14.4-2.3l-14.4-1.8l-14.4-1.2l-14.4-0.6l-14.4,0l-14.4,0.5l-14.4,0.9l-57.5,5.3l-14.4,1.1l-14.4,0.7
	l-14.4,0.3l-1015.5-0.2v1.1l857.4,0.4l86.3-0.2h43.1l28.8-0.1l14.4-0.3l14.4-0.7l71.9-6.4l14.4-0.9l14.4-0.5l14.3,0l14.4,0.6
	l14.3,1.2l14.4,1.8l14.4,2.3l43.1,8.1l14.4,2.2l14.4,1.4l14.4,0.4l14.4-0.7l14.4-2l14.4-3.3l14.4-4.6l14.4-5.7l43.1-20l14.3-5.7
	l14.3-3.9l14.4-3l14.4-2.6l14.3-1.9l14.3-0.8l14.3,0.6l14.3,2.2l14.3,3.9l14.3,5.5l14.3,7.1l14.3,8.4l14.4,9.4l14.4,9.8l4.5,3
	c0,0,14.8,10.1,22.3,13.8c0.9,0.4,1.4,0.6,1.4,0.6c-0.4-0.2-0.9-0.4-1.4-0.6c-4.1-1.9-16.4-7.5-23.7-11.5l-17.1-8.7l-14.3-7.7
	l-14.4-7l-14.4-5.7l-14.4-4.3l-14.4-2.7l-14.4-1.2l-14.4,0.3l-14.4,1.5l-14.4,2.4l-14.4,3l-14.4,3.2l-14.4,3.8l-14.4,5.2l-28.7,11.4
	l-14.3,5.1l-14.3,4.2l-14.3,3.1l-14.3,1.9l-14.3,0.7l-14.4-0.4l-14.3-1.4l-14.4-2.1l-43.1-7.7l-14.4-2.1l-14.4-1.6l-14.4-1
	l-14.4-0.3l-14.4,0.4l-14.4,1l-14.4,1.5l-57.5,8.1l-14.4,1.7l-14.4,1.4l-14.4,0.9l-14.4,0.3h-14.4l-43.1-0.5l-958.1-1.5v1.1
	l1001.2,1.9h14.4l14.4-0.3l14.4-0.9l14.4-1.4l14.4-1.7l43.1-6.2l14.4-1.9l14.4-1.5l14.3-1l14.4-0.4l14.3,0.3l14.4,1l14.3,1.6
	l14.4,2.1l43.2,7.7l14.4,2.1l14.4,1.4l14.4,0.4l14.4-0.7l14.4-1.9l14.4-3.1l14.4-4.2l14.4-5.1l28.8-11.4l14.3-5.2l14.4-3.8l14.4-3.2
	l14.4-3l14.3-2.4l14.3-1.5l14.3-0.3l14.3,1.1l14.3,2.7l14.3,4.2l2.6,1.1c0,0,19.2,7.4,24.4,10.7c0,0-18.9-7-25.2-8.1l-1.5-0.4
	l-14.4-2.6l-14.4-1l-14.4,0.5l-14.4,1.8l-14.4,2.9l-14.4,3.6l-43.1,11.6l-28.8,9.5l-14.4,4.5l-14.3,3.9l-14.3,3l-14.3,2l-14.3,0.9
	l-14.4,0l-14.3-0.9l-14.4-1.5l-43.1-6.1l-14.4-1.6l-14.4-1l-14.4-0.3l-14.4,0.4l-14.4,1l-14.4,1.5l-14.4,1.9l-57.5,9l-14.4,1.9
	l-14.4,1.5l-14.4,1.1l-14.4,0.6h-14.4l-57.5-1.7l-43.1-0.9l-914.9-1.1v1.1l900.3,0.9l115.2,2.8h14.4l14.4-0.6l14.4-1.1l14.4-1.5
	l14.4-1.9l57.5-9l14.4-1.9l14.4-1.5l14.3-1l14.4-0.4l14.3,0.3l14.4,1l14.4,1.6l43.2,6.1l14.4,1.5l14.4,0.9l14.4,0l14.4-1l14.4-2
	l14.4-3l14.4-3.9l14.4-4.5l28.7-9.5l43.1-11.6l14.3-3.6l14.4-2.9l14.3-1.8l14.3-0.5l14.3,1l14.3,2.6l14.3,4.1l14.3,5.5l3.9,1.8
	c0,0,27.9,13.6,32.7,16.4c0,0-31.9-13.2-33.7-13.9l-2.4-0.9L1565,220l-14.4-2.9l-14.4-1.4l-14.4,0.1l-14.4,1.5l-14.4,2.7l-14.4,3.6
	l-28.8,8.5l-57.5,15.7l-14.4,3.4l-14.4,2.9l-14.4,2.2l-14.3,1.5l-14.4,0.8l-14.4,0.1l-14.4-0.4l-57.5-3.5l-14.4-0.4l-14.4,0.2
	l-14.4,0.7l-14.4,1.1l-14.4,1.5l-71.9,9l-14.4,1.5l-14.4,1.2l-14.4,0.9l-14.4,0.6l-14.4,0.3l-14.4-0.1l-57.5-1.8l-8.6-0.2l-5.8-0.2
	l-5.3,0l-9.1-0.2h-10.8l-17.9-0.2l-900.5-0.3v1.1l828.6,0.4l71.9-0.1l28.8,0.2l86.3,2.3l14.4,0.1l14.4-0.3l14.4-0.6l14.4-0.9
	l14.4-1.2l14.4-1.5l71.9-9l14.4-1.5l14.4-1.1l14.4-0.7l14.3-0.2l14.4,0.4l43.1,2.7l14.4,0.8l14.4,0.4l14.4-0.1l14.4-0.8l14.4-1.5
	l14.4-2.2l14.4-2.9l14.4-3.4l28.8-7.9l14.4-3.8l43.1-12.5l14.4-3.6l14.3-2.7l14.3-1.5l14.3-0.1l14.3,1.4l14.3,2.9l14.3,4.3l14.4,5.4
	l28.8,12.5l14.4,5.8l8.2,2.6l6.1,1.9l14.3,6.5l13.1,8l30.1,20.6l13,8.2l-6.5,1.6l-20.3-12.6l-14.4-8.6l-14.5-7.3l-14.4-5l-14.3-3
	l-14.4-4.2l-28.8-9.9l-14.4-4.6l-14.4-3.8l-14.4-2.8l-14.4-1.7l-14.4-0.4l-14.4,0.7l-14.4,1.8l-14.4,2.7l-14.4,3.3l-28.7,7.2
	l-14.4,3.3l-14.4,3l-14.4,2.7l-14.4,2.2l-14.4,1.8l-14.4,1.4l-14.4,1l-14.4,0.7l-71.9,1.7l-14.4,0.6l-14.4,0.9l-71.9,6.3l-28.8,2.3
	l-28.8,1.8l-28.8,1.2l-28.7,0.7l-28.8,0.3l-57.5-0.7l-958.1,0.6v1.1l799.9,0.2l129.4-0.9l86.3,0.9l28.8-0.3l28.8-0.7l28.8-1.2
	l28.8-1.8l100.7-8.6l14.4-0.9l14.4-0.6l43.1-0.9l28.8-0.8l14.4-0.7l14.4-1.1l14.4-1.4l14.4-1.8l14.4-2.2l14.4-2.7l14.4-3l14.4-3.4
	l28.7-7.2l14.4-3.3l14.3-2.6l14.3-1.8l14.4-0.7l14.3,0.4l14.3,1.6l14.3,2.8l14.4,3.8l14.4,4.6l28.8,9.9l14.4,4.2l14.2,3l14.3,4.9
	l14.4,7.2l14.4,8.6l14.4,9.1l4.9,3l-4.9,1.2l-3.8,1.6l-10.1-3.8l-14.4-4.7l-14.5-3.4l-14.3-1.5l-14.3-0.2l-14.4-1.7l-14.3-2.8
	l-14.4-3.5l-28.8-7.5l-14.4-3.4l-14.4-2.9l-14.4-2.2l-14.4-1.5l-14.4-0.6l-14.4,0.2l-14.4,1l-14.4,1.8L1421,270l-14.4,1.8l-14.4,1.3
	l-14.4,0.9l-57.5,2.2l-28.8,1.5l-14.4,1l-14.4,1.3l-14.4,1.5l-43.1,5.5l-14.4,1.5l-14.4,1.2l-14.4,0.9l-14.4,0.6l-14.4,0.4l-100.6,1
	l-28.8,0.8l-172.5,2.1l-843,0.3v1.1l785.5,0l201.3-1.9l57.6-1.3l86.3-0.8l28.8-0.7l14.4-0.6l14.4-0.9l14.4-1.2l14.4-1.5l28.8-3.8
	l14.4-1.7l14.4-1.5l14.4-1.3l14.4-1l14.4-0.8l71.9-2.8l14.4-0.9l14.4-1.3l14.4-1.8l28.7-5.1l14.3-1.8l14.3-1l14.3-0.2l14.3,0.6
	l14.3,1.5l14.3,2.2l14.4,2.9l14.4,3.4l28.8,7.5l14.4,3.5l14.4,2.8l14.4,1.7l14.3,0.2l14.2,1.5l14.4,3.3l14.4,4.6l9,3.4l-7.3,3
	l-1.8,0.5l-14.2,0.8l-14.4,1.9l-14.4,3l-14.3,3.4l-14.3,1.8l-14.3,0.2l-14.3-1.1l-14.4-2.2l-14.4-3l-14.4-3.6l-28.8-7.9l-14.4-3.8
	L1493,292l-14.4-2.5l-14.4-1.5l-14.4-0.3l-14.4,1.1l-14.3,1.6l-14.3,0.6l-14.4-0.1l-43.1-1.5l-14.4-0.2l-14.4,0.1l-14.4,0.5l-14.4,1
	l-14.4,1.4l-14.4,1.8l-14.4,2.1l-28.8,4.9l-14.4,2.2l-14.4,1.5l-14.4,0.9l-14.4,0.5l-14.4,0.1l-57.5-1l-28.8-0.3l-14.4,0.1
	l-14.4,0.3l-43.1,2l-14.4,0.5l-28.8,0.5l-958,1.6v1.1l771.1,0l201.3-1.8l28.8-0.8l28.8-1.5l14.4-0.6l14.4-0.3l14.4-0.1l14.4,0.1
	l43.1,0.8l28.8,0.4l14.4-0.1l14.4-0.5l14.4-0.9l14.4-1.5l43.2-7.1l14.4-2.1l14.4-1.8l14.4-1.4l14.4-1l14.4-0.5l14.4-0.1l14.4,0.2
	l43.2,1.5l14.4,0.1l14.4-0.6l14.3-1.6l14.3-1.1l14.3,0.3l14.3,1.5l14.4,2.5l14.4,3.3l43.1,11.6l14.4,3.6l14.4,3l14.4,2.2l14.4,1.1
	l14.4-0.2l14.4-1.8l14.4-3.4l14.3-3l14.3-1.9l2.5-0.1l10.5-0.7l-9.9,3.3l-3.3,1.3l-14.4,6.7l-14.4,7.3l-14.3,7l-14.3,5.5l-14.3,3.8
	l-14.3,2.1l-14.3,0.4l-14.3-1.1l-14.3-2.5l-14.4-3.6l-14.4-4.3l-28.8-9.4l-14.4-4.2l-14.4-3.3l-14.5-1.9l-14.3-0.1l-14.3,0.7
	l-14.3-0.6l-14.4-1.4l-28.8-3.5l-14.4-1.6l-14.4-1.2l-14.4-0.6H1306l-14.4,0.6l-14.4,1.2l-14.4,1.8l-14.4,2.2l-28.8,5.2l-14.3,2.3
	l-14.4,1.4l-14.4,0.7l-14.4,0.2l-14.4-0.2l-43.1-1.4l-28.8-0.6l-14.4,0l-14.4,0.2l-14.4,0.5l-43.1,2.5l-14.4,0.6l-28.7,0.6l-958,0.4
	v1.1l871.8-0.5l57.5,0.2l28.8-0.1l28.8-0.6l14.4-0.6l28.8-1.8l14.4-0.7l14.4-0.5l14.4-0.2l14.4,0l71.9,2.1l14.4,0.2l14.4-0.2
	l14.4-0.7l14.4-1.4l14.4-2.3l28.7-5.2l14.4-2.2l14.4-1.8l14.4-1.2l14.3-0.6h14.4l14.3,0.6l14.4,1.1l43.1,5.1l14.4,1.4l14.4,0.6
	l14.3-0.7l14.2,0.1l14.4,1.9l14.4,3.3l14.4,4.2l28.8,9.4l14.4,4.3l14.4,3.6l14.4,2.5l14.4,1.1l14.5-0.4l14.4-2.1l14.4-3.9l14.4-5.5
	l14.4-7l14.4-7.3l0.2-0.1c0,0,16.7-8.2,20.5-8.9l-19.3,11.3l-1.9,1.2l-14.4,9.3l-14.3,8.9l-14.3,7.9l-14.3,6.5l-14.3,4.8l-14.2,3.1
	l-14.4,1.3l-14.3-0.4l-14.3-1.8l-14.4-3l-14.4-3.8l-28.8-8.2l-14.4-3.4l-14.4-2.3l-14.4-0.5l-14.3,0.1l-14.3-1.4l-14.4-2.4
	l-28.8-5.7l-14.4-2.7l-14.4-2.2l-14.4-1.6l-14.4-0.9l-14.4-0.1l-14.4,0.6l-14.4,1.3l-14.4,1.9l-14.4,2.3l-14.4,2.6l-14.3,2.2
	l-14.4,1.3l-14.4,0.6l-14.4,0l-14.4-0.3l-43.1-1.8l-28.8-0.8l-14.4-0.1l-14.4,0.2l-14.4,0.4l-43.2,2.4l-14.4,0.6l-14.4,0.3
	l-972.4-0.4v1.1l843-0.2l115,0.8l28.8-0.4l14.4-0.6l28.8-1.7l14.4-0.7l14.4-0.4l14.4-0.2l14.4,0.1l14.4,0.3l57.5,2.3l14.4,0.3
	l14.4,0l14.4-0.6l14.4-1.3l14.4-2.2l14.4-2.6l14.4-2.3l14.4-1.9l14.3-1.3l14.3-0.6l14.4,0.1l14.4,0.9l14.3,1.6l14.4,2.2l43.1,8.4
	l14.4,2.4l14.4,1.4l14.4-0.1l14.2,0.5l14.4,2.3l14.4,3.4l28.8,8.2l14.4,3.8l14.4,3l14.4,1.8l14.5,0.4l14.4-1.3l14.3-3.1l14.4-4.9
	l14.4-6.5l14.4-7.9l14.4-8.9l14.4-9.3l14.4-8.8l14.3-7.7l14.4-5.9l13.5-3.4l15.3-1.3l13.9,1.5l8.3,2.4h0.1l6,1.7l14.4,6.5l14.4,8.4
	l14.4,9.6l14.4,9.9l14.5,9l14.2,6.5l14.7,2.9l14.7-0.9l14.4-3.6l14.3-5.4l14.4-6.7l28.7-14.2l14.4-6.4l14.3-5.2l1.3-0.3v-1.1
	l-1.6,0.4l-14.4,5.3l-14.4,6.4l-28.8,14.2l-14.4,6.6l-14.2,5.4l-14.2,3.6l-14.4,0.9l-14.2-2.7l-14.2-6.5l-14.4-9l-2.1-1.4
	l-19.3-12.9l20.6,10.6l14.8,6.6l14.2,4.3l14.7,1.2l14.6-2.4l14.3-5l14.4-6.9l43.1-24.6l14.4-7.4l14.3-6.2l1.3-0.4v-1.1l-1.7,0.5
	l-14.4,6.2l-14.4,7.4l-28.8,16.6l-14.3,8l-14.3,6.9l-14.2,5l-14.4,2.4l-14.3-1.1l-13.3-4.1l-9.7-4.1l10.1,1.5l12.9,0.2l14.5-2.1
	l14.4-5.1l14.4-7.3l14.4-8.8l28.7-18.9l14.4-8.9l14.4-7.9l14.3-6.4l1.3-0.4v-1.1l-1.7,0.5l-14.4,6.5l-14.4,7.9l-14.4,8.9l-28.7,18.9
	l-14.3,8.8l-14.2,7.3l-14.2,5l-14.3,2.1l-14.4-0.3l-10.8-1.5l-4.4-2l15.1-2.6l14.4-3.9l14.4-5.4l14.4-7.4l14.4-8.8l28.8-19l14.4-9
	l14.3-8l14.4-6.7l14.2-5.1l1.3-0.3V253l-1.6,0.4l-14.4,5.2l-14.4,6.7l-14.4,8.1l-14.4,9l-28.7,19l-14.3,8.8l-14.3,7.3l-14.3,5.3
	l-14.3,3.9l-14.3,2.5l-2.5,0.2l-10.6-5.4l13.4-3.9l14.4-5.9l14.4-7.1l14.4-7.7l14.4-8.4l14.4-8.7l14.4-8.5l14.3-7.8l14.3-6.7
	l14.3-5.4l14.3-4l14.4-2.5l1.3-0.1v-3.1l-1.4-0.2l-14.4-0.6L1953,244l-14.4,2l-14.4,3.4l-14.4,4.8l-14.4,6.1l-14.4,7.2l-14.4,8
	l-14.4,8.6l-14.4,8.9l-14.3,8.2l-14.2,6.6l-14.3,4.5l-4.9,0.7l-9.3-5.4l-15.5-7l15.5-2.6l14.4-5l14.3-7.3l14.4-9l28.7-19.7l14.3-8.5
	l14.3-6.8l14.3-5l14.3-3.3l14.3-1.6l14.3-0.1l14.3,1.3l14.4,2.4l14.3,3.1l1.6,0.4v-1.1l-1.3-0.3l-14.4-3.2l-14.4-2.4l-14.4-1.3
	l-14.4,0.1l-14.4,1.6l-14.4,3.3l-14.4,5.1l-14.4,6.8l-14.4,8.5l-28.7,19.7l-14.3,9l-14.2,7.2l-14.3,5l-14.3,2.4l-6.1-0.1l-8.5-2.4
	l-14.5-1.5l-2.1,0.2l-11.9-4.2l-11.6-5.5l-12.9-5.6l-14.9-9.1l22.8,10.8l5.9,1.4l10.4,2.8l14.5,1.9l14.5-0.6l14.5-3.2l14.4-5.8
	l14.3-8.1l14.4-10L1824,249l14.4-11.4l14.3-10.5l14.2-8.3l14.3-5.8l14.3-3.5l14.3-1.4l14.4,0.4l14.3,2l14.3,3.2l14.4,4.1l16,5.1
	v-1.1l-15.7-5l-14.4-4.1l-14.4-3.3l-14.4-2l-14.5-0.4l-14.5,1.5l-14.5,3.6l-14.4,5.9l-14.3,8.3l-14.4,10.5l-14.4,11.4l-14.4,11.1
	l-14.3,9.9l-14.2,8l-14.3,5.7l-14.3,3.2l-14.3,0.6l-11.6-1.5l-3-0.5l-16.2-4l-27.2-12.6l14.1,6.2l14.7,5.3l13.7,2.6l4,0.4l11.4,0.5
	l14.5-2.1l14.4-4.9l14.4-7.6l14.3-10l14.4-11.8l28.7-25.5l14.2-11.3l14.2-8.4l14.3-5.2l14.3-2.4l14.3,0.1l14.4,2.3l14.3,3.9
	l14.4,5.2l28.8,12l1.7,0.7v-1.5l-30-16.5l-14.4-7.2l-14.5-5.9l-14.5-3.8l-14.3-1.3l-14.3,1.8l-14.5,5.5l-14.8,9.8l-14.3,12.7
	l-14.4,14l-14.3,13.6l-14.3,11.9l-14.2,9.3l-14.4,6.2l-14.2,2.6l-14.2-1l-14.1-4.3l-14.4-7.1l-14.4-9.5l-28.8-21.8l-14.4-10
	l-14.3-8.9l-14.4-10.4l-14.4-11l-14.4-10.7l-14.4-9.7l-14.4-8.1l-14.5-6.2l-14.5-4.1l-14.5-2l-14.3-0.1l-14.4,1.6l-14.4,2.9
	L1478.1,149L1478.1,149z M1809.7,308.7l14.3-6.7l14.4-8.2l14.4-8.9l14.4-8.6l14.4-8l14.3-7.1l14.3-6l14.3-4.8l14.3-3.4l14.3-1.9
	l14.3-0.6l7.5,0.3l0.2,2.7l-7.8,1.4l-14.4,4l-14.4,5.5l-14.4,6.8l-14.4,7.8l-14.4,8.5l-14.4,8.7l-14.4,8.4l-14.4,7.7l-14.3,7.1
	l-14.3,5.9l-14.4,4.2l-12.9-6.6l-3.8-2.5L1809.7,308.7L1809.7,308.7z M1715.9,288.8l7,3.3l3.8,1.3l7.4,2.3l-7.7,0.3l-3.5,0.3
	l-8.2-5.2l-15.4-9.8L1715.9,288.8L1715.9,288.8z M1816,234.2l21.1-20.6l15.7-14l14.7-9.7l13.3-4.8l14.8-2.1l14.1,1.2l14.3,3.8
	l2.2,0.9l-1,2.5l-0.9-0.3l-14.5-3.7l-14.3-1.3l-14.5,1.7l-14.2,5.3l-14.6,9.3l-13.7,11.7L1817,234l-7,5.4L1816,234.2L1816,234.2z"/>
<path class="st0" d="M1955,39.4l-10.4-0.9l-17,0.1l17.2-1.8l8.2,0.3l14.5,2.3l15.7,4.7l0.1,0.1v-1l-1.3-0.5l-14.3-4.2l-0.2,0
	l-14.5-2.4l-7.4-0.2l-12.3,1.1l-16.9,2.6l7.9-2.7l21.2-3.7l7.3-0.4l14.3,1.6l14.4,3.9l1.6,0.7v-1.2l-1.2-0.5l-14.7-4l-14.5-1.6
	l-14.5,0.9l-14.4,3.4l-8.3,3.3l-2,0.5l-3.9,0.5l-14.4,3.2l-14.4,4.6l-14.4,5.8l-14.4,7l-14.4,8.8l-28.8,19.6l-14.4,9.2l-14.3,7.9
	l-14.3,6.4l-14.2,4.5l-2.7,0.5l-11.5-0.9l-14.4-3.2l-14.3-4.8l-12.2-5.2l-16.4-11.3l-14.4-9.2l-14.6-7.2l-14.5-4l-14.4-1.1
	l-14.3,1.1l-14.4,2.7l-14.4,3.6l-28.7,8.3l-14.4,3.8l-14.3,3.2l-14.3,2.3l-14.3,1.2l-14.3,0l-14.3-1.3l-14.3-2.7l-14.3-4.1
	l-14.3-5.6l-28.8-13.4l-14.4-5.9l-14.4-4.7l-14.5-3.1l-14.4-1.2l-14.4,0.5l-14.4,2.2l-14.4,3.5l-14.4,4.6l-28.8,10.4l-14.4,4.9
	l-14.3,4l-14.3,2.8l-14.3,1.6l-14.3,0.8l-14.4,0.1l-14.4-0.4l-57.5-3.3l-14.4-0.6l-14.4-0.4l-14.4,0l-14.4,0.3l-14.4,0.6L961,91.1
	l-14.4,0.8l-14.4,0.4l-14.4,0.1l-14.4-0.2l-71.9-2.9l-28.8-0.7l-814.3-0.2v1.1l771.1-0.1l43.1,0.3l28.7,0.7l43.1,1.9l28.8,1.1
	l14.4,0.2l14.4-0.1l14.4-0.4l14.4-0.8l43.1-3.7l14.4-1l14.4-0.6l14.4-0.3l14.4,0L1076,87l71.9,4l14.4,0.4l14.4-0.1l14.4-0.8
	l14.4-1.7l14.4-2.8l14.4-4l14.4-4.9l28.7-10.4l14.3-4.6l14.3-3.5l14.3-2.2l14.2-0.5l14.3,1.2l14.4,3l14.3,4.7l14.3,5.9l28.8,13.4
	l14.4,5.6l14.4,4.1l14.4,2.7l14.4,1.3l14.4,0l14.4-1.2l14.4-2.3l14.4-3.2l14.4-3.8l28.7-8.3l14.3-3.6l14.3-2.6l14.2-1.1l14.2,1.1
	l14.3,4l14.5,7.2l13.4,8.5l15.2,10.2l-16.5-7.8l-11.7-5.1l-14.5-5.1l-14.5-2.8l-14.4-0.4l-14.3,1.5l-14.4,2.8l-14.4,3.6l-28.7,7.8
	l-14.4,3.5l-14.4,2.9l-14.3,2.1L1493,107l-14.3,0.1l-14.3-1.1l-14.3-2.2l-14.3-3.4l-14.3-4.7l-28.8-11.3l-14.4-5l-14.4-4.1
	l-14.4-2.7l-14.4-1.2l-14.4,0.3l-14.4,1.7l-14.4,2.9l-14.4,3.8l-28.8,8.8l-14.3,4.2l-14.3,3.5l-14.4,2.6l-14.4,2l-14.4,1.4
	l-14.4,0.8l-14.4,0.4h-14.4l-14.4-0.3l-43.1-1.4l-28.8-0.6l-14.4,0l-14.4,0.2l-14.4,0.5l-43.1,2.5l-14.4,0.6l-14.4,0.3l-14.4,0.1
	l-14.4-0.2l-71.9-2.4l-28.8-0.7l-814.3-0.3v1.1l756.7,0l28.8,0l43.1,0.6l71.9,2.4l28.8,0.5l14.4-0.1l14.4-0.3l57.5-3.1l14.4-0.5
	l14.4-0.2l14.4,0l14.4,0.2l43.1,1.4l28.8,0.7h14.4l14.4-0.4l14.4-0.8l14.4-1.4l14.4-2l14.4-2.7l14.4-3.5l43.1-13l14.3-3.8l14.3-2.9
	l14.3-1.7l14.3-0.3l14.3,1.2l14.3,2.7l14.3,4l14.3,5l28.8,11.3l14.4,4.7l14.4,3.4l14.4,2.3l14.4,1.1l14.4-0.1l14.4-1.1l14.4-2.1
	l14.4-2.9l14.4-3.5l28.7-7.8l14.4-3.6l14.3-2.8l14.2-1.5l14.3,0.3l14.3,2.8l14.4,5l14.4,6.2l14.4,6.6l14.4,6.1l14.4,4.9l12.3,2.7
	l2.2,0.5l9.3,0.6l-9.2,1.4l-2.5,0.2l-11.9,0.7l-14.3-0.8l-14.3-2.2l-14.3-3.1l-28.8-6.9l-14.4-2.4l-14.4-0.9l-14.4,0.3l-14.4,1.2
	l-57.5,7.8l-14.4,1.6l-14.4,1.1L1493,117l-14.4-0.1l-14.3-0.8l-14.4-1.5l-14.3-2.2l-14.4-3.2l-28.8-8.4l-14.4-3.9l-14.4-3.2
	l-14.4-2.2l-14.4-1.1l-14.4,0l-14.4,1.1l-14.4,2l-14.4,2.8l-43.1,10l-14.4,2.9l-28.7,4.9l-14.4,2l-14.4,1.6l-14.4,1.2l-14.4,0.8
	l-14.4,0.3h-14.4l-14.4-0.3l-43.1-1.7l-28.8-0.9l-14.4-0.2l-14.4,0.1l-43.1,1l-28.7,0.3l-14.4-0.1l-100.6-2L-11.5,116v1.1h742.4
	l43.1,0.1l115,2.2l28.8,0.2l14.4-0.1l57.5-1.2l14.4-0.1l14.4,0.2l71.9,2.6l14.4,0.3h14.4l14.4-0.3l14.4-0.8l14.4-1.2l14.4-1.7
	l14.4-2.1l28.8-4.9l14.4-2.9l43.1-9.9l14.3-2.8l14.3-2l14.4-1.1l14.3,0l14.3,1.1l14.3,2.2l14.4,3.2l14.3,3.9l28.8,8.4l14.4,3.2
	l14.4,2.2l14.4,1.5l14.4,0.8l14.4,0.1l14.4-0.6l14.4-1.2l14.4-1.6l43.1-6l14.3-1.7l14.3-1.2l14.3-0.3l14.3,0.9l14.4,2.4l28.8,6.9
	l14.4,3.1l14.4,2.2l14.4,0.8l14.5-0.8l11.9-2.2l0-0.1l9.9-2.7l7-2.2l14.4-6.4l14.4-8l14.4-9.2l9.8-6.7c0,0,18.3-12.4,18.7-12.6
	c0.3-0.2,14.1-8.6,14.1-8.6l14.6-7.3l14.6-6.1l14.4-4.6l14.3-3.2l14.3-1.7l14.3-0.2l14.3,1.2l14.4,2.5l14.3,3.6l1.6,0.5v-1.1
	l-15.9-4.2L1955,39.4L1955,39.4z"/>
<path class="st0" d="M1852.5,63l-14.1,9.1L1821,85.5l-26.4,21.6l-14.4,10.8l-14.3,9.4l-14.3,7.6l-14.2,5.7l-14.3,3.6l-14.3,1.7
	l-14.4-0.1l-14.3-1.6l-14.4-2.7l-28.8-6.6l-14.4-2.7l-14.4-2.2l-14.4-1.6l-14.4-1.1l-14.4-0.6l-14.4-0.2l-14.4,0.2l-57.5,1.9
	l-14.4,0.2l-14.4-0.2l-14.3-0.7l-14.3-1.6l-14.4-2.6l-28.8-6.1l-14.4-2.8l-14.4-2.3l-14.4-1.6l-14.4-0.8H1306l-14.4,0.7l-14.4,1.4
	l-14.4,1.9l-14.4,2.2l-43.1,7.1l-28.8,5.5l-14.4,2.4l-14.3,1.9l-14.3,1.4l-14.4,0.8l-14.4,0.3l-14.4-0.2l-14.4-0.5l-43.1-2.8
	l-28.8-1.6l-14.4-0.4l-14.4-0.1L874.7,131l-71.9-0.7l-814.3-0.5v1.1l886.1,1.2l100.7-0.8l14.4,0.1l14.4,0.4l71.9,4.4l14.4,0.6
	l14.4,0.2l14.4-0.3l14.4-0.8l14.4-1.4l14.4-1.9l14.4-2.4l28.8-5.5l14.4-2.5l43.1-6.9l14.4-1.9l14.4-1.4l14.3-0.7l14.4,0l14.3,0.8
	l14.3,1.6l14.4,2.2l14.4,2.8l28.8,6.1l14.4,2.6l14.4,1.6l14.4,0.7l14.4,0.2l14.4-0.2l57.5-1.9l14.4-0.2l14.3,0.2l14.4,0.6l14.3,1
	l14.4,1.6l14.4,2.2l14.4,2.7l28.8,6.6l14.4,2.7l14.4,1.6l14.5,0.1l14.5-1.7l14.4-3.7l14.3-5.7l14.4-7.7l14.4-9.4l14.4-10.8
	l28.8-23.5l14.3-11.1l14.2-9.3l14.4-6.6l14.3-4.7l14.3-3.2l14.3-1.7l14.3-0.3l14.3,0.9l14.4,1.9l14.4,2.7l15.9,3.7v-1.1l-15.7-3.6
	l-14.5-2.7l-14.4-1.9l-14.4-0.9l-14.4,0.3l-14.4,1.7l-13.4,3l-14.7,4.8L1852.5,63z"/>
</svg>
