<svg width="238" height="237" viewBox="0 0 238 238" fill="#666" xmlns="http://www.w3.org/2000/svg">
<path d="M57.7,162v-0.9h4.4v0.9 M57.7,158v-0.9H62v0.9 M57.7,164v-0.9h4.4v0.9 M57,160v-0.9h5.6v0.9 M58.6,169.3h2.4
	v-3.2h-2.4 M57.6,165.1h4.4v5.1h-4.4 M62.9,158.5v-0.9h7.5v0.9 M63.3,160.2v-0.8h6.9v0.8 M62.5,162v-0.9h3.6v-4.6h1.1v4.6h3.6v0.9
	 M63.6,162.9h6.2v6.3c0,1.1-0.4,1.1-2.5,1.1l-0.3-0.9c1.6,0,1.7,0.1,1.7-0.2v-1.6h-4.1v2.8h-1.1 M68.8,166.7v-1.1h-4.1v1.1
	 M68.8,164.8v-1.1h-4.1v1.1 M77.7,164.2h8.7v1h-8.7V164.2z M81.3,169.3c2,0,2.2,0.1,2.2-0.3v-6.8h1.1v6.8c0,1.3-0.7,1.3-3,1.3
	L81.3,169.3z M82.9,156.9c-1.1,1.5-2.9,3-4.8,3.9l-0.7-0.7c1.9-0.8,3.6-2.2,4.4-3.5 M80.5,168.5l-1.8-2.3l0.9-0.5l1.8,2.2 M81,158.6
	c0.9,0.5,2,1.3,2.5,1.9l-0.6,0.6c-0.5-0.6-1.6-1.4-2.5-2 M79.3,159.8c0.9,0.6,1.9,1.4,2.4,2.1l-0.7,0.6c-0.5-0.6-1.5-1.5-2.4-2.1
	 M85.1,157.7L86,158c-1.3,3.3-4.5,5.1-7.7,6l-0.6-0.8c2.7-0.6,5.5-2.2,6.8-4.6l-3.9,0l0.5-0.8 M77.2,170.4h-1v-5.3h-1.7
	c0,1.3-0.2,3.8-1.1,5.3l-0.9-0.5c0.8-1.4,1-3.6,1-4.8h-0.8v-1h3.5v-2.2h-2.8v-4.7h1v3.6h1.8v-4.3h1 M96,163.4v1.3
	c1.1,2.5,3.4,4.2,6.4,4.8l-0.7,0.9c-3-0.7-5.2-2.5-6.4-5v0c-1.5,1.3-4,2.3-6.2,2.7l-0.6-0.8c2.2-0.4,5.2-1.5,6.4-2.7v-1.3
	 M101.3,166.3c-0.9,0.6-2.1,1.3-3.1,1.7l-0.7-0.6c0.9-0.4,2.2-1.2,3-1.8 M90.3,170.2l-0.2-1l6.7-0.9l0,0.9 M102.1,164.6v0.9H88.6
	v-0.9 M94.2,159.6v-1h7.8v1 M94.5,163.1v-1h2.9v-5.5h1.1v5.5h3v1 M93.5,164h-1.1v-2.5h-1.6c-0.2,1.3-0.6,2.2-1.8,2.8l-0.6-0.7
	c0.9-0.4,1.3-1.1,1.4-2.1h-1.1v-0.9h3.8v-1.1h-3v-2.7h1v1.8h2v-2h1.1 M93,166.5v3H92v-2.7 M115.9,159.4V158h-2.5v1.4 M112.3,159.4
	V158h-2.5v1.4 M108.8,159.4V158h-2.4v1.4 M117,157.2v3h-11.7v-3 M104.7,161.9V161h13v0.9 M105.5,169.8V163h1.1v5.8H118v0.9
	 M115.3,165.8V165h-6.1v0.8 M115.3,167.3v-0.9h-6.1v0.9 M115.3,164.3v-0.8h-6.1v0.8 M108.1,168v-5.2h8.2v5.2 M111.4,163.1h-1.1
	l0.5-3.2l1.1,0.1 M126.3,158.6v-0.9h7.3v0.9 M126.1,167v-0.9h7.7v0.9 M130.4,164.7h-1v-8.1h1 M132.3,162.6v-0.9h-4.7v0.9 M132.3,161
	v-0.9h-4.7v0.9 M126.6,163.3v-3.9h6.6v3.9 M132.9,164.2l0,0.8l-6.7,0.2l-0.1-0.9 M132,169.3c0,1.1-0.7,1.1-2.6,1.1l-0.3-0.9
	c1.8,0,1.9,0.1,1.9-0.2v-4h1.1 M128.4,169.4c-0.3-0.5-0.8-1.3-1.4-1.8l0.8-0.5c0.6,0.5,1.2,1.2,1.5,1.8 M133.1,165.7
	c-0.3-0.6-1.1-1.5-1.8-2.1l0.8-0.4c0.7,0.6,1.4,1.4,1.8,2 M120.1,159.2v-1h5.8v1 M120,167.8v-1h6.2v1 M123.6,170.4h-1v-13.8h1
	 M124.9,164.7v-1.4h-3.6v1.4 M124.9,162.5v-1.3h-3.6v1.3 M120.5,165.5v-5.2h5.3v5.2 M136.3,158.6v-1.1h12.8v1.1 M137.3,165.9v-1.1
	h10.8v1.1 M135.9,169.8v-1.1h6V163h1.2v5.7h6.2v1.1 M136.6,162.7l0-1.1l10.8-0.3l-0.1,1 M141.9,158.4c-0.7,1.3-1.5,2.9-2.2,3.8
	l-1-0.4c0.7-1,1.5-2.7,2-3.9 M148.2,163.4c-0.8-1.1-2.6-2.7-4.2-3.8l0.9-0.6c1.5,1,3.4,2.6,4.2,3.7 M151.8,159v-1H165v1
	 M152.6,160.7h1.1v7.9h11.4v1.1h-12.5V160.7z M162.2,164.4v-1.2h-5.7v1.2 M162.2,166.4v-1.2h-5.7v1.2 M162.2,162.3v-1.2h-5.7v1.2
	 M155.4,167.3v-7h7.9v7 M158.7,160.7l-1.1-0.1l0.4-4.1l1.3,0.1 M179.4,159.2c-0.4-0.5-1.4-1.3-2.1-1.9l0.8-0.6
	c0.8,0.5,1.7,1.3,2.2,1.8 M167.5,160.5v-1.1h13.4v1.1 M167.9,169.9l-0.3-1.1l3.2-0.6v-4.4H168v-1.1h6.6v1.1h-2.8v4.2l3.2-0.7l0.1,1
	 M176.3,156.6c0,7,1.3,12.6,3.1,12.6c0.4,0,0.6-0.8,0.7-2.8l1,0.6c-0.2,2.6-0.6,3.4-1.8,3.4c-3,0-4.2-6.5-4.3-13.8 M70.8,195.2v0.9
	h-7.8v-0.9 M68.9,192.7v-1.3H65v1.3 M64.1,193.4v-2.8h5.8v2.8 M69.3,187.5v-1h-4.6v1 M69.3,185.8v-1h-4.6v1 M70.2,184v4.4h-6.4V184
	 M65.6,193.5c0.3,0.5,0.6,1.2,0.7,1.7l-0.9,0.3c-0.1-0.5-0.3-1.2-0.6-1.8 M69.2,193.7l-0.9,1.8l-0.7-0.3l0.7-1.8 M62,192.9h-2.9
	v-1.1H62 M62,191h-2.9v-1.1h2.3v5.4c0,0.2-0.1,0.2-1.3,0.2l0.3,0.9c1.3,0,2,0,2-1.1v-7.2h-4.2v8.3h1v-2.7H62 M59.8,188v-3.1h1.7v-1
	H59v4 M61.5,188v-2.3h-1v2.3 M58.2,188v-4.9h4.2v4.9 M57.3,189.1v-1.8h6v2.6h7.4v-0.8 M66.4,188h-0.7v-4h-0.2v-1.4h0.9 M67.5,182.6
	h0.9v1.4h-0.2v4h-0.7 M80.4,187.1v-0.9h4.1v0.9 M81.3,190.7v-1.9h-1.4v1.9 M79.1,191.5V188h3v3.5 M85.1,190.7v-1.9h-1.5v1.9
	 M82.9,191.5V188H86v3.5 M78.2,195.8c1.2-0.8,1.8-2.2,2-3.9l1,0.1c-0.3,2-1,3.5-2.3,4.5 M84,191.9l1,0.1c-0.3,2-1,3.5-2.3,4.5
	c-0.6-0.8-1.6-1.7-2.6-2.6l0.6-0.6c0.6,0.5,1.5,1.3,1.9,1.8C83.4,194.2,83.8,193.2,84,191.9z M85.9,196.4c-0.4-0.7-1.4-1.7-2.1-2.5
	l0.7-0.5c0.8,0.7,1.7,1.8,2.2,2.4 M82.9,182.6c0.9,1.5,2.5,3,3.9,3.8l-0.6,1c-1.4-0.9-2.9-2.4-3.8-3.7c-0.8,1.3-2.2,2.9-3.7,3.8
	l-0.6-0.9c1.5-0.9,3-2.5,3.7-3.9 M76.6,191.6c0.4,0.6,0.8,1.4,0.9,1.9l-0.5,0.2c-0.2-0.5-0.5-1.4-0.9-2 M75.7,191.8
	c0.3,0.8,0.6,1.8,0.6,2.4l-0.6,0.1c-0.1-0.7-0.3-1.7-0.6-2.4 M74.8,192c0.2,0.9,0.2,2,0.2,2.7l-0.6,0.1c0-0.7,0-1.8-0.2-2.7 M74,192
	c-0.1,1.3-0.2,2.8-0.8,3.6l-0.6-0.4c0.5-0.8,0.7-2.1,0.7-3.3 M73.4,183.2h5v0.9h-1.9v6.4h-0.9v-6.4h-1.3v1.4h3.8v0.9h-3.8v1.4h3.8
	v0.9h-3.8v1.4h4.2c-0.3,6.7-0.1,6.3-2.7,6.3l-0.2-0.9c2,0.2,1.7,0.4,2-4.6h-4.2 M99.2,186.7v-1.1h-7.5v1.1 M99.2,184.9v-1h-7.5v1
	 M90.5,187.5V183h9.7v4.5 M101.6,196.4c-2.6-0.8-4.6-2.6-5.6-5l0.9-0.3c0.9,2.1,2.8,3.8,5.3,4.4 M101.5,190.5c-1,3-3.4,4.9-6,5.8
	l-0.6-0.9c2.2-0.6,4.3-2.1,5.2-4.3h-4.7v-0.9h5.2L101.5,190.5z M102,188.4v0.9h-7.1v7.1h-1.1v-1.5l-5.1,0.6l-0.1-1l5.2-0.5v-0.9
	h-3.1v-0.8h3.1v-1.1h-3.1v-0.8h3.1v-1h-2.7v5.5h-1v-5.5h-1.3v-0.9 M104.2,188.6c1.4-1.5,2.6-3.7,3.4-6l1.1,0.3
	c-0.9,2.5-2.3,5.1-3.8,6.8 M107.2,196.4h-1.1v-9.8l1.1-1.1 M109.3,185.6v-1h7.8v1 M109,192.2v-1.1h8.4v1.1 M108.5,188.8v-1.1h4v-5.2
	h1.1v5.2h4.1v1.1 M108,195.8v-1.1h4.5v-5.3h1.1v5.3h4.4v1.1 M122.4,185.2c-0.4-0.5-1.3-1.2-2.1-1.7l0.7-0.7c0.8,0.4,1.7,1.1,2.1,1.6
	 M122.1,189.1c-0.4-0.5-1.4-1.2-2.2-1.6l0.6-0.8c0.8,0.4,1.7,1,2.2,1.5 M120.1,195.6c0.5-1.2,1.2-3.1,1.8-4.8l0.9,0.5
	c-0.4,1.6-1.1,3.4-1.7,4.8 M123.5,192.8v-0.8h5.6v0.8 M123.2,196.2l-0.2-0.9l6.4-0.6v0.8 M124.6,193c0.3,0.5,0.5,1.2,0.6,1.6
	l-0.8,0.2c-0.1-0.4-0.3-1.1-0.5-1.6 M128.8,193.1c-0.3,0.6-0.6,1.1-0.8,1.5l-0.6-0.2c0.2-0.4,0.5-1.1,0.7-1.6 M129.6,183.2
	c-0.1,4.6,0,4.9-2,4.7l-0.2-0.8c1.5,0.1,1.3,0.4,1.4-3.1h-2.5v-0.8 M125.6,184.8c0.5,0.6,0.9,1.5,1.1,2.1l-0.7,0.3
	c-0.2-0.6-0.6-1.5-1-2.1 M131,192.9H130v-8.4h0.9 M125.8,191h-1.4v-0.8h3.8v0.8h-1.5v4.4h-0.9 M133.3,195c0,1.1-0.4,1.3-2.7,1.3
	l-0.3-1.1c1.9,0,2,0.1,2-0.3v-12.3h1 M123,187.9l-0.3-0.9l0.6-0.2v-3.6l0.7,0.2l1.6-0.9l0.6,0.6l-2.1,1.1v2.3l1.8-0.6l0.1,0.7
	 M125.1,187.7c1.4-0.8,1.8-2.1,2-4h0.8c-0.2,2.2-0.6,3.7-2.2,4.6L125.1,187.7z M122.7,190.7c1.4-0.8,2.5-1.9,3.1-2.8h0.9
	c1,0.7,2.2,1.6,2.9,2.3l-0.6,0.7c-0.6-0.6-1.6-1.6-2.6-2.2c-0.7,0.8-1.7,1.8-3,2.6 M146.1,191.8v-0.7h-7v0.7 M146.1,193.2v-0.7h-7
	v0.7 M146.1,190.4v-0.7h-7v0.7 M147.2,189v4.8h-2.6v1.1c0,0.4,0,0.4,2,0.4c1.8,0,1.8,0.2,1.9-1.4l1,0.4c-0.3,1.9-0.3,1.9-2.8,1.9
	c-2.5,0-3.1,0.1-3.1-1.3v-1.1H138V189 M135.7,195.5c3.2-0.2,4.2-0.7,4.6-2h1.1c-0.4,1.8-1.7,2.5-5.2,2.9 M144.1,185.3v-0.7h4.5v0.7
	 M144,183.8l0.9-0.8h4.5v0.8 M141.1,186.1v-0.8h-3.6v0.8 M148.2,186.6h-1v1.3h1 M145.6,187.8h1v-1.3h-1 M145,186.6h-0.9v1.3h0.9
	 M149.1,188.5h-5.8v-2.6h5.8 M142.2,185.1c0.9-0.7,1.5-1.7,1.8-2.5l1,0.2c-0.4,1.1-1,2.1-2,3 M139,184.5v-0.7h-1.6v0.7 M136.5,183.1
	h6v0.7h-2.5v0.7h2.1v2.2h-2.1v0.9h2.6v0.7h-6.1 M139,187.7v-0.9h-1.6v0.9 M163.3,188.7c-0.7,8.5-0.7,7.7-5.1,7.6l-0.4-1.1
	c3.9,0.2,3.6,0.8,4.2-5.4h-5.5v-1.1 M151.5,195.5c4.4-2,4.6-6.2,4.8-9.8h1.2c-0.2,4-0.7,8.5-5.2,10.7 M151.7,186.2v-1.1h6.1v-2.6
	h1.2v2.6h6.2v1.1 M178,182.7c0.8,0.5,1.7,1.3,2.2,1.8l-0.8,0.7c-0.4-0.5-1.4-1.3-2.1-1.9 M167.5,186.5v-1.1h13.4v1.1 M174.6,188.7
	v1.1h-2.8v4.8h-1.1v-4.8H168v-1.1 M167.9,195.9l-0.3-1.1l7.5-1.5l0.1,1 M181.1,193c-0.2,2.6-0.6,3.4-1.8,3.4c-3,0-4.2-6.5-4.3-13.8
	h1.2c0,7,1.3,12.6,3.1,12.6c0.4,0,0.6-0.8,0.7-2.8"/>
<path fill="#C50000" d="M115,36.9c1.7,0,1.7-2.7,0-2.7C113.3,34.2,113.3,36.9,115,36.9z M119.5,39c1.7,0,1.7-2.7,0-2.7
	C117.7,36.3,117.7,39,119.5,39z M122.2,42.7c1.7,0,1.7-2.7,0-2.7C120.5,40,120.5,42.7,122.2,42.7z M123.1,47.2c1.7,0,1.7-2.7,0-2.7
	C121.4,44.5,121.4,47.1,123.1,47.2z M123.1,51.8c1.7,0,1.7-2.7,0-2.7C121.4,49.1,121.4,51.8,123.1,51.8z M118.7,47.2
	c1.7,0,1.7-2.7,0-2.7C117,44.5,117,47.1,118.7,47.2z M114.3,47.2c1.7,0,1.7-2.7,0-2.7C112.6,44.5,112.6,47.1,114.3,47.2z
	 M109.9,47.2c1.7,0,1.7-2.7,0-2.7C108.2,44.5,108.2,47.1,109.9,47.2z M105.5,47.2c1.7,0,1.7-2.7,0-2.7
	C103.8,44.5,103.8,47.1,105.5,47.2z M101.1,47.2c1.7,0,1.7-2.7,0-2.7C99.4,44.5,99.4,47.1,101.1,47.2z M96.7,47.2
	c1.7,0,1.7-2.7,0-2.7C95,44.5,95,47.1,96.7,47.2z M92.3,47.2c1.7,0,1.7-2.7,0-2.7C90.6,44.5,90.6,47.1,92.3,47.2z M88,47.2
	c1.7,0,1.7-2.7,0-2.7C86.2,44.5,86.2,47.1,88,47.2z M83.6,47.2c1.7,0,1.7-2.7,0-2.7C81.8,44.5,81.8,47.1,83.6,47.2z M79.2,47.2
	c1.7,0,1.7-2.7,0-2.7C77.4,44.5,77.4,47.1,79.2,47.2z M74.8,47.2c1.7,0,1.7-2.7,0-2.7C73,44.5,73,47.1,74.8,47.2z M109.9,36.5
	c1.7,0,1.7-2.7,0-2.7C108.2,33.8,108.2,36.5,109.9,36.5z M105.5,36.5c1.7,0,1.7-2.7,0-2.7C103.8,33.8,103.8,36.5,105.5,36.5z
	 M78.5,34.2c-1.7,0-1.7,2.7,0,2.7C80.2,36.9,80.2,34.2,78.5,34.2z M74,36.3c-1.7,0-1.7,2.7,0,2.7C75.7,39,75.8,36.3,74,36.3z
	 M71.3,40c-1.7,0-1.7,2.7,0,2.7C73,42.7,73,40,71.3,40z M101.1,36.5c1.7,0,1.7-2.7,0-2.7C99.4,33.8,99.4,36.5,101.1,36.5z
	 M96.7,36.5c1.7,0,1.7-2.7,0-2.7C95,33.8,95,36.5,96.7,36.5z M92.3,36.5c1.7,0,1.7-2.7,0-2.7C90.6,33.8,90.6,36.5,92.3,36.5z
	 M88,36.5c1.7,0,1.7-2.7,0-2.7C86.2,33.8,86.2,36.5,88,36.5z M83.6,36.5c1.7,0,1.7-2.7,0-2.7C81.8,33.8,81.8,36.5,83.6,36.5z
	 M123.1,56.4c1.7,0,1.7-2.7,0-2.7C121.4,53.7,121.4,56.4,123.1,56.4z M123.1,61c1.7,0,1.7-2.7,0-2.7C121.4,58.4,121.4,61,123.1,61z
	 M123.1,65.7c1.7,0,1.7-2.7,0-2.7C121.4,63,121.4,65.7,123.1,65.7z M123.1,70.3c1.7,0,1.7-2.7,0-2.7
	C121.4,67.6,121.4,70.3,123.1,70.3z M123.1,74.9c1.7,0,1.7-2.7,0-2.7C121.4,72.3,121.4,74.9,123.1,74.9z M123.1,79.6
	c1.7,0,1.7-2.7,0-2.7C121.4,76.9,121.4,79.6,123.1,79.6z M123.1,84.2c1.7,0,1.7-2.7,0-2.7C121.4,81.5,121.4,84.2,123.1,84.2z
	 M70.4,47.2c1.7,0,1.7-2.7,0-2.7C68.6,44.5,68.6,47.1,70.4,47.2z M70.4,51.8c1.7,0,1.7-2.7,0-2.7C68.6,49.1,68.6,51.8,70.4,51.8z
	 M70.4,56.4c1.7,0,1.7-2.7,0-2.7C68.6,53.7,68.6,56.4,70.4,56.4z M70.4,61c1.7,0,1.7-2.7,0-2.7C68.6,58.4,68.6,61,70.4,61z
	 M70.4,65.7c1.7,0,1.7-2.7,0-2.7C68.6,63,68.6,65.7,70.4,65.7z M70.4,70.3c1.7,0,1.7-2.7,0-2.7C68.6,67.6,68.6,70.3,70.4,70.3z
	 M70.4,74.9c1.7,0,1.7-2.7,0-2.7C68.6,72.3,68.6,74.9,70.4,74.9z M70.4,79.6c1.7,0,1.7-2.7,0-2.7C68.6,76.9,68.6,79.6,70.4,79.6z
	 M70.4,84.2c1.7,0,1.7-2.7,0-2.7C68.6,81.5,68.6,84.2,70.4,84.2z M70.4,88.4c1.7,0,1.7-2.7,0-2.7C68.6,85.8,68.6,88.4,70.4,88.4z
	 M80.7,140.5c-6.5,0-11.7-5.3-11.7-11.7v-32c0-1.4,0.2-2.7,0.7-3.9c-1.4-0.7-0.3-3,1.2-2.4c2.1-3.3,5.7-5.4,9.9-5.4h76.5
	c6.5,0,11.7,5.3,11.7,11.7v32c0,6.5-5.3,11.7-11.7,11.7 M155.9,137.8V87.7H88.6v50.1 M86,87.7h-5.2c-5,0-9.1,4.1-9.1,9.1v32
	c0,5,4.1,9.1,9.1,9.1H86 M158.6,137.7c4.4-0.7,7.7-4.4,7.7-9v-32c0-4.5-3.4-8.3-7.7-9 M82.8,112.8c0,5.3-8,5.3-8,0
	C74.9,107.5,82.8,107.5,82.8,112.8z M160.8,106v13.6c0,1.7,2.7,1.7,2.7,0V106C163.4,104.3,160.8,104.3,160.8,106z M128.9,42.3
	L128.9,42.3C128.9,42.3,128.9,42.3,128.9,42.3L128.9,42.3z M142.8,56.7l0.6-5.1c14.8,2.7,25.1,21.9,25.1,30.1
	c0-21.8-17.7-39.5-39.5-39.5"/>
</svg>
