<svg width="190" height="200" viewBox="0 0 190 200" fill="#231815" xmlns="http://www.w3.org/2000/svg">
<path d="M59.1,2.1C36.1,10,41.8,21.3,38,25.6C44.2,19.4,51.3,24.3,59.1,2.1z M49.2,78.7c-4.8,23.9,8.9,27.5,13.3,31.2c-2.4-3.3-0.9-11-3.3-17.7C57.3,86.9,52.3,84.5,49.2,78.7z M21.4,86.8c9,23.5,26.2,19.1,33.8,21.1C40.4,102.2,50.7,93.3,21.4,86.8zM38.4,110.6c13.4,15.5,29.6,9.5,36.6,7C66.7,117.6,64.7,105.2,38.4,110.6z M36.5,89.4c-5.4-5.2-0.9-14.8-20.4-34.3C14.2,84.8,30.5,84.9,36.5,89.4z M22.4,28.4C11.6,52.2,25,57.2,26.9,64.9C24.1,52.9,34.6,54.1,22.4,28.4z M28.6,39.9c1.7-10.1,9.1-6,8.7-29.4C19.7,27.5,29.3,33.1,28.6,39.9z M34.7,81.8c2.1-12.8,9-13.7,5-36.6C21.6,65.7,33.7,75,34.7,81.8zM42.5,65.3c-11.4,21.5-0.1,27.4,3.6,31.5C45.1,88.5,51.9,85.8,42.5,65.3z M44.8,24.7C23.4,37.5,31.7,49.5,30.2,53.9C34.3,47,41.8,46.6,44.8,24.7z M151.3,25.6c-3.8-4.3,1.9-15.6-21.1-23.5C138,24.3,145.1,19.4,151.3,25.6z M130.1,92.2c-2.4,6.7-0.9,14.4-3.3,17.7c4.4-3.7,18.1-7.3,13.3-31.2C137,84.5,132,86.9,130.1,92.2z M134.1,107.9c7.6-2,24.8,2.4,33.8-21.1C138.6,93.3,148.9,102.2,134.1,107.9z M114.3,117.6c7,2.5,23.2,8.5,36.6-7C124.6,105.2,122.6,117.6,114.3,117.6z M173.2,55.1c-19.5,19.5-15,29.1-20.4,34.3C158.8,84.9,175.1,84.8,173.2,55.1z M162.4,64.9c1.9-7.7,15.3-12.7,4.5-36.5C154.7,54.1,165.2,52.9,162.4,64.9z M106.2,135.8l4.4-1.8c-1.6-8.8-10.9-16.9-25.3-16.9c-5.6-0.1-3.9-4.9-8.7-11.8c-3.2-4.6-9.3-8.1-13.7-13.2c-1.1,8.2-1.4,13,3.1,18.4c4.2,5,9.8,7,18.9,7.7C104.4,119.4,104.8,129,106.2,135.8z M104.4,118.2c9.1-0.7,14.7-2.7,18.9-7.7c4.5-5.4,4.2-10.2,3.1-18.4c-4.4,5.1-10.5,8.6-13.7,13.2c-4.8,6.9-3.1,11.7-8.7,11.8c-13.4,0-23.3,7.7-25.3,16.9l4.4,1.8C84.6,128.6,84.9,119.8,104.4,118.2z M152,10.5c-0.4,23.4,7,19.3,8.7,29.4C160,33.1,169.6,27.5,152,10.5z M149.6,45.2c-4,22.9,2.9,23.8,5,36.6C155.6,75,167.7,65.7,149.6,45.2z M143.2,96.8c3.7-4.1,15-10,3.6-31.5C137.4,85.8,144.2,88.5,143.2,96.8z M159.1,53.9c-1.5-4.4,6.8-16.4-14.6-29.2C147.5,46.6,155,47,159.1,53.9zM63.2,14.7L53,25.6c6.3,7.6,8.3,20,6.1,30.6c-2.1,9.9-6.6,20.9,4.2,31.1c9.3,7.9,22.9,8.1,31.6,16.8c8.7-8.7,22.3-8.9,31.6-16.8c10.9-10.2,6.3-21.2,4.2-31.1c-2.2-10.6-0.3-23,6.1-30.6l-10.2-10.9H63.2z M60.9,83.3c-0.3-5.8,1.6-8.7,7-9.1c10.5-0.8,6.5-13.2,4.9-15.4c-3.8-5-7.5-3.9-9.3-1.1L62,56.9c2-3.8,4.5-5.5,9.4-6.2c0.3-15.6,7.8-17.9,23.4-26.5c4.2,2.3,5.3,4.1,5.5,9.2l13-9.4l7.9,6.4c1.3-1.5,1.5-1.9,3-3.2l1.5,1.1c-3.5,3.6-3.9,4.9-3.9,12V65c0,4.3,0.2,4.7,2.3,5.8l2.4-1.7l1.3,1.5l-8.5,6.9c-4.5-3.2-5.1-4.7-5.1-11.6V33.2l-5.4-4.1l-1.7,1.3v16.9h4.3l-4.3,5.8v14.3l2.6-2.1l1.3,1.1l-12.3,11c-3-3.4-4.3-4.7-8.1-7.7v-0.8c2.1-1.3,2.3-1.7,2.3-5.5V52.8h-9.6v14.5c0.1,11-5.6,14-14.9,12.8c-3-0.4-5.4-0.3-6,3.2H60.9zM81.8,64.8V41.9c0-5,0.2-6.4,1-8.6c-3.6,2.8-4.1,4.5-4.1,13.7v15c0,8.4-0.8,10.5-5.3,12.2C79.9,75,81.8,73.5,81.8,64.8 M92.9,47.3v-8.7c0-6.6-0.2-7.3-3.4-9.4c-5.3,3.4-6.2,5.2-6.2,12.8v9.8l3.2-4.5H92.9z M105.5,31.5l-4.9,3.6v12.1h4.9V31.5z M105.5,68.4V52.8h-4.9v10.3C100.6,70.2,103.1,70.7,105.5,68.4z M8.1,182.4v1.9c0,1.8-6.1,1.5-6,0.6c0.3-2.9,0.4-14.7-0.1-19.8l5.7,2.1h24.2c3.6-2.9,3.1-3.1,5.7-1.2c2.9,2.2,2.3,2.4,0.7,3.7c0,0-0.1,13.2,0,14.4c0.2,1.9-5.7,1.9-6,0.8v-2.5H8.1z M23.4,196.7c-0.1,1.9-6.5,2.8-6.3,0.7c0.4-9,0.3-37.2-0.2-39.6c11.8,1.2,6.2,2.8,6.2,3.4C23.1,164.7,22.9,192.6,23.4,196.7z M32.3,181.2l0-12.6H8.1v12.6H32.3z M64.2,168.8c-0.8,2.2-3.5,5.8-5,7.5v21.5c0,0.9-5.3,1.4-5.3,0.4c0-0.9,0-17.7,0-17.7c-1.4,0.9-2.9,1.8-4.5,2.6l-0.5-0.6c4.5-4.9,7.4-10.2,8.8-15.8L64.2,168.8z M82.4,177.9v-0.4H68.2v0.6c0,1.4-5.2,1.2-5.1,0.4c0.2-1.3,0-11.2-0.1-12.3l4.6,1.8h4.5v-8c0-1-0.1-1.6-0.3-1.9c6.2,0.6,7.4,1.1,7.4,1.7c0,0.6-1.6,0.6-1.6,1.5v6.8H82c3.1-2.6,2.4-2.8,5.2-0.8c2,1.5,1.5,2,0.3,3v6.9C87.5,179,82.4,178.6,82.4,177.9z M88.9,182H69.2c-4.2,0-6.8,0.2-7.9,0.4l-0.9-2.1c1.7,0.3,4.7,0.5,8.8,0.5h13.4c3.2-3.4,2.4-3.7,5.9-0.6C90,181.6,89.2,182,88.9,182z M62.3,164.9l-0.8-2.1c3.1,0.5,5.3,0.5,21.1,0.5c3.2-3.3,2.3-3.9,5.1-1.4c2,1.8,2.3,2.6,1.1,2.6C65,164.5,63.5,164.5,62.3,164.9z M48.9,170.2c2.9-2.8,5.1-6.8,6.7-12c10.6,2.6,6.4,3.3,5,3.6c-2.6,4.1-6.4,7.1-11.3,9L48.9,170.2z M65.3,185.7c2.5,12.2-4.6,10.6-5.2,8c-0.9-4,4.2-2.5,4.5-8H65.3z M81.9,189v2.8c0.1,2,2.3,1.7,2.3,3.1c0,3.2-6,3.4-8.2,3.4c-7.5,0-8.6-1.1-8.6-5c0,0,0-5.5-0.2-8.2c10.9,1.1,5.5,2.5,5.5,2.8v4c0,2.1,2.4,1.7,3.9,1.7c3.6,0,3.3-0.1,4.6-4.7L81.9,189z M70,175.9v-6.7h-1.9v6.7H70z M72.3,182.7c9.3-1.2,9.3,6,5.7,6.3c-3.9,0.3-1.7-4.3-5.9-5.8L72.3,182.7z M76.2,175.9v-6.7h-1.9v6.7H76.2z M82.3,175.9v-6.7h-2v6.7H82.3z M84,185.7c7.8,4.1,5.9,10.1,2.3,9.4c-3.4-0.7-0.3-6.1-2.9-8.9L84,185.7z M100.3,181c4.1,8.3,9.1,12.3,38.1,10.6l0.1,0.9c-1.9,0.2-1.1,5.1-1.9,5.1C119.1,197.6,103.3,197.6,100.3,181z M104,176.9c-0.4,1.1-5.9,1.2-5.9-0.5c2.8-4.6,5-9.3,6.6-14c-4.1,0-5,0-5.6,0.2l-0.9-1.6c1.2,0.2,3.6,0.1,6.1,0.1c3.3-2.5,2.9-2.3,5.1-0.7c2.1,1.5,3,2.5,0.4,3.1l-4.4,10.2h0.5c3.5-2.5,2.6-3.3,6-0.6c2.2,1.7,2.1,2.2-0.1,3.3c-2,9.4-5.4,19.6-13.4,21.5l-0.2-0.6c4.7-5.6,6.5-9.2,8.3-22.2h-1.7L104,176.9zM111.6,187l-1-1.8c1.4,0.2,3.4,0.2,18.4,0.2c3.9-4.2,2.8-4.5,5.6-1.8c2.9,2.7,2.1,3,1.5,3C115.3,186.6,113.4,186.5,111.6,187zM125,189.8c-0.2,2-5.8,2.3-5.6,0.7l-0.3-32.9c4.7,0.4,7.2,1,7.2,1.9c0,0.6-1.3,0.8-1.3,1.3V189.8z M113.1,181.1l-0.9-1.8c1.2,0.4,3.8,0.4,15.8,0.4c3.6-3.5,2.3-4.1,5.4-1.1c1.8,1.7,1.4,2.1,0.8,2.1C115.7,180.7,114.5,180.6,113.1,181.1z M133.9,175c-0.6,1.8-5.2,1.4-5.2,0.7v-0.5c-11.9,0-13.3,0-14.6,0.2l-1-1.9c1.6,0.5,4.2,0.5,15.6,0.5v-10.3c-10.4,0-13.5-0.2-15.7,0.3l-0.7-1.9c2.9,0.6,4.6,0.4,15.4,0.4c3.5-2.6,2.5-3.3,5.6-1.2c2.2,1.5,2.1,2,0.4,3.2C133.7,170.2,133.7,174,133.9,175z M111.6,169.8l-1-1.9c2.1,0.3,5.5,0.4,23.5,0.4c2.1-2.2,1.4-2.3,3.5-0.3c1.1,1.1,0.5,1.4,0.2,1.4C114.8,169.4,113.4,169.4,111.6,169.8z M146.2,166.2c1.2,0.1,3.2,0.2,5.8,0.3h5.6c4.2-4,2.9-4.8,5.8-1.9c2.6,2.6,2.4,2.8,1.8,3H152c-2.3,0.1-3.9,0.2-4.9,0.4L146.2,166.2z M148.2,171.8c1.2,0.1,3.2,0.2,5.8,0.2h3.1c3.4-3.5,2.5-3.5,4.9-1.4c2.4,2.2,1.7,2.5,1.4,2.6H154c-2.3,0.1-3.9,0.2-4.9,0.4L148.2,171.8zM148.3,182.6l4.4,1.7h4.9c3.3-2.4,2.3-2.7,5.2-0.7c2.5,1.8,1.3,2.1,0.2,3c0,0,0,8.4,0.1,9.1c0.2,1.7-5.3,1.4-5.3,0.7V195h-4.3v2.2c0,1.3-4.8,1.6-5.1,0.4C148.7,195.6,148.7,186.7,148.3,182.6z M148.5,178c1.2,0.1,3.2,0.2,5.8,0.2h2.9c3.4-3.6,2.5-3.4,5-1.4c2.5,2,1.5,2.4,1.2,2.5h-9.2c-2.2,0.1-3.8,0.2-4.8,0.4L148.5,178z M151.1,157.9c8.8,0.3,8.6,8.4,3.9,8c-3.6-0.3-0.9-5.1-4.4-7.3L151.1,157.9z M153.5,193.7h4.3v-8h-4.3V193.7z M176.9,178.3c3.3-3,2.7-3.8,6.4-0.6c2.9,2.5,1,3-0.3,3.2c-2.1,4.7-5.7,14.7-19.8,17.5l-0.3-0.9c4.5-2,12.2-7.8,14.4-18.2c-6.7,0-8.3,0-9.5,0.2c5.4,11.2,12.8,12,19.4,12v1.1c-2.7,0.1-1.7,6-3.1,5.9c-3.6-0.4-13.4-3.1-17.2-18.9l-1.6,0.2l-0.7-2C166.1,178.3,168.5,178.3,176.9,178.3 M163.5,176.2c4.7-4,3.7-16.5,3.3-17.6l5.8,2.6h2.6c2.7-2.2,2.6-3.4,5.2-1.3c3.1,2.6,1.2,2.8,0.2,3.5v6c0,2.2,2.1,1.5,2.6-0.5c4.4,0.7,6.1,6.3-2.1,6.3c-4.4,0-5.4-1.4-5.6-4.1v-8.7h-3.3c-0.2,5,0.7,11.8-8.3,14.4L163.5,176.2z"/>
</svg>
