<svg viewBox="0 0 699 242" fill="#fff" xmlns="http://www.w3.org/2000/svg">
<path d="M119.9,93L87.1,79.5L54.4,93.1l-13.5,32.8l13.6,32.7l32.8,13.5l32.7-13.7l13.5-32.8L119.9,93z M94.4,175.1
	l16.1,6.6l6.6-16.1L94.4,175.1z M57.5,165.7l6.7,16.1l16.1-6.7L57.5,165.7z M31.2,102.8l6.7,16.1l9.4-22.8L31.2,102.8z M47.5,155.8
	L38,133l-6.6,16.1L47.5,155.8z M63.9,70l-6.6,16.1L80,76.6L63.9,70z M110.2,69.8l-16.1,6.7l22.8,9.4L110.2,69.8z M127,95.9l9.5,22.7
	l6.6-16.1L127,95.9z M127.1,155.5l16.1-6.7l-6.7-16.1L127.1,155.5z M35,125.9l-8.4-20.2L1.4,126.1l25.3,20.1L35,125.9z M147.7,105.4
	l-8.3,20.3l8.4,20.1l25.2-20.3L147.7,105.4z M115.6,68.6l8.4,20.2l20.2,8.3l3.4-32.2L115.6,68.6z M87.1,73.6l20.2-8.4L86.9,39.9
	L66.8,65.3L87.1,73.6z M26.3,65.3L30,97.4L50.2,89l8.3-20.3L26.3,65.3z M30.2,154.5l-3.5,32.2l32.1-3.7l-8.4-20.1L30.2,154.5z
	 M87.3,178l-20.2,8.4l20.3,25.2l20.1-25.3L87.3,178z M148.1,186.3l-3.7-32.1l-20.2,8.4l-8.3,20.2L148.1,186.3z M168.9,94.6
	l-17.1,7.1l22.7,18C173.9,111.2,172,102.7,168.9,94.6L168.9,94.6z M149.7,96.8l17.1-7.1c-3.6-7.9-8.3-15.2-14-21.7L149.7,96.8z
	 M115.9,63.1l28.7-3.3c-6.5-5.6-13.8-10.3-21.7-13.8L115.9,63.1L115.9,63.1z M117.9,43.9c-8.2-3.1-16.6-4.9-25.2-5.4L110.9,61
	C110.9,61,117.9,43.9,117.9,43.9z M63.2,61.2l17.9-22.6c-8.5,0.6-16.9,2.5-25,5.6L63.2,61.2L63.2,61.2z M29.4,60.2l28.8,3.1l-7.1-17
	C43.2,49.8,35.9,54.5,29.4,60.2z M7.5,90.1l17,7l-3.3-28.6C15.6,75,11,82.3,7.5,90.1z M0,120.2l22.5-18.2l-17-7
	C2.4,103.2,0.6,111.7,0,120.2z M5.5,156.9l17.1-7.1L0,131.9C0.6,140.4,2.4,148.9,5.5,156.9L5.5,156.9z M24.7,154.8l-17.1,7.1
	c3.6,8,8.3,15.3,14,21.6L24.7,154.8L24.7,154.8z M58.5,188.5l-28.6,3.3c6.5,5.6,13.8,10.3,21.6,13.8L58.5,188.5L58.5,188.5z
	 M81.7,213.1l-18.2-22.6l-7,17.1C64.7,210.7,73.2,212.5,81.7,213.1z M111.2,190.4l-18,22.7c8.6-0.6,17.1-2.4,25.2-5.5L111.2,190.4
	L111.2,190.4z M145.1,191.4l-28.9-3.1l7.2,17.1C131.3,201.8,138.6,197.1,145.1,191.4L145.1,191.4z M167,161.5l-17.1-7.1l3.4,28.8
	C158.9,176.7,163.5,169.4,167,161.5L167,161.5z M174.6,131.2l-22.6,18.2l17.1,7.1C172.2,148.3,174,139.8,174.6,131.2L174.6,131.2z
	 M276.4,174.9h12.7V171h-12.7v-10.6h-8.6V171h-12.1v-10.6h-8.6V171h-13.8v-15h46.7v2.2h8.8v-26.9h-8.8v1.9h-46.7v-1.9h-8.8v63
	c0,0,0.7,35-10.7,44.7h2.6c0,0,16.8-15.3,16.8-44.7v-0.7h7.6v34.2c-3.3,0.6-7.1,1.2-11.2,1.8v9.4c0,0,20-6.8,31.3-14.3v-1.3
	c0,0-3.5,1.1-11.2,2.7v-32.6h4.4c18.1,27.8,36.5,44.8,36.5,44.8V226c-6.1-5.8-11.2-10.7-15.3-14.8c9-3.5,13.1-12.6,13.1-12.6h-8.7
	c-1.1,5.7-4,9.6-5.5,11.4c-11.4-11.4-15.2-16.5-15.2-16.5h34.8v-3.9h-17.4L276.4,174.9L276.4,174.9z M280.1,137.1v15h-46.7v-15
	H280.1z M233.4,174.9h13.8v14.7h-13.8V174.9z M255.8,189.6v-14.7h12.1v14.7H255.8L255.8,189.6z M241.3,1.6h-9.7
	c-7.5,47.2-18.3,57.6-18.3,57.6l1.4,1c4.3-3.6,8-8.2,11.1-13.3v62.8c0,2.4-1.3,5.4-1.3,5.4h1.5l8.1-13.3V29.3
	C239.5,14.7,241.3,1.6,241.3,1.6L241.3,1.6z M261.2,40.3h-21.8v3.9h52.8v-3.9H270V19.1h17.7v-3.9H270V1.6h-8.8v13.6h-17.7v3.9h17.7
	V40.3z M270,69.4h18.7v-3.9H270V49.8h-8.8v15.7h-18.7v3.9h18.7v32.6H238v3.9h55.3v-3.9H270V69.4z M493.6,65.7v-8.6h-70.1V0h-21.7
	v57.1h-69.4v8.6h69.5c-1.8,16.9-15.2,122.1-81.8,172.5h6.8c0,0,77.2-52.1,92.9-135.3c9.1,35.5,30.2,93.4,76.8,139.1v-41.6
	c-29.8-33.3-67.8-79.9-73.6-134.7H493.6L493.6,65.7z M629.2,19.9V0h-21.7v19.9h-69.7v8.6h69.7v19.9h-55.4v8.6h55.4h21.7h55.4v-8.6
	h-55.4V28.5H699v-8.6H629.2z M552.3,64.5v43h19.4v-3.3h93.4v3.3h19.4v-43h-19.4v3.6h-93.4v-3.6H552.3L552.3,64.5z M665.1,76.7v18.8
	h-93.4V76.7C571.7,76.7,665.1,76.7,665.1,76.7z M676.3,170.5h-30.8v-4.3h-19.4v69.1h19.4V231h30.8v4.3h19.4v-69.1h-19.4V170.5z
	 M676.3,222.4h-30.8v-43.2h30.8V222.4z M662.4,112.2H641c-2.2,12-7.3,20.9-11.1,26.4H607c-3.8-5.4-8.9-14.4-11.1-26.4h-21.5
	c0,0,6.7,15.7,21.3,26.4h-57.9v8.6H699v-8.6h-57.9C655.7,127.9,662.4,112.2,662.4,112.2L662.4,112.2z M598.7,169.6h-16.2
	c0.6-5.9,0.8-12.2,0.5-18.9h-19.4c-0.2,5.6-0.3,12.1-0.7,18.9h-22.7v8.6h22c-2,21.4-7.9,45.5-27.6,63.7h4c0,0,34.2-17.4,42.6-63.7
	h17.4v45.1c0,1.1-0.1,2.3-0.3,3.4h-22.6l5.7,8.6H617v-69.1h-18.3L598.7,169.6L598.7,169.6z"/>
</svg>
