<?xml version="1.0" encoding="utf-8"?>
<!-- Generator: Adobe Illustrator 26.5.0, SVG Export Plug-In . SVG Version: 6.00 Build 0)  -->
<svg version="1.1" id="圖層_1" xmlns="http://www.w3.org/2000/svg" xmlns:xlink="http://www.w3.org/1999/xlink" x="0px" y="0px"
	 viewBox="0 0 165 123" style="enable-background:new 0 0 165 123;" xml:space="preserve">
<style type="text/css">
	.st0{fill:#C6000B;}
	.st1{fill:#FFFFFF;}
	.st2{fill:#C9A063;}
</style>
<path class="st0" d="M108.3,100.6c-1.2-5.9-0.3-7.7,3.3-13c0.6-0.9,3.8-2.2,4.7-2.4c2.6-0.6,6.6,0.6,7.5,2c2.2,3.6,1.2,3.5,3,7.2
	c1.4,2.9,1,9.7-1.6,12.3c-1.4,1.4-5.7,2.2-8.4,2.1s-8.1-3.7-8.3-6.2"/>
<path class="st1" d="M57.1,99.7c-0.3,0.6-1.7,0.7-2.1,0.1c-0.4-0.5-0.2-2.5-0.2-3.2c0-0.4-0.5-0.1-0.7-0.3c-0.1-0.1-0.1-0.3,0-0.4
	c0.1-0.1,0.4-0.1,0.5-0.1c0.3,0,0.1-0.7,0.2-1.1c0-0.4,0.7-0.5,0.6,0v0.9c0,0.1,0.1,0.1,0.2,0.1c0.5,0,1.3-0.2,1.3,0.3
	c0,0.5-0.8,0.3-1.3,0.3c-0.1,0-0.1,0.1-0.1,0.2v2.1c-0.1,1.1,1.2,1.2,1.2,0.2c0-0.3-0.1-0.9,0.3-0.9C57.6,98,57.2,99.6,57.1,99.7z
	 M43.4,99.6c-1.1,0.9-3,0.2-4.3,0.5c-0.7,0.1-0.6-0.8,0-0.6c0.4,0.1,0.6-0.1,0.6-0.6v-3.5c0-0.5-0.2-0.7-0.6-0.6
	c-0.7,0.2-0.7-0.7,0-0.6c1.4,0.4,4.4-0.8,4.6,1.4c0,0.6-0.3,1-1,1.2C44,97.1,44.5,98.8,43.4,99.6z M40.4,96c0,0.9,0.4,0.6,1,0.7
	c1,0,1.5-0.3,1.5-1c0.1-1.1-1.8-1-2.4-0.8C40.3,95,40.4,95.7,40.4,96z M43.2,98.3c0-0.7-0.5-1.1-1.6-1.1c-0.5,0-1.4-0.2-1.3,0.5
	c0,0.4-0.1,1.5,0.2,1.7C41.4,99.7,43.3,99.6,43.2,98.3z M48.8,97.9c-0.2,0.1-2.9,0-3,0c-0.1,0-0.2,0-0.2,0.1c0,1.9,2.2,1.9,2.5,0.8
	c0.2-0.9,1-0.4,0.6,0.3c-0.7,1.4-3.8,1.6-3.8-1.3c0-1.5,1-2.4,2-2.4C49.1,95.5,49,97.8,48.8,97.9z M48.2,97.3c0-1-1.3-1.5-2.1-0.8
	c-0.3,0.2-0.4,0.5-0.4,0.8h0c0,0.1,0.1,0.1,0.2,0.1H48C48.1,97.4,48.2,97.3,48.2,97.3z M61.8,100.2c-2.7,0-2.7-4.6,0-4.6
	C64.5,95.6,64.5,100.2,61.8,100.2z M61.8,96.1c-1.8,0-1.8,3.5,0,3.5C63.5,99.6,63.5,96.1,61.8,96.1z M50.6,96.8
	c0-0.6,0.9-0.9,1.6-0.5c0.3,0.2,0.3,0.4,0.3,0.7c0,0.4,0.6,0.4,0.6-0.1c0-0.4,0-0.9,0-1.2c0-0.4-0.7-0.4-0.6,0.1
	c-0.8-0.6-2.6-0.3-2.6,1c0,1.9,2.8,0.8,2.8,2c0,1.1-2,0.9-2.3,0.1c-0.1-0.2,0-0.5-0.1-0.7c-0.1-0.2-0.6-0.1-0.5,0.3
	c0.1,0.4,0,1,0,1.3c-0.1,0.4,0.6,0.5,0.6,0v-0.2c0.9,0.8,3,0.4,3-1C53.4,97,50.6,98,50.6,96.8z M90.1,99.6c-1.1,0.9-3,0.2-4.3,0.5
	c-0.7,0.1-0.6-0.8,0-0.6c0.4,0.1,0.6-0.1,0.6-0.6v-3.5c0-0.5-0.2-0.7-0.6-0.6c-0.7,0.2-0.7-0.7,0-0.6c1.4,0.4,4.4-0.8,4.6,1.4
	c0,0.6-0.3,1-1,1.2C90.8,97.1,91.2,98.8,90.1,99.6z M87.1,96c0,0.9,0.4,0.6,1,0.7c1,0,1.5-0.3,1.5-1c0.1-1.1-1.8-1-2.4-0.8
	C87,95,87.1,95.7,87.1,96z M89.9,98.3c0-0.7-0.5-1.1-1.6-1.1c-0.5,0-1.4-0.2-1.3,0.5c0,0.4-0.1,1.5,0.2,1.7
	C88.1,99.7,90,99.6,89.9,98.3z M65.7,94.4c-0.3,0.3-0.4,0.7-0.4,1.2c0,0.2-0.4,0.1-0.6,0.1c-0.4,0-0.4,0.6,0,0.6
	c0.2,0,0.6-0.1,0.6,0.2c0,0,0,1.8,0,1.8c0,1,0,1.3-0.5,1.2c-0.7-0.2-0.7,0.7,0,0.5c1.3-0.2,2,0.4,2.1-0.3c0.1-0.6-0.8,0.1-0.9-0.5
	c0-0.2,0-2.6,0-2.8c0-0.3,0.5-0.2,0.8-0.2c0.4,0,0.4-0.6,0-0.6c-0.2,0-0.7,0-0.7,0c-0.1,0-0.1,0-0.1-0.1c0-1.4,1.1-1.1,1.2-0.9
	c-0.4,0.6,0.7,0.9,0.7,0.1C68,93.8,66.3,93.8,65.7,94.4z M95.5,97.9c-0.2,0.1-2.9,0-3,0c-0.1,0-0.2,0-0.2,0.1c0,1.9,2.2,1.9,2.5,0.8
	c0.2-0.9,1-0.4,0.6,0.3c-0.7,1.4-3.8,1.6-3.8-1.3c0-1.5,1-2.4,2-2.4C95.8,95.5,95.7,97.8,95.5,97.9z M94.9,97.3c0-1-1.3-1.5-2.1-0.8
	c-0.3,0.2-0.4,0.5-0.4,0.8h0c0,0.1,0.1,0.1,0.2,0.1h2.1C94.8,97.4,94.9,97.3,94.9,97.3z M103.7,97.9c-0.4,0-0.3,0.6-0.3,0.9
	c0,1.1-1.4,1-1.2-0.2v-2.1c0-0.1,0-0.2,0.1-0.2c0.5,0,1.4,0.2,1.3-0.3c0-0.5-0.8-0.3-1.3-0.3c-0.1,0-0.2,0-0.2-0.1v-0.9
	c0-0.5-0.7-0.4-0.6,0c0,0.4,0.1,1.1-0.2,1.1c-0.1,0-0.4-0.1-0.5,0.1c-0.1,0.1-0.1,0.3,0,0.4c0.2,0.2,0.7-0.1,0.7,0.3
	c0,0.7-0.1,2.7,0.2,3.2c0.4,0.6,1.7,0.6,2.1-0.1C103.9,99.6,104.3,98,103.7,97.9z M97.3,96.8c0-0.6,0.9-0.9,1.6-0.5
	c0.3,0.2,0.3,0.4,0.3,0.7c0,0.4,0.6,0.4,0.6-0.1c0-0.4,0-0.9,0-1.2c0-0.4-0.7-0.4-0.6,0.1c-0.8-0.6-2.6-0.3-2.6,1
	c0,1.9,2.8,0.8,2.8,2c0,1.1-2,0.9-2.3,0.1c-0.1-0.2,0-0.5-0.1-0.7c-0.1-0.2-0.6-0.1-0.5,0.3c0.1,0.4,0,1,0,1.3
	c-0.1,0.4,0.6,0.5,0.6,0v-0.2c0.9,0.8,3,0.4,3-1C100.1,97,97.3,98,97.3,96.8z M72.1,97.9c-0.4,0-0.3,0.6-0.3,0.9
	c0,1.1-1.4,1-1.2-0.2v-2.1c0-0.1,0-0.2,0.1-0.2c0.5,0,1.4,0.2,1.3-0.3c0-0.5-0.8-0.3-1.3-0.3c-0.1,0-0.1,0-0.1-0.1v-0.9
	c0-0.5-0.7-0.4-0.6,0c0,0.4,0.1,1.1-0.2,1.1c-0.1,0-0.4-0.1-0.5,0.1c-0.1,0.1-0.1,0.3,0,0.4c0.2,0.2,0.7-0.1,0.7,0.3
	c0,0.7-0.1,2.7,0.2,3.2c0.4,0.6,1.7,0.6,2.1-0.1C72.2,99.6,72.7,98,72.1,97.9z M82.7,97.9c-0.2,0.1-2.9,0-3,0c-0.1,0-0.2,0-0.2,0.1
	c0,1.9,2.2,1.9,2.5,0.8c0.2-0.9,1-0.4,0.6,0.3c-0.7,1.4-3.8,1.6-3.8-1.3c0-1.5,1-2.4,2-2.4C83,95.5,82.9,97.8,82.7,97.9z M82.1,97.3
	c0-1-1.3-1.5-2.1-0.8c-0.3,0.2-0.4,0.5-0.4,0.8h0c0,0.1,0.1,0.1,0.2,0.1h2.1C82.1,97.4,82.1,97.3,82.1,97.3z M77.5,99.1
	c0-0.9,0-1.5,0-2.3c-0.1-1.4-2.1-1.7-2.9-0.7l0-1.7c0-0.6-0.7-0.2-1-0.3c-0.6-0.2-1,0.5-0.3,0.5c0.3,0,0.6-0.2,0.6,0.4
	c0,0.5,0.3,4.6-0.2,4.5c-0.9-0.3-0.9,0.7-0.1,0.5c1.1-0.3,1.9,0.4,2-0.3c0-0.3-0.2-0.3-0.6-0.2c-0.7,0.2-0.3-2.3-0.2-2.7
	c0.4-1,2-1,2.2,0.2c0.1,0.8,0.1,2.8-0.3,2.6c-0.5-0.2-0.9,0.2-0.5,0.4c0.4,0.3,0.7-0.1,1.7,0.1c0.3,0.1,0.8,0.1,0.8-0.3
	C78.3,99.1,77.5,100,77.5,99.1z M122.1,92.2v9.3c0,1.5,0,2.2,2.3,2.2v0.4h-13.6v-0.4c2.3,0,2.3-0.7,2.3-2.2v-9.3
	c0-1.5,0-2.2-2.3-2.2v-0.4h13.6v0.4C122.1,90.1,122.1,90.7,122.1,92.2z M119.8,92.2c0-1.5,0-2.2-2.2-2.2s-2.2,0.7-2.2,2.2v9.3
	c0,1.5,0,2.2,2.2,2.2s2.2-0.7,2.2-2.2V92.2z"/>
<path class="st2" d="M162.8,40.5c-3.4-11.3-18.7-8.8-28-10c-8.4-0.6-32.6,0.8-32.8,9.5c-0.5,3.1,1.8,5.2,4.7,4.2
	c5-1.5,10.1-2.2,15.2-3.3c2.5-0.7,7.9-2.3,7.9,1.9c0.2,2.5-3.9,2.2-5.6,2.8c-10,0.5-20.2,10.8-15.2,20.9c4.6,9.2,15.8-0.7,22.6,0.4
	c7.1,0.1,9.6-0.5,9.6,8.7c0.1,4.6,0.3,9.4,0.7,14.2c0.2,11,2.7,20.3,6.8,30.7c0.1,1.3,1.4,2.3,2,2.3c1.5,0,1.1-0.8,2.4-0.7
	c0.7,0.1,1.3-1.1,1.2-1.9c-2.6-7.5-5.3-14.6-5.7-22.8c-2.4-8.5-1.6-22-0.7-32c0.4-2.1-1.6-3.5-2.7-4.8c-8.4-3.9-18.4-0.6-27.2,0.8
	c-4.7,0.5-0.3-6,2.4-5.6c10.6-2.1,21.5-3.4,31.7,1C162.8,60.5,166.2,48.4,162.8,40.5z M155.6,45.3c-4.3,3-11.5-0.3-16.2-1.5
	c-2.1-1.7-1.3-4.8,1.3-4.1C145.3,41.3,153.7,40.3,155.6,45.3L155.6,45.3z M120,26.9c4.3-0.1,6.4,0,10.7,0c0,0,4.6,0,4.6-0.1
	c8.2-0.4,18.4,3.4,18.9-8.8c-0.4-9.1,0.2-17.4-11.4-17.5c-6.3-1.2-25.7,0.2-29.6,5.1C108.7,12,110.5,26.6,120,26.9L120,26.9z
	 M121.1,12.4c3-1.9,25.5-3.9,24.2,2.9c-0.6,2.5-2.7,1.6-4.2,1.6c-6,0.2-11.9,0.2-17.9,0.4C119.7,17.9,118.1,13.6,121.1,12.4z
	 M56.8,29.9c-24.8,4-12.1-8.3-21.9-9.5c-2.8-0.9-3.9-1-6.6-1.2c-1.2-0.5-2.2-0.9-2.8,0.8c-2.1,2.2-2.4,0.7-3.3,4.3
	c-1.4,2.3-2.2,5.4-4.6,6.9c-5,2.6-15.1-1.4-16.4,6.6c-0.3,1.4-0.3,1.8,0.8,3.5c3.2,3.8,7.9-0.8,12.2-0.2c4.5,0.3,5.3-1.2,5.7,4.1
	c0.4,3.2,1.5,6.9,0.9,10c0,0.6,1,0.9,0.8,1.8c-1.7-0.1-1.8,1.2-2.8,2.6C15.2,61.9,10,63.5,6,64.7c-1.5,1-1.6,2.1-1.4,4.5
	c-1,2.9,3.6,3.1,5.7,3.4c2.7,0.7,4.4-2.1,6.6-3.1c0.5-0.6,1-0.6,1.8-0.9c1.4-0.4,2.3-1.7,3.5-2.4c1.6-1.7,4.4-2.1,6.4-1.3
	c0.9,2.3,2,0.8,3.5,1.4c1.1-0.1,2.3,0.7,3.4,0.5c0.8-0.2,1.3-0.9,2.2-0.8c0.9,0.6-0.2,1.2,0.7,2.1c1.2,0.2,5.2,0.4,6.7-0.5
	c1.5-2.7,5.6-5.1,6-8.2c-2.2-1.7-6.4-0.6-9-2.1c-3.1-2.3-8.6-5.3-6.3-10.1c1.9-3.1,2.6-6,3.8-8.9c0.4-0.5,0.4-0.9,0.8-0.8
	c0.8,0.6,2.1-0.2,3-0.3c13.3,0.2,7.3-2.6,16.2-3.9c1.9,0.5,0.5,3.5,1.4,4.7c2,3.8,0.1,13.5,6,14.1c3.5,0.1,5-2.5,8.7-0.8
	c0.8-0.6,0.5-1.8,2.6-1.5c10.2,0.4,15-4.4,15-14.6c0.7-2.6,0.1-5.8,1.2-8.3c0.4-0.9-0.2-1.4-0.2-1.8l0.1,0c-0.1-3.1-1.8-4.6-2.7-7
	c-0.5-1-2.9-0.6-3.5,0.2c-2.9,3.5-3.4,2-4.4,4.2c-0.6,1.9-2.2,2.4-3.8,2.7c-2.4,0.6-9.8,2.3-10.6-1.2c-0.2-2.9-5.9,0.3-7.6,1.1
	C60.1,27.5,58.1,28.5,56.8,29.9z M28,45.3c-0.8-0.7-0.3-2.5-0.4-2.9c-0.4-1.7-1.4-1.5-1.7-2.8c0-0.1,0.1-0.3,0.2-0.3
	c1.8-0.1,2.1-0.7,3.6-1.4c4.1-1.2,4.5,5,0.5,6.1C29.4,44.3,28.5,45.5,28,45.3L28,45.3z M31.1,28.5c-0.7-0.1-2.1-0.3-1.7-1.1
	c0.3-0.9,0.6-2,1.4-2.1c2.1-0.2,3.9-1.4,3.5,2.8C33.8,28.8,31.8,28.4,31.1,28.5L31.1,28.5z M72.9,42.7c-3.6-2.8-5.1-11.1,0.9-11.2
	c3.5-0.4,5.9-0.1,10.6-1c4.4-0.6,3.2,6.6,1,8.7c-1.8,1.6-3.4,3.7-5.9,4.1C76.6,43.3,75,45.1,72.9,42.7L72.9,42.7z"/>
</svg>
