<?xml version="1.0" encoding="utf-8"?>
<!-- Generator: Adobe Illustrator 28.1.0, SVG Export Plug-In . SVG Version: 6.00 Build 0)  -->
<svg version="1.1" id="_圖層_2" xmlns="http://www.w3.org/2000/svg" xmlns:xlink="http://www.w3.org/1999/xlink" x="0px" y="0px"
	 viewBox="0 0 452 306.5" style="enable-background:new 0 0 452 306.5;" xml:space="preserve">
<style type="text/css">
	.st0{fill:#FFFFFF;stroke:#FFFFFF;stroke-width:0.74;stroke-miterlimit:10;}
	.st1{fill:#FFFFFF;}
	.st2{fill:none;stroke:#FFFFFF;stroke-width:0.89;stroke-miterlimit:10;}
	.st3{fill:none;stroke:#FFFFFF;stroke-width:0.52;stroke-miterlimit:10;}
</style>
<g>
	<path class="st0" d="M3.8,84.3C4.7,83.6,18,73.6,22.5,61.2c0,0,0.8-0.5,1.4-0.6s2.1,0,3-1.4c0.8-1.3,0.8-2.6-2.2-3.7l-6.7-1.7v0
		c-1.1-0.3-2.3,0.4-2.7,1.5C13.8,60.8,8.8,76,1.7,82.9c0,0-1,1-0.3,1.7C2,85.3,3,84.9,3.8,84.3z"/>
	<path class="st0" d="M138.5,71.3h4.9c2,2.1,5.1,6.2,5.1,11.4c-0.1,7.7,9.3,7.8,9.2,0.9c-0.1-4.4-4.2-9.6-8.7-12.3h15.9v0v0h8
		c1.7-0.8-2.9-4.3-5.5-4.7c-1.6-0.3-4,0.6-5.7,1.4h-21.2c1.3-2.3,2.3-4.6,3.1-6.8c0,0,0.8-0.5,1.4-0.6s2.1,0,3-1.4
		c0.8-1.3,0.8-2.6-2.2-3.7l-6.7-1.7v0c-1.1-0.3-2.4,0.4-2.7,1.5c-2.4,10.1-14,28.1-20.9,33.9c0,0-1,1-0.3,1.7c0.7,0.7,1.4,0,2.5-0.3
		C123.9,88.8,132.6,80.5,138.5,71.3z"/>
	<path class="st0" d="M19.2,96.6c0,0,4.7-8.6,5.2-9.9c0,0,0.7-1.2,2.2-1.1c0,0,1.6,0.2,2.7-0.5V93c0,0.6,0.3,1.1,0.8,1.5
		c1.2,0.8,3.8,1.9,6.7-0.3c0.7-0.5,1.1-1.4,1.1-2.3v-3h21.3v2.5c0,0.6,0.3,1.2,0.8,1.5c1.2,0.8,3.8,1.9,6.7-0.3
		c0.7-0.5,1.1-1.4,1.1-2.3V65.9c0-1.8-1.3-3.3-3.1-3.5L61.8,62v0c0,0-2.6-0.7-2.6,1.7v21.9h-6.7c0.1-0.3,0.2-0.7,0.2-1.1v-26
		c0-1.8-1.3-3.3-3.1-3.5l-2.9-0.4v0c0,0-2.6-0.7-2.6,1.7v29.3h-6.2V65.9c0-1.8-1.3-3.3-3.1-3.5L31.9,62v0c0,0-2.6-0.7-2.6,1.7v17.2
		c-0.1-0.1-0.3-0.2-0.5-0.3l-8.4-3.1v0c-0.1,0-0.2,0-0.2-0.1c-0.6-0.1-2.7-0.4-3.3,1.7c-0.6,2.4-8.2,25.6-14.2,32.3l-2.1,2.6
		c0,0-0.7,0.9,0,1.7c0.7,0.8,2.3-0.5,2.3-0.5s6.3-5.7,7-6.7v47.7c0,1.5,1.1,3,2.5,3c5.2,0,5.6-1,6.4-2.6c0.2-0.4,0.2-1.8,0.2-2.2
		V96.6z"/>
	<path class="st0" d="M55.5,101.8H31c-0.9,0-1.7,0.7-1.7,1.7c0,0.9,0.7,1.7,1.7,1.7h25.2v0v0h14.8c2-1.1-3.4-5.8-6.5-6.4
		C61.7,98.2,56.7,101.1,55.5,101.8z"/>
	<path class="st0" d="M200.8,120.2h18c2.3-1.1-3.9-5.8-7.5-6.4c-3.6-0.6-10.5,3.3-10.5,3.3h0V120.2z"/>
	<path class="st0" d="M103.3,77.9c-2.6-0.5-7.2,2.4-8.4,3.1H79.1c3-6.6,5.8-14,6.6-19.6c0,0,0.7-0.6,1.3-0.8
		c0.6-0.2,2.1-0.5,2.6-1.9c0.6-1.5,0.3-2.7-2.9-3.2l-6.9-0.4l0,0c-1.2-0.1-2.2,0.8-2.3,2c-0.5,5.7-3.8,31.4-9.3,39.7
		c0,0-0.8,1.2,0,1.7c0.8,0.6,1.7,0,2.4-0.8c0.2-0.2,1.2-1.9,2.5-4.5c0.1,1.5,0.6,7,4,25.3c0.7,4,1.7,7.7,2.8,11.2
		c-3.3,7-7.5,13.4-13.1,18.3c0,0-5.7,5.4-9.2,7.4c0,0-2.9,1.5-2.4,2.9c0.5,1.4,4.5-0.1,4.5-0.1s12.6-3.4,23.6-19.4
		C88,149.2,93,155,93,155s2.6,3.3,7.1,2.3c2.8-0.6,5.8-2.2,7.8-3.3c0.8-0.5,0.8-1.7,0-2.1c-6-3.1-12.2-9.8-12.2-9.8
		c-2.9-3.1-5.3-7-7.5-11.4c5.5-10.8,10-25.8,11-46.5h10.3C111.3,83.2,106.2,78.5,103.3,77.9z M76.2,87.3L76.2,87.3l-0.5,0.9
		c0.6-1.2,1.2-2.5,1.9-3.9h12.8c-0.2,3.7-1.2,19.7-6.7,35.8C78.2,104.1,76.2,87.3,76.2,87.3z"/>
	<path class="st0" d="M218.2,66.6c-1.6-0.3-4,0.6-5.7,1.4h-22.7c1.3-2.3,2.3-4.6,3.1-6.8c0,0,0.8-0.5,1.4-0.6s2.1,0,3-1.4
		c0.8-1.3,0.8-2.6-2.2-3.7l-6.7-1.7l0,0c-1.1-0.3-2.4,0.4-2.7,1.5c-2.4,10.1-14,28.1-20.9,33.9c0,0-1,1-0.3,1.7
		c0.7,0.7,1.4,0,2.5-0.3c6.2-1.8,14.8-10.1,20.7-19.3h4.9c2,2.1,5.1,6.2,5.1,11.4c-0.1,7.7,9.3,7.8,9.2,0.9
		c-0.1-4.4-4.2-9.6-8.7-12.3h17.4v0v0h8C225.4,70.4,220.8,67,218.2,66.6z"/>
	<path class="st0" d="M39.2,110.4l-4.9-0.9c-1.4-0.2-2.6,0.9-2.6,2.2c0,0.3,0.1,0.7,0.1,1.2c0,0,0.9,22.2-6.7,36.1l-1.3,2.3
		c0,0-1.6,2.8,1.2,2c2.8-0.8,13.8-16.5,15.7-33.3v0c0.2-1.8,0.8-6.2,0.8-6.2C41.9,112.2,40.8,110.7,39.2,110.4z"/>
	<path class="st0" d="M73.4,126.7c0,0,1.4-3.1-2-2.1c0,0-10.1,6-12.6,7.2v-13.4l0-7.2c0-0.5-0.4-1-0.9-1.1l-5.1-0.8c0,0-3-0.6-3,2
		v24.2l-6,1.6c0,0-2.3,0.7-1.2,2.6l3.7,9.6C46.2,149.2,69,132.2,73.4,126.7z"/>
	<path class="st0" d="M220.7,147.3c-4,0.4-14.2-2-14.2-2c-19.6-4.8-29.6-20-32.4-25h26.7v0v-3.1v-0.2h-28.4
		c0.5-4.7,0.6-9.8,0.5-15.5l0,0c8.2-1.5,16.9-3.5,24.6-6.4c0,0,5.5-1.8,4.2-3.4c-1.3-1.6-3.9-3.8-6.3-4.8c0,0-1.6-0.7-4.6,0.8h0
		c0,0-34.8,13.2-53.3,13.8c0,0-2.3,0.3-2.3,2.1s2.3,1.7,2.3,1.7s11.8-0.3,26.6-2.4c0,2.2-0.2,7.8-1.1,14.1h-40.6
		c-0.9,0-1.7,0.7-1.7,1.7s0.7,1.7,1.7,1.7h40c-1.4,7.4-4,15.2-8.8,19.1c-12.6,10.5-19.9,13.7-28.1,16.3c0,0-4.1,1.1-3.7,2
		c0.5,1,1.5,1.2,4.1,0.6c2.6-0.6,22.7-1.6,36.8-18.3c4.6-5.4,7.2-10.9,8.7-17c5.5,18.2,32.6,32.5,37.3,34.7c2.9,1.4,4.2-0.6,4.2-0.6
		c2.2-2.5,3.1-3.3,7-6.4C223.9,147.6,220.7,147.3,220.7,147.3z"/>
	<path class="st0" d="M440.5,87.2c-3.6-0.7-10.7,4-10.7,4h0h-18.4c0,0-2.5-0.3-3.4-2c0.1-5.6,0.1-12,0-19.5v-0.1
		c0.3-2.3,4.4-2.5,4.4-2.5c12.3-1.4,21.7-5.2,24.3-6.8l5-3c0.9-0.5,0.9-1.9,0-2.4l-5.1-3.2c-3.5-1.8-6,0.6-8.2,2.4
		c-2.2,1.8-5.9,3.9-11.5,6.9c-5.6,3-8.9,2.7-8.9,2.7v0c-0.1,0-1.3-0.1-2.2-0.6c0,0-7.8-6.3-7,1.8l-0.1,46.1c0,0-1.1,21.4-8.2,32.6
		l-7.8,11.9c0,0-1.8,2.2-0.5,3.1c0.9,0.6,2.9-1.3,2.9-1.3s14.6-10.2,20.4-36.4h0c0,0,1.6-4.8,2.2-24.7v0.2c0-1.9,2.2-2.1,2.2-2.1
		h13.3c0,0,2.2,0.2,2.2,2.1v60c0,0.4,0.1,0.8,0.4,1c0.4,0.5,1.4,1.2,3.2,1.2c3,0.1,5-1.6,4.9-3.7V95h14
		C450.4,93.7,444.2,87.9,440.5,87.2z"/>
	<polygon class="st0" points="331.6,65.7 331.6,65.7 331.6,65.7 	"/>
	<path class="st0" d="M331.6,65.7c-1.2-1.8-4.2-4.1-6.3-4.5c-2.7-0.5-7.6,2.5-8.7,3.2H289c0-0.1,0-0.2,0-0.3v-10
		c0-1.8-1.4-3.4-3.2-3.6l-3-0.4h0c0,0-2.7-0.8-2.7,1.7v12.5H247c0.2-3.2-0.2-5.2-1.3-5.1c0,0-0.6,0-0.9,1.2l0,0
		c-0.2,0.8-0.4,1.6-0.8,2.4c-1.1,2.7-3.7,8-6.3,9.9c-3.5,2.5-5.5,6.1-3.4,9c2.1,2.9,9.9,1.5,11.3-7c0.4-2.5,0.8-4.8,1-6.9h37.5
		c0,0,0,0,0,0h38.6c-0.8,1.9-3.5,7.9-7.9,11.7c0,0,0,0,0,0v-1.2l-7.7-4.1c0,0-1.4-0.7-1.4,0.6l0,0v2.6h-44.4l-5.9-3.2
		c0,0-1.4-0.7-1.4,0.6l0,0v37.8c0,0-0.7,2.6,4.1,2.6s4.9-2.6,4.9-2.6v-4.2h17.1v9.9H249l-6.4-3.4c0,0-1.4-0.7-1.4,0.6l0,0v40
		c0,0-0.7,2.6,4.1,2.6c4.8,0,4.9-2.6,4.9-2.6v-33.8h30v14.5c0,0,0,0.1,0,0.1c-9,0.2-16.2-0.7-16.2-0.7c-0.5-0.1-0.9-0.1-1.2-0.1
		c-1.4,0-2.6,0.8-2.5,2.1l0.3,5c0.1,1.7,1.5,2.1,3.1,2c0,0,4.6,0.1,6.4-0.1l0,0c16-1.1,28.7-5.7,34.4-9c0.2,0.6,0.4,1.1,0.4,1.6
		c0.6,4.2,2.8,7.5,6.2,6.8s5.7-8.2-0.9-13.1c-6.6-4.9-12.4-8.5-13.1-6.5c0,0-0.3,0.5,0.6,1.3l0,0c0.6,0.5,1.2,1,1.7,1.7
		c1,1.2,2.6,3.3,3.8,5.4c-4.3,1.7-9.2,2.6-14.2,3.1c0.1-0.2,0.1-0.5,0.1-0.7v-13.3h30v28.2c0,0,0,3.4-4,2.2c-4-1.2-8-1.3-7,0.4
		c0,0,3.6,2.9,6.9,4.6c3.1,1.7,11.4,3.1,13-2.9c0.1-0.2,0.1-0.3,0.1-0.5c0,0,0-0.1,0-0.1l0,0c0-0.1,0-0.2,0-0.3v-32.4
		c0,0,0-0.1,0-0.1c0-0.1,0-0.2,0-0.3c-0.1-0.6-0.4-1.1-0.8-1.4c-1.4-1.7-4.1-3.7-5.9-4c-2.8-0.5-8,2.7-8.8,3.3h-23.4v-9.9h16.7v4.2
		c0,0-0.7,2.6,4.1,2.6c4.8,0,4.9-2.6,4.9-2.6V82.5c5-0.5,14-6.4,16.3-10.1C333.8,68.2,331.6,65.7,331.6,65.7L331.6,65.7z
		 M263.2,80.7h17.1v11h-17.1V80.7z M288.9,80.7h16.9v11h-16.7v-9.7C289.2,81.5,289.1,81.1,288.9,80.7z M263.2,104.9V95h17.1v9.9
		H263.2z M289.2,104.9V95h16.7v9.9H289.2z"/>
	<path class="st0" d="M359.2,113.7C359.2,113.7,359.2,113.7,359.2,113.7l23.5,0v-3.2h0v-2.5c0,2.3-2.7,2.5-2.7,2.5h-17
		c0,0-2.3-0.2-2.6-2.1V87.4c0.4-1.3,2.1-1.5,2.1-1.5h18c0,0,2.2,0.2,2.2,2.1v-2h0v27.6h0.8c4.7,0,8.5-3.8,8.5-8.5V91.7v0V86h4.6
		c1.9-1.1-3.3-5.8-6.2-6.4c-2.7-0.5-7.8,2.6-8.7,3.2h-21.4c0.1-4.2,0.2-8.7,0.2-13.2v-0.1c0.3-2.3,4.4-2.5,4.4-2.5
		c12.3-1.4,21.7-5.2,24.3-6.8l5-3c0.9-0.5,0.9-1.9,0-2.4l-5.1-3.2c-3.5-1.8-6,0.6-8.2,2.4c-2.2,1.8-5.9,3.9-11.5,6.9
		c-5.6,3-8.9,2.7-8.9,2.7v0c-0.1,0-1.3-0.1-2.2-0.6h0c0,0-7.8-6.3-7,1.8l-0.1,53c0,0-3.6,29.7-7.9,36.3c0,0-1.7,4.2,2.1,1.4
		c0,0,8.7-7.3,13.2-35.7c0.2-1.4,0.4-2.7,0.4-4.1c0,0,0-0.1,0-0.1c0-1.8,2.3-2,2.3-2h0H359.2z M360.2,88.3c0-0.2,0-0.3,0-0.5V88
		c0-0.1,0-0.3,0.1-0.4C360.3,87.8,360.3,88,360.2,88.3z"/>
</g>
<g>
	<path class="st1" d="M127.1,181.5c-0.2-0.4-0.6-0.7-1-0.9c-0.4-0.2-0.9-0.3-1.3-0.3c-0.3,0-0.7,0-1,0.1c-0.3,0.1-0.6,0.2-0.9,0.4
		s-0.5,0.4-0.6,0.7s-0.2,0.6-0.2,1c0,0.3,0,0.5,0.1,0.8s0.2,0.4,0.4,0.6s0.5,0.4,0.8,0.5c0.3,0.2,0.8,0.3,1.3,0.5
		c0.5,0.2,1,0.3,1.4,0.5s0.9,0.4,1.2,0.7c0.3,0.3,0.6,0.6,0.8,1c0.2,0.4,0.3,0.9,0.3,1.6s-0.1,1.2-0.4,1.6c-0.2,0.5-0.6,0.9-1,1.2
		c-0.4,0.3-0.9,0.5-1.4,0.7s-1.1,0.2-1.7,0.2c-0.4,0-0.7,0-1.1-0.1s-0.7-0.2-1.1-0.3s-0.7-0.3-1-0.5c-0.3-0.2-0.6-0.5-0.8-0.8
		l1.3-1.1c0.3,0.5,0.7,0.8,1.2,1.1c0.5,0.2,1,0.4,1.6,0.4c0.3,0,0.7-0.1,1-0.1c0.3-0.1,0.6-0.2,0.9-0.4c0.3-0.2,0.5-0.4,0.7-0.7
		c0.2-0.3,0.2-0.6,0.2-0.9c0-0.4-0.1-0.7-0.2-1c-0.1-0.2-0.3-0.5-0.6-0.6s-0.6-0.3-1-0.5c-0.4-0.1-0.9-0.3-1.5-0.5
		c-0.5-0.1-0.9-0.3-1.3-0.5c-0.4-0.2-0.7-0.4-1-0.7c-0.3-0.3-0.5-0.6-0.7-1c-0.2-0.4-0.2-0.8-0.2-1.4c0-0.6,0.1-1.1,0.4-1.6
		s0.6-0.8,1-1.1c0.4-0.3,0.9-0.5,1.4-0.7c0.5-0.2,1.1-0.2,1.6-0.2c0.7,0,1.4,0.1,2,0.3c0.6,0.2,1.1,0.6,1.6,1.2L127.1,181.5
		L127.1,181.5z"/>
	<path class="st1" d="M140,179.2h2.2l4.3,10h0l4.4-10h2.2V192h-1.5v-10.7h0L147,192h-0.9l-4.6-10.7h0V192H140L140,179.2L140,179.2z"
		/>
	<path class="st1" d="M165.3,179.2h1.5V192h-1.5V179.2z"/>
	<path class="st1" d="M179,179.2h1.5v11.3h5.8v1.4H179V179.2L179,179.2z"/>
	<path class="st1" d="M196.9,179.2h8v1.4h-6.5v4h6.1v1.4h-6.1v4.5h6.8v1.4h-8.3V179.2L196.9,179.2z"/>
	<path class="st1" d="M229.7,179.2h1.5v5.4h6.8v-5.4h1.5V192H238V186h-6.8v5.9h-1.5V179.2z"/>
	<path class="st1" d="M257.6,192.3c-1,0-1.9-0.2-2.7-0.5c-0.8-0.3-1.5-0.8-2.1-1.4c-0.6-0.6-1.1-1.3-1.4-2.1
		c-0.3-0.8-0.5-1.7-0.5-2.7s0.2-1.9,0.5-2.7c0.3-0.8,0.8-1.5,1.4-2.1c0.6-0.6,1.3-1.1,2.1-1.4c0.8-0.3,1.7-0.5,2.7-0.5
		s1.9,0.2,2.7,0.5c0.8,0.3,1.5,0.8,2.1,1.4s1,1.3,1.4,2.1c0.3,0.8,0.5,1.7,0.5,2.7s-0.2,1.9-0.5,2.7c-0.3,0.8-0.8,1.5-1.4,2.1
		s-1.3,1.1-2.1,1.4C259.5,192.1,258.6,192.3,257.6,192.3z M257.6,190.9c0.7,0,1.4-0.1,2-0.4c0.6-0.3,1.1-0.6,1.6-1.1
		c0.4-0.5,0.8-1,1-1.7c0.2-0.6,0.4-1.3,0.4-2.1s-0.1-1.4-0.4-2.1s-0.6-1.2-1-1.7s-1-0.9-1.6-1.1c-0.6-0.3-1.3-0.4-2-0.4
		s-1.4,0.1-2,0.4c-0.6,0.3-1.1,0.6-1.6,1.1c-0.4,0.5-0.8,1-1,1.7c-0.2,0.6-0.4,1.3-0.4,2.1s0.1,1.4,0.4,2.1s0.6,1.2,1,1.7
		s1,0.9,1.6,1.1C256.2,190.8,256.9,190.9,257.6,190.9z"/>
	<path class="st1" d="M285.2,187.1c0,0.7-0.1,1.4-0.3,2c-0.2,0.6-0.5,1.2-0.8,1.6c-0.4,0.5-0.9,0.9-1.5,1.1
		c-0.6,0.3-1.4,0.4-2.2,0.4s-1.6-0.1-2.2-0.4c-0.6-0.3-1.1-0.7-1.5-1.1c-0.4-0.5-0.6-1-0.8-1.6c-0.2-0.6-0.3-1.3-0.3-2v-7.9h1.5v7.7
		c0,0.5,0,1,0.2,1.5c0.1,0.5,0.3,0.9,0.5,1.3c0.2,0.4,0.6,0.7,1,0.9s1,0.3,1.6,0.3s1.2-0.1,1.6-0.3c0.4-0.2,0.8-0.5,1-0.9
		c0.2-0.4,0.4-0.8,0.5-1.3c0.1-0.5,0.2-1,0.2-1.5v-7.7h1.5V187.1z"/>
	<path class="st1" d="M303.4,181.5c-0.2-0.4-0.6-0.7-1-0.9s-0.9-0.3-1.3-0.3c-0.3,0-0.7,0-1,0.1c-0.3,0.1-0.6,0.2-0.9,0.4
		s-0.5,0.4-0.6,0.7s-0.2,0.6-0.2,1c0,0.3,0,0.5,0.1,0.8s0.2,0.4,0.4,0.6s0.5,0.4,0.8,0.5c0.4,0.2,0.8,0.3,1.3,0.5
		c0.5,0.2,1,0.3,1.4,0.5s0.9,0.4,1.2,0.7c0.4,0.3,0.6,0.6,0.8,1s0.3,0.9,0.3,1.6s-0.1,1.2-0.4,1.6c-0.2,0.5-0.6,0.9-1,1.2
		c-0.4,0.3-0.9,0.5-1.4,0.7c-0.5,0.1-1.1,0.2-1.7,0.2c-0.4,0-0.7,0-1.1-0.1s-0.7-0.2-1.1-0.3s-0.7-0.3-1-0.5
		c-0.3-0.2-0.6-0.5-0.8-0.8l1.3-1.1c0.3,0.5,0.7,0.8,1.1,1.1c0.5,0.2,1,0.4,1.6,0.4c0.3,0,0.6-0.1,1-0.1c0.3-0.1,0.6-0.2,0.9-0.4
		c0.3-0.2,0.5-0.4,0.6-0.7c0.2-0.3,0.2-0.6,0.2-0.9c0-0.4-0.1-0.7-0.2-1c-0.1-0.2-0.3-0.5-0.6-0.6s-0.6-0.3-1-0.5
		c-0.4-0.1-0.9-0.3-1.5-0.5c-0.5-0.1-0.9-0.3-1.3-0.5c-0.4-0.2-0.7-0.4-1-0.7c-0.3-0.3-0.5-0.6-0.7-1c-0.2-0.4-0.2-0.8-0.2-1.4
		c0-0.6,0.1-1.1,0.4-1.6s0.6-0.8,1-1.1c0.4-0.3,0.9-0.5,1.4-0.7c0.5-0.2,1-0.2,1.6-0.2c0.7,0,1.4,0.1,2,0.3s1.1,0.6,1.6,1.2
		L303.4,181.5L303.4,181.5z"/>
	<path class="st1" d="M316.3,179.2h8v1.4h-6.5v4h6.1v1.4h-6.1v4.5h6.8v1.4h-8.3V179.2L316.3,179.2z"/>
</g>
<g>
	<path class="st1" d="M131.5,15.6l-0.7-1.9c0.6-0.2,1.5-0.6,2.7-1V6.5h-2.5V4.8h2.5V0.3h1.8v4.5h2.2v1.8h-2.2v5.4
		c0.5-0.2,1.2-0.5,2.1-0.9l0.4,1.7C135.7,13.7,133.6,14.6,131.5,15.6L131.5,15.6z M141.9,18.2c-1.3,0-2.1-0.2-2.6-0.6
		s-0.7-1.2-0.7-2.4V9.3l-1.4,0.6l-0.7-1.7l2.1-0.9V1.9h1.8v4.6l2.3-0.9V0h1.8v4.8l2.2-0.9l0.4-0.3l0.3-0.3l1.3,0.5l-0.1,0.3
		c0,4.2-0.1,6.6-0.2,7.3c-0.1,0.8-0.4,1.3-1.1,1.5c-0.4,0.1-1.1,0.2-1.9,0.2c-0.1-0.7-0.2-1.2-0.4-1.6c0.3,0,0.7,0,1.2,0
		c0.3,0,0.5-0.2,0.5-0.5c0.1-0.4,0.1-2.2,0.1-5.4l-2.4,1v7.3h-1.8V7.5l-2.3,1v6.7c0,0.6,0.1,0.9,0.3,1.1c0.2,0.2,0.6,0.2,1.2,0.2
		h4.4c0.5,0,0.9-0.2,1.1-0.6c0.2-0.3,0.3-1.1,0.4-2.2c0.5,0.4,1,0.6,1.7,0.7c-0.1,1.4-0.4,2.4-0.8,2.9c-0.4,0.5-1.2,0.8-2.2,0.8
		L141.9,18.2L141.9,18.2z"/>
	<path class="st1" d="M163.6,17.6v-1.9h7.4V0.3h2v6h7.3v1.9H173v7.6h8.7v1.9L163.6,17.6L163.6,17.6z"/>
	<path class="st1" d="M198.6,18.6V10c-0.7,2.1-1.4,3.8-2.1,4.9c-0.1-0.4-0.4-0.9-0.9-1.6c0.6-0.8,1.1-1.9,1.6-3.3
		c0.5-1.3,0.9-2.6,1.2-4h-2.4V4.3h2.5V0h1.7v4.3h2.1V6h-2.1V7c0.7,1,1.5,2.1,2.2,3.3l-0.9,1.3c-0.2-0.5-0.6-1.4-1.3-2.5v9.5H198.6
		L198.6,18.6z M203.7,18.6v-6c-0.3,0.4-0.7,0.7-1,1c-0.4-0.5-0.8-0.9-1.2-1.2c1.3-1.1,2.4-2.5,3.2-4.2h-1.5v-4h4.7v4h-2.1l0.7,0.2
		c-0.2,0.4-0.5,0.9-0.8,1.5h2.3c0.3-0.6,0.5-1.2,0.6-1.7l0.2,0v-4h4.8v4h-4.6l1.4,0.3c-0.3,0.6-0.6,1.1-0.7,1.4h4.3v1.2h-4.3v0.9
		h3.6v1.3h-3.6v1h3.6v1.2h-3.6v1h4.5v1.4h-8.8v0.7L203.7,18.6L203.7,18.6z M205.2,3.8V2.9h-2.9V1.5h2.9V0h1.7v1.5h2.8V0h1.7v1.5h3
		v1.4h-3v0.9h-1.7V2.9h-2.8v0.9C206.9,3.8,205.2,3.8,205.2,3.8z M204.6,7h1.8V5.4h-1.8V7z M205.4,12.1h2.5v-0.9h-2.5V12.1z
		 M205.4,14.3h2.5v-1h-2.5V14.3z M205.4,16.6h2.5v-1h-2.5V16.6z M210.2,7h1.9V5.4h-1.9V7z"/>
	<path class="st1" d="M231.5,18.6v-3.4h-3.3v-1.7h3.3v-1.4h-2.7V5h2.6V3.7h-3V2.1h3V0h1.6v2.1h3v1.6h-3V5h2.8v7.1h-2.8v1.4h3.2v1.7
		h-3.2v3.4L231.5,18.6L231.5,18.6z M230.2,7.9h1.5V6.4h-1.5V7.9z M230.2,10.8h1.5V9.2h-1.5V10.8z M233,7.9h1.5V6.4H233V7.9z
		 M233,10.8h1.5V9.2H233V10.8z M236,18.1v-1.6h4.6V13h-3.5v-1.6h9.3V13h-3.9v3.5h4.5v1.6H236L236,18.1z M238.4,10.9
		c-0.4-1.2-1.1-2.5-2.1-4.1c0.8-1.3,1.4-2.6,1.9-3.8l1.6,0.4c-0.4,0.9-1,2-1.8,3.4c0.9,1.3,1.6,2.5,2,3.5L238.4,10.9L238.4,10.9z
		 M236.6,2.5V0.9h10v1.6L236.6,2.5L236.6,2.5z M241.7,10.8c-0.5-1.2-1.2-2.5-2.3-4.1c0.9-1.4,1.5-2.6,2-3.7l1.6,0.4
		c-0.5,1-1.1,2.1-1.8,3.3c0.9,1.3,1.6,2.4,2.1,3.5L241.7,10.8L241.7,10.8z M245.2,10.9c-0.5-1.1-1.3-2.5-2.5-4.1
		c0.9-1.4,1.6-2.7,2.1-3.8l1.6,0.4c-0.4,0.7-1,1.8-1.9,3.3c1,1.3,1.8,2.5,2.2,3.5L245.2,10.9L245.2,10.9z"/>
	<path class="st1" d="M264.4,18.6v-4.2c-0.9,1.3-1.7,2.2-2.6,2.9c-0.3-0.5-0.7-0.9-1.2-1.3c0.6-0.4,1.2-0.9,1.9-1.6
		c0.6-0.7,1.2-1.4,1.6-2.1h-2.9v-1.5h3.2V9.3c-0.5,0-1.1,0.1-1.9,0.1c-0.4,0-0.7,0-0.9,0l-0.1-1.3l1.4,0c0.2-0.4,0.4-0.8,0.5-1.1
		h-2.3V5.8h1.6V0.6h7.6v1.1h-5.9v0.8h5.4v1h-5.4v0.7h5.4v1h-5.4v0.7h6.8V7H269c0.9,0.8,1.6,1.5,2,2.1l-1.2,0.6
		c-0.1-0.1-0.3-0.4-0.5-0.7c-0.5,0-1.1,0.1-2,0.1c-0.5,0-0.9,0.1-1.1,0.1v1.7h2.7v1.5h-2.7V13c0.3,0.2,0.8,0.6,1.5,1.1
		c0.7,0.5,1.1,0.9,1.3,1l-1,1.3c-0.3-0.4-0.9-1-1.8-1.9v4.1L264.4,18.6L264.4,18.6z M264.4,8.1l3.8-0.2c-0.3-0.3-0.5-0.5-0.7-0.6
		l0.6-0.3h-3.1c-0.1,0.1-0.2,0.2-0.3,0.4C264.6,7.7,264.5,7.9,264.4,8.1L264.4,8.1z M269.3,14.6c-0.5-0.5-1-0.9-1.2-1.1
		c1.1-0.8,1.9-1.9,2.3-3.2l1.6,0.4V9.5h4.2c0.2,0.8,0.7,1.4,1.3,2.1c0.6,0.6,1.3,1.1,2,1.4c-0.5,0.5-0.8,0.9-1.1,1.4
		c-1.5-0.8-2.6-2-3.3-3.4H272v-0.2c-0.3,0.7-0.7,1.5-1.1,2.1S269.9,14.1,269.3,14.6L269.3,14.6z M277.2,18.6
		c-0.1-0.2-0.2-0.5-0.5-0.9c-1.4,0.1-3.4,0.2-6.1,0.4c-0.9,0-1.5,0.1-1.9,0.1l-0.2-1.6h0.2c0.8,0,1.4,0,1.9-0.1
		c0.6-1.4,1.1-2.6,1.4-3.9l1.9,0.4c-0.6,1.4-1.2,2.5-1.6,3.3l3.4-0.2c-0.3-0.5-0.7-0.9-1.2-1.5l1.4-0.6c0.5,0.6,1.1,1.2,1.5,1.8
		c0.5,0.7,0.9,1.3,1.1,1.9L277.2,18.6L277.2,18.6z M271.9,9.3c-0.2-0.5-0.5-0.9-1-1.3c1.4-0.2,2.7-0.5,3.8-0.9
		c1.2-0.4,2.2-1,2.8-1.6l1.5,0.6C277.7,7.5,275.3,8.6,271.9,9.3L271.9,9.3z M272.2,3.5c-0.4-0.5-0.8-0.9-1.1-1.1
		c2.4-0.7,4.1-1.4,5.3-2.2l1.4,0.7C276.4,1.9,274.5,2.7,272.2,3.5z M272.5,6.2c-0.3-0.5-0.7-0.8-1-1.2c1.1-0.2,2.1-0.6,3-0.9
		c1-0.4,1.9-0.8,2.4-1.3l1.5,0.6C277.1,4.6,275.1,5.5,272.5,6.2L272.5,6.2z"/>
	<path class="st1" d="M294.8,18.7c-0.6-0.7-1.1-1.1-1.4-1.4c1.1-0.2,2.2-0.5,3.3-0.8c1.1-0.4,2-0.7,2.7-1.1l1.7,0.8
		c-0.8,0.5-1.8,1-3,1.5C297,18,295.9,18.4,294.8,18.7L294.8,18.7z M294.7,5.6V0.9h15.7v4.7H294.7z M295.9,15.3V6.6h13.4v8.8H295.9z
		 M296.5,4.1h2.9V2.3h-2.9V4.1z M297.8,9.1h9.6V7.8h-9.6V9.1z M297.8,11.6h9.6v-1.3h-9.6V11.6z M297.8,14.1h9.6v-1.3h-9.6V14.1z
		 M301,4.1h3V2.3h-3V4.1z M309.8,18.6c-1.6-0.8-3.5-1.6-5.8-2.3l1.5-1c2.4,0.7,4.5,1.5,6.3,2.3L309.8,18.6z M305.6,4.1h3.1V2.3h-3.1
		V4.1z"/>
</g>
<line class="st2" x1="452" y1="185.2" x2="352.9" y2="185.2"/>
<line class="st2" x1="102.3" y1="185.2" x2="3.1" y2="185.2"/>
<g>
	<path class="st1" d="M41.6,232.7c-1.9,6-4.6,11.4-8,15.9c1.3,3.3,2.8,5.3,4.3,5.3c1.1,0,1.7-2.3,1.9-8.1c1.2,1.3,3.2,2.5,4.7,3.1
		c-0.9,8.5-2.7,10.6-7,10.6c-3.2,0-5.8-2.3-7.8-6.1c-2.4,2.4-4.9,4.5-7.8,6.3c-0.8-1.2-2.8-3.5-4-4.5c3.6-1.9,6.8-4.5,9.4-7.5
		c-1.6-5.2-2.6-11.7-3.2-18.6H10.7v4.9h11.4c0,0,0,1.4,0,2.1c-0.1,9.7-0.4,13.8-1.5,15.2c-0.9,1.2-1.8,1.6-3.2,1.9
		c-1.2,0.2-3.2,0.2-5.3,0.1c-0.1-1.6-0.7-3.8-1.5-5.1c1.7,0.1,3.2,0.2,4,0.2c0.6,0,1-0.1,1.4-0.6c0.5-0.6,0.7-2.9,0.8-8.7h-6
		c-0.2,6.8-1.2,15.8-4.9,21.4c-1-1.1-3.4-3.1-4.7-3.8C4.6,251,4.9,243,4.9,237v-13.5h18.9c-0.1-2.3-0.2-4.5-0.2-6.8h5.8
		c0,2.3,0,4.6,0.1,6.8h7.1c-1.7-1.4-4-2.9-5.9-4l3.3-3.3c2.5,1.3,5.9,3.4,7.5,4.9l-2.2,2.4h4.8v5.5H29.8c0.4,4.6,1.1,9,1.9,12.7
		c1.8-3.1,3.3-6.5,4.4-10.3L41.6,232.7L41.6,232.7z"/>
	<path class="st1" d="M90.9,236.8c-1.8,1.4-3.9,2.9-6,4.3c1.8,5.5,5.5,10,10.8,12.2c-1.2,1-2.9,3.1-3.7,4.5
		c-5.6-2.6-9.2-7.6-11.5-13.9c-0.5,0.3-1,0.6-1.4,0.9c1.3,5.6,0.2,10.9-2.2,12.8c-1.6,1.7-3.1,2.1-5.5,2.2c-1,0-2.4,0-3.8,0
		c-0.1-1.5-0.6-3.7-1.5-5.2c1.6,0.2,3.1,0.2,4.2,0.2s1.8-0.1,2.5-1.1c0.8-0.7,1.3-2.4,1.3-4.7c-5.3,3.6-12.5,7-18.7,8.9
		c-0.6-1.3-1.8-3.3-2.9-4.6c7.3-1.6,16.2-5.6,20.8-9.4c-0.2-0.6-0.4-1.2-0.7-1.8c-4.6,2.9-11.4,5.9-16.6,7.5
		c-0.6-1.2-1.8-3.1-2.7-4.2c5.7-1.2,13.3-4.1,17.3-6.8c-0.4-0.5-0.8-1-1.3-1.5c-4,2.1-8.5,3.7-12.8,4.9c-0.5-1.1-1.9-3.2-2.8-4.3
		c5.2-1.1,10.7-2.8,14.9-5.1h-8v-4.7h25.8v4.7H76.3c-0.8,0.7-1.8,1.5-2.8,2.1c1.8,1.7,3.1,3.6,4.1,5.6c3.2-2.1,6.5-4.8,8.7-7
		L90.9,236.8L90.9,236.8z M59.3,230.7h-5.4v-10.4h16.7c-0.3-0.9-0.7-1.8-1.1-2.4l5.8-1.7c0.7,1.2,1.5,2.8,2,4.1h16.5v10.4h-5.6v-5.5
		H59.3L59.3,230.7L59.3,230.7z"/>
	<path class="st1" d="M112.6,240.9h-9.3v-4.8h9.3v-9.9h5v9.9h9.3v4.8h-9.3v9.9h-5V240.9z"/>
	<path class="st1" d="M175.3,230.4c-1.2,6.8-3,12.6-5.7,17.4c2.4,3.1,5.4,5.6,8.8,7.4c-1.2,1-2.9,3.1-3.8,4.5
		c-3.2-1.9-5.9-4.3-8.3-7.3c-2.4,3.1-5.5,5.6-9.1,7.6c-0.6-1.2-2.4-3.5-3.6-4.5c4-1.9,7.1-4.5,9.6-7.8c-1.8-3-3.2-6.4-4.4-10.1
		c-0.7,1.2-1.6,2.3-2.4,3.3c-0.6-1.1-2.2-3.1-3.3-4.3v23.2h-5.5v-11.9c-7.4,2.6-8.9,3.4-9.9,4.2c-0.4-1.3-1.3-3.8-2.1-5
		c0.9-0.5,1.7-1.4,1.7-3.3v-22.3h5.4v22.6l4.9-1.5v-25.3h5.5v18.2c3.6-4.5,5.7-11.5,6.8-19l5.6,0.9c-0.5,2.6-1,5.2-1.6,7.6H178v5.2
		L175.3,230.4L175.3,230.4z M162.3,230.4c-0.1,0.4-0.3,0.8-0.5,1.2c1.1,4,2.5,7.8,4.4,11.1c1.7-3.5,2.9-7.6,3.6-12.3L162.3,230.4
		L162.3,230.4z"/>
	<path class="st1" d="M201.1,247c-0.6-1.5-1.9-3.7-3.1-5.7v18.5h-5.2v-16.5c-1.5,3.5-3.1,6.7-4.9,9c-0.5-1.6-1.7-3.8-2.5-5.2
		c2.5-3,5.1-7.9,6.8-12.4h-6.2v-5.1h6.9v-5.2c-1.8,0.3-3.5,0.6-5.1,0.7c-0.2-1.2-0.9-3.1-1.5-4.2c5.3-0.8,11.1-2.2,14.9-3.8l3.1,4.5
		c-1.9,0.7-3.9,1.3-6.1,1.8v6.3h5.7v5.1H198v0.6c1.2,1.2,5.4,6.1,6.2,7.4L201.1,247L201.1,247z M228.8,253.3v5.1h-27.2v-5.1h4.4
		v-34.4h18.9v34.4L228.8,253.3L228.8,253.3z M211.2,224v6.2h8V224H211.2z M219.2,235.2h-8v6.5h8V235.2z M211.2,253.3h8v-6.7h-8
		V253.3z"/>
	<path class="st1" d="M269.3,230.7c-0.1,4.8-0.8,10.5-3.2,16c2.2,2.1,4.2,4,5.6,5.6l-3.6,4.6c-1.2-1.5-2.8-3.3-4.7-5.2
		c-1.9,2.9-4.4,5.6-7.9,8.1c-0.8-1.2-2.6-3-3.9-3.8c3.5-2.4,6-5.2,7.8-8.1c-2.4-2.2-4.8-4.4-6.9-6.2c0.7-2.8,1.5-6.3,2.2-10.1
		l-2.6,0.2l-0.5-5.2c1.2-0.1,2.5-0.1,3.9-0.1c0.5-3.3,0.8-6.7,1-9.7l5.5,0.2c-0.3,2.9-0.6,6.1-1.2,9.2l3.3-0.2v-2.9h5.1v2.6l2.4-0.1
		v4.9L269.3,230.7L269.3,230.7z M260,231.3c-0.5,3.1-1.1,6.1-1.7,8.7c1.2,1,2.4,2,3.6,3c1.6-4.2,2.1-8.4,2.3-12L260,231.3L260,231.3
		z M294.9,240.8h-9.2v13c0,2.8-0.6,4.2-2.5,5.1c-1.9,0.8-4.5,0.9-8.1,0.9c-0.3-1.5-1.1-3.8-1.9-5.2c2.3,0.1,5,0.1,5.7,0.1
		c0.8,0,1-0.2,1-0.9v-12.9h-9.7v-5.2h9.7v-4.4c2-1.8,4-4.4,5.6-6.8H272v-5h17.1l1.3-0.3l3.7,2.7c-2.2,3.4-5.2,7.3-8.5,10.3v3.5h9.2
		L294.9,240.8L294.9,240.8z"/>
	<path class="st1" d="M344.8,253.7v4.8h-41v-4.9h17.5v-4h-13.5V245h13.5v-3.5h5.6v3.5h14.1v4.7h-14.1v4L344.8,253.7L344.8,253.7z
		 M309.1,229.1h-5.1v-8.8h17.8c-0.4-1-0.8-2-1.2-2.8l5.4-1.6c0.8,1.3,1.6,3,2.1,4.4h16.5v8.8h-4.9v3.7H334c2.8,2.3,6,5.1,7.7,7.2
		l-4.4,3c-0.6-0.8-1.4-1.9-2.5-2.9c-20.7,1.7-23.2,1.9-25,2.6c-0.3-1-1-3.5-1.6-4.8c1-0.1,2-0.7,3.3-1.7c0.7-0.5,2.4-1.8,4.2-3.4
		H309L309.1,229.1L309.1,229.1z M309.3,225.3v2.8h29.5v-2.8H309.3z M331,236.4c-0.8-0.7-1.7-1.4-2.4-2l2.3-1.5h-8
		c-1.7,1.6-3.5,3.1-5.4,4.4L331,236.4L331,236.4z"/>
	<path class="st1" d="M393.7,232.7c-1.9,6-4.6,11.4-8,15.9c1.3,3.3,2.8,5.3,4.3,5.3c1.1,0,1.7-2.3,1.9-8.1c1.2,1.3,3.2,2.5,4.7,3.1
		c-0.9,8.5-2.7,10.6-7,10.6c-3.2,0-5.8-2.3-7.8-6.1c-2.4,2.4-5,4.5-7.8,6.3c-0.8-1.2-2.8-3.5-4-4.5c3.6-1.9,6.8-4.5,9.4-7.5
		c-1.6-5.2-2.6-11.7-3.2-18.6h-13.4v4.9h11.4c0,0,0,1.4,0,2.1c-0.1,9.7-0.4,13.8-1.5,15.2c-0.9,1.2-1.8,1.6-3.2,1.9
		c-1.2,0.2-3.2,0.2-5.3,0.1c-0.1-1.6-0.7-3.8-1.5-5.1c1.7,0.1,3.2,0.2,4,0.2c0.6,0,1-0.1,1.4-0.6c0.5-0.6,0.6-2.9,0.8-8.7h-6
		c-0.2,6.8-1.2,15.8-5,21.4c-1-1.1-3.4-3.1-4.7-3.8c3.5-5.6,3.8-13.6,3.8-19.6v-13.5h18.9c-0.1-2.3-0.2-4.5-0.2-6.8h5.8
		c0,2.3,0,4.6,0.1,6.8h7.1c-1.7-1.4-4-2.9-5.9-4l3.3-3.3c2.5,1.3,5.9,3.4,7.5,4.9l-2.2,2.4h4.8v5.5h-14.3c0.4,4.6,1.1,9,1.9,12.7
		c1.8-3.1,3.3-6.5,4.4-10.3L393.7,232.7L393.7,232.7z"/>
	<path class="st1" d="M408.3,229.6c-0.6,0.6-1.1,1.2-1.7,1.8c-0.5-1-1.8-3.1-2.6-3.9c2.8-2.6,5.3-6.6,6.6-10.7l4.2,1.2
		c-0.4,1.2-0.9,2.4-1.4,3.6h3.5c-0.4-1.1-0.9-2.3-1.4-3.4l4.5-1.2c0.7,1.4,1.6,3.2,2,4.6h3.4v3.5h-4.8v1.8h3.9v0.1
		c2.4-2.7,4.5-6.3,5.8-10l4.3,1.2c-0.4,1.2-0.9,2.4-1.5,3.6h3.6c-0.4-1.1-0.9-2.3-1.3-3.3l4.5-1.2c0.7,1.4,1.5,3.1,2,4.5h4.2v3.4
		h-5.7v1.8h4.5v3.2h-4.5v1.8h4.5v3.2h-4.5v1.8h6.3v3.4h-18.5v-10.4c-0.5,0.7-1.2,1.3-1.7,1.9c-0.4-0.6-1.2-1.7-1.9-2.6v0.8h-3.9v1.8
		h3.9v3.2h-3.9v1.8h5.2v3.4h-17.6L408.3,229.6L408.3,229.6z M442.3,244c-2.2,3.5-5.3,6.3-9,8.5c4.2,0.9,8.7,1.5,13.5,1.8
		c-1.2,1.3-2.7,3.7-3.4,5.2c-6.4-0.6-12.2-1.8-17.3-3.6c-5.8,2-12.3,3.3-19,4c-0.4-1.5-1.3-3.6-2.2-4.9c5-0.4,9.9-1.1,14.5-2.1
		c-2.6-1.5-4.9-3.4-6.9-5.4l2.1-1h-7.1v-4.4h30.2l1-0.2L442.3,244z M416.3,224.9H413v1.8h3.3V224.9z M416.3,229.8H413v1.8h3.3V229.8
		z M416.3,234.8H413v1.8h3.3V234.8z M418.8,246.4c2,1.6,4.6,2.9,7.6,4c2.6-1.1,4.9-2.4,6.8-4H418.8L418.8,246.4z M436,224.9h-3.2
		v1.8h3.2V224.9z M436,229.8h-3.2v1.8h3.2V229.8z M436,234.8h-3.2v1.8h3.2V234.8z"/>
</g>
<g>
	<path class="st1" d="M15.2,283c-1.5,9.1-5.1,16-9.9,19.5c-0.7-1-2.3-2.5-3.2-3.1c3.9-2.6,6.8-7.3,8.3-13.2H3.3v-4.1h8.5l0.8-0.1
		L15.2,283L15.2,283z M32.1,282.4c-2.5,2.5-5.5,5.3-7.9,7.2c2.6,3.9,6,7.1,10.3,9c-1,0.9-2.3,2.6-3,3.8c-4.8-2.5-8.4-6.7-11-11.7
		v9.7c0,2.3-0.4,3.5-1.8,4.3c-1.3,0.7-3.4,0.9-6.1,0.9c-0.2-1.2-0.9-3.3-1.5-4.5c1.9,0.1,3.7,0.1,4.3,0.1c0.6,0,0.8-0.2,0.8-0.8
		v-26.5h4.3v8.3c0.5,1.5,1.1,3,1.9,4.4c2.1-2,4.5-4.6,6-6.7L32.1,282.4L32.1,282.4z"/>
	<path class="st1" d="M46.5,288v2.9c0,4.3-0.6,10.4-3.9,14.3c-0.6-0.8-2.3-2.1-3.2-2.6c2.8-3.4,3.1-8.2,3.1-11.7v-6.3h27.9v3.5
		C70.4,288,46.5,288,46.5,288z M68.8,282.6H42.6v-7.5h4.1v3.9h6.7v-5.1h4.3v5.1h6.9v-3.9h4.3C68.8,275.1,68.8,282.6,68.8,282.6z
		 M70.8,299.3h-9.9v6.2h-4.3v-6.2h-9.6v-3.5h9.6v-2.5h-8.1v-3.4h20.8v3.4h-8.4v2.5h9.9C70.8,295.8,70.8,299.3,70.8,299.3z"/>
	<path class="st1" d="M84.3,285.4c2.4,0,4.3,2,4.3,4.3s-2,4.3-4.3,4.3s-4.3-2-4.3-4.3S81.9,285.4,84.3,285.4z"/>
	<path class="st1" d="M110.7,276.1c-2.5,5.6-6.4,11.3-10.1,14.8c-0.8-0.9-2.6-2.6-3.6-3.5c3.6-3,7.2-7.9,9.2-12.8
		C106.2,274.6,110.7,276.1,110.7,276.1z M120.2,291.6c2.7,3.7,5.9,8.5,7.5,11.7l-4.2,2.2c-0.4-1-1.1-2.1-1.8-3.3
		c-16.4,1.3-18.7,1.5-20.3,2.1c-0.3-0.9-1.1-3.1-1.7-4.3c1.1-0.3,2-1.2,3.4-2.7c1.4-1.5,5.7-7.2,8.3-12.8l4.7,2
		c-2.6,4.6-5.9,9.1-9.2,12.8l12.4-0.8c-1.1-1.7-2.2-3.5-3.2-5L120.2,291.6L120.2,291.6z M120.8,274.7c1.5,4.7,4.5,9.5,8.7,12.1
		c-0.9,0.9-2.4,2.8-3.1,4.1c-3.9-3-6.9-7.5-8.8-12h-5.4v-4.2C112.3,274.7,120.8,274.7,120.8,274.7z"/>
	<path class="st1" d="M164.8,275.2v30.4h-3.9v-1.2h-21.2v1.2h-3.8v-30.4H164.8L164.8,275.2z M160.9,300.7v-21.9h-21.2v21.9H160.9
		L160.9,300.7z M151.7,296.1c-0.1,0.8-0.1,1.9,0,2.4c-5.8,1.4-6.7,1.8-7.3,2.1c-0.1-0.6-0.6-1.7-0.9-2.1c0.5-0.2,1.1-0.6,1.1-1.9
		v-1.2c-0.9,0.3-1.8,0.6-2.7,0.9c-0.4-0.5-1.4-1.7-1.9-2.2c2.2-0.4,4.5-1.1,6.4-2h-3.9v-4.9h15.6v4.9h-7.3c-0.9,0.8-2.1,1.5-3.4,2.1
		v2.9L151.7,296.1L151.7,296.1z M159.7,286.4h-18.8v-2.2h7.6v-1.3h-6v-2.2h6v-1.4h3.7v1.4h6.2v2.2h-6.2v1.3h7.6V286.4z M145.9,290.4
		h8.7V289h-8.7V290.4z M160.1,294.1c-0.9,0.7-1.9,1.2-2.9,1.8c1.2,0.9,2.2,1.6,3,2.3l-2.6,1.5c-1.7-1.6-5.2-4.2-8.1-5.9l2.4-1.4
		c0.9,0.6,2,1.3,3.1,2c0.9-0.6,1.9-1.4,2.6-1.9L160.1,294.1L160.1,294.1z"/>
	<path class="st1" d="M200.7,301.1h12.5v3.6h-28.8v-3.6h12.1V297h-8.8v-3.5h8.8v-3.9h-7.1v-2.9c-1.5,1-2.9,1.8-4.3,2.5
		c-0.6-1-1.6-2.4-2.5-3.2c3.8-1.5,8-4.3,11.1-7.4h-4.5V275h11.6c2.9,4.3,8.3,8.5,14.1,10.6c-0.9,0.9-2.1,2.5-2.7,3.7
		c-1.5-0.7-2.9-1.5-4.3-2.4v2.8h-7.2v3.9h8.9v3.5h-8.9L200.7,301.1L200.7,301.1z M206.8,286.1c-3.1-2.2-5.9-4.8-8.1-7.4
		c-2.2,2.6-5.2,5.2-8.3,7.4H206.8z"/>
	<path class="st1" d="M251.1,301.1v3.6h-30v-3.6h12.8v-2.9h-9.9v-3.5h9.9v-2.6h4.1v2.6h10.4v3.5H238v2.9H251.1L251.1,301.1z
		 M225,283.1h-3.8v-6.5h13c-0.3-0.7-0.6-1.5-0.9-2l3.9-1.1c0.6,1,1.1,2.2,1.5,3.2h12.1v6.5h-3.6v2.7h-4c2.1,1.7,4.4,3.8,5.7,5.3
		l-3.2,2.2c-0.4-0.6-1.1-1.4-1.8-2.1c-15.1,1.2-17,1.4-18.3,1.9c-0.2-0.8-0.8-2.5-1.1-3.5c0.8-0.1,1.5-0.5,2.4-1.2
		c0.5-0.4,1.8-1.3,3.1-2.5h-5V283.1L225,283.1z M225.1,280.2v2.1h21.6v-2.1H225.1z M241.1,288.4c-0.6-0.5-1.2-1-1.8-1.5l1.7-1.1
		h-5.9c-1.2,1.1-2.6,2.2-3.9,3.2L241.1,288.4L241.1,288.4z"/>
	<path class="st1" d="M289.1,284.8v2.9h-19.2v-2.9h7.5v-1.5h-6.2v-2.7h6.2v-1.4h-7v-1.3c-0.9,2.2-1.8,4.6-2.5,6.2l-2.2-0.9v1.8h3.6
		v3.7h-3.6v2.4l1.4-1c0.7,0.8,3,4.1,3.5,4.9l-2.5,2.9c-0.5-1.3-1.6-3.6-2.4-5.1v12.6H262v-11.2c-0.8,2.9-1.8,5.7-3.2,7.4
		c-0.3-1.2-1.1-3-1.7-4.1c1.4-1.7,2.6-4.9,3.1-7.4l1.8,0.6v-1.9h-4.3v-3.7h4.3v-11.2h3.5v8.7c0.7-1.9,1.4-4.5,1.8-6.4l3,1v-0.8h7
		v-2.5h3.9v2.5h7.4v2.9h-7.4v1.4h6.7v2.7h-6.7v1.5L289.1,284.8L289.1,284.8z M259.1,284c-0.2-2-0.9-5-1.5-7.2l2.8-0.7
		c0.6,2.3,1.4,5.2,1.6,7.2L259.1,284z M287.5,301.9c0,1.7-0.3,2.6-1.5,3.1c-1.1,0.5-2.7,0.6-4.9,0.5c-0.1-1-0.6-2.3-1-3.2
		c1.2,0,2.7,0,3.1,0c0.4,0,0.6-0.1,0.6-0.5v-1.4h-9.2c-0.4,2-1.2,3.9-2.5,5.4c-0.6-0.7-2.1-2.1-2.8-2.5c2-2.4,2.2-5.6,2.2-8.2v-6h16
		L287.5,301.9L287.5,301.9z M283.7,297.8v-1.6H275c0,0.5-0.1,1.1-0.1,1.6H283.7z M275,292v1.6h8.7V292H275z"/>
	<path class="st1" d="M301.1,285.5c-0.4,2.6-1.5,4.6-4.5,5.9c-0.3-0.8-1.3-2-2-2.6c1.8-0.8,2.5-1.8,2.8-3.3h-2.2v-3h8.4v-1.5h-7
		v-6.6h3.4v3.4h3.6v-3.9h3.8v16.7h-3.8v-5.1L301.1,285.5L301.1,285.5z M324.6,296.6c-1.6,1.2-3.7,2.3-5.4,3.2c2,1.1,4.5,2,7.4,2.5
		c-0.8,0.8-1.8,2.2-2.3,3.2c-7-1.5-11.4-5-14-10.7h0c-1.2,1-2.6,1.9-4.3,2.7v3.7l6.8-1.3c-0.2,1-0.3,2.5-0.3,3.2
		c-8.6,1.8-9.9,2.1-10.7,2.6c-0.2-0.9-1-2.4-1.5-3c0.8-0.4,1.8-1.3,1.8-3v-0.6c-1.7,0.6-3.6,1-5.4,1.4c-0.4-0.8-1.4-2.1-2.1-2.9
		c3.6-0.5,7.3-1.6,10.2-2.9h-9.6v-3h13.2c-0.2-0.6-0.5-1.1-0.7-1.6l3.9-1.1c0.5,0.9,1,1.8,1.4,2.7H326v3h-3.8L324.6,296.6
		L324.6,296.6z M315,281.4h-6.6V278h6.6v-4.2h4v4.2h6.7v3.4H319v4.2h5.9v3.4h-15.6v-3.4h5.7V281.4z M314.2,294.8
		c0.6,1.1,1.5,2.1,2.4,3c1.6-0.9,3.4-2,4.7-3H314.2L314.2,294.8z"/>
</g>
<g>
	<path class="st1" d="M351,297.7l7.5-7.3c0.5-0.5,0.9-0.9,1.2-1.2s0.6-0.8,0.9-1.1s0.4-0.7,0.5-1.1c0.1-0.4,0.2-0.8,0.2-1.3
		c0-0.5-0.1-1-0.3-1.4s-0.4-0.8-0.8-1c-0.3-0.3-0.7-0.5-1.1-0.7s-0.9-0.2-1.4-0.2c-1,0-1.8,0.3-2.5,0.9s-1.1,1.4-1.3,2.3l-2.6-0.2
		c0.1-0.8,0.4-1.5,0.7-2.1c0.4-0.6,0.8-1.1,1.4-1.6c0.5-0.4,1.2-0.7,1.9-0.9c0.7-0.2,1.4-0.3,2.2-0.3s1.6,0.1,2.3,0.4
		c0.7,0.2,1.4,0.6,1.9,1c0.5,0.5,1,1,1.3,1.7c0.3,0.7,0.5,1.5,0.5,2.3c0,0.8-0.1,1.5-0.3,2.1c-0.2,0.6-0.5,1.2-0.9,1.8
		c-0.4,0.5-0.8,1-1.2,1.5c-0.5,0.5-0.9,1-1.5,1.4l-6.1,5.8v0.1h10.1v2.2H351V297.7L351,297.7z"/>
	<path class="st1" d="M371,288.8L371,288.8c0.4-0.1,0.9-0.3,1.4-0.4c0.5-0.1,1-0.1,1.4-0.1c0.9,0,1.7,0.1,2.4,0.5
		c0.7,0.3,1.4,0.7,1.9,1.3s1,1.2,1.2,2c0.3,0.8,0.5,1.6,0.5,2.5c0,1-0.2,1.8-0.5,2.6c-0.3,0.8-0.8,1.4-1.4,2c-0.6,0.5-1.3,1-2.1,1.2
		c-0.8,0.3-1.7,0.4-2.6,0.4s-1.8-0.1-2.6-0.4c-0.8-0.3-1.5-0.7-2.1-1.2c-0.6-0.5-1.1-1.2-1.4-2c-0.3-0.8-0.5-1.6-0.5-2.6
		c0-1.1,0.2-2.1,0.5-3c0.4-0.9,0.8-1.7,1.4-2.6l5.3-8.4h2.8L371,288.8L371,288.8z M373,290.2c-0.6,0-1.2,0.1-1.7,0.3
		c-0.5,0.2-1,0.5-1.4,0.8c-0.4,0.4-0.7,0.8-0.9,1.3s-0.3,1.1-0.3,1.7s0.1,1.2,0.3,1.8c0.2,0.5,0.5,1,0.9,1.3s0.8,0.6,1.4,0.8
		c0.5,0.2,1.1,0.3,1.7,0.3s1.2-0.1,1.7-0.3c0.5-0.2,1-0.5,1.4-0.8c0.4-0.4,0.7-0.8,0.9-1.3c0.2-0.5,0.3-1.1,0.3-1.8
		s-0.1-1.2-0.3-1.7c-0.2-0.5-0.5-1-0.9-1.3s-0.8-0.6-1.4-0.8C374.2,290.3,373.6,290.2,373,290.2z"/>
	<path class="st1" d="M382.1,292.6h6.9v2h-6.9V292.6z"/>
	<path class="st1" d="M402,293.6h2.9v2.2H402v4.5h-2.4v-4.5h-8.4v-2.6l7.9-12.7h2.9L402,293.6L402,293.6z M399.6,283.2L399.6,283.2
		l-6.4,10.4h6.4L399.6,283.2L399.6,283.2z"/>
	<path class="st1" d="M417.6,293.6h2.9v2.2h-2.9v4.5h-2.4v-4.5h-8.4v-2.6l7.9-12.7h2.9L417.6,293.6L417.6,293.6z M415.2,283.2
		L415.2,283.2l-6.4,10.4h6.4L415.2,283.2L415.2,283.2z"/>
</g>
<path class="st1" d="M429.5,285.7c-4.4,0-8,3.6-8,8s3.6,8,8,8s8-3.6,8-8S433.9,285.7,429.5,285.7z M434.5,295.7h-2.9v3.7h-1.4v-3.7
	h-2.9l0.2,0.9c-1.1,0.5-2.3,0.9-3.3,1.3l-0.5-1.4c0.4-0.1,0.8-0.2,1.3-0.4v-3.4H424v-1.3h1.1v-2.5h1.2v2.5h1v1.3h-1v3l1-0.3l0,0.3
	v-1.2h2.9v-3.8h-2.6v-1.3h6.5v1.3h-2.6v3.8h2.9L434.5,295.7L434.5,295.7z M427.9,291.3l1.1-0.3c0.3,0.9,0.5,1.9,0.6,2.6l-1.1,0.3
	C428.4,293.2,428.2,292.1,427.9,291.3L427.9,291.3z M434.1,291.2c-0.3,1-0.6,2-0.9,2.7l-1-0.3c0.2-0.7,0.5-1.9,0.6-2.7L434.1,291.2z
	"/>
<path class="st3" d="M345.1,273.3h95.7c3,0,5.4,2.4,5.4,5.4v22.1c0,3-2.4,5.4-5.4,5.4h-95.7c-3,0-5.4-2.4-5.4-5.4v-22.1
	C339.7,275.7,342.1,273.3,345.1,273.3z"/>
</svg>
