<svg width="624" height="218" viewBox="0 0 624 218" fill="none" xmlns="http://www.w3.org/2000/svg">
<path d="M66.86 216.66C67.85 216.64 68.55 216.62 68.55 215.32V205.98C68.55 204.68 67.84 204.66 66.86 204.64V204.16C67.74 204.18 68.59 204.2 69.43 204.2C70.27 204.2 71.14 204.18 71.79 204.16V204.64C71.08 204.66 70.38 204.68 70.38 205.98V215.32C70.38 216.62 71.09 216.64 71.87 216.66V217.14C71.18 217.14 70.38 217.1 69.56 217.1C68.67 217.1 67.79 217.12 66.86 217.14V216.66ZM74.83 206.09C75.03 205.89 75.52 205.4 75.52 205.07C75.52 204.64 74.98 204.64 74.48 204.64V204.16C75.28 204.18 76.1 204.2 76.88 204.2C77.49 204.2 78.07 204.18 78.67 204.16V204.64C77.63 204.64 77.01 204.81 75.34 206.56L72.16 209.89C74.04 211.96 75.86 214.06 77.8 216.07C78.42 216.67 79.01 216.67 79.4 216.67V217.15C78.8 217.13 78.19 217.11 77.59 217.11C77.14 217.11 76.7 217.13 76.25 217.15C74.41 214.92 72.4 212.85 70.46 210.69L74.83 206.09Z" fill="#E89213"/>
<path d="M99.27 210.03H101.73C103.24 210.03 103.24 208.86 103.29 208.43H103.66C103.62 208.84 103.59 209.84 103.59 210.51C103.59 211.11 103.68 211.98 103.66 212.58H103.29C103.29 210.79 102.69 210.79 101.26 210.79H99.27V213.95C99.27 216.02 99.34 216.54 101.19 216.54H102.34C104.16 216.45 104.98 216.2 105.71 214.21L106.16 214.28C105.86 215.21 105.58 216.16 105.4 217.13C103.54 217.13 101.68 217.09 99.82 217.09C98.44 217.09 97.07 217.09 95.69 217.13V216.65C97.31 216.65 97.46 216.35 97.46 214.55V206.29C97.46 204.76 97.16 204.69 95.69 204.63V204.15C96.94 204.19 98.2 204.19 99.45 204.19C101.24 204.19 103 204.19 104.81 204.15V206.92L104.44 207.01C104.16 205.26 103.33 204.74 101.46 204.74H99.28V210.03H99.27Z" fill="#E89213"/>
<path d="M125.91 210.03H128.37C129.88 210.03 129.88 208.86 129.93 208.43H130.3C130.26 208.84 130.23 209.84 130.23 210.51C130.23 211.11 130.32 211.98 130.3 212.58H129.93C129.93 210.79 129.33 210.79 127.9 210.79H125.91V213.95C125.91 216.02 125.98 216.54 127.83 216.54H128.98C130.8 216.45 131.62 216.2 132.35 214.21L132.8 214.28C132.5 215.21 132.22 216.16 132.04 217.13C130.18 217.13 128.32 217.09 126.46 217.09C125.08 217.09 123.71 217.09 122.33 217.13V216.65C123.95 216.65 124.1 216.35 124.1 214.55V206.29C124.1 204.76 123.8 204.69 122.33 204.63V204.15C123.58 204.19 124.84 204.19 126.09 204.19C127.88 204.19 129.64 204.19 131.45 204.15V206.92L131.08 207.01C130.8 205.26 129.97 204.74 128.1 204.74H125.92V210.03H125.91Z" fill="#E89213"/>
<path d="M148.89 204.15C149.73 204.19 150.57 204.19 151.4 204.19C152.03 204.19 152.68 204.15 153.47 204.15C155.39 204.15 158.14 204.95 158.14 207.85C158.14 210.05 156.09 211.57 154.14 211.57C153.77 211.57 153.47 211.55 153.19 211.55V210.94C153.43 210.98 153.65 210.98 153.9 210.98C155.5 210.98 156.21 209.4 156.21 208.06C156.21 205.47 154.4 204.75 153.18 204.75C152.9 204.75 152.56 204.77 152.36 204.81V215.32C152.36 216.62 153.07 216.64 154.07 216.66V217.14C153.16 217.14 152.36 217.1 151.54 217.1C150.65 217.1 149.77 217.12 148.84 217.14V216.66C149.83 216.64 150.53 216.62 150.53 215.32V206.46C150.53 205.03 150.29 204.64 148.89 204.64V204.16V204.15Z" fill="#E89213"/>
<path d="M204.74 217.14C203.16 217.1 201.59 217.1 200.01 217.1C198.43 217.1 196.72 217.1 195.08 217.14V216.66C196.01 216.72 196.77 216.47 196.77 215.41V205.97C196.77 204.67 196.06 204.65 195.08 204.63V204.15C195.96 204.17 196.81 204.19 197.65 204.19C198.49 204.19 199.36 204.17 200.29 204.15V204.63C199.3 204.65 198.6 204.67 198.6 205.97V214.59C198.6 215.97 198.9 216.54 201.54 216.54C203.7 216.54 204.44 216.02 205.02 214.21L205.43 214.28L204.74 217.13V217.14Z" fill="#E89213"/>
<path d="M228.82 203.88C232.54 203.88 235.46 207.04 235.46 210.58C235.46 214.12 232.83 217.43 228.76 217.43C225.04 217.43 222.12 214.27 222.12 210.73C222.12 207.19 224.75 203.88 228.82 203.88ZM228.99 216.83C231.71 216.83 233.42 214.48 233.42 211.12C233.42 208.29 231.78 204.48 228.6 204.48C225.88 204.48 224.17 206.82 224.17 210.19C224.17 213.02 225.81 216.83 228.99 216.83Z" fill="#E89213"/>
<path d="M253.93 209.72C253.47 208.53 252.92 207.32 252.5 206.11C252.07 204.99 251.77 204.64 250.54 204.64V204.16C251.42 204.18 252.29 204.2 253.17 204.2C253.95 204.2 254.75 204.16 255.53 204.16V204.64C255.25 204.66 254.99 204.66 254.73 204.7C254.47 204.72 254.25 204.87 254.25 205.15C254.25 205.76 255.24 208.01 255.44 208.55L257.92 214.91L259.33 211.23C259.78 210.02 260.3 208.83 260.69 207.62C260.88 207.02 261.27 206.11 261.27 205.5C261.27 204.63 260.53 204.68 259.86 204.64V204.16C260.58 204.18 261.33 204.2 262.06 204.2C262.64 204.2 263.21 204.18 263.79 204.16V204.64C263.16 204.64 262.8 204.92 262.54 205.37C262.43 205.57 261.16 208.79 261.12 208.89L257.72 217.43H257.03L253.94 209.72H253.93Z" fill="#E89213"/>
<path d="M283.34 210.03H285.8C287.31 210.03 287.31 208.86 287.36 208.43H287.73C287.69 208.84 287.66 209.84 287.66 210.51C287.66 211.11 287.75 211.98 287.73 212.58H287.36C287.36 210.79 286.76 210.79 285.33 210.79H283.34V213.95C283.34 216.02 283.41 216.54 285.26 216.54H286.41C288.23 216.45 289.05 216.2 289.78 214.21L290.23 214.28C289.93 215.21 289.65 216.16 289.47 217.13C287.61 217.13 285.75 217.09 283.89 217.09C282.51 217.09 281.14 217.09 279.76 217.13V216.65C281.38 216.65 281.53 216.35 281.53 214.55V206.29C281.53 204.76 281.23 204.69 279.76 204.63V204.15C281.01 204.19 282.27 204.19 283.52 204.19C285.31 204.19 287.07 204.19 288.88 204.15V206.92L288.51 207.01C288.23 205.26 287.4 204.74 285.53 204.74H283.35V210.03H283.34Z" fill="#E89213"/>
<path d="M337.47 206.59H336.97C336.92 205.59 336.97 204.92 335.48 204.92H332.65V215.32C332.65 216.62 333.36 216.64 334.34 216.66V217.14C333.45 217.14 332.65 217.1 331.83 217.1C330.94 217.1 330.06 217.12 329.13 217.14V216.66C330.12 216.64 330.82 216.62 330.82 215.32V204.92H328.38C326.71 204.92 326.63 205.38 326.32 206.59H325.84L326.05 203.63H326.42C326.63 204.13 327.13 204.15 327.59 204.15H336.04C336.71 204.15 337.17 203.98 337.25 203.63H337.64L337.47 206.59Z" fill="#E89213"/>
<path d="M360.3 203.88C364.02 203.88 366.94 207.04 366.94 210.58C366.94 214.12 364.31 217.43 360.24 217.43C356.52 217.43 353.6 214.27 353.6 210.73C353.6 207.19 356.23 203.88 360.3 203.88ZM360.46 216.83C363.18 216.83 364.89 214.48 364.89 211.12C364.89 208.29 363.25 204.48 360.07 204.48C357.35 204.48 355.64 206.82 355.64 210.19C355.64 213.02 357.28 216.83 360.46 216.83Z" fill="#E89213"/>
<path d="M396.39 207.48H395.98C395.5 205.32 393.69 204.47 391.61 204.47C388.32 204.47 386.42 207.35 386.42 210.39C386.42 213.61 388.39 216.83 391.74 216.83C393.21 216.83 393.97 216.31 394.25 216.1V213.33C394.25 211.97 393.54 211.97 392.56 211.97V211.49C393.44 211.51 394.29 211.53 395.13 211.53C395.97 211.53 396.84 211.51 397.4 211.49V211.97C396.78 211.97 396.08 211.97 396.08 213.33V215.77L396.36 216.05V216.37C394.85 216.91 393.14 217.43 391.52 217.43C386.29 217.43 384.37 213.34 384.37 210.67C384.37 206.76 387.4 203.88 391.29 203.88C392.95 203.88 394.53 204.31 396.07 204.88L396.39 207.49V207.48Z" fill="#E89213"/>
<path d="M417.22 210.03H419.68C421.19 210.03 421.19 208.86 421.24 208.43H421.61C421.57 208.84 421.54 209.84 421.54 210.51C421.54 211.11 421.63 211.98 421.61 212.58H421.24C421.24 210.79 420.64 210.79 419.21 210.79H417.22V213.95C417.22 216.02 417.29 216.54 419.14 216.54H420.29C422.11 216.45 422.93 216.2 423.66 214.21L424.11 214.28C423.81 215.21 423.53 216.16 423.35 217.13C421.49 217.13 419.63 217.09 417.77 217.09C416.39 217.09 415.02 217.09 413.64 217.13V216.65C415.26 216.65 415.41 216.35 415.41 214.55V206.29C415.41 204.76 415.11 204.69 413.64 204.63V204.15C414.89 204.19 416.15 204.19 417.4 204.19C419.19 204.19 420.95 204.19 422.76 204.15V206.92L422.39 207.01C422.11 205.26 421.28 204.74 419.41 204.74H417.23V210.03H417.22Z" fill="#E89213"/>
<path d="M451.6 206.59H451.1C451.04 205.59 451.1 204.92 449.61 204.92H446.78V215.32C446.78 216.62 447.49 216.64 448.47 216.66V217.14C447.58 217.14 446.78 217.1 445.96 217.1C445.07 217.1 444.19 217.12 443.26 217.14V216.66C444.25 216.64 444.95 216.62 444.95 215.32V204.92H442.51C440.84 204.92 440.76 205.38 440.44 206.59H439.96L440.17 203.63H440.54C440.74 204.13 441.25 204.15 441.71 204.15H450.16C450.83 204.15 451.29 203.98 451.37 203.63H451.76L451.59 206.59H451.6Z" fill="#E89213"/>
<path d="M478.85 210.03V205.97C478.85 204.67 478.14 204.65 477.16 204.63V204.15C478.15 204.17 479.02 204.19 479.91 204.19C480.71 204.19 481.53 204.15 482.37 204.15V204.63C481.38 204.65 480.68 204.67 480.68 205.97V215.31C480.68 216.61 481.39 216.63 482.37 216.65V217.13C481.53 217.11 480.69 217.09 479.86 217.09C479.03 217.09 478.13 217.11 477.16 217.13V216.65C478.15 216.63 478.85 216.61 478.85 215.31V210.79H471.33V215.31C471.33 216.61 472.04 216.63 473.02 216.65V217.13C472.13 217.13 471.33 217.09 470.51 217.09C469.62 217.09 468.74 217.11 467.81 217.13V216.65C468.8 216.63 469.5 216.61 469.5 215.31V205.97C469.5 204.67 468.79 204.65 467.81 204.63V204.15C468.68 204.17 469.54 204.19 470.38 204.19C471.22 204.19 472.09 204.17 473.02 204.15V204.63C472.03 204.65 471.33 204.67 471.33 205.97V210.03H478.85Z" fill="#E89213"/>
<path d="M502.31 210.03H504.77C506.28 210.03 506.28 208.86 506.33 208.43H506.7C506.66 208.84 506.63 209.84 506.63 210.51C506.63 211.11 506.72 211.98 506.7 212.58H506.33C506.33 210.79 505.73 210.79 504.3 210.79H502.31V213.95C502.31 216.02 502.38 216.54 504.23 216.54H505.38C507.2 216.45 508.02 216.2 508.75 214.21L509.2 214.28C508.9 215.21 508.62 216.16 508.44 217.13C506.58 217.13 504.72 217.09 502.86 217.09C501.48 217.09 500.1 217.09 498.73 217.13V216.65C500.35 216.65 500.5 216.35 500.5 214.55V206.29C500.5 204.76 500.2 204.69 498.73 204.63V204.15C499.98 204.19 501.24 204.19 502.49 204.19C504.28 204.19 506.04 204.19 507.85 204.15V206.92L507.48 207.01C507.2 205.26 506.36 204.74 504.5 204.74H502.32V210.03H502.31Z" fill="#E89213"/>
<path d="M528.94 211V215.32C528.94 216.62 529.65 216.64 530.63 216.66V217.14C529.74 217.14 528.94 217.1 528.12 217.1C527.23 217.1 526.35 217.12 525.42 217.14V216.66C526.35 216.72 527.11 216.47 527.11 215.41V205.97C527.11 204.67 526.4 204.65 525.42 204.63V204.15C526.44 204.17 527.34 204.19 528.25 204.19C528.9 204.19 529.55 204.15 530.74 204.15C534.26 204.15 535.04 206.12 535.04 207.44C535.04 209.02 533.85 210.19 532.4 210.62C534.09 213.1 534.99 214.58 535.79 215.48C536.39 216.15 536.94 216.65 537.89 216.65V217.13C537.42 217.13 536.96 217.09 536.49 217.09C535.97 217.09 535.43 217.11 534.91 217.13C533.22 215.27 531.97 213.09 530.63 210.99H528.94V211ZM530.06 204.75C529.6 204.75 529.28 204.81 528.94 204.86V210.31C529.22 210.37 529.61 210.4 529.93 210.4C532.22 210.4 533.11 208.89 533.11 207.55C533.11 205.93 532.25 204.74 530.06 204.74V204.75Z" fill="#E89213"/>
<path d="M128.73 131.81H74.08V167.21L58.47 173.56V131.8H1.63L0 126.9H58.46V99.3H6.35L4.72 94.4L72.08 94.58C75.35 89.86 78.46 83.93 81.43 76.79C84.39 69.65 86.6 62.75 88.06 56.09H3.09L1.46 51.19H58.47V25.23H13.26L11.63 20.33H58.47V0L74.08 6.35V20.33H114.02L121.1 17.06L117.11 25.23H74.08V51.37H124.19L131.27 48.1L127.27 56.09H88.42L102.76 65.17C99.97 70.01 96.01 75.19 90.87 80.69C85.72 86.2 80.55 90.83 75.35 94.58H118.74L125.82 91.31L121.83 99.3H74.08V126.9H125.64L132.72 123.63L128.73 131.8V131.81ZM43.85 70.17C49.12 74.47 53.2 79.04 56.11 83.88L41.4 93.14C39.58 84.91 37.62 78.13 35.5 72.81C33.38 67.48 30.45 62.82 26.69 58.83C32.86 62.1 38.58 65.88 43.85 70.18V70.17Z" fill="white"/>
<path d="M218.05 95.14L204.98 104.04C204.74 98.47 203.65 92.39 201.71 85.79C199.77 79.19 197.53 73.78 194.99 69.54L192.81 73.53L192.99 73.35V167.94L180.28 174.29V92.04C172.29 102.21 164.06 109.65 155.59 114.37C163.94 104.32 171.54 92.31 178.38 78.33C185.22 64.35 190.21 50.82 193.36 37.75H162.49L160.86 32.85H194.45L194.99 30.31L209.15 35.76C206.12 46.29 201.64 57.13 195.71 68.26C204.54 74.07 211.99 83.03 218.04 95.13L218.05 95.14ZM179.29 15.25C176.32 9.32 173.08 4.78 169.58 1.63C175.87 3.93 181.08 6.56 185.19 9.53C189.3 12.5 193.12 16.28 196.63 20.88L185.01 32.14C184.16 26.81 182.26 21.19 179.29 15.25ZM289.77 11.8L296.85 8.53L292.86 16.52H214.61L212.98 11.62L289.78 11.8H289.77ZM254.19 83.16C262.78 83.16 271.38 84.67 279.97 87.7L289.78 82.8V170.86L277.07 164.51V160.15H231.32V164.51L218.61 170.86V82.8L228.41 87.7C237 84.68 245.6 83.16 254.19 83.16ZM269.62 70.63V66.27H238.39V70.63L225.86 76.98V25.96L234.39 30.32C240.56 28.39 247.1 27.42 254 27.42C260.9 27.42 267.62 28.39 273.79 30.32L282.32 25.96V76.98L269.61 70.63H269.62ZM231.31 118.92H248.2V88.42C242.87 88.78 237.24 89.81 231.31 91.51V118.93V118.92ZM231.31 123.82V155.23H248.2V123.82H231.31ZM269.62 61.55V33.95C264.17 32.74 259.09 32.13 254.37 32.13C249.29 32.13 243.96 32.8 238.39 34.13V61.36L269.62 61.54V61.55ZM277.06 91.69C271.13 89.87 265.2 88.79 259.27 88.42V119.1H277.06V91.68V91.69ZM259.27 155.42H277.06V123.83H259.27V155.42Z" fill="white"/>
<path d="M456.08 119.47H402.34V128.55C402.34 136.9 401.16 143.95 398.8 149.7C396.44 155.45 392.54 160.32 387.09 164.32C381.64 168.31 374.2 171.76 364.76 174.67C371.05 170.55 375.75 166.65 378.83 162.96C381.92 159.27 384 154.94 385.09 149.98C386.18 145.02 386.72 138.24 386.72 129.65V119.48H323.17L321.54 114.58H386.72V112.4L400.15 106.95C409.23 99.69 417.09 92.55 423.75 85.53H332.24L330.61 80.63L428.11 80.81C431.01 77.3 432.71 75.24 433.19 74.64L443.9 87.71C439.78 90.98 433.91 94.61 426.29 98.6C418.66 102.6 410.67 106.17 402.32 109.31V114.76H452.98L460.06 111.31L456.07 119.48L456.08 119.47ZM322.27 19.61L390.72 19.79C386.48 14.83 382.64 10.98 379.19 8.26C375.74 5.54 371.59 3.33 366.75 1.63C373.29 1.39 379.61 1.93 385.72 3.26C391.83 4.59 397.31 6.65 402.15 9.43L395.98 19.78H451.18L458.26 16.51L454.27 24.5H323.91L322.28 19.6L322.27 19.61ZM422.13 67.9V65.36H357.86V67.9L343.88 74.25V33.04L354.05 37.76C366.4 35.1 378.62 33.77 390.73 33.77C402.84 33.77 414.88 35.04 426.13 37.58L436.3 33.04V74.25L422.14 67.9H422.13ZM422.13 60.46V41.58C411.96 39.64 401.13 38.67 389.63 38.67C378.13 38.67 367.66 39.64 357.86 41.58V60.46H422.13Z" fill="white"/>
<path d="M619.48 119.47H565.74V128.55C565.74 136.9 564.56 143.95 562.2 149.7C559.84 155.45 555.94 160.32 550.49 164.32C545.04 168.31 537.6 171.76 528.16 174.67C534.45 170.55 539.15 166.65 542.23 162.96C545.32 159.27 547.4 154.94 548.49 149.98C549.58 145.02 550.12 138.24 550.12 129.65V119.48H486.57L484.94 114.58H550.12V112.4L563.56 106.95C572.64 99.69 580.5 92.55 587.16 85.53H495.65L494.02 80.63L591.52 80.81C594.42 77.3 596.12 75.24 596.6 74.64L607.31 87.71C603.19 90.98 597.32 94.61 589.7 98.6C582.07 102.6 574.08 106.17 565.73 109.31V114.76H616.39L623.47 111.31L619.48 119.48V119.47ZM485.67 19.61L554.12 19.79C549.88 14.83 546.04 10.98 542.59 8.26C539.14 5.54 534.99 3.33 530.15 1.63C536.69 1.39 543.01 1.93 549.12 3.26C555.23 4.59 560.71 6.65 565.55 9.43L559.38 19.78H614.58L621.66 16.51L617.67 24.5H487.31L485.68 19.6L485.67 19.61ZM585.53 67.9V65.36H521.26V67.9L507.28 74.25V33.04L517.45 37.76C529.8 35.1 542.02 33.77 554.13 33.77C566.24 33.77 578.28 35.04 589.53 37.58L599.7 33.04V74.25L585.54 67.9H585.53ZM585.53 60.46V41.58C575.36 39.64 564.53 38.67 553.03 38.67C541.53 38.67 531.06 39.64 521.26 41.58V60.46H585.53Z" fill="white"/>
</svg>
