<?xml version="1.0" encoding="utf-8"?>
<!-- Generator: Adobe Illustrator 26.5.0, SVG Export Plug-In . SVG Version: 6.00 Build 0)  -->
<svg version="1.1" id="圖層_1" xmlns="http://www.w3.org/2000/svg" xmlns:xlink="http://www.w3.org/1999/xlink" x="0px" y="0px"
	 viewBox="0 0 708 243" style="enable-background:new 0 0 708 243;" xml:space="preserve">
<style type="text/css">
	.st0{fill:none;stroke:#002200;stroke-width:34;stroke-linecap:round;stroke-linejoin:round;stroke-miterlimit:10;}
	
		.st1{fill-rule:evenodd;clip-rule:evenodd;fill:none;stroke:#002200;stroke-width:16;stroke-linecap:round;stroke-linejoin:round;stroke-miterlimit:10;}
	
		.st2{fill-rule:evenodd;clip-rule:evenodd;fill:none;stroke:#002200;stroke-width:36;stroke-linecap:round;stroke-linejoin:round;stroke-miterlimit:10;}
	
		.st3{fill-rule:evenodd;clip-rule:evenodd;fill:none;stroke:#002200;stroke-width:25;stroke-linecap:round;stroke-linejoin:round;stroke-miterlimit:10;}
	.st4{fill-rule:evenodd;clip-rule:evenodd;fill:none;stroke:#FF60FF;stroke-width:0.1;stroke-miterlimit:10;}
	
		.st5{clip-path:url(#SVGID_00000034075587404778186960000006978974907201719230_);fill-rule:evenodd;clip-rule:evenodd;fill:none;stroke:#002200;stroke-width:29;stroke-linecap:round;stroke-linejoin:round;stroke-miterlimit:10;}
	
		.st6{clip-path:url(#SVGID_00000034075587404778186960000006978974907201719230_);fill-rule:evenodd;clip-rule:evenodd;fill:none;stroke:#002200;stroke-width:36;stroke-linecap:round;stroke-linejoin:round;stroke-miterlimit:10;}
	
		.st7{clip-path:url(#SVGID_00000034075587404778186960000006978974907201719230_);fill-rule:evenodd;clip-rule:evenodd;fill:none;stroke:#002200;stroke-width:30;stroke-linecap:round;stroke-linejoin:round;stroke-miterlimit:10;}
	
		.st8{clip-path:url(#SVGID_00000129178762460618416850000003680516784115677593_);fill-rule:evenodd;clip-rule:evenodd;fill:none;stroke:#002200;stroke-width:42;stroke-linecap:round;stroke-linejoin:round;stroke-miterlimit:10;}
	
		.st9{clip-path:url(#SVGID_00000129178762460618416850000003680516784115677593_);fill-rule:evenodd;clip-rule:evenodd;fill:none;stroke:#002200;stroke-width:30;stroke-linecap:round;stroke-linejoin:round;stroke-miterlimit:10;}
</style>
<path class="st0" d="M253.4,194.4c-2.3,14.4-23,44.4-65.5,8.8c-35-29.3,53.8-44.2,96-45.2"/>
<path class="st1" d="M335,67.9c-0.7,15.2,0.6,35.3,7.4,27c8.4-10.3,20.3-9.9,20.3-9.9c-8.1,9.3-44.2,40.6-44.3,55.8
	c0,7.7-2.4,14.3,13,27.7c-5.7-17.5,0.7-54.8,21.6-58.2c16.9-2.8,11.3,51.8,8.3,56.2"/>
<path class="st1" d="M341.3,126.8c5,6.6,10.4,12.5,17.7,9.3c-16.5,1.3-25.3,10.5-3.6,14.5c-8.8,0.3-19.4,6.4-20.4,9.2
	c-1,2.9,13.7,7.5,8.4,12.8"/>
<path class="st1" d="M288.6,186c26.6,10.7,74.1-13.3,99.9-19.5"/>
<path class="st1" d="M301.9,205.8c8.3,3.1,16.4,5.2,33-6.1c9.3-6.3,24.9-29,53.7,14.8c2.7,4-13.5,10.9-24.8-7.4"/>
<path class="st2" d="M446.4,47.5c1.5,28.1-16.2,24.9-23.5,53c17.7-3,36-26.9,67.1-26.9c-10.5,5.9-47.1,31.8-62.1,40.8
	c-11.1,6.7-10.5,24.1,1,47.2"/>
<path class="st3" d="M438.3,146.9c9-16.9,33.1-19.8,42.5-23.3c-26.9,12.3-91.7,54.7-84.9,62.7c8.7,10.2,38.3,3.7,53.9-3.7
	c17-8.1,33.1-4.6,66-10.9c-16.8-13.8-18.5-16.3-18.5-16.3"/>
<path class="st4" d="M262.4,175.9c1.6-0.6,1-2.7,2.3-2.9c6.8-1.1,18.5,0.2,17.9-2.3c8.2,0.7,13.2-3.5,11.5-16.7
	c1.1,0,1.7-1.1,1.8-2.8c-3.2-1.1-7.3-2.2-7.5-5.2c-11.3-2.6-33,0.3-34,1.7l-29.4,6.8c-38.7,12.8-48.3,13.7-57.5,29.5
	c-4.8,8.2,1.5,10.5-1.2,14.3c0,5.4,3.3,1.6,4.6,5.2c5.1,1.1,19.2,12.4,24,19.3c6.2,0.4,7.6,4.5,10.5,6.6c6.5-0.7,17.6,2.4,20.7,5.2
	c4.5,0.4,7.3-0.1,10.9,0c2.9-9,12.3-10.6,16.1-17.3c8.3-8.7,11.5-17.5,12.1-29.4l-24.2-3.9c1.2,13.9-15.9,27.5-30.5,17.8
	c-4.2,0.5-3-1.7-9.2-2.9c-0.3-1.3-0.7-1.9-3.5-2.3c0.1-1.4-4-4.9-2.3-8.9c0.7-1.6,2.6-2.3,5.5-2c1.6-2.5,6.7-2.8,7.7-2.9
	c1.5-1.1,7.1-1.5,13.3-2.5c6.4-1.1,13.4-2.8,17.3-2.7C248,175.9,255.7,175.2,262.4,175.9z M362.1,117.8c0-4.4-2.3-7-4.9-8
	c-1.5-0.6-4.1,2.2-7.2,2.8l0,1.2c-3.7,0.8-8.3,6.9-8.6,10.4c-0.8-0.4-2.2,2-2.9,2.9c-3-0.3-3.2-0.9-2.9-5.8
	c1.5-4,14.1-20.8,22.5-21.9c0.2-0.7,1.1-1.8,3-1.7c1-1.2,3.7-2.8,4.5-2.9c0.4-1.5,0.3-5,3.5-8.1c-0.1-3.3-0.8-3.9-8.1-2.5
	c-2.1,0.4,2.2,1.2-5.7,3c-0.6,1.9-3.5,0.6-4.7,2.4c-1,1.5-3,2.1-4.7,1.8c-2.7-0.6-4.1-4.2-5-7c-2.9-8.8-6.3-10.4-12.1-7.5
	c0.3,3.8-0.9,6,2.9,10.4c-0.8,2.8,2.3,11.7,7.5,15c2.2,5,0.3,1.2-0.3,5.4c-1.2,0.4-1.6,0.7-2,4.4c-5.7,11.5-9.1,16.6-12.6,17.2
	c-0.4,3.9-1.6,4-2.1,6.4c-0.5,2.2-0.3,4.5-1.3,5.1c1.1,5.7,2.4,13.3,5.7,17.3c2.5,3.9,1.4,11.5,5.8,15.6c-0.2,5.4-7.6,4.8-11.5,5.8
	c-7.6,2.9-16.5,7-27.1,6.9c-5.9,5.1,2.8,8.9,7.5,10.4c12-0.4,23.3-5,31.7-8.6c6.6,0.5,10-2.9,16.7-2.3c4.4-2.9,9.7-1.9,14.4-3.4
	c1.3-3.4,4.7-1.4,7.5-2c2.1-1.2,3.9-2.9,6.6-2.5c1.6-1.5,3.8-1.8,5.8-2.7c1.6-1.5,8.9-3.6,8.3-6.6c1.7,0.4,0.6-1.8-2.3-3.4
	c0.2-0.7-0.4-2,0.6-1.7c0.2-1.8-0.4-2.8-1.1-3.5c-12.3,0.4-20.8,8.9-25.3,4.6c0.9-10.7-0.1-40.1-1.1-46.7H362.1z M327.5,149.6
	c0,1.6-0.8-0.5-1.7-0.6c-1.1-3.7-1-7.8-1.7-6.9c2.4-3.2,1.4-5.8,2.8-6.2C329.3,135.2,329.2,147.2,327.5,149.6z M336.7,151.3
	c-0.4-1,1.3-0.4,1.7-0.6c0.3,2.2,1.8,1.9,2.3,2.3C341.3,158.7,333,159.7,336.7,151.3z M340.8,167.4c-2.7,0-5.7-3.2-4-5.8
	C339.6,161.5,342.6,164.6,340.8,167.4z M339,142.6c-1.5-3.5,0.1-5.8,3.5-5.2C342.6,140.7,342,142.4,339,142.6z M355.2,161.1
	c-1.2-0.9-0.3,6.8-0.6,6.9c-0.9,0.3-3.8,5.4-5.2,2.9c-5.2-1.4,5.3-6.6-4-8.1c-0.5-2.8,3-3,5.2-2.9
	C351.6,157.2,356.4,157.4,355.2,161.1z M356.3,155.3c-4.4,0-6.6-1.9-9.8-4.3c-5.2-3.9-3.5-5.7,0.6-8.3c2.9,1.5,6.5,1,9.2,2.3
	C356.9,147,357.5,150.4,356.3,155.3L356.3,155.3z M356.9,128.2c-2.1,4.8-12.1,1.2-13.2-2.9C350.9,114.9,356.5,112.8,356.9,128.2z
	 M376.5,192.8c-0.2,1.7,1.5,1.6,2.9,2.3c-0.1,3.2,6.3,7,8.4,8.1c17.2,8.7-3.3,35.2-18.2,15c-3.5-0.3-11.7-19.3-2.9-11.5
	c0.6,2.7,4.5,0.8,5.8,0.6c0.8-4.5-3.3-6.7-4-6.9c1.1-1.4-3.8-4.9-5.8-6.9C363.1,187.2,372.3,191.1,376.5,192.8z M330.1,199.9
	c-4.2,0.8-8.1,3.3-12.7,3.5c-3.3,1.3-7.4-0.7-10.2,1.8c0.6,3.6,2.8,7.1,4.5,9.4c3.4-0.2,6.9-0.1,10.3-0.3c2.3-2.9,6.6-3.1,9.3-5.5
	C334.7,205.3,337.9,198.8,330.1,199.9z M443.9,140.3c3.6-4,7.7-5.5,10.9-8.6c6.2,0.3,5.2,0.6,5.2,2.9c-3.8,0.4-3.8,0.4-5.2,2.9
	C451.5,136.8,444.9,146.8,443.9,140.3z M478.4,133.7c1.8-3.4,4.6-5.9,8.8-7.2c0.4-1.5,1.8-1.8,4.6-3.5c-1-3.2-0.7-6.7-5.8-8.6
	c-4.6-3.9-16.4,1.4-30,8.9c-1.7,1.8-2.6,1.3-5.1,1.4c-1.3,1.7-6.3,3.3-6.9,0.6c2.3-2.7,5.5-3.8,7.5-6.3c3.3,0.5,4.6-3.1,7.3-3.9
	l18.6-13.7c1.1-1.5,4.9-3,13-7.2c4.3-2.3,12.9-6.5,14-12.6c-1.1,0.5-0.4-2-0.6-2.3c-0.9-0.6-2.1-1-1.7-2.3c-1.8-1.8-2.8-1.2-4.6-3.5
	c-10.9-0.7-14.1,1.7-20.8,3.8c-7.4,2.8-18.5,5.3-23,7.2c-0.2,1.7-2.7,1.8-4,1.7c-0.9-1.8-0.3-4.2,1.7-4c1-3.7-0.4,1.9,6.9-5.8
	c-3.8-9.6,11.9-9.4-7.8-25.7c-8.3-6.8-14.9-0.6-20.4-0.8c-1.9,5.2-3.7,10.2-4,20.2c-1.6-0.7-1.1,7.3-1.2,8.6c-2,4.5-7.1,9-9.2,13.8
	c-3.9,10.1,3.7,32.2,17.3,21.3c1.4,0.4,1.7-0.7,2.9-0.6c1.8-2.8,8.7-1.1,10.9-4c4.2-0.4,11.9-13.2,11.5-2.3
	c-4.5,7.9-12.9,12.7-20.4,17.8c-6-1.1-2.9,3.9-7.2,5.2c-16.7-2-20.2,11.6-14,18.9c4.8,5.5,3,18.4,7.1,24.9c-0.7,3.6-1.7,4-1.7,5.2
	c-9.8,0.4,1.1,3-19.1,2.3c-23.9-0.9,0,31.9,12.8,19.6c3-2.9,7.1-4.9,10.2-7c8-5.4,19.7-13.2,31.8-11.4c5.3,1.4,9.2-3.4,18.4-5.8
	c8.8-2.4,14.2-1.2,27.7-1.1c1.1,0.7,3.9,0.4,4.2,1.8c2.3,0.7,4.3-1.6,6.4-1.1c0.7,0.4,3.1,0.1,3.2-0.9c1.4-0.1,3,0.5,4.4,0.1
	c1.3-1.2,3.7-1.9,4.7-3.3c-0.1-2,1.2-5.5-1.5-6.5c-1.6,0.2-1.6-1.4-2.3-2.3c-1.6-0.2-2.8-1.5-4.1-2.3c-3.4-0.6-4.4-0.8-10.7-0.7
	c-1.9-1.4-4.1-2.3-5.4-4.5c-1.5,0.4-2.9-1.5-4-2.9c-6.1,0.1,3.9,5.6,0.6,8.6c-0.4,2.4-2.4,1.7-4.2,1.5c-5.7,0.3-11.3,2.7-17.1,2.5
	c0-0.8-0.6-1.2-1.7-1.1c-4.3,1.6-9.2,3.1-18.9,4.7c-2.6,2.8-6.8,4.1-12.8,4.5c-2.4,2.4-8.4,3-11.5,1.7c-0.8-2.9,7.2-2.4,8.6-5.8
	c3.6-1.9,2.7-6.4,4.6-8.1c-0.1-3.4-1.8-8.4-1.1-12.1c5.6-6.5,13.3-12,16.4-9.8C466.9,137.1,476.2,137.1,478.4,133.7z"/>
<g>
	<defs>
		<path id="SVGID_1_" d="M476.2,164.5c-1.1-7.4-0.9-25.2,2.2-30.8c6-8.8,9.4-15.8,7.6-19.2c-6-9.1-10.1-11-8.6-13
			c-0.6-5.8-6.8-1.2-18.6,13.7c4.6,0.4-0.6,8-2.8,8.2c4.9,3.7,4.1,14,5.5,16.4c1.9,1.3,2.1,5.5-0.9,13.8c0.6,7.5-0.3,12.5-3.3,15.6
			c-1.3,2.4-1.2,8.5,0.5,13.2c4.2,17.3-0.9,7.5,0.6,35.7c-0.8,0.5-0.8,1.5,0,1.1c0.3,1.2-0.6,9.3,0.6,8.1c-0.3,6.6,1.1,4.3,2.3,9.8
			c4.1,0.1,8,2.3,10.4,5.2c8.2,2.3,0.6-36.3,3.5-45.5c-1.3-10.6,0.3-16.4,1.1-20.2C476.2,173.8,476.2,169.8,476.2,164.5z M581,106.9
			c2,3.5,2,6.4,5.2,8.6c-0.2,1.5,1.3,3.4,2.3,4c0.5,2,0.5,3.8,2.3,4.6c1.9,6.3-1.5,12.5-7.2,15.5c-1.3,4.3-6.4,7.9-6.8,12.9
			c-7.1,2.5,6.9,27.2,4.6,35.2c-0.3,5.4-7.7,5.4-8,10.6c0,0.1,0,0.6,0,0.6c-2.5,2.1-3.5-5.3-4.2-6.8c-1.6,0-2.2-1.2-3.6-1.7
			c-1.9-1-2.1-3.7-4.1-4.8c-0.1-1.6,0.7-16.7-3-12.5c-0.5,0.4-1.3,0-1.8,0.3c-1,0.8-2,1.9-3.1,2.6c-10,12.6-23.4-4.6-21.7-17.3
			c2.3-8.6,11.1-4.8,13.8-12.7c7.7-6.6,14.9-16.7,23-23.6C572.1,118,575.8,107.6,581,106.9z M622.9,101c0.4-0.9,1.5-0.7,3.6,1.3
			c4,0.8,6.6,3.1,10.4,4c-0.2,3.6-0.5,2-2.3,3.5c-1.6,2.5-6.6,8-9.2,5.8l-7.9,8.3c-0.5,1.7-3.6,3-4.8,4.5c-2.3,2.9-6,3.9-8.8,6.2
			c-0.9,1-3,3.2-4.5,2.7c-0.9-0.3-1.6,1.3-2.1,1.7c-1,1.6-1.2,5.4-0.1,7.2c8.7,9.5,17.8-1.6,25.5,0.9l15.4-10.7
			c6.6-8.6,25.8-14,14.4-28.8c-2.3-3.3-4-6.5-7.5-8.8c-8-1.9-16.2-4-24.1-6.3c-1.4-0.5-2.4-1.1-3.2-1.7
			C614.2,88.8,612.9,97,622.9,101z"/>
	</defs>
	<clipPath id="SVGID_00000002365220223022843640000012602241155060364937_">
		<use xlink:href="#SVGID_1_"  style="overflow:visible;"/>
	</clipPath>
	
		<line style="clip-path:url(#SVGID_00000002365220223022843640000012602241155060364937_);fill-rule:evenodd;clip-rule:evenodd;fill:none;stroke:#002200;stroke-width:29;stroke-linecap:round;stroke-linejoin:round;stroke-miterlimit:10;" x1="472.4" y1="92" x2="467.6" y2="229"/>
	
		<path style="clip-path:url(#SVGID_00000002365220223022843640000012602241155060364937_);fill-rule:evenodd;clip-rule:evenodd;fill:none;stroke:#002200;stroke-width:36;stroke-linecap:round;stroke-linejoin:round;stroke-miterlimit:10;" d="
		M584.9,100.5c-2.9,21-31,52.6-40.2,62.5c16.8-30,24.4,15.1,24.6,22.5"/>
	
		<path style="clip-path:url(#SVGID_00000002365220223022843640000012602241155060364937_);fill-rule:evenodd;clip-rule:evenodd;fill:none;stroke:#002200;stroke-width:30;stroke-linecap:round;stroke-linejoin:round;stroke-miterlimit:10;" d="
		M599.9,147.7c6.4-1.4,54.9-33.1,51.1-36.6c-4.7-4.3-29.8-16.2-29.8-16.2"/>
</g>
<g>
	<defs>
		<path id="SVGID_00000034075119031813243550000000649278289695376259_" d="M622.7,147c2.9,0.9,5.5,3.7,7.9,10.1
			c7.5,16.3,15.7,32.9,23,48.9c2.8,5.5,5.5,18.2,13.2,21.9c2.9,3.2,12.5,12.4,16.7,6.9c5-0.4,11.8-10.2,14-15
			c2.8-6.1,3-36.4,1.5-36.8c-6.5-9.3-5.5-10.7-3.5-18.4c-1.5-0.1-0.5-4-1.1-7.5c-3.3,1.2-0.7,7.9-2.3,10.4c-0.9-0.7-1.7,7.2-1.7,8.1
			c-15.3,30.1-18.6,34.2-35.1,1.7c-7.4-14.5-18.6-26.6-17.2-40.9l-12.8-20.7c0-1.8-3.5-12.1-2.4-14.5c0.4-1.8-3.7-5.7-5.2-10.4
			c-3.5-2.8-2.7-6.6-7.5-8.7c-3.4-1.9-7.8-6.2-11.6-3.1c-1.2,1.2-0.8,1.7,0.2,2.9c0,10.7,8.2,3.5,6.4,16.6c4.6,1.5,5.5,8.2,6.8,12
			c1.4,3.9,3.7,7.6,4.7,11.6c0.6,0.7,0.8,1.4,0.6,1.9L622.7,147z M703.9,80.3c-2.7,2-6.9,2.7-10,1.8c-1.3-2.6-3.9-3.4-6.7-3.3
			c-4.4-0.4-8.8,0.2-12.5,2.6c-3,0-3.7-0.8-4.7-3.5c2.3-0.7,4.1-2,6.1-3.3c1.9-8.4-11.5-6.9-14.8-12c-0.9-4.4-7.2-2.1-7-6.6
			c0.8-5.2,8.1-1,11.5-1.5c6.5,0.7,13,0.6,19.5,0.9c6.7,2.6,13,7,19,10.4c1.3,0.6,0.7,2.4,1.5,3.4C709.2,72.6,707.5,77.7,703.9,80.3
			z"/>
	</defs>
	<clipPath id="SVGID_00000167388793550093391000000011678705664674923163_">
		<use xlink:href="#SVGID_00000034075119031813243550000000649278289695376259_"  style="overflow:visible;"/>
	</clipPath>
	
		<path style="clip-path:url(#SVGID_00000167388793550093391000000011678705664674923163_);fill-rule:evenodd;clip-rule:evenodd;fill:none;stroke:#002200;stroke-width:42;stroke-linecap:round;stroke-linejoin:round;stroke-miterlimit:10;" d="
		M610.7,65.8C640,308.6,713.8,202.4,711,161.7"/>
	
		<path style="clip-path:url(#SVGID_00000167388793550093391000000011678705664674923163_);fill-rule:evenodd;clip-rule:evenodd;fill:none;stroke:#002200;stroke-width:30;stroke-linecap:round;stroke-linejoin:round;stroke-miterlimit:10;" d="
		M657.4,49c17.8,2.5,39.7,15.1,42.6,20c-12.1-0.8-21.3,1.8-21.3,1.8"/>
</g>
</svg>
