<?xml version="1.0" encoding="utf-8"?>
<!-- Generator: Adobe Illustrator 27.6.1, SVG Export Plug-In . SVG Version: 6.00 Build 0)  -->
<svg version="1.1" id="_圖層_2" xmlns="http://www.w3.org/2000/svg" xmlns:xlink="http://www.w3.org/1999/xlink" x="0px" y="0px"
	 viewBox="0 0 712 229.8" style="enable-background:new 0 0 712 229.8;" xml:space="preserve">
<style type="text/css">
	.st0{fill:#803420;}
</style>
<g>
	<g>
		<path class="st0" d="M149.5,43.2c-4.2,0-8.4,0.4-12.5,1.1c-1.4,0.2-2.4,1.6-2.1,3c0.2,1.4,1.6,2.4,3,2.1c3.8-0.7,7.7-1,11.6-1
			c36.9,0,67,30.1,67,67c0,36.9-30.1,67-67,67c-10.7,0-20.8-2.5-29.8-7c20.1-13.5,32-35.8,32-60c0-11.4-2.7-22.2-7.4-31.8
			c-0.1-0.5-0.2-1-0.6-1.4c-0.1-0.1-0.1-0.2-0.2-0.2C131.5,59,107.3,43.2,79.5,43.2c-39.8,0-72.3,32.4-72.3,72.3
			c0,39.8,32.4,72.3,72.3,72.3c4.2,0,8.4-0.4,12.5-1.1c1.4-0.2,2.4-1.6,2.1-3c-0.2-1.4-1.6-2.4-3-2.1c-3.8,0.7-7.7,1-11.6,1
			c-36.9,0-67-30.1-67-67c0-36.9,30.1-67,67-67c10.7,0,20.8,2.5,29.8,7c-20.1,13.5-32,35.8-32,60c0,39.8,32.4,72.3,72.3,72.3
			c39.8,0,72.3-32.4,72.3-72.3C221.8,75.7,189.4,43.2,149.5,43.2z M88.3,88.2l23.5,19.5v25.9L83,109.6c-0.1-0.1-0.2-0.1-0.2-0.2
			C83.5,102,85.4,94.8,88.3,88.2z M146.3,109.6C146.3,109.6,146.2,109.6,146.3,109.6l-29.2,24.2v-25.9l23.7-19.7
			C143.7,94.9,145.6,102.1,146.3,109.6z M117.1,171v-30.3l29.4-24.5C146.3,138.3,135.4,158.6,117.1,171z M138.4,83.4l-21.3,17.7V60
			C125.9,66,133.2,74.1,138.4,83.4z M111.8,60.1v40.8L90.7,83.3C95.7,74.2,102.9,66.2,111.8,60.1z M82.5,116.1l29.3,24.3v30.5
			C94.3,158.9,82.7,138.8,82.5,116.1z"/>
		<g>
			<g>
				<path class="st0" d="M261.2,68.1v-5.5h33.6c0.4-1.8,0.6-7,0.6-15.4h13.2c-0.7,7.7-1.1,12.9-1.1,15.4h38.6v5.5h-39.7
					c-0.7,4.4-1.8,8.5-3.3,12.1h38.6v5.5h-40.3c-1.1,3.7-3.1,8.1-6.1,13.2h55.1v5.5h-30.3c4.8,10.3,14.9,17.3,30.3,21
					c-2.6,4.4-3.1,9.2-1.7,14.3c0,1.5,0,2.4,0,2.8c-0.4,0.4-0.9,0.2-1.7-0.6c-5.5-2.2-10.3-5.5-14.3-9.9v51.8h-11v-7.7h-36.4v7.7
					h-11v-56.2c-3.3,3.7-8.6,8.8-16,15.4h-3.9c12.9-12.5,22.8-25.4,29.8-38.6h-27.6V99h29.8c0-0.7,0.2-1.5,0.6-2.2
					c1.8-4.4,3.1-8.1,3.9-11h-25.4v-5.5h26.5c0.4-2.6,1.1-6.6,2.2-12.1H261.2z M324.1,119.9c-3.3-4.8-5.5-9.9-6.6-15.4h-24.8
					c-1.8,3.3-5.7,8.5-11.6,15.4h4.4v3.3h36.4v-3.3H324.1z M285.5,128.7v18.2h30.9v5.5h-30.9v18.2h36.4v-41.9H285.5z"/>
				<path class="st0" d="M373.6,127.6c9.6-13.2,16.2-27.2,19.9-41.9h-18.8v-5.5h19.9l0.6-6.6h11.6c-1.5,8.8-4.2,17.6-8.3,26.5v3.3
					c4.8,3.7,9,6.6,12.7,8.8h11v5.5h33.1v-5.5h11v70.6h-11v-7.7h-33.1v7.7h-11v-68.4c-1.1,3.3-2.9,6.3-5.5,8.8
					c-2.9-5.1-5.5-10.3-7.7-15.4v75h-11v-68.4c-2.6,4.1-6.1,8.5-10.5,13.2H373.6z M402.3,58.1c-0.7,4.4-2.2,8.5-4.4,12.1
					c-5.2-5.9-9.2-14-12.1-24.3h0.6C393.6,51.2,399,55.2,402.3,58.1z M469.6,51.5V57h-61.8v-5.5H469.6z M415.5,106.7V68.1h11v4.4
					h24.3v-4.4h11v38.6h-11v-5.5h-24.3v5.5H415.5z M422.1,123.2v19.3h11v-19.3H422.1z M422.1,148v21.5h11V148H422.1z M426.6,95.6
					h24.3V78h-24.3V95.6z M444.2,142.5h11v-19.3h-11V142.5z M444.2,169.5h11V148h-11V169.5z"/>
				<path class="st0" d="M498.4,50.4h9.9V57h17.1v-5h9.4v48h-9.4v-7.2h-17.1v84.9h-9.9V50.4z M525.4,62h-17.1v9.9h17.1V62z
					 M508.3,77.4v9.9h17.1v-9.9H508.3z M567.3,107.8v6.1h-10.5V132h13.8v6.1h-13.8V174h-9.4v-35.8h-13.2c-0.7,10.3-7,21.7-18.8,34.2
					h-4.4c9.9-9.6,14.7-21,14.3-34.2h-13.8V132h13.8v-18.2h-11v-6.1H567.3z M547.5,113.8h-12.7V132h12.7V113.8z M572.9,49.9h9.9
					v115.8c0.7,6.2-4.8,11.4-16.5,15.4c-1.5-1.5-2.9-1.8-4.4-1.1l-3.9,0.6v-1.1c10.7-4.4,15.8-8.8,15.4-13.2V92.9h-17.1v7.2h-9.4
					V51.5h9.4V57h16.5V49.9z M572.3,62h-16v9.9h16V62z M556.3,77.4v9.9h16.5v-9.9H556.3z"/>
				<path class="st0" d="M627.4,46.6h13.2c-2.2,18-9.7,31.8-22.6,41.4c7.4,0,14.7-1.7,22.1-5c0.4-4.4,0.7-9.2,1.1-14.3h12.7
					c-1.8,12.5-6.1,24.3-12.7,35.3c5.9,6.6,10.7,12.5,14.3,17.6c-0.4,1.1-0.6,1.5-0.6,1.1c-1.5,4.8-3.3,8.3-5.5,10.5
					c-0.4,0-0.7-0.2-1.1-0.6c-1.5-3.3-2.6-6.6-3.3-9.9c-10.7,7.7-20.2,12.9-28.7,15.4c2.6-5.1,1.7-9.7-2.8-13.8c1.1,0,2.4,0,3.9,0
					c12.1-13.6,19.3-25.9,21.5-36.9c-7.7,6.3-15.1,10.7-22.1,13.2c1.1-5.1,0.4-9.6-2.2-13.2c0.4,0,0.9,0,1.7,0
					C623.7,80,627.4,66.4,627.4,46.6z M618,143.6h8.8c0.4,11.4-0.4,18.8-2.2,22.1c-1.1,4.8-4.2,9.2-9.4,13.2v-3.9
					c1.5-0.4,2.2-2.6,2.2-6.6C617.8,165.9,618,157.6,618,143.6z M640.1,105c-6.3,7-12.9,13.4-19.9,19.3c8.1,0.7,16-0.7,23.7-4.4
					c-1.1-2.9-1.8-5.5-2.2-7.7C641,109.3,640.4,106.9,640.1,105z M634.6,142.5c3.3,7.7,6.1,15.3,8.3,22.6c-2.9,2.9-5.7,5.3-8.3,7.2
					c-0.4,0-0.7-2.8-1.1-8.3c0-6.6,0-13.8,0-21.5H634.6z M645,142.5c0.4,1.5,1.1,2.9,2.2,4.4c3.7,7,6.2,11.8,7.7,14.3
					c-2.2,2.9-4.4,5.5-6.6,7.7c-0.7-2.2-1.7-5.5-2.8-9.9c-0.7-4.8-1.3-10.1-1.7-16L645,142.5z M668.2,47.1h9.9v21h11
					c0-0.7,0.2-2.6,0.6-5.5c0-2.6,0.2-4.6,0.6-6.1h11.6c-1.8,14.3-5.9,27.6-12.1,39.7h16v6.6h-19.9c-0.4,0.7-0.9,1.5-1.7,2.2
					c-6.3,7.7-10.5,12.7-12.7,14.9h18.2v-4.4h9.9v67.8h-9.9v-9.9h-19.9v9.9h-10.5v-50.7c-3.3,3.3-6.3,5.9-8.8,7.7h-4.4
					c1.8-1.5,4.6-4.2,8.3-8.3c1.5-1.5,3.1-3.1,5-5v-11.6h9.4c1.8-2.6,4.6-6.8,8.3-12.7h-25.9v-6.6h17.1V74.7h-11.6v-6.6h11.6V47.1z
					 M689.7,126h-19.9v16h15.4v6.1h-15.4v19.3h19.9V126z M688.1,74.7h-9.9v21.5h2.2C682.9,91.4,685.5,84.3,688.1,74.7z"/>
			</g>
		</g>
	</g>
</g>
</svg>
