<?xml version="1.0" encoding="utf-8"?>
<!-- Generator: Adobe Illustrator 26.5.0, SVG Export Plug-In . SVG Version: 6.00 Build 0)  -->
<svg version="1.1" id="圖層_1" xmlns="http://www.w3.org/2000/svg" xmlns:xlink="http://www.w3.org/1999/xlink" x="0px" y="0px"
	 viewBox="0 0 166 250" style="enable-background:new 0 0 166 250;" xml:space="preserve">
<style type="text/css">
	.st0{fill:#231815;}
	.st1{fill:url(#SVGID_1_);}
	.st2{fill:#40210F;}
</style>
<path class="st0" d="M36.1,120.7c-5.9,6.7-14.7,13.2-22.7,16.4c-1.2,0.5-1.8-0.6-0.7-1.4c7.4-5.6,14.6-12.7,19.2-20.4l3.7,2.7
	C36.9,119,36.9,119.7,36.1,120.7z M73,85.4H16.6c-1.3,0-1.7-0.8-3.3-4.1h32.4c-2.4-2.6-4.6-6.5-6.6-9.2c-0.7-1,0.2-1.4,1.1-1.1
	c5.8,1.9,12.8,4.9,9.5,10.3h21.1c1.4,0,2.2-0.6,3.6-2.3C79.3,82.9,76.9,85.4,73,85.4z M49.7,111.1v24.3c0,3.6-4,5.8-6.5,3.5
	c-1.7-1.6-5.6-3.7-7.4-4.3c-0.7-0.2-0.6-1.1,0.2-1.1c1.6,0,6.8,0.1,7.2-0.1c0.4-0.2,0.4-0.3,0.4-0.6v-21.6H32.8
	c-0.4,3-3.5,4-6.2,3.3V90.3c0.9,0.4,6.1,0.7,6.2,2h23.4c1.4,0,2.4-0.6,3.4-1.8l5,1.4c3.1,0.9,1.2,2.8,1.2,4.6v14.4
	c0,3-2.8,4.2-6.2,3.5v-3.2L49.7,111.1z M32.8,96v11.1h26.9V96H32.8L32.8,96z M73.7,127.4c3.9,4.7,0.2,10.4-4.2,5.2
	c-3.6-4.3-9.3-10.8-13.1-14c-0.7-0.6-0.4-1.7,0.9-1.3C62.9,119.3,70,122.9,73.7,127.4z M101.8,124.8v5.6c0,3.2-3.2,4.4-5.6,3.7V106
	c-2.1,3.4-4.4,6.5-6.2,7.9c-1.1,0.9-1.7,0-1.1-1.1c5.7-10.2,8.4-18.4,10.3-30.8h-8c-1.1,0-1.4-0.3-2.7-3.7h22.1c1.2,0,2-0.8,3.2-2.1
	c3.1,2,4.1,5.9-1.1,5.9h-7.7c-1.1,5.5-2.7,10.9-4.5,15.2h4.7c1.3,0,1.9-0.6,2.7-1.6l4.8,1.5c2.7,0.8,0.7,3,0.7,4.3v25.2
	c0,3.2-3,4.4-5.6,3.7v-5.6L101.8,124.8L101.8,124.8z M101.8,101.1v20h6.3v-20L101.8,101.1L101.8,101.1z M131.9,117.1
	c-2.7,13.9-11.7,21.4-25.3,22.7c-1.4,0.2-1.4-1.1-0.5-1.4c13.3-5,18.5-11.4,20.2-24.7l4,1.4C131.9,115.7,132.1,116.1,131.9,117.1
	L131.9,117.1z M155.6,137.1c-2.1,1.2-7.4,1.6-11.1,1.5c-8.8-0.4-9.1-1.4-9.1-10.8v-15.1h-10.7v0.5c0,3-2.8,4.5-6,3.9V73
	c0.8,0.4,6.2,0.7,6,2.1h15c1.5,0,2.5-0.9,3.5-1.9l5.1,1.7c3,1,0.9,3,0.9,4.5V113c0,3.4-3.5,4.3-6,3.5v-3.7h-1.9v16.3
	c0,3.2,0.2,3.7,2.1,3.9c2.3,0.3,4.4,0.2,6.3-0.3c3-0.5,2.4-5.9,3-8.1c0.1-0.5,1.1-0.5,1.1,0c0.4,2.2,0.7,7,2.6,8.2
	C157.8,134.3,156.9,136.3,155.6,137.1L155.6,137.1z M124.7,78.9v7.5h18.5v-7.5H124.7z M124.7,97.8h18.5v-7.4h-18.5V97.8z
	 M124.7,108.8h18.5v-7h-18.5V108.8z"/>
<path class="st0" d="M81.7,26.1c-0.8,0-0.8-0.5-1.5-1.8h24.6c0.6,0,0.9-0.3,1.5-0.9c1.5,1.2,2.2,2.8-0.5,2.8H81.7z M84.5,16.8
	c0.4,1.1,0.6,1.5,1.2,1.5h1.4v1.8c0.7,0.3,2.4,0.3,2.4-1.9h1.2c1.7,0.1,1.8-1.4,0.3-2.2c-0.4,0.6-0.8,0.8-1.5,0.8v-1.5h1.1
	c1.7,0.1,1.8-1.4,0.3-2.2c-0.4,0.5-0.7,0.9-1.3,0.8v-1.6h1.1c1.8,0.1,1.7-1.4,0.3-2.2c-0.4,0.5-0.7,0.9-1.4,0.8V9.3
	c0-0.6-0.7-0.6-2.4-0.9v2.5h-2.5c0.4,1.1,0.6,1.5,1.2,1.4h1.3v1.6h-2.4c0.4,0.9,0.6,1.5,1.2,1.4H87v1.5H84.5z M81.9,23.3V9.4
	c1.9,0.5,2.5,0.4,2.5,1.1c0,2.5,0,10,0,10h8V8.3C94.4,8.8,95,8.6,95,9.3v11.1h8.3V9.3c2,0.5,2.5,0.4,2.5,1.1v11.1
	c0,1.3-1.3,1.9-2.5,1.5v-0.8h-19C84.1,22.9,83.3,23.6,81.9,23.3z M81.9,23.2L81.9,23.2L81.9,23.2C82,23.2,81.9,23.2,81.9,23.2z
	 M95,16.8c0.4,1.1,0.6,1.5,1.2,1.4H98v1.8c1.1,0.3,2.4,0.3,2.4-1.8h1.3c1.9-0.1,1.7-1.3,0.3-2.2c-0.4,0.6-0.9,0.8-1.6,0.8v-1.5h1.1
	c1.6,0.1,1.8-1.3,0.3-2.2c-0.4,0.5-0.7,0.9-1.3,0.8v-1.6h1.2c1.7,0.1,1.8-1.2,0.3-2.2c-0.4,0.6-0.8,0.9-1.5,0.8V9.3
	c0-0.7-0.7-0.5-2.4-0.9v2.5h-2.8c0.4,1.1,0.6,1.5,1.2,1.4H98v1.6h-2.7c0.4,1.1,0.6,1.5,1.2,1.5H98v1.5L95,16.8L95,16.8z M136.1,20.7
	c0.7-1.2,4.1-7.5,4.6-8.4c0.4-0.6,0.5-0.9-0.7-1.7l-1.5-1c-0.5,0.5-0.8,0.7-1.4,0.7h-3.9c-0.2-0.5-2.3-0.8-2.8-0.9v30.1
	c1.4,0.3,2.8-0.3,2.8-1.8V12.2h4.5c-0.9,3.1-1.9,5.9-2.8,8c-0.2,0.4-0.3,0.8,0,1.1c1.3,1.1,4.2,4,4.2,6.9c-0.1,3.4-0.8,3.5-4.1,3.1
	c-0.5-0.1-0.7,0.3-0.4,0.5c1.3,0.7,2.6,2.2,3.8,2.3c1.3,0,2.5-1.3,3-3.1C142.2,28.1,141.2,23.9,136.1,20.7z M130.9,39.6L130.9,39.6
	L130.9,39.6z M115.8,39V28.1c-1.4,2.2-3.2,3.7-3.9,4.2c-0.5,0.4-1-0.1-0.6-0.5c0.8-1.1,2-2.9,2.9-5c0.7-1.6,1.4-3.4,1.7-4.9h-2.2
	c-0.7,0-0.7-0.5-1.4-1.8h3.9c0.2-0.9,0.3-2.2,0.4-3.2h-4.1c-0.7,0-0.7-0.6-1.4-1.8h5.6c0.1-1.1,0.1-2.2,0.1-3.3h-2.8
	c-0.6,0.1-1-1.1-1.3-1.8h9.5c0.7,0,1-0.3,1.5-0.8l2.2,0.6c1.3,0.4,0.5,1.2,0.5,2V15c0.9,0.1,1.4,0,2.2-1c0.5,0.5,1.3,1.2,1.3,1.6
	c0,0.8-0.6,1.2-1.8,1.2h-1.7v5c0,1.4-1.4,1.9-2.7,1.6v-1.6h-5.2c-0.3,1-0.6,2.1-1.1,3.2c0.4,0.1,1.1,0.2,1.2,0.5h4.1
	c0.6,0,0.9-0.3,1.4-0.7l2.3,0.7c1.2,0.4,0.4,1.6,0.4,2.1v9c0,1.4-1.4,2-2.7,1.7V36h-5.4v1.4C118.5,38.8,117.1,39.4,115.8,39z
	 M119.4,15h4.3v-3.3h-4.1C119.6,12.8,119.5,13.9,119.4,15L119.4,15z M119.3,16.9c-0.1,1.1-0.3,2.2-0.4,3.2h4.9v-3.2H119.3z
	 M123.9,34.1v-6.5h-5.4v6.6L123.9,34.1L123.9,34.1z M106.6,38.4h-26c-0.8,0-0.8-0.4-1.5-1.9h10.5c-0.2-0.2-1.3-2.7-1.4-3
	c-0.1-0.4,0.2-0.5,0.6-0.3c2.6,0.8,3.4,2.3,2.6,3.3h4.6c0.4-1.1,0.7-2,1.1-3.4h-9.5c-0.3,1.1-1.5,1.5-2.6,1.3v-7.5
	c0.4,0.2,2.7,0.3,2.7,0.8h10.6c0.6,0,1-0.3,1.4-0.8l2.1,0.6c1.4,0.4,0.6,1.3,0.6,2v3.3c0,1.2-0.9,1.9-2.7,1.5v-1.1h-2.3L99,34
	c0.6,0.4,0.8,0.6,0.4,1.1c-0.5,0.5-0.8,0.9-1.4,1.5h7.6c0.6,0,0.9-0.3,1.5-1C109.2,37.1,108.8,38.4,106.6,38.4z M87.8,29.4v2h12v-2
	H87.8z"/>
<path class="st0" d="M8.9,54.9H10v7.8H8.9V54.9z M18.6,61.3v-6.4h0.9v7.8h-1.4L14.5,56v6.5h-0.8v-7.8h1.3L18.6,61.3z M24.5,55.5
	h-2.1v-0.7h5.3v0.7h-2.1v7.1h-1.1V55.5z M30.5,62.6v-7.8h4.4v0.7h-3.3v2.6h2.9v0.7h-2.9v3.1H35v0.7L30.5,62.6L30.5,62.6z M39.1,59.1
	v3.5H38v-7.7c1.8-0.1,5-0.7,5.1,1.9c0,1.3-0.7,2.1-1.6,2.2l1.8,3.6h-1.2l-1.6-3.5 M40.8,55.5c-0.5-0.1-1.2,0-1.7,0.1v2.8h1.8
	C42.5,58.4,42.5,55.5,40.8,55.5z M51.4,61.3v-6.4h0.9v7.8H51l-3.6-6.5v6.5h-0.9v-7.8h1.3L51.4,61.3z M60,60.3h-2.9l-0.8,2.4h-1.1
	l2.7-7.8h1.2l2.8,7.8h-1.3L60,60.3z M58.5,55.7l-1.2,3.9h2.5L58.5,55.7z M65,54.9h1.1v7.8H65V54.9z M72.9,62.8
	c-4.5,0-4.3-8.1,0.1-8.1S77.4,62.8,72.9,62.8z M72.9,55.4c-3.1,0-3,6.7,0.1,6.7C76,62,75.9,55.4,72.9,55.4z M84.7,61.3v-6.4h0.9v7.8
	h-1.4L80.6,56v6.5h-0.9v-7.8H81L84.7,61.3z M93.2,60.3h-2.9l-0.8,2.4h-1.1l2.7-7.8h1.3l2.8,7.8H94L93.2,60.3z M91.8,55.7l-1.2,3.9
	h2.5L91.8,55.7z M98.2,62.6v-7.8h1.1v7.1h3v0.7C102.3,62.6,98.2,62.6,98.2,62.6z M113.2,55.4c-2.6,0.2-2.8,6.3,0.1,6.6
	c1,0.1,1.7-0.4,2.2-0.7v0.9c-0.3,0.3-1.4,0.6-2.3,0.5c-4.3-0.2-4-8.1,0.3-8.1c1,0,1.6,0.3,2.1,0.5v1C114.9,55.8,114,55.3,113.2,55.4
	L113.2,55.4z M118.8,62.6v-7.8h4.4v0.7h-3.3v2.6h2.9v0.7h-2.9v3.1h3.4v0.7L118.8,62.6L118.8,62.6z M131.3,61.3v-6.4h0.9v7.8h-1.4
	l-3.6-6.5v6.5h-0.9v-7.8h1.3L131.3,61.3z M137.1,55.5H135v-0.7h5.3v0.7h-2.1v7.1h-1.1V55.5z M143.2,62.6v-7.8h4.4v0.7h-3.3v2.6h2.9
	v0.7h-2.9v3.1h3.4v0.7L143.2,62.6L143.2,62.6z M151.8,59.1v3.5h-1.1v-7.7c1.8-0.1,5-0.7,5.1,1.9c0,1.3-0.7,2.1-1.6,2.2l1.8,3.6h-1.2
	l-1.6-3.5 M153.5,55.5c-0.5-0.1-1.2,0-1.7,0.1v2.8h1.8C155.1,58.4,155.2,55.5,153.5,55.5z"/>
<linearGradient id="SVGID_1_" gradientUnits="userSpaceOnUse" x1="62.8507" y1="974.3192" x2="38.5167" y2="935.4179" gradientTransform="matrix(1 0 0 1 0 -932)">
	<stop  offset="0" style="stop-color:#946532"/>
	<stop  offset="0.13" style="stop-color:#B0864B"/>
	<stop  offset="0.25" style="stop-color:#C49C5B"/>
	<stop  offset="0.32" style="stop-color:#CBA462"/>
	<stop  offset="0.38" style="stop-color:#CEA868"/>
	<stop  offset="0.46" style="stop-color:#D7B67B"/>
	<stop  offset="0.56" style="stop-color:#E6CB9A"/>
	<stop  offset="0.66" style="stop-color:#FAE7C1"/>
	<stop  offset="0.68" style="stop-color:#F6E1B8"/>
	<stop  offset="0.75" style="stop-color:#E2C38D"/>
	<stop  offset="0.82" style="stop-color:#D2AB6B"/>
	<stop  offset="0.88" style="stop-color:#C79A52"/>
	<stop  offset="0.94" style="stop-color:#C09044"/>
	<stop  offset="0.99" style="stop-color:#BE8D3F"/>
</linearGradient>
<path class="st1" d="M50.4,0C38,0,28,10.1,28,22.5S38,45,50.4,45s22.5-10.1,22.5-22.5S62.9,0,50.4,0z M49.7,3h1.5v28.2h-1.5V3z
	 M46.8,5.3h2.2v25.9h-2.2V5.3L46.8,5.3z M37.2,7.5h8.3v2.5H39v1.5h6.6v2.5h-8.3V7.5z M37.2,15.5h8.3V18H39v1.5h6.6v2.5h-8.3V15.5z
	 M37.2,23.3h8.3v2.5H39v1.5h6.6v2.5h-8.3V23.3z M45.6,38.3h-1.7v-4.6H39v4.6h-1.7v-7.1h8.3V38.3z M54.1,38.3h-1.5v-3.5h-4.3v3.5
	h-1.5v-6.1h7.2V38.3z M54.1,31.2h-2.2V5.3h2.2V31.2z M63.6,38.3h-1.7v-4.6H57v4.6h-1.7v-7.1h8.3V38.3z M63.6,29.9h-8.3v-2.5h6.6
	v-1.5h-6.6v-2.5h8.3C63.6,23.3,63.6,29.9,63.6,29.9z M63.6,22.1h-8.3v-2.5h6.6V18h-6.6v-2.5h8.3C63.6,15.5,63.6,22.1,63.6,22.1z
	 M63.6,14.1h-8.3v-2.5h6.6v-1.5h-6.6V7.5h8.3C63.6,7.5,63.6,14.1,63.6,14.1z"/>
<path class="st2" d="M15.3,185.6c-0.8,0.5-1.7,0.7-3.2,0.7c-2.1,0.1-5.3,0.1-7.5,0c-2.7-0.1-3.4-0.3-3.4-3v-10.8H0v-0.8h14.8v0.8
	H2.5v10.9c0,1.4,0.1,1.6,2,1.7c2.3,0.1,5.4,0.1,7.6,0c1.2-0.1,2-0.2,2.6-0.6L15.3,185.6L15.3,185.6z M3.7,178.9h4.5v4.7H3.7V178.9z
	 M5,182.9h2v-3.4H5V182.9z M12,177.5H5.4v-3.8H12V177.5z M10.7,174.5h-4v2.4h4V174.5z M14,183.6H9.4v-4.7H14V183.6z M12.7,179.6
	h-2.1v3.4h2.1V179.6z M31.7,174.9v10.4c0,1.6-1.4,2.3-5.2,1l0.1-0.6c3.2,0.3,3.7,0.2,3.7-0.8V182l-0.9,1.1c-2-1.7-3.4-4.2-3.8-6.2
	c-0.5,1.9-2.5,5-4.9,6.5l-0.3-0.5c2.3-1.9,3.7-4.7,4.3-7.3h-4.4V187h-1.3v-12.1h6.1c-0.1-0.8-0.2-2-0.2-2.6h-4.2v-0.7h5
	c0,1.2,0.2,2.3,0.4,3.4L31.7,174.9L31.7,174.9z M30.3,181.8v-6.1H26C26.8,178.3,28.2,180.4,30.3,181.8z M50.6,184.8v0.7h-7.7v1.3
	h-1.3v-9.3c-0.4,0.7-0.8,1.3-1.3,1.9l-0.2-0.2v5h-1.3v-1.2h-1.9v1.6h-1.2v-12.3H40v6.3c1.2-2.4,1.9-5,2.4-8.1l1.4,0.3
	c-0.2,1-0.5,2.2-0.9,3.4h7.4v0.7H47v2.4h2.9v0.7H47v2.8h2.9v0.7H47v3L50.6,184.8L50.6,184.8z M38.8,182.4v-9.2h-1.9v9.2H38.8z
	 M45.7,175.1h-2.8v2.4h2.8V175.1z M45.7,178.3h-2.8v2.8h2.8V178.3z M45.7,181.8h-2.8v3h2.8V181.8z M47.6,173.7l-1.3,0.7
	c-0.3-0.9-1-2.4-1.5-3.3l0.5-0.3C46.1,171.5,47.1,172.8,47.6,173.7L47.6,173.7z M52.9,177.5h14.6v1.1H52.9V177.5z M70.3,176.4
	l-0.4-0.4c1.1-1.6,1.9-3.4,2.4-5.4l1.3,0.4c-0.2,0.6-0.5,1.3-1,2.1H75c-0.2-0.7-0.6-1.7-0.8-2.3l0.5-0.3c0.5,0.5,1.1,1.4,1.4,2.1
	l-0.9,0.4h3v0.7h-2.5v1.2h2v0.5c0.9-1.5,1.5-3,1.9-4.8l1.3,0.4c-0.2,0.6-0.5,1.3-0.9,2h2.3c-0.2-0.7-0.5-1.7-0.8-2.2l0.5-0.3
	c0.5,0.5,1.1,1.4,1.4,2.1l-0.7,0.3h2.8v0.7h-2.5v1.2h2v0.7h-2v1.3h2v0.7h-2v1.3h2.7v0.7H80v0.7h-1.2v-5.4c-0.3,0.5-0.7,0.9-1,1.3
	l-0.4-0.3l0.1-0.2h-1.8v1.3h1.9v0.7h-1.9v1.3h2.6v0.7h-5.5v0.8h-1.2v-5.5C71.1,175.5,70.7,176,70.3,176.4L70.3,176.4z M85.1,186.8
	c-2.4-0.2-4.7-0.6-6.8-1.5c-2.2,0.9-4.8,1.5-8.1,1.7l-0.1-0.7c2.8-0.3,5.1-0.8,7-1.6c-1.3-0.8-2.4-1.8-3.4-3.2h-1.5v-0.7h9.3
	l0.5-0.3l1.4,0.9c-0.9,1.3-2.2,2.4-3.8,3.3c1.8,0.5,3.8,0.7,6,0.7L85.1,186.8z M72.7,175h1.7v-1.2h-1.7V175z M72.7,176.9h1.7v-1.3
	h-1.7V176.9z M72.7,177.6v1.3h1.7v-1.3H72.7z M78.3,184.2c1.4-0.7,2.5-1.7,3.3-2.7h-7C75.6,182.8,76.9,183.6,78.3,184.2z M79.9,175
	h1.7v-1.2h-1.7V175z M79.9,176.9h1.7v-1.3h-1.7V176.9z M79.9,177.6v1.3h1.7v-1.3H79.9z M96.2,172.6c-0.5,1.1-1.1,2.2-1.7,3h7.3V187
	h-1.3v-1.4H90.2v1.5h-1.3v-11.4h4.9c0.3-0.8,0.6-2.1,0.7-3h-6.9v-0.7H103v0.7H96.2L96.2,172.6z M92.6,176.3h-2.4v8.5h2.4V176.3z
	 M96.9,176.3h-3v2.2h3V176.3z M96.9,179.2h-3v2.3h3V179.2z M96.9,182.2h-3v2.5h3V182.2z M98.1,184.8h2.4v-8.5h-2.4V184.8z
	 M108.9,179.3v6c0,1.4-1.1,2.3-3.7,1l0.1-0.5c2,0.4,2.4,0.3,2.4-0.6V180c-0.8,0.4-1.6,0.8-2.1,1l-0.6-1.4c0.7-0.2,1.7-0.5,2.7-0.9
	v-3.4h-2.5v-0.7h2.5v-3.9h1.3v3.9h2v0.7h-2v2.9c0.7-0.3,1.3-0.6,1.9-0.8l0.3,0.5C110.5,178.4,109.7,178.9,108.9,179.3z M120.8,184.5
	l-0.9,1.3c-1.2-0.8-2.9-2.7-3.9-4.8v6h-1.3v-5.9c-1,1.5-2.9,3.7-5.1,4.8l-0.3-0.5c2-1.3,4-3.7,4.8-5.5h-3.6v-0.7h4.2v-1.6h1.3v1.6
	h4.3v0.7h-4.2C117.2,181.9,119.5,183.8,120.8,184.5L120.8,184.5z M110.7,173.2l-0.1-0.6c3.3-0.4,6.3-1.1,8.1-1.9l1.2,1.2
	C117.7,172.6,113.6,173.1,110.7,173.2L110.7,173.2z M111.2,174l0.4-0.3c0.7,0.8,1.6,2.3,2.1,3.4l-1.3,0.6
	C112.2,176.5,111.6,175,111.2,174L111.2,174z M114.3,173.5l0.5-0.2c0.6,0.9,1.2,2.3,1.5,3.4l-1.3,0.4
	C115,176.3,114.6,174.7,114.3,173.5L114.3,173.5z M118.5,173.1l1.3,0.6c-0.7,1.4-1.6,2.9-2.4,3.7L117,177
	C117.5,176.1,118.1,174.4,118.5,173.1z M136.4,186.4c-0.9,0.1-2,0.1-2.8,0c-1.7-0.1-2.2-0.4-2.2-2v-5.9h-2.2c-0.2,4.6-2,7.2-6.2,8.7
	l-0.3-0.6c3.7-1.6,4.9-4.1,5.1-8.1H123v-0.9h6.6v-6.9h1.4v6.9h6.7v0.9h-5v5.7c0,0.7,0.1,0.9,1,1c0.8,0,1.7,0.1,2.4,0
	c0.9-0.1,1-0.3,1-3.7h0.6C138.3,185,138.4,186.3,136.4,186.4L136.4,186.4z M126.9,177.1c-0.6-1.5-1.7-3.4-2.5-4.7l0.4-0.4
	c1.1,1,2.7,2.9,3.5,4.3L126.9,177.1L126.9,177.1z M132.7,177.1l-0.5-0.3c0.9-1.3,1.7-3,2.4-4.9l1.5,0.8
	C135.1,174.3,133.9,176,132.7,177.1L132.7,177.1z M148.2,176.1c0,2.2-1.7,4.4-4.6,7l-1.3,1.2v0.1h6.3v1h-8.3v-0.8l1.3-1.2
	c3.2-2.9,5-5.3,5-7.2c0-1.9-0.9-2.9-2.7-2.9c-1.3,0-2.4,0.6-3.2,1.3v-1.3c0.9-0.5,2.1-0.9,3.5-0.9
	C146.7,172.4,148.2,173.8,148.2,176.1L148.2,176.1z M153.8,176.8c0,5.9-1.1,8.4-2.9,10.2l-0.4-0.4c1.3-1.8,2-4,2-9.1v-5.7l1.3,0.3
	c3.1-0.1,7.4-0.8,9.5-1.6l1.3,1.2c-2.8,0.6-7.6,1-10.8,0.9v0.9h11v3.1L153.8,176.8L153.8,176.8z M158.6,179.9c0,0.6-0.1,1.1-0.2,1.6
	h5.9c-0.1,1.7-0.2,3-0.4,3.9c-0.2,1.4-1.3,2.2-4.7,0.6l0.2-0.6c2.9,0.5,3.1,0.4,3.3-0.6c0.1-0.8,0.2-1.7,0.3-2.6h-4.7
	c-0.6,2.1-2,4-5.1,4.9l-0.3-0.5c3.6-1.5,4.2-3.7,4.4-6.7h-2.9v-0.7h6.5c-1-0.6-2.1-1.2-3.1-1.6l0.2-0.5c0.9,0.2,2.6,0.7,3.7,1.1
	l-0.5,1h4.8v0.7L158.6,179.9L158.6,179.9z M153.8,174.4v1.6h9.7v-1.6H153.8z M38.4,211l-0.8,1.3c-1.7-0.9-3-2.2-4.1-4.4
	c-0.3,0.1-0.6,0.3-0.9,0.3c0.3,0.6,0.4,1.3,0.4,2.1c0.1,3-1.8,3.8-4.6,2l0.2-0.5c2.5,0.7,3.2,0.5,3.2-1.5c0-0.3,0-0.7-0.1-1.1
	c-2,1.6-4.9,2.7-8.4,3.3l-0.1-0.6c3.4-0.8,6.4-2.2,8.1-4c-0.1-0.2-0.2-0.5-0.3-0.7c-1.7,1.5-4.5,2.6-7.3,3.1l-0.1-0.6
	c2.5-0.5,5.3-1.8,6.8-3.4c-0.1-0.1-0.2-0.3-0.3-0.4c-1.8,1.2-4.1,2-6,2.4l-0.1-0.6c2-0.5,4.1-1.4,5.4-2.5h-3.4v-0.6h9.7v0.6h-4.4
	c-0.2,0.1-0.3,0.3-0.5,0.4c0.8,0.6,1.3,1.2,1.8,1.9c0.9-0.5,1.9-1.2,2.7-2l1,0.8c-0.6,0.4-1.3,0.8-2,1.1
	C35.3,209.6,37.1,210.5,38.4,211L38.4,211z M37.9,199.6H23.7v-0.7h7.6c-0.8-0.5-2.1-1.1-2.8-1.4l0.2-0.5c1.1,0.2,2.7,0.6,3.6,1.1
	l-0.5,0.9h6L37.9,199.6L37.9,199.6z M36.5,206v-2.1H25.1v2.1h-1.2v-2.8h13.9v2.8H36.5L36.5,206z M35.3,200.3v2.3h-8.9v-2.3H35.3z
	 M34,200.9h-6.3v1.1H34V200.9z M42.4,203.1h-1.3v-3.4h7.5c-0.7-0.7-1.7-1.5-2.5-2.2l0.3-0.5c0.9,0.3,2.5,0.9,3.4,1.6l-0.7,1h6.3v3.5
	h-1.3v-2.8H42.4L42.4,203.1L42.4,203.1z M54.9,207.9c0.4,3.8,0.3,4.6-1.5,4.7c-1.5,0.1-3.2,0.1-4.7,0c-1.5-0.1-1.9-0.5-1.9-2.1v-3
	c-1.9,0.3-3.7,0.6-5.6,0.8l-0.1-0.7c1.9-0.3,3.8-0.5,5.7-0.9v-2.9c-1.5,0.4-3.1,0.7-4.7,0.9l-0.1-0.6c4.2-0.8,7.4-2.4,8.8-3.3l1.3,1
	c-1.1,0.6-2.5,1.1-4,1.6v3.1c2.3-0.4,4.7-0.8,6.9-1.2l0.1,0.7c-2.3,0.4-4.7,0.8-7,1.2v2.9c0,0.8,0.2,1.1,1,1.2
	c1.2,0.1,2.5,0.1,3.9,0c0.9-0.1,1.2-0.3,1.2-3.4L54.9,207.9L54.9,207.9z M59.2,208.1l0.6,0.1c0,1.9-0.4,3.8-0.8,4.9l-1.3-0.6
	C58.3,211.5,58.9,210,59.2,208.1z M58.9,206.3c0.9-1.1,1.7-2.2,2.4-3.6c-1,0.3-2.2,0.6-3.2,0.8l-0.3-1.2c0.3,0,0.7,0,1,0
	c0.7-1.4,1.4-3.3,2-5.1l1.3,0.5c-0.7,1.6-1.6,3.4-2.6,4.7c0.8,0,1.6-0.1,2.2-0.2c0.3-0.6,0.6-1.2,0.9-2l1.2,0.6
	c-1.4,2.5-2.7,4.3-4.1,5.6c1-0.1,2.1-0.3,2.9-0.5l-0.5-1.3l0.5-0.3c0.6,0.9,1.2,1.8,1.6,2.9l-1,0.5c-0.1-0.5-0.3-0.9-0.4-1.3
	c-1.5,0.6-3.3,1.2-4.8,1.4l-0.3-1.2C58.1,206.4,58.5,206.4,58.9,206.3L58.9,206.3z M61.1,207.9c0.4,1.2,0.8,2.6,1,3.9l-1.2,0.2
	c0-1.4-0.1-2.7-0.3-4L61.1,207.9z M73.4,212l-0.8,1.4c-1.2-0.6-2.6-1.6-3.7-2.9c-1.4,1.3-3.1,2.3-5.2,2.9l-0.2-0.5
	c2-0.9,3.5-1.9,4.7-3.3c-0.9-1.5-1.7-3.3-2-5.7h-0.1c-0.3,4.1-1.2,7.1-3.4,9l-0.4-0.4c0.6-0.6,1-1.3,1.4-2.1l-0.5,0.3
	c-0.3-1.1-0.7-2.1-1.1-3l0.5-0.3c0.5,0.7,1,1.5,1.4,2.3c0.8-2.1,1-4.8,1-8.2v-2.5h-1.6v-0.7h7.4c-0.3,1.7-0.5,3.3-0.9,4.9h1l0.4-0.3
	l1.3,0.6c-0.6,2.6-1.5,4.6-2.8,6.2C70.7,210.6,72,211.4,73.4,212z M66.1,203.1h2.4c0.3-1.6,0.6-3.1,0.7-4.2h-3v2.5
	C66.2,202,66.2,202.6,66.1,203.1L66.1,203.1z M68.9,208.7c0.9-1.3,1.6-2.9,2-4.8h-4.1C67.2,205.9,67.9,207.4,68.9,208.7z
	 M82.1,206.8h-4.4v1.3h-1.4v-7.6h5.8v-3.3h1.4v3.3h5.9v7.5H88v-1.2h-4.5v6.6h-1.4L82.1,206.8L82.1,206.8z M82.1,206v-4.7h-4.4v4.7
	H82.1z M88,206v-4.7h-4.5v4.7H88z M107.6,211.7v0.9H92.9v-0.9h6.6v-3.9h-4.8V207h11v0.8h-4.9v3.9H107.6L107.6,211.7z M94.5,203.2
	h-1.3v-3.5h7.3c-0.8-0.7-1.9-1.6-2.8-2.2l0.3-0.5c1.1,0.3,2.8,1,3.7,1.7l-0.7,1.1h6.4v3.4H106v-2.7h-3.3v3c0,0.8,0.3,0.9,1.8,0.9
	c1.3,0,1.7,0,2.4-0.6l0.7,1c-0.6,0.8-1.4,0.8-3.4,0.8c-2.4,0-2.7-0.5-2.7-1.9v-3.3h-2.3c-0.1,3.6-1.6,5.5-5.6,6.4l-0.2-0.5
	c3.4-1.1,4.5-2.7,4.5-5.8h-3.3L94.5,203.2L94.5,203.2z M114.4,206.2c-0.3-0.8-0.7-1.7-1-2.5v9.5h-1.2V205c-0.5,1.5-1.2,3.1-2.1,4.4
	l-0.4-0.3c0.9-1.6,1.9-4.5,2.4-7.4h-2.1v-0.7h2.2v-3.7h1.2v3.7h1.6v0.7h-1.6v1c0.7,0.9,1.6,1.9,2.1,2.9L114.4,206.2L114.4,206.2z
	 M123.1,208.4c-0.3,0.9-0.7,1.7-1.3,2.3c1.1,0.4,2.2,0.8,3.2,1.4l-0.8,1.2c-1.2-0.8-2.2-1.4-3.3-1.9c-1.4,1-3.4,1.5-5.9,1.8
	l-0.1-0.5c2-0.3,3.7-0.7,5-1.7c-0.7-0.3-1.4-0.5-2.3-0.8c-0.3,0.3-0.5,0.6-0.7,0.9l-0.9-0.5c0.5-0.6,1-1.4,1.6-2.2h-2.8v-0.7h3.2
	c0.3-0.4,0.5-0.8,0.7-1.2h-2.8v-2.8h3.5v-0.9h-3.1v-1.8h-1.1v-0.7h1v-1.7h3.1v-1.3h1.2v1.3h3.2v1.7h1.1v0.7h-1.1v1.8h-3.2v0.9h3.6
	v2.8h-4.1c-0.2,0.3-0.5,0.8-0.7,1.2h6v0.7L123.1,208.4L123.1,208.4z M117.1,205.7h2.2v-1.3h-2.2V205.7z M117.4,200.2h1.9v-1h-1.9
	V200.2z M119.4,202v-1.1h-1.9v1.1H119.4z M121.8,208.4h-2.9c-0.3,0.5-0.6,0.9-0.9,1.3c0.9,0.2,1.8,0.4,2.7,0.6
	C121.1,209.8,121.5,209.2,121.8,208.4L121.8,208.4z M120.6,200.2h2v-1h-2V200.2z M120.6,202h2v-1.1h-2V202z M120.6,205.7h2.3v-1.3
	h-2.3V205.7z M131.3,203.7v9.6H130v-8.7c-0.6,1.6-1.6,3.5-2.6,4.8L127,209c1-1.6,2.2-4.4,2.8-7.3h-2.5v-0.7h2.7v-3.7h1.3v3.7h2.2
	v0.7h-2.2v0.9c0.9,1,1.8,2.4,2.2,3.2l-1.1,0.6C132,205.5,131.6,204.5,131.3,203.7L131.3,203.7z M142.7,211.8l-0.9,1.4
	c-1.6-0.6-2.8-1.6-3.7-2.9c-1.2,1.3-2.7,2.3-4.7,3.1l-0.3-0.5c1.8-0.9,3.2-2,4.3-3.5c-0.9-1.7-1.6-3.8-1.7-6.3h-0.6v1.1
	c0,3.6-0.5,6.7-3.1,9.2l-0.4-0.4c1.3-1.7,2.2-4.4,2.2-8.4v-5.8l1.2,0.3c1.9-0.3,3.9-0.9,5.4-1.8l1.3,1.2c-1.8,0.6-4.4,0.9-6.6,1.1
	v2.8h4.6l0.4-0.3l1.4,0.5c-0.5,2.8-1.3,5-2.6,6.7C139.9,210.3,141.1,211.1,142.7,211.8L142.7,211.8z M138.1,208.3
	c0.8-1.4,1.4-3.2,1.7-5.3h-3.5C136.7,205.3,137.3,207,138.1,208.3L138.1,208.3z M4,237.8h8.2V236H6.8v-0.8h5.4v-1.6H5.4v-0.9h6.8
	v-1.8h1.6v1.8h6.8v0.8h-6.8v1.6h5.8v0.8h-5.8v1.7h8.2v0.8H4V237.8z M7.1,240.1H19v7.9c0,2.2-2.2,2.6-5.1,1.2l0.2-0.7
	c3.1,0.5,3.4,0.3,3.4-1v-1.7H8.7v4.2H7.2L7.1,240.1L7.1,240.1z M17.4,242.6V241H8.7v1.6H17.4z M17.4,245v-1.6H8.7v1.6H17.4z
	 M30.9,242.6l0.3,0.6c-2,1.3-4.3,2.5-6.5,3.4l-0.7-1.7c0.8-0.2,1.8-0.5,2.8-0.8v-7.2h-2.6V236h2.6v-5h1.5v5h2.3v0.8h-2.3v6.6
	C29.2,243.3,30.1,242.9,30.9,242.6L30.9,242.6z M37.3,235.1v2h4.3v11.3c0,1.6-1.4,2-3.8,1.2l0.1-0.7c1.8,0.2,2.2,0.1,2.2-1v-3.2
	h-2.9v5.1h-1.5v-5.1H33v5.3h-1.5v-12.8h4.2v-2h-5.1v-0.8h5.1V231h1.5v3.2h3.1c-0.6-0.9-1.6-2-2.2-2.7l0.4-0.5c1,0.5,2.3,1.5,3.1,2.3
	l-1.1,1h1.8v0.8H37.3L37.3,235.1z M35.8,237.9H33v2.4h2.7V237.9z M35.8,241.1H33v2.6h2.7V241.1z M37.3,237.9v2.4h2.9v-2.4H37.3z
	 M40.1,241.1h-2.9v2.6h2.9V241.1z M53.1,243.6h-6l-1.6,4.7h-1.7l5.5-15h1.9l5.5,15h-2L53.1,243.6z M50.1,234.9
	c-0.3,0.8-2.6,7.5-2.6,7.5h5.2C52.7,242.5,50.2,235.7,50.1,234.9z M59.5,236v-1.4l4.3-1.4h1.3v15h-1.7v-13.6L59.5,236z M70.9,239.3
	c-1.2-6.2,5.5-7.8,8.1-4.9c2.6,2.9,2.4,13.6-7.2,14.2l-0.2-0.8c5.1-0.8,6.6-3.9,6.9-6.9l0,0C76.8,243.9,71.7,243.5,70.9,239.3z
	 M75.6,234.1c-3.9,0-4,7.5,0,7.5C80.1,241.6,79.2,234.1,75.6,234.1z M99.5,241.5v8.3h-1.6v-1.6h-8.1v1.7h-1.6v-6.9
	c-1.8,0.7-3.6,1.2-5.2,1.6l-0.2-0.7c6.4-1.9,11.3-4.9,14.1-9.5h-6.2c-0.6,0.6-1.2,1.2-1.8,1.6c1,0.6,2.1,1.5,3,2.4l-1.4,1.2
	c-0.7-1.1-1.6-2.2-2.3-3.1c-1.4,1-2.8,1.8-4.3,2.4l-0.3-0.6c3.2-1.8,6-4.6,7.8-7.7l1.6,0.8c-0.4,0.7-0.9,1.3-1.5,2h5.3l0.7-0.4
	l1.7,1c-2,3.5-4.8,5.8-7.8,7.4L99.5,241.5L99.5,241.5z M97.8,247.4v-5h-8.1v5H97.8z M111.5,234.1v-2.6h1.7c0,1.6,0,2.9,0,3.9
	c0.8,5.9,3.9,10.1,8.5,12.7l-1.3,1.8c-3.1-2-6.5-6.1-7.5-12.1c-0.9,6.3-4.4,10-9.1,12.1l-0.4-0.6C109,245.9,111.5,240.5,111.5,234.1
	L111.5,234.1z M129.3,241.8v8.2h-1.5v-7.4c-1.1,0.6-2.2,1.2-3.4,1.6l-0.7-1.7c1.3-0.4,2.7-0.9,4.1-1.4v-4.3h-2
	c-0.3,1.3-0.8,2.6-1.3,3.6l-0.6-0.3c0.7-2.2,1-4.7,1.2-7.9l1.6,0.2c-0.1,1.2-0.3,2.3-0.5,3.5h1.7V231h1.5v5h2.5v0.8h-2.5v3.6
	c0.8-0.4,1.6-0.8,2.2-1.1l0.4,0.6C131.2,240.5,130.3,241.1,129.3,241.8L129.3,241.8z M135.4,234.8h-4.1V234h4.1v-2.8h1.6v2.8h4.1
	v0.8h-4.1v3h4.8v0.9h-11.2v-0.9h4.8V234.8z M141.9,241.4v0.8h-2.7v5.8c0,1.9-1.5,2.4-5,0.9l0.2-0.6c3,0.4,3.2,0.3,3.2-0.8v-5.3h-7.1
	v-0.8h7.1v-2.3h1.6v2.3L141.9,241.4L141.9,241.4z M134.4,246.9c-0.6-1.1-1.5-2.5-2.2-3.6l0.5-0.4c1,0.8,2.2,1.9,3.1,3.1L134.4,246.9
	z M162,248.4c-1,0.6-2,0.8-3.7,0.8c-2.5,0.1-6.2,0.1-8.7,0c-3.1-0.1-4-0.3-4-3.5v-12.6h-1.3v-0.9h17.2v0.9h-14.2v12.6
	c0,1.6,0.1,1.9,2.3,2c2.7,0.1,6.3,0.1,8.9,0c1.4-0.1,2.3-0.3,3.1-0.8L162,248.4L162,248.4z M148.6,240.5h5.3v5.5h-5.3V240.5z
	 M150,245.2h2.3v-3.9H150V245.2z M158.2,238.9h-7.6v-4.4h7.6V238.9z M156.7,235.3h-4.6v2.7h4.6V235.3z M160.5,246.1h-5.4v-5.5h5.4
	V246.1z M159.1,241.3h-2.4v3.9h2.4V241.3z"/>
</svg>
