<?xml version="1.0" encoding="utf-8"?>
<!-- Generator: Adobe Illustrator 26.5.0, SVG Export Plug-In . SVG Version: 6.00 Build 0)  -->
<svg version="1.1" id="圖層_1" xmlns="http://www.w3.org/2000/svg" xmlns:xlink="http://www.w3.org/1999/xlink" x="0px" y="0px"
	 viewBox="0 0 600 750" style="enable-background:new 0 0 600 750;" xml:space="preserve">
<style type="text/css">
	
		.st0{clip-path:url(#SVGID_00000031200769482975169130000013487974624911364273_);fill:none;stroke:#FFFFFF;stroke-width:80;stroke-linecap:round;stroke-miterlimit:10;}
	
		.st1{clip-path:url(#SVGID_00000018215295605181584910000015939370983995567781_);fill:none;stroke:#FFFFFF;stroke-width:80;stroke-linecap:round;stroke-miterlimit:10;}
	
		.st2{clip-path:url(#SVGID_00000096773512803418456470000007064139025400184509_);fill:none;stroke:#FFFFFF;stroke-width:80;stroke-linecap:round;stroke-miterlimit:10;}
	
		.st3{clip-path:url(#SVGID_00000057827563363653552610000000594071423988081312_);fill:none;stroke:#FFFFFF;stroke-width:80;stroke-linecap:round;stroke-miterlimit:10;}
	
		.st4{clip-path:url(#SVGID_00000114033811319311398130000010233682004796728497_);fill:none;stroke:#FFFFFF;stroke-width:80;stroke-linecap:round;stroke-miterlimit:10;}
	.st5{fill:url(#SVGID_00000127757489116242711450000006308110912313555868_);}
	.st6{fill:url(#SVGID_00000134964674261204538030000003477258936541412747_);}
</style>
<g>
	<defs>
		<path id="SVGID_1_" d="M235.1,182.8c-3.9-0.7-10.4,2.5-13.5-0.9c-1.6-1.1-3.4-0.6-4.9,0.1c-6.8,1.8-11.8-3-18.5,3
			c-15.3,8-32.9,7.4-49.7,9.6c-27,4.6-9.7-18.5-16.8-30.7c-4.3-1.4,4.7-5.7-1.2-10.2c-5.4-4.8,2.7-8.5-0.7-11.8
			c-2.9-2.5-2.8-10.2,1.8-10.1c1.7,0.6,2.4-0.1,2.5-1.9c-1.1-8.7,13.1-6.6,17.8-3.4c3.8,0.8,8.9,5.3,12.1,3.4
			c2.8-1.5,5.9,0.5,8.8,0.5c3.9,0.8,8.5-1,12.1-0.7c2.8,1,5.4,1,8.2,0.2c1.4-0.1,3.2,0.9,4.7,0.4c1.4-0.6,2.8-0.9,4.2,0
			c12.1-0.8,24.8-3.4,35.9-8.3c6.5-2.3,13.1,1.5,19.5,2.3c12.1,0.3,24.4-0.7,36.4,1.6c17.8,1.3,35.7-2.9,53.5-3.8
			c15.4,0.7,31.6,2.4,46.8,0.4c1.6-0.8,3.9-1.8,5.8-1.5c1.2,0.5,2.2,0.8,3-0.7c0.1-0.3,1-0.4,1.4-0.2c7,4.4,13-0.4,15.1,4.4
			c0.5,2-2.4,3.9,0.3,5.1c2.1,1.2,0.8,3.9,2.5,5.5c1.3,1.8,1.3,2.3-0.5,3.8c-0.7,0.7-2.3,1.5-2.4,2.5c0.4,1.9-0.7,3.3-1.3,4.9
			c-0.9,2.1,1.9,4.3-0.6,5.8c-5,3.6-5.1,11.6-12.3,12.7c-1.2,0.3-2.4,1.9-2.9,3.2c-10.3,11.8-53.7,8.3-69.9,10.1
			c-12.6,1.1-25.3,1.8-37.6-2.1c-4.2-0.8-10.3-3.5-14.5-1.9c-9.1,3.3-19.2,1-28.4,4.1C245.8,180.3,241.1,182.9,235.1,182.8z"/>
	</defs>
	<clipPath id="SVGID_00000025400966079385111640000009535631494556513204_">
		<use xlink:href="#SVGID_1_"  style="overflow:visible;"/>
	</clipPath>
	
		<path style="clip-path:url(#SVGID_00000025400966079385111640000009535631494556513204_);fill:none;stroke:#FFFFFF;stroke-width:80;stroke-linecap:round;stroke-miterlimit:10;" d="
		M112.2,160.9c47.1-5.8,226.9-0.1,281.7-16.2"/>
</g>
<g>
	<defs>
		<path id="SVGID_00000058557720393770513970000005910339089816404415_" d="M281.5,534.3c-5.2,8.2,6,12.2,3.6,15.7
			c-2.6,4.6-7.9,8.3-13,10.1c-2.6,0.5-5.1-0.9-7.7-0.4c-2.2-3-4.9,3-7.8,0c-0.5-0.4-1.5-0.4-2.2-0.5c-2.2,0-0.9-2-1.8-3.2
			c-1.6-2.7-5.1-3.3-6.5-6.4c-12.3-6.8-27.7-3.3-41-1.4c-5.4-0.2-10.6,0.6-15.7,2c-1.7-0.4-2.1-0.2-2.2,1.5c-0.5,0-1,0-1.6,0
			c-0.1,0.4-0.1,0.8-0.2,1.2c-0.7,0-1.3,0.2-1.8,0.1c-1.6-0.4-2.3,0.7-3.1,1.7c-1,0.8-2.4,1.1-3.6,1.7c-1,0.5-1.9,1.4-3.2,0.7
			c-0.2-0.1-0.6,0-0.8,0.1c-2.9,2.5-6.6,1.8-9.9,0.3c0.1-1.7-2.2-1-2.9-2.2c-1-1.3-1.1-3.9-3.3-3.5c-0.8,0.1-1.3-0.3-1.2-1.2
			c-0.1-2.5-3.1-3.9-4.4-6c-0.3-0.4-0.6-1.3-0.4-1.5c1.1-1.2,0.8-2.6,0.9-4c0-0.3,0-0.7,0.2-0.8c1.4-1.4,0.9-3.2,0.9-4.8
			c0.3-1.7-2.7-3.5-0.6-4.7c1.9-1.9-0.2-2.4,3.4-4.3c1.5-1.8-0.7-4.7,1.3-6.3c-0.4-0.2-0.7-0.5-0.9-0.6c0.5-1.2,0.7-2.4,1.4-3.4
			c2.4-1.9,3.2-4,6.6-4.9c1.1-2.5,1.9-2.9,5.6-1.9c0.7-7.1,4.6-1.8,3-7.3c1-0.5,2.4,0.4,2.8-1.1c0.5-0.6,2.8-0.6,3.3-1.4
			c4.1-7.7,9.8-15.1,11.6-23.7c2.4-6.6,2.4-14,2.7-21.1c0.8-8.2-1.7-13.7-10.1-15.8c-7.2,0.8-15.1,0.4-21.4,4.3
			c-1,0.6-1.3,2.3-2.2,3.2c-1.1,0.6-2.9,2.1-4.1,1.6c-3.1-2.5-4.4-5.5-6.2-8.9c-3.3-3.7-3.3-9.1-3.8-13.9c-0.7-2.6-5.6-4.9-3-7.2
			c0.4-0.5,0.4-1.4,0.7-2.4c0.5-0.3,2-0.4,0.6-1.8c-0.1-2.8,5-1.6,2.9-5.1c0.5,0.1,1,0.1,1.5,0.2c3.7-5.8,2.8-3.7,6.8-0.4
			c8.4-1.2,17.3-1.2,25.2-2.2c2.3,0.9,4.7,0.4,7.1,0.7c1.1,0.1,2.2,0.4,3.1-0.5c1.5-0.4,0.6,1.8,4,0.9c12.6,0.4,24.7-3.9,37.1-3.4
			c4.2,0.1,8.4,0.6,12.6-0.3c2.5,0.9,5.8,0.7,8.1-0.8c3.7-1.2,4.8,1.7,6.5,0.2c0.4-0.4,1.6-0.3,2.2-0.1c3.3,2,7.4-2.6,9.8-0.1
			c0.5,0.4,2.5-0.4,3.5-0.2c25.2-0.6,50.8-6.5,74.9-10.5c14.2-1.2,28.9-4.2,42.5,2c3.5,0.9,0.9,3.2,0.7,5.7l2.4-0.1
			c1.1,1.4,0.1,2.7-0.2,4c-1.6,0-2.6,1.1-2.1,2.5c0.5,1.4-0.8,1.8-0.9,3.1c0.4,0,0.8-0.1,1.4-0.2c-1.2,0.7,0.1,2.8-2,3.1
			c-1.7,2.4-3.7,8.2-7.6,6.4c-1.1-0.7-1.8-0.4-2.5,0.7c-2.7,2.2-7.1,1.3-10.3,3.1c-2.8,0.3-5.2,0.3-8.2,0.6c0.6,0.3,0.9,0.4,0.9,0.5
			c-8.4,1.7-17.1,2.7-25.4,4.7c-2.3,0.9-4.4-0.1-6.6,0.4c-3.5,1.4-7.2,0-10.9,1.6c-7.6,3-16.1,1.4-24,3.3c-0.2,0-0.5,0.3-0.7,0.2
			c-1.3-0.7-2.7-0.1-3.8,0.3c-4.2,2.1-12.4-0.4-14.9,3.7c0.3,3.9,1.2,8,0.7,11.8c-0.5,1.2-0.4,1.6,0.4,2.2c0.5,3.4-1.4,6.3-0.2,9.8
			c-0.3,3.9-0.6,8,0.6,12c-1.9,0.2,0.2,3.8-0.4,5.5c0.2,0,0.7,0.1,1.5,0.2c-0.6,1-1.2,1.8-1.9,2.8c0.6,0.1,1.2,0.1,2.2,0.2
			c1.2,1.4-3.3,3.8-0.4,4.7c-1.4,1-1.1,2.1-0.4,3.3c0.5,2-1.8,3.4-0.2,5.4c0.5,1.2-0.4,3.2-0.6,4.6c0,3,1.1,5.6,0,8.5
			c-1.3,1.5-0.6,3.2-0.5,4.8c-1.6,2.3-0.2,4.8-0.6,7.2c-0.5,2.1,2.2,4.5,0.8,6.6c-1.1,1.8,1,3.9,1.8,5.2
			C279,532.7,280.2,533.3,281.5,534.3 M201.8,529.8c14-1.2,27.7-2.7,41.6-1.3c1.7-0.2,3.8,1.4,4.9-0.9c2.8-1.7,1.6-1.9,0.4-4
			c0.2-1.1,0.6-2.3,1-3.6l-0.6-3.2c-5-2.1-10.2-1.3-15.3-2.9c-4.7-1.3-10-3-14.8-1.3c-0.6,0.2-1.5,0.5-1.6,1
			c-1.1,4.5-6.2,3.2-9.3,5.7c0.2,0.9-0.4,1.5-1.4,1.8c-3.1,1-1.7,4.8-4,6.6C202.2,528.3,202.1,529.1,201.8,529.8 M256,436.4
			c-5-2.7-11.3-1.5-16.8-3c-9.3,1.6-18.6,2.9-27.8,4.6c-0.2,0-0.5,1.3-0.4,1.4c1,0.6,0.9,1.6,1.2,2.4c0.5,1.9,3,2.3,2,4.8
			c3.1-0.8,5.1,0.5,7.9,0.4c2.3,0.1,5,0.9,6.9-1c0.7-0.9,3.4-1.2,3.8-0.4c0.7,1.3,0.8,0.4,1.4,0c0.5-0.3,1.7-0.5,1.8-0.3
			c1.2,1.7,3.2,0.1,4.8,0.4c3.2,1.7,7.9-2.5,9.8,1.3C256.4,451.6,255.7,439.6,256,436.4 M233.3,476.9c-1.9-2.9-5.3-1.8-8-2.4
			c-0.7-0.2-1.7-0.7-2-0.4c-0.8,0.7-1.5,0.3-2.2,0.2c-3.6-0.6-1.5,3.7-1.3,5.6c2.1,12.7-2.7,9.2,12.3,11.4
			c5.3,0.6,10.5,0.5,15.8,0.2c4.8-0.3,2.3-7.4,3.3-10.6c0.3-6.9-7.2-0.7-10.4-4c-1.2-0.3-2.7,1.1-3.8,1
			C235.7,477.7,234.5,477.2,233.3,476.9 M280,174.4c-1.5,0.6-2.8,1.7-3.7,3.7c-3,6.5-4.4,13.7-6.1,20.6c-2.6,6.6-5.8,13.1-6.9,20.2
			c-4.1,14.7-11.1,28.6-18,42.1c-4.2,9-14.1,13.1-19.5,21.2c-4.1,7.5-12.6,6.8-19.8,8c-3.9,1.1-7.9-3-10.5,2.5
			c-0.2,2.9-2.3,4.1-4.3,5.7c-1.8,2.3-4.2,3.6-6.8,4.9c-2.4-0.1-4.3,2-6.7,1.4c-2.7,0.5-5.6,0.2-8.3-0.1c-4.9,0.1-9.7,0.7-14.5-0.7
			c-1.3,0.9-2.9,0-4.1,0.4c-2.4,0.8-4.7,0.1-7,0.2c-2.2-0.1-3.9-2.1-6.1-0.9c-5.3,1.8-12.1-3.6-11.5-8.7c0.2,0,0.4,0,0.6,0
			c-3.6-8-8.9-18.4-4.4-26.9c-1.2-8.6,3-15.9,4.5-24.1c0-3.9,2.1-6.3,4.4-9.1c5.8-7.4,15.4-2.2,22.8-6.2c-0.1,1.5-1.6,5.2,0.8,4.4
			c3.5-2.5,8-2.9,11.9-4.5c11.9-3.4,24.6,1.3,36.6-1.5c5-0.8,10.9-0.6,14-5.4c3.3-4.4,6.6-8.8,11.1-12c5.2-6.6,5.1-16.3,7.4-24.2
			c0.1-1.1-0.2-2-0.9-2.2c-3-1.1-0.1-26.3,0.6-30.7c2-12.4-3.6-26.1-0.8-28.1c3.1-2.2,0.9-3.9,5.4-5c2.6-0.6,0.4-4.4-1.3-6.4
			c4.1-0.9,2-4.7,3-7.4c1.3-2.6,0.6-5.4,0.9-8c4-5.6,3.4-13.1,7.9-18.5c0.7-0.9,0.3-3.4,0-4.8c-2.3-4.8,6-2.8,2.9-6.2
			c-2.8-3,9.7-2.1,4.9-7.6c1.1-0.9,2.3-1.9,1.4-3.6c1.7-3.2,2.2-6.9,6.4-8.6c2.8-0.5,5.3-2.8,8.2-2.5c-0.1,0.8-0.2,1.5-0.2,2.3
			c-0.2,0-0.3,0-0.5,0c1.1,1.1,3,1.5,2.8,3.5c-0.1,2.6,3.4,2.5,5.2,3.3c0.5,0.1,1,0.3,1.4,0.1c2.4-1,4.7-0.1,7,0.1
			c0.3,0,0.9,0.2,0.9,0.5c2.1,3.5,8.1,3.8,9.5,8c0.1,1,0,2.1,1.1,2.6c0.2,0.1,0.3,0.6,0.2,0.7c-0.8,1.4,0.1,2.3,0.7,3.4
			c0.7,2.7,0.9,5.6,1.4,8.4c1.9,1.6,2.1,2.5,0,4c-1.1,2.1-0.7,4.9-0.9,7.2c0.1,1.1,1.6,2.1,2.3,2.9c0.4,1.6,0.9,3.2,2.3,4.3
			c-0.5,1.6-2.7,1.4-3,3.5c-2.2,3.7-4.5,7.6-6,11.7c-0.8,2.7-10.6,11.3-6.1,13.4C298.1,128.5,284.2,172.8,280,174.4z M149.8,236.8
			c-10.7,0.7-3.1,3.4-7.9,4c-1.8,0.1-5.4,0.1-4.7,2.7c0.3,0.9,0.7,1.9,2.2,1.6c1-0.2,2.2,0.1,3.2,0.3c2.4,2.3-5.3,0.7-6.1,2.6
			c0,0.9,1.2,2.9,2.5,2c2.7-0.7,5.5,0.8,7.4-2.2c2.1-2.3,0.7-5.9,3.3-8.1C150.7,238.9,151,237.7,149.8,236.8 M309.9,223.7
			c-1.1,4.3,6.9,7.9,2.4,11.2c-1,0.7-1.3,1.5-1.1,2.6c0.7,3.7,4.1,6.5,3.3,10.6c0.9,7.5,2.6,14.8,5.8,21.7c4,11.1,8,15.4,20.1,11.3
			c5.2-3.2,13.2-3.2,17.3,2.1c1.7,3.5,6,3.2,9.1,4.6c3.7,2.6,8.5,2.2,12.7,3.4c14.7,6.3,29.9,9.7,45.5,12.7
			c8.6,2.4,17.3,5.2,26.2,2.9c3.3-0.9,6.7,1.6,9.2-1.5c0.6-0.6,1.5-1.2,2.2-1.1c3.2,0.5,4.6-3.5,7.6-3.6c3.6,0,3.3-3.9,4.9-6.1
			c4.8-6.4,11.1-13.6,8.5-22.1c-0.9-14.1,0.4-3.3-6.5-15.9c-1.4-1.6-1.8-4.5-2.8-6c-4-2.5-8.5-1.2-12.8-1.7c-3.1,0.2-7.4-0.9-9,2.6
			c-0.2,0.4-0.9,0.9-1.4,0.9c-4.7,0-9.1,2.1-13.8,0.4c-4.6,0.5-9.1,0.5-13.6-0.9c-7.3-0.5-15.7-1.5-22.8-2.9
			c-2.5-2.4-5.7-2.8-8.9-3.1c-2-0.2-3.9,0.1-5.5-1.6c-6.5-2.4-13.3-4.7-19.9-7.1c-12.4-4.8-25.8-6.4-39-6.6
			C320.6,230.7,316.7,225.4,309.9,223.7"/>
	</defs>
	<clipPath id="SVGID_00000046299960902801556290000017497424146997895095_">
		<use xlink:href="#SVGID_00000058557720393770513970000005910339089816404415_"  style="overflow:visible;"/>
	</clipPath>
	
		<path style="clip-path:url(#SVGID_00000046299960902801556290000017497424146997895095_);fill:none;stroke:#FFFFFF;stroke-width:80;stroke-linecap:round;stroke-miterlimit:10;" d="
		M283.1,29.8c-5.7,30.9-17.7,261.5-142.8,236.1"/>
	
		<path style="clip-path:url(#SVGID_00000046299960902801556290000017497424146997895095_);fill:none;stroke:#FFFFFF;stroke-width:80;stroke-linecap:round;stroke-miterlimit:10;" d="
		M289.9,203.3c25.6,65.6,120,75.2,162.8,72"/>
	
		<path style="clip-path:url(#SVGID_00000046299960902801556290000017497424146997895095_);fill:none;stroke:#FFFFFF;stroke-width:80;stroke-linecap:round;stroke-miterlimit:10;" d="
		M139.2,413.3c32.2-24.6,188.7-12.4,222.3-24.7"/>
	
		<path style="clip-path:url(#SVGID_00000046299960902801556290000017497424146997895095_);fill:none;stroke:#FFFFFF;stroke-width:80;stroke-linecap:round;stroke-miterlimit:10;" d="
		M167.4,418.8c7.5,20.2,9,56.5,13.5,68.2c5.9,15.2-1.3,1.9-24,38.2"/>
	
		<path style="clip-path:url(#SVGID_00000046299960902801556290000017497424146997895095_);fill:none;stroke:#FFFFFF;stroke-width:80;stroke-linecap:round;stroke-miterlimit:10;" d="
		M299.1,407c-5.3,41.8-12.2,108.3-11.9,131.9"/>
	
		<path style="clip-path:url(#SVGID_00000046299960902801556290000017497424146997895095_);fill:none;stroke:#FFFFFF;stroke-width:80;stroke-linecap:round;stroke-miterlimit:10;" d="
		M191.9,439.3c26.2-0.6,52.2,1.2,55.4,1.3"/>
	
		<path style="clip-path:url(#SVGID_00000046299960902801556290000017497424146997895095_);fill:none;stroke:#FFFFFF;stroke-width:80;stroke-linecap:round;stroke-miterlimit:10;" d="
		M193.3,476.3c0,0,55.7,4.3,58,4.5"/>
	
		<path style="clip-path:url(#SVGID_00000046299960902801556290000017497424146997895095_);fill:none;stroke:#FFFFFF;stroke-width:80;stroke-linecap:round;stroke-miterlimit:10;" d="
		M169.8,525.2c26.6-11.4,63.9-10.7,80.5-6.7"/>
</g>
<g>
	<defs>
		<path id="SVGID_00000119804732590152012250000007239642478636468864_" d="M330.7,521.7c-0.6-0.2-1.2,0-2,0.9
			c-2.6,1.2-4.7,3-7.2,4.4c-0.4,0.2-0.2,1.5-0.3,2c-1.9,1.8-3.1,3.3-6,3.4c-1.2,3.4-5.7,2.4-8.6,2c-1.8,0.4-2.1,2.8-4.3,1.3
			c-2.1-1.4-1.7,0.9-3.2,1.1c-1.3-0.5-4.1-0.3-3.5-2.5c0.1-0.7-0.7-2-0.2-2.7c1.7-2-4.8-4.8-6.1-6.5c0.6,0.1,1,0.1,1.5,0.1
			c0.1-0.1,0.2-0.2,0.3-0.3c-1-1.3-2.1-2.5-3.1-3.8c0.1-0.1,0.1-0.2,0.2-0.3c1.1,0.6,2.2,1.2,3.3,1.8c0.6-1.7,0.5-3.1-1-4.1
			c0.1-0.1,0.2-0.2,0.3-0.3c1.1,0.5,2.2,1,3.3,1.5c0.1-0.1,0.2-0.3,0.3-0.4c-0.4-0.4-0.7-0.8-1.1-1.2c0.1-0.1,0.2-0.2,0.3-0.2
			c3.2,1.9,6.7-1.9,10.5-1.9c-0.3-0.3-0.6-0.7-1-1.2c0.8-1.2,2.1-2.2,1.8-3.9c0-0.2,0.7-0.7,1-0.7c4.9,1.2,4.4-1,8.5-2.7
			c-1.2-1.1-1.2-1.8,0.2-2.2c0.6-0.6,0.6-1.6,0.9-2.7c4.3-6.8,10.1-11.4,16-16c13.3-14.7,12.9-23-8.4-25.1c-3.5-0.4-6.1,1.6-9.1,2.6
			c-3.5,1.6-7.1,0.3-10.5,1.9c-0.1,0.2-0.1,0.4-0.2,0.6c-2.7-2.5-5.6-5-8.2-7.4c-0.1-0.2,0-0.7,0-0.7c1.4-0.3-0.5-2.3,1.2-2.6
			c2.4-0.5,4.4-2.2,6.6-3.3c20.1-11.3,52.1-6.7,62.5,15.4c1.9,1.5,1.7,4,2.9,5.9c0.5,2.6-0.7,5.7-2,8.2c-1.3,4.7-3.8,8.9-6.4,13
			c-0.1,0.3-0.8,0.4-1.2,0.6c1,2.4-2.6,3.6-3.8,5.3c-0.8,1.4-1.8,2.6-3.2,3.4C345.9,507,338.9,518.6,330.7,521.7z M355.4,481.7
			c-0.2,2.1,0.7,2,2.2,1.6C356.8,482.7,356.3,482.3,355.4,481.7"/>
	</defs>
	<clipPath id="SVGID_00000152960000932815394350000007578460951388523400_">
		<use xlink:href="#SVGID_00000119804732590152012250000007239642478636468864_"  style="overflow:visible;"/>
	</clipPath>
	
		<path style="clip-path:url(#SVGID_00000152960000932815394350000007578460951388523400_);fill:none;stroke:#FFFFFF;stroke-width:80;stroke-linecap:round;stroke-miterlimit:10;" d="
		M277.2,440.7c95.1-53.7,146,51.1,47.6,92.4"/>
</g>
<g>
	<defs>
		<path id="SVGID_00000117664894056917258250000009488012166412731041_" d="M315.4,502.7c-2.6-7-9.5-10.4-16-13.6
			c1.1,0.1,1.8,0.1,2.5,0.1c0.1-0.1,0.1-0.2,0.2-0.3c-0.4-0.3-0.8-0.7-1.2-1c-0.6-0.4-2.1-0.1-1.2-1.6c-1-0.9-3.3,0-2.6-2.2
			c-0.7,0.3-1.2,0.4-1.8,0.6c-0.2-0.2-0.6-0.7-1.1-1.2c1.7,0.3,3.2,0.5,4.8,0.7c0.1-0.1,0.1-0.3,0.2-0.4c-0.4-0.4-0.7-0.7-1.3-1.4
			c1.7-0.2,4.3,0.4,2.9-2c5.9,0.8,11.4,2.1,17.1,3.8c4.3,0.8,9.6,5.7,13.6,2.5l20.4,17.7c0,0.4,0,0.5,0,0.9c1,0.5,2.4,0.6,3,1.3
			c1.3,1.7,3.9,1.6,4.8,3.8c0.1,0.1,0.5,0.3,0.6,0.2c1.1-0.6,1.9,0.1,2.8,0.6c1.7,1,3.7,1.3,5.7,1.5c2.7,0.6,4.8,3.1,8,2.6
			c14-1.3,28.2-3.1,42.4-2.1c3.5-0.5,5.6,1,6.3,4.5c-0.4,0.2-0.8,0.5-1,0.6c0.1,1.4,0.1,2.5,0.2,3.8c-0.4,0.1-0.9,0.2-1.4,0.4
			c0,0.8,0.1,1.6,0.1,2.4c-1,0.3-2.2,0.4-1.8,2c0,0.2-0.2,0.6-0.3,0.6c-2.2,0.2-2,2.3-2.8,3.6c-3.5,4.5-10.4,7.7-11.5,13.4
			c-1.2,0.2-0.9,1.4-1.3,2.1c-2.3,3.3-4.4,5.4-8.7,3.7c-0.4-0.1-1.2,0-1.3,0.3c-1,2.1-3.3,0.3-4.9,0.6c-3,1.2-6.3,0.6-9.3-0.1
			c-2-1.6-9.5,0.5-7.6-3.2c-0.1-0.1-0.2-0.2-0.3-0.4c-0.6,0.4-1.8,1.3-2.5,1.1c-1.7-0.9-3.5,1.6-4.4-1.6c-1-0.1-2-0.2-3-0.3
			c0.1-0.5,0.2-0.9,0.3-1.2c-1.9-1.4-5.2-1.4-6.5-3.2c-1.8-2.1-4-2.2-6.2-2.9c0.7-1.2,0-1.9-1.1-2.2c-1.6-0.4-2.7-2-4.7-1.5
			c-0.3,0.1-1.3-0.7-1.3-1.1c-0.1-1.6-1-2.3-2.3-2.8c-2.5-1.9-2.8-6-6.7-6.8c-2-0.1-3-2.8-4.4-3.2 M224.9,564.5
			c-1.4,1.3-2.1,3.1-4.1,3c-0.1,0-0.5,0.3-0.5,0.5c0.3,1.2-0.2,2.1-0.5,3.2c1.4,3.2-1.7,5.4-3.7,7.3c-1.2,2.1-2.9,0.8-4.5,0.5
			c-3-0.1-6.6,3-9.1,1.3c-0.2,0.4-0.3,0.7-0.4,1c-3.6-1.9-6.5,4.9-9.8,1.3c-0.9,0.5-1.8,0.9-2.8,1.5c0.5-3.2-14.7,2-17.7-0.2
			c-0.4-0.2-1.4,0.1-1.5,0.3c-0.4,1.8-2.4,1.3-3.3,2.3c-0.3,0.3-0.9,0.6-1.3,0.6c-3.7,0-5,4.1-8.6,4.7c-0.8,0.1-1.8,1.5-2,2.5
			c-0.5,2.2-2,3.7-2.3,6c-0.4,1.3,0.6,2.6-0.2,4c-0.5,0.8-0.7,1.5-1.7,1.8c-1.7,1.5-0.9,4.5-0.7,6.5c0.5,2.9,4.2,2.6,5,5.3
			c3.5,1.4,2,4.3,5.5,4.2c11.3,1.3,21.9-1.8,32.8-4c4.8,1,9.9-0.6,14.6,0.8c3.4-0.5,6.6-2.4,10.2-1.8c1.7,0.5,2.4-1.3,4-0.6
			c0.4,0.1,1.4-0.3,1.4-0.4c0.2-1.6,2.2-2.2,3-3.5c-0.5-0.6-1-1.1-1.5-1.8c1.4-1.2,4.2-1.4,3.5-3.7c0.1-2,2.1-3.5,2.9-5.3
			c3.2-5.3,3.1-11.2,4.4-17.1c-0.1-2.3,0.2-4.7,0.3-7c-0.6-1.7-0.2-3.1,0.2-4.8c0.1-1.5-2.1-5.3-3.6-4.9c-0.9,0.7-1.4,0.1-1.6-0.5
			c-1.2-3-4.7-3.3-7.3-4.6c-0.1,0.1-0.1,0.3-0.2,0.4C224.3,563.8,224.7,564.3,224.9,564.5 M207.9,641.3c0-0.1-0.1-0.2-0.1-0.3
			c-2.4,0.4-5.4-0.2-7,2.1c-0.1,0.2-0.7,0.4-1,0.4c-2.9-0.1-6.1-1.3-8.9-0.8c-2.9,3.7-7.8,2.5-11.5,4.4c-0.7,0.3-1.3,1-2,1
			c-2.7-0.3-3.6,2.9-6.2,2.4c-1.3-0.2-2.7-0.7-3.9,0.6c-1.2,1.8-3.4,0.4-5.1,1.6c-5.7,3.1-10.5-3.8-16.1-2.4c-1.5,1.4-5-3.3-8.3-1.6
			c-6.2,4.2-2.1,2.9-0.9,8.3c0.4,0.6,0.7,1.5,0.6,2.2c-1,2.6,0.6,5.2,1.4,7.6c-0.5,0.1-0.9,0.2-1.5,0.3c4.4,2.5,4.8,8.2,8,11.9
			c3.6,4.5,9.4,11.2,15.3,11.6c2.5-0.2,3.3-3.3,5.2-3.9c2.8,0.4,3.4-3.7,5.8-2.4c2.4,1.6,3.8-2.8,6.2-0.8c0.4,0.4,1.9,0.3,2.1,0
			c1.1-1.9,2.7-0.8,3.9-0.6c1.7,0.4,3.2-0.1,4.8,0c3.9,0.7,9.5-0.7,12.3-3.4c0.4-1.4,0.9-1.2,1.8-0.8c1.3,0.6,2.3-0.4,2.6-1.1
			c0.8-2.1,3.4-3.1,4.5-4.5c4.6-6.4,12.2,1.4,18.3,0.3c3.1-1,11.1-3.3,10.8-7.3c0.3-3.1,2.8-5.7,2.2-9.1c0.2-1,1-2,1.3-3
			c2.6-6.5,3.2-13.6,5.2-20.2c1.7-7,2.8-7,0.1-7.9c0.1-1.6,0.2-3.1,0.3-4.9c-0.6,0.1-1.2,0.2-1.8,0.3c-0.9-4.8,2.8-9.1,2.8-13.7
			c-0.2-2.1-2.1-2.2-2.7-0.3c-0.8,1.9-1.3,4.2-2.3,6c-4.5,3.1-6.9,11.4-10.4,16c-2.7,3.1-3.9,8.9-8.4,9.6c-1.3,0-2.5,1.1-3.8,1.6
			c-1.2,0.5-3-0.6-3.7,1.3c-0.6-0.2-1.1-0.4-1.5-0.6c-0.4,0.3-0.8,0.9-1,0.9c-4.3-0.7-3.5,4.1-8.4-0.4
			C207.3,641.6,207.6,641.4,207.9,641.3 M250.7,622.8c-0.1-0.1-0.3-0.2-0.4-0.3c-0.6,1-1.1,1.9-1.7,3
			C250,625.8,250,625.8,250.7,622.8"/>
	</defs>
	<clipPath id="SVGID_00000069394076346918593530000009836032747211138690_">
		<use xlink:href="#SVGID_00000117664894056917258250000009488012166412731041_"  style="overflow:visible;"/>
	</clipPath>
	
		<path style="clip-path:url(#SVGID_00000069394076346918593530000009836032747211138690_);fill:none;stroke:#FFFFFF;stroke-width:80;stroke-linecap:round;stroke-miterlimit:10;" d="
		M274.5,464.3c34.9,0,50.9,58.9,118.2,49.5"/>
	
		<path style="clip-path:url(#SVGID_00000069394076346918593530000009836032747211138690_);fill:none;stroke:#FFFFFF;stroke-width:80;stroke-linecap:round;stroke-miterlimit:10;" d="
		M229.4,539.9c-10.4,48.8-37.5,53.1-59,57.7"/>
	
		<path style="clip-path:url(#SVGID_00000069394076346918593530000009836032747211138690_);fill:none;stroke:#FFFFFF;stroke-width:80;stroke-linecap:round;stroke-miterlimit:10;" d="
		M256,575.4c-17,74.3-61.2,82.6-93.4,81.7"/>
</g>
<g>
	<defs>
		<path id="SVGID_00000085234448320747797830000010097317025193602965_" d="M251.9,567.9c1,1.8,0,4.3-2.1,4.6
			c-3.9,0.2-6.3,2.7-9.1,5.1c1.1,1.2,2.3,2.5,3.7,3.9c-1,1.7-2.8,3.9-0.1,5.5c-1.5,1.4-1.5,1.9,0.4,2.9c-2.4,1.5-0.3,3.6-0.5,5.5
			c5,0.6,8.9,6.8,14.3,5.2c5.3-1,8.7,4.4,13.6-0.6c1.6,6.1,1.8,11.6,0.7,17.6c0.4,4.7,0.6,9.6,0.8,14.2c3,7.2-0.1,14.8-0.6,22.2
			c0.2,8.1,0,16-0.8,23.9c-0.8,7.9-3.9,15.5-3.7,23.4c0.6,2.9,0.1,6.2-0.9,9.1c-1,1.7,1.9,2.2,1.8,4.1c0.2,1.7,2.9,1.8,2.6,3.6
			c-0.2,2.8,1.9,4.5,3.3,6.5c3.4,0.5,7.1,2.3,10.6,2.2c1.6-0.7,2.5-2.7,4.6-2.3c1.5-1.2,2.8-3.3,4.4-4.4c3.6-0.1,4.2-3.9,6.3-6
			c2.1-4.2-1.4-7.9-1-12c0.5-5.4,1.6-11.1,0.9-16.4c-1.2-3.9-1.8-8-0.6-12c1.2-4.4-0.2-8.7-0.5-13c-0.3-4.3,1.5-8.5,0.8-12.8
			c1.5-3.2-3.4-11.2,3-8.7c3.3,1.2,7.1,1.1,9,4.4c3.8,3.7,9.2,4.2,14.2,4.2c6.2,1.4,10,7.8,15.2,11.3c4,5.3,9.9,7.7,14.8,12
			c0.4,0.3,1,0.6,1.4,0.4c3.1-0.8,0,2.6,4,5.7c-0.3,4.1,5,4.4,6.5,7.5c1,2.1,3.2,2.7,4.4,4.7c3,3.9,7.2,7.4,11.7,9.3
			c3.6,0.4,6.3,2.8,10.1,2.5c2.2-0.4,4.4,0.2,6.4,0.8c3.3-1,7.2-1.5,10.1-3.1c-0.2-1.5,1.1-1.3,1.8-1.6c3.7,0.1,1-5.8,3.6-4.3
			c0.8,0.5,1.5,0.7,2.3,0.2c1.8-0.9,3.8-0.3,5.6-0.6c2.9-0.8-0.3-3.4,3.2-4.6c3.2-1,6.4-2.4,9.4-4c1.2-1,1-2.9,1.3-4.3
			c3.1-6.1,1.8-5.6,0.3-12.1c1-3.6-3-5.3-5.8-6.1c-1.9-0.6-3.6,0.2-5.1-1.7c1.1-0.2,1.8-0.3,2.3-0.3c0-0.6,0.1-1.2,0.1-2
			c-6.7-2.8-13.9,1.8-20.7,0.9c-5.2-0.9-10.7,2.3-15.8,1.3c-3.3-1.5-6.8,0.5-9.8-2c-3.2-1.6-4.5-7-8.6-6.9c-1.6-0.7-2.6-2.6-4.7-2.1
			c-5.3-1.5-11.1-2.9-16-5.7c-7.7-5.1-13.1-15.3-22.7-16.7c-3.5-0.7-8.3-0.3-10.8-3.1c8.2-4,16.3-7.2,24.7-10.5
			c1.9-1.4,3.2,0.5,5.5,0.8c0.4-0.5,2.7-1.3,3-1c1.2,1.2,1.9,0.5,2.5-0.3c1.4-1.7,3.5-2.2,5.2-3.4c2.7-1.8,6.5-1.7,8.4-4.8
			c1.8-1.1,3.7-2.5,5.3-3.9c0.8-1.5,0.3-4.1,2.7-4.3c1.8-2.6,5.5-3.3,8-5.4c1.2-0.9,3.5,0.5,3.9-1.5c0.3-3.4,2-0.9,2.4-3.4
			c-1-3,1.8-4.6,0.3-7.4c-1-1.8-0.7-4.4-3.1-5.5c-0.8-0.9-1.4-2.1-1.9-2.8c-2.5,0.4-4.7-0.2-6.8-1.3c-3.2-1.6-8.3-1.3-9.4-5.4
			c-6.3-2.7-3.4,6-15.7-0.1c0.3,1.4,1.9,1.8,2.9,2.6c0,0.1-0.1,0.2-0.1,0.4c-2.1,0.3-3.4-2.9-5-0.5l1.9,1.7
			c-0.1,0.3-0.1,0.3-0.3,0.7c-1.4-0.1-2.9-0.3-4.4-0.4c0.5,0.8,0.9,1.5,1.5,2.4c-1.1,0-1.6,0.3-2.4,0.8c1,2,2.6,3.7,3.8,5.5
			c-0.4,1.5,0.8,3.7-0.8,4.7c-6.9,4.7-14.8,7.6-21.9,11.9c-2.5,3-6.7,4.2-9.6,6.9c-2.7,2.8-5.9,4.7-9.5,6.1c-2.5,2.2-6.5,0-8.4,1.8
			c-0.4,0.8-1,1.3-2.1,1.1c-1.4-0.3-3.4,0.5-4.4-0.6c-2.5-3.5-2.5-6.7,1.2-9.3c2.3-2.1,0.5-6.4,3.3-8c4.6-2.2,9.8-2.2,14-5.2
			c1.4-0.6,2.6-2.1,4.5-0.9c0.2-0.5,0.4-0.9,0.6-1.3c3.2,0.9,2.4-2,3.5-3.2c2.2,0.1,1.9-2.6,4.2-2.3c-0.4-0.5-0.8-0.9-1.3-1.6
			c9.9,0-5.7-16.2-9.5-16.6c-0.3-0.1-0.9-0.5-0.9-0.8c-0.1-1.6-1.7-1.4-2.5-2.1c-0.7-0.5-1.7-1.5-2.5-1.3c-1.2,1.2-1.8,0.4-2.1-0.7
			c-1.6,0.2-1.7,0-2.4-1.1c-1.9-2.1-3.9-4.6-6.5-1.9c-6.6,0.9-11.2,5.5-17.6,7.3c-4.3,0.5-7.8,3.3-11.9,4.2
			c-3.4-0.2-6.9,0.8-9.9,2.7c0.2,0.4,0.4,0.8,0.8,1.6C258.2,566.1,255.2,565,251.9,567.9"/>
	</defs>
	<clipPath id="SVGID_00000104699878424757261330000006291179237638597767_">
		<use xlink:href="#SVGID_00000085234448320747797830000010097317025193602965_"  style="overflow:visible;"/>
	</clipPath>
	
		<path style="clip-path:url(#SVGID_00000104699878424757261330000006291179237638597767_);fill:none;stroke:#FFFFFF;stroke-width:80;stroke-linecap:round;stroke-miterlimit:10;" d="
		M322.8,533.4c-7,16.9-51,21-64.5,30.9"/>
	
		<path style="clip-path:url(#SVGID_00000104699878424757261330000006291179237638597767_);fill:none;stroke:#FFFFFF;stroke-width:80;stroke-linecap:round;stroke-miterlimit:10;" d="
		M274.7,559.1c-33.1,48.8-4.6,94.5-9.8,143.1"/>
	
		<path style="clip-path:url(#SVGID_00000104699878424757261330000006291179237638597767_);fill:none;stroke:#FFFFFF;stroke-width:80;stroke-linecap:round;stroke-miterlimit:10;" d="
		M389.5,539.4c0,35-92.9,46.9-118.2,54.1c20.1,26.7,99.9,90.4,142.2,78.6"/>
</g>
<linearGradient id="SVGID_00000134954475451754608870000010942159749880693928_" gradientUnits="userSpaceOnUse" x1="559.3398" y1="706.4033" x2="559.3398" y2="71.1821">
	<stop  offset="0" style="stop-color:#C79F62;stop-opacity:0"/>
	<stop  offset="1" style="stop-color:#C79F62"/>
</linearGradient>
<path style="fill:url(#SVGID_00000134954475451754608870000010942159749880693928_);" d="M585.3,117.9v49.2c0,2.6-2.5,3.8-5.2,3.2
	v-3.8h-42.4v1.3c0,2.2-2.2,3.6-5.2,2.9v-58.5l4,0.9c1,0.2,1.2,0.7,1.2,0.9h39.3c1.3,0,2.2-0.5,3.1-1.5l4.2,1.3
	C587.4,114.7,585.3,116.9,585.3,117.9 M580.1,117.4h-42.4v45.5h42.4V117.4z M560.8,149.5c-3.2,2-12.5,5.8-16.4,7.3
	c-2,0.8-2.2,0.5-5.6-3.4c7.6-1.5,17.2-3.9,21.3-5.2C561.1,148,561.4,149.1,560.8,149.5 M575.5,128.9h-10.2c0.1,7.5,0.4,11.5,1.5,15
	c0,0.1,0.1,0.2,0.1,0.3c2-3.2,3.6-6.7,5.2-11.6l2.8,1.5c1.3,0.7,1.5,1,1.1,2c-2,4.4-4.2,8.6-7.2,12.4c1.6,2.8,3.3,4.7,4.7,5.6
	c0.3,0.2,0.7,0.4,1,0.2c0.4-0.3,1.2-3.3,1.9-5.5c0.1-0.5,1-0.3,1,0.1c-0.2,3.7-0.1,7,0.7,9c0.8,2.1,0.3,4.2-3.1,2.8
	c-2.9-1.3-6.6-3.8-9.5-8.3c-3.6,3.6-8.1,6.7-14.1,8.9c-1.3,0.5-1.5-0.7-0.8-1.1c5.7-3.5,9.8-7.3,13-11.3c-0.3-0.7-0.6-1.5-0.9-2.4
	c-1.3-4.1-2-8.9-2.3-17.7h-18.9c-1.1,0-1.5-0.7-2.6-3.2h21.4c-0.1-2.2-0.1-4.7-0.1-7.5l4.2,0.9c0.8,0.2,0.8,0.5,0.8,0.9v5.6h8.6
	c1,0,1.6-0.5,2.8-1.7c1.3,1.2,2.4,1.9,2.4,2.8C579,128.2,577.7,128.9,575.5,128.9 M552.4,147.6v-1.9h-5.6c-0.1,2.4-2.2,3.4-4.9,3
	V132l3.7,0.7c0.8,0.1,1.2,0.5,1.2,0.9h3.1c1,0,1.7-0.4,2.5-1.3l3.8,1.1c3,0.9,1.1,2.3,1.1,3.4v8.1
	C557.3,147.3,554.8,147.9,552.4,147.6 M552.4,136.6h-5.6v6.1h5.6V136.6z M567.3,119.8c-0.5-0.7-0.1-1.2,0.8-1
	c2.2,0.5,4.1,0.9,5.4,2.1c2.2,2-0.8,6.7-3.5,2.9C568.8,122.1,567.9,120.6,567.3,119.8 M542,221.1c-2,0.3-2.9-1.5-5.2-3.6
	c-0.6-0.5-0.3-1.1,0.4-0.9c2.5,0.5,3.3,0.4,3.9-0.3c1-1.2,1.6-2.6,1.5-6.4c-0.1-4-2-7.3-5.2-11.2c-0.5-0.5-0.5-0.9,0-2
	c1.9-4.5,3.4-9.1,4.9-14.6h-7V232c0,3.2-2.6,3.9-5.2,3.5V177l4,0.9c0.8,0.2,1.2,0.6,1.2,0.8v0.1h5.7c1.2,0,1.5-0.3,2.6-1.4l3.4,2.1
	c1.4,0.9,1.3,1.3,0.6,2.6c-2.8,5-6.1,11.8-8.4,15.5C551.6,206.7,548.2,220.3,542,221.1 M560.1,221.9c-2.4,2.4-9.4,9.1-16.5,12.1
	c-1,0.5-1.7-0.5-0.8-1.2c4.5-3.8,9.7-9.2,13.5-15l3.1,2.1C560.6,220.7,560.9,221.1,560.1,221.9 M544.3,195.2
	c4.1-5.5,7.9-11.6,10.7-19.4l2.9,1.8c1.7,1.1,1.7,1.2,1,2.5l-0.6,0.9h4c1.1,0,1.8-0.1,2.8-1.1l2.6,1.9c1.3,0.9,1.4,1.1,1,2.3
	c-2.9,9.1-9.7,19.2-20.1,24.2c-0.8,0.4-1.5-0.5-0.9-1c3.5-3,7.4-7,9.5-10.2c2.8-4.2,5-8.7,6-13h-7c-0.5,0.7-1,1.4-1.5,2.1
	c2.6,0.9,4,1.5,4.7,2.2c2.2,2.1-0.2,5.8-2.8,3c-0.8-0.9-1.9-2.2-3.1-3.7c-0.9,1.3-1.9,2.4-3.1,3.6c2.6,1.3,3.8,1.9,5,3.4
	c1.6,2-1,5.9-3.3,2.6c-1-1.4-2.2-3.4-2.9-4.8c-1.4,1.3-2.8,2.6-4.2,3.5C544.2,196.8,543.8,195.8,544.3,195.2 M571.1,214.6v17.8
	c0,2.9-2.7,3.8-5.4,3.4v-21.2h-12.9c-1.3,0-1.5-0.7-2.8-3.4h31.1c1.2,0,1.9-0.7,3.2-2.1c1.4,1.4,2.6,2.1,2.6,3.2
	c0,1.6-1.5,2.2-3.8,2.2H571.1z M557.8,202.4H573c1.1,0,1.7-0.6,3.1-1.9c1.5,1.5,2.5,2.1,2.5,3c0,1.5-1.4,2.3-3.5,2.3h-14.6
	C559.4,205.9,559.1,205,557.8,202.4 M590.8,204.2c-4,2.4-4.4,2.6-6.4,1.1c-2.7-1.9-4.8-4.2-7.4-7.6c-4.2-5.5-6.4-13.4-7.6-19.6
	c1.8-0.3,3,0,3.3,0.9c1.1,3.8,2.4,8.3,4.6,12.2c1.5-2.1,3.1-4.6,4.4-7.1h-5.2c-1,0-1.4-0.7-2.5-3.2h7c1.1,0,1.7-0.3,2.6-1.3l3.1,2.6
	c1.3,1.1,1,1.3,0.3,2.1c-1.9,2.1-5.2,5.8-8.6,8.7c0.4,0.7,1,1.4,1.5,2.1c2.7,3.1,6.5,5.8,10.7,8.2
	C591,203.4,591.5,203.7,590.8,204.2 M588.1,228.1c2.6,3.3-0.6,7.7-4.1,3.3c-3.6-4.5-6.1-7.9-8.6-11.1c-0.6-0.7-0.2-1.7,1-0.9
	C580.8,221.8,585.3,224.5,588.1,228.1 M588.3,269.5c-2.4,1.7-5.6,4.6-7.4,5.8c-0.8,0.5-1.7,0.1-1.1-0.9c0.8-1.4,2.4-3.6,3.3-5.4
	h-47.3c-0.1,1.3-0.4,2.6-0.8,3.7c-2.2,6.3-9.1,3.3-5.7-0.6c1.3-1.5,3.6-4,5.4-8c0.3-0.8,1.5-0.6,1.5,0.1v1.5h1.7l-2.2-21.4l4.3,0.7
	c0.3,0.1,0.6,0.1,0.8,0.3c3.6-1.6,5.3-2.6,8.6-5l2.2,2.2c1,1,1,1.5-0.3,2c-2.2,0.7-5.6,1.8-10,2.7l0.4,3.8h4.3c1.3,0,1.8-0.3,3-1.5
	c1.3,1.2,2.3,1.9,2.3,2.6c0,1.5-1.3,2-3.3,2h-6l0.5,4h3.8c1.3,0,1.8-0.4,3-1.7c1.3,1.2,2.4,2,2.4,2.8c0,1.5-1.3,2.1-3.4,2.1h-5.5
	l0.5,4.4h32l0.6-4.5h-5c-1,0-1.3-0.7-2.4-3.2h7.9l0.6-4h-5.6c-1,0-1.5-0.7-2.5-3.2h8.6l0.5-4.2h-7.2c-1,0-1.3-0.5-2.5-3.2h7.3
	c1.3,0,2-0.5,3-1.5l3.8,1.5c3.1,1.2,1,2.6,0.8,3.6l-2.6,18.5h2.3c1.3,0,2.4-0.2,3.4-1.3l2.6,2.5
	C589.7,268.2,589.7,268.5,588.3,269.5 M588,284.8c0,1.5-1.7,2.3-3.8,2.3h-22v10.3c0,2.4-3.1,4.4-5.6,2.6c-2-1.4-5.4-2.8-7.1-3.4
	c-0.7-0.3-0.6-1,0.1-1c1.6,0,6.1,0.1,6.5,0c0.3-0.1,0.3-0.3,0.3-0.5v-7.9h-24c-1.2,0-1.5-0.9-2.8-3.4h26.7v-3.9l4.6,0.9
	c3.1-1.9,4.9-3.2,6.2-4.2H542c-1.2,0-1.6-1-2.6-3.3h28.9c1.2,0,2-0.3,3.2-1.3l2.5,2.4c1.5,1.5,1.3,1.9,0.3,2.4
	c-3.1,1.9-7.2,3.6-12.3,5.6v1.3H582c1.3,0,2-0.8,3.2-2C586.6,282.9,588,283.7,588,284.8 M556.6,259.1c-1.2-1-2.4-1.9-3.4-2.7
	c-0.7-0.6-0.4-1.5,0.6-1.1c1.5,0.5,3.1,1.1,4.7,1.7c1.4-1.6,2.6-3.2,3.7-4.8l2.7,2.1c1.1,0.8,1.1,1,0.6,1.5
	c-0.6,0.6-1.8,1.7-3.3,2.9c1.3,0.7,2.4,1.3,3.1,1.9c3,2.4,1.3,6.5-2.7,3.3c-1-0.9-2.2-1.8-3.5-2.8c-2,1.4-4.4,2.9-7,4.2
	c-1,0.5-1.4-0.5-0.8-1C553,262.5,554.9,260.8,556.6,259.1 M553,252.8c1.5-1.4,3.3-3.4,5-5.4c-1.3-1.2-2.6-2.3-3.8-3.2
	c-0.7-0.7-0.3-1.5,0.7-1.1c1.7,0.6,3.3,1.3,4.9,2.1c1.3-1.6,2.3-3,2.9-4.1l2.9,1.8c1.1,0.7,1,1.1,0.6,1.6c-0.6,0.7-1.6,1.6-2.8,2.6
	c0.6,0.3,1.2,0.7,1.5,1c3.7,2.9,0.9,6.6-2.5,3.4c-0.6-0.6-1.3-1.3-2.1-1.9c-2,1.5-4.2,3.1-6.5,4.4
	C552.9,254.4,552.4,253.3,553,252.8 M528.4,310.7h18.3v-5l4.3,0.8c0.8,0.1,1.3,0.4,1.3,0.9v3.3h13.4v-5.2l4.3,0.9
	c1,0.2,1.3,0.5,1.3,1.1v3.2h12.1c1.2,0,1.9-0.7,3.1-1.9c1.4,1.3,2.6,2,2.6,3c0,1.6-1.5,2.1-3.6,2.1h-14.1v2.2c0,1.9-2.9,3-5.6,2.6
	v-4.8h-13.4v2.4c0,1.9-2.5,3.2-5.6,2.6v-5h-15.8C529.8,313.9,529.5,313.2,528.4,310.7 M543.8,343.7v18.6c0,2.2-2.2,3.4-5.2,2.9v-20
	c-1.7,0.5-3.5,1-5,1.4c-2.1,0.5-2.2,0.4-5.1-4c2.2-0.2,4.1-0.3,6-0.5c4.7-5.2,7.9-10.7,11.8-17.6l2.9,2.2c1.5,1.1,1.5,1.2,0.5,2.4
	c-3,3.6-7.6,9.1-11.7,12.8c3.1-0.3,5.7-0.5,8.2-0.9l-1-3c-0.3-0.8,0.4-1.4,1.1-0.9c2.4,1.9,4.2,3.3,5.7,5.5c2.4,3.6-2.1,7.5-4.1,2.8
	c-0.3-0.9-0.7-1.7-1-2.4C545.9,343.1,544.8,343.3,543.8,343.7 M536.5,352.4c-1.7,4.2-4.1,9.1-6,11.4c-0.8,0.9-1.5,0.1-1.3-0.7
	c0.8-3.3,2.2-9.9,3-14.6l3.3,1.3C537.2,350.5,537.2,350.8,536.5,352.4 M536,330.2c0.8,0.6,1.5,1.2,2.1,2c2.4,3.1-1.8,6.3-4,3
	c-1.7-2.6-3.1-5.2-4-6.9c-0.4-0.7,0.1-1.4,1-0.9c1.2,0.6,2.2,1.1,3.2,1.7c1.9-2.8,4.1-6.7,6.3-12l2.6,1.7c1.7,1.1,1.9,1.4,1,2.4
	C541.5,324.6,538.6,327.8,536,330.2 M547.5,356.7c-0.9-3.2-1.5-5.8-2-7.9c-0.2-0.9,0.5-1.3,1.3-0.6c2.2,1.9,3.8,3.7,4.9,5.7
	C553.8,357.6,548.7,360.9,547.5,356.7 M590.6,361.3c0,1.7-1.4,2.2-3.8,2.2h-37.5c-1,0-1.4-0.5-2.6-3.3h7v-17.8l3.9,0.7
	c0.6,0.1,1,0.4,1,0.9h18.5c1.1,0,1.7-0.5,2.4-1.3l4.5,1.6c2.6,0.9,0.5,2.4,0.5,3.2v12.8h0.3c1.3,0,1.9-0.7,3.1-2
	C589.4,359.4,590.6,360.2,590.6,361.3 M577.3,342.1v-2.4h-16.8v0.1c0,1.9-2.7,2.6-5.1,2.3v-23.8l4,0.7c0.6,0.1,1,0.4,1,0.8v0.1h14
	c1.3,0,1.9-0.5,2.9-1.5l0.6,0.2l4,1.4c2.5,0.9,0.6,2.2,0.6,3.4v16.5C582.3,341.4,580.1,342.4,577.3,342.1 M558.7,360.2h3.8v-13h-3.8
	V360.2z M577.3,323h-16.9v13.6h16.9V323z M572.7,334.7c-1.3-1.2-3.1-3.2-4.3-4.6c-1.8,1.9-4,4-5.9,5.3c-0.8,0.5-1.1-0.3-0.7-0.9
	c1.8-2.8,4.4-8,5.7-11.1l2.9,1.7c1.4,0.8,1.5,1.1,0.8,2l-1.5,1.7c2.2,0.6,4.3,1.4,5.5,2.3C577.7,333.1,575.1,337.1,572.7,334.7
	 M571.1,347.2h-3.8v13h3.8V347.2z M575.9,360.2h3.8v-13h-3.8V360.2z M589.5,414.5c0-1.5-1.7-2.6-3.3-4c-1.4,1.6-2.2,2.4-3.8,2.4h-20
	v-15c7.5-1.3,13.3-2.8,15.6-3.6c2-0.7,1.9-1.5,0.6-2.9l-2.4-2.6c-4,2-11.2,4.2-18.9,6.2c-7.7,1.9-15.9,3.1-22.3,4
	c-1.1,0.2-0.8,1.5,0.2,1.5c7.2,0,14.6-0.7,21.2-1.7v14.2h-28c1.5,3,2,4,2.9,4h25.1v31.6c2.9,0.7,6-0.4,6-3.8V417h22.4
	C587.5,417,589.5,416.4,589.5,414.5 M552.9,492.5c-5.6,3-13.3,6.6-19.4,9.1c-1.9,0.8-2.3,0.4-5.8-3.6c3.3-0.7,6.5-1.5,9.5-2.3v-21.5
	h-7.2c-1,0-1.3-0.7-2.4-3.4h9.6v-16.9l4.4,0.9c0.7,0.1,1.2,0.5,1.2,0.9v15.1h4.2c1.1,0,1.7-0.5,2.9-1.8c1.5,1.4,2.5,2.1,2.5,3
	c0,1.5-1.2,2.2-3.5,2.2h-6.1v20c3.5-1,6.6-2,9.4-2.9C553.1,491,553.9,491.9,552.9,492.5 M590.8,486.8c0,1.7-1.5,2.3-4,2.3H572v20.8
	c0,3-3,4.2-5.6,3.6v-24.5h-16.2c-1.2,0-1.5-0.7-2.8-3.6h19v-23.7h-12c-1,0-1.3-0.7-2.6-3.5h28.4c1.3,0,2.2-0.7,3.3-2
	c1.5,1.3,2.6,2.2,2.6,3.2c0,1.6-1.5,2.3-3.8,2.3H572v23.7h12.7c1.4,0,2.1-0.7,3.4-2.1C589.6,484.9,590.8,485.9,590.8,486.8
	 M558.2,478.9c-0.8-3.4-2.2-8.1-3.4-11.6c-0.3-0.9,0.6-1.2,1.2-0.7c2.8,2.5,5.9,6.4,7.1,9.8C564.6,480.7,559.7,485,558.2,478.9
	 M584.2,467.4c1.6,0.9,1.7,1.2,0.8,2.7c-1.5,2.5-6,9.7-8.8,12.4c-0.7,0.7-1.7,0.1-1.3-0.7c1-2.1,2.1-4.8,3.3-8.3
	c1.1-3,1.9-5.6,2.5-8L584.2,467.4z M589.9,575c0.8-0.3,0.6-0.8-0.1-1.1c-7.2-3.4-13.7-8.9-18.7-15.5c-4.9-6.5-7.7-13.5-9.1-19.5
	h22.4c2.4,0,3.8-0.7,3.8-2.2c0-1-1.2-1.9-2.6-3.4c-1.3,1.5-2.1,2-3.4,2h-20.2c0.3-5,0.6-10.3,0.6-13.5c0.1-1.2-0.2-1.8-1.9-2.1
	l-4.5-0.9c0.2,5.3,0.1,11.3-0.2,16.5h-26c1.4,2.9,1.8,3.6,3,3.6h22.7l-0.1,1.1c-1.1,8.4-3.8,15.6-8.2,21.6
	c-4.9,6.6-11.5,11.4-19.1,15.5c-0.8,0.4-0.1,1.3,0.8,1.1c8.1-1.8,16.3-6.6,22.1-13.3c4.6-5.2,8-11.5,9.7-19.5
	c1.1,5.1,2.9,10.1,5.6,14.6c4.2,7,10,12.7,14.3,15.8c2.2,1.6,3.2,1.5,5,0.9C586.7,576.3,588.3,575.5,589.9,575 M538.8,625.7
	c-0.6-0.6-0.1-0.9,0.6-0.7c3.3,0.5,3.9,0.4,4.7-0.5c1-1.3,1.6-2.9,1.8-6.4c0.3-4.1-3-9.7-5.2-11.7c-0.5-0.5-0.4-0.9,0-1.9
	c1.7-4.4,2.7-8.2,3.8-13.2h-7.4v48.6c0,2.9-2.7,3.9-5.4,3.4v-57.1l4.2,0.9c0.8,0.2,1.2,0.6,1.2,0.9h5.7c1.2,0,1.7-0.3,2.6-1.3
	l3.8,2.2c1.4,0.9,1,1.6,0.6,2.4c-2.3,5.1-5.3,10.3-7.5,14.1c12.4,9.2,8.6,22.9,2.3,24.1C542.3,630.1,541.7,628.6,538.8,625.7
	 M589.8,640.1c-2.2,1.3-6.6,1.5-9.1,1.5c-10.1-0.3-10.2-1-10.2-11.9v-12.3h-4.8c-0.4,7-1.9,12.6-6,17.6c-3.4,4.2-10.8,7.3-16.3,8.2
	c-0.8,0.1-1.4-0.9-0.4-1.3c4.5-2,9.2-4.9,12.1-8.5c3.8-4.6,4.9-10.1,5.2-16h-5.9c-1.1,0-1.4-0.9-2.6-3.4h30.6c1.4,0,2.1-0.7,3.1-1.9
	c1.3,1.2,2.6,2.3,2.6,3.3c0,1.3-1.3,2.1-3.6,2.1h-8.7v15.3c0,3.8,0.2,4.2,3.1,4.4c2,0.1,3.5,0.1,5.4-0.3c1.4-0.3,1.4-0.9,2.2-6.6
	c0.1-0.5,1-0.6,1,0c0.8,5.2,0.9,5.6,2.3,6.7C591.6,638.3,590.8,639.5,589.8,640.1 M550.4,599.1c1.5-1.7,3.9-4.4,5.2-7.8
	c0.3-0.7,1.4-0.4,1.4,0.2v1.3H569c-0.5-0.3-1-0.9-1.4-1.7c-1.1-2.4-2.2-4.8-3.1-6.7c-0.4-0.8,0.4-1.1,1.2-0.8
	c2.3,0.9,5.3,2.4,6.3,4.8c0.9,2,0.2,3.8-1,4.4h10.8c1.3,0,2-0.1,3.2-1.3l2.2,2c1.6,1.4,1.7,2,0.9,2.7c-2.3,2-4.7,4.2-6.4,5.3
	c-0.8,0.5-1.6,0.1-1.2-0.8c0.6-1.2,1.5-3.2,1.9-4.5h-25.8c-0.1,0.9-0.3,1.8-0.5,2.6C554.1,606.7,546.3,603.5,550.4,599.1
	 M581.3,605.3c0,1.3-1.4,2.2-3.6,2.2h-18.2c-1,0-1.4-1-2.6-3.5h18.7c1.3,0,2.1-0.6,3.2-1.9C580.1,603.5,581.3,604.3,581.3,605.3
	 M595,71.2h-71.3v2.3H595V71.2z M595,704.1h-71.3v2.3H595V704.1z"/>
<linearGradient id="SVGID_00000029767263252490419100000013306251815331404450_" gradientUnits="userSpaceOnUse" x1="43.3622" y1="191.4957" x2="43.3622" y2="22.9513">
	<stop  offset="0" style="stop-color:#FFFFFF"/>
	<stop  offset="0" style="stop-color:#FFFFFF;stop-opacity:0"/>
	<stop  offset="1" style="stop-color:#FFFFFF"/>
</linearGradient>
<path style="fill:url(#SVGID_00000029767263252490419100000013306251815331404450_);" d="M34.3,46.5c-0.6,1-1.6,1.4-3.7,1.4h-8.5
	v47.4c0,1-3.6,3-6.7,3h-1.6V48H5.5L5,46.4h8.8V23l11.6,1.1c-0.2,1.1-0.8,1.7-3.3,2v20.2h1.4l3.8-5.9L34.3,46.5z M73.3,63.1l7.9,5.9
	c-0.6,0.6-1.5,1.1-3.1,1.4c-0.4,16.5-1.4,23.3-4.3,25.6c-2.2,1.7-4.3,2.3-8.3,2.4c0-4.5-0.8-5.6-5.9-6.7l0.1-1.2
	c1.7,0.1,5.2,0.1,6.6,0.1c1.1,0,1.6,0,2.1-0.5c1.4-1.4,2-7.6,2.4-21.5h-5.4c-1,10.4-4.2,21.6-15.4,30l-1.1-1.1
	c6.9-8.7,8.8-19,9.4-28.9h-5.4l0.6,0.4c-0.5,0.6-1.4,1-3,1.4c-0.4,17.1-1.2,23.4-4.1,25.8c-2.1,1.6-4,2.2-7.7,2.2
	c0-3.9-0.6-5.2-5.3-6.2v-1.3c1.4,0.1,4.7,0.1,5.9,0.1c1,0,1.5,0,2-0.5c1.4-1.4,1.9-7.5,2.2-21.9H39c-1,10.1-3.9,21.3-14.4,29.8
	l-1.1-1.1c6.3-8.7,8-18.9,8.6-28.7H25L24.5,67h7.6c0.2-3.5,0.2-6.8,0.2-10l10.1,0.7c-0.1,1-0.6,1.5-2.9,1.7c-0.1,2.4-0.2,5-0.4,7.6
	h3.7l3.1-3.8l5.1,3.9V67h7.4c0.2-3.5,0.2-6.9,0.2-10.2L69,57.5c-0.2,1-0.6,1.5-2.9,1.8c-0.1,2.4-0.2,5-0.5,7.6h4.5L73.3,63.1z
	 M32.5,35.4L32,33.8h15.5c0.8-3.5,1.2-7.1,1.4-10.8l11.7,1.4c-0.2,1.2-1.1,1.6-3.3,1.8c-0.3,2.6-0.9,5.1-1.6,7.6h10.8l3.2-3.8
	l7.9,5.9c-0.6,0.6-1.5,1-3,1.3c-1.4,16.4-4,19.2-13.6,19.3c0-4.2-0.8-5.7-6.7-6.7v-1.2c2,0.1,6.3,0.2,7.7,0.2c1.2,0,1.8-0.1,2.3-0.4
	c1.2-1,2.2-5.4,2.8-13H55.2c-3.5,10-11.1,18.1-27.4,22.5l-0.5-1.3c11.8-4.7,17.3-12.3,19.8-21.2H32.5z M81.6,147.6
	c-0.6,1-1.6,1.4-3.8,1.4h-8.5c3.8,3.6,8.1,6.5,12.4,8.3l-0.1,0.8c-2.9,0.7-5.2,3.1-6.2,6.9c-5.2-3.9-9.3-9.2-12.4-16.1H47.9
	c-3.9,6.6-9.1,12.5-16.4,16.9v15.7c0,5.4-1.2,9.1-9.5,10c0-6-1.5-7.3-6.4-7.8v-1.1h7.2c0.8,0,1-0.3,1-1.2v-20.7h-7.3
	c-0.8,10.8-3.3,22.1-10.4,30.9l-1.1-0.6c4.5-13.2,4.5-29.3,4.5-46.1v-27l8.8,3.4h4.8l3.1-4l8.1,5.9c-0.5,0.6-1.4,1.1-2.8,1.4V164
	c4.5-4.3,7.9-9.4,10.5-15h-9.6l-0.4-1.5h10.6c1.5-3.5,2.7-7.1,3.7-10.8H34.7l-0.4-1.6h12.5c1.4-6.1,2.3-12.4,2.7-18.3l11.1,2
	c-0.2,1-0.9,1.7-3.1,1.8c-0.8,4.7-1.9,9.6-3.5,14.5h5.5c1.8-4.9,3.6-11.7,4.6-16.7l10.1,2.7c-0.3,0.9-1.1,1.3-3,1.2
	c-2.3,3.9-6,8.9-9.8,12.8H66l4.1-5.1l7.7,5.3c-0.6,1.1-1.7,1.4-3.8,1.4H60.5c1.8,3.9,4.3,7.6,7.3,10.8h1.8l4.1-5.5L81.6,147.6z
	 M17.1,144.8c0,4.4,0,9.2-0.3,14.2h7.1v-17.6h-6.8V144.8z M23.9,122.8h-6.8v17h6.8V122.8z M62.9,164.1l3.3-4l8.3,6.2
	c-0.5,0.6-1.4,1.1-3,1.3c-0.6,13.1-1.8,19.4-5,21.7c-2.2,1.5-4.5,2.2-8.5,2.2c0-4.8-1.3-5.9-6.8-7.1l0.1-1.1c2,0.1,6.1,0.2,7.5,0.2
	c1.1,0,1.8-0.1,2.2-0.5c1.3-1.1,2.1-6.6,2.6-17.1H55c-2.7,10.8-8.7,20.2-21.5,25.7l-0.7-1.2c8.7-5.6,12.8-14.6,14.4-24.5h-8.9
	l-0.5-1.6h9.6c0.6-3.7,0.7-7.5,0.8-11.2l11.7,1.2c-0.2,1.2-1,1.7-3.3,1.8c-0.2,2.8-0.7,5.5-1.3,8.3H62.9z M36.1,118.6
	c7.8,3.1,10.4,7.1,10.4,10.2c0,2.7-2.1,4.7-4.3,4.7c-1.1,0-2.3-0.6-3.3-1.8c0.2-4-1.4-9.4-3.6-12.6L36.1,118.6z M53.5,136.7
	c-1.2,3.7-2.7,7.3-4.7,10.8h13.6c-1.4-3.3-2.6-6.9-3.5-10.8H53.5z"/>
</svg>
