<svg viewBox="0 0 708 243" fill="#FFF" xmlns="http://www.w3.org/2000/svg">
<path fill="#020c" d="M107.7,17.4H59.5v172.4h48.2V17.4z"/>
<path d="M69.9,114.7c2.6,0,3.4,2.2,3.2,4.7h5.2v1.3H66.7C66.6,118,66.6,114.5,69.9,114.7z M69.9,116
	c-1.9,0-2.1,1.7-2,3.4H72C72,117.6,71.9,115.9,69.9,116L69.9,116z M74,101.9c4.3-0.6,6,4.5,3.5,7.2c-1.6,1.8-8.5,0.8-10.8,1v-1.3
	c2.5-0.6,11,1.8,10.7-2.8c0.4-4.6-8.2-2.2-10.7-2.8v-1.3L74,101.9L74,101.9z M78.3,89.5v1.6l-5.5,3.6v0.4h5.5v1.3H66.7
	c0-1.5-0.2-4.2,0.8-5.3c1.8-2,5.6-0.8,5.3,2.2L78.3,89.5L78.3,89.5z M69.9,91.4c-2-0.1-2,2-2,3.7h3.8C71.7,93.5,71.8,91.4,69.9,91.4
	z M78.3,79v5.9H66.7V79h1.2v4.6h3.5V79h1.2v4.6h4.5V79H78.3L78.3,79z M96.1,174v1.6l-5.5,3.6v0.4h5.5v1.3H84.4
	c0-1.5-0.2-4.2,0.8-5.3c1.8-2,5.6-0.8,5.3,2.2L96.1,174L96.1,174z M87.6,175.9c-2-0.1-2,2-2,3.7h3.8
	C89.5,177.9,89.6,175.8,87.6,175.9z M96.1,163.4v5.9H84.4v-5.9h1.2v4.6h3.5v-4.6h1.2v4.6h4.5v-4.6H96.1L96.1,163.4z M92.9,152.1
	c3.8-0.3,4.6,5.6,1.4,6.9l-0.8-0.9c4.4-2.5-1.3-7.6-3.2-2.3c-2.1,6.1-9.3,0.7-4.8-3.1l0.8,0.9c-1.5,0.8-1.3,3.7,0.6,3.7
	C89.4,157.1,90.5,151.5,92.9,152.1L92.9,152.1z M96.1,145.8v1.3H84.4v-1.3H96.1z M90.2,131.5c5.2-0.2,6.2,4.4,5.8,8.7H84.4
	C84,135.9,85.2,131.3,90.2,131.5z M90.2,132.8c-3.7-0.1-4.9,2.8-4.6,6.1h9.2C95,135.4,94,132.6,90.2,132.8L90.2,132.8z M96.1,120.6
	v5.9H84.4v-5.9h1.2v4.6h3.5v-4.6h1.2v4.6h4.5v-4.6H96.1L96.1,120.6z M96.4,104.7l-9.2,9.1h8.9v1.3h-12l9.2-9.1h-8.9v-1.3H96.4z
	 M95.3,89.8c5.9,13.1-16.2,12.8-10.1,0h1.5c-6.5,11.2,13.7,11.3,7.2,0L95.3,89.8L95.3,89.8z M96.1,79v5.9H84.4V79h1.2v4.6h3.5V79
	h1.2v4.6h4.5V79H96.1L96.1,79z M101.3,27.2c-7.1,14.7-14.3,29.5-21,44.5l-7.2,0.9l-0.6-1C80.5,59,87.9,45.9,94.2,34H78.8
	c-5,0-5.6,0.5-7.6,4.9h-2.8c1-5.8,1.5-9.6,2-12.9h30.3L101.3,27.2L101.3,27.2z"/>
<path d="M1.7,44c-1.3,0-1.6-2.4-0.2-2.5c0,0,2.8-0.3,2.8-0.3c1-1.3,2.1-3.1,3.1-4.9c-1.3-2-5.1-5.4-6.3-6.5
	C0.3,29,0.9,27.6,2,27.6c0.5,0,1,0.3,2,1.2c1.4-2.6,3.1-7,3.7-10.1c0.3-1.6,2.8-1,2.7,0.4c0,0.5-2.2,7-4.7,11.3
	C6.9,31.7,8,33.1,8.8,34c1.7-3.3,3.3-6.7,4.1-9.2c0.5-1.5,2.6-0.9,2.6,0.4c0,1.4-4.7,10.3-8.2,15.5c2.4-0.3,4.9-0.7,6.4-1
	c-0.4-1.1-1-2.1-1.5-2.8c-0.4-0.6,0.2-1.3,0.9-1.3c1.8,0,3.7,6.7,3.7,7c0,1.5-2,1.9-2.2,0.4c-0.1-0.4-0.2-0.9-0.3-1.3
	C9,43,2.1,44,1.7,44L1.7,44z M27.1,51.3c6.4,5.3,12.1,8.2,19.1,10.6c1.9,0.6,1.3,3-0.4,3.1c-0.7,0-10.2-3.2-20.2-12.2l0.2,12
	c0,1.9-3,1.8-3,0l0.2-11.8C13.6,61.5,3.4,65.2,2.7,65.2c-1.8-0.1-2-2.3-0.2-2.8c7.6-2.7,12.9-5.7,18.9-11.1L3.6,51.6
	c-1.6,0-1.7-2.6,0-2.6c0,0,19.3,0.2,19.3,0.2l-0.1-3.4v-0.1c0-1.8,2.9-1.6,2.8,0.1l-0.1,3.4l19.7-0.2c1.7,0,1.7,2.6,0,2.6
	C45.2,51.6,27.1,51.3,27.1,51.3z M22.2,22.6c0.3-1.1,0.6-2.5,0.9-4.2c0.2-1.5,3-1.3,3,0.2c0,0.2,0,0.3-1.2,4c1,0,1.8,0.1,2.5,0.1
	c2.5,0.1,3.6,2,3.6,3.8c0.1,1.8,0.1,4.7,0.1,7.4c0,6.9,0.5,8.8-7.2,8.8c-7.2,0.2-6.6-2.5-6.5-8.9c0-2.7,0-5.6,0.1-7.1
	c0.1-1.9,1.1-3.9,3.6-4L22.2,22.6L22.2,22.6z M28.6,31.3c0-1.7,0-3.3-0.1-4.2c-0.1-2.1-1.1-2.3-4.3-2.3c-2.8,0-4.4,0.2-4.4,2.4
	c0,0.8-0.1,2.4-0.1,4.1H28.6z M19.8,33.5c0,1.9,0,3.6,0.1,4.5c0.1,2.4,2.1,2.5,4.4,2.5c4.2,0,4.4,0,4.4-6.9H19.8L19.8,33.5z
	 M32.3,44c-1.4,0-1.5-2.4-0.2-2.5c0,0,2.7-0.3,2.7-0.3c1-1.3,2.1-3,3.1-4.8c-1.2-2.1-4.7-5.8-5.8-6.9c-0.7-0.7-0.2-2.1,0.8-2.1
	c0.6,0,1.1,0.4,1.7,1.1c1.3-2.7,3-6.8,3.5-9.7c0.3-1.6,2.7-1.1,2.7,0.4c0,1.3-2.8,7.9-4.6,11.1c1.1,1.3,2.2,2.8,3,3.8
	c1.7-3.3,3.3-6.8,4.1-9.2c0.5-1.5,2.7-0.9,2.7,0.5c0,1.1-4.3,9.6-8.2,15.5c2.5-0.4,5.1-0.8,6.6-1.1c-0.6-1.4-1.4-2.4-1.8-3.5
	c0-0.5,0.6-0.9,1.2-0.9c2,0,4.2,7.1,4.2,7.6c0,1.6-2.1,2-2.3,0.4c-0.1-0.6-0.3-1.2-0.4-1.7C42.2,42.4,33.6,43.9,32.3,44L32.3,44z
	 M22.5,82.4c0-1.9,3.2-1.9,3.2,0c0,0-0.1,39.6-0.1,39.6c3.9,0,7.6-0.1,10.5-0.2c3.2-0.1,5-1.4,5.1-4.5c0.2-5.4,0.2-17.1-0.1-22.2
	c0-1.9,3.1-1.9,3.1,0c0.2,5.1,0.2,17.4,0,22.7c-0.1,4.4-3,6.6-7.4,6.8c-7.5,0.3-18.6,0.3-25.9,0c-4.4-0.2-6.6-2.4-6.7-6.7
	c-0.1-5.9-0.1-17,0-23c0-1.9,3.1-1.9,3,0c-0.1,5.5-0.1,17.4,0,22.2c0.1,3.1,1.3,4.5,4.8,4.7c2.9,0.1,6.6,0.2,10.5,0.2L22.5,82.4
	L22.5,82.4z M28.9,165l-0.1,7.2c2.2,0,4.6,0.1,7,0.1c3.6,0.1,5,2.1,5.1,4.2c0.1,2.2,0.1,4.3,0,6.5c-0.1,2.3-1.6,4.4-5.4,4.5
	c-5.9,0.2-10.2,0.2-16,0c-5.4-0.2-5.8-3.5-5.6-7.3c0-1.3,0-2.5,0.1-3.6c0.3-5.6,7.5-4.2,12-4.5l-0.1-7.2L9.3,165
	c-0.5,7.5-2.1,14.8-6.3,20.3c-1.2,1.7-4,0.3-2.7-1.6c7.7-10.3,6.2-23.9,6-36.1c-0.1-3,1.9-5.1,5.5-5.1c7.2-0.2,18-0.2,25.3,0
	c5,0.1,5.2,2.5,5.2,6.5c0,2.6-0.5,5-5.8,5.1c-7.1,0.1-18.6,0.3-27,0.1c0.1,2.7,0.1,5.3-0.1,8.1l16.4,0.1v-5.8c0-1.8,3-1.8,3,0v5.8
	l16-0.1c1.8,0,1.8,2.6,0,2.6L28.9,165L28.9,165z M9.5,151.7c8.1,0.1,20,0.1,27-0.1c2.6-0.1,2.9-1.3,2.9-3.3c0-2.3-0.2-3.2-3-3.3
	c-3.1-0.1-7-0.1-10.9-0.1c-4.7,0-9.5,0.1-12.9,0.1C8.5,145.2,9.5,148.9,9.5,151.7L9.5,151.7z M16.8,179.8c0,3.6,0.3,5.1,3.2,5.2
	c2.1,0.1,4.3,0.1,6.6,0.1c2.8,0,5.7-0.1,8.4-0.1c2.8-0.1,3.1-1.4,3.1-4.9c0-1,0-2-0.1-2.8c-0.1-2.7-1-2.7-10.6-2.7
	c-2.6,0-5.2,0-7.5,0.1C17.1,174.8,16.8,176.1,16.8,179.8L16.8,179.8z"/>
<path d="M253.8,12.4c5.8,7.1-2,16,14.4,8.6c5.8-1,11.9-4.8,18.4-5.2c0.2-1,3-2.4,5.8-2.3c2.5-3.4,6.9-4.7,10.4-4.6
	c3.9,3.1,1.4,5.2,0.6,8s-1.2,5.6-2.9,6.4c0.5,2.8-6.5,4.4-9.2,7.5c-1,0-2.1,0.9-3.5,0.6c-0.4,1.9-0.5,1.6-1.7,1.7
	c-16.9,1.9-13.7,7.3-19.8,5.7c-3.3,2.4-19.6,7-26.8,7.5c-30.3,11.7-39.6,9.5-62.2,13.8c-5.4,1,1.3-10.9,16.9-15
	c26.9-7,42.8-18.4,39.3-27.6c0.3-4.4-0.6-9.2-2.6-13.8C238.4-4.3,251.2,2.6,253.8,12.4z M141.4,32c3,1.1,14.4,11.9,21.1,17.8
	c2.3-0.1,3,3.4,4.3,5.2c2.6,1.3-1.1,9.2-4.6,7.5c-0.3,2.5-16.1,0.2-19,2.3c-1.8,4.9-5.1,0.6-1.5-0.7c4.2-5.7-3.4-18.2-6.6-23.5
	c0.3-1.4-0.6-2.4-0.6-3.5c-2.7-1.4-3.8-10.5,0.6-10.4C136.7,29.4,140.7,29,141.4,32z M703.9,80.3c-2.7,2-6.9,2.7-10,1.8
	c-1.3-2.6-3.9-3.4-6.7-3.3c-4.4-0.4-8.8,0.2-12.5,2.6c-3,0-3.7-0.8-4.7-3.5c2.3-0.7,4.1-2,6.1-3.3c1.9-8.4-11.5-6.9-14.8-12
	c-0.9-4.4-7.2-2.1-7-6.6c0.8-5.2,8.1-1,11.5-1.5c6.5,0.7,13,0.6,19.5,0.9c6.7,2.6,13,7,19,10.4c1.3,0.6,0.7,2.4,1.5,3.4
	C709.2,72.6,707.5,77.7,703.9,80.3z M137.4,71.8c-3.8,12,5.3,19.6,7.5,28.2c2.3,3.3,4.5,8.1,5.7,12.7c3,0.4,5.7-0.2,5.2-2.3
	c0.9-1.1,2.7-1,2.8-3.8c1.5,0.5,2.9-1.7,5.5-5c4.1-5.1,10-12.5,14.7-16c0.4-1.8,0.2-2.7,2.3-1.7c-0.4,2.3-0.4,2.7-1.7,2.3
	c-0.4,2-7.4,9-8.6,13.8c-0.4,1.7-0.5,2.5-2.9,3.4c-0.1,3.8-5.1,5.3-5.2,9.2c-5.7,9.3-12.2,24.5-12.1,36.8
	c-0.1,6.8-7.7,14.6-17.3,8.6c0-2.1-4.2,0.4-4-1.7c-6.1-3.1-4.7-12-8.6-13.8c-4.9-9.6,4.1-13.2,4-28.8
	C129.6,110.5,121.9,81.9,137.4,71.8z M597.3,138.9c-1,1.6-1.2,5.4-0.1,7.2c11.9,13,24.5-12.7,33.4,11c7.5,16.3,15.7,32.9,23,48.9
	c2.8,5.5,5.5,18.2,13.2,21.9c2.9,3.2,12.5,12.4,16.7,6.9c5-0.4,11.8-10.2,14-15c2.8-6.1,3-36.4,1.5-36.8c-6.5-9.3-5.5-10.7-3.5-18.4
	c-1.5-0.1-0.5-4-1.1-7.5c-3.3,1.2-0.7,7.9-2.3,10.4c-0.9-0.7-1.7,7.2-1.7,8.1c-15.3,30.1-18.6,34.2-35.1,1.7
	c-7.4-14.5-18.6-26.6-17.2-40.9c6.6-8.6,25.8-14,14.4-28.8c-2.3-3.3-4-6.5-7.5-8.8c-8-1.9-16.2-4-24.1-6.3
	c-7.3-2.7-4.7-7.9-10.7-10.4c-3.4-1.9-7.8-6.2-11.6-3.1c-1.2,1.2-0.8,1.7,0.2,2.9c0,10.7,8.2,3.5,6.4,16.6c4.6,1.5,5.5,8.2,6.8,12
	c1.4,3.9,3.7,7.6,4.7,11.6c2.5,2.9-2.6,4.4-4.1,6.4c-2.3,2.9-6,3.9-8.8,6.2c-0.9,1-3,3.2-4.5,2.7
	C598.5,136.9,597.8,138.6,597.3,138.9z M634.6,109.8c-1.6,2.5-6.6,8-9.2,5.8c0.1-2.5-6.7-20.7,1.1-13.3c4,0.8,6.6,3.1,10.4,4
	C636.7,109.9,636.4,108.3,634.6,109.8z M581,106.9c2,3.5,2,6.4,5.2,8.6c-0.2,1.5,1.3,3.4,2.3,4c0.5,2,0.5,3.8,2.3,4.6
	c1.9,6.3-1.5,12.5-7.2,15.5c-1.3,4.3-6.4,7.9-6.8,12.9c-7.1,2.5,6.9,27.2,4.6,35.2c-0.3,5.4-7.7,5.4-8,10.6c0,0.1,0,0.6,0,0.6
	c-2.5,2.1-3.5-5.3-4.2-6.8c-1.6,0-2.2-1.2-3.6-1.7c-1.9-1-2.1-3.7-4.1-4.8c-0.1-1.6,0.7-16.7-3-12.5c-0.5,0.4-1.3,0-1.8,0.3
	c-1,0.8-2,1.9-3.1,2.6c-10,12.6-23.4-4.6-21.7-17.3c2.3-8.6,11.1-4.8,13.8-12.7c7.7-6.6,14.9-16.7,23-23.6
	C572.1,118,575.8,107.6,581,106.9z M458.3,219.3c0.3,1.2-0.6,9.3,0.6,8.1c-0.3,6.6,1.1,4.3,2.3,9.8c4.1,0.1,8,2.3,10.4,5.2
	c8.2,2.3,0.6-36.3,3.5-45.5c-1.3-10.6,0.3-16.4,1.1-20.2c8.8-2.4,14.2-1.2,27.7-1.1c1.1,0.7,3.9,0.4,4.2,1.8
	c2.3,0.7,4.3-1.6,6.4-1.1c0.7,0.4,3.1,0.1,3.2-0.9c1.4-0.1,3,0.5,4.4,0.1c1.3-1.2,3.7-1.9,4.7-3.3c-0.1-2,1.2-5.5-1.5-6.5
	c-1.6,0.2-1.6-1.4-2.3-2.3c-1.6-0.2-2.8-1.5-4.1-2.3c-3.4-0.6-4.4-0.8-10.7-0.7c-1.9-1.4-4.1-2.3-5.4-4.5c-1.5,0.4-2.9-1.5-4-2.9
	c-6.1,0.1,3.9,5.6,0.6,8.6c-0.4,2.4-2.4,1.7-4.2,1.5c-5.7,0.3-11.3,2.7-17.1,2.5c0-0.8-0.6-1.2-1.7-1.1c-1.8-11.9,0-34.8,10.9-38
	c0.4-1.5,1.8-1.8,4.6-3.5c-1-3.2-0.7-6.7-5.8-8.6c-10.3-15.5-15-10.1,4.4-20.2c4.3-2.3,12.9-6.5,14-12.6c-1.1,0.5-0.4-2-0.6-2.3
	c-0.9-0.6-2.1-1-1.7-2.3c-1.8-1.8-2.8-1.2-4.6-3.5c-10.9-0.7-14.1,1.7-20.8,3.8c-7.4,2.8-18.5,5.3-23,7.2c-0.2,1.7-2.7,1.8-4,1.7
	c-0.9-1.8-0.3-4.2,1.7-4c1-3.7-0.4,1.9,6.9-5.8c-3.8-9.6,11.9-9.4-7.8-25.7c-8.3-6.8-14.9-0.6-20.4-0.8c-1.9,5.2-3.7,10.2-4,20.2
	c-1.6-0.7-1.1,7.3-1.2,8.6c-2,4.5-7.1,9-9.2,13.8c-3.9,10.1,3.7,32.2,17.3,21.3c1.4,0.4,1.7-0.7,2.9-0.6c1.8-2.8,8.7-1.1,10.9-4
	c4.2-0.4,11.9-13.2,11.5-2.3c-4.5,7.9-12.9,12.7-20.4,17.8c-6-1.1-2.9,3.9-7.2,5.2c-16.7-2-20.2,11.6-14,18.9
	c4.8,5.5,3,18.4,7.1,24.9c-0.7,3.6-1.7,4-1.7,5.2c-9.8,0.4,1.1,3-19.1,2.3c-23.9-0.9,0,31.9,12.8,19.6c3-2.9,7.1-4.9,10.2-7
	c8-5.4,19.7-13.2,31.8-11.4c4.2,17.3-0.9,7.5,0.6,35.7C457.5,218.6,457.5,219.6,458.3,219.3z M443.9,125.3c2.3-2.7,5.5-3.8,7.5-6.3
	c3.3,0.5,4.6-3.1,7.3-3.9c4.6,0.4-0.6,8-2.8,8.2c-1.7,1.8-2.6,1.3-5.1,1.4C449.5,126.5,444.5,128,443.9,125.3z M443.9,140.3
	c3.6-4,7.7-5.5,10.9-8.6c6.2,0.3,5.2,0.6,5.2,2.9c-3.8,0.4-3.8,0.4-5.2,2.9C451.5,136.8,444.9,146.8,443.9,140.3z M460.6,153.6
	c1.2,14-3.2,19.3-16.1,20.2c-2.4,2.4-8.4,3-11.5,1.7c-0.8-2.9,7.2-2.4,8.6-5.8c3.6-1.9,2.7-6.4,4.6-8.1c-0.1-3.4-1.8-8.4-1.1-12.1
	C454,139.1,468.4,131.3,460.6,153.6z M362.1,117.8c0-4.4-2.3-7-4.9-8c-1.5-0.6-4.1,2.2-7.2,2.8l0,1.2c-3.7,0.8-8.3,6.9-8.6,10.4
	c-0.8-0.4-2.2,2-2.9,2.9c-3-0.3-3.2-0.9-2.9-5.8c1.5-4,14.1-20.8,22.5-21.9c0.2-0.7,1.1-1.8,3-1.7c1-1.2,3.7-2.8,4.5-2.9
	c0.4-1.5,0.3-5,3.5-8.1c-0.1-3.3-0.8-3.9-8.1-2.5c-2.1,0.4,2.2,1.2-5.7,3c-0.6,1.9-3.5,0.6-4.7,2.4c-1,1.5-3,2.1-4.7,1.8
	c-2.7-0.6-4.1-4.2-5-7c-2.9-8.8-6.3-10.4-12.1-7.5c0.3,3.8-0.9,6,2.9,10.4c-0.8,2.8,2.3,11.7,7.5,15c2.2,5,0.3,1.2-0.3,5.4
	c-1.2,0.4-1.6,0.7-2,4.4c-5.7,11.5-9.1,16.6-12.6,17.2c-0.4,3.9-1.6,4-2.1,6.4c-0.5,2.2-0.3,4.5-1.3,5.1c1.1,5.7,2.4,13.3,5.7,17.3
	c2.5,3.9,1.4,11.5,5.8,15.6c-0.2,5.4-7.6,4.8-11.5,5.8c-7.6,2.9-16.5,7-27.1,6.9c-5.9,5.1,2.8,8.9,7.5,10.4c12-0.4,23.3-5,31.7-8.6
	c6.6,0.5,10-2.9,16.7-2.3c4.4-2.9,9.7-1.9,14.4-3.4c1.3-3.4,4.7-1.4,7.5-2c2.1-1.2,3.9-2.9,6.6-2.5c1.6-1.5,3.8-1.8,5.8-2.7
	c1.6-1.5,8.9-3.6,8.3-6.6c1.7,0.4,0.6-1.8-2.3-3.4c0.2-0.7-0.4-2,0.6-1.7c0.2-1.8-0.4-2.8-1.1-3.5c-12.3,0.4-20.8,8.9-25.3,4.6
	c0.9-10.7-0.1-40.1-1.1-46.7H362.1z M327.5,149.6c0,1.6-0.8-0.5-1.7-0.6c-1.1-3.7-1-7.8-1.7-6.9c2.4-3.2,1.4-5.8,2.8-6.2
	C329.3,135.2,329.2,147.2,327.5,149.6z M336.7,151.3c-0.4-1,1.3-0.4,1.7-0.6c0.3,2.2,1.8,1.9,2.3,2.3
	C341.3,158.7,333,159.7,336.7,151.3z M340.8,167.4c-2.7,0-5.7-3.2-4-5.8C339.6,161.5,342.6,164.6,340.8,167.4z M339,142.6
	c-1.5-3.5,0.1-5.8,3.5-5.2C342.6,140.7,342,142.4,339,142.6z M355.2,161.1c-1.2-0.9-0.3,6.8-0.6,6.9c-0.9,0.3-3.8,5.4-5.2,2.9
	c-5.2-1.4,5.3-6.6-4-8.1c-0.5-2.8,3-3,5.2-2.9C351.6,157.2,356.4,157.4,355.2,161.1z M356.3,155.3c-4.4,0-6.6-1.9-9.8-4.3
	c-5.2-3.9-3.5-5.7,0.6-8.3c2.9,1.5,6.5,1,9.2,2.3C356.9,147,357.5,150.4,356.3,155.3L356.3,155.3z M356.9,128.2
	c-2.1,4.8-12.1,1.2-13.2-2.9C350.9,114.9,356.5,112.8,356.9,128.2z M295.8,151.3c-3.2-1.1-7.3-2.2-7.5-5.2c-11.3-2.6-33,0.3-34,1.7
	c-4.8,0.4-5.5-3-1.2-8.6c3-9.3,10.5-21.2,6.9-34c-2.1,0.4-0.6-0.9-2.9-3.5c-3.6-0.3-8.7-1.7-10.4,0c-7-0.4-6.2-0.7-6.3-3
	c1.3-0.3,1.6,0.4,4-3.3c14.6-6.4,17.5-4.2,16.1-20.7c4.5-5,12-14.7,9.8-21.9c-14.3-3.5-27.4,3.8-33.1,7.3c-8.4,5.2-9,17.4-13,8.7
	c-6-7.4-20.4-10-12.1,2.9c-0.1,4.7,1,9.3,2.9,10.4c-0.8,5.1,7.5,10.9,15,16.1c12.2,8.5-11.4,11.7-14.4,14.8c-1.7,0.1-1.1,1.2-3,1.3
	c-3.3,0.2-2,1.4-3.3,1.4c-5.1,0-6.6,2.9-2.8,5.5c0.5,2.9,9.3,8.6,13,7c5.1-2.1,15.1-1.8,8.9,6.8c-0.3,0.4,0.4,2.1-0.6,1.7
	c-0.2,0.3,0.5,3.5-0.6,2.9c-0.1,0.4-1.6,11-0.5,11c-0.4,0-1.4,1-1.8,4c-38.7,12.8-48.3,13.7-57.5,29.5c-4.8,8.2,1.5,10.5-1.2,14.3
	c0,5.4,3.3,1.6,4.6,5.2c5.1,1.1,19.2,12.4,24,19.3c6.2,0.4,7.6,4.5,10.5,6.6c6.5-0.7,17.6,2.4,20.7,5.2c4.5,0.4,7.3-0.1,10.9,0
	c2.9-9,12.3-10.6,16.1-17.3c8.3-8.7,11.5-17.5,12.1-29.4c-0.1-2.2-2-8.4-2.9-12.1c1.6-0.6,1-2.7,2.3-2.9c6.8-1.1,18.5,0.2,17.9-2.3
	c8.2,0.7,13.2-3.5,11.5-16.7C295.1,154,295.7,152.9,295.8,151.3z M241.1,67.7c12.4-5.1,1.1,9-4,10.4C231.4,78.8,237.2,67,241.1,67.7
	L241.1,67.7z M241.1,184.1c1.2,13.9-15.9,27.5-30.5,17.8c-4.2,0.5-3-1.7-9.2-2.9c-0.3-1.3-0.7-1.9-3.5-2.3c0.1-1.4-4-4.9-2.3-8.9
	c0.7-1.6,2.6-2.3,5.5-2c1.6-2.5,6.7-2.8,7.7-2.9c1.5-1.1,7.1-1.5,13.3-2.5c6.4-1.1,13.4-2.8,17.3-2.7
	C241.1,180.6,243.2,183.3,241.1,184.1z M376.5,192.8c-0.2,1.7,1.5,1.6,2.9,2.3c-0.1,3.2,6.3,7,8.4,8.1c17.2,8.7-3.3,35.2-18.2,15
	c-3.5-0.3-11.7-19.3-2.9-11.5c0.6,2.7,4.5,0.8,5.8,0.6c0.8-4.5-3.3-6.7-4-6.9c1.1-1.4-3.8-4.9-5.8-6.9
	C363.1,187.2,372.3,191.1,376.5,192.8z M139.7,68.3c-1.8-0.2-2.2,0.6-2.3,2.3C138.7,71.7,140.1,70.3,139.7,68.3z M330.1,199.9
	c-4.2,0.8-8.1,3.3-12.7,3.5c-3.3,1.3-7.4-0.7-10.2,1.8c0.6,3.6,2.8,7.1,4.5,9.4c3.4-0.2,6.9-0.1,10.3-0.3c2.3-2.9,6.6-3.1,9.3-5.5
	C334.7,205.3,337.9,198.8,330.1,199.9z M647.4,27.8c-0.1,0.1-0.1,0.1-0.2,0.2 M666.2,36.4c-0.1,0-0.1-0.1-0.2-0.1"/>
</svg>
