<?xml version="1.0" encoding="utf-8"?>
<!-- Generator: Adobe Illustrator 28.1.0, SVG Export Plug-In . SVG Version: 6.00 Build 0)  -->
<svg version="1.1" id="_圖層_2" xmlns="http://www.w3.org/2000/svg" xmlns:xlink="http://www.w3.org/1999/xlink" x="0px" y="0px"
	 viewBox="0 0 452 121.3" style="enable-background:new 0 0 452 121.3;" xml:space="preserve">
<style type="text/css">
	.st0{fill:url(#SVGID_1_);}
	.st1{fill:url(#SVGID_00000038373813410438192690000013195334179660905632_);}
	.st2{fill:url(#SVGID_00000137128223146880947640000013874823697841645206_);}
	.st3{fill:url(#SVGID_00000087395122553122840010000006701514637262089399_);}
	.st4{fill:url(#SVGID_00000156583369924599922870000008607186381701508518_);}
	.st5{fill:url(#SVGID_00000152956120009871933560000008641496494008706740_);}
	.st6{fill:url(#SVGID_00000116221151985995632670000001556846705577250714_);}
	.st7{fill:url(#SVGID_00000036970661433380068660000007131132022747845274_);}
</style>
<g>
	<g>
		<linearGradient id="SVGID_1_" gradientUnits="userSpaceOnUse" x1="52.5418" y1="125.7605" x2="52.5418" y2="13.5202">
			<stop  offset="0" style="stop-color:#864E23"/>
			<stop  offset="0.146" style="stop-color:#D2A95E"/>
			<stop  offset="0.3109" style="stop-color:#ECDFB2"/>
			<stop  offset="0.4558" style="stop-color:#ECE0B4"/>
			<stop  offset="0.508" style="stop-color:#EEE2BB"/>
			<stop  offset="0.5452" style="stop-color:#F0E6C6"/>
			<stop  offset="0.5751" style="stop-color:#F4EDD7"/>
			<stop  offset="0.5841" style="stop-color:#F5EFDE"/>
		</linearGradient>
		<path class="st0" d="M106.3,106.6v8.3H-1.2v-8.3H106.3z M7.7,13.5V5.2h89.6v8.3H7.7z M89.7,49.5v8.3H14.1v-8.3H89.7z"/>
		
			<linearGradient id="SVGID_00000153706447557545321250000003257416872123620494_" gradientUnits="userSpaceOnUse" x1="281.9638" y1="125.7605" x2="281.9638" y2="13.5202">
			<stop  offset="0" style="stop-color:#864E23"/>
			<stop  offset="0.146" style="stop-color:#D2A95E"/>
			<stop  offset="0.3109" style="stop-color:#ECDFB2"/>
			<stop  offset="0.4558" style="stop-color:#ECE0B4"/>
			<stop  offset="0.508" style="stop-color:#EEE2BB"/>
			<stop  offset="0.5452" style="stop-color:#F0E6C6"/>
			<stop  offset="0.5751" style="stop-color:#F4EDD7"/>
			<stop  offset="0.5841" style="stop-color:#F5EFDE"/>
		</linearGradient>
		<path style="fill:url(#SVGID_00000153706447557545321250000003257416872123620494_);" d="M335.7,106.6v8.3H228.2v-8.3H335.7z
			 M237.2,13.5V5.2h89.6v8.3H237.2z M319.1,49.5v8.3h-75.5v-8.3H319.1z"/>
		<g>
			
				<linearGradient id="SVGID_00000026878870445651420350000004145060680329416096_" gradientUnits="userSpaceOnUse" x1="129.0814" y1="125.7605" x2="129.0814" y2="13.5202">
				<stop  offset="0" style="stop-color:#864E23"/>
				<stop  offset="0.146" style="stop-color:#D2A95E"/>
				<stop  offset="0.3109" style="stop-color:#ECDFB2"/>
				<stop  offset="0.4558" style="stop-color:#ECE0B4"/>
				<stop  offset="0.508" style="stop-color:#EEE2BB"/>
				<stop  offset="0.5452" style="stop-color:#F0E6C6"/>
				<stop  offset="0.5751" style="stop-color:#F4EDD7"/>
				<stop  offset="0.5841" style="stop-color:#F5EFDE"/>
			</linearGradient>
			<path style="fill:url(#SVGID_00000026878870445651420350000004145060680329416096_);" d="M131.3,88.6
				c-0.9,11.2-7.3,20.7-19.2,28.6h5.1c17.9-10.2,27.5-19.7,28.8-28.6H131.3z"/>
			
				<linearGradient id="SVGID_00000140694474564549099040000009271957765350262186_" gradientUnits="userSpaceOnUse" x1="200.7706" y1="125.7605" x2="200.7706" y2="13.5202">
				<stop  offset="0" style="stop-color:#864E23"/>
				<stop  offset="0.146" style="stop-color:#D2A95E"/>
				<stop  offset="0.3109" style="stop-color:#ECDFB2"/>
				<stop  offset="0.4558" style="stop-color:#ECE0B4"/>
				<stop  offset="0.508" style="stop-color:#EEE2BB"/>
				<stop  offset="0.5452" style="stop-color:#F0E6C6"/>
				<stop  offset="0.5751" style="stop-color:#F4EDD7"/>
				<stop  offset="0.5841" style="stop-color:#F5EFDE"/>
			</linearGradient>
			<path style="fill:url(#SVGID_00000140694474564549099040000009271957765350262186_);" d="M185.1,86.2c4.7,10.5,11.5,21.5,20.5,33
				c5.1-3.3,8.7-6.9,10.9-10.8c-9.4-8.2-19-15.6-28.8-22.2H185.1z"/>
			
				<linearGradient id="SVGID_00000009551435156598699730000010462086409964152986_" gradientUnits="userSpaceOnUse" x1="167.1276" y1="125.7605" x2="167.1276" y2="13.5202">
				<stop  offset="0" style="stop-color:#864E23"/>
				<stop  offset="0.146" style="stop-color:#D2A95E"/>
				<stop  offset="0.3109" style="stop-color:#ECDFB2"/>
				<stop  offset="0.4558" style="stop-color:#ECE0B4"/>
				<stop  offset="0.508" style="stop-color:#EEE2BB"/>
				<stop  offset="0.5452" style="stop-color:#F0E6C6"/>
				<stop  offset="0.5751" style="stop-color:#F4EDD7"/>
				<stop  offset="0.5841" style="stop-color:#F5EFDE"/>
			</linearGradient>
			<path style="fill:url(#SVGID_00000009551435156598699730000010462086409964152986_);" d="M173.1,44.9c1.4-1.5,2.1-2,3-3.5
				c-3.7-2.3-8.4-4.6-14.4-6.9h33.6v5.9h12.8V0h-12.8v3h-55V0h-12.8v39.4h12.8v-4.9h19c0.7,1,1.5,2.1,2.6,3.9
				c1.7,3.1,2.5,4.6,3.7,6.5h-53.6v7.7h110.4v-7.7H173.1z M190.4,22.5v-7.7h-50.2v-4h55v15.8h-55v-4H190.4z"/>
			
				<linearGradient id="SVGID_00000137101725668930345220000016734558044329633155_" gradientUnits="userSpaceOnUse" x1="167.1663" y1="125.7605" x2="167.1663" y2="13.5202">
				<stop  offset="0" style="stop-color:#864E23"/>
				<stop  offset="0.146" style="stop-color:#D2A95E"/>
				<stop  offset="0.3109" style="stop-color:#ECDFB2"/>
				<stop  offset="0.4558" style="stop-color:#ECE0B4"/>
				<stop  offset="0.508" style="stop-color:#EEE2BB"/>
				<stop  offset="0.5452" style="stop-color:#F0E6C6"/>
				<stop  offset="0.5751" style="stop-color:#F4EDD7"/>
				<stop  offset="0.5841" style="stop-color:#F5EFDE"/>
			</linearGradient>
			<path style="fill:url(#SVGID_00000137101725668930345220000016734558044329633155_);" d="M194,80.9v4.7h12.8V56.6H194v2.7h-53.8
				v-2.7h-12.8v28.1h12.8v-3.8h20.5v27.4c0,5.8-4.2,8.1-19,10l0.5,1.8l6.6-0.5c2.8-0.2,4.1,0,4.9,1.5c14.1-2,19.8-6,19.8-12.8V80.9
				H194z M194,67v6.2h-53.8V67H194z"/>
		</g>
		<g>
			
				<linearGradient id="SVGID_00000098908487713986494230000001460096656609776288_" gradientUnits="userSpaceOnUse" x1="420.9465" y1="125.7605" x2="420.9465" y2="13.5202">
				<stop  offset="0" style="stop-color:#864E23"/>
				<stop  offset="0.146" style="stop-color:#D2A95E"/>
				<stop  offset="0.3109" style="stop-color:#ECDFB2"/>
				<stop  offset="0.4558" style="stop-color:#ECE0B4"/>
				<stop  offset="0.508" style="stop-color:#EEE2BB"/>
				<stop  offset="0.5452" style="stop-color:#F0E6C6"/>
				<stop  offset="0.5751" style="stop-color:#F4EDD7"/>
				<stop  offset="0.5841" style="stop-color:#F5EFDE"/>
			</linearGradient>
			<path style="fill:url(#SVGID_00000098908487713986494230000001460096656609776288_);" d="M406.8,45.9h27.7v5h12.8V7.9h-12.8v4.1
				h-20.1c8-4.1,13.4-6.8,16-11.9h-16.9c0,4.8-0.9,7.5-2.7,11.9h-4.1V7.9h-12.2v43.1h12.2V45.9z M429.2,32.3v-6.9h-22.4v-6.6h27.7
				V39h-27.7v-6.6H429.2z"/>
			
				<linearGradient id="SVGID_00000145045799583788940980000017303492972988264870_" gradientUnits="userSpaceOnUse" x1="396.9813" y1="125.7605" x2="396.9813" y2="13.5202">
				<stop  offset="0" style="stop-color:#864E23"/>
				<stop  offset="0.146" style="stop-color:#D2A95E"/>
				<stop  offset="0.3109" style="stop-color:#ECDFB2"/>
				<stop  offset="0.4558" style="stop-color:#ECE0B4"/>
				<stop  offset="0.508" style="stop-color:#EEE2BB"/>
				<stop  offset="0.5452" style="stop-color:#F0E6C6"/>
				<stop  offset="0.5751" style="stop-color:#F4EDD7"/>
				<stop  offset="0.5841" style="stop-color:#F5EFDE"/>
			</linearGradient>
			<path style="fill:url(#SVGID_00000145045799583788940980000017303492972988264870_);" d="M439.2,54.7v4.4H427v-8h-12.8v8h-10.8
				v-4.4h-12.2v11.5l-4.7-2.1l-12.8,20.8V61.7h15.5v-6.9h-15.5V43.1h13.5v-0.5h0v-5.2h0v-1.2h-29.5c5.9-8.8,10.1-16.2,12.7-22.1
				c1.8,2.1,5.8,5.7,12.2,10.9c3.1,2.8,5.2,4.5,6.1,5.2c1.4-2.4,2.5-5.9,3.4-10.4c-5.4-3.1-12.2-6.1-20.3-8.8
				c1.4-3.1,2.5-6.6,3.4-10.4h-16.2c-0.9,18.7-6.7,32.4-16.9,49.3h4.7c0.8-0.8,1.8-1.9,3.4-3.7c1.2-1.3,1.9-2.4,2.4-3.1h9.1v11.7
				h-18.3v6.9h18.3v24.3c-0.5-0.7-1.8-2.6-4.1-5.7c-4.5-6.6-7.4-10.6-8.8-11.9l-1.4,0.5c0.4,6.2,2,15.1,4.7,26.5
				c1.8-1,4.1-2.8,6.8-5.2c1.4-1,2.2-1.7,2.7-2.1v14.3c-5.4,0.9-11.7,1.1-18.9,0.7c0.4,4.2,0.4,8.1,0,14.5
				c19.8-4.9,36-12.4,48.6-25.6v18.3h12.2V66h10.8v55.3H427v-9.9l5.4-1c2.2-0.3,4.1-0.2,5.4,0.5c11.2-3.5,14.2-7.6,14.2-13.5V54.7
				H439.2z M391.2,90c-5.9,4.9-12.3,7.9-17.6,9.5v-6.8l17.6-24.4V90z M427,109.8V66h12.2v34C439.2,103.7,436.5,106.4,427,109.8z"/>
		</g>
	</g>
</g>
</svg>
