<svg viewBox="0 0 760 580" fill="#000" xmlns="http://www.w3.org/2000/svg">
<path fill="#5C3719" d="M143.1,451.9c3.2,9.9,3.2,16.5-0.1,18.4c-7.2,4.1-13.9-2-18-9.5c-4.1-6.4-6.7-16.2-8.6-27.7H116
	c-0.9,20.4-2.9,29.6-8.6,33.5c-3.5,2.7-8.2,4-14.5,4c0-4.1-0.3-7.8-2-9.9c-1.8-2-5-3.5-9.2-4.4v-2.1c3.8,0.3,10.1,0.6,12.4,0.6
	c1.9,0,2.8-0.2,3.8-1.1c1.9-1.7,2.9-8.8,3.8-22.7H61.3v2.4c0,1.5-6.4,5.2-12.9,5.2h-2.3V364l16,6.9h4.1c0.4-3.5,0.9-7.9,1-11.6H41.6
	l-1.2-4.3H90l7.9-10.4c0,0,8.9,7,14.8,12.2l0.1-12.8H38.2v33.4c0,28.7-1.5,68.8-29.6,95.1l-1.8-1.1C20.6,443,21.3,408,21.3,377.3
	v-46l19.5,8.2H111l8.8-10.2l16.7,14.8c-1,1.1-3.1,2.3-6.4,2.9c-2.3,29.4-1.5,81.6,6.1,94.1c1.2,1.8,1.9,1.5,2.6-0.6
	c1.9-5.2,3.4-11.3,4.7-17.1l1.5,0.2L143.1,451.9z M43.4,437c5,14.2,2.5,24.5-2.8,28.8c-3.5,2.9-10.2,2.1-12.3-2.9
	c-1.6-4.6,1-8.7,5-11c4-2.4,8.3-9,7.8-14.9L43.4,437L43.4,437z M54.1,438.5c21.7,15.1,5.6,32.5-2.2,21.2c1.8-7,1.5-15.2,0.3-20.7
	L54.1,438.5z M61.1,375.4v9.8h27.7v-9.8H61.1z M88.8,389.6H61.1v9.9h27.7V389.6z M61.1,413.2h33.7l6.7-8.7c-2.5,1.4-6.9,2.9-10,2.9
	h-2.8v-3.7H61L61.1,413.2L61.1,413.2z M115.1,425.4c-0.3-2.7-0.6-5.6-0.9-8.5c-0.6,0.5-1.5,0.6-2.5,0.6H61.1v9.1h39.1l7.5-7.5
	L115.1,425.4z M66.8,435.3c25.8,8.5,13.3,28.4,4,19.1c0.3-6.2-2.3-13.7-5.6-18.1L66.8,435.3z M84.6,359.4c-2.8,3.8-6.3,8.2-9.5,11.6
	h12.4l6.9-7.3l14.3,11c-0.7,0.9-2.3,2.1-4.7,2.6v25.5c0,0.3-0.6,0.9-1.6,1.4c1.3,1.1,7.2,5.6,11.6,9.6c-1.3-17.4-1.6-37.2-1.5-56.4
	c-0.4,1.4-2,2.1-4,2.1L84.6,359.4L84.6,359.4z M81.3,433.3c25.3,2.6,16.1,22.1,6.4,14.9c-0.6-4.9-4.2-10.7-7.8-13.9L81.3,433.3z
	 M292.7,367.2c-0.3,2.1-1.5,3.7-5.4,4.3V467c0,1.7-7.9,5.6-14.9,5.6h-3.2V458h-81.7l-5.7,8.2l-18.9-9.8c1.3-1.7,3.5-3.7,5.6-5v-86.6
	l23.6,2.4c-0.4,2.3-1.8,3.7-5.4,4.3v82h31.8V332.3l23.7,2.4c-0.3,2.1-1.5,3.7-5.4,4.3v114.6h32.5v-88.7L292.7,367.2z M431.9,422.2
	c0,0,11,9.1,17.6,15.6c-0.4,1.7-2,2.4-4.1,2.4H314.5l-1.3-4.4H338v-76.7l18.6,7.3h14.2c0.1-4.1,0.4-8.8,0.7-14.2h-52.1l-1.3-4.3
	h53.6c0.3-6.6,0.4-13.4,0.6-19.2l23,2.3c-0.3,2.4-2.2,4.1-5.3,4.6c-0.4,3.7-1,7.9-1.8,12.3h27.4l9.8-12.7c0,0,11,8.5,17.6,14.5
	c-0.3,1.7-1.9,2.4-4.1,2.4h-51.2l-2,14.2h18.1l7.8-10.1l18.4,13.1c-1,1.5-2.8,2.4-6.6,3.2v61.4L431.9,422.2z M313.3,471.1
	c16.4-7.3,34.5-20.4,42.9-30.2l19.8,13.3c-1.3,1.7-4.2,2.3-8.8,1.2c-12.4,7.3-33.2,14.3-53.3,17.5L313.3,471.1z M355.3,370.7V384
	h50.1v-13.3H355.3z M405.4,388.4h-50.1V401h50.1V388.4z M355.3,405.3V418h50.1v-12.7H355.3z M355.3,435.8h50.1v-13.4h-50.1V435.8z
	 M393.1,444.5c77.9,4,49.5,36.7,34.8,23.9c-6-6.9-17.6-15.7-35.3-22L393.1,444.5z M594.7,449.8c5.3,2,6.9,4,6.9,7
	c0,8.1-7.6,10.7-39.7,10.7h-20.2c-17.4,0-23.4-3-23.4-17.1v-56.6l-12.6,5.8l-2.9-3.4l15.5-7V377c-0.7,0.6-1.8,0.9-2.9,0.9h-18.6
	v47.3c6.4-1.8,13.2-3.7,19.9-5.6l0.4,1.7c-8.5,6.7-21.5,16.5-41,28.5c-0.6,2-2,3.7-3.8,4.3l-9.7-20.4c3.8-0.8,10.1-2.3,17.7-4.1V378
	h-16l-1.2-4.4h17.1v-40.7l21.8,2c-0.3,2.1-1.3,3.8-5.4,4.4v34.3h3.2l7-12.2c0,0,6.9,7.5,11.3,13.1v-23.2l21.2,2.4
	c-0.1,1.8-1.6,3.5-5.1,4V382l12.4-5.6v-47l21.2,2.1c-0.3,2.1-1.5,3.7-5.4,4.3v33.4l14.8-6.9l7.5-7.9l14.1,15.2
	c-1.2,1.4-2.6,1.8-5.9,2.1c-3.7,17.4-10.8,42.7-19.8,59.3l-1.8-1.1c2.8-18.9,5-44.8,5.4-62.5l-14.3,6.4v60.8c0,1.7-6.9,4.9-12.9,4.9
	h-2.9V381l-12.4,5.8v59.3c0,4.4,1.9,5.8,9.2,5.8H563c7.6,0,13.6-0.2,16.5-0.5c2.3-0.2,3.8-0.8,5.1-2.3c1.9-2.9,4.4-10.5,7.6-21h1.6
	L594.7,449.8z M733.9,446.6c0,0,11.7,9.3,19,15.9c-0.4,1.7-2,2.4-4.2,2.4H618.9l-1.3-4.4H675v-57.3h-44.8l-1-4.3H675v-50.3h-50.1
	l-1.3-4.3h93.5l10.4-13.7c0,0,11.9,9.3,18.7,15.6c-0.4,1.7-1.9,2.4-4.1,2.4h-48.3v50.3H713l10.1-13.1c0,0,11.3,8.8,18,15.1
	c-0.4,1.5-1.9,2.3-4.1,2.3h-43.2v57.3h29.4L733.9,446.6z M128.2,538.8c10,5.8,5.8,13.2,2.2,9.8c-0.1-2.4-1-5.5-2.2-7.8v30
	c0,0.6-2.1,1.9-3.9,1.9h-1v-24.5c-1.8,4-4.1,7.6-6.9,10.8l-0.8-0.7c3.7-6.6,5.7-15.3,6.9-23.8h-5.8l-0.5-1.7h7.1v-14.3l7,0.8
	c-0.2,0.9-0.6,1.4-2.1,1.6v11.9h0.5l2.6-3.8c0,0,3,2.7,4.8,4.5c-0.2,0.6-0.7,0.9-1.5,0.9h-6.3v4.4H128.2z M164.4,564.7
	c0,0,3.7,2.7,5.9,4.6c-0.1,0.6-0.7,0.9-1.5,0.9h-37.1l-0.5-1.7h30L164.4,564.7z M134.5,524.9l-0.5-1.7h26.4l3-3.9
	c0,0,3.4,2.7,5.5,4.6c-0.2,0.6-0.7,0.9-1.6,0.9h-18.7c-0.9,2.3-2,5.2-3,7.5h3.8l2.7-2.8l4.9,4.3c-0.4,0.4-1.1,0.8-2.4,1
	c-0.3,19.8-1,27.4-3.5,30.1c-1.6,1.7-3.7,2.4-6.2,2.4c0-1.5-0.1-2.8-0.8-3.4c-0.6-0.7-2.2-1.3-3.9-1.6v-0.9c1.7,0.1,4.4,0.3,5.4,0.3
	c0.9,0,1.3-0.2,1.8-0.6c1.6-1.6,2.2-9.7,2.5-27h-4.6l-2.2,2.3l-5.1-3.7c0.6-0.5,1.6-0.9,2.6-1.2c0.9-2.1,1.9-4.7,2.6-6.6
	L134.5,524.9L134.5,524.9z M142.2,557.7v-2.3h-3.5v3c0,0.5-1.6,1.3-3.2,1.3h-0.6v-22.2l4,1.9h2.8l1.9-2l4.2,3.2
	c-0.2,0.3-1,0.7-1.8,0.9v15c-0.1,0.4-2,1.3-3.3,1.3h-0.5V557.7z M142.2,553.6V541h-3.5v12.6H142.2z M169.5,536.8
	c-0.3,0.5-0.9,0.7-2.1,0.8c-0.5,3.7-1.3,7.5-2.7,11.2c6.7,8.3,3.7,14.9-0.2,11.6c-0.3-2.1-1-4.4-2-6.7c-1.9,3.4-4.4,6.5-7.9,9.1
	L154,562c3.1-3.5,5.2-7.8,6.5-12.5c-1.6-2.9-3.4-5.7-5.2-8l0.8-0.4c2.1,1.4,4,2.8,5.4,4.2c0.5-2.8,0.9-5.6,1.2-8.3H156l-0.9-1.7h7
	l2.6-2.7L169.5,536.8z M195.9,545l5.7,4.4c-0.3,0.5-1.2,0.9-2.4,1.2v18.9c-0.1,0.5-2.7,1.7-4.5,1.7h-0.8v-4.5h-10.1v3.8
	c0,0.5-2.3,1.7-4.5,1.7h-0.8v-26.5l5.6,2.3h9.2L195.9,545z M193.8,564.9v-15.3h-10.1v15.3H193.8z M193.1,542.4
	c0,0.5-2.4,1.7-4.8,1.7h-0.8V520l5.9,2.4h17.7l2.8-3l5.8,4.4c-0.3,0.5-1.2,1-2.4,1.2v17c-0.1,0.4-2.7,1.6-4.6,1.6h-0.9v-4.5h-18.5
	v3.3H193.1z M193.1,524.1v13.4h18.5v-13.4H193.1z M229,549.3c-0.3,0.5-1.2,0.9-2.4,1.2V570c-0.1,0.4-2.8,1.5-4.6,1.5h-0.9v-4.9
	h-10.6v4c0,0.5-2.2,1.7-4.5,1.7h-0.8v-26.6l5.6,2.3h9.7l2.7-2.9L229,549.3z M221.1,564.9v-15.3h-10.6v15.3H221.1z M237.2,529.2
	l3.5-4.3c2-2.5,4.9-3.9,8.8-3.9c6.5,0,10.6,4.6,10.6,10.1c0,2.2-0.8,4.2-2.1,5.8c-1.2,1.2-3.6,3.3-5.6,4.6c6.6,1.4,11.2,6,11.2,11.8
	c0,12.3-14.3,18.4-19.4,18.4c-3.2,0-5.9-1.6-6.8-2.4c-0.9-1-1.4-1.7-1.4-2.5c0-1.2,0.8-2.1,1.6-2.7c0.5-0.4,1-0.4,1.5,0
	c1.9,2,5.1,4.3,9.1,4.3c5,0,9.3-3.3,9.3-12.1c0-8.3-5.7-11.1-10.1-11.1c-1.6,0-3.4,0.4-4.3,0.7l-0.3-1.2c7.9-2.7,11.5-5.5,11.5-11.5
	c0-5.4-3.4-8.1-7.5-8.1c-4.2,0-6.4,2.1-8.9,5L237.2,529.2z M285.7,550.1H272l0.2-2.9H286L285.7,550.1z M317.9,556.4v6.6
	c0,5.1,0.5,5.9,6.1,6.6v1h-17.5v-1c5-1,5.6-1.5,5.6-6.7v-6.6h-19v-1.8c7.3-10.8,15.4-22.9,22.8-33.8h2v32.6h6.9v3h-6.9V556.4z
	 M312,529.4c-4.6,7-10.6,16.1-15.8,24.1H312V529.4z M342.1,539.8c0,10.3-0.8,23.7-11.6,32.5l-0.8-0.5c6.3-9.4,7-21.1,7-32v-17.3
	l5.1,2c11.2-1.3,24.8-3.7,32.1-5.9l5.4,5.5c-0.6,0.5-1.9,0.5-3.5-0.2c-8.8,1-22.1,1.8-33.7,1.7v4h30.1l2.6-2.8l5.8,4.2
	c-0.3,0.5-1.2,0.9-2.3,1.2v8.2c-0.1,0.4-2.8,1.5-4.6,1.5h-0.9v-2.3h-30.6L342.1,539.8L342.1,539.8z M376.9,543.9
	c0,0,3.4,2.6,5.6,4.6c-0.2,0.6-0.8,0.9-1.6,0.9H359c-0.2,2-0.5,3.8-0.9,5.8h12.6l2.9-2.7l5.3,4.4c-0.3,0.5-1.1,0.8-2.3,0.9
	c-0.6,6.8-2,11.3-4.4,12.8c-1.6,1-3.8,1.6-6.5,1.6c0-1.5-0.2-2.9-1-3.7c-0.9-0.8-3-1.5-5.3-1.9v-0.8c2.3,0.2,6.2,0.5,7.4,0.5
	c1,0,1.5-0.1,2-0.4c1-0.8,1.9-4.2,2.4-9h-13.5c-1.9,6-6.6,11.5-18.1,15.6l-0.6-0.9c12.4-6.7,13.7-14.5,13.9-22.2h-9.2l-0.5-1.7h18.7
	c-0.5-0.1-1-0.2-1.5-0.6c-0.5-2.1-2.2-4.6-3.5-6.1l0.5-0.3c9.9,0.6,8.8,6.6,5.5,7h11L376.9,543.9z M342.1,531.4v6.6h30.6v-6.6H342.1
	z M406.6,567.6v-37.1h2v37.1H406.6z M476.4,563.5c0,0,4,3,6.5,5.2c-0.2,0.6-0.7,0.9-1.6,0.9h-49.8L431,568h8.3v-28.7l7.7,0.7
	c-0.2,0.7-0.6,1.3-2.1,1.5V568h9.9v-40.2H434l-0.4-1.6h37.3l3.5-4.4c0,0,4,3,6.4,5.1c-0.2,0.6-0.7,0.9-1.5,0.9h-18.8v17.9h8.3
	l3.5-4.3c0,0,3.8,3,6.2,5.1c-0.2,0.6-0.8,0.9-1.6,0.9h-16.4v20.8h12.4L476.4,563.5z M501.3,536.8c-0.2,0.5-0.7,0.9-1.7,1.1v33
	c-0.1,0.4-2.2,1.6-4.2,1.6h-0.9v-30.2c-2.1,2.7-4.3,5.2-6.7,7.2l-0.7-0.5c4.6-6.8,9.3-17.6,11.7-28.3l7.6,2.3
	c-0.2,0.7-0.9,1.2-2.2,1.1c-1.5,4.2-3.4,8.1-5.5,11.7L501.3,536.8z M534.2,544.9c0,0,3.6,2.8,5.8,4.8c-0.2,0.6-0.7,0.9-1.6,0.9
	h-15.1v20c0,0.4-1.7,1.7-4.3,1.7h-1v-16.2c-0.4,0.4-1.1,0.6-1.9,0.4c-4.1,5.6-9.3,10.2-14.3,13.1l-0.7-0.6
	c3.5-3.8,7.7-10.2,10.4-16.5l6.5,3.1v-4.9h-15.6l-0.4-1.6h16v-8.5h-5.6v2.2c0,0.3-1.6,1.3-4.2,1.3h-0.9v-21.7l5.7,2.3h15.8l2.5-2.9
	l5,3.9c-0.3,0.4-0.9,0.8-2.1,0.9V542c0,0.3-1.8,1.2-4.4,1.2h-0.9v-2.7h-5.7v8.5h7.7L534.2,544.9z M512.5,539h16.6v-12.6h-16.6V539z
	 M525.3,553.8c18.4,7.2,15,18.3,9.4,14.7c-1.7-4.5-6.5-10.4-10-14.3L525.3,553.8z M580.7,544.3c3.6,4.2,10.5,6.8,16.1,7.7l-0.1,0.7
	c-2.3,1.1-3.8,2.5-4.1,4.6c-5.7-2.5-10.6-7.2-13.5-13h-15.9c-1.9,2.3-4.1,4.6-6.6,6.6c12.5,1.9,8.1,10.5,3.6,7.2
	c-0.4-2.3-2.4-5.1-4.2-6.7c-3.1,2.4-6.8,4.6-11.2,6.3l-0.5-0.6c5.8-3.5,10.2-7.8,13.5-12.7h-12.5l-0.4-1.6h14c1.3-2,2.3-4,3.3-6.1
	h-11.8L550,535h13c0.7-1.9,1.4-3.9,1.9-5.9h-16.8l-0.4-1.6h17.7c0.7-2.4,1.1-4.8,1.5-7.2l7.9,1.7c-0.2,0.8-0.9,1.3-2.2,1.3
	c-0.3,1.3-0.7,2.8-1.1,4.2h14l3.2-3.8c0,0,3.5,2.6,5.6,4.5c-0.1,0.6-0.7,0.9-1.5,0.9H571c-0.6,2-1.3,4-2.2,5.9H582l2.9-3.6
	c0,0,3.3,2.4,5.4,4.3c-0.1,0.6-0.7,0.9-1.5,0.9H568c-1.1,2.1-2.3,4.1-3.7,6.1H587l3.2-4c0,0,3.6,2.7,5.9,4.7
	c-0.1,0.6-0.7,0.9-1.6,0.9L580.7,544.3L580.7,544.3z M585.1,553.6c-0.3,0.6-1.1,0.9-2.3,0.6c-1.9,1.4-4.2,2.9-6.3,4
	c17.3,5.3,13.2,13.9,8.4,11.2c-1.8-2.6-6.6-7-12.4-10.8v7.8c0,3.6-0.8,5.5-6.8,6c-0.1-1.4-0.4-2.5-1.1-3.1c-0.8-0.7-1.8-1.2-4.3-1.6
	v-0.8c0,0,5.1,0.4,6.2,0.4c0.8,0,1.1-0.2,1.1-0.9v-7c-3.1,2.3-7.2,5.3-12.6,8.9c-0.1,0.7-0.4,1.3-0.9,1.6l-4.6-4.8
	c3.3-1.1,10.5-4,18.1-7.2V546l7,0.7c-0.1,0.8-0.7,1.3-1.9,1.4v9.2c0.7,0.2,1.4,0.3,2.1,0.5c1.4-2,3.1-5,4.6-7.7L585.1,553.6z
	 M615.6,562.4c2.8-0.6,5.7-1.3,8.7-2.1l0.2,0.8c-4.6,2.2-11.1,5.3-20.1,9.1c-0.2,0.7-0.7,1.2-1.3,1.3l-2.4-5.9
	c0.8-0.2,1.9-0.3,3.3-0.6v-19.8l5.7,0.6c-0.1,0.6-0.5,1.1-1.5,1.2v17.2l2.9-0.7v-23.8h-2.3v1.1c0,0.3-1.5,1.4-4,1.4H604v-19.7
	l5.5,2.1h6.9l2.3-2.5l5.1,3.8c-0.3,0.4-1.1,0.8-2.2,1.1v13.2c-0.1,0.3-2.4,1.2-3.9,1.2h-0.8v-1.7h-1.2v8.9h1.4l2.6-3.8
	c0,0,3,2.7,4.7,4.5c-0.2,0.6-0.7,0.9-1.4,0.9h-7.2v12.2H615.6z M608.5,538.1h8.2v-11.9h-8.2V538.1z M649.4,529.2
	c-0.4,0.6-1,0.7-2.3,0.8c-1.8,4.1-4.3,7.9-7.4,11.3c3.8,2.7,8.5,4.7,14.2,6l-0.1,0.6c-2.1,0.7-3.3,2.1-3.7,4.7
	c-1.7-0.7-3.3-1.3-4.7-2.1l4,3c-0.4,0.4-0.9,0.8-2.1,0.9V571c0,0.3-1.7,1.2-4.3,1.2h-0.9v-3.8h-11.5v2.7c0,0.4-1.6,1.3-4.1,1.3h-0.8
	v-20.9c-1.9,0.9-3.9,1.7-6.1,2.3l-0.4-0.8c6.3-3,11.6-7.1,15.6-11.9c-1.6-2.2-2.9-4.7-4.1-7.3c-2.4,3.1-5.2,5.6-8.3,7.5l-0.7-0.6
	c4.1-4.6,7.9-12.1,9.9-20.1l7,2.3c-0.3,0.7-0.9,1.2-2.2,1.1c-0.5,1.3-1.1,2.4-1.7,3.6h7l3-2.9L649.4,529.2z M644.1,549.8
	c-2.8-1.7-5.1-3.6-7.1-5.7c-2.9,2.6-6.2,4.9-10.1,6.8l4.2,1.7h10.7L644.1,549.8z M641.9,566.8v-12.6h-11.5v12.6H641.9z M633.6,529.3
	c-0.7,1.2-1.4,2.3-2.2,3.3c1.3,2.3,3,4.3,5,6.2c2.2-3,3.9-6.2,5.1-9.5H633.6z"/>
<path d="M219.1,231.1c1.4,0.2,2.7,0.5,3.8,1c1.2,0.5,2.2,1,3.1,1.7c0.9,0.7,1.5,1.5,2,2.3c0.5,0.9,0.7,1.8,0.7,2.8
	c0,1.2-0.3,2.2-1,3.3c-0.6,1-1.5,1.9-2.6,2.6c-1.1,0.7-2.4,1.3-3.9,1.8c-1.5,0.4-3.1,0.7-4.8,0.7c-0.6,0-1.2,0-1.8,0s-1.2,0-1.8-0.1
	v-1.7c1.1,0.5,2.3,0.8,3.6,0.8c1.1,0,2.1-0.2,3-0.6c1-0.4,1.8-0.9,2.5-1.6c0.7-0.7,1.3-1.4,1.7-2.3c0.4-0.9,0.6-1.8,0.6-2.8
	s-0.2-1.9-0.6-2.8c-0.4-0.8-1-1.6-1.6-2.2c-0.7-0.6-1.5-1.1-2.5-1.5c-0.9-0.4-2-0.5-3-0.5c-1.1,0-2.1,0-3.2,0.1
	c-1.1,0.1-1.9,0.4-2.5,1v13.8h-4.9l-1-1h1c0.3,0,0.5,0,0.6-0.1s0.2-0.2,0.3-0.4c0.1-0.1,0.1-0.3,0.1-0.5V221c0-0.3-0.1-0.7-0.3-1
	c-0.1-0.3-0.3-0.5-0.6-0.7c-0.3-0.2-0.6-0.3-1.1-0.3l1-1h5h4.6c1.4,0,2.7,0.2,3.9,0.5c1.2,0.4,2.3,0.8,3.2,1.5
	c0.9,0.6,1.6,1.3,2.1,2.2c0.5,0.8,0.8,1.7,0.8,2.6c0,0.7-0.2,1.4-0.5,2.1c-0.3,0.6-0.7,1.2-1.3,1.8c-0.6,0.5-1.2,1-2,1.4
	C220.9,230.5,220.1,230.8,219.1,231.1z M215.4,230.9c0.9,0,1.7-0.2,2.5-0.5s1.5-0.8,2-1.4c0.6-0.6,1-1.2,1.4-1.9
	c0.3-0.7,0.5-1.5,0.5-2.3s-0.2-1.6-0.6-2.3c-0.4-0.7-0.9-1.3-1.6-1.8c-0.7-0.5-1.4-0.9-2.3-1.2c-0.9-0.3-1.8-0.4-2.8-0.4
	s-1.8,0.1-2.4,0.2c-0.6,0.1-1,0.3-1.2,0.5v10.4c0.6,0.4,1.3,0.6,2.1,0.7C213.8,230.9,214.6,230.9,215.4,230.9z M270.8,246.8h-6.3
	l-9.9-24l-4.7,12.1h7.5l0.6,1.6h-8.7l-4.1,10.4h-2l-1-1c0.3,0,0.6-0.1,0.9-0.3c0.2-0.2,0.4-0.4,0.6-0.7c0.2-0.3,0.4-0.6,0.5-1
	l10.3-25.9h1.8l11.5,27c0.1,0.3,0.4,0.5,0.8,0.7c0.4,0.1,0.8,0.2,1.2,0.2L270.8,246.8z M300.2,217.8c2.5,0,4.8,0.4,7,1.1
	c2.2,0.8,4.1,1.8,5.8,3.2c1.6,1.3,2.9,2.9,3.9,4.7c0.9,1.8,1.4,3.7,1.4,5.7s-0.5,3.9-1.4,5.7s-2.2,3.3-3.9,4.7
	c-1.6,1.3-3.6,2.4-5.8,3.2s-4.5,1.1-7,1.1s-4.9-0.4-7.1-1.1c-2.2-0.8-4.1-1.8-5.8-3.2c-1.6-1.3-2.9-2.9-3.9-4.7
	c-0.9-1.8-1.4-3.7-1.4-5.7s0.5-3.9,1.4-5.7s2.2-3.3,3.9-4.7c1.6-1.3,3.6-2.4,5.8-3.2C295.3,218.2,297.6,217.8,300.2,217.8z
	 M300.1,245.8c1.8,0,3.6-0.3,5.2-1c1.6-0.7,3-1.6,4.2-2.8s2.1-2.6,2.8-4.2c0.7-1.6,1-3.3,1-5.2c0-1.8-0.3-3.6-1-5.2
	c-0.7-1.6-1.6-3-2.8-4.2s-2.6-2.1-4.2-2.8c-1.6-0.7-3.3-1-5.2-1c-1.8,0-3.6,0.3-5.2,1c-1.6,0.7-3,1.6-4.2,2.8
	c-1.2,1.2-2.1,2.6-2.8,4.2c-0.7,1.6-1,3.3-1,5.2c0,1.8,0.3,3.6,1,5.2c0.7,1.6,1.6,3,2.8,4.2s2.6,2.1,4.2,2.8
	C296.5,245.4,298.2,245.8,300.1,245.8z M346.8,244.9c0,0.2,0,0.4,0.1,0.5s0.1,0.3,0.3,0.3c0.1,0.1,0.3,0.1,0.6,0.1l1,1h-2h-4h-1
	l-1-1h1c0.3,0,0.5,0,0.6-0.1s0.2-0.2,0.3-0.3s0.1-0.3,0.1-0.5v-23.1c0-0.3-0.1-0.6-0.3-0.9c-0.1-0.2-0.4-0.4-0.7-0.6
	s-0.7-0.3-1.3-0.3H337c-0.6,0-1.1,0.1-1.5,0.3c-0.4,0.2-0.7,0.4-1,0.8s-0.4,0.9-0.4,1.6l-1-1c0-1.2,0.3-2.1,0.8-2.8
	c0.5-0.6,1.6-1,3.1-1h3h16.8l-2.4,2H347v25H346.8z M396.8,246.8h-6.3l-9.9-24l-4.7,12.1h7.5l0.6,1.6h-8.7l-4.1,10.4h-2l-1-1
	c0.3,0,0.6-0.1,0.9-0.3c0.2-0.2,0.4-0.4,0.6-0.7c0.2-0.3,0.4-0.6,0.5-1l10.3-25.9h1.8l11.5,27c0.1,0.3,0.4,0.5,0.8,0.7
	c0.4,0.1,0.8,0.2,1.2,0.2L396.8,246.8z M421.1,246.8h-7l-1-0.9h1c0.5,0,0.7-0.1,0.8-0.4c0.1-0.3,0.2-0.5,0.2-0.5v-24
	c0-0.3-0.1-0.7-0.3-1c-0.1-0.3-0.3-0.5-0.6-0.7s-0.6-0.3-1.1-0.3l1-1c1.5,0,2.7,0.5,3.6,1.4c0.9,0.9,1.4,2.1,1.4,3.6v22
	c0,0.1,0,0.2,0.1,0.5s0.4,0.4,0.8,0.4L421.1,246.8z M496,246.8h-5.9v-24.7l-11.9,25.1h-1.9l0.5-1l-11.5-22.4v23.1h-3l-1-1h1
	c0.2,0,0.4,0,0.5-0.1s0.2-0.2,0.3-0.3s0.1-0.2,0.1-0.3s0-0.2,0-0.2v-23.9c0-0.3-0.1-0.7-0.3-1c-0.1-0.3-0.3-0.5-0.6-0.7
	s-0.6-0.3-1.1-0.3l1-1c0.6-0.1,1.3-0.1,1.9-0.1c0.5,0.1,1.1,0.2,1.6,0.4c0.5,0.2,1,0.7,1.3,1.2l11.6,22.6l11.3-24.2l0,0h5.9l-1,1
	c-0.3,0-0.4,0.1-0.6,0.3c-0.1,0.2-0.2,0.4-0.3,0.7c-0.1,0.3-0.1,0.6-0.1,1v23.9c0,0.2,0,0.4,0.1,0.5s0.1,0.3,0.3,0.3
	c0.1,0.1,0.3,0.1,0.6,0.1L496,246.8z M540.9,246.8h-6.3l-9.9-24l-4.7,12.1h7.5l0.6,1.6h-8.7l-4.1,10.4h-2l-1-1
	c0.3,0,0.6-0.1,0.9-0.3c0.2-0.2,0.4-0.4,0.6-0.7c0.2-0.3,0.4-0.6,0.5-1l10.3-25.9h1.8l11.5,27c0.1,0.3,0.4,0.5,0.8,0.7
	c0.4,0.1,0.8,0.2,1.2,0.2L540.9,246.8z M584.9,218l-1,1c-0.5,0-0.8,0.2-0.8,0.6c-0.1,0.4-0.1,0.9-0.1,1.4v25.8h-2l0,0l-21.9-25.3
	v25.4h-3l-1-1h1c0.3,0,0.5,0,0.6-0.1s0.2-0.2,0.3-0.3s0.1-0.3,0.1-0.5v-23.9c0-0.3-0.1-0.7-0.3-1c-0.1-0.3-0.3-0.5-0.6-0.7
	s-0.6-0.3-1.1-0.3l1-1c0.7-0.1,1.4-0.2,2.1-0.1c0.6,0.1,1.2,0.2,1.9,0.4c0.7,0.2,1.3,0.6,1.8,1.2l19.1,21.6V218H584.9z M614.7,232.3
	c1.4,0.7,2.6,1.6,3.4,2.5c0.8,1,1.3,2,1.6,3.1c0.2,1.1,0.2,2.2-0.1,3.2c-0.3,1.1-0.9,2-1.7,2.9s-1.9,1.6-3.2,2.1s-2.9,0.8-4.6,0.8
	c-1.7,0-3.1-0.2-4.3-0.6c-1.2-0.4-2.2-0.9-2.9-1.4c-0.9-0.6-1.7-1.2-2.2-1.9l-0.6-6.3c0.3,1.4,0.8,2.6,1.5,3.7
	c0.6,1.1,1.4,2.1,2.3,2.9c0.9,0.8,1.9,1.4,2.9,1.8c1.1,0.4,2.2,0.6,3.4,0.6c1.1,0,2.1-0.2,2.9-0.6c0.8-0.4,1.4-0.9,1.8-1.5
	c0.4-0.6,0.7-1.3,0.8-2s0.1-1.5,0-2.2c-0.2-0.7-0.5-1.4-0.9-2s-1-1.1-1.6-1.5l-7.4-4c-1.4-0.7-2.4-1.6-3.2-2.6s-1.3-2-1.5-3.1
	s-0.2-2.1,0.1-3.2c0.3-1,0.8-2,1.5-2.8s1.7-1.5,2.8-2c1.2-0.5,2.5-0.8,4.1-0.8c1.2,0,2.3,0.1,3.2,0.3c1,0.2,1.8,0.4,2.5,0.6
	c0.8,0.3,1.5,0.5,2.2,0.8l1.2,5.5c-1-1.9-2.2-3.4-3.7-4.5s-3.3-1.7-5.3-1.7c-1,0-1.8,0.2-2.5,0.5c-0.7,0.4-1.2,0.8-1.6,1.4
	c-0.4,0.6-0.7,1.2-0.8,1.9c-0.1,0.7-0.1,1.4,0,2.1s0.4,1.3,0.7,1.9c0.4,0.6,0.8,1.1,1.4,1.4L614.7,232.3z M644.7,246.8h-7l-1-0.9h1
	c0.5,0,0.7-0.1,0.8-0.4c0.1-0.3,0.2-0.5,0.2-0.5v-24c0-0.3-0.1-0.7-0.3-1c-0.1-0.3-0.3-0.5-0.6-0.7s-0.6-0.3-1.1-0.3l1-1
	c1.5,0,2.7,0.5,3.6,1.4c0.9,0.9,1.4,2.1,1.4,3.6v22c0,0.1,0,0.2,0.1,0.5s0.4,0.4,0.8,0.4L644.7,246.8z M678.5,217.8
	c2.5,0,4.8,0.4,7,1.1c2.2,0.8,4.1,1.8,5.8,3.2c1.6,1.3,2.9,2.9,3.9,4.7c0.9,1.8,1.4,3.7,1.4,5.7s-0.5,3.9-1.4,5.7s-2.2,3.3-3.9,4.7
	c-1.6,1.3-3.6,2.4-5.8,3.2s-4.5,1.1-7,1.1s-4.9-0.4-7.1-1.1c-2.2-0.8-4.1-1.8-5.8-3.2c-1.6-1.3-2.9-2.9-3.9-4.7
	c-0.9-1.8-1.4-3.7-1.4-5.7s0.5-3.9,1.4-5.7s2.2-3.3,3.9-4.7c1.6-1.3,3.6-2.4,5.8-3.2C673.6,218.2,676,217.8,678.5,217.8z
	 M678.4,245.8c1.8,0,3.6-0.3,5.2-1c1.6-0.7,3-1.6,4.2-2.8s2.1-2.6,2.8-4.2c0.7-1.6,1-3.3,1-5.2c0-1.8-0.3-3.6-1-5.2
	c-0.7-1.6-1.6-3-2.8-4.2s-2.6-2.1-4.2-2.8c-1.6-0.7-3.3-1-5.2-1c-1.8,0-3.6,0.3-5.2,1c-1.6,0.7-3,1.6-4.2,2.8
	c-1.2,1.2-2.1,2.6-2.8,4.2c-0.7,1.6-1,3.3-1,5.2c0,1.8,0.3,3.6,1,5.2c0.7,1.6,1.6,3,2.8,4.2s2.6,2.1,4.2,2.8
	C674.8,245.4,676.6,245.8,678.4,245.8z M742.3,218l-1,1c-0.5,0-0.8,0.2-0.8,0.6c-0.1,0.4-0.1,0.9-0.1,1.4v25.8h-2l0,0l-21.9-25.3
	v25.4h-3l-1-1h1c0.3,0,0.5,0,0.6-0.1s0.2-0.2,0.3-0.3s0.1-0.3,0.1-0.5v-23.9c0-0.3-0.1-0.7-0.3-1c-0.1-0.3-0.3-0.5-0.6-0.7
	s-0.6-0.3-1.1-0.3l1-1c0.7-0.1,1.4-0.2,2.1-0.1c0.6,0.1,1.2,0.2,1.9,0.4c0.7,0.2,1.3,0.6,1.8,1.2l19.1,21.6V218H742.3z M421.5,79.1
	h32.7c0.5,0,0.7-0.5,0.4-0.9l-7.5-9.2c-0.2-0.3-0.6-0.3-0.8,0l-5.4,5.2c-0.1,0.1-0.2,0.2-0.4,0.2l-55.9-0.2c2-3.3,3.8-7.1,5.3-10.2
	h57.3c0.5,0,0.7-0.5,0.4-0.9l-7.5-9.2c-0.2-0.3-0.6-0.3-0.8,0l-5.4,5.2c-0.1,0.1-0.2,0.2-0.4,0.2l-41.2-0.1c2.3-4.3,3.6-7.7,4.7-11
	h50.2c0.5,0,0.7-0.5,0.4-0.9l-7.5-9.2c-0.2-0.3-0.6-0.3-0.8,0l-5.4,5.2c-0.1,0.1-0.2,0.2-0.4,0.2l-34.9-0.1c0.8-2.5,1.2-4.2,1.3-4.7
	c0-0.1,0.1-0.2,0.2-0.2l7.2-5.2c0.3-0.2,0.2-0.7-0.2-0.8l-25.3-4.2c-0.2,0-0.5,0.1-0.5,0.4c-0.2,1.5-1.1,6.9-3.3,14.7l-39.8-0.1
	c-0.3,0-0.6,0.2-0.6,0.6v4c0,0.3,0.2,0.6,0.6,0.6h38.3c-1.2,3.6-2.6,6.8-4.3,10.9l-29.5-0.1c-0.3,0-0.6,0.2-0.6,0.6v4
	c0,0.3,0.2,0.6,0.6,0.6H370c-1.4,3.1-3,6.9-4.8,10.1l-33.8-0.1c-0.3,0-0.6,0.2-0.6,0.6v4c0,0.3,0.2,0.6,0.6,0.6h31
	c-7.6,12.7-18.2,26-32.9,37.5c-0.3,0.2,1.8,1.2,2,1.1c10.3-3.2,19.1-8.1,26.7-13.9c1.8,1.1,6.4,4.4,6.9,4.8c2.7,2.1,5.2,4.2,7.7,6.5
	c1.2,1.2,2.3,2.4,3.5,3.6c1,1,2.2,2.1,3.7,2.1c2.7-0.1,4.8-3.2,5.7-5.4c0.8-1.9,1.2-4.2,0.7-6.2c-0.6-2.8-3-4.1-5.4-5
	c-3.9-1.4-8-2.1-12.1-2.5c-2.4-0.3-4.8-0.5-7.3-0.6c8-6.7,14.5-14.4,19.7-22.1h29.4c9,22.8,29.3,34.4,40.5,38.7
	c0.3-4.2,3.4-11,9.8-16.2C447,100.2,430.7,89.9,421.5,79.1z M407.8,123l17.7-10.7c0.2-0.1,0.5-0.2,0.8-0.2l2.6-0.2
	c0.3,0,0.7-0.2,0.9-0.4c0.9-0.7,0.9-2.2-0.1-2.9l-11.7-7.9c-0.8-0.5-1.8-0.3-2.3,0.4l-10.9,14.8V86.5h-16.1l-0.2,35.3l-48.7,10.8
	l8.2,19.2l4.4-5.7l36-18.5l-0.1,15.6c0,8.3-10,8.6-27.7,8.1v1.8c9.3,2.8,20.9,3.4,21.3,13.9c21.9,0,22.9-4.3,22.9-20.2V128
	c8.6,3.7,24.4,12.1,35.1,26.9c5.3-3,13.8-11.7,8.8-19C443.5,128.5,419.2,124.5,407.8,123z M295.4,101h26.9l-11.8-11.7l-6,6.2
	l-21.4-0.1V77.8h9.4v6.7l16.5-3.8V38.1l3.1-2.4l-14.9-8l-5.8,8h-34.2l-15.6-7.1v60.1l15.6-3.7v-7.1h10.1v17.5l-36-0.2v5.8h16.1
	c-0.5,7.7-3.6,35.1-23.9,51l-0.1-87.1h-4.2c9.5-16.1,14.3-29.2,14.3-29.2l4.6-3.4l-26.2-5c-1.3,7.9-4.6,35.1-28,75.1
	c0.1-0.1,3.7,1.5,3.9,1.4c7.1-6.1,13.4-13.1,18.9-20.3V167h16.8v-10.8c10.2-3.7,16.7-8.5,23-16c6.8-8.3,12.1-15.9,14.7-30.8
	c0.6-3.3,0.9-6.6,1-8.4h5.1v66.1h15.9V101h4.4c7,34.5,19.7,50.2,27.2,56.5c1-5.2,5.8-11.6,14.8-14.8
	C315.2,133,303.5,116.7,295.4,101z M292.6,39.3v34.6h-35.4V39.3H292.6z M656.6,80.6H699v9.3l18.6-4.3V37.4l3.5-2.6l-16.8-7.2
	l-6.6,7.2h-41.2l-17.6-6.7v61.7l17.6-4.1L656.6,80.6L656.6,80.6z M699,39v36.9h-42.5V39H699z M656.9,101.3h-26.2l-16-5.7v71.5
	l16-4.1v-5.1h27.4v9.3l16.3-4.2l0.5-59l3.2-2.6l-15.2-7.2L656.9,101.3z M630.8,153.5V105h27.4v48.4h-27.4V153.5z M731,94.1l-5.9,7.2
	h-26.2l-16-5.7v71.5l16-4.1v-5.1h27.4v9.3l16.3-4.2l0.5-59l3.2-2.6L731,94.1z M698.9,153.5V105h27.4v48.4h-27.4V153.5z M476.1,83.9
	c-3.2,0,5.1,8.6,7.3,10.8c0.3,0.3,0.7,0.5,1.1,0.5h110.4l1.9-2.2c0.5-0.5,0.5-1.3,0-1.9l-12.7-15.8l-9.5,8.5
	C574.6,83.9,489.7,83.9,476.1,83.9z M119.7,30.4h3V10.7h-3V30.4z M127.5,235.5h-1.7v21.6h1.7V235.5z M115.1,235.5h-1.7v21.6h1.7
	V235.5z M94.2,30.5h-2.7v200.4h2.7V30.5z M127.4,30.5h-7.7v188h7.7V30.5z M89.2,30.5h-7.7v188h7.7V30.5z M51.1,6.9h-1.3v24.9h1.3
	V6.9z M36.5,6.9h-1.3v24.9h1.3V6.9z M97.2,16.5h-9.5v1.9h9.5V16.5z M121.2,16.5h-9.5v1.9h9.5V16.5z M35.9,16.5h-4.8v1.9h4.8V16.5z
	 M58.8,16.6h-8.6v1.8h8.6V16.6z M137,230.8H15.2v6H137V230.8z M137,245H15.2v1.7H137V245z M111.3,49.3H97.7v2.2h13.6V49.3z
	 M111.3,87.1H97.7v2.2h13.6V87.1z M49.8,87.1H36.2v2.2h13.6V87.1z M49.8,124.3H36.2v2.2h13.6V124.3z M111.3,124.3H97.7v2.2h13.6
	V124.3z M111.3,161.5H97.7v2.2h13.6V161.5z M49.8,161.5H36.2v2.2h13.6V161.5z M49.8,198.9H36.2v2.2h13.6V198.9z M111.3,198.9H97.7
	v2.2h13.6V198.9z M49.8,49.3H36.2v2.2h13.6V49.3z M134.2,30.5H74.6v2.8h59.6V30.5z M66.7,30.5h-49v2.8h49V30.5z M14.2,259.7v-29.3
	h123.6v29.3H14.2z M17.1,232.3v23.5h117.7v-23.5H17.1z M115.1,235.5h-1.7v21.6h1.7V235.5z M55.7,235.5H54v21.6h1.7V235.5z
	 M67.6,235.5h-1.7v21.6h1.7V235.5z M79.3,235.5h-1.7v21.6h1.7V235.5z M92.3,235.4h-1.7V257h1.7V235.4z M104.1,235.5h-1.7v21.6h1.7
	V235.5z M43.1,235.5h-1.7v21.6h1.7V235.5z M30.2,235.5h-1.7v21.6h1.7V235.5z M66.7,67.7h-49v3.5h49V67.7z M66.7,105.1h-49v3.5h49
	V105.1z M66.7,142.3h-49v3.5h49V142.3z M66.7,179.3h-49v3.5h49V179.3z M134.2,216.8H17.7v3.5h116.4v-3.5H134.2z M134.2,216.8H97.9
	v3.5h36.3V216.8z M134.2,67.5H74.5v3.9h59.7V67.5z M134.2,104.9H74.5v3.9h59.7V104.9z M134.2,142.1H74.5v3.9h59.7V142.1z
	 M134.2,179.1H74.5v3.9h59.7V179.1z M104.5,33.3l-7.8-10.2l7.8-10.2l7.8,10.2L104.5,33.3z M97.8,23.1l6.6,8.7l6.6-8.7l-6.6-8.7
	L97.8,23.1z M112.4,6.9h-1.3v23.8h1.3V6.9z M97.8,6.9h-1.3v23.8h1.3V6.9z M104.5,28.4l-2.9-3.7v-3.1l2.9-3.7l2.9,3.7v3.1L104.5,28.4
	z M102.4,24.2l2.1,2.7l2.1-2.7v-2.3l-2.1-2.7l-2.1,2.7V24.2z M104.5,25.6l-1.4-1.8v-1.5l1.4-1.8l1.4,1.8v1.5L104.5,25.6z
	 M111.7,11.3H97.2v2.2h14.5V11.3z M106.9,22l-0.1-0.3l-1.2,0.6l0.1,0.3L106.9,22z M105.7,23.6l-0.1,0.3l1.2,0.6l0.1-0.3L105.7,23.6z
	 M103.2,22.6l0.1-0.3l-1.2-0.6L102,22L103.2,22.6z M102,24.2l0.1,0.3l1.2-0.6l-0.1-0.3L102,24.2z M104.6,19.1l-0.4-0.1v8.2l0.4,0.1
	V19.1z M109.4,12.9h-1.2v17.9h1.2V12.9z M100.7,12.9h-1.2v17.9h1.2V12.9z M45.3,23.2l-0.1-0.3l-0.9,0.5l0.1,0.3L45.3,23.2z M42,23.4
	l-0.9-0.5L41,23.2l0.9,0.5L42,23.4z M16.2,10.8v220.5h3V10.8H16.2z M65.2,10.8v220.5h3V10.8H65.2z M73.2,10.8v219.6h3V10.8H73.2z
	 M132.7,10.8v220.5h3V10.8H132.7z M86.2,30.4h3V10.7h-3V30.4z M57.4,30.7h3V11h-3V30.7z M29.5,30.7h3V11h-3V30.7z M43.2,33.3
	l-7.8-10.2l7.8-10.2L51,23.1L43.2,33.3z M36.5,23.1l6.6,8.7l6.6-8.7l-6.6-8.7L36.5,23.1z M43.2,29.6l-4.5-5.9l4.5-5.9l4.5,5.9
	L43.2,29.6z M39.7,23.7l3.5,4.6l3.5-4.6l-3.5-4.6L39.7,23.7z M50.4,11.3H35.9v2.2h14.5V11.3z M49.8,22.8H35.9v8h13.9V22.8z M48,12.1
	h-1.2v12.6H48V12.1z M39.5,12.1h-1.2v12.6h1.2V12.1z M99.2,30.5h-2.7v200.4h2.7V30.5z M89.2,31.9h-2.7v199h2.7V31.9z M37.9,31.7
	h-2.7v200.4h2.7V31.7z M51.1,31.7h-2.7v200.4h2.7V31.7z M112.4,30.5h-2.7v200.4h2.7V30.5z M118.1,18h-1.2v12.6h1.2V18z M115.2,18
	H114v12.6h1.2V18z M26.7,20.9H24v211.3h2.7V20.9z M94.9,18h-1.2v12.6h1.2V18z M92,18h-1.2v12.6H92V18z M54.8,18h-1.2v12.6h1.2V18z
	 M62.8,31.3h-7.7v186.9h7.7V31.3z"/>
</svg>
