<?xml version="1.0" encoding="utf-8"?>
<!-- Generator: Adobe Illustrator 27.6.1, SVG Export Plug-In . SVG Version: 6.00 Build 0)  -->
<svg version="1.1" id="_圖層_2" xmlns="http://www.w3.org/2000/svg" xmlns:xlink="http://www.w3.org/1999/xlink" x="0px" y="0px"
	 viewBox="0 0 1031.2 335.2" style="enable-background:new 0 0 1031.2 335.2;" xml:space="preserve">
<style type="text/css">
	.st0{fill:#FFFFFF;}
</style>
<g>
	<g>
		<g>
			<defs>
				<path id="SVGID_1_" d="M85.1,0C38.2,0,0,34.6,0,77.2V172c0,42.6,38.2,77.2,85.1,77.2c46.9,0,85.1-34.6,85.1-77.2V77.2
					C170.3,34.6,132.1,0,85.1,0z M4.7,172V77.2c0-40.1,36-72.7,80.3-72.7c-3.8,6.1-7.7,14.1-7.6,19.9c0,4.1,1.8,7.7,4.4,10.6
					c0.3,0.3,0.6,0.7,0.9,1l-0.7,48.2c-5.1-12-15.5-25.9-29.4-37.9c-0.5-0.4-2-1.5-2.4-1.8c-0.2-0.2-0.6-0.5-0.6-0.6l-0.4,0.1
					c0.2,0.7,0.8,1.2,1.3,1.8c1.3,1.5,2.8,3,4.2,4.5c7.2,7.6,13.8,15.7,19.2,24.6c3.1,4.9,5.6,9.8,8.1,14.9l-1.1,78.5
					c-6.1-6-11.4-12.5-16.2-19.3c-2.8-3.8-5.5-7.8-8-11.8c10.6-14,11.3-32.6,8.2-49.5c2.2-8.2,0.3-13.4-7.1-19.3
					c-3.2,9.6-1.1,16.6,5.8,20.1c0.1,10.9-1.6,22.4-4.2,33.6c-2.2,8.2-5.5,10.4-5.5,10.4c-7.3-12.2-13.3-25.2-17.7-38.7
					c-2.6-7.9-5.2-15.9-6.6-24.1c4.7-9,4-19.9-1.8-27.2c-4.9,8.8-4.6,19.8,0.6,27c0.3,3.3,0.8,6.5,1.4,9.7c2,10.9,5,21.6,8.8,32
					c-3.3-2.7-6.4-5.5-9.3-8.7c-3.1-3.9-5.9-8.2-7.9-12.7c2.3-8.4,0.8-13.6-5.8-19.5c-2.7,9.2-0.9,15.8,4.9,19.2
					c0.2,0.5,0.3,1.1,0.5,1.6c1.5,4.5,3.8,8.7,6.5,12.7c2.7,4,6.3,7.7,10.8,9.7c0.4,0.2,0.7,0.4,1.1,0.5c1.3,3.5,2.8,7,4.3,10.5
					c3.8,8.9,8.4,17.6,14.2,25.5l0,0l0.2,0.3c0.8,1,1.6,2,2.4,3l0.1,0.1c0,0,7.7,10.4,20.1,21.7l-0.5,31c-7.9-4.1-14.4-9.8-20.7-16
					c-7.6-7.4-13.7-16.1-19.2-25.1c-3-4.8-5.7-9.8-8.3-14.8c6.5-10.5,4.5-23-5.1-31c-6.7,10.6-5,23.3,4.2,31.1
					c4.9,11.9,10.6,23.5,18.2,34.1c4.3,6.4,9.8,12.7,16.5,17.3l-0.1,0.1c0,0-6,1.2-6.2,1.2l0,0c-0.2,0-0.4,0-0.6,0.1
					c-1.9,0.2-3.8,0.5-5.6,0.6c-4.3,0.2-8.7-0.1-12.9-1c-2.4-7.2-11.5-11.8-22.4-13c6.3,14.3,11.5,13.5,21.7,14c0.1,0,0.1,0,0.2,0.1
					c1.4,0.5,2.8,1,4.3,1.4c8.2,1.9,17.3,2.6,25-1.1c0.2,0.1,0.3,0.2,0.5,0.3l0,0c0,0,5.4,4.3,10.4,7.1l-0.5,33.5
					C37.9,242,4.7,210.6,4.7,172z M85.1,244.7l0-1.9L85.1,244.7C85.1,244.7,85.1,244.7,85.1,244.7z M165.5,172
					c0,38.5-33.1,70-75,72.5L90,211.1c5.1-2.8,10.4-7.1,10.4-7.1l0,0c0.2-0.1,0.3-0.2,0.5-0.3c7.7,3.7,16.8,3,25,1.1
					c1.5-0.4,2.9-0.9,4.3-1.4c0.1,0,0.1,0,0.2-0.1c10.3-0.4,15.4,0.3,21.7-14c-10.9,1.3-20,5.8-22.4,13c-4.2,0.9-8.6,1.1-12.9,1
					c-1.9-0.1-3.7-0.4-5.6-0.6c-0.2,0-0.4,0-0.6-0.1l0,0c-0.3,0-6.2-1.2-6.2-1.2l-0.1-0.1c6.6-4.6,12.1-11,16.5-17.3
					c7.6-10.6,13.3-22.2,18.2-34.1c9.2-7.8,10.9-20.6,4.2-31.1c-9.6,7.9-11.6,20.4-5.1,31c-2.6,5-5.3,10-8.3,14.8
					c-5.5,9-11.5,17.7-19.2,25.1c-6.3,6.2-12.8,11.9-20.7,16l-0.5-31c12.4-11.3,20.1-21.7,20.1-21.7l0.1-0.1c0.8-1,1.6-2,2.4-3
					l0.2-0.3l0,0c5.8-7.9,10.4-16.6,14.2-25.5c1.5-3.5,3-7,4.3-10.5c0.4-0.2,0.8-0.3,1.1-0.5c4.6-2.1,8.1-5.8,10.8-9.7
					c2.8-3.9,5-8.2,6.5-12.7c0.2-0.5,0.4-1.1,0.5-1.6c5.8-3.4,7.6-10,4.9-19.2c-6.6,5.9-8,11.1-5.8,19.5c-2,4.6-4.8,8.9-7.9,12.7
					c-2.9,3.2-6,6.1-9.3,8.7c3.8-10.4,6.8-21.1,8.8-32c0.6-3.2,1.1-6.4,1.4-9.7c5.2-7.2,5.5-18.2,0.6-27c-5.8,7.3-6.5,18.2-1.8,27.2
					c-1.4,8.2-3.9,16.2-6.6,24.1c-4.4,13.5-10.4,26.5-17.7,38.7c0,0-3.3-2.3-5.5-10.4c-2.6-11.2-4.4-22.7-4.2-33.6
					c6.9-3.5,9-10.5,5.8-20.1c-7.4,5.9-9.2,11.2-7.1,19.3c-3.1,16.9-2.4,35.5,8.2,49.5c-2.5,4-5.2,7.9-8,11.8
					c-4.8,6.9-10.2,13.3-16.2,19.3l-1.1-78.5c2.5-5.1,5.1-10.1,8.1-14.9c5.4-8.9,12-17,19.2-24.6c1-1.1,2.1-2.3,3.2-3.4
					c7.2-0.9,10.8-2.9,14.2-13.1c-7.2,1.1-11.6,4.7-15.1,12.5c-0.1,0.1-0.2,0.2-0.3,0.2c-13.9,12-24.4,25.9-29.4,37.9l-0.7-49
					c2.6-2.8,4.5-6.3,4.7-10.4c0.2-5.8-3.4-13.9-7-20.1c0,0,0,0,0,0c44.4,0,80.4,32.5,80.4,72.7V172z"/>
			</defs>
			<clipPath id="SVGID_00000083090705635916920930000008532573958546978746_">
				<use xlink:href="#SVGID_1_"  style="overflow:visible;"/>
			</clipPath>
			<g style="clip-path:url(#SVGID_00000083090705635916920930000008532573958546978746_);">
				
					<image style="overflow:visible;" width="486" height="523" xlink:href="8DC0499D.png"  transform="matrix(1 0 0 1 -106.8026 -103.264)">
				</image>
			</g>
			<g style="clip-path:url(#SVGID_00000083090705635916920930000008532573958546978746_);">
				
					<image style="overflow:visible;" width="349" height="406" xlink:href="8DC0499F.png"  transform="matrix(1 0 0 1 -109.8026 16.736)">
				</image>
			</g>
			<g style="clip-path:url(#SVGID_00000083090705635916920930000008532573958546978746_);">
				
					<image style="overflow:visible;" width="488" height="526" xlink:href="8DC0499A.png"  transform="matrix(1 0 0 1 -131.8026 -84.264)">
				</image>
			</g>
			<g style="clip-path:url(#SVGID_00000083090705635916920930000008532573958546978746_);">
				
					<image style="overflow:visible;" width="518" height="551" xlink:href="8DC0499B.png"  transform="matrix(1 0 0 1 -135.8026 -106.264)">
				</image>
			</g>
		</g>
	</g>
	<g>
		<g>
			<defs>
				<path id="SVGID_00000078723770213798877840000003382097501611790980_" d="M95.7,56.3c10.3-6.6,14.4-16.5,11.1-27.2
					C95.5,36.3,91,47.6,95.7,56.3z"/>
			</defs>
			<clipPath id="SVGID_00000065760414336326724680000001771311536566905485_">
				<use xlink:href="#SVGID_00000078723770213798877840000003382097501611790980_"  style="overflow:visible;"/>
			</clipPath>
			<g style="clip-path:url(#SVGID_00000065760414336326724680000001771311536566905485_);">
				
					<image style="overflow:visible;" width="363" height="417" xlink:href="8DC049A5.png"  transform="matrix(1 0 0 1 -8.8026 -82.264)">
				</image>
			</g>
		</g>
	</g>
	<g>
		<g>
			<defs>
				<path id="SVGID_00000056418971774320142070000015067330557737147008_" d="M127,188.6c13.3-2.2,22.6-12,22.9-24.1
					C136.6,166.8,127.1,176.7,127,188.6z"/>
			</defs>
			<clipPath id="SVGID_00000127006597107351134490000007172773362037283514_">
				<use xlink:href="#SVGID_00000056418971774320142070000015067330557737147008_"  style="overflow:visible;"/>
			</clipPath>
			<g style="clip-path:url(#SVGID_00000127006597107351134490000007172773362037283514_);">
				
					<image style="overflow:visible;" width="373" height="426" xlink:href="8DC049A7.png"  transform="matrix(1 0 0 1 -57.8026 -48.264)">
				</image>
			</g>
		</g>
	</g>
	<g>
		<g>
			<defs>
				<path id="SVGID_00000062875890895979255810000010828334547123532723_" d="M98.2,192.5c10.1-6.2,15-18.5,12.1-30.3
					C100.2,168.5,95.2,181,98.2,192.5z"/>
			</defs>
			<clipPath id="SVGID_00000004535777500279426280000013884149814581448072_">
				<use xlink:href="#SVGID_00000062875890895979255810000010828334547123532723_"  style="overflow:visible;"/>
			</clipPath>
			<g style="clip-path:url(#SVGID_00000004535777500279426280000013884149814581448072_);">
				
					<image style="overflow:visible;" width="364" height="418" xlink:href="8DC049AA.png"  transform="matrix(1 0 0 1 -73.8026 -27.264)">
				</image>
			</g>
		</g>
	</g>
	<g>
		<g>
			<defs>
				<path id="SVGID_00000044175759065146408570000018302715009319625399_" d="M121.8,60.9c-4.7,10.1-1,21.5,9,28.2
					C135.5,79.4,131.7,67.7,121.8,60.9z"/>
			</defs>
			<clipPath id="SVGID_00000085240681424987624740000009527040072054697378_">
				<use xlink:href="#SVGID_00000044175759065146408570000018302715009319625399_"  style="overflow:visible;"/>
			</clipPath>
			<g style="clip-path:url(#SVGID_00000085240681424987624740000009527040072054697378_);">
				
					<image style="overflow:visible;" width="356" height="412" xlink:href="8DC049AB.png"  transform="matrix(1 0 0 1 -5.8026 -77.264)">
				</image>
			</g>
		</g>
	</g>
	<g>
		<g>
			<defs>
				<path id="SVGID_00000015315158935488044110000009332577417439172503_" d="M103.2,144.5c5.4-10.7,4.3-19.2-4.2-27.6
					C93.7,129.2,95.1,137.7,103.2,144.5z"/>
			</defs>
			<clipPath id="SVGID_00000016764748039482499490000009457694087336794801_">
				<use xlink:href="#SVGID_00000015315158935488044110000009332577417439172503_"  style="overflow:visible;"/>
			</clipPath>
			<g style="clip-path:url(#SVGID_00000016764748039482499490000009457694087336794801_);">
				
					<image style="overflow:visible;" width="357" height="412" xlink:href="8DC049AD.png"  transform="matrix(1 0 0 1 -48.8026 -42.264)">
				</image>
			</g>
		</g>
	</g>
	<g>
		<g>
			<defs>
				<ellipse id="SVGID_00000003070955024254654620000015397721082057133979_" cx="103.5" cy="215.7" rx="6.1" ry="5.9"/>
			</defs>
			<clipPath id="SVGID_00000072981018311524692720000003609611069050726026_">
				<use xlink:href="#SVGID_00000003070955024254654620000015397721082057133979_"  style="overflow:visible;"/>
			</clipPath>
			<g style="clip-path:url(#SVGID_00000072981018311524692720000003609611069050726026_);">
				
					<image style="overflow:visible;" width="357" height="414" xlink:href="7CCAA3B6.png"  transform="matrix(1 0 0 1 -89.8026 -8.264)">
				</image>
			</g>
		</g>
	</g>
	<g>
		<g>
			<defs>
				<ellipse id="SVGID_00000047771233676892861160000011311666653046570413_" cx="153" cy="155.2" rx="6.1" ry="5.9"/>
			</defs>
			<clipPath id="SVGID_00000107563877633061030060000003336124098076214163_">
				<use xlink:href="#SVGID_00000047771233676892861160000011311666653046570413_"  style="overflow:visible;"/>
			</clipPath>
			<g style="clip-path:url(#SVGID_00000107563877633061030060000003336124098076214163_);">
				
					<image style="overflow:visible;" width="357" height="413" xlink:href="7CCAA3B1.png"  transform="matrix(1 0 0 1 -30.8026 -57.264)">
				</image>
			</g>
		</g>
	</g>
	<g>
		<g>
			<defs>
				<ellipse id="SVGID_00000044141204308580562040000005539436060022832533_" cx="122.6" cy="155.2" rx="6.1" ry="5.9"/>
			</defs>
			<clipPath id="SVGID_00000006701556665949968430000008961971335735924656_">
				<use xlink:href="#SVGID_00000044141204308580562040000005539436060022832533_"  style="overflow:visible;"/>
			</clipPath>
			<g style="clip-path:url(#SVGID_00000006701556665949968430000008961971335735924656_);">
				
					<image style="overflow:visible;" width="358" height="414" xlink:href="7CCAA3B2.png"  transform="matrix(1 0 0 1 -48.8026 -43.264)">
				</image>
			</g>
		</g>
	</g>
	<g>
		<g>
			<defs>
				<path id="SVGID_00000089545162707120667410000013809942604615482253_" d="M146.9,116.4c0,3.2,2.7,5.9,6.1,5.9
					c3.4,0,6.1-2.6,6.1-5.9s-2.7-5.9-6.1-5.9C149.6,110.5,146.9,113.2,146.9,116.4z"/>
			</defs>
			<clipPath id="SVGID_00000171719779135121799170000018437153312537067672_">
				<use xlink:href="#SVGID_00000089545162707120667410000013809942604615482253_"  style="overflow:visible;"/>
			</clipPath>
			<g style="clip-path:url(#SVGID_00000171719779135121799170000018437153312537067672_);">
				
					<image style="overflow:visible;" width="358" height="414" xlink:href="7CCAA3B0.png"  transform="matrix(1 0 0 1 -11.8026 -74.264)">
				</image>
			</g>
		</g>
	</g>
	<g>
		<g>
			<defs>
				<path id="SVGID_00000023254545530720927600000002627568456422616452_" d="M122.6,95.9c-3.4,0-6.1,2.6-6.1,5.9s2.7,5.9,6.1,5.9
					c3.4,0,6.1-2.6,6.1-5.9S126,95.9,122.6,95.9z"/>
			</defs>
			<clipPath id="SVGID_00000174597294391004060760000013768312133306194354_">
				<use xlink:href="#SVGID_00000023254545530720927600000002627568456422616452_"  style="overflow:visible;"/>
			</clipPath>
			<g style="clip-path:url(#SVGID_00000174597294391004060760000013768312133306194354_);">
				
					<image style="overflow:visible;" width="357" height="414" xlink:href="7CCAA3CE.png"  transform="matrix(1 0 0 1 -21.8026 -65.264)">
				</image>
			</g>
		</g>
	</g>
	<g>
		<g>
			<defs>
				<path id="SVGID_00000008837188429401377310000010746390179321178498_" d="M122.6,20.9c-3.4,0-6.1,2.6-6.1,5.9
					c0,3.2,2.7,5.9,6.1,5.9c3.4,0,6.1-2.6,6.1-5.9C128.7,23.5,126,20.9,122.6,20.9z"/>
			</defs>
			<clipPath id="SVGID_00000137829129256015595720000002233132022153583261_">
				<use xlink:href="#SVGID_00000008837188429401377310000010746390179321178498_"  style="overflow:visible;"/>
			</clipPath>
			<g style="clip-path:url(#SVGID_00000137829129256015595720000002233132022153583261_);">
				
					<image style="overflow:visible;" width="358" height="413" xlink:href="7CCAA3D1.png"  transform="matrix(1 0 0 1 15.1974 -96.264)">
				</image>
			</g>
		</g>
	</g>
	<g>
		<g>
			<defs>
				<path id="SVGID_00000126318183291981072330000006827701945706012089_" d="M74.6,56.3c4.6-8.7,0.2-20-11.1-27.2
					C60.2,39.8,64.3,49.7,74.6,56.3z"/>
			</defs>
			<clipPath id="SVGID_00000155117103540998940160000014791626423297106064_">
				<use xlink:href="#SVGID_00000126318183291981072330000006827701945706012089_"  style="overflow:visible;"/>
			</clipPath>
			<g style="clip-path:url(#SVGID_00000155117103540998940160000014791626423297106064_);">
				
					<image style="overflow:visible;" width="356" height="412" xlink:href="7CCAA3D2.png"  transform="matrix(1 0 0 1 -22.8026 -63.264)">
				</image>
			</g>
		</g>
	</g>
	<g>
		<g>
			<defs>
				<path id="SVGID_00000075857419144709801190000017210734029021834680_" d="M43.3,188.6c-0.1-11.9-9.6-21.8-22.9-24.1
					C20.7,176.6,30,186.4,43.3,188.6z"/>
			</defs>
			<clipPath id="SVGID_00000176013669458005649550000004579199183684784284_">
				<use xlink:href="#SVGID_00000075857419144709801190000017210734029021834680_"  style="overflow:visible;"/>
			</clipPath>
			<g style="clip-path:url(#SVGID_00000176013669458005649550000004579199183684784284_);">
				
					<image style="overflow:visible;" width="357" height="414" xlink:href="7CCAA3D0.png"  transform="matrix(1 0 0 1 -111.8026 9.736)">
				</image>
			</g>
		</g>
	</g>
	<g>
		<g>
			<defs>
				<path id="SVGID_00000064344107204418058700000014970062530591406756_" d="M72.1,192.5c3-11.4-2-23.9-12.1-30.3
					C57,174,62,186.3,72.1,192.5z"/>
			</defs>
			<clipPath id="SVGID_00000041283887271634995750000000332645262901804691_">
				<use xlink:href="#SVGID_00000064344107204418058700000014970062530591406756_"  style="overflow:visible;"/>
			</clipPath>
			<g style="clip-path:url(#SVGID_00000041283887271634995750000000332645262901804691_);">
				
					<image style="overflow:visible;" width="357" height="412" xlink:href="7CCAA3D6.png"  transform="matrix(1 0 0 1 -92.8026 -5.264)">
				</image>
			</g>
		</g>
	</g>
	<g>
		<g>
			<defs>
				<path id="SVGID_00000083047884359437082520000000736261551876913308_" d="M48.5,60.9c-10,6.8-13.7,18.5-9,28.2
					C49.5,82.5,53.2,71,48.5,60.9z"/>
			</defs>
			<clipPath id="SVGID_00000142144224247354021130000006380028584463658880_">
				<use xlink:href="#SVGID_00000083047884359437082520000000736261551876913308_"  style="overflow:visible;"/>
			</clipPath>
			<g style="clip-path:url(#SVGID_00000142144224247354021130000006380028584463658880_);">
				
					<image style="overflow:visible;" width="362" height="416" xlink:href="7CCAA3D3.png"  transform="matrix(1 0 0 1 -57.8026 -40.264)">
				</image>
			</g>
		</g>
	</g>
	<g>
		<g>
			<defs>
				<path id="SVGID_00000143600211156352836290000016715055865605113022_" d="M67.1,144.5c8.1-6.8,9.5-15.3,4.2-27.6
					C62.8,125.2,61.6,133.8,67.1,144.5z"/>
			</defs>
			<clipPath id="SVGID_00000177449053807513912270000016856950697857568422_">
				<use xlink:href="#SVGID_00000143600211156352836290000016715055865605113022_"  style="overflow:visible;"/>
			</clipPath>
			<g style="clip-path:url(#SVGID_00000177449053807513912270000016856950697857568422_);">
				
					<image style="overflow:visible;" width="359" height="414" xlink:href="7CCAA3F5.png"  transform="matrix(1 0 0 1 -68.8026 -28.264)">
				</image>
			</g>
		</g>
	</g>
	<g>
		<g>
			<defs>
				<ellipse id="SVGID_00000025420848009820928800000000349559484923124150_" cx="66.7" cy="215.7" rx="6.1" ry="5.9"/>
			</defs>
			<clipPath id="SVGID_00000160185370065336931680000013013340487710956716_">
				<use xlink:href="#SVGID_00000025420848009820928800000000349559484923124150_"  style="overflow:visible;"/>
			</clipPath>
			<g style="clip-path:url(#SVGID_00000160185370065336931680000013013340487710956716_);">
				
					<image style="overflow:visible;" width="358" height="414" xlink:href="7CCAA3F7.png"  transform="matrix(1 0 0 1 -111.8026 9.736)">
				</image>
			</g>
		</g>
	</g>
	<g>
		<g>
			<defs>
				<ellipse id="SVGID_00000126305076013066657930000013673462809558107296_" cx="17.2" cy="155.2" rx="6.1" ry="5.9"/>
			</defs>
			<clipPath id="SVGID_00000087396796228737640470000004870647665864215694_">
				<use xlink:href="#SVGID_00000126305076013066657930000013673462809558107296_"  style="overflow:visible;"/>
			</clipPath>
			<g style="clip-path:url(#SVGID_00000087396796228737640470000004870647665864215694_);">
				
					<image style="overflow:visible;" width="357" height="413" xlink:href="7CCAA3F4.png"  transform="matrix(1 0 0 1 -109.8026 8.736)">
				</image>
			</g>
		</g>
	</g>
	<g>
		<g>
			<defs>
				<ellipse id="SVGID_00000000217033915868042340000003425617075850141862_" cx="47.7" cy="155.2" rx="6.1" ry="5.9"/>
			</defs>
			<clipPath id="SVGID_00000114060027078904601800000010786717927548786846_">
				<use xlink:href="#SVGID_00000000217033915868042340000003425617075850141862_"  style="overflow:visible;"/>
			</clipPath>
			<g style="clip-path:url(#SVGID_00000114060027078904601800000010786717927548786846_);">
				
					<image style="overflow:visible;" width="357" height="414" xlink:href="7CCAA3F3.png"  transform="matrix(1 0 0 1 -91.8026 -6.264)">
				</image>
			</g>
		</g>
	</g>
	<g>
		<g>
			<defs>
				<path id="SVGID_00000059311817863299736940000016914089715308105347_" d="M17.2,122.3c3.4,0,6.1-2.6,6.1-5.9s-2.7-5.9-6.1-5.9
					s-6.1,2.6-6.1,5.9S13.9,122.3,17.2,122.3z"/>
			</defs>
			<clipPath id="SVGID_00000142154076682981258640000010454466230175285395_">
				<use xlink:href="#SVGID_00000059311817863299736940000016914089715308105347_"  style="overflow:visible;"/>
			</clipPath>
			<g style="clip-path:url(#SVGID_00000142154076682981258640000010454466230175285395_);">
				
					<image style="overflow:visible;" width="358" height="413" xlink:href="7CCAA3FD.png"  transform="matrix(1 0 0 1 -90.8026 -7.264)">
				</image>
			</g>
		</g>
	</g>
	<g>
		<g>
			<defs>
				<path id="SVGID_00000063594973852495701210000002049929532624778626_" d="M41.5,101.8c0,3.2,2.7,5.9,6.1,5.9s6.1-2.6,6.1-5.9
					s-2.7-5.9-6.1-5.9S41.5,98.5,41.5,101.8z"/>
			</defs>
			<clipPath id="SVGID_00000039846107745715079780000002146175226930898840_">
				<use xlink:href="#SVGID_00000063594973852495701210000002049929532624778626_"  style="overflow:visible;"/>
			</clipPath>
			<g style="clip-path:url(#SVGID_00000039846107745715079780000002146175226930898840_);">
				
					<image style="overflow:visible;" width="358" height="413" xlink:href="7CCAA3FF.png"  transform="matrix(1 0 0 1 -65.8026 -28.264)">
				</image>
			</g>
		</g>
	</g>
	<g>
		<g>
			<defs>
				<path id="SVGID_00000153694009668734915220000004221124855592142234_" d="M47.7,32.6c3.4,0,6.1-2.6,6.1-5.9
					c0-3.2-2.7-5.9-6.1-5.9s-6.1,2.6-6.1,5.9C41.5,30,44.3,32.6,47.7,32.6z"/>
			</defs>
			<clipPath id="SVGID_00000031926412364184485410000000714047054670023070_">
				<use xlink:href="#SVGID_00000153694009668734915220000004221124855592142234_"  style="overflow:visible;"/>
			</clipPath>
			<g style="clip-path:url(#SVGID_00000031926412364184485410000000714047054670023070_);">
				
					<image style="overflow:visible;" width="357" height="414" xlink:href="7CCAA3FC.png"  transform="matrix(1 0 0 1 -27.8026 -60.264)">
				</image>
			</g>
		</g>
	</g>
</g>
<g>
	<g>
		<g>
			<path class="st0" d="M266.4,7.2h20.6V17h101.3v9.8H287.1v25.6h91.4v9.8h-91.4v25.6h91.4v10.8h-91.4v25.6h109.1V136h-92.4
				c4.6,15.1,14.4,29.5,29.5,43.3l38.3-41.3l6.9,6.9l-39.3,41.3c18.3,13.1,37.4,21.6,57,25.6c-7.9,8.5-9.5,19.3-4.9,32.4
				c-47.9-20.3-78.7-56.4-92.4-108.2h-13.8v77.7c7.9-0.6,19-6.9,33.4-18.7l1,1c-19.7,25.6-44.9,40.6-75.7,45.2
				c4.6-8.5,4.3-18-1-28.5c7.2,1.3,14.4,2.3,21.6,2.9V136h-25.6v-11.8h27.5V7.2z"/>
		</g>
		<g>
			<path class="st0" d="M512.2,49.5V2.3h19.7v57L551.5,20l7.9,5.9l-27.5,45.2V75v7.9h21.6v9.8h-9.8v66.9
				c15.1-15.1,24.9-36,29.5-62.9h9.8V65.2c-3.9,9.8-11.8,18.4-23.6,25.6c1.3-4.6,0-11.1-3.9-19.7c16.4-3.3,25.6-9.8,27.5-19.7V21.9
				h-23.6v-9.8H583V2.3h17.7v62.9c15.7,0.7,24.9-5.9,27.5-19.7V21.9h-21.6v-9.8h21.6V2.3h17.7v94.4h-17.7V57.3
				c-4.6,14.4-11.8,23.6-21.6,27.5c1.3-5.9-0.7-11.8-5.9-17.7v31.5h-7.9c-1.3,6.6-4.6,13.8-9.8,21.6h31.5c-0.7-0.6-1.6-2.6-2.9-5.9
				c-2.6-8.5-4.3-14.7-4.9-18.7h1c5.9,3.3,12.1,6.9,18.7,10.8c-2,7.9-3.9,12.5-5.9,13.8h31.5v9.8h-25.6v23.6h21.6v9.8h-21.6v21.6
				h23.6v9.8h-23.6v24.6h25.6v9.8h-64.9v15.7h-17.7V139.9c-8.5,11.8-15.4,19-20.6,21.6h-4.9v45.2c5.2-2.6,10.8-7.5,16.7-14.7l1,1
				c-8.5,21.6-21.6,35.7-39.3,42.3c1.3-7.9,0-15.4-3.9-22.6c2.6,0.7,5.6,0,8.8-2v-118h-9.8V191c0,14.4-7.2,30.1-21.6,47.2
				c-1.3,1.3-2.3,2.9-2.9,4.9h-7.9c10.5-13.1,15.7-25.9,15.7-38.3V92.7h-17.7v-9.8h29.5V61.3l-8.8,10.8
				c-7.2-13.8-13.4-31.8-18.7-54.1h1C496.2,29.8,505,40.3,512.2,49.5z M561.4,32.7h1c5.2,3.9,9.5,7.9,12.8,11.8
				c-2.6,7.2-5.3,11.5-7.9,12.8C564.7,51.4,562.7,43.2,561.4,32.7z M587.9,130.1v23.6h19.7v-23.6H587.9z M587.9,163.5v21.6h19.7
				v-21.6H587.9z M607.6,195h-19.7v24.6h19.7V195z M606.6,30.8h1c5.2,3.9,9.5,7.5,12.8,10.8c-0.7,8.5-2.6,13.8-5.9,15.7
				C611.8,54.7,609.2,45.9,606.6,30.8z"/>
		</g>
		<g>
			<path class="st0" d="M750.2,147.8V4.2h19.7V15h86.5V4.2H876v141.6h-19.7v-13.8h-33.4v38.3h61v10.8h-61v44.2h74.7v10.8H730.5
				v-10.8h72.8v-44.2h-57v-10.8h57v-38.3h-33.4v15.7H750.2z M803.3,25.9h-33.4v42.3h33.4V25.9z M769.8,79v41.3h33.4V79H769.8z
				 M822.9,68.1h33.4V25.9h-33.4V68.1z M822.9,120.3h33.4V79h-33.4V120.3z"/>
		</g>
	</g>
	<g>
		<g>
			<path class="st0" d="M264.7,324.4c0,5.3,0.1,7.6,0.8,8.2c0.6,0.6,1.5,0.8,4.3,0.8c1.9,0,3.5,0,4.3-1.1c0.5-0.6,0.8-1.5,0.9-2.1
				c0-0.3,0.1-0.5,0.3-0.5c0.2,0,0.2,0.1,0.2,0.5c0,0.4-0.3,2.5-0.5,3.6c-0.3,0.8-0.4,1-2.3,1c-5.2,0-7.5-0.2-9.6-0.2
				c-0.3,0-2.4,0.1-3.5,0.1c-0.4,0-0.6-0.1-0.6-0.3c0-0.1,0.1-0.2,0.3-0.2c0.3,0,0.8-0.1,1.1-0.1c0.7-0.1,0.9-0.9,1-2
				c0.2-1.5,0.2-4.3,0.2-7.8V318c0-5.6,0-6.6-0.1-7.7c-0.1-1.2-0.4-1.8-1.5-2c-0.3-0.1-0.9-0.1-1.2-0.1c-0.1,0-0.3-0.1-0.3-0.2
				c0-0.2,0.2-0.3,0.6-0.3c1.6,0,3.9,0.1,4,0.1c0.2,0,2.8-0.1,3.9-0.1c0.4,0,0.6,0.1,0.6,0.3c0,0.1-0.1,0.2-0.3,0.2
				c-0.3,0-0.8,0-1.2,0.1c-1,0.2-1.3,0.8-1.4,2c-0.1,1.1-0.1,2.1-0.1,7.7V324.4z"/>
		</g>
		<g>
			<path class="st0" d="M293.1,324.3c0,3.4,0,6.3,0.2,7.8c0.1,1,0.3,1.8,1.4,2c0.5,0.1,1.3,0.1,1.6,0.1c0.2,0,0.3,0.1,0.3,0.2
				c0,0.2-0.2,0.3-0.6,0.3c-2,0-4.2-0.1-4.4-0.1c-0.2,0-2.4,0.1-3.5,0.1c-0.4,0-0.6-0.1-0.6-0.3c0-0.1,0.1-0.2,0.3-0.2
				c0.3,0,0.8-0.1,1.1-0.1c0.7-0.1,0.9-0.9,1-2c0.2-1.5,0.2-4.3,0.2-7.8V318c0-5.6,0-6.6-0.1-7.7c-0.1-1.2-0.4-1.8-1.2-2
				c-0.4-0.1-0.9-0.1-1.1-0.1c-0.1,0-0.3-0.1-0.3-0.2c0-0.2,0.2-0.3,0.6-0.3c1.2,0,3.4,0.1,3.6,0.1c0.2,0,2.4-0.1,3.5-0.1
				c0.4,0,0.6,0.1,0.6,0.3c0,0.1-0.1,0.2-0.3,0.2c-0.3,0-0.5,0-0.9,0.1c-1,0.2-1.3,0.8-1.3,2c-0.1,1.1-0.1,2.1-0.1,7.7V324.3z"/>
		</g>
		<g>
			<path class="st0" d="M313,318c0-5.6,0-6.6-0.1-7.7c-0.1-1.2-0.4-1.8-1.5-2c-0.3-0.1-0.9-0.1-1.2-0.1c-0.1,0-0.3-0.1-0.3-0.2
				c0-0.2,0.2-0.3,0.6-0.3c1.6,0,3.9,0.1,4,0.1c0.7,0,8,0,8.8,0c0.7,0,1.3,0,1.6-0.1c0.2-0.1,0.4-0.2,0.5-0.2s0.2,0.1,0.2,0.3
				c0,0.2-0.2,0.7-0.3,1.7c0,0.4-0.1,1.9-0.2,2.4c0,0.2-0.1,0.4-0.3,0.4s-0.3-0.2-0.3-0.4c0-0.3-0.1-0.9-0.3-1.4
				c-0.2-0.5-1-1.1-2.4-1.1l-5.5-0.1c-0.2,0-0.3,0.1-0.3,0.4v9.9c0,0.2,0,0.3,0.3,0.3l4.6,0c0.6,0,1.1,0,1.6,0
				c0.9-0.1,1.3-0.2,1.6-0.6c0.1-0.2,0.3-0.4,0.4-0.4c0.1,0,0.2,0.1,0.2,0.3c0,0.2-0.2,0.8-0.3,2c-0.1,0.7-0.1,2.1-0.1,2.4
				c0,0.3,0,0.7-0.3,0.7c-0.2,0-0.3-0.1-0.3-0.3c0-0.4-0.1-0.9-0.2-1.3c-0.2-0.5-0.8-1.1-1.9-1.3c-0.9-0.1-4.8-0.1-5.4-0.1
				c-0.2,0-0.3,0.1-0.3,0.3v3c0,3.4,0,6.3,0.2,7.8c0.1,1,0.3,1.8,1.4,2c0.5,0.1,1.3,0.1,1.6,0.1c0.2,0,0.3,0.1,0.3,0.2
				c0,0.2-0.2,0.3-0.6,0.3c-2,0-4.2-0.1-4.4-0.1c-0.2,0-2.4,0.1-3.5,0.1c-0.4,0-0.6-0.1-0.6-0.3c0-0.1,0.1-0.2,0.3-0.2
				c0.3,0,0.8-0.1,1.1-0.1c0.7-0.1,0.9-0.9,1-2c0.2-1.5,0.2-4.3,0.2-7.8V318z"/>
		</g>
		<g>
			<path class="st0" d="M341.4,318c0-5.6,0-6.6-0.1-7.7c-0.1-1.2-0.4-1.8-1.5-2c-0.3-0.1-0.9-0.1-1.2-0.1c-0.1,0-0.3-0.1-0.3-0.2
				c0-0.2,0.2-0.3,0.6-0.3c1.6,0,3.9,0.1,4,0.1c0.3,0,7.4,0,8.2,0c0.7,0,1.3-0.1,1.5-0.2c0.2,0,0.3-0.2,0.5-0.2
				c0.1,0,0.1,0.1,0.1,0.3c0,0.2-0.2,0.7-0.3,1.7c0,0.4-0.1,1.9-0.2,2.4c0,0.2-0.1,0.4-0.3,0.4c-0.2,0-0.3-0.2-0.3-0.5
				c0-0.2,0-0.9-0.2-1.3c-0.3-0.6-0.6-1-2.5-1.2c-0.6-0.1-4.5-0.1-4.9-0.1c-0.1,0-0.2,0.1-0.2,0.4v9.9c0,0.3,0,0.4,0.2,0.4
				c0.5,0,4.9,0,5.7-0.1c0.9-0.1,1.4-0.1,1.7-0.5c0.3-0.3,0.4-0.5,0.5-0.5c0.1,0,0.2,0.1,0.2,0.3s-0.2,0.8-0.3,2
				c-0.1,0.7-0.1,2-0.1,2.3c0,0.3,0,0.7-0.3,0.7c-0.2,0-0.3-0.1-0.3-0.3c0-0.4,0-0.7-0.1-1.2c-0.1-0.5-0.5-1.1-1.9-1.3
				c-1-0.1-4.5-0.2-5.1-0.2c-0.2,0-0.3,0.1-0.3,0.3v3.2c0,1.2,0,5.4,0,6.1c0.1,2.5,0.6,2.9,4.2,2.9c0.9,0,2.5,0,3.4-0.4
				c0.9-0.4,1.4-1.1,1.6-2.6c0.1-0.4,0.1-0.5,0.3-0.5c0.2,0,0.2,0.3,0.2,0.5c0,0.3-0.3,2.7-0.5,3.5c-0.3,0.9-0.5,0.9-1.9,0.9
				c-5.4,0-7.8-0.2-8.8-0.2c-0.2,0-2.4,0.1-3.5,0.1c-0.4,0-0.6-0.1-0.6-0.3c0-0.1,0.1-0.2,0.3-0.2c0.3,0,0.8-0.1,1.1-0.1
				c0.7-0.1,0.9-0.9,1-2c0.2-1.5,0.2-4.3,0.2-7.8V318z"/>
		</g>
		<g>
			<path class="st0" d="M394.4,308.5c0.4-1.2,0.6-1.4,0.8-1.4s0.4,0.2,0.8,1.3c0.5,1.4,6.2,16.2,8.3,21.6c1.3,3.2,2.3,3.8,3.1,4
				c0.5,0.2,1.1,0.2,1.4,0.2c0.2,0,0.4,0,0.4,0.2c0,0.2-0.3,0.3-0.7,0.3c-0.5,0-3.2,0-5.6-0.1c-0.7,0-1.1,0-1.1-0.3
				c0-0.1,0.1-0.2,0.3-0.3c0.2-0.1,0.4-0.4,0.2-1l-3.3-8.8c-0.1-0.1-0.1-0.2-0.3-0.2h-7.7c-0.2,0-0.3,0.1-0.4,0.3l-2.1,6.3
				c-0.3,0.9-0.5,1.8-0.5,2.4c0,0.7,0.8,1,1.4,1h0.4c0.3,0,0.4,0.1,0.4,0.2c0,0.2-0.2,0.3-0.5,0.3c-0.9,0-2.4-0.1-2.8-0.1
				s-2.4,0.1-4,0.1c-0.5,0-0.7-0.1-0.7-0.3c0-0.1,0.1-0.2,0.3-0.2c0.3,0,0.8,0,1-0.1c1.6-0.2,2.4-1.6,3-3.4L394.4,308.5z
				 M398.1,322.9c0.2,0,0.2-0.1,0.1-0.3l-3.4-9.7c-0.2-0.5-0.4-0.5-0.5,0l-3.2,9.7c-0.1,0.2,0,0.3,0.1,0.3H398.1z"/>
		</g>
		<g>
			<path class="st0" d="M421.4,318c0-5.6,0-6.6-0.1-7.7c-0.1-1.2-0.4-1.8-1.5-2c-0.3-0.1-0.9-0.1-1.2-0.1c-0.1,0-0.3-0.1-0.3-0.2
				c0-0.2,0.2-0.3,0.6-0.3c1.6,0,3.9,0.1,4,0.1c0.9,0,2.3-0.1,3.9-0.1c5.9,0,7.2,3.6,7.2,5.4c0,2.9-1.7,4.7-3.4,6.4
				c2.6,0.8,6.2,3.4,6.2,7.6c0,3.8-3,7.8-9.1,7.8c-0.8,0-4.5-0.2-4.8-0.2c-0.2,0-2.4,0.1-3.5,0.1c-0.4,0-0.6-0.1-0.6-0.3
				c0-0.1,0.1-0.2,0.3-0.2c0.3,0,0.8-0.1,1.1-0.1c0.7-0.1,0.9-0.9,1-2c0.2-1.5,0.2-4.3,0.2-7.8V318z M424.3,318.8
				c0,0.2,0.1,0.3,0.3,0.4c0.2,0,0.9,0.1,2.2,0.1c2,0,2.5-0.1,3.3-0.9c0.8-0.9,1.3-2.1,1.3-3.6c0-3-1.3-6.2-4.8-6.2
				c-0.4,0-1.1,0-1.7,0.2c-0.3,0.1-0.4,0.2-0.4,0.4V318.8z M424.3,322.6c0,2.8,0,7.2,0,7.7c0.1,1.8,0.1,2.3,1.2,2.8
				c1,0.5,2.5,0.5,3.2,0.5c1.9,0,5-1,5-5.1c0-2.1-0.7-5.3-3.5-7.2c-1.2-0.8-2.1-0.9-3-1c-0.5-0.1-2.3-0.1-2.8-0.1
				c-0.1,0-0.2,0.1-0.2,0.3V322.6z"/>
		</g>
		<g>
			<path class="st0" d="M463.2,307.1c8.1,0,14.1,5.1,14.1,13.4c0,8-5.7,14.6-14.3,14.6c-9.8,0-13.9-7.6-13.9-14.1
				C449.1,315.3,453.4,307.1,463.2,307.1z M464,333.9c3.2,0,9.9-1.9,9.9-12.3c0-8.6-5.2-13.2-10.9-13.2c-6,0-10.5,3.9-10.5,11.8
				C452.5,328.5,457.6,333.9,464,333.9z"/>
		</g>
		<g>
			<path class="st0" d="M500.6,330.4c2.1-4.8,6.9-17.3,7.7-19.9c0.2-0.5,0.3-1,0.3-1.4c0-0.3-0.1-0.6-0.5-0.8
				c-0.4-0.1-1-0.1-1.4-0.1c-0.2,0-0.4,0-0.4-0.2c0-0.2,0.2-0.3,0.8-0.3c1.4,0,3.1,0.1,3.5,0.1c0.2,0,1.8-0.1,2.8-0.1
				c0.4,0,0.6,0.1,0.6,0.3c0,0.2-0.1,0.2-0.4,0.2c-0.3,0-1,0-1.7,0.4c-0.5,0.3-1,0.9-2,3.4c-0.4,1-2.2,5.3-4,9.7
				c-2.2,5.2-3.8,9.1-4.6,10.9c-1,2.1-1.1,2.7-1.5,2.7c-0.4,0-0.6-0.5-1.3-2.2l-8.8-22c-0.8-2-1.3-2.4-2.6-2.8
				c-0.5-0.1-1.1-0.1-1.4-0.1s-0.3-0.1-0.3-0.2c0-0.2,0.4-0.3,0.9-0.3c1.7,0,3.8,0.1,4.2,0.1c0.4,0,2-0.1,3.3-0.1c0.6,0,1,0.1,1,0.3
				c0,0.2-0.1,0.2-0.4,0.2c-0.4,0-1,0-1.4,0.2c-0.4,0.2-0.5,0.5-0.5,0.7c0,0.5,0.4,1.6,1,3L500.6,330.4z"/>
		</g>
		<g>
			<path class="st0" d="M526.6,318c0-5.6,0-6.6-0.1-7.7c-0.1-1.2-0.4-1.8-1.5-2c-0.3-0.1-0.9-0.1-1.2-0.1c-0.1,0-0.3-0.1-0.3-0.2
				c0-0.2,0.2-0.3,0.6-0.3c1.6,0,3.9,0.1,4,0.1c0.3,0,7.4,0,8.2,0c0.7,0,1.3-0.1,1.5-0.2c0.2,0,0.3-0.2,0.5-0.2
				c0.1,0,0.1,0.1,0.1,0.3c0,0.2-0.2,0.7-0.3,1.7c0,0.4-0.1,1.9-0.2,2.4c0,0.2-0.1,0.4-0.3,0.4c-0.2,0-0.3-0.2-0.3-0.5
				c0-0.2,0-0.9-0.2-1.3c-0.3-0.6-0.6-1-2.5-1.2c-0.6-0.1-4.5-0.1-4.9-0.1c-0.1,0-0.2,0.1-0.2,0.4v9.9c0,0.3,0,0.4,0.2,0.4
				c0.5,0,4.9,0,5.7-0.1c0.9-0.1,1.4-0.1,1.7-0.5c0.3-0.3,0.4-0.5,0.5-0.5c0.1,0,0.2,0.1,0.2,0.3s-0.2,0.8-0.3,2
				c-0.1,0.7-0.1,2-0.1,2.3c0,0.3,0,0.7-0.3,0.7c-0.2,0-0.3-0.1-0.3-0.3c0-0.4,0-0.7-0.1-1.2c-0.1-0.5-0.5-1.1-1.9-1.3
				c-1-0.1-4.5-0.2-5.1-0.2c-0.2,0-0.3,0.1-0.3,0.3v3.2c0,1.2,0,5.4,0,6.1c0.1,2.5,0.6,2.9,4.2,2.9c0.9,0,2.5,0,3.4-0.4
				c0.9-0.4,1.4-1.1,1.6-2.6c0.1-0.4,0.1-0.5,0.3-0.5c0.2,0,0.2,0.3,0.2,0.5c0,0.3-0.3,2.7-0.5,3.5c-0.3,0.9-0.5,0.9-1.9,0.9
				c-5.4,0-7.8-0.2-8.8-0.2c-0.2,0-2.4,0.1-3.5,0.1c-0.4,0-0.6-0.1-0.6-0.3c0-0.1,0.1-0.2,0.3-0.2c0.3,0,0.8-0.1,1.1-0.1
				c0.7-0.1,0.9-0.9,1-2c0.2-1.5,0.2-4.3,0.2-7.8V318z"/>
		</g>
		<g>
			<path class="st0" d="M582,324.3c0,3.4,0,6.3,0.2,7.8c0.1,1,0.3,1.8,1.4,2c0.5,0.1,1.3,0.1,1.6,0.1c0.2,0,0.3,0.1,0.3,0.2
				c0,0.2-0.2,0.3-0.6,0.3c-2,0-4.2-0.1-4.4-0.1c-0.2,0-2.4,0.1-3.5,0.1c-0.4,0-0.6-0.1-0.6-0.3c0-0.1,0.1-0.2,0.3-0.2
				c0.3,0,0.8-0.1,1.1-0.1c0.7-0.1,0.9-0.9,1-2c0.2-1.5,0.2-4.3,0.2-7.8v-15.1l-5.3,0.1c-2.2,0-3.1,0.3-3.7,1.1
				c-0.4,0.6-0.5,0.9-0.6,1.1c-0.1,0.3-0.2,0.4-0.4,0.4c-0.1,0-0.2-0.1-0.2-0.3c0-0.4,0.7-3.4,0.8-3.7c0.1-0.2,0.2-0.7,0.4-0.7
				c0.3,0,0.6,0.4,1.6,0.4c1,0.1,2.4,0.2,2.8,0.2h13.4c2.3,0,3.3-0.4,3.5-0.4c0.2,0,0.2,0.2,0.2,0.4c0,1.1-0.1,3.5-0.1,3.9
				c0,0.3-0.1,0.5-0.3,0.5c-0.2,0-0.3-0.1-0.3-0.6l0-0.4c-0.1-1.1-1-1.9-4.4-2l-4.5-0.1V324.3z"/>
		</g>
		<g>
			<path class="st0" d="M627.9,324.3c0,3.4,0,6.3,0.2,7.8c0.1,1,0.3,1.8,1.4,2c0.5,0.1,1.3,0.1,1.6,0.1c0.2,0,0.3,0.1,0.3,0.2
				c0,0.2-0.2,0.3-0.6,0.3c-2,0-4.2-0.1-4.4-0.1c-0.2,0-2.4,0.1-3.5,0.1c-0.4,0-0.6-0.1-0.6-0.3c0-0.1,0.1-0.2,0.3-0.2
				c0.3,0,0.8-0.1,1.1-0.1c0.7-0.1,0.9-0.9,1-2c0.2-1.5,0.2-4.3,0.2-7.8v-3.8c0-0.1-0.1-0.2-0.2-0.2h-15.2c-0.1,0-0.2,0-0.2,0.2v3.8
				c0,3.4,0,6.3,0.2,7.8c0.1,1,0.3,1.8,1.4,2c0.5,0.1,1.3,0.1,1.6,0.1c0.2,0,0.3,0.1,0.3,0.2c0,0.2-0.2,0.3-0.6,0.3
				c-2,0-4.2-0.1-4.4-0.1c-0.2,0-2.4,0.1-3.5,0.1c-0.4,0-0.6-0.1-0.6-0.3c0-0.1,0.1-0.2,0.3-0.2c0.3,0,0.8-0.1,1.1-0.1
				c0.7-0.1,0.9-0.9,1-2c0.2-1.5,0.2-4.3,0.2-7.8V318c0-5.6,0-6.6-0.1-7.7c-0.1-1.2-0.4-1.8-1.5-2c-0.3-0.1-0.9-0.1-1.2-0.1
				c-0.1,0-0.3-0.1-0.3-0.2c0-0.2,0.2-0.3,0.6-0.3c1.6,0,3.9,0.1,4,0.1c0.2,0,2.4-0.1,3.5-0.1c0.4,0,0.6,0.1,0.6,0.3
				c0,0.1-0.1,0.2-0.3,0.2c-0.3,0-0.5,0-0.9,0.1c-1,0.2-1.3,0.8-1.3,2c-0.1,1.1-0.1,2.1-0.1,7.7v0.8c0,0.2,0.1,0.2,0.2,0.2h15.2
				c0.1,0,0.2,0,0.2-0.2V318c0-5.6,0-6.6-0.1-7.7c-0.1-1.2-0.4-1.8-1.5-2c-0.3-0.1-0.9-0.1-1.2-0.1c-0.1,0-0.3-0.1-0.3-0.2
				c0-0.2,0.2-0.3,0.6-0.3c1.6,0,3.9,0.1,4,0.1c0.2,0,2.4-0.1,3.5-0.1c0.4,0,0.6,0.1,0.6,0.3c0,0.1-0.1,0.2-0.3,0.2
				c-0.2,0-0.5,0-0.9,0.1c-1,0.2-1.3,0.8-1.3,2c-0.1,1.1-0.1,2.1-0.1,7.7V324.3z"/>
		</g>
		<g>
			<path class="st0" d="M647.8,318c0-5.6,0-6.6-0.1-7.7c-0.1-1.2-0.4-1.8-1.5-2c-0.3-0.1-0.9-0.1-1.2-0.1c-0.1,0-0.3-0.1-0.3-0.2
				c0-0.2,0.2-0.3,0.6-0.3c1.6,0,3.9,0.1,4,0.1c0.3,0,7.4,0,8.2,0c0.7,0,1.3-0.1,1.5-0.2c0.2,0,0.3-0.2,0.5-0.2
				c0.1,0,0.1,0.1,0.1,0.3c0,0.2-0.2,0.7-0.3,1.7c0,0.4-0.1,1.9-0.2,2.4c0,0.2-0.1,0.4-0.3,0.4c-0.2,0-0.3-0.2-0.3-0.5
				c0-0.2,0-0.9-0.2-1.3c-0.3-0.6-0.6-1-2.5-1.2c-0.6-0.1-4.5-0.1-4.9-0.1c-0.1,0-0.2,0.1-0.2,0.4v9.9c0,0.3,0,0.4,0.2,0.4
				c0.5,0,4.9,0,5.7-0.1c0.9-0.1,1.4-0.1,1.7-0.5c0.3-0.3,0.4-0.5,0.5-0.5c0.1,0,0.2,0.1,0.2,0.3s-0.2,0.8-0.3,2
				c-0.1,0.7-0.1,2-0.1,2.3c0,0.3,0,0.7-0.3,0.7c-0.2,0-0.3-0.1-0.3-0.3c0-0.4,0-0.7-0.1-1.2c-0.1-0.5-0.5-1.1-1.9-1.3
				c-1-0.1-4.5-0.2-5.1-0.2c-0.2,0-0.3,0.1-0.3,0.3v3.2c0,1.2,0,5.4,0,6.1c0.1,2.5,0.6,2.9,4.2,2.9c0.9,0,2.5,0,3.4-0.4
				c0.9-0.4,1.4-1.1,1.6-2.6c0.1-0.4,0.1-0.5,0.3-0.5c0.2,0,0.2,0.3,0.2,0.5c0,0.3-0.3,2.7-0.5,3.5c-0.3,0.9-0.5,0.9-1.9,0.9
				c-5.4,0-7.8-0.2-8.8-0.2c-0.2,0-2.4,0.1-3.5,0.1c-0.4,0-0.6-0.1-0.6-0.3c0-0.1,0.1-0.2,0.3-0.2c0.3,0,0.8-0.1,1.1-0.1
				c0.7-0.1,0.9-0.9,1-2c0.2-1.5,0.2-4.3,0.2-7.8V318z"/>
		</g>
		<g>
			<path class="st0" d="M695.7,318c0-5.6,0-6.6-0.1-7.7c-0.1-1.2-0.4-1.8-1.5-2c-0.3-0.1-0.9-0.1-1.2-0.1c-0.1,0-0.3-0.1-0.3-0.2
				c0-0.2,0.2-0.3,0.6-0.3c1.6,0,3.9,0.1,4,0.1c0.7,0,8,0,8.8,0c0.7,0,1.3,0,1.6-0.1c0.2-0.1,0.4-0.2,0.5-0.2s0.2,0.1,0.2,0.3
				c0,0.2-0.2,0.7-0.3,1.7c0,0.4-0.1,1.9-0.2,2.4c0,0.2-0.1,0.4-0.3,0.4s-0.3-0.2-0.3-0.4c0-0.3-0.1-0.9-0.3-1.4
				c-0.2-0.5-1-1.1-2.4-1.1l-5.5-0.1c-0.2,0-0.3,0.1-0.3,0.4v9.9c0,0.2,0,0.3,0.3,0.3l4.6,0c0.6,0,1.1,0,1.6,0
				c0.9-0.1,1.3-0.2,1.6-0.6c0.1-0.2,0.3-0.4,0.4-0.4c0.1,0,0.2,0.1,0.2,0.3c0,0.2-0.2,0.8-0.3,2c-0.1,0.7-0.1,2.1-0.1,2.4
				c0,0.3,0,0.7-0.3,0.7c-0.2,0-0.3-0.1-0.3-0.3c0-0.4-0.1-0.9-0.2-1.3c-0.2-0.5-0.8-1.1-1.9-1.3c-0.9-0.1-4.8-0.1-5.4-0.1
				c-0.2,0-0.3,0.1-0.3,0.3v3c0,3.4,0,6.3,0.2,7.8c0.1,1,0.3,1.8,1.4,2c0.5,0.1,1.3,0.1,1.6,0.1c0.2,0,0.3,0.1,0.3,0.2
				c0,0.2-0.2,0.3-0.6,0.3c-2,0-4.2-0.1-4.4-0.1c-0.2,0-2.4,0.1-3.5,0.1c-0.4,0-0.6-0.1-0.6-0.3c0-0.1,0.1-0.2,0.3-0.2
				c0.3,0,0.8-0.1,1.1-0.1c0.7-0.1,0.9-0.9,1-2c0.2-1.5,0.2-4.3,0.2-7.8V318z"/>
		</g>
		<g>
			<path class="st0" d="M734,307.1c8.1,0,14.1,5.1,14.1,13.4c0,8-5.7,14.6-14.3,14.6c-9.8,0-13.9-7.6-13.9-14.1
				C719.9,315.3,724.2,307.1,734,307.1z M734.8,333.9c3.2,0,9.9-1.9,9.9-12.3c0-8.6-5.2-13.2-10.9-13.2c-6,0-10.5,3.9-10.5,11.8
				C723.3,328.5,728.4,333.9,734.8,333.9z"/>
		</g>
		<g>
			<path class="st0" d="M762.9,318c0-5.6,0-6.6-0.1-7.7c-0.1-1.2-0.4-1.8-1.5-2c-0.3-0.1-0.9-0.1-1.2-0.1c-0.1,0-0.3-0.1-0.3-0.2
				c0-0.2,0.2-0.3,0.6-0.3c1.6,0,3.9,0.1,4,0.1c0.4,0,3.1-0.1,4.2-0.1c2.3,0,4.7,0.2,6.6,1.6c0.9,0.6,2.5,2.4,2.5,4.9
				c0,2.7-1.1,5.3-4.3,8.3c2.9,3.8,5.4,6.9,7.4,9.2c1.9,2,3.5,2.4,4.4,2.6c0.7,0.1,1.2,0.1,1.4,0.1c0.2,0,0.3,0.1,0.3,0.2
				c0,0.2-0.2,0.3-0.9,0.3h-2.5c-2,0-2.9-0.2-3.8-0.7c-1.5-0.8-2.8-2.6-4.8-5.3c-1.5-2-3.2-4.4-3.9-5.3c-0.1-0.1-0.2-0.2-0.5-0.2
				l-4.4-0.1c-0.2,0-0.3,0.1-0.3,0.3v0.9c0,3.4,0,6.3,0.2,7.8c0.1,1,0.3,1.8,1.4,2c0.5,0.1,1.3,0.1,1.6,0.1c0.2,0,0.3,0.1,0.3,0.2
				c0,0.2-0.2,0.3-0.6,0.3c-2,0-4.2-0.1-4.4-0.1c0,0-2.3,0.1-3.4,0.1c-0.4,0-0.6-0.1-0.6-0.3c0-0.1,0.1-0.2,0.3-0.2
				c0.3,0,0.8-0.1,1.1-0.1c0.7-0.1,0.9-0.9,1-2c0.2-1.5,0.2-4.3,0.2-7.8V318z M765.8,321.1c0,0.2,0.1,0.3,0.3,0.4
				c0.5,0.3,2.2,0.6,3.8,0.6c0.9,0,1.9-0.1,2.7-0.7c1.3-0.9,2.2-2.8,2.2-5.5c0-4.5-2.4-7.2-6.2-7.2c-1.1,0-2,0.1-2.4,0.2
				c-0.2,0.1-0.3,0.2-0.3,0.4V321.1z"/>
		</g>
		<g>
			<path class="st0" d="M797.1,318c0-5.6,0-6.6-0.1-7.7c-0.1-1.2-0.4-1.8-1.5-2c-0.3-0.1-0.9-0.1-1.2-0.1c-0.1,0-0.3-0.1-0.3-0.2
				c0-0.2,0.2-0.3,0.6-0.3c1.6,0,3.9,0.1,4,0.1c0.3,0,7.4,0,8.2,0c0.7,0,1.3-0.1,1.5-0.2c0.2,0,0.3-0.2,0.5-0.2
				c0.1,0,0.1,0.1,0.1,0.3c0,0.2-0.2,0.7-0.3,1.7c0,0.4-0.1,1.9-0.2,2.4c0,0.2-0.1,0.4-0.3,0.4c-0.2,0-0.3-0.2-0.3-0.5
				c0-0.2,0-0.9-0.2-1.3c-0.3-0.6-0.6-1-2.5-1.2c-0.6-0.1-4.5-0.1-4.9-0.1c-0.1,0-0.2,0.1-0.2,0.4v9.9c0,0.3,0,0.4,0.2,0.4
				c0.5,0,4.9,0,5.7-0.1c0.9-0.1,1.4-0.1,1.7-0.5c0.3-0.3,0.4-0.5,0.5-0.5c0.1,0,0.2,0.1,0.2,0.3s-0.2,0.8-0.3,2
				c-0.1,0.7-0.1,2-0.1,2.3c0,0.3,0,0.7-0.3,0.7c-0.2,0-0.3-0.1-0.3-0.3c0-0.4,0-0.7-0.1-1.2c-0.1-0.5-0.5-1.1-1.9-1.3
				c-1-0.1-4.5-0.2-5.1-0.2c-0.2,0-0.3,0.1-0.3,0.3v3.2c0,1.2,0,5.4,0,6.1c0.1,2.5,0.6,2.9,4.2,2.9c0.9,0,2.5,0,3.4-0.4
				c0.9-0.4,1.4-1.1,1.6-2.6c0.1-0.4,0.1-0.5,0.3-0.5c0.2,0,0.2,0.3,0.2,0.5c0,0.3-0.3,2.7-0.5,3.5c-0.3,0.9-0.5,0.9-1.9,0.9
				c-5.4,0-7.8-0.2-8.8-0.2c-0.2,0-2.4,0.1-3.5,0.1c-0.4,0-0.6-0.1-0.6-0.3c0-0.1,0.1-0.2,0.3-0.2c0.3,0,0.8-0.1,1.1-0.1
				c0.7-0.1,0.9-0.9,1-2c0.2-1.5,0.2-4.3,0.2-7.8V318z"/>
		</g>
		<g>
			<path class="st0" d="M823.8,334.3c-0.5-0.2-0.5-0.4-0.5-1.4c0-1.8,0.1-3.2,0.2-3.8c0-0.4,0.1-0.6,0.3-0.6c0.2,0,0.3,0.1,0.3,0.4
				c0,0.3,0,0.8,0.1,1.3c0.5,2.7,2.9,3.7,5.3,3.7c3.4,0,5.1-2.5,5.1-4.8c0-2.5-1-3.9-4.1-6.4l-1.6-1.3c-3.8-3.1-4.7-5.3-4.7-7.8
				c0-3.8,2.9-6.4,7.4-6.4c1.4,0,2.4,0.1,3.3,0.4c0.7,0.1,1,0.2,1.3,0.2c0.3,0,0.4,0.1,0.4,0.2c0,0.2-0.1,1.4-0.1,3.8
				c0,0.6-0.1,0.8-0.3,0.8c-0.2,0-0.3-0.2-0.3-0.5c0-0.4-0.3-1.4-0.5-1.8c-0.2-0.4-1.2-1.9-4.5-1.9c-2.5,0-4.4,1.5-4.4,4.2
				c0,2,1,3.3,4.4,6l1,0.8c4.2,3.3,5.2,5.6,5.2,8.4c0,1.5-0.6,4.2-3,5.9c-1.5,1.1-3.5,1.5-5.4,1.5
				C826.9,335.2,825.3,335,823.8,334.3z"/>
		</g>
		<g>
			<path class="st0" d="M861.3,324.3c0,3.4,0,6.3,0.2,7.8c0.1,1,0.3,1.8,1.4,2c0.5,0.1,1.3,0.1,1.6,0.1c0.2,0,0.3,0.1,0.3,0.2
				c0,0.2-0.2,0.3-0.6,0.3c-2,0-4.2-0.1-4.4-0.1c-0.2,0-2.4,0.1-3.5,0.1c-0.4,0-0.6-0.1-0.6-0.3c0-0.1,0.1-0.2,0.3-0.2
				c0.3,0,0.8-0.1,1.1-0.1c0.7-0.1,0.9-0.9,1-2c0.2-1.5,0.2-4.3,0.2-7.8v-15.1l-5.3,0.1c-2.2,0-3.1,0.3-3.7,1.1
				c-0.4,0.6-0.5,0.9-0.6,1.1c-0.1,0.3-0.2,0.4-0.4,0.4c-0.1,0-0.2-0.1-0.2-0.3c0-0.4,0.7-3.4,0.8-3.7c0.1-0.2,0.2-0.7,0.4-0.7
				c0.3,0,0.6,0.4,1.6,0.4c1,0.1,2.4,0.2,2.8,0.2h13.4c2.3,0,3.3-0.4,3.5-0.4c0.2,0,0.2,0.2,0.2,0.4c0,1.1-0.1,3.5-0.1,3.9
				c0,0.3-0.1,0.5-0.3,0.5c-0.2,0-0.3-0.1-0.3-0.6l0-0.4c-0.1-1.1-1-1.9-4.4-2l-4.5-0.1V324.3z"/>
		</g>
	</g>
	<g>
		<g>
			<path class="st0" d="M1031.2,207.8l-8,21.9h-67v-3.1c19.7-18,33.6-32.7,41.6-44.1c8-11.4,12.1-21.8,12.1-31.3
				c0-7.2-2.2-13.1-6.6-17.8c-4.4-4.6-9.7-7-15.8-7c-5.6,0-10.6,1.6-15,4.9s-7.7,8.1-9.8,14.4h-3.1c1.4-10.3,5-18.3,10.8-23.8
				c5.8-5.5,13-8.3,21.7-8.3c9.2,0,16.9,3,23.1,8.9c6.2,5.9,9.3,12.9,9.3,20.9c0,5.8-1.3,11.5-4,17.3c-4.1,9-10.8,18.6-20.1,28.7
				c-13.9,15.2-22.6,24.4-26.1,27.5h29.7c6,0,10.3-0.2,12.7-0.7c2.4-0.4,4.6-1.4,6.6-2.7c2-1.4,3.7-3.3,5.1-5.8H1031.2z"/>
		</g>
	</g>
</g>
</svg>
