<svg width="883" height="315" viewBox="0 0 883 315" fill="none" xmlns="http://www.w3.org/2000/svg">
<path d="M231.99 50.6059C226.931 53.6285 221.019 55.484 214.268 56.2022V47.6731L218.325 46.8801V18.3749H214.523V10.6539H218.325V0.26934H227.695V10.6539H230.733V18.3749H227.695V44.7403L232.005 43.1392V50.591L231.99 50.6059ZM247.422 48.7355V17.0432H243.366V49.2742C243.201 52.1172 244.459 53.449 247.168 53.2694H260.834C263.019 53.449 264.037 52.4763 263.872 50.3366V47.6731H272.224V51.9377C272.389 57.9679 269.695 60.9007 264.127 60.7211H242.363C236.451 60.9007 233.592 57.7883 233.757 51.399V17.0432H231.482V9.59148H233.757V3.9952H243.381V9.59148H247.437V0H256.807V9.59148H270.473V34.0864C270.638 40.2962 267.854 43.3188 262.121 43.1392H258.065V35.9419H259.082C260.594 36.1214 261.268 35.3284 261.103 33.5477V17.0432H256.792V48.7355H247.422Z" fill="white"/>
<path d="M295.14 59.3894V51.1296H316.155V0.269348H328.054V18.1056H349.309V26.096H328.054V51.1296H353.365V59.3894H295.155H295.14Z" fill="white"/>
<path d="M376.506 16.2502V9.05281H380.307V0.269348H389.423V9.05281H393.225V2.93282H401.322V0.269348H410.947V2.93282H417.024V0.269348H426.648V2.93282H434.746V9.86083H426.648V12.255H417.024V9.86083H410.947V12.255H401.322V9.86083H393.479V16.2502H389.677C390.351 20.8738 391.533 25.0336 393.225 28.7745V36.2262C395.754 34.281 397.7 30.8095 399.047 25.8417H408.417C408.252 26.5599 407.998 27.3529 407.654 28.2358H412.713V25.8417H422.577V28.2358H432.695V34.1014H422.577V37.0342H431.947V42.6305H422.577V45.8326H431.947V51.4289H422.577V54.3617H434.222V60.2273H405.364V62.3521H395.994V42.3761C394.976 42.9148 393.793 43.4385 392.446 43.9772V37.8572C390.935 36.2561 389.917 34.9244 389.408 33.862V62.3671H380.292V39.7276C379.11 42.5706 377.508 45.5932 375.488 48.7804V36.7948C377.853 30.2259 379.454 23.3877 380.292 16.2801H376.491L376.506 16.2502ZM394.976 25.0336V13.048H412.698V18.1056C412.863 22.8939 410.752 25.2132 406.366 25.0336H394.976ZM402.056 17.5819V20.5147H403.567C405.079 20.5147 405.753 19.976 405.588 18.9136V17.5819H402.041H402.056ZM405.349 34.1014V37.0342H412.683V34.1014H405.349ZM405.349 42.6305V45.8326H412.683V42.6305H405.349ZM405.349 51.414V54.3468H412.683V51.414H405.349ZM414.719 25.0486V13.3323H432.441V18.1206C432.605 22.9088 430.585 25.2282 426.364 25.0486H414.719ZM422.053 17.5969V20.5297H423.325C424.837 20.7092 425.51 20.1706 425.346 18.9286V17.5969H422.053Z" fill="white"/>
<path d="M457.362 10.6539V3.72587H465.714V0.269348H474.321V3.72587H481.909V10.6539H474.321V14.1104H481.909V19.4374C483.092 18.1954 484.274 16.0706 485.457 13.048H493.554C492.043 16.4297 490.261 19.168 488.241 21.3078C489.753 23.268 491.609 26.5449 493.809 31.1686H485.457C484.783 28.5051 483.601 25.9314 481.909 23.4475V32.5003C482.239 38.7101 479.709 41.6429 474.321 41.2838V45.0097H482.673V51.9377H474.321V62.3222H465.714V51.9377H456.853V45.0097H465.714V41.2838H458.125V14.1104H465.714V10.6539H457.362ZM463.693 20.2454V24.7793H465.714V20.2454H463.693ZM463.693 30.6299V35.1638H465.714V30.6299H463.693ZM476.356 20.2454H474.336V24.7793H476.356V20.2454ZM476.356 32.231V30.6299H474.336V35.1638C475.847 34.9842 476.521 34.0116 476.356 32.231ZM483.691 40.7601V33.5627H514.315V40.7601H503.433V53.015H515.587V60.4668H481.67V53.015H493.569V40.7601H483.706H483.691ZM483.182 10.6689V3.45653H514.824V10.6539H483.182V10.6689ZM490.77 21.5921C492.956 19.4673 494.737 16.6242 496.084 13.063H504.436C502.415 16.9684 500.559 19.8114 498.868 21.5921C500.38 23.3727 502.236 26.5599 504.436 31.1836H496.084C494.902 27.6372 493.135 24.4351 490.77 21.5921ZM501.398 21.3227C503.418 19.3775 505.11 16.6242 506.457 13.063H514.809C512.788 17.148 510.932 19.9012 509.241 21.3227C510.753 23.2829 512.609 26.5599 514.809 31.1836H506.457C505.439 27.8168 503.763 24.5249 501.398 21.3227Z" fill="white"/>
<path d="M541.272 1.60105H568.604V6.13493H550.388V7.73601H567.601V10.9382H550.388V12.2699H567.601V15.7264H550.388V17.0582H569.876V21.592H555.192C554.339 22.3103 553.082 23.1033 551.39 23.9862C550.537 24.3453 549.879 24.7044 549.37 25.0486C552.244 25.0486 555.701 24.869 559.743 24.5099C559.578 24.5099 559.743 24.5099 560.251 24.5099C559.743 23.8066 559.234 23.1781 558.74 22.6395H565.58C567.945 24.9438 569.636 27.6073 570.639 30.6299H563.305C563.14 29.9266 562.886 29.2981 562.542 28.7595C562.197 28.7595 561.614 28.8492 560.775 29.0288C553.516 29.5675 546.182 29.8219 538.758 29.8219V25.0336C539.431 24.6745 540.269 24.2405 541.287 23.7019C542.799 22.9986 543.907 22.2803 544.58 21.5771H537.74V17.0432H541.287V1.60105H541.272ZM538.743 39.952V34.0864H545.328V30.8843H554.938V34.0864H561.015V39.952H555.701C557.213 42.9746 558.994 45.8176 561.015 48.4811V54.8704C558.815 53.2694 556.794 51.6683 554.938 50.0822V62.0678H545.328V51.9526C543.308 54.0774 540.778 56.1274 537.74 58.0726V51.1446C540.614 47.7778 542.799 44.052 544.326 39.952H538.758H538.743ZM559.997 46.3414V40.7451C563.709 38.9794 565.82 35.5977 566.328 30.6299H576.447C574.591 39.159 569.112 44.3961 559.997 46.3414ZM590.112 48.7355C592.986 53.3591 594.827 57.6087 595.681 61.5142H586.056C586.056 60.9755 585.891 60.362 585.547 59.6437C579.126 60.347 571.373 60.7061 562.257 60.7061V54.5861C566.972 50.8603 570.265 46.5957 572.121 41.8075H583.003C580.473 46.9549 576.671 51.1296 571.612 54.3318C577.345 54.3318 581.476 54.242 584.021 54.0624C583.676 53.1796 583.003 51.9376 582 50.3366C581.656 49.6333 581.401 49.0946 581.236 48.7355H590.097H590.112ZM569.606 10.9082V6.11997C576.013 5.05757 580.398 3.27694 582.763 0.79303H594.663C590.112 7.0028 581.76 10.3845 569.606 10.9082ZM570.624 19.961V15.1728C576.866 14.2899 581.76 12.3297 585.308 9.30715H595.681C591.624 15.876 583.272 19.4224 570.624 19.961ZM570.624 29.2832V24.4949C579.395 23.0734 584.874 20.9486 587.074 18.1056H597.447C593.899 25.0336 584.963 28.7595 570.624 29.2981V29.2832ZM595.935 46.3264C585.981 44.3812 580.249 39.2338 578.722 30.8843H588.586C589.424 35.6725 591.879 38.9644 595.92 40.7451V46.3414L595.935 46.3264Z" fill="white"/>
<path d="M618.327 56.4716C624.569 56.1125 629.298 54.5263 632.502 51.6833H645.164C641.961 58.9555 633.01 62.427 618.342 62.0678V56.4716H618.327ZM674.516 2.12482V9.59151C675.025 16.1604 672.151 19.183 665.91 18.6443H620.856V2.12482H674.516ZM623.132 50.8603V20.7691H672.481V40.7451C673.319 48.1969 669.787 51.5786 661.854 50.8603H623.132ZM631.993 7.7211V13.3174H636.303V7.7211H631.993ZM661.36 26.6347H634.537V29.2982H661.36V26.6347ZM634.537 34.3558V37.2886H661.36V34.3558H634.537ZM658.83 44.7403C660.342 44.7403 661.195 43.9473 661.36 42.3462H634.537V44.7403H658.83ZM645.928 7.7211V13.3174H649.73V7.7211H645.928ZM677.061 56.4566V62.0529C662.377 62.412 653.442 58.9405 650.238 51.6683H662.901C666.104 54.5114 670.834 56.0975 677.076 56.4566H677.061ZM663.395 7.7211H659.099V13.3174H661.629C662.812 13.3174 663.395 12.5243 663.395 10.9232V7.7211Z" fill="white"/>
<path d="M4.94227 166.078C6.18461 166.078 7.3072 165.584 8.13043 164.776C44.2779 143.124 48.7533 121.607 49.3071 115.891C49.3969 114.948 49.382 114.424 49.382 114.424C49.382 106.434 42.9308 99.9698 34.9529 99.9698C28.1276 99.9698 22.4248 104.728 20.928 111.118C20.928 111.118 20.928 111.147 20.928 111.192C20.7184 112.075 20.6137 112.988 20.5837 113.931C19.506 121.068 15.3749 140.64 1.21526 158.865C0.691387 159.614 0.392029 160.511 0.392029 161.499C0.392029 164.043 2.44263 166.093 4.97221 166.093L4.94227 166.078Z" fill="white"/>
<path d="M115.705 201.376C121.378 201.376 125.973 196.768 125.973 191.096V190.318C125.973 184.632 121.378 180.039 115.705 180.039H61.97C55.8781 180.039 50.9387 184.991 50.9387 191.096C50.9387 196.783 55.5338 201.376 61.2066 201.376H115.72H115.705Z" fill="white"/>
<path d="M204.779 135.538C204.779 128.655 199.211 123.088 192.355 123.088H164.77C165.144 120.754 165.473 118.375 165.787 115.981C166.82 107.96 160.608 100.853 152.541 100.853C145.775 100.853 140.043 105.925 139.294 112.674C137.049 132.68 132.618 147.419 125.988 156.905C125.988 156.905 125.539 157.489 124.88 158.461C125.748 155.214 126.122 151.444 125.988 147.119V119.946C125.988 114.813 121.842 110.654 116.708 110.654C111.574 110.654 107.428 114.813 107.428 119.946V141.777C107.428 147.718 105.452 150.98 101.53 151.563V113.108C101.53 106.344 96.0519 100.853 89.3014 100.853C82.5508 100.853 77.0726 106.344 77.0726 113.108V151.563H71.1752V119.946C71.1752 114.813 67.0291 110.654 61.8951 110.654C56.7611 110.654 52.615 114.813 52.615 119.946V154.766C51.4475 150.74 48.4839 147.299 44.2779 145.728C37.2131 143.094 29.34 146.685 26.7056 153.778C26.3164 154.81 26.0919 155.858 25.9572 156.905C25.9572 156.905 22.8439 172.258 3.22096 186.817C2.51747 187.311 1.93372 187.999 1.61939 188.867C0.781191 191.126 1.91875 193.625 4.17891 194.463C5.28653 194.867 6.43906 194.807 7.44191 194.358C9.67213 194.089 11.7976 193.685 13.8482 193.206V291.56C13.8482 299.73 20.449 306.344 28.6065 306.344C36.764 306.344 43.3649 299.715 43.3649 291.56V175.849C46.4034 172.587 48.6036 169.534 50.0705 167.245C51.0135 166.108 51.7918 164.791 52.3306 163.325C52.4504 162.995 52.5402 162.666 52.645 162.352V172.916H102.398C110.855 173.23 117.037 171.031 120.944 166.377C119.552 170.701 119.537 175.46 124.177 178.243C124.207 178.258 124.221 178.273 124.251 178.303C124.82 178.692 125.344 178.931 125.838 179.081C125.898 179.096 125.943 179.126 125.988 179.156C125.988 179.156 126.018 179.156 126.063 179.156C128.622 179.709 130.194 177.375 130.194 177.375C132.439 205.252 138.052 229.567 147.062 250.321C143.036 258.282 127.589 276.357 120.869 284.797C119.327 286.742 118.444 289.136 118.444 291.62C118.444 301.361 130.283 306.119 137.034 299.087C142.018 293.894 156.582 278.767 160.564 273.44C165.353 279.081 181.504 295.765 186.997 301.421C193.358 307.96 204.449 303.441 204.449 294.313C204.449 291.979 203.641 289.735 202.189 287.924C195.738 279.844 178.735 260.257 173.196 251.219C185.56 227.502 191.457 193.102 190.904 148.032H192.355C199.211 148.032 204.779 142.451 204.779 135.583V135.538ZM160.549 213.826C157.54 202.229 155.654 187.565 154.876 169.834C154.711 166.078 151.643 163.115 147.901 163.115C151.822 158.97 154.921 153.928 157.181 147.987H166.461C165.892 175.864 163.931 197.8 160.564 213.811L160.549 213.826Z" fill="white"/>
<path d="M652.095 237.842H481.191C475.069 237.842 470.1 242.825 470.1 248.96C470.1 255.095 475.069 260.077 481.191 260.077H504.676C501.143 264.851 496.503 269.639 490.726 274.412C489.438 275.49 488.66 277.061 488.66 278.752V286.368C488.66 294.942 495.59 301.885 504.152 301.885H507.22C540.374 301.885 577.48 300.104 618.522 296.543C619.075 297.725 619.36 299.206 619.36 300.987V301.062C620.093 304.144 622.847 306.329 626.006 306.329H642.934C647.38 306.329 650.598 302.094 649.445 297.785C647.799 291.635 645.658 285.59 643.009 279.634C638.668 269.878 628.954 263.624 618.282 263.624H610.753C608.508 263.624 607.131 266.123 608.343 268.023L608.373 268.083C609.496 270.462 610.334 272.243 610.903 273.425C599.093 274.622 587.568 275.205 576.327 275.205C566.763 275.804 550.463 276.088 527.427 276.088C529.672 274.307 530.51 273.724 529.957 274.307C537.261 268.382 542.604 263.639 545.972 260.077H652.08C658.202 260.077 663.171 255.095 663.171 248.96C663.171 242.825 658.202 237.842 652.08 237.842H652.095Z" fill="white"/>
<path d="M487.807 188.029C496.653 188.029 503.822 180.847 503.822 171.973V155.11H543.008C543.008 155.11 543.023 155.11 543.038 155.11H543.323C544.7 155.155 550.133 155.828 550.193 163.863V184.004C550.193 193.102 557.557 200.478 566.628 200.478C575.698 200.478 583.062 193.102 583.062 184.004V163.998C583.062 155.828 588.556 155.155 589.948 155.11H590.232H590.262H629.433V171.973C629.433 180.847 636.603 188.029 645.449 188.029C654.295 188.029 661.464 180.847 661.464 171.973V144.83C661.464 139.697 657.318 135.553 652.199 135.553H583.092C583.422 129.088 587.418 127.787 589.289 127.547H643.653C649.295 127.547 653.861 122.968 653.861 117.312C653.861 111.656 649.295 107.077 643.653 107.077H488.69C483.047 107.077 478.482 111.656 478.482 117.312C478.482 122.968 483.047 127.547 488.69 127.547H543.921C545.792 127.787 549.789 129.088 550.118 135.553H480.996C475.877 135.553 471.731 139.712 471.731 144.83V171.973C471.731 180.847 478.901 188.029 487.747 188.029H487.807Z" fill="white"/>
<path d="M487.807 217.836C487.807 223.971 492.776 228.954 498.898 228.954H634.388C640.509 228.954 645.479 223.971 645.479 217.836C645.479 211.701 640.509 206.718 634.388 206.718H498.898C492.776 206.718 487.807 211.701 487.807 217.836Z" fill="white"/>
<path d="M876.448 273.051C858.906 262.262 848.339 246.087 844.776 224.495H869.399C876.748 224.495 882.705 218.524 882.705 211.147C882.705 203.77 876.748 197.8 869.399 197.8H805.141V189.69C805.141 179.186 796.654 170.672 786.177 170.672C775.699 170.672 767.213 179.186 767.213 189.69V197.8H703.794C696.444 197.8 690.487 203.77 690.487 211.147C690.487 218.524 696.444 224.495 703.794 224.495H726.739C723.147 245.608 712.52 261.783 694.888 273.006C691.58 275.1 689.634 278.811 689.634 282.732V282.866C689.634 291.186 698.106 296.812 705.769 293.58C737.397 280.278 755.882 257.324 761.27 224.674C763.336 225.033 767.183 226.634 767.183 233.458H767.213V286.428C767.213 296.932 775.699 305.446 786.177 305.446C796.654 305.446 805.141 296.932 805.141 286.428V224.674C806.803 225.003 810.62 226.515 812.057 233.458H812.101C819.181 261.454 837.038 281.52 865.746 293.58C873.41 296.797 881.882 291.186 881.882 282.866C881.882 278.871 879.861 275.115 876.463 273.036L876.448 273.051Z" fill="white"/>
<path d="M709.197 190.109C745.389 184.498 762.468 168.083 760.447 140.88V132.874H803.091C805.066 132.934 812.73 133.922 812.73 145.339V157.773C812.161 177.944 821.157 187.73 839.717 187.131H868.216C874.368 187.131 879.352 182.133 879.352 175.969V173.38C879.352 167.215 874.368 162.217 868.216 162.217H858.277C850.404 162.816 846.752 159.255 847.321 151.548V131.318C847.321 117.926 836.484 107.062 823.118 107.062H747.934C735.765 107.062 725.901 116.953 725.901 129.148V139.084C726.859 153.404 719.69 163.085 704.377 168.143C699.648 169.699 696.385 174.053 696.385 179.051C696.385 185.889 702.476 191.141 709.212 190.094L709.197 190.109Z" fill="white"/>
<path d="M515.587 178.243H536.857C541.018 178.243 544.401 174.861 544.401 170.686C544.401 166.512 541.018 163.13 536.857 163.13H515.587C511.426 163.13 508.043 166.512 508.043 170.686C508.043 174.861 511.426 178.243 515.587 178.243Z" fill="white"/>
<path d="M596.399 178.243H617.698C621.859 178.243 625.242 174.861 625.242 170.686C625.242 166.512 621.859 163.13 617.698 163.13H596.399C592.238 163.13 588.855 166.512 588.855 170.686C588.855 174.861 592.238 178.243 596.399 178.243Z" fill="white"/>
<path d="M515.587 200.478H536.857C541.018 200.478 544.401 197.097 544.401 192.922C544.401 188.747 541.018 185.365 536.857 185.365H515.587C511.426 185.365 508.043 188.747 508.043 192.922C508.043 197.097 511.426 200.478 515.587 200.478Z" fill="white"/>
<path d="M596.399 200.478H617.698C621.859 200.478 625.242 197.097 625.242 192.922C625.242 188.747 621.859 185.365 617.698 185.365H596.399C592.238 185.365 588.855 188.747 588.855 192.922C588.855 197.097 592.238 200.478 596.399 200.478Z" fill="white"/>
<path d="M405.034 280.008C369.815 270.148 348.56 256.98 341.271 240.505H399.227C406.337 240.505 412.099 234.729 412.099 227.607C412.099 220.484 406.337 214.709 399.227 214.709H337.05V194.987H353.919C360.041 194.987 366.148 194.703 372.27 194.119C386.444 192.772 397.446 181.55 399.182 167.679C399.212 166.572 398.673 165.779 398.673 165.779C397.64 164.357 396.113 164.462 396.113 164.462C378.945 167.589 363.723 169.175 350.536 169.175H247.886C240.777 169.175 235.014 174.951 235.014 182.074C235.014 189.196 240.777 194.972 247.886 194.972H290.051C291.697 195.107 296.113 196.079 296.577 202.693V214.694H234.4C227.29 214.694 221.528 220.469 221.528 227.592C221.528 234.715 227.29 240.49 234.4 240.49H292.356C285.605 258.027 264.471 271.24 228.982 280.173C223.623 281.52 219.851 286.353 219.851 291.904V292.054C219.851 299.311 226.198 304.982 233.382 304.069C272.329 299.102 300.139 286.203 316.814 265.419C335.314 284.931 362.945 297.65 399.706 303.561C407.07 304.743 413.776 299.117 413.776 291.635C413.776 286.233 410.213 281.46 405.019 280.008H405.034Z" fill="white"/>
<path d="M314.299 149.588C314.299 156.426 321.094 161.215 327.486 158.836C340.523 153.987 349.608 145.668 354.757 133.877H355.476C356.508 133.907 358.484 134.116 360.385 135.149C361.493 135.942 362.6 137.124 362.81 138.86C362.81 138.86 366.312 149.334 367.734 152.805C367.794 152.94 367.839 153.075 367.899 153.209C368.004 153.449 368.093 153.658 368.153 153.778C370.743 159.135 376.206 162.831 382.552 162.831C391.398 162.831 398.553 155.648 398.553 146.79C398.553 141.493 395.979 136.81 392.027 133.877H400.993C407.115 133.877 412.084 128.894 412.084 122.759V121.876C412.084 115.741 407.115 110.758 400.993 110.758H361.597C361.612 110.669 361.627 110.549 361.642 110.429C361.642 110.429 361.642 110.414 361.642 110.399C361.672 110.025 361.702 109.651 361.702 109.262C361.702 100.733 354.802 93.8199 346.3 93.8199C337.798 93.8199 331.542 100.134 330.958 108.125C330.913 108.334 330.868 108.544 330.838 108.753C329.416 126.335 325.091 135.164 317.876 141.239C315.676 143.094 314.299 145.728 314.299 148.601V149.573V149.588Z" fill="white"/>
<path d="M232.26 160.571C246.824 155.304 256.747 146.401 262.016 133.877H264.471C265.504 133.907 267.479 134.116 269.38 135.149C270.488 135.942 271.595 137.124 271.805 138.86C271.805 138.86 275.308 149.334 276.729 152.805C276.789 152.94 276.834 153.075 276.894 153.209C276.999 153.449 277.089 153.658 277.164 153.778C279.753 159.135 285.216 162.831 291.563 162.831C300.409 162.831 307.563 155.648 307.563 146.79C307.563 141.493 304.989 136.81 301.037 133.877H304.884C311.006 133.877 315.975 128.894 315.975 122.759C315.975 116.624 311.006 111.641 304.884 111.641H268.677C268.707 111.447 268.737 111.237 268.752 111.073V111.043C268.811 110.459 268.856 109.861 268.856 109.262C268.856 109.262 268.856 109.247 268.856 109.232C268.856 109.038 268.856 108.813 268.841 108.619C268.841 108.589 268.841 108.559 268.826 108.529C268.437 100.359 261.717 93.8349 253.454 93.8349C245.192 93.8349 238.052 100.748 238.052 109.277C238.052 109.501 238.082 109.726 238.082 109.95C236.75 127.068 231.586 136.376 222.561 143.797C220.301 145.653 218.998 148.436 218.998 151.369C218.998 158.222 225.809 162.921 232.245 160.601L232.26 160.571Z" fill="white"/>
<path d="M130.194 255.124C130.194 249.558 123.937 246.296 119.387 249.498L119.237 249.603V224.674C119.237 214.753 111.214 206.703 101.306 206.703H76.0099C65.4276 206.703 56.836 215.307 56.836 225.916V253.853C57.315 265.314 54.995 282.103 49.861 288.986C48.424 290.917 47.5559 293.206 47.5559 295.615C47.5559 304.803 58.4525 309.785 65.2629 303.621C77.8809 292.189 83.7782 278.138 82.97 261.484V234.251H82.9849C83.0897 231.303 85.4846 228.954 88.4482 228.954C91.4119 228.954 93.8067 231.303 93.9115 234.251H93.9265V267.933C93.9265 280.517 108.79 287.191 118.16 278.811C119.177 277.914 120.15 277.001 121.123 276.088C126.886 270.626 130.194 263.07 130.194 255.139V255.124Z" fill="white"/>
<path d="M455.461 120.35C455.461 122.011 455.042 123.627 454.189 125.168H451.195C452.288 123.402 452.827 121.831 452.827 120.455C452.827 119.617 452.662 118.973 452.333 118.494C452.004 118.031 451.57 117.791 451.016 117.791C450.357 117.791 449.758 118.225 449.205 119.108C449.04 119.347 448.576 120.29 447.813 121.936C447.139 123.343 446.391 124.345 445.567 124.974C444.744 125.587 443.756 125.901 442.604 125.901C441.107 125.901 439.91 125.378 438.997 124.315C438.083 123.253 437.62 121.891 437.62 120.2C437.62 119.108 437.739 118.165 437.994 117.372C438.233 116.579 438.652 115.696 439.251 114.724H442.559C441.017 116.549 440.239 118.27 440.239 119.886C440.239 120.694 440.418 121.352 440.778 121.846C441.137 122.34 441.601 122.594 442.2 122.594C443.008 122.594 443.652 122.16 444.16 121.293C444.565 120.574 445.044 119.647 445.597 118.509C446.226 117.163 446.945 116.16 447.768 115.487C448.591 114.828 449.564 114.484 450.657 114.484C452.123 114.484 453.276 115.023 454.144 116.085C455.012 117.148 455.446 118.569 455.446 120.32L455.461 120.35Z" fill="white"/>
<path d="M449.713 136.914C449.713 137.797 449.504 138.545 449.085 139.144C448.666 139.757 448.097 140.206 447.393 140.506C448.202 141.149 448.785 141.792 449.16 142.436C449.534 143.079 449.713 143.782 449.713 144.546C449.713 145.758 449.309 146.73 448.516 147.478C447.723 148.227 446.645 148.586 445.313 148.586H437.874V145.578H444.804C445.612 145.578 446.241 145.413 446.705 145.069C447.169 144.725 447.408 144.231 447.408 143.588C447.408 142.66 446.81 141.777 445.597 140.924H437.874V137.917H444.849C445.642 137.917 446.271 137.737 446.72 137.378C447.169 137.019 447.393 136.54 447.393 135.927C447.393 135.433 447.244 134.984 446.959 134.58C446.675 134.176 446.211 133.742 445.582 133.263H437.859V130.256H449.474V133.263H447.842C448.471 133.817 448.935 134.371 449.234 134.924C449.534 135.493 449.684 136.136 449.684 136.869L449.713 136.914Z" fill="white"/>
<path d="M449.489 156.501H437.874V153.494H449.489V156.501ZM454.862 154.99C454.862 155.454 454.698 155.858 454.354 156.187C454.009 156.516 453.605 156.696 453.141 156.696C452.677 156.696 452.273 156.531 451.929 156.202C451.57 155.873 451.405 155.469 451.405 154.99C451.405 154.511 451.585 154.137 451.929 153.793C452.288 153.449 452.692 153.284 453.141 153.284C453.62 153.284 454.024 153.449 454.369 153.793C454.698 154.137 454.877 154.526 454.877 154.975L454.862 154.99Z" fill="white"/>
<path d="M455.237 164.611H437.859V161.604H455.237V164.611Z" fill="white"/>
<path d="M449.714 174.712C449.714 176.388 449.16 177.719 448.067 178.707C446.974 179.679 445.463 180.173 443.532 180.173H443.068V172.078C442.035 172.198 441.227 172.587 440.673 173.23C440.119 173.874 439.835 174.757 439.835 175.864C439.835 176.582 439.954 177.27 440.209 177.944C440.463 178.602 440.838 179.29 441.361 180.009H439.086C438.128 178.677 437.649 177.046 437.649 175.131C437.649 173.32 438.203 171.854 439.311 170.716C440.418 169.579 441.885 168.996 443.711 168.996C445.537 168.996 446.915 169.519 448.037 170.582C449.16 171.644 449.714 173.021 449.714 174.712ZM444.924 177.345C445.777 177.27 446.436 177.016 446.915 176.582C447.394 176.163 447.633 175.58 447.633 174.831C447.633 174.083 447.408 173.47 446.944 173.006C446.495 172.542 445.822 172.258 444.924 172.123V177.345Z" fill="white"/>
<path d="M455.237 204.713H452.617V196.962H448.052V204.384H445.433V196.962H440.493V204.878H437.874V193.655H455.252V204.713H455.237Z" fill="white"/>
<path d="M449.489 211.237L442.753 213.975L449.489 216.654V219.856L437.649 214.694V213.242L449.489 208.005V211.237Z" fill="white"/>
<path d="M449.714 228.43C449.714 230.106 449.16 231.438 448.067 232.425C446.974 233.398 445.463 233.892 443.532 233.892H443.068V225.796C442.035 225.916 441.227 226.305 440.673 226.949C440.119 227.592 439.835 228.475 439.835 229.582C439.835 230.3 439.954 230.989 440.209 231.662C440.463 232.32 440.838 233.009 441.361 233.727H439.086C438.128 232.395 437.649 230.764 437.649 228.849C437.649 227.038 438.203 225.572 439.311 224.435C440.418 223.298 441.885 222.714 443.711 222.714C445.537 222.714 446.915 223.238 448.037 224.3C449.16 225.362 449.714 226.739 449.714 228.43ZM444.924 231.063C445.777 230.989 446.436 230.734 446.915 230.3C447.394 229.881 447.633 229.298 447.633 228.55C447.633 227.801 447.408 227.188 446.944 226.724C446.495 226.26 445.822 225.976 444.924 225.841V231.063Z" fill="white"/>
<path d="M449.713 244.68C449.713 245.084 449.624 245.473 449.444 245.862C449.264 246.251 448.95 246.7 448.531 247.209L445.852 246.132C446.51 245.264 446.855 244.56 446.855 244.022C446.855 243.558 446.675 243.094 446.331 242.645C445.971 242.196 445.507 241.822 444.939 241.553C444.355 241.283 443.771 241.149 443.202 241.149H437.904V238.141H449.519V241.149H446.555V241.194C447.678 241.747 448.486 242.286 448.98 242.855C449.489 243.408 449.728 244.022 449.728 244.68H449.713Z" fill="white"/>
<path d="M449.489 252.281L443.247 254.99L449.489 257.728V260.96L432.006 253.06V249.828L439.999 253.464L449.474 249.019V252.281H449.489Z" fill="white"/>
<path d="M449.22 272.108H455.237V275.115H437.859V269.818C437.859 267.993 438.398 266.527 439.46 265.434C440.523 264.342 441.99 263.788 443.831 263.788C444.924 263.788 445.927 264.043 446.825 264.551C447.723 265.06 448.426 265.763 448.935 266.661C449.444 267.559 449.698 268.517 449.698 269.564C449.698 270.357 449.534 271.21 449.22 272.123V272.108ZM440.194 270.522V272.108H446.929C447.259 271.494 447.408 270.836 447.408 270.178C447.408 269.175 447.094 268.367 446.45 267.768C445.807 267.17 444.969 266.871 443.936 266.871C441.436 266.871 440.194 268.098 440.194 270.537V270.522Z" fill="white"/>
<path d="M449.714 284.108C449.714 285.575 449.399 286.697 448.756 287.475C448.127 288.253 447.229 288.642 446.106 288.642H440.418C439.984 288.642 439.76 288.822 439.76 289.166C439.76 289.316 439.82 289.525 439.954 289.78C440.089 290.049 440.224 290.273 440.404 290.453H438.637C437.979 289.405 437.649 288.433 437.649 287.565C437.649 287.026 437.739 286.607 437.919 286.323C438.098 286.039 438.428 285.829 438.892 285.709C438.069 284.557 437.649 283.405 437.649 282.238C437.649 281.415 437.934 280.712 438.503 280.113C439.071 279.515 439.745 279.23 440.523 279.23C441.526 279.23 442.319 279.53 442.903 280.113C443.487 280.697 443.996 281.729 444.415 283.196L445.133 285.635H445.672C446.81 285.635 447.379 284.961 447.379 283.6C447.379 282.911 447.214 282.223 446.9 281.535C446.57 280.846 446.091 280.218 445.463 279.664H448.217C449.22 280.906 449.729 282.403 449.729 284.108H449.714ZM440.987 282.268C440.568 282.268 440.224 282.403 439.969 282.672C439.715 282.941 439.58 283.27 439.58 283.66C439.58 284.318 439.895 284.976 440.508 285.65H443.562C443.277 284.812 442.993 284.153 442.738 283.674C442.484 283.196 442.215 282.852 441.96 282.627C441.691 282.403 441.376 282.283 440.987 282.283V282.268Z" fill="white"/>
<path d="M449.489 295.765L443.247 298.473L449.489 301.212V304.444L432.006 296.543V293.311L439.999 296.947L449.474 292.503V295.765H449.489Z" fill="white"/>
<path d="M443.442 308.693C445.433 312.015 449.055 314.08 452.902 314.274C456.973 314.484 460.924 312.524 463.589 309.531C464.262 308.768 463.155 307.646 462.466 308.409C460.116 311.042 456.763 312.793 453.171 312.703C449.788 312.614 446.54 310.803 444.804 307.885C444.28 307.017 442.918 307.81 443.442 308.678V308.693Z" fill="white"/>
<path d="M464.442 298.982C464.442 300.703 463.05 302.109 461.314 302.109C459.577 302.109 458.185 300.703 458.185 298.982C458.185 297.261 459.577 295.855 461.314 295.855C463.05 295.855 464.442 297.261 464.442 298.982Z" fill="white"/>
</svg>
