<svg width="490" height="160" viewBox="0 0 490 160" fill="#FFF" xmlns="http://www.w3.org/2000/svg">
<path d="M476.2,48.2c6.4,14.3,13.5-8.3-5.3-18c-1.3,0.4-1.2,2.4-0.6,2.8C471.9,35.1,473.9,40.2,476.2,48.2z M471.3,30.8
	L471.3,30.8L471.3,30.8L471.3,30.8z M475.6,87.1c-1.7-3.7-5.1,5.4-6,6.2h-8.4c0.2-13.7,2.1-4.5,4.3-11.7c0.2-4.8-6.2-4.4-9.4-5.4
	c-2.8,0.1-0.8,14.6-1.8,17.1c-9.4,0.8-12-4.4-10.2,4.7c0.2,1.1,1.2,1,1.8,0.6l4-0.9h4c-2.8,18.8-3.2,25.4-13.5,36
	c-0.5,0.4-0.7,1.2-0.6,2.3c0.3,1,1.1,1.1,1.9,0.7c12.8-5.8,17.1-23.4,18.9-39h9.6c-1.2,16,1.3,21.5-5.7,28.4c-0.6,0-1.9-0.3-4.4-1.7
	c-1.2-0.5-1.7,0-2.1,1.1c0.3,4.3,5.1,5.5,4.5,13.6c15.9-3.2,13.4-18.8,15.3-36.9c0-0.2,0.1-0.8,0.2-0.8
	C485.7,99.5,477.7,90.5,475.6,87.1z M486.4,83.3c-3.9-2-7.8-6.4-11.4-12.9c2.6-0.5,12.5,2,9.1-4c-5-9-4.3-12.1-9-0.4h-2.3
	c-1.9-4.3-3.5-8.9-4.8-13.8h5.7c4.7-1-2.3-9-2.8-11.3c-2-3.9-4.4,6.2-5.2,6.9H462c1.2-5,1.7-10.3,2.6-15c4.3,0.1,4.9-6.7,0.7-7.6
	c-0.4,0-7.4-2.7-7.6-2c-1.7,8.6-1.1,18.4-2.3,24.6c-1.4,0.3-6.3-1.4-7.5-0.6c-0.2,7.8,0.6,5.9,6.8,4.9c-0.9,4.6-1.8,9.3-3.2,13.9h-6
	c-1,0.1-6.3-1.7-6.8-0.3v-9.5c3.2,4.2,11.8-14,13.5-19.7c1.8,0.4,3-0.4,3.3-2.4c0.5-4.5-4.9-4.6-8.1-6.5c-2.2-0.2-1.1,3.2-1.7,4.5
	c-0.9,8.4-3.4,15.9-7.1,22.7V38.4c1.2-0.7,2.6-1.2,2.9-2.5c0.5-1.4,0.1-3.2-1.4-5.5c-0.6-0.6-3.7-6.7-4.7-6.6
	c-1-0.4-4.1,5.4-4.7,5.9c-0.9,0-4.4,0-5.2-0.1c-2.2-1.2-6.7-7.2-7.2-3.4v41c0.7,30.4-2.8,52.2-3.7,69.6c6-0.2,8.8-32.4,10-47.1h7
	v34.6c-0.2,2.7-2.5,1.1-4.9,0.5c-1.9-0.9-2.5,2.7-1.1,3.4c2.4,2.2,3.8,5.8,3.9,10c5.7-0.4,9.1-4.8,9.2-9.5V95.8
	c7.5-3.9,12.2-13.9,17.3-25.1h13c3.5,9.6,5.8,17.8,11.3,22c0.2,0,0.7-0.2,0.9-0.7c0.8-2.6,2.3-4.2,4.8-5.1
	C487.4,86.5,487.8,83.9,486.4,83.3z M425.3,58.3V34.2c0.9-0.4,5.2-0.2,6.2-0.3v24.4L425.3,58.3L425.3,58.3z M431.5,62.6v22.5h-6.7
	c0.2-7.2,0.5-15,0.5-22.5H431.5z M467.8,65.9h-10.3c1.4-4.5,2.6-9.1,3.6-13.8h3.7C465.6,56.9,466.6,61.6,467.8,65.9z M439.2,70.5
	c0.2,1.8,5.1-0.4,6.2-0.2h4.6c-3.3,9.1-7.1,16.5-11.4,21.9V66.7C438.8,68,439,69.3,439.2,70.5z M307.8,83.1
	c0.2,12.2-18.9,12.5-18.7,0C289,70.6,307.8,70.9,307.8,83.1 M236.5,45.9c-0.7,0.1-0.9,0.7-1.3,1.1l0.1,0.1c0.4-0.4,0.9-0.7,1.3-1.1
	C236.6,46,236.6,45.9,236.5,45.9 M228.7,116.6c-0.7,0.2-0.3,0.6,0,1C229.2,117.2,229.2,116.9,228.7,116.6 M233.1,104.4
	c1.3,0.3,1.7-0.2,1.4-1.7C233.7,102.7,233.2,103.3,233.1,104.4 M233.6,74.8c0-1.1-1.6-0.9-1.5,0.3C232.6,75.7,233.6,75.8,233.6,74.8
	 M260,124.9c0.3-0.9,0.8-1.9-0.1-2.5C259.9,123.6,260,125,260,124.9 M275,89c-1.2-1.3-2.2-2.8-4-3.2c-1.7-2.1-3.8,0.8-6-0.1
	c-1.9,0.8,2.3,1.6-2.4,3.3c-2.2-6.6,1.5-5.7,3.6-9.8c1.4-0.5,2.3-2.4,1.6-3.8c-0.1,0-0.2,0-0.3,0c-0.4,0.7-0.8,1.5-1.2,2.2
	c-3.6-1.5,3-2.7,0.9-4.7c-1.2-1.1-3.9,1-4.3-0.8c0.3-0.7-0.3-3.1,1-2.3c0.1,0.1,0.4,0,0.4-0.1c-0.8-2.1,2.7-3.9-0.4-5.3
	c-0.4-0.2-0.6-0.4-0.4-0.9c0.4-1.5-1.3-2.9-2.3-3.8c-0.9,0.1-1.6,1.5-1.9,2.2c-2.9,1.6-0.6,4.7-0.5,7c-0.3,1.6,0.5,3.7-0.5,5.1
	c-7,3-11,9.9-17,14.3c-0.4-2.3,0.3-4.8-0.9-6.8c-0.4-0.5-0.8-1.2-0.1-1.9c0.8-3.2,3.3-5.2,5-7.9c0.3-0.7,1.7,0.3,1.5-0.8
	c-0.3-2.8,1.2-5.5,3.5-7c2.9-2.1,6.9-2.2,9.3-4.8c4.2-3.9,2.2-11-3.6-6c-0.2-0.2-0.3-0.4-0.4-0.4c-0.5,0.5-0.7,1.9-1.5,1.2
	c-0.8-0.4-0.2-0.9-0.1-1.6c-0.5,0.5-1.3,0.9-1.3,1.6c0.5,1.5-1.1,2-1.4,3.1c0.8,3.6-1.8,5.7-4.2,8c-1.7,1.2-1.2-1.8-1.3-2.7
	c-0.3-2.1,1.8-2.7,3.2-3.8c-0.3-0.2-0.5-0.4-0.5-0.4c0.3-1.3,0.2-1.6-1.2-1.6c-1.9-5.2,2.7-10.4,7.9-10.8c2.6,0.1,7.9-1.8,2.9-3.2
	c0.4-0.5,1-0.7,1.6-0.9c-0.4-0.7,0.1-1.2,0.5-1.6c0.8-1.6-6.3-0.8-7.6-1.2c0.7,1.5,0,1.6-1.2,2c-1.6,1.1-2.1,0.2-1.7-1.4
	c0-0.5,0.3-0.7,0.7-0.8c0.8-0.2,1.6-1.2,2.3-1.3c0.9,0.3,0.5-0.8,0.9-1.1c0.7-0.7,1.8-1.2,2.4-1.9c-0.4-0.9,0.8-1.1,0.7-1.9
	c-0.3-0.8,0.9-1.1,0.8-2c0.1-0.6-1.4-1.5-0.2-1.8c1.6-2.4-3.2-3.6-4.7-2c-0.4,0.2-0.5,0.2-0.7-0.1c-0.5-1.3-1.9-1.7-2.5-2.8
	c1-0.4,2,0.7,3,0.8c0.7-5.1-2.5-2.2-3.9-4.4c-0.6-1.9-0.8-3.3-2.9-1.4c0.7,0.7,1.5,1.4,2.4,1.9c-1.7,1.2-2.9,2-4,3.7
	c-0.7,0.4-1.7,0.4-1.9,1.5c-0.7-0.8-0.8-1.3-0.2-2.2c-0.3-0.1-0.5-0.2-0.8-0.4c-0.4,1.3,0.4,2.7,0.5,4.1c0.3-0.3,0.2-0.7,0.3-1.1
	c2.5-0.4,3,6,0.8,6.6c-2.5,0.8-8.4,5.4-8.5,3c-0.1-1.3-2.8-2.7,0-2.5c-1.2-1.9-5.5-2.8-5.3,0.5c-0.1,0.9-1.8,0.7-2.3,1.4
	c-1.6,2.3,0.2,5.6,2.1,7.2c1.6,0.5,3.4,0.2,4.7,1.7c1.3,1.2,1.9-0.9,3-0.6c0.7,0.2,1.2,0,1.2-0.8c0.3-1.7-0.8-3.9,1-4.9
	c1.2-0.9,4.4-3.2,5.2-0.9c0.3,1.9-1.8,3-2.4,4.8c-1.3,3.8-4.8,6-7.9,8.4c-1.1-0.5-1.9-0.3-2.2,0.8c-1.1,2.7-4.9,2.4-6.6,4.6
	c-2.8,1.8,1.7,5.3,4,4.8c3.2,0.6,4.8-3,7.6-4c-0.4-0.2-1,0.4-1.5,0.6v-1c-0.6,0.5-1.3,1.5-1.8,0.7c-1.5,0.3-4.1,3-4.7,0.5
	c1.3-0.1,3-1.3,3.6-2.3c0.1-1,1-0.6,1.7-0.7c2.6-1.1,0.6,0.6,1,1.4c1.8-2.9,5-4.5,7.9-6c0.6,1.1-2.1,3.9-2.7,3.9
	c0.1-0.2,0.2-0.4,0.4-0.8c-2.7,1-5.1,1.9-0.8,1.2c-2.4,2.2,0.8-0.2,2-0.6c-0.2,2.2-0.4,5.6-1.8,7.3c-0.3-0.9-1.7-0.6-2-1.5
	c-6-0.1-1.1,2.2-5.3,4.9c-1.1,1-0.2,2.5,0.1,3.6c0,1.8,0.7,2.8,2.4,3.6c0.9,1.4,4.7-3,5.8-3.7c1.5,2.8,1.1,3.5-1.5,5.1
	c-1.9,1.1-2.7,3.3-4.2,4.7C230,79.8,228.6,86,225,90c-1.1,1.2-3.1-0.4-4.5-0.3c-1.9,0.1-3.6-1.1-5.4-0.5c-0.2,0.1-0.7-0.2-0.7-0.3
	c2.5-9.1-5.4-8.8,3.1-13c0.6-0.4,0.5-0.7,0.1-1.4c-0.7-3.4,3.3-5.9,5.6-7.7c1.3-0.8-1.7-1.8-2-2.7c-1.7-2.9-4.8-5.8-8.4-4.2
	c-1.8,0.4-0.1-2.2-0.4-3c0.1-3.2,3-3.8,5.1-5.3c3.2-3.3-2.5-7.5-5.7-6.7c-2.6,0.2-1.6-5-2.1-6.8h-0.1c-0.1,0.3-0.1,0.6-0.2,0.9
	c-0.9-0.5-1-1.9-0.2-2.9c0.1,0.5,0.2,0.9,0.3,1.3c0.5-1.8-0.6-1.7-1.1-3.1c-0.1-1-0.2-1.2-1.2-1.3c-7.1-2.1-11.8,11.5-7.8,16.3
	c1.8-0.2,3.6-1,5.3-1.4c1,1.8-2.5,2.8-3.5,3.9c-1.6,1-3.2,1.8-3.1-0.9c-0.7,0.8-1,1.6-1.7,2.3c-1,1-3.4,1.3-2.8,3.1
	c0.3,1.2,1.3,3.1,2.6,3.1c0.4-0.5,0.8-0.3,1.3-0.1c1.7-0.6,4-1.6,4.5-3.5c0.3-0.5,0.7-0.2,0.7,0.4c1.6-0.4,2,0.4,1.9,1.9
	c1.7-2.8,1.2,1,1.4,2.2c0.3,1.5-0.3,2.4-1.6,3.1c-1.7,1.3-3-1.2-4.7-1.4c-1.3-0.3-1.2-0.9-1.3-2.1c-4.9,1.5-6.3,5.7-8.2,9.9
	c-2.8,4.9-8,9.9-7.5,15.7c1.9,6.4-14.3,32.7-3.4,31.6c0.4-1,1.5-1.4,1.4-2.7c-0.3-9.9,4.5-19.6,7-29c1.1-2.7,11.6-14.7,10.4-5.9
	c-1.6,1.6-10.9,6.2-5.6,7.8c0.6-0.3,0.8,0,1.1,0.4c1.4,2.4,4.5,1.9,5.2-0.4c1.4-2.1,4.3-2.7,6.2-4.3c7.6-6.2,2.2,5.6,3.7,9.4
	c0,0.3,0.1,0.7-0.5,0.7c-2.1-0.2-0.6-1.9-0.5-3c-0.1,0-0.2-0.1-0.3-0.1c-1.6,5.1-2.4-1.5-7.3,2c-4.1-1.8-3.9-3.9-9.3-1
	c-1.2,6.3,0.8,12.5,6.4,16.4c0.7,0.6,0.9-0.2,1.4-0.4c1.2,0,3.3,0.9,3.9-0.5c-0.4-0.9,0.5-2.5,1.3-2.6c2.7-0.1-0.2-5.4,3.7-5.1
	c2.1,0.5,2,4.3,4.2,5.3c0.1-0.1,0.2-0.1,0.2-0.1c-0.3-0.7-0.5-1.4-0.8-2.2c1.7,0.6,2.7,2.1,4.4,2.4c-1.2-2.9-0.8-2.3,1.6-4.1
	c1.1-0.2,1.6,0.4,2.1-1c0.6-1.8,2-3,3.3-4.4c2.2,1.5-1.2,5.3,1,5.5c7.2,0.9,7.2-9.1,12.7-11.8c-4.1,18.6-18.4,14.9-15,21.6
	c1.2,0,1.2,3.6,2.6,1.7c0.9-2.9,2.6,0.3,4.3-2.5c1-1.4,1.8,1.7,2.5,2.3c0.1,0,0.2,0,0.3-0.1c0.2-0.6,0.4-1.1,0.6-1.8
	c2.2,2.5,1.8-2.8,1.9-3.9c-1.4,0.6-0.6,2.3-1.7,3.4c-0.4-7.2,7.5-11.1,10.6-17l0,0l0,0c-0.3,0.1-0.6,0.3-1.2,0.5
	c0.5-1.2,1.6-1.6,2.2-2.4c0.4,0.4-0.8,1.4-1.1,1.9l0,0l0,0c2.8-1.3,4.3-4.8,6.9-6.2c-0.8,3.6-3.7,7.1-3.3,11c0.8,2.1-1.5,2.4-3,2.2
	c-2.3,0.7,0.4,4.1,1.8,4.7c4.4,2.7,8.7-0.6,13-1.4c0.2,8.8-2,19.7-2.1,30.8c0.7,3.2-3.6,18.9,2.1,10.3v2.4c0.1,0,0.2,0,0.2,0
	c0.2-1.1,0.3-2.1,0.5-3.3c-0.5-0.4-0.5-1.6-1.5-0.9c-0.3-0.7,0-1.6,0.6-2.3c-0.1,0.5-0.1,0.8-0.2,1.5c2.2-2.8,1.1-7.8,1.8-11.3
	c0.4-1.5-1-0.5-1.8-1.2c-0.1-0.4,0.3-0.4,0.6-0.3c2.3,0.2,1.3-3.8,1.6-5.2l0,0c0.4-0.7,0.1-1.3,0.2-2.1c-0.1,0.5-0.2,1.1-0.3,1.6
	c0-1.6-0.1-3.1,0.3-1.6c1-5.4,1-11.1,1.7-16.7c0-1.2,0,3.1,0.4,2c0.3-3.8-0.3-7.7,3.7-9.5c1-1.3,2.9-0.8,3.9-2
	C270.5,91.7,276.4,91.6,275,89z M263.1,76.8c0.1-0.1,0.4,0.3,0.6,0.4c-0.3,0.3-0.5,0.5-0.9,0.9C262.2,77.5,262.5,77.2,263.1,76.8
	 M249.7,36.1c0.6-0.8,0.9-2,1.7-2.6c0.4,1.1-1,2.2-1.6,3.2c-0.1,0-0.1,0-0.2,0C249.6,36.5,249.6,36.2,249.7,36.1 M256.1,42.8
	c0.6,0.2,0.5,0.9,0,1.1c-1.2,0.5-1.4-0.8-2.3-1.4C254.6,42.6,255.4,42.6,256.1,42.8 M248.6,46.3c1.1-2.7,4-4.8,6.1-1.9
	c-2,1.1-4.1,2.4-6.3,2.8C248.5,46.9,248.5,46.6,248.6,46.3 M243.9,40.5c-0.1-0.5-0.2-1-0.3-1.6C244.2,39.2,244.4,39.9,243.9,40.5
	 M241.3,45.5c-0.5,0.4-0.9,1-1.5,1.1c-0.1-0.6,3.8-4.2,3.9-3.3C243.7,45,242,44.4,241.3,45.5 M205.9,73.1c-0.3,0.3-0.3,1-0.5,1.3
	c-0.4,0.1-0.9,0.4-1.2,0.2c-1.6-0.7,0.2-1.6,0.4-2.6c0.4-1.2,2-1,2,0.3C206.4,72.6,206.1,72.8,205.9,73.1 M199.6,101.1
	c-1.6,1.7-3.6-2.7-3.4-4.2C198.8,89.4,202.2,96.6,199.6,101.1 M211.6,70.8c-1.9-2.3,1.7-4.5,3.7-4.6
	C214.8,68.1,213.6,69.9,211.6,70.8 M212.9,86.5v2.3c-0.1,0-0.1,0-0.2,0c-0.4-2.4,0.1-5.1,0.9-7.3C214.5,81.7,214.3,87.3,212.9,86.5
	 M217.3,94.7c-0.8,1.2-1.8,2.4-2.6,3.5c-0.1-0.1-0.2-0.1-0.3-0.1c-0.9-2.1,0-4.2-0.3-6.4C215.2,92.3,217.8,93.2,217.3,94.7
	 M258.2,91.6c-0.2,1-1.3,1-1.9,1.6c-0.1,0-0.2,0-0.3,0c-0.3-1.5,1.2-3.1,2.1-4.2C258.6,89.9,258.4,90.8,258.2,91.6 M261.4,70.2
	c0,0.2-0.4,0.3-0.6,0.4c-0.1-0.1-0.2-0.1-0.2-0.1c-0.1,0.6-0.2,1.1-0.3,1.7c-0.1,0-0.1,0-0.2,0c-0.4-1.2,0.2-2.6-0.5-3.9
	c-0.2-0.8,0.1-1.1,0.9-1.3C261.8,67,261.6,69.3,261.4,70.2 M238.3,44.3c-0.5,0.5-1,0.9-1.6,1.4C237.6,45.7,238.2,45.1,238.3,44.3
	 M17.7,74.5c-1.8,1.2-3,3.7-2.4-0.6c0.7-2.4-2.1-5.5-4.4-3.9c-0.8,0.1-0.7-1.1-1.2-1.6c-0.1,0-0.2,0.1-0.3,0.1
	c1.8,2.8-4.9,25.8,1.4,22.2c1.1-0.2,2.8,0.1,3.7-0.6c0.5-0.7,0.9-0.4,1.3,0c3.4,1.8,11-1.4,6.3-5.3C25,81,22.5,75.3,17.7,74.5
	 M11.3,59.1c-1.4-1.3-6.1-4.6-5-6.3c0.2-0.3,0.1-1,0.4-1.3c3.8-4.1,2.2-0.5,5.6,0.9c1.3,0.8-0.4,2.9,0.7,4.2c-0.7,1.5,0,3.7,1.5,4.5
	c6.6,2.3,2.9-3.7,6.1-6.3c2.5-3.9-1.1-5.4-1.2-9.2c-2.3-4.8-3.4-2-6.9-2.9c-4.6-0.5-7.4,4.2-9.6,7.5c-0.9,2.7,1.4,5.2,1.8,7.9
	C5,59.2,6.2,58.8,7,59C8.4,59.5,9.7,59.7,11.3,59.1 M27.3,96.1c-17.1,16.4-8.1,14.1-18.1,2.5c-0.2,2.9,1.6,5.8,0.6,8.7
	c-0.8,1.5,0.1,3.2-0.7,4.7c-2.4,6.2-3.8,5.2,1.2,10.2c1.5-0.5,2.1,2,3.5,1.6c1.4-0.5,3,0.6,4.4,0.2c0.8-0.9,2.1-0.4,2.8-1.3
	c0.8-1.4,3.2,0.3,3.7-1.9c2.2-3.9-2.5-4.1-1-6.8c1.4-2.5,1.1-5.1,2.1-7.6c-0.2-0.4-0.3-0.7-0.6-1.2c-1.1,1.2-2.1,2.3-3.2,3.4
	l-0.1-0.1c0.5-1,1.1-1.9,1.7-2.9c-0.1-0.1-0.2-0.1-0.3-0.2c-1.1,1.2-2.1,2.4-3.2,3.6c0.2,0.4,0.3,0.9,0.5,1.5
	c-0.2,0.2-0.5,0.9-0.9,0.9c-0.6-0.1-2.1-1.2-1.3-2c3.2-4.9,10.6-8.6,11-14.5C28.6,95.3,27.9,95.6,27.3,96.1 M54.1,103.7
	c-0.3,1.6-1.4,3.8,0.1,5c0.3,0.3,0.7,0.6,0.6,1.2c-1.2,3.3,1.3,5.6,2.3,8.5c0,2.4,4.4,2.7,3.4,5.2c-0.5,5.3-0.4,5.3-5.6,3.3
	c0.9,1.2,1.2,2,1,3.3c0.2-0.7,1.3-1,1-2c0.4,0.1,0.7,0.2,1.2,0.3c-0.3,0.3-0.6,0.5-0.7,0.6c1.2,1.4,3.3,2.6,3.6,4.4
	c0.2,1.9,1.7,2.2,2.8,3.1c3.1,4,9.5-2.9,4.1-6.2c0.2-0.3,0.4-0.2,0.8-0.3c-3.4-4.5-2.2-9.9-1.5-15.1c0.2-9.1-1.3-18.5-0.8-27.7
	c0.5,0.1,0.9,0.2,1.2,0.2c1.3-2-1.1-3.8-0.6-5.9c0.3-2.5-4.2-3.5-4.3-5.8c-4.1-3.9-10.7,1.7-13.6,5.1c-2.4,1.8-7.5,3.1-5.2,7.2
	c0,3-0.8,5.9,0.2,8.9c-1.4,6.9-0.4,14.5-1.8,21.2c-0.9,7.8,1.6,19.3,10.2,21.3c5,2.3,5.3-2.1,3.2-5.4c-0.6-0.2-0.6-0.7-0.7-1.2
	c-0.1-1.1-1.1-2.1-0.6-3.3c0.7-1.1-0.3-1.7-0.5-2.7c0.1-0.6-0.5-1.5-1-1.6c-2.6-1.5-2.8-5.4-3.4-8.1c-1.7-3.9,1.3-7.7,1-11.4
	c0.1-0.3,0.7-1,0.8-1.4c0.5-3.3,2.4-10.1,3.6-2.6c0.6-1.6,0.7-3.3,0-5c6.1,1.2-0.2,8.3,2,11.9c-1.7,0.6-1.1-1.5-1.3-2.5
	C54.3,105.1,53.7,106.3,54.1,103.7z M58.3,94.3c0.3,0.9,0.2,2.9-0.9,1.4c-0.4-0.7-0.7-1.5-1-2.2L58.3,94.3z M59.3,108.3
	c-1.3-0.3-1.4-0.5-0.9-2.2C59.2,106.1,59.7,107.3,59.3,108.3 M60.2,91c-1.5,3.4-1.5-0.7-3.4-0.9c-0.5-0.1-1.1-0.3-1.5-0.6
	c-1.1-0.5-2.2,0.5-3.4,0.4c0.1-1,0.2-1.7,0.3-2.5c1.8-0.8,3.3-2.9,5-3.8C60,84.9,61.2,88.1,60.2,91 M155.3,67.4
	c-0.6-0.2-0.6-0.2-1.1-0.3c3-2.1,2.8,3.8,4.4-1.3c0.2-0.8,0.4-0.2,0.9-0.1c-1.3-1.6-2.9-0.1-3.7-2.7c-2,2.1-5.5,1.1-8.2,1.8
	c-4,0.9-7.7,2.1-11.8,2.8c1.9-2.1,0.7-5.1,2.8-6.9c1.9-5.5,5-11.2,6.1-17.1c0.7-6.5-4.1-10.4-9.9-11.6c-6.6-0.7-12.3,3.4-18.3,5.5
	c-1.4,0.8-3.5,1-4.6,2.1c-0.3,0.8-0.1,2.2-1.3,2.2c-0.9,0.2-2.2-0.8-2.7,0.4c-0.1,0.3-0.5,0.6-0.7,0.6c-2.7,0.5-4.2,3.6-6.2,5.4
	c-1.1,2.1-0.4,4.8-0.4,7c1.1,2.2,1.2,5.5,3.7,6.2c0.6,1.1,0.9,2.7,2.5,2.6c3,1.4,5.4,3.8,7.4,6.5c0.5,1.9,2.9,2,3.2,0.1
	c0.8-0.3,0.9-1,1.3-1.6c2.1-2.4,3.3,0.4,3.5,2.5c-0.5-0.4-0.8-0.7-1.3-1c0.1,0.7,0.1,1.1-0.1,1.6c-0.1,0-0.1-0.1-0.2-0.1
	c0-0.3,0-0.7-0.1-1c-0.1,0-0.1,0-0.2,0c-1.5,3.9-15.1,3.9-16,6.9c-0.1,0.9-2.3,2.5-2.1,0.7c0.6-0.7,0-1.2-0.3-1.7
	c-0.2,0.8-0.5,1.6-0.7,2.4c-1.2-1-2.3,0.2-3.6,0.1c-0.8-0.1-1.9-0.6-2.5,0.2c-1.3,1.9-1.8,4.1,1,4.4c-0.7,0.7-2-0.3-2.8-0.6
	c-0.1,0-0.1,0.1-0.2,0.1c0.4,2,0.1,4,2,5.3C97.4,79.6,144.5,70.3,155.3,67.4 M105.6,61.2c-3.1-1-0.7-4.9-2.6-6.6l0.1-0.1
	c2,0.5,2.1,2.3,2,4C105.4,59.6,106.4,59.9,105.6,61.2 M115.5,51.3c-2.2,1.3-1.9-1.7-2.8-2.9c-0.7-1.1,0.1-3,1.3-3.3
	c3.1-1.1,5.7-3.5,9.1-3.8c2.7,0.1,7.4-4,8.8,0c0.4,1.7,0.8,3.6-1.2,3.8C125.9,47.5,120.1,48,115.5,51.3 M126.7,58.8
	c-2.1,0.6-3.7,3.9-6.5,3.3c-1.3-0.3-3.1,0.5-4.2-0.4c0.3-0.7,0.3-1.6,0.8-2c3.3-1.1,5.2-5.3,9.3-5.2c1.3-0.4,5.3-3.6,4.5,0.2
	C129.5,56.4,128.2,57.9,126.7,58.8 M130.7,68.6c-3.4,1.5-4.5-5.5-0.8-3.9c0.6,1.5,1.8,2.4,2.8,3.6C131.9,68.4,131.3,68.5,130.7,68.6
	 M137.3,119.5c-0.4-1-1.4-1.6-1.3-2.8c0-0.4-0.2-1-0.3-1c-1.6-1-1.3-3.2-3.1-4.5c-0.4,0.1-0.8-0.8-1.6-0.4c-1.9-1.1-4.9,0.6-6.3,1.9
	c-1.4-0.2-0.6,1.5-1.4,1.8c0.2,4.4,2.5,4-1.4,7.8c-2.2,4.5-8-2.5-12.4,2.2c-0.8,1.1-1.8,3.1-1.2,4.4c0.6,0.6,0.2,1.3,0.3,1.9
	c-0.1,2.5,1.7,5.1,3.4,6.8c1.1,0.6,3.1,3.3,4.3,1.7c0.7-2.1,4.2-0.7,3.7-2c-0.7-1.8-1-6.6,1.9-3.8c2.1,3.1,9,8.2,11.6,3.4
	c1.3-4.2,4.3-7.8,2.3-12.4c0.2-1,1.7-0.2,2.4-0.3C140.5,123.6,137.7,120.9,137.3,119.5 M131.6,133.6c-0.5-0.3-1-0.4-0.6-1.1
	c-0.4-1.1,0.3-2.4,1.5-2.7c0,0.4,0.1,0.6-0.1,1c0.2,0.1,0.4,0.2,0.6,0.4C132.5,132,132.1,132.8,131.6,133.6 M106.5,132.5
	c-0.2,0-0.4,0.3-0.6,0.5c0.2,0.2,0.4,0.4,0.7,0.8C107.1,133.2,107.2,132.7,106.5,132.5 M124.9,93.3c0,0.1,0.1,0.1,0.1,0.2
	c0.6-0.2,1.1-0.5,1.7-0.7c0-0.1-0.1-0.2-0.1-0.3C126,92.8,125.4,93,124.9,93.3 M81,55.6c-4.8-3.1-9.6,0.4-14.6,1.2
	c0-0.1-0.1-0.2-0.1-0.2c2.5-2.9,6-4.8,8.8-7.2c-0.6-3.6-4.7-3-7.4-3c-1.6-0.2-1.2,2.3-2.6,2.9c-2.9,3.5-5.2,8.1-8.9,10.9
	c-0.7-1.5,1.2-3.2,1.5-4.5c0.1-1.2,1.1-2.2,2.4-2.2c-0.5,1.5,1.3,0.1,1.7-0.8c-0.6,0.1-1,0.5-1.4,0.3c1.6-0.9-0.2-2.2-0.7-3.1
	c-1.3-2.5,0.9-5,1.3-7.3c-0.2-1.2,0.8-1.4,1.5-2.2c-0.4,0.1-0.6,0.1-0.8,0.2c0.2-1.4,1.9-0.4,2.6-0.9c1.9-0.9,4,0,5.9-1.1
	c0.9-0.6,1.8-1,2.9-0.6c-0.2-3.7-1.1-7.9-3.9-10.5c-2.5-2.6-6-0.1-8.8-0.6c-1.4-1.8-4.3-3-4.7-5.2c-0.1-2.4-4.7-2.8-5.7-1
	c-2,1.1-2.3,4.5-1.3,6.5c1.4,5.4-1.7,6.6-5.8,8.6c-3.7,2.9-8.3,4.7-11.7,7.7c-0.7,0.9-1.3,1.7-2.5,1.6c-1.5,0.8,0.2,1.5,1.2,1.3
	c2.4,1,1.6,4.4,3.2,6c6.4,6.7,5-6.3,13.4-7.1c1.5,5.6-0.8,6.6-5.9,8.2c-0.5,0.1-0.8,0.4-0.5,1c0.2,0.5-0.2,1.9-0.7,2.3
	c-1.8,2.7,2.9,9.5,6.2,6.7c0.8-2.1,3.7,1.1,1.8,1.6c-0.9,0.3-1.3,1.6-2.4,1.4c-5.1,3.4-11.2,7.5-15.5,12.8C28,80.2,26,81,25.9,83.1
	c-0.3,3,2.4,6.8,5.5,5.4c1.6,0.3,1-1.6,1.6-2.2c1.9-0.6,0.5-3.1,2.1-4c8.2-8.6,19.6-13.3,29.6-19c-1.5-0.4-2.6,0.8-4.1,0.9
	c0.5-2,3.3-1.6,4.8-2.4c2.4-1.6,5.7-1.8,8.6-2c0,0.1,0,0.2,0,0.3c-3,1.1-6.8,1.5-9.4,3.2C68.1,61.2,84.9,61.9,81,55.6 M43.5,68.7
	c0,0.1,0.1,0.2,0.1,0.2c-1.1,0.7-2.2,1.5-3.5,2.3C40.4,70.5,42.8,68.7,43.5,68.7 M43.4,70.1c-0.5,0.3-1.1,0.7-1.6,1
	c-0.1-0.1-0.1-0.2-0.2-0.3c0.5-0.4,1-0.7,1.6-1.1C43.2,69.8,43.3,70,43.4,70.1 M33.4,76.1c0.7-1.2,5.8-5,6.6-4.9
	C37.9,73,35.7,74.7,33.4,76.1 M38.4,73.4L38.4,73.4c-0.9,0.7-1.4,1.8-2.5,1.9c1.3-1.4,3.1-2.2,4.4-3.6c0.1,0.1,0.1,0.2,0.2,0.3
	C39.9,72.6,39.3,73.2,38.4,73.4 M41.6,72.8c-0.1-0.1-0.1-0.3-0.2-0.4c1.1-0.6,2.2-1.1,3.3-1.7c0,0.1,0.1,0.2,0.2,0.3
	C43.7,71.5,42.7,72.2,41.6,72.8 M43.9,69.7c0.1-0.8,0.5-1,1-0.8c0,0.1,0.1,0.2,0.1,0.2C44.7,69.3,44.4,69.5,43.9,69.7 M44.3,68
	c0.5-0.3,1-0.5,1.5-0.8c0,0.1,0.1,0.2,0.1,0.3C45.4,67.7,45.1,68.5,44.3,68 M48.2,69.2c-0.1-0.1-0.1-0.3-0.2-0.4
	c0.7-0.3,1.3-0.6,1.9-0.8c0,0.1,0.1,0.2,0.1,0.3C49.4,68.5,48.8,68.8,48.2,69.2 M64.9,51.7c-0.1,0.1-0.4-0.2-0.5-0.3
	C65.4,48.5,68.4,49.9,64.9,51.7 M79.6,59.3c-0.3,0-0.6-0.1-0.9-0.2c0.1-0.5,1-0.5,1.2,0.1C79.8,59.3,79.7,59.3,79.6,59.3 M164,116.4
	c-1.9-1.5-6.7-2.4-7.3,0.8c-0.2,1.4-2-0.6-3.1,2.3c-0.6,0.8,0.1,1.2,0.4,2c0,0.4-0.2,0.9,0,1.2c0.5,1.1-0.5,2.1,0,3.1
	c-0.1,1.4-1.3,3-0.4,4.3c1.5,2.1,8.5,6.2,9.1,1.8c0.2-0.2,0.4-0.6,0.6-0.6c1.1,0,1.1-1.1,1.7-1.6C165.8,125.4,168.9,119.5,164,116.4
	 M55.6,103.6V102c-0.1,0-0.2,0-0.3,0c0,0.5,0,1.1,0.1,1.6H55.6L55.6,103.6z M141.5,84.4c-0.1-1.4-2-1.7-3-1.9
	c-1.6-0.1-0.5-3.6-3.4-3.5c-5.3,0.5-10.1,2.9-14.9,4.9c-1.8,0.4-3.9-0.5-5.2,1.5c-1.2,1.7-2.2-0.9-3.5-0.7c-0.7-3.6-2.1-1.7-1.8,0.8
	c-0.1,0.7,0.4,1.6-0.7,2c-0.3,0.2-0.1,1.2-0.8,0.9c-0.9-0.3-1.4,0.7-2.2,0.7c-2.1-0.1-2,3.2-0.8,4.2c1.2,6.7,4.5,12.8,8.8,18
	c7.1,4.9,10.7-1.8,16.6-4.2c2.5-1.9,2.8,1.7,4,0.9c0.3-0.1,0.9,0.2,1.2,0.3c0-0.4,0.1-0.7,0.1-1c0.5,0.2,1,0.3,1.5,0.5
	C139.2,100.4,144.4,92.1,141.5,84.4 M130.5,99.2c-1,2.3-2.5,5.8-5.2,2.9c-0.1-0.4,0.1-0.6,0.3-1.2c0,0,0.2-0.1,0.5-0.1
	c-0.2-0.4-0.3-0.8-0.5-1.2c1-0.8,2-0.3,3.2-0.9c0.4,0.5,1.2-0.2,1.8,0C130.6,98.8,130.6,99.1,130.5,99.2 M133.3,89.4
	c-0.6-0.2-1-0.1-1.3,0.4c-0.8,0.7-2.2,0.8-3.2,1.2c0.5,1.8,1.1-0.5,2.1,0.1c0.1,0.1,0.4-0.2,0.7-0.2c-2.1,2.1-6.4,2.4-9.1,4.1
	c0,0.1,0.1,0.1,0.1,0.2c2.2-0.9,4.5-1.7,6.8-2.5c0,0.1,0.1,0.1,0.1,0.1c-0.9,1.1-2.6,1.7-3.9,2c-0.8,0.9-1.8,0.7-2.8,0.9
	c-0.7,0.2-0.7-0.5-1-0.8c-2.3-1.6,0.6-2.6,2.1-2.9C124.6,91.1,134.9,85.5,133.3,89.4 M134.5,82.4c-5.1,0.4-9.3,4.2-14.5,4.6
	c-0.7-3.3,6.1-2.3,7.9-4.5c0.3-0.2,0.9-0.3,1.1-0.7s0.4-0.4,0.6-0.2c0.3,0.4,0.4,0.2,0.7-0.1c1.5-0.3,2.5-1.2,4.2-1
	C136,80.2,135.7,82.3,134.5,82.4 M137,82.2c-0.5-0.3-0.9-0.4-0.6-1.1c0.3,0.2,0.5,0.4,0.8,0.7C137.2,81.9,137.1,82.1,137,82.2
	 M347.6,30.7c-2.1-0.6-6.7-8-6.7-3v51.7h-8.4c-1.1,0.2-7-2.3-6.7,0.3c1.5,8.9,0.1,3.1,14.2,4.1v35.4c-4.5,1.4-8.4,2.2-11.7,2.6
	c-0.5,0.1-1.4,0.5-1,2.2c2.2,10.8,2.9,14.7,5.4,13.4c3.2-1.6-0.5-5.4,4.2-7.1c5.6-2.1,26.8-17.6,25.6-21.2
	c-1.2-3.7-2.3,1.4-15.5,7.3V83.7h11.3c3.1,21.1,13.1,42.9,30.7,53.5c2.9,1,1.6-7.1,6.4-8.4c2-0.6,1.3-4.5-0.2-4.3
	c-8.4-2.5-15.7-7.7-21.7-15.4c3.9-2.4,7.6-5.9,10.8-10.5c1.6,2.4,9.1,1-1.1-10.4c-3.6-4-1.1,2.8-12.2,17.2c-3.8-5.7-6.8-13-9-21.7
	c32.7,0,34.6,0.9,34.8-2c0.1-2.2-1.9-3.6-6.2-9.1c-2.9-3.8-2.8-1.5-7.7,6.8H348V68c1.3-0.8,37.2,2,36.2-1.7
	c0.7-2.5-6.5-8.7-7.7-10.5c-2.2-3.8-6.2,7.1-7.4,7.9H348V51.8c1.3-0.8,37.2,2,36.2-1.7c0.7-2.6-6.5-8.7-7.7-10.5
	c-2.1-3.8-6.2,7.1-7.4,7.9H348V33.3c14.3,1.7,32.4,1.7,43.2-8c2.4-2.1,2.9-14.4,3.4-21.4C385.3,19.6,367.2,36,347.6,30.7z"/>
</svg>
