<svg xmlns="http://www.w3.org/2000/svg" fill="#8DC21F" viewBox="0 0 420 335" >
<path d="M18.5,0c-8.2,31.7,21.6,39,36.9,53.1C56.5,26.9,25.7,21.8,18.5,0z M123,125v35h16l19-71h15v34L123,125z
	 M116.7,331c-0.3-1.4-0.2-8.7-0.2-18.8c1.8,0,5.8-0.1,7.3,0.2v-1.9c-1.7,0.4-14.3,0.3-16.4,0v1.9c1.5-0.3,5.6-0.2,7.3-0.2
	c0,10.2,0.1,17.4-0.2,18.8H116.7z M135.6,310.6c-0.4,1.8-0.3,19.5,0,20.4h-2.2c0.4-0.8,0.3-18.6,0-20.4H135.6z M156.6,331
	c-1.4-4.6-6.5-13.8-8-18.6c0.5,5.9-0.2,13.1,0.4,18.6h-2.1c0.4-0.9,0.4-18.5,0-20.4h2.7c0.1,1.4,7.2,16.2,7.9,17.9
	c0.7-1.8,7.7-16.4,7.9-17.9h2.6c-0.4,1.8-0.5,19.5,0,20.4h-2.1c0.5-5.6-0.1-12.5,0.3-18.6c-1.5,4.7-6.6,14-8,18.6L156.6,331z
	 M192.9,331.1c-0.8-0.1-11.7-0.2-13.6-0.1c0.4-1.9,0.4-19.1,0-20.5c1.8,0.1,12.4,0,13.4-0.1v1.9c-1.8-0.4-9.4-0.1-11.4-0.2v7.3
	c5.3,0,8.2,0.1,10.2-0.2v1.9c-1.7-0.3-4.9-0.2-10.2-0.2v8.4c2.1-0.1,9.7,0.2,11.6-0.2L192.9,331.1z M240.1,331.1
	c-0.8-0.1-11.7-0.2-13.6-0.1c0.4-1.9,0.4-19.1,0-20.5c1.8,0.1,12.4,0,13.4-0.1v1.9c-1.8-0.4-9.4-0.1-11.4-0.2v7.3
	c5.3,0,8.2,0.1,10.2-0.2v1.9c-1.7-0.3-4.9-0.2-10.2-0.2v8.4c2.1-0.1,9.7,0.2,11.6-0.2L240.1,331.1z M203.4,331
	c0.4-1.9,0.2-19.5,0-20.4h2.1c-0.4,1.7-0.1,16.7-0.2,18.8c2.2-0.1,9.7,0.2,11.7-0.2v2C215.4,330.8,204.4,331,203.4,331z M355.9,331
	c0.4-1.9,0.2-19.5,0-20.4h2.1c-0.4,1.7-0.1,16.7-0.2,18.8c2.2-0.1,9.7,0.2,11.7-0.2v2C367.8,330.8,356.8,331,355.9,331z M379,331
	c0.4-1.9,0.2-19.5,0-20.4h2.1c-0.4,1.7-0.1,16.7-0.2,18.8c2.2-0.1,9.7,0.2,11.7-0.2v2C390.9,330.8,379.9,331,379,331z M252.1,325
	c0,6.3,11,6.3,11,0.5c0-6.3-12.3-2.2-12.3-9.7c0-7.1,12.9-7.5,13.7-0.2l-1.9,0.3c-0.4-5.4-10.1-5.2-10.1-0.1c0,5.7,12.3,2,12.3,9.7
	c0,8-14.2,7.7-14.7-0.2L252.1,325z M276.9,325c0,6.3,11,6.3,11,0.5c0-6.3-12.3-2.2-12.3-9.7c0-7.1,12.9-7.5,13.7-0.2l-1.9,0.3
	c-0.4-5.4-10.1-5.2-10.1-0.1c0,5.7,12.3,2,12.3,9.7c0,8-14.2,7.7-14.7-0.2L276.9,325z M323.8,329.2c0.9-3.3,6.1-15.4,6.7-18.6h2.4
	c-0.4,0.7-7.7,19-8,20.4h-2.1c-0.1-0.5-7.1-18.7-8.1-20.4h2.4C317.2,312.3,323.5,328.5,323.8,329.2z M344.6,310.6
	c-0.5,1.7-0.3,19.8,0,20.4h-2.2c0.4-0.6,0.4-18.6,0-20.4H344.6z M417,331c-0.4-1.8-1.7-4.7-2.3-6.4H405c-0.6,1.7-2,4.7-2.3,6.4h-2.4
	c0.5-0.9,8.2-19,8.4-20.4h2.2c0.1,0.5,7.4,18.7,8.5,20.4C419.4,331,417,331,417,331z M409.8,312c-0.4,1-4.2,11-4.2,11h8.5
	C414.1,323,410.3,313.6,409.8,312z M29,320.7c1.2-3.4,6.1-7.1,4.5-10.6C31.9,308.6,28.7,319.2,29,320.7L29,320.7z M20.4,319.2
	c0.5,3.9,4.9-2.8,3.2-3.4C22.5,315.9,20.4,318.2,20.4,319.2z M18.4,317.9c1-1.6,1.6-3.3,3.2-4.7C17.4,313.2,18.5,314.7,18.4,317.9
	L18.4,317.9z M22.5,322c-0.9,0.4-2.1-0.2-3.2-0.2C19,323.1,22.4,323.7,22.5,322z M56.2,330.1c3.1-2.2,5.6-11.6-0.3-10.7
	c-0.9,0.4-0.4,2.2,0.5,1.7c2.2-0.2,2.6,3,0.3,3.4C54.9,325.6,56.3,328.2,56.2,330.1L56.2,330.1z M53.2,330.5
	c-0.4-1.5,0.3-3.8-0.7-4.9c-1.5-0.3-2.5,0.9-2,2.3c0.4,1.3,1.5,2.5,1.2,4c-0.1,0.4,0.2,0.5,0.5,0.5
	C53.5,332.3,53.3,331.4,53.2,330.5z M48.5,332.2c-0.1-1.9-2.2-2.8-1.8-4.8C42.3,329,45.7,331.7,48.5,332.2L48.5,332.2z M54.1,316.4
	c-1.3,0.1-1.5,0.3-1.3,1.3C53.3,317.4,53.8,317,54.1,316.4z M80.5,326.2c-0.2,1.2,0.6,1.3,1.4,1.5c0.4,0.1,0.8-0.1,0.6-0.5
	c-0.2-0.7,0.2-1.7-0.6-1.9C81.5,325.2,80.6,325.4,80.5,326.2z M85.2,318.7c0.2-0.1,1,0.2,0.8-0.6c0.2-1.5-1.8-1.3-2.1-0.4
	C83.8,318.2,84.2,318.9,85.2,318.7L85.2,318.7z M80.2,320c0.5,0.2,0.7-0.3,1.1-0.3c1,0.1,0.8-0.7,0.7-1.2c-0.2-0.8-0.7-0.3-1.1-0.2
	C79.8,318.6,80.2,319.4,80.2,320z M77.1,329.5c1,0.2,1.5-1.2,0.2-1.2C75.9,328.3,75.2,329.6,77.1,329.5z M86.1,321.4v-1.9
	C85.2,320,85.2,320.7,86.1,321.4z M82,321.3c-0.3-0.8-1.5,0.1-1.5,0.7C80.7,322.7,81.8,321.7,82,321.3z M82.2,323.3
	C80,322,79.8,325,82.2,323.3L82.2,323.3z M80.9,316.3C83.4,315.9,81,313.8,80.9,316.3L80.9,316.3z M83.7,321.1
	c-0.2,0.6-0.3,1.1,0.2,1.4C84.5,322.4,84.1,321.5,83.7,321.1z M72.6,327.7c0.9,0,1.2-0.5,1.2-1.2C73.8,323.8,69.4,327.4,72.6,327.7
	L72.6,327.7z M27.6,327.3c-1.9,1.7-2.1,5.3-4.5,5.3c-1.7,0.1-3.4-1-3.9-2.6C18.4,328.2,25.7,328.8,27.6,327.3z M48.5,310.8
	c-2.4,1.4-2.8,6.3-4.6,6.4c-1.5-0.3-4.4-1.7-4.1-3.4c0.9-0.7,2.3,0.3,3.3,0.5C45.9,315.5,45.9,310.8,48.5,310.8L48.5,310.8z
	 M82.2,309.3c1.5-0.9,2.4-4,4.1-3.8C89.6,309.6,85.2,309.1,82.2,309.3L82.2,309.3z M25.2,311.3c-0.7,1-1.7,1.8-2.4,3.1
	c2.4-0.9,2.6,1.5,2.7,3.2c2-2.1,2.2-3.1,0.8-5.4C25.9,312,25.8,311.4,25.2,311.3z M28.1,310c-2,0.3-2.2,0.6-1.5,1.9
	c0.9,0.5,1.4,1.4,2,2.2C29.8,311.5,29.7,310.9,28.1,310z M29,330.6c-0.6-0.2-1.1,0.2-1.9,0c1.8-1.8,4.6-2,5.3-4.6
	c0.7-1.2,3.7,1.3,2.9,2.7c-0.8,2.8-3.5,2.6-5.8,2.9c-0.6,0.2-1.1,0.2-1.7,0C28,331,28.9,331.3,29,330.6z M67.5,309.6
	c0.6-0.1,1.2,0.4,1.6-0.4c2,0.4,5.8,1.5,4.7,4.3c-0.4,1.5-1.6,1.8-2.8,2.3c-1.5,0.4-1.9,2.5-3.4,2.5c0.4-0.5,0.7-1,1.2-1.7
	c-5.5,0.4-4.5-1.6-0.2-3c2.8-0.7-1.7-2.1-1.3-3.9c0.1-0.4-0.2-0.8,0.3-1.1C67,309,67.9,309.3,67.5,309.6z M74.1,328.8
	c-1.9,1.6-2.1,0.5-2.5-0.3c-0.5,0.1-0.6-0.2-0.9-0.6c-1.4,1,0.1,3.3-1.2,3.9c-2.9-1.1,0.6-5.4-0.2-7.3c-4.7,0.1,0.8-3,1.3-3.9
	c-1.4,0.4-4.7,1.5-3.7-1.3c0.1-0.2,0.2-0.5,0.5-0.1c0.9,0.2,1.6-1.3,2.4-1.6c1.5-1.1,3.8,0.8,1.6,2.4c3.6,0.9-0.3,3.3-0.7,5.2
	c0,0.2,0.1,0.2,0.4,0c2.7-2.9,4.6-0.1,3.6,2.4c-0.1,0.3,0,0.4,0.2,0.5c0.8-0.6,1.8-0.6,2.7-1c-0.3-0.8-1.6,0.2-1.8-0.6
	c-0.3-1.5,1.7-1.3,2-2.4c1-3.6-3.5,0.9-4.5-1.1c0.7-1.7,4.4-0.9,5.1-3c0.8-2.2-2-0.4-2.5-1.6c-0.1-0.5,0.7-0.5,1.1-0.8
	c2.3-0.2,2.7-2,3.3-3.7c0.2-0.6-0.9-2.1-1.7-2.2c-0.7,0.5-1.1,1.6-2.2,1.1c-2.5-0.2-2-6.2,0.2-5.2c1.6,2.3,1.5,1.7,3.9,1.2
	c0,0.7-0.8,0.9-1,1.5c1.9,1.5,12.7,2,4.8,4c-0.6,0.1-1,0.4-0.8,1c0.2,0.6,0.7,0.1,1,0.1c0.8-0.1,2.3-0.6,2.4,0.7
	c-0.5,1.8,1.9,11.1-1.5,8c-1.1-0.4-1.3,0.6-1.1,1.4c0.1,0.9,0.3,1.2,1.3,0.7c1.8-1.1,8.2-3.2,6.8,0.9c-0.2,0.7-3.5,3.6-2.8,1.5
	c0.5-0.5,0.6-1.2,0.8-1.8c0.2-0.6,0-0.9-0.7-0.7c-9.7,2.2-1.3,4.5-4.2,8c-2.7,0.3-1-5.8-3.9-4.8c-0.7,0.3-0.8,0.7-0.6,1.3
	c1,2-2.1,2.7-2.5,0.8c-0.6-1.6-2.7-0.3-3.9-1.4c-0.7-0.2,0.1-0.8-0.1-1.2C74.3,328.7,74.2,328.7,74.1,328.8z M48.7,310.5
	c0.3-1.1,3.1-0.8,1.4-2.1c-1.4-0.9-3.1-4.1,0-3.1c2.2,0.2,3.4,3.7,5.5,2.6c0.6-0.3,1.1-0.4,1.5,0.1c1.1,1.7-2.1,2.7-1.2,4.4
	c0.4,0.7-0.3,1.2-1,1.5c3.5,0.1-0.9,3.8,2.5,3.2c8.7,3,1.9,16.6-5.4,17.4h-2.7c-2.9-1-7.5-3.5-5.1-7.2c1.6-2,2.9-2.6,2.6-5.5
	c1-6.3,2-1.8,2.5,1.5c4.5-5.4,0.3-2.4,1.7-7.2c0.9-2.2-2.6,0.2-2.9-1.4c-0.1-0.7,0.8-1.2,1.5-1.4c1.9-0.7,5.2-2,5.5-4
	c-0.3-0.5-1.1,0-1.5,0.4C52,310.5,50.3,309.7,48.7,310.5L48.7,310.5c0,0.2,0,0.2-0.1,0.1C48.6,310.6,48.7,310.5,48.7,310.5z
	 M23.9,309.6c-0.2-0.2-0.4-0.4-0.6-0.5c-0.9-0.7-1.9-1.4-3.1-0.5c-2.5,3.4-1.3,3.6,2.1,2.4c0.8-0.4,1.7,0.5,2.5-0.1
	C24.7,310.2,24.2,310,23.9,309.6z M28.3,309.2c1.2-0.3,1.5,0.9,2.3,1.3c0.6-1,1.4-4.4,2.9-2.7c2,2.3,2.9,2.7,1.6,6.2
	c-0.7,1.8-1,3.7-1.7,5.4c-1.3,2.2,3.4,1.3,2.2,4.2c-0.5,1.4-2.2,0.7-3.2,1.2c-9.2-3.2-16.2,10.7-24.7,6.3v-0.5
	c3.8-1,7.1-2.8,10.4-5.1c1.5-0.7,0.1-1.3-0.4-2.3c-0.8,2.8-2,0.8-2.6,2c-4.6,4.2-6.8-9.4-6.1-12.3c2-4.6,3.4,4.1,3.2,5.6
	c1-1.3,1.1-3.9,1.4-5.7c0-0.3,0-0.9,0.5-0.9c1.4,0.4,1,2.6,1.3,3.7c1.2-1.8,1.3-4.8,2.2-7c0.4-1.4,0.6-1.5,2.9-1.4
	c1.3-0.1,2.5,0.1,3.3,1.2c0.2,0.2,0.4,0.3,0.6,0.5C25.6,311.1,26.8,309.3,28.3,309.2z"/>
<path fill="#717071" d="M180.3,20.7c-12.9,5.9-23.6,14.9-32.8,23.3c5.7-14.3,13.8-29.5,16.5-34.3 M72.3,86.2H14.2v3.5h58.1V86.2z
	 M72.3,122.4H14.2v3.4h58.1V122.4z M158.2,277.5h-19.8l0-222.2h-15.2v222.2h-19.8V55.3H0v-3.5h206.2v3.5h-48 M83.1,125.8v-3.5h123.1
	v3.5 M192,172.9h-19.8v-10.4H82.8v-3.4h89.5V89.7H82.8v-3.4h89.5V75.9H192 M52.5,277.5v-20.7H34v20.7H14.2V138.9H34v10.4h18.5v-10.4
	h19.8v79.9c13.4-16.5,22.6-38.3,24.7-47.7c2,32-21.9,76.7-24.8,82.9v23.4L52.5,277.5z M52.5,152.8H34v100.5h18.5 M188.1,251.4
	c-11.4-21-25.7-60.9-23.5-80.2c3.5,12.9,12.5,36.3,35.9,60.1L188.1,251.4z M111.7,47.3c-2.3-13.2-9.5-27.7-13.6-35.2
	c11.7,7.8,23.5,18,27.4,21.4 M403.8,36.8H384v15h-27.5v-15h-19.8v195.8h19.8v-16.1H384v16.1h19.8 M384,213.1h-27.5V55.3H384
	 M320.8,36.8h-21.5v15h-66.1v3.4h66.1v205.6c0,11.9,4.2,10.3,15,10.3h104.4v-15.1l-86.9-0.1c-10.2,0-11-3.6-11-13 M275.8,9H256
	v170.6c0,34.5,0.2,72.8-26.4,92.4c48.5-23.3,46.1-53.1,46.1-92.4"/>
<path d="M354.6,101.3c-7.8,35.6,18.5,43.1,32.6,46.9C388.1,125.1,360.9,120.5,354.6,101.3z"/>
</svg>
