<?xml version="1.0" encoding="utf-8"?>
<!-- Generator: Adobe Illustrator 26.5.0, SVG Export Plug-In . SVG Version: 6.00 Build 0)  -->
<svg version="1.1" id="圖層_1" xmlns="http://www.w3.org/2000/svg" xmlns:xlink="http://www.w3.org/1999/xlink" x="0px" y="0px"
	 viewBox="0 0 590 253" style="enable-background:new 0 0 590 253;" xml:space="preserve">
<style type="text/css">
	
		.st0{clip-path:url(#SVGID_00000005964806978323073300000002297158768624332733_);fill:none;stroke:#00837E;stroke-width:86;stroke-miterlimit:10;}
	
		.st1{clip-path:url(#SVGID_00000005964806978323073300000002297158768624332733_);fill:none;stroke:#00837E;stroke-width:50;stroke-miterlimit:10;}
	
		.st2{clip-path:url(#SVGID_00000005964806978323073300000002297158768624332733_);fill:none;stroke:#00837E;stroke-width:54;stroke-miterlimit:10;}
	
		.st3{clip-path:url(#SVGID_00000005964806978323073300000002297158768624332733_);fill:none;stroke:#00837E;stroke-width:24;stroke-miterlimit:10;}
	
		.st4{clip-path:url(#SVGID_00000005964806978323073300000002297158768624332733_);fill:none;stroke:#00837E;stroke-width:36;stroke-miterlimit:10;}
	
		.st5{clip-path:url(#SVGID_00000005964806978323073300000002297158768624332733_);fill:none;stroke:#00837E;stroke-width:30;stroke-miterlimit:10;}
	
		.st6{clip-path:url(#SVGID_00000005964806978323073300000002297158768624332733_);fill:none;stroke:#00837E;stroke-width:43;stroke-miterlimit:10;}
	
		.st7{clip-path:url(#SVGID_00000005964806978323073300000002297158768624332733_);fill:none;stroke:#00837E;stroke-width:27;stroke-miterlimit:10;}
	
		.st8{clip-path:url(#SVGID_00000005964806978323073300000002297158768624332733_);fill:none;stroke:#00837E;stroke-width:22;stroke-miterlimit:10;}
	
		.st9{clip-path:url(#SVGID_00000005964806978323073300000002297158768624332733_);fill:none;stroke:#00837E;stroke-width:21;stroke-miterlimit:10;}
	
		.st10{clip-path:url(#SVGID_00000005964806978323073300000002297158768624332733_);fill:none;stroke:#00837E;stroke-width:28;stroke-miterlimit:10;}
	
		.st11{clip-path:url(#SVGID_00000005964806978323073300000002297158768624332733_);fill:none;stroke:#00837E;stroke-width:34;stroke-miterlimit:10;}
	
		.st12{clip-path:url(#SVGID_00000005964806978323073300000002297158768624332733_);fill:none;stroke:#00837E;stroke-width:15;stroke-miterlimit:10;}
	
		.st13{clip-path:url(#SVGID_00000005964806978323073300000002297158768624332733_);fill:none;stroke:#00837E;stroke-width:25;stroke-miterlimit:10;}
	
		.st14{clip-path:url(#SVGID_00000005964806978323073300000002297158768624332733_);fill:none;stroke:#00837E;stroke-width:40;stroke-miterlimit:10;}
	
		.st15{clip-path:url(#SVGID_00000005964806978323073300000002297158768624332733_);fill:none;stroke:#00837E;stroke-width:12;stroke-miterlimit:10;}
</style>
<g>
	<defs>
		<path id="SVGID_1_" d="M454.7,83.4c-3.7,0-8.1,1.1-8.1,12.7l0.5,57.9c0,12.3,3.7,13.1,8.5,14.7c-11.8,18.2-13.8,19.5-13.8,25.5v16
			c0.2,1.8,0.7,1.8,1.3,1.8h28.4c1,0,2.6-0.3,4.3-3.1l26.6-40.5h17.1v36.8c0.1,2,0.4,6.8,2.3,6.8h66.5c1.2-0.1,1.6-0.3,1.6-2.2
			v-25.4c0-1.3-0.1-1.8-1.9-1.9l-34-0.3v-13.9h23.6c4,0,8.6-1.4,8.6-12.6V96c0-11.1-4.5-12.6-8.8-12.6 M480.1,118.4v-12H553l0.2,12
			 M553.2,132.6v12.2H480v-12.2 M414,6.7c0-2-1.4-3.7-3.1-3.7h-29.4c-1.7,0-3.1,1.7-3.1,3.7v175.2h-14.1c-1.2,0-2.1,1.1-2.1,2.5
			v24.5c0,1.4,1,2.6,2.1,2.6h63.5c1.2,0,2.1-1.1,2.1-2.6v-24.5c0-1.4-1-2.5-2.1-2.5H414 M427.9,91.2c1.2,0,2.1-1.1,2.1-2.5V70
			c0-1.4-1-2.5-2.1-2.5h-63.5c-1.2,0-2.1,1.1-2.1,2.5v18.6c0,1.4,1,2.6,2.1,2.6 M584.4,75.6c1.7-0.1,3.4-0.6,3.4-5.5V54
			c0-5.2-1.7-5.2-2.9-5.2h-20.3l9.9-15.5h7.2c1.9,0,3.6-0.4,3.6-5.5l-0.4-16.2c-0.1-4.8-1.8-4.8-3-4.8h-44.5V3.6
			c0-2.3-0.5-3.4-3.3-3.6h-35.8c-2.8,0.1-3.3,1.3-3.3,3.6v3.3h-44.5c-1.3,0-3,0-3,4.8l-0.4,16.2c0,5.1,1.7,5.5,3.6,5.5h7.2l9.9,15.5
			H448c-1.2,0-2.9,0-2.9,5.2v16.1c0,4.9,1.7,5.4,3.4,5.5 M551,33.3l-11.3,15.5h-46.5L482,33.3 M257.5,2.9c0-1.1-0.9-2-2-2h-50
			c-1.1,0-2,0.9-2,2V92c-2.5,3.5-61.7,87.4-80.7,108c-5.1,5.6-4,13.4,3.9,13.4h35.9c4,0,7.7-2,11.4-6.1l56.6-63.4l56.6,63.4
			c3.7,4.1,7.4,6.1,11.4,6.1h35.9c7.9,0,9-7.8,3.9-13.4C319.5,179.4,260,95.5,257.5,92 M334.6,78.8c2.1,0,3-0.4,3-3.9V33.7
			c0-4.1-1.2-4.1-2.5-4.1H125.8c-1.4,0-2.5,0-2.5,4.1v41.2c0,3.5,1,3.9,3,3.9 M121.6,242.1h10.6v2.5h-6.7v1.2h5.4v2.5h-5.4v1.3h7.1
			v2.6h-10.9 M150.4,244.2l1.4-2.1h4.6l-6.2,7.3l-1.8,2.7h-4.8 M156.9,252.1H152l-1.8-2.7l-6-7.3h4.7l1.4,2.1 M179,242.1v2.5h-3.6
			v7.5h-3.9v-7.5h-3.6v-2.5 M191.5,242.1h10.6v2.5h-6.7v1.2h5.4v2.5h-5.4v1.3h7.1v2.6h-10.9 M215,242.1h4.6l3.9,5.8v-5.8h3.7v10
			h-4.3l-4.2-5.8v5.8H215 M244.9,249.1c0.1,0.8,1.2,0.8,1.7,0.8s1.6,0,1.6-0.7c0-1.8-7.9,0.3-7.9-4.1c0-2.1,1.6-3.2,5.5-3.2
			c4,0,6.4,0.7,6.6,3.2h-4.5c-0.1-0.7-0.9-1-2-1c-0.7,0-1.4,0.2-1.4,0.7c0,1.7,8.3-0.3,8.3,4.1c0,3.2-3.5,3.6-6.8,3.6
			c-4.5,0-5.8-1.8-5.8-3.3 M269.6,252.1h-3.9v-10h3.9 M289.9,252.1h-4.1l-4.4-10h4.4l2.1,6.7l2.2-6.7h4.3 M306.4,242.1H317v2.5h-6.7
			v1.2h5.4v2.5h-5.4v1.3h7.1v2.6h-10.9 M393.9,242.1v2.5h-3.6v7.5h-3.9v-7.5h-3.6v-2.5 M507.6,242.1v2.5H504v7.5h-3.9v-7.5h-3.6
			v-2.5 M406.4,242.1H417v2.5h-6.7v1.2h5.4v2.5h-5.4v1.3h7.1v2.6h-10.9 M429.9,242.1h8.1c5.9,0,4,4.7,2.4,5.2
			c2.1,0.8,0.7,3.6,1.8,4.6v0.2h-4.3c-0.6-0.9,0.4-3-1.4-3h-2.6v3.1H430 M433.9,246.4L433.9,246.4h2.7c1.6,0,1.6-1.8,0.1-1.8H434
			 M455,242.1h8.1c5.9,0,4,4.7,2.4,5.2c2.1,0.8,0.7,3.6,1.8,4.6v0.2H463c-0.6-0.9,0.4-3-1.4-3H459v3.1h-4 M459,246.4L459,246.4h2.7
			c1.6,0,1.6-1.8,0.1-1.8H459 M546,242.1h8.1c5.9,0,4,4.7,2.4,5.2c2.1,0.8,0.7,3.6,1.8,4.6v0.2H554c-0.6-0.9,0.4-3-1.4-3H550v3.1h-4
			 M549.9,246.4L549.9,246.4h2.7c1.6,0,1.6-1.8,0.1-1.8H550 M480.2,242.1h3.9v10h-3.9 M519.6,247.1c0-4.4,3.7-5.3,6.7-5.3
			s6.7,0.9,6.7,5.3c0,4.4-3.7,5.3-6.7,5.3C523.3,252.4,519.6,251.5,519.6,247.1z M526.3,249.8c3.4,0,3.4-5.5,0-5.5
			C522.9,244.4,522.9,249.8,526.3,249.8z M577.7,249.2v2.8h-3.9v-2.8l-4.4-7.2h4.6l1.8,4.1l1.9-4.1h4.5 M371.6,248.6v-2.4h-39.9v2.4
			 M63.2,25.8c0-0.4,0-0.4-0.7-0.4H48.3c-0.5,0-0.6,0.1-0.7,0.7V46H30.4c-0.9,0-0.9,0.2-0.9,0.7v9.5c0,0.5,0,0.8,1.1,0.8h-0.1h50.6
			c0.9,0,0.9-0.2,0.9-0.8l-0.1-9.5c0-0.4,0-0.7-1.2-0.7H63.1 M80.2,39.5c1,0,1-0.2,1-0.6l-0.1-9.4c0-0.3,0-0.6-1.2-0.6l-49-0.1
			c-1,0-1,0.2-1,0.7v8.6c0,1.2,0.4,1.4,1.2,1.4 M63.6,61.5H48.2c-1.2,0-1.3,0.4-1.3,0.5v27.2H28.8c-0.8,0-1.1,0.2-1.1,1.2v13
			c0,1.1,0.4,1.5,1.4,1.7h53.6c0.7-0.1,1.1-0.4,1.1-1.7l-0.1-13c0-0.8-0.1-1.2-1.4-1.2H63.6 M81.8,81.8c0.9,0,1.1-0.2,1.1-1.1V68.8
			c0-0.6,0-1.1-1.5-1.1h-52c-0.9,0-1.2,0.2-1.2,1.2v11.8c0,0.7,0.1,1.1,1.4,1.1 M20.8,48.8l2.2-9.5c0.3-1.1,0.5-2.1,0.5-3.1V25.7
			c-0.1-0.5-0.2-0.8-1.1-0.8H12.2c-0.9,0-1.3,0.3-1.6,1.1L1.3,49.7c-1.2,3.7-2.8,11.5,1.6,12.8H6v40.3c0,2.1,0.7,2.1,1.2,2.1h12.1
			c0.5,0,1.3,0,1.3-2.1 M14.3,133.5c-4.3,0-1.5,3-8.2,7.2c-2.5,1.6-3.5,2-3.5,3.9v6.8c0,2.2,2.5,3.9,4.2,2.9c3.2-1.8,7.3-4.5,10-7.8
			c2.8,3.3,6.9,5.9,10,7.8c1.8,1,4.2-0.7,4.2-2.9v-6.8c0-1.9-1-2.4-3.5-3.9c-6.7-4.2-4-7.2-8.2-7.2 M54.5,173.3
			c0.4-1.5,1.1-2.2,2-2.2h28c1,0,1.5-0.8,1.5-2.5v-5.3c0-1.6-0.5-2.5-1.5-2.5H60.9c-1.8,0-2.1-2.7-1.5-4.3c0.7-1.7,0.9-3.2-0.9-3.2
			h-8.3c-2.7,0-2,7.5-4.9,7.5H34.8c-1,0-1.5,0.8-1.5,2.5v5.3c0,1.6,0.5,2.5,1.5,2.5H41c1.8,0,2,2.5,1.4,4.1l-9.3,33.6
			c-0.4,1.6-0.2,2.6,1,2.6h8.4c0.9,0,1.5-0.6,1.9-2 M82.4,211.9c1,0,1.5-0.8,1.1-2.7l-4.1-17.7c-0.3-1.5-0.9-2.1-1.8-2.1h-7
			c-1,0-1.4,0.6-1,2.7l0.7,3.9c0.2,1,0.7,4-1.1,4H62c-1.3,0-1.8-1.8-1.2-3.9l4.9-15.2c0.3-1.3,0.3-2.6-1-2.6h-6.5
			c-0.9,0-1.5,0.6-1.9,2L50,199c-0.4,1.4-0.5,2.5-0.5,3.9v6c0,0.7,0.1,3.1,1.7,3.1 M69.3,137.6c-4,0-0.7-5.9-3.8-5.9H53.7
			c-3,0,0.2,5.9-3.8,5.9 M34.8,137.6c-1,0-1.5,0.8-1.5,2.5v13.1c0,1.6,0.5,2.5,1.5,2.5h10c1,0,1.5-0.8,1.5-2.5v-3.5
			c0-2,0.7-3.2,1.9-3.2h22.9c1.2,0,1.9,1.2,1.9,3.2v3.5c0,1.6,0.5,2.5,1.5,2.5h10c1,0,1.5-0.8,1.5-2.5v-13.1c0-1.6-0.5-2.5-1.5-2.5
			 M22.6,168.6h6.1c0.6,0,1.2-0.1,1.2-1.7V158c-0.1-1.7-0.5-1.7-0.8-1.7H4.7c-0.6,0-1.1,0.2-1.1,1.8v8.8c0.1,1.7,0.5,1.7,0.7,1.7
			h6.1v21.6c-0.7-0.4-3.6-2-4.5-2.2s-2.1,0.6-2.1,1.8v5.6c0,2.5,1.8,1.2,6.6,5.7H5.7c-1.6,0-2.2,0-2.2,1v7.5c0,1.8,1.5,1.8,2.6,1.8
			h22.6c0.9,0,1.6-0.8,1.6-1.7v-6.9c0-1-0.7-1.7-1.6-1.7h-5.5c4.7-4.3,6.8-3.3,6.8-5.4v-5.8c0-1.1-1.1-1.9-2.2-1.7
			c-0.8,0.1-4,2-5.1,2.8 M29.3,183.9c0.4,0,0.9-0.1,0.9-1.8l-0.1-7.4c0-0.7-0.1-1.8-0.5-1.8l-25.1-0.1c-0.6,0-0.8,0.1-0.8,1.1v8.3
			c0,1.7,0.6,1.7,1,1.7"/>
	</defs>
	<clipPath id="SVGID_00000108994995316581052540000006025109057671638705_">
		<use xlink:href="#SVGID_1_"  style="overflow:visible;"/>
	</clipPath>
	
		<line style="clip-path:url(#SVGID_00000108994995316581052540000006025109057671638705_);fill:none;stroke:#00837E;stroke-width:86;stroke-miterlimit:10;" x1="43" y1="22" x2="43" y2="214"/>
	
		<line style="clip-path:url(#SVGID_00000108994995316581052540000006025109057671638705_);fill:none;stroke:#00837E;stroke-width:50;stroke-miterlimit:10;" x1="117.9" y1="54.2" x2="341.5" y2="54.2"/>
	
		<polyline style="clip-path:url(#SVGID_00000108994995316581052540000006025109057671638705_);fill:none;stroke:#00837E;stroke-width:54;stroke-miterlimit:10;" points="
		230.5,-1 230.5,102 131,221 	"/>
	
		<line style="clip-path:url(#SVGID_00000108994995316581052540000006025109057671638705_);fill:none;stroke:#00837E;stroke-width:54;stroke-miterlimit:10;" x1="230.5" y1="102" x2="330" y2="221"/>
	
		<line style="clip-path:url(#SVGID_00000108994995316581052540000006025109057671638705_);fill:none;stroke:#00837E;stroke-width:24;stroke-miterlimit:10;" x1="360" y1="79.3" x2="432" y2="79.3"/>
	
		<line style="clip-path:url(#SVGID_00000108994995316581052540000006025109057671638705_);fill:none;stroke:#00837E;stroke-width:36;stroke-miterlimit:10;" x1="396" y1="2" x2="396" y2="200"/>
	
		<line style="clip-path:url(#SVGID_00000108994995316581052540000006025109057671638705_);fill:none;stroke:#00837E;stroke-width:30;stroke-miterlimit:10;" x1="431" y1="197" x2="357.4" y2="197"/>
	
		<line style="clip-path:url(#SVGID_00000108994995316581052540000006025109057671638705_);fill:none;stroke:#00837E;stroke-width:43;stroke-miterlimit:10;" x1="516" y1="0" x2="516" y2="20"/>
	
		<line style="clip-path:url(#SVGID_00000108994995316581052540000006025109057671638705_);fill:none;stroke:#00837E;stroke-width:27;stroke-miterlimit:10;" x1="446" y1="20" x2="586" y2="20"/>
	
		<line style="clip-path:url(#SVGID_00000108994995316581052540000006025109057671638705_);fill:none;stroke:#00837E;stroke-width:22;stroke-miterlimit:10;" x1="467" y1="27" x2="485" y2="56"/>
	
		<line style="clip-path:url(#SVGID_00000108994995316581052540000006025109057671638705_);fill:none;stroke:#00837E;stroke-width:21;stroke-miterlimit:10;" x1="566" y1="27" x2="547.5" y2="56"/>
	
		<line style="clip-path:url(#SVGID_00000108994995316581052540000006025109057671638705_);fill:none;stroke:#00837E;stroke-width:28;stroke-miterlimit:10;" x1="443" y1="62" x2="590" y2="62"/>
	
		<line style="clip-path:url(#SVGID_00000108994995316581052540000006025109057671638705_);fill:none;stroke:#00837E;stroke-width:34;stroke-miterlimit:10;" x1="462.9" y1="83" x2="463" y2="168"/>
	
		<polyline style="clip-path:url(#SVGID_00000108994995316581052540000006025109057671638705_);fill:none;stroke:#00837E;stroke-width:34;stroke-miterlimit:10;" points="
		476,89.5 570,89.5 570,167 	"/>
	
		<line style="clip-path:url(#SVGID_00000108994995316581052540000006025109057671638705_);fill:none;stroke:#00837E;stroke-width:15;stroke-miterlimit:10;" x1="474.7" y1="125.5" x2="562" y2="125.5"/>
	
		<line style="clip-path:url(#SVGID_00000108994995316581052540000006025109057671638705_);fill:none;stroke:#00837E;stroke-width:25;stroke-miterlimit:10;" x1="446" y1="156" x2="587" y2="156"/>
	
		<line style="clip-path:url(#SVGID_00000108994995316581052540000006025109057671638705_);fill:none;stroke:#00837E;stroke-width:40;stroke-miterlimit:10;" x1="489" y1="154" x2="447" y2="217"/>
	
		<polyline style="clip-path:url(#SVGID_00000108994995316581052540000006025109057671638705_);fill:none;stroke:#00837E;stroke-width:36;stroke-miterlimit:10;" points="
		536,166 536,200 591.1,200 	"/>
	
		<line style="clip-path:url(#SVGID_00000108994995316581052540000006025109057671638705_);fill:none;stroke:#00837E;stroke-width:12;stroke-miterlimit:10;" x1="120" y1="247.2" x2="583" y2="247"/>
</g>
</svg>
