<svg width="457" height="264" viewBox="0 0 457 264" fill="none" xmlns="http://www.w3.org/2000/svg">
<g clip-path="url(#clip0_26_671)">
<path d="M0 183.471C6.14185 182.151 12.3857 180.634 19.0309 178.851C19.7587 178.654 20.262 178.001 20.262 177.246V134.535C20.262 133.617 19.5206 132.875 18.6024 132.875H4.14218V126.228H18.5956C19.5138 126.228 20.2552 125.487 20.2552 124.569V84.8514C20.2552 83.933 19.5138 83.1915 18.5956 83.1915H2.81587V76.5447H53.9912V83.1915H39.1977C38.2794 83.1915 37.5381 83.933 37.5381 84.8514V124.569C37.5381 125.487 38.2794 126.228 39.1977 126.228H52.8213V132.875H39.1977C38.2794 132.875 37.5381 133.617 37.5381 134.535V170.762C37.5381 171.306 37.8033 171.817 38.2522 172.13C38.5379 172.327 38.8644 172.429 39.1977 172.429C39.3949 172.429 39.5854 172.395 39.7758 172.327C45.0879 170.354 50.5359 168.327 55.9296 166.061L58.6503 170.851C44.6934 181.838 24.7306 193.158 5.82218 200.812L0 183.471Z" fill="white"/>
<path d="M47.5092 215.384V208.568H89.2099C90.1281 208.568 90.8695 207.826 90.8695 206.908V183.062C90.8695 182.144 90.1281 181.402 89.2099 181.402H60.9628V174.586H89.2099C90.1281 174.586 90.8695 173.844 90.8695 172.926V153.645C90.8695 152.727 90.1281 151.985 89.2099 151.985H81.4152V145.339H89.7132C90.6314 145.339 91.3728 144.597 91.3728 143.679V118.248C91.3728 117.33 90.6314 116.588 89.7132 116.588H81.4152V110.275H89.7132C90.6314 110.275 91.3728 109.533 91.3728 108.615V84.8514C91.3728 83.933 90.6314 83.1915 89.7132 83.1915H77.4159C76.4977 83.1915 75.7563 83.933 75.7563 84.8514V154.761H60.133V76.5379H118.77V83.1847H109.812C108.894 83.1847 108.152 83.9262 108.152 84.8446V108.608C108.152 109.527 108.894 110.268 109.812 110.268H118.77V116.582H109.812C108.894 116.582 108.152 117.323 108.152 118.242V143.665C108.152 144.584 108.894 145.325 109.812 145.325H122.769C123.687 145.325 124.429 144.584 124.429 143.665V73.769H140.378V151.985H110.472C109.553 151.985 108.812 152.727 108.812 153.645V172.926C108.812 173.844 109.553 174.586 110.472 174.586H138.719V181.396H110.472C109.553 181.396 108.812 182.137 108.812 183.056V206.901C108.812 207.819 109.553 208.561 110.472 208.561H146.024V215.378H47.5092V215.384Z" fill="white"/>
<path d="M391.956 191.757C387.977 191.757 383.271 190.355 378.292 187.689L379.38 182.579C381.55 182.845 383.141 182.967 384.434 182.967C389.834 182.967 391.086 180.504 391.358 176.531C392.29 165.381 392.623 152.577 392.357 138.495C392.344 137.59 391.603 136.862 390.698 136.862H384.23V130.215H405.165C405.287 150.734 404.859 169.109 403.995 179.6C403.342 187.444 399.064 191.757 391.956 191.757Z" fill="white"/>
<path d="M359.03 164.952L356.289 160.251C352.609 161.864 348.827 163.51 344.944 165C344.753 165.075 344.549 165.109 344.345 165.109C344.012 165.109 343.685 165.007 343.406 164.816C342.957 164.503 342.685 163.993 342.685 163.449V122.738C342.685 121.82 343.427 121.079 344.345 121.079H356.472V114.262H344.345C343.427 114.262 342.685 113.52 342.685 112.602V73.218H326.069V112.602C326.069 113.52 325.328 114.262 324.409 114.262H311.616V121.072H324.409C325.328 121.072 326.069 121.813 326.069 122.732V170.592C326.069 171.3 325.62 171.932 324.947 172.164C319.587 174.001 314.683 175.497 310.024 176.722L316.649 193.709C332.565 185.58 347.963 175.212 359.118 165.095C359.091 165.054 359.057 165.007 359.03 164.952Z" fill="white"/>
<path d="M433.97 69.8164L429.773 73.2384C434.303 80.477 438.806 88.0898 442.825 95.3352C442.893 95.4577 442.941 95.5869 442.982 95.723L453.762 87.7292C448.355 81.4499 441.411 75.1637 433.97 69.8164Z" fill="white"/>
<path d="M362.614 154.741C362.587 155.482 362.417 159.85 362.152 163.857C362.356 161.068 362.505 158.061 362.614 154.741Z" fill="white"/>
<path d="M454.606 176.749H449.171C448.981 196.023 448.029 200.519 444.369 200.526C443.778 200.526 443.179 200.363 442.485 200.023C438.064 197.982 434.677 191.743 432.113 180.96C432.011 180.525 432.086 180.069 432.324 179.688C441.581 165.027 448.994 146.978 454.973 124.541L440.458 120.201C437.847 132.297 434.772 143.447 431.31 153.373C431.072 154.047 430.44 154.489 429.746 154.489C429.678 154.489 429.617 154.482 429.549 154.475C428.773 154.38 428.168 153.768 428.093 152.985C426.876 140.658 426.134 125.834 425.76 106.322C425.753 105.873 425.923 105.445 426.236 105.125C426.549 104.805 426.978 104.628 427.42 104.628H455.334V97.8116H445.362H441.377H440.18H427.257C426.338 97.8116 425.597 97.07 425.597 96.1516V70.0613H410.477C410.477 79.1844 410.484 87.8313 410.64 96.1176C410.647 96.5666 410.477 96.9952 410.164 97.3149C409.851 97.6347 409.423 97.8116 408.981 97.8116H362.791V141.849C362.791 146.618 362.73 150.829 362.614 154.632C362.614 154.632 362.614 154.673 362.607 154.741C362.498 158.061 362.349 161.068 362.145 163.857C362.043 165.401 361.934 166.884 361.805 168.095C359.853 189.913 354.935 203.309 344.039 216.453L347.732 220.691C369.327 204.03 378.571 179.933 378.571 140.522V106.288C378.571 105.37 379.312 104.628 380.23 104.628H409.137C410.042 104.628 410.776 105.35 410.797 106.254C411.518 140.161 413.619 163.932 417.401 181.042C417.496 181.477 417.415 181.94 417.17 182.314C407.886 196.492 396.187 207.465 381.434 215.813L383.842 220.528C397.799 215.037 409.749 206.976 419.373 196.56C419.693 196.22 420.135 196.029 420.591 196.029C420.693 196.029 420.795 196.036 420.897 196.057C421.455 196.159 421.924 196.546 422.135 197.077C426.862 208.989 433.392 216.282 442.064 219.385C443.886 220.004 445.56 220.324 447.036 220.324C449.539 220.324 451.504 219.432 453.041 217.602C456.327 213.684 459.211 203.418 454.606 176.749Z" fill="white"/>
<path d="M362.614 154.625C362.614 154.666 362.614 154.701 362.607 154.735C362.614 154.666 362.614 154.625 362.614 154.625Z" fill="white"/>
<path d="M219.978 221.602C211.591 221.602 201.647 218.827 191.152 213.561L192.261 208.01C200.641 209.078 205.939 209.54 209.796 209.54C219.474 209.54 221.175 206.309 221.175 199.519V186.559C221.175 185.641 220.433 184.899 219.515 184.899H158.205V177.252H219.515C220.433 177.252 221.175 176.511 221.175 175.592V165.279L233.179 167.422C233.275 167.442 233.377 167.449 233.472 167.449C233.696 167.449 233.921 167.401 234.132 167.313C241.566 164.102 249.109 159.598 254.305 155.264C254.843 154.815 255.04 154.081 254.802 153.421C254.564 152.761 253.938 152.326 253.237 152.326H175.162V145.679H255.91C256.142 145.679 256.373 145.631 256.591 145.536L263.501 142.447L280.24 155.183C268.82 162.17 255.387 167.612 241.239 170.98C240.491 171.157 239.961 171.823 239.961 172.599V175.592C239.961 176.511 240.702 177.252 241.62 177.252H300.271V184.899H241.62C240.702 184.899 239.961 185.641 239.961 186.559V205.173C239.954 215.459 232.486 221.602 219.978 221.602Z" fill="white"/>
<path d="M205.245 134.202V127.888H256.903C257.822 127.888 258.563 127.147 258.563 126.229V102.853H275.676V134.209H205.245V134.202Z" fill="white"/>
<path d="M182.474 136.978V105.622H252.904V111.772H201.246C200.328 111.772 199.586 112.513 199.586 113.432V136.971H182.474V136.978Z" fill="white"/>
<path d="M297.774 87.1782H158.879V94.9882H297.774V87.1782Z" fill="white"/>
<path d="M204.198 69L202.851 74.7079C209 77.2523 216.522 80.5654 223.514 83.7901C224.004 84.0147 224.487 84.2392 224.977 84.4637L237.104 90.0831L243.654 76.3883C230.881 72.4764 214.788 69.8776 204.198 69Z" fill="white"/>
<path d="M66.8326 249.72L63.8535 249.802C62.6904 249.843 62.2143 249.945 61.915 250.38C61.7178 250.679 61.6158 250.917 61.5749 251.081C61.5341 251.244 61.4729 251.319 61.3573 251.319C61.2145 251.319 61.1805 251.217 61.1805 250.999C61.1805 250.679 61.5613 248.856 61.6022 248.7C61.6634 248.441 61.7246 248.319 61.8402 248.319C62.0034 248.319 62.2007 248.516 62.6972 248.557C63.2753 248.618 64.0371 248.659 64.6969 248.659H72.614C73.2533 248.659 73.6954 248.598 73.9947 248.557C74.294 248.496 74.4572 248.455 74.532 248.455C74.6748 248.455 74.6884 248.577 74.6884 248.877C74.6884 249.298 74.6272 250.679 74.6272 251.196C74.6068 251.394 74.566 251.516 74.4504 251.516C74.2871 251.516 74.2531 251.414 74.2327 251.115L74.2123 250.897C74.1715 250.38 73.6342 249.815 71.8522 249.775L69.3288 249.713V257.918C69.3288 259.755 69.3288 261.34 69.4308 262.197C69.492 262.755 69.6076 263.197 70.213 263.279C70.4919 263.32 70.934 263.361 71.2332 263.361C71.4509 263.361 71.5529 263.422 71.5529 263.524C71.5529 263.667 71.3897 263.721 71.172 263.721C69.8525 263.721 68.5942 263.66 68.0297 263.66C67.5672 263.66 66.3089 263.721 65.5063 263.721C65.2478 263.721 65.105 263.66 65.105 263.524C65.105 263.422 65.1866 263.361 65.4247 263.361C65.7239 263.361 65.962 263.32 66.1456 263.279C66.5469 263.197 66.6625 262.762 66.7238 262.177C66.8258 261.333 66.8258 259.755 66.8258 257.918V249.72H66.8326Z" fill="black"/>
<path d="M97.433 254.959C97.4942 254.959 97.5554 254.918 97.5554 254.816V254.394C97.5554 251.353 97.5554 250.795 97.5146 250.156C97.4738 249.475 97.3174 249.155 96.6576 249.013C96.4944 248.972 96.1543 248.951 95.8755 248.951C95.6578 248.951 95.5354 248.911 95.5354 248.774C95.5354 248.632 95.6782 248.598 95.9571 248.598C97.0385 248.598 98.2968 248.659 98.8342 248.659C99.3171 248.659 100.575 248.598 101.351 248.598C101.63 248.598 101.772 248.638 101.772 248.774C101.772 248.911 101.65 248.951 101.412 248.951C101.249 248.951 101.072 248.972 100.834 249.013C100.296 249.115 100.133 249.455 100.092 250.156C100.052 250.795 100.052 251.353 100.052 254.394V257.918C100.052 259.755 100.052 261.34 100.154 262.197C100.215 262.755 100.331 263.197 100.936 263.279C101.215 263.32 101.657 263.361 101.956 263.361C102.174 263.361 102.276 263.422 102.276 263.524C102.276 263.667 102.113 263.721 101.874 263.721C100.575 263.721 99.3171 263.66 98.7525 263.66C98.29 263.66 97.0317 263.721 96.2563 263.721C95.9775 263.721 95.8346 263.66 95.8346 263.524C95.8346 263.422 95.9163 263.361 96.1543 263.361C96.4536 263.361 96.6916 263.32 96.8753 263.279C97.2766 263.197 97.3786 262.762 97.4534 262.177C97.5554 261.333 97.5554 259.755 97.5554 257.918V256.156C97.5554 256.074 97.4942 256.033 97.433 256.033H89.7948C89.7336 256.033 89.6724 256.054 89.6724 256.156V257.918C89.6724 259.755 89.6724 261.34 89.7744 262.197C89.8356 262.755 89.9513 263.197 90.5566 263.279C90.8355 263.32 91.2776 263.361 91.5768 263.361C91.7945 263.361 91.8965 263.422 91.8965 263.524C91.8965 263.667 91.7333 263.721 91.4952 263.721C90.1961 263.721 88.9378 263.66 88.3733 263.66C87.9108 263.66 86.6525 263.721 85.8499 263.721C85.5914 263.721 85.4486 263.66 85.4486 263.524C85.4486 263.422 85.5302 263.361 85.7683 263.361C86.0675 263.361 86.3056 263.32 86.4892 263.279C86.8905 263.197 86.9926 262.762 87.0674 262.177C87.1694 261.333 87.1694 259.755 87.1694 257.918V254.394C87.1694 251.353 87.1694 250.795 87.1286 250.156C87.0878 249.475 86.9313 249.155 86.2716 249.013C86.1083 248.972 85.7683 248.951 85.4894 248.951C85.2717 248.951 85.1493 248.911 85.1493 248.774C85.1493 248.632 85.2922 248.598 85.571 248.598C86.6525 248.598 87.9108 248.659 88.4481 248.659C88.931 248.659 90.1893 248.598 90.9715 248.598C91.2504 248.598 91.3932 248.638 91.3932 248.774C91.3932 248.911 91.2708 248.951 91.0327 248.951C90.8695 248.951 90.6926 248.972 90.4546 249.013C89.9172 249.115 89.754 249.455 89.7132 250.156C89.6724 250.795 89.6724 251.353 89.6724 254.394V254.816C89.6724 254.918 89.7336 254.959 89.7948 254.959H97.433Z" fill="black"/>
<path d="M115.41 254.401C115.41 251.36 115.41 250.802 115.369 250.162C115.328 249.482 115.172 249.162 114.512 249.019C114.349 248.979 114.009 248.958 113.73 248.958C113.512 248.958 113.39 248.917 113.39 248.781C113.39 248.638 113.532 248.604 113.832 248.604C114.369 248.604 114.954 248.625 115.45 248.625C115.967 248.645 116.43 248.666 116.709 248.666C117.348 248.666 121.327 248.666 121.708 248.645C122.089 248.604 122.409 248.564 122.565 248.523C122.667 248.502 122.783 248.441 122.885 248.441C122.987 248.441 123.007 248.523 123.007 248.618C123.007 248.761 122.905 248.999 122.851 249.917C122.83 250.115 122.789 250.999 122.749 251.237C122.728 251.339 122.687 251.455 122.551 251.455C122.409 251.455 122.375 251.353 122.375 251.176C122.375 251.033 122.354 250.693 122.252 250.455C122.109 250.094 121.912 249.856 120.912 249.734C120.572 249.693 118.47 249.652 118.069 249.652C117.967 249.652 117.926 249.713 117.926 249.849V254.911C117.926 255.054 117.947 255.129 118.069 255.129C118.511 255.129 120.81 255.129 121.273 255.088C121.756 255.047 122.055 254.986 122.232 254.788C122.375 254.625 122.449 254.53 122.551 254.53C122.633 254.53 122.694 254.571 122.694 254.693C122.694 254.816 122.613 255.135 122.531 256.156C122.511 256.557 122.449 257.353 122.449 257.496C122.449 257.659 122.449 257.877 122.272 257.877C122.13 257.877 122.096 257.795 122.096 257.7C122.075 257.503 122.075 257.238 122.014 256.979C121.912 256.578 121.633 256.278 120.892 256.197C120.511 256.156 118.532 256.136 118.049 256.136C117.947 256.136 117.926 256.217 117.926 256.333V257.911C117.926 258.591 117.906 260.428 117.926 261.013C117.967 262.394 118.287 262.694 120.327 262.694C120.844 262.694 121.688 262.694 122.204 262.456C122.721 262.218 122.966 261.796 123.102 260.973C123.143 260.755 123.184 260.673 123.32 260.673C123.483 260.673 123.483 260.837 123.483 261.034C123.483 261.496 123.32 262.857 123.225 263.252C123.082 263.769 122.905 263.769 122.143 263.769C120.64 263.769 119.545 263.728 118.681 263.707C117.824 263.667 117.198 263.646 116.6 263.646C116.382 263.646 115.94 263.646 115.457 263.667C114.995 263.667 114.478 263.707 114.077 263.707C113.818 263.707 113.675 263.646 113.675 263.51C113.675 263.408 113.757 263.347 113.995 263.347C114.294 263.347 114.532 263.306 114.716 263.265C115.117 263.184 115.219 262.748 115.294 262.163C115.396 261.32 115.396 259.741 115.396 257.904V254.401H115.41Z" fill="black"/>
<path d="M149.86 250.557C149.622 249.815 149.397 249.339 149.118 249.135C148.901 248.992 148.499 248.958 148.316 248.958C148.119 248.958 147.996 248.938 147.996 248.781C147.996 248.638 148.159 248.604 148.438 248.604C149.479 248.604 150.581 248.666 150.758 248.666C150.934 248.666 151.819 248.604 152.975 248.604C153.254 248.604 153.397 248.666 153.397 248.781C153.397 248.938 153.233 248.958 153.036 248.958C152.873 248.958 152.676 248.958 152.533 249.04C152.356 249.121 152.315 249.257 152.315 249.482C152.315 249.741 152.512 250.421 152.757 251.326C153.097 252.645 154.954 258.707 155.315 259.83H155.376L159.26 249.407C159.457 248.849 159.6 248.686 159.756 248.686C159.974 248.686 160.076 248.985 160.334 249.625L164.497 259.687H164.558C164.919 258.347 166.517 253.067 167.218 250.727C167.36 250.264 167.415 249.849 167.415 249.564C167.415 249.244 167.238 248.965 166.456 248.965C166.258 248.965 166.116 248.904 166.116 248.788C166.116 248.645 166.279 248.611 166.578 248.611C167.639 248.611 168.476 248.672 168.659 248.672C168.802 248.672 169.659 248.611 170.319 248.611C170.537 248.611 170.68 248.652 170.68 248.774C170.68 248.911 170.578 248.972 170.401 248.972C170.203 248.972 169.918 248.992 169.7 249.074C169.217 249.251 169 250.053 168.578 251.196C167.66 253.72 165.558 260.075 164.578 263.082C164.361 263.782 164.259 264.02 164 264.02C163.803 264.02 163.681 263.782 163.381 263.041L159.219 253.02H159.178C158.797 254.04 156.138 261.122 155.281 262.959C154.9 263.782 154.798 264.02 154.56 264.02C154.362 264.02 154.281 263.803 154.097 263.279L149.86 250.557Z" fill="black"/>
<path d="M179.957 256.156C179.957 252.734 182.215 248.312 188.214 248.312C193.193 248.312 196.294 251.21 196.294 255.795C196.294 260.381 193.098 264 188.017 264C182.276 264 179.957 259.7 179.957 256.156ZM193.499 256.537C193.499 252.054 190.921 249.278 187.636 249.278C185.337 249.278 182.718 250.557 182.718 255.537C182.718 259.7 185.017 263 188.86 263C190.255 263 193.499 262.32 193.499 256.537Z" fill="black"/>
<path d="M210.394 261C210.435 262.558 210.693 263.082 211.095 263.218C211.435 263.34 211.816 263.361 212.135 263.361C212.353 263.361 212.475 263.401 212.475 263.524C212.475 263.687 212.299 263.721 212.013 263.721C210.714 263.721 209.911 263.66 209.53 263.66C209.353 263.66 208.408 263.721 207.374 263.721C207.116 263.721 206.932 263.701 206.932 263.524C206.932 263.401 207.055 263.361 207.252 263.361C207.51 263.361 207.871 263.34 208.15 263.258C208.666 263.095 208.748 262.517 208.769 260.775L208.945 248.931C208.945 248.53 209.007 248.251 209.204 248.251C209.421 248.251 209.605 248.509 209.945 248.87C210.183 249.128 213.224 252.387 216.148 255.292C217.509 256.653 220.209 259.53 220.549 259.85H220.651L220.454 250.87C220.433 249.652 220.256 249.271 219.774 249.067C219.474 248.945 218.991 248.945 218.712 248.945C218.474 248.945 218.393 248.883 218.393 248.768C218.393 248.604 218.61 248.591 218.91 248.591C219.95 248.591 220.909 248.652 221.331 248.652C221.549 248.652 222.311 248.591 223.29 248.591C223.548 248.591 223.752 248.611 223.752 248.768C223.752 248.89 223.63 248.945 223.392 248.945C223.195 248.945 223.031 248.945 222.793 249.006C222.236 249.169 222.072 249.584 222.052 250.707L221.834 263.326C221.834 263.769 221.753 263.946 221.576 263.946C221.358 263.946 221.113 263.728 220.896 263.503C219.637 262.306 217.073 259.68 214.999 257.625C212.815 255.462 210.598 252.965 210.238 252.584H210.17L210.394 261Z" fill="black"/>
<path d="M237.009 254.401C237.009 251.36 237.009 250.802 236.968 250.162C236.927 249.482 236.771 249.162 236.111 249.019C235.948 248.979 235.608 248.958 235.329 248.958C235.111 248.958 234.989 248.917 234.989 248.781C234.989 248.638 235.132 248.604 235.431 248.604C236.492 248.604 237.75 248.666 238.308 248.666C238.927 248.666 240.185 248.604 241.389 248.604C243.892 248.604 247.232 248.604 249.408 250.883C250.408 251.924 251.347 253.584 251.347 255.965C251.347 258.489 250.286 260.408 249.163 261.544C248.245 262.483 246.164 263.905 242.464 263.905C241.743 263.905 240.927 263.844 240.165 263.782C239.403 263.721 238.702 263.66 238.206 263.66C237.988 263.66 237.546 263.66 237.063 263.68C236.601 263.68 236.084 263.721 235.682 263.721C235.424 263.721 235.281 263.66 235.281 263.524C235.281 263.422 235.363 263.361 235.601 263.361C235.9 263.361 236.138 263.32 236.322 263.279C236.723 263.197 236.825 262.762 236.9 262.177C237.002 261.333 237.002 259.755 237.002 257.918V254.401H237.009ZM239.512 256.598C239.512 258.721 239.532 260.258 239.553 260.639C239.573 261.143 239.614 261.939 239.77 262.163C240.029 262.544 240.811 262.966 242.389 262.966C244.429 262.966 245.79 262.565 246.987 261.524C248.265 260.422 248.667 258.605 248.667 256.544C248.667 254.006 247.606 252.36 246.749 251.543C244.905 249.781 242.627 249.543 241.069 249.543C240.668 249.543 239.927 249.604 239.77 249.686C239.593 249.768 239.532 249.863 239.532 250.087C239.512 250.768 239.512 252.509 239.512 254.088V256.598Z" fill="black"/>
<path d="M264.324 254.401C264.324 251.36 264.324 250.802 264.283 250.162C264.242 249.482 264.086 249.162 263.426 249.019C263.263 248.979 262.923 248.958 262.644 248.958C262.426 248.958 262.304 248.917 262.304 248.781C262.304 248.638 262.447 248.604 262.746 248.604C263.283 248.604 263.868 248.625 264.365 248.625C264.882 248.645 265.344 248.666 265.623 248.666C266.263 248.666 270.241 248.666 270.622 248.645C271.003 248.604 271.323 248.564 271.479 248.523C271.581 248.502 271.697 248.441 271.799 248.441C271.901 248.441 271.921 248.523 271.921 248.618C271.921 248.761 271.819 248.999 271.758 249.917C271.738 250.115 271.697 250.999 271.656 251.237C271.636 251.339 271.595 251.455 271.459 251.455C271.316 251.455 271.282 251.353 271.282 251.176C271.282 251.033 271.262 250.693 271.16 250.455C271.017 250.094 270.82 249.856 269.82 249.734C269.48 249.693 267.378 249.652 266.977 249.652C266.875 249.652 266.834 249.713 266.834 249.849V254.911C266.834 255.054 266.854 255.129 266.977 255.129C267.419 255.129 269.718 255.129 270.173 255.088C270.656 255.047 270.956 254.986 271.132 254.788C271.275 254.625 271.35 254.53 271.452 254.53C271.534 254.53 271.595 254.571 271.595 254.693C271.595 254.816 271.513 255.135 271.432 256.156C271.411 256.557 271.35 257.353 271.35 257.496C271.35 257.659 271.35 257.877 271.173 257.877C271.03 257.877 270.996 257.795 270.996 257.7C270.976 257.503 270.976 257.238 270.915 256.979C270.813 256.578 270.534 256.278 269.793 256.197C269.412 256.156 267.432 256.136 266.949 256.136C266.847 256.136 266.827 256.217 266.827 256.333V257.911C266.827 258.591 266.807 260.428 266.827 261.013C266.868 262.394 267.188 262.694 269.228 262.694C269.745 262.694 270.588 262.694 271.105 262.456C271.622 262.218 271.867 261.796 272.003 260.973C272.044 260.755 272.085 260.673 272.221 260.673C272.384 260.673 272.384 260.837 272.384 261.034C272.384 261.496 272.221 262.857 272.126 263.252C271.983 263.769 271.806 263.769 271.044 263.769C269.541 263.769 268.446 263.728 267.582 263.707C266.725 263.667 266.099 263.646 265.501 263.646C265.283 263.646 264.841 263.646 264.358 263.667C263.896 263.667 263.379 263.707 262.977 263.707C262.719 263.707 262.576 263.646 262.576 263.51C262.576 263.408 262.658 263.347 262.896 263.347C263.195 263.347 263.433 263.306 263.617 263.265C264.018 263.184 264.12 262.748 264.195 262.163C264.297 261.32 264.297 259.741 264.297 257.904V254.401H264.324Z" fill="black"/>
<path d="M285.763 254.401C285.763 251.36 285.763 250.802 285.722 250.162C285.681 249.482 285.525 249.162 284.865 249.019C284.702 248.979 284.362 248.958 284.083 248.958C283.865 248.958 283.743 248.917 283.743 248.781C283.743 248.638 283.885 248.604 284.185 248.604C285.246 248.604 286.504 248.666 286.926 248.666C287.606 248.666 289.123 248.604 289.748 248.604C291.007 248.604 292.347 248.727 293.428 249.462C293.986 249.843 294.788 250.863 294.788 252.203C294.788 253.686 294.17 255.047 292.149 256.687C293.931 258.925 295.312 260.707 296.489 261.945C297.611 263.109 298.427 263.245 298.727 263.306C298.944 263.347 299.128 263.367 299.284 263.367C299.448 263.367 299.522 263.429 299.522 263.531C299.522 263.694 299.38 263.728 299.141 263.728H297.244C296.122 263.728 295.625 263.626 295.101 263.347C294.244 262.884 293.483 261.945 292.36 260.408C291.558 259.306 290.639 257.945 290.381 257.646C290.279 257.523 290.163 257.503 290.021 257.503L288.279 257.462C288.177 257.462 288.116 257.503 288.116 257.625V257.904C288.116 259.762 288.116 261.347 288.218 262.184C288.279 262.762 288.395 263.204 289 263.286C289.3 263.326 289.742 263.367 289.98 263.367C290.143 263.367 290.218 263.429 290.218 263.531C290.218 263.673 290.075 263.728 289.816 263.728C288.66 263.728 287.177 263.667 286.878 263.667C286.497 263.667 285.239 263.728 284.436 263.728C284.178 263.728 284.035 263.667 284.035 263.531C284.035 263.429 284.117 263.367 284.355 263.367C284.654 263.367 284.892 263.326 285.076 263.286C285.477 263.204 285.579 262.769 285.654 262.184C285.756 261.34 285.756 259.762 285.756 257.925V254.401H285.763ZM288.123 255.979C288.123 256.197 288.164 256.278 288.3 256.34C288.721 256.482 289.32 256.537 289.816 256.537C290.619 256.537 290.878 256.455 291.238 256.197C291.837 255.755 292.415 254.836 292.415 253.197C292.415 250.353 290.537 249.536 289.354 249.536C288.851 249.536 288.497 249.557 288.293 249.618C288.15 249.659 288.116 249.74 288.116 249.897V255.979H288.123Z" fill="black"/>
<path d="M312.16 257.918C312.16 260.476 312.16 261.857 312.581 262.218C312.922 262.517 313.438 262.66 315.003 262.66C316.064 262.66 316.839 262.639 317.343 262.102C317.581 261.843 317.826 261.279 317.86 260.905C317.88 260.728 317.921 260.605 318.077 260.605C318.22 260.605 318.24 260.707 318.24 260.945C318.24 261.163 318.098 262.667 317.941 263.245C317.819 263.687 317.723 263.782 316.683 263.782C315.241 263.782 314.2 263.741 313.302 263.721C312.405 263.68 311.684 263.66 310.861 263.66C310.643 263.66 310.201 263.66 309.718 263.68C309.255 263.68 308.739 263.721 308.337 263.721C308.079 263.721 307.936 263.66 307.936 263.524C307.936 263.422 308.018 263.361 308.256 263.361C308.555 263.361 308.793 263.32 308.977 263.279C309.378 263.197 309.48 262.762 309.555 262.177C309.657 261.333 309.657 259.755 309.657 257.918V254.394C309.657 251.353 309.657 250.795 309.616 250.156C309.575 249.475 309.419 249.155 308.759 249.013C308.596 248.972 308.358 248.951 308.099 248.951C307.882 248.951 307.759 248.911 307.759 248.774C307.759 248.632 307.902 248.598 308.201 248.598C309.14 248.598 310.398 248.659 310.942 248.659C311.425 248.659 312.881 248.598 313.663 248.598C313.942 248.598 314.085 248.638 314.085 248.774C314.085 248.911 313.962 248.951 313.724 248.951C313.506 248.951 313.187 248.972 312.942 249.013C312.405 249.115 312.241 249.455 312.201 250.156C312.16 250.795 312.16 251.353 312.16 254.394V257.918Z" fill="black"/>
<path d="M331.755 258.496C331.653 258.496 331.612 258.537 331.578 258.66L330.497 261.517C330.3 262.02 330.198 262.497 330.198 262.735C330.198 263.095 330.374 263.354 331 263.354H331.299C331.538 263.354 331.599 263.395 331.599 263.517C331.599 263.68 331.476 263.714 331.259 263.714C330.619 263.714 329.756 263.653 329.137 263.653C328.919 263.653 327.817 263.714 326.776 263.714C326.518 263.714 326.396 263.673 326.396 263.517C326.396 263.395 326.477 263.354 326.634 263.354C326.81 263.354 327.096 263.333 327.253 263.313C328.171 263.19 328.552 262.51 328.953 261.51L333.972 248.951C334.211 248.373 334.333 248.149 334.53 248.149C334.707 248.149 334.83 248.325 335.027 248.788C335.51 249.89 338.706 258.047 339.985 261.088C340.747 262.891 341.325 263.17 341.747 263.272C342.046 263.333 342.345 263.354 342.59 263.354C342.747 263.354 342.849 263.374 342.849 263.517C342.849 263.68 342.672 263.714 341.93 263.714C341.209 263.714 339.747 263.714 338.149 263.673C337.788 263.653 337.55 263.653 337.55 263.51C337.55 263.388 337.632 263.347 337.829 263.333C337.972 263.292 338.108 263.116 338.006 262.871L336.407 258.632C336.367 258.53 336.305 258.489 336.21 258.489H331.755V258.496ZM335.836 257.496C335.938 257.496 335.959 257.435 335.938 257.374L334.136 252.435C334.115 252.353 334.095 252.258 334.034 252.258C333.972 252.258 333.932 252.36 333.911 252.435L332.068 257.353C332.048 257.435 332.068 257.496 332.15 257.496H335.836Z" fill="black"/>
<path d="M354.874 261C354.915 262.558 355.173 263.082 355.574 263.218C355.915 263.34 356.295 263.361 356.615 263.361C356.833 263.361 356.955 263.401 356.955 263.524C356.955 263.687 356.778 263.721 356.493 263.721C355.194 263.721 354.391 263.66 354.01 263.66C353.833 263.66 352.888 263.721 351.854 263.721C351.595 263.721 351.412 263.701 351.412 263.524C351.412 263.401 351.534 263.361 351.732 263.361C351.99 263.361 352.35 263.34 352.629 263.258C353.146 263.095 353.228 262.517 353.248 260.775L353.425 248.931C353.425 248.53 353.486 248.251 353.684 248.251C353.901 248.251 354.085 248.509 354.425 248.87C354.663 249.128 357.703 252.387 360.628 255.292C361.988 256.653 364.689 259.53 365.029 259.85H365.131L364.933 250.87C364.913 249.652 364.736 249.271 364.253 249.067C363.954 248.945 363.471 248.945 363.192 248.945C362.954 248.945 362.873 248.883 362.873 248.768C362.873 248.604 363.09 248.591 363.389 248.591C364.43 248.591 365.389 248.652 365.811 248.652C366.028 248.652 366.79 248.591 367.77 248.591C368.028 248.591 368.232 248.611 368.232 248.768C368.232 248.89 368.11 248.945 367.872 248.945C367.674 248.945 367.511 248.945 367.273 249.006C366.715 249.169 366.552 249.584 366.532 250.707L366.314 263.326C366.314 263.769 366.233 263.946 366.056 263.946C365.838 263.946 365.593 263.728 365.376 263.503C364.117 262.306 361.553 259.68 359.479 257.625C357.295 255.462 355.078 252.965 354.717 252.584H354.656L354.874 261Z" fill="black"/>
<path d="M381.489 254.401C381.489 251.36 381.489 250.802 381.448 250.162C381.407 249.482 381.25 249.162 380.591 249.019C380.427 248.979 380.087 248.958 379.808 248.958C379.591 248.958 379.468 248.917 379.468 248.781C379.468 248.638 379.611 248.604 379.911 248.604C380.972 248.604 382.23 248.666 382.788 248.666C383.407 248.666 384.665 248.604 385.869 248.604C388.372 248.604 391.711 248.604 393.888 250.883C394.888 251.924 395.826 253.584 395.826 255.965C395.826 258.489 394.765 260.408 393.65 261.544C392.732 262.483 390.65 263.905 386.95 263.905C386.229 263.905 385.413 263.844 384.651 263.782C383.889 263.721 383.189 263.66 382.692 263.66C382.475 263.66 382.033 263.66 381.55 263.68C381.087 263.68 380.57 263.721 380.169 263.721C379.911 263.721 379.768 263.66 379.768 263.524C379.768 263.422 379.849 263.361 380.087 263.361C380.387 263.361 380.625 263.32 380.808 263.279C381.21 263.197 381.312 262.762 381.386 262.177C381.488 261.333 381.489 259.755 381.489 257.918V254.401ZM383.985 256.598C383.985 258.721 384.005 260.258 384.025 260.639C384.046 261.143 384.087 261.939 384.243 262.163C384.502 262.544 385.284 262.966 386.862 262.966C388.902 262.966 390.263 262.565 391.46 261.524C392.738 260.422 393.14 258.605 393.14 256.544C393.14 254.006 392.079 252.36 391.222 251.543C389.378 249.781 387.1 249.543 385.542 249.543C385.141 249.543 384.4 249.604 384.243 249.686C384.066 249.768 384.005 249.863 384.005 250.087C383.985 250.768 383.985 252.509 383.985 254.088V256.598Z" fill="black"/>
</g>
<path d="M5.99336 8.06328C6.6451 12.2114 6.55405 19.1443 5.34161 22.162L0.918335 20.4154C2.59563 17.4899 4.03811 13.0604 4.17708 8.06328H5.99336ZM7.67065 0.140597H12.2329V43.7516H7.67065V0.140597ZM14.423 18.9988C14.0492 15.9811 13.3495 12.2551 12.4198 8.43686L14.0492 7.77699C16.0044 10.7947 17.6817 14.0938 18.6593 17.7713L14.423 18.9988ZM43.6223 38.376L39.9897 43.8923C34.7278 40.7339 29.7918 34.2715 28.0186 25.267C26.4372 33.9902 22.057 39.977 13.7664 44.0815L12.6498 42.3834C19.4501 37.527 22.335 32.1029 23.3605 24.1851H14.5571V21.735H23.6385C23.8254 19.7071 23.8733 17.5384 23.8733 15.1805V10.8918H17.0731V8.48543H23.8733V0H28.7183V8.48543H38.4993V21.735H42.6926V24.1851H29.8828C32.3508 31.3994 36.961 35.499 43.6223 38.376ZM28.4883 21.7302H33.846V10.8869H28.7231V16.4517C28.7231 18.2905 28.632 20.0806 28.4883 21.7302Z" fill="white"/>
<path d="M90.4588 37.3665L87.8665 42.3907C82.5848 40.5598 76.3565 36.9463 72.4389 31.4971V44.0815H67.5796V32.2024C63.429 37.0864 55.3122 41.2651 49.8412 42.6226L49.1325 40.7916C54.8899 38.5405 61.1134 34.4536 64.7931 29.3812H50.3558V26.985H67.5747V23.4635H72.4341V26.985H89.8423V29.3812H73.6137C78.0507 33.4681 84.0412 35.9994 90.454 37.3617L90.4588 37.3665ZM53.0452 20.2799C54.3656 18.2606 55.8268 15.9611 57.1472 13.4732C54.9287 14.4587 53.186 15.1158 51.4383 15.4926L50.3995 11.222C51.1519 11.222 51.9092 11.2704 52.6617 11.222C53.9821 7.51196 54.9724 3.5217 55.4433 0.37682L59.7832 1.78255C58.4628 4.92744 56.623 8.58919 54.8753 11.1737C56.1035 11.1254 57.2832 10.9853 58.4628 10.8452C59.2153 9.29453 59.924 7.70036 60.492 6.14966L63.8416 7.7921V5.44437H68.2301C68.4194 3.5217 68.4679 1.54587 68.6087 0L73.1865 0.75364C72.5749 2.16425 71.5845 3.94682 70.5457 5.44921H76.206V10.8501C76.7255 10.8984 77.1963 10.9418 77.7158 10.9418C78.9876 7.42013 79.7935 3.85498 80.4052 0.565171L84.6965 1.9275C83.3276 5.12069 81.5848 8.12544 79.745 10.9418C80.9246 10.9418 82.1042 10.85 83.3324 10.7051C83.9926 9.25103 84.6043 7.79209 85.1723 6.33801L89.1336 8.35739C86.682 12.3477 83.7548 16.3379 80.8761 19.5794C82.3373 19.4393 83.7548 19.2992 85.1674 19.0625C84.9781 18.077 84.7451 17.0915 84.4587 16.0577L86.1092 15.5408C87.5704 17.8403 88.9879 20.7968 89.6967 23.1929L85.9247 24.1784L85.5024 21.0335C82.9052 22.2992 79.7935 23.3813 77.0556 23.9465L76.206 19.9079V22.676H64.4096L64.6475 23.6131L60.9192 24.5069C60.827 23.5214 60.6813 22.4875 60.5405 21.4537C57.7589 22.9078 54.0792 24.1783 51.482 24.8353L50.3946 20.3282C51.2442 20.3282 52.1422 20.3282 53.0355 20.2799H53.0452ZM55.4967 20.0914C57.1472 19.903 58.7541 19.6664 60.2638 19.4345C60.0745 18.3524 59.8852 17.275 59.6522 16.2412L61.3027 15.6761C62.3416 17.2703 63.1911 19.0577 63.8513 20.9321V9.00948C61.5406 12.8597 58.3317 17.0866 55.5016 20.0914H55.4967ZM67.667 12.3911H72.2447V7.7921H67.667V12.3911ZM67.667 20.3234H72.2447V14.6906H67.667V20.3234ZM76.206 12.1061V19.6664H78.5168C79.745 17.7872 80.9683 15.6277 82.1042 13.3282C80.1721 14.1253 78.376 14.6905 76.8662 15.019L76.206 12.1061Z" fill="white"/>
<path d="M95.969 38.5213H114.47V23.1198H100.593V20.4992H114.47V6.93762H98.2585V4.13263H135.943V6.93762H119.926V20.4992H134.044V23.1198H119.926V38.5213H138.673V41.3264H95.974V38.5213H95.969Z" fill="white"/>
<path d="M184.132 2.75507V43.9429H179.34V41.6685H150.353V44.0815H145.561V2.75507H184.127H184.132ZM179.34 5.12502H150.353V39.3033H179.34V5.12502ZM152.221 35.5429L150.831 31.5006C155.815 30.7122 161.514 29.1306 165.251 27.8309L165.921 29.5033C162.376 31.7299 156.673 34.2385 152.221 35.5381V35.5429ZM165.206 14.1367H151.215V11.8145H165.108C165.058 9.95575 165.014 8.05408 165.014 6.24315H169.135C169.135 8.14486 169.135 10.0035 169.229 11.8145H173.395C172.483 9.95575 171.24 7.77214 170.378 6.33391L171.911 5.26361C173.444 6.37692 175.697 8.65137 176.895 10.3237L174.598 11.8097H178.477V14.1319H169.328C169.52 17.9401 169.904 21.4234 170.432 24.2999C171.63 21.8391 172.493 19.1012 173.114 16.0336L176.994 17.3333C175.796 21.6049 174.07 25.504 171.674 28.8487C172.438 30.846 173.4 32.1934 174.548 32.6569C175.505 33.0296 175.653 31.1231 175.697 26.2494H177.615C179.532 35.629 177.664 37.9988 174.548 37.392C171.96 36.8807 170.092 35.0221 168.701 32.2842C166.212 34.7449 163.19 36.7899 159.502 38.319L158.59 36.6944C162.327 34.5108 165.251 32.05 167.454 29.1736C166.113 24.9497 165.492 19.6077 165.201 14.1271L165.206 14.1367ZM152.512 27.2336V17.0657H163.821V27.2336H152.512ZM156.249 25.0978H160.128V19.2016H156.249V25.0978Z" fill="white"/>
<path d="M195.598 13.0105H195.322V39.9489H191.02V6.88776H197.216C203.226 16.9781 207.804 25.0846 212.615 33.8261H212.891V6.88776H217.193V39.9489H211.183C204.154 27.5596 199.528 19.6802 195.598 13.0105Z" fill="white"/>
<path d="M224.081 23.1854C224.081 13.9951 229.117 5.51019 239.923 5.51019C250.729 5.51019 255.764 13.6736 255.764 23.1854C255.764 32.6973 251.166 41.3742 239.923 41.3262C228.724 41.3262 224.081 32.323 224.081 23.1854ZM249.894 23.3727C249.894 15.8188 246.327 8.96086 239.575 8.96086C232.824 8.96086 229.942 15.7708 229.942 23.4206C229.942 31.0704 233.609 37.8324 239.867 37.8324C246.125 37.8324 249.888 31.0705 249.888 23.3727H249.894Z" fill="white"/>
<path d="M262.679 39.9479C260.361 39.9022 258.519 38.3474 258.519 36.5274C258.519 34.5702 260.361 33.1068 262.679 33.0611C264.942 33.0611 266.729 34.5702 266.784 36.5274C266.838 38.3474 264.942 39.9936 262.679 39.9479Z" fill="white"/>
<path d="M294.83 15.343C294.83 21.485 289.605 27.3467 282.157 33.7641L279.296 36.2105V36.486H295.713V39.9488H272.295V37.1796L276.237 33.9921C284.177 27.4844 288.956 20.7915 289.057 15.8513C289.153 10.9586 287.231 8.60255 282.056 8.60255C278.606 8.55505 275.451 10.1274 273.279 11.8327V7.81882C275.451 6.75479 279.195 5.51019 283.04 5.51019C290.828 5.51019 294.825 9.06329 294.825 15.343H294.83Z" fill="white"/>
<defs>
<clipPath id="clip0_26_671">
<rect width="457" height="195" fill="white" transform="translate(0 69)"/>
</clipPath>
</defs>
</svg>
