<svg width="421" height="143" viewBox="0 0 421 143" fill="#FFF" xmlns="http://www.w3.org/2000/svg">
<path d="M131.9,42.2l-15-8.4l-5.4,9.7h-7.3L122,8.2l-15.3-7.6l-22,43.5v16.5H102L84.7,92v16.2h43.8V91h-23.7M128.6,122.5H85.3v17.2h43.3V122.5z M146.9,72.9l-12.1,12.2l12.1,12.1L159,85.1 M182.1,94l32.6,38.4l13-11.1L209,99.5l16.7-15l-11.5-12.7l-16.4,14.8l-14.5-16.9L132.2,119l11.8,12.3L182.1,94z M170.3,125.6H158v17.2h29.3v-74h39.2V51.6h-7.6V0.3h-82.1v17.2h64.9v8.3h-64.9V43h64.9v8.6h-71.5v17.2h40.1 M308.8,70.9l-15.3-15.3l-15.1,15.3L293.5,86 M308.8,125.4l-15.3-15l-15.1,15.3l15.1,15.1 M412,19.3h8.9V2.1H319v17.2h75.8v106.5h-23.7v17H412 M308.8,15.3L293.5,0.2l-15.1,15.3l15.1,15.1 M381.6,38.4h-58.4v71.1h58.4 M364.5,92.4h-24.2V55.6h24.2 M50.8,20.1c0,0.2-1.4,2.8-10.2,2.8V0.3l12.8,1c-0.1,1-0.6,1.6-2.6,1.8 M27.3,20.6L27.3,20.6c0,0.1-1.6,2.8-10,2.8V0.3l12.7,1c-0.1,0.9-0.6,1.5-2.6,1.8 M0.9,12.2l-0.3-1.1H54l5-7.2l9,7.3c-0.5,0.8-1.3,1.1-3.1,1.1 M20.6,29.3l-5.1,8.4c0.2,0.6,0.3,1.5-0.6,2.1l-4.3-7.5c2.6-1,6.8-3.2,9.2-4.6l0.6-3.3l3.2,1.4l-2.4,2.4c6.1,15.3,23.5,25.4,46.5,29.5l-0.1,0.9c-4.8,0.8-7.9,4.1-9.5,9.2C42.4,62.3,27,51.9,20.6,29.3z M58.1,28.2c-0.4,0.8-1.1,1.4-2.9,1.2C46,51.3,28.2,64,1.4,67.7l-0.3-0.8c21.7-6.5,37.8-21.4,44-43.7 M52.2,120.3l5.3-6.8l9.7,6.9l0,0c-0.5,0.8-1.4,1-3.5,1h-25c5.7,8.1,17.9,10.1,30.1,10.7v0.9c-3.9,1.3-6.3,4.7-7.3,9.7c-12-3.5-20-8.6-24-21.2H1.9l-0.4-1.1 M41.1,110.4c-0.1,0.9-0.7,1.5-2.8,1.8c-1.4,14.3-2.8,25.3-36.4,30.5l-0.4-1c22.3-7.8,24.9-16.7,25.1-32.2 M38.8,106.8h14l5.2-6.9l9.5,7c-0.6,0.8-1.5,1-3.6,1H2l-0.4-1.1l0,0h26.5V87.3H4.5l-0.4-1.1h46.8l5-6.5l9.3,6.6c-0.5,0.8-1.5,1-3.4,1h-23 M7.8,97.7l-0.4-1.1h40.4l4.8-6l8.9,6.1c-0.5,0.8-1.5,1-3.4,1 M39.4,87c1.2-3.2,2.6-9.2,3.1-12.5l13.2,4.1c-0.3,0.8-0.9,1.2-2.8,1.1C50.3,81.8,42.1,86.2,39.4,87z M16.7,84c0.1-3.1-0.7-6.8-2.6-8.9l0.4-0.4C38.1,76.3,23.5,92.4,16.7,84z M253,14.9v4.9c0,0.2-0.3,0.2-0.3,0c0-0.3,0.2-1.2-1.1-1.2h-4.4c-2-4.2-0.9-12.3,5.5-12.3c7.8,0,7.7,8,6.5,12.2c-4.4,0-3.3-0.4-3-0.4c3.2,0,4.9-9.4-2.6-9.4c-5.3,0-7.3,4.6-6.1,7.8h4.1c1.3,0,1.1-1.1,1.1-1.5C252.7,14.7,253,14.7,253,14.9z M251.9,26.2c0,0.5,0,1.3,0,1.8c-5.9,4.2-5.4,3.9-5.4,7.7c0,0.4,0.3,0.4,0.3,0c0-1.8,2.1-3.1,5.7-6c2.2,3.1,6.9,3.7,6.9-2.2c0-2,0-4.5,0-4.8s-0.3-0.3-0.3,0c0,1.1-0.2,1.4-1.4,1.4h-8.1c-2.9,0-2.9-0.2-2.9-1.2c0-0.3-0.3-0.3-0.3,0v4.8c0,0.3,0.3,0.3,0.3,0c0-1.4,0-1.6,2.9-1.6h2.3V26.2z M258.6,26.2c0.4,0.7,0.3,3.7-2.9,3.7c-2.8,0-3.4-1.5-2.8-3.7H258.6zM246.6,85c0,0.3,0.3,0.3,0.3,0c0-1.4,0-1.6,2.9-1.6h2.2c0,0.5,0,1.3,0,1.8c-5.9,4.2-5.4,3.9-5.4,7.7c0,0.4,0.3,0.4,0.3,0c0-1.8,2.1-3.1,5.7-6c2.2,3.1,6.9,3.7,6.9-2.2c0-2,0-4.5,0-4.8s-0.3-0.3-0.3,0c0,1.1-0.2,1.4-1.4,1.4h-8.1c-2.9,0-2.9-0.2-2.9-1.2c0-0.3-0.3-0.3-0.3,0L246.6,85L246.6,85z M258.6,83.4c0.4,0.7,0.3,3.7-2.9,3.7c-2.8,0-3.4-1.5-2.8-3.7H258.6z M258.6,51.8c0,2.8,0.1,3.8-1.1,3.8c-0.4,0-1.5,0.3,2.2,0.6c-0.5-0.8-0.2-3.2-0.2-8c0-0.3-0.3-0.3-0.3,0c0,1.3-0.2,1.5-1.7,1.5h-8c-2.5,0-2.6-0.2-2.6-1.2c0-0.3-0.3-0.3-0.3,0v7.8c3.3,0.7,2.7,0.1,2.4,0c-0.9-0.2-1.5-0.3-1.5-2.4s0.5-2.1,2.1-2.1h3.5c0,3.3,0,3.4-1.2,3.6c-0.4,0-0.3,0.3-0.1,0.3c0.5,0,1.7,0.1,2.5,0.2c0.3,0,0.3-0.1-0.1-0.4c-0.2-0.2-0.3-0.7-0.3-3.7C253.9,51.8,258.6,51.8,258.6,51.8z M258.6,40.2c0,2.8,0.1,3.8-1.1,3.8c-0.4,0-1.5,0.3,2.2,0.6c-0.5-0.8-0.2-3.2-0.2-8c0-0.3-0.3-0.3-0.3,0c0,1.3-0.2,1.5-1.7,1.5h-8c-2.5,0-2.6-0.2-2.6-1.2c0-0.3-0.3-0.3-0.3,0v7.8c3.3,0.7,2.7,0.1,2.4,0c-0.9-0.2-1.5-0.3-1.5-2.4s0.5-2.1,2.1-2.1h3.5c0,3.3,0,3.4-1.2,3.6c-0.4,0-0.3,0.3-0.1,0.3c0.5,0,1.7,0.1,2.5,0.2c0.3,0,0.3-0.1-0.1-0.4c-0.2-0.2-0.3-0.7-0.3-3.7C253.9,40.2,258.6,40.2,258.6,40.2z M246.6,63.9c0,0.3,0.3,0.3,0.3,0c0-1.1,0.1-1.6,2-1.6l7.1-0.2l-9.2,9.1c-0.8,0.7-0.6,0.9,0.2,0.9l10.2,0.1c1.8,0,1.9,0.2,1.9,1.3c0,0.3,0.3,0.3,0.3,0v-4.2c0-0.3-0.3-0.3-0.3,0c0,1.1-0.1,1.5-2,1.5l-7.4,0.2l9.4-9.2c0.8-0.7,0.6-0.8-0.2-0.9L248.8,61c-1.8,0-1.9-0.2-1.9-1.3c0-0.3-0.3-0.3-0.3,0V63.9z M259.8,100.2c0,10-13.4,8.8-13.4-0.1C246.3,90.9,259.8,91,259.8,100.2z M258.9,99.6c0-5.6-11.8-5.4-11.8,1.4C247.2,106.3,258.9,106.4,258.9,99.6z M259,115.4l-10,4.1c-2,0.9-2.1,1.4-2.1,2.3c0,0.3-0.3,0.3-0.3,0v-4c0-0.4,0.3-0.4,0.3-0.1c0,0.2,0.1,0.3,0.6,0.1l3.4-1.3v-4.2l-2.6-1c-1-0.4-1.5-0.4-1.5,0.7c0,0.4-0.3,0.4-0.3,0v-3.9c0-0.4,0.3-0.4,0.3,0c0,0.9,0.1,1.3,1.9,2l10.1,4.1C260.1,114.8,260,115,259,115.4z M256.5,114.5l-4.7-1.8v3.5L256.5,114.5zM259.5,123.2c0,0,0,3.7,0,6.1c0,5.7-3,7.7-6.3,7.7c-3.8,0-6.7-2.5-6.7-7.3c0-2.7,0-6.2,0-6.2c0-0.3,0.3-0.3,0.3,0c0,1-0.1,1.2,2.9,1.2h8.1c1.2,0,1.4-0.3,1.4-1.4C259.2,122.9,259.5,122.9,259.5,123.2z M258.6,126.8c0,0-8.4,0-10.4,0c-1.4,0.9-2.1,7.9,4.2,7.9C258.6,134.7,259.2,129.3,258.6,126.8z"/>
</svg>
