<?xml version="1.0" encoding="utf-8"?>
<!-- Generator: Adobe Illustrator 26.5.0, SVG Export Plug-In . SVG Version: 6.00 Build 0)  -->
<svg version="1.1" id="圖層_1" xmlns="http://www.w3.org/2000/svg" xmlns:xlink="http://www.w3.org/1999/xlink" x="0px" y="0px"
	 viewBox="0 0 760 313" style="enable-background:new 0 0 760 313;" xml:space="preserve">
<style type="text/css">
	.st0{fill:url(#SVGID_1_);}
	.st1{opacity:0.42;fill:#FFFFFF;}
</style>
<g>
	<g>
		<linearGradient id="SVGID_1_" gradientUnits="userSpaceOnUse" x1="1.9" y1="190.5" x2="761.4999" y2="190.5">
			<stop  offset="5.618000e-03" style="stop-color:#E6C57C"/>
			<stop  offset="0.6583" style="stop-color:#DFBD7C"/>
			<stop  offset="1" style="stop-color:#D1A450"/>
		</linearGradient>
		<path class="st0" d="M738.1,91v0.5H624.9c-6.3-4.7-14.4-7.1-22.5-8.1v22.7h-19.2v11.6h19.2v189.2c7.8,0.3,16.2-0.3,23.5-6.3v-16.2
			H738V298c6.3,7.3,18.8,8.1,23.5,6.8V82.4L738.1,91z M626,153l0.1,0.3h109.2l1.5-2.9h-48V128h34.5l1.6-2.9h-36.1v-11.7
			c2.7-1.2,4.3-3.5,5-7.2l-21.2-5.3v24.2h-36.3l1.1,2.9h35.2v22.4H626v-55h112.1v150.5c-11.7-2.9-21-8.1-28.7-15.1l26.7-17.2
			l-14.6-18.1l-1.2,2.7v-35.9l-14.4,6.2h-51.1c-4-3.5-8.9-5.5-14.9-6.4v48.2c5,0.2,10.8-0.4,15.4-4.5v-6.2h10.8
			c-9.5,18.6-25.8,41.9-40.1,54.5V153z M706,199.5c3.4,4.1,8,5.1,11.4,5.1l-10.6,23.6c-7.3-7.6-13.3-17.2-18.6-28.7H706z
			 M655.3,196.5v-24.6h50.6v24.6H655.3z M626,280.2v-24.7c11.1-3.9,21-10.2,30-18v19.1l-4.3,1.8l8.8,21.8H626z M738.2,280.2
			L738.2,280.2h-76.5c1.3-1.4,1.9-3.1,2.1-5.4l33.7-35.5L671,250.5v-27.9c6-7,11.3-14.6,16.1-22c6.6,41.9,20.1,61.4,42,73.1
			c2.7-8.3,5.8-15.7,9.1-22.1V280.2z M444.4,196h-0.1h-17.5v-35.4c2.1-0.6,4.4-3.1,4.9-7.7l-22.5-5.1v63.5
			c3.7,0.6,14.3-0.7,17.6-6.1v-6.4h17.6v36h-41.1l1,2.9h7.6c0.6,30.8-6.2,54.7-17,74.6c20-17.4,30.1-29.9,31.7-74.6h17.8v73.6
			c3.7,0.6,13.1-0.7,16.4-6.1V157.4c2.3-0.6,4.5-2.9,5.1-7.7l-21.5-5.1V196z M374.1,221.4c-7.8,28.2-15.4,55.7-29.3,55.7h-42.1
			c-10.5,0-13.6-2.9-13.6-17.8l-0.2-99.3l18.6-7.3v98.6c2.9,0.8,17.3-1.6,21.2-6v-31.1c9.1,7.3,10.2,18.8,10.2,23.8
			c27.7-6.3,27.7-23.8,28.2-36.9l1.1-54h11.3v-11.6h-11l0.2-11.8l-14.6,6.5l-25.6,9.9V86.2c5.8,0.3,8.4-5.2,8.1-8.9l-29-6v76.9
			l-18.6,7.3v-44.7c5.2,0.8,8.9-6.5,7.6-10.5l-28.7-6v69.3l-16,6.3l2.6,3.4l13.3-5.2v58.6l-27.7,7.1v-78.7h23.5l2.1-4.4h-25.6v-64
			c4.7,0,7.3-2.1,8.4-8.9l-30.3-6.5v79.5h-20.4l1.6,4.4h18.8v35.2h-51.4v4.5h51.4v44.5l-22,5.5l11,33.5c2.1-0.8,4.7-3.4,4.7-8.1
			l55.9-43.1v36.6c0,31.9,7.6,34.8,24,34.8h55.7c24.3,0,31.6,1.3,34.8-19.6C372,268,373,241,374.1,221.4z M347.4,137.2l-1.6,62.2
			c-0.5,8.1,0,14.4-7.8,13.3l-9.4-1.6l-0.3-66.6L347.4,137.2z M102.9,230h75.8l2.4-5h-80.8c1-4.4,2.1-9.1,2.9-14.1
			c4.7-0.3,7.6-3.7,8.4-7.8l-33.8-10.3c-0.5,12-2.1,22.7-4.5,32.1H8.5l2.1,5H72c-11.5,41.6-38.7,60.9-70.1,76.6
			c60.7-8.1,85.5-32.2,97-76.6h1.6c9.4,38.4,29.8,66.1,65.9,74.8c1.3-7.6,6.3-18,17.2-35.3C146.8,267.7,119.9,251.8,102.9,230z
			 M573.9,209.5l2.1-4.5h-47.2v-49.2c4.4,1.3,7.4-3.1,6.5-6.3l-29-5v60.4h-36.2l1.4,4.6h34.8l0.6,87h-32.7l0.8,4.1h96.7l2.6-4.1h-17
			v-87H573.9z M531.6,296.5h-2.2l-0.6-87h2.8V296.5z M536.3,296.5h-2.5v-87h2.5V296.5z M541,296.5h-2.5v-87h2.5V296.5z M545.7,296.5
			h-2.5v-87h2.5V296.5z M550.4,296.5h-2.5v-87h2.5V296.5z M555.1,296.5h-2.5v-87h2.5V296.5z M524.5,91.4c3.4-1,6.8-4.2,7.6-8.9
			l-29.3-5.6v28.6h-41.6V91.9c2.9-1,6.5-4.2,7.3-8.9L440,77.2v28.1h-47l1.8,4.5H440V136c4.7,0,15.7-0.2,21.2-5.9v-20.2h41.6v24.4
			c4.5,0,16.5-0.2,21.7-5.9v-18.5h49.1l2.4-4.5h-51.5V91.4z M177.1,189l2.6-4.4h-76.1v-32.4h58.5l2.4-4.4h-60.9v-30.6h70.6l2.3-4.4
			h-57.2c7.8-6.8,17.3-13.6,24-25.4c4.4,0,7.3-2.1,8.9-7.1l-33.1-11.5l-5.2,43.9H67.3c7.3-5.2,13.6-14.9,11.5-25.4
			c-2.6-11.5-17.7-14.9-34-16.2c5.7,12,8.9,22.7,14.6,41.6H12.2l2.1,4.4h33.6v30.6H21.8l1.8,4.4h24.3v32.4H5.4v0.1l1.8,4.4H177.1z
			 M73.7,117h6.2v30.6h-6.2V117z M73.7,152h6.1v32.4h-6.1V152z M69,117h2.5v30.6H69V117z M69,152h2.5v32.4H69V152z M64.3,117h2.5
			v30.6h-2.5V117z M64.3,152h2.5v32.4h-2.5V152z M59.6,117h2.5v30.6h-2.5V117z M59.6,152h2.5v32.4h-2.5V152z M54.8,117h2.6v30.6
			h-2.6V117z M54.8,152h2.6v32.4h-2.6V152z M50.1,117h2.5v30.6h-2.5V117z M50.1,152h2.5v32.4h-2.5V152z"/>
	</g>
</g>
<path class="st1" d="M213.3,2.2l-4.8,0.1c-1.9,0.1-2.6,0.2-3.1,0.9c-0.3,0.5-0.5,0.9-0.5,1.1c-0.1,0.3-0.2,0.4-0.4,0.4
	s-0.3-0.2-0.3-0.5c0-0.5,0.6-3.4,0.7-3.7c0.1-0.4,0.2-0.6,0.4-0.6c0.3,0,0.6,0.3,1.4,0.4c0.9,0.1,2.1,0.2,3.2,0.2h12.7
	c1,0,1.7-0.1,2.2-0.2s0.7-0.2,0.9-0.2s0.3,0.2,0.3,0.7c0,0.7-0.1,2.9-0.1,3.7c0,0.3-0.1,0.5-0.3,0.5c-0.3,0-0.3-0.2-0.4-0.6V4
	c-0.1-0.8-0.9-1.7-3.8-1.8l-4-0.1v13.1c0,2.9,0,5.5,0.2,6.8c0.1,0.9,0.3,1.6,1.2,1.7c0.4,0.1,1.2,0.1,1.6,0.1c0.4,0,0.5,0.1,0.5,0.3
	c0,0.2-0.3,0.3-0.6,0.3c-2.1,0-4.1-0.1-5-0.1c-0.7,0-2.8,0.1-4,0.1c-0.4,0-0.6-0.1-0.6-0.3c0-0.2,0.1-0.3,0.5-0.3
	c0.5,0,0.9-0.1,1.2-0.1c0.6-0.1,0.8-0.8,0.9-1.8c0.2-1.3,0.2-3.9,0.2-6.8V2.2H213.3z M248.2,10.6c0.1,0,0.2-0.1,0.2-0.2V9.7
	c0-4.9,0-5.8-0.1-6.8c-0.1-1.1-0.3-1.6-1.4-1.8C246.6,1,246.1,1,245.7,1s-0.5-0.1-0.5-0.3s0.2-0.3,0.7-0.3c1.7,0,3.7,0.1,4.6,0.1
	c0.8,0,2.8-0.1,4-0.1c0.4,0,0.7,0.1,0.7,0.3S255,1,254.6,1c-0.3,0-0.5,0-0.9,0.1c-0.9,0.2-1.1,0.7-1.2,1.8c-0.1,1-0.1,1.9-0.1,6.8
	v5.6c0,2.9,0,5.5,0.2,6.8c0.1,0.9,0.3,1.6,1.2,1.7c0.4,0.1,1.2,0.1,1.6,0.1c0.4,0,0.5,0.1,0.5,0.3c0,0.2-0.3,0.3-0.6,0.3
	c-2.1,0-4.1-0.1-5-0.1c-0.7,0-2.7,0.1-4,0.1c-0.4,0-0.7-0.1-0.7-0.3c0-0.2,0.1-0.3,0.5-0.3c0.5,0,0.9-0.1,1.2-0.1
	c0.6-0.1,0.8-0.8,0.9-1.8c0.2-1.3,0.2-3.9,0.2-6.8v-2.8c0-0.1-0.1-0.2-0.2-0.2H236c-0.1,0-0.2,0-0.2,0.2v2.8c0,2.9,0,5.5,0.2,6.8
	c0.1,0.9,0.3,1.6,1.2,1.7c0.4,0.1,1.2,0.1,1.6,0.1c0.4,0,0.5,0.1,0.5,0.3c0,0.2-0.3,0.3-0.6,0.3c-2.1,0-4.1-0.1-5-0.1
	c-0.7,0-2.7,0.1-4,0.1c-0.4,0-0.6-0.1-0.6-0.3c0-0.2,0.1-0.3,0.5-0.3c0.5,0,0.9-0.1,1.2-0.1c0.6-0.1,0.8-0.8,0.9-1.8
	c0.2-1.3,0.2-3.9,0.2-6.8V9.7c0-4.9,0-5.8-0.1-6.8c-0.1-1.1-0.3-1.6-1.4-1.8C230.1,1,229.6,1,229.2,1s-0.5-0.1-0.5-0.3
	s0.2-0.3,0.7-0.3c1.7,0,3.7,0.1,4.6,0.1c0.8,0,2.8-0.1,4-0.1c0.4,0,0.7,0.1,0.7,0.3S238.5,1,238.1,1c-0.3,0-0.5,0-0.9,0.1
	c-0.9,0.2-1.1,0.7-1.2,1.8c-0.1,1-0.1,1.9-0.1,6.8v0.7c0,0.2,0.1,0.2,0.2,0.2C236.1,10.6,248.2,10.6,248.2,10.6z M262.8,9.7
	c0-4.9,0-5.8-0.1-6.8c-0.1-1.1-0.3-1.6-1.4-1.8C261,1,260.5,1,260.1,1c-0.4,0-0.5-0.1-0.5-0.3s0.2-0.3,0.7-0.3c0.9,0,1.8,0,2.6,0
	c0.8,0,1.6,0.1,2,0.1c1,0,7.4,0,8,0c0.6-0.1,1.1-0.1,1.4-0.2c0.2,0,0.4-0.1,0.5-0.1c0.2,0,0.2,0.1,0.2,0.3s-0.2,0.6-0.3,2.1
	c0,0.3-0.1,1.7-0.2,2.1c0,0.2-0.1,0.4-0.3,0.4C274,5,274,4.9,274,4.6c0-0.2,0-0.8-0.2-1.2c-0.2-0.6-0.5-1-2.1-1.2
	c-0.5-0.1-3.9-0.1-4.5-0.1c-0.2,0-0.2,0.1-0.2,0.3v8.1c0,0.2,0,0.4,0.2,0.4c0.7,0,4.4,0,5.1-0.1c0.8-0.1,1.2-0.2,1.5-0.5
	c0.2-0.3,0.4-0.4,0.5-0.4s0.2,0.1,0.2,0.3s-0.1,0.7-0.3,2.3c0,0.6-0.1,1.9-0.1,2.1c0,0.3,0,0.6-0.3,0.6c-0.2,0-0.3-0.1-0.3-0.3
	c0-0.3,0-0.7-0.1-1.2c-0.2-0.6-0.6-1.1-1.8-1.2c-0.6-0.1-3.8-0.1-4.5-0.1c-0.2,0-0.2,0.1-0.2,0.3v2.5c0,1.1,0,4,0,5
	c0.1,2.2,0.6,2.7,3.8,2.7c0.8,0,2.2,0,3-0.4s1.2-1.1,1.4-2.4c0.1-0.4,0.1-0.5,0.4-0.5s0.3,0.3,0.3,0.6c0,0.7-0.3,2.9-0.4,3.5
	c-0.2,0.8-0.5,0.8-1.7,0.8c-2.4,0-4.2-0.1-5.5-0.1c-1.4-0.1-2.4-0.1-3.3-0.1c-0.4,0-1.1,0-1.8,0c-0.7,0-1.6,0.1-2.2,0.1
	c-0.4,0-0.6-0.1-0.6-0.3c0-0.2,0.1-0.3,0.5-0.3c0.5,0,0.9-0.1,1.2-0.1c0.6-0.1,0.8-0.8,0.9-1.8c0.2-1.3,0.2-3.9,0.2-6.8V9.7H262.8z
	 M312,22.5c0,0.9,0,0.9-0.4,1.2c-2.1,1.1-5.2,1.4-7.7,1.4c-7.8,0-14.8-3.7-14.8-12.5c0-5.1,2.7-8.7,5.6-10.5
	c3.1-1.9,5.9-2.1,8.6-2.1c2.2,0,5,0.4,5.7,0.5s1.8,0.3,2.5,0.4c0.4,0,0.4,0.2,0.4,0.4c0,0.4-0.2,1.2-0.2,5.2c0,0.5-0.1,0.7-0.4,0.7
	c-0.2,0-0.3-0.2-0.3-0.4c-0.1-0.7-0.3-1.8-1.1-2.7c-1-1-3.5-2.5-7.1-2.5c-1.8,0-4.1,0.1-6.3,2c-1.8,1.5-2.9,3.9-2.9,7.8
	c0,6.9,4.4,12,11.1,12c0.8,0,2,0,2.7-0.4c0.5-0.2,0.6-0.6,0.6-1.2v-3c0-1.6,0-2.8,0-3.8c0-1.1-0.3-1.6-1.4-1.8
	c-0.3-0.1-0.8-0.1-1.2-0.1c-0.3,0-0.5-0.1-0.5-0.3c0-0.3,0.2-0.3,0.7-0.3c1.7,0,3.7,0.1,4.6,0.1c1,0,2.7-0.1,3.7-0.1
	c0.4,0,0.6,0.1,0.6,0.3s-0.2,0.3-0.4,0.3c-0.3,0-0.5,0-0.9,0.1c-0.9,0.2-1.2,0.7-1.2,1.8c0,1,0,2.2,0,3.8L312,22.5L312,22.5z
	 M320.9,9.7c0-4.9,0-5.8-0.1-6.8c-0.1-1.1-0.3-1.6-1.4-1.8C319.1,1,318.6,1,318.2,1c-0.4,0-0.5-0.1-0.5-0.3s0.2-0.3,0.7-0.3
	c1.7,0,3.7,0.1,4.4,0.1c1.1,0,3.5-0.1,4.5-0.1c2,0,4.2,0.2,5.9,1.4c0.9,0.6,2.2,2.2,2.2,4.4c0,2.4-1,4.5-4.2,7.2
	c2.8,3.6,5.1,6.4,6.9,8.4c1.8,1.9,3.1,2.1,3.6,2.2c0.4,0.1,0.6,0.1,0.9,0.1s0.4,0.1,0.4,0.3c0,0.3-0.2,0.3-0.6,0.3h-3
	c-1.8,0-2.6-0.2-3.4-0.6c-1.4-0.7-2.6-2.2-4.4-4.7c-1.3-1.8-2.7-3.9-3.2-4.4c-0.2-0.2-0.4-0.2-0.6-0.2l-2.8-0.1
	c-0.2,0-0.3,0.1-0.3,0.3v0.4c0,3,0,5.5,0.2,6.8c0.1,0.9,0.3,1.6,1.2,1.8c0.5,0.1,1.2,0.1,1.6,0.1c0.3,0,0.4,0.1,0.4,0.3
	c0,0.2-0.2,0.3-0.6,0.3c-1.9,0-4.2-0.1-4.7-0.1c-0.6,0-2.6,0.1-3.9,0.1c-0.4,0-0.6-0.1-0.6-0.3c0-0.2,0.1-0.3,0.5-0.3
	c0.5,0,0.9-0.1,1.2-0.1c0.6-0.1,0.8-0.8,0.9-1.8c0.2-1.3,0.2-3.9,0.2-6.8V9.7H320.9z M324.7,12.2c0,0.4,0.1,0.5,0.3,0.6
	c0.7,0.2,1.6,0.3,2.4,0.3c1.3,0,1.7-0.1,2.3-0.5c1-0.7,1.9-2.2,1.9-4.8c0-4.5-3-5.9-4.9-5.9c-0.8,0-1.4,0-1.7,0.1
	c-0.2,0.1-0.3,0.2-0.3,0.4L324.7,12.2L324.7,12.2z M345.1,9.7c0-4.9,0-5.8-0.1-6.8c-0.1-1.1-0.3-1.6-1.4-1.8
	C343.3,1,342.8,1,342.4,1c-0.4,0-0.5-0.1-0.5-0.3s0.2-0.3,0.7-0.3c0.9,0,1.8,0,2.6,0c0.8,0,1.6,0.1,2,0.1c1,0,7.4,0,8,0
	c0.6-0.1,1.1-0.1,1.4-0.2c0.2,0,0.4-0.1,0.5-0.1c0.2,0,0.2,0.1,0.2,0.3s-0.2,0.6-0.3,2.1c0,0.3-0.1,1.7-0.2,2.1
	c0,0.2-0.1,0.4-0.3,0.4c-0.2,0-0.3-0.2-0.3-0.4c0-0.2,0-0.8-0.2-1.2c-0.2-0.6-0.5-1-2.1-1.2c-0.5-0.1-3.9-0.1-4.5-0.1
	c-0.2,0-0.2,0.1-0.2,0.3v8.1c0,0.2,0,0.4,0.2,0.4c0.7,0,4.4,0,5.1-0.1c0.8-0.1,1.2-0.2,1.5-0.5c0.2-0.3,0.4-0.4,0.5-0.4
	s0.2,0.1,0.2,0.3s-0.1,0.7-0.3,2.3c0,0.6-0.1,1.9-0.1,2.1c0,0.3,0,0.6-0.3,0.6c-0.2,0-0.3-0.1-0.3-0.3c0-0.3,0-0.7-0.1-1.2
	c-0.2-0.6-0.6-1.1-1.8-1.2c-0.6-0.1-3.8-0.1-4.5-0.1c-0.2,0-0.2,0.1-0.2,0.3v2.5c0,1.1,0,4,0,5c0.1,2.2,0.6,2.7,3.8,2.7
	c0.8,0,2.2,0,3-0.4s1.2-1.1,1.4-2.4c0.1-0.4,0.1-0.5,0.4-0.5s0.3,0.3,0.3,0.6c0,0.7-0.3,2.9-0.4,3.5c-0.2,0.8-0.5,0.8-1.7,0.8
	c-2.4,0-4.2-0.1-5.5-0.1c-1.4-0.1-2.4-0.1-3.3-0.1c-0.4,0-1.1,0-1.8,0c-0.7,0-1.6,0.1-2.2,0.1c-0.4,0-0.6-0.1-0.6-0.3
	c0-0.2,0.1-0.3,0.5-0.3c0.5,0,0.9-0.1,1.2-0.1c0.6-0.1,0.8-0.8,0.9-1.8c0.2-1.3,0.2-3.9,0.2-6.8V9.7H345.1z M365.3,9.7
	c0-4.9,0-5.8-0.1-6.8c-0.1-1.1-0.3-1.6-1.4-1.8c-0.2,0-0.8-0.1-1.2-0.1S362,1,362,0.7c0-0.2,0.2-0.3,0.7-0.3c0.9,0,1.8,0,2.6,0
	c0.8,0,1.6,0.1,2,0.1c1,0,7.4,0,8,0c0.6-0.1,1.1-0.1,1.4-0.2c0.2,0,0.4-0.1,0.5-0.1c0.2,0,0.2,0.1,0.2,0.3s-0.2,0.6-0.3,2.1
	c0,0.3-0.1,1.7-0.2,2.1c0,0.2-0.1,0.4-0.3,0.4c-0.2,0-0.3-0.2-0.3-0.4c0-0.2,0-0.8-0.2-1.2c-0.2-0.6-0.5-1-2.1-1.2
	c-0.5-0.1-3.9-0.1-4.5-0.1c-0.2,0-0.2,0.1-0.2,0.3v8.1c0,0.2,0,0.4,0.2,0.4c0.7,0,4.4,0,5.1-0.1c0.8-0.1,1.2-0.2,1.5-0.5
	c0.2-0.3,0.4-0.4,0.5-0.4s0.2,0.1,0.2,0.3s-0.1,0.7-0.3,2.3c0,0.6-0.1,1.9-0.1,2.1c0,0.3,0,0.6-0.3,0.6c-0.2,0-0.3-0.1-0.3-0.3
	c0-0.3,0-0.7-0.1-1.2c-0.2-0.6-0.6-1.1-1.8-1.2c-0.6-0.1-3.8-0.1-4.5-0.1c-0.2,0-0.2,0.1-0.2,0.3v2.5c0,1.1,0,4,0,5
	c0.1,2.2,0.6,2.7,3.8,2.7c0.8,0,2.2,0,3-0.4s1.2-1.1,1.4-2.4c0.1-0.4,0.1-0.5,0.4-0.5s0.3,0.3,0.3,0.6c0,0.7-0.3,2.9-0.4,3.5
	c-0.2,0.8-0.5,0.8-1.7,0.8c-2.4,0-4.2-0.1-5.5-0.1c-1.4-0.1-2.4-0.1-3.3-0.1c-0.4,0-1.1,0-1.8,0c-0.7,0-1.6,0.1-2.2,0.1
	c-0.4,0-0.6-0.1-0.6-0.3c0-0.2,0.1-0.3,0.5-0.3c0.5,0,0.9-0.1,1.2-0.1c0.6-0.1,0.8-0.8,0.9-1.8c0.2-1.3,0.2-3.9,0.2-6.8V9.7H365.3z
	 M387.3,20.3c0.1,2.5,0.5,3.3,1.1,3.5c0.5,0.2,1.2,0.2,1.7,0.2c0.4,0,0.5,0.1,0.5,0.3c0,0.3-0.3,0.3-0.7,0.3c-2.1,0-3.4-0.1-4-0.1
	c-0.3,0-1.8,0.1-3.5,0.1c-0.4,0-0.7,0-0.7-0.3c0-0.2,0.2-0.3,0.5-0.3c0.4,0,1,0,1.4-0.2c0.8-0.3,1-1.2,1-4L385,1.1
	c0-0.6,0.1-1.1,0.4-1.1c0.4,0,0.6,0.4,1.2,1c0.4,0.4,5.2,5.5,9.9,10.2c2.2,2.2,6.5,6.8,7,7.3h0.2l-0.3-14.4c0-2-0.3-2.6-1.1-2.9
	C401.8,1,401,1,400.6,1s-0.5-0.1-0.5-0.3c0-0.3,0.4-0.3,0.8-0.3c1.7,0,3.2,0.1,3.9,0.1c0.4,0,1.6-0.1,3.1-0.1c0.4,0,0.7,0,0.7,0.3
	c0,0.2-0.2,0.3-0.6,0.3c-0.3,0-0.6,0-1,0.1c-0.9,0.3-1.2,0.9-1.2,2.7L405.6,24c0,0.7-0.1,1-0.4,1c-0.4,0-0.7-0.4-1.1-0.7
	c-2-1.9-6.1-6.1-9.4-9.4c-3.5-3.5-7-7.4-7.6-8H387L387.3,20.3z M422.5,3.6c-0.4-1.2-0.7-2-1.2-2.3C421,1.1,420.3,1,420,1
	s-0.5,0-0.5-0.3c0-0.2,0.3-0.3,0.7-0.3c1.7,0,3.4,0.1,3.7,0.1c0.3,0,1.7-0.1,3.5-0.1c0.4,0,0.7,0.1,0.7,0.3c0,0.3-0.3,0.3-0.6,0.3
	c-0.3,0-0.6,0-0.8,0.1c-0.3,0.1-0.4,0.4-0.4,0.7c0,0.4,0.3,1.5,0.7,2.9c0.5,2.1,3.5,11.8,4.1,13.6h0.1l6.2-16.7
	c0.3-0.9,0.5-1.2,0.8-1.2c0.4,0,0.5,0.5,0.9,1.5l6.7,16.1h0.1c0.6-2.1,3.1-10.6,4.3-14.3c0.2-0.7,0.3-1.4,0.3-1.9s-0.3-1-1.5-1
	c-0.3,0-0.5-0.1-0.5-0.3s0.3-0.3,0.7-0.3c1.7,0,3,0.1,3.3,0.1c0.2,0,1.6-0.1,2.7-0.1c0.4,0,0.6,0.1,0.6,0.3s-0.2,0.3-0.4,0.3
	c-0.3,0-0.8,0-1.1,0.2c-0.8,0.3-1.1,1.6-1.8,3.4c-1.5,4-4.8,14.2-6.4,19c-0.4,1.1-0.5,1.5-0.9,1.5c-0.3,0-0.5-0.4-1-1.6l-6.6-16
	h-0.1c-0.6,1.6-4.9,13-6.2,15.9c-0.6,1.3-0.8,1.7-1.2,1.7c-0.3,0-0.4-0.4-0.7-1.2L422.5,3.6z M456.5,12.5C456.5,7,460.1,0,469.7,0
	c8,0,12.9,4.6,12.9,12c0,7.3-5.1,13.1-13.2,13.1C460.3,25.1,456.5,18.2,456.5,12.5z M478.2,13.1c0-7.2-4.1-11.6-9.4-11.6
	c-3.7,0-7.9,2-7.9,10c0,6.7,3.7,11.9,9.8,11.9C473,23.5,478.2,22.4,478.2,13.1z M489.3,9.7c0-4.9,0-5.8-0.1-6.8
	c-0.1-1.1-0.3-1.6-1.4-1.8C487.5,1,487,1,486.6,1c-0.3,0-0.5-0.1-0.5-0.3s0.2-0.3,0.7-0.3c1.7,0,3.7,0.1,4.4,0.1
	c1.1,0,3.5-0.1,4.5-0.1c2,0,4.2,0.2,5.9,1.4c0.9,0.6,2.2,2.2,2.2,4.4c0,2.4-1,4.5-4.2,7.2c2.8,3.6,5.1,6.4,6.9,8.4
	c1.8,1.9,3.1,2.1,3.6,2.2c0.4,0.1,0.6,0.1,0.9,0.1s0.4,0.1,0.4,0.3c0,0.3-0.2,0.3-0.6,0.3h-3c-1.8,0-2.6-0.2-3.4-0.6
	c-1.4-0.7-2.6-2.2-4.4-4.7c-1.3-1.8-2.7-3.9-3.2-4.4c-0.2-0.2-0.4-0.2-0.6-0.2l-2.8-0.1c-0.2,0-0.3,0.1-0.3,0.3v0.4
	c0,3,0,5.5,0.2,6.8c0.1,0.9,0.3,1.6,1.2,1.8c0.5,0.1,1.2,0.1,1.6,0.1c0.3,0,0.4,0.1,0.4,0.3c0,0.2-0.2,0.3-0.6,0.3
	c-1.9,0-4.2-0.1-4.7-0.1c-0.6,0-2.6,0.1-3.9,0.1c-0.4,0-0.6-0.1-0.6-0.3c0-0.2,0.1-0.3,0.5-0.3c0.5,0,0.9-0.1,1.2-0.1
	c0.6-0.1,0.8-0.8,0.9-1.8c0.2-1.3,0.2-3.9,0.2-6.8V9.7H489.3z M493.1,12.2c0,0.4,0.1,0.5,0.3,0.6c0.7,0.2,1.6,0.3,2.4,0.3
	c1.3,0,1.7-0.1,2.3-0.5c1-0.7,1.9-2.2,1.9-4.8c0-4.5-3-5.9-4.9-5.9c-0.8,0-1.4,0-1.7,0.1c-0.2,0.1-0.3,0.2-0.3,0.4L493.1,12.2
	L493.1,12.2z M517.5,15.3c0,4.1,0,6.3,0.7,6.9c0.5,0.5,1.4,0.7,3.9,0.7c1.7,0,2.9,0,3.7-0.9c0.4-0.4,0.8-1.3,0.8-1.9
	c0-0.3,0.1-0.5,0.4-0.5c0.2,0,0.3,0.2,0.3,0.5c0,0.4-0.2,2.7-0.5,3.7c-0.2,0.7-0.4,0.9-2,0.9c-2.3,0-4-0.1-5.4-0.1
	c-1.4-0.1-2.6-0.1-3.9-0.1c-0.4,0-1.1,0-1.8,0s-1.6,0.1-2.2,0.1c-0.4,0-0.6-0.1-0.6-0.3c0-0.2,0.1-0.3,0.5-0.3
	c0.5,0,0.9-0.1,1.2-0.1c0.6-0.1,0.8-0.8,0.9-1.8c0.2-1.3,0.2-3.9,0.2-6.8V9.7c0-4.9,0-5.8-0.1-6.8c-0.1-1.1-0.3-1.6-1.4-1.8
	c-0.4,0-0.8-0.1-1.2-0.1s-0.5-0.1-0.5-0.3s0.2-0.3,0.7-0.3c1.5,0,3.5,0.1,4.4,0.1c0.8,0,3.1-0.1,4.3-0.1c0.4,0,0.7,0.1,0.7,0.3
	S520.4,1,520,1c-0.4,0-0.9,0-1.2,0.1c-0.9,0.2-1.1,0.7-1.2,1.8c-0.1,1-0.1,1.9-0.1,6.8L517.5,15.3L517.5,15.3z M532.8,9.7
	c0-4.9,0-5.8-0.1-6.8c-0.1-1.1-0.3-1.6-1.4-1.8C531,1,530.5,1,530.1,1s-0.5-0.1-0.5-0.3s0.2-0.3,0.7-0.3c1.7,0,3.7,0.1,4.6,0.1
	c1,0,3-0.1,4.9-0.1c4,0,9.3,0,12.8,3.6c1.6,1.7,3.1,4.3,3.1,8.1c0,4-1.7,7.1-3.5,8.9c-1.5,1.5-4.8,3.8-10.7,3.8
	c-1.2,0-2.5-0.1-3.7-0.2s-2.3-0.2-3.1-0.2c-0.4,0-1.1,0-1.8,0s-1.6,0.1-2.2,0.1c-0.4,0-0.6-0.1-0.6-0.3c0-0.2,0.1-0.3,0.5-0.3
	c0.5,0,0.9-0.1,1.2-0.1c0.6-0.1,0.8-0.8,0.9-1.8c0.2-1.3,0.2-3.9,0.2-6.8V9.7H532.8z M536.8,13.2c0,3.4,0,5.8,0.1,6.5
	c0,0.8,0.1,2.1,0.4,2.4c0.4,0.6,1.7,1.3,4.2,1.3c3.3,0,5.4-0.6,7.4-2.3c2-1.8,2.7-4.7,2.7-8c0-4.1-1.7-6.7-3.1-8
	c-2.9-2.8-6.6-3.2-9.1-3.2c-0.6,0-1.8,0.1-2.1,0.2c-0.3,0.1-0.4,0.3-0.4,0.6c0,1.1,0,3.9,0,6.4v4.1H536.8z"/>
</svg>
