<?xml version="1.0" encoding="UTF-8"?>
<svg id="_圖層_2" data-name="圖層 2" xmlns="http://www.w3.org/2000/svg" xmlns:xlink="http://www.w3.org/1999/xlink" viewBox="0 0 678.53 219.85">
  <defs>
    <style>
      .cls-1 {
        fill: #f6d481;
      }

      .cls-1, .cls-2 {
        stroke-width: 0px;
      }

      .cls-3 {
        filter: url(#drop-shadow-1);
      }

      .cls-2 {
        fill: #fff;
      }
    </style>
    <filter id="drop-shadow-1" filterUnits="userSpaceOnUse">
      <feOffset dx="5" dy="4"/>
      <feGaussianBlur result="blur" stdDeviation="3"/>
      <feFlood flood-color="#040000" flood-opacity=".5"/>
      <feComposite in2="blur" operator="in"/>
      <feComposite in="SourceGraphic"/>
    </filter>
  </defs>
  <g id="_圖層_1-2" data-name="圖層 1">
    <g>
      <g class="cls-3">
        <path class="cls-2" d="M21.87,126.18c-2.93,0-4.4-.89-4.4-2.67,0-.53.04-1.33.13-2.4.62-10.05,1.02-20.1,1.2-30.14v-17.61c-5.16,8.36-10.89,15.61-17.21,21.74l-1.6-1.6c8.27-13.52,14.14-32.06,17.61-55.62h-4.54c-2.49.09-4.98.71-7.47,1.87l-3.47-6.8c3.11.53,6.94.89,11.47,1.07h5.2v-6.14c0-11.2-.58-20.32-1.73-27.34,9.69,2.13,15.74,3.78,18.14,4.94,1.78.89,1.96,1.78.53,2.67l-2.27,1.6v23.48l6-9.2c3.11,3.02,6.22,6.09,9.34,9.2l13.74,6h12.14v-15.34h-9.47c-5.51.09-11.2.71-17.07,1.87l-3.33-6.67c4.89.53,10.8.89,17.74,1.07h12.14c0-7.74-.4-14.27-1.2-19.61,9.34,1.96,15.21,3.47,17.61,4.54,1.69.8,1.87,1.69.53,2.67l-2.27,1.47v10.94h12.67l3.47-5.34c.35-.44.8-1.11,1.33-2,1.51-2.31,2.53-3.47,3.07-3.47.89,0,3.33,1.82,7.34,5.47,4,3.65,6,5.96,6,6.94-.27,1.42-1.47,2.13-3.6,2.13h-30.28v15.34h12.81l2.93-3.87c.27-.35.67-.84,1.2-1.47,1.24-1.6,2.13-2.4,2.67-2.4.89,0,3.38,1.62,7.47,4.87,4.09,3.25,6.14,5.36,6.14,6.34-1.07,1.25-2.85,2.18-5.34,2.8v62.02c0,5.51-.93,9.42-2.8,11.74-2.31,2.85-6.85,4.62-13.61,5.34-.18-4.98-.8-8.45-1.87-10.4-1.51-2.4-4.14-3.91-7.87-4.54v-2c3.38.18,6.76.4,10.14.67,1.51,0,2.27-.84,2.27-2.53v-15.07h-15.61v9.07c.18,7.47.44,13.3.8,17.47-.53.8-1.65,1.55-3.33,2.27-2.13.89-4.58,1.33-7.34,1.33-2.05,0-3.07-.89-3.07-2.67.35-4.27.67-10.05.93-17.34v-10.14h-4c-1.96.09-4,.71-6.14,1.87l-3.33-6.8c2.58.53,5.69.89,9.34,1.07h4.14v-14.67h-3.6c-1.96.09-3.91.71-5.87,1.87l-3.47-6.8c3.82.53,8.36.89,13.61,1.07h6.4c2.4-8.27,3.69-16.49,3.87-24.68,7.11,2.05,11.56,3.65,13.34,4.8,1.33.8,1.29,1.47-.13,2l-2.4.93c-3.11,5.6-6.94,11.25-11.47,16.94h4.67l5.07-6.8c2.58,2.22,5.11,4.45,7.6,6.67v-25.21h-41.75v46.02c.18,11.03.53,21.48,1.07,31.35-.62,1.24-2.09,2.44-4.4,3.6-2.58,1.33-5.25,2-8,2-1.07,0-1.93-.27-2.6-.8s-1-1.16-1-1.87c0-.45.04-1.11.13-2,.62-9.6,1.02-19.16,1.2-28.68v-16.67c-1.25.89-2.67,1.25-4.27,1.07-1.69-.18-3.29-1.02-4.8-2.53-.27-5.87-2.13-12.27-5.6-19.21v34.41c.18,11.03.53,21.48,1.07,31.35-.53,1.15-2.09,2.31-4.67,3.47-2.76,1.15-5.42,1.73-8,1.73ZM48.15,62.02v-24.14h-14.67v14.27c6.76,2.58,11.65,5.87,14.67,9.87ZM70.43,63.76c.35-2.84.04-6-.93-9.47-.89-3.11-2.09-5.87-3.6-8.27l1.33-.8c5.16,2.22,8.85,4.94,11.07,8.14,1.87,2.67,2.53,5.29,2,7.87-.53,2.4-1.82,3.91-3.87,4.53-2.05.71-4.05.05-6-2ZM87.9,86.83h2.67l5.74-7.87c2.4,2.13,4.8,4.27,7.2,6.4v-13.34c-.27.09-.71.13-1.33.13h-14.27v14.67Z"/>
        <path class="cls-2" d="M191.67,45.35l-5.74-16.54c6.58,0,12.31-.09,17.21-.27.09-.18.15-.4.2-.67.04-.27.07-.49.07-.67,2.31-10.58,3.38-19.65,3.2-27.21,10.23,2.31,16.72,4.05,19.47,5.2,1.87.89,2.04,1.65.53,2.27l-2.4,1.07c-4,6.23-8.98,12.8-14.94,19.74.98,0,2.4-.04,4.27-.13,8.36-.35,14.81-.62,19.34-.8-2.4-4.62-5.16-8.67-8.27-12.14l1.33-.8c8.36,1.78,14.72,4.62,19.07,8.54,3.65,3.38,5.47,6.98,5.47,10.8,0,3.47-1.33,5.91-4,7.34-2.85,1.51-5.87,1.07-9.07-1.33-.53-3.11-1.6-6.31-3.2-9.6-8.8,3.11-21.74,7.2-38.81,12.27-.62,1.69-1.87,2.67-3.73,2.93ZM197.81,125.78c-1.07,0-1.93-.27-2.6-.8-.67-.53-1-1.16-1-1.87,0-.62.04-1.51.13-2.67.62-10.58,1.02-21.21,1.2-31.88v-18.67c0-11.2-.58-20.32-1.73-27.34l16.41,7.07h16.67l3.07-4c.18-.27.44-.62.8-1.07,1.51-1.96,2.58-2.93,3.2-2.93.89,0,3.49,1.69,7.8,5.07,4.31,3.38,6.47,5.56,6.47,6.54-1.07,1.42-2.85,2.36-5.34,2.8v51.89c0,5.87-.93,10-2.8,12.4-2.4,3.02-7.16,4.85-14.27,5.47-.27-5.43-.93-9.07-2-10.94-1.51-2.58-4.09-4.27-7.74-5.07v-1.73c3.38.18,6.71.36,10,.53,1.42,0,2.13-.8,2.13-2.4v-15.07h-18.67v10c.18,8.09.44,14.45.8,19.07-.45,1.15-1.87,2.36-4.27,3.6-2.76,1.33-5.51,2-8.27,2ZM209.55,68.29h18.67v-14.81h-18.67v14.81ZM209.55,87.23h18.67v-15.21h-18.67v15.21ZM269.3,60.56c-6.14,0-10.18-.89-12.14-2.67-1.87-1.69-2.8-5.16-2.8-10.4v-22.54c0-9.6-.49-17.29-1.47-23.08,9.16,2.05,14.94,3.6,17.34,4.67,1.69.8,1.96,1.65.8,2.53l-2,1.33v15.74c9.16-6.14,16.18-12,21.07-17.61l14.27,12.27c-1.25,1.25-3.73,1.33-7.47.27-8.72,3.38-18.01,6.23-27.88,8.54v14.41c0,.98.24,1.65.73,2,.49.36,1.58.53,3.27.53h9.47c4.45,0,7.2-.04,8.27-.13,1.51-.18,2.58-.67,3.2-1.47,1.15-1.87,2.84-6.36,5.07-13.47h1.33l.53,13.87c1.87.8,3.16,1.69,3.87,2.67.62.89.93,2.09.93,3.6,0,3.29-1.73,5.56-5.2,6.8-3.65,1.42-10.18,2.13-19.61,2.13h-11.6ZM269.57,123.25c-6.14,0-10.23-.89-12.27-2.67-1.87-1.78-2.8-5.29-2.8-10.54v-22.68c0-9.69-.49-17.43-1.47-23.21,9.25,1.96,15.07,3.47,17.47,4.54,1.69.8,1.91,1.65.67,2.53l-2,1.33v15.21c8.54-6.14,15.56-12.54,21.07-19.21l15.87,12.14c-1.42,1.42-3.96,1.65-7.6.67-8.98,4.09-18.76,7.52-29.34,10.27v14.94c0,.98.27,1.65.8,2,.53.36,1.69.53,3.47.53h9.87c4.71,0,7.51-.04,8.4-.13,1.42-.09,2.53-.62,3.33-1.6.71-1.24,2.31-5.6,4.8-13.07.27-.62.44-1.11.53-1.47h1.33l.53,14.94c1.87.89,3.15,1.82,3.87,2.8.62.89.93,2.09.93,3.6,0,3.29-1.78,5.6-5.33,6.94-3.82,1.42-10.54,2.13-20.14,2.13h-12Z"/>
        <path class="cls-2" d="M451.37,126.18c-.27-5.51-1.73-9.29-4.4-11.34-3.38-2.67-8.85-4.58-16.41-5.74v-1.73c8.27.45,16.54.89,24.81,1.33,2.31,0,3.47-1.02,3.47-3.07V16.27h-63.76c-6.32.09-12.98.71-20.01,1.87l-3.33-6.8c4.89.53,10.8.89,17.74,1.07h78.7l4.27-5.87c.35-.53.89-1.29,1.6-2.27,1.87-2.49,3.07-3.73,3.6-3.73.89,0,3.76,2.02,8.6,6.07,4.85,4.05,7.27,6.56,7.27,7.54-.27,1.42-1.51,2.13-3.73,2.13h-15.61v90.03c0,6.14-1.33,10.62-4,13.47-3.38,3.64-9.65,5.78-18.81,6.4ZM389.75,98.57c-2.22,0-3.34-.89-3.34-2.67.53-7.82.89-15.74,1.07-23.74v-13.21c0-11.2-.58-20.32-1.73-27.34l16.81,7.07h20.01l3.07-3.87c.27-.35.71-.84,1.33-1.47,1.33-1.6,2.27-2.4,2.8-2.4.89,0,3.45,1.62,7.67,4.87,4.22,3.25,6.33,5.36,6.33,6.34-1.25,1.42-3.02,2.36-5.33,2.8v14.81c.27,12.45.58,22.1.93,28.94-.53.89-2.22,1.87-5.07,2.93-3.02,1.07-5.69,1.6-8,1.6-1.96,0-2.93-.89-2.93-2.67.09-.62.18-1.47.27-2.53.09-.8.18-1.51.27-2.13v-3.73h-22.01v3.87c.09.89.13,1.96.13,3.2.18,1.78.31,3.07.4,3.87-.27,1.16-1.69,2.31-4.27,3.47-2.76,1.33-5.56,2-8.4,2ZM401.89,78.43h22.01v-36.01h-22.01v36.01Z"/>
        <path class="cls-2" d="M560.75,48.68l-3.34-6.8c4.89.53,10.8.89,17.74,1.07h35.48v-10h-18.54v3.07c0,.71-1.29,1.56-3.87,2.53-2.85,1.16-5.56,1.73-8.14,1.73-1.69,0-2.53-.89-2.53-2.67.18-1.33.35-3.2.53-5.6,0-1.07.04-1.96.13-2.67v-5.6c0-7.2-.36-12.94-1.07-17.21l15.87,6.67h17.61c0-4.98-.27-9.34-.8-13.07,9.25,2.05,15.03,3.6,17.34,4.67,1.69.89,1.87,1.78.53,2.67l-2.27,1.47v4.27h18.54l2.93-3.73c.18-.18.44-.49.8-.93,1.51-1.87,2.58-2.8,3.2-2.8.89,0,3.38,1.58,7.47,4.74,4.09,3.16,6.14,5.22,6.14,6.2-1.16,1.42-2.89,2.36-5.2,2.8v5.07c.09,1.16.18,2.53.27,4.14.09,2.31.18,4,.27,5.07-.36.89-1.87,1.91-4.54,3.07-2.85,1.25-5.42,1.87-7.74,1.87h-2.4v-5.74h-19.74v10h30.81l3.74-4.94c.35-.44.84-1.07,1.47-1.87,1.6-2.04,2.67-3.07,3.2-3.07.89,0,3.42,1.69,7.6,5.07,4.18,3.38,6.27,5.56,6.27,6.54-.36,1.42-1.56,2.13-3.6,2.13h-94.17c-6.32.09-12.98.71-20.01,1.87ZM561.28,126.31l-.4-1.87c7.29-2.31,14.41-5.34,21.34-9.07,8.89-4.8,15.56-10.05,20.01-15.74l8.67,7.6,8.14,5.87c-1.42,1.51-3.96,1.78-7.6.8-5.87,3.02-13.34,5.65-22.41,7.87-9.07,2.22-18.32,3.73-27.74,4.53ZM582.49,108.04c-2.05,0-3.07-.89-3.07-2.67.44-4.8.75-11.2.93-19.21v-11.07c0-11.2-.58-20.32-1.73-27.34l17.47,7.2h45.48l3.07-3.87c.27-.35.71-.84,1.33-1.47,1.33-1.6,2.27-2.4,2.8-2.4.89,0,3.38,1.62,7.47,4.87,4.09,3.25,6.14,5.36,6.14,6.34-1.07,1.25-2.58,2.09-4.54,2.53v13.47c.27,11.38.58,20.14.93,26.28-.53.89-2.31,1.82-5.34,2.8-3.11,1.16-5.83,1.73-8.14,1.73h-2.67v-4.4h-47.49v2.27c0,.8-1.33,1.82-4,3.07-2.93,1.25-5.83,1.87-8.67,1.87ZM592.1,29.21h18.54v-12.14h-18.54v12.14ZM595.16,68.56h47.49v-9.87h-47.49v9.87ZM595.16,82.7h47.49v-10.27h-47.49v10.27ZM595.16,97.1h47.49v-10.67h-47.49v10.67ZM655.99,123.51c-8.45-6.94-19.07-12.23-31.88-15.87l.4-1.73c13.43.09,24.23,1.11,32.41,3.07,6.85,1.6,11.47,3.73,13.87,6.4,2.04,2.22,2.36,4.4.93,6.54-1.42,2.04-3.69,3.33-6.8,3.87-3.38.44-6.36-.31-8.94-2.27ZM625.44,29.21h19.74v-12.14h-19.74v12.14Z"/>
      </g>
      <g>
        <path class="cls-1" d="M25.18,219.64c-11.37,0-18.38-7.48-18.38-18.64s7.9-19.43,17.96-19.43c7.16,0,9.58,1.74,12.32,1.58.42,0,.53,0,.58.53l.37,7.16c.05.84-.84.95-1.05.32-1.63-4.69-5.11-7.32-11.9-7.32-7.64,0-12.74,7.42-12.74,16.53s5.16,15.38,13.8,15.38c6,0,9.53-2.32,11.74-4.79.58-.63,1.32-.21.95.58-1.74,3.84-5.84,8.11-13.64,8.11Z"/>
        <path class="cls-1" d="M108.38,200.37c0,10.32-6.48,19.48-18.96,19.48-11.48,0-18.75-8.27-18.75-18.69,0-12.16,8.27-19.8,18.59-19.8,11.01,0,19.11,8.11,19.11,19.01ZM76.2,200.11c0,9.79,5.42,17.27,13.37,17.27,8.95,0,13.11-5.63,13.11-15.85,0-8.21-4.74-17.8-13.8-17.8-7.74,0-12.69,6.32-12.69,16.38Z"/>
        <path class="cls-1" d="M139.65,217.48c2.84-.37,3.42-1.79,3.95-6.48l2.69-24.75c.21-2.05-.16-2.32-2.9-2.48-.84-.05-.9-.53-.47-1.69h7.53l12.11,27.91c.05.16.26.16.32,0l10.9-27.91h8.58c-.32,1.26-.37,1.69-1.11,1.69-1.26,0-2.63.26-2.42,2.58,1.16,12.64,2.21,25.22,3.05,28.49.58,2.21,1.37,2.37,3.84,2.63-.42,1.26-.47,1.69-1.37,1.69h-11.8c.21-1.26.42-1.63,1.11-1.69,2.63-.21,2.95-.68,2.79-2.47l-2.32-25.54-11.58,29.96c-.16.47-1.47.53-1.68,0l-12.16-27.91c-1.11,10.06-2.16,18.75-2.32,20.59-.37,4.27-.1,4.69,4.37,5.37-.42,1.26-.47,1.69-1.16,1.69h-11.06c.21-1.05.32-1.58,1.11-1.69Z"/>
        <path class="cls-1" d="M218.15,183.78c-.84-.11-.74-.63-.58-1.69h11.64c-.26,1.21-.42,1.63-1.11,1.69-2.05.16-2.21.16-2.21,6.85v17.8c0,8.74.11,8.74,3.69,9.06-.37,1.32-.53,1.69-1.26,1.69h-11.06c.21-1,.32-1.53,1-1.69q2.58-.53,2.58-7.9v-17.85c0-7.69.05-7.64-2.69-7.95Z"/>
        <path class="cls-1" d="M270.12,182.1l21.01,27.12v-17.48c0-7.06-.21-7.79-3.21-7.95-1.05-.05-1.11-.42-.84-1.69h11.01c-.37,1.47-.37,1.58-1.05,1.69-2.95.47-3.11,1-3.11,6.79v28.49c0,.84-1.47.63-1.74.26l-23.33-30.59v19.96c0,7.85-.11,8.32,4.27,8.79-.42,1.26-.47,1.69-1.16,1.69h-9.95c.21-1.11.26-1.53,1-1.69,2.95-.58,3.05-.95,3.05-7.11v-23.54c0-2.11-1.58-2.79-3.69-3.05-.79-.11-.74-.63-.58-1.69h8.32Z"/>
        <path class="cls-1" d="M347.78,183.94c-7.06,0-12.95,6.63-12.95,15.95,0,11.16,6.11,17.32,14.06,17.32,3.32,0,6.53-1,7.21-1.69v-5.84c0-6.63,0-6.42-3.37-6.74-.58-.05-.79-.37-.63-1.53h11.8c-.26,1.26-.63,1.63-1.26,1.74-1.58.26-1.47,1.05-1.47,7.74v7.42c0,.47-.32.47-.74.37-3.53-.9-7.53.95-12.48.95-11.06,0-18.69-7.53-18.69-18.64s8.21-19.38,18.27-19.38c5.16,0,9.9,1.69,12.58,1.32.42-.05.58.16.58.53l.26,6.79c.05.74-.79.9-1.05.26-2.37-5.69-7.95-6.58-12.11-6.58Z"/>
        <path class="cls-1" d="M450.03,183.99c-3.48,0-5.69,2.42-5.74,5.42-.16,8.69,18.54,8.16,19.06,19.22.32,6.95-4.16,10.95-13.06,10.95-3.27,0-6.95-.63-10.37-2.37-.53-.26-.84-.47-.74-1.16l.95-6.11c.16-.95,1-.63,1.05.11.32,4.79,4.16,7,9.32,7s7.69-2.95,7.42-7.58c-.47-7.95-18.59-7.69-18.48-18.85.05-5.37,5-8.95,10.79-8.95,4.32,0,7.37,1.69,9.9.95.37-.11.58.11.58.53l.21,6.69c0,.79-.79.84-1,.37-2.47-5.53-7-6.21-9.9-6.21Z"/>
        <path class="cls-1" d="M533.43,200.37c0,10.32-6.48,19.48-18.96,19.48-11.48,0-18.75-8.27-18.75-18.69,0-12.16,8.27-19.8,18.59-19.8,11,0,19.11,8.11,19.11,19.01ZM501.26,200.11c0,9.79,5.42,17.27,13.38,17.27,8.95,0,13.11-5.63,13.11-15.85,0-8.21-4.74-17.8-13.8-17.8-7.74,0-12.69,6.32-12.69,16.38Z"/>
        <path class="cls-1" d="M603.77,200.37c0,10.32-6.48,19.48-18.96,19.48-11.48,0-18.75-8.27-18.75-18.69,0-12.16,8.27-19.8,18.59-19.8,11,0,19.11,8.11,19.11,19.01ZM571.6,200.11c0,9.79,5.42,17.27,13.38,17.27,8.95,0,13.11-5.63,13.11-15.85,0-8.21-4.74-17.8-13.8-17.8-7.74,0-12.69,6.32-12.69,16.38Z"/>
        <path class="cls-1" d="M643.58,182.1l21.01,27.12v-17.48c0-7.06-.21-7.79-3.21-7.95-1.05-.05-1.11-.42-.84-1.69h11c-.37,1.47-.37,1.58-1.05,1.69-2.95.47-3.11,1-3.11,6.79v28.49c0,.84-1.47.63-1.74.26l-23.33-30.59v19.96c0,7.85-.11,8.32,4.26,8.79-.42,1.26-.47,1.69-1.16,1.69h-9.95c.21-1.11.26-1.53,1-1.69,2.95-.58,3.05-.95,3.05-7.11v-23.54c0-2.11-1.58-2.79-3.69-3.05-.79-.11-.74-.63-.58-1.69h8.32Z"/>
      </g>
    </g>
  </g>
</svg>