<?xml version="1.0" encoding="UTF-8"?>
<svg id="_圖層_2" data-name="圖層_2" xmlns="http://www.w3.org/2000/svg" viewBox="0 0 1141.37 355.15">
  <defs>
    <style>
      .cls-1 {
        fill: #fff;
      }

      .cls-2 {
        fill: #c9a063;
      }
    </style>
  </defs>
  <g id="_圖層_1-2" data-name="圖層_1">
    <g>
      <g>
        <path class="cls-2" d="M287.81,340.96c0,4.48,0,8.17.23,10.13.14,1.35.42,2.38,1.82,2.57.65.09,1.68.19,2.1.19.28,0,.37.14.37.28,0,.23-.23.37-.75.37-2.57,0-5.51-.14-5.74-.14s-3.17.14-4.57.14c-.51,0-.75-.09-.75-.37,0-.14.09-.28.37-.28.42,0,.98-.09,1.4-.19.93-.19,1.17-1.21,1.35-2.57.23-1.96.23-5.65.23-10.13v-19.74l-6.91.09c-2.89.05-4.01.37-4.76,1.49-.51.79-.65,1.12-.79,1.45-.14.37-.28.47-.47.47-.14,0-.23-.14-.23-.42,0-.47.93-4.48,1.03-4.85.09-.28.28-.89.47-.89.33,0,.79.47,2.05.56,1.35.14,3.13.23,3.69.23h17.5c1.49,0,2.57-.09,3.31-.23.7-.09,1.12-.23,1.31-.23.23,0,.23.28.23.56,0,1.4-.14,4.62-.14,5.13,0,.42-.14.61-.33.61-.23,0-.33-.14-.37-.79l-.05-.51c-.14-1.4-1.26-2.47-5.74-2.57l-5.88-.09v19.74Z"/>
        <path class="cls-2" d="M343.9,340.96c0,4.48,0,8.17.23,10.13.14,1.35.42,2.38,1.82,2.57.65.09,1.68.19,2.1.19.28,0,.37.14.37.28,0,.23-.23.37-.75.37-2.57,0-5.51-.14-5.74-.14s-3.17.14-4.57.14c-.51,0-.75-.09-.75-.37,0-.14.09-.28.37-.28.42,0,.98-.09,1.4-.19.93-.19,1.17-1.21,1.35-2.57.23-1.96.23-5.65.23-10.13v-4.9c0-.19-.14-.28-.28-.28h-19.79c-.14,0-.28.05-.28.28v4.9c0,4.48,0,8.17.23,10.13.14,1.35.42,2.38,1.82,2.57.65.09,1.68.19,2.1.19.28,0,.37.14.37.28,0,.23-.23.37-.75.37-2.57,0-5.51-.14-5.74-.14s-3.17.14-4.57.14c-.51,0-.75-.09-.75-.37,0-.14.09-.28.37-.28.42,0,.98-.09,1.4-.19.93-.19,1.17-1.21,1.35-2.57.23-1.96.23-5.65.23-10.13v-8.21c0-7.28,0-8.59-.09-10.08-.09-1.59-.47-2.33-2.01-2.66-.37-.09-1.17-.14-1.59-.14-.19,0-.37-.09-.37-.28,0-.28.23-.37.75-.37,2.1,0,5.04.14,5.27.14s3.17-.14,4.57-.14c.51,0,.75.09.75.37,0,.19-.19.28-.37.28-.33,0-.61.05-1.17.14-1.26.23-1.63,1.03-1.73,2.66-.09,1.49-.09,2.8-.09,10.08v.98c0,.23.14.28.28.28h19.79c.14,0,.28-.05.28-.28v-.98c0-7.28,0-8.59-.09-10.08-.09-1.59-.47-2.33-2.01-2.66-.37-.09-1.17-.14-1.59-.14-.19,0-.37-.09-.37-.28,0-.28.23-.37.75-.37,2.1,0,5.04.14,5.27.14s3.17-.14,4.57-.14c.51,0,.75.09.75.37,0,.19-.19.28-.37.28-.33,0-.61.05-1.17.14-1.26.23-1.63,1.03-1.73,2.66-.09,1.49-.09,2.8-.09,10.08v8.21Z"/>
        <path class="cls-2" d="M366.12,332.75c0-7.28,0-8.59-.09-10.08-.09-1.59-.47-2.33-2.01-2.66-.37-.09-1.17-.14-1.59-.14-.19,0-.37-.09-.37-.28,0-.28.23-.37.75-.37,1.07,0,2.33,0,3.36.05l1.91.09c.33,0,9.61,0,10.69-.05.89-.05,1.63-.14,2.01-.23.23-.05.42-.23.65-.23.14,0,.19.19.19.42,0,.33-.23.89-.37,2.19-.05.47-.14,2.52-.23,3.08-.05.23-.14.51-.33.51-.28,0-.37-.23-.37-.61,0-.33-.05-1.12-.28-1.68-.33-.75-.79-1.31-3.31-1.59-.79-.09-5.88-.14-6.39-.14-.19,0-.28.14-.28.47v12.88c0,.33.05.47.28.47.61,0,6.35,0,7.42-.09,1.12-.09,1.77-.19,2.19-.65.33-.37.51-.61.7-.61.14,0,.23.09.23.37s-.23,1.07-.37,2.61c-.09.93-.19,2.66-.19,2.99,0,.37,0,.89-.33.89-.23,0-.33-.19-.33-.42,0-.47,0-.93-.19-1.54-.19-.65-.61-1.45-2.43-1.63-1.26-.14-5.88-.23-6.67-.23-.23,0-.33.14-.33.33v4.11c0,1.59-.05,7,0,7.98.14,3.22.84,3.83,5.41,3.83,1.21,0,3.27,0,4.48-.51,1.21-.51,1.77-1.45,2.1-3.36.09-.51.19-.7.42-.7.28,0,.28.37.28.7,0,.37-.37,3.55-.61,4.53-.33,1.21-.7,1.21-2.52,1.21-3.5,0-6.07-.09-7.89-.14-1.82-.09-2.94-.14-3.64-.14-.09,0-.89,0-1.87.05-.93,0-2.01.09-2.71.09-.51,0-.75-.09-.75-.37,0-.14.09-.28.37-.28.42,0,.98-.09,1.4-.19.93-.19,1.17-1.21,1.35-2.57.23-1.96.23-5.65.23-10.13v-8.21Z"/>
        <path class="cls-2" d="M434.02,318.56c10.5,0,18.34,6.63,18.34,17.5s-7.37,19.09-18.62,19.09c-12.79,0-18.11-9.94-18.11-18.34,0-7.56,5.51-18.25,18.39-18.25ZM435,353.38c4.2,0,12.88-2.43,12.88-16.01,0-11.2-6.81-17.22-14.19-17.22-7.79,0-13.63,5.13-13.63,15.35,0,10.87,6.53,17.87,14.93,17.87Z"/>
        <path class="cls-2" d="M469.11,348.15c.09,3.83.56,5.04,1.82,5.41.89.23,1.91.28,2.33.28.23,0,.37.09.37.28,0,.28-.28.37-.84.37-2.66,0-4.53-.14-4.95-.14s-2.38.14-4.48.14c-.47,0-.75-.05-.75-.37,0-.19.14-.28.37-.28.37,0,1.21-.05,1.91-.28,1.17-.33,1.4-1.68,1.4-5.93l.05-26.74c0-1.82.14-2.33.51-2.33s1.17,1.03,1.63,1.49c.7.79,7.65,8.31,14.84,16.01,4.62,4.95,9.71,10.64,11.2,12.18l-.51-23.71c-.05-3.03-.37-4.06-1.82-4.43-.84-.19-1.91-.23-2.29-.23-.33,0-.37-.14-.37-.33,0-.28.37-.33.93-.33,2.1,0,4.34.14,4.85.14s2.05-.14,3.97-.14c.51,0,.84.05.84.33,0,.19-.19.33-.51.33-.23,0-.56,0-1.12.14-1.54.33-1.73,1.35-1.73,4.15l-.09,27.35c0,3.08-.09,3.31-.42,3.31-.37,0-.93-.51-3.41-2.99-.51-.47-7.23-7.33-12.18-12.65-5.41-5.83-10.69-11.71-12.18-13.39l.61,22.35Z"/>
        <path class="cls-2" d="M517.64,332.75c0-7.28,0-8.59-.09-10.08-.09-1.59-.47-2.33-2.01-2.66-.37-.09-1.17-.14-1.59-.14-.19,0-.37-.09-.37-.28,0-.28.23-.37.75-.37,1.07,0,2.33,0,3.36.05l1.91.09c.33,0,9.61,0,10.69-.05.89-.05,1.63-.14,2.01-.23.23-.05.42-.23.65-.23.14,0,.19.19.19.42,0,.33-.23.89-.37,2.19-.05.47-.14,2.52-.23,3.08-.05.23-.14.51-.33.51-.28,0-.37-.23-.37-.61,0-.33-.05-1.12-.28-1.68-.33-.75-.79-1.31-3.31-1.59-.79-.09-5.88-.14-6.39-.14-.19,0-.28.14-.28.47v12.88c0,.33.05.47.28.47.61,0,6.35,0,7.42-.09,1.12-.09,1.77-.19,2.19-.65.33-.37.51-.61.7-.61.14,0,.23.09.23.37s-.23,1.07-.37,2.61c-.09.93-.19,2.66-.19,2.99,0,.37,0,.89-.33.89-.23,0-.33-.19-.33-.42,0-.47,0-.93-.19-1.54-.19-.65-.61-1.45-2.43-1.63-1.26-.14-5.88-.23-6.67-.23-.23,0-.33.14-.33.33v4.11c0,1.59-.05,7,0,7.98.14,3.22.84,3.83,5.41,3.83,1.21,0,3.27,0,4.48-.51,1.21-.51,1.77-1.45,2.1-3.36.09-.51.19-.7.42-.7.28,0,.28.37.28.7,0,.37-.37,3.55-.61,4.53-.33,1.21-.7,1.21-2.52,1.21-3.5,0-6.07-.09-7.89-.14-1.82-.09-2.94-.14-3.64-.14-.09,0-.89,0-1.87.05-.93,0-2.01.09-2.71.09-.51,0-.75-.09-.75-.37,0-.14.09-.28.37-.28.42,0,.98-.09,1.4-.19.93-.19,1.17-1.21,1.35-2.57.23-1.96.23-5.65.23-10.13v-8.21Z"/>
        <path class="cls-2" d="M579.2,320.38c.56-1.54.75-1.82,1.03-1.82s.47.23,1.03,1.68c.7,1.77,8.03,21.05,10.87,28.14,1.68,4.15,3.03,4.9,4.01,5.18.7.23,1.4.28,1.87.28.28,0,.47.05.47.28,0,.28-.42.37-.93.37-.7,0-4.11,0-7.33-.09-.89-.05-1.4-.05-1.4-.33,0-.19.14-.28.33-.33.28-.09.56-.51.28-1.26l-4.34-11.48c-.09-.19-.19-.28-.42-.28h-10.03c-.23,0-.37.14-.47.37l-2.8,8.26c-.42,1.17-.65,2.29-.65,3.13,0,.93.98,1.35,1.77,1.35h.47c.33,0,.47.09.47.28,0,.28-.28.37-.7.37-1.12,0-3.13-.14-3.64-.14s-3.08.14-5.27.14c-.61,0-.89-.09-.89-.37,0-.19.19-.28.42-.28.33,0,.98-.05,1.35-.09,2.15-.28,3.08-2.05,3.92-4.39l10.59-28.98ZM584.05,339.05c.23,0,.23-.14.19-.33l-4.43-12.6c-.23-.7-.47-.7-.7,0l-4.11,12.6c-.09.23,0,.33.14.33h8.91Z"/>
        <path class="cls-2" d="M612.01,348.15c.09,3.83.56,5.04,1.82,5.41.89.23,1.91.28,2.33.28.23,0,.37.09.37.28,0,.28-.28.37-.84.37-2.66,0-4.53-.14-4.95-.14s-2.38.14-4.48.14c-.47,0-.75-.05-.75-.37,0-.19.14-.28.37-.28.37,0,1.21-.05,1.91-.28,1.17-.33,1.4-1.68,1.4-5.93l.05-26.74c0-1.82.14-2.33.51-2.33s1.17,1.03,1.63,1.49c.7.79,7.65,8.31,14.84,16.01,4.62,4.95,9.71,10.64,11.2,12.18l-.51-23.71c-.05-3.03-.37-4.06-1.82-4.43-.84-.19-1.91-.23-2.29-.23-.33,0-.37-.14-.37-.33,0-.28.37-.33.93-.33,2.1,0,4.34.14,4.85.14s2.05-.14,3.97-.14c.51,0,.84.05.84.33,0,.19-.19.33-.51.33-.23,0-.56,0-1.12.14-1.54.33-1.73,1.35-1.73,4.15l-.09,27.35c0,3.08-.09,3.31-.42,3.31-.37,0-.93-.51-3.41-2.99-.51-.47-7.23-7.33-12.18-12.65-5.41-5.83-10.69-11.71-12.18-13.39l.61,22.35Z"/>
        <path class="cls-2" d="M660.54,332.75c0-7.28,0-8.59-.09-10.08-.09-1.59-.47-2.33-2.01-2.66-.37-.09-1.17-.14-1.59-.14-.19,0-.37-.09-.37-.28,0-.28.23-.37.75-.37,2.1,0,5.04.14,5.27.14.56,0,3.5-.14,6.3-.14,4.62,0,13.16-.42,18.71,5.32,2.33,2.43,4.53,6.3,4.53,11.85,0,5.88-2.43,10.41-5.04,13.16-2.01,2.1-6.21,5.37-14.14,5.37-2.01,0-4.48-.14-6.49-.28-2.05-.14-3.64-.28-3.87-.28-.09,0-.89,0-1.87.05-.93,0-2.01.09-2.71.09-.51,0-.75-.09-.75-.37,0-.14.09-.28.37-.28.42,0,.98-.09,1.4-.19.93-.19,1.17-1.21,1.35-2.57.23-1.96.23-5.65.23-10.13v-8.21ZM664.46,337.79c0,4.95.05,9.24.09,10.13.05,1.17.14,3.03.51,3.55.61.89,2.43,1.87,7.93,1.87,4.34,0,8.35-1.59,11.11-4.34,2.43-2.38,3.73-6.86,3.73-11.15,0-5.93-2.57-9.75-4.48-11.76-4.39-4.62-9.71-5.27-15.26-5.27-.93,0-2.66.14-3.03.33-.42.19-.56.42-.56.93-.05,1.59-.05,6.35-.05,9.94v5.79Z"/>
        <path class="cls-2" d="M742.77,318.56c10.5,0,18.34,6.63,18.34,17.5s-7.37,19.09-18.62,19.09c-12.79,0-18.11-9.94-18.11-18.34,0-7.56,5.51-18.25,18.39-18.25ZM743.75,353.38c4.2,0,12.88-2.43,12.88-16.01,0-11.2-6.81-17.22-14.19-17.22-7.79,0-13.63,5.13-13.63,15.35,0,10.87,6.53,17.87,14.93,17.87Z"/>
        <path class="cls-2" d="M777.86,348.15c.09,3.83.56,5.04,1.82,5.41.89.23,1.91.28,2.33.28.23,0,.37.09.37.28,0,.28-.28.37-.84.37-2.66,0-4.53-.14-4.95-.14s-2.38.14-4.48.14c-.47,0-.75-.05-.75-.37,0-.19.14-.28.37-.28.37,0,1.21-.05,1.91-.28,1.17-.33,1.4-1.68,1.4-5.93l.05-26.74c0-1.82.14-2.33.51-2.33s1.17,1.03,1.63,1.49c.7.79,7.65,8.31,14.84,16.01,4.62,4.95,9.71,10.64,11.2,12.18l-.51-23.71c-.05-3.03-.37-4.06-1.82-4.43-.84-.19-1.91-.23-2.29-.23-.33,0-.37-.14-.37-.33,0-.28.37-.33.93-.33,2.1,0,4.34.14,4.85.14s2.05-.14,3.97-.14c.51,0,.84.05.84.33,0,.19-.19.33-.51.33-.23,0-.56,0-1.12.14-1.54.33-1.73,1.35-1.73,4.15l-.09,27.35c0,3.08-.09,3.31-.42,3.31-.37,0-.93-.51-3.41-2.99-.51-.47-7.23-7.33-12.18-12.65-5.41-5.83-10.69-11.71-12.18-13.39l.61,22.35Z"/>
        <path class="cls-2" d="M830.32,341.06c0,6.86.19,9.85,1.03,10.69.75.75,1.96,1.07,5.6,1.07,2.47,0,4.53-.05,5.65-1.4.61-.75,1.07-1.91,1.21-2.8.05-.37.14-.61.42-.61.23,0,.28.19.28.7s-.33,3.31-.7,4.67c-.33,1.07-.47,1.26-2.94,1.26-3.36,0-5.79-.09-7.75-.14-1.96-.09-3.41-.14-4.76-.14-.19,0-.98.05-1.91.05-.93.05-1.96.09-2.66.09-.51,0-.75-.09-.75-.37,0-.14.09-.28.37-.28.42,0,.98-.09,1.4-.19.93-.19,1.17-1.21,1.35-2.57.23-1.96.23-5.65.23-10.13v-8.21c0-7.28,0-8.59-.09-10.08-.09-1.59-.47-2.33-2.01-2.66-.37-.09-1.17-.14-1.59-.14-.19,0-.37-.09-.37-.28,0-.28.23-.37.75-.37,2.1,0,5.04.14,5.27.14s3.64-.14,5.04-.14c.51,0,.75.09.75.37,0,.19-.19.28-.37.28-.33,0-.98.05-1.54.14-1.35.23-1.73,1.03-1.82,2.66-.09,1.49-.09,2.8-.09,10.08v8.31Z"/>
        <path class="cls-2" d="M863.12,342.41c0-2.52-.47-3.55-1.07-4.9-.33-.75-6.58-11.01-8.21-13.44-1.17-1.73-2.33-2.89-3.17-3.45-.7-.47-1.59-.75-2.01-.75-.23,0-.47-.09-.47-.33,0-.19.19-.33.61-.33.89,0,4.39.14,4.62.14.33,0,2.1-.14,3.92-.14.51,0,.61.14.61.33s-.28.23-.7.42c-.37.19-.61.47-.61.84,0,.56.23,1.12.61,1.82.75,1.35,7.75,13.39,8.59,14.75.89-1.96,6.81-12.18,7.75-13.72.61-.98.79-1.77.79-2.38,0-.65-.19-1.17-.75-1.31-.42-.14-.7-.23-.7-.47,0-.19.28-.28.75-.28,1.21,0,2.71.14,3.08.14.28,0,3.64-.14,4.53-.14.33,0,.61.09.61.28,0,.23-.23.37-.61.37-.51,0-1.4.19-2.15.65-.93.56-1.45,1.12-2.47,2.38-1.54,1.87-8.07,12.83-8.91,14.84-.7,1.68-.7,3.13-.7,4.67v4.01c0,.75,0,2.71.14,4.67.09,1.35.51,2.38,1.91,2.57.65.09,1.68.19,2.1.19.28,0,.37.14.37.28,0,.23-.23.37-.75.37-2.57,0-5.51-.14-5.74-.14s-3.17.14-4.57.14c-.51,0-.75-.09-.75-.37,0-.14.09-.28.37-.28.42,0,.98-.09,1.4-.19.93-.19,1.35-1.21,1.45-2.57.14-1.96.14-3.92.14-4.67v-4.01Z"/>
      </g>
      <g>
        <g>
          <path class="cls-1" d="M85.34,84.9l11.09,8.56c-.78,1.07-2.17,1.32-4.16.75-6.19,1.78-12.84,3.32-19.95,4.6,7.61,4.85,17.99,8.1,31.15,9.73v1.39c-4.98,1.28-8.18,5.1-9.6,11.45-12.73-4.21-21.98-10.09-27.74-17.65v.32c-10.17,4.64-22.69,9.52-37.55,14.66-.71,1.5-1.71,2.35-2.99,2.57l-6.29-13.69c3.48-.21,8.78-.71,15.9-1.5v-21.18h-11.84c-3.49,15.34-10.92,27.35-22.3,36.05l-1.07-.75c2.84-4.64,5.19-9.68,7.04-15.14,1.85-5.46,3.18-11.2,4-17.22.82-6.03,1.37-11.52,1.65-16.47.28-4.96.43-10.68.43-17.17V16.06l14.94,9.47h52.27l5.97-6.42,12.48,9.52c-.92,1.07-2.42,1.78-4.48,2.14v17.54c-.07.43-1.39,1.02-3.95,1.76-2.56.75-4.8,1.12-6.72,1.12h-2.13v-3.96H26.03v6.95c0,3.92-.04,6.95-.11,9.09h13.34v-13.91l15.36,1.5c-.14,1.28-1.21,2.11-3.2,2.46v9.95h14.3v-13.69l15.36,1.5c-.21,1.35-1.32,2.21-3.31,2.57v9.63h6.29l5.97-8.13c4.62,3.78,8.32,6.99,11.09,9.63-.29,1.14-1.32,1.71-3.09,1.71h-20.27v15.19h8.11l6.08-8.13c4.48,3.78,8.11,6.99,10.88,9.63-.29,1.14-1.25,1.71-2.88,1.71h-14.62ZM24,81.69h15.26v-15.19h-13.55c-.21,5.28-.78,10.34-1.71,15.19ZM81.5,28.74H26.03v15.4h55.47v-15.4ZM47.15,84.9v19.9c3.84-.43,9.89-1.14,18.14-2.14-3.56-4.92-6.33-10.84-8.32-17.76h-9.81ZM65.72,66.5h-14.3v15.19h14.3v-15.19ZM84.06,84.9h-24.75c2.49,4.85,5.94,8.92,10.35,12.2,5.76-4.35,10.56-8.41,14.4-12.2Z"/>
          <path class="cls-1" d="M16.54,198.5h1.49c1.99,5.07,2.86,9.59,2.61,13.59-.25,3.99-1.05,7.26-2.4,9.79-1.35,2.53-3.13,4.44-5.33,5.72-2.06,1.28-4.25,1.64-6.56,1.07-2.31-.57-3.82-1.89-4.53-3.96-.64-1.85-.5-3.57.43-5.14.92-1.57,2.31-2.82,4.16-3.74,2.7-1.28,5.08-3.51,7.15-6.69,2.06-3.17,3.06-6.72,2.99-10.64ZM4.8,160.31l-.85-3.1h40.54v-20.22l17.5,1.39c-.21,1.86-1.67,3-4.37,3.42v15.4h23.47l6.93-9.42c5.33,4.21,9.6,7.78,12.8,10.7-.21,1.21-1.24,1.82-3.09,1.82h-40.11v19.68h18.78l7.25-9.41c5.55,4.21,9.92,7.77,13.12,10.7-.36,1.21-1.42,1.82-3.2,1.82H10.67l-.75-3.1h34.56v-19.68H4.8ZM77.56,210.27l.32,13.37c1.78.64,3,1.34,3.68,2.09.67.75,1.01,1.77,1.01,3.05,0,2.78-1.78,4.71-5.33,5.78-3.56,1.07-10.42,1.6-20.59,1.6h-13.34c-6.05,0-10.05-.7-12-2.09-1.96-1.39-2.93-4.3-2.93-8.72v-29.1l16.11,1.39c-.21,1.57-1.35,2.5-3.41,2.78v22.25c0,.86.28,1.43.85,1.71.57.29,1.81.43,3.73.43h12.27c4.55,0,7.89-.07,10.03-.21,1.49,0,2.52-.5,3.09-1.5.71-.93,2.49-5.2,5.33-12.84h1.17ZM39.37,188.45l.96-.86c11.88,1.14,19.81,4.56,23.79,10.27,2.35,3.42,2.74,6.6,1.17,9.52-1.42,2.57-3.66,3.53-6.72,2.89-.85-.14-1.71-.43-2.56-.86-1.42-3.57-3.7-7.26-6.83-11.07-3.13-3.81-6.4-7.11-9.81-9.9ZM75.21,197.86l1.07-.75c12.38,3.28,20.52,8.49,24.43,15.62,2.42,4.35,2.7,8.24.85,11.66-1.57,2.78-3.88,3.85-6.93,3.21-1.35-.28-2.7-.96-4.05-2.03-.64-4.64-2.4-9.48-5.28-14.55-2.88-5.06-6.24-9.45-10.08-13.16Z"/>
        </g>
        <g>
          <path class="cls-1" d="M163.75,185.4c2.65,2.77,4.31,5.54,4.98,8.29.65,1.39,1.32,2.77,1.99,4.14,5.31,12.43,8.3,22.45,8.97,30.04.65,4.82.33,8.63-1,11.39-.67,4.82-3.33,8.29-7.97,10.36h-1.99l-1,1.04c-3.99.68-7.97-.7-11.96-4.14-3.33-3.46-5.65-7.61-6.98-12.43-2.66-7.61-4.98-14.84-6.98-21.75-1.34-4.14-3.33-7.59-5.98-10.36-2.66-2.07-4.98-4.48-6.98-7.25l1-3.11h1.99l-1-2.07c7.97-4.82,18.93-6.21,32.89-4.14ZM199.63,9.32h3.99c1.32.7,2.99,1.73,4.98,3.11,3.32,4.14,6.63,6.91,9.96,8.29,1.32.7,2.65,1.73,3.99,3.11,1.99,1.39,3.99,2.43,5.98,3.11l1,3.11h-1.99c-3.33,5.54-6.65,10.71-9.96,15.54-1.34,2.07-2.34,3.8-2.99,5.18-1.99,2.07-2.99,3.46-2.99,4.14-.67,1.39-.34,3.11,1,5.18h3.99c1.32,2.77,2.65,5.54,3.99,8.29,3.32,3.46,5.31,8.29,5.98,14.5l-1.99,2.07c-1.34,2.77-2.99,5.18-4.98,7.25-1.99,2.77-3.99,5.54-5.98,8.29,3.99,2.07,6.98,5.53,8.97,10.36,2.65,5.54,3.99,9.68,3.99,12.43,0,5.53-.67,9.68-1.99,12.43-1.34,3.46-3.66,6.21-6.98,8.29-1.99-2.07-3.99-3.79-5.98-5.18-2.66,2.77-4.98,5.18-6.98,7.25-2.66.7-6.98,2.43-12.96,5.18-3.33,2.07-6.98,4.14-10.96,6.21-7.32,4.14-14.62,8.29-21.92,12.43-2.66-2.07-4.98-3.11-6.98-3.11-3.33-7.59-7.65-13.8-12.96-18.64l-1-1.04v-4.14c.65-3.45,1.99-5.52,3.99-6.21l1.99,1.04c3.99-2.07,7.63-5.18,10.96-9.32,5.98-6.89,11.62-13.81,16.94-20.72-3.33,0-5.98-.68-7.97-2.07-3.99.7-7.97,1.04-11.96,1.04-9.31,0-13.95-4.48-13.95-13.46l1.99-1.04,2.99-1.04c0-4.14.33-7.93,1-11.39-1.34-1.38-2.34-2.75-2.99-4.14.65-2.07,1.32-3.79,1.99-5.18l2.99-2.07,1.99,2.07,1-1.04h2.99l1.99,2.07h2.99l1.99,1.04c0-.68,1.32-2.75,3.99-6.21,4.64-5.52,9.3-11.39,13.95-17.61,1.99-2.75,4.31-5.52,6.98-8.29,1.99-3.45,3.64-6.89,4.98-10.36l-1.99-2.07,1-1.04-1-1.04v-2.07c-1.34-1.38-1.67-3.45-1-6.21l1-1.04,1-2.07-1-1.04h1.99l1-2.07c1.99.7,3.99,1.39,5.98,2.07,1.32-2.07,2.65-3.45,3.99-4.14ZM184.68,170.9c7.3,1.39,12.96,5.54,16.94,12.43,5.98,11.75,8.63,17.61,7.97,17.61l2.99,1.04c-1.99,3.46-3.99,6.57-5.98,9.32-2.66,1.39-5.65,2.43-8.97,3.11-3.99-1.38-6.98-3.11-8.97-5.18-5.33-6.89-8.97-13.11-10.96-18.64-2.66-4.82-5.98-9.32-9.97-13.46.65-.68,1.32-1.72,1.99-3.11h1.99l-1-1.04,1-1.04c3.32-1.38,7.63-1.72,12.96-1.04ZM200.62,66.29c-4.66,4.14-8.97,8.29-12.96,12.43,2.65,1.39,5.31,2.43,7.97,3.11,2.65-4.82,5.31-9.32,7.97-13.46l-2.99-2.07ZM200.62,114.97c-3.33,3.46-6.98,7.25-10.96,11.39,4.64-2.07,9.3-3.79,13.95-5.18-.67-2.07-1.67-4.14-2.99-6.21ZM213.58,154.33c5.31,1.39,9.97,5.18,13.95,11.39,3.32,4.84,3.64,10.36,1,16.57-1.34,3.46-2.99,5.88-4.98,7.25v2.07h-3.99c-3.33-1.38-5.98-4.82-7.97-10.36-4.66-8.97-9.31-17.95-13.95-26.93,5.98,1.39,11.29,1.39,15.95,0ZM324.2,8.29c1.99-.68,4.31-.34,6.98,1.04,3.99-.68,7.97,0,11.96,2.07l1,1.04,1.99,1.04,1.99-1.04c1.32.7,2.65,1.73,3.99,3.11,3.32,2.07,5.64,4.84,6.98,8.29-.67,3.46-2.66,6.57-5.98,9.32-1.99,8.98-4.98,17.96-8.97,26.93,11.29,4.84,19.26,13.12,23.92,24.86-1.34,2.07-2.66,4.5-3.99,7.25-1.34.7-2.66,1.73-3.99,3.11,0,2.07-.34,3.8-1,5.18-1.34.7-2.34,1.73-2.99,3.11-6.65-8.29-13.3-16.57-19.93-24.86l-1,2.07c-1.34.7-3.66,3.11-6.98,7.25-3.33,3.46-6.65,6.91-9.97,10.36,2.65,2.07,5.64,4.14,8.97,6.21,3.32,1.39,6.31,3.46,8.97,6.21,0,3.46-.34,6.91-1,10.36l1,2.07h1.99l1-2.07c2.65,2.07,5.64,3.11,8.97,3.11,3.99,0,7.97,1.04,11.96,3.11.65,1.39,1.65,2.77,2.99,4.14,4.64,4.14,5.31,8.98,1.99,14.5l-1,1.04c-.67,1.39-1,2.77-1,4.14l-1-2.07v2.07l-1.99,1.04c-3.33,0-6.65-.34-9.97-1.04l-1-1.04c-4.66,0-8.32.36-10.96,1.04-1.34,0-2.34-.34-2.99-1.04-1.99,12.43-2.99,24.52-2.99,36.25,9.97,6.91,17.94,12.79,23.92,17.61,7.97,6.91,14.28,14.86,18.93,23.82-1.34,2.07-2.66,4.14-3.99,6.21-5.98,1.38-11.96,2.41-17.94,3.11-3.99.68-6.65.68-7.97,0h-4.98l-1.99,1.04-1.99-1.04v2.07l-1.99,2.07c-5.98-2.77-11.3-6.21-15.95-10.36-3.99-4.14-8.31-8.63-12.96-13.46-7.32-10.36-14.62-20.36-21.92-30.04-1.34,2.77-2.34,5.54-2.99,8.29-.67,2.77-1.67,5.18-2.99,7.25-.67,2.77-1.67,5.53-2.99,8.29h-1.99c-3.33,4.84-6.32,9.32-8.97,13.46-1.34.68-2.99,1.04-4.98,1.04,0,4.14.33,8.29,1,12.43,0,4.14-.67,7.93-1.99,11.39-4.66,2.75-9.31,3.45-13.95,2.07-1.99-.7-3.66-1.39-4.98-2.07l-1.99-2.07,1-2.07,1.99-2.07c-1.34-4.84-2.34-9.32-2.99-13.46-.67-2.77-1.34-5.18-1.99-7.25,0-2.07.33-4.48,1-7.25-1.34-24.16-.34-48.33,2.99-72.5-3.99,2.07-7.65,4.5-10.96,7.25-.67-.68-1.67-1.72-2.99-3.11.65-2.07,1.32-3.79,1.99-5.18,5.98-18.64,11.62-37.29,16.94-55.93,0-4.14,1.32-7.93,3.99-11.39h-2.99c-3.99,3.46-7.64,6.91-10.96,10.36-1.34,1.39-2.33,2.77-2.99,4.14l-3.99-2.07c1.32-2.07,2.32-4.14,2.99-6.21.65-2.07,1.32-4.14,1.99-6.21,3.32-5.52,7.3-14.5,11.96-26.93,1.99-4.82,3.64-9.32,4.98-13.46.65-2.07,1.32-4.48,1.99-7.25v-6.21l1.99-2.07c1.32-1.38,2.99-2.41,4.98-3.11h2.99c2.65,1.39,4.98,3.46,6.98,6.21,3.99,3.46,7.63,6.91,10.96,10.36v2.07c-4.66,11.05-10.63,21.75-17.94,32.11l1,2.07h1.99c1.32,1.39,2.99,2.43,4.98,3.11.65,2.07,1,4.14,1,6.21s-.34,4.14-1,6.21c-1.34,2.07-1.99,4.14-1.99,6.21-3.33,6.21-5.65,13.12-6.98,20.72,3.99-5.52,6.63-10.7,7.97-15.54,4.64-11.04,8.63-22.43,11.96-34.18,1.99-6.21,3.64-12.07,4.98-17.61,1.32-5.52,2.32-11.04,2.99-16.57-1.99-2.07-3.33-3.45-3.99-4.14l-1-3.11h2.99v-2.07c1.32-2.07,2.32-3.79,2.99-5.18,2.65-.68,5.31-1.04,7.97-1.04l1-1.04h6.98c1.99.7,3.64,1.73,4.98,3.11,3.32.7,5.64,2.07,6.98,4.14.65-2.07,1.32-3.45,1.99-4.14l2.99-2.07v-1.04h1.99l1-2.07ZM296.29,77.68c-1.34,2.77-2.34,5.18-2.99,7.25-1.34.7-2.99,2.43-4.98,5.18-2.66,2.07-5.33,4.5-7.97,7.25-3.99,6.21-8.97,11.05-14.95,14.5l1,1.04-1.99-1.04c-1.34.7-2.66,1.39-3.99,2.07l-1.99-1.04c-1.34,2.07-2.34,4.5-2.99,7.25,1.99,1.39,3.32,3.11,3.99,5.18,1.99,2.07,3.32,4.5,3.99,7.25v7.25c-.67,5.54-1.67,11.05-2.99,16.57,0,2.07-.34,4.14-1,6.21v5.18c0,4.84-.34,9.32-1,13.46.65,4.14,1.32,8.98,1.99,14.5,7.3-26.23,10.96-48.33,10.96-66.29,0-2.75-1-5.18-2.99-7.25l1.99-1.04v-3.11l1,1.04,1-1.04c3.32.7,6.31,1.39,8.97,2.07,3.99.7,7.63,3.11,10.96,7.25.65,1.39,1.65,2.77,2.99,4.14.65,1.39,1,2.77,1,4.14,0,2.77-.34,5.54-1,8.29-1.34,4.14-2.66,8.29-3.99,12.43,2.65,2.77,4.98,5.18,6.98,7.25,1.99,2.77,3.99,5.54,5.98,8.29.65-12.43,1-27.27,1-44.54-.67-3.45-1.34-6.55-1.99-9.32-1.99-2.75-3.99-5.52-5.98-8.29l-1,1.04c-3.99-6.21-4.98-11.04-2.99-14.5,1.99-2.75,5.64-2.75,10.96,0,.65-2.75,1.65-5.18,2.99-7.25l-1.99-1.04c-1.99-4.14-4.98-7.59-8.97-10.36ZM319.21,23.82l-1.99,2.07c-1.34,2.07-1.99,4.5-1.99,7.25-1.34,2.07-3.33,5.88-5.98,11.39-2.66,6.91-3.99,11.05-3.99,12.43,3.99,1.39,6.98,3.8,8.97,7.25h1.99c.65-1.38,1.65-2.41,2.99-3.11,2.65-11.04,5.64-22.09,8.97-33.14l-1.99-3.11c-2.66,0-4.98-.34-6.98-1.04Z"/>
          <path class="cls-1" d="M439.8,12.43c3.99,1.39,8.3,3.11,12.96,5.18l1,2.07c7.3,1.39,12.61,5.54,15.94,12.43l-1.99,2.07c0,2.77-.34,5.54-1,8.29-.67,8.98-1.67,17.96-2.99,26.93,1.99,0,3.64.36,4.98,1.04,1.32,2.07,2.65,4.14,3.99,6.21l1.99,1.04c.65,2.77,1.32,5.87,1.99,9.32,1.32,4.14,1.32,7.95,0,11.39-3.99,4.84-9.31,8.64-15.95,11.39-.67,2.77-1,5.54-1,8.29,9.3,4.14,15.28,8.29,17.94,12.43,3.32,4.84,3.32,10.02,0,15.54-3.33.7-5.98,1.39-7.97,2.07-2.66,2.07-5.65,2.43-8.97,1.04-1.34,32.46-2.99,64.91-4.98,97.36-2.66,2.07-4.33,4.14-4.98,6.21l-1-2.07c-1.34,1.38-2.34,2.75-2.99,4.14-1.34,2.07-2.99,4.14-4.98,6.21-2.66-2.07-5.33-3.8-7.97-5.18-2.66-1.39-4.33-4.14-4.98-8.29,0-2.07-1.99-5.88-5.98-11.39-1.34-1.39-2.34-2.43-2.99-3.11-1.99-1.39-3.66-2.77-4.98-4.14-4.66,0-8.97-.7-12.96-2.07,0-2.07,1.32-4.82,3.99-8.29-3.99,3.46-6.98,5.88-8.97,7.25-3.33,1.38-5.65,3.11-6.98,5.18l-2.99,2.07-1-3.11c12.61-37.97,25.24-76.29,37.87-114.97-1.99,2.07-4.33,3.11-6.98,3.11-1.99.7-3.99,1.39-5.98,2.07-1.99.7-3.66,1.39-4.98,2.07-1.99-3.45-3.33-6.89-3.99-10.36-1.34-2.07-2.66-4.14-3.99-6.21-4.66-2.75-6.98-6.55-6.98-11.39,0-3.45-.67-5.86-1.99-7.25,1.32-2.07,2.32-4.14,2.99-6.21,5.98-2.07,10.96-1.38,14.95,2.07,2.65-.68,4.98-1.04,6.98-1.04,6.63-1.38,13.28-2.41,19.93-3.11,1.32-13.11,0-26.23-3.99-39.36-5.33-3.45-8.32-7.93-8.97-13.46-.67-5.52,1.32-9.32,5.98-11.39,4.64-.68,8.97-1.38,12.96-2.07ZM427.84,188.51c-5.33,11.05-12.96,22.11-22.92,33.14,1.99-.68,3.99-.68,5.98,0,3.32-.68,5.64-1.04,6.98-1.04,2.65-.68,5.64-1.38,8.97-2.07.65-9.66,1-19.68,1-30.04ZM481.65,100.47c2.65-1.38,5.64-1.72,8.97-1.04h6.98c1.99-.68,4.31-1.04,6.98-1.04,8.63-2.07,16.94-4.14,24.91-6.21,8.63-1.38,16.94-2.41,24.91-3.11,17.27-2.75,34.21-4.82,50.82-6.21,4.64,0,8.97.36,12.96,1.04,4.64,1.39,7.97,3.8,9.97,7.25,1.99,2.77,2.99,5.88,2.99,9.32-.67.7-1.67,1.73-2.99,3.11-2.66,3.46-4.33,5.87-4.98,7.25-21.92-3.45-43.85-3.45-65.77,0,1.32,2.77,2.65,5.54,3.99,8.29,5.31-1.38,10.96-2.41,16.94-3.11,1.32-2.75,3.64-4.48,6.98-5.18,7.3,2.07,12.61,5.18,15.94,9.32,1.99,1.39,3.99,2.77,5.98,4.14,2.65.7,4.64,2.43,5.98,5.18l1,1.04c3.32,6.91,2.65,12.79-1.99,17.61-2.66,2.77-3.99,4.5-3.99,5.18-.67,2.07-1,4.14-1,6.21-1.34,5.54-2.66,10.71-3.99,15.54-1.34,5.54-2.99,10.71-4.98,15.54h-4.98v-2.07c-3.99,1.39-6.65.7-7.97-2.07l-2.99,1.04-1.99-3.11c-8.64,1.39-16.94,2.43-24.91,3.11l-2.99,3.11c3.99,0,9.97,1.73,17.94,5.18,14.61,6.21,29.23,12.09,43.85,17.61l1,2.07c2.65,1.39,4.98,4.84,6.98,10.36,1.99,3.45,2.99,6.21,2.99,8.29,0,1.38.33,3.11,1,5.18-1.34,2.75-2.34,5.86-2.99,9.32-5.33,3.45-8.97,5.18-10.96,5.18-2.66,0-5.98-1.39-9.97-4.14-3.99-2.77-7.32-5.88-9.97-9.32-3.33-3.46-6.32-5.88-8.97-7.25-2.66-2.07-4.98-4.14-6.98-6.21-2.66-1.39-6.98-4.82-12.96-10.36-7.32-6.21-10.64-12.07-9.97-17.61-1.99-2.75-2.66-5.52-1.99-8.29h-4.98c-1.34,0-2.66-.34-3.99-1.04l-1-1.04c-1.99.7-3.66,1.04-4.98,1.04-1.99,0-3.66.36-4.98,1.04-3.33.7-5.33,1.73-5.98,3.11,2.65,1.39,5.31,3.11,7.97,5.18,3.32,4.84,5.31,11.05,5.98,18.64l-1.99,2.07h-4.98l-1,1.04c-6.65,5.52-13.62,10.7-20.93,15.54-2.66,2.07-4.66,3.79-5.98,5.18-1.99.68-3.99,1.38-5.98,2.07-3.99,1.38-7.97,2.75-11.96,4.14h-6.98c-2.66-.7-5.33-1.73-7.97-3.11-4.66,3.45-7.97,4.14-9.96,2.07.65-2.07,1.32-3.8,1.99-5.18,1.32-.7,2.65-1.73,3.99-3.11,12.61-12.43,25.24-25.2,37.87-38.32l-2.99-1.04c-.67,0-1.67.36-2.99,1.04v-1.04c-1.99-.68-3.66-1.38-4.98-2.07-1.99-3.45-2.99-7.25-2.99-11.39-.67-6.89-1.34-14.15-1.99-21.75-.67-3.45-1.34-6.89-1.99-10.36,0-3.45-1-6.89-2.99-10.36l1-1.04-1-2.07,1-2.07c-2.66-2.75-4.33-5.18-4.98-7.25l1.99-2.07c1.99,0,3.64.36,4.98,1.04l1.99-3.11c-3.33-.68-5.98-1.38-7.97-2.07-1.99-1.38-3.66-2.41-4.98-3.11-3.99-2.07-6.32-4.48-6.98-7.25,5.98-8.29,9.97-12.77,11.96-13.46ZM563.37,0h1.99c2.65,1.39,4.98,2.77,6.98,4.14,5.31,0,11.62,1.39,18.93,4.14,3.99,2.07,6.63,4.84,7.97,8.29-.67,1.39-.67,3.11,0,5.18-.67,2.07-1.34,4.5-1.99,7.25,3.32,0,6.31.36,8.97,1.04,5.31,0,9.62.7,12.96,2.07,5.98,7.61,5.31,15.54-1.99,23.82-9.31,0-18.28-.34-26.91-1.04-2.66,7.61-6.32,14.16-10.96,19.68-1.34.7-2.99,1.04-4.98,1.04-.67,1.39-1.34,2.77-1.99,4.14-.67.7-1.34,1.73-1.99,3.11h-1.99l-1.99,2.07c-3.33-.68-6.32-1.72-8.97-3.11l-1-2.07c-5.98.7-13.62,2.43-22.92,5.18-1.99.7-3.66,1.39-4.98,2.07-1.34.7-2.34,1.73-2.99,3.11-3.99-1.38-7.32-1.38-9.97,0-1.34-1.38-2.99-2.41-4.98-3.11-3.33-4.82-4.98-9.32-4.98-13.46-.67-2.75-1.67-4.14-2.99-4.14-3.33.7-6.65,1.73-9.97,3.11-3.33-.68-5.65-1.38-6.98-2.07-1.34-.68-2.99-3.11-4.98-7.25-1.99-2.75-4.33-5.86-6.98-9.32,0-3.45,1-6.55,2.99-9.32,1.32-1.38,2.65-2.41,3.99-3.11l1.99,2.07c.65,0,1.65.36,2.99,1.04,2.65,0,4.98.36,6.98,1.04,3.32,0,6.63.36,9.97,1.04,0-4.14-1-7.25-2.99-9.32-2.66-2.07-5.33-3.79-7.97-5.18l1-3.11-1-2.07,1-3.11c-.67-1.38-1-2.75-1-4.14,1.32-1.38,2.32-2.41,2.99-3.11,1.99-1.38,4.31-2.41,6.98-3.11h2.99c1.32.7,2.65,1.39,3.99,2.07,4.64.7,9.3,1.73,13.95,3.11,5.31,4.14,8.3,9.68,8.97,16.57,0,1.39.33,2.77,1,4.14,7.3-1.38,14.95-2.41,22.92-3.11.65-4.82,1.32-9.66,1.99-14.5-3.33-4.82-5.65-9.66-6.98-14.5.65-.68,1.32-1.04,1.99-1.04,1.32-.68,2.99-1.04,4.98-1.04,1.99-2.07,3.99-3.79,5.98-5.18ZM498.59,122.22c-1.99,2.07-3.99,3.8-5.98,5.18l1.99,1.04,3.99,1.04c4.64-2.07,8.97-3.11,12.96-3.11,4.64-.68,8.97-1.38,12.96-2.07,1.32-.68,2.65-1.04,3.99-1.04,1.32-.68,2.32-1.38,2.99-2.07-1.99-1.38-3.99-2.75-5.98-4.14v-3.11c-9.31.7-18.28,3.46-26.91,8.29ZM533.47,137.76c-3.99,1.39-8.31,2.43-12.96,3.11l-1.99,2.07c.65,2.07,1.32,4.14,1.99,6.21,4.64-1.38,9.3-2.75,13.95-4.14,0-2.07-.34-4.48-1-7.25ZM534.47,165.72c-3.33.7-6.65,1.39-9.97,2.07l-1.99,3.11c-1.34-.68-2.66-1.38-3.99-2.07v9.32c5.31-1.38,10.62-2.41,15.95-3.11v-9.32ZM553.4,58c-5.33.7-10.31,1.39-14.95,2.07l-1.99,2.07v4.14c5.31-2.07,10.96-3.11,16.94-3.11v-5.18ZM562.37,159.51l-1.99,2.07c-.67,2.77-1,5.88-1,9.32,3.99-.68,7.97-1.04,11.96-1.04-.67-4.14-.34-8.29,1-12.43-3.33.7-6.65,1.39-9.97,2.07ZM563.37,133.62c-1.34,2.77-1.67,5.54-1,8.29,3.32,0,6.98.36,10.96,1.04,0-3.45.33-6.89,1-10.36-3.99.7-7.65,1.04-10.96,1.04Z"/>
          <path class="cls-1" d="M779.62,3.11c3.32,0,6.63,1.04,9.97,3.11,3.99,2.77,8.63,3.8,13.95,3.11l1.99-1.04c1.32.7,2.99,1.73,4.98,3.11,3.99.7,6.63,3.11,7.97,7.25-1.99,5.54-2.99,11.75-2.99,18.64,6.63-1.38,12.61-2.41,17.94-3.11,4.64-.68,8.63-.34,11.96,1.04,3.32,2.07,6.31,4.5,8.97,7.25-1.34,2.07-1.99,4.5-1.99,7.25-1.34,1.39-2.34,2.43-2.99,3.11h-1.99l-1,2.07c-11.3,4.14-22.27,8.29-32.89,12.43,0,3.46-.34,7.25-1,11.39l1.99,1.04v3.11c1.99-.68,4.31-1.04,6.98-1.04,2.65-.68,4.98-1.38,6.98-2.07h7.97c2.65-.68,7.3-1.72,13.95-3.11l-3.99,2.07h1.99l1-1.04c4.64-.68,9.3-1.04,13.95-1.04,3.32,2.07,6.98,3.8,10.96,5.18,2.65.7,4.98,1.73,6.98,3.11,1.99,1.39,2.99,3.8,2.99,7.25-1.34,2.07-2.34,3.8-2.99,5.18-1.99,1.39-3.99,2.43-5.98,3.11-2.66,1.39-4.98,3.11-6.98,5.18-7.97-3.45-16.94-4.48-26.91-3.11-3.33.7-6.65,1.04-9.96,1.04l1.99,2.07c2.65,1.39,5.31,3.8,7.97,7.25,2.65,3.46,4.98,6.21,6.98,8.29,1.32-.68,2.65-1.04,3.99-1.04h17.94c5.31,0,9.3,1.04,11.96,3.11,0,1.39.33,3.11,1,5.18,1.32,3.46,2.32,6.91,2.99,10.36l-1.99,3.11c-1.99,0-3.66.36-4.98,1.04l-1.99-1.04-1,2.07c-10.64,0-21.6.36-32.89,1.04,3.32,29,1.99,58-3.99,87l-2.99,1.04c-5.33,4.82-10.31,9.66-14.95,14.5-2.66,2.75-4.33,5.52-4.98,8.29h-1c-2.66.68-4.66,1.38-5.98,2.07l-1-1.04c-1.34-1.39-2.34-2.43-2.99-3.11-1.99-4.84-3.66-9.68-4.98-14.5v-2.07c-9.97-5.54-19.93-8.64-29.9-9.32-1.34-.7-2.66-1.04-3.99-1.04-1.99-.7-3.99-1.39-5.98-2.07-.67-2.07-1-3.79-1-5.18-1.34-1.38-2.66-2.41-3.99-3.11,9.3,1.39,17.6,2.43,24.91,3.11,1.32-.68,3.64-.34,6.98,1.04.65-.68,2.65-1.04,5.98-1.04h9.96c1.32-6.21,2.65-12.43,3.99-18.64.65-5.52,1-11.39,1-17.61,0-11.73-.34-23.47-1-35.22-1.34,0-2.99.36-4.98,1.04-5.33.7-10.31,1.39-14.95,2.07-3.99.7-7.97,1.39-11.96,2.07-.67,1.39-1.34,2.43-1.99,3.11h-2.99c1.99,2.07,3.64,4.14,4.98,6.21l2.99,2.07c1.99,0,3.99.7,5.98,2.07,7.97,6.91,12.96,13.13,14.95,18.64,0,1.39.65,3.11,1.99,5.18-1.34,3.46-2.66,6.91-3.99,10.36h-1v2.07c-1.34.7-2.66,1.39-3.99,2.07-3.33.7-5.98,1.04-7.97,1.04l-2.99-2.07c-1.34-.68-2.66-1.38-3.99-2.07l-3.99-2.07c-1.34-2.75-2.66-5.52-3.99-8.29l1-1.04c-.67-.68-1-1.38-1-2.07v-1.04c-4.66-8.29-9.97-15.54-15.95-21.75h-2.99c1.99-.68,3.99-1.72,5.98-3.11,1.32-.68,2.65-1.38,3.99-2.07-3.99-.68-7.65-1.04-10.96-1.04-1.34,1.39-2.34,2.77-2.99,4.14-3.99,0-7.65-1.04-10.96-3.11-1.99-3.45-3.66-7.25-4.98-11.39,0,2.07.33,3.8,1,5.18-1.34,4.84-1.34,10.71,0,17.61,0,8.29-.34,13.46-1,15.54-.67,2.07-1.34,4.14-1.99,6.21-2.66,0-5.33-.34-7.97-1.04-2.66-1.38-4.98-2.07-6.98-2.07-3.33,0-6.32-.34-8.97-1.04-1.99-2.75-3.33-5.52-3.99-8.29-5.33,3.46-10.31,6.91-14.95,10.36-3.99,2.77-6.98,5.53-8.97,8.29-1.99,3.46-4.66,5.88-7.97,7.25-2.66,1.39-5.98,1.73-9.97,1.04-1.34-.68-2.66-1.72-3.99-3.11-1.34-1.38-2.33-2.75-2.99-4.14-3.99-2.07-6.98-6.21-8.97-12.43-1.34-2.07-2.34-4.14-2.99-6.21,0-2.75,1-5.18,2.99-7.25,1.99-.68,4.31-1.38,6.98-2.07,1.99-.68,4.31-.68,6.98,0-2.66-17.95-3.99-35.56-3.99-52.82s.33-34.18,1-50.75c-.67-.68-1-1.38-1-2.07l-1-3.11c.65-1.38.65-2.75,0-4.14,1.32-.68,2.99-1.38,4.98-2.07h1.99c4.64-1.38,9.62-2.41,14.95-3.11,3.99,0,7.97-.34,11.96-1.04,3.99-2.07,8.3-3.79,12.96-5.18.65-1.38,1.32-2.75,1.99-4.14,1.32-.68,2.65-1.38,3.99-2.07,1.32-.68,2.65-1.38,3.99-2.07,2.65,0,5.31.7,7.97,2.07h1.99c1.99,1.39,3.99,3.11,5.98,5.18.65.7,1.65,1.04,2.99,1.04,2.65,4.14,5.31,7.95,7.97,11.39.65,1.39,1,3.11,1,5.18-1.99,2.77-2.99,6.21-2.99,10.36-2.66,11.05-3.99,21.75-3.99,32.11.65,10.36,1,21.07,1,32.11,5.31-1.38,10.62-2.75,15.95-4.14,2.65-1.38,5.31-2.41,7.97-3.11v1.04c3.32-1.38,6.63-2.41,9.97-3.11,1.99-.68,4.31-1.38,6.98-2.07l1,1.04c4.64-1.38,9.97-2.41,15.94-3.11,3.99-2.07,7.63-3.45,10.96-4.14h1.99c.65-1.38,1.65-2.75,2.99-4.14-1.99-1.38-3.66-3.11-4.98-5.18h-1v-2.07c-5.33,1.39-10.31,2.77-14.95,4.14-4.66.7-9.64,1.39-14.95,2.07-1.99,1.39-3.99,2.07-5.98,2.07-4.66.7-7.97,1.73-9.96,3.11-1.34,0-2.34-.34-2.99-1.04h-7.97c-1.34-2.07-2.33-4.14-2.99-6.21-3.33-2.75-5.65-5.86-6.98-9.32l1-1.04c4.64-1.38,8.97-3.11,12.96-5.18,2.65-1.38,5.64-2.41,8.97-3.11,1.99-.68,4.64-1.38,7.97-2.07,2.65-.68,5.31-1.38,7.97-2.07h1.99v-3.11c.65-4.14.65-8.29,0-12.43-8.64,2.07-16.94,4.14-24.91,6.21l-2.99-1.04c-1.99-4.82-3.33-9.32-3.99-13.46,0-2.07.33-3.79,1-5.18-3.33-2.75-4.98-5.52-4.98-8.29,2.65-3.45,6.31-5.18,10.96-5.18v-2.07c4.64-.68,9.3.7,13.95,4.14,4.64-.68,9.62-1.38,14.95-2.07v-5.18c0-6.89-.67-14.14-1.99-21.75-3.33-.68-5.98-2.41-7.97-5.18-1.34-2.75-1.67-5.86-1-9.32,4.64-3.45,9.3-5.18,13.95-5.18ZM697.9,79.75c-1.34.7-2.66,1.04-3.99,1.04h-5.98l-1,2.07-1.99,1.04v9.32c0,6.91,1,12.09,2.99,15.54,3.32-1.38,6.63-2.41,9.97-3.11v-25.89ZM699.9,132.58h-3.99c-1.34.7-2.99,1.39-4.98,2.07-1.34,0-2.66-.34-3.99-1.04l-1,2.07v10.36c0,8.29.33,13.46,1,15.54,2.65-.68,5.31-1.72,7.97-3.11,1.99-.68,3.64-1.04,4.98-1.04v-24.86Z"/>
          <path class="cls-1" d="M1021.78,3.11l1.99,1.04c3.32,2.07,6.98,4.5,10.96,7.25,3.32,2.77,5.98,5.54,7.97,8.29,3.32,2.77,4.64,6.57,3.99,11.39l1,1.04c-.67,2.07-1.34,4.14-1.99,6.21,0,2.07.33,4.14,1,6.21.65,9.68,1.65,19.34,2.99,29,12.61-4.82,23.25-7.59,31.89-8.29,1.99-.68,3.99-1.04,5.98-1.04,1.32,0,3.32.36,5.98,1.04,1.99.7,4.31,1.04,6.98,1.04,6.63,0,12.29,2.07,16.94,6.21.65,2.07,1.65,3.8,2.99,5.18-1.99,2.77-3.66,5.87-4.98,9.32,1.32.7,2.65,1.73,3.99,3.11h-2.99l1,2.07h-1.99c-1.34,2.07-2.99,3.8-4.98,5.18-2.66,0-5.33.7-7.97,2.07-2.66,0-7.65,1.04-14.95,3.11-1.99.7-4.33,1.39-6.98,2.07l-1.99,1.04c-7.32,1.39-14.62,2.77-21.92,4.14,5.31,25.55,18.93,54.56,40.86,87.01h1c3.32,5.54,7.3,10.02,11.96,13.46.65,2.07,1.99,3.8,3.99,5.18,9.3-8.29,15.6-16.22,18.93-23.82,1.32-2.75,2.32-4.14,2.99-4.14.65,2.77.65,6.57,0,11.39-1.34,9.68-2.66,19.34-3.99,29l1-1.04c3.32,2.75,5.98,6.21,7.97,10.36,0,2.75-.34,5.52-1,8.29l-1,2.07c-1.34.68-2.66,1.38-3.99,2.07-1.99,2.07-4.33,4.48-6.98,7.25-7.32-2.77-14.29-5.54-20.93-8.29-5.33-2.77-10.96-6.91-16.94-12.43-37.87-33.82-59.47-72.15-64.78-114.97l-2.99-2.07-1,2.07-1-1.04c-2.66,1.39-4.98,2.77-6.98,4.14-2.66,1.39-4.98,3.11-6.98,5.18-2.66,1.39-4.98,2.43-6.98,3.11-1.99,2.07-3.66,4.5-4.98,7.25-5.98-1.38-10.63-4.48-13.95-9.32h-1.99c-1.34-1.38-2.34-2.75-2.99-4.14-.67-1.38-1.67-2.75-2.99-4.14-1.34,2.77-1.99,5.88-1.99,9.32,0,2.07-.34,4.14-1,6.21-.67,2.77-1,5.53-1,8.29l-1,2.07c0,34.54-2.99,68.72-8.97,102.54-4.66,2.07-8.97,1.72-12.96-1.04-7.97-5.53-11.96-12.09-11.96-19.68,0-6.89-.67-15.88-1.99-26.93.65-1.38,1.32-2.75,1.99-4.14,1.32-20.02,2.65-40.4,3.99-61.11l-1.99,2.07h-1.99c-1.34,1.39-2.99,3.8-4.98,7.25-5.33,6.91-10.63,14.16-15.94,21.75-3.33,4.84-6.65,8.29-9.97,10.36-1.99,1.39-3.33,2.43-3.99,3.11h-3.99c.65-7.59,2.65-15.18,5.98-22.79l-1.99-1.04c.65-3.45,3.32-9.66,7.97-18.64,7.97-14.5,15.6-29.34,22.92-44.54,4.64-11.04,7.63-18.64,8.97-22.79,2.65-6.89,4.64-14.5,5.98-22.79,1.32-4.14,1.65-7.25,1-9.32-1.34-2.75-2.66-5.52-3.99-8.29.65-1.38,1-2.75,1-4.14,3.99-6.21,7.63-9.66,10.96-10.36h4.98c1.32,0,2.65.36,3.99,1.04,1.32,0,2.32.36,2.99,1.04,1.32.7,2.32,1.04,2.99,1.04,4.64,4.14,8.3,7.61,10.96,10.36,1.32,2.07,2.65,4.5,3.99,7.25,4.64,4.14,7.97,9.32,9.97,15.54-.67,3.46-1.34,6.91-1.99,10.36-.67,3.46-2.34,6.21-4.98,8.29-3.33.7-5.65,1.73-6.98,3.11h-4.98c-5.98,7.61-11.63,16.23-16.94,25.89,2.65,1.39,4.98,3.11,6.98,5.18,1.32-3.45,3.64-6.21,6.98-8.29,3.32-2.75,5.98-4.14,7.97-4.14,1.32.7,2.32,2.07,2.99,4.14,11.29-5.52,22.58-10,33.88-13.46,0-6.89-.34-13.46-1-19.68,0,4.14-1-2.07-2.99-18.64-.67-4.14-2.34-8.63-4.98-13.46-5.33-8.29-6.32-15.88-2.99-22.79h1c1.99-.68,3.99-1.04,5.98-1.04,1.32-2.07,2.65-3.45,3.99-4.14h2.99c.65-.68,1.65-1.38,2.99-2.07ZM1074.6,13.46c10.62,1.39,18.59,3.11,23.92,5.18,3.32,1.39,5.64,3.46,6.98,6.21.65,2.07,1.32,4.14,1.99,6.21,0,2.77.65,5.54,1.99,8.29,2.65,6.21,4.31,12.09,4.98,17.61l-1,1.04c-3.33,1.39-6.32,2.43-8.97,3.11l-1,1.04c-1.34,0-2.66.36-3.99,1.04h-2.99c-5.98-4.14-10.31-8.29-12.96-12.43-3.99-6.21-9.31-11.73-15.94-16.57-1.34-.68-2.34-1.38-2.99-2.07l1-1.04c-1.99-1.38-3.99-3.11-5.98-5.18l1-1.04c-.67-2.07-1.34-3.79-1.99-5.18l1-1.04h-1c.65-1.38,1.32-2.75,1.99-4.14,4.64-.68,9.3-1.04,13.95-1.04Z"/>
        </g>
      </g>
    </g>
  </g>
</svg>