<svg width="412.6" height="123" viewBox="0 0 412.6 123" fill="#000" xmlns="http://www.w3.org/2000/svg">
<path d="M25.4,34.2C27,49.9,12.8,50.7,12.8,44.4c0-6.1,8.2-4.8,9.3-19.1H24c0.7,2.2,1,4.1,1.3,6.2h24.2V19.4l8.6,1.9
	v10.2h24.1c0.7-0.7,2.9-5.3,4.6-4.6c1.5,0.6,13.5,9.8,7.1,9.8C87.2,36.7,83,42,78,46.5l-1.8-1.2c1.9-3.2,4.8-7.2,6.2-11.1 M41,94
	c23.1-21.8,22.3-24.2,24.7-24.4c0.9-0.1,9.5,0.6-7.3-7.9C47.3,81.2,40,88,34,95 M66.8,77.2c3.3,4.7,7.3,7.9,8.9,13.4
	c-21.5,1.2-38.8,2.1-45,1.7c4.2,12.3,4.2,10.3,5.8,9.8c8.7-3,26.3-6.1,39.9-8.6c1.6,4.4,1,7.2,2.1,8.7c1.5,2.2,6.1,1.1,7-0.5
	c5-8.2,2-11.9-17.5-25.7 M93.2,58.7c4.4,0,2-2.4-5.6-8.5c-2.7-2.2-3.8-2.2-4.6-0.5l-2.9,6l-63.9-0.1c-1.8,0-2.9-0.1-4.7-0.5l2.3,4.3
	c0.7-0.2,2.3-0.8,4.3-0.8 M9.1,103C47.9,80.4,47.4,50,56,45.3c1.4-0.8,6.8-1.1-10.3-7c-7.5,28.1-17.2,46-37.8,63.3 M148.7,44.6
	c0,3.1-0.1,2.9-2.4,3.9c-4.3,1.9-5.2,1.9-4.9-0.1c0.5-3.4,0.7-22.2,0.1-29.1c2.1,0.7,4.5,2,7.5,4.1h23.2c2.5-4.6,2.2-4.9,5.7-2.8
	c7.8,4.8,6.7,4.2,2.9,6.8c-0.4,14.2,0.7,17.7-0.2,18.3c-0.3,0.2-1.3,0.8-6.1,1.8c-1.5,0.3-1.5-0.8-1.5-2.9 M173,32.3v-6.1h-24.3v6.1
	 M173,41.4v-6.3h-24.3v6.3 M167.9,84.1c15,9.2,12.9,18.6,18.1,16.1c2-0.9,8-11.2-17.2-17.7 M155.2,46c7,6.7,2.5,10.3,7,10.3
	c1.7,0,3.6-1.2,4.3-2.8c1.6-3.3,2-5.7-10.5-8.4 M136.9,54.4c-3.5-3.7-4.9-5-5.9-5.5c-1.1-0.6-2.2,1.2-4.6,4.8l-17.1-0.2
	c-1.8,0-3.4-0.2-4.7-0.5l1.7,4.2c1.2-0.4,2.5-0.7,4-0.7l24.3,0.2l0.7,1.1c0.9-0.4,2.3-0.7,4-0.7h51.4c3,0-0.6-3.3-5.6-7.6
	c-1.9-1.7-2.4,0-5.7,4.9 M124.2,30.3h12.9c3.4,0,0.6-3-4.2-7.6c-1.9-1.8-3.1-0.1-6,4.4h-18.6c-1.8,0-3.4-0.2-4.7-0.5l1.7,4.2
	c0.9-0.4,2.3-0.6,4-0.6h7.2v52.2c-4.2,0.6-8.6,1-13.2,1.4c3.9,10.2,3.6,9.6,4.6,9.1c3.3-1.9,7-3.8,30.6-11.9l-0.6-1.9l-13.7,2.1
	 M172.5,62c1.3-3.8,1.5-4.5,5.6-1.9c4.5,2.8,6.6,3.5,1.9,6c-0.4,12,1.3,11.6-1.2,12.4c-5.1,1.6-6.2,1.8-6.1-1.1h-7.5V95
	c0,7-1.7,8.1-8.9,11.1c-4.1,1.7,1.9-5.2-11.7-8.2l0.2-2.1c7.7,1.1,12.9,1.9,12.9-0.9V77.4h-8.2v1.7l-8.6,1.1V57.9l8.6,1.9v1.8
	l0.9,0.4 M172.6,74.8v-9.9h-23.1v9.9 M127.1,100.9c16.1-6.2,19.9-12.9,23.8-13.2c1.2-0.1,7,0.3-4.7-6.5
	c-7.1,8.9-14.7,14.3-19.8,18.1 M268.7,18.6l-9.5-2.1v33.6h-34.3c-1.8,0-3.4-0.2-4.7-0.5l2.7,4.2c0.9-0.4,2.3-0.7,4-0.7h79
	c5.2,0,3.1-1.4-6.3-8.6c-1.5-1.2-2.1-0.6-6.4,5.8h-24.5 M301.1,32c6.1,0-3.5-6.9-6.9-9.1c-2-1.3-2.9,0.1-7.1,6.1H230
	c-1.8,0-3.4-0.2-4.7-0.5l2.5,4.1c0.9-0.4,2.3-0.7,4-0.7 M292.8,42.5c5.4,0,0.7-4-4.3-8.2c-1.1-0.9-2.1-0.7-5.7,5.1l-45.5-0.1
	c-1.8,0-3.4-0.2-4.7-0.5l2.6,4.2c0.9-0.4,2.3-0.7,4-0.7 M248.9,85.8v14.1c0,1.9-1.2,2.3-4.4,3.3c-2.5,0.8-4.5,1.5-4.4,0
	c0.5-13,0.5-34,0-46.8c3.6,1.1,7,2.5,10.1,4.3h30.1c2.3-4.3,2.7-4.1,3.9-3.6c13,5.6,8.1,6.3,5.6,8.2v29.4c0,4.6-1,7-8.3,10.2
	c-7.3,3.2,1.8-3.6-14.4-8.8l0.5-1.7c12.6,1.9,13.2,2,13.2-2.6v-6 M280.7,82.7v-8h-31.9v8 M280.7,71.8v-8h-31.9v8 M349.7,56.8v-3.4
	h-20.3v3.4 M349.3,46.3v-2.8H333v2.8 M386.4,56.7v-3.2h-19.2v3.2 M392,37.6c-1.3,4.2-2.6,7.3-4.7,11.3l1.3,1.1c5-4.3,10.3-9,14.3-9
	c4,0,3-1.5-6.8-9.9c-1.4-1.2-1.4-0.8-4.3,3.3h-63.4c-0.2-1.5,0-2.8-0.3-4.3l-2.1-0.2c-1.6,15-14,13.2-10.8,19.7
	c2.4,5,13.4,3.5,13.3-12.1 M362.4,26.4h32.5c2.3,0,1.7-1.5-7.2-8.7c-1.6-1.3-1.6-1-6.2,5.9h-50.6c-1.9,0-2.8-0.1-4.6-0.5l1.7,4
	c0.9-0.4,2.7-0.7,3.9-0.7h22.2c0,0,0.1,27.6-0.3,36.8c-0.1,1.3-0.5,2,3,0.8c5.5-2,5.9-1.5,5.9-3.7 M383.4,46.5v-2.9h-16v2.9
	 M388.2,70.1c4.1,0-3.5-6.5-5.5-7.8c-1.7-1.1-2.6,1.6-5.1,4.8h-46.1c-1.5,0-3.1,0.1-4.5-0.2l1.1,3.7c0.9-0.3,2.8-0.4,4-0.4
	 M321.4,75.6c-1.4,0-3.3,0.1-4.6-0.2l1.1,3.8c0.5-0.3,1.8-0.5,4-0.5h28.6c-4.9,5-13.8,12.7-22.5,19.8c8.9-3.2,28.6-14.5,33.7-14.5
	c3.5,0,2.1-1.7-2.5-5.3h43.7c3.9,0-1.6-4.9-5.9-8.8c-2.9-2.7-3-1-6.4,5.7 M325,93.5c4.7,12.5,4.6,10.5,8.1,9
	c3.7-1.6,16.1-3.7,47.6-7.5c4.1,4,3.4,8.4,7.9,7.7c5.4-0.8,11.2-14.7-19.1-20.6l-1,1.3c4,3.1,7.1,5.2,10,8.6"/>
<path fill="#A67C22" d="M210,23.5c2.3-2.9-0.3-5.2-1.9-1.7c-2.1,4.4-7.1,1.2-4.4-2.9h1.6c-3,2.8-0.1,5.8,1.8,1.9c1.9-4,6.5-1.8,4.3,2.7
	 M211.9,26.1v1.3h-7.8v4H203v-5.3 M212.1,37.8c0,6.5-9.2,6.5-9.2,0C202.9,31.4,212.1,31.4,212.1,37.8z M210.8,37.8
	c0-4.6-6.9-4.6-6.9,0C203.9,42.5,210.8,42.5,210.8,37.8z M211.9,43.4v1.3l-6.2,2.5l6.2,2.5v1.2l-6.2,2.5l6.2,2.4v1.3l-9-3.6v-0.3
	l7.3-2.9l-7.3-3V47 M211.9,63.3v1.3h-7.8v4H203v-5.3 M211.9,70.5v1.3h-9v-1.3 M211.9,73.6v1.3l-6.3,2.7l6.3,2.7v1.3l-9-3.8v-0.3
	 M211.9,83.3v1.3h-9v-1.3 M205,94.4h6.9v0.1v1.2h-9v-1.1l6.9-6H203v-1.2h9v1 M207.4,106.2h-3.8c-4.3-11.1,12-10.6,7.6-0.2H210
	c4.3-8.3-8.3-9-5.7-1.2h1.9v-1.7h1.2"/>
</svg>
