<svg viewBox="0 0 143 77" fill="#3E3A39" xmlns="http://www.w3.org/2000/svg">
<path d="M20.3,71.8h0.6l1.4,3.6l1.4-3.6h0.1l1.4,3.6l1.4-3.6h0.6l-1.9,5h-0.1l-1.4-3.6l-1.4,3.6h-0.1L20.3,71.8
	L20.3,71.8z M27.9,71.8h0.6l1.4,3.6l1.4-3.6h0.1l1.4,3.6l1.4-3.6h0.6l-2,5h-0.1l-1.4-3.6l-1.4,3.6h-0.1L27.9,71.8z M35.5,71.8h0.6
	l1.4,3.6l1.4-3.6H39l1.4,3.6l1.4-3.6h0.6l-1.9,5h-0.1L39,73.2l-1.4,3.6h-0.1L35.5,71.8z M43.5,75.7c0.7,0,0.7,1.1,0,1.1
	C42.8,76.9,42.8,75.7,43.5,75.7z M49.1,75.1l0.5,0.3c-1,2.6-4.7,1.5-4.5-1.1c-0.1-3.4,4.7-3.4,4.6,0h-4C45.6,76.4,48.3,77,49.1,75.1
	L49.1,75.1z M49.1,73.7c-0.3-1.9-3-2-3.3,0L49.1,73.7L49.1,73.7z M50.4,71.8H51l1.5,3.6l1.5-3.6h0.6l-2,5h-0.1L50.4,71.8z
	 M59.3,75.1l0.5,0.3c-1,2.6-4.7,1.5-4.5-1.1c-0.1-3.4,4.7-3.5,4.6,0h-4C55.8,76.4,58.5,77,59.3,75.1L59.3,75.1z M59.3,73.7
	c-0.3-1.9-3-2-3.3,0L59.3,73.7L59.3,73.7z M61.1,71.7h0.6v0.7c0.4-0.6,1-1.1,1.7-0.7l-0.3,0.5c-2-0.3-1.2,3-1.4,4.4h-0.6L61.1,71.7
	L61.1,71.7z M64.3,69.8h0.6v2.8c0.7-1.3,2.6-1.4,3.1,0c0.3,0.7,0.1,3.2,0.2,4.1h-0.6c-0.1-1.1,0.4-3.5-0.5-4.3
	c-2.6-1.2-2.4,2.6-2.3,4.3h-0.6L64.3,69.8L64.3,69.8z M71.8,71.6c3,0,3.1,5.3,0,5.2C68.7,76.9,68.7,71.6,71.8,71.6z M71.8,72.2
	c-2.3,0-2.3,4,0,4C74.1,76.3,74.1,72.3,71.8,72.2z M75.4,71.7H76v0.9c0.7-1.3,2.6-1.3,3,0.2c0.5-1.3,2.5-1.7,3-0.2
	c0.3,0.7,0.1,3.3,0.2,4.1h-0.6c-0.1-1,0.4-3.6-0.4-4.3c-2.4-1-2,2.8-2,4.3h-0.6c-0.1-1.1,0.4-3.6-0.4-4.3c-2.4-1-2,2.8-2,4.3h-0.6
	L75.4,71.7L75.4,71.7z M87.4,75.1l0.5,0.3c-1,2.6-4.7,1.5-4.5-1.1c-0.1-3.4,4.7-3.4,4.6,0h-4C83.9,76.4,86.6,77,87.4,75.1L87.4,75.1
	z M87.4,73.7c-0.3-1.9-3-2-3.3,0L87.4,73.7L87.4,73.7z M89.8,75.7c0.7,0,0.7,1.1,0,1.1C89.1,76.9,89.1,75.7,89.8,75.7z M96,72.8
	l-0.5,0.3c-1-1.6-3.6-0.8-3.5,1.1c-0.1,1.9,2.5,2.8,3.5,1.2l0.5,0.3c-1.2,2.1-4.7,1-4.6-1.5C91.2,71.8,94.7,70.5,96,72.8L96,72.8z
	 M99.3,71.6c3,0,3.1,5.3,0,5.2C96.2,76.9,96.2,71.6,99.3,71.6L99.3,71.6z M99.3,72.2c-2.3,0-2.3,4,0,4
	C101.6,76.3,101.6,72.3,99.3,72.2z M102.9,71.7h0.6v0.9c0.6-1.3,2.6-1.3,3,0.2c0.5-1.3,2.5-1.7,3-0.2c0.3,0.7,0.1,3.3,0.2,4.1h-0.6
	c-0.1-1,0.4-3.6-0.4-4.3c-2.5-1-2,2.8-2,4.3H106c-0.1-1.1,0.4-3.6-0.4-4.3c-2.5-1-2,2.8-2,4.3h-0.6L102.9,71.7L102.9,71.7z
	 M111.7,75.7c0.7,0,0.6,1.1,0,1.1C111.1,76.9,111.1,75.7,111.7,75.7z M114,69.9h0.6v1.8h0.9v0.6h-0.9v4.4H114v-4.4h-0.8v-0.6h0.8
	V69.9z M116.2,71.8h0.6l1.4,3.6l1.4-3.6h0.1l1.4,3.6l1.4-3.6h0.6l-2,5h-0.1l-1.4-3.6l-1.4,3.6h-0.1L116.2,71.8z M26.2,61.9l0.7,0.5
	c0,0-0.1,0.1-0.2,0c-0.4,0.3-1,0.6-1.6,0.9c0.6,0.4,1.3,0.7,2.2,0.9c-0.2,0.2-0.4,0.5-0.5,0.7c-1.9-0.4-3.1-1.5-3.8-3h-1.1v2
	c0.6-0.1,1.3-0.2,2-0.3l0,0.6c-1.2,0.2-2.6,0.5-3.4,0.6c0,0.1-0.1,0.1-0.1,0.1l-0.3-0.8l1.1-0.2v-2.1h-1.4v-0.7h1.4v-3.6h5.2v0.6
	h-4.4v0.6h4.2v0.6h-4.2V60h4.2v0.6h-4.2v0.6h5.2v0.7L26.2,61.9L26.2,61.9z M23.8,61.9c0.2,0.4,0.5,0.7,0.8,1c0.6-0.3,1.2-0.7,1.6-1
	H23.8z M37.2,62.2v0.7h-1.9v2h-0.8v-2h-2.2c-0.1,0.8-0.6,1.5-2.1,2c-0.1-0.2-0.3-0.5-0.5-0.6c1.1-0.3,1.6-0.8,1.8-1.4h-1.8v-0.7h1.9
	v-0.6c-0.5,0.1-1,0.1-1.5,0.2c0-0.2-0.1-0.4-0.2-0.6c1.2-0.1,2.5-0.3,3.3-0.6l0.6,0.6c-0.4,0.1-0.9,0.2-1.4,0.3v0.7h2.2v-1.5l1,0.1
	c0,0.1-0.1,0.1-0.2,0.1v1.3L37.2,62.2L37.2,62.2z M36.2,57.6v3h-5.5v-3H36.2z M35.4,58.8v-0.6h-3.9v0.6H35.4z M35.4,59.9v-0.6h-3.9
	v0.6H35.4z M47.3,62v0.6h-0.9v1.5h-0.8v-0.4h-1.8c0.1,1.1-0.1,1.2-1.8,1.2c0-0.2-0.2-0.5-0.3-0.6c0.3,0,1.4,0.1,1.3-0.2
	c0,0,0-0.4,0-0.4h-2.6v-0.6H43v-0.5h-3.3V62H43v-0.5h-2.5V61H43v-0.4h-2.3v-1.7H43v-0.4h-3.2v-0.6H43v-0.6l1,0
	c0,0.1-0.1,0.1-0.2,0.2v0.4h3.2v0.6h-3.2v0.4h2.4v1.6h-2.4V61h2.6v1L47.3,62L47.3,62z M41.5,60H43v-0.6h-1.6V60z M45.5,59.4h-1.6V60
	h1.6V59.4z M43.8,61.5V62h1.8v-0.5H43.8z M45.6,63.1v-0.5h-1.8v0.5H45.6z M57.2,63h-2.6c0.7,0.5,1.8,0.9,2.8,1.1
	c-0.2,0.2-0.4,0.5-0.5,0.7c-1.1-0.3-2.2-0.9-3-1.6v1.7h-0.8v-1.6c-0.8,0.7-1.9,1.2-3,1.5c-0.1-0.2-0.3-0.5-0.5-0.7
	c1-0.2,2.1-0.6,2.8-1.2h-2.6v-0.6h3.2v-0.5h-2.5v-0.6h2.5v-0.5h-2.9v-0.6H52c-0.1-0.2-0.2-0.5-0.3-0.8l0.2,0h-1.9v-0.7h1.2
	c-0.1-0.3-0.4-0.8-0.6-1.1l0.7-0.2c0.3,0.4,0.6,0.9,0.7,1.2l-0.4,0.2h0.9v-1.4l0.9,0.1c0,0.1-0.1,0.1-0.2,0.1v1.2h0.8v-1.4l0.9,0.1
	c0,0.1-0.1,0.1-0.2,0.2v1.2h0.9l-0.3-0.1c0.2-0.3,0.5-0.9,0.6-1.2l0.9,0.3c0,0.1-0.1,0.1-0.2,0.1c-0.2,0.3-0.4,0.7-0.6,1h1.2v0.6
	h-1.7l0.2,0.1c0,0.1-0.1,0.1-0.2,0.1c-0.1,0.2-0.2,0.5-0.4,0.7h1.8v0.6h-3v0.5h2.5v0.6h-2.5v0.5h3.3V63L57.2,63z M54.3,60.1
	c0.1-0.2,0.3-0.5,0.4-0.8h-2.2c0.2,0.2,0.3,0.5,0.4,0.7l-0.2,0L54.3,60.1L54.3,60.1z M66.9,61.2l0.5,0.2c-0.6,1.9-2,3.1-3.8,3.6
	c-0.1-0.2-0.3-0.5-0.4-0.6c0.8-0.2,1.5-0.5,2.1-0.9c-0.2-0.2-0.5-0.5-0.8-0.6l0.5-0.4c0.3,0.2,0.6,0.4,0.8,0.6
	c0.3-0.3,0.5-0.6,0.7-1h-1.3c-0.3,0.4-0.8,0.8-1.3,1.1c-0.1-0.2-0.3-0.4-0.5-0.5c0.8-0.4,1.3-1,1.7-1.6c-0.3,0.2-0.7,0.4-1.1,0.5
	c-0.1-0.2-0.3-0.4-0.4-0.5c0.6-0.2,1.2-0.5,1.7-0.9c-0.2-0.2-0.5-0.4-0.8-0.6l0.5-0.4c0.2,0.1,0.5,0.3,0.7,0.5
	c0.2-0.3,0.4-0.6,0.6-0.9H65c-0.3,0.4-0.7,0.7-1.1,1.1c-0.1-0.1-0.2-0.3-0.4-0.4v1.6h-1.4v0.6h1.5v0.7h-1.5v0.3
	c0.4,0.2,1.4,1,1.6,1.2l-0.5,0.6c-0.2-0.3-0.7-0.7-1.1-1.1v1.9h-0.7v-2c-0.4,0.7-0.9,1.3-1.4,1.7c-0.1-0.2-0.2-0.6-0.4-0.7
	c0.5-0.4,1.1-1.1,1.5-1.8h-1.3v-0.7h1.5v-0.6h-1.3v-3.2h3.4V59c0.8-0.5,1.2-1.2,1.5-1.8l0.9,0.1c0,0.1-0.1,0.1-0.2,0.1
	c-0.1,0.1-0.1,0.2-0.2,0.4c0.1,0,1.2,0,1.3,0l0.5,0.2c-0.4,1-0.9,1.9-1.7,2.5l0.6,0.1c0,0.1-0.1,0.1-0.2,0.1
	c-0.1,0.2-0.2,0.3-0.3,0.5C65.7,61.2,66.9,61.2,66.9,61.2z M60.8,58.2v0.6h0.6v-0.6H60.8z M60.8,59.5v0.7h0.6v-0.7H60.8z M62.7,58.9
	v-0.6H62v0.6H62.7z M62.7,60.1v-0.7H62v0.7H62.7z M70.8,60.5c-0.3,0.4-0.6,0.8-0.8,1.1c-0.1-0.2-0.3-0.6-0.4-0.8
	c0.7-0.8,1.5-2.2,2-3.5l0.9,0.3c0,0.1-0.1,0.1-0.2,0.1c-0.2,0.5-0.4,1.1-0.7,1.6l0.2,0.1c0,0.1-0.1,0.1-0.2,0.1v5.4h-0.8V60.5
	L70.8,60.5z M77.4,61.9v0.7H75v2.2h-0.8v-2.2H72v-0.7h2.3v-1.3h-2v-0.7h2v-2.6l1,0.1c0,0.1-0.1,0.1-0.2,0.1v2.4h2v0.7h-2v1.3
	C75,61.9,77.4,61.9,77.4,61.9z M73,57.7c0.3,0.5,0.6,1.3,0.7,1.7l-0.7,0.3c-0.1-0.5-0.4-1.2-0.7-1.8L73,57.7L73,57.7z M75.5,59.4
	c0.3-0.5,0.6-1.2,0.8-1.8l0.9,0.4c0,0-0.1,0.1-0.2,0.1c-0.2,0.5-0.6,1.2-0.8,1.6L75.5,59.4L75.5,59.4z M88.4,63.7
	c0,0.3,0.1,0.4,0.8,0.4h2.3c0.6,0,0.7-0.2,0.8-1.1c0.2,0.1,0.5,0.2,0.7,0.3c-0.1,1.2-0.4,1.5-1.4,1.5h-2.4c-2.3,0.2-1.4-1.8-1.6-3.2
	h-0.7c0,1.1-0.1,2.4-1.2,3.4c-0.1-0.2-0.4-0.4-0.5-0.5c1-0.9,1-1.9,1-2.9h-0.8v-0.7h3.8v0.7h-0.8V63.7z M86,59.9v-0.6h-0.4v-1.7h7
	v1.7h-0.8v0.6h0.9v0.7h-0.9v2.3c0,0.7-0.3,0.8-1.5,0.8c0-0.2-0.1-0.5-0.2-0.7c0.5-0.1,0.9,0.2,1-0.1c0,0,0-2.3,0-2.3h-2v-0.7h2v-1
	l0.7,0v-0.6h-5.5v0.9h2.6v0.7L86,59.9L86,59.9z M90,62.6c-0.1-0.4-0.4-1-0.7-1.4l0.6-0.2c0.3,0.4,0.6,1,0.7,1.4L90,62.6L90,62.6z
	 M102.8,62.8h-3c0.6,0.8,1.6,1.2,3.1,1.4c-0.2,0.2-0.4,0.5-0.5,0.7c-1.8-0.2-2.8-0.8-3.4-2.1c-0.4,1-1.3,1.7-3.5,2.1
	c-0.1-0.2-0.2-0.5-0.4-0.7c1.8-0.2,2.6-0.7,3-1.4h-2.9v-0.7h3.1c0.1-0.2,0.1-0.5,0.1-0.8l0.3,0c0-0.2-0.2-0.5-0.3-0.7c1,0,1,0,1-0.1
	v-1.9h-1.1c0,1.2,0,2.3-2.3,3.1c-0.1-0.2-0.3-0.4-0.5-0.6c2.1-0.7,2.1-1.5,2.1-2.5h-2.5V58h3.3v-0.8l1,0c0,0.1-0.1,0.1-0.2,0.1V58
	h3.3v0.6h-2.4v1.9c0,0.6-0.2,0.8-1.2,0.8l0.4,0c0,0.1-0.1,0.1-0.2,0.1c0,0.2-0.1,0.4-0.1,0.6h3.5L102.8,62.8L102.8,62.8z M97.4,59.2
	c0,0.1-0.1,0.1-0.2,0.1c-0.3,0.5-0.9,1.1-1.4,1.4c-0.1-0.1-0.4-0.3-0.5-0.4c0.5-0.3,1-0.8,1.3-1.3L97.4,59.2L97.4,59.2z M102.3,60.9
	c-0.3-0.5-0.9-1.1-1.5-1.6l0.6-0.3c0.6,0.5,1.2,1.1,1.6,1.6L102.3,60.9L102.3,60.9z M107.4,60l0.4,0.1c0,0,0,0.1-0.1,0.1
	c-0.1,1.1-0.3,2-0.6,2.8c1.4,1.2,4,0.8,5.9,0.8c-0.1,0.2-0.2,0.5-0.3,0.8c-1.8,0-4.6,0.3-5.9-0.9c-0.3,0.5-0.6,0.9-1,1.2
	c-0.1-0.2-0.4-0.4-0.6-0.5c0.4-0.3,0.8-0.7,1.1-1.2c-0.3-0.4-0.6-0.9-0.8-1.6l0.6-0.2c0.1,0.4,0.3,0.8,0.5,1.1
	c0.2-0.5,0.3-1,0.4-1.7h-0.8l-0.1,0.3l-0.7-0.2c0.4-0.8,0.8-1.7,1.2-2.4h-1.2v-0.7c0.1,0,1.8,0,1.8,0l0.5,0.2c0,0,0,0.1-0.1,0.1
	c-0.2,0.5-0.6,1.3-1,2.1C106.7,60.1,107.3,60.1,107.4,60z M109.8,59v-0.5h-1.6v-0.6h1.6v-0.7l0.9,0c0,0.1-0.1,0.1-0.2,0.1v0.5h1.7
	V59h0.7v0.6h-0.7v1.1h-1.7v0.5h1.9v0.6h-1.9v0.5h2.2v0.6h-2.2v0.8h-0.8v-0.8h-2.1v-0.6h2.1v-0.5h-1.7v-0.6h1.7v-0.5h-1.6v-0.6h1.6
	v-0.5h-2.2V59H109.8z M111.5,58.5h-1V59h1V58.5z M111.5,60.1v-0.5h-1v0.5H111.5z M118.5,58.6v0.6h-3.2v-0.6H118.5z M118.2,62v2.5
	h-1.8v0.4h-0.7V62H118.2z M119.8,58.2c0,0.9-0.1,1.9-1.1,2.6c-0.1-0.1-0.4-0.4-0.6-0.5v0.1h-2.5v-0.6h2.5v0.5
	c1.1-0.8,0.8-1.7,0.9-2.7h2.7c0.1,0.1-0.2,2.3,0.1,2.2c0.5,0,0.5,0.2,0.5-0.9c0.2,0.1,0.4,0.2,0.6,0.3c-0.1,1.3-0.4,1.3-1.3,1.2
	c-1.1,0.2-0.7-1.5-0.7-2.2L119.8,58.2L119.8,58.2z M115.7,61.5v-0.6h2.5v0.6H115.7z M118.2,57.5v0.6h-2.4v-0.6H118.2z M117.5,62.6
	h-1.2v1.2h1.2V62.6z M122.2,60.8l0.5,0.2c0,0-0.1,0.1-0.1,0.1c-0.3,1-0.7,1.7-1.3,2.3c0.5,0.4,1.1,0.7,1.8,0.8
	c-0.2,0.2-0.4,0.5-0.5,0.7c-0.7-0.2-1.4-0.5-1.9-1c-0.6,0.4-1.3,0.8-2,1c-0.1-0.2-0.3-0.5-0.4-0.7c0.7-0.2,1.3-0.4,1.8-0.8
	c-0.4-0.5-0.8-1-1.1-1.7l0.7-0.2c0.2,0.5,0.6,1,1,1.4c0.4-0.4,0.7-0.9,1-1.4h-3v-0.7h3.4L122.2,60.8L122.2,60.8z M118.1,45.6h-13.6
	c-0.3,0-0.3-0.6,0-0.6c0.2-0.1,4.9,0.3,4.7-0.2c-0.2-0.2,0.4-27.7-0.2-27.6c0,0-4.5-0.2-4.5-0.2c-0.3,0-0.4-0.6,0-0.6
	c0,0,9.2-2.5,9.2-2.5c0.9-0.3,0,30.7,0.3,31c-0.2,0.5,4,0.1,4.1,0.2C118.3,44.9,118.4,45.6,118.1,45.6L118.1,45.6z M135.1,27.5
	c14.4,3.4,4.4,18.7-6.1,18.7c-9.2-0.4-5.4-7.1-3.5-5.1c10.9,13.3,19.8-14.5,3-11.4c-0.4,0.1-0.7-0.5-0.2-0.6c4.4-1.1,9-5,7.2-9.8
	c-1.9-5-8.7-2.6-10.8,0.8c-0.3,0.5-0.7,0.1-0.5-0.3c6.5-13.3,25.1-1.5,10.9,7.3C134.9,27.2,134.9,27.5,135.1,27.5L135.1,27.5z
	 M6.8,22.1c-0.2,0.2-1.5,2-1.9,1.2c-1.2-2.9-2.6-6-4.2-8.6c-0.1-0.4,0.1-0.7,0.5-0.6C5,14.7,10.6,17.7,6.8,22.1L6.8,22.1z M5.1,46.3
	c-0.6-5.6-2.6-10.8-4-16.2c0.3-0.2,0.5-0.1,0.8,0.1c1.8,1,2.4,2.2,2.8,1.4L11,18.6c0.2-0.5,0.9-0.2,0.8,0.2L7.4,34.7
	c-0.2,0.5,1.1,1.5,1.5,3.8c0.5,3-0.7,6.3-3.1,8C5.5,46.8,5.2,46.7,5.1,46.3L5.1,46.3z M9.5,10.1c-0.3,0.3-1.5,2.1-1.9,1.2
	C6.4,8.5,4.8,5.3,3.2,2.6C3,2.3,3.2,2,3.6,2c1.9,0.4,6.5,1.9,7.1,3.9C11.1,7.3,10.4,8.9,9.5,10.1L9.5,10.1z M12.7,26.2
	c-0.6,0-0.6-0.9,0-0.9h12.2c0.2,0,0.4-0.1,0.4-0.4v-7c0-0.4,0.1-0.5,0.5-0.4l7.2,1.1c0.8,0.1,0,1.2-0.3,1.3c-1.4,0.9-1.1-1.1-1.1,5
	c0,0.2,0.1,0.4,0.4,0.4h14.3c0.6,0,0.5,0.9-0.1,0.9H33.1c-0.4,0-0.5,0.4-0.3,0.6c3.2,4.9,8.1,8.4,13.8,10.3c0.3,0.1,0.4,0.5,0.1,0.7
	c-1.8,1.7-3.1,3.6-4.3,5.9c-0.2,0.2-0.3,0.3-0.6,0.2c-5.7-4.1-8.8-10.7-10.1-17.6h-0.1V46c0,1-4.5,1.6-5.3,1.6
	c-0.4,0-0.9,0.1-0.9-0.3V34.3c0-0.3-0.5-0.6-0.7-0.2c-0.1,1.2-14.4,12.3-13.5,9.1c1.8-1.7,12.7-15.5,10.7-17
	C21.8,26.2,12.7,26.2,12.7,26.2z M40.1,1.1c0.1-0.3,0.4-0.4,0.6-0.2l6.5,4.5c0.2,0.2,0.3,0.3,0.1,0.6c-0.8,0.9-2.2,0.6-2.4,0.9
	c-0.5,0.6-7.7,4.6-7.2,2.8c0,0,1.2-4.2,1.2-4.2c0-0.3-0.1-0.5-0.4-0.5H19.1c-0.3,0-0.4,0.2-0.4,0.5c0.6,2.4,0.5,5.9-1.7,7.4
	c-3.4,2.3-5.9-1.8-5.3-2.4c2.4-2.3,3.8-5.7,5.6-8.3c0.7,0,0.7,2,1.4,2H39C39.5,4.3,40,1.4,40.1,1.1L40.1,1.1z M22.5,8.8l5.9,3.3
	c0.2,0.2,0.2,0.5,0,0.6c-0.8,0.8-1.9,0.6-2.1,0.8c-3.6,3.6-7.6,6.2-12,8.5c-0.4,0.2-0.9-0.3-0.5-0.7c3.2-3.6,6.1-7.6,8.1-12.3
	C22.1,8.8,22.3,8.7,22.5,8.8L22.5,8.8z M40,21.3c-2.2-3.5-6.1-8.3-9-11.3c-0.2-0.2,0-0.8,0.4-0.7c3.3,0.7,10.5,2.3,11.7,5.8
	c0.8,2.3-0.9,4.9-2.5,6.3C40.3,21.6,40.1,21.6,40,21.3L40,21.3z M52.6,9.3c-0.6,0-0.6-0.9-0.1-0.9h5.7c0.2,0,0.4-0.1,0.4-0.4V0.5
	c0-0.3,0.2-0.4,0.5-0.4c0,0,6.4,1,6.4,1c1.3,0.8-1.9,2.2-1.5,2.4c0,0,0,4.5,0,4.5c0,0.2,0.1,0.4,0.4,0.4h7.4c0.6,0,0.5,0.9,0,0.9
	c0,0-7.4,0-7.4,0c-0.2,0-0.4,0.1-0.4,0.4v5.4c0,0.2,0.1,0.4,0.4,0.4h7.1c0.6,0,0.5,0.9-0.1,0.9h-7c-0.2,0-0.4,0.1-0.4,0.4v6
	c0,0.2,0.1,0.4,0.4,0.4h7.6c0.6,0,0.5,0.9-0.1,0.9h-7.6c-0.7-0.2-0.3,2.6-0.4,3c1,0.9,3.4,1.2,4.8,2.6c3.5,2.8,2.8,6.2-1.2,7.8
	c-0.2,0.1-0.4,0-0.6-0.2c-0.4-0.7-2.1-9.1-3-6.9c0,0,0,15.3,0,15.3c-0.2,1.1-5.2,2.5-5.5,1.3c0,0,0-12.1,0-12.1
	c0-0.4-0.6-0.6-0.8-0.2c-1.7,2.5-3.5,4.9-5.7,6.9c-0.4,0.3-0.8,0-0.6-0.5c2.4-5.2,4.7-10.8,5.7-16.5c0-0.2-0.1-0.5-0.3-0.5h-4.9
	c-0.6,0-0.6-0.9-0.1-0.9h6.3c0.2,0,0.4-0.2,0.4-0.4v-6c0-0.2-0.2-0.4-0.4-0.4h-5.2c-0.6,0-0.7-0.9-0.1-0.9h5.2
	c0.2,0,0.4-0.2,0.4-0.4V9.7c0-0.2-0.2-0.4-0.4-0.4H52.6L52.6,9.3z M75.3,0.9c0-0.2,0.2-0.5,0.5-0.4l6.7,1.1c0.2,0,0.5,0.3,0.3,0.5
	c-0.6,1.6-1.4,1.1-1.4,1.7l-0.1,7.4c0,0.2,0.1,0.4,0.4,0.4h4c0.2,0,0.4-0.2,0.4-0.4V0.8c0-0.4,0.2-0.5,0.5-0.4l6.7,1.1
	c0.3,0.1,0.5,0.3,0.3,0.6c-0.7,1.3-1.6,1.1-1.6,1.6c0,0,0,7.5,0,7.5c0,0.2,0.2,0.4,0.4,0.4h5.1c0.6,0,0.5,0.9-0.1,0.9h-5.1
	c-0.2,0-0.4,0.1-0.4,0.4v12.8c0,0.2,0.2,0.4,0.4,0.4h5.3c0.6,0,0.5,0.9-0.1,0.9h-5.2c-0.2,0-0.4,0.1-0.4,0.4v17.8
	c-0.2,1.1-5.6,2.3-5.8,1.2c0,0,0-18.9,0-18.9c0-0.2-0.2-0.4-0.4-0.4H81c-0.2,0-0.4,0.1-0.4,0.3c-1.2,7.5-4.1,13.5-10.4,18.2
	c-0.4,0.2-0.8-0.1-0.6-0.6c3.3-5.3,4.7-11.4,5.3-17.5c0-0.2-0.1-0.4-0.4-0.4h-4.2c-0.6,0-0.6-0.9,0-0.9h4.3c0.2,0,0.4-0.1,0.4-0.4
	c0.2-3.9,0.2-7.8,0.2-11.5c0-0.8,0.2-1.8-0.4-1.8c0,0-3,0-3,0c-0.6,0-0.6-0.9,0-0.9h3.1c0.2,0,0.4-0.1,0.4-0.4L75.3,0.9L75.3,0.9z
	 M81.3,16.6c0,3.1-0.1,6.1-0.5,9.1c0,0.3,0,0.5,0.4,0.5h4.4c0.2,0,0.4-0.2,0.4-0.4V12.9c0-0.2-0.2-0.4-0.4-0.4h-4
	c-0.2,0-0.4,0.1-0.4,0.4L81.3,16.6L81.3,16.6z M107.8,8.3c0,0.4,0.2,0.5,1,0.5h2.9c0.8,0,0.9-0.2,0.9-1.4c0.2,0.1,0.6,0.3,0.9,0.3
	c-0.1,1.5-0.5,1.9-1.8,1.9h-3c-1.5,0-2-0.3-2-1.3V5.5h-0.9c0,1.4-0.1,3-1.5,4.3c-0.1-0.2-0.5-0.5-0.7-0.7c1.3-1.1,1.3-2.4,1.3-3.6
	H104V4.6h4.8v0.9h-1V8.3z M104.7,3.5V2.7h-0.5V0.6h8.8v2.1h-0.9v0.8h1.2v0.9h-1.2v2.9c0,0.9-0.3,1-1.9,1c0-0.3-0.2-0.6-0.3-0.9
	c0.6-0.1,1.1,0.2,1.3-0.2c0,0,0-2.9,0-2.9h-2.5V3.4h2.5V2.2l0.9,0V1.5h-6.9v1.1h3.2v0.9L104.7,3.5L104.7,3.5z M109.8,6.9
	c-0.1-0.5-0.5-1.2-0.9-1.8l0.8-0.3c0.4,0.5,0.8,1.2,0.9,1.7L109.8,6.9z M123.6,7.2h-3.7c0.7,1,2,1.5,3.9,1.7
	c-0.2,0.2-0.5,0.6-0.6,0.9c-2.2-0.3-3.5-1.1-4.3-2.6c-0.5,1.3-1.6,2.2-4.4,2.6c-0.1-0.2-0.3-0.6-0.5-0.8c2.2-0.3,3.3-0.9,3.8-1.8
	h-3.6V6.3h3.9c0.1-0.3,0.1-0.7,0.2-1l0.4,0c-0.1-0.3-0.2-0.6-0.3-0.9c1.2,0,1.2,0,1.2-0.1V2h-1.4c0,1.6,0,2.9-2.9,3.9
	c-0.1-0.2-0.4-0.5-0.6-0.7c2.6-0.9,2.6-1.8,2.6-3.2h-3.1V1.2h4.2v-1l1.2,0.1c0,0.1-0.1,0.1-0.2,0.2v0.8h4.2V2h-3v2.4
	c0,0.8-0.3,1-1.5,1l0.5,0c0,0.1-0.1,0.1-0.2,0.2c0,0.3-0.1,0.5-0.1,0.7h4.4V7.2L123.6,7.2z M116.8,2.6c0,0.1-0.1,0.1-0.2,0.1
	c-0.4,0.7-1.1,1.3-1.8,1.8c-0.1-0.2-0.4-0.4-0.6-0.5c0.6-0.4,1.3-1,1.7-1.7L116.8,2.6L116.8,2.6z M122.9,4.7c-0.4-0.6-1.2-1.4-1.9-2
	l0.8-0.4c0.7,0.6,1.6,1.4,2,2L122.9,4.7L122.9,4.7z"/>
</svg>
