<svg width="393" height="29" viewBox="0 0 393 29" fill="none" xmlns="http://www.w3.org/2000/svg">
<path d="M139.63 1.93002V5.53002H139.39C139.07 4.19002 138.8 3.41002 138.58 3.17002C138.36 2.93002 137.81 2.78002 136.95 2.78002" fill="white"/>
<path d="M135.8 1.93002H139.63L137.86 2.58002L135.8 1.93002Z" fill="white"/>
<path d="M123.81 2.78002C122.95 2.78002 122.4 2.93002 122.18 3.17002C121.96 3.41002 121.69 4.19002 121.37 5.53002H121.13V1.93002" fill="white"/>
<path d="M124.94 1.93002H121.12L122.88 2.58002L124.94 1.93002Z" fill="white"/>
<path d="M137.93 2.78002L138.16 1.93002H122.41C122.31 1.93002 122.23 1.93002 122.14 1.93002V2.84002C122.36 2.80002 122.66 2.78002 123.07 2.78002H129V25.48C129 26.38 128.9 26.97 128.69 27.25C128.49 27.53 127.98 27.7 127.18 27.76V28.03H133.61V27.76C133.09 27.76 132.72 27.72 132.49 27.63C132.26 27.54 132.08 27.33 131.94 26.99C131.81 26.65 131.74 26.03 131.74 25.1V2.78002H137.93Z" fill="white"/>
<path d="M168.67 2.23002V1.93002H183.59V5.53002H183.35C183.03 4.20002 182.76 3.41002 182.54 3.17002C182.32 2.93002 181.78 2.82002 180.92 2.82002H173.09V14.53H180.36C181.08 14.53 181.54 14.46 181.73 14.31C181.92 14.16 182.03 13.95 182.04 13.66H182.28V16.12H182.04C181.99 15.78 181.86 15.55 181.66 15.43C181.46 15.31 181.09 15.25 180.56 15.25H173.1V23.31C173.1 24.53 173.2 25.4 173.41 25.94C173.61 26.48 173.94 26.81 174.38 26.95C174.83 27.09 175.5 27.15 176.4 27.15H180.58C181.91 27.15 182.76 27.1 183.13 27C183.5 26.9 183.81 26.7 184.07 26.4C184.33 26.1 184.53 25.45 184.67 24.44H184.91V28.02H168.69V27.75C169.24 27.71 169.65 27.6 169.94 27.4C170.22 27.21 170.37 26.7 170.37 25.89V4.83002C170.37 3.87002 170.29 3.20002 170.14 2.81002C169.99 2.42002 169.51 2.23002 168.69 2.23002H168.67Z" fill="white"/>
<path d="M222.72 2.20002V1.93002H237.73V5.00002H237.49V4.88002C237.49 4.88002 237.46 4.82002 237.46 4.77002C237.25 3.87002 236.94 3.32002 236.56 3.12002C236.17 2.92002 235.58 2.82002 234.79 2.82002H227.14V14.32H234.26C234.87 14.32 235.29 14.27 235.51 14.16C235.73 14.05 235.86 13.82 235.9 13.45H236.14V15.95H235.9C235.9 15.35 235.55 15.05 234.84 15.05H227.14V25.46C227.14 26.44 227.28 27.07 227.55 27.35C227.82 27.63 228.29 27.77 228.96 27.77V28.04H222.73V27.77C223.46 27.77 223.92 27.62 224.12 27.31C224.31 27 224.41 26.57 224.41 26.02V4.55002C224.41 3.68002 224.3 3.07002 224.07 2.72002C223.84 2.37002 223.4 2.20002 222.73 2.20002H222.72Z" fill="white"/>
<path d="M240.53 2.20002V1.93002H255.54V5.00002H255.3V4.88002C255.3 4.88002 255.27 4.82002 255.27 4.77002C255.06 3.87002 254.75 3.32002 254.37 3.12002C253.98 2.92002 253.39 2.82002 252.6 2.82002H244.95V14.32H252.07C252.68 14.32 253.1 14.27 253.32 14.16C253.54 14.05 253.67 13.82 253.71 13.45H253.95V15.95H253.71C253.71 15.35 253.36 15.05 252.65 15.05H244.95V25.46C244.95 26.44 245.09 27.07 245.36 27.35C245.63 27.63 246.1 27.77 246.77 27.77V28.04H240.54V27.77C241.27 27.77 241.73 27.62 241.93 27.31C242.12 27 242.22 26.57 242.22 26.02V4.55002C242.22 3.68002 242.11 3.07002 241.88 2.72002C241.65 2.37002 241.21 2.20002 240.54 2.20002H240.53Z" fill="white"/>
<path d="M302.45 2.23002V1.93002H317.37V5.53002H317.13C316.81 4.20002 316.54 3.41002 316.32 3.17002C316.1 2.93002 315.56 2.82002 314.7 2.82002H306.87V14.53H314.14C314.86 14.53 315.32 14.46 315.51 14.31C315.7 14.16 315.81 13.95 315.82 13.66H316.06V16.12H315.82C315.77 15.78 315.64 15.55 315.44 15.43C315.24 15.31 314.87 15.25 314.34 15.25H306.88V23.31C306.88 24.53 306.98 25.4 307.19 25.94C307.39 26.48 307.72 26.81 308.16 26.95C308.61 27.09 309.28 27.15 310.18 27.15H314.36C315.69 27.15 316.54 27.1 316.91 27C317.28 26.9 317.59 26.7 317.85 26.4C318.11 26.1 318.31 25.45 318.45 24.44H318.69V28.02H302.47V27.75C303.02 27.71 303.43 27.6 303.72 27.4C304 27.21 304.15 26.7 304.15 25.89V4.83002C304.15 3.87002 304.07 3.20002 303.92 2.81002C303.77 2.42002 303.29 2.23002 302.47 2.23002H302.45Z" fill="white"/>
<path d="M341.12 1.93001H345.71V2.20001C345.01 2.22001 344.53 2.39001 344.26 2.69001C343.99 2.99001 343.86 3.63001 343.86 4.59001V28.35L324.93 6.18001V25.48C324.93 26.09 324.97 26.55 325.06 26.84C325.15 27.14 325.27 27.34 325.43 27.44C325.59 27.55 325.99 27.65 326.64 27.76V28.03H322.08V27.76C322.9 27.76 323.4 27.6 323.6 27.28C323.8 26.96 323.9 26.2 323.9 25V7.35001C323.9 5.80001 323.7 4.54001 323.31 3.56001C322.92 2.58001 322.01 2.13001 320.6 2.20001V1.93001H325.06L342.85 22.76V4.34001C342.85 3.35001 342.69 2.74001 342.37 2.52001C342.05 2.30001 341.63 2.19001 341.13 2.19001V1.92001L341.12 1.93001Z" fill="white"/>
<path d="M369.85 3.24001L370.74 6.00001H370.5C368.2 3.48001 365.5 2.23001 362.39 2.23001C359.28 2.23001 356.55 3.29001 354.56 5.40001C352.57 7.51001 351.57 10.07 351.57 13.07C351.57 14.92 352.01 17.06 352.9 19.47C353.79 21.88 355.18 23.86 357.1 25.42C359.01 26.97 361.33 27.75 364.04 27.75C365.82 27.75 367.57 27.43 369.28 26.8C370.99 26.17 372.27 25.32 373.11 24.26L373.32 24.33L371.66 27.13C368.97 27.77 367.23 28.15 366.43 28.26C365.63 28.38 364.56 28.44 363.22 28.44C358.25 28.44 354.69 27.17 352.55 24.64C350.41 22.11 349.34 19.07 349.34 15.54C349.34 13.15 349.89 10.86 350.99 8.66001C352.09 6.46001 353.68 4.72001 355.75 3.45001C357.82 2.18001 360.19 1.54001 362.85 1.54001C364.18 1.54001 365.33 1.67001 366.31 1.94001C367.28 2.21001 368.09 2.48001 368.73 2.76001L369.79 3.20001C369.79 3.20001 369.84 3.22001 369.85 3.24001Z" fill="white"/>
<path d="M376.18 2.23002V1.93002H391.1V5.53002H390.86C390.54 4.20002 390.27 3.41002 390.05 3.17002C389.83 2.93002 389.29 2.82002 388.43 2.82002H380.6V14.53H387.87C388.59 14.53 389.05 14.46 389.24 14.31C389.43 14.16 389.54 13.95 389.55 13.66H389.79V16.12H389.55C389.5 15.78 389.37 15.55 389.17 15.43C388.97 15.31 388.6 15.25 388.07 15.25H380.61V23.31C380.61 24.53 380.71 25.4 380.92 25.94C381.12 26.48 381.45 26.81 381.89 26.95C382.33 27.09 383.01 27.15 383.91 27.15H388.09C389.42 27.15 390.27 27.1 390.64 27C391.01 26.9 391.32 26.7 391.58 26.4C391.84 26.1 392.04 25.45 392.18 24.44H392.42V28.02H376.2V27.75C376.75 27.71 377.16 27.6 377.45 27.4C377.73 27.21 377.88 26.7 377.88 25.89V4.83002C377.88 3.87002 377.8 3.20002 377.65 2.81002C377.5 2.42002 377.02 2.23002 376.2 2.23002H376.18Z" fill="white"/>
<path d="M200.62 10.54C201.17 10.94 201.82 10.89 202.42 10.61C202.92 10.37 203.4 9.72 203.19 8.75C203.11 8.39 203.03 8.41 202.97 8.04C202.86 7.36 203.08 6.74 203.53 6.38C203.74 6.21 203.87 6.21 204.25 6.1C203.33 6.04 202.64 6.1 201.94 6.36C201.35 6.58 200.83 6.97 200.47 7.49C199.73 8.55 199.6 9.8 200.62 10.54Z" fill="white"/>
<path d="M273.67 21.76C273.59 23.85 273.23 25.27 272.58 26.03C271.93 26.79 270.91 27.16 269.52 27.16H266.62C264.96 27.16 263.78 26.84 263.1 26.19C262.41 25.55 262.07 24.44 262.07 22.87V4.55002C262.07 4.17002 262.07 3.86002 262.1 3.61002V1.93002H257.53V2.20002C258.39 2.22002 258.9 2.40002 259.08 2.74002C259.25 3.08002 259.34 3.62002 259.34 4.38002V25.74C259.34 26.48 259.23 27.01 259.01 27.32C258.79 27.63 258.31 27.78 257.57 27.78V28.05H273.92V21.78H273.68L273.67 21.76Z" fill="white"/>
<path d="M296.85 26.86C296.77 26.6 296.74 26.05 296.74 25.21V6.18002V1.93002H292.25V2.20002H292.48C293.01 2.20002 293.39 2.34002 293.64 2.63002C293.89 2.92002 294.01 3.84002 294.01 5.39002V23.06C292.03 25.6 289.75 26.87 287.19 26.87C285.56 26.87 284.11 26.23 282.83 24.95C281.55 23.67 280.92 21.53 280.92 18.53V4.18002C280.92 4.06002 280.92 3.95002 280.92 3.85002V1.93002H276.43V2.20002C277.18 2.20002 277.66 2.33002 277.86 2.58002C278.06 2.83002 278.17 3.43002 278.17 4.38002V20.01C278.17 22.57 278.86 24.58 280.24 26.03C281.62 27.48 283.48 28.21 285.83 28.21C289 28.21 291.72 26.81 294.01 24.01V28.03H298.5V27.76C297.94 27.76 297.55 27.67 297.32 27.5C297.09 27.33 296.94 27.11 296.86 26.85L296.85 26.86Z" fill="white"/>
<path d="M163.21 26.89C163.12 26.64 163.08 26 163.08 24.97V4.94002C163.08 4.86002 163.08 4.80002 163.08 4.72002V1.93002H158.7V2.20002C159.46 2.20002 159.93 2.39002 160.09 2.78002C160.26 3.16002 160.34 3.89002 160.34 4.95002V14.29H147.31V5.31002V1.94002H142.9V2.21002C143.66 2.25002 144.13 2.42002 144.31 2.74002C144.49 3.06002 144.58 3.81002 144.58 5.01002V25.99C144.58 27.27 144.02 27.86 142.9 27.78V28.05H149.04V27.78C148.49 27.78 148.11 27.69 147.89 27.51C147.67 27.33 147.52 27.11 147.44 26.86C147.36 26.6 147.32 26 147.32 25.06V15.03H160.35V24.96C160.35 26.26 160.24 27.05 160.02 27.35C159.8 27.65 159.36 27.79 158.71 27.79V28.06H164.77V27.79C164.25 27.79 163.88 27.71 163.67 27.54C163.46 27.37 163.31 27.17 163.22 26.91L163.21 26.89Z" fill="white"/>
<path d="M217.99 26.29C217.55 25.31 217.33 24.75 217.33 24.64L209.4 3.51002C209.4 3.51002 209.39 3.46002 209.38 3.43002L208.83 1.93002H208.81H208.38H204.59V2.19002C205.26 2.19002 205.86 2.41002 206.21 2.91002C206.56 3.41002 206.88 4.10002 207.19 5.03002L208.23 7.91002C208.31 8.45002 208.31 9.25002 207.89 10.01L207.87 10.04C207.47 10.61 206.99 11.12 206.51 11.61C205.25 12.87 203.93 14.06 202.69 15.35C201.32 16.78 200.13 18.38 199.56 20.44C198.91 22.79 199.55 25.38 201.14 26.81C202.74 28.26 205.09 28.41 207.03 27.14C209.08 25.8 210.32 23.74 211 21.26C211.28 20.24 211.39 19.15 211.59 17.99L211.62 17.25L214.64 25.31C214.64 25.31 214.67 25.37 214.69 25.48C214.72 25.58 214.76 25.66 214.8 25.71C215.05 26.35 215.17 26.82 215.17 27.11C215.17 27.54 214.92 27.76 214.41 27.76V28.02H220V27.76C219.1 27.76 218.44 27.27 218 26.28L217.99 26.29ZM208.54 23.92C207.48 25.09 206.11 25.45 204.63 25.15C202.77 24.77 201.64 23.14 201.65 20.94C201.65 18.35 202.84 16.5 204.36 14.64C205.04 13.8 205.66 13.31 206.28 12.64C206.91 11.96 207.96 10.7 208.84 9.64002L210.63 14.59C210.71 15.4 210.79 16.18 210.89 16.88C211.25 19.55 210.28 22 208.54 23.93V23.92Z" fill="white"/>
<path d="M0 7.24V2.59H12.71V0.559998H15.89V2.59H28.6V7.24H25.95V4.14H2.65V7.24H0ZM1.72 27.49V17.12H26.87V24.39C26.96 26.53 25.68 27.57 23.03 27.49H1.72ZM3.44 7.71V6.28H25.02V7.71H3.44ZM4.24 15.1V9.74H24.23V12.12C24.32 14.19 23.08 15.18 20.52 15.1H4.24ZM4.37 18.56V21.54H12.97V18.56H4.37ZM4.37 25.94H12.97V22.96H4.37V25.94ZM7.02 13.67H19.86C21.09 13.75 21.67 13.23 21.58 12.12V11.05H7.02V13.67ZM24.23 18.56H15.63V21.54H24.23V18.56ZM22.24 25.94C23.65 26.02 24.31 25.5 24.23 24.39V22.96H15.63V25.94H22.25H22.24Z" fill="white"/>
<path d="M48.84 19.87C47.52 19 46.1 18.32 44.6 17.84V28.21H42.08V16.89C40.93 17.92 39.52 18.96 37.84 19.99V18.2C41.63 15.26 44.15 11.85 45.39 7.94999H38.77V6.39999H48.04V7.82999C46.98 10.61 45.83 12.76 44.6 14.26V14.38C46.19 13.9 47.56 13.23 48.7 12.35V14.49C47.64 15.13 46.27 15.56 44.6 15.8V16.4C45.92 16.56 47.33 17.04 48.84 17.83V19.86V19.87ZM43.42 5.32999C43.16 3.73999 42.63 2.18999 41.83 0.679993H43.95C44.92 2.34999 45.54 3.89999 45.8 5.32999H43.42ZM69.23 17.72C64.99 16.21 61.59 13.47 59.04 9.49999C57.36 12.92 54.18 15.66 49.51 17.72V16.17C53.39 13.95 56.17 10.81 57.85 6.75999H60.37C62.13 10.81 65.09 13.95 69.24 16.17V17.72H69.23ZM49.77 9.37999V7.82999C52.59 6.15999 54.4 4.05999 55.2 1.51999H57.72C56.66 4.93999 54.01 7.55999 49.78 9.37999H49.77ZM52.29 27.37V16.65H66.59V23.68C66.68 26.22 65.18 27.45 62.09 27.37H52.29ZM54.8 25.71H61.55C63.14 25.71 63.93 24.99 63.93 23.57V18.33H54.8V25.72V25.71ZM68.7 9.37999C64.55 7.78999 61.86 5.16999 60.62 1.51999H63.14C64.29 4.21999 66.14 6.32999 68.7 7.82999V9.37999Z" fill="white"/>
<path d="M77.96 18.2V16.53H82.06V13.19H84.58V16.53H88.15V18.2H84.58V23.56C86.17 23.32 87.58 23.04 88.82 22.73V24.28C86.26 25.07 82.47 25.59 77.43 25.83V24.04C79.19 24.04 80.74 23.96 82.06 23.8V18.2H77.96ZM77.83 3.78V2.11H88.69V3.78H83.92C82.86 6.64 81.54 8.83 79.95 10.33C82.07 10.33 84.14 10.17 86.17 9.85C85.73 8.74 85.24 7.63 84.71 6.51H86.56C87.71 8.34 88.59 10.48 89.21 12.94H86.96C86.87 12.39 86.74 11.87 86.56 11.39C84.53 11.87 81.57 12.1 77.69 12.1V10.31C79.45 8.25 80.65 6.06 81.26 3.76H77.82L77.83 3.78ZM90.14 4.02V2.59H96.76V0.559998H99.28V2.59H107.09V4.02H99.28C99.28 4.97 99.19 5.85 99.02 6.64H106.43V8.07H98.75C98.66 8.55 98.49 9.18 98.22 9.98C98.13 10.3 98.04 10.54 97.96 10.7H108.02V12.13H102.06C103.21 14.2 105.28 15.9 108.28 17.25V18.8C105.9 17.93 104 16.89 102.59 15.7V16.42C101.62 16.66 100.52 16.82 99.28 16.9V19.52H106.43V20.95H103.12C103.56 23.33 105.06 25.12 107.62 26.31V27.86C103.91 26.27 101.66 23.97 100.87 20.95H99.28V28.22H96.76V20.95H95.3C94.59 23.73 92.47 26.03 88.95 27.86V26.31C91.24 24.88 92.61 23.09 93.05 20.95H89.87V19.52H96.75V16.9H93.18V15.95C92.03 16.83 90.66 17.74 89.08 18.69V17.14C91.55 15.31 93.32 13.65 94.38 12.14H89.48V10.71H95.3C95.65 9.92 95.96 9.04 96.23 8.09H90.93V6.66H96.49C96.58 5.87 96.62 4.99 96.62 4.04H90.13L90.14 4.02ZM97.03 12.12C96.24 13.31 95.18 14.43 93.85 15.46H97.56C99.24 15.46 100.65 15.34 101.8 15.1C101.09 14.55 100.3 13.55 99.42 12.12H97.04H97.03Z" fill="white"/>
</svg>
