<svg width="568" height="239" viewBox="0 0 568 239" fill="none" xmlns="http://www.w3.org/2000/svg">
<path d="M33.2556 215.353C33.1727 213.613 33.0898 211.791 33.0068 210.01C33.38 210.052 33.7118 210.093 34.0435 210.134C34.3752 210.176 34.7069 210.217 35.0387 210.217C35.3704 210.217 35.7021 210.217 36.0338 210.134C36.3656 210.134 36.6973 210.052 37.0705 210.01C36.9876 211.832 36.9046 213.613 36.8632 215.353C36.7802 217.092 36.7388 218.873 36.7388 220.695C36.7388 224.174 36.7388 227.197 36.7802 229.723C36.7802 232.291 36.8217 234.569 36.8632 236.598C38.8121 236.598 40.7195 236.598 42.5025 236.557C44.2856 236.515 46.2345 236.35 48.3078 236.06C48.1834 236.557 48.1004 236.971 48.1004 237.302C48.1004 237.592 48.1834 237.965 48.3078 238.42C47.0223 238.379 45.7783 238.337 44.4929 238.337H36.8632C35.6192 238.337 34.3752 238.337 33.0068 238.42C33.0898 236.722 33.1727 234.983 33.2556 233.202C33.3386 231.421 33.3386 229.64 33.3386 227.818V220.695C33.3386 218.873 33.3386 217.092 33.2556 215.353Z" fill="black"/>
<path d="M92.2613 223.47C92.2613 219.535 92.2613 216.512 92.2613 214.4C92.2613 212.288 92.1783 210.797 92.0539 210.01C92.3442 210.052 92.6345 210.093 92.9247 210.134C93.215 210.176 93.4638 210.217 93.754 210.217C94.1272 210.217 94.5419 210.134 94.998 210.01C94.9151 210.963 94.8322 212.122 94.7492 213.489C94.6663 214.814 94.5834 216.264 94.5419 217.796C94.5004 219.328 94.4175 220.902 94.376 222.517C94.3346 224.132 94.2931 225.706 94.2516 227.197C94.2516 229.061 93.9199 230.717 93.3808 232.167C92.8418 233.616 92.0954 234.859 91.0588 235.894C90.0636 236.929 88.8611 237.675 87.4098 238.213C85.9584 238.752 84.2998 239 82.3924 239C78.2458 239 75.2188 238.047 73.3528 236.184C71.4868 234.32 70.5331 231.338 70.5331 227.28C70.5331 225.996 70.5331 224.836 70.6161 223.842C70.699 222.849 70.699 221.813 70.699 220.736C70.699 218.417 70.699 216.347 70.6161 214.566C70.5746 212.785 70.4917 211.253 70.4502 210.01C70.7819 210.052 71.1551 210.093 71.5283 210.134C71.9015 210.176 72.2747 210.217 72.6064 210.217C72.8967 210.217 73.2284 210.217 73.4772 210.134C73.7675 210.134 74.0577 210.052 74.3895 210.01C74.348 210.631 74.2651 211.418 74.2236 212.371C74.1821 213.365 74.0992 214.483 74.0577 215.725C74.0163 216.968 73.9748 218.293 73.9333 219.743C73.9333 221.192 73.9333 222.683 73.9333 224.215C73.9333 225.168 73.9333 226.12 73.9333 227.156C73.9333 228.15 74.0577 229.143 74.2236 230.096C74.3895 231.049 74.6383 231.96 75.0114 232.829C75.3846 233.699 75.9237 234.444 76.6286 235.107C77.3335 235.77 78.2043 236.267 79.241 236.639C80.2776 237.012 81.6045 237.178 83.1388 237.178C84.673 237.178 85.917 236.971 86.9536 236.515C87.9903 236.06 88.8611 235.48 89.5245 234.776C90.188 234.072 90.727 233.243 91.1002 232.291C91.4734 231.338 91.7222 230.386 91.8881 229.351C92.0539 228.315 92.1369 227.321 92.1783 226.286C92.1783 225.251 92.1783 224.339 92.1783 223.47H92.2613Z" fill="black"/>
<path d="M128.669 221.358C129.954 219.494 131.115 217.672 132.235 215.891C133.313 214.11 134.474 212.164 135.593 210.052C136.215 210.176 136.713 210.259 137.128 210.259C137.542 210.259 138.04 210.176 138.662 210.052C137.086 212.247 135.552 214.359 134.018 216.471C132.483 218.583 131.032 220.736 129.622 222.973C131.198 225.665 132.774 228.274 134.349 230.841C135.925 233.409 137.542 235.977 139.242 238.503C138.869 238.462 138.454 238.42 138.081 238.42H135.759C135.386 238.42 134.971 238.42 134.598 238.503C133.479 236.474 132.4 234.444 131.322 232.374C130.244 230.303 128.959 228.191 127.549 226.079C126.139 228.191 124.812 230.262 123.61 232.374C122.407 234.444 121.205 236.515 120.044 238.503C119.753 238.462 119.505 238.42 119.256 238.42H117.804C117.556 238.42 117.265 238.42 117.017 238.503C118.675 236.225 120.292 233.906 121.868 231.545C123.444 229.185 125.02 226.824 126.595 224.381C125.144 221.937 123.693 219.577 122.241 217.216C120.79 214.856 119.297 212.495 117.804 210.052C118.178 210.093 118.551 210.134 118.924 210.176C119.297 210.217 119.67 210.259 120.044 210.259C120.417 210.259 120.79 210.259 121.163 210.176C121.536 210.176 121.91 210.093 122.283 210.052C123.195 211.915 124.19 213.737 125.227 215.518C126.264 217.34 127.425 219.287 128.71 221.399L128.669 221.358Z" fill="black"/>
<path d="M183.031 223.47C183.031 219.535 183.031 216.512 183.031 214.4C183.031 212.288 182.948 210.797 182.823 210.01C183.114 210.052 183.404 210.093 183.694 210.134C183.985 210.176 184.233 210.217 184.524 210.217C184.897 210.217 185.311 210.134 185.768 210.01C185.685 210.963 185.602 212.122 185.519 213.489C185.436 214.814 185.353 216.264 185.311 217.796C185.27 219.328 185.187 220.902 185.146 222.517C185.104 224.132 185.063 225.706 185.021 227.197C185.021 229.061 184.689 230.717 184.15 232.167C183.611 233.616 182.865 234.859 181.828 235.894C180.833 236.929 179.631 237.675 178.179 238.213C176.728 238.752 175.069 239 173.162 239C169.015 239 165.988 238.047 164.122 236.184C162.256 234.32 161.303 231.338 161.303 227.28C161.303 225.996 161.303 224.836 161.386 223.842C161.469 222.849 161.469 221.813 161.469 220.736C161.469 218.417 161.469 216.347 161.386 214.566C161.303 212.785 161.261 211.253 161.22 210.01C161.551 210.052 161.925 210.093 162.298 210.134C162.671 210.176 163.044 210.217 163.376 210.217C163.666 210.217 163.956 210.217 164.247 210.134C164.537 210.134 164.827 210.052 165.159 210.01C165.118 210.631 165.035 211.418 164.993 212.371C164.952 213.365 164.869 214.483 164.827 215.725C164.786 216.968 164.744 218.293 164.703 219.743C164.703 221.192 164.703 222.683 164.703 224.215C164.703 225.168 164.703 226.12 164.703 227.156C164.703 228.15 164.827 229.143 164.993 230.096C165.159 231.049 165.408 231.96 165.781 232.829C166.154 233.699 166.693 234.444 167.398 235.107C168.103 235.77 168.974 236.267 170.01 236.639C171.047 237.012 172.374 237.178 173.908 237.178C175.443 237.178 176.687 236.971 177.723 236.515C178.76 236.06 179.631 235.48 180.294 234.776C180.957 234.072 181.497 233.243 181.87 232.291C182.243 231.338 182.492 230.386 182.658 229.351C182.823 228.315 182.906 227.321 182.948 226.286C182.948 225.251 182.948 224.339 182.948 223.47H183.031Z" fill="black"/>
<path d="M210.273 220.736C210.273 218.914 210.273 217.133 210.19 215.394C210.107 213.655 210.024 211.832 209.941 210.052C210.729 210.093 211.517 210.134 212.305 210.176C213.093 210.217 213.881 210.259 214.669 210.259C215.456 210.259 216.244 210.259 217.032 210.134C217.82 210.01 218.608 210.052 219.396 210.052C220.557 210.052 221.676 210.176 222.713 210.383C223.75 210.59 224.703 210.963 225.45 211.46C226.237 211.957 226.859 212.661 227.316 213.489C227.772 214.317 227.979 215.353 227.979 216.595C227.979 217.92 227.689 219.038 227.108 219.991C226.528 220.944 225.781 221.73 224.952 222.352C224.081 222.973 223.169 223.47 222.215 223.801C221.22 224.132 220.349 224.381 219.52 224.505C219.852 224.919 220.308 225.499 220.888 226.245C221.469 226.99 222.132 227.818 222.837 228.729C223.542 229.64 224.289 230.552 225.076 231.545C225.864 232.539 226.611 233.451 227.316 234.362C228.021 235.273 228.725 236.06 229.347 236.846C229.969 237.592 230.508 238.172 230.882 238.544C230.467 238.503 230.052 238.462 229.638 238.462H227.191C226.777 238.462 226.362 238.462 225.989 238.544C225.574 237.965 224.952 237.095 224.123 235.935C223.293 234.776 222.34 233.533 221.345 232.208C220.308 230.883 219.271 229.558 218.193 228.274C217.115 226.949 216.161 225.83 215.29 224.961H213.715V227.984C213.715 229.806 213.715 231.587 213.839 233.368C213.922 235.149 213.964 236.888 214.047 238.586C213.425 238.544 212.72 238.503 212.015 238.503C211.31 238.503 210.605 238.503 209.983 238.586C210.066 236.888 210.149 235.149 210.232 233.368C210.315 231.587 210.315 229.806 210.315 227.984V220.861L210.273 220.736ZM213.673 223.097C214.047 223.18 214.503 223.221 214.959 223.263C215.415 223.263 215.912 223.304 216.493 223.304C217.364 223.304 218.235 223.221 219.188 223.014C220.101 222.807 220.971 222.476 221.718 221.979C222.506 221.482 223.128 220.861 223.625 220.032C224.123 219.204 224.413 218.169 224.413 216.926C224.413 215.85 224.206 214.98 223.832 214.234C223.418 213.53 222.92 212.992 222.257 212.578C221.635 212.164 220.93 211.874 220.183 211.708C219.437 211.543 218.691 211.46 217.986 211.46C217.032 211.46 216.203 211.46 215.581 211.543C214.959 211.543 214.42 211.625 213.964 211.708C213.922 213.241 213.839 214.731 213.798 216.222C213.756 217.713 213.715 219.204 213.715 220.695V223.056L213.673 223.097Z" fill="black"/>
<path d="M257.586 226.824C257.296 226.369 256.881 225.665 256.383 224.754C255.844 223.842 255.264 222.849 254.6 221.772C253.937 220.695 253.274 219.535 252.569 218.334C251.864 217.133 251.159 215.974 250.495 214.897C249.832 213.82 249.251 212.826 248.712 211.957C248.173 211.087 247.8 210.424 247.51 210.01C247.883 210.052 248.256 210.093 248.629 210.134C249.003 210.176 249.376 210.217 249.749 210.217C250.122 210.217 250.495 210.217 250.869 210.134C251.242 210.134 251.615 210.052 251.988 210.01C253.232 212.412 254.476 214.773 255.761 217.092C257.047 219.411 258.415 221.813 259.867 224.339C260.489 223.346 261.152 222.269 261.857 221.068C262.562 219.867 263.225 218.666 263.93 217.423C264.635 216.181 265.299 214.938 265.921 213.655C266.543 212.412 267.165 211.17 267.704 210.01C268.409 210.134 268.948 210.217 269.321 210.217C269.694 210.217 270.233 210.134 270.938 210.01C269.611 212.04 268.409 213.862 267.372 215.477C266.335 217.092 265.382 218.583 264.594 219.908C263.806 221.233 263.101 222.434 262.479 223.511C261.857 224.588 261.359 225.54 260.903 226.369C260.903 227.404 260.903 228.481 260.903 229.64C260.903 230.8 260.903 231.96 260.986 233.078C260.986 234.196 261.028 235.231 261.069 236.184C261.069 237.136 261.152 237.882 261.194 238.462C260.572 238.42 259.867 238.379 259.162 238.379C258.457 238.379 257.752 238.379 257.13 238.462C257.296 237.012 257.379 235.273 257.42 233.243C257.42 231.214 257.42 229.061 257.42 226.824H257.586Z" fill="black"/>
<path d="M340.974 237.468C340.435 237.716 339.772 237.965 339.026 238.172C338.279 238.379 337.408 238.544 336.455 238.71C335.501 238.876 334.547 238.959 333.511 238.959C331.313 238.959 329.323 238.627 327.457 238.006C325.591 237.385 324.015 236.432 322.688 235.19C321.361 233.906 320.283 232.374 319.537 230.552C318.79 228.729 318.417 226.617 318.417 224.257C318.417 221.896 318.79 219.825 319.537 218.003C320.283 216.181 321.361 214.607 322.729 213.365C324.098 212.081 325.756 211.128 327.622 210.466C329.53 209.803 331.645 209.472 333.925 209.472C335.75 209.472 337.408 209.679 338.943 210.052C340.435 210.424 341.804 210.88 342.923 211.418C342.716 211.791 342.509 212.329 342.384 212.992C342.26 213.655 342.135 214.193 342.053 214.649L341.804 214.731C341.514 214.4 341.14 214.027 340.643 213.613C340.145 213.199 339.565 212.785 338.901 212.412C338.238 212.04 337.491 211.708 336.662 211.46C335.833 211.211 334.92 211.046 333.925 211.046C332.308 211.046 330.774 211.294 329.405 211.832C327.996 212.371 326.793 213.158 325.756 214.234C324.72 215.311 323.932 216.719 323.351 218.376C322.771 220.032 322.481 222.02 322.481 224.298C322.481 226.576 322.771 228.564 323.351 230.262C323.932 231.918 324.72 233.326 325.756 234.403C326.793 235.48 327.996 236.308 329.405 236.805C330.815 237.343 332.308 237.592 333.925 237.592C334.92 237.592 335.833 237.468 336.703 237.219C337.533 236.971 338.321 236.681 339.026 236.35C339.73 236.018 340.352 235.645 340.933 235.231C341.514 234.817 341.97 234.486 342.384 234.196L342.55 234.362L342.177 236.805C341.928 237.012 341.555 237.261 341.016 237.509L340.974 237.468Z" fill="black"/>
<path d="M385.964 238.462C385.591 238.42 385.218 238.379 384.845 238.379H382.647C382.315 238.379 381.942 238.379 381.527 238.462C381.32 237.84 381.071 237.054 380.739 236.184C380.408 235.273 380.035 234.362 379.62 233.368C379.205 232.374 378.832 231.38 378.417 230.386C378.003 229.392 377.63 228.398 377.256 227.487C376.386 227.487 375.473 227.446 374.561 227.446C373.649 227.446 372.737 227.446 371.824 227.446C370.954 227.446 370.124 227.446 369.295 227.446C368.466 227.446 367.636 227.446 366.765 227.487C365.895 229.64 365.065 231.67 364.36 233.658C363.656 235.604 363.116 237.219 362.743 238.462C362.287 238.42 361.748 238.379 361.209 238.379C360.67 238.379 360.131 238.379 359.675 238.462C361.914 233.616 364.112 228.812 366.226 224.05C368.341 219.287 370.497 214.4 372.654 209.472H373.441C374.105 211.087 374.81 212.826 375.598 214.69C376.386 216.554 377.173 218.417 377.961 220.322C378.749 222.227 379.578 224.132 380.366 225.996C381.154 227.86 381.942 229.64 382.605 231.256C383.31 232.871 383.932 234.32 384.513 235.563C385.093 236.846 385.55 237.799 385.881 238.462H385.964ZM367.595 225.582C368.3 225.582 369.046 225.582 369.834 225.582C370.622 225.582 371.368 225.582 372.073 225.582C372.861 225.582 373.607 225.582 374.395 225.582C375.183 225.582 375.929 225.582 376.717 225.54L372.115 215.021L367.595 225.54V225.582Z" fill="black"/>
<path d="M407.319 234.569C407.693 235.066 408.149 235.563 408.688 235.935C409.227 236.35 409.849 236.681 410.554 236.971C411.259 237.219 412.088 237.343 412.959 237.343C413.829 237.343 414.7 237.178 415.447 236.846C416.193 236.515 416.815 236.101 417.313 235.563C417.81 235.024 418.225 234.403 418.515 233.658C418.805 232.912 418.93 232.125 418.93 231.297C418.93 230.013 418.598 229.019 417.976 228.274C417.313 227.528 416.525 226.907 415.571 226.41C414.617 225.913 413.539 225.458 412.42 225.043C411.3 224.629 410.263 224.132 409.31 223.47C408.356 222.849 407.527 222.062 406.863 221.068C406.2 220.115 405.909 218.79 405.909 217.175C405.909 216.015 406.117 214.938 406.531 213.986C406.946 213.033 407.568 212.205 408.356 211.543C409.144 210.839 410.098 210.3 411.217 209.927C412.337 209.555 413.581 209.348 414.949 209.348C416.317 209.348 417.437 209.513 418.391 209.845C419.344 210.176 420.257 210.673 421.086 211.335C420.837 211.791 420.63 212.288 420.464 212.826C420.298 213.365 420.132 214.027 419.966 214.814H419.469C419.344 214.442 419.137 213.986 418.93 213.572C418.681 213.116 418.391 212.702 417.976 212.288C417.561 211.915 417.105 211.584 416.525 211.335C415.986 211.087 415.322 210.921 414.534 210.921C413.747 210.921 413.042 211.046 412.378 211.294C411.715 211.543 411.176 211.874 410.678 212.329C410.18 212.785 409.807 213.323 409.558 213.945C409.31 214.566 409.144 215.27 409.144 216.015C409.144 217.299 409.476 218.334 410.098 219.08C410.761 219.825 411.549 220.447 412.544 220.985C413.498 221.482 414.534 221.937 415.654 222.352C416.774 222.766 417.81 223.221 418.764 223.801C419.718 224.381 420.547 225.126 421.21 226.037C421.874 226.949 422.164 228.15 422.164 229.682C422.164 230.966 421.957 232.167 421.459 233.285C421.003 234.403 420.34 235.397 419.469 236.225C418.598 237.054 417.52 237.716 416.276 238.172C415.032 238.627 413.581 238.834 412.005 238.834C410.305 238.834 408.895 238.586 407.858 238.172C406.78 237.716 405.909 237.178 405.163 236.598C405.412 235.977 405.578 235.397 405.661 234.859C405.744 234.362 405.827 233.699 405.909 232.871H406.407C406.614 233.368 406.905 233.865 407.319 234.403V234.569Z" fill="black"/>
<path d="M450.279 212.164C449.574 212.164 448.827 212.164 448.039 212.164C447.252 212.164 446.464 212.164 445.676 212.247C444.888 212.247 444.142 212.329 443.395 212.412C442.649 212.454 441.985 212.536 441.446 212.619C441.571 212.122 441.654 211.667 441.654 211.294C441.654 211.004 441.571 210.549 441.446 210.01C443.271 210.052 445.054 210.093 446.795 210.134C448.537 210.176 450.32 210.217 452.145 210.217C453.969 210.217 455.752 210.217 457.494 210.134C459.235 210.134 461.018 210.052 462.843 210.01C462.718 210.549 462.635 211.004 462.635 211.335C462.635 211.708 462.718 212.122 462.843 212.619C462.262 212.536 461.599 212.454 460.852 212.412C460.106 212.371 459.36 212.288 458.572 212.247C457.784 212.205 456.996 212.164 456.208 212.164C455.42 212.164 454.674 212.164 453.969 212.164C453.886 215.021 453.845 217.879 453.845 220.736V227.86C453.845 229.682 453.845 231.463 453.928 233.243C454.01 235.024 454.093 236.764 454.176 238.462C453.554 238.42 452.849 238.379 452.145 238.379C451.44 238.379 450.735 238.379 450.113 238.462C450.196 236.764 450.279 235.024 450.361 233.243C450.444 231.463 450.444 229.682 450.444 227.86V220.736C450.444 217.879 450.403 215.021 450.32 212.164H450.279Z" fill="black"/>
<path d="M484.197 215.353C484.114 213.613 484.031 211.791 483.948 210.01C484.321 210.052 484.653 210.093 484.985 210.134C485.317 210.176 485.648 210.217 485.98 210.217C486.312 210.217 486.644 210.217 486.975 210.134C487.307 210.134 487.639 210.052 488.012 210.01C487.929 211.832 487.846 213.613 487.805 215.353C487.722 217.092 487.68 218.873 487.68 220.695C487.68 224.174 487.68 227.197 487.722 229.723C487.722 232.291 487.763 234.569 487.805 236.598C489.753 236.598 491.661 236.598 493.444 236.557C495.227 236.515 497.176 236.35 499.249 236.06C499.125 236.557 499.042 236.971 499.042 237.302C499.042 237.592 499.125 237.965 499.249 238.42C497.964 238.379 496.72 238.337 495.434 238.337H487.805C486.561 238.337 485.317 238.337 483.948 238.42C484.031 236.722 484.114 234.983 484.197 233.202C484.28 231.421 484.28 229.64 484.28 227.818V220.695C484.28 218.873 484.28 217.092 484.197 215.353Z" fill="black"/>
<path d="M521.516 215.311C521.433 213.53 521.351 211.791 521.268 210.01C522.512 210.052 523.756 210.093 524.958 210.134C526.202 210.176 527.446 210.217 528.69 210.217C529.934 210.217 531.178 210.217 532.38 210.134C533.583 210.134 534.827 210.052 536.071 210.01C535.988 210.424 535.947 210.838 535.947 211.253C535.947 211.667 535.988 212.081 536.071 212.495C535.2 212.454 534.371 212.371 533.624 212.329C532.878 212.288 532.132 212.205 531.302 212.164C530.473 212.122 529.602 212.04 528.649 211.998C527.695 211.998 526.534 211.957 525.165 211.957C525.165 212.826 525.124 213.696 525.082 214.483C525.082 215.27 525 216.181 525 217.216C525 218.293 525 219.328 525 220.364C525 221.399 525 222.145 525 222.683C526.202 222.683 527.322 222.683 528.275 222.683C529.229 222.683 530.141 222.6 530.929 222.559C531.717 222.559 532.463 222.476 533.127 222.434C533.79 222.434 534.454 222.352 535.076 222.31C534.993 222.724 534.951 223.138 534.951 223.594C534.951 224.008 534.993 224.422 535.076 224.836C534.371 224.754 533.541 224.671 532.546 224.629C531.593 224.588 530.639 224.547 529.685 224.505C528.731 224.505 527.819 224.505 526.99 224.505C526.161 224.505 525.497 224.505 525 224.505C525 224.754 525 225.002 525 225.333C525 225.623 525 225.996 525 226.41V230.51C525 232.084 525 233.368 525 234.403C525 235.438 525 236.184 525.041 236.722H527.944C528.98 236.722 530.017 236.722 531.054 236.681C532.049 236.639 533.002 236.598 533.915 236.515C534.827 236.432 535.573 236.35 536.237 236.184C536.195 236.391 536.154 236.598 536.154 236.846C536.154 237.095 536.154 237.302 536.154 237.468C536.154 237.923 536.154 238.255 536.278 238.544C535.034 238.503 533.79 238.462 532.588 238.462H525.082C523.838 238.462 522.594 238.462 521.309 238.544C521.392 236.764 521.475 235.024 521.558 233.285C521.641 231.545 521.641 229.723 521.641 227.942V220.819C521.641 218.997 521.641 217.216 521.558 215.435L521.516 215.311Z" fill="black"/>
<path d="M33.2556 215.353C33.1727 213.613 33.0898 211.791 33.0068 210.01C33.38 210.052 33.7118 210.093 34.0435 210.134C34.3752 210.176 34.7069 210.217 35.0387 210.217C35.3704 210.217 35.7021 210.217 36.0338 210.134C36.3656 210.134 36.6973 210.052 37.0705 210.01C36.9876 211.832 36.9046 213.613 36.8632 215.353C36.7802 217.092 36.7388 218.873 36.7388 220.695C36.7388 224.174 36.7388 227.197 36.7802 229.723C36.7802 232.291 36.8217 234.569 36.8632 236.598C38.8121 236.598 40.7195 236.598 42.5025 236.557C44.2856 236.515 46.2345 236.35 48.3078 236.06C48.1834 236.557 48.1004 236.971 48.1004 237.302C48.1004 237.592 48.1834 237.965 48.3078 238.42C47.0223 238.379 45.7783 238.337 44.4929 238.337H36.8632C35.6192 238.337 34.3752 238.337 33.0068 238.42C33.0898 236.722 33.1727 234.983 33.2556 233.202C33.3386 231.421 33.3386 229.64 33.3386 227.818V220.695C33.3386 218.873 33.3386 217.092 33.2556 215.353Z" fill="#3E3A39"/>
<path d="M92.2613 223.47C92.2613 219.535 92.2613 216.512 92.2613 214.4C92.2613 212.288 92.1783 210.797 92.0539 210.01C92.3442 210.052 92.6345 210.093 92.9247 210.134C93.215 210.176 93.4638 210.217 93.754 210.217C94.1272 210.217 94.5419 210.134 94.998 210.01C94.9151 210.963 94.8322 212.122 94.7492 213.489C94.6663 214.814 94.5834 216.264 94.5419 217.796C94.5004 219.328 94.4175 220.902 94.376 222.517C94.3346 224.132 94.2931 225.706 94.2516 227.197C94.2516 229.061 93.9199 230.717 93.3808 232.167C92.8418 233.616 92.0954 234.859 91.0588 235.894C90.0636 236.929 88.8611 237.675 87.4098 238.213C85.9584 238.752 84.2998 239 82.3924 239C78.2458 239 75.2188 238.047 73.3528 236.184C71.4868 234.32 70.5331 231.338 70.5331 227.28C70.5331 225.996 70.5331 224.836 70.6161 223.842C70.699 222.849 70.699 221.813 70.699 220.736C70.699 218.417 70.699 216.347 70.6161 214.566C70.5746 212.785 70.4917 211.253 70.4502 210.01C70.7819 210.052 71.1551 210.093 71.5283 210.134C71.9015 210.176 72.2747 210.217 72.6064 210.217C72.8967 210.217 73.2284 210.217 73.4772 210.134C73.7675 210.134 74.0577 210.052 74.3895 210.01C74.348 210.631 74.2651 211.418 74.2236 212.371C74.1821 213.365 74.0992 214.483 74.0577 215.725C74.0163 216.968 73.9748 218.293 73.9333 219.743C73.9333 221.192 73.9333 222.683 73.9333 224.215C73.9333 225.168 73.9333 226.12 73.9333 227.156C73.9333 228.15 74.0577 229.143 74.2236 230.096C74.3895 231.049 74.6383 231.96 75.0114 232.829C75.3846 233.699 75.9237 234.444 76.6286 235.107C77.3335 235.77 78.2043 236.267 79.241 236.639C80.2776 237.012 81.6045 237.178 83.1388 237.178C84.673 237.178 85.917 236.971 86.9536 236.515C87.9903 236.06 88.8611 235.48 89.5245 234.776C90.188 234.072 90.727 233.243 91.1002 232.291C91.4734 231.338 91.7222 230.386 91.8881 229.351C92.0539 228.315 92.1369 227.321 92.1783 226.286C92.1783 225.251 92.1783 224.339 92.1783 223.47H92.2613Z" fill="#3E3A39"/>
<path d="M128.669 221.358C129.954 219.494 131.115 217.672 132.235 215.891C133.313 214.11 134.474 212.164 135.593 210.052C136.215 210.176 136.713 210.259 137.128 210.259C137.542 210.259 138.04 210.176 138.662 210.052C137.086 212.247 135.552 214.359 134.018 216.471C132.483 218.583 131.032 220.736 129.622 222.973C131.198 225.665 132.774 228.274 134.349 230.841C135.925 233.409 137.542 235.977 139.242 238.503C138.869 238.462 138.454 238.42 138.081 238.42H135.759C135.386 238.42 134.971 238.42 134.598 238.503C133.479 236.474 132.4 234.444 131.322 232.374C130.244 230.303 128.959 228.191 127.549 226.079C126.139 228.191 124.812 230.262 123.61 232.374C122.407 234.444 121.205 236.515 120.044 238.503C119.753 238.462 119.505 238.42 119.256 238.42H117.804C117.556 238.42 117.265 238.42 117.017 238.503C118.675 236.225 120.292 233.906 121.868 231.545C123.444 229.185 125.02 226.824 126.595 224.381C125.144 221.937 123.693 219.577 122.241 217.216C120.79 214.856 119.297 212.495 117.804 210.052C118.178 210.093 118.551 210.134 118.924 210.176C119.297 210.217 119.67 210.259 120.044 210.259C120.417 210.259 120.79 210.259 121.163 210.176C121.536 210.176 121.91 210.093 122.283 210.052C123.195 211.915 124.19 213.737 125.227 215.518C126.264 217.34 127.425 219.287 128.71 221.399L128.669 221.358Z" fill="#3E3A39"/>
<path d="M183.031 223.47C183.031 219.535 183.031 216.512 183.031 214.4C183.031 212.288 182.948 210.797 182.823 210.01C183.114 210.052 183.404 210.093 183.694 210.134C183.985 210.176 184.233 210.217 184.524 210.217C184.897 210.217 185.311 210.134 185.768 210.01C185.685 210.963 185.602 212.122 185.519 213.489C185.436 214.814 185.353 216.264 185.311 217.796C185.27 219.328 185.187 220.902 185.146 222.517C185.104 224.132 185.063 225.706 185.021 227.197C185.021 229.061 184.689 230.717 184.15 232.167C183.611 233.616 182.865 234.859 181.828 235.894C180.833 236.929 179.631 237.675 178.179 238.213C176.728 238.752 175.069 239 173.162 239C169.015 239 165.988 238.047 164.122 236.184C162.256 234.32 161.303 231.338 161.303 227.28C161.303 225.996 161.303 224.836 161.386 223.842C161.469 222.849 161.469 221.813 161.469 220.736C161.469 218.417 161.469 216.347 161.386 214.566C161.303 212.785 161.261 211.253 161.22 210.01C161.551 210.052 161.925 210.093 162.298 210.134C162.671 210.176 163.044 210.217 163.376 210.217C163.666 210.217 163.956 210.217 164.247 210.134C164.537 210.134 164.827 210.052 165.159 210.01C165.118 210.631 165.035 211.418 164.993 212.371C164.952 213.365 164.869 214.483 164.827 215.725C164.786 216.968 164.744 218.293 164.703 219.743C164.703 221.192 164.703 222.683 164.703 224.215C164.703 225.168 164.703 226.12 164.703 227.156C164.703 228.15 164.827 229.143 164.993 230.096C165.159 231.049 165.408 231.96 165.781 232.829C166.154 233.699 166.693 234.444 167.398 235.107C168.103 235.77 168.974 236.267 170.01 236.639C171.047 237.012 172.374 237.178 173.908 237.178C175.443 237.178 176.687 236.971 177.723 236.515C178.76 236.06 179.631 235.48 180.294 234.776C180.957 234.072 181.497 233.243 181.87 232.291C182.243 231.338 182.492 230.386 182.658 229.351C182.823 228.315 182.906 227.321 182.948 226.286C182.948 225.251 182.948 224.339 182.948 223.47H183.031Z" fill="#3E3A39"/>
<path d="M210.273 220.736C210.273 218.914 210.273 217.133 210.19 215.394C210.107 213.655 210.024 211.832 209.941 210.052C210.729 210.093 211.517 210.134 212.305 210.176C213.093 210.217 213.881 210.259 214.669 210.259C215.456 210.259 216.244 210.259 217.032 210.134C217.82 210.01 218.608 210.052 219.396 210.052C220.557 210.052 221.676 210.176 222.713 210.383C223.75 210.59 224.703 210.963 225.45 211.46C226.237 211.957 226.859 212.661 227.316 213.489C227.772 214.317 227.979 215.353 227.979 216.595C227.979 217.92 227.689 219.038 227.108 219.991C226.528 220.944 225.781 221.73 224.952 222.352C224.081 222.973 223.169 223.47 222.215 223.801C221.22 224.132 220.349 224.381 219.52 224.505C219.852 224.919 220.308 225.499 220.888 226.245C221.469 226.99 222.132 227.818 222.837 228.729C223.542 229.64 224.289 230.552 225.076 231.545C225.864 232.539 226.611 233.451 227.316 234.362C228.021 235.273 228.725 236.06 229.347 236.846C229.969 237.592 230.508 238.172 230.882 238.544C230.467 238.503 230.052 238.462 229.638 238.462H227.191C226.777 238.462 226.362 238.462 225.989 238.544C225.574 237.965 224.952 237.095 224.123 235.935C223.293 234.776 222.34 233.533 221.345 232.208C220.308 230.883 219.271 229.558 218.193 228.274C217.115 226.949 216.161 225.83 215.29 224.961H213.715V227.984C213.715 229.806 213.715 231.587 213.839 233.368C213.922 235.149 213.964 236.888 214.047 238.586C213.425 238.544 212.72 238.503 212.015 238.503C211.31 238.503 210.605 238.503 209.983 238.586C210.066 236.888 210.149 235.149 210.232 233.368C210.315 231.587 210.315 229.806 210.315 227.984V220.861L210.273 220.736ZM213.673 223.097C214.047 223.18 214.503 223.221 214.959 223.263C215.415 223.263 215.912 223.304 216.493 223.304C217.364 223.304 218.235 223.221 219.188 223.014C220.101 222.807 220.971 222.476 221.718 221.979C222.506 221.482 223.128 220.861 223.625 220.032C224.123 219.204 224.413 218.169 224.413 216.926C224.413 215.85 224.206 214.98 223.832 214.234C223.418 213.53 222.92 212.992 222.257 212.578C221.635 212.164 220.93 211.874 220.183 211.708C219.437 211.543 218.691 211.46 217.986 211.46C217.032 211.46 216.203 211.46 215.581 211.543C214.959 211.543 214.42 211.625 213.964 211.708C213.922 213.241 213.839 214.731 213.798 216.222C213.756 217.713 213.715 219.204 213.715 220.695V223.056L213.673 223.097Z" fill="#3E3A39"/>
<path d="M257.586 226.824C257.296 226.369 256.881 225.665 256.383 224.754C255.844 223.842 255.264 222.849 254.6 221.772C253.937 220.695 253.274 219.535 252.569 218.334C251.864 217.133 251.159 215.974 250.495 214.897C249.832 213.82 249.251 212.826 248.712 211.957C248.173 211.087 247.8 210.424 247.51 210.01C247.883 210.052 248.256 210.093 248.629 210.134C249.003 210.176 249.376 210.217 249.749 210.217C250.122 210.217 250.495 210.217 250.869 210.134C251.242 210.134 251.615 210.052 251.988 210.01C253.232 212.412 254.476 214.773 255.761 217.092C257.047 219.411 258.415 221.813 259.867 224.339C260.489 223.346 261.152 222.269 261.857 221.068C262.562 219.867 263.225 218.666 263.93 217.423C264.635 216.181 265.299 214.938 265.921 213.655C266.543 212.412 267.165 211.17 267.704 210.01C268.409 210.134 268.948 210.217 269.321 210.217C269.694 210.217 270.233 210.134 270.938 210.01C269.611 212.04 268.409 213.862 267.372 215.477C266.335 217.092 265.382 218.583 264.594 219.908C263.806 221.233 263.101 222.434 262.479 223.511C261.857 224.588 261.359 225.54 260.903 226.369C260.903 227.404 260.903 228.481 260.903 229.64C260.903 230.8 260.903 231.96 260.986 233.078C260.986 234.196 261.028 235.231 261.069 236.184C261.069 237.136 261.152 237.882 261.194 238.462C260.572 238.42 259.867 238.379 259.162 238.379C258.457 238.379 257.752 238.379 257.13 238.462C257.296 237.012 257.379 235.273 257.42 233.243C257.42 231.214 257.42 229.061 257.42 226.824H257.586Z" fill="#3E3A39"/>
<path d="M340.974 237.468C340.435 237.716 339.772 237.965 339.026 238.172C338.279 238.379 337.408 238.544 336.455 238.71C335.501 238.876 334.547 238.959 333.511 238.959C331.313 238.959 329.323 238.627 327.457 238.006C325.591 237.385 324.015 236.432 322.688 235.19C321.361 233.906 320.283 232.374 319.537 230.552C318.79 228.729 318.417 226.617 318.417 224.257C318.417 221.896 318.79 219.825 319.537 218.003C320.283 216.181 321.361 214.607 322.729 213.365C324.098 212.081 325.756 211.128 327.622 210.466C329.53 209.803 331.645 209.472 333.925 209.472C335.75 209.472 337.408 209.679 338.943 210.052C340.435 210.424 341.804 210.88 342.923 211.418C342.716 211.791 342.509 212.329 342.384 212.992C342.26 213.655 342.135 214.193 342.053 214.649L341.804 214.731C341.514 214.4 341.14 214.027 340.643 213.613C340.145 213.199 339.565 212.785 338.901 212.412C338.238 212.04 337.491 211.708 336.662 211.46C335.833 211.211 334.92 211.046 333.925 211.046C332.308 211.046 330.774 211.294 329.405 211.832C327.996 212.371 326.793 213.158 325.756 214.234C324.72 215.311 323.932 216.719 323.351 218.376C322.771 220.032 322.481 222.02 322.481 224.298C322.481 226.576 322.771 228.564 323.351 230.262C323.932 231.918 324.72 233.326 325.756 234.403C326.793 235.48 327.996 236.308 329.405 236.805C330.815 237.343 332.308 237.592 333.925 237.592C334.92 237.592 335.833 237.468 336.703 237.219C337.533 236.971 338.321 236.681 339.026 236.35C339.73 236.018 340.352 235.645 340.933 235.231C341.514 234.817 341.97 234.486 342.384 234.196L342.55 234.362L342.177 236.805C341.928 237.012 341.555 237.261 341.016 237.509L340.974 237.468Z" fill="#3E3A39"/>
<path d="M385.964 238.462C385.591 238.42 385.218 238.379 384.845 238.379H382.647C382.315 238.379 381.942 238.379 381.527 238.462C381.32 237.84 381.071 237.054 380.739 236.184C380.408 235.273 380.035 234.362 379.62 233.368C379.205 232.374 378.832 231.38 378.417 230.386C378.003 229.392 377.63 228.398 377.256 227.487C376.386 227.487 375.473 227.446 374.561 227.446C373.649 227.446 372.737 227.446 371.824 227.446C370.954 227.446 370.124 227.446 369.295 227.446C368.466 227.446 367.636 227.446 366.765 227.487C365.895 229.64 365.065 231.67 364.36 233.658C363.656 235.604 363.116 237.219 362.743 238.462C362.287 238.42 361.748 238.379 361.209 238.379C360.67 238.379 360.131 238.379 359.675 238.462C361.914 233.616 364.112 228.812 366.226 224.05C368.341 219.287 370.497 214.4 372.654 209.472H373.441C374.105 211.087 374.81 212.826 375.598 214.69C376.386 216.554 377.173 218.417 377.961 220.322C378.749 222.227 379.578 224.132 380.366 225.996C381.154 227.86 381.942 229.64 382.605 231.256C383.31 232.871 383.932 234.32 384.513 235.563C385.093 236.846 385.55 237.799 385.881 238.462H385.964ZM367.595 225.582C368.3 225.582 369.046 225.582 369.834 225.582C370.622 225.582 371.368 225.582 372.073 225.582C372.861 225.582 373.607 225.582 374.395 225.582C375.183 225.582 375.929 225.582 376.717 225.54L372.115 215.021L367.595 225.54V225.582Z" fill="#3E3A39"/>
<path d="M407.319 234.569C407.693 235.066 408.149 235.563 408.688 235.935C409.227 236.35 409.849 236.681 410.554 236.971C411.259 237.219 412.088 237.343 412.959 237.343C413.829 237.343 414.7 237.178 415.447 236.846C416.193 236.515 416.815 236.101 417.313 235.563C417.81 235.024 418.225 234.403 418.515 233.658C418.805 232.912 418.93 232.125 418.93 231.297C418.93 230.013 418.598 229.019 417.976 228.274C417.313 227.528 416.525 226.907 415.571 226.41C414.617 225.913 413.539 225.458 412.42 225.043C411.3 224.629 410.263 224.132 409.31 223.47C408.356 222.849 407.527 222.062 406.863 221.068C406.2 220.115 405.909 218.79 405.909 217.175C405.909 216.015 406.117 214.938 406.531 213.986C406.946 213.033 407.568 212.205 408.356 211.543C409.144 210.839 410.098 210.3 411.217 209.927C412.337 209.555 413.581 209.348 414.949 209.348C416.317 209.348 417.437 209.513 418.391 209.845C419.344 210.176 420.257 210.673 421.086 211.335C420.837 211.791 420.63 212.288 420.464 212.826C420.298 213.365 420.132 214.027 419.966 214.814H419.469C419.344 214.442 419.137 213.986 418.93 213.572C418.681 213.116 418.391 212.702 417.976 212.288C417.561 211.915 417.105 211.584 416.525 211.335C415.986 211.087 415.322 210.921 414.534 210.921C413.747 210.921 413.042 211.046 412.378 211.294C411.715 211.543 411.176 211.874 410.678 212.329C410.18 212.785 409.807 213.323 409.558 213.945C409.31 214.566 409.144 215.27 409.144 216.015C409.144 217.299 409.476 218.334 410.098 219.08C410.761 219.825 411.549 220.447 412.544 220.985C413.498 221.482 414.534 221.937 415.654 222.352C416.774 222.766 417.81 223.221 418.764 223.801C419.718 224.381 420.547 225.126 421.21 226.037C421.874 226.949 422.164 228.15 422.164 229.682C422.164 230.966 421.957 232.167 421.459 233.285C421.003 234.403 420.34 235.397 419.469 236.225C418.598 237.054 417.52 237.716 416.276 238.172C415.032 238.627 413.581 238.834 412.005 238.834C410.305 238.834 408.895 238.586 407.858 238.172C406.78 237.716 405.909 237.178 405.163 236.598C405.412 235.977 405.578 235.397 405.661 234.859C405.744 234.362 405.827 233.699 405.909 232.871H406.407C406.614 233.368 406.905 233.865 407.319 234.403V234.569Z" fill="#3E3A39"/>
<path d="M450.279 212.164C449.574 212.164 448.827 212.164 448.039 212.164C447.252 212.164 446.464 212.164 445.676 212.247C444.888 212.247 444.142 212.329 443.395 212.412C442.649 212.454 441.985 212.536 441.446 212.619C441.571 212.122 441.654 211.667 441.654 211.294C441.654 211.004 441.571 210.549 441.446 210.01C443.271 210.052 445.054 210.093 446.795 210.134C448.537 210.176 450.32 210.217 452.145 210.217C453.969 210.217 455.752 210.217 457.494 210.134C459.235 210.134 461.018 210.052 462.843 210.01C462.718 210.549 462.635 211.004 462.635 211.335C462.635 211.708 462.718 212.122 462.843 212.619C462.262 212.536 461.599 212.454 460.852 212.412C460.106 212.371 459.36 212.288 458.572 212.247C457.784 212.205 456.996 212.164 456.208 212.164C455.42 212.164 454.674 212.164 453.969 212.164C453.886 215.021 453.845 217.879 453.845 220.736V227.86C453.845 229.682 453.845 231.463 453.928 233.243C454.01 235.024 454.093 236.764 454.176 238.462C453.554 238.42 452.849 238.379 452.145 238.379C451.44 238.379 450.735 238.379 450.113 238.462C450.196 236.764 450.279 235.024 450.361 233.243C450.444 231.463 450.444 229.682 450.444 227.86V220.736C450.444 217.879 450.403 215.021 450.32 212.164H450.279Z" fill="#3E3A39"/>
<path d="M484.197 215.353C484.114 213.613 484.031 211.791 483.948 210.01C484.321 210.052 484.653 210.093 484.985 210.134C485.317 210.176 485.648 210.217 485.98 210.217C486.312 210.217 486.644 210.217 486.975 210.134C487.307 210.134 487.639 210.052 488.012 210.01C487.929 211.832 487.846 213.613 487.805 215.353C487.722 217.092 487.68 218.873 487.68 220.695C487.68 224.174 487.68 227.197 487.722 229.723C487.722 232.291 487.763 234.569 487.805 236.598C489.753 236.598 491.661 236.598 493.444 236.557C495.227 236.515 497.176 236.35 499.249 236.06C499.125 236.557 499.042 236.971 499.042 237.302C499.042 237.592 499.125 237.965 499.249 238.42C497.964 238.379 496.72 238.337 495.434 238.337H487.805C486.561 238.337 485.317 238.337 483.948 238.42C484.031 236.722 484.114 234.983 484.197 233.202C484.28 231.421 484.28 229.64 484.28 227.818V220.695C484.28 218.873 484.28 217.092 484.197 215.353Z" fill="#3E3A39"/>
<path d="M521.516 215.311C521.433 213.53 521.351 211.791 521.268 210.01C522.512 210.052 523.756 210.093 524.958 210.134C526.202 210.176 527.446 210.217 528.69 210.217C529.934 210.217 531.178 210.217 532.38 210.134C533.583 210.134 534.827 210.052 536.071 210.01C535.988 210.424 535.947 210.838 535.947 211.253C535.947 211.667 535.988 212.081 536.071 212.495C535.2 212.454 534.371 212.371 533.624 212.329C532.878 212.288 532.132 212.205 531.302 212.164C530.473 212.122 529.602 212.04 528.649 211.998C527.695 211.998 526.534 211.957 525.165 211.957C525.165 212.826 525.124 213.696 525.082 214.483C525.082 215.27 525 216.181 525 217.216C525 218.293 525 219.328 525 220.364C525 221.399 525 222.145 525 222.683C526.202 222.683 527.322 222.683 528.275 222.683C529.229 222.683 530.141 222.6 530.929 222.559C531.717 222.559 532.463 222.476 533.127 222.434C533.79 222.434 534.454 222.352 535.076 222.31C534.993 222.724 534.951 223.138 534.951 223.594C534.951 224.008 534.993 224.422 535.076 224.836C534.371 224.754 533.541 224.671 532.546 224.629C531.593 224.588 530.639 224.547 529.685 224.505C528.731 224.505 527.819 224.505 526.99 224.505C526.161 224.505 525.497 224.505 525 224.505C525 224.754 525 225.002 525 225.333C525 225.623 525 225.996 525 226.41V230.51C525 232.084 525 233.368 525 234.403C525 235.438 525 236.184 525.041 236.722H527.944C528.98 236.722 530.017 236.722 531.054 236.681C532.049 236.639 533.002 236.598 533.915 236.515C534.827 236.432 535.573 236.35 536.237 236.184C536.195 236.391 536.154 236.598 536.154 236.846C536.154 237.095 536.154 237.302 536.154 237.468C536.154 237.923 536.154 238.255 536.278 238.544C535.034 238.503 533.79 238.462 532.588 238.462H525.082C523.838 238.462 522.594 238.462 521.309 238.544C521.392 236.764 521.475 235.024 521.558 233.285C521.641 231.545 521.641 229.723 521.641 227.942V220.819C521.641 218.997 521.641 217.216 521.558 215.435L521.516 215.311Z" fill="#3E3A39"/>
<path d="M0 13.2111C0 5.79796 5.80523 0 13.2276 0H142.892C150.355 0 156.326 5.79796 156.326 13.2111V146.44C156.326 153.894 150.355 159.858 142.892 159.858H13.2276C5.76376 159.858 0 153.894 0 146.44V13.2111ZM137.874 145.322C139.74 145.322 141.606 143.458 141.606 141.594V18.4706C141.606 16.3999 139.74 14.5363 137.874 14.5363H18.2865C16.2132 14.5363 14.3887 16.3999 14.3887 18.4706V141.636C14.3887 143.499 16.2546 145.363 18.2865 145.363H137.874V145.322ZM97.5693 96.4945C98.8547 94.6309 99.2279 92.2289 98.4815 89.9926L89.1517 56.4472C88.5712 54.3765 86.7052 52.8856 84.5075 52.8856H34.3338C30.6018 52.8856 27.7822 49.9038 27.7822 46.3422C27.7822 42.7806 30.5604 39.8402 34.3338 39.8402H81.8952C83.3879 39.8402 84.3002 38.5564 83.9685 37.2312L83.0147 34.2494C82.1025 30.8948 84.5075 27.5403 88.0736 27.5403C92.1787 27.5403 95.9106 30.3564 97.0302 34.2494L97.7766 37.2312C98.3157 38.9291 99.6426 39.8402 101.301 39.8402H122.366C125.932 39.8402 128.918 42.822 128.918 46.3422C128.918 49.8624 125.932 52.8856 122.366 52.8856H105.78C103.914 52.8856 102.628 54.5422 103.167 56.4472L108.765 76.3674C108.931 77.1128 110.051 77.3199 110.424 76.5744C112.87 72.6815 117.307 70.2381 121.993 70.2381C125.351 70.2381 127.425 73.7583 125.517 76.5744L116.022 91.8562C114.902 93.9269 114.529 96.3289 115.068 98.3996L121.785 122.792C122.739 126.147 120.293 129.501 116.768 129.501C112.663 129.501 108.931 126.685 107.811 122.792L105.406 113.847C105.033 112.563 103.167 112.356 102.421 113.474L99.062 119.065C96.4497 122.958 91.9714 125.402 87.3272 125.402C83.9685 125.402 81.8952 121.881 83.5953 119.065L97.6107 96.536L97.5693 96.4945ZM36.1997 122.751C32.841 123.704 29.6896 121.094 29.6896 117.74C29.6896 113.847 32.3019 110.285 36.1997 109.374L76.1314 99.6834C79.4901 98.7309 82.6416 101.34 82.6416 104.902C82.6416 108.794 79.8633 112.356 76.1314 113.267L36.1997 122.751ZM33.5874 72.6401C33.5874 65.0199 39.7243 59.0563 47.1882 59.0563H63.4428C70.9067 59.0563 77.0437 65.0199 77.0437 72.6401V81.5855C77.0437 89.04 70.9067 95.1693 63.4428 95.1693H47.1882C39.7243 95.1693 33.5874 89.04 33.5874 81.5855V72.6401ZM61.3695 83.2421C63.4428 83.2421 64.8941 81.5855 64.8941 79.5148V74.5037C64.8941 72.6401 63.4014 70.9835 61.3695 70.9835H49.2615C47.1882 70.9835 45.7369 72.6401 45.7369 74.5037V79.5148C45.7369 81.5855 47.2297 83.2421 49.2615 83.2421H61.3695ZM122.946 31.4332C123.9 33.8766 121.993 36.4443 119.422 36.4443H117.349C113.99 36.4443 111.212 34.3736 110.092 31.4332C109.138 28.9898 110.838 26.3807 113.451 26.3807H115.897C119.049 26.3807 121.868 28.4514 122.988 31.4332H122.946Z" fill="#3E3A39"/>
<path d="M209.901 42.118C205.796 42.118 203.764 37.4796 206.376 34.4564L227.648 10.0636C232.5 4.63837 240.876 4.47271 245.935 9.69087L266.46 31.309C269.239 34.2908 267.207 39.1362 263.102 39.1362C256.384 39.1362 249.874 36.3615 245.188 31.309L239.798 25.5524C238.305 24.2686 236.066 24.2686 234.78 25.7181L226.943 34.4564C222.631 39.3019 216.287 42.118 209.984 42.118H209.901ZM247.759 90.3653C245.727 90.3653 244.027 92.0218 244.027 94.0925V129.294C244.027 131.158 245.727 132.442 247.593 132.069L258.996 129.833C263.102 128.88 267.207 132.276 267.207 136.542C267.207 141.387 263.641 145.487 258.996 146.605L215.54 155.551C211.435 156.462 207.537 153.314 207.537 149.007C207.537 144.162 210.896 140.062 215.54 139.151L226.155 136.915C228.229 136.376 229.722 134.678 229.722 132.442V94.0511C229.722 91.9804 228.063 90.3239 225.99 90.3239H214.213C210.108 90.3239 206.957 87.135 206.957 83.2421C206.957 79.3492 210.15 75.9946 214.213 75.9946H225.99C228.063 75.9946 229.722 74.3381 229.722 72.4744V65.0199C229.722 63.1563 228.229 61.6654 226.363 61.6654H221.138C217.033 61.6654 213.674 58.3109 213.674 54.2109C213.674 50.1109 217.033 46.7564 221.138 46.7564H252.859C256.965 46.7564 260.116 50.1109 260.116 54.2109C260.116 58.3109 256.923 61.6654 252.859 61.6654H247.427C245.561 61.6654 244.069 63.1563 244.069 65.0199V72.4744C244.069 74.3381 245.769 75.9946 247.801 75.9946H258.084C261.982 75.9946 265.341 79.1835 265.341 83.2421C265.341 87.3006 261.982 90.3239 258.084 90.3239H247.801L247.759 90.3653ZM223.336 118.858C223.709 122.585 220.889 125.94 216.992 125.94C213.094 125.94 209.528 122.958 208.947 118.858L207.662 107.676C207.081 103.742 210.067 100.595 213.799 100.595C217.904 100.595 221.262 103.576 221.802 107.676L223.294 118.858H223.336ZM257.296 120.349C253.73 120.349 250.952 116.994 251.533 113.433L252.445 107.469C253.025 103.369 256.384 100.595 260.282 100.595C264.18 100.595 266.792 103.742 266.253 107.469L265.299 113.433C264.76 117.367 261.194 120.349 257.255 120.349H257.296ZM296.648 134.885C296.648 136.956 298.721 138.985 300.753 138.985H353.746C358.224 138.985 361.417 142.133 361.417 146.44C361.417 150.747 358.224 154.06 353.746 154.06H295.155C287.691 154.06 282.093 148.303 282.093 140.849V21.6181C282.093 13.9979 287.691 8.40704 295.155 8.40704H351.88C356.151 8.40704 359.344 11.5959 359.344 15.8615C359.344 20.1272 356.151 23.3161 351.88 23.3161H300.753C298.679 23.3161 296.648 25.1797 296.648 27.209V43.7746C296.648 45.6382 298.721 47.6675 300.753 47.6675H342.177C349.641 47.6675 355.239 53.424 355.239 60.8785V94.0511C355.239 101.713 349.641 107.262 342.177 107.262H300.753C298.679 107.262 296.648 109.333 296.648 111.196V134.844V134.885ZM340.684 66.6765C340.684 64.6058 338.652 62.5765 336.579 62.5765H300.753C298.679 62.5765 296.648 64.6058 296.648 66.6765V88.4602C296.648 90.3239 298.721 92.3946 300.753 92.3946H336.579C338.652 92.3946 340.684 90.3239 340.684 88.4602V66.6765Z" fill="#3E3A39"/>
<path d="M559.21 109.374C559.044 110.327 559.956 111.238 560.91 111.238C564.807 111.238 568 114.385 568 118.32V118.692C568 122.792 564.642 125.94 560.744 125.94H416.525C412.42 125.94 409.062 122.751 409.062 118.692C409.062 114.634 412.42 111.238 416.525 111.238H418.599C419.884 111.238 421.004 110.12 421.004 108.629L417.645 28.3272C417.479 20.1272 422.123 12.507 429.38 9.15249L439.456 4.51412C442.815 3.02322 446.92 5.46664 446.92 9.35956C446.92 14.205 443.934 18.6777 439.456 20.9141L435.351 22.7777C433.485 23.7302 432.158 25.5938 432.365 27.6231L432.739 38.2251C432.739 40.0887 434.231 41.5796 436.097 41.5796H441.115C445.22 41.5796 448.413 44.9342 448.413 48.8271C448.413 52.72 445.22 56.0745 441.115 56.0745H436.636C434.77 56.0745 433.443 57.5654 433.443 59.2634L433.983 74.5451C434.19 76.4088 435.475 77.6926 437.341 77.6926H441.654C445.759 77.6926 449.118 81.0471 449.118 84.94C449.118 88.833 445.759 92.2289 441.654 92.2289H437.922C436.429 92.2289 435.102 93.7198 435.102 95.2107L435.475 107.511C435.475 109.581 437.134 111.238 439.207 111.238H454.881C456.955 111.238 458.613 109.54 458.613 107.511V17.6838C458.613 10.2293 464.584 4.09998 472.048 4.09998H504.889C512.353 4.09998 518.324 10.2293 518.324 17.6838V107.511C518.324 109.581 520.024 111.238 522.056 111.238H540.716C542.789 111.238 544.448 109.54 544.448 107.511L544.821 97.0743C544.987 95.2107 543.328 93.5542 541.462 93.5542H535.325C531.22 93.5542 527.861 90.1996 527.861 86.3067C527.861 82.4138 531.22 78.8522 535.325 78.8522H542.043C544.116 78.8522 545.775 77.3613 545.775 75.332L546.148 59.8846C546.148 57.8553 544.655 56.1573 542.623 56.1573H535.367C531.262 56.1573 527.903 53.0099 527.903 48.9099C527.903 44.8099 531.262 41.6625 535.367 41.6625H543.204C545.277 41.6625 546.936 40.0059 547.102 38.1423L547.475 27.3332C547.475 25.4696 545.775 23.7716 543.95 23.7716H535.367C531.262 23.7716 527.903 20.4171 527.903 16.3171C527.903 12.2171 531.262 9.06966 535.367 9.06966H549.009C556.473 9.06966 562.444 15.0333 562.071 22.4878L559.251 109.499L559.21 109.374ZM433.07 156.338C428.965 156.338 426.726 151.327 429.504 148.138L431.163 146.647C435.807 141.429 442.732 138.447 449.615 138.447C453.72 138.447 455.959 143.665 453.181 146.481L451.481 148.345C446.837 153.356 440.119 156.338 433.029 156.338H433.07ZM475.034 16.7727C472.96 16.7727 471.302 18.4706 471.302 20.2928V107.511C471.302 109.581 472.96 111.238 475.034 111.238H501.904C503.977 111.238 505.636 109.54 505.636 107.511V20.2928C505.636 18.4292 503.977 16.7727 501.904 16.7727H475.034ZM474.287 63.1563C474.287 55.7018 480.258 49.5725 487.722 49.5725H489.215C496.679 49.5725 502.65 55.7018 502.65 63.1563V83.4491C502.65 90.9037 496.679 96.8673 489.215 96.8673H487.722C480.258 96.8673 474.287 90.9037 474.287 83.4491V63.1563ZM495.933 27.9544C499.457 27.9544 502.484 30.9362 502.484 34.4564C502.484 38.1837 499.499 41.1655 495.933 41.1655H481.005C477.439 41.1655 474.453 38.1837 474.453 34.4564C474.453 30.7292 477.439 27.9544 481.005 27.9544H495.933ZM488.469 86.4724C490.542 86.4724 492.201 84.7744 492.201 82.7451V64.1088C492.201 62.0381 490.542 60.3816 488.469 60.3816C486.395 60.3816 484.737 62.0381 484.737 64.1088V82.7451C484.737 84.7744 486.395 86.4724 488.469 86.4724ZM523.922 146.481C520.729 143.499 522.968 138.447 527.073 138.447C534.537 138.447 541.628 141.263 547.019 146.481L548.885 148.345C551.87 151.12 549.838 156.338 545.526 156.338C538.269 156.338 530.971 153.356 525.747 148.345L523.881 146.481H523.922Z" fill="#3E3A39"/>
</svg>
