<svg width="436" height="415" viewBox="0 0 436 415" fill="#FFF" xmlns="http://www.w3.org/2000/svg">
<path fill="#DFB624" d="M7.2,371.9h4.7v-28.8c-5-0.7-9.2,1.6-10.2,7.1H1.2v-7.7h25.6v7.7h-0.5c-1.1-5.5-5.2-7.8-10.2-7.1v28.8h4.7v0.6
	H7.2V371.9z M29.7,371.9h4.7v-28.8h-4.7v-0.6h13.6v0.6h-4.7v13.8h14v-13.8h-4.7v-0.6h13.6v0.6h-4.7v28.8h4.7v0.6H47.9v-0.6h4.7
	v-14.4h-14v14.4h4.7v0.6H29.7V371.9z M64,371.9h4.7v-28.8H64v-0.6H88v7.3h-0.5c-1.4-7.6-8.8-6.9-14.7-6.7v13
	c5.1,0.5,8.1-0.7,8.9-6.2h0.5V363h-0.5c-0.8-5.6-3.5-6.9-8.9-6.3v15.2c7.5,0.3,15.2,0.8,16.3-8.6h0.5v9.2H64V371.9z M106.9,357.4
	c0.7-20.3,28.8-20.5,29.3,0C135.6,377.8,107.3,378,106.9,357.4z M111.7,357.4c-1.9,20.3,21.6,20.3,19.6,0
	C133.3,337.3,109.8,337.3,111.7,357.4L111.7,357.4z M139.9,371.9h4.7v-28.8h-4.7v-0.6h9l14.2,22.9h0.1v-22.4h-4.7v-0.6h10v0.6h-4.7
	v30H163l-17.7-28.2h-0.1v27.1h4.7v0.6h-10V371.9L139.9,371.9z M170.7,371.9h4.7v-28.8h-4.7v-0.6h24.1v7.3h-0.5
	c-1.4-7.6-8.8-6.9-14.7-6.7v13c5.1,0.5,8.1-0.7,8.9-6.2h0.5V363h-0.5c-0.8-5.6-3.5-6.9-8.9-6.3v15.2c7.5,0.3,15.2,0.8,16.3-8.6h0.5
	v9.2h-25.7V371.9z M208.4,371.9h3.7l11.4-30.1h1l11.4,30.1h3.8v0.6h-13v-0.6h4.7l-4.4-11.7h-9.8l-4.4,11.7h4.7v0.6h-9.1V371.9z
	 M222.1,347.3l-4.6,12.2h9.3L222.1,347.3z M240.5,371.9h4.7v-28.8h-4.7v-0.6h9l14.2,22.9h0.1v-22.4h-4.7v-0.6h10v0.6h-4.7v30h-0.8
	l-17.7-28.2h-0.1v27.1h4.7v0.6h-10V371.9L240.5,371.9z M271.3,371.9h4.7v-28.8h-4.7v-0.6c12.1-0.3,30-2.1,29.8,15
	c-0.1,17.4-17.4,15.3-29.8,15L271.3,371.9L271.3,371.9z M280.2,371.9c9.7,2.1,16.7-4.3,16.1-14.2c1-9.9-6.3-16.4-16.1-14.6
	C280.2,343.1,280.2,371.8,280.2,371.9z M318.9,357.4c0.7-20.3,28.8-20.5,29.3,0C347.6,377.8,319.3,378,318.9,357.4z M323.7,357.4
	c-1.9,20.3,21.5,20.3,19.6,0C345.2,337.3,321.8,337.3,323.7,357.4L323.7,357.4z M351.9,371.9h4.7v-28.8h-4.7v-0.6h9l14.2,22.9h0.1
	v-22.4h-4.7v-0.6h10v0.6h-4.7v30H375l-17.7-28.2h-0.1v27.1h4.7v0.6h-10V371.9L351.9,371.9z M382.7,371.9h4.7v-28.8h-4.7v-0.6h13.5
	v0.6h-4.7v28.8c7.5,0.4,14.8,0.6,16.4-8.6h0.5v9.2h-25.7C382.7,372.4,382.7,371.9,382.7,371.9z M414.6,371.9h4.7v-12.1l-9.5-16.7
	h-3.8v-0.6h12.9v0.6h-4.2l8.4,14.8l8-14.8h-4.2v-0.6h9v0.6h-4.1l-8.2,15.4v13.4h4.7v0.6h-13.5V371.9L414.6,371.9z"/>
<path d="M4.3,7h61.4v5.6H4.3V7z M8.1,53.5h54.4v49H51.3v-6.1h-32v6.6H8.1V53.5z M13.2,20.2h43.9V45H13.2V20.2z
	 M29.9,71.4V59H19.3v12.4H29.9z M29.9,90.9V76.8H19.3v14.1H29.9z M46.4,39.4V25.7H24v13.7C24.1,39.4,46.4,39.4,46.4,39.4z
	 M51.3,71.4V59H40.6v12.4H51.3z M51.3,90.9V76.8H40.6v14.1H51.3z M67.8,93.7c16.4,2.2,17.9,1.4,17.9-5.7V1.3h10.8v89.4
	c0,14.1-9.7,16.2-29.8,7.5L67.8,93.7L67.8,93.7z M68.9,12.7h10V77h-10V12.7z M157,36.7h14.8v5.6h-19.3c-3.4,3.9-6.8,7.3-10.5,10.4
	h23.8v50h-10.7V95h-17.6v8.2h-10.6V63.4c-4.4,2.5-8.7,4.8-13,6.8l-2.1-4.2c11.1-6.4,21-14.2,29.1-23.7h-25.9v-5.6h19V22.5h-14.4
	v-5.6h14.4V1.3h11.1v15.6H157c1.3-3.1,2.5-6.2,3.6-9.5l9.9,4.2C166.8,21.4,162.2,29.7,157,36.7L157,36.7z M155.1,58.4h-17.6v12.2
	h17.6V58.4z M155.1,75.9h-17.6v13.6h17.6V75.9z M145.4,36.7c3.3-4.4,6.2-9.2,8.8-14.2H145v14.2H145.4z M186.4,82.7l1.3-4.5
	c22.5,7.4,9.8-24.7,2.3-35.9c2.8-8.4,6-19.6,7.2-29.6h-12v90.6h-10.7V4.5l10.3,2.7h11.1l3.1-2.1l10.6,4.8
	c-4.6,14.6-9.2,23.8-14.8,32.3c8.1,8.8,14.1,16.8,15.6,27.1C213.7,90.8,196.6,91.3,186.4,82.7L186.4,82.7z M267,62.7h-24.7v8h-11.7
	V21.4H267V0.7h12.1v20.7h36.7V70h-11.7v-7.4h-25v41.3H267L267,62.7L267,62.7z M267,56.7V27.5h-24.7v29.2H267z M304.2,56.7V27.5h-25
	v29.2H304.2z M333.9,76.4c7.8-9.6,12.8-19.3,16.7-37l4.7,0.7c0.1,17.9-3.6,32.9-9.2,43.9L333.9,76.4L333.9,76.4z M363.6,83.9V24.5
	h12.1v56.2c0,5.5,1.1,6.8,7,7.3c16.8-0.6,23.9,6.8,23-22.5h4.9c5.5,24.3,5.2,32.4-10.6,33.9c-6.8,0.7-14,0.4-20.1,0
	C366.7,98.3,363.6,97.4,363.6,83.9L363.6,83.9z M368.8,4.4l2.4-4.4c12.9,4.5,24.8,10.8,34.3,18.6l-9.3,10.7
	C387.1,19,379.4,12.4,368.8,4.4z M407.7,38.7l4.2-2.4c9.7,10.8,18.1,24.4,22.7,35.7l-12.8,5.5C417.9,63.9,413.6,51.4,407.7,38.7z
	 M103.3,222l-8.2,13.8c-12.9-6.2-33.1-22.9-39.9-50.2c-6.8,28.1-25.7,43.6-50.4,50.2l-2.1-4.4c20.7-9.2,36.1-23.1,41-50.4h-37v-6.7
	h37.8c1.1-8.8,0.8-17.3,0.9-26.8h-33V141h80.1v6.4H58.4c0.1,8.7-0.2,17.8-1.1,26.8h41.3v6.7H59C67.3,202.7,85.2,215.1,103.3,222z
	 M211.4,223.5v6.7h-94.4v-6.7h41.8v-27.2h-31.3v-6.2h31.3v-23.4h-21.5c-4.9,9.2-10.9,17.2-17.7,23.2l-3.4-3
	c8.7-12.7,14.9-29.1,18.1-49.1l12.6,3.2c-1.5,6.7-3.9,13.5-6.7,19.8h18.6v-27.1h12v27.1h33.3v6h-33.3v23.4h30.9v6.2h-30.9v27.2
	L211.4,223.5L211.4,223.5z M320.7,191c-2,25.1-0.3,61.9-35.9,36.2l1.8-4.2c14.2,4.2,17.5,4.1,19.1-2.3c1.2-4.6,2-11.7,3.1-24h-56.9
	c-7.3,10.1-16.1,18.8-26.5,25.1l-2.8-4c17.1-14.3,28.7-34.9,35.8-57.5H229v-5.6h17.5c-3.5-7.2-7-12.9-11-19l3.4-3.2
	c6.2,3.8,12.9,9.6,17.3,15l-9.5,7.2h13.4c2.1-7.5,3.6-15.1,4.8-22.8l12.5,2.3c-1.4,6.8-3.1,13.8-5.3,20.5H299
	c-1.1,6.2-2.3,12.2-3.6,18.3h14.3c-1,6.2-2,12-3.2,18L320.7,191L320.7,191z M248.1,204.5l4.5,1.2c-0.8,9.6-4.1,21-7.9,27.9
	l-10.7-6.9C239.9,220.5,244.5,213.9,248.1,204.5z M255.7,191h39.9c0.9-4.2,1.4-8.3,2-12.4h-35C260.5,182.9,258.2,187,255.7,191
	L255.7,191z M264.2,204.5c3,6.8,5.5,17.3,6.5,24.2l-11.5,1.1c0.4-6.4,0.8-16.9,0.4-24.6L264.2,204.5z M270.3,160.3
	c-1.4,4.3-3.2,8.5-5,12.7h19.1c0.8-4.3,1.4-8.4,2.1-12.7H270.3z M289,221l-10.3,3.5c-1.1-6.7-2.8-13.9-4.9-21.1l4.3-1.9
	C282.3,206.9,286.3,214.4,289,221z M295.5,218.8c-2.2-6.9-4.7-13.4-7.5-18.5l3.8-2.7c4.6,3.9,10.1,10.5,13.2,16.3L295.5,218.8z
	 M335.3,222.8h41.9v-37h-31.4v-6.3h31.4V147h-36.7v-6.7h85.4v6.7h-36.3v32.5h32v6.3h-32v37H432v6.7h-96.8V222.8z M16.9,283.4H0v-3.1
	h16.9V265h4.9v15.2h16.9v3.1H21.8v21.9h-4.9V283.4z M82.6,291v2.5H67.7v12.3H63v-12.3H43.5V291h7.3v-11.5H63v-6.5h-8.9
	c-2.3,3.7-5.1,7.1-8,9.5l-1.3-1.3c3.5-4.5,6.1-10.9,7.5-16.9l5.2,1.5c-0.6,1.6-1.3,3.2-2.1,4.8h26.3v2.4h-14v6.6h11.6v2.2H67.7v9.3
	L82.6,291L82.6,291z M63,281.7h-7.7v9.3H63V281.7z M87.6,267.3h24.3v2.2H87.6V267.3z M89.1,285.8h21.5v19.4h-4.4v-2.4H93.5v2.6h-4.5
	C89.1,305.4,89.1,285.8,89.1,285.8z M91.1,272.6h17.4v9.8H91.1V272.6z M97.7,292.9V288h-4.2v4.9H97.7z M97.7,300.6V295h-4.2v5.6
	H97.7z M104.2,280.2v-5.4h-8.9v5.4H104.2z M106.2,292.9V288h-4.2v4.9H106.2z M106.2,300.6V295h-4.2v5.6H106.2z M112.7,301.7
	c6.5,0.9,7.1,0.6,7.1-2.3v-34.3h4.3v35.4c0,5.6-3.8,6.4-11.8,3C112.3,303.5,112.7,301.7,112.7,301.7z M113.2,269.6h4v25.5h-4V269.6z
	 M148,279.1h5.9v2.2h-7.7c-1.3,1.5-2.7,2.9-4.1,4.1h9.4v19.8h-4.2v-3.1h-7v3.2h-4.2v-15.7c-1.8,1-3.5,1.9-5.2,2.7l-0.8-1.7
	c4.4-2.5,8.3-5.6,11.5-9.4h-10.3v-2.2h7.5v-5.6h-5.7v-2.2h5.7v-6.2h4.4v6.2h4.7c0.5-1.2,1-2.5,1.4-3.8l3.9,1.7
	C151.9,273,150.1,276.3,148,279.1L148,279.1z M147.3,287.7h-7v4.9h7V287.7z M147.3,294.6h-7v5.4h7V294.6z M143.4,279.1
	c1.3-1.8,2.4-3.6,3.5-5.6h-3.7v5.6C143.3,279.1,143.4,279.1,143.4,279.1z M159.7,297.3l0.5-1.8c9,2.6,3.9-9.5,0.9-14.2
	c1.1-3.3,2.4-7.8,2.8-11.7h-4.8v35.9H155v-39.1l4.1,1h4.4l1.2-0.8l4.2,1.9c-1.8,5.8-3.6,9.4-5.9,12.8
	C171.1,287.5,172.3,305.6,159.7,297.3L159.7,297.3z M174.4,294.9c3.1-3.8,5.1-7.6,6.6-14.6l1.9,0.3c0,7.1-1.4,13-3.6,17.4
	L174.4,294.9L174.4,294.9z M186.2,297.8v-23.6h4.8v22.2c0,2.2,0.4,2.7,2.8,2.9c6.5-0.3,9.6,2.8,9.1-8.9h1.9
	c2.2,9.6,2.1,12.8-4.2,13.4C194.9,303.7,185.2,306.2,186.2,297.8z M188.2,266.3l1-1.8c5.1,1.8,9.8,4.3,13.6,7.4l-3.7,4.2
	C195.5,272.1,192.4,269.5,188.2,266.3z M203.6,279.9l1.7-1c3.8,4.3,7.2,9.6,9,14.1l-5.1,2.2C207.7,289.9,206,284.9,203.6,279.9
	L203.6,279.9z M226.5,290.6c-1.5,4.9-4.8,9.5-7.4,11.9l-1.2-1.1c1.6-2.5,3.6-7,4.7-11.9L226.5,290.6z M240.2,273.5h-21.7v-2.2h10.8
	c-1.6-1.8-3.8-4.1-5.1-5.3l0.9-1.6c2.4,0.9,6.5,3.1,8.1,4.5l-2.1,2.5h9.1L240.2,273.5L240.2,273.5z M231.7,287.2
	c-1,7.2,4.4,23.3-10.1,16.6l0.4-1.8c5,0.7,5.5,0.2,5.5-2v-12.9h-6.1v-10.6h16v10.6L231.7,287.2L231.7,287.2z M225.7,285h7.6v-6.1
	h-7.6V285z M252.4,304.7c-5.1,0-6-0.8-6-4.5v-15.1c-1.1,10.4-3.9,16-10.8,20.7l-1.2-1.4c2-1.9,3.5-3.8,4.6-6.1l-3.5,1.6
	c-0.7-2.8-2-7.2-2.9-10.1l1.5-0.8c1.7,2.1,3.9,6.1,5.1,8.9c2.1-4.4,2.9-9.8,3.2-18.2h-4v-2.2h4c0.1-3.7,0.1-7.8,0.1-12.7h4.4
	c0,4.8,0,9-0.1,12.7h10v2.2h-10.1c0,1-0.1,2-0.2,2.9h3.8v15.5c0,2,0.3,2.5,2.2,2.5c2.4,0,2.2-0.7,2.4-8.2h1.8
	C258.8,303.1,257.8,304.7,252.4,304.7z M252,276.5c-0.9-2.8-2.2-6.1-3.4-8.6l1.4-1c2.1,1.8,4.5,5,5.8,7.6L252,276.5z M263.1,279
	l-1.3-1.3c3.3-3.9,5-7.5,6.5-12.9l4.7,1.2c-0.4,1-0.9,2.1-1.5,3.2h10.2v2.2h-7.2c1.2,1.3,2.5,3.2,3.3,4.8l-3.8,1.4
	c-0.5-2-1.1-4.3-1.7-6.2h-2.1C268.3,274.4,265.8,277.2,263.1,279z M300.7,271.4h-9.1c1.1,1.2,2.4,2.8,3.3,4.4l-3.9,1.4
	c-0.6-2-1.1-4-1.8-5.8h-2.9c-1.2,1.5-2.5,3-4,4.1h1.4v3.7h12.4v2.2h-12.4v3.4h16.9v2.3h-9.2v3.7h8v2.3h-8c0.3,8.4,0.9,16.8-12.7,9.6
	l0.5-1.8c10.8,2.9,6.7-2.3,7.5-7.8h-23.2v-2.3h23.2v-3.7h-24.5v-2.3h16.8v-3.4h-12.3v-2.2h12.3v-3.7h1.8l-0.6-0.7
	c2.1-2.6,3.6-6.2,4.7-10.2l4.6,1.4c-0.5,1-1.1,2.1-1.8,3.2h12.8L300.7,271.4L300.7,271.4z M279,297.8l-2.8,3.8
	c-2.2-2.3-5.5-5.2-7.3-6.6l0.8-1.5C272.1,294.1,275.7,295.7,279,297.8z M345.2,299l-1.3,4.9c-10-0.2-24.5,3.7-30-6.2
	c-1.5,2.7-3.5,6.1-5.9,8.3l-2.9-3.3c2.3-1.6,5.1-4,6.3-5.8v-9.6H306v-2.2h9.9v11.4C321.7,303.5,337.2,299.2,345.2,299z M312.6,282
	c-1.5-2.1-4.2-5.1-6.1-7.1l1-1.5c2.3,1,5.8,3,8.2,5L312.6,282L312.6,282z M307.2,266.4l1-1.5c2.4,1,6,2.9,8.4,4.9l-3,3.5
	C311.8,271,309.3,268.4,307.2,266.4z M344.1,273.2h-26.4v-2.3h12.9c-2-1.6-4.5-3.6-6.3-5l0.7-1.7c2.5,0.6,6.5,2,9.4,3.6l-2,3h11.7
	V273.2z M340.7,278.3h-19.6v-2.1h19.6V278.3z M321.1,281.5h19.6v2.1h-19.6V281.5z M321.1,286.7h19.7v9.4h-19.7V286.7z M325.5,293.9
	h10.9v-5h-10.9V293.9z M350.5,281.4h36.7v3.4h-36.7V281.4z M400.9,281.8c0,10-1.7,18.8-6.5,24l-1.4-1.2c4.3-6.1,3.2-22.8,3.3-33.5
	h18.6c-2.5-1.8-5.1-3.5-7.1-4.9l0.7-1.7c3,0.7,7.3,2,10.2,3.6l-1.9,3h14.4v2.3h-30.3L400.9,281.8L400.9,281.8z M431.8,301.3v2.3
	h-33.1v-2.3H413v-5.7h-11.1v-2.2H413v-4.3l-3.1,1.7c-0.7-2.1-1.7-4.5-2.6-6.5c-1.4,3.2-3.1,6-5.1,8.1l-1.4-1.1c2.3-4,3.6-9.8,4-15.4
	l4.6,1c-0.3,1.7-0.7,3.4-1.2,4.9c1.8,1.7,3.5,3.7,4.8,5.7v-12.9h4.4v18.8h11.7v2.2h-11.7v5.7H431.8z M425.8,276.8
	c-0.3,1.7-0.7,3.3-1.1,4.8c2.4,2.1,4.8,4.8,6.2,7.1l-3.7,2.2c-0.8-2.2-2-4.8-3.3-7c-1.1,3-2.7,5.7-4.8,8l-1.5-1.1
	c2.3-4.3,3.3-9.4,3.7-15L425.8,276.8L425.8,276.8z M13.7,391c-0.2-2.1,0.6-2.6-0.8-2.8c-0.1,0-0.1-0.2,0.1-0.1c1.3,0,1.1,0,2.5,0
	c6.7-1.1,6.8,9.1-0.5,7.7c-0.9-0.2-1.3,0.1-2-0.1C14.4,395.4,13.5,392.4,13.7,391z M14.6,392.1c0,1.6-0.1,2.1,0.1,3
	c1.7,1.2,5.4-0.2,5-3c-0.1-3-2.6-4-5-3.6C14.4,389.1,14.7,391.1,14.6,392.1L14.6,392.1z M26.4,389.1c4.7-0.3,4.6,7-0.1,6.8
	C21.7,395.8,21.7,389.3,26.4,389.1z M26.6,395.5c3.1,0.4,3.3-6.4-0.3-6.1C22.7,389.2,23.2,395.9,26.6,395.5L26.6,395.5z M33.3,394.6
	c0,1.1,0.3,0.9,0.9,1.1c-1,0.2-1,0-2,0.1c-0.4-0.1,0.1-0.2,0.3-0.2c0.6-0.3,0.1-5.4,0.3-6.1c-0.2-1.6,4.7,4.5,5.4,5
	c-0.3-0.7,0.6-5.6-0.9-5.2c-0.1,0-0.1-0.2,0.1-0.1c0.9,0.1,1.1-0.1,1.9,0.1c-0.4,0.2-0.7,0-0.6,0.9c0,0.3,0.1,5.6-0.1,5.7
	c-0.9-0.5-4.5-4.5-5.4-5.3L33.3,394.6L33.3,394.6z M41.5,387.6c-0.1-0.1-0.1-0.2,0-0.2c1.7-0.1,0.5,2.3-0.2,2.5
	C41.5,389.4,41.9,388.2,41.5,387.6L41.5,387.6z M47.6,393.3c0.1,1.2-0.4,2.4,0.8,2.4c0.1,0,0.1,0.2-0.1,0.1c-1.1,0-1.1,0-2,0
	c-0.5-0.1,0.6-0.1,0.5-0.6c0.1-0.9,0-4.4,0-5.5c-0.6,0.1-2.3-0.2-2.3,0.6c0,0.1-0.1,0.1-0.2,0c0.1-0.2,0.1-1,0.3-1.1
	c0.7,0.3,3.7,0.1,4.5,0.1c0.4,0.1,0.8-0.2,0.9,0c0,0.3,0.1,1-0.1,1.1c0-0.9-1.5-0.7-2.3-0.7L47.6,393.3L47.6,393.3z M57.3,395
	c-2.9-2.8,0.2-6.8,4-5.8c1.5,0.1,0.9,0.5,1,1.6c-0.8-2.2-5.4-1.9-5.2,1.5c-0.4,2.5,4.2,4.7,5.2,1.9C62.9,396.8,58.3,396,57.3,395
	L57.3,395z M68,389.1c4.7-0.3,4.6,7-0.1,6.8C63.2,395.8,63.2,389.3,68,389.1z M68.2,395.5c3.1,0.4,3.3-6.4-0.3-6.1
	C64.2,389.2,64.8,395.9,68.2,395.5L68.2,395.5z M81.3,394.7c-0.1,0.7,0.6,1,1.1,1c-0.2,0.2-1.3,0-1.7,0c-0.3,0-0.3-0.1-0.2-0.2
	c0.1,0,0.1-0.1,0-0.3l-0.4-4.4h0c-3,5.9-1.8,6.5-5,0.1h0c0.2,0.8-1.1,4.8,0.3,4.7c-0.7,0.2-1.1,0-1.8,0.1c-0.3-0.1,0-0.2,0.2-0.2
	c0.3-0.1,0.3-0.4,0.3-0.7l0.6-5.7c0.2-1,2.9,5.5,3,5.4C80.8,389.3,80.5,386,81.3,394.7L81.3,394.7z M85,391.7
	c-0.2-1.7,0.5-2.2-0.7-2.4c-0.1,0-0.1-0.2,0.1-0.1c1.1,0,3.5-0.2,4,0.5c1.3,1.3-0.3,3.4-2.1,3.1c-0.2-0.1-0.1-0.2,0.1-0.2
	c1,0,1.7-0.6,1.7-1.4c0.3-1-1.6-2.4-2.3-1.5c0,1.1,0,4.5,0,5.4c-0.2,0.6,1.2,0.4,0.7,0.6c-1.1-0.1-1.2,0.1-2.2-0.1
	C85.6,395.4,84.8,392.9,85,391.7L85,391.7z M93,389.4c0.6-1.6,2.1,6.6,3.7,6.2c0.3,0.3-0.9,0.1-1.5,0.1c-0.2,0-0.4,0-0.3-0.1
	c0.3,0-0.7-2.2-0.8-2.3c-0.1,0.1-2.1-0.1-2.2,0.1c0,0.5-1.2,2.2-0.3,2.2c0.7,0.2-2.4,0.2-1.8,0C91.2,395.9,92.4,390.1,93,389.4z
	 M94,393c-1-3-0.7-3.3-1.8-0.1C92.1,393.1,94,393,94,393z M99,391.7c-0.1-1.9,0.5-2.1-0.8-2.4c2.5-0.5,6.7,0.3,3.5,3.5
	c1.1,1.3,1.9,2.8,3.3,2.9c-1.8,0.7-3-1.4-3.9-2.7c0-0.1-1.2,0-1.3-0.1c-0.1,0-0.1,0.2-0.1,0.3c0.1,1.2-0.4,2.4,0.8,2.4
	c0.1,0,0.1,0.2-0.1,0.1c-1.1-0.1-1.2,0.1-2.1-0.1C99.6,395.4,98.8,392.9,99,391.7L99,391.7z M99.8,392.5c2.3,1.5,3.3-2.9,0.7-3
	c-0.3,0-0.6-0.1-0.7,0.2C99.8,389.7,99.8,392.4,99.8,392.5z M106.9,391.7c-0.2-1.7,0.5-2.2-0.7-2.4c-0.1,0-0.1-0.2,0.1-0.1
	c1.2,0,2.5,0.2,3.7-0.1c0.1,0.1-0.1,0.8-0.1,1.1c-0.2,0.3-0.1-0.2-0.2-0.3c-0.1-0.1-0.2-0.2-0.6-0.3c-0.2,0-1.3-0.2-1.4,0.1
	c0,0.1-0.1,2.4,0,2.4c0.5,0.1,1.8-0.1,2.1-0.2c-0.1,0.1,0,1.4-0.2,1.1c0.2-0.8-1.4-0.5-1.9-0.6c-0.1,0,0,0.7-0.1,0.8
	c0.1,1-0.6,2.3,1.1,2.2c0.5,0,1.3,0,1.3-0.7c0-0.2,0.2-0.2,0.2,0c-0.1,0.3,0.1,1.2-0.6,1.1c-1.3,0-2.1-0.1-3.2,0
	c-0.1,0-0.2-0.1-0.1-0.1C107.4,395.4,106.7,392.8,106.9,391.7L106.9,391.7z M118.9,393.5c-0.1-1.2-1.5-3.1-2.4-4
	c-0.2-0.1-0.7-0.1-0.4-0.3c0.7,0.1,1.1-0.1,1.8,0.1c-0.9,0.2,1.5,2.9,1.5,3.3c0.2-0.8,2.2-2.7,1.4-3.3c0.6-0.1,1.2-0.1,1.7,0
	c-0.3,0.2-0.7,0.2-1,0.6c-0.5,0.8-2,2.6-1.9,3.6c0.1,0.7-0.4,2.3,0.8,2.1c0.1,0,0.1,0.2-0.1,0.1c-1.1,0-1,0-2,0
	c-0.2,0-0.2-0.1-0.1-0.1C119.3,395.6,118.8,394.1,118.9,393.5L118.9,393.5z M127.2,389.1c4.7-0.3,4.6,7-0.1,6.8
	C122.5,395.8,122.5,389.3,127.2,389.1z M127.4,395.5c3.1,0.4,3.3-6.4-0.3-6.1C123.5,389.2,124,395.9,127.4,395.5L127.4,395.5z
	 M133.5,391.7c-0.2-1.7,0.5-2.2-0.7-2.4c-0.1,0-0.1-0.2,0.1-0.1c1,0,1.1,0,1.9,0c0.2,0,0.2,0.1,0.1,0.1c-1,0.3-0.4,0.7-0.6,2.4
	c-0.4,2.5,1.1,5.1,3.4,3.2c0.6-0.7,0.5-2.2,0.5-3.2c-0.2-1.7,0.5-2.2-0.7-2.4c-0.1,0-0.1-0.2,0.1-0.1c0.9,0.1,1.1-0.1,1.9,0.1
	c-1.1,0.2-0.4,2-0.6,3.4C139,397.6,132.4,396.7,133.5,391.7L133.5,391.7z M142.5,391.7c-0.1-1.9,0.5-2.1-0.8-2.4
	c2.5-0.5,6.7,0.3,3.5,3.5c1.1,1.2,1.8,2.8,3.2,2.9c0.2,0,0.1,0.2-0.1,0.1c-1.9,0.5-2.7-1.7-3.8-2.8c-0.2,0.1-1.4-0.3-1.2,0.3
	c0.1,1.2-0.4,2.4,0.8,2.4c0.1,0,0.1,0.2-0.1,0.1c-1.1-0.1-1.2,0.1-2.1-0.1C143,395.4,142.3,392.9,142.5,391.7L142.5,391.7z
	 M143.2,392.5c2.3,1.5,3.3-2.9,0.7-3c-0.3,0-0.6-0.1-0.7,0.2C143.3,389.7,143.2,392.4,143.2,392.5z M155.5,393.3c0,1.3,0,1.8,0.2,2
	c0.5,0.3,2.5,0.4,2.6-0.7c0.1,0.3,0.2,1.4-0.6,1.2c-1.4-0.1-2.4,0-3.6-0.1c1.2-0.3,0.4-2.8,0.6-4c-0.2-1.7,0.5-2.2-0.7-2.4
	c-0.1,0-0.1-0.2,0.1-0.1c1,0,1.1,0,2,0c0.4,0.1-0.1,0.2-0.2,0.1C155.1,389.6,155.6,392.1,155.5,393.3L155.5,393.3z M162,393.3
	c0.1,1.2-0.4,2.4,0.8,2.4c0.1,0,0.1,0.2-0.1,0.1c-1.1,0-1,0-2,0c-0.5-0.2,0.6-0.1,0.4-0.6c0.1-0.9,0.1-4.5,0-5.3
	c0-0.6-0.4-0.4-0.6-0.6c0.8-0.2,1.1,0,2-0.1c0.3,0,0,0.2-0.1,0.2C161.6,389.6,162.1,392.1,162,393.3z M166,391.7
	c-0.2-1.7,0.5-2.2-0.7-2.4c-0.1,0-0.1-0.2,0.1-0.1c1.2,0,2.7,0.2,3.9-0.1c0.1,0.1-0.1,0.8,0,1.1c-0.2,0.3-0.1-0.2-0.2-0.3
	c-0.2-0.4-1.7-0.2-2.1-0.3c-0.1,0-0.1,2.5,0,2.5c0.6,0.1,1.8,0,2.2-0.2c-0.1,0.2-0.1,1.9-0.3,0.8c-0.2-0.4-1.7-0.4-2-0.2
	c0.2,1.1-0.6,3.1,0.8,3.1c0.2,0.3-1.4,0-1.2,0.1c0,0-0.9,0.1-1,0C166.5,395.4,165.8,392.9,166,391.7L166,391.7z M172.4,391.7
	c-0.2-1.7,0.5-2.2-0.7-2.4c-0.1,0-0.1-0.2,0.1-0.1c1.2,0,2.5,0.2,3.7-0.1c0.1,0.1-0.1,0.8-0.1,1.1c-0.2,0.3-0.1-0.2-0.2-0.3
	c-0.1-0.1-0.2-0.2-0.6-0.3c-0.2,0-1.3-0.2-1.4,0.1c0,0.1-0.1,2.4,0,2.4c0.5,0.1,1.8-0.1,2.1-0.2c-0.1,0.1,0,1.4-0.2,1.1
	c0.2-0.8-1.4-0.5-1.9-0.6c-0.1,0,0,0.7-0.1,0.8c0.1,1-0.6,2.3,1.1,2.2c0.5,0,1.3,0,1.3-0.7c0-0.2,0.2-0.2,0.2,0
	c-0.1,0.3,0.1,1.2-0.6,1.1c-1.3,0-2.1-0.1-3.2,0c-0.1,0-0.2-0.1-0.1-0.1C173,395.4,172.2,392.8,172.4,391.7L172.4,391.7z M189,394.5
	L189,394.5c0.3-0.9,1.3-3.6,1.5-4.9c0.1-0.3-0.4-0.2-0.6-0.3c0.8-0.1,1.2-0.1,1.9,0c-1.8,0.8-1.9,5.3-3,6.6c-0.3,0.1-1.9-5-2.1-5.2
	c-0.5,1-1.5,4.4-2.2,5.2c-0.4-0.1-1.7-5.4-1.9-5.8c-0.1-0.8-0.6-0.6-1-0.8c1-0.1,1.3-0.1,2.3,0c-0.1,0.2-0.5,0-0.5,0.3
	c0.1,0.9,1.1,4.1,1.3,4.9h0C187.5,387.9,186.4,387.7,189,394.5L189,394.5z M195.2,393.3c0.1,1.2-0.4,2.4,0.8,2.4
	c0.1,0,0.1,0.2-0.1,0.1c-1.1,0-1,0-2,0c-0.5-0.2,0.6-0.1,0.4-0.6c0.1-0.9,0.1-4.5,0-5.3c0-0.6-0.4-0.4-0.6-0.6c0.8-0.2,1.1,0,2-0.1
	c0.3,0,0,0.2-0.1,0.2C194.8,389.6,195.3,392.1,195.2,393.3z M201.3,393.3c0.1,1.2-0.4,2.4,0.8,2.4c0.1,0,0.1,0.2-0.1,0.1
	c-1.1,0-1.1,0-2,0c-0.5-0.1,0.6-0.1,0.5-0.6c0.1-0.9,0-4.4,0-5.5c-0.6,0.1-2.3-0.2-2.3,0.6c0,0.1-0.1,0.1-0.2,0
	c0.1-0.2,0.1-1,0.3-1.1c0.7,0.3,3.7,0.1,4.5,0.1c0.4,0.1,0.8-0.2,0.9,0c0,0.3,0.1,1-0.1,1.1c0-0.9-1.5-0.7-2.3-0.7L201.3,393.3
	L201.3,393.3z M212.1,393.3c0.2,1.2-0.4,2.4,0.8,2.4c0.1,0,0.1,0.2-0.1,0.1c-1.1,0-1,0-2,0c-0.2,0-0.2-0.1-0.1-0.1
	c1.1-0.1,0.4-2.2,0.6-3.2c0-0.1-3.8-0.1-3.9,0c0.2,1-0.4,2.8,0.4,3.2c0.2,0,0.8,0.1,0.3,0.2c-1.1,0-1,0-2,0
	c-0.5-0.2,0.6-0.1,0.4-0.6c0.1-0.9,0.1-4.5,0-5.3c0-0.5-0.3-0.5-0.7-0.5c-0.1,0-0.1-0.2,0.1-0.1c0.4,0,1,0,1,0c0,0.1,1.2-0.2,1,0.1
	c-0.3,0-0.6,0.1-0.5,0.5c0-0.2-0.1,1.3,0,2.1c0.1-0.1,4.1,0.3,3.8-0.2c-0.2-1.7,0.5-2.2-0.7-2.4c-0.1,0-0.1-0.2,0.1-0.1
	c1,0,1,0,1.9,0c0.3,0,0,0.2-0.2,0.2C211.7,389.7,212.2,392.1,212.1,393.3L212.1,393.3z M223.1,389.1c4.7-0.3,4.6,7-0.1,6.8
	C218.4,395.8,218.4,389.3,223.1,389.1z M223.3,395.5c3.1,0.4,3.3-6.4-0.3-6.1C219.4,389.2,219.9,395.9,223.3,395.5L223.3,395.5z
	 M231.6,393.3c0.1,1.2-0.4,2.4,0.8,2.4c0.1,0,0.1,0.2-0.1,0.1c-1.1,0-1.1,0-2,0c-0.5-0.1,0.6-0.1,0.5-0.6c0.1-0.9,0-4.4,0-5.5
	c-0.6,0.1-2.3-0.2-2.3,0.6c0,0.1-0.1,0.1-0.2,0c0.1-0.2,0.1-1,0.3-1.1c0.7,0.3,3.7,0.1,4.5,0.1c0.4,0.1,0.8-0.2,0.9,0
	c0,0.3,0.1,1-0.1,1.1c0-0.9-1.5-0.7-2.3-0.7L231.6,393.3L231.6,393.3z M242.3,393.3c0.1,1.2-0.4,2.4,0.8,2.4c0.1,0,0.1,0.2-0.1,0.1
	c-1.1,0-1,0-2,0c-0.2,0-0.2-0.1-0.1-0.1c1.1-0.1,0.4-2.2,0.6-3.2c0-0.1-3.8-0.1-3.9,0c0.2,1-0.4,2.8,0.4,3.2c0.2,0,0.8,0.1,0.3,0.2
	c-1.1,0-1,0-2,0c-0.5-0.2,0.6-0.1,0.4-0.6c0.1-0.9,0.1-4.5,0-5.3c0-0.5-0.3-0.5-0.7-0.5c-0.1,0-0.1-0.2,0.1-0.1c0.4,0,1,0,1,0
	c0,0.1,1.2-0.2,1,0.1c-0.3,0-0.6,0.1-0.5,0.5c0-0.2-0.1,1.3,0,2.1c0.1-0.1,4.1,0.3,3.8-0.2c-0.2-1.7,0.5-2.2-0.7-2.4
	c-0.1,0-0.1-0.2,0.1-0.1c1,0,1,0,1.9,0c0.3,0,0,0.2-0.2,0.2C242,389.7,242.5,392.1,242.3,393.3L242.3,393.3z M246.3,391.7
	c-0.2-1.7,0.5-2.2-0.7-2.4c-0.1,0-0.1-0.2,0.1-0.1c1.2,0,2.5,0.2,3.7-0.1c0.1,0.1-0.1,0.8-0.1,1.1c-0.2,0.3-0.1-0.2-0.2-0.3
	c-0.1-0.3-1.8-0.4-2-0.2c0,0.1-0.1,2.4,0,2.4c0.5,0.1,1.8-0.1,2.1-0.2c-0.1,0.1,0,1.4-0.2,1.1c0.2-0.8-1.4-0.5-1.9-0.6
	c-0.1,0,0,0.7-0.1,0.8c0.2,1-0.6,2.3,1.1,2.2c0.5,0,1.3,0,1.3-0.7c0-0.2,0.2-0.2,0.2,0c-0.1,0.3,0.1,1.2-0.6,1.1
	c-1.3,0-2.1-0.1-3.2,0c-0.1,0-0.2-0.1-0.1-0.1C246.9,395.4,246.1,392.8,246.3,391.7L246.3,391.7z M253,391.7
	c-0.1-1.9,0.5-2.1-0.8-2.4c2.5-0.5,6.7,0.3,3.5,3.5c1.1,1.2,1.8,2.8,3.2,2.9c0.4,0.2-0.6,0.1-0.7,0.1c-2.1,0.3-2.3-3.3-4.4-2.8
	c0,0.9-0.3,2.3,0.3,2.6c0.2,0,0.7,0.1,0.3,0.2c-1.1-0.1-1.2,0.1-2.1-0.1C253.5,395.4,252.8,392.9,253,391.7L253,391.7z M253.8,392.5
	c2.3,1.5,3.3-2.9,0.7-3c-0.3,0-0.6-0.1-0.7,0.2C253.8,389.7,253.8,392.4,253.8,392.5z M260,395.7c-0.4-0.3,0-2.2,0.1-1
	c0.3,1.3,2.9,1,2.8-0.3c0.1-1.3-3.1-2.4-2.8-3.7c-0.1-1.6,2-1.8,3.2-1.5c0.2,0.1,0,0.3,0.1,1c-0.1,0.5-0.2-0.2-0.3-0.3
	c-0.1-0.1-0.4-0.4-1.2-0.4c-3.7,0.8,2.1,3.1,1.7,4.7C263.7,395.8,261.3,396.3,260,395.7z M266.3,395.2c-0.1-0.6,1.1-0.8,1.1,0
	C267.4,395.9,266.2,395.9,266.3,395.2z M273.1,392.8c0.2,1.4-0.5,2.8,0.9,2.8c0.2,0,0.1,0.2-0.1,0.1c-1.3,0-1.2,0-2.3,0
	c-0.5-0.2,0.7,0,0.5-0.7c0.1-1.1,0-5.2,0.1-6.5c-0.7,0.1-2.6-0.3-2.7,0.7c0,0.1-0.1,0.1-0.2,0c0.1-0.2,0.2-1.1,0.3-1.3
	c0.8,0.3,4.2,0.1,5.1,0.2c0.4,0,0.7,0,1-0.1c0.1,0.3,0.1,1.2,0,1.4c0-1-1.7-0.8-2.6-0.9L273.1,392.8L273.1,392.8z M284.1,393.3
	c0.1,1.2-0.4,2.4,0.8,2.4c0.1,0,0.1,0.2-0.1,0.1c-1.1-0.1-1.3,0.1-2.1-0.1c1.1-0.2,0.4-2.2,0.6-3.3c0-0.1-3.8-0.1-3.9,0
	c0.2,1-0.4,2.8,0.4,3.2c0.2,0,0.8,0.1,0.3,0.2c-1.1,0-1,0-2,0c-0.5-0.2,0.6-0.1,0.4-0.6c0.1-0.9,0.1-4.5,0-5.3
	c0-0.5-0.3-0.5-0.7-0.5c-0.1,0-0.1-0.2,0.1-0.1c0.4,0,1,0,1,0c0,0.1,1.2-0.2,1,0.1c-0.3,0-0.6,0.1-0.5,0.5c0-0.2-0.1,1.3,0,2.1
	c0.1-0.1,4.1,0.3,3.8-0.2c-0.2-1.7,0.5-2.2-0.7-2.4c-0.1,0-0.1-0.2,0.1-0.1c1,0,1,0,1.9,0c0.3,0,0,0.2-0.1,0.2
	C283.7,389.7,284.2,392.1,284.1,393.3z M288,391.7c-0.2-1.7,0.5-2.2-0.7-2.4c-0.1,0-0.1-0.2,0.1-0.1c1.2,0,2.5,0.2,3.7-0.1
	c0.1,0.1-0.1,0.8-0.1,1.1c-0.2,0.3-0.1-0.2-0.2-0.3c-0.1-0.3-1.8-0.4-2-0.2c0,0.1-0.1,2.4,0,2.4c0.5,0.1,1.8-0.1,2.1-0.2
	c-0.1,0.1,0,1.4-0.2,1.1c0.2-0.8-1.4-0.5-1.9-0.6c-0.1,0,0,0.7-0.1,0.8c0.2,1-0.6,2.3,1.1,2.2c0.5,0,1.3,0,1.3-0.7
	c0-0.2,0.2-0.2,0.2,0c-0.1,0.3,0.1,1.2-0.6,1.1c-1.3,0-2.1-0.1-3.2,0c-0.1,0-0.2-0.1-0.1-0.1C288.6,395.4,287.8,392.8,288,391.7
	L288,391.7z M294.7,391.7c-0.1-1.9,0.5-2.1-0.8-2.4c2.5-0.5,6.7,0.3,3.5,3.5c1.1,1.2,1.8,2.8,3.2,2.9c0.2,0,0.1,0.2-0.1,0.1
	c-1.9,0.5-2.7-1.7-3.8-2.8c-0.2,0.1-1.4-0.3-1.2,0.3c0.1,1.2-0.4,2.4,0.8,2.4c0.1,0,0.1,0.2-0.1,0.1c-1.1-0.1-1.2,0.1-2.1-0.1
	C295.3,395.4,294.5,392.9,294.7,391.7L294.7,391.7z M295.5,392.5c2.3,1.5,3.3-2.9,0.7-3c-0.3,0-0.6-0.1-0.7,0.2
	C295.5,389.7,295.5,392.4,295.5,392.5z M302.6,391.7c-0.2-1.7,0.5-2.2-0.7-2.4c-0.1,0-0.1-0.2,0.1-0.1c1.2,0,2.5,0.2,3.7-0.1
	c0.1,0.1-0.1,0.8-0.1,1.1c-0.2,0.3-0.1-0.2-0.2-0.3c-0.1-0.3-1.8-0.4-2-0.2c0,0.1-0.1,2.4,0,2.4c0.5,0.1,1.8-0.1,2.1-0.2
	c-0.1,0.1,0,1.4-0.2,1.1c0.2-0.8-1.4-0.5-1.9-0.6c-0.1,0,0,0.7-0.1,0.8c0.2,1-0.6,2.3,1.1,2.2c0.5,0,1.3,0,1.3-0.7
	c0-0.2,0.2-0.2,0.2,0c-0.1,0.3,0.1,1.2-0.6,1.1c-1.3,0-2.1-0.1-3.2,0c-0.1,0-0.2-0.1-0.1-0.1C303.1,395.4,302.4,392.8,302.6,391.7
	L302.6,391.7z M308.3,387.6c-0.1-0.1-0.1-0.2,0-0.2c1.7-0.1,0.5,2.1-0.1,2.5C308.2,389.5,308.9,388.2,308.3,387.6L308.3,387.6z
	 M311.2,395.7c-0.4-0.3,0-2.2,0.1-1c0.3,1.3,2.9,1,2.8-0.3c0.1-1.3-3.1-2.4-2.8-3.7c-0.1-1.6,2-1.8,3.2-1.5c0.2,0.1,0,0.3,0.1,1
	c-0.1,0.5-0.2-0.2-0.3-0.3c-0.1-0.1-0.4-0.4-1.2-0.4c-3.7,0.8,2.1,3.1,1.7,4.7C314.8,395.8,312.5,396.3,311.2,395.7z M323,394.6
	c0,1.1,0.3,0.9,0.9,1.1c-1,0.2-1,0-2,0.1c-0.4-0.1,0.1-0.2,0.3-0.2c0.6-0.3,0.1-5.4,0.3-6.1c-0.2-1.6,4.7,4.5,5.4,5
	c-0.3-0.7,0.6-5.6-0.9-5.2c-0.1,0-0.1-0.2,0.1-0.1c0.9,0.1,1.1-0.1,1.9,0.1c-0.4,0.2-0.7,0-0.6,0.9c-0.1,0.3,0.1,5.6-0.1,5.7
	c-0.9-0.5-4.5-4.5-5.4-5.3L323,394.6z M334.6,389.1c4.7-0.3,4.6,7-0.1,6.8C329.8,395.8,329.8,389.3,334.6,389.1z M334.8,395.5
	c3.1,0.4,3.3-6.4-0.3-6.1C330.8,389.2,331.4,395.9,334.8,395.5L334.8,395.5z M345.7,395c-2.9-2.8,0.2-6.8,4-5.8
	c1.5,0.1,0.9,0.4,1,1.6c-0.8-2.2-5.4-1.9-5.2,1.5c-0.4,2.5,4.2,4.7,5.2,1.9C351.3,396.8,346.7,396,345.7,395L345.7,395z
	 M356.3,389.1c4.7-0.3,4.6,7-0.1,6.8C351.6,395.8,351.6,389.3,356.3,389.1z M356.5,395.5c3.1,0.4,3.3-6.4-0.3-6.1
	C352.6,389.2,353.1,395.9,356.5,395.5L356.5,395.5z M369.7,394.7c-0.1,0.7,0.6,1,1.1,1c-0.2,0.2-1.3,0-1.7,0c-0.3,0-0.3-0.1-0.2-0.2
	c0.1,0,0.1-0.1,0-0.3l-0.4-4.4h0c-3,5.9-1.8,6.5-5,0.1h0c0.1,0.5-0.7,4.4-0.1,4.6c0.2,0,0.7,0.1,0.3,0.2c-0.8-0.1-1.1,0.1-1.7-0.1
	c0.4-0.1,0.7-0.2,0.7-0.8c0.9-8.4,0.4-6.3,3.6-0.3C369.2,389.3,368.9,386,369.7,394.7z M373.4,391.7c-0.2-1.7,0.5-2.2-0.7-2.4
	c-0.1,0-0.1-0.2,0.1-0.1c1.1,0,3.5-0.2,4,0.5c1.3,1.3-0.3,3.4-2.1,3.1c-0.2-0.1-0.1-0.2,0.1-0.2c1,0,1.7-0.6,1.7-1.4
	c0.3-1-1.6-2.4-2.3-1.5c0,1.1,0,4.5,0,5.4c-0.2,0.6,1.2,0.4,0.7,0.6c-1.1-0.1-1.2,0.1-2.2-0.1C374,395.4,373.2,392.9,373.4,391.7
	L373.4,391.7z M381.4,389.4c0.6-1.6,2.1,6.6,3.7,6.2c0.3,0.3-0.9,0.1-1.5,0.1c-0.2,0-0.4,0-0.3-0.1c0.3,0-0.7-2.2-0.8-2.3
	c-0.1,0.1-2.1-0.1-2.2,0.1c0,0.5-1.2,2.1-0.3,2.2c0.8,0.2-1.7,0.2-1.8,0.1C379.6,395.9,380.8,390.2,381.4,389.4L381.4,389.4z
	 M382.4,393c-1-3-0.7-3.3-1.8-0.1C380.5,393.1,382.4,393,382.4,393z M387.4,391.7c-0.1-1.9,0.5-2.1-0.8-2.4c2.5-0.5,6.7,0.3,3.5,3.5
	c1.1,1.2,1.8,2.8,3.2,2.9c0.2,0,0.1,0.2-0.1,0.1c-1.9,0.5-2.7-1.7-3.8-2.8c-0.2,0.1-1.4-0.3-1.2,0.3c0.1,1.2-0.4,2.4,0.8,2.4
	c0.1,0,0.1,0.2-0.1,0.1c-1.1-0.1-1.2,0.1-2.1-0.1C388,395.4,387.2,392.9,387.4,391.7L387.4,391.7z M388.2,392.5
	c2.3,1.5,3.3-2.9,0.7-3c-0.3,0-0.6-0.1-0.7,0.2C388.2,389.7,388.2,392.4,388.2,392.5z M396.1,393.3c0.1,1.2-0.4,2.4,0.8,2.4
	c0.1,0,0.1,0.2-0.1,0.1c-1.1,0-1,0-2,0c-0.5-0.2,0.6-0.1,0.4-0.6c0.1-0.9,0.1-4.5,0-5.3c0-0.6-0.4-0.4-0.6-0.6c0.8-0.2,1.1,0,2-0.1
	c0.3,0,0,0.2-0.1,0.2C395.7,389.6,396.3,392.1,396.1,393.3z M399.5,395.7c-0.4-0.3,0-2.2,0.1-1c0.3,1.3,2.9,1,2.8-0.3
	c0.1-1.3-3.1-2.4-2.8-3.7c-0.1-1.6,2-1.8,3.2-1.5c0.2,0.1,0,0.3,0.1,1c-0.1,0.5-0.2-0.2-0.3-0.3c-0.1-0.1-0.4-0.4-1.2-0.4
	c-3.7,0.8,2.1,3.1,1.7,4.7C403.2,395.8,400.8,396.3,399.5,395.7z M409.2,389.1c4.7-0.3,4.6,7-0.1,6.8
	C404.4,395.8,404.4,389.3,409.2,389.1z M409.4,395.5c3.1,0.4,3.3-6.4-0.3-6.1C405.5,389.2,406,395.9,409.4,395.5L409.4,395.5z
	 M416,394.6c0,1.1,0.3,0.9,0.9,1.1c-1,0.2-1,0-2,0.1c-0.4-0.1,0.1-0.2,0.3-0.2c0.6-0.3,0.1-5.4,0.3-6.1c-0.2-1.6,4.7,4.5,5.4,5
	c-0.3-0.7,0.6-5.6-0.9-5.2c-0.1,0-0.1-0.2,0.1-0.1c0.9,0.1,1.1-0.1,1.9,0.1c-0.4,0.2-0.7,0-0.6,0.9c-0.1,0.3,0.1,5.6-0.1,5.7
	c-0.9-0.5-4.5-4.5-5.4-5.3L416,394.6z M5.3,410.2c-0.2-1.8,0.5-2.2-0.8-2.4c2.3-0.5,5.9,0.4,3.2,2.8c2.2,0.5,2.2,3.8-0.7,3.7
	c-0.7-0.1-1.8,0.1-2.4-0.1C5.9,413.9,5.1,411.4,5.3,410.2L5.3,410.2z M6.1,410.4c1.8,1,2.8-2.3,0.6-2.4
	C5.6,407.7,6.3,409.9,6.1,410.4z M6.1,411.3c0.1,1.1-0.3,2.1,0.3,2.5c0.9,0.2,2,0.3,2.1-1.2c0.1-0.6-0.8-1.9-1.7-1.8
	C6.4,410.8,6,410.6,6.1,411.3L6.1,411.3z M12.3,410.2c-0.2-1.7,0.5-2.2-0.7-2.4c-0.1,0-0.1-0.2,0.1-0.1c1.2,0,2.5,0.2,3.7-0.1
	c0.1,0.1-0.1,0.8-0.1,1.1c-0.2,0.3-0.1-0.2-0.2-0.3c-0.1-0.1-0.2-0.2-0.6-0.3c-0.2,0-1.3-0.2-1.4,0.1c0,0.1-0.1,2.4,0,2.4
	c0.5,0.1,1.8-0.1,2.1-0.2c-0.1,0.1,0,1.4-0.2,1.1c0.2-0.8-1.4-0.5-1.9-0.6c-0.1,0,0,0.7-0.1,0.8c0.1,1-0.6,2.3,1.1,2.2
	c0.5,0,1.3,0,1.3-0.7c0-0.2,0.2-0.2,0.2,0c-0.1,0.3,0.1,1.2-0.6,1.1c-1.3,0-2.1-0.1-3.2,0c-0.1,0-0.2-0.1-0.1-0.1
	C12.8,413.9,12.1,411.3,12.3,410.2L12.3,410.2z M20.9,411.7c0.1,1.2-0.4,2.4,0.8,2.4c0.1,0,0.1,0.2-0.1,0.1c-1.1,0-1.1,0-2,0
	c-0.5-0.1,0.6-0.1,0.5-0.6c0.1-0.9,0-4.4,0-5.5c-0.6,0.1-2.3-0.2-2.3,0.6c0,0.1-0.1,0.1-0.2,0c0.1-0.2,0.1-1,0.3-1.1
	c0.7,0.3,3.7,0.1,4.5,0.1c0.4,0.1,0.8-0.2,0.9,0c0,0.3,0.1,1-0.1,1.1c0-0.9-1.5-0.7-2.3-0.7L20.9,411.7L20.9,411.7z M31.8,413
	L31.8,413c0.3-0.9,1.3-3.6,1.5-4.9c0.1-0.3-0.4-0.2-0.6-0.3c0.8-0.1,1.2-0.1,1.9,0c-1.8,0.8-1.9,5.3-3,6.6c-0.3,0.1-1.9-5-2.1-5.2
	c-0.5,1-1.5,4.4-2.2,5.2c-0.4-0.1-1.7-5.4-1.9-5.8c-0.1-0.8-0.6-0.6-1-0.8c1-0.1,1.3-0.1,2.3,0c-0.1,0.2-0.5,0-0.5,0.3
	c0.1,0.9,1.1,4.1,1.3,4.9h0C30.4,406.4,29.3,406.2,31.8,413L31.8,413z M37.2,410.2c-0.2-1.7,0.5-2.2-0.7-2.4c-0.1,0-0.1-0.2,0.1-0.1
	c1.2,0,2.5,0.2,3.7-0.1c0.1,0.1-0.1,0.8-0.1,1.1c-0.2,0.3-0.1-0.2-0.2-0.3c-0.1-0.1-0.2-0.2-0.6-0.3c-0.2,0-1.3-0.2-1.4,0.1
	c0,0.1-0.1,2.4,0,2.4c0.5,0.1,1.8-0.1,2.1-0.2c-0.1,0.1,0,1.4-0.2,1.1c0.2-0.8-1.4-0.5-1.9-0.6c-0.1,0,0,0.7-0.1,0.8
	c0.1,1-0.6,2.3,1.1,2.2c0.5,0,1.3,0,1.3-0.7c0-0.2,0.2-0.2,0.2,0c-0.1,0.3,0.1,1.2-0.6,1.1c-1.3,0-2.1-0.1-3.2,0
	c-0.1,0-0.2-0.1-0.1-0.1C37.7,413.9,36.9,411.3,37.2,410.2L37.2,410.2z M43.8,410.2c-0.2-1.7,0.5-2.2-0.7-2.4
	c-0.1,0-0.1-0.2,0.1-0.1c1.2,0,2.5,0.2,3.7-0.1c0.1,0.1-0.1,0.8-0.1,1.1c-0.2,0.3-0.1-0.2-0.2-0.3c-0.1-0.1-0.2-0.2-0.6-0.3
	c-0.2,0-1.3-0.2-1.4,0.1c0,0.1-0.1,2.4,0,2.4c0.5,0.1,1.8-0.1,2.1-0.2c-0.1,0.1,0,1.4-0.2,1.1c0.2-0.8-1.4-0.5-1.9-0.6
	c-0.1,0,0,0.7-0.1,0.8c0.1,1-0.6,2.3,1.1,2.2c0.5,0,1.3,0,1.3-0.7c0-0.2,0.2-0.2,0.2,0c-0.1,0.3,0.1,1.2-0.6,1.1
	c-1.3,0-2.1-0.1-3.2,0c-0.1,0-0.2-0.1-0.1-0.1C44.3,413.9,43.6,411.3,43.8,410.2L43.8,410.2z M50.8,413.1c0,1.1,0.3,0.9,0.9,1.1
	c-1,0.2-1,0-2,0.1c-0.4-0.1,0.1-0.2,0.3-0.2c0.6-0.3,0.1-5.4,0.3-6.1c-0.2-1.6,4.7,4.5,5.4,5c-0.3-0.7,0.6-5.6-0.9-5.2
	c-0.1,0-0.1-0.2,0.1-0.1c0.9,0.1,1.1-0.1,1.9,0.1c-0.4,0.2-0.7,0-0.6,0.9c0,0.3,0.1,5.6-0.1,5.7c-0.9-0.5-4.5-4.5-5.4-5.3
	L50.8,413.1z M66.3,411.7c0.1,1.2-0.4,2.4,0.8,2.4c0.1,0,0.1,0.2-0.1,0.1c-1.1,0-1.1,0-2,0c-0.5-0.1,0.6-0.1,0.5-0.6
	c0.1-0.9,0-4.4,0-5.5c-0.6,0.1-2.3-0.2-2.3,0.6c0,0.1-0.1,0.1-0.2,0c0.1-0.2,0.1-1,0.3-1.1c0.7,0.3,3.7,0.1,4.5,0.1
	c0.4,0.1,0.8-0.2,0.9,0c0,0.3,0.1,1-0.1,1.1c0-0.9-1.5-0.7-2.3-0.7L66.3,411.7L66.3,411.7z M77.1,411.7c0.2,1.2-0.4,2.4,0.8,2.4
	c0.1,0,0.1,0.2-0.1,0.1c-1.1,0-1,0-2,0c-0.2,0-0.2-0.1-0.1-0.1c1.1-0.1,0.4-2.2,0.6-3.2c0-0.1-3.8-0.1-3.9,0c0.2,1-0.4,2.8,0.4,3.2
	c0.2,0,0.8,0.1,0.3,0.2c-1.1,0-1,0-2,0c-0.1,0-0.2-0.1-0.1-0.1c0.9-0.1,0.4-1.3,0.6-2.4c-0.2-1.1,0.4-3.7-0.4-3.9
	c-0.1,0-0.2,0-0.3,0c-0.1,0-0.1-0.2,0.1-0.1c0.4,0,1,0,1,0c0,0.1,1.2-0.2,1,0.1c-0.3,0-0.6,0.1-0.5,0.5c0-0.2-0.1,1.3,0,2.1
	c0.1-0.1,4.1,0.3,3.8-0.2c-0.2-1.7,0.5-2.2-0.7-2.4c-0.1,0-0.1-0.2,0.1-0.1c1,0,1,0,1.9,0c0.3,0,0,0.2-0.2,0.2
	C76.7,408.1,77.2,410.6,77.1,411.7L77.1,411.7z M81,410.2c-0.2-1.7,0.5-2.2-0.7-2.4c-0.1,0-0.1-0.2,0.1-0.1c1.2,0,2.5,0.2,3.7-0.1
	c0.1,0.1-0.1,0.8-0.1,1.1c-0.2,0.3-0.1-0.2-0.2-0.3c-0.1-0.1-0.2-0.2-0.6-0.3c-0.2,0-1.3-0.2-1.4,0.1c0,0.1-0.1,2.4,0,2.4
	c0.5,0.1,1.8-0.1,2.1-0.2c-0.1,0.1,0,1.4-0.2,1.1c0.2-0.8-1.4-0.5-1.9-0.6c-0.1,0,0,0.7-0.1,0.8c0.1,1-0.6,2.3,1.1,2.2
	c0.5,0,1.3,0,1.3-0.7c0-0.2,0.2-0.2,0.2,0c-0.1,0.3,0.1,1.2-0.6,1.1c-1.3,0-2.1-0.1-3.2,0c-0.1,0-0.2-0.1-0.1-0.1
	C81.6,413.9,80.8,411.3,81,410.2L81,410.2z M91.3,414.1c-0.4-0.3,0-2.2,0.1-1c0.3,1.3,2.9,1,2.8-0.3c0.1-1.3-3.1-2.4-2.8-3.7
	c-0.1-1.6,2-1.8,3.2-1.5c0.1,0,0.1,0,0.1,0.1c-0.1,0,0.1,0.8-0.1,1.1c0.1-1.1-2.5-1.5-2.6,0c-0.1,1.2,3.3,2.4,2.9,3.7
	C95,414.2,92.6,414.7,91.3,414.1z M97.9,410.2c-0.2-1.7,0.5-2.2-0.7-2.4c-0.1,0-0.1-0.2,0.1-0.1c0.9,0.1,1.3-0.1,2.1,0.1
	c-1.1,0.4-0.5,0.6-0.6,2.4c-0.4,2.5,1.1,5.1,3.4,3.2c0.6-0.7,0.5-2.2,0.5-3.2c-0.2-1.7,0.5-2.2-0.7-2.4c-0.1,0-0.1-0.2,0.1-0.1
	c0.9,0.1,1.1-0.1,1.9,0.1c-1.1,0.2-0.4,2-0.6,3.4C103.5,416,96.8,415.2,97.9,410.2L97.9,410.2z M107.3,413.1c0,1.1,0.3,0.9,0.9,1.1
	c-1,0.2-1,0-2,0.1c-0.4-0.1,0.1-0.2,0.3-0.2c0.6-0.3,0.1-5.4,0.3-6.1c-0.2-1.6,4.7,4.5,5.4,5c-0.3-0.7,0.6-5.6-0.9-5.2
	c-0.1,0-0.1-0.2,0.1-0.1c0.9,0.1,1.1-0.1,1.9,0.1c-0.4,0.2-0.7,0-0.6,0.9c0,0.3,0.1,5.6-0.1,5.7c-0.9-0.5-4.5-4.5-5.4-5.3
	L107.3,413.1z M122.1,407.9c0.6-1.6,2.1,6.6,3.7,6.2c0.3,0.3-0.9,0.1-1.5,0.1c-0.2,0-0.4,0-0.3-0.1c0.3,0-0.7-2.2-0.8-2.3
	c-0.1,0.1-2.1-0.1-2.2,0.1c0,0.5-1.2,2.2-0.3,2.2c0.7,0.2-2.4,0.2-1.8,0C120.3,414.4,121.6,408.6,122.1,407.9z M123.1,411.5
	c-1-3-0.7-3.3-1.8-0.1C121.2,411.6,123.1,411.4,123.1,411.5z M128.5,413.1c0,1.1,0.3,0.9,0.9,1.1c-1,0.2-1,0-2,0.1
	c-0.4-0.1,0.1-0.2,0.3-0.2c0.6-0.3,0.1-5.4,0.3-6.1c-0.2-1.6,4.7,4.5,5.4,5c-0.3-0.7,0.6-5.6-0.9-5.2c-0.1,0-0.1-0.2,0.1-0.1
	c0.9,0.1,1.1-0.1,1.9,0.1c-0.4,0.2-0.7,0-0.6,0.9c0,0.3,0.1,5.6-0.1,5.7c-0.9-0.5-4.5-4.5-5.4-5.3L128.5,413.1z M137.5,410.2
	c-0.2-1.7,0.5-2.2-0.7-2.4c-0.1,0-0.1-0.2,0.1-0.1c1.2,0,1,0,2.2,0c5.9-0.9,6,7.8-0.5,6.6c-0.8-0.1-1.2,0.1-1.8-0.1
	C138,413.9,137.3,411.4,137.5,410.2L137.5,410.2z M138.3,411.1c0,1.4-0.1,1.8,0.1,2.5c0.4,0.6,3,0.4,3.6-0.4c2.1-2.6-0.7-6-3.6-5.1
	C138.2,408,138.4,411.1,138.3,411.1L138.3,411.1z M153.1,411.7c0.1,1.2-0.4,2.4,0.8,2.4c0.1,0,0.1,0.2-0.1,0.1c-1.1,0-1.1,0-2,0
	c-0.5-0.1,0.6-0.1,0.5-0.6c0.1-0.9,0-4.4,0-5.5c-0.6,0.1-2.3-0.2-2.3,0.6c0,0.1-0.1,0.1-0.2,0c0.1-0.2,0.1-1,0.3-1.1
	c0.7,0.3,3.7,0.1,4.5,0.1c0.4,0.1,0.8-0.2,0.9,0c0,0.3,0.1,1-0.1,1.1c0-0.9-1.5-0.7-2.3-0.7L153.1,411.7L153.1,411.7z M163.8,411.7
	c0.2,1.2-0.4,2.4,0.8,2.4c0.1,0,0.1,0.2-0.1,0.1c-1.1,0-1,0-2,0c-0.2,0-0.2-0.1-0.1-0.1c1.1-0.1,0.4-2.2,0.6-3.2
	c0-0.1-3.8-0.1-3.9,0c0.2,1-0.4,2.8,0.4,3.2c1.6,0.2-1.6,0.3-1.8,0.1c1-0.2,0.5-1.2,0.6-2.5c-0.2-1.1,0.4-3.7-0.4-3.9
	c-0.1,0-0.2,0-0.3,0c-0.1,0-0.1-0.2,0.1-0.1c0.4,0,1,0,1,0c0,0.1,1.2-0.2,1,0.1c-0.3,0-0.6,0.1-0.5,0.5c0-0.2-0.1,1.3,0,2.1
	c0.1-0.1,4.1,0.3,3.8-0.2c-0.2-1.7,0.5-2.2-0.7-2.4c-0.1,0-0.1-0.2,0.1-0.1c1,0,1,0,1.9,0c0.3,0,0,0.2-0.2,0.2
	C163.5,408.1,164,410.6,163.8,411.7L163.8,411.7z M167.8,410.2c-0.2-1.7,0.5-2.2-0.7-2.4c-0.1,0-0.1-0.2,0.1-0.1
	c1.2,0,2.5,0.2,3.7-0.1c0.1,0.1-0.1,0.8-0.1,1.1c-0.2,0.3-0.1-0.2-0.2-0.3c-0.1-0.1-0.2-0.2-0.6-0.3c-0.2,0-1.3-0.2-1.4,0.1
	c0,0.1-0.1,2.4,0,2.4c0.5,0.1,1.8-0.1,2.1-0.2c-0.1,0.1,0,1.4-0.2,1.1c0.2-0.8-1.4-0.5-1.9-0.6c-0.1,0,0,0.7-0.1,0.8
	c0.1,1-0.6,2.3,1.1,2.2c0.5,0,1.3,0,1.3-0.7c0-0.2,0.2-0.2,0.2,0c-0.1,0.3,0.1,1.2-0.6,1.1c-1.3,0-2.1-0.1-3.2,0
	c-0.1,0-0.2-0.1-0.1-0.1C168.3,413.9,167.6,411.3,167.8,410.2L167.8,410.2z M185.5,413.1c-0.1,0.7,0.6,1,1.1,1c-0.2,0.2-1.3,0-1.7,0
	c-0.3,0-0.3-0.1-0.2-0.2c0.1,0,0.1-0.1,0-0.3l-0.4-4.4h0c-3,5.9-1.8,6.5-5,0.1h0c0.1,0.5-0.7,4.4-0.2,4.6c0.2,0,0.7,0.1,0.3,0.2
	c-0.8-0.1-1.1,0.1-1.8-0.1c0.4-0.1,0.7-0.2,0.7-0.8c0.9-8.4,0.4-6.3,3.7-0.3C185,407.8,184.7,404.4,185.5,413.1L185.5,413.1z
	 M191.8,407.6c4.7-0.3,4.6,7-0.1,6.8C187,414.2,187,407.8,191.8,407.6z M192,414c3.1,0.4,3.3-6.4-0.3-6.1
	C188.1,407.6,188.6,414.3,192,414L192,414z M201.1,407.6c4.7-0.3,4.6,7-0.1,6.8C196.3,414.2,196.3,407.8,201.1,407.6z M201.3,414
	c3.1,0.4,3.3-6.4-0.3-6.1C197.3,407.6,197.9,414.3,201.3,414L201.3,414z M207.9,413.1c0,1.1,0.3,0.9,0.9,1.1c-1,0.2-1,0-2,0.1
	c-0.4-0.1,0.1-0.2,0.3-0.2c0.6-0.3,0.1-5.4,0.3-6.1c-0.2-1.6,4.7,4.5,5.4,5c-0.3-0.7,0.6-5.6-0.9-5.2c-0.1,0-0.1-0.2,0.1-0.1
	c0.9,0.1,1.1-0.1,1.9,0.1c-0.4,0.2-0.7,0-0.6,0.9c0,0.3,0.1,5.6-0.1,5.7c-0.9-0.5-4.5-4.5-5.4-5.3L207.9,413.1L207.9,413.1z
	 M216.2,413.7c-0.1-0.6,1.1-0.8,1.1,0C217.4,414.4,216.1,414.4,216.2,413.7z M223,411.3c0.2,1.4-0.5,2.8,0.9,2.8
	c0.2,0,0.1,0.2-0.1,0.1c-1.3,0-1.2,0-2.3,0c-0.5-0.2,0.7,0,0.5-0.7c0.1-1.1,0-5.2,0.1-6.5c-0.7,0.1-2.6-0.3-2.7,0.7
	c0,0.1-0.1,0.1-0.2,0c0.1-0.2,0.2-1.1,0.3-1.3c0.8,0.3,4.2,0.1,5.1,0.2c0.4,0,0.7,0,1-0.1c0.1,0.3,0.1,1.2,0,1.4
	c0-1-1.7-0.8-2.6-0.9L223,411.3L223,411.3z M234,411.7c0.1,1.2-0.4,2.4,0.8,2.4c0.1,0,0.1,0.2-0.1,0.1c-1.1-0.1-1.3,0.1-2.1-0.1
	c1.1-0.2,0.4-2.2,0.6-3.3c0-0.1-3.8-0.1-3.9,0c0.2,1-0.4,2.8,0.4,3.2c1.6,0.2-1.6,0.3-1.8,0.1c1-0.2,0.5-1.2,0.6-2.5
	c-0.2-1.1,0.4-3.7-0.4-3.9c-0.1,0-0.2,0-0.3,0c-0.1,0-0.1-0.2,0.1-0.1c0.4,0,1,0,1,0c0,0.1,1.2-0.2,1,0.1c-0.3,0-0.6,0.1-0.5,0.5
	c0-0.2-0.1,1.3,0,2.1c0.1-0.1,4.1,0.3,3.8-0.2c-0.2-1.7,0.5-2.2-0.7-2.4c-0.1,0-0.1-0.2,0.1-0.1c1,0,1,0,1.9,0c0.3,0,0,0.2-0.2,0.2
	C233.6,408.1,234.1,410.6,234,411.7z M238,410.2c-0.2-1.7,0.5-2.2-0.7-2.4c-0.1,0-0.1-0.2,0.1-0.1c1.2,0,2.5,0.2,3.7-0.1
	c0.1,0.1-0.1,0.8-0.1,1.1c-0.2,0.3-0.1-0.2-0.2-0.3c-0.1-0.3-1.8-0.4-2-0.2c0,0.1-0.1,2.4,0,2.4c0.5,0.1,1.8-0.1,2.1-0.2
	c-0.1,0.1,0,1.4-0.2,1.1c0.2-0.8-1.4-0.5-1.9-0.6c-0.1,0,0,0.7-0.1,0.8c0.2,1-0.6,2.3,1.1,2.2c0.5,0,1.3,0,1.3-0.7
	c0-0.2,0.2-0.2,0.2,0c-0.1,0.3,0.1,1.2-0.6,1.1c-1.3,0-2.1-0.1-3.2,0c-0.1,0-0.2-0.1-0.1-0.1C238.5,413.9,237.7,411.3,238,410.2
	L238,410.2z M245.9,412c-0.1-1.2-1.5-3.1-2.4-4c-0.2-0.1-0.7-0.1-0.4-0.3c0.7,0.1,1.1-0.1,1.8,0.1c-0.9,0.2,1.5,2.9,1.5,3.3
	c0.2-0.8,2.2-2.7,1.4-3.3c0.6-0.1,1.2-0.1,1.7,0c-0.3,0.2-0.7,0.2-1,0.6c-0.5,0.8-2,2.6-1.9,3.6c0.1,0.7-0.4,2.3,0.8,2.1
	c0.1,0,0.1,0.2-0.1,0.1c-1.1,0-1,0-2,0c-0.2,0-0.2-0.1-0.1-0.1C246.3,414.1,245.8,412.5,245.9,412L245.9,412z M255.3,414.1
	c-0.4-0.3,0-2.2,0.1-1c0.3,1.3,2.9,1,2.8-0.3c0.1-1.3-3.1-2.4-2.8-3.7c-0.1-1.6,2-1.8,3.2-1.5c0.2,0.1,0,0.3,0.1,1
	c-0.1,0.5-0.2-0.2-0.3-0.3c-0.1-0.1-0.4-0.4-1.2-0.4c-3.7,0.8,2.1,3.1,1.7,4.7C259,414.2,256.6,414.7,255.3,414.1z M267.7,411.7
	c0.1,1.2-0.4,2.4,0.8,2.4c0.1,0,0.1,0.2-0.1,0.1c-1.1-0.1-1.3,0.1-2.1-0.1c1.1-0.2,0.4-2.2,0.6-3.3c0-0.1-3.8-0.1-3.9,0
	c0.2,1-0.4,2.8,0.4,3.2c0.2,0,0.8,0.1,0.3,0.2c-1.1,0-1,0-2,0c-0.1,0-0.2-0.1-0.1-0.1c0.9-0.1,0.4-1.3,0.6-2.4
	c-0.2-1.1,0.4-3.7-0.4-3.9c-0.1,0-0.2,0-0.3,0c-0.1,0-0.1-0.2,0.1-0.1c0.4,0,1,0,1,0c0,0.1,1.2-0.2,1,0.1c-0.3,0-0.6,0.1-0.5,0.5
	c0-0.2-0.1,1.3,0,2.1c0.1-0.1,4.1,0.3,3.8-0.2c-0.2-1.7,0.5-2.2-0.7-2.4c-0.1,0-0.1-0.2,0.1-0.1c1,0,1,0,1.9,0c0.3,0,0,0.2-0.1,0.2
	C267.4,408.1,267.9,410.6,267.7,411.7z M272.5,411.7c0.1,1.2-0.4,2.4,0.8,2.4c0.1,0,0.1,0.2-0.1,0.1c-1.1,0-1,0-2,0
	c-0.5-0.2,0.6-0.1,0.4-0.6c0.1-0.9,0.1-4.5,0-5.3c0-0.6-0.4-0.4-0.6-0.6c0.8-0.2,1.1,0,2-0.1c0.3,0,0,0.2-0.1,0.2
	C272.2,408.1,272.7,410.6,272.5,411.7z M276.9,413.1c0,1.1,0.3,0.9,0.9,1.1c-1,0.2-1,0-2,0.1c-0.4-0.1,0.1-0.2,0.3-0.2
	c0.6-0.3,0.1-5.4,0.3-6.1c-0.2-1.6,4.7,4.5,5.4,5c-0.3-0.7,0.6-5.6-0.9-5.2c-0.1,0-0.1-0.2,0.1-0.1c0.9,0.1,1.1-0.1,1.9,0.1
	c-0.4,0.2-0.7,0-0.6,0.9c-0.1,0.3,0.1,5.6-0.1,5.7c-0.9-0.5-4.5-4.5-5.4-5.3L276.9,413.1z M285.8,410.2c-0.2-1.7,0.5-2.2-0.7-2.4
	c-0.1,0-0.1-0.2,0.1-0.1c1.2,0,2.5,0.2,3.7-0.1c0.1,0.1-0.1,0.8-0.1,1.1c-0.2,0.3-0.1-0.2-0.2-0.3c-0.1-0.3-1.8-0.4-2-0.2
	c0,0.1-0.1,2.4,0,2.4c0.5,0.1,1.8-0.1,2.1-0.2c-0.1,0.1,0,1.4-0.2,1.1c0.2-0.8-1.4-0.5-1.9-0.6c-0.1,0,0,0.7-0.1,0.8
	c0.2,1-0.6,2.3,1.1,2.2c0.5,0,1.3,0,1.3-0.7c0-0.2,0.2-0.2,0.2,0c-0.1,0.3,0.1,1.2-0.6,1.1c-1.3,0-2.1-0.1-3.2,0
	c-0.1,0-0.2-0.1-0.1-0.1C286.4,413.9,285.6,411.3,285.8,410.2L285.8,410.2z M302.4,413L302.4,413c0.3-0.9,1.3-3.6,1.5-4.9
	c0.1-0.3-0.4-0.2-0.6-0.3c0.8-0.1,1.2-0.1,1.9,0c-1.8,0.8-1.9,5.3-3,6.6c-0.3,0.1-1.9-5-2.1-5.2c-0.5,1-1.5,4.4-2.2,5.2
	c-0.4-0.1-1.7-5.4-1.9-5.8c-0.1-0.8-0.6-0.6-1-0.8c1-0.1,1.3-0.1,2.3,0c-0.1,0.2-0.5,0-0.5,0.3c0.1,0.9,1.1,4.1,1.3,4.9h0
	C300.9,406.4,299.9,406.2,302.4,413L302.4,413z M313.2,411.7c0.1,1.2-0.4,2.4,0.8,2.4c0.1,0,0.1,0.2-0.1,0.1c-1.1,0-1,0-2,0
	c-0.2,0-0.2-0.1-0.1-0.1c1.1-0.1,0.4-2.2,0.6-3.2c0-0.1-3.8-0.1-3.9,0c0.2,1-0.4,2.8,0.4,3.2c0.2,0,0.8,0.1,0.3,0.2c-1.1,0-1,0-2,0
	c-0.5-0.2,0.6-0.1,0.4-0.6c0.1-0.9,0.1-4.5,0-5.3c0.1-0.6-0.5-0.4-0.8-0.6c0.2-0.2,1.2,0,1.2-0.1c0,0.1,1.2-0.2,1,0.1
	c-0.3,0-0.6,0.1-0.5,0.5c0-0.2-0.1,1.3,0,2.1c0.1-0.1,4.1,0.3,3.8-0.2c-0.2-1.7,0.5-2.2-0.7-2.4c-0.1,0-0.1-0.2,0.1-0.1
	c1,0,1,0,1.9,0c0.3,0,0,0.2-0.2,0.2C312.9,408.1,313.4,410.6,313.2,411.7L313.2,411.7z M317.2,410.2c-0.2-1.7,0.5-2.2-0.7-2.4
	c-0.1,0-0.1-0.2,0.1-0.1c1.2,0,2.5,0.2,3.7-0.1c0.1,0.1-0.1,0.8-0.1,1.1c-0.2,0.3-0.1-0.2-0.2-0.3c-0.1-0.3-1.8-0.4-2-0.2
	c0,0.1-0.1,2.4,0,2.4c0.5,0.1,1.8-0.1,2.1-0.2c-0.1,0.1,0,1.4-0.2,1.1c0.2-0.8-1.4-0.5-1.9-0.6c-0.1,0,0,0.7-0.1,0.8
	c0.2,1-0.6,2.3,1.1,2.2c0.5,0,1.3,0,1.3-0.7c0-0.2,0.2-0.2,0.2,0c-0.1,0.3,0.1,1.2-0.6,1.1c-1.3,0-2.1-0.1-3.2,0
	c-0.1,0-0.2-0.1-0.1-0.1C317.7,413.9,317,411.3,317.2,410.2L317.2,410.2z M324.2,413.1c0,1.1,0.3,0.9,0.9,1.1c-1,0.2-1,0-2,0.1
	c-0.4-0.1,0.1-0.2,0.3-0.2c0.6-0.3,0.1-5.4,0.3-6.1c-0.2-1.6,4.7,4.5,5.4,5c-0.3-0.7,0.6-5.6-0.9-5.2c-0.1,0-0.1-0.2,0.1-0.1
	c0.9,0.1,1.1-0.1,1.9,0.1c-0.4,0.2-0.7,0-0.6,0.9c-0.1,0.3,0.1,5.6-0.1,5.7c-0.9-0.5-4.5-4.5-5.4-5.3L324.2,413.1z M338.5,411.7
	c0.1,1.2-0.4,2.4,0.8,2.4c0.1,0,0.1,0.2-0.1,0.1c-1.1,0-1,0-2,0c-0.5-0.2,0.6-0.1,0.4-0.6c0.1-0.9,0.1-4.5,0-5.3
	c0-0.6-0.4-0.4-0.6-0.6c0.8-0.2,1.1,0,2-0.1c0.3,0,0,0.2-0.1,0.2C338.1,408.1,338.7,410.6,338.5,411.7z M344.7,411.7
	c0.1,1.2-0.4,2.4,0.8,2.4c0.1,0,0.1,0.2-0.1,0.1c-1.1,0-1.1,0-2,0c-0.5-0.1,0.6-0.1,0.5-0.6c0.1-0.9,0-4.4,0-5.5
	c-0.6,0.1-2.3-0.2-2.3,0.6c0,0.1-0.1,0.1-0.2,0c0.1-0.2,0.1-1,0.3-1.1c0.7,0.3,3.7,0.1,4.5,0.1c0.4,0.1,0.8-0.2,0.9,0
	c0,0.3,0.1,1-0.1,1.1c0-0.9-1.5-0.7-2.3-0.7V411.7L344.7,411.7z M349.3,406.1c-0.1-0.1-0.1-0.2,0-0.2c1.7-0.1,0.5,2.1-0.1,2.5
	C349.2,408,349.9,406.6,349.3,406.1L349.3,406.1z M352.2,414.1c-0.4-0.3,0-2.2,0.1-1c0.3,1.3,2.9,1,2.8-0.3c0.1-1.3-3.1-2.4-2.8-3.7
	c-0.1-1.6,2-1.8,3.2-1.5c0.2,0.1,0,0.3,0.1,1c-0.1,0.5-0.2-0.2-0.3-0.3c-0.1-0.1-0.4-0.4-1.2-0.4c-3.7,0.8,2.1,3.1,1.7,4.7
	C355.8,414.2,353.5,414.7,352.2,414.1z M365.6,411.7c0.1,1.2-0.4,2.4,0.8,2.4c0.1,0,0.1,0.2-0.1,0.1c-1.1,0-1.1,0-2,0
	c-0.5-0.1,0.6-0.1,0.5-0.6c0.1-0.9,0-4.4,0-5.5c-0.6,0.1-2.3-0.2-2.3,0.6c0,0.1-0.1,0.1-0.2,0c0.1-0.2,0.1-1,0.3-1.1
	c0.7,0.3,3.7,0.1,4.5,0.1c0.4,0.1,0.8-0.2,0.9,0c0,0.3,0.1,1-0.1,1.1c0-0.9-1.5-0.7-2.3-0.7L365.6,411.7L365.6,411.7z M376.4,411.7
	c0.1,1.2-0.4,2.4,0.8,2.4c0.1,0,0.1,0.2-0.1,0.1c-1.1-0.1-1.3,0.1-2.1-0.1c1.1-0.2,0.4-2.2,0.6-3.3c0-0.1-3.8-0.1-3.9,0
	c0.2,1-0.4,2.8,0.4,3.2c0.2,0,0.8,0.1,0.3,0.2c-1.1,0-1,0-2,0c-0.1,0-0.2-0.1-0.1-0.1c0.9-0.1,0.4-1.3,0.6-2.4
	c-0.2-1.1,0.4-3.7-0.4-3.9c-0.1,0-0.2,0-0.3,0c-0.1,0-0.1-0.2,0.1-0.1c0.4,0,1,0,1,0c0,0.1,1.2-0.2,1,0.1c-0.3,0-0.6,0.1-0.5,0.5
	c0-0.2-0.1,1.3,0,2.1c0.1-0.1,4.1,0.3,3.8-0.2c-0.2-1.7,0.5-2.2-0.7-2.4c-0.1,0-0.1-0.2,0.1-0.1c1,0,1,0,1.9,0c0.3,0,0,0.2-0.1,0.2
	C376,408.1,376.5,410.6,376.4,411.7z M380.4,410.2c-0.2-1.7,0.5-2.2-0.7-2.4c-0.1,0-0.1-0.2,0.1-0.1c1.2,0,2.5,0.2,3.7-0.1
	c0.1,0.1-0.1,0.8-0.1,1.1c-0.2,0.3-0.1-0.2-0.2-0.3c-0.1-0.3-1.8-0.4-2-0.2c0,0.1-0.1,2.4,0,2.4c0.5,0.1,1.8-0.1,2.1-0.2
	c-0.1,0.1,0,1.4-0.2,1.1c0.2-0.8-1.4-0.5-1.9-0.6c-0.1,0,0,0.7-0.1,0.8c0.2,1-0.6,2.3,1.1,2.2c0.5,0,1.3,0,1.3-0.7
	c0-0.2,0.2-0.2,0.2,0c-0.1,0.3,0.1,1.2-0.6,1.1c-1.3,0-2.1-0.1-3.2,0c-0.1,0-0.2-0.1-0.1-0.1C380.9,413.9,380.1,411.3,380.4,410.2
	L380.4,410.2z M387.8,411.7c0.1,1.2-0.4,2.4,0.8,2.4c0.1,0,0.1,0.2-0.1,0.1c-1.1,0-1,0-2,0c-0.5-0.2,0.6-0.1,0.4-0.6
	c0.1-0.9,0.1-4.5,0-5.3c0-0.6-0.4-0.4-0.6-0.6c0.8-0.2,1.1,0,2-0.1c0.3,0,0,0.2-0.1,0.2C387.4,408.1,388,410.6,387.8,411.7z
	 M391.8,410.2c-0.1-1.9,0.5-2.1-0.8-2.4c2.5-0.5,6.7,0.3,3.5,3.5c1.1,1.3,1.9,2.8,3.3,2.9c-0.4,0.2-1.5,0.1-1.7-0.1
	c-1.2-0.6-1.7-3.1-3.5-2.6c-0.1,0-0.1,0.2-0.1,0.3c0.1,1.2-0.4,2.4,0.8,2.4c0.1,0,0.1,0.2-0.1,0.1c-1.1-0.1-1.2,0.1-2.1-0.1
	C392.3,413.9,391.6,411.4,391.8,410.2L391.8,410.2z M392.6,410.9c2.3,1.5,3.3-2.9,0.7-3c-0.3,0-0.6-0.1-0.7,0.2
	C392.6,408.1,392.6,410.9,392.6,410.9z M406,411.7c0.1,1.2-0.4,2.4,0.8,2.4c0.1,0,0.1,0.2-0.1,0.1c-1.1,0-1.1,0-2,0
	c-0.5-0.1,0.6-0.1,0.5-0.6c0.1-0.9,0-4.4,0-5.5c-0.6,0.1-2.3-0.2-2.3,0.6c0,0.1-0.1,0.1-0.2,0c0.1-0.2,0.1-1,0.3-1.1
	c0.7,0.3,3.7,0.1,4.5,0.1c0.4,0.1,0.8-0.2,0.9,0c0,0.3,0.1,1-0.1,1.1c0-0.9-1.5-0.7-2.3-0.7L406,411.7L406,411.7z M412.1,411.7
	c0.1,1.2-0.4,2.4,0.8,2.4c0.1,0,0.1,0.2-0.1,0.1c-1.1,0-1,0-2,0c-0.5-0.2,0.6-0.1,0.4-0.6c0.1-0.9,0.1-4.5,0-5.3
	c0-0.6-0.4-0.4-0.6-0.6c0.8-0.2,1.1,0,2-0.1c0.3,0,0,0.2-0.1,0.2C411.7,408.1,412.2,410.6,412.1,411.7z M423,413.1
	c-0.1,0.7,0.6,1,1.1,1c-0.2,0.2-1.3,0-1.7,0c-0.3,0-0.3-0.1-0.2-0.2c0.1,0,0.1-0.1,0-0.3l-0.4-4.4h0c-3,5.9-1.8,6.5-5,0.1h0
	c0.1,0.5-0.7,4.4-0.1,4.6c0.2,0,0.7,0.1,0.3,0.2c-0.8-0.1-1.1,0.1-1.7-0.1c0.4-0.1,0.7-0.2,0.7-0.8c0.9-8.4,0.4-6.3,3.6-0.3
	C422.4,407.7,422.2,404.4,423,413.1z M426.7,410.2c-0.2-1.7,0.5-2.2-0.7-2.4c-0.1,0-0.1-0.2,0.1-0.1c1.2,0,2.5,0.2,3.7-0.1
	c0.1,0.1-0.1,0.8-0.1,1.1c-0.2,0.3-0.1-0.2-0.2-0.3c-0.1-0.3-1.8-0.4-2-0.2c0,0.1-0.1,2.4,0,2.4c0.5,0.1,1.8-0.1,2.1-0.2
	c-0.1,0.1,0,1.4-0.2,1.1c0.2-0.8-1.4-0.5-1.9-0.6c-0.1,0,0,0.7-0.1,0.8c0.2,1-0.6,2.3,1.1,2.2c0.5,0,1.3,0,1.3-0.7
	c0-0.2,0.2-0.2,0.2,0c-0.1,0.3,0.1,1.2-0.6,1.1c-1.3,0-2.1-0.1-3.2,0c-0.1,0-0.2-0.1-0.1-0.1C427.2,413.9,426.5,411.3,426.7,410.2
	L426.7,410.2z"/>
</svg>
