<?xml version="1.0" encoding="utf-8"?>
<!-- Generator: Adobe Illustrator 26.5.0, SVG Export Plug-In . SVG Version: 6.00 Build 0)  -->
<svg version="1.1" id="圖層_1" xmlns="http://www.w3.org/2000/svg" xmlns:xlink="http://www.w3.org/1999/xlink" x="0px" y="0px"
	 viewBox="0 0 650 356" style="enable-background:new 0 0 650 356;" xml:space="preserve">
<style type="text/css">
	.st0{fill:#666666;}
	.st1{fill:url(#SVGID_1_);}
	
		.st2{clip-path:url(#SVGID_00000175300859304691008680000011872312431773414584_);fill:none;stroke:#FFFFFF;stroke-width:26;stroke-linecap:round;stroke-miterlimit:10;stroke-dasharray:132;stroke-dashoffset:132;}
	
		.st3{clip-path:url(#SVGID_00000045590595119404493530000014427657927854533554_);fill:none;stroke:#FFFFFF;stroke-width:50;stroke-linecap:round;stroke-miterlimit:10;stroke-dasharray:646;stroke-dashoffset:646;}
	
		.st4{clip-path:url(#SVGID_00000147939916052185520550000012852983469777962114_);fill:none;stroke:#FFFFFF;stroke-width:24;stroke-linecap:round;stroke-miterlimit:10;stroke-dasharray:406;stroke-dashoffset:406;}
	
		.st5{clip-path:url(#SVGID_00000151544301302811935760000015535054581150105769_);fill:none;stroke:#FFFFFF;stroke-width:24;stroke-linecap:round;stroke-miterlimit:10;}
	
		.st6{clip-path:url(#SVGID_00000067951834959513181610000011497487330762918312_);fill:none;stroke:#FFFFFF;stroke-width:39;stroke-linecap:round;stroke-miterlimit:10;}
	
		.st7{clip-path:url(#SVGID_00000081607424854305022990000002139529464655067566_);fill:none;stroke:#FFFFFF;stroke-width:24;stroke-linecap:round;stroke-miterlimit:10;}
	
		.st8{clip-path:url(#SVGID_00000088130351322429457370000007329564075153882769_);fill:none;stroke:#FFFFFF;stroke-width:24;stroke-linecap:round;stroke-miterlimit:10;}
	
		.st9{clip-path:url(#SVGID_00000160162591111361290920000013050283791961544330_);fill:none;stroke:#FFFFFF;stroke-width:40;stroke-linecap:round;stroke-miterlimit:10;}
	.st10{fill:url(#SVGID_00000117669264346408526310000015095044520069184401_);}
</style>
<rect x="-64" y="-73" class="st0" width="762" height="498"/>
<linearGradient id="SVGID_1_" gradientUnits="userSpaceOnUse" x1="66.2" y1="358" x2="66.2" y2="8" gradientTransform="matrix(1 0 0 -1 0 358)">
	<stop  offset="0" style="stop-color:#FFFFFF"/>
	<stop  offset="1" style="stop-color:#000000"/>
</linearGradient>
<path class="st1" d="M18.8,43.2c-3.1,0-5.8,0.3-8.7,1L9.3,39c3.3,0.8,6,1.2,9.5,1.2H96l10.2-11.5c15.5,12.4,18.9,14.4,13.7,14.4
	 M84.3,99.4H45.7v18h38.7L84.3,99.4L84.3,99.4z M45.7,120.2V141h38.7v-20.8H45.7z M1.9,119.5L1,118.2c29.3-22.4,48.3-54.7,51.7-95
	c36.9,3.4,17.5,8.6,15.9,8.7C58,80.9,32.5,105.4,1.9,119.5z M72.7,60.8H22.8c-3.5,0-5,0.1-8,0.8L14,56.9c3.5,0.7,5.6,1,9,1h69
	l9-10.5c14.9,11.6,18.6,13.4,13.5,13.4H75.3l0,0c10.8,25.4,34.8,35.7,56.1,39.1l-0.1,1.9c-18.9,9.6-1.3,26.1-31.8,1.1l-0.8,0.6
	c0.2,15.2,0.6,30,1.2,44.3c-0.1,3-1.9,3.7-10,3.7c-4.9,0-5.4-0.3-5.4-2.8v-4.8H45.7v4.6c-0.1,3-1.8,3.7-9.2,3.7c-5,0-5.8-0.4-5.8-3
	c0.9-33.4,0.8-32.6,0.4-60.8c5.7,0.9,12.4,5.7,15.7,8.1h36.8c2.3-2.6,3.1-3.5,4.9-5.4C81.1,82,75.7,71.9,72.7,60.8z M13.4,80.3
	c-3.9,0-6.5,0.3-9.5,1L3,76.1c3.9,1,6.8,1.2,10.5,1.2h89.7l9.5-11.6c15.9,12.7,19,14.5,13.9,14.5 M30.5,271.8
	c-4.1,0,0.8-11.3-7.9-12.3c0,12.7,0,22.6,0.1,37.2c-0.1,3-1.6,3.6-9.5,3.9c-2.9,0.1-5.6-0.1-5.3-3.5c1.2-45.3,1.1-95.2,0-124.9
	c7.1,3.3,9.2,4.4,15.6,8.4h10.4c3-3.5,4.1-4.4,7.3-8c16.8,13,14,12.3,9.2,14c-7.5,12.6-13,20.8-21.6,31.8
	C54.8,235.9,52.9,271.8,30.5,271.8z M37,267c8.3-3.1,22.5-20.8,26.4-32.8h-6.7c-5.4,0-7.5,0.1-10.5,0.7l-0.8-4.8
	c4.1,0.8,7.5,1.2,11.4,1.2h50.6c3.8-4.7,5-6.1,9-10.2c13.2,11.1,17.1,13.1,11.5,13.1H80.3c-3.3,4.6-5.2,7.2-8.1,10.7h37.5
	c2.8-3.2,3.7-4,6.5-6.9c14.4,10.6,15,10.3,7.6,14.5c-3.2,30.8-4.2,47.9-26,47.9c-5.1,0,3.7-9.1-14-14l0.1-1.7
	c18.3,1.3,19.7,2.3,21.9-4.3c2.3-7.1,3.5-16.6,4.8-32.7h-2.3c-9.7,27-27.9,42.4-55.1,51.3l-0.8-1.5c22.3-14.4,33.3-26.6,43.2-49.8
	H88c-11.2,20.4-25,31.7-49,41.4l-0.8-1.4c17.4-12.6,27.3-22.5,35.2-40h-3.5C62.5,255.4,45.7,266.2,37,267z M22.4,257.5
	c10.4,0,12.9,3.1,12.9-13c0-10.1-2.5-17.3-9.5-25.9c3.5-11.3,5.6-19.4,9.1-35.1H22.4V257.5z M70.2,222.5c-0.5,3.7-4.2,2.5-9.9,3
	c-3.7,0-4.6-0.7-4.6-3.2c0.6-11.1,0.6-43-0.1-50.2c7.3,3.5,9.5,4.6,16.3,8.4h26.9c3-3.7,3.9-4.8,7.1-8.4
	c16.8,10.6,14.7,10.4,8.5,14.4c0,17.2,0.1,28.6,0.3,34.3c0,4-3,3.1-9.4,3.6c-6,0.3-4.9-1.7-5-5.3h-30L70.2,222.5z M100.2,183.5h-30
	v14.2h30V183.5z M70.2,200.7v15.6h30v-15.6H70.2z"/>
<g>
	<g>
		<g>
			<defs>
				<path id="SVGID_00000057140335367622175580000000209655953150412457_" d="M313.2,174.7c1.4-0.8,2.8-0.8,3.5,1.5
					c9.9,2.3,26.1,5.7,35.4,2.6c12.1-9.3,23.4-22.4,24.8-38.6c-0.7-1.5-1.4-3.9,0-5.4l0,0c-8.3-4.8-16.8-8.1-25.4-8.8
					c5,10.8-1.4,22.4-7.8,30.1c-4.3,1.5-8.5,3.9-12.1,7c-3.5-2.3-7.1,2.3-9.9-1.5c-3.3-3.9-6.9-7.8-12.1-11.6
					c-2.8,0-2.1-3.9-3.5-5.4c-0.8-2.1-0.8-4-0.2-5.6l0.2-11.4c-2.1-1.5-0.7-3.9-2.1-6.2l-1.4,7l-3,17c0.4,0.6,1.2,1,1.6,2.4
					c-2.1,3.9,2.1,7,2.1,10.8C304.4,162.6,308.3,168.4,313.2,174.7z M420.1,264.7c1.9,7.3-0.6,17,5.6,23.1c0,5.5,5,8.5,6.2,13.4
					c3.7,4.9,13,7.6,18.6,8.2c1.2-0.6,3.7,0,5.6-0.6c8.7-7.9,11.9-18.8,16.9-29.2c0-4.3,3.1-7.3,4.4-11.6c-0.6-4.3,3.1-7.9,2.5-12.2
					c5-3.6,1.9-10.9,6.2-15.2c0.6-7.3,3.7-11.9,10-18c1.7-5-0.7-9.7,1-18c-1-0.9-1-2.8-1-4.4c3.1-3.6,1.3-9.1,5-12.8
					c0-1.8,1.2-3.7,1.2-5.5c2.5-2.4,2.5-5.5,3.1-8.5c3.8-1.8,3.8-5.5,4.4-8.5c3.1-6.1,3.8-12.2,7.5-17.6
					c-0.6-10.3,9.4-16.4,8.1-26.8c4.4-3.6,0.7-8.5,4.5-11.6c1.9-1.2,4.4-1.8,5.6,0.6c-1.3,7.9,5,12.8,5,19.5c1.3,1.8,3.8,3,5.6,1.2
					c5.6,1.8,11.2-0.6,16.9-1.2c3.8-2.4,8.1-1.2,12.5-3.6c3.7,0.6,8.7-3,13.8-3c3.1-3.6,8.1,1.2,11.2-2.4c5,0,7.5-4.9,11.2-5.5
					c0.6-1.2,1.3-2.4,3.1-3c0.6-5.5-5.6-6.1-7.5-9.7c-3.1,0-5.6-1.2-7.5-3.6c-2.5-2.4-6.9-1.2-8.7-3c-3.1,1.2-5.6-1.2-8.1-0.6
					c-1.3-0.6-2.5-1.8-1.9-3c7.5-7.3,17.5-12.8,24.4-20.7c3.1-1.8,6.2-5.5,10-5.5c3.8-4.9,10.6-6.1,15-9.1c1.9-1.8,1.9-5.5,1.2-7.9
					c3.7-4.9-3.1-7.9-5.6-12.2c-5-1.8-10-6.7-14.4-10.9c-3.1,0.6-5-3-8.1-3c-6.2,2.4-13.8,3.6-17.5,8.5c-11,1.6-19.1,12.6-31.6,13.2
					c-5,2.4-11.2,1.8-16.2,3c-6.9-1.2-15,0.6-21.9,3.6c-0.6-0.6-1.9,0-2.5,0.6c-1.3,3-3.8,0-5-0.6c-5,0.6-9.4-0.6-13.7-3.6
					c-2.5-0.6-4.4-4.3-6.2-1.8c-1.9,3-5,6.7-3.1,10.9c-1.3,4.3,3.1,6.7,5.6,9.1c5.6,2.4,6.9,7.9,11.2,10.3
					c3.1,5.5,9.4,11.6,16.9,11.6c1.9,1.8,4.4,0,6.9,0c1.9,0,3.1-3,5-2.4c1.9-3,6.2-1.2,8.1-4.3c1.2-0.6,3.1-1.2,3.7,0.6
					c1.9,2.4,0.6,5.5,0.6,8.5c-1.9,1.2-1.2,4.3-1.2,6.1c-3.1,1.2-2.5,4.9-6.2,4.9c-0.6,4.3-5.6,5.5-9.4,6.7c-2.5,3-15,7-17.5,9.4
					c-3.1,6.7-7.5,13.4-10.6,20.1c0,1.2,0,3.6-1.9,4.9c-3.7,9.7-6.9,19.5-10,29.2c-3.1,3.6-4.4,10.3-4.4,15.2c0.6,1.8-2.5,1.8-1.3,3
					l-2.5,3c-1.9,7.3,3,13.1-3.3,17.9c-1,3.5,0,10.3-6.5,14c1.9,0,2.5,1.8,3.1,3c-3.8,3-1.9,7.9-5,10.9l0,0
					c-0.6,2.4-4.4,5.5-2.5,8.5c0.6,3.6-3.1,3.6-3.7,6.7c-0.6,2.4-1.9,5.5-3.7,7.9c1.2,3.6-2.5,6.1-3.1,9.7c-3.1,1.8-2.5,4.9-5.6,6.7
					c0.6,3.7-3.7,4.3-4.4,7.3c-5,3-3.4,0-8.4-0.6c-8.1-4.3-11.9-12.8-13.8-21.3L420.1,264.7z"/>
			</defs>
			<clipPath id="SVGID_00000065760205314621573340000000524489418281953968_">
				<use xlink:href="#SVGID_00000057140335367622175580000000209655953150412457_"  style="overflow:visible;"/>
			</clipPath>
			
				<path id="l2" style="clip-path:url(#SVGID_00000065760205314621573340000000524489418281953968_);fill:none;stroke:#FFFFFF;stroke-width:26;stroke-linecap:round;stroke-miterlimit:10;stroke-dasharray:132;stroke-dashoffset:132;" d="
				M365.5,133.2c-5.2,60.7-77.3,50.4-71.7-11.8			">
<animate  accumulate="none" additive="replace" attributeName="stroke-dashoffset" calcMode="linear" dur="1.32s" fill="freeze" restart="always" to="0">
					</animate>
			</path>
		</g>
	</g>
	<g>
		<g>
			<defs>
				<path id="SVGID_00000142882211505022343160000005411150701079423641_" d="M313.2,174.7c1.4-0.8,2.8-0.8,3.5,1.5
					c9.9,2.3,26.1,5.7,35.4,2.6c12.1-9.3,23.4-22.4,24.8-38.6c-0.7-1.5-1.4-3.9,0-5.4l0,0c-8.3-4.8-16.8-8.1-25.4-8.8
					c5,10.8-1.4,22.4-7.8,30.1c-4.3,1.5-8.5,3.9-12.1,7c-3.5-2.3-7.1,2.3-9.9-1.5c-3.3-3.9-6.9-7.8-12.1-11.6
					c-2.8,0-2.1-3.9-3.5-5.4c-0.8-2.1-0.8-4-0.2-5.6l0.2-11.4c-2.1-1.5-0.7-3.9-2.1-6.2l-1.4,7l-3,17c0.4,0.6,1.2,1,1.6,2.4
					c-2.1,3.9,2.1,7,2.1,10.8C304.4,162.6,308.3,168.4,313.2,174.7z M420.1,264.7c1.9,7.3-0.6,17,5.6,23.1c0,5.5,5,8.5,6.2,13.4
					c3.7,4.9,13,7.6,18.6,8.2c1.2-0.6,3.7,0,5.6-0.6c8.7-7.9,11.9-18.8,16.9-29.2c0-4.3,3.1-7.3,4.4-11.6c-0.6-4.3,3.1-7.9,2.5-12.2
					c5-3.6,1.9-10.9,6.2-15.2c0.6-7.3,3.7-11.9,10-18c1.7-5-0.7-9.7,1-18c-1-0.9-1-2.8-1-4.4c3.1-3.6,1.3-9.1,5-12.8
					c0-1.8,1.2-3.7,1.2-5.5c2.5-2.4,2.5-5.5,3.1-8.5c3.8-1.8,3.8-5.5,4.4-8.5c3.1-6.1,3.8-12.2,7.5-17.6
					c-0.6-10.3,9.4-16.4,8.1-26.8c4.4-3.6,0.7-8.5,4.5-11.6c1.9-1.2,4.4-1.8,5.6,0.6c-1.3,7.9,5,12.8,5,19.5c1.3,1.8,3.8,3,5.6,1.2
					c5.6,1.8,11.2-0.6,16.9-1.2c3.8-2.4,8.1-1.2,12.5-3.6c3.7,0.6,8.7-3,13.8-3c3.1-3.6,8.1,1.2,11.2-2.4c5,0,7.5-4.9,11.2-5.5
					c0.6-1.2,1.3-2.4,3.1-3c0.6-5.5-5.6-6.1-7.5-9.7c-3.1,0-5.6-1.2-7.5-3.6c-2.5-2.4-6.9-1.2-8.7-3c-3.1,1.2-5.6-1.2-8.1-0.6
					c-1.3-0.6-2.5-1.8-1.9-3c7.5-7.3,17.5-12.8,24.4-20.7c3.1-1.8,6.2-5.5,10-5.5c3.8-4.9,10.6-6.1,15-9.1c1.9-1.8,1.9-5.5,1.2-7.9
					c3.7-4.9-3.1-7.9-5.6-12.2c-5-1.8-10-6.7-14.4-10.9c-3.1,0.6-5-3-8.1-3c-6.2,2.4-13.8,3.6-17.5,8.5c-11,1.6-19.1,12.6-31.6,13.2
					c-5,2.4-11.2,1.8-16.2,3c-6.9-1.2-15,0.6-21.9,3.6c-0.6-0.6-1.9,0-2.5,0.6c-1.3,3-3.8,0-5-0.6c-5,0.6-9.4-0.6-13.7-3.6
					c-2.5-0.6-4.4-4.3-6.2-1.8c-1.9,3-5,6.7-3.1,10.9c-1.3,4.3,3.1,6.7,5.6,9.1c5.6,2.4,6.9,7.9,11.2,10.3
					c3.1,5.5,9.4,11.6,16.9,11.6c1.9,1.8,4.4,0,6.9,0c1.9,0,3.1-3,5-2.4c1.9-3,6.2-1.2,8.1-4.3c1.2-0.6,3.1-1.2,3.7,0.6
					c1.9,2.4,0.6,5.5,0.6,8.5c-1.9,1.2-1.2,4.3-1.2,6.1c-3.1,1.2-2.5,4.9-6.2,4.9c-0.6,4.3-5.6,5.5-9.4,6.7c-2.5,3-15,7-17.5,9.4
					c-3.1,6.7-7.5,13.4-10.6,20.1c0,1.2,0,3.6-1.9,4.9c-3.7,9.7-6.9,19.5-10,29.2c-3.1,3.6-4.4,10.3-4.4,15.2c0.6,1.8-2.5,1.8-1.3,3
					l-2.5,3c-1.9,7.3,3,13.1-3.3,17.9c-1,3.5,0,10.3-6.5,14c1.9,0,2.5,1.8,3.1,3c-3.8,3-1.9,7.9-5,10.9l0,0
					c-0.6,2.4-4.4,5.5-2.5,8.5c0.6,3.6-3.1,3.6-3.7,6.7c-0.6,2.4-1.9,5.5-3.7,7.9c1.2,3.6-2.5,6.1-3.1,9.7c-3.1,1.8-2.5,4.9-5.6,6.7
					c0.6,3.7-3.7,4.3-4.4,7.3c-5,3-3.4,0-8.4-0.6c-8.1-4.3-11.9-12.8-13.8-21.3L420.1,264.7z"/>
			</defs>
			<clipPath id="SVGID_00000072243113209597178930000018367492127165506214_">
				<use xlink:href="#SVGID_00000142882211505022343160000005411150701079423641_"  style="overflow:visible;"/>
			</clipPath>
			
				<path id="l6" style="clip-path:url(#SVGID_00000072243113209597178930000018367492127165506214_);fill:none;stroke:#FFFFFF;stroke-width:50;stroke-linecap:round;stroke-miterlimit:10;stroke-dasharray:646;stroke-dashoffset:646;" d="
				M484.9,42.4c50.2,52,14.7-1.2,135.3-7.4c-25,15.7-47.3,31.7-56.7,40.7c5.4,20.9-28.4,61.8,35.7,32.1
				c-37.7-10.8-85.6-3.7-89.8,27.8c-18.4,136.6-58.6,219.5-100.1,133			">
<animate  accumulate="none" additive="replace" attributeName="stroke-dashoffset" calcMode="linear" dur="1.32s" fill="freeze" restart="always" to="0">
					</animate>
			</path>
		</g>
	</g>
</g>
<g>
	<g>
		<g>
			<defs>
				<path id="SVGID_00000183966414350385026000000017508115226956052661_" d="M376.9,134.8c0-3.9-8.4-11.1-10.5-14.2
					c-3.5-5.4-9.2-9.3-15.6-8.5c-2.1,0-3.5,4.6-5.7,1.5c-3.5,1.5-8.5,0.8-12.1,3.1l-14.9,3.9c-2.1,5.4-7.8,5.4-12.1,7l-3.5,0.8
					c-5,9.3-15.6,8.5-21.3,16.2c-4.3-0.8-7.8,7-12.8,3.9c9.2-14.7,18.4-28.6,27.7-42.5c0.7-6.2,5.7-12.4,7.8-18.5
					c3.5-7,6.4-17,2.1-24c-0.7-3.9-4.3-3.1-6.4-4.6c-5,2.3-9.2-1.5-12.1,3.9c-5-5.4-8.5,4.6-11.3-3.1l5-7.7c4.3-2.3,5-7.7,9.2-11.6
					c3.5-7.7,10.6-12.4,12.1-20.9c0.7-3.9-0.7-8.5-2.8-11.6c-2.1-2.3-6.4-5.4-10-3.9c0.7-3.9-3.5-2.3-5-3.9L284,1.6
					c-5-1.5-3.5,6.2-8.5,7c-0.7,3.9,5,0,5.7,3.1c2.1,3.9-2.6,6.2-4,9.3c1.4,3.1-2.1,4.6-1.4,7.7c-4.3,6.2-9.2,13.1-11.3,20.1
					c-2.1,5.4-7.8,9.3-7.1,15.5c-2.8,4.6-1.4,10,1.4,14.7c5.7,0,11.8-5.4,16.1-8.5c0.7-0.8,3.5,0,3.5-2.3c5.7-0.8,9.2-5.4,14.9-1.5
					c2.8,3.1,2.1,7,2.1,10.1c-4.3,12.4-11.3,24-18.4,34.8c-2.1,4.6-7.1,6.2-7.8,11.6c-2.1,2.3-6.4,3.9-6.4,7.7
					c-5.7,6.2-9.9,12.4-14.9,17c0.7,3.9-3.6,4.6-5,7.7c-1.4,7-2.1,14.7-2.8,22.4c0.7,3.1,2.8,6.2,5,8.5c8.5-0.8,15.6-3.9,21.3-11.6
					c6.4-13.1,18.4-18.5,28.4-27.8c0.8-1.3,3.4-1.8,4.8-1.6c1.9-2.7,4.8-3.6,6.3-6.3c1.3-3.3,5.9-8.4,9.6-6.6l17.7-10.2
					c5.7-0.8,14.9-3.1,18.4,3.9C356.4,130.9,366.2,133.1,376.9,134.8z M379.7,260.7c-10.3-6.6-21.5-1-31.9-1
					c-6.9,5.7-13.8,2.8-21.5,5.7c-6,4.7-14.6,0.9-18.9,8.5c-6.9-3.8-13.8,2.8-20.7,2.8c-5.2,0.9-9.5,0-12.9,2.8
					c-6.9-2.8-14.6,0.9-22.4,0c-0.9-1.9-4.3-1.9-6-1c-2.6-1.9-5.2-1-6.9-1.9c-12.1-0.9-19.8-10.4-28.4-18.9
					c-8.6-6.6-13.8-18-21.5-26.5c-3.4-2.8-6.9-7.6-10.3-9.5v3.8c6.9,7.6,8.6,18.9,13.8,27.4c0,2.8,0.9,5.7,3.4,6.6
					c-0.9,4.7,5.2,5.7,4.3,9.5c4.3,6.6,8.6,16.9,14.6,22.6c5.2,8.5,14.6,6.6,20.7,13.2c1.7-3.8,5.2,0.9,8.6-1
					c11.2-2.8,24.1,0,34.4-7.6l0.9,0.9c-1.7,4.7-7.7,7.6-8.6,12.3c2.6,0,4.3-2.8,8.6-1.9c7.7-5.7,17.2-11.3,27.5-11.3
					c3.4-2.8,9.5-0.9,12-5.7c13.8,0,25.8-7.6,38.7-4.7c11.2-3.8,19.8,1.9,31-1l1.7-1c0.9-1.9,2.6-4.7,0.9-5.7
					C391.8,270,383.2,265.4,379.7,260.7L379.7,260.7z M174.6,181.6c1.9,5.3-2.6,8.4-4.5,9.9c3.8,3.1,6.4-0.7,10.2,3.1
					c6.4,0,13.4,8.4,19.7,7.7c7.7-2.3,7.1-12.9,10.3-19.8c2.6-7.6-2.5-16-8.2-19.9c-13.5-7.9-22.9-10-38.2-8.6
					c-0.6,3.8-4.5,1.5-6.4,2.3C163.2,164.7,171.5,170.1,174.6,181.6L174.6,181.6z M401.8,170.6c-3.5-5.1-14.5-7.2-19.5-7.2
					c-0.7,1.7,2.1,3.4,3.5,6c1.4,4.2,0,8.5-2.8,11.9c-5.7,0.9-8.5,9.4-14.9,8.5c-2.8,5.1-9.2,1.7-10.6,7.7
					c5.7,5.1,16.6,2.9,24.4,3.8c0.7-2.6,3.5-0.9,5.7-0.9c5.7-4.3,14.2-5.1,17.7-13.6c0.7-4.3,0-8.5-0.7-13.6
					C403.9,172.3,403.2,170.6,401.8,170.6L401.8,170.6z M379.8,218.1c-1.3-2.6-4-3.9-6.3-4.8c-2,1-3-2.3-5-1.3c-1-1.3-2.7,0.3-4-1
					c-1.3,1.6-3-1-4.6-0.3c-1.3-1.3-2,0.6-3.7,0.3c1.3,0.3,2.3,1.6,3.3,2.6c3.3,1.6,2.1,1,4.1,3.6l-0.7,0.6c-3,5.2-8.3,8.4-13,11.6
					c-3.3,1-6.6,4.2-10,2.6c-0.3,0.6-1.3-0.6-1.7,0.3c-3-0.3-7-1-9-3.6c-2.3-0.6-2.7-3.2-4.6-4.2c-1-2.3-0.1-0.1-0.8-3
					c-3,0-2.7-3.2-4-4.8c-2.7-1.9-2.3-6.1-5-8.1c-0.3-2.9-2.3-5.5-3.7-7.4c-0.7-2.9-2.3-5.2-3.7-7.4c-1.3-1.9-1.3-4.8-3.7-5.5
					c-0.3,2.9,0.3,5.8,0.7,8.7c0.3,1,0,2.3,0.7,2.9c0,4.5,3.3,7.8,2.7,12.3c0.7,1.9,1.3,3.6,2.3,5.5c-0.3,2.3,1.3,3.2,1.3,5.2
					c1.3,1.3,2,3.2,3,4.2c2,3.9,7.8,16.2,11.8,18.7c2,0,3.3,1.9,5,2.3c4,1.9,8.3,2.6,12.3,3.2c1.7-0.6,3.7,0,5.3-0.6
					c4,0,8.3-1.3,11.6-3.6c3.7-1.3,7-3.6,10.6-5.2c2-2.6,5-4.2,7.3-7.1C380.6,232.6,381.5,221.3,379.8,218.1L379.8,218.1z
					 M571.6,200.3c1.6-1,3.5-1.8,6-2.2c5.6-3.6,12.5-1.2,18.8-3c3.7-2.4,10-0.6,11.9-4.9c0.6,0,0,0.6,0,1.2c3.1,1.2,4.4-1.2,7.5-0.6
					c3.1-3,9.4-0.6,13.8-1.8c1.9-0.6,4.4-2.4,6.9-1.2c1.9-1.2,3.7,0,5-0.6c5,1.8,6.2-5.1,8.1-7.6c1.9-1.2-1.3-3-1.9-4.3l0,0
					c-2.5-4.9-6.2-6.7-11.2-9.1c-6.9,1.2-12.5,1.8-19.4,0c-3.8-1.8-8.1,1.2-10-1.8c-1.3,0.6-2.5,0.6-3.1,1.2l5.6,7.3
					c3.1,4.9-3.1,1.8-3.7,4.9c-2.5,0-5,1.8-7.5,1.2c-5.6,1.8-12.5,1.8-18.1,4.9l-1.9-1.2c-6.4,2.8-12.7,5.4-18.8,5.5
					c-4.4,6.7-11.2,3.6-18.1,4.9c-3.8,3-7.5-0.6-10.6,2.4c-3.1,3.6-8.1,3-11.9,4.3c-1.9,4.9-6.2,0.6-10,1.8
					c-3.7,1.8-5.7,1.8-9.5,3.6c-1,0.2-1.7,0-2.2-0.4c-5.1,0.5-12.7,2.4-21.7,5.3c-9.8,4.8-16.3,7.8-21.9,10.9
					c-2.5,0.6-4.4,4.3-6.9,4.3c-5.6,3-4.2,9.8-9.8,12.2c-3.7,4.3-8.7,7.3-11.9,12.8c-5-0.6-1.2,6.1-4.4,7.9c3.1,1.8,0,4.9-0.6,6.7
					l1.9-1.8c0.6,0,0.6-0.6,1.3-1.2c-1.9-2.4,1.9-2.4,2.5-4.3c3.8-6.7,12.5-9.1,17.5-15.8c6.2-3,8.4-7.3,14.7-9.7
					c5-3.6,6.2-5.5,11.2-7.9c10.5-1.5,21.4-3.2,27.2-1.2c1.9-2.4,2.6-2.8,5.8-4.6c1.9,1.2,4.4-1.2,6.9-1.2c2.5,1.2,3.8-2.4,6.2-1.8
					c3.1-2.4,5.6,0,8.1-2.4c6.9,0,12.5-4.3,18.7-5.5c1.9-3.6,6.9-1.8,9.4-3.6c1.9-0.6,2.5,1.2,3.8,1.8
					C561.3,202.1,566.9,200.3,571.6,200.3z"/>
			</defs>
			<clipPath id="SVGID_00000118395917005523480040000012618745307170347400_">
				<use xlink:href="#SVGID_00000183966414350385026000000017508115226956052661_"  style="overflow:visible;"/>
			</clipPath>
			
				<path id="l1" style="clip-path:url(#SVGID_00000118395917005523480040000012618745307170347400_);fill:none;stroke:#FFFFFF;stroke-width:24;stroke-linecap:round;stroke-miterlimit:10;stroke-dasharray:406;stroke-dashoffset:406;" d="
				M277.6-0.8c3.4,0,29.7,3.7,1,40.1c-25.1,31.8-17.8,36.4,6.4,28.2c51.7-17.5-34.3,74.7-46.3,108.6c18.8,19.3,93.6-102,126.8-42.8
							">
<animate  accumulate="none" additive="replace" attributeName="stroke-dashoffset" begin="an1" calcMode="linear" dur="1.32s" fill="freeze" id="an2" restart="always" to="0">
					</animate>
			</path>
		</g>
	</g>
	<g>
		<g>
			<defs>
				<path id="SVGID_00000076605438317311899270000014058802457214707608_" d="M376.9,134.8c0-3.9-8.4-11.1-10.5-14.2
					c-3.5-5.4-9.2-9.3-15.6-8.5c-2.1,0-3.5,4.6-5.7,1.5c-3.5,1.5-8.5,0.8-12.1,3.1l-14.9,3.9c-2.1,5.4-7.8,5.4-12.1,7l-3.5,0.8
					c-5,9.3-15.6,8.5-21.3,16.2c-4.3-0.8-7.8,7-12.8,3.9c9.2-14.7,18.4-28.6,27.7-42.5c0.7-6.2,5.7-12.4,7.8-18.5
					c3.5-7,6.4-17,2.1-24c-0.7-3.9-4.3-3.1-6.4-4.6c-5,2.3-9.2-1.5-12.1,3.9c-5-5.4-8.5,4.6-11.3-3.1l5-7.7c4.3-2.3,5-7.7,9.2-11.6
					c3.5-7.7,10.6-12.4,12.1-20.9c0.7-3.9-0.7-8.5-2.8-11.6c-2.1-2.3-6.4-5.4-10-3.9c0.7-3.9-3.5-2.3-5-3.9L284,1.6
					c-5-1.5-3.5,6.2-8.5,7c-0.7,3.9,5,0,5.7,3.1c2.1,3.9-2.6,6.2-4,9.3c1.4,3.1-2.1,4.6-1.4,7.7c-4.3,6.2-9.2,13.1-11.3,20.1
					c-2.1,5.4-7.8,9.3-7.1,15.5c-2.8,4.6-1.4,10,1.4,14.7c5.7,0,11.8-5.4,16.1-8.5c0.7-0.8,3.5,0,3.5-2.3c5.7-0.8,9.2-5.4,14.9-1.5
					c2.8,3.1,2.1,7,2.1,10.1c-4.3,12.4-11.3,24-18.4,34.8c-2.1,4.6-7.1,6.2-7.8,11.6c-2.1,2.3-6.4,3.9-6.4,7.7
					c-5.7,6.2-9.9,12.4-14.9,17c0.7,3.9-3.6,4.6-5,7.7c-1.4,7-2.1,14.7-2.8,22.4c0.7,3.1,2.8,6.2,5,8.5c8.5-0.8,15.6-3.9,21.3-11.6
					c6.4-13.1,18.4-18.5,28.4-27.8c0.8-1.3,3.4-1.8,4.8-1.6c1.9-2.7,4.8-3.6,6.3-6.3c1.3-3.3,5.9-8.4,9.6-6.6l17.7-10.2
					c5.7-0.8,14.9-3.1,18.4,3.9C356.4,130.9,366.2,133.1,376.9,134.8z M379.7,260.7c-10.3-6.6-21.5-1-31.9-1
					c-6.9,5.7-13.8,2.8-21.5,5.7c-6,4.7-14.6,0.9-18.9,8.5c-6.9-3.8-13.8,2.8-20.7,2.8c-5.2,0.9-9.5,0-12.9,2.8
					c-6.9-2.8-14.6,0.9-22.4,0c-0.9-1.9-4.3-1.9-6-1c-2.6-1.9-5.2-1-6.9-1.9c-12.1-0.9-19.8-10.4-28.4-18.9
					c-8.6-6.6-13.8-18-21.5-26.5c-3.4-2.8-6.9-7.6-10.3-9.5v3.8c6.9,7.6,8.6,18.9,13.8,27.4c0,2.8,0.9,5.7,3.4,6.6
					c-0.9,4.7,5.2,5.7,4.3,9.5c4.3,6.6,8.6,16.9,14.6,22.6c5.2,8.5,14.6,6.6,20.7,13.2c1.7-3.8,5.2,0.9,8.6-1
					c11.2-2.8,24.1,0,34.4-7.6l0.9,0.9c-1.7,4.7-7.7,7.6-8.6,12.3c2.6,0,4.3-2.8,8.6-1.9c7.7-5.7,17.2-11.3,27.5-11.3
					c3.4-2.8,9.5-0.9,12-5.7c13.8,0,25.8-7.6,38.7-4.7c11.2-3.8,19.8,1.9,31-1l1.7-1c0.9-1.9,2.6-4.7,0.9-5.7
					C391.8,270,383.2,265.4,379.7,260.7L379.7,260.7z M174.6,181.6c1.9,5.3-2.6,8.4-4.5,9.9c3.8,3.1,6.4-0.7,10.2,3.1
					c6.4,0,13.4,8.4,19.7,7.7c7.7-2.3,7.1-12.9,10.3-19.8c2.6-7.6-2.5-16-8.2-19.9c-13.5-7.9-22.9-10-38.2-8.6
					c-0.6,3.8-4.5,1.5-6.4,2.3C163.2,164.7,171.5,170.1,174.6,181.6L174.6,181.6z M401.8,170.6c-3.5-5.1-14.5-7.2-19.5-7.2
					c-0.7,1.7,2.1,3.4,3.5,6c1.4,4.2,0,8.5-2.8,11.9c-5.7,0.9-8.5,9.4-14.9,8.5c-2.8,5.1-9.2,1.7-10.6,7.7
					c5.7,5.1,16.6,2.9,24.4,3.8c0.7-2.6,3.5-0.9,5.7-0.9c5.7-4.3,14.2-5.1,17.7-13.6c0.7-4.3,0-8.5-0.7-13.6
					C403.9,172.3,403.2,170.6,401.8,170.6L401.8,170.6z M379.8,218.1c-1.3-2.6-4-3.9-6.3-4.8c-2,1-3-2.3-5-1.3c-1-1.3-2.7,0.3-4-1
					c-1.3,1.6-3-1-4.6-0.3c-1.3-1.3-2,0.6-3.7,0.3c1.3,0.3,2.3,1.6,3.3,2.6c3.3,1.6,2.1,1,4.1,3.6l-0.7,0.6c-3,5.2-8.3,8.4-13,11.6
					c-3.3,1-6.6,4.2-10,2.6c-0.3,0.6-1.3-0.6-1.7,0.3c-3-0.3-7-1-9-3.6c-2.3-0.6-2.7-3.2-4.6-4.2c-1-2.3-0.1-0.1-0.8-3
					c-3,0-2.7-3.2-4-4.8c-2.7-1.9-2.3-6.1-5-8.1c-0.3-2.9-2.3-5.5-3.7-7.4c-0.7-2.9-2.3-5.2-3.7-7.4c-1.3-1.9-1.3-4.8-3.7-5.5
					c-0.3,2.9,0.3,5.8,0.7,8.7c0.3,1,0,2.3,0.7,2.9c0,4.5,3.3,7.8,2.7,12.3c0.7,1.9,1.3,3.6,2.3,5.5c-0.3,2.3,1.3,3.2,1.3,5.2
					c1.3,1.3,2,3.2,3,4.2c2,3.9,7.8,16.2,11.8,18.7c2,0,3.3,1.9,5,2.3c4,1.9,8.3,2.6,12.3,3.2c1.7-0.6,3.7,0,5.3-0.6
					c4,0,8.3-1.3,11.6-3.6c3.7-1.3,7-3.6,10.6-5.2c2-2.6,5-4.2,7.3-7.1C380.6,232.6,381.5,221.3,379.8,218.1L379.8,218.1z
					 M571.6,200.3c1.6-1,3.5-1.8,6-2.2c5.6-3.6,12.5-1.2,18.8-3c3.7-2.4,10-0.6,11.9-4.9c0.6,0,0,0.6,0,1.2c3.1,1.2,4.4-1.2,7.5-0.6
					c3.1-3,9.4-0.6,13.8-1.8c1.9-0.6,4.4-2.4,6.9-1.2c1.9-1.2,3.7,0,5-0.6c5,1.8,6.2-5.1,8.1-7.6c1.9-1.2-1.3-3-1.9-4.3l0,0
					c-2.5-4.9-6.2-6.7-11.2-9.1c-6.9,1.2-12.5,1.8-19.4,0c-3.8-1.8-8.1,1.2-10-1.8c-1.3,0.6-2.5,0.6-3.1,1.2l5.6,7.3
					c3.1,4.9-3.1,1.8-3.7,4.9c-2.5,0-5,1.8-7.5,1.2c-5.6,1.8-12.5,1.8-18.1,4.9l-1.9-1.2c-6.4,2.8-12.7,5.4-18.8,5.5
					c-4.4,6.7-11.2,3.6-18.1,4.9c-3.8,3-7.5-0.6-10.6,2.4c-3.1,3.6-8.1,3-11.9,4.3c-1.9,4.9-6.2,0.6-10,1.8
					c-3.7,1.8-5.7,1.8-9.5,3.6c-1,0.2-1.7,0-2.2-0.4c-5.1,0.5-12.7,2.4-21.7,5.3c-9.8,4.8-16.3,7.8-21.9,10.9
					c-2.5,0.6-4.4,4.3-6.9,4.3c-5.6,3-4.2,9.8-9.8,12.2c-3.7,4.3-8.7,7.3-11.9,12.8c-5-0.6-1.2,6.1-4.4,7.9c3.1,1.8,0,4.9-0.6,6.7
					l1.9-1.8c0.6,0,0.6-0.6,1.3-1.2c-1.9-2.4,1.9-2.4,2.5-4.3c3.8-6.7,12.5-9.1,17.5-15.8c6.2-3,8.4-7.3,14.7-9.7
					c5-3.6,6.2-5.5,11.2-7.9c10.5-1.5,21.4-3.2,27.2-1.2c1.9-2.4,2.6-2.8,5.8-4.6c1.9,1.2,4.4-1.2,6.9-1.2c2.5,1.2,3.8-2.4,6.2-1.8
					c3.1-2.4,5.6,0,8.1-2.4c6.9,0,12.5-4.3,18.7-5.5c1.9-3.6,6.9-1.8,9.4-3.6c1.9-0.6,2.5,1.2,3.8,1.8
					C561.3,202.1,566.9,200.3,571.6,200.3z"/>
			</defs>
			<clipPath id="SVGID_00000114075748933146067970000007972913099448136111_">
				<use xlink:href="#SVGID_00000076605438317311899270000014058802457214707608_"  style="overflow:visible;"/>
			</clipPath>
			
				<path id="l4" style="clip-path:url(#SVGID_00000114075748933146067970000007972913099448136111_);fill:none;stroke:#FFFFFF;stroke-width:24;stroke-linecap:round;stroke-miterlimit:10;" d="
				M304,182.4c2.1,15.3,23.3,103.7,74.9,34.4c-1.4-2.5-31.2-5.9-33.4-5c20.9-12.8,68.1-22.6,45.3-48.5"/>
		</g>
	</g>
	<g>
		<g>
			<defs>
				<path id="SVGID_00000009549199279195021620000013580591085260160168_" d="M376.9,134.8c0-3.9-8.4-11.1-10.5-14.2
					c-3.5-5.4-9.2-9.3-15.6-8.5c-2.1,0-3.5,4.6-5.7,1.5c-3.5,1.5-8.5,0.8-12.1,3.1l-14.9,3.9c-2.1,5.4-7.8,5.4-12.1,7l-3.5,0.8
					c-5,9.3-15.6,8.5-21.3,16.2c-4.3-0.8-7.8,7-12.8,3.9c9.2-14.7,18.4-28.6,27.7-42.5c0.7-6.2,5.7-12.4,7.8-18.5
					c3.5-7,6.4-17,2.1-24c-0.7-3.9-4.3-3.1-6.4-4.6c-5,2.3-9.2-1.5-12.1,3.9c-5-5.4-8.5,4.6-11.3-3.1l5-7.7c4.3-2.3,5-7.7,9.2-11.6
					c3.5-7.7,10.6-12.4,12.1-20.9c0.7-3.9-0.7-8.5-2.8-11.6c-2.1-2.3-6.4-5.4-10-3.9c0.7-3.9-3.5-2.3-5-3.9L284,1.6
					c-5-1.5-3.5,6.2-8.5,7c-0.7,3.9,5,0,5.7,3.1c2.1,3.9-2.6,6.2-4,9.3c1.4,3.1-2.1,4.6-1.4,7.7c-4.3,6.2-9.2,13.1-11.3,20.1
					c-2.1,5.4-7.8,9.3-7.1,15.5c-2.8,4.6-1.4,10,1.4,14.7c5.7,0,11.8-5.4,16.1-8.5c0.7-0.8,3.5,0,3.5-2.3c5.7-0.8,9.2-5.4,14.9-1.5
					c2.8,3.1,2.1,7,2.1,10.1c-4.3,12.4-11.3,24-18.4,34.8c-2.1,4.6-7.1,6.2-7.8,11.6c-2.1,2.3-6.4,3.9-6.4,7.7
					c-5.7,6.2-9.9,12.4-14.9,17c0.7,3.9-3.6,4.6-5,7.7c-1.4,7-2.1,14.7-2.8,22.4c0.7,3.1,2.8,6.2,5,8.5c8.5-0.8,15.6-3.9,21.3-11.6
					c6.4-13.1,18.4-18.5,28.4-27.8c0.8-1.3,3.4-1.8,4.8-1.6c1.9-2.7,4.8-3.6,6.3-6.3c1.3-3.3,5.9-8.4,9.6-6.6l17.7-10.2
					c5.7-0.8,14.9-3.1,18.4,3.9C356.4,130.9,366.2,133.1,376.9,134.8z M379.7,260.7c-10.3-6.6-21.5-1-31.9-1
					c-6.9,5.7-13.8,2.8-21.5,5.7c-6,4.7-14.6,0.9-18.9,8.5c-6.9-3.8-13.8,2.8-20.7,2.8c-5.2,0.9-9.5,0-12.9,2.8
					c-6.9-2.8-14.6,0.9-22.4,0c-0.9-1.9-4.3-1.9-6-1c-2.6-1.9-5.2-1-6.9-1.9c-12.1-0.9-19.8-10.4-28.4-18.9
					c-8.6-6.6-13.8-18-21.5-26.5c-3.4-2.8-6.9-7.6-10.3-9.5v3.8c6.9,7.6,8.6,18.9,13.8,27.4c0,2.8,0.9,5.7,3.4,6.6
					c-0.9,4.7,5.2,5.7,4.3,9.5c4.3,6.6,8.6,16.9,14.6,22.6c5.2,8.5,14.6,6.6,20.7,13.2c1.7-3.8,5.2,0.9,8.6-1
					c11.2-2.8,24.1,0,34.4-7.6l0.9,0.9c-1.7,4.7-7.7,7.6-8.6,12.3c2.6,0,4.3-2.8,8.6-1.9c7.7-5.7,17.2-11.3,27.5-11.3
					c3.4-2.8,9.5-0.9,12-5.7c13.8,0,25.8-7.6,38.7-4.7c11.2-3.8,19.8,1.9,31-1l1.7-1c0.9-1.9,2.6-4.7,0.9-5.7
					C391.8,270,383.2,265.4,379.7,260.7L379.7,260.7z M174.6,181.6c1.9,5.3-2.6,8.4-4.5,9.9c3.8,3.1,6.4-0.7,10.2,3.1
					c6.4,0,13.4,8.4,19.7,7.7c7.7-2.3,7.1-12.9,10.3-19.8c2.6-7.6-2.5-16-8.2-19.9c-13.5-7.9-22.9-10-38.2-8.6
					c-0.6,3.8-4.5,1.5-6.4,2.3C163.2,164.7,171.5,170.1,174.6,181.6L174.6,181.6z M401.8,170.6c-3.5-5.1-14.5-7.2-19.5-7.2
					c-0.7,1.7,2.1,3.4,3.5,6c1.4,4.2,0,8.5-2.8,11.9c-5.7,0.9-8.5,9.4-14.9,8.5c-2.8,5.1-9.2,1.7-10.6,7.7
					c5.7,5.1,16.6,2.9,24.4,3.8c0.7-2.6,3.5-0.9,5.7-0.9c5.7-4.3,14.2-5.1,17.7-13.6c0.7-4.3,0-8.5-0.7-13.6
					C403.9,172.3,403.2,170.6,401.8,170.6L401.8,170.6z M379.8,218.1c-1.3-2.6-4-3.9-6.3-4.8c-2,1-3-2.3-5-1.3c-1-1.3-2.7,0.3-4-1
					c-1.3,1.6-3-1-4.6-0.3c-1.3-1.3-2,0.6-3.7,0.3c1.3,0.3,2.3,1.6,3.3,2.6c3.3,1.6,2.1,1,4.1,3.6l-0.7,0.6c-3,5.2-8.3,8.4-13,11.6
					c-3.3,1-6.6,4.2-10,2.6c-0.3,0.6-1.3-0.6-1.7,0.3c-3-0.3-7-1-9-3.6c-2.3-0.6-2.7-3.2-4.6-4.2c-1-2.3-0.1-0.1-0.8-3
					c-3,0-2.7-3.2-4-4.8c-2.7-1.9-2.3-6.1-5-8.1c-0.3-2.9-2.3-5.5-3.7-7.4c-0.7-2.9-2.3-5.2-3.7-7.4c-1.3-1.9-1.3-4.8-3.7-5.5
					c-0.3,2.9,0.3,5.8,0.7,8.7c0.3,1,0,2.3,0.7,2.9c0,4.5,3.3,7.8,2.7,12.3c0.7,1.9,1.3,3.6,2.3,5.5c-0.3,2.3,1.3,3.2,1.3,5.2
					c1.3,1.3,2,3.2,3,4.2c2,3.9,7.8,16.2,11.8,18.7c2,0,3.3,1.9,5,2.3c4,1.9,8.3,2.6,12.3,3.2c1.7-0.6,3.7,0,5.3-0.6
					c4,0,8.3-1.3,11.6-3.6c3.7-1.3,7-3.6,10.6-5.2c2-2.6,5-4.2,7.3-7.1C380.6,232.6,381.5,221.3,379.8,218.1L379.8,218.1z
					 M571.6,200.3c1.6-1,3.5-1.8,6-2.2c5.6-3.6,12.5-1.2,18.8-3c3.7-2.4,10-0.6,11.9-4.9c0.6,0,0,0.6,0,1.2c3.1,1.2,4.4-1.2,7.5-0.6
					c3.1-3,9.4-0.6,13.8-1.8c1.9-0.6,4.4-2.4,6.9-1.2c1.9-1.2,3.7,0,5-0.6c5,1.8,6.2-5.1,8.1-7.6c1.9-1.2-1.3-3-1.9-4.3l0,0
					c-2.5-4.9-6.2-6.7-11.2-9.1c-6.9,1.2-12.5,1.8-19.4,0c-3.8-1.8-8.1,1.2-10-1.8c-1.3,0.6-2.5,0.6-3.1,1.2l5.6,7.3
					c3.1,4.9-3.1,1.8-3.7,4.9c-2.5,0-5,1.8-7.5,1.2c-5.6,1.8-12.5,1.8-18.1,4.9l-1.9-1.2c-6.4,2.8-12.7,5.4-18.8,5.5
					c-4.4,6.7-11.2,3.6-18.1,4.9c-3.8,3-7.5-0.6-10.6,2.4c-3.1,3.6-8.1,3-11.9,4.3c-1.9,4.9-6.2,0.6-10,1.8
					c-3.7,1.8-5.7,1.8-9.5,3.6c-1,0.2-1.7,0-2.2-0.4c-5.1,0.5-12.7,2.4-21.7,5.3c-9.8,4.8-16.3,7.8-21.9,10.9
					c-2.5,0.6-4.4,4.3-6.9,4.3c-5.6,3-4.2,9.8-9.8,12.2c-3.7,4.3-8.7,7.3-11.9,12.8c-5-0.6-1.2,6.1-4.4,7.9c3.1,1.8,0,4.9-0.6,6.7
					l1.9-1.8c0.6,0,0.6-0.6,1.3-1.2c-1.9-2.4,1.9-2.4,2.5-4.3c3.8-6.7,12.5-9.1,17.5-15.8c6.2-3,8.4-7.3,14.7-9.7
					c5-3.6,6.2-5.5,11.2-7.9c10.5-1.5,21.4-3.2,27.2-1.2c1.9-2.4,2.6-2.8,5.8-4.6c1.9,1.2,4.4-1.2,6.9-1.2c2.5,1.2,3.8-2.4,6.2-1.8
					c3.1-2.4,5.6,0,8.1-2.4c6.9,0,12.5-4.3,18.7-5.5c1.9-3.6,6.9-1.8,9.4-3.6c1.9-0.6,2.5,1.2,3.8,1.8
					C561.3,202.1,566.9,200.3,571.6,200.3z"/>
			</defs>
			<clipPath id="SVGID_00000181088724060434488800000009793494041753469348_">
				<use xlink:href="#SVGID_00000009549199279195021620000013580591085260160168_"  style="overflow:visible;"/>
			</clipPath>
			
				<path id="l5" style="clip-path:url(#SVGID_00000181088724060434488800000009793494041753469348_);fill:none;stroke:#FFFFFF;stroke-width:39;stroke-linecap:round;stroke-miterlimit:10;" d="
				M153.4,142.1c67.7,35.8,29,55.6,19.5,60.9c57.6,164.1,100.2,31.1,216,61.1c5,18.2-82.8,11.1-111.5,36.2"/>
		</g>
	</g>
	<g>
		<g>
			<defs>
				<path id="SVGID_00000152952128468297256740000013858237168340213921_" d="M376.9,134.8c0-3.9-8.4-11.1-10.5-14.2
					c-3.5-5.4-9.2-9.3-15.6-8.5c-2.1,0-3.5,4.6-5.7,1.5c-3.5,1.5-8.5,0.8-12.1,3.1l-14.9,3.9c-2.1,5.4-7.8,5.4-12.1,7l-3.5,0.8
					c-5,9.3-15.6,8.5-21.3,16.2c-4.3-0.8-7.8,7-12.8,3.9c9.2-14.7,18.4-28.6,27.7-42.5c0.7-6.2,5.7-12.4,7.8-18.5
					c3.5-7,6.4-17,2.1-24c-0.7-3.9-4.3-3.1-6.4-4.6c-5,2.3-9.2-1.5-12.1,3.9c-5-5.4-8.5,4.6-11.3-3.1l5-7.7c4.3-2.3,5-7.7,9.2-11.6
					c3.5-7.7,10.6-12.4,12.1-20.9c0.7-3.9-0.7-8.5-2.8-11.6c-2.1-2.3-6.4-5.4-10-3.9c0.7-3.9-3.5-2.3-5-3.9L284,1.6
					c-5-1.5-3.5,6.2-8.5,7c-0.7,3.9,5,0,5.7,3.1c2.1,3.9-2.6,6.2-4,9.3c1.4,3.1-2.1,4.6-1.4,7.7c-4.3,6.2-9.2,13.1-11.3,20.1
					c-2.1,5.4-7.8,9.3-7.1,15.5c-2.8,4.6-1.4,10,1.4,14.7c5.7,0,11.8-5.4,16.1-8.5c0.7-0.8,3.5,0,3.5-2.3c5.7-0.8,9.2-5.4,14.9-1.5
					c2.8,3.1,2.1,7,2.1,10.1c-4.3,12.4-11.3,24-18.4,34.8c-2.1,4.6-7.1,6.2-7.8,11.6c-2.1,2.3-6.4,3.9-6.4,7.7
					c-5.7,6.2-9.9,12.4-14.9,17c0.7,3.9-3.6,4.6-5,7.7c-1.4,7-2.1,14.7-2.8,22.4c0.7,3.1,2.8,6.2,5,8.5c8.5-0.8,15.6-3.9,21.3-11.6
					c6.4-13.1,18.4-18.5,28.4-27.8c0.8-1.3,3.4-1.8,4.8-1.6c1.9-2.7,4.8-3.6,6.3-6.3c1.3-3.3,5.9-8.4,9.6-6.6l17.7-10.2
					c5.7-0.8,14.9-3.1,18.4,3.9C356.4,130.9,366.2,133.1,376.9,134.8z M379.7,260.7c-10.3-6.6-21.5-1-31.9-1
					c-6.9,5.7-13.8,2.8-21.5,5.7c-6,4.7-14.6,0.9-18.9,8.5c-6.9-3.8-13.8,2.8-20.7,2.8c-5.2,0.9-9.5,0-12.9,2.8
					c-6.9-2.8-14.6,0.9-22.4,0c-0.9-1.9-4.3-1.9-6-1c-2.6-1.9-5.2-1-6.9-1.9c-12.1-0.9-19.8-10.4-28.4-18.9
					c-8.6-6.6-13.8-18-21.5-26.5c-3.4-2.8-6.9-7.6-10.3-9.5v3.8c6.9,7.6,8.6,18.9,13.8,27.4c0,2.8,0.9,5.7,3.4,6.6
					c-0.9,4.7,5.2,5.7,4.3,9.5c4.3,6.6,8.6,16.9,14.6,22.6c5.2,8.5,14.6,6.6,20.7,13.2c1.7-3.8,5.2,0.9,8.6-1
					c11.2-2.8,24.1,0,34.4-7.6l0.9,0.9c-1.7,4.7-7.7,7.6-8.6,12.3c2.6,0,4.3-2.8,8.6-1.9c7.7-5.7,17.2-11.3,27.5-11.3
					c3.4-2.8,9.5-0.9,12-5.7c13.8,0,25.8-7.6,38.7-4.7c11.2-3.8,19.8,1.9,31-1l1.7-1c0.9-1.9,2.6-4.7,0.9-5.7
					C391.8,270,383.2,265.4,379.7,260.7L379.7,260.7z M174.6,181.6c1.9,5.3-2.6,8.4-4.5,9.9c3.8,3.1,6.4-0.7,10.2,3.1
					c6.4,0,13.4,8.4,19.7,7.7c7.7-2.3,7.1-12.9,10.3-19.8c2.6-7.6-2.5-16-8.2-19.9c-13.5-7.9-22.9-10-38.2-8.6
					c-0.6,3.8-4.5,1.5-6.4,2.3C163.2,164.7,171.5,170.1,174.6,181.6L174.6,181.6z M401.8,170.6c-3.5-5.1-14.5-7.2-19.5-7.2
					c-0.7,1.7,2.1,3.4,3.5,6c1.4,4.2,0,8.5-2.8,11.9c-5.7,0.9-8.5,9.4-14.9,8.5c-2.8,5.1-9.2,1.7-10.6,7.7
					c5.7,5.1,16.6,2.9,24.4,3.8c0.7-2.6,3.5-0.9,5.7-0.9c5.7-4.3,14.2-5.1,17.7-13.6c0.7-4.3,0-8.5-0.7-13.6
					C403.9,172.3,403.2,170.6,401.8,170.6L401.8,170.6z M379.8,218.1c-1.3-2.6-4-3.9-6.3-4.8c-2,1-3-2.3-5-1.3c-1-1.3-2.7,0.3-4-1
					c-1.3,1.6-3-1-4.6-0.3c-1.3-1.3-2,0.6-3.7,0.3c1.3,0.3,2.3,1.6,3.3,2.6c3.3,1.6,2.1,1,4.1,3.6l-0.7,0.6c-3,5.2-8.3,8.4-13,11.6
					c-3.3,1-6.6,4.2-10,2.6c-0.3,0.6-1.3-0.6-1.7,0.3c-3-0.3-7-1-9-3.6c-2.3-0.6-2.7-3.2-4.6-4.2c-1-2.3-0.1-0.1-0.8-3
					c-3,0-2.7-3.2-4-4.8c-2.7-1.9-2.3-6.1-5-8.1c-0.3-2.9-2.3-5.5-3.7-7.4c-0.7-2.9-2.3-5.2-3.7-7.4c-1.3-1.9-1.3-4.8-3.7-5.5
					c-0.3,2.9,0.3,5.8,0.7,8.7c0.3,1,0,2.3,0.7,2.9c0,4.5,3.3,7.8,2.7,12.3c0.7,1.9,1.3,3.6,2.3,5.5c-0.3,2.3,1.3,3.2,1.3,5.2
					c1.3,1.3,2,3.2,3,4.2c2,3.9,7.8,16.2,11.8,18.7c2,0,3.3,1.9,5,2.3c4,1.9,8.3,2.6,12.3,3.2c1.7-0.6,3.7,0,5.3-0.6
					c4,0,8.3-1.3,11.6-3.6c3.7-1.3,7-3.6,10.6-5.2c2-2.6,5-4.2,7.3-7.1C380.6,232.6,381.5,221.3,379.8,218.1L379.8,218.1z
					 M571.6,200.3c1.6-1,3.5-1.8,6-2.2c5.6-3.6,12.5-1.2,18.8-3c3.7-2.4,10-0.6,11.9-4.9c0.6,0,0,0.6,0,1.2c3.1,1.2,4.4-1.2,7.5-0.6
					c3.1-3,9.4-0.6,13.8-1.8c1.9-0.6,4.4-2.4,6.9-1.2c1.9-1.2,3.7,0,5-0.6c5,1.8,6.2-5.1,8.1-7.6c1.9-1.2-1.3-3-1.9-4.3l0,0
					c-2.5-4.9-6.2-6.7-11.2-9.1c-6.9,1.2-12.5,1.8-19.4,0c-3.8-1.8-8.1,1.2-10-1.8c-1.3,0.6-2.5,0.6-3.1,1.2l5.6,7.3
					c3.1,4.9-3.1,1.8-3.7,4.9c-2.5,0-5,1.8-7.5,1.2c-5.6,1.8-12.5,1.8-18.1,4.9l-1.9-1.2c-6.4,2.8-12.7,5.4-18.8,5.5
					c-4.4,6.7-11.2,3.6-18.1,4.9c-3.8,3-7.5-0.6-10.6,2.4c-3.1,3.6-8.1,3-11.9,4.3c-1.9,4.9-6.2,0.6-10,1.8
					c-3.7,1.8-5.7,1.8-9.5,3.6c-1,0.2-1.7,0-2.2-0.4c-5.1,0.5-12.7,2.4-21.7,5.3c-9.8,4.8-16.3,7.8-21.9,10.9
					c-2.5,0.6-4.4,4.3-6.9,4.3c-5.6,3-4.2,9.8-9.8,12.2c-3.7,4.3-8.7,7.3-11.9,12.8c-5-0.6-1.2,6.1-4.4,7.9c3.1,1.8,0,4.9-0.6,6.7
					l1.9-1.8c0.6,0,0.6-0.6,1.3-1.2c-1.9-2.4,1.9-2.4,2.5-4.3c3.8-6.7,12.5-9.1,17.5-15.8c6.2-3,8.4-7.3,14.7-9.7
					c5-3.6,6.2-5.5,11.2-7.9c10.5-1.5,21.4-3.2,27.2-1.2c1.9-2.4,2.6-2.8,5.8-4.6c1.9,1.2,4.4-1.2,6.9-1.2c2.5,1.2,3.8-2.4,6.2-1.8
					c3.1-2.4,5.6,0,8.1-2.4c6.9,0,12.5-4.3,18.7-5.5c1.9-3.6,6.9-1.8,9.4-3.6c1.9-0.6,2.5,1.2,3.8,1.8
					C561.3,202.1,566.9,200.3,571.6,200.3z"/>
			</defs>
			<clipPath id="SVGID_00000166665147235844967650000002292560017642263470_">
				<use xlink:href="#SVGID_00000152952128468297256740000013858237168340213921_"  style="overflow:visible;"/>
			</clipPath>
			
				<path id="l7" style="clip-path:url(#SVGID_00000166665147235844967650000002292560017642263470_);fill:none;stroke:#FFFFFF;stroke-width:24;stroke-linecap:round;stroke-miterlimit:10;" d="
				M409.4,268.6c25.2-60.3,204.8-86.1,233-82.4c-2.5-16.7-33-21.8-33-21.8"/>
		</g>
	</g>
</g>
<g>
	<g>
		<g>
			<defs>
				<path id="SVGID_00000108990967022889954140000001053598000202591403_" d="M321.7,161.6c0-4.6,3.5-10.1,3.5-15.5
					c2.8-3.1,0.7-7,3.5-9.3c2.1-4.6,0.7-10.8,4.3-14.7c1.1-2,1.1-3.8,0-5.4c-1.4-1.5-4.3-3.1-5-6.2c-3.5-3.9-6.4-12.4-13.5-9.3
					c-4.3,2.3-7.8,8.5-7.8,13.9l0.7-0.8c1.4,0,1.4-0.8,1.4-1.5c0.7-2.3,1.4-5.4,4.3-4.6c4.3,2.3,4.3,7.7,5,12.4l-2.7,12.8
					c1.2,0.8,1.7,1.5,0.6,4.2c-0.7,3.9-3.6,5.4-5,8.5c0.7,1.5,0,3.1-1.4,3.9c-2.2,1.6-4.3,4.3-6.4,8.5c1.4,5.4-5,7.7-6.4,13.1
					c-1.4,3.1-5,5.4-4.3,9.3c-5.7,6.2-8.5,12.4-12.8,18.5c-4.3,7-29.8,42.3-33.4,49.2c-1.4,5.4-1.4,12.4,3.5,15.5
					c4.3-0.8,9.2-3.1,12.8-7.7c2.8-7.7,30.5-42.3,32.7-50.8c7.1-9.3,13.5-19.3,17.7-30.9C315.9,169.5,318.7,164.7,321.7,161.6z
					 M578.2,182.6c-0.6-5.5,4.4-9.7,6.2-14.6c0.6-2.4,4.4-3,3.7-5.5c4.4-3.6,7.5-8.5,6.2-13.4c-2.5,0-3.1-3.6-4.4-4.9
					c-1.9-0.6-3.7,1.2-5.6,1.2c-2.5,3-2.5,7.9-6.2,9.7c-3.1,8.5-6.9,14.6-9.4,22.5L567,179c-0.6,3.6-2.5,8.6-7.5,9.2
					c0.1,6-1.7,11.7-4.4,17.3c0,1.2-0.6,1.7-1.3,2.3c0,3.6-3.1,4-3.1,7c-4.4,4.9-4.4,12.8-8.7,18.2c-1.2,3-4.4,6.1-5,9.7
					c-5.6,4.9-5,12.8-9.4,18.8c3.1,4.3,0,8.5,5.6,11.6c-0.6,3.6,5,2.4,5,6.1c1.2,0.6,2.5,2.4,3.8,0.6c1.9,1.2,1.2,2.4,1.9,3.6
					c2.5,1.8,3.7,4.3,6.2,3.7c5,0.6,3.7-5.5,8.7-5.5c8.8-12.2,17.5-24.9,26.9-37.1c3.8-1.2,5-4.9,8.1-6.7c6.2-4.3,11.2-11.6,20-8.5
					c2.5,1.2,2.5,3.6,2.5,5.5c-2.5,3.6,0,7.9-4.4,10.3c-3.7,6.7-11.9,12.2-18.1,17.6c-1.2,1.2-3.1,1.8-3.1,3.6
					c-3.7,1.2-4.4,6.7-4.4,9.7c2.5,1.2,0,4.2,1.9,5.5c2.5,1.8,4.4-0.6,6.9,0c1.2,3.6,5,1.8,7.5,3.6c1.2,6.7-8.1,6.1-11.9,9.1
					c-0.6,2.4-5,1.8-3.7,4.3c2.5,0,5,1.2,6.9,1.2c2.5,2.4,5.6-1.2,8.1,1.2c3.7-2.4,7.5,1.2,11.2-1.8c2.5,0.6,6.2,0,9.4,0.6
					c1.9-0.6,3.8-3,6.2-1.8c2.5-1.8,1.9-6.1,2.5-8.5c-1.2-3.6-5-8.5-8.7-9.1c-3.1-2.4-5.6-3.6-8.1-5.5c1.2-4.3,5.6-6.1,8.1-9.1
					c3.1-4.9,8.7-6.7,11.9-12.2c3.1-1.8,5-4.9,7.5-7.3c0.6-1.2-0.6-3.6,1.3-4.3c1.2-4.3,3.8-10.3-1.3-13.4c-4.4,0-5-6.7-7.5-8.5
					c-3.1-4.3-8.1-2.4-11.9-4.9c-3.1,0.6-8.1-0.6-10.6,2.4c-3.1-0.6-5.6,3-8.7,2.4c-1.2,0.6-2.5,2.4-4.4,1.2
					c-6.9,4.9-15,6.1-21.9,10.3c-2.5,1.2-5,2.4-6.9,4.9c-5.6,1.8-11.2,4.3-16.9,6.7c-4.4-1.8,0.6-3.6-0.6-6.7c2.5-3,2.5-7.9,5-10.3
					c-1.9-4.9,4.4-7.3,3.7-11.6c3.8-5.1,5.1-11.1,10.2-14.5C575.2,194.4,577.6,188.5,578.2,182.6z"/>
			</defs>
			<clipPath id="SVGID_00000071523550152857347270000004584443086426827193_">
				<use xlink:href="#SVGID_00000108990967022889954140000001053598000202591403_"  style="overflow:visible;"/>
			</clipPath>
			
				<path id="l3" style="clip-path:url(#SVGID_00000071523550152857347270000004584443086426827193_);fill:none;stroke:#FFFFFF;stroke-width:24;stroke-linecap:round;stroke-miterlimit:10;" d="
				M296.8,121.3c0.8-35.7,32.2-30.2,32.4-0.8c0.2,31.2-77.7,135.4-77.7,135.4"/>
		</g>
	</g>
	<g>
		<g>
			<defs>
				<path id="SVGID_00000120535924878743791340000001768274584513267111_" d="M321.7,161.6c0-4.6,3.5-10.1,3.5-15.5
					c2.8-3.1,0.7-7,3.5-9.3c2.1-4.6,0.7-10.8,4.3-14.7c1.1-2,1.1-3.8,0-5.4c-1.4-1.5-4.3-3.1-5-6.2c-3.5-3.9-6.4-12.4-13.5-9.3
					c-4.3,2.3-7.8,8.5-7.8,13.9l0.7-0.8c1.4,0,1.4-0.8,1.4-1.5c0.7-2.3,1.4-5.4,4.3-4.6c4.3,2.3,4.3,7.7,5,12.4l-2.7,12.8
					c1.2,0.8,1.7,1.5,0.6,4.2c-0.7,3.9-3.6,5.4-5,8.5c0.7,1.5,0,3.1-1.4,3.9c-2.2,1.6-4.3,4.3-6.4,8.5c1.4,5.4-5,7.7-6.4,13.1
					c-1.4,3.1-5,5.4-4.3,9.3c-5.7,6.2-8.5,12.4-12.8,18.5c-4.3,7-29.8,42.3-33.4,49.2c-1.4,5.4-1.4,12.4,3.5,15.5
					c4.3-0.8,9.2-3.1,12.8-7.7c2.8-7.7,30.5-42.3,32.7-50.8c7.1-9.3,13.5-19.3,17.7-30.9C315.9,169.5,318.7,164.7,321.7,161.6z
					 M578.2,182.6c-0.6-5.5,4.4-9.7,6.2-14.6c0.6-2.4,4.4-3,3.7-5.5c4.4-3.6,7.5-8.5,6.2-13.4c-2.5,0-3.1-3.6-4.4-4.9
					c-1.9-0.6-3.7,1.2-5.6,1.2c-2.5,3-2.5,7.9-6.2,9.7c-3.1,8.5-6.9,14.6-9.4,22.5L567,179c-0.6,3.6-2.5,8.6-7.5,9.2
					c0.1,6-1.7,11.7-4.4,17.3c0,1.2-0.6,1.7-1.3,2.3c0,3.6-3.1,4-3.1,7c-4.4,4.9-4.4,12.8-8.7,18.2c-1.2,3-4.4,6.1-5,9.7
					c-5.6,4.9-5,12.8-9.4,18.8c3.1,4.3,0,8.5,5.6,11.6c-0.6,3.6,5,2.4,5,6.1c1.2,0.6,2.5,2.4,3.8,0.6c1.9,1.2,1.2,2.4,1.9,3.6
					c2.5,1.8,3.7,4.3,6.2,3.7c5,0.6,3.7-5.5,8.7-5.5c8.8-12.2,17.5-24.9,26.9-37.1c3.8-1.2,5-4.9,8.1-6.7c6.2-4.3,11.2-11.6,20-8.5
					c2.5,1.2,2.5,3.6,2.5,5.5c-2.5,3.6,0,7.9-4.4,10.3c-3.7,6.7-11.9,12.2-18.1,17.6c-1.2,1.2-3.1,1.8-3.1,3.6
					c-3.7,1.2-4.4,6.7-4.4,9.7c2.5,1.2,0,4.2,1.9,5.5c2.5,1.8,4.4-0.6,6.9,0c1.2,3.6,5,1.8,7.5,3.6c1.2,6.7-8.1,6.1-11.9,9.1
					c-0.6,2.4-5,1.8-3.7,4.3c2.5,0,5,1.2,6.9,1.2c2.5,2.4,5.6-1.2,8.1,1.2c3.7-2.4,7.5,1.2,11.2-1.8c2.5,0.6,6.2,0,9.4,0.6
					c1.9-0.6,3.8-3,6.2-1.8c2.5-1.8,1.9-6.1,2.5-8.5c-1.2-3.6-5-8.5-8.7-9.1c-3.1-2.4-5.6-3.6-8.1-5.5c1.2-4.3,5.6-6.1,8.1-9.1
					c3.1-4.9,8.7-6.7,11.9-12.2c3.1-1.8,5-4.9,7.5-7.3c0.6-1.2-0.6-3.6,1.3-4.3c1.2-4.3,3.8-10.3-1.3-13.4c-4.4,0-5-6.7-7.5-8.5
					c-3.1-4.3-8.1-2.4-11.9-4.9c-3.1,0.6-8.1-0.6-10.6,2.4c-3.1-0.6-5.6,3-8.7,2.4c-1.2,0.6-2.5,2.4-4.4,1.2
					c-6.9,4.9-15,6.1-21.9,10.3c-2.5,1.2-5,2.4-6.9,4.9c-5.6,1.8-11.2,4.3-16.9,6.7c-4.4-1.8,0.6-3.6-0.6-6.7c2.5-3,2.5-7.9,5-10.3
					c-1.9-4.9,4.4-7.3,3.7-11.6c3.8-5.1,5.1-11.1,10.2-14.5C575.2,194.4,577.6,188.5,578.2,182.6z"/>
			</defs>
			<clipPath id="SVGID_00000070094435776121668830000016780066142251457189_">
				<use xlink:href="#SVGID_00000120535924878743791340000001768274584513267111_"  style="overflow:visible;"/>
			</clipPath>
			
				<path id="l8" style="clip-path:url(#SVGID_00000070094435776121668830000016780066142251457189_);fill:none;stroke:#FFFFFF;stroke-width:40;stroke-linecap:round;stroke-miterlimit:10;" d="
				M586.3,150.7c-49.2,63-69.3,102.5-46.6,128.1c57.7-86.1,136.2-58.9,52.5-16c30.4,17.7,28,41.1,6.7,44.3"/>
		</g>
	</g>
</g>
<linearGradient id="SVGID_00000111891835729736252760000000810942030051023507_" gradientUnits="userSpaceOnUse" x1="283.2" y1="17.3575" x2="527.6" y2="17.3575" gradientTransform="matrix(1 0 0 -1 0 358)">
	<stop  offset="0" style="stop-color:#DCA66B"/>
	<stop  offset="1" style="stop-color:#DCA66B;stop-opacity:0"/>
</linearGradient>
<path style="fill:url(#SVGID_00000111891835729736252760000000810942030051023507_);" d="M283.2,349.1h2.8v-22.8h-2.8 M306.1,326.3
	h-6.8v18.9h2.8v-16.1h1.3v17.3h-5.3v-20.1h-10.9v22.8h6.8v-18.9h-2.8v16.2H290v-17.3h5.3v20.1h10.8 M313.6,326.5h11v0.5h-9.2v9.9
	h7.8v0.5h-7.8v11.2h9.5v0.5h-11.2 M343.3,349.1h-1.4l-0.2-4c-3.9,6.8-11.8,4.7-11.8-0.2c0-3.4,2.4-5.1,11.7-4.6c0-2.2,0.1-4-0.7-5.1
	c-2.1-3-6.9-2.2-9.6,0.1l-0.2-0.2c3.5-3.6,12.2-3.4,12.2,3 M341.6,340.9c-6.6-0.2-9.9,0.1-9.9,4.2c0,4.6,6.7,5.6,9.9-0.7 M361,335.1
	c-3.7-3-9.1-2.1-9.1,1.7c0,4.1,10.2,2.8,10.2,7.9c0,5.5-9,6-12.4,2.4l0.2-0.3c4.3,3.4,10.5,2.2,10.5-1.6c0-4.5-10.2-3-10.2-8.2
	s8.2-5.3,10.9-2.2 M369.4,340.7c-0.2,8.2,6.7,10.1,11.7,6.2l0.2,0.2c-4.1,3.8-13.7,3.3-13.7-6.5c0-10.1,14.7-11,14.7,0.1
	 M380.5,340.3c0-9.7-10.9-8.9-11.1,0 M391.3,349.1h-1.7V330c0-5.1,6.1-5.9,8.6-3.2L398,327c-2.1-2-6.7-1.8-6.7,2.8 M386.4,333.6
	v-0.5h11v0.5 M415.9,349.1h-1.4l-0.2-4c-2.8,5.7-11.4,5.8-11.4-0.3v-11.7h1.7V345c0,5.8,7.2,4.6,9.6-0.6v-11.3h1.7 M425.7,349.1H424
	v-23.5h1.7 M446.5,349.1h-1.7v-23.5h1.7 M455.4,328.6c-1.6,0-1.6-2.2,0-2.2C457,326.5,456.9,328.6,455.4,328.6z M484.1,328.6
	c-1.6,0-1.6-2.2,0-2.2S485.5,328.6,484.1,328.6z M456.3,349.1h-1.7v-16h1.7 M462.3,333.1h1.8l6.3,14l6.2-14h0.6l-7.3,16.3h-0.3
	 M484.9,349.1h-1.7v-16h1.7 M493,333.1h1.4l0.2,4.1c2.7-5.7,11.7-6.2,11.7,0.3v11.6h-1.7v-11.7c0-5.7-7.6-5-9.9,0.6v11.2H493
	 M527.5,349c0,7.3-9.3,8.7-13.5,5.1l0.3-0.3c4.3,3.3,11.6,1.7,11.6-4.7v-3.8c-2.4,6.3-12.8,5.7-12.8-4.2c0-10.1,10.6-10.5,12.9-4
	l0.2-4h1.4 M525.8,337.9c-2.5-6.6-11.1-6.5-11.1,3.2c0,9.6,8.9,9.6,11.1,3.1"/>
</svg>
