<svg width="1179.8" height="206.6" viewBox="0 0 1179.8 206.6" fill="#F8F3D2" xmlns="http://www.w3.org/2000/svg">
<path d="M636.5,190l-2.1,2.1l-80.5-81.2l2.1-2.1 M634.4,108.8l2.1,2.1L556,192.1l-2.1-2.1 M0.1,146.4
	c3.9-6.2,5.6-17.6,5.7-27.8l10.1,1.5c0,10-1.2,24.4-6.5,32.2 M34.7,137.8c-1.1-3.7-6.6-15.2-9-20.3l8.9-4.5
	c3.6,6.2,7.9,14.4,9.6,19.5 M15.7,94.5l16.1,0.9c-0.1,1.2-0.9,1.9-2.9,2.3l-0.1,108.7H15.7 M80,189.5c1.6-14.1,3-32.1,3.9-48.6H61.8
	c-2.1,12.8-4.5,25.5-6.4,34.8L42,174.4c3.6-15.8,8.1-41.5,10.7-61.8H38.5v-13h67v13.1H66.3l-2.4,15.6l34.5-0.1
	c-1,19.8-2.6,43.8-4.3,61.3 M107.5,189.5v13.3H35.7v-13.3 M64,163.9c5.4,3,12.5,7.6,15.9,10.8l-6.6,9.5c-3.3-3.6-10.2-8.5-15.6-11.9
	 M67,144.5c5,2.1,11.7,5.6,15.2,8.2l-5.9,9.9c-3.3-2.7-9.9-6.6-15-9.1 M212.4,157.5v49.1h-13.8v-4.4h-44.9v4.4h-13.3v-49.1
	 M147.9,145.6l-0.1-12.6l0,0h56.8v12.6 M186.4,95.6c-0.3,1.3-1.4,2.1-3,2.4c10.9,15.4,30.3,30.4,47.3,37.7
	c-3.3,3.6-6.4,8.4-8.8,12.8c-16.6-9.2-37.3-25.8-46.3-39.8c-9.6,14.3-26.8,29.7-45.5,40.1c-1.8-3.3-5.5-8.5-8.3-11.4
	c19.5-10.1,38.2-28.2,46.5-42.9 M153.7,170.2v19.5h44.9v-19.5 M280.5,119.2v12.9l-34.5,0.2v-12.9 M258.3,94.5l14.9,0.9
	c-0.1,1.1-0.8,1.8-2.8,2.1l-0.3,108.9h-12 M275.7,169.4c-1.1-3.6-8.6-21.8-11.7-28c-5.8,23.4-11.6,37.6-15,43.3
	c-1.2-3.7-3.9-8.9-5.7-12.1c6-9.5,13.4-32.9,15.5-49.6c8.9,8.5,20.8,30.9,23.7,36 M409.5,119.2v12.9l-37.1,0.2v-12.9 M386,94.5
	l14.9,0.9c-0.1,1.1-0.8,1.8-2.8,2.1l-0.3,108.9h-12 M404.6,170c-1.2-3.6-9.5-22.4-12.9-28.6c-6.3,23.4-11.5,37.4-16.1,43.3
	c-1.3-3.7-4.2-8.9-6.1-12.1c6.4-9.5,14.5-32.6,16.8-49.3c9.6,8.5,22.3,31.2,25.4,36.3 M283.1,109.2l1.8,1.4c2.1-5,4.4-10.9,5.6-15.3
	l11.3,5c-0.3,0.7-1.4,1.2-2.7,1.1c-1.9,4.3-5.1,10.3-7.8,15.1l2.9,3.1c2.3-4,4.2-7.9,5.7-11.5l8.9,4.7c-3.8,6.8-10.7,17.9-16.1,25.4
	l6.3-0.4c-0.6-1.9-1.2-3.8-1.9-5.6l7.7-2.6c2.3,4.9,4.5,13.5,5.4,17.7l-8.4,3.4c-0.1-1.2-0.3-2.5-0.6-3.9
	c-6.5,0.9-12.7,1.9-17.1,2.5c-0.1,0.8-0.9,1.4-1.6,1.7l-3.8-11.9l3.4-0.2c2.2-3,4.6-6.6,7-10.6c-2.8-3.6-7.3-8.1-11.1-11.4
	 M322.6,109.2l1.7,1.3c2.3-4.9,4.5-10.8,5.7-15.2l11.3,5c-0.3,0.7-1.4,1.2-2.7,1.1c-1.9,4.3-5.2,10.3-7.9,14.9
	c1.1,1.1,2.1,2.1,3,3.2c2.3-4,4.3-8.1,5.9-11.5l10.5,5.8c-0.3,0.7-1.5,1.1-2.8,1.1c-3.5,6.2-8.8,14.5-13.7,21.4l7.1-0.5
	c-0.6-1.8-1.2-3.4-1.9-5l7.5-3c2.7,5.7,5.3,13.1,6,17.8l-8.1,3.6c-0.2-1.5-0.6-3.3-1-5.2l-18.1,2.9c-0.1,0.9-0.8,1.5-1.6,1.8
	l-4.3-11.5l3.2-0.1c1.9-2.6,4.1-5.7,6-8.9c-2.4-3.1-7.8-8.3-11-11.4 M333,144.5L333,144.5c4,2.2,8.6,6.2,10.5,8.6l-6.5,7
	c-1.8-1.7-7.5-7.2-10.7-9.2 M350,155.4v11l-51,0l-0.5,4.4c5,3.4,10.7,7.9,13.5,11.2l-7.1,9.5c-2-2.4-5.3-5.3-8.9-8.3
	c-2.5,8.8-6.8,17.1-15,23.1c-1.6-3-5-7.2-7.5-9.4c9.9-7,12.7-18.4,13.8-30.5h-6.5v-11.1 M322.1,95.4c-0.1,1.2-0.9,1.9-2.9,2.3
	c-0.9,58.5,6.8,83.7,14.2,94c1,1.4,10.4,9.5,10.4-9.1c2.2,2.7,5.7,5.7,8.3,6.9c-1.2,21.4-19,21-28.3,9.1
	c-10.7-13.7-16.4-47.1-16.4-104 M345.9,170.9c-0.3,0.9-1.1,1.4-2.6,1.4c-10.2,20-25.9,28.8-37.8,34c-1.5-2.5-4.8-6.9-7.1-9.1
	c17.7-6.6,28.7-17.4,34.9-31.2l0,0 M414.7,128.5v-9.6h57.8v9.6 M412.3,114.2v-9.9h62.6v9.9 M458.2,162.5v-4.7h-30.7v4.7 M415.4,148
	h55.3v44.1c0,13.4-4.2,14.2-21.2,14.2c-0.6-3.3-2-8.1-3.5-11.3c11.5,0,12.2,0.5,12.2-1.5V172l-30.7-0.1l0.1,34.3h-12.2 M476.5,133.4
	v10.2h-27.7l-0.1,33.6H477v10.4l-69.4-0.1v-10.4h28.9l0.1-33.5h-26.7v-10.2 M448.9,133.4l0.1-38.9l15.5,0.9
	c-0.1,1.2-0.9,1.8-2.9,2.1v35.9 M424,133.4V94.5l15.4,0.9c-0.1,1.1-0.9,1.8-2.9,2.1l-0.1,35.9 M806.9,115.2V175h-14.2v-6h-65.6v6.6
	h-13.6v-60.4 M752.3,94.5l17.3,1.1c-0.1,1.2-0.9,1.9-3.1,2.3v108.5h-14.2 M792.7,155v-25.7h-65.6V155 M874.3,97.8l17.3,1.1
	c-0.1,1.1-1,1.9-3.1,2.3v81.3h25.8v-59.2l16.9,0.9c-0.1,1.2-1,1.9-3,2.4v78.1h-14.1v-7.6h-64.6v7.9h-13.8v-81.5l16.9,1.1
	c-0.1,1.1-0.9,1.9-3,2.1v55.6h24.7 M994,205.3h-14.2v-24.7c-8.4,3.9-16.6,7.5-22.5,10c-0.1,1.1-0.8,2-1.7,2.4l-6.5-15.9
	c7.7-2.4,19.2-6.6,30.7-10.9v-28.9H953v-14.2l26.8-0.3V96.5l17.2,1.1c-0.1,1.1-1,1.9-3,2.3 M1008.3,96.6l17.3,0.9
	c-0.1,1.2-1,1.9-3.3,2.4v32.6c8.7-5.8,17-12.6,23.3-18.3l10.4,13.3c-0.5,0.5-1.6,0.8-2.9,0.6c-8.1,6.3-19.6,13.2-30.7,19.3l0,35.1
	l0,0c0,6.6,0.7,7.6,4.7,7.6h11.8c4.4,0,5.1-4.9,5.9-24.1c3.3,2.7,9.2,5.6,12.9,6.4c-1.2,33.8-10.5,31.7-24.7,31.7
	c-19.7,0-24.7-1.6-24.7-21.8 M1103.8,126.5v-15.2h-15v15.2 M1092,138.7h-15V99.1h39.1l0,39.7h-11.9v13.8h13.6v12.3h-13.6v16.3
	l14.7-3.4l1.2,12c-15.4,4.3-31.6,8.5-42.2,11.3c-0.1,1.1-1,1.9-1.8,2.1l-5.1-14.8l5.2-1.1v-40l13.7,0.8c-0.1,1.1-0.9,1.7-2.7,2V185
	l4.8-1.1 M1170.9,162.2V206H1158v-4h-21.4v4.4h-12.5v-44.2 M1136.6,174.2v15.5h21.4v-15.5 M288.9,3.5h-10.3v-3H303v3h-10.3v28.8
	h-3.8 M325,0.5h3.8v31.8H325 M356.2,0.4h4.7c2.4,6.6,8,20.3,9.6,26.7c1.6-6.2,7.5-20.2,10.1-26.7h4.8l2.2,31.9h-3.8
	c-0.4-7.5-1.4-21.1-1.5-28c-2.1,6.8-7.8,20.7-10.5,27.8H369c-2.7-7.3-8.1-21-9.8-27.9c-0.2,7.2-1.2,20.3-1.8,28h-3.6 M412.6,0.5
	h17.6v2.9h-13.8v10.8h13V17h-13v12.3H431v3l0,0h-18.4 M454.8,0.5h3.8v28.8H473v3h-18.2 M496,0.5h17.6v2.9h-13.8v10.8h13V17h-13v12.3
	h14.6l0,3H496 M553.8,4.4L553.8,4.4C548.7,1.6,541,2.7,541,7.9c0,8,15.3,5.2,15.3,15.8c0,10-13.4,10.5-19.8,6.9l1.1-2.9
	c6.5,3.5,14.9,2.2,14.9-3.5c0-8.8-15.2-5.6-15.2-16.2c0-8,11.3-9.9,17.8-6.6 M596,4.4L596,4.4c-5.1-2.8-12.8-1.7-12.8,3.5
	c0,8,15.3,5.2,15.3,15.8c0,10-13.4,10.5-19.8,6.9l1.1-2.9c6.5,3.5,14.9,2.2,14.9-3.5c0-8.8-15.2-5.6-15.2-16.2
	c0-8,11.3-9.9,17.8-6.6 M852.9,4.4L852.9,4.4c-5.1-2.8-12.8-1.7-12.8,3.5c0,8,15.3,5.2,15.3,15.8c0,10-13.4,10.5-19.8,6.9l1.1-2.9
	c6.5,3.5,14.9,2.2,14.9-3.5c0-8.8-15.2-5.6-15.2-16.2c0-8,11.3-9.9,17.8-6.6 M657,0.5h17.6v2.9h-13.8v11.3h12.7v2.9h-12.7v14.7H657
	 M726.8,16.1c0.7,22.4-30.7,21.8-29.9,0.6C696.3-4.7,727.3-5.6,726.8,16.1z M700.9,16.5c-0.3,17.6,22.3,17.6,21.9-0.3
	C723.2-1.6,700.5-1.3,700.9,16.5L700.9,16.5z M750.7,1c7.9-1.5,20.1-1.5,20.1,7.5c0,5-3.1,7.5-6.5,8.5c6.6,2.2,5.2,12.1,7.7,15.2h-4
	c-2.7-4-0.6-14.1-9.5-14.1h-4v14h-3.8 M754.5,15.5h4.8c4.1,0,7.7-2.2,7.7-6c0-4-2.9-7.6-12.5-6.2 M795.2,0.5h17.6v2.9H799v10.8h13
	V17h-13v12.3h14.6v3h-18.4 M885.9,3.5h-10.3v-3H900v3h-10.3v28.8h-3.8 M1139.1,117.9l-0.7,1.2l0,0c13.1,22.8,27.4,30.2,41.4,35.8
	c-2.7,2.6-6.6,8.3-8.4,12c-14.2-5.1-30.5-19.6-39.7-36.8c-2.6,3.4-5.2,6.5-7.9,9.3c-1.8-2-6.9-6.6-9.6-8.9
	c8.7-8.2,17-23.1,20.9-36.1l14.7,4.6c-0.6,1.1-1.8,1.4-3,1.3c-0.7,1.9-1.4,3.7-2.1,5.6c17.1,0,17,0.1,19.4-0.5l8.8,4.1
	c-0.2,0.6-0.8,1.3-1.5,1.9c-6.7,25.3-26.7,47.5-49.9,57.6c-0.9-1.8-5.4-8.8-6.9-11c15.7-6.8,32.1-20.3,40.4-40.1"/>
</svg>
