<svg width="369" height="174" viewBox="0 0 369 174" fill="none" xmlns="http://www.w3.org/2000/svg">
<path d="M61.755 32.4816H46.3364C51.6906 37.2833 57.8098 40.935 64.6938 43.4366L64.5529 44.284C61.6946 45.2726 60.0642 46.9269 59.6616 49.2269C52.6971 45.5147 46.6786 39.9262 41.6464 32.4816H23.4299C21.2962 35.407 18.8204 38.1912 16.0024 40.8139C20.9138 42.4682 23.8928 44.7884 24.9194 47.8146C25.5434 49.7514 25.2817 51.2242 24.1142 52.2531C22.9468 53.2417 21.6384 53.1206 20.1489 51.9101C19.7866 48.9444 18.3172 45.7769 15.7407 42.4279C15.5193 42.1051 15.2979 41.8227 15.0764 41.5806C10.9702 45.1112 6.13927 48.0769 0.603863 50.4979L0 49.7111C7.14571 45.3734 13.0636 39.6236 17.7536 32.4615H1.59017L0.986309 30.4843H18.9412C20.632 27.4177 21.9001 24.9564 22.7052 23.0599H7.60867L7.06519 21.0222H23.4903C24.5168 18.3793 25.2817 16.1197 25.7648 14.2435H4.93154L4.38807 12.2058H26.3687C27.2745 8.57429 27.8985 5.56821 28.2406 3.14722L36.8155 5.06384C36.4129 6.15329 35.5272 6.71819 34.1384 6.75854C33.776 8.45324 33.3131 10.269 32.7294 12.2058H50.8855L54.4281 7.60589L59.9837 12.2663C60.346 12.6093 60.6479 12.8917 60.9096 13.1137C60.6479 13.8198 60.0038 14.2031 58.9772 14.2435H32.1456C31.6625 15.9987 30.8574 18.2583 29.7302 21.0222H48.8122L52.1536 16.5636L57.5884 21.224C57.85 21.5064 58.0916 21.7485 58.3331 21.9301C58.152 22.6362 57.5884 23.0196 56.5819 23.0599H38.5063C40.1166 25.8037 42.0087 28.2651 44.2027 30.4843H53.1802L56.8637 25.602L63.1036 30.9685C63.2848 31.1097 63.4458 31.251 63.5666 31.3922C63.3854 32.058 62.7816 32.4009 61.755 32.4615V32.4816ZM27.6569 53.4031L28.0595 54.3311C23.4097 57.4381 17.8743 60.7871 11.4533 64.3581C11.2318 65.2458 10.7689 65.8914 10.0442 66.2747L5.67631 60.1214C8.21253 59.5161 15.5394 57.2767 27.6569 53.4031ZM29.4685 34.8018L37.0973 35.6491C36.7752 36.678 36.0103 37.3035 34.7422 37.485V63.1476C34.7422 65.8309 34.1182 67.6466 32.8703 68.5948C31.6625 69.4422 29.7704 69.9869 27.1738 70.229C26.9927 68.5747 26.5498 67.4247 25.8252 66.7589C24.6577 65.8107 22.8864 65.2055 20.4709 64.923V63.7932C20.4709 63.7932 23.0877 63.9546 28.1803 64.2774C28.9451 63.995 29.3679 63.5713 29.4484 63.0064V34.8018H29.4685ZM24.7785 30.5045H40.3783C39.0297 28.2852 37.7817 25.8037 36.6343 23.0801H28.8042C27.6368 25.6221 26.2882 28.1037 24.7785 30.5045ZM36.0305 54.0487L36.3727 52.9996C46.1955 53.8873 52.6971 56.2276 55.8774 60.0003C57.4072 61.7959 57.7695 63.3897 57.0046 64.8019C56.3001 65.9721 55.1528 66.3151 53.5827 65.7905C53.5022 65.7502 53.3815 65.6897 53.2405 65.6493C50.7848 62.5827 46.8597 59.5968 41.4451 56.6714C39.6536 55.6829 37.8421 54.8153 36.0103 54.0487H36.0305ZM43.8002 39.5631L50.4225 43.3156C49.9394 44.1629 49.0538 44.4656 47.8058 44.2235C44.3235 47.633 41.3646 50.1549 38.9693 51.7891L38.0232 51.0023C39.8549 48.1778 41.7873 44.3647 43.8002 39.5631Z" fill="#3E3A39"/>
<path d="M26.4489 124.379L29.1261 121.554L34.4199 126.013C33.9167 126.517 33.0512 126.901 31.8032 127.143C31.2195 134.486 29.7702 139.046 27.4554 140.781C25.8048 141.85 23.6913 142.395 21.0947 142.395C21.135 140.882 20.8129 139.833 20.0883 139.207C19.3234 138.461 17.7936 137.916 15.4586 137.593V136.383C18.5383 136.706 20.833 136.887 22.3628 136.887C23.2887 136.827 23.953 136.645 24.3757 136.322C25.5431 135.293 26.3886 132.005 26.9119 126.497H18.8C17.4715 131.682 14.2308 135.858 9.09796 139.006C6.90392 140.377 4.32744 141.608 1.38865 142.677L0.583496 141.689C7.80972 137.876 12.1575 132.993 13.5867 127.062C13.6269 126.88 13.6672 126.679 13.7276 126.497H3.86448L3.26062 124.379H14.11C14.2912 123.007 14.4119 121.11 14.5126 118.649L21.7589 119.355C21.4973 120.303 20.7928 120.888 19.6857 121.13C19.4643 122.866 19.3032 123.955 19.2227 124.379H26.4691H26.4489ZM53.5221 115.885L57.0648 111.225L62.097 115.32C62.6807 115.885 63.1839 116.389 63.6469 116.813C63.4657 117.56 62.8619 117.963 61.8353 118.024H1.52955L0.986071 115.905H23.2283C22.705 115.522 22.3024 115.017 22.0206 114.352C21.8395 112.516 21.1551 111.003 19.9474 109.833C19.7259 109.651 19.5448 109.51 19.4039 109.409L19.8668 108.844C24.0134 109.046 26.5496 110.236 27.4353 112.455C27.8378 113.646 27.5158 114.675 26.4892 115.562C26.308 115.703 26.147 115.824 26.0262 115.905H37.2782C38.6671 112.556 39.5528 110.135 39.9553 108.622L46.2556 110.175V107.916H18.7396V109.55C18.7396 109.974 17.9747 110.418 16.4651 110.902C15.6197 111.184 14.8145 111.325 14.0496 111.325H13.2445V95.0039L19.0818 97.5459H45.6115L48.349 94.439L54.5084 99.3213C53.965 99.9468 53.0592 100.391 51.7709 100.673V109.308C51.7307 109.691 50.7444 110.115 48.8321 110.579C48.3088 110.68 47.8257 110.74 47.4231 110.781C46.9803 111.527 46.155 111.931 44.9473 111.991C43.3772 113.444 41.7065 114.775 39.9151 115.946H53.5221V115.885ZM2.65676 84.9366L2.05289 82.8182H28.9248V75.8982L37.0971 76.6648C36.9562 77.7543 36.1711 78.4402 34.6816 78.7227H34.5407V82.8182H52.7572L56.5012 77.8753L62.3989 83.0401C62.6606 83.3226 62.9222 83.5647 63.1437 83.7463C62.882 84.4927 62.258 84.8962 61.2717 84.9568H34.5407V90.9689H48.0672L51.5495 86.4497L57.1654 91.1101C57.4875 91.3926 57.7492 91.6549 57.9706 91.8768C57.7089 92.5829 57.0849 92.9662 56.0986 93.0066H8.01101L7.40714 90.9487H28.9248V84.9366H2.65676V84.9366ZM18.7396 105.858H46.2758V99.7047H18.7396V105.858ZM52.2339 123.168L54.9915 120.061L60.8892 124.802C60.4062 125.367 59.5004 125.831 58.2121 126.154V138.945C58.1719 139.328 57.3063 139.752 55.6558 140.216C54.9311 140.398 54.3474 140.498 53.8442 140.498H52.8981V136.968H40.4384V140.297C40.4384 140.66 39.7742 141.084 38.4256 141.568C37.6204 141.85 36.8555 141.991 36.151 141.991H35.4062V120.727L40.7605 123.188H52.2138L52.2339 123.168ZM40.4384 134.829H52.8981V125.287H40.4384V134.829Z" fill="#3E3A39"/>
<path d="M93.7995 156.921V172.879H93.095V156.921H93.7995Z" fill="#3E3A39"/>
<path d="M359.036 156.921V172.879H358.332V156.921H359.036Z" fill="#3E3A39"/>
<path d="M132.064 25.4204H83.6746V35.9921H132.064V25.4204Z" fill="#3E3A39"/>
<path d="M113.143 136.483H92.732L85.4253 125.912H113.143V136.483Z" fill="#3E3A39"/>
<path d="M113.143 136.484L113.143 0.746338L102.616 0.746338L102.616 136.484H113.143Z" fill="#3E3A39"/>
<path d="M76.75 103.517L122.966 48.9641H136.492L90.2765 103.517H76.75Z" fill="#3E3A39"/>
<path d="M123.046 79.6305L169.262 25.0774H182.808L136.593 79.6305H123.046Z" fill="#3E3A39"/>
<path d="M147.04 136.463V79.6104H136.492V136.463H147.04Z" fill="#3E3A39"/>
<path d="M205.836 136.484V76.3823H216.364V125.932C216.364 131.763 211.633 136.484 205.836 136.484Z" fill="#3E3A39"/>
<path d="M216.363 14.8684H132.064V25.4199H216.363V14.8684Z" fill="#3E3A39"/>
<path d="M205.815 125.912H142.611V136.463H205.815V125.912Z" fill="#3E3A39"/>
<path d="M216.364 79.63H147.141L155.937 69.0583H216.364V79.63Z" fill="#3E3A39"/>
<path d="M367.651 14.1221H233.231V24.6736H367.651V14.1221Z" fill="#3E3A39"/>
<path d="M369 108.945H231.883V119.496H369V108.945Z" fill="#3E3A39"/>
<path d="M266.686 116.349L249.636 136.484H263.183L280.232 116.349H266.686Z" fill="#3E3A39"/>
<path d="M334.177 116.349L351.226 136.484H337.699L320.63 116.349H334.177Z" fill="#3E3A39"/>
<path d="M264.793 100.552V43.7192H252.756V100.552H264.793Z" fill="#3E3A39"/>
<path d="M336.049 100.532V40.4309H348.086V88.4675C348.086 95.1253 342.691 100.532 336.049 100.532Z" fill="#3E3A39"/>
<path d="M348.106 43.6387H276.468L285.123 33.0872H348.106V43.6387Z" fill="#3E3A39"/>
<path d="M342.087 62.603H276.468L285.123 52.0515H342.087V62.603Z" fill="#3E3A39"/>
<path d="M342.087 81.5676H276.468L285.123 71.0161H342.087V81.5676Z" fill="#3E3A39"/>
<path d="M336.069 89.9805H257.547V100.532H336.069V89.9805Z" fill="#3E3A39"/>
<path d="M289.793 0L252.757 43.699H264.794L301.831 0H289.793Z" fill="#3E3A39"/>
<path d="M221.215 165.092C221.215 162.489 222.362 160.149 224.174 158.555C222.644 157.203 220.652 156.396 218.478 156.396C213.687 156.396 209.822 160.29 209.822 165.092C209.822 169.893 213.707 173.787 218.478 173.787C220.672 173.787 222.664 172.96 224.174 171.628C222.362 170.035 221.215 167.714 221.215 165.092V165.092Z" fill="#8E8E8E"/>
<path d="M229.891 156.396C227.717 156.396 225.724 157.203 224.195 158.555C226.006 160.149 227.174 162.469 227.174 165.092C227.174 167.714 226.026 170.035 224.195 171.628C225.724 172.96 227.717 173.787 229.891 173.787C234.682 173.787 238.567 169.893 238.567 165.092C238.567 160.29 234.682 156.396 229.891 156.396V156.396Z" fill="#7BA9D3"/>
<path d="M257.427 165.495C256.783 165.737 256.139 165.959 255.515 166.161V170.458C255.515 171.205 255.334 171.588 254.911 171.79C254.448 172.032 253.764 172.052 252.677 172.052C252.636 171.689 252.435 171.084 252.254 170.741C252.938 170.741 253.603 170.741 253.804 170.741C254.025 170.741 254.106 170.66 254.106 170.418V166.645L252.294 167.23L251.851 165.838C252.475 165.657 253.26 165.415 254.106 165.173V162.187H251.992V160.835H254.106V157.768H255.535V160.835H257.306V162.187H255.535V164.709C256.098 164.547 256.662 164.366 257.206 164.164L257.447 165.475L257.427 165.495ZM261.533 160.23C261.171 161.561 260.708 162.913 260.104 164.204H265.599V172.113H264.17V171.306H260.024V172.193H258.675V166.726C258.232 167.372 257.729 167.937 257.185 168.461C256.964 168.138 256.521 167.614 256.219 167.351C258.091 165.637 259.319 162.812 259.983 160.27H257.266V158.858H266.163V160.27H261.513L261.533 160.23ZM264.19 165.576H260.044V169.893H264.19V165.576Z" fill="#3E3A39"/>
<path d="M279.347 168.441C280.615 168.058 282.125 167.614 283.534 167.17L283.755 168.441C281.561 169.187 279.227 169.914 277.516 170.479L277.214 169.046C277.435 168.986 277.656 168.925 277.918 168.865V159.625C279.528 159.241 281.36 158.676 282.427 158.132L283.574 159.302C282.346 159.826 280.797 160.23 279.347 160.573V163.175H283.454V164.588H279.347V168.461V168.441ZM290.7 168.058C290.7 168.824 290.559 169.329 290.016 169.571C289.492 169.853 288.687 169.894 287.58 169.894C287.52 169.47 287.258 168.744 287.016 168.34C287.862 168.36 288.667 168.36 288.908 168.34C289.17 168.34 289.23 168.259 289.23 168.017V160.29H285.869V172.113H284.4V158.858H290.68V168.058H290.7Z" fill="#3E3A39"/>
<path d="M311.513 162.409C312.6 164.89 314.372 167.21 316.385 168.421C316.022 168.723 315.499 169.288 315.237 169.712C314.573 169.248 313.929 168.663 313.345 167.997V169.369H309.883V172.133H308.353V169.369H304.911V167.977C304.287 168.663 303.643 169.268 302.979 169.752C302.717 169.369 302.254 168.865 301.892 168.562C303.864 167.311 305.636 164.93 306.682 162.409H302.375V160.936H308.353V157.768H309.883V160.936H315.962V162.409H311.513V162.409ZM308.353 167.896V162.409H308.152C307.387 164.466 306.28 166.383 304.951 167.896H308.353ZM313.244 167.896C311.936 166.383 310.829 164.446 310.064 162.409H309.883V167.896H313.244V167.896Z" fill="#3E3A39"/>
<path d="M332.91 170.216C331.702 170.983 329.77 171.75 328.24 172.153C327.999 171.891 327.556 171.427 327.234 171.144C328.804 170.761 330.696 169.994 331.682 169.369L332.91 170.196V170.216ZM341.042 169.228H327.274V168.017H329.408V161.057H333.131C333.172 160.795 333.232 160.512 333.292 160.23H327.676V158.979H333.474C333.534 158.555 333.574 158.111 333.594 157.768L335.124 157.91C335.064 158.273 335.003 158.636 334.943 158.979H340.639V160.23H334.701C334.641 160.512 334.581 160.795 334.54 161.057H338.908V168.017H341.022V169.228H341.042ZM330.817 162.045V162.893H337.479V162.045H330.817ZM337.479 163.801H330.817V164.547H337.479V163.801ZM330.817 165.435V166.222H337.479V165.435H330.817ZM330.817 168.037H337.479V167.109H330.817V168.037ZM336.332 169.329C338.063 169.833 340.015 170.6 341.122 171.144L339.955 172.133C338.888 171.548 337.137 170.822 335.426 170.277L336.332 169.329V169.329Z" fill="#3E3A39"/>
<path d="M112.499 169.207H109.561V170.519H108.232V158.858H112.499V169.207ZM109.561 160.169V163.316H111.191V160.169H109.561ZM111.191 167.916V164.608H109.561V167.916H111.191ZM117.954 166.403C117.572 168.622 116.525 170.66 113.848 172.173C113.667 171.871 113.204 171.346 112.922 171.104C115.197 169.853 116.183 168.199 116.565 166.403H112.902V165.031H113.848V160.351H116.847V157.809H118.196V160.351H121.115V165.031H121.859V166.403H117.954V166.403ZM116.767 165.031C116.807 164.487 116.827 163.942 116.827 163.377V161.682H115.076V165.031H116.747H116.767ZM118.78 167.089C119.887 168.36 121.316 170.136 121.98 171.205L120.873 172.153C120.269 171.043 118.88 169.187 117.793 167.876L118.8 167.089H118.78ZM118.176 161.682V163.397C118.176 163.942 118.176 164.507 118.136 165.031H119.786V161.682H118.196H118.176Z" fill="#3E3A39"/>
<path d="M146.478 158.797V160.149H133.414V158.797H146.478ZM144.847 162.731H146.317V171.971H144.847V171.326H133.615V162.812H135.065V169.974H144.847V162.731ZM142.17 168.965V168.521H137.681V169.005H136.252V161.541H143.68V168.965H142.19H142.17ZM137.681 162.771V164.506H139.392V162.771H137.681ZM137.681 167.331H139.392V165.636H137.681V167.331ZM142.17 162.771H140.54V164.506H142.17V162.771ZM142.17 167.331V165.636H140.54V167.331H142.17Z" fill="#3E3A39"/>
<path d="M164.331 160.452L164.955 160.411V161.783L164.331 161.823C164.331 163.68 164.11 166.08 162.781 168.279C163.546 168.965 164.251 169.611 164.714 170.156L163.647 171.265C163.224 170.741 162.62 170.136 161.916 169.47C161.111 170.438 160.064 171.326 158.675 172.113C158.434 171.77 157.951 171.245 157.629 171.003C159.017 170.257 160.064 169.389 160.809 168.441C159.923 167.654 158.997 166.867 158.192 166.242C158.534 165.152 158.856 163.659 159.178 162.126L157.769 162.207L157.608 160.754L159.42 160.673C159.581 159.665 159.702 158.696 159.782 157.809L161.312 157.889C161.211 158.757 161.071 159.665 160.93 160.593L162.882 160.472V159.725H164.291V160.391L164.331 160.452ZM162.922 161.924C162.157 161.985 161.413 162.025 160.688 162.066C160.426 163.417 160.145 164.749 159.843 165.858C160.426 166.302 161.03 166.807 161.634 167.311C162.701 165.415 162.882 163.478 162.902 161.924H162.922ZM171.256 159.423V171.548H169.806V170.6H166.807V171.77H165.459V159.443H171.256V159.423ZM169.806 169.228V160.815H166.807V169.228H169.806Z" fill="#3E3A39"/>
<path d="M196.981 162.146V163.215H194.304L194.183 164.527H185.246L185.427 163.215H182.951V162.146H185.568L185.729 160.895H194.545L194.424 162.146H197.021H196.981ZM192.19 170.034C193.78 170.438 195.411 170.942 196.477 171.306L195.491 172.234C194.404 171.81 192.552 171.205 190.761 170.72L191.365 170.034H188.184L189.11 170.66C187.842 171.346 185.709 171.951 183.957 172.213C183.776 171.951 183.414 171.487 183.172 171.205C184.682 171.003 186.574 170.499 187.641 170.034H184.964V165.092H194.948V170.034H192.19V170.034ZM184.722 161.682H183.414V159.1H189.271C189.09 158.716 188.889 158.353 188.688 158.03L189.936 157.667C190.258 158.071 190.58 158.636 190.781 159.1H196.498V161.682H195.109V160.25H184.722V161.682V161.682ZM186.393 166.484H193.498V165.899H186.393V166.484ZM186.393 167.856H193.498V167.25H186.393V167.856ZM186.393 169.248H193.498V168.622H186.393V169.248ZM186.614 163.74H189.171C189.211 163.518 189.231 163.316 189.251 163.074H186.715L186.634 163.74H186.614ZM186.876 161.682L186.796 162.287H189.332L189.372 161.682H186.876ZM192.915 163.74L192.975 163.074H190.459C190.419 163.316 190.399 163.518 190.378 163.74H192.915ZM193.076 161.682H190.58L190.519 162.287H193.015L193.056 161.682H193.076Z" fill="#3E3A39"/>
</svg>
