<?xml version="1.0" encoding="utf-8"?>
<!-- Generator: Adobe Illustrator 26.5.0, SVG Export Plug-In . SVG Version: 6.00 Build 0)  -->
<svg version="1.1" id="圖層_1" xmlns="http://www.w3.org/2000/svg" xmlns:xlink="http://www.w3.org/1999/xlink" x="0px" y="0px"
	 viewBox="0 0 695 217" style="enable-background:new 0 0 695 217;" xml:space="preserve">
<style type="text/css">
	.st0{fill:#231815;}
</style>
<path d="M350.9,83.7v-7h144.3v7 M410.1,52.4v-7h-35.4v7 M410.1,32.8v-7h-35.4v7 M412.1,13.8v-7h-35.4v7 M472.3,52.4v-7h-35.4v7
	 M472.3,32.8v-7h-35.4v7 M474.3,13.8v-7h-35.4v7 M350.9,149.6v7h144.3v-7 M477.7,120.8V94.4H367.9v26.3 M386.7,113.7v-12.3h72.2
	v12.3 M597.6,10.3v-7h78.8v7 M664.5,70.2v-7h-52v7 M664.5,97.1v-7h-52v7 M657.6,114.9h-41.2V43.2h41.2 M676.4,36.1h-78.8v85.8
	l78.8,0 M520.7,3.3v7h22.6c-4.7,34.4-14,64.8-27.2,88.1l2,1.4c23.8-23.1,38.1-52.9,46.4-89.5h22.4v-7 M648.2,130.4
	c11.7,7.1,20.9,14.2,33.5,30.2c5.7,7.3,11.6-0.2,12.5-5.6c2.8-16.5-9.1-19.9-45.5-26.2 M621,123.9c-1.3,3.1-24.9,25.6-35.9,32.1
	l0.7,2.2c26-4.7,50.9-21.1,50.9-21.1 M257.1,199.2l0.1,3.7h-0.7c-0.6-2.6-1.3-2.7-3.9-2.7c-4.3,0-4.4-0.2-4.4,0.9v5.8h4
	c2.3,0,2.4-0.4,2.9-2.5h0.6v6h-0.6c-0.5-2.1-0.6-2.4-2.9-2.5h-4v6.4c0,1.1,0.4,1.1,3.4,1.1c3.5,0,4.8-0.3,6.2-3.4h0.7l-1.2,4.4
	h-14.1V216c1.9-0.3,2.2-0.3,2.3-2.3c0,0,0-11.6,0-11.6c0-1.9-0.4-2.1-2.3-2.3v-0.5 M268,216.4v-0.4c1.4-0.2,1.7-0.6,1.7-2.2v-5.4
	c0-3.2-2.6-3.2-4.5-1.1v7.1c0,1.3,0.5,1.5,1.7,1.6v0.4 M261.3,216.4v-0.4c1.3-0.2,1.6-0.5,1.6-2c0,0,0-6.4,0-6.4
	c0-1.5-0.5-1.8-1.7-1.6v-0.4l3.8-1.2v2.1c3.6-3.8,6.8-2.1,6.8,1.8v5.9c0,1.2,0.4,1.7,1.6,1.7v0.4 M311,201.9c0-1.5-0.5-1.8-1.7-1.6
	v-0.4l3.9-1.2v7.9c3.6-3.8,7-2.1,7,1.8v5.9c0,1.2,0.4,1.7,1.6,1.7v0.4h-5.5v-0.4c1.5-0.2,1.7-0.6,1.7-2.2v-5.4
	c0-3.2-2.7-3.2-4.7-1.1v7.1c0,1.3,0.6,1.5,1.8,1.6v0.4h-5.6v-0.4c1.4-0.2,1.6-0.5,1.7-2 M275.9,216.4V216c1.5-0.2,1.9-0.2,1.9-1.7
	v-5.7c0-1.7-0.3-2.7-1.9-2.2v-0.4l4-1.5v2.5c3.3-4.8,5.8-1.2,4.1,0c-1.1,0.7-1.6-0.7-2.3-0.7c-0.7,0-1.8,1.4-1.7,2.2v5.7
	c0,1.5,0.7,1.9,2.2,1.9v0.4 M368.6,204.7v8c0,3.2,2.7,3.2,4.6,1.1v-7.1c0-1.3-0.7-1.5-1.8-1.6v-0.4 M375.3,204.7v8.8
	c0,1.5,0.5,1.8,1.7,1.6v0.4l-3.8,1.2v-2.1c-3.6,3.8-6.8,2.1-6.8-1.8v-5.9c0-1.2-0.4-1.7-1.6-1.7v-0.4 M379.6,216.4V216
	c1.5-0.2,1.9-0.2,1.9-1.7v-5.7c0-1.7-0.3-2.7-1.9-2.2v-0.4l4-1.5v2.5c3.3-4.8,5.8-1.2,4.1,0c-1.1,0.7-1.6-0.7-2.3-0.7
	c-0.7,0-1.8,1.4-1.7,2.2v5.7c0,1.5,0.7,1.9,2.2,1.9v0.4 M286.9,216.4v-0.4c1.9-0.2,2-0.3,2.1-2.3v-6.1c0-1.5-0.3-2-2-1.4v-0.4
	l4.1-1.4v9.3c0.1,1.9,0.1,2.1,1.9,2.3v0.4 M289.9,198.7c1.7,0,1.7,2.6,0,2.6C288.1,201.4,288.1,198.7,289.9,198.7z M416.9,216.4
	v-0.4c1.9-0.2,2-0.3,2.1-2.3v-6.1c0-1.5-0.3-2-2-1.4v-0.4l4.1-1.4v9.3c0.1,1.9,0.1,2.1,1.9,2.3v0.4 M419.9,198.7
	c1.7,0,1.7,2.6,0,2.6C418.1,201.4,418.1,198.7,419.9,198.7z M306.3,212.6c-2.8,6.7-10.1,4.5-10.1-1.7c0-6.2,6.6-8,9.3-5
	c1.5,1.7-1,3.2-1.8,1.7c-0.6-1.1-0.1-2.4-2.1-2.4c-2.3,0-3.4,2.3-3.4,4.4c0,5.3,5.1,7.2,7.7,2.8 M349.7,199.2v0.5
	c-1.8,0.2-2.3,1.2-3.6,3l-3.8,5.9v5.1c0,2.2,0.5,2.1,2.7,2.3v0.5h-7.9V216c2.4-0.2,2.6-0.3,2.6-2.6v-4.5l-3.4-5
	c-1.9-2.5-1.9-3.7-4.2-4.1v-0.5 M339.3,199.2v0.5c-1.8,0-2.3,0.5-1.4,1.9l3.8,5.6l3.7-5.7c0.9-1.3,0.3-1.8-1.4-1.8v-0.5
	 M355.9,204.5c8.3,0,7.5,12.3,0.4,12.3C348.3,216.8,348.4,204.5,355.9,204.5z M356.5,216.1c4.4,0,3.7-10.8-0.9-10.8
	C351.3,205.3,351.9,216.1,356.5,216.1z M398.9,216.4V216c1.9-0.3,2.2-0.3,2.3-2.3v-11.6c0-1.9-0.4-2.1-2.3-2.3v-0.5h7.3v0.5
	c-1.8,0.2-2.4,0.3-2.4,2.2v12.5c0,1.1,0.6,1.1,2.6,1.1c4.3,0,5.3-0.1,7.1-3.5h0.7l-1.3,4.5 M426.1,216.4v-0.4
	c1.9-0.1,2.2-0.5,2.2-2.3v-9.2c0-4.3,2.2-5.8,4.4-5.8c3.5,0,3.5,2.7,1.9,2.7c-1.4,0-1.1-2-2.6-2c-1.2,0-1.5,1.2-1.5,2.3v12
	c0,2.1,0.3,2.1,2.4,2.3v0.4 M426.1,205.6v-0.9h7.5v0.9 M438.6,209.3c0,6.3,5.9,7.3,8.1,3l0.4,0.2c-2.1,6.3-10.4,5.8-10.4-1.6
	c0-8,9.9-8.2,9.9-1.5 M444,208.5c-0.1-4.2-4.9-3.9-5.4,0 M109.5,1.5h-69v71.1h69v0 M91.6,65.3H58.4V8.8h33.2 M82.2,82.3h40.7V10.2
	h17.9v79.4l-40.7,0v11.8h43.6v7.3h-2.9v53.1l-17.9,0v-53.1h-22.8v53.3l-17.9,0 M67.4,162.1l-17.9,0v-52.7H36
	c0,28.2-9.8,42.6-34.8,54.3l-0.8-1.4c15.4-15.8,18.4-28.7,18.4-52.8H7v-7.3h42.4V89.6H9.9V10.2h17.9v72.1h39.5 M293,29.2
	c4.6,3.5,8.3,8.1,10.4,14.4c3.1,9.1,11.5,1.3,11.4-5.4c0-5.2-6.7-8.5-21.3-10.4 M281.2,23.6C281.2,23.6,281.2,23.6,281.2,23.6l0.3,0
	C281.3,23.6,281.2,23.6,281.2,23.6z M317.2,20.3v-7.2H173.3v7.2 M317.2,51.1V44H203.4v7.2 M174.2,82.4h28.3v-7.2H193V37.8h-18.8
	 M231.3,0.3h-18.8v31.3l18.8,0 M287.8,0.3H269v31.3l18.8,0 M200.7,37.8c0,55,4.2,93-22.5,124.6l1,1.2
	c42.6-27.6,37.9-59.6,37.9-125.8 M174.2,97.3v7.2h3c-0.5,24.2-2.9,33.5-11.6,49l1.2,1c19-14.5,23.7-28.9,25.8-50h9.9v-7.2
	 M260.7,69.8H271v-7.2h-49.2v79.1l49.2,0v-7.2h-10.3 M246.2,134.6h-9.9V69.8h9.9 M275.3,37.8v12.5c0,70.5,19.3,94.6,37.6,108.4
	c13,9.8,22.8-4.2,12-14.2c-2.2-2,3.2-23.9,4.4-32.5l-1.9-0.5c-4.4,10.2-8.6,19.3-12.5,25.7c-20.6-17.7-24.4-60.1-23.9-85.2V37.8
	 M305,65.4c-2.5,31.9-24.8,71.8-60.8,94.8l0.7,1.4c26.1-8.5,61.4-29.8,77.2-89.9 M495.2,70.2v-70h-18.8v63h-42.8v-63h-18.8v63h-45.1
	v-63h-18.8v70"/>
<g>
	<g>
		<defs>
			<polygon id="SVGID_1_" points="391.5,124.1 453,124.1 422.7,156.8 			"/>
		</defs>
		<clipPath id="SVGID_00000034780540361961974260000018434818019816745386_">
			<use xlink:href="#SVGID_1_"  style="overflow:visible;"/>
		</clipPath>
		<g style="clip-path:url(#SVGID_00000034780540361961974260000018434818019816745386_);">
			
				<image style="overflow:visible;" width="1476" height="1476" xlink:href="427314AB.jpg"  transform="matrix(4.866825e-02 0 0 5.333731e-02 384.5639 88.6847)">
			</image>
		</g>
	</g>
	<g>
		<defs>
			<polygon id="SVGID_00000163066246429814318660000007017611390295395006_" points="615.1,10.3 661.8,10.3 638.5,38.5 			"/>
		</defs>
		<clipPath id="SVGID_00000012432152569227814720000015422499796553216178_">
			<use xlink:href="#SVGID_00000163066246429814318660000007017611390295395006_"  style="overflow:visible;"/>
		</clipPath>
		<g transform="matrix(1 0 0 1 0 0)" style="clip-path:url(#SVGID_00000012432152569227814720000015422499796553216178_);">
			
				<image style="overflow:visible;" width="1476" height="1476" xlink:href="427314AC.jpg"  transform="matrix(3.702009e-02 0 0 4.057171e-02 609.7788 -16.6204)">
			</image>
		</g>
	</g>
	<g>
		<defs>
			<rect id="SVGID_00000124859828167687133740000016815062008713058950_" x="386.1" y="0.2" width="16.6" height="70"/>
		</defs>
		<clipPath id="SVGID_00000113313555410525897460000005205945397130114438_">
			<use xlink:href="#SVGID_00000124859828167687133740000016815062008713058950_"  style="overflow:visible;"/>
		</clipPath>
		<g style="clip-path:url(#SVGID_00000113313555410525897460000005205945397130114438_);">
			
				<image style="overflow:visible;" width="1476" height="1476" xlink:href="427314AD.jpg"  transform="matrix(6.491058e-02 0 0 6.491058e-02 361.4766 -22.3614)">
			</image>
		</g>
	</g>
	<g>
		<defs>
			<rect id="SVGID_00000049220707852322268840000008888002396178553768_" x="541.7" y="57.6" width="42.1" height="99.2"/>
		</defs>
		<clipPath id="SVGID_00000112619955866872774820000004890935090700033978_">
			<use xlink:href="#SVGID_00000049220707852322268840000008888002396178553768_"  style="overflow:visible;"/>
		</clipPath>
		
			<g transform="matrix(1 2.980232e-08 0 1 0 0)" style="clip-path:url(#SVGID_00000112619955866872774820000004890935090700033978_);">
			
				<image style="overflow:visible;" width="1476" height="1476" xlink:href="427314AA.jpg"  transform="matrix(3.198672e-02 -7.638191e-02 7.083561e-02 2.966429e-02 476.4561 134.546)">
			</image>
		</g>
	</g>
	<g>
		<defs>
			<rect id="SVGID_00000129920232488237072310000013049390127110240396_" x="448.3" y="0.2" width="16.6" height="70"/>
		</defs>
		<clipPath id="SVGID_00000098940781331923686660000012322407351207873689_">
			<use xlink:href="#SVGID_00000129920232488237072310000013049390127110240396_"  style="overflow:visible;"/>
		</clipPath>
		<g style="clip-path:url(#SVGID_00000098940781331923686660000012322407351207873689_);">
			
				<image style="overflow:visible;" width="1476" height="1476" xlink:href="427314A9.jpg"  transform="matrix(6.491058e-02 0 0 6.491058e-02 423.673 -22.3614)">
			</image>
		</g>
	</g>
	<g>
		<defs>
			
				<rect id="SVGID_00000060714800335522907420000012973553826842674819_" x="80.8" y="0.2" transform="matrix(-1.836970e-16 1 -1 -1.836970e-16 111.1575 -57.0665)" width="6.6" height="53.7"/>
		</defs>
		<clipPath id="SVGID_00000139251887024377008720000018358112169436153227_">
			<use xlink:href="#SVGID_00000060714800335522907420000012973553826842674819_"  style="overflow:visible;"/>
		</clipPath>
		
			<g transform="matrix(1 0 0 1 0 9.536743e-07)" style="clip-path:url(#SVGID_00000139251887024377008720000018358112169436153227_);">
			
				<image style="overflow:visible;" width="1476" height="1476" xlink:href="427314B4.jpg"  transform="matrix(0 2.585347e-02 -4.816800e-02 0 127.3676 13.9368)">
			</image>
		</g>
	</g>
	<g>
		<defs>
			
				<rect id="SVGID_00000118378849554288368080000005210215199649659816_" x="80.8" y="20.2" transform="matrix(-1.836970e-16 1 -1 -1.836970e-16 131.123 -37.101)" width="6.6" height="53.7"/>
		</defs>
		<clipPath id="SVGID_00000169542492090969328070000000337287587684229292_">
			<use xlink:href="#SVGID_00000118378849554288368080000005210215199649659816_"  style="overflow:visible;"/>
		</clipPath>
		<g style="clip-path:url(#SVGID_00000169542492090969328070000000337287587684229292_);">
			
				<image style="overflow:visible;" width="1476" height="1476" xlink:href="427314B7.jpg"  transform="matrix(0 2.585347e-02 -4.816800e-02 0 127.3676 33.9024)">
			</image>
		</g>
	</g>
	<g>
		<defs>
			<polygon id="SVGID_00000008119534896764094220000015748326924430900902_" points="236.4,117 236.4,89.3 271,89.2 271,116.8 			
				"/>
		</defs>
		<clipPath id="SVGID_00000054265281291686064220000009245801985891939006_">
			<use xlink:href="#SVGID_00000008119534896764094220000015748326924430900902_"  style="overflow:visible;"/>
		</clipPath>
		
			<g transform="matrix(1 0 0 1 0 -3.814697e-06)" style="clip-path:url(#SVGID_00000054265281291686064220000009245801985891939006_);">
			
				<image style="overflow:visible;" width="1476" height="1476" xlink:href="427314BA.jpg"  transform="matrix(4.932086e-02 2.104992e-02 -1.915459e-02 4.661597e-02 250.7331 46.3333)">
			</image>
		</g>
	</g>
</g>
<path class="st0" d="M375.2,27.2l-0.5-1.5l37-13.3l0.5,1.5 M410.1,32.8l-0.5-1.5l-34.9,14.1l0.5,1.5 M474.3,13.8l-0.5-1.5l-37,13.3
	l0.5,1.5 M472.3,32.8l-0.5-1.5l-34.9,14.1l0.5,1.5"/>
</svg>
