<?xml version="1.0" encoding="utf-8"?>
<!-- Generator: Adobe Illustrator 26.5.0, SVG Export Plug-In . SVG Version: 6.00 Build 0)  -->
<svg version="1.1" id="圖層_1" xmlns="http://www.w3.org/2000/svg" xmlns:xlink="http://www.w3.org/1999/xlink" x="0px" y="0px"
	 viewBox="0 0 1186 273" style="enable-background:new 0 0 1186 273;" xml:space="preserve">
<style type="text/css">
	.st0{fill:#FFFFFF;}
</style>
<path class="st0" d="M176.6,43.6h-18.2v143.8h18.2V43.6z M167.5,26.9c17.4,0,17.4-26.9,0-26.9C150.1,0,150.1,26.9,167.5,26.9z
	 M286.5,158.9L237.6,44h-20.9l63.9,148.5L344,44h-8.7L286.5,158.9z M395,112.2H444v-7.4H395V50.9h54.4v-7.4h-72.6v144H452v-7.4H395
	V112.2z M686.2,43.8v143.8h17.9V50.7h15c27.4,0,40.5,10.6,40.7,32.4c0.2,23.6-21.3,34.6-43.6,32.7v7.2c28.5,2.7,61.6-10.5,61.6-39.6
	c0-26.4-18.3-39.5-54.4-39.5h0H686.2z M893.5,187.3h19.1L848.7,38.8l-63.5,148.5l8.7,0l49.7-116.9l21.2,49.8h-33v7.4h36.2
	L893.5,187.3z M942.6,43.9v143.8h18v-137c24.4-0.9,48.6,1.9,48.6,29.1c0,24.8-20,28.3-41.4,26.3l51.6,81.5h20l-47.3-74.5
	c11.5-1,35.1-9.4,35.1-33.8c0-25-20.6-35.9-54.7-35.9L942.6,43.9z M487.3,43.9v143.8h18v-137c24.4-0.9,48.6,1.9,48.6,29.1
	c0,24.8-20,28.3-41.4,26.3l51.6,81.5h20l-47.3-74.5c11.5-1,35.1-9.4,35.1-33.8c0-25-20.6-35.9-54.7-35.9L487.3,43.9z M1101.4,113.6
	l62,74h21.9l-68.2-80.1l60.2-63.8l-9.8,0L1101.4,113.6z M1090.5,43.7h-18.2v143.9h18.2V43.7z M66.1,141.4
	c-30.2-24.5-29.3-25.5-4.1-60.1c20.8-28.5-11.2-37.9-44.1-40.5v146.9h80.4C94.2,173.6,83.9,155.9,66.1,141.4L66.1,141.4z M64.2,0H0
	v28.6C58.2,31.5,117.5,43,79.9,86.9c-25.6,29.9-40.1,28.2-4.6,43.1c12.6,5.3,24.8,10,35.2,22V0H64.2L64.2,0z M338.5,271.4
	c4.7-6,4.1-10.1,4.1-25.7l2.7,0.2c0,0.2-0.2,0.4-0.6,0.4c0,14.6,0.6,20.2-4.5,26.6L338.5,271.4z M355.4,247.1c0,0.2-0.2,0.4-0.6,0.4
	v22.4h-2.1v-23L355.4,247.1z M363.7,245.6l2.8,0.2c0,0.2-0.2,0.3-0.6,0.4v26.4h-2.1V245.6z M408.8,254.9c-0.3,0.1-0.6,0-0.9-0.2
	c-21.1,5.6-25.8,18.2,1.8,14.1l0.2,2.2c-25,3.3-26.8-7.1-13.5-14.1c-1.1-1.9-1.4-5.5-1.4-12.4l3.4,0.3c0,0.4-0.3,0.7-1,0.7
	c0,5.4,0.2,8.8,1,10.4c2.9-1.4,6.2-2.6,9.6-3.7L408.8,254.9z M438.5,262.3v1.2c1.2,0.8,4,2.8,4.7,3.4l-1.2,1.6
	c-0.7-0.7-2.2-2-3.5-3.1v7.2h-2v-8.4c-1.4,2.7-3.2,5.2-5.2,6.6c-0.2-0.6-0.6-1.4-1-1.8c2-1.4,4.1-4,5.4-6.7h-4.9v-1.9h5.8v-3.9
	l2.6,0.2c0,0.2-0.2,0.3-0.6,0.4v3.3h4.7v1.9L438.5,262.3L438.5,262.3z M443.5,257.6v-8.1c-2.7,3.4-7.2,6.3-11.3,7.8
	c-0.3-0.5-0.9-1.2-1.3-1.6c3.8-1.2,7.8-3.6,10.4-6.3h-9.1v-1.9h11.3v-3.6l2.7,0.2c0,0.2-0.2,0.4-0.6,0.4v3h11.7v1.9h-9.5
	c2.7,2.7,6.9,5,10.9,6.1c-0.4,0.4-1.1,1.2-1.4,1.7c-4.3-1.4-8.8-4.2-11.6-7.6v8.1H443.5L443.5,257.6z M458.8,262.3h-5.6
	c1.5,2.8,3.9,5.7,6.1,7.2c-0.5,0.4-1.1,1.1-1.5,1.6c-2-1.7-4.3-4.7-5.8-7.8v9.3h-2v-9.1c-1.7,3.2-4.2,6.1-6.6,7.7
	c-0.3-0.5-0.9-1.2-1.3-1.5c2.6-1.5,5.1-4.4,6.7-7.4h-4.2v-1.9h5.5v-3.9l2.6,0.2c0,0.2-0.2,0.3-0.6,0.4v3.3h6.8L458.8,262.3
	L458.8,262.3z M485.5,246.2c-0.1,0.3-0.4,0.5-1,0.5c-1.5,7.6-2.1,13.8-1.2,20c0.6-1.5,1.9-4.8,2.3-5.8l1.3,1.4
	c-1.5,4.4-3.2,5.4-2.7,8.7l-2.2,0.4c-2.4-7.8-1.3-16.5,0.3-25.6C482.3,245.7,485.5,246.3,485.5,246.2z M505.1,268.8
	c-8.5,1.1-20.1-1-11.8-11.3l2,0.9c-7.8,8.5,3.5,9.2,9.8,8.3L505.1,268.8L505.1,268.8z M490.9,249.9c4-0.1,9.4-0.5,13.5-1.2l0.2,2.2
	c-3.8,0.6-10,1.1-13.6,1.1L490.9,249.9z M527.7,245.4h26v27.2h-2.1v-1.5h-21.8v1.5h-2V245.4z M529.7,269.2h21.8v-21.8h-21.8V269.2z
	 M549.9,259.5v1.8h-4.5v6.4h-1.9v-6.4h-5.7c-0.5,2.6-1.7,5-4.5,6.8c-0.3-0.4-0.9-1.1-1.3-1.4c2.3-1.5,3.5-3.4,3.9-5.5h-4.3v-1.8h4.6
	c0.1-1.3,0.1-3.2,0.1-4.6H532v-1.8h4.3v-4.2l2.4,0.2c0,0.2-0.2,0.3-0.6,0.4v3.6h5.4v-4.2l2.5,0.2c0,0.2-0.2,0.4-0.6,0.4v3.6h4.4v1.8
	h-4.4v4.6L549.9,259.5L549.9,259.5z M538.1,257.1c0,0.8,0,1.6-0.1,2.4h5.5v-4.6h-5.4V257.1z M575.7,248.8c3.3,0.2,7.4,0.1,10.8,0.1
	c0-1.5-0.1-3.2-0.1-4.3l3.1,0.1c0,0.4-0.3,0.6-0.8,0.7c0,0.5,0,2.9,0,3.4c3.6-0.2,7.2-0.5,10.2-1.2l0.3,2c-3,0.7-6.6,1-10.5,1.2
	c0,1.9,0.1,3.8,0.1,5.7c3-0.2,6.2-0.6,8.7-1.2l0.2,2c-2.6,0.6-5.8,0.9-8.9,1.1l0.2,5.1c2.8,0.9,5.9,2.5,9.1,4.8l-1.4,1.9
	c-2.8-2.2-5.4-3.7-7.7-4.5c0.7,6.2-4.6,6.3-7.1,6c-9-1.3-6-11.2,4.8-8.6c0-1.3-0.1-2.9-0.1-4.6c-11.5,0.7-11.5-2.9-6.9-5.9l1.5,1
	c-5.8,3.3,1.2,3.3,5.3,3.1l-0.2-5.7c-3.4,0.1-7.5,0.1-10.9,0L575.7,248.8L575.7,248.8z M587.1,264.8c-9.6-2.3-10.1,4.4-5,4.9
	C586.5,270.2,587.1,269.6,587.1,264.8z M627.6,244.9l3.2,0.2c-0.1,0.3-0.3,0.6-0.9,0.6c-0.1,1.4-0.2,3.3-0.3,4.4l1,0.4
	c-0.7,1.5-1,3.3-1.2,4.4c25.7-20.6,4.7,22.9,19.1,11.2c0.1,0.6,0.3,1.9,0.4,2.3c-19,11.6,4.1-32.6-19.6-10.9l0,14.2h-2.2l0-12.6
	c-1.1,2.2-3.2,5-5.6,7.4l-1.1-1.9c3-3.2,7.3-7.3,6.9-12c-1.1,0.2-3.3,0.5-5.7,0.5l0-2.2l0,0c2.5,0,4.8-0.2,5.8-0.5L627.6,244.9z
	 M687.3,250.7c-2.6,0.9-6.1,1.5-9.5,1.8c-1.3,7.1-3.2,14.1-5.7,19.3l-2.2-0.8c2.5-5,4.4-11.4,5.6-18.4c-0.6,0-4.8,0.1-5.7,0l0-2.1
	c1.5,0.1,4,0,6,0c0.3-2,0.6-4.1,0.8-6l3.2,0.3c0,0.3-0.5,0.6-0.9,0.6c-0.2,1.4-0.5,3-0.8,4.9c3-0.3,6.1-0.8,8.6-1.7L687.3,250.7z
	 M695.5,271.3c-6.7,0.8-18.3-0.8-11.7-9.4l1.9,0.8c-5.5,6.4,3.6,6.9,9.8,6.3L695.5,271.3L695.5,271.3z M683.5,256.4
	c3.2-1,7.6-1.7,11.2-1.6v2.1c-3.5-0.1-7.5,0.4-10.7,1.4C684,258.3,683.5,256.4,683.5,256.4z M720.3,254.8c-0.1-1.3-0.7-3.4-1.4-4.9
	l1.7-0.5c0.7,1.5,1.3,3.6,1.5,4.9L720.3,254.8z M716.2,268.7c2.2-1.4,4.6-4.4,6.1-7.2h-5.5v-1.8h5.9v-3.3h-6.3v-1.8h14.9v1.8h-6.6
	v3.3h6.1v1.8h-6.1c0,0,0,0.9,0,0.9c1.1,0.8,4.4,3.4,5.2,4.1l-1.2,1.6c-0.7-0.8-2.5-2.5-3.9-3.7v8.3h-2v-8.5
	c-1.5,2.4-3.4,4.7-5.1,6.1L716.2,268.7z M725.2,254.3c0.6-1.4,1.4-3.5,1.7-5l2.3,0.7c-0.1,0.2-0.3,0.3-0.6,0.3
	c-0.4,1.2-1.3,3.2-1.9,4.5L725.2,254.3z M730.7,247.4v1.8H717v-1.8h5.7V244l2.6,0.1c0,0.2-0.2,0.4-0.6,0.4v2.9L730.7,247.4
	L730.7,247.4z M728,271.2c5.2-5.5,4.5-9.9,4.5-24.4l1.5,0.5c3.2-0.9,6.7-2.2,8.6-3.3l2.1,1.6c-0.1,0.1-0.3,0.1-0.7,0.1
	c-2.3,1.1-6.1,2.4-9.6,3.3v5.6h10.5v0v1.9h-3.6v16.1h-2v-16.1h-4.9c0,5.2-0.2,11.5-5,16.2L728,271.2z M764.8,256.6
	c2.5-2.7,4.7-7.4,6-12.1l2.7,0.7c-0.1,0.2-0.3,0.3-0.7,0.3c-0.5,1.5-1,3.1-1.6,4.5h6.6V244l2.8,0.2c0,0.2-0.2,0.4-0.6,0.4v5.6h11.5
	v2h-11.5v7.1h10.4v2h-10.4v8.3v0h13v2H765v-2h12.8v-8.3h-9.4v-2h9.4v-7.1h-7.6c-1.1,2.2-2.3,4.2-3.7,5.7L764.8,256.6z M813.7,252.7
	c2,0.8,4.5,2.1,5.8,3.2l-1.2,1.7c-1.2-1-3.7-2.5-5.7-3.3L813.7,252.7L813.7,252.7z M813.5,270.8c1.6-2.4,3.9-6.6,5.6-10.2l1.6,1.3
	c-1.5,3.3-3.6,7.2-5.1,9.6c0.2,0.3,0.2,0.5,0.1,0.8L813.5,270.8L813.5,270.8z M815.4,244.2c2,0.9,4.4,2.3,5.6,3.4l-1.2,1.7
	c-1.2-1.1-3.6-2.7-5.6-3.6L815.4,244.2L815.4,244.2z M822,247.1c5.7-0.7,12.2-1.8,15.8-3.1l2,1.7c-2.2,0.6-4.6,1.3-7.6,1.8v5.7h9.2
	v2l0,0h-9.2v5.4h7v11.9H837v-1.2h-11.7v1.4h-2v-12.1h6.7v-5.4H821v-2h9.1v-5.4c-2.5,0.4-5,0.8-7.5,1L822,247.1z M837,269.3v-6.9
	h-11.7v6.9H837z"/>
</svg>
