<svg width="370" height="135" viewBox="0 0 370 135" fill="#FADAA3" xmlns="http://www.w3.org/2000/svg">
<path class="st0" d="M4.8,111.3v19.8c0,2.1,1.1,1.9,3.6,1.9v0.5H0.8V133c2.4,0,3.4,0.2,3.4-1.9v-20.9H0.8v-0.5h7.4l13.3,17.7V112
	c0-2.2-1-1.8-3.5-1.8v-0.5h7.4v0.5c-2.6,0-3.4-0.4-3.4,1.8v21.7h-0.5L4.8,111.3z M116.7,111.3v19.8c0,2.1,1.1,1.9,3.6,1.9v0.5h-7.5
	V133c2.4,0,3.4,0.2,3.4-1.9v-20.9h-3.4v-0.5h7.4l13.3,17.7V112c0-2.2-1-1.8-3.5-1.8v-0.5h7.4v0.5c-2.6,0-3.4-0.4-3.4,1.8v21.7h-0.5
	L116.7,111.3z M234.5,111.3v19.8c0,2.1,1.1,1.9,3.6,1.9v0.5h-7.5V133c2.4,0,3.4,0.2,3.4-1.9v-20.9h-3.4v-0.5h7.4l13.3,17.7V112
	c0-2.2-1-1.8-3.5-1.8v-0.5h7.4v0.5c-2.6,0-3.4-0.4-3.4,1.8v21.7h-0.5L234.5,111.3z M40.1,125.8h-7.5l-1.4,4.3c-1,3-0.7,2.9,2.8,2.9
	v0.5h-7.2V133c2.2,0,2.5,0.2,3.3-2l7.5-21.9h0.4l8.5,23.9h2.9v0.5H39.2V133h3.4L40.1,125.8z M36.3,115l-3.4,10.3h7.1L36.3,115z
	 M269.2,125.8h-7.5l-1.4,4.3c-1,3-0.7,2.9,2.8,2.9v0.5h-7.2V133c2.2,0,2.5,0.2,3.3-2l7.5-21.9h0.4l8.5,23.9h2.9v0.5h-10.3V133h3.4
	L269.2,125.8z M265.3,115l-3.4,10.3h7.1L265.3,115z M57.8,110.2c-6.1-0.1-8.6,0.6-8.4,6.5h-0.6v-7h21.4v7h-0.6
	c0.2-5.9-2.2-6.6-8.4-6.5V133H65v0.5H54.2V133h3.6V110.2z M286.2,110.2c-6.1-0.1-8.6,0.6-8.4,6.5h-0.6v-7h21.4v7h-0.6
	c0.2-5.9-2.2-6.6-8.4-6.5V133h3.6v0.5h-10.8V133h3.6V110.2z M76.8,110.2h-3.2v-0.5h9.9v0.5h-3.2V133h3.2v0.5h-9.9V133h3.2V110.2z
	 M98.4,109.1c5.9,0,11.1,5.5,11.1,12.5c0,7-5.1,12.5-11.1,12.5c-5.9,0-11.1-5.5-11.1-12.5C87.4,114.6,92.5,109.1,98.4,109.1z
	 M98.4,133.5c6.2,0,7.1-7.5,7.1-11.9c0-4.4-0.8-11.9-7.1-11.9c-6.2,0-7.1,7.5-7.1,11.9C91.4,126,92.2,133.5,98.4,133.5z
	 M140.2,125.2c0,5.7,3.5,8.4,7.7,8.4c3.4,0,5.8-2.1,5.8-5.1c0-3.5-1.9-4.6-5.9-5.2c-5.5-0.8-8.1-1.7-8.1-7.4c0-3.9,2.6-6.7,6.5-6.7
	c3.6,0,5,2.1,6.2,2.1c0.8,0,0.9-0.8,1-1.3h0.6v7.1h-0.6c-0.3-3.9-2.5-7.4-7.2-7.4c-3,0-5.1,1.9-5.1,5c0,3.1,1.2,3.7,7,4.8
	c5.1,0.9,7.2,2.5,7.2,6.9c0,4.4-2.5,7.8-7.6,7.8c-3.5,0-5.4-1.8-6.7-1.8c-0.8,0-0.9,0.8-0.9,1.4h-0.6v-8.6L140.2,125.2z
	 M184.6,112.8c-4.9-0.1-6.9,0.5-6.7,5.2h-0.4v-5.6h17.1v5.6h-0.4c0.2-4.7-1.8-5.3-6.7-5.2V131h2.9v0.4h-8.6V131h2.9L184.6,112.8
	L184.6,112.8z M205.5,111.9c4.7,0,8.8,4.4,8.8,10c0,5.6-4.1,10-8.8,10c-4.7,0-8.8-4.4-8.8-10C196.6,116.4,200.7,111.9,205.5,111.9z
	 M205.5,131.5c5,0,5.7-6,5.7-9.6s-0.7-9.6-5.7-9.6c-5,0-5.7,6-5.7,9.6S200.5,131.5,205.5,131.5z M300,109.6h10.6v0.5h-3.7v18
	c0,7.1,14,7.5,14-1.4v-14.3c0-2.5-1.1-2.3-4.1-2.3v-0.5h8.1v0.5c-2.5,0-3.5-0.3-3.5,2.3v14.7c0,9.4-18.1,8.7-18.1,0.9v-18H300
	L300,109.6z M325.8,110.2v-0.5h11.9c9.5,0,10.2,11-0.2,11.6c11.6,0.1,3.3,14.2,10.4,11.6l0.2,0.4c-13.4,3.2-3.2-11.8-12.6-11.8h-2.6
	V133h3.6v0.5h-10.6V133h3.5v-22.8H325.8z M332.9,121h2.8c7.9,0,6.9-10.8,0.6-10.8h-3.4V121z M355.5,133c7.9,0,13.2,1,13.2-6.4h0.6v7
	h-20.4V133h3.1l0-22.8h-3.1v-0.5h18.7l0.4,5.8h-0.6c0-6.1-6.1-5.2-11.9-5.2v10.9c4.8,0,6.6,0,6.6-4.3h0.6v9h-0.6
	c0-4.1-1.5-4.1-6.6-4.1V133z"/>
<linearGradient id="SVGID_1_" gradientUnits="userSpaceOnUse" x1="0.4795" y1="45.2234" x2="369.5172" y2="45.2234">
	<stop  offset="8.894879e-02" style="stop-color:#FAEBC8"/>
	<stop  offset="0.1301" style="stop-color:#CBAA69"/>
	<stop  offset="0.4993" style="stop-color:#FAEBC8"/>
	<stop  offset="0.6422" style="stop-color:#FAEBC8"/>
	<stop  offset="0.8706" style="stop-color:#CBAA69"/>
	<stop  offset="0.9778" style="stop-color:#E5CE9D"/>
</linearGradient>
<path fill="url(#SVGID_1_)" d="M38.7,36.4L38.7,36.4l-2.4,4.8C30.7,39.5,20.6,35.6,17,23h-5.5v12c3.2-0.5,6.3-1.1,8.9-1.8l0.5,1.5
	c-4.2,2.2-12.7,5.1-17.7,6.2l-1.6-4.7c1.8-0.1,3.9-0.4,6-0.7V23H1.1v-2h7.2V2.9h25.1v2H12.2v4h19v2h-19v4h19v2h-19V21h25.7v2
	l-19.1,0C21.9,29.7,27.1,34.8,38.7,36.4z M22.1,32.4c2.8-1.6,5.9-5.9,7.7-9l3.7,2.6C28.4,30.4,24.7,33.1,22.1,32.4z M1.7,75.2
	l-1.2-0.9c2.1-4.5,4.2-11.8,4.9-21.1H1.2v-2h14.6v2H9.1C8.3,61.1,5.3,70.3,1.7,75.2z M3.9,64.4l9.7,0v20.4h-3.3h0v-2.7h-3v4.6H3.9
	V64.4z M10.2,66.4H7.4v13.7h2.9V66.4z M18.3,88.5l-0.5-1.3c7.7-2.8,12.9-7.6,16.4-13.9l2.9,1.8C33.4,81.6,24.6,87.3,18.3,88.5z
	 M24.4,48l3.4,0.1c-0.7,15.8,1.5,32.3,5.7,35.2c2.4,1.6,2.8,0.5,2.7-4.8h1.4v0c1.8,6.2,1,10.7-2.8,9.6C28.7,86.3,24.4,79.5,24.4,48z
	 M33.6,71.5C33,70.2,32,68.3,31.3,67l1-0.7c1.2,0.8,2.4,2,3.7,3.5L33.6,71.5z M14.5,72.7v-2l23.8,0v2L14.5,72.7z M12.8,88.7L12,87.5
	c3.6-3,6.3-8.1,6-20.2l3.3,0.2C21.5,80.1,18.6,84.8,12.8,88.7z M18.1,74.1c2.5-0.4,7.1,3.5,8.4,4.9l-2.4,2.6
	C23.2,80.2,19.9,75.5,18.1,74.1z M23.3,56.4c-1.1,0.8-6,3.4-8.4,3.9L14,57.2C16.8,57.2,20,56.9,23.3,56.4z M20.9,61.2l1.1-0.5
	c1.3,2,2.1,3.6,2.7,5.6l-2.3,0.8C21.9,64.8,21.5,62.7,20.9,61.2z M23.4,62.9c0.6,1.4-4,3.1-8.1,4.2l-0.9-3.1
	C16.9,64.1,20.8,63.6,23.4,62.9z M21.1,53.7L24,55c-1.6,3.2-5.7,10.3-8.8,11.7C16.8,63.9,19.2,59.3,21.1,53.7z M14.9,60.1
	c1.3-3.2,2.6-8.7,3-11.5l3.3,1C20.1,52.2,17.2,58.7,14.9,60.1z M37.1,55.7c-1.1,1-5.8,3.6-8.2,4.1l-0.8-3.2
	C30.8,56.6,33.7,56.2,37.1,55.7z M34.7,60.7l1.1-0.4c1.3,2,2.3,4,2.9,6l-2.5,0.8C35.8,64.9,35.3,62.2,34.7,60.7z M36.8,62.4
	c0.6,1.4-3.3,3.2-7.3,4.2l-1.1-3.1C30.9,63.5,34.7,63.1,36.8,62.4z M35,53.1l3,1.4c-1.6,3.2-6.4,10.7-8.9,10.9
	C32.3,59.8,33.2,58.5,35,53.1z M28.7,59.3c1.3-3.2,2.2-7.9,2.6-10.7l3.3,1C33.6,52.2,31.1,57.8,28.7,59.3z M365.4,53.8
	c6.5-9.5,6.7-23.8-9.6-23.8c-9.5,0-15,5-14.6,13.9h6.6c-0.2-4.8,1.6-9.3,7.7-9.3c10.2,0,7.8,11.6,3.8,17l-18.5,27.2v5.4h3.7
	L365.4,53.8z M347.9,84.3h21.5V77c-3.4,2.8-4.6,2.6-18.3,2.6L347.9,84.3z M140,52.1H88.4v-4.7H140V52.1z M108,55.6
	c4.1,4.3,7.7,8.9,10.4,13.1l6.2-5.6c-3.8-4.1-9.5-8.2-14.5-10.4L108,55.6z M54,39.9c2.1-0.1,4.2-0.2,6-0.4V9.1
	c0-0.4-0.3-0.8-0.8-0.8h-5V3.6h36.5v4.7h-3.5c-0.4,0-0.8,0.3-0.8,0.8l0,79.7h-8.7V42.3c0-0.5-0.6-0.9-1.1-0.7
	c-6.9,2.9-13.7,5.1-20.3,6.5L54,39.9z M94.4,61.8l3.8,0.7c-0.4,8.5-2.2,15.1-6,21.8l-8-4.9C89.1,75.2,92.7,68.2,94.4,61.8z
	 M69.3,14.9H77c0.4,0,0.8-0.3,0.8-0.8v-5c0-0.4-0.3-0.8-0.8-0.8h-7.7c-0.4,0-0.8,0.3-0.8,0.8v5C68.5,14.5,68.8,14.9,69.3,14.9z
	 M69.3,26.3H77c0.4,0,0.8-0.3,0.8-0.8v-5.2c0-0.4-0.3-0.8-0.8-0.8h-7.7c-0.4,0-0.8,0.3-0.8,0.8v5.2C68.5,26,68.8,26.3,69.3,26.3z
	 M69.2,38.5c2.5-0.4,5.1-0.8,7.9-1.4c0.4-0.1,0.6-0.4,0.6-0.7v-4.7c0-0.4-0.3-0.8-0.8-0.8h-7.7c-0.4,0-0.8,0.3-0.8,0.8v6.9
	L69.2,38.5L69.2,38.5z M123.2,67.7c0.4,9.3-0.2,10.7-6.9,10.7c-6.1,0-6.9-1.2-6.9-5.4V59.2h-8.7v17.5c0,8.7,5.3,9.2,17,9.2
	c11,0,14.2-6.4,9.2-18.1H123.2z M90,9.2h17.8c0.4,0,0.8-0.3,0.8-0.7v-8h8.7v8c0,0.4,0.3,0.7,0.8,0.7h20.9v4.7H118
	c-0.4,0-0.8,0.3-0.8,0.8v4.7c0,0.4,0.3,0.7,0.8,0.7h17.6v22H91.3v-22h16.4c0.4,0,0.8-0.3,0.8-0.7v-4.7c0-0.4-0.3-0.8-0.8-0.8H90V9.2
	z M126.7,24.9h-3.5c-0.4,0-0.8,0.3-0.8,0.8v11.1c0,0.4,0.3,0.8,0.8,0.8h3.5c0.4,0,0.8-0.3,0.8-0.8V25.6
	C127.4,25.2,127.1,24.9,126.7,24.9z M115.3,24.9h-3.7c-0.4,0-0.8,0.3-0.8,0.8v11.1c0,0.4,0.3,0.8,0.8,0.8h3.7c0.4,0,0.8-0.3,0.8-0.8
	V25.6C116,25.2,115.7,24.9,115.3,24.9z M100.2,37.4h3.5c0.4,0,0.8-0.3,0.8-0.8V25.6c0-0.4-0.3-0.8-0.8-0.8h-3.5
	c-0.4,0-0.8,0.3-0.8,0.8v11.1C99.4,37.1,99.8,37.4,100.2,37.4z M143.1,76.8c-3.8-7.2-7.8-12.5-13-17.3l-3.2,2.1
	c3.3,5.9,5.7,11.8,8.1,19.2L143.1,76.8z M77.2,74.6l-0.8-3.2c-1.8,0.5-3.8,1.1-5.4,1.5c-0.5,0.1-1-0.2-1-0.7v-5.4
	c0-0.4,0.3-0.7,0.8-0.7h5.5v-4.7h-5.5c-0.4,0-0.8-0.3-0.8-0.8v-4.4c0-0.4,0.3-0.7,0.8-0.7h6.1v-4.7H54.8v4.7h6.6
	c0.4,0,0.8,0.3,0.8,0.7v4.4c0,0.4-0.3,0.8-0.8,0.8h-5.5v4.7h5.5c0.4,0,0.8,0.3,0.8,0.7V74c0,0.4-0.3,0.7-0.7,0.7
	c-2.3,0.3-5.1,0.7-7.5,0.9l2.7,7.7C63.5,81.3,69.9,78.6,77.2,74.6z M157,71.7c5-9.7,7.6-21.5,7.7-37l-3.9-0.5
	c-3.6,16-8,23.5-14.9,31.7L157,71.7z M201,25.3l8-8.9C201,9.7,190.9,4.2,178.8,0l-2,3.6C186.5,10.7,193.3,16.8,201,25.3z
	 M208.8,56.1c0.2,18.2-1.4,20-8.1,20c-15.8,0-18.5,1.7-18.5-6.2v-49h-9.8v50.8c0,12.5,3.6,13.6,23.6,13.6c20.7,0,25.2-6,16.9-29.2
	H208.8z M223.6,66.4c-3.9-13.8-7.6-23.7-12.3-33.3l3.6-2.1c8.3,9.2,15.9,20.9,20.1,30.9L223.6,66.4z M267.2,23.6h8.9V16
	c0-0.4,0.3-0.7,0.8-0.7l16.7-0.1c0.4,0,0.8,0.3,0.8,0.8v10.5h8.9V15.9c0-0.4,0.3-0.7,0.8-0.7h24.5v-4.6h-24.5
	c-0.4,0-0.8-0.3-0.8-0.8V0.6h-8.9v9.1c0,0.4-0.3,0.7-0.8,0.7l-16.7,0.1c-0.4,0-0.8-0.3-0.8-0.8V0.6h-8.9v9.2c0,0.4-0.3,0.8-0.8,0.8
	h-24.6v4.7h24.6c0.4,0,0.8,0.3,0.8,0.8V23.6L267.2,23.6z M326.7,64.2h-3.9c0.1,11.6,0,13.5-7.1,13.5c-14.8,0-17.6,0.7-17.6-5.3V36.9
	c0-0.4,0.4-0.8,0.8-0.7l12.2,0.1c0.4,0,0.8,0.3,0.8,0.8v18.8c0,4.3-3.6,2.8-11.2,1.8l-1.1,3.6c9.2,6.4,21.1,5.8,21.1-2.5V31.5
	L289,31.4v42.9c0,11.6,3.8,11.6,26,11.6C330.7,85.9,329.9,79.5,326.7,64.2z M243.2,90.4C269,80.1,283.5,61.6,287,34.3l-8.3-3.1
	l-2.6,1.9h0h-8.7c-0.6,0-0.9-0.5-0.7-1c0.8-1.9,1.7-4.2,2.5-6.7l-9-2.9c-3.4,13.7-11.7,30.2-18.8,37.1l2.3,3c3.1-2,6.8-5.3,10.3-9.5
	c0.3-0.4,1-0.4,1.3,0.1c2.1,3.4,4.2,7.7,5.9,11.7l7.3-5.2c-2.3-3.5-6.2-7.6-10.3-10.9c-0.3-0.2-0.4-0.7-0.1-1
	c2.2-3.1,4.1-6.3,5.8-9.4c0.1-0.3,0.4-0.4,0.7-0.4h11.5c0.5,0,0.9,0.4,0.8,0.9c-3.6,22-14.7,37.1-35.3,48.5L243.2,90.4z"/>
</svg>
