<svg width="552" height="421" viewBox="0 0 552 421" fill="none" xmlns="http://www.w3.org/2000/svg">
<g style="mix-blend-mode:multiply">
<path d="M42.4125 7.48073H39.0693C10.6777 7.48073 4.31017 11.7863 4.31017 37.9072H1.75904V4.93235H99.3293V37.9072H96.7782C96.7782 11.7863 90.4004 7.48073 62.1837 7.48073H58.6759V114.513H75.0936V117.061H25.9845V114.513H42.4022V7.48073H42.4125Z" fill="#231815"/>
<path d="M102.683 6.52509V3.97671H115.284C120.386 3.97671 125.489 3.65816 128.678 0V64.5008H128.996C133.142 56.8556 141.114 48.2548 152.749 48.2548C169.815 48.2548 174.598 56.8556 174.598 66.2579V114.513H187.189V117.061H148.603V114.513H161.204V62.4353C161.204 53.6804 156.905 50.8135 151.802 50.8135C138.409 50.8135 131.548 64.1925 128.678 69.6078V114.523H140.795V117.071H102.693V114.523H115.294V6.52509H102.683Z" fill="#231815"/>
<path d="M207.444 92.3788C207.289 103.682 208.884 116.424 223.861 116.424C237.255 116.424 247.14 107.505 249.373 94.4443H251.924C249.373 109.097 238.53 118.972 223.861 118.972C205.211 118.972 192.137 104.638 192.137 83.6136C192.137 68.1589 204.574 48.2548 221.958 48.2548C240.773 48.2548 250.494 69.279 250.494 75.9685C250.494 76.9241 250.021 77.3968 249.064 77.3968H207.454V92.3685L207.444 92.3788ZM235.187 70.399C235.187 60.2055 232.482 50.8135 221.958 50.8135C210.797 50.8135 207.444 60.2055 207.444 70.399V74.8587H234.066C234.868 74.8587 235.187 74.3757 235.187 73.7489V70.399Z" fill="#231815"/>
<path d="M331.173 7.48073H327.83C299.449 7.48073 293.071 11.7863 293.071 37.9072H290.52V4.93235H388.1V37.9072H385.549C385.549 11.7863 379.171 7.48073 350.955 7.48073H347.447V114.513H363.865V117.061H314.756V114.513H331.173V7.48073Z" fill="#231815"/>
<path d="M414.568 48.2548C435.132 48.2548 448.371 65.292 448.371 83.6136C448.371 101.935 435.132 118.972 414.568 118.972C394.005 118.972 380.766 101.935 380.766 83.6136C380.766 65.292 394.005 48.2548 414.568 48.2548ZM433.064 77.4071C433.064 63.5554 432.426 50.8135 414.568 50.8135C396.71 50.8135 396.073 63.5554 396.073 77.4071V89.8304C396.073 103.692 396.71 116.424 414.568 116.424C432.426 116.424 433.064 103.682 433.064 89.8304V77.4071Z" fill="#231815"/>
<path d="M463.832 54.3072H452.825V51.7589H463.832C468.934 51.7589 474.036 51.4403 477.225 48.2548V64.5008H477.544C480.414 57.0098 488.068 48.2548 499.548 48.2548C518.681 48.2548 531.272 68.0048 531.272 83.6136C531.272 102.244 518.362 118.972 498.426 118.972C487.419 118.972 479.931 110.844 477.544 105.439H477.225V157.517H489.497V160.065H452.825V157.517H463.832V54.3072ZM477.225 94.1257C477.225 106.549 486.792 116.424 498.437 116.424C514.062 116.424 515.976 107.351 515.976 83.6136C515.976 61.7983 513.579 50.8032 499.558 50.8032C486.319 50.8032 477.236 63.8637 477.236 75.4855V94.1257H477.225Z" fill="#231815"/>
<path d="M14.0312 157.989H0V155.441H30.7781L64.2616 240.175L97.1074 155.441H127.402V157.989H113.371V265.021H127.402V267.57H82.1195V265.021H97.1074V164.042H96.7885L57.8838 265.021H56.454L16.9012 165.953H16.5823V251.797C16.5823 262.309 18.0122 265.021 26.4679 265.021H32.8458V267.57H0V265.021H4.14558C12.591 265.021 14.0312 262.309 14.0312 251.797V157.989Z" fill="#231815"/>
<path d="M190.224 258.969C190.224 262 190.707 265.977 195.007 265.977C198.669 265.977 200.912 262.946 203.298 259.606L205.057 260.88C202.033 266.141 197.887 269.481 191.026 269.481C183.527 269.481 178.116 265.176 176.995 259.606H176.676C171.255 266.768 164.074 269.481 153.561 269.481C141.125 269.481 133.626 263.275 133.626 252.444C133.626 234.605 157.378 230.146 173.806 230.146H176.84V210.56C176.84 203.069 169.825 201.322 163.766 201.322C159.137 201.322 148.295 203.079 148.295 208.813C148.295 212.636 153.561 210.879 153.561 218.051C153.561 221.874 150.372 224.741 146.227 224.741C141.762 224.741 139.211 221.237 139.211 215.821C139.211 207.703 147.821 198.784 163.766 198.784C175.884 198.784 190.234 205.001 190.234 217.26V258.99L190.224 258.969ZM174.125 232.694C162.48 232.694 147.976 233.012 147.976 250.05C147.976 258.969 149.405 265.658 159.61 265.658C171.563 265.658 176.83 256.739 176.83 253.554V232.694H174.125Z" fill="#231815"/>
<path d="M205.52 204.826V202.278H218.121C225.775 202.278 228.645 202.278 231.515 198.774V215.02H231.834C235.979 207.375 243.951 198.774 255.586 198.774C272.652 198.774 277.435 207.375 277.435 216.777V265.032H290.026V267.58H251.44V265.032H264.042V212.944C264.042 204.189 259.742 201.322 254.639 201.322C241.246 201.322 234.385 214.701 231.515 220.116V265.032H243.633V267.58H205.53V265.032H218.132V204.826H205.52Z" fill="#231815"/>
<path d="M296.733 244.48H298.811C300.087 252.598 304.232 266.933 320.969 266.933C329.743 266.933 336.44 261.199 336.44 252.125C336.44 239.538 326.873 239.383 318.428 238.428C308.059 237.308 298.019 235.879 298.019 219.315C298.019 207.847 305.518 198.763 317.955 198.763C326.565 198.763 332.459 204.343 334.054 204.343C335.01 204.343 335.165 203.233 335.165 201.004V199.729H337.397L338.035 218.678H335.967C334.856 209.604 330.062 201.322 317.471 201.322C309.334 201.322 302.802 205.782 302.802 214.064C302.802 222.346 309.015 225.213 319.539 225.85L324.96 226.169C337.88 226.97 343.137 233.968 343.137 244.963C343.137 259.77 333.251 269.491 320.979 269.491C308.707 269.491 304.561 262.648 301.372 262.648C299.305 262.648 299.778 265.196 299.459 268.536H297.073L296.754 244.49L296.733 244.48Z" fill="#231815"/>
<path d="M363.217 204.826H350.461V202.278H363.217C368.319 202.278 373.421 201.959 376.61 198.774V265.032H389.366V267.58H350.461V265.032H363.217V204.826ZM369.913 161.976C374.378 161.976 378.05 165.645 378.05 170.104C378.05 174.564 374.378 178.233 369.913 178.233C365.449 178.233 361.777 174.564 361.777 170.104C361.777 165.645 365.449 161.976 369.913 161.976Z" fill="#231815"/>
<path d="M428.754 198.763C449.317 198.763 462.556 215.801 462.556 234.122C462.556 252.444 449.317 269.481 428.754 269.481C408.191 269.481 394.951 252.444 394.951 234.122C394.951 215.801 408.191 198.763 428.754 198.763ZM447.25 227.916C447.25 214.064 446.612 201.322 428.754 201.322C410.896 201.322 410.258 214.064 410.258 227.916V240.339C410.258 254.201 410.896 266.933 428.754 266.933C446.612 266.933 447.25 254.191 447.25 240.339V227.916Z" fill="#231815"/>
<path d="M467.494 204.826V202.278H480.095C487.749 202.278 490.619 202.278 493.489 198.774V215.02H493.808C497.953 207.375 505.925 198.774 517.56 198.774C534.626 198.774 539.409 207.375 539.409 216.777V265.032H552V267.58H513.414V265.032H526.016V212.944C526.016 204.189 521.716 201.322 516.613 201.322C503.22 201.322 496.359 214.701 493.489 220.116V265.032H505.607V267.58H467.504V265.032H480.106V204.826H467.494Z" fill="#231815"/>
<path d="M17.2201 308.508H1.27556V305.96H50.2304C68.5615 305.96 88.4974 310.101 88.4974 334.146C88.4974 353.578 66.0207 358.674 54.376 360.103V360.421C72.7174 362.014 82.4384 365.991 84.8353 387.015L87.0675 406.446C88.1785 415.838 92.6429 416.475 95.3586 416.475C98.2287 416.475 100.296 415.52 101.891 414.883L102.847 416.948C99.6585 418.058 95.6673 419.014 89.7729 419.014C70.3206 419.014 69.1993 408.666 66.9774 390.344L65.8561 380.788C64.7348 370.759 61.8648 361.675 43.8526 361.675H33.4835V415.509H49.747V418.058H1.27556V415.509H17.2201V308.478V308.508ZM33.4835 359.157H41.4558C60.2704 359.157 71.267 352.632 71.267 334.157C71.267 321.415 66.9671 308.519 44.3258 308.519H33.4835V359.168V359.157Z" fill="#231815"/>
<path d="M115.922 355.335H103.166V352.786H115.922C121.024 352.786 126.126 352.468 129.315 349.282V406.302C129.315 413.146 133.142 417.452 139.201 417.452C150.362 417.452 160.248 404.864 160.248 393.088V355.345H147.646V352.797H160.248C165.35 352.797 170.452 352.478 173.641 349.293V415.551H186.397V418.099H160.248V403.61H159.929C158.499 407.268 151.792 420.01 137.607 420.01C121.662 420.01 115.922 411.574 115.922 402.326V355.335Z" fill="#231815"/>
<path d="M201.385 355.335H188.629V352.786H201.385C206.487 352.786 211.589 352.468 214.778 349.282V415.54H227.534V418.089H188.629V415.54H201.385V355.335ZM208.081 312.485C212.546 312.485 216.218 316.153 216.218 320.613C216.218 325.073 212.546 328.741 208.081 328.741C203.617 328.741 199.945 325.073 199.945 320.613C199.945 316.153 203.617 312.485 208.081 312.485Z" fill="#231815"/>
<path d="M289.234 381.774H255.113L248.581 401.843C247.459 405.028 246.184 408.851 246.184 411.564C246.184 413.793 248.097 415.54 253.199 415.54H261.49V418.089H228.645V415.54H233.747C238.685 415.54 240.763 415.068 243.787 406.148L278.073 303.422H279.832L318.572 415.551H331.801V418.099H285.088V415.551H300.714L289.234 381.785V381.774ZM272.014 330.971H271.695L256.069 379.226H288.432L272.014 330.971Z" fill="#231815"/>
<path d="M332.284 355.335V352.786H344.886C352.539 352.786 355.409 352.786 358.279 349.282V365.528H358.598C362.743 357.883 370.716 349.282 382.35 349.282C399.416 349.282 404.199 357.883 404.199 367.275V415.53H416.79V418.078H378.205V415.53H390.806V363.453C390.806 354.698 386.506 351.831 381.404 351.831C368.01 351.831 361.149 365.21 358.279 370.625V415.54H370.397V418.089H332.295V415.54H344.896V355.335H332.284Z" fill="#231815"/>
</g>
</svg>
