<?xml version="1.0" encoding="UTF-8"?>
<svg id="_圖層_2" data-name="圖層 2" xmlns="http://www.w3.org/2000/svg" viewBox="0 0 179.26 99.2">
  <defs>
    <style>
      .cls-1 {
        fill: #3e3a39;
        stroke-width: 0px;
      }
    </style>
  </defs>
  <g id="_圖層_1-2" data-name="圖層 1">
    <g>
      <g>
        <path class="cls-1" d="M33.9,17.76s-1.28.48-1.37.68c-.05.09-.13.19-.22.23-.3.14-.64.22-.93.38-.41.23-1.89.8-2.17,1.02-.17,0-.15.01-.47.23-.05.04-.15.15-.2.14-.49.19-.54.2-.78.4-.3.25-.66.43-1.01.61-1.27.63-2.55,1.25-3.82,1.86-.57.28-1.16.53-1.73.82-.57.3-1.08.71-1.67.94-.6.23-1.1.6-1.65.9-.29.16-.6.29-.9.44-.55.28-1.1.56-1.65.84-1.2.63-2.4,1.25-3.6,1.89-.79.42-1.55.87-2.34,1.29-.53.29-1.08.53-1.61.82-.56.31-1.11.66-1.66.99-1.04.62-2.07,1.26-3.12,1.86-.75.42-1.46.97-2.35,1.06-.2.02-.43-.22-.65-.34.11-.15.18-.35.32-.44,1.78-1.02,3.58-2.02,5.36-3.03,1.46-.82,2.9-1.68,4.37-2.49,1.25-.69,2.53-1.32,3.8-1.97,1.36-.71,2.73-1.41,4.09-2.12,1.42-.73,2.84-1.47,4.27-2.2,1.07-.54,2.16-1.06,3.23-1.6,1.43-.72,2.85-1.46,4.28-2.18,1.22-.61,2.45-1.18,3.67-1.79.82-.41,1.63-.85,2.46-1.25.89-.43,1.8-.83,2.7-1.25.23-.11.45-.26.69-.36,1.36-.64,2.73-1.27,4.09-1.9.72-.33,1.43-.66,2.16-.98.96-.42,1.94-.82,2.9-1.26.59-.26,1.14-.59,1.73-.85,1.28-.55,2.58-1.08,3.87-1.6,1.34-.54,2.68-1.07,4.02-1.58,1.47-.57,2.95-1.13,4.43-1.67,1.74-.64,3.48-1.29,5.24-1.87,1.15-.38,2.34-.66,3.51-.98,1.29-.35,2.58-.72,3.88-1.01.81-.18,1.65-.19,2.46-.36.69-.14,1.37-.16,2.02.04,1.33.42,1.98,1,1.35,2.5-.32.76-.81,1.45-1.24,2.16-.32.53-.58,1.15-1.02,1.55-.41.36-.38,1.01-.97,1.24-.18.07-.28.42-.38.65-.16.35-.49.46-.77.67-.19.14-.29.41-.4.64-.31.67-.89,1.13-1.33,1.7-.48.62-.89,1.28-1.35,1.91-.5.69-1.01,1.37-1.54,2.03-.39.49-.83.95-1.22,1.45-.12.15-.17.36-.23.56-.12.38-.7.41-.66.9-.63.13-.55.84-.98,1.19-.44.36-.62,1.03-1.02,1.47-.24.27-.21.73-.69.85-.15.04-.21.44-.34.63-.11.14-.22.29-.34.43-.28.34-.55.67-.83,1.01-.04.04-.09.08-.12.13-.45.78-.92,1.54-1.32,2.34-.56,1.12-1.09,2.25-1.55,3.4-.16.39-.16.88-.09,1.31.11.62.51.79,1.15.76,1.81-.08,3.25-1.03,4.73-1.89.46-.27.94-.5,1.39-.79.74-.47,1.45-1,2.2-1.47.83-.52,1.67-1.01,2.36-1.7.13-.13.34-.19.5-.3,1.3-.87,2.6-1.75,3.9-2.62.72-.48,1.47-.91,2.15-1.44.89-.68,1.85-1.25,2.77-1.88,1.2-.82,2.39-1.66,3.62-2.45.84-.54,1.74-1,2.61-1.52.62-.37,1.22-.79,1.84-1.17.83-.51,1.68-1,2.52-1.49.66-.38,1.32-.78,2.01-1.12.71-.35,1.43-.67,2.17-.96.45-.17,1.23.32,1.31.78.02.13-.01.3-.09.41-.43.59-.84,1.21-1.35,1.75-.51.54-.94,1.14-1.43,1.69-.71.8-1.47,1.57-2.19,2.36-.42.46-.8.95-1.22,1.4-.31.34-.67.64-.99.96-.7.71-1.41,1.41-2.08,2.14-.47.5-.88,1.05-1.34,1.56-.43.48-.91.92-1.34,1.4-.28.31-.51.66-.77.98-.2.25-.44.47-.63.73-.66.89-1.28,1.81-1.96,2.69-.66.84-1.08,1.78-1.38,2.79-.29,1,.1,1.49,1.14,1.3.85-.16,1.69-.35,2.49-.76,1.22-.63,2.52-1.1,3.74-1.71,1.08-.54,2.1-1.21,3.16-1.8.43-.24.9-.43,1.34-.67.72-.4,1.42-.83,2.14-1.23.74-.41,1.49-.8,2.23-1.2.81-.44,1.61-.88,2.42-1.31.76-.4,1.52-.78,2.28-1.16.38-.19.77-.38,1.15-.57,1.03-.51,2.07-1.02,3.1-1.55.52-.27,1.01-.61,1.55-.82.75-.3,1.45-.69,2.18-1.03.3-.14.62-.25.94-.37.47-.18.94-.37,1.42-.52.92-.29,1.84-.58,2.78-.83.33-.09,1.01.4,1.05.72.02.15-.03.36-.13.47-.8.86-1.63,1.69-2.45,2.54-.18.19-.32.41-.52.58-1.14,1.03-2.29,2.03-3.42,3.07-.79.72-1.53,1.49-2.3,2.22-.32.3-.7.54-1.01.85-.29.29-.52.63-.78.94-.13.15-.28.28-.4.43-.98,1.16-2.02,2.3-2.66,3.7-.29.63-.52,1.3-.12,1.98.09.15.27.3.44.34.82.23,1.61,0,2.38-.26,1.4-.47,2.73-1.11,4.01-1.87.8-.48,1.67-.83,2.48-1.28.81-.45,1.58-.96,2.38-1.43.83-.49,1.66-.97,2.5-1.45.63-.37,1.27-.73,1.91-1.1,1.48-.84,2.96-1.7,4.44-2.53,1.91-1.07,3.82-2.13,5.73-3.2.32-.18.83-.04,1.02.28.27.44.19.73-.18,1.05-.41.35-.78.75-1.17,1.12-.46.43-.94.84-1.38,1.29-.36.37-.68.78-1.01,1.18-.85,1.06-1.71,2.11-2.55,3.18-.82,1.04-1.51,2.16-1.92,3.41-.12.38-.05.82-.04,1.24,0,.05.21.14.33.14.83,0,1.52-.4,2.22-.78,1.32-.74,2.55-1.62,3.76-2.53,1.77-1.33,3.56-2.63,5.35-3.94,1-.74,2.01-1.48,3.01-2.23.06-.04.13-.08.16-.14.14-.24.33-.4.6-.27.29.14.6.27.66.67.09.57-.29.91-.59,1.29-1.04,1.31-2,2.68-2.6,4.26-.29.78-.49,1.59-.71,2.39-.04.16.01.36.03.68.63-.37,1.2-.61,1.65-.99,1.67-1.38,3.32-2.79,4.96-4.2.85-.73,1.67-1.5,2.5-2.27.15-.14.24-.33.39-.47.17-.15.43-.42.54-.37.29.13.6.35.75.62.23.42-.03.83-.23,1.22-.59,1.16-1.2,2.31-1.71,3.5-.22.52-.22,1.13-.31,1.71.06.03.12.06.18.09.63-.59,1.28-1.15,1.87-1.77.8-.85,1.56-1.74,2.31-2.64.46-.55.87-1.14,1.27-1.74.24-.35.54-.4.9-.2.69.37.47.96.39,1.49-.15,1.02-.36,2.03-.53,3.05-.02.12,0,.24,0,.37.05.03.09.06.14.09.39-.41.82-.79,1.15-1.24.62-.85,1.17-1.74,1.77-2.61.31-.45.53-.51,1.02-.27.43.22.74.09,1.02-.24.02-.02.03-.05.05-.07.22-.14.45-.27.67-.4.11.31.34.64.32.94-.05.7-.82,1.4-1.54,1.49-.09.01-.19-.04-.28-.09-.36-.18-.63-.07-.84.25-.29.44-.56.91-.9,1.33-.47.6-1,1.16-1.49,1.74-.12.14-.21.31-.3.47-.29.48-.5.54-1.02.32-.93-.41-1.05-.62-1.03-1.61.02-.74,0-1.49,0-2.31-.28.33-.54.63-.8.94-.19.22-.36.45-.55.67-.42.51-.84,1.03-1.27,1.53-.5.57-.98,1.16-1.53,1.68-.25.24-.65.33-.95.47-.49-.37-1-.66-1.13-1.32-.2-.97-.07-1.89.25-2.8.14-.4.29-.8.35-1.28-.3.21-.62.38-.89.63-.43.4-.79.87-1.23,1.27-.51.46-1.06.87-1.6,1.31-.23.19-.46.38-.69.57-.49.39-.99.77-1.49,1.16-.38.3-.74.62-1.13.89-.7.5-1.26.53-1.82-.2-.56-.74-.62-1.57-.4-2.47.33-1.34.94-2.54,1.63-3.72.09-.16.11-.36.19-.61-.18.03-.28.03-.34.07-1.12.85-2.23,1.71-3.35,2.55-.48.36-.98.7-1.46,1.05-.81.58-1.6,1.17-2.42,1.73-.9.62-1.78,1.29-2.73,1.81-.66.36-1.34.79-2.18.74-.75-.04-1.15-.48-1.47-1.06-.47-.86-.28-1.73.08-2.55.75-1.72,1.8-3.26,3.03-4.67.68-.78,1.4-1.53,2.09-2.3.19-.21.36-.43.54-.65-.03-.04-.06-.08-.09-.12-.29.13-.6.25-.88.39-.47.24-.94.5-1.4.76-1.06.58-2.12,1.14-3.16,1.74-.94.54-1.85,1.13-2.79,1.68-1.56.92-3.13,1.84-4.7,2.75-.85.49-1.72.96-2.58,1.43-.94.5-1.88.99-2.83,1.48-1.11.57-2.25,1.12-3.49,1.3-1.49.21-2.68-.23-3.15-1.97-.22-.8.13-1.51.46-2.22.59-1.29,1.5-2.36,2.41-3.41.65-.75,1.39-1.42,2.1-2.12.7-.68,1.41-1.36,2.14-2.03,1.24-1.13,2.5-2.24,3.73-3.39.63-.59,1.2-1.25,1.78-1.88.09-.1.13-.23.27-.47-.64.18-1.16.3-1.65.48-.58.21-1.15.48-1.72.73-.76.33-1.51.68-2.27,1.02-.61.27-1.24.53-1.84.81-.28.13-.53.34-.8.48-1.42.71-2.84,1.39-4.26,2.1-.98.49-1.96.98-2.92,1.51-1.41.78-2.8,1.61-4.22,2.39-1.41.78-2.85,1.52-4.27,2.28-1.15.61-2.28,1.26-3.45,1.84-.67.34-1.39.6-2.09.89-.4.17-.8.35-1.22.46-.8.22-1.62.27-2.37-.12-1.02-.53-1.36-1.84-.92-2.89.82-1.95,2.06-3.62,3.37-5.23,1.08-1.33,2.28-2.56,3.44-3.82.83-.89,1.69-1.76,2.52-2.64,1.08-1.14,2.18-2.26,3.21-3.44,1.08-1.22,2.08-2.51,3.12-3.77.03-.04.03-.11.09-.32-.43.16-.79.25-1.09.42-1.52.84-3.03,1.68-4.53,2.55-1.27.74-2.51,1.51-3.76,2.29-.78.48-1.54.99-2.3,1.5-.69.47-1.36.97-2.06,1.44-1.06.72-2.14,1.41-3.2,2.14-1.27.86-2.51,1.76-3.78,2.62-.77.52-1.57,1-2.34,1.52-.71.48-1.39,1.02-2.11,1.49-1.09.72-2.19,1.43-3.32,2.08-1.16.67-2.34,1.31-3.55,1.87-.88.4-1.85.4-2.77.11-.95-.3-1.63-1.58-1.54-2.43.2-1.94,1.24-3.49,2.19-5.08.63-1.05,1.35-2.04,2.05-3.04.71-1.01,1.46-2,2.19-3,1.02-1.37,2.03-2.74,3.06-4.1.61-.8,1.24-1.58,1.85-2.38.59-.77,1.15-1.56,1.74-2.34.68-.91,1.38-1.81,2.05-2.73.49-.67.96-1.35,1.41-2.05.44-.68.88-1.36,1.26-2.07.29-.54.52-1.12.71-1.71.14-.45-.04-.67-.51-.64-1,.08-2.01.13-3,.32-1.59.31-3.16.72-4.74,1.07-.12.03-.26-.06-.34-.03-.61.22-1.21.47-1.82.67-.74.24-1.5.44-2.25.68-.76.24-1.51.51-2.26.77-.55.19-1.08.41-1.63.6-.53.18-1.07.3-1.59.49-.63.23-1.24.5-1.86.75-.69.28-1.38.57-2.08.83-.6.22-1.26.31-1.82.61-.38.21-.94.07-1.18.57-.02.04-.1.08-.15.07-.49-.07-.85.32-1.3.4-.25.05-.45.28-.69.39-.59.27-1.19.54-1.8.78-.39.15-.82.24-1.22.38-.12.04-.21.17-.34.23-.55.25-1.11.48-1.65.73-.29.13-.55.3-.83.45-.04.02-.07.05-.11.06-.73.27-1.47.53-2.2.8-.12.04-.22.14-.32.21-.59.43-1.22.75-1.93.95-.47.13-.88.48-1.34.65-.37.14-.65.57-1.13.37-.03-.01-.12.01-.12.03-.03.36-.38.25-.54.39-.47.41-1.06.6-1.6.89-.81.44-1.65.82-2.49,1.21-.29.14-.6.25-.94.39Z"/>
        <path class="cls-1" d="M111.34,72.5c1.09-.24,2.12-.46,3.15-.71.12-.03.26-.23.27-.36.07-.75.11-1.5.16-2.25.04-.65.05-1.3.11-1.94.09-.89.21-1.78.32-2.67.04-.33.09-.66.19-.98.05-.17.21-.4.33-.42.2-.02.49.06.62.21.25.3.36.67.27,1.09-.17.81-.35,1.63-.44,2.46-.12,1.18-.16,2.36-.25,3.54-.02.3-.06.6-.1.93.15,0,.26.04.37.01,1.14-.23,2.28-.47,3.42-.72.58-.12,1.05.15,1.27.68.14.35-.04.48-.3.53-.57.1-1.15.14-1.72.24-.94.16-1.88.34-2.81.54-.09.02-.21.16-.21.26-.04.62-.05,1.24-.06,1.86,0,.57.01,1.14,0,1.71-.02.53.04.6.55.5,1.23-.23,2.46-.47,3.69-.69.59-.11,1.25.42,1.21,1.01,0,.11-.24.28-.38.3-1.41.2-2.83.37-4.24.56-.24.03-.47.11-.77.18.03.66.07,1.3.09,1.95.02.46,0,.92.03,1.38.05.92.11,1.83.17,2.75.02.33.08.66.07.99,0,.14-.11.35-.22.39-.69.23-1.17-.19-1.18-.91-.01-.91-.1-1.81-.13-2.72-.03-1.05-.02-2.1-.03-3.15,0-.1,0-.2,0-.36-.44.07-.87.12-1.28.21-.62.14-1.23.33-1.85.47-.28.06-.38.2-.38.48,0,1.08-.03,2.17-.06,3.25-.01.47-.03.95-.05,1.42-.02.33-.22.45-.53.42-.1,0-.2-.04-.3-.04-.39,0-.6-.16-.55-.59.05-.5.11-1.01.12-1.52.02-.96,0-1.92,0-2.96-.4.08-.79.16-1.18.25-1.17.25-2.33.5-3.5.73-.2.04-.44.02-.64-.03-.3-.08-.55-.24-.54-.63.02-.4.18-.51.62-.56,1.14-.14,2.27-.39,3.4-.62.59-.12,1.18-.29,1.84-.45v-4.28c-.24.03-.54.06-.83.1-.97.11-1.93.23-2.9.33-.38.04-.77.07-1.16.08-.58.02-.99-.24-1.09-.7-.08-.37.08-.58.45-.54,1.3.13,2.57-.11,3.84-.35.59-.11,1.17-.25,1.81-.39,0-1.35,0-2.67,0-4,0-.59-.03-1.17-.07-1.76-.06-.82-.13-1.63-.48-2.4-.1-.23-.01-.54-.01-.81.27.03.63-.03.8.12.29.25.56.6.66.96.35,1.2.43,2.43.42,3.68,0,1.29,0,2.58,0,3.94ZM111.3,76.68h-.03c0,.41-.02.81.01,1.22,0,.09.19.26.26.25.98-.21,1.97-.44,2.94-.69.1-.02.22-.19.23-.3.04-.36.06-.72.05-1.08,0-.89-.04-1.78-.04-2.67,0-.31-.07-.43-.4-.33-.9.26-1.81.5-2.72.73-.25.06-.32.18-.32.42,0,.82,0,1.64,0,2.45Z"/>
        <path class="cls-1" d="M132.56,72.41c.85.36,1.73.66,2.53,1.09.87.47,1.38,1.29,1.7,2.21.67,1.91.15,3.61-1.09,5.05-.95,1.1-2.24,1.87-3.67,2.24-1.89.49-3.87-.77-4.32-2.64-.42-1.7-.28-3.34.42-4.93.29-.66.64-1.29.97-1.94-.37-.11-.82-.21-1.23-.39-1.57-.69-2.26-1.97-2.4-3.62-.1-1.17.17-2.27.72-3.3.07-.14.16-.27.25-.4.18-.27.31-.51.21-.88-.17-.63.17-1.37.77-1.73.96-.58,2.02-.84,3.14-.81.65.02,1.28,0,1.93.23,1,.36,1.81.9,2.29,1.85.79,1.57.97,3.18.32,4.85-.5,1.26-1.32,2.25-2.41,3.03-.07.05-.13.11-.12.1ZM134.23,67.05c-.09-.44-.19-1.15-.41-1.84-.23-.75-.8-1.27-1.52-1.54-.62-.23-1.27-.36-1.87.16-.36.31-.81.5-1.16.81-.92.82-1.62,1.8-2.12,2.92-.42.95-.62,1.92-.25,2.93.29.81.87,1.39,1.68,1.62.84.23,1.67.04,2.4-.44.46-.3.92-.6,1.35-.94,1.1-.87,1.75-2,1.91-3.69ZM132.31,73.82c-.53-.05-1.08-.07-1.49.39-.15.17-.25.41-.43.52-.51.33-.72.81-.93,1.34-.52,1.34-.71,2.7-.41,4.12.22,1.05,1.31,1.81,2.33,1.53,1.42-.39,2.67-1.1,3.58-2.29.77-1.01,1.05-2.14.64-3.37-.41-1.25-1.62-2.25-3.28-2.24Z"/>
        <path class="cls-1" d="M169.89,47.95c.37-.46.67-.85,1-1.22,1.12-1.28,2.34-2.44,3.95-3.1,1.02-.41,1.94-.17,2.73.54.86.78,1.29,1.79,1.45,2.92.08.55.25,1.11.24,1.66-.02,1.37-.3,2.69-.69,4.01-.31,1.05-.68,2.05-1.26,2.97-.41.65-.84,1.3-1.33,1.89-.34.4-.9.43-1.39.54-.12.03-.39-.17-.42-.3-.05-.18.02-.44.12-.6.29-.43.62-.84.95-1.24.87-1.07,1.59-2.26,1.97-3.57.56-1.92.91-3.91.3-5.9-.16-.53-.5-1.05-.87-1.47-.38-.43-.91-.14-1.38-.05-1.11.23-1.86.99-2.66,1.7-1.03.92-1.83,2.03-2.38,3.27-.44.98-.88,1.99-1.01,3.09-.02.21-.19.59-.26.59-.37-.04-.77-.1-1.08-.3-.15-.1-.23-.53-.16-.73.48-1.24.65-2.53.72-3.83.06-1.15.06-2.31-.33-3.43-.26-.74-.56-.98-1.32-.76-1.12.33-2.23.71-3.04,1.63-.32.36-.67.68-.98,1.04-.79.9-1.31,1.97-1.62,3.1-.2.73-.17,1.55-.15,2.32.06,1.81,1.09,3.16,2.16,4.51.64.81,1.33,1.51,2.31,1.91.13.05.26.35.22.47-.05.13-.32.28-.46.25-.62-.13-1.22-.3-1.74-.72-1.44-1.19-2.53-2.66-3.28-4.35-.26-.58-.36-1.24-.44-1.87-.13-.97-.19-1.98.12-2.92.31-.94.63-1.93,1.19-2.72,1.22-1.74,2.7-3.21,4.83-3.88,1.21-.38,2.27-.22,3.06.73.39.46.54,1.16.69,1.78.15.62.16,1.28.25,2.04Z"/>
        <path class="cls-1" d="M142.05,76.27c.51-.06,1.03-.12,1.54-.18,1.47-.18,2.94-.34,4.4-.57.82-.12,1.63-.35,2.44-.54.26-.06.91.24,1.05.53.13.28-.04.88-.29,1.02-.04.02-.08.05-.12.05-2.32.08-4.61.48-6.91.79-.95.13-1.91.3-2.86.39-.49.04-1.04.04-1.43-.36-.4-.41-.34-.93.1-1.38,1.08-1.09,2.19-2.15,3.22-3.28.78-.86,1.51-1.78,2.18-2.73.46-.65.78-1.4.87-2.23.09-.86-.23-1.22-1.1-1.14-1.08.1-2.07.47-3.06.88-.91.37-1.71.92-2.42,1.61-.17.17-.34.38-.41.6-.09.32-.21.42-.55.35-.35-.08-.49-.26-.5-.6-.02-.9.58-1.43,1.2-1.91,1.38-1.06,2.93-1.78,4.65-2.11.86-.16,1.72-.24,2.53.22.65.36.98.94,1.04,1.64.11,1.11-.2,2.13-.75,3.11-.88,1.56-2.04,2.88-3.32,4.12-.54.52-1.02,1.09-1.53,1.64.01.04.02.07.03.11Z"/>
        <path class="cls-1" d="M29.36,38.71c.03-.36.07-.88.13-1.39.04-.29.5-.45.78-.26.4.28.6.64.56,1.16-.06.81-.13,1.64.3,2.4.12.21.27.4.43.58.61.67,1.03.52,1.96,0,.77-.43,1.28-1.1,1.56-1.94.05-.16.13-.32.21-.47.17-.3.44-.44.76-.34.33.1.48.35.42.71-.14.8-.43,1.53-.97,2.14-.46.51-.95.98-1.57,1.34-1.13.66-2.47.26-3.31-.64-.83-.88-1.14-1.95-1.25-3.27Z"/>
        <path class="cls-1" d="M29.88,33.05c.09-.78.17-1.56.26-2.33.02-.14.05-.29.04-.43-.02-.24-.23-.52.12-.68.36-.16.88.02,1.02.39.17.45.33.94.31,1.41-.02.61-.21,1.22-.34,1.83-.01.07-.03.15-.08.2-.2.2-.4.52-.63.55-.38.04-.75-.52-.7-.93Z"/>
        <path class="cls-1" d="M36.21,30.79c-.14,1.01-.24,1.93-.41,2.84-.03.19-.33.49-.46.47-.26-.04-.54-.23-.72-.44-.13-.15-.15-.44-.13-.66.09-.88.21-1.76.35-2.64.03-.18.22-.49.31-.48.3.04.62.13.85.32.16.13.16.44.21.58Z"/>
        <path class="cls-1" d="M151.45,23.63c.12-.88.42-1.52.85-2.11.22-.3.5-.07.67.09.43.38.49.88.2,1.4-.18.32-.38.64-.59.95-.19.28-.49.28-.73.13-.19-.11-.3-.35-.39-.46Z"/>
        <path class="cls-1" d="M150.24,23.56c-.1.23-.14.54-.32.69-.3.24-.64.09-.84-.36-.17-.38-.29-.78-.36-1.18-.03-.18.06-.43.19-.57.18-.21.41-.1.62.03.47.3.65.66.72,1.4Z"/>
      </g>
      <g>
        <path class="cls-1" d="M29.25,63.1h-10.6c1.19,1.19,2.79,2.22,4.82,3.1,2.04.88,4.13,1.55,6.25,2.01l-.06.32c-1.28.35-2.14,1.37-2.57,3.07-4.4-2.12-7.46-4.95-9.2-8.5h-.38v6.39c0,.1-.15.21-.44.35-.27.12-.64.23-1.11.35-.45.1-.89.15-1.31.15h-.58v-4.91c-2.92,2.8-6.87,4.95-11.85,6.45l-.23-.32c2-1.03,3.86-2.3,5.58-3.8,1.71-1.5,3.12-3.06,4.23-4.67H2.8l-.26-.82h11.53v-4.44l3.45.41v4.03h11.74v.82ZM29.63,76.79v.85h-12.12v3.68c0,1.28-.28,2.22-.85,2.8-.56.6-1.76.98-3.59,1.14-.1-1.13-.34-1.9-.73-2.31-.45-.51-1.29-.86-2.54-1.05v-.41c2.08.14,3.32.2,3.71.2.21,0,.36-.03.44-.09.08-.08.12-.21.12-.41v-3.56H2.42l-.23-.85h11.88v-2.72l3.39.29c.97-.8,1.77-1.55,2.39-2.25H7.59l-.26-.79h16.29v1.37c-1.21.66-2.92,1.3-5.14,1.93-.1.29-.42.48-.96.55v1.61h12.12Z"/>
        <path class="cls-1" d="M56.81,71.86v1.61c-2.36,3.5-5.49,6.2-9.4,8.09-3.89,1.89-8.94,3.11-15.15,3.68l-.15-.41c5.92-1.42,10.61-3.28,14.07-5.58-.53.19-1.11.14-1.75-.17-.43-1.23-1.37-2.43-2.83-3.62-2.41,1.21-4.98,2.14-7.71,2.8l-.17-.32c2.2-1.01,4.29-2.26,6.28-3.74,2-1.48,3.68-2.99,5.02-4.53-3.62,1.71-8,2.9-13.14,3.56l-.17-.38c8.35-2.45,14.3-6,17.84-10.63h-6.04c-.9.58-1.82,1.15-2.77,1.69,1.85.08,3.01.62,3.47,1.64.33.66.25,1.25-.23,1.75-.51.51-1.17.6-1.99.29-.51-1.03-1.42-2-2.74-2.92-2.12,1.05-4.32,1.86-6.6,2.42l-.2-.29c2.22-1.11,4.31-2.5,6.28-4.18,1.97-1.69,3.45-3.31,4.44-4.85l3.62,1.28c-.68,1.01-1.39,1.79-2.13,2.34h9.05v1.58c-1.75,2.12-3.78,3.87-6.07,5.26l2.45.93c-.58.93-1.42,1.83-2.51,2.69h9.26ZM52.7,72.67h-6.31c-.97.68-2.07,1.35-3.3,2.01.8.08,1.49.23,2.07.47.6.23,1.05.52,1.34.85.31.31.53.64.64.99.12.33.15.66.09.99-.06.31-.19.58-.41.82,2.39-1.71,4.35-3.76,5.87-6.13Z"/>
        <path class="cls-1" d="M88.11,72.85v.82h-4.53v3.21c-.02.12-.36.3-1.02.55-.66.23-1.24.35-1.72.35h-.58v-1.08h-15.83l-.26-.82h16.09v-2.22h-18.37l-.23-.82h18.6v-2.16h-15.59l-.26-.85h15.56l1.26-1.28c-.16.14-.51.28-1.05.44-.53.14-1.04.2-1.55.2h-.58v-1.93h-3.36l-.09-.35c-.12.23-.36.35-.73.35h-4.47v1.37c0,.14-.29.3-.88.5-.56.19-1.14.29-1.72.29h-.55v-2.16h-4.7l-.23-.82h4.93v-2.13h-4.03l-.23-.85h4.26v-1.93h-4.53l-.23-.85h4.76v-2.83l3.15.38v2.45h4.7v.85h-4.7v1.93h4.5v.85h-4.5v2.13h5.14v.26l-.09-.26h3.59v-2.13h-2.54l-.23-.85h2.77v-1.93h-3.09l-.23-.85h3.33v-2.83l3.24.38v2.45h5.46v.85h-5.46v1.93h5.08v.85h-5.08v2.13h6.01v.82h-6.01v1.17l.23-.2,3.18,2.36c-.21.27-.58.47-1.11.58v1.66h4.53ZM64.64,77.96h.44c.37,1.01.53,1.93.47,2.74-.06.8-.23,1.46-.53,1.99-.29.53-.67.91-1.14,1.14-.47.23-.96.28-1.49.15-.51-.14-.83-.45-.96-.93-.12-.45-.06-.85.18-1.2.23-.35.57-.62,1.02-.82.53-.25.99-.66,1.4-1.23.43-.58.63-1.2.61-1.84ZM81.28,78.92l.09,2.98c.51.16.85.33,1.02.53.19.18.29.42.29.73,0,.37-.1.65-.29.85-.19.21-.59.38-1.2.5-.6.14-1.35.22-2.25.26-.88.04-2.12.06-3.74.06h-4.03c-1.69,0-2.81-.18-3.36-.53-.55-.35-.82-1.05-.82-2.1v-4.35l3.45.35v3.59c0,.17.07.29.2.35.14.06.49.09,1.05.09h6.98c.37-.02.66-.16.88-.41.35-.41.82-1.37,1.4-2.89h.32ZM72.46,77.29l.23-.2c2.3.14,3.72.76,4.26,1.87.35.68.27,1.28-.23,1.81-.53.56-1.17.63-1.93.2-.06-.04-.13-.08-.2-.12-.12-.6-.38-1.24-.79-1.9-.41-.68-.86-1.24-1.34-1.66ZM81.55,78.31l.23-.2c2.67.33,4.36,1.18,5.08,2.54.43.84.4,1.58-.09,2.22-.47.64-1.1.8-1.9.47-.18-.06-.34-.15-.5-.26-.14-.84-.48-1.69-1.02-2.57-.55-.88-1.15-1.61-1.81-2.19Z"/>
      </g>
      <g>
        <path class="cls-1" d="M9.7,93.45h-.51c-.1,1.4-.37,2.52-.81,3.36.36.56.83,1.01,1.42,1.35l-.03.08c-.48.12-.79.43-.91.93-.41-.39-.73-.92-.97-1.6-.53.68-1.24,1.22-2.13,1.62l-.07-.09c.9-.66,1.54-1.49,1.94-2.48-.1-.5-.18-1.12-.25-1.86-.15.25-.3.47-.45.66l-.13-.07c.03-.09.07-.24.13-.44-.04.03-.09.04-.16.04h-2.66l-.03-.09c-.02.07-.11.13-.26.16v3.77c0,.06-.11.14-.3.23-.19.1-.39.15-.6.15h-.21v-3.87c-.3.29-.57.53-.81.71l-.08-.08c.26-.43.52-.94.78-1.54.26-.6.46-1.11.58-1.54l.96.52v-1.34s-.09,0-.16,0c-.67.68-1.37,1.21-2.1,1.59l-.08-.08c.25-.31.5-.69.73-1.14.25-.45.43-.84.56-1.18l1.2.7c-.02.06-.07.09-.15.11l1.05.16v-.86l.79.1v2.37h.23v-1.75l.79.09v1.87s-.08.07-.23.13c-.14.05-.28.07-.42.07.02.02.07.07.15.15.08.07.16.15.23.23.08.07.14.14.2.2.28-1.11.43-2.28.47-3.52l.99.23c-.1.66-.22,1.23-.37,1.71h1.65v.23ZM4.03,94.72h1.9l.33-.5-.04-.18h-2.09v-.38c-.28.36-.54.67-.78.94l.72.26-.04-.13ZM4.33,95.42l.91.12v.78c-.03,1.33-.49,2.25-1.38,2.76l-.08-.08c.37-.57.55-1.47.55-2.7v-.89ZM4.93,93.81h.27v-1.51c-.05.05-.14.08-.27.1v1.41ZM7.22,96.94l.03.09c-.38.45-.74.84-1.08,1.17-.06.13-.14.23-.25.28l-.54-.9c.11-.07.18-.13.22-.18.03-.05.05-.12.05-.2v-1.76l.9.13v1.64c.39-.15.61-.24.67-.26ZM8.2,93.45h-.24c-.13.4-.28.74-.43,1.04.08.48.21.93.37,1.35.18-.7.28-1.49.31-2.4Z"/>
        <path class="cls-1" d="M14.43,92.59h-2.23c-.54.8-1.2,1.42-1.98,1.87l-.09-.06c.26-.4.5-.88.73-1.44.23-.57.4-1.15.52-1.73l1.24.48c-.07.26-.16.48-.27.65h2.08v.23ZM17.84,96.13h-3.18c.14.3.33.55.57.77.24.22.51.39.83.53.31.13.62.24.93.32.31.08.66.14,1.06.2v.09c-.48.14-.79.51-.93,1.11-.7-.28-1.26-.63-1.66-1.06-.41-.43-.71-1.05-.91-1.84-.09.37-.23.69-.41.98-.17.28-.42.55-.74.81-.32.25-.75.47-1.27.65-.52.18-1.14.34-1.86.46l-.05-.11c1.01-.37,1.75-.79,2.21-1.25.47-.47.77-1.02.9-1.65h-2.73l-.07-.23h2.84c.04-.27.07-.58.08-.92-.98,0-1.84-.03-2.58-.09v-.11c.85-.1,1.77-.26,2.75-.48.98-.22,1.75-.45,2.31-.67l.24.26c-.05-.4-.23-.74-.53-1.04l.06-.05c.75,0,1.21.16,1.39.5.12.21.1.4-.06.58-.16.19-.37.25-.63.18-.03-.01-.07-.02-.11-.04l.15.85c-.52.03-1.1.06-1.72.08-.03.36-.06.67-.11.94h3.22v.23ZM12.15,92.93l.07-.04c.68.08,1.08.28,1.2.6.08.2.03.38-.14.53-.19.16-.41.19-.65.07-.07-.03-.13-.07-.18-.13,0-.37-.09-.71-.29-1.04ZM18.13,92.36v.23h-2.6c-.47.66-1.04,1.17-1.73,1.53l-.08-.07c.5-.8.84-1.75,1.04-2.86l1.2.52c-.09.28-.18.49-.28.64h2.44Z"/>
        <path class="cls-1" d="M20.84,93.6v5.24s-.06.07-.15.12c-.09.06-.21.11-.37.15-.16.04-.3.07-.44.07h-.23v-4.45c-.35.35-.75.68-1.2.98l-.08-.07c.37-.55.71-1.21,1.03-2,.32-.8.55-1.59.71-2.4l1.33.52c-.26.75-.46,1.36-.59,1.85ZM26.38,96.44l-.22,1.48c.32.52.39.87.22,1.04-.14.16-.33.22-.54.2-.22-.02-.42-.07-.61-.16-.19-.08-.36-.19-.52-.33-1.11-.97-1.79-2.42-2.03-4.35l-1.55.18-.09-.22,1.62-.19c-.08-.72-.13-1.63-.13-2.73l1.22.18c-.02,1.01,0,1.81.06,2.4l.72-.08,1.64-.18v.23l-2.34.28c.18,1.56.7,2.67,1.57,3.33.11.11.21.1.28-.02.19-.27.4-.63.62-1.09l.08.02ZM24.22,91.56l.06-.05c.81,0,1.33.18,1.56.54.13.23.13.44-.03.64-.16.21-.37.28-.63.21-.08-.02-.16-.06-.23-.1-.11-.44-.35-.85-.73-1.24Z"/>
        <path class="cls-1" d="M34.79,92.74v.23h-7.86l-.07-.23h7.92ZM32.04,96.39h1.36v2.42s-.07.05-.18.09c-.12.04-.26.08-.43.11-.17.03-.31.05-.43.05h-.22v-.48h-2.65v.18c0,.06-.12.14-.35.23-.23.09-.46.14-.69.14h-.17v-2.75h3.77ZM33.51,93.92v.23h-5.17l-.07-.23h5.23ZM33.56,95.15v.23h-5.21l-.07-.23h5.28ZM29.47,98.35h2.65v-1.72h-2.65v1.72ZM29.8,91.3l.05-.04c.83-.02,1.35.14,1.57.49.14.22.13.44-.03.65-.16.22-.38.3-.65.26-.13-.02-.26-.07-.38-.16-.04-.46-.23-.86-.55-1.2Z"/>
        <path class="cls-1" d="M38.06,91.36l1.31.15c.04,1.01.13,1.83.27,2.44.14.61.35,1.17.64,1.69.29.51.67.93,1.14,1.27.47.34,1.06.62,1.76.85v.1c-.61.12-.98.54-1.13,1.24-.49-.25-.91-.56-1.25-.93-.34-.37-.61-.81-.82-1.31-.2-.51-.35-1.03-.46-1.58-.1-.55-.18-1.19-.23-1.93-.03.49-.09.93-.17,1.32-.07.39-.2.81-.38,1.25-.18.44-.41.84-.69,1.2-.28.36-.65.72-1.12,1.08-.46.36-1,.68-1.62.96l-.08-.11c.28-.22.53-.44.76-.68.23-.23.44-.46.61-.7.18-.24.34-.47.48-.7.14-.23.26-.48.36-.74.1-.26.19-.5.26-.73.07-.23.13-.48.18-.76.04-.28.08-.54.1-.76.03-.22.05-.48.06-.78.01-.3.02-.56.02-.77,0-.21,0-.47,0-.78v-.3Z"/>
      </g>
      <g>
        <path class="cls-1" d="M48.22,94.77l.42.18c.63.27,1.07.55,1.32.84.25.29.38.66.38,1.12,0,.56-.21,1-.62,1.34-.42.33-.98.5-1.7.5s-1.38-.17-1.9-.5l.05-1.4h.47l.35,1.36c.25.11.56.17.91.17.43,0,.77-.1,1.02-.29.24-.19.37-.47.37-.81,0-.29-.08-.53-.23-.7-.15-.17-.42-.34-.8-.5l-.39-.17c-.56-.25-.98-.52-1.26-.83-.28-.3-.41-.69-.41-1.15,0-.54.2-.97.6-1.28.4-.31.93-.46,1.58-.46.61,0,1.15.16,1.64.47l-.06,1.32h-.47l-.35-1.3c-.17-.08-.38-.13-.63-.13-.38,0-.68.09-.91.27-.23.18-.35.44-.35.76,0,.28.08.51.24.7.16.19.4.35.73.49Z"/>
        <path class="cls-1" d="M58.37,98.25l.57.07v.26h-2.28v-.26l.58-.08c.01-.64.02-1.19.02-1.64v-1.03c0-.38-.05-.65-.16-.8-.1-.15-.27-.23-.5-.23-.35,0-.72.19-1.1.56.02.13.03.29.03.47v1.03c0,.62,0,1.17.03,1.65l.55.07v.26h-2.28v-.26l.61-.08c.01-.64.02-1.19.02-1.64v-1.02c0-.38-.05-.64-.16-.8-.1-.16-.27-.24-.5-.24-.32,0-.67.19-1.06.56v1.49c0,.46,0,1.01.02,1.65l.55.07v.26h-2.31v-.26l.62-.08c.01-.64.02-1.19.02-1.64v-.61c0-.57-.01-.99-.03-1.26l-.67-.07v-.21l1.62-.51.12.08.06.76c.49-.56,1.01-.84,1.56-.84.62,0,1.01.29,1.17.88.49-.58,1.03-.88,1.6-.88.44,0,.76.13.98.4.21.27.32.68.32,1.25v1.01c0,.46,0,1.01.02,1.65Z"/>
        <path class="cls-1" d="M61.26,98.25l.56.07v.26h-2.32v-.26l.61-.08c.01-.64.02-1.19.02-1.64v-.6c0-.43,0-.86-.03-1.28l-.68-.07v-.23l1.71-.48.12.08-.02,1.31v1.26c0,.46,0,1.01.02,1.65ZM61.14,92.82c-.13.12-.29.18-.47.18s-.34-.06-.47-.18c-.13-.12-.19-.27-.19-.45s.06-.34.19-.45c.13-.12.29-.18.47-.18s.34.06.47.18c.13.12.19.27.19.45s-.06.33-.19.45Z"/>
        <path class="cls-1" d="M64.16,98.25l.65.07v.26h-2.44v-.26l.65-.08c.02-.53.03-1.08.03-1.64v-4.27l-.68-.05v-.24l1.69-.36.12.08-.03,1.34v3.51c0,.56,0,1.11.03,1.65Z"/>
        <path class="cls-1" d="M69.49,96.3h-2.92c.02.62.16,1.08.43,1.39.27.31.62.46,1.06.46.52,0,.94-.22,1.26-.65l.17.12c-.17.35-.41.62-.72.8-.31.19-.68.28-1.09.28-.68,0-1.23-.21-1.65-.64-.42-.42-.63-1.01-.63-1.76s.23-1.3.68-1.74c.45-.43.99-.65,1.61-.65.57,0,1.02.17,1.35.52.33.35.5.79.5,1.33,0,.21-.02.39-.06.52ZM66.57,95.99h1.44c.19,0,.31-.05.38-.14.07-.1.1-.26.1-.48,0-.34-.08-.61-.24-.81-.16-.21-.37-.31-.63-.31-.29,0-.53.14-.72.43-.19.29-.3.73-.32,1.31Z"/>
        <path class="cls-1" d="M78.26,95.55v.29l-.56.07c-.01.79-.02,1.41-.02,1.86v.41c-.65.37-1.33.56-2.04.56-.97,0-1.76-.3-2.35-.9-.6-.6-.89-1.4-.89-2.4s.3-1.77.91-2.37c.61-.6,1.4-.9,2.39-.9.69,0,1.3.15,1.84.46l-.02,1.46h-.5l-.35-1.4c-.24-.12-.51-.18-.82-.18-.66,0-1.19.25-1.59.76-.4.51-.6,1.23-.6,2.17s.2,1.62.59,2.15c.4.53.91.79,1.55.79.26,0,.52-.03.77-.1v-.55c0-.6,0-1.21-.03-1.81l-.93-.09v-.29h2.65Z"/>
        <path class="cls-1" d="M80.46,98.25l.56.07v.26h-2.32v-.26l.62-.08c.01-.64.02-1.19.02-1.64v-.6c0-.43,0-.86-.03-1.28l-.68-.07v-.23l1.71-.48.12.08-.02,1.31v1.26c0,.46,0,1.01.02,1.65ZM80.33,92.82c-.13.12-.29.18-.47.18s-.34-.06-.47-.18c-.13-.12-.19-.27-.19-.45s.06-.34.19-.45c.13-.12.29-.18.47-.18s.34.06.47.18c.13.12.19.27.19.45s-.06.33-.19.45Z"/>
        <path class="cls-1" d="M83.28,94.02l.08,1.17c.13-.39.32-.7.57-.92.25-.22.51-.33.77-.33.42,0,.67.18.76.54-.03.43-.22.64-.58.64-.21,0-.44-.13-.67-.4l-.09-.1c-.34.26-.59.68-.76,1.24v.75c0,.44,0,.98.02,1.62l.78.1v.26h-2.54v-.26l.62-.08c.01-.64.02-1.19.02-1.64v-.61c0-.48-.01-.9-.03-1.26l-.67-.07v-.21l1.62-.51.12.08Z"/>
        <path class="cls-1" d="M87.37,98.25l.65.07v.26h-2.44v-.26l.65-.08c.02-.53.03-1.08.03-1.64v-4.27l-.68-.05v-.24l1.69-.36.12.08-.03,1.34v3.51c0,.56,0,1.11.03,1.65Z"/>
      </g>
    </g>
  </g>
</svg>