<svg width="271" height="59" viewBox="0 0 271 59" fill="none" xmlns="http://www.w3.org/2000/svg">
<path d="M67.8199 23.84C69.8199 24.44 70.8199 25 70.8199 25.52C70.8199 25.82 70.4899 26.08 69.8999 26.23C69.2699 26.38 68.8999 26.6 68.7899 26.98C67.8299 30.72 66.8299 33.86 65.8699 36.32C64.7999 38.75 63.6899 40.88 62.5399 42.75H69.3899C69.4599 42.67 69.9499 42.15 70.8299 41.03C71.8699 39.76 72.4999 39.09 72.6799 39.09C73.1999 39.09 74.0499 39.73 75.1599 40.92C76.3099 42.19 76.8999 42.9 76.8999 43.16C76.8999 43.53 76.6399 43.76 76.1599 43.76H48.6999C46.5899 43.76 45.1099 43.8 44.2199 43.91L43.6299 42.45C44.8099 42.64 46.4799 42.75 48.6999 42.75H61.2799C62.0199 40.62 62.6799 38.04 63.2399 35.02C63.9099 31.81 64.3899 27.7 64.6099 22.76C65.9099 23.21 66.9799 23.54 67.8299 23.84M62.6899 13.19C63.6499 13.26 64.1699 13.53 64.1699 13.97C64.1699 14.16 63.8699 14.38 63.2799 14.61C62.6099 14.91 62.2799 15.21 62.2799 15.58V20.1H68.9399C69.0099 20.06 69.4999 19.5 70.3099 18.45C71.3099 17.22 71.8999 16.58 72.1199 16.58C72.5999 16.58 73.4199 17.18 74.5299 18.37C75.5999 19.56 76.1599 20.27 76.1599 20.54C76.1599 20.95 75.8999 21.14 75.4599 21.14H49.8599C47.7499 21.14 46.2699 21.18 45.3799 21.25L44.8199 19.79C45.9699 20.01 47.6299 20.09 49.8499 20.09H58.0999V15.87C58.0999 14.79 57.9899 13.67 57.7999 12.51C59.4599 12.7 61.0899 12.92 62.6799 13.18M55.4299 29.62C56.7999 32.01 57.4999 34.18 57.4999 36.16C57.4999 37.36 57.0899 38.29 56.3199 38.96C55.7999 39.44 55.2099 39.67 54.4699 39.67C53.9899 39.67 53.5799 39.37 53.2499 38.77C52.8799 38.25 52.6199 36.98 52.3999 34.96C52.0299 32.01 51.1799 28.5 49.8499 24.46L50.4399 24.05C52.6199 25.84 54.2899 27.67 55.4299 29.62Z" fill="white"/>
<path d="M111.1 13.3C112.36 14.2 113.02 14.83 113.02 15.13C113.02 15.5 112.72 15.84 112.17 16.14C111.76 16.44 111.58 16.81 111.58 17.19V25.93C111.58 27.09 111.62 28.66 111.73 30.6C111.73 31.12 111.1 31.46 109.88 31.68C109.32 31.75 108.92 31.79 108.69 31.79C107.99 31.79 107.65 31.42 107.65 30.6V29.74H101.73V38.07C103.76 37.81 105.73 37.51 107.61 37.13C107.09 35.94 106.46 34.63 105.65 33.24L106.06 32.94C108.13 33.99 109.69 35.11 110.76 36.23C112.06 37.65 112.72 38.92 112.72 40.08C112.72 40.9 112.42 41.54 111.91 41.99C111.58 42.29 111.17 42.44 110.69 42.44C110.17 42.44 109.73 42.25 109.36 41.88C108.99 41.58 108.66 40.83 108.4 39.6C108.29 39.08 108.14 38.59 107.99 38.07C105.03 40.01 101.92 41.4 98.7397 42.29C98.3297 42.36 98.1497 42.48 98.1497 42.74C98.0797 42.85 98.0397 43.04 98.0397 43.26C97.9697 43.56 97.8497 43.74 97.7097 43.74C97.1897 43.74 96.5997 42.84 95.8997 41.12C95.7197 40.67 95.4197 39.89 94.9697 38.77C95.8997 38.69 96.8197 38.62 97.7097 38.55V20.24C97.7097 17.1 97.5597 14.75 97.2697 13.1C98.5997 13.4 100.19 13.96 101.97 14.71H106.37C106.92 14.04 107.44 13.4 107.96 12.88C108.33 12.43 108.66 12.21 108.96 12.21C109.26 12.21 110 12.58 111.11 13.29M101.75 21.4H107.67V15.72H101.75V21.4ZM101.75 28.72H107.67V22.44H101.75V28.72ZM126.87 14.3C128.05 15.2 128.65 15.83 128.65 16.17C128.65 16.43 128.35 16.77 127.8 17.22C127.1 17.74 126.76 18.19 126.76 18.64V38.37C126.76 39.71 126.09 40.76 124.8 41.47C123.73 42.03 122.84 42.29 122.13 42.29C121.91 42.29 121.69 41.8 121.5 40.79C121.24 39.6 120.24 38.58 118.5 37.76L118.65 37.01C120.06 37.31 121.24 37.46 122.13 37.46C122.5 37.46 122.72 37.09 122.72 36.3V15.88H118.21V44.92C118.21 45.37 117.54 45.74 116.29 46C115.7 46.08 115.29 46.11 115.07 46.11C114.18 46.11 113.74 45.7 113.74 44.91C113.93 42 114.04 39.42 114.04 37.17V20.09C114.04 18.18 113.89 15.87 113.6 13.1C115.38 13.55 117.04 14.11 118.59 14.86H122.14C122.51 14.49 122.77 14.19 122.95 13.96C123.65 13.29 124.14 12.95 124.43 12.95C124.8 12.95 125.61 13.4 126.87 14.3Z" fill="white"/>
<path d="M151.91 24.92H158.13C158.5 24.58 158.8 24.29 159.06 24.06C159.73 23.46 160.24 23.16 160.61 23.16C161.02 23.16 161.79 23.68 162.9 24.65C163.05 24.8 163.2 24.95 163.34 25.02V24.61C163.34 22.89 163.23 20.72 163.04 18.18C164.74 18.63 166.33 19.19 167.78 19.94H168.52C168.82 18.74 169.04 17.32 169.19 15.72H167.67C165.56 15.72 164.08 15.8 163.19 15.87L162.6 14.41C163.78 14.63 165.45 14.71 167.67 14.71H174.59C174.66 14.67 175.07 14.22 175.74 13.33C176.55 12.32 177.07 11.8 177.22 11.8C177.63 11.8 178.29 12.32 179.26 13.3C180.22 14.35 180.7 14.94 180.7 15.13C180.7 15.54 180.48 15.73 180.11 15.73H173.67C172.71 17.38 171.63 18.76 170.41 19.95H173.3C173.82 19.43 174.34 18.98 174.78 18.57C175.15 18.27 175.48 18.09 175.78 18.09C176.04 18.09 176.7 18.43 177.82 19.06C179.04 19.96 179.67 20.56 179.67 20.85C179.67 21.19 179.41 21.52 178.93 21.86C178.56 22.16 178.37 22.5 178.37 22.87V33.56C178.37 34.68 178.41 36.25 178.52 38.23C178.52 38.72 177.89 39.05 176.67 39.28C176.12 39.36 175.71 39.39 175.49 39.39C174.82 39.39 174.49 39.02 174.49 38.23V37.63H167.24V37.93C167.24 38.42 166.65 38.75 165.46 38.97C164.94 39.05 164.57 39.08 164.35 39.08C163.46 39.08 163.06 38.71 163.06 37.92C163.24 35.27 163.36 32.91 163.36 30.89V27.23H163.17C162.36 27.3 161.84 27.38 161.62 27.53C159.73 29.47 158.25 30.85 157.14 31.64L156.84 31.34C157.28 30 157.77 28.2 158.28 25.92H156.1V41.13C156.1 42.92 155.55 44.12 154.47 44.64C153.43 45.2 152.62 45.5 152.06 45.5C151.76 45.5 151.51 45.09 151.32 44.27C151.02 43.07 149.8 42.1 147.73 41.28L147.88 40.68C149.36 40.98 150.58 41.13 151.62 41.13C152.1 41.13 152.36 40.8 152.36 40.09V25.93H151.92C150.33 25.93 148.85 26.04 147.44 26.23L146.85 24.47C148.33 24.77 150.03 24.92 151.92 24.92M152.96 14.87H156.11C156.48 14.57 156.81 14.31 157.03 14.08C157.7 13.56 158.21 13.26 158.58 13.26C158.99 13.26 159.76 13.78 160.95 14.79C162.13 15.8 162.76 16.51 162.76 16.88C162.76 17.25 162.28 17.48 161.32 17.55C160.51 17.63 159.95 17.74 159.73 17.92C158.4 18.89 157.29 19.71 156.36 20.31C157.06 20.91 157.43 21.54 157.43 22.29C157.43 22.96 157.13 23.56 156.58 24.16C156.21 24.57 155.69 24.76 155.1 24.76C154.51 24.76 153.99 24.28 153.58 23.23C153.02 21.74 152.03 20.32 150.62 18.93L150.92 18.33C152.55 18.7 153.84 19.12 154.84 19.49C155.28 18.44 155.76 17.21 156.25 15.87H152.96C151.37 15.87 149.85 15.98 148.45 16.17L147.89 14.41C149.37 14.71 151.04 14.86 152.96 14.86M158.58 45.95L158.28 45.2C160.46 44.34 162.09 43.48 163.16 42.58C164.31 41.83 165.49 40.64 166.68 39.07C167.75 39.89 168.6 40.56 169.23 41.01C170.19 41.76 170.71 42.28 170.71 42.58C170.71 42.88 170.49 43.03 170.12 43.03L168.53 42.88C164.9 44.6 161.57 45.61 158.58 45.95ZM174.49 20.99H167.24V25.21H174.49V20.99ZM174.49 26.22H167.24V30.74H174.49V26.22ZM174.49 31.79H167.24V36.61H174.49V31.79ZM176.75 40.61C177.86 41.02 178.64 41.47 179.15 41.96C179.6 42.33 179.82 42.71 179.82 43.16C179.82 43.83 179.56 44.39 179.12 44.92C178.68 45.52 178.12 45.82 177.53 45.82C177.16 45.82 176.53 45.11 175.57 43.77C174.57 42.5 173.28 41.38 171.72 40.41L172.16 39.55C174.08 39.85 175.6 40.22 176.75 40.63" fill="white"/>
<path d="M212.03 19.02C213.1 19.47 213.66 19.96 213.66 20.4C213.66 20.62 213.36 20.74 212.84 20.77C212.29 20.84 211.99 20.92 211.92 20.99C209.85 23.53 207.44 25.85 204.78 27.98C206.7 27.94 208.52 27.87 210.26 27.75C209.96 27 209.63 26.26 209.19 25.51L209.45 25.21C211.3 26.11 212.56 26.89 213.22 27.57C214.07 28.54 214.52 29.36 214.52 30.04C214.52 30.75 214.34 31.31 214.04 31.72C213.59 32.17 213.15 32.36 212.63 32.36C212.11 32.36 211.74 32.28 211.52 32.06C211.22 31.91 211 31.2 210.85 30C210.78 29.55 210.7 29.14 210.59 28.77C209.81 29.14 209.04 29.52 208.3 29.82V39.24C208.3 41.63 208.34 43.5 208.45 44.92C208.45 45.33 207.82 45.63 206.6 45.85C206.04 45.92 205.64 45.96 205.42 45.96C204.75 45.96 204.42 45.59 204.42 44.91C204.49 43.57 204.57 41.7 204.57 39.23V36.5C204.05 36.65 203.76 36.76 203.68 36.87C203.16 38.55 202.53 39.97 201.83 41.13C201.16 42.29 200.31 43.41 199.2 44.61L198.76 44.2C199.2 42.44 199.57 40.84 199.87 39.34C200.09 37.77 200.31 35.87 200.5 33.7C201.72 34.04 202.9 34.37 204.05 34.67C204.23 34.75 204.42 34.78 204.57 34.86V31.12C203.76 31.38 202.91 31.61 202.09 31.75C201.72 31.82 201.54 31.94 201.54 32.09C201.47 32.24 201.43 32.39 201.43 32.61C201.36 32.95 201.25 33.1 201.1 33.1C200.58 33.1 199.99 32.24 199.32 30.48C199.1 30.03 198.8 29.25 198.36 28.12C199.84 28.12 201.32 28.08 202.76 28.04C205.24 24.83 207.2 21.39 208.61 17.76C209.79 18.17 210.94 18.58 212.05 18.99M207.68 13.01C208.79 13.46 209.34 13.91 209.34 14.39C209.34 14.65 209.04 14.8 208.52 14.84C207.97 14.91 207.67 15.03 207.6 15.1C206.3 16.82 204.82 18.43 203.12 19.85C203.42 20.04 203.67 20.19 203.9 20.34C204.71 21.01 205.12 21.83 205.12 22.73C205.12 23.25 204.9 23.78 204.45 24.26C204.12 24.6 203.71 24.75 203.23 24.75C202.64 24.75 202.12 24.23 201.68 23.14C201.09 21.64 200.09 20.19 198.61 18.77L198.91 18.32C200.09 18.66 201.09 18.99 201.91 19.29C202.87 16.94 203.61 14.43 204.13 11.78C205.35 12.19 206.53 12.6 207.68 13.01ZM213.23 36.7C214.08 37.93 214.53 39.02 214.53 39.91C214.53 40.7 214.35 41.29 214.01 41.7C213.53 42.18 213.01 42.41 212.49 42.41C211.97 42.41 211.64 42.3 211.45 42C211.15 41.81 210.93 40.99 210.78 39.5C210.59 37.71 210.08 35.84 209.19 33.93L209.6 33.52C211.38 34.72 212.56 35.8 213.23 36.7ZM219.85 13.27C221.03 13.64 221.63 14.02 221.63 14.39C221.63 14.8 221.3 15.06 220.67 15.14C220 15.25 219.67 15.4 219.6 15.55C219.16 16.93 218.71 18.17 218.23 19.21H225.52C225.96 18.69 226.33 18.27 226.59 17.9C227.11 17.3 227.52 17 227.85 17C228.33 17 229.18 17.49 230.44 18.46C231.48 19.28 232.03 19.92 232.03 20.37C232.03 20.56 231.81 20.82 231.36 21.19C230.88 21.6 230.62 21.97 230.58 22.27C230.47 25.75 230.17 29.89 229.65 34.75C229.17 38.67 228.58 41.25 227.91 42.52C227.32 43.49 226.58 44.28 225.65 44.84C224.62 45.44 223.84 45.77 223.32 45.77C223.02 45.77 222.73 45.32 222.47 44.42C222.03 43.3 220.43 42.21 217.7 41.09L217.85 40.19C220 40.49 221.51 40.64 222.47 40.64C223.28 40.64 223.88 40.34 224.28 39.67C224.65 38.92 224.98 36.61 225.35 32.72C225.83 28.31 226.09 24.16 226.09 20.2H217.73C217.43 20.76 217.17 21.28 216.92 21.73C215.96 23.37 214.66 25.06 213.07 26.77L212.48 26.17C213.48 23.85 214.26 21.72 214.78 19.7C215.3 17.61 215.74 15.07 216.11 12.15C217.4 12.52 218.66 12.86 219.85 13.23M221.37 27.62C222.78 28.71 223.48 29.68 223.48 30.54C223.48 31.55 223.11 32.33 222.44 32.89C222 33.3 221.48 33.49 220.89 33.49C220.37 33.49 219.89 33.34 219.52 33C219.15 32.74 218.85 32.06 218.6 30.98C218.23 29.41 217.3 27.58 215.82 25.45L216.26 25.15C218.48 25.97 220.18 26.8 221.37 27.62Z" fill="white"/>
<path d="M26.27 0.5H244.7C258.65 0.5 269.97 11.82 269.97 25.77V32.36C269.97 46.31 258.65 57.63 244.7 57.63H26.27C12.32 57.63 1 46.31 1 32.36V25.77C1 11.82 12.32 0.5 26.27 0.5Z" stroke="white" stroke-miterlimit="10"/>
</svg>
