
<svg xmlns="http://www.w3.org/2000/svg" fill="#fff" viewBox="0 0 298 70">
<path fill="#B99E6B" d="M67.8,1.7H0v18.7h67.8V1.7z M21.3,23.2H0v46.3h21.3V23.2z M67.8,23.2H24.1v46.3h43.8V23.2z"/>
<path d="M83.9,69.7c-0.4,0-0.7,0-0.9-0.1v-1c1.3,0.3,2.3-0.6,2.8-2.2L82.5,58H84c0.6,1.5,2.1,5.4,2.5,6.9
	c0.4-1,2-5.8,2.4-6.9h1.5C86.3,68,86.4,69.7,83.9,69.7z M100.8,56.2v-1.3h1.4v1.3H100.8z M100.8,66.4V58h1.4v8.4H100.8z M119,66.4
	l-2.8-3.8l-1,0.9v3h-1.4V54.8h1.4V62l3.7-4.1h1.6l-3.4,3.6l3.5,4.8H119L119,66.4z M154.5,66.4V61c0-3.2-3.9-2.6-3.9,0.5v4.9h-1.4
	c0-1.2,0.1-7.5-0.1-8.4h1.3c0,0.5,0,0.8,0.1,1.4h0c1.3-2.6,5.3-1.9,5.3,0.9v6.1L154.5,66.4L154.5,66.4z M132.4,57.9v5.3
	c0,3.2,3.9,2.6,3.9-0.5v-4.9h1.4c0,1.2-0.1,7.5,0.1,8.4h-1.3c0-0.5,0-0.8-0.1-1.4h0c-1.3,2.6-5.3,1.9-5.3-0.9v-6.1L132.4,57.9
	L132.4,57.9z M170.6,69.7c-1.6,0-2.8-0.6-3.2-2.1l1.4-0.2c0.2,0.9,0.9,1.2,1.9,1.2c1.4,0,2.1-0.8,2.1-2.5l0-1.4
	c-0.8,1.9-3.8,2.2-4.9,0.6c-1-1.2-1-5.3,0.1-6.5c1.1-1.6,4.1-1.4,4.9,0.5l0.1-1.4h1.3c-0.1,0.9,0,7.1-0.1,8.2
	C174.1,68.5,172.9,69.7,170.6,69.7z M172.7,62.2c0-1.5-0.5-3.3-2.2-3.3c-1.8,0.1-2,1.5-2,3.3c0.1,1.9,0.1,3.1,2,3.2
	C172.1,65.4,172.7,63.7,172.7,62.2L172.7,62.2z M186,66.4v-1.7h1.5v1.7H186z M201,64.6c0.9,1.4,3.3,0.9,3.4-0.9l1.4,0.1
	c-0.2,2.8-4.3,3.5-5.9,1.5c-1.2-1.5-1.3-5,0-6.5c1.6-1.9,5.5-1.3,5.8,1.4l-1.4,0.1c-0.1-1.7-2.4-2-3.4-0.8
	C200.3,60.5,200.3,63.5,201,64.6z M223.7,62.2c0,2.7-1.1,4.4-3.8,4.4c-2.6,0-3.7-1.8-3.7-4.4c0-2.9,1.2-4.4,3.7-4.4
	C222.8,57.8,223.7,59.4,223.7,62.2L223.7,62.2z M222.3,62.2c-0.1-1.9-0.3-3.3-2.2-3.3c-1.9,0.1-2.2,1.4-2.3,3.3
	c0,1.9,0.4,3.3,2.2,3.3C221.9,65.4,222.2,64.1,222.3,62.2z M239.7,66.4V61c0-1.7-0.4-2.2-1.3-2.2c-1.4,0-2.1,0.9-2.1,2.6v4.9h-1.4
	c0-1.2,0-7.5,0-8.4h1.3c0,0.5,0,0.8,0.1,1.4h0c0.3-0.6,0.6-1,1-1.2c1.3-0.7,3.4-0.4,3.6,1.2h0c0.8-1.9,4.9-2.8,4.9,1.2v5.8h-1.4
	v-5.8c0-2.6-3.4-2.2-3.4,0.9v4.9L239.7,66.4z M257.8,66.4v-1.7h1.5v1.7H257.8z M274.4,66.3c-1.4,0.4-3.2,0.3-3.1-1.7V59h-1v-1h1
	l0.4-1.9h0.9v1.9h1.5v1h-1.5v5.3c-0.1,1.2,0.7,1.2,1.7,1L274.4,66.3L274.4,66.3z M293,66.4h-1.6c-0.2-1-1.6-6.4-1.7-7.3
	c-0.4,1.9-0.6,2.5-1.8,7.3h-1.6l-2.3-8.4h1.4c0.3,1.4,1.5,5.8,1.7,7.3c0-0.2,1.8-6.9,1.9-7.3h1.5c0.3,1.1,1.6,6.3,1.8,7.3
	c0.1-0.6,1.6-6.5,1.8-7.3h1.3L293,66.4z M91.1,23.5c-3.6,0-6.5,0.2-8.8,0.5l-1.2-2.8c3.2,0.5,7.4,0.7,12.7,0.7h23.8
	c2.3-2.9,3.7-4.3,4.1-4.3c0.6,0,7.8,5.4,5,5.9H91.1z M138.8,10.5l-0.9-2.3c3.9,0.9,6.8,0.7,13.7,0.7c1.9-2.4,3-3.6,3.3-3.6
	c0.3,0,6.2,4.3,4,4.7h-8.2v19.8c2.4-0.5,5.2-1.4,8.6-2.8l0.2,0.8c-5.2,3.6-10.8,6.6-16.9,9.1c-0.1,0-0.2,0.7-0.4,2.1
	c-0.1,0.7-0.4,1-0.8,1c-0.6,0-2-2.6-4.2-7.9c2.8-0.3,5.6-0.7,8.4-1.3V10.1C141.9,10.1,139.4,10.3,138.8,10.5z M173,46.6
	c-2.1,0,1.1-3.2-7.7-5.6l0.2-0.9c5.2,0.7,7.8,0.8,8.7,0.2c2.1-1.6,2.8-11,3.1-26.2h-7.3c0,16.5-6.1,26.3-19.8,33.5l-0.6-0.7
	c9.8-7.3,15-18.8,15.2-32.7c-2.3,0-6.7,0.1-8.6,0.5l-0.9-2.3c0.9,0.4,6.2,0.6,9.5,0.6c0-7.4-0.1-11.6-0.2-12.7c5.4,0.8,8,1.5,8,2
	c0,0.9-2.5,1.1-2.5,1.5c0,3.8,0,6.9-0.1,9.2h6.8c1.5-1.7,2.4-2.6,2.8-2.6c0.7,0,4.6,3.1,4.6,4c0,0.9-1.9,0.7-2,3
	c-0.4,11.7-1,20.6-2.8,24.7C177.8,45.2,174.8,46.6,173,46.6z M232.6,24.4c0.5-1.5,0.9-3.2,1.2-5.1h-34.1c0.9,7.2-4.5,7.2-5.7,6.2
	c-3.5-3,3.6-3.5,4-10.6h0.9c0.3,0.9,0.6,1.9,0.7,2.9h34c2.8-3.3,2.4-3.7,5.4-0.9c3.7,3.5,1.3,3.3-1,3.5c-1.3,1.5-2.9,3-4.6,4.4
	L232.6,24.4L232.6,24.4z M199.3,11.2c-2.5-0.1-2.6-2.4-0.8-3.4c1.9-1.3,3-2.7,3.2-4.5l0.8,0.1C203.5,6.3,202.9,11.3,199.3,11.2z
	 M214.6,35.9h14.8c3-3.1,2-3.3,5.3-1c3.9,2.6,1,2.8,0,4.3c0,2.7,0,3,0.2,7.1c0,1-1.2,1.5-3.7,1.5c-0.9,0-1.4-0.3-1.4-0.9v-2.1h-26.2
	v1.6c0,1-1.2,1.6-3.6,1.6c-1,0-1.5-0.3-1.5-0.9c0.4-4.6,0.4-8.4-0.2-13.1c1.1,0.3,2.9,0.9,5.6,1.9h9.3c0.7-1.6,1.2-3.3,1.4-5.1h-7.1
	c0.2,2-0.5,2.5-3.7,2.6c-0.9,0-1.4-0.3-1.4-1c0.1-2.1,0.2-3.8,0.2-4.9c0-2.4-0.1-5.5-0.4-6.9c1.3,0.3,3.1,1,5.4,2h17.6
	c1.4-1.6,2.3-2.4,2.8-2.4c0.5-0.2,4.6,3,4.4,3.7c-0.1,0.8-2,1.9-1.8,1.9c0,2.4,0,2.5,0.2,6l0.1,0c0.4,0.8-5.1,2.4-5.1,0.5
	c0,0,0-1.5,0-1.5h-6.2C218.8,32.8,217.1,34.5,214.6,35.9L214.6,35.9z M200.4,17.3l-0.4-0.6c5-2.7,6.2-10.2,5.3-16.6
	c5.8,1.1,9.1,1.3,4.6,2.9c-0.1,2.9-0.3,4.4-0.4,4.3c0.9-0.4,3.8-4,4.1-5.3c4,2.4,6,4.4,1.9,3.7c-2,1.1-4.1,2-6.3,2.5
	c-0.1,0.8-0.3,1.4-0.5,1.8c4.7,0.2,7,1.5,7,4c0,1.6-0.6,2.4-1.8,2.4c-1.9-0.2-3.3-5.3-5.4-5.7C207.4,14,204.6,16.1,200.4,17.3
	L200.4,17.3z M203.7,37.2v6.2h26.2v-6.2H203.7z M207.6,23.9v5.6h18.4v-5.6H207.6z M218.4,11.3c-2.7,0-2.4-2.1-0.6-3.3
	c1.5-1.1,2.3-2.6,2.6-4.5l0.8,0.1C222,6.3,221.9,11.4,218.4,11.3z M217,17.3l-0.4-0.6c6.4-3.2,8-9.5,7.2-16.5c6.1,1,9.1,1.2,4.7,3.1
	c-0.1,2-0.3,3.4-0.5,4.1c1.2-0.5,4.7-3.7,5.6-5.2c4.2,2.9,6.3,5,1.7,4c-2.6,1.2-5.1,1.9-7.5,2.2c-0.1,0.7-0.3,1.3-0.6,1.9
	c4.4-0.2,8.4,1,8.1,3.7c0,1.5-0.6,2.2-1.8,2.2c-1.9,0-4.8-5.7-6.7-5C225.5,14.3,222.1,16.4,217,17.3L217,17.3z M258.6,26
	c1.4-1.4,2.3-2.1,2.6-2.1c0.4-0.2,4.3,3,4.1,3.5c0.3,0.5-1.7,1.1-2.1,1.4c-0.7,3.4-2,6.3-3.7,9c7.7,5.4,27.5,4.1,37.7,2.8l-0.1,0.9
	c-3.6,1.3-1.4,4.6-4.6,4.8c-13.9,0.9-30-2-33.6-7.5c-2.3,3.9-5.3,7-8.9,9.2l-0.6-0.6c4.2-4.3,8.5-14.2,9.3-20h-2.2
	c-1.1,2.5-1,2.6-3,2.6c-1.8,0-2.7-0.3-2.7-0.8c-0.2,0,2.1-4.4,2-4.3c0,0,4.3-10,4.3-10c-2.2,0-5.8,0.1-6.8,0.5l-0.9-2.3
	c1.3,0.5,4.8,0.7,7.5,0.6c1.5-1.5,2.4-2.2,2.8-2.2c0.4-0.2,4,3.1,3.8,3.7c0.3,0.6-2.1,1.1-2.5,1.5c0,0-4,9.5-4,9.5L258.6,26
	L258.6,26z M252.1,0.7l0.5-0.7c3.4,1,8.6,3.6,8.7,7.2c0.1,3.7-4.4,4.4-5.1,0C255.5,4.5,254.1,2.3,252.1,0.7L252.1,0.7z M288.6,17.9
	c1.8-2.6,2.9-3.8,3.3-3.8c0.5-0.2,6.1,4.6,4.2,5.1h-13.4c-0.1,2.5,1.4,5-3.3,4.7c-1,0-1.5-0.3-1.4-1c0.1-1.5,0.1-2.5,0.1-3.7
	c-2.3,0.1-10.3-0.3-12.4,0.4l-1.1-2.4c2.3,0.7,9.1,0.8,13.4,0.8v-7.2h-6.2c-1.3,2.3-2.9,4.2-4.9,5.8l-0.7-0.5
	c2.3-4.9,3.5-9.8,3.6-14.6c6.3,1.3,9.7,2.1,4.7,3.4c-0.4,1.6-1.1,3.2-1.9,4.6h5.4c0-3,0.1-5.8-0.3-9.3c7.1,1.3,9.9,1.7,5,3.7
	c0,0,0,5.6,0,5.6h3.6c1.8-2.4,2.9-3.7,3.2-3.7c0.5-0.2,6.4,4.5,4.1,4.9h-10.9v7.2L288.6,17.9L288.6,17.9z M291.8,30.9
	c0,0.9,0.1,2.9,0.2,6.3c0,0.9-1.1,1.4-3.3,1.4c-2.3,0.2-1.6-1.6-1.7-2.9h-14c0.2,2.3-0.1,3-3.6,3c-0.9,0-1.3-0.3-1.3-0.9
	c0.3-6.5,0.5-10.4-0.2-15.2c1.9,0.7,3.7,1.4,5.5,2.3h13.2c1.5-1.8,2.4-2.7,2.8-2.7c0.5-0.2,5.1,3.1,4.8,3.8c0.3,0.5-2.1,1.6-2.5,2
	C291.8,28.1,291.8,30.9,291.8,30.9z M287.1,26.2h-14v8.4h14V26.2z"/>
</svg>
