<?xml version="1.0" encoding="utf-8"?>
<!-- Generator: Adobe Illustrator 26.5.0, SVG Export Plug-In . SVG Version: 6.00 Build 0)  -->
<svg version="1.1" id="圖層_1" xmlns="http://www.w3.org/2000/svg" xmlns:xlink="http://www.w3.org/1999/xlink" x="0px" y="0px"
	 viewBox="0 0 351 70" style="enable-background:new 0 0 351 70;" xml:space="preserve">
<style type="text/css">
	.st0{fill:#FFFFFF;}
	.st1{fill:#008043;}
	.st2{fill:url(#SVGID_1_);}
	.st3{fill:url(#SVGID_00000136410243497103345810000018244134832785192126_);}
	.st4{fill:none;stroke:#FFFFFF;stroke-width:3.4637;stroke-linecap:round;stroke-linejoin:round;}
	.st5{fill:url(#SVGID_00000007415067077676904990000013000801233730443453_);}
	.st6{fill:url(#SVGID_00000030459797560396502190000003719613749427441057_);}
	.st7{fill:#00954E;}
</style>
<path class="st0" d="M75.3-19.7c0.9,0,1.6-0.7,1.6-1.6v-1.9c0-1.3-1-2.3-2.3-2.6l-15.7-2.7c-2.7-0.5-2.2-4.5,0-4.5h19.4
	c13.5,0,20.1-16.5,10.5-25.8c-3.5-3.5-1.3-5.8-3.8-9.8c-5.1-8.1-8.9-4.7-11.5-9.3c-3.1-5.5-8.6-7.6-14-7.1c-5.9,0.5-5-3.5-12.7-3.5
	S40-84.4,34.1-85c-5.4-0.5-10.8,1.6-14,7.1c-2.6,4.6-6.4,1.3-11.5,9.3c-2.5,4-0.3,6.3-3.8,9.8C-4.8-49.5,1.8-33,15.3-33h19.4
	c2.2,0,2.7,4,0,4.5L19-25.8c-1.4,0.2-2.3,1.3-2.3,2.6v2c0,0.9,0.7,1.6,1.6,1.6L75.3-19.7L75.3-19.7z M164.6-75.8h-44
	c-1.5,0-2.7,1.2-2.7,2.7v39.3c0,1.5,1.2,2.7,2.7,2.7h44c1.5,0,2.7-1.2,2.7-2.7v-39.3C167.3-74.6,166.1-75.8,164.6-75.8z M150-72.5
	h3.8c0.2,1,0.5,2.5,0.8,4.5h-4.5C150-70.1,150-71.7,150-72.5z M124.1-72.5h21.2c0,0.8,0.1,2.4,0.3,4.5h-21.5
	C124.1-68,124.1-72.5,124.1-72.5z M161.2-34.4h-37.1v-30.3H146c0.7,4.9,2,11.3,4.6,17.3c-2.2,3.2-4.9,6.2-8,8.3
	c-0.3,0.2-0.1,0.5-0.1,0.5l1,1.9c0,0,0.1,0.4,0.5,0.1c3.3-1.8,6-4.4,8.4-7.2c1.6,2.9,3.6,5.5,6,7.7c0.2,0.3,0.5,0.1,0.5,0.1l1.5-1.8
	c0,0,0.2-0.2,0-0.4c-2.3-2.7-4.1-5.8-5.5-8.9c1.7-2.5,3.2-5.1,4.4-7.6c0.2-0.4-0.2-0.5-0.2-0.5l-3.2-1.3c0,0-0.3-0.1-0.5,0.2
	c-0.7,1.6-1.4,3.2-2.3,4.8c-1.5-4.7-2.3-9.4-2.7-13.1h8c0,0,1.1,0,1.1-1.4c-0.5-2.5-0.9-5-1.2-6.4h2.9V-34.4z M144.3-43.8v-2.3
	c0-0.4-0.4-0.3-0.4-0.3c-6.2,1.8-13.6,2.4-17,2.5l0,0c-0.3,0-0.5,0.2-0.5,0.5v3.7c0,0.3,0.2,0.5,0.5,0.5l0,0l0,0
	c3.8-0.2,12-1.9,17-4.1C144-43.3,144.3-43.5,144.3-43.8L144.3-43.8z M129.1-48.8h12.5c1.5,0,2.7-1.2,2.7-2.7v-7.7
	c0-1.5-1.2-2.7-2.7-2.7h-12.5c-1.5,0-2.7,1.2-2.7,2.7v7.7C126.4-50,127.6-48.8,129.1-48.8L129.1-48.8z M132.4-59h6v7.4h-6V-59z
	 M228.6-48c-3.1-1.4-6.6-3.6-9.2-6.2h9.2c0.3,0,0.5-0.2,0.5-0.5v-2.7c0-0.3-0.2-0.5-0.5-0.5h-31.3c1.1-1.4,2.1-2.9,3.1-4.3h22.4
	c0.3,0,0.5-0.2,0.5-0.5v-2.7c0-0.3-0.2-0.5-0.5-0.5h-20.1c0.9-1.5,1.6-3,2.2-4.3h22c0.3,0,0.5-0.2,0.5-0.5v-2.7
	c0-0.3-0.2-0.5-0.5-0.5h-20.3c0.2-0.5,0.4-1,0.5-1.3c0.2-0.5,0.1-0.9-0.4-1c-1.2-0.2-3.6-0.8-4.3-0.9c-0.9-0.2-1.1,0.7-1.1,0.7
	l-0.4,1.3c-0.1,0.4-0.3,0.8-0.4,1.3h-18.1c-0.3,0-0.5,0.2-0.5,0.5v2.7c0,0.3,0.2,0.5,0.5,0.5H199c-0.6,1.3-1.3,2.8-2.1,4.3h-10.5
	c-0.3,0-0.5,0.2-0.5,0.5v2.7c0,0.3,0.2,0.5,0.5,0.5h8.4c-0.9,1.4-1.9,2.9-3,4.3h-11.4c-0.3,0-0.5,0.2-0.5,0.5v2.7
	c0,0.3,0.2,0.5,0.5,0.5h8.2c-2.4,2.5-5.2,4.7-8.3,6.2c-0.8,0.3-0.4,1-0.4,1l0.6,1.4c0,0,0.2,0.6,0.9,0.3c1.9-0.7,3.8-1.6,5.5-2.7
	c4,1,8.8,3.1,10,3.6c0.4,0.2,0.5-0.1,0.5-0.1l1.5-3c0,0,0.2-0.4-0.2-0.6c-1.7-0.7-5.4-1.8-8.4-2.4c1.4-1.1,2.7-2.4,4-3.7h19.6
	c1.2,1.2,2.5,2.4,4,3.5c-2.3,1.1-6.1,1.9-8.2,2.2c-0.3,0-0.4,0.2-0.3,0.5c0.4,1.2,0.5,2.2,0.9,3.4c0.1,0.4,0.3,0.4,0.6,0.3
	c1.4-0.2,7.5-2.5,10.1-4.2c2.2,1.3,4.4,2.5,6.7,3.3c0.7,0.3,0.9-0.3,0.9-0.3l0.6-1.4C229-47.1,229.3-47.8,228.6-48L228.6-48z
	 M225.1-36.5c-4.5-2.1-9.8-3.9-14.5-5c-0.4-0.1-0.5,0.2-0.5,0.2l-0.9,2c0,0-0.2,0.4,0.2,0.6c4.5,2,8.5,3.5,12.7,6.1
	c0.4,0.2,0.9,0.2,1.3-0.2c0.8-1.1,1.1-1.7,1.9-2.8C225.4-36,225.3-36.3,225.1-36.5L225.1-36.5z M199.1-39.8c-0.1-1.1-0.2-0.9-0.4-2
	c0-0.2-0.2-0.4-0.5-0.3c-5,2.6-10,3.9-15.4,5.4c-0.3,0.1-0.4,0.3-0.3,0.6c0.4,0.9,1.2,2.6,1.5,3.3c0.1,0.2,0.4,0.4,0.8,0.3
	c4.4-1.5,10-4.3,14-6.6C199.2-39.3,199.2-39.4,199.1-39.8L199.1-39.8z M204.6-51.7h-2.8c-0.3,0-0.6,0.3-0.6,0.6v14.6
	c0,1.4-0.3,2.1-2.5,2.1h-1.3c-0.2,0-0.2,0.2-0.2,0.2v2.4c0,0.4,0.3,0.8,0.8,0.8h2.3c5.3,0,7-0.7,7-5.3V-49
	C207.3-50.5,206.1-51.7,204.6-51.7L204.6-51.7z M350.5-34.3c-4.3-1.6-7.7-3.4-10.5-5.3c6.1-5,8.1-10,8.5-11.7l0,0v-0.1
	c0-0.5,0-1.2,0-1.3c-0.1-1.2-1-2-2.1-2h-21.1c-0.3,0-0.5,0.2-0.5,0.5v2.3c0,0.3,0.2,0.5,0.5,0.5h17.8c-0.3,1.4-1.9,5.1-6.6,9.1
	c-3.3-2.9-5.1-5.5-6-7.4h-5.4c1,2.3,3.3,6.2,7.9,10c-2.8,1.8-6.2,3.7-10.5,5.3c-0.4,0.2-0.2,0.6-0.2,0.6l0.8,2.3
	c0,0,0.2,0.4,0.6,0.3c5.3-1.7,9.5-3.7,12.8-5.9c3.3,2.2,7.5,4.2,12.8,5.9c0.4,0.1,0.6-0.3,0.6-0.3l0.8-2.3
	C350.8-33.7,350.9-34.2,350.5-34.3z M302-68.1h19.4c0.3,0,0.5,0.2,0.5,0.5v2.3c0,0.3-0.2,0.5-0.5,0.5H302c-0.3,0-0.5-0.2-0.5-0.5
	v-2.3C301.5-67.9,301.7-68.1,302-68.1L302-68.1z M304.4-54.7H319c0.3,0,0.5,0.2,0.5,0.5v2.3c0,0.3-0.2,0.5-0.5,0.5h-14.7
	c-0.3,0-0.5-0.2-0.5-0.5v-2.3C303.9-54.4,304.1-54.7,304.4-54.7z M304.4-61.4H319c0.3,0,0.5,0.2,0.5,0.5v2.3c0,0.3-0.2,0.5-0.5,0.5
	h-14.7c-0.3,0-0.5-0.2-0.5-0.5v-2.3C303.9-61.2,304.1-61.4,304.4-61.4z M319.1-74.9h-14.7c-0.3,0-0.5,0.2-0.5,0.5v2.3
	c0,0.3,0.2,0.5,0.5,0.5h14.7c0.3,0,0.5-0.2,0.5-0.5v-2.3C319.6-74.7,319.3-74.9,319.1-74.9z M325-57c0.1,0.2,0.5,0.3,0.7,0.2
	c0,0,7.4-4.9,7.4-12.2v-2.4h7.5v8.2c0,2.3,0.5,3.9,1.4,4.7c1,0.8,2.4,1.2,4.4,1.2h3.7c0.3,0,0.5-0.2,0.5-0.5v-2.4
	c0-0.3-0.2-0.5-0.5-0.5h-1.9c-1,0-1.6-0.2-2-0.5c-0.3-0.3-0.5-1-0.5-2.2v-8.5v-0.8c-0.1-1.2-1-2.1-2-2.1h-15c-0.3,0-0.5,0.2-0.5,0.5
	v2.1c0,3.7-0.5,6.3-1.2,7.9c-0.8,1.9-3.5,4.1-3.5,4.1c-0.2,0.1-0.3,0.5-0.1,0.7L325-57L325-57z M318.3-47.9h-12.9
	c-1.1,0-2.3,0.7-2.3,2c0,1.8,0,12.4,0,12.4c0,1.3,0.9,2.4,2.1,2.4h13.1c1.1,0,2.1-1.1,2.1-2.4v-12.1
	C320.3-46.9,319.4-47.9,318.3-47.9L318.3-47.9z M314.7-34.4h-5.9v-10.2h5.9V-34.4z M289.5-35.3h-23.3c-10.3,0-13.6-4.4-13.8-4.7
	c1.3-2.6,2.4-5,3-7.2c0.9-3,1.5-6.8,1.6-10.7c0-0.9-0.6-1.3-1.6-1.3h-6.9l7.9-12.2l-2-2.6h-12c-0.3,0-0.5,0.2-0.5,0.5v2.3
	c0,0.3,0.2,0.5,0.5,0.5h8.6L242.9-58l1.2,2.1h7.6c0.2,0,0.3,0.2,0.3,0.6c0,3.2-0.9,7.5-2.7,11.2c-1-1.8-3-7.5-3-7.5
	c-0.1-0.3-0.4-0.4-0.6-0.3l-3.3,1.1c-0.3,0.1-0.4,0.2-0.3,0.6c1,3.2,4.9,10.3,4.9,10.3c-1.8,3.7-6.1,5.6-6.1,5.6
	c-0.2,0.2-0.3,0.5-0.1,0.7l2.1,2.6c0.2,0.2,0.5,0.3,0.7,0.1c0,0,2.6-1.7,3.5-2.4c1.4-1.1,2.3-2.2,2.9-3.1c0,0,5,5.3,13.6,5.3h12.9
	h12.4c0.3,0,0.5-0.1,0.6-0.5l0.7-3.2C290-35.2,289.7-35.3,289.5-35.3L289.5-35.3z M284.1-56.9h0.8c1.5,0,2.7-1.2,2.7-2.7v-4.2h2.1
	c0.3,0,0.5-0.3,0.5-0.6v-2.2c0-0.3-0.2-0.6-0.5-0.6h-2.1v-4.2c0-1.5-1.2-2.7-2.7-2.7h-10.1v-2.2c0-0.3-0.2-0.5-0.5-0.5H270
	c-0.3,0-0.5,0.2-0.5,0.5v2.2h-9c-0.1,0-0.2,0.1-0.3,0.1l0,0c-0.1,0.1-0.1,0.2-0.1,0.3v2.2c0,0.3,0.2,0.6,0.4,0.6h9v3.5h-13.2
	c-0.3,0-0.5,0.3-0.5,0.6v2.2c0,0.3,0.2,0.6,0.5,0.6h13.2v3.6h-9c-0.2,0-0.4,0.3-0.4,0.6v2.2c0,0.1,0.1,0.2,0.1,0.3l0,0
	c0.1,0.1,0.2,0.1,0.3,0.1h9v4.1h-10c-0.3,0-0.5,0.3-0.5,0.6v2.2c0,0.3,0.2,0.6,0.5,0.6h10v3.8h-12.4c-0.3,0-0.5,0.3-0.5,0.6v2.2
	c0,0.3,0.2,0.6,0.5,0.6h12.4v5.3c0,0.4,0.3,0.6,0.6,0.6h1.9c1.5,0,2.8-1.2,2.8-2.8v-3.2h14.8c0.3,0,0.5-0.3,0.5-0.6v-2
	c0-0.3-0.2-0.6-0.5-0.6h-14.8v-3.8H287c0.3,0,0.5-0.3,0.5-0.6v-2.2c0-0.3-0.2-0.6-0.5-0.6h-12.2v-4L284.1-56.9L284.1-56.9z
	 M274.8-70.7h7.6v3.5h-7.6V-70.7z M274.8-62.3v-1.5h7.6v3.6h-7.6V-62.3z"/>
<path class="st1" d="M18-21.2v-1.9c0-0.5,0.4-1,0.9-1.1l15.9-2.7c2.6-0.5,3.1-2.2,3.1-3.9c0-2.5-1.5-3.8-3.3-3.8H15.1
	c-11.3,0-18.4-13.9-9.4-23.1C9.9-62,7.1-64,10.5-68.8c4.1-5.9,8-3.5,10.8-8.4c2.7-4.7,7.4-6.9,13.1-6.3C39.6-83,40-87,46.6-87
	s7,4.1,12.2,3.5c5.7-0.6,10.4,1.6,13.1,6.3c2.8,4.9,6.7,2.5,10.8,8.4c3.4,4.8,0.6,6.8,4.8,11.1c9,9.3,1.9,23.1-9.4,23.1H58.7
	c-1.8,0-3.3,1.3-3.3,3.8c0,1.7,0.5,3.4,3.1,3.9l15.9,2.7c0.5,0.1,0.9,0.5,0.9,1.1v1.9H18z"/>
<linearGradient id="SVGID_1_" gradientUnits="userSpaceOnUse" x1="58.5017" y1="393.9769" x2="27.2622" y2="355.3977" gradientTransform="matrix(1 0 0 1 0 -430)">
	<stop  offset="0" style="stop-color:#44A035"/>
	<stop  offset="0.22" style="stop-color:#2C9539"/>
	<stop  offset="0.51" style="stop-color:#14893E"/>
	<stop  offset="0.78" style="stop-color:#058241"/>
	<stop  offset="1" style="stop-color:#008043"/>
</linearGradient>
<path class="st2" d="M5.7-57.7c-8.5,8.8-2.6,21.6,7.6,23c17.6-21,48.9-32.2,71.3-30.2l0,0c-0.2-1.1-0.7-2.4-1.8-3.9
	c-4.1-5.9-8-3.5-10.8-8.4C46.9-83.3,24.8-76.6,5.7-57.7z"/>
<linearGradient id="SVGID_00000094593687061198470610000004375936751281719979_" gradientUnits="userSpaceOnUse" x1="57.9754" y1="340.6574" x2="14.6765" y2="392.9988" gradientTransform="matrix(1 0 0 1 0 -430)">
	<stop  offset="0" style="stop-color:#6FAA2C"/>
	<stop  offset="0.36" style="stop-color:#429835"/>
	<stop  offset="0.79" style="stop-color:#12863F"/>
	<stop  offset="1" style="stop-color:#008043"/>
</linearGradient>
<path style="fill:url(#SVGID_00000094593687061198470610000004375936751281719979_);" d="M71.9-77.2c-2.7-4.7-7.4-6.9-13.1-6.3
	C53.6-83,53.2-87,46.6-87s-7,4.1-12.2,3.5C28.7-84,24-81.8,21.3-77.2c-2.8,4.9-6.7,2.5-10.8,8.4C7.1-64,9.9-62,5.7-57.7
	c-2.9,3-4.1,6.5-4.1,9.8c17.8-18.4,48.5-30.7,74.1-25.9v-0.1C74.3-74.4,73-75.2,71.9-77.2z"/>
<g>
	<g>
		<g>
			<g>
				<g>
					<path class="st4" d="M29.8,22c17-7.6,34.3-9.8,47.5-7.1c-1.5-0.7-3-1.8-3.9-3.5C71,7,66.2,4.4,60.7,5c-2.3,0.2-4.5-0.3-6-1.3
						c-2.1-1.4-4.4-2.3-7.2-2.3c-2.8,0-5.1,0.9-7.2,2.3c-1.5,1-3.7,1.6-6,1.3c-5.5-0.6-10.3,2-12.7,6.4c-1.1,2-3,3.2-4.8,3.8
						c-4.4,1.5-8,5.5-8.4,10.6c-0.2,2.4-1.7,4.4-2.7,5.4c-2.9,2.9-4.2,6.4-4.2,9.9c0,0.1,0,0.1,0,0.2C8.8,33.9,18.4,27.1,29.8,22z"
						/>
					<path class="st4" d="M44.8,32c14.5-6.5,29.2-9.1,41.5-8c-1-4.2-4.2-7.4-8.1-8.8h0c-0.3-0.1-0.6-0.2-0.9-0.3
						c-13.3-2.7-30.5-0.5-47.5,7.1c-11.4,5.1-21,11.9-28.2,19.4c0.1,6.9,5.2,12.6,11.9,13.5C20.9,46,31.7,37.9,44.8,32z"/>
					<g>
						<path class="st4" d="M89.4,31.3c-1.1-1.1-2.5-3-2.7-5.4c-0.1-0.6-0.2-1.3-0.3-1.9c-12.2-1.1-27,1.5-41.5,8
							c-13.1,5.9-23.9,14-31.3,22.8c0.6,0.1,1.2,0.1,1.9,0.1h19.8c1.9,0,3.4,1.6,3.4,3.4v0.8c0,3.2-3.1,3.6-3.1,3.6l-16.1,2.8
							c-0.6,0.1-1.1,0.5-1.1,1v2h58.5v-2c0-0.6-0.5-1-1.1-1l-16.1-2.8c0,0-3.1-0.4-3.1-3.6v-0.8c0-1.9,1.5-3.4,3.4-3.4h19.8
							c7.6,0,13.8-6.2,13.8-13.8C93.5,37.7,92.3,34.3,89.4,31.3z"/>
					</g>
				</g>
			</g>
		</g>
		<g>
			<g>
				<g>
					
						<linearGradient id="SVGID_00000003068478338356100570000015580582248352556977_" gradientUnits="userSpaceOnUse" x1="59.1693" y1="-1.3105" x2="15.5044" y2="52.6111">
						<stop  offset="0" style="stop-color:#71BB44"/>
						<stop  offset="0.3707" style="stop-color:#42AB48"/>
						<stop  offset="0.7905" style="stop-color:#129B4C"/>
						<stop  offset="1" style="stop-color:#00954E"/>
					</linearGradient>
					<path style="fill:url(#SVGID_00000003068478338356100570000015580582248352556977_);" d="M29.8,22c17-7.6,34.3-9.8,47.5-7.1
						c-1.5-0.7-3-1.8-3.9-3.5C71,7,66.2,4.4,60.7,5c-2.3,0.2-4.5-0.3-6-1.3c-2.1-1.4-4.4-2.3-7.2-2.3c-2.8,0-5.1,0.9-7.2,2.3
						c-1.5,1-3.7,1.6-6,1.3c-5.5-0.6-10.3,2-12.7,6.4c-1.1,2-3,3.2-4.8,3.8c-4.4,1.5-8,5.5-8.4,10.6c-0.2,2.4-1.7,4.4-2.7,5.4
						c-2.9,2.9-4.2,6.4-4.2,9.9c0,0.1,0,0.1,0,0.2C8.8,33.9,18.4,27.1,29.8,22z"/>
					
						<linearGradient id="SVGID_00000177457556432949713210000013180297358494728093_" gradientUnits="userSpaceOnUse" x1="72.8527" y1="-2.9714" x2="20.7856" y2="61.326">
						<stop  offset="0" style="stop-color:#4FB448"/>
						<stop  offset="0.2826" style="stop-color:#2DA74B"/>
						<stop  offset="0.5523" style="stop-color:#149D4C"/>
						<stop  offset="0.7986" style="stop-color:#05974E"/>
						<stop  offset="1" style="stop-color:#00954E"/>
					</linearGradient>
					<path style="fill:url(#SVGID_00000177457556432949713210000013180297358494728093_);" d="M44.8,32c14.5-6.5,29.2-9.1,41.5-8
						c-1-4.2-4.2-7.4-8.1-8.8h0c-0.3-0.1-0.6-0.2-0.9-0.3c-13.3-2.7-30.5-0.5-47.5,7.1c-11.4,5.1-21,11.9-28.2,19.4
						c0.1,6.9,5.2,12.6,11.9,13.5C20.9,46,31.7,37.9,44.8,32z"/>
					<g>
						<path class="st7" d="M89.4,31.3c-1.1-1.1-2.5-3-2.7-5.4c-0.1-0.6-0.2-1.3-0.3-1.9c-12.2-1.1-27,1.5-41.5,8
							c-13.1,5.9-23.9,14-31.3,22.8c0.6,0.1,1.2,0.1,1.9,0.1h19.8c1.9,0,3.4,1.6,3.4,3.4v0.8c0,3.2-3.1,3.6-3.1,3.6l-16.1,2.8
							c-0.6,0.1-1.1,0.5-1.1,1v2h58.5v-2c0-0.6-0.5-1-1.1-1l-16.1-2.8c0,0-3.1-0.4-3.1-3.6v-0.8c0-1.9,1.5-3.4,3.4-3.4h19.8
							c7.6,0,13.8-6.2,13.8-13.8C93.5,37.7,92.3,34.3,89.4,31.3z"/>
					</g>
				</g>
			</g>
		</g>
	</g>
	<g>
		<g>
			<path class="st0" d="M158.9,12.6h-45.4c-1.5,0-2.8,1.2-2.8,2.8v40.6c0,1.5,1.3,2.8,2.8,2.8h45.4c1.5,0,2.8-1.2,2.8-2.8V15.4
				C161.7,13.8,160.5,12.6,158.9,12.6z M143.9,16h3.9c0.2,1,0.5,2.6,0.8,4.6h-4.6C143.8,18.5,143.8,16.8,143.9,16z M117,16h21.8
				c0,0.9,0.1,2.5,0.3,4.6H117L117,16z M155.3,55.3H117l0-31.3h22.5c0.7,5.1,2.1,11.7,4.8,17.8c-2.3,3.3-5.1,6.4-8.3,8.6
				c-0.3,0.2-0.1,0.5-0.1,0.5l1,2c0,0,0.2,0.4,0.5,0.1c3.4-1.9,6.2-4.5,8.7-7.4c1.7,3,3.7,5.7,6.2,8c0.3,0.3,0.5,0.1,0.5,0.1
				l1.5-1.8c0,0,0.2-0.2,0-0.4c-2.4-2.8-4.2-6-5.7-9.2c1.8-2.5,3.3-5.2,4.6-7.9c0.2-0.4-0.2-0.6-0.2-0.6l-3.3-1.3
				c0,0-0.4-0.2-0.5,0.2c-0.7,1.6-1.5,3.3-2.4,4.9c-1.6-4.9-2.4-9.7-2.8-13.6h8.2c0,0,1.2,0,1.1-1.4c-0.5-2.6-0.9-5.1-1.2-6.6h3
				L155.3,55.3z"/>
			<path class="st0" d="M137.9,45.6v-2.4c0-0.4-0.4-0.3-0.4-0.3c-6.4,1.8-14.1,2.5-17.6,2.6h0c-0.3,0-0.5,0.2-0.5,0.5l0,3.8
				c0,0.3,0.2,0.5,0.5,0.5l0,0h0c0,0,0,0,0,0c3.9-0.2,12.4-1.9,17.6-4.2C137.6,46.1,137.9,46,137.9,45.6z"/>
			<path class="st0" d="M122.2,40.5l12.9,0c1.5,0,2.8-1.2,2.8-2.8v-8c0-1.5-1.2-2.8-2.8-2.8l-12.9,0c-1.5,0-2.8,1.2-2.8,2.8v8
				C119.4,39.3,120.7,40.5,122.2,40.5z M125.6,29.9h6.2l0,7.7l-6.2,0L125.6,29.9z"/>
		</g>
		<path class="st0" d="M224.9,41.2c-3.2-1.5-6.8-3.8-9.5-6.4h9.5c0.3,0,0.5-0.2,0.5-0.5v-2.8c0-0.3-0.2-0.5-0.5-0.5h-32.3
			c1.1-1.5,2.2-2.9,3.2-4.4h23.1c0.3,0,0.5-0.2,0.5-0.5v-2.8c0-0.3-0.2-0.5-0.5-0.5H198c0.9-1.6,1.7-3.1,2.3-4.4H223
			c0.3,0,0.5-0.2,0.5-0.5v-2.8c0-0.3-0.2-0.5-0.5-0.5h-21c0.2-0.6,0.4-1,0.5-1.4c0.2-0.5,0.1-0.9-0.4-1c-1.2-0.3-3.7-0.8-4.5-1
			c-1-0.2-1.2,0.7-1.2,0.7l-0.4,1.3c-0.1,0.4-0.3,0.9-0.5,1.3h-18.7c-0.3,0-0.5,0.2-0.5,0.5v2.8c0,0.3,0.2,0.5,0.5,0.5h17.2
			c-0.6,1.4-1.3,2.9-2.2,4.4h-10.8c-0.3,0-0.5,0.2-0.5,0.5v2.8c0,0.3,0.2,0.5,0.5,0.5h8.6c-0.9,1.5-1.9,3-3,4.4h-11.8
			c-0.3,0-0.5,0.2-0.5,0.5v2.8c0,0.3,0.2,0.5,0.5,0.5h8.5c-2.5,2.6-5.4,4.9-8.5,6.4c-0.8,0.3-0.4,1-0.4,1l0.6,1.5
			c0,0,0.2,0.6,0.9,0.3c2-0.7,3.9-1.7,5.7-2.8c4.1,1,9.1,3.2,10.3,3.8c0.4,0.2,0.5-0.1,0.5-0.1l1.5-3.1c0,0,0.3-0.4-0.2-0.6
			c-1.7-0.7-5.6-1.8-8.6-2.5c1.4-1.2,2.8-2.5,4.1-3.8h20.3c1.2,1.3,2.6,2.5,4.1,3.6c-2.4,1.1-6.3,2-8.5,2.2c-0.3,0-0.4,0.2-0.3,0.5
			c0.4,1.2,0.5,2.2,1,3.5c0.1,0.4,0.3,0.4,0.6,0.3c1.4-0.2,7.7-2.5,10.4-4.4c2.2,1.4,4.6,2.6,6.9,3.4c0.7,0.3,0.9-0.3,0.9-0.3
			l0.6-1.5C225.3,42.3,225.7,41.5,224.9,41.2z M221.3,53.2c-4.7-2.2-10.1-4.1-14.9-5.2c-0.5-0.2-0.5,0.2-0.5,0.2l-0.9,2
			c0,0-0.2,0.4,0.2,0.6c4.7,2,8.8,3.7,13.1,6.3c0.5,0.2,1,0.2,1.3-0.2c0.8-1.2,1.2-1.7,2-2.9C221.6,53.6,221.5,53.3,221.3,53.2z
			 M194.5,49.8c-0.2-1.1-0.2-1-0.4-2.1c0-0.2-0.2-0.4-0.5-0.3c-5.2,2.7-10.3,4-15.9,5.5c-0.3,0.1-0.4,0.4-0.3,0.6
			c0.5,1,1.2,2.7,1.6,3.4c0.1,0.2,0.5,0.4,0.9,0.3c4.6-1.5,10.3-4.4,14.4-6.8C194.6,50.3,194.6,50.1,194.5,49.8z M200.1,37.4h-2.9
			c-0.4,0-0.6,0.3-0.6,0.6v15.1c0,1.4-0.3,2.2-2.6,2.2h-1.3c-0.2,0-0.2,0.2-0.2,0.2v2.4c0,0.4,0.4,0.8,0.8,0.8h2.4
			c5.5,0,7.2-0.7,7.2-5.5l0-13C202.9,38.7,201.7,37.4,200.1,37.4z"/>
		<g>
			<path class="st0" d="M350.7,55.4c-4.4-1.7-8-3.5-10.8-5.4c6.3-5.2,8.4-10.4,8.8-12.1h0c0,0,0,0,0-0.1v0l0,0c0-0.5,0-1.3,0-1.3
				c-0.1-1.2-1-2.1-2.1-2.1h-21.8c-0.3,0-0.5,0.2-0.5,0.5v2.4c0,0.3,0.2,0.5,0.5,0.5h18.4c-0.3,1.4-2,5.2-6.8,9.4
				c-3.4-3-5.3-5.7-6.2-7.6h-5.6c1,2.4,3.4,6.4,8.2,10.3c-2.8,1.9-6.4,3.8-10.8,5.4c-0.4,0.2-0.3,0.6-0.3,0.6l0.8,2.4
				c0,0,0.2,0.4,0.6,0.3c5.5-1.7,9.8-3.9,13.2-6.1c3.4,2.3,7.8,4.4,13.2,6.1c0.5,0.1,0.6-0.3,0.6-0.3L351,56
				C351,56,351.2,55.6,350.7,55.4z"/>
			<path class="st0" d="M320.7,20.5h-20c-0.3,0-0.5,0.2-0.5,0.5v2.4c0,0.3,0.2,0.5,0.5,0.5h20c0.3,0,0.5-0.2,0.5-0.5V21
				C321.2,20.7,321,20.5,320.7,20.5z"/>
			<path class="st0" d="M302.6,37.3c0,0.3,0.2,0.5,0.5,0.5h15.1c0.3,0,0.5-0.2,0.5-0.5v-2.4c0-0.3-0.2-0.5-0.5-0.5h-15.1
				c-0.3,0-0.5,0.2-0.5,0.5V37.3z"/>
			<path class="st0" d="M303.1,30.9h15.1c0.3,0,0.5-0.2,0.5-0.5V28c0-0.3-0.2-0.5-0.5-0.5h-15.1c-0.3,0-0.5,0.2-0.5,0.5v2.4
				C302.6,30.7,302.8,30.9,303.1,30.9z"/>
			<path class="st0" d="M303.1,17h15.1c0.3,0,0.5-0.2,0.5-0.5v-2.4c0-0.3-0.2-0.5-0.5-0.5h-15.1c-0.3,0-0.5,0.2-0.5,0.5v2.4
				C302.6,16.8,302.8,17,303.1,17z"/>
			<path class="st0" d="M324.4,32c0.2,0.2,0.5,0.3,0.7,0.2c0,0,7.6-5,7.6-12.6V17h7.8v8.6c0,2.4,0.5,4,1.5,4.8
				c1,0.8,2.5,1.2,4.5,1.2l3.8,0c0.3,0,0.5-0.2,0.5-0.5v-2.4c0-0.3-0.2-0.5-0.5-0.5h-2c-1,0-1.7-0.2-2-0.5c-0.4-0.3-0.5-1.1-0.5-2.2
				v-8.8h0c0,0,0-0.8,0-0.9c-0.1-1.3-1-2.2-2.1-2.2h-15.5c-0.3,0-0.5,0.2-0.5,0.5v2.2c0,3.8-0.5,6.5-1.2,8.2
				c-0.8,1.9-3.6,4.3-3.6,4.3c-0.2,0.2-0.3,0.5-0.2,0.7L324.4,32z"/>
			<path class="st0" d="M317.5,41.4h-13.3c-1.2,0-2.4,0.7-2.4,2.1c0,1.9,0,12.8,0,12.8c0,1.4,1,2.5,2.1,2.5l13.6,0
				c1.2,0,2.1-1.1,2.1-2.5V43.7C319.6,42.4,318.6,41.4,317.5,41.4z M313.7,55.3l-6,0V44.8l6,0V55.3z"/>
		</g>
		<g>
			<path class="st0" d="M287.7,54.4h-24.1c-10.6,0-14-4.5-14.3-4.9c1.4-2.7,2.5-5.2,3.1-7.4c1-3.1,1.6-7,1.6-11
				c0-0.9-0.6-1.4-1.7-1.4h-7.1l8.2-12.6l-2-2.7h-6.4h-1.4h-4.5c-0.3,0-0.5,0.2-0.5,0.5v2.4c0,0.3,0.2,0.5,0.5,0.5h4.5h1.4h3
				l-8.4,13.1l1.3,2.2h7.9c0.2,0,0.3,0.2,0.3,0.6c0,3.3-1,7.8-2.8,11.5c-1-1.8-3.1-7.7-3.1-7.7c-0.1-0.3-0.4-0.4-0.7-0.3l-3.4,1.2
				c-0.3,0.1-0.5,0.2-0.3,0.7c1,3.3,5,10.6,5,10.6c-1.8,3.8-6.3,5.8-6.3,5.8c-0.2,0.2-0.3,0.5-0.1,0.7l2.1,2.7
				c0.2,0.2,0.5,0.3,0.7,0.1c0,0,2.7-1.8,3.6-2.5c1.4-1.1,2.4-2.2,3-3.2c0,0,5.2,5.5,14,5.5h13.3v0h12.8c0.3,0,0.6-0.1,0.7-0.5
				l0.8-3.3C288.3,54.5,288,54.4,287.7,54.4z"/>
			<path class="st0" d="M282.2,32.1h0.8c1.5,0,2.8-1.2,2.8-2.8V25h2.1c0.3,0,0.5-0.3,0.5-0.6v-2.2c0-0.3-0.2-0.6-0.5-0.6h-2.1v-4.3
				c0-1.5-1.3-2.8-2.8-2.8h-0.8h-9.6v-2.3c0-0.3-0.2-0.5-0.5-0.5h-4.4c-0.3,0-0.5,0.2-0.5,0.5v2.3h-9.2h-0.1c-0.1,0-0.2,0.1-0.3,0.1
				c0,0,0,0,0,0c0,0,0,0,0,0c-0.1,0.1-0.1,0.2-0.1,0.3V15v1.8v0.4c0,0.3,0.2,0.6,0.4,0.6h9.2v3.7h-13.6c-0.3,0-0.5,0.3-0.5,0.6v2.2
				c0,0.3,0.2,0.6,0.5,0.6h13.6v1.6v2.1h-9.2c-0.2,0-0.4,0.3-0.4,0.6v0.4v1.8v0.1c0,0.1,0.1,0.2,0.1,0.3l0,0c0,0,0,0,0,0
				c0.1,0.1,0.2,0.1,0.3,0.1h0.1h9.2v4.2h-10.4c-0.3,0-0.5,0.3-0.5,0.6v2.2c0,0.3,0.2,0.6,0.5,0.6h10.4v3.9h-12.8
				c-0.3,0-0.5,0.3-0.5,0.6v2.2c0,0.3,0.2,0.6,0.5,0.6h12.8v5.5c0,0.4,0.3,0.7,0.6,0.7h2c1.6,0,2.8-1.3,2.8-2.9v-3.3h15.3
				c0.3,0,0.5-0.3,0.5-0.6v-2.2c0-0.3-0.2-0.6-0.5-0.6h-15.3v-3.9h12.6c0.3,0,0.5-0.3,0.5-0.6v-2.2c0-0.3-0.2-0.6-0.5-0.6h-12.6
				v-4.2H282.2z M272.6,17.9h7.8v3.7h-7.8V17.9z M272.6,26.6V25h7.8v3.7h-7.8V26.6z"/>
		</g>
	</g>
</g>
</svg>
