<svg width="141" height="20" viewBox="0 0 141 20" fill="none" xmlns="http://www.w3.org/2000/svg">
<g clip-path="url(#clip0_6_539)">
<path d="M90.1147 8.80717H71.4247V10.7623C71.4247 11.3363 71.4247 10.8341 71.3884 12.4664H90.1328V13.3094H81.2138C81.8483 14.3318 83.226 16.0538 84.0237 16.5381C85.1839 15.9103 86.199 15.0852 87.0873 14.2601L88.6645 15.0673C88.6645 15.0673 87.5043 15.8027 86.6704 16.2691C85.8909 16.6995 84.7125 17.0762 84.7125 17.0762C84.7125 17.0762 85.4014 17.435 87.178 18.2421C89.3352 19.1031 89.9697 19.2825 89.9697 19.2825L89.4621 20C86.616 19.2646 84.5131 18.4933 83.1535 17.722C81.6852 16.8969 79.9086 15.0134 78.9478 13.3094H76.5912V18.4215C78.0958 18.296 80.4706 18.009 82.0296 17.6682V18.4395C79.0929 19.0493 74.9415 19.6592 71.334 20V18.87C72.3855 18.7982 73.1831 18.7085 74.307 18.6009V13.3094H71.3159C71.2615 13.6502 71.1165 14.7982 71.0621 15.1569C70.6814 17.1659 70.1376 18.3856 69.2312 19.9282H67.7266C68.5967 18.7444 68.9049 15.9821 69.0499 14.565C69.1949 13.2018 69.1587 11.9282 69.1587 10.7623V7.98206H90.1328V8.80717H90.1147ZM87.7581 0.41255C87.7581 0.41255 88.175 0.340801 88.5194 0.609859C88.7551 0.789232 88.737 1.36322 88.737 1.36322V6.60089H70.2464V0.41255H87.7762H87.7581ZM86.3441 1.2556H72.603V3.17488H86.3441V1.2556ZM86.3441 4.01793H72.603V5.79372H86.3441V4.01793ZM88.5194 11.1031H72.6755V10.296H88.5194V11.1031Z" fill="white"/>
<path d="M105.723 1.52466V0H108.007V1.52466H113.155C113.155 1.52466 113.608 1.52466 113.826 1.72197C114.062 1.95516 114.044 2.40359 114.044 2.40359V4.89686H115.439V5.72197H114.044V8.7713H108.007V11.5336H114.243V12.3767H108.007V14.9596H115.331V15.7848H108.007V18.7444H115.367V19.7309H105.523C105.523 19.7309 100.81 19.8924 98.9247 18.7982C97.8008 18.1525 96.9669 17.1839 96.9669 17.1839C96.9669 17.1839 96.3505 18.1166 95.9154 18.6188C95.2266 19.3543 94.4471 19.9283 94.4471 19.9283H92.9424C92.9424 19.9283 93.9576 18.9238 94.7009 17.8296C95.2628 16.9686 95.7523 15.9821 95.7523 15.9821C95.7523 15.9821 95.1359 15.1928 94.2477 13.5247C93.5588 12.2332 93.0512 10.9238 93.0512 10.9238H94.6646C94.6646 10.9238 95.0816 11.9462 95.5529 12.843C96.0061 13.722 96.5681 14.4933 96.5681 14.4933C96.5681 14.4933 97.0756 13.9193 97.3657 11.3901C97.5832 9.3991 97.4382 9.13004 97.4926 8.44843H93.1781V7.62332C94.7009 6.06278 96.2418 3.69507 97.4926 1.8296H92.7793V0.986547H99.9943V1.77578C99.0879 4.10762 97.2569 6.43946 96.1149 7.62332H99.9217C99.8492 10.0628 99.5411 12.0179 99.0335 13.4888C98.7797 14.1883 97.7826 16 97.7826 16C97.7826 16 98.6165 17.3632 100.629 18.1704C101.843 18.6547 105.759 18.7444 105.759 18.7444V15.7848H99.7042V14.9596H105.741V12.3767H100.792V11.5336H105.741V8.7713H101.082V7.96413H105.741V5.72197H99.7042V4.89686H105.741V2.33184H101.082V1.52466H105.741H105.723ZM108.007 4.89686H111.759V2.33184H108.007V4.89686ZM108.007 7.96413H111.759V5.72197H108.007V7.96413Z" fill="white"/>
<path d="M123.76 1.29148V2.09866H127.331V2.94171H117.724V2.09866H121.44V0.197311H122.618C122.618 0.197311 123.18 0.161436 123.506 0.376683C123.815 0.573992 123.76 1.29148 123.76 1.29148ZM126.334 12.5022V19.8924L118.539 19.8386V11.6413H125.482C125.482 11.6413 125.863 11.6413 126.117 11.8565C126.334 12.0359 126.334 12.5022 126.334 12.5022ZM126.334 5.3991V6.24215H118.648V5.3991H126.334ZM126.334 9.63229H118.63V8.80718H126.334V9.63229ZM124.068 12.4664H120.824V18.9238H124.068V12.4664ZM137.737 1.5426V5.57848C137.737 6.3139 138.136 6.85202 138.752 6.85202H140.619V7.65919H138.136C137.175 7.65919 136.432 7.47982 135.979 7.13901C135.507 6.81614 135.272 6.36771 135.272 5.52466V1.3991H131.066C131.066 1.3991 131.066 3.92825 130.885 4.55605C130.395 6.27803 129.815 6.86996 128.238 8.25112L127.386 7.55157C128.419 6.54709 128.655 5.36323 128.727 4.71749C128.836 3.35426 128.818 2.85202 128.818 0.591929H136.776C136.776 0.591929 137.248 0.556055 137.519 0.807176C137.755 1.00449 137.719 1.5426 137.719 1.5426M138.045 8.82511H139.314L139.042 9.79372C139.042 9.79372 138.589 11.157 138.245 11.8565C137.229 13.9372 136.414 14.6726 134.982 16.2332C136.396 17.0224 138.807 17.3632 140.982 17.9013L139.514 19.7668C137.139 19.0314 134.8 18.4395 133.404 17.6143C131.99 18.565 130.141 19.1749 127.748 19.8924V19.0673C128.891 18.7085 129.561 18.3857 130.685 17.7399C132.135 16.9148 132.226 16.5202 132.226 16.5202C132.226 16.5202 130.921 15.2825 130.159 14.4036C129.307 13.417 128.165 11.6054 128.165 11.6054H129.217C129.217 11.6054 130.196 12.8969 131.138 13.7578C132.19 14.7265 133.404 15.3543 133.404 15.3543C134.982 13.6682 136.16 11.2646 136.722 9.63229H127.748V8.80718H138.063L138.045 8.82511Z" fill="white"/>
<path d="M65.0251 0.412567H43.3259V1.25562H65.0251V0.412567ZM64.3 2.76234C64.01 2.51122 63.5568 2.56503 63.5568 2.56503H55.0184V5.88342H57.1032V3.42602H58.8072V5.84755H60.8738V3.42602H62.4509V5.90136H64.5357V3.46189C64.5357 3.46189 64.5357 2.95965 64.3181 2.76234M63.1579 9.4888H58.0096V7.62333H64.8439V6.78028H43.6522V12.1256C43.6522 13.1301 43.6703 14.3498 43.5253 15.5157C43.3802 16.6637 42.6914 18.8341 41.9844 19.8745H43.5434C44.3048 18.5112 44.8124 17.9552 45.3743 16.0359C45.61 15.2646 45.8094 13.8475 45.8638 13.0224H47.7128V18.7623C47.0965 18.7803 46.4983 18.7623 45.8638 18.7803V19.8386C50.1057 19.5336 53.3144 19.157 55.0184 18.8341V18.278C53.4594 18.5112 51.7191 18.5471 49.7794 18.6547V15.7668H54.7465V14.9238H49.7794V13.0224H55.8523V18.2242C55.8523 18.6906 56.0155 19.0493 56.4324 19.3543C56.8131 19.6233 57.3388 19.7668 58.0096 19.7668H62.6685C63.5749 19.7668 63.9918 19.5516 64.3544 19.2825C64.7532 19.0314 64.9345 18.2063 65.0976 16.8072L63.6111 16.4843C63.5568 17.5426 63.1761 18.6009 63.031 18.7265C62.886 18.8341 62.6685 18.9058 62.3784 18.9058H58.8253C58.2634 18.9058 58.0096 18.7265 58.0096 18.4036V16.1256C60.6381 15.731 62.6504 15.3901 64.6444 14.7982L63.8649 14.0807C62.2697 14.5112 60.3118 14.9238 58.0096 15.3005V13.0404H64.0825V10.3139M58.0096 10.4036H62.0884V12.2332H58.0096V10.4036ZM49.7976 12.2153H45.9544V10.3857H49.7976V12.2153ZM49.7976 9.50674H45.9544V7.64127H49.7976V9.50674ZM55.8705 12.2153H51.8823V10.3857H55.8705V12.2153ZM55.943 9.50674H51.8823V7.64127H55.943V9.50674ZM64.0825 10.3139C64.0825 10.3139 64.0643 9.86548 63.8649 9.70405C63.5568 9.47086 63.1761 9.4888 63.1761 9.4888M53.2782 5.86548V3.44396C53.2782 3.44396 53.3144 3.0314 53.0606 2.76234C52.7706 2.52916 52.4261 2.56503 52.4261 2.56503H43.6884V5.88342H45.7731V3.42602H47.4409V5.84755H49.5075V3.42602H51.2116V5.90136H53.2782V5.86548Z" fill="white"/>
<path fill-rule="evenodd" clip-rule="evenodd" d="M25.7782 19.3363L37.5434 10.0628L25.7964 0.789246L24.3824 1.90135L34.7154 10.0628L24.3643 18.2242L25.7782 19.3363Z" fill="white"/>
<path fill-rule="evenodd" clip-rule="evenodd" d="M23.5299 17.5605L33.029 10.0628L23.5299 2.56503L22.0615 3.71302L30.1104 10.0628L22.0615 16.4126L23.5299 17.5605Z" fill="white"/>
<path fill-rule="evenodd" clip-rule="evenodd" d="M21.2099 15.7489L28.4067 10.0628L21.2099 4.39462L19.7959 5.50673L25.5787 10.0628L19.7959 14.6188L21.2099 15.7489Z" fill="white"/>
<path fill-rule="evenodd" clip-rule="evenodd" d="M12.6171 0.107635L0 10.0628L12.6171 19.9821H17.8743L5.31152 10.0628L17.9286 0.107635L12.7259 0.125573L12.6171 0.107635Z" fill="white"/>
<path fill-rule="evenodd" clip-rule="evenodd" d="M19.6328 0.107635L7.01562 10.0628L19.5965 19.9821L24.9443 19.9641L12.3271 10.0628L24.9443 0.107635H19.6328Z" fill="white"/>
</g>
<defs>
<clipPath id="clip0_6_539">
<rect width="141" height="20" fill="white"/>
</clipPath>
</defs>
</svg>
