<svg viewBox="0 0 93 20" fill="#000" xmlns="http://www.w3.org/2000/svg">
<path fill="#E26F11" d="M9.7,7.2l0.2,0.1c0.7-0.7,2.6-1,3.8-0.4c0.9,0.5,3.4,0.8,3.7-2.2l-0.1-0.2c-1.6,1.7-2.5,0.8-3.7,0.1
	C12.1,3.8,10.3,3.8,9.7,7.2z M10.5,12.8h-0.2c-0.3,1-1.9,2.1-3.2,2c-1.1-0.1-3.4,0.8-2.3,3.6L5,18.5c0.7-2.3,1.9-1.8,3.3-1.7
	C9.9,16.8,11.5,16.1,10.5,12.8z M8,12.6l-0.1-0.1c-1,0.3-2.8-0.2-3.6-1.3C3.7,10.3,1.6,9,0,11.6v0.2c2.2-0.9,2.5,0.4,3.4,1.5
	C4.4,14.6,6,15.4,8,12.6z M12.2,11l-0.1,0.2c0.5,0.9,0.4,2.8-0.5,3.8c-0.6,0.7-1.5,3,1.4,4l0.2-0.1c-1.3-2-0.2-2.6,0.7-3.6
	C15,14,15.4,12.3,12.2,11z M6.6,10.5v-0.2C5.7,9.8,5,8,5.4,6.7c0.3-1,0-3.5-3-3.1L2.3,3.7c2.1,1.2,1.3,2.2,0.9,3.6
	C2.8,8.9,3.2,10.7,6.6,10.5z M11.9,8.5L12,8.7c1,0.1,2.4,1.4,2.7,2.7c0.2,1.1,1.5,3.2,4,1.5l0.1-0.2c-2.4-0.2-2.1-1.4-2.4-2.8
	C16,8.2,14.9,6.8,11.9,8.5z M7.4,8.1L7.5,8C7.4,7,8.3,5.3,9.6,4.8c1-0.4,2.7-2.2,0.5-4.2H9.9C10.2,3,9,3,7.7,3.6
	C6.2,4.2,5.1,5.5,7.4,8.1z M9.5,11.6c-2.1,0-2.1-3.1,0-3.1C11.5,8.5,11.5,11.6,9.5,11.6z"/>
<path d="M61.1,9.9c0.3-0.3,0.7-0.8,3.1-1.5c0.5-0.1,0.3-1.3-0.4-1c-0.1-0.3-0.4-1.2-1.3-1.1C62.2,6.2,62,6.6,62.1,7
	c0.1,0.2,0.2,0.7,0.1,0.9c-0.2,0.3-1.8,1.4-2.7,1.4C59.1,9.9,60.9,10.6,61.1,9.9z M64.2,10.1c0.1-1.4-1.5-0.5-2.2-0.5
	C61.9,10.7,63.7,10.8,64.2,10.1z M63.6,11c-0.1-0.1-1.4,0.3-1.9,0.1c-0.1,0.5,1.3,1.2,2.4,0.9C64.3,11.7,64.1,11.2,63.6,11L63.6,11z
	 M64.2,13.9c0.7-0.8,0.1-1.3-0.7-1.5c-0.5,0.1-0.9,0.6-1.3,0.8c-0.6,0.5,0.5,0.4,0.7,0.4c0,0-0.4,0.4-0.5,0.5
	c-0.7-1.2-2.1-1.5-0.9,0.2c0.2,0.5,0.1,1,0.2,1.5c0.5,0.8,1.3,0.5,0.9-0.5c0.3-0.2,1.1-0.1,1.5-0.3C64.3,14.7,63.9,14.2,64.2,13.9z
	 M64.6,6.6c0.8,1,0.4,1.9,0.5,3.8c1.6,2.1,0.7-2.5,0.9-3.1C66,7.1,64.6,5.4,64.6,6.6L64.6,6.6z M66.9,7.3c-0.3,0.4-1.4,0.7-0.6,1.1
	c0.3,0.3,0.5,0.2,0.9,0.1c0.4-0.1,0.9,0,1.2-0.2c0.2-0.2,0.1-0.5,0.1-0.8c0-0.2,0.2-0.5,0.3-0.7c0.9-0.7-0.3-1.9-1.1-1.4
	c-0.3,0.6-1,1-1.6,1.3c0,0.5,0.9,0.1,1.1,0.1C67.2,7,67.1,7.1,66.9,7.3L66.9,7.3z M68.3,8.8c-0.1,0.1-1.9,0.9-2.1,0.8
	c0,0.6,1.1,0.7,1.4,0.5c0.6-0.3,2.1,0.1,1.9-0.7C69.1,8.9,68.7,8.5,68.3,8.8L68.3,8.8z M70.9,14.4c-0.7-0.6-2.5-0.6-2.6-1.6
	c0.1-0.5,0.4-1,0.3-1.5c-0.2-0.4-0.8-1-1.2-0.5c0.3,0.2,0,1.7-0.2,1.6c-0.5-0.3-0.7-0.9-1.2-1.2c-0.3-0.2-1.4,0.1-1.1,0.6
	c0.7,0.4,1.3,0.9,1.7,1.7c-0.1,0.3-0.9,0.8-2.1,1.2c-0.3,0.1-0.3,0.2-0.3,0.3c1.5,0.5,2.9-0.3,3.1-0.5c0.7,0.8,1.5,1.5,2.7,1.4
	C71.1,15.9,71.6,15.1,70.9,14.4L70.9,14.4z M73.3,8.6l0.6,0.5C74,9,74.3,8.8,74.5,8.6c0.5,0.7-0.1,1.7,0,2.4
	c1.3,1.9,1.4-1.7,0.9-2.3c-0.3-0.3-0.4-0.5-0.5-0.6c0,0,1-1.4,1-1.5c0.5-0.7-1.2-2.2-1.7-1.7c0,0.1,0.1,0.9-0.1,1.4
	C74.3,6.9,72.3,7.9,73.3,8.6L73.3,8.6z M81.6,11.5c-0.9-0.6-1.9,0.4-3,0c0,0-0.2-0.2-0.2-0.4c0.4-0.1,1.1,0,1.3-0.4
	c0-0.5-0.6-0.8-1.1-0.8c0,0,0-0.1,0.1-0.1c0.9-0.2,0.6-0.8-0.1-1V8.7c0.8-0.2,0.9-0.8,0.1-1.1c0.1-0.2,0.7-0.4,0.9-0.6
	c0.6-0.5-0.5-0.8-0.9-0.7c0.6-0.8-0.2-1.9-1.7-1.8c0.2,0.4,0.4,1.1,0.2,1.3c0.2,0.2,1,0.6,1.4,0.5c-0.7,0.4-1.7,0.9-2.4,1
	c0.2,0.5,0.9,0.5,1.4,0.6l0,0c0,0.3-0.6,0.4-0.8,0.6c0,0.3,0.5,0.3,0.8,0.4c0.2,0.5-0.5,0.3-0.7,0.5C76.6,10,77.1,10,77.4,10
	c0.2,0.7-1.1,0.2-1.2,0.7c0,0.2,0.3,0.3,0.4,0.4c1.2,0.6-0.1,0.5-0.7,0.6l-0.8,0.2c-1.1,0.5-2.5-0.2-3.5-0.1
	c-0.1,0.9,0.7,1.6,1.2,1.5c0.9-0.6,3.8-1,4.4-1.1c-0.1,1.2,0.5,2.3-1.4,1.9c0.1-0.3-0.2-0.8-0.3-0.9l0,0l-0.1-0.1
	c-0.4,0.4-0.8,0.9-1.3,1.1c-0.2,0-0.6,0.2-0.5,0.6c0.2,0.4,1.6,1.4,1.9,0.2c0.1-0.2,0.1-0.3,0.4-0.2c0.6,0.2,1,0.6,1.4,1.1
	c1.6,0.7,1.3-2.6,1.4-3.6c0.5,0,1.6-0.1,2,0.2C82,13,82.9,12.4,81.6,11.5L81.6,11.5z M79.3,13.6L79.3,13.6c-0.1,0,0.5,1.3,0.5,1.5
	c0.1,0.1,0.4,0.4,0.5,0.5c0.5,0.6,1-0.9,0.9-1.3C81.2,14.1,80.3,13.4,79.3,13.6z M49,9.1c1,0,0.1,1.2-0.1,2.7l0.2,0.1
	c0.8-0.6,1-0.7,1.7-2.6c0.1-0.5,0.9-1,0.7-1.4c0-0.3-0.9-0.9-1.3-0.7c-0.3,0.4-1.6,1.1-1.9,1.1l0,0C48,8.7,48.8,9,49,9.1z
	 M54.6,13.8c0-0.1,0-1.5,0-1.5c0.3,0,1.1,0.1,1.5,0.1c0.5,0,0.5-0.4,0.3-0.7c-0.4-0.6-1.2-0.2-1.8-0.2c-0.3-0.7,0.6-0.3,0.9-0.6
	c0.3-0.5-0.6-0.7-0.9-0.6c-0.2-0.5,1-0.4,1-0.8c0-0.4-0.6-0.4-1-0.4c0-0.1,0-0.3-0.1-0.4c0.8-0.1,1.7-0.2,2.3,0
	c0.1,0,0.3-0.1,0.4-0.2c0.1-0.6-0.7-1-1.2-0.9c0.5-0.8-0.6-1.8-1.5-1.3c-0.2-0.6,0.5-1.1-0.1-1.6c-0.9-0.6-1.1-0.9-1.7-0.7
	c-0.2,0.3,0.1,0.5,0.1,1.3c0,0,0.1,1.4,0.1,1.5c-1.1,0-2.4,0.9,0,1c0,0.5-1.2,0.5-1.6,0.7l0,0C51.2,8.9,51.5,9,52,9.3
	c0.2,0,0.7-0.2,0.9-0.2c0.2,0.6-0.5,0.5-1,0.6c-0.6,0.5,0.9,0.6,1,0.6c0.1,0.3-0.2,0.3-0.4,0.3c-1.7,0.1-0.3,0.9,0.4,0.9
	c0,0.1,0.1,0.2,0,0.3c-0.2,0.1-1.3,0.3-1.5,0.2c-0.1,0.6,1.1,0.8,1.5,0.6v0.7c-0.2-0.1-1.8-0.7-2-0.7c0.3-0.9,0.5-1.2-0.7-1.9
	c-0.8,0.2-0.1,0.6-0.3,1.1c0,1.1-1,0.6-1.6,0.9c-0.4,0.6,0.7,0.7,1,1c-0.1,0.2-0.8,1.3-1.6,1.9c0,0-0.1,0.1,0,0.2
	c0.8,0.2,1.3,0.1,3-1.9c0.9-0.1,4.4,2.2,5.1,2.3c0.2,0,3.4-0.2,3.5-2.1C57.6,14.2,54.9,14.1,54.6,13.8L54.6,13.8z M54.5,7.5
	c0-0.1,0-0.2,0-0.3c0.1-0.1,0.2-0.1,0.4-0.2C54.8,7.1,54.6,7.3,54.5,7.5z M92.6,8.4c0.1-0.5,0-1,0.3-1.5l0,0
	c-0.4-1.2-1.2-1.9-2.7-1.7c-1.7,0.1-3.4,0.4-5.1,0.7l0,0.1c0,0.3,0.2,0.5,0.4,0.6c0.8,0.7,1.3,0,2.1-0.2c0,0.1,0,0.2,0,0.3
	c-0.2,0.2-0.5,0.2-0.7,0.4v0.2c0.3,0.1,0.4,0.4,0.8,0.4l0,0c0,0.1,0,0.2,0,0.3c-0.1,0-0.8,0.4-0.8,0.4c0.2,0.4,0.5,0.3,0.8,0.2
	c-0.1,0.2-0.3,0.4-0.5,0.5v0.1l0,0c0.1,0.1,0.2,0.2,0.4,0.2c0,0.1,0,0.2,0,0.2c-0.1,0.1-0.2,0.1-0.3,0.3c-0.3-0.5-0.3-1-0.6-1.4l0,0
	l-0.1-0.1l0,0C86.4,8,86,8.1,85.7,8.1v0.3c0.4,0.4,0.9,0.9,0.9,1.5c0,0.3,0.1,0.6,0.3,0.8c-0.1,0-0.6,0.1-0.6,0.1
	c-0.2,0.4,0.3,0.7,0.6,0.8l-0.1,0.1c-0.3,0.3-1.5,0.4-1.8,0.2c-0.1-0.1,0-0.7,0-1c-0.1-0.6-0.2-1.6-0.1-2.1C84.9,8.5,85,8,85,7.7
	c-0.1-0.5-0.7-1.1-1.2-1.1c-0.1,0.3,0,0.5,0.1,1c0.3,1.5,0.1,3.6,0.2,5.1c-0.2,0.9-0.4,1.7-0.1,2.4c0.2,0.3,0.4,0.5,0.7,0.8h0.2l0,0
	c0.6-0.6,0.3-1.3,0.3-2.1c0-0.3,0.1-0.8,0-1c0.6,0.5,1.3,0.2,1.9-0.1c0.3,0.6,0.6,0.8,0.9,0.7l0,0c0.3-0.3,0.2-0.8,0.1-1.1
	c0.2-0.1,0.6-0.2,0.8-0.2c0.1,0.5,0.2,1,0,1.5l-0.1,0.1h-0.1l0,0h-0.1l0,0c-0.3,0-0.5-0.1-0.8,0c0,0.4,0.4,0.5,0.5,0.8
	c-0.5,0-1,0.1-1.5,0.2s-1-0.2-1.3,0.3c0.4,0.7,1.2,0.7,1.9,0.6c1-0.1,2.2-0.2,3,0.1c0.1-0.1,0.2-0.2,0.3-0.2l0,0l0.2,0.3
	c0.5,1.5,2,0,1.8-1c-0.3-1.8-0.1-3.7-0.2-5.6C92.5,9.1,92.5,8.7,92.6,8.4L92.6,8.4z M87.2,11.6c0.6-0.2,1.2-0.7,1.8-0.7V11
	c-0.1,0-0.1,0-0.2,0c0,0-0.1,0.3-0.1,0.4C88.2,11.4,87.6,11.7,87.2,11.6z M88.7,9.3c-0.1,0-0.1,0.1-0.2,0.1l0,0
	c0.1-0.1,0.2-0.1,0.3-0.2C88.8,9.2,88.7,9.2,88.7,9.3L88.7,9.3z M88.7,8.6C88.7,8.6,88.6,8.6,88.7,8.6c-0.1-0.1-0.1-0.3,0-0.3
	c0.2-0.1,0.3-0.1,0.5-0.1C89.1,8.4,89,8.8,89,8.8C88.9,8.7,88.8,8.7,88.7,8.6L88.7,8.6z M88.8,10.2c-0.1,0-0.2,0.1-0.2,0.1
	c0-0.1,0-0.1,0-0.2c0.1,0,0.1,0,0.2-0.1C88.8,10.1,88.8,10.2,88.8,10.2z M87.5,10.6L87.5,10.6c0,0.1-0.1,0.1-0.1,0.1
	c0-0.2,0-0.4-0.1-0.5C87.5,10.2,87.5,10.3,87.5,10.6L87.5,10.6z M90.7,14.8c-0.2-0.3-0.6-0.5-0.9-0.5c0.1-0.5,0-1.8,0-2.2
	c0.4-0.2,1.1,0.2,1.4-0.1c0.2-0.3-0.2-0.8-0.4-0.9h-0.1c-0.1,0-0.2,0-0.2,0V11l0,0v0.1c-0.2,0-0.4,0.1-0.5,0.1l0,0
	c0.1-0.4,0.1-0.9-0.3-1.1l0,0c0.3-0.6,0.5-1.4,0.9-1.8l0,0c0-0.5-0.4-1.2-1-1.1c-0.2,0.1-0.5,0.2-0.8,0.3l0,0V7.4l0.1-0.1
	c0.3-0.2,0.7-0.6,0.3-0.9c-0.1-0.1-0.3-0.1-0.3-0.2c0-0.1-0.1-0.2-0.1-0.3c3.1-1,3.1,2,2.7,4.2c-0.2,1.4,0.1,2.9-0.1,4.4
	c0,0-0.1,0.1-0.1,0.2c0,0.2-0.2,0.3-0.4,0.5C90.9,15.1,90.8,15,90.7,14.8L90.7,14.8z M26,13.2c0.2-1.1,0.1-1.3-0.6-0.7
	c0-0.3,0-1,0-1.1c0.1-0.2,0.6-0.6,0.8-0.7c0-0.1-0.3-0.6-0.7-0.8c0-0.3,0-0.8,0.2-1.1c0.1-0.4,0-0.8-0.9-1.3
	c-0.1-0.1-1.5-0.5-1.5,0.3c0.4-0.1,0.4,0.2,0.5,1c0,0.4,0.1,1.1,0,1.5c-0.1,0.1-0.8,0.6-1.2,0.8c-0.1,0-0.5,0.2-0.3,0.5l0,0
	c0.1,0,0.9,0.5,1.3,0.7c0,0.1,0.2,1,0,1.3c-0.7,0.9-3,0.4-0.8,2l0,0l0.1,0.1c0.3,0.1,0.9-0.6,1.1-0.8C24.8,14.4,25.6,13.7,26,13.2
	L26,13.2z M35.3,14.8c0,0-2.5-1.4-3.1-2.2c0-0.2,0.3-1.3,0.2-1.9c-0.1-0.5-0.4-1.6-0.5-1.8c0-0.1,0-1,0.5-1.1c0.3,0,0.4-0.4,0.1-0.7
	c0-0.1-0.2-0.6-1.1-0.9c-0.7,0-0.5,0.6-0.1,1.1c0.5,0.6,0,3-0.1,4.1c-0.3-0.5-0.8-1.4-0.8-1.7c0-0.1,0.5-0.9,0.7-1.2
	c0.3-0.3,0.2-1.3-0.9-0.9c-0.1,0.1-0.4,0.3-0.6,0.4C29,6.7,29.5,4.6,27,4.5c-0.5,0.1,0,0.5,0.1,0.8c0.4,0.8,1.5,2.8,1.6,3.2
	c0,0.1,0,0.2-0.2,0.4c-0.4,0.3-1.3,1.4-1.4,1.4c-0.1-0.2,0.1-0.6,0-0.8c-0.2-0.3-1.2-1-1.4-0.4c0,0,1.4,2.2,0.1,4.9
	c0.1,0.1-0.4,0.6-1,0.5c0.3,0.3,0.6,0.9,0.9,1.1c0.7,0,1-0.5,1.3-1.6c0.1,0,1.1,0.7,1.3,0.8c0.8,0.5,1.8-1.4,2.1-2.1
	c0.4,0.7-0.1,1.2-1,2.4c0.3,0,1,0,2-0.9c0.6,0.4,1.7,2.1,3.5,1.7C35.7,15.6,36.2,15.2,35.3,14.8L35.3,14.8z M29.8,10.9h-0.2
	c0-0.1,0.1-0.1,0.1-0.2C29.8,10.7,29.8,10.8,29.8,10.9z M29.4,11.9c0,0.2-0.1,0.7-0.9,1.4c-0.3,0.1-0.9,0.2-1.2,0.1
	c0.3-0.3,1.3-1.5,2-1.6C29.4,11.7,29.4,11.8,29.4,11.9L29.4,11.9z M27.4,10.9c0.2-0.1,1.6-1.2,1.8-1.4c0,0,0,0.1,0,0.2
	c-0.5,0.8-1.4,1.7-1.8,2.1C27.4,11.5,27.4,11.3,27.4,10.9z M39.5,11.2c0.1-0.1,0.3-0.3,0.4-0.4c0.4-0.7-0.2-0.6-0.7-0.2
	c-0.2-0.8,1.2-0.8,0.7-1.5c-0.1-0.2-0.2-0.5-0.4-0.5c-0.7-0.3,0.2-1.1,0-1.6c-0.2-0.4-0.7-0.8-1.1-1c-0.2-0.1-0.9-0.1-0.7,0.4
	c0.1,0,0.1,0,0.2,0c0.3,0.1,0.3,2,0.2,2.6c-0.1,0.1-0.7,0.8-1.7,0.9c-0.8,0.3,1,1.6,1.8,0.8c0.1,0.2,0,0.7,0,0.8
	c-0.1,0.1-1.3,1.1-1.7,1.3c-0.5,0-1.2,0.9-0.5,1.3c1,0.4,1.8,0.9,2.2,1.7c0.1,0.2,0.6,0.3,0.8-0.2c0.8-0.8,0.3-2.7,0.4-3.7
	C39.1,11.6,39.5,11.2,39.5,11.2L39.5,11.2z M38,12.5c-0.1,0.3,0.1,1.3-0.2,1.4c-0.3,0-0.6-0.3-0.8-0.4C37,13.3,37.5,12.8,38,12.5z
	 M46.3,11.8c-1.2-2.1-1.6-1.1-3.5-1.2c0.1-0.1,0.2-0.2,0.2-0.3c1.2,0.7,0.8-1.4,1.1-2.2c0-0.4,0.5-2.1,0.5-2.1
	c0.3-0.6-0.1-0.8-0.1-0.8c-0.2-0.2-0.8-0.9-1.2-0.7l0,0c-0.3,0.2-2,1.1-2,1.2l-0.2,0.1c0.6,0.3,1.4-0.1,1.9-0.3c0.1-0.1,0.3,0,0.3,0
	c0.1,0.8-0.2,2.6-0.4,3.2c-0.3-0.2-0.7,0.2-0.8,0.3l0,0c0-0.4-0.1-0.6,0.4-0.6c0.3,0,0.7-0.2,0.4-0.6c-0.1-0.4-0.5-0.2-0.8-0.2
	c-0.2-0.3,0.4-0.4,0.6-0.5c0.8-0.2,0.2-1.2-0.4-0.8c-0.5,0.3-0.7-0.2-1.1-0.3c-0.3,0-0.9,0-0.8,0.4c0.3,0.3,0.4,0.2,0.6,1.3
	c0.1,0.3,0,1.4,0,1.7c0,0.1-0.5,0.4-0.9,0.5c-0.3,0.4,0.5,0.6,0.8,0.7c-0.3,0.4-1.5,0.8-1.6,1.4c0.4,1.1,1.5,0,2.1-0.3
	c-0.1,0.5-0.7,0.8-1,1.3c-0.2,0.3-0.8,0.8-0.1,0.8c0.9,0,1.5-0.5,1.9-1.2c0.3-0.2,0.6-1.3,0.9-1.1c0,0.3-0.3,0.7-0.5,1
	c-0.6,1.1-1.8,1.7-2.5,2.5c0.9,0.3,1.4,0.2,2.1-0.4c0.2-0.1,0.3,0.2,0.4,0.3c0.8,1.6,2.7-0.4,2.7-0.5C46.2,13.5,47.2,13.3,46.3,11.8
	L46.3,11.8z M44.6,11.1c2.3,0.9,0.2,3.9-1.7,3.3C43.1,13.9,44.7,12,44.6,11.1L44.6,11.1z"/>
</svg>
