<svg width="275" height="66" viewBox="0 0 275 66" fill="none" xmlns="http://www.w3.org/2000/svg">
<path d="M174.02 51.3299C173.74 53.5199 173.27 55.1599 172.61 56.2699C171.44 58.0399 170.11 58.9199 168.63 58.9199H138.72C136.86 58.8799 135.43 58.3999 134.41 57.4599C133.6 56.6999 133.19 55.4499 133.19 54.0999V33.1799C133.19 32.0199 133.58 31.6299 134.35 31.6299H170.04C171.15 31.6299 171.86 32.3399 171.86 33.3799V45.9699C171.86 47.0899 171.25 47.7599 170.04 47.7599H139.02V51.5699C139.05 52.5899 139.17 53.2799 139.39 53.6399C139.76 54.0999 140.19 54.3599 140.69 54.4099H166.73C167.29 54.3899 167.78 54.2399 168.17 54.0099C168.66 53.6699 169.02 53.3099 169.23 52.9099C169.37 52.6099 169.6 51.9299 169.64 51.2999L174.03 51.3399L174.02 51.3299ZM139.01 43.6599H150.21V35.5199H139.52C139.17 35.5199 139.01 35.6799 139.01 36.0199V43.6599ZM154.99 35.5199V43.6599H165.9C166.28 43.6199 166.47 43.4499 166.47 43.1099V36.0099C166.47 35.6699 166.28 35.5099 165.9 35.5099H154.99V35.5199Z" fill="white"/>
<path d="M168.76 17.71H136.05C134.42 17.71 133.08 19.01 133.08 20.62V29.59H171.72V20.62C171.72 19.02 170.39 17.71 168.76 17.71ZM166.24 25.49C166.24 25.61 166.16 25.68 166.01 25.73H139.1L138.92 25.49V21.75C138.88 21.6 138.94 21.53 139.1 21.56H166.01L166.24 21.75V25.49Z" fill="white"/>
<path d="M107.68 30.8201V27.8701H111.13V26.3501H107.68V23.4001H111.13V21.8401L107.68 21.8601V18.9101H111.13V16.7401H114.61V18.9101H117.83V21.8601H114.61V23.4101H117.79V26.3601H114.61V27.8801H117.85V30.8301H114.61V32.4601H118.66C119.12 32.4201 119.35 32.2001 119.35 31.7801V17.5201H124.38V34.2801C124.38 35.4101 123.79 35.9801 122.63 35.9801H85.5C84.33 35.9601 83.74 35.3801 83.74 34.2801V17.5201H88.76V31.7801C88.8 32.2301 89.02 32.4601 89.41 32.4601H93.66V30.8301H90.5V27.8801H93.66V26.3601H90.49V23.4101H93.66V21.8601H90.53V18.9101H93.66V16.5601H96.89V18.9101H99.9V21.8601H96.89V23.4101H99.9V26.3601H96.89V27.8801H99.88V30.8301H96.89V32.4601H101.76V16.5701H105.94V32.4601H111.13V30.8301H107.68V30.8201Z" fill="white"/>
<path d="M115.4 52.3101L114.14 54.5101H125.57V58.6301H82.8199V54.5101H94.5601L93.08 52.3101H98.14L99.7 54.5101H109.26L110.61 52.3101H115.4Z" fill="white"/>
<path d="M124.84 37.8H83.5699V41.37H124.84V37.8Z" fill="white"/>
<path d="M118.96 43.03H89.46C87.87 43.03 86.59 44.21 86.59 45.68V52.44H121.83V45.68C121.83 44.21 120.55 43.03 118.96 43.03ZM116.29 48.62C116.29 48.73 116.22 48.79 116.07 48.83H92.23L92.0601 48.62V46.79C92.0301 46.66 92.1 46.6 92.23 46.63H116.07L116.29 46.79V48.62Z" fill="white"/>
<path d="M243.74 26.1301H231.68V30.2201H243.74V26.1301Z" fill="white"/>
<path d="M240.55 17.6602H235.3V59.4502H240.55V17.6602Z" fill="white"/>
<path d="M229.1 46.8601L232.81 48.5601C232.98 48.1801 237.73 36.9001 238.81 30.5501L234.78 29.8701C233.78 35.6801 229.14 46.7701 229.09 46.8601H229.1Z" fill="white"/>
<path d="M236.46 31.0501C239.06 36.7601 242.67 41.2701 242.82 41.4601L246 38.8901C246 38.8901 242.55 34.5801 240.18 29.3501L236.46 31.0501Z" fill="white"/>
<path d="M246.06 39.6301C246.06 37.1801 247.79 36.7301 249.14 36.7301H256.48V34.8701H244.64V31.0701H251.66V29.2101H246.27V25.4101H251.66V23.5501H245.36V19.7601H251.66V17.3901H256V19.7601H262.06V17.3901H266.39V19.7601H272.96V23.5501H266.39V25.4101H272.04V29.2101H266.39V31.0701H273.88V34.8701H261.55V36.7301H268.46C270.66 36.7301 271.77 37.8201 271.77 39.8701V49.0901H274.04V52.8901H271.77V56.1101C271.73 57.5101 270.94 58.2201 269.57 59.0101C267.62 59.9801 265.45 60.3401 261.14 59.8601L261.19 55.8501C264.26 56.0101 265.12 55.7901 266.07 55.4901C266.86 55.1001 267.25 54.5901 267.25 53.9801V52.9001H250.6V59.3601H246.08V52.9001H243.34V49.1001H246.08V40.4001L246.06 39.6301ZM256.49 40.5301H251.56C250.74 40.5301 250.61 40.9201 250.61 41.5001V42.9501H256.49V40.5301ZM256.49 49.1001V46.7501H250.61V49.1001H256.49ZM262.07 31.0701V29.2101H256.01V31.0701H262.07ZM262.07 25.4201V23.5601H256.01V25.4201H262.07ZM261.56 42.9401H267.25V41.7101C267.25 41.2101 267.32 40.5201 266.19 40.5201H261.56V42.9401ZM267.25 49.0901V46.7401H261.56V49.0901H267.25Z" fill="white"/>
<path d="M194.11 25.99H182.05V30.08H194.11V25.99Z" fill="white"/>
<path d="M190.93 17.51H185.67V59.3H190.93V17.51Z" fill="white"/>
<path d="M179.46 46.7L183.18 48.4C183.35 48.03 188.1 36.74 189.17 30.4L185.13 29.71C184.15 35.52 179.49 46.61 179.45 46.7H179.46Z" fill="white"/>
<path d="M186.82 30.91C189.43 36.62 193.04 41.13 193.2 41.31L196.38 38.75C196.38 38.75 192.93 34.43 190.55 29.22L186.83 30.91H186.82Z" fill="white"/>
<path d="M220.76 45.4701H193.83V41.3801H218.17C217.72 40.2801 217.24 39.1401 217.24 39.1401L221 37.5601L222.97 42.2901C222.97 42.2901 223.65 43.6501 223.09 44.5501C222.52 45.4901 220.75 45.4701 220.75 45.4701H220.76Z" fill="white"/>
<path d="M199.2 42.9001V49.3801C199.2 49.3801 199.4 51.6301 197.98 53.1701C196.93 54.3101 195.2 54.8901 192.82 54.8901V58.9701C196.42 58.9701 199.19 57.9301 201.04 55.8701C203.04 53.6401 203.3 50.8701 203.3 49.6201C203.3 49.3801 203.3 49.2201 203.29 49.1001V42.9001H199.2Z" fill="white"/>
<path d="M199.84 42.9001V49.1101C199.83 49.2201 199.82 49.3801 199.82 49.6201C199.82 50.8701 200.06 53.6401 202.08 55.8701C203.93 57.9401 206.69 58.9701 210.29 58.9701V54.8901C207.91 54.8901 206.18 54.3001 205.14 53.1701C203.73 51.6301 203.91 49.3901 203.91 49.3801V49.2901L203.92 42.9101H199.84V42.9001Z" fill="white"/>
<path d="M210.93 54.7902L212.03 58.7302C218.52 56.9102 220.94 48.4302 221.04 48.0602L217.11 46.9602C216.59 48.8102 214.47 53.8102 210.92 54.7902H210.93Z" fill="white"/>
<path d="M211.88 38.8301H222.36V34.7501H217.49C218.45 33.2701 220.17 30.6401 221.47 28.6401C221.47 28.6401 222.12 27.7601 221.77 26.8301C221.42 25.9501 220.14 25.9901 220.14 25.9901H216.01C217.6 23.2201 220.95 17.6401 220.95 17.6401H216.05L210.25 27.8201C210.25 27.8201 209.6 28.8601 209.95 29.5001C210.26 30.0701 211.06 30.0701 211.06 30.0701H215.65C214.54 31.7601 212.44 34.9901 211.12 37.0201C211.12 37.0201 210.62 37.8101 210.91 38.3601C211.2 38.9201 211.86 38.8201 211.86 38.8201L211.88 38.8301Z" fill="white"/>
<path d="M196.14 38.8301H207.78V34.7501H201.75C202.71 33.2701 204.42 30.6401 205.72 28.6401C205.72 28.6401 206.37 27.7601 206.02 26.8301C205.68 25.9501 204.38 25.9901 204.38 25.9901H200.26C201.84 23.2201 205.2 17.6401 205.2 17.6401H200.32L194.51 27.8201C194.51 27.8201 193.86 28.8601 194.21 29.5001C194.53 30.0701 195.32 30.0701 195.32 30.0701H199.9C198.8 31.7601 196.69 34.9901 195.38 37.0201C195.38 37.0201 194.88 37.8101 195.16 38.3601C195.46 38.9201 196.13 38.8201 196.13 38.8201L196.14 38.8301Z" fill="white"/>
<path d="M213.04 55.1201C215.54 58.2301 218.03 59.5801 220.46 59.1301C222.86 58.6801 224.81 56.4901 225.96 52.9401L222.07 51.6801C221.46 53.5801 220.51 54.9601 219.72 55.1101C219.43 55.1601 218.3 55.1301 216.23 52.5501C209.03 43.6101 210.27 17.6601 210.28 17.4001L206.2 17.3701C206.15 18.5001 204.88 44.9601 213.04 55.1101V55.1201Z" fill="white"/>
<path fill-rule="evenodd" clip-rule="evenodd" d="M17.52 52.18H24.9399V15.52L17.52 23.06V52.17V52.18ZM44.7 7.56001V52.18H52.13V0.0100098L44.7 7.56001Z" fill="#B00005"/>
<path d="M61.76 35.53C64.75 37.91 66.49 40.7 66.49 43.71C66.49 51.16 55.8001 57.38 41.5601 58.88V41.2C40.2401 42.6 38.47 43.59 36.48 43.96V59.2C35.96 59.22 35.44 59.22 34.92 59.22C34.4 59.22 33.8499 59.22 33.3199 59.2V43.96C31.3399 43.61 29.57 42.64 28.24 41.23V58.87C14 57.36 3.33997 51.14 3.33997 43.71C3.33997 40.71 5.07995 37.91 8.06995 35.53C3.17995 38.65 0.25 42.65 0.25 47C0.25 57.01 15.77 65.12 34.92 65.12C54.07 65.12 69.58 57 69.58 47C69.58 42.65 66.65 38.66 61.77 35.53H61.76Z" fill="#007130"/>
<path fill-rule="evenodd" clip-rule="evenodd" d="M41.37 34.9299C41.37 38.5099 38.46 41.4199 34.87 41.4199C31.28 41.4199 28.38 38.5199 28.38 34.9299C28.38 31.3399 31.29 28.4399 34.87 28.4399C38.45 28.4399 41.37 31.3499 41.37 34.9299Z" fill="#B00005"/>
</svg>
