<?xml version="1.0" encoding="utf-8"?>
<!-- Generator: Adobe Illustrator 26.5.0, SVG Export Plug-In . SVG Version: 6.00 Build 0)  -->
<svg version="1.1" id="圖層_1" xmlns="http://www.w3.org/2000/svg" xmlns:xlink="http://www.w3.org/1999/xlink" x="0px" y="0px"
	 viewBox="0 0 471 51" style="enable-background:new 0 0 471 51;" xml:space="preserve">
<style type="text/css">
	.st0{fill:#192E5D;}
	.st1{fill:#221714;}
</style>
<path class="st0" d="M36,24.6H0.9v1.7H36V24.6z M30,43.8l3.8-1.8V28.1H30V43.8z M23.9,46.5l3.8-1.8V28.1h-3.8V46.5z M17.3,49.7
	l3.8-1.8V28.1h-3.8V49.7z M10.3,49l3.8,1.8V28.1h-3.8V49z M3.1,45.6l3.8,1.8V28.1H3.1V45.6z M6.9,7.5L3.1,9.3v13.5h3.8V7.5z
	 M14.1,4.1l-3.8,1.8v17h3.8V4.1z M21.1,0.7l-3.8,1.8v20.3h3.8V0.7z M27.7,1.9l-3.8-1.8v22.7h3.8V1.9z M33.7,4.6L30,2.9v20h3.8V4.6z"
	/>
<path class="st1" d="M76.3,33.7h-9.7V30h7.7c1.5,0,1.4-1.7,1.3-2.8h-5l2.4-4.9h-2.7c-0.5,0-1,0.3-1.2,1l-1.9,3.9h-4.9
	c-0.6-1.5-1.3-3.1-1.6-3.8c-0.3-0.7-0.8-1-1.3-1h-2.8c0.9,1.4,1.6,3.1,2.3,4.9h-4c-1.3,0-0.8,2.1-0.9,2.8h10.4
	c-1.4,0.5-1.4,2.4-1.3,3.7h-8.8c-1.3,0-0.8,2.1-0.9,2.8h9.7v8.2c2,0,3.4,0.2,3.4-1.1c0,0,0-7.1,0-7.1h8.3c0.7,0,1.3-0.6,1.3-1.4
	L76.3,33.7z M66.6,9c-3.7-0.1-3.4-0.1-3.4,3.5H49.1c-1.3,0-0.8,2.1-0.9,2.8h15v3.2H51.8c-1.4,0-2.5,1.1-2.5,2.5v23.7
	c0.9-0.1,3.1,0.4,3-1.1c0,0,0-22.4,0-22.4h25v18.2c-0.1,2.8-2.9,2.6-5,2.5c0,0.9-0.3,2.8,1.1,2.7c3.5,0.4,6.9-1.2,7-5.1
	c0,0,0-18.6,0-18.6c0-1.4-1.1-2.5-2.5-2.5H65.3c1.3-0.5,1.4-2,1.3-3.2h13.6c1.5,0,1.4-1.7,1.4-2.8h-15L66.6,9z M152.5,35.9v-1.8
	l-11.7,1.3c-1.1,0.1-0.5,2.4-0.7,3.1l11.3-1.2C152.1,37.1,152.5,36.5,152.5,35.9z M142.7,32.6h7.2c1.3,0,2.4-1.1,2.4-2.4v-7.1
	c0-1.3-1.1-2.4-2.4-2.4h-7.2c-1.3,0-2.4,1.1-2.4,2.4v7.1C140.3,31.5,141.4,32.6,142.7,32.6z M143.2,23.3h6.2V30h-6.2V23.3z
	 M164.8,10.1c0,0-27,0-27,0c-1.4,0-2.5,1.1-2.5,2.5v28.6c0,3,3.5,3.5,16.3,3.5s15.7-0.8,15.7-3.5c0,0,0-28.6,0-28.6
	C167.3,11.2,166.2,10.1,164.8,10.1z M164.2,40.2c0,1.1-0.7,1.6-12.6,1.6s-13.3-0.5-13.3-1.6V12.8h14.2c0.1,0.8,0.1,1.9,0.2,3.4
	h-12.3c-1.2,0-0.7,1.9-0.8,2.6h13.4c0.4,3.6,1.2,8.4,2.7,13c-1.6,3.8-3.2,7.2-4.3,9h2.3c2.1-0.3,2.4-3.3,3.5-5.1
	c1,1.6,2.2,6,4.6,4.7c0,0,1.2-1,1.2-1s-2.2-1.9-4.2-7.4c1.7-4.2,3.1-8.5,3.7-11.2h-2.2c-0.5,0-0.9,0.3-1,0.8
	c-0.5,1.8-1.1,3.8-1.9,5.9c-0.6-2.4-1.1-5.2-1.4-8.6h5.9c1,0,1.7-1.1,1.3-2c-2.1-3.5-1.1-3.3-5.3-3.2l1.6,2.7h-3.7
	c-0.1-1.2,0-2.8-1.2-3.4h9.7V40.2z M209.5,31.8v-1.2h-19.9c-1.2,0-0.7,1.8-0.8,2.5h10c-0.8,0.3-1.3,1.1-1.3,2v9.6
	c0.9-0.1,3.3,0.5,3.2-1c0,0,0-10.6,0-10.6h7.4C208.9,33.1,209.4,32.5,209.5,31.8L209.5,31.8z M185.2,22.9l2.2-10.5
	c0.2-1.1-0.6-2.2-1.8-2.2h-5.5c-1.3,0-2.3,1-2.3,2.3v32.2c0.8-0.1,3.1,0.5,3-0.9c0,0,0-30.9,0-30.9h3.4L182.4,23
	c0.3,0.4,6.3,12-0.4,10.2c0.1,0.7-0.4,2.5,0.7,2.7C190.6,36.9,187.6,26.6,185.2,22.9L185.2,22.9z M205.4,35.2h-2.7l3.6,7.7
	c0.5,1.3,2.8,0.7,3.8,0.8l-3.4-7.5C206.4,35.6,205.9,35.2,205.4,35.2z M191.4,36.1c-1.1,2.8-3.1,6.1-4.1,7.6h2.6
	c2.4-0.4,3.8-5.6,5.1-8.5C194,35.3,191.8,34.8,191.4,36.1z M187.8,21.3l3.5,2c-1.2,1.5-2.4,2.8-3.5,3.7l1.3,1.3
	c1.7,1.3,3.3-2.3,4.4-3.2v1.7h10.1c1,0,1.4-0.9,1.3-1.8c1.1,1,2.6,4.5,4.3,3.2c0,0,1.3-1.3,1.3-1.3c-1.9-1.5-4-4.2-5.8-7.1
	c3.1,0.6,3.9-3.8,5.2-6.4c0.4-1-0.4-2.1-1.5-2.1H203c-0.8,0-0.5,1.8-0.5,2.4h4.1c-0.3,0.9-1.3,3-2.7,4.8c-4.5-7.9,0.1-7.6-10.1-7.5
	c0.2-0.6,0.4-1.2,0.6-1.8c-0.8,0.1-3.2-0.5-3.4,0.7c-0.8,2.4-1.9,5.2-3.9,8.5C186.5,19.5,186.8,20.7,187.8,21.3L187.8,21.3z
	 M199.1,15.1c1.3,3.3,3,6.4,5.1,9.2c-0.2,0-9.9,0-10.1,0C196.3,21.5,197.9,18.4,199.1,15.1L199.1,15.1z M192.9,13.4h3.9
	c-0.3,1-0.7,2-1.2,3l-3.3-1.5C192.5,14.4,192.7,13.9,192.9,13.4L192.9,13.4z M191.1,17.3l3.2,1.5c-0.5,0.8-1,1.6-1.5,2.4l-2.9-1.8
	C190.3,18.7,190.7,18,191.1,17.3L191.1,17.3z M95.8,17.5h2.6l-3.1-6.1c-0.6-1.5-3-0.8-4.1-1l3.2,6.3C94.7,17.2,95.2,17.5,95.8,17.5z
	 M95.8,26.4h2.6l-3.1-6.2c-0.6-1.5-3-0.8-4.1-1l3.2,6.3C94.7,26,95.2,26.4,95.8,26.4z M95.6,29.2c-0.6,0-1,0.4-1.1,1
	C94.1,35,93.4,40.5,91,44c2,0,3.5,0.2,4-1c1.9-4.4,2.5-9.4,2.9-13.8L95.6,29.2z M118.8,23.7h4.7c1.4,0,1.4-1.5,1.3-2.5h-7.8
	c1.6-0.8,1-3.6,1.1-5h4.2c1.4,0,1.4-1.5,1.3-2.5h-5.5V9.1h-2c-0.6,0-1.1,0.5-1.1,1.1v3.5h-6.8V9.1h-2c-0.6,0-1.1,0.5-1.1,1.1v3.5
	h-4.6c-1.2,0-0.7,1.8-0.8,2.5h5.5v5h-5.9c-1.2,0-0.7,1.8-0.8,2.5h5.7c-0.8,3.4-3.3,7.1-6.6,8.8c2.2,2.9,2.8,2.1,5.1-0.1V41
	c0,1.7,1.1,2.8,2.8,3.1c3.5,0.8,12.5,0.8,16.4,0.1c1.4-0.2,1.1-2,1.1-3c-1.1,0.4-17.5,2-17.3-0.9c0,0,0-10.4,0-10.4h11.5v4.8h-9.5
	c-1.2,0-0.7,1.9-0.8,2.6h11.1c3.1,0,2.1-4.2,2.2-6.1c1.2,1,2.8,4.1,4.6,2.7c0,0,1.2-1.3,1.2-1.3S121.6,29.3,118.8,23.7L118.8,23.7z
	 M108.2,19.2v-3h6.8v5h-7.9C107.8,20.7,108.2,20,108.2,19.2z M105.9,27.3c0.6-1.4,1-2.8,1.2-3.6h8.2c0.4,1,1,2.3,1.9,3.6
	C117.3,27.3,106,27.3,105.9,27.3z M233,10h1.5v34.6H233V10z M272,13.1h13.9v2.1H272v1.5h11v2H258v-2h10.7v-1.5h-13.6v-2.1h13.6v-2
	l4.1,0.2c0,0.3-0.2,0.5-0.8,0.6L272,13.1L272,13.1z M272,38.9v1.6h13.8v2.3h-30.7v-2.3h13.5v-1.6h-10.1v-2h10.1v-1.5
	c-3.6,0.1-7,0.1-9.6,0.1c0,0.2-0.2,0.4-0.5,0.4l-0.9-2.5c1.5,0,3.1,0,5,0c0.5-0.5,1-1.1,1.4-1.6h-5V30h22.4v1.9h-3.4
	c2.1,1,4.1,2.2,5.4,3.2l-2,1.7c-0.6-0.5-1.4-1-2.3-1.6l-7,0.1c-0.1,0-0.2,0-0.3,0.1v1.5h10.7v2L272,38.9L272,38.9z M255.6,31.6v-5.1
	h29.7v5.1h-3.1v-2.9h-23.6v2.9H255.6L255.6,31.6z M259.4,20.1h22v5.2h-22V20.1z M278.2,23.5v-1.7h-15.8v1.7H278.2z M274.4,31.9H268
	c-0.4,0.5-1,1.1-1.7,1.6h10.1c-0.9-0.5-1.7-0.9-2.5-1.2L274.4,31.9L274.4,31.9z M317.4,21.9c0.1,3.7,0.2,6.9,0.5,9.5
	c0.9-2,1.6-4.1,2.2-6.4l3.4,0.9c-0.1,0.3-0.4,0.4-0.8,0.4c-1,3.6-2.4,6.9-4.1,9.8c1.2,5.9,3,6.4,3.1-0.8c0.6,0.6,1.5,1.3,2.2,1.6
	c-0.4,5.7-1.3,6.7-3.6,6.7c-1.8,0-3-1.5-3.9-4.5c-1.4,1.7-2.9,3.2-4.7,4.4c-0.4-0.5-1.4-1.5-2-2c0.2-0.1,0.4-0.3,0.6-0.4
	c-2.6,0.3-5,0.5-6.8,0.7c-0.1,0.2-0.3,0.4-0.5,0.4l-0.7-2.5c-3.7,0.7-7.4,1.4-9.9,1.8c-0.1,0.3-0.3,0.5-0.5,0.6l-1-3.4
	c1.4-0.2,3-0.4,4.9-0.7v-9.4h-4.4v-2.8h4.4v-3.2h-2.9v-0.5l-0.2,0.2c-0.5-0.7-1.5-1.7-2.2-2.1c2.7-2.8,4.6-6.3,5.6-9.1l3.6,0.5
	c-0.1,0.3-0.3,0.5-0.8,0.5c1.6,1.4,3.6,3.2,4.6,4.4l-1.8,2.5c-0.8-1.1-2.5-2.8-4-4.2c-0.8,1.7-1.8,3.4-3,5.1h7v2.7h-3.1v3.2h4v2.8
	h-4v8.9l4-0.6l0.1,2.3c1.3-0.1,2.8-0.1,4.4-0.2v-2h-3.4v-2h3.4v-1.7h-3.9v-2.1h10.6v2.1h-3.9V35h3.5v2h-3.5v1.8l3.2-0.2
	c0.9-0.9,1.7-2,2.5-3.1c-0.6-3.5-0.9-8.1-1.1-13.7h-12.2v-2.6h4.8v-2.6h-3.5v-2.6h3.5v-2.9l3.7,0.2c0,0.3-0.3,0.5-0.8,0.5v2.2h3.4
	v2.6H310v2.6h4.4l-0.1-8.1l3.9,0.2c0,0.3-0.3,0.5-0.8,0.6c0,2.6,0,5.1,0,7.3h6v2.6L317.4,21.9L317.4,21.9z M292.8,36.5
	c-0.1-1.7-0.6-4.2-1.2-6.1l2-0.5c0.7,1.9,1.2,4.4,1.3,6.1L292.8,36.5z M303.2,30.7c-0.1,0.2-0.4,0.4-0.8,0.4
	c-0.4,1.5-1.1,3.8-1.8,5.3c0,0-1.8-0.7-1.8-0.7c0.6-1.6,1.2-4.2,1.6-5.9L303.2,30.7z M303.5,23.3h9.9v6.5h-9.9V23.3z M310.9,27.7
	v-2.3H306v2.3H310.9z M320.4,11.9c1.2,1.7,2.5,3.9,3,5.4l-2.5,1.2c-0.5-1.5-1.7-3.8-2.9-5.5L320.4,11.9z M339,19.6h-11.4v-2.6H339
	V19.6z M359,39.6c0,4.3-2.7,3.7-6.8,3.9c-0.1-0.9-0.5-2.4-0.9-3.2c1.3,0.1,3,0.1,4,0c0.5,0,0.7-0.1,0.7-0.7V15.3h-12.3
	c-0.2,8.9,1,20.1-3.2,28.4c-0.5-0.5-1.8-1.4-2.6-1.8l0.2-0.4h-6.5v1.6H329V31.2h9.1v10.3c3.9-8.3,2.2-20.2,2.6-29H359L359,39.6
	L359,39.6z M338.1,24.3H329v-2.6h9.1V24.3z M329,26.5h9.1V29H329V26.5z M338,14.9h-8.8v-2.6h8.8V14.9z M335.4,33.9h-3.8V39h3.8V33.9
	z M348.4,24.2v-2.9h-3.2v-2.5h3.2v-2.9l3.4,0.2c0,0.2-0.2,0.4-0.8,0.5v2.2h3.3v2.5H351v2.9h3.7v2.5H345v-2.5L348.4,24.2L348.4,24.2z
	 M347.8,38.1v1.3h-2.4V29h8.9v9.1H347.8z M347.8,31.4v4.3h4v-4.3H347.8z M396.4,35.6v3h-14.3v4.9h-3.4v-4.9h-14v-3h14v-2.4h-10.4
	V19.4h10.4v-2.2h-13.1v-3h13.1v-3.1l4.2,0.2c0,0.3-0.3,0.5-0.8,0.6v2.2h13.2v3h-13.2v2.2h10.7v13.9h-10.7v2.4H396.4z M371.6,22.1V25
	h7.2v-2.9H371.6z M371.6,30.5h7.2v-3h-7.2V30.5z M389.5,22.1h-7.4V25h7.4V22.1z M389.5,30.5v-3h-7.4v3H389.5z M433.4,28.2h-14.4
	c-0.4,0.7-0.8,1.4-1.3,2.2c1.8,0.1,13.5-0.2,15,0.2c-0.6,6.3-1.3,11.4-2.2,11.9c-1,1.1-2,1.2-5.7,1.1c0-0.8-0.3-2-0.7-2.7
	c1.8,0,2.8,0.6,3.8-0.2c0.6-0.6,1-2.6,1.4-7.6h-2.3c-1.2,4.1-3.7,8.5-6.5,10.9c-0.5-0.7-1.6-1.4-2.4-1.9c2.6-1.8,4.8-5.4,6.2-9h-2.8
	c-1.8,3.6-5.1,7.4-8.1,9.4c-0.5-0.7-1.4-1.5-2.2-2c2.8-1.5,5.6-4.5,7.4-7.4h-3c-1.4,1.6-2.9,3-4.6,4c-0.5-0.5-1.5-1.5-2.1-1.9
	c1.1-0.7,2.2-1.5,3.2-2.5v0c-3.5,1.7-7.3,3.5-9.7,4.6c0,0.3-0.2,0.5-0.5,0.6l-1.4-3.6c1.2-0.5,2.8-1.1,4.5-1.8V21.7h-3.8v-3.1h3.8
	v-7.4l3.9,0.2c0,0.3-0.2,0.5-0.8,0.5v6.6h3.6v3.1h-3.6v9.4l3.4-1.4c0.1,0.1,0.1,0.3,0.7,2.8c1.3-1.3,2.5-2.8,3.4-4.4h-4.6v-2.8h22.2
	L433.4,28.2L433.4,28.2z M430.9,12.1v11.6h-16.3V12.1H430.9z M427.9,16.7v-2.3h-10.3v2.3H427.9z M427.9,21.3V19h-10.3v2.3H427.9z
	 M469.7,35.3H458c3.1,2.3,8,4.3,12.5,5.1c-0.7,0.7-1.6,1.9-2.1,2.8c-4.6-1.2-9.6-3.7-13-6.8v7.1h-3.3v-7c-3.3,2.9-8.1,5.4-12.7,6.5
	c-0.5-0.8-1.4-2-2-2.7c4.5-0.9,9.3-2.8,12.3-5.2h-11.6v-2.7h14v-2.7l4.1,0.2c0,0.3-0.3,0.5-0.8,0.5v1.9h14.2L469.7,35.3L469.7,35.3z
	 M446.6,26.8l-3.1-0.9c0.9-1,2-2.3,3.1-3.6h-8v-2.6h10c0.8-1.1,1.6-2.1,2.2-3l3.6,1.1c-0.1,0.3-0.4,0.4-0.9,0.3
	c-0.4,0.5-0.8,1.1-1.2,1.6h17v2.6h-6.7c-0.9,1.7-1.9,3.1-3.5,4.3c3.2,0.9,6.2,1.8,8.4,2.6l-2,2.3c-2.3-0.9-5.8-2.1-9.6-3.1
	c-3.3,1.5-8,2.4-15.3,2.9c-0.1-0.8-0.7-1.9-1.1-2.6c5.2-0.3,9-0.8,11.8-1.6c-1.5-0.4-2.9-0.7-4.3-1L446.6,26.8L446.6,26.8z
	 M442.7,16.4v2.5h-3.1v-5.2h12.6v-2.5l4.1,0.2c0,0.3-0.3,0.5-0.8,0.6v1.7h12.9v5.2h-3.2v-2.5H442.7z M448.8,24.1
	c2.1,0.4,4.4,0.9,6.8,1.5c1.6-0.9,2.6-2,3.4-3.4h-8.7L448.8,24.1z"/>
</svg>
