<svg xmlns="http://www.w3.org/2000/svg" viewBox="0 0 93.9 21">
<rect fill="#00B451" width="93.9" height="21"/>
<path fill="#FFF" d="M23.4,11c0.1,0,0.1,0,0.2,0c-0.1,0.4-0.7,0.6-0.6,1c0,0.4-0.7,0.7-0.9,1.1c-0.5,0.5-1.3,0.2-1.4-0.5
	c1-0.3,2.2-1.4,2.8-2.3c-0.9,0.5-2-1.4-1.4-1.9c1.3,0,2.8-1.7,3.8-0.4c0.6,0.2-0.2,0.6-0.2,0.9c-0.4,0.4-0.6,0.9-1,1.3
	c0.2-0.6,1.6,1.2,2.1,1.4c1.4-0.7,0.4-3.1-0.6-3.7c-0.4-0.6,0.5-1.2,0.7-1.7c-0.4,0.2-1.2,1-1.8,0.9c-0.3-0.2-0.9-0.3-1.1-0.7
	c-0.2-0.8-0.7-1.5,0.6-1.1c1.5-0.1,2.8-1.5,4.3-1.4c2.2,0.8-0.9,2.6-1.7,3.5c-1,0.6,1.2,2.3,0.8,3.6c0,0-0.1,0.1-0.1,0.1
	c0,0,0.1,0.1,0.1,0.1c-0.1,0.6-0.3,1.4-0.3,2.1c0.1,0.3-0.5,0.3-0.7,0.5c-0.5,0-0.7-0.5-1.1-0.5c-0.2,0-0.3-0.5-0.3-0.7
	c0.1-0.7-0.5-1.4-0.7-2.1c-0.1-0.5-0.3,0.1-0.5-0.1c0,0,0-0.1,0.1-0.2c0,0,0,0,0,0c-0.3,0.3-0.6,0.6-0.9,0.9c0,0,0,0,0,0
	c0-0.1,0.1-0.1,0.1-0.2c-0.2,0.1-0.2,0.2-0.4,0.4C23.4,11.2,23.4,11.1,23.4,11z M25.5,15.4c0.4-0.5,1.3-0.4,1.8-0.6
	c0.2,0.1,0.2,0.2,0.3-0.1c0.2,0,0.3,0,0.4,0c0,0,0,0.1,0,0.1c0.1,0,0.2,0,0.3,0c0.2-0.3,0.7,0.1,0.9,0c0.7,0.1,2,1.7,2.4,0.9
	c0.2-0.1,0.7,0.2,0.7-0.1c-0.1-0.1,0-0.3,0-0.4c0.3-0.1,0.3-0.4,0-0.4c-2.7-2.4-7.3,0.5-10.6,0c0.1,0.2,0.4,0.2,0.6,0.4
	c0.1,0,0.1,0,0.2,0c0,0,0,0.1-0.1,0.1c1,0.4,2,1.3,2.9,0.3c0,0-0.1-0.1-0.1-0.1C25.3,15.5,25.4,15.4,25.5,15.4z M28.3,14.6
	C28.3,14.6,28.3,14.6,28.3,14.6c0,0-0.1,0-0.1,0c0,0,0,0,0,0C28.2,14.6,28.2,14.6,28.3,14.6z M35.2,10.6c-2.2-0.1-4.5,0.1-6.6-0.7
	c0,0,0,0,0,0c0.1,0.1,0.2,0.1,0.3,0.2c0,0-0.1,0-0.2,0c0.2,0.1,0.4,0.2,0.5,0.4c0,0.1,0.3,0.5,0.4,0.6c0.5,0.6,1,1.6,2,1.5
	c0.5,0.2,1.4,0,1.6-0.5c0.3-0.2,1.1-0.3,1.1-0.7c0.2-0.1,0.2-0.1,0.3-0.3c0.1,0,0.2-0.1,0.3-0.1c0,0,0-0.1-0.1-0.1
	c0.1,0,0.1,0,0.2-0.1c0,0,0-0.1,0-0.1C35.1,10.6,35.2,10.6,35.2,10.6C35.2,10.6,35.2,10.6,35.2,10.6z M31.1,7.7
	c0.4-0.1,0.3-0.4,0.2-0.7c0-1-2.1-0.7-1.8,0C30.2,7.5,27,8.9,28.3,9c0,0.1,0.1,0.1,0.1,0.2c0.6-0.2,1.1-0.6,1.5-1
	C30.3,8.3,30.7,7.8,31.1,7.7z M28.7,9.2C28.7,9.2,28.6,9.3,28.7,9.2C28.6,9.3,28.6,9.3,28.7,9.2C28.7,9.3,28.7,9.3,28.7,9.2
	C28.7,9.2,28.7,9.2,28.7,9.2z M14.3,6.5c0,0,0.1-0.1,0.1-0.1c0,0.2,0.3,0.1,0.2-0.1c0.2-0.2,0.3,0.1,0.5-0.1c0,0-0.1-0.1-0.1-0.1
	c0.2-0.1,0.4-0.1,0.6-0.2c0.2,0.1,0.3,0.1,0.4,0c0.3-0.4,0.9-0.4,1.1-0.9c-0.1-0.3-0.3-0.3-0.6-0.4c-0.8-1.7-3.5,0.5-4.8,0.8
	c-0.4-0.3-0.8-0.4-1.3-0.5c0.5,0.6,0.2,1.1,0.4,1.7C10.2,7,9.5,7.3,9.7,7.9c0.9,2.4-2.2,6.3,0.6,7.5c-0.8,0.5-1.5,0.7-2.4,0.4
	c1.1,2.7,3.7,0.1,5.5-0.2c0.1-0.1,0-0.1-0.1-0.2c0.3-0.1,0.7,0,0.8-0.2c0.2,0,0.4,0,0.6-0.1c0.4,0.1,0.8,0,1.2,0
	c-0.1,0-0.1,0.1-0.1,0.1c0.8,0.1,1.4,0.3,2.1,0.6c0.4,0.1,1.5-0.3,0.8-0.7c0-1.7-6.2,0.4-7.7,0.1c-0.1-0.3,0.4-0.4,0.1-0.6
	c-0.2-0.2-0.1-0.3-0.1-0.5c0.9,1.2,1.9,0.9,3,0.2c0.1,0.1,0.3,0.1,0.3,0.3c0.2,0,0.4,0,0.5-0.1c0.3,0.3,0.6-0.1,0.3-0.4
	c0.5-0.3,1.6-0.2,1.6-0.9c-0.5-0.4-0.9-0.7-1.5-0.6c0-0.1,0-0.2,0-0.3c0.1-0.1,0.3-0.1,0.4,0c0-0.4,0.5-0.1,0.6-0.4
	c0.2-0.1-0.3-0.3-0.3-0.5c-0.1-0.2-0.5-0.1-0.8-0.2c0.3-0.2,1.3-0.3,1.2-0.7c0.1-0.3,0-0.3-0.3-0.4c0.2-0.5-0.7-0.4-1.1-0.6
	c0-0.1,0-0.1,0.1-0.2c0,0.1,0.1,0.1,0.1,0.1c0.2-0.3,0.7-0.6,1.2-0.7c-0.1-0.2-0.3-0.2-0.3-0.4c0.3-0.3-0.4-0.4-0.7-0.4
	c-0.1-0.6,0.5-0.3,0.7-0.7c0.1,0,0.1,0,0.2-0.1c-0.1-0.1-0.1-0.1-0.2-0.1C16.5,5.7,14,7,13.2,7.3c0.1,0.1,0.2,0.2,0.2,0.3
	c0.1,0,0.2,0,0.3,0c0.1,0.2,0.3,0,0.4,0.1c0,0,0,0,0,0.1c0.2,0,0.4,0.1,0.6,0C15,8.6,13.3,8.4,12.9,9c0.6-0.7-0.4-1.5-0.8-0.7
	c0.1,0,0.2,0.1,0.3,0.1C12,9,11.3,9.3,10.8,9.8c0-0.9-0.3-1.7-0.6-2.5c0.3-0.1,0.4-0.3,0.7-0.3c0.2,0.2,0.4,0.3,0.6,0.5
	C12.5,7.3,13.3,6.7,14.3,6.5L14.3,6.5z M11.6,10.8c0.7,0.7-0.6,2.2,0.5,2.8c0.1-0.1,0.2-0.1,0.3-0.2c0.4,0.3,0.3-0.5,0.4-0.7
	c0-0.2,0.2-0.6-0.2-0.6c0-0.1,0-0.1,0-0.2c0.1,0.1,0.1,0.1,0.2,0.1c0.2-0.8,0.2-1.6-0.1-2.4c0.3-0.1,0.6,0.1,1,0.2
	c0.1-0.1,0.1-0.1,0.4-0.2c0.2,0.1,0.4,0.1,0.7,0.1c0.1,0.5-0.3,0.4-0.6,0.6c-0.2-0.1,0-0.4-0.3-0.4c0.1,0.2,0.1,0.3,0.2,0.5
	c-0.3,0.2-0.7,0.4-1,0.6c0.1,0.1,0.1,0.2,0.1,0.3c0.4,0.2,0.6,0.3,1,0.2c0.3,0.5-0.6,0.7-1,0.8c0.5,0.4,1.3-0.3,1.1,0.8
	c-0.7,0.4-2,1.2-3,1c-0.7-1.3-0.4-2.5-0.4-3.9C11.1,10.6,11.1,10.6,11.6,10.8z M12.6,11.6c-0.1-0.3-0.1-0.5,0-0.7
	C12.7,11.5,12.7,11.4,12.6,11.6z M14.3,11.5c0.1-0.1,0.1-0.1,0.2-0.1C14.5,11.6,14.5,11.6,14.3,11.5z M6.5,8.6
	c-1.1,2-3.3,6.3,0.4,6.9c1.3,0.1,0.8-0.7,0.9-1.6c-0.1-0.5,0.4-1,0.2-1.5c0.1-0.3,0-0.5,0-0.8c-0.1,0-0.1,0.1-0.2,0.1
	c0-0.1,0.1-0.2,0.1-0.3c-0.1,0-0.1,0-0.2,0c0-0.1,0.1-0.3,0.1-0.4c-0.1,0-0.1,0.1-0.2,0.1c0.1-0.2,0.1-0.3,0.2-0.4
	c-0.7,0.8-1.3,1.6-2,2.4c-0.4-0.3-0.3-0.7-0.6-0.8c0-0.4,0.2-1.3,0.5-1.5c0,0.2-0.1,0.3-0.1,0.4c0.2-0.3,0.3-0.7,0.6-0.9
	c0,0.1,0.1,0.1,0.1,0.1c0.1-0.1,0.1-0.1,0.1-0.1c0,0,0,0.1,0.1,0.1c0.1-0.2,0.2-0.3,0.2-0.5c0.2,0.1,0.4-0.4,0.6-0.5
	c0.4-0.3,0.9-0.2,1.4-0.3C8.6,9.2,8.5,9.1,8.4,9C8.5,9,8.7,9,8.8,8.9c0-0.2-0.2-0.2-0.3-0.3c0.2-0.5-0.8-0.4-0.9-0.8
	C7.1,7.5,6.4,7.8,6.1,7.3C5.9,7.8,6.3,8.2,6.5,8.6z M7.7,6.1c0,0,0.1,0,0.1,0.1C7.7,6.5,9,6.8,8.2,6.2c0.2-0.1,0.3,0,0.4,0.2
	c-0.1,0-0.1,0.1-0.2,0.1c0.1,0.1,0.1,0.2,0.2,0.2c0.2,0-0.1-0.2,0.1-0.2C8.9,6.6,8.9,6.7,9,6.8c0.1-0.1,0.1-0.1,0-0.2
	C9.1,6.3,9,6.2,8.8,6c0,0,0.1-0.1,0.1-0.1C9.1,6,9.1,6.2,9.3,6.3c0.1-0.1-0.1-0.3,0-0.4c0-0.1-0.2-0.2-0.3-0.2
	C8.9,5.2,8.5,4.9,8.1,4.8C8,4.3,7.2,4.5,6.8,4.4c-1.1,0,0.3,1.1,0.4,1.5C7.4,6,7.6,6.1,7.6,5.8C7.8,5.9,7.8,6,7.7,6.1z M9.4,5.9
	c0.2-0.1-0.1-0.4-0.3-0.3C9.2,5.7,9.3,5.8,9.4,5.9z M5.5,11.7c0,0.1-0.1,0.1,0,0.2C5.5,11.9,5.5,11.8,5.5,11.7
	C5.5,11.7,5.5,11.7,5.5,11.7z M5.4,12.2c-0.1,0-0.1,0.1,0,0.1C5.5,12.3,5.5,12.2,5.4,12.2z M14.1,6.6c0,0-0.1,0.1-0.1,0.1
	C14.1,6.7,14.1,6.7,14.1,6.6z M10.4,7.4C10.5,7.4,10.5,7.4,10.4,7.4C10.5,7.4,10.4,7.4,10.4,7.4C10.4,7.4,10.4,7.4,10.4,7.4z
	 M14.3,6.5C14.3,6.5,14.2,6.6,14.3,6.5C14.2,6.6,14.3,6.6,14.3,6.5C14.3,6.6,14.3,6.6,14.3,6.5C14.3,6.5,14.3,6.5,14.3,6.5z
	 M42.8,5.2c1.2,0.3,0.1-0.5-0.4-0.8c-1.4,0.5-2.4,0.7-3.8,0.9c-0.2-0.1-0.6-0.3-1-0.4c0.2,1.9,0.2,4.6-0.6,6.3l0.2,0.1
	c1.2-1.2,1.3-2.6,1.3-4.2h4.1c-0.2,0.5,0.8,0.3,0.8,0.1V6.5c0-0.1,0.3-0.2,0.3-0.3c0-0.1-0.1-0.2-0.4-0.4c-0.5-0.4-0.6-0.2-0.9,0.2
	h-3.9V5.6C39.4,5.6,41.1,5.6,42.8,5.2z M40.5,7.2c0.1,0.3,0.1,0.6,0.1,0.9c-0.5,0-1.5,0-1.9-0.1l0.1,0.3c0.2,0,0.8,0,1.2,0
	c0,1.4-0.8,2.5-2,2.9l0.1,0.2c1.2-0.4,2.3-0.8,2.6-2.1h1.7c-0.1,0.5-0.2,0.8-0.2,0.9c-0.2,0.3-0.7,0.1-1.2,0l0,0.2
	c0.5,0.2,0.9,0.4,0.9,0.6c0.1,0.4,0.3,0.3,0.6,0.2c0.6-0.4,0.4-0.6,0.7-1.5c0,0,0.1-0.1,0.2-0.1c0.3-0.2,0.2-0.3-0.1-0.5
	c-0.5-0.4-0.5-0.3-0.9,0.1h-1.6c0-0.2,0.1-0.5,0.1-0.8c0,0,2.7,0,2.7,0c0.3-0.1,0.1-0.2-0.2-0.5c-0.2-0.2-0.4-0.3-0.5-0.3
	c0-0.1-0.5,0.7-0.6,0.6h-1c0-0.2-0.1-0.4,0.2-0.5c0.3-0.1,0.2-0.3-0.1-0.3C41.2,7.3,40.8,7.2,40.5,7.2z M38.6,6.9
	C38.6,6.9,38.6,6.9,38.6,6.9V6.1h4.1v0.7H38.6z M46.4,6.4c-0.1,0.2-0.1,0.3-0.2,0.3h-0.1V5.3c0-0.1,0-0.2,0.2-0.2
	c0.7-0.4-0.9-0.4-1-0.5c0.1,0.5,0.1,1.5,0.1,2.1c-0.2,0-0.4,0-0.8-0.1l0.1,0.3c0.3,0,0.5,0,0.7,0v2.7c-0.3,0-0.6,0.1-0.9,0.1
	c0.1,0.2,0.1,0.4,0.2,0.5c0.2,0.4,0.3,0.7,0.4,0.4c0,0,0-0.1,0-0.1c0,0,0-0.1,0.1-0.1c0.7-0.2,1.3-0.6,1.9-1.1l0-0.1
	c-0.3,0.1-0.6,0.2-0.9,0.2V6.9c0,0,0.9,0,0.9,0c0.2-0.1,0.1-0.3-0.1-0.5C46.6,6.1,46.6,5.9,46.4,6.4z M49.9,6.2l-0.5,0.2V5.2
	c0-0.1,0-0.2,0.1-0.2c0.3-0.1,0.3-0.3-0.2-0.3c-0.4-0.1-0.6-0.1-0.9-0.1c0.1,0.6,0.1,1.5,0.1,2.2L48,6.9V5.6c0-0.1,0.1-0.2,0.2-0.2
	C49,5,47.4,5,47.1,4.9c0.1,0.6,0.1,1.7,0.1,2.3c-0.3,0.1-0.6,0.2-0.8,0.2l0.2,0.3c0.2-0.1,0.4-0.2,0.6-0.3c0,0.3,0,2.8,0,3.1
	c0,0.6,0.5,0.7,1.3,0.7c0.9,0,2.2,0,2.6-0.2c0.4-0.2,0.4-0.4,0.1-0.7C51,10,51.1,9.8,51.1,9.2l-0.2,0c-0.3,1.2-0.2,1.4-1.4,1.4
	c-0.6,0-1.4,0.1-1.4-0.3V7.1l0.6-0.2c0,0.8,0,1.9-0.1,2.8c0,0.4,0.9,0.2,0.9,0V9c0.2,0.1,0.3,0.2,0.4,0.5c0.1,0.4,0.2,0.3,0.5,0.2
	c0.2-0.1,0.3-0.2,0.4-0.4c0.1-0.2,0.2-1,0.2-2.4c0-0.1,0.4-0.3,0.4-0.4c0-0.1-0.2-0.2-0.4-0.4c-0.3-0.2-0.5-0.3-0.6-0.1
	C50.1,6,50,6.1,49.9,6.2z M49.4,6.6L50,6.4c0,1.2,0,2,0,2.2c-0.1,0.3-0.3,0.2-0.6,0.2V6.6z M54.9,4.5C55,4.8,55,5.1,55,5.4
	c-0.6,0-2.1,0-2.6-0.1l0.1,0.3c0.5-0.1,3.5,0,4.1,0c-0.3,0.2-0.6,0.4-0.9,0.6c-0.5-0.1-1.2-0.2-2-0.3l0,0.1c0.6,0.2,1.1,0.3,1.5,0.5
	c-0.5,0.2-1,0.4-1.8,0.6l0,0.1c1.1-0.1,1.8-0.3,2.4-0.5c0.3,0.1,0.6,0.4,0.9,0.6h-3.3c-0.2-0.1-0.6-0.2-1-0.4
	c0.2,1.3,0.2,3.2-0.5,4.4l0.1,0.1c1.3-0.9,1.3-2.4,1.2-3.9c0,0,5.3,0,5.3,0c0.3,0,0.1-0.2-0.1-0.4c-0.5-0.4-0.4-0.5-0.8,0
	c-0.1,0.2-0.2,0.2-0.2,0.2h-0.3c0.4-0.4-0.1-0.7-0.6-0.9c0.3-0.1,0.5-0.2,0.7-0.4c0.7,0.1,0.4-0.2-0.1-0.4c0,0,1.3,0,1.3,0
	c0.5,0-0.5-0.9-0.6-0.9c0-0.1-0.5,0.7-0.6,0.6h-1.6c0-0.2-0.1-0.4,0.2-0.5c0.3-0.1,0.2-0.3-0.1-0.3C55.5,4.5,55.2,4.5,54.9,4.5z
	 M54.1,7.7C54,8.5,53.9,9,53.4,9.7l0.1,0.1c0.4-0.3,0.6-0.5,0.9-0.8h1.2v0.9c-0.5,0-1.3,0-1.6-0.1l0.1,0.3c0.2,0,1.1,0,1.5,0V11
	c-0.6,0-2,0-2.5-0.1l0.1,0.3c0.5-0.1,4.7,0,5.3,0c0.5,0-0.5-0.9-0.6-0.9c0-0.1-0.5,0.6-0.6,0.6h-0.9V10c0,0,1.6,0,1.6,0
	c0.3-0.1,0.1-0.2-0.1-0.5c-0.4-0.3-0.3-0.4-0.6,0C57.1,9.7,57,9.8,57,9.8h-0.6V8.9c0,0,1.7,0,1.7,0c0.5,0-0.6-0.8-0.6-0.8
	c0-0.1-0.5,0.5-0.6,0.6h-0.6c0,0,0-0.5,0-0.5c0-0.1,0.2-0.2,0.3-0.3c0.3-0.3-0.8-0.3-1.2-0.3c0.1,0.4,0.1,0.7,0.1,1.1h-1
	c0.2-0.2,0.1-0.4,0.4-0.5c0.3-0.1,0.2-0.3-0.2-0.3C54.6,7.9,54.4,7.8,54.1,7.7z M62.8,4.5c0.1,0.3,0.1,0.6,0.1,0.8H61
	c-0.2-0.1-0.5-0.2-1-0.4c0.1,1.8,0.2,4.5-0.5,6.1l0.1,0.1c1.4-1.5,1.1-3.6,1.2-5.6c0,0,5.3,0,5.3,0c0.3,0,0.1-0.2-0.1-0.4
	c-0.3-0.2-0.4-0.4-0.5-0.4c-0.1,0-0.2,0.1-0.4,0.3C65.1,5.3,65,5.3,65,5.3h-1.4c0-0.2-0.1-0.3,0.2-0.4c0.3-0.1,0.2-0.2-0.1-0.3
	C63.4,4.6,63.1,4.5,62.8,4.5z M62.4,10.1c-0.4,0.5-1.2,0.8-1.9,1.1l0.1,0.1c2.3-0.3,2.1-0.5,2.5-0.5c0.3,0,0.1-0.2-0.1-0.3
	C62.8,10.4,62.6,10.3,62.4,10.1z M60.9,7.6l0.1,0.3c0.5-0.1,4.6,0,5.2,0c0.1,0,0.1,0,0.1-0.1c0-0.1-0.6-0.7-0.7-0.6
	c0-0.1-0.5,0.6-0.5,0.6H62C61.5,7.6,61.2,7.6,60.9,7.6z M61,6.2l0.1,0.3c0.2,0,0.6,0,1,0c0,0.2,0,0.5,0,0.8c0,0.2,0.3,0.1,0.5,0.1
	c0.3-0.1,0.4-0.1,0.3-0.2H64c-0.1,0.3,0.2,0.3,0.4,0.2c0.2,0,0.3-0.1,0.3-0.2V6.5c0,0,1.3,0,1.3,0c0.3-0.1,0.1-0.2-0.1-0.5
	c-0.4-0.3-0.3-0.4-0.6,0c-0.1,0.2-0.2,0.2-0.2,0.2h-0.4c0-0.1,0-0.2,0.2-0.2c0.4-0.1,0.3-0.3-0.2-0.3c-0.3,0-0.6-0.1-0.8-0.1
	C64,5.8,64,6.1,64,6.3h-1.1c0-0.1,0-0.2,0.2-0.2c0.4-0.1,0.3-0.3-0.2-0.3c-0.3,0-0.6-0.1-0.8-0.1c0,0.2,0.1,0.4,0.1,0.6H62
	C61.6,6.3,61.2,6.3,61,6.2z M61.3,8c0.1,0.7,0.1,1.4,0,2.1c0,0.3,0.2,0.2,0.5,0.2c0.3-0.1,0.4-0.1,0.3-0.3h2.6
	c0,0.3,0.2,0.2,0.4,0.2c0.2,0,0.4-0.1,0.4-0.2c0-0.4,0-0.6,0-0.9c0-0.2,0-0.4,0.1-0.5c0.3-0.2,0.1-0.3-0.2-0.5
	C65.1,8,65.1,7.9,64.8,8c-0.1,0.1-0.2,0.2-0.3,0.3h-2.3C62,8.2,61.6,8.1,61.3,8z M62.1,9.1V8.5h0.9v0.5H62.1z M62.1,9.8V9.3h0.9v0.6
	H62.1z M62.9,7V6.5H64V7H62.9z M63.9,8.5h0.9v0.5h-0.9V8.5z M63.9,9.8V9.3h0.9v0.6H63.9z M64,10.3L64,10.4c1.3,0.3,2,1.5,2.3,0.6
	C66.3,10.6,65.7,10.3,64,10.3z M68.6,4.7c-0.2,1-0.4,1.6-0.9,2.4l0.1,0.1c0.5-0.4,0.7-0.7,1-1.1h1.3v1.4c-0.6,0-2.4,0-3-0.1l0.1,0.3
	c0.5-0.1,5.9,0,6.5,0c0.3-0.1,0.1-0.2-0.2-0.6c-0.2-0.2-0.4-0.4-0.5-0.4c0-0.1-0.7,0.8-0.7,0.7H71V6.1c0,0,2,0,2,0
	c0.3,0,0.1-0.2-0.1-0.5c-0.6-0.5-0.5-0.6-1,0c-0.2,0.2-0.2,0.3-0.3,0.3H71V5.1C71,5,71,5,71.2,4.9c0.3-0.1,0.2-0.3-0.1-0.3
	c-0.3-0.1-0.7-0.1-1-0.1c0.1,0.4,0.1,1,0.1,1.5H69c0.1-0.2,0.2-0.3,0.3-0.6c0,0,0.1-0.1,0.2-0.1c0.3-0.1,0.2-0.3-0.1-0.4
	C69.1,4.9,68.8,4.8,68.6,4.7z M68.1,8.4c0.1,0.9,0.1,1.9,0,2.7c0,0.3,0.2,0.2,0.5,0.2c0.4-0.1,0.4-0.2,0.4-0.5h3c0,0,0,0.3,0,0.3
	c0,0.3,0.2,0.2,0.5,0.2c0.3,0,0.4-0.1,0.4-0.2c0-0.7,0-1.2,0-1.8c0-0.1,0-0.2,0.1-0.2c0.3-0.2,0.1-0.3-0.3-0.6
	c-0.4-0.2-0.4-0.3-0.7-0.1c-0.1,0.1-0.2,0.2-0.3,0.4h-2.5C68.8,8.6,68.5,8.5,68.1,8.4z M69,10.6V9h3v1.6H69z M76.3,6
	c-0.3,0.9-1,2-1.7,2.6l0.1,0.2c0.4-0.2,0.7-0.4,0.9-0.6c0,0.9,0,2-0.1,2.9c0,0.3,0.3,0.3,0.5,0.2c0.2-0.1,0.4-0.1,0.4-0.2V8
	c0-0.3,0.6-0.3,0-0.5c0.2-0.2,0.3-0.4,0.5-0.6C77.3,6.8,78,6.8,76.3,6z M76,4.5c-0.2,0.8-0.8,1.7-1.4,2.3l0.1,0.1
	c0.9-0.5,1.3-0.8,1.8-1.6C76.8,5.2,77.6,5.3,76,4.5z M77.3,6.9l0.1,0.3c0.3,0,1.5,0,2,0v2.9c0,0.2-0.1,0.2-0.2,0.2
	c-0.3,0-0.7,0-1.1-0.1l0,0.2c0.6,0.2,0.9,0.4,1,0.7c0.1,0.5,0.4,0.2,0.8,0.1c0.3-0.1,0.4-0.4,0.4-0.9V7.1h1.1c0.5,0-0.6-0.9-0.7-0.9
	c0-0.1-0.6,0.7-0.6,0.7h-1.7C77.9,6.9,77.5,6.9,77.3,6.9z M77.6,5.2l0.1,0.3c0.5-0.1,2.6,0,3.1,0c0.5,0-0.5-0.9-0.6-0.9
	c0-0.1-0.6,0.7-0.6,0.7h-1C78.2,5.3,77.8,5.3,77.6,5.2z M83.2,4.5c-0.2,1-0.6,1.8-1,2.5l0.1,0.1c0.1-0.1,0.3-0.2,0.4-0.3l0.1,0.2
	c0.1,0,0.3,0,0.5,0v0.8c-0.4,0-0.7,0-1-0.1L82.4,8c0.2,0,0.4,0,0.9,0V10c-0.3,0-0.7,0.1-1.1,0.1c0.7,1.7,0.5,0.9,0.8,0.8
	c0.7-0.2,1.5-0.5,2.1-1l0-0.1c-0.3,0.1-0.7,0.1-1.1,0.2V8h1c0.1,0,0.1,0,0.1-0.1c0-0.1-0.5-0.7-0.6-0.6c0,0-0.5,0.6-0.5,0.5V6.9
	c0.3,0,1.2,0.2,0.5-0.4c-0.3-0.3-0.3-0.4-0.6,0c-0.1,0.2-0.2,0.2-0.2,0.2c-0.4,0-0.7,0-0.9,0c0.2-0.2,0.3-0.3,0.5-0.5
	c0.2-0.2,0.4-0.5,0.6-0.9c0.4,0.3,0.6,1.7,1.2,1.2c0.3-0.3,0.1-0.7-0.2-0.9C84.6,5.3,84.4,5.2,84,5C84.4,5,84.5,4.8,83.2,4.5z
	 M82.3,8.3L82.3,8.3c0.1,0.5,0.1,1.1,0.2,1.4c0.4,0.3,0.8-0.5,0.4-0.9C82.7,8.6,82.5,8.5,82.3,8.3z M84.4,8.1
	c-0.1,0.5-0.2,1-0.3,1.5l0.1,0.1c0.3-0.3,0.5-0.6,0.8-1c0,0,0.2,0,0.3-0.1c0,0.5,0,2,0,2.5c0,0.3,0.2,0.3,0.5,0.2
	c0.2-0.1,0.3-0.1,0.3-0.2V9.4h1.7v0.8c0,0.2,0,0.2-0.1,0.2c-0.2,0-0.5,0-0.9-0.1l0,0.1c0.5,0.2,0.7,0.3,0.8,0.6
	c0.1,0.5,0.3,0.3,0.7,0.1c0.2-0.1,0.4-0.3,0.4-0.6V7.6c0-0.1,0.1-0.2,0.2-0.3c0.3-0.2,0.2-0.3-0.2-0.6c-0.4-0.3-0.4-0.4-0.9,0.2
	h-0.4V5.2c0-0.3,1.3-0.4-0.9-0.6c0.1,0.5,0,1.9,0.1,2.4h-0.2c-0.3-0.2-0.7-0.3-1-0.4c0.1,0.5,0.1,1.3,0.1,1.8
	C85.2,8.3,84.6,8.2,84.4,8.1z M85,5.1l-0.1,0.1c0.3,0.3,0.5,0.7,0.6,1c0.1,0.4,0.4,0.5,0.6,0.2c0.3-0.3,0.2-0.7-0.1-0.9
	C85.8,5.4,85.4,5.3,85,5.1z M86,8V7.2h1.7V8H86z M86,9.2V8.2h1.7v0.9H86z M88,4.9c-0.1,0.5-0.3,1.2-0.6,1.6l0.1,0.1
	c0.5-0.3,0.8-0.5,1.1-0.9C88.6,5.7,89.8,5.8,88,4.9z M38,13.3c0.1,0,0.2,0,0.3,0v-0.1h-1.2v0.1c0.1,0,0.2,0,0.3,0
	c0.1,0.1,0.1,0.2,0.1,0.4c0,0.2,0.1,1.9,0,2.1c-0.1,0.1-0.2,0.1-0.3,0.1v0.1h1.2v-0.1c-0.1,0-0.3,0-0.4-0.1c-0.1-0.1,0-0.9,0-1.1
	h1.3c0,0,0,0.8,0,0.8c0,0.3-0.1,0.4-0.4,0.4v0.1h1.2v-0.1c-0.1,0-0.2,0-0.3,0c0,0-0.1-0.1-0.1-0.1c-0.1-0.1,0-1.9,0-2
	c0-0.2,0-0.3,0.1-0.4c0.1,0,0.2,0,0.3,0v-0.1h-1.2v0.1c0.3,0,0.4,0.1,0.4,0.4v0.8h-1.3C37.9,14.2,37.8,13.3,38,13.3z M41.1,14
	L41.1,14c0.2,0.1,0.3,0.1,0.3,0.3v1c-0.3,0.3-0.8,0.4-0.8-0.2V14H40v0.1c0.1,0,0.2,0,0.2,0c0.2,0,0.1,0.9,0.1,1.1
	c-0.1,0.8,0.6,1,1.1,0.3v0.4h0.1l0.6-0.2l0-0.1c-0.1,0-0.2,0.1-0.2,0c-0.1-0.2,0-1.3-0.1-1.6H41.1z M42.7,14l-0.6,0.2l0,0.1
	c0.3-0.1,0.3,0.2,0.3,0.5c0,0,0,0.7,0,0.7c0,0.2,0,0.4-0.3,0.3v0.1h0.9v-0.1c-0.1,0-0.2,0-0.3-0.1C42.8,15.6,42.8,14.1,42.7,14
	L42.7,14z M42.5,13.1c-0.2,0.2,0.1,0.5,0.3,0.3c0.1-0.1,0-0.4-0.1-0.3C42.6,13,42.6,13,42.5,13.1z M46.7,13.1c0,0.1,0,0.1-0.1,0.2
	c-0.1,0.1-0.1,0-0.2,0c-1.4-0.7-2.6,1.1-1.7,2.2c0.5,0.7,1.8,0.7,2.2-0.2l-0.1,0c-0.4,0.7-1.5,0.8-1.8,0c-0.2-0.4-0.1-1,0-1.4
	c0.3-0.9,1.6-0.7,1.8,0.2h0.1L46.7,13.1L46.7,13.1z M47.6,13L47,13.2l0,0.1c0.1,0,0.2-0.1,0.2,0c0.1,0.2,0,1.9,0.1,2.2
	c0,0.2,0,0.2-0.1,0.3c0,0-0.1,0-0.2,0v0.1H48v-0.1c-0.3,0-0.3-0.1-0.3-0.3v-1c0.2-0.2,0.6-0.4,0.7-0.1c0.1,0.2,0,1,0,1.2
	c0,0.1-0.1,0.2-0.3,0.2v0.1h0.9v-0.1c-0.3,0-0.3-0.1-0.3-0.3c0,0,0-0.7,0-0.7c0.1-0.9-0.6-1.1-1.1-0.4L47.6,13L47.6,13z M50.8,14.7
	c0-1.2-1.7-0.9-1.6,0.3c0,1.1,1.4,1.3,1.6,0.2l-0.1,0c-0.3,0.9-1.3,0.3-1.2-0.4H50.8z M50.4,14.6h-0.9C49.5,14,50.4,13.9,50.4,14.6z
	 M51.6,14L51.6,14l-0.6,0.2l0,0.1c0.1,0,0.2-0.1,0.2,0c0.1,0.2,0,0.9,0.1,1.2c0,0.3,0,0.4-0.3,0.3v0.1h0.9v-0.1
	c-0.3,0-0.3-0.1-0.3-0.3v-1c0.2-0.2,0.5-0.4,0.7-0.1c0.1,0.3,0.1,1,0.1,1.3c0,0.1-0.1,0.2-0.3,0.2v0.1H53v-0.1
	c-0.3,0-0.3-0.1-0.3-0.3c0,0,0-0.8,0-0.8c0.1-0.8-0.6-0.9-1.1-0.3V14z M53.5,15.9c-0.1,0.1-0.2,0.2-0.2,0.2
	c-0.1,0.1-0.1,0.2-0.1,0.2c-0.1,0.4,0.5,0.5,0.8,0.5c1.1,0,1.6-1.3,0.1-1.2c-0.2,0-0.5,0-0.4-0.2c0,0,0.1-0.1,0.1-0.1
	c0.6,0.2,1.3-0.4,0.9-1c0.2,0,0.4,0.1,0.4-0.2c0,0,0,0,0,0c0,0-0.4,0-0.5,0c-0.8-0.5-1.7,0.6-0.8,1.1C53.3,15.4,53.1,15.7,53.5,15.9
	z M54.8,16.1c0,0.7-2,0.5-1.2-0.2C53.8,16,54.8,15.8,54.8,16.1z M54,15.2c-0.5,0-0.6-1.1-0.1-1.1C54.5,14.1,54.6,15.2,54,15.2z
	 M57.7,15.8L57.7,15.8l1.1,0.1v-0.1c-0.3,0-0.3-0.1-0.5-0.4l-1-2.3h-0.1c0,0-1,2.3-1,2.3c-0.2,0.3-0.1,0.4-0.5,0.5v0.1h0.9v-0.1
	c-0.6,0-0.1-0.5-0.1-0.8h1.1C57.8,15.2,58.3,15.8,57.7,15.8z M56.8,14.8l0.5-1.1l0.5,1.1H56.8z M60.3,15.9L60.3,15.9l0.6-0.2l0-0.1
	c-0.1,0-0.2,0.1-0.2,0c-0.1-0.2,0-2.3-0.1-2.6h-0.1L60,13.2l0,0.1c0.4-0.2,0.3,0.5,0.3,0.8c-0.6-0.5-1.3,0.3-1.3,0.9
	c-0.1,0.7,0.8,1.2,1.3,0.6V15.9z M59.4,14.9c-0.1-0.7,0.8-1.1,0.9-0.3v1C59.8,16,59.3,15.4,59.4,14.9z M61,14.1c0.1,0,0.1,0,0.1,0
	c0.2,0.1,0.7,1.6,0.8,1.8H62c0.1-0.1,0.7-1.7,0.8-1.8c0,0,0.1,0,0.1,0V14h-0.6v0.1c0.1,0,0.1,0,0.1,0c0,0,0,0,0.1,0
	c0.1,0.1-0.4,1.1-0.5,1.3c0,0-0.4-1-0.4-1c-0.1-0.2,0-0.3,0.2-0.3V14L61,14.1L61,14.1z M64.7,14.7c0-1.2-1.7-0.9-1.6,0.3
	c0,1.1,1.4,1.3,1.6,0.2l-0.1,0c-0.3,0.9-1.3,0.3-1.2-0.4H64.7z M64.3,14.6h-0.9C63.5,14,64.3,13.9,64.3,14.6z M65.4,14l-0.6,0.2
	l0,0.1c0.3-0.1,0.3,0.1,0.3,0.5c0,0.1,0,0.8,0,0.9c0,0,0,0.1-0.1,0.1c0,0-0.1,0-0.2,0v0.1h0.9v-0.1c-0.2,0-0.3-0.1-0.3-0.4v-0.9
	c0.1-0.1,0.1-0.2,0.2-0.3c0.1-0.1,0.2,0.1,0.4,0.1c0.2,0,0.2-0.2,0.1-0.3c-0.3-0.2-0.5,0-0.7,0.3L65.4,14L65.4,14z M66.8,13.4
	c-0.1,0.3-0.3,0.5-0.6,0.7v0.1h0.3c0,0.2,0,1.4,0,1.5c0.2,0.4,0.7,0.2,0.8-0.2h-0.1c-0.1,0.3-0.5,0.2-0.4-0.1v-1.2h0.4V14h-0.4
	L66.8,13.4L66.8,13.4z M68,14l-0.6,0.2l0,0.1c0.1,0,0.2-0.1,0.3,0.1c0,0.2,0,0.9,0,1.1c0,0.2,0,0.4-0.3,0.3v0.1h0.9v-0.1
	c-0.3,0-0.3-0.1-0.3-0.3L68,14L68,14z M68,13.4c0.3,0,0.3-0.4,0-0.4C67.7,13,67.7,13.4,68,13.4z M69.8,14c-0.1,0.2-0.4,0-0.5,0
	c-0.4,0-0.7,0.5-0.5,0.8c0.1,0.1,0.7,0.4,0.8,0.5c0.4,0.7-0.7,0.7-0.8-0.1h-0.1v0.7h0.1c0-0.1,0.1-0.1,0.2,0c0.8,0.3,1.5-0.6,0.6-1
	c-0.1-0.1-0.5-0.2-0.5-0.3c-0.2-0.2,0-0.5,0.3-0.4c0.3,0,0.4,0.2,0.5,0.5h0.1L69.8,14L69.8,14z M70.8,14l-0.6,0.2l0,0.1
	c0.3-0.1,0.3,0.2,0.3,0.5c0,0.1,0,0.8,0,0.9c0,0,0,0.1-0.1,0.1c0,0-0.1,0-0.2,0v0.1h0.9v-0.1c-0.3,0-0.3-0.1-0.3-0.3L70.8,14
	L70.8,14z M70.7,13.4c0.3,0,0.3-0.4,0-0.4C70.5,13,70.5,13.4,70.7,13.4z M71.9,14L71.9,14l-0.6,0.2l0,0.1c0.1,0,0.2,0,0.2,0
	c0.1,0.2,0,0.9,0.1,1.2c0,0.2,0,0.4-0.3,0.3v0.1h0.9v-0.1c-0.2,0-0.2,0-0.3-0.1c0-0.1,0-1.1,0-1.2c0.2-0.2,0.5-0.4,0.7-0.1
	c0.1,0.3,0.1,1,0.1,1.3c0,0.1-0.1,0.2-0.3,0.2v0.1h0.9v-0.1c-0.3,0-0.3-0.1-0.3-0.3c0,0,0-0.8,0-0.8c0.1-0.8-0.6-0.9-1.1-0.3V14z
	 M73.8,15.9c-0.1,0.1-0.2,0.2-0.2,0.2c-0.7,0.8,1.2,0.9,1.5,0.4c0.3-0.3,0.3-0.8-0.2-0.8c-0.1,0-0.8,0-1-0.1c-0.1-0.1,0-0.1,0-0.2
	c0,0,0.1-0.1,0.1-0.1c0.6,0.2,1.3-0.4,0.9-1c0.1,0,0.3,0,0.4,0c0,0,0-0.1,0-0.1c0,0,0,0,0,0c0,0-0.4,0-0.5,0
	c-0.8-0.5-1.7,0.6-0.8,1.1C73.7,15.4,73.5,15.7,73.8,15.9z M75.1,16c0.2,0.1,0.1,0.3-0.1,0.4c-0.4,0.3-1.7,0.1-1-0.5
	C74.1,15.9,74.8,15.9,75.1,16z M74.4,15.2c-0.5,0-0.6-1.1-0.1-1.1C74.8,14.1,74.9,15.2,74.4,15.2z M78.1,15.8L78.1,15.8l1.1,0.1
	v-0.1c-0.3,0-0.3-0.1-0.5-0.4l-1-2.3h-0.1c0,0-1,2.3-1,2.3c-0.2,0.3-0.1,0.4-0.5,0.5v0.1h0.9v-0.1c-0.6,0-0.1-0.5-0.1-0.8h1.1
	C78.2,15.2,78.6,15.8,78.1,15.8z M77.1,14.8l0.5-1.1l0.5,1.1H77.1z M79.7,15.9c-0.1,0.1-0.2,0.2-0.2,0.2c-0.7,0.8,1.2,0.9,1.5,0.4
	c0.3-0.3,0.3-0.8-0.2-0.8c-0.1,0-0.8,0-1-0.1c-0.1-0.1,0-0.2,0.1-0.3c0.6,0.2,1.3-0.4,0.9-1c0.1,0,0.3,0,0.4,0c0,0,0-0.1,0-0.1
	c0,0,0,0,0,0c0,0-0.4,0-0.5,0c-0.8-0.5-1.7,0.6-0.8,1.1C79.6,15.4,79.3,15.7,79.7,15.9z M81,16.1c0,0.7-2,0.5-1.2-0.2
	C80,16,81,15.8,81,16.1z M80.2,15.2c-0.5,0-0.6-1.1-0.1-1.1C80.7,14.1,80.8,15.2,80.2,15.2z M83,14.7c0-1.2-1.6-0.9-1.6,0.3
	c0,1.2,1.4,1.3,1.6,0.2l-0.1,0c-0.3,0.9-1.3,0.3-1.2-0.4H83z M82.6,14.6h-0.9C81.7,14,82.6,13.9,82.6,14.6z M83.8,14L83.8,14
	l-0.6,0.2l0,0.1c0.3-0.1,0.3,0.2,0.3,0.5c0,0,0,0.7,0,0.7c0,0.2,0,0.4-0.3,0.3v0.1h0.9v-0.1c-0.3,0-0.3-0.1-0.3-0.3v-1
	c0.2-0.2,0.5-0.4,0.7-0.1c0.1,0.3,0.1,1,0.1,1.3c0,0.1-0.1,0.2-0.3,0.2v0.1h0.9v-0.1c-0.3,0-0.3-0.1-0.3-0.3c0,0,0-0.8,0-0.8
	c0.1-0.8-0.6-0.9-1.1-0.3V14z M86.8,15.1c-0.3,0.9-1.2,0.4-1.2-0.4c-0.1-0.6,0.6-1,0.8-0.4c0,0.2,0.2,0.3,0.4,0.2
	c0.2-0.3-0.3-0.6-0.6-0.6c-0.8,0-1.1,1.2-0.6,1.7C86,16.2,86.8,15.8,86.8,15.1L86.8,15.1z M87.1,14.1c0.1,0,0.1,0,0.1,0.1
	c0.2,0.1,0.7,1.4,0.8,1.6c-0.1,0.2-0.2,0.6-0.4,0.6c-0.1,0-0.3-0.1-0.4,0c-0.2,0.4,0.3,0.5,0.6,0.2c0.4-0.3,0.9-2,1.1-2.4
	c0.1-0.1,0.1-0.1,0.2-0.1V14h-0.6v0.1c0.1,0,0.1,0,0.2,0c0.1,0.1-0.4,1.1-0.4,1.2c0,0-0.5-0.9-0.5-0.9c-0.1-0.2-0.1-0.4,0.2-0.4V14
	L87.1,14.1L87.1,14.1z"/>
</svg>
