<svg width="691" height="23" viewBox="0 0 691 23" fill="#A77C22" xmlns="http://www.w3.org/2000/svg">
<path d="M11.6,5.3C8.4,1.8,2.9,2.4,2.9,5.5c0,4.4,9.5,4.4,9.5,11.4c0,6.1-7.3,7.9-12.4,4.1v-4.1
	c3.1,4.5,9.4,4.2,9.4,0.3C9.5,12.6,0,12.4,0,6c0-6.4,7.9-7.2,11.6-4.4 M71,0.3h3.2v19.5h9.9v2.9H71 M164.9,11.6
	c0.1,15.2-23.7,15.3-23.8,0.1C141-3.8,164.8-3.9,164.9,11.6z M144.4,11.6c0,11.3,17.2,11.2,17.2-0.1C161.6,0.2,144.4,0.3,144.4,11.6
	z M253.8,0.3l-8.9,22.6h-0.7L237,4.6l-7.3,18.2H229l-8.9-22.6 M238.5,0.3l6.2,15.5l6-15.5 M223.3,0.3l6.1,15.5l6.1-15.5 M319.2,0.3
	h3.2v19.5h9.9v2.9h-13.1 M390.2,0.3h3.2v22.4h-3.2 M470.5,0.3l-9.3,22.6h-0.7l-9.5-22.6 M454.1,0.3l6.7,15.8l6.6-15.8 M528.1,0.3
	h3.2v22.4h-3.2 M608.8,17.7V0.3h0h3v22.4h-2.7L594.3,5.5v17.3h-3V0.3h2.6 M691,21.2c-8,3.9-20.2,1.4-20.2-9.5
	c0-11,11.8-14.1,19.7-9.8v3.3c-7.1-4.6-16.4-2.2-16.4,6.4c0,7.3,7.4,10.5,13.7,7.7v-4.7h-4.3v-2.9h7.4"/>
</svg>
