<svg width="117" height="111" viewBox="0 0 117 111" fill="#000" xmlns="http://www.w3.org/2000/svg">
<path d="M63.6,4c0,0,12,24.3,12,24.3c1.8,3.5,4.7,5.7,8.6,6.3l26.8,4c4.6,0.5,6.6,6.7,3.2,9.8c0,0-19.4,19-19.4,19c-2.8,2.8-4,6.3-3.3,10.1l4.5,26.8c0.9,4.6-4.3,8.4-8.3,6.1c0,0-24-12.6-24-12.6c-3.5-1.8-7.1-1.8-10.6,0l-24.1,12.6c-4,2.3-9.3-1.5-8.3-6.1c0,0,4.5-26.8,4.5-26.8c0.7-3.9-0.5-7.4-3.3-10.1l-19.4-19c-3.4-3.1-1.4-9.3,3.2-9.8c0,0,26.8-4,26.8-4c3.9-0.6,6.9-2.7,8.7-6.3L53.3,4C55.1-0.2,61.7-0.2,63.6,4z"/>
</svg>
