<?xml version="1.0" encoding="UTF-8"?><svg id="_圖層_2" xmlns="http://www.w3.org/2000/svg" viewBox="0 0 80.45 9"><defs><style>.cls-1{fill:#fff;}</style></defs><g id="_圖層_2-2"><g><path class="cls-1" d="M0,4.4c.23-.64,.41-1.71,.47-2.5l.69,.1c-.04,.82-.2,1.93-.44,2.65l-.72-.25Zm2.86-.7c-.11-.46-.37-1.2-.63-1.79v7.04h-.88V.03h.88V1.85l.59-.24c.29,.57,.58,1.33,.69,1.79l-.65,.31Zm4.97,4.3c.18,0,.22-.16,.25-1.17,.17,.15,.52,.3,.75,.35-.09,1.29-.29,1.63-.9,1.63h-.78c-.74,0-.91-.26-.91-1.11v-2.59h-.73c-.15,1.86-.56,3.11-2.47,3.82-.1-.21-.32-.54-.51-.7,1.66-.56,1.96-1.59,2.07-3.12h-1.07V1.95h1.15c-.14-.44-.49-1.11-.8-1.6l.77-.28c.35,.5,.73,1.18,.89,1.63l-.64,.25h1.35c.3-.55,.64-1.34,.82-1.93l.93,.27c-.26,.57-.54,1.18-.82,1.66h1.06v3.18h-1.16v2.59c0,.25,.03,.29,.21,.29h.54Zm-3.43-3.68h2.93v-1.58h-2.93v1.58Z"/><path class="cls-1" d="M12.37,5.04c-.3,.1-.62,.19-.92,.29v2.57c0,.48-.1,.73-.36,.87-.27,.15-.68,.17-1.31,.17-.03-.23-.14-.62-.26-.87,.4,0,.79,0,.91,0s.17-.05,.17-.18v-2.3l-1.19,.35-.19-.88c.38-.09,.85-.21,1.38-.36v-1.94h-1.21v-.84h1.21V.04h.85V1.92h.87v.84h-.87v1.71l.82-.23,.1,.81Zm2.01-.29c-.1,.21-.22,.4-.35,.59h3.73s-.01,.22-.03,.33c-.1,1.93-.23,2.69-.48,2.97-.15,.19-.32,.25-.57,.28-.22,.02-.6,.02-1,0,0-.23-.09-.56-.22-.77,.36,.04,.71,.05,.84,.05s.22-.02,.29-.11c.13-.16,.24-.7,.33-2.06h-.5c-.43,1.19-1.11,2.22-1.88,2.9-.13-.13-.44-.36-.62-.47,.73-.57,1.33-1.44,1.72-2.43h-.67c-.58,1.08-1.45,2-2.33,2.63-.12-.15-.4-.41-.57-.53,.82-.51,1.57-1.25,2.08-2.11h-.66c-.31,.36-.65,.68-.99,.94-.12-.13-.41-.39-.58-.51,.63-.41,1.22-1.03,1.64-1.73h-1.11v-.75h5.62v.75h-3.69Zm3-1.27h-4.32V.32h4.32V3.47Zm-.83-2.52h-2.68v.64h2.68V.95Zm0,1.23h-2.68v.65h2.68v-.65Z"/><path class="cls-1" d="M26.92,.46V8.98h-.88v-.43h-6.22v.43h-.84V.46h7.93Zm-.88,7.28V1.27h-6.22V7.74h6.22Zm-.7-4.15c-.23,.88-.58,1.65-1.02,2.3,.16,.42,.37,.68,.62,.73,.12,.04,.2-.36,.26-.96,.14,.15,.41,.34,.56,.43-.13,1.11-.53,1.49-1.08,1.26-.35-.1-.64-.38-.87-.81-.33,.37-.71,.7-1.13,.97-.1-.14-.35-.43-.49-.55,.26-.16,.5-.33,.73-.53-.93,.16-1.89,.34-2.65,.48l-.1-.68c.69-.1,1.73-.26,2.76-.43l.02,.6c.21-.18,.4-.39,.57-.61-.23-.74-.37-1.68-.47-2.71h-2.79v-.67h2.73c-.02-.31-.04-.62-.06-.93h.73c0,.31,.03,.63,.05,.93h1.34c-.19-.22-.6-.49-.94-.67l.41-.42c.34,.17,.76,.43,.97,.64l-.42,.45h.58v.67h-1.88c.07,.7,.16,1.36,.28,1.9,.25-.47,.45-.98,.59-1.55l.7,.15Zm-2.68,0v1.87h-2.1v-1.87h2.1Zm-.62,.51h-.89v.84h.89v-.84Z"/><path class="cls-1" d="M30.92,.7c-.26,.81-.57,1.77-.85,2.55,.6,.78,.74,1.48,.74,2.05s-.11,.97-.38,1.19c-.13,.1-.29,.16-.49,.18-.16,.02-.39,.03-.6,0,0-.2-.07-.54-.19-.75,.18,0,.33,.02,.47,0,.1,0,.19-.03,.27-.09,.12-.1,.18-.35,.18-.64,0-.49-.14-1.15-.73-1.88,.23-.65,.46-1.46,.62-2.1h-.98v7.69h-.76V.42h2.04l.12-.03,.56,.31Zm1.1,2.57c.12-.16,.23-.34,.33-.52-.2-.2-.48-.47-.75-.68-.21,.28-.42,.52-.65,.75-.11-.13-.39-.35-.55-.46,.65-.55,1.17-1.41,1.45-2.31l.68,.16c-.07,.19-.14,.38-.22,.56h.86l.12-.03,.46,.17-.05,.2,.47-.12v-.44h1.65l.15-.04,.49,.29c-.28,.8-.73,1.65-1.21,2.23,.38,.57,.86,1.06,1.39,1.36-.18,.15-.42,.43-.51,.63-.41-.26-.78-.62-1.1-1.03v.57h-2.84v-.42c-.31,.34-.65,.64-.99,.86-.1-.17-.3-.42-.46-.55,.42-.24,.82-.61,1.17-1.06-.44,.08-.82,.15-1.22,.2l-.1-.57c.4-.04,.85-.1,1.39-.16l.02,.4Zm.59,3.52c-.36,.6-.89,1.32-1.3,1.77-.17-.14-.5-.36-.7-.47,.43-.42,.9-1.04,1.21-1.57l.8,.27Zm1.46-.69v2.84h-.84v-2.84h-1.94v-.74h4.71v.74h-1.93Zm-2.05-4.72c-.04,.07-.08,.14-.11,.2,.25,.18,.51,.41,.74,.6,.11-.25,.21-.53,.29-.81h-.92Zm2.91,2.47c-.53-.74-.95-1.65-1.23-2.64-.27,1.05-.71,1.93-1.25,2.64h2.48Zm-.52-2.66c.13,.41,.29,.81,.48,1.19,.24-.35,.46-.79,.63-1.19h-1.1Zm.89,5.25c.44,.49,1.05,1.19,1.33,1.6l-.67,.46c-.28-.42-.86-1.15-1.3-1.66l.65-.4Z"/><path class="cls-1" d="M40.3,5.41c-.54-.01-.92-.45-.93-.92,0-.52,.35-.98,.92-.98s.91,.47,.91,.98-.33,.91-.9,.92Z"/><path class="cls-1" d="M52.64,7.57v.91h-8.51v-.91h3.47V.17h.95V3.05h3.43v.9h-3.43v3.62h4.09Z"/><path class="cls-1" d="M59.8,4.9c-.11,.18-.21,.36-.31,.52h2.25v.69h-5.89c-.02,.19-.05,.39-.08,.56h1.8s0,.19-.02,.3c-.1,1.01-.2,1.48-.39,1.67-.15,.16-.32,.21-.55,.22-.21,.02-.58,.02-.98,0-.02-.2-.09-.49-.19-.67,.33,.04,.67,.05,.79,.04,.13,0,.21,0,.27-.07,.08-.1,.16-.33,.22-.84h-1.1c-.28,.76-.81,1.29-1.92,1.64-.08-.19-.27-.47-.42-.6,.81-.23,1.25-.57,1.51-1.04h-1.14v-.66h1.35c.04-.17,.07-.37,.09-.56h-1.56v-.69h2.35c-.08-.18-.2-.4-.32-.54l.53-.09h-1.59v-1.86h6.34v1.86h-1.65l.61,.12Zm2-4.26v.68h-3.75v.5h3.09v.65h-6.96v-.65h2.99v-.5h-3.64V.64h3.64V.03h.88V.64h3.75Zm-6.5,3.53h4.67v-.64h-4.67v.64Zm1.13,.61c.14,.17,.29,.42,.35,.59l-.19,.04h1.98c.09-.21,.21-.45,.29-.63h-2.43Zm1.62,1.72h3.31v2.42h-.83v-.25h-1.69v.27h-.79v-2.44Zm.79,.64v.88h1.69v-.88h-1.69Z"/><path class="cls-1" d="M65.87,2.42c-.29,.5-.65,1-1.04,1.49v5.06h-.88V4.91c-.31,.32-.64,.62-.94,.87-.11-.19-.43-.59-.61-.77,.97-.71,2-1.82,2.63-2.92l.84,.32Zm-.36-2.04c-.65,.86-1.64,1.83-2.51,2.46-.11-.21-.34-.55-.51-.73,.79-.53,1.7-1.39,2.17-2.09l.85,.36Zm5.71,3.73h-1.37v3.74c0,.52-.11,.78-.48,.92-.35,.14-.91,.15-1.8,.15-.04-.26-.16-.64-.28-.9,.61,.02,1.24,.02,1.42,0,.18,0,.24-.05,.24-.18v-3.73h-3.01v-.86h5.28v.86Zm-.27-2.65h-4.61V.59h4.61v.86Z"/><path class="cls-1" d="M75.32,7.86c-1.17,.27-2.4,.56-3.33,.77l-.2-.81c.41-.07,.93-.16,1.51-.26v-2.65h-1.39v-.77h1.39v-.91h-.81v-.31c-.12,.13-.26,.24-.38,.36-.06-.2-.28-.69-.42-.91,.7-.56,1.4-1.44,1.8-2.35l.77,.27c-.06,.11-.11,.22-.17,.34,.54,.47,1.17,1.02,1.51,1.37l-.49,.69c-.31-.36-.88-.89-1.4-1.37-.24,.42-.52,.8-.81,1.15h1.95v.77h-.77v.91h1.14v.77h-1.14v2.52l1.2-.21,.04,.66Zm-2.73-2.53c.15,.55,.31,1.26,.39,1.72l-.64,.19c-.06-.48-.22-1.2-.36-1.75l.61-.16Zm1.69,1.61c.14-.47,.33-1.21,.42-1.71l.69,.19c-.18,.59-.39,1.26-.56,1.69l-.54-.17Zm5.87,.96c0,.45-.1,.71-.4,.84-.29,.14-.77,.16-1.48,.16-.03-.23-.14-.61-.25-.85,.48,.03,.96,.03,1.1,.02s.19-.05,.19-.18v-1.49c-.89,.24-1.79,.47-2.51,.65l-.26-.69c-.05,.92-.19,1.92-.61,2.63-.14-.16-.49-.41-.69-.51,.46-.84,.5-2.01,.5-2.95V2.75h1.77V.04h.85V2.75h1.79V7.91Zm-3.78-5.42c-.12-.49-.49-1.25-.88-1.81l.72-.35c.38,.54,.78,1.27,.92,1.76l-.77,.4Zm.2,3.06c0,.23,0,.48-.02,.74,.72-.15,1.74-.38,2.77-.62V3.54h-2.75v2.01Zm.46-1.46c.69,.15,1.61,.45,2.08,.7l-.37,.64c-.46-.28-1.35-.61-2.07-.78l.36-.56Zm3.42-3.49c-.3,.64-.67,1.34-.98,1.82l-.73-.3c.31-.5,.7-1.27,.9-1.84l.82,.32Z"/></g></g></svg>