<svg width="1255" height="22" viewBox="0 0 1255 22" fill="none" xmlns="http://www.w3.org/2000/svg">
<g clip-path="url(#clip0_1_282)">
<path d="M51.3693 15.2511C50.8011 16.5767 50.0264 17.7257 49.0536 18.6978C48.0809 19.67 46.9359 20.4212 45.6447 20.9427C44.3448 21.4641 42.9675 21.7293 41.504 21.7293C40.0664 21.7293 38.6977 21.473 37.4064 20.9515C36.1151 20.4389 34.9874 19.7054 34.0233 18.7597C33.0592 17.8141 32.293 16.6828 31.7335 15.3748C31.1653 14.0668 30.8898 12.6262 30.8898 11.0442C30.8898 9.37383 31.1825 7.86254 31.7679 6.53685C32.3533 5.20232 33.1452 4.07106 34.1438 3.15192C35.1424 2.22394 36.3045 1.50806 37.6475 1.01314C38.9818 0.518214 40.3849 0.270752 41.8656 0.270752C43.4754 0.270752 44.9216 0.562404 46.2042 1.14571C47.4869 1.72901 48.5716 2.51559 49.4582 3.4966C50.3449 4.47761 51.0336 5.6177 51.507 6.8992C51.9805 8.1807 52.2129 9.52407 52.2129 10.9293C52.2215 12.4848 51.9374 13.9254 51.3693 15.2511ZM48.253 7.36761C47.9604 6.15682 47.5127 5.06091 46.9187 4.0799C46.3161 3.09889 45.5758 2.29464 44.6805 1.68482C43.7939 1.075 42.735 0.765676 41.5212 0.765676C40.2902 0.765676 39.2228 1.075 38.3189 1.68482C37.4236 2.29464 36.6919 3.09005 36.1065 4.07106C35.5298 5.04324 35.108 6.14798 34.8325 7.37645C34.557 8.61376 34.4193 9.86875 34.4193 11.1326C34.4193 12.4583 34.5742 13.7309 34.8755 14.9594C35.1768 16.1879 35.6331 17.2661 36.2271 18.2029C36.821 19.1397 37.57 19.891 38.4739 20.4478C39.3777 21.0134 40.4194 21.2962 41.6159 21.2962C42.8125 21.2962 43.8455 20.9869 44.7322 20.3594C45.6189 19.7319 46.3506 18.9365 46.9359 17.9466C47.5213 16.9656 47.9604 15.8609 48.2616 14.6324C48.5543 13.4039 48.7007 12.1755 48.7007 10.9558C48.6921 9.77153 48.5457 8.56957 48.253 7.36761Z" fill="#3E3A39"/>
<path d="M166.43 1.41088C165.999 1.68486 165.672 2.10024 165.448 2.66587C165.31 2.95752 165.233 3.49663 165.19 4.28321C165.156 5.06979 165.112 5.91823 165.078 6.81086C165.044 7.65046 165.009 8.64031 164.975 9.77157C164.949 10.9117 164.932 12.1313 164.932 13.4393C164.932 13.9873 164.932 14.6059 164.932 15.3041C164.932 15.9846 164.932 16.6828 164.949 17.3899C164.958 18.0969 164.966 18.8039 164.966 19.511C164.966 20.218 164.966 20.8455 164.966 21.4111C164.966 21.4907 164.94 21.5525 164.897 21.5967C164.854 21.6409 164.777 21.6674 164.682 21.6674C164.527 21.6674 164.364 21.5702 164.174 21.3758C162.564 19.4668 161.092 17.7169 159.767 16.1172C158.441 14.5264 157.176 12.9974 155.97 11.548C154.765 10.0986 153.586 8.6845 152.432 7.29695C151.279 5.91823 150.056 4.48648 148.765 3.00171V15.3218C148.765 16.3116 148.791 17.2131 148.834 18.0085C148.877 18.8039 148.997 19.3961 149.187 19.7938C149.393 20.2445 149.721 20.5804 150.168 20.8013C150.616 21.0223 151.227 21.1902 152.002 21.2786V21.5702H145.003V21.2786C145.459 21.2167 145.916 21.1018 146.372 20.9162C146.828 20.7306 147.19 20.4301 147.457 19.9971C147.723 19.5905 147.896 18.9807 147.964 18.1853C148.042 17.3899 148.094 16.4354 148.137 15.3218C148.171 14.4822 148.206 13.4923 148.223 12.3611C148.24 11.221 148.249 10.0014 148.249 8.69334C148.249 8.12771 148.249 7.6593 148.249 7.28811C148.249 6.91692 148.249 6.5634 148.249 6.20988C148.249 5.85636 148.249 5.50285 148.249 5.13165C148.249 4.74278 148.24 4.26553 148.223 3.69991C148.162 3.13428 148.033 2.67471 147.827 2.31235C147.62 1.94999 147.37 1.66718 147.086 1.46391C146.802 1.26064 146.492 1.11039 146.165 1.02201C145.838 0.933632 145.52 0.871767 145.21 0.827577V0.562439H150.986L164.467 16.7359V6.81086C164.467 6.03312 164.458 5.29073 164.441 4.57486C164.424 3.86783 164.338 3.3022 164.183 2.89565C163.993 2.3477 163.658 1.90581 163.176 1.56996C162.694 1.22528 161.996 0.98666 161.084 0.854091V0.562439H168.134V0.854091C167.428 0.951308 166.86 1.1369 166.43 1.41088Z" fill="#3E3A39"/>
<path d="M279.191 21.5879H260.933V21.2962C261.406 21.2167 261.88 21.093 262.345 20.9162C262.81 20.7394 263.171 20.5008 263.438 20.1915C263.533 20.0766 263.61 19.9087 263.679 19.6789C263.748 19.4579 263.8 19.2016 263.834 18.9012C263.868 18.6095 263.903 18.3002 263.937 17.982C263.963 17.655 263.98 17.3457 263.98 17.0364C263.98 16.7624 263.989 16.3912 263.998 15.9316C264.006 15.4632 264.015 14.9506 264.023 14.3938C264.032 13.837 264.041 13.2714 264.041 12.6881C264.041 12.0871 264.041 11.5215 264.041 10.9912V5.32609C264.041 4.97257 264.041 4.63673 264.041 4.30089C264.041 3.94737 264.023 3.62036 263.998 3.31988C263.972 3.01939 263.929 2.74541 263.868 2.51562C263.808 2.28584 263.722 2.10024 263.61 1.95883C263.343 1.62299 262.99 1.37553 262.543 1.19877C262.095 1.02201 261.63 0.907118 261.131 0.845253V0.562439H270.204V0.854091C269.955 0.889443 269.662 0.951308 269.326 1.03085C268.982 1.11039 268.663 1.23412 268.362 1.41088C268.061 1.58764 267.794 1.8351 267.579 2.15327C267.363 2.48027 267.243 2.89565 267.226 3.42593C267.208 4.10645 267.191 4.73394 267.183 5.29957C267.174 5.8652 267.165 6.42199 267.157 6.9611C267.148 7.50906 267.14 8.06585 267.14 8.65799C267.14 9.25013 267.14 9.8953 267.14 10.6112C267.14 11.274 267.14 11.875 267.14 12.4229C267.14 12.9444 267.14 13.4658 267.14 13.9696C267.14 14.4734 267.14 14.9948 267.157 15.5339C267.165 16.073 267.174 16.6652 267.174 17.328C267.191 17.9555 267.217 18.5476 267.243 19.1044C267.269 19.6701 267.372 20.0854 267.544 20.3594C267.622 20.4566 267.768 20.5539 268 20.6511C268.224 20.7483 268.5 20.8278 268.827 20.8985C269.154 20.9692 269.498 21.0223 269.877 21.0753C270.256 21.1283 270.635 21.146 271.013 21.146C271.168 21.146 271.409 21.146 271.736 21.1283C272.072 21.1195 272.434 21.1018 272.83 21.0665C273.226 21.0399 273.639 20.9957 274.052 20.9339C274.465 20.872 274.836 20.7925 275.163 20.6953C275.92 20.4831 276.549 20.2003 277.056 19.8468C277.556 19.4933 277.986 19.0956 278.348 18.636C278.709 18.1764 279.011 17.6815 279.26 17.1512C279.51 16.621 279.742 16.0553 279.975 15.472L280.259 15.5604L279.191 21.5879Z" fill="#3E3A39"/>
<path d="M389.156 1.26064C388.777 1.45507 388.424 1.71137 388.105 2.0207C387.787 2.33003 387.477 2.70122 387.184 3.12544C386.892 3.5585 386.573 4.04459 386.229 4.5837C386.005 4.95489 385.686 5.44982 385.273 6.08615C384.86 6.72248 384.447 7.37649 384.025 8.05701C383.594 8.73753 383.19 9.39154 382.785 10.0102C382.389 10.6377 382.079 11.1238 381.847 11.4685V17.3368C381.847 17.9025 381.864 18.4504 381.89 18.9895C381.916 19.5287 382.011 19.8998 382.157 20.112C382.441 20.5362 382.811 20.819 383.267 20.9604C383.724 21.093 384.154 21.2079 384.576 21.2786V21.5702H375.812V21.2786C376.303 21.2167 376.734 21.1283 377.104 21.0046C377.474 20.8809 377.87 20.5715 378.283 20.0854C378.378 19.9882 378.447 19.8203 378.498 19.5905C378.541 19.3607 378.584 19.0956 378.61 18.8039C378.636 18.5123 378.653 18.203 378.67 17.8671C378.679 17.5401 378.688 17.2131 378.688 16.9038C378.705 16.3558 378.722 15.7107 378.731 14.9594C378.739 14.2082 378.748 13.2979 378.748 12.2285C378.714 12.1666 378.593 11.9899 378.404 11.6717C378.214 11.3536 377.982 10.9735 377.706 10.5228C377.431 10.0632 377.13 9.55062 376.794 8.98499C376.458 8.41936 376.131 7.87141 375.812 7.3323C375.494 6.80202 375.184 6.29826 374.9 5.82985C374.616 5.36144 374.383 4.98141 374.185 4.68975C373.824 4.12413 373.497 3.61153 373.204 3.14312C372.911 2.67471 372.61 2.277 372.309 1.94116C372.008 1.60532 371.706 1.34902 371.414 1.15458C371.121 0.960146 370.785 0.854091 370.406 0.827577V0.562439H379.023V0.854091C378.739 0.871767 378.455 0.907118 378.171 0.94247C377.887 0.977822 377.62 1.03969 377.371 1.12807C377.121 1.21645 376.923 1.33134 376.777 1.48158C376.622 1.63183 376.553 1.82626 376.553 2.08256C376.553 2.33886 376.691 2.7189 376.966 3.24033C377.241 3.75293 377.534 4.27437 377.835 4.80465C378.042 5.15817 378.292 5.58239 378.576 6.07731C378.86 6.57224 379.17 7.10251 379.514 7.65046C379.858 8.20725 380.203 8.77288 380.556 9.35618C380.909 9.93949 381.236 10.4963 381.537 11.0177C381.778 10.6465 382.088 10.1781 382.45 9.60365C382.811 9.02918 383.173 8.44588 383.543 7.85374C383.913 7.26159 384.266 6.69597 384.593 6.14801C384.929 5.60006 385.178 5.17584 385.351 4.86651C385.445 4.70743 385.549 4.53067 385.661 4.3274C385.772 4.12413 385.884 3.91202 385.988 3.68223C386.091 3.46128 386.186 3.2315 386.254 2.99287C386.332 2.76309 386.366 2.54214 386.366 2.3477C386.366 2.03837 386.289 1.79091 386.143 1.61415C385.988 1.43739 385.798 1.30483 385.557 1.20761C385.316 1.11039 385.058 1.03969 384.774 0.98666C384.49 0.94247 384.214 0.898281 383.947 0.854091V0.562439H390.516V0.854091C389.991 0.933632 389.534 1.0662 389.156 1.26064Z" fill="#3E3A39"/>
<path d="M596.472 5.61774C595.698 4.62789 594.957 3.77945 594.251 3.08125C593.554 2.38305 592.865 1.86162 592.203 1.53461C591.884 1.37553 591.299 1.2518 590.455 1.1369C589.611 1.03085 588.63 0.977822 587.511 0.977822C587.322 0.977822 587.106 0.98666 586.857 0.995498C586.607 1.00434 586.375 1.01317 586.151 1.02201C585.927 1.03085 585.712 1.03969 585.514 1.04853C585.316 1.05736 585.17 1.0662 585.075 1.0662C585.058 1.18109 585.032 1.29599 585.006 1.41972C584.98 1.53461 584.954 1.67602 584.937 1.82626C584.92 1.98535 584.903 2.17978 584.877 2.42724C584.86 2.67471 584.842 2.96636 584.825 3.31988C584.808 4.0004 584.791 4.74278 584.782 5.55587C584.773 6.36013 584.765 7.12902 584.765 7.8449C584.765 8.56077 584.765 9.18826 584.765 9.71854C584.765 10.2223 584.765 10.5228 584.765 10.62C584.825 10.62 584.989 10.62 585.273 10.62C585.574 10.62 585.91 10.6112 586.28 10.5935C586.65 10.5758 587.038 10.5493 587.434 10.5228C587.83 10.4963 588.165 10.4521 588.432 10.3902C589.112 10.2311 589.654 10.0279 590.05 9.77157C590.446 9.52411 590.765 9.21478 590.989 8.8701C591.213 8.51658 591.376 8.13655 591.471 7.71233C591.566 7.29695 591.652 6.84621 591.729 6.36013H592.073V15.7637H591.729C591.574 15.145 591.359 14.4822 591.075 13.7928C590.791 13.1035 590.446 12.5732 590.05 12.202C589.689 11.875 589.302 11.6187 588.897 11.4596C588.492 11.2917 588.01 11.1945 587.459 11.1503C587.175 11.1326 586.926 11.1149 586.719 11.1061C586.512 11.0973 586.314 11.0884 586.125 11.0884C585.936 11.0884 585.738 11.0884 585.531 11.0884C585.324 11.0884 585.066 11.0884 584.765 11.0884C584.765 11.7071 584.765 12.3346 584.765 12.9532C584.765 13.5542 584.765 14.1463 584.765 14.7031C584.765 15.2511 584.765 15.7549 584.782 16.2056C584.791 16.6652 584.799 17.054 584.799 17.3899C584.817 18.0085 584.851 18.6007 584.894 19.1575C584.946 19.7142 585.049 20.1296 585.221 20.3948C585.393 20.6687 585.677 20.8809 586.091 21.0223C586.495 21.1637 587.089 21.2609 587.873 21.2962V21.5879H578.773V21.2962C579.247 21.2167 579.686 21.093 580.099 20.9162C580.504 20.7394 580.839 20.5008 581.106 20.1915C581.201 20.0766 581.278 19.9087 581.33 19.6789C581.39 19.4579 581.442 19.2016 581.485 18.9012C581.537 18.6095 581.563 18.3002 581.588 17.982C581.606 17.655 581.614 17.3457 581.614 17.0364C581.614 16.7624 581.623 16.3912 581.631 15.9316C581.64 15.4632 581.649 14.9506 581.657 14.3938C581.666 13.837 581.674 13.2714 581.674 12.6881C581.674 12.0871 581.674 11.5215 581.674 10.9912V5.29073C581.674 4.93722 581.666 4.5837 581.657 4.21251C581.649 3.84131 581.631 3.49663 581.597 3.16079C581.571 2.82495 581.52 2.5333 581.451 2.26816C581.382 2.00302 581.296 1.81743 581.184 1.69369C580.9 1.38437 580.598 1.18109 580.271 1.09272C579.944 1.00434 579.531 0.924794 579.023 0.845253V0.562439H594.837L596.774 5.46749L596.472 5.61774Z" fill="#3E3A39"/>
<path d="M708.563 15.2511C707.995 16.5767 707.22 17.7257 706.247 18.6978C705.274 19.67 704.129 20.4212 702.838 20.9427C701.538 21.4641 700.161 21.7293 698.698 21.7293C697.26 21.7293 695.891 21.473 694.6 20.9515C693.309 20.4389 692.181 19.7054 691.217 18.7597C690.253 17.8141 689.486 16.6828 688.927 15.3748C688.367 14.0579 688.092 12.6173 688.092 11.0354C688.092 9.36499 688.385 7.8537 688.97 6.52801C689.555 5.19348 690.347 4.06223 691.346 3.14308C692.344 2.2151 693.507 1.50806 694.841 1.01314C696.175 0.518214 697.587 0.270752 699.068 0.270752C700.677 0.270752 702.124 0.562404 703.406 1.14571C704.689 1.72901 705.774 2.51559 706.66 3.4966C707.547 4.47761 708.236 5.6177 708.709 6.8992C709.183 8.1807 709.415 9.52407 709.415 10.9293C709.415 12.4848 709.131 13.9254 708.563 15.2511ZM705.446 7.36761C705.154 6.15682 704.706 5.06091 704.112 4.0799C703.51 3.09889 702.769 2.29464 701.874 1.68482C700.987 1.075 699.929 0.765676 698.715 0.765676C697.484 0.765676 696.416 1.075 695.512 1.68482C694.608 2.29464 693.868 3.09005 693.291 4.06223C692.715 5.0344 692.284 6.13914 692.009 7.37645C691.733 8.61376 691.596 9.86875 691.596 11.1326C691.596 12.4583 691.75 13.7309 692.052 14.9594C692.353 16.1879 692.809 17.2661 693.403 18.2029C693.997 19.1397 694.746 19.891 695.65 20.4478C696.554 21.0134 697.596 21.2962 698.792 21.2962C699.989 21.2962 701.022 20.9869 701.908 20.3594C702.787 19.7319 703.527 18.9365 704.112 17.9466C704.698 16.9656 705.137 15.8609 705.438 14.6324C705.731 13.4039 705.877 12.1755 705.877 10.9558C705.894 9.77153 705.739 8.56957 705.446 7.36761Z" fill="#3E3A39"/>
<path d="M818.097 21.5878C817.924 21.4111 817.804 21.2785 817.726 21.1901C817.649 21.1018 817.563 20.9957 817.468 20.8808C817.373 20.7659 817.253 20.598 817.115 20.3682C816.969 20.1473 816.754 19.8114 816.444 19.3607C816.082 18.8127 815.764 18.3266 815.488 17.8847C815.213 17.4517 814.937 17.0186 814.653 16.5856C814.369 16.1613 814.059 15.7283 813.732 15.2864C813.396 14.8445 813.009 14.3584 812.553 13.8105C812.174 13.3597 811.761 12.9443 811.313 12.5555C810.866 12.1666 810.401 11.928 809.901 11.8308C809.54 11.7512 809.264 11.7159 809.075 11.7159C808.903 11.7159 808.688 11.707 808.421 11.6894C808.421 12.9532 808.421 14.0579 808.421 14.9859C808.421 15.9227 808.429 16.7093 808.447 17.3545C808.464 17.982 808.481 18.5122 808.507 18.963C808.524 19.4137 808.627 19.7849 808.817 20.0766C808.972 20.3329 809.264 20.5892 809.695 20.8543C810.134 21.1194 810.736 21.2697 811.52 21.305V21.5967H802.421V21.305C802.894 21.2255 803.35 21.1106 803.789 20.9515C804.228 20.7924 804.564 20.5626 804.814 20.2533C804.909 20.1384 804.986 19.9617 805.038 19.7319C805.098 19.5021 805.132 19.2369 805.167 18.9453C805.193 18.6536 805.218 18.3443 805.236 18.0085C805.253 17.6726 805.261 17.3545 805.261 17.0451C805.261 16.7712 805.27 16.4 805.279 15.9404C805.287 15.472 805.296 14.9594 805.304 14.4026C805.313 13.8458 805.322 13.2802 805.322 12.6969C805.322 12.0959 805.322 11.5303 805.322 11V5.29069C805.322 4.93717 805.313 4.58365 805.304 4.2213C805.296 3.85894 805.279 3.5231 805.244 3.1961C805.218 2.87793 805.167 2.58628 805.098 2.32114C805.029 2.056 804.943 1.8704 804.831 1.74667C804.547 1.43735 804.228 1.22524 803.875 1.11918C803.523 1.01313 803.092 0.915908 802.584 0.845204V0.56239C802.739 0.56239 803.127 0.56239 803.755 0.56239C804.401 0.56239 805.132 0.553552 805.942 0.544714C806.759 0.535877 807.577 0.527039 808.386 0.527039C809.204 0.527039 809.867 0.527039 810.375 0.527039C811.649 0.527039 812.777 0.56239 813.758 0.641932C814.748 0.721473 815.643 0.986611 816.461 1.42851C817.296 1.87924 817.967 2.48906 818.484 3.25796C818.992 4.02686 819.25 4.99903 819.25 6.16564C819.25 6.88152 819.121 7.53552 818.863 8.10999C818.604 8.68445 818.269 9.18822 817.838 9.63011C817.408 10.072 816.917 10.4432 816.349 10.7525C815.781 11.0619 815.178 11.327 814.559 11.5391V11.6275C814.877 11.8042 815.196 12.0517 815.497 12.3875C815.798 12.7234 816.091 13.0857 816.375 13.5011C816.866 14.2435 817.408 15.0389 817.985 15.8962C818.561 16.7535 819.078 17.5136 819.534 18.1764C820.232 19.1928 820.92 19.9263 821.583 20.3947C822.246 20.8631 823.021 21.1636 823.916 21.2962V21.5878H818.097V21.5878ZM815.282 3.39937C814.808 2.63931 814.12 2.03833 813.207 1.58759C812.751 1.37548 812.277 1.2164 811.769 1.11918C811.27 1.02196 810.736 0.968935 810.194 0.968935C809.798 0.968935 809.471 0.977773 809.23 0.995449C808.98 1.01313 808.791 1.0308 808.662 1.05731C808.645 1.17221 808.627 1.27826 808.602 1.36664C808.584 1.45502 808.567 1.56992 808.558 1.70248C808.55 1.84389 808.541 2.02949 808.533 2.27695C808.524 2.52441 808.507 2.86909 808.49 3.31099C808.472 3.99151 808.455 4.76041 808.447 5.61769C808.438 6.47497 808.429 7.30574 808.429 8.10115C808.429 8.89656 808.429 9.6036 808.429 10.2046C808.429 10.7879 808.429 11.1591 808.429 11.3182C809.204 11.3182 809.927 11.2828 810.607 11.2121C811.279 11.1414 811.933 11 812.553 10.7879C813.164 10.5934 813.681 10.3283 814.12 10.0013C814.559 9.66546 814.912 9.29427 815.187 8.87889C815.462 8.46351 815.669 8.00393 815.798 7.51785C815.936 7.03176 815.996 6.528 815.996 5.99772C815.988 5.01671 815.755 4.15059 815.282 3.39937Z" fill="#3E3A39"/>
<path d="M1032.02 6.05076C1031.86 5.69725 1031.68 5.33489 1031.47 4.95486C1031.27 4.57483 1031.05 4.22131 1030.84 3.88547C1030.62 3.55846 1030.41 3.24914 1030.2 2.96632C1029.99 2.68351 1029.81 2.4714 1029.66 2.33883C1029.26 1.94996 1028.83 1.69366 1028.37 1.56109C1027.9 1.43736 1027.31 1.35782 1026.58 1.34014C1026.22 1.34014 1025.91 1.3313 1025.65 1.32247C1025.38 1.31363 1025.11 1.30479 1024.85 1.30479C1024.6 1.30479 1024.32 1.30479 1024.02 1.30479C1023.73 1.30479 1023.38 1.30479 1022.97 1.30479C1022.97 1.79088 1022.97 2.45372 1022.95 3.29333C1022.94 4.13293 1022.93 5.00789 1022.93 5.91819C1022.93 6.83734 1022.93 7.73881 1022.93 8.63144C1022.93 9.5064 1022.93 10.2488 1022.93 10.8498V17.328C1022.93 17.8936 1022.95 18.4327 1022.98 18.9541C1023 19.4667 1023.1 19.8379 1023.24 20.0501C1023.53 20.4743 1023.93 20.7659 1024.46 20.925C1024.97 21.0841 1025.45 21.199 1025.87 21.2785V21.5702H1016.62V21.2785C1017.11 21.2167 1017.59 21.1194 1018.04 20.9869C1018.5 20.8543 1018.95 20.5273 1019.38 20.0235C1019.47 19.9263 1019.54 19.7672 1019.59 19.5375C1019.64 19.3165 1019.68 19.0602 1019.71 18.7774C1019.73 18.4946 1019.76 18.1852 1019.77 17.8582C1019.77 17.5312 1019.78 17.2042 1019.78 16.8949C1019.78 16.6209 1019.79 16.2586 1019.8 15.8167C1019.81 15.3659 1019.82 14.871 1019.83 14.3319C1019.84 13.784 1019.84 13.2183 1019.84 12.635C1019.84 12.0517 1019.84 11.4949 1019.84 10.9735V1.32247C1019.45 1.32247 1019.09 1.32247 1018.79 1.32247C1018.51 1.32247 1018.23 1.32247 1017.97 1.32247C1017.72 1.32247 1017.46 1.32247 1017.18 1.34014C1016.91 1.34898 1016.59 1.35782 1016.23 1.35782C1015.51 1.37549 1014.92 1.46387 1014.45 1.62296C1013.98 1.78204 1013.55 2.05602 1013.15 2.44488C1013 2.58629 1012.83 2.78956 1012.63 3.0547C1012.43 3.31984 1012.23 3.62917 1012 3.94733C1011.79 4.2655 1011.58 4.61018 1011.37 4.98137C1011.17 5.35257 1011.02 5.70608 1010.91 6.0596L1010.65 5.97122L1011.5 0.420997C1011.94 0.518214 1012.34 0.597756 1012.71 0.650783C1013.08 0.703811 1013.61 0.748001 1014.32 0.765676C1015.04 0.783352 1015.69 0.801028 1016.25 0.809866C1016.82 0.818704 1017.37 0.827542 1017.91 0.827542C1018.44 0.827542 1018.97 0.827542 1019.53 0.827542C1020.09 0.827542 1020.73 0.827542 1021.43 0.827542C1022.12 0.827542 1022.75 0.827542 1023.3 0.827542C1023.87 0.827542 1024.42 0.818704 1024.96 0.809866C1025.49 0.801028 1026.04 0.79219 1026.61 0.783352C1027.18 0.774514 1027.82 0.765676 1028.55 0.765676C1029.18 0.748001 1029.69 0.694973 1030.1 0.606594C1030.5 0.518214 1030.92 0.403321 1031.36 0.270752L1032.27 5.96238L1032.02 6.05076Z" fill="#3E3A39"/>
<path d="M1144.22 15.2511C1143.65 16.5767 1142.88 17.7257 1141.9 18.6978C1140.93 19.67 1139.79 20.4212 1138.49 20.9427C1137.19 21.4641 1135.82 21.7293 1134.35 21.7293C1132.92 21.7293 1131.55 21.473 1130.26 20.9515C1128.96 20.4389 1127.84 19.7054 1126.87 18.7597C1125.91 17.8141 1125.14 16.6828 1124.58 15.3748C1124.02 14.0579 1123.75 12.6173 1123.75 11.0354C1123.75 9.36499 1124.04 7.8537 1124.63 6.52801C1125.21 5.19348 1126 4.06223 1127 3.14308C1128 2.2151 1129.16 1.50806 1130.5 1.01314C1131.83 0.518214 1133.24 0.270752 1134.72 0.270752C1136.33 0.270752 1137.78 0.562404 1139.06 1.14571C1140.34 1.72901 1141.43 2.51559 1142.32 3.4966C1143.2 4.47761 1143.89 5.6177 1144.36 6.8992C1144.84 8.1807 1145.07 9.52407 1145.07 10.9293C1145.07 12.4848 1144.79 13.9254 1144.22 15.2511ZM1141.1 7.36761C1140.81 6.15682 1140.36 5.06091 1139.77 4.0799C1139.17 3.09889 1138.42 2.29464 1137.53 1.68482C1136.64 1.075 1135.58 0.765676 1134.37 0.765676C1133.14 0.765676 1132.07 1.075 1131.17 1.68482C1130.26 2.29464 1129.52 3.09005 1128.95 4.06223C1128.37 5.0344 1127.94 6.13914 1127.66 7.37645C1127.39 8.61376 1127.25 9.86875 1127.25 11.1326C1127.25 12.4583 1127.41 13.7309 1127.71 14.9594C1128.01 16.1879 1128.46 17.2661 1129.06 18.2029C1129.65 19.1397 1130.4 19.891 1131.31 20.4478C1132.21 21.0134 1133.25 21.2962 1134.45 21.2962C1135.64 21.2962 1136.68 20.9869 1137.56 20.3594C1138.44 19.7319 1139.18 18.9365 1139.77 17.9466C1140.35 16.9656 1140.79 15.8609 1141.09 14.6324C1141.39 13.4039 1141.53 12.1755 1141.53 10.9558C1141.54 9.77153 1141.39 8.56957 1141.1 7.36761Z" fill="#3E3A39"/>
<path d="M1254.66 8.59609C1254.44 9.17939 1254.14 9.69199 1253.77 10.1427C1253.4 10.5935 1252.97 10.9735 1252.48 11.3005C1251.99 11.6187 1251.48 11.8838 1250.97 12.0782C1250.44 12.2727 1249.87 12.4229 1249.27 12.5201C1248.66 12.6173 1248.04 12.6881 1247.43 12.7411C1246.81 12.7941 1246.21 12.8118 1245.63 12.8118C1245.06 12.8118 1244.54 12.8118 1244.09 12.8118C1244.09 13.4393 1244.09 13.9696 1244.09 14.4203C1244.09 14.8445 1244.09 15.2245 1244.09 15.5604C1244.09 15.8874 1244.09 16.1967 1244.11 16.4795C1244.12 16.7623 1244.13 17.0717 1244.13 17.3987C1244.14 18.0173 1244.16 18.5564 1244.19 19.0072C1244.21 19.4579 1244.31 19.8291 1244.5 20.1119C1244.65 20.3682 1244.95 20.6157 1245.38 20.872C1245.82 21.1283 1246.42 21.2697 1247.2 21.3139V21.6055H1238.1V21.3139C1238.58 21.2343 1239.03 21.1194 1239.46 20.9604C1239.9 20.8013 1240.24 20.5715 1240.49 20.2622C1240.58 20.1473 1240.66 19.9705 1240.71 19.7407C1240.77 19.5109 1240.8 19.2458 1240.84 18.9541C1240.87 18.6625 1240.89 18.3532 1240.91 18.0173C1240.93 17.6815 1240.93 17.3633 1240.93 17.054C1240.93 16.78 1240.94 16.4088 1240.95 15.9492C1240.96 15.4808 1240.97 14.9682 1240.98 14.4114C1240.99 13.8547 1240.99 13.289 1240.99 12.7057C1240.99 12.1047 1240.99 11.5391 1240.99 11.0088V5.2907C1240.99 4.93718 1240.99 4.58366 1240.98 4.22131C1240.97 3.85895 1240.95 3.52311 1240.92 3.19611C1240.89 2.87794 1240.84 2.58629 1240.77 2.32115C1240.7 2.05601 1240.62 1.87042 1240.5 1.74669C1240.22 1.43736 1239.86 1.22525 1239.41 1.11919C1238.96 1.01314 1238.49 0.91592 1237.97 0.845217V0.562403C1238.08 0.562403 1238.32 0.562403 1238.65 0.562403C1239.01 0.562403 1239.44 0.553565 1239.92 0.544727C1240.4 0.535889 1240.93 0.527051 1241.49 0.527051C1242.06 0.527051 1242.62 0.527051 1243.19 0.509375C1243.75 0.500537 1244.27 0.491699 1244.76 0.491699C1245.27 0.491699 1245.7 0.491699 1246.05 0.491699C1247.3 0.491699 1248.41 0.553565 1249.38 0.677296C1250.35 0.801027 1251.26 1.11035 1252.11 1.59644C1252.94 2.06485 1253.63 2.7277 1254.18 3.58498C1254.73 4.44226 1255.01 5.45862 1255.01 6.62523C1255 7.35878 1254.89 8.00394 1254.66 8.59609ZM1251.09 3.47892C1250.53 2.60397 1249.8 1.94112 1248.89 1.49039C1248.43 1.27828 1247.95 1.12803 1247.43 1.04849C1246.93 0.968948 1246.39 0.933596 1245.84 0.933596C1245.44 0.933596 1245.13 0.951272 1244.92 0.977786C1244.7 1.0043 1244.52 1.03081 1244.39 1.04849C1244.38 1.16338 1244.35 1.26944 1244.33 1.35782C1244.3 1.4462 1244.27 1.56109 1244.26 1.69366C1244.24 1.83507 1244.22 2.02066 1244.2 2.26812C1244.18 2.51559 1244.16 2.86027 1244.14 3.30216C1244.13 3.98268 1244.11 4.81345 1244.1 5.78562C1244.09 6.7578 1244.08 7.71229 1244.08 8.64911C1244.08 9.58593 1244.08 10.399 1244.08 11.0972C1244.08 11.7954 1244.08 12.2285 1244.08 12.3787C1244.86 12.3787 1245.59 12.3522 1246.27 12.308C1246.95 12.2638 1247.59 12.1313 1248.17 11.9103C1249.39 11.4861 1250.32 10.7791 1250.96 9.78921C1251.61 8.8082 1251.93 7.70345 1251.93 6.47498C1251.94 5.3614 1251.65 4.35388 1251.09 3.47892Z" fill="#3E3A39"/>
</g>
<defs>
<clipPath id="clip0_1_282">
<rect width="1255" height="22" fill="white"/>
</clipPath>
</defs>
</svg>
