<svg width="1053" height="630" viewBox="0 0 1053 630" fill="#FFF" xmlns="http://www.w3.org/2000/svg">
<rect x="17.5" y="185.4" fill="#D71718" width="1024.7" height="152.6"/>
<path d="M89.6,55.9l12.2-14.7c14.2,6.1,34.5,16.5,44.5,24.3l-13,16.8C124.2,74.3,104.4,62.9,89.6,55.9z M92.4,9.2h21.3
	c-1.2,38.8-5.3,61.5-49.2,73.1c-1.9-5.3-7.3-13.5-11.4-17.6C90.5,56.2,91.5,40.7,92.4,9.2z M127.7,16.9l21.9,6.7
	c-6.2,9.6-12.7,19.1-17.9,25.5L115,42.9C119.6,35.8,124.9,24.9,127.7,16.9z M128.7,82.2l22.5,6.8c-5.8,10.4-12,21.1-16.9,27.9
	l-17.8-6.2C121,102.8,126.1,91.1,128.7,82.2z M92,72.5h21.3c-1.3,40.9-5.2,64.9-51.3,77.2c-2.1-5.6-7.6-14.2-11.9-18.7
	C90.1,122,90.9,105.9,92,72.5z M111.6,91.7c5.5,20.9,17.3,34.5,42.5,39.3c-4.6,4.3-10.2,12.9-12.7,18.5
	c-29.4-7.7-41.2-25.6-48.5-55.3L111.6,91.7z M17.7,27l13.2-14.7c8.6,4.3,21.3,11.3,27.6,16.2L44.5,45C38.9,39.8,26.5,32.1,17.7,27z
	 M10,67l13.5-14.5c8.7,4.2,21.8,10.8,28.3,15.7L37.4,84.4C31.6,79.4,19,71.9,10,67z M13.1,133.6c7-11,16.9-28.6,24.9-45.8l17,14.1
	c-6.7,15.4-14.4,31.1-22.4,45.8L13.1,133.6z M56,25.1l17.5-8.7c4.6,7.9,11.1,19,14.1,25.6L68.9,52.2C66.3,45.3,60.4,33.7,56,25.1z
	 M53.6,89.3l17.6-7.9c5,8.7,12.5,20.9,15.9,28.5l-18.8,9C65.3,111.4,58.6,98.6,53.6,89.3z M219,9.2h23v114c0,25.8-15.3,26.5-37.6,27
	c-0.9-6.7-4.6-17.6-8-24.2c17.5,0.2,22.7,2.3,22.7-3V9.2H219z M163,66.5V44.7h36l3.9-0.7l14.4,5.2c-6.4,41.2-21.6,72.6-42.4,88.7
	c-3.6-4.9-12.3-13.3-17.5-16.6c16.2-11.2,27.8-30.6,34-54.8L163,66.5z M240.7,41.5c9.8,33.2,29.5,61.8,61.4,75.5
	c-5.2,4.6-12.6,13.8-16.2,20.2c-33.1-17.5-50.8-50.6-62.1-91.6L240.7,41.5z M272.8,34.1l20,14.1c-12.5,12-27,25.1-38.2,33.2
	l-15.3-12C250.3,60.5,264.4,46,272.8,34.1z M366.1,43.6h22.5V149h-22.5V43.6z M309.5,28.5H447v21.1H309.5V28.5z M414.2,85.2h-71.5
	v50.6H321V64.1h115.6v49.2c0.9,22.6-16.7,22.5-35.4,22.7c-0.9-6.2-4.2-15.4-7.1-21.2c5.9,0.4,14.7,0.4,16.8,0.4
	c2.4,0,3.3-0.6,3.3-2.4V85.2z M360.9,13.8l21.5-6.5c3.7,7.1,8.7,16.9,11.1,23l-22.8,7.6C368.9,31.8,364.3,21.4,360.9,13.8z
	 M525.6,51.3v9.5h18.8v-9.5H525.6z M505.6,37.7h60.2v36.9h-60.2L505.6,37.7L505.6,37.7z M508.1,93.1v13h6.8v-13H508.1z M490.9,79.1
	h42.3v41.2h-42.3L490.9,79.1L490.9,79.1z M555.4,93.1v13h7.3v-13H555.4z M537.9,79.1h43.3v41.2h-43.3V79.1z M460.2,13.5h127.5v18.8
	H460.2V13.5z M466,13.5h21.1V108c0,13,3.7,18.1,18.5,17.9c21.1-0.3,65.6,1.6,86.8-2.2c0.6,5.2,1.8,15,2.8,20
	c-19.8,3.7-67.3,1.5-87.8,1.9c-28.3,0.5-41.4-8.6-41.4-39.1L466,13.5L466,13.5z M611,18.1h128.2v21.1H611V18.1z M678.5,67.9h52.2V89
	h-52.2V67.9z M606.3,124h136.8v21H606.3V124z M667.9,26.7h23v107.5h-23V26.7z M623.5,59.8H646v75.5h-22.5V59.8z M848.6,121.2
	l15.6-12.2c9.6,7.4,23.7,18.5,30.5,26.1l-16.5,13.8C872.2,141.3,858.6,129.5,848.6,121.2z M863.8,50.9l20.3,6.8
	c-14.5,24.9-38.5,47-68,59.4c-2.7-4.7-8.2-12.5-11.9-16.5C831.2,90.6,853.7,70.8,863.8,50.9z M871.3,80.4l22.4,7.9
	c-17.5,28.5-46.7,50.7-84.5,62c-2.7-5.2-8.6-13.6-12.5-18.2C831.9,123.1,859.5,103.2,871.3,80.4z M806.5,25.2h85.7v19.6h-85.7V25.2z
	 M860.5,79.3c-38.4,2.6-45.5,3.8-50,5.5c-0.7-4.9-3.3-14.8-4.9-19.4c15.1-1.1,17.6-11.1,29.2-30h22.4l-17.5,28l26.3-1.3 M835.2,13.5
	l20.3-6.1c3.1,6.2,6.5,14.4,7.6,20l-21.6,6.8C840.6,28.8,838,20.1,835.2,13.5z M753.6,36.4H805v19.9h-51.4V36.4z M770.7,9.2h20.6
	V150h-20.6V9.2z M771.6,51.6l11.1,4.6c-3.9,24.8-12,53.5-22.2,69.1c-1.9-6.2-6.5-16.2-9.9-22.1C760.1,91.2,768,69.1,771.6,51.6z
	 M790.4,59.5c3.4,4.2,15.4,23,17.9,27.4L796,101.1c-3.3-9.5-10.7-26.1-15-34.2L790.4,59.5z M940.4,52.2h22.5v66.6
	c0,7.3,0.9,8.2,7.4,8.2c3.1,0,13.8,0,17,0c6.7,0,7.9-4.3,8.9-26.2c4.9,3.7,14.4,7.6,20.2,9c-2.2,28.2-7.9,37.2-27.1,37.2
	c-4.4,0-17.8,0-21.9,0c-21.2,0-27-6.8-27-28.2L940.4,52.2L940.4,52.2z M911.8,59.6l21.2,4c-1.9,20.3-5,46.6-9.5,63.9l-22.1-8.9
	C906.2,102.6,910.2,80.8,911.8,59.6z M1004,62.6l20.2-8.3c8.3,17.6,15.7,39.9,18.8,55.3l-21.9,9.2
	C1018.8,103.7,1011.6,80.1,1004,62.6z M944.4,24.6l14.7-14.8c13.3,8,32.8,20.6,42,29.8l-16,17C976.9,47.5,958.2,33.7,944.4,24.6z
	 M197.2,217.9h15v76.7h-15V217.9z M231,238.3h14.8v71.5H231V238.3z M164.4,238.8H179v49.6h58.8V303h-73.4V238.8z M284.6,222.7h63.6
	v13.7h-63.6V222.7z M300.4,269h7.6v-11.6h-7.6V269z M300.4,287.8h-12.7v-42.9H321v36.7h-20.6V287.8z M327.2,227.1h14.2v65.6
	c0,8.1-1.9,12.1-7,14.4c-5.3,2.3-12.8,2.5-23.7,2.5c-0.6-4.2-3.2-11-5.4-14.9c7.1,0.6,16.1,0.5,18.6,0.5c2.3-0.1,3.2-0.8,3.2-2.8
	L327.2,227.1L327.2,227.1z M259,228.8l8.1-10.1c5.4,2.7,13.8,7.2,18,10l-8.6,11.3C272.7,237,264.6,232.1,259,228.8z M254.7,255.8
	l7.6-10.5c5.4,2.4,14.3,6.6,18.7,9.3l-7.9,11.8C269.1,263.5,260.5,258.9,254.7,255.8z M257.3,299.2c5.2-7.2,12.6-19,18.5-30.4
	l10.4,9.4c-5.2,10.2-11,20.7-16.9,30.5L257.3,299.2z M406.3,257.6l7-4.5c2.8,2.3,6.6,5.8,8.5,8.1l-7.4,5.1
	C412.7,263.9,409.1,260.2,406.3,257.6z M403.6,277.3l7.4-4.8c3.3,2.5,7.8,6.3,10.1,8.9l-7.8,5.4
	C411.3,284.2,406.9,280.1,403.6,277.3z M393.3,226.4h50.1V239h-50.1V226.4z M379.1,262.5h67.1v12.8h-67.1V262.5z M392,217.2
	l13.7,3.5c-4,12.1-10.6,24.8-16.7,32.7c-2.7-2.2-8.8-6-12.1-7.8C383.2,238.8,388.9,227.7,392,217.2z M399.6,282.9h44.3v12h-59.6
	c2.7-13.4,5.5-34.5,6.9-51.1h49.1c-3.6,58.9,0.6,66.8-27.3,65.2c-0.2-3.3-1.6-8.3-3.5-11.5c17,1.5,14.4,2.2,17.5-41.7l-24,0
	 M359.6,228.5l7.8-9.6c5.6,2.7,13.4,7.1,17.4,10.2l-8.3,10.7C373,236.5,365.3,231.6,359.6,228.5z M353.9,255.8l7.7-9.5
	c5.5,2.5,12.8,6.8,16.4,10l-8.2,10.6C366.5,263.5,359.3,258.9,353.9,255.8z M356.4,300.6c3.9-7.6,9.3-19.7,13.5-31.3l10.9,7.7
	c-3.6,10.4-7.9,21.3-12.2,31.1L356.4,300.6z M472.9,263.5h47.8v10.6h-47.8L472.9,263.5L472.9,263.5z M472.9,278.4h47.8V289h-47.8
	L472.9,278.4L472.9,278.4z M472.9,293.6h47.8v12.2h-47.8L472.9,293.6L472.9,293.6z M452.6,230.1h89v13h-89L452.6,230.1L452.6,230.1z
	 M461.4,247.5h70.4v62.3H517v-50.2h-41.5v50.2h-14.1V247.5z M489.5,238.2l18.2,0.2c-2.5,6.5-6.1,12.3-8.6,16.4l-13.8-1.5
	C487.1,248.7,488.7,242.8,489.5,238.2z M512.1,217l16.5,3.3c-4,5.8-8.3,11.2-11.5,14.7l-12.7-3.4C507.2,227.4,510.4,221.5,512.1,217
	z M466.9,222.1l12.7-5.6c3.7,3.4,7.7,8.1,9.7,11.5l-13.1,6.8C474.4,231.3,470.4,225.9,466.9,222.1z M596.4,267.8h13.9v42.1h-13.9
	V267.8z M571.2,246.3h67.6v11.3h-67.6V246.3z M582.4,239.9h13v21.2H611v-21.2h13.7V272h-42.4v-32.1H582.4z M620.5,287.8H587v16.8
	h-13.7v-28.8h61.1v17c0,12.6-6.9,12.9-19.2,12.9c-0.5-3.7-2-8.7-3.6-12.1c5.3,0,8.9,1.4,8.9-1.1 M558.6,309.8
	c-2.4-2.3-8.4-6.3-11.6-7.8c12.3-22.5,8-52.1,8.8-76h83.6v12.6h-70.1C569.3,263.7,569.9,288.8,558.6,309.8z M588.5,219.7l13.8-3.9
	c2.4,4.4,4.9,10.2,5.6,14.1l-14.7,4.4C592.7,230.5,590.7,224.4,588.5,219.7z M697.5,286v14.6l-50.4-0.1v-9.9
	c52.8-43,23.8-61.6,8.6-43.3l-9.4-9.3c22.4-27.4,77.7-2.1,27.1,48H697.5z M121.9,513.4V543l-102.2-0.2v-20.1
	c107.1-87.4,48.2-125.1,17.4-87.9l-19.1-18.9c45.4-55.6,157.5-4.3,54.9,97.5H121.9z M362.8,513.4V543l-102.2-0.2v-20.1
	c107.1-87.4,48.2-125.1,17.4-87.9L259,415.9c45.4-55.6,157.5-4.3,54.9,97.5H362.8z M707.2,278.4v-12.2h27.6v12.2H707.2z
	 M758.3,269.2h38.1v13.1h-54.6v-12L767,228h21.4v72.5h-16.2v-58.1L758.3,269.2z M847,263.2l14.4-2.3c1.6,3.1,2.9,7.5,3.4,10.4
	l-15,2.9C849.7,271.2,848.4,266.7,847,263.2z M818.5,266.9h73.7v10.9h-73.7V266.9z M868.3,292.2h-22.4v-10.6h37.3
	c-1,24.7-3.2,29.5-26.5,28.1c-0.2-3.6-1.7-8.5-3.7-11.6C867.4,299.4,867.5,298.7,868.3,292.2z M840.2,271.9h14.1
	c-1.6,17.7-5.6,30.6-29.3,37.9c-1.3-3.3-4.8-8.5-7.6-11.1C837.2,293.5,839.1,284.6,840.2,271.9z M820.8,237h66.3v24.7h-66.3v-10.6
	h52.4v-3.5h-52.4V237z M812.9,224.8c22.5-1.2,47.5-3.7,63-7.3l10.6,10.4c-20.4,4.5-47.1,6.9-70.1,7.8 M812.8,224.8h14v32.5
	c0,16-2.3,40.2-15.6,53.9c-1.9-2.8-7.5-8.7-10-10.5c10.7-11.9,11.6-29.8,11.6-43.5V224.8z M174.1,487.6c2.9,41.2,37.9,42,38.4,8.1
	C213,465.8,182.1,471,174.1,487.6z M173.3,464.1c20-25.2,72.1-17.5,71.2,31.7c-1.1,65.2-103.4,77-103.4-25.1
	c0-74.9,61.7-97.2,101.4-59.9L224,431.5C200.1,410.7,174.7,420.5,173.3,464.1z M414.9,487.6c2.9,41.2,37.9,42,38.4,8.1
	C453.8,465.8,422.9,471,414.9,487.6z M414.1,464.1c20-25.2,72.1-17.5,71.2,31.7c-1.1,65.2-103.4,77-103.4-25.1
	c0-74.9,61.7-97.2,101.4-59.9l-18.5,20.7C440.9,410.7,415.6,420.5,414.1,464.1z M647.2,451.6c-2.9-41.2-37.9-42-38.4-8.1
	C608.3,473.4,639.2,468.1,647.2,451.6z M648.1,475.1c-20,25.2-72.1,17.5-71.2-31.7c1.1-65.2,103.4-77,103.4,25.1
	c0,74.9-61.7,97.2-101.4,59.9l18.5-20.7C621.2,528.5,646.6,518.7,648.1,475.1z M888.2,451.6c-2.9-41.2-37.9-42-38.4-8.1
	C849.3,473.4,880.2,468.1,888.2,451.6z M889.1,475.1c-20,25.2-72.1,17.5-71.2-31.7c1.1-65.2,103.4-77,103.4,25.1
	c0,74.9-61.7,97.2-101.4,59.9l18.5-20.7C862.2,528.5,887.6,518.7,889.1,475.1z M503.3,498.1v-24.7h55.9v24.7H503.3z M770.7,467.4
	c52,17.3,26.4,82.7-26,78.7c-23.3,0-39.7-8.1-50.4-20.6l16.2-22.1c46.7,43.7,85.5-25.4,15.5-22.8v-24.9
	c58.5,1.9,30.8-61.1-10.1-22.5l-17.8-21.5C763.3,357.7,832.8,434,770.7,467.4z M1011.5,467.4c52,17.3,26.4,82.7-26,78.7
	c-23.3,0-39.7-8.1-50.4-20.6l16.2-22.1c46.7,43.7,85.5-25.4,15.5-22.8v-24.9c58.5,1.9,30.8-61.1-10.1-22.5l-17.8-21.5
	C1004.1,357.7,1073.6,434,1011.5,467.4z M822.4,592.5h28.1v4.3h-28.1V592.5z M820.3,617.2h32.6v4.3h-32.6V617.2z M832.5,594h4.9
	c-1.2,8.7-3,19.4-4.4,25.9h-4.9C829.7,613.2,831.5,602.5,832.5,594z M840.9,620.2l1.2-12.9h-17.7V603h22.7l-1.4,17.2 M870.5,610.1
	h4.7v13.2h-4.7V610.1z M856.2,612.6h33.2v4h-33.2V612.6z M857.2,592.1H889v3.9h-31.8V592.1z M884.3,596.7l3.6,2.1
	c-1.6,1.7-3.6,3.4-5.1,4.5l-3.2-2C881.1,600.1,883.2,598.1,884.3,596.7z M874.6,604.1l3.2-1.2c1.5,2,3.2,4.7,3.9,6.5l-3.4,1.3
	C877.7,609,876.1,606.2,874.6,604.1z M856.1,607.2c2.3-0.8,5.7-2.3,9.1-3.7l0.8,3.2c-2.6,1.4-5.5,2.8-7.8,4L856.1,607.2z
	 M857.1,599.2l2.9-2.3c1.9,1,4.3,2.7,5.6,3.9l-3.1,2.6C861.4,602.1,859,600.3,857.1,599.2z M878.9,605.8l3-2.3
	c2.4,1.3,5.6,3.3,7.3,4.7l-3.2,2.6C884.5,609.3,881.4,607.2,878.9,605.8z M878.9,608.9c-9.9,1-11.4,1.2-12.4,1.6l-1.2-3.5
	c1.7-0.1,4.6-3.2,6-4.3c-2.4,0.2-3.6,0.3-4.1,0.5l-1.2-3.4c0.5-0.1,1.1-0.6,1.7-1.2c0.6-0.6,2.4-3,3.5-5.4l3.6,1.4
	c-0.9,1.6-2.1,3.2-3.4,4.6l3.3-0.1l2.4-2.9l3.3,2c-2.4,2.9-5.1,5.5-8.1,8l7-0.5 M869.5,590l4.5-1c0.9,1.2,1.9,2.8,2.4,3.9l-4.6,1.3
	C871.4,593,870.3,591.2,869.5,590z M899,598.3h20.3v3.1H899V598.3z M919,596.7l-2,2.1l-3.4-2.5l1.9-1.9L919,596.7z M915.1,602.4
	l3.4,0.7c-1.8,6.4-5.3,11.4-10.1,14.4c-0.4-0.7-1.6-2-2.4-2.6C910.6,612.2,913.7,607.9,915.1,602.4z M898.6,612.2
	c2.7-0.3,6.5-0.8,10.3-1.3l0.1,2.9c-3.5,0.5-7.1,1.1-10,1.5L898.6,612.2z M902.7,605.2v2.3h2.4v-2.3H902.7z M900,602.9h8.1v6.9H900
	V602.9z M919.8,612c0,7.1-10.3,10.8-11.1-16.8h3.6c0.8,20.9,4.9,20.6,4.8,14.7L919.8,612z M893.6,590.7h31.1v32.7h-4.3v-28.7h-22.7
	v28.7h-4.1V590.7z M896.2,618h26.6v3.9h-26.6V618z M933.5,611.3c4.7,1.1,3.4-5.4,0.7-9.3l1.9-7.5h-2.7v28.7h-3.7v-32.6h8.3l2.7,1.4
	c-0.8,3.1-2,6.8-2.9,9.7c3.6,5.1,4,14.4-3.4,13.2L933.5,611.3z M945.4,603.3h10.7v3.5h-10.7V603.3z M942.1,609.2h17.7v3.5h-17.7
	V609.2z M942.4,596.8l1.8-2c1.3,0.9,3.1,2.4,4,3.3l-1.9,2.2C945.5,599.4,943.8,597.9,942.4,596.8z M954.6,615.4l3.2-1.9
	c1.6,1.8,3.9,4.4,5,5.9l-3.4,2.1C958.4,620.1,956.2,617.4,954.6,615.4z M939.6,605.6c5.4-3.5,7-7.6,8.2-11h-4.1v-2.8h5.8l2.2,0.7
	c-1.6,7.4-5.3,12.7-10,15.7L939.6,605.6z M955.1,598.6c1-1.4,1.8-2.9,2.5-4.6h-4.2v-2.9h6.4l2.4,1.1c-1.1,3.2-2.9,6.7-4.8,8.8
	 M938.2,597.6c2.5-1.9,4.4-5,5.5-8.4l3.2,0.7c-1.3,3.9-3.6,7.6-6.1,9.9L938.2,597.6z M938.8,619.7c1.6-1.5,3.3-3.7,4.5-5.7l3.9,1.3
	c-1.3,2.3-3.4,5-4.9,6.6L938.8,619.7z M960.4,608.3c-4.8-2.9-7.9-8.4-9.7-14.9l3.3-0.8c1.5,5.5,4.5,10.4,8.9,12.7L960.4,608.3z
	 M948.9,610.7h4.1v12.5h-4.1V610.7z M939.2,600.3c1.5-0.1,3.1-0.3,5.1-0.5l0.1,2.3c-1.7,0.3-3.1,0.6-4.7,0.9L939.2,600.3z
	 M973.1,597.2h24.2v2.4h-24.2V597.2z M968.2,623c-0.8-0.7-2.6-1.7-3.7-2.1c4.3-6.1,3.3-22.5,3.3-29.1h30.7v3.7H972
	C972,609.3,971.8,616.1,968.2,623z M983.1,607.4h4v9h-4V607.4z M977.8,613.2v1.6h14.4v-1.6H977.8z M977.8,609.3v1.5h14.4v-1.5H977.8
	z M973.9,606.8h22.5v10.5h-22.5V606.8z M998.3,620.4l-2,3l-9.5-3.9l1.7-2.8L998.3,620.4z M973.4,623.5l-2.3-2.9
	c2.9-1,7.2-2.6,9.5-3.9l3.2,2.8L973.4,623.5z M986.6,593.1l-4.7,1.1l-1.2-4.4l4.5-0.9L986.6,593.1z M977.3,595.8h4.1v5.1h6.9v-5.1
	h4.4v6.9h-15.4V595.8z M972.7,603.5h25.7v2.4h-25.7V603.5z M1002.1,602h32.2v4.1h-32.2L1002.1,602L1002.1,602z M1008.2,593.9h23.8v4
	h-23.8V593.9z M1008.6,617.6h19.7v4h-19.7L1008.6,617.6L1008.6,617.6z M1016.8,589.2h4.7v15.3h-4.7V589.2z M1006.3,608.7h24.5v14.6
	h-4.7v-10.6h-15.3v10.7h-4.5L1006.3,608.7L1006.3,608.7z M1001.8,599.7c2.7-2.5,5-6.5,6.2-10.5l4.4,1.1c-1.5,4.4-4.1,8.9-6.6,11.7
	L1001.8,599.7z"/>
</svg>
