<svg width="800" height="700" viewBox="0 0 800 700" fill="#FFF" xmlns="http://www.w3.org/2000/svg">
<path d="M123.5,378.8c0.1,0.8-3.7,1.9-5.5,1.7v-4.4h-7.8c-0.4,3.9,1.9,5-5.4,5.5v-20.5h-7.6v27.1h24.7l3.3-4.5l6.1,4.6
	c0.1,2-32.8,0.5-34.1,0.9c-0.3,3.5,1.5,4.5-5.5,5.1v-33.3h-7.6l-0.3-1h7.9v-13l7.6,0.7c-0.1,0.7-0.5,1.1-2.1,1.4V360h7.6v-14
	l7.5,0.7c-0.1,0.7-0.5,1.1-2.1,1.3V360h7.8v-13.2l7.6,0.6c-0.1,0.8-0.5,1.1-2.1,1.4v11.2h1.1l3-4.1l5.5,4.2
	c-0.9,1.7-7.9,0.6-9.6,0.9L123.5,378.8L123.5,378.8z M110.1,375.1h7.8v-14h-7.8V375.1z M183,367.5h-7.8c4,4.9,12.2,7.7,19.5,8.9
	l0,0.6c-2.1,0.5-3.5,2.3-4.1,4.9c-3.8-1.5-7.2-3.4-10.1-5.9v16.8c0,0-1,1.5-5.4,1.5v-21.7l2.4,0.2c-1.3-1.6-2.5-3.4-3.4-5.4h-5.4
	c-1.4,2.1-3.1,4-5.2,5.7l3.1,0.3c-0.1,0.7-0.5,0.9-1.9,1.1c0.2,9.7,0,15.9-17.6,19.8l-0.4-0.6c12.3-4.5,12.6-10.2,12.5-17.7
	c-3.8,2.3-8.3,4-13.3,5.3l-0.4-0.9c7.2-3,12.9-7.7,16.2-13.1h-4c0,1-0.3,2.3-5.4,2.5v-23.5l5.9,2.4h24.4l2.2-2.9l6,4.2
	c-0.4,0.4-1.1,0.9-2.1,1.1v16.7c0,0.1-1.6,1.4-5.5,1.4L183,367.5L183,367.5z M167.4,349.9h-9.7v7.6h9.7V349.9z M157.7,366.5h9.7
	v-7.9h-9.7V366.5z M183,349.9h-10.2v7.6H183V349.9z M172.8,366.5H183v-7.9h-10.2V366.5z M221.7,364.3c10,2.9,7.9,13.3,2.2,8.8
	c0-1-0.2-2.3-0.5-3.5l-2.3,0.7V393c0.3,0.4-3,1.8-5,1.5v-16.5c-0.3,0.1-0.6,0.2-1.1,0.2c-1.4,4.9-3.5,9.5-6.2,12.2l-0.8-0.4
	c1.3-3.3,2.3-8.9,2.7-14.1l5.5,1.1v-5.3c-1.5,0.4-3.1,0.8-4.8,1.2c-0.3,0.7-0.9,1-1.4,1.1l-1.9-5.4c1.3,0,3.3,0,5.7,0
	c2.8-5.2,5.8-11.8,7.7-16.5l6.8,2.8c-0.3,0.7-1.3,0.8-2.1,0.6c-2.6,3.8-6.6,8.9-10.6,13.1c2.3,0,4.8-0.1,7.5-0.2
	c-0.5-1.4-1.1-2.7-1.9-3.7L221.7,364.3z M208.5,354.4c1.7,0.4,3.1,0.8,4.2,1.4c0.9-2.8,2-6.7,2.8-10.1l7,2.4c-0.2,0.6-0.7,0.9-2,0.9
	c-2,2.7-4.2,5.5-6.4,7.6c4.2,2.2,1.4,8.5-2.3,5.3c-0.4-2.4-2-5.3-3.8-7L208.5,354.4z M252.2,360.8l4.9,4.4c-0.4,0.6-0.9,0.7-2.1,0.8
	c-1.6,6-4.1,11.6-7.9,16.4c2.8,3.1,6.2,5.6,10.2,7.6l-0.2,0.5c-2.4,0.1-4.5,1.5-5.7,4c-3.2-2.3-5.8-5-7.9-8.1
	c-3.4,3.2-7.5,5.9-12.7,8l-0.4-0.8c4.7-2.7,8.5-6.2,11.4-10.2c-2.5-4.7-4-10.5-4.9-17.7h0c-0.9,10.7-3.6,20.6-11.9,28.2l-0.8-0.7
	c1.7-2.5,3-5.1,4-7.8h0c-1.1,1.4-2.9,1.4-4-0.1c0.2-2.9-0.8-6.8-2.1-9.2l0.6-0.3c4.9,2.6,6.3,5.5,6.2,7.6h0
	c3.2-9.9,3.2-20.2,3.2-33.3h-4.3l-0.4-1H244l2.3-2.7l5.4,4.1c-0.4,0.5-1.2,0.8-2.3,0.9c-0.6,3-1.7,7.9-2.7,12.1h2.6L252.2,360.8z
	 M246,366.6c-1.5,0.8-3.4,0.6-5.2,0.2c1.4-5.2,2.8-12.1,3.6-16.6h-7c-1,10.1,2.2,22.3,7.1,28.9c2.5-4.5,4.2-9.3,5.2-14.5h-3.2
	L246,366.6z M270.3,371.5c5.4-5,10.9-14.3,13.8-24.5l7.8,3.1c-0.3,0.6-0.8,0.9-2.1,0.8c-4.7,10-11.1,16.9-19,21.1L270.3,371.5z
	 M296.6,365.9c-0.2,0.6-0.7,0.9-2.1,0.9c-2.1,5.6-5.6,13.1-9.7,19.4c5.8-0.2,12.8-0.4,20.4-0.6c-1.8-3.2-4.2-6.4-6.5-8.6l0.5-0.4
	c11,4.5,14.5,10.2,14.5,13.9c0,3.5-3,4.8-5.4,2.7c-0.5-1.9-1.2-4-2.3-6.1c-6.1,1.5-14.6,3-26.8,5.1c-0.4,0.7-0.9,1-1.5,1.1l-3.7-6.9
	c2.2,0,5.3,0,9.1-0.1c2.3-7,4.4-15.8,5.5-22.3L296.6,365.9z M319,366.6c-2.2,0.4-4,2.2-4.9,4.9c-7-5.2-11.7-13.7-14.3-25.1l0.7-0.3
	c3.6,9.1,11.2,16.5,18.7,19.9L319,366.6z M374.9,346.6l5.8,4.2c-0.4,0.5-1.1,0.9-2.2,1.1v40c0,0-1.3,1.8-5.3,1.8v-3.1h-32.8
	c-0.1,2.1,0.7,3.3-5.2,3.8v-47.2l5.7,2.4h31.9L374.9,346.6z M340.4,389.6h32.8v-39h-32.8V389.6z M367.4,358.8l4.7,3.2
	c-0.4,0.7-1.1,0.9-2.4,0.9h-27.8l-0.3-1h12.5v-4.2h-9.3l-0.3-1h9.6v-4.6l6.7,0.6c0,0.6-0.5,0.8-1.7,1v2.9h3.5l2.3-3l4.6,3.1
	c-0.8,1.8-8.7,0.6-10.4,0.9v4.2h5.8L367.4,358.8z M369.4,367.7c-0.2,0.4-0.8,0.7-1.5,0.8v5.3l3.5,3c-0.4,0.5-1.1,0.3-1.7,0.1
	c-1,0.6-2.8,1.5-4.3,2.1c2.9,0.4,7.9,5.4,3.3,6.7c-3.3-1.1-5-5.7-9.5-7.3v7.9c0.3,0.4-2.9,1.8-4.9,1.5v-9c-3.2,2.9-7.2,5.1-11.7,6.9
	L342,385c4.6-2.9,8.3-6.9,10.7-11.1h-2.5c0,1.1-0.1,1.9-4.6,2.2v-11.6l4.9,2h12.3l1.8-2.2L369.4,367.7z M350.2,372.9h13v-5.3h-13
	V372.9z M359.1,373.9v3.9c1.8,0.2,3.4,0.5,4.9,0.9c0.7-1,1.6-2.3,2.3-3.5c-1.5,0.4-1.8,0.4-3.1,0.4v-1.7L359.1,373.9L359.1,373.9z
	 M434.2,377.3L434.2,377.3c11.2,1.3,9.7,11.7,3.8,7.8c-0.3-2.4-2-5.4-3.8-7.2v14.9c0,0.1-0.9,1.6-5.3,1.6v-12.3
	c-2.6,3.3-5.8,6.1-9.5,8.5l-0.6-0.7c3.9-4.2,7-10,8.8-15.6h-7.7l-0.3-1h9.3v-7h-9.6l-0.3-1h14.5c0.8-3.2,1.5-7.5,2-10.6l7,1.7
	c-0.2,0.6-0.7,0.9-1.9,0.8c-1.5,2.3-3.8,5.5-6,8.1h3.3l2.6-3.3l4.9,3.4c-0.8,1.8-8,0.6-9.6,0.9c-0.1,0.3-0.5,0.6-1.5,0.7v6.3h3.1
	l2.5-3.5l4.7,3.6c-0.8,1.8-8.7,0.6-10.3,0.9L434.2,377.3L434.2,377.3z M420.1,354.1l-0.3-1h9v-7.5l7.5,0.7c-0.1,0.7-0.6,1.1-2.1,1.3
	v5.4h2.5l2.5-3.5l4.8,3.6C443.8,355.1,421.5,353.7,420.1,354.1L420.1,354.1z M423.9,354.6c8.7,3.7,5.9,13.8,0.7,9
	c0.3-2.8-0.3-6.5-1.3-8.7L423.9,354.6z M462.6,360.4l5.7,4.4c-0.7,1.3-4.6,0.8-6,0.9v27.2c0.2,0.5-3.2,1.9-5.4,1.5v-28.8h-5.6
	c0,10.3-0.4,21.4-12.9,28.7l-0.6-0.6c11.2-11.1,7.6-29.6,8.2-43.8l5.9,1.9c3.7-1.8,7.7-4.3,9.8-6.1l5.9,4.7c-0.8,0.7-1.9,0.5-3,0.2
	c-3.3,1.1-8.4,2.2-13.2,2.8v11.2h8.3L462.6,360.4z M528.7,351.4c-0.3,0.6-1.3,0.7-2,0.6c-2,1.6-4.3,3.2-6.3,4.1
	c4.9,1.3,6.5,3.6,5.2,6.4l4.1,3.9c-0.4,0.4-0.9,0.6-2,0.6c-1.7,1.3-4.5,2.9-6.7,3.8l0.2,0.1c-0.3,0.3-0.9,0.7-1.8,0.9
	c-0.5,4.6,2.4,7.1-5.4,7.2v-0.9h-5.4c-1.3,1.5-3.1,3.2-4.6,4.5H517l2.1-2.7l5.9,4c-0.3,0.4-1,0.8-2,1v7.8c0,0.1-1.4,1.5-5.4,1.5
	v-2.8h-24c0,1.6,0,2.6-5.3,3v-14.2l5.7,2.3h7.8c0.2-1.4,0.5-3.1,0.6-4.5h-5.2c0,0-0.8,1.7-5.3,1.7v-12.4l5.7,2.2h15.8l2-2.5l4.7,3.2
	c0.6-1.3,1.2-3.3,1.6-4.9h-32.5c1.8,10.4-13.3,7.1-5.2,1.6c1.6-0.6,3.2-2.2,3.5-4.3c-1.3,0.6-2.9,1.1-4.7,1.7l-0.6-0.7
	c10-4.5,10-10.5,10-18.1l6.7,0.5c0,0.6-0.4,0.9-1.8,1.1c-0.2,3.1-0.4,5.9-1.6,8.5c0.7,0,1.4,0.2,2,0.3l-0.5-0.4
	c1-1.5,2.4-4.2,3.7-6.8l5.2,2.7c-0.3,0.6-1.3,0.7-2,0.6c-1.9,1.5-4.2,3.2-6.1,4.1c6.5,0.8,6.5,8.8,1.2,6.4c-0.7-1.9-2.4-4.1-4.2-5.6
	c-1.2,2-3.3,3.8-6.5,5.4c0.3,0.8,0.5,1.5,0.7,2.2h32.4l1.2-1.2l-0.5-0.3c-1.1-2.1-3.2-4.5-5.4-6.1c-1.9,2.9-5.5,5.2-12.1,7.1
	l-0.5-0.7c9.8-4.5,9.7-10.3,9.8-17.8l7.1,0.5c-0.1,0.6-0.4,0.9-1.8,1.1c-0.2,3.1-0.4,6-1.8,8.6c1.1,0,2.2,0.2,3.1,0.4l-0.7-0.5
	c1-1.6,2.3-4.3,3.5-6.9L528.7,351.4z M488.8,348.8c3.4,10.3-10.2,9.4-4,4.3c1.6-0.6,3.1-2.3,3.1-4.2L488.8,348.8z M517.5,383.6h-24
	v6.9h24V383.6z M513.9,377.1v-6.4h-16.6v6.4H513.9z M510.3,348.9c1.1,3.2,0.8,8.2-3.4,8.4c-1.4,0-2.1-0.8-2.1-1.7
	c0.6-2.6,5-3,4.6-6.6L510.3,348.9z M557,364.3c10,2.9,7.9,13.3,2.2,8.8c0-1-0.2-2.3-0.5-3.5l-2.3,0.7V393c0.3,0.4-3,1.8-5,1.5v-16.5
	c-0.3,0.1-0.6,0.2-1.1,0.2c-1.4,4.9-3.5,9.5-6.2,12.2l-0.8-0.4c1.3-3.3,2.3-8.9,2.7-14.1l5.5,1.1v-5.3c-1.5,0.4-3.1,0.8-4.8,1.2
	c-0.3,0.7-0.9,1-1.4,1.1l-1.9-5.4c1.3,0,3.3,0,5.7,0c2.8-5.2,5.8-11.8,7.7-16.5l6.8,2.8c-0.3,0.7-1.3,0.8-2.1,0.6
	c-2.6,3.8-6.6,8.9-10.6,13.1c2.3,0,4.8-0.1,7.5-0.2c-0.5-1.4-1.1-2.7-1.9-3.7L557,364.3z M543.8,354.4c1.7,0.4,3.1,0.8,4.2,1.4
	c0.9-2.8,2-6.7,2.8-10.1l7,2.4c-0.2,0.6-0.7,0.9-2,0.9c-2,2.7-4.2,5.5-6.4,7.6c4.2,2.2,1.4,8.5-2.3,5.3c-0.4-2.4-2-5.3-3.8-7
	L543.8,354.4z M579.4,366.3c0.8,3.9,1.9,7.1,3.3,9.8c1.4-2.6,2.9-5.9,3.6-7.7l5.8,3.5c-0.3,0.5-1,0.6-1.6,0.3
	c-1.6,1.3-4.5,3.5-7.1,5.1c2.5,4.2,5.8,6.8,9.2,8.6l-0.2,0.6c-2.1,0.5-3.7,2.4-4.3,5c-4.8-5-7.4-10.9-8.8-21.7h-0.1v18
	c0,3.6-0.8,6.1-6.4,6.6c0-3.8-0.8-4.8-4.1-5.2v-0.7c7.6,0.2,4.7,0.5,5.2-8.3c-1.7,2.1-4.2,5.2-7.7,9c-0.1,0.6-0.4,1.3-0.9,1.5
	L562,386c-1.1,0.4-2,0-2.8-1c0.2-2.8-0.8-6.6-2-9l0.6-0.3c5.4,3.1,7,5.5,5.8,9c2.5-1.2,6.5-3.3,10.5-5.4v-13.1h-11.9l-0.3-1h16.9
	l0.9-5.6h-8.8l-0.5,2.2c-1.3,0.9-3.5,0.8-5.2,0.3c1-3.9,2.8-12.9,3.3-16.4l7,0.8c-0.1,0.7-0.6,1.1-2.1,1.2c-0.2,0.9-0.4,2.3-0.8,3.8
	h7.8l2.2-2.5l5,4c-0.4,0.4-0.8,0.6-1.8,0.7l-1.8,11.6h1.5l2.5-4.1l4.7,4.2C591.9,367.2,581.1,365.9,579.4,366.3L579.4,366.3z
	 M565.3,369.1c9.6,2.4,7.4,12.2,2.1,7.9c0-2.5-1.1-5.7-2.5-7.6L565.3,369.1z M572.4,352.5c-0.4,2-0.8,4.1-1.3,6.1h8.8l0.9-6.1H572.4
	z M646.2,360.6l2.1-2.4l4.1,2.6c-0.8,1.7-8.2,0.6-9.8,0.9v4.4h3.4v-3.2l5.7,0.5c-0.1,0.5-0.4,0.8-1.4,0.9c-0.4,3.3,1.7,4.4-4.2,4.6
	V367h-11.5c0,1.8,0.2,1.9-4.3,2.3v-6.6l5.6,0.5c-0.1,0.5-0.3,0.7-1.2,0.9v1.9h3.5v-4.4h-9.2l-0.3-1h9.5V357h-3.5
	c-1.1,1.3-2.4,2.5-3.8,3.4l-0.7-0.4c1.2-1.9,2.2-5.3,2.7-7.9l5.9,0.7c-0.1,0.6-0.5,0.8-1.7,0.9c-0.4,0.7-0.9,1.5-1.5,2.2h6.6l2-2.4
	l2.6,1.7c0.2-1,0.3-2.2,0.4-3.2h-33.5c0.1,1.5-0.2,2.8-0.7,3.8h9.4l2.2-2.5l4.2,2.7c-0.7,1.6-5.8,0.6-7.3,0.9v3.5h1.2l1.7-2l3.5,2.2
	c-0.7,1.4-5,0.6-6.4,0.8v3.2l7.5-0.5l0.1,0.8c-3.3,0.9-7.8,2.1-14.2,3.6l5,2h20.6l2-2.6l5.5,3.9c-0.3,0.4-0.8,0.7-1.7,0.8v13.5
	c0,0.2-1.6,1.4-5.4,1.4V386h-17.4l5.2,4c-0.7,0.6-1.8,0.4-2.9,0.1c-4.5,2.1-11.6,3.7-18.6,4.1l-0.2-0.7c6.2-1.5,12.6-4.8,15.9-7.6
	h-3.6c0,0.8-1.4,2.2-5.4,2.2v-19.5l-1.6,0.4c-0.3,0.7-0.8,1-1.3,1.1l-2.5-4.9c1.8,0,4.7-0.2,8.2-0.3v-3.5h-5.2l-0.3-1h5.5v-3.5h-4.5
	c-1.2,1.8-5.9,2-5.9-1c0.3-3.3,6-3.3,5.6-7.4h0.8c0.3,0.9,0.6,1.7,0.7,2.5h13.8v-5.6l7.9,0.8c-0.1,0.7-0.6,1.1-2.2,1.4v3.5h13.7
	l2.8-2.9l5,4.7c-0.4,0.4-1,0.5-2,0.6c-1.3,1.4-3.6,3.4-5.5,4.4l-0.5-0.4l0.1-0.5h-3.7v3.5L646.2,360.6L646.2,360.6z M640.6,371.5
	h-21.4v3.7h21.4V371.5z M619.2,380h21.4v-3.8h-21.4V380z M619.2,385h21.4v-3.9h-21.4V385z M632.6,387.3c16.2-0.3,24.8,4.8,16.4,7.2
	c-5.1-1.4-8.2-4.9-16.5-6.4L632.6,387.3z M710.1,346.9l6.2,4.4c-0.3,1.9-23.1,0.5-24.5,0.9c-2.1,5.7-5.1,11.2-9,16.2
	c-0.5,1.1,20.8,0.6,21.3,0.7l2.3-3.1l6.3,4.5c-0.4,0.5-1.3,1-2.4,1.2v20.5c-0.1,0.1-1.6,1.5-5.7,1.5v-4.3h-20.8
	c0.3,4-0.1,4.8-5.5,4.9v-20.9c-3.1,3.1-6.5,5.8-10.4,8l-0.4-0.7c8.3-7.3,14.5-18.2,17.3-28.6h-16.4l-0.3-1h38.7L710.1,346.9z
	 M704.7,370.1h-20.8v18.3h20.8V370.1z M430.1,450.3h-1v-28.2h1V450.3z M463.7,449.7h-17.1v-3.6l9.5-8.7c11-7.8-5.1-16.5-5.8-5.1
	h-3.7c0.6-17.5,27.3-5.8,13.3,6.2c0,0-8.4,7.6-8.4,7.6h12.3L463.7,449.7L463.7,449.7z M476.6,441.6h-9.3v-3.3h9.3V441.6z
	 M495.3,449.7h-3.8v-4.5h-11.9v-3.3l11.9-18h3.8v18h2.7v3.3h-2.7V449.7z M491.5,441.9v-12.7l-8.1,12.7H491.5z M518.1,441.3
	c-0.1,0.6-0.2,1.2-0.3,1.8h11.2c-0.2,8.2-1.7,10.1-9.1,9.4c0-1-0.5-2.4-1.1-3.3c3.6,0.1,5.6,1.4,5.9-3.1h-7.9
	c-1.4,2.8-3.9,5-8.9,6.5c-0.4-0.9-1.4-2.3-2.2-3.1c-0.7,1.3-1.4,2.4-2.4,3.4c-0.6-0.8-2.2-2.4-2.9-2.9c5.8-7.2,3.6-17.8,4-26.1
	c7.9-0.4,16.8-1.3,22.2-2.5l3.1,2.9c-5.9,1.3-13.9,2.1-21.2,2.5v1h21.7v8h-9.6c0.4,0.7,0.8,1.5,1.1,2.3h10.5v3.1L518.1,441.3
	L518.1,441.3z M508.1,441.3c-0.4,2.8-1.1,5.6-2.4,8.1c6.1-1.6,7.7-4.4,8.2-8.1H508.1z M517.2,438.2c-0.2-0.6-0.5-1.2-0.8-1.7
	l3.3-0.6h-11.3c0,0.7-0.1,1.5-0.1,2.3L517.2,438.2L517.2,438.2z M508.5,430.9v2h17.6v-2H508.5z M301.1,451H287v2.1h-3.8v-16.8
	c-0.5,0.5-0.9,1-1.3,1.5c-0.4-0.7-1.2-1.6-1.9-2.4v9.7h-6.3v2.6h-3.8V426h10v8.2c2.6-3,4.9-7.4,5.9-10.9l4.1,1c-0.6,1.5-1.3,3-2,4.5
	h4.7c-0.5-1.3-1.3-2.9-2.1-4.1l3.5-1.4c1,1.4,2,3.3,2.5,4.5l-2.2,0.9h6.2v3.4h-5.5v2.8h4.7v3.4h-4.7v2.7h4.7v3.4h-4.7v2.9h6
	L301.1,451L301.1,451z M276.2,429.6h-2.5v11.8h2.5V429.6z M291.2,432.3H287v2.8h4.3V432.3z M291.2,438.5H287v2.7h4.3V438.5z
	 M287,447.5h4.3v-2.9H287V447.5z M335.5,435.8v4.1h-31.8v-4.1H335.5z M350.8,450.3h-4.4l6.1-8.8c-9.9,3.2-14.6-12-5.9-16.4
	c5.7-3.4,14.1,0.8,14.1,7.6C361.2,437,353.5,446.2,350.8,450.3z M357.1,433.4c0.3-7.2-11.6-7.7-11.2-0.2
	C345.5,440.3,357.1,440.3,357.1,433.4z M372.3,450.3h-4.4l6.1-8.8c-9.9,3.2-14.6-12-5.9-16.4c5.7-3.4,14.1,0.8,14.1,7.6
	C382.6,437,374.9,446.2,372.3,450.3z M378.5,433.4c0.3-7.2-11.6-7.7-11.2-0.2C366.9,440.3,378.5,440.3,378.5,433.4z M412.8,431.6
	V445h-4.2v-1.6h-16c-0.8,3.6-2.2,7.3-5.1,9.9c-0.6-0.7-2.3-2.1-3.2-2.6c6.8-6.9,4.5-16.4,4.9-24.5c7-0.6,14.8-1.7,19.5-3l3.2,2.9
	c-5.3,1.4-12.2,2.3-18.6,2.9v2.7L412.8,431.6L412.8,431.6z M408.6,439.8v-4.7h-15.2c0,1.5-0.1,3-0.2,4.7H408.6z M631.2,184.8
	c6.4,14.3,13.5-8.3-5.3-18c-1.3,0.4-1.2,2.4-0.6,2.8C626.9,171.7,628.9,176.8,631.2,184.8z M626.3,167.4
	C626.3,167.4,626.3,167.4,626.3,167.4L626.3,167.4L626.3,167.4z M630.6,223.7c-1.7-3.7-5.1,5.4-6,6.2h-8.4
	c0.2-13.7,2.1-4.5,4.3-11.7c0.2-4.8-6.2-4.4-9.4-5.4c-2.8,0.1-0.8,14.6-1.8,17.1c-9.4,0.8-12-4.4-10.2,4.7c0.2,1.1,1.2,1,1.8,0.6
	c0,0,4-0.9,4-0.9h4c-2.8,18.8-3.2,25.4-13.5,36c-0.5,0.4-0.7,1.2-0.6,2.3c0.3,1,1.1,1.1,1.9,0.7c12.8-5.8,17.1-23.4,18.9-39h9.6
	c-1.2,16,1.3,21.5-5.7,28.4c-0.6,0-1.9-0.3-4.4-1.7c-1.2-0.5-1.7,0-2.1,1.1c0.3,4.3,5.1,5.5,4.5,13.6c15.9-3.2,13.4-18.8,15.3-36.9
	c0-0.2,0.1-0.8,0.2-0.8C640.7,236.1,632.7,227.1,630.6,223.7z M641.4,219.9c-3.9-2-7.8-6.4-11.4-12.9c2.6-0.5,12.5,2,9.1-4
	c-5-9-4.3-12.1-9-0.4h-2.3c-1.9-4.3-3.5-8.9-4.8-13.8h5.7c4.7-1-2.3-9-2.8-11.3c-2-3.9-4.4,6.2-5.2,6.9H617c1.2-5,1.7-10.3,2.6-15
	c4.3,0.1,4.9-6.7,0.7-7.6c-0.4,0-7.4-2.7-7.6-2c-1.7,8.6-1.1,18.4-2.3,24.6c-1.4,0.3-6.3-1.4-7.5-0.6c-0.2,7.8,0.6,5.9,6.8,4.9
	c-0.9,4.6-1.8,9.3-3.2,13.9c0,0-6,0-6,0c-1,0.1-6.3-1.7-6.8-0.3v-9.5c3.2,4.2,11.8-14,13.5-19.7c1.8,0.4,3-0.4,3.3-2.4
	c0.5-4.5-4.9-4.6-8.1-6.5c-2.2-0.2-1.1,3.2-1.7,4.5c-0.9,8.4-3.4,15.9-7.1,22.7v-16.4c1.2-0.7,2.6-1.2,2.9-2.5
	c0.5-1.4,0.1-3.2-1.4-5.5c-0.6-0.6-3.7-6.7-4.7-6.6c-1-0.4-4.1,5.4-4.7,5.9c-0.9,0-4.4,0-5.2-0.1c-2.2-1.2-6.7-7.2-7.2-3.4
	c0,0,0,41,0,41c0.7,30.4-2.8,52.2-3.7,69.6c6-0.2,8.8-32.4,10-47.1h7v34.6c-0.2,2.7-2.5,1.1-4.9,0.5c-1.9-0.9-2.5,2.7-1.1,3.4
	c2.4,2.2,3.8,5.8,3.9,10c5.7-0.4,9.1-4.8,9.2-9.5c0,0,0-32.9,0-32.9c7.5-3.9,12.2-13.9,17.3-25.1H624c3.5,9.6,5.8,17.8,11.3,22
	c0.2,0,0.7-0.2,0.9-0.7c0.8-2.6,2.3-4.2,4.8-5.1C642.4,223.1,642.8,220.5,641.4,219.9z M580.3,194.9v-24.1c0.9-0.4,5.2-0.2,6.2-0.3
	v24.4H580.3z M586.5,199.2v22.5h-6.7c0.2-7.2,0.5-15,0.5-22.5H586.5z M622.8,202.5h-10.3c1.4-4.5,2.6-9.1,3.6-13.8h3.7
	C620.6,193.5,621.6,198.2,622.8,202.5z M594.2,207.1c0.2,1.8,5.1-0.4,6.2-0.2c0,0,4.6,0,4.6,0c-3.3,9.1-7.1,16.5-11.4,21.9v-25.5
	C593.8,204.6,594,205.9,594.2,207.1z M462.8,219.7c0.2,12.2-18.9,12.5-18.7,0C444,207.2,462.8,207.5,462.8,219.7 M391.5,182.5
	c-0.7,0.1-0.9,0.7-1.3,1.1c0,0,0.1,0.1,0.1,0.1c0.4-0.4,0.9-0.7,1.3-1.1C391.6,182.6,391.6,182.5,391.5,182.5 M383.7,253.2
	c-0.7,0.2-0.3,0.6,0,1C384.2,253.8,384.2,253.5,383.7,253.2 M388.1,241c1.3,0.3,1.7-0.2,1.4-1.7C388.7,239.3,388.2,239.9,388.1,241
	 M388.6,211.4c0-1.1-1.6-0.9-1.5,0.3C387.6,212.3,388.6,212.4,388.6,211.4 M415,261.5c0.3-0.9,0.8-1.9-0.1-2.5
	C414.9,260.2,415,261.6,415,261.5 M430,225.6c-1.2-1.3-2.2-2.8-4-3.2c-1.7-2.1-3.8,0.8-6-0.1c-1.9,0.8,2.3,1.6-2.4,3.3
	c-2.2-6.6,1.5-5.7,3.6-9.8c1.4-0.5,2.3-2.4,1.6-3.8c-0.1,0-0.2,0-0.3,0c-0.4,0.7-0.8,1.5-1.2,2.2c-3.6-1.5,3-2.7,0.9-4.7
	c-1.2-1.1-3.9,1-4.3-0.8c0.3-0.7-0.3-3.1,1-2.3c0.1,0.1,0.4,0,0.4-0.1c-0.8-2.1,2.7-3.9-0.4-5.3c-0.4-0.2-0.6-0.4-0.4-0.9
	c0.4-1.5-1.3-2.9-2.3-3.8c-0.9,0.1-1.6,1.5-1.9,2.2c-2.9,1.6-0.6,4.7-0.5,7c-0.3,1.6,0.5,3.7-0.5,5.1c-7,3-11,9.9-17,14.3
	c-0.4-2.3,0.3-4.8-0.9-6.8c-0.4-0.5-0.8-1.2-0.1-1.9c0.8-3.2,3.3-5.2,5-7.9c0.3-0.7,1.7,0.3,1.5-0.8c-0.3-2.8,1.2-5.5,3.5-7
	c2.9-2.1,6.9-2.2,9.3-4.8c4.2-3.9,2.2-11-3.6-6c-0.2-0.2-0.3-0.4-0.4-0.4c-0.5,0.5-0.7,1.9-1.5,1.2c-0.8-0.4-0.2-0.9-0.1-1.6
	c-0.5,0.5-1.3,0.9-1.3,1.6c0.5,1.5-1.1,2-1.4,3.1c0.8,3.6-1.8,5.7-4.2,8c-1.7,1.2-1.2-1.8-1.3-2.7c-0.3-2.1,1.8-2.7,3.2-3.8
	c-0.3-0.2-0.5-0.4-0.5-0.4c0.3-1.3,0.2-1.6-1.2-1.6c-1.9-5.2,2.7-10.4,7.9-10.8c2.6,0.1,7.9-1.8,2.9-3.2c0.4-0.5,1-0.7,1.6-0.9
	c-0.4-0.7,0.1-1.2,0.5-1.6c0.8-1.6-6.3-0.8-7.6-1.2c0.7,1.5,0,1.6-1.2,2c-1.6,1.1-2.1,0.2-1.7-1.4c0-0.5,0.3-0.7,0.7-0.8
	c0.8-0.2,1.6-1.2,2.3-1.3c0.9,0.3,0.5-0.8,0.9-1.1c0.7-0.7,1.8-1.2,2.4-1.9c-0.4-0.9,0.8-1.1,0.7-1.9c-0.3-0.8,0.9-1.1,0.8-2
	c0.1-0.6-1.4-1.5-0.2-1.8c1.6-2.4-3.2-3.6-4.7-2c-0.4,0.2-0.5,0.2-0.7-0.1c-0.5-1.3-1.9-1.7-2.5-2.8c1-0.4,2,0.7,3,0.8
	c0.7-5.1-2.5-2.2-3.9-4.4c-0.6-1.9-0.8-3.3-2.9-1.4c0.7,0.7,1.5,1.4,2.4,1.9c-1.7,1.2-2.9,2-4,3.7c-0.7,0.4-1.7,0.4-1.9,1.5
	c-0.7-0.8-0.8-1.3-0.2-2.2c-0.3-0.1-0.5-0.2-0.8-0.4c-0.4,1.3,0.4,2.7,0.5,4.1c0.3-0.3,0.2-0.7,0.3-1.1c2.5-0.4,3,6,0.8,6.6
	c-2.5,0.8-8.4,5.4-8.5,3c-0.1-1.3-2.8-2.7,0-2.5c-1.2-1.9-5.5-2.8-5.3,0.5c-0.1,0.9-1.8,0.7-2.3,1.4c-1.6,2.3,0.2,5.6,2.1,7.2
	c1.6,0.5,3.4,0.2,4.7,1.7c1.3,1.2,1.9-0.9,3-0.6c0.7,0.2,1.2,0,1.2-0.8c0.3-1.7-0.8-3.9,1-4.9c1.2-0.9,4.4-3.2,5.2-0.9
	c0.3,1.9-1.8,3-2.4,4.8c-1.3,3.8-4.8,6-7.9,8.4c-1.1-0.5-1.9-0.3-2.2,0.8c-1.1,2.7-4.9,2.4-6.6,4.6c-2.8,1.8,1.7,5.3,4,4.8
	c3.2,0.6,4.8-3,7.6-4c-0.4-0.2-1,0.4-1.5,0.6v-1c-0.6,0.5-1.3,1.5-1.8,0.7c-1.5,0.3-4.1,3-4.7,0.5c1.3-0.1,3-1.3,3.6-2.3
	c0.1-1,1-0.6,1.7-0.7c2.6-1.1,0.6,0.6,1,1.4c1.8-2.9,5-4.5,7.9-6c0.6,1.1-2.1,3.9-2.7,3.9c0.1-0.2,0.2-0.4,0.4-0.8
	c-2.7,1-5.1,1.9-0.8,1.2c-2.4,2.2,0.8-0.2,2-0.6c-0.2,2.2-0.4,5.6-1.8,7.3c-0.3-0.9-1.7-0.6-2-1.5c-6-0.1-1.1,2.2-5.3,4.9
	c-1.1,1-0.2,2.5,0.1,3.6c0,1.8,0.7,2.8,2.4,3.6c0.9,1.4,4.7-3,5.8-3.7c1.5,2.8,1.1,3.5-1.5,5.1c-1.9,1.1-2.7,3.3-4.2,4.7
	c-4.9,2.6-6.3,8.8-9.9,12.8c-1.1,1.2-3.1-0.4-4.5-0.3c-1.9,0.1-3.6-1.1-5.4-0.5c-0.2,0.1-0.7-0.2-0.7-0.3c2.5-9.1-5.4-8.8,3.1-13
	c0.6-0.4,0.5-0.7,0.1-1.4c-0.7-3.4,3.3-5.9,5.6-7.7c1.3-0.8-1.7-1.8-2-2.7c-1.7-2.9-4.8-5.8-8.4-4.2c-1.8,0.4-0.1-2.2-0.4-3
	c0.1-3.2,3-3.8,5.1-5.3c3.2-3.3-2.5-7.5-5.7-6.7c-2.6,0.2-1.6-5-2.1-6.8h-0.1c-0.1,0.3-0.1,0.6-0.2,0.9c-0.9-0.5-1-1.9-0.2-2.9
	c0.1,0.5,0.2,0.9,0.3,1.3c0.5-1.8-0.6-1.7-1.1-3.1c-0.1-1-0.2-1.2-1.2-1.3c-7.1-2.1-11.8,11.5-7.8,16.3c1.8-0.2,3.6-1,5.3-1.4
	c1,1.8-2.5,2.8-3.5,3.9c-1.6,1-3.2,1.8-3.1-0.9c-0.7,0.8-1,1.6-1.7,2.3c-1,1-3.4,1.3-2.8,3.1c0.3,1.2,1.3,3.1,2.6,3.1
	c0.4-0.5,0.8-0.3,1.3-0.1c1.7-0.6,4-1.6,4.5-3.5c0.3-0.5,0.7-0.2,0.7,0.4c1.6-0.4,2,0.4,1.9,1.9c1.7-2.8,1.2,1,1.4,2.2
	c0.3,1.5-0.3,2.4-1.6,3.1c-1.7,1.3-3-1.2-4.7-1.4c-1.3-0.3-1.2-0.9-1.3-2.1c-4.9,1.5-6.3,5.7-8.2,9.9c-2.8,4.9-8,9.9-7.5,15.7
	c1.9,6.4-14.3,32.7-3.4,31.6c0.4-1,1.5-1.4,1.4-2.7c-0.3-9.9,4.5-19.6,7-29c1.1-2.7,11.6-14.7,10.4-5.9c-1.6,1.6-10.9,6.2-5.6,7.8
	c0.6-0.3,0.8,0,1.1,0.4c1.4,2.4,4.5,1.9,5.2-0.4c1.4-2.1,4.3-2.7,6.2-4.3c7.6-6.2,2.2,5.6,3.7,9.4c0,0.3,0.1,0.7-0.5,0.7
	c-2.1-0.2-0.6-1.9-0.5-3c-0.1,0-0.2-0.1-0.3-0.1c-1.6,5.1-2.4-1.5-7.3,2c-4.1-1.8-3.9-3.9-9.3-1c-1.2,6.3,0.8,12.5,6.4,16.4
	c0.7,0.6,0.9-0.2,1.4-0.4c1.2,0,3.3,0.9,3.9-0.5c-0.4-0.9,0.5-2.5,1.3-2.6c2.7-0.1-0.2-5.4,3.7-5.1c2.1,0.5,2,4.3,4.2,5.3
	c0.1-0.1,0.2-0.1,0.2-0.1c-0.3-0.7-0.5-1.4-0.8-2.2c1.7,0.6,2.7,2.1,4.4,2.4c-1.2-2.9-0.8-2.3,1.6-4.1c1.1-0.2,1.6,0.4,2.1-1
	c0.6-1.8,2-3,3.3-4.4c2.2,1.5-1.2,5.3,1,5.5c7.2,0.9,7.2-9.1,12.7-11.8c-4.1,18.6-18.4,14.9-15,21.6c1.2,0,1.2,3.6,2.6,1.7
	c0.9-2.9,2.6,0.3,4.3-2.5c1-1.4,1.8,1.7,2.5,2.3c0.1,0,0.2,0,0.3-0.1c0.2-0.6,0.4-1.1,0.6-1.8c2.2,2.5,1.8-2.8,1.9-3.9
	c-1.4,0.6-0.6,2.3-1.7,3.4c-0.4-7.2,7.5-11.1,10.6-17l0,0l0,0c-0.3,0.1-0.6,0.3-1.2,0.5c0.5-1.2,1.6-1.6,2.2-2.4
	c0.4,0.4-0.8,1.4-1.1,1.9c0,0,0,0,0,0c0,0,0,0,0,0c2.8-1.3,4.3-4.8,6.9-6.2c-0.8,3.6-3.7,7.1-3.3,11c0.8,2.1-1.5,2.4-3,2.2
	c-2.3,0.7,0.4,4.1,1.8,4.7c4.4,2.7,8.7-0.6,13-1.4c0.2,8.8-2,19.7-2.1,30.8c0.7,3.2-3.6,18.9,2.1,10.3v2.4c0.1,0,0.2,0,0.2,0
	c0.2-1.1,0.3-2.1,0.5-3.3c-0.5-0.4-0.5-1.6-1.5-0.9c-0.3-0.7,0-1.6,0.6-2.3c-0.1,0.5-0.1,0.8-0.2,1.5c2.2-2.8,1.1-7.8,1.8-11.3
	c0.4-1.5-1-0.5-1.8-1.2c-0.1-0.4,0.3-0.4,0.6-0.3c2.3,0.2,1.3-3.8,1.6-5.2c0,0,0,0,0,0c0.4-0.7,0.1-1.3,0.2-2.1
	c-0.1,0.5-0.2,1.1-0.3,1.6c0-1.6-0.1-3.1,0.3-1.6c1-5.4,1-11.1,1.7-16.7c0-1.2,0,3.1,0.4,2c0.3-3.8-0.3-7.7,3.7-9.5
	c1-1.3,2.9-0.8,3.9-2C425.5,228.3,431.4,228.2,430,225.6z M418.1,213.4c0.1-0.1,0.4,0.3,0.6,0.4c-0.3,0.3-0.5,0.5-0.9,0.9
	C417.2,214.1,417.5,213.8,418.1,213.4 M404.7,172.7c0.6-0.8,0.9-2,1.7-2.6c0.4,1.1-1,2.2-1.6,3.2c-0.1,0-0.1,0-0.2,0
	C404.6,173.1,404.6,172.8,404.7,172.7 M411.1,179.4c0.6,0.2,0.5,0.9,0,1.1c-1.2,0.5-1.4-0.8-2.3-1.4
	C409.6,179.2,410.4,179.2,411.1,179.4 M403.6,182.9c1.1-2.7,4-4.8,6.1-1.9c-2,1.1-4.1,2.4-6.3,2.8
	C403.5,183.5,403.5,183.2,403.6,182.9 M398.9,177.1c-0.1-0.5-0.2-1-0.3-1.6C399.2,175.8,399.4,176.5,398.9,177.1 M396.3,182.1
	c-0.5,0.4-0.9,1-1.5,1.1c-0.1-0.6,3.8-4.2,3.9-3.3C398.7,181.6,397,181,396.3,182.1 M360.9,209.7c-0.3,0.3-0.3,1-0.5,1.3
	c-0.4,0.1-0.9,0.4-1.2,0.2c-1.6-0.7,0.2-1.6,0.4-2.6c0.4-1.2,2-1,2,0.3C361.4,209.2,361.1,209.4,360.9,209.7 M354.6,237.7
	c-1.6,1.7-3.6-2.7-3.4-4.2C353.8,226,357.2,233.2,354.6,237.7 M366.6,207.4c-1.9-2.3,1.7-4.5,3.7-4.6
	C369.8,204.7,368.6,206.5,366.6,207.4 M367.9,223.1v2.3c-0.1,0-0.1,0-0.2,0c-0.4-2.4,0.1-5.1,0.9-7.3
	C369.5,218.3,369.3,223.9,367.9,223.1 M372.3,231.3c-0.8,1.2-1.8,2.4-2.6,3.5c-0.1-0.1-0.2-0.1-0.3-0.1c-0.9-2.1,0-4.2-0.3-6.4
	C370.2,228.9,372.8,229.8,372.3,231.3 M413.2,228.2c-0.2,1-1.3,1-1.9,1.6c-0.1,0-0.2,0-0.3,0c-0.3-1.5,1.2-3.1,2.1-4.2
	C413.6,226.5,413.4,227.4,413.2,228.2 M416.4,206.8c0,0.2-0.4,0.3-0.6,0.4c-0.1-0.1-0.2-0.1-0.2-0.1c-0.1,0.6-0.2,1.1-0.3,1.7
	c-0.1,0-0.1,0-0.2,0c-0.4-1.2,0.2-2.6-0.5-3.9c-0.2-0.8,0.1-1.1,0.9-1.3C416.8,203.6,416.6,205.9,416.4,206.8 M393.3,180.9
	c-0.5,0.5-1,0.9-1.6,1.4C392.6,182.3,393.2,181.7,393.3,180.9 M172.7,211.1c-1.8,1.2-3,3.7-2.4-0.6c0.7-2.4-2.1-5.5-4.4-3.9
	c-0.8,0.1-0.7-1.1-1.2-1.6c-0.1,0-0.2,0.1-0.3,0.1c1.8,2.8-4.9,25.8,1.4,22.2c1.1-0.2,2.8,0.1,3.7-0.6c0.5-0.7,0.9-0.4,1.3,0
	c3.4,1.8,11-1.4,6.3-5.3C180,217.6,177.5,211.9,172.7,211.1 M166.3,195.7c-1.4-1.3-6.1-4.6-5-6.3c0.2-0.3,0.1-1,0.4-1.3
	c3.8-4.1,2.2-0.5,5.6,0.9c1.3,0.8-0.4,2.9,0.7,4.2c-0.7,1.5,0,3.7,1.5,4.5c6.6,2.3,2.9-3.7,6.1-6.3c2.5-3.9-1.1-5.4-1.2-9.2
	c-2.3-4.8-3.4-2-6.9-2.9c-4.6-0.5-7.4,4.2-9.6,7.5c-0.9,2.7,1.4,5.2,1.8,7.9c0.3,1.1,1.5,0.7,2.3,0.9
	C163.4,196.1,164.7,196.3,166.3,195.7 M182.3,232.7c-17.1,16.4-8.1,14.1-18.1,2.5c-0.2,2.9,1.6,5.8,0.6,8.7
	c-0.8,1.5,0.1,3.2-0.7,4.7c-2.4,6.2-3.8,5.2,1.2,10.2c1.5-0.5,2.1,2,3.5,1.6c1.4-0.5,3,0.6,4.4,0.2c0.8-0.9,2.1-0.4,2.8-1.3
	c0.8-1.4,3.2,0.3,3.7-1.9c2.2-3.9-2.5-4.1-1-6.8c1.4-2.5,1.1-5.1,2.1-7.6c-0.2-0.4-0.3-0.7-0.6-1.2c-1.1,1.2-2.1,2.3-3.2,3.4
	c0,0-0.1-0.1-0.1-0.1c0.5-1,1.1-1.9,1.7-2.9c-0.1-0.1-0.2-0.1-0.3-0.2c-1.1,1.2-2.1,2.4-3.2,3.6c0.2,0.4,0.3,0.9,0.5,1.5
	c-0.2,0.2-0.5,0.9-0.9,0.9c-0.6-0.1-2.1-1.2-1.3-2c3.2-4.9,10.6-8.6,11-14.5C183.6,231.9,182.9,232.2,182.3,232.7 M209.1,240.3
	c-0.3,1.6-1.4,3.8,0.1,5c0.3,0.3,0.7,0.6,0.6,1.2c-1.2,3.3,1.3,5.6,2.3,8.5c0,2.4,4.4,2.7,3.4,5.2c-0.5,5.3-0.4,5.3-5.6,3.3
	c0.9,1.2,1.2,2,1,3.3c0.2-0.7,1.3-1,1-2c0.4,0.1,0.7,0.2,1.2,0.3c-0.3,0.3-0.6,0.5-0.7,0.6c1.2,1.4,3.3,2.6,3.6,4.4
	c0.2,1.9,1.7,2.2,2.8,3.1c3.1,4,9.5-2.9,4.1-6.2c0.2-0.3,0.4-0.2,0.8-0.3c-3.4-4.5-2.2-9.9-1.5-15.1c0.2-9.1-1.3-18.5-0.8-27.7
	c0.5,0.1,0.9,0.2,1.2,0.2c1.3-2-1.1-3.8-0.6-5.9c0.3-2.5-4.2-3.5-4.3-5.8c-4.1-3.9-10.7,1.7-13.6,5.1c-2.4,1.8-7.5,3.1-5.2,7.2
	c0,3-0.8,5.9,0.2,8.9c-1.4,6.9-0.4,14.5-1.8,21.2c-0.9,7.8,1.6,19.3,10.2,21.3c5,2.3,5.3-2.1,3.2-5.4c-0.6-0.2-0.6-0.7-0.7-1.2
	c-0.1-1.1-1.1-2.1-0.6-3.3c0.7-1.1-0.3-1.7-0.5-2.7c0.1-0.6-0.5-1.5-1-1.6c-2.6-1.5-2.8-5.4-3.4-8.1c-1.7-3.9,1.3-7.7,1-11.4
	c0.1-0.3,0.7-1,0.8-1.4c0.5-3.3,2.4-10.1,3.6-2.6c0.6-1.6,0.7-3.3,0-5c6.1,1.2-0.2,8.3,2,11.9c-1.7,0.6-1.1-1.5-1.3-2.5
	C209.3,241.7,208.7,242.9,209.1,240.3z M213.3,230.9c0.3,0.9,0.2,2.9-0.9,1.4c-0.4-0.7-0.7-1.5-1-2.2L213.3,230.9z M214.3,244.9
	c-1.3-0.3-1.4-0.5-0.9-2.2C214.2,242.7,214.7,243.9,214.3,244.9 M215.2,227.6c-1.5,3.4-1.5-0.7-3.4-0.9c-0.5-0.1-1.1-0.3-1.5-0.6
	c-1.1-0.5-2.2,0.5-3.4,0.4c0.1-1,0.2-1.7,0.3-2.5c1.8-0.8,3.3-2.9,5-3.8C215,221.5,216.2,224.7,215.2,227.6 M310.3,204
	c-0.6-0.2-0.6-0.2-1.1-0.3c3-2.1,2.8,3.8,4.4-1.3c0.2-0.8,0.4-0.2,0.9-0.1c-1.3-1.6-2.9-0.1-3.7-2.7c-2,2.1-5.5,1.1-8.2,1.8
	c-4,0.9-7.7,2.1-11.8,2.8c1.9-2.1,0.7-5.1,2.8-6.9c1.9-5.5,5-11.2,6.1-17.1c0.7-6.5-4.1-10.4-9.9-11.6c-6.6-0.7-12.3,3.4-18.3,5.5
	c-1.4,0.8-3.5,1-4.6,2.1c-0.3,0.8-0.1,2.2-1.3,2.2c-0.9,0.2-2.2-0.8-2.7,0.4c-0.1,0.3-0.5,0.6-0.7,0.6c-2.7,0.5-4.2,3.6-6.2,5.4
	c-1.1,2.1-0.4,4.8-0.4,7c1.1,2.2,1.2,5.5,3.7,6.2c0.6,1.1,0.9,2.7,2.5,2.6c3,1.4,5.4,3.8,7.4,6.5c0.5,1.9,2.9,2,3.2,0.1
	c0.8-0.3,0.9-1,1.3-1.6c2.1-2.4,3.3,0.4,3.5,2.5c-0.5-0.4-0.8-0.7-1.3-1c0.1,0.7,0.1,1.1-0.1,1.6c-0.1,0-0.1-0.1-0.2-0.1
	c0-0.3,0-0.7-0.1-1c-0.1,0-0.1,0-0.2,0c-1.5,3.9-15.1,3.9-16,6.9c-0.1,0.9-2.3,2.5-2.1,0.7c0.6-0.7,0-1.2-0.3-1.7
	c-0.2,0.8-0.5,1.6-0.7,2.4c-1.2-1-2.3,0.2-3.6,0.1c-0.8-0.1-1.9-0.6-2.5,0.2c-1.3,1.9-1.8,4.1,1,4.4c-0.7,0.7-2-0.3-2.8-0.6
	c-0.1,0-0.1,0.1-0.2,0.1c0.4,2,0.1,4,2,5.3C252.4,216.2,299.5,206.9,310.3,204 M260.6,197.8c-3.1-1-0.7-4.9-2.6-6.6
	c0,0,0.1-0.1,0.1-0.1c2,0.5,2.1,2.3,2,4C260.4,196.2,261.4,196.5,260.6,197.8 M270.5,187.9c-2.2,1.3-1.9-1.7-2.8-2.9
	c-0.7-1.1,0.1-3,1.3-3.3c3.1-1.1,5.7-3.5,9.1-3.8c2.7,0.1,7.4-4,8.8,0c0.4,1.7,0.8,3.6-1.2,3.8C280.9,184.1,275.1,184.6,270.5,187.9
	 M281.7,195.4c-2.1,0.6-3.7,3.9-6.5,3.3c-1.3-0.3-3.1,0.5-4.2-0.4c0.3-0.7,0.3-1.6,0.8-2c3.3-1.1,5.2-5.3,9.3-5.2
	c1.3-0.4,5.3-3.6,4.5,0.2C284.5,193,283.2,194.5,281.7,195.4 M285.7,205.2c-3.4,1.5-4.5-5.5-0.8-3.9c0.6,1.5,1.8,2.4,2.8,3.6
	C286.9,205,286.3,205.1,285.7,205.2 M292.3,256.1c-0.4-1-1.4-1.6-1.3-2.8c0-0.4-0.2-1-0.3-1c-1.6-1-1.3-3.2-3.1-4.5
	c-0.4,0.1-0.8-0.8-1.6-0.4c-1.9-1.1-4.9,0.6-6.3,1.9c-1.4-0.2-0.6,1.5-1.4,1.8c0.2,4.4,2.5,4-1.4,7.8c-2.2,4.5-8-2.5-12.4,2.2
	c-0.8,1.1-1.8,3.1-1.2,4.4c0.6,0.6,0.2,1.3,0.3,1.9c-0.1,2.5,1.7,5.1,3.4,6.8c1.1,0.6,3.1,3.3,4.3,1.7c0.7-2.1,4.2-0.7,3.7-2
	c-0.7-1.8-1-6.6,1.9-3.8c2.1,3.1,9,8.2,11.6,3.4c1.3-4.2,4.3-7.8,2.3-12.4c0.2-1,1.7-0.2,2.4-0.3
	C295.5,260.2,292.7,257.5,292.3,256.1 M286.6,270.2c-0.5-0.3-1-0.4-0.6-1.1c-0.4-1.1,0.3-2.4,1.5-2.7c0,0.4,0.1,0.6-0.1,1
	c0.2,0.1,0.4,0.2,0.6,0.4C287.5,268.6,287.1,269.4,286.6,270.2 M261.5,269.1c-0.2,0-0.4,0.3-0.6,0.5c0.2,0.2,0.4,0.4,0.7,0.8
	C262.1,269.8,262.2,269.3,261.5,269.1 M279.9,229.9c0,0.1,0.1,0.1,0.1,0.2c0.6-0.2,1.1-0.5,1.7-0.7c0-0.1-0.1-0.2-0.1-0.3
	C281,229.4,280.4,229.6,279.9,229.9 M236,192.2c-4.8-3.1-9.6,0.4-14.6,1.2c0-0.1-0.1-0.2-0.1-0.2c2.5-2.9,6-4.8,8.8-7.2
	c-0.6-3.6-4.7-3-7.4-3c-1.6-0.2-1.2,2.3-2.6,2.9c-2.9,3.5-5.2,8.1-8.9,10.9c-0.7-1.5,1.2-3.2,1.5-4.5c0.1-1.2,1.1-2.2,2.4-2.2
	c-0.5,1.5,1.3,0.1,1.7-0.8c-0.6,0.1-1,0.5-1.4,0.3c1.6-0.9-0.2-2.2-0.7-3.1c-1.3-2.5,0.9-5,1.3-7.3c-0.2-1.2,0.8-1.4,1.5-2.2
	c-0.4,0.1-0.6,0.1-0.8,0.2c0.2-1.4,1.9-0.4,2.6-0.9c1.9-0.9,4,0,5.9-1.1c0.9-0.6,1.8-1,2.9-0.6c-0.2-3.7-1.1-7.9-3.9-10.5
	c-2.5-2.6-6-0.1-8.8-0.6c-1.4-1.8-4.3-3-4.7-5.2c-0.1-2.4-4.7-2.8-5.7-1c-2,1.1-2.3,4.5-1.3,6.5c1.4,5.4-1.7,6.6-5.8,8.6
	c-3.7,2.9-8.3,4.7-11.7,7.7c-0.7,0.9-1.3,1.7-2.5,1.6c-1.5,0.8,0.2,1.5,1.2,1.3c2.4,1,1.6,4.4,3.2,6c6.4,6.7,5-6.3,13.4-7.1
	c1.5,5.6-0.8,6.6-5.9,8.2c-0.5,0.1-0.8,0.4-0.5,1c0.2,0.5-0.2,1.9-0.7,2.3c-1.8,2.7,2.9,9.5,6.2,6.7c0.8-2.1,3.7,1.1,1.8,1.6
	c-0.9,0.3-1.3,1.6-2.4,1.4c-5.1,3.4-11.2,7.5-15.5,12.8c-1.5,0.9-3.5,1.7-3.6,3.8c-0.3,3,2.4,6.8,5.5,5.4c1.6,0.3,1-1.6,1.6-2.2
	c1.9-0.6,0.5-3.1,2.1-4c8.2-8.6,19.6-13.3,29.6-19c-1.5-0.4-2.6,0.8-4.1,0.9c0.5-2,3.3-1.6,4.8-2.4c2.4-1.6,5.7-1.8,8.6-2
	c0,0.1,0,0.2,0,0.3c-3,1.1-6.8,1.5-9.4,3.2C223.1,197.8,239.9,198.5,236,192.2 M198.5,205.3c0,0.1,0.1,0.2,0.1,0.2
	c-1.1,0.7-2.2,1.5-3.5,2.3C195.4,207.1,197.8,205.3,198.5,205.3 M198.4,206.7c-0.5,0.3-1.1,0.7-1.6,1c-0.1-0.1-0.1-0.2-0.2-0.3
	c0.5-0.4,1-0.7,1.6-1.1C198.2,206.4,198.3,206.6,198.4,206.7 M188.4,212.7c0.7-1.2,5.8-5,6.6-4.9
	C192.9,209.6,190.7,211.3,188.4,212.7 M193.4,210C193.4,210,193.4,210,193.4,210c-0.9,0.7-1.4,1.8-2.5,1.9c1.3-1.4,3.1-2.2,4.4-3.6
	c0.1,0.1,0.1,0.2,0.2,0.3C194.9,209.2,194.3,209.8,193.4,210 M196.6,209.4c-0.1-0.1-0.1-0.3-0.2-0.4c1.1-0.6,2.2-1.1,3.3-1.7
	c0,0.1,0.1,0.2,0.2,0.3C198.7,208.1,197.7,208.8,196.6,209.4 M198.9,206.3c0.1-0.8,0.5-1,1-0.8c0,0.1,0.1,0.2,0.1,0.2
	C199.7,205.9,199.4,206.1,198.9,206.3 M199.3,204.6c0.5-0.3,1-0.5,1.5-0.8c0,0.1,0.1,0.2,0.1,0.3
	C200.4,204.3,200.1,205.1,199.3,204.6 M203.2,205.8c-0.1-0.1-0.1-0.3-0.2-0.4c0.7-0.3,1.3-0.6,1.9-0.8c0,0.1,0.1,0.2,0.1,0.3
	C204.4,205.1,203.8,205.4,203.2,205.8 M219.9,188.3c-0.1,0.1-0.4-0.2-0.5-0.3C220.4,185.1,223.4,186.5,219.9,188.3 M234.6,195.9
	c-0.3,0-0.6-0.1-0.9-0.2c0.1-0.5,1-0.5,1.2,0.1C234.8,195.9,234.7,195.9,234.6,195.9 M319,253c-1.9-1.5-6.7-2.4-7.3,0.8
	c-0.2,1.4-2-0.6-3.1,2.3c-0.6,0.8,0.1,1.2,0.4,2c0,0.4-0.2,0.9,0,1.2c0.5,1.1-0.5,2.1,0,3.1c-0.1,1.4-1.3,3-0.4,4.3
	c1.5,2.1,8.5,6.2,9.1,1.8c0.2-0.2,0.4-0.6,0.6-0.6c1.1,0,1.1-1.1,1.7-1.6C320.8,262,323.9,256.1,319,253 M210.6,240.2v-1.6
	c-0.1,0-0.2,0-0.3,0c0,0.5,0,1.1,0.1,1.6L210.6,240.2L210.6,240.2z M296.5,221c-0.1-1.4-2-1.7-3-1.9c-1.6-0.1-0.5-3.6-3.4-3.5
	c-5.3,0.5-10.1,2.9-14.9,4.9c-1.8,0.4-3.9-0.5-5.2,1.5c-1.2,1.7-2.2-0.9-3.5-0.7c-0.7-3.6-2.1-1.7-1.8,0.8c-0.1,0.7,0.4,1.6-0.7,2
	c-0.3,0.2-0.1,1.2-0.8,0.9c-0.9-0.3-1.4,0.7-2.2,0.7c-2.1-0.1-2,3.2-0.8,4.2c1.2,6.7,4.5,12.8,8.8,18c7.1,4.9,10.7-1.8,16.6-4.2
	c2.5-1.9,2.8,1.7,4,0.9c0.3-0.1,0.9,0.2,1.2,0.3c0-0.4,0.1-0.7,0.1-1c0.5,0.2,1,0.3,1.5,0.5C294.2,237,299.4,228.7,296.5,221
	 M285.5,235.8c-1,2.3-2.5,5.8-5.2,2.9c-0.1-0.4,0.1-0.6,0.3-1.2c0,0,0.2-0.1,0.5-0.1c-0.2-0.4-0.3-0.8-0.5-1.2c1-0.8,2-0.3,3.2-0.9
	c0.4,0.5,1.2-0.2,1.8,0C285.6,235.4,285.6,235.7,285.5,235.8 M288.3,226c-0.6-0.2-1-0.1-1.3,0.4c-0.8,0.7-2.2,0.8-3.2,1.2
	c0.5,1.8,1.1-0.5,2.1,0.1c0.1,0.1,0.4-0.2,0.7-0.2c-2.1,2.1-6.4,2.4-9.1,4.1c0,0.1,0.1,0.1,0.1,0.2c2.2-0.9,4.5-1.7,6.8-2.5
	c0,0.1,0.1,0.1,0.1,0.1c-0.9,1.1-2.6,1.7-3.9,2c-0.8,0.9-1.8,0.7-2.8,0.9c-0.7,0.2-0.7-0.5-1-0.8c-2.3-1.6,0.6-2.6,2.1-2.9
	C279.6,227.7,289.9,222.1,288.3,226 M289.5,219c-5.1,0.4-9.3,4.2-14.5,4.6c-0.7-3.3,6.1-2.3,7.9-4.5c0.3-0.2,0.9-0.3,1.1-0.7
	c0.2-0.4,0.4-0.4,0.6-0.2c0.3,0.4,0.4,0.2,0.7-0.1c1.5-0.3,2.5-1.2,4.2-1C291,216.8,290.7,218.9,289.5,219 M292,218.8
	c-0.5-0.3-0.9-0.4-0.6-1.1c0.3,0.2,0.5,0.4,0.8,0.7C292.2,218.5,292.1,218.7,292,218.8 M502.6,167.3c-2.1-0.6-6.7-8-6.7-3
	c0,0,0,51.7,0,51.7l-8.4,0c-1.1,0.2-7-2.3-6.7,0.3c1.5,8.9,0.1,3.1,14.2,4.1v35.4c-4.5,1.4-8.4,2.2-11.7,2.6c-0.5,0.1-1.4,0.5-1,2.2
	c2.2,10.8,2.9,14.7,5.4,13.4c3.2-1.6-0.5-5.4,4.2-7.1c5.6-2.1,26.8-17.6,25.6-21.2c-1.2-3.7-2.3,1.4-15.5,7.3v-32.7h11.3
	c3.1,21.1,13.1,42.9,30.7,53.5c2.9,1,1.6-7.1,6.4-8.4c2-0.6,1.3-4.5-0.2-4.3c-8.4-2.5-15.7-7.7-21.7-15.4c3.9-2.4,7.6-5.9,10.8-10.5
	c1.6,2.4,9.1,1-1.1-10.4c-3.6-4-1.1,2.8-12.2,17.2c-3.8-5.7-6.8-13-9-21.7c32.7,0,34.6,0.9,34.8-2c0.1-2.2-1.9-3.6-6.2-9.1
	c-2.9-3.8-2.8-1.5-7.7,6.8H503v-11.4c1.3-0.8,37.2,2,36.2-1.7c0.7-2.5-6.5-8.7-7.7-10.5c-2.2-3.8-6.2,7.1-7.4,7.9H503v-11.9
	c1.3-0.8,37.2,2,36.2-1.7c0.7-2.6-6.5-8.7-7.7-10.5c-2.1-3.8-6.2,7.1-7.4,7.9H503v-14.2c14.3,1.7,32.4,1.7,43.2-8
	c2.4-2.1,2.9-14.4,3.4-21.4C540.3,156.2,522.2,172.6,502.6,167.3z"/>
</svg>
