<svg xmlns="http://www.w3.org/2000/svg" viewBox="0 0 754 164">
<path fill="#ff0" d="M60.9,47h8.5v6.5h-8.5c0.4,13.7,0.9,16.7-14.9,16.2c-0.2-2.2-1.3-4.9-2.2-6.9l-3,1.9c-1.2-2.6-3.7-6.4-6.4-9
	l3.6-2.2h-7v4.3H19.7v11.7H12V57.7H0V50h11.9v-4.4H2.4V18.8h9.5V15H1V7.3H12v-7h7.8v7h10.5V15H19.7v3.8h9.9v26.7h-9.9V50h11.4v-3
	h21.7v-2.9h8L60.9,47L60.9,47z M8.8,29.4H13V25H8.8V29.4z M8.8,39.5H13v-4.4H8.8V39.5z M23.2,25h-4.5v4.4h4.5V25z M23.2,35.1h-4.5
	v4.4h4.5V35.1z M31.1,37.7c4.1,0,9.2-0.1,14.8-0.2v-3.3H33V14.4h12.9v-2.7H31.8V5.2h14.2V0.3h7.5v4.9h14.9v6.5H53.4v2.7H67v19.9
	h-3.1c2.4,2.8,4.7,6.1,5.9,8.5l-6.2,3c-0.4-0.7-0.8-1.6-1.4-2.6c-11.1,0.4-22.6,0.7-30.7,0.8L31.1,37.7L31.1,37.7z M39.9,22h6v-2.9
	h-6V22z M45.9,29.5v-3h-6v3H45.9z M52.9,53.4H41.8c2.3,2.3,4.4,5.1,5.4,7.2l-3,1.9C56,63.3,52.4,62.9,52.9,53.4L52.9,53.4z
	 M53.4,19.1V22h6.3v-2.9H53.4z M59.7,26.5h-6.3v3h6.3V26.5z M53.4,37.3l4.8-0.1c-0.6-0.7-1.2-1.4-1.8-2.1l2.1-1h-5
	C53.4,34.3,53.4,37.3,53.4,37.3z M142.8,26.9c-3.6,5.5-7.8,10.4-12.4,14.7c-1,18.2,6.1,29.2-19.4,27.7c-0.4-2.6-1.9-6.8-3.1-9.3
	c14.8-0.1,13.6,3.2,13.4-10.8C109.6,58,95.7,64.5,80.8,68.8c-1.3-2.2-4.2-6.1-5.9-8.1c12.2-3.1,23.5-7.5,33.3-13.3
	c-11.1,0.9-21.7,1.6-29.8,2.3l-0.9-7.9c2.8-0.1,5.9-0.4,9.3-0.5V7.3h15.4c1-2.5,1.9-5,2.4-7.2l10.8,1.1c-1,2.2-2.2,4.2-3.4,6.1h18.6
	v20.9c1.3-1.8,2.6-3.6,3.7-5.4L142.8,26.9L142.8,26.9z M95.6,14.8v4.3h25.8v-4.3H95.6z M121.3,25.4H95.6v4.4h25.8V25.4z M95.6,40.8
	c7.7-0.5,16.1-1.1,24.3-1.7l1.4-1.2v-1.7H95.6L95.6,40.8L95.6,40.8z M169.5,34.8c-1.3,6.7-3.3,13.7-5.9,19.3
	c13.4,10.7,38.7,5.7,55.3,4.5c-1,2.4-2.5,6.7-2.5,9c-12.2,0.1-38.5,3.6-49.4-3c-8.8-6.3-8.6-5-13.4,5.1l-5.9-8.4
	c2.5-3.1,5.3-5.6,7.8-7c1.6-3.7,3.1-8.4,4.2-12.9h-9.3c1.7-4.4,3.7-10.3,5.3-16.1h-6.7v-7.9h17.4c-1.6,5.2-3.3,11.1-5,16.3
	c0.9,0,3.4,0.1,4.3-0.3L169.5,34.8L169.5,34.8z M156.9,15.3c-0.8-3.3-2.7-8.7-4-12.7l7.8-2.4c1.4,4,3.3,9,4.3,12.3L156.9,15.3
	L156.9,15.3z M173.9,26.9c-1.3,1.5-2.5,2.7-3.8,4c-0.8-1.8-3.3-6.1-4.8-8.1c5.9-5.3,11.3-13.8,14.2-22.5l8,2.2
	c-1.1,3.2-2.5,6.3-4,9.4h11.1c-1-2.7-2.2-5.6-3.5-8l8.3-2.4c1.9,3.2,3.8,7.3,4.8,10.4H216v7.4h-15v4.2H213v7.1H201v4.6h11.7v7.1H201
	v4.7h15.8v7.4h-34.4v3.1h-8.5V26.9L173.9,26.9z M192.6,19.4h-10.2v4.2h10.2V19.4z M192.6,30.8h-10.2v4.6h10.2V30.8z M192.6,42.5
	h-10.2v4.7h10.2V42.5z M261.3,14.6c-0.3,2-0.7,3.8-1,5.6h27.2v40.2c-0.1,10.3-8.2,8.3-17.4,8.8c-0.4-2.2-1.7-5.4-2.8-7.5
	c4.2-0.2,11.1,1.6,11.1-1.4c0,0,0-32.1,0-32.1h-14.2l7.4,1.5c-1,2.7-2.1,5.4-3.1,7.8h5.4v6.8h-12.5v4.8h14.2v7.1h-14.2v11h-8.3v-11
	h-13.7v-7.1h13.7v-4.8h-12.2v-6.8h5.7c-0.7-2.2-1.8-5.2-2.9-7.5l7-1.7c1.3,2.5,2.7,5.9,3.3,8.1l-3.9,1.1h10.8
	c1.1-2.9,2.2-6.5,2.8-9.3h-27.4v41h-8.9V20.1h24c0.3-1.8,0.6-3.6,0.8-5.6h-27.7V6.4h28.6c0.1-2.2,0.3-4.3,0.4-6.2l9.8,0.9
	c-0.2,1.7-0.5,3.6-0.7,5.3h27.6v8.2L261.3,14.6L261.3,14.6z M321.4,47.5c-0.9-2.1-2.7-5.2-4.4-8.2v30.1h-8.5V42.8
	c-2.4,5.7-5.2,11-8.1,14.7c-0.8-2.5-2.7-6.1-4.1-8.4c4.2-4.7,8.3-12.7,11-19.9h-10V21h11.2v-8.4c-2.9,0.5-5.6,0.9-8.4,1.2
	c-0.3-2-1.4-4.9-2.4-6.8c8.5-1.3,17.7-3.6,23.9-6.1l5,7.2c-2.9,1.1-6.2,2-9.6,2.7V21h9.8v8.2h-9.8v0.6c2.2,2.1,8.2,9,9.7,10.8
	L321.4,47.5L321.4,47.5z M358,50.7v18.7h-8.7V52.3l-22.4,3.8l-1.4-8.4l23.8-4.1V0.2h8.7v41.9l7.4-1.3l1.4,8.2L358,50.7z M339.4,40.4
	c-2.3-3.3-7.5-8-11.8-11.3l5.6-5c4.2,3,9.7,7.6,12.2,10.8L339.4,40.4L339.4,40.4z M341.3,20.8c-2.1-3.2-6.9-7.9-11.1-11.1l5.8-5
	c4,3,9.2,7.4,11.4,10.7L341.3,20.8z M394.6,21.1c-0.9,1-1.8,1.9-2.7,2.8c-0.7-1.6-2.9-4.9-4.2-6.3c4.4-4.2,8.5-10.6,10.6-17.2
	l6.8,1.9c-0.6,1.9-1.4,3.8-2.3,5.7h5.6c-0.6-1.8-1.4-3.7-2.2-5.4l7.3-2c1.1,2.3,2.5,5.2,3.3,7.4h5.4v5.6h-7.7v2.8h6.2v0.1
	c3.9-4.3,7.3-10.2,9.3-16.1l6.9,1.9c-0.7,1.9-1.5,3.8-2.4,5.7h5.7c-0.6-1.8-1.4-3.7-2.2-5.3l7.3-2c1.1,2.2,2.5,5,3.3,7.3h6.7v5.5
	H446v2.8h7.3v5.1H446v2.8h7.3v5.2H446v2.8h10.1v5.5h-29.8V21.2c-0.9,1.1-1.9,2.2-2.7,3.1c-0.6-1-1.9-2.7-3-4.2v1.3h-6.2v2.8h6.2v5.2
	h-6.2v2.8h8.4v5.5h-28.2C394.6,37.7,394.5,21.1,394.6,21.1z M449.1,44.1c-3.6,5.6-8.5,10.1-14.4,13.6c6.7,1.4,14,2.4,21.6,2.9
	c-1.9,2.1-4.3,5.9-5.5,8.4c-10.2-1-19.7-2.8-27.8-5.9c-9.3,3.3-19.7,5.3-30.6,6.4c-0.7-2.4-2.2-5.9-3.6-7.9c8.1-0.6,16-1.7,23.2-3.4
	c-4.2-2.4-7.9-5.4-11.1-8.7l3.4-1.6H393v-7.1h48.5l1.6-0.4C443.1,40.5,449.1,44.1,449.1,44.1z M407.3,13.5H402v2.8h5.4V13.5z
	 M407.3,21.4H402v2.8h5.4V21.4z M407.3,29.4H402v2.8h5.4V29.4z M411.3,48c3.3,2.6,7.3,4.7,12.2,6.5c4.2-1.8,7.9-3.8,10.9-6.5H411.3z
	 M438.9,13.5h-5.2v2.8h5.2V13.5z M438.9,21.4h-5.2v2.8h5.2V21.4z M438.9,29.4h-5.2v2.8h5.2V29.4z M530.7,59.5h-29.6v10h-9.1v-10
	h-28.7v-7.9h28.7v-4h-21.4V17.9h21.4v-3.6h-26.9v-8h26.9v-6h9.1v6h27.5v8h-27.5v3.6H523v29.7h-21.9v4h29.6V59.5z M479.2,29.4h12.9
	v-4.5h-12.9V29.4z M492.1,40.6V36h-12.9v4.5H492.1z M501.1,24.9v4.5h13v-4.5H501.1z M514.1,36h-13v4.5h13V36z M546.6,28.3h-8.1V11.6
	h28v-3h-24.7V2.9H600v5.8h-24.9v3h28.6v16.7h-8.5l-1.6,5.3c-3.9-1.4-11.6-3.3-17.1-4.2l1.7-5c5.3,0.6,12.6,2.2,16.7,3.5V17.4h-4
	l2.7,3.8c-3.9,1.6-9.3,2.8-13.2,3.6l-2.7-4.2c2.9-0.7,7-2,10.2-3.2h-12.7v15.4h-8.6V17.4h-14.2c4,0.7,8.8,2,11.6,3l-2.4,4.7
	c-3-1.2-8.5-2.7-12.8-3.6l2.1-4.2h-4v10.2c4.5-0.5,10.8-1.4,17.1-2.4l0.3,5c-5.6,1.3-11.1,2.5-15.7,3.6L546.6,28.3L546.6,28.3z
	 M594,61.7c3.8,0,4.4-1.1,5-7.3c1.7,1.2,5,2.3,7.3,2.7c-1,8.9-3.5,11.3-11.6,11.3h-15.6c-10.2,0-13.1-2.2-13-10h-12.3v3.2h-8.5V34.7
	h51.4v23.7h-22.2c0,2.8,0.7,3.3,5.4,3.3C579.9,61.7,594,61.7,594,61.7L594,61.7z M553.8,40.6V44h12.3v-3.3H553.8z M566.1,52.5v-3.3
	h-12.3v3.3H566.1z M588,40.6h-13.4V44H588V40.6z M588,52.5v-3.3h-13.4v3.3H588z M632.4,43.6c-0.7-2-2.1-5-3.5-7.9v33.6h-8V40.9
	c-2,5.9-4.3,11.3-6.8,15.2c-0.9-2.5-2.8-6.5-4.2-8.9c4.4-5.8,8.4-16.2,10.5-25h-9.1V14h9.6V0.2h8V14h7.3v8.2h-7.3v2.4
	c2.1,2.8,7.4,11.1,8.6,13.2L632.4,43.6z M679,38.8c-1.3,16.5,1.7,26.6-13.4,25.1c-0.1-2.6-0.8-5.9-1.9-8.1c7.5,0.9,6.5-0.2,7.2-9.9
	h-9v23.3h-8.3V53.9c-4.2,5.4-9.6,10-15.1,12.9c-1.3-2-3.8-5-5.5-6.6c6.8-2.9,13.1-8.2,17.4-14.1h-12.3c1-5.4,2-13.6,2.5-20.2h13.1
	v-6.3h-15.4v-7.3h8.4c-1-2.9-2.8-6.3-4.5-9l6.9-2.7c2.4,3.2,4.6,7.6,5.6,10.6l-2.7,1.2h9.7c1.9-3.6,3.9-8.4,5-11.9l8.5,2.3
	c-1.6,3.3-3.4,6.7-5,9.6h7.2v20.8h-15.3v5.8L679,38.8L679,38.8z M647.5,33.1c-0.2,2-0.5,3.9-0.7,5.8h6.8v-5.8H647.5z M661.9,25.8
	h7.3v-6.3h-7.3V25.8z M723.8,60.8h29.9V68h-68.4v-7.2h29.5v-4.2h-21.3v-7.1h21.3v-3.8h8.9v3.8h23.3v7.1h-23.3L723.8,60.8L723.8,60.8
	z M686.2,40c3.9-0.2,8.7-0.5,14-0.9v-3.8h-11.3v-6.1h11.3v-2.9h-11.9V2.7h31.5v23.6h-12.1v2.9h11.6v6.1h-11.6v3.3l13.1-1v6
	c-12.1,1.1-24.9,2.2-33.9,2.9L686.2,40L686.2,40z M694.9,11.8h5.3V8.3h-5.3V11.8z M700.2,20.6v-3.6h-5.3v3.6H700.2z M712.8,8.3h-5.2
	v3.5h5.2V8.3z M712.8,17.1h-5.2v3.6h5.2V17.1z M732,27.4h-10.9v-7.1H734c-2.9-2-6.2-4.2-9.1-5.6l4.8-4.4c1.6,0.7,3.3,1.7,5.1,2.7
	c1.3-1,2.7-2.2,4-3.5h-16.2V2.8h22.8l1.7-0.5l5.2,4.2c-3.1,3.5-7.3,7.3-11.3,10.3c1.1,0.7,2.1,1.5,2.8,2.2l-1.4,1.4
	c1,0,5.2,0.1,6.1-0.2c0,0,5.6,1,5.6,1c-1.1,4.9-2.7,10.3-4.2,13.8l-6.8-1.3c0.7-1.7,1.2-3.8,1.8-6.2h-4.4
	c-0.4,12.8,3.5,20.5-13.9,19.3c-0.3-2.2-1.3-5-2.2-7C735.7,40.4,731.3,40.2,732,27.4L732,27.4z"/>
<path fill="#fff" d="M54,128.1v7.3H0v-7.3H54z M77.5,149.9H65.9v4.6h-5.9v-45.2h17.5V149.9z M65.9,115.1v5.7h6v-5.7H65.9z
	 M65.9,132.3h6v-5.8h-6V132.3z M71.9,144V138h-6v6.1H71.9z M113,139.4c-2.7,2-5.9,4.2-8.5,5.8c2.4,3.2,5.4,5.8,9.1,7.5
	c-1.5,1.3-3.7,4-4.7,5.8c-8.5-4.7-13.1-13.4-15.8-24.4h-4.7V150l8.2-1.8c-0.1,1.9,0.1,4.7,0.3,6.1c-11.5,2.8-13.7,3.7-15,4.5
	c-0.5-1.5-2-4.1-3-5.2c5.5-0.7,1.7-42,2.8-45.4h28v25.9H99.1c0.7,2.3,1.5,4.3,2.4,6.3c2.5-1.7,5.2-3.9,7-5.7L113,139.4z M88.4,114
	v4.4h14.4V114H88.4z M88.4,128.3h14.4v-4.5H88.4V128.3z M126.5,128.1v30.6h-6.8v-50.6h22.6v20L126.5,128.1L126.5,128.1z
	 M126.5,112.9v2.9h9.2v-2.9H126.5z M135.7,123.2v-3.1h-9.2v3.1H135.7z M152.8,146v11.6h-6.1V146h-5.6c-0.6,3.9-2.5,9.4-7.5,12.7
	c-1-1.2-3.1-2.9-4.5-3.8c3.8-2.3,5.4-5.9,6-8.8h-5.9v-5.5h6.2v-4.2H130v-5.3h28.3v5.3h-5.5v4.2h6.4v5.5L152.8,146L152.8,146z
	 M146.7,140.5v-4.2h-5.4v4.2H146.7z M169.1,150.8c0.1,8-5.1,7.5-12.4,7.7c-0.2-1.9-1.2-4.9-2.1-6.7c3.2-0.3,7.3,1.2,7.6-1.1
	c0,0,0-22.6,0-22.6h-16.1v-20.1h23V150.8L169.1,150.8z M152.7,112.9v2.9h9.5v-2.9H152.7z M162.3,123.3v-3.2h-9.5v3.2H162.3z
	 M184.9,126.4v32.3h-6.7v-50.6h22.6v18.4L184.9,126.4L184.9,126.4z M184.9,112.6v2.7h9.4v-2.7H184.9z M194.3,121.9v-2.6h-9.4v2.6
	H194.3z M191.5,142.6c-1.3-1.5-4-3.2-6.4-4.4l3.3-3.2c2.4,1,5.2,2.7,6.5,4.1L191.5,142.6z M186.5,152.7c1.9-2.3,4.8-6.1,7.2-9.7
	l3.2,4c-1.9,3.2-4.2,6.7-6.6,9.9L186.5,152.7L186.5,152.7z M191,127.3c2.3,1.1,4.9,2.9,6.2,4.3l-3.6,3.3c-1.2-1.4-3.8-3.4-6-4.6
	L191,127.3z M227.8,151c0.2,7.6-4.7,7.3-11.6,7.5c-0.1-0.7-0.3-1.7-0.6-2.7h-11.8v1.5h-5.2v-14h6v-2.7h-8.5v-4.5h8.5v-2.8
	c-2,0.2-4,0.3-6,0.4c-0.2-1.1-0.8-2.8-1.4-3.9c5.9-0.5,12.8-1.4,17-2.5l3.4,3.9c-2.2,0.6-4.6,1-7.2,1.4v3.5h8.4v4.5h-8.4v2.7h6v8.6
	c2.2-0.3,4.4,0.9,4.6-1.1c0,0,0-24.4,0-24.4h-16.3v-18.4h23V151z M211.1,147.6h-7.2v3.9h7.2V147.6z M211.4,112.6v2.7h9.7v-2.7H211.4
	z M221.1,121.9v-2.6h-9.7v2.6H221.1z M243.8,105.7h5.6v57.8h-5.6V105.7z M316.5,128.1v7.3h-54v-7.3H316.5z M375.2,149.1h-5.4v9.4
	h-5.4v-9.4h-7.6c0.5-3.1,0.8-7.7,1.1-11.6H357v-5.2h7.4v-3.5h4v-1.8h-22.3v1.1l3.2,0.6c-0.2,0.9-0.5,1.9-0.7,2.9
	c2.3,0,5.9-0.2,8.1,0.5c-1.7,14.1-6.9,22.1-15.6,26.4c-0.6-1.1-1.8-3.1-2.9-4.1c3.3-1.5,6.2-3.7,8.4-6.9c-1.1-1.1-2.5-2.4-3.9-3.5
	c-0.5,0.7-1.1,1.4-1.8,2c-0.4-0.9-1.5-2.7-2.4-3.9v7.4h-10.3v4.6h-5.6v-45.2h15.9v31.7c2.2-2.6,3.9-6.3,4.9-10.2h-3.2V122h5.3
	c-0.7-1.8-2-4.2-3.1-6.2l5.2-1.6c1.2,2,2.8,4.6,3.6,6.3l-4.2,1.5h9.4c-0.6-1.9-1.9-4.8-2.9-7.1l5.3-1.4c1.2,2.1,2.6,5,3.3,6.8
	l-5.3,1.6h7.4l-1-0.4c1.6-2.4,3.6-6.2,4.6-8.9l5.9,2.1c-1.7,2.5-3.4,5.1-4.9,7.2h5.8v8.6h-4.8v1.8h4.6v5.2h-4.6v6.6h5.4L375.2,149.1
	L375.2,149.1z M328.2,115v5.7h4.8V115H328.2z M328.2,132.1h4.8v-5.8h-4.8V132.1z M333,143.8v-6.1h-4.8v6.1H333z M373.6,111
	c-8.4,2-21.5,2.8-32,2.8c-0.2-1.3-0.8-3.4-1.5-4.7c10.4-0.1,23-1,30.3-2.7L373.6,111z M347,136.5c-0.5,1.3-1.1,2.5-1.8,3.7
	c1.4,1,2.8,2.1,3.8,3.1c0.9-2.1,1.6-4.3,2.2-6.8C351.2,136.5,347,136.5,347,136.5z M364.4,144.1v-6.6h-2.5c-0.1,2.1-0.2,4.4-0.4,6.6
	H364.4z M410.3,146.9c0.6,10.8-0.4,12.2-12,12c-0.4-1.7-1.5-3.9-2.4-5.4c8.6,0.1,7.7,1.6,7.6-6.2c-14.1,0.9-16.4,1.2-18.1,1.8
	c-0.2-1-0.9-3.6-1.4-5c4.1-0.4,8.2-2,13.4-3.6c-6.6,0.2-8,0.4-9,0.7c-0.2-1-0.9-3.3-1.5-4.7c3.5-0.3,5.9-1.2,10.1-2.5
	c-0.9,0-1.8-0.1-2.6-0.1c-0.1-0.9-0.5-2.3-0.9-3.1c2.6,0,4.4,1.1,5.7-0.8h-16.4c0.4-1.8,0.6-4,1-6.4h-4.1v-3.6h4.5
	c0.1-1.2,0.2-2.3,0.4-3.4c-0.4,0.3-0.6,0.6-1,0.8c-1.1-0.9-3.5-2.2-4.8-2.8c3.4-2.3,6.3-5.5,7.9-8.9l5.4,1.2
	c-0.2,0.6-0.5,1.1-0.8,1.6h16.4v3.8h-19c-0.5,0.6-0.9,1.1-1.4,1.7h19c0,1.6-0.3,4.5-0.4,6.1h3.3v3.6h-3.6c-0.2,1.1-0.3,2.1-0.4,3.1
	h2.3v3.4h-3c-0.2,0.6-0.4,1.1-0.5,1.5c1-0.5,2.1-1,3.1-1.5l3.5,3.5c-2.5,1.1-5,2-7.7,2.8c4.9,0.6,9.8-1.6,13.8-3.8l3.6,3.9
	c-5.4,2.4-11.1,4.6-16.9,6.5l15.1-0.7l-2.6-2.2l4.6-2.4c3.5,2.8,8.6,6.8,11.3,9.4l-4.9,2.8c-0.9-1-2.3-2.3-3.9-3.7L410.3,146.9
	L410.3,146.9z M399.7,150.6c-3.9,2.9-9.8,5.6-14.7,7.2c-1.2-1.2-3.5-3.4-4.9-4.5c4.9-1.2,10.3-3.1,13.5-5L399.7,150.6L399.7,150.6z
	 M388.9,123.3c-0.2,1.2-0.3,2.3-0.5,3.4h7.4c-1.5-0.7-3.4-1.7-4.9-2.3l0.9-1.1C391.8,123.3,388.9,123.3,388.9,123.3z M389.6,117.2
	l-0.4,3.3h7c-1.4-0.7-3.1-1.5-4.5-2l0.9-1.2L389.6,117.2L389.6,117.2z M400.3,126.7c0.1-1,0.3-2,0.5-3.4H395
	c1.4,0.6,2.8,1.2,3.6,1.7l-1.3,1.7L400.3,126.7L400.3,126.7z M401.1,120.5c0.1-1,0.2-2.1,0.2-3.3h-5.6c1.2,0.5,2.5,1.1,3.3,1.5
	l-1.2,1.8L401.1,120.5L401.1,120.5z M429.7,114.5c-1.3,3.6-3.1,6.6-5.3,9.2c2.9,2.1,6.3,3.7,10.3,4.7c-1.3,1.1-3,3.3-3.9,4.8
	c-4-1.2-7.6-3.2-10.6-5.6c-2.6,1.9-5.6,3.5-8.9,4.8c-0.6-1.1-2.5-3.4-3.6-4.4c3.3-1.1,6.2-2.5,8.7-4.2c-1.2-1.4-2.2-2.9-3.1-4.5
	c-0.8,0.9-1.6,1.8-2.5,2.5c-0.9-1.1-3-3.1-4.3-4.1c3.5-2.7,6.1-7.1,7.3-11.8l5.8,1.1c-0.3,1-0.6,1.9-0.9,2.9h14.8v4.7L429.7,114.5
	L429.7,114.5z M419.1,148.1c4.3,1.6,10.4,4.1,13.7,6l-5.4,3.5c-2.8-1.7-8.9-4.5-13.3-6.3L419.1,148.1z M416.5,114.6
	c1,2,2.3,3.8,3.8,5.5c1.4-1.7,2.5-3.5,3.3-5.6h-7.1L416.5,114.6z M468.7,143.6v2.8h19.5v5.5h-19.5v6.8h-6.9v-6.8h-19.5v-5.5h19.5
	v-2.8H439v-5.8h22.9V125h-21.4v-5.5h50.2v5.5h-21.8v12.8h23.5v5.8C492.2,143.6,468.7,143.6,468.7,143.6z M451.7,115h-12.4v-5.9h12.4
	V106h6.8v3.2h6v5.9h-6v3.2h-6.8V115z M454.1,126v2.4h5.4v5.6h-5.4v2.7h-6.4v-2.7h-7.3v-5.6h7.3V126H454.1z M472,115h-5.6v-5.9h5.6
	V106h6.8v3.2h12.7v5.9h-12.7v3.2H472V115z M476.7,136.8v-3H471v-5.6h5.7V126h6.4v2.1h7v5.6h-7v3H476.7z M503.9,105.7h5.6v57.8h-5.6
	V105.7z M547.2,138.1c2.9,4.6,6.5,10.8,8.1,14.7l-6.5,3.3c-0.5-1.4-1.2-3.1-2-4.9c-13.8,4.2-16.1,5.1-17.8,6.2
	c-0.4-1.9-1.6-5.2-2.7-6.8c5.4,0.3,1.7-39.2,2.7-41.9h24.7v27.9h-17.5v11.1l7.8-2.1c-0.9-1.6-1.9-3.3-2.8-4.7L547.2,138.1
	L547.2,138.1z M536.2,114.7v4.8h10.6v-4.8H536.2z M546.7,130.7v-5.1h-10.6v5.1H546.7z M578,141.6c0.2,7-4.5,7.1-10.9,7.1
	c-0.2-1.8-1.1-4.6-1.9-6.3c2.7-0.2,5.6,1,5.9-0.9c0,0,0-26.2,0-26.2H564v43.4h-7v-49.6h21V141.6L578,141.6z M638.6,140.6H632
	c-0.3,11.3,3,18.4-12.4,17.4c-0.2-1.9-1.1-4.6-2-6.5c11.3,0.5,7,0.7,7.8-10.9h-11.5c2.6,2.6,5.6,6.2,6.9,8.6l-5.8,3.3
	c-1.2-2.6-4-6.4-6.7-9.2l5.1-2.8h-8.2v-5.9h2.5c-0.7-1.4-2-3.1-2.9-4c5.7-1.4,11.1-3.7,15.7-6.9c-1.4-2-3.6-4.3-5.9-6.3
	c-2.2,1.4-4.6,2.8-7,3.8c-0.9-1.1-2.9-3-4.2-4v41.3H597v-19.1h-3.9c0,4.7-0.6,13.4-4.5,19.2c-1.2-1-3.7-2.6-5.1-3.3
	c3.1-4.8,3.5-11.9,3.5-15.9h-2.9v-5.8H597v-6.2h-10.6v-19.3h6v13.6h4.5V106h6.4v11.2c6.6-2.5,12.5-7.1,15.8-11.4l6.8,1.8
	c-0.8,0.9-1.6,1.9-2.6,2.8c0.7,0,9.3,0.2,9.6-0.3l4.3,2c-4.6,11.8-14.7,18.8-26.4,22.6h14.4v-6.8h6.6v6.8h6.6L638.6,140.6
	L638.6,140.6z M616.7,125.3c-3.8,0.8-7.5,1.5-10.8,2.1l-1.1-4.6c3-0.4,7.2-1.1,11.5-1.8L616.7,125.3z M619.3,114.9
	c2,1.7,4,3.6,5.4,5.4c1.7-1.6,3.1-3.4,4.2-5.4H619.3z M666,109.6c-4.3,9.3-11.1,18.8-17.5,24.8c-1.4-1.5-4.5-4.4-6.2-5.8
	c6.2-5,12.4-13.2,15.9-21.4C658.2,107.2,666,109.6,666,109.6z M682.4,135.5c4.8,6.2,10.2,14.2,13,19.5l-7.2,3.7
	c-0.8-1.6-1.8-3.5-3-5.5c-28.3,2.1-32.3,2.5-35.2,3.5c-0.5-1.4-1.8-5.2-2.9-7.2c8.2-4.6,12.8-12.8,20.3-25.9l8.2,3.3
	c-4.5,7.6-10.2,15.2-15.8,21.3l21.5-1.4c-1.9-2.8-3.8-5.8-5.6-8.3L682.4,135.5L682.4,135.5z M683.6,107.3
	c2.5,7.9,7.9,15.9,15.1,20.1c-1.6,1.5-4.1,4.7-5.3,6.8c-6.7-4.9-11.9-12.5-15.2-19.9h-9.4v-7C668.8,107.3,683.5,107.3,683.6,107.3z
	 M711.1,128.1v30.6h-6.8v-50.6h22.6v20L711.1,128.1L711.1,128.1z M711.1,112.9v2.9h9.2v-2.9H711.1z M720.3,123.2v-3.1h-9.2v3.1
	H720.3z M737.4,146v11.6h-6.1V146h-5.6c-0.6,3.9-2.5,9.4-7.5,12.7c-1-1.2-3.1-2.9-4.5-3.8c3.8-2.3,5.4-5.9,6-8.8h-5.9v-5.5h6.2v-4.2
	h-5.3v-5.3H743v5.3h-5.5v4.2h6.4v5.5L737.4,146L737.4,146z M731.4,140.5v-4.2h-5.5v4.2H731.4z M753.7,150.8c0.1,8-5.1,7.5-12.4,7.7
	c-0.2-1.9-1.2-4.9-2.1-6.7c3.2-0.3,7.3,1.2,7.6-1.1c0,0,0-22.6,0-22.6h-16.1v-20.1h23V150.8L753.7,150.8z M737.4,112.9v2.9h9.5v-2.9
	H737.4z M746.9,123.3v-3.2h-9.5v3.2H746.9z"/>
</svg>
