<?xml version="1.0" encoding="utf-8"?>
<!-- Generator: Adobe Illustrator 27.4.1, SVG Export Plug-In . SVG Version: 6.00 Build 0)  -->
<svg version="1.1" id="_圖層_2" xmlns="http://www.w3.org/2000/svg" xmlns:xlink="http://www.w3.org/1999/xlink" x="0px" y="0px"
	 viewBox="0 0 127 187" style="enable-background:new 0 0 127 187;" xml:space="preserve">
<style type="text/css">
	.st0{fill:#FFFFFF;}
</style>
<path class="st0" d="M8.3,27.6v-6.9h42.2c0.5-2.3,0.7-8.8,0.7-19.4h16.6c-0.9,9.7-1.4,16.1-1.4,19.4h48.4v6.9H65
	c-0.9,5.5-2.3,10.6-4.2,15.2h48.4v6.9H58.7c-1.4,4.6-3.9,10.1-7.6,16.6h69.1v6.9h-38c6,12.9,18.7,21.7,38,26.3
	c-3.2,5.5-3.9,11.5-2.1,18v3.5c-0.5,0.5-1.2,0.2-2.1-0.7c-6.9-2.8-12.9-6.9-18-12.4v65H84.3v-9.7H38.7v9.7H24.9v-70.5
	c-4.1,4.6-10.8,11.1-20,19.3H0C16.1,106,28.6,89.9,37.3,73.3H2.8v-6.9h37.3c0-0.9,0.2-1.8,0.7-2.8c2.3-5.5,3.9-10.1,4.8-13.8H13.8
	v-6.9H47c0.5-3.2,1.4-8.3,2.8-15.2L8.3,27.6L8.3,27.6z M87.1,92.6c-4.2-6-6.9-12.4-8.3-19.3H47.7c-2.3,4.2-7.2,10.6-14.5,19.3h5.5
	v4.2h45.6v-4.2H87.1L87.1,92.6z M38.7,103.7v22.8h38.7v6.9H38.7v22.8h45.6v-52.5C84.3,103.7,38.7,103.7,38.7,103.7z"/>
</svg>
