<?xml version="1.0" encoding="UTF-8"?>
<svg id="_圖層_2" data-name="圖層 2" xmlns="http://www.w3.org/2000/svg" xmlns:xlink="http://www.w3.org/1999/xlink" viewBox="0 0 129 185">
  <defs>
    <style>
      .cls-1 {
        fill: #fff;
        filter: url(#drop-shadow-1);
      }
    </style>
    <filter id="drop-shadow-1" filterUnits="userSpaceOnUse">
      <feOffset dx="5" dy="5"/>
      <feGaussianBlur result="blur" stdDeviation="2"/>
      <feFlood flood-color="#040000" flood-opacity=".2"/>
      <feComposite in2="blur" operator="in"/>
      <feComposite in="SourceGraphic"/>
    </filter>
  </defs>
  <g id="_圖層_1-2" data-name="圖層 1">
    <path class="cls-1" d="m19.17,1.97h16.59c-2.76,22.58-12.21,39.86-28.34,51.84,9.21,0,18.42-2.07,27.65-6.22.45-5.53.92-11.51,1.38-17.97h15.9c-2.31,15.67-7.6,30.41-15.9,44.23,7.36,8.29,13.36,15.67,17.97,22.12-.46,1.38-.69,1.85-.69,1.38-1.85,5.99-4.15,10.37-6.91,13.13-.46,0-.93-.23-1.38-.69-1.85-4.15-3.23-8.29-4.15-12.44-13.37,9.68-25.35,16.14-35.94,19.35,3.22-6.45,2.07-12.2-3.46-17.28h4.84c15.21-17.04,24.19-32.49,26.96-46.31-9.68,7.84-18.9,13.37-27.65,16.59,1.38-6.45.45-11.98-2.76-16.59h2.07C14.56,43.91,19.17,26.86,19.17,1.97ZM7.42,123.62h11.06c.45,14.29-.46,23.5-2.76,27.65-1.38,5.98-5.3,11.51-11.75,16.59v-4.84c1.84-.46,2.76-3.23,2.76-8.29.45-3.23.69-13.59.69-31.1Zm27.65-48.38c-7.84,8.76-16.14,16.83-24.88,24.19,10.13.93,20.04-.92,29.72-5.53-1.38-3.68-2.31-6.91-2.76-9.68-.93-3.68-1.62-6.67-2.07-8.99Zm-6.91,47c4.15,9.68,7.6,19.12,10.37,28.34-3.69,3.68-7.15,6.67-10.37,8.99-.46,0-.93-3.46-1.38-10.37v-26.96h1.38Zm13.13,0c.45,1.85,1.38,3.69,2.76,5.53,4.6,8.76,7.83,14.75,9.68,17.97-2.76,3.69-5.53,6.91-8.29,9.68-.93-2.76-2.07-6.91-3.46-12.44-.93-5.98-1.62-12.67-2.07-20.04l1.38-.69ZM70.32,2.66h12.44v26.26h13.82c0-.92.23-3.22.69-6.91,0-3.22.23-5.75.69-7.6h14.51c-2.31,17.97-7.37,34.56-15.21,49.76h20.04v8.29h-24.88c-.46.93-1.15,1.85-2.07,2.76-7.84,9.68-13.13,15.9-15.9,18.66h22.81v-5.53h12.44v85.01h-12.44v-12.44h-24.88v12.44h-13.13v-63.59c-4.15,4.15-7.84,7.37-11.06,9.68h-5.53c2.3-1.84,5.76-5.29,10.37-10.37,1.84-1.83,3.91-3.91,6.22-6.22v-14.51h11.75c2.3-3.22,5.76-8.52,10.37-15.9h-32.49v-8.29h21.43v-26.96h-14.51v-8.29h14.51V2.66Zm26.96,98.84h-24.88v20.04h19.35v7.6h-19.35v24.19h24.88v-51.84Zm-2.07-64.28h-12.44v26.96h2.76c3.22-5.98,6.45-14.97,9.68-26.96Z"/>
  </g>
</svg>