<svg width="487" height="35" viewBox="0 0 487 35" fill="none" xmlns="http://www.w3.org/2000/svg">
<path d="M3.37999 10.22C2.93999 10.69 2.50999 11.16 2.06999 11.6C1.70999 10.84 0.65 9.20001 0 8.51001C2.18 6.47001 4.14 3.31002 5.2 0.0800171L8.50999 0.98999C8.21999 1.92999 7.81999 2.84004 7.37999 3.79004H10.14C9.85 2.92004 9.45 1.97001 9.05 1.14001L12.61 0.160034C13.16 1.29003 13.85 2.70004 14.21 3.79004H16.86V6.52002H13.08V7.90002H16.13V7.97003C18.02 5.86003 19.69 2.99002 20.67 0.0800171L24.05 1.03003C23.72 1.97003 23.32 2.88002 22.89 3.83002H25.69C25.4 2.96002 25 2.01 24.64 1.25L28.2 0.27002C28.75 1.36002 29.4 2.74002 29.8 3.83002H33.07V6.52002H28.56V7.90002H32.12V10.41H28.56V11.79H32.12V14.33H28.56V15.71H33.5V18.4H18.92V10.26C18.48 10.81 18.01 11.31 17.61 11.79C17.32 11.32 16.7 10.48 16.12 9.75V10.4H13.07V11.78H16.12V14.32H13.07V15.7H17.18V18.39H3.37V10.21L3.37999 10.22ZM30.09 21.52C28.35 24.28 25.95 26.46 23.04 28.21C26.31 28.9 29.87 29.37 33.62 29.63C32.68 30.65 31.51 32.54 30.93 33.74C25.91 33.27 21.3 32.36 17.3 30.87C12.76 32.47 7.63 33.45 2.33 34C2 32.84 1.28 31.13 0.589996 30.11C4.55 29.82 8.4 29.27 11.97 28.44C9.94 27.24 8.11999 25.79 6.51999 24.19L8.19 23.43H2.62999V19.94H26.4L27.16 19.76L30.1 21.54L30.09 21.52ZM9.62999 6.51001H7.00999V7.89001H9.62999V6.51001ZM9.62999 10.4H7.00999V11.78H9.62999V10.4ZM9.62999 14.32H7.00999V15.7H9.62999V14.32ZM11.59 23.41C13.19 24.68 15.19 25.7 17.55 26.57C19.62 25.7 21.4 24.68 22.89 23.41H11.59ZM25.11 6.51001H22.57V7.89001H25.11V6.51001ZM25.11 10.4H22.57V11.78H25.11V10.4ZM25.11 14.32H22.57V15.7H25.11V14.32Z" fill="white"/>
<path d="M71.64 19.12C70.48 19.48 69.31 19.85 68.15 20.17V29.37C68.15 31.37 67.82 32.46 66.73 33.15C65.6 33.84 64.08 33.99 61.68 33.95C61.57 32.9 61.1 31.11 60.63 29.95C61.9 30.02 63.17 30.02 63.61 29.99C64.05 29.99 64.23 29.84 64.23 29.37V21.34C63.03 21.7 61.83 22.03 60.78 22.32L59.84 18.18C61.08 17.93 62.6 17.53 64.24 17.13V10.84H60.42V6.88H64.24V0.0499878H68.17V6.88H71.48V10.84H68.17V16.07L71.11 15.23L71.66 19.12H71.64ZM84.33 29.77C85.31 29.88 86.33 29.92 87.38 29.92C88.51 29.92 92.83 29.92 94.32 29.85C93.77 30.76 93.27 32.5 93.12 33.56H87.09C82.07 33.56 78.15 32.69 75.39 29.27C74.55 31.2 73.5 32.83 72.19 34.1C71.54 33.45 69.83 32.28 68.92 31.74C71.54 29.45 72.84 25.71 73.39 21.45L77.32 21.96C77.14 23.12 76.96 24.25 76.67 25.34C77.61 26.97 78.85 28.03 80.34 28.72V20.94H73.54V17.74H80.34V15.89H71.43V12.55H80.34V10.88H73.54V7.65002H80.34V6.12H72.02V2.73999H80.34V0.0100098H84.34V2.73999H93.46V6.12H84.34V7.65002H92.05V12.56H94.3V15.9H92.05V20.95H84.34V23.06H92.3V26.44H84.34V29.78L84.33 29.77ZM84.33 12.54H88.04V10.87H84.33V12.54ZM84.33 17.74H88.04V15.89H84.33V17.74Z" fill="white"/>
<path d="M137.36 6.40002C137.36 6.40002 137.32 7.85002 137.29 8.40002C136.74 23.77 136.2 29.44 134.93 31.15C134.09 32.42 133.3 32.86 132.13 33.08C131.11 33.3 129.59 33.3 127.99 33.26C127.92 31.95 127.44 30.03 126.75 28.79C128.02 28.9 129.19 28.94 129.84 28.94C130.39 28.94 130.71 28.79 131.11 28.25C131.91 27.2 132.45 22.69 132.89 10.66H129.33C128.89 19.82 127.55 28.18 123.22 33.96C122.46 32.91 121 31.49 119.8 30.87C123.65 25.93 124.74 18.66 125.03 10.66H120.78V6.44H125.14C125.18 4.37 125.18 2.22 125.18 0.119995H129.54C129.54 2.23 129.51 4.37 129.47 6.44L137.36 6.40002ZM152.7 4.15002V32.94H148.19V30.69H143.32V33.2H138.99V4.16003H152.69L152.7 4.15002ZM148.19 26.5V8.29004H143.32V26.5H148.19Z" fill="white"/>
<path d="M191.81 19.3C190.72 19.63 189.63 19.95 188.5 20.25V28.9C188.5 30.9 188.17 31.95 187.05 32.61C186 33.34 184.4 33.48 182.07 33.45C181.96 32.4 181.49 30.61 180.94 29.49C182.28 29.53 183.52 29.53 183.96 29.49C184.4 29.49 184.54 29.34 184.54 28.87V21.42L180.69 22.55L179.75 18.41C181.09 18.08 182.73 17.68 184.55 17.21V10.89H180.33V6.89001H184.55V0.0599976H188.51V6.89001H191.49V10.89H188.51V16.2L191.27 15.44L191.82 19.33L191.81 19.3ZM214.06 4.17999V8.10999H205.16V10.98H212.47V14.9H193.86V10.98H201.06V8.10999H191.97V4.17999H201.06V0.179993H205.17V4.17999H214.07H214.06ZM209.84 18.03H213.84V21.96H209.84V29.45C209.84 31.59 209.44 32.65 208.02 33.3C206.71 33.92 204.75 33.95 202.17 33.95C201.99 32.75 201.44 31.08 200.93 29.92C202.56 30.03 204.45 29.99 205.04 29.96C205.55 29.96 205.73 29.85 205.73 29.34V21.96H192.35V18.03H205.73V15.56H209.84V18.03ZM197.74 22.21C199.12 24.06 200.94 26.64 201.81 28.28L198.17 30.39C197.41 28.72 195.66 25.99 194.35 24.03L197.73 22.21H197.74Z" fill="white"/>
<path d="M292.03 17.78C294.57 23.56 299.23 27.81 306.31 29.66C305.26 30.57 303.95 32.46 303.33 33.7C296.5 31.52 292.1 27.3 289.04 21.34C287.04 26.17 282.93 30.75 274.76 33.81C274.18 32.72 272.87 30.9 271.92 30.07C280.32 27.09 283.88 22.4 285.37 17.78H273.2V13.35H286.28C286.35 12.37 286.39 11.46 286.39 10.55V6.88H274.5V2.45001H303.29V6.88H290.93V10.62C290.93 11.49 290.89 12.4 290.86 13.35H304.71V17.78H292.03Z" fill="white"/>
<path d="M365.34 28.68V32.93H332.67V28.68H346.7V21.37H336.85V17.19H346.7V10.79H339.18C338.13 12.79 337 14.64 335.8 16.06C334.93 15.37 333 14.06 331.91 13.48C334.75 10.43 337.11 5.41003 338.34 0.470032L342.81 1.45001C342.3 3.19001 341.72 4.90001 341.1 6.57001H346.7V0.0300293H351.24V6.57001H363.49V10.79H351.24V17.19H362.11V21.37H351.24V28.68H365.34Z" fill="white"/>
<path d="M405.73 11.13C405.62 14.87 405.11 19.38 403.22 23.71C404.97 25.35 406.57 26.84 407.62 28.11L404.78 31.71C403.87 30.55 402.56 29.13 401.07 27.64C399.54 29.93 397.58 32.07 394.89 34.04C394.24 33.13 392.82 31.71 391.84 31.02C394.57 29.09 396.57 26.95 397.98 24.66C396.13 22.95 394.2 21.21 392.56 19.75C393.14 17.57 393.76 14.81 394.27 11.83L392.23 11.97L391.83 7.85999C392.78 7.81999 393.83 7.79 394.92 7.75C395.28 5.13 395.57 2.52 395.72 0.119995L400.01 0.299988C399.79 2.58999 399.5 5.06001 399.1 7.57001L401.72 7.41998V5.13H405.75V7.20001L407.64 7.09003V10.98L405.71 11.12L405.73 11.13ZM398.46 11.6C398.02 14 397.59 16.36 397.12 18.43C398.03 19.19 398.97 19.99 399.92 20.79C401.16 17.52 401.59 14.21 401.7 11.38L398.47 11.6H398.46ZM425.86 19.05H418.59V29.26C418.59 31.48 418.12 32.57 416.59 33.26C415.14 33.88 413.06 33.99 410.23 33.95C410.01 32.75 409.4 30.97 408.78 29.84C410.6 29.88 412.7 29.88 413.29 29.88C413.91 29.88 414.09 29.73 414.09 29.19V19.05H406.46V14.94H414.09V11.45C415.65 10.07 417.25 8.03001 418.52 6.14001H407.87V2.21002H421.35L422.37 1.98999L425.28 4.10004C423.57 6.75004 421.17 9.81002 418.59 12.21V14.94H425.86V19.05Z" fill="white"/>
<path d="M461.96 17.56C461.41 20.54 460.54 23.78 459.38 26.5C459.92 26.86 460.62 27.34 461.52 27.88C463.99 29.37 467.41 29.59 471.66 29.59C475.91 29.59 482.35 29.23 486.38 28.64C485.87 29.8 485.14 31.91 485.11 33.07C482.13 33.25 475.7 33.51 471.44 33.51C466.61 33.51 463.55 33.11 460.94 31.58C459.41 30.74 458.14 29.55 457.38 29.55C456.54 29.55 455.24 32.02 454.36 34.09L451.45 29.98C452.76 28.42 454.14 27.18 455.38 26.45C456.25 24.63 456.94 22.34 457.41 20.2H452.79C453.66 18.05 454.64 15.15 455.48 12.31H452.14V8.46002H460.75C459.99 11.04 459.04 13.95 458.21 16.46H458.79L459.41 16.35L461.95 17.55L461.96 17.56ZM456.04 7.45001C455.64 5.78001 454.66 3.12003 454.04 1.16003L457.86 0C458.55 1.96 459.5 4.40003 459.97 6.03003L456.04 7.45001ZM464.83 8.35999H461.78V1.13H484.93V8.35999H481.15V9.70001H475.55V11.01H483.11V21.66H475.55V22.97H484.89V26.1H475.55V28.5H471.33V26.1H462.1V22.97H471.33V21.66H463.81V11.01H471.33V9.70001H464.82V8.35999H464.83ZM465.74 4.29004V6.69H471.34V5.27002H475.56V6.69H480.79V4.29004H465.74ZM467.48 15.12H471.33V13.67H467.48V15.12ZM471.34 19.05V17.6H467.49V19.05H471.34ZM475.55 13.67V15.12H479.26V13.67H475.55ZM479.26 17.59H475.55V19.04H479.26V17.59Z" fill="white"/>
</svg>
