<?xml version="1.0" encoding="utf-8"?>
<!-- Generator: Adobe Illustrator 26.5.0, SVG Export Plug-In . SVG Version: 6.00 Build 0)  -->
<svg version="1.1" id="圖層_1" xmlns="http://www.w3.org/2000/svg" xmlns:xlink="http://www.w3.org/1999/xlink" x="0px" y="0px"
	 viewBox="0 0 309 99.2" style="enable-background:new 0 0 309 99.2;" xml:space="preserve">
<style type="text/css">
	.st0{fill:#E52C29;}
</style>
<path class="st0" d="M298.4,41.2c1.8,0.7,0.7-6.2,1-6.9h-3.2C297.2,36.6,298,38.9,298.4,41.2z M299.4,61h-5.5v6.5h5.5V61z M59.2,4.5
	h59.3V18L84.9,97.7H62.8c0-0.2,33.8-75,33.6-75.3H59.2V4.5z M177.3,4.5v17.8h-30.6L144.9,37c62.1-1.2,36.8,83.8-23.8,57.5l3.8-16.3
	c40.5,18.5,49.3-33.9,1-25.5l5.4-48.2C131.3,4.5,177.3,4.5,177.3,4.5z M201.7,49C176.9,34.5,192,1.4,219.1,3.2
	c29.4-0.2,38.3,30.2,15.2,44.1v0.2c28.4,12.6,16,53.8-16.5,51.5c-34.2,1.4-41.5-37.1-16.1-49.8V49z M228.8,72.6
	c0-8-5.5-13.7-12-15.9c-11.7,3.9-12.3,27.6,1.6,28.1C225.3,84.7,228.8,78.7,228.8,72.6z M209.3,27.9c0,5.9,4.3,10.8,10.5,13.2
	c9.2-3.1,11.3-23.6-1.3-23.9C211,17.3,209.3,23.5,209.3,27.9z M297.9,4.7h8.8v5.5h-8.8v1.4h-6.6v-1.4h-9.9v1.4h-6.6v-1.4H266V4.7
	h8.8V2.6h6.6v2.1h9.9V2.6h6.6V4.7z M305.9,28.9v11.9c0,5.4-2.5,5.6-7.6,5.8c-0.2-1.2-0.5-2.4-1-3.7l-3.9,0.9c0-0.5-0.1-1.2-0.3-2.1
	c-2.9,0.2-12.7,0.9-17,1.1l-0.5-5.6c2-0.1,6.3-0.2,7.7-0.3v-2.6h-9v12.3h-6.4V28.9h15.4v-1.3h-12.5V12.3h31.9v15.3h-12.9v1.3H305.9z
	 M277,16.6V18h6.1v-1.4H277z M277,23.3h6.1v-1.4H277V23.3z M295.8,17.9v-1.4h-6.2v1.4H295.8z M295.8,23.3v-1.4h-6.2v1.4H295.8z
	 M289.6,36.7l2.2-0.1c-0.1-0.2-0.3-0.8-0.7-1.7l2.5-0.5h-4V36.7z M279.9,82.6v6.5c7.7,1.5,24.1,0.6,29.1,0.5c-1.1,1.5-2,4.1-2.6,6.7
	c-9.9-0.8-28.9,2.9-35.2-5.6c-0.5,3-1.1,5.5-1.9,7.5c-1.6-1-3.5-2-5.7-2.8c1.7-3.9,2.6-10.7,2.6-20.4l6.1,0.5
	c-0.1,4.2-0.7,6.4,1.3,9.1V72.9H265V67h7.3v-3.4h-6v-5.8h6v-4.1h6.3v4.1h5.9v5.8h-5.9V67h7.1v5.9h-5.8v3.9h5.4v5.8
	C285.3,82.6,279.9,82.6,279.9,82.6z M301.2,88.3c-3.2-0.1-10.8,0.7-12.4-2c-2.8-3.4-0.9-26.7-1.4-31.2h18.4v18.2h-11.9
	c0.2,1.4-0.6,8,0.6,8.8c0.7,0.4,5.2,0.1,6.1,0.2c2.6-0.5,1.8-2.6,2.2-5.7c1.4,1.1,3.5,2,5.8,2.6C307.7,85.5,307,88.2,301.2,88.3z
	 M45.5,42.7l-5.1,2.6c-0.2-1.1-0.8-2.8-1.6-4.8c-0.5,6-4.1,6.1-8.5,5.8c-6.9,0.5-5.3-6.1-5.5-10.9c-0.6,4.7-1.8,8-3.6,9.9l-4.7-2.6
	c1.1-1.1,1.8-2.5,2.3-4.2l-4.5,1.4c-0.2-2-0.7-4.5-1.6-7.4v14H6.9V33.7c-0.5,4-1.3,7.1-2.3,9.5c-1.5-0.9-3-1.7-4.7-2.3
	C1,38.6,1.6,35,2,30.2L6.8,31v-2.9c-1,0.1-4.3,0.4-5.7,0.5l-0.7-5.7c0.8,0,3.1-0.2,3.8-0.2c0.4-0.5,0.9-1.2,1.5-2.1
	c-1.2-2.1-3-4.3-5.2-6.6l3.2-4.4l0.9,0.8c1.2-2.6,2.2-5.1,2.9-7.6l5.7,1.9c-2.3,4.4-4,7.5-5.2,9.3c0.5,0.6,0.8,1.1,0.9,1.3
	c1.1-2,2.4-4.3,3.6-7.1l5.2,2.4c-2.5,4-4.3,6.7-5.4,8.3l3.3-1.4c1.4,2.6,2.4,5.3,3.1,8V6.9h8.8c0.5-2,0.9-3.5,1-4.5L36,3.3
	c0,0.5-0.6,1.7-1.5,3.6h9.1v22.5H32.2c2,1.3,3.4,2.5,4.3,3.4l-4.2,3.6c-0.5-0.5-1.1-1.2-2-1.9c0.2,0.8-0.4,6,0.3,6.4
	c2.7,0.3,3.1,0,3.2-3c1.1,0.8,2.7,1.5,4.7,2.1c-0.8-1.9-1.7-3.5-2.7-5l4.7-2.3C43,36.1,44.6,39.3,45.5,42.7z M10,22.3l2.6-0.2
	c-0.4-0.9-0.7-1.7-0.9-2.2C11.4,20.4,10.3,21.9,10,22.3z M24.7,33.1h3.8c-1.2-0.9-2.3-1.6-3.2-2.1l1.9-1.6h-8.4v-1.3l-4.1,1.8
	c-0.1-1-0.3-1.8-0.5-2.5l-1.7,0.2v3.6l3.9-1.2c1.1,2.5,1.9,5.2,2.3,8c0.4-1.4,0.6-2.9,0.9-4.7l5.1,1.2
	C24.7,34.5,24.7,33.1,24.7,33.1z M29.2,11.7H24V16l2.3-2.2l1.4,0.7C28.3,13.7,28.7,12.7,29.2,11.7z M24,16.7v2.1
	c0.4-0.3,0.8-0.8,1.4-1.4C25.4,17.4,24.9,17.2,24,16.7z M24,19.3v5.3h3.6c-0.5-0.8-1.1-1.4-1.6-1.8c1.5-0.7,2.8-1.5,4-2.6l-1.2-0.8
	c-0.8,0.9-1.6,1.6-2.3,2.2C25.9,20.7,25,19.9,24,19.3z M30.7,24.7h7.4v-3.3l-2.6,2.8c-0.8-0.7-1.6-1.3-2.1-1.7
	C32.5,23.3,31.6,24,30.7,24.7z M31.3,16l-0.2,0.4c0.3,0.2,1.2,0.7,1.4,0.8c0.1-0.1,0.3-0.5,0.7-1.2C33.2,16,31.3,16,31.3,16z
	 M38.1,13.8v-2.1h-4.8c-0.2,0.5-0.3,0.9-0.5,1.3c0.5,0,2.4,0,2.8-0.1L38.1,13.8z M38.1,21v-6.6c-0.5,1.7-1.2,3.3-2.3,5
	C36.9,20.1,37.7,20.7,38.1,21z M14.7,60.2v-3.7c-4.6,5.2-2.9,34.5-3.1,41H5.2V75.8c-0.6,0.8-1.3,1.6-1.9,2.5c-0.7-2.2-1.8-5-3.2-7.4
	C3.7,66.7,6.9,60,8.9,53.5l6.2,1.9l0,0h29.4v4.8h-9.3v1.6H43v9.9H15.4v-9.9h7.5v-1.6C22.9,60.2,14.7,60.2,14.7,60.2z M42.6,90.6H37
	c4,1.4,6.9,2.5,8.7,3.4l-5.8,3.7c-2.5-1.5-5.8-3-9.8-4.3l3.2-2.8H25l3.3,2.3c-3.1,2.1-7.2,3.8-12,4.7c-0.9-1.6-2-3.2-3.4-4.6
	c3.3-0.5,6.2-1.4,8.8-2.4H16V73h26.7v17.6H42.6z M21.1,65.6V68h1.7v-2.4H21.1z M22.2,76.5v1.2h14v-1.2H22.2z M22.2,81.2v1.2h14v-1.2
	H22.2z M22.2,85.7V87h14v-1.3H22.2z M29.9,61.8v-1.6H28v1.6H29.9z M28.1,65.6V68H30v-2.4H28.1z M37,65.6h-1.8V68H37V65.6z"/>
</svg>
