<?xml version="1.0" encoding="utf-8"?>
<!-- Generator: Adobe Illustrator 26.5.0, SVG Export Plug-In . SVG Version: 6.00 Build 0)  -->
<svg version="1.1" id="圖層_1" xmlns="http://www.w3.org/2000/svg" xmlns:xlink="http://www.w3.org/1999/xlink" x="0px" y="0px"
	 viewBox="0 0 602 185" style="enable-background:new 0 0 602 185;" xml:space="preserve">
<style type="text/css">
	.st0{fill:#FFFFFF;}
	.st1{fill:#2EA7E0;}
</style>
<path class="st0" d="M0,82C10.7,63.4,22.1,30.6,28.4,0.5L51.2,7c-0.6,1.8-2,3.1-6.1,3.1C41.3,20.7,37,31,32.3,40.4l6.1,2.1
	c-0.5,1.5-1.8,2.4-4.7,3v93.1c-0.1,1.8-10.4,5.6-15.9,4.7V64.6C12.8,71.5,7.6,77.9,2,83.2L0,82L0,82z M47.3,20.1l-0.8-3h71.9
	l9.1-11.7l16.8,12.2c-1.1,2.4-4.4,2.6-8.3,2.6 M116.5,124.1c0,15.6-7.1,18.5-20.1,19.8c0-10.5-2.9-13-13.9-14.3v-2
	c18.1,0,18.1,0.7,18.1-2.2V87.9l21.5,1.4c-0.2,1.8-0.9,2.9-5.6,3.5 M43.2,104.9l-0.8-3.1l80.5,0l8.5-10.8l15.6,11.1
	c-1.2,2.3-3.4,2.7-7.1,2.7 M109.6,73.3l0.5-1.5c42.4-1.7,33.5,28.7,19.2,20.6C126.1,85.6,116,75.9,109.6,73.3z M101.1,79.9l34.8-0.7
	c-13.7,4.6-51.5,10.5-81.1,15c-1.1,2-2.7,2.9-4.4,3.2l-6.4-16.8c8.5,0.2,23.3,0,41.2-0.5V0.5l22.6,2.1c-0.3,2.3-2,3.2-6.6,4
	 M68.9,67.5c0.1,2.4-1.5,6.5-16,7V26.1l16.9,6.9l46.2,0l6.2-7.9l17.1,11.7c-0.8,1.1-2.8,2.3-5.5,2.9V68c0,0.2-4.9,3.4-16.3,3.4v-3.8
	 M55.5,106.6c41.9,6.4,20,33.4,9,20.6c-0.8-6.9-4.9-14.8-9.9-19.5L55.5,106.6L55.5,106.6z M117.5,48.6V36H68.9v12.6 M117.5,64.5
	V51.7H68.9v12.8 M237.5,48.6c2.9,12.5,7.3,23,13.3,32c8.4-7.6,17.4-17.8,21.9-24.5l16.8,11.3c-1,1.9-3.6,1.9-5.8,1.4
	c-7.6,4.9-19.2,11-30.5,15.4c11,15.1,26.1,25.1,43.3,32.2l-0.5,1.7c-6.9,0.8-12.4,5.6-15.4,13.3c-25.5-16.3-40.1-40.1-45.9-82.6
	h-0.9c-5.6,5-12.5,9.6-20.3,13.7c30,18.2,42.3,81.9-0.9,81.1c-0.3-11.1-5.2-13.1-16.2-14.8v-2c21-0.3,27.5,5.4,28.4-20.7
	c-19.1,11-45.1,19.8-70.4,23.3l-0.6-2.4c26.2-7.2,53.2-22.1,68.4-38.7c-0.5-1.8-1.1-3.8-1.8-5.8c-16.8,9-41.2,17.5-62.8,21.3
	l-0.6-2.1c20.6-7,43.5-20.4,56.6-32.9c-1.1-1.5-2.3-3.1-3.5-4.6c-14.6,7.2-32,12.3-50.2,16l-0.9-2.4c20.4-7.2,39.2-18,51.7-29H177
	l-0.8-3h72.1l8.7-11.1l12.8,9c1.4-4.7,3.4-12.8,4.6-18.8h-96.2c2,32.1-39.4,22-17.5,5.5c6.1-2.3,12.8-9.1,13-17.2h2.3
	c1.1,3,1.7,6,2,8.7h39V0l23.2,2.1c-0.3,2.1-1.7,3.3-6.4,4v15.6h39.5l8.5-8.5l14.9,14.3c-1.1,1.2-2.7,1.5-5.8,1.7
	c-4.9,5-13,11.7-19.5,15.4l2,1.4C270.8,51.3,242.5,47.6,237.5,48.6z M430.7,19.7l18.4,12.8c-1.5,5.8-56,1.5-60.7,2.7
	c-5.5,7.6-12.6,16-18.8,21.8h36.1l6.7-8.7L430.2,61c-1.1,1.2-3.2,2.6-6.2,3.2v73.3c0,0-4.4,4.6-16.6,4.6v-11h-59.6v6.1
	c0,0.3-2.3,6.4-16.2,6.4V49.9L349,57h15.6c0.6-6,1.1-14.8,1.5-21.8h-58.7l-0.9-3.1H390c4.3-9.4,9-22.4,11.6-31.9l22.9,7.8
	c-0.5,2.1-3.7,2.4-5.9,2c-5.8,6.7-15.5,15.2-24.7,22.1h26.8L430.7,19.7L430.7,19.7z M336.2,0.9c40.7,7.4,26.5,40.5,10.1,26.2
	c-0.6-8.4-5.5-18.9-11.1-25.2L336.2,0.9z M407.4,60.1h-59.6v20.1h59.6V60.1z M347.8,83.2v20.6h59.6V83.2H347.8z M347.8,128.1h59.6
	v-21.2h-59.6V128.1z M578.6,47.7l7.9-11L601.5,48c-2.4,5.2-25.6,1.8-30.3,2.7v24.7c0,0.3-2.7,4-15.5,4v-6.2h-30.6v3.7
	c0,0.3-2.6,3.8-15.5,3.8V50.8h-20.7c-0.2,30.7,2.1,66.4-28.2,92.7l-1.7-1.2c19.7-36.1,12.9-85.4,14.2-125.1l18.3,6.7h35.4V0.5
	l22.4,2c-0.3,2.3-1.8,3.4-6.6,4v17.4h34.2l9-12l16.3,12.5c0.3,5.7-109.5,1.3-113.3,2.6v20.9h20.7V31.6l21.2,1.7
	c-0.3,2.1-1.5,3.2-5.6,3.7v10.8h30.6V31.6l21.2,1.7c-0.3,2.1-1.5,3.2-5.6,3.7v10.8H578.6L578.6,47.7z M569.3,90.9l6.2-8.1l17.1,12
	c-0.9,1.2-3.2,2.6-6.2,3.1c-1.8,15.8,7.8,34.3-18.8,36.6c0-10.5-2.9-13.4-11.7-14.5v-2c21.2-0.2,13.6,3.9,14.9-24.1h-22.3v45.3
	c0,0.1-3.2,4.4-16.6,4.4V93.9h-20.3v36.4c0,0.3-2.1,5.5-15.6,5.5V84.3c18.6,7.7,16,6.7,35.8,6.6v-14l21.4,1.8
	c-0.3,1.7-1.2,2.6-4.7,3.2v9C548.6,90.9,569.3,90.9,569.3,90.9z M555.6,70.1V50.8h-30.6v19.4H555.6z"/>
<path class="st1" d="M147.2,175.4c4.9,0.4,5.3,6.6,0.9,8.1c-2.2,0.9-10.1,0.4-12.8,0.5v-0.5c1.8,0.1,2.7-0.4,2.6-2.5
	c0,0,0-10.9,0-10.9c0.1-2.2-0.8-2.6-2.6-2.5v-0.5c2.3,0.1,9.1-0.2,11.1,0.3C151,168,152,174.2,147.2,175.4L147.2,175.4z
	 M140.4,174.7c9.8,2.3,9.5-8.7,0-6.5L140.4,174.7L140.4,174.7z M140.4,182.7c10.4,2.6,10.2-8.9,0-6.9L140.4,182.7L140.4,182.7z
	 M165,168.1v6.6c2.2-0.3,6.9,1.1,6.7-2.4h0.5v5.9h-0.5c0.1-3.7-4.4-2.2-6.7-2.5c0.2,1.2-0.5,6.6,0.5,7.3c3.4,0.4,7.6,0.8,9.1-3.2
	h0.5l-1.5,4.2h-13.6v-0.5c1.7,0.1,2.8-0.5,2.5-2.5c0,0,0-10.9,0-10.9c0.1-2.2-0.7-2.5-2.5-2.5v-0.5h13.6l0.2,3.7h-0.5
	C173.1,166.6,167.6,168.4,165,168.1L165,168.1z M194.6,166.8v5.8h-0.5c-0.9-9.2-14.8-2.9-3.6,1.6c9.1,2.9,4.8,12.7-3.4,9.6
	c-1.4-0.4-2.2-0.9-2.4,0.6h-0.5v-5.8h0.5c-0.2,7,13,5.6,7.3-0.4c-1.7-1.2-6.4-3-7.4-5.1c-2.3-4.5,3.7-7.9,7.6-5.7
	c1,0.5,1.7,0.5,1.9-0.7C194.1,166.8,194.6,166.8,194.6,166.8z M218.8,167.1l0.2,3.9h-0.5c-0.1-3.2-3.4-3-5.7-2.9V181
	c-0.1,2.2,0.7,2.5,2.5,2.5v0.5h-7.5v-0.5c1.8,0.1,2.6-0.4,2.5-2.5c0,0,0-12.8,0-12.8c-2.4-0.1-5.6-0.3-5.6,2.9h-0.5l0.2-3.9H218.8z
	 M249,166.8c11.2-0.2,11,17.9-0.2,17.6C237.4,184.7,237.6,166.3,249,166.8L249,166.8z M248.7,167.7c-7.7-0.1-7.5,15.9,0,15.8
	C256.6,183.8,256.5,167.4,248.7,167.7L248.7,167.7z M270.6,168.1v6.6c2-0.2,5.6,0.9,5.5-2.3h0.5v5.7h-0.5c0.4-3.2-3.6-2.2-5.5-2.4
	v5.3c-0.2,2.1,0.9,2.6,2.6,2.5v0.5h-7.6v-0.5c1.8,0.1,2.7-0.4,2.5-2.5c0,0,0-10.9,0-10.9c0.2-2-0.8-2.7-2.5-2.5v-0.5h13.1l0.2,3.7
	h-0.5C277.9,167,273.4,168.2,270.6,168.1L270.6,168.1z M315,167.1l0.2,3.9h-0.5c-0.1-3.2-3.4-3-5.7-2.9V181
	c-0.1,2.2,0.7,2.5,2.5,2.5v0.5h-7.5v-0.5c1.8,0.1,2.6-0.4,2.5-2.5c0,0,0-12.8,0-12.8c-2.4-0.1-5.6-0.3-5.6,2.9h-0.5l0.2-3.9
	C300.5,167.1,315,167.1,315,167.1z M327.5,174.9h8.2c-0.4-2.3,1.4-8-2.5-7.3v-0.5h7.6v0.5c-1.7-0.1-2.8,0.5-2.5,2.5
	c0,0,0,10.9,0,10.9c-0.2,2,0.8,2.7,2.5,2.5v0.5h-7.6v-0.5c4,0.8,2.1-5.5,2.5-7.6h-8.2v5.1c-0.2,2.1,0.8,2.6,2.5,2.5v0.5h-7.6v-0.5
	c1.8,0.1,2.7-0.4,2.5-2.5c0,0,0-10.9,0-10.9c0.2-2.1-0.8-2.7-2.5-2.5v-0.5h7.6v0.5C326.1,166.9,327.9,172.7,327.5,174.9L327.5,174.9
	z M353.5,168.1v6.6c2.2-0.3,6.9,1.1,6.7-2.4h0.5v5.9h-0.5c0.1-3.7-4.4-2.2-6.7-2.5c0.2,1.2-0.5,6.6,0.5,7.3c3.4,0.4,7.6,0.8,9.1-3.2
	h0.5l-1.5,4.2h-13.6v-0.5c1.7,0.1,2.8-0.5,2.5-2.5c0,0,0-10.9,0-10.9c0.1-2.2-0.7-2.5-2.5-2.5v-0.5h13.6l0.2,3.7h-0.5
	C361.7,166.6,356.2,168.4,353.5,168.1L353.5,168.1z M396.6,175.4c4.9,0.4,5.3,6.6,0.9,8.1c-2.2,0.9-10.1,0.4-12.8,0.5v-0.5
	c1.8,0.1,2.7-0.4,2.6-2.5c0,0,0-10.9,0-10.9c0.1-2.2-0.8-2.6-2.6-2.5v-0.5c2.3,0.1,9.1-0.2,11.1,0.3
	C400.4,168,401.3,174.2,396.6,175.4L396.6,175.4z M389.8,174.7c9.8,2.3,9.5-8.7,0-6.5C389.8,168.2,389.8,174.7,389.8,174.7z
	 M389.8,182.7c10.4,2.6,10.2-8.9,0-6.9C389.8,175.8,389.8,182.7,389.8,182.7z M414.3,168.1v6.6c2.2-0.3,6.9,1.1,6.7-2.4h0.5v5.9H421
	c0.2-3.7-4.4-2.2-6.6-2.5c0.2,1.2-0.5,6.6,0.5,7.3c3.4,0.4,7.6,0.8,9.1-3.2h0.5l-1.5,4.2h-13.6v-0.5c1.7,0.1,2.8-0.5,2.5-2.5
	c0,0,0-10.9,0-10.9c0.1-2.2-0.7-2.5-2.5-2.5v-0.5h13.6l0.2,3.7h-0.5C422.5,166.6,417,168.4,414.3,168.1L414.3,168.1z M443.9,166.8
	v5.8h-0.5c-0.9-9.2-14.8-2.9-3.6,1.6c9.1,2.9,4.8,12.7-3.4,9.6c-1.4-0.4-2.2-0.9-2.4,0.6h-0.5v-5.8h0.5c-0.2,7,13,5.6,7.3-0.4
	c-1.7-1.2-6.4-3-7.4-5.1c-2.3-4.5,3.7-7.9,7.7-5.7c1,0.5,1.7,0.5,1.9-0.7C443.5,166.8,443.9,166.8,443.9,166.8z M468.2,167.1
	l0.2,3.9h-0.5c-0.1-3.2-3.4-3-5.7-2.9V181c-0.1,2.2,0.7,2.5,2.5,2.5v0.5h-7.5v-0.5c1.8,0.1,2.6-0.4,2.5-2.5c0,0,0-12.8,0-12.8
	c-2.4-0.1-5.6-0.3-5.6,2.9h-0.5l0.2-3.9C453.7,167.1,468.2,167.1,468.2,167.1z"/>
</svg>
