<svg width="676" height="118" viewBox="0 0 676 118" fill="none" xmlns="http://www.w3.org/2000/svg">
<path d="M26.17 11.22V2.92H34.13C34.13 7.37 34.06 11.76 34.13 14.53C36.56 33.29 46.14 47.52 61.45 56.36L55.72 64.19C45.8 57.85 35.14 43 32.44 23.64C29.67 44.76 18.61 57.44 2.01001 64.05L0.519989 61.49C21.03 48.94 26.16 29.98 26.16 11.22H26.17Z" fill="#8DC21F"/>
<path d="M145.36 56.63V60.74H87.61V56.63H113.18V39.96H94.02V36.18H113.18V21.88H100.02C97.05 27.48 93.34 32.41 89.22 36.05L87.13 34.23C92.46 26.47 96.24 16.42 98.2 4.21001L105.89 6.16C104.95 10.28 103.53 14.39 101.78 18.24H113.18V1.64H120.53V18.24H140.91V21.88H120.53V36.18H139.42V39.96H120.53V56.63H145.36Z" fill="#8DC21F"/>
<path d="M186.02 57.43C186.02 63.84 179.61 65.66 170.5 61.08L170.97 58.51C178.8 59.46 179.47 58.85 179.47 55.75V39.02C177.31 40.3 175.15 41.52 172.99 42.6L170.09 35.92C172.72 35.18 176.03 34.1 179.47 32.75V18.04H170.9V14.6H179.47V1.71001H186.01V14.6H192.42V18.04H186.01V29.91C187.63 29.17 189.18 28.36 190.67 27.48L192.02 29.7C190.06 31.52 188.04 33.14 186.01 34.69V57.42L186.02 57.43ZM231.36 57.16L228.53 64.11C224.68 63.23 214.56 59.52 210.31 49.4C205.99 59.72 196.55 63.37 186.76 64.58L186.02 62.15C195.47 59.92 201.27 55.6 204.1 47.91H188.58V44.47H205.04C205.51 42.38 205.85 40.09 205.98 37.59L212.73 37.99C212.6 40.35 212.33 42.51 211.85 44.47H230V47.91H212.73C217.72 54.59 226.76 56.41 231.35 57.15L231.36 57.16ZM202.28 0.889999L208.96 3.12C208.15 4.67 207.34 6.09 206.6 7.37H213.21L214.76 6.28999L221.03 9.39C219.21 12.23 216.24 15.8 213.61 18.23H226.77V41.57H220.43V33.54L216.45 37.59C214.43 34.55 212.4 31.99 210.18 29.56C207.75 33.13 204.71 35.9 200.94 38.26L200 37.04V41.76H193.79V21.52C192.85 22.19 191.9 22.8 190.89 23.47L189.27 21.38C195.07 16.45 199.73 9.17 202.29 0.869995L202.28 0.889999ZM197.89 18.23H209.5C211.12 15.53 212.47 12.63 212.94 10.74H204.37C202.28 13.77 200.19 16.14 197.89 18.23ZM207.61 21.6H199.99V35.36C203.7 31.65 205.99 27.33 207.61 21.6ZM220.43 21.6H209.5L213.55 22.82C213.01 24.3 212.4 25.65 211.73 26.87C215.31 28.89 218.21 31.12 220.43 33.28V21.61V21.6Z" fill="#8DC21F"/>
<path d="M314.19 51.3C311.76 50.56 308.93 49.28 306.03 47.66V55.62C306.03 62.1 299.89 63.58 291.05 59L291.59 56.23C298.61 57.31 299.62 56.9 299.62 53.8V47.93H289.16V64.12H282.34V47.93H272.62V61.42H266.21V47.39C262.97 49.14 259.53 50.56 255.82 51.5L254.94 49.01C261.55 46.38 267.08 42.33 271.07 37.94H256.56V34.56H273.83C274.64 33.42 275.31 32.27 275.92 31.19H264.85V14.46H306.81V31.19H283.33C282.79 32.27 282.12 33.42 281.31 34.56H315.31V37.94H298.85C303.77 41.45 311.2 43.61 316.93 44.42L314.16 51.3H314.19ZM272.29 9H255.69V5.56H272.29V1.38H278.97V5.56H292.33V1.38H299.01V5.56H315.95V9H299.01V13.18H292.33V9H278.97V13.18H272.29V9ZM301.24 44.49C298.81 42.6 296.65 40.44 295.03 37.95H278.64C276.55 40.24 273.92 42.47 271.02 44.49H282.36V39.84H289.18V44.49H301.26H301.24ZM271.49 21.08H300.17V17.84H271.49V21.08ZM271.49 27.83H300.17V24.39H271.49V27.83Z" fill="#8DC21F"/>
<path d="M372.73 17.77V64.12H365.85V30.12C363.76 33.15 361.6 35.72 359.58 37.54L357.49 35.59C362.68 28.3 367.75 15.01 370.31 1.05L377.73 2.87C376.65 8 374.83 13.06 372.74 17.78L372.73 17.77ZM418.81 10.69H412.94V56.84C412.94 63.52 406.06 67.57 392.02 59.6L392.83 56.9C403.96 58.99 405.99 58.18 405.99 54.34V10.69H377.65V7.25H418.8V10.69H418.81ZM400.73 44.29H385.89V49.22H379.41V19.94H400.73V44.29ZM394.39 23.38H385.89V40.85H394.39V23.38Z" fill="#8DC21F"/>
<path d="M468.92 39.15C463.19 49.2 453.94 58.25 444.5 63.04L442.95 60.61C450.91 54.13 458 45.16 462.52 35.37L468.93 39.15H468.92ZM445.17 42.53L443.55 40.23C450.5 34.22 456.98 26.13 461.09 17.56L467.23 21.2C462.17 29.63 453.26 38.07 445.17 42.52V42.53ZM445.58 23.71L443.89 21.55C449.42 16.35 454.75 9.2 458.33 1.58L464.4 4.82001C459.81 12.04 453.06 19.06 445.58 23.71ZM479.18 49.95L484.38 53.8C478.58 58.25 467.65 63.25 460.77 64.8L459.62 62.17C465.42 59.94 472.91 54.82 477.9 49.96H469.87V16.43H481.41C481.88 14.07 482.29 11.03 482.49 8.74001H467.11V5.3H503.54V8.74001H490.18C488.56 11.57 486.74 14.48 485.26 16.43H500.03V49.96H479.18V49.95ZM476.68 26.27H493.21V19.86H476.68V26.27ZM476.68 36.32H493.21V29.64H476.68V36.32ZM476.68 46.58H493.21V39.7H476.68V46.58ZM505.29 58.32L500.97 64.66C497.26 61.22 491.39 56.77 486.33 53.26L487.61 50.42C493.75 52.24 499.42 54.74 505.29 58.31V58.32Z" fill="#8DC21F"/>
<path d="M589.53 54.06L587.1 61.62C578.6 62.03 570.44 62.23 561.87 62.09C547.23 61.96 540.21 57.23 536.84 49.2C535.56 55.48 533.4 60.53 530.23 64.11L527.8 62.62C530.97 55.87 532.39 46.77 531.98 32.06L538.26 32.2C538.33 36.45 538.12 40.36 537.65 43.94C538.87 46.3 540.08 48.19 541.43 49.68V27.15H529.56V23.77H540.63V14.8H531.12V11.5H540.63V1.85001H547.31V11.5H555.95V14.8H547.31V23.77H557.36V27.15H548.05V36.8H555.67V40.11H548.05V54.01C551.69 55.23 556.15 55.43 561.81 55.43C573.28 55.43 582.59 54.82 589.54 54.08L589.53 54.06ZM569.22 41.11H557.62V37.67H569.22V30.92H559.5V27.54H585.54V30.92H575.76V37.67H587.63V41.11H575.76V54H569.21V41.11H569.22ZM585.48 23.23H559.5V4.47H585.48V23.23ZM579.2 7.78H565.77V12.1H579.2V7.78ZM579.2 15.27H565.77V19.93H579.2V15.27Z" fill="#8DC21F"/>
<path d="M672.3 41.45C671.29 41.11 670.28 40.77 669.33 40.37V63.71H662.92V59.46H649.36V63.78H642.88V40.23C640.92 41.11 638.83 41.78 636.67 42.46L635.66 39.83C642.61 36.86 648.28 33.08 652.66 28.36C649.89 25.26 647.67 21.81 646.05 18.37C644.36 20.67 642.48 22.76 640.38 24.58L638.63 22.83V25.39H631.88V33.82H640.04V37.26H631.88V51.23C634.85 50.42 637.55 49.54 639.71 48.73L640.72 51.36C636.4 54.47 622.84 60.2 615.15 62.36L612.99 54.94C614.14 54.8 615.35 54.67 616.63 54.47V31.87H622.37V53.46C623.45 53.26 624.46 52.99 625.54 52.79V25.4H617.04V4.49001H638.63V22.5C642.74 16.76 645.11 8.8 646.73 0.839996L653.88 3.07001C653.21 5.03001 652.46 6.92001 651.59 8.74001H661.58L663 7.53L669.95 10.83C667.79 17.44 664.55 23.18 660.3 28.04C664.95 30.8 670.22 32.62 675.62 33.98L672.31 41.47L672.3 41.45ZM632.56 7.85001H623.18V22.02H632.56V7.85001ZM668.93 40.17C664.07 38.15 659.82 35.31 656.25 32.01C652.47 35.31 648.09 38.01 643.09 40.17H668.93ZM655.71 24.79C658.41 21.01 660.43 16.83 661.78 12.1H649.97C649.36 13.32 648.69 14.46 647.94 15.61C650.1 19.32 652.73 22.29 655.7 24.79H655.71ZM662.93 43.55H649.37V56.03H662.93V43.55Z" fill="#8DC21F"/>
<path d="M30.5 88.05V117.46H27.19V115.83H7.13V117.55H3.81V88.04H30.5V88.05ZM27.19 89.74H7.13V114.14H27.19V89.74ZM8.42999 111.46L7.47 108.58C10.92 108.02 14.86 106.89 17.45 105.96L17.91 107.15C15.46 108.74 11.51 110.53 8.42999 111.46ZM17.41 96.18H7.73001V94.52H17.34C17.31 93.2 17.27 91.84 17.27 90.54H20.12C20.12 91.9 20.12 93.22 20.19 94.52H23.07C22.44 93.2 21.58 91.64 20.98 90.61L22.04 89.85C23.1 90.65 24.66 92.27 25.49 93.46L23.9 94.52H26.58V96.18H20.25C20.38 98.9 20.65 101.39 21.01 103.44C21.84 101.68 22.44 99.73 22.87 97.54L25.55 98.47C24.72 101.52 23.53 104.3 21.87 106.69C22.4 108.11 23.06 109.08 23.86 109.41C24.52 109.67 24.62 108.31 24.66 104.83H25.99C27.32 111.53 26.02 113.22 23.87 112.79C22.08 112.42 20.79 111.1 19.82 109.14C18.1 110.9 16.01 112.36 13.45 113.45L12.82 112.29C15.41 110.73 17.43 108.97 18.95 106.92C18.02 103.9 17.59 100.09 17.39 96.18H17.41ZM8.63 105.53V98.27H16.45V105.53H8.63ZM11.22 104H13.9V99.79H11.22V104Z" fill="#717071"/>
<path d="M55.29 109.5L55.59 108.21C57.78 108.64 58.11 108.24 57.94 105.56C57.84 103.44 57.41 101.42 55.95 98.66C56.48 96.61 57.11 92.92 57.41 90.04H55.29V117.66H52.17V87.69L55.15 88.45H57.17L57.97 87.92L60.99 89.18C59.63 93.36 58.31 96.71 57.21 98.46C59.27 100.85 60.56 103.47 60.79 106.28C61.15 110.32 58.5 111.65 55.29 109.5ZM58.54 116.16L57.71 115.1C59.86 113.21 62.32 110.16 63.71 107.01L66.79 108.57C64.77 111.68 60.99 114.74 58.53 116.16H58.54ZM58.47 97.63C60.79 94.31 62.12 90.47 62.91 86.46L65.86 87.19C65.63 87.95 65.33 88.78 65 89.64H66.76L67.52 89.14L70.24 90.23C69.38 93.88 67.98 97.06 66 99.64H74.75C72.33 96.79 70.57 92.88 69.64 86.91L71 86.68C71.27 87.97 71.6 89.17 72 90.23L71.97 88.9H76.01L76.91 88.37L79.79 90.03C78 92.95 76.71 94.37 75.15 95.64C76.78 97.5 78.66 98.85 80.69 99.98L78.57 103.09C77.24 102.16 76.05 101.14 74.96 99.88V101.27H65.18V100.64C63.99 102 62.59 103.16 61.04 104.12L60.31 102.99C61.7 101.8 62.86 100.44 63.82 98.98C63.12 98.05 62.16 96.96 61.4 96.13C60.77 96.99 60.07 97.79 59.34 98.45L58.48 97.62L58.47 97.63ZM71.63 114.14C71.66 118.09 67.98 118.85 63.41 115.4L63.91 114.14C67.79 115.24 68.32 115.07 68.32 113.28V106.05H61.56V104.39H79.13V106.05H71.64V114.14H71.63ZM64.97 97C65.24 96.5 65.47 96 65.67 95.51C64.91 94.78 63.98 94.02 63.18 93.45C62.85 94.01 62.52 94.58 62.15 95.11C63.08 95.64 64.14 96.3 64.97 97ZM64.31 91.23C64.15 91.6 63.98 91.93 63.78 92.29C64.61 92.59 65.6 92.99 66.43 93.42C66.66 92.69 66.83 91.96 66.96 91.23H64.31ZM72.1 90.5C72.7 92.03 73.39 93.35 74.22 94.48C75.11 93.15 75.68 91.93 76.18 90.5H72.1ZM80.92 113.47L78.17 115.82C77.18 114.06 74.79 110.55 72.83 108.13L73.79 107.13C76.44 108.89 79.56 111.71 80.92 113.46V113.47Z" fill="#717071"/>
<path d="M108.86 100.58V117.59H105.48V102.41C104.19 105.36 101.97 108.87 100.04 110.76L99.01 109.8C101.1 106.78 103.65 102.11 104.91 95.87H100.37V94.15H105.48V86.92H108.86V94.15H113V95.87H108.86V98.16C110.55 99.52 112.67 101.58 113.97 103.46L111.38 105.45C110.68 103.86 109.72 102.1 108.86 100.58ZM126.5 110.93C124.51 108.34 122.85 104.36 121.83 100.49V117.73H118.45V101.65C116.96 105.07 114.24 109.08 111.39 111.5L110.4 110.51C113.12 107.23 116.27 102.35 117.79 95.86H113.78V94.17H118.45V86.94H121.83V94.17H127.43V95.86H121.99C123.51 101.33 126.46 105.57 129.35 108.19L126.5 110.94V110.93Z" fill="#717071"/>
<path d="M174.49 91.07V115.77H170.91V112.29H154.23V115.93H150.68V91.07H174.49ZM170.91 92.93H154.23V110.47H170.91V92.93Z" fill="#717071"/>
<path d="M226.23 111.52L225.23 115.83C221.98 116.3 219.1 116.36 215.09 116.16C205.54 115.7 204.05 108.63 202.89 108.63C202.06 108.63 200.8 112.48 199.54 117.02L195.96 115.3C198.38 110.4 200.87 106.28 202.72 106.28C203.48 106.28 204.18 107.24 205.31 108.44C209.89 105.32 214.92 100.38 217.54 95.61H197.71V93.59H209.41C207.62 91.37 205.86 89.41 204.14 87.62L205 86.43C207.35 87.52 210.83 89.68 212.92 91.67L211 93.59H217.6L219.09 92.56L223.04 94.98C218.3 102.17 212.5 106.55 206.53 109.57C208.25 111.06 210.87 112.49 215.22 112.59C219.36 112.69 222.78 112.29 226.23 111.53V111.52Z" fill="#717071"/>
<path d="M274.49 112.78L272.53 116.46C268.22 114.6 263.55 110.89 261.13 107.44V117.65H257.62V108.43C254.74 111.51 249.66 114.89 245.12 116.45L244.56 115.13C248.54 113.21 253.28 109.39 256.03 105.48H248.74V94.94H257.62V92.36H245.72V90.37H257.62V86.73H261.13V90.37H273.2V92.36H261.13V94.94H270.05V105.48H261.8C264.95 108.73 269.92 111.18 274.5 112.77L274.49 112.78ZM252.11 99.32H257.61V96.6H252.11V99.32ZM252.11 103.8H257.61V100.95H252.11V103.8ZM261.13 96.61V99.33H266.7V96.61H261.13ZM266.7 100.95H261.13V103.8H266.7V100.95Z" fill="#717071"/>
<path d="M310.92 99.32C310.92 104.59 310.85 112.41 305.95 117.75L304.92 116.96C307.44 112.15 307.6 108.84 307.6 98.2V90.44H322.02C320.06 89.38 318.08 88.48 316.35 87.75L316.65 86.39C319.07 86.59 322.39 87.28 324.87 88.18L323.74 90.44H334.15V92.13H310.91V99.32H310.92ZM319.9 109.73C317.61 111.55 313.7 113.74 311.18 114.77L309.89 111.59C312.74 111.06 316.85 109.7 319.31 108.57L319.91 109.73H319.9ZM334.89 112.65L333.17 116.13C330.72 115 326.27 112.35 323.42 107.67V114.63C323.42 118.08 319.48 118.81 314.4 116.09L314.7 114.8C319.47 115.5 320.07 115.13 320.07 113.47V103.89H312.88V102.26H320.07V100.1H311.22V98.44H320.07V96.35H313.07V94.69H320.07V92.4H323.42V94.69H330.71V98.4H334.09V100.06H330.71V103.87H323.42V104.76C324.38 106.19 325.48 107.38 326.67 108.37C327.86 107.38 329.16 106.18 330.42 104.39L333.04 106.68C331.48 107.94 329.73 108.87 328.23 109.57C330.58 111.16 333.07 112.06 334.89 112.62V112.65ZM317.92 106.72L316.16 109.21C314.77 107.92 312.98 106.66 311.62 105.73L312.18 104.54C313.94 104.9 316.22 105.77 317.92 106.73V106.72ZM323.42 98.43H327.46V96.38H323.42V98.43ZM323.42 102.28H327.46V100.12H323.42V102.28Z" fill="#717071"/>
<path d="M362.56 104.16L360.8 100.71V117.39H357.68V102.97C356.62 105.85 355.23 108.34 354.13 109.93L353.07 109.17C354.63 105.95 356.29 101.64 357.21 95.34H353.7V93.65H357.68V87.02H360.8V93.65H363.85V95.34H360.8V98.13C362.06 99.29 363.39 100.68 364.81 102.47L362.56 104.16ZM383.71 97.93L382.19 101.01C380.83 100.41 379.54 99.58 378.34 98.52V102.17H367.73V98.59C366.57 99.38 365.28 100.08 363.85 100.68L363.15 99.52C365.83 97.93 367.62 96.4 369.08 94.12H364.24V92.46H370.01C370.24 91.93 370.51 91.4 370.74 90.8C368.58 90.97 366.56 91.07 364.84 91.07L364.57 89.74C369.44 89.24 374.85 88.25 378.53 86.72L381.05 89.17C379.03 89.7 376.71 90.1 374.35 90.4C374.12 91.09 373.82 91.79 373.46 92.46H382.54V94.12H376.51C379 96.41 381.45 97.27 383.7 97.93H383.71ZM364.35 103.43H381.95V114.21C381.95 118.12 378.2 118.19 374.09 116.26L374.36 115.03C378.17 115.53 378.8 115.39 378.8 113.44V105.09H367.49V117.45H364.34V103.43H364.35ZM377.21 113.31H368.92V106.65H377.21V113.31ZM370.48 96.37H376.32C375.82 95.67 375.29 94.94 374.83 94.11H372.44C371.88 94.91 371.25 95.64 370.48 96.37ZM375.49 97.99H370.48V100.54H375.49V97.99ZM374.66 108.2H371.48V111.75H374.66V108.2Z" fill="#717071"/>
<path d="M429.36 103.77V117.43H425.78V114.98H413.71V117.53H410.2V106.86C407.35 107.92 404.6 108.65 402.18 109.18L401.82 107.76C412.2 104.58 419.95 99.2 424 92.41H415.15C414.22 93.34 413.23 94.2 412.2 95.03C413.72 95.92 415.42 97.18 416.84 98.51L413.99 101.09C412.93 99.33 411.77 97.68 410.54 96.19C408.32 97.75 405.9 98.97 403.58 99.9L402.92 98.64C408.26 95.53 412.5 91.08 415.25 86.21L418.83 87.93C418.2 88.89 417.5 89.82 416.74 90.72H424.03L425.39 89.96L428.97 92.05C425.99 97.35 421.54 101.1 416.84 103.78H429.37L429.36 103.77ZM425.78 113.28V105.42H413.71V113.28H425.78Z" fill="#717071"/>
<path d="M463.06 91.63V87.55H466.97C466.97 89.74 466.94 91.89 466.97 93.25C468.16 102.47 472.87 109.46 480.4 113.8L477.58 117.65C472.71 114.53 467.47 107.24 466.14 97.73C464.78 108.11 459.34 114.34 451.19 117.59L450.46 116.33C460.54 110.16 463.06 100.85 463.06 91.63Z" fill="#717071"/>
<path d="M507.41 102.11H515.03C514.8 107.35 514.5 111.52 514.04 114.01C513.31 117.89 509.3 118.25 505.35 115.27L505.85 113.91C509.99 114.97 510.56 114.57 510.89 112.45C511.22 110.4 511.45 107.78 511.59 103.8H507.25C506.55 110.2 504.57 114.61 499.56 117.76L498.7 116.63C502.68 112.62 503.84 108.34 504.1 99.13H500.72V88.72H514.65V99.13H507.55C507.55 100.16 507.48 101.15 507.42 102.11H507.41ZM503.93 97.4H511.42V90.44H503.93V97.4ZM526.84 87.02V113.74C526.84 118.02 522.83 118.91 517.16 115.56L517.59 114.23C522.5 115.16 523.52 114.96 523.52 113.2V87.01H526.84V87.02ZM520.41 109.6H517.29V90.4H520.41V109.6Z" fill="#717071"/>
<path d="M554.15 103.34V100.89H548.58V99.23H554.15V97.24H549.05V87.96H562.41V97.24H557.3V99.23H562.6V100.89H557.3V103.11C559.56 102.91 561.78 102.68 563.86 102.41L564.09 103.64C561.17 104.6 552.59 106.33 548.14 106.69L547.61 103.64C549.7 103.61 551.89 103.51 554.14 103.34H554.15ZM563.86 114.81H576.53V116.5H547.85V114.81H560.38V110.9H550.27V109.21H560.38V105.96H563.86V109.21H574.04V110.9H563.86V114.81ZM551.96 91.87H554.25V89.58H551.96V91.87ZM554.25 95.58V93.32H551.96V95.58H554.25ZM557.23 91.87H559.49V89.58H557.23V91.87ZM557.23 95.58H559.49V93.32H557.23V95.58ZM567.84 96.74H562.97V95.08H569.57C568.28 93.92 566.69 92.66 565.26 91.57L565.82 90.44C567.05 90.9 568.41 91.5 569.67 92.16C570.33 91.43 571.03 90.57 571.59 89.58H563.77V87.99H571.66L572.69 87.43L575.67 89.49C574.08 91.01 572.65 92.11 571.16 93C571.59 93.23 572.02 93.5 572.39 93.76L571.33 95.09H573.38L574.24 94.49L577.06 96.18C575.5 98.5 573.88 100.36 572.75 101.32L571.72 100.56C572.25 99.53 572.95 98.11 573.38 96.75H570.96V103.84C570.96 106.59 568.11 107.26 564.06 105.56L564.36 104.27C567.41 104.64 567.84 104.4 567.84 102.95V96.75V96.74Z" fill="#717071"/>
<path d="M609.07 114.08L606.19 115.74C605.43 113.69 604.63 112 603.7 110.24C601.91 113.36 599.22 115.64 596.87 116.77L596.04 115.64C598.63 113.35 600.88 109.97 601.84 105.26L605.35 106.16C605.15 106.99 604.88 107.78 604.55 108.55C606.41 110.24 607.97 112.1 609.06 114.09L609.07 114.08ZM599.52 98.6V89.55H597.2V87.89H612.82V89.55H610.8V101.92H607.58V99.47C603.7 100.76 600.05 101.36 597.57 101.66L596.94 98.64C597.77 98.64 598.63 98.64 599.53 98.61L599.52 98.6ZM612.38 104.47V117.63H609.07V104.7C604.66 104.93 600.48 104.93 598.23 104.83L598.06 103.47C605.95 103.14 614.4 102.24 619.41 100.29L622.29 102.98C619.7 103.71 616.09 104.17 612.38 104.47ZM602.73 91.34H607.57V89.55H602.73V91.34ZM602.73 94.72H607.57V92.9H602.73V94.72ZM602.73 98.4C604.22 98.3 605.81 98.13 607.57 97.9V96.31H602.73V98.4ZM612.08 89.58H619.84L620.84 89.02L623.62 90.41C622.86 92.6 621.66 94.69 620.01 96.44C621.67 97.34 623.49 97.87 625.15 98.33L623.66 101.51C622.04 100.98 619.91 99.92 617.99 98.23C616.23 99.59 614.11 100.62 611.62 101.28L611.16 100.02C613.32 99.06 615.04 97.9 616.4 96.61C615.17 95.15 614.15 93.36 613.58 91.2H612.09V89.58H612.08ZM622.82 116.03C621.63 113.81 620.33 111.95 619.11 110.33C617.75 113.15 615.83 115.24 613.47 116.4L612.64 115.31C615.39 112.76 616.49 109.21 617.22 104.8L620.7 105.63C620.47 106.72 620.17 107.78 619.81 108.74C621.86 110.2 624.05 112.12 625.41 113.98L622.82 116.03ZM614.93 91.2C615.66 92.83 616.69 94.05 617.85 95.02C618.81 93.79 619.51 92.53 620 91.2H614.93Z" fill="#717071"/>
<path d="M652.43 91.57H644.6V89.88H652.43V86.9H655.71V89.88H662.54V86.9H665.82V89.88H673.71V91.57H665.82V94.36H662.54V91.57H655.71V94.45H652.43V91.57ZM652.56 104.27C651.3 109.38 649.71 114.28 648.28 117.47L644.83 115.45C646.89 112.66 649.47 107.89 651.26 103.78L652.55 104.28L652.56 104.27ZM645.96 98.21C647.72 99.17 649.71 100.79 651.1 102.12L648.65 104.37C647.66 102.61 646.26 100.73 645.07 99.17L645.96 98.21ZM651.66 99.47C650.67 97.78 649.11 95.66 648.08 94.3L648.97 93.31C650.66 94.24 652.72 95.79 654.08 97.22L651.66 99.48V99.47ZM672.58 108.65C671.72 108.49 670.89 108.32 670.06 108.09V117.37H666.78V115.61H659.39V117.67H656.14V108.52C655.05 108.85 653.88 109.15 652.66 109.38L652.23 108.02C655.91 106.96 658.89 105.37 661.25 103.44C660.22 102.45 659.29 101.32 658.53 99.99C657.3 101.75 655.84 103.3 654.09 104.63L653.16 103.67C655.81 100.69 657.37 96.94 658.43 92.93L661.55 93.96C661.32 94.59 661.09 95.25 660.79 95.88H666.03L666.93 95.32L670.01 97.01C668.72 99.59 667.19 101.65 665.47 103.34C668.09 104.4 671.01 105 673.89 105.36L672.6 108.64L672.58 108.65ZM668.8 107.72C666.84 107.09 664.99 106.26 663.33 105.1C661.84 106.16 660.21 107.02 658.46 107.72H668.8ZM662.8 101.98C664.09 100.62 665.15 99.1 665.92 97.5H660.02L659.29 98.79C660.29 100.08 661.48 101.11 662.8 101.97V101.98ZM666.78 109.41H659.39V113.95H666.78V109.41Z" fill="#717071"/>
</svg>
