<svg width="241" height="96" viewBox="0 0 241 96" fill="none" xmlns="http://www.w3.org/2000/svg">
<g clip-path="url(#clip0_712_360)">
<path d="M205 44V-1L46 -1V44L205 44Z" fill="#DACE00"/>
<path d="M73.45 21.275V33H75.375V21.275H73.45ZM67.625 17.15H81.175V19.875H67.625V17.15ZM67.625 12.85H81.175V15.55H67.625V12.85ZM65.8 11.175V21.55H83.075V11.175H65.8ZM63.175 25.275V27.075H85.9V25.275H63.175ZM91.7 24.675V26.1H109.025V24.675H91.7ZM92.625 21.5V22.925H110.975V21.5H92.625ZM92.725 15.225V16.525H106.475V15.225H92.725ZM108.475 24.675V24.925C108.2 29.2 107.85 30.825 107.4 31.3C107.2 31.5 107 31.525 106.55 31.525C106.15 31.525 105.025 31.525 103.85 31.425C104.1 31.85 104.3 32.525 104.325 32.975C105.55 33.05 106.725 33.05 107.35 33C108.025 32.95 108.475 32.8 108.9 32.375C109.525 31.7 109.875 29.925 110.225 25.4C110.25 25.15 110.275 24.675 110.275 24.675H108.475ZM98.6 9.875C98.4 10.65 97.925 11.8 97.55 12.6L99.175 12.95C99.65 12.25 100.275 11.225 100.775 10.175L98.6 9.875ZM92.8 12.025V13.425H105.6V18.45H92.8V19.825H107.45V12.025H92.8ZM91.7 12.025V25.3H93.55V12.025H91.7ZM98.475 27.6C99.05 28.875 99.575 30.55 99.7 31.625L101.25 31.175C101.1 30.15 100.55 28.5 99.925 27.225L98.475 27.6ZM102.425 27.225C103.175 28.225 103.925 29.6 104.25 30.5L105.65 29.9C105.325 29.025 104.525 27.675 103.775 26.7L102.425 27.225ZM94.4 27.7C94.8 29.125 95.025 31 94.975 32.175L96.625 31.925C96.65 30.725 96.4 28.875 95.975 27.45L94.4 27.7ZM91 26.975C90.525 28.775 89.625 30.775 88.3 31.95L89.825 32.875C91.2 31.575 92.05 29.425 92.55 27.525L91 26.975ZM120.45 11.125V12.575H136.075V11.125H120.45ZM123.275 16.025V17H133.225V16.025H123.275ZM123.275 18.1V19.075H133.225V18.1H123.275ZM122.275 13.875V20.8H124V14.975H132.375V20.8H134.125V13.875H122.275ZM119.8 20.175V23.55H121.45V21.375H134.775V23.55H136.475V20.175H119.8ZM123.225 22.125C122.65 23.05 121.7 24.1 120.675 24.675L121.775 25.575C122.9 24.9 123.8 23.75 124.425 22.775L123.225 22.125ZM124.525 22.125V23.65C124.525 25.025 125.025 25.325 126.925 25.325C127.325 25.325 129.975 25.325 130.4 25.325C131.675 25.325 132.1 24.95 132.25 23.5C131.85 23.425 131.275 23.25 130.975 23.075C130.875 24.05 130.75 24.175 130.175 24.175C129.625 24.175 127.475 24.175 127.075 24.175C126.225 24.175 126.075 24.1 126.075 23.65V22.125H124.525ZM126.6 21.925C127.475 22.425 128.5 23.2 129.025 23.75L130.1 22.975C129.55 22.45 128.5 21.7 127.65 21.25L126.6 21.925ZM131.65 22.725C132.725 23.6 133.95 24.85 134.525 25.675L135.625 24.95C135.025 24.1 133.775 22.9 132.725 22.05L131.65 22.725ZM125.8 24.8C124.575 26.275 122.425 27.925 119.55 29.1C119.9 29.35 120.4 29.85 120.65 30.225C123.7 28.8 125.95 27.025 127.5 25.15L125.8 24.8ZM132.275 26.4V26.7C130.6 29.075 125.95 30.925 119.225 31.65C119.575 32.05 119.975 32.65 120.15 33.05C127.2 32.15 132.025 30.125 134.175 26.975L133 26.325L132.65 26.4H132.275ZM122.575 26.175L121.15 26.7C123.9 30.35 129.225 32.325 135.375 33.025C135.6 32.575 136.025 31.925 136.35 31.55C130.325 31 125 29.275 122.575 26.175ZM124.85 26.4L123.6 27.65H132.8V26.4H124.85ZM127.1 11.8C127 12.525 126.725 13.55 126.5 14.35L128.125 14.6C128.425 13.925 128.775 12.975 129.15 12.025L127.1 11.8ZM118.225 10.15C117.1 14 115.275 17.825 113.2 20.35C113.525 20.825 114.025 21.825 114.2 22.275C116.55 19.35 118.625 14.925 119.975 10.625L118.225 10.15ZM116.375 16.275V33H118.15V14.6L118.1 14.55L116.375 16.275ZM139.65 11.55V13.1H160.825V11.55H139.65ZM149.15 10.05V24.325H151.05V10.05H149.15ZM143.125 18.8H157.225V20.475H143.125V18.8ZM143.125 15.975H157.225V17.625H143.125V15.975ZM141.35 14.725V21.75H159.075V14.725H141.35ZM153.775 22.6C155.975 23.525 158.5 25.2 159.775 26.475L161.05 25.375C159.775 24.15 157.2 22.55 155.025 21.675L153.775 22.6ZM139.625 23.725L139.7 25.375C144.325 25.35 151.5 25.225 158.25 25.075L158.35 23.6C151.45 23.7 144.15 23.75 139.625 23.725ZM144.325 26.775V30.325C144.325 32.2 145.075 32.675 147.925 32.675C148.525 32.675 152.975 32.675 153.625 32.675C155.875 32.675 156.45 32.025 156.7 29.2C156.2 29.1 155.475 28.825 155.05 28.575C154.95 30.775 154.725 31.075 153.475 31.075C152.475 31.075 148.75 31.075 148.025 31.075C146.45 31.075 146.175 30.975 146.175 30.325V26.775H144.325ZM147.9 26.5C149.4 27.275 151.2 28.5 152.075 29.375L153.325 28.225C152.425 27.375 150.6 26.2 149.1 25.475L147.9 26.5ZM156.575 27.275C157.775 28.775 158.975 30.775 159.475 32.05L161.175 31.425C160.675 30.125 159.4 28.15 158.175 26.7L156.575 27.275ZM141.4 26.675C140.9 28.2 140.05 30.15 139.025 31.35L140.65 32.25C141.65 30.95 142.45 28.925 143 27.35L141.4 26.675ZM170.7 11.275V12.725H186.75V11.275H170.7ZM172.975 15.45H184.25V17.85H172.975V15.45ZM171.3 14.2V19.075H186V14.2H171.3ZM175.625 11.75V18.325H177.175V11.75H175.625ZM179.95 11.75V18.325H181.5V11.75H179.95ZM173.575 24.075H183.875V25.5H173.575V24.075ZM173.575 26.675H183.875V28.15H173.575V26.675ZM173.575 21.475H183.875V22.9H173.575V21.475ZM171.825 20.275V29.35H185.7V20.275H171.825ZM179.95 30.6C182.1 31.35 184.325 32.325 185.6 33.075L187.225 31.975C185.775 31.225 183.35 30.25 181.175 29.525L179.95 30.6ZM175.85 29.5C174.525 30.35 172.1 31.275 169.925 31.775C170.275 32.1 170.725 32.675 170.975 33.05C173.2 32.5 175.675 31.55 177.2 30.45L175.85 29.5ZM168.8 10.15C167.6 14 165.625 17.85 163.425 20.35C163.75 20.825 164.25 21.825 164.425 22.275C166.9 19.35 169.125 14.95 170.55 10.625L168.8 10.15ZM166.8 16.275V33H168.575V14.6L168.525 14.55L166.8 16.275Z" fill="#004B37"/>
</g>
<g clip-path="url(#clip1_712_360)">
<path d="M14.7217 76.6247C14.7217 77.0343 14.5942 77.4067 14.3392 77.746C13.8463 77.9404 13.434 78.0397 13.1068 78.0397C13.0345 78.0397 12.9325 78.0232 12.805 77.9859C12.6775 77.9487 12.5925 77.9322 12.5585 77.9322L11.8445 78.2797L11.1858 78.2259L10.8033 78.3583L10.6121 78.3045L10.1191 78.5734L9.70683 78.4659H8.63585L8.14286 78.5983H8.05786L7.86662 78.7845L7.47988 78.6521L7.25888 78.7845L6.65539 78.5983L6.2984 78.7845C5.85641 78.6769 5.60141 78.6231 5.52916 78.6231C5.32517 78.6231 5.07867 78.6852 4.78543 78.8093L3.5487 78.9168L3.4382 78.7845L2.97071 78.9003L2.94521 79.0534L3.19171 80.3897L3.13221 80.5221L3.21296 80.7869V81.1345C3.30221 81.3993 3.36596 81.6682 3.40421 81.933L3.73145 82.2516L3.6762 82.4129L4.22444 83.079C4.78968 83.4721 5.21892 83.6665 5.51216 83.6665H5.56741C5.60566 83.6665 5.64816 83.6583 5.70341 83.6417H5.81391C5.88616 83.6417 5.98815 83.6665 6.11565 83.7203L6.36215 83.6955C6.60014 83.6417 6.93589 83.5797 7.37788 83.5093L7.67962 83.348L7.73487 83.2404L7.92612 83.2156L8.14711 83.0832L8.28311 83.1618L8.72085 83.0294L9.07784 82.8142L9.21384 82.6281L9.68133 82.2805L10.0383 82.2267L10.6971 81.7468C11.1561 81.6765 11.4833 81.3207 11.683 80.6794L11.7638 80.7042L11.7893 80.6256L12.1463 80.6008L12.669 80.1746L12.8603 80.1498C12.9155 80.1332 12.9793 80.125 13.0515 80.125C13.4 80.125 13.6083 80.4559 13.6805 81.1138L12.4735 82.4998L12.1718 82.5784L12.0613 82.7398L11.5385 83.2735L10.7991 83.6996L10.1956 84.2582L10.0043 84.2334L9.78333 84.4485L8.55085 84.9036L8.05786 85.4373L7.70087 85.3049L7.56487 85.5449L7.31838 85.4663L7.18238 85.5987L6.27715 85.4373L5.34642 85.8097L4.41569 85.5159L3.23846 84.9822C2.23123 84.5188 1.45774 83.2404 0.909505 81.1386V80.8449L0.688509 80.2325L0.909505 79.9636L0.773507 79.2147L0.748008 78.9748L0.280517 78.4659V78.1473C0.280517 77.6301 0.425014 77.2743 0.718258 77.0799C0.773507 76.9392 0.875505 76.8027 1.02 76.6785L0.909505 76.5999V75.4787L1.24525 74.6264L1.32175 74.2003L1.04975 74.2251H0.939254C0.684259 74.2251 0.463263 74.1423 0.280517 73.9727C0.0977706 73.8031 0.00427246 73.6045 0.00427246 73.3728C0.00427246 73.1039 0.178519 72.8018 0.527012 72.4667L0.718258 72.2805L0.964754 72.1729C1.258 72.0488 1.48749 71.9868 1.64899 71.9868H2.17173L2.44797 71.5317L3.68045 71.6103L3.7612 71.6889C3.92694 71.6599 4.17344 71.6434 4.50068 71.6434L5.04892 71.5275H5.18492C5.42292 71.4572 5.65241 71.3124 5.86916 71.1014L6.2814 71.3413H6.96563L9.70683 71.1014L9.98308 71.2627L10.3656 71.1676L10.5866 70.9152L11.1348 71.2627L11.326 71.1014L11.9295 71.3413L12.3418 71.2627L12.5628 71.3413L13.4383 71.2627L13.6295 71.3951L14.0672 71.4737C14.488 71.5441 14.6962 71.7427 14.6962 72.0612C14.6962 72.2764 14.6197 72.4626 14.4625 72.6239C14.3052 72.7853 14.148 72.8639 13.9822 72.8639H13.8717L13.57 73.0252L13.0218 72.8639L12.7753 72.8887C12.72 72.9053 12.6478 72.9135 12.5543 72.9135C12.3715 72.9135 12.2058 72.8763 12.0613 72.806L11.9805 72.6984C11.7978 72.7356 11.6788 72.7522 11.6235 72.7522C11.5513 72.7522 11.4578 72.7356 11.3473 72.6984C11.1646 72.8225 10.8246 72.9301 10.3316 73.017C10.0766 73.017 9.79183 73.0087 9.48158 72.9921C9.48158 72.9756 9.51983 72.9135 9.59208 72.806L8.8781 73.0211H8.82285C8.69535 73.0211 8.45736 73.1452 8.10886 73.3935L7.75187 73.2321L7.58612 73.3397L6.92739 73.1535L6.54489 73.3397H5.99665L5.17217 73.501L4.48793 73.7948L4.29669 73.6872L3.93969 73.9272H3.5827L3.50195 74.0596L3.5827 74.3782L3.11521 74.9119L3.33621 74.9367V75.6814L3.63795 76.0041L3.39146 76.2193C3.20871 76.5213 3.11946 76.724 3.11946 76.8316C3.11946 76.902 3.17471 76.9557 3.28521 76.993L3.61245 76.8854C3.7017 76.8689 3.7952 76.8606 3.8887 76.8606C4.16494 76.8978 4.36469 76.9309 4.49218 76.9682L4.98517 76.782L5.42292 76.8606H6.76589C6.83814 76.8606 6.98688 76.7985 7.20363 76.6744C7.34813 76.7447 7.56062 76.782 7.83262 76.782C7.87087 76.782 7.93462 76.7737 8.02386 76.7571H8.30011C8.26186 76.7571 8.22786 76.7489 8.18961 76.7323H8.27036C8.38086 76.7323 8.7081 76.7778 9.25634 76.8647C9.31159 76.8358 9.59633 76.8068 10.1063 76.7778C10.3996 76.7489 10.5823 76.7323 10.6546 76.7323C10.9308 76.7323 11.1943 76.7406 11.4493 76.7571L11.6958 76.7323C11.9508 76.5917 12.1888 76.5172 12.4098 76.5172C12.5755 76.5172 12.737 76.542 12.9028 76.5958L13.2853 76.5172L13.6125 76.6496L14.709 76.3806V76.6206L14.7217 76.6247Z" fill="white"/>
<path d="M28.3767 74.5395L28.1047 74.887L28.3257 75.5283L27.9687 75.9297L27.8327 76.4882L27.752 76.6206L27.8072 76.753C27.8072 77.0012 27.7435 77.1874 27.616 77.3115L27.5607 77.3901V77.4977C27.616 77.6218 27.6415 77.7377 27.6415 77.8453C27.6415 77.9363 27.633 77.9983 27.616 78.0314L27.6415 78.139L27.531 78.4328L27.6117 78.7513L27.3908 78.9665L27.4715 79.3388L27.6372 79.525L27.3908 79.7402V80.1663L27.1995 80.5925L27.3355 81.0186L27.1698 81.2338L27.4418 81.4199L27.0593 82.0323L27.0338 82.1109L27.31 82.1647L27.1188 82.777V82.8846C27.1188 83.0087 27.1103 83.108 27.0933 83.1783L27.1188 83.2569L27.5565 83.3107L27.9135 83.8444L27.7222 84.2458L28.024 84.2209C28.1345 84.4361 28.1982 84.6223 28.2152 84.7795L27.803 85.1808C27.6755 85.3049 27.4927 85.429 27.2548 85.5532L26.7873 85.7931L26.6513 85.6607L26.375 85.7931L25.525 84.8374V84.3864C25.4145 84.0306 25.3593 83.7038 25.3593 83.4017V83.2404L25.1935 81.6723L25.4145 80.5552L25.2488 79.9181L24.7813 80.6669L24.5348 81.362L24.3138 81.4696L23.9313 82.0612L23.2471 82.6777L23.0558 83.0004L22.4524 83.5093L22.3164 83.8568L21.4409 84.3947L20.5101 85.4166L19.9874 85.5242L19.6304 85.7931C19.1714 85.7766 18.8272 85.6069 18.5892 85.2842C17.7647 84.8912 17.3355 84.3285 17.3015 83.5962L17.4374 83.5176L17.4119 83.3562L17.3864 83.0335L17.2207 82.686L17.3864 82.3095L17.4417 81.7468L17.6329 80.8614V80.7538C17.6159 80.7166 17.6074 80.6835 17.6074 80.6463C17.6074 80.5759 17.6244 80.4849 17.6627 80.3773C17.6457 80.3401 17.6372 80.2698 17.6372 80.1622C17.6372 80.0381 17.6924 79.8312 17.8029 79.5457L17.9942 79.4671C17.8837 79.3761 17.8284 79.2809 17.8284 79.1734V78.8258C17.8284 78.6107 17.9389 78.4493 18.1557 78.3417C18.2109 78.1638 18.3129 77.9859 18.4574 77.808L18.3214 77.5929L18.6487 77.1916V77.084C18.6487 76.7447 18.7677 76.4344 19.0057 76.1489L18.9802 75.669L19.0907 75.5614V75.4828C19.0737 75.4456 19.0652 75.4208 19.0652 75.4042C19.0652 75.2966 19.1034 75.2098 19.1757 75.1353V74.9739C19.2479 74.796 19.4392 74.5312 19.7494 74.1713C20.0596 73.8155 20.2891 73.5052 20.4336 73.2362L20.5696 73.3686L20.8714 73.2362L21.0074 73.1825L21.9126 72.7811L24.0248 72.8887V73.0749L24.6836 73.2073C25.1043 73.2073 25.3763 73.3397 25.508 73.6086C25.508 73.5548 25.5165 73.4928 25.5335 73.4224V73.3148L26.1073 73.8237L26.63 73.9313L27.616 73.6913L27.973 74.3575L28.3852 74.5188L28.3767 74.5395ZM25.7715 75.9255L25.661 75.7393L25.44 75.6856L24.5901 75.0194L24.0418 74.9408H23.6041L23.5488 74.8333L23.3278 74.9408L23.0813 74.8333H22.3674L22.4481 74.9408L21.8191 75.156L21.7086 75.2884L21.6279 75.3132C21.3006 75.578 21.0711 75.8014 20.9436 75.9793L20.7524 76.6206L20.6419 76.8606L20.9181 77.2329L20.4506 77.5805L20.5059 77.688C20.3061 78.0273 20.2084 78.3542 20.2084 78.6769L19.9874 78.9458V79.4257L19.7664 79.6657L19.7112 79.9057L19.6304 79.9594V80.3318L19.5497 80.4642C19.5497 80.6793 19.5327 80.849 19.4944 80.9731L19.5497 81.1055L19.3032 81.6103L19.4137 81.7716L19.2224 82.0405L19.4137 82.5453L19.1119 82.9177L19.1672 83.4224V83.501L19.2777 83.5548L19.4137 83.53C19.5029 83.439 19.5964 83.3604 19.6899 83.29L19.6347 83.0749L20.0171 83.0211L20.0979 82.8349L21.7086 81.5523L21.8701 81.4985L22.0614 81.0434C22.1719 81.0062 22.3249 80.9359 22.5246 80.8283L22.7031 80.4063H22.9198L22.8391 79.9512L23.2216 79.8974C23.2598 79.8271 23.3193 79.736 23.4001 79.6285C23.4808 79.5209 23.5701 79.4257 23.6593 79.3347L25.0575 77.5184L25.2785 77.1171L25.253 77.0095L25.4443 76.7158L25.4995 76.422L25.746 76.2069L25.7715 75.9131V75.9255Z" fill="white"/>
<path d="M43.0729 75.4208L42.8519 76.302L41.8362 76.4344L41.2879 76.782L40.9309 76.6206L40.5484 76.8275L40.1362 76.9847L39.8599 77.1667L39.8514 77.2702L39.2819 77.5474L38.8995 78.0356H38.7082C38.415 78.3376 38.2067 78.5238 38.0792 78.5941L37.6967 79.2065L37.5607 79.2602C37.5055 79.4051 37.4417 79.6161 37.3695 79.9015L36.987 80.0339L36.8212 80.3525L36.6003 80.6214L36.545 81.0228L36.324 81.1014V81.5027L36.2433 81.5813C36.2985 81.6723 36.3623 81.7675 36.4345 81.8751L36.0223 82.0364L35.967 82.384L35.695 82.8391L35.8608 83.1866L35.5038 83.6665C35.542 83.8444 35.559 83.9686 35.559 84.0389V84.1465C35.542 84.2003 35.5335 84.2458 35.5335 84.2789L35.5888 84.5188L36.0563 84.9988L35.6993 85.6111L35.372 85.8511L34.6028 86.2234L33.5871 85.8221V85.2098L33.4766 84.9698L33.5573 84.5685C33.5191 84.283 33.5021 84.072 33.5021 83.9272C33.5021 83.8734 33.5106 83.8031 33.5276 83.7121V83.5259L33.5021 83.2569C33.3746 83.1328 33.3108 82.988 33.3108 82.8308C33.3108 82.6901 33.3746 82.5288 33.5021 82.3509C33.5021 82.264 33.4851 81.995 33.4468 81.5482L33.5276 81.4696L33.4468 81.1221L33.5021 80.8035L33.4468 80.6173L33.5276 80.005L33.3618 79.736L33.4723 79.4423L33.3618 79.0948C33.3788 78.9872 33.3873 78.8465 33.3873 78.6686C33.3873 78.3997 33.3491 78.2259 33.2768 78.1349L33.3873 77.9735L33.2768 77.4936L33.0303 77.1461L33.1663 76.7199L33.0558 76.5586L32.9453 75.9173V75.7021C32.8561 75.5945 32.8093 75.4622 32.8093 75.3008C32.8093 74.945 33.2131 74.643 34.0163 74.3947L34.7005 74.5271L34.8365 75.036L35.1085 75.3835L35.0278 76.1034C35.083 76.4593 35.1468 76.8523 35.219 77.2785L35.2998 77.7046C35.3168 77.7418 35.3338 77.837 35.355 77.9984C35.355 78.1059 35.3083 78.2218 35.219 78.3459L35.2998 78.8796L35.2445 79.4671L35.134 79.736L35.2148 79.8436L35.27 80.1125C35.3805 79.9884 35.4443 79.856 35.4613 79.7112L35.5718 79.3099C35.627 79.2023 35.7078 79.1237 35.8183 79.0699L35.9288 78.6686L36.3113 78.4535L36.3665 78.1349L36.6683 77.8163L36.8892 77.415C37.1272 77.1667 37.3567 77.0054 37.5735 76.9351L37.6287 76.8564L37.8752 76.4841L38.1472 76.4303L38.228 76.3517L38.3385 76.1903L38.6402 76.029L38.806 75.8428L38.9717 75.8676L39.1927 75.76L39.3032 75.5987L39.6304 75.4373L40.0979 75.1436L40.7567 74.9284C41.0117 74.8912 41.1477 74.8746 41.1689 74.8746V74.8995C41.1689 74.8995 41.1434 74.9077 41.1434 74.9243H41.1689C41.2412 74.9243 41.3517 74.8871 41.4962 74.8167C41.5854 74.7464 41.7172 74.7092 41.8786 74.7092C41.9509 74.7092 42.0784 74.7257 42.2611 74.7629C42.7371 74.7795 43.0006 74.9946 43.0559 75.4042L43.0729 75.4208Z" fill="white"/>
<path d="M52.0657 82.4419C52.0657 82.6363 51.9934 82.7977 51.8489 82.9218C51.7045 83.1369 51.4665 83.3562 51.1392 83.5879L50.8672 83.7741L50.6207 84.0927L50.3742 84.2002L49.9917 84.4402L49.7197 84.465L49.6092 84.5726C49.2438 84.6802 48.9633 84.8581 48.7635 85.1063C48.636 85.1973 48.517 85.2387 48.4108 85.2387C48.3385 85.2387 48.2748 85.2304 48.2195 85.2139C47.9093 85.3918 47.5098 85.4828 47.0168 85.4828C46.5961 85.4828 46.3241 85.4456 46.1966 85.3753L45.7036 85.1105L45.5421 84.8415V84.7629C45.5421 84.5312 45.4358 84.3451 45.2318 84.2044L45.1171 83.6707L44.8876 83.4307L44.7473 82.4419V81.4282L44.8281 81.2669C44.7728 81.1593 44.7473 81.0434 44.7473 80.9193C44.8366 80.1705 44.8833 79.6988 44.8833 79.5043L44.6368 79.0244L44.8833 78.6231L44.9641 77.957L44.9088 77.5019L45.0746 77.1005L44.9088 76.5668L45.2063 76.1945L45.2403 75.9545V73.712L45.3211 72.566L45.2403 72.3508V70.5635L45.4018 68.9623C46.1498 68.7844 46.4813 68.6934 46.3921 68.6934C46.6768 68.6934 46.9105 68.8465 47.089 69.1485L47.1443 69.3637L47.548 69.765L47.4375 70.3235V70.4311C47.3865 70.7704 47.3228 70.9938 47.2463 71.0972L47.327 71.6558L47.4375 72.1647L47.2463 72.7232C47.2463 73.0252 47.1995 73.3024 47.1103 73.5507C47.1103 73.6417 47.0933 73.7824 47.055 73.9768L47.0253 74.1382L47.2463 74.4319L47.1655 74.7257C47.2208 74.8664 47.2463 74.9657 47.2463 75.0194C47.2463 75.127 47.1995 75.2677 47.1103 75.4456L47.1655 75.6856L46.9998 76.5379V77.0964L46.8085 77.6549L46.919 78.1638L46.8085 79.3388L46.8893 79.4712L46.7533 80.0836L46.698 80.8324C46.6598 80.94 46.6428 81.0021 46.6428 81.0186C46.6428 81.3206 46.6343 81.5689 46.6173 81.7675L46.698 82.1398V82.5412L46.8638 82.8887L46.8383 83.0211C46.9488 83.1121 47.0465 83.2528 47.14 83.4472H47.3865L47.7435 83.5548L47.905 83.3397L48.1515 83.3149C48.262 83.2776 48.3428 83.2611 48.398 83.2611H48.4788C48.6615 83.2238 48.806 83.1369 48.9165 82.9921L49.078 82.9135C49.2055 82.7191 49.4137 82.5825 49.707 82.5122C49.7962 82.4419 49.9705 82.2971 50.2255 82.0861C50.2255 81.8378 50.3785 81.6516 50.6887 81.5275C50.9607 81.5275 51.1435 81.482 51.2327 81.3951C51.5982 81.4489 51.8277 81.5399 51.9297 81.6765C52.0274 81.8089 52.0784 82.0654 52.0784 82.4377L52.0657 82.4419Z" fill="white"/>
<path d="M68.8996 80.307C68.8571 80.5014 68.7934 80.7249 68.7084 80.9731L68.7296 81.1345L68.8741 82.0943L68.7084 83.108V83.5879L68.6531 83.9355L68.7084 85.1105L68.6531 85.2966V86.6827L68.7084 86.9516L68.6531 88.6314L68.8189 89.1113L68.7084 89.3264V89.7815L68.6531 89.9139L68.7084 90.369L68.4874 90.6338V90.82L68.3769 91.06C68.3216 91.362 68.1219 91.7964 67.7734 92.3674L67.5821 93.0335C67.4376 93.1038 67.3441 93.1576 67.3101 93.1949L67.2294 93.2735L66.9829 93.5921L66.7067 93.9934L66.2392 94.2333C66.0182 94.6264 65.7632 94.8457 65.4699 94.8995C65.3807 94.9863 65.3127 95.0401 65.2787 95.0608L65.1979 95.1394L64.8154 95.3008L64.5944 95.5159H64.3224L64.1864 95.7311L63.6935 95.6235L63.1707 95.9959L62.6777 95.8345L61.7725 95.9959H61.4453L60.54 95.8345H60.1278L59.962 95.6731L58.8655 95.3256L57.9348 95.1932L57.7988 94.9532L57.3058 94.8995L57.1401 94.4443L56.8128 94.3657L56.5918 93.9644L56.0691 93.7782L55.6314 93.1659L54.8366 92.686L54.8919 92.1771C54.8536 92.1605 54.7729 91.813 54.6454 91.1345C54.6454 90.849 54.7091 90.5014 54.8366 90.0918V89.8519L55.1129 89.7195L55.2786 89.2644L55.3891 89.3182L55.6611 88.892L56.1541 88.5362L56.5366 88.4369L57.2761 87.8784H57.9901C58.1728 87.7005 58.4108 87.6094 58.7041 87.6094C59.1248 87.8039 59.333 88.0439 59.333 88.3293C59.333 88.5072 59.2523 88.6851 59.0865 88.863L58.7041 89.0492L58.2961 89.343L57.8881 89.4506L57.6416 89.9057L57.2336 89.9139L57.0636 90.1787L56.7023 90.4725L56.7278 90.8738L56.5069 91.2462L56.6173 91.511L56.8086 91.9371L57.4121 92.3095L57.5481 92.7108L58.2876 93.2693L58.6998 93.2942L59.1928 93.6665H59.6858L59.9875 93.9065H60.37L60.591 94.0927L61.9085 94.0389L62.7585 93.77L63.2812 93.7948L63.855 93.4762C63.9995 93.4224 64.1269 93.3976 64.2374 93.3976C64.2757 93.381 64.3394 93.3438 64.4287 93.29L64.5647 93.0749L64.8409 93.1535L64.9514 93.0459V92.8308C64.9684 92.7232 65.0917 92.6363 65.3169 92.5618C65.3934 92.3839 65.5422 92.2309 65.7674 92.1067C65.8227 92.0157 65.8694 91.8213 65.9077 91.5192L66.3029 91.3041L66.3879 91.1179C66.4644 90.9772 66.5367 90.8242 66.6132 90.6628L66.6429 90.5842L66.7279 89.5416L66.8426 89.463V89.0368L66.6769 88.6355L66.8426 88.3169V85.3256L66.6514 84.9781L66.8426 84.4195V82.5246L66.7067 82.1771L66.8426 81.9909V81.4034L66.6216 80.7911V79.856L66.3199 80.336L65.9927 80.5759L65.6654 80.8945L65.4444 80.9731L65.3637 81.2917L65.1172 81.4241L65.0917 81.5027L64.7092 81.8213L64.1864 82.4336L63.447 83.1825L63.1707 83.2611L63.09 83.3935L62.2655 83.981H62.019L61.7427 84.2499L61.6322 84.5188L61.0288 84.705L60.9183 84.8912L60.506 84.945L59.9323 85.3173L59.4648 85.4249L59.2438 85.5863L58.9421 85.64L58.8613 85.6938C58.6233 85.9421 58.2493 86.0662 57.7351 86.0662C57.1868 86.0662 56.7576 85.8966 56.4474 85.5573L55.8439 84.676V84.1671L55.4869 83.2073V82.4046L55.3764 82.0861L55.5421 81.8171L55.4061 81.2296L55.6271 81.0683L55.6569 80.7993L55.8439 80.4808L55.7334 79.9222L55.8439 79.7071V79.5209C55.8439 79.1485 55.9076 78.71 56.0351 78.2135L55.9544 77.4936L56.0351 76.8275L55.8439 75.8676V75.6814L55.7334 75.5201L56.0606 74.6678C56.1329 74.3823 56.1711 74.0968 56.1711 73.8155C56.3921 73.7079 56.6088 73.6541 56.8298 73.6541C56.9956 73.6541 57.1571 73.6789 57.3228 73.7327L57.5693 74.2664L58.0368 74.5892C57.9816 74.8581 57.9348 75.0691 57.9008 75.2304L58.1516 75.6318L58.0496 75.9007L58.3938 76.1945L58.0666 76.782L58.2323 77.477L58.0411 77.7708L58.0666 77.8246L57.9008 78.9706V80.0091L57.7351 80.1705L57.6246 81.1055L57.3781 81.3993C57.3781 81.4903 57.3866 81.602 57.4036 81.7468V82.0157L57.5948 82.4957L57.4036 82.8432L57.4588 83.2693L57.4036 83.3769L57.4588 83.6955L57.7053 83.9106L57.8966 83.8568L57.9221 84.0182L58.1133 83.7493H58.9081C59.0185 83.6417 59.1545 83.5548 59.3203 83.4845C59.741 83.199 60.115 83.0418 60.4423 83.0045L60.4678 82.657C60.9778 82.3881 61.628 82.0447 62.4142 81.6144L62.5247 81.3993C62.4695 81.4365 62.4227 81.4613 62.3887 81.4779C62.444 81.4406 62.5715 81.362 62.7755 81.2379L62.886 80.8904L63.0815 80.5966L63.4682 80.4642L63.6892 80.1456L63.8295 80.1705L63.9952 80.067L64.3267 79.7236L64.4627 79.6988L64.4924 79.6202L64.9897 79.1196L65.2914 78.6396C65.4954 78.5858 65.6697 78.4617 65.8184 78.2631L66.2052 77.4853V76.6537L66.3964 76.5461V76.4675L66.2052 75.9876L66.2604 75.88C66.1329 75.6856 66.0692 75.5325 66.0692 75.4249C66.0692 75.2304 66.1797 74.9863 66.3964 74.7009V74.7795L66.5069 74.5105L66.5324 74.403V74.4816C66.6769 74.1258 67.0424 73.9396 67.6289 73.923L68.5044 74.7505L68.5851 75.4456L68.8571 75.9007L68.6914 76.3268V76.6454C68.6786 76.6992 68.6574 76.7778 68.6361 76.8854L68.6914 77.0467V77.4729L68.6361 77.899L68.6914 78.4866V79.6078L68.8826 80.2739L68.8996 80.307Z" fill="white"/>
<path d="M98.921 80.9483L98.8105 81.2669L98.7 81.8006L98.207 82.2019L98.0965 82.5494L97.7693 82.628L97.4123 83.1369L96.7833 83.2693L96.2351 83.6417L95.4403 83.7203L95.0281 84.1465H94.3141L94.0124 84.3326L93.6299 84.2789C93.2644 84.5271 92.8351 84.6967 92.3422 84.7878L92.1509 84.6802L91.3562 85.2387L91.0544 85.0774L90.8632 85.2098L90.3702 85.1022L90.1789 85.2098L89.686 85.2635L89.3035 85.1849L88.8105 85.5863L88.2367 85.3463V85.3711C88.1985 85.4084 88.1007 85.4497 87.935 85.5035L87.7692 85.3173C87.5142 85.5656 87.2125 85.6897 86.864 85.6897H86.728C86.6558 85.6194 86.6005 85.5821 86.5623 85.5821L86.1245 86.0538L85.6018 86.2193L85.164 85.971L85.0535 85.4746L84.4501 85.6897C84.4841 85.6566 84.5053 85.6276 84.5053 85.6111V85.5325C84.4883 85.4994 84.4798 85.4621 84.4798 85.429C84.4798 85.3794 84.5138 85.3422 84.5903 85.3256L84.1228 84.4981V83.4183L84.2588 82.9715L84.1228 82.355L84.3693 81.9288L84.2588 81.5813L84.3396 80.9938C84.2843 80.7993 84.2206 80.5842 84.1483 80.3525L84.1228 79.9801C83.5193 79.6781 83.1793 79.3926 83.1071 79.1278C83.1963 78.7017 83.4641 78.3624 83.9018 78.1142C83.9188 78.0976 84.0208 78.0356 84.2036 77.928L84.0123 77.3405L84.2333 77.2619L84.1228 76.8606L84.2036 76.753L84.0378 76.3517L84.1186 76.1365L84.0931 75.5242L83.7658 74.8829L83.8211 74.614L83.6553 74.5064V73.8941L83.5193 73.6789L83.3281 73.0376L83.3026 73.0128L83.0051 73.2528L82.7331 73.0666L82.4356 73.2528L82.3294 73.1204L81.8704 73.4141L81.5984 73.0128L81.0586 73.3314C80.1576 72.8142 79.7072 72.3633 79.7072 71.9702C79.7072 71.6144 79.8984 71.3993 80.2809 71.3289C80.4636 71.0434 80.7271 70.9028 81.0756 70.9028H81.1861L81.4879 71.0352L81.5431 71.0103C82.3463 71.0103 82.9328 71.0476 83.2983 71.1179C83.6086 71.0476 83.8848 71.0103 84.1228 71.0103L84.2588 71.1179L84.4501 71.0641L85.2193 71.3331L86.8088 71.5192H88.0412C88.3515 71.5523 88.598 71.6268 88.7807 71.7468L89.0017 71.8461C89.3672 71.9123 89.6137 71.9454 89.7412 71.9454L90.3999 71.8378L90.5359 71.9992C90.7739 71.9992 90.9822 72.0902 91.1649 72.2681L91.9597 72.2929L92.2869 72.5867C92.5249 72.6777 92.7246 72.7191 92.8904 72.7191L93.4386 72.8804L93.6596 73.0956H94.2886L94.4544 73.4679L95.0323 73.8155L95.2236 74.6429L94.7859 75.4166C94.3821 75.8635 93.9826 76.12 93.5789 76.1903L93.1411 76.4303L92.9201 76.3765L92.3422 76.7489C92.2147 76.7323 92.1042 76.724 92.0149 76.724L91.4369 76.9102L91.3817 76.8854L91.0247 77.3405L90.5019 77.4191C90.0259 77.6508 89.55 77.7667 89.0782 77.7667L88.53 78.0604H87.9562L87.4887 78.3045L87.1318 78.3542L88.0922 78.6231H88.6405L89.5457 78.7017L90.5869 78.5403L90.6422 78.6189H91.1904C91.6282 78.6189 91.9129 78.71 92.0404 78.8879C92.1679 78.801 92.3124 78.7555 92.4782 78.7555C92.7884 78.8631 93.0009 78.9168 93.1071 78.9168C93.2346 78.9168 93.4089 78.8713 93.6299 78.7844C93.8679 78.9086 94.3141 78.9706 94.9729 78.9706L95.2193 79.103C95.7123 79.1734 96.1161 79.2809 96.4263 79.4216H96.8641C97.0851 79.6367 97.3316 79.7402 97.6035 79.7402C97.714 79.8477 98.0158 80.0505 98.5088 80.3525C98.785 80.5304 98.921 80.7249 98.921 80.94V80.9483ZM92.5886 74.8622V74.6471L92.5079 74.6223L92.3167 74.4071H92.0149L91.7387 74.2747C91.5942 74.2375 91.4624 74.2044 91.3562 74.1671L91.0544 74.3823L90.5062 73.981L90.0387 73.8486L89.8475 73.9561L89.3247 73.6872H89.1887C89.006 73.6872 88.7042 73.6624 88.2835 73.6086L87.6545 73.6872L87.3272 73.3935L87.0255 73.4472L86.915 73.4224L86.7493 73.5548L86.2265 73.3686L86.116 73.4224V74.0596L86.252 74.5643L86.116 74.9615L86.252 75.5697V76.1241L86.4178 76.5503L86.252 77.0012V77.055H86.7068C86.8003 77.0178 86.9405 76.9847 87.1318 76.9475L87.1063 77.0261L87.4335 76.7737L87.4887 76.5461H88.173C88.7382 76.4096 89.1037 76.2524 89.2695 76.0662H89.5967L89.7327 75.9586C90.0259 75.6731 90.3362 75.5325 90.6634 75.5325H90.7739C90.8632 75.5325 90.9482 75.487 91.0204 75.4001L91.7599 75.1849H91.8407C92.0404 75.0236 92.2869 74.916 92.5801 74.8664L92.5886 74.8622ZM96.5113 81.2669L96.4306 81.2131L95.9886 81.1593L95.8781 81.0269H95.7421L95.1088 80.758L94.5861 80.8117L94.3396 80.5966L93.7871 80.6504C93.6766 80.5635 93.5576 80.5014 93.4301 80.4642C93.2644 80.5552 93.1071 80.5966 92.9626 80.5966C92.8351 80.5801 92.6864 80.5263 92.5206 80.4352C92.2062 80.4352 91.8662 80.4104 91.5007 80.3566L90.5614 80.3318C90.2469 80.2449 89.9622 80.1994 89.7072 80.1994C89.5967 80.1994 89.4607 80.216 89.295 80.2532L88.6872 80.3856L88.275 80.1167L88.2495 80.278L87.0383 80.1705C86.8725 80.0629 86.7705 79.9926 86.7365 79.9553C86.422 79.9553 86.269 80.1084 86.269 80.4104V80.8117L86.4603 81.1841L86.269 81.5854L86.371 81.7716L86.32 82.1523L86.5198 82.4667L86.5878 82.9549L86.3413 83.381L86.3668 83.5176L86.4475 83.5714L86.5028 83.9851L87.272 83.9603L87.7395 83.7989L88.5385 83.8237L88.7297 83.9024C88.785 83.8486 88.8742 83.8031 89.006 83.77L89.4735 83.5548L90.2427 83.5796L91.0119 83.3397L91.6707 83.0707L92.0574 83.0956L92.7161 82.8101L93.6511 82.7604C94.1101 82.7439 94.4501 82.595 94.6711 82.3219H95.0578L95.3596 82.1895L95.5806 81.8957L96.1841 81.7344L96.3753 81.4158L96.5113 81.2544V81.2669Z" fill="white"/>
<path d="M109.206 81.453C109.206 81.8626 109.134 82.1191 108.985 82.2267L108.849 82.3343L108.713 82.7066L108.275 82.839C108.148 83.1245 107.956 83.3479 107.697 83.5052L107.451 83.5838L107.094 83.9561L106.766 84.0347C106.639 84.3533 106.375 84.523 105.972 84.5436C105.933 84.5974 105.853 84.705 105.725 84.8622C105.449 85.0401 105.168 85.1477 104.875 85.1808L104.739 85.2056L104.548 85.4456H104L103.562 85.7642L102.436 84.9615L101.913 83.9189L101.887 82.6115L101.777 82.2929L102.104 79.9429L102.215 79.8353C102.159 79.5664 102.134 79.3099 102.134 79.0616C102.134 78.9003 102.189 78.5734 102.3 78.0728L102.436 77.4605C102.397 77.3529 102.325 77.2371 102.215 77.1129L102.38 76.604L102.436 75.9917L102.491 75.9131C102.419 75.7517 102.372 75.5738 102.355 75.3794C102.372 75.3421 102.393 75.2966 102.41 75.2346C102.427 75.1725 102.436 75.1229 102.436 75.0898C102.38 74.9284 102.355 74.7795 102.355 74.6347C102.355 74.2085 102.601 74.0099 103.094 74.0472H103.422C103.643 73.9603 103.779 73.9148 103.834 73.9148C104.199 73.9148 104.446 74.1092 104.573 74.5023V74.6098C104.646 74.825 104.684 75.0277 104.684 75.2222C104.684 75.3835 104.667 75.4994 104.629 75.5697L104.437 76.9061L104.629 77.2784C104.629 77.597 104.518 77.8825 104.301 78.1307L104.412 78.4493L104.055 79.463C104.017 79.9098 103.974 80.2449 103.919 80.4766V81.1427L103.753 81.5151L103.779 81.784L103.723 82.3963L103.779 82.8763L104.191 83.1949L104.518 83.1411L104.573 83.0625L104.794 83.0873L105.151 82.9797L105.453 82.686L105.564 82.5246L105.755 82.4998L105.81 82.3674L105.891 82.2598L106.057 82.3674L106.329 82.1026L106.494 82.1274L106.55 81.9412H106.605L106.686 81.7261L106.932 81.6185L107.455 81.3786C107.876 81.0931 108.288 80.9524 108.692 80.9524H108.802C109.002 81.0765 109.142 81.2379 109.214 81.4323L109.206 81.453ZM106.409 67.3033C106.409 67.5143 106.265 67.7129 105.972 67.8866V67.9404C105.623 68.35 105.321 68.5776 105.066 68.6313L104.654 69.1113L104.378 69.4588L103.745 69.6119L103.473 69.9925L103.035 70.2077L102.325 70.8324L101.887 70.4311L101.968 69.765L102.27 69.2851C102.287 69.0368 102.436 68.8217 102.708 68.6438V68.5362L102.873 68.4286L102.899 68.0273L103.337 67.9197V67.6798L103.664 67.626C103.736 67.2702 103.893 67.0136 104.131 66.8523L104.212 66.7985L104.378 66.6371L104.599 65.9958C105.806 66.2813 106.409 66.7158 106.409 67.2991V67.3033Z" fill="white"/>
<path d="M122.228 75.4208L122.007 76.302L120.991 76.4344L120.443 76.782L120.086 76.6206L119.703 76.8275L119.291 76.9847L119.015 77.1667L119.006 77.2702L118.437 77.5474L118.054 78.0356H117.863C117.57 78.3376 117.362 78.5238 117.234 78.5941L116.852 79.2065L116.716 79.2602C116.66 79.4051 116.597 79.6161 116.524 79.9015L116.142 80.0339L115.976 80.3525L115.755 80.6214L115.7 81.0228L115.479 81.1014V81.5027L115.398 81.5813C115.453 81.6723 115.517 81.7675 115.589 81.8751L115.177 82.0364L115.122 82.384L114.85 82.8391L115.016 83.1866L114.659 83.6665C114.697 83.8444 114.714 83.9686 114.714 84.0389V84.1465C114.697 84.2003 114.688 84.2458 114.688 84.2789L114.744 84.5188L115.211 84.9988L114.854 85.6111L114.527 85.8511L113.758 86.2234L112.742 85.8221V85.2098L112.631 84.9698L112.712 84.5685C112.674 84.283 112.657 84.072 112.657 83.9272C112.657 83.8734 112.665 83.8031 112.682 83.7121V83.5259L112.657 83.2569C112.529 83.1328 112.466 82.988 112.466 82.8308C112.466 82.6901 112.529 82.5288 112.657 82.3509C112.657 82.264 112.64 81.995 112.602 81.5482L112.682 81.4696L112.602 81.1221L112.657 80.8035L112.602 80.6173L112.682 80.005L112.517 79.736L112.627 79.4423L112.517 79.0948C112.534 78.9872 112.542 78.8465 112.542 78.6686C112.542 78.3997 112.504 78.2259 112.432 78.1349L112.542 77.9735L112.432 77.4936L112.185 77.1461L112.321 76.7199L112.211 76.5586L112.1 75.9173V75.7021C112.011 75.5945 111.964 75.4622 111.964 75.3008C111.964 74.945 112.368 74.643 113.171 74.3947L113.855 74.5271L113.991 75.036L114.263 75.3835L114.183 76.1034C114.238 76.4593 114.302 76.8523 114.374 77.2785L114.455 77.7046C114.472 77.7418 114.493 77.837 114.51 77.9984C114.51 78.1059 114.463 78.2218 114.374 78.3459L114.455 78.8796L114.399 79.4671L114.289 79.736L114.37 79.8436L114.425 80.1125C114.535 79.9884 114.599 79.856 114.616 79.7112L114.727 79.3099C114.782 79.2023 114.863 79.1237 114.973 79.0699L115.084 78.6686L115.466 78.4535L115.521 78.1349L115.823 77.8163L116.044 77.415C116.282 77.1667 116.512 77.0054 116.728 76.9351L116.784 76.8564L117.03 76.4841L117.302 76.4303L117.383 76.3517L117.493 76.1903L117.795 76.029L117.961 75.8428L118.126 75.8676L118.347 75.76L118.458 75.5987L118.785 75.4373L119.253 75.1436L119.911 74.9284C120.166 74.8912 120.302 74.8746 120.324 74.8746V74.8995C120.324 74.8995 120.298 74.9077 120.298 74.9243H120.324C120.396 74.9243 120.506 74.8871 120.651 74.8167C120.74 74.7464 120.872 74.7092 121.033 74.7092C121.106 74.7092 121.233 74.7257 121.416 74.7629C121.892 74.7795 122.155 74.9946 122.211 75.4042L122.228 75.4208Z" fill="white"/>
<path d="M136.456 83.4307L136.129 84.5519L135.908 84.8705C135.615 85.2966 135.33 85.5118 135.058 85.5118C134.837 85.5118 134.544 85.3587 134.183 85.0567L133.634 84.283L133.388 83.803L133.277 83.3231L133.031 82.5205V81.3455L132.95 80.3318L133.031 79.7733L132.976 79.6119L132.291 80.5469H132.211L132.185 80.6256L131.718 81.3455L130.948 82.1481L130.375 82.9218L129.771 83.4803C129.605 83.7658 129.414 84.0141 129.193 84.2292L128.645 84.6016L128.318 85.0277L127.714 85.2139L127.468 85.5076L126.864 85.6152L126.371 85.909H126.291L126.235 86.0165L125.385 85.909L124.37 85.2139C124.098 84.9119 123.923 84.5809 123.847 84.2251C123.885 84.2085 123.919 84.1754 123.957 84.1299C123.996 84.0844 124.021 84.0554 124.038 84.0347C124.021 84.0182 123.919 83.9727 123.736 83.9023L123.49 83.3686L123.626 83.1824L123.49 82.8639L123.626 82.4915L123.571 82.0116L123.762 81.2379V80.4104L123.953 80.1704V79.6119L124.144 79.2644L124.2 78.863L124.255 78.8093V78.4617L124.531 78.0356L124.586 77.6632L124.752 77.3943L124.833 77.2329L124.943 76.5916L125.135 76.0289L125.271 75.8966L125.326 75.549L125.683 75.1767C125.721 75.0898 125.802 74.8994 125.929 74.614L126.614 74.3202L127.051 73.8651L128.314 73.5176C128.513 73.5176 128.671 73.5093 128.781 73.4927L128.972 73.6003L129.028 73.3852L129.656 73.3314L129.877 73.41L130.069 73.3852L130.234 73.5176L130.757 73.5424L130.868 73.4638L131.004 73.5714L131.28 73.5962V73.7824L131.39 73.861L131.939 73.9685L132.351 74.4237L132.899 74.825L133.035 75.0939L133.061 75.1187L133.171 74.7464L133.337 74.3988L133.282 73.7865L133.392 72.6653L133.226 72.2391L133.447 71.9205L133.337 71.6268L133.418 70.8779L133.32 70.2366L133.031 70.0505L133.469 69.6243V69.3306C133.469 69.0285 133.35 68.6975 133.112 68.3417H133.277L133.579 67.9156C133.855 67.8618 134.102 67.837 134.319 67.837C134.574 67.837 134.786 67.8908 134.948 67.9983C135.241 68.0894 135.385 68.5155 135.385 69.2809H135.249L135.224 69.3885L135.47 69.6036L135.305 70.0298L135.551 70.5387L135.415 70.7C135.47 70.8241 135.496 70.9483 135.496 71.0724C135.496 71.1965 135.47 71.3289 135.415 71.4737L135.551 71.6351C135.585 71.7054 135.606 71.8213 135.606 71.9826C135.606 72.1771 135.56 72.355 135.47 72.5163C135.377 73.6376 135.296 74.3326 135.224 74.5974C135.241 74.6512 135.249 74.7298 135.249 74.8374C135.249 74.9781 135.224 75.1311 135.169 75.2925V75.4539C135.169 75.669 135.13 75.909 135.05 76.1738L134.96 76.9764L134.812 77.1915L134.922 77.4315L134.812 77.8328L134.922 78.1804L134.701 79.0078L134.812 79.6202V79.9677L134.846 80.5014C134.88 80.6256 134.897 80.7414 134.897 80.849C134.897 80.94 134.871 81.0103 134.816 81.0641L135.037 81.2255L134.816 81.7592L135.037 82.3177L134.956 82.4791L135.037 82.6405L134.956 82.8018L135.037 82.8804L135.283 83.0956L135.751 83.1493L136.465 83.4431L136.456 83.4307ZM132.372 76.9185L132.262 76.8647C132.134 76.7944 132.019 76.6785 131.917 76.5172C131.815 76.3558 131.722 76.1986 131.628 76.0372C131.446 75.9834 131.288 75.8676 131.161 75.6897H130.995L130.502 75.3959L129.869 75.2635L129.266 75.3173L128.615 75.4952L128.445 75.3421L128.229 75.4208V75.5283L127.982 75.5821C127.816 75.8676 127.561 76.1158 127.213 76.3268L126.992 76.7778L126.771 76.9392L126.58 77.3653L126.499 78.2424L126.252 78.4534V78.9334L126.031 79.1196L126.014 79.7567L125.555 80.6421L125.479 81.0683L125.428 81.7633L125.594 82.0571L125.428 82.3508L125.564 82.537L125.292 83.017L125.432 83.2569L125.543 83.5755L125.704 83.6872H125.895L126.142 83.4762L126.359 83.501L126.822 83.3148L126.877 83.1535L127.396 82.9673L127.451 82.8059L127.778 82.6198V82.566L128.462 81.8709L128.79 81.7385L128.955 81.391L129.312 81.3372L129.75 80.8572L129.669 80.8035L129.86 80.6173L130.132 80.0546L130.379 79.8146L130.515 79.2271L130.948 79.0947L131.259 78.6727L131.373 78.5941V78.1142L131.786 77.928L132.364 76.9143L132.372 76.9185Z" fill="white"/>
<path d="M166.342 82.2267C166.342 82.4419 166.223 82.6984 165.985 83.0004C165.691 83.3728 165.334 83.6665 164.914 83.8817C164.769 84.0058 164.612 84.0761 164.446 84.0968C164.119 84.312 163.796 84.4278 163.486 84.4444C163.358 84.5685 163.137 84.6843 162.827 84.7919H162.334L161.841 85.1642L161.318 85.0567L161.153 85.0815L160.74 85.1353C160.464 85.1725 160.239 85.1891 160.056 85.1891C160.018 85.1891 159.954 85.1808 159.865 85.1642H159.644L159.261 85.2966L158.713 85.3504H158.084L157.782 85.5159L157.863 85.6152C157.442 85.6152 157.115 85.6235 156.877 85.64L156.741 85.6152L155.615 85.5159L154.025 85.4497L153.503 85.3504C153.337 85.458 153.146 85.5118 152.929 85.5118C152.674 85.5118 152.406 85.4332 152.134 85.2718L151.611 85.458L151.335 85.218C150.566 85.2015 150.12 85.1312 149.992 85.0029L149.882 84.9491C149.937 84.9491 149.78 84.9657 149.414 85.0029L148.343 84.3078L147.85 84.2002C147.54 84.0596 147.272 83.8072 147.056 83.4514C146.873 83.1494 146.779 82.8556 146.779 82.5701C146.779 82.3757 146.873 82.0281 147.056 81.5275L147.604 80.94L148.263 80.9648C148.407 80.7704 148.62 80.6711 148.892 80.6711C149.478 80.6711 149.767 81.1303 149.767 82.0488C149.384 82.1398 149.155 82.2102 149.083 82.264C148.994 82.3715 148.853 82.4915 148.671 82.6156V82.6984L148.917 82.8225L149.244 83.1494L150.315 83.0956L151.22 83.3645L152.644 83.3397L153.167 83.6872L153.413 83.5259C153.524 83.5259 153.66 83.559 153.826 83.6293L154.54 83.7327L154.595 83.9024H155.033C155.453 83.7617 155.691 83.6872 155.747 83.6872H158.161L158.764 83.5341L159.066 83.2321L160.107 83.3397C160.638 83.1783 161.059 83.0997 161.369 83.0997H161.505C161.633 83.0128 161.743 82.9673 161.833 82.9673C161.888 82.9673 161.951 82.9839 162.024 83.0211L162.296 82.9135V82.6984H162.874C163.001 82.537 163.231 82.4501 163.558 82.4295C163.813 82.1978 164.025 82.0736 164.187 82.0571L164.408 81.7385C164.408 81.5772 163.821 81.2296 162.653 80.6959L162.432 80.5345C162.049 80.4973 161.748 80.4352 161.527 80.3484C161.399 80.3484 161.28 80.3401 161.17 80.3235H161.114C161.021 80.3235 160.668 80.216 160.043 80.005C159.844 79.8643 159.631 79.7898 159.414 79.7898C159.342 79.7898 159.232 79.8064 159.087 79.8436H158.539L158.458 79.765C158.165 79.7112 157.935 79.6326 157.774 79.525L157.447 79.6326L156.597 79.2313H156.048L155.691 79.0161H155.143L155.062 78.8837H154.625L154.242 78.4576H154.051C153.486 78.4576 153.044 78.35 152.733 78.139L152.678 78.0852C152.274 77.9611 151.981 77.7666 151.803 77.5019L151.335 77.0798L151.033 76.393L150.706 75.971L150.842 74.887L151.501 74.1465C151.611 74.1299 151.692 74.0141 151.747 73.8031C151.803 73.7865 151.892 73.741 152.024 73.6707L153.422 72.9301H153.804C154.059 72.9301 154.327 72.8432 154.599 72.6611H154.765V72.7149L155.041 72.475H155.177C155.764 72.2598 156.248 72.1564 156.631 72.1564H156.767L157.013 72.1812L157.425 71.9412C157.536 71.9247 157.68 71.9164 157.863 71.9164H158.029C158.156 71.9164 158.382 71.8999 158.7 71.8626C159.019 71.8254 159.27 71.8006 159.453 71.784L159.946 71.7592L160.685 71.3868C160.74 71.4241 160.859 71.5565 161.042 71.7882H161.646C161.756 71.7882 161.956 71.8337 162.249 71.9206H162.44C162.878 71.9206 163.243 72.0116 163.537 72.1895C164.506 72.4212 164.99 72.9011 164.99 73.6169C164.99 74.2292 164.489 74.5974 163.481 74.7216L163.26 74.403C163.205 74.3864 163.112 74.3492 162.971 74.2954C162.835 74.2416 162.729 74.2085 162.657 74.1878H162.053L161.777 73.8941L161.34 73.9479L161.093 74.2168L160.434 73.7617L159.72 73.8693L158.87 73.6831C158.339 73.7203 157.893 73.8237 157.527 74.0017L157.472 74.0265C157.417 74.0637 157.357 74.0927 157.294 74.1216C157.23 74.1465 157.187 74.163 157.17 74.163L156.788 74.0017L156.019 74.3492L154.595 74.7216L154.268 74.6429L153.664 75.0153H153.388L153.222 75.2553L152.644 75.6276L152.699 75.789L153.001 76.0827L153.277 76.1614L153.715 76.4303L154.565 76.724L154.977 76.7489L155.717 77.175L155.938 77.0964C156.469 77.204 156.826 77.3446 157.009 77.5225L157.09 77.6012H157.145L157.693 77.9197L157.884 77.7336L158.543 77.8122H159.036L159.419 78.1059H159.61C159.92 78.1059 160.196 78.1431 160.434 78.2135H160.711C161.038 78.2135 161.403 78.3666 161.807 78.6686L162.134 78.561L162.381 78.6686H162.848L163.643 79.2023L164.467 79.2809L164.795 79.7071C165.415 80.0794 165.823 80.4063 166.014 80.6794C166.206 80.9566 166.303 81.3496 166.303 81.8668C166.303 81.904 166.312 81.9578 166.329 82.0281V82.2143L166.342 82.2267Z" fill="white"/>
<path d="M180.46 81.3993L180.133 82.2019L180.354 82.7356L180.243 82.897L180.133 83.3231L179.912 83.6955L179.801 83.7493L179.746 84.2582L179.253 84.312C178.998 84.5436 178.73 84.7298 178.458 84.8705L178.293 84.8457L177.88 84.9781L177.634 85.0029L177.111 85.1891L176.508 84.9201L176.427 84.8664L175.959 84.8912L176.07 84.945L175.301 84.8374L174.616 84.9988L174.34 84.7588L173.766 84.8126L173.545 84.6512C173.545 84.6512 173.452 84.6595 173.324 84.676V84.8374C173.324 84.9988 173.299 85.156 173.244 85.3173L173.324 85.8262L173.159 86.0952V86.9764L173.078 87.6425L173.159 88.6562L172.967 88.9251L173.078 89.3264L172.997 89.5912L173.163 89.6698V90.3111C173.163 90.4725 173.082 90.6049 172.916 90.7124L173.027 91.0848L172.836 91.3V92.3674C172.78 93.6127 172.496 94.2375 171.986 94.2375C171.875 94.2375 171.556 94.163 171.025 94.0223L171.161 93.2114L170.94 92.0199L171.216 91.5316V90.9359L171.089 90.1249L171.348 89.8353L171.161 89.223L171.297 88.9044L171.161 88.3707L171.352 87.8908C171.318 87.7832 171.255 87.688 171.161 87.597C171.068 87.506 171.021 87.4439 171.021 87.4108C171.021 87.357 171.068 87.3033 171.157 87.2495V86.9805C171.157 86.7489 171.212 86.4468 171.323 86.0745L171.157 85.8097L171.238 85.4621L171.017 85.2222L171.293 84.9284L171.157 84.1547L171.348 83.0583L171.157 82.7108L171.459 82.2019L171.157 81.9081L171.323 81.3993L171.157 81.2669L171.212 80.8117L171.323 80.2532V80.1456L171.348 80.0381V79.7443L171.374 79.6367L171.238 79.2106L171.374 78.7555L171.238 78.4079L171.348 78.0066L171.238 77.899L171.318 77.3653L171.238 77.0716L171.293 76.8068L171.212 76.6206L170.226 77.0467V76.8854L170.031 76.9102L169.725 77.175H169.474L169.142 77.6012L168.866 77.4936L168.726 77.7625C167.821 77.2453 167.37 76.8357 167.37 76.5337C167.37 76.3186 167.464 76.1407 167.646 76L167.621 75.5987C168.131 75.3132 168.615 75.1642 169.074 75.1436L169.266 74.9574L170.141 74.6098L170.332 74.4237L171.102 74.4774L171.238 74.4237L171.484 73.4886L172.143 73.621L172.581 74.3161L172.827 74.0761L173.32 74.4237C173.558 74.4237 173.788 74.4692 174.004 74.5561L174.14 74.796L174.332 74.7174L174.553 74.8788C174.68 74.8788 174.782 74.887 174.854 74.9036L174.829 75.065L175.432 74.8788L175.734 75.1973L176.257 75.3587L176.614 75.7849L177.273 76.1862L177.298 76.24L177.821 76.4013V76.5627C177.965 76.6702 178.076 76.8109 178.148 76.9888L178.369 77.1212L178.535 77.415H178.862V77.9487L179.053 78.1349L179.109 78.3211L179.38 78.3748C179.419 78.7844 179.538 79.132 179.737 79.4175V79.6036L180.014 79.8726L179.958 80.2987L180.179 80.7786L180.26 81.3372L180.451 81.391L180.46 81.3993ZM178.403 81.8006L178.378 81.6682L178.403 81.5606L178.237 81.0807L178.348 80.8407L178.237 80.6256L178.212 80.3566L177.991 79.9305L177.88 79.6367L177.468 78.9417L177.141 78.6769L176.95 78.2218L176.703 78.1142L176.265 77.5556L175.828 77.6094L175.5 77.1833L175.224 77.2371L175.033 76.8895L174.922 76.8647H174.54L174.268 76.9971L174.047 76.782L173.775 76.8357L173.664 76.6496L173.171 76.5709V77.3984L173.273 77.6922L173.635 78.0397L173.333 78.681L173.358 79.0823L173.167 79.885C173.231 80.2242 173.358 80.5097 173.55 80.7373L173.439 81.031C173.439 81.031 173.465 81.0683 173.465 81.0848C173.465 81.1386 173.392 81.2172 173.244 81.3248L173.435 81.5647L173.299 81.8833L173.244 82.2309L173.324 82.6032L173.299 82.9508H173.873C173.945 82.9135 174.047 82.897 174.174 82.897C174.34 82.897 174.485 82.9508 174.612 83.0583C174.629 83.0583 174.667 83.0501 174.723 83.0335H174.803C174.859 83.0335 174.961 83.0501 175.105 83.0873C175.216 83.0335 175.313 83.0087 175.407 83.0087C175.551 83.0087 175.692 83.0459 175.819 83.1163H176.066L176.287 83.17L176.835 83.0087L177.273 83.2776C177.438 83.3314 177.502 83.3562 177.464 83.3562L177.987 82.8473L178.042 82.475L178.178 82.4212L178.097 82.206L178.288 81.9909L178.399 81.8047L178.403 81.8006Z" fill="white"/>
<path d="M192.39 83.1618C192.39 83.3769 192.224 83.6417 191.897 83.9644C191.803 84.2499 191.667 84.4816 191.484 84.6595L191.319 84.6843L191.017 85.1932L190.524 85.2718L190.001 85.5904L189.725 86.0703H189.423C189.223 86.1489 189.058 86.1945 188.93 86.211L188.764 86.4179H188.518C188.28 86.4179 188.05 86.5668 187.834 86.873L187.451 86.5544H187.124C186.886 86.5544 186.686 86.5089 186.52 86.422H186.053L185.832 86.2896C185.139 86.182 184.697 85.9255 184.514 85.5242V85.4456L184.187 85.2884L184.021 84.8374L183.694 84.6264V84.2292L183.367 83.0666V82.115L183.533 81.693V81.1386L183.669 80.7166L183.639 80.5304L183.83 80.2118L183.775 80.2656C183.775 80.1043 183.822 79.9346 183.911 79.7567V79.6243L183.83 78.983C183.83 78.681 183.966 78.4121 184.242 78.1804C184.259 78.1432 184.268 78.0935 184.268 78.019C184.268 77.9446 184.234 77.7998 184.17 77.5805C184.106 77.3571 184.072 77.204 184.072 77.113C184.072 76.8978 184.128 76.6785 184.238 76.4468C184.383 76.662 184.595 76.7654 184.867 76.7654H184.948C184.986 76.6951 185.067 76.6165 185.194 76.5254C185.339 76.0827 185.543 75.7062 185.798 75.4042L185.908 75.2966C185.908 75.2263 185.964 75.0194 186.074 74.6843H186.295L186.35 74.5519L186.571 74.4981C186.661 74.3575 186.72 74.2706 186.75 74.2458C186.775 74.2209 186.975 74.1092 187.341 73.9106C187.413 73.7865 187.523 73.6707 187.668 73.5631C187.74 73.5259 187.834 73.4928 187.94 73.4555L188.05 73.2942C188.543 73.1328 188.854 73.0542 188.981 73.0542C189.126 73.0542 189.266 73.0914 189.393 73.1618L189.529 73.1369L189.721 73.2445C189.942 73.4059 190.158 73.5383 190.379 73.6458L190.847 73.9934V74.101C191.268 74.4195 191.476 74.8746 191.476 75.4621L191.395 75.7311L191.476 76.6123L191.229 76.7737L190.953 77.4688L190.43 78.0273L190.405 78.4535C189.818 78.8631 189.279 79.194 188.786 79.4423C188.62 79.6905 188.365 79.8146 188.016 79.8146H187.936L187.413 80.1332H186.975L186.316 80.4022L185.823 80.1622H185.768C185.73 80.307 185.696 80.5221 185.658 80.8076L185.437 80.969L185.411 81.2917L185.245 81.7468C185.284 82.1771 185.301 82.4543 185.301 82.5784L185.211 82.6611C185.211 82.8928 185.203 83.0625 185.19 83.17C185.19 83.1866 185.182 83.2156 185.169 83.2487V83.3273C185.169 83.4721 185.241 83.5879 185.39 83.6748C185.445 83.8899 185.534 84.0223 185.666 84.0761L185.857 84.2375L186.461 84.3988V84.4775L186.682 84.5312H187.613L188.161 84.4526L188.433 84.2664L188.599 84.2127L188.871 83.8155L189.007 83.7906L189.691 83.5796C189.763 83.4555 189.882 83.3521 190.048 83.2611L190.129 83.1287C190.494 83.0583 190.702 82.8722 190.758 82.5743C191.013 82.3302 191.344 82.206 191.744 82.206H191.854C192.203 82.5991 192.377 82.9177 192.377 83.1659L192.39 83.1618ZM189.674 75.4746C189.674 75.4208 189.648 75.3132 189.593 75.156L189.457 75.1312L189.402 75.156H189.291C189.253 75.1725 189.219 75.1808 189.181 75.1808C189.164 75.1808 189.134 75.1725 189.1 75.156H189.019L188.743 75.3422L188.497 75.367L188.361 75.4208L187.893 76.0083L187.591 76.2234L187.154 76.9723L186.907 77.1336C186.852 77.4357 186.724 77.6922 186.525 77.9073L186.414 78.0935C186.614 77.9694 186.843 77.9073 187.098 77.9073L187.29 77.8287L187.37 77.5887L187.753 77.6136L187.974 77.295H188.14L188.441 77.4026L188.577 77.0012H188.769V76.7075L189.126 76.6289L189.206 76.5503L189.262 76.3103L189.619 75.8014C189.657 75.7145 189.674 75.607 189.674 75.4828V75.4746Z" fill="white"/>
<path d="M205.356 81.1882L204.833 81.6682L204.803 81.8295C204.748 82.1481 204.595 82.4088 204.336 82.6032C203.898 83.4059 203.286 83.9892 202.5 84.3657L202.088 84.6843L201.731 84.7381L201.293 85.0567L200.991 85.0815L200.307 85.5077L199.869 85.4539L199.376 85.7187L198.994 85.5573L198.803 85.7187L198.28 85.64L197.757 85.7187L197.566 85.5573L197.018 85.4497L196.223 84.8622L195.785 84.3285C195.509 83.9892 195.373 83.7038 195.373 83.4762V83.3976L195.101 82.9963V82.6487C195.046 82.4336 195.02 82.2391 195.02 82.0612V81.875L194.884 81.4199L195.02 81.1014L194.91 80.8862L195.237 80.3773L195.156 79.9512L195.377 79.2561L195.488 79.0947L195.598 78.4535L195.543 78.3459L195.87 77.9983L195.925 77.7294L196.146 77.1171L196.503 76.3682L196.996 75.9421L197.107 75.7021L197.273 75.4084L197.328 75.1394L197.766 74.6305C197.876 74.5933 198.004 74.5602 198.148 74.523C198.22 74.1837 198.679 73.9892 199.521 73.9355C200.235 74.0761 200.69 74.2664 200.894 74.494C201.093 74.5312 201.251 74.6098 201.361 74.734L201.935 74.7588L202.317 75.2387C202.407 75.4166 202.466 75.5945 202.504 75.7724L202.717 75.9834L202.636 76.3848C202.657 76.5089 202.666 76.7075 202.666 76.9723L202.815 77.0798V77.4812L202.925 78.3086C202.538 78.6851 202.092 78.8961 201.595 78.9499C201.336 78.4866 201.013 78.1349 200.622 77.9032V77.0178L200.43 76.724L200.452 76.5089L200.167 76.1986L200.031 76.0993L199.784 76.1779H199.427C199.189 76.2317 198.96 76.4013 198.739 76.6827C198.518 76.9681 198.297 77.2702 198.08 77.5887L198.055 77.8535L197.889 77.9859V78.4659L197.532 78.8382L197.094 80.0091L197.12 80.3277L196.899 80.8076L196.979 81.391L196.814 81.4696L196.758 82.2143L196.784 82.3467L197.115 82.6653L197.256 83.2238L197.642 83.3314L197.668 83.5424L198.131 83.6334L198.488 83.7244C198.616 83.6541 198.773 83.6169 198.956 83.6169H199.147C199.368 83.53 199.568 83.4845 199.75 83.4845C199.878 83.4307 200.044 83.3769 200.243 83.3231C200.464 83.0376 200.775 82.897 201.174 82.897H201.34C201.429 82.897 201.493 82.8515 201.531 82.7646C201.731 82.4626 202.05 82.2681 202.492 82.1771C203.001 81.7344 203.295 81.3744 203.367 81.1096C203.622 80.969 203.788 80.7456 203.86 80.4435L204.026 80.336L204.106 79.7236C204.948 79.8477 205.369 80.2573 205.369 80.9524V81.1676L205.356 81.1882Z" fill="white"/>
<path d="M215.585 81.453C215.585 81.8626 215.513 82.1191 215.364 82.2267L215.228 82.3343L215.092 82.7066L214.655 82.839C214.527 83.1245 214.336 83.3479 214.077 83.5052L213.83 83.5838L213.473 83.9561L213.146 84.0347C213.019 84.3533 212.755 84.523 212.351 84.5436C212.313 84.5974 212.232 84.705 212.105 84.8622C211.829 85.0401 211.548 85.1477 211.255 85.1808L211.119 85.2056L210.928 85.4456H210.379L209.942 85.7642L208.815 84.9615L208.293 83.9189L208.267 82.6115L208.157 82.2929L208.484 79.9429L208.594 79.8353C208.539 79.5664 208.514 79.3099 208.514 79.0616C208.514 78.9003 208.569 78.5734 208.679 78.0728L208.815 77.4605C208.777 77.3529 208.705 77.2371 208.594 77.1129L208.76 76.604L208.815 75.9917L208.871 75.9131C208.798 75.7517 208.752 75.5738 208.735 75.3794C208.752 75.3421 208.773 75.2966 208.79 75.2346C208.807 75.1725 208.815 75.1229 208.815 75.0898C208.76 74.9284 208.735 74.7795 208.735 74.6347C208.735 74.2085 208.981 74.0099 209.474 74.0472H209.801C210.022 73.9603 210.158 73.9148 210.214 73.9148C210.579 73.9148 210.826 74.1092 210.953 74.5023V74.6098C211.025 74.825 211.064 75.0277 211.064 75.2222C211.064 75.3835 211.047 75.4994 211.008 75.5697L210.817 76.9061L211.008 77.2784C211.008 77.597 210.898 77.8825 210.681 78.1307L210.792 78.4493L210.435 79.463C210.396 79.9098 210.354 80.2449 210.299 80.4766V81.1427L210.133 81.5151L210.158 81.784L210.103 82.3963L210.158 82.8763L210.571 83.1949L210.898 83.1411L210.953 83.0625L211.174 83.0873L211.531 82.9797L211.833 82.686L211.943 82.5246L212.135 82.4998L212.19 82.3674L212.271 82.2598L212.436 82.3674L212.708 82.1026L212.874 82.1274L212.929 81.9412H212.985L213.065 81.7261L213.312 81.6185L213.834 81.3786C214.255 81.0931 214.667 80.9524 215.071 80.9524H215.182C215.381 81.0765 215.522 81.2379 215.594 81.4323L215.585 81.453ZM212.789 67.3033C212.789 67.5143 212.645 67.7129 212.351 67.8866V67.9404C212.003 68.35 211.701 68.5776 211.446 68.6313L211.034 69.1113L210.758 69.4588L210.124 69.6119L209.852 69.9925L209.415 70.2077L208.705 70.8324L208.267 70.4311L208.348 69.765L208.65 69.2851C208.667 69.0368 208.815 68.8217 209.087 68.6438V68.5362L209.253 68.4286L209.279 68.0273L209.716 67.9197V67.6798L210.044 67.626C210.116 67.2702 210.273 67.0136 210.511 66.8523L210.592 66.7985L210.758 66.6371L210.979 65.9958C212.186 66.2813 212.789 66.7158 212.789 67.2991V67.3033Z" fill="white"/>
<path d="M229.126 74.5395L228.854 74.887L229.075 75.5283L228.718 75.9297L228.582 76.4882L228.501 76.6206L228.556 76.753C228.556 77.0012 228.493 77.1874 228.365 77.3115L228.31 77.3901V77.4977C228.365 77.6218 228.391 77.7377 228.391 77.8453C228.391 77.9363 228.382 77.9983 228.365 78.0314L228.391 78.139L228.28 78.4328L228.361 78.7513L228.14 78.9665L228.221 79.3388L228.386 79.525L228.14 79.7402V80.1663L227.949 80.5925L228.085 81.0186L227.919 81.2338L228.191 81.4199L227.808 82.0323L227.783 82.1109L228.059 82.1647L227.868 82.777V82.8846C227.868 83.0087 227.859 83.108 227.842 83.1783L227.868 83.2569L228.306 83.3107L228.663 83.8444L228.471 84.2458L228.773 84.2209C228.884 84.4361 228.947 84.6223 228.964 84.7795L228.552 85.1808C228.425 85.3049 228.242 85.429 228.004 85.5532L227.536 85.7931L227.4 85.6607L227.124 85.7931L226.274 84.8374V84.3864C226.164 84.0306 226.108 83.7038 226.108 83.4017V83.2404L225.943 81.6723L226.164 80.5552L225.998 79.9181L225.53 80.6669L225.284 81.362L225.063 81.4696L224.68 82.0612L223.996 82.6777L223.805 83.0004L223.201 83.5093L223.065 83.8568L222.19 84.3947L221.259 85.4166L220.736 85.5242L220.379 85.7931C219.92 85.7766 219.576 85.6069 219.338 85.2842C218.514 84.8912 218.084 84.3285 218.05 83.5962L218.186 83.5176L218.161 83.3562L218.135 83.0335L217.97 82.686L218.135 82.3095L218.191 81.7468L218.382 80.8614V80.7538C218.365 80.7166 218.356 80.6835 218.356 80.6463C218.356 80.5759 218.373 80.4849 218.412 80.3773C218.395 80.3401 218.386 80.2698 218.386 80.1622C218.386 80.0381 218.441 79.8312 218.552 79.5457L218.743 79.4671C218.633 79.3761 218.577 79.2809 218.577 79.1734V78.8258C218.577 78.6107 218.688 78.4493 218.905 78.3417C218.96 78.1638 219.062 77.9859 219.206 77.808L219.07 77.5929L219.398 77.1916V77.084C219.398 76.7447 219.517 76.4344 219.755 76.1489L219.729 75.669L219.84 75.5614V75.4828C219.823 75.4456 219.814 75.4208 219.814 75.4042C219.814 75.2966 219.852 75.2098 219.925 75.1353V74.9739C219.997 74.796 220.188 74.5312 220.498 74.1713C220.809 73.8155 221.038 73.5052 221.183 73.2362L221.319 73.3686L221.62 73.2362L221.756 73.1825L222.662 72.7811L224.774 72.8887V73.0749L225.433 73.2073C225.853 73.2073 226.125 73.3397 226.257 73.6086C226.257 73.5548 226.266 73.4928 226.283 73.4224V73.3148L226.856 73.8237L227.379 73.9313L228.365 73.6913L228.722 74.3575L229.134 74.5188L229.126 74.5395ZM226.521 75.9255L226.41 75.7393L226.189 75.6856L225.339 75.0194L224.791 74.9408H224.353L224.298 74.8333L224.077 74.9408L223.83 74.8333H223.116L223.197 74.9408L222.568 75.156L222.458 75.2884L222.377 75.3132C222.05 75.578 221.82 75.8014 221.693 75.9793L221.501 76.6206L221.391 76.8606L221.667 77.2329L221.2 77.5805L221.255 77.688C221.055 78.0273 220.957 78.3542 220.957 78.6769L220.736 78.9458V79.4257L220.515 79.6657L220.46 79.9057L220.379 79.9594V80.3318L220.299 80.4642C220.299 80.6793 220.282 80.849 220.243 80.9731L220.299 81.1055L220.052 81.6103L220.163 81.7716L219.971 82.0405L220.163 82.5453L219.861 82.9177L219.916 83.4224V83.501L220.027 83.5548L220.163 83.53C220.252 83.439 220.345 83.3604 220.439 83.29L220.384 83.0749L220.766 83.0211L220.847 82.8349L222.458 81.5523L222.619 81.4985L222.81 81.0434C222.921 81.0062 223.074 80.9359 223.274 80.8283L223.452 80.4063H223.669L223.588 79.9512L223.971 79.8974C224.009 79.8271 224.068 79.736 224.149 79.6285C224.23 79.5209 224.319 79.4257 224.408 79.3347L225.807 77.5184L226.028 77.1171L226.002 77.0095L226.193 76.7158L226.249 76.422L226.495 76.2069L226.521 75.9131V75.9255Z" fill="white"/>
<path d="M241 82.4419C241 82.6363 240.928 82.7977 240.783 82.9218C240.639 83.1369 240.401 83.3562 240.074 83.5879L239.802 83.7741L239.555 84.0927L239.309 84.2002L238.926 84.4402L238.654 84.465L238.544 84.5726C238.178 84.6802 237.898 84.8581 237.698 85.1063C237.57 85.1973 237.451 85.2387 237.345 85.2387C237.273 85.2387 237.209 85.2304 237.154 85.2139C236.844 85.3918 236.444 85.4828 235.951 85.4828C235.53 85.4828 235.258 85.4456 235.131 85.3753L234.638 85.1105L234.476 84.8415V84.7629C234.476 84.5312 234.37 84.3451 234.166 84.2044L234.051 83.6707L233.822 83.4307L233.682 82.4419V81.4282L233.762 81.2669C233.707 81.1593 233.682 81.0434 233.682 80.9193C233.771 80.1705 233.818 79.6988 233.818 79.5043L233.571 79.0244L233.818 78.6231L233.898 77.957L233.843 77.5019L234.009 77.1005L233.843 76.5668L234.141 76.1945L234.175 75.9545V73.712L234.255 72.566L234.175 72.3508V70.5635L234.336 68.9623C235.084 68.7844 235.416 68.6934 235.326 68.6934C235.611 68.6934 235.845 68.8465 236.023 69.1485L236.079 69.3637L236.482 69.765L236.372 70.3235V70.4311C236.321 70.7704 236.257 70.9938 236.181 71.0972L236.261 71.6558L236.372 72.1647L236.181 72.7232C236.181 73.0252 236.134 73.3024 236.045 73.5507C236.045 73.6417 236.028 73.7824 235.989 73.9768L235.96 74.1382L236.181 74.4319L236.1 74.7257C236.155 74.8664 236.181 74.9657 236.181 75.0194C236.181 75.127 236.134 75.2677 236.045 75.4456L236.1 75.6856L235.934 76.5379V77.0964L235.743 77.6549L235.853 78.1638L235.743 79.3388L235.824 79.4712L235.688 80.0836L235.632 80.8324C235.594 80.94 235.577 81.0021 235.577 81.0186C235.577 81.3206 235.569 81.5689 235.552 81.7675L235.632 82.1398V82.5412L235.798 82.8887L235.773 83.0211C235.883 83.1121 235.981 83.2528 236.074 83.4472H236.321L236.678 83.5548L236.839 83.3397L237.086 83.3149C237.196 83.2776 237.277 83.2611 237.332 83.2611H237.413C237.596 83.2238 237.74 83.1369 237.851 82.9921L238.012 82.9135C238.14 82.7191 238.348 82.5825 238.641 82.5122C238.731 82.4419 238.905 82.2971 239.16 82.0861C239.16 81.8378 239.313 81.6516 239.623 81.5275C239.895 81.5275 240.078 81.482 240.167 81.3951C240.533 81.4489 240.762 81.5399 240.864 81.6765C240.962 81.8089 241.013 82.0654 241.013 82.4377L241 82.4419Z" fill="white"/>
</g>
<defs>
<clipPath id="clip0_712_360">
<rect width="160" height="44" fill="white" transform="translate(45)"/>
</clipPath>
<clipPath id="clip1_712_360">
<rect width="241" height="30" fill="white" transform="translate(0 66)"/>
</clipPath>
</defs>
</svg>
