<svg width="74" height="411" viewBox="0 0 74 411" fill="none" xmlns="http://www.w3.org/2000/svg">
<path d="M16.16 6.03366V0.973663H21.02C21.02 3.69366 20.98 6.36366 21.02 8.05366C22.5 19.4937 28.35 28.1837 37.69 33.5737L34.19 38.3537C28.14 34.4837 21.63 25.4237 19.99 13.6137C18.3 26.4937 11.55 34.2337 1.43002 38.2737L0.52002 36.7137C13.03 29.0537 16.16 17.4937 16.16 6.04366V6.03366Z" fill="#8DC21F"/>
<path d="M36.86 86.8937V89.4037H1.62996V86.8937H17.23V76.7237H5.53996V74.4137H17.23V65.6837H9.19996C7.38996 69.1037 5.12996 72.1037 2.60996 74.3337L1.32996 73.2237C4.57996 68.4937 6.88996 62.3537 8.07996 54.9037L12.77 56.0937C12.19 58.6037 11.33 61.1137 10.26 63.4637H17.22V53.3337H21.71V63.4637H34.14V65.6837H21.71V74.4137H33.24V76.7237H21.71V86.8937H36.86Z" fill="#8DC21F"/>
<path d="M10.13 138.154C10.13 142.064 6.22004 143.174 0.660044 140.374L0.950044 138.804C5.73004 139.384 6.14004 139.014 6.14004 137.114V126.904C4.82004 127.684 3.51004 128.424 2.19004 129.084L0.420044 125.004C2.03004 124.554 4.04004 123.894 6.14004 123.074V114.104H0.910044V112.004H6.13004V104.144H10.12V112.004H14.03V114.104H10.12V121.344C11.11 120.894 12.06 120.394 12.96 119.864L13.78 121.224C12.59 122.334 11.35 123.324 10.12 124.274V138.144L10.13 138.154ZM37.79 137.994L36.06 142.234C33.71 141.694 27.54 139.434 24.94 133.264C22.31 139.564 16.54 141.784 10.57 142.524L10.12 141.044C15.88 139.684 19.42 137.054 21.15 132.354H11.69V130.254H21.73C22.02 128.974 22.22 127.584 22.31 126.054L26.43 126.304C26.35 127.744 26.18 129.064 25.9 130.254H36.97V132.354H26.43C29.48 136.424 34.99 137.544 37.79 137.994ZM20.05 103.664L24.12 105.024C23.63 105.974 23.13 106.834 22.68 107.614H26.71L27.66 106.954L31.49 108.844C30.38 110.574 28.57 112.754 26.96 114.234H34.99V128.474H31.12V123.574L28.69 126.044C27.46 124.194 26.22 122.624 24.86 121.144C23.38 123.324 21.53 125.014 19.22 126.454L18.64 125.714V128.594H14.85V116.244C14.27 116.654 13.7 117.024 13.08 117.434L12.09 116.154C15.63 113.144 18.47 108.704 20.04 103.644L20.05 103.664ZM17.37 114.244H24.45C25.44 112.594 26.26 110.824 26.55 109.674H21.32C20.04 111.524 18.77 112.964 17.37 114.244ZM23.3 116.304H18.65V124.704C20.91 122.444 22.31 119.804 23.3 116.304ZM31.12 116.304H24.45L26.92 117.044C26.59 117.944 26.22 118.774 25.81 119.514C27.99 120.744 29.76 122.104 31.12 123.424V116.304Z" fill="#8DC21F"/>
<path d="M36.3299 186.124C34.8499 185.674 33.1199 184.894 31.3499 183.904V188.764C31.3499 192.714 27.5999 193.624 22.2099 190.824L22.5399 189.134C26.8199 189.794 27.4399 189.544 27.4399 187.654V184.074H21.0599V193.954H16.8999V184.074H10.9699V192.304H7.05994V183.744C5.07994 184.814 2.97994 185.674 0.719941 186.254L0.189941 184.734C4.21994 183.134 7.59994 180.654 10.0299 177.984H1.16994V175.924H11.7099C12.1999 175.224 12.6199 174.524 12.9899 173.864H6.23994V163.654H31.8399V173.864H17.5099C17.1799 174.524 16.7699 175.224 16.2799 175.924H37.0299V177.984H26.9899C29.9899 180.124 34.5199 181.444 38.0199 181.934L36.3299 186.134V186.124ZM10.7699 160.314H0.639941V158.214H10.7599V155.664H14.8399V158.214H22.9899V155.664H27.0599V158.214H37.3899V160.314H27.0599V162.864H22.9899V160.314H14.8399V162.864H10.7599V160.314H10.7699ZM28.4299 181.964C26.9499 180.814 25.6299 179.494 24.6399 177.974H14.6299C13.3499 179.374 11.7499 180.734 9.97994 181.964H16.8999V179.124H21.0599V181.964H28.4299ZM10.2799 167.684H27.7599V165.704H10.2699V167.684H10.2799ZM10.2799 171.804H27.7599V169.704H10.2699V171.804H10.2799Z" fill="#8DC21F"/>
<path d="M9.69001 227.484V255.764H5.50001V235.014C4.22001 236.864 2.91001 238.434 1.67001 239.544L0.390015 238.354C3.56001 233.904 6.65001 225.794 8.21001 217.274L12.74 218.384C12.08 221.514 10.97 224.604 9.69001 227.484ZM37.8 223.164H34.22V251.324C34.22 255.394 30.02 257.864 21.46 253.014L21.95 251.364C28.74 252.644 29.98 252.144 29.98 249.804V223.174H12.7V221.074H37.81V223.174L37.8 223.164ZM26.77 243.664H17.71V246.674H13.76V228.814H26.77V243.674V243.664ZM22.9 230.904H17.71V241.564H22.9V230.904Z" fill="#8DC21F"/>
<path d="M15.93 291.874C12.43 298.004 6.78996 303.524 1.02996 306.444L0.0799561 304.964C4.93996 301.014 9.25996 295.534 12.02 289.564L15.93 291.874ZM1.43996 293.934L0.449956 292.534C4.68996 288.874 8.63996 283.934 11.15 278.704L14.9 280.924C11.81 286.074 6.37996 291.214 1.43996 293.934ZM1.68996 282.454L0.659956 281.134C4.03996 277.964 7.28996 273.604 9.46996 268.954L13.17 270.934C10.37 275.334 6.24996 279.624 1.68996 282.464V282.454ZM22.19 298.464L25.36 300.814C21.82 303.534 15.15 306.574 10.95 307.524L10.25 305.924C13.79 304.564 18.36 301.434 21.4 298.474H16.5V278.014H23.54C23.83 276.574 24.08 274.724 24.2 273.324H14.82V271.224H37.05V273.324H28.9C27.91 275.054 26.8 276.824 25.9 278.014H34.91V298.474H22.19V298.464ZM20.67 284.014H30.75V280.104H20.67V284.014ZM20.67 290.144H30.75V286.074H20.67V290.144ZM20.67 296.404H30.75V292.204H20.67V296.404ZM38.12 303.564L35.49 307.434C33.23 305.334 29.64 302.614 26.56 300.474L27.34 298.744C31.09 299.854 34.54 301.374 38.13 303.564H38.12Z" fill="#8DC21F"/>
<path d="M37.93 352.804L36.45 357.414C31.26 357.664 26.28 357.784 21.05 357.704C12.12 357.624 7.84002 354.744 5.78002 349.844C5.00002 353.674 3.68002 356.764 1.75002 358.944L0.27002 358.034C2.20002 353.914 3.07002 348.364 2.82002 339.384L6.65002 339.464C6.69002 342.054 6.57002 344.444 6.28002 346.624C7.02002 348.064 7.76002 349.214 8.59002 350.124V336.374H1.34002V334.314H8.09002V328.834H2.28002V326.814H8.08002V320.924H12.16V326.814H17.43V328.834H12.16V334.314H18.29V336.374H12.61V342.264H17.26V344.284H12.61V352.764C14.83 353.504 17.55 353.624 21.01 353.624C28.01 353.624 33.69 353.254 37.93 352.804ZM25.54 344.904H18.46V342.804H25.54V338.684H19.61V336.624H35.5V338.684H29.53V342.804H36.77V344.904H29.53V352.764H25.54V344.904ZM35.46 333.994H19.61V322.554H35.46V333.994ZM31.63 324.564H23.44V327.194H31.63V324.564ZM31.63 329.134H23.44V331.974H31.63V329.134Z" fill="#8DC21F"/>
<path d="M36.18 397.234C35.56 397.024 34.95 396.824 34.37 396.574V410.814H30.46V408.224H22.19V410.854H18.24V396.484C17.05 397.024 15.77 397.434 14.45 397.844L13.83 396.234C18.07 394.424 21.53 392.114 24.2 389.234C22.51 387.344 21.15 385.244 20.16 383.144C19.13 384.544 17.98 385.824 16.7 386.934L15.63 385.864V387.424H11.51V392.574H16.49V394.674H11.51V403.194C13.32 402.694 14.97 402.164 16.29 401.674L16.91 403.284C14.28 405.174 5.99999 408.674 1.30999 409.994L-0.0100098 405.464C0.68999 405.384 1.42999 405.304 2.20999 405.174V391.384H5.70999V404.554C6.36999 404.434 6.98999 404.264 7.63999 404.144V387.434H2.46999V374.674H15.64V385.664C18.15 382.164 19.59 377.304 20.58 372.454L24.94 373.814C24.53 375.004 24.08 376.164 23.54 377.274H29.63L30.49 376.534L34.73 378.554C33.41 382.594 31.44 386.084 28.84 389.054C31.68 390.744 34.89 391.854 38.18 392.674L36.16 397.244L36.18 397.234ZM11.93 376.734H6.21999V385.384H11.94V376.734H11.93ZM34.12 396.454C31.16 395.224 28.56 393.494 26.38 391.474C24.07 393.494 21.4 395.134 18.35 396.454H34.12ZM26.05 387.074C27.7 384.764 28.93 382.214 29.75 379.334H22.55C22.18 380.074 21.77 380.774 21.31 381.474C22.63 383.734 24.23 385.544 26.04 387.074H26.05ZM30.46 398.514H22.19V406.134H30.46V398.514Z" fill="#8DC21F"/>
<path d="M72.36 2.03366V19.9737H70.34V18.9837H58.1V20.0337H56.08V2.03366H72.36ZM70.34 3.06366H58.1V17.9537H70.34V3.06366ZM58.89 16.3137L58.3 14.5537C60.4 14.2137 62.81 13.5237 64.39 12.9537L64.67 13.6837C63.17 14.6537 60.77 15.7437 58.89 16.3137ZM64.37 6.99366H58.46V5.98366H64.33C64.31 5.17366 64.29 4.34366 64.29 3.55366H66.03C66.03 4.38366 66.03 5.19366 66.07 5.98366H67.83C67.45 5.17366 66.92 4.22366 66.56 3.59366L67.21 3.12366C67.86 3.61366 68.81 4.60366 69.31 5.32366L68.34 5.97366H69.98V6.98366H66.12C66.2 8.64366 66.36 10.1637 66.59 11.4137C67.1 10.3437 67.46 9.14366 67.72 7.81366L69.36 8.38366C68.85 10.2437 68.13 11.9437 67.12 13.4037C67.44 14.2737 67.85 14.8637 68.33 15.0637C68.74 15.2237 68.8 14.3937 68.82 12.2737H69.63C70.44 16.3637 69.65 17.3937 68.34 17.1237C67.25 16.9037 66.46 16.0937 65.87 14.8937C64.82 15.9637 63.54 16.8537 61.99 17.5237L61.61 16.8137C63.19 15.8637 64.42 14.7937 65.35 13.5337C64.78 11.6937 64.52 9.36366 64.4 6.98366L64.37 6.99366ZM59.01 12.6937V8.26366H63.78V12.6937H59.01ZM60.59 11.7637H62.23V9.19366H60.59V11.7637Z" fill="#717071"/>
<path d="M57.35 45.0337L57.53 44.2437C58.87 44.5037 59.07 44.2637 58.97 42.6237C58.91 41.3337 58.65 40.0937 57.76 38.4137C58.08 37.1637 58.47 34.9137 58.65 33.1537H57.36V50.0037H55.46V31.7237L57.28 32.1837H58.51L59 31.8637L60.84 32.6337C60.01 35.1837 59.2 37.2237 58.53 38.2937C59.78 39.7537 60.57 41.3437 60.71 43.0637C60.93 45.5337 59.31 46.3437 57.35 45.0237V45.0337ZM59.33 49.1037L58.82 48.4537C60.13 47.3037 61.63 45.4437 62.48 43.5137L64.36 44.4637C63.13 46.3637 60.82 48.2237 59.32 49.0937L59.33 49.1037ZM59.29 37.7937C60.71 35.7737 61.52 33.4237 62 30.9737L63.8 31.4137C63.66 31.8837 63.48 32.3837 63.27 32.9137H64.34L64.81 32.6137L66.47 33.2837C65.94 35.5037 65.09 37.4537 63.88 39.0237H69.22C67.74 37.2837 66.67 34.8937 66.1 31.2537L66.93 31.1137C67.09 31.9037 67.29 32.6337 67.54 33.2837L67.52 32.4737H69.99L70.54 32.1537L72.3 33.1637C71.21 34.9437 70.42 35.8137 69.47 36.5837C70.46 37.7137 71.61 38.5437 72.85 39.2337L71.56 41.1337C70.75 40.5637 70.02 39.9437 69.36 39.1737V40.0237H63.39V39.6337C62.66 40.4637 61.81 41.1737 60.86 41.7637L60.42 41.0737C61.27 40.3437 61.98 39.5137 62.56 38.6237C62.14 38.0537 61.55 37.3937 61.08 36.8837C60.69 37.4137 60.27 37.8937 59.83 38.3037L59.3 37.7937H59.29ZM67.32 47.8637C67.34 50.2737 65.1 50.7337 62.3 48.6337L62.6 47.8637C64.97 48.5337 65.29 48.4337 65.29 47.3337V42.9237H61.16V41.9137H71.88V42.9237H67.31V47.8637H67.32ZM63.25 37.4037C63.41 37.1037 63.55 36.7937 63.67 36.4937C63.2 36.0537 62.64 35.5837 62.15 35.2437C61.95 35.5837 61.74 35.9337 61.52 36.2537C62.09 36.5737 62.73 36.9837 63.24 37.4037H63.25ZM62.84 33.8837C62.74 34.1037 62.64 34.3137 62.52 34.5337C63.03 34.7137 63.63 34.9637 64.14 35.2237C64.28 34.7737 64.38 34.3337 64.46 33.8837H62.84ZM67.59 33.4437C67.95 34.3737 68.38 35.1837 68.88 35.8737C69.43 35.0637 69.77 34.3137 70.07 33.4437H67.58H67.59ZM72.97 47.4637L71.29 48.9037C70.68 47.8337 69.23 45.6837 68.03 44.2137L68.62 43.6037C70.24 44.6737 72.14 46.3937 72.97 47.4637Z" fill="#717071"/>
<path d="M60.97 68.8837V79.2637H58.91V70.0037C58.12 71.8037 56.77 73.9437 55.59 75.1037L54.96 74.5137C56.23 72.6737 57.79 69.8237 58.56 66.0137H55.79V64.9637H58.91V60.5537H60.97V64.9637H63.5V66.0137H60.97V67.4137C62 68.2437 63.3 69.4937 64.09 70.6537L62.51 71.8637C62.09 70.8937 61.5 69.8237 60.97 68.8937V68.8837ZM71.73 75.1937C70.52 73.6137 69.5 71.1837 68.88 68.8237V79.3437H66.82V69.5337C65.91 71.6137 64.25 74.0637 62.51 75.5437L61.9 74.9337C63.56 72.9337 65.48 69.9537 66.41 65.9937H63.96V64.9637H66.81V60.5537H68.87V64.9637H72.29V65.9937H68.97C69.9 69.3337 71.7 71.9237 73.46 73.5137L71.72 75.1937H71.73Z" fill="#717071"/>
<path d="M71.48 91.8137V106.884H69.3V104.764H59.13V106.984H56.97V91.8137H71.49H71.48ZM69.3 92.9437H59.13V103.644H69.3V92.9437Z" fill="#717071"/>
<path d="M73.46 134.834L72.85 137.464C70.87 137.744 69.11 137.784 66.66 137.664C60.83 137.384 59.92 133.074 59.22 133.074C58.71 133.074 57.95 135.424 57.18 138.194L55 137.144C56.48 134.154 57.99 131.644 59.13 131.644C59.59 131.644 60.02 132.234 60.71 132.964C63.5 131.064 66.58 128.044 68.17 125.134H56.07V123.904H63.21C62.12 122.544 61.05 121.354 59.99 120.264L60.52 119.534C61.96 120.204 64.08 121.514 65.35 122.724L64.18 123.894H68.21L69.12 123.264L71.53 124.744C68.64 129.134 65.1 131.804 61.46 133.644C62.51 134.554 64.11 135.424 66.76 135.484C69.29 135.544 71.37 135.304 73.48 134.834H73.46Z" fill="#717071"/>
<path d="M73.35 164.774L72.16 167.014C69.53 165.884 66.68 163.614 65.2 161.514V167.744H63.06V162.124C61.3 164.004 58.21 166.064 55.43 167.014L55.09 166.204C57.52 165.034 60.41 162.704 62.09 160.314H57.64V153.884H63.06V152.304H55.8V151.084H63.06V148.864H65.2V151.084H72.56V152.304H65.2V153.884H70.64V160.314H65.6C67.52 162.294 70.56 163.794 73.35 164.764V164.774ZM59.7 156.564H63.06V154.904H59.7V156.564ZM59.7 159.294H63.06V157.554H59.7V159.294ZM65.2 154.904V156.564H68.6V154.904H65.2ZM68.6 157.554H65.2V159.294H68.6V157.554Z" fill="#717071"/>
<path d="M58.74 193.084C58.74 196.304 58.7 201.074 55.71 204.334L55.08 203.854C56.62 200.924 56.72 198.894 56.72 192.404V187.674H65.52C64.33 187.024 63.11 186.484 62.06 186.034L62.24 185.204C63.72 185.324 65.74 185.744 67.26 186.294L66.57 187.674H72.92V188.704H58.74V193.094V193.084ZM64.22 199.434C62.83 200.544 60.44 201.884 58.9 202.504L58.11 200.564C59.85 200.244 62.36 199.414 63.85 198.724L64.21 199.434H64.22ZM73.36 201.214L72.31 203.344C70.81 202.654 68.1 201.034 66.36 198.184V202.434C66.36 204.534 63.95 204.984 60.86 203.324L61.04 202.534C63.95 202.954 64.32 202.734 64.32 201.724V195.884H59.93V194.894H64.32V193.574H58.92V192.564H64.32V191.294H60.05V190.284H64.32V188.894H66.36V190.284H70.81V192.554H72.87V193.564H70.81V195.894H66.36V196.444C66.95 197.314 67.61 198.044 68.34 198.644C69.07 198.034 69.86 197.314 70.63 196.214L72.23 197.604C71.28 198.374 70.21 198.944 69.3 199.364C70.74 200.334 72.25 200.884 73.37 201.224L73.36 201.214ZM63 197.594L61.93 199.114C61.08 198.324 59.99 197.554 59.16 196.994L59.5 196.264C60.57 196.484 61.97 197.014 63 197.594ZM66.36 192.534H68.83V191.284H66.36V192.534ZM66.36 194.884H68.83V193.564H66.36V194.884Z" fill="#717071"/>
<path d="M60.66 225.474L59.59 223.374V233.544H57.69V224.744C57.04 226.504 56.19 228.024 55.53 228.994L54.88 228.524C55.83 226.564 56.84 223.934 57.41 220.084H55.27V219.054H57.7V215.014H59.6V219.054H61.46V220.084H59.6V221.784C60.37 222.494 61.18 223.344 62.05 224.434L60.67 225.464L60.66 225.474ZM73.56 221.674L72.63 223.554C71.8 223.194 71.01 222.684 70.28 222.034V224.264H63.81V222.084C63.1 222.564 62.31 222.994 61.44 223.354L61.02 222.644C62.66 221.674 63.75 220.744 64.64 219.344H61.69V218.334H65.21C65.35 218.014 65.51 217.684 65.66 217.324C64.34 217.424 63.11 217.484 62.06 217.484L61.9 216.674C64.87 216.374 68.17 215.764 70.42 214.834L71.96 216.334C70.73 216.654 69.31 216.904 67.87 217.084C67.73 217.504 67.55 217.934 67.32 218.334H72.86V219.344H69.18C70.7 220.734 72.19 221.264 73.57 221.674H73.56ZM61.75 225.034H72.49V231.604C72.49 233.994 70.2 234.034 67.7 232.854L67.86 232.104C70.19 232.404 70.57 232.324 70.57 231.134V226.034H63.67V233.574H61.75V225.014V225.034ZM69.6 231.064H64.54V226.994H69.6V231.064ZM65.49 220.724H69.05C68.75 220.294 68.42 219.854 68.14 219.344H66.68C66.34 219.834 65.95 220.274 65.49 220.724ZM68.54 221.714H65.49V223.274H68.54V221.714ZM68.03 227.944H66.09V230.114H68.03V227.944Z" fill="#717071"/>
<path d="M72.63 254.834V263.164H70.45V261.664H63.09V263.224H60.95V256.714C59.21 257.364 57.53 257.804 56.06 258.134L55.84 257.264C62.17 255.324 66.9 252.044 69.37 247.894H63.97C63.4 248.464 62.8 248.984 62.17 249.494C63.1 250.034 64.13 250.804 65 251.614L63.26 253.194C62.61 252.124 61.9 251.114 61.16 250.204C59.8 251.154 58.33 251.904 56.91 252.474L56.5 251.704C59.76 249.804 62.35 247.094 64.03 244.124L66.21 245.174C65.83 245.764 65.4 246.324 64.94 246.874H69.39L70.22 246.404L72.41 247.684C70.59 250.924 67.88 253.204 65.01 254.844H72.66L72.63 254.834ZM70.45 260.634V255.844H63.09V260.634H70.45Z" fill="#717071"/>
<path d="M62.77 276.434V273.944H65.16C65.16 275.274 65.14 276.594 65.16 277.424C65.89 283.044 68.76 287.314 73.35 289.964L71.63 292.314C68.66 290.414 65.46 285.964 64.65 280.154C63.82 286.484 60.5 290.284 55.53 292.274L55.09 291.504C61.24 287.744 62.78 282.054 62.78 276.434H62.77Z" fill="#717071"/>
<path d="M60.95 312.414H65.6C65.46 315.604 65.28 318.154 64.99 319.674C64.55 322.044 62.1 322.264 59.69 320.444L59.99 319.614C62.52 320.264 62.86 320.024 63.06 318.724C63.26 317.474 63.4 315.874 63.49 313.444H60.84C60.41 317.344 59.2 320.034 56.15 321.954L55.62 321.264C58.05 318.814 58.76 316.204 58.92 310.584H56.86V304.234H65.36V310.584H61.03C61.03 311.214 60.99 311.814 60.95 312.404V312.414ZM58.83 309.544H63.4V305.294H58.83V309.544ZM72.81 303.214V319.514C72.81 322.124 70.36 322.674 66.9 320.624L67.16 319.814C70.15 320.384 70.78 320.254 70.78 319.184V303.204H72.8L72.81 303.214ZM68.89 316.984H66.99V305.274H68.89V316.984Z" fill="#717071"/>
<path d="M59.22 342.874V341.374H55.82V340.364H59.22V339.154H56.11V333.494H64.26V339.154H61.14V340.364H64.38V341.374H61.14V342.734C62.52 342.614 63.87 342.474 65.14 342.314L65.28 343.064C63.5 343.654 58.26 344.704 55.55 344.924L55.23 343.064C56.5 343.044 57.84 342.984 59.21 342.884L59.22 342.874ZM65.15 349.874H72.88V350.904H55.38V349.874H63.03V347.484H56.86V346.454H63.03V344.474H65.15V346.454H71.36V347.484H65.15V349.874ZM57.89 335.874H59.29V334.484H57.89V335.874ZM59.29 338.144V336.764H57.89V338.144H59.29ZM61.11 335.874H62.49V334.484H61.11V335.874ZM61.11 338.144H62.49V336.764H61.11V338.144ZM67.58 338.854H64.61V337.844H68.64C67.85 337.134 66.88 336.364 66.01 335.704L66.35 335.014C67.1 335.294 67.93 335.664 68.7 336.064C69.1 335.624 69.53 335.094 69.87 334.484H65.1V333.514H69.91L70.54 333.174L72.36 334.424C71.39 335.354 70.52 336.024 69.61 336.564C69.87 336.704 70.14 336.864 70.36 337.024L69.71 337.834H70.96L71.49 337.474L73.21 338.504C72.26 339.924 71.27 341.054 70.58 341.634L69.95 341.164C70.27 340.534 70.7 339.674 70.96 338.834H69.48V343.164C69.48 344.844 67.74 345.244 65.27 344.214L65.45 343.424C67.31 343.644 67.57 343.504 67.57 342.614V338.834L67.58 338.854Z" fill="#717071"/>
<path d="M63.21 378.404L61.45 379.414C60.98 378.164 60.5 377.134 59.93 376.054C58.84 377.954 57.2 379.354 55.76 380.044L55.25 379.354C56.83 377.964 58.2 375.894 58.79 373.024L60.93 373.574C60.81 374.084 60.65 374.564 60.44 375.034C61.57 376.064 62.52 377.204 63.19 378.414L63.21 378.404ZM57.38 368.954V363.434H55.96V362.424H65.49V363.434H64.26V370.984H62.3V369.484C59.93 370.274 57.71 370.634 56.19 370.814L55.81 368.974C56.32 368.974 56.84 368.974 57.39 368.954H57.38ZM65.23 372.534V380.564H63.21V372.674C60.52 372.814 57.97 372.814 56.6 372.754L56.5 371.924C61.31 371.724 66.47 371.174 69.53 369.984L71.29 371.624C69.71 372.064 67.51 372.354 65.24 372.534H65.23ZM59.34 364.524H62.29V363.434H59.34V364.524ZM59.34 366.584H62.29V365.474H59.34V366.584ZM59.34 368.834C60.25 368.774 61.22 368.674 62.29 368.534V367.564H59.34V368.844V368.834ZM65.04 363.454H69.77L70.38 363.114L72.08 363.964C71.62 365.294 70.89 366.574 69.88 367.644C70.89 368.194 72 368.514 73.01 368.794L72.1 370.734C71.11 370.414 69.81 369.764 68.64 368.734C67.57 369.564 66.27 370.194 64.76 370.594L64.48 369.824C65.8 369.234 66.85 368.534 67.68 367.744C66.93 366.854 66.3 365.764 65.96 364.444H65.05V363.454H65.04ZM71.59 379.594C70.86 378.234 70.07 377.104 69.32 376.114C68.49 377.834 67.32 379.104 65.88 379.814L65.37 379.144C67.05 377.584 67.72 375.424 68.16 372.734L70.28 373.244C70.14 373.914 69.96 374.554 69.73 375.144C70.98 376.034 72.32 377.204 73.15 378.344L71.57 379.594H71.59ZM66.78 364.444C67.22 365.434 67.85 366.184 68.56 366.774C69.15 366.024 69.57 365.254 69.87 364.444H66.78Z" fill="#717071"/>
<path d="M60.07 394.414H55.3V393.384H60.07V391.564H62.07V393.384H66.24V391.564H68.24V393.384H73.0501V394.414H68.24V396.114H66.24V394.414H62.07V396.174H60.07V394.414ZM60.1501 402.164C59.3801 405.284 58.4101 408.274 57.5401 410.214L55.44 408.984C56.69 407.284 58.2701 404.374 59.3601 401.864L60.1501 402.164ZM56.1301 398.464C57.2001 399.054 58.4201 400.044 59.2701 400.854L57.7701 402.224C57.1601 401.154 56.31 400.004 55.59 399.054L56.14 398.464H56.1301ZM59.6101 399.234C59.0001 398.204 58.05 396.904 57.43 396.074L57.98 395.464C59.01 396.034 60.27 396.984 61.1 397.854L59.62 399.234H59.6101ZM72.3701 404.834C71.8401 404.734 71.3401 404.634 70.8301 404.494V410.154H68.8301V409.084H64.32V410.334H62.34V404.754C61.67 404.954 60.9601 405.134 60.2201 405.284L59.96 404.454C62.21 403.804 64.03 402.834 65.46 401.664C64.83 401.054 64.27 400.374 63.8 399.564C63.05 400.634 62.16 401.584 61.09 402.394L60.5201 401.804C62.1401 399.984 63.0901 397.694 63.7401 395.254L65.64 395.884C65.5 396.264 65.36 396.674 65.17 397.054H68.3701L68.92 396.714L70.8001 397.744C70.0101 399.324 69.08 400.574 68.03 401.604C69.63 402.254 71.41 402.614 73.17 402.834L72.38 404.834H72.3701ZM70.06 404.264C68.87 403.884 67.7301 403.374 66.7201 402.664C65.8101 403.314 64.82 403.834 63.75 404.264H70.06ZM66.4001 400.764C67.1901 399.934 67.8401 399.004 68.3001 398.034H64.7L64.25 398.824C64.86 399.614 65.59 400.244 66.39 400.764H66.4001ZM68.8301 405.294H64.32V408.064H68.8301V405.294Z" fill="#717071"/>
</svg>
