<svg viewBox="0 0 223 40" fill="#3F2F8E" xmlns="http://www.w3.org/2000/svg">
<path d="M202.6,0.4H19.4c-25.9,0-25.9,38.9,0,38.9h183.2C228.4,39.3,228.4,0.4,202.6,0.4z"/>
<path fill="#F5E929" d="M22.7,20.1c-6.2-3.7-4.4-13.2,5-13.2c8.4,0,11,8.7,4.4,12.7c6.9,3,6.3,14.8-4.7,14.8
	C16.6,34.4,15.9,23.6,22.7,20.1z M27,22.2c-3.8,1.8-3.2,8.2,0.8,8.2C29.7,30.4,32.9,25.1,27,22.2z M27.9,17.8c4-2.4,1.9-7-0.4-7
	C24.4,10.8,23.3,16.1,27.9,17.8z M44.4,34V12.8c-0.1-0.1-4.6,2.4-4.7,2.4l-1.4-4.5l6.8-3.4h5.2V34H44.4L44.4,34z M60,20.1
	c-6.2-3.7-4.4-13.2,5-13.2c8.4,0,11,8.7,4.4,12.7c6.9,3,6.3,14.8-4.7,14.8C53.9,34.4,53.2,23.6,60,20.1z M64.3,22.2
	c-3.8,1.8-3.2,8.2,0.8,8.2C67,30.4,70.2,25.1,64.3,22.2z M65.2,17.8c4-2.4,1.9-7-0.4-7C61.7,10.8,60.6,16.1,65.2,17.8z M92.9,10.6
	h4.9v2.9h-4.9v0.7h-3.5v-0.7h-5.2v0.7h-3.5v-0.7h-4.8v-2.9h4.8V9.2L85,9.4c0,0.3-0.2,0.4-0.7,0.5v0.7h5.2V9.2l4.2,0.2
	c0,0.3-0.2,0.4-0.7,0.5L92.9,10.6L92.9,10.6z M96.8,23c-0.6,3.4,2.2,10-4,9.3c-0.1-0.6-0.3-1.3-0.5-1.9l-2.2,0.5
	c0-0.3-0.1-0.6-0.1-1c-2.9,0.2-5.8,0.5-7.7,0.6c-0.1,0.2-0.3,0.4-0.5,0.4l-1-3.4c1.2,0,2.7,0,4.4-0.1v-1.6h-4.6v6.5h-3.4V23h7.9
	v-0.6h-6v-7.9H95v7.9h-6.4V23L96.8,23L96.8,23z M82.5,16.8v0.7h2.7v-0.7H82.5z M82.5,20.2h2.7v-0.7h-2.7V20.2z M91.5,17.4v-0.7h-2.9
	v0.7H91.5z M91.5,20.2v-0.7h-2.9v0.7H91.5z M88.5,27.4l0.8,0c-0.1-0.3-0.2-0.7-0.3-0.9l2.3-0.5h-2.7V27.4L88.5,27.4z M91.6,25.9
	c0.5,1.1,1,2.5,1.2,3.6c1.2,0.5,0.4-3.2,0.6-3.6C93.4,25.9,91.6,25.9,91.6,25.9z M107.7,24.6v3.3c2.5,0.8,12.1,0.4,15.4,0.3
	c-0.5,0.8-1.1,2.4-1.3,3.5c-13.3,0-15.7,0.3-18.6-3.1c-0.2,1.5-0.6,2.9-1,4c-0.6-0.4-1.9-1.1-2.8-1.4c1-2.4,1.2-6.7,1.3-10.8
	l3.7,0.5c-0.1,0.2-0.2,0.4-0.6,0.4c0,2.1-0.4,2.1,0.7,4v-6h-4.6v-3.1h4.5v-1.8h-3.8v-3.1h3.8V9.1l4,0.2c0,0.3-0.2,0.4-0.7,0.5v1.6h3
	v3.1h-3v1.8h3.6v3.1h-3.6v2.2h3.2v3.1H107.7L107.7,24.6z M112.1,16.4h5.8h0v-3.3h-6.4V10h9.8v10.2h-3.4v-0.8h-2.4
	c0,4.6-0.2,4.8,1,4.8c2.8,0,3.2,0.6,3.2-3c0.7,0.5,2.2,1.1,3.1,1.3c-0.6,5.2-1.7,4.9-6.7,4.9c-3.8,0-3.9-1.9-3.9-5V16.4z
	 M135.8,27.1h7.9v4.6h0h-15v-3.4c16.1-14.6,6.9-18.7,1.7-14.5l-1.4-4C139.4,3.2,151.6,13.4,135.8,27.1z M146.5,20.2h8.3v3.7h-8.3
	V20.2z M167.2,19c10.2,4,2.1,17.2-10.2,11.6l1.1-4.1c8.6,4.9,12.2-6.3,2.3-5.4v-3.8c8.5,0.6,6-8.6-1.6-4.1l-1-3.9
	C169.7,3.4,175.4,14.9,167.2,19z M203.4,24h-12.1c-0.1,0.4-0.2,0.9-0.2,1.3c2.3,0.1,7.3-0.3,9.5,0.3c-0.7,7.5-0.8,9.6-8,9
	c-0.1-1.1-0.5-2.7-1.1-3.7c2.6-0.1,4,1.2,4.3-2.2h-5.8c-1.1,2.4-3.3,4.4-7.8,5.9c-0.3-0.9-1.2-2.2-2-3.1c-0.5,1.1-1.2,2-1.9,2.9
	c-0.8-0.7-2.8-2-3.9-2.5c5.1-6,3.5-13.8,3.8-20.5h22.5v7.8h-6.7c-0.1,0.2-0.4,0.3-0.8,0.4v1h10.3L203.4,24L203.4,24z M203.2,6.5v4
	h-27.8v-4H203.2z M182.3,24c-0.3,2.3-0.9,4.7-1.8,6.8c4.8-1.4,5.9-3.7,6.3-6.8H182.3z M188.6,20.6v-1.5h-6c0,0.5,0,1-0.1,1.5H188.6z
	 M196.2,14.6h-13.6v1.3h13.6V14.6z"/>
</svg>
