<svg width="460" height="273" viewBox="0 0 460 273" fill="none" xmlns="http://www.w3.org/2000/svg">
<path d="M48.3801 237.2H45.0901V236.01H53.1001V237.2H49.7901V246.83H48.3801V237.2Z" fill="#231815"/>
<path d="M55.1101 235.43H56.5201V240.28H56.5501C56.7701 239.88 57.1301 239.53 57.5601 239.28C57.9801 239.04 58.4801 238.88 59.0001 238.88C60.0401 238.88 61.7101 239.52 61.7101 242.2V246.82H60.3001V242.36C60.3001 241.11 59.8301 240.05 58.5001 240.05C57.5801 240.05 56.8601 240.69 56.6101 241.46C56.5301 241.65 56.5101 241.86 56.5101 242.13V246.82H55.1001V235.42L55.1101 235.43Z" fill="#231815"/>
<path d="M65.7702 243.2C65.8002 245.11 67.0202 245.9 68.4302 245.9C69.4402 245.9 70.0502 245.72 70.5802 245.5L70.8202 246.51C70.3202 246.73 69.4702 246.99 68.2402 246.99C65.8502 246.99 64.4202 245.42 64.4202 243.07C64.4202 240.72 65.8002 238.88 68.0602 238.88C70.6002 238.88 71.2702 241.11 71.2702 242.54C71.2702 242.83 71.2402 243.05 71.2202 243.2H65.7602H65.7702ZM69.9102 242.19C69.9302 241.29 69.5402 239.89 67.9502 239.89C66.5202 239.89 65.9002 241.21 65.7802 242.19H69.9002H69.9102Z" fill="#231815"/>
<path d="M73.9902 241.49C73.9902 240.58 73.9702 239.79 73.9302 239.07H75.1702L75.2202 240.6H75.2802C75.6302 239.56 76.4802 238.9 77.4302 238.9C77.5902 238.9 77.7002 238.92 77.8302 238.95V240.28C77.6902 240.25 77.5402 240.23 77.3502 240.23C76.3502 240.23 75.6502 240.98 75.4602 242.04C75.4302 242.23 75.4002 242.46 75.4002 242.7V246.84H74.0002V241.49H73.9902Z" fill="#231815"/>
<path d="M80.83 243.2C80.86 245.11 82.08 245.9 83.49 245.9C84.5 245.9 85.11 245.72 85.64 245.5L85.88 246.51C85.38 246.73 84.53 246.99 83.3 246.99C80.91 246.99 79.48 245.42 79.48 243.07C79.48 240.72 80.86 238.88 83.12 238.88C85.66 238.88 86.33 241.11 86.33 242.54C86.33 242.83 86.3 243.05 86.28 243.2H80.82H80.83ZM84.97 242.19C84.99 241.29 84.6 239.89 83.01 239.89C81.58 239.89 80.96 241.21 80.84 242.19H84.96H84.97Z" fill="#231815"/>
<path d="M93.4202 235.43H94.8302V246.83H93.4202V235.43Z" fill="#231815"/>
<path d="M99.75 236.88C99.77 237.36 99.41 237.75 98.85 237.75C98.35 237.75 98 237.37 98 236.88C98 236.39 98.37 236 98.88 236C99.39 236 99.75 236.38 99.75 236.88ZM98.18 246.83V239.06H99.59V246.83H98.18Z" fill="#231815"/>
<path d="M104.6 236.83V239.06H106.62V240.14H104.6V244.33C104.6 245.29 104.87 245.84 105.66 245.84C106.03 245.84 106.3 245.79 106.48 245.74L106.54 246.8C106.27 246.91 105.83 246.99 105.29 246.99C104.63 246.99 104.1 246.78 103.77 246.4C103.37 245.98 103.22 245.29 103.22 244.38V240.14H102.02V239.06H103.22V237.2L104.6 236.83Z" fill="#231815"/>
<path d="M110.88 236.83V239.06H112.9V240.14H110.88V244.33C110.88 245.29 111.15 245.84 111.94 245.84C112.31 245.84 112.58 245.79 112.76 245.74L112.82 246.8C112.55 246.91 112.11 246.99 111.57 246.99C110.91 246.99 110.38 246.78 110.05 246.4C109.65 245.98 109.5 245.29 109.5 244.38V240.14H108.3V239.06H109.5V237.2L110.88 236.83Z" fill="#231815"/>
<path d="M115.45 235.43H116.86V246.83H115.45V235.43Z" fill="#231815"/>
<path d="M120.99 243.2C121.02 245.11 122.24 245.9 123.66 245.9C124.67 245.9 125.28 245.72 125.81 245.5L126.05 246.51C125.55 246.73 124.7 246.99 123.47 246.99C121.08 246.99 119.65 245.42 119.65 243.07C119.65 240.72 121.03 238.88 123.29 238.88C125.83 238.88 126.5 241.11 126.5 242.54C126.5 242.83 126.47 243.05 126.45 243.2H120.99ZM125.13 242.19C125.15 241.29 124.76 239.89 123.17 239.89C121.74 239.89 121.12 241.21 121 242.19H125.12H125.13Z" fill="#231815"/>
<path d="M135.28 236.83V239.06H137.3V240.14H135.28V244.33C135.28 245.29 135.55 245.84 136.34 245.84C136.71 245.84 136.98 245.79 137.16 245.74L137.22 246.8C136.95 246.91 136.51 246.99 135.97 246.99C135.31 246.99 134.78 246.78 134.45 246.4C134.05 245.98 133.9 245.29 133.9 244.38V240.14H132.7V239.06H133.9V237.2L135.28 236.83Z" fill="#231815"/>
<path d="M139.86 235.43H141.27V240.28H141.3C141.52 239.88 141.88 239.53 142.31 239.28C142.73 239.04 143.23 238.88 143.75 238.88C144.79 238.88 146.46 239.52 146.46 242.2V246.82H145.05V242.36C145.05 241.11 144.58 240.05 143.25 240.05C142.33 240.05 141.61 240.69 141.36 241.46C141.28 241.65 141.26 241.86 141.26 242.13V246.82H139.85V235.42L139.86 235.43Z" fill="#231815"/>
<path d="M156.77 242.88C156.77 245.75 154.78 247.01 152.9 247.01C150.8 247.01 149.18 245.47 149.18 243.01C149.18 240.41 150.88 238.88 153.03 238.88C155.18 238.88 156.77 240.5 156.77 242.88ZM150.61 242.96C150.61 244.66 151.59 245.95 152.97 245.95C154.35 245.95 155.33 244.68 155.33 242.93C155.33 241.61 154.67 239.94 153 239.94C151.33 239.94 150.61 241.48 150.61 242.96Z" fill="#231815"/>
<path d="M166.02 244.71C166.02 245.51 166.04 246.22 166.08 246.83H164.83L164.75 245.56H164.72C164.35 246.19 163.53 247.01 162.15 247.01C160.93 247.01 159.47 246.34 159.47 243.61V239.07H160.88V243.37C160.88 244.85 161.33 245.84 162.61 245.84C163.56 245.84 164.22 245.18 164.47 244.56C164.55 244.35 164.6 244.09 164.6 243.84V239.07H166.01V244.72L166.02 244.71Z" fill="#231815"/>
<path d="M176.02 239.06C175.99 239.62 175.96 240.25 175.96 241.19V245.7C175.96 247.48 175.61 248.57 174.85 249.25C174.1 249.96 173 250.18 172.02 250.18C171.04 250.18 170.06 249.96 169.44 249.54L169.79 248.46C170.3 248.78 171.11 249.07 172.07 249.07C173.51 249.07 174.57 248.32 174.57 246.36V245.49H174.54C174.11 246.21 173.27 246.79 172.07 246.79C170.14 246.79 168.76 245.15 168.76 243C168.76 240.37 170.48 238.87 172.26 238.87C173.61 238.87 174.35 239.58 174.68 240.22H174.71L174.77 239.05H176.01L176.02 239.06ZM174.56 242.13C174.56 241.89 174.54 241.68 174.48 241.49C174.22 240.67 173.53 240 172.51 240C171.16 240 170.2 241.14 170.2 242.94C170.2 244.46 170.97 245.73 172.49 245.73C173.36 245.73 174.14 245.18 174.45 244.28C174.53 244.04 174.56 243.77 174.56 243.53V242.13Z" fill="#231815"/>
<path d="M179.27 235.43H180.68V240.28H180.71C180.93 239.88 181.29 239.53 181.72 239.28C182.14 239.04 182.64 238.88 183.16 238.88C184.2 238.88 185.87 239.52 185.87 242.2V246.82H184.46V242.36C184.46 241.11 183.99 240.05 182.66 240.05C181.75 240.05 181.02 240.69 180.77 241.46C180.69 241.65 180.67 241.86 180.67 242.13V246.82H179.26V235.42L179.27 235.43Z" fill="#231815"/>
<path d="M190.78 236.83V239.06H192.8V240.14H190.78V244.33C190.78 245.29 191.05 245.84 191.84 245.84C192.21 245.84 192.48 245.79 192.66 245.74L192.72 246.8C192.45 246.91 192.01 246.99 191.47 246.99C190.81 246.99 190.28 246.78 189.95 246.4C189.55 245.98 189.4 245.29 189.4 244.38V240.14H188.2V239.06H189.4V237.2L190.78 236.83Z" fill="#231815"/>
<path d="M195.17 245.39C195.59 245.66 196.33 245.95 197.03 245.95C198.06 245.95 198.54 245.44 198.54 244.79C198.54 244.12 198.14 243.75 197.09 243.36C195.69 242.86 195.04 242.09 195.04 241.16C195.04 239.91 196.05 238.88 197.72 238.88C198.51 238.88 199.2 239.11 199.63 239.36L199.28 240.39C198.97 240.2 198.41 239.94 197.69 239.94C196.86 239.94 196.39 240.42 196.39 241C196.39 241.64 196.86 241.93 197.87 242.32C199.22 242.83 199.91 243.51 199.91 244.66C199.91 246.02 198.85 246.99 197 246.99C196.15 246.99 195.36 246.78 194.82 246.46L195.17 245.38V245.39Z" fill="#231815"/>
<path d="M211.35 246.83L211.24 245.85H211.19C210.76 246.46 209.92 247.01 208.81 247.01C207.24 247.01 206.43 245.9 206.43 244.78C206.43 242.9 208.1 241.87 211.1 241.89V241.73C211.1 241.09 210.92 239.93 209.33 239.93C208.61 239.93 207.85 240.15 207.31 240.51L206.99 239.58C207.63 239.16 208.56 238.89 209.54 238.89C211.92 238.89 212.49 240.51 212.49 242.07V244.98C212.49 245.65 212.52 246.31 212.62 246.84H211.34L211.35 246.83ZM211.14 242.87C209.6 242.84 207.85 243.11 207.85 244.62C207.85 245.54 208.46 245.97 209.18 245.97C210.19 245.97 210.83 245.33 211.06 244.67C211.11 244.53 211.14 244.37 211.14 244.22V242.87Z" fill="#231815"/>
<path d="M215.75 241.49C215.75 240.58 215.73 239.79 215.69 239.07H216.93L216.98 240.6H217.04C217.39 239.56 218.24 238.9 219.19 238.9C219.35 238.9 219.46 238.92 219.59 238.95V240.28C219.45 240.25 219.3 240.23 219.11 240.23C218.11 240.23 217.41 240.98 217.22 242.04C217.19 242.23 217.16 242.46 217.16 242.7V246.84H215.76V241.49H215.75Z" fill="#231815"/>
<path d="M222.59 243.2C222.62 245.11 223.84 245.9 225.26 245.9C226.27 245.9 226.88 245.72 227.41 245.5L227.65 246.51C227.15 246.73 226.3 246.99 225.07 246.99C222.68 246.99 221.25 245.42 221.25 243.07C221.25 240.72 222.63 238.88 224.89 238.88C227.43 238.88 228.1 241.11 228.1 242.54C228.1 242.83 228.07 243.05 228.05 243.2H222.59ZM226.73 242.19C226.75 241.29 226.36 239.89 224.77 239.89C223.34 239.89 222.72 241.21 222.6 242.19H226.72H226.73Z" fill="#231815"/>
<path d="M236.88 236.83V239.06H238.9V240.14H236.88V244.33C236.88 245.29 237.15 245.84 237.94 245.84C238.31 245.84 238.58 245.79 238.76 245.74L238.82 246.8C238.55 246.91 238.11 246.99 237.57 246.99C236.91 246.99 236.38 246.78 236.05 246.4C235.65 245.98 235.5 245.29 235.5 244.38V240.14H234.3V239.06H235.5V237.2L236.88 236.83Z" fill="#231815"/>
<path d="M241.46 235.43H242.87V240.28H242.9C243.12 239.88 243.48 239.53 243.91 239.28C244.33 239.04 244.83 238.88 245.35 238.88C246.39 238.88 248.06 239.52 248.06 242.2V246.82H246.65V242.36C246.65 241.11 246.18 240.05 244.85 240.05C243.94 240.05 243.21 240.69 242.96 241.46C242.88 241.65 242.86 241.86 242.86 242.13V246.82H241.45V235.42L241.46 235.43Z" fill="#231815"/>
<path d="M252.12 243.2C252.15 245.11 253.37 245.9 254.79 245.9C255.8 245.9 256.41 245.72 256.94 245.5L257.18 246.51C256.68 246.73 255.83 246.99 254.6 246.99C252.21 246.99 250.78 245.42 250.78 243.07C250.78 240.72 252.16 238.88 254.42 238.88C256.96 238.88 257.63 241.11 257.63 242.54C257.63 242.83 257.6 243.05 257.58 243.2H252.12ZM256.26 242.19C256.28 241.29 255.89 239.89 254.3 239.89C252.87 239.89 252.25 241.21 252.13 242.19H256.25H256.26Z" fill="#231815"/>
<path d="M264.71 241.49C264.71 240.58 264.69 239.79 264.65 239.07H265.89L265.94 240.6H266C266.35 239.56 267.2 238.9 268.15 238.9C268.31 238.9 268.42 238.92 268.55 238.95V240.28C268.41 240.25 268.26 240.23 268.07 240.23C267.07 240.23 266.37 240.98 266.18 242.04C266.15 242.23 266.12 242.46 266.12 242.7V246.84H264.72V241.49H264.71Z" fill="#231815"/>
<path d="M277.43 244.71C277.43 245.51 277.45 246.22 277.49 246.83H276.24L276.16 245.56H276.13C275.76 246.19 274.94 247.01 273.56 247.01C272.34 247.01 270.88 246.34 270.88 243.61V239.07H272.29V243.37C272.29 244.85 272.74 245.84 274.02 245.84C274.97 245.84 275.63 245.18 275.88 244.56C275.96 244.35 276.01 244.09 276.01 243.84V239.07H277.42V244.72L277.43 244.71Z" fill="#231815"/>
<path d="M280.55 245.39C280.97 245.66 281.71 245.95 282.41 245.95C283.44 245.95 283.92 245.44 283.92 244.79C283.92 244.12 283.52 243.75 282.47 243.36C281.07 242.86 280.42 242.09 280.42 241.16C280.42 239.91 281.43 238.88 283.1 238.88C283.89 238.88 284.58 239.11 285.01 239.36L284.66 240.39C284.35 240.2 283.79 239.94 283.07 239.94C282.24 239.94 281.77 240.42 281.77 241C281.77 241.64 282.24 241.93 283.25 242.32C284.6 242.83 285.29 243.51 285.29 244.66C285.29 246.02 284.23 246.99 282.38 246.99C281.53 246.99 280.74 246.78 280.2 246.46L280.55 245.38V245.39Z" fill="#231815"/>
<path d="M289.76 236.83V239.06H291.78V240.14H289.76V244.33C289.76 245.29 290.03 245.84 290.82 245.84C291.19 245.84 291.46 245.79 291.64 245.74L291.7 246.8C291.43 246.91 290.99 246.99 290.45 246.99C289.79 246.99 289.26 246.78 288.93 246.4C288.53 245.98 288.38 245.29 288.38 244.38V240.14H287.18V239.06H288.38V237.2L289.76 236.83Z" fill="#231815"/>
<path d="M294.34 235.43H295.75V246.83H294.34V235.43Z" fill="#231815"/>
<path d="M299.88 243.2C299.91 245.11 301.13 245.9 302.55 245.9C303.56 245.9 304.17 245.72 304.7 245.5L304.94 246.51C304.44 246.73 303.59 246.99 302.36 246.99C299.97 246.99 298.54 245.42 298.54 243.07C298.54 240.72 299.92 238.88 302.18 238.88C304.72 238.88 305.39 241.11 305.39 242.54C305.39 242.83 305.36 243.05 305.34 243.2H299.88ZM304.02 242.19C304.04 241.29 303.65 239.89 302.06 239.89C300.63 239.89 300.01 241.21 299.89 242.19H304.01H304.02Z" fill="#231815"/>
<path d="M319.5 242.88C319.5 245.75 317.51 247.01 315.63 247.01C313.53 247.01 311.91 245.47 311.91 243.01C311.91 240.41 313.61 238.88 315.76 238.88C317.91 238.88 319.5 240.5 319.5 242.88ZM313.34 242.96C313.34 244.66 314.32 245.95 315.7 245.95C317.08 245.95 318.06 244.68 318.06 242.93C318.06 241.61 317.4 239.94 315.73 239.94C314.06 239.94 313.34 241.48 313.34 242.96Z" fill="#231815"/>
<path d="M322.39 246.83V240.14H321.3V239.06H322.39V238.69C322.39 237.6 322.63 236.6 323.29 235.98C323.82 235.47 324.53 235.26 325.18 235.26C325.68 235.26 326.11 235.37 326.38 235.48L326.19 236.57C325.98 236.47 325.69 236.39 325.29 236.39C324.09 236.39 323.78 237.45 323.78 238.64V239.06H325.66V240.14H323.78V246.83H322.38H322.39Z" fill="#231815"/>
<path d="M332.27 235.43H333.68V246.83H332.27V235.43Z" fill="#231815"/>
<path d="M337.81 243.2C337.84 245.11 339.06 245.9 340.48 245.9C341.49 245.9 342.1 245.72 342.63 245.5L342.87 246.51C342.37 246.73 341.52 246.99 340.29 246.99C337.9 246.99 336.47 245.42 336.47 243.07C336.47 240.72 337.85 238.88 340.11 238.88C342.65 238.88 343.32 241.11 343.32 242.54C343.32 242.83 343.29 243.05 343.27 243.2H337.81ZM341.95 242.19C341.97 241.29 341.58 239.89 339.99 239.89C338.56 239.89 337.94 241.21 337.82 242.19H341.94H341.95Z" fill="#231815"/>
<path d="M350.33 246.83L350.22 245.85H350.17C349.74 246.46 348.9 247.01 347.79 247.01C346.22 247.01 345.41 245.9 345.41 244.78C345.41 242.9 347.08 241.87 350.08 241.89V241.73C350.08 241.09 349.9 239.93 348.31 239.93C347.59 239.93 346.83 240.15 346.29 240.51L345.97 239.58C346.61 239.16 347.54 238.89 348.52 238.89C350.9 238.89 351.47 240.51 351.47 242.07V244.98C351.47 245.65 351.5 246.31 351.6 246.84H350.32L350.33 246.83ZM350.12 242.87C348.58 242.84 346.83 243.11 346.83 244.62C346.83 245.54 347.44 245.97 348.16 245.97C349.17 245.97 349.81 245.33 350.04 244.67C350.09 244.53 350.12 244.37 350.12 244.22V242.87Z" fill="#231815"/>
<path d="M355.15 239.06L356.67 243.43C356.93 244.14 357.14 244.78 357.3 245.42H357.35C357.53 244.78 357.75 244.13 358.01 243.43L359.52 239.06H361L357.95 246.83H356.6L353.65 239.06H355.16H355.15Z" fill="#231815"/>
<path d="M363.92 243.2C363.95 245.11 365.17 245.9 366.59 245.9C367.6 245.9 368.21 245.72 368.74 245.5L368.98 246.51C368.48 246.73 367.63 246.99 366.4 246.99C364.01 246.99 362.58 245.42 362.58 243.07C362.58 240.72 363.96 238.88 366.22 238.88C368.76 238.88 369.43 241.11 369.43 242.54C369.43 242.83 369.4 243.05 369.38 243.2H363.92ZM368.06 242.19C368.08 241.29 367.69 239.89 366.1 239.89C364.67 239.89 364.05 241.21 363.93 242.19H368.05H368.06Z" fill="#231815"/>
<path d="M371.95 245.39C372.37 245.66 373.11 245.95 373.81 245.95C374.84 245.95 375.32 245.44 375.32 244.79C375.32 244.12 374.92 243.75 373.87 243.36C372.47 242.86 371.82 242.09 371.82 241.16C371.82 239.91 372.83 238.88 374.5 238.88C375.29 238.88 375.98 239.11 376.41 239.36L376.06 240.39C375.75 240.2 375.19 239.94 374.47 239.94C373.64 239.94 373.17 240.42 373.17 241C373.17 241.64 373.64 241.93 374.65 242.32C376 242.83 376.69 243.51 376.69 244.66C376.69 246.02 375.63 246.99 373.78 246.99C372.93 246.99 372.14 246.78 371.6 246.46L371.95 245.38V245.39Z" fill="#231815"/>
<path d="M385.53 236.83V239.06H387.55V240.14H385.53V244.33C385.53 245.29 385.8 245.84 386.59 245.84C386.96 245.84 387.23 245.79 387.41 245.74L387.47 246.8C387.2 246.91 386.76 246.99 386.22 246.99C385.56 246.99 385.03 246.78 384.7 246.4C384.3 245.98 384.15 245.29 384.15 244.38V240.14H382.95V239.06H384.15V237.2L385.53 236.83Z" fill="#231815"/>
<path d="M390.11 235.43H391.52V240.28H391.55C391.77 239.88 392.13 239.53 392.56 239.28C392.98 239.04 393.48 238.88 394 238.88C395.04 238.88 396.71 239.52 396.71 242.2V246.82H395.3V242.36C395.3 241.11 394.83 240.05 393.5 240.05C392.58 240.05 391.86 240.69 391.61 241.46C391.53 241.65 391.51 241.86 391.51 242.13V246.82H390.1V235.42L390.11 235.43Z" fill="#231815"/>
<path d="M400.77 243.2C400.8 245.11 402.02 245.9 403.43 245.9C404.44 245.9 405.05 245.72 405.58 245.5L405.82 246.51C405.32 246.73 404.47 246.99 403.24 246.99C400.85 246.99 399.42 245.42 399.42 243.07C399.42 240.72 400.8 238.88 403.06 238.88C405.6 238.88 406.27 241.11 406.27 242.54C406.27 242.83 406.24 243.05 406.22 243.2H400.76H400.77ZM404.91 242.19C404.93 241.29 404.54 239.89 402.95 239.89C401.52 239.89 400.9 241.21 400.78 242.19H404.9H404.91Z" fill="#231815"/>
<path d="M409.5 239.06L411.2 243.65C411.38 244.16 411.57 244.77 411.7 245.24H411.73C411.87 244.77 412.03 244.18 412.23 243.62L413.77 239.06H415.26L413.14 244.6C412.13 247.26 411.44 248.63 410.48 249.46C409.79 250.07 409.1 250.31 408.75 250.38L408.4 249.19C408.75 249.08 409.22 248.85 409.64 248.5C410.03 248.19 410.51 247.65 410.83 246.93C410.89 246.79 410.94 246.67 410.94 246.59C410.94 246.51 410.91 246.4 410.84 246.22L407.97 239.06H409.51H409.5Z" fill="#231815"/>
<path d="M93.1902 257.72H94.6002V262.57H94.6302C94.8502 262.17 95.2102 261.82 95.6402 261.57C96.0602 261.33 96.5602 261.17 97.0802 261.17C98.1202 261.17 99.7902 261.81 99.7902 264.49V269.11H98.3802V264.65C98.3802 263.4 97.9102 262.34 96.5802 262.34C95.6702 262.34 94.9402 262.98 94.6902 263.75C94.6102 263.94 94.5902 264.15 94.5902 264.42V269.11H93.1802V257.71L93.1902 257.72Z" fill="#231815"/>
<path d="M107.37 269.12L107.26 268.14H107.21C106.78 268.75 105.94 269.3 104.83 269.3C103.26 269.3 102.45 268.19 102.45 267.07C102.45 265.19 104.12 264.16 107.12 264.18V264.02C107.12 263.38 106.94 262.22 105.35 262.22C104.63 262.22 103.87 262.44 103.33 262.8L103.01 261.87C103.65 261.45 104.58 261.18 105.56 261.18C107.94 261.18 108.51 262.8 108.51 264.36V267.27C108.51 267.94 108.54 268.6 108.64 269.13H107.36L107.37 269.12ZM107.16 265.16C105.62 265.13 103.87 265.4 103.87 266.91C103.87 267.83 104.48 268.26 105.2 268.26C106.21 268.26 106.85 267.62 107.08 266.96C107.13 266.82 107.16 266.66 107.16 266.51V265.16Z" fill="#231815"/>
<path d="M112.19 261.35L113.71 265.72C113.97 266.43 114.18 267.07 114.34 267.71H114.39C114.57 267.07 114.79 266.43 115.05 265.72L116.56 261.35H118.04L114.99 269.12H113.64L110.69 261.35H112.2H112.19Z" fill="#231815"/>
<path d="M120.95 265.49C120.98 267.4 122.2 268.19 123.61 268.19C124.62 268.19 125.23 268.01 125.76 267.79L126 268.8C125.5 269.02 124.65 269.28 123.42 269.28C121.03 269.28 119.6 267.71 119.6 265.36C119.6 263.01 120.98 261.17 123.24 261.17C125.78 261.17 126.45 263.4 126.45 264.83C126.45 265.12 126.42 265.34 126.4 265.49H120.94H120.95ZM125.09 264.48C125.11 263.58 124.72 262.18 123.13 262.18C121.7 262.18 121.08 263.5 120.96 264.48H125.08H125.09Z" fill="#231815"/>
<path d="M135.24 259.12V261.35H137.26V262.43H135.24V266.62C135.24 267.58 135.51 268.13 136.3 268.13C136.67 268.13 136.94 268.08 137.12 268.03L137.18 269.09C136.91 269.2 136.47 269.28 135.93 269.28C135.27 269.28 134.74 269.07 134.41 268.69C134.01 268.27 133.86 267.58 133.86 266.67V262.43H132.66V261.35H133.86V259.49L135.24 259.12Z" fill="#231815"/>
<path d="M139.82 257.72H141.23V262.57H141.26C141.48 262.17 141.84 261.82 142.27 261.57C142.69 261.33 143.19 261.17 143.71 261.17C144.75 261.17 146.42 261.81 146.42 264.49V269.11H145.01V264.65C145.01 263.4 144.54 262.34 143.21 262.34C142.29 262.34 141.57 262.98 141.32 263.75C141.24 263.94 141.22 264.15 141.22 264.42V269.11H139.81V257.71L139.82 257.72Z" fill="#231815"/>
<path d="M150.48 265.49C150.51 267.4 151.73 268.19 153.15 268.19C154.16 268.19 154.77 268.01 155.3 267.79L155.54 268.8C155.04 269.02 154.19 269.28 152.96 269.28C150.57 269.28 149.14 267.71 149.14 265.36C149.14 263.01 150.52 261.17 152.78 261.17C155.32 261.17 155.99 263.4 155.99 264.83C155.99 265.12 155.96 265.34 155.94 265.49H150.48ZM154.62 264.48C154.64 263.58 154.25 262.18 152.66 262.18C151.23 262.18 150.61 263.5 150.49 264.48H154.61H154.62Z" fill="#231815"/>
<path d="M160.28 259.16C160.3 259.64 159.94 260.03 159.38 260.03C158.88 260.03 158.53 259.65 158.53 259.16C158.53 258.67 158.9 258.28 159.41 258.28C159.92 258.28 160.28 258.66 160.28 259.16ZM158.71 269.11V261.34H160.12V269.11H158.71Z" fill="#231815"/>
<path d="M163.43 263.77C163.43 262.86 163.41 262.07 163.37 261.35H164.61L164.66 262.88H164.72C165.07 261.84 165.92 261.18 166.87 261.18C167.03 261.18 167.14 261.2 167.27 261.23V262.56C167.13 262.53 166.98 262.51 166.79 262.51C165.79 262.51 165.09 263.26 164.9 264.32C164.87 264.51 164.84 264.74 164.84 264.98V269.12H163.44V263.77H163.43Z" fill="#231815"/>
<path d="M174.57 261.35L175.6 265.3C175.82 266.17 176.03 266.97 176.18 267.77H176.23C176.41 266.98 176.66 266.15 176.92 265.31L178.19 261.35H179.38L180.58 265.23C180.87 266.16 181.09 266.98 181.27 267.77H181.32C181.45 266.98 181.66 266.16 181.91 265.25L183.02 261.35H184.42L181.92 269.12H180.64L179.45 265.41C179.18 264.54 178.95 263.77 178.76 262.86H178.73C178.54 263.79 178.3 264.59 178.02 265.43L176.77 269.12H175.49L173.15 261.35H174.59H174.57Z" fill="#231815"/>
<path d="M186.79 257.72H188.2V262.57H188.23C188.45 262.17 188.81 261.82 189.24 261.57C189.66 261.33 190.16 261.17 190.68 261.17C191.72 261.17 193.39 261.81 193.39 264.49V269.11H191.98V264.65C191.98 263.4 191.51 262.34 190.18 262.34C189.26 262.34 188.54 262.98 188.29 263.75C188.21 263.94 188.19 264.15 188.19 264.42V269.11H186.78V257.71L186.79 257.72Z" fill="#231815"/>
<path d="M198.24 259.16C198.26 259.64 197.9 260.03 197.34 260.03C196.84 260.03 196.49 259.65 196.49 259.16C196.49 258.67 196.86 258.28 197.37 258.28C197.88 258.28 198.24 258.66 198.24 259.16ZM196.67 269.11V261.34H198.08V269.11H196.67Z" fill="#231815"/>
<path d="M201.2 267.67C201.62 267.94 202.36 268.23 203.06 268.23C204.09 268.23 204.57 267.72 204.57 267.07C204.57 266.42 204.17 266.03 203.12 265.64C201.72 265.14 201.07 264.37 201.07 263.44C201.07 262.19 202.08 261.16 203.75 261.16C204.54 261.16 205.23 261.39 205.66 261.64L205.31 262.67C205 262.48 204.44 262.22 203.72 262.22C202.89 262.22 202.42 262.7 202.42 263.28C202.42 263.92 202.89 264.21 203.9 264.6C205.25 265.11 205.94 265.79 205.94 266.94C205.94 268.3 204.88 269.27 203.03 269.27C202.18 269.27 201.39 269.06 200.85 268.74L201.2 267.66V267.67Z" fill="#231815"/>
<path d="M208.71 263.88C208.71 262.88 208.68 262.08 208.65 261.34H209.92L209.98 262.67H210.01C210.59 261.72 211.5 261.16 212.77 261.16C214.65 261.16 216.06 262.75 216.06 265.11C216.06 267.9 214.36 269.28 212.53 269.28C211.5 269.28 210.6 268.83 210.14 268.06H210.11V272.28H208.71V263.87V263.88ZM210.11 265.95C210.11 266.16 210.14 266.35 210.17 266.53C210.43 267.51 211.28 268.18 212.29 268.18C213.78 268.18 214.65 266.96 214.65 265.18C214.65 263.62 213.83 262.29 212.34 262.29C211.38 262.29 210.48 262.98 210.21 264.04C210.16 264.22 210.11 264.42 210.11 264.62V265.95Z" fill="#231815"/>
<path d="M219.6 265.49C219.63 267.4 220.85 268.19 222.27 268.19C223.28 268.19 223.89 268.01 224.42 267.79L224.66 268.8C224.16 269.02 223.31 269.28 222.08 269.28C219.69 269.28 218.26 267.71 218.26 265.36C218.26 263.01 219.64 261.17 221.9 261.17C224.44 261.17 225.11 263.4 225.11 264.83C225.11 265.12 225.08 265.34 225.06 265.49H219.6ZM223.74 264.48C223.76 263.58 223.37 262.18 221.78 262.18C220.35 262.18 219.73 263.5 219.61 264.48H223.73H223.74Z" fill="#231815"/>
<path d="M227.82 263.77C227.82 262.86 227.8 262.07 227.76 261.35H229L229.05 262.88H229.11C229.46 261.84 230.31 261.18 231.26 261.18C231.42 261.18 231.53 261.2 231.66 261.23V262.56C231.52 262.53 231.37 262.51 231.18 262.51C230.18 262.51 229.48 263.26 229.29 264.32C229.26 264.51 229.23 264.74 229.23 264.98V269.12H227.83V263.77H227.82Z" fill="#231815"/>
<path d="M245.43 265.17C245.43 268.04 243.44 269.3 241.56 269.3C239.46 269.3 237.84 267.76 237.84 265.3C237.84 262.7 239.54 261.17 241.69 261.17C243.84 261.17 245.43 262.79 245.43 265.17ZM239.27 265.25C239.27 266.95 240.25 268.24 241.63 268.24C243.01 268.24 243.99 266.97 243.99 265.22C243.99 263.9 243.33 262.23 241.66 262.23C239.99 262.23 239.27 263.77 239.27 265.25Z" fill="#231815"/>
<path d="M248.32 269.12V262.43H247.23V261.35H248.32V260.98C248.32 259.89 248.56 258.89 249.22 258.27C249.75 257.76 250.46 257.55 251.11 257.55C251.61 257.55 252.04 257.66 252.31 257.77L252.12 258.86C251.91 258.76 251.62 258.68 251.22 258.68C250.02 258.68 249.71 259.74 249.71 260.93V261.35H251.59V262.43H249.71V269.12H248.31H248.32Z" fill="#231815"/>
<path d="M256.3 271.36C256.94 271.31 257.5 271.14 257.84 270.77C258.23 270.32 258.37 269.71 258.37 267.85V261.35H259.78V268.4C259.78 269.91 259.54 270.89 258.85 271.59C258.22 272.22 257.2 272.47 256.44 272.47L256.3 271.36ZM259.94 259.16C259.96 259.62 259.62 260.03 259.06 260.03C258.53 260.03 258.19 259.63 258.19 259.16C258.19 258.66 258.56 258.28 259.09 258.28C259.62 258.28 259.94 258.66 259.94 259.16Z" fill="#231815"/>
<path d="M270.1 265.17C270.1 268.04 268.11 269.3 266.23 269.3C264.13 269.3 262.51 267.76 262.51 265.3C262.51 262.7 264.21 261.17 266.36 261.17C268.51 261.17 270.1 262.79 270.1 265.17ZM263.94 265.25C263.94 266.95 264.92 268.24 266.3 268.24C267.68 268.24 268.66 266.97 268.66 265.22C268.66 263.9 268 262.23 266.33 262.23C264.66 262.23 263.94 263.77 263.94 265.25Z" fill="#231815"/>
<path d="M273.25 261.35L274.95 265.94C275.13 266.45 275.32 267.06 275.45 267.53H275.48C275.62 267.06 275.78 266.47 275.98 265.91L277.52 261.35H279.01L276.89 266.89C275.88 269.56 275.19 270.92 274.23 271.75C273.54 272.36 272.85 272.6 272.5 272.67L272.15 271.48C272.5 271.37 272.97 271.14 273.39 270.79C273.78 270.49 274.26 269.94 274.58 269.22C274.64 269.08 274.69 268.96 274.69 268.88C274.69 268.8 274.66 268.69 274.59 268.51L271.72 261.35H273.26H273.25Z" fill="#231815"/>
<path d="M287.2 259.16C287.22 259.64 286.86 260.03 286.3 260.03C285.8 260.03 285.45 259.65 285.45 259.16C285.45 258.67 285.82 258.28 286.33 258.28C286.84 258.28 287.2 258.66 287.2 259.16ZM285.63 269.11V261.34H287.04V269.11H285.63Z" fill="#231815"/>
<path d="M290.35 263.45C290.35 262.65 290.33 261.99 290.29 261.35H291.54L291.62 262.63H291.65C292.04 261.89 292.93 261.17 294.22 261.17C295.3 261.17 296.97 261.81 296.97 264.48V269.12H295.56V264.64C295.56 263.39 295.09 262.34 293.76 262.34C292.83 262.34 292.11 263 291.87 263.79C291.81 263.97 291.77 264.21 291.77 264.45V269.12H290.36V263.45H290.35Z" fill="#231815"/>
<path d="M304.59 263.45C304.59 262.65 304.57 261.99 304.53 261.35H305.77L305.83 262.6H305.88C306.31 261.86 307.04 261.17 308.32 261.17C309.38 261.17 310.18 261.81 310.52 262.73H310.55C310.79 262.3 311.1 261.96 311.42 261.72C311.89 261.37 312.4 261.17 313.14 261.17C314.17 261.17 315.69 261.84 315.69 264.54V269.12H314.31V264.72C314.31 263.23 313.76 262.33 312.62 262.33C311.82 262.33 311.19 262.92 310.95 263.61C310.89 263.8 310.84 264.06 310.84 264.32V269.12H309.46V264.46C309.46 263.22 308.92 262.33 307.84 262.33C306.96 262.33 306.32 263.04 306.09 263.74C306.01 263.95 305.98 264.19 305.98 264.43V269.12H304.6V263.45H304.59Z" fill="#231815"/>
<path d="M319.25 261.35L320.95 265.94C321.13 266.45 321.32 267.06 321.45 267.53H321.48C321.62 267.06 321.78 266.47 321.98 265.91L323.52 261.35H325.01L322.89 266.89C321.88 269.56 321.19 270.92 320.23 271.75C319.54 272.36 318.85 272.6 318.5 272.67L318.15 271.48C318.5 271.37 318.97 271.14 319.39 270.79C319.78 270.49 320.26 269.94 320.58 269.22C320.64 269.08 320.69 268.96 320.69 268.88C320.69 268.8 320.66 268.69 320.59 268.51L317.72 261.35H319.26H319.25Z" fill="#231815"/>
<path d="M331.63 263.45C331.63 262.65 331.61 261.99 331.57 261.35H332.81L332.87 262.6H332.92C333.35 261.86 334.08 261.17 335.36 261.17C336.42 261.17 337.22 261.81 337.56 262.73H337.59C337.83 262.3 338.14 261.96 338.46 261.72C338.93 261.37 339.44 261.17 340.18 261.17C341.21 261.17 342.73 261.84 342.73 264.54V269.12H341.35V264.72C341.35 263.23 340.8 262.33 339.66 262.33C338.86 262.33 338.23 262.92 337.99 263.61C337.93 263.8 337.88 264.06 337.88 264.32V269.12H336.5V264.46C336.5 263.22 335.95 262.33 334.88 262.33C334 262.33 333.36 263.04 333.13 263.74C333.05 263.95 333.02 264.19 333.02 264.43V269.12H331.64V263.45H331.63Z" fill="#231815"/>
<path d="M347.56 259.16C347.58 259.64 347.22 260.03 346.66 260.03C346.16 260.03 345.81 259.65 345.81 259.16C345.81 258.67 346.18 258.28 346.69 258.28C347.2 258.28 347.56 258.66 347.56 259.16ZM345.99 269.11V261.34H347.4V269.11H345.99Z" fill="#231815"/>
<path d="M350.71 263.45C350.71 262.65 350.69 261.99 350.65 261.35H351.9L351.98 262.63H352.01C352.4 261.89 353.29 261.17 354.58 261.17C355.66 261.17 357.33 261.81 357.33 264.48V269.12H355.92V264.64C355.92 263.39 355.45 262.34 354.12 262.34C353.19 262.34 352.47 263 352.23 263.79C352.17 263.97 352.13 264.21 352.13 264.45V269.12H350.72V263.45H350.71Z" fill="#231815"/>
<path d="M367.3 257.72V267.11C367.3 267.8 367.32 268.59 367.36 269.12H366.09L366.03 267.77H366C365.57 268.64 364.62 269.3 363.35 269.3C361.47 269.3 360.03 267.71 360.03 265.35C360.01 262.77 361.62 261.18 363.51 261.18C364.7 261.18 365.5 261.74 365.85 262.37H365.88V257.73H367.29L367.3 257.72ZM365.89 264.51C365.89 264.33 365.87 264.09 365.83 263.92C365.62 263.02 364.85 262.28 363.79 262.28C362.33 262.28 361.46 263.56 361.46 265.28C361.46 266.85 362.23 268.15 363.76 268.15C364.71 268.15 365.57 267.52 365.83 266.46C365.88 266.27 365.89 266.07 365.89 265.85V264.5V264.51Z" fill="#231815"/>
<path d="M16.51 21.57C13.89 23.62 8.23003 26.43 5.25003 27.45L4.04004 23.96C5.35004 23.74 7.05003 23.35 8.84003 22.84V15.1H5.03003V13.47H8.84003V5.95001H4.65002V4.32001H16.42V5.95001H12.01V13.47H15.78V15.1H12.01V21.88C13.45 21.37 14.82 20.86 15.91 20.38L16.52 21.56L16.51 21.57ZM30.01 18.5L32.89 20.48C29.24 26.24 21.86 30.27 13.35 31.39L12.93 30.11C21.12 28.13 26.11 24.35 30.01 18.5ZM21.44 1.20001L24.96 2.38C24.8 2.76 24.61 3.15 24.38 3.53C27.1 6.95 30.49 8.61001 33.85 9.89001L31.77 13.38C29.43 12.07 25.76 8.97 23.61 4.87C21.34 8.42 17.82 11.52 14.17 13.12L13.47 11.97C17.69 9.32 20.06 5 21.43 1.19L21.44 1.20001ZM25.89 11.31C24 13.96 20.36 17.16 15.3 18.7L14.79 17.49C18.47 15.73 20.99 13.11 23.2 9.45999L25.89 11.32V11.31ZM14.98 23.72C21.06 21.13 23.81 17.9 26.37 13.74L29.31 15.56C26.27 20.07 21.95 23.2 15.46 24.96L14.98 23.71V23.72Z" fill="black"/>
<path d="M47.4801 15.91V31.07H44.3501V18.37C43.3901 20.74 42.11 23.01 40.58 25.02L39.5601 24.22C41.7701 20.22 43.0501 15.78 43.9401 11.08H39.9401V9.48001H44.3501V5.76999C42.8801 5.98999 41.4401 6.19 40.1601 6.28L39.9001 5.03C43.7401 4.2 46.6801 2.98001 49.4001 1.26001L51.86 3.82001C50.52 4.36001 49.0101 4.81 47.4801 5.16V9.48001H51.1301V11.08H47.4801V13.48C48.9501 14.57 50.5801 15.98 51.6701 17.35L49.2701 19.24C48.7301 18.15 48.1201 17 47.4801 15.91ZM54.6401 17.32H58.0001V14.03H61.1301V17.32H67.0101V25.96C67.0101 28.49 64.7701 29.54 61.1301 27.65V31.04H58.0001V18.92H55.2801V29.03H52.2701V20.36C51.3701 21.35 50.4101 22.25 49.3901 22.95L48.5301 21.93C50.4201 19.98 52.3401 16.97 53.7801 13.29H49.8801V11.66H54.3901C54.6801 10.76 54.9301 9.87 55.1901 8.91C53.9401 9.33 52.7001 9.65 51.4501 9.84L51.1001 8.66C53.1801 8.08 55.2901 7.09 57.2401 5.81C55.5401 4.95 53.8801 4.18001 52.4101 3.60001L52.83 2.39001C54.69 2.77001 56.99 3.48 59.29 4.28C60.54 3.29 61.63 2.16999 62.55 0.98999L65.4601 2.69C64.5601 3.65 63.4801 4.54 62.2601 5.41C64.0801 6.15 65.7501 6.90999 67.0601 7.64999L65.2701 10.34C63.7701 9.38 61.7201 8.19999 59.5801 7.04999C58.4301 7.65999 57.1801 8.19999 55.9301 8.67999L58.4901 9.42001C58.2301 10.16 57.98 10.92 57.66 11.69H68.2801V13.32H56.9301C56.2901 14.7 55.52 16.07 54.66 17.35L54.6401 17.32ZM61.1301 18.92V27.11L61.29 26.34C63.63 26.69 64.0101 26.56 64.0101 25.38V18.92H61.1301Z" fill="black"/>
<path d="M80.9401 7.72L76.3 9.79999V6.92001L81.86 4.97H84.7101V28.44H81.16V7.72H80.9401Z" fill="black"/>
<path d="M111.42 22.5H108.45V28.45H105.03V22.5H94.6001V20.07L104.35 4.97H108.44V20.13H111.41V22.5H111.42ZM105.02 20.13V11.91C105.02 10.63 105.08 8.97001 105.15 8.20001H104.96C104.7 8.87001 104.22 9.77 103.1 11.56L97.9201 19.94V20.13H105.02Z" fill="black"/>
<path d="M145.81 5V6.63H123.42V13.54C123.42 23.36 122.11 27.68 118.33 31.23L117.31 30.43C119.45 27.01 120.19 24.19 120.19 13.61V5.01001H133.46C131.92 3.99001 130.2 2.96001 128.76 2.23001L129.14 1.01001C131.89 1.49001 134.1 2.02999 136.21 2.95999L135.06 5.01001H145.81V5ZM140.44 10.25H145.3V11.85H140.44V16.36H135.71V19.08H144.06V25.89C144.06 28.93 141.09 29.66 137.02 27.71L137.31 26.46C140.73 26.91 140.99 26.56 140.99 24.76V20.67H135.71V31.16H132.48V20.67H127.81V29.27H124.71V19.07H132.48V16.35H127.78V11.84H123.65V10.24H127.78V7.42999H130.88V10.24H137.34V7.42999H140.44V10.24V10.25ZM137.34 11.85H130.88V14.76H137.34V11.85Z" fill="black"/>
<path d="M168.14 32.28H165.58V0.299988H168.14V32.28Z" fill="black"/>
<path d="M193.77 7.72L189.13 9.79999V6.92001L194.7 4.97H197.55V28.44H194V7.72H193.78H193.77Z" fill="black"/>
<path d="M207.87 16.96C207.87 9.15999 211.64 4.45999 216.25 4.45999C221.14 4.45999 224.28 9.34999 224.28 16.58C224.28 24.32 221.18 28.86 215.96 28.83C211.35 28.83 207.87 24.38 207.87 16.96ZM220.5 16.67C220.5 11.3 219.12 6.5 216.09 6.5C213.47 6.5 211.64 10.98 211.64 16.93C211.64 22.88 213.33 26.78 216.09 26.78C219.13 26.78 220.5 22.37 220.5 16.67Z" fill="black"/>
<path d="M230.39 28.54L230.13 26.78C237.17 27.1 240.2 24.96 240.4 20.35C240.56 16.86 238.77 15.71 236.95 15.68C235.16 15.62 233.94 16.16 233.3 16.93L230.8 16.58L231.25 5H242.96V7.37H234.42L234.16 14.37L234.32 14.5C234.96 14.12 236.3 13.51 237.87 13.54C241.2 13.64 244.14 15.97 244.14 19.87C244.14 26.71 238.64 29.4 230.39 28.54Z" fill="black"/>
<path d="M261.84 20.23L262.29 21.41C259.22 23.36 255.41 25.15 251.61 26.56L250.62 23.01C251.71 22.88 253.18 22.59 254.81 22.21V11.88H251.07V10.25H254.81V1.64999H257.98V10.25H261.66V11.88H257.98V21.41C259.29 21.06 260.6 20.64 261.85 20.23H261.84ZM279.17 17.58V19.21H271.3V31.2H267.94V19.21H260.01V17.58H267.94V5.04001H261.06V3.41H278.11V5.04001H271.3V17.58H279.17ZM264.01 15.95C263.34 13.01 262.51 9.91 261.58 7.31L262.76 6.79999C264.3 8.84999 266.09 11.82 267.17 14.8L264 15.95H264.01ZM271.85 15.47C273.06 12.72 274.09 9.33001 274.6 6.42001L277.96 7.76001C276.78 10.57 274.57 14.19 273 16.04L271.85 15.46V15.47Z" fill="black"/>
<path d="M301.98 28.06H313.46V30.01H287.11V28.06H298.4V22.53H290.44V20.74H298.4V15.75H291.65V14.92C289.95 15.91 288.1 16.77 286.12 17.45L285.54 16.17C291.84 13.04 295.74 8.33 297.28 4.78H290.31V2.98999H301.82C303.39 7.17999 308.22 11.34 315.19 13.58L313.21 17.29C311.9 16.68 310.36 15.82 308.83 14.73V15.75H301.99V20.74H310.02V22.53H301.99V28.06H301.98ZM307.93 14.05C305.15 11.88 302.43 8.93 300.99 5.22C299.65 8.29 296.8 11.52 293.03 14.05H307.93Z" fill="black"/>
<path d="M322.33 3.85001H331.45V26.56H328.44V24.16H325.37V27.36H322.33V3.85001ZM328.44 12.77V5.45001H325.37V12.77H328.44ZM328.44 22.56V14.37H325.37V22.56H328.44ZM337.43 27.84C341.88 28.77 342.58 28.45 342.58 26.91V18.98H332.35V17.35H342.58V14.22H345.91V17.35H349.59V18.98H345.91V27.84C345.91 30.81 342.84 32.61 337.02 29.12L337.44 27.84H337.43ZM332.38 12.04H339V7.79001H333.4V6.16H339V1.59H342.33V6.16H348.12V7.79001H342.33V12.04H349.21V13.67H332.39V12.04H332.38ZM334.01 20.9L335 20.04C336.66 21.19 338.61 22.92 340.05 24.71L337.43 26.63C336.57 24.9 335.16 22.57 334.01 20.91V20.9Z" fill="black"/>
<path d="M384.54 28.77C382.91 29.7 381.5 29.98 378.59 30.11C374.69 30.3 368.84 30.27 365.13 30.11C360.24 29.92 358.38 29.69 358.38 24.64V4.97H356.52V3.17999H383.48V4.97H361.73V24.48C361.73 26.65 362.05 27.04 365.02 27.17C368.89 27.33 374.61 27.36 378.64 27.17C380.72 27.07 382.19 26.72 383.31 26.05L384.52 28.77H384.54ZM363.59 16.14H372V24.97H363.59V16.14ZM378.85 13.84H366.34V6.84H378.85V13.84ZM366.44 23.47H369.16V17.68H366.44V23.47ZM375.65 8.37H369.57V12.34H375.65V8.37ZM382.21 24.97H373.64V16.14H382.21V24.97ZM379.36 17.68H376.48V23.47H379.36V17.68Z" fill="black"/>
<path d="M395.1 21.47C395.13 25.08 394.84 28.7 394.27 30.84L391.14 29.63C392.29 27.65 393.22 24.67 393.83 21.35L395.11 21.48L395.1 21.47ZM394.01 17.28C395.29 15.71 396.6 13.79 397.78 11.72C396.08 12.2 394.26 12.58 392.82 12.81L392.21 9.76999L393.84 9.87C394.96 7.44 395.82 4.71999 396.59 1.23999L399.88 2.39001C398.7 5.14001 397 7.92 395.47 9.91C396.59 9.94 397.64 9.91001 398.76 9.85001C399.43 8.51001 400.01 7.13 400.52 5.69L403.59 7.03C402.12 10.07 399.02 14.35 396.23 17.17C397.61 17.07 398.98 16.91 400.29 16.72C400.03 15.95 399.75 15.22 399.43 14.55L400.52 13.85C401.86 15.35 403.27 17.56 404.07 19.35L401.54 20.6C401.32 19.83 401.06 19 400.77 18.1C397.83 19.32 394.44 20.21 392.45 20.5L391.68 17.33C392.42 17.33 393.18 17.33 393.98 17.3L394.01 17.28ZM397.59 21.15C398.42 23.61 399.25 27.1 399.57 29.11L396.5 29.53C396.63 27.45 396.56 23.96 396.34 21.37L397.59 21.15ZM399.89 20.22C401.27 22.14 402.64 24.99 403.28 26.84L400.53 27.93C400.15 25.82 399.44 22.78 398.77 20.7L399.89 20.22ZM420.49 25.05L418.19 27.86C416.65 26.07 414.67 23.9 412.66 22.04V27.64C412.66 31.09 409.43 32.31 404.38 29.4L404.73 28.12C409.02 28.82 409.49 28.6 409.49 26.78V22.49C408.02 24.03 406.16 25.56 404.05 26.9L402.55 23.96C404.92 23.16 407.06 22.11 409.49 20.6V14.33H402.23V12.73H411.86C412.05 11.99 412.28 11.19 412.47 10.36H407.16C407 10.87 406.84 11.38 406.65 11.93L403.93 11.42C404.99 8.16001 405.72 4.9 406.36 1.41L409.33 1.89001L408.95 3.57999H413.43L414.1 3.10001L416.95 4.12C416.37 6.81 415.67 9.84 414.84 12.72H419.61V14.32H412.67V20.24C412.8 20.27 412.93 20.34 413.05 20.4C414.43 18.83 415.61 16.95 416.41 15.15L419.1 16.91C417.92 18.29 416 19.88 414.27 21C416.6 22.21 418.94 23.75 420.51 25.03L420.49 25.05ZM406.87 21.18C405.62 19.45 404.22 17.82 403.13 16.77L403.87 15.75C405.31 16.36 407.55 17.77 408.92 19.05L406.87 21.19V21.18ZM412.82 8.76999C413.14 7.42999 413.4 6.11 413.56 5.16H408.57C408.28 6.37 407.96 7.55999 407.64 8.76999H412.82Z" fill="black"/>
<path d="M433.23 17.38V15.01H427.86V13.41H433.23V11.49H428.3V2.54001H441.19V11.49H436.27V13.41H441.39V15.01H436.27V17.15C438.44 16.96 440.59 16.73 442.6 16.48L442.82 17.66C440.01 18.59 431.72 20.25 427.44 20.6L426.93 17.66C428.94 17.63 431.06 17.53 433.23 17.37V17.38ZM442.6 28.45H454.82V30.08H427.15V28.45H439.24V24.68H429.49V23.05H439.24V19.92H442.6V23.05H452.42V24.68H442.6V28.45ZM431.12 6.32001H433.33V4.10999H431.12V6.32001ZM433.33 9.89999V7.73001H431.12V9.89999H433.33ZM436.21 6.32001H438.38V4.10999H436.21V6.32001ZM436.21 9.89999H438.38V7.73001H436.21V9.89999ZM446.44 11.02H441.74V9.42001H448.1C446.85 8.30001 445.32 7.09 443.94 6.03L444.48 4.94C445.66 5.39 446.97 5.96001 448.19 6.60001C448.83 5.90001 449.5 5.06001 450.04 4.10001H442.49V2.56H450.1L451.09 2.01999L453.97 4C452.43 5.47 451.06 6.53001 449.62 7.39001C450.04 7.61001 450.45 7.87 450.8 8.13L449.78 9.41H451.76L452.59 8.82999L455.31 10.46C453.81 12.7 452.24 14.49 451.15 15.42L450.16 14.68C450.67 13.69 451.34 12.31 451.76 11H449.43V17.84C449.43 20.49 446.68 21.13 442.78 19.5L443.07 18.25C446.01 18.6 446.43 18.38 446.43 16.97V10.99L446.44 11.02Z" fill="black"/>
<path d="M57.39 202.21C59.49 204.44 61.95 208.14 63 210.78L59.7801 212.25C59.4601 211.1 58.98 209.7 58.47 208.27C55.54 209.99 50.98 211.9 48.56 212.6L47.29 209.1C48.09 208.97 48.91 208.85 49.78 208.69V186.48H61.63V200.47H53.03V208.05C54.69 207.67 56.3401 207.25 57.9001 206.78C57.3601 205.35 56.7501 203.98 56.2801 202.92L57.39 202.22V202.21ZM53.03 192.62H58.41V188.06H53.03V192.62ZM53.03 198.83H58.41V194.15H53.03V198.83ZM74.6 186.6V206.61C74.6 209.99 70.55 209.99 67.3 207.92L67.5901 206.65C70.7101 207.19 71.45 206.97 71.45 205.5V188.23H66.8V214.67H63.58V186.6H74.6Z" fill="black"/>
<path d="M119.88 185.74V213.71H118.73V185.74H119.88Z" fill="black"/>
<path d="M172.99 200.55V214.66H169.93V202.36H167.64C167.51 207.78 166.43 211.7 163.21 214.63L162.22 213.77C164 211.06 164.71 207.4 164.8 202.36H162.54V200.77H169.93V195.83H167.06V197.55H164.13V185.47H167.06V194.2H169.93V184.9H172.99V199.2C179.17 197.32 184.36 193.27 186.18 188.88H180.44L179.96 189.39C181.17 190.03 182.38 190.92 183.56 192L181.62 193.85C180.79 192.61 179.84 191.52 178.85 190.5C178.31 190.98 177.77 191.42 177.23 191.87C178.35 192.7 179.36 193.69 180.32 194.96L178.28 196.49C177.58 195.03 176.88 193.88 176.11 192.7C175.31 193.27 174.52 193.75 173.82 194.13L173.12 193.05C175.61 191.2 178.28 187.73 180.03 184.35L182.87 185.59C182.55 186.16 182.17 186.71 181.75 187.25H186.08L187.2 186.77L190.04 188.3C187.27 194.93 180.42 199.23 172.99 200.53V200.55ZM190.77 200.77V202.39H187.65V211.37C187.65 214.33 184.65 216.25 178.31 212.64L178.66 211.33C183.92 212.35 184.46 212.06 184.46 210.02V202.37H173.6V200.75H184.46V196.45H187.65V200.75H190.77V200.77ZM179.36 209.53C178.28 207.75 176.52 205.2 175.35 203.7L176.21 202.78C178.09 203.86 180.48 206 181.82 207.53L179.37 209.54L179.36 209.53Z" fill="black"/>
<path d="M234.78 185.74V213.71H233.63V185.74H234.78Z" fill="black"/>
<path d="M277.73 203.1L276.93 202.02C280.82 198.23 283.59 193.39 285.18 186.79L288.97 188.22C286.87 193.99 282.76 199.85 277.72 203.1H277.73ZM303.85 212.15L300.15 214.19C299.61 212.76 298.91 211.16 298.11 209.54C292.98 211.29 285.84 212.6 280.52 213.11L279.56 209.06C280.83 209.06 282.24 209.06 283.64 209.03C285.81 205.43 287.85 200.17 288.96 195.74L292.97 197.3C291.19 201.41 288.32 205.87 285.8 208.93C289.88 208.77 294.08 208.42 297.33 208.01C296.5 206.39 295.58 204.73 294.62 203.2L295.74 202.28C299.05 205.37 301.92 208.91 303.83 212.16L303.85 212.15ZM295.44 188.32H290.37V186.66H296.81C297.93 193 301.84 196.86 306.34 199.21L303.54 203.07C299.43 200.01 296.47 194.98 295.45 188.32H295.44Z" fill="black"/>
<path d="M349.68 185.74V213.71H348.53V185.74H349.68Z" fill="black"/>
<path d="M405.09 195.74H396.87V214.47H393.65V186.15H405.09V195.74ZM402.06 187.78H396.87V190.11H402.06V187.78ZM402.06 191.7H396.87V194.12H402.06V191.7ZM410.85 205.24V213.05H407.86V205.24H404.9C404.52 209.64 402.32 212.41 398.62 213.84L397.89 212.66C400.66 210.65 401.65 208.84 401.87 205.24H397.82V203.65H401.93V199.73H398.65V198.11H414.23V199.73H410.85V203.65H415.06V205.24H410.85ZM407.86 203.65V199.73H404.96V203.65H407.86ZM419.01 186.16V210.85C419.01 214.67 415.98 215.28 411.52 212.82L411.84 211.55C415.5 212.31 415.82 211.87 415.82 210.4V195.74H407.73V186.15H419.01V186.16ZM415.82 187.78H410.79V190.11H415.82V187.78ZM415.82 191.7H410.79V194.12H415.82V191.7Z" fill="black"/>
<path d="M15.46 56.39L7.82996 56.59C4.85996 56.69 3.62995 56.95 2.85995 58.08C2.34995 58.85 2.08996 59.46 1.98996 59.87C1.88996 60.28 1.72996 60.48 1.42996 60.48C1.06996 60.48 0.969971 60.22 0.969971 59.66C0.969971 58.84 1.93996 54.18 2.04996 53.77C2.19996 53.1 2.35998 52.8 2.66998 52.8C3.07998 52.8 3.58996 53.31 4.86996 53.42C6.35996 53.57 8.29996 53.68 9.98996 53.68H30.27C31.91 53.68 33.04 53.53 33.8 53.42C34.57 53.27 34.98 53.16 35.18 53.16C35.54 53.16 35.59 53.47 35.59 54.24C35.59 55.32 35.44 58.85 35.44 60.18C35.39 60.69 35.29 61 34.98 61C34.57 61 34.47 60.74 34.42 59.98L34.37 59.42C34.27 58.09 32.89 56.65 28.33 56.55L21.88 56.4V77.4C21.88 82.11 21.88 86.16 22.14 88.36C22.29 89.79 22.6 90.92 24.14 91.13C24.86 91.23 25.98 91.33 26.75 91.33C27.31 91.33 27.57 91.48 27.57 91.74C27.57 92.1 27.16 92.25 26.6 92.25C23.22 92.25 19.99 92.1 18.56 92.1C17.38 92.1 14.16 92.25 12.11 92.25C11.44 92.25 11.09 92.1 11.09 91.74C11.09 91.48 11.3 91.33 11.91 91.33C12.68 91.33 13.29 91.23 13.75 91.13C14.77 90.92 15.08 89.8 15.24 88.31C15.5 86.16 15.5 82.11 15.5 77.4V56.4L15.46 56.39Z" fill="#D8A422"/>
<path d="M46.03 68.38C46.03 60.6 46.03 59.16 45.93 57.52C45.83 55.78 45.32 54.91 44.19 54.65C43.63 54.5 42.96 54.44 42.35 54.44C41.84 54.44 41.53 54.34 41.53 53.93C41.53 53.62 41.94 53.52 42.76 53.52C44.71 53.52 47.93 53.67 49.42 53.67C50.7 53.67 53.72 53.52 55.67 53.52C56.34 53.52 56.75 53.62 56.75 53.93C56.75 54.34 56.44 54.44 55.93 54.44C55.42 54.44 55.01 54.49 54.39 54.59C53.01 54.85 52.6 55.72 52.5 57.51C52.4 59.15 52.4 60.58 52.4 68.37V77.38C52.4 82.35 52.4 86.39 52.61 88.59C52.76 89.97 53.12 90.89 54.66 91.1C55.38 91.2 56.5001 91.3 57.2701 91.3C57.8301 91.3 58.0901 91.45 58.0901 91.71C58.0901 92.07 57.68 92.22 57.12 92.22C53.74 92.22 50.51 92.07 49.13 92.07C47.95 92.07 44.73 92.22 42.68 92.22C42.01 92.22 41.66 92.07 41.66 91.71C41.66 91.45 41.87 91.3 42.48 91.3C43.25 91.3 43.86 91.2 44.32 91.1C45.34 90.89 45.65 90.02 45.81 88.54C46.07 86.39 46.07 82.34 46.07 77.38V68.37L46.03 68.38Z" fill="#D8A422"/>
<path d="M72.0999 53.73C72.2499 52.86 72.5598 52.4 72.9698 52.4C73.3798 52.4 73.6899 52.66 74.3499 53.99L88.3299 82.87L102.26 53.63C102.67 52.81 102.93 52.4 103.39 52.4C103.85 52.4 104.16 52.91 104.31 53.99L108.97 85.64C109.43 88.87 109.94 90.35 111.48 90.81C112.97 91.27 113.99 91.32 114.66 91.32C115.12 91.32 115.48 91.37 115.48 91.68C115.48 92.09 114.87 92.24 114.15 92.24C112.87 92.24 105.8 92.09 103.75 91.93C102.57 91.83 102.27 91.67 102.27 91.37C102.27 91.11 102.47 90.96 102.83 90.81C103.14 90.71 103.29 90.04 103.09 88.61L100.02 66.08H99.8199L88.6599 89.33C87.4799 91.74 87.2299 92.2 86.7699 92.2C86.3099 92.2 85.7999 91.18 84.9799 89.64C83.7499 87.28 79.7099 79.45 79.0899 78.02C78.6299 76.94 75.5599 70.49 73.7599 66.65H73.5499L70.8899 87.03C70.7899 87.95 70.7399 88.62 70.7399 89.44C70.7399 90.41 71.4099 90.87 72.2799 91.08C73.1999 91.29 73.9199 91.34 74.4299 91.34C74.8399 91.34 75.1999 91.44 75.1999 91.7C75.1999 92.16 74.7398 92.26 73.9698 92.26C71.8198 92.26 69.5099 92.11 68.5899 92.11C67.6199 92.11 65.1599 92.26 63.5199 92.26C63.0099 92.26 62.5999 92.16 62.5999 91.7C62.5999 91.44 62.9099 91.34 63.4199 91.34C63.8299 91.34 64.1899 91.34 64.9599 91.19C66.3899 90.88 66.7999 88.89 67.0599 87.14L72.1299 53.75L72.0999 53.73Z" fill="#D8A422"/>
<path d="M124.65 68.38C124.65 60.6 124.65 59.16 124.55 57.52C124.45 55.78 124.04 54.96 122.35 54.6C121.94 54.5 121.07 54.45 120.35 54.45C119.79 54.45 119.48 54.35 119.48 53.99C119.48 53.63 119.84 53.53 120.61 53.53C121.99 53.53 123.48 53.58 124.76 53.58C126.09 53.63 127.27 53.68 127.99 53.68C129.63 53.68 139.82 53.68 140.79 53.63C141.76 53.53 142.58 53.43 142.99 53.32C143.25 53.27 143.55 53.11 143.81 53.11C144.07 53.11 144.12 53.32 144.12 53.57C144.12 53.93 143.86 54.54 143.71 56.9C143.66 57.41 143.56 59.67 143.45 60.28C143.4 60.54 143.3 60.84 142.94 60.84C142.58 60.84 142.48 60.58 142.48 60.12C142.48 59.76 142.43 58.89 142.17 58.28C141.81 57.36 141.3 56.74 138.74 56.44C137.87 56.34 132.49 56.23 131.47 56.23C131.21 56.23 131.11 56.38 131.11 56.74V69.7C131.11 70.06 131.16 70.26 131.47 70.26C132.6 70.26 138.49 70.26 139.66 70.16C140.89 70.06 141.66 69.9 142.12 69.39C142.48 68.98 142.68 68.72 142.94 68.72C143.14 68.72 143.3 68.82 143.3 69.13C143.3 69.44 143.1 70.26 142.89 72.87C142.84 73.89 142.69 75.94 142.69 76.3C142.69 76.71 142.69 77.27 142.23 77.27C141.87 77.27 141.77 77.06 141.77 76.81C141.72 76.3 141.72 75.63 141.56 74.97C141.3 73.95 140.59 73.18 138.69 72.97C137.72 72.87 132.65 72.82 131.42 72.82C131.16 72.82 131.11 73.02 131.11 73.33V77.38C131.11 79.12 131.06 83.83 131.11 85.32C131.21 88.85 132.03 89.62 137.25 89.62C138.58 89.62 140.73 89.62 142.06 89.01C143.39 88.39 144.01 87.32 144.36 85.22C144.46 84.66 144.57 84.45 144.92 84.45C145.33 84.45 145.33 84.86 145.33 85.37C145.33 86.55 144.92 90.03 144.66 91.05C144.3 92.38 143.84 92.38 141.89 92.38C138.05 92.38 135.23 92.28 133.03 92.23C130.83 92.13 129.24 92.08 127.7 92.08C127.14 92.08 126.01 92.08 124.78 92.13C123.6 92.13 122.27 92.23 121.25 92.23C120.58 92.23 120.23 92.08 120.23 91.72C120.23 91.46 120.44 91.31 121.05 91.31C121.82 91.31 122.43 91.21 122.89 91.11C123.91 90.9 124.17 89.78 124.38 88.29C124.64 86.14 124.64 82.09 124.64 77.38V68.37L124.65 68.38Z" fill="#D8A422"/>
<path d="M164.44 77.39C164.44 83.94 164.44 87.48 165.52 88.4C166.39 89.17 167.72 89.53 171.72 89.53C174.43 89.53 176.43 89.48 177.71 88.1C178.32 87.43 178.94 86 179.04 85.03C179.09 84.57 179.19 84.26 179.6 84.26C179.96 84.26 180.01 84.52 180.01 85.13C180.01 85.69 179.65 89.53 179.24 91.02C178.93 92.15 178.68 92.4 176.01 92.4C172.32 92.4 169.66 92.3 167.36 92.25C165.06 92.15 163.21 92.1 161.11 92.1C160.55 92.1 159.42 92.1 158.19 92.15C157.01 92.15 155.68 92.25 154.66 92.25C153.99 92.25 153.64 92.1 153.64 91.74C153.64 91.48 153.84 91.33 154.46 91.33C155.23 91.33 155.84 91.23 156.3 91.13C157.32 90.92 157.58 89.8 157.79 88.31C158.05 86.16 158.05 82.11 158.05 77.4V68.39C158.05 60.61 158.05 59.17 157.95 57.53C157.85 55.79 157.44 54.97 155.75 54.61C155.34 54.51 154.73 54.46 154.06 54.46C153.5 54.46 153.19 54.36 153.19 54C153.19 53.64 153.55 53.54 154.32 53.54C156.73 53.54 159.95 53.69 161.34 53.69C162.57 53.69 166.31 53.54 168.3 53.54C169.02 53.54 169.38 53.64 169.38 54C169.38 54.36 169.07 54.46 168.46 54.46C167.9 54.46 167.08 54.51 166.46 54.61C165.08 54.87 164.67 55.74 164.56 57.53C164.46 59.17 164.46 60.6 164.46 68.39V77.4L164.44 77.39Z" fill="#D8A422"/>
<path d="M190.05 68.38C190.05 60.6 190.05 59.16 189.95 57.52C189.85 55.78 189.44 54.96 187.75 54.6C187.34 54.5 186.47 54.45 185.75 54.45C185.19 54.45 184.88 54.35 184.88 53.99C184.88 53.63 185.24 53.53 186.01 53.53C187.39 53.53 188.88 53.58 190.16 53.58C191.49 53.63 192.67 53.68 193.39 53.68C195.03 53.68 205.22 53.68 206.19 53.63C207.16 53.53 207.98 53.43 208.39 53.32C208.65 53.27 208.95 53.11 209.21 53.11C209.47 53.11 209.52 53.32 209.52 53.57C209.52 53.93 209.26 54.54 209.11 56.9C209.06 57.41 208.96 59.67 208.85 60.28C208.8 60.54 208.7 60.84 208.34 60.84C207.98 60.84 207.88 60.58 207.88 60.12C207.88 59.76 207.83 58.89 207.57 58.28C207.21 57.36 206.7 56.74 204.14 56.44C203.27 56.34 197.89 56.23 196.87 56.23C196.61 56.23 196.51 56.38 196.51 56.74V69.7C196.51 70.06 196.56 70.26 196.87 70.26C198 70.26 203.89 70.26 205.06 70.16C206.29 70.06 207.06 69.9 207.52 69.39C207.88 68.98 208.08 68.72 208.34 68.72C208.55 68.72 208.7 68.82 208.7 69.13C208.7 69.44 208.49 70.26 208.29 72.87C208.24 73.89 208.09 75.94 208.09 76.3C208.09 76.71 208.09 77.27 207.63 77.27C207.27 77.27 207.17 77.06 207.17 76.81C207.12 76.3 207.12 75.63 206.96 74.97C206.7 73.95 205.99 73.18 204.09 72.97C203.12 72.87 198.05 72.82 196.82 72.82C196.56 72.82 196.51 73.02 196.51 73.33V77.38C196.51 79.12 196.46 83.83 196.51 85.32C196.61 88.85 197.43 89.62 202.65 89.62C203.98 89.62 206.13 89.62 207.46 89.01C208.79 88.39 209.41 87.32 209.76 85.22C209.86 84.66 209.97 84.45 210.32 84.45C210.73 84.45 210.73 84.86 210.73 85.37C210.73 86.55 210.32 90.03 210.06 91.05C209.7 92.38 209.24 92.38 207.29 92.38C203.45 92.38 200.63 92.28 198.43 92.23C196.23 92.13 194.64 92.08 193.1 92.08C192.54 92.08 191.41 92.08 190.18 92.13C189 92.13 187.67 92.23 186.65 92.23C185.98 92.23 185.63 92.08 185.63 91.72C185.63 91.46 185.84 91.31 186.45 91.31C187.22 91.31 187.83 91.21 188.29 91.11C189.31 90.9 189.57 89.78 189.78 88.29C190.04 86.14 190.04 82.09 190.04 77.38V68.37L190.05 68.38Z" fill="#D8A422"/>
<path d="M220.62 91.63C219.8 91.27 219.65 91.02 219.65 89.89C219.65 87.07 219.86 84 219.91 83.18C219.96 82.41 220.11 81.85 220.52 81.85C220.98 81.85 221.03 82.31 221.03 82.72C221.03 83.39 221.24 84.46 221.49 85.33C222.62 89.12 225.64 90.5 228.81 90.5C233.42 90.5 235.67 87.38 235.67 84.66C235.67 82.15 234.9 79.79 230.65 76.47L228.29 74.63C222.66 70.23 220.71 66.64 220.71 62.49C220.71 56.86 225.42 52.81 232.54 52.81C235.87 52.81 238.02 53.32 239.35 53.68C239.81 53.78 240.07 53.94 240.07 54.29C240.07 54.96 239.87 56.44 239.87 60.44C239.87 61.57 239.72 61.98 239.31 61.98C238.95 61.98 238.8 61.67 238.8 61.06C238.8 60.6 238.54 59.01 237.47 57.68C236.7 56.71 235.22 55.17 231.89 55.17C228.1 55.17 225.8 57.37 225.8 60.44C225.8 62.8 226.98 64.59 231.23 67.81L232.66 68.89C238.86 73.55 241.06 77.08 241.06 81.95C241.06 84.92 239.93 88.45 236.25 90.86C233.69 92.5 230.82 92.96 228.11 92.96C225.14 92.96 222.84 92.6 220.63 91.63H220.62Z" fill="#D8A422"/>
<path d="M251.45 91.63C250.63 91.27 250.48 91.02 250.48 89.89C250.48 87.07 250.69 84 250.74 83.18C250.79 82.41 250.94 81.85 251.35 81.85C251.81 81.85 251.86 82.31 251.86 82.72C251.86 83.39 252.07 84.46 252.32 85.33C253.45 89.12 256.47 90.5 259.64 90.5C264.25 90.5 266.5 87.38 266.5 84.66C266.5 82.15 265.73 79.79 261.48 76.47L259.12 74.63C253.49 70.23 251.54 66.64 251.54 62.49C251.54 56.86 256.25 52.81 263.37 52.81C266.7 52.81 268.85 53.32 270.18 53.68C270.64 53.78 270.9 53.94 270.9 54.29C270.9 54.96 270.69 56.44 270.69 60.44C270.69 61.57 270.54 61.98 270.13 61.98C269.77 61.98 269.62 61.67 269.62 61.06C269.62 60.6 269.36 59.01 268.29 57.68C267.52 56.71 266.04 55.17 262.71 55.17C258.92 55.17 256.62 57.37 256.62 60.44C256.62 62.8 257.8 64.59 262.05 67.81L263.48 68.89C269.68 73.55 271.88 77.08 271.88 81.95C271.88 84.92 270.75 88.45 267.07 90.86C264.51 92.5 261.64 92.96 258.93 92.96C255.96 92.96 253.66 92.6 251.45 91.63Z" fill="#D8A422"/>
<path d="M296.77 58.54C295.59 55.72 294.72 55.16 292.88 54.65C292.11 54.44 291.29 54.44 290.88 54.44C290.42 54.44 290.27 54.29 290.27 53.98C290.27 53.57 290.83 53.52 291.6 53.52C294.31 53.52 297.23 53.67 299.03 53.67C300.31 53.67 302.77 53.52 305.33 53.52C305.94 53.52 306.51 53.62 306.51 53.98C306.51 54.34 306.2 54.44 305.74 54.44C304.92 54.44 304.15 54.49 303.74 54.8C303.38 55.06 303.23 55.41 303.23 55.88C303.23 56.55 303.69 57.98 304.41 59.82L313.22 83.07H313.43C315.63 77.44 322.29 60.95 323.52 57.57C323.78 56.9 323.98 56.14 323.98 55.68C323.98 55.27 323.77 54.86 323.31 54.71C322.7 54.5 321.93 54.45 321.26 54.45C320.8 54.45 320.39 54.4 320.39 54.04C320.39 53.63 320.85 53.53 321.82 53.53C324.38 53.53 326.53 53.68 327.2 53.68C328.07 53.68 330.48 53.53 332.01 53.53C332.68 53.53 333.09 53.63 333.09 53.99C333.09 54.35 332.78 54.45 332.27 54.45C331.76 54.45 330.68 54.45 329.76 55.07C329.09 55.53 328.33 56.4 326.94 59.68C324.94 64.49 323.56 67.26 320.8 73.56C317.52 81.04 315.12 86.62 313.99 89.18C312.66 92.15 312.35 92.97 311.63 92.97C310.96 92.97 310.66 92.25 309.68 89.85L296.78 58.56L296.77 58.54Z" fill="#D8A422"/>
<path d="M339.59 68.38C339.59 60.6 339.59 59.16 339.49 57.52C339.39 55.78 338.88 54.91 337.75 54.65C337.19 54.5 336.52 54.44 335.91 54.44C335.4 54.44 335.09 54.34 335.09 53.93C335.09 53.62 335.5 53.52 336.32 53.52C338.27 53.52 341.49 53.67 342.98 53.67C344.26 53.67 347.28 53.52 349.23 53.52C349.9 53.52 350.31 53.62 350.31 53.93C350.31 54.34 350 54.44 349.49 54.44C348.98 54.44 348.57 54.49 347.95 54.59C346.57 54.85 346.16 55.72 346.06 57.51C345.96 59.15 345.96 60.58 345.96 68.37V77.38C345.96 82.35 345.96 86.39 346.17 88.59C346.32 89.97 346.68 90.89 348.22 91.1C348.94 91.2 350.06 91.3 350.83 91.3C351.39 91.3 351.65 91.45 351.65 91.71C351.65 92.07 351.24 92.22 350.68 92.22C347.3 92.22 344.07 92.07 342.69 92.07C341.51 92.07 338.29 92.22 336.24 92.22C335.57 92.22 335.22 92.07 335.22 91.71C335.22 91.45 335.43 91.3 336.04 91.3C336.81 91.3 337.42 91.2 337.88 91.1C338.9 90.89 339.21 90.02 339.37 88.54C339.63 86.39 339.63 82.34 339.63 77.38V68.37L339.59 68.38Z" fill="#D8A422"/>
<path d="M370.16 77.39C370.16 83.94 370.16 87.48 371.24 88.4C372.11 89.17 373.44 89.53 377.44 89.53C380.15 89.53 382.15 89.48 383.43 88.1C384.04 87.43 384.66 86 384.76 85.03C384.81 84.57 384.91 84.26 385.32 84.26C385.68 84.26 385.73 84.52 385.73 85.13C385.73 85.69 385.37 89.53 384.96 91.02C384.65 92.15 384.4 92.4 381.73 92.4C378.04 92.4 375.38 92.3 373.08 92.25C370.78 92.15 368.93 92.1 366.83 92.1C366.27 92.1 365.14 92.1 363.91 92.15C362.73 92.15 361.4 92.25 360.38 92.25C359.71 92.25 359.36 92.1 359.36 91.74C359.36 91.48 359.57 91.33 360.18 91.33C360.95 91.33 361.56 91.23 362.02 91.13C363.04 90.92 363.3 89.8 363.51 88.31C363.77 86.16 363.77 82.11 363.77 77.4V68.39C363.77 60.61 363.77 59.17 363.67 57.53C363.57 55.79 363.16 54.97 361.47 54.61C361.06 54.51 360.45 54.46 359.78 54.46C359.22 54.46 358.91 54.36 358.91 54C358.91 53.64 359.27 53.54 360.04 53.54C362.45 53.54 365.67 53.69 367.06 53.69C368.29 53.69 372.03 53.54 374.02 53.54C374.74 53.54 375.1 53.64 375.1 54C375.1 54.36 374.79 54.46 374.18 54.46C373.62 54.46 372.8 54.51 372.18 54.61C370.8 54.87 370.39 55.74 370.28 57.53C370.18 59.17 370.18 60.6 370.18 68.39V77.4L370.16 77.39Z" fill="#D8A422"/>
<path d="M402.17 77.39C402.17 83.94 402.17 87.48 403.25 88.4C404.12 89.17 405.45 89.53 409.45 89.53C412.16 89.53 414.16 89.48 415.44 88.1C416.05 87.43 416.67 86 416.77 85.03C416.82 84.57 416.92 84.26 417.33 84.26C417.69 84.26 417.74 84.52 417.74 85.13C417.74 85.69 417.38 89.53 416.97 91.02C416.66 92.15 416.41 92.4 413.74 92.4C410.05 92.4 407.39 92.3 405.09 92.25C402.79 92.15 400.94 92.1 398.84 92.1C398.28 92.1 397.15 92.1 395.92 92.15C394.74 92.15 393.41 92.25 392.39 92.25C391.72 92.25 391.37 92.1 391.37 91.74C391.37 91.48 391.58 91.33 392.19 91.33C392.96 91.33 393.57 91.23 394.03 91.13C395.05 90.92 395.31 89.8 395.52 88.31C395.78 86.16 395.78 82.11 395.78 77.4V68.39C395.78 60.61 395.78 59.17 395.68 57.53C395.58 55.79 395.17 54.97 393.48 54.61C393.07 54.51 392.46 54.46 391.79 54.46C391.23 54.46 390.92 54.36 390.92 54C390.92 53.64 391.28 53.54 392.05 53.54C394.46 53.54 397.68 53.69 399.07 53.69C400.3 53.69 404.04 53.54 406.03 53.54C406.75 53.54 407.11 53.64 407.11 54C407.11 54.36 406.8 54.46 406.19 54.46C405.63 54.46 404.81 54.51 404.19 54.61C402.81 54.87 402.4 55.74 402.3 57.53C402.2 59.17 402.2 60.6 402.2 68.39V77.4L402.17 77.39Z" fill="#D8A422"/>
<path d="M430.85 78.87C430.59 78.87 430.49 78.97 430.39 79.28L427.63 86.6C427.12 87.88 426.86 89.11 426.86 89.72C426.86 90.64 427.32 91.31 428.91 91.31H429.68C430.29 91.31 430.45 91.41 430.45 91.72C430.45 92.13 430.14 92.23 429.58 92.23C427.94 92.23 425.74 92.08 424.15 92.08C423.59 92.08 420.77 92.23 418.11 92.23C417.45 92.23 417.14 92.13 417.14 91.72C417.14 91.41 417.35 91.31 417.75 91.31C418.21 91.31 418.93 91.26 419.34 91.21C421.7 90.9 422.67 89.16 423.69 86.6L436.54 54.44C437.15 52.96 437.46 52.39 437.97 52.39C438.43 52.39 438.74 52.85 439.25 54.03C440.48 56.85 448.67 77.74 451.95 85.52C453.9 90.13 455.38 90.85 456.46 91.1C457.23 91.25 458 91.3 458.61 91.3C459.02 91.3 459.28 91.35 459.28 91.71C459.28 92.12 458.82 92.22 456.92 92.22C455.02 92.22 451.34 92.22 447.24 92.12C446.32 92.07 445.7 92.07 445.7 91.71C445.7 91.4 445.9 91.3 446.42 91.25C446.78 91.15 447.14 90.69 446.88 90.07L442.78 79.21C442.68 78.95 442.52 78.85 442.27 78.85H430.85V78.87ZM441.3 76.31C441.56 76.31 441.61 76.16 441.56 76L436.95 63.35C436.9 63.14 436.85 62.89 436.69 62.89C436.53 62.89 436.43 63.15 436.38 63.35L431.67 75.95C431.62 76.16 431.67 76.31 431.88 76.31H441.3Z" fill="#D8A422"/>
<path d="M9.18985 147.21C4.16985 142.81 2.83984 137.07 2.83984 132.1C2.83984 128.62 3.91983 122.57 8.82983 118.07C12.5198 114.69 17.3799 112.64 25.0099 112.64C28.1799 112.64 30.0798 112.85 32.4298 113.15C34.3798 113.41 36.0198 113.87 37.5498 114.02C38.1098 114.07 38.3199 114.33 38.3199 114.63C38.3199 115.04 38.1698 115.65 38.0598 117.45C37.9598 119.14 38.0099 121.96 37.9099 122.98C37.8599 123.75 37.7599 124.16 37.2899 124.16C36.8799 124.16 36.7798 123.75 36.7798 123.03C36.7298 121.44 36.0598 119.65 34.7798 118.32C33.0898 116.53 29.0999 115.15 24.3799 115.15C19.9199 115.15 17.0098 116.28 14.7498 118.32C11.0098 121.75 10.0399 126.62 10.0399 131.58C10.0399 143.77 19.3099 149.81 26.1699 149.81C30.7299 149.81 33.4899 149.3 35.5399 146.94C36.4099 145.97 37.0798 144.48 37.2798 143.56C37.4298 142.74 37.5399 142.54 37.9499 142.54C38.3099 142.54 38.4099 142.9 38.4099 143.31C38.4099 143.92 37.7998 148.38 37.2798 150.12C37.0198 150.99 36.8199 151.25 35.9499 151.6C33.8999 152.42 30.0099 152.78 26.7299 152.78C19.7099 152.78 13.8299 151.24 9.16986 147.2L9.18985 147.21Z" fill="#231815"/>
<path d="M44.8301 132.71C44.8301 123.95 50.6201 112.64 65.9801 112.64C78.7301 112.64 86.6701 120.07 86.6701 131.79C86.6701 143.51 78.4801 152.79 65.4701 152.79C50.7701 152.79 44.8301 141.78 44.8301 132.72V132.71ZM79.5001 133.68C79.5001 122.21 72.8901 115.09 64.5001 115.09C58.6101 115.09 51.9001 118.37 51.9001 131.12C51.9001 141.77 57.7901 150.22 67.6201 150.22C71.2001 150.22 79.5001 148.48 79.5001 133.68Z" fill="#231815"/>
<path d="M100.55 113.56C100.7 112.69 101.01 112.23 101.42 112.23C101.83 112.23 102.14 112.49 102.8 113.82L116.78 142.7L130.71 113.46C131.12 112.64 131.38 112.23 131.84 112.23C132.3 112.23 132.61 112.74 132.76 113.82L137.42 145.47C137.88 148.7 138.39 150.18 139.93 150.64C141.42 151.1 142.44 151.15 143.11 151.15C143.57 151.15 143.93 151.2 143.93 151.51C143.93 151.92 143.32 152.07 142.6 152.07C141.32 152.07 134.25 151.92 132.2 151.76C131.02 151.66 130.72 151.5 130.72 151.2C130.72 150.94 130.92 150.79 131.28 150.64C131.59 150.54 131.74 149.87 131.54 148.44L128.47 125.91H128.27L117.11 149.16C115.93 151.57 115.68 152.03 115.22 152.03C114.76 152.03 114.25 151.01 113.43 149.47C112.2 147.11 108.16 139.28 107.54 137.85C107.08 136.77 104.01 130.32 102.21 126.48H102L99.3401 146.86C99.2401 147.78 99.1901 148.45 99.1901 149.27C99.1901 150.24 99.86 150.7 100.73 150.91C101.65 151.12 102.37 151.17 102.88 151.17C103.29 151.17 103.65 151.27 103.65 151.53C103.65 151.99 103.19 152.09 102.42 152.09C100.27 152.09 97.96 151.94 97.04 151.94C96.07 151.94 93.61 152.09 91.97 152.09C91.46 152.09 91.05 151.99 91.05 151.53C91.05 151.27 91.3601 151.17 91.8701 151.17C92.2801 151.17 92.64 151.17 93.41 151.02C94.84 150.71 95.2501 148.72 95.5101 146.98L100.58 113.59L100.55 113.56Z" fill="#231815"/>
<path d="M153.1 128.21C153.1 120.43 153.1 118.99 153 117.35C152.9 115.61 152.39 114.74 151.26 114.48C150.7 114.33 150.03 114.27 149.42 114.27C148.91 114.27 148.6 114.17 148.6 113.76C148.6 113.45 149.01 113.35 149.83 113.35C151.78 113.35 155 113.5 156.49 113.5C157.77 113.5 160.79 113.35 162.74 113.35C163.41 113.35 163.82 113.45 163.82 113.76C163.82 114.17 163.51 114.27 163 114.27C162.49 114.27 162.08 114.32 161.46 114.42C160.08 114.68 159.67 115.55 159.57 117.34C159.47 118.98 159.47 120.41 159.47 128.2V137.21C159.47 142.18 159.47 146.22 159.68 148.42C159.83 149.8 160.19 150.72 161.73 150.93C162.45 151.03 163.57 151.13 164.34 151.13C164.9 151.13 165.16 151.28 165.16 151.54C165.16 151.9 164.75 152.05 164.19 152.05C160.81 152.05 157.58 151.9 156.2 151.9C155.02 151.9 151.8 152.05 149.75 152.05C149.08 152.05 148.73 151.9 148.73 151.54C148.73 151.28 148.94 151.13 149.55 151.13C150.32 151.13 150.93 151.03 151.39 150.93C152.41 150.73 152.72 149.85 152.88 148.37C153.14 146.22 153.14 142.17 153.14 137.21V128.2L153.1 128.21Z" fill="#231815"/>
<path d="M180.14 145.11C180.24 149.1 180.91 150.44 181.93 150.79C182.8 151.1 183.77 151.15 184.59 151.15C185.15 151.15 185.46 151.25 185.46 151.56C185.46 151.97 185 152.07 184.28 152.07C180.95 152.07 178.9 151.92 177.93 151.92C177.47 151.92 175.06 152.07 172.4 152.07C171.73 152.07 171.27 152.02 171.27 151.56C171.27 151.25 171.58 151.15 172.09 151.15C172.76 151.15 173.68 151.1 174.39 150.89C175.72 150.48 175.93 149 175.98 144.54L176.44 114.22C176.44 113.2 176.59 112.48 177.11 112.48C177.67 112.48 178.13 113.15 179.01 114.07C179.62 114.74 187.41 123.08 194.88 130.51C198.36 133.99 205.28 141.37 206.15 142.19H206.41L205.9 119.2C205.85 116.08 205.39 115.1 204.16 114.59C203.39 114.28 202.16 114.28 201.45 114.28C200.84 114.28 200.63 114.13 200.63 113.82C200.63 113.41 201.19 113.36 201.96 113.36C204.62 113.36 207.08 113.51 208.16 113.51C208.72 113.51 210.67 113.36 213.18 113.36C213.85 113.36 214.36 113.41 214.36 113.82C214.36 114.13 214.05 114.28 213.44 114.28C212.93 114.28 212.52 114.28 211.9 114.43C210.47 114.84 210.06 115.91 210.01 118.78L209.45 151.09C209.45 152.22 209.24 152.68 208.78 152.68C208.22 152.68 207.6 152.12 207.04 151.55C203.81 148.48 197.26 141.77 191.93 136.49C186.35 130.96 180.66 124.56 179.74 123.59H179.59L180.15 145.1L180.14 145.11Z" fill="#231815"/>
<path d="M257.36 148.64C257.36 150.02 257.31 150.13 256.7 150.48C253.37 152.22 248.35 152.78 244.36 152.78C231.81 152.78 220.7 146.84 220.7 132.71C220.7 124.52 224.95 118.78 229.61 115.96C234.53 112.99 239.08 112.63 243.39 112.63C246.92 112.63 251.43 113.25 252.45 113.45C253.53 113.66 255.32 113.96 256.5 114.01C257.11 114.06 257.22 114.27 257.22 114.62C257.22 115.18 256.86 116.62 256.86 123.02C256.86 123.84 256.71 124.1 256.3 124.1C255.94 124.1 255.84 123.84 255.79 123.44C255.64 122.26 255.38 120.62 254.05 119.19C252.51 117.55 248.42 115.2 242.63 115.2C239.81 115.2 236.08 115.41 232.49 118.37C229.62 120.78 227.78 124.62 227.78 130.92C227.78 141.93 234.8 150.17 245.6 150.17C246.93 150.17 248.72 150.17 249.95 149.61C250.72 149.25 250.92 148.59 250.92 147.72V142.91C250.92 140.35 250.92 138.4 250.87 136.87C250.82 135.13 250.36 134.31 248.67 133.95C248.26 133.85 247.39 133.8 246.67 133.8C246.21 133.8 245.9 133.7 245.9 133.39C245.9 132.98 246.26 132.88 246.98 132.88C249.64 132.88 252.87 133.03 254.4 133.03C255.93 133.03 258.7 132.88 260.39 132.88C261.06 132.88 261.41 132.98 261.41 133.39C261.41 133.7 261.1 133.8 260.74 133.8C260.33 133.8 259.97 133.85 259.36 133.95C257.98 134.21 257.47 135.08 257.41 136.87C257.36 138.41 257.36 140.46 257.36 143.02V148.65V148.64Z" fill="#231815"/>
<path d="M286.25 151.46C285.43 151.1 285.28 150.85 285.28 149.72C285.28 146.9 285.49 143.83 285.54 143.01C285.59 142.24 285.74 141.68 286.15 141.68C286.61 141.68 286.66 142.14 286.66 142.55C286.66 143.22 286.87 144.29 287.12 145.16C288.25 148.95 291.27 150.33 294.44 150.33C299.05 150.33 301.3 147.21 301.3 144.49C301.3 141.98 300.53 139.62 296.28 136.3L293.92 134.46C288.29 130.06 286.34 126.47 286.34 122.32C286.34 116.69 291.05 112.64 298.17 112.64C301.5 112.64 303.65 113.15 304.98 113.51C305.44 113.61 305.7 113.77 305.7 114.12C305.7 114.79 305.49 116.27 305.49 120.27C305.49 121.4 305.34 121.81 304.93 121.81C304.57 121.81 304.42 121.5 304.42 120.89C304.42 120.43 304.16 118.84 303.09 117.51C302.32 116.54 300.84 115 297.51 115C293.72 115 291.42 117.2 291.42 120.27C291.42 122.63 292.6 124.42 296.85 127.64L298.28 128.72C304.48 133.38 306.68 136.91 306.68 141.78C306.68 144.75 305.55 148.28 301.87 150.69C299.31 152.33 296.44 152.79 293.73 152.79C290.76 152.79 288.46 152.43 286.25 151.46Z" fill="#231815"/>
<path d="M314.32 132.71C314.32 123.95 320.11 112.64 335.47 112.64C348.22 112.64 356.16 120.07 356.16 131.79C356.16 143.51 347.97 152.79 334.96 152.79C320.26 152.79 314.32 141.78 314.32 132.72V132.71ZM348.99 133.68C348.99 122.21 342.38 115.09 333.99 115.09C328.1 115.09 321.39 118.37 321.39 131.12C321.39 141.77 327.28 150.22 337.11 150.22C340.69 150.22 348.99 148.48 348.99 133.68Z" fill="#231815"/>
<path d="M362.81 132.71C362.81 123.95 368.6 112.64 383.96 112.64C396.71 112.64 404.65 120.07 404.65 131.79C404.65 143.51 396.46 152.79 383.45 152.79C368.75 152.79 362.81 141.78 362.81 132.72V132.71ZM397.48 133.68C397.48 122.21 390.87 115.09 382.48 115.09C376.59 115.09 369.88 118.37 369.88 131.12C369.88 141.77 375.77 150.22 385.6 150.22C389.18 150.22 397.48 148.48 397.48 133.68Z" fill="#231815"/>
<path d="M419.25 145.11C419.35 149.1 420.02 150.44 421.04 150.79C421.91 151.1 422.88 151.15 423.7 151.15C424.26 151.15 424.57 151.25 424.57 151.56C424.57 151.97 424.11 152.07 423.39 152.07C420.06 152.07 418.01 151.92 417.04 151.92C416.58 151.92 414.17 152.07 411.51 152.07C410.84 152.07 410.38 152.02 410.38 151.56C410.38 151.25 410.69 151.15 411.2 151.15C411.86 151.15 412.79 151.1 413.5 150.89C414.83 150.48 415.04 149 415.09 144.54L415.55 114.22C415.55 113.2 415.7 112.48 416.22 112.48C416.78 112.48 417.24 113.15 418.12 114.07C418.73 114.74 426.52 123.08 433.99 130.51C437.47 133.99 444.39 141.37 445.26 142.19H445.52L445.01 119.2C444.96 116.08 444.5 115.1 443.27 114.59C442.5 114.28 441.27 114.28 440.56 114.28C439.95 114.28 439.74 114.13 439.74 113.82C439.74 113.41 440.3 113.36 441.07 113.36C443.73 113.36 446.19 113.51 447.27 113.51C447.83 113.51 449.78 113.36 452.29 113.36C452.96 113.36 453.47 113.41 453.47 113.82C453.47 114.13 453.16 114.28 452.55 114.28C452.04 114.28 451.63 114.28 451.01 114.43C449.58 114.84 449.17 115.91 449.12 118.78L448.56 151.09C448.56 152.22 448.35 152.68 447.89 152.68C447.33 152.68 446.71 152.12 446.15 151.55C442.92 148.48 436.37 141.77 431.04 136.49C425.46 130.96 419.77 124.56 418.85 123.59H418.7L419.26 145.1L419.25 145.11Z" fill="#231815"/>
</svg>
