<?xml version="1.0" encoding="utf-8"?>
<!-- Generator: Adobe Illustrator 26.5.0, SVG Export Plug-In . SVG Version: 6.00 Build 0)  -->
<svg version="1.1" id="圖層_1" xmlns="http://www.w3.org/2000/svg" xmlns:xlink="http://www.w3.org/1999/xlink" x="0px" y="0px"
	 viewBox="0 0 653 212" style="enable-background:new 0 0 653 212;" xml:space="preserve">
<style type="text/css">
	.st0{fill:#606060;}
	.st1{fill:#FFFFFF;}
</style>
<rect x="-390.6" y="-42" class="st0" width="1082.6" height="410.1"/>
<path class="st1" d="M46.4,11.3v28.8h-5.6v-3.3H26V56h-5.6V36.8H5.6v3.6H0.3V11.3h20.2V0.8H26v10.5H46.4L46.4,11.3z M20.4,31.4V16.8
	H5.6v14.6H20.4z M40.9,31.4V16.8H26v14.6H40.9z M109,13.2v42.7h-5.5v-4.3H63.8V13.4h5.5v32.5h14.2V1.3h5.6v44.5h14.4V13.2H109z
	 M147.7,40.2l0.9,5c-8.1,3.6-17,7.4-23.5,10.2l-2.4-5.7c4-1.4,9.7-3.5,15.7-5.9V21h-13.9v-5.6h13.9V1.8h5.5v39.9L147.7,40.2z
	 M166.5,48.4c2.3,0,2.7-2.8,3-14c1.3,1.1,3.7,2.3,5.1,2.7c-0.5,12.4-1.8,16.8-7.7,16.8h-7.3c-5.6,0-7.2-2-7.2-9.2V1.8h5.6v13.6h15.4
	v5.6h-15.4v23.9c0,3.1,0.3,3.6,2.3,3.6L166.5,48.4L166.5,48.4z M235.1,8c-1.8,6.3-4.6,11.6-8.2,16.1c3.5,3.3,7.6,6.1,12.5,7.9
	c-1,1-2.6,3.3-3.3,4.6l-1.1-0.5v19.6h-5.1v-1.9h-12.8v2.1h-4.9V36.2c-0.9,0.4-1.7,0.8-2.5,1.2c-0.3-0.7-0.9-1.6-1.5-2.5V35h-6.7v9.5
	l7.1-1.7l0.5,4.9c-7.8,2.1-16.1,4.2-22.3,5.7l-0.9-5.4c0.9-0.2,1.8-0.4,2.7-0.5V27.1h4.4v19.4l3.8-0.9V22.1h-8v-19h18.9v15.4
	c4.3-4.4,7.9-10.9,9.9-17.9l5.2,1.3c-0.5,1.6-1.1,3.1-1.7,4.6h9.7l0.9-0.2L235.1,8L235.1,8z M193.5,17.2h9.3V7.9h-9.3V17.2z
	 M208.2,32.5c4.3-1.9,8.5-4.8,12.1-8.6c-1.8-2.3-3.3-4.6-4.5-6.9c-1.4,2.1-2.9,4-4.4,5.7c-0.8-0.9-2.5-2.3-3.7-3.3v2.7h-6.2v8h6.7
	L208.2,32.5L208.2,32.5z M231.5,34.2c-3-1.8-5.6-4-7.9-6.4c-2.4,2.5-5.1,4.6-7.9,6.4H231.5z M229.9,49V39h-12.8v10H229.9z M219,11.4
	l-0.5,1.1c1.3,2.6,2.9,5.2,5,7.7c2.1-2.7,3.8-5.6,5.1-8.8H219z M270.9,33.8c-0.2,1.6-0.5,3.1-0.9,4.6h24.4c0,0-0.1,1.4-0.2,2.2
	c-0.8,8-1.6,11.6-3.3,13.2c-1.3,1.2-2.7,1.6-4.8,1.7c-1.8,0.1-5.2,0.1-8.7-0.1c-0.1-1.4-0.7-3.4-1.6-4.8c3.3,0.3,6.8,0.4,8.1,0.4
	c1.1,0,1.8-0.1,2.3-0.5c0.8-0.7,1.4-2.8,2-7.4h-19.9c-2.6,5.9-7.3,10.2-17,13c-0.5-1.4-1.9-3.7-3-4.8c12.7-3.1,15.6-9.3,16.8-17.5
	h-15.4V29h23.4c-0.6-1.6-1.3-3.3-2-4.7l5.7-1.2c1.1,1.7,2.2,4.1,2.7,5.9h21.1v4.8H270.9L270.9,33.8z M256.5,27.3h-5V17.1h13.2
	c-0.9-1.6-2.2-3.5-3.5-4.9l2.9-1.3h-12.6V6h21.8c-0.6-1.4-1.4-3-2.1-4.3l5.3-1.6c1.1,1.8,2.2,4.1,2.9,5.9h19.8v4.8h-13.6l4.4,1.5
	c-1.1,1.6-2.2,3.3-3.3,4.8h12.5v10.2h-5.2v-5.4h-37.4V27.3L256.5,27.3z M266.4,10.8c1.6,1.7,3,3.8,3.7,5.4l-1.7,0.9H281
	c1.1-1.9,2.3-4.4,3.1-6.3H266.4z M320.2,31c0-3.2,2.3-5.5,5.2-5.5s5.2,2.3,5.2,5.5s-2.3,5.4-5.2,5.4S320.2,34.2,320.2,31z
	 M354.8,16.1c-0.8,1.1-1.6,2.1-2.5,3c-0.5-0.9-1.9-3-2.7-3.9c3.5-3.6,6.5-8.9,8.3-14.4L362,2c-0.6,1.7-1.3,3.6-2.1,5.3h5.7
	c-0.6-1.6-1.3-3.5-2.1-5l4.4-1.3c1,1.9,2.2,4.5,2.8,6.3h4.9V11h-6.5v3h5.3v0.8c3.2-3.7,6.1-8.9,7.8-14l4.3,1.3
	c-0.6,1.7-1.4,3.6-2.2,5.2h5.6c-0.6-1.6-1.3-3.4-2.1-4.8l4.4-1.3c1,1.9,2.1,4.3,2.7,6.1h5.8V11h-7.4v3h6.2v3.5h-6.2v3h6.2v3.5h-6.2
	v3h8.2v3.7h-22.3V16.1c-0.9,1.3-1.7,2.3-2.6,3.3c-0.4-0.7-1.4-1.9-2.1-2.9l-0.1,0.8h-5.3v3h5.3v3.6h-5.3v3h7v3.7h-21.3L354.8,16.1
	L354.8,16.1z M395.9,35.7c-2.9,4.8-7.1,8.5-12.1,11.4c5.5,1.6,11.5,2.6,17.9,3.2c-1.2,1.3-2.6,3.8-3.3,5.3
	c-7.9-0.9-15.2-2.5-21.6-5.1c-7.4,2.9-15.8,4.6-24.2,5.6c-0.4-1.5-1.3-3.7-2.2-5.1c6.8-0.6,13.7-1.7,19.9-3.6
	c-4-2.3-7.4-5.1-10.3-8.4l1.6-0.8h-8v-4.6h37.8l1-0.2L395.9,35.7L395.9,35.7z M364.8,11h-5.4v3h5.4V11z M364.8,17.4h-5.4v3h5.4V17.4
	z M364.8,23.9h-5.4v3h5.4V23.9z M366.2,38.2c2.8,2.6,6.5,4.8,10.9,6.6c4-1.8,7.4-4,10.1-6.6H366.2z M388.9,11h-5.3v3h5.3V11z
	 M388.9,17.5h-5.3v3h5.3V17.5z M388.9,23.9h-5.3v3h5.3V23.9z M419,40.5c-0.6,4.8-1.7,10.4-2.6,14.1c-1-0.5-2.9-1-4.1-1.2
	c1.1-3.7,2-9,2.5-13.8L419,40.5L419,40.5z M429.8,37c-0.2-0.8-0.4-1.7-0.7-2.8c-11.6,1.9-13.5,2.4-14.5,3c-0.3-1.1-1-3.5-1.7-4.8
	c1.3-0.4,2.6-1.8,4.3-4.1c0.8-1,2.4-3.2,4.2-6c-5.2,0.6-6.5,1-7.3,1.3c-0.3-1.1-1.1-3.5-1.7-4.8c1-0.3,2-1.5,3-3.3
	c1.1-1.7,4.7-8.4,6.8-14.8l4.8,2c-2.2,5.2-5,10.8-8,15.3l5.2-0.5c1.5-2.7,3.1-5.5,4.3-8.4l4.3,2.7c-3.5,6.8-7.9,13.8-12.4,19.3
	l7.4-1.1c-0.6-1.8-1.2-3.6-1.8-5.2l3.6-1.1c1.4,3.7,3.1,8.7,3.9,11.7L429.8,37L429.8,37z M424.4,39.2c0.7,4,1.4,9.2,1.6,12.6l-4,1.1
	c-0.1-3.5-0.7-8.7-1.4-12.8L424.4,39.2L424.4,39.2z M430,37.6c1.3,3.7,2.7,8.3,3.3,11.4l-3.7,1.4c-0.6-3.1-1.9-8-3.1-11.6L430,37.6
	L430,37.6z M463,51.1c-2.6-2.4-7.4-6-11.9-9.1v8.5c0,2.5-0.4,3.9-2,4.6c-1.6,0.8-3.8,0.9-7,0.9c-0.1-1.4-0.8-3.5-1.5-4.8
	c2.1,0.1,4.2,0.1,4.8,0.1c0.7-0.1,0.9-0.2,0.9-0.8v-8c-3.7,3-7.4,5.9-10.5,8.2l-2.9-4.3c3.4-2.2,8.4-5.6,13.4-9.2v-9.5h-13.5v-4.9
	h19.5c0.3-1.2,0.5-2.4,0.7-3.7h-17c1.4-4.8,3.3-12.6,4.5-18.5l4.9,0.6c-0.3,1.4-0.6,3-1,4.6h11.3l0.9-0.2l3.7,0.5
	c-0.7,5.1-2,11.4-3.1,16.8h8.2v4.9h-14.3v8.9l1.9,1.3c2.1-2.5,4.5-6,5.8-8.6l4.4,2.7c-2.2,2.9-4.7,6-6.8,8.2c3.6,2.5,7.2,5,9.4,6.9
	L463,51.1z M440.8,39.6c-1.4-1.9-4.4-4.9-6.6-7.1l2.9-3c2.3,2.1,5.3,4.9,6.8,6.8L440.8,39.6z M453.7,14.8c0.3-1.6,0.6-3.3,0.9-4.6
	h-11.2c-0.4,1.6-0.8,3.2-1.2,4.6H453.7L453.7,14.8z M490.1,12c-0.6,4.3-3,8.8-9.7,11.8c-0.6-1.1-2-2.8-3.1-3.8c5.4-1.9,7.3-5,7.9-8
	H477V7.6h8.5V1.5h4.8v6.2h4.2V1.5h4.6v6.2h6V1.5h4.9v6.2h4.4V1.4h4.8v6.3h8.2V12h-8.2v3.6c0,1.6,0.1,2.2,1.1,2.2h4.1
	c0.9,0,2.2-0.1,3-0.3c0.1,1.3,0.2,3.1,0.4,4.3c-0.7,0.2-2.1,0.3-3.3,0.3h-4.5c-4.5,0-5.4-1.9-5.4-6.6V12H510v9.6h-15.5V12H490.1
	L490.1,12z M478,24.3h48.7v12.1h-5.2v-7.5h-38.6v7.5H478V24.3z M521.3,47.2c0,2.5-0.6,4-2.5,4.8c-1.9,0.8-4.7,0.8-8.9,0.8
	c-0.2-1.4-1-3.5-1.7-4.8c2.9,0.1,6,0.1,6.7,0.1c0.9-0.1,1.1-0.2,1.1-1v-8.3h-11.5V56h-5.3V38.8h-10.5v13.8h-5.2V34.3h15.7V30h5.3
	v4.3h16.8V47.2z M499.2,12v5.3h6V12H499.2z M567.8,23.6v7.3h19.2v5.1h-19.2v13.5h21.9v5.1h-49.1v-5.1h21.5V35.9h-18.9v-5.1h18.9
	v-7.3h-12v-3.1c-2.7,1.5-5.4,2.8-8.3,3.9c-0.7-1.6-2.2-3.8-3.6-5.2c10.7-3.4,21-10.1,26.5-18.9l5,2.3c-0.5,0.8-1,1.6-1.5,2.3
	c5.6,5.9,15.2,11.6,23.8,14.4c-1.2,1.1-2.9,3.4-3.7,4.9c-2.8-1.1-5.7-2.5-8.5-4.2v3.7L567.8,23.6L567.8,23.6z M551.9,36.5
	c2.2,3.2,4.5,7.6,5.4,10.4l-4.6,2.1c-0.8-2.8-3-7.4-5.1-10.7L551.9,36.5L551.9,36.5z M577.3,18.4c-4.5-2.8-8.7-6.2-12.1-9.8
	c-3.3,3.8-7.2,7.1-11.5,9.8H577.3z M572.1,47.3c1.9-2.9,4.4-7.5,5.6-10.8l5.2,2c-2.2,3.8-4.7,7.9-6.6,10.6L572.1,47.3z M616.6,41.1
	h10v5h-10v10h-4.7v-10h-10.1v-5h10.1v-4.2h-8V15.7h8v-3.9h-9.4V6.9h9.4V0.7h4.7v6.2h9.3v4.9h-9.3v3.9h8.4v21.2h-8.4V41.1L616.6,41.1
	z M607.7,24.2h4.6v-4.5h-4.6V24.2z M607.7,32.7h4.6v-4.6h-4.6V32.7z M620.9,19.7H616v4.5h4.8V19.7z M620.9,28.2H616v4.6h4.8V28.2z
	 M652.7,13.6v42.1H648v-3h-15.7v3.4h-4.6V13.6h9.8V0.7h4.9v12.8L652.7,13.6L652.7,13.6z M632.2,18.6v11.5h5.4V18.6H632.2z
	 M632.2,47.6h5.4V35.1h-5.4V47.6z M648,18.6h-5.7v11.5h5.7V18.6z M648,47.6V35.1h-5.7v12.5H648z M8.4,112.8v12.7
	c0,1.6-0.3,2.3-1.3,2.8c-0.9,0.4-2.5,0.5-5,0.5c-0.1-0.6-0.5-1.8-0.8-2.5c1.8,0.1,3.4,0.1,3.9,0c0.5,0,0.7-0.2,0.7-0.8v-11.9
	c-1.8,0.6-3.6,1.2-5.1,1.7L0,112.7c1.6-0.5,3.6-1.1,5.8-1.8v-8.7H0.6v-2.5h5.2v-8.3h2.5v8.3h4.6v2.5H8.4v7.8
	c1.4-0.5,2.8-0.9,4.2-1.4l0.4,2.5L8.4,112.8L8.4,112.8z M26.3,114v3.8h9.3v2.3h-9.3v5.8c1.2,0.2,2.5,0.2,3.9,0.2c0.9,0,6.6,0,8,0
	c-0.4,0.6-0.8,1.8-0.9,2.4h-7.2c-6.4,0-10.7-1.3-13.5-6.3c-1.1,2.7-2.5,5-4.4,6.8c-0.4-0.4-1.5-1.2-2-1.5c3.2-2.9,5-7.3,5.8-12.7
	l2.5,0.3c-0.2,1.4-0.5,2.7-0.8,4c1.3,3.4,3.4,5.3,6.2,6.2V114h-8.5v-2.2h8.5v-3.7H13v-2.3h10.8v-3.3h-8.5v-2.2h8.5v-3H13.5v-2.3
	h10.3v-3.7h2.5v3.7h10.9v2.3H26.3v3h8.9v5.5h3v2.3h-3v5.9H26.3L26.3,114z M26.3,105.9h6.4v-3.3h-6.4V105.9z M26.3,111.8h6.4v-3.7
	h-6.4V111.8z M71.8,111.4c-0.7,3.6-1.7,7.5-3.1,10.5c0.8,0.5,1.7,1.2,3.3,2.1c2.9,1.8,6.6,2,11.4,2c5.4,0,11.9-0.4,16.5-0.8
	c-0.4,0.7-0.8,2-0.8,2.8c-3,0.2-10.9,0.5-15.7,0.5c-5.4,0-9-0.5-12-2.3c-1.7-1-3.2-2.4-4.1-2.4c-0.9,0-2.3,2.6-3.5,5.2l-1.9-2.4
	c1.6-2.3,3.1-4.3,4.5-4.9c1.2-2.3,2.1-5.7,2.6-8.5h-5.4c1.2-2.5,2.6-6,3.8-9.2h-5v-2.5h8.5c-1.1,3-2.5,6.4-3.7,9.3h2.6l0.4-0.1
	L71.8,111.4L71.8,111.4z M66.5,99c-0.5-1.8-1.4-4.6-2-6.7l2.4-0.7c0.7,2.1,1.6,4.8,2.1,6.5L66.5,99L66.5,99z M75.4,100.1h-2.5v-7.3
	h25.3v7.3h-2.6v-5.1H75.4V100.1z M84.2,123.7v-3.5H73V118h11.2v-2.7h-9v-11.5h9v-2.7H76V99h8.2v-2.2h2.6V99h8v2.1h-8v2.7h9.2v11.5
	h-9.2v2.7h11.6v2.1H86.9v3.5H84.2z M77.6,108.6h6.6v-2.9h-6.6V108.6z M84.2,113.4v-2.9h-6.6v2.9H84.2z M86.9,105.7v2.9h6.7v-2.9
	H86.9z M93.5,110.5h-6.7v2.9h6.7V110.5z M127.1,100.8c-0.7,1-1.4,1.9-2.2,2.7c-0.3-0.5-1.1-1.5-1.6-1.9c2.6-2.5,4.8-6.3,6.1-10.2
	l2.3,0.6c-0.5,1.4-1.1,2.8-1.8,4.1h5.1c-0.5-1.2-1.2-2.7-1.9-3.9l2.2-0.7c0.8,1.4,1.8,3.2,2.3,4.5h4.1v2h-5v2.5h4.1v1
	c2.5-2.5,4.7-6.4,6.1-10.2l2.3,0.6c-0.5,1.4-1.2,2.8-1.8,4.1h5c-0.5-1.2-1.2-2.6-1.8-3.8l2.2-0.6c0.8,1.4,1.7,3.1,2.2,4.4h4.7v1.9
	H154v2.5h4.9v1.9H154v2.5h4.9v1.9H154v2.5h6.4v2h-15.7v-10.7c-0.8,1.1-1.6,2.1-2.4,3c-0.3-0.4-0.9-1.2-1.4-1.6v0.4h-4.1v2.6h4.1v1.8
	h-4.1v2.6h5.5v1.9h-15.1L127.1,100.8L127.1,100.8z M156.1,115c-2.2,3.4-5.6,6-9.6,8c4.2,1.4,8.9,2.2,13.9,2.7
	c-0.6,0.7-1.4,1.8-1.7,2.6c-5.7-0.7-11.1-1.9-15.8-3.8c-5.5,2.2-11.9,3.5-18,4.2c-0.2-0.7-0.7-1.8-1.1-2.5c5.3-0.5,11-1.5,15.9-3.1
	c-3.5-1.8-6.5-4-8.8-6.7l0.5-0.2h-5.3V114h27.6l0.5-0.2L156.1,115L156.1,115z M134.4,98.1h-4.9v2.5h4.9V98.1z M134.4,102.5h-4.9v2.6
	h4.9V102.5z M134.4,106.9h-4.9v2.6h4.9V106.9z M134.3,116.3c2.2,2.3,5.3,4.1,8.9,5.6c3.4-1.4,6.3-3.3,8.4-5.6H134.3z M151.7,98.1
	H147v2.5h4.7V98.1z M151.7,102.5H147v2.5h4.7V102.5z M151.7,107H147v2.5h4.7V107z M194.9,111.1c-0.7,3.6-2,7.6-3.4,10.6
	c0.9,0.4,1.8,1.3,3.5,2.2c2.9,1.8,6.6,2,11.5,2c5.4,0,11.9-0.4,16.5-0.8c-0.4,0.7-0.8,2-0.8,2.8c-3,0.2-10.9,0.5-15.7,0.5
	c-5.4,0-9-0.5-12-2.3c-1.7-1-3.2-2.4-4.1-2.4c-0.9,0-2.3,2.6-3.5,5.2l-1.9-2.4c1.5-2.1,2.9-3.9,4.1-4.7c1.3-2.4,2.3-5.7,3-8.7h-5.3
	c1.1-2.5,2.5-6,3.6-9.2h-4.7v-2.5h8.2c-1,2.9-2.4,6.4-3.5,9.3h3l0.5-0.1L194.9,111.1L194.9,111.1z M189.6,99.1
	c-0.5-1.8-1.4-4.6-2-6.8l2.4-0.7c0.7,2.1,1.6,4.8,2.1,6.6L189.6,99.1L189.6,99.1z M206.9,119.4h-11.2v-2.3h11.2v-3.2h-9.2v-13.1h9.2
	v-3.3h-11.2v-2.3h11.2v-3.8h2.6v3.8h11.8v2.3h-11.8v3.3h9.6v13.1h-9.6v3.2h12.4v2.3h-12.4v5h-2.6V119.4z M200.2,106.3h6.7v-3.4h-6.7
	V106.3z M206.9,111.8v-3.5h-6.7v3.5H206.9z M209.5,102.9v3.4h7v-3.4H209.5z M216.5,108.3h-7v3.5h7V108.3z M262.7,118.2l0.3,2.5
	c-5.4,1.4-11.2,2.9-15.4,4l-0.7-2.7c2.4-0.5,5.5-1.3,9-2.1c1-4.4,2.1-11.7,2.7-16.7l2.6,0.5c-0.8,4.9-1.9,11.3-3,15.7L262.7,118.2
	L262.7,118.2z M247.4,99.2h15.7v2.5h-15.7V99.2z M251.3,103.6c1,4.8,1.9,10.8,2.2,14.8l-2.3,0.5c-0.2-4.1-1-10.1-2-14.9L251.3,103.6
	L251.3,103.6z M255,98.6c-0.5-1.7-1.6-4.3-2.7-6.2l2.3-0.7c1.3,1.9,2.5,4.5,3,6.1L255,98.6L255,98.6z M273.5,102.7v8.3h8.8v17.6
	h-2.8v-1.8h-12.8v2H264v-17.8h6.7V91.4h2.7v8.7H284v2.6H273.5L273.5,102.7z M279.5,113.5h-12.8v10.7h12.8V113.5z M317.5,96.7v27.2
	c0,1.8-0.5,2.5-1.6,3c-1.2,0.5-3.2,0.5-6.4,0.5c-0.1-0.7-0.5-1.9-0.9-2.7c2.4,0.1,4.7,0,5.3,0c0.7,0,0.9-0.2,0.9-0.9V96.7h-6.7v-2.5
	h14.5v2.5H317.5L317.5,96.7z M331.5,123.4c-2.6,2.1-6.8,4.1-10.4,5.3c-0.4-0.5-1.2-1.4-1.7-1.9c3.5-1.1,7.7-3.1,9.7-4.9L331.5,123.4
	L331.5,123.4z M331.4,99.9c0.4-1.3,0.7-2.8,1-4.1h-9.2v-2.4h22.2v2.4h-10c-0.5,1.4-0.9,2.9-1.4,4.1h9.8V121h-19.4V99.9H331.4
	L331.4,99.9z M341.4,102.1h-14.2v4.2h14.2V102.1z M341.4,108.3h-14.2v4.2h14.2V108.3z M341.4,114.6h-14.2v4.3h14.2V114.6z
	 M338,122.1c2.8,1.4,6.4,3.6,8.2,5.1l-2.2,1.6c-1.7-1.5-5.2-3.8-8.1-5.3L338,122.1L338,122.1z M383.9,123.2c-1-1.6-3.6-5.1-5.5-7.5
	c-0.9,4.6-2.9,9.1-6.9,12.6c-0.4-0.6-1.2-1.4-1.9-1.9c5.1-4.1,6.6-10.5,6.9-16.1h-6.7v-2.5h6.9c0-0.9,0-1.8,0-2.6v-4.3h-6v-2.5h6
	v-6.5h2.6v6.5h5.8v2.5h-5.8v4.3c0,0.8,0,1.7,0,2.6h6.7v2.5h-6.8c0,0.8-0.1,1.7-0.2,2.5c1.6,1.8,5.9,7.1,6.9,8.3L383.9,123.2
	L383.9,123.2z M403.9,125.6c0.8,0,1-0.4,1.1-3.4c0.5,0.4,1.5,0.8,2.3,1c-0.2,3.8-1,4.8-3.1,4.8h-3.6c-2.6,0-3.3-0.7-3.3-3.4v-9.1
	h-3.2c-0.8,6.2-3,10.7-9.8,13.1c-0.3-0.6-1-1.6-1.6-2c6.3-2,8.1-5.9,8.8-11.1h-4.1V93h17.4v22.6h-5v9.1c0,0.8,0.1,1,1,1L403.9,125.6
	L403.9,125.6z M390,99.8h12.2v-4.3H390V99.8z M390,106.5h12.2v-4.4H390V106.5z M390,113.1h12.2v-4.4H390V113.1z M436.8,110.8
	c-0.9,4.5-2.7,10.1-4.8,13c-0.3-0.8-0.9-1.9-1.4-2.7c1.7-2.4,3.5-7.1,4.3-10.9L436.8,110.8L436.8,110.8z M439.9,107.7v21.1h-2.5
	v-21.1h-6.1v-2.5h6.1V91.5h2.5v13.7h5.2v2.5H439.9z M433.9,103.3c-0.4-2.3-1.4-5.9-2.3-8.7l2-0.5c0.9,2.7,2,6.3,2.4,8.6L433.9,103.3
	L433.9,103.3z M442.2,110.2c0.7,1.1,3.5,6.4,4.1,7.6l-1.9,2c-0.7-2-2.9-7.1-3.7-8.6L442.2,110.2z M446.1,94.9
	c-1.1,2.8-2.4,6.4-3.5,8.6l-1.8-0.7c0.9-2.3,2.3-6.2,2.8-8.8L446.1,94.9z M466.1,125.8c0,1.4-0.2,2.1-1.3,2.5
	c-1,0.4-2.7,0.4-5.2,0.4c-0.1-0.7-0.5-1.6-0.8-2.3c1.9,0,3.6,0,4.1,0c0.5,0,0.7-0.2,0.7-0.6V122h-13c-0.5,2.6-1.3,5.2-3,7.3
	c-0.4-0.5-1.4-1.5-1.9-1.8c2.5-3.2,2.7-7.3,2.7-10.6v-7.5h17.7V125.8L466.1,125.8z M468.6,104.6v2.1h-22.7v-2.1h9.8v-3h-8.4v-2h8.4
	v-2.7h-9.4v-2.1h9.4v-3.4h2.7v3.4h9.8v2.1h-9.8v2.7h9.1v2h-9.1v3H468.6z M463.6,120v-3.2h-12.7v0.2c0,0.9,0,2-0.1,3.1H463.6z
	 M450.9,111.5v3.2h12.7v-3.2H450.9z M494.5,111h14.3v17.4h-2.7v-1.8h-9v2.3h-2.6V111L494.5,111z M497.1,113.7v10.3h9v-10.3H497.1z
	 M522.6,106.5h-22.1V93.1h22.1V106.5z M519.8,95.8h-16.6v8.2h16.6V95.8z M528.6,111v17.5h-2.7v-2h-9.8v2.3h-2.6V111H528.6z
	 M525.9,123.9v-10.3h-9.8v10.3H525.9z M566.1,105.7c-0.6,5.8-1.9,10.6-3.6,14.4c4,4.2,9.8,5.1,16.9,5.1c1.5,0,10.4,0,12.3,0
	c-0.5,0.6-0.9,1.8-1.1,2.5h-11.3c-7.7,0-13.7-1.1-18-5.4c-1.5,2.6-3.2,4.6-5.2,6.2c-0.5-0.5-1.4-1.5-2-1.9c2.1-1.5,3.9-3.7,5.4-6.3
	c-1.5-2-2.7-4.6-3.7-7.9l2-0.8c0.7,2.5,1.7,4.6,2.8,6.3c1.2-2.8,2-6.2,2.6-10.1h-6.6c1.8-3,4.1-7.5,5.9-11.4h-7.4V94h11.3
	c-1.7,3.6-4,8-5.8,11.4h3.3l0.5,0L566.1,105.7L566.1,105.7z M576.7,97.2h-8V95h8v-3.4h2.6V95h8.9v5.4h2.9v2.3h-2.9v5.5h-8.9v3.3h9.7
	v2.1h-9.7v3.6h11.3v2.3h-11.3v4.3h-2.6v-4.3h-10.4v-2.3h10.4v-3.6h-8.6v-2.1h8.6v-3.3h-8.4V106h8.4v-3.3h-10.8v-2.3h10.8V97.2z
	 M579.3,97.2v3.2h6.4v-3.2H579.3z M585.7,102.7h-6.4v3.3h6.4V102.7z M622.1,96.1c-1.3,1.8-2.7,3.4-4.3,4.7c-0.3-0.5-1.3-1.4-1.9-1.8
	c2.5-1.9,4.9-4.8,6.3-7.8l2.5,0.7c-0.3,0.7-0.7,1.4-1.1,2h10.7v2.2L622.1,96.1L622.1,96.1z M635.8,116.7h16.9v2.3h-16.9v9.8h-2.6
	V119h-16.8v-2.3h16.8v-2.5c-0.3,0.2-0.6,0.3-0.9,0.4c-0.3-0.5-1.2-1.4-1.7-1.7c2.8-1.1,4.6-2.3,5.6-3.6c-1.4-0.7-2.9-1.3-4.1-1.8
	l1.1-1.7c1.3,0.5,2.7,1.1,4,1.7c0.2-0.7,0.3-1.4,0.3-2V104h-4.9v-2H647v8.7c0,0.8,0,1.2,0.2,1.4c0.1,0.1,0.4,0.2,0.7,0.2h1.2
	c0.4,0,0.7,0,0.9-0.2c0.2-0.1,0.4-0.4,0.5-0.8c0.1-0.5,0.1-1.7,0.2-3.3c0.5,0.5,1.3,0.8,1.9,1c0,1.5-0.2,3.2-0.4,3.9
	c-0.2,0.6-0.6,1-1.1,1.2c-0.5,0.2-1.2,0.3-1.8,0.3h-1.9c-0.8,0-1.6-0.2-2.1-0.7c-0.6-0.5-0.7-1.1-0.7-3.2V104h-4.6v1.4
	c0,1-0.2,2-0.5,3c1.7,0.8,3.2,1.5,4.2,2l-1,2c-1.1-0.6-2.5-1.4-4.2-2.2c-1,1.4-2.5,2.7-4.8,3.7h2.3L635.8,116.7L635.8,116.7z
	 M629.9,120.9c-2.6,3-7.5,5.7-11.7,7.1c-0.4-0.7-1.2-1.7-1.8-2.2c4.1-1.1,8.9-3.4,11.3-5.8L629.9,120.9L629.9,120.9z M616.4,111.8
	c1.8-0.2,4-0.5,6.4-0.9v-6.6H617v-2.1H631v2.1h-5.6v6.2c1.9-0.3,3.8-0.6,5.7-0.9l0.1,2.2c-5.1,0.9-10.5,1.6-14.4,2.3L616.4,111.8
	L616.4,111.8z M626.1,96.1c1.2,1.2,2.8,2.8,3.5,3.8l-1.8,1.5c-0.7-1.1-2.3-2.7-3.5-4L626.1,96.1z M653,93.9v2.2h-14.3
	c-1.2,1.7-2.5,3.3-3.9,4.5c-0.4-0.5-1.4-1.3-2.1-1.6c2.5-1.9,4.6-4.7,5.7-7.8l2.5,0.7c-0.2,0.7-0.6,1.4-0.9,2.1H653L653,93.9z
	 M640.6,119.7c3.8,1.6,8.7,4.1,11.2,5.9l-1.8,2c-2.4-1.8-7.3-4.5-11.2-6.2L640.6,119.7L640.6,119.7z M645.5,101.2
	c-0.7-1.1-2.2-2.7-3.4-3.9l1.8-1.2c1.2,1,2.8,2.6,3.5,3.6L645.5,101.2L645.5,101.2z M161.7,211.1v-0.4c0-6.3,4.1-12.8,13.1-19.6
	c7-5.3,8.9-7,8.9-11.8c0-4.4-2.3-7.7-7.6-7.7s-7.8,2.8-8.7,8.1h-5.7c0.8-7.4,5.5-13,14.4-13c9.8,0,13.6,6.3,13.6,12.4
	c0,6.6-2.8,9.2-10.9,15.4c-6,4.6-9.2,8.1-10.3,11.5h22.9l-0.8,5.1H161.7L161.7,211.1z M227.9,172.5h-18.2
	c-0.4,3.5-1.5,10.1-1.9,12.4c1.8-2,4.7-3.5,9.1-3.5c8,0,13.1,5.6,13.1,14.5c0,8.9-4.5,15.9-15,15.9c-7.8,0-13.4-4.3-14.6-11.7h5.9
	c1,4,3.9,6.9,8.9,6.9c5.9,0,8.9-4.2,8.9-10.7c0-5.6-2.3-9.9-8.4-9.9c-5.3,0-7.4,2.2-9,5.7l-5.4-1c1.3-5.7,3-18.2,3.6-23.7h23.8
	L227.9,172.5L227.9,172.5z M240.8,198.8c0-6.2,4.1-9.7,7.9-11.2c-3.8-1.9-6-4.9-6-9.2c0-6.7,4.8-11.6,13.7-11.6
	c8.2,0,13.2,4.8,13.2,11.6c0,4.7-2.5,7.7-6.1,9.1c4.1,1.3,7.8,5.4,7.8,11.2c0,8.3-6.5,13.3-15.5,13.3
	C247.4,211.9,240.8,206.9,240.8,198.8z M265.4,198.5c0-5.5-3.5-8.4-9.3-8.4c-6.4,0-9.3,3.6-9.3,8.4c0,4.8,3.4,8.6,9.3,8.6
	C261.6,207.1,265.4,204.1,265.4,198.5z M248.4,178.4c0,3.7,2.3,6.8,7.9,6.8c5.2,0,7.5-2.5,7.5-6.6c0-3.8-2.4-7-7.7-7
	C250.7,171.5,248.5,174.3,248.4,178.4L248.4,178.4z M289.7,211.1v-36.7c-2.2,1.6-6.6,3.4-9,3.8v-4.7c3.4-0.9,7.6-3.4,10.6-6.2h4.4
	v43.8H289.7z M327.3,186.8v2.6h-17.4v-2.6H327.3z M368.7,172.5h-18.2c-0.4,3.5-1.5,10.1-1.9,12.4c1.8-2,4.7-3.5,9.1-3.5
	c8,0,13.1,5.6,13.1,14.5c0,8.9-4.5,15.9-15,15.9c-7.8,0-13.4-4.3-14.6-11.7h5.9c1,4,3.9,6.9,8.9,6.9c5.9,0,8.9-4.2,8.9-10.7
	c0-5.6-2.3-9.9-8.4-9.9c-5.3,0-7.4,2.2-9,5.7l-5.4-1c1.3-5.7,3-18.2,3.6-23.7h23.8L368.7,172.5L368.7,172.5z M409.1,172.5h-18.2
	c-0.4,3.5-1.5,10.1-1.9,12.4c1.8-2,4.7-3.5,9.1-3.5c8,0,13.1,5.6,13.1,14.5c0,8.9-4.5,15.9-15,15.9c-7.8,0-13.4-4.3-14.5-11.7h5.9
	c1,4,3.9,6.9,8.9,6.9c5.9,0,8.9-4.2,8.9-10.7c0-5.6-2.3-9.9-8.4-9.9c-5.3,0-7.4,2.2-9,5.7l-5.4-1c1.3-5.7,3-18.2,3.6-23.7h23.8
	L409.1,172.5L409.1,172.5z M422,198.8c0-6.2,4.1-9.7,7.9-11.2c-3.8-1.9-6-4.9-6-9.2c0-6.7,4.8-11.6,13.7-11.6
	c8.2,0,13.2,4.8,13.2,11.6c0,4.7-2.5,7.7-6.1,9.1c4.1,1.3,7.8,5.4,7.8,11.2c0,8.3-6.5,13.3-15.5,13.3
	C428.5,211.9,422,206.9,422,198.8z M446.5,198.5c0-5.5-3.5-8.4-9.3-8.4c-6.4,0-9.3,3.6-9.3,8.4c0,4.8,3.4,8.6,9.3,8.6
	C442.7,207.1,446.5,204.1,446.5,198.5z M429.6,178.4c0,3.7,2.3,6.8,7.9,6.8c5.2,0,7.5-2.5,7.5-6.6c0-3.8-2.4-7-7.7-7
	C431.8,171.5,429.6,174.3,429.6,178.4L429.6,178.4z M462.6,198.8c0-6.2,4.1-9.7,7.9-11.2c-3.8-1.9-6-4.9-6-9.2
	c0-6.7,4.8-11.6,13.7-11.6c8.2,0,13.2,4.8,13.2,11.6c0,4.7-2.5,7.7-6.1,9.1c4.1,1.3,7.8,5.4,7.8,11.2c0,8.3-6.5,13.3-15.5,13.3
	C469.1,211.9,462.6,206.9,462.6,198.8z M487.1,198.5c0-5.5-3.5-8.4-9.3-8.4c-6.4,0-9.3,3.6-9.3,8.4c0,4.8,3.4,8.6,9.3,8.6
	C483.3,207.1,487.1,204.1,487.1,198.5z M470.2,178.4c0,3.7,2.3,6.8,7.9,6.8c5.2,0,7.6-2.5,7.6-6.6c0-3.8-2.4-7-7.7-7
	C472.4,171.5,470.2,174.3,470.2,178.4L470.2,178.4z M130.8,188.8H0.2v1h130.5V188.8z M652.8,188.8H522.3v1h130.5V188.8z"/>
</svg>
