<?xml version="1.0" encoding="UTF-8"?>
<svg id="_圖層_2" data-name="圖層 2" xmlns="http://www.w3.org/2000/svg" viewBox="0 0 200.3 20.37">
  <defs>
    <style>
      .cls-1 {
        fill: #f6d481;
      }

      .cls-1, .cls-2 {
        stroke-width: 0px;
      }

      .cls-2 {
        fill: #fff;
      }
    </style>
  </defs>
  <g id="_圖層_1-2" data-name="圖層 1">
    <g>
      <g>
        <path class="cls-2" d="M116.38,18.42c-.29-.42-.71-.82-1.26-1.21,1.23-.72,2.33-1.68,3.3-2.89,1-1.24,1.76-2.64,2.3-4.19h-5.16v-1.54h5.86l.28-.06,1.06.48c-.54,2.13-1.39,4.03-2.56,5.71-1.08,1.53-2.36,2.77-3.82,3.71ZM121.46,19.72c-.07-.52-.27-1.06-.59-1.61,1.36.07,2.34.09,2.95.04.2-.01.34-.05.41-.12.07-.06.11-.18.11-.36V5.97h-5.97v-1.56h7.66v1.61c.51,1.69,1.13,3.2,1.87,4.51,1.95-1.49,3.62-3.01,5.01-4.56l1.45,1.04c-2.03,1.9-3.93,3.46-5.71,4.71,1.69,2.52,3.84,4.27,6.44,5.25-.48.45-.85.92-1.11,1.41-3.5-1.52-6.16-4.3-7.96-8.35v7.68c0,.49-.07.87-.21,1.14-.14.27-.38.47-.73.6-.51.19-1.72.28-3.65.28ZM128.29,4.3c-.88-.49-2.09-1.03-3.62-1.61-1.53-.58-2.97-1.04-4.32-1.37l.78-1.32c1.39.33,2.82.75,4.3,1.26,1.58.55,2.81,1.06,3.69,1.54l-.82,1.5Z"/>
        <path class="cls-2" d="M137.88,12.22c-.33-.39-.75-.76-1.24-1.11,2.6-1.68,4.3-4.56,5.08-8.64h-4.3v-1.37h14.6c-.29,1.45-.54,2.65-.74,3.6h4.58c-.01.23-.03.46-.04.69-.14,1.75-.31,3.04-.49,3.87-.18.83-.42,1.39-.71,1.68-.32.35-.79.53-1.41.54-.51.06-1.38.05-2.62-.02-.06-.54-.21-1.02-.46-1.45.71.07,1.53.11,2.47.11.39,0,.64-.06.76-.17.36-.36.64-1.66.82-3.88h-3.23c-.04.22-.12.51-.22.87-.03.12-.05.2-.06.24l-1.48-.22c.3-1.13.64-2.62,1-4.49h-6.88c-.09.52-.22,1.14-.41,1.87h4.36l.24-.02.87.28c-.36,1.49-.9,2.76-1.63,3.82.97.64,1.71,1.22,2.24,1.74l-.98.98c-.49-.49-1.19-1.06-2.08-1.69-1.03,1.07-2.33,1.87-3.91,2.41-.23-.43-.54-.8-.93-1.11,1.49-.45,2.71-1.14,3.67-2.08-.91-.55-1.74-.98-2.5-1.3l.93-.87c.67.27,1.47.68,2.41,1.21.45-.62.81-1.33,1.08-2.13h-4.17c-1,2.91-2.55,5.12-4.64,6.64ZM137.04,19.16v-1.43h2.43v-5.34h14.73v5.34h2.43v1.43h-19.59ZM140.96,17.73h2.89v-4.01h-2.89v4.01ZM145.32,17.73h2.91v-4.01h-2.91v4.01ZM149.71,17.73h2.95v-4.01h-2.95v4.01Z"/>
        <path class="cls-2" d="M159.69,19.81c-.13-.17-.32-.38-.58-.62-.25-.24-.47-.41-.64-.51,1.19-.8,2.18-1.91,2.97-3.34-.82-1.08-1.5-2.5-2.04-4.23l1.26-.48c.39,1.3.87,2.38,1.45,3.23.56-1.39.98-3.04,1.24-4.95h-2.52l-.43.85-1.47-.41c1.03-1.92,2.1-4.12,3.21-6.57h-3.49v-1.43h4.3l.26-.09,1.11.33c-.45,1.08-1.35,3.02-2.69,5.79-.03.04-.05.08-.07.11h2.23l.3-.04.93.24c-.32,2.98-.91,5.48-1.78,7.51.98.94,2.24,1.6,3.78,1.97,1.26.32,2.89.48,4.88.48,3.7,0,5.93,0,6.68-.02-.32.48-.54,1-.67,1.58h-6.05c-2.16,0-3.92-.17-5.29-.52-1.62-.41-2.96-1.11-4.04-2.11-.78,1.38-1.73,2.45-2.84,3.23ZM170.47,16.9v-2.3h-5.68v-1.32h5.68v-1.71h-4.69v-1.24h4.69v-1.61h-4.58v-1.3h4.58v-1.61h-5.97v-1.28h5.97v-1.56h-4.43v-1.28h4.43V.13h1.56v1.56h4.77v2.84h1.63v1.28h-1.63v2.91h-4.77v1.61h4.99v1.24h-4.99v1.71h5.92v1.32h-5.92v2.3h-1.56ZM172.03,4.54h3.21v-1.56h-3.21v1.56ZM172.03,7.42h3.21v-1.61h-3.21v1.61Z"/>
        <path class="cls-2" d="M180.28,4.88v-1.32h8.18v1.32h-8.18ZM181.26,19.53v-7.27h6.44v6.27h-5.03v1h-1.41ZM181.3,7.77v-1.28h6.42v1.28h-6.42ZM181.3,10.65v-1.3h6.42v1.3h-6.42ZM181.41,2.02V.72h6.25v1.3h-6.25ZM182.67,17.23h3.62v-3.65h-3.62v3.65ZM188.91,8.94c-.36-.43-.75-.79-1.17-1.06.94-.59,1.61-1.35,2-2.26.27-.65.41-1.44.41-2.36V.65h6.77v5.29c0,.23.03.38.08.46.05.07.16.11.34.11h1.08c.2,0,.33-.14.39-.41.07-.28.12-.93.13-1.95.32.26.77.46,1.35.59-.06,1.26-.21,2.1-.46,2.54-.23.42-.64.63-1.21.63h-1.5c-.67,0-1.12-.13-1.36-.4-.24-.27-.36-.78-.36-1.55v-3.86h-3.71v1.19c0,2.55-.93,4.43-2.78,5.66ZM188.65,19.77c-.22-.55-.51-1.02-.87-1.41,1.95-.51,3.66-1.3,5.12-2.39-1.29-1.33-2.3-2.91-3.04-4.73l1.43-.43c.62,1.58,1.55,2.97,2.8,4.19,1.26-1.19,2.21-2.6,2.84-4.23h-8.2v-1.47h8.92l.28-.07,1.04.41c-.71,2.55-1.93,4.68-3.67,6.4,1.45,1.1,3.11,1.88,4.99,2.34-.39.36-.74.82-1.04,1.37-1.97-.58-3.69-1.47-5.16-2.67-1.52,1.17-3.33,2.07-5.45,2.69Z"/>
        <path class="cls-1" d="M94.31,18.12l5.36-8.2-5.01-7.75h2.24l2.58,4.1c.45.72.94,1.5,1.47,2.32h.09c.48-.84.94-1.61,1.39-2.32l2.52-4.1h2.13l-4.99,7.79,5.4,8.16h-2.3l-2.73-4.3c-.16-.27-.43-.69-.8-1.26-.36-.55-.64-.98-.82-1.3h-.09c-.26.43-.61,1.01-1.06,1.74-.22.38-.38.65-.5.83l-2.69,4.3h-2.17Z"/>
      </g>
      <g>
        <path class="cls-2" d="M17.33.58l1.02,1.7c-2.16.47-4.63.83-7.41,1.08v3.71h8.51v1.79h-7.66c.94,1.44,2.01,2.72,3.2,3.84,1.41,1.36,3.07,2.47,4.98,3.34l-1.04,1.91c-1.87-.98-3.62-2.29-5.25-3.92-1-.98-1.91-2.09-2.74-3.32v9.5h-1.95v-9.44c-.86,1.3-1.85,2.48-2.99,3.53-1.9,1.76-3.58,3.01-5.04,3.76l-.95-1.68c1.74-.97,3.38-2.2,4.92-3.69,1.26-1.25,2.3-2.52,3.11-3.82H.54v-1.79h8.45v-3.57c-2.09.15-4.33.24-6.72.25l-.6-1.83c6.31-.04,11.53-.49,15.67-1.35Z"/>
        <path class="cls-2" d="M21.71,10.77h3.57v-2.14h1.78v2.14h3.53v1.72h-3.53v.64c1.4,1.04,2.59,2.05,3.57,3.05l-1.1,1.51c-.8-1.05-1.63-2-2.47-2.86v5.4h-1.78v-5.04c-.07.15-.14.29-.21.42-.72,1.3-1.59,2.48-2.61,3.55l-1.31-1.35c1.08-.96,1.98-1.97,2.72-3.05.53-.77.95-1.53,1.27-2.26h-3.42v-1.72ZM22.16,2.11h8.16V.33h1.83v1.79h8.03v1.74h-8.03v.19c3.51,1.07,6.5,2.3,8.96,3.69l-1.14,1.64c-2.19-1.38-4.79-2.62-7.82-3.71v4.11h-1.83v-4.67c-.82.65-1.73,1.25-2.74,1.8-2.06,1.13-3.89,1.94-5.48,2.41l-.93-1.64c1.95-.55,3.78-1.26,5.5-2.12,1.12-.55,2.08-1.12,2.88-1.7h-7.39v-1.74ZM31.94,10.77h3.11v-2.16h1.78v2.16h3.9v1.72h-3.61c.94,1.8,2.35,3.5,4.23,5.1l-1.29,1.54c-1.26-1.38-2.34-2.86-3.24-4.44v5.69h-1.78v-5.42c-.89,1.56-1.97,2.97-3.26,4.21l-1.41-1.41c1.99-1.56,3.48-3.32,4.46-5.27h-2.9v-1.72Z"/>
        <path class="cls-2" d="M43.04,1.51h8.53V.47h1.83v1.04h8.57v1.66h-8.57v1.06h7.3v4.77h-7.3v1h7.3v2.76h1.58v1.7h-1.58v2.64h-7.3v.91c0,.83-.18,1.43-.54,1.81-.36.35-1.01.53-1.95.54-1.15,0-2.23-.15-3.26-.46l-.29-1.78c1.08.33,2.17.5,3.28.5.39,0,.64-.07.75-.21.12-.18.19-.46.19-.83v-.48h-7.55v-1.66h7.55v-.98h-8.84v-1.7h8.84v-1.1h-7.53v-1.66h7.53v-1h-7.22v-4.77h7.22v-1.06h-8.53v-1.66ZM46.17,7.4h5.4v-1.58h-5.4v1.58ZM53.4,5.83v1.58h5.48v-1.58h-5.48ZM58.79,12.76v-1.1h-5.4v1.1h5.4ZM53.4,15.43h5.4v-.98h-5.4v.98Z"/>
        <path class="cls-2" d="M70.16,15.27l1.22,1.35c-.9.8-1.9,1.49-2.99,2.05-1.11.57-2.34,1.08-3.69,1.54l-.85-1.79c1.34-.39,2.54-.84,3.61-1.37,1.01-.53,1.91-1.12,2.7-1.79ZM67.2.64c.79.86,1.42,1.8,1.91,2.82l-.64.39h2.24V.47h1.79v3.38h2.49V.47h1.78v3.38h1.95l-.64-.56c.87-.86,1.57-1.77,2.1-2.74l1.54.93c-.61.96-1.22,1.74-1.83,2.37h3.57v1.64h-4.4c-.15.39-.33.78-.54,1.16-.17.33-.34.64-.52.91h4.73v1.58h-8.03v1.29h7.18v1.54h-7.18v1.2h8.9v1.62h-8.9v5.5h-1.87v-5.5h-8.86v-1.62h8.86v-1.2h-7.51v-1.54h7.51v-1.29h-8.3v-1.58h4.88c-.28-.73-.63-1.42-1.06-2.08h-4.3v-1.64h3.4c-.46-.8-1.03-1.56-1.72-2.26l1.47-.95ZM71.22,7.57h4.79c.24-.42.45-.84.64-1.27.14-.29.26-.56.35-.81h-6.72c.39.66.7,1.36.93,2.08ZM77.16,15.25c2.28.86,4.44,1.89,6.47,3.09l-.83,1.87c-2.16-1.43-4.32-2.55-6.47-3.38l.83-1.58Z"/>
      </g>
    </g>
  </g>
</svg>