<svg viewBox="0 0 603 185" fill="#3E3A39" xmlns="http://www.w3.org/2000/svg">
<linearGradient id="paint0" x1="0" y1="13.5" x2="0" y2="64" gradientUnits="userSpaceOnUse">
<stop stop-color="#32B8C3"/>
<stop offset="1" stop-color="#97C634"/>
</linearGradient>
<path fill="url(#paint0)" d="M358.7,43.5v43.8c6.9-1.2,14.3-2.6,21.8-4l0.3,1.6c-8.6,5.1-21.8,12.3-40.9,21.4c-0.7,1.9-2.1,3.1-3.7,3.5l-8.5-17.5
	c3.8-0.4,9.6-1.3,16.7-2.6V43.5h-15.1l-0.7-2.7h15.9V4.6l20.4,1.8c-0.1,2-1.8,3-6.1,3.5v30.9h2.7l6.8-10.6L380.3,41
	C378,45.3,362.9,42.8,358.7,43.5L358.7,43.5z M454.9,92.1l-0.1,18.5c6.1,2.2,7.1,3,7.1,5.1c2.5,13.5-46.3,7.3-56.8,8.6
	c-17.5,0-22.4-3.8-22.4-19V60.8l-13.2,5.9l-1.8-2l15-6.7V14.6l20.1,1.6c-0.3,2-1.4,3-5.8,3.6v31.7l13.3-6.1V1.4L430.1,3
	c-0.3,1.9-1.4,3-5.7,3.4V39l12-5.4l5.7-10.1l16.6,9c-1,1.5-3.2,3-6.4,3.6v40.6c0,8.5-2.7,14.7-17.3,15.5c0-9.8-0.3-12.1-7.1-12.9V78
	c1.7-0.5,10.6,1.4,10.2-1.7c0,0,0-40.6,0-40.6l-13.7,6.2v51.6c0,0.3-2.5,4.3-14.1,4.3V48.3L397,54.4v51.3c0,5.5,1.1,6.3,7.6,6.3
	c5.1-0.9,38,2.3,41.3-2.2c1.8-1.9,4.2-8.6,7.6-17.8C453.6,92.1,454.9,92.1,454.9,92.1z M496.9,87c6.4-1.2,13-2.6,19.8-4l0.4,1.5
	c-8.6,5.1-21.6,12.4-40,21.4c-0.6,1.9-2.1,3.1-3.5,3.5l-7.5-16.7c3.5-0.5,9.3-1.5,16.4-2.8v-35h-13.7l-0.9-2.6h14.6V17.3h-15.1
	l-0.7-2.6h29.7l7.5-10.4L517.7,15c-2.2,4.1-16.7,1.7-20.8,2.3v34.9h1.7l6.2-9.4l11.5,9.7c-2,4-15.5,1.7-19.4,2.3
	C496.9,54.8,496.9,87,496.9,87z M560.8,32.7c2,13.7,5.4,24.7,9.9,33.5c4.4-7.4,9.3-16.7,12.9-24.5L600,52.5c-1.1,1.8-3,1.4-5,1
	c-5.8,5.1-15,11.7-22.2,16.8c7.8,13.5,18.1,21.6,29.4,27.5l-0.6,1.5c-5.9,1.4-10.8,6.6-12.7,13.7c-16-15.1-24.3-32.9-28.3-68.2h-0.1
	v65.5c0,9.2-2.4,15.8-18.8,17.2c-0.3-9-2.6-11.6-13.6-12.9v-1.9c25.2-0.2,16.1,5,17.7-31.3C539.8,87.8,531,97,519,108
	c-0.3,1.8-1.3,3.4-2.7,4.2L505.1,97c6.9-2.7,23.9-10.2,40.6-18.2V32.7h-33.8l-0.7-2.7h34.5V1.3L566.4,3c-0.1,1.8-1,2.8-5.9,3.5V30
	H578l7.9-10l14.7,10.4C598.5,35.2,565.2,31.7,560.8,32.7L560.8,32.7z M516.7,44.4c34.5,9.2,21.8,36.8,7.6,24.4
	c0.1-7.8-3.7-17.7-8.8-23.6L516.7,44.4z M570.7,2.9c32.6-2.6,27.1,23.1,12.2,15.2c-1.8-5.4-7.1-11.2-12.7-14L570.7,2.9L570.7,2.9z
	 M0.9,36.9c34.4,2.8,23.9,29.5,9.6,18.7C9.6,49.4,5.2,42,0.1,37.8L0.9,36.9L0.9,36.9z M9.4,87.4c8.1-3.9,4.2-5.6,31.3-64.7l2.4,0.5
	c-7.4,26.3-17.2,51.2-18.7,69.5c1.2,8.9,13.6,34-5.7,35.2C2.1,126.7,25,89.8,3.1,90.1v-2.7c4.8,0,6.4-0.1,6.4-0.1V87.4z M6.7,2.6
	c36.5,1.8,27.8,29.5,12,19.7C16.9,15.8,11.6,8,5.9,3.7L6.7,2.6z M124.1,59.4l11.3,10c-1.8,3.7-12.7,1.9-16.4,2.3v25.1
	c0,0.3-4.1,3.6-14.6,3.6v-7.6H89c-1.3,16.1,6.9,33.7-20.4,34.9c0-10.8-5.5-12.4-17.4-13.6v-1.8c27.9-1.5,22.8,7.5,23.2-19.5H48.1
	l-0.9-2.7h27.2V71.6H35l-0.7-2.7h40V50.6H51.2l-1-2.6h52.9l5.4-6.7l15.1,9.8c-0.7,0.8-2.4,1.8-4.7,2.3v13.9L124.1,59.4L124.1,59.4z
	 M122.4,14.1c-2.3,1.7-5.4,0.9-8.5-0.1c-12.5,2.6-31.4,4.9-49,5.2c-5.7,14.2-13.9,25.9-23.6,33l-2-1.1c5.1-9,9.6-24.8,11.8-40
	l17.3,4.2c14.9-3.9,30.8-9.8,39.6-14.4L122.4,14.1L122.4,14.1z M76.7,22C105.8,31.4,91,52.9,80,41.3c0.7-6.2-1.4-13.9-4.7-18.5
	C75.4,22.9,76.6,22.1,76.7,22z M89,50.6v18.3h15.4V50.6H89z M104.4,90.1V71.6H89v18.5H104.4z M103.4,19.9
	c37.3,3.7,33.2,34.3,16.5,24.9c-1.8-8.5-9.5-18.5-17.5-23.7L103.4,19.9L103.4,19.9z M211.8,52.2c0,0.1-0.1,0.3-0.3,0.4l4.4,1.2
	c-0.3,1.8-1.8,2.4-6.5,3c14.7,8.5,38.5,14.3,63.3,16l-0.1,2c-5.9,2-8.6,7.8-9.5,13.1c-23.6-5.7-43.7-15.9-55.8-29.8
	c-13.2,11.7-39.6,26-68.8,32.1l-0.4-1.8c24.3-9,48.1-25.9,57.5-40.3l1.4,0.4V28.1h-39.8c4.7,27.5-33.4,15.7-12.5,3.8
	c4.3-1.6,8.4-6.3,7.6-11.7l2.3-0.1c0.9,1.9,1.4,3.6,2,5.4h40.3V13.9h-44.3l-0.9-2.7h84.9l7.9-9.6l15.1,9.8c-1.9,5.1-43.5,1.3-48,2.4
	v11.5h40.9l7.4-7.3l13.3,12.1c-1.1,1.1-2.5,1.3-5.4,1.5c-3.7,3.5-10,8.4-15,10.8l-1.7-0.8l0.4-1.6c-2.5,2.5-30.8,0.7-34.5,1.2
	l-0.8-2.7h19.4l5.8-6.6l10.6,6.5c0.7-3.2,1.4-7.1,1.8-10.4h-42.2C211.8,28.1,211.8,52.2,211.8,52.2z M155.6,54l-0.8-2.7h20.9
	l5.8-6.5l11.2,6.9C190.6,56.4,159.9,53,155.6,54L155.6,54z M181.1,32.1l10.8,6.9c-2.1,4.6-29.3,1.4-33.5,2.3l-0.8-2.7h18L181.1,32.1
	z M231.9,89l5.7-7L253,92.4c-0.8,1.1-2.8,2.3-5.8,2.8c-0.9,14.1,5.5,24-19.1,26.3c0-7.7-4.2-10.1-15.1-11.1v-1.8
	c24.5-1.3,20,6.5,20.4-17h-29.9v33.2c0.8,0.7-9.1,3.7-14.7,3V91.7h-30.4l-0.8-2.7L231.9,89L231.9,89z M215.2,68.8l12.7,7.8
	c-2,4.8-43.2,1.3-47.5,2.3l-0.9-2.7h29.1L215.2,68.8z M238.4,51.3l5.9-6.9l11.9,7.3c-2.3,4.7-34.9,1.3-39.3,2.3l-0.9-2.7L238.4,51.3
	L238.4,51.3z"/>
<path d="M39.8,154H23c-0.3,0.9-0.6,1.8-0.9,2.7h12.6v27.2h-5.4v-2H11.5v2H6.3v-27.2h10.2c0.2-0.9,0.4-1.8,0.5-2.7H0.7
	v-4.8h9.6c-0.9-1.3-2.1-2.8-3.1-3.9l4.8-2.1c1.6,1.5,3.4,3.7,4.3,5.2l-1.6,0.9H24c1.3-1.7,2.8-4.1,3.6-5.9l6.6,1.9
	c-0.2,0.3-0.6,0.5-1.2,0.5c-0.7,1.1-1.7,2.3-2.7,3.5h9.4V154z M29.3,163.8v-2.7H11.5v2.7H29.3z M11.5,167.7v2.8h17.9v-2.8H11.5z
	 M11.5,177.4h17.9v-2.9H11.5V177.4z M51,152.6c-0.1,9.8,0.5,22-4.3,31.4c-0.9-0.9-3.2-2.4-4.4-2.9c5.1-10.1,3.4-22.8,3.7-33.3h15.7
	v-4.4l6.5,0.3c0,0.4-0.3,0.7-1.2,0.9v3.2h15.7v4.8H51z M69.2,174.4v4.1H83v4.4H50.6v-4.4h13.6v-4.1H53.5v-4.5h10.7V165l-2.4,2.9
	c-0.7-1-2-2.4-3.4-3.8c-1,1.8-2.4,3.4-4,4.6c-0.8-0.9-2.4-2.2-3.5-2.9c3.5-2.2,5.2-6.4,5.7-11.4l5.4,0.7c-0.1,0.3-0.4,0.6-0.9,0.6
	c-0.2,1.5-0.5,2.9-0.9,4.2c1.5,1.3,3,2.8,4,3.9v-10l6.1,0.3c0,0.4-0.3,0.7-1.1,0.8v9.7c2.7-2.3,4.1-6,4.7-10.2l5.4,0.9
	c-0.1,0.3-0.4,0.6-1,0.6c-0.3,1.4-0.6,2.7-1,4c2.2,1.8,4.7,3.8,6.1,5.2l-3,3.6c-1.1-1.2-3.1-3-4.9-4.7c-1.1,1.8-2.4,3.3-4,4.4
	c-0.5-0.6-1.4-1.3-2.2-2v3.5h11.4v4.5L69.2,174.4L69.2,174.4z M97.1,183.1v-31.6c-0.1-0.1-6.6,3.4-6.7,3.4l-1.6-5.4l9.3-4.8h6.3
	v38.3L97.1,183.1L97.1,183.1z M117.3,144.5h3.5v7.8h7.5v3.3h-7.5v7.9h-3.5v-7.9h-7.5v-3.3h7.5V144.5z M144.6,144.8
	c-0.2,0.3-0.6,0.6-1.2,0.6c-0.8,2.1-1.9,4.8-3,7.1c2-0.1,4.1-0.1,6.3-0.2c-0.7-1.3-1.5-2.5-2.2-3.7l4.4-1.8c2.2,3,4.5,7.1,5.4,9.9
	l-4.7,2c-0.2-0.6-0.4-1.4-0.8-2.2c-5.5,0.4-11,0.8-14.7,1c-0.1,0.4-0.4,0.6-0.8,0.7l-1.5-5.6c1,0,2.1,0,3.4,0
	c1.3-2.9,2.7-6.5,3.5-9.4C138.7,143.3,144.6,144.8,144.6,144.8z M151.1,159.7v19.1c0,4.2-1.8,5.1-7.8,5.1c-0.3-1.4-1-3.3-1.6-4.6
	c3.7-0.1,4.7,1.3,4.3-2.9h-6.4v7.6h-4.8v-24.2L151.1,159.7L151.1,159.7z M146,164h-6.4v2.3h6.4V164z M139.6,172.6h6.4v-2.5h-6.4
	V172.6z M166.2,158.3c1.4,0,1.7-0.6,1.9-4.4c1,0.8,3.1,1.6,4.6,1.9c-0.2,8.9-6.2,7-11.9,7.2c-5.1,0-6.3-1.5-6.3-6.3v-13l6.3,0.3
	c0,0.4-0.4,0.7-1.2,0.8v5c2.9-1.1,5.8-2.4,7.8-3.6l3.5,3.9c-3.2,0.9-7,2.8-11.2,3.9c0.2,1.6-0.9,4.8,1.9,4.3
	C161.4,158.3,166.2,158.3,166.2,158.3L166.2,158.3z M159.5,177.4c-0.6,3,5.3,1.4,6.9,1.8c1.5,0,1.8-0.8,2-5.2
	c1.1,0.8,3.1,1.5,4.5,1.9c-0.1,9.6-6,7.7-12.2,7.8c-5.1,0-6.3-1.5-6.3-6.3v-13.6l6.3,0.3c0,0.4-0.3,0.7-1.2,0.8v4.7
	c3.1-1.2,6.1-2.7,8.2-4l3.6,4c-3.4,1-7.3,3.2-11.8,4.4L159.5,177.4L159.5,177.4z M185.2,155.8c-0.1,0.3-0.5,0.5-1,0.5
	c-1.3,3.1-3.6,6.6-5.9,8.8c-0.9-0.9-2.6-2.2-3.7-2.9c2.1-1.8,4.1-5.1,5.2-8.1L185.2,155.8L185.2,155.8z M197.2,149.1v4.6H175v-4.6
	h8.7v-5.6l6.1,0.3c0,0.4-0.3,0.7-1.1,0.8v4.4L197.2,149.1L197.2,149.1z M193.5,163.6c-0.1,0.4-0.5,0.6-1.1,0.6
	c-0.6,2.3-1.5,4.6-2.4,6.6c1.7,2,3.1,3.9,4,5.6l-4.2,3.3c-0.6-1.2-1.5-2.6-2.6-4.1c-2.4,3.4-5.3,6.2-8.8,8.2c-0.7-1.1-2.3-3-3.4-3.9
	c3.6-1.9,6.6-4.8,8.8-8.4c-1.7-2-3.6-3.9-5.3-5.6l3.9-2.9c1.2,1.1,2.5,2.4,3.8,3.7c0.5-1.4,1-2.9,1.3-4.4L193.5,163.6L193.5,163.6z
	 M215.5,156.1h-2.6c-0.9,6.4-2.3,11.8-4.7,16.3c1.9,3.1,4.3,5.5,7.4,7.2c-1.1,1-2.7,3-3.4,4.3c-2.9-1.8-5.2-4.1-7-7
	c-2.4,2.9-5.4,5.2-9.3,6.9c-0.5-1.2-1.8-3.3-2.6-4.3c4-1.7,7-4.1,9.3-7.4c-1.1-2.6-2-5.4-2.8-8.5c-0.6,1-1.2,2-1.8,2.8
	c-0.8-1-2.4-2.7-3.5-3.6c0.4-0.6,0.8-1.2,1.2-1.9l-3.6,2c-0.6-1.9-2.5-4.8-4.2-6.9l3.9-2.1c1.7,1.9,3.5,4.4,4.3,6.3
	c2.2-4.4,3.7-10.6,4.6-16.9l6,1.2c-0.1,0.4-0.5,0.6-1.1,0.6c-0.3,2.1-0.7,4.1-1.2,6.1h11.3L215.5,156.1L215.5,156.1z M202.9,156.1
	l-0.1,0.3c0.6,3.6,1.5,7.1,2.6,10.2c1.2-3,1.9-6.5,2.4-10.5H202.9z M228.9,157.9l2.8,0.8c-1.1,5.6-1.6,11.3-3.3,15.3
	c7.5,5.7,20.6,3.5,30.4,3.8c-0.8,1.2-1.7,3.6-2,5c-9.2-0.2-23.6,1.4-30.4-4.3c-1.3,2.3-3,4.2-4.8,5.6c-0.8-1-2.8-2.8-3.9-3.5
	c2.1-1.4,3.7-3.3,5.1-5.8c-1.6-2.2-3-4.9-4.1-8.4l4-1.5c0.6,1.9,1.3,3.5,2.1,4.9c0.7-2.1,1.2-4.6,1.5-7.3h-3l-0.6,1.2l-4.7-1.2
	c1.9-3.8,4-8.5,5.6-12.3H218v-4.5c0.5,0,9.2,0.1,9.4-0.1c0,0,3,1.1,3,1.1c-1.5,3.2-3,6.9-5,11.3C226,158.1,228.2,158.1,228.9,157.9z
	 M240.9,152.2v-1.8h-7.6v-3.9h7.6v-3.2l6.1,0.3c0,0.4-0.3,0.7-1.1,0.8v2.1h8.7v5.7h3.6v3.9h-3.6v5.7H246v1.8h9.3v3.7H246v1.8h11.3
	v4.1H246v3.6h-5v-3.6h-10.3v-4.1h10.3v-1.8h-8.4v-3.7h8.4v-1.8h-7.8V158h7.8v-1.8h-10.9v-3.9C230.1,152.2,240.9,152.2,240.9,152.2z
	 M249.6,150.5H246v1.8h3.6V150.5z M249.6,158v-1.8H246v1.8H249.6z M300.6,173.8h-13.7c3.7,2.1,9.3,3.8,14.5,4.6
	c-1.1,1.1-2.6,3.1-3.3,4.4c-5.2-1.2-10.6-3.5-14.6-6.7v7.8h-5V176c-4,3.1-9.4,5.6-14.7,6.9c-0.7-1.2-2.1-3.2-3.2-4.2
	c5.1-0.9,10.4-2.6,14.1-4.9h-13.2v-4h17v-1.1c-0.3,0.1-0.5,0.2-0.8,0.3c-0.6-0.9-2.2-2.5-3.2-3.2c-4.1,0.7-8.1,1.3-10.9,1.8
	c0,0.3-0.3,0.6-0.6,0.6l-1.5-4.6c1.8-0.2,4.1-0.4,6.6-0.7v-4.6h-5.4v-3.6h15.5v3.6h-5.4v4.1l5.4-0.6l0.1,1.6c2.6-2.3,1.6-6,1.8-8.8
	h15.8c0.3,0.9-0.6,9.2,0.5,9.1c2.4,0,1.3-0.5,1.7-4c0.8,0.7,2.3,1.4,3.3,1.8c-0.3,4.2-0.5,6.2-4.3,6.2c-4,0.5-6.3-1.1-6.1-4
	l-2.4,2.2c-0.9-1.2-2.6-2.8-4.2-4c-0.4,1.6-1.2,3.2-2.7,4.6l2.9,0.2c0,0.4-0.4,0.7-1.1,0.8v2.3h17.1L300.6,173.8L300.6,173.8z
	 M270.8,154.4c-0.3-1.1-1.1-2.6-1.8-3.9h-0.9c-1.1,1.4-2.2,2.7-3.4,3.8c-1-0.8-2.7-2-3.9-2.6c2.4-2,4.9-5.4,6.2-8.6l5.5,1.8
	c-0.2,0.3-0.6,0.5-1.1,0.4l-0.6,1.2h9.7v3.1c1.7-1.9,3.2-4.2,4.1-6.5l5.5,1.6c-0.2,0.4-0.6,0.5-1.1,0.5l-0.6,1.3H301v4h-7.6
	c0.7,0.9,1.3,1.9,1.6,2.7l-4.4,1.2c-0.4-1-1.4-2.6-2.4-3.9h-2.6c-1,1.3-2.1,2.4-3.2,3.4c-1.1-0.7-3-1.7-4.2-2.3
	c0.4-0.3,0.9-0.7,1.3-1.1h-6c0.6,1,1.1,2,1.4,2.7C274.9,153.3,270.8,154.5,270.8,154.4z M291,158.1h-6.3c0,1.6,0,2-0.1,2.9l2.2-1.9
	c1.4,1,3.1,2.3,4.2,3.4L291,158.1L291,158.1z M339.1,161.5v4.4h-13v13h-4.4v-13h-13v-4.4h13v-13h4.4v13H339.1z M381.9,176.8h-5.8
	c4.1,1.3,8.2,2.8,10.9,3.9l-4.5,3.3c-2.9-1.4-7.9-3.3-12.6-4.9l2.5-2.2h-11.8l3.2,2.1c-3.5,1.6-8.8,3.9-13.7,5.1
	c-0.8-1-2.4-2.6-3.6-3.5c3.7-0.8,8.2-2.3,11.2-3.7H352v-14.2h12v-1.5h-16.9v-4.3h39.4v4.3h-17.4v1.5h12.7L381.9,176.8L381.9,176.8z
	 M356.9,155.3V150h-7.5v-3.9h7.5v-2.7l6.2,0.3c0,0.4-0.4,0.7-1.2,0.8v1.5h9.9v-2.7l6.4,0.3c0,0.4-0.4,0.7-1.2,0.8v1.5h7.4v3.9h-7.4
	v5.3L356.9,155.3L356.9,155.3z M357,166v2.1h7.1V166H357z M357,171.3v2.1h7.1v-2.1H357z M371.8,150h-9.9v1.9h9.9V150z M376.7,166
	h-7.5v2.1h7.5V166z M376.7,173.4v-2.1h-7.5v2.1H376.7z M418.4,169.7l5.2,2.2c-0.2,0.3-0.6,0.5-1.2,0.4c-1,1.8-2.7,4.2-4.2,5.9h9.8
	v4.4h-36.6v-4.4h8.5c-0.6-2-2.1-4.8-3.6-7l3.9-1.6h-6.6v-4.4h13.2V161h-8v-2.1c-2.1,1.5-4.2,2.9-6.5,4.1c-0.7-1.2-2.1-3.1-3.1-4.1
	c7.4-3.7,14.4-10.3,17.6-15.7l6.9,0.4c-0.1,0.4-0.5,0.8-1.1,0.9c4.1,5.6,11.5,11.1,17.9,13.8c-1.3,1.3-2.5,3-3.4,4.6
	c-2.2-1.2-4.4-2.6-6.6-4.1v2.2h-8.3v4.3h13.3v4.4L418.4,169.7L418.4,169.7z M406.7,169.7h-6.2c1.6,2.2,3.3,5.1,3.9,7.1l-3.5,1.5h5.8
	L406.7,169.7L406.7,169.7z M417.5,156.5c-3.2-2.6-6-5.4-8-8.1c-1.8,2.6-4.5,5.4-7.7,8.1C401.8,156.5,417.5,156.5,417.5,156.5z
	 M413.9,177c1.4-1.9,3.2-5,4.2-7.3h-6v8.6h4.4L413.9,177L413.9,177z M469.7,157.2l3.1,1.3c-0.1,0.3-0.3,0.6-0.6,0.7
	c-1.3,6.3-3.6,11.7-6.6,15.9c2.1,2,4.6,3.6,7.6,4.7c-1,0.9-2.5,2.9-3.2,4.2c-3-1.2-5.5-3-7.6-5.1c-1.9,2-4.1,3.6-6.4,4.9
	c-0.7-1.1-2.4-3-3.4-3.8c2.5-1.2,4.8-2.9,6.8-5c-1.6-2.4-2.9-5.2-3.9-8.3c-0.9,7.1-2.7,13.1-5.9,17.2c-0.8-0.9-2.7-2.4-3.8-3
	c1-1.2,1.8-2.6,2.5-4.2l-2.6,0.9c-0.4-2.1-1.4-5.2-2.3-7.6l3.9-1.2c0.7,1.7,1.4,3.8,1.9,5.5c2-6.1,2.5-14.4,2.6-23.6h-3.4l0.1,0
	c-0.2,0.3-0.6,0.5-1.2,0.5c-2,3.3-5,7.6-7.8,11l4.5,0c-0.5-1.1-1-2.2-1.6-3.2l3.7-1.5c1.7,2.8,3.4,6.5,3.9,9l-4,1.8
	c-0.1-0.6-0.3-1.3-0.6-2.1l-2.2,0.1v17.7h-4.5v-13.8c-0.2,0.2-0.5,0.3-0.9,0.3c-0.4,3.5-1.3,7.6-2.5,10.2c-0.9-0.6-2.6-1.4-3.6-1.8
	c1.1-2.4,1.8-6.4,2.1-10.1l4.9,1.1v-3.4c-1.8,0.1-3.6,0.2-4.9,0.3c-0.1,0.4-0.5,0.6-0.8,0.6l-1-5.2h3c0.7-0.9,1.5-1.8,2.1-2.9
	c-1.2-1.9-3.3-4.1-5-5.8l2.4-3.5l0.9,0.9c1.2-2.4,2.5-5.2,3.2-7.5l5,2.1c-0.1,0.3-0.6,0.4-1.2,0.4c-1,2.3-2.7,5.5-4.2,7.8
	c0.5,0.6,1,1.2,1.4,1.7c1.5-2.4,2.9-4.8,3.9-6.9l4.6,2.1V146c2.7,0.2,16.2-0.4,18.5,0.4c-0.6,3.2-1.2,6.7-2.1,10.9
	C465.4,157.3,469.1,157.4,469.7,157.2L469.7,157.2z M458.9,162.8c0.9-3.7,1.8-8.4,2.4-12.1h-4.7c-0.1,7.5,2.6,15.4,5.9,20.6
	c1.8-2.7,3.2-5.8,4.2-9.4h-3l-0.3,1.4C463.5,163.3,458.9,162.8,458.9,162.8z M505.8,163.1c0.4,1.7,1,3.4,1.7,5.1
	c1.5-1.4,3-3.1,4.1-4.4l4.3,3.7c-0.2,0.3-0.9,0.3-1.2,0.2c-1.2,1.2-3.4,3-5.2,4.2c1.6,2.4,3.8,4.5,6.6,5.9c-1,0.9-2.5,2.9-3.2,4.2
	c-3.3-2-5.6-5.1-7.3-8.5c-0.4,5.9,2.3,11.1-7.8,10.4c-0.2-1.2-0.8-3.1-1.3-4.3c1.1-0.1,4.6,0.6,4.5-0.5c0,0,0-16,0-16h-9.2
	c0.4,1.1,0.8,2.1,1,3l2.4-2c1.8,1.5,4,3.7,4.9,5.2l-3.6,3.1c-0.9-1.5-2.9-3.8-4.6-5.4l-3,1.3c-0.1-0.6-0.3-1.4-0.6-2.1l-2.2,0.2
	v17.6h-4.5v-13.9c-0.2,0.3-0.6,0.4-0.9,0.3c-0.4,3.5-1.3,7.6-2.5,10.2c-0.9-0.6-2.6-1.3-3.6-1.8c1.1-2.4,1.7-6.4,2.1-10.1l4.9,1.2
	v-3.4c-1.9,0.1-3.6,0.2-5.1,0.3c-0.1,0.4-0.5,0.6-0.8,0.6l-1-5.1h3.1c0.7-0.9,1.4-1.8,2.1-2.8c-1.2-1.9-3.3-4.2-5.1-5.9l2.5-3.5
	l0.9,0.9c1.2-2.4,2.5-5.3,3.3-7.6l5,2.1c-0.2,0.3-0.6,0.4-1.2,0.4c-1.1,2.4-2.8,5.6-4.3,7.9c0.5,0.6,1,1.2,1.5,1.8
	c1.5-2.4,2.9-4.9,4-7.1l4.8,2.2c-0.2,0.3-0.6,0.5-1.2,0.5c-2,3.3-5,7.6-7.8,11l4.4,0c-0.5-1.2-1.1-2.3-1.6-3.3l3.7-1.5
	c0.9,1.6,2,3.6,2.7,5.4v-4.1h13.7l0.4-2h-7.6l-0.3,1l-4.8-0.7c1.2-3.6,2.6-9.2,3.5-13.5l5.8,0.6c-0.1,0.4-0.4,0.7-1.2,0.7l-0.4,1.9
	c2.6,0.1,9.3-0.4,11.7,0.4c-0.3,2.1-1.3,7.4-2.2,11.6h5.4v4.4C515.7,163.1,505.9,163.1,505.8,163.1z M490.1,168.8
	c1,2.3,2,5.2,2.5,7.2c-1.2,0.4-2.5,0.9-4,1.5c-0.3-2-1.4-5.1-2.3-7.4L490.1,168.8L490.1,168.8z M501.1,175.5
	c-2.7,2.1-5.5,4.3-7.5,5.7c0,0.4-0.1,0.8-0.4,1l-2.7-4.9c2.3-1.2,5.8-3.4,9.1-5.6L501.1,175.5z M499.3,152.8h7.3l0.4-2.3h-7.1
	L499.3,152.8z M529.1,157.9l2.8,0.8c-1.1,5.6-1.6,11.3-3.3,15.3c7.5,5.7,20.6,3.5,30.4,3.8c-0.8,1.2-1.7,3.6-2,5
	c-9.2-0.2-23.6,1.4-30.5-4.3c-1.3,2.3-3,4.2-4.8,5.6c-0.8-1-2.8-2.8-3.9-3.5c2.1-1.4,3.7-3.3,5.1-5.8c-1.6-2.2-3-4.9-4.1-8.4l4-1.5
	c0.6,1.9,1.3,3.5,2.1,4.9c0.7-2.1,1.2-4.6,1.5-7.3h-3l-0.6,1.2l-4.7-1.2c1.9-3.8,4-8.5,5.6-12.3h-5.7v-4.5c0.5,0,9.2,0.1,9.4-0.1
	c0,0,3,1.1,3,1.1c-1.5,3.2-3,6.9-5,11.3C526.2,158.1,528.4,158.1,529.1,157.9z M541.2,152.2v-1.8h-7.6v-3.9h7.6v-3.2l6.1,0.3
	c0,0.4-0.3,0.7-1.1,0.8v2.1h8.7v5.7h3.6v3.9h-3.6v5.7h-8.7v1.8h9.4v3.7h-9.4v1.8h11.3v4.1h-11.3v3.6h-5v-3.6h-10.3v-4.1h10.3v-1.8
	h-8.4v-3.7h8.4v-1.8h-7.8V158h7.8v-1.8h-10.9v-3.9C530.3,152.2,541.1,152.2,541.2,152.2z M549.8,150.5h-3.6v1.8h3.6V150.5z
	 M549.8,158v-1.8h-3.6v1.8H549.8z M600.8,173.8h-13.7c3.7,2.1,9.3,3.8,14.5,4.6c-1.1,1.1-2.6,3.1-3.3,4.4
	c-5.2-1.2-10.6-3.5-14.6-6.7v7.8h-5V176c-4,3.1-9.4,5.6-14.7,6.9c-0.7-1.2-2.1-3.2-3.2-4.2c5.1-0.9,10.4-2.6,14.1-4.9h-13.2v-4h17
	v-1.1c-0.3,0.1-0.5,0.2-0.8,0.3c-0.6-0.9-2.2-2.5-3.2-3.2c-4.1,0.7-8.1,1.3-10.9,1.8c0,0.3-0.3,0.6-0.6,0.6l-1.5-4.6
	c1.8-0.2,4.1-0.4,6.6-0.7v-4.6h-5.5v-3.6h15.5v3.6h-5.4v4.1l5.5-0.6l0.1,1.6c2.6-2.3,1.6-6,1.8-8.8H596c0.3,0.9-0.6,9.2,0.5,9.1
	c2.4,0,1.3-0.5,1.7-4c0.8,0.7,2.3,1.4,3.3,1.8c-0.3,4.2-0.5,6.2-4.3,6.2c-4,0.5-6.3-1.1-6.1-4l-2.4,2.2c-0.9-1.2-2.6-2.8-4.2-4
	c-0.4,1.6-1.2,3.2-2.7,4.6l2.9,0.2c0,0.4-0.4,0.7-1.1,0.8v2.3h17.1L600.8,173.8L600.8,173.8z M571,154.4c-0.3-1.1-1.1-2.6-1.8-3.9
	h-0.9c-1.1,1.4-2.2,2.7-3.4,3.8c-1-0.8-2.7-2-3.9-2.6c2.4-2,4.8-5.4,6.2-8.6l5.5,1.8c-0.2,0.3-0.6,0.5-1.1,0.4l-0.6,1.2h9.7v3.1
	c1.7-1.9,3.2-4.2,4.1-6.5l5.5,1.6c-0.2,0.4-0.6,0.5-1.1,0.5l-0.6,1.3h12.6v4h-7.6c0.7,0.9,1.3,1.9,1.6,2.7l-4.4,1.2
	c-0.4-1-1.4-2.6-2.4-3.9h-2.6c-1,1.3-2.1,2.4-3.2,3.4c-1.1-0.7-3-1.7-4.2-2.3c0.4-0.3,0.9-0.7,1.3-1.1h-6c0.6,1,1.1,2,1.4,2.7
	C575.1,153.3,571,154.5,571,154.4z M591.2,158.1h-6.3c0,1.6,0,2-0.1,2.9l2.2-1.9c1.4,1,3.1,2.3,4.2,3.4L591.2,158.1L591.2,158.1z"/>
</svg>
