<?xml version="1.0" encoding="UTF-8"?>
<svg id="_圖層_2" data-name="圖層_2" xmlns="http://www.w3.org/2000/svg" viewBox="0 0 484.01 39.46">
  <defs>
    <style>
      .cls-1 {
        fill: #666;
      }
    </style>
  </defs>
  <g id="_圖層_1-2" data-name="圖層_1">
    <g>
      <path class="cls-1" d="M21.2,10.62c-.52.09-.69.13-1.3.26-3.54.73-5.61,1.08-7.64,1.3v7.47c3.76-1.12,6.39-1.55,9.28-1.55,3.07,0,5.66.6,7.64,1.81,2.85,1.68,4.45,4.45,4.45,7.64,0,5.05-3.84,8.94-8.81,8.94-3.41,0-5.83-1.77-6.65-4.88-.39-1.42-.56-2.72-.52-4.88,1.34-.35,1.77-.52,2.85-1.12-.09.78-.09,1.17-.09,1.68,0,4.49,1.3,6.35,4.45,6.35,3.37,0,5.79-2.55,5.79-6.09,0-4.23-3.58-6.87-9.24-6.87-2.76,0-5.53.52-9.15,1.68v10.79c0,2.33-1.04,3.45-3.15,3.45-2.42,0-5.22-1.08-7.12-2.76-1.34-1.17-1.99-2.5-1.99-4.06,0-1.9,1.08-3.76,3.41-5.74,1.6-1.34,3.37-2.37,6.09-3.54v-8.16q-.39.04-1.73.13c-.78.04-1.51.04-2.76.04-.65,0-1.81,0-2.29-.04H.95v-2.85c1.25.22,2.46.3,4.4.3,1.17,0,2.85-.04,4.15-.13v-4.27c0-1.73-.04-2.81-.22-4.1h3.2c-.17,1.21-.22,2.03-.22,4.02v4.14c3.71-.47,6.43-1.04,8.81-1.86l.13,2.89ZM9.5,23.36c-4.27,2.07-6.69,4.4-6.69,6.48,0,.91.6,1.77,1.86,2.59,1.17.73,2.72,1.25,3.84,1.25.86,0,.99-.26.99-2.12v-8.2ZM33.2,15.24c-2.29-3.19-5.35-6.17-8.72-8.46l2.25-1.68c3.97,2.81,6.13,4.88,8.72,8.2l-2.25,1.94Z"/>
      <path class="cls-1" d="M42.83,12.31c1.55-.04,6.04-.56,9.54-1.12.73-3.2,1.3-7.34,1.3-9.15v-.56l3.45.39c-.3.95-.43,1.68-.82,4.14-.22,1.25-.52,2.85-.91,4.92.99-.09,1.55-.13,2.55-.13,3.07,0,4.88.52,6.22,1.81,1.51,1.42,2.12,3.41,2.12,6.95,0,6.61-1.12,12.35-2.89,14.85-1.04,1.47-2.2,2.03-4.23,2.03-1.86,0-3.67-.47-6.52-1.68.09-.65.09-.95.09-1.51,0-.65,0-.95-.13-1.73,2.46,1.25,4.88,1.99,6.43,1.99,1.08,0,1.9-.69,2.46-2.07,1.17-2.76,1.81-7.17,1.81-12,0-4.58-1.3-6.04-5.31-6.04-.95,0-1.51.04-3.11.22-1.6,6.82-3.58,12.35-6.52,18.31-.56,1.04-1.47,2.76-2.81,5.18l-2.94-1.73c1.34-1.68,2.98-4.53,4.49-7.81,2.03-4.32,3.32-8.12,4.75-13.69-3.71.56-5.79.91-6.17.99-.99.17-1.34.26-2.5.56l-.35-3.11ZM71.2,8.33c4.4,4.75,6.99,9.2,9.02,15.28l-2.76,1.6c-1.64-5.96-4.62-11.23-8.81-15.5l2.55-1.38Z"/>
      <path class="cls-1" d="M89.07,12.56c1.08.09,1.64.09,2.59.09,3.8,0,11.44-.52,15.15-1.04.99-.13,1.51-.26,2.07-.48l1.9,2.37c-.91.69-1.34,1.12-3.84,3.58-3.63,3.63-6.43,6.13-8.55,7.77,2.42-1.17,3.15-1.42,4.32-1.42s2.2.39,2.94,1.12c.86.86,1.17,1.86,1.34,4.32.17,2.72.3,3.37.78,4.06.6.82,1.6,1.17,3.58,1.17,3.15,0,6.43-.6,8.72-1.6l.47,3.32q-.43.04-3.5.52c-2.37.39-4.02.56-5.92.56-3.24,0-5.14-.78-6.04-2.46-.52-.95-.73-1.9-.95-4.75-.13-1.99-.22-2.46-.48-2.98-.3-.65-1.08-1.04-1.99-1.04-2.25,0-4.36,1.21-7.94,4.53-2.12,1.94-4.97,4.88-6.48,6.61l-2.42-2.68c1.51-1.04,2.07-1.51,4.66-3.97,3.11-2.89,6.69-6.35,10.19-9.8,1.25-1.25,3.45-3.41,6.56-6.39-2.68.6-5.53.91-12.87,1.38-2.07.13-2.98.22-4.1.35l-.22-3.15ZM94.08,1.94c4.58,1.6,9.93,2.5,15.63,2.68l-.6,2.89c-7.77-.69-10.92-1.25-16.1-2.94l1.08-2.63Z"/>
      <path class="cls-1" d="M134.76,1.55c-.35.91-.6,2.12-.99,4.45-.69,4.36-1.3,9.07-1.42,11.27l.17.04q.09-.35.3-1.25c.52-2.37,1.38-4.49,2.63-6.43,2.42-3.71,5.27-5.57,8.64-5.57,2.81,0,5.22,1.34,6.91,3.84,1.81,2.68,2.59,5.87,2.59,10.49,0,7.82-3.5,13.73-9.97,16.97-2.07,1.04-4.66,1.9-7.69,2.55-.52-1.3-.78-1.77-1.73-2.94,4.02-.6,6.26-1.3,8.76-2.72,5.05-2.89,7.43-7.43,7.43-14.33s-2.42-10.97-6.56-10.97c-3.28,0-6.04,2.46-8.51,7.51-1.51,3.15-2.33,6.48-2.33,9.63,0,.17,0,.39.04,1.04l-3.11.13v-.47l-.04-.78-.09-4.49v-.99c0-4.23.39-8.29,1.47-15.93.09-.65.13-.86.13-1.38l3.37.35Z"/>
      <path class="cls-1" d="M178.49,1.64c-.3.82-.35.99-.69,2.76-.3,1.47-.56,2.5-1.17,4.71,3.02-.26,5.74-.78,7.73-1.42l.13,2.98q-.48.09-1.51.26c-1.77.39-4.45.73-7.08.91-1.34,4.62-2.89,8.64-4.79,12.61-1.04,2.07-1.42,2.81-3.07,5.66-.39.6-.65,1.12-.86,1.47l-2.94-1.73c1.38-1.73,2.55-3.63,4.15-6.74,1.99-3.93,3.24-7.04,4.49-11.14-1.08.04-2.55.09-3.19.09-.73,0-2.2-.04-2.85-.04-.48-.04-.82-.04-.95-.04h-.56l.04-2.98c1.47.26,2.76.35,5.14.35.86,0,2.29-.04,3.11-.04.69-2.46,1.38-6.13,1.47-8.12l3.41.47ZM199,35.15c-1.68-2.07-4.4-4.23-7.56-5.87.09.69.09.95.09,1.38,0,4.45-2.94,6.91-8.2,6.91s-8.42-2.42-8.42-6.26c0-2.33,1.6-4.49,4.02-5.48,1.51-.65,3.15-.95,5.09-.95,1.6,0,2.68.17,4.36.65-.22-2.81-.3-4.84-.3-5.92,0-1.55.09-2.59.43-4.19l2.94.3c-.43,1.6-.56,2.5-.56,4.02,0,1.94.22,4.92.48,6.56,3.45,1.51,6.13,3.15,8.46,5.22q.48.48.78.69l-1.6,2.94ZM183.8,27.42c-3.67,0-6,1.51-6,3.89,0,2.2,2.07,3.54,5.48,3.54,3.71,0,5.4-1.47,5.4-4.71,0-.52-.09-1.86-.09-1.86-1.81-.65-3.07-.86-4.79-.86ZM198.96,15.67c-3.63-2.5-6.91-4.23-11.44-5.87l1.6-2.42c5.01,1.99,7.9,3.45,11.4,5.7l-1.55,2.59Z"/>
      <path class="cls-1" d="M209.36,10.19c1.12.17,1.86.22,3.32.22,3.93,0,8.81-.35,12.87-.91-.65-1.47-1.34-3.2-2.12-5.14-.48-1.12-.73-1.73-1.12-2.5l3.41-.48q.17,1.12,1.25,3.89c1.04,2.76,1.17,2.98,1.55,3.8,4.19-.69,8.12-1.73,10.45-2.72l.43,3.07c-.91.17-1.25.26-2.55.6-2.59.69-3.11.82-5.83,1.34q-1.04.22-1.47.3c1.55,3.37,4.75,8.55,7.77,12.56l-2.89,1.64c-1.17-.95-1.77-1.34-2.98-1.77-2.2-.73-4.62-1.12-7.56-1.12-3.63,0-6.26.6-8.2,1.81-1.43.91-2.33,2.46-2.33,4.02,0,1.34.6,2.5,1.64,3.37,1.6,1.25,4.71,1.99,8.42,1.99,4.27,0,9.02-1.08,12.26-2.76l.47,3.32c-4.32,1.6-8.42,2.33-12.69,2.33-5.27,0-9.24-1.17-11.23-3.24-1.25-1.34-1.94-3.02-1.94-4.75,0-2.85,1.86-5.57,4.88-7.04,2.29-1.12,4.88-1.6,8.38-1.6,3.71,0,7.12.6,8.94,1.55-2.25-3.07-3.32-4.84-5.18-8.46-.48-.91-.48-.99-.73-1.42-4.27.6-9.67,1.04-15.37,1.12-.82,0-1.04.04-1.68.13l-.17-3.15Z"/>
      <path class="cls-1" d="M253.45,5.61c-.22,1.34-.3,2.76-.3,5.14,0,4.75.47,10.66,1.12,13.43.95,4.4,2.72,7.38,4.36,7.38.78,0,1.51-.73,2.16-2.16.99-2.16,1.68-4.45,2.24-7.38.95,1.12,1.34,1.51,2.55,2.46-2.12,7.56-4.1,10.45-7.17,10.45-2.42,0-4.66-2.42-6.13-6.56-1.51-4.1-2.12-9.63-2.33-20.25-.04-1.64-.04-1.77-.13-2.55l3.63.04ZM274.3,7.9c2.81,3.32,4.58,6.17,6.17,9.84,1.64,3.63,2.46,6.69,3.24,11.53l-3.07,1.25c-.78-8.03-3.93-15.41-8.98-21.29l2.63-1.34Z"/>
      <path class="cls-1" d="M338.2,12.56c-.09.65-.13.95-.13,1.81,0,5.44,1.04,10.15,3.11,14.33,1.77,3.5,3.28,5.44,6.39,8.03-.91.99-1.21,1.42-1.77,2.59-2.63-2.59-4.19-4.66-5.66-7.34-1.64-3.02-2.55-5.79-3.28-9.71-.43,3.84-1.12,6.43-2.42,9.28-1.47,3.28-3.11,5.48-5.87,7.9-.56-1.12-.91-1.6-1.6-2.2-.73-.13-1.77-.17-3.19-.17h-10.54v2.25h-2.72c.17-1.3.3-2.98.3-4.36v-6.99c0-.73.04-1.81.13-3.28-.95,1.38-1.38,1.94-2.37,3.02-.6-.78-.91-1.08-1.68-1.73,2.03-1.99,3.76-4.36,4.97-6.86.43-.95.56-1.25.95-2.63l2.33.69c0,.09-.17.39-.48.99l-.82,1.64h5.74c.69-1.25.99-1.9,1.38-3.07l2.2.73c-.52,1.04-.95,1.81-1.3,2.33h3.02c1.51,0,2.59-.04,3.58-.22v2.37c-.91-.13-1.9-.17-3.54-.17h-3.54v3.07h3.02c1.64,0,2.42-.04,3.11-.17v2.29c-.69-.13-1.64-.17-3.15-.17h-2.98v3.07h2.98c1.55,0,2.46-.04,3.15-.17v2.29c-.78-.13-1.77-.17-3.28-.17h-2.85v3.2h2.5c1.6,0,2.46-.04,3.28-.17v2.12c2.25-1.86,3.63-3.63,5.01-6.43,2.07-4.32,3.11-9.5,3.11-15.85,0-1.25,0-1.42-.13-2.12h3.02ZM311.18,5.27c-1.55,0-2.59.09-3.45.22v-2.55c.91.17,1.99.26,3.54.26h1.94v-.39c0-1.21-.04-1.9-.22-2.63h2.81c-.09.69-.13,1.38-.13,2.59v.43h5.87v-.39c0-1.08-.04-1.86-.17-2.59h2.85c-.17.78-.22,1.38-.22,2.5v.48h1.81c1.77,0,2.72-.04,3.71-.22v2.5c-1.12-.17-1.86-.22-3.71-.22h-1.81c0,1.04.04,1.68.09,2.16h-2.63c.04-.56.09-1.04.09-2.16h-5.87c0,1.17.04,1.64.09,2.12h-2.63c.04-.52.09-1.04.09-2.12h-2.03ZM309.02,10.66c0-1.21-.04-1.64-.13-2.29.56.13.91.13,2.29.13h4.02c1.21,0,1.6,0,2.2-.13-.13.65-.13.95-.13,2.2v3.32c0,1.3.04,1.73.13,2.37-.65-.09-1.17-.13-2.37-.13h-3.8c-1.25,0-1.77,0-2.37.09.13-.73.17-1.47.17-2.33v-3.24ZM311.13,14.21h4.06v-3.8h-4.06v3.8ZM319.08,24.87v-3.07h-5.83v3.07h5.83ZM313.25,29.88h5.83v-3.07h-5.83v3.07ZM313.25,35.02h5.83v-3.2h-5.83v3.2ZM319.38,10.62c0-1.12-.04-1.6-.13-2.25.69.13.91.13,2.2.13h4.19c1.21,0,1.51,0,2.2-.13-.13.65-.13.99-.13,2.25v3.2c0,1.3.04,1.81.13,2.46-.65-.09-1.12-.13-2.33-.13h-3.93c-1.25,0-1.47,0-2.37.09.13-.78.17-1.42.17-2.33v-3.28ZM321.45,14.21h4.19v-3.8h-4.19v3.8ZM341.66,6.95c2.24,0,3.2-.04,4.02-.22l1.47,1.55q-.39.82-1.25,3.5c-.82,2.5-1.64,4.53-2.89,7.12-.86-.6-1.34-.82-2.42-1.25,1.64-2.81,2.68-5.35,3.5-8.33h-9.93c-1.17,4.06-2.16,6.43-3.93,9.33-.56-.6-1.21-1.08-2.2-1.6,2.07-2.94,3.28-5.87,4.15-9.89.47-2.25.82-5.01.82-6.65v-.22s0-.17-.04-.3l2.98.35q-.3,1.34-.73,4.4c-.13.73-.22,1.3-.43,2.2h6.91Z"/>
      <path class="cls-1" d="M353.23,17.1c1.04.17,1.73.22,3.37.22h2.25c1.34,0,2.2-.04,3.32-.22-.17,1.25-.22,2.33-.22,4.58v8.42c.86,1.77,1.34,2.37,2.55,3.15,2.37,1.6,4.88,2.03,11.74,2.03s12.78-.26,16.67-.82c-.69,1.68-.78,1.94-.99,3.24-4.27.17-9.15.26-13.69.26-6.74,0-9.37-.22-11.61-.91-2.72-.86-4.15-1.94-6.09-4.71-1.94,1.94-3.02,2.89-5.22,4.58-.09.09-.48.39-1.55,1.3l-1.42-2.81c1.94-.91,4.53-2.85,6.95-5.27v-10.41h-2.85c-1.47,0-2.2.04-3.2.22v-2.85ZM356.34,1.25c2.89,2.72,4.53,4.49,6.86,7.56l-2.2,1.94c-2.42-3.5-3.76-5.05-6.69-7.77l2.03-1.73ZM369.42,25.39c2.5-.91,4.06-1.55,6.78-2.81l.17,2.55c-3.76,1.77-5.48,2.46-9.97,4.1-.6.22-1.25.47-1.9.78l-.91-2.98c.82-.09,1.34-.22,3.15-.78V8.51c0-2.12-.04-3.24-.17-4.27,1.86-.22,4.19-.91,6.95-1.99,1.51-.56,2.42-1.08,3.2-1.73l2.07,2.33c-3.54,1.55-6.26,2.59-9.37,3.41v19.13ZM377.54,7.17c0-1.81-.04-2.85-.13-3.71.99.09,1.64.13,3.67.13h5.92c2.07,0,3.02-.04,3.71-.13-.17.99-.22,1.94-.22,3.58v17.96c0,1.38-.48,2.37-1.25,2.72-.69.3-2.2.52-3.71.52-1.04,0-2.12-.04-2.94-.09-.09-1.08-.26-1.77-.6-2.76,1.47.26,2.81.35,4.32.35,1.17,0,1.47-.26,1.47-1.34V6h-7.51v23.14c0,2.03.09,3.63.26,4.58h-3.19c.13-.99.22-2.63.22-4.49V7.17Z"/>
      <path class="cls-1" d="M408.15,17.62c-2.5,2.85-4.4,4.62-7.9,7.25-.52-.95-.86-1.34-1.9-2.2,3.2-2.03,5.87-4.36,8.51-7.34,1.94-2.16,3.41-4.27,4.88-7.04h-7.47c-1.99,0-3.37.09-4.79.26v-3.11c1.38.17,2.72.26,4.79.26h8.68c.95-2.37,1.34-3.63,1.6-5.53l3.15.39c-.22.47-.26.6-.86,2.37-.39,1.04-.6,1.68-1.08,2.76h17.23c1.99,0,3.32-.09,4.71-.26v3.11c-1.3-.17-2.89-.26-4.71-.26h-18.44c-1.08,2.12-1.64,3.02-2.94,4.88h15.76c2.2,0,3.32-.04,4.62-.22-.13,1.3-.17,2.81-.17,5.05v17.31c0,1.34-.39,2.25-1.17,2.76-.65.43-1.55.56-3.54.56-1.25,0-2.98-.04-4.84-.17-.13-1.17-.26-1.73-.65-2.76,2.07.3,3.71.43,5.44.43s2.03-.22,2.03-1.3v-5.27h-18.22v4.62c0,2.16.04,3.54.22,4.92h-3.2c.17-1.51.26-3.07.26-4.92v-16.58ZM429.09,15.63h-18.22v4.58h18.22v-4.58ZM410.87,22.54v4.71h18.22v-4.71h-18.22Z"/>
      <path class="cls-1" d="M461.69,15.46c3.71,3.24,6.17,9.8,6.17,16.49,0,2.76-.43,4.75-1.25,5.74-.78.95-1.9,1.34-4.02,1.34-1.34,0-3.15-.13-5.09-.3-.09-1.25-.26-1.86-.69-2.89,2.16.43,3.97.65,5.57.65,2.2,0,2.81-1.04,2.81-5.18,0-1.25-.04-1.99-.17-3.24-4.58,3.76-10.28,6.61-18.22,9.2-.56-1.04-.95-1.6-1.68-2.42,7.82-1.99,14.51-5.27,19.39-9.46-.35-1.47-.65-2.33-1.21-3.63-4.45,3.07-9.76,5.48-16.15,7.34-.48-1.04-.86-1.55-1.6-2.37,3.93-.95,6.3-1.73,9.89-3.28,2.63-1.17,4.53-2.2,6.74-3.76-.86-1.38-1.51-2.16-2.5-3.02-3.19,1.77-6.43,3.07-11.53,4.45-.6-1.12-.86-1.51-1.6-2.29,6.74-1.47,10.97-3.11,15.07-5.92h-6.35c-1.55,0-2.89.09-4.19.22v-2.76c1.12.17,2.25.26,4.19.26h18.26c2.03,0,3.15-.04,4.23-.26v2.76c-1.3-.13-2.59-.22-4.23-.22h-4.66c.95,3.93,1.38,5.4,2.59,8.07,3.07-2.25,5.7-4.84,6.61-6.43l2.42,1.99q-.95.78-2.59,2.33c-1.38,1.34-2.59,2.33-5.27,4.36,2.72,4.79,5.92,7.86,11.4,11.05-.73.65-1.34,1.34-2.12,2.42-3.54-2.55-5.18-3.93-6.99-6-3.24-3.63-5.79-8.33-7.38-13.64-.35-1.12-.52-1.81-1.08-4.14h-1.3c-1.25,1.08-1.73,1.42-3.11,2.33l-.35.22ZM462.55,2.85c0-.95-.09-1.73-.3-2.68h3.37c-.17.95-.26,1.68-.26,2.63v1.38h12.78c1.86,0,2.98-.04,4.36-.17-.13.82-.17,1.55-.17,2.85v2.68c0,1.34.04,2.03.17,2.94h-2.81v-5.92h-30.53v5.92h-2.81c.13-.99.17-1.68.17-2.98v-2.63c0-1.17-.04-1.94-.17-2.85,1.38.13,2.46.17,4.32.17h11.87v-1.34Z"/>
    </g>
  </g>
</svg>