<svg width="194" height="32" viewBox="0 0 194 32" fill="#FFF" xmlns="http://www.w3.org/2000/svg">
<path d="M8.1,15.8V24c2.4,4.5,9.3,4.1,22.5,2.8L30,29.3c-19,1-19.8-0.4-22.8-4.6c-1.5,2.3-3.1,4.6-4.8,6.2l-1.5-1.6
	c1.7-1.3,3.7-3.2,5-5.1v-7.1H1.3v-1.3 M6.4,12.9c-1.3-1.6-3.3-3.6-4.7-5l0.6-0.8C3.9,8,6.2,9.4,8.1,11.1 M7.3,6.3
	C5.9,4.7,3.9,2.8,2.4,1.4L3,0.6c1.6,0.8,4.1,2.3,5.9,3.9 M20.5,5.6c-1.4-1.4-3.6-3.4-5.1-4.6l0.5-0.9c1.8,0.8,4.3,2.1,6.1,3.5
	 M29.8,5.2v1.3H10.1V5.2 M12.7,10.4V9.1h14.4v1.2 M12.7,14.3v-1.2h14.4v1.2 M15.1,23.7v1.9H13V17h14v8.6h-2.1v-1.9 M24.9,22.4v-4.1
	h-9.8v4.1 M62.3,15v1.4H49.7v4.1h9.9v1.3h-9.9v5.5c3,0.6,10.3,0.2,13.3-0.2l0,0l-0.8,2.6c-9.9,0.5-17.8,0.4-21.1-7.1
	c-1.3,3.8-3.7,6.8-6.9,8.5l-0.6-0.8c3.6-2.8,5.5-6.9,6-12.2l2.4,0.3c-0.1,1.1-0.3,2.1-0.6,3.1c1.5,2.8,3.4,4.5,6,5.3V16.4H34.2V15
	 M39.5,12.4V2.2h18.1v10.2 M55.4,6.6V3.4H41.7v3.1 M55.4,11.1V7.8H41.7v3.3 M67.1,15v-1.8h27.2V15 M105,30.7h-2.1V12.8
	c-1.1,1.9-2.3,3.6-3.9,5.2l-0.7-0.7c3.2-4.4,5.2-9.8,6.4-16.7l2.4,0.6v0c-0.6,2.6-1.2,5-2.1,7.2 M126.5,30.7h-2.2v-2.3h-13.9v2.3
	h-2.2V2.8h18.3 M110.4,27.1h13.9v-23h-13.9 M118.4,15.6h3.6v8.2h-9.3v-8.2h3.7l0-10.2h2.1 M111.7,11.1V9.8h11.2v1.3 M120,22.6v-5.7
	h-5.4v5.7 M133,2H144v7.8h-9v20.9H133 M142,3.3h-6.9v2h6.9 M142,6.5h-6.9v2.1h6.9 M144,13.8c-1.5,1.1-6.2,1.8-7.2,2l-0.4-1.7
	C137.5,14.2,141.8,14,144,13.8z M143.9,18.1c-2.2,0.7-5.6,1.3-7.3,1.5l-0.5-1.7c2,0,4.5-0.1,7.5-0.6l-0.7-1.6l0.7-0.4h0
	c0.8,1,1.7,2.4,2.2,3.7l-1.5,0.6L143.9,18.1z M136.6,18.7c1.2-0.5,5.9-5.2,6.7-6.6l1.6,0.9C143.6,14.5,138.3,19.1,136.6,18.7z
	 M136.8,15c0.9-0.9,2.6-3.6,3.3-5.1l1.7,0.9C140.9,11.9,138.2,15,136.8,15z M143,23.3v-3.2v0h1.8v3.8c0,4.6-3.7,5.9-7.4,6.4
	l-0.3-0.9C140.5,28.6,143,27.5,143,23.3z M137.9,25.6v-5.1h1.8v4h3.5v1.1 M153.5,18.2c-2.1,0.6-5.1,1.1-6.9,1.3l-0.5-1.6h1.6
	c0.8-0.7,1.8-1.8,2.7-2.8c-1.4,0.4-2.8,0.6-4,0.8l-0.4-1.7c0.4,0,0.8,0,1.2,0c0.8-1.1,1.8-2.8,2.4-4.3l1.7,0.8
	c-0.8,1.1-2.1,2.5-3.1,3.5c1,0,2-0.1,3-0.2c0.6-0.7,1.1-1.4,1.4-1.9l1.6,1c-1.3,1.5-3.4,3.4-5.1,4.6c1.4-0.1,2.9-0.2,4.1-0.4
	c-0.2-0.6-0.5-1.1-0.7-1.5l0.7-0.4c0.9,1.1,1.9,2.5,2.4,3.7l-1.5,0.7C153.9,19.3,153.7,18.8,153.5,18.2L153.5,18.2z M147,20.1h1.9
	v4.4h3.4v-4.1h1.8v5.2h0h-5.1v4.6H147 M158.6,28.1c0,2.7-2.6,3.2-7.2,1.2l0.2-1c4,0.7,4.9,0.7,4.9-1.2V9.9h-8.9V2h11 M156.5,3.3
	h-6.9v2h6.9 M156.5,6.5h-6.9v2.1h6.9 M191.6,16c-2.7-3-5.3-7.2-6.7-11.5c-1.9,4.7-4.9,9.3-7.8,11.8l-0.7-0.7c3.2-3.5,6.2-9.9,7.2-15
	l2.4,0.7c-0.1,0.6-0.3,1.1-0.5,1.7c1.8,4.3,4.8,8.4,8,11h0 M176.1,27.2c-0.3,3.3-3.1,3.8-8.2,1.7l0.3-1c4.8,0.8,5.6,0.7,5.8-1.6
	c0.3-2.7,0.5-8.3,0.5-12h-4.6c-0.3,8.7-1.6,12.8-5.3,16.5l-0.7-0.7c3.5-4.8,4-8.8,4-21.5h-4V7.4h14.8v1.3H170c0,1.6,0,3.2-0.1,4.6
	h6.8C176.6,18.6,176.5,22.1,176.1,27.2z M172,7.7c-1.1-2-3-4.9-4.1-6.3l0.8-0.7c1.7,1.4,4.1,4,5.2,5.6L172,7.7z M189.2,30.4
	c-2.9-2.8-7.2-6.3-10-8.3l0.5-0.9v0c2.9,1.5,7.9,4.7,11.1,7.3 M188,20.2c-1.6-1.8-4.7-4.6-6.4-6.1l0.5-0.8c2.1,1,5.5,3.2,7.5,5.1"/>
</svg>
