<svg fill="#fff" xmlns="http://www.w3.org/2000/svg" viewBox="0 0 627.5 234.95">
<path d="M7.4,19v-5.6l86.2,0V19 M55.9,93.5L55.9,93.5H95v5.6H6.5v-5.6h38.1V62.3h11.3 M26,80.4v-5.5h48.7v5.5 M74.4,51.3h23.8v5.6
	H68.1C77,65,88.2,71.9,101,75.8l0,0l-5.9,10.8C84.4,82.8,71.8,72,61.9,56.9H42.6C33.3,72.8,12.2,83.8,2,87.4l-2-4.2
	c8.8-4.6,22.2-14.6,29.6-26.3H2.4v-5.6h23.2l0-49.7h10.8v24.2h27.3V1.5h10.8 M36.3,38.4h27.3v-7.4H36.3V38.4z M36.3,51.3h27.3v-7.5
	H36.3V51.3z M138.2,4.1l10.3,2.6h8.3l2.5-2.2L170,8.8c-4.7,14-10,24.4-13.9,30.4c14.4,13.1,20.7,54-7,38l0,0l1-4.4
	c15.7,5.7,7.5-23,1.8-32.9c2.4-7.1,4.8-18.5,5.8-27.7h-9v91.2h-10.3 M178.7,69.1c-2.5,3.7-5.3,6.8-8,9.2l-3.1-2.7
	c3.8-5.7,7.1-13.8,9.2-24.2l9.4,3.1c-1.3,3.3-2.6,6.4-4.2,9.1h39.6v5.5 M172.8,83.8v-5.6h47.4v5.6 M201.8,93.8h27.6v5.6h-67.6v-5.6
	h29.2V51.8h10.9 M183,0.3l10.3,3.6c-1.1,2.1-2.3,4.1-3.5,6h15.9l3.4-1.9l9.8,5.2c-3.2,5.9-7.5,11.2-13.2,15.7
	c8,2.6,16.4,3.8,25.4,4.8l-4.6,10.9c-9.3-1.5-19.6-4.6-28.9-10.2c-8.7,4.9-19.4,8.5-32.7,10.5l-1.2-4.6c11.6-2.6,20.4-6.6,26.9-10.8
	c-3.2-2.6-6.3-5.6-8.9-9c-4.4,4.8-9.1,8.8-13.6,11.4l-2.5-3.3C173.1,21.6,179.7,10.8,183,0.3L183,0.3z M173.5,49.6v-5.5h43.9v5.5
	H173.5z M186,15.4c-0.4,0.7-1,1.3-1.4,1.9c3.9,3.3,7.9,5.9,12,8c4.2-3.5,7-7,8.9-9.9C205.4,15.4,186,15.4,186,15.4z M269.8,22.1
	h12.9c1.4-7,2.5-15.9,3.1-21.9l13.2,2.5c-2.4,6.2-6.5,13.8-10.1,19.3c0,0,19.8,0,19.8,0v77.3h-11v-9.8h-16.8v11.9h-11 M280.7,51.2
	h16.8V27.7h-16.8V51.2z M297.5,84V56.8h-16.8V84H297.5z M360.1,22.2c-4,41.8,13.1,102.8-38.8,72.9l1.4-4.4
	c20.4,4.4,22.7,2.8,23.6-5.9c1.2-11.6,2-26.8,2.2-57H327c-3.5,8.6-8.3,17.6-14.7,25.5l-3.7-2.8c7.5-14.9,11.3-35.5,13.1-50l12.9,2.4
	c-1,4.9-2.8,11.9-5.4,19.3L360.1,22.2L360.1,22.2z M331.5,72.8c-3.4-10.1-7.5-19.4-11.8-27.9l3.7-2.8c7.2,6.6,14.7,16.2,19,24.6
	L331.5,72.8L331.5,72.8z M450.3,22.4c-0.2-6.7-0.3-14.1-0.4-20.6h11.4c0.1,6.5,0.1,14.1,0.2,20.6h16.2c-3.7-6.5-7.9-12.4-11.9-17.4
	l3.3-3.3c6.7,4.3,13.2,9.9,18.3,15.3l-6.5,5.4h13.4v6.1h-32.7c0.5,12.2,2,23.4,4.3,32.9c4.7-7.8,8.7-16.6,11.8-26.3l11.2,4.6
	c-4.2,12.6-10.5,24.3-19,34.1c3.3,7.9,7.6,13.6,12.9,16.1c3.8,1.9,4.8-0.2,4.7-20h4.6c5.4,22.9,3.4,36.4-11.1,31.9l0,0
	c-8.8-2.7-15.3-9.7-19.9-19.2c-9.5,8.2-21.1,14.7-34.7,18.6l-1.9-4.4c13.1-5.6,23.9-13.5,32.7-23.7c-4.2-13-6.1-28.8-6.8-44.7h-33
	v14.8h27.1c-1.3,26.7,4.8,53.8-27.9,36l1.2-4.4c13,2.8,14.4,1.8,14.6-2.8c0.3-4.4,0.5-11.2,0.9-23h-15.9c0.1,33-7.2,44.9-18.4,54.3
	l-3.3-3.2c10.6-7.5,10.6-53.8,9.9-77.9 M549.2,65.8C545.3,78,537,89.6,530.5,95.6l-3.1-2.8c4-6.4,9-17.7,11.9-29.9L549.2,65.8
	L549.2,65.8z M583.4,22.9H529v-5.5h27c-4-4.6-9.4-10.3-12.8-13.4l2.3-4.1c6.2,2.3,16.2,7.8,20.4,11.3l-5.3,6.1h22.8L583.4,22.9
	L583.4,22.9z M562.2,57.4v34.8c0,11-9.8,13.8-25.5,6.9l1-4.4c12.5,1.8,13.8,0.6,13.8-4.9V57.4h-15.3V30.8h40.3v26.6H562.2z
	 M547,51.8h19.1V36.4H547V51.8z M614.1,101.3c-12.8,0-15.2-2-15.2-11.2V52.2c-2.8,26.1-9.9,40.2-27.1,52l-3-3.4
	c5-4.8,8.8-9.7,11.6-15.3l-8.7,3.9c-1.9-6.9-5-18.1-7.4-25.4l3.8-2c4.3,5.3,9.8,15.4,12.7,22.3c5.4-11,7.4-24.7,8-45.7h-10v-5.6
	h10.1c0.2-9.2,0.2-19.6,0.2-31.8h11c0.1,12,0.1,22.5-0.2,31.8h25.1v5.6h-25.4c-0.1,2.5-0.3,5-0.4,7.4h9.5v38.9
	c0,5.2,0.9,6.3,5.6,6.3c6,0,5.5-1.7,5.9-20.5h4.4C630.2,97.2,627.7,101.3,614.1,101.3z M613.2,30.5c-2.3-7.1-5.6-15.3-8.7-21.6
	l3.6-2.4c5.2,4.5,11.3,12.6,14.6,19L613.2,30.5z M2.8,169.5v-5.7l53,0c-0.2-7.6-0.3-17.9-0.4-30.4h11c0.1,13.4,0.2,22.9,0.6,30.4
	h30.8v5.7H67.2c0.7,9.6,2,19,4.1,27.2c4.3-6.6,7.9-14.1,10.9-22.4l10.7,4.7c-4.4,10.3-10.3,20-17.9,28.4c3.2,7.2,7.2,12.6,12.5,14.8
	c3.6,1.5,4.2-0.1,3.8-19.2h4.6c5.5,19.1,5.2,33.4-7.5,31.3l0,0c-10-1.6-17.1-8.7-22.1-18.6c-7,5.9-15.3,10.9-24.6,14.5l-2.2-4.3
	c8.8-4.8,16.6-10.9,23.4-18.4c-4-11.2-5.9-24.8-6.7-38.1 M36.4,186.2c5.5-1.8,10.8-3.6,15.7-5.6l2,4.2c-5.2,3.7-11.2,7.2-17.7,10.4
	c-0.8,21.6,7.8,52.4-30.7,33.4l1.2-4.6c17.1,2.9,18.8,1.9,18.8-4.7V200c-6.8,2.9-13.8,5.3-20.6,7.1l-3.8-11.6
	c8.2-1.6,16.5-3.6,24.5-6l0-38.7c-6.6,1.2-13.5,2.2-20.3,2.9l-0.9-4.9c16.7-3.6,29.9-8.2,40.7-14.8l7.7,9.1
	c-4.6,2.1-10.2,3.9-16.5,5.5 M84,159.7c-3.5-6.9-8.6-15.3-12.8-21.5l3.6-3.2c6.7,4.6,14.2,11.9,18.9,17.8L84,159.7L84,159.7z
	 M160.7,134.7c-1.3,7.6-3.1,15.7-5.8,23.9v76h-10.8v-53.2c-2.4,3.8-5.3,7.6-8.4,11.2l-3.4-3.2c9.9-16.5,15.1-40.6,16.9-56.8
	L160.7,134.7L160.7,134.7z M163.3,139.6h28.2v39.6H174v55.6h-10.8L163.3,139.6L163.3,139.6z M173.8,156h7.9v-10.9h-7.9V156z
	 M173.8,173.7h7.9v-12.2h-7.9V173.7z M225.6,139.6v83.3c0,12.3-11.3,15.5-29.1,6l1.1-4.6c14.8,2.5,17,1.4,17-4.8v-40.3h-17.2v-39.6
	L225.6,139.6L225.6,139.6z M214.9,145.2h-7.8V156h7.8V145.2z M214.9,161.5h-7.8v12.2h7.8V161.5z M308.5,153.8v77.3h-11v-9.8h-16.8
	v11.9h-11v-79.4h12.9c1.4-7,2.5-15.9,3.1-21.9l13.2,2.5c-2.4,6.1-6.5,13.8-10.1,19.3C288.8,153.8,308.5,153.8,308.5,153.8z
	 M280.7,182.9h16.8v-23.5h-16.8V182.9z M297.5,215.7v-27.2h-16.8v27.2H297.5z M360.1,153.9c-4,41.8,13.1,102.8-38.8,72.9l1.4-4.4
	c20.4,4.4,22.7,2.9,23.6-5.9c1.2-11.6,2-26.8,2.2-57H327c-3.5,8.6-8.3,17.6-14.7,25.5l-3.7-2.9c7.5-14.9,11.3-35.5,13.1-49.9
	l12.9,2.4c-1,4.9-2.8,11.9-5.4,19.3L360.1,153.9L360.1,153.9z M331.5,204.5c-3.4-10.1-7.5-19.4-11.8-27.9l3.7-2.9
	c7.2,6.6,14.7,16.2,19,24.6L331.5,204.5L331.5,204.5z M490.1,160.6h-4.8l4.1,5.2c-4,4.7-8.2,5.8-21.7,5.7c-14.5,0-17-1.9-17-10.8
	v-9.6h-10.2c-4.3,12.5-19,21.2-40,23.3l-1-4.3c18-3.9,25.4-9.9,29.5-19h-16.5v13.2h-10.9v-18.7H446c-4.8-3.6-10.6-7.4-15.1-10
	l1.5-4.2c6.7,1.1,16.6,4.3,22.8,7.6l-4,6.6h38.9L490.1,160.6L490.1,160.6z M440,176.1h46.4v58.7h-10.8V229h-59.2v5.9h-10.9v-58.9
	h27.7c1.6-4.6,2.7-9,3.8-15l11.5,3.7C446,169.3,443.3,172.7,440,176.1L440,176.1z M416.6,223.4h5.5l-1.1-3.4
	c10.4-3.2,18.1-7,23.8-11.3c-3.8-1.9-7.7-3.6-11.6-5.4c-3.6,3.4-7.5,6.3-11.2,8.3l-2.6-3.3c2.6-2.4,4.9-4.9,7.1-7.7
	c-1.9-0.8-3.6-1.4-5.5-2.1l1.4-4.2c2.4,0.4,4.8,1.1,7.4,1.6c2.7-4.2,5-9,7-14.5h-20.2L416.6,223.4L416.6,223.4z M475.7,181.6h-35.6
	l7.1,2.5c-0.8,1.6-1.6,3.3-2.5,4.8h13.3l2.7-2l9.9,5.5c-2.9,5.3-6.4,9.9-10.3,13.8c4.4,1.9,8.5,3.8,12.1,5.9l-6.3,9.7
	c-4.4-3.3-8.9-6.3-13.6-9c-7.5,5.2-15.9,8.7-25.1,10.5h48.3L475.7,181.6L475.7,181.6z M457.4,193.9h-15.9c-1.1,1.5-2.3,3.1-3.5,4.4
	c4.5,1.3,9,2.9,13.4,4.4C453.8,199.8,455.8,197,457.4,193.9z M482.7,160.6h-3.4v-9.4H461v7.2c0,4.4,1.8,4.9,9.9,4.8
	C477.1,163.2,479.4,163,482.7,160.6L482.7,160.6z M566.8,212.9c-7.8,6.9-24.9,15.6-36.3,18.6l-1.8-4.3c10.3-5.1,21.4-13.3,27.9-20.8
	L566.8,212.9z M625.6,180.8h-96.2v-5.6h47.3c-4.4-2.2-9.2-4.5-13-6.1l1.1-4.2c6.9,1,16,3.1,23.8,5.7l-2.4,4.6h39.3V180.8
	L625.6,180.8z M611.3,164.9H544v-27.3h67.3V164.9z M584.4,205c0.4,19,3.6,40.2-28.5,24.5l1.2-4.3c14.5,2.3,16.1,1.5,16.1-4.1V205
	h-26.1v-19.5h61.5V205C608.6,205,584.4,205,584.4,205z M600.3,142.7h-45.5v5.9h45.5V142.7z M600.3,153.5h-45.5v6.1h45.5V153.5z
	 M558.1,199.5h39.5v-8.6h-39.5V199.5z M625.9,221.5l-6.9,10.2c-7.1-6.3-20.1-14.9-29.3-20.5l1.8-4.2
	C601.8,209.7,616.9,216.1,625.9,221.5L625.9,221.5z"/>
</svg>
