<svg width="243" height="145" viewBox="0 0 243 145" fill="none" xmlns="http://www.w3.org/2000/svg">
<path d="M179.688 111.564C180.676 113.384 181.56 115.88 181.82 117.544L188.372 116.14C187.956 114.528 187.02 112.136 185.98 110.42L179.688 111.564ZM164.14 114.164V119.052H203.608V114.164H164.14ZM178.492 121.808V126.592H194.04V121.808H178.492ZM192.428 121.808V122.536C192.012 128.1 191.492 130.492 190.764 131.22C190.244 131.636 189.724 131.688 188.892 131.688C187.904 131.688 185.564 131.636 183.224 131.428C184.108 132.832 184.784 135.016 184.836 136.576C187.644 136.68 190.244 136.68 191.7 136.524C193.416 136.368 194.716 136.004 195.912 134.86C197.212 133.508 197.94 130.44 198.46 123.992C198.564 123.264 198.616 121.808 198.616 121.808H192.428ZM176.308 116.348C175.58 123.784 174.124 128.984 163.412 131.844C164.66 132.988 166.22 135.276 166.792 136.732C179.22 132.936 181.612 126.02 182.496 116.348H176.308ZM165.076 98.044V102.776H194.352V105.896H165.076V110.628H200.54V98.044H165.076ZM195.132 87.956C187.072 89.776 173.5 91.18 161.54 91.804C162.112 93 162.892 95.236 163.1 96.64C175.268 96.12 189.516 94.82 199.864 92.532L195.132 87.956ZM161.54 91.804V108.756C161.54 116.244 161.02 126.072 155.456 132.728C156.6 133.508 159.044 136.056 159.928 137.252C166.584 129.816 167.676 117.232 167.676 108.808V91.804H161.54Z" fill="white"/>
<path d="M109.73 136H141.97V127.94H131.57C129.295 127.94 126.11 128.265 123.705 128.525C132.48 119.945 139.76 110.585 139.76 101.81C139.76 92.84 133.65 87.055 124.615 87.055C118.05 87.055 113.695 89.59 109.275 94.335L114.54 99.535C117.01 96.805 119.805 94.53 123.38 94.53C127.995 94.53 130.53 97.52 130.53 102.33C130.53 109.74 122.86 118.775 109.73 130.54V136Z" fill="white"/>
<path d="M81.216 94.664H87.768V98.2H81.216V94.664ZM69.672 94.664H76.016V98.2H69.672V94.664ZM58.232 94.664H64.472V98.2H58.232V94.664ZM52.46 90.036V102.88H93.8V90.036H52.46ZM61.56 115.204H84.44V117.7H61.56V115.204ZM61.56 121.444H84.44V123.992H61.56V121.444ZM61.56 108.964H84.44V111.512H61.56V108.964ZM55.32 105.012V127.944H90.992V105.012H55.32ZM75.912 130.7C81.58 132.572 87.352 135.068 90.576 136.732L97.388 133.612C93.384 131.844 86.676 129.348 80.852 127.528L75.912 130.7ZM64.368 127.424C60.728 129.452 54.436 131.324 48.768 132.312C50.172 133.404 52.356 135.64 53.396 136.888C58.804 135.432 65.72 132.832 70.088 130.024L64.368 127.424Z" fill="white"/>
<path d="M157.88 27.644V55.516H163.808V27.644H157.88ZM149.404 35.86H172.44V38.2H149.404V35.86ZM149.404 29.672H172.44V32.012H149.404V29.672ZM143.424 25.616V42.256H178.68V25.616H143.424ZM176.288 44.44V58.064C176.288 58.532 176.132 58.688 175.612 58.74C175.144 58.74 173.636 58.74 172.18 58.688C172.856 60.092 173.584 62.172 173.792 63.68C176.652 63.68 178.784 63.68 180.344 62.848C181.956 61.964 182.32 60.612 182.32 58.116V44.44H176.288ZM148.26 53.8L148.728 59.052C154.708 58.688 162.976 58.22 170.88 57.648L170.932 52.76C162.612 53.228 154.032 53.592 148.26 53.8ZM166.408 50.524C168.124 53.644 169.58 57.752 169.944 60.352L174.832 59.052C174.416 56.4 172.752 52.396 170.984 49.38L166.408 50.524ZM148.572 14.852V24.836H154.656V14.852H148.572ZM166.98 14.852V24.836H173.064V14.852H166.98ZM137.652 17.504V22.6H160.064V17.504H137.652ZM161.832 17.504V22.6H184.244V17.504H161.832ZM138.172 44.44V49.432H179.096V44.44H138.172ZM140.148 42.984V63.576H146.128V42.984H140.148ZM217.836 17.504V44.96C217.836 51.512 219.604 53.228 225.376 53.228C226.676 53.228 231.772 53.228 233.124 53.228C238.064 53.228 239.728 50.992 240.404 44.18C238.74 43.816 236.296 42.828 234.996 41.84C234.736 46.624 234.372 47.612 232.604 47.612C231.46 47.612 227.248 47.612 226.312 47.612C224.18 47.612 223.868 47.248 223.868 44.908V17.504H217.836ZM220.384 17.504V23.016H231.772V31.544H220.384V37.056H237.856V17.504H220.384ZM193.708 20V25.46H215.028V20H193.708ZM192.252 30.244V35.756H216.328V30.244H192.252ZM205.824 41.372V46.78H215.86V41.372H205.824ZM201.456 15.008V33.208H207.332V15.008H201.456ZM202.756 33.78V56.92H208.476V33.78H202.756ZM198.908 43.868L194.436 45.168C198.024 59.78 204.784 62.38 218.512 62.38H238.688C239.104 60.508 240.144 57.596 241.132 56.192C236.4 56.452 222.516 56.452 218.512 56.4C207.54 56.4 201.664 54.788 198.908 43.868ZM194.072 38.772C193.968 47.768 193.448 56.452 190.848 61.704C192.252 62.276 195.008 63.628 196.1 64.356C198.752 58.376 199.532 49.12 199.792 39.188L194.072 38.772Z" fill="white"/>
<path d="M41.065 63.882C50.326 63.882 58.957 56.259 58.957 38.619C58.957 22.491 51.019 15.561 42.136 15.561C34.198 15.561 27.52 21.483 27.52 31.122C27.52 41.013 33.064 45.738 40.876 45.738C44.152 45.738 48.373 43.659 50.893 40.194L50.389 33.894C48.121 37.737 45.223 39.186 42.577 39.186C38.608 39.186 35.962 36.54 35.962 31.122C35.962 25.326 38.797 22.491 42.325 22.491C46.861 22.491 50.452 26.712 50.452 38.619C50.452 51.975 45.979 56.385 40.498 56.385C37.726 56.385 34.891 54.936 33.127 52.983L28.213 58.59C31.048 61.488 35.206 63.882 41.065 63.882ZM79.4222 63.882C88.8092 63.882 95.1092 58.527 95.1092 51.471C95.1092 45.045 91.5812 41.328 87.2972 38.997V38.682C90.3212 36.477 93.2822 32.634 93.2822 27.972C93.2822 20.538 87.9902 15.624 79.7372 15.624C71.6102 15.624 65.6252 20.412 65.6252 27.909C65.6252 32.823 68.2712 36.414 71.7992 38.997V39.249C67.5152 41.517 63.8612 45.486 63.8612 51.471C63.8612 58.779 70.4762 63.882 79.4222 63.882ZM82.3832 36.414C77.4692 34.461 73.8152 32.256 73.8152 27.909C73.8152 24.192 76.3352 22.113 79.5482 22.113C83.3912 22.113 85.7222 24.759 85.7222 28.602C85.7222 31.374 84.6512 34.02 82.3832 36.414ZM79.6112 57.33C75.2642 57.33 71.7992 54.621 71.7992 50.4C71.7992 46.935 73.5632 43.785 76.1462 41.769C82.1312 44.289 86.4782 46.242 86.4782 51.093C86.4782 55.125 83.6432 57.33 79.6112 57.33ZM115.322 63.882C124.709 63.882 131.009 58.527 131.009 51.471C131.009 45.045 127.481 41.328 123.197 38.997V38.682C126.221 36.477 129.182 32.634 129.182 27.972C129.182 20.538 123.89 15.624 115.637 15.624C107.51 15.624 101.525 20.412 101.525 27.909C101.525 32.823 104.171 36.414 107.699 38.997V39.249C103.415 41.517 99.7613 45.486 99.7613 51.471C99.7613 58.779 106.376 63.882 115.322 63.882ZM118.283 36.414C113.369 34.461 109.715 32.256 109.715 27.909C109.715 24.192 112.235 22.113 115.448 22.113C119.291 22.113 121.622 24.759 121.622 28.602C121.622 31.374 120.551 34.02 118.283 36.414ZM115.511 57.33C111.164 57.33 107.699 54.621 107.699 50.4C107.699 46.935 109.463 43.785 112.046 41.769C118.031 44.289 122.378 46.242 122.378 51.093C122.378 55.125 119.543 57.33 115.511 57.33Z" fill="white"/>
<path d="M5.44 23.4C5.88 24.68 6.32 26.38 6.48 27.4L8.14 26.84C8 25.84 7.5 24.2 7.02 22.94L5.44 23.4ZM3.56 28.48C3.78 29.8 3.98 31.54 4.02 32.7L5.66 32.3C5.58 31.14 5.36 29.44 5.12 28.1L3.56 28.48ZM1.58 28.22C1.42 29.86 1.14 31.62 0.62 32.8C1.06 32.92 1.88 33.16 2.24 33.36C2.7 32.16 3.08 30.28 3.26 28.5L1.58 28.22ZM1.18 22.96C1.18 22.56 2.44 21.88 2.44 21.88V21.84C3.7 20.26 5.06 17.96 5.96 15.82L3.88 14.96C3.2 17.08 1.98 19.3 1.58 19.88C1.2 20.48 0.86 20.86 0.46 20.96C0.72 21.52 1.06 22.54 1.18 22.96ZM1.18 22.96C1.56 22.78 2.18 22.64 5.28 22.34C5.28 21.9 5.38 21.12 5.48 20.6L2.04 20.82L1.12 21.44L1.18 22.96ZM1.32 27.62C1.32 27.24 2.5 26.6 2.5 26.6V26.54C4.44 24.54 6.46 21.7 7.92 18.94L6.02 17.92C4.84 20.66 2.8 23.6 2.16 24.32C1.56 25.06 1.12 25.54 0.64 25.66C0.88 26.2 1.22 27.2 1.32 27.62ZM1.32 27.62C1.78 27.34 2.5 27.14 7 26.22C6.98 25.8 6.96 25.02 7.04 24.48L2.08 25.36L1.2 25.98L1.32 27.62ZM5.5 28.08C5.76 29.1 6.08 30.46 6.18 31.34L7.76 30.86C7.64 29.98 7.3 28.66 7 27.64L5.5 28.08ZM16.2 28.38C16.74 29.76 17.46 31.58 17.78 32.76L19.46 32C19.1 30.86 18.38 29.12 17.8 27.74L16.2 28.38ZM10.22 27.98V31.2C10.22 32.9 10.68 33.44 12.6 33.44C12.98 33.44 14.48 33.44 14.88 33.44C16.34 33.44 16.86 32.84 17.06 30.6C16.52 30.48 15.74 30.22 15.36 29.92C15.28 31.52 15.16 31.76 14.66 31.76C14.32 31.76 13.16 31.76 12.9 31.76C12.3 31.76 12.22 31.7 12.22 31.2V27.98H10.22ZM8.5 27.9C8.24 29.34 7.72 31.14 7.08 32.3L8.76 33.1C9.38 31.86 9.84 29.94 10.14 28.48L8.5 27.9ZM12.14 14.84C12.02 15.52 11.72 16.5 11.46 17.2L13.3 17.62C13.66 17 14.14 16.14 14.58 15.22L12.14 14.84ZM13.42 18.88C12.88 19.82 11.84 20.88 10.34 21.66C10.64 21.86 11.08 22.38 11.26 22.7C12.98 21.7 14.12 20.46 14.86 19.12L13.42 18.88ZM10.88 19.78C12.44 21.18 14.2 23.24 15.02 24.64L16.28 23.72C15.48 22.4 13.68 20.38 12.06 19L10.88 19.78ZM15.04 20.1C14.32 21.32 12.92 22.72 10.92 23.72C11.22 23.94 11.62 24.42 11.8 24.76C14.02 23.54 15.52 22 16.48 20.36L15.04 20.1ZM10.56 18.76H16.32V24.8H10.56V18.76ZM8.48 16.86V26.74H18.5V16.86H8.48ZM12.44 27.38C13.06 28.38 13.86 29.74 14.22 30.56L15.84 29.72C15.44 28.94 14.6 27.62 14 26.66L12.44 27.38ZM6.34 44.9V46.64H19.22V44.9H6.34ZM8.78 48.9H16.42V50.26H8.78V48.9ZM6.72 47.5V51.64H18.6V47.5H6.72ZM10.02 45.54V50.84H11.9V45.54H10.02ZM13.22 45.54V50.84H15.14V45.54H13.22ZM9.24 55.7H16.06V56.44H9.24V55.7ZM9.24 57.72H16.06V58.48H9.24V57.72ZM9.24 53.68H16.06V54.42H9.24V53.68ZM7.02 52.34V59.82H18.4V52.34H7.02ZM13.28 60.94C14.92 61.5 16.64 62.28 17.62 62.86L19.68 61.52C18.52 60.96 16.52 60.18 14.82 59.62L13.28 60.94ZM10.3 59.58C9.2 60.24 7.32 60.86 5.6 61.2C6.02 61.6 6.58 62.34 6.84 62.82C8.62 62.44 10.64 61.7 11.96 60.78L10.3 59.58ZM4.18 44.06C3.32 46.98 1.84 49.92 0.22 51.8C0.6 52.44 1.18 53.8 1.38 54.4C3.42 52 5.26 48.2 6.4 44.7L4.18 44.06ZM2.6 49.54V62.78H4.88V47.38L4.82 47.34L2.6 49.54Z" fill="white"/>
</svg>
