<svg width="1021" height="44" viewBox="0 0 1021 44" fill="none" xmlns="http://www.w3.org/2000/svg">
<path d="M17.9612 19.8954V39.312H21.149V19.8954H17.9612ZM8.315 13.0644H30.7538V17.577H8.315V13.0644ZM8.315 5.9436H30.7538V10.4148H8.315V5.9436ZM5.2928 3.1698V20.3508H33.9002V3.1698H5.2928ZM0.9458 26.5194V29.5002H38.5784V26.5194H0.9458ZM52.7372 25.5258V27.8856H81.4274V25.5258H52.7372ZM54.269 20.268V22.6278H84.6566V20.268H54.269ZM54.4346 9.8766V12.0294H77.2046V9.8766H54.4346ZM80.5166 25.5258V25.9398C80.0612 33.0192 79.4816 35.7102 78.7364 36.4968C78.4052 36.828 78.074 36.8694 77.3288 36.8694C76.6664 36.8694 74.8034 36.8694 72.8576 36.7038C73.2716 37.4076 73.6028 38.5254 73.6442 39.2706C75.6728 39.3948 77.6186 39.3948 78.6536 39.312C79.7714 39.2292 80.5166 38.9808 81.2204 38.277C82.2554 37.1592 82.835 34.2198 83.4146 26.7264C83.456 26.3124 83.4974 25.5258 83.4974 25.5258H80.5166ZM64.1636 1.017C63.8324 2.3004 63.0458 4.2048 62.4248 5.5296L65.1158 6.1092C65.9024 4.95 66.9374 3.2526 67.7654 1.5138L64.1636 1.017ZM54.5588 4.5774V6.8958H75.7556V15.2172H54.5588V17.4942H78.8192V4.5774H54.5588ZM52.7372 4.5774V26.5608H55.8008V4.5774H52.7372ZM63.9566 30.3696C64.9088 32.481 65.7782 35.2548 65.9852 37.035L68.552 36.2898C68.3036 34.5924 67.3928 31.86 66.3578 29.7486L63.9566 30.3696ZM70.4978 29.7486C71.7398 31.4046 72.9818 33.6816 73.52 35.172L75.8384 34.1784C75.3002 32.7294 73.9754 30.4938 72.7334 28.8792L70.4978 29.7486ZM57.2084 30.5352C57.8708 32.895 58.2434 36 58.1606 37.9458L60.893 37.5318C60.9344 35.5446 60.5204 32.481 59.8166 30.1212L57.2084 30.5352ZM51.578 29.3346C50.7914 32.3154 49.301 35.6274 47.1068 37.5732L49.6322 39.105C51.9092 36.9522 53.3168 33.3918 54.1448 30.2454L51.578 29.3346ZM116.99 3.294V6.1506H128.499V3.294H116.99ZM116.99 12.816V15.5898H128.499V12.816H116.99ZM116.949 22.4622V25.2774H128.582V22.4622H116.949ZM127.092 3.294V35.3376C127.092 35.9586 126.885 36.1656 126.264 36.1656C125.643 36.207 123.573 36.207 121.378 36.1656C121.792 36.9522 122.248 38.3184 122.331 39.1878C125.394 39.1878 127.34 39.105 128.499 38.6082C129.7 38.1114 130.114 37.1592 130.114 35.379V3.294H127.092ZM115.707 3.294V18.3222C115.707 24.3252 115.417 32.1912 111.939 37.7388C112.643 38.0286 113.885 38.9394 114.423 39.519C118.149 33.6402 118.646 24.6978 118.646 18.3222V3.294H115.707ZM93.8474 6.7716V9.504H113.678V6.7716H93.8474ZM98.7326 13.1886V15.714H109.207V13.1886H98.7326ZM98.7326 19.7712V22.2552H109.248V19.7712H98.7326ZM93.3092 26.4366V29.2104H113.678V26.4366H93.3092ZM97.3664 1.7208V27.5544H100.223V1.7208H97.3664ZM107.758 1.7208V27.5544H110.614V1.7208H107.758ZM99.0638 30.1212C97.8218 32.895 95.669 35.6688 93.3506 37.5318C94.0958 37.9458 95.2964 38.8566 95.876 39.3534C98.1116 37.2834 100.513 34.0956 102.045 30.9492L99.0638 30.1212ZM105.025 31.4046C106.64 33.3504 108.503 36.0828 109.29 37.7388L111.815 36.2484C110.987 34.551 109.041 31.9842 107.427 30.1212L105.025 31.4046ZM152.47 26.6022V29.0034H165.014V26.6022H152.47ZM152.346 20.3508V22.7934H163.524V33.0606H152.346V35.4618H166.463V20.3508H152.346ZM150.979 20.3508V37.5732H153.836V20.3508H150.979ZM143.362 8.883V11.16H154.871V8.883H143.362ZM162.447 8.883V11.16H174.163V8.883H162.447ZM172.88 3.0042V35.2134C172.88 35.9172 172.632 36.1656 171.886 36.1656C171.141 36.207 168.616 36.2484 166.09 36.1242C166.546 36.9936 167.043 38.4426 167.167 39.312C170.644 39.312 172.88 39.2706 174.205 38.7738C175.53 38.2356 175.985 37.2006 175.985 35.2134V3.0042H172.88ZM143.61 3.0042V5.4054H153.919V14.8446H143.61V17.2458H156.858V3.0042H143.61ZM174.412 3.0042H160.584V17.2872H174.412V14.9274H163.565V5.4054H174.412V3.0042ZM141.83 3.0042V39.3534H144.894V3.0042H141.83ZM198.175 17.8668V20.7648H223.429V17.8668H198.175ZM199.459 9.0072V11.8638H222.394V9.0072H199.459ZM209.022 10.4148V16.0866C209.022 20.5578 208.36 27.0162 197.761 31.5288C198.507 32.1084 199.459 33.102 199.873 33.7644C210.844 28.6308 212.086 21.3858 212.086 16.128V10.4148H209.022ZM216.64 1.224C215.646 3.7908 213.825 7.4754 212.376 9.711L214.86 10.6218C216.391 8.469 218.254 5.1156 219.786 2.259L216.64 1.224ZM201.57 2.3004C202.854 4.3704 204.427 7.1856 205.213 8.8416L207.946 7.641C207.159 6.0264 205.462 3.3354 204.178 1.3482L201.57 2.3004ZM208.525 23.0004C212.79 26.3124 218.42 30.9906 221.152 33.7644L223.388 31.5702C220.49 28.8378 214.777 24.3252 210.637 21.1374L208.525 23.0004ZM187.908 2.5902C189.606 4.6602 191.758 7.5582 192.752 9.297L195.236 7.6824C194.201 5.985 192.048 3.294 190.268 1.2654L187.908 2.5902ZM186.376 10.7874V13.3956H195.319V10.7874H186.376ZM193.746 29.79L191.676 30.7422C194.822 37.5732 200.245 38.6496 209.974 38.6496C214.528 38.6496 219.745 38.5668 223.678 38.3184C223.843 37.4904 224.216 36.0828 224.671 35.4204C220.407 35.793 214.363 35.9586 209.974 35.9586C201.694 35.9586 196.312 35.2134 193.746 29.79ZM193.746 21.1374V21.6756C192.711 29.1276 189.813 34.4268 185.714 37.242C186.335 37.6974 187.37 38.7738 187.784 39.3948C192.09 36.207 195.277 30.3282 196.602 21.6342L195.195 21.0546L194.656 21.1374H193.746ZM186.997 24.2424C187.287 23.9112 188.364 23.6628 189.44 23.6628H195.029V21.1374H188.488L186.997 21.8826V24.2424ZM186.997 24.2424C186.997 23.4558 189.316 22.2966 189.316 22.2966C191.676 19.647 195.402 14.3478 197.347 11.5326L195.277 10.5804L194.367 10.9944V11.1186C193 13.3128 189.067 18.9432 187.825 20.1852C187.122 21.0132 186.459 21.2616 185.838 21.4272C186.169 22.0896 186.79 23.5386 186.997 24.2424ZM231.295 43.4106H234.028L246.406 3.1284H243.715L231.295 43.4106ZM259.307 4.0392V38.8566H262.495V7.1856H283.153V38.691H286.424V4.0392H259.307ZM261.418 18.405V21.4686H284.519V18.405H261.418ZM261.377 33.0606V36.1656H284.602V33.0606H261.377ZM302.363 9.0486V12.1536H335.897V9.0486H302.363ZM300.583 34.4682V37.5732H337.553V34.4682H300.583ZM308.117 15.1344C309.691 20.6406 311.429 27.927 312.05 32.6466L315.321 31.86C314.617 27.0576 312.878 19.9782 311.181 14.3892L308.117 15.1344ZM326.996 14.4306C325.547 20.7234 322.856 29.8314 320.496 35.1306L323.56 35.793C325.837 30.5352 328.61 21.8412 330.473 15.0102L326.996 14.4306ZM316.108 1.8036C316.894 3.9564 317.764 6.7716 318.095 8.5932L321.283 7.641C320.869 5.8194 319.958 3.1284 319.088 1.017L316.108 1.8036ZM370.549 2.7972L368.065 3.7908C371.501 9.0486 377.462 14.6376 382.513 17.577C383.051 16.7904 384.086 15.6726 384.832 15.093C379.739 12.6504 373.695 7.5168 370.549 2.7972ZM368.934 1.1826C366.326 6.5232 361.192 12.0708 355.148 15.7554C355.81 16.2108 356.887 17.2044 357.342 17.784C363.635 13.7682 368.768 8.0964 371.873 2.052L368.934 1.1826ZM362.641 29.79C365.995 32.7294 370.259 36.9522 372.287 39.4776L374.73 37.6974C372.494 35.0478 368.147 30.9906 364.918 28.2582L362.641 29.79ZM359.785 20.682V23.4144H378.829V20.682H359.785ZM378.166 20.682V21.303C376.179 24.6978 371.459 30.0798 368.396 32.6466C369.017 33.102 370.01 34.0542 370.507 34.6752C373.736 31.6944 378.622 26.1882 381.188 21.7998L379.118 20.5164L378.622 20.682H378.166ZM347.489 4.2462C349.476 6.9786 351.712 10.746 352.705 13.1058L355.272 11.4084C354.278 9.0486 351.96 5.4468 349.931 2.7972L347.489 4.2462ZM347.282 35.8758L350.014 37.449C351.877 33.516 354.154 28.2582 355.852 23.6628L353.45 22.0068C351.587 26.9334 349.062 32.5224 347.282 35.8758ZM362.931 13.8096V16.5006H377.007V13.8096H362.931ZM406.856 12.4434V15.0102H429.626V12.4434H406.856ZM405.573 18.2808V20.889H430.537V18.2808H405.573ZM411.286 23.7042V26.1054H425.486V23.7042H411.286ZM408.098 7.1442C408.844 8.8002 409.672 11.0358 410.044 12.4434L412.57 11.574C412.197 10.2906 411.286 8.0964 410.5 6.4818L408.098 7.1442ZM415.509 6.2748C415.964 8.0964 416.42 10.4976 416.627 11.9466L419.276 11.3256C419.069 9.9594 418.531 7.641 417.993 5.8608L415.509 6.2748ZM427.06 1.5138C422.216 2.5902 413.398 3.294 406.235 3.5838C406.525 4.2048 406.898 5.2398 406.981 5.9436C414.267 5.778 423.251 5.1156 428.923 3.8322L427.06 1.5138ZM413.646 25.3602L411.038 26.1468C414.433 33.0192 420.808 37.5732 429.337 39.4362C429.751 38.6496 430.579 37.449 431.241 36.7866C423.002 35.3376 416.585 31.239 413.646 25.3602ZM425.486 5.4468C424.493 7.6824 422.713 10.8702 421.305 12.8988L423.623 13.8096C425.114 11.8638 426.935 8.9244 428.426 6.399L425.486 5.4468ZM424.783 23.7042V24.201C422.506 31.653 416.461 35.379 408.802 37.0764C409.382 37.6146 410.21 38.7324 410.541 39.4362C418.49 37.3662 424.948 33.1434 427.681 24.3666L425.942 23.6214L425.404 23.7042H424.783ZM412.073 14.0994C411.493 21.2616 410.375 31.9428 402.054 37.1178C402.799 37.6146 403.71 38.6082 404.165 39.312C412.942 33.5574 414.35 22.338 415.095 14.0994H412.073ZM395.72 4.3704V7.1856H402.095V28.5066H395.72V31.3218H404.911V4.3704H395.72ZM395.885 16.2522V19.026H403.586V16.2522H395.885ZM394.229 4.3704V34.551H397.003V4.3704H394.229ZM452.521 8.5518V10.4562H463.657V8.5518H452.521ZM452.521 12.3192V14.2236H463.657V12.3192H452.521ZM451.651 4.743V6.6888H464.568V4.743H451.651ZM454.798 18.198H461.297V21.8826H454.798V18.198ZM452.728 16.335V23.787H463.45V16.335H452.728ZM447.842 11.367C448.712 13.2714 449.54 15.8382 449.83 17.37L451.817 16.749C451.527 15.2586 450.616 12.7746 449.705 10.8702L447.842 11.367ZM440.432 10.8702C440.432 10.2906 442.212 9.5868 442.212 9.5868V9.5454C443.992 7.6824 445.938 4.8672 447.428 1.9692L445.11 1.1412C443.951 3.8322 441.922 6.6474 441.301 7.3512C440.722 8.055 440.225 8.5104 439.645 8.5932C439.935 9.2142 440.308 10.3734 440.432 10.8702ZM440.432 10.8702C440.97 10.6218 442.005 10.4976 447.263 10.0836C447.304 9.6282 447.387 8.7588 447.511 8.1792L441.674 8.469L440.432 9.1728V10.8702ZM440.432 17.2872C440.432 16.7076 442.253 16.0452 442.253 16.0452V15.9624C445.276 13.5198 448.381 9.8352 451.113 6.0264L448.877 4.9914C446.6 8.6346 443.206 12.3606 442.171 13.3128C441.218 14.2236 440.39 14.9274 439.687 15.0102C439.935 15.6312 440.308 16.7904 440.432 17.2872ZM440.432 17.2872C441.053 16.956 442.212 16.7076 450.451 15.5898C450.409 15.1344 450.451 14.3064 450.575 13.7268L441.591 14.8032L440.39 15.5898L440.432 17.2872ZM444.199 18.5292C444.572 20.3922 444.944 22.7934 444.986 24.408L447.056 23.9526C446.973 22.4208 446.6 19.9782 446.145 18.1566L444.199 18.5292ZM440.597 18.1566C440.39 20.3508 440.059 22.6692 439.355 24.408C439.894 24.6978 440.763 25.236 441.177 25.5258C441.839 23.7042 442.378 20.9718 442.709 18.5706L440.597 18.1566ZM448.091 18.2808C448.588 19.9368 449.167 22.131 449.374 23.5386L451.32 22.9176C451.113 21.5928 450.492 19.44 449.912 17.784L448.091 18.2808ZM455.708 1.8864C456.536 3.2112 457.282 4.9914 457.571 6.192L460.014 5.2398C459.766 4.0806 458.896 2.3418 458.068 1.0998L455.708 1.8864ZM472.889 11.0772C473.8 13.0644 474.628 15.714 474.877 17.3286L476.905 16.7076C476.657 15.1344 475.746 12.5262 474.794 10.6218L472.889 11.0772ZM465.23 10.7874C465.23 10.2078 467.052 9.4626 467.052 9.4626V9.4212C468.791 7.5996 470.737 4.8258 472.227 1.9692L469.95 1.1412C468.749 3.8322 466.721 6.5646 466.141 7.2684C465.562 7.9722 465.023 8.4276 464.485 8.5104C464.734 9.1314 465.106 10.2906 465.23 10.7874ZM465.23 10.7874C465.769 10.539 466.845 10.4148 472.103 10.0008C472.103 9.5454 472.186 8.676 472.31 8.0964L466.472 8.4276L465.23 9.09V10.7874ZM465.355 17.0388C465.355 16.5006 467.3 15.7968 467.3 15.7968V15.7554C470.198 13.2714 473.221 9.6282 475.87 5.9022L473.676 4.8672C471.44 8.5104 468.128 12.1536 467.093 13.1058C466.141 14.058 465.355 14.7204 464.651 14.8032C464.899 15.4242 465.23 16.542 465.355 17.0388ZM465.355 17.0388C466.017 16.7076 467.176 16.5006 475.291 15.3414C475.249 14.9274 475.291 14.0994 475.373 13.5198L466.555 14.5548L465.313 15.3414L465.355 17.0388ZM469.412 18.3222C469.867 20.2266 470.157 22.6278 470.157 24.2424L472.227 23.8284C472.144 22.2966 471.813 19.854 471.358 17.991L469.412 18.3222ZM465.686 17.991C465.437 19.9782 465.106 22.131 464.527 23.8698C465.065 24.1182 465.976 24.615 466.39 24.9462C466.969 23.2488 467.507 20.6406 467.839 18.4878L465.686 17.991ZM473.262 17.9082C473.883 19.8126 474.545 22.338 474.835 23.994L476.781 23.4144C476.491 21.8412 475.829 19.3158 475.125 17.4528L473.262 17.9082ZM448.836 26.3124V28.755H475.663V26.3124H448.836ZM467.88 27.0162C462.995 33.3918 451.113 36 439.024 36.9522C439.521 37.6146 440.225 38.898 440.515 39.6018C452.686 38.1528 464.982 35.4204 470.737 27.9684L467.88 27.0162ZM450.575 23.58C448.339 27.0162 443.992 29.8728 439.645 31.5288C440.183 32.1084 441.094 33.309 441.467 33.93C446.021 31.86 450.699 28.5066 453.307 24.408L450.575 23.58ZM449.291 28.1754L446.932 29.3346C453.1 35.0064 464.444 38.2356 475.705 39.3948C476.036 38.6496 476.74 37.5318 477.319 36.8694C466.1 35.9586 454.756 33.0192 449.291 28.1754ZM495.866 6.606V9.2142H503.36V6.606H495.866ZM485.475 14.1408V16.9146H504.643V14.1408H485.475ZM494.376 1.224V15.714H497.15V1.224H494.376ZM488.58 4.8672V15.714H491.147V4.8672H488.58ZM501.29 20.1438C499.178 28.5894 494.542 34.1784 486.055 36.9936C486.758 37.656 487.504 38.691 487.835 39.4362C496.819 36.0828 501.787 30.0384 504.105 20.8062L501.29 20.1438ZM489.367 19.3572C488.539 22.4208 487.172 25.5258 485.434 27.6372C486.096 27.9684 487.255 28.7136 487.752 29.1276C489.532 26.8506 491.147 23.373 492.058 19.9368L489.367 19.3572ZM504.726 3.2112V5.9022H523.315V3.2112H504.726ZM509.156 18.7776H519.382V22.752H509.156V18.7776ZM509.156 25.0704H519.382V29.1276H509.156V25.0704ZM509.156 12.4848H519.382V16.4178H509.156V12.4848ZM506.382 10.0008V31.5702H522.321V10.0008H506.382ZM512.965 4.536C512.758 6.4404 512.178 9.1728 511.764 10.953L514.082 11.574C514.662 9.8766 515.324 7.3926 515.945 5.0742L512.965 4.536ZM510.563 32.1912C508.7 33.8886 505.264 36 502.615 37.242C503.111 37.863 503.732 38.898 504.064 39.5604C506.755 38.2356 510.232 36.1242 512.633 34.137L510.563 32.1912ZM515.697 34.0542C517.933 35.5032 520.748 37.7388 522.114 39.2292L523.894 37.0764C522.445 35.586 519.547 33.4746 517.394 32.1084L515.697 34.0542ZM494.086 16.335V29.5002H496.943V16.335H494.086ZM556.021 2.7972L553.537 3.7908C556.973 9.0486 562.934 14.6376 567.985 17.577C568.523 16.7904 569.558 15.6726 570.304 15.093C565.211 12.6504 559.167 7.5168 556.021 2.7972ZM554.406 1.1826C551.798 6.5232 546.664 12.0708 540.62 15.7554C541.282 16.2108 542.359 17.2044 542.814 17.784C549.107 13.7682 554.24 8.0964 557.345 2.052L554.406 1.1826ZM548.113 29.79C551.467 32.7294 555.731 36.9522 557.759 39.4776L560.202 37.6974C557.966 35.0478 553.619 30.9906 550.39 28.2582L548.113 29.79ZM545.257 20.682V23.4144H564.301V20.682H545.257ZM563.638 20.682V21.303C561.651 24.6978 556.931 30.0798 553.868 32.6466C554.489 33.102 555.482 34.0542 555.979 34.6752C559.208 31.6944 564.094 26.1882 566.66 21.7998L564.59 20.5164L564.094 20.682H563.638ZM532.961 4.2462C534.948 6.9786 537.184 10.746 538.177 13.1058L540.744 11.4084C539.75 9.0486 537.432 5.4468 535.403 2.7972L532.961 4.2462ZM532.754 35.8758L535.486 37.449C537.349 33.516 539.626 28.2582 541.324 23.6628L538.922 22.0068C537.059 26.9334 534.534 32.5224 532.754 35.8758ZM548.403 13.8096V16.5006H562.479V13.8096H548.403ZM586.615 5.0742V7.5582H614.767V5.0742H586.615ZM586.781 10.1664V12.5676H611.579V10.1664H586.781ZM582.517 15.2586V17.7426H607.191V15.2586H582.517ZM579.867 25.9398V28.4238H604.873V25.9398H579.867ZM587.567 1.224C585.58 5.9436 582.144 10.4148 578.294 13.3128C578.956 13.851 580.074 15.093 580.529 15.714C584.504 12.4848 588.271 7.4754 590.631 2.0934L587.567 1.224ZM606.322 15.2586C606.404 30.204 606.736 39.312 612.863 39.312C615.43 39.312 616.092 37.4904 616.34 32.067C615.719 31.653 614.809 30.9078 614.188 30.204C614.105 33.8058 613.898 36.2484 613.07 36.2484C609.716 36.2484 609.385 28.1754 609.427 15.2586H606.322ZM582.682 20.1024C584.048 21.717 585.373 23.9112 585.87 25.4016L588.354 24.3252C587.857 22.8348 586.45 20.682 585.001 19.1088L582.682 20.1024ZM591.004 18.6534V39.2706H593.943V18.6534H591.004ZM600.029 19.1502C599.118 20.8062 597.503 23.2902 596.179 24.822L598.249 25.6914C599.573 24.2838 601.271 22.131 602.761 20.1438L600.029 19.1502ZM587.526 29.7072C585.704 32.5224 582.268 35.4618 579.205 36.8694C579.867 37.449 580.778 38.4426 581.192 39.1464C584.38 37.3662 587.899 33.93 589.844 30.618L587.526 29.7072ZM595.682 31.446C598.373 33.4746 601.726 36.4554 603.382 38.3598L605.287 36.4554C603.631 34.551 600.236 31.7358 597.503 29.7486L595.682 31.446ZM633.687 36.5796C637.91 36.5796 641.139 34.6338 643.664 31.8186C646.645 28.3824 648.715 24.201 650.04 19.647H646.521C645.403 23.787 643.54 27.306 641.056 29.997C639.028 32.1084 636.668 33.5574 634.101 33.5574C630.748 33.5574 628.098 31.3218 628.098 27.927C628.098 21.2616 641.346 18.9018 641.346 11.0772C641.346 7.5996 639.152 5.1156 635.426 5.1156C631.244 5.1156 628.429 8.2206 628.429 12.2778C628.429 18.7362 634.805 27.1818 641.47 32.3568C644.244 34.5096 646.976 35.9172 649.378 36.5796L650.413 33.4332C648.425 32.8536 646.107 31.6116 643.747 29.8314C637.91 25.4844 631.658 17.9082 631.658 12.2364C631.658 9.711 633.149 7.8066 635.426 7.8066C637.454 7.8066 638.282 9.4212 638.282 11.16C638.282 17.7012 624.455 19.1916 624.455 28.1754C624.455 33.0606 628.181 36.5796 633.687 36.5796ZM660.998 5.2812V8.3448H692.296V5.2812H660.998ZM658.39 33.9714V37.0764H695.236V33.9714H658.39ZM673.128 6.3576C671.969 15.5484 669.816 28.341 668.16 35.7516H671.555C673.087 28.548 675.198 15.7968 676.564 6.3576H673.128ZM663.275 17.3286V20.3508H686.169V17.3286H663.275ZM684.969 17.3286V17.7426C684.72 21.8412 684.016 30.0384 683.313 35.793L686.5 36.0414C687.246 30.2868 687.991 22.5864 688.281 17.4114L685.879 17.2044L685.341 17.3286H684.969ZM721.566 10.8288V32.9778H724.547V10.8288H721.566ZM712.582 16.9974H733.696V19.9782H712.582V16.9974ZM712.582 11.8638H733.696V14.8446H712.582V11.8638ZM709.602 9.6282V22.2138H736.801V9.6282H709.602ZM736.594 24.7806V36.1242C736.594 36.5796 736.47 36.7038 735.932 36.7452C735.435 36.7866 733.862 36.7866 731.916 36.7452C732.289 37.4904 732.703 38.5254 732.827 39.2706C735.518 39.2706 737.257 39.2706 738.292 38.8566C739.368 38.3598 739.617 37.6146 739.617 36.1656V24.7806H736.594ZM712.541 32.2326L712.748 34.965C717.675 34.7166 724.837 34.344 731.751 33.93L731.792 31.4046C724.63 31.7772 717.302 32.067 712.541 32.2326ZM727.859 28.8378C729.681 31.1562 731.461 34.3026 732.082 36.3726L734.524 35.5446C733.903 33.4332 732.04 30.3282 730.219 28.0926L727.859 28.8378ZM714.197 1.224V9.0486H717.219V1.224H714.197ZM728.77 1.224V9.0486H731.792V1.224H728.77ZM704.882 3.7908V6.4404H722.311V3.7908H704.882ZM723.885 3.7908V6.4404H741.273V3.7908H723.885ZM705.255 24.7806V27.3888H738.002V24.7806H705.255ZM706.952 23.2488V39.312H709.933V23.2488H706.952ZM775.759 18.3222C771.909 28.7136 763.173 34.0128 750.712 36.621C751.333 37.2834 752.285 38.691 752.616 39.4362C765.243 36.2898 774.393 30.618 778.905 19.233L775.759 18.3222ZM761.973 11.2842C759.489 14.472 755.349 17.7426 751.664 19.7712C752.368 20.3094 753.568 21.4686 754.107 22.0896C757.75 19.7298 762.138 16.0452 764.995 12.4848L761.973 11.2842ZM763.38 18.5706L760.606 19.44C765.036 30.1626 773.44 36.621 786.481 39.0636C786.895 38.1942 787.765 36.9108 788.427 36.2484C775.717 34.1784 767.23 28.134 763.38 18.5706ZM751.54 6.9786V10.0008H787.351V6.9786H751.54ZM774.351 13.023C778.201 15.6726 782.838 19.6056 784.95 22.2552L787.516 20.2266C785.281 17.577 780.561 13.8096 776.794 11.2428L774.351 13.023ZM766.071 1.8864C767.23 3.6252 768.472 5.9436 769.011 7.434L772.074 6.2334C771.536 4.8258 770.17 2.5074 769.011 0.851397L766.071 1.8864ZM801.013 3.3354V14.9274C801.013 21.6342 800.64 31.032 796.583 37.7388C797.37 38.07 798.736 38.8152 799.315 39.312C803.538 32.3982 804.118 22.0482 804.118 14.9274V3.3354H801.013ZM802.834 3.3354V5.9436H828.709V10.0422H802.834V12.6918H831.814V3.3354H802.834ZM804.366 15.6312V18.1566H833.098V15.6312H804.366ZM806.229 28.5066V31.1148H831.152V28.5066H806.229ZM803.083 35.586V38.1528H834.381V35.586H803.083ZM816.993 24.2838V37.2006H820.057V24.2838H816.993ZM822.003 19.5228C825.025 21.717 828.627 24.822 830.365 26.892L832.808 25.2774C830.945 23.2074 827.302 20.1852 824.28 18.1152L822.003 19.5228ZM806.85 25.8984C806.85 25.2774 808.755 24.4494 808.755 24.4494V24.408C811.528 22.7106 814.344 20.1852 816.828 17.577L814.219 15.9624C812.149 18.612 809.169 21.1788 808.216 21.8412C807.347 22.545 806.602 22.959 805.898 23.0832C806.271 23.8284 806.685 25.2774 806.85 25.8984ZM806.85 25.8984C808.092 25.443 810.038 25.2774 828.916 24.1596C828.709 23.5386 828.461 22.4622 828.378 21.717L808.672 22.752L806.809 23.7456L806.85 25.8984ZM844.98 4.95V13.4784H848.043V7.8066H876.568V13.4784H879.714V4.95H844.98ZM850.196 11.781V14.5134H874.208V11.781H850.196ZM857.814 17.37C864.852 23.6628 864.438 33.6402 861.829 35.586C861.084 36.3312 860.298 36.4554 859.221 36.4554C858.352 36.4554 856.944 36.3726 855.412 36.2484C855.951 37.0764 856.24 38.3184 856.282 39.1878C857.565 39.2292 858.89 39.2706 859.801 39.2292C861.664 39.2292 862.782 38.9394 864.065 37.7802C867.832 35.0064 868.122 22.959 860.132 16.0452L857.814 17.37ZM862.078 12.5676C858.31 16.1694 851.19 18.9432 844.855 20.5164C845.394 21.096 846.222 22.3794 846.553 23.0004C853.011 21.0546 860.38 17.8668 864.645 13.6854L862.078 12.5676ZM860.836 20.3094C857.275 23.0418 850.072 26.1468 844.731 27.4716C845.311 28.134 845.973 29.169 846.346 29.9142C851.728 28.1754 858.931 24.822 862.864 21.7998L860.836 20.3094ZM863.154 25.2774C859.097 29.1276 850.776 33.102 844.069 34.7166C844.648 35.4204 845.311 36.5382 845.683 37.3248C852.473 35.2962 860.836 31.032 865.348 26.892L863.154 25.2774ZM870.316 22.5864L867.584 23.2488C869.695 29.7486 873.794 35.0478 879.466 37.5732C879.88 36.7866 880.832 35.6274 881.494 35.0478C876.195 32.9778 872.179 28.1754 870.316 22.5864ZM874.249 16.0866C871.393 18.7776 866.549 22.2966 862.947 24.3666L864.976 26.1468C868.578 24.1596 873.297 20.9304 876.775 18.1152L874.249 16.0866ZM859.056 1.8864C859.966 3.4182 860.877 5.4882 861.25 6.813L864.603 5.7366C864.231 4.4118 863.154 2.4246 862.243 0.975598L859.056 1.8864ZM896.15 26.064V28.1754H920.949V26.064H896.15ZM896.233 20.9718V23.2074H919.665V31.032H896.233V33.309H922.729V20.9718H896.233ZM906.831 22.0896V34.551C906.831 37.9458 908.156 38.7738 912.793 38.7738C913.828 38.7738 921.321 38.7738 922.398 38.7738C926.331 38.7738 927.283 37.449 927.738 32.4396C926.869 32.274 925.71 31.86 925.006 31.3632C924.799 35.5446 924.426 36.2484 922.191 36.2484C920.576 36.2484 914.2 36.2484 912.958 36.2484C910.309 36.2484 909.812 36 909.812 34.551V22.0896H906.831ZM894.618 20.9718V35.4618H897.599V20.9718H894.618ZM892.838 2.88V5.1156H924.261V2.88H892.838ZM906.914 3.4596V19.3986H909.978V3.4596H906.914ZM891.016 7.7652V16.6662H893.997V9.9594H923.101V16.6662H926.206V7.7652H891.016ZM894.742 17.163L895.695 19.5642C898.386 19.026 901.532 18.405 904.72 17.7426L904.637 15.7554C900.952 16.335 897.392 16.8732 894.742 17.163ZM895.819 12.4434C898.51 12.9816 901.987 14.058 903.85 14.8446L904.761 12.9816C902.898 12.1536 899.379 11.2428 896.73 10.7874L895.819 12.4434ZM920.121 10.5804C918.092 11.3256 914.614 12.5676 912.213 13.1058L913.331 14.7204C915.732 14.2236 919.127 13.3542 921.487 12.3606L920.121 10.5804ZM911.716 17.4528C914.946 17.9082 919.168 18.9018 921.445 19.6884L922.149 17.577C919.831 16.7904 915.649 15.8796 912.462 15.5484L911.716 17.4528ZM955.393 25.2774H968.31V28.8792H955.393V25.2774ZM952.744 23.166V30.9906H971.043V23.166H952.744ZM954.069 11.6154H969.635V14.5548H954.069V11.6154ZM954.069 6.7302H969.635V9.6282H954.069V6.7302ZM951.46 4.6602V16.6248H972.326V4.6602H951.46ZM950.053 18.6534V21.0546H973.609V18.6534H950.053ZM949.142 36.0828V38.5254H973.982V36.0828H949.142ZM957.422 1.224V6.0678H959.989V1.224H957.422ZM963.591 1.224V6.0678H966.116V1.224H963.591ZM957.795 5.364V15.8382H959.989V5.364H957.795ZM963.591 5.364V15.8382H965.785V5.364H963.591ZM966.157 31.239C965.661 32.8122 964.667 35.1306 963.839 36.5796L965.95 37.3248C966.82 36 967.938 33.93 968.973 32.067L966.157 31.239ZM955.269 32.067C955.973 33.6816 956.801 35.8758 957.132 37.242L959.658 36.3726C959.285 35.0478 958.457 32.9364 957.67 31.3218L955.269 32.067ZM936.432 8.3448V11.2014H947.652V8.3448H936.432ZM941.69 20.5578V39.312H944.547V17.1216L941.69 20.5578ZM944.422 17.7426L942.601 19.3158C943.926 20.889 946.989 24.9048 948.19 26.7678L950.136 24.201C949.225 23.1246 945.499 18.7362 944.422 17.7426ZM946.741 8.3448V9.0072C944.795 14.8446 940.117 20.889 935.604 24.1182C936.06 24.6564 936.763 26.2296 937.012 27.099C941.856 23.3316 947.072 16.5834 949.597 9.3798L947.941 8.2206L947.362 8.3448H946.741ZM939.537 2.8386C940.903 4.4946 942.311 6.7716 942.973 8.262L945.375 6.606C944.671 5.157 943.263 2.9628 941.814 1.431L939.537 2.8386ZM983.214 15.5484V18.3636H1019.6V15.5484H983.214ZM985.781 8.5104V11.2842H1016.75V8.5104H985.781ZM1007.47 16.0866L1004.78 17.0388C1007.72 21.9654 1013.11 25.9398 1018.94 27.8442C1019.4 27.0162 1020.27 25.857 1020.97 25.236C1015.3 23.7042 1010.04 20.268 1007.47 16.0866ZM1000.6 1.0998C999.319 10.1664 993.978 20.061 982.014 25.236C982.717 25.8156 983.67 27.0162 984.001 27.8028C996.379 22.0896 1002.18 11.574 1003.83 1.4724L1000.6 1.0998ZM989.3 3.3768C990.666 5.0328 992.157 7.3098 992.778 8.7174L995.386 7.3512C994.723 5.9022 993.15 3.708 991.784 2.1762L989.3 3.3768ZM1010.95 2.3004C1009.96 4.2462 1008.14 7.1028 1006.69 8.8416L1009.05 9.711C1010.54 8.055 1012.32 5.5296 1013.81 3.2526L1010.95 2.3004ZM989.466 23.373V26.1882H1009.92V23.373H989.466ZM1009.38 23.373V23.8284C1008.88 31.7772 1008.34 34.8822 1007.52 35.7102C1007.1 36.0414 1006.73 36.1242 1005.94 36.1242C1005.16 36.1242 1003.04 36.1242 1000.81 35.8758C1001.35 36.7038 1001.68 37.9458 1001.72 38.8152C1004 38.9808 1006.19 38.9808 1007.31 38.898C1008.59 38.7738 1009.34 38.5254 1010.12 37.6974C1011.28 36.4554 1011.86 33.1434 1012.44 24.7392C1012.48 24.2424 1012.53 23.373 1012.53 23.373H1009.38ZM996.172 24.4494C995.386 30.3282 993.357 34.551 984.58 36.6624C985.201 37.2834 986.071 38.484 986.361 39.2706C995.924 36.6624 998.449 31.6116 999.402 24.4494H996.172Z" fill="#DACE00"/>
</svg>
