<?xml version="1.0" encoding="utf-8"?>
<!-- Generator: Adobe Illustrator 26.5.0, SVG Export Plug-In . SVG Version: 6.00 Build 0)  -->
<svg version="1.1" id="圖層_1" xmlns="http://www.w3.org/2000/svg" xmlns:xlink="http://www.w3.org/1999/xlink" x="0px" y="0px"
	 viewBox="0 0 589 67" style="enable-background:new 0 0 589 67;" xml:space="preserve">
<style type="text/css">
	.st0{fill:#D9E021;}
</style>
<path class="st0" d="M63.7,42.7v7.8H36v15.3h-8.5V50.5H0.5v-7.8h26.9v-6.2H7.4V4.8h49.1v31.6H37.7c-0.1,0.5-0.7,0.8-1.8,1v5.2H63.7
	L63.7,42.7z M15.5,12v5.2H48V12H15.5z M15.5,24v5.2H48V24H15.5z M82.2,50.4c-1.5,5.5-3.8,11.4-7.6,15.2L68,61.5
	c3.5-3.3,6-8.5,7.3-13.5L82.2,50.4L82.2,50.4z M132,37.8H86v3.1h38.3l1.7-0.2l4.4,0.7c0,0.6-0.1,1.4-0.3,2.1
	c-0.9,12.6-1.8,17.8-3.6,19.9c-1.6,1.6-3.2,2.5-8.9,2.5c-1.2,0-2.5,0-3.8-0.1c-0.1-2-0.9-4.8-1.9-6.6c2.5,0.3,4.8,0.3,5.8,0.3
	s1.6-0.1,2.2-0.7c0.9-1,1.7-4.3,2.3-12.1H77.8V6.3h16c0.7-1.9,1.3-3.9,1.6-5.6l10.4,1.6c-0.2,0.6-0.7,0.8-1.7,0.9l-1.6,3h19.7v22.8
	H86v3h46L132,37.8L132,37.8z M86.3,63.6c0.2-3.4-0.3-8.7-1.3-12.8l6.7-1c1.2,4,1.8,9.4,1.8,12.8L86.3,63.6L86.3,63.6z M114.2,12H86
	v3.1h28.2V12z M86,23.4h28.2v-3.3H86V23.4z M99.2,62.3c-0.3-3.1-1.6-7.9-3-11.6l6.2-1.5c1.6,3.6,3.1,8.4,3.5,11.3L99.2,62.3z
	 M111.1,58.6c-0.7-2.5-2.5-6.3-4.2-9.2l5.8-2.1c1.8,2.7,3.7,6.5,4.5,8.9L111.1,58.6z M191.6,46.4l5.2,2.7c-0.2,0.4-0.6,0.5-1,0.8
	c-2.1,2.9-5,5.5-8.8,7.6c4.5,1,9.7,1.6,15.1,1.8c-1.5,1.6-3.4,4.6-4.3,6.6c-7.5-0.7-14.2-2.1-20.1-4.2c-5.6,1.9-12.3,3.4-19.8,4.4
	c-0.8-1.8-2.5-4.4-3.9-6c5.8-0.5,11-1.4,15.6-2.5c-1.7-1.1-3.3-2.3-4.7-3.6c-2,1-4.1,1.8-6.4,2.7c-1-1.6-3-4-4.4-5
	c7.2-2.1,12.7-4.9,16.1-7.9c-1.4-0.8-1.9-2.3-2-4.7c-1.8,2.4-4.1,5-6.7,6.8l-4.9-3.9c1.2-0.7,2.5-1.6,3.6-2.7H155v-9.9h6.3V12.2
	h11.2c0.3-0.8,0.5-1.6,0.6-2.4h-16V5c-0.3,0.1-0.6,0.1-1,0.1c-1.4,4.2-3.1,8.6-4.9,12.8l2.1,0.6c-0.1,0.6-0.7,1-1.8,1.2v46.2h-7.8
	V32c-1.5,2.4-3.1,4.7-4.7,6.6c-0.6-2.1-2.4-6.7-3.4-8.7c5.2-6.4,10.4-17.7,13.6-28.6l8.1,2.7V3.9h43.2v5.9h-18.8
	c-0.3,0.7-0.6,1.6-1,2.4h15.1v17.1h5.8v9.9h-4.2c1.1,1.2,2.1,2.5,2.7,3.5l-5.5,2.9c-0.9-1.6-2.7-3.7-4.5-5.7
	c-0.6,3.6-2.2,4.7-6.2,4.7h-4.5c-0.3,0.3-0.8,0.4-1.4,0.5l-1.6,1.5h14.1L191.6,46.4L191.6,46.4z M168.1,35.1l7.7,0.5
	c-0.7-0.5-1.3-1.1-1.9-1.6H162v3.4c0.6-0.8,1.2-1.5,1.7-2.2l4.4,2.4V35.1z M187.8,16.2h-19.2v2.1h19.2V16.2z M187.8,23.8v-2.3h-19.2
	v2.3H187.8z M168.6,27.1v2.2h19.2v-2.2H168.6z M171.3,51.2c1.9,1.4,4.2,2.7,6.8,3.7c2.7-1.1,5.1-2.3,6.9-3.7H171.3z M182.8,40.2
	c1.4,0,1.7-0.3,2-2.3c1,0.5,3,1.2,4.6,1.5c-0.6-0.7-1.3-1.4-1.9-1.9l5.1-2.7c0.5,0.4,0.9,0.8,1.4,1.2V34h-12c1.1,1,2,1.9,2.6,2.8
	l-4.9,2.9c-0.8-1.1-2.1-2.5-3.6-3.8c-0.1,0.4-0.6,0.6-1.6,0.8v1.9c0,1.4,0.4,1.6,2.3,1.6L182.8,40.2L182.8,40.2z M221.8,51.1
	c-1.9,5.3-4.8,10.2-10.1,13.3l-6.5-4.8c4.6-2.4,7.8-6.6,9.5-11.2L221.8,51.1L221.8,51.1z M233.4,14.9v-2.5h-26.7V6.1h26.7V1.1
	l9.9,0.6c-0.1,0.7-0.6,1.1-1.9,1.3v3.2h27.1v6.2h-27.1v2.5h19.3v20.2h-4.2c4.2,2.4,8.4,5.3,10.8,7.7l-5.7,4.4c-1-1-2.1-2-3.4-3
	c-6.2,0.3-12.5,0.5-18.6,0.7c2.6,1.8,5.1,3.8,6.4,5.5l-5.8,4.7c-1.8-2.5-6-5.9-9.7-8.1l2.3-1.8l-21,0.5c-0.1,0.6-0.7,1-1.2,1l-3-7.9
	c3.6,0.1,21.6,0,25.6,0v-3.7h-19V14.9L233.4,14.9L233.4,14.9z M222.1,20v2.7h11.2V20H222.1z M222.1,30.1h11.2v-2.7h-11.2V30.1z
	 M231.7,55.9c0,1.8,0.6,2,3.5,2h8.8c2.3,0,2.8-0.6,3.1-4.7c1.6,1.2,4.9,2.3,7.1,2.7c-1,7.3-3.2,9-9.4,9h-10.6
	c-8.7,0-10.7-2.1-10.7-9v-7.5l10,0.5c-0.1,0.7-0.6,1.1-1.9,1.3V55.9z M252.6,20h-11.2v2.7h11.2V20z M241.5,27.4V30h11.2v-2.7H241.5z
	 M241.5,38.8l8.8-0.1c-1.4-0.8-2.7-1.5-4-2.1l2.1-1.4h-7V38.8z M262.8,64.2c-1.9-3.8-6.8-9-11.4-12.7l6.5-3.9
	c4.7,3.4,9.8,8.4,12,12.3L262.8,64.2L262.8,64.2z M330.5,50.5c2.7-0.5,5.6-1.2,8.4-1.8c-1.4-2.2-2.9-4.3-4.4-6.2l6.4-3.4
	c4.5,5.4,9.3,12.8,11.2,17.8l-7,3.8c-0.5-1.6-1.4-3.5-2.5-5.5c-7.6,2.2-15.2,4.2-20.4,5.6c-0.1,0.7-0.6,1.2-1.1,1.3l-3.2-9.3
	c1.4-0.2,2.9-0.5,4.6-0.8V4.6h25.8v33.9h-18V50.5z M340.9,12.2h-10.4v5.6h10.4V12.2z M330.5,30.9h10.4v-5.8h-10.4V30.9z M380.2,4.4
	v41.8c0,8-3.2,9.7-13.4,9.7c-0.3-2.5-1.6-6.6-2.8-8.9c1.6,0.1,3.3,0.1,4.6,0.1c2.8,0,3.1,0,3.1-1.2V12.7h-9.8v53h-8.4V4.4L380.2,4.4
	L380.2,4.4z M417.1,64.7c-1.9-2.6-5.8-6.4-9.4-9.7c-4.8,4.2-10.2,7.8-15.9,10.8c-1.2-2.1-3.4-4.8-5.4-6.6
	c11.4-4.9,22.3-13.8,28.3-24.3l8.5,3.3c-0.3,0.5-0.9,0.8-1.9,0.8c-2.2,3.7-4.9,7.2-7.9,10.5c3.7,3.1,7.9,6.8,10.1,9.5L417.1,64.7z
	 M409.8,17.3c-0.3,0.5-1,0.7-2,0.7c-2.1,3.1-5.3,7-8.1,10.1c1.4,1,2.7,2.1,3.8,3c3-3.2,5.6-6.7,7.5-10.2l8.5,3
	c-0.3,0.5-0.8,0.9-1.8,0.9c-5.6,9.7-15.1,18.8-25.5,24.9c-1.2-1.8-3.3-4.4-5.3-6c3.8-1.9,7.5-4.4,10.9-7.2c-3.1-2.8-7.3-6-10.8-8.5
	l4.6-5.4c0.8,0.5,1.6,1,2.3,1.6c1.9-2.3,3.7-5,5.3-7.5h-12.1V9.3h14.2V1.1l9.9,0.6c-0.1,0.7-0.6,1.1-1.9,1.3v6.4h13.4v7.3h-14.5
	L409.8,17.3L409.8,17.3z M435.3,10c-0.1,0.7-0.5,1-1.8,1.2v37.4h-7.7V9.4L435.3,10L435.3,10z M440.3,2.6l9.8,0.4
	c-0.1,0.7-0.6,1.2-1.8,1.3V56c0,8-3,9.7-15.9,9.7c-0.3-2.3-1.5-6-2.6-8.4c3.8,0.1,7.6,0.1,8.9,0.1c1.2-0.1,1.6-0.4,1.6-1.6
	L440.3,2.6L440.3,2.6z M512,7c-0.4,0.5-1.3,0.5-2,0.4c-1.9,1.8-5.1,4.3-7.9,6.2c1,1.3,2.1,2.5,3.1,3.7c2.7-2.3,5.6-5.1,7.5-7.4
	l6.8,5.1c-0.3,0.3-1.1,0.5-1.9,0.4c-1.9,1.8-4.9,4.2-7.6,6.2c3.1,2.5,6.6,4.6,10.4,6.1c-1.8,1.6-4.3,4.7-5.5,6.8
	c-5.6-2.7-10.6-6.5-14.8-11.2v3.7h-25.4v-3.4c-4.2,4.5-9.2,8.3-14.4,11c-1.1-1.8-3.4-4.5-5-5.8c3.5-1.6,7.1-4,10.2-6.9
	c-1.9-1.9-4.8-4-7.1-5.6l4.4-4.5c2.5,1.4,5.5,3.5,7.5,5.3c1.9-2.2,3.5-4.5,4.8-6.9h-14.7V3.6h19l1.3-0.3l5.6,2.7
	c-0.2,0.5-0.6,0.8-1,1c-1.8,4.8-4.4,9.3-7.5,13.2h19.7c-3.8-4.9-7-10.6-9.5-16.8l7.1-2.1c1,2.4,2.1,4.8,3.5,7.1
	c2.4-2.1,4.9-4.6,6.6-6.6L512,7L512,7z M500.8,49.7l4.5,1.3c-0.1,0.6-0.8,0.8-1.7,0.8c-0.9,1.7-2.1,3.9-3.4,5.8h17.2v6.8h-59.5v-6.8
	h16.5c-0.9-2.3-2.1-4.9-3.5-7.1l3-0.9h-5.9V30.5h39.3v19.2L500.8,49.7L500.8,49.7z M476.1,37.1v6.1h22.8v-6.1H476.1z M492.2,57.6
	c1.2-2.3,2.6-5.4,3.5-7.9h-17c1.6,2.5,3.1,5.7,3.8,7.9H492.2z M523.7,19v-6.5H552V19H523.7z M549.1,41.2v21H534v2.7h-7.1V41.2H549.1
	L549.1,41.2z M527.1,28.4v-6.2h22.2v6.2H527.1z M527.1,37.8v-6.2h22.2v6.2H527.1z M549.3,3.3v6.2h-21.9V3.3H549.3z M541.9,47.7H534
	v8h7.9V47.7z M563.3,53.6c0,2.9,0.5,3.4,3.8,3.4h9.9c3.2,0,3.6-1.6,4.1-10.3c1.8,1.4,5.3,2.7,7.6,3.3c-1,11.5-3.3,14.8-11.1,14.8
	h-11.4c-8.6,0-11.2-2.4-11.2-11V27.9h21.7V12.4h-21.9V4.6H585v33.8h-8.3v-2.7h-13.4L563.3,53.6L563.3,53.6z"/>
</svg>
