<?xml version="1.0" encoding="utf-8"?>
<!-- Generator: Adobe Illustrator 26.5.0, SVG Export Plug-In . SVG Version: 6.00 Build 0)  -->
<svg version="1.1" id="圖層_1" xmlns="http://www.w3.org/2000/svg" xmlns:xlink="http://www.w3.org/1999/xlink" x="0px" y="0px"
	 viewBox="0 0 200 90" style="enable-background:new 0 0 200 90;" xml:space="preserve">
<style type="text/css">
	.st0{fill:none;stroke:#E52C29;stroke-miterlimit:10;}
	.st1{fill:#E52C29;}
</style>
<rect x="2.4" y="3.6" class="st0" width="195.2" height="82.7"/>
<path class="st1" d="M17.9,36.8V20.4c-0.1-0.1-3.4,1.8-3.5,1.8l-0.8-2.8c2.4-1.3,5.2-3,8.1-2.5v20H17.9z M35,25.4
	c3.3-3.7,9.7-1.3,9.4,4.6C44.5,40,30,38.9,31,28.6c0-4.6,2.1-12,11.6-12v3C38.6,19.3,35.3,22.2,35,25.4L35,25.4z M40.6,30.2
	c0.4-4.4-5.3-5.4-5.7-0.6C34.6,35.2,40.7,36,40.6,30.2z M59.2,28.6l0.5,2.6c-1.8,0.7-4.8,1.8-8.9,3.3l-1.2-2.9
	c0.5-0.1,1.7-0.5,3.5-1v-9.8h-2.8v-2.8h8.7v2.8h-2.8v8.8L59.2,28.6z M72.7,34H63l2.3,1.7c-1.7,1.3-4.1,2.5-6.6,3.3
	c-0.5-0.7-1.1-1.4-1.8-2.1c2.3-0.7,4.2-1.7,5.9-2.9h-2.6V20.5h4c0.2-0.8,0.3-1.4,0.3-1.8h-5.4v-2.5h14.4v2.5H68
	c-0.1,0.3-0.5,1.4-0.6,1.8h5.3V34z M63.1,22.8v1.6h6.7v-1.6H63.1z M63.1,26.4v1.6h6.7v-1.6H63.1z M63.1,30.2v1.6h6.7v-1.6H63.1z
	 M66.8,35.7l2.2-1.6c2.3,1.3,4,2.3,5.1,3.2l-2.4,1.8C70.6,38.1,69,37,66.8,35.7z M92.3,32.6v3.1h9.4v2.7H80v-2.7h9.1v-3.1h-6.6V30
	h6.6v-2.9h-5.4v-2.2c-0.9,0.6-2,1.3-3.2,1.9c-0.6-1-1.2-1.8-1.8-2.5c2.9-1.1,5.8-3.1,8.4-5.5h-3.4V16C97,14.7,92,20,103,24
	c-0.8,0.9-1.5,1.8-2,2.8c-1-0.5-2.1-1.1-3.2-1.8v2.1h-5.5V30H99v2.6H92.3z M84.5,24.4h12.4c-2.4-1.7-4.4-3.6-6.1-5.6
	C89.1,20.7,87,22.6,84.5,24.4z M119.3,23.1L119.3,23.1L108,23v-2.3h1.4v-4.1h2.3v4.1h1.4v-5.5h2.5v2h3.8v2.2h-3.8v1.3h4.5v1.5
	c1.7-1.8,3.1-4.4,4.1-7h2.7c1.5,3.2,3,5.6,5.3,7.5c-0.7,0.9-1.2,1.8-1.6,2.7c-0.5-0.5-1-1-1.4-1.6v1.6h-6.9v-1.4
	c-0.4,0.5-0.9,1.1-1.4,1.5C120.4,24.7,119.9,23.9,119.3,23.1z M117.3,26.8v-3.2h2.2v14.9h-2.2v-0.9h-6.5v1.1h-2.2V23.7h2.2v3.3
	c0.6-0.8,1-1.9,1.1-3.4l1.5,0.2c-0.2,1.5-0.6,1.5,0.5,2.7c0.5-0.8,0.8-1.7,0.9-2.8l1.5,0.2C115.9,24.8,116.4,26.1,117.3,26.8z
	 M113.7,27.5l-0.3,0.4c-0.1-0.2-0.4-0.5-0.7-0.9c-0.2,0.5-0.6,1-1,1.3c-0.2-0.2-0.6-0.7-0.8-0.8v0.8h6.5v-0.9l-0.8,0.9
	c-0.3-0.5-0.7-1-1-1.4c-0.2,0.5-0.6,0.9-1.1,1.4C114.2,28,114,27.8,113.7,27.5z M115,30.6l1.5,0.2c-0.6,1,0.1,2.6,0.9,3.1v-3.4h-6.5
	V34c0.6-0.8,1-1.9,1.1-3.4l1.5,0.2c-0.3,1.4-0.5,1.8,0.6,2.7C114.5,32.7,114.8,31.7,115,30.6z M110.9,35.5h6.5v-0.9l-0.7,0.8
	c-0.3-0.5-0.7-1-1.1-1.5c-0.3,0.6-0.7,1-1.1,1.4c-0.2-0.2-0.4-0.5-0.6-0.7l-0.3,0.4c-0.1-0.2-0.4-0.6-0.8-1.1c-0.3,0.6-0.6,1-1,1.4
	c-0.3-0.4-0.6-0.7-0.8-0.8V35.5z M130.7,27.2c-0.4,3.4,1.9,10.8-4.2,9.6c-0.1-0.9-0.3-1.8-0.7-2.6c3.5,0.8,1.9-2.5,2.2-4.4h-2.4V39
	H123v-9.2h-2.7v-2.6H130.7z M123,23.1h5.5c-1.1-1.5-2.1-3.1-2.8-4.8C124.9,20.1,124,21.7,123,23.1z M142.3,19.1l3.3,1
	c-1.6,3.2-3.5,5.8-6.1,7.9c-0.9-0.9-1.7-1.6-2.5-2.1C139.2,24.3,141.2,21.7,142.3,19.1z M151.7,30.1l2.9-1.4c2.4,2.9,4.4,5.7,6,8.8
	l-3,1.6c-0.1-0.3-0.5-1-1-2c-6.2,0.3-12.1,0.6-17.6,0.8l-0.3-3.2c6.2,1,5.9-5.9,8.1-10.4l3.6,0.9c-1.4,3.4-2.9,6.5-4.5,9.3
	c2,0,5-0.1,9-0.3C153.5,32.5,152.5,31.1,151.7,30.1z M144.5,16.2h10c1.4,3.4,3.8,6.7,6.8,8.9c-0.9,0.5-1.9,1.3-2.8,2.2
	c-7.3-6.2-2-9.1-13.9-8.2V16.2z M176.1,19.4v2.4h-10v-2.4H176.1z M186.9,26l2,0.7c-0.8,3-2.1,5.4-3.9,7.4c1.5,1,3.3,1.7,5.3,2.2
	c-0.7,0.7-1.4,1.6-1.9,2.6c-2.1-0.6-4-1.6-5.6-2.8c-1.7,1.2-3.7,2.1-5.8,2.8c-0.3-0.9-0.9-1.8-1.6-2.6v1.3h-5.3v1h-2.6V30h7.9v6.4
	c1.9-0.5,3.7-1.2,5.2-2.2c-1.2-1.3-2.1-2.7-2.9-4.4l2.6-0.8h-3.6v-2.7h0.9c-0.5-0.6-1.3-1.3-2.1-1.8v1h-7.9V23h7.9v1.2
	c2.7-1.6,2.6-5.4,2.5-8.3h8.5c0.1,0.5-0.3,6.3,0.3,6.5c1.4,0.3,1-1.2,1.1-2.5c0.6,0.4,1.4,0.8,2.5,1.1c-0.3,2.7-0.5,4-2.6,4.1
	c-1.2,0-3.3,0.1-3.8-1c-0.5-1-0.3-4.1-0.3-5.4h-2.9c0.1,3.3-1,6.1-3.2,7.6h9L186.9,26z M175.2,26.5v2.3h-7.9v-2.3H175.2z M175.2,16
	v2.3h-7.7V16H175.2z M172.6,35.3v-2.9h-2.7v2.9H172.6z M185,28.9h-4.9c0.6,1.3,1.4,2.4,2.5,3.4C183.5,31.4,184.3,30.2,185,28.9z
	 M21.8,61.6l-1.7,2.3c-0.3-0.8-0.8-1.8-1.5-3.2v10.7h-2.8v-9.5c-0.8,2.2-1.6,3.9-2.4,5.1c-0.2-0.6-0.7-1.6-1.4-2.8
	c1.5-1.9,2.9-5.4,3.6-8.6h-3v-2.8h3.2v-5.2h2.8v5.2h2.8v2.8h-2.8C18.4,57.9,20.5,59,21.8,61.6z M36.2,59.4l-2.5,1.5
	c-0.2-0.4-0.4-0.8-0.6-1.1c-0.7,2-1.6,3.8-2.6,5.4c1.8,1.7,3.7,2.9,5.8,3.6c-0.9,0.8-1.6,1.7-2.1,2.7c-2.2-0.9-4.1-2.2-5.7-4
	c-1.7,1.7-3.9,3.1-6.5,4c-0.3-0.8-0.8-1.6-1.5-2.4c2.5-0.8,4.6-2.1,6.2-3.8c-1-1.5-1.9-3.2-2.7-5.2c-0.3,0.3-0.6,0.6-1.1,1
	c-0.4-0.6-1.1-1.2-2.1-1.9c1.5-1.2,2.8-3,3.8-5l2.7,1.1c-0.8,1.6-1.7,3-2.8,4.2l2-0.5c0.5,1.4,1.2,2.7,2,4c0.8-1.3,1.3-2.7,1.7-4.1
	l2.6,0.5c-0.9-1.4-1.8-2.7-2.9-3.9l2.4-1.3C34.2,56.1,35.4,57.8,36.2,59.4z M35.8,51.2v2.8H21.7v-2.8h5.5v-3.5h3v3.5H35.8z
	 M38.7,48.6h21.8v22.9h-3v-0.9h-16v0.9h-2.8V48.6z M41.6,67.8h16V51.3h-16V67.8z M55.5,61.7l1.3,0.8c-0.8,0.6-1.6,1.2-2.6,1.7
	c1.1,0.5,2.1,0.8,3,1c-0.6,0.6-1.2,1.2-1.5,1.9c-2-0.7-3.7-1.6-5.2-2.9v2.9h-2.7v-2.6c-1.3,0.8-2.7,1.5-4.4,2.1
	c-0.4-0.7-1-1.3-1.6-1.9c2.4-0.7,4.3-1.6,5.9-2.7h-4v-4.4h11.8V61.7z M56.7,55.3V57H42.5v-1.7h5.7v-1h-4.5v-1.6h4.5v-1.1h2.7v1.1
	h4.7v1.6h-4.7v1H56.7z M46.3,59.3v1.3h6.6v-1.3H46.3z M51.1,62.1L51.1,62.1c0.4,0.5,0.9,0.9,1.3,1.2c0,0,0.6-0.4,1.6-1.2H51.1z
	 M71,53.7l2.1,0.8c-1.2,6.6-3.2,11.2-7.6,14.8c-0.7-1-1.6-1.8-2.5-2.4c3-1.9,5.3-5.8,6.4-10h-5.6v-3C64.1,53.8,70.9,54,71,53.7z
	 M83.8,51.6l2.8,2c-2.3,2.5-4.5,4.5-6.7,6.2c2,3.3,4.4,5.7,7.3,7c-0.8,0.7-1.7,1.7-2.3,2.8c-3.4-2-6.1-5.2-8.1-9.6
	c-0.3,5.5,2.1,12.7-6.6,11.5c-0.1-1-0.5-2.1-1.2-3.4c1.3-0.2,3.9,0.8,4.5-0.6c0,0,0-19.9,0-19.9h3.2c-0.3,3,0.4,7.2,1.8,9.6
	C80.8,55.2,82.5,53.4,83.8,51.6z M111.9,58.3h-18c0.2,4.8-0.6,10.5-2.9,12.9c-0.5-0.6-1.5-1.4-2.4-2c2.6-2.6,2.4-9.5,2.3-13.6h21
	V58.3z M110.7,48.5v5.6H91v-5.6H94v2.9h5.1v-3.8h3.2v3.8h5.2v-2.9H110.7z M112.2,64.1v2.7h-7.5v4.7h-3.2v-4.7h-7.2v-2.7h7.2v-1.9
	h-6.1v-2.5h15.7v2.5h-6.4v1.9H112.2z M137.8,49.6v2.3h-4.3c0.5,0.8,0.9,1.4,1,1.7l-2.4,0.9h3.5v6.5h-8v1.5h9.5
	c-0.2,5.7-0.7,8.5-6.5,7.8c-0.1-1-0.3-1.9-0.8-2.8c2.7,0.2,3.9,0.8,4.1-2.5h-6.3v6.3h-2.9v-5.1c-2.3,2.1-5.1,3.8-8.1,4.8
	c-0.5-0.8-1.1-1.6-1.9-2.4c2.8-0.8,5.4-2,7.6-3.7h-3l-0.1,0.6l-3.1-0.4c0.7-2.2,1.3-4.4,1.7-6.7h6.9v-1.6h-7.9v-2.5h3.4
	c-1.3-4.4-1.7-1.8-3.8,0.3c-0.8-0.6-1.6-1.2-2.4-1.6c1.6-1.3,3-3.5,4-5.8l2.8,0.8c-0.1,0.4-0.4,0.9-0.6,1.4h5.7v2
	c1-1.2,1.9-2.6,2.5-4.2l2.9,0.7c-0.1,0.3-0.3,0.9-0.6,1.5H137.8z M124.7,62.6v-1.5h-4.4l-0.3,1.5H124.7z M125.5,51.9h-3.4
	c0.4,0.9,0.7,1.4,0.8,1.7l-2.1,0.9h6c-0.8-0.7-1.6-1.2-2.4-1.6C124.8,52.6,125.2,52.2,125.5,51.9z M127,54.6h4.8
	C130.1,50.5,129.2,51.8,127,54.6z M132.6,58.6v-1.6h-5v1.6H132.6z M140,57.6h23.5v3.3H140V57.6z M173,58.3l0.4,2.7
	c-0.6,0.2-2,0.6-2.4,0.7c-0.4,3.7,1.8,10.8-4.5,9.7c-0.1-0.8-0.3-1.8-0.7-2.8c1.2-0.1,2.2,0.5,2.5-0.4c0,0,0-5.6,0-5.6
	c-0.7,0.2-1.5,0.4-2.4,0.7l-0.6-2.9c0.5-0.1,2.4-0.6,3.1-0.7v-4.4h-2.7v-2.8h2.7v-4.8h2.8v4.8h2.3v2.8h-2.3v3.7L173,58.3z
	 M177.4,51.8v-4.2h2.7c-0.4,7.5,2,19.3-5,23.8c-0.6-0.7-1.3-1.4-2.2-2c1.6-1.1,2.8-2.6,3.5-4.3c-1,0.4-2,0.8-3,1.2l-1.1-2.6
	c1-0.3,2.7-0.8,4.9-1.5c0.1-0.7,0.1-1.5,0.2-2.4h-3.5v-2.6h3.5v-2.6h-3.8v-2.7H177.4z M189.1,62.6v2.7h-4.4v6.1h-2.9V47.6h2.9v4.2h4
	v2.7h-4v2.6h3.7v2.6h-3.7v2.8H189.1z"/>
</svg>
