<?xml version="1.0" encoding="UTF-8"?>
<svg id="_圖層_2" data-name="圖層 2" xmlns="http://www.w3.org/2000/svg" viewBox="0 0 259.33 20.19">
  <defs>
    <style>
      .cls-1 {
        fill: #39554b;
      }

      .cls-1, .cls-2, .cls-3, .cls-4, .cls-5, .cls-6, .cls-7, .cls-8, .cls-9, .cls-10 {
        stroke-width: 0px;
      }

      .cls-2 {
        fill: #4d665d;
      }

      .cls-3 {
        fill: #c1191f;
        fill-rule: evenodd;
      }

      .cls-4 {
        fill: #c5a187;
      }

      .cls-5 {
        fill: #c6a187;
      }

      .cls-6 {
        fill: #627871;
      }

      .cls-7 {
        fill: #647a73;
      }

      .cls-8 {
        fill: #545656;
      }

      .cls-9 {
        fill: #393c3d;
      }

      .cls-10 {
        fill: #617770;
      }
    </style>
  </defs>
  <g id="_圖層_1-2" data-name="圖層 1">
    <g>
      <g>
        <g>
          <g>
            <path class="cls-9" d="M34.6,10.05c1.72.58,2.62,1.42,2.62,2.4,0,.52-.38.96-.84.96s-.68-.26-.94-1.08c-.16-.64-.46-1.26-.82-1.74,0,3.9.04,6.89.04,7.77,0,.56-.38.78-1.08.78-.58,0-.84-.18-.84-.66,0-.8.22-4.31.26-7.11-1.18,2.12-2,3.12-3.3,4.23-.08.06-.24-.08-.18-.16,1.36-2,2.44-4.47,3.2-7.45h-1.5c-.28,0-.58.04-.96.12l-.22-.74c.44.12.78.16,1.12.16h1.72V3.2c0-1.1,0-1.72-.08-2.5,2.2.28,2.38.36,2.38.66,0,.18-.14.32-.58.54v5.63h.26c.54-.76.78-.92.92-.92.18,0,.38.16.96.64.24.22.4.4.4.54s-.06.2-.26.2h-2.28v2.06ZM31.53,6.67c-.46,0-.56-.26-.64-1.4-.08-1.26-.26-2.04-.62-2.86-.04-.1.08-.2.16-.14,1.26,1.1,1.94,2.3,1.94,3.32,0,.58-.36,1.08-.84,1.08ZM37.56,3.34c-.1.04-.22.06-.38.1-.68,1.32-1.42,2.44-2.18,3.24-.06.08-.22.02-.18-.08.26-.74.52-1.72.72-2.64.14-.74.26-1.44.28-1.98,1.7.64,2.04.8,2.04,1.02,0,.04,0,.06-.02.1.24.04.46.06.68.06h2.64v-.26c0-.78-.04-1.64-.1-2.2,2.24.22,2.46.42,2.46.62,0,.16-.2.36-.62.56v1.28h2c.8-.94,1.04-1.1,1.18-1.1.18,0,.4.16,1.2.76.36.3.52.46.52.6s-.06.2-.26.2h-4.63v1.74h1.48c.74-.86.98-1.02,1.12-1.02.18,0,.4.16,1.08.72.3.24.46.42.46.56s-.06.2-.26.2h-3.88v1.82h2.5c.8-.96,1.04-1.12,1.18-1.12.18,0,.38.16,1.16.78.32.26.48.46.48.6s-.06.2-.26.2h-9.45c-.3,0-.6.04-1,.12l-.22-.74c.5.12.88.16,1.26.16h2.62v-1.82h-2.26c-.26,0-.52.04-.88.12l-.22-.74c.4.12.72.16,1.02.16h2.34v-1.74h-2.6c-.26,0-.52.04-.88.12l-.12-.4ZM39.6,14.72c.02,1.78.02,2.74.02,3.64,0,.58-.36.78-1.08.78-.52,0-.74-.22-.74-.62,0-.8.08-2,.08-5.63,0-1.36,0-2.72-.08-4.07.94.38,1.08.46,1.94.94h4.81c.58-.64.74-.76.9-.76.2,0,.36.12,1.06.68.32.26.44.4.44.56s-.06.22-.54.56v1.02c0,4.25.08,4.71.08,5.21,0,.82-.18,1.26-.58,1.6-.38.34-.96.46-1.44.46-.32,0-.36-.06-.42-.5-.12-.7-.56-1.04-2.02-1.4-.1-.02-.1-.24,0-.24.9.06,1.72.08,2.38.08.22,0,.26-.04.26-.28v-2.02h-5.07ZM44.67,10.21h-5.07v1.76h5.07v-1.76ZM44.67,12.43h-5.07v1.84h5.07v-1.84Z"/>
            <path class="cls-9" d="M54.14,4.9c.7-.9.94-1.06,1.08-1.06.18,0,.4.16,1.1.74.3.26.46.44.46.58s-.06.2-.26.2h-4.97c-.34,0-.68.04-1.12.12l-.22-.74c.54.12.94.16,1.34.16h2.6ZM52.48,17.38v.8c0,.46-.34.66-.96.66-.48,0-.74-.14-.74-.54,0-.6.08-1.26.08-3.7,0-.88-.02-1.76-.12-2.64.9.32,1.04.38,1.9.84h1.5c.58-.66.74-.78.9-.78.2,0,.36.12.92.58.24.2.36.34.36.5,0,.18-.12.3-.5.58v.64c0,1.66.02,2.82.02,3.2,0,.4-.34.6-.9.6-.48,0-.68-.16-.68-.54v-.2h-1.78ZM53.72,10.13c.58-.78.82-.94.96-.94.18,0,.4.16,1.04.68.26.2.42.38.42.52s-.06.2-.26.2h-3.71c-.34,0-.68.04-1.12.12l-.22-.74c.54.12.94.16,1.34.16h1.56ZM53.76,2.22c.68-.86.92-1.02,1.06-1.02.18,0,.4.16,1.14.72.32.26.48.42.48.56s-.06.2-.26.2h-4.01c-.34,0-.66.04-1.1.12l-.22-.74c.52.12.92.16,1.32.16h1.6ZM53.76,7.53c.62-.8.86-.96,1-.96.18,0,.4.16,1.02.68.26.22.42.4.42.54s-.06.2-.26.2h-3.75c-.34,0-.66.04-1.1.12l-.22-.74c.52.12.92.16,1.32.16h1.58ZM54.26,13.26h-1.78v3.66h1.78v-3.66ZM62.71,4.84c-.02-.64-.04-1.32-.04-2.02-.02-1.14-.04-1.36-.14-1.96,1.98.18,2.38.3,2.38.6,0,.14-.1.26-.5.54-.04.94-.06,1.9-.06,2.84h1.98c.74-.88.9-1,1.06-1,.2,0,.34.12.98.7.26.24.38.4.38.56,0,.14-.08.2-.3.2h-4.07c.1,2.96.36,5.15.68,6.35.54-1.38.94-2.86,1.18-4.47,1.7.56,2.28.84,2.28,1.08,0,.22-.24.34-.74.38-.56,1.9-1.26,3.5-2.08,4.87.22.52.5,1.02.82,1.52.4.66.8,1.12.98,1.12s.48-.64,1-2.08c.04-.1.24-.06.22.04-.26,1.88-.32,2.3-.32,2.46,0,.14.02.18.28.5s.32.58.32.78c0,.52-.36.94-.84.94-.76,0-1.7-.68-2.54-1.8-.44-.58-.8-1.2-1.1-1.84-1.24,1.48-2.74,2.62-4.59,3.54-.08.04-.26-.22-.18-.28,1.76-1.28,3.18-2.8,4.23-4.57-.66-1.88-1.12-4.73-1.24-8.53h-3.75v1c0,.82-.02,1.64-.04,2.46h1.32c.58-.68.76-.82.92-.82.2,0,.44.14,1.02.68.24.22.36.38.36.54,0,.14-.1.26-.42.5-.06,2.72-.1,4.29-.36,5.19-.12.42-.38.74-.7.94-.26.16-.62.26-.92.26-.26,0-.36-.06-.38-.36-.06-.78-.3-1.02-1.2-1.24-.1-.02-.04-.3.06-.3.68.06.86.08,1.24.08.36,0,.46-.16.54-1.12.1-1.12.12-2.22.14-3.9h-1.62c-.04,1.84-.08,3.7-.54,5.47-.46,1.68-1.1,2.88-2.38,4.21-.06.08-.26-.04-.22-.12.64-1.22,1-2.44,1.22-3.95.18-1.2.24-1.98.24-5.73,0-2.9-.06-4.17-.14-5.29.84.4,1.1.5,1.98,1.04h3.62ZM66.43,4.08c-.4,0-.52-.12-.7-.84-.18-.7-.42-1.14-.78-1.5-.08-.08-.04-.14.06-.12,1.38.18,2.28.78,2.28,1.56,0,.48-.4.9-.86.9Z"/>
            <path class="cls-9" d="M73.28,18.04c0,.58-.34.8-1.12.8-.56,0-.78-.2-.78-.66,0-1.72.12-3.44.12-10.35,0-2.28-.02-4.57-.1-6.87,1.06.46,1.22.54,2.24,1.16h12.4c.8-.9.96-1.02,1.12-1.02.2,0,.36.12,1.14.8.34.32.46.46.46.62,0,.2-.16.38-.6.64v2.44c0,6.45.14,10.89.14,12.36,0,.6-.34.8-1.18.8-.6,0-.8-.18-.8-.62v-.6h-13.04v.5ZM86.33,2.58h-13.04v14.5h13.04V2.58ZM74.94,14.68c-.1.6-.2.78-.42.78-.24,0-.34-.24-.82-2.22.6,0,1.34-.04,2.12-.12,1.4-.12,2.98-.32,4.23-.56.1-.02.16.2.08.24-1.48.74-1.64.8-5.19,1.88ZM83.05,5.55c.18-.26.34-.46.46-.62-.08-.06-.14-.16-.2-.3-.26-.58-.4-.82-.86-1.3-.06-.08-.02-.2.08-.18,1.36.18,1.96.52,1.96,1.14,0,.1-.02.2-.06.3.18.12.42.32.84.64.34.26.5.44.5.58s-.06.2-.26.2h-3.56c.06,1.72.2,3.06.5,4.39.5-.98.86-2.06,1.12-3.2,1.8.86,1.92.92,1.92,1.1,0,.22-.08.26-.68.38-.46,1.32-1.06,2.48-1.8,3.48.18.4.38.8.6,1.16.22.36.42.58.56.58.3,0,.42-.18,1.3-1.82.04-.08.28,0,.26.1-.48,1.7-.58,2.12-.58,2.34,0,.28.02.38.12.54.14.26.16.3.16.52,0,.48-.3.8-.74.8-.74,0-1.42-.6-2.22-1.86-.2-.34-.4-.68-.56-1.04-1.2,1.2-2.66,2.14-4.43,2.86-.1.04-.22-.18-.14-.24,1.68-1.1,3.02-2.38,4.03-3.88-.14-.44-.28-.92-.4-1.44-.3-1.34-.46-2.88-.52-4.77h-5.01c-.36,0-.72.04-1.2.12l-.22-.74c.54.12.96.16,1.36.16h5.05v-.26c-.02-1.46-.02-1.84-.12-2.22,1.82.22,2.22.32,2.22.58,0,.14-.14.28-.6.46,0,.52,0,1,.02,1.44h1.1ZM76.18,11.31v.3c0,.46-.32.66-.9.66-.5,0-.66-.18-.66-.52,0-.3.06-.7.06-1.9,0-.96-.02-1.94-.1-2.92.86.36.98.42,1.7.86h1.62c.48-.58.64-.7.8-.7.2,0,.36.12.9.52.24.2.36.34.36.5,0,.2-.12.34-.5.6v.4c0,1.06.04,1.9.04,2.14,0,.42-.32.6-.9.6-.4,0-.58-.14-.58-.52v-.02h-1.84ZM78.02,8.25h-1.84v2.6h1.84v-2.6Z"/>
            <path class="cls-9" d="M93.56,15.28c0,1.68.02,2.7.02,2.94,0,.64-.4.86-1.08.86-.58,0-.78-.22-.78-.74,0-1.16.08-4.57.08-10.15,0-4.41-.02-5.59-.08-7.19.96.46,1.1.5,1.96,1.02h1.86c.66-.74.82-.86.98-.86.2,0,.34.12,1.08.84.32.32.44.48.44.64s-.18.32-.62.48c-.76,1.56-1.88,3.38-2.7,4.39,1.16,1.16,1.82,2.12,2.12,3.24.88-.68,1.72-1.5,2.44-2.42-.08.04-.16.06-.26.06-.36,0-.42-.06-.66-.82-.18-.52-.34-.78-.74-1.2-.42.38-.88.76-1.4,1.16-.08.06-.22-.14-.16-.22,1.16-1.4,2.14-3.18,2.72-4.83.22-.64.38-1.24.48-1.82,1.88.5,2.2.64,2.2.84s-.2.32-.64.36c-.2.38-.38.74-.56,1.06h1.48c.48-.5.64-.6.76-.6s.24.08.9.6c.28.22.36.3.36.46,0,.14-.06.2-.36.42-1.06,3.28-3.1,5.59-6.31,7.15-.08.04-.12.06-.18.04.1.44.14.94.14,1.46,0,.8-.28,1.46-.72,1.9-.38.36-.86.56-1.42.56-.26,0-.38-.12-.4-.44-.06-.62-.24-.92-.94-1.22v2.04ZM93.56,12.9c.4.04.7.04.98.04.2,0,.36-.04.48-.12.26-.22.34-.68.34-1.62,0-1.58-.32-2.56-1.14-3.6.76-2.02,1.36-4.13,1.42-5.13h-2.08v10.43ZM100.39,14.84c-1.12,1.52-2.32,2.5-4.27,3.52-.08.04-.22-.16-.14-.22.9-.88,1.74-2.02,2.32-3.1.3-.56.54-1.14.66-1.62,1.62.48,2.26.78,2.26,1,0,.26-.18.34-.82.42ZM104.01,15.36c0,.72.04,1.46.04,2.18,0,.42-.12.78-.36,1.02-.34.34-.86.52-1.6.52-.4,0-.44-.06-.6-.64-.16-.58-.52-.76-1.84-1.12-.1-.02-.1-.26,0-.26.76.06,1.62.12,2.34.12.18,0,.26-.06.26-.22v-4.61h-2.56c-.52,0-1.06.04-1.76.12l-.22-.74c.8.12,1.38.16,1.98.16h6.61c.76-.92,1-1.08,1.14-1.08.18,0,.42.16,1.22.76.36.28.52.44.52.58s-.06.2-.26.2h-4.91v3.02ZM99.69,7.61c0,.08,0,.14-.02.22.4-.54.74-1.1,1.06-1.68-.1.08-.24.14-.4.14-.32,0-.42-.1-.62-.72-.2-.58-.24-.68-.5-1-.42.58-.9,1.12-1.42,1.64,1.26.22,1.9.7,1.9,1.4ZM99.99,3.38c-.2.32-.4.62-.6.94,1.04.22,1.62.64,1.62,1.22v.08c.36-.76.64-1.52.78-2.24h-1.8ZM103.75,9.17c.64-.76.88-.92,1.02-.92.18,0,.42.16,1.02.66.28.24.46.38.46.52s-.06.2-.26.2h-3.82c-.44,0-.88.04-1.48.12l-.22-.74c.66.12,1.14.16,1.64.16h1.64ZM107.18,2.7c.62-.68.78-.8.94-.8.2,0,.36.12,1.06.74.32.3.44.44.44.6,0,.22-.14.32-.76.56-.82,1.14-1.64,1.96-2.62,2.62.98,1.04,2.28,1.88,3.92,2.46.1.04.06.18-.04.22-.58.28-.7.42-.94,1.28-.08.3-.14.38-.28.38-.18,0-.46-.16-.84-.44-1.24-.92-2.22-2.16-2.98-3.5-.68-1.26-1.26-2.9-1.5-4.65-.02-.2-.08-.32-.2-.44-.1-.1-.14-.18-.14-.26s.36-.2.7-.2c.18,0,.28.04.28.12,0,.1-.16.28-.16.44,0,.14.02.32.08.54.24.94.9,2.44,1.46,3.26.1.14.18.26.3.38.6-.94,1.06-1.98,1.28-2.84h-1.06c-.36,0-.72.04-1.2.16l-.22-.78c.56.12,1,.16,1.42.16h1.06ZM108.14,18.02c-.52,0-.76-.26-1.02-1.02-.52-1.56-.98-2.3-2.04-3.28-.08-.06,0-.2.1-.18,2.42.74,3.93,2.04,3.93,3.34,0,.66-.42,1.14-.98,1.14Z"/>
          </g>
          <g>
            <path class="cls-4" d="M22.46,16.15q-2.23.11-2.23,2.15c0,.41,0,.81,0,1.22,0,.34-.01.62-.48.63-.53.02-.53-.3-.53-.67,0-1.07-.02-2.13.01-3.2.02-.51-.18-.8-.62-1.04-2.16-1.16-4.3-2.33-6.44-3.51-.36-.2-.65-.23-1.04,0-2.16,1.21-4.34,2.39-6.53,3.56-.45.24-.63.53-.61,1.04.03,1.06,0,2.13,0,3.2,0,.33,0,.62-.47.64-.52.02-.54-.29-.53-.66,0-.78-.04-1.57.01-2.35.05-.71-.14-1.07-.92-.96-.36.05-.74,0-1.17-.13,1.13-.63,2.26-1.26,3.4-1.88,2.17-1.19,4.36-2.35,6.52-3.56.54-.3.95-.35,1.53-.02,3.03,1.7,6.1,3.35,9.16,5.02.24.13.48.29.91.55Z"/>
            <path class="cls-10" d="M14.51,10.35c-1.34-.15-2.18-1.8-3.78-1.02.13-.9.31-1.76.38-2.62.15-2.01.08-4.01-.49-5.97-.16-.55,0-.71.55-.73,1.63-.07,1.68-.06,2.29,1.42,1.2,2.87,1.56,5.84,1.04,8.91Z"/>
            <path class="cls-2" d="M2.72,4.32c-.2,3.22,1.12,5.61,3.93,7.2-1.93,1.58-4.69,1.44-6.45-.3-.19-.18-.19-.37-.19-.59-.04-1.79,1.38-5.1,2.71-6.31Z"/>
            <path class="cls-2" d="M9.74,8.71c-.95-2.96-2.87-4.84-6.14-5.4,1.08-1.21,2.36-2.01,3.77-2.46C10.03-.02,9.46-.21,10.01,2.33c.41,1.89.32,3.8,0,5.7-.04.25-.04.5-.27.68Z"/>
            <path class="cls-2" d="M18.82,7.38c-.06-1.16.31-2.21.87-3.21.22-.39.39-.49.74-.09,1.6,1.86,2.46,4.02,2.76,6.44.06.49-.1.71-.59.66-.06,0-.13.01-.19,0-.72-.04-1.58.56-2.13.03-.84-.8-1.3-1.89-1.42-3.09-.02-.25-.02-.5-.03-.75Z"/>
            <path class="cls-1" d="M3.62,5.14c-.11-.75.23-.88,1.03-.63,2.24.69,4.14,2.97,4.26,5.23.05.84-.66,1.36-1.46,1.08-2.13-.77-3.85-3.26-3.83-5.67Z"/>
            <path class="cls-1" d="M18.32,4.52c-.19,1.07-.42,1.84-.44,2.65-.03,1.32.3,2.53.94,3.67.17.3.69.71.36.92-.46.29-.99.74-1.72.38-1.76-.87-1.99-1.16-1.79-3.18.17-1.78,1.02-3.19,2.65-4.44Z"/>
            <path class="cls-2" d="M19.27,2.96c-1.5.64-2.64,1.58-3.61,3.04-.38-2.02-.75-3.86-1.72-5.66,2.11.33,3.77,1.27,5.32,2.62Z"/>
            <path class="cls-6" d="M18.99,12.95c1.24-.63,2.46-.69,3.66-.84.41-.05.6.07.52.5,0,.03,0,.06,0,.09-.1,2.3-.26,2.39-2.25,1.3-.6-.33-1.2-.66-1.93-1.06Z"/>
            <path class="cls-5" d="M12.46,18.54c0,.22-.02.44,0,.66.08.69-.1.99-.9.99-.8,0-.86-.37-.82-.97.03-.53.05-1.07,0-1.6-.07-.68.22-.82.86-.84.73-.02.96.24.87.92-.04.28,0,.56,0,.85Z"/>
            <path class="cls-7" d="M3.12,13.57c-.86.47-1.56.85-2.26,1.23-.31.17-.44.05-.51-.27-.18-.72-.31-1.45-.36-2.31,1.01.53,1.95.95,3.12,1.34Z"/>
          </g>
        </g>
        <g>
          <path class="cls-3" d="M165.85,12.54v6.72l-.31.62h6.39l-.32-.62V.93l.32-.63h-20.35l.31.63v18.32l-.31.62h6.38l-.32-.62v-6.72c0-2.15,1.67-4.13,4.13-4.14,2.32,0,4.07,1.9,4.07,4.14h0Z"/>
          <g>
            <path class="cls-9" d="M180.52,2.23h-.06c-.28,0-.58.04-.96.12l-.22-.74c.48.12.84.16,1.2.16h3.56c.74-.88.98-1.04,1.12-1.04.18,0,.4.16,1.16.72.34.28.5.44.5.58s-.06.2-.26.2h-1.12v5.69c0,3.83.04,8.61.04,10.19,0,.58-.36.86-1.02.86-.32,0-.76-.08-.76-.78,0-.44.08-1.78.08-4.41-.7.68-1.76,1.42-2.9,1.98-.06.52-.2.72-.44.72-.28,0-.46-.4-1.04-2.2.36-.06.74-.12,1.12-.18V2.23ZM182.14,5.71h1.64v-3.48h-1.64v3.48ZM182.14,9.32h1.64v-3.16h-1.64v3.16ZM182.14,13.72c.56-.16,1.1-.34,1.64-.56v-3.38h-1.64v3.93ZM187.07,7.72c.9-1.12,1.54-2.14,2.06-3.2.24-.52.46-1.02.64-1.56,1.5.62,1.88.84,1.88,1.06,0,.26-.16.32-.74.32-.86,1.24-1.88,2.38-3.02,3.32.82-.04,1.62-.12,2.42-.24-.1-.46-.24-.8-.48-1.22-.04-.08.04-.16.12-.12,1.28.62,1.96,1.36,1.96,2.14,0,.56-.32.96-.78.96-.42,0-.6-.26-.68-.84-.02-.14-.02-.26-.04-.38-1.06.44-2.52.94-3.4,1.14-.04.36-.16.5-.34.5-.22,0-.3-.24-.74-1.9.3.02.54.02.68.02h.46ZM187.97,1.99c.16-.48.3-.96.38-1.4,1.5.48,2,.72,2,.94,0,.2-.14.28-.72.36-.68.8-1.08,1.22-1.86,1.88.46.34.72.74.72,1.2,0,.52-.3.88-.76.88-.34,0-.5-.16-.68-.7-.32-1.02-.54-1.4-1.04-1.94-.06-.08-.02-.18.08-.16.48.12.9.28,1.24.46.24-.5.46-1.02.64-1.52ZM189.51,13.82c.08-.74.12-1.66.12-2.82,0-.6,0-.82-.04-1.3,2.1.16,2.3.22,2.3.5,0,.2-.14.34-.54.48-.02.7-.04,1.28-.06,1.78-.08,1.7-.22,2.38-.58,3.26-.7,1.6-2.16,2.7-4.25,3.28-.1.02-.18-.14-.1-.2,1.1-.64,1.84-1.36,2.42-2.4.34-.6.56-1.24.68-2.12h-1.28v.46c0,.5-.3.72-.94.72-.46,0-.7-.18-.7-.62,0-.22.06-1.02.06-2.38,0-.7-.02-1.42-.08-2.26,1.7.14,2.12.24,2.12.54,0,.16-.1.26-.46.42v2.66h1.34ZM193.5,2.15c.2-.5.36-1.04.48-1.58,1.52.5,1.98.72,1.98.94s-.14.28-.72.36c-.64.72-1.08,1.12-1.92,1.8.54.34.84.78.84,1.26,0,.52-.3.88-.74.88-.34,0-.52-.18-.68-.68-.26-.86-.6-1.46-1.12-1.92-.08-.06,0-.18.1-.16.44.1.84.22,1.18.38.22-.4.42-.82.6-1.28ZM194.92,4.45c.24-.5.44-1,.64-1.56,1.28.48,1.88.8,1.88,1.06,0,.24-.16.3-.74.3-.72,1.08-2.12,2.58-3.14,3.36.88-.02,1.78-.08,2.66-.18-.14-.52-.32-.9-.58-1.32-.06-.08.02-.16.12-.12,1.38.64,2.16,1.46,2.16,2.3,0,.54-.34.94-.82.94-.42,0-.64-.28-.72-.88-.02-.12-.04-.24-.06-.34-1.12.42-2.4.84-3.21,1.02-.04.34-.14.48-.32.48-.22,0-.34-.3-.76-1.88.3.02.58.02.84.02.9-1.12,1.54-2.14,2.06-3.2ZM194.18,14.28c.02,2.02.06,3.4.06,3.95,0,.52-.32.72-1.04.72-.52,0-.74-.18-.74-.66,0-.52.06-2.08.06-5.21,0-1.96-.02-2.56-.1-3.42,2.08.24,2.28.3,2.28.6,0,.18-.14.34-.54.52v3.04h1.5v-2.32c0-.32-.02-.54-.08-1.36,1.68.14,2.12.24,2.12.54,0,.16-.1.24-.5.42v.6c0,1.6.04,2.8.04,3.16,0,.56-.26.78-.92.78-.48,0-.66-.16-.66-.58v-.78h-1.48Z"/>
            <path class="cls-9" d="M204.15,2.97c-.2,1.74-.66,3.44-1.42,4.99.06.06.14.1.2.16h1.58c.64-.72.8-.84.96-.84.2,0,.36.12.96.66.26.24.38.38.38.54,0,.18-.12.32-.48.54v1.14c0,3.04.08,5.13.08,5.81,0,.58-.32.86-1.04.86-.5,0-.7-.2-.7-.7v-.46h-1.9v1.48c0,.58-.28.82-.98.82-.6,0-.76-.16-.76-.72,0-1.18.1-2.46.1-5.65,0-.26,0-.7.04-1.2-.48.56-.98,1.1-1.56,1.62-.08.06-.26-.1-.2-.18,1.7-2.62,2.58-5.31,2.84-8.87h-.84c-.4,0-.8.04-1.34.12l-.22-.74c.62.12,1.08.16,1.54.16h3.1c.78-1.06,1.02-1.22,1.16-1.22.18,0,.38.16,1.16.86.32.3.48.48.48.62s-.06.2-.26.2h-2.88ZM204.67,8.58h-1.9v6.63h1.9v-6.63ZM211.4,16.93c-1.88,1.24-3.48,1.8-5.93,2.06-.1.02-.2-.2-.1-.24,1.46-.66,2.76-1.5,3.68-2.3.5-.44.86-.86,1.1-1.26,1.64.86,2.2,1.24,2.2,1.52,0,.16-.32.32-.94.22ZM213.7,2.39c-.6,1.04-1.18,1.9-2.06,2.72h3.4c.74-.8.9-.92,1.06-.92.2,0,.38.12,1.14.72.34.26.46.4.46.56,0,.24-.16.4-.6.64v1.38c0,3.68.08,6.19.08,7.03,0,.66-.34.92-1.16.92-.58,0-.78-.22-.78-.8h-5.31c-.04.52-.36.78-1.02.78s-.92-.18-.92-.66c0-.86.1-1.94.1-7.05,0-1.38-.02-2.18-.12-3.58,1,.4,1.16.46,2.12.98h.84c.26-.9.44-1.8.52-2.72h-2.48c-.42,0-.82.04-1.38.12l-.22-.74c.62.12,1.08.16,1.54.16h6.07c1-1.12,1.24-1.28,1.38-1.28.18,0,.4.16,1.34.9.42.34.58.5.58.64s-.06.2-.26.2h-4.31ZM215.24,5.57h-5.31v2.44h5.31v-2.44ZM215.24,8.46h-5.31v2.48h5.31v-2.48ZM215.24,11.4h-5.31v2.78h5.31v-2.78ZM216.98,18.93c-.52,0-.56-.04-1.3-1.1-.7-1-1.3-1.5-2.52-2.14-.08-.04-.02-.24.08-.22,3.28.42,4.73,1.16,4.73,2.38,0,.62-.44,1.08-1,1.08Z"/>
            <path class="cls-9" d="M223.19,10.34c-.78.6-1.62,1.16-2.54,1.64-.08.04-.26-.16-.18-.24,1.4-1.3,2.7-2.92,3.62-4.43.48-.82.86-1.6,1.06-2.26,2.02.96,2.3,1.12,2.3,1.38,0,.3-.24.42-.84.42-.6.76-1.2,1.46-1.82,2.08.62.12.72.2.72.38s-.12.3-.54.48v8.39c0,.58-.34.84-1.04.84-.46,0-.86-.18-.86-.76,0-.52.12-2.1.12-5.25v-2.66ZM226.29,2.31c-1.56,2-3.44,3.48-5.55,4.39-.1.04-.22-.16-.14-.22,1.14-1.02,2.34-2.46,3.18-3.76.54-.84.94-1.62,1.1-2.22,1.76.8,2.36,1.18,2.36,1.46,0,.22-.18.34-.94.34ZM234.88,12.42c0,1.46.06,2.92.06,4.37,0,.6-.18,1.08-.5,1.4-.42.4-1.06.62-1.86.62-.4,0-.42-.02-.5-.46-.14-.8-.66-1.06-2.56-1.52-.1-.02-.08-.32.02-.32.92.06,2.22.14,2.96.14.36,0,.44-.1.44-.42V7.74h-4.35c-.38,0-.76.04-1.28.12l-.22-.74c.6.12,1.04.16,1.5.16h6.97c1-1.14,1.24-1.3,1.38-1.3.18,0,.4.16,1.34.9.42.34.58.52.58.66s-.06.2-.26.2h-3.71v4.67ZM234.52,2.47c1-1.12,1.24-1.28,1.38-1.28.18,0,.4.16,1.36.9.42.34.58.5.58.64s-.06.2-.26.2h-8.23c-.4,0-.78.04-1.3.12l-.22-.74c.6.12,1.06.16,1.52.16h5.17Z"/>
            <path class="cls-9" d="M245.63,2.21c2,.72,2.96,1.54,2.96,2.5,0,.54-.38.96-.86.96-.42,0-.5-.1-.88-1-.46-1.12-.78-1.68-1.36-2.2-.82,1.4-1.82,2.7-3.02,3.77.28.08.52.1.76.1h2.24c.54-.72.78-.88.92-.88.18,0,.4.16,1.02.62.26.22.42.38.42.52s-.06.2-.26.2h-1.9v2.8h.68c.6-.8.84-.96.98-.96.18,0,.4.16,1.02.68.26.22.42.4.42.54s-.06.2-.26.2h-2.84v6.03c1.02-.14,2.04-.3,2.88-.48.1-.02.14.22.06.26-1.44.74-4.01,1.7-6.21,2.3-.06.48-.2.68-.42.68-.26,0-.36-.26-.98-2.38.84,0,1.36-.04,1.98-.08.32-.04.66-.06,1-.1v-6.23h-1.6c-.34,0-.66.04-1.1.12l-.22-.74c.5.12.88.16,1.26.16h1.66v-2.8h-.64c-.28,0-.54.04-.9.12l-.16-.5c-.48.4-.98.76-1.46,1.04-.08.04-.22-.12-.16-.2,1.12-1.28,2.1-2.84,2.76-4.31.36-.8.62-1.58.74-2.28,1.74.5,2.3.74,2.3,1.02,0,.24-.2.36-.74.38l-.08.14ZM242.73,15.31c-.44,0-.64-.26-.68-.92-.1-1.66-.16-1.96-.52-2.9-.04-.1.08-.2.16-.14,1.3,1.18,1.84,2.04,1.84,2.92,0,.6-.34,1.04-.8,1.04ZM248.17,12.3c-.64,1.52-1.08,2.2-1.84,3.22-.06.08-.24,0-.22-.1.22-.94.4-1.82.52-2.7.08-.58.14-1.16.18-1.72,1.52.48,1.94.7,1.94.96,0,.2-.18.3-.58.34ZM251.26,13.58c.02,2.26.02,3.52.02,4.71,0,.54-.22.78-.96.78-.52,0-.84-.22-.84-.62,0-1.36.12-2.72.12-8.19,0-1.24,0-2.48-.08-4.15-.48.48-1,.9-1.54,1.28-.08.06-.26-.08-.2-.16.66-.88,1.34-2.14,1.82-3.34.26-.68.48-1.36.58-1.92,1.76.72,2.14.92,2.14,1.16,0,.2-.16.28-.7.36-.52.84-1.1,1.6-1.76,2.28.52.28,1.04.58,1.56.9h1.38V2.51c0-.9-.02-1.32-.1-1.88,2.24.22,2.5.44,2.5.64,0,.22-.2.38-.64.48v4.91h1.4c.56-.64.72-.76.88-.76.2,0,.38.12,1.04.64.3.24.42.38.42.54,0,.2-.08.28-.48.54v1.54c0,6.93.04,7.51.04,7.81,0,.7-.12,1.18-.4,1.52-.28.34-.74.5-1.4.5-.48,0-.52-.12-.58-.66-.06-.56-.7-.88-1.92-1.24-.1-.02-.1-.26,0-.24.98.1,1.76.16,2.2.16.3,0,.36-.06.36-.26v-3.18h-4.85ZM256.12,7.12h-4.85v2.72h4.85v-2.72ZM251.26,13.12h4.85v-2.82h-4.85v2.82ZM258.49,6.47c-.34,0-.6-.22-.78-.7-.58-1.52-1.34-2.7-2.24-3.36-.08-.06-.02-.22.08-.2,2.44.68,3.77,1.8,3.77,3.14,0,.66-.32,1.12-.84,1.12Z"/>
          </g>
        </g>
      </g>
      <g>
        <rect class="cls-8" x="119.39" y="9.82" width="23.37" height=".55" transform="translate(31.25 95.64) rotate(-45)"/>
        <rect class="cls-8" x="130.8" y="-1.59" width=".55" height="23.37" transform="translate(31.26 95.64) rotate(-45)"/>
      </g>
    </g>
  </g>
</svg>