<?xml version="1.0" encoding="UTF-8"?>
<svg id="_圖層_2" data-name="圖層 2" xmlns="http://www.w3.org/2000/svg" viewBox="0 0 73.68 10.85">
  <defs>
    <style>
      .cls-1 {
        fill: #fff;
      }
    </style>
  </defs>
  <g id="_圖層_1-2" data-name="圖層 1">
    <g>
      <g>
        <g>
          <path class="cls-1" d="m10.07,7.78s-.02-.07-.03-.1c0-.01,0-.03-.02-.04h0s0-.04-.01-.06c0-.02,0-.04,0-.06,0,0,0-.02.01-.03,0,0,0,.02,0,.02,0,0,0,0,0,0,0,0,0-.01,0-.02,0-.01,0-.02,0-.03,0,0,.02,0,.03,0t0,.04v-.04s0,0,0,0h0s.02.01.02.02c0,0,0,0,0,0,.01-.07,0-.13,0-.2,0-.05,0-.1-.02-.14,0,.03,0,.06-.01.1,0-.04,0-.06-.01-.08,0,.01-.02.02-.02.02-.06.05-.11.1-.16.15-.01.02-.03.03-.04.06-.01.05-.04.1-.05.16,0,.03-.02.06-.05.07-.06.03-.09.07-.12.12-.02.04-.05.06-.1.07-.02,0-.03,0-.05.02-.03.01-.06.03-.09.01-.01,0-.03,0-.05.02-.02.02-.04.04-.07.03,0,.02,0,.05,0,.06,0,.02,0,.03,0,.05-.02,0-.04.01-.07.02,0,.03-.02.04-.03.07-.01.05-.05.08-.09.09-.01,0-.03.01-.05.01-.02-.01-.03.01-.05.02-.02,0-.03-.02-.05-.03,0,0-.02,0-.03,0-.03.02-.05,0-.08,0-.03-.02-.06-.03-.1-.03-.01,0-.03-.02-.04-.02-.01,0-.03.01-.05.02-.02-.03-.04-.07-.06-.1,0,0-.01,0-.03,0-.02,0-.03-.02-.04-.03,0,0-.02-.02-.03-.03-.02-.01-.03-.03-.04-.04,0-.02-.03-.03-.03-.05,0-.01-.02-.03-.03-.04.02-.02.02-.05.02-.08-.02-.02-.04-.04-.06-.06-.01-.02-.01-.04,0-.04.02,0,.04-.02.06-.02t-.03-.03s0-.02,0-.02c0-.02.02-.04,0-.07,0-.02,0-.04,0-.06,0-.01.01-.03.03-.05,0-.02,0-.03,0-.05.01-.03.03-.06.04-.08.02,0,.04,0,.04,0,.02-.03.07-.03.07-.07,0-.02.02-.02.03-.03.01-.01.03-.02.04-.03.02-.01.04,0,.07-.01,0-.03.03-.05.06-.06.03,0,.04-.04.06-.06.01,0,.03,0,.04,0,0,0,0,0,0-.01.01-.05.05-.06.08-.08.02-.01.05-.02.06-.05,0,0,.01-.01.02-.02.04-.03.08-.07.12-.11.02-.02.05-.05.07-.07,0,0,.01,0,.02-.01.06-.06.11-.11.16-.17,0-.01.02-.02.03-.03.04-.05.09-.08.12-.13.01-.01.03-.03.05-.04.04-.03.07-.06.11-.1.01-.01.03-.02.04-.04.05-.05.11-.08.13-.16,0,0,0-.01.01-.02,0-.01.01-.03,0-.05,0-.03,0-.06,0-.08,0-.09,0-.18,0-.27v-.14s0-.06-.02-.1c0,0-.02,0-.03,0-.02,0-.03.01-.06,0-.01,0-.04,0-.05.02-.01.02-.03.03-.06.04-.02,0-.04.01-.06,0-.03-.01-.06-.01-.09-.01-.03,0-.06,0-.09,0-.04,0-.08,0-.12-.01h-.05s-.02,0-.03,0c-.03-.02-.06-.02-.08-.01-.02,0-.05,0-.06,0-.02,0-.04.01-.06.01,0-.01-.02-.03-.05-.03h-.02s-.01-.02-.01-.02c-.03-.01-.06,0-.07-.04,0-.02-.04-.02-.06-.04,0-.01,0-.04,0-.06,0,0-.02,0-.03-.02-.01,0-.03-.01-.03-.03,0-.02-.02-.04-.05-.04-.03-.01-.03-.02-.01-.06-.01,0-.03-.03-.04-.04,0-.01-.01-.03-.03-.04.02-.04.06-.07.09-.11-.02-.03-.01-.06-.02-.1,0,0,0-.01.01-.01.03,0,.04-.03.04-.06,0-.03.01-.05.05-.06.02,0,.04-.02.06-.04,0-.02.01-.05.02-.08.01,0,.02,0,.03,0,.03.03.06.02.09,0,.03-.02.06,0,.09,0,0,0,.01-.02.01-.03.04,0,.07,0,.11,0,.03,0,.05,0,.07-.03,0,0,0,0,0,0,.03,0,.04-.03.06-.05.01-.02.02-.03.05-.03,0,0,.02,0,.03-.02,0-.01.02-.03.04-.03.02,0,.03-.01.04-.02,0-.02.03-.03.05-.02.04,0,.05,0,.06-.04,0-.02,0-.03.01-.05,0,0,.01,0,.02.01.01,0,.02-.02.04-.03.02,0,.03,0,.03,0,.03-.02.04-.04.06-.05.03-.02.04-.05.07-.06,0,0,0-.01,0-.02,0-.03.02-.04.04-.06.01-.02.02-.04,0-.06,0,0,.01-.01.02-.02,0,0,0-.01,0-.01,0-.01,0-.02,0-.02,0-.03,0-.05,0-.07,0,0,0-.02,0-.02.02-.02.02-.04.01-.07,0,0,0-.02,0-.03,0-.02,0-.05,0-.06,0,0,0-.02,0-.02.01-.02,0-.04,0-.05,0-.03,0-.06,0-.09,0-.03-.02-.06-.02-.09,0-.02,0-.05,0-.06-.01-.03,0-.05,0-.07,0-.02,0-.05,0-.06,0-.03-.01-.05-.02-.09.02-.02.02-.04,0-.07-.01-.03,0-.06,0-.09,0-.01,0-.03,0-.04,0,0,0-.02,0-.02-.02-.02,0-.04,0-.06,0-.03.02-.04.03-.05,0-.01,0-.02,0-.02-.03-.02-.02-.06-.02-.08,0-.02,0-.04.01-.07.01,0,.03,0,.05-.01,0-.01,0-.02,0-.04,0-.02,0-.05.03-.05.02-.02.03-.04.04-.07,0-.01-.01-.03-.02-.03v-.02s.02-.04.03-.06c.02-.02.02-.05.01-.07,0-.03-.01-.05,0-.07.01-.02,0-.03,0-.05.02-.02.05-.04.07-.05.01-.01.02-.02.04-.02.02,0,.05-.03.07-.02h.02s.03-.03.04-.03c.01,0,.03,0,.04,0,.03.01.04.03.06.04.03,0,.03-.03.03-.05.03,0,.05,0,.07,0s.03.01.04.03c0,.02,0,.03.02.05.02.02.04.06.07.07.03,0,.06.03.07.05,0,.03.03.05.05.08.02.01.03.02.02.05,0,.02,0,.05.03.06.02,0,.03.02.03.04-.02,0-.03.02-.06.03-.01,0-.03.02-.04.04,0,.04-.03.07-.05.11.02.02.03.04.05.07,0,.01.02.03.02.05,0,.01,0,.02-.02.03,0,0,0,.02.02.03.01.02.02.04.01.08,0,.02,0,.03,0,.05.01,0,.02.02.02.04,0,0,0,.02.02.02.04,0,.06.04.09.07,0,0,.01,0,.02.02,0,.04,0,.09,0,.13,0,.03,0,.06-.02.08-.02.02-.03.05-.02.08,0,.04,0,.08,0,.12-.01.02,0,.03.01.04.04.03.08.04.13.05.04.02.09.03.13.05.03.01.06.03.06.07.03.03.04.06.06.09,0,.01,0,.03.01.04-.01.03-.03.04-.05.05-.02.02-.04.04-.07.06.04.03.09.02.13.04v.05s0,0,.01,0c.02,0,.03.01.02.02-.02.03-.03.05-.07.06-.02,0-.02.03-.04.01-.02.02-.03.04-.05.07,0,0-.01,0-.02,0-.02,0-.04.01-.04.03.01.06-.02.1-.05.14-.02.04-.05.07-.06.11-.03.03-.04.06-.06.09,0,.01-.03.03-.05.04-.06.04-.08.07-.07.16v.02s0,.05-.02.08c0,0,0,.01-.01.01,0,.06,0,.13,0,.2,0,.05,0,.11,0,.16,0,.02,0,.04,0,.06,0,.02,0,.05,0,.07.04-.02.07-.04.09-.08,0-.02.02-.04.04-.06h.03s.05,0,.06-.02c.09-.06.17-.11.25-.17.02-.01.03-.02.06-.02.02,0,.05-.02.07-.03t.04.09s0,0,.01,0c.06-.02.12-.03.17-.08.02-.03.06-.05.08-.09,0-.02.03-.03.03-.06,0,0,0,0,0-.01.05-.05.08-.11.14-.14,0,0,.02-.01.03-.01,0,0,.02,0,.03,0,.02-.03.04-.06.06-.09,0,0,0-.02,0-.02,0-.04.02-.07.03-.1,0,0,0-.01,0-.02.02,0,0,.02.02.02,0,0,.01.01.03.02,0,0,.02,0,.03.01,0-.01.02-.02.02-.02,0-.02.02-.04.04-.05.04-.02.08-.05.09-.09,0-.05.02-.07.05-.09.02-.03.06-.06.08-.09,0-.02.02-.03,0-.05-.01-.03,0-.06,0-.09,0,0,.01-.02.02-.03-.02,0-.05-.02-.08-.03-.02,0-.04.02-.07.03-.04-.01-.06-.04-.06-.08,0-.03-.01-.07-.04-.09-.01,0-.02-.03-.03-.04v-.06s0-.08,0-.13c0,0,0-.01,0-.03,0-.05-.02-.09,0-.14,0-.02-.02-.03-.01-.05.01-.01,0-.04,0-.06,0-.02,0-.03,0-.05,0-.04,0-.07-.02-.11,0,0,0-.01,0-.02.03-.04,0-.09,0-.13,0-.04,0-.09,0-.13,0-.04,0-.09.02-.14,0-.01,0-.03,0-.04,0-.02-.01-.03-.02-.04.01-.02.02-.04.03-.06.01-.03.02-.06,0-.09,0,0,0,0,0-.01,0,0,0-.01,0-.01,0-.02.01-.04.02-.06,0-.01,0-.03,0-.05-.02-.04,0-.07-.02-.11,0,0,0-.02,0-.02,0-.02.02-.05.03-.07,0-.01-.01-.03-.02-.05-.02,0-.05,0-.06-.04,0-.02.01-.03.02-.06,0-.01-.01-.02-.02-.03.01-.03,0-.07,0-.1,0-.03,0-.05.03-.07.03,0,.04-.02.06-.04,0,.01,0,.03,0,.04,0,.01.02.01.03,0,0,0,0-.02,0-.03.01,0,.02-.02.04-.03.05-.02.07-.05.12-.08.01-.01.02-.03.03-.05,0,0,.02,0,.03,0,.04,0,.07,0,.1-.03.06-.04.13-.06.21-.02.02,0,.03.01.06.02.04.02.08.05.11.1.05.11.1.21.16.31.01.02.01.05.02.08,0,.05,0,.11.01.16,0,.04,0,.08-.02.12-.01.05-.01.1,0,.14.02.01.05.01.07-.01.04-.03.08-.04.13-.04.04,0,.09-.02.13-.03,0-.04,0-.08.01-.12,0-.02,0-.03,0-.05,0-.02.01-.03.01-.05,0-.07,0-.13,0-.2,0-.06-.01-.11-.01-.16,0-.05,0-.11,0-.15,0-.03,0-.05-.02-.08,0,0,0-.02,0-.03,0-.02,0-.04-.01-.05-.02-.03-.03-.04-.06-.02,0,0-.02.02-.03.02-.06,0-.13.02-.18.05-.06.03-.12.03-.19.03h-.01s-.05-.03-.07-.04c-.02-.01-.03-.03-.04-.05,0-.02-.01-.05,0-.07,0,0,0-.03,0-.04-.02-.03-.01-.08-.03-.11t.01-.01.13-.08s.09-.03.11-.05c.01-.01.03-.02.05-.02.05-.03.11-.06.17-.09.02-.01.05-.01.07-.04.02-.02.06-.02.08-.04.02-.01.04-.02.06-.02.01,0,.03,0,.04.02.01.01.03.02.05.02h0s.08.02.12.02c.03,0,.05.01.07.02.03,0,.06.01.09.02.06.01.12.03.17.06.02.02.04.04.06.07,0,.03.02.05.03.08,0,.02.01.03.02.05,0,.01,0,.04.02.04,0,0,0,.02,0,.03,0,0,.01,0,.02.02,0,0,0,.02,0,.02-.02.06,0,.11,0,.16,0,.02,0,.04,0,.06,0,.04-.02.06,0,.1-.01.03-.02.06-.04.09-.03.05-.04.1-.02.16,0,.02,0,.05-.01.06-.04.03-.04.07-.05.11,0,.04,0,.07-.01.1,0,.02,0,.04-.01.06,0,.02-.01.04-.01.05,0,0,0,.01,0,.02-.04.09-.02.18-.05.28v.02s.01.03.01.04c0,.05,0,.11,0,.16,0,.03,0,.05-.02.08,0,.03,0,.06,0,.08,0,.06,0,.11-.03.18,0,.01,0,.03,0,.04.01.03,0,.06,0,.08,0,.04-.01.07-.02.1,0,.02,0,.04,0,.07,0,.01,0,.04,0,.06,0,.03,0,.05,0,.07.01.02-.01,0-.01.01,0,.04,0,.09,0,.13,0,.02,0,.04.01.06-.01.04-.02.07-.02.11,0,.05,0,.06-.03.11,0,.01.02.02.03.04v.03s0,.01,0,.01c.02,0,.04,0,.06,0,.04-.01.08-.02.12-.03.05-.02.1-.03.14-.05.04-.02.08-.03.12-.04.07-.01.14-.03.21-.05.04-.01.07-.02.12-.02.01.02.03.03.05.04.03-.02.06-.03.07-.04.02-.01.04-.02.06-.03.01,0,.03-.02.04-.04.02-.03.04-.06.06-.08.03,0,.03.03.03.04,0,.05.04.07.05.11,0,.01.01.02.03.02.06.04.1.1.13.17,0,.01.01.02.02.03,0,.02.01.04.01.06,0,.03,0,.06,0,.09,0,.05,0,.09-.03.13-.04.04-.08.08-.13.1-.01-.01-.02-.02-.03-.03,0-.01,0-.02,0-.02.04-.04.05-.11.02-.15-.02-.03-.04-.06-.06-.1,0,0-.01,0-.02-.01-.02,0,0,.02,0,.03,0,.03,0,.05-.01.08-.01.02-.02.05-.04.07,0,.01-.02.03-.03.04,0,0-.01.02-.01.03,0,.02-.02.04-.04.06-.01.02-.03.03-.05.05-.07.06-.13.14-.2.22-.02.02-.05.04-.08.05-.03,0-.05.01-.07.03-.1.06-.2.12-.29.19-.02.02-.04.03-.05.04,0,0-.01.01-.01.01-.05,0-.07.04-.11.05,0,0-.01.01-.01.03,0,.02-.03.03-.03.05-.02,0-.04.01-.06.01h0s.02.03.03.05c.02,0,.04,0,.06,0,.01-.01.04-.02.06-.01.03,0,.06,0,.09-.02,0,0,.02-.01.04-.01.1,0,.2-.02.3-.05h.03c.07-.01.13-.02.2-.02.04,0,.08,0,.12,0,.04,0,.07,0,.11,0,.06,0,.12.01.18.02h0s.08.01.12,0c.02,0,.06,0,.08.01.08.01.16.04.24.07.02,0,.04.02.06.05,0,.02.02.03.02.05.01.04.04.06.08.06.03,0,.06.02.1.03.01.01,0,.02,0,.04.03.01.04.05.07.06,0,0,0,.03,0,.04-.02,0-.02.02,0,.04,0,0-.01.01-.02.02.01,0,.02.01.02.01.03,0,.05,0,.06.03,0,.01.02.03.03.03.02.02.05.05.06.09,0,.02.01.03.03.04.04.03.07.07.11.1.03.03.05.05.08.08.05.03.07.08.09.13,0,0,.02.02.02.02.03.04.03.09.05.12,0,0,0,.02,0,.03,0,.01,0,.02-.02.03,0,.03,0,.06.01.1-.02-.01-.03-.01-.05-.02,0,.01,0,.02,0,.03v.02s0,.03-.02.05c-.03-.03-.03-.07-.04-.11-.03,0-.05-.03-.08-.01-.01-.02-.03,0-.05,0,0,0,0-.01,0-.01,0,0,0-.02,0-.02-.04,0-.07.02-.1.05-.05.06-.07.13-.06.21,0,.03,0,.06.02.07h0s-.02.02,0,.05c.02-.03.04-.05.06-.07.02-.03.04-.05.08-.07,0,0,.02-.02.03-.03,0,0,0-.02.02-.02.02.06.02.12.02.19,0,0,.02-.01.02-.01.04-.02.04-.02.06.03-.03.05-.06.09-.08.14,0,0,0,.03,0,.03,0,.02,0,.03-.01.03,0,0-.01.01,0,.02,0,.01,0,.03-.01.03,0,0-.01.01-.02.02-.02.06-.05.11-.06.17,0,0-.01.02-.01.03-.03.06-.06.12-.07.18h0s0,.02,0,.02c0,0,.01.01.02.01,0,.03,0,.04-.04.04-.02,0-.03.02-.04.04-.01.04-.03.08-.07.11-.02,0-.02.03-.03.05-.01.03-.02.05-.05.07h0s-.01.06-.03.08c-.03.03-.05.07-.07.11h0s0,.06,0,.09c0,0,.03-.02.04-.03,0,.01.01.03.02.04t-.08.01s-.01.02-.03.02c-.03,0-.04.03-.05.05-.03.06-.06.12-.11.17,0,.02-.02.04-.03.07-.04.06-.07.12-.11.18-.03.05-.06.1-.1.14,0,0,0,0,0,0-.03.07-.08.12-.12.18-.01.01-.02.02-.04.02-.02.01-.04.02-.04.05,0,.01,0,.02-.01.03-.03.02-.04.05-.06.08-.02.03-.06.06-.08.09,0,.02-.03.02-.04.02,0,.01,0,.03,0,.05h0s.07-.02.09-.06v-.02s0-.02.01-.03c0,0,0,0,.02.02.02-.02.03-.03.05-.04,0,.01,0,.02,0,.03-.01.02-.01.03,0,.05-.03.04-.06.09-.1.12h0s0-.01-.01-.02h0s.01.01.01.01h0s0,.02,0,.02c-.01.01-.03.03-.04.05,0,.01,0,.02-.02.02-.05.03-.08.08-.13.11-.02.01-.03.04-.06.03h-.01s-.05.05-.06.08c-.03,0-.05,0-.07,0-.03,0-.04.01-.02.05,0,0,0,0,0,0-.01.01-.04.02-.06.04-.01,0-.02.01-.04.02,0,0,0,.02,0,.03-.05.02-.08.08-.13.09,0,0,0,.02-.02.02-.02.01-.03.03-.05.04,0,0,0-.02,0-.03,0,0-.02,0-.02.02h.03s0,.05-.04.05c-.02,0-.04.01-.05.02-.02.02-.05.04-.07.06,0,0-.01.01-.02.01-.04,0-.06.03-.09.05-.03.02-.06.04-.1.04-.02,0-.03,0-.04-.02v-.04s-.03,0-.06-.01c-.03,0-.06,0-.07.03-.02.02-.04.02-.05,0,0-.03-.04-.05-.03-.09,0-.02,0-.04-.03-.04-.01,0-.03,0-.05-.02,0,.02,0,.03,0,.05-.03-.03-.05-.06-.03-.11,0,0,.01,0,.01,0,.02.03.04.04.07.04.03-.08,0-.12-.03-.14,0-.02.02-.02.04-.02.04,0,.05,0,.03-.04,0-.02-.01-.04-.03-.05-.02-.01-.04-.02-.04-.04.02-.01.03.01.05.02h.06s-.06-.06-.09-.1c0-.02,0-.04,0-.06,0-.03.03-.05.05-.03.02.02.06.02.08.04,0,0,.02,0,.03,0,.02-.02.05-.04.05-.08-.02,0-.05,0-.08-.01.02-.01.05-.01.06-.04,0-.01.01-.01.01-.03.02-.02.03-.04.04-.06.01-.01.02-.02.04-.02.01,0,.02,0,.02,0,0-.02.02-.01.03-.01.02,0,.05,0,.06.02.02-.04.02-.09.06-.1.03,0,.03.04.03.08.01,0,.02,0,.03-.02,0-.02.03-.02.05-.02.01.01.03.02.05.01,0-.02,0-.04.01-.07-.01,0-.02.01-.02.01,0-.02-.01-.02-.03-.02-.02,0-.02,0-.03.02,0,0,0,.02-.01.02-.01,0-.02-.01-.02-.02,0-.01,0-.02,0-.03.04-.06.08-.1.13-.15.03-.03.07-.06.11-.07.01,0,.03-.02.04-.03.04-.03.07-.03.11,0h0s0,0,0,0c.01-.01.03-.03.04-.05.02.02.04.02.06.02.03-.01.05-.03.07-.05,0-.02-.02-.04,0-.06.01-.02.01-.04.02-.06h0s-.02,0-.03,0c-.01-.01,0-.02,0-.04.01,0,.03-.02.04-.03.04-.07.11-.13.15-.21,0-.01,0-.02.02-.02.04-.03.06-.08.08-.12.03-.05.05-.09.09-.12,0,0,.01-.02.02-.03.04-.06.08-.12.12-.18,0,0,0-.02.01-.02.02-.06.06-.11.09-.15.02-.03.03-.06.05-.08,0-.02,0-.03.01-.03.03-.03.04-.07.06-.11,0,0,0-.03,0-.04.05-.09.07-.18.1-.28.02-.09.05-.19.07-.29.03-.1.06-.22.07-.33,0-.05,0-.1,0-.16,0-.03,0-.06,0-.09v-.04c0-.06,0-.12,0-.17,0-.03,0-.07-.01-.1,0-.02-.02-.05,0-.06,0,0,0-.03,0-.04q0-.05.02-.1s-.02-.04-.04-.06c-.04-.07-.08-.12-.16-.15-.07-.02-.13-.06-.2-.07-.01,0-.03,0-.04-.02-.02-.02-.05,0-.08-.02-.02-.02-.05-.03-.07-.04-.03,0-.07-.01-.11-.02-.09,0-.18-.01-.26,0-.06,0-.11,0-.17-.01-.02,0-.05,0-.08,0-.04,0-.08,0-.12.02-.02,0-.05.02-.07.03-.03.01-.06.02-.08.03-.08.03-.17.05-.25.07,0,0-.02.01-.03,0-.05,0-.08.01-.12.04-.01,0-.03,0-.05.01-.02,0-.05,0-.07.02-.02,0-.04.02-.06.03-.02,0-.03.02-.04.03-.02.04-.06.05-.08.07-.03.02-.06.03-.1.03,0,0-.02,0-.03,0-.01.02-.02,0-.03,0h-.01s0,.03-.03.01c-.03.01-.06,0-.1,0-.03,0-.07.02-.11,0-.02,0-.04,0-.06.01-.03.02-.07.03-.09.07,0,0-.01,0-.02.01-.04.01-.08.03-.11.06,0,.01-.02.02-.04.02-.04.03-.09.06-.13.09-.04.02-.08.05-.12.08,0,0-.02.01-.03.02,0,.01,0,.02,0,.03h0s-.06,0-.08.03c-.07.03-.13.08-.18.13-.04.03-.08.06-.12.09-.03.03-.06.05-.1.07-.02,0-.05-.03-.07.02h.04s0,.02,0,.02c-.01.01-.03.02-.06.04,0,0-.02.02-.03.02-.03,0-.05.01-.05.04-.04,0-.08,0-.12.03-.02.01-.04.01-.06,0,0,.01-.02.03-.04.04,0,0,.02.01.03.02-.02,0-.03.02-.05.03,0,0-.02.02-.01.03,0,0,0,.02-.01.03,0,0-.04,0-.04.03,0,0,.01,0,.02,0,0,0,.01,0,.03.01-.02.01-.04.02-.05.03-.03-.03-.05-.03-.09,0,0,.01,0,.03,0,.05,0,0,.01,0,.02,0,0,0-.01.02-.01.03,0,0,0,.02,0,.03h0s-.03.02-.03.03c-.01.03-.04.04-.07.05,0,.02-.01.04-.02.06-.06,0-.11-.04-.15-.09,0-.07-.04-.13-.02-.2h0s.03-.02.02-.04c0-.01,0-.02,0-.04.04-.03.07-.06.12-.08.01-.01.03-.02.04-.04.02-.04.05-.07.06-.12,0-.04.03-.08.06-.11,0-.02,0-.02-.01-.03.04-.07.08-.15.13-.22,0,0,0-.02,0-.02.04,0,.05-.04.07-.06,0-.01-.01-.02-.02-.03,0-.01.02-.02.02-.03.01-.03.06-.02.07-.05,0-.03.04-.03.06-.05.01.02.03.03.05.04.02,0,.02,0,.04-.02,0,0,0,0,.01,0,0,0,0,0,0,0,0,0,0,0,0,0,0,0-.01,0-.01-.02.02,0,.04-.02.06-.02.03.02.06.03.09.03.02,0,.05.02.06.04-.02.03-.03.04-.06.04-.02,0-.04,0-.06.02,0,0-.02,0-.03,0,0,0-.02,0-.02.02.01.02.02.03.04.06-.03,0-.05.01-.07,0-.06-.03-.11-.01-.17,0-.01,0-.02,0-.03.01v.03s-.02-.03-.04.01c.02,0,.03-.01.04-.01,0-.02.01-.03.03-.02,0,.04-.05.03-.05.07,0,.02.01.03.02.04v.04s-.05.04-.08.05v.05s-.02.01-.01.04c0,0,.02,0,.03-.02,0,0,0-.02.02-.02.04,0,.06-.05.1-.05,0,0,.01,0,.01,0,.03-.04.06-.05.11-.07,0,0,0,0,.02-.02.02-.02.03-.06.06-.06h0c.01-.05.07-.06.08-.1h0s.08-.03.11-.05c.02-.02.03-.03.06-.04.08-.03.15-.09.23-.14,0,0,.02,0,.02-.02.02-.03.06-.05.08-.06,0,0,0,0,0-.02h-.12s.02-.02.02-.02c.03-.01.07-.02.11-.02.05,0,.11,0,.15-.05,0,0,0,0,0,0,.07-.03.11-.08.17-.11h0s-.04,0-.05,0v-.02s.05-.02.08-.02c.01,0,.03,0,.03,0,.03-.01.05-.03.07-.05,0,0,.03-.02.02-.04.01-.01.02-.03.04-.04.02,0,.02,0,.03.02.04-.02.08-.03.09-.09.01-.02.02-.03.01-.06,0-.01,0-.02.01-.02,0,.03,0,.06,0,.09.03.01.05,0,.06-.02,0-.02.01-.04.03-.05.06-.04.12-.09.19-.11.01,0,.02-.01.02-.01.03-.03.06-.04.08-.08.03.02.05,0,.07-.01.01-.01.02-.02.03-.03.04-.05.08-.09.14-.11.01,0,.03-.01.04-.03,0,0,.01-.02.02-.04,0-.01,0-.03-.01-.04h0s.04-.04.06-.05c.02-.02.04-.01.06,0h-.01.01s.02,0,.02,0v.02s.02,0,.02,0c.04,0,.05-.04.07-.06.08-.08.17-.14.26-.2.05-.03.09-.05.14-.06.06-.01.11-.03.16-.06.02-.01.04-.03.06-.04.03,0,.05-.03.07-.05,0,0,.01,0,.02,0,.02,0,.04,0,.06-.03,0-.02,0-.04-.02-.05-.04-.01-.06-.04-.1-.04-.03,0-.05-.02-.06-.05,0,0-.01-.02-.02-.03,0,.03-.01.04-.04.05,0,0-.02,0-.04,0-.01.02-.03.04-.03.06t0,.07s-.02.02-.03.03t-.08,0c-.03.05-.04.06-.08.05,0,0-.01,0-.02,0-.02-.01-.05-.01-.06.02-.01.02-.03.04-.06.04,0,0-.01,0-.02,0-.01-.02-.03-.04-.05-.03,0,0-.02,0-.03.02.02.02.04.03.06.04-.07,0-.12-.03-.18,0-.03.05-.06.09-.09.13h0s-.04,0-.06.01c-.02.01-.03.03-.06.03-.03-.02-.06-.04-.1,0,0,0,0,.02.02.02.02.02.03.05.04.08.01.02,0,.04-.02.04-.01,0-.02,0-.04,0v-.04s-.02,0-.04,0c0,0-.02-.02-.03-.03-.03.04-.03.05,0,.11-.01.02-.02.04-.05.05h-.02s0-.02,0-.02c0,0,0-.02,0-.03,0,0,0-.01-.02-.02,0,0,0-.01,0-.01-.03,0-.05,0-.06.03.01,0,.02.01.03.02-.01,0-.01.02-.02.02-.02,0-.03,0-.06,0-.03,0-.06.04-.03.07,0,.01.02.02.04.03-.03.02-.03.02-.04.01-.03-.01-.05,0-.06.03h0s-.02-.01-.03-.01c-.01,0-.02,0-.03-.02,0,0-.02,0-.02,0-.02,0-.04.02-.05.02-.01,0-.02,0-.05-.01.01.02.02.04.03.05,0,.03,0,.06,0,.09,0,.03-.01.06-.03.09,0-.01-.02-.02-.03-.03,0-.01,0-.02,0-.03,0-.03,0-.07,0-.11,0,0,0,0-.01,0,0,.02-.02.04-.02.06,0,0,0,.02,0,.02-.01.01-.03.02-.03.04,0,0-.02.01-.03.01,0,0-.02,0-.03,0-.01.05-.01.08.02.12h0s0,.02,0,.02c-.02-.02-.03-.02-.04-.04,0-.01,0-.03,0-.03,0-.01-.02-.03-.03-.04,0,0-.01,0-.01,0,0,.04-.02.06-.06.06,0,0-.02.01-.04.01,0,0-.02,0-.03,0,0,.02.01.02.01.02t-.02.02s.01-.02.02-.02c.03,0,.05,0,.07.02,0,.02.02.02.03.03h-.09s0-.01,0-.01c-.02-.01-.04-.01-.05,0-.04.03-.08.05-.13.06,0,0,0,0-.01,0v-.05s-.06.04-.06.07c0,0,.03.01.03.01h0s-.03.02-.04.03c0,0-.02,0-.02,0,0,.03-.02.04-.04.05-.02,0-.03,0-.04.03,0,.02-.02.03-.04.03-.02,0-.02.01-.02.04,0,0,0,.01,0,.01h0s-.06-.01-.09.01c0,.03.03.04.02.07,0,0-.02,0-.02,0-.02-.01-.04-.01-.05-.01,0,0-.02.01-.02.02,0,0,0,.02,0,.02h0c-.06,0-.09.04-.13.06,0,0,0,.02,0,.02-.04.03-.07.03-.11.06-.02.01-.05.02-.07.02-.03,0-.06.01-.08,0,0,0-.02,0-.03,0,0,0-.02.01-.03.01h0s0,0,0,0h0v.03s-.01,0-.03,0c-.01,0-.03,0-.05,0,.01-.02.03-.04.06-.06.04-.03.08-.06.12-.09.03-.02.05-.04.08-.06.02-.01.02,0,.05,0,.01.02.04.02.05,0,0-.02.02-.03.02-.05,0,0,0,0,0,0h.01v-.02s0,0-.01,0c0,0,0,0,0,0,0,0,0-.02,0-.03.01-.01.04-.03.06-.05.03-.02.06-.06.1-.07,0,0,.02-.02.03-.03.03-.04.06-.07.1-.09,0,0,.02,0,.02-.01.04-.05.1-.07.15-.11.05-.04.1-.07.15-.11.03-.02.06-.05.1-.07.02-.01.05-.03.07-.06.03,0,.05-.02.07-.04,0,0,.02-.01.03-.02,0-.01,0-.03,0-.04,0,0,.02,0,.02,0,.04-.03.09-.03.13-.08,0,0,.01,0,.02-.01.06-.04.13-.08.19-.13.05-.04.1-.08.15-.1.02-.01.03-.03.03-.06.02,0,.04,0,.05-.01-.01-.02-.02-.02-.03-.01,0,0,0,.01-.02.02-.02,0-.04.02-.05.04-.06.04-.11.07-.17.11-.05.04-.1.08-.16.12,0,0-.03.02-.04.02-.03,0-.05.01-.06.03,0,.02-.03.03-.05.04v.02s-.03,0-.04,0c-.01,0-.03.02-.05.01,0-.01,0-.02,0-.03.08-.05.16-.11.24-.15.05-.02.09-.05.13-.08.07-.05.14-.11.22-.16.05-.03.08-.05.13-.08,0,.02,0,.02-.01.04,0,.01,0,.02-.01.03.04.03.05,0,.07-.01.02-.01.02-.05.04-.06-.02-.01-.03-.02-.04-.03,0,0-.02,0-.02,0-.04.02-.07.03-.11.05-.04.02-.09.04-.12.06-.01,0-.02.01-.04.02-.02.02-.05.02-.07.03-.1.05-.2.1-.31.16-.05.03-.09.06-.14.07-.04.02-.08.04-.12.07-.12.05-.21.13-.32.19-.06.03-.11.08-.17.1-.06.03-.13.07-.19.1-.04.02-.08.03-.12.04-.04,0-.08.02-.12.03-.02-.01-.04-.02-.03-.05-.02,0-.04,0-.07,0,0-.03.03-.04.05-.06.02-.02.06-.03.08-.05.05-.06.12-.08.17-.13.03-.03.06-.05.1-.08.03-.03.07-.05.1-.07.02-.01.04-.03.06-.04.03-.02.05-.04.09-.05,0,0,.02,0,.02-.01.01-.01.01-.03,0-.04-.03,0-.06.01-.09.03-.01,0-.03.01-.04.02-.02.02-.04.03-.07.03-.03,0-.06.03-.08.06-.01.03-.03.06-.06.06,0,0,0,0,0-.02,0,0-.02,0-.03.02-.01,0-.02.02-.04.03,0,0-.02.01-.03.02-.01,0-.02,0-.03.01-.04.04-.09.07-.14.1-.02.02-.03.03-.04.04-.02.02-.03.03-.06.03,0,0,0,0-.01,0-.04.05-.11.08-.14.13,0,.01-.02.02-.03.04-.02-.02-.04-.04-.06-.05,0,0-.02,0-.03.01-.01-.01-.02-.02-.04-.04-.03-.03-.03-.06,0-.09.02-.03.03-.06.05-.1-.01,0-.03-.02-.05-.03,0-.01,0-.03,0-.04-.07.02-.11.07-.15.14,0,0,0,.01,0,.01,0,.03-.02.05-.02.07,0,.02-.02.04-.03.05,0,.03,0,.05-.03.06v-.04s0-.03,0-.04c0-.01,0-.02-.01-.03,0-.02.04-.03.04-.06-.03,0-.06,0-.08.02-.02.02-.05.03-.07.05,0,.02,0,.04.02.05.02,0,.02.03.03.05-.01,0-.02.01-.03,0,0-.02-.01-.04-.04-.04,0,.01,0,.02,0,.02,0,.03,0,.05-.02.07,0,.03-.02.05-.04.08,0,.01.02.03.02.04,0,.01,0,.03,0,.03-.02.02-.03.05-.05.07,0,0,0,0-.01.01-.01,0-.02-.01-.03-.02,0-.04.03-.06.05-.09t-.05.02s-.01-.02,0-.05c0-.02.02-.04,0-.06,0,0-.02,0-.03,0,0,0-.01.01-.01.03-.01.02-.03.05-.04.08-.02.02-.03.05-.02.08,0,0,0,.02,0,.03,0,0,0,.02-.02.02,0,0,0,0-.02,0,0,0,0,0-.01-.02-.01.01-.03.02-.04.04-.02.02-.03.04-.02.07,0,.04,0,.08,0,.13,0,0,0,.02-.01.03,0,.01,0,.03,0,.04-.01-.02-.03-.02-.05,0,0,0,0,.02.02.03.01-.01.02-.02.03-.03.02-.02.04-.04.07-.06h0s.05-.04.07-.06c0,0,.02-.02.04-.03.03-.02.06-.04.06-.09,0-.02,0-.03.02-.03.03,0,.04,0,.06-.02,0,0,.02,0,.02,0,.01,0,0,.01,0,.02v.02s.04,0,.05-.02c.06-.04.13-.09.19-.13.03-.02.05-.04.08-.06.02-.02.05-.03.08-.05,0,0,0,0,.02,0,.02-.02.06-.05.07-.07.02-.02.04-.02.05,0-.01.06-.02.06-.06.06-.02,0-.02,0-.02.02v.02s-.07.07-.12.11c-.08.07-.17.14-.26.2-.06.04-.1.09-.15.15-.03.03-.06.07-.1.1-.04.04-.1.07-.12.13,0,.02-.02.03-.04.04-.02.02-.04.04-.04.07,0,.01,0,.01-.01.02,0,.02,0,.05,0,.07,0,0,0,0,0,.01.01.03.02.05,0,.09-.02.02-.02.06-.01.1,0,.04.01.09.02.12,0,.02,0,.04,0,.05.02,0,.04,0,.04.03,0,.05.02.11.02.16v.02s-.01.06,0,.1c0,.02,0,.03,0,.05h0s0,0-.02,0c0,.04,0,.09.01.13.02.06.01.13.03.2,0,.02,0,.03,0,.05.01,0,.02,0,.02-.02,0-.01,0-.03,0-.04v.04s0,.05,0,.08c0,0,0,.02,0,.02.02.02.02.04.02.06.01.06.02.12.03.17,0,.04.02.09.04.12,0,.03,0,.06,0,.09,0,.02,0,.04,0,.06.02.01.02.03.02.05,0,0,0,.01,0,.02.03.03.04.07.04.11v.03s.02,0,.04.01c0,.02,0,.04,0,.06,0,.02,0,.04,0,.05,0,.02.02.05.02.07,0,.01.02.03.03.04,0,0,.01,0,.02,0,0-.02,0-.04.01-.07,0,.01.02.02.02.04,0,.03.04.07.06.1.02.04.05.08.06.13,0,.04,0,.07.02.1.01.02,0,.05,0,.07-.02.05-.05.09-.1.12-.02.02-.05.03-.08.03-.03,0-.06,0-.1.01,0,0-.03-.01-.04-.01-.04,0-.07-.02-.11-.04-.03-.01-.06-.03-.07-.06-.02-.02-.04-.04-.06-.03-.04.02-.06,0-.09-.02,0,0-.02-.02-.04-.01-.02,0-.03,0-.05-.02-.02-.03-.05-.06-.07-.09,0-.02-.02-.03-.04-.02,0,0-.02-.01-.02-.02,0-.04-.03-.04-.06-.04,0,0,0,0-.01,0,0-.02,0-.04,0-.06-.07-.03-.09-.09-.12-.15-.01-.02-.03-.05-.03-.08,0-.03-.03-.04-.06-.07,0-.03,0-.06-.01-.08,0,0,0-.01,0-.01-.01-.03-.06-.03-.05-.08-.01-.03-.05-.05-.07-.06,0-.01-.01-.02-.02-.03h.02q.02-.08-.02-.14s.04-.03.05-.06c.03,0,.04.01.06.02.04.02.07.03.11.03.02,0,.03,0,.03.02,0,0,.02,0,.03,0,0-.02,0-.04,0-.07h0s.01-.01.01-.02v-.02q-.02-.05.04-.09s0-.06-.02-.1c-.01,0,0,.02,0,.03,0,.01-.02.01-.03.02v-.02s0-.02,0-.04v.04Zm3.27-3.2h0s0,0,0,0c0,0,.02,0,.04,0,0-.01,0-.02.02-.02.02,0,.05-.01.07-.03-.02,0-.05.02-.07.04-.01,0-.01,0-.02.02-.01,0-.03-.01-.04,0Zm1.15,4.94s-.04,0-.05.02c-.02.02-.04.03-.06.04-.02.02-.05.04-.08.05-.02,0-.01.02-.01.04-.02,0-.05,0-.06.02,0,.02-.03.03-.05.03-.02,0-.03.02-.03.04,0,0,.03,0,.04-.01,0-.02.03-.03.04-.03.05,0,.09-.03.13-.03,0,0,.02-.02,0-.03,0,0-.03,0-.04-.02.03-.02.07-.05.11-.06.02,0,.04-.01.05-.04.03,0,.05-.02.06-.05q-.05-.01-.07.03Zm-1.3-6.42s-.02,0-.02-.02c0,0,0-.03,0-.03.02-.02.01-.04,0-.07-.01,0-.02.02-.03.03-.01,0-.03,0-.04,0-.03.01-.05.03-.05.06,0,.03,0,.06-.01.08-.01.04-.04.06-.08.06,0,0-.02,0-.02,0,0,.02-.02.04-.05.04,0,0,0,.01,0,.02,0,.05,0,.11,0,.16.03,0,.02.01.1-.05,0,.02,0,.05,0,.07.01,0,.03,0,.05,0,.07-.01.13-.08.13-.17,0,0,0-.02,0-.02,0-.01.01-.02.01-.03,0-.05,0-.09,0-.13,0-.02,0-.03,0-.04,0,0,.01,0,.03,0h0s0-.01,0-.01c0,0-.02,0-.03,0Zm-.03,1.13s-.01-.02-.02,0c-.02,0-.04.02-.06.03,0,0,0,.02,0,.03h-.06s-.01,0-.02,0c0-.02,0-.03,0-.04,0,0,.02,0,.04,0,0-.04.03-.06.06-.08,0-.01-.02-.03,0-.04.06-.02.07-.07.12-.1.02-.02.03-.04.06-.04,0,0,.02-.01.02-.02h0s-.02,0-.03,0c0,0,0-.02,0-.02,0-.04,0-.07,0-.1,0-.03,0-.06-.02-.08-.02,0-.03,0-.05,0,.02-.02.03-.04.04-.06-.04.02-.06.05-.11.06h0s-.01.02-.03.03c-.03,0-.05.03-.04.06-.03.02-.06.05-.06.09.01.03.02.05.04.07.01.04.01.06-.02.07-.03.01-.02.04-.04.06-.01.02-.04.03-.04.06h0s0,0,0,0h0s0,0,0,0c.02-.01.03-.01.06-.03-.02.03-.05.05-.06.07-.01.04-.04.03-.06.05,0,0-.03,0-.04,0-.01,0-.03-.02-.05-.03-.01,0-.03-.01-.04-.02-.02,0-.03,0-.05.02,0,.01-.02.01-.04.02,0-.01,0-.02-.02-.02,0-.01.01-.02.02-.04,0,0,0-.02,0-.02,0,0-.02,0-.02,0,0,0,0,0-.01,0-.04.04-.08.08-.12.11-.02.02-.04.05-.06.07-.03.02-.07.05-.1.07,0,0-.02.01-.02.02,0,.02-.02.03-.04.04-.02.01-.04.03-.06.05,0,0-.01.02-.01.03,0,.04,0,.07,0,.11,0,.02,0,.03-.03.04-.01-.04.03-.07,0-.1-.04.02-.06.02-.06.05,0,.04.02.07.05.09.02,0,.04-.01.06-.02.08-.03.15-.06.22-.09.03-.01.06-.04.09-.05.08-.03.14-.07.22-.11.05-.02.09-.05.14-.08.02,0,.05-.03.07-.03.03,0,.07-.01.1-.03.04-.03.09-.03.13-.05.01-.01.04-.01.05-.02.05-.02.1-.05.15-.05,0,0,.01,0,.02,0,.04-.03.08-.04.12-.05.03,0,.04-.01.06-.03h-.06s-.03-.05-.04-.06c-.01-.02-.02-.03-.04-.03-.02.01-.05.02-.07.04-.02.02-.04.05-.07.04,0,0-.03,0-.04.02,0,.02-.03.02-.04.03-.03.02-.06.03-.06.06h0Zm1.7-.24s.09.01.14.03c-.03-.04,0-.09-.03-.13-.03.01-.06.03-.09.04t-.02.07Zm-3.47,2.64s.04-.02.06-.03c0-.02,0-.03.03-.04.02-.02.03-.04.04-.07,0-.01,0-.03,0-.04,0-.02,0-.03.02-.05-.03.01-.04.02-.05.04-.03.05-.06.09-.09.14,0,.01,0,.02,0,.04Zm2.36-1.17s0,.04,0,.06c0,.02-.02.03,0,.06.04,0,.05,0,.04-.04,0-.03.02-.05.03-.06.01,0,.02-.01.03-.02,0,0,0-.01,0-.03-.04.01-.06.02-.09.03Zm-.36-1.8s0-.08-.01-.13c0,0,0,.01-.01.01,0,0,0,0-.02.01,0,0,0,0-.01.01,0,0-.01,0-.02.02,0,0-.01,0-.01.01,0,0,0,0,0,.02h.05s.02.05.06.05Zm1.23,5.79s.02-.02.04-.03c0-.02.03-.02.04-.03,0,0,0,0,0-.02-.05,0-.08.01-.13.02.02.03.02.05.05.06Zm-2.52-4.76s-.04.05-.06.07c0,0,0,.02,0,.02,0,0,.01,0,.02,0,.02,0,.04-.01.04-.03,0-.01,0-.03,0-.05,0,0,0-.01-.01-.02Zm1.11-1.82s-.04.03-.06.05c0,0,0,.03,0,.04,0,0,.02.01.03,0,0-.01.02-.03.02-.04,0-.02,0-.02,0-.05Zm-3.24,3.67s-.03.03-.03.05c0,0,0,.02-.02.03-.02.02-.01.04-.03.07.02,0,.02,0,.02,0,.04-.03.05-.08.07-.12,0,0,0,0,0-.01Zm4.06,2.75s.06-.01.08-.04c-.01,0-.02-.02-.03-.02-.01,0-.02,0-.03.02,0,.01,0,.03-.01.04Zm-3.85-1.22s0-.08-.02-.11c0,0,0,0-.02,0,0,.01-.01.02-.02.04.04,0,.02.05.06.08Zm4.65-3.87s.04.03.06.03c0-.01.02-.02.03-.03t-.03-.03s-.04,0-.06.03Zm-.98,1.04h-.1s0,0-.02.02c.04,0,.08.01.12-.02Zm-.25-1.53s0-.04.01-.07c0,0,0-.02,0-.03h0s0,0-.01,0c0,.03-.01.06,0,.09Zm-.72,1.52s0,0,0,0c-.03,0-.06,0-.08.01t.09,0Zm1.71-1.27s-.03,0-.05.01h0s0,.01,0,.01c.02,0,.03,0,.04-.02Zm-4.5,3.63s-.02.02-.01.05c0-.02,0-.04.01-.05Zm3.75,2.01s0-.03-.01-.04t.01.04Zm-.94-4.4s.01.02.03.02c0,0,0,0,.01-.02h-.04Zm-.38.26s-.01-.02-.03-.02c0,0,0,.02,0,.03.01,0,.02,0,.03-.01Zm1.53,3.99s-.04.01-.05.02c.01,0,.03,0,.05-.02Zm-1.83-3.81s.02.01.03-.01c-.01,0-.02,0-.03.01Zm-.3.39s-.01-.01-.02-.02c0,0,0,0-.01,0h0s.01.02.03.01Zm.11-.24h-.01s-.01-.01-.01,0c0,0,0,.02,0,.02,0,0,.01,0,.02,0Zm1.31-.87h0s.01,0,.02,0h0s-.02,0-.02,0Zm-2.56,1.04s.02,0,.03-.02h0s0-.01,0-.01c0,0,0,.01-.02.03Zm3.93,3.46s0,0-.01.01h0s.01,0,.01,0c0,0,0,0,0-.01Zm-4.65-1.83h0s0-.02,0-.02h0s0,.02,0,.02Zm.02-.05h0v-.02h0v.02Zm3.04-1.77h0s0-.01,0-.01c0,0,0,.01,0,.01h.01Zm.99,3.64s0,0,0,0c0,0,0,0-.01,0h0s0,0,.01,0Zm-2.56-2.91s0,0,0-.01h0s0,.01,0,.02c0,0,0,0,0,0Zm2.41-3.56s0,0,0,0h0s0,0,0,0h0Zm-.1.9h0s0,0,0,0h0s0,0,0,0Zm-1.19.86h0s-.01,0-.01,0h0s.01,0,.01,0Zm.33.42h-.01s0,0,0,0h.01Zm-2.23.07h0s0,.01,0,.01h0Zm.33-.95h0s0,0,0,0h0s0,0,0,0Zm.75,1.82h0,0s0,0,0,0h0Zm2.34,3.03h0s0,0,0,0h0s0,0,0,0Zm-2.46-3.09h0s0,0,0,0Zm3.13,3.29h0s0,0,0,0h0Zm-2.09-4h0s0,0,0,0Zm-2.54,2.23h0s0,0,0,0h0Zm3.56,2.09h0s0,0,0,0h0s0,0,0,0Zm-1.95-3.01h0s0,0,0,0h0s0,0,0,0Zm-.03.02h0s0,0,0,0c0,0,0,0,0,0h.01Zm1.22-1.5h0s0,.01,0,.01h0s0,0,0-.01Zm-1.45,1.2h0s0,0,0,0h0Zm1-1.58h0s0,0,0,0h0s0,0,0,0Z"/>
          <path class="cls-1" d="m13.24,9.23s.03,0,.03,0c.02-.01.02-.03.02-.04s0-.03,0-.05c0-.01,0-.02,0-.03,0-.02,0-.03.03-.03.03,0,.06.01.1.03,0,0,0,.02,0,.03,0,.01.01.02.02.04,0,.01,0,.02-.01.04,0-.02-.02-.03-.02-.04-.02,0,0,.02-.01.03,0,0,0,.02,0,.03,0,.02,0,.03.02.04.01,0,.02.02.03.03.02.02.02.02.06,0,.02,0,.02.03.04.05-.01.03-.03.01-.05.01,0,.01-.01.02-.02.02,0,0,0-.02-.01-.04-.01,0-.03,0-.05,0v.02s.04.01.06.01h0s.03.09,0,.13c0,.01,0,.03,0,.04,0,.02,0,.03-.01.04-.02,0-.04,0-.05,0-.03-.05-.07-.07-.09-.12,0-.01-.02-.01-.03-.02-.01,0-.02,0-.04,0,.01.05.04.09.09.12.04.02.08.04.12.06.01,0,.02,0,.03.03,0,0,0,0,0,0-.04,0-.06-.02-.1-.03-.01,0-.03-.01-.05-.02-.02,0-.04-.02-.06-.04,0-.02-.02-.02-.03-.03,0,0-.01,0-.03,0,.02.02.03.03.03.06,0,0,.02.02.03.02.03,0,.06.03.07.06,0,.01,0,.02-.02.03-.03,0-.05.02-.08-.01,0,0,0,.02-.01.02,0,.01-.01.02-.02.02-.02,0-.02.01-.03.02h-.05s.06.06.06.11c-.03,0-.06-.01-.08-.03v-.02s-.02-.08-.06-.09c-.05-.03-.1-.06-.15-.09,0,0-.01-.01-.03-.02.02,0,.02,0,.04,0,.03.01.06.03.09.04.01,0,.03,0,.06,0-.01-.01-.02-.02-.02-.02-.01,0-.03-.01-.05-.02-.02,0-.04-.01-.05-.02,0,0-.02-.02-.03-.02-.05-.01-.07-.05-.1-.09.07.01.11.06.17.07,0-.01,0-.03,0-.03-.03-.03-.05-.05-.08-.07,0,0,0-.02-.02-.03.04,0,.06.01.09.02v-.08s0-.01,0-.01c0-.02-.01-.03,0-.05l.03-.03s.02.01.03.02c.02,0,.03,0,.03-.03,0,0,.02,0,.03,0h0s-.03-.04-.05-.04c-.02,0-.04-.01-.06-.03,0-.02-.03-.03-.04-.05-.02,0-.04.01-.06.02-.02,0-.02-.02-.02-.03,0-.02-.01-.04-.04-.04-.04.02-.08.05-.1.09-.01.02-.04.03-.05.06,0,.01-.04.03-.05.04h-.02s.05-.06.07-.09c0-.02-.01-.03-.02-.04.04,0,.05,0,.04-.04.01,0,.03.02.05,0,0,0,0-.01,0-.01,0,0-.01-.02-.01-.02-.02,0-.03.02-.04.02,0,.02-.02.03-.04.04-.01.04-.05.06-.07.09-.02.03-.05.05-.07.08,0,0-.02.02-.01.04,0,0-.02,0-.03,0-.01.01-.03.03-.04.04-.01.02-.03.05-.06.05,0,0-.02.02-.02.03-.02.03-.04.05-.06.08-.01.02-.04.03-.04.06.04-.04.09-.07.13-.11,0,0,0,0,0-.01.02-.02.04-.03.06-.05.03-.03.06-.06.08-.1.02-.02.05-.03.08-.05.01.01,0,.02,0,.03-.03.03-.06.05-.07.1,0,0,0,0,0,.01-.04.03-.07.06-.1.1-.06.02-.09.09-.13.13-.07.07-.15.14-.22.22,0,0-.02.02-.03.03-.09.08-.17.17-.25.26-.03.03-.06.06-.07.09-.05.06-.1.12-.15.17,0,0,0,.01-.01.02-.02.01-.04.01-.05,0-.02-.02-.03-.03-.04-.04v-.07s.03-.01.05-.02c0,0,.02-.01.04-.01,0,.01,0,.01,0,.03.04-.04.07-.07.1-.11,0,0,0-.02.01-.02.03-.02.04-.05.06-.08-.03,0-.04.03-.06.04,0-.02.03-.04-.02-.05.02-.03.06-.05.06-.09.01,0,.02,0,.02,0,.03-.03.04-.06.06-.09-.02,0-.04,0-.04,0,0,.03-.04.03-.05.05,0,.01,0,.03,0,.04-.02,0-.03,0-.04.01-.02.01-.03.03-.06.03h0s-.09.09-.13.13h0s.01.05-.02.06c0,0,0-.01,0-.03,0,.01-.02.01-.03.01t-.06-.03s.03.01.04-.01c-.01,0-.03,0-.04.01,0,0-.01,0-.02,0,0-.03-.01-.06-.02-.08,0-.02.03-.02.03-.04,0,0,.01-.02.02-.04-.01,0-.02,0-.03.01,0-.02,0-.03,0-.05.02-.04.04-.07.06-.1.03-.05.06-.1.09-.15.06-.08.13-.15.19-.23.04-.05.08-.1.12-.14.06-.07.12-.15.19-.21.09-.08.17-.17.25-.26.07-.08.15-.15.22-.23.03-.03.06-.06.09-.1.04-.06.09-.1.14-.14.02-.02.04-.05.06-.07.1-.11.2-.22.32-.31.03-.02.06-.05.07-.08.03-.04.05-.06.09-.08.02.02.06.04.08.08,0-.02.01-.04.03-.05,0,0,.01,0,.03,0,0,0,0,.02,0,.02,0,.02,0,.03,0,.04,0,.02.03.03.04.01.04-.03.07-.07.11-.11h0s-.06-.02-.08-.01c-.02,0-.03,0-.03-.03,0,0,.01-.02.02-.04,0-.01,0-.03,0-.05,0,0,0-.02,0-.02,0-.01.01-.02.02-.02,0,0,.02,0,.02.01,0,.01,0,.03,0,.04,0,0,0,.01.01.02.03-.01.05-.03.07-.06.02-.02.04-.05.06-.07,0-.01,0-.02.01-.04,0-.01-.02-.01-.02-.02h0s.04-.03.06-.04c.02-.02.03-.03.04-.05,0-.01,0-.02-.01-.03h0s.05-.06.07-.09c.06-.05.1-.1.15-.16.03-.03.06-.06.09-.09.05-.05.09-.1.12-.16.01-.03.03-.04.05-.07.04-.06.06-.13.08-.19-.01-.01-.03-.02-.04-.03,0-.02-.03-.02-.04-.03-.01-.02-.04-.02-.06-.01-.02,0-.05.01-.06,0-.01,0-.03,0-.03.02,0,.01,0,.02,0,.03-.05.05-.18.12-.27.11,0,.02-.04.03-.01.06h0s-.07,0-.11,0c-.02.03-.04.05-.04.09s-.01.06-.04.08c0,.02,0,.04,0,.06-.01,0-.02.01-.03.01-.06.02-.1.06-.13.1-.02.02-.04.04-.05.08,0,.01-.02.02-.04.02h0s-.07-.03-.11,0c0,0,0,.02,0,.02,0,.01,0,0,.01,0t.03,0s0,.03,0,.05c0,0,.01.02.02.02,0,0,0,.01,0,.01-.03.01-.05.03-.06.04-.01,0-.02,0-.03-.02-.03,0-.06.01-.1.02-.02,0-.02-.01-.03-.02.03,0,.06,0,.09-.01.03,0,.03-.02.04-.05-.04-.01-.04.03-.06.03-.03,0-.05.02-.07.03,0,0-.02.02-.02.02-.03,0-.02.02-.03.02-.01,0-.02.02-.03.02,0,.03.02.04.04.06-.02,0-.03,0-.05.01-.01-.02-.02-.04-.05-.03,0,0-.02,0-.03,0-.02-.01-.04,0-.06.01-.02,0-.04.02-.05.04,0,.01,0,.02-.01.02-.03,0-.05.03-.06.05,0,0,0,0,0,0h0s0,0,0,0c0,.03-.02.05-.03.07-.01.01,0,.03-.01.05,0,0,0,0-.02-.02-.01,0-.02.02-.03.03,0,0-.01-.01-.02-.02,0,.02,0,.04-.01.06-.02,0-.03,0-.05,0,0,.02,0,.04-.04.04,0,0-.01.01,0,.02,0,0,0,.01.02,0,0,0,.02-.02.03-.03.03.02.06.02.09,0h0c-.05.05-.08.11-.11.17-.02.03-.03.05-.05.08-.05.07-.11.14-.16.21-.03,0-.06.01-.07.05,0,.01-.01.02-.02.03h-.01s0-.03,0-.05c-.02,0-.03.02-.04.03-.01,0-.03,0-.05,0-.01,0-.03-.01-.05-.02,0,0-.02-.01-.03-.01-.02,0-.04,0-.06,0-.02,0-.03-.02-.05-.02,0,0-.02,0-.02-.01-.01-.02-.04,0-.06-.01v-.06s-.04,0-.06,0c-.01-.04-.02-.08-.06-.1v-.12s-.05-.06-.07-.09c0-.02.01-.04.02-.05.03-.05.06-.09.07-.14,0-.03.03-.05.06-.06,0-.06.02-.09.07-.13.03-.02.06-.06.06-.11h0s0-.04.04-.04c.03,0,.06-.01.07-.05h0s.02-.06.05-.07c.01,0,.03-.02.05-.03,0,0,0-.01-.02-.02.01-.03.04-.02.06-.03h0s0-.05.02-.05c.02,0,.04,0,.06,0,.02,0,0-.05.02-.05.02,0,.03-.02.05-.03.02-.01.03-.03.03-.05,0-.05.03-.09.07-.12,0-.02.04-.04.03-.07,0,0,.01-.02.02-.02.02-.02.04-.01.06-.02,0-.01.01-.03.02-.05.01-.03.04-.05.07-.05,0-.02,0-.03.01-.04,0-.01.02-.01.03-.02.02,0,.02-.03,0-.05,0-.01-.02-.02-.01-.04.02,0,.04-.02.06-.02.02,0,.03-.01.05-.02.02-.01,0-.03,0-.05.06,0,.1-.03.14-.06,0,0,0,0,.02.02,0,0,.01-.01.02-.02,0,0,.01-.01.02-.01.04,0,.05-.02.06-.06h0s.04-.02.06-.04h.07s.04.01.05.03c.07-.01.12,0,.16.05.01.02.03.04.06.05,0,.02.01.05.03.06.01.02,0,.05,0,.07.05.04.11.08.15.11.01.05,0,.1.04.14.03,0,.06-.01.08-.03,0,0,.01-.02.02-.02,0-.01,0-.03.01-.03,0,0,0,.01.01.02.01,0,.03,0,.03,0,.06-.03.12-.06.19-.09h0s.03-.05.05-.06c.06-.01.11-.02.17-.03.03.02.06,0,.08,0,.02,0,.03-.01.03-.03v-.09s.01-.05.04-.06c.01,0,.03,0,.05-.02.05-.01.09-.03.13-.06,0,0,0,0,.01-.01.06-.07.16-.08.24-.13,0,0,.01,0,.02,0,.05,0,.07,0,.08.06,0,0,0,.02,0,.02.03.02.07.02.11.02.05.04.06.09.03.14t0,.09s-.08.06-.13.08c-.06.02-.12.05-.18.08-.06.03-.12.07-.18.08-.01,0-.03,0-.03,0-.02-.04-.04-.03-.06-.02,0,0-.02,0-.02,0-.01.02-.01.04-.01.06,0,.04,0,.07-.01.1v.02s0,.05-.02.05c-.04.01-.05.04-.06.07-.01.04-.02.08-.08.1.02.01.03.01.03.01.06-.03.11-.07.17-.1,0-.01.03-.02.04-.03.02-.04.06-.06.1-.07t.03.06s.07-.08.1-.12c.02,0,.04,0,.06,0,.02-.02.04-.04.05-.06,0,0,.02,0,.03,0,.03-.02,0-.08.05-.11.01,0,.04,0,.05,0,0,.04,0,.08-.03.12-.01.03-.02.07-.06.1-.02.02-.05.05-.05.09-.04.04-.06.1-.12.12,0,0-.01.02-.01.02-.03.03-.05.06-.07.09-.02,0-.04,0-.06,0-.03,0-.05.02-.06.05,0,.04-.03.07-.06.09-.02.02-.04.05-.06.07-.02.02-.04.05-.07.06-.01,0-.02.02-.03.03,0,.01-.02.02-.03.03-.02.03-.05.05-.07.08-.02.02-.05.05-.08.06,0,0,0,.01-.02.02,0,0-.01.02-.02.02-.03,0-.04.01-.06.03,0,.01-.02.02-.03.03-.04.02-.07.05-.09.09,0,.02-.03.03-.05.04-.03.02-.06.05-.07.07-.01.02-.03.03-.04.05-.02.02-.04.05-.06.07,0,.02-.03.03-.04.05-.03.02-.05.04-.07.07-.02.01-.04.04-.06.06h0s-.05.03-.06.05c0,.01-.03.02-.05.02,0,.01,0,.03,0,.04-.03.04-.07.08-.1.11,0,.01-.02.01-.02.03-.04.05-.08.08-.13.13-.02.02-.04.03-.06.05,0,0-.02.02-.02.04.02-.02.03-.03.05-.04,0,.01.02.02.02.04-.01.01-.03.02-.05.03.01.01.02.03.03.03.03.01.06.02.07.04.04.04.09.06.15.06,0,0,0,0,.01,0,0,0,0,0,.01.01,0,.01,0,.03,0,.04-.01.01-.03.02-.05.03v.02h0s0,0,0-.02c.02.02.04.05.04.08,0,0,0,.01,0,.02h0s-.03.1,0,.14c0,0,0,.02.02.03,0,0,0,0,.02,0,0-.04-.02-.07,0-.1h0s-.02-.06-.03-.09Zm-.95-1.12s.03,0,.04-.01c0-.01,0-.02.01-.03.02,0,.04-.02.05-.04,0,0,0-.01,0-.02,0,0-.01-.02-.02-.01,0,0-.02.01-.02.02,0,.02,0,.04-.01.05,0,0-.01.01-.01.01-.01.02-.02.03-.03.04h0s0,.01,0,.01h0s0-.01-.01-.01Zm-.49,1.7s.01,0,.02,0c.02-.02.04-.04.05-.06h0s-.05.01-.06.06c0,.02,0,.03-.03.04,0,0-.02,0-.02.03,0,0,.02,0,.02,0,.02-.02.05-.03.03-.07Zm.13-.13s.03,0,.04,0c.01-.01.03-.03.04-.04,0,0,0-.01,0-.02-.04.02-.06.05-.08.08-.01,0-.03.01-.05.04.03-.02.04-.02.04-.04Zm-.15.35s0,.01-.01.02h0s.02-.01.02-.02c0,0-.01,0-.02,0,0-.01,0-.03,0-.05,0,0-.02-.02-.03-.03-.02.03-.03.06-.02.09.02,0,.03-.01.05-.02Zm.08-.07s.02,0,.02,0c.01-.01.02-.03.03-.04.06-.07.13-.13.19-.19,0,0,0-.02,0-.03-.03.02-.05.05-.09.04,0,0-.01.01-.03.02-.03.02-.05.04-.07.07-.06,0-.08.01-.12.06.02.01.03.05.06.04v.03s0,0-.01.01c0,0,.01,0,.01-.01Zm.9-2.8s.06,0,.09,0c.02-.01.04-.02.06-.03.02,0,.04-.01.06-.02.05,0,.09-.04.13-.06,0,0,0-.01,0-.02,0-.02,0-.04-.01-.05-.03-.03-.06-.03-.1-.03-.03.03-.05.06-.08.08-.01,0-.02.01-.03.02,0,0,0,.01-.02.01-.05,0-.08.05-.11.08h0s-.03.03-.05.04c0,0-.01.01,0,.03.03,0,.05-.01.06-.04Zm.49.86s-.08,0-.12,0c-.01,0-.02,0-.03,0-.02,0-.02.01-.02.03.03,0,.06,0,.09.02.03.02.06,0,.08-.05Zm1.17-1.31s0-.02,0-.03c-.03,0-.06.01-.08.02,0,0,0,0-.01,0,0,0-.01.02,0,.03.02.02.04.02.06,0,.02-.01.04-.02.06-.03Zm-1.49,2.37s.02-.02.02-.02c0-.02-.02-.03,0-.05,0,0,0-.02-.02-.03,0,0-.02.02-.02.03,0,.02.01.04.02.07Zm1.67-2.69s-.05,0-.07.02c.03,0,.06,0,.07-.02Zm-1.41,3.28s-.04-.02-.06-.02c.02.02.04.03.06.02Zm-1.11-.16s.03,0,.03-.04c0,.01-.02.03-.03.04Zm.69-.48s0,0,0,0c-.02,0-.02,0-.03.02,0,0,0,0,0,0h0s.02,0,.03-.02Zm-.73.52h0s0,0,0,0c0,0,0,0,0,0h0Zm2.08-2.33h0s0,0,0,0h0s0,0,0,0Zm-1.74.72s0,0,0,0t.01,0h0s0,0-.01,0Zm.85.55h0-.01s0,0,0,0h0Zm-.18.58s0,0,0,0h0s0,.01,0,.01h0Zm-.23-1.55h0s0,0,0,0h0Zm-1.13,2.56h0s0,0,0,0h0Z"/>
          <path class="cls-1" d="m13.63,7.06s.01-.04.02-.07c0,0,0-.02-.02-.02.02-.02.02-.04.05-.06h0s0,.06,0,.08c.06-.01.12-.03.16-.08.01,0,.01-.02.01-.03h0s0,0,0,0h0s0,0,0,0c-.02.01-.03.02-.04.03h0s0-.02,0-.03c.02-.03.05-.04.08-.04,0,0,.02.01.01.03,0,0,0,.01,0,.01,0,0,.02,0,.03,0v.02s0,.02,0,.02c-.01,0-.03.02-.05.03-.06.02-.12.05-.17.08-.01,0-.03.01-.04.02-.02,0-.04.03-.06.02h0Z"/>
          <path class="cls-1" d="m10.76,7.67s0,0,0,.02c0,.02.01.04.01.06.01.07.02.15.03.22,0,.03,0,.06.02.09,0,.03.02.05.03.08-.01.05,0,.1.04.14v.06s0,.04.02.05c.01.02.02.04.02.07,0,0,0,.01-.01.02,0,.01-.02.01-.02,0-.01-.02-.03-.03-.02-.07,0-.05,0-.09-.03-.14-.01-.05-.02-.1-.03-.15,0-.02,0-.04,0-.07-.02-.12-.03-.24-.06-.36,0,0,0-.01,0-.02h0Z"/>
          <path class="cls-1" d="m11.33,5.52c-.05.06-.11.08-.17.12,0-.02-.01-.02-.01-.02,0-.03,0-.05.01-.07.04-.03.07-.06.12-.08,0-.01.02,0,.03,0,0,0,0,.02,0,.02,0,0,0,.02.02.03Z"/>
          <path class="cls-1" d="m12.57,5.26c-.04.05-.09.11-.15.13-.01,0-.02.02-.03.03-.01.02-.04.04-.06.05-.01,0-.03.02-.05,0,0,0,0-.01.01-.02,0,0,.01-.01.02-.02.07-.05.14-.11.22-.16,0,0,.03,0,.04-.01h0Z"/>
          <path class="cls-1" d="m13.43,9.94s0,.02-.03,0c0,.03,0,.06-.01.09,0,0-.02,0-.03.01-.01-.02,0-.05-.01-.07,0-.02-.02-.04-.03-.07.02,0,.03.01.04.02,0-.02,0-.02-.01-.03-.01,0-.03-.02-.04-.03,0,0,0-.01.01-.02.01,0,.02.01.02.02.02.02.05.05.08.05,0,0,0,0,.02.01h0Z"/>
          <path class="cls-1" d="m15.05,4.45s-.03.04-.06.05c-.04.02-.08.04-.12.06-.03.01-.05.02-.07.03,0,0,0,0-.02,0,0,0,0,0,0,0,.08-.07.18-.09.27-.13Z"/>
          <path class="cls-1" d="m13.52,8.36s0-.03,0-.04c.03-.03.05-.06.09-.07q-.02.06-.07.08s0,0,0,.01c0,0,0,0-.01.01Z"/>
          <path class="cls-1" d="m13.65,9.2s.03.04.04.05c-.05,0-.06,0-.05.06-.02,0-.03,0-.02-.02,0-.01,0-.03,0-.04h0s.02-.03.04-.04Z"/>
          <path class="cls-1" d="m12.1,6.52s-.03.05-.06.06c-.02,0-.02,0-.03.02-.01.02-.03,0-.04,0,.02-.03.05-.05.08-.05.01,0,.03-.01.05-.02h0Z"/>
          <path class="cls-1" d="m13.77,8.06c.01.06-.04.06-.05.1-.01-.02-.01-.03-.02-.04.02-.02.04-.03.07-.06Z"/>
          <path class="cls-1" d="m13.31,9.75s.04.03.06.04c0,.02-.02.02-.04.02h-.03s-.02-.02,0-.03c0,0,0-.01.02-.03Z"/>
          <path class="cls-1" d="m12.58,7.83s0,.02,0,.03c0,0-.01.02-.02.03,0,.01,0,.02-.01.02,0,0,0,0-.01.01,0,.02-.02.02-.03.02h0v-.02s.05-.07.09-.09h0Z"/>
          <path class="cls-1" d="m14.88,6.69s.02.03.01.05c-.02,0-.03.02-.06.02,0-.03.02-.06.04-.07Z"/>
          <path class="cls-1" d="m13.3,8.61s-.02.01-.03.02c-.04.02-.06.04-.11.06,0,0,0,0,0,0,.02-.02.06-.03.07-.06.02-.02.04-.02.06,0h0Z"/>
          <path class="cls-1" d="m13.02,7.54s-.04.03-.07.02c.02-.06.02-.06.07-.02Z"/>
          <path class="cls-1" d="m10.74,7.41s.02,0,.02.02c0,.04,0,.08.01.13,0,.01,0,.02-.01.03,0-.06,0-.11-.02-.17h0Z"/>
          <path class="cls-1" d="m11.68,5.39s0,.02-.01.03c0,.02-.02.03-.03.04,0,.01,0,.02-.02.01,0,0,0-.02,0-.03.01-.01.02-.04.04-.04,0,0,.01,0,.01,0h0Z"/>
          <path class="cls-1" d="m13.25,7.82s0,.04-.01.06c0,0-.01.01-.02.02,0,0-.02,0-.02,0,0,0,0-.02,0-.03.02-.01.04-.02.06-.04Z"/>
          <path class="cls-1" d="m13.88,7.93s.04-.04.06-.05c0,.02,0,.04,0,.05-.01.01-.03.02-.06,0Z"/>
          <path class="cls-1" d="m12.8,7.62s-.07.06-.1.06c0,0,0,0-.02,0,.04-.03.07-.05.12-.06Z"/>
          <path class="cls-1" d="m10.79,6.33s0-.03.05-.06c0,0,0,.02,0,.02-.01.02-.02.04-.05.04Z"/>
          <path class="cls-1" d="m16.11,7.33s-.01.04-.03.06c0,.02-.02.02-.04,0h0s.03-.02.04-.05c0-.02.02-.02.03-.02h0Z"/>
          <path class="cls-1" d="m13.89,7.97s-.04.05-.08.04c.02-.02.04-.05.08-.04Z"/>
          <path class="cls-1" d="m10.87,6.25s0-.03,0-.03c.02-.02.04-.02.06-.04.01.01,0,.02,0,.03-.01.01-.03.02-.06.04Z"/>
          <path class="cls-1" d="m13.39,8.41h0s.06-.01.09-.01c0,0,0,.01,0,.02-.03,0-.07,0-.1-.01Z"/>
          <path class="cls-1" d="m16.31,6.65s.02-.05.03-.07c.01,0,.02.01.01.02,0,.02,0,.04-.04.05Z"/>
          <path class="cls-1" d="m12.14,5.58s0,.01,0,.02c-.01.02-.03.02-.05.02t.05-.04Z"/>
          <path class="cls-1" d="m12.85,9.29s-.04-.03-.03-.04c0,0,0,0,.01,0h.01v.05Z"/>
          <path class="cls-1" d="m12.1,6.52s.03-.04.06-.06t-.06.06h0Z"/>
          <path class="cls-1" d="m12.23,5.53s-.03.03-.06.03t.06-.03Z"/>
          <path class="cls-1" d="m11.05,6.1s0-.03.01-.04h0s0,.03-.02.04Z"/>
          <path class="cls-1" d="m13.65,8.21s.02-.02.03-.03h.01s-.01.04-.04.03Z"/>
          <path class="cls-1" d="m14.19,5.15s-.02,0-.02,0h-.01s0-.02,0-.02c0,0,.02,0,.03,0,0,0,0,0,0,.02Z"/>
          <path class="cls-1" d="m13.47,9.15s.03,0,.05.02t-.05-.02Z"/>
          <path class="cls-1" d="m13.49,9.26s.03,0,.05,0t-.05,0Z"/>
          <path class="cls-1" d="m15.96,5.56s-.02-.02,0-.04c.01.01.02.02,0,.04Z"/>
          <path class="cls-1" d="m13.23,7.35s.01.02,0,.03c0,0-.02.03-.04.02.01-.02.03-.04.04-.05h0Z"/>
          <path class="cls-1" d="m12.85,5.09s-.01.02-.01.02c0,0-.02,0-.02-.01,0,0,.01-.01.01-.01,0,0,.01,0,.02.01Z"/>
          <path class="cls-1" d="m13.63,6.69s0,.01,0,.01h-.02s.01-.02.02-.02h0Z"/>
          <path class="cls-1" d="m11.84,6.68h0s-.01.01-.02.01h0s.02-.01.02-.01c0,0,0,0,0,0Z"/>
          <path class="cls-1" d="m12.57,5.26s0-.03.03-.02c0,.01-.02.02-.04.02h0Z"/>
          <path class="cls-1" d="m14.59,8.8s-.01,0-.02.01h-.01s0-.02,0-.02c0,0,0,0,.02,0Z"/>
          <polygon class="cls-1" points="9.99 7.42 9.99 7.44 9.99 7.44 9.99 7.43 9.99 7.42"/>
          <path class="cls-1" d="m13.42,9.82s.02,0,.02.02c0-.01-.01-.01-.02-.02Z"/>
          <path class="cls-1" d="m10.69,5.94s0,0,0,0c0,0,0-.02,0-.03h0s0,.02,0,.03h0Z"/>
          <path class="cls-1" d="m15.54,5.95s0,.01-.02.01h0s0-.03,0-.03c0,0,0,0,.02.01Z"/>
          <path class="cls-1" d="m12.58,6.16s.01-.01.02-.01t-.02.01Z"/>
          <path class="cls-1" d="m13.42,9.8s0,0,0-.01c0,0,.01,0,.02,0h0s-.02,0-.02,0h0Z"/>
          <path class="cls-1" d="m13.61,9.33h.03s-.02,0-.03,0h0Z"/>
          <path class="cls-1" d="m10.69,5.86s0-.01,0-.01c0,0,0,0,.01-.01h0s0,.02-.01.02Z"/>
          <path class="cls-1" d="m16.03,6.67v-.04s0,.03,0,.04h0Z"/>
          <path class="cls-1" d="m11.1,5.45s-.01,0-.02.02h0s0-.02,0-.02c0,0,.01,0,.01,0h0Z"/>
          <path class="cls-1" d="m14.06,5.13h0s0,0,0,0c0,0,0-.01,0-.01h0Z"/>
          <path class="cls-1" d="m10.05,7.36h0s0-.01,0-.01h0s0,0,0,.01Z"/>
          <path class="cls-1" d="m12.76,6.04s.01,0,.02,0c0,0,0,0,0,.01,0,0-.01,0-.02,0h0Z"/>
          <path class="cls-1" d="m13.07,7.5h0,0s0-.01,0-.01h0s0,.01-.01.01Z"/>
          <path class="cls-1" d="m11.41,10.31s0,.01,0,.02c0,0,0,0,0,.01,0,0,0,0,0-.01,0,0,0,0,0-.02Z"/>
          <path class="cls-1" d="m12.88,9.23h-.01s0-.01,0-.01h.02Z"/>
          <path class="cls-1" d="m13.03,5.86h0s0,.02-.02.02h0s0-.02.01-.02Z"/>
          <path class="cls-1" d="m12.7,6.08s0,0,0,0h0s0,0,0,0h0Z"/>
          <rect class="cls-1" x="10.61" y="6.38" width="0" height=".01" transform="translate(-1.62 4.45) rotate(-22.06)"/>
          <path class="cls-1" d="m10.75,7.67s0-.01,0-.02h0v.02h0Z"/>
          <path class="cls-1" d="m15.93,7.66h0s0-.01,0-.01h0s0,0,0,.01Z"/>
          <path class="cls-1" d="m15.88,7.76h0s0,0,0,0h0s0,0,0,0Z"/>
          <polygon class="cls-1" points="12.59 7.83 12.59 7.82 12.6 7.82 12.6 7.83 12.58 7.83 12.59 7.83"/>
          <path class="cls-1" d="m15.81,7.86s0,0,0,0c0,0,0,.01,0,.01t-.01,0s0,0,0-.01Z"/>
          <path class="cls-1" d="m15.62,8.26s0,0,0,0h0s0-.01,0-.01c0,0,0,0,0,0Z"/>
          <path class="cls-1" d="m13.3,8.61s0,0,0,0h0s0,0,0,0v.02h0Z"/>
          <polygon class="cls-1" points="13.74 10.09 13.75 10.09 13.74 10.1 13.73 10.09 13.74 10.09"/>
          <path class="cls-1" d="m11.59,10.22h0s0,0,0,.01h0s0-.01,0-.01Z"/>
          <path class="cls-1" d="m11.68,5.39s0,0,0-.01h0s-.01.01-.01.01h0Z"/>
          <path class="cls-1" d="m12.27,5.5s0,0,0,0h0,0s0-.01,0,0Z"/>
          <path class="cls-1" d="m13.82,6.9s0,0,0,0h0s0,0,0,0c0,0,0,0,.01,0h0Z"/>
          <path class="cls-1" d="m13.63,7.06s0,0-.01.01c0,0,0,0,0,0h0s.01,0,.02,0h0Z"/>
          <path class="cls-1" d="m15.57,5.78h0,0s0,0,0,0h0Z"/>
          <polygon class="cls-1" points="11.12 5.54 11.12 5.54 11.12 5.54 11.12 5.54"/>
          <rect class="cls-1" x="10.74" y="7.39" width="0" height=".01"/>
          <path class="cls-1" d="m9.79,5.39h0s0,0,0,0h0Z"/>
          <path class="cls-1" d="m12.92,7.54h0,0s0,0,0,0h0Z"/>
          <path class="cls-1" d="m10.02,7.64s0,0,0,.02h0v-.02s0,0,0,0Z"/>
          <path class="cls-1" d="m12.59,7.72s0,0,0,0h0s0,0,0,0h0Z"/>
          <polygon class="cls-1" points="13.88 6.6 13.88 6.61 13.87 6.6 13.88 6.6"/>
          <path class="cls-1" d="m15.87,7.82s0,0,0-.01h.01s0,.01,0,.01Z"/>
          <path class="cls-1" d="m13.43,9.94h0s0,0,0,0h0s0,0,0,0Z"/>
          <rect class="cls-1" x="10.05" y="7.91" width="0" height="0"/>
          <rect class="cls-1" x="10.07" y="7.98" width="0" height="0" transform="translate(-.84 14.77) rotate(-70.27)"/>
          <path class="cls-1" d="m9.75,8.16h0s0,0,0,0c0,0,0,0,0,0h0Z"/>
          <path class="cls-1" d="m9.79,8.17s-.03,0-.04,0h0s.02,0,.04,0h0Z"/>
          <path class="cls-1" d="m12.07,5.98s-.02,0-.04,0v-.02s.02-.03.04-.04c.01-.01.04,0,.06,0,0,.02,0,.04,0,.05-.01,0-.04.02-.06.03h0Z"/>
          <path class="cls-1" d="m13.94,4.6s.02,0,.03,0c.01,0,.03,0,.04,0,0,.03-.01.05-.04.07,0,0-.01-.02-.02-.03,0,0-.02,0-.02-.02,0-.02,0-.02.01-.03h0Z"/>
          <path class="cls-1" d="m14.74,4.31s-.01,0-.01,0c-.03,0-.05,0-.08.01h-.01s0-.03,0-.03c.03,0,.06,0,.09,0,0,0,0,0,0,0Z"/>
          <path class="cls-1" d="m14.37,4.45s-.02.05-.07.04t.07-.04Z"/>
          <path class="cls-1" d="m13.37,5.02s-.01.04-.02.06h-.02s0-.04,0-.05c.01,0,.03,0,.04,0h0Z"/>
          <path class="cls-1" d="m12.76,5.43s.02,0,.03,0h0v.02s-.02,0-.04,0h0Z"/>
          <path class="cls-1" d="m12.77,5.47s.02,0,.02,0c0,0,0,.01,0,.01h0s0-.01-.01-.02Z"/>
          <path class="cls-1" d="m12.07,5.99s.02,0,.04,0t-.03,0h0Z"/>
          <path class="cls-1" d="m12.22,5.83s-.02.04-.05.03c.02-.01.02-.02.05-.03Z"/>
          <path class="cls-1" d="m14.21,4.55s-.03-.02-.03-.04t.02.04h0Z"/>
          <path class="cls-1" d="m12.43,5.65h.01s0,.02-.03.02c0,0,.01-.02.02-.02h0Z"/>
          <path class="cls-1" d="m14.2,4.55s.02.01.04.02c-.01,0-.02.01-.03.02-.01-.01-.01-.02,0-.04h0Z"/>
          <path class="cls-1" d="m12.62,5.54s0,0,.01-.02c0,.02,0,.02-.01.02Z"/>
          <path class="cls-1" d="m12.28,5.77s0,.02,0,.02c0,.01,0,.02-.02.01,0-.01,0-.02.02-.03h0Z"/>
          <rect class="cls-1" x="11.94" y="6.09" width="0" height="0" transform="translate(-.71 10.51) rotate(-46.25)"/>
          <path class="cls-1" d="m12.12,6.02h0s0,0,0,0h0Z"/>
          <path class="cls-1" d="m12.25,4.64s.02-.05.05-.07c.02-.01.03-.03.05-.05,0-.02.03-.02.06,0-.02.04-.06.06-.08.09-.02.02-.04.03-.06.04,0,0-.01,0,0,0h0Z"/>
          <path class="cls-1" d="m12.48,4.36s0,.01,0,.02c0,0,0,.01.01.01,0,.04-.05.06-.07.09,0,0-.02,0-.03,0,0,0,0-.02-.01-.02,0,0,0,0,0-.01.04,0,.06-.02.06-.07,0-.01,0-.02.02-.02Z"/>
          <path class="cls-1" d="m12.64,4.24s.01,0,.02.02v.02s-.06.06-.11.09v-.02s.04-.04.04-.07c.01-.02.03-.02.04-.04Z"/>
          <path class="cls-1" d="m13,4.15s0,0,0,0c0,0,0,0,0,0,0,0,.01-.02.02-.02h0s0,.03-.02.03h0Z"/>
          <path class="cls-1" d="m13.17,4.24s.03-.01.05-.02c-.01.04-.04.01-.05.02h0Z"/>
          <polygon class="cls-1" points="13.12 3.87 13.12 3.88 13.11 3.87 13.11 3.87 13.12 3.87"/>
          <rect class="cls-1" x="13.12" y="4.01" width="0" height="0"/>
          <rect class="cls-1" x="12.93" y="4.31" width="0" height="0"/>
          <polygon class="cls-1" points="13.11 3.84 13.11 3.85 13.11 3.84 13.11 3.84"/>
          <rect class="cls-1" x="12.23" y="4.68" width="0" height=".01"/>
          <path class="cls-1" d="m12.26,4.64s0,0-.01-.02h0v.02h0Z"/>
          <path class="cls-1" d="m14.49,9.53s0,.02.01.03t-.01-.03Z"/>
        </g>
        <g>
          <path class="cls-1" d="m5.01,4.06s.05-.04.07-.06c.04-.04.07-.08.1-.13-.02,0-.03.02-.05.03-.01.01-.03.03-.04.04-.01.01-.03.02-.05.03,0,.01-.03.02-.04.03-.01.02-.03.03-.04.04-.02.02-.03.03-.05.03-.01,0,0-.01,0-.02.06-.06.13-.12.19-.18.06-.06.12-.11.17-.18.01-.01.02-.03.03-.03.06-.04.08-.09.12-.13,0-.01,0-.02.01-.03,0-.06.06-.1.13-.11.03.04.09.04.13.08,0,0,.01,0,.01,0,.06,0,.09.03.12.06.02.02.04.03.07.04.05.01.1.02.15.05.04.03.08.04.12.07.01.01.03.02.04.03.03.02.06.05.09.07v.03s.02.05.01.07c0,.02-.01.04-.02.07-.01,0-.03.01-.06.02,0,.01-.02.02-.04.04-.05.04-.1.09-.16.13-.01.01-.04.02-.06.03-.08.03-.15.06-.21.12-.02.02-.05.04-.09.05,0,0,0,0,0,.01-.02.03-.06.05-.09.07h0s0,0,0,0c0,.02-.02.02-.04.01-.02-.01-.04,0-.06.01,0,0,0,.02.02.02-.02,0-.04.01-.06.02,0,0,0,0,0,.02t-.05.02s.04-.02.05-.02c.05,0,.1-.02.14-.02.03,0,.06,0,.08-.02.05-.02.1-.03.15-.04.06-.01.11-.03.17-.04.1-.02.2-.05.31-.07.02,0,.04-.02.06-.02,0-.01,0-.02-.01-.02.05,0,.09,0,.12-.02.01,0,.02,0,.04,0,.04,0,.08,0,.13,0,.01,0,.03,0,.04,0,.01,0,.03,0,.05,0,.03,0,.05-.02.08-.02.03,0,.03,0,.04-.03,0,0,0,0,.01-.01.01,0,.03,0,.05.01,0,0,.01,0,.02.01.01.04.06.04.09.06.02.02.04.01.06,0,0,0,0,.02.02.02.05,0,.06.04.07.08.05,0,.07.05.12.04.05.04.09.08.13.12,0,.01-.01.02-.02.03.02.03.05.06.06.08,0,.03-.02.05-.02.08,0,0,0,.01,0,.01.03.04,0,.06-.04.08-.02.02-.05.04-.07.06,0,.01,0,.03-.01.05-.02.02-.03.04-.05.05-.02,0-.03.02-.05.03-.02.01-.05.01-.06.03,0,0-.02,0-.03,0-.06,0-.11.01-.17.03-.02-.03-.07-.04-.1-.05-.03-.01-.05-.02-.06-.05h-.09s-.01-.06-.04-.08c-.02,0-.04-.03-.07-.02h0s-.09,0-.13,0c-.03,0-.05,0-.08,0-.02,0-.05-.01-.06-.03,0,0-.03,0-.03,0-.02,0-.04,0-.06,0-.04,0-.07-.01-.11-.01-.02-.02-.05,0-.08,0-.02,0-.04,0-.06.02,0,0-.02,0-.03,0-.03,0-.06.03-.09.04-.04,0-.06.02-.1.03,0,0-.02,0-.01.02,0,0-.02.01-.03.02,0-.01,0-.03-.04-.02-.02,0-.03.02-.05.02-.01,0-.02.01-.03.02-.03,0-.01-.03-.01-.04.01,0,.03,0,.04,0,.01,0,.02,0,.02,0,0,0,0,0,.02,0h-.01s-.02.01-.02.02c-.01,0-.03,0-.04,0-.04,0-.07.02-.1.03,0,0,0,.02,0,.03h0s-.03,0-.03-.02h-.04s0-.02,0-.02h0s-.09.03-.13.05c-.03.01-.06.02-.1.03q-.06.03-.08.07s0-.02,0-.02c-.04.01-.08.03-.12.04-.04.02-.06.04-.06.07.03.02.06,0,.08-.01.03-.02.06-.03.09-.04.02,0,.04-.02.07-.02,0,0-.01.02-.02.02-.05.02-.1.05-.15.06-.04,0-.07.02-.09.06-.02.03-.07.04-.11.03-.01,0-.03,0-.04,0-.02,0-.04.02-.06.03-.02,0-.03,0-.05.02-.02.02-.05.03-.08.04q-.06.02-.1.07s-.06-.01-.08,0c-.05.01-.09.05-.14.06-.03,0-.06.03-.1.05-.02.01-.05.02-.07.02-.01,0-.03.01-.04.02-.03.02-.07.03-.1.05,0,0-.02,0-.03,0-.01,0-.02.01-.04.02h-.03s-.01.01-.02.03c-.04,0-.07.01-.11.02-.01,0-.03.03-.05.04-.04,0-.07.03-.12.02-.01-.01,0-.02,0-.03.02-.02.04-.03.06-.04,0,0,.02,0,.03,0,.06-.03.13-.06.2-.09.01-.01.04-.03.06-.02.03-.04.09-.04.14-.05.04,0,.08-.04.12-.06.01,0,.02-.01.04-.01.01,0,.03,0,.05-.01,0,0,.02-.02.03-.03.02,0,.03,0,.05,0,.03,0,.05-.03.06-.05,0,0,0,0,.02.01s.01,0,.01,0c0,0,0-.01,0-.03,0,0-.01,0-.01,0,0,0,0,0,0,.01,0,0-.02,0-.03,0-.15.05-.3.12-.45.17-.07.02-.13.05-.21.06-.06,0-.11.02-.17.04,0,0-.02,0-.04,0h0s.02-.02.04-.03c-.03,0-.06.01-.08.02-.03.02-.07.03-.11.04-.04.01-.09.02-.13.02h-.02s-.04-.02-.06-.01c-.06,0-.1.03-.14.05.01.02.02.04.03.06-.02.02-.06.02-.07.06,0,0,.02.01.03.02.02.03.02.03.05.03.02,0,.05-.02.06-.03t.05-.05s.04,0,.07,0c-.03.02-.05.03-.06.04.02,0,.04-.01.06-.02.02-.01.05-.03.08-.03.03,0,.05-.02.06-.03.03-.01.04-.03.05-.06,0-.01.01-.01.02-.01h0s0,.03,0,.04t.05-.02s0,.02,0,.03c-.02.02-.04.03-.06.04-.02.01-.05.02-.06.03,0,0-.01,0-.01,0-.02-.02-.04,0-.06.01-.01,0-.02.01-.03.01-.05.01-.09.03-.13.06h0s0,0,0,.01h0c-.06.03-.13.06-.19.09-.02,0-.04.02-.06.03-.02.01-.03.03-.02.04,0,.02,0,.04-.01.06h-.02s-.05,0-.07.02c0,0,0,.01,0,.02.02.03,0,.04-.03.06,0,0-.02,0-.02.02,0,.03-.03.04-.05.05-.02.01-.05.01-.06.03,0,.02-.01.02-.03.03-.02,0-.05,0-.06.02-.02,0-.03.02-.05,0-.02.01-.06.01-.07.05-.04,0-.09,0-.13.01-.01,0-.03,0-.05,0-.02,0-.04-.01-.05-.02-.02-.02-.05-.03-.08-.04-.02-.03-.03-.06-.06-.09,0,0,0,0,0-.02,0,0,0-.02,0-.03-.03-.04-.03-.08-.04-.12,0-.02,0-.04-.02-.07.04-.03.06-.05.07-.09.05,0,.07-.04.11-.06.02-.01.04-.04.06-.05t.11-.05s.01-.02.02-.03c.01-.02.03-.04.06-.05.02,0,.04-.02.07-.02,0,0,.02,0,.03-.01.01,0,.04-.02.06-.03,0-.01,0-.02.02-.03,0-.01.01-.03.02-.04.06,0,.1-.03.14-.06.04,0,.09,0,.13,0,.06,0,.12,0,.17-.03.07-.03.14-.04.22-.06.08-.01.16-.05.23-.08.1-.04.21-.07.31-.11.06-.02.12-.05.19-.07,0,0,.01-.01.02-.02-.02-.01-.05.01-.06,0,.05-.03.08-.06.13-.08.02-.01.05-.02.07-.03.03,0,.06-.02.08-.03,0,0,.01-.01.02-.02-.04-.01-.08-.03-.12-.05,0,0,0-.02-.01-.03-.01,0-.03,0-.05,0v-.02s0-.01,0-.02c0,0-.02-.02-.03-.02,0-.01,0-.02-.01-.04-.01,0-.03,0-.04-.01-.04.01-.08.03-.12.04-.02,0-.04.02-.06.03-.02,0-.04.03-.06.03-.02,0-.04,0-.05.03h0s-.05.04-.09.05c-.04,0-.06.03-.09.05-.04.02-.09.03-.14.03-.04,0-.07-.01-.1-.04,0-.01-.01-.02-.02-.03-.03-.01-.05-.04-.06-.07-.01-.02-.02-.05-.02-.07,0-.03,0-.06,0-.1,0,.04-.01.09-.02.13-.01,0-.02,0-.03,0-.05-.04-.09-.08-.12-.13-.04-.06-.06-.12-.05-.2,0-.03,0-.06,0-.09,0-.02,0-.04,0-.06,0-.01.01-.03.02-.05,0-.02.03-.04.07-.04.03,0,.07-.02.1.01,0,0,.02,0,.03,0h.01c.03-.06.1-.07.16-.09,0,0,.02,0,.02,0,.06.02.11,0,.17,0,0,0,0,0,0,0,.02-.02.05-.03.07-.04.02-.02.03-.04.03-.06,0-.02,0-.03.01-.05,0-.01,0-.03,0-.04,0-.05-.02-.08-.07-.09,0,0-.02,0-.03,0-.02,0-.04.02-.05.02,0,0-.01,0-.01,0-.06,0-.07.03-.11.05-.01,0-.03.01-.04.01-.04.01-.08,0-.12.02,0,0-.02,0-.03,0,0,0-.02-.01-.03-.02-.02-.02-.06-.03-.09-.02-.01-.02-.01-.04-.04-.05-.04-.01-.06-.03-.07-.07,0,0,0-.01-.01-.01-.03,0-.03-.04-.04-.05,0-.02-.01-.04-.03-.06-.01-.02,0-.05-.01-.07,0-.02-.02-.04-.03-.06.01-.03,0-.06,0-.09,0,0,0,0,0-.02,0,0-.02-.01-.03-.02,0-.03,0-.06.02-.09.02-.03.02-.06,0-.1.01-.02.02-.05.04-.06-.02-.02-.04-.05-.05-.07,0-.03.03-.05.06-.06,0-.01-.01-.02-.02-.02,0-.02.01-.04.03-.04.02,0,.03-.02.05-.03.01-.02.01-.05.05-.06.02-.03.04-.03.06-.05,0-.02.01-.03.03-.05.01,0,.03,0,.05,0,0,0,.01,0,.01,0,.03,0,.04.01.06.03.02.03.03.03.07.01h.03s.04.02.04.04c.03,0,.05-.02.07,0l.02-.02s.04-.01.05-.03c.02.03.05.04.09.03.03,0,.05-.03.06-.06.02,0,.03,0,.05,0,0-.01,0-.02,0-.03,0-.03.01-.06.02-.09.01-.02,0-.05,0-.08.02-.01.03-.03.04-.05,0-.06,0-.11.01-.17,0-.02-.01-.04-.02-.06.01,0,.03-.02.02-.05,0-.02,0-.03,0-.05,0-.02,0-.04,0-.05,0-.02.02-.04,0-.07,0,0,0-.01,0-.01,0-.03,0-.04,0-.07,0-.02,0-.04,0-.06,0-.03-.01-.07.01-.1,0,0,0,0,0-.01,0-.02,0-.05,0-.07,0-.02,0-.03.01-.04.03-.03.03-.04-.01-.08,0-.04.04-.06.01-.1,0-.02.02-.03.03-.05,0,0,0-.02,0-.03-.03-.04,0-.07.02-.11,0-.02.03-.03.03-.05,0-.02.01-.04,0-.06,0,0,0-.01,0-.02,0-.01.02-.03,0-.06,0,0,0-.02.02-.03.04,0,.04-.04.05-.07,0-.02-.02-.03-.02-.05,0-.02,0-.05.02-.06.01-.02,0-.05.02-.07,0-.02,0-.04,0-.06,0,0,0-.02.01-.03,0-.04.01-.07-.02-.11-.03-.03-.04-.05-.06-.08,0-.01-.01-.02,0-.03,0-.02.01-.05.02-.07h0s.06-.07.12-.08c.01-.03.02-.06.04-.08.03-.03.05-.06.1-.05,0-.02.01-.03.02-.04.02,0,.05,0,.07-.02,0,0,.01,0,.02,0,.03,0,.06,0,.08,0,.02,0,.04,0,.05.01,0,0,.02.01.03.01.01,0,.03,0,.05,0,.04.04.1.05.15.07.04.02.08.05.1.09,0,.02,0,.02.03.03,0,0,.01,0,.02.01.04.04.06.09.11.11,0,0,0,.02.01.02.03.04.06.08.08.11.03.05.07.09.08.15,0,0,0,.01,0,.02.05.07.06.16.09.23,0,0,0,.02,0,.02-.02.03,0,.06,0,.09v.08c0,.08.01.16,0,.24,0,.06-.02.11-.05.16-.02.05-.05.09-.07.14-.04.09-.03.09.02.15.03.04.06.07.09.1.02.03.06.05.08.08.02.01.06.03.09.04.02,0,.04,0,.06,0,.02,0,.04,0,.06-.02.01.01.02.02.03.03t.09-.04s.04.02.05.03c.01.01.02.03.04.02,0,0,.02.01.02.02,0,0,.01,0,.03.02.02-.01.04-.02.07-.03.01.02.03.04.05.06.02,0,.05,0,.07.02.03.02.05-.02.07,0,.03.04.06.06.08.09.04,0,.05.03.07.04h.01s.05.06.07.09c0,0,.02,0,.03.01.04.02.04.02.04.04,0,.06.02.12.04.17,0,.02.03.03.04.05,0,.01-.02.02-.02.03,0,.02-.01.03-.02.04,0,.01.02.02.03.04-.01.04,0,.09-.03.13,0,0-.02,0-.03-.02-.02,0-.03.02-.05.02-.02,0-.04,0-.06,0,0,0,0,.02-.01.04h0s-.03-.01-.04-.02c-.01,0-.03-.01-.04,0-.02.01-.05,0-.06,0-.03,0-.02.05-.06.05,0,0,0-.02-.01-.03,0,0-.02-.01-.04-.02-.02,0-.05-.02-.08,0h-.02c-.08-.02-.09-.02-.19,0h0c-.05,0-.09.03-.13.04,0,0-.02.01-.03.01-.08.04-.15.07-.23.1-.08.03-.15.08-.21.14-.01.01-.03.03-.05.03-.03.02-.06.03-.08.06-.02.02-.04.05-.06.07,0,0,0,.02-.02.03,0,.02,0,.03-.01.05,0,.06-.02.12-.05.17,0,0,0,.02,0,.02,0,.06-.01.11-.02.16-.02.06,0,.12,0,.18v.06s0,.04,0,.05c0,.02,0,.03.01.06,0,.02,0,.04.02.06,0,0,0,.02,0,.03,0,.05.01.09.03.13,0,.02,0,.03,0,.05,0,.02,0,.04.02.06,0,0,.02,0,.03,0,.03-.01.06-.03.09-.05.02-.01.04-.02.06-.03h0v.04c.05,0,.09-.04.13-.06,0-.02,0-.03-.02-.05-.02-.02-.02-.03,0-.05.03-.03.06-.06.11-.06.04,0,.06-.01.08-.04-.02-.04.02-.08.05-.12-.04-.02-.07,0-.1,0,0-.02,0-.04,0-.06-.02,0-.05,0-.08.02.02-.02.03-.03.04-.05,0,0-.02,0-.03,0h0s.02-.03.03-.04c.03-.03.06-.05.1-.08.01,0,.02-.02.03-.03,0,0-.02,0-.03-.01,0-.01.02-.03.03-.05-.01-.02-.05,0-.06-.02-.05.03-.09.06-.15.09,0-.02,0-.02,0-.03,0,0,0,0,.01-.02,0,0,.01,0,.02,0,0,0,0-.01,0-.02,0,0-.02,0-.02,0Zm.53.83h0s0,0,0,0c.02.01.03,0,.04,0,0,0,.01-.01.01-.01h0s0,0-.01.01c0-.01-.02,0-.04,0Zm-.63-2.77s-.06.09-.06.13c-.02.1-.01.18,0,.28h.01s.02,0,.02,0c.01-.02.03-.03.05-.05.02-.02.05-.04.09-.04h.05s0-.01.01-.02h0c0-.05-.04-.07-.05-.09v-.02s.03.02.04.03c0-.03,0-.04-.02-.06-.04-.06-.08-.11-.13-.17Zm-1.35,2.74s0-.06-.01-.08c0-.03-.01-.03-.05-.03-.04,0-.09,0-.12-.02,0,0-.02,0-.03,0-.02.04-.03.04-.02.06,0,.04.01.07.05.09.06.05.12.05.19,0Zm.96.48s-.06.01-.07.03t.07-.03Zm1.15-.43s.06,0,.08-.02c-.04,0-.06,0-.08.02Zm-.32-.19s.02.03.04,0h-.04Zm.31.15h0s-.01,0-.01,0h0s.01,0,.02,0Zm.12-.04h.01-.01Zm-.04,0h0s0,0,0,0t0,0Zm.26-.02h0,0s0,0,0,0Z"/>
          <path class="cls-1" d="m4.37,9.5c.13.07.26.14.4.2.09.04.18.07.27.11.03,0,.06.01.08.01.04,0,.07-.01.07-.04,0-.04.02-.07.02-.1,0-.03.01-.06,0-.1,0-.01,0-.05.02-.08,0-.01,0-.02,0-.03,0-.03-.01-.06,0-.08-.01-.01-.03-.02-.04-.03.03-.05.03-.05.01-.1v-.02s0-.05-.01-.07c0-.02.03-.02.01-.04v-.03s.01-.09,0-.13c0-.02,0-.04,0-.06,0-.02,0-.04,0-.06,0-.05,0-.09,0-.14-.04-.01-.08-.02-.12-.03,0,0-.02,0-.04.01,0,0,0,0-.02,0-.02-.01-.05-.03-.07-.03h-.02c-.06-.04-.14-.05-.21-.06-.02,0-.04,0-.06,0-.02.01-.04,0-.07,0-.01,0-.02-.02-.04-.03,0,0-.01-.01-.02-.01-.05,0-.07-.03-.08-.06,0,0,0-.01,0-.02-.01,0-.03,0-.04-.01-.03-.04-.06-.07-.03-.11,0,0-.01-.02-.02-.03,0,0,0-.01,0-.02,0-.06,0-.07-.03-.13-.01-.03-.03-.06-.02-.09,0-.05.02-.09.05-.13,0-.02,0-.04,0-.06.01,0,.02,0,.03,0h.02s0-.08.04-.11c0-.04.02-.06.05-.1-.02-.02-.04-.05-.02-.08-.04,0-.05.03-.06.04h-.08s-.04.06-.09.06c-.02,0-.04.03-.05.05,0,.02-.01.03-.03.04-.02.01-.02.03-.03.05,0,.03-.02.07-.02.11,0,0,0,.01,0,.01.02.03.01.06.02.09,0,.02,0,.04.02.05.01.01.02.03.03.05,0,0,0,.02,0,.03,0,.02,0,.03,0,.04,0,.01,0,.03.01.04,0,.01,0,.01,0,.01-.03.02-.02.06-.03.08-.02.06-.02.08.02.11-.01.03-.02.06-.03.1h-.03s0,.05-.02.06c0,.01-.01.02-.02.04-.01.03-.01.03-.06.02,0-.01,0-.03.01-.04.04-.05.05-.1.05-.15,0,0,0-.02,0-.03,0-.02-.02-.03-.03-.04-.02,0-.05.01-.07.02,0-.01-.01-.02-.02-.03-.04,0-.06,0-.07.03v.14s.02,0,.02,0c0-.02,0-.05,0-.07,0,.04,0,.07,0,.11,0,.03,0,.05,0,.07,0,.03,0,.05-.03.07,0,.01,0,.03-.01.04,0,0,.02,0,.02,0,0,.03,0,.06-.01.08,0,.01,0,.03-.02.04-.03.03-.03.06-.03.09,0,0,0,0,.01,0,.01.05,0,.1-.01.14-.01.04,0,.08-.02.12,0,.04,0,.08,0,.13,0,.06-.01.11-.01.17,0,.03,0,.07,0,.11h0s0,.07.02.09c0,0,0,.02.01.03.01,0,.03,0,.04.01.02,0,.03.02.03.03,0,.02,0,.04.02.05.05.03.06.07.05.12,0,.04,0,.08.04.11.01,0,.02.02.02.03,0,.01,0,.03-.02.04h0s-.04.06-.07.07c0,.02.01.03,0,.05-.02.02-.03.05-.03.08-.04.01-.08.01-.12.04-.03.02-.08.03-.12.03-.03.02-.07,0-.1,0-.01,0-.03-.01-.06-.02-.02-.02-.04-.06-.06-.09,0-.01-.02-.02-.03-.02,0,0-.02-.02-.02-.02,0-.03-.02-.05-.04-.05-.05-.03-.07-.09-.08-.13,0-.01-.01-.03-.03-.04,0-.02-.03-.03-.04-.06,0-.02-.02-.03-.04-.05,0,0-.01-.02-.02-.04,0-.02-.01-.04-.02-.06-.01-.02,0-.04-.04-.04,0,0,0-.01-.01-.02-.02-.03-.04-.07-.07-.1-.02-.02-.03-.05-.03-.08,0-.04,0-.08-.03-.11-.02-.03-.01-.05,0-.08,0-.02,0-.04,0-.06,0-.07-.01-.14-.02-.21,0-.09,0-.18,0-.27,0-.15.02-.29.04-.44.01-.13.04-.26.05-.39,0-.09.01-.18.02-.27v-.19c0-.1,0-.21,0-.31,0-.05,0-.1,0-.15,0-.02,0-.04.02-.05.01-.01.02-.03.02-.05,0-.03,0-.06,0-.1.02.03.03.06.05.09,0,0,0,.02,0,.03-.03.03-.02.07-.02.11,0,.02,0,.03,0,.05,0-.03.01-.05.01-.08,0-.02,0-.04.02-.05,0,0,0-.02,0-.03,0-.04,0-.08,0-.12,0-.06,0-.11.02-.17.02-.05.01-.08-.05-.1-.03-.01-.03-.04-.03-.07,0-.05,0-.1.01-.15,0,0,0,0,0-.02.01-.03.02-.06.01-.09,0-.04,0-.04.05-.06.02,0,.04,0,.06,0,.01,0,.03,0,.05,0,.04-.01.07-.01.12-.02,0-.02.02-.03.05-.05.06-.03.12-.04.19-.06.06-.03.12,0,.18.01.03.01.04.04.06.05,0,0,.02,0,.02,0v-.02s-.02-.02-.01-.04c.02,0,.06,0,.06-.03,0,0,0-.01.02-.02.04-.02.07-.05.1-.08.04-.03.08-.06.13-.09.02-.02.06-.03.09-.05.04-.02.08-.04.1-.08.01-.03.03-.05.05-.07,0,0,.01-.02.02-.03.03-.02.05-.05.07-.07,0-.01.02-.02.04-.03.08-.03.16-.07.23-.12.03-.02.07-.04.1-.07.06-.02.09-.06.13-.1.04,0,.06-.04.1-.04,0,0,.01,0,.02-.01,0,0,.02,0,.03,0,.01-.02.03-.04.05-.07,0,0,.02,0,.03.02.02.01.03.01.06.01.02,0,.02.03.05.03h.06s.07.01.1.03c.02.02.05.03.07.02.03,0,.06,0,.07.01,0,0,.02,0,.04,0,0,0,0,.01,0,.02,0,.01.01.02.04.02.03,0,.07.03.09.06,0,.02.01.03.02.04.05.04.06.09.05.15,0,.01,0,.03-.02.03-.03.02-.06.05-.08.08,0,0,.02.02.03.02.01,0,.03,0,.05.01.04.02.05.02.05.06,0,.02,0,.04,0,.06,0,.02-.02.04-.03.06,0,0-.01,0-.02-.02-.02-.02-.05-.03-.09-.03-.05,0-.09,0-.14.01,0,0-.02.02-.03.03,0,.01,0,.02,0,.04-.04,0-.07,0-.1-.01,0,.02-.02.05-.04.07h0s-.02.03-.02.05c0,.02,0,.03-.01.05-.01.01,0,.04.03.04.05,0,.09-.01.13-.04,0,0,0-.02,0-.02,0,0,.02.01.03.01s.02,0,.04-.01c0,.02.02.04.03.06,0,0,.01.02.03.02.03-.02.02,0,.04.01.02,0,.01-.04.03-.05.02,0,.02,0,.03.01,0-.01,0-.03.01-.04,0-.02.04-.02.04-.04,0-.02.01-.04.02-.05.02,0,.03,0,.03.02,0,.01,0,.03,0,.04,0,.02,0,.03,0,.04,0,.03,0,.05-.02.08,0,.02-.02.04-.02.06,0,.03-.01.07-.03.1,0,.03-.02.06-.02.1,0,.02-.01.05-.02.07-.02.05-.03.08-.03.13s0,.1,0,.15c0,.02,0,.04.01.06.03.04.04.09.05.13-.01.01-.03.03-.06.05v.11s0,.03.01.04c.03.03.03.07.03.11,0,.05-.02.09-.01.13,0,0,0,.02-.01.03,0,0-.01.01-.02.02,0,0,0,.01,0,.02.02.01.04.02.03.04-.01.04,0,.08,0,.13,0,.05.01.1.01.16,0,.04,0,.08-.03.11,0,.03.02.05.02.08,0,.03,0,.05,0,.07,0,.06,0,.12,0,.18,0,.02,0,.05,0,.08-.02.09-.01.19-.01.28,0,.11,0,.21,0,.32v.07s0,.05,0,.06c0,.03,0,.06,0,.08.01.08,0,.15-.01.22,0,.06,0,.12,0,.18,0,.1.01.2,0,.3,0,.06,0,.12,0,.18,0,.04,0,.08,0,.12v.02s.02.06.02.07c0,.06-.02.12-.03.17,0,.05-.03.09-.06.14-.02.03-.03.07-.06.09-.02.03-.06.05-.09.08,0,.01-.02.02-.05.02-.02-.02-.02-.05-.02-.08,0-.04,0-.08.02-.11,0-.03-.03-.04-.06-.03-.04,0-.05,0-.11-.04-.02,0-.03,0-.05-.01,0-.03-.02-.06-.04-.1-.01,0-.03-.01-.05-.01-.07,0-.1-.03-.13-.07-.04-.05-.08-.09-.14-.12-.07-.04-.12-.1-.19-.15.01-.02.03-.04.03-.06,0-.02-.02-.04-.03-.06,0-.01-.02-.03-.03-.05h.05s0-.04-.02-.07c.03,0,.06.02.09.03-.03-.06-.07-.09-.14-.11-.04,0-.07-.03-.09-.06h0s.01,0,.02,0c.03.01.06.02.08.03,0,0,.02,0,.02.02h.01,0s-.02-.02-.03-.02t-.08-.03s-.02-.05-.04-.06c-.05-.03-.1-.06-.14-.09,0,0-.02-.01-.03-.02-.03-.02-.06-.05-.1-.08,0,0,0-.01,0-.02h0Zm-.58-.24s-.02.03,0,.05c0,0,0,.02.03.02,0-.04,0-.08,0-.12h0s.04-.04.01-.07h0s.02-.02.02-.03,0-.02,0-.04t-.03,0s-.01.05-.02.08c0,0-.02-.01-.02-.01,0-.03,0-.06.02-.08,0-.02,0-.04,0-.07,0,.03-.01.05,0,.07-.01,0-.02,0-.03.02,0,.07-.03.14-.04.21,0,.02,0,.04,0,.06,0-.02.02-.04.02-.06,0-.02,0-.04,0-.06,0-.02,0-.04.02-.05,0,.01,0,.02,0,.02,0,.01.01,0,.02,0,0,.02,0,.04-.02.06h0Zm-.15-.06s-.01,0-.01,0c0,.05-.02.09-.05.12h0s0,.02.01.03c0,0,0,0,.02-.01,0,.01,0,.03,0,.05.01-.07.02-.13.03-.19h0s0-.02,0-.02h0s0,.02,0,.02Zm.54-2.73s-.01.07,0,.1c0,0,0,.03,0,.03-.02.03-.01.06,0,.09.03.04.05.08.02.13,0,0-.02.02-.03.02,0,.02,0,.04,0,.05,0,.02,0,.04,0,.05,0,.01-.03.02-.04.03v.1s.03-.02.05-.03c.03-.02.06-.03.09-.04.03,0,.06-.01.08-.01.05,0,.1-.02.14-.02.03,0,.06,0,.09,0,.04,0,.07-.02.1-.02.08-.02.16,0,.24,0,0,0,.01.01.03.02.01,0,.02.02.03.02.04,0,.07-.02.11,0,.03.02.05.04.05.07,0,.01,0,.02-.01.03h0s.01,0,.01,0c.01-.03.04-.06.02-.09,0-.02,0-.04,0-.07,0-.02-.02-.05-.03-.08,0-.02.01-.03.01-.05,0-.02,0-.03,0-.05,0-.06,0-.12-.02-.18,0-.02,0-.04,0-.06,0-.02-.03-.03-.05-.05h0s-.05-.06-.05-.09c0-.03,0-.06,0-.09,0-.02,0-.06,0-.08,0-.02,0-.03,0-.05,0,0,0-.02,0-.02,0-.01.01-.02.01-.02,0,0-.01-.01-.01-.01-.03.02-.05-.01-.07,0-.01.01,0,.03-.03.04-.02,0-.03.02-.05.04-.01.02-.02.03-.03.04-.04.03-.05.08-.08.12,0,.03-.02.05-.05.06,0,0-.01.02-.01.03,0,.01-.02.03-.03.04,0,.01-.01.02-.02.03-.01.02-.04,0-.05.01,0,0-.01.01-.02.02,0,0-.01,0-.02,0-.06,0-.12,0-.18-.01-.06-.02-.12-.04-.18-.06,0,0-.01,0-.03,0Zm-.39.66s.05-.05.06-.08c0-.02.01-.04.02-.05.02-.03.04-.06.05-.1,0,0,0-.02.02-.02.03-.02.05-.04.05-.07.01,0,.02,0,.04.01,0-.02,0-.04-.01-.05,0-.02,0-.03,0-.05.01-.03.01-.05.01-.08-.02,0-.04-.01-.06,0-.02,0-.04,0-.05.01-.05,0-.1.02-.13.06-.02.05-.05.11-.04.17,0,.02,0,.05,0,.08,0,.02,0,.03,0,.04.01,0,.02.01.03.02,0,.03.01.07-.02.1,0,0,0,.02,0,.03Zm1.4.85s0-.02,0-.03c0-.02,0-.04,0-.06,0-.06,0-.12-.01-.17,0-.02-.01-.02-.02-.04-.09.02-.13.06-.18.12,0,0,0,0-.01,0,0,.02-.01.05-.05.04,0,0-.02.01-.03.02,0,.02-.02.03-.03.05-.01.02-.01.03,0,.05.03.02.05,0,.07,0,0,0,0-.02,0-.02.04,0,.06-.02.1-.03,0,.01,0,.03,0,.03.02.01.04.02.06.03.02-.01.04,0,.07,0Zm-1.51-.78s-.04-.02-.06-.05c0-.01-.02-.03-.04-.03-.03.07,0,.14.05.23.01-.05.03-.1.05-.15Zm.32-.85s-.05-.07-.08-.09c-.03.02-.03.03-.02.04.03.03.06.05.08.07,0,0,.01,0,.02,0Zm-.24,3.1s.02-.03.04-.05c-.02,0-.03,0-.04,0v.04Zm.03,0s0,.01,0,.02h0s0,0,0,0v-.02Zm.38-2.7h0s0,.02,0,.02h0s0-.02,0-.02h0Zm-.26,1.9h0s0,0,0,0c0,0,0,0,0,.01h0Zm-.13.87h0s0,0,0,0c0,0,0,0,0,0,0,0,0,0,0,0Z"/>
          <path class="cls-1" d="m1.86,6.69s-.02.03-.04.05h.03s.06-.06.1-.06c0,0,.01,0,.02-.01,0,0,.01-.02.01-.02.05-.02.06-.06.11-.07t.01.04s.02,0,.04.01c.01-.01.03-.02.05-.04.02.02.04.07.04.09,0,.04.02.06,0,.1,0,0,0,.02,0,.03,0,.02.02.03.03.03,0,.03-.01.05-.04.07-.03.02-.05.06-.08.07,0,0-.02.01-.02.02-.01.04-.04.07-.07.1-.02.02-.04.04-.06.07-.03.03-.06.06-.09.09-.02.04-.06.07-.09.1,0,0-.02.02-.02.04,0,.02-.02.04-.05.05-.04.02-.06.06-.08.09-.01,0-.02.02-.04.03-.02.02-.04.05-.06.07-.04.03-.07.07-.1.12,0,.01-.01.02-.04.03,0,0-.02,0-.02.02-.03.02-.04.05-.05.08,0,.03-.01.05-.04.08-.03.03-.04.06-.06.1-.02.01-.04.03-.07.03-.02.01-.03.03-.05.04-.01.04-.02.07-.03.1,0,.03,0,.06,0,.08-.01.04,0,.08,0,.12,0,.03-.02.07-.03.1-.01.01-.03.03-.05.05-.01,0-.03.02-.05.03-.02,0-.04,0-.06.01-.02,0-.04.01-.06.03-.02.01,0,.03,0,.05,0,0,0,.01,0,.01-.03.02-.06.04-.07.06,0,.02-.02.03-.04.04-.03,0-.06.02-.09.01-.04-.01-.08-.02-.12,0-.03,0-.07,0-.11,0-.05,0-.1-.03-.15-.06,0,0,.01-.02.02-.03,0-.03-.04-.05-.06-.07-.01-.02-.03-.05-.04-.08-.05,0-.06-.05-.09-.08,0-.03-.03-.05-.03-.08,0-.02,0-.04,0-.07,0-.02,0-.03-.02-.04-.03-.02-.04-.05-.05-.08,0-.02,0-.06-.02-.08,0-.01,0-.03,0-.04.03-.04.03-.07.07-.1h0s0-.05.03-.07c.02-.02.03-.04.05-.06.01-.02.04-.03.06-.04,0-.01.02-.02.04-.02.01,0,0-.04.04-.02,0,0,.02-.01.04-.02.02,0,.03-.01.04-.03l.02-.02s.05-.05.07-.06c0,0,.01-.02,0-.03,0-.02.01-.05.02-.07.01-.02.03-.04.06-.03,0,0,.01-.01.03-.02.03.02.07.02.11,0,.02,0,.04-.02.05-.04.05-.03.08-.06.13-.09.02-.02.06-.03.08-.04.02-.02.03-.04.05-.07.01,0,.03-.02.04-.03.05-.03.1-.07.15-.1.05-.03.1-.05.15-.05.02,0,.04,0,.05-.03,0,0,0,0,0,0h-.03s.02-.03.03-.03c.02,0,.04,0,.06,0,0-.04.02-.06.06-.07.02,0,.02-.01.02-.02,0-.02.02-.03.03-.02.06,0,.07-.03.09-.06,0,0,.01-.02.03-.03.03,0,.06-.01.08-.03.01,0,.02-.01.03-.02-.01-.02-.04,0-.05,0h0s.07-.07.12-.07h0Z"/>
          <path class="cls-1" d="m.82,3.76s-.05,0-.06-.03c0-.01-.02-.03-.04-.03,0,0-.02,0-.02,0,0-.01,0-.02,0-.03h0s-.07-.04-.07-.08h0s-.04-.04-.06-.07c0-.02-.04-.03-.06-.05,0-.01-.02-.02-.03-.03-.02,0-.02-.02-.03-.03-.01-.01,0-.02,0-.04,0-.01-.03-.03-.05-.04-.01-.03,0-.05.02-.08,0,0-.02-.01-.03-.02,0-.02.01-.03.01-.04,0-.05.03-.09.03-.13,0,0,0,0,0,0,.04-.02.02-.05.05-.06.04-.03.06-.07.07-.11v-.02s.03-.02.04-.03c0,0,0-.03.02-.04.02,0,.04-.01.05-.03,0,0,.01,0,.02,0,.03,0,.03-.03.05-.03.02,0,.01-.02.03-.03.08,0,.15,0,.19-.07,0,0,.01-.02.03-.02.04,0,.07-.02.11-.03.04-.01.07-.01.12,0,.02,0,.03,0,.05,0,.09-.02.19-.03.28,0,.06.02.12.05.16.1.03.04.07.08.09.13,0,.01,0,.03,0,.04,0,.02.02.05.03.07-.05.03-.03.08,0,.12-.02.01-.02.03-.02.06,0,.03,0,.05-.02.07-.01,0-.02.02-.02.02,0,.04-.03.08-.04.11,0,.01,0,.02-.02.04,0,.05-.02.1-.02.15,0,.05,0,.11,0,.16,0,.03,0,.07,0,.1,0,.01,0,.03,0,.04.02.03,0,.06,0,.09,0,.02,0,.04,0,.06,0,0,0,.01,0,.02.02.05,0,.08-.03.12-.02.03-.06.04-.1.03,0,0,0,0-.02,0-.04-.02-.08-.02-.13-.02t-.07-.05s0-.05-.04-.07c-.01,0-.03,0-.05-.02-.01,0-.03-.03-.04-.03-.01-.01-.03,0-.05,0,0,0-.02.01-.03.02-.03-.01,0-.03-.02-.05-.03,0-.07-.02-.09-.03-.01,0-.02-.02-.04-.01,0,0-.01,0-.01,0-.07,0-.1-.02-.12-.07Zm.71-.73s.02-.05.05-.06c.03-.01.04-.03.05-.06,0-.02,0-.05.03-.07,0,0,0-.02,0-.03-.01-.02-.03-.03-.06-.04-.03,0-.06,0-.08.02-.03.03-.05.07-.1.08h0s-.04.04-.06.06c-.02.01-.04.04-.05.05,0,0,0,.02,0,.02,0,0,.01.01.02.01.02,0,.04-.01.05-.02.06,0,.11,0,.15.03Zm-.11.19v-.05s0-.05-.03-.06c-.03-.01-.06-.02-.1-.03,0,0-.03,0-.04,0-.01,0-.02.02-.02.03,0,0,0,.01,0,.02.02.02,0,.04,0,.05,0,0-.01.01-.02.02,0,0,.01.02.02.03,0,.03.04.05.06.08.01.02.04,0,.06,0h0s.04,0,.05,0c.01-.03.03-.05.04-.07,0-.01-.02-.02-.02-.03Z"/>
          <path class="cls-1" d="m.94,4.8s.06.05.1.06c.09.04.17.06.25.1.02,0,.04.02.05.04.02.04.05.07.08.11,0,.01,0,.02,0,.02.01.06.03.1.06.15,0,0,0,.01,0,.02,0,.04,0,.07.03.09.02.03.03.05.03.09,0,.02,0,.04,0,.06,0,.01,0,.03-.02.04,0,.01,0,.03-.03.04-.05.04-.01.07,0,.11.01.01.02.02.03.04-.02,0-.04.01-.06.02-.03.04.01.07.02.1,0,.04-.01.08-.06.11-.01,0-.03,0-.04,0s-.03,0-.04,0c-.05.04-.1.06-.16.08-.02-.02-.04-.04-.08-.04,0,0-.02,0-.04,0-.02.01-.05,0-.06-.02h0s-.07.02-.12.04c-.02,0-.04-.03-.07-.05-.01,0-.03,0-.04,0,0,0-.02,0-.02,0-.01-.04-.04-.06-.07-.08,0-.02.02-.04.02-.05,0-.01,0-.03,0-.03-.03,0-.04-.02-.06-.04,0-.01-.02-.03-.03-.04v-.05s0-.07-.04-.1c-.02-.01-.04-.03-.05-.04h-.02s0-.03,0-.04c.01-.02,0-.04,0-.06-.04,0-.06.05-.09.01,0-.03,0-.06-.02-.09,0,0,0-.01,0-.01,0-.01.01-.02,0-.04-.02-.04-.01-.08.02-.1,0-.02,0-.04-.01-.06,0-.01,0-.03,0-.05,0-.02,0-.04-.02-.06,0,0,0-.02,0-.02.02-.03,0-.05,0-.08-.01-.02,0-.04,0-.05.01-.02.03-.03.05-.04.03-.03.06-.05.07-.08,0,0,0-.01.01-.01.02-.01.04-.03.06-.04,0,0,.02-.01.03-.01.04,0,.06-.02.08-.05.02.02.03.03.05.03,0,.01.03.02.04.03,0,0,.02,0,.03,0h.02s.08.03.13.01Z"/>
          <path class="cls-1" d="m4.29,9.37s0-.02,0-.02c-.04-.04-.07-.08-.09-.12-.01-.02-.02-.04-.03-.06.02,0,.03,0,.04,0,0,.03,0,.05.04.07.02.01.03.04.04.05.03.02.03.04.01.07h0Z"/>
          <path class="cls-1" d="m5.13,5.14s0-.02.01-.03c0,0,.01,0,.02-.01.03,0,.06-.02.09-.03.02,0,.05-.02.08-.04h0s0,.02,0,.02c-.02.01-.05.02-.07.03-.04.02-.08.03-.14.06Z"/>
          <path class="cls-1" d="m4.08,8.74s0,.04,0,.06c0,.03,0,.05,0,.08,0,0-.02,0-.02,0,0-.04,0-.08,0-.11,0,0,0-.01.01-.02h0Z"/>
          <path class="cls-1" d="m4.38,9.49s-.02,0-.02,0c-.03-.02-.06-.05-.08-.08,0,0,0,0,0-.02.01.02.02.04.04.05.01,0,.03.02.04.03,0,0,0,.01,0,.02h0Z"/>
          <path class="cls-1" d="m4.29,9.37s.04,0,.06,0c0,0,.03.04.04.05-.01,0-.02,0-.03,0-.01-.01-.03-.03-.05-.04,0,0-.01,0-.02-.01h0Z"/>
          <path class="cls-1" d="m5.45,4.99h0s.04-.03.07-.02c0,.02-.02.03-.05.04-.01,0-.02-.01-.02-.02Z"/>
          <path class="cls-1" d="m3.43,5.7s-.03.04-.07.05h0s.03-.06.07-.05h0Z"/>
          <path class="cls-1" d="m4.08,8.92s.02.05.03.07h0s-.02-.04-.03-.06c0,0,0,0,0,0Z"/>
          <path class="cls-1" d="m5.01,4.09s0,.01-.01.02c0,0-.01,0-.02,0,0-.02.03-.03.04-.04,0,.01,0,.02,0,.03Z"/>
          <path class="cls-1" d="m5.43,1.93s0,0,0,0c0,0,0,.02,0,.02h-.01s-.01,0,0-.02c0,0,0,0,.02,0Z"/>
          <path class="cls-1" d="m4.13,8.79v.05s0-.03,0-.05Z"/>
          <path class="cls-1" d="m5.63,6.09s-.01,0-.01,0c0,0,0-.02.01-.02h0s0,.02,0,.03Z"/>
          <path class="cls-1" d="m3.15,6.84s0,0-.02,0h0s0-.02.01-.02c0,0,0,0,0,.01Z"/>
          <path class="cls-1" d="m5.3,5.02h0s0-.02.02-.02c0,0,0,0,0,0,0,0-.01,0-.02.01Z"/>
          <path class="cls-1" d="m4.12,9.08s0,0,.01,0h0s0,0,0,0h0Z"/>
          <path class="cls-1" d="m1.86,6.69s0,0,.01-.01h0s0,0,0,0c0,0-.02,0-.02,0h0Z"/>
          <path class="cls-1" d="m4.47,9.47s0,.02,0,.02h0s0,0-.02,0c0,0,0,0,.01-.01Z"/>
          <path class="cls-1" d="m4.88,4.69s.01-.02.02-.03c0,.01,0,.01,0,.01-.01,0-.02.01-.03.01h0Z"/>
          <path class="cls-1" d="m5.52,6.07h.01s.02,0,.02,0c0,0-.02,0-.04,0h0Z"/>
          <path class="cls-1" d="m5.52,5.02s0,0,0,0c0,0,0,0,.01,0h0s0,.01-.01.02Z"/>
          <path class="cls-1" d="m5.38,5.01s0,0,0,0h-.01s0,0,0,0Z"/>
          <polygon class="cls-1" points="3.36 5.76 3.38 5.77 3.36 5.77 3.36 5.77 3.36 5.77 3.36 5.76"/>
          <path class="cls-1" d="m3.36,5.75h0s0,.01,0,.01h0s0,0,0,0h0s0,0,0,0h0Z"/>
          <rect class="cls-1" x="5.41" y="1.62" width="0" height="0" transform="translate(.5 4.41) rotate(-46.25)"/>
          <path class="cls-1" d="m5.69,6.05h0s0,0,0,0h0Z"/>
          <path class="cls-1" d="m5.7,6.02s0,.02-.01.03h0s0-.02.01-.03h0Z"/>
          <path class="cls-1" d="m3.77,5.25s0,0,0,0c0,0,0,0,0,0h0s0,0,0,0Z"/>
          <polygon class="cls-1" points="4.14 8.74 4.13 8.74 4.13 8.73 4.14 8.74"/>
          <polygon class="cls-1" points="5.26 5.11 5.26 5.12 5.26 5.11 5.26 5.1 5.26 5.11"/>
          <path class="cls-1" d="m5.7,6.02h0s0,0,0-.01h0s0,.02-.01.01h0Z"/>
          <path class="cls-1" d="m3.05,5.98h.01s0,0,0,0h0s0,0,0-.01h0Z"/>
          <rect class="cls-1" x="4.21" y="9.34" width="0" height="0" transform="translate(-3.68 2.8) rotate(-26.08)"/>
          <path class="cls-1" d="m4.57,9.72s0,0,0,0h0s0,0,0,0h0Z"/>
          <path class="cls-1" d="m4.57,9.72s.02,0,.02.01h0s0-.01-.02-.01h0Z"/>
          <path class="cls-1" d="m4.6,9.73s.03,0,.04.01h0s-.02,0-.04-.01h0Z"/>
          <path class="cls-1" d="m4.67,9.75s-.02,0-.04,0h0s.03,0,.04,0h0Z"/>
          <path class="cls-1" d="m3.19,5.77s-.04,0-.06,0c.02,0,.04,0,.06,0Z"/>
          <path class="cls-1" d="m3.19,5.85h0s0,0,0,0c0,0,0,0,0-.01,0,0,0,0,0,0Z"/>
          <path class="cls-1" d="m3.19,5.81h0s-.01,0-.01,0h.01s0,0,0,0Z"/>
          <path class="cls-1" d="m5.01,2.31s-.02-.02-.03-.03c.02,0,.02,0,.03.03Z"/>
          <polygon class="cls-1" points="4.97 2.24 4.96 2.24 4.96 2.24 4.97 2.24"/>
          <path class="cls-1" d="m3.79,9.25s0,0,0,0h0s0,0,0,0h0Z"/>
        </g>
      </g>
      <g>
        <path class="cls-1" d="m27.01.64v8.87h-.91v-.45h-6.47v.45h-.87V.64h8.25Zm-.91,7.57V1.48h-6.47v6.73h6.47Zm-.73-4.32c-.24.92-.61,1.72-1.06,2.39.17.44.39.71.64.76.12.04.21-.37.26-1,.15.15.43.35.59.44-.14,1.16-.56,1.55-1.13,1.32-.37-.1-.66-.4-.9-.84-.35.39-.74.73-1.18,1.01-.1-.14-.37-.44-.52-.58.27-.16.52-.35.76-.55-.97.16-1.97.35-2.76.5l-.1-.71c.72-.1,1.8-.27,2.87-.44v.62c.23-.19.44-.4.61-.64-.24-.77-.39-1.75-.49-2.82h-2.9v-.7h2.84c-.02-.32-.04-.65-.06-.97h.76c0,.32.03.66.05.97h1.39c-.2-.23-.62-.52-.98-.69l.43-.44c.36.17.79.45,1.01.67l-.44.46h.61v.7h-1.96c.07.73.17,1.42.28,1.98.27-.49.47-1.02.62-1.61l.73.16Zm-2.79,0v1.94h-2.19v-1.94h2.19Zm-.64.54h-.93v.87h.93v-.87Z"/>
        <path class="cls-1" d="m31.18.89c-.26.83-.59,1.84-.88,2.65.63.81.77,1.54.77,2.13s-.12,1.01-.4,1.23c-.14.1-.31.16-.51.19-.17.02-.41.03-.63,0,0-.21-.08-.56-.2-.78.19.01.35.02.49.01.11-.01.2-.03.28-.09.13-.1.19-.36.19-.67,0-.51-.15-1.19-.76-1.95.24-.68.47-1.52.64-2.19h-1.02v8h-.79V.59h2.12l.12-.03.58.33Zm1.15,2.67c.13-.17.24-.36.35-.55-.21-.21-.5-.49-.78-.71-.21.29-.44.55-.67.78-.12-.13-.41-.37-.57-.48.68-.58,1.22-1.47,1.51-2.41l.71.16c-.07.2-.15.39-.23.58h.9l.12-.03.48.17-.05.21.48-.12v-.46h1.71l.16-.04.51.3c-.29.83-.76,1.72-1.26,2.32.39.59.89,1.1,1.44,1.41-.19.15-.44.44-.53.66-.43-.27-.81-.64-1.15-1.07v.59h-2.95v-.43c-.33.36-.68.67-1.03.9-.1-.18-.32-.43-.48-.58.44-.25.85-.64,1.22-1.1-.45.08-.85.15-1.26.21l-.1-.59c.42-.04.88-.1,1.44-.16l.02.42Zm.62,3.66c-.38.63-.93,1.38-1.36,1.84-.18-.14-.52-.37-.73-.48.44-.44.94-1.08,1.25-1.64l.83.28Zm1.52-.72v2.95h-.87v-2.95h-2.02v-.77h4.9v.77h-2.01Zm-2.14-4.91c-.04.07-.08.14-.12.21.26.18.54.42.77.62.12-.26.22-.56.31-.84h-.96Zm3.03,2.57c-.56-.77-.99-1.72-1.27-2.75-.29,1.09-.75,2.01-1.31,2.75h2.58Zm-.55-2.77c.14.42.3.84.5,1.23.25-.36.47-.81.65-1.23h-1.15Zm.93,5.46c.45.52,1.09,1.25,1.38,1.67l-.7.48c-.29-.43-.89-1.19-1.36-1.73l.67-.42Z"/>
        <path class="cls-1" d="m46.64,3v.69h-1.7l-.08.85h-5.66l.11-.85h-1.57v-.69h1.65l.1-.81h5.58l-.08.81h1.64Zm-3.03,5.1c1.01.26,2.04.59,2.71.82l-.62.6c-.69-.28-1.86-.67-2.99-.98l.38-.43h-2.01l.59.4c-.81.45-2.16.83-3.27,1-.11-.17-.33-.47-.49-.65.96-.13,2.14-.45,2.83-.76h-1.7v-3.2h6.31v3.2h-1.75Zm-4.73-5.39h-.83v-1.67h3.7c-.11-.24-.25-.48-.37-.69l.79-.24c.2.27.4.63.53.92h3.61v1.67h-.87v-.92h-6.57v.92Zm1.06,3.09h4.49v-.38h-4.49v.38Zm0,.88h4.49v-.39h-4.49v.39Zm0,.9h4.49v-.4h-4.49v.4Zm.14-3.55h1.61c.02-.14.04-.28.05-.43h-1.61l-.05.43Zm.17-1.32l-.05.38h1.61l.03-.38h-1.58Zm3.82,1.32l.04-.43h-1.59c-.02.15-.04.3-.05.43h1.6Zm.11-1.32h-1.57l-.04.38h1.58l.03-.38Z"/>
        <path class="cls-1" d="m50.99,7.87c-.69.55-1.93,1.08-2.95,1.31-.13-.2-.37-.52-.56-.69,1-.16,2.19-.53,2.83-.94l.67.32Zm5.18-1.54v.79h-3.9v2.34h-.9v-2.34h-3.84v-.79h3.84v-.61h-2.92v-.71h2.92v-.61h-3.4v-.74h1.99c-.1-.25-.27-.6-.44-.87l.57-.14h-2.52v-.75h1.47c-.15-.4-.44-.95-.72-1.36l.8-.28c.31.43.65,1.05.79,1.44l-.52.2h1.11V.18h.86v1.74h.98V.18h.87v1.74h1.08l-.38-.13c.24-.4.55-1.04.69-1.5l.95.25c-.27.5-.57,1-.82,1.38h1.42v.75h-2.59l.77.2c-.22.3-.44.57-.64.81h2.1v.74h-3.51v.61h3.04v.71h-3.04v.61h3.9Zm-5.75-3.67c.2.28.38.66.46.89l-.44.12h2.7l-.36-.11c.19-.25.41-.64.55-.9h-2.92Zm2.99,4.83c.87.33,2.08.81,2.74,1.13l-.61.55c-.62-.31-1.82-.85-2.72-1.2l.59-.48Z"/>
        <path class="cls-1" d="m58.68,4.83c0-2.05.83-3.68,1.96-4.83l.75.36c-1.08,1.15-1.82,2.61-1.82,4.47s.74,3.32,1.82,4.47l-.75.36c-1.13-1.16-1.96-2.78-1.96-4.83Z"/>
        <path class="cls-1" d="m65.12,8.36c0,.43-.07.71-.33.86-.25.15-.63.17-1.25.17-.03-.24-.13-.65-.24-.88.38.01.72.01.83.01.12,0,.16-.05.16-.18v-2.42l-1,.63-.28-.66c-.07,1.26-.25,2.6-.67,3.59-.17-.15-.54-.36-.75-.43.61-1.4.64-3.41.64-4.88V.55h2.89v7.81Zm-2.06-4.2c0,.45-.01.97-.03,1.49.35-.14.79-.33,1.26-.53v-1.15l-.38.32c-.19-.27-.53-.69-.86-1.04v.91Zm0-2.74v1.41l.31-.22c.31.28.67.65.93.95V1.41h-1.23Zm7.34,3.37c-.35,1.25-.94,2.22-1.73,2.97.59.41,1.28.71,2.06.9-.21.19-.48.56-.59.81-.84-.24-1.57-.61-2.2-1.1-.67.48-1.45.83-2.26,1.08-.11-.25-.31-.61-.5-.81.74-.19,1.45-.49,2.07-.89-.58-.61-1.05-1.35-1.4-2.18l.32-.11h-.62v-.88h4.09l.16-.03.59.24Zm-3.08-3.11c0,.92-.27,2-1.51,2.7-.11-.18-.43-.53-.59-.66,1.1-.59,1.26-1.38,1.26-2.05V.57h3.13v2.27c0,.28,0,.38.13.38h.48c.12,0,.32-.02.44-.06l.07.76c-.13.05-.33.06-.5.06h-.57c-.76,0-.93-.32-.93-1.15v-1.38h-1.41v.23Zm-.6,3.78c.28.66.7,1.23,1.23,1.73.52-.47.96-1.05,1.26-1.73h-2.49Z"/>
        <path class="cls-1" d="m73.68,4.83c0,2.05-.83,3.67-1.96,4.83l-.75-.36c1.08-1.15,1.82-2.61,1.82-4.47s-.74-3.32-1.82-4.47l.75-.36c1.13,1.16,1.96,2.78,1.96,4.83Z"/>
      </g>
    </g>
  </g>
</svg>