<?xml version="1.0" encoding="utf-8"?>
<!-- Generator: Adobe Illustrator 27.8.1, SVG Export Plug-In . SVG Version: 6.00 Build 0)  -->
<svg version="1.1" id="_圖層_2" xmlns="http://www.w3.org/2000/svg" xmlns:xlink="http://www.w3.org/1999/xlink" x="0px" y="0px"
	 viewBox="0 0 623.5 193.8" style="enable-background:new 0 0 623.5 193.8;" xml:space="preserve">
<style type="text/css">
	.st0{fill:#FFFFFF;}
	.st1{fill:none;stroke:url(#SVGID_1_);stroke-width:1.98;stroke-miterlimit:10;}
	.st2{fill:url(#SVGID_00000092427675912246780930000003827567825403149700_);}
	.st3{fill:url(#SVGID_00000158020474867111118410000007779466920763555970_);}
	.st4{fill:url(#SVGID_00000181791249581098741830000015058353720063153830_);}
	.st5{fill:url(#SVGID_00000124865747896719781180000004486174737850401174_);}
	.st6{fill:url(#SVGID_00000121265456333099406670000015579765494858241419_);}
	.st7{fill:url(#SVGID_00000140015917385577133860000003595032027379317407_);}
	.st8{fill:url(#SVGID_00000079482251585026130630000012672976043049724061_);}
	.st9{fill:url(#SVGID_00000087393143600068524410000001278852890128961712_);}
	.st10{fill:url(#SVGID_00000178927243287858633390000002702125716647407503_);}
	.st11{fill:url(#SVGID_00000137109013754684766150000010526625713529835954_);}
</style>
<g id="_圖層_1-2_00000101103919077604525620000002060391648111178371_">
	<g>
		<path class="st0" d="M77.1,55.7c-2.4-2.6-5.2-4.9-8.2-6.9l3.7-4.1c3,2.2,5.8,4.3,8.4,6.5C81,51.1,77.1,55.7,77.1,55.7z M75.3,81.2
			l-5.6-1.5c2-6.9,3.7-13.3,5-19.2c1.7,0.6,3.6,1.2,5.6,2c-0.1,0.9-0.5,2.1-1.1,3.7C77.3,73.1,76.1,78.2,75.3,81.2L75.3,81.2z
			 M78.6,41.4c-1.6-1.6-4-3.7-7.1-6.3c0.3,0.3-0.1,0-1.1-0.9l3.7-3.9c1.6,1.2,4.4,3.3,8.4,6.5L78.6,41.4z M84.4,48.3
			c-0.1-0.1-0.3-0.4-0.4-0.7c-0.9-1-1.9-2.2-3.2-3.5c4.6-4.3,8.1-9.3,10.4-14.9l6.1,0.6c-0.9,1.4-1.6,2.8-2.2,4.1h25.3v4.8H92.2
			c-0.2,0.3-0.4,0.7-0.7,1.1c-0.6,0.7-1.4,1.7-2.4,3h27.9V47c-0.1,3.8-0.2,6.7-0.2,8.9h4.5v4.8h-4.8l-0.2,8.4h3.9v4.5h-4.1
			c-0.2,4.9-3,7.3-8.7,7.3h-8.2c-0.2-0.6-0.4-1.6-0.9-3c-0.1-0.7-0.3-1.2-0.4-1.5c2.4,0.1,5,0.2,7.8,0.2c3,0.1,4.7-0.9,5-3H89.1
			l-0.2,1.5h-5.6l1.9-14.5h-4.3v-4.8h5l1.3-10.6c-0.3,0.3-0.7,0.8-1.3,1.5C85.2,47.4,84.7,47.9,84.4,48.3L84.4,48.3z M105.8,65.6
			l-3,3.5h8.2c0.1-1.7,0.2-4.5,0.2-8.4H90.9l-1.1,8.4h12.8c-0.6-0.4-1.4-1.1-2.4-1.9c-1.6-1.3-2.9-2.3-3.9-3l3-3
			c0.4,0.3,1.2,0.8,2.2,1.5C103.2,63.9,104.7,64.9,105.8,65.6L105.8,65.6z M92.4,47.7l-1.1,8.2h20.1c0-4.3,0.1-7.1,0.2-8.2H92.4z
			 M103.2,55.9c-2-1.9-4.1-3.5-6.3-5l3-3c1,0.7,2.4,1.7,4.1,2.8c0.9,0.7,1.6,1.3,2.2,1.7C106.3,52.4,103.2,55.9,103.2,55.9z"/>
		<path class="st0" d="M127,80.8l-2.6-4.5c4.5-1.2,9.8-3.2,16-6.1l2.8,3.9c-0.9,0.3-2,0.7-3.5,1.3C134.4,77.8,130.2,79.6,127,80.8
			L127,80.8z M129.4,47.9V31.7h42.4v16.2h-17.3v3.5h22.1v4.1h-51.9v-4.1h24.2v-3.5C148.9,47.9,129.4,47.9,129.4,47.9z M130.9,69.5
			v-11h39.4v11h-15.8v5c0.1,4-2,6.1-6.5,6.3l-6.3,0.2c-0.1-1.3-0.5-3-1.1-5.2c1.6,0.1,3.2,0.2,5,0.2c2.2,0,3.2-0.8,3.2-2.4v-4.1
			H130.9L130.9,69.5z M135,35.3v3h31.1v-3H135z M135,41.4v3h31.1v-3H135z M136.5,61.9v3.9h28.1v-3.9
			C164.6,61.9,136.5,61.9,136.5,61.9z M173.9,80.3c-4.2-2-9.4-4-15.8-5.8l2.6-3.9c6.8,2.3,12.1,4,16,5.2L173.9,80.3L173.9,80.3z"/>
		<path class="st0" d="M180,41.2v-4.8h14.9c-1.3-2-2.7-4-4.1-5.8l6.1-1.1c0.4,0.4,1,1.2,1.7,2.4c1.4,2,2.4,3.4,3,4.1l-1.5,0.4h10.2
			c0.1-0.1,0.4-0.4,0.6-0.9c1.9-2.6,3.2-4.6,3.9-6.1l6.5,1.3c-0.4,0.4-0.9,1.2-1.5,2.2c-0.4,0.6-1.4,1.7-2.8,3.5h14.9v4.8h-24
			l-1.3,5h19.9v35.2h-5.8v-3h-29.2v3h-5.8V46.2h14.9l0.9-5H180z M191.5,50.7v5h29.2v-5H191.5z M191.5,60v5h29.2v-5
			C220.7,60,191.5,60,191.5,60z M191.5,69.3v5h29.2v-5H191.5z"/>
		<path class="st0" d="M235.8,45.1v-5.4h5.2v-10h5.4v10h3.9v5.4h-3.9v8.4l4.3-1.3v5.6l-4.3,1.3v15.6c0.1,3.6-1.7,5.6-5.4,5.8h-4.5
			c-0.3-1.7-0.6-3.5-1.1-5.4h3.5c1.6,0.1,2.3-0.4,2.2-1.7V60.9c-2,0.7-3.8,1.3-5.4,1.7l-0.6-5.8L241,55v-10L235.8,45.1L235.8,45.1z
			 M252.2,43.8v-5h8.2v-9.1h5.6v28.8c0.4,10.8-2.1,18.6-7.6,23.3c-1.4-1.2-3.1-2.2-5-3c3.3-3.3,5.3-6.3,5.8-9.1l-8.9,1.5l-0.6-5.4
			c3.2-0.3,6.6-0.7,10.4-1.3c0.1-1.7,0.2-3.7,0.2-6V57h-7.8v-5.2h7.8v-8C260.4,43.8,252.2,43.8,252.2,43.8z M271.2,81.4V29.7h5.6
			v9.1h9.7v5h-9.7v8h8.6V57h-8.6v8h10.6v5.2h-10.6v11.2H271.2z"/>
		<path class="st0" d="M306.8,29.8v48.6h-2V29.8H306.8z"/>
		<path class="st0" d="M501,48.1v-5.4h5.8V29.9h5.6v12.8h5.4v5.4h-5.4v18.8l6.3-1.5c0,2.6,0.1,4.5,0.2,5.6c-0.7,0.2-1.8,0.4-3.2,0.7
			c-3.8,0.9-8.6,2-14.7,3.5l-1.1-5.8l6.9-1.3V48.1L501,48.1L501,48.1z M519.6,38.1v-5.4h31.1v5.4H538v19.7h14.7v5.4H538v18.2h-5.8
			V63.2h-14.7v-5.4h14.7V38.1H519.6z M524.6,54.4c-1.7-3.9-3.5-7.4-5.4-10.6l4.5-2.4c1,1.7,2.3,4,3.9,6.9c0.9,1.6,1.5,2.7,2,3.5
			L524.6,54.4L524.6,54.4z M545.6,54.6l-5-2.4c2.2-3.6,4.1-7.1,5.8-10.6l4.8,2c-1.3,2.6-3.1,6-5.4,10.4
			C545.9,53.8,545.9,54,545.6,54.6L545.6,54.6z"/>
		<g>
			<path class="st0" d="M332.3,78.1V38.4c-2.4,1.6-7.1,3.4-9.8,3.8v-5.7c3.9-1,8.5-3.7,11.7-6.8h5.4v48.4H332.3z"/>
			<path class="st0" d="M376,40.6c-0.9-3.3-3-5.8-7.8-5.8c-7.8,0-10.3,7.3-10.5,16.8c2-3.2,5.5-6.3,12-6.3c9.2,0,14.9,6.7,14.9,16.1
				c0,9.6-5.8,17.6-16.6,17.6c-13.4,0-17.5-10.8-17.5-24.4c0-13.2,4.4-25.6,18-25.6c10,0,14,6.4,14.6,11.6H376z M377.2,61.9
				c0-5.2-2-10.7-9.1-10.7c-5.7,0-9.7,3.6-9.7,10.6c0,4,2,11.2,9.5,11.2C374.5,73,377.2,67.8,377.2,61.9z"/>
			<path class="st0" d="M411.4,56.1v6.5h-19.5v-6.5H411.4z"/>
			<path class="st0" d="M417.3,78.1v-0.5c0-7.2,4.4-14.4,14.5-21.9c7.6-5.7,9.7-7.6,9.7-12.7c0-4.7-2.5-8.1-7.9-8.1
				c-5.6,0-8.2,3-9.1,8.6h-7c0.8-8.2,6.1-14.5,16.2-14.5c11.1,0,15.3,7,15.3,13.9c0,7.2-3.1,10.2-12,17c-6.5,5-9.8,8.6-11,12h24.9
				l-1,6.3H417.3z"/>
			<path class="st0" d="M487.5,29.9v5.8c-8.2,11.2-16,28.3-18.4,42.5h-7.5c2.2-13.8,10.8-32.1,18.3-42.1h-24.5v-6.2H487.5z"/>
		</g>
	</g>
	
		<linearGradient id="SVGID_1_" gradientUnits="userSpaceOnUse" x1="-4.887581e-06" y1="141.86" x2="623.5" y2="141.86" gradientTransform="matrix(1 0 0 -1 0 196)">
		<stop  offset="0" style="stop-color:#DAB54F"/>
		<stop  offset="0.25" style="stop-color:#F3EFC2"/>
		<stop  offset="0.32" style="stop-color:#E7DFB0"/>
		<stop  offset="0.45" style="stop-color:#C9B684"/>
		<stop  offset="0.6" style="stop-color:#A28149"/>
		<stop  offset="0.87" style="stop-color:#D6C480"/>
		<stop  offset="1" style="stop-color:#F3EFC2"/>
	</linearGradient>
	<rect x="1" y="0.5" class="st1" width="621.5" height="107.3"/>
	<g>
		
			<linearGradient id="SVGID_00000105388003926070188590000005670384747855742337_" gradientUnits="userSpaceOnUse" x1="55.1908" y1="30.4887" x2="526.1808" y2="-73.4113" gradientTransform="matrix(1 0 0 -1 0 196)">
			<stop  offset="0" style="stop-color:#DAB54F"/>
			<stop  offset="0.25" style="stop-color:#F3EFC2"/>
			<stop  offset="0.32" style="stop-color:#E7DFB0"/>
			<stop  offset="0.45" style="stop-color:#C9B684"/>
			<stop  offset="0.6" style="stop-color:#A28149"/>
			<stop  offset="0.87" style="stop-color:#D6C480"/>
			<stop  offset="1" style="stop-color:#F3EFC2"/>
		</linearGradient>
		<path style="fill:url(#SVGID_00000105388003926070188590000005670384747855742337_);" d="M58.5,187.1c-5.6-5.1-7-11.7-7-17.2
			c0-3.9,1.3-10.7,6.5-15.9c3.5-3.5,8.8-6.2,17.7-6.2c2.3,0,5.6,0.2,8.4,0.7c2.2,0.4,4.1,0.8,5.9,0.9c0.6,0.1,0.8,0.3,0.8,0.6
			c0,0.5-0.2,1.2-0.3,3.2c-0.1,1.9-0.1,5.1-0.2,6c-0.1,0.9-0.2,1.2-0.5,1.2c-0.4,0-0.5-0.4-0.5-1.2c0-2.3-0.9-4.6-2.4-5.9
			c-2-1.7-6.5-3.3-11.6-3.3c-7.7,0-11.3,2.3-13.4,4.2c-4.2,4.1-5.2,9.2-5.2,15.2c0,11.1,8.5,21.3,21,21.3c4.4,0,7.8-0.5,10.1-2.9
			c1.2-1.3,2-3.8,2.2-4.9c0.1-0.6,0.2-0.9,0.6-0.9c0.3,0,0.4,0.4,0.4,0.9c0,0.4-0.7,5.5-1.3,7.4c-0.3,1.1-0.5,1.2-1.5,1.7
			c-2.3,0.9-6.7,1.3-10.5,1.3C69,193.3,63.1,191.2,58.5,187.1L58.5,187.1z"/>
		
			<linearGradient id="SVGID_00000063619148425538924380000012176390007297026479_" gradientUnits="userSpaceOnUse" x1="57.1617" y1="39.4127" x2="528.1517" y2="-64.4773" gradientTransform="matrix(1 0 0 -1 0 196)">
			<stop  offset="0" style="stop-color:#DAB54F"/>
			<stop  offset="0.25" style="stop-color:#F3EFC2"/>
			<stop  offset="0.32" style="stop-color:#E7DFB0"/>
			<stop  offset="0.45" style="stop-color:#C9B684"/>
			<stop  offset="0.6" style="stop-color:#A28149"/>
			<stop  offset="0.87" style="stop-color:#D6C480"/>
			<stop  offset="1" style="stop-color:#F3EFC2"/>
		</linearGradient>
		<path style="fill:url(#SVGID_00000063619148425538924380000012176390007297026479_);" d="M120.6,147.8c13.1,0,22.8,8.2,22.8,21.8
			s-9.2,23.8-23.2,23.8c-15.9,0-22.6-12.4-22.6-22.8C97.7,161.1,104.5,147.8,120.6,147.8z M121.8,191.1c5.2,0,16-3,16-19.9
			c0-13.9-8.5-21.4-17.7-21.4c-9.7,0-17,6.4-17,19.1C103.2,182.4,111.3,191.1,121.8,191.1z"/>
		
			<linearGradient id="SVGID_00000044857047545250955830000007161395677457246616_" gradientUnits="userSpaceOnUse" x1="59.6794" y1="50.8121" x2="530.6694" y2="-53.0779" gradientTransform="matrix(1 0 0 -1 0 196)">
			<stop  offset="0" style="stop-color:#DAB54F"/>
			<stop  offset="0.25" style="stop-color:#F3EFC2"/>
			<stop  offset="0.32" style="stop-color:#E7DFB0"/>
			<stop  offset="0.45" style="stop-color:#C9B684"/>
			<stop  offset="0.6" style="stop-color:#A28149"/>
			<stop  offset="0.87" style="stop-color:#D6C480"/>
			<stop  offset="1" style="stop-color:#F3EFC2"/>
		</linearGradient>
		<path style="fill:url(#SVGID_00000044857047545250955830000007161395677457246616_);" d="M200.2,185c0.2,2.1,0.6,5.4,3.1,6.2
			c1.7,0.5,3.2,0.5,3.8,0.5c0.3,0,0.5,0.1,0.5,0.3c0,0.4-0.5,0.5-1.2,0.5c-1.3,0-7.6-0.2-9.7-0.4c-1.3-0.1-1.6-0.3-1.6-0.6
			c0-0.2,0.1-0.4,0.4-0.4c0.3-0.1,0.4-1.1,0.2-2.1l-2.8-30h-0.2l-14.2,30.2c-1.2,2.6-1.4,3.1-1.9,3.1c-0.4,0-0.7-0.6-1.8-2.7
			c-1.5-2.9-6.5-12.9-6.8-13.5c-0.5-1.1-7-15-7.7-16.6H160l-2.3,27c-0.1,0.9-0.1,2-0.1,3c0,0.9,0.6,1.6,1.5,1.8
			c1,0.2,1.9,0.3,2.2,0.3c0.2,0,0.5,0.1,0.5,0.3c0,0.4-0.4,0.5-1.1,0.5c-2.1,0-4.9-0.2-5.4-0.2c-0.5,0-3.3,0.2-4.9,0.2
			c-0.6,0-1-0.1-1-0.5c0-0.2,0.3-0.3,0.6-0.3c0.5,0,0.9,0,1.7-0.2c1.9-0.4,2.1-2.6,2.3-4.8l4.2-37.9c0.1-0.6,0.3-1.1,0.6-1.1
			s0.6,0.2,0.9,0.9l17.8,36.6l17.1-36.5c0.2-0.5,0.5-0.9,0.9-0.9s0.6,0.5,0.7,1.6L200.2,185L200.2,185z"/>
		
			<linearGradient id="SVGID_00000067946509253810497380000015120257911990218418_" gradientUnits="userSpaceOnUse" x1="61.7986" y1="60.4085" x2="532.7885" y2="-43.4815" gradientTransform="matrix(1 0 0 -1 0 196)">
			<stop  offset="0" style="stop-color:#DAB54F"/>
			<stop  offset="0.25" style="stop-color:#F3EFC2"/>
			<stop  offset="0.32" style="stop-color:#E7DFB0"/>
			<stop  offset="0.45" style="stop-color:#C9B684"/>
			<stop  offset="0.6" style="stop-color:#A28149"/>
			<stop  offset="0.87" style="stop-color:#D6C480"/>
			<stop  offset="1" style="stop-color:#F3EFC2"/>
		</linearGradient>
		<path style="fill:url(#SVGID_00000067946509253810497380000015120257911990218418_);" d="M222.8,175.7c0,5.6,0,10.2,0.3,12.6
			c0.2,1.7,0.5,3,2.3,3.2c0.8,0.1,2.1,0.2,2.6,0.2c0.4,0,0.5,0.2,0.5,0.4c0,0.3-0.3,0.5-0.9,0.5c-3.2,0-6.9-0.2-7.1-0.2
			s-3.9,0.2-5.7,0.2c-0.6,0-0.9-0.1-0.9-0.5c0-0.2,0.1-0.4,0.5-0.4c0.5,0,1.2-0.1,1.7-0.2c1.2-0.2,1.4-1.5,1.7-3.2
			c0.3-2.4,0.3-7,0.3-12.6v-10.2c0-9.1,0-10.7-0.1-12.6c-0.1-2-0.7-3-2-3.2c-0.6-0.2-1.4-0.2-1.8-0.2c-0.2,0-0.5-0.1-0.5-0.4
			c0-0.4,0.3-0.5,0.9-0.5c1.9,0,5.6,0.2,5.9,0.2s3.9-0.2,5.7-0.2c0.6,0,0.9,0.1,0.9,0.5c0,0.2-0.2,0.4-0.5,0.4
			c-0.4,0-0.8,0.1-1.4,0.2c-1.6,0.3-2,1.3-2.1,3.3c-0.1,1.9-0.1,3.5-0.1,12.6L222.8,175.7L222.8,175.7z"/>
		
			<linearGradient id="SVGID_00000122706800693508855720000010505014619572699317_" gradientUnits="userSpaceOnUse" x1="63.65" y1="68.825" x2="534.64" y2="-35.065" gradientTransform="matrix(1 0 0 -1 0 196)">
			<stop  offset="0" style="stop-color:#DAB54F"/>
			<stop  offset="0.25" style="stop-color:#F3EFC2"/>
			<stop  offset="0.32" style="stop-color:#E7DFB0"/>
			<stop  offset="0.45" style="stop-color:#C9B684"/>
			<stop  offset="0.6" style="stop-color:#A28149"/>
			<stop  offset="0.87" style="stop-color:#D6C480"/>
			<stop  offset="1" style="stop-color:#F3EFC2"/>
		</linearGradient>
		<path style="fill:url(#SVGID_00000122706800693508855720000010505014619572699317_);" d="M245.1,184.6c0.1,4.8,0.7,6.3,2.3,6.7
			c1.1,0.3,2.4,0.4,2.9,0.4c0.3,0,0.5,0.1,0.5,0.4c0,0.4-0.4,0.5-1.1,0.5c-3.3,0-5.6-0.2-6.2-0.2s-3,0.2-5.6,0.2
			c-0.6,0-0.9-0.1-0.9-0.5c0-0.2,0.2-0.4,0.5-0.4c0.5,0,1.5-0.1,2.4-0.4c1.4-0.4,1.7-2.1,1.7-7.4l0.1-33.3c0-2.3,0.2-2.9,0.6-2.9
			s1.4,1.3,2,1.9c0.9,1,9.5,10.4,18.5,19.9c5.8,6.2,12.1,13.2,14,15.2l-0.6-29.5c-0.1-3.8-0.5-5.1-2.3-5.5c-1-0.2-2.4-0.3-2.9-0.3
			c-0.4,0-0.5-0.2-0.5-0.4c0-0.4,0.5-0.4,1.2-0.4c2.6,0,5.4,0.2,6,0.2s2.6-0.2,4.9-0.2c0.6,0,1,0.1,1,0.4c0,0.2-0.2,0.4-0.6,0.4
			c-0.3,0-0.7,0-1.4,0.2c-1.9,0.4-2.1,1.7-2.1,5.2l-0.1,34.1c0,3.8-0.1,4.1-0.5,4.1c-0.5,0-1.2-0.6-4.2-3.7
			c-0.6-0.6-9-9.1-15.2-15.8c-6.7-7.3-13.3-14.6-15.2-16.7L245.1,184.6L245.1,184.6z"/>
		
			<linearGradient id="SVGID_00000137112619963791313560000004401214257716636585_" gradientUnits="userSpaceOnUse" x1="66.3196" y1="80.9033" x2="537.2996" y2="-22.9967" gradientTransform="matrix(1 0 0 -1 0 196)">
			<stop  offset="0" style="stop-color:#DAB54F"/>
			<stop  offset="0.25" style="stop-color:#F3EFC2"/>
			<stop  offset="0.32" style="stop-color:#E7DFB0"/>
			<stop  offset="0.45" style="stop-color:#C9B684"/>
			<stop  offset="0.6" style="stop-color:#A28149"/>
			<stop  offset="0.87" style="stop-color:#D6C480"/>
			<stop  offset="1" style="stop-color:#F3EFC2"/>
		</linearGradient>
		<path style="fill:url(#SVGID_00000137112619963791313560000004401214257716636585_);" d="M325.3,177.7c0-4.7-0.3-5.4-2.6-6
			c-0.5-0.1-1.5-0.2-2-0.2c-0.2,0-0.5-0.1-0.5-0.4c0-0.4,0.3-0.5,0.9-0.5c2.6,0,6.3,0.2,6.6,0.2s4-0.2,5.7-0.2
			c0.6,0,0.9,0.1,0.9,0.5c0,0.2-0.2,0.4-0.5,0.4c-0.4,0-0.8,0.1-1.5,0.2c-1.6,0.3-2,1.3-2.1,3.3c-0.1,1.9-0.1,3.6-0.1,6v6.5
			c0,2.6-0.1,2.7-0.8,3.1c-3.7,2-9,2.6-12.3,2.6c-4.4,0-12.7-0.6-19.1-6.2c-3.5-3.1-6.9-9.3-6.9-16.6c0-9.3,4.5-15.9,9.7-19.1
			c5.2-3.2,11-3.7,15.5-3.7c3.7,0,7.8,0.8,8.9,1c1.2,0.3,3.2,0.5,4.7,0.6c0.6,0.1,0.7,0.3,0.7,0.5c0,0.8-0.4,2.4-0.4,8.2
			c0,0.9-0.1,1.2-0.5,1.2c-0.3,0-0.4-0.4-0.4-0.9c-0.1-0.8-0.4-2.4-1.2-3.8c-1.5-2.2-6.2-4.7-13.7-4.7c-3.7,0-8,0.4-12.4,3.8
			c-3.4,2.7-5.8,8-5.8,14.8c0,8.2,4.1,14.1,6.2,16.1c4.6,4.5,9.9,6.2,15.2,6.2c2.1,0,5.1-0.4,6.6-1.2c0.8-0.4,1.2-1.1,1.2-2
			L325.3,177.7L325.3,177.7z"/>
		
			<linearGradient id="SVGID_00000002367856570536545140000009259189972588345219_" gradientUnits="userSpaceOnUse" x1="68.9095" y1="92.6726" x2="539.8995" y2="-11.2274" gradientTransform="matrix(1 0 0 -1 0 196)">
			<stop  offset="0" style="stop-color:#DAB54F"/>
			<stop  offset="0.25" style="stop-color:#F3EFC2"/>
			<stop  offset="0.32" style="stop-color:#E7DFB0"/>
			<stop  offset="0.45" style="stop-color:#C9B684"/>
			<stop  offset="0.6" style="stop-color:#A28149"/>
			<stop  offset="0.87" style="stop-color:#D6C480"/>
			<stop  offset="1" style="stop-color:#F3EFC2"/>
		</linearGradient>
		<path style="fill:url(#SVGID_00000002367856570536545140000009259189972588345219_);" d="M363,191.8c-0.8-0.4-0.9-0.6-0.9-2.2
			c0-2.9,0.2-5.2,0.3-6.2c0.1-0.6,0.2-0.9,0.5-0.9c0.4,0,0.4,0.2,0.4,0.6c0,0.5,0,1.3,0.2,2.1c0.9,4.3,4.7,5.9,8.6,5.9
			c5.6,0,8.3-4,8.3-7.7c0-4-1.7-6.3-6.7-10.5l-2.6-2.1c-6.2-5.1-7.6-8.7-7.6-12.6c0-6.2,4.6-10.5,12-10.5c2.3,0,4,0.2,5.4,0.6
			c1.1,0.2,1.6,0.3,2,0.3s0.6,0.1,0.6,0.4s-0.2,2.2-0.2,6.2c0,0.9-0.1,1.3-0.4,1.3c-0.4,0-0.4-0.3-0.5-0.8c-0.1-0.7-0.4-2.3-0.8-2.9
			s-1.9-3.1-7.3-3.1c-4,0-7.1,2.5-7.1,6.7c0,3.3,1.5,5.4,7.1,9.8l1.6,1.3c6.9,5.4,8.5,9,8.5,13.7c0,2.4-0.9,6.8-4.9,9.6
			c-2.5,1.7-5.6,2.4-8.8,2.4C368,193.3,365.3,192.9,363,191.8L363,191.8z"/>
		
			<linearGradient id="SVGID_00000089562803879187264460000015301044161259868593_" gradientUnits="userSpaceOnUse" x1="70.8722" y1="101.5649" x2="541.8622" y2="-2.3251" gradientTransform="matrix(1 0 0 -1 0 196)">
			<stop  offset="0" style="stop-color:#DAB54F"/>
			<stop  offset="0.25" style="stop-color:#F3EFC2"/>
			<stop  offset="0.32" style="stop-color:#E7DFB0"/>
			<stop  offset="0.45" style="stop-color:#C9B684"/>
			<stop  offset="0.6" style="stop-color:#A28149"/>
			<stop  offset="0.87" style="stop-color:#D6C480"/>
			<stop  offset="1" style="stop-color:#F3EFC2"/>
		</linearGradient>
		<path style="fill:url(#SVGID_00000089562803879187264460000015301044161259868593_);" d="M416.1,147.8c13.1,0,22.8,8.2,22.8,21.8
			s-9.2,23.8-23.2,23.8c-15.9,0-22.5-12.4-22.5-22.8C393.2,161.1,400,147.8,416.1,147.8z M417.3,191.1c5.2,0,16-3,16-19.9
			c0-13.9-8.5-21.4-17.7-21.4c-9.7,0-17,6.4-17,19.1C398.7,182.4,406.8,191.1,417.3,191.1z"/>
		
			<linearGradient id="SVGID_00000121241834850516492590000004686811798801251493_" gradientUnits="userSpaceOnUse" x1="73.3408" y1="112.7485" x2="544.3307" y2="8.8585" gradientTransform="matrix(1 0 0 -1 0 196)">
			<stop  offset="0" style="stop-color:#DAB54F"/>
			<stop  offset="0.25" style="stop-color:#F3EFC2"/>
			<stop  offset="0.32" style="stop-color:#E7DFB0"/>
			<stop  offset="0.45" style="stop-color:#C9B684"/>
			<stop  offset="0.6" style="stop-color:#A28149"/>
			<stop  offset="0.87" style="stop-color:#D6C480"/>
			<stop  offset="1" style="stop-color:#F3EFC2"/>
		</linearGradient>
		<path style="fill:url(#SVGID_00000121241834850516492590000004686811798801251493_);" d="M469.2,147.8c13.1,0,22.8,8.2,22.8,21.8
			s-9.2,23.8-23.2,23.8c-15.9,0-22.5-12.4-22.5-22.8C446.3,161.1,453.2,147.8,469.2,147.8z M470.5,191.1c5.2,0,16-3,16-19.9
			c0-13.9-8.5-21.4-17.7-21.4c-9.7,0-17,6.4-17,19.1C451.9,182.4,460,191.1,470.5,191.1z"/>
		
			<linearGradient id="SVGID_00000068677858451055997140000010231448264565846183_" gradientUnits="userSpaceOnUse" x1="75.7595" y1="123.7026" x2="546.7495" y2="19.8126" gradientTransform="matrix(1 0 0 -1 0 196)">
			<stop  offset="0" style="stop-color:#DAB54F"/>
			<stop  offset="0.25" style="stop-color:#F3EFC2"/>
			<stop  offset="0.32" style="stop-color:#E7DFB0"/>
			<stop  offset="0.45" style="stop-color:#C9B684"/>
			<stop  offset="0.6" style="stop-color:#A28149"/>
			<stop  offset="0.87" style="stop-color:#D6C480"/>
			<stop  offset="1" style="stop-color:#F3EFC2"/>
		</linearGradient>
		<path style="fill:url(#SVGID_00000068677858451055997140000010231448264565846183_);" d="M506,184.6c0.1,4.8,0.7,6.3,2.3,6.7
			c1.1,0.3,2.4,0.4,2.9,0.4c0.3,0,0.5,0.1,0.5,0.4c0,0.4-0.4,0.5-1,0.5c-3.3,0-5.6-0.2-6.2-0.2s-3,0.2-5.6,0.2
			c-0.6,0-0.9-0.1-0.9-0.5c0-0.2,0.2-0.4,0.5-0.4c0.5,0,1.5-0.1,2.4-0.4c1.5-0.4,1.7-2.1,1.7-7.4l0.1-33.3c0-2.3,0.2-2.9,0.6-2.9
			s1.5,1.3,2,1.9c0.9,1,9.5,10.4,18.5,19.9c5.8,6.2,12.1,13.2,14,15.2l-0.6-29.5c-0.1-3.8-0.5-5.1-2.3-5.5c-1-0.2-2.4-0.3-2.8-0.3
			c-0.4,0-0.5-0.2-0.5-0.4c0-0.4,0.5-0.4,1.2-0.4c2.6,0,5.4,0.2,6,0.2s2.6-0.2,4.9-0.2c0.6,0,1,0.1,1,0.4c0,0.2-0.2,0.4-0.6,0.4
			c-0.3,0-0.7,0-1.4,0.2c-1.9,0.4-2.2,1.7-2.2,5.2l-0.1,34.1c0,3.8-0.1,4.1-0.5,4.1c-0.5,0-1.2-0.6-4.2-3.7
			c-0.6-0.6-9-9.1-15.2-15.8c-6.7-7.3-13.3-14.6-15.2-16.7L506,184.6L506,184.6z"/>
	</g>
</g>
</svg>
