<?xml version="1.0" encoding="utf-8"?>
<!-- Generator: Adobe Illustrator 26.5.0, SVG Export Plug-In . SVG Version: 6.00 Build 0)  -->
<svg version="1.1" id="_圖層_2" xmlns="http://www.w3.org/2000/svg" xmlns:xlink="http://www.w3.org/1999/xlink" x="0px" y="0px"
	 viewBox="0 0 350 70" style="enable-background:new 0 0 350 70;" xml:space="preserve">
<style type="text/css">
	.st0{fill:url(#SVGID_1_);}
	.st1{fill:#FFFFFF;enable-background:new    ;}
</style>
<linearGradient id="SVGID_1_" gradientUnits="userSpaceOnUse" x1="51.0087" y1="-101.3398" x2="296.8148" y2="-101.3398" gradientTransform="matrix(1 0 0 -1 0 -38.2)">
	<stop  offset="1.123600e-02" style="stop-color:#FAE9BF"/>
	<stop  offset="0.1742" style="stop-color:#E7BD7B"/>
	<stop  offset="0.3315" style="stop-color:#F3D290"/>
	<stop  offset="0.4213" style="stop-color:#F1E0AF"/>
	<stop  offset="0.5393" style="stop-color:#EECD91"/>
	<stop  offset="0.7135" style="stop-color:#E7BD7B"/>
	<stop  offset="0.882" style="stop-color:#FAE9BF"/>
	<stop  offset="0.9944" style="stop-color:#EFC480"/>
</linearGradient>
<path class="st0" d="M64.7,68.7c-5,2.8-11.7,1.1-11.7-5.5c0-5.1,5.1-8.5,11.6-5.9l0.4,2.9l-0.1,0.1c-2.3-3.3-3.4-3.5-5.3-3.5
	c-5.6,0-5.5,12.9,0,12.9c2.5,0,3.5-0.8,5.4-4.3l0.1,0.1L64.7,68.7z M82.1,70c-9-0.1-8.9-13.7,0.1-13.6C91.1,56.5,91,70.1,82.1,70z
	 M82.1,69.6c5.9,0,6-12.9,0.1-12.9C76.4,56.7,76.3,69.6,82.1,69.6z M244.6,70c-9-0.1-8.9-13.7,0.1-13.6
	C253.6,56.5,253.5,70.1,244.6,70z M244.6,69.6c5.9,0,6-12.9,0.1-12.9C238.9,56.7,238.8,69.6,244.6,69.6z M268,70
	c-9-0.1-8.9-13.7,0.1-13.6C277,56.5,276.9,70.1,268,70z M268,69.6c5.9,0,6-12.9,0.1-12.9C262.3,56.7,262.2,69.6,268,69.6z M110,69.6
	c0.3-0.5,0.5-1.1,0.6-1.6c0.2-1,0-8.9,0.1-10.1l-4.9,11.3h-0.4l-5.2-11.3l0.1,8.2c0,1.6,0.3,2.3,1.3,3.5h-2.8c1-1.4,1-1.8,1.1-3.5
	v-7c-0.1-1.2-0.4-1.6-1.2-2.5h3.2l4.6,10.2l4.4-10.2h3.2c-1.1,1-1.3,1.5-1.3,3v6.8c0,1.4,0,2,0.7,3.2L110,69.6L110,69.6z
	 M134.9,69.6c0.3-0.5,0.5-1.1,0.6-1.6c0.2-1,0-8.9,0.1-10.1l-4.9,11.3h-0.4l-5.2-11.3l0.1,8.2c0,1.6,0.3,2.3,1.3,3.5h-2.8
	c1-1.4,1-1.8,1.1-3.5v-7c-0.1-1.2-0.4-1.6-1.2-2.5h3.2l4.6,10.2l4.4-10.2h3.2c-1.1,1-1.3,1.5-1.3,3v6.8c0,1.4,0,2,0.7,3.2
	L134.9,69.6L134.9,69.6z M149.1,69.6c0.7-1.2,0.7-1.6,0.7-3v-6.7c0-1.4,0-2.1-0.7-3.3h3.5c-0.7,1.2-0.7,1.9-0.7,3.3v6.6
	c0,1.4,0,1.9,0.7,3.1L149.1,69.6L149.1,69.6z M164,59.4c0-1.4-0.5-2-1.4-2.8h2.9l7.5,10.2c0,0-0.1-4.9-0.1-6.5c0-2-0.4-2.9-1.1-3.7
	h2.6c-0.4,0.6-1.1,1.7-1.1,3.7v9.3h-0.6l-8.4-11.1l0.1,7.9c0,1.6,0.7,2.6,1.2,3.2h-2.7c0.4-0.6,1.1-1.6,1.1-3.2V59.4z M285.9,59.4
	c0-1.4-0.5-2-1.4-2.8h2.9l7.5,10.2c0,0-0.1-4.9-0.1-6.5c0-2-0.4-2.9-1.1-3.7h2.6c-0.4,0.6-1.1,1.7-1.1,3.7v9.3h-0.6l-8.4-11.1
	l0.1,7.9c0,1.6,0.7,2.6,1.2,3.2h-2.7c0.4-0.6,1.1-1.6,1.1-3.2V59.4z M196.4,68.1c-5,3.9-12,1.3-12-5c0-5.3,5-8.5,11.9-5.9l0.4,2.9
	l-0.2,0.1c-2.4-3.2-3.4-3.5-5.2-3.5c-6.1,0-6,13,0.1,13c4.8,0,3.4-4.6,2.6-5.8l0,0h3.5c-0.9,1.3-0.7,2.2-0.7,4.2H196.4z M227,60.1
	l-0.2,0.1c-2.9-6.9-8.1-2.3-4.3,0.7c2,1.6,5.3,1.7,5.3,5.2c0,4.2-5.3,4.3-8.4,3.1l-0.4-3.3l0.1-0.1c3.8,7.5,9.8,1.9,5.1-1.4
	c-2-1.4-4.7-2-4.7-4.7c0-3.4,4.3-3.9,7-2.9L227,60.1z"/>
<path class="st1" d="M19.1,5.1h24.3L45,3.2l2.9,2.5l-0.2,0.4c-0.8,0.1-28.3-0.3-28,0.3L19.1,5.1z M21.4,19.9l3.4,1.7h-1.2v10.9
	l-2.2,0.7C21.5,29.3,21.6,23.7,21.4,19.9z M22.9,21.2h21.5v1H22.9V21.2z M23.7,8.1l3.1,1.7h-0.9v9.4l-2.2,0.7
	C23.9,16.1,23.9,11.8,23.7,8.1z M25,13.5h16.8v0.9H25V13.5z M25.1,9.5h16.8v1H25.1V9.5z M25.1,17.5h16.8v1H25.1V17.5z M25.2,26.5
	c5.1,0,9.8-0.3,14.8-1l0.2,0.6c-4.1,1.3-8.5,1.9-12.9,2.4C26.6,31.6,25.5,27.3,25.2,26.5z M27.1,2.1c1.1,0.2,5.6,0.4,2.2,1.8
	c0,1.4,0,3.3,0,4.7L27.1,9C27.1,7,27.1,4.1,27.1,2.1z M32.4,10.1h2V27h-2V10.1z M36.9,2.1c1.1,0.2,5.6,0.4,2.2,1.8
	c0,1.4,0,3.3,0,4.7L37,9C36.9,6.8,37.2,4.3,36.9,2.1z M37.6,23.7l0.3-0.3c1.8,1,2.8,1.6,3.7,3.2c0.5,0.9-0.1,2.8-1.3,2
	C39.6,26.8,39,25.2,37.6,23.7z M42.6,21.7l1.4-1.8c0.2,0.2,2.4,1.3,2.4,1.6c0.4,0.6-0.7,1.1-1,1.5c-0.5,3.2,2,10.1-3.3,9.7
	c-0.2-2-1.5-1.5-3.5-1.9v-0.6c0.6-0.1,4.1,0.2,4.5-0.2c0.4-0.2,0.1-7.8,0.2-8.3H42.6L42.6,21.7z M40.3,9.9l1.3-1.8
	c0.2,0.2,2.5,1.4,2.5,1.7c0.4,0.6-0.7,1-1,1.4c0,2.4-0.1,5.2,0.1,7.8L41,19.6V9.9H40.3z M58.3,28.2c2.5-3.3,4.2-6.9,4.8-10.7
	c0.3,0.1,2.7,0.8,2.9,1c0.4,0.6-0.4,0.9-1.1,0.8c-1.2,3.5-3.4,6.9-6.4,9.4L58.3,28.2z M59.7,2.1l3.2,1.8h-1v7.9l-2.2,0.5
	C59.8,8.9,59.9,5.5,59.7,2.1z M81.3,11.7c0.1,0.2,1.7,2.1,1.7,2.2c0.3,0.3,0,0.8-0.4,0.8c-7.4-0.4-15,1.6-22.9,1.2v-0.7
	C67.9,14.2,74.2,13.7,81.3,11.7z M60.9,3.5h21.8v1H60.9V3.5z M61.1,9.7h21.5v1H61.1V9.7z M63.6,21.4c2.6,1.2,4.9,2.2,5.2,4.5
	c0.1,1-0.8,1.5-1.6,1c-0.9-1.9-2.2-3.6-3.9-5L63.6,21.4z M67.3,3.8h2V10h-2V3.8z M70.7,14.8h2.2c0,3.5,0,14.2,0,17.6l-2.3,0.5
	c0-3.7,0-14.3,0-18.1H70.7z M73.4,28.2c2.5-3.5,4.2-7.1,4.9-11.1c0.3,0.1,2.7,0.8,2.9,1c0.4,0.7-0.4,0.9-1.1,0.8
	c-1.2,3.8-3.3,7.1-6.3,9.7L73.4,28.2z M74.6,3.9h2v6.3h-2V3.9z M79.3,19l0.5-0.1c1.3,3.5,3.5,5.9,6.8,7.4l-0.1,0.5
	c-1.3,0-1.8,0.5-2.5,1.4C81.1,25.8,80.1,22.9,79.3,19z M81.3,3.9l1.4-2C84,3,86.8,3.6,84.1,5.3c0,1.8-0.1,4.3,0.1,6.1L82,12V3.9
	H81.3z M96.6,3.3L99.4,5h-0.9v23.8l-1.9,0.7C96.7,22.8,96.8,10,96.6,3.3z M97.8,11.1h5.1v1h-5.1V11.1z M97.8,18h5.1v1h-5.1V18z
	 M97.8,4.7h5.1v1h-5.1V4.7z M97.8,25.1h5.1v1h-5.1V25.1z M101.3,5.1l1.2-1.8c1.2,1.1,3.6,1.4,1.2,3c0.1,4.4-0.1,17,0.1,21.2
	l-1.9,0.7v-23L101.3,5.1L101.3,5.1L101.3,5.1z M102.7,32.5c3.7-9,3.1-20.4,2.9-30.3l3.2,1.7h-1.2c-0.1,9.6,1.1,21.3-4.5,28.9
	L102.7,32.5z M106.8,3.5h15.6v1h-15.6V3.5z M106.8,6.8h15.6v1h-15.6V6.8z M107.2,23.4c1.8-1.3,3.5-3,4.4-4.8v-0.2l1.7,1
	c0.1,0,0.1,0.1,0.2,0.1c0.2,0.2,0.1,0.3-0.1,0.5c-0.2,0.1-0.5,0.1-0.8,0.1c-1.5,1.6-3.2,2.9-5.2,3.8L107.2,23.4z M107.7,28.9
	c3.8,0,7.6-0.1,11.4-0.3l0.2,0.4c-2.6,0.6-7,1.1-9.9,1.5c-0.1,0.6-0.3,1.2-0.8,0.7C108.6,31.1,107.8,29.1,107.7,28.9z M108.2,11.1
	c2.1-0.1,4.1-0.2,6.2-0.4l0.1,0.4c-1.7,0.5-3.3,0.9-4.9,1.2c0,0.3-0.1,0.4-0.1,0.5C108.8,13.7,108.4,11.4,108.2,11.1z M108.7,8.5
	c1.2-0.1,7.4,0.2,4.9,2.1c-1.5-0.6-3.1-1.4-4.9-1.6V8.5z M108.8,12.8l2.7,1.2h-0.9v4.9l-1.8,0.5C108.8,17.1,108.9,15.1,108.8,12.8z
	 M109.2,22.8l2.3,1h-0.6v3.6l-1.7,0.5C109.2,26.5,109.2,24.3,109.2,22.8z M109.8,13.8h12.5v0.8h-12.5V13.8z M110,23.6h8.7v0.9H110
	V23.6z M110,26.1h8.7v0.8H110V26.1z M110,17.5h12.3v0.8H110V17.5z M110.7,20.6h12v0.9h-12V20.6z M113.2,14h1.6v4h-1.6V14z
	 M113.4,21.6c1,0.3,4.4,0.5,1.7,1.7v6.1h-1.7C113.3,28.1,113.5,22.8,113.4,21.6z M115,8c0.8,0.3,4.7,0.4,1.9,1.5c0,1,0,2.3,0,3.3
	l-1.9,0.4C115,11.4,115,9.8,115,8z M122,21h-0.8l1.2-1.7c1,0.8,3.6,1.4,1.4,2.8c-0.4,3.9,0.8,10.4-4.7,10.5
	c-0.2-1.5-1.2-1.2-3.1-1.5v-0.6C123.4,31.5,121.5,26.7,122,21z M117.4,10.7c1.2,0,8.7-0.3,6.2,1.9c-2-0.5-4-1.2-6.2-1.5V10.7z
	 M117.3,10c2-0.5,3.7-0.9,5.3-1.8c0,0,0,0,0.1,0l1,1c0.4,0.4-0.4,0.7-0.8,0.3c-1.9,0.3-3.3,0.6-5.6,0.8V10z M117.4,14.1h1.6v4h-1.6
	V14.1z M117.5,23.9l0.8-1.3c1.1,0.7,3.2,0.7,1.3,2.2c0,0.7,0,1.6,0,2.3l-1.7,0.4v-3.6H117.5z M117.7,27.4c1.5,0.7,2.6,1,2.7,2.3
	c0.1,0.6-0.8,1.2-1.1,0.5c-0.4-1-0.9-1.8-1.7-2.6L117.7,27.4z M120.9,14.1l1.1-1.5c0.3,0.3,2.2,1.1,2.2,1.6c0.1,0.4-0.7,0.8-0.9,1.1
	c0,1,0,2.5,0,3.5l-1.8,0.5v-5h-0.6L120.9,14.1L120.9,14.1z M121.2,4l1.3-1.7c0.2,0.1,2,1.3,2.2,1.4c0.4,0.6-0.4,1.1-0.8,1.4
	c0,0.8,0,1.8,0,2.6L122,8.1V3.8h-0.8L121.2,4L121.2,4z M138,3.5l3.3,1.7h-1v27.2L138,33C138.2,26.1,138.5,10.5,138,3.5z M139.6,4.9
	h18.1v1h-18.1V4.9z M139.6,12.7h18v1h-18V12.7z M139.6,20.5h18v1h-18V20.5z M139.6,28.5h18.1v1h-18.1V28.5z M156,5.4l1.4-1.9
	c1.3,1.1,4,1.5,1.5,3.3c0,4.9-0.1,21,0.2,25.7l-2.3,0.6V5.5H156L156,5.4L156,5.4z M172.7,19.1c-0.1-2.8,4-2.9,3.8,0
	C176.7,21.9,172.5,21.8,172.7,19.1z M187.2,28.9c3.6-0.6,7-1.9,10.5-3.2l0.2,0.5c-2.6,1.8-5.2,3.1-8.4,4.5
	C189.5,34.1,187.7,29.5,187.2,28.9z M187.8,3.6l3.1,1.6H190v24.3h-2.1C187.9,27,188,5.5,187.8,3.6z M189.1,4.9h9.5v1h-9.5V4.9z
	 M189.1,11.2h9.5v1h-9.5V11.2z M189.1,18h9.5v1h-9.5V18z M194.5,21.4c2.6,1,9.6,10.8,4,9.2c-0.8-3-2.2-6.3-4.4-9L194.5,21.4z
	 M196.9,5.3l1.3-1.7c0.2,0.1,2.4,1.4,2.5,1.5c0.4,0.5-0.6,1-0.9,1.3c0,3.2-0.1,10.4,0.1,13.6l-2.2,0.5V5.1h-0.8V5.3z M202.6,3.6
	l3.1,1.6h-0.9v27.3l-2.2,0.6C202.7,25.8,202.8,11,202.6,3.6z M203.9,5h8.2v1.1h-8.2V5z M210.6,5.5l1.4-2c0.2,0.2,2.4,1.4,2.4,1.7
	c0.5,0.6-0.6,1.2-1,1.5v13.8c-0.1,2.8,0.8,6.6-3.3,6.5c0.1-1.8-1.5-1.9-3.2-2.3V24c0.9-0.3,4.8,0.8,4.5-1V5.3h-0.8V5.5z M224.4,32.3
	l-0.3-0.3c1.2-1.6,2-3.6,2.4-5.8c0.3-1.5,0.4-3.4,0.4-5.6v-2.2h2V21c0,2.7-0.3,4.9-1,6.6C227.1,29.4,226,31,224.4,32.3z M224.1,17.8
	h8.8v1H227c-0.4,0-0.8,0-1.2,0.1c-0.4,0-0.7,0.1-1.1,0.2L224.1,17.8z M225.5,3.7l2.7,0.4c0.2,0,0.3,0.1,0.4,0.1
	c0.1,0.1,0.1,0.2,0.1,0.3c0,0.2,0,0.3-0.2,0.4c-0.1,0.1-0.2,0.1-0.3,0.2l-0.7,0.3V12h0.9l-1.3,1.6l-1.9-1.1
	c-0.1-0.1-0.2-0.1-0.2-0.1c-0.1-0.1-0.1-0.1-0.1-0.2s0.1-0.2,0.1-0.3c0.1-0.1,0.1-0.2,0.2-0.2c0.1-0.2,0.2-0.5,0.3-0.8
	c0-0.1,0-0.4,0-0.7V6.9c0-0.6,0-1.2,0-1.7C225.6,4.7,225.6,4.2,225.5,3.7z M226.9,11.5h5.9v1h-5.9V11.5z M231.9,1.8l2.9,0.4
	c0.7,0.1,0.9,0.8-0.7,1.3v28.7l-2.2,0.5L231.9,1.8z M234.6,19.4h15l1.4-2l2.5,2.6l-0.2,0.4h-16.1c-1.1,0-1.7,0.2-2.1,0.3L234.6,19.4
	z M235.1,10.7c2.7-2.2,5.6-5.7,6.6-8.9l2.1,0.8c1.4,0.4,0.5,1.4-0.6,1.2c-2.1,3.1-4.7,5.4-7.9,7.3L235.1,10.7z M236.7,21.9l0.3-0.4
	c5.9,2.4,5.2,5.4,4.3,5.9C239.6,28.2,240.6,25.6,236.7,21.9z M237.4,9.1c5.8,2.6,5,5.4,3.5,5.4c-1.1,0-0.4-1.7-3.9-5L237.4,9.1z
	 M239.9,6.8c7.5,2.1,5.6,4.9,4.7,4.9c-1.5,0-0.6-2-4.9-4.7L239.9,6.8z M240.4,6.1l0.3-1h8.2l1.2-1.5l2.1,1.6c0.6,0.4,0.8,1.1-1,1.6
	c-2.6,3.9-7.5,9.1-16,11.1l-0.2-0.5c5.8-2.5,10.7-5.9,13.9-11.3H240.4z M245.6,29.6c1,0,1-0.2,1-0.8V16.3c0-0.6-0.1-1.4-0.1-1.4
	l2.8,0.5c0.9,0.1,0.6,0.9-0.6,1.3v11.8c0,3-0.8,3.8-3.3,4.2c-0.1-2-1.7-2.1-3.7-2.3v-0.8L245.6,29.6L245.6,29.6z M274.5,4.9
	c0.6,0.3,0.6,1.2-1,1.1c-2.8,5.7-5.7,10-10.5,13.4l-0.3-0.4c3.7-3.8,7.7-10.3,9-15.5L274.5,4.9z M265.6,29c6.6,0,13.4-0.7,20-1.5
	l0.2,0.6c-5.5,1.6-12.5,2.5-18.3,3.3c-0.1,1.4-1,1.6-1.2,0.7L265.6,29z M275.1,13.4l2.6,1.2c1.6,0.7,0.7,1.5-0.8,1.5
	c-2.6,5.1-6.2,9.9-10.4,13.5l-0.5-0.4C269.7,24.5,273.2,19,275.1,13.4z M278.7,2.6l2.6,0.4c1.1,0.2,0.8,0.9-0.8,1.5
	c2.8,5.9,5.8,8.7,11.7,11.6l-0.1,0.5c-1.6,0.3-2,0.4-2.7,1.8C283.7,14.6,281,8.9,278.7,2.6z M280.7,21.1c9,6.1,9.2,11.2,6.7,11.2
	c-1.5,0-1-3.7-7.1-10.9L280.7,21.1z M311.7,4.5h-6.4v2.9h6.4V4.5z M311.7,8.4h-6.4v3.1h6.4V8.4z M307.3,22.6l-0.6-1.3h14.4l1.5-2
	l2.7,2.6l-0.2,0.4h-15.5C308.5,22.3,307.6,22.5,307.3,22.6z M313.7,12.1c0,0.2,0,0.7,0.1,1.4l-2.1,0.6v-1.6h-6.4v19.7l-2.2,0.6
	c0-1,0.1-2.1,0.1-3.3V3.8c0-0.5,0-1.1-0.1-1.7l2.6,1.4h5.6l1-1.4l2.3,1.5c0.3,0.2,0.3,0.5,0,0.7l-0.9,0.8V12.1z M313.5,16.6
	c0,6.5,0,10-5.9,14l-0.3-0.5c5-4.9,4.2-7.9,4.2-13.5c-1.7,0-2,0-3.1,0.3l-0.6-1.3h12l1.5-1.6l2.7,2.2l-0.2,0.4h-4.1
	c0,12.2,0.1,12.9,0.1,12.9l-2.2,0.5c0,0,0.1-0.2,0.1-13.4C317.7,16.6,313.5,16.6,313.5,16.6z M319.7,7.4h6.3V4.5h-6.3V7.4z
	 M319.7,11.5h6.3V8.4h-6.3V11.5z M329,4.3l-0.9,0.8v24.5c0,1.9-1.2,2.4-3.2,2.8c0-1.6-1.4-1.9-3.4-2.1v-0.7h3.6
	c0.7,0,0.9-0.2,0.9-0.9V12.5h-6.3v1.1l-2.1,0.6c0,0,0.1-0.9,0.1-1.9V3.9c0-0.7-0.2-1.8-0.2-1.8l2.5,1.4h5.6l1.1-1.5l2.4,1.5
	C329.2,3.7,329.3,4.1,329,4.3z"/>
</svg>
