<?xml version="1.0" encoding="UTF-8"?>
<svg id="_圖層_2" data-name="圖層 2" xmlns="http://www.w3.org/2000/svg" xmlns:xlink="http://www.w3.org/1999/xlink" viewBox="0 0 1017.72 230.71">
  <defs>
    <style>
      .cls-1 {
        fill: #fff;
        stroke-width: 0px;
      }

      .cls-2 {
        stroke: url(#_未命名漸層_61);
      }

      .cls-2, .cls-3 {
        stroke-width: .88px;
      }

      .cls-2, .cls-3, .cls-4 {
        fill: none;
        stroke-miterlimit: 10;
      }

      .cls-3 {
        stroke: url(#_未命名漸層_61-2);
      }

      .cls-4 {
        stroke: #fff;
        stroke-width: .27px;
      }
    </style>
    <linearGradient id="_未命名漸層_61" data-name="未命名漸層 61" x1="0" y1="183.63" x2="508.86" y2="183.63" gradientUnits="userSpaceOnUse">
      <stop offset="0" stop-color="#864e23"/>
      <stop offset=".06" stop-color="#996532"/>
      <stop offset=".19" stop-color="#cba058"/>
      <stop offset=".21" stop-color="#d2a95e"/>
      <stop offset=".43" stop-color="#ecdfb2"/>
      <stop offset=".67" stop-color="#f4edd9"/>
      <stop offset=".69" stop-color="#f5efde"/>
      <stop offset=".72" stop-color="#f5efde" stop-opacity=".9"/>
      <stop offset=".86" stop-color="#f5efde" stop-opacity=".42"/>
      <stop offset=".96" stop-color="#f5efde" stop-opacity=".12"/>
      <stop offset="1" stop-color="#f5efde" stop-opacity="0"/>
    </linearGradient>
    <linearGradient id="_未命名漸層_61-2" data-name="未命名漸層 61" x1="-6155.92" y1="183.63" x2="-5647.06" y2="183.63" gradientTransform="translate(-5138.2) rotate(-180) scale(1 -1)" xlink:href="#_未命名漸層_61"/>
  </defs>
  <g id="_圖層_1-2" data-name="圖層 1">
    <g>
      <path class="cls-1" d="M42.33,201.29h38.75l3.63-4.63,6.74,4.79c-.42.68-1.11.95-2.69.95h-46.18l-.26-1.11ZM46.12,165.8h32.07l3.58-4.53,6.53,4.69c-.42.74-1.11.95-2.63.95h-39.23l-.32-1.11ZM49.59,182.55h25.22l3.48-4.37,6.37,4.47c-.42.74-1.11,1-2.63,1h-32.12l-.32-1.1Z"/>
      <path class="cls-1" d="M138.42,183.65l6,4.42c-.42.63-1.05.9-2.53.9h-10.11v16.96c0,.63-2.47,2.05-4.58,2.05h-1.11v-19.01h-14.06c-1.37,8.27-5.63,14.9-15.32,19.01l-.53-.58c6.53-4.84,9.42-10.95,10.37-18.43h-11.58l-.32-1.05h12.06c.16-1.84.26-3.79.26-5.79v-10h-9.53l-.32-1.05h9.85v-12.22l7.85.63c-.05.79-.58,1.11-2.21,1.26v10.32h13.48v-12.27l7.79.68c-.11.79-.53,1.16-2.11,1.37v10.22h2.05l3.05-4.11,5.69,4.21c-.37.69-1.05.95-2.53.95h-8.27v15.8h3.42l3.21-4.27ZM112.62,182.12c0,2-.16,3.95-.42,5.79h13.9v-15.8h-13.48v10Z"/>
      <path class="cls-1" d="M177.95,192.98l.9.19-3.17,10.07h-28.72v-1.01h1.39c1.55,0,2.67-.51,3.36-1.53.38-.57.57-1.91.57-4.05v-23.93c0-2.33-.26-3.78-.77-4.35-.71-.8-1.77-1.2-3.17-1.2h-1.39v-1.01h16.79v1.01c-1,0-1.84.05-2.5.14-.67.09-1.21.23-1.64.41-.43.18-.77.4-1.01.64-.25.25-.45.52-.62.81-.29.57-.44,1.96-.44,4.18v23.3c0,.64.02,1.18.07,1.64.05.46.12.83.23,1.13.11.3.25.55.44.74.18.19.42.34.71.45.44.18,1.86.27,4.27.27h2.71c2.83,0,4.82-.21,5.99-.63.58-.2,1.13-.47,1.64-.82s1.01-.81,1.49-1.38c.48-.58.96-1.27,1.42-2.09s.94-1.81,1.44-2.98Z"/>
      <path class="cls-1" d="M196,199.63c-2.57,2.01-4.18,3.16-4.84,3.45-.97.46-2.01.68-3.15.68-.86,0-1.65-.15-2.38-.47-.73-.31-1.36-.75-1.89-1.31-.53-.56-.94-1.24-1.24-2.04s-.45-1.67-.45-2.64c0-.71.1-1.37.29-1.97s.48-1.17.86-1.71c.38-.54.87-1.05,1.46-1.54.59-.49,1.29-.98,2.09-1.45,1.88-1.11,4.96-2.44,9.24-3.99v-.98c0-1.26-.11-2.31-.31-3.15-.21-.84-.51-1.51-.9-2.01-.39-.5-.88-.86-1.46-1.07-.58-.21-1.24-.31-1.97-.31-.58,0-1.11.09-1.57.26-.47.17-.86.4-1.19.69-.33.28-.58.61-.75.98-.17.37-.26.75-.26,1.13l.05,1.59c0,.84-.21,1.49-.64,1.94-.43.46-.99.68-1.68.68s-1.23-.24-1.65-.71c-.43-.47-.64-1.12-.64-1.94,0-.77.21-1.52.62-2.27s1-1.42,1.78-2.02c.77-.6,1.73-1.08,2.87-1.45,1.14-.36,2.44-.55,3.9-.55,1.93,0,3.57.28,4.92.85s2.33,1.54,2.93,2.92c.33.8.49,2.41.49,4.82v8.51c0,1.2.01,2.17.04,2.9s.06,1.23.1,1.5c.09.53.24.88.45,1.07.21.18.45.27.72.27.18,0,.35-.03.52-.08.16-.06.36-.16.57-.33s.47-.39.77-.67.67-.65,1.12-1.11v1.53c-2.06,2.73-4.01,4.1-5.85,4.1-.88,0-1.59-.31-2.13-.93-.55-.62-.82-1.68-.82-3.17ZM196,197.85v-9.54c-1.39.55-2.52,1.01-3.4,1.4-.89.38-1.53.69-1.93.93-1.44.82-2.47,1.66-3.09,2.53-.62.87-.93,1.82-.93,2.86,0,.66.1,1.26.31,1.82.21.56.49,1.04.85,1.45.35.41.77.73,1.24.96s.97.34,1.48.34c1.39,0,3.21-.91,5.47-2.74Z"/>
      <path class="cls-1" d="M237.02,192.98l.9.19-3.17,10.07h-28.72v-1.01h1.39c1.55,0,2.67-.51,3.37-1.53.38-.57.57-1.91.57-4.05v-23.93c0-2.33-.25-3.78-.77-4.35-.71-.8-1.77-1.2-3.17-1.2h-1.39v-1.01h16.79v1.01c-1,0-1.84.05-2.5.14-.67.09-1.21.23-1.64.41-.43.18-.77.4-1.01.64-.25.25-.45.52-.62.81-.29.57-.44,1.96-.44,4.18v23.3c0,.64.02,1.18.07,1.64.04.46.12.83.23,1.13.11.3.25.55.44.74.18.19.42.34.71.45.44.18,1.86.27,4.27.27h2.71c2.82,0,4.82-.21,5.99-.63.58-.2,1.13-.47,1.64-.82.51-.35,1.01-.81,1.49-1.38.48-.58.96-1.27,1.42-2.09s.94-1.81,1.44-2.98Z"/>
      <path class="cls-1" d="M255.08,199.63c-2.57,2.01-4.19,3.16-4.84,3.45-.97.46-2.01.68-3.15.68-.86,0-1.65-.15-2.38-.47-.73-.31-1.36-.75-1.89-1.31-.53-.56-.94-1.24-1.24-2.04s-.45-1.67-.45-2.64c0-.71.09-1.37.29-1.97.19-.6.48-1.17.86-1.71.38-.54.87-1.05,1.46-1.54.59-.49,1.29-.98,2.09-1.45,1.88-1.11,4.96-2.44,9.25-3.99v-.98c0-1.26-.11-2.31-.31-3.15-.21-.84-.51-1.51-.9-2.01-.39-.5-.88-.86-1.46-1.07-.59-.21-1.24-.31-1.97-.31-.58,0-1.11.09-1.57.26-.47.17-.86.4-1.19.69-.33.28-.58.61-.75.98-.17.37-.26.75-.26,1.13l.05,1.59c0,.84-.21,1.49-.64,1.94s-.99.68-1.68.68-1.23-.24-1.65-.71c-.43-.47-.64-1.12-.64-1.94,0-.77.21-1.52.62-2.27.41-.75,1-1.42,1.78-2.02.77-.6,1.73-1.08,2.87-1.45,1.14-.36,2.44-.55,3.9-.55,1.93,0,3.57.28,4.92.85s2.33,1.54,2.93,2.92c.33.8.49,2.41.49,4.82v8.51c0,1.2.01,2.17.04,2.9.03.73.06,1.23.1,1.5.09.53.24.88.45,1.07s.45.27.73.27c.18,0,.35-.03.52-.08.16-.06.35-.16.57-.33s.48-.39.77-.67c.29-.28.67-.65,1.12-1.11v1.53c-2.06,2.73-4.01,4.1-5.85,4.1-.87,0-1.59-.31-2.13-.93s-.82-1.68-.82-3.17ZM255.08,197.85v-9.54c-1.39.55-2.52,1.01-3.41,1.4s-1.53.69-1.93.93c-1.44.82-2.47,1.66-3.09,2.53-.62.87-.93,1.82-.93,2.86,0,.66.1,1.26.31,1.82.21.56.49,1.04.85,1.45.35.41.77.73,1.24.96.48.23.97.34,1.48.34,1.39,0,3.21-.91,5.47-2.74Z"/>
      <path class="cls-1" d="M263.94,180.67l7.71-3.12h1.04v5.85c.66-1.09,1.31-2.02,1.96-2.79.65-.77,1.3-1.38,1.96-1.85s1.33-.8,2.01-1.01c.69-.21,1.38-.31,2.09-.31,1.42,0,2.71.33,3.87.98,1.16.66,2.14,1.55,2.95,2.67s1.44,2.43,1.89,3.93c.45,1.5.67,3.09.67,4.79,0,1.9-.27,3.71-.81,5.43-.54,1.72-1.3,3.23-2.3,4.53-.99,1.29-2.19,2.33-3.6,3.09-1.41.77-2.98,1.15-4.73,1.15-.6,0-1.16-.03-1.67-.08-.51-.05-1-.16-1.46-.33-.47-.16-.93-.39-1.38-.67s-.94-.66-1.45-1.13v7.63c0,.89.02,1.6.07,2.12.04.52.12.92.23,1.2.11.28.25.5.44.64.18.14.4.28.65.41.51.27,1.46.41,2.85.41v1.01h-13.13v-1.01h.68c.73,0,1.4-.1,2.02-.3.62-.2,1.07-.62,1.34-1.26.2-.46.3-1.59.3-3.39v-23.68c0-.97-.03-1.74-.1-2.31-.06-.58-.18-1.02-.34-1.33-.16-.31-.39-.52-.68-.62-.29-.1-.66-.15-1.09-.15-.4,0-.96.13-1.67.38l-.33-.88ZM272.69,185.02v9.35c0,2.04.08,3.37.25,3.99.13.53.35,1.03.67,1.52s.73.91,1.22,1.27c.49.36,1.05.66,1.68.88s1.32.33,2.06.33c1.06,0,2-.25,2.83-.75.83-.5,1.53-1.19,2.09-2.08.57-.88.99-1.94,1.29-3.16.29-1.22.44-2.55.44-3.99,0-1.57-.16-3.02-.48-4.36-.32-1.34-.77-2.5-1.35-3.47-.59-.97-1.29-1.74-2.11-2.3-.82-.56-1.73-.83-2.73-.83-.45,0-.89.07-1.31.22-.42.15-.86.37-1.32.67-.45.3-.94.68-1.46,1.13-.52.46-1.11.99-1.76,1.59Z"/>
      <path class="cls-1" d="M306,177.45c1.77,0,3.39.35,4.87,1.04,1.48.69,2.75,1.62,3.81,2.79s1.9,2.52,2.49,4.07c.59,1.55.89,3.18.89,4.9,0,1.8-.31,3.53-.92,5.18-.61,1.65-1.46,3.11-2.56,4.39-1.09,1.27-2.4,2.29-3.91,3.05s-3.17,1.13-4.98,1.13-3.38-.36-4.83-1.09c-1.45-.73-2.69-1.7-3.73-2.91-1.04-1.21-1.84-2.6-2.41-4.17s-.85-3.19-.85-4.87.29-3.35.88-4.98c.58-1.62,1.41-3.07,2.48-4.33s2.34-2.28,3.83-3.05c1.49-.77,3.13-1.15,4.94-1.15ZM305.15,179.22c-.8,0-1.57.17-2.31.51-.74.34-1.39.88-1.97,1.64-.57.76-1.03,1.73-1.38,2.93-.35,1.19-.52,2.65-.52,4.36s.19,3.46.56,5.09c.37,1.62.9,3.05,1.59,4.28s1.51,2.21,2.49,2.94c.98.73,2.07,1.09,3.27,1.09.87,0,1.68-.17,2.42-.51.74-.34,1.38-.88,1.93-1.64.55-.76.98-1.75,1.28-2.99.31-1.24.47-2.76.47-4.57s-.17-3.5-.52-5.09c-.35-1.59-.85-2.97-1.52-4.17s-1.49-2.14-2.46-2.83c-.98-.69-2.08-1.04-3.32-1.04Z"/>
      <path class="cls-1" d="M329.08,177.45v5.63c2.11-3.75,4.27-5.63,6.45-5.63.49,0,.95.08,1.37.24.42.16.79.39,1.11.67s.57.61.74.97c.17.36.26.75.26,1.15,0,.71-.24,1.31-.71,1.8-.47.49-1.04.74-1.7.74-.31,0-.66-.1-1.04-.3s-.76-.41-1.13-.64c-.37-.23-.72-.44-1.03-.64s-.55-.3-.71-.3c-.24,0-.5.11-.79.31-.29.21-.59.5-.9.88-.31.37-.63.82-.96,1.34-.33.52-.65,1.09-.96,1.71v12.01c0,.75.05,1.42.14,2.02.09.6.29,1.11.59,1.53s.74.74,1.33.97c.58.23,1.36.34,2.32.34v.98h-12.83v-.98c.8,0,1.46-.05,1.97-.16s.91-.33,1.2-.66c.29-.33.49-.8.6-1.41.11-.61.16-1.42.16-2.42v-9.71c0-2.95-.06-4.68-.19-5.2-.24-1.07-.85-1.61-1.83-1.61-.57,0-1.2.14-1.91.41l-.27-.98,7.58-3.06h1.15Z"/>
      <path class="cls-1" d="M347.68,169.95v8.23h5.85v1.91h-5.85v16.25c0,.82.06,1.5.19,2.04.13.54.3.96.52,1.27s.48.52.78.64c.3.12.63.18,1,.18.6,0,1.18-.19,1.75-.56.57-.37,1-.92,1.31-1.65h1.07c-.33.89-.73,1.68-1.19,2.35-.47.68-.97,1.24-1.52,1.68-.55.45-1.13.78-1.75,1.01s-1.24.34-1.86.34c-.42,0-.84-.06-1.27-.18-.43-.12-.83-.29-1.2-.52-.37-.23-.72-.51-1.03-.83-.31-.33-.56-.71-.74-1.15-.38-.88-.58-2.22-.58-4.02v-16.85h-3.97v-.9c1-.4,2.03-1.08,3.08-2.04,1.05-.96,1.98-2.09,2.8-3.4.2-.35.45-.83.75-1.46s.63-1.41,1-2.34h.85Z"/>
      <path class="cls-1" d="M381.39,156.9v52.65h-1.68v-52.65h1.68Z"/>
      <path class="cls-1" d="M433.56,166.15h12.94v1.01h-.71c-.22,0-.52.05-.89.16-.37.11-.77.26-1.19.47s-.85.46-1.28.77c-.44.31-.84.66-1.2,1.04-.38.4-.8.92-1.24,1.56-.45.64-.95,1.4-1.52,2.27l-8.94,14.08v9.3c0,2.28.26,3.7.77,4.27.68.77,1.77,1.15,3.28,1.15h1.2v1.01h-15.75v-1.01h1.31c1.57,0,2.68-.47,3.34-1.42.4-.57.6-1.9.6-3.99v-8.78l-10.17-15.53c-.6-.93-1.11-1.67-1.52-2.23-.41-.56-.73-.95-.94-1.19-.11-.11-.29-.27-.55-.48-.25-.21-.57-.42-.96-.64-.38-.22-.81-.4-1.27-.56s-.95-.23-1.46-.23v-1.01h15.86v1.01h-.82c-.4,0-.81.05-1.22.14-.41.09-.78.24-1.11.44-.33.2-.6.45-.81.75-.21.3-.31.66-.31,1.08,0,.66.56,1.84,1.67,3.56l7.74,11.95,7.27-11.43c1.09-1.71,1.64-2.99,1.64-3.83-.04-.38-.12-.74-.25-1.07-.13-.33-.33-.61-.6-.85-.27-.24-.65-.42-1.12-.55-.47-.13-1.07-.19-1.78-.19v-1.01Z"/>
      <path class="cls-1" d="M453.88,169.79l9.03-4.4h.9v31.31c0,1.08.02,1.92.05,2.53.04.61.1,1.08.19,1.41.09.33.23.57.41.71s.41.28.68.41c.57.29,1.68.45,3.34.47v1.01h-13.95v-1.01c.89-.02,1.61-.06,2.15-.14.54-.07.96-.17,1.27-.3s.54-.28.68-.47.26-.38.36-.6c.2-.49.3-1.83.3-4.02v-20.02c0-2.74-.09-4.47-.27-5.2-.15-.58-.38-1.01-.71-1.28-.33-.27-.73-.41-1.2-.41-.69,0-1.63.28-2.82.85l-.41-.85Z"/>
      <path class="cls-1" d="M478.27,204v-1.01c1.39-.05,2.66-.24,3.82-.55,1.16-.31,2.24-.76,3.24-1.35,1-.59,1.95-1.33,2.84-2.22s1.77-1.93,2.63-3.13c1.93-2.68,3.26-5.61,3.99-8.78-2.88,1.84-5.47,2.76-7.77,2.76-1.29,0-2.52-.26-3.68-.79-1.16-.53-2.17-1.28-3.02-2.24-.86-.97-1.54-2.13-2.04-3.49-.5-1.36-.75-2.87-.75-4.52s.28-3.29.83-4.88c.56-1.59,1.34-3.01,2.35-4.25,1.01-1.24,2.23-2.24,3.65-3.01,1.42-.77,3-1.15,4.73-1.15s3.35.42,4.8,1.27c1.45.85,2.69,1.98,3.73,3.41,1.04,1.42,1.85,3.06,2.42,4.9.58,1.84.86,3.76.86,5.74,0,1.68-.18,3.32-.53,4.94-.36,1.61-.87,3.17-1.55,4.66-.68,1.5-1.5,2.91-2.48,4.25-.97,1.34-2.07,2.59-3.3,3.73-.95.86-1.93,1.63-2.94,2.32-1.01.69-2.06,1.29-3.16,1.81-1.09.51-2.24.9-3.43,1.17-1.19.27-2.43.41-3.71.41h-1.56ZM495.23,184.94c.33-2.37.49-4.27.49-5.69,0-.78-.07-1.63-.21-2.53-.14-.9-.34-1.8-.6-2.71-.26-.9-.6-1.76-1-2.58s-.87-1.55-1.4-2.19c-.53-.64-1.13-1.14-1.8-1.52-.68-.37-1.41-.56-2.22-.56s-1.57.18-2.3.55-1.38.91-1.94,1.63c-.57.72-1.02,1.63-1.35,2.72s-.51,2.36-.51,3.8c0,1.62.15,3.13.46,4.51.31,1.39.76,2.59,1.36,3.6.59,1.01,1.31,1.81,2.15,2.39.84.58,1.79.88,2.84.88.4,0,.86-.05,1.38-.16.52-.11,1.05-.26,1.6-.45.55-.19,1.08-.43,1.61-.71.53-.28,1-.61,1.42-.97Z"/>
      <path class="cls-1" d="M516.65,182.44c2.48-.53,5.11-1.05,7.69-1.63l.16.63c-1.95,1.16-4.58,2.69-7.85,4.42v15.11c0,3.68-.84,6.37-6.74,6.95,0-3.69-.95-4.85-4.79-5.32v-.74h5.42c.63,0,.84-.26.84-.89v-12.43c-1,.53-2.05,1.05-3.16,1.58-.26.68-.79,1.16-1.42,1.37l-2.37-6.85c1.47-.21,3.95-.63,6.95-1.21v-12.06h-6.48l-.26-1.05h6.74v-11.85l7.48.63c-.05.79-.31,1.16-2.21,1.42v9.79h.74l2.47-3.79,4.53,3.9c-.42.68-1.05.95-2.47.95h-5.27v11.06ZM549.19,186.13c-.05.42-2.68,1.53-4.47,1.53h-.95v-2.16h-4.79v6.79h4.05l2.9-3.9,5.37,4.06c-.42.63-1.16.89-2.53.89h-9.79v8.06c1.05.05,2.21.1,3.42.1,2.79,0,9.43,0,12.53-.1v.63c-1.79.37-2.58,2.53-2.58,5h-10.16c-7.74,0-12.06-2.16-14.43-10.74-2,5.63-5.11,9.42-9.48,11.74l-.63-.58c3.69-3.68,5.85-10.79,6.11-19.32l7.43,1.26c-.16.69-.58,1.05-1.84,1.21-.31,1.53-.68,2.95-1.1,4.27,1.37,2.79,3.05,4.42,5.26,5.37v-14.74h-8.16l-.32-1.05h8.48v-5.9h-11.53l-.26-1h11.79v-5.53h-8.16l-.32-1.05h8.48v-5.32h-11.53l-.26-1h11.79v-6.11l7.64.69c-.11.79-.69,1.16-2.16,1.37v4.05h5.84l3-4.11,5.53,4.21c-.42.68-1.05.89-2.47.89h-11.9v5.32h4.32l2.1-2.68,5.69,4c-.32.37-.95.79-1.9.95v4.32h.21l2.05-3.32,3.84,3.42c-.42.68-1.05.89-2.42.89h-3.69v7.58ZM538.97,172.01v5.53h4.79v-5.53h-4.79ZM538.97,184.44h4.79v-5.9h-4.79v5.9Z"/>
      <path class="cls-1" d="M572.04,182.7c-.42.42-1.21.84-2.69,1.11v13.43c3.69,3.9,7.48,4.47,17.06,4.47,6.05,0,14.27-.05,20.8-.21v.63c-2.16.48-3.42,2.11-3.68,4.63h-17.06c-10.01,0-14.16-1.48-17.8-8.64-2.05,2.79-5.21,6.42-7.21,8.53.05.69-.26,1-.74,1.26l-3.16-6.16c1.63-.63,4.05-1.74,6.53-2.9v-16.22h-6.32l-.21-1.1h5.74l2.74-3.69,6,4.84ZM559.03,160.11c7.74,1.58,10.27,4.95,10.27,7.53,0,1.95-1.47,3.48-3.16,3.48-.79,0-1.63-.32-2.42-1.11-.42-3.26-2.58-7.21-5.05-9.53l.37-.37ZM598.73,167.28c.31-1.26.58-2.9.79-4.21h-21.9c.05.32.05.69.05,1,0,3.11-1.68,5.32-4.26,5.32-1.58,0-3.05-.89-3.05-2.47,0-1.42,1.1-2.42,2.42-3,1.58-.69,3.26-2.53,3.16-4.48l.74-.05c.37.95.63,1.79.79,2.63h21.64l2.84-2.95,5.11,4.9c-.42.37-.95.53-2,.58-1.05.95-2.74,2.16-4.27,3.11l3.69,2.48c-.37.74-1.05.95-2.42.95h-11.37v4.42h5.37l2.16-2.84,5.95,4.16c-.37.42-1.11.89-2.21,1.1v10.53c0,.11-1.42,1.48-5.37,1.48v-1.74h-5.9v4.79h7.74l2.9-3.63,5.42,3.79c-.42.68-1.05.9-2.53.9h-13.53v5.05c0,.11-.79,1.69-5.37,1.69v-6.74h-14.32l-.32-1.05h14.64v-4.79h-5.69v.47c0,.11-.79,1.9-5.26,1.9v-17.32l5.63,2.26h5.32v-4.42h-12.43l-.31-1.05h12.74v-5.53l7.53.63c-.11.74-.53,1.16-2.16,1.37v3.53h5.85l2.21-2.74ZM585.31,176.49h-5.69v4.69h5.69v-4.69ZM579.62,187.13h5.69v-4.9h-5.69v4.9ZM596.57,176.49h-5.9v4.69h5.9v-4.69ZM590.68,187.13h5.9v-4.9h-5.9v4.9Z"/>
      <path class="cls-1" d="M635.8,156.9v52.65h-1.68v-52.65h1.68Z"/>
      <path class="cls-1" d="M706.03,159.59l5.79,4.32c-.37.42-1.16.84-2.21,1.1v40.65c0,.16-1.48,1.74-5.32,1.74v-3.48h-33.54v1.84c0,.1-.53,2.21-5.27,2.21v-47.81l5.79,2.42h32.49l2.27-3ZM670.76,202.87h33.54v-39.23h-33.54v39.23ZM671.91,192.5c2.89-.32,9.42-1.37,16.01-2.48l.16.74c-2.74,1.32-6.74,3.21-12.32,5.58-.26.69-.68,1.11-1.21,1.26l-2.63-5.11ZM703.24,172.54c-.37.74-1.05.95-2.42.95h-8.79c.21,3.95.63,7.79,1.48,11.16,1.16-2.53,2.16-5.32,2.95-8.32l6.06,2.11c-.26.63-.74.95-2.11.84-1.42,3.95-3.21,7.32-5.32,10.22,1.68,3.58,3.47,5.21,3.68,5.21.53,0,2-3.84,2.63-5.79l.48.1-.79,6.95c.89,1.48,1.37,2.48,1.37,3.21,0,1.05-1.11,1.68-2.16,1.68-4.32,0-7.79-6.79-8.27-7.69-3.26,3.37-7.05,5.85-11.27,7.53l-.53-.68c3.84-2.21,7.42-5.64,10.32-10.11-1.79-4.79-2.58-10.37-2.95-16.43h-15.27l-.26-1.05h15.48c-.11-2.37-.16-4.79-.16-7.27l6.53.58c-.11.68-.53.95-1.95,1.16-.05,1.84,0,3.68.05,5.53h4.16l1.9-2.42c-.32-.16-.63-.37-.9-.63-.26-1.32-1.26-2.79-2.37-3.58l.32-.47c4.42.1,5.9,1.53,5.9,2.79,0,.84-.63,1.58-1.42,1.89l3.63,2.53ZM685.81,187.02c0,.42-1.9,1.32-3.21,1.32h-.58v-2h-4.11v1.89s-.53,1.21-3.74,1.21v-13.11l4,1.74h3.42l1.47-1.9,4.32,2.95c-.21.32-.84.63-1.58.79v7.11ZM677.92,185.28h4.11v-6.16h-4.11v6.16Z"/>
      <path class="cls-1" d="M764.79,179.02c-.42.63-1.05.89-2.53.89h-10.79c4.27,3.37,9.53,5.85,14.27,7.21l-.05.58c-2.53,1-4.42,2.68-4.79,4.95-2-1-3.9-2.27-5.63-3.74-.32.47-.84.74-2,.58-2.37,1.95-5.11,4-7.32,5.26l-.69-.53c1-1.95,2.37-5.27,3.58-8.37l6.06,2.74c-2.9-2.42-5.48-5.42-7.58-8.69h-13.95c-1.79,2.32-3.9,4.48-6.27,6.48,5.85,1.05,7.79,3.42,7.79,5.37,0,1.74-1.42,3.16-3.06,3.16-.84,0-1.68-.37-2.42-1.21.05-2.32-1.1-5.21-2.84-6.9-3.11,2.48-6.69,4.69-10.9,6.48l-.42-.69c5.47-3.42,9.63-7.79,12.79-12.69h-11.69l-.31-1.05h12.69c1.21-1.95,2.21-4,3.11-6.06h-10.06l-.32-1.05h10.85c.74-1.84,1.42-3.68,2-5.58h-15.69l-.26-1.05h16.27c.63-2.32,1.21-4.63,1.63-6.95l8.32,1.89c-.21.79-.79,1.05-2.27,1-.37,1.37-.74,2.69-1.21,4.06h12.85l3.05-3.79,5.74,3.95c-.42.69-1.05.9-2.53.9h-19.48c-.63,1.9-1.42,3.74-2.32,5.58h12.58l2.84-3.63,5.42,3.79c-.37.68-1.05.89-2.48.89h-11.9c1.32,2.21,3.16,4.21,5.27,6.06h5.47l3.21-4,5.95,4.16ZM719.67,199.82c3.11-.53,9.95-2.16,16.9-3.9l.16.69c-2.58,1.63-6.37,3.95-11.95,7-.21.74-.58,1.16-1.11,1.32l-4-5.11ZM737.62,182.6l7.42.47c-.05.74-.37,1.05-2.05,1.26v17.37c0,3.42-.79,5.64-6.74,6.11,0-3.63-1.32-4.11-4.53-4.53v-.74h5.05c.63,0,.84-.16.84-.79v-19.17ZM737.88,172.8c-1.05,2.11-2.32,4.11-3.74,6.06h12.48c-1.16-1.95-2.16-3.95-3.05-6.06h-5.69ZM743.78,195.71c12.37.37,16.27,4.53,16.27,7.27,0,1.32-.95,2.32-2.32,2.32-.37,0-.79-.1-1.21-.26-1.9-2.37-6.64-6.11-12.95-8.58l.21-.74Z"/>
      <path class="cls-1" d="M782.11,187.29v10.95c2.74-.53,5.58-1.05,8.48-1.63l.16.74c-4.11,2-10.22,4.74-18.85,8.16-.26.63-.79,1.16-1.37,1.32l-2.63-6.21,2.53-.37v-17.43l5.85.53c-.05.53-.48.79-1.58.95v15.27l2.42-.42v-23.38h-1.53v1.58c0,.37-1.58,1.48-4.05,1.48h-.84v-18.64l5.58,2.21h6.37l2-2.63,5.58,3.9c-.31.37-1.05.79-2.05,1v12.16c0,.05-1.48,1.26-5,1.26v-2.32h-1.05v10.48h1.53l2.42-3.63,4.37,3.74c-.42.68-1.1.95-2.42.95h-5.9ZM775.58,174.7h7.58v-11.32h-7.58v11.32ZM810.86,162.75l5,4.42c-.42.53-.95.68-2.21.74-1.84,3.84-4.26,7.42-7.32,10.53,3.32,2.16,7.32,3.79,12.06,4.9l-.1.58c-2.27.74-3.42,2.32-3.9,4.95l-1.79-.79,3.48,2.58c-.37.37-.9.68-2,.89v14.74c0,.26-1.84,1.37-4.63,1.37h-.89v-3.9h-10.95v2.68c0,.37-1.63,1.58-4.37,1.58h-.89v-20.22c-1.53.69-3.16,1.26-4.85,1.84l-.31-.79c5.58-2.63,10.27-6.21,13.9-10.42-1.63-2.32-2.95-4.9-4.05-7.74-2.27,3.05-4.9,5.47-7.69,7.32l-.69-.48c3.37-4.16,6.69-11.53,8.37-19.22l7.26,2.37c-.26.63-.68,1-2.05.9-.58,1.42-1.26,2.79-1.95,4.05h7.53l3.05-2.89ZM808.01,189.44l2.11-2.68c-2.74-1.53-4.95-3.42-6.85-5.53-2.89,2.42-6.32,4.53-10.16,6.27l5.05,1.95h9.85ZM797.59,202.71h10.95v-12.21h-10.95v12.21ZM799.7,166.64c-.58,1.05-1.21,2-1.84,2.95,1.37,2.37,3.05,4.48,5.16,6.37,2.16-2.89,3.79-6.05,5-9.32h-8.32Z"/>
      <path class="cls-1" d="M820.86,184.71c5.53-5.11,11.06-14.53,14.06-24.91l7.9,3.11c-.26.58-.79.95-2.16.84-4.74,10.21-11.32,17.16-19.27,21.43l-.53-.47ZM847.55,179.02c-.16.63-.69.95-2.11.95-2.1,5.69-5.69,13.32-9.9,19.74,5.85-.16,13.01-.37,20.69-.63-1.84-3.26-4.21-6.48-6.58-8.79l.47-.42c11.16,4.53,14.69,10.37,14.69,14.11,0,2.32-1.32,3.79-3,3.79-.79,0-1.63-.32-2.48-1.05-.47-1.95-1.26-4.06-2.37-6.16-6.21,1.48-14.85,3.06-27.27,5.21-.37.68-.95,1.05-1.53,1.16l-3.74-7.06c2.21,0,5.37-.05,9.22-.11,2.37-7.16,4.47-16.06,5.63-22.69l8.27,1.95ZM870.25,179.76c-2.26.42-4.05,2.21-4.95,5-7.11-5.27-11.85-13.9-14.53-25.48l.69-.31c3.63,9.27,11.37,16.79,18.95,20.22l-.16.58Z"/>
      <path class="cls-1" d="M916.58,159.43l5.84,4.32c-.37.47-1.16.89-2.21,1.16v40.59c0,.05-1.37,1.79-5.37,1.79v-3.16h-33.38v1.58c0,.16-.53,2.27-5.32,2.27v-47.97l5.79,2.42h32.38l2.27-3ZM881.46,203.08h33.38v-39.6h-33.38v39.6ZM908.89,171.8l4.79,3.27c-.42.74-1.11.89-2.42.89h-28.28l-.26-1h12.74v-4.32h-9.43l-.31-1.05h9.74v-4.63l6.79.63c-.05.58-.47.84-1.74,1.05v2.95h3.53l2.37-3,4.63,3.11c-.42.74-1.05.95-2.37.95h-8.16v4.32h5.85l2.53-3.16ZM910.95,180.81c-.21.37-.79.68-1.53.84v5.42l3.58,3.06c-.16.21-.42.31-.79.31-.26,0-.58-.05-.95-.16-1.05.63-2.9,1.47-4.42,2.16,2.11.74,5.21,2.32,5.21,4.79,0,1.16-.79,2.05-1.84,2.05-.58,0-1.26-.26-2-1-1.32-2.05-4.37-4.84-7.69-6.42v8.05c0,.32-1.58,1.48-4.16,1.48h-.84v-9.11c-3.26,2.89-7.32,5.21-11.9,7.05l-.47-.89c4.63-2.9,8.48-7,10.9-11.27h-2.58v.68c0,.05-.69,1.58-4.69,1.58v-11.79l4.95,2.05h12.48l1.79-2.26,4.95,3.37ZM891.46,186.13h13.16v-5.42h-13.16v5.42ZM900.52,187.18v3.95c1.79.21,3.48.47,4.95.89.74-1,1.58-2.32,2.32-3.53-1.47.42-1.84.42-3.16.42v-1.74h-4.11Z"/>
      <path class="cls-1" d="M965.07,183.34c.68-1.48,1.53-4.06,2.1-5.9h-32.96c.26,3.84-1.74,6.69-4.79,6.69-1.63,0-3.11-.84-3.11-2.58,0-1.37,1.05-2.48,2.37-3.06,1.84-.68,3.95-2.79,3.95-5.05h.79c.37,1.05.58,2.05.74,3h21.27c1.21-3,2.47-7.11,3.21-10.11h-29.06l-.32-1.05h18.69v-6.74l7.74.74c-.1.63-.53,1-1.95,1.21v4.79h9.79l3.26-4.16,5.9,4.32c-.37.63-1.05.9-2.53.9h-11l7.42,2.37c-.21.58-.79.79-2.05.68-1.9,2.11-4.9,4.85-7.74,7.06h10.11l3.11-3.06,5.26,5.06c-.42.42-.95.58-2.05.63-1.95,1.42-5.32,3.53-7.58,4.63l-.58-.37ZM966.28,185.6l3.05-3.9,5.63,4.06c-.42.63-1.05.89-2.53.89h-22.22c-.53,2.05-1.16,4-2,5.79h13.21l2.32-2.79,5.84,4.32c-.37.37-1,.69-2.05.84-1.84,12.22-5.37,13.06-11.64,13.16,0-2.9-.42-4.37-6.58-5.32v-.68c2.42.1,6.53.26,7.79.26.95,0,1.48,0,1.9-.32,1.11-.79,2.16-4,2.84-8.48h-14.11c-3.68,7.26-10.21,11.95-20.96,14.53l-.21-.74c10.06-3.95,14.9-10.63,16.74-20.59h-16.01l-.32-1.05h20.85v-6.69l8.11.79c-.11.74-.58,1.05-2.11,1.32v4.58h12.43ZM938.27,166.8c5.79,1.63,7.69,4.16,7.69,6.27,0,1.89-1.58,3.37-3.32,3.37-.89,0-1.84-.42-2.58-1.42.21-2.69-.74-5.95-2.21-7.9l.42-.32Z"/>
    </g>
    <g>
      <g>
        <path class="cls-1" d="M189.42,62.39c7.53-14.05,15.6-38.8,20.01-61.6l16.14,4.95c-.43,1.38-1.4,2.3-4.3,2.3-2.69,8.06-5.7,15.77-9.04,22.91l4.3,1.61c-.32,1.15-1.29,1.84-3.34,2.3v70.35c-.21.92-4.73,3.57-9.14,3.57h-2.04v-59.53c-3.55,5.18-7.21,10.02-11.19,14.05l-1.4-.92ZM267.1,54.68c16.46-.69,21.95,5.87,21.95,10.94,0,2.88-1.83,5.3-4.3,5.64l8.39,6.33c-.86,1.61-2.15,2.07-5.06,2.07h-16.46v15.2c0,7.94-1.72,13.13-14.2,14.28,0-7.94-2.04-9.79-9.79-10.82v-1.5h11.08c1.29,0,1.72-.46,1.72-1.73v-15.43h-40.56l-.54-2.3h41.1v-10.48l15.17,1.04c-.11,1.38-.65,2.19-3.98,2.65v6.79h4.52l5.06-6.79-.54-.35c-1.18-2.42-2.9-4.95-5.06-7.25-11.3,2.42-26.68,5.18-47.56,8.64-.75,1.5-1.94,2.19-3.12,2.42l-4.52-12.67c6.03.11,16.46,0,29.05-.35v-9.56h-11.4v1.04c0,.23-1.83,4.26-11.3,4.26V20.13l11.94,5.18h10.76v-9.67h-26.68l-.54-2.3h27.22V.79l15.92,1.61c-.21,1.73-1.4,2.42-4.63,2.99v7.94h12.27l6.45-8.86,11.84,9.21c-.86,1.5-2.26,1.96-5.16,1.96h-25.39v9.67h10.54l4.41-5.99,12.05,8.87c-.54.81-1.94,1.73-3.87,2.19v21.42c0,.12-3.44,2.53-11.51,2.53v-2.88h-11.62v9.33l12.27-.34c-1.94-1.84-4.09-3.45-6.24-4.6l.32-1.15ZM228.58,80.93c13.13,2.07,17.43,7.25,17.43,11.51,0,3.68-2.9,6.56-6.24,6.56-1.61,0-3.34-.69-4.84-2.53-.54-5.18-3.44-11.17-6.99-14.74l.65-.81ZM249.45,27.62h-11.4v9.56h11.4v-9.56ZM238.05,49.15h11.4v-9.67h-11.4v9.67ZM272.37,27.62h-11.62v9.56h11.62v-9.56ZM260.75,49.15h11.62v-9.67h-11.62v9.67Z"/>
        <path class="cls-1" d="M357.05,37.18c2.04,9.44,5.16,17.39,9.36,24.18,5.92-5.76,12.27-13.47,15.49-18.54l11.84,8.52c-.43.81-1.18,1.26-2.37,1.26-.43,0-1.07-.11-1.72-.23-5.38,3.68-13.56,8.29-21.52,11.63,7.75,11.4,18.4,19,30.56,24.29l-.32,1.27c-4.84.58-8.71,4.26-10.87,10.02-17.97-12.32-28.3-30.28-32.38-62.41h-.65c-3.98,3.8-8.82,7.25-14.31,10.36,13.66,10.13,18.94,25.45,18.94,38,0,7.83-2.04,14.62-5.38,18.31-2.69,3.34-7.53,4.95-14.2,4.95-.21-8.41-3.66-9.9-11.4-11.17v-1.5c4.41,0,10.65.11,13.23.11,1.51,0,2.69-.23,3.34-1.04,2.15-2.76,3.44-8.17,3.44-14.74-13.45,8.29-31.85,14.97-49.71,17.62l-.43-1.84c18.51-5.41,37.55-16.69,48.31-29.25-.32-1.38-.75-2.88-1.29-4.37-11.84,6.79-29.05,13.24-44.33,16.12l-.43-1.61c14.53-5.3,30.66-15.43,39.92-24.87-.75-1.15-1.62-2.3-2.48-3.45-10.33,5.41-22.59,9.33-35.4,12.09l-.65-1.84c14.42-5.41,27.65-13.59,36.47-21.88h-23.78l-.54-2.3h50.89l6.13-8.41,9.04,6.79c.97-3.57,2.37-9.67,3.23-14.16h-67.89c.43,9.56-4.3,16.01-10.65,16.01-3.44,0-6.13-1.84-6.13-5.41,0-2.76,2.04-5.07,4.41-6.45,4.3-1.73,9.04-6.91,9.15-13.01h1.62c.75,2.3,1.18,4.49,1.4,6.56h27.54V.45l16.35,1.61c-.21,1.61-1.18,2.53-4.52,2.99v11.75h27.87l6.03-6.45,10.54,10.82c-.75.92-1.94,1.15-4.09,1.27-3.44,3.8-9.15,8.87-13.77,11.63l1.4,1.04c-.86,1.5-2.26,2.07-5.16,2.07h-20.12Z"/>
        <path class="cls-1" d="M493.37,15.3l13.02,9.67c-.75,1.5-2.04,2.07-5.17,2.07h-37.66c-3.87,5.76-8.93,12.09-13.23,16.46h25.5l4.73-6.56,12.48,9.56c-.75.92-2.26,1.96-4.41,2.42v55.38s-3.12,3.45-11.73,3.45v-8.29h-42.07v4.6c0,.23-1.61,4.84-11.4,4.84V38.1l12.26,5.41h10.98c.43-4.49.75-11.17,1.08-16.46h-41.42l-.65-2.3h58.96c3.01-7.14,6.35-16.93,8.18-24.07l16.14,5.87c-.32,1.04-1.18,1.61-2.69,1.61-.43,0-.97,0-1.51-.12-4.09,5.07-10.98,11.51-17.43,16.7h18.94l7.1-9.44ZM426.66,1.14c14.2,3.45,18.83,9.9,18.83,15.08,0,4.15-3.12,7.49-6.56,7.49-1.72,0-3.55-.81-5.16-2.76-.43-6.33-3.87-14.28-7.85-19l.75-.81ZM476.91,45.81h-42.07v15.2h42.07v-15.2ZM434.84,63.31v15.54h42.07v-15.54h-42.07ZM434.84,97.16h42.07v-16.01h-42.07v16.01Z"/>
        <path class="cls-1" d="M597.73,36.48l5.59-8.29,10.54,8.52c-.86,1.5-2.15,2.07-5.06,2.07h-16.35v18.65c0,.23-1.94,2.99-10.97,2.99v-4.72h-21.63v2.76c0,.23-1.83,2.88-10.98,2.88v-22.57h-14.63v8.64c0,19.11-1.08,44.56-19.9,61.37l-1.18-.92c9.36-17.85,10.01-40.3,10.01-60.45V13.34l12.91,5.07h24.96V.79l15.82,1.5c-.21,1.73-1.29,2.53-4.63,2.99v13.13h24.1l6.35-9.1,11.51,9.44c-.75,1.5-2.15,1.96-5.27,1.96h-74.67v15.77h14.63v-12.2l14.96,1.27c-.22,1.61-1.08,2.42-3.98,2.76v8.17h21.63v-12.2l14.95,1.27c-.21,1.61-1.08,2.42-3.98,2.76v8.17h5.27ZM591.17,69.07l4.41-6.1,12.05,9.1c-.65.92-2.26,1.96-4.41,2.3v14.16c0,6.91-1.08,11.97-13.23,13.47,0-7.94-2.04-10.13-8.29-10.94v-1.5h9.15c1.08,0,1.4-.34,1.4-1.5v-16.69h-15.71v34.2c0,.11-2.26,3.34-11.73,3.34v-37.53h-14.31v27.52c0,.23-1.51,4.15-10.97,4.15v-38.92l11.84,4.95h13.45v-10.59l15.06,1.38c-.22,1.27-.86,1.96-3.34,2.42v6.79h14.63ZM581.49,53.41v-14.62h-21.63v14.62h21.63Z"/>
        <path class="cls-1" d="M809.05,102.12l6.35-8.75,11.84,9.1c-.86,1.38-2.15,1.96-5.16,1.96h-95.22l-.54-2.3h44.54v-16.12h-31.96l-.54-2.3h32.49v-11.17l15.82,1.5c-.22,1.61-1.08,2.42-4.3,2.99v6.68h17.21l6.13-8.52,11.51,8.87c-.86,1.5-2.15,1.96-5.17,1.96h-29.69v16.12h26.68ZM780.64,62.62c-9.9,3.22-24.1,7.25-44.76,12.43-.75,1.5-1.83,2.3-3.01,2.65l-5.49-13.13c4.62-.12,12.16-.58,21.3-1.27v-10.02h-18.08l-.54-2.3h18.62v-11.17h-6.89v2.07c0,.69-3.12,3.11-8.18,3.11h-1.72V3.78l11.3,4.72h21.84l4.09-5.64,11.3,8.41c-.75.92-2.15,1.84-4.2,2.3v26.83c0,.23-2.69,3.23-10.12,3.23v-3.8h-7.21v11.17h6.24l5.38-7.25,10.11,7.48c-.86,1.61-2.26,2.07-5.06,2.07h-16.68v9.21c6.78-.46,14.2-1.04,21.63-1.73l.11,1.84ZM748.69,10.81h-6.89v12.09h6.89v-12.09ZM741.8,37.52h6.89v-12.43h-6.89v12.43ZM766.12,10.81h-7.21v12.09h7.21v-12.09ZM758.91,37.52h7.21v-12.43h-7.21v12.43ZM786.67,16.91c6.78.23,11.51,1.61,14.74,3.57,2.47-2.99,5.27-6.68,7.31-9.67h-28.08l-.75-2.3h29.16l5.81-5.99,10.01,10.13c-.86.92-2.15,1.15-4.41,1.27-4.09,2.65-10.65,6.22-16.35,8.75,1.94,1.96,2.69,4.15,2.69,6.1,0,2.88-1.61,5.18-3.76,5.87h8.71l5.59-6.1,10.01,10.25c-.75.92-1.94,1.15-4.09,1.27-3.12,4.26-8.71,10.36-12.91,13.82l-1.18-.81c1.08-3.8,2.58-11.05,3.34-16.12h-7.96v26.6c0,7.83-1.72,13.13-13.23,14.16,0-8.29-2.15-10.25-9.25-10.94v-1.5h10.65c.97,0,1.4-.58,1.4-1.84v-26.48h-15.17l-.65-2.3h22.06c-.75-.23-1.4-.58-2.15-1.15-1.83-5.64-7.1-12.09-12.05-15.54l.54-1.04Z"/>
      </g>
      <g>
        <path class="cls-1" d="M665.98,6.51l4.36,4.34c-.32.38-.83.48-1.7.58-1.24,1.35-3.31,3.23-4.91,4.24l-.55-.34.09-.48c-.32.19-.83.29-1.56.29h-9.69l-.27-.96h6.43l1.93-2.36,3.31,2.27c.23-1.25.41-2.8.55-4h-13.64v11.42c0,.24-1.47,1.11-3.95,1.11h-.87v-12.53h-12.86c.09.53.14,1.06.14,1.54,0,2.65-1.38,4.72-3.67,4.72-1.38,0-2.57-.77-2.57-2.22,0-1.25.92-2.17,2.02-2.65,1.42-.58,2.75-2.36,2.53-4.34l.64-.05c.27.72.51,1.4.69,2.02h13.09v-4.58h-14.37l-.28-.96h27.41l2.62-3.47,4.91,3.57c-.32.67-.92.87-2.16.87h-13.31v4.58h13.22l2.43-2.6ZM640.54,16.63l3.72,2.56c-.32.63-.92.82-2.02.82h-10.15l-.28-.96h6.8l1.93-2.41ZM667.58,35.43v4.24c1.84.77,2.07.87,2.07,1.64,0,1.78-1.42,2.84-6.66,2.84h-10.93c-5.42,0-6.52-.92-6.52-5.83v-2.41h-8.36v1.4c0,.14-.73,1.83-4.78,1.83v-17.21l5.14,2.12h20.98l1.93-2.6,5.14,3.81c-.27.38-.92.77-1.79,1.01v10.46s-1.33,1.4-4.82,1.4v-2.22h-8.68v2.7c0,1.64.14,1.73,1.97,1.73h10.93c2.43,0,2.48,0,3.86-4.92h.51ZM640.4,11.86l3.58,2.46c-.32.63-.92.82-2.02.82h-9.09l-.23-.96h5.92l1.84-2.31ZM645.54,25.02h-8.36v4.39h8.36v-4.39ZM637.19,34.95h8.36v-4.58h-8.36v4.58ZM659,25.02h-8.68v4.39h8.68v-4.39ZM650.32,34.95h8.68v-4.58h-8.68v4.58ZM660.97,16.53l3.95,2.65c-.37.63-.96.82-2.07.82h-10.88l-.27-.96h7.25l2.02-2.51Z"/>
        <path class="cls-1" d="M711.52,23.28l4.78,3.66c-.28.39-.83.68-1.7.82-.27,10.03-.73,12.68-7.07,12.68,0-3.18-.74-3.61-3.54-4.34v-.68c.96.05,3.08.05,3.86.05.64,0,.92,0,1.15-.19.55-.63.83-3.28.96-8.63h-6.2v17.16c-.05.34-1.47,1.4-3.95,1.4h-.83v-12c-3.12,3.66-7.16,6.7-11.85,9.01l-.51-.72c4.82-3.81,8.59-9.35,10.74-14.85h-3.53l-.41,2.41c-.64.34-1.28.53-2.2.53-.6,0-1.33-.1-2.3-.29l.32-1.78c-.41.43-.96.72-1.52.72-.64,0-1.33-.34-1.88-1.06-.09-2.12-1.06-4.96-2.25-6.84v23.28c0,.1-.64,1.54-4.78,1.54v-19.57c-1.65,3.09-3.72,5.88-6.2,8.39l-.6-.68c3.4-5.64,5.33-13.06,6.38-20.49h-5.88l-.23-.96h6.52V0l6.61.63c-.05.72-.46,1.06-1.84,1.25v9.98h.51l2.25-3.47,4.13,3.62c-.37.63-.96.82-2.2.82h-4.68v6.65l.05-.05c3.86,1.49,5.6,3.37,6.15,5.06.55-3.42,1.06-6.89,1.33-9.21l4.73,2.27h3.12v-7.57h-9.37l-.27-.92h13.91c.96-2.7,2.02-6.36,2.66-9.01l6.61,2.22c-.23.58-.69.77-1.79.68-1.56,1.78-3.95,4.19-6.2,6.12h3.49l1.84-2.51,5.05,3.71c-.27.34-.92.72-1.79.92v8.63c0,.1-1.28,1.2-4.64,1.2v-2.55h-4.73v7.23h5.79l1.97-2.41ZM692.32.38c5.37,1.25,7.12,3.66,7.12,5.59,0,1.59-1.19,2.84-2.53,2.84-.69,0-1.38-.29-1.97-1.01-.18-2.41-1.42-5.4-2.98-7.13l.37-.29ZM694.99,18.46c-.23,1.83-.64,4.67-1.01,7.23h5.01v-7.23h-4ZM703.76,9.98v7.57h4.73v-7.57h-4.73Z"/>
        <path class="cls-1" d="M629.88,89.49v-14.37c-.96,1.01-1.97,1.93-3.03,2.7l-.64-.44c2.3-3.18,4.64-8.77,6.06-14.37l5.46,1.98c-.23.63-.64.87-1.79.82-.6,1.25-1.19,2.46-1.88,3.61l.6.24h3.08c.46-1.83.96-4.34,1.24-6.17l6.11,1.73c-.14.53-.64.72-1.7.68-1.1,1.16-2.71,2.6-4.27,3.76h3.21l2.02-2.6,3.86,2.7c-.37.67-.92.82-2.07.82h-5.1v4.39h1.01l1.74-2.41,3.4,2.56c-.32.63-.92.82-2.02.82h-4.13v4.43h1.01l1.74-2.46,3.4,2.6c-.27.63-.87.82-2.02.82h-4.13v4.53h1.79l2.02-2.79,3.95,2.94c-.37.63-.92.82-2.11.82h-12.58v1.25c0,.34-1.33,1.4-3.44,1.4h-.78ZM659.6,88.38l4.41,4.53c-.32.48-.87.63-2.11.68-2.43,2.8-5.37,5.11-8.72,7.04,5.23,1.25,10.93,1.93,16.53,2.17v.63c-2.16.63-3.4,2.36-3.86,4.87-6.61-.92-12.77-2.46-17.95-5.01-6.06,2.51-13.09,4.15-20.85,5.11l-.18-.77c6.52-1.35,12.63-3.38,17.86-6.12-3.81-2.36-6.98-5.45-9.23-9.4h-6.98l-.27-.96h28.24l3.12-2.75ZM637.1,70.6h-2.98v4.39h2.98v-4.39ZM637.1,80.38v-4.43h-2.98v4.43h2.98ZM637.1,85.87v-4.53h-2.98v4.53h2.98ZM636.59,92.09c2.8,3.18,6.98,5.54,11.89,7.18,3.17-2.07,5.88-4.48,7.94-7.18h-19.84ZM649.72,75.03c-.92.96-1.93,1.78-2.94,2.51l-.6-.48c2.3-3.04,4.5-8.44,5.69-14.03l5.51,1.93c-.18.53-.6.82-1.7.77-.55,1.3-1.15,2.51-1.79,3.66l.69.29h3.17c.46-1.83.96-4.34,1.19-6.17l6.29,1.73c-.18.53-.64.77-1.7.68-1.1,1.2-2.8,2.6-4.36,3.76h3.58l2.07-2.65,3.95,2.75c-.32.67-.96.82-2.11.82h-5.23v4.39h1.1l1.84-2.56,3.58,2.7c-.32.63-.92.82-2.07.82h-4.45v4.43h1.1l1.88-2.55,3.58,2.7c-.37.63-.92.82-2.07.82h-4.5v4.53h1.97l2.16-2.94,4.13,3.04c-.37.68-.96.87-2.16.87h-13.55v1.06c0,.34-1.33,1.4-3.49,1.4h-.78v-14.27ZM657.34,70.6h-3.35v4.39h3.35v-4.39ZM657.34,80.38v-4.43h-3.35v4.43h3.35ZM657.34,85.87v-4.53h-3.35v4.53h3.35Z"/>
        <path class="cls-1" d="M709.96,94.41l5.55,4.05c-.37.63-.92.87-2.25.87h-16.9v7.38c0,.1-.64,1.64-5.05,1.64v-9.01h-18.46l-.27-.96h18.74v-5.98h-7.53v1.06c0,.1-.73,1.93-4.87,1.93v-21.74l5.19,2.22h7.21v-5.59h-17.22l-.28-.96h17.5v-6.22l6.89.68c-.09.68-.46,1.06-1.84,1.2v4.34h9.37l2.94-3.85,5.56,3.95c-.37.63-.92.87-2.25.87h-15.61v5.59h7.3l1.97-2.7,5.33,4c-.32.38-.92.77-1.88.96v15.23s-1.33,1.49-4.96,1.49v-2.46h-7.76v5.98h10.61l2.98-3.95ZM691.31,76.81h-7.53v6.7h7.53v-6.7ZM683.78,91.42h7.53v-6.94h-7.53v6.94ZM704.12,76.81h-7.76v6.7h7.76v-6.7ZM696.36,91.42h7.76v-6.94h-7.76v6.94Z"/>
      </g>
      <line class="cls-4" x1="626.56" y1="54.13" x2="715.57" y2="54.13"/>
    </g>
    <g>
      <polyline class="cls-2" points="508.86 230.27 .44 230.27 .44 136.99 508.86 136.99"/>
      <polyline class="cls-3" points="508.86 230.27 1017.28 230.27 1017.28 136.99 508.86 136.99"/>
    </g>
  </g>
</svg>