<svg width="180" height="81" viewBox="0 0 180 81" xmlns="http://www.w3.org/2000/svg" fill="#FFF">
<path fill="#F29600" d="M41.7,50.3c-4.1-4.9-13.6-4.3-13.6,10c5.3-6.7,18-5.5,18,7.9c0,16.2-24.7,19.6-24.7-6.5
	c0-21.8,16.6-23.9,24.1-15.9 M39.4,68.2c0-7.9-7.4-8.8-11.2-2.6C28.9,78.2,39.4,77.8,39.4,68.2z M67.4,60.4
	c8.6,4.3,9.8,20.5-6.2,20.5c-15.5,0-14.8-16.1-5.9-20.2c-8.8-6.6-5-19.2,6.2-19.2C71.8,41.5,76.2,53.7,67.4,60.4z M58.7,62.9
	c-5.2,4.3-4.4,12.7,2.8,12.7C66.8,75.6,71.8,67.9,58.7,62.9z M61.3,46.8c-4.8,0-7.9,8,2.2,11.7C67.5,54.3,67.2,46.8,61.3,46.8z"/>
<path d="M65.3,32.9c-6.2-3-10.1-8.2-12.8-15c-1.8,5.9-5.5,11.4-12.7,15l-3-3.6c7.8-3.6,11-9.5,12.3-15.5H37.5V9.4h12.4L50.2,0h4.4
	l-0.4,9.4h13.4v4.4h-12c2.2,6.9,6.4,12.4,12.7,15.1 M71.7,30.8v-4.3h29.5v4.3 M73.6,7.6V3.4h25.8v4.2 M76,18.9v-4.3
	c0,0,20.7,0,20.7,0v4.3 M112.5,15.3l-0.1,2.4h8.7l-0.7-1.8l4-0.8l1.2,2.6h10.3V21H122l-0.3,1.9h11c-0.6,8.7-0.8,10.6-9,10
	c0-1.1-0.5-2.5-1.1-3.5c3.8,0.2,5.5,1.4,5.8-3.3h-7.8c-1.4,3-3.8,5.3-8.7,6.9l-2.2-3.3c6.1-1.7,7.7-4.7,8.2-8.7h-5.8
	c-0.4,4-2,9.6-4.6,12.4l-2.9-3.1c5.8-7.6,3.5-18.9,4-27.6c7.8-0.5,16.6-1.3,21.8-2.6l3.1,3.1c-5.8,1.4-13.7,2.2-20.9,2.6v1.1H134
	v8.5 M112.5,10.1v2.1h17.4v-2.1 M86,51.6h-4v-6.8h4 M74.9,50.1v-3.4h14.6v3.4 M78.6,63.4V52.1h23v11.3 M80.4,77.9h-3.9v-14h3.9
	 M98,51.6h-4v-6.8h4 M90.6,50.1v-3.4h14.6v3.4 M97.6,60.7v-1.6H82.5v1.6 M75.2,68.3v-3.4H104v9.3c0,3.7-2.4,3.7-5.6,3.8l-0.8-2.7
	l-1.7,0.5L95.5,74L82,74.9l-0.3-3.5l6.2-0.3V54.9h-5.4v1.6h15v-1.6h-5.6v15.9l2.5-0.1l-0.8-1.6l3-0.8c1.1,1.9,2.1,4.5,2.4,6.3
	c0.4,0,1.1,0.2,1-0.5v-5.8 M107,74.1c5.4-1,16.5-4.3,20-14.3l4.1,1.2c-3.3,8.8-11.1,14.4-21.6,16.9L107,74.1z M135.6,77.7
	c-12.7-2.3-18.2-9.7-21.1-16.5l3.7-1.2c2.2,5.8,7.6,12.1,19.9,13.9L135.6,77.7z M107.3,60.5c3-1.6,6.4-4.2,8.3-6.7l3.9,1.5
	c-2.3,3.1-6,6.3-9,8.3 M107.5,53.4v-4.1h13.3l-1.7-3.5l3.9-1.4l2.5,4.9h12v4.1 M134.3,63.7c-1.7-2.2-5.5-5.5-8.5-7.8l3.2-2.4
	c2.9,2.1,6.9,5.2,8.8,7.5 M147.6,71.3V68h20.1v3.3 M164.5,52v-2.2h-18V52 M159.6,73.8h10.6v3.3h-24.9v-3.3h10.3V66
	c-5.4,0.4-6.6,0.6-7.4,0.9l-1.2-3.6c1.6-0.5,2.4-1.4,4-2.9h-4.7c-0.2,5.8-1.1,12.8-3.9,17.6l-3.7-2.2c4.9-8.8,3.2-20,3.6-29.3h26.2
	v9h-22V57h23v3.3h-13.3l-2.6,2.4l7.6-0.4l-1.3-1.1l3.1-1.8l6.5,5.9l-3.2,2l-1.8-2.1l-4.8,0.3 M16.8,62.5h-2.1v-0.8H6.8v0.8h-2v-13H9
	l0.4-2.2l2.4,0.3L11,49.5h5.8 M14.7,52.9v-1.7H6.8v1.7 M14.7,56.4v-1.7H6.8v1.7 M14.7,59.9v-1.7H6.8v1.7 M7.7,67.9v-1.8h10.2v1.8
	 M6.5,79.9H4.6v-8c-0.3,0.5-0.6,0.9-0.9,1.2c-0.2-0.5-0.6-1.6-1-2.1c1.3-1.5,2.5-3.9,3.2-6.3l1.8,0.5c-0.3,1.1-0.7,2.1-1.2,3.2
	 M7.2,70.7v-1.8H14v-4h1.9v4h2.4v1.8 M10.1,77.6c-0.2,0.9-0.6,1.8-1.1,2.5L7.4,79c1.2-1.5,1.1-3.5,1.1-5.2l-0.9,0.7l-1.1-1.6
	c0.9-0.6,3.1-2.2,3.6-4v-4.1H12v4.1c-0.1,1-1.1,2.3-1.3,2.6h7.1v6.7c0,1.7-1.2,1.6-2.7,1.7l-0.5-1.5c1.4,0.1,1.3,0,1.3-0.8
	 M15.8,76.2v-0.9h-5.5v0.9 M14,79.6h-1.8V73h-1.8v0.8h5.5V73H14 M90.2,77.9c-2.4,0-4.4-2-4.4-4.4s2-4.4,4.4-4.4s4.4,2,4.4,4.4
	S92.6,77.9,90.2,77.9z"/>
<path fill="#0863A6" d="M90.2,69.4c-2.3,0-4.1,1.8-4.1,4.1c0,2.3,1.8,4.1,4.1,4.1c2.3,0,4.1-1.8,4.1-4.1C94.4,71.3,92.5,69.4,90.2,69.4
	z M88.1,73.3l0.5,0.1l-0.2,0.9c0.2,0.3,0.4,0.5,0.7,0.6v-1.8h-1.3v-0.5h1.1V72h-1v-0.5h1v-0.7h0.5v0.6h1V72h-1v0.6h1.1v0.5h-0.9v0.7
	h0.9v0.5h-0.9v0.9c0.7,0.2,2,0.2,3.3,0.2l-0.3,0.5c-1.6,0-3.5,0.2-4.3-1.1l-0.2,1.1l-0.5-0.3L88.1,73.3z M90.7,74.7v-3.5h1.8v2.2
	h-1.3v1.1c0,0.2,0.2,0.2,0.5,0.2c0.5,0,0.4,0,0.5-0.8l0.5,0.1c-0.1,1.3-0.4,1.2-1.3,1.2C90.8,75.2,90.7,75,90.7,74.7z M91.2,72.9
	h0.9v-1.3h-0.9V72.9z"/>
</svg>
