<?xml version="1.0" encoding="utf-8"?>
<!-- Generator: Adobe Illustrator 26.5.0, SVG Export Plug-In . SVG Version: 6.00 Build 0)  -->
<svg version="1.1" id="_圖層_2" xmlns="http://www.w3.org/2000/svg" xmlns:xlink="http://www.w3.org/1999/xlink" x="0px" y="0px"
	 viewBox="0 0 659.2 181.1" style="enable-background:new 0 0 659.2 181.1;" xml:space="preserve">
<style type="text/css">
	.st0{fill:#606060;}
	.st1{opacity:0.2;fill:#FFFFFF;}
	.st2{fill:url(#SVGID_1_);}
</style>
<rect x="-21.9" y="-52.7" class="st0" width="704.9" height="267.7"/>
<path class="st1" d="M76.2,48.7l3.2,2.5c-0.3,0.3-0.8,0.5-1.6,0.6c-0.5,3.7-1.3,5.9-2.7,6.8c-0.9,0.6-2.3,0.9-3.6,0.9
	c0-0.8-0.2-1.6-0.6-2c-0.5-0.5-1.6-0.8-2.8-1v-0.1c-0.2,0-0.3-0.1-0.5-0.2c-0.3-1.2-1.4-2.7-2.5-3.4l0.4-0.4c4.4,0.4,5,2.6,4.2,3.6
	c1,0.1,2,0.1,2.5,0.1c0.5,0,0.9,0,1.1-0.3c0.6-0.4,1.1-1.9,1.4-4.4H53v0.8c0,0.3-1.4,1.1-2.7,1.1h-0.5V36.1l3.4,1.5h3.9
	c0.2-0.9,0.5-2,0.8-2.8H47.4c0,2.2-0.9,3.8-2,4.4c-1,0.6-2.4,0.6-2.9-0.5c-0.3-1,0.3-1.8,1.2-2.3c1.3-0.8,2.5-2.8,2.4-5h0.7
	c0.2,0.7,0.4,1.4,0.5,2.1h27.8l1.9-1.8l3.3,3.2c-0.3,0.3-0.8,0.4-1.6,0.4c-0.9,1.1-2.8,2.9-4.2,3.9L74,39c0.4-1.1,0.9-2.8,1.3-4.2
	H58.8l3.7,0.9c-0.1,0.5-0.7,0.8-1.6,0.8c-0.5,0.3-1.1,0.7-1.7,1.1H68l1.6-1.7l3.4,2.6c-0.2,0.3-0.8,0.6-1.5,0.7v6.2
	c0,0.3-1.6,1-2.7,1h-0.5v-1.1H53v2h18.6l2.1-2.5c0,0,2.3,1.7,3.7,3c-0.1,0.5-0.5,0.7-1.1,0.7H53v1.9h21.5L76.2,48.7z M49.3,52.6
	c0.8,3.4-0.9,5.7-2.6,6.4c-1.1,0.5-2.6,0.2-3-0.9c-0.3-1,0.5-1.8,1.4-2.3c1.4-0.5,3.2-1.7,3.4-3.3L49.3,52.6z M46.3,23.4
	c7.1,2,4.6,6.8,2.3,4.9c-0.2-1.6-1.6-3.6-2.7-4.6L46.3,23.4z M47.3,32.7c4.9-2.7,4.9-6.4,4.9-10.9l3.9,0.4c-0.1,0.5-0.4,0.9-1.2,1
	c-0.1,1.2-0.2,2.3-0.4,3.4c1.4-0.9,2.9-2.1,3.9-3l2.9,2.1c-0.2,0.3-0.6,0.5-1.4,0.2c-1.4,0.5-3.7,1.2-5.6,1.7c7.8,1.3,6.4,6.4,3.7,5
	c-0.7-1.4-2.5-3.1-4.1-4.3c-0.9,1.9-2.6,3.5-6.1,4.8L47.3,32.7z M53.5,52.7c5.6,3.6,1.8,7.7-0.2,5.1c0.3-1.6,0.1-3.6-0.3-5
	L53.5,52.7z M53,38.7v2.1h15.3v-2.1H53z M68.3,43.9v-1.8H53v1.8H68.3z M59.3,52.5c6.8,2.3,3.8,7.2,1.4,5c0-1.6-0.9-3.6-1.8-4.8
	L59.3,52.5z M61.4,23.4c7.1,1.8,4.8,6.5,2.4,4.8c-0.3-1.6-1.6-3.4-2.8-4.4L61.4,23.4z M61.1,32.8c6.6-2.5,6.6-6.1,6.6-11.2l4,0.4
	c0,0.5-0.4,0.9-1.2,1c-0.1,1.4-0.2,2.7-0.5,4c1.6-1.1,3.5-2.7,4.7-3.7l3,2.4c-0.2,0.3-0.6,0.4-1.4,0.2c-1.4,0.6-3.7,1.3-5.7,1.9
	c6.9,1.4,5.7,6.1,3,4.9c-0.7-1.4-2.5-3-4.1-4.2c-1.1,2.1-3.2,3.8-8,5.1L61.1,32.8z M107.4,55.3c0,2.2-0.5,3.6-4.3,3.9
	c-0.1-0.8-0.3-1.5-0.7-1.9c-0.5-0.5-1.4-0.8-3.1-1v-0.6c0,0,3.5,0.2,4.2,0.2c0.7,0,0.9-0.2,0.9-0.7V40.7H89.4l-0.3-1.2h17.5l2-2.5
	c0,0,2.2,1.7,3.6,3c-0.1,0.5-0.5,0.7-1.1,0.7h-3.7V55.3z M89.7,25.7l-0.3-1.2h16l2-2.5c0,0,2.3,1.7,3.6,3c-0.1,0.5-0.5,0.7-1.1,0.7
	h-2.7v11.8c0,0.2-1,0.8-2.5,0.8h-0.5V25.7H89.7z M101.3,52.1c0,0.3-1.4,1-2.3,1h-0.5v-1.2h-4.4v1.5c0,0.2-1.2,0.9-2.3,0.9h-0.5V42.6
	l3,1.3h3.8l1.6-1.6l3.3,2.5c-0.2,0.3-0.9,0.6-1.6,0.8V52.1z M98.8,37.3V36h-4.2v1.3c0,0.2-1.2,0.9-2.3,0.9h-0.4V27.5l3,1.3h3.6
	l1.5-1.6l3.3,2.5c-0.2,0.3-0.9,0.6-1.6,0.7v5.9c0,0.3-1.4,0.9-2.3,0.9H98.8z M98.5,50.7v-5.6h-4.4v5.6H98.5z M98.8,34.8V30h-4.2v4.8
	H98.8z M118.2,35.6c0.7,9.8,2.6,16.6,9.3,20.5l0,0.5c-1.6,0.3-2.5,1.1-2.8,3c-4.5-3.6-6.2-10.2-6.9-18.3c-0.8,7.3-3,14.3-10.4,18.4
	l-0.5-0.6c7.5-5.6,8.2-15.7,8.4-25.7l4.6,1c-0.1,0.5-0.5,0.9-1.5,0.9L118.2,35.6z M109.4,37c1.5-4,3-10,3.8-15.3l4.8,1.2
	c-0.2,0.5-0.6,0.9-1.5,0.9c-0.7,2.1-1.5,4.3-2.4,6.2h8.2l1.8-1.8l3.2,3.1c-0.3,0.3-0.8,0.4-1.6,0.5c-1,2.1-2.7,5.3-4.3,7.2l-0.5-0.3
	c0.5-2,1.2-5.2,1.6-7.5h-9c-1,2.3-2.3,4.3-3.5,6L109.4,37z M145.1,38.2c8.1,3.1,5.6,8.2,3,6.1c-0.4-1.7-1.7-3.8-3-5.3v19.5
	c0,0.2-1,1-2.5,1h-0.5V43c-1.7,3.4-3.9,6.4-6.5,9l-0.5-0.5c3.1-4.5,5.2-10.5,6.4-16.4h-5.3l-0.3-1.2h6.3v-6.5
	c-2,0.5-4.1,0.9-6.1,1.2l-0.2-0.6c4.1-1.5,9-4.1,11.5-6l3.9,3.2c-0.4,0.4-1.1,0.5-2.2,0.1c-1.1,0.4-2.4,0.9-3.9,1.3V34h1.2l1.8-2.5
	c0,0,2.1,1.8,3.3,3c-0.1,0.5-0.5,0.7-1.1,0.7h-5.3V38.2z M158.8,37.1c-0.9,1.8-2,3.6-3.2,5.3l0.9,0.4h4v-4.2L165,39
	c-0.1,0.6-0.4,1-1.5,1.1v2.5h4.6l1.5-1.8l3.7,2.7c-0.3,0.3-0.9,0.7-1.8,0.9v8.2c0,2.3-0.4,3.6-3.8,4c0-0.9-0.2-1.7-0.5-2.2
	c-0.4-0.5-1-0.7-2.2-0.9v-0.6c0,0,2.2,0.2,2.8,0.2c0.6,0,0.7-0.2,0.7-0.7v-8.5h-5v14.6c0,0.4-1.3,1-2.5,1h-0.5V43.9h-4.6v11.8
	c0,0.3-0.9,1.2-2.5,1.2H153V45.5c-1.5,1.6-3.1,3-5,4.1l-0.4-0.5c3.4-3.2,6-7.7,7.8-12.1h-6l-0.3-1.2h6.8c0.6-1.7,1.1-3.4,1.4-5
	l4.8,1.5c-0.2,0.5-0.5,0.7-1.5,0.7c-0.3,0.9-0.7,1.8-1.2,2.7h8.8l2-2.6c0,0,2.3,1.8,3.6,3.1c-0.1,0.5-0.5,0.7-1.1,0.7H158.8z
	 M149.9,31.7c3.3-1.1,6.8-2.8,9.9-4.6c-2.3-1.1-5-2.1-7.7-3l0.2-0.6c4.1,0.6,7.4,1.4,10,2.1c2.1-1.4,3.9-2.7,5.1-4l4.3,2.6
	c-0.3,0.4-1,0.6-2.2,0.3c-1.1,0.7-2.5,1.5-4,2.3c6.8,3,5.4,6.3,3,5.5c-1.3-1.1-3.5-2.5-6.2-3.9c-3.7,1.6-7.9,3-12.1,3.9L149.9,31.7z
	 M215.9,25.6c0,0,2.5,1.9,4.1,3.3c-0.1,0.5-0.5,0.7-1.1,0.7h-20.1c-0.9,1.8-2,3.7-3.4,5.5l0.9,0.3H210l1.7-2l4,3
	c-0.3,0.4-1,0.8-1.9,0.9v17.8c0,2.5-0.5,4-4.9,4.4c-0.2-1.1-0.4-1.9-0.9-2.4c-0.6-0.5-1.6-0.9-3.6-1.2v-0.6c0,0,4.3,0.3,5.2,0.3
	c0.8,0,0.9-0.2,0.9-0.9v-5.5h-15.3c-0.7,3.7-2.1,7.5-5.8,10.4l-0.5-0.5c3.2-4.8,3.4-10.8,3.4-16.3v-4.1c-2.5,2.8-5.7,5.3-9.2,7.3
	l-0.4-0.5c5.5-4.2,9.6-10.2,12.3-16.1h-11.4l-0.3-1.2h12.3c1-2.3,1.8-4.6,2.4-6.8l5,1.5c-0.2,0.5-0.5,0.7-1.6,0.7
	c-0.6,1.5-1.2,3.1-2,4.6h14.2L215.9,25.6z M210.5,48v-5.2h-14.8v0c0,1.6,0,3.4-0.3,5.1H210.5z M195.6,36.5v5.1h14.8v-5.1H195.6z
	 M228.5,55.4v-0.8c7.1-6,12-11,14.7-15s4.1-8,4.1-12c0-2.8-0.6-5-1.7-6.6c-1.2-1.6-2.8-2.4-5-2.4c-2,0-3.7,0.7-5,2.2s-2.9,3.8-4.7,7
	l-0.5-0.2l1.4-8.4c2.7-1.1,5.7-1.6,9-1.6c4.3,0,7.5,0.9,9.6,2.7c2.1,1.8,3.2,4.2,3.2,7.2c0,3.6-1.5,7.1-4.5,10.6
	c-3,3.5-7.7,7.6-14.2,12.2h10c2.2,0,3.9-0.4,5.2-1.1c1.3-0.7,2.7-1.8,4.1-3.3l0.4,0.2l-2.9,9.3C251.7,55.4,228.5,55.4,228.5,55.4z
	 M270.4,56.2c-3.8,0-6.8-0.7-9.2-2.2l-1.3-7.9l0.5-0.1c1.7,3.1,3.3,5.4,4.8,6.9s3.3,2.3,5.3,2.3c2.5,0,4.4-1,5.9-3s2.2-4.8,2.2-8.4
	s-0.8-6.3-2.4-8.2c-1.6-1.8-3.9-2.7-6.9-2.7c-2.6,0-5,0.7-7.1,2.1l-0.4-0.2l2.8-16.5h19.1l-1,5.1h-17.8l-1.8,10.3
	c2.2-1.3,4.7-2,7.6-2c3.9,0,7.1,1,9.6,3c2.6,2,3.9,4.9,3.9,8.8s-1.3,6.9-4,9.2C277.7,55.1,274.4,56.2,270.4,56.2z M306.3,56.2
	c-4.4,0-8.1-1.9-11.1-5.5c-3-3.7-4.5-8.3-4.5-13.8s1.5-10.1,4.5-13.8s6.7-5.5,11.1-5.5s8.1,1.8,11.2,5.5c3,3.7,4.5,8.3,4.5,13.8
	s-1.5,10.1-4.5,13.8C314.4,54.4,310.7,56.2,306.3,56.2z M306.3,55.2c6,0,9.1-6.1,9.1-18.3s-3-18.3-9.1-18.3c-6,0-9,6.1-9,18.3
	S300.3,55.2,306.3,55.2z M344.2,56.2c-4.4,0-8.1-1.9-11.1-5.5c-3-3.7-4.5-8.3-4.5-13.8s1.5-10.1,4.5-13.8s6.7-5.5,11.1-5.5
	s8.1,1.8,11.2,5.5c3,3.7,4.5,8.3,4.5,13.8s-1.5,10.1-4.5,13.8C352.3,54.4,348.6,56.2,344.2,56.2z M344.2,55.2c6,0,9.1-6.1,9.1-18.3
	s-3-18.3-9.1-18.3c-6,0-9,6.1-9,18.3S338.2,55.2,344.2,55.2z M371.2,33.6h9.6l1.8-2.3l2.9,3.1l-0.3,0.5h-10.4c-0.6,0-1,0-1.5,0.1
	c-0.4,0.1-0.8,0.2-1.4,0.3L371.2,33.6z M371.3,51.1c0.6-0.1,1.4-0.2,2.2-0.4c0.7-0.1,1.6-0.4,2.7-0.6c2-0.5,3.7-1,5.1-1.4
	c1.3-0.4,2.6-0.8,4-1.3l0.3,0.6c-1.8,1.2-3.7,2.2-5.6,3.1c-1.7,0.8-3.7,1.7-6.2,2.6c-0.1,0.6-0.1,1-0.2,1.2s-0.2,0.2-0.5,0.2
	c-0.1,0-0.3-0.1-0.3-0.2c-0.1-0.1-0.2-0.3-0.3-0.6L371.3,51.1z M376.3,21.5l3.8,0.7c0.3,0,0.5,0.1,0.6,0.2s0.1,0.2,0.1,0.4
	c0,0.2-0.1,0.3-0.2,0.5c-0.1,0.1-0.3,0.2-0.4,0.3l-1,0.5v26.7h-2.7V26.5c0-1.1,0-2.1-0.1-2.9C376.4,22.8,376.4,22.1,376.3,21.5z
	 M382.9,43.2h20.8l2-2.7l3.7,3.5l-0.3,0.5h-22.5c-0.6,0-1.1,0-1.6,0.1c-0.4,0-0.8,0.1-1.4,0.2L382.9,43.2z M384,25.2h18.8l2-2.7
	l3.8,3.4l-0.3,0.5h-20.6c-0.6,0-1.1,0-1.6,0.1c-0.4,0-0.9,0.1-1.4,0.2L384,25.2z M385.8,29.3c1.8,1.6,3.1,3,4,4.3
	c1,1.6,1.5,3.1,1.5,4.6c0,0.6-0.1,1-0.4,1.3c-0.2,0.3-0.6,0.4-0.9,0.4c-0.4,0-0.6-0.2-0.8-0.6c-0.2-0.4-0.4-1.1-0.6-2
	c-0.3-1.4-0.7-2.9-1.4-4.3c-0.5-1.1-1.1-2.2-1.9-3.4L385.8,29.3z M394.4,43.7h2.7v9.6c0,0.1,0,0.1,0,0.2c0,0.1,0,0.2,0,0.3
	c0,0.6,0,1.1,0,1.6c0,0.6,0,1.3,0,2c0,0.3,0,0.8,0,1.3c0,0.4,0,0.8,0,1.1l-2.9,0.6c0-2,0.1-3.7,0.1-5c0-1.2,0-1.9,0-2.2L394.4,43.7
	L394.4,43.7z M394.5,25.9h2.7v18.3h-2.7V25.9z M403.8,29l3.2,1.6c0.3,0.1,0.4,0.2,0.5,0.4c0.1,0.1,0.1,0.2,0.1,0.4
	c0,0.3-0.1,0.4-0.4,0.6c-0.3,0.1-0.7,0.2-1.4,0.2c-1,1.8-1.9,3.3-2.8,4.6c-0.8,1.1-1.9,2.5-3.3,4l-0.5-0.4c0.5-1,1.1-2,1.6-3
	c0.4-0.9,0.8-1.8,1.2-2.7c0.4-1.1,0.8-2.1,1.1-3.1C403.5,30.5,403.7,29.7,403.8,29z M442.5,42.1c-0.2,4.7-0.6,8.1-1.3,10.2
	c-0.9,2.8-2.5,5.4-4.9,7.6l-0.5-0.5c1.7-2.8,2.8-5.7,3.3-8.9c0.3-1.9,0.5-4.7,0.6-8.4H442.5z M436.1,41.5h12.3v1.3h-8.5
	c-0.6,0-1.1,0-1.6,0.1s-0.9,0.2-1.4,0.3L436.1,41.5z M438.4,23.7l3.6,0.6c0.2,0,0.4,0.1,0.5,0.2s0.2,0.3,0.2,0.4
	c0,0.2-0.1,0.4-0.2,0.5s-0.2,0.2-0.4,0.3l-0.9,0.4v8.4h1.6l-2.1,2.3l-2.5-1.6c-0.1-0.1-0.2-0.1-0.3-0.2c-0.1-0.1-0.1-0.2-0.1-0.3
	s0.1-0.2,0.2-0.4c0.1-0.1,0.1-0.2,0.2-0.3c0.2-0.3,0.3-0.6,0.4-1c0-0.2,0-0.5,0-0.9v-4c0-0.8,0-1.6,0-2.3
	C438.5,25,438.5,24.4,438.4,23.7z M440.1,33.7h8V35h-8V33.7z M447.1,21.2l3.6,0.5c0.2,0,0.4,0.1,0.5,0.2s0.2,0.3,0.2,0.5
	s-0.1,0.4-0.2,0.5s-0.2,0.2-0.4,0.2l-0.9,0.5v29.7c0,0.9,0,2,0,3.3c0,1.5,0,2.5,0,2.9l-2.8,0.6c0-1.2,0.1-2.4,0.1-3.7
	c0-1.2,0-2.3,0-3.2V25.6c0-0.9,0-1.7,0-2.4C447.2,22.5,447.2,21.8,447.1,21.2z M450.7,35.5h17.5l2.2-2.7l3.8,3.5l-0.3,0.6h-19.4
	c-0.6,0-1.1,0-1.6,0.1s-0.9,0.1-1.4,0.2L450.7,35.5z M451.6,56.3H467l2.2-2.8L473,57l-0.3,0.6h-17.3c-0.6,0-1.1,0-1.6,0.1
	c-0.5,0-0.9,0.1-1.4,0.2L451.6,56.3z M460.2,21.3l3.8,0.6c0.2,0,0.4,0.1,0.5,0.2s0.2,0.2,0.2,0.4c0,0.2-0.1,0.4-0.3,0.5
	c-0.1,0.1-0.2,0.2-0.4,0.3l-0.8,0.4V57h-2.8V25.6c0-0.9,0-1.6,0-2.3C460.3,22.7,460.3,22,460.2,21.3z M485.7,21.7l3.8,2.1h-1v35.6
	l-2.8,0.8c0-1.2,0.1-2.6,0.1-4.1c0-1.4,0.1-2.6,0.1-3.5V26.3c0-0.8,0-1.6,0-2.5C485.8,23.2,485.7,22.4,485.7,21.7z M487.1,27.8h11
	V29h-11V27.8z M487.2,23.4h11v1.3h-11V23.4z M487.2,32.5h11v1.3h-11V32.5z M489.9,41.1c1.7,0.5,2.7,0.8,3.2,1
	c1.1,0.6,1.7,1.3,1.7,2.1c0,0.3-0.1,0.6-0.3,0.9c-0.2,0.2-0.4,0.4-0.7,0.4c-0.3,0-0.5-0.1-0.7-0.3c-0.1-0.1-0.2-0.3-0.4-0.6
	c-0.4-0.6-0.9-1.2-1.5-1.8c-0.4-0.4-0.9-0.9-1.5-1.4L489.9,41.1z M490.7,50.2c0.6,0,1.1,0,1.6,0c0.5-0.1,0.9-0.3,1.1-0.6
	c0.8-1.1,1.6-2.6,2.4-4.3c0.6-1.3,1.2-2.6,1.8-3.9l0.5,0.2c-0.3,1.3-0.9,3-1.7,5.1c-0.7,2-1.3,3.5-1.5,4.4c-0.1,0.1-0.1,0.3-0.1,0.4
	c0,0.1,0,0.2,0,0.4c0,0.4,0.1,0.9,0.2,1.4s0.3,0.9,0.4,1.2c0.2,0.6,0.3,0.9,0.3,1.1c0.1,0.4,0.1,0.7,0.1,1c0,0.5-0.1,0.8-0.5,1.1
	c-0.3,0.3-0.6,0.4-1,0.4c-0.3,0-0.5-0.1-0.7-0.2c-0.2-0.1-0.3-0.3-0.3-0.4c-0.1-0.2-0.1-0.3-0.1-0.6c0-0.1,0-0.3,0-0.5s0-0.4,0-0.7
	c0-0.2,0-0.4,0-0.6c0.1-1.5,0-2.5-0.2-3c-0.3-0.7-1.1-1.1-2.2-1.3L490.7,50.2L490.7,50.2z M492.1,36.2c1.7,0.6,2.8,0.9,3.2,1.1
	c1.1,0.6,1.6,1.3,1.6,2.1c0,0.4-0.1,0.7-0.3,0.9c-0.2,0.2-0.4,0.4-0.7,0.4c-0.2,0-0.5-0.1-0.7-0.3c-0.1-0.1-0.2-0.3-0.4-0.6
	c-0.4-0.6-0.8-1.3-1.4-1.9c-0.4-0.4-0.9-0.9-1.5-1.4L492.1,36.2z M497.4,35.4V23.8h-0.8l1.6-2.1l2.7,1.7c0.2,0.1,0.3,0.2,0.4,0.3
	c0.1,0.1,0.1,0.2,0.1,0.4c0,0.1,0,0.3-0.1,0.4s-0.2,0.2-0.3,0.3l-1,0.9v5.2c0,0.6,0,1.2,0,2c0,0.7,0.1,1.3,0.1,1.8L497.4,35.4z
	 M497.9,42.7h12.3l1.6-2l3.1,2.8l-0.3,0.4h-13c-0.5,0-1.1,0-1.6,0.1s-0.9,0.1-1.4,0.2L497.9,42.7z M498.5,38.5
	c3-0.5,5.2-0.8,6.6-1.2c2.2-0.5,4-1.2,5.5-2l1.8,2c0.1,0.1,0.2,0.2,0.2,0.3c0.1,0.1,0.1,0.2,0.1,0.3c0,0.2-0.1,0.3-0.2,0.4
	c-0.1,0.1-0.2,0.1-0.4,0.1c-0.2,0-0.3,0-0.5-0.1c-0.1,0-0.2-0.1-0.5-0.2c0,0-0.1,0-0.2-0.1h-0.1c-2,0.4-4.2,0.6-6.6,0.9
	c-1.7,0.2-3.7,0.3-5.7,0.4L498.5,38.5z M499.2,46.4l3.6,1.9h-1.1v8.8l-2.4,0.8c0-0.4,0-1.1,0-2.1c0-0.8,0-1.4,0-1.8v-3.9
	c0-0.6,0-1.2-0.1-1.9C499.3,47.7,499.3,47.1,499.2,46.4z M500.7,48.1h9.9v1.2h-9.9V48.1z M500.8,54.6h9.9v1.2h-9.9V54.6z
	 M504.6,37.8h2.4v11h-2.4V37.8z M504.8,21.9l3.8,2.1h-1.1v10.6l-2.7,0.7c0-0.8,0.1-1.6,0.1-2.4c0-0.8,0.1-1.5,0.1-2.1v-4.3
	c0-0.8,0-1.6,0-2.4C504.8,23.4,504.8,22.7,504.8,21.9z M506.2,27.8h11.5V29h-11.5V27.8z M506.3,23.4h11.4v1.3h-11.4V23.4z
	 M506.3,32.6h11.4v1.3h-11.4V32.6z M510.5,46.3l2.4,1.6c0.2,0.1,0.3,0.2,0.4,0.4c0.1,0.1,0.2,0.3,0.2,0.4c0,0.2-0.1,0.3-0.2,0.5
	c-0.1,0.1-0.2,0.2-0.3,0.3l-0.8,0.6v3.8c0,0.4,0,0.9,0.1,1.5c0,0.5,0,1,0.1,1.3l-2.5,0.8v-8.9H509L510.5,46.3z M512.3,56.2h3
	c0.5,0,0.8-0.1,0.9-0.2c0.2-0.1,0.3-0.4,0.3-0.8V23.8h-0.8l1.6-2.1l2.7,1.7c0.2,0.1,0.3,0.2,0.4,0.3c0.1,0.1,0.1,0.2,0.1,0.4
	c0,0.1,0,0.3-0.1,0.4c-0.1,0.1-0.2,0.2-0.3,0.3l-1,0.9v26.7c0,0.4,0,1.1,0.1,2c0,0.8,0,1.3,0,1.7c0,1.4-0.4,2.4-1.2,2.9
	c-0.5,0.3-1.4,0.6-2.8,0.8v-0.1v-0.1c0-0.8-0.3-1.4-1-1.8c-0.5-0.3-1.1-0.5-2-0.6L512.3,56.2L512.3,56.2z M531.3,40.4h31.4l2.2-2.7
	l3.8,3.5l-0.3,0.5h-33.5c-0.6,0-1.1,0-1.6,0.1c-0.4,0-0.9,0.1-1.4,0.2L531.3,40.4z M548,42.3l3.6,0.7c0.3,0,0.5,0.1,0.5,0.2
	c0.1,0.1,0.1,0.2,0.1,0.4s-0.1,0.4-0.4,0.6c-0.2,0.1-0.5,0.2-1.1,0.4c-0.3,2.4-0.7,4.3-1.1,5.6c-0.4,1.1-1,2.2-1.7,3.2
	c-1.8,2.4-4.5,4.3-8,5.5c-2.2,0.8-5.1,1.3-8.4,1.7l-0.1-0.6c3.7-1,6.5-2,8.4-3c2.5-1.2,4.5-2.8,5.8-4.6c1-1.4,1.7-3,2.1-5
	C548,45.6,548.1,44,548,42.3z M532.4,27.8H562l2.2-2.7l3.8,3.5l-0.3,0.5H536c-0.6,0-1.1,0-1.6,0.1c-0.4,0.1-0.9,0.1-1.4,0.2
	L532.4,27.8z M532.7,47.5h29.4l2.1-2.7l3.8,3.5l-0.3,0.5h-31.3c-0.6,0-1.1,0-1.6,0.1c-0.4,0-0.9,0.1-1.4,0.2L532.7,47.5z
	 M535.2,34.2h23.9l2.1-2.5l3.6,3.3l-0.3,0.5h-25.7c-0.6,0-1.1,0-1.6,0.1c-0.4,0-0.9,0.1-1.4,0.2L535.2,34.2z M540.3,21.7
	c2,0.6,3.5,1.3,4.3,2c0.9,0.6,1.3,1.4,1.3,2.3c0,0.5-0.2,0.9-0.5,1.2c-0.3,0.3-0.6,0.4-1,0.4c-0.3,0-0.6-0.1-0.8-0.3
	c-0.2-0.2-0.4-0.6-0.7-1.1c-0.5-0.9-0.9-1.7-1.4-2.2c-0.4-0.5-0.9-1.1-1.6-1.8L540.3,21.7z M548.6,28.4h2.9V41h-2.9V28.4z M550.2,48
	l0.6-0.2c2.1,2.9,4.9,5,8.3,6.5c2.7,1.2,5.8,1.9,9.4,2.2v0.6c-1.1,0.3-1.8,0.7-2.2,1.1c-0.3,0.4-0.6,0.9-0.7,1.6
	c-4.1-1.1-7.4-2.8-10.1-5C553.1,53,551.4,50.7,550.2,48z M555.7,21.4l3.7,1.4c0.2,0.1,0.4,0.2,0.5,0.3c0.1,0.1,0.1,0.2,0.1,0.3
	c0,0.3-0.2,0.5-0.6,0.6c-0.1,0-0.4,0-0.9,0c-0.7,1-1.5,1.9-2.2,2.5c-0.6,0.6-1.4,1.2-2.3,1.9l-0.4-0.2c0.5-1.2,1-2.4,1.4-3.7
	C555.3,23.4,555.6,22.4,555.7,21.4z M578.3,33.5h7.9l1.7-2.2l2.9,3l-0.3,0.5H582c-0.5,0-1,0-1.5,0.1c-0.4,0.1-0.8,0.2-1.4,0.3
	L578.3,33.5z M578.3,51.3c2.2-0.5,4.3-1.2,6.4-1.9c1.9-0.6,3.9-1.4,5.9-2.2l0.3,0.5c-0.9,0.7-1.7,1.3-2.5,1.9
	c-0.8,0.5-1.6,1.1-2.5,1.6c-0.7,0.4-1.4,0.8-2.3,1.2c-0.7,0.4-1.6,0.8-2.5,1.2c0,0.6,0,1-0.1,1.2s-0.2,0.2-0.5,0.2
	c-0.1,0-0.2,0-0.3-0.1s-0.2-0.2-0.3-0.5L578.3,51.3z M582.7,21.7l3.7,0.6c0.3,0.1,0.4,0.1,0.5,0.2s0.1,0.2,0.1,0.4
	c0,0.2-0.1,0.3-0.2,0.5c-0.1,0.1-0.3,0.2-0.5,0.4l-0.9,0.5v26.3h-2.6V26.7c0-1.1,0-2.1-0.1-2.9C582.8,23,582.8,22.3,582.7,21.7z
	 M589.2,53.1c1-0.2,2.3-0.4,3.8-0.6c1.2-0.2,2.4-0.4,3.4-0.6c1.4-0.3,2.6-0.5,3.7-0.8c0.8-0.2,1.8-0.4,3-0.8l0.2,0.7
	c-2.2,1.1-4.2,2-6.1,2.7c-1.6,0.6-3.4,1.3-5.5,2c-0.1,0.7-0.1,1.1-0.2,1.3c-0.1,0.2-0.2,0.3-0.5,0.3c-0.1,0-0.2,0-0.3-0.1
	s-0.1-0.1-0.2-0.2c0-0.1-0.1-0.2-0.1-0.3s-0.1-0.2-0.1-0.3L589.2,53.1z M590.1,29.4h21.1l2-2.4l3.5,3.2l-0.3,0.5H594
	c-0.6,0-1.1,0-1.6,0.1c-0.4,0.1-0.9,0.2-1.4,0.3L590.1,29.4z M591.6,34.5l3.5,2h-1v12l-2.5,0.7c0-1.3,0.1-2.5,0.1-3.6
	c0-0.9,0-1.5,0-1.8V39c0-0.8,0-1.6,0-2.3C591.6,35.9,591.6,35.2,591.6,34.5z M593.3,36.2h7.6v1.3h-7.6V36.2z M593.3,45.1h7.6v1.3
	h-7.6V45.1z M611.8,35.1l3.1,1.4c0.3,0.1,0.4,0.2,0.5,0.3s0.1,0.2,0.1,0.4c0,0.3-0.1,0.5-0.4,0.6c-0.2,0.1-0.7,0.2-1.3,0.2
	c-0.5,1.6-0.9,2.8-1.2,3.8c-0.3,0.8-0.7,1.6-1,2.4c-1.5,3.6-3.4,6.7-5.8,9.3c-2.1,2.2-4.6,4.2-7.6,6l-0.4-0.5
	c3.8-3.4,6.6-6.5,8.5-9.2c1.6-2.4,3-5.1,4-8.2c0.4-1.1,0.7-2.4,1-3.6C611.5,36.9,611.7,35.9,611.8,35.1z M598.9,36.6l1.5-2.1
	l2.5,1.6c0.2,0.2,0.4,0.3,0.4,0.4c0.1,0.1,0.1,0.2,0.1,0.3s0,0.3-0.1,0.4c-0.1,0.1-0.2,0.2-0.4,0.4l-0.8,0.6v5.5c0,0.3,0,0.9,0,1.7
	s0,1.6,0.1,2.6l-2.5,0.7v-12h-0.8V36.6z M603.9,21.5l3.4,0.7c0.2,0.1,0.4,0.1,0.5,0.2s0.2,0.2,0.2,0.4c0,0.2-0.1,0.4-0.4,0.6
	c-0.2,0.1-0.5,0.2-1,0.4c0,1,0,1.7,0,2.1c0,0.7,0,1.3,0,1.8c0,2.7,0.1,5.2,0.3,7.6c0.1,2.1,0.3,3.8,0.5,5.3c0.4,2.9,1,5.5,1.9,7.8
	c0.7,2,1.6,3.8,2.6,5.2c0.3,0.4,0.5,0.7,0.7,0.8c0.2,0.2,0.4,0.2,0.5,0.2c0.2,0,0.3-0.1,0.4-0.2c0.1-0.1,0.2-0.3,0.3-0.7
	c0.3-0.9,0.6-1.7,0.9-2.5c0.2-0.7,0.5-1.5,0.8-2.3l0.7,0.2c-0.2,1.1-0.4,2.2-0.5,3.1c-0.1,0.9-0.2,1.6-0.3,2.2c0,0.5,0,1,0,1.5
	c0.1,0.5,0.2,0.9,0.3,1.3c0.2,0.5,0.3,0.8,0.3,1.1c0,0.2,0.1,0.3,0.1,0.4c0,0.4-0.1,0.7-0.3,0.9s-0.4,0.3-0.7,0.3
	c-0.9,0-1.9-0.6-3.1-1.7c-1-1-1.9-2.2-2.8-3.5c-0.9-1.6-1.8-3.5-2.5-5.7c-0.6-1.9-1.1-3.9-1.5-6c-0.3-1.5-0.5-3.1-0.6-4.9
	c-0.1-1.5-0.3-3.3-0.3-5.2c-0.1-1.4-0.1-2.9-0.2-4.8c0-0.8,0-2.2-0.1-4.3c0-0.7,0-1.2-0.1-1.6C604,22.3,603.9,21.9,603.9,21.5z
	 M609.1,22.4c1.8,0.4,3,0.8,3.7,1.3c0.7,0.4,1,1,1,1.7c0,0.5-0.2,0.9-0.5,1.2c-0.3,0.3-0.6,0.4-0.9,0.4c-0.3,0-0.5-0.1-0.7-0.3
	c-0.2-0.1-0.3-0.4-0.6-0.8c-0.4-0.7-0.8-1.2-1.1-1.6s-0.7-0.8-1.3-1.3L609.1,22.4z M173.7,116.2H198l1.6-1.9l2.9,2.5l-0.2,0.4h-25.7
	c-0.5,0-0.9,0-1.2,0.1c-0.3,0-0.7,0.1-1.1,0.2L173.7,116.2z M176,131l3.4,1.7h-1.2v10.9l-2.2,0.7c0-0.7,0-1.3,0.1-2
	c0-0.7,0-1.3,0-1.8v-6.7c0-0.5,0-1,0-1.4C176.1,131.9,176,131.5,176,131z M177.5,132.3H199v1h-21.5V132.3z M178.3,119.2l3.1,1.7
	h-0.9v9.4l-2.2,0.7c0-0.7,0.1-1.4,0.1-2.2c0-0.7,0-1.4,0-1.9v-3.8c0-0.7,0-1.4,0-2.1C178.4,120.4,178.3,119.7,178.3,119.2z
	 M179.6,124.6h16.8v0.9h-16.8V124.6z M179.7,120.6h16.8v1h-16.8V120.6z M179.7,128.6h16.8v1h-16.8V128.6z M179.8,137.6
	c0.8,0,1.4,0,1.9,0c0.3,0,0.7,0,1.2,0c1.4-0.1,2.7-0.1,3.9-0.2c1.2-0.1,2.3-0.2,3.5-0.3c0.8-0.1,1.5-0.2,2.3-0.2
	c0.7-0.1,1.3-0.2,2-0.3l0.2,0.6c-0.9,0.3-1.8,0.5-2.6,0.7c-0.7,0.2-1.4,0.3-2.1,0.5c-1.2,0.3-2.6,0.5-4.3,0.7
	c-1.4,0.2-2.7,0.3-3.9,0.5c-0.1,0.5-0.2,0.8-0.3,0.9c-0.1,0.1-0.2,0.2-0.4,0.2c-0.1,0-0.2,0-0.3-0.1s-0.1-0.2-0.2-0.4L179.8,137.6z
	 M181.7,113.2l2.8,0.4c0.2,0,0.4,0.1,0.5,0.2s0.1,0.2,0.1,0.3c0,0.1-0.1,0.3-0.2,0.4c-0.1,0.1-0.3,0.2-0.5,0.3l-0.5,0.2v2.4
	c0,0.4,0,0.8,0,1.2c0,0.3,0,0.7,0,1.1l-2.2,0.4c0-0.2,0-0.6,0-1.3c0-0.5,0-0.8,0-1.1v-2v-0.2c0-0.4,0-0.8,0-1.2
	C181.7,113.7,181.7,113.4,181.7,113.2z M187,121.2h2v16.9h-2V121.2z M191.5,113.2l2.8,0.4c0.2,0,0.4,0.1,0.5,0.2s0.1,0.2,0.1,0.3
	c0,0.1-0.1,0.3-0.2,0.4c-0.1,0.1-0.3,0.2-0.5,0.3l-0.5,0.2v2.5c0,0.3,0,0.7,0,1.1c0,0.3,0,0.7,0,1.1l-2.1,0.4c0-0.5,0-0.9,0-1.4
	c0-0.4,0-0.8,0-1.2v-1.9c0-0.4,0-0.9,0-1.3C191.6,113.9,191.6,113.5,191.5,113.2z M192.2,134.8l0.3-0.3c0.9,0.5,1.5,0.9,1.9,1.2
	s0.7,0.5,1,0.9c0.4,0.4,0.6,0.7,0.8,1.1c0.1,0.3,0.2,0.6,0.2,0.9c0,0.4-0.1,0.7-0.3,1c-0.2,0.2-0.4,0.3-0.7,0.3
	c-0.2,0-0.4-0.1-0.5-0.2c-0.1-0.1-0.2-0.4-0.3-0.7c-0.3-0.9-0.6-1.6-1-2.3C193.2,136.1,192.8,135.5,192.2,134.8z M197.2,132.8
	l1.4-1.8l2.1,1.3c0.2,0.1,0.3,0.2,0.3,0.3c0.1,0.1,0.1,0.2,0.1,0.3s0,0.2-0.1,0.3s-0.2,0.2-0.3,0.3l-0.7,0.6v4.7c0,0.3,0,0.8,0,1.4
	c0,0.5,0,0.9,0,1.2c0,0.9-0.3,1.5-1,1.9c-0.5,0.3-1.3,0.5-2.3,0.5c0-0.7-0.3-1.2-0.8-1.4c-0.4-0.2-1.4-0.3-2.7-0.5v-0.6h3.6
	c0.5,0,0.8-0.1,0.9-0.2c0.1-0.1,0.2-0.4,0.2-0.9v-7.4L197.2,132.8L197.2,132.8z M194.9,121l1.3-1.8l2.2,1.4c0.2,0.1,0.3,0.2,0.3,0.3
	c0.1,0.1,0.1,0.2,0.1,0.2c0,0.1,0,0.2-0.1,0.3c-0.1,0.1-0.2,0.2-0.3,0.3l-0.7,0.6v4.4c0,0.2,0,0.6,0,1.1c0,0.4,0,1.2,0.1,2.3
	l-2.2,0.6V121H194.9z M212.9,139.3c1.4-1.8,2.4-3.7,3.2-5.4c0.8-1.8,1.4-3.6,1.6-5.3l2.5,0.8c0.2,0,0.3,0.1,0.4,0.2
	c0.1,0.1,0.1,0.2,0.1,0.3c0,0.2-0.2,0.4-0.5,0.5c-0.1,0-0.3,0-0.7,0c-0.6,1.9-1.6,3.7-2.8,5.5c-1,1.4-2.2,2.7-3.6,3.9L212.9,139.3z
	 M214.3,113.2l3.2,1.8h-1v7.9l-2.2,0.5c0-0.8,0.1-1.5,0.1-2.3s0-1.4,0-2v-2.7c0-0.5,0-1.1,0-1.7
	C214.4,114.2,214.3,113.7,214.3,113.2z M235.9,122.8l1.5,1.9c0.2,0.2,0.2,0.3,0.2,0.3c0.1,0.1,0.1,0.2,0.1,0.3
	c0,0.2-0.1,0.3-0.2,0.4c-0.1,0.1-0.2,0.1-0.3,0.1c-0.2,0-0.4-0.1-0.6-0.2c-0.2-0.1-0.4-0.2-0.5-0.2c-3.7,0.5-7.6,0.9-11.6,1.2
	c-3.2,0.2-6.6,0.4-10.2,0.4v-0.7c3.7-0.4,6.7-0.8,9-1.1c2.9-0.4,5.5-0.8,7.8-1.3c1.1-0.2,2-0.4,2.5-0.5
	C234.6,123.3,235.3,123.1,235.9,122.8z M215.5,114.6h21.8v1h-21.8V114.6z M215.7,120.8h21.5v1h-21.5V120.8z M218.2,132.5
	c1.6,0.7,2.8,1.3,3.4,1.8c1.2,0.9,1.8,1.8,1.8,2.7c0,0.4-0.1,0.7-0.3,0.9s-0.4,0.3-0.7,0.3c-0.2,0-0.4-0.1-0.6-0.2
	c-0.1-0.1-0.2-0.3-0.3-0.5c-0.4-0.9-1-1.8-1.7-2.6c-0.5-0.6-1.2-1.3-1.9-1.9L218.2,132.5z M221.9,114.9h2v6.2h-2V114.9z
	 M225.3,125.9h2.2v12.9c0,0.7,0,1.5,0,2.5c0,0.8,0,1.5,0,2.2l-2.3,0.5c0-0.9,0-1.8,0-2.8s0-1.8,0-2.4v-12.9H225.3z M228,139.3
	c1.4-1.9,2.4-3.7,3.2-5.6c0.8-1.8,1.4-3.7,1.7-5.5l2.5,0.8c0.2,0.1,0.3,0.1,0.4,0.2c0.1,0.1,0.1,0.2,0.1,0.3c0,0.3-0.2,0.4-0.5,0.5
	c-0.1,0-0.3,0-0.7,0c-0.6,2-1.6,3.9-2.7,5.6c-1,1.5-2.2,2.9-3.6,4.1L228,139.3z M229.2,115h2v6.3h-2V115z M233.9,130.1l0.5-0.1
	c0.7,1.9,1.7,3.4,2.9,4.7c1.1,1.1,2.4,2,3.9,2.7l-0.1,0.5c-0.7,0-1.2,0.1-1.5,0.4c-0.4,0.2-0.7,0.6-1,1c-1.4-1.2-2.5-2.7-3.3-4.4
	C234.8,133.6,234.3,132,233.9,130.1z M235.9,115l1.4-2l2.2,1.5c0.1,0.1,0.2,0.2,0.3,0.3c0.1,0.1,0.1,0.2,0.1,0.3
	c0,0.1-0.1,0.2-0.2,0.4c0,0.1-0.1,0.2-0.3,0.3l-0.7,0.6v2.9c0,0.5,0,1,0,1.7c0,0.6,0.1,1.1,0.1,1.5l-2.2,0.6V115H235.9z
	 M251.2,114.4l2.8,1.7h-0.9v23.8l-1.9,0.7c0-1.3,0.1-2.4,0.1-3.5s0-2.1,0-3v-15.9c0-0.7,0-1.3,0-2
	C251.3,115.6,251.3,115,251.2,114.4z M252.4,122.2h5.1v1h-5.1V122.2z M252.4,129.1h5.1v1h-5.1V129.1z M252.4,115.8h5.1v1h-5.1V115.8
	z M252.4,136.2h5.1v1h-5.1V136.2z M255.9,116.2l1.2-1.8l1.9,1.3c0.2,0.1,0.3,0.2,0.3,0.2c0.1,0.1,0.1,0.2,0.1,0.3
	c0,0.1-0.1,0.3-0.2,0.4s-0.1,0.2-0.3,0.3l-0.6,0.5V133c0,0.8,0,1.8,0,3c0,0.6,0,1.4,0.1,2.6l-1.9,0.7v-23h-0.6V116.2z M257.3,143.6
	c1.2-2.9,2-6.2,2.5-9.8c0.3-2.6,0.5-5.5,0.5-8.9v-7.3c0-0.8,0-1.5,0-2.3c0-0.7-0.1-1.3-0.1-2l3.2,1.7h-1.2v9.9
	c0,4.4-0.3,7.9-0.9,10.6c-0.7,3.2-1.9,6-3.6,8.4L257.3,143.6z M261.4,114.6H277v1h-15.6V114.6z M261.4,117.9H277v1h-15.6V117.9z
	 M261.8,134.5c1-0.7,1.9-1.5,2.6-2.3c0.8-0.9,1.4-1.7,1.8-2.5c0,0,0,0,0-0.1v-0.1l1.7,1c0.1,0,0.1,0.1,0.2,0.1
	c0.1,0.1,0.1,0.1,0.1,0.2c0,0.1-0.1,0.2-0.2,0.3c-0.1,0-0.2,0.1-0.3,0.1c-0.1,0-0.1,0-0.3,0c-0.1,0-0.2,0-0.2,0
	c-0.8,0.9-1.7,1.6-2.6,2.3c-0.8,0.6-1.7,1.1-2.6,1.5L261.8,134.5z M262.3,140c2,0,4,0,6.1-0.1c1.7,0,3.5-0.1,5.3-0.2l0.2,0.4
	c-1.5,0.3-3.2,0.6-5.3,0.9c-1.7,0.2-3.2,0.4-4.6,0.6c-0.1,0.3-0.1,0.5-0.1,0.6c-0.1,0.2-0.2,0.3-0.4,0.3c-0.1,0-0.2-0.1-0.3-0.2
	c0-0.1-0.1-0.2-0.1-0.3L262.3,140z M262.8,122.2c1.1-0.1,2.2-0.1,3.3-0.2c0.9-0.1,1.9-0.1,2.9-0.2l0.1,0.4c-0.9,0.3-1.8,0.5-2.6,0.7
	c-0.8,0.2-1.6,0.4-2.3,0.5c0,0.3-0.1,0.4-0.1,0.5c-0.1,0.1-0.1,0.2-0.3,0.2c-0.1,0-0.2,0-0.3-0.1c0,0-0.1-0.1-0.1-0.2L262.8,122.2z
	 M263.3,119.6c1,0,2.1,0.1,3.3,0.2c1.4,0.2,2.2,0.6,2.2,1.2c0,0.2-0.1,0.3-0.2,0.5c-0.1,0.1-0.2,0.2-0.4,0.2c-0.1,0-0.3,0-0.4-0.1
	c0,0-0.2-0.1-0.3-0.2c-0.7-0.3-1.4-0.6-2.2-0.8c-0.6-0.2-1.3-0.4-2-0.5V119.6z M263.4,123.9l2.7,1.2h-0.9v4.9l-1.8,0.5
	c0-0.5,0-1,0-1.4c0-0.5,0-0.9,0-1.3v-1.7c0-0.3,0-0.7,0-1.2C263.5,124.7,263.5,124.3,263.4,123.9z M263.8,133.9l2.3,1h-0.6v3.6
	l-1.7,0.5c0-0.1,0-0.4,0-0.9c0-0.3,0-0.6,0-0.8v-1.8c0-0.2,0-0.5,0-0.8C263.8,134.3,263.8,134.1,263.8,133.9z M264.4,124.9h12.5v0.8
	h-12.5V124.9z M264.6,134.7h8.7v0.9h-8.7V134.7z M264.6,137.2h8.7v0.8h-8.7V137.2z M264.6,128.6h12.3v0.8h-12.3V128.6z M265.3,131.7
	h12v0.9h-12V131.7z M267.8,125.1h1.6v4h-1.6V125.1z M268,132.7l2.3,0.5c0.1,0,0.3,0.1,0.3,0.1c0.1,0.1,0.1,0.1,0.1,0.3
	c0,0.1,0,0.2-0.1,0.3s-0.2,0.1-0.3,0.2l-0.6,0.3v6.1H268v-6c0-0.3,0-0.6,0-0.9C268.1,133.2,268.1,132.9,268,132.7z M269.6,119.1
	l2.5,0.5c0.1,0,0.2,0.1,0.3,0.1c0.1,0,0.1,0.1,0.1,0.2s-0.1,0.2-0.2,0.3c0,0-0.1,0.1-0.3,0.2l-0.5,0.2v1.8c0,0.2,0,0.5,0,0.8
	c0,0.2,0,0.4,0,0.7l-1.9,0.4c0-0.4,0-0.8,0-1c0-0.3,0-0.6,0-0.9v-1.7c0-0.3,0-0.6,0-0.9C269.6,119.6,269.6,119.4,269.6,119.1z
	 M276.6,132.1h-0.8l1.2-1.7l1.9,1.2c0.1,0.1,0.3,0.2,0.3,0.2c0.1,0.1,0.1,0.2,0.1,0.3s0,0.2-0.1,0.4c-0.1,0.1-0.1,0.1-0.2,0.2
	l-0.6,0.5c0,1.4-0.1,2.8-0.2,4.2s-0.3,2.7-0.5,3.7c-0.3,0.9-0.8,1.6-1.7,2c-0.6,0.3-1.3,0.5-2.3,0.6c0-0.7-0.4-1.1-1.3-1.3
	c-0.1,0-0.7-0.1-1.8-0.2v-0.6h3.1c0.7,0,1.3-0.2,1.7-0.5c0.3-0.3,0.6-0.8,0.7-1.5c0.2-1.2,0.3-2.5,0.4-4
	C276.5,134.9,276.6,133.8,276.6,132.1z M272,121.8c0.6,0,1.3,0,2.2,0c1.1,0,2,0.1,2.7,0.2c0.6,0.1,1.1,0.2,1.4,0.4
	c0.3,0.2,0.5,0.4,0.5,0.7c0,0.2-0.1,0.3-0.2,0.4s-0.2,0.2-0.4,0.2c-0.1,0-0.3,0-0.5-0.1c-0.1,0-0.2-0.1-0.4-0.1
	c-0.9-0.3-1.8-0.5-2.8-0.8c-0.8-0.2-1.6-0.3-2.5-0.5L272,121.8z M271.9,121.1c1.1-0.3,2-0.5,2.8-0.8c0.9-0.3,1.7-0.6,2.4-0.9
	c0,0,0,0,0.1-0.1c0,0,0,0,0.1,0l1,1c0.1,0,0.1,0.1,0.1,0.1v0.1c0,0.1,0,0.2-0.1,0.2s-0.1,0.1-0.2,0.1s-0.2,0-0.4-0.1
	c0,0-0.1,0-0.2-0.1c0,0,0,0-0.1,0h-0.1c-0.8,0.2-1.8,0.4-2.9,0.5c-0.5,0.1-1.4,0.2-2.5,0.3L271.9,121.1z M272,125.2h1.6v4H272V125.2
	z M272.1,135l0.8-1.3l1.7,0.8c0.1,0.1,0.2,0.1,0.3,0.2c0.1,0.1,0.1,0.1,0.1,0.2c0,0.1,0,0.2-0.1,0.3c0,0-0.1,0.1-0.2,0.2l-0.5,0.5v1
	c0,0.2,0,0.4,0,0.7c0,0.2,0,0.4,0,0.6l-1.7,0.4V135H272.1z M272.3,138.5c0.9,0.4,1.5,0.7,1.8,0.9c0.6,0.4,0.9,0.9,0.9,1.4
	c0,0.2-0.1,0.4-0.2,0.6c-0.1,0.1-0.3,0.2-0.5,0.2s-0.3-0.1-0.4-0.3s-0.2-0.3-0.2-0.5c-0.2-0.4-0.4-0.8-0.7-1.2
	c-0.2-0.3-0.5-0.6-0.8-0.9L272.3,138.5z M275.5,125.2l1.1-1.5l1.8,1.1c0.1,0.1,0.2,0.1,0.3,0.2c0.1,0.1,0.1,0.2,0.1,0.3
	c0,0.1,0,0.2-0.1,0.4c-0.1,0.1-0.1,0.1-0.3,0.2l-0.5,0.5v1.6c0,0.2,0,0.6,0,1c0,0.4,0,0.7,0,0.9l-1.8,0.5v-5h-0.6V125.2z
	 M275.8,115.1l1.3-1.7l1.9,1.2c0.1,0.1,0.2,0.2,0.3,0.2c0.1,0.1,0.1,0.2,0.1,0.3c0,0.1,0,0.3-0.1,0.4s-0.1,0.1-0.2,0.2l-0.6,0.5v0.9
	c0,0.3,0,0.6,0,0.9s0,0.6,0,0.8l-1.9,0.4v-4.3h-0.8V115.1z M292.6,114.6l3.3,1.7h-1v27.2l-2.3,0.6c0-0.8,0-2,0.1-3.7
	c0.1-1.3,0.1-2.4,0.1-3.2v-18.7c0-0.7,0-1.4,0-2.1C292.7,115.8,292.6,115.2,292.6,114.6z M294.2,116h18.1v1h-18.1V116z M294.2,123.8
	h18v1h-18V123.8z M294.2,131.6h18v1h-18V131.6z M294.2,139.6h18.1v1h-18.1V139.6z M310.6,116.5l1.4-1.9l2.1,1.4
	c0.2,0.1,0.3,0.2,0.4,0.3c0.1,0.1,0.1,0.2,0.1,0.3c0,0.1,0,0.2-0.1,0.3c-0.1,0.1-0.2,0.2-0.3,0.4l-0.7,0.6v19.4c0,0.5,0,1.4,0.1,2.6
	c0,1.1,0,2.3,0.1,3.7l-2.3,0.6v-27.6h-0.8V116.5z M327.3,130.2c0-1.2,0.8-2.2,1.9-2.2c1.2,0,1.9,0.9,1.9,2.2c0,1.2-0.7,2.1-1.9,2.1
	S327.3,131.3,327.3,130.2z M341.8,140c0.5-0.1,1-0.2,1.5-0.3c0.4-0.1,0.9-0.2,1.5-0.4c1.2-0.3,2.5-0.7,3.8-1.2
	c1.2-0.4,2.4-0.8,3.7-1.3l0.2,0.5c-1.3,0.9-2.8,1.8-4.4,2.6c-1.1,0.6-2.4,1.2-4,1.9c0,0.5,0,0.7,0,0.8c-0.1,0.3-0.2,0.4-0.4,0.4
	c-0.1,0-0.2,0-0.3-0.1c-0.1-0.1-0.2-0.2-0.2-0.4L341.8,140z M342.4,114.7l3.1,1.6h-0.9v24.3h-2.1v-22.3c0-0.7,0-1.3,0-2
	C342.4,115.8,342.4,115.3,342.4,114.7z M343.7,116h9.5v1h-9.5V116z M343.7,122.3h9.5v1h-9.5V122.3z M343.7,129.1h9.5v1h-9.5V129.1z
	 M349.1,132.5c1.7,1.3,3.1,2.6,4.1,3.9c1.2,1.6,1.9,3,1.9,4.3c0,0.4-0.1,0.8-0.4,1.1c-0.2,0.2-0.5,0.3-0.8,0.3
	c-0.4,0-0.6-0.1-0.8-0.4c-0.1-0.2-0.3-0.6-0.4-1.3c-0.3-1.2-0.8-2.5-1.6-3.9c-0.6-1.2-1.4-2.5-2.4-3.8L349.1,132.5z M351.5,116.4
	l1.3-1.7l2.2,1.3c0.1,0.1,0.2,0.2,0.3,0.2c0.1,0.1,0.1,0.2,0.1,0.2c0,0.1,0,0.2-0.1,0.3c-0.1,0.1-0.2,0.2-0.3,0.3l-0.6,0.5v9.4
	c0,0.3,0,0.8,0,1.6c0,0.7,0.1,1.6,0.1,2.6l-2.2,0.5v-15.4h-0.8V116.4z M357.2,114.7l3.1,1.6h-0.9v27.3l-2.2,0.6
	c0-1.3,0.1-2.7,0.1-4.1c0-1.3,0-2.5,0-3.6v-18.3c0-0.6,0-1.3,0-2C357.3,115.7,357.3,115.2,357.2,114.7z M358.5,116.1h8.2v1.1h-8.2
	V116.1z M365.2,116.6l1.4-2l2.1,1.4c0.2,0.1,0.3,0.2,0.3,0.3c0.1,0.1,0.1,0.2,0.1,0.3c0,0.1,0,0.2-0.1,0.4c-0.1,0.1-0.2,0.2-0.3,0.3
	l-0.7,0.5v13.8c0,0.5,0,1.1,0,2c0,0.7,0,1.2,0,1.6c0,1.1-0.3,1.8-0.9,2.2c-0.4,0.3-1.2,0.6-2.4,0.7c0.1-0.9-0.3-1.5-1.2-1.8
	c-0.4-0.2-1-0.3-2-0.5v-0.7h3.4c0.5,0,0.7-0.1,0.9-0.2c0.1-0.1,0.2-0.4,0.2-0.8v-17.7h-0.8V116.6z M379,143.4l-0.3-0.3
	c1.2-1.6,2-3.6,2.4-5.8c0.3-1.5,0.4-3.4,0.4-5.6v-2.2h2v2.6c0,2.7-0.3,4.9-1,6.6C381.7,140.5,380.6,142.1,379,143.4z M378.7,128.9
	h8.8v1h-5.9c-0.4,0-0.8,0-1.2,0.1c-0.4,0-0.7,0.1-1.1,0.2L378.7,128.9z M380.1,114.8l2.7,0.4c0.2,0,0.3,0.1,0.4,0.1
	c0.1,0.1,0.1,0.2,0.1,0.3c0,0.2,0,0.3-0.2,0.4c-0.1,0.1-0.2,0.1-0.3,0.2l-0.7,0.3v6.6h0.9l-1.3,1.6l-1.9-1.1
	c-0.1-0.1-0.2-0.1-0.2-0.1c-0.1-0.1-0.1-0.1-0.1-0.2s0.1-0.2,0.1-0.3c0.1-0.1,0.1-0.2,0.2-0.2c0.1-0.2,0.2-0.5,0.3-0.8
	c0-0.1,0-0.4,0-0.7V118c0-0.6,0-1.2,0-1.7C380.2,115.8,380.2,115.3,380.1,114.8z M381.5,122.6h5.9v1h-5.9V122.6z M386.5,112.9
	l2.9,0.4c0.2,0,0.3,0.1,0.4,0.1c0.1,0.1,0.1,0.2,0.1,0.3c0,0.2-0.1,0.3-0.2,0.4s-0.2,0.2-0.4,0.2l-0.6,0.3v22.5c0,0.9,0,2,0,3.3
	c0,1.1,0,2.1,0,2.9l-2.2,0.5c0-1.2,0-2.4,0-3.5c0-1.2,0-2.3,0-3.1v-20.9c0-0.7,0-1.4,0-1.9C386.6,114,386.5,113.4,386.5,112.9z
	 M389.2,130.5h15l1.4-2l2.5,2.6l-0.2,0.4h-15.8c-0.4,0-0.9,0-1.3,0.1c-0.4,0-0.7,0.1-1.1,0.2L389.2,130.5z M389.7,121.8
	c1.5-1.2,2.9-2.7,4.1-4.3c1.2-1.6,2-3.1,2.5-4.6l2.1,0.8c0.3,0.1,0.4,0.2,0.5,0.2c0.2,0.1,0.2,0.2,0.2,0.4c0,0.3-0.1,0.4-0.4,0.5
	c-0.1,0-0.3,0.1-0.6,0.1c0,0-0.1,0-0.2,0h-0.1c-1.1,1.6-2.4,3.1-3.8,4.3c-1.2,1.1-2.6,2.1-4.1,3L389.7,121.8z M403.3,116.5l1.5-1.8
	l2.1,1.6c0.1,0.1,0.2,0.2,0.3,0.3c0.1,0.1,0.1,0.2,0.1,0.3c0,0.3-0.2,0.5-0.6,0.7c-0.3,0.1-0.6,0.2-0.8,0.3
	c-2.2,3.2-4.7,5.7-7.5,7.5c-2.4,1.6-5.2,2.8-8.5,3.6l-0.2-0.5c2.3-1,4.3-2,6-3.2c1.7-1.1,3.2-2.4,4.6-3.8c0.8-0.8,1.5-1.7,2.2-2.6
	c0.6-0.8,1.1-1.7,1.6-2.6h-0.8V116.5z M391.3,133l0.3-0.4c1.5,0.7,2.6,1.3,3.3,1.9c1.1,0.9,1.6,1.8,1.6,2.8c0,0.4-0.1,0.7-0.3,0.9
	c-0.2,0.2-0.4,0.4-0.7,0.4c-0.3,0-0.6-0.2-0.7-0.5c-0.2-0.3-0.3-0.5-0.4-0.8c-0.4-0.9-0.9-1.7-1.5-2.5
	C392.4,134.2,391.9,133.6,391.3,133z M392,120.2c1.5,0.7,2.5,1.3,3,1.8c1.1,0.8,1.6,1.6,1.6,2.4c0,0.3-0.1,0.6-0.3,0.9
	c-0.2,0.2-0.4,0.3-0.7,0.3c-0.2,0-0.4-0.1-0.6-0.3c-0.1-0.1-0.2-0.3-0.3-0.5c-0.3-0.8-0.8-1.6-1.5-2.4c-0.4-0.6-1-1.2-1.6-1.8
	L392,120.2z M394.5,117.9c1.6,0.5,2.8,1,3.6,1.4c1.3,0.7,2,1.5,2,2.4c0,0.3-0.1,0.6-0.3,0.8c-0.2,0.2-0.4,0.3-0.7,0.3
	c-0.3,0-0.6-0.2-0.9-0.7c-0.2-0.4-0.4-0.6-0.5-0.9c-0.4-0.6-0.9-1.2-1.7-1.8c-0.3-0.3-0.9-0.7-1.7-1.3L394.5,117.9z M404.7,117.2
	H395l0.3-1h9.4L404.7,117.2L404.7,117.2z M396.4,140.7h3.8c0.4,0,0.6,0,0.8-0.1c0.2-0.1,0.2-0.3,0.2-0.7V129c0-0.5,0-1.1,0-1.6
	c0-0.4-0.1-0.9-0.1-1.4l2.8,0.5c0.2,0,0.3,0.1,0.4,0.1c0.1,0.1,0.1,0.2,0.1,0.3c0,0.2-0.1,0.3-0.2,0.4s-0.2,0.1-0.3,0.2l-0.6,0.3
	v9.7c0,0.1,0,0.2,0,0.4c0,0.1,0,0.2,0,0.3c0,2.5-0.1,3.8-0.4,4c-0.4,0.9-1.3,1.4-2.9,1.6c0-0.9-0.5-1.6-1.4-1.9
	c-0.4-0.2-1.2-0.3-2.3-0.4v-0.8H396.4z M426.3,114.6l2.6,1.3c0.2,0.1,0.4,0.2,0.5,0.3c0.1,0.1,0.1,0.2,0.1,0.3
	c0,0.2-0.1,0.4-0.3,0.5c-0.2,0.1-0.6,0.1-1.1,0.1c-1.6,3.4-3.4,6.2-5.2,8.5c-1.6,1.9-3.4,3.6-5.3,4.9l-0.3-0.4
	c2.1-2.2,4.1-4.9,5.8-8C424.6,119.5,425.7,116.9,426.3,114.6z M420.2,140.1c1.6,0,3.2,0,4.9-0.1c1.2-0.1,2.6-0.2,4.1-0.3
	c2-0.2,3.9-0.3,5.9-0.5c1.7-0.2,3.4-0.4,5.1-0.6l0.2,0.6c-1.5,0.4-3.1,0.8-5,1.2c-1,0.2-2.5,0.5-4.4,0.8c-1.8,0.3-3.4,0.5-4.6,0.7
	c-1.5,0.2-2.9,0.4-4.3,0.6c-0.1,0.5-0.2,0.8-0.3,1c-0.1,0.1-0.2,0.2-0.4,0.2c-0.1,0-0.2,0-0.3-0.1c-0.1-0.1-0.1-0.2-0.2-0.4
	L420.2,140.1z M429.7,124.5l2.6,1.2c0.4,0.2,0.6,0.3,0.7,0.4s0.1,0.2,0.1,0.4c0,0.3-0.2,0.5-0.7,0.6c0,0-0.4,0-0.9,0.1
	c-1.4,2.8-3.1,5.4-5,7.8c-1.7,2.1-3.5,4.1-5.4,5.7l-0.5-0.4c1.4-1.8,2.8-3.7,4-5.6c1.1-1.7,2.1-3.5,3-5.3c0.6-1.2,1.1-2.1,1.4-2.9
	C429.3,125.7,429.5,125.1,429.7,124.5z M433.3,113.7l2.6,0.4c0.2,0,0.4,0.1,0.5,0.2s0.1,0.2,0.1,0.3c0,0.2-0.1,0.4-0.4,0.5
	c-0.2,0.1-0.5,0.3-1,0.5c1.4,3,3.1,5.4,5,7.2c1.7,1.6,3.9,3,6.7,4.4l-0.1,0.5c-0.8,0.1-1.4,0.3-1.8,0.5c-0.3,0.2-0.6,0.7-0.9,1.3
	c-1.3-0.9-2.4-1.7-3.2-2.6c-0.8-0.8-1.5-1.7-2.3-2.7c-0.7-1-1.3-2-2-3.1c-0.5-1-1.1-2.1-1.6-3.3c-0.3-0.6-0.5-1.2-0.7-1.8
	C433.9,115.5,433.7,114.7,433.3,113.7z M435.3,132.2c1.5,1.1,2.8,2.1,3.9,3c0.9,0.9,1.7,1.7,2.4,2.7c0.6,0.8,1.1,1.5,1.4,2.2
	c0.3,0.6,0.4,1.2,0.4,1.7s-0.1,0.9-0.4,1.2c-0.2,0.3-0.5,0.4-0.9,0.4c-0.3,0-0.5-0.1-0.7-0.3c-0.1-0.2-0.3-0.4-0.5-0.8
	c-0.8-2-1.7-3.8-2.8-5.5c-0.9-1.5-2-2.9-3.2-4.3L435.3,132.2z M457.7,113.2l3,1.6h-0.8v28.5l-2.2,0.6c0-1,0.1-2.1,0.1-3.3
	c0-1.1,0-2.1,0-2.8v-20.9c0-0.6,0-1.3,0-2C457.8,114.4,457.8,113.8,457.7,113.2z M458.9,118.5h8v1h-8V118.5z M459,114.6h8v1h-8
	V114.6z M459,122.6h8v1h-8V122.6z M461.9,133.7l-0.6-1.3h14.4l1.5-2l2.7,2.6l-0.2,0.4h-15.5c-0.4,0-0.8,0-1.2,0.1
	C462.6,133.6,462.2,133.6,461.9,133.7z M461.9,141.2c1-1,1.8-1.9,2.4-2.8c0.7-1,1.1-2,1.4-2.9c0.2-0.9,0.4-1.9,0.4-3.1
	c0-0.5,0-1.5,0-2.8v-2.3h2v2.3c0,3.3-0.4,5.7-1.3,7.4s-2.4,3.2-4.6,4.7L461.9,141.2z M462.4,126.7h12l1.5-1.6l2.7,2.2l-0.2,0.4h-13
	c-0.4,0-0.9,0-1.3,0.1s-0.7,0.1-1.1,0.2L462.4,126.7z M465.7,114.9l1.2-1.7l2.1,1.4c0.1,0.1,0.2,0.2,0.3,0.2
	c0.1,0.1,0.1,0.2,0.1,0.3c0,0.1,0,0.2-0.1,0.3c0,0.1-0.1,0.1-0.2,0.2l-0.8,0.7v5.3c0,0.5,0,1,0,1.6c0,0.2,0,0.7,0.1,1.4l-2.1,0.6
	v-10.3H465.7z M472.1,113.2l3,1.7h-0.8v9.8l-2.1,0.6c0-0.6,0.1-1.3,0.1-1.9s0-1.2,0-1.7V117c0-0.6,0-1.3,0-2
	C472.1,114.4,472.1,113.8,472.1,113.2z M472.3,127.2h2v9.5c0,0.5,0,1.2,0.1,2.1c0,0.7,0,1.3,0,1.8l-2.2,0.5c0-0.7,0.1-1.5,0.1-2.4
	c0-0.8,0-1.5,0-2V127.2z M473.1,118.5h8.3v1h-8.3V118.5z M473.2,114.6h8.3v1h-8.3V114.6z M473.2,122.6h8.2v1h-8.2V122.6z
	 M476.2,140.7h3.5c0.4,0,0.6-0.1,0.7-0.2c0.1-0.1,0.2-0.3,0.2-0.7v-25H480l1.2-1.7l2.2,1.4c0.1,0.1,0.2,0.1,0.3,0.2
	c0.1,0.1,0.1,0.2,0.1,0.3c0,0.1,0,0.2-0.1,0.3c-0.1,0.1-0.1,0.2-0.2,0.2l-0.8,0.7v21.3c0,0.4,0,0.9,0,1.7c0,0.6,0,1.1,0,1.5
	c0,1-0.4,1.7-1.1,2.2c-0.4,0.2-1.1,0.4-2.1,0.6c0-0.9-0.5-1.4-1.3-1.7c-0.2-0.1-0.9-0.2-2.1-0.4L476.2,140.7L476.2,140.7z
	 M659.2,76.4H0V0h659.2V76.4z M0.2,76.2H659V0.2H0.2V76.2z"/>
<linearGradient id="SVGID_1_" gradientUnits="userSpaceOnUse" x1="205.6087" y1="174.2351" x2="451.4148" y2="174.2351">
	<stop  offset="1.123600e-02" style="stop-color:#FAE9BF"/>
	<stop  offset="0.1742" style="stop-color:#E7BD7B"/>
	<stop  offset="0.3315" style="stop-color:#F3D290"/>
	<stop  offset="0.4213" style="stop-color:#F1E0AF"/>
	<stop  offset="0.5393" style="stop-color:#EECD91"/>
	<stop  offset="0.7135" style="stop-color:#E7BD7B"/>
	<stop  offset="0.882" style="stop-color:#FAE9BF"/>
	<stop  offset="0.9944" style="stop-color:#EFC480"/>
</linearGradient>
<path class="st2" d="M219.3,179.8c-5,2.8-11.7,1.1-11.7-5.5c0-5.1,5.1-8.5,11.6-5.9l0.4,2.9l-0.1,0.1c-2.3-3.3-3.4-3.5-5.3-3.5
	c-5.6,0-5.5,12.9,0,12.9c2.5,0,3.5-0.8,5.4-4.3l0.1,0.1L219.3,179.8z M236.7,181.1c-9-0.1-8.9-13.7,0.1-13.6
	C245.7,167.6,245.6,181.2,236.7,181.1z M236.7,180.7c5.9,0,6-12.9,0.1-12.9C231,167.8,230.9,180.7,236.7,180.7z M399.2,181.1
	c-9-0.1-8.9-13.7,0.1-13.6C408.2,167.6,408.1,181.2,399.2,181.1z M399.2,180.7c5.9,0,6-12.9,0.1-12.9
	C393.5,167.8,393.4,180.7,399.2,180.7z M422.6,181.1c-9-0.1-8.9-13.7,0.1-13.6C431.6,167.6,431.5,181.2,422.6,181.1z M422.6,180.7
	c5.9,0,6-12.9,0.1-12.9C416.9,167.8,416.8,180.7,422.6,180.7z M264.6,180.7c0.3-0.5,0.5-1.1,0.6-1.6c0.2-1,0-8.9,0.1-10.1l-4.9,11.3
	H260l-5.2-11.3l0.1,8.2c0,1.6,0.3,2.3,1.3,3.5h-2.8c1-1.4,1-1.8,1.1-3.5c0,0,0-7,0-7c-0.1-1.2-0.4-1.6-1.2-2.5h3.2l4.6,10.2
	l4.4-10.2h3.2c-1.1,1-1.3,1.5-1.3,3v6.8c0,1.4,0,2,0.7,3.2H264.6z M289.5,180.7c0.3-0.5,0.5-1.1,0.6-1.6c0.2-1,0-8.9,0.1-10.1
	l-4.9,11.3h-0.4l-5.2-11.3l0.1,8.2c0,1.6,0.3,2.3,1.3,3.5h-2.8c1-1.4,1-1.8,1.1-3.5c0,0,0-7,0-7c-0.1-1.2-0.4-1.6-1.2-2.5h3.2
	l4.6,10.2l4.4-10.2h3.2c-1.1,1-1.3,1.5-1.3,3v6.8c0,1.4,0,2,0.7,3.2H289.5z M303.7,180.7c0.7-1.2,0.7-1.6,0.7-3c0,0,0-6.7,0-6.7
	c0-1.4,0-2.1-0.7-3.3h3.5c-0.7,1.2-0.7,1.9-0.7,3.3c0,0,0,6.6,0,6.6c0,1.4,0,1.9,0.7,3.1H303.7z M318.6,170.5c0-1.4-0.5-2-1.4-2.8
	h2.9l7.5,10.2c0,0-0.1-4.9-0.1-6.5c0-2-0.4-2.9-1.1-3.7h2.6c-0.4,0.6-1.1,1.7-1.1,3.7l0,9.3h-0.6l-8.4-11.1l0.1,7.9
	c0,1.6,0.7,2.6,1.2,3.2h-2.7c0.4-0.6,1.1-1.6,1.1-3.2L318.6,170.5z M440.5,170.5c0-1.4-0.5-2-1.4-2.8h2.9l7.5,10.2
	c0,0-0.1-4.9-0.1-6.5c0-2-0.4-2.9-1.1-3.7h2.6c-0.4,0.6-1.1,1.7-1.1,3.7l0,9.3h-0.6l-8.4-11.1l0.1,7.9c0,1.6,0.7,2.6,1.2,3.2h-2.7
	c0.4-0.6,1.1-1.6,1.1-3.2L440.5,170.5z M351,179.2c-5,3.9-12,1.3-12-5c0-5.3,5-8.5,11.9-5.9l0.4,2.9l-0.2,0.1
	c-2.4-3.2-3.4-3.5-5.2-3.5c-6.1,0-6,13,0.1,13c4.8,0,3.4-4.6,2.6-5.8l0,0h3.5c-0.9,1.3-0.7,2.2-0.7,4.2H351z M381.6,171.2l-0.2,0.1
	c-2.9-6.9-8.1-2.3-4.3,0.7c2,1.6,5.3,1.7,5.3,5.2c0,4.2-5.3,4.3-8.4,3.1l-0.4-3.3l0.1-0.1c3.8,7.5,9.8,1.9,5.1-1.4
	c-2-1.4-4.7-2-4.7-4.7c0-3.4,4.3-3.9,7-2.9L381.6,171.2z"/>
<path class="st1" d="M76.2,48.7l3.2,2.5c-0.3,0.3-0.8,0.5-1.6,0.6c-0.5,3.7-1.3,5.9-2.7,6.8c-0.9,0.6-2.3,0.9-3.6,0.9
	c0-0.8-0.2-1.6-0.6-2c-0.5-0.5-1.6-0.8-2.8-1v-0.1c-0.2,0-0.3-0.1-0.5-0.2c-0.3-1.2-1.4-2.7-2.5-3.4l0.4-0.4c4.4,0.4,5,2.6,4.2,3.6
	c1,0.1,2,0.1,2.5,0.1c0.5,0,0.9,0,1.1-0.3c0.6-0.4,1.1-1.9,1.4-4.4H53v0.8c0,0.3-1.4,1.1-2.7,1.1h-0.5V36.1l3.4,1.5h3.9
	c0.2-0.9,0.5-2,0.8-2.8H47.4c0,2.2-0.9,3.8-2,4.4c-1,0.6-2.4,0.6-2.9-0.5c-0.3-1,0.3-1.8,1.2-2.3c1.3-0.8,2.5-2.8,2.4-5h0.7
	c0.2,0.7,0.4,1.4,0.5,2.1h27.8l1.9-1.8l3.3,3.2c-0.3,0.3-0.8,0.4-1.6,0.4c-0.9,1.1-2.8,2.9-4.2,3.9L74,39c0.4-1.1,0.9-2.8,1.3-4.2
	H58.8l3.7,0.9c-0.1,0.5-0.7,0.8-1.6,0.8c-0.5,0.3-1.1,0.7-1.7,1.1H68l1.6-1.7l3.4,2.6c-0.2,0.3-0.8,0.6-1.5,0.7v6.2
	c0,0.3-1.6,1-2.7,1h-0.5v-1.1H53v2h18.6l2.1-2.5c0,0,2.3,1.7,3.7,3c-0.1,0.5-0.5,0.7-1.1,0.7H53v1.9h21.5L76.2,48.7z M49.3,52.6
	c0.8,3.4-0.9,5.7-2.6,6.4c-1.1,0.5-2.6,0.2-3-0.9c-0.3-1,0.5-1.8,1.4-2.3c1.4-0.5,3.2-1.7,3.4-3.3L49.3,52.6z M46.3,23.4
	c7.1,2,4.6,6.8,2.3,4.9c-0.2-1.6-1.6-3.6-2.7-4.6L46.3,23.4z M47.3,32.7c4.9-2.7,4.9-6.4,4.9-10.9l3.9,0.4c-0.1,0.5-0.4,0.9-1.2,1
	c-0.1,1.2-0.2,2.3-0.4,3.4c1.4-0.9,2.9-2.1,3.9-3l2.9,2.1c-0.2,0.3-0.6,0.5-1.4,0.2c-1.4,0.5-3.7,1.2-5.6,1.7c7.8,1.3,6.4,6.4,3.7,5
	c-0.7-1.4-2.5-3.1-4.1-4.3c-0.9,1.9-2.6,3.5-6.1,4.8L47.3,32.7z M53.5,52.7c5.6,3.6,1.8,7.7-0.2,5.1c0.3-1.6,0.1-3.6-0.3-5
	L53.5,52.7z M53,38.7v2.1h15.3v-2.1H53z M68.3,43.9v-1.8H53v1.8H68.3z M59.3,52.5c6.8,2.3,3.8,7.2,1.4,5c0-1.6-0.9-3.6-1.8-4.8
	L59.3,52.5z M61.4,23.4c7.1,1.8,4.8,6.5,2.4,4.8c-0.3-1.6-1.6-3.4-2.8-4.4L61.4,23.4z M61.1,32.8c6.6-2.5,6.6-6.1,6.6-11.2l4,0.4
	c0,0.5-0.4,0.9-1.2,1c-0.1,1.4-0.2,2.7-0.5,4c1.6-1.1,3.5-2.7,4.7-3.7l3,2.4c-0.2,0.3-0.6,0.4-1.4,0.2c-1.4,0.6-3.7,1.3-5.7,1.9
	c6.9,1.4,5.7,6.1,3,4.9c-0.7-1.4-2.5-3-4.1-4.2c-1.1,2.1-3.2,3.8-8,5.1L61.1,32.8z M107.4,55.3c0,2.2-0.5,3.6-4.3,3.9
	c-0.1-0.8-0.3-1.5-0.7-1.9c-0.5-0.5-1.4-0.8-3.1-1v-0.6c0,0,3.5,0.2,4.2,0.2c0.7,0,0.9-0.2,0.9-0.7V40.7H89.4l-0.3-1.2h17.5l2-2.5
	c0,0,2.2,1.7,3.6,3c-0.1,0.5-0.5,0.7-1.1,0.7h-3.7V55.3z M89.7,25.7l-0.3-1.2h16l2-2.5c0,0,2.3,1.7,3.6,3c-0.1,0.5-0.5,0.7-1.1,0.7
	h-2.7v11.8c0,0.2-1,0.8-2.5,0.8h-0.5V25.7H89.7z M101.3,52.1c0,0.3-1.4,1-2.3,1h-0.5v-1.2h-4.4v1.5c0,0.2-1.2,0.9-2.3,0.9h-0.5V42.6
	l3,1.3h3.8l1.6-1.6l3.3,2.5c-0.2,0.3-0.9,0.6-1.6,0.8V52.1z M98.8,37.3V36h-4.2v1.3c0,0.2-1.2,0.9-2.3,0.9h-0.4V27.5l3,1.3h3.6
	l1.5-1.6l3.3,2.5c-0.2,0.3-0.9,0.6-1.6,0.7v5.9c0,0.3-1.4,0.9-2.3,0.9H98.8z M98.5,50.7v-5.6h-4.4v5.6H98.5z M98.8,34.8V30h-4.2v4.8
	H98.8z M118.2,35.6c0.7,9.8,2.6,16.6,9.3,20.5l0,0.5c-1.6,0.3-2.5,1.1-2.8,3c-4.5-3.6-6.2-10.2-6.9-18.3c-0.8,7.3-3,14.3-10.4,18.4
	l-0.5-0.6c7.5-5.6,8.2-15.7,8.4-25.7l4.6,1c-0.1,0.5-0.5,0.9-1.5,0.9L118.2,35.6z M109.4,37c1.5-4,3-10,3.8-15.3l4.8,1.2
	c-0.2,0.5-0.6,0.9-1.5,0.9c-0.7,2.1-1.5,4.3-2.4,6.2h8.2l1.8-1.8l3.2,3.1c-0.3,0.3-0.8,0.4-1.6,0.5c-1,2.1-2.7,5.3-4.3,7.2l-0.5-0.3
	c0.5-2,1.2-5.2,1.6-7.5h-9c-1,2.3-2.3,4.3-3.5,6L109.4,37z M145.1,38.2c8.1,3.1,5.6,8.2,3,6.1c-0.4-1.7-1.7-3.8-3-5.3v19.5
	c0,0.2-1,1-2.5,1h-0.5V43c-1.7,3.4-3.9,6.4-6.5,9l-0.5-0.5c3.1-4.5,5.2-10.5,6.4-16.4h-5.3l-0.3-1.2h6.3v-6.5
	c-2,0.5-4.1,0.9-6.1,1.2l-0.2-0.6c4.1-1.5,9-4.1,11.5-6l3.9,3.2c-0.4,0.4-1.1,0.5-2.2,0.1c-1.1,0.4-2.4,0.9-3.9,1.3V34h1.2l1.8-2.5
	c0,0,2.1,1.8,3.3,3c-0.1,0.5-0.5,0.7-1.1,0.7h-5.3V38.2z M158.8,37.1c-0.9,1.8-2,3.6-3.2,5.3l0.9,0.4h4v-4.2L165,39
	c-0.1,0.6-0.4,1-1.5,1.1v2.5h4.6l1.5-1.8l3.7,2.7c-0.3,0.3-0.9,0.7-1.8,0.9v8.2c0,2.3-0.4,3.6-3.8,4c0-0.9-0.2-1.7-0.5-2.2
	c-0.4-0.5-1-0.7-2.2-0.9v-0.6c0,0,2.2,0.2,2.8,0.2c0.6,0,0.7-0.2,0.7-0.7v-8.5h-5v14.6c0,0.4-1.3,1-2.5,1h-0.5V43.9h-4.6v11.8
	c0,0.3-0.9,1.2-2.5,1.2H153V45.5c-1.5,1.6-3.1,3-5,4.1l-0.4-0.5c3.4-3.2,6-7.7,7.8-12.1h-6l-0.3-1.2h6.8c0.6-1.7,1.1-3.4,1.4-5
	l4.8,1.5c-0.2,0.5-0.5,0.7-1.5,0.7c-0.3,0.9-0.7,1.8-1.2,2.7h8.8l2-2.6c0,0,2.3,1.8,3.6,3.1c-0.1,0.5-0.5,0.7-1.1,0.7H158.8z
	 M149.9,31.7c3.3-1.1,6.8-2.8,9.9-4.6c-2.3-1.1-5-2.1-7.7-3l0.2-0.6c4.1,0.6,7.4,1.4,10,2.1c2.1-1.4,3.9-2.7,5.1-4l4.3,2.6
	c-0.3,0.4-1,0.6-2.2,0.3c-1.1,0.7-2.5,1.5-4,2.3c6.8,3,5.4,6.3,3,5.5c-1.3-1.1-3.5-2.5-6.2-3.9c-3.7,1.6-7.9,3-12.1,3.9L149.9,31.7z
	 M215.9,25.6c0,0,2.5,1.9,4.1,3.3c-0.1,0.5-0.5,0.7-1.1,0.7h-20.1c-0.9,1.8-2,3.7-3.4,5.5l0.9,0.3H210l1.7-2l4,3
	c-0.3,0.4-1,0.8-1.9,0.9v17.8c0,2.5-0.5,4-4.9,4.4c-0.2-1.1-0.4-1.9-0.9-2.4c-0.6-0.5-1.6-0.9-3.6-1.2v-0.6c0,0,4.3,0.3,5.2,0.3
	c0.8,0,0.9-0.2,0.9-0.9v-5.5h-15.3c-0.7,3.7-2.1,7.5-5.8,10.4l-0.5-0.5c3.2-4.8,3.4-10.8,3.4-16.3v-4.1c-2.5,2.8-5.7,5.3-9.2,7.3
	l-0.4-0.5c5.5-4.2,9.6-10.2,12.3-16.1h-11.4l-0.3-1.2h12.3c1-2.3,1.8-4.6,2.4-6.8l5,1.5c-0.2,0.5-0.5,0.7-1.6,0.7
	c-0.6,1.5-1.2,3.1-2,4.6h14.2L215.9,25.6z M210.5,48v-5.2h-14.8v0c0,1.6,0,3.4-0.3,5.1H210.5z M195.6,36.5v5.1h14.8v-5.1H195.6z
	 M228.5,55.4v-0.8c7.1-6,12-11,14.7-15s4.1-8,4.1-12c0-2.8-0.6-5-1.7-6.6c-1.2-1.6-2.8-2.4-5-2.4c-2,0-3.7,0.7-5,2.2s-2.9,3.8-4.7,7
	l-0.5-0.2l1.4-8.4c2.7-1.1,5.7-1.6,9-1.6c4.3,0,7.5,0.9,9.6,2.7c2.1,1.8,3.2,4.2,3.2,7.2c0,3.6-1.5,7.1-4.5,10.6
	c-3,3.5-7.7,7.6-14.2,12.2h10c2.2,0,3.9-0.4,5.2-1.1c1.3-0.7,2.7-1.8,4.1-3.3l0.4,0.2l-2.9,9.3C251.7,55.4,228.5,55.4,228.5,55.4z
	 M270.4,56.2c-3.8,0-6.8-0.7-9.2-2.2l-1.3-7.9l0.5-0.1c1.7,3.1,3.3,5.4,4.8,6.9s3.3,2.3,5.3,2.3c2.5,0,4.4-1,5.9-3s2.2-4.8,2.2-8.4
	s-0.8-6.3-2.4-8.2c-1.6-1.8-3.9-2.7-6.9-2.7c-2.6,0-5,0.7-7.1,2.1l-0.4-0.2l2.8-16.5h19.1l-1,5.1h-17.8l-1.8,10.3
	c2.2-1.3,4.7-2,7.6-2c3.9,0,7.1,1,9.6,3c2.6,2,3.9,4.9,3.9,8.8s-1.3,6.9-4,9.2C277.7,55.1,274.4,56.2,270.4,56.2z M306.3,56.2
	c-4.4,0-8.1-1.9-11.1-5.5c-3-3.7-4.5-8.3-4.5-13.8s1.5-10.1,4.5-13.8s6.7-5.5,11.1-5.5s8.1,1.8,11.2,5.5c3,3.7,4.5,8.3,4.5,13.8
	s-1.5,10.1-4.5,13.8C314.4,54.4,310.7,56.2,306.3,56.2z M306.3,55.2c6,0,9.1-6.1,9.1-18.3s-3-18.3-9.1-18.3c-6,0-9,6.1-9,18.3
	S300.3,55.2,306.3,55.2z M344.2,56.2c-4.4,0-8.1-1.9-11.1-5.5c-3-3.7-4.5-8.3-4.5-13.8s1.5-10.1,4.5-13.8s6.7-5.5,11.1-5.5
	s8.1,1.8,11.2,5.5c3,3.7,4.5,8.3,4.5,13.8s-1.5,10.1-4.5,13.8C352.3,54.4,348.6,56.2,344.2,56.2z M344.2,55.2c6,0,9.1-6.1,9.1-18.3
	s-3-18.3-9.1-18.3c-6,0-9,6.1-9,18.3S338.2,55.2,344.2,55.2z M371.2,33.6h9.6l1.8-2.3l2.9,3.1l-0.3,0.5h-10.4c-0.6,0-1,0-1.5,0.1
	c-0.4,0.1-0.8,0.2-1.4,0.3L371.2,33.6z M371.3,51.1c0.6-0.1,1.4-0.2,2.2-0.4c0.7-0.1,1.6-0.4,2.7-0.6c2-0.5,3.7-1,5.1-1.4
	c1.3-0.4,2.6-0.8,4-1.3l0.3,0.6c-1.8,1.2-3.7,2.2-5.6,3.1c-1.7,0.8-3.7,1.7-6.2,2.6c-0.1,0.6-0.1,1-0.2,1.2s-0.2,0.2-0.5,0.2
	c-0.1,0-0.3-0.1-0.3-0.2c-0.1-0.1-0.2-0.3-0.3-0.6L371.3,51.1z M376.3,21.5l3.8,0.7c0.3,0,0.5,0.1,0.6,0.2s0.1,0.2,0.1,0.4
	c0,0.2-0.1,0.3-0.2,0.5c-0.1,0.1-0.3,0.2-0.4,0.3l-1,0.5v26.7h-2.7V26.5c0-1.1,0-2.1-0.1-2.9C376.4,22.8,376.4,22.1,376.3,21.5z
	 M382.9,43.2h20.8l2-2.7l3.7,3.5l-0.3,0.5h-22.5c-0.6,0-1.1,0-1.6,0.1c-0.4,0-0.8,0.1-1.4,0.2L382.9,43.2z M384,25.2h18.8l2-2.7
	l3.8,3.4l-0.3,0.5h-20.6c-0.6,0-1.1,0-1.6,0.1c-0.4,0-0.9,0.1-1.4,0.2L384,25.2z M385.8,29.3c1.8,1.6,3.1,3,4,4.3
	c1,1.6,1.5,3.1,1.5,4.6c0,0.6-0.1,1-0.4,1.3c-0.2,0.3-0.6,0.4-0.9,0.4c-0.4,0-0.6-0.2-0.8-0.6c-0.2-0.4-0.4-1.1-0.6-2
	c-0.3-1.4-0.7-2.9-1.4-4.3c-0.5-1.1-1.1-2.2-1.9-3.4L385.8,29.3z M394.4,43.7h2.7v9.6c0,0.1,0,0.1,0,0.2c0,0.1,0,0.2,0,0.3
	c0,0.6,0,1.1,0,1.6c0,0.6,0,1.3,0,2c0,0.3,0,0.8,0,1.3c0,0.4,0,0.8,0,1.1l-2.9,0.6c0-2,0.1-3.7,0.1-5c0-1.2,0-1.9,0-2.2L394.4,43.7
	L394.4,43.7z M394.5,25.9h2.7v18.3h-2.7V25.9z M403.8,29l3.2,1.6c0.3,0.1,0.4,0.2,0.5,0.4c0.1,0.1,0.1,0.2,0.1,0.4
	c0,0.3-0.1,0.4-0.4,0.6c-0.3,0.1-0.7,0.2-1.4,0.2c-1,1.8-1.9,3.3-2.8,4.6c-0.8,1.1-1.9,2.5-3.3,4l-0.5-0.4c0.5-1,1.1-2,1.6-3
	c0.4-0.9,0.8-1.8,1.2-2.7c0.4-1.1,0.8-2.1,1.1-3.1C403.5,30.5,403.7,29.7,403.8,29z M442.5,42.1c-0.2,4.7-0.6,8.1-1.3,10.2
	c-0.9,2.8-2.5,5.4-4.9,7.6l-0.5-0.5c1.7-2.8,2.8-5.7,3.3-8.9c0.3-1.9,0.5-4.7,0.6-8.4H442.5z M436.1,41.5h12.3v1.3h-8.5
	c-0.6,0-1.1,0-1.6,0.1s-0.9,0.2-1.4,0.3L436.1,41.5z M438.4,23.7l3.6,0.6c0.2,0,0.4,0.1,0.5,0.2s0.2,0.3,0.2,0.4
	c0,0.2-0.1,0.4-0.2,0.5s-0.2,0.2-0.4,0.3l-0.9,0.4v8.4h1.6l-2.1,2.3l-2.5-1.6c-0.1-0.1-0.2-0.1-0.3-0.2c-0.1-0.1-0.1-0.2-0.1-0.3
	s0.1-0.2,0.2-0.4c0.1-0.1,0.1-0.2,0.2-0.3c0.2-0.3,0.3-0.6,0.4-1c0-0.2,0-0.5,0-0.9v-4c0-0.8,0-1.6,0-2.3
	C438.5,25,438.5,24.4,438.4,23.7z M440.1,33.7h8V35h-8V33.7z M447.1,21.2l3.6,0.5c0.2,0,0.4,0.1,0.5,0.2s0.2,0.3,0.2,0.5
	s-0.1,0.4-0.2,0.5s-0.2,0.2-0.4,0.2l-0.9,0.5v29.7c0,0.9,0,2,0,3.3c0,1.5,0,2.5,0,2.9l-2.8,0.6c0-1.2,0.1-2.4,0.1-3.7
	c0-1.2,0-2.3,0-3.2V25.6c0-0.9,0-1.7,0-2.4C447.2,22.5,447.2,21.8,447.1,21.2z M450.7,35.5h17.5l2.2-2.7l3.8,3.5l-0.3,0.6h-19.4
	c-0.6,0-1.1,0-1.6,0.1s-0.9,0.1-1.4,0.2L450.7,35.5z M451.6,56.3H467l2.2-2.8L473,57l-0.3,0.6h-17.3c-0.6,0-1.1,0-1.6,0.1
	c-0.5,0-0.9,0.1-1.4,0.2L451.6,56.3z M460.2,21.3l3.8,0.6c0.2,0,0.4,0.1,0.5,0.2s0.2,0.2,0.2,0.4c0,0.2-0.1,0.4-0.3,0.5
	c-0.1,0.1-0.2,0.2-0.4,0.3l-0.8,0.4V57h-2.8V25.6c0-0.9,0-1.6,0-2.3C460.3,22.7,460.3,22,460.2,21.3z M485.7,21.7l3.8,2.1h-1v35.6
	l-2.8,0.8c0-1.2,0.1-2.6,0.1-4.1c0-1.4,0.1-2.6,0.1-3.5V26.3c0-0.8,0-1.6,0-2.5C485.8,23.2,485.7,22.4,485.7,21.7z M487.1,27.8h11
	V29h-11V27.8z M487.2,23.4h11v1.3h-11V23.4z M487.2,32.5h11v1.3h-11V32.5z M489.9,41.1c1.7,0.5,2.7,0.8,3.2,1
	c1.1,0.6,1.7,1.3,1.7,2.1c0,0.3-0.1,0.6-0.3,0.9c-0.2,0.2-0.4,0.4-0.7,0.4c-0.3,0-0.5-0.1-0.7-0.3c-0.1-0.1-0.2-0.3-0.4-0.6
	c-0.4-0.6-0.9-1.2-1.5-1.8c-0.4-0.4-0.9-0.9-1.5-1.4L489.9,41.1z M490.7,50.2c0.6,0,1.1,0,1.6,0c0.5-0.1,0.9-0.3,1.1-0.6
	c0.8-1.1,1.6-2.6,2.4-4.3c0.6-1.3,1.2-2.6,1.8-3.9l0.5,0.2c-0.3,1.3-0.9,3-1.7,5.1c-0.7,2-1.3,3.5-1.5,4.4c-0.1,0.1-0.1,0.3-0.1,0.4
	c0,0.1,0,0.2,0,0.4c0,0.4,0.1,0.9,0.2,1.4s0.3,0.9,0.4,1.2c0.2,0.6,0.3,0.9,0.3,1.1c0.1,0.4,0.1,0.7,0.1,1c0,0.5-0.1,0.8-0.5,1.1
	c-0.3,0.3-0.6,0.4-1,0.4c-0.3,0-0.5-0.1-0.7-0.2c-0.2-0.1-0.3-0.3-0.3-0.4c-0.1-0.2-0.1-0.3-0.1-0.6c0-0.1,0-0.3,0-0.5s0-0.4,0-0.7
	c0-0.2,0-0.4,0-0.6c0.1-1.5,0-2.5-0.2-3c-0.3-0.7-1.1-1.1-2.2-1.3L490.7,50.2L490.7,50.2z M492.1,36.2c1.7,0.6,2.8,0.9,3.2,1.1
	c1.1,0.6,1.6,1.3,1.6,2.1c0,0.4-0.1,0.7-0.3,0.9c-0.2,0.2-0.4,0.4-0.7,0.4c-0.2,0-0.5-0.1-0.7-0.3c-0.1-0.1-0.2-0.3-0.4-0.6
	c-0.4-0.6-0.8-1.3-1.4-1.9c-0.4-0.4-0.9-0.9-1.5-1.4L492.1,36.2z M497.4,35.4V23.8h-0.8l1.6-2.1l2.7,1.7c0.2,0.1,0.3,0.2,0.4,0.3
	c0.1,0.1,0.1,0.2,0.1,0.4c0,0.1,0,0.3-0.1,0.4s-0.2,0.2-0.3,0.3l-1,0.9v5.2c0,0.6,0,1.2,0,2c0,0.7,0.1,1.3,0.1,1.8L497.4,35.4z
	 M497.9,42.7h12.3l1.6-2l3.1,2.8l-0.3,0.4h-13c-0.5,0-1.1,0-1.6,0.1s-0.9,0.1-1.4,0.2L497.9,42.7z M498.5,38.5
	c3-0.5,5.2-0.8,6.6-1.2c2.2-0.5,4-1.2,5.5-2l1.8,2c0.1,0.1,0.2,0.2,0.2,0.3c0.1,0.1,0.1,0.2,0.1,0.3c0,0.2-0.1,0.3-0.2,0.4
	c-0.1,0.1-0.2,0.1-0.4,0.1c-0.2,0-0.3,0-0.5-0.1c-0.1,0-0.2-0.1-0.5-0.2c0,0-0.1,0-0.2-0.1h-0.1c-2,0.4-4.2,0.6-6.6,0.9
	c-1.7,0.2-3.7,0.3-5.7,0.4L498.5,38.5z M499.2,46.4l3.6,1.9h-1.1v8.8l-2.4,0.8c0-0.4,0-1.1,0-2.1c0-0.8,0-1.4,0-1.8v-3.9
	c0-0.6,0-1.2-0.1-1.9C499.3,47.7,499.3,47.1,499.2,46.4z M500.7,48.1h9.9v1.2h-9.9V48.1z M500.8,54.6h9.9v1.2h-9.9V54.6z
	 M504.6,37.8h2.4v11h-2.4V37.8z M504.8,21.9l3.8,2.1h-1.1v10.6l-2.7,0.7c0-0.8,0.1-1.6,0.1-2.4c0-0.8,0.1-1.5,0.1-2.1v-4.3
	c0-0.8,0-1.6,0-2.4C504.8,23.4,504.8,22.7,504.8,21.9z M506.2,27.8h11.5V29h-11.5V27.8z M506.3,23.4h11.4v1.3h-11.4V23.4z
	 M506.3,32.6h11.4v1.3h-11.4V32.6z M510.5,46.3l2.4,1.6c0.2,0.1,0.3,0.2,0.4,0.4c0.1,0.1,0.2,0.3,0.2,0.4c0,0.2-0.1,0.3-0.2,0.5
	c-0.1,0.1-0.2,0.2-0.3,0.3l-0.8,0.6v3.8c0,0.4,0,0.9,0.1,1.5c0,0.5,0,1,0.1,1.3l-2.5,0.8v-8.9H509L510.5,46.3z M512.3,56.2h3
	c0.5,0,0.8-0.1,0.9-0.2c0.2-0.1,0.3-0.4,0.3-0.8V23.8h-0.8l1.6-2.1l2.7,1.7c0.2,0.1,0.3,0.2,0.4,0.3c0.1,0.1,0.1,0.2,0.1,0.4
	c0,0.1,0,0.3-0.1,0.4c-0.1,0.1-0.2,0.2-0.3,0.3l-1,0.9v26.7c0,0.4,0,1.1,0.1,2c0,0.8,0,1.3,0,1.7c0,1.4-0.4,2.4-1.2,2.9
	c-0.5,0.3-1.4,0.6-2.8,0.8v-0.1v-0.1c0-0.8-0.3-1.4-1-1.8c-0.5-0.3-1.1-0.5-2-0.6L512.3,56.2L512.3,56.2z M531.3,40.4h31.4l2.2-2.7
	l3.8,3.5l-0.3,0.5h-33.5c-0.6,0-1.1,0-1.6,0.1c-0.4,0-0.9,0.1-1.4,0.2L531.3,40.4z M548,42.3l3.6,0.7c0.3,0,0.5,0.1,0.5,0.2
	c0.1,0.1,0.1,0.2,0.1,0.4s-0.1,0.4-0.4,0.6c-0.2,0.1-0.5,0.2-1.1,0.4c-0.3,2.4-0.7,4.3-1.1,5.6c-0.4,1.1-1,2.2-1.7,3.2
	c-1.8,2.4-4.5,4.3-8,5.5c-2.2,0.8-5.1,1.3-8.4,1.7l-0.1-0.6c3.7-1,6.5-2,8.4-3c2.5-1.2,4.5-2.8,5.8-4.6c1-1.4,1.7-3,2.1-5
	C548,45.6,548.1,44,548,42.3z M532.4,27.8H562l2.2-2.7l3.8,3.5l-0.3,0.5H536c-0.6,0-1.1,0-1.6,0.1c-0.4,0.1-0.9,0.1-1.4,0.2
	L532.4,27.8z M532.7,47.5h29.4l2.1-2.7l3.8,3.5l-0.3,0.5h-31.3c-0.6,0-1.1,0-1.6,0.1c-0.4,0-0.9,0.1-1.4,0.2L532.7,47.5z
	 M535.2,34.2h23.9l2.1-2.5l3.6,3.3l-0.3,0.5h-25.7c-0.6,0-1.1,0-1.6,0.1c-0.4,0-0.9,0.1-1.4,0.2L535.2,34.2z M540.3,21.7
	c2,0.6,3.5,1.3,4.3,2c0.9,0.6,1.3,1.4,1.3,2.3c0,0.5-0.2,0.9-0.5,1.2c-0.3,0.3-0.6,0.4-1,0.4c-0.3,0-0.6-0.1-0.8-0.3
	c-0.2-0.2-0.4-0.6-0.7-1.1c-0.5-0.9-0.9-1.7-1.4-2.2c-0.4-0.5-0.9-1.1-1.6-1.8L540.3,21.7z M548.6,28.4h2.9V41h-2.9V28.4z M550.2,48
	l0.6-0.2c2.1,2.9,4.9,5,8.3,6.5c2.7,1.2,5.8,1.9,9.4,2.2v0.6c-1.1,0.3-1.8,0.7-2.2,1.1c-0.3,0.4-0.6,0.9-0.7,1.6
	c-4.1-1.1-7.4-2.8-10.1-5C553.1,53,551.4,50.7,550.2,48z M555.7,21.4l3.7,1.4c0.2,0.1,0.4,0.2,0.5,0.3c0.1,0.1,0.1,0.2,0.1,0.3
	c0,0.3-0.2,0.5-0.6,0.6c-0.1,0-0.4,0-0.9,0c-0.7,1-1.5,1.9-2.2,2.5c-0.6,0.6-1.4,1.2-2.3,1.9l-0.4-0.2c0.5-1.2,1-2.4,1.4-3.7
	C555.3,23.4,555.6,22.4,555.7,21.4z M578.3,33.5h7.9l1.7-2.2l2.9,3l-0.3,0.5H582c-0.5,0-1,0-1.5,0.1c-0.4,0.1-0.8,0.2-1.4,0.3
	L578.3,33.5z M578.3,51.3c2.2-0.5,4.3-1.2,6.4-1.9c1.9-0.6,3.9-1.4,5.9-2.2l0.3,0.5c-0.9,0.7-1.7,1.3-2.5,1.9
	c-0.8,0.5-1.6,1.1-2.5,1.6c-0.7,0.4-1.4,0.8-2.3,1.2c-0.7,0.4-1.6,0.8-2.5,1.2c0,0.6,0,1-0.1,1.2s-0.2,0.2-0.5,0.2
	c-0.1,0-0.2,0-0.3-0.1s-0.2-0.2-0.3-0.5L578.3,51.3z M582.7,21.7l3.7,0.6c0.3,0.1,0.4,0.1,0.5,0.2s0.1,0.2,0.1,0.4
	c0,0.2-0.1,0.3-0.2,0.5c-0.1,0.1-0.3,0.2-0.5,0.4l-0.9,0.5v26.3h-2.6V26.7c0-1.1,0-2.1-0.1-2.9C582.8,23,582.8,22.3,582.7,21.7z
	 M589.2,53.1c1-0.2,2.3-0.4,3.8-0.6c1.2-0.2,2.4-0.4,3.4-0.6c1.4-0.3,2.6-0.5,3.7-0.8c0.8-0.2,1.8-0.4,3-0.8l0.2,0.7
	c-2.2,1.1-4.2,2-6.1,2.7c-1.6,0.6-3.4,1.3-5.5,2c-0.1,0.7-0.1,1.1-0.2,1.3c-0.1,0.2-0.2,0.3-0.5,0.3c-0.1,0-0.2,0-0.3-0.1
	s-0.1-0.1-0.2-0.2c0-0.1-0.1-0.2-0.1-0.3s-0.1-0.2-0.1-0.3L589.2,53.1z M590.1,29.4h21.1l2-2.4l3.5,3.2l-0.3,0.5H594
	c-0.6,0-1.1,0-1.6,0.1c-0.4,0.1-0.9,0.2-1.4,0.3L590.1,29.4z M591.6,34.5l3.5,2h-1v12l-2.5,0.7c0-1.3,0.1-2.5,0.1-3.6
	c0-0.9,0-1.5,0-1.8V39c0-0.8,0-1.6,0-2.3C591.6,35.9,591.6,35.2,591.6,34.5z M593.3,36.2h7.6v1.3h-7.6V36.2z M593.3,45.1h7.6v1.3
	h-7.6V45.1z M611.8,35.1l3.1,1.4c0.3,0.1,0.4,0.2,0.5,0.3s0.1,0.2,0.1,0.4c0,0.3-0.1,0.5-0.4,0.6c-0.2,0.1-0.7,0.2-1.3,0.2
	c-0.5,1.6-0.9,2.8-1.2,3.8c-0.3,0.8-0.7,1.6-1,2.4c-1.5,3.6-3.4,6.7-5.8,9.3c-2.1,2.2-4.6,4.2-7.6,6l-0.4-0.5
	c3.8-3.4,6.6-6.5,8.5-9.2c1.6-2.4,3-5.1,4-8.2c0.4-1.1,0.7-2.4,1-3.6C611.5,36.9,611.7,35.9,611.8,35.1z M598.9,36.6l1.5-2.1
	l2.5,1.6c0.2,0.2,0.4,0.3,0.4,0.4c0.1,0.1,0.1,0.2,0.1,0.3s0,0.3-0.1,0.4c-0.1,0.1-0.2,0.2-0.4,0.4l-0.8,0.6v5.5c0,0.3,0,0.9,0,1.7
	s0,1.6,0.1,2.6l-2.5,0.7v-12h-0.8V36.6z M603.9,21.5l3.4,0.7c0.2,0.1,0.4,0.1,0.5,0.2s0.2,0.2,0.2,0.4c0,0.2-0.1,0.4-0.4,0.6
	c-0.2,0.1-0.5,0.2-1,0.4c0,1,0,1.7,0,2.1c0,0.7,0,1.3,0,1.8c0,2.7,0.1,5.2,0.3,7.6c0.1,2.1,0.3,3.8,0.5,5.3c0.4,2.9,1,5.5,1.9,7.8
	c0.7,2,1.6,3.8,2.6,5.2c0.3,0.4,0.5,0.7,0.7,0.8c0.2,0.2,0.4,0.2,0.5,0.2c0.2,0,0.3-0.1,0.4-0.2c0.1-0.1,0.2-0.3,0.3-0.7
	c0.3-0.9,0.6-1.7,0.9-2.5c0.2-0.7,0.5-1.5,0.8-2.3l0.7,0.2c-0.2,1.1-0.4,2.2-0.5,3.1c-0.1,0.9-0.2,1.6-0.3,2.2c0,0.5,0,1,0,1.5
	c0.1,0.5,0.2,0.9,0.3,1.3c0.2,0.5,0.3,0.8,0.3,1.1c0,0.2,0.1,0.3,0.1,0.4c0,0.4-0.1,0.7-0.3,0.9s-0.4,0.3-0.7,0.3
	c-0.9,0-1.9-0.6-3.1-1.7c-1-1-1.9-2.2-2.8-3.5c-0.9-1.6-1.8-3.5-2.5-5.7c-0.6-1.9-1.1-3.9-1.5-6c-0.3-1.5-0.5-3.1-0.6-4.9
	c-0.1-1.5-0.3-3.3-0.3-5.2c-0.1-1.4-0.1-2.9-0.2-4.8c0-0.8,0-2.2-0.1-4.3c0-0.7,0-1.2-0.1-1.6C604,22.3,603.9,21.9,603.9,21.5z
	 M609.1,22.4c1.8,0.4,3,0.8,3.7,1.3c0.7,0.4,1,1,1,1.7c0,0.5-0.2,0.9-0.5,1.2c-0.3,0.3-0.6,0.4-0.9,0.4c-0.3,0-0.5-0.1-0.7-0.3
	c-0.2-0.1-0.3-0.4-0.6-0.8c-0.4-0.7-0.8-1.2-1.1-1.6s-0.7-0.8-1.3-1.3L609.1,22.4z M173.7,116.2H198l1.6-1.9l2.9,2.5l-0.2,0.4h-25.7
	c-0.5,0-0.9,0-1.2,0.1c-0.3,0-0.7,0.1-1.1,0.2L173.7,116.2z M176,131l3.4,1.7h-1.2v10.9l-2.2,0.7c0-0.7,0-1.3,0.1-2
	c0-0.7,0-1.3,0-1.8v-6.7c0-0.5,0-1,0-1.4C176.1,131.9,176,131.5,176,131z M177.5,132.3H199v1h-21.5V132.3z M178.3,119.2l3.1,1.7
	h-0.9v9.4l-2.2,0.7c0-0.7,0.1-1.4,0.1-2.2c0-0.7,0-1.4,0-1.9v-3.8c0-0.7,0-1.4,0-2.1C178.4,120.4,178.3,119.7,178.3,119.2z
	 M179.6,124.6h16.8v0.9h-16.8V124.6z M179.7,120.6h16.8v1h-16.8V120.6z M179.7,128.6h16.8v1h-16.8V128.6z M179.8,137.6
	c0.8,0,1.4,0,1.9,0c0.3,0,0.7,0,1.2,0c1.4-0.1,2.7-0.1,3.9-0.2c1.2-0.1,2.3-0.2,3.5-0.3c0.8-0.1,1.5-0.2,2.3-0.2
	c0.7-0.1,1.3-0.2,2-0.3l0.2,0.6c-0.9,0.3-1.8,0.5-2.6,0.7c-0.7,0.2-1.4,0.3-2.1,0.5c-1.2,0.3-2.6,0.5-4.3,0.7
	c-1.4,0.2-2.7,0.3-3.9,0.5c-0.1,0.5-0.2,0.8-0.3,0.9c-0.1,0.1-0.2,0.2-0.4,0.2c-0.1,0-0.2,0-0.3-0.1s-0.1-0.2-0.2-0.4L179.8,137.6z
	 M181.7,113.2l2.8,0.4c0.2,0,0.4,0.1,0.5,0.2s0.1,0.2,0.1,0.3c0,0.1-0.1,0.3-0.2,0.4c-0.1,0.1-0.3,0.2-0.5,0.3l-0.5,0.2v2.4
	c0,0.4,0,0.8,0,1.2c0,0.3,0,0.7,0,1.1l-2.2,0.4c0-0.2,0-0.6,0-1.3c0-0.5,0-0.8,0-1.1v-2v-0.2c0-0.4,0-0.8,0-1.2
	C181.7,113.7,181.7,113.4,181.7,113.2z M187,121.2h2v16.9h-2V121.2z M191.5,113.2l2.8,0.4c0.2,0,0.4,0.1,0.5,0.2s0.1,0.2,0.1,0.3
	c0,0.1-0.1,0.3-0.2,0.4c-0.1,0.1-0.3,0.2-0.5,0.3l-0.5,0.2v2.5c0,0.3,0,0.7,0,1.1c0,0.3,0,0.7,0,1.1l-2.1,0.4c0-0.5,0-0.9,0-1.4
	c0-0.4,0-0.8,0-1.2v-1.9c0-0.4,0-0.9,0-1.3C191.6,113.9,191.6,113.5,191.5,113.2z M192.2,134.8l0.3-0.3c0.9,0.5,1.5,0.9,1.9,1.2
	s0.7,0.5,1,0.9c0.4,0.4,0.6,0.7,0.8,1.1c0.1,0.3,0.2,0.6,0.2,0.9c0,0.4-0.1,0.7-0.3,1c-0.2,0.2-0.4,0.3-0.7,0.3
	c-0.2,0-0.4-0.1-0.5-0.2c-0.1-0.1-0.2-0.4-0.3-0.7c-0.3-0.9-0.6-1.6-1-2.3C193.2,136.1,192.8,135.5,192.2,134.8z M197.2,132.8
	l1.4-1.8l2.1,1.3c0.2,0.1,0.3,0.2,0.3,0.3c0.1,0.1,0.1,0.2,0.1,0.3s0,0.2-0.1,0.3s-0.2,0.2-0.3,0.3l-0.7,0.6v4.7c0,0.3,0,0.8,0,1.4
	c0,0.5,0,0.9,0,1.2c0,0.9-0.3,1.5-1,1.9c-0.5,0.3-1.3,0.5-2.3,0.5c0-0.7-0.3-1.2-0.8-1.4c-0.4-0.2-1.4-0.3-2.7-0.5v-0.6h3.6
	c0.5,0,0.8-0.1,0.9-0.2c0.1-0.1,0.2-0.4,0.2-0.9v-7.4L197.2,132.8L197.2,132.8z M194.9,121l1.3-1.8l2.2,1.4c0.2,0.1,0.3,0.2,0.3,0.3
	c0.1,0.1,0.1,0.2,0.1,0.2c0,0.1,0,0.2-0.1,0.3c-0.1,0.1-0.2,0.2-0.3,0.3l-0.7,0.6v4.4c0,0.2,0,0.6,0,1.1c0,0.4,0,1.2,0.1,2.3
	l-2.2,0.6V121H194.9z M212.9,139.3c1.4-1.8,2.4-3.7,3.2-5.4c0.8-1.8,1.4-3.6,1.6-5.3l2.5,0.8c0.2,0,0.3,0.1,0.4,0.2
	c0.1,0.1,0.1,0.2,0.1,0.3c0,0.2-0.2,0.4-0.5,0.5c-0.1,0-0.3,0-0.7,0c-0.6,1.9-1.6,3.7-2.8,5.5c-1,1.4-2.2,2.7-3.6,3.9L212.9,139.3z
	 M214.3,113.2l3.2,1.8h-1v7.9l-2.2,0.5c0-0.8,0.1-1.5,0.1-2.3s0-1.4,0-2v-2.7c0-0.5,0-1.1,0-1.7
	C214.4,114.2,214.3,113.7,214.3,113.2z M235.9,122.8l1.5,1.9c0.2,0.2,0.2,0.3,0.2,0.3c0.1,0.1,0.1,0.2,0.1,0.3
	c0,0.2-0.1,0.3-0.2,0.4c-0.1,0.1-0.2,0.1-0.3,0.1c-0.2,0-0.4-0.1-0.6-0.2c-0.2-0.1-0.4-0.2-0.5-0.2c-3.7,0.5-7.6,0.9-11.6,1.2
	c-3.2,0.2-6.6,0.4-10.2,0.4v-0.7c3.7-0.4,6.7-0.8,9-1.1c2.9-0.4,5.5-0.8,7.8-1.3c1.1-0.2,2-0.4,2.5-0.5
	C234.6,123.3,235.3,123.1,235.9,122.8z M215.5,114.6h21.8v1h-21.8V114.6z M215.7,120.8h21.5v1h-21.5V120.8z M218.2,132.5
	c1.6,0.7,2.8,1.3,3.4,1.8c1.2,0.9,1.8,1.8,1.8,2.7c0,0.4-0.1,0.7-0.3,0.9s-0.4,0.3-0.7,0.3c-0.2,0-0.4-0.1-0.6-0.2
	c-0.1-0.1-0.2-0.3-0.3-0.5c-0.4-0.9-1-1.8-1.7-2.6c-0.5-0.6-1.2-1.3-1.9-1.9L218.2,132.5z M221.9,114.9h2v6.2h-2V114.9z
	 M225.3,125.9h2.2v12.9c0,0.7,0,1.5,0,2.5c0,0.8,0,1.5,0,2.2l-2.3,0.5c0-0.9,0-1.8,0-2.8s0-1.8,0-2.4v-12.9H225.3z M228,139.3
	c1.4-1.9,2.4-3.7,3.2-5.6c0.8-1.8,1.4-3.7,1.7-5.5l2.5,0.8c0.2,0.1,0.3,0.1,0.4,0.2c0.1,0.1,0.1,0.2,0.1,0.3c0,0.3-0.2,0.4-0.5,0.5
	c-0.1,0-0.3,0-0.7,0c-0.6,2-1.6,3.9-2.7,5.6c-1,1.5-2.2,2.9-3.6,4.1L228,139.3z M229.2,115h2v6.3h-2V115z M233.9,130.1l0.5-0.1
	c0.7,1.9,1.7,3.4,2.9,4.7c1.1,1.1,2.4,2,3.9,2.7l-0.1,0.5c-0.7,0-1.2,0.1-1.5,0.4c-0.4,0.2-0.7,0.6-1,1c-1.4-1.2-2.5-2.7-3.3-4.4
	C234.8,133.6,234.3,132,233.9,130.1z M235.9,115l1.4-2l2.2,1.5c0.1,0.1,0.2,0.2,0.3,0.3c0.1,0.1,0.1,0.2,0.1,0.3
	c0,0.1-0.1,0.2-0.2,0.4c0,0.1-0.1,0.2-0.3,0.3l-0.7,0.6v2.9c0,0.5,0,1,0,1.7c0,0.6,0.1,1.1,0.1,1.5l-2.2,0.6V115H235.9z
	 M251.2,114.4l2.8,1.7h-0.9v23.8l-1.9,0.7c0-1.3,0.1-2.4,0.1-3.5s0-2.1,0-3v-15.9c0-0.7,0-1.3,0-2
	C251.3,115.6,251.3,115,251.2,114.4z M252.4,122.2h5.1v1h-5.1V122.2z M252.4,129.1h5.1v1h-5.1V129.1z M252.4,115.8h5.1v1h-5.1V115.8
	z M252.4,136.2h5.1v1h-5.1V136.2z M255.9,116.2l1.2-1.8l1.9,1.3c0.2,0.1,0.3,0.2,0.3,0.2c0.1,0.1,0.1,0.2,0.1,0.3
	c0,0.1-0.1,0.3-0.2,0.4s-0.1,0.2-0.3,0.3l-0.6,0.5V133c0,0.8,0,1.8,0,3c0,0.6,0,1.4,0.1,2.6l-1.9,0.7v-23h-0.6V116.2z M257.3,143.6
	c1.2-2.9,2-6.2,2.5-9.8c0.3-2.6,0.5-5.5,0.5-8.9v-7.3c0-0.8,0-1.5,0-2.3c0-0.7-0.1-1.3-0.1-2l3.2,1.7h-1.2v9.9
	c0,4.4-0.3,7.9-0.9,10.6c-0.7,3.2-1.9,6-3.6,8.4L257.3,143.6z M261.4,114.6H277v1h-15.6V114.6z M261.4,117.9H277v1h-15.6V117.9z
	 M261.8,134.5c1-0.7,1.9-1.5,2.6-2.3c0.8-0.9,1.4-1.7,1.8-2.5c0,0,0,0,0-0.1v-0.1l1.7,1c0.1,0,0.1,0.1,0.2,0.1
	c0.1,0.1,0.1,0.1,0.1,0.2c0,0.1-0.1,0.2-0.2,0.3c-0.1,0-0.2,0.1-0.3,0.1c-0.1,0-0.1,0-0.3,0c-0.1,0-0.2,0-0.2,0
	c-0.8,0.9-1.7,1.6-2.6,2.3c-0.8,0.6-1.7,1.1-2.6,1.5L261.8,134.5z M262.3,140c2,0,4,0,6.1-0.1c1.7,0,3.5-0.1,5.3-0.2l0.2,0.4
	c-1.5,0.3-3.2,0.6-5.3,0.9c-1.7,0.2-3.2,0.4-4.6,0.6c-0.1,0.3-0.1,0.5-0.1,0.6c-0.1,0.2-0.2,0.3-0.4,0.3c-0.1,0-0.2-0.1-0.3-0.2
	c0-0.1-0.1-0.2-0.1-0.3L262.3,140z M262.8,122.2c1.1-0.1,2.2-0.1,3.3-0.2c0.9-0.1,1.9-0.1,2.9-0.2l0.1,0.4c-0.9,0.3-1.8,0.5-2.6,0.7
	c-0.8,0.2-1.6,0.4-2.3,0.5c0,0.3-0.1,0.4-0.1,0.5c-0.1,0.1-0.1,0.2-0.3,0.2c-0.1,0-0.2,0-0.3-0.1c0,0-0.1-0.1-0.1-0.2L262.8,122.2z
	 M263.3,119.6c1,0,2.1,0.1,3.3,0.2c1.4,0.2,2.2,0.6,2.2,1.2c0,0.2-0.1,0.3-0.2,0.5c-0.1,0.1-0.2,0.2-0.4,0.2c-0.1,0-0.3,0-0.4-0.1
	c0,0-0.2-0.1-0.3-0.2c-0.7-0.3-1.4-0.6-2.2-0.8c-0.6-0.2-1.3-0.4-2-0.5V119.6z M263.4,123.9l2.7,1.2h-0.9v4.9l-1.8,0.5
	c0-0.5,0-1,0-1.4c0-0.5,0-0.9,0-1.3v-1.7c0-0.3,0-0.7,0-1.2C263.5,124.7,263.5,124.3,263.4,123.9z M263.8,133.9l2.3,1h-0.6v3.6
	l-1.7,0.5c0-0.1,0-0.4,0-0.9c0-0.3,0-0.6,0-0.8v-1.8c0-0.2,0-0.5,0-0.8C263.8,134.3,263.8,134.1,263.8,133.9z M264.4,124.9h12.5v0.8
	h-12.5V124.9z M264.6,134.7h8.7v0.9h-8.7V134.7z M264.6,137.2h8.7v0.8h-8.7V137.2z M264.6,128.6h12.3v0.8h-12.3V128.6z M265.3,131.7
	h12v0.9h-12V131.7z M267.8,125.1h1.6v4h-1.6V125.1z M268,132.7l2.3,0.5c0.1,0,0.3,0.1,0.3,0.1c0.1,0.1,0.1,0.1,0.1,0.3
	c0,0.1,0,0.2-0.1,0.3s-0.2,0.1-0.3,0.2l-0.6,0.3v6.1H268v-6c0-0.3,0-0.6,0-0.9C268.1,133.2,268.1,132.9,268,132.7z M269.6,119.1
	l2.5,0.5c0.1,0,0.2,0.1,0.3,0.1c0.1,0,0.1,0.1,0.1,0.2s-0.1,0.2-0.2,0.3c0,0-0.1,0.1-0.3,0.2l-0.5,0.2v1.8c0,0.2,0,0.5,0,0.8
	c0,0.2,0,0.4,0,0.7l-1.9,0.4c0-0.4,0-0.8,0-1c0-0.3,0-0.6,0-0.9v-1.7c0-0.3,0-0.6,0-0.9C269.6,119.6,269.6,119.4,269.6,119.1z
	 M276.6,132.1h-0.8l1.2-1.7l1.9,1.2c0.1,0.1,0.3,0.2,0.3,0.2c0.1,0.1,0.1,0.2,0.1,0.3s0,0.2-0.1,0.4c-0.1,0.1-0.1,0.1-0.2,0.2
	l-0.6,0.5c0,1.4-0.1,2.8-0.2,4.2s-0.3,2.7-0.5,3.7c-0.3,0.9-0.8,1.6-1.7,2c-0.6,0.3-1.3,0.5-2.3,0.6c0-0.7-0.4-1.1-1.3-1.3
	c-0.1,0-0.7-0.1-1.8-0.2v-0.6h3.1c0.7,0,1.3-0.2,1.7-0.5c0.3-0.3,0.6-0.8,0.7-1.5c0.2-1.2,0.3-2.5,0.4-4
	C276.5,134.9,276.6,133.8,276.6,132.1z M272,121.8c0.6,0,1.3,0,2.2,0c1.1,0,2,0.1,2.7,0.2c0.6,0.1,1.1,0.2,1.4,0.4
	c0.3,0.2,0.5,0.4,0.5,0.7c0,0.2-0.1,0.3-0.2,0.4s-0.2,0.2-0.4,0.2c-0.1,0-0.3,0-0.5-0.1c-0.1,0-0.2-0.1-0.4-0.1
	c-0.9-0.3-1.8-0.5-2.8-0.8c-0.8-0.2-1.6-0.3-2.5-0.5L272,121.8z M271.9,121.1c1.1-0.3,2-0.5,2.8-0.8c0.9-0.3,1.7-0.6,2.4-0.9
	c0,0,0,0,0.1-0.1c0,0,0,0,0.1,0l1,1c0.1,0,0.1,0.1,0.1,0.1v0.1c0,0.1,0,0.2-0.1,0.2s-0.1,0.1-0.2,0.1s-0.2,0-0.4-0.1
	c0,0-0.1,0-0.2-0.1c0,0,0,0-0.1,0h-0.1c-0.8,0.2-1.8,0.4-2.9,0.5c-0.5,0.1-1.4,0.2-2.5,0.3L271.9,121.1z M272,125.2h1.6v4H272V125.2
	z M272.1,135l0.8-1.3l1.7,0.8c0.1,0.1,0.2,0.1,0.3,0.2c0.1,0.1,0.1,0.1,0.1,0.2c0,0.1,0,0.2-0.1,0.3c0,0-0.1,0.1-0.2,0.2l-0.5,0.5v1
	c0,0.2,0,0.4,0,0.7c0,0.2,0,0.4,0,0.6l-1.7,0.4V135H272.1z M272.3,138.5c0.9,0.4,1.5,0.7,1.8,0.9c0.6,0.4,0.9,0.9,0.9,1.4
	c0,0.2-0.1,0.4-0.2,0.6c-0.1,0.1-0.3,0.2-0.5,0.2s-0.3-0.1-0.4-0.3s-0.2-0.3-0.2-0.5c-0.2-0.4-0.4-0.8-0.7-1.2
	c-0.2-0.3-0.5-0.6-0.8-0.9L272.3,138.5z M275.5,125.2l1.1-1.5l1.8,1.1c0.1,0.1,0.2,0.1,0.3,0.2c0.1,0.1,0.1,0.2,0.1,0.3
	c0,0.1,0,0.2-0.1,0.4c-0.1,0.1-0.1,0.1-0.3,0.2l-0.5,0.5v1.6c0,0.2,0,0.6,0,1c0,0.4,0,0.7,0,0.9l-1.8,0.5v-5h-0.6V125.2z
	 M275.8,115.1l1.3-1.7l1.9,1.2c0.1,0.1,0.2,0.2,0.3,0.2c0.1,0.1,0.1,0.2,0.1,0.3c0,0.1,0,0.3-0.1,0.4s-0.1,0.1-0.2,0.2l-0.6,0.5v0.9
	c0,0.3,0,0.6,0,0.9s0,0.6,0,0.8l-1.9,0.4v-4.3h-0.8V115.1z M292.6,114.6l3.3,1.7h-1v27.2l-2.3,0.6c0-0.8,0-2,0.1-3.7
	c0.1-1.3,0.1-2.4,0.1-3.2v-18.7c0-0.7,0-1.4,0-2.1C292.7,115.8,292.6,115.2,292.6,114.6z M294.2,116h18.1v1h-18.1V116z M294.2,123.8
	h18v1h-18V123.8z M294.2,131.6h18v1h-18V131.6z M294.2,139.6h18.1v1h-18.1V139.6z M310.6,116.5l1.4-1.9l2.1,1.4
	c0.2,0.1,0.3,0.2,0.4,0.3c0.1,0.1,0.1,0.2,0.1,0.3c0,0.1,0,0.2-0.1,0.3c-0.1,0.1-0.2,0.2-0.3,0.4l-0.7,0.6v19.4c0,0.5,0,1.4,0.1,2.6
	c0,1.1,0,2.3,0.1,3.7l-2.3,0.6v-27.6h-0.8V116.5z M327.3,130.2c0-1.2,0.8-2.2,1.9-2.2c1.2,0,1.9,0.9,1.9,2.2c0,1.2-0.7,2.1-1.9,2.1
	S327.3,131.3,327.3,130.2z M341.8,140c0.5-0.1,1-0.2,1.5-0.3c0.4-0.1,0.9-0.2,1.5-0.4c1.2-0.3,2.5-0.7,3.8-1.2
	c1.2-0.4,2.4-0.8,3.7-1.3l0.2,0.5c-1.3,0.9-2.8,1.8-4.4,2.6c-1.1,0.6-2.4,1.2-4,1.9c0,0.5,0,0.7,0,0.8c-0.1,0.3-0.2,0.4-0.4,0.4
	c-0.1,0-0.2,0-0.3-0.1c-0.1-0.1-0.2-0.2-0.2-0.4L341.8,140z M342.4,114.7l3.1,1.6h-0.9v24.3h-2.1v-22.3c0-0.7,0-1.3,0-2
	C342.4,115.8,342.4,115.3,342.4,114.7z M343.7,116h9.5v1h-9.5V116z M343.7,122.3h9.5v1h-9.5V122.3z M343.7,129.1h9.5v1h-9.5V129.1z
	 M349.1,132.5c1.7,1.3,3.1,2.6,4.1,3.9c1.2,1.6,1.9,3,1.9,4.3c0,0.4-0.1,0.8-0.4,1.1c-0.2,0.2-0.5,0.3-0.8,0.3
	c-0.4,0-0.6-0.1-0.8-0.4c-0.1-0.2-0.3-0.6-0.4-1.3c-0.3-1.2-0.8-2.5-1.6-3.9c-0.6-1.2-1.4-2.5-2.4-3.8L349.1,132.5z M351.5,116.4
	l1.3-1.7l2.2,1.3c0.1,0.1,0.2,0.2,0.3,0.2c0.1,0.1,0.1,0.2,0.1,0.2c0,0.1,0,0.2-0.1,0.3c-0.1,0.1-0.2,0.2-0.3,0.3l-0.6,0.5v9.4
	c0,0.3,0,0.8,0,1.6c0,0.7,0.1,1.6,0.1,2.6l-2.2,0.5v-15.4h-0.8V116.4z M357.2,114.7l3.1,1.6h-0.9v27.3l-2.2,0.6
	c0-1.3,0.1-2.7,0.1-4.1c0-1.3,0-2.5,0-3.6v-18.3c0-0.6,0-1.3,0-2C357.3,115.7,357.3,115.2,357.2,114.7z M358.5,116.1h8.2v1.1h-8.2
	V116.1z M365.2,116.6l1.4-2l2.1,1.4c0.2,0.1,0.3,0.2,0.3,0.3c0.1,0.1,0.1,0.2,0.1,0.3c0,0.1,0,0.2-0.1,0.4c-0.1,0.1-0.2,0.2-0.3,0.3
	l-0.7,0.5v13.8c0,0.5,0,1.1,0,2c0,0.7,0,1.2,0,1.6c0,1.1-0.3,1.8-0.9,2.2c-0.4,0.3-1.2,0.6-2.4,0.7c0.1-0.9-0.3-1.5-1.2-1.8
	c-0.4-0.2-1-0.3-2-0.5v-0.7h3.4c0.5,0,0.7-0.1,0.9-0.2c0.1-0.1,0.2-0.4,0.2-0.8v-17.7h-0.8V116.6z M379,143.4l-0.3-0.3
	c1.2-1.6,2-3.6,2.4-5.8c0.3-1.5,0.4-3.4,0.4-5.6v-2.2h2v2.6c0,2.7-0.3,4.9-1,6.6C381.7,140.5,380.6,142.1,379,143.4z M378.7,128.9
	h8.8v1h-5.9c-0.4,0-0.8,0-1.2,0.1c-0.4,0-0.7,0.1-1.1,0.2L378.7,128.9z M380.1,114.8l2.7,0.4c0.2,0,0.3,0.1,0.4,0.1
	c0.1,0.1,0.1,0.2,0.1,0.3c0,0.2,0,0.3-0.2,0.4c-0.1,0.1-0.2,0.1-0.3,0.2l-0.7,0.3v6.6h0.9l-1.3,1.6l-1.9-1.1
	c-0.1-0.1-0.2-0.1-0.2-0.1c-0.1-0.1-0.1-0.1-0.1-0.2s0.1-0.2,0.1-0.3c0.1-0.1,0.1-0.2,0.2-0.2c0.1-0.2,0.2-0.5,0.3-0.8
	c0-0.1,0-0.4,0-0.7V118c0-0.6,0-1.2,0-1.7C380.2,115.8,380.2,115.3,380.1,114.8z M381.5,122.6h5.9v1h-5.9V122.6z M386.5,112.9
	l2.9,0.4c0.2,0,0.3,0.1,0.4,0.1c0.1,0.1,0.1,0.2,0.1,0.3c0,0.2-0.1,0.3-0.2,0.4s-0.2,0.2-0.4,0.2l-0.6,0.3v22.5c0,0.9,0,2,0,3.3
	c0,1.1,0,2.1,0,2.9l-2.2,0.5c0-1.2,0-2.4,0-3.5c0-1.2,0-2.3,0-3.1v-20.9c0-0.7,0-1.4,0-1.9C386.6,114,386.5,113.4,386.5,112.9z
	 M389.2,130.5h15l1.4-2l2.5,2.6l-0.2,0.4h-15.8c-0.4,0-0.9,0-1.3,0.1c-0.4,0-0.7,0.1-1.1,0.2L389.2,130.5z M389.7,121.8
	c1.5-1.2,2.9-2.7,4.1-4.3c1.2-1.6,2-3.1,2.5-4.6l2.1,0.8c0.3,0.1,0.4,0.2,0.5,0.2c0.2,0.1,0.2,0.2,0.2,0.4c0,0.3-0.1,0.4-0.4,0.5
	c-0.1,0-0.3,0.1-0.6,0.1c0,0-0.1,0-0.2,0h-0.1c-1.1,1.6-2.4,3.1-3.8,4.3c-1.2,1.1-2.6,2.1-4.1,3L389.7,121.8z M403.3,116.5l1.5-1.8
	l2.1,1.6c0.1,0.1,0.2,0.2,0.3,0.3c0.1,0.1,0.1,0.2,0.1,0.3c0,0.3-0.2,0.5-0.6,0.7c-0.3,0.1-0.6,0.2-0.8,0.3
	c-2.2,3.2-4.7,5.7-7.5,7.5c-2.4,1.6-5.2,2.8-8.5,3.6l-0.2-0.5c2.3-1,4.3-2,6-3.2c1.7-1.1,3.2-2.4,4.6-3.8c0.8-0.8,1.5-1.7,2.2-2.6
	c0.6-0.8,1.1-1.7,1.6-2.6h-0.8V116.5z M391.3,133l0.3-0.4c1.5,0.7,2.6,1.3,3.3,1.9c1.1,0.9,1.6,1.8,1.6,2.8c0,0.4-0.1,0.7-0.3,0.9
	c-0.2,0.2-0.4,0.4-0.7,0.4c-0.3,0-0.6-0.2-0.7-0.5c-0.2-0.3-0.3-0.5-0.4-0.8c-0.4-0.9-0.9-1.7-1.5-2.5
	C392.4,134.2,391.9,133.6,391.3,133z M392,120.2c1.5,0.7,2.5,1.3,3,1.8c1.1,0.8,1.6,1.6,1.6,2.4c0,0.3-0.1,0.6-0.3,0.9
	c-0.2,0.2-0.4,0.3-0.7,0.3c-0.2,0-0.4-0.1-0.6-0.3c-0.1-0.1-0.2-0.3-0.3-0.5c-0.3-0.8-0.8-1.6-1.5-2.4c-0.4-0.6-1-1.2-1.6-1.8
	L392,120.2z M394.5,117.9c1.6,0.5,2.8,1,3.6,1.4c1.3,0.7,2,1.5,2,2.4c0,0.3-0.1,0.6-0.3,0.8c-0.2,0.2-0.4,0.3-0.7,0.3
	c-0.3,0-0.6-0.2-0.9-0.7c-0.2-0.4-0.4-0.6-0.5-0.9c-0.4-0.6-0.9-1.2-1.7-1.8c-0.3-0.3-0.9-0.7-1.7-1.3L394.5,117.9z M404.7,117.2
	H395l0.3-1h9.4L404.7,117.2L404.7,117.2z M396.4,140.7h3.8c0.4,0,0.6,0,0.8-0.1c0.2-0.1,0.2-0.3,0.2-0.7V129c0-0.5,0-1.1,0-1.6
	c0-0.4-0.1-0.9-0.1-1.4l2.8,0.5c0.2,0,0.3,0.1,0.4,0.1c0.1,0.1,0.1,0.2,0.1,0.3c0,0.2-0.1,0.3-0.2,0.4s-0.2,0.1-0.3,0.2l-0.6,0.3
	v9.7c0,0.1,0,0.2,0,0.4c0,0.1,0,0.2,0,0.3c0,2.5-0.1,3.8-0.4,4c-0.4,0.9-1.3,1.4-2.9,1.6c0-0.9-0.5-1.6-1.4-1.9
	c-0.4-0.2-1.2-0.3-2.3-0.4v-0.8H396.4z M426.3,114.6l2.6,1.3c0.2,0.1,0.4,0.2,0.5,0.3c0.1,0.1,0.1,0.2,0.1,0.3
	c0,0.2-0.1,0.4-0.3,0.5c-0.2,0.1-0.6,0.1-1.1,0.1c-1.6,3.4-3.4,6.2-5.2,8.5c-1.6,1.9-3.4,3.6-5.3,4.9l-0.3-0.4
	c2.1-2.2,4.1-4.9,5.8-8C424.6,119.5,425.7,116.9,426.3,114.6z M420.2,140.1c1.6,0,3.2,0,4.9-0.1c1.2-0.1,2.6-0.2,4.1-0.3
	c2-0.2,3.9-0.3,5.9-0.5c1.7-0.2,3.4-0.4,5.1-0.6l0.2,0.6c-1.5,0.4-3.1,0.8-5,1.2c-1,0.2-2.5,0.5-4.4,0.8c-1.8,0.3-3.4,0.5-4.6,0.7
	c-1.5,0.2-2.9,0.4-4.3,0.6c-0.1,0.5-0.2,0.8-0.3,1c-0.1,0.1-0.2,0.2-0.4,0.2c-0.1,0-0.2,0-0.3-0.1c-0.1-0.1-0.1-0.2-0.2-0.4
	L420.2,140.1z M429.7,124.5l2.6,1.2c0.4,0.2,0.6,0.3,0.7,0.4s0.1,0.2,0.1,0.4c0,0.3-0.2,0.5-0.7,0.6c0,0-0.4,0-0.9,0.1
	c-1.4,2.8-3.1,5.4-5,7.8c-1.7,2.1-3.5,4.1-5.4,5.7l-0.5-0.4c1.4-1.8,2.8-3.7,4-5.6c1.1-1.7,2.1-3.5,3-5.3c0.6-1.2,1.1-2.1,1.4-2.9
	C429.3,125.7,429.5,125.1,429.7,124.5z M433.3,113.7l2.6,0.4c0.2,0,0.4,0.1,0.5,0.2s0.1,0.2,0.1,0.3c0,0.2-0.1,0.4-0.4,0.5
	c-0.2,0.1-0.5,0.3-1,0.5c1.4,3,3.1,5.4,5,7.2c1.7,1.6,3.9,3,6.7,4.4l-0.1,0.5c-0.8,0.1-1.4,0.3-1.8,0.5c-0.3,0.2-0.6,0.7-0.9,1.3
	c-1.3-0.9-2.4-1.7-3.2-2.6c-0.8-0.8-1.5-1.7-2.3-2.7c-0.7-1-1.3-2-2-3.1c-0.5-1-1.1-2.1-1.6-3.3c-0.3-0.6-0.5-1.2-0.7-1.8
	C433.9,115.5,433.7,114.7,433.3,113.7z M435.3,132.2c1.5,1.1,2.8,2.1,3.9,3c0.9,0.9,1.7,1.7,2.4,2.7c0.6,0.8,1.1,1.5,1.4,2.2
	c0.3,0.6,0.4,1.2,0.4,1.7s-0.1,0.9-0.4,1.2c-0.2,0.3-0.5,0.4-0.9,0.4c-0.3,0-0.5-0.1-0.7-0.3c-0.1-0.2-0.3-0.4-0.5-0.8
	c-0.8-2-1.7-3.8-2.8-5.5c-0.9-1.5-2-2.9-3.2-4.3L435.3,132.2z M457.7,113.2l3,1.6h-0.8v28.5l-2.2,0.6c0-1,0.1-2.1,0.1-3.3
	c0-1.1,0-2.1,0-2.8v-20.9c0-0.6,0-1.3,0-2C457.8,114.4,457.8,113.8,457.7,113.2z M458.9,118.5h8v1h-8V118.5z M459,114.6h8v1h-8
	V114.6z M459,122.6h8v1h-8V122.6z M461.9,133.7l-0.6-1.3h14.4l1.5-2l2.7,2.6l-0.2,0.4h-15.5c-0.4,0-0.8,0-1.2,0.1
	C462.6,133.6,462.2,133.6,461.9,133.7z M461.9,141.2c1-1,1.8-1.9,2.4-2.8c0.7-1,1.1-2,1.4-2.9c0.2-0.9,0.4-1.9,0.4-3.1
	c0-0.5,0-1.5,0-2.8v-2.3h2v2.3c0,3.3-0.4,5.7-1.3,7.4s-2.4,3.2-4.6,4.7L461.9,141.2z M462.4,126.7h12l1.5-1.6l2.7,2.2l-0.2,0.4h-13
	c-0.4,0-0.9,0-1.3,0.1s-0.7,0.1-1.1,0.2L462.4,126.7z M465.7,114.9l1.2-1.7l2.1,1.4c0.1,0.1,0.2,0.2,0.3,0.2
	c0.1,0.1,0.1,0.2,0.1,0.3c0,0.1,0,0.2-0.1,0.3c0,0.1-0.1,0.1-0.2,0.2l-0.8,0.7v5.3c0,0.5,0,1,0,1.6c0,0.2,0,0.7,0.1,1.4l-2.1,0.6
	v-10.3H465.7z M472.1,113.2l3,1.7h-0.8v9.8l-2.1,0.6c0-0.6,0.1-1.3,0.1-1.9s0-1.2,0-1.7V117c0-0.6,0-1.3,0-2
	C472.1,114.4,472.1,113.8,472.1,113.2z M474.4,140.6l-2.2,0.5c0,0,0.1-0.7,0.1-13.9h2C474.3,139.4,474.4,140.6,474.4,140.6z
	 M473.1,118.5h8.3v1h-8.3V118.5z M473.2,114.6h8.3v1h-8.3V114.6z M473.2,122.6h8.2v1h-8.2V122.6z M479.7,140.7
	c0.7,0,0.9-0.2,0.9-0.9v-25H480l1.2-1.7l2.2,1.4c0.1,0.1,0.2,0.1,0.3,0.2c0.1,0.1,0.1,0.2,0.1,0.3c0,0.1,0,0.2-0.1,0.3
	c-0.1,0.1-0.1,0.2-0.2,0.2l-0.8,0.7v24.5c0,1.9-1.2,2.4-3.2,2.8c0-1.6-1.4-1.9-3.4-2.1v-0.7H479.7z M659.2,76.4H0V0h659.2V76.4z
	 M0.2,76.2H659V0.2H0.2V76.2z"/>
</svg>
