<?xml version="1.0" encoding="utf-8"?>
<!-- Generator: Adobe Illustrator 26.5.0, SVG Export Plug-In . SVG Version: 6.00 Build 0)  -->
<svg version="1.1" id="圖層_1" xmlns="http://www.w3.org/2000/svg" xmlns:xlink="http://www.w3.org/1999/xlink" x="0px" y="0px"
	 viewBox="0 0 180 65" style="enable-background:new 0 0 180 65;" xml:space="preserve">
<style type="text/css">
	.st0{fill:none;stroke:#FFFFFF;stroke-width:0.5;stroke-miterlimit:10;}
	.st1{fill:#FFFFFF;}
</style>
<path class="st0" d="M14.5,63.6H1.7V46.5h12.8 M166.6,63.6h12.8V46.5h-12.8 M110.2,5.4h10.9 M157,5.4h10.9 M133.6,5.4h10.9"/>
<path class="st1" d="M31.4,61.5v2.1H18.8c0-0.5,0.1-1,0.3-1.5c0.3-0.8,0.8-1.6,1.5-2.4c0.7-0.8,1.7-1.7,3.1-2.7
	c2.1-1.6,3.5-2.9,4.2-3.8s1.1-1.8,1.1-2.7c0-0.9-0.3-1.6-1-2.2c-0.7-0.6-1.5-0.9-2.6-0.9c-1.1,0-2,0.3-2.7,1c-0.7,0.6-1,1.5-1,2.7
	l-2.4-0.2c0.2-1.7,0.8-3,1.9-3.9c1.1-0.9,2.5-1.3,4.3-1.3c1.8,0,3.3,0.5,4.3,1.4c1.1,1,1.6,2.1,1.6,3.6c0,0.7-0.2,1.4-0.5,2.1
	c-0.3,0.7-0.8,1.4-1.6,2.2c-0.7,0.8-1.9,1.8-3.6,3.2c-1.4,1.1-2.3,1.9-2.7,2.3c-0.4,0.4-0.7,0.8-1,1.2H31.4z M33,57v-2.2h7.2V57H33z
	 M42.1,58.9l2.3-0.3c0.3,1.3,0.7,2.2,1.4,2.7c0.6,0.6,1.4,0.8,2.4,0.8c1.1,0,2-0.4,2.8-1.1c0.8-0.7,1.1-1.6,1.1-2.7
	c0-1-0.4-1.9-1.1-2.5c-0.7-0.7-1.6-1-2.7-1c-0.4,0-1,0.1-1.7,0.2l0.3-1.9c0.2,0,0.3,0,0.4,0c1,0,1.9-0.2,2.7-0.7
	c0.8-0.5,1.2-1.2,1.2-2.3c0-0.8-0.3-1.5-0.9-2c-0.6-0.5-1.3-0.8-2.3-0.8c-0.9,0-1.7,0.3-2.3,0.8c-0.6,0.5-1,1.4-1.2,2.4l-2.3-0.4
	c0.3-1.5,0.9-2.6,2-3.4c1-0.8,2.3-1.2,3.8-1.2c1,0,2,0.2,2.9,0.6c0.9,0.4,1.5,1,2,1.7c0.5,0.7,0.7,1.5,0.7,2.3
	c0,0.8-0.2,1.5-0.7,2.1c-0.4,0.6-1.1,1.1-2,1.5c1.1,0.2,2,0.8,2.6,1.5c0.6,0.8,0.9,1.7,0.9,2.9c0,1.6-0.6,2.9-1.8,4
	c-1.2,1.1-2.8,1.6-4.6,1.6c-1.7,0-3.1-0.5-4.2-1.4C42.9,61.6,42.3,60.4,42.1,58.9z M65.5,57.2c-0.1,0.5-0.1,0.9-0.2,1.3h6.8
	c0,0,0,0.5,0,0.7c-0.3,2.6-0.5,3.7-1.1,4.2c-0.4,0.3-0.8,0.5-1.4,0.5c-0.6,0.1-1.5,0-2.6,0c0-0.5-0.2-1.1-0.5-1.5
	c1,0.1,1.9,0.1,2.3,0.1c0.3,0,0.5,0,0.7-0.2c0.3-0.3,0.5-0.9,0.7-2.4h-5.3c-0.8,1.8-2.3,3.1-5.3,4c-0.2-0.4-0.7-1.1-1-1.4
	c3.8-1,4.8-2.8,5.2-5.3h-4c-0.3,2.4-1,5-2.6,6.8c-0.3-0.4-1-1.1-1.4-1.3c2.1-2.6,2.3-6.3,2.3-9.1v-6.1h0c4.6-0.3,9.9-0.8,13-1.4
	l1.4,1.4c-3.4,0.7-8.2,1.2-12.6,1.4v0.9h13v4.4h-13c0,0.5,0,1-0.1,1.6h5.9c-0.2-0.4-0.4-0.9-0.7-1.2l1.8-0.4
	c0.4,0.5,0.7,1.1,0.9,1.6h6.4v1.4H65.5z M59.8,51.1v1.6h11.1v-1.6H59.8z M86.4,57.1c1,1.6,2.3,3.7,2.8,5l-1.7,0.9
	c-0.2-0.5-0.5-1.1-0.8-1.8c-5,1.6-5.7,1.9-6.2,2.2c-0.1-0.5-0.4-1.4-0.8-1.8c0.4-0.2,0.9-0.6,0.9-1.3V47.1h8.1v9.3h-6.2v4.3l3.3-1
	c-0.4-0.6-0.7-1.3-1.1-1.8L86.4,57.1z M82.5,48.7v2.2h4.3v-2.2H82.5z M86.7,54.7v-2.3h-4.3v2.3H86.7z M97.1,58.2
	c0,0.9-0.2,1.4-0.8,1.7c-0.6,0.3-1.5,0.3-2.9,0.3c-0.1-0.5-0.3-1.2-0.5-1.7c0.9,0,1.8,0,2,0c0.3,0,0.4-0.1,0.4-0.3v-9.4h-3.1v15
	h-1.9V47.2h6.9V58.2z M111.3,51.6c-1.9,3.5-5,6.3-8.5,8.1c-0.2-0.4-0.8-1.1-1.2-1.5c2-0.9,3.9-2.2,5.4-3.7c-3.5,0.2-4.2,0.3-4.6,0.5
	c-0.1-0.3-0.4-1.2-0.6-1.6c0.4-0.1,0.8-0.4,1.2-0.8c0.3-0.3,1.2-1.3,2.1-2.4h-3.7v-1.6h5c-0.2-0.6-0.6-1.4-1-2l1.8-0.4
	c0.5,0.7,1.1,1.7,1.3,2.4h4.1V50h-5.3c-0.8,1.1-1.7,2.1-2.7,3l3.7-0.2c0.4-0.6,0.8-1.2,1.2-1.8L111.3,51.6z M112.6,55.3
	c-0.8,1.4-1.8,2.6-3,3.7c1.2,0.9,2.5,2.1,3.3,2.9l-1.4,1.2c-0.7-0.8-2-1.9-3.1-2.9c-1.8,1.5-3.8,2.7-5.8,3.7
	c-0.2-0.4-0.8-1.2-1.2-1.5c3.9-1.6,7.4-4.3,9.4-7.6L112.6,55.3z M115.6,59h-1.8V48.2h1.8V59z M119.2,46.3v15.4
	c0,1.1-0.3,1.6-0.9,1.8c-0.7,0.3-1.8,0.3-3.5,0.3c-0.1-0.5-0.4-1.2-0.6-1.7c1.2,0,2.3,0,2.7,0c0.3,0,0.5-0.1,0.5-0.5V46.3H119.2z
	 M128.9,57.3c0.3-0.7,0.6-1.6,0.9-2.6H128v7.2c0,0.9-0.2,1.4-0.8,1.7c-0.6,0.3-1.6,0.3-3,0.3c-0.1-0.5-0.3-1.2-0.6-1.7
	c1,0,1.9,0,2.2,0c0.3,0,0.3-0.1,0.3-0.3v-7.1H123v-1.6h4.8c-1.1-0.9-2.6-1.8-3.9-2.4l1-1.2c0.6,0.3,1.3,0.7,2,1
	c0.6-0.6,1.2-1.3,1.7-2h-5.1v-1.6h6.3l0.3-0.1l1.2,0.8c-0.8,1.3-2,2.7-3.1,3.7c0.6,0.4,1.1,0.8,1.4,1.1l-0.5,0.6h1.2l0.3-0.1
	l1.2,0.3c-0.5,1.5-1.1,3.3-1.6,4.4L128.9,57.3z M135.7,61.3c-1.1,1-3,2.1-4.6,2.6c-0.3-0.3-0.9-0.9-1.3-1.2c1.6-0.5,3.4-1.6,4.3-2.4
	L135.7,61.3z M135.1,50c0.1-0.5,0.2-1.1,0.3-1.6h-4.1v-1.5h10.3v1.5h-4.1c-0.2,0.6-0.4,1.1-0.5,1.6h4v10.1h-8.9V50H135.1z
	 M139.2,51.4h-5.3V53h5.3V51.4z M139.2,54.2h-5.3v1.6h5.3V54.2z M139.2,57.1h-5.3v1.6h5.3V57.1z M138.6,60.4
	c1.2,0.7,2.7,1.7,3.5,2.4l-1.5,1c-0.7-0.7-2.2-1.8-3.5-2.6L138.6,60.4z M148,58.9c-0.3,1.7-0.9,3.5-1.3,4.6
	c-0.4-0.2-1.2-0.4-1.6-0.5c0.6-1.2,1-2.9,1.3-4.4L148,58.9z M152.1,57.7c-0.1-0.3-0.1-0.6-0.2-1c-5,0.8-5.7,0.9-6.2,1.1
	c-0.1-0.3-0.4-1.2-0.6-1.7c0.5-0.1,1-0.5,1.7-1.2c0.3-0.3,1-1,1.8-2c-2.2,0.3-2.7,0.3-3,0.5c-0.1-0.3-0.4-1.2-0.6-1.6
	c0.4-0.1,0.8-0.4,1.3-1c0.5-0.6,2.1-2.7,3-4.8l1.7,0.7c-1,1.7-2.2,3.4-3.4,4.8l2.2-0.2c0.6-0.8,1.1-1.6,1.6-2.4l1.6,1
	c-1.4,2-3.1,4-4.7,5.7l3.1-0.4c-0.2-0.6-0.4-1.1-0.6-1.6l1.5-0.4c0.5,1.3,1.1,3,1.3,4L152.1,57.7z M150.3,58.4
	c0.3,1.4,0.6,3.1,0.7,4.2l-1.6,0.4c-0.1-1.2-0.3-2.9-0.6-4.3L150.3,58.4z M152.6,58c0.5,1.1,1.1,2.6,1.3,3.6l-1.5,0.5
	c-0.2-1-0.8-2.5-1.2-3.7L152.6,58z M163.1,49.6c0,0,0,0.7,0,0.9c-0.2,8.5-0.5,11.4-1.3,12.3c-0.5,0.6-1,0.8-1.8,0.9
	c-0.7,0.1-1.9,0.1-3.1,0c0-0.5-0.3-1.3-0.6-1.8c1.2,0.1,2.4,0.1,2.9,0.1c0.4,0,0.6-0.1,0.8-0.3c0.6-0.6,0.9-3.4,1.1-10.5h-5.4
	c-0.5,1-1,2-1.6,2.7c-0.4-0.3-1.2-0.8-1.7-1c1.4-1.6,2.5-4.3,3.1-6.9l1.9,0.3c-0.3,1.1-0.6,2.1-1,3.1H163.1z M158.3,58.8
	c-0.6-1.2-2.1-3-3.5-4.2l1.3-0.9c1.4,1.2,2.9,2.9,3.6,4.1L158.3,58.8z M6.5,9.5H4.8L2.1,1.2h1.7l2.3,7.1h0l2.7-7.1h0.8L6.5,9.5z
	 M21.1,9.5V1.2h1.6v8.3H21.1z M39.8,9.1c-0.7,0.4-1.8,0.5-2.6,0.4c-0.8-0.1-1.6-0.3-2.2-0.9c-0.6-0.5-0.8-1.3-0.7-2.1h1.6
	c0,0.6,0,1.2,0.4,1.6c0.3,0.4,0.8,0.6,1.3,0.6c0.5,0,1-0.1,1.3-0.4c0.3-0.2,0.5-0.5,0.5-0.9c0-0.3-0.1-0.7-0.4-0.9
	c-0.3-0.2-1.2-0.5-2-0.8c-0.6-0.2-1.3-0.5-1.9-0.9c-0.6-0.4-0.8-1.1-0.7-1.9c0.1-0.7,0.5-1.3,1.1-1.6c0.6-0.4,1.5-0.5,2.2-0.4
	c0.7,0,1.4,0.3,1.9,0.8c0.5,0.5,0.7,1.1,0.8,1.8h-1.6c0-0.5,0-0.9-0.2-1.2c-0.2-0.3-0.5-0.5-0.9-0.6c-0.4-0.1-0.9,0-1.3,0.3
	C36.2,2.4,36,2.7,36,3c0,0.3,0.1,0.6,0.4,0.8c0.5,0.3,1,0.5,1.7,0.7c0.7,0.2,1.5,0.6,2,1c0.6,0.4,0.8,1.1,0.8,1.9
	C40.9,8.1,40.5,8.8,39.8,9.1z M52.5,9.5V1.2h1.6v8.3H52.5z M72.9,5.4c0,0.7-0.1,1.4-0.3,2c-0.4,1-1.1,1.8-2.2,2.1
	c-0.8,0.2-1.9,0.2-2.7-0.2c-0.8-0.4-1.4-1.2-1.7-2.1c-0.2-0.5-0.3-1.1-0.3-1.8c0-0.7,0.1-1.3,0.3-1.9c0.3-0.8,0.9-1.6,1.8-2
	c0.9-0.4,2-0.5,2.9-0.1c1,0.4,1.6,1.2,1.9,2.2C72.8,4.2,72.9,4.8,72.9,5.4z M71,3c-0.2-0.7-0.9-1-1.6-1c-0.7,0-1.4,0.4-1.6,1.1
	c-0.5,1.4-0.7,3.3,0,4.7c0.4,0.9,1.1,1.3,1.8,1.2c0.7-0.1,1.3-0.6,1.5-1.5C71.5,6,71.5,4.2,71,3z M89.2,9.5L85,2.4v7.1h-0.7V1.2h1.8
	l4,6.9V1.2h0.7v8.3H89.2z M102.3,2.1c0.3-0.4,0.5-0.8,0.6-1.2h1.9c-0.7,0.8-1.1,1.1-2.1,1.4h4.3l0.4-0.5l1.4,0.3l-0.4,0.5v6.1
	c0,0.2,0,0.4-0.2,0.5c-0.2,0.2-1.3,0.3-1.6,0.3c0,0-0.2,0-0.2,0c0,0-0.1-0.1-0.1-0.2c-0.1-0.5-0.5-0.6-1-0.7l0-0.1
	c0.4,0,0.7,0,1.1,0c0.2,0,0.5,0.1,0.5-0.3V2.9h-4.7v6.6H101V1.9h1.3V2.1z M104.2,4h0.9l0.3-0.4l1.3,0.3l-0.4,0.4V8h-1.2V7.6h-0.9V8
	H103V3.6h1.2V4z M105.1,7V4.6h-0.9V7H105.1z M127.5,4.2c-0.2-0.2-0.2-0.3-0.5-0.5l0-0.1c0.2,0,0.5,0,0.7,0c0.2,0,0.8,0,0.9,0.1
	c0.1,0.1,0.1,0.2,0.1,0.2c0,0.1,0,0.1-0.1,0.2h3.3v0.6h-8.1V4.2H127.5z M126.6,7.6c-0.1,0.2-0.3,0.4-0.4,0.5
	c-0.5,0.5-1.5,0.9-2.1,1.1L124,9.2c0.6-0.6,0.8-0.9,1.2-1.7L126.6,7.6z M126.2,1.2h3.7l0.4-0.4l1.4,0.3l-0.4,0.4v2.5h-1.4V3.6h-3.7
	v0.3h-1.3v-3h1.3V1.2z M126.5,5.3h3.3l0.3-0.3l1.4,0.2l-0.4,0.3v1.7h-1.4V7h-3.3v0.2h-1.4V5.1h1.4V5.3z M126.1,8.5c0.3,0,0.7,0,1,0
	c0.2,0,0.3,0,0.3-0.2V7.2h1.4v1.7c0,0.1,0,0.2-0.1,0.3c-0.2,0.3-1.1,0.3-1.5,0.3c-0.5,0-0.2-0.3-0.5-0.6c-0.1-0.1-0.5-0.2-0.7-0.2
	L126.1,8.5z M126.2,2.1h3.7V1.7h-3.7V2.1z M129.8,2.7h-3.7V3h3.7V2.7z M129.8,6.4V5.9h-3.3v0.5H129.8z M129.6,7.5
	c0.5,0.1,1.7,0.3,2.1,0.7c0.1,0.1,0.2,0.3,0.2,0.5c0,0.4-0.3,0.6-0.6,0.6c-0.4,0-0.6-0.2-0.8-0.6c-0.1-0.2-0.2-0.4-0.4-0.6
	C130,7.9,129.8,7.7,129.6,7.5L129.6,7.5z M155.1,1.2v0.6h-3.3c-0.2,0.6-0.6,1-1.1,1.4h2.6l0.3-0.4l1.4,0.3l-0.3,0.4v4.7
	c0,0.9-0.2,1-1,1.2c-0.2,0-0.4,0.1-0.6,0.1c-0.4,0-0.1-0.3-0.4-0.5c-0.2-0.2-0.6-0.3-0.9-0.4V8.4c0.4,0,0.7,0,1.1,0
	c0.3,0,0.5,0,0.5-0.4V3.8h-0.8V8h-1.2V3.8h-0.8V8h-1.2V3.8h-0.7v5.5h-1.3V2.9h1.3v0.3h1.2c0.1-0.6,0.1-0.8,0.1-1.4h-3.1V1.2H155.1z
	 M174,5.9h-2.8V5.2h2.8V3.2h-2.1c-0.4,0.7-0.9,1-1.5,1.5l-0.1,0c0.2-0.5,0.4-1,0.4-1.5c0.1-0.6,0.2-1.1,0.2-1.7h1.6
	c-0.1,0.4-0.2,0.7-0.3,1.1h1.8V0.8h1.5v1.7h2.7v0.6h-2.7v2.1h2.2v0.6h-2.2v2.7h2.9v0.6h-7.8V8.6h3.5V5.9z M4,29.8
	c-0.4-0.4-1.4-1-2.1-1.4l0.7-0.8c0.7,0.3,1.7,0.9,2.1,1.3L4,29.8z M2.3,34.9c0.5-1.1,1.2-2.8,1.8-4.3L5,31.3c-0.5,1.4-1.1,3-1.7,4.3
	L2.3,34.9z M4.8,26.1c-0.5-0.4-1.5-1.1-2.2-1.4l0.7-0.9C4,24.1,5,24.7,5.5,25.1L4.8,26.1z M7.2,26.1c-0.4,0.8-0.9,1.6-1.3,2.2
	c-0.2-0.2-0.8-0.5-1-0.7c0.9-1,1.7-2.5,2.1-4l1.2,0.3C8,24.3,7.9,24.7,7.7,25h5.7v1.1H7.2z M12.7,31c0,0.7-0.1,1.3-0.1,1.8h0.8v1.1
	h-1c-0.1,0.7-0.2,1.1-0.4,1.3c-0.3,0.4-0.6,0.5-1,0.5c-0.4,0.1-1,0-1.6,0c0-0.3-0.1-0.7-0.3-1c0.6,0.1,1.2,0.1,1.4,0.1
	c0.2,0,0.3,0,0.5-0.2c0.1-0.1,0.2-0.3,0.2-0.7H5.8c0.1-0.8,0.3-1.8,0.5-2.8H5.1v-1.1h1.3C6.5,29,6.6,28,6.7,27.2h6.2
	c0,0,0,0.4,0,0.5c0,0.8-0.1,1.5-0.1,2.1h1V31H12.7z M7.3,31c-0.1,0.6-0.2,1.2-0.3,1.8h2.5c-0.3-0.4-0.9-1-1.3-1.4L8.8,31H7.3z
	 M7.7,28.3c0,0.5-0.1,1.1-0.2,1.6h2.3C9.5,29.5,9,29,8.6,28.6L9,28.3H7.7z M11.5,32.8c0.1-0.5,0.1-1.1,0.1-1.8H9
	c0.5,0.4,1.1,1,1.4,1.4l-0.5,0.4H11.5z M9.3,28.3c0.5,0.4,1,0.9,1.2,1.3l-0.5,0.3h1.6c0-0.5,0.1-1,0.1-1.6H9.3z M19.3,29.7
	c-0.5-0.4-1.6-1-2.4-1.4l0.6-0.9c0.7,0.4,1.8,0.9,2.4,1.3L19.3,29.7z M17.3,34.8c0.7-1,1.7-2.7,2.4-4.2l0.9,0.8
	c-0.7,1.4-1.5,3-2.3,4.2L17.3,34.8z M28.9,25.6h-1v8.5c0,0.8-0.2,1.2-0.7,1.4c-0.6,0.2-1.5,0.2-2.9,0.2c-0.1-0.4-0.3-1-0.5-1.3
	c1.1,0.1,2.2,0.1,2.5,0c0.3,0,0.4-0.1,0.4-0.4v-8.5h-6.2v-0.4l-0.7,0.9c-0.5-0.4-1.6-1-2.4-1.5l0.7-0.9c0.7,0.4,1.8,1,2.4,1.4v-0.8
	h8.3V25.6z M22.4,32.1V33h-1.1v-5.7h4.1v4.8H22.4z M22.4,28.4V31h1.9v-2.6H22.4z M36.3,33.7c0.8,0.5,1.9,0.6,3.3,0.6
	s3.3-0.1,4.6-0.3c-0.1,0.3-0.3,1-0.3,1.3c-0.9,0.1-3,0.1-4.3,0.1c-1.6,0-2.6-0.2-3.5-0.7c-0.5-0.3-0.9-0.8-1.2-0.8
	c-0.4,0-1,0.8-1.6,1.7l-0.9-1.2c0.9-1,1.8-1.7,2.5-1.7c0.1,0,0.1,0,0.1,0c2.2-1.3,4.6-3.6,6-5.5h-8v-1.2h5.2
	c-0.3-0.6-0.8-1.4-1.3-2.1l1.1-0.6c0.5,0.7,1.1,1.6,1.4,2.2l-0.9,0.5h3.3l0.2-0.1l0.9,0.6c-1.6,2.5-4.4,5.1-7,6.9L36.3,33.7z
	 M49.3,28.8v7.1h-1.2V24.1h4.8v4.6H49.3z M49.3,25.1V26h2.4v-0.9H49.3z M51.7,27.8v-1h-2.4v1H51.7z M58.8,34.3
	c0,0.7-0.1,1.1-0.6,1.3c-0.5,0.2-1.2,0.2-2.2,0.2c-0.1-0.3-0.2-0.9-0.4-1.2H52v0.7H51v-5.6h4.8v4.9c0.6,0,1.3,0,1.5,0
	c0.2,0,0.3-0.1,0.3-0.3v-5.5h-3.7v-4.7h4.9V34.3z M52,30.6v1h2.6v-1H52z M54.7,33.7v-1.1H52v1.1H54.7z M55,25.1V26h2.5v-0.9H55z
	 M57.5,27.9v-1H55v1H57.5z M71.5,23.8h1.2v12h-1.2v-3.5c-2.2,0.8-2.6,1-2.9,1.2c-0.1-0.3-0.3-0.9-0.5-1.1c0.2-0.1,0.5-0.4,0.5-0.9
	v-6.4h1.2v6.6l1.7-0.6V23.8z M78.8,27.3c-0.3,2-0.9,3.7-1.7,5.1c0.7,1,1.6,1.8,2.6,2.4c-0.3,0.2-0.6,0.7-0.8,1
	c-1-0.6-1.8-1.4-2.5-2.3c-0.7,1-1.6,1.8-2.8,2.4c-0.1-0.3-0.5-0.8-0.8-1c1.2-0.6,2.2-1.4,2.9-2.4c-0.6-1-1-2.1-1.4-3.4
	c-0.2,0.5-0.5,1-0.9,1.3c-0.2-0.3-0.6-0.8-0.9-1.1c1.1-1.3,1.7-3.4,2.1-5.7l1.2,0.2c-0.1,0.8-0.3,1.6-0.5,2.3h4.2v1.2H78.8z
	 M75,27.6c0.3,1.3,0.8,2.6,1.4,3.7c0.6-1.1,0.9-2.4,1.2-4h-2.5L75,27.6z M94.3,28.7c-0.3,1.6-0.8,3.1-1.5,4.3c0.3,1.1,0.7,1.7,1,1.7
	c0.2,0,0.3-0.4,0.4-1.6c0.2,0.2,0.6,0.4,0.8,0.5c-0.2,1.9-0.5,2.2-1.3,2.2c-0.6,0-1.2-0.6-1.6-1.7c-0.5,0.7-1,1.2-1.6,1.7
	c-0.2-0.2-0.6-0.6-0.9-0.8c0.3-0.2,0.6-0.5,0.9-0.7H87v-5.8h3.8v0.8h-1.2v0.8h1.2v2.5h-1.2v0.8h1.3V34c0.3-0.4,0.6-0.8,0.8-1.2
	c-0.3-1.3-0.5-2.9-0.6-4.9h-4.7v2.7c0,1.6-0.1,3.8-0.9,5.3c-0.2-0.2-0.7-0.4-0.9-0.5c0.5-0.9,0.7-2.2,0.7-3.3h-0.8v0.5
	c0,0.9-0.1,2.4-0.9,3.3c-0.2-0.2-0.5-0.4-0.7-0.5c0.7-0.8,0.8-2,0.8-2.8V32h-0.7v-1h2.3v-0.5v-0.5h-1.8v-3.1h0.9v2.1h0.9v-2.2h5.6
	l0-0.6h-0.2v-0.7h-1.6v-1h1.6v-0.9h1.2v0.9h2.6v1h-2.6V26h0c0,0.3,0,0.5,0,0.8h1.3c-0.3-0.3-0.6-0.5-0.9-0.7l0.7-0.6
	c0.4,0.3,1,0.7,1.2,1l-0.3,0.3h0.7v1.1h-2.7c0.1,1.3,0.2,2.4,0.3,3.4c0.3-0.8,0.6-1.7,0.7-2.7L94.3,28.7z M85.9,25.5h-2.6v-1h2.6
	v-0.9h1.2v0.9h1.6v1h-1.6v0.8h-1.2V25.5z M87.9,29.4v0.8h0.9v-0.8H87.9z M89.9,30.9h-2v1h2V30.9z M87.9,33.5h0.9v-0.8h-0.9V33.5z
	 M107.1,29.5c0.8,0.9,2,1.6,3.1,2c-0.3,0.2-0.6,0.7-0.8,1c-1.5-0.6-2.8-1.7-3.7-3h-3.2c-0.9,1.2-2,2.3-3.4,3.1
	c-0.2-0.3-0.6-0.7-0.9-0.8c1.1-0.6,2.1-1.4,2.8-2.3h-2.6v-1h3.4c0.2-0.3,0.4-0.6,0.5-0.9h-2.6v-1h3c0.1-0.3,0.2-0.6,0.3-0.9h-3.9v-1
	h4.2c0.1-0.4,0.1-0.8,0.2-1.2l1.3,0.1c-0.1,0.4-0.1,0.7-0.2,1.1h4.7v1h-5c-0.1,0.3-0.2,0.6-0.3,0.9h4.8v1h-5.2
	c-0.1,0.3-0.3,0.6-0.5,0.9h6.8v1H107.1z M107.6,31.7c-0.4,0.4-0.8,0.8-1.2,1.2c1,0.5,1.9,1,2.5,1.4l-0.7,0.9
	c-0.8-0.5-2.2-1.3-3.5-1.9v1.2c0,0.6-0.1,0.8-0.5,1c-0.4,0.1-1,0.2-1.8,0.2c-0.1-0.3-0.2-0.7-0.4-1c0.6,0,1.2,0,1.3,0
	c0.2,0,0.2-0.1,0.2-0.2v-0.9c-1.4,0.6-2.8,1.1-3.9,1.5l-0.5-1c0.7-0.2,1.8-0.6,2.8-1c-0.3-0.4-0.9-0.9-1.3-1.3l0.8-0.6
	c0.5,0.4,1.1,0.9,1.4,1.3l-0.8,0.7c0.5-0.2,1-0.4,1.6-0.6V30h1.2v2.2c0.2,0.1,0.4,0.2,0.6,0.3c0.4-0.5,0.9-1,1.1-1.4L107.6,31.7z
	 M122.3,30.3c-0.2,0.3-0.3,0.5-0.4,0.7h3.1v0.9h-8c0,0.3-0.1,0.5-0.1,0.8l2.4,0c0,0,0,0.3,0,0.4c-0.1,1.4-0.3,2-0.5,2.3
	c-0.2,0.2-0.4,0.3-0.7,0.3c-0.3,0-0.8,0-1.3,0c0-0.3-0.1-0.7-0.3-0.9c0.5,0.1,0.9,0.1,1.1,0.1c0.2,0,0.3,0,0.4-0.1
	c0.1-0.1,0.2-0.5,0.3-1.1h-1.5c-0.4,1-1.1,1.8-2.6,2.2c-0.1-0.3-0.4-0.6-0.6-0.8c1.1-0.3,1.7-0.8,2.1-1.4H114v-0.9h1.8
	c0.1-0.2,0.1-0.5,0.1-0.8h-2.1V31h3.2c-0.1-0.2-0.3-0.5-0.4-0.7l0.7-0.1h-2.2v-2.5h8.6v2.5h-2.2L122.3,30.3z M125,24.4v0.9H120v0.7
	h4.2v0.9h-9.4v-0.9h4v-0.7h-4.9v-0.9h4.9v-0.8h1.2v0.8H125z M116.2,29.3h6.3v-0.9h-6.3V29.3z M117.8,30.1c0.2,0.2,0.4,0.6,0.5,0.8
	L118,31h2.7c0.1-0.3,0.3-0.6,0.4-0.9H117.8z M120,32.5h4.5v3.3h-1.1v-0.3H121v0.4H120V32.5z M121,33.3v1.2h2.3v-1.2H121z
	 M135.2,23.7h2l4.1,7.1l1.3,2.6h0.1c-0.1-1.2-0.3-2.7-0.3-4v-5.6h1.9v12h-2l-4.1-7.1l-1.3-2.5h-0.1c0.1,1.2,0.3,2.6,0.3,3.9v5.7
	h-1.9V23.7z M149.8,29.7c0-4.2,1.6-6.2,4-6.2c2.4,0,4,2,4,6.2c0,4.2-1.6,6.3-4,6.3C151.4,36,149.8,33.9,149.8,29.7z M156,29.7
	c0-3.5-0.9-4.7-2.2-4.7s-2.2,1.3-2.2,4.7c0,3.5,0.9,4.8,2.2,4.8S156,33.2,156,29.7z M162.9,34.7c0-0.8,0.6-1.3,1.3-1.3
	c0.7,0,1.3,0.6,1.3,1.3s-0.6,1.3-1.3,1.3C163.5,36,162.9,35.4,162.9,34.7z M170.6,32.8c0-1.6,1.1-2.6,2.2-3.2v-0.1
	c-0.9-0.6-1.7-1.5-1.7-2.8c0-1.9,1.5-3.1,3.6-3.1c2.2,0,3.5,1.3,3.5,3.2c0,1.2-0.9,2.3-1.6,2.8v0.1c1.1,0.6,2.1,1.6,2.1,3.2
	c0,1.8-1.6,3.2-4,3.2C172.3,36,170.6,34.6,170.6,32.8z M176.8,32.8c0-1.5-1.4-2-3.1-2.7c-0.9,0.6-1.5,1.5-1.5,2.5c0,1.2,1,2,2.4,2
	C175.9,34.6,176.8,33.9,176.8,32.8z M176.6,26.8c0-1.1-0.7-1.9-1.9-1.9c-1,0-1.8,0.7-1.8,1.8c0,1.3,1.2,1.9,2.6,2.4
	C176.2,28.4,176.6,27.6,176.6,26.8z"/>
</svg>
