<svg width="180" height="47.8" viewBox="0 0 180 47.8" fill="#fff" xmlns="http://www.w3.org/2000/svg">
<path d="M14.1,4.7v1.1H0.8V4.7h6.1C6.7,4.3,6.6,3.9,6.5,3.5l1.4-0.3c0.2,0.5,0.4,1,0.6,1.5H14.1z M13.7,15.3
	c0,0.6-0.2,0.9-0.6,1.1c-0.5,0.2-1.2,0.2-2.2,0.2c-0.1-0.3-0.3-0.7-0.4-1c0.6,0,1.4,0,1.6,0c0.2,0,0.3-0.1,0.3-0.2v-3.9H2.7v5.2H1.3
	v-6.4h12.4V15.3z M12.2,6.6v3H3v-3C3,6.6,12.2,6.6,12.2,6.6z M5.5,15.2v0.7H4.2v-3.7h6.5v3.1L5.5,15.2L5.5,15.2z M10.7,7.5H4.4v1.1
	h6.3C10.7,8.6,10.7,7.5,10.7,7.5z M5.5,13.1v1.1h3.9v-1.1H5.5z M24.7,8.7c1,3,3,5.5,5.9,6.6c-0.4,0.3-0.8,0.9-1.1,1.3
	c-2.9-1.3-4.7-3.6-5.9-6.7c-0.8,2.6-2.4,5.1-5.9,6.7c-0.2-0.4-0.7-0.8-1.1-1.1c3.6-1.5,5.1-4.1,5.7-6.8h-5.4V7.3h5.7
	c0.2-1.5,0.2-2.8,0.2-4h1.5c0,1.2,0,2.6-0.2,4h6.2v1.4H24.7z M38.2,11.6L36.7,12v4.7h-1.4v-4.3c-0.8,0.2-1.5,0.4-2.2,0.5l-0.4-1.4
	c0.7-0.1,1.6-0.3,2.6-0.5V7.5h-1.1C34,8.3,33.7,9,33.5,9.6c-0.2-0.1-0.7-0.3-1-0.4c0.6-1.2,0.9-3.1,1-4.8l1.1,0.2
	c-0.1,0.6-0.1,1.1-0.2,1.7h0.9v-3h1.4v2.9h1.4v1.3h-1.4v3.2l1.4-0.3L38.2,11.6z M46.5,11.6h-1.6V15c0,0.7-0.2,1.1-0.7,1.3
	c-0.5,0.2-1.3,0.2-2.4,0.2c-0.1-0.4-0.3-1-0.5-1.3c0.8,0,1.6,0,1.8,0s0.3-0.1,0.3-0.3v-3.4h-5.1v-1.2h5.1V9.1h1.4v1.2h1.6v1.3H46.5z
	 M41.6,5.9h-3V4.7h3V3.3H43v1.5h3.2V6H43v1.6h2.7v1.2h-6.6V7.5h2.4L41.6,5.9L41.6,5.9z M40.3,11.9c0.7,0.7,1.5,1.6,1.9,2.3l-1.1,0.7
	c-0.4-0.6-1.2-1.6-1.8-2.3L40.3,11.9z M59.7,14.8c0.9,0,2.1-0.1,2.6-0.2c0,0.3,0.1,1,0.2,1.3C62.1,16,60.9,16,59.7,16h-6.4
	c-2.5,0-3.7-0.7-3.7-3.1V5.1H49V3.9h12.8v1.2H51v8c0,1.2,0.5,1.7,2.1,1.7H59.7z M52,10h4v3.8h-4V10z M53.1,12.9h1.7V11h-1.7V12.9z
	 M59.4,9.2h-5.8V5.9h5.8V9.2z M58,6.8h-3.1v1.5H58V6.8z M61.1,13.8h-4.2V10h4.2V13.8z M59.9,11h-1.8v1.9h1.8V11z M71.5,5.3
	C71,6,70.5,6.7,70,7.2c-0.2-0.2-0.7-0.7-1-0.9c0.9-0.8,1.8-1.9,2.2-3.1l1.3,0.3c-0.1,0.2-0.2,0.5-0.4,0.7h3.7v1.1h-2.6
	c0.5,0.4,0.9,0.8,1.2,1.1l-0.9,0.8c-0.3-0.4-1-1-1.5-1.5l0.6-0.5h-1.1V5.3z M82.1,11.8c0,0,0,0.3,0,0.5c-0.2,2-0.4,2.8-0.8,3.2
	C81,15.9,80.7,16,80.2,16c-0.4,0-1.1,0-1.9,0c0-0.4-0.2-0.9-0.4-1.2c0.7,0.1,1.4,0.1,1.7,0.1c0.3,0,0.4,0,0.5-0.1
	c0.2-0.2,0.3-0.7,0.5-1.7h-4.1v3.6h-1.4v-3.1c-1.3,1.3-3.2,2.4-4.9,3.1c-0.2-0.3-0.6-0.8-0.9-1.1C71,15,72.8,14.1,74,13h-3.7
	c0.2-0.9,0.4-2.3,0.6-3.4h4.2V8.4h-4.8V7.3h11.2v3.4h-5v1.1C76.5,11.8,82.1,11.8,82.1,11.8z M72.1,10.7c0,0.4-0.1,0.8-0.2,1.1h3.2
	v-1.1H72.1z M82.9,4.3v1.1h-3c0.5,0.3,1,0.8,1.3,1.1l-1,0.8c-0.3-0.4-1-1-1.6-1.4l0.7-0.5h-1.5c-0.4,0.5-0.8,1-1.2,1.4
	c-0.2-0.2-0.7-0.6-1.1-0.8c0.8-0.7,1.5-1.7,1.9-2.7l1.3,0.3c-0.1,0.3-0.2,0.5-0.3,0.8L82.9,4.3L82.9,4.3z M76.5,9.6h3.6V8.4h-3.6
	V9.6z M95.6,14.6c0.6,0,1.3,0,1.7-0.1c0,0.4,0.1,1,0.2,1.3c-0.4,0.1-1.1,0.1-1.9,0.1h-3.5c-2,0-2.7-0.7-2.7-2.7V9.7l-4,0.6l-0.2-1.4
	l4.3-0.6V3.6H91v4.5L98.5,7l0.2,1.4L91,9.5v3.8c0,1,0.3,1.3,1.1,1.3C92.1,14.6,95.6,14.6,95.6,14.6z M106,11.2c0,0,0,0.3,0,0.5
	c-0.2,2.7-0.4,3.9-0.8,4.3c-0.2,0.3-0.5,0.4-0.9,0.4c-0.3,0-0.9,0-1.5,0c0-0.3-0.2-0.8-0.4-1.1c0.6,0,1.1,0.1,1.3,0.1
	c0.2,0,0.4,0,0.5-0.1c0.2-0.2,0.4-1,0.6-2.9h-3c0.2-0.6,0.4-1.5,0.6-2.3H101V8.8h5.5V10h-3.1c-0.1,0.4-0.2,0.9-0.3,1.3h2.9V11.2z
	 M106.2,7.8h-4.5V3.9h4.5V7.8z M105.1,4.9h-2.4v2h2.4V4.9z M113.1,10c0.3,0,0.8,0,1-0.1c0,0.3,0,0.7,0.1,1c-0.2,0.1-0.6,0.1-1,0.1
	h-1.7c-1.1,0-1.3-0.5-1.3-1.5V9.2l-1.3,0.1l-0.1-0.9l1.4-0.1V7.2h-1.7v2.6c0,2-0.2,4.9-1.5,6.8c-0.2-0.2-0.8-0.6-1-0.7
	c1.2-1.8,1.3-4.3,1.3-6.2V6.1h3V3.3h1.3v0.9h3v1.1h-3v0.8h2.6l0.2-0.1l0.9,0.2c-0.2,0.9-0.4,1.9-0.6,2.6l-1.1-0.2
	c0.1-0.4,0.2-0.9,0.3-1.4h-2.5v1L113,8l0.1,0.9l-1.8,0.2v0.4c0,0.3,0,0.5,0.4,0.5C111.7,10,113.1,10,113.1,10z M110.6,11.6
	c-0.1,2.4-0.4,4-2.1,5.1c-0.1-0.3-0.5-0.7-0.8-0.9c1.4-0.8,1.6-2.2,1.7-4.2C109.4,11.6,110.6,11.6,110.6,11.6z M113.6,15.2
	c0.1,0,0.3,0,0.4-0.1c0.1,0,0.1-0.1,0.2-0.3c0-0.2,0.1-0.8,0-1.4c0.2,0.2,0.7,0.4,1,0.5c0,0.7-0.1,1.4-0.2,1.6
	c-0.1,0.3-0.3,0.5-0.5,0.6s-0.5,0.2-0.8,0.2h-0.8c-0.3,0-0.7-0.1-0.9-0.3c-0.2-0.2-0.3-0.4-0.3-1.2v-3.3h1.2v3.3
	c0,0.1,0,0.2,0.1,0.2s0.2,0.1,0.3,0.1L113.6,15.2L113.6,15.2z M122,3.7c-0.4,1-0.9,2.1-1.5,3v9.8H119V8.9c-0.4,0.5-0.8,1-1.3,1.4
	c-0.1-0.3-0.6-1.1-0.8-1.4c1.5-1.4,2.8-3.5,3.6-5.6L122,3.7z M126.6,7v1.8h4.2V10h-4.2v2h4.4v1.3h-4.4v3.4h-1.5V7h-0.9
	c-0.6,1.1-1.3,2.2-2.1,2.9c-0.2-0.2-0.8-0.7-1.1-0.9c1.3-1.3,2.6-3.4,3.3-5.5l1.4,0.3c-0.2,0.6-0.5,1.3-0.8,1.9h6.1V7H126.6z
	 M133.8,10.3h5.5v6.3h-1.4v-0.7h-2.8v0.8h-1.3V10.3z M135.1,11.6v3h2.8v-3H135.1z M144.5,8.9H136v-5h8.5V8.9z M143,5.2h-5.7v2.4h5.7
	V5.2z M146.6,10.3v6.3h-1.4v-0.7h-3v0.8h-1.4v-6.4C140.8,10.3,146.6,10.3,146.6,10.3z M145.2,14.6v-3h-3v3H145.2z M162.9,5.5
	c-0.6,0.5-1.4,1.1-2,1.5c0.7,0.4,1.5,0.7,2.4,0.9c-0.3,0.2-0.7,0.7-0.9,1.1c-0.7-0.2-1.4-0.5-2-0.8v1.6c0,0.3,0,0.4,0.3,0.4h0.9
	c0.2,0,0.6,0,0.8-0.1c0,0.3,0,0.7,0.1,0.9c-0.2,0.1-0.5,0.1-0.8,0.1h-1.1c-1.1,0-1.3-0.4-1.3-1.4V8.6h-1.8v0.1c0,1-0.3,2.1-1.7,2.9
	c-0.2-0.2-0.6-0.6-0.9-0.8V11h-3.1c-0.1,0.4-0.1,0.9-0.2,1.3h3.3c0,0,0,0.3,0,0.5c-0.2,2-0.4,2.9-0.7,3.2s-0.6,0.4-1.1,0.4
	c-0.4,0-1.2,0-2,0c0-0.3-0.2-0.8-0.4-1.1c0.8,0.1,1.6,0.1,1.9,0.1c0.3,0,0.4,0,0.5-0.1c0.2-0.2,0.4-0.7,0.5-1.9h-3.3
	c0.2-0.9,0.4-2.2,0.5-3.3h2.9V8.7h-2.4V8.5c-0.5,0.2-1.1,0.5-1.6,0.6c-0.2-0.3-0.5-0.8-0.8-1c1-0.3,1.9-0.7,2.8-1.2
	c-0.4-0.4-1.1-0.8-1.6-1.1l0.8-0.7c0.6,0.3,1.3,0.8,1.7,1.1c0.5-0.4,0.9-0.8,1.2-1.3h-3.3V3.8h4.1h0.2l0.9,0.4
	c-0.7,1.4-1.7,2.6-3,3.4h2.2v3.1c1.1-0.6,1.3-1.4,1.3-2V7.6h3.2c-1.5-1-2.6-2.3-3.4-3.9l1.1-0.3c0.3,0.6,0.6,1.1,1,1.6
	c0.6-0.5,1.3-1.1,1.7-1.5l1,0.7c-0.6,0.6-1.4,1.1-2,1.6c0.3,0.3,0.6,0.5,1,0.8c0.7-0.5,1.4-1.1,1.9-1.6L162.9,5.5z M161.8,12
	c-0.4,1.1-1,1.9-1.8,2.6c0.7,0.4,1.4,0.8,1.9,1.1l-0.7,0.9c-0.5-0.4-1.3-0.8-2.2-1.3c-1,0.6-2.2,1-3.4,1.3c-0.1-0.3-0.4-0.7-0.6-1
	c1.1-0.2,2.1-0.5,3-1c-0.8-0.5-1.6-0.9-2.3-1.3l0.6-0.7h-0.5v-1h5.1h0.2L161.8,12z M156.4,12.7c0.8,0.4,1.7,0.8,2.5,1.3
	c0.5-0.4,0.9-0.8,1.2-1.3H156.4z M178.6,11.2c-0.9,0.7-1.9,1.3-2.8,1.9c1,0.9,2.2,1.5,3.7,1.9c-0.3,0.3-0.7,0.8-0.9,1.2
	c-3.1-1-5.2-3.1-6.3-6.2c-0.6,0.6-1.4,1.2-2.2,1.8v2.9l3.5-1c0,0.4,0.2,0.9,0.2,1.2c-4.3,1.3-4.9,1.4-5.3,1.7
	c-0.1-0.3-0.4-0.9-0.6-1.2c0.3-0.1,0.7-0.4,0.7-1v-1.7c-0.8,0.4-1.6,0.8-2.4,1c-0.2-0.3-0.6-0.8-0.9-1.1c1.8-0.5,3.8-1.6,5.2-2.7
	h-4.7V8.8h5.9V7.7H167V6.6h4.5v-1h-5.3V4.5h5.3V3.3h1.4v1.2h5.4v1.2h-5.4v1h4.8v1.1h-4.8v1.1h5.9V10h-5.4c0.4,0.8,0.8,1.6,1.4,2.3
	c0.9-0.6,1.9-1.3,2.5-1.9L178.6,11.2z M30.9,43.5H18.3c0-4.4,7.2-7.6,9.1-10.4c2.2-2.5,0.9-5.9-2.5-5.8c-2.2,0-3.8,1.4-3.7,3.7
	l-2.4-0.2c0.2-5.2,7.1-6.6,10.5-3.8c2.5,2.2,1.9,5.7-0.5,7.9c-1.4,1.7-6.1,4.8-7.3,6.7h9.4V43.5z M32.5,36.8v-2.2h7.2v2.2H32.5z
	 M41.7,38.7l2.3-0.3c0.4,3.5,4.2,4.5,6.6,2.4c3-3.2-0.4-7.3-4.4-6l0.3-1.9c3,0.4,5.9-2.4,3.4-5c-2.1-1.8-5.5-0.5-5.8,2.4l-2.3-0.4
	c0.6-5,8-6.2,10.7-2.3c1.5,2.2,0.5,5-2,5.9c4,0.6,4.6,6,1.7,8.4C49,44.8,42,43.8,41.7,38.7z M58.1,42.3c3.8-1,4.8-2.8,5.2-5.3h-4
	c-0.3,2.4-1,5-2.6,6.8l-1.4-1.3c2.1-2.6,2.3-6.3,2.3-9.1v-6.1l0,0c4.6-0.3,9.9-0.8,13-1.4l1.4,1.4c-3.4,0.7-8.2,1.2-12.6,1.4v0.9h13
	V34h-13l-0.1,1.6h5.9c-0.2-0.4-0.4-0.9-0.7-1.2l1.8-0.4c0.4,0.5,0.7,1.1,0.9,1.6h6.4V37H65c-0.1,0.5-0.1,0.9-0.2,1.3h6.8
	c0,0,0,0.5,0,0.7c-0.3,2.6-0.5,3.7-1.1,4.2c-0.4,0.3-0.8,0.5-1.4,0.5c-0.6,0.1-1.5,0-2.6,0c0-0.5-0.2-1.1-0.5-1.5
	c1,0.1,1.9,0.1,2.3,0.1c0.3,0,0.5,0,0.7-0.2c0.3-0.3,0.5-0.9,0.7-2.4h-5.3c-0.8,1.8-2.3,3.1-5.3,4L58.1,42.3z M59.3,31v1.6h11.1V31
	H59.3z M85.9,36.9c1,1.6,2.3,3.7,2.8,5L87,42.8c-0.2-0.5-0.5-1.1-0.8-1.8c-5,1.6-5.7,1.9-6.2,2.2c-0.1-0.5-0.4-1.4-0.8-1.8
	c0.4-0.2,0.9-0.6,0.9-1.3V26.9h8.1v9.3H82v4.3l3.3-1c-0.4-0.6-0.7-1.3-1.1-1.8L85.9,36.9z M82,28.5v2.2h4.3v-2.2H82z M86.3,34.5
	v-2.3H82v2.3H86.3z M96.6,38.1c0,0.9-0.2,1.4-0.8,1.7c-0.6,0.3-1.5,0.3-2.9,0.3c-0.1-0.5-0.3-1.2-0.5-1.7c0.9,0,1.8,0,2,0
	c0.3,0,0.4-0.1,0.4-0.3v-9.4h-3.1v15h-1.9V27h6.9L96.6,38.1L96.6,38.1z M110.8,31.4c-1.9,3.5-5,6.3-8.5,8.1
	c-0.2-0.4-0.8-1.1-1.2-1.5c2-0.9,3.9-2.2,5.4-3.7c-3.5,0.2-4.2,0.3-4.6,0.5c-0.1-0.3-0.4-1.2-0.6-1.6c0.4-0.1,0.8-0.4,1.2-0.8
	c0.3-0.3,1.2-1.3,2.1-2.4H101v-1.6h5c-0.2-0.6-0.6-1.4-1-2l1.8-0.4c0.5,0.7,1.1,1.7,1.3,2.4h4.1V30h-5.3c-0.8,1.1-1.7,2.1-2.7,3
	l3.7-0.2c0.4-0.6,0.8-1.2,1.2-1.8L110.8,31.4z M112.1,35.1c-0.8,1.4-1.8,2.6-3,3.7c1.2,0.9,2.5,2.1,3.3,2.9l-1.4,1.2
	c-0.7-0.8-2-1.9-3.1-2.9c-1.8,1.5-3.8,2.7-5.8,3.7c-0.2-0.4-0.8-1.2-1.2-1.5c3.9-1.6,7.4-4.3,9.4-7.6L112.1,35.1z M115.1,38.8h-1.8
	V28.1h1.8V38.8z M118.8,26.1v15.4c0,1.1-0.3,1.6-0.9,1.8c-0.7,0.3-1.8,0.3-3.5,0.3c-0.1-0.5-0.4-1.2-0.6-1.7c1.2,0,2.3,0,2.7,0
	c0.3,0,0.5-0.1,0.5-0.5V26.1H118.8z M128.4,37.1c0.3-0.7,0.6-1.6,0.9-2.6h-1.7v7.2c0,0.9-0.2,1.4-0.8,1.7c-0.6,0.3-1.6,0.3-3,0.3
	c-0.1-0.5-0.3-1.2-0.6-1.7c1,0,1.9,0,2.2,0c0.3,0,0.3-0.1,0.3-0.3v-7.1h-3.2V33h4.8c-1.1-0.9-2.6-1.8-3.9-2.4l1-1.2
	c0.6,0.3,1.3,0.7,2,1c0.6-0.6,1.2-1.3,1.7-2H123v-1.6h6.3l0.3-0.1l1.2,0.8c-0.8,1.3-2,2.7-3.1,3.7c0.6,0.4,1.1,0.8,1.4,1.1l-0.5,0.6
	h1.2l0.3-0.1l1.2,0.3c-0.5,1.5-1.1,3.3-1.6,4.4L128.4,37.1z M135.3,41.1c-1.1,1-3,2.1-4.6,2.6c-0.3-0.3-0.9-0.9-1.3-1.2
	c1.6-0.5,3.4-1.6,4.3-2.4L135.3,41.1z M134.7,29.9c0.1-0.5,0.2-1.1,0.3-1.6h-4.1v-1.5h10.3v1.5h-4.1c-0.2,0.6-0.4,1.1-0.5,1.6h4V40
	h-8.9V29.9H134.7z M138.7,31.2h-5.3v1.6h5.3V31.2z M138.7,34.1h-5.3v1.6h5.3V34.1z M138.7,37h-5.3v1.6h5.3V37z M138.1,40.3
	c1.2,0.7,2.7,1.7,3.5,2.4l-1.5,1c-0.7-0.7-2.2-1.8-3.5-2.6L138.1,40.3z M147.5,38.7c-0.3,1.7-0.9,3.5-1.3,4.6
	c-0.4-0.2-1.2-0.4-1.6-0.5c0.6-1.2,1-2.9,1.3-4.4L147.5,38.7z M151.6,37.5c-0.1-0.3-0.1-0.6-0.2-1c-5,0.8-5.7,0.9-6.2,1.1
	c-0.1-0.3-0.4-1.2-0.6-1.7c0.5-0.1,1-0.5,1.7-1.2c0.3-0.3,1-1,1.8-2c-2.2,0.3-2.7,0.3-3,0.5c-0.1-0.3-0.4-1.2-0.6-1.6
	c0.4-0.1,0.8-0.4,1.3-1s2.1-2.7,3-4.8l1.7,0.7c-1,1.7-2.2,3.4-3.4,4.8l2.2-0.2c0.6-0.8,1.1-1.6,1.6-2.4l1.6,1c-1.4,2-3.1,4-4.8,5.7
	l3.1-0.4c-0.2-0.6-0.4-1.1-0.6-1.6l1.5-0.4c0.5,1.3,1.1,3,1.3,4L151.6,37.5z M149.8,38.2c0.3,1.4,0.6,3.1,0.7,4.2l-1.6,0.4
	c-0.1-1.2-0.3-2.9-0.6-4.3L149.8,38.2z M152.2,37.8c0.5,1.1,1.1,2.6,1.3,3.6l-1.5,0.5c-0.2-1-0.8-2.5-1.2-3.7L152.2,37.8z
	 M162.6,29.4c0,0,0,0.7,0,0.9c-0.2,8.5-0.5,11.4-1.3,12.3c-0.5,0.6-1,0.8-1.8,0.9c-0.7,0.1-1.9,0.1-3.1,0c0-0.5-0.3-1.3-0.6-1.8
	c1.2,0.1,2.4,0.1,2.9,0.1c0.4,0,0.6-0.1,0.8-0.3c0.6-0.6,0.9-3.4,1.1-10.5h-5.4c-0.5,1-1,2-1.6,2.7c-0.4-0.3-1.2-0.8-1.7-1
	c1.4-1.6,2.5-4.3,3.1-6.9l1.9,0.3c-0.3,1.1-0.6,2.1-1,3.1h6.7V29.4z M157.8,38.6c-0.6-1.2-2.1-3-3.5-4.2l1.3-0.9
	c1.4,1.2,2.9,2.9,3.6,4.1L157.8,38.6z"/>
<path fill="none" stroke="#FFF" stroke-width="0.5" d="M14,26.3H1.2v17.2H14 M166.1,26.3h12.8v17.2h-12.8"/>
</svg>
