<svg width="803" height="234" viewBox="0 0 803 234" fill="none" xmlns="http://www.w3.org/2000/svg">
<path d="M17.3902 151.758V135.188C14.2202 139.458 10.1502 143.238 5.18024 146.548L4.4502 145.628C9.1602 140.828 12.9202 134.408 15.7402 126.348H5.7702L5.24023 124.428H17.3902V117.038L25.5102 117.828C25.4202 118.748 24.7202 119.298 23.4002 119.478V124.428H28.0202L31.1902 120.268C31.8902 120.838 32.5802 121.418 33.2402 121.988C34.7802 123.308 35.9902 124.408 36.8702 125.288C36.6902 125.988 36.1402 126.348 35.2202 126.348H23.4002V128.988L23.6002 128.858C27.1702 129.648 29.8902 130.838 31.7902 132.428C33.3302 133.748 34.1402 135.178 34.2302 136.718C34.2702 138.088 33.7602 139.058 32.6802 139.658C31.6002 140.248 30.4202 140.088 29.1502 139.168C28.8902 137.628 28.1602 135.958 26.9702 134.148C25.9602 132.478 24.7702 130.998 23.4002 129.728V149.998C23.4002 150.348 22.8702 150.728 21.8102 151.118C20.6702 151.558 19.5602 151.778 18.5102 151.778H17.3902V151.758ZM5.11023 116.038L4.5802 114.128H22.2102C23.4902 110.258 24.5402 105.988 25.3802 101.318L33.2402 103.698C32.9302 104.538 32.1202 104.928 30.8002 104.888C28.8602 108.098 26.5102 111.188 23.7402 114.128H28.8902L32.1902 109.768C34.2102 111.488 36.2202 113.228 38.2002 114.988C38.0702 115.698 37.5002 116.048 36.4802 116.048H5.12024L5.11023 116.038ZM6.30023 101.248L5.7702 99.3279H17.5202V90.5479L25.9702 91.2778C25.8402 92.2478 25.0702 92.8378 23.6602 93.0578V99.3279H27.1602L30.3902 95.0979C31.0902 95.6679 31.8002 96.2379 32.5002 96.8179C34.0902 98.1879 35.3402 99.3079 36.2602 100.188C36.0802 100.898 35.5102 101.248 34.5402 101.248H6.28021H6.30023ZM13.0302 112.538C13.0702 109.278 12.1502 105.698 10.2602 101.778L11.0502 101.448C13.8702 102.898 15.8902 104.578 17.1202 106.468C18.1302 108.058 18.5102 109.568 18.2402 111.028C17.9802 112.348 17.3202 113.208 16.2602 113.598C15.1602 113.948 14.0802 113.598 13.0202 112.538H13.0302ZM52.7102 151.758V115.508H44.9202V117.818C44.9202 125.388 44.0802 131.458 42.4102 136.038C39.9902 142.638 35.5002 147.858 28.9402 151.688L28.1502 150.898C32.4202 146.718 35.3702 141.568 37.0002 135.448C38.2302 130.868 38.8502 124.948 38.8502 117.688V95.6979L45.4502 97.9479C51.0002 95.3979 55.3302 92.8878 58.4602 90.4178L65.3302 95.8979C64.6202 96.5979 63.4402 96.6679 61.7602 96.0979C56.6502 97.7679 51.0402 99.0079 44.9202 99.7979V113.598H56.3402L60.1002 108.648C62.3902 110.588 64.6602 112.518 66.9002 114.458C66.7202 115.158 66.1302 115.518 65.1202 115.518H58.9102V149.988C58.8602 150.298 58.4002 150.648 57.5202 151.048C56.4202 151.528 55.1602 151.778 53.7602 151.778H52.7002L52.7102 151.758Z" fill="white"/>
<path d="M70.7403 151.688L69.7502 150.768C73.8902 144.788 76.8603 137.738 78.6603 129.638C80.0703 123.388 80.8803 115.768 81.1003 106.788H71.9903L71.4003 104.878H81.1103C81.2003 102.498 81.2203 98.9579 81.1803 94.2479V90.8179L89.9603 91.6779C89.7403 92.6879 88.9503 93.3079 87.5803 93.5279C87.5803 94.3679 87.5603 95.6179 87.5103 97.2879C87.4703 100.678 87.4202 103.208 87.3802 104.878H94.1803L97.6803 101.308L103.82 106.588C103.29 107.158 102.37 107.578 101.05 107.838C100.79 120.688 100.32 129.938 99.6603 135.568C98.9103 141.728 97.7203 145.688 96.0903 147.448C94.0703 149.608 91.3603 150.688 87.9703 150.688C87.9703 148.438 87.6003 146.928 86.8503 146.128C85.9703 145.208 84.0803 144.438 81.1703 143.818L81.2403 142.758C84.8103 143.158 87.3403 143.348 88.8303 143.348C89.8403 143.348 90.6603 143.058 91.2703 142.488C92.3703 141.428 93.2103 137.908 93.7803 131.928C94.3103 126.428 94.6803 118.038 94.9003 106.768H87.2403C86.8403 116.278 85.6503 124.198 83.6703 130.538C81.0703 138.988 76.7603 146.028 70.7303 151.668L70.7403 151.688ZM106.59 150.368V98.7979L112.93 101.708H121.78L125.08 98.0079L131.75 103.358C131.26 103.928 130.32 104.388 128.91 104.748V147.008C128.82 147.358 128.18 147.818 127 148.398C125.72 149.018 124.56 149.328 123.5 149.328H122.51V143.058H112.67V148.078C112.67 148.518 112.16 148.998 111.15 149.528C110.05 150.098 108.88 150.388 107.65 150.388H106.59V150.368ZM112.66 141.188H122.5V103.618H112.66V141.188Z" fill="white"/>
<path d="M193.68 151.758C187.74 148.988 182.92 145.468 179.22 141.198C173.37 145.908 165.88 149.338 156.77 151.498L156.31 150.638C164.54 147.688 171.27 143.348 176.51 137.628C173.21 132.658 170.81 126.468 169.31 119.078H166.14C165.83 125.768 164.6 131.488 162.44 136.248C159.54 142.718 154.89 147.868 148.51 151.698L147.78 150.968C153.81 145.068 157.62 137.498 159.2 128.258C153.34 132.438 147.23 136.508 140.84 140.468C140.71 141.258 140.25 141.858 139.45 142.248L135.82 134.858C137.4 134.458 140.29 133.558 144.47 132.148V111.148H137.4L136.87 109.238H144.46V92.0078L153.04 92.7978C152.82 93.8078 152 94.4078 150.6 94.5778V109.238H151.92L155.02 104.348C156.74 106.108 158.43 107.888 160.1 109.698V98.9378L167.16 102.238H175.08V91.0178L183.53 91.8078C183.44 92.7778 182.65 93.4178 181.15 93.7178V102.238H189.27L192.9 98.6078L199.11 104.548C198.63 105.028 197.77 105.298 196.54 105.338C193.55 108.328 190.38 110.908 187.03 113.058L186.3 112.598C187.31 110.308 188.37 107.468 189.47 104.078H181.15V117.148H186.5L190.13 113.578L196.2 119.128C195.85 119.658 194.95 120.008 193.49 120.188C190.98 127.188 187.53 132.978 183.12 137.548C187.57 141.028 193.04 143.758 199.56 145.738L199.43 146.468C196.66 146.868 194.72 148.628 193.62 151.748L193.68 151.758ZM150.63 130.098C153.62 129.038 156.53 128.008 159.35 126.998C159.88 123.428 160.14 119.448 160.14 115.048V110.688C159.83 110.998 159.37 111.148 158.75 111.148H150.63V130.098ZM166.21 117.158H175.12V104.088H166.21V117.158ZM179.42 134.128C182.63 129.768 185.08 124.748 186.75 119.078H170.64C172.4 124.888 175.33 129.908 179.42 134.128Z" fill="white"/>
<path d="M202.86 151.818L202.27 150.958C207.02 147.078 210.57 141.978 212.9 135.638C211.53 132.958 210.32 129.628 209.27 125.668C207.73 128.748 206.58 130.908 205.84 132.138C206.28 132.798 206.21 133.328 205.64 133.728L202.14 129.898C204.47 128.008 206.63 126.028 208.61 123.958L209.2 121.048L211.71 121.908L209.93 124.348C211.03 127.778 212.31 130.668 213.76 132.998C215.12 128.688 216.07 123.378 216.6 117.088H211.32C210.79 118.188 210.26 119.248 209.74 120.258C208.16 120.788 206.28 120.608 204.13 119.728C207.69 112.288 210.91 105.028 213.77 97.9379H203.67L203.08 96.0179H213.78L216.68 92.8479L222.82 97.9979C222.29 98.5279 221.26 98.8979 219.72 99.1179C217.17 104.968 214.68 110.318 212.26 115.158H216.09L219.26 111.858L225.14 116.878C224.79 117.408 224 117.758 222.76 117.938C221.66 125.998 219.81 132.468 217.21 137.348C220.12 140.168 223.94 142.128 228.7 143.228C232.66 144.108 238.27 144.548 245.54 144.548C255.05 144.548 261.41 144.508 264.62 144.418V145.278C262.33 145.768 261.1 147.458 260.92 150.358H245.14C237.48 150.358 231.54 149.678 227.31 148.308C222.42 146.768 218.53 144.038 215.62 140.118C212.45 144.958 208.2 148.858 202.88 151.808L202.86 151.818ZM236.93 143.168V134.388H222.07L221.54 132.478H236.92V125.548H224.51L224.05 123.628H236.92V116.828H225.37L224.78 114.908H236.93V108.108H221.02L220.49 106.188H236.93V99.5179H225.51L224.92 97.5979H236.94V90.4679L245.33 91.3279C245.2 92.3379 244.41 92.9579 242.95 93.1779V97.5979H250.01L252.92 94.4979L259.19 99.2479C258.66 99.8679 257.76 100.308 256.48 100.568V106.178H257.14L260.11 101.758C260.73 102.378 261.36 102.988 262.03 103.608C263.44 105.018 264.52 106.158 265.27 107.038C265.14 107.738 264.56 108.098 263.55 108.098H256.49V117.408C256.44 117.668 255.87 117.998 254.77 118.398C253.54 118.838 252.48 119.058 251.6 119.058H250.68V116.818H242.96V123.618H251.01L254.31 119.258C256.38 120.978 258.43 122.718 260.45 124.478C260.32 125.188 259.75 125.538 258.73 125.538H242.95V132.468H252.26L256.02 127.778C256.81 128.398 257.63 129.028 258.46 129.688C260.31 131.138 261.76 132.348 262.82 133.318C262.64 134.018 262.05 134.378 261.04 134.378H242.95V141.378C242.95 141.688 242.44 142.058 241.43 142.498C240.33 142.938 239.23 143.158 238.13 143.158H236.94L236.93 143.168ZM242.94 106.198H250.66V99.5279H242.94V106.198ZM242.94 114.908H250.66V108.108H242.94V114.908Z" fill="white"/>
<path d="M296.35 151.818V137.888C289.97 143.828 280.83 148.168 268.95 150.898L268.49 149.978C278.13 146.278 285.53 141.238 290.67 134.858H270.33L269.74 132.948H296.35V127.398C294.19 128.368 291.24 129.228 287.5 129.978L286.91 128.918C290.61 127.948 293.51 126.568 295.63 124.758C297.52 123.128 298.91 121.018 299.79 118.418H292.66L292.13 116.508H300.32C300.72 114.748 300.96 112.548 301.05 109.908H295.5L294.91 107.998H314.26L314.99 107.268C314.24 107.268 313.45 106.958 312.61 106.348C312.43 104.278 311.51 102.038 309.84 99.6179H306.01C303.24 102.568 300.11 104.988 296.63 106.878L295.77 106.148C297.53 104.348 299.2 102.058 300.79 99.2778C302.42 96.4178 303.76 93.4279 304.82 90.2979L312.68 93.0679C312.33 93.9879 311.47 94.3879 310.1 94.2579C309.4 95.4079 308.58 96.5479 307.66 97.6879H320.14L323.64 93.3979C324.39 93.9679 325.16 94.5679 325.95 95.1779C327.67 96.4979 329.03 97.6179 330.04 98.5479C329.86 99.2479 329.27 99.6078 328.26 99.6078H314.13C315.72 100.358 316.84 101.298 317.5 102.448C318.03 103.418 318.14 104.368 317.83 105.288L322.85 109.508C322.36 110.038 321.64 110.368 320.67 110.498V121.328C320.67 121.678 320.72 121.898 320.84 121.988C320.95 122.078 321.22 122.118 321.67 122.118H325.04C325.44 122.118 325.74 121.938 325.96 121.588C326.27 121.058 326.91 119.078 327.87 115.648C327.91 115.518 327.94 115.408 327.94 115.318H328.67L328.87 121.718C330.06 122.248 330.65 123.018 330.65 124.028C330.65 125.178 330.03 126.008 328.8 126.538C327.57 127.068 325.56 127.328 322.79 127.328H319.69C317.62 127.328 316.28 126.978 315.66 126.268C315.13 125.648 314.87 124.398 314.87 122.508V118.088C314.52 118.308 314.1 118.418 313.62 118.418H305.5C304.13 122.118 301.54 124.908 297.71 126.798L304.91 127.458C304.78 128.428 304.01 129.018 302.6 129.238V132.938H319.44L323.01 128.708C325.21 130.378 327.39 132.078 329.55 133.788C329.42 134.488 328.82 134.848 327.77 134.848H304.79C307.74 137.138 311.68 139.118 316.61 140.788C321.14 142.328 325.83 143.408 330.67 144.018L330.6 144.748C327.96 145.368 326.26 147.298 325.52 150.558C320.63 149.108 316.25 147.058 312.38 144.418C308.37 141.738 305.14 138.538 302.67 134.848H302.6V150.298C302.6 150.558 302.05 150.868 300.95 151.218C299.76 151.618 298.62 151.808 297.52 151.808H296.4L296.35 151.818ZM273.04 129.898L269.67 123.358C273.19 122.958 276.71 122.498 280.23 121.968V111.868H271.91L271.38 109.958H286.63L289.27 106.658C287.99 107.448 286.7 107.248 285.37 106.068C285.37 104.048 284.71 101.888 283.39 99.5979H280.68C277.38 103.518 273.57 106.598 269.26 108.838L268.47 108.048C270.54 106.018 272.5 103.468 274.35 100.388C276.29 97.1778 277.85 93.8279 279.04 90.3479L286.83 93.6479C286.43 94.5279 285.55 94.8379 284.19 94.5679C283.31 95.9779 282.65 97.0078 282.21 97.6678H291.92L295.09 93.5779C295.79 94.1479 296.48 94.7279 297.14 95.2979C298.68 96.6179 299.89 97.6979 300.77 98.5379C300.59 99.2379 300.02 99.5979 299.05 99.5979H286.97C288.91 100.608 290.09 101.798 290.54 103.158C290.89 104.348 290.67 105.358 289.88 106.198C289.97 106.288 290.17 106.438 290.47 106.658C292.8 108.458 294.5 109.848 295.55 110.818C295.42 111.518 294.85 111.878 293.83 111.878H285.97V121.058C286.5 120.968 287.29 120.838 288.35 120.658C291.3 120.218 293.52 119.868 295.02 119.598L295.15 120.588C290.62 122.478 283.77 125.078 274.62 128.378C274.36 129.168 273.83 129.678 273.03 129.898H273.04ZM314.83 116.888V109.888H307.11C306.89 112.398 306.54 114.598 306.05 116.488H307.77L310.41 112.918C311.91 114.238 313.38 115.558 314.83 116.878V116.888Z" fill="white"/>
<path d="M336.16 147.458L335.57 145.548H343.56V98.1379H336.76L336.17 96.2179H381.66L385.82 91.0679C386.74 91.7679 387.67 92.4579 388.59 93.1179C390.66 94.6979 392.31 96.0179 393.54 97.0779C393.36 97.7879 392.75 98.1379 391.69 98.1379H350.03V110.488H376.51L379.81 106.728L387.01 112.208C386.44 112.958 385.36 113.468 383.77 113.728V134.328C383.73 134.548 383.09 134.878 381.86 135.318C380.5 135.758 379.33 135.978 378.36 135.978H377.3V129.968H350.03V145.548H383.83L388.12 140.198C389.04 140.898 389.99 141.608 390.96 142.308C393.07 143.978 394.77 145.348 396.04 146.398C395.86 147.098 395.25 147.458 394.19 147.458H336.15H336.16ZM350.03 128.048H377.3V112.398H350.03V128.048Z" fill="white"/>
<path d="M407.6 123.428V114.778C406.06 117.898 403.92 120.438 401.19 122.368L400.46 121.638C402.26 118.778 403.47 115.318 404.09 111.268C404.49 108.668 404.68 105.218 404.68 100.898V91.6579L411.22 94.2379H421.65L424.36 91.1979L430.5 95.6879C430.06 96.2579 429.18 96.6979 427.86 97.0079V104.338C427.82 104.558 427.24 104.848 426.14 105.198C424.95 105.598 423.96 105.788 423.17 105.788H422.25V103.808H410.23C410.19 104.998 410.05 106.248 409.83 107.568L413.79 109.148H422.44L425.15 106.308L430.96 110.668C430.61 111.148 429.84 111.548 428.65 111.858V120.508C428.61 120.768 428.06 121.128 427 121.568C425.85 122.008 424.84 122.228 423.96 122.228H423.04V119.128H412.94V121.838C412.94 122.098 412.54 122.408 411.75 122.758C410.83 123.198 409.75 123.418 408.51 123.418H407.59L407.6 123.428ZM425.89 151.818C425.76 149.968 425.21 148.668 424.24 147.928C423.05 147.008 420.92 146.318 417.84 145.878V144.958C420.96 145.138 424.09 145.308 427.22 145.488C428.23 145.488 428.74 145.118 428.74 144.368V140.478H401.8L401.27 138.558H428.74V133.868H405.96L405.37 131.958H428.74V127.538C421.74 127.938 414.96 128.048 408.4 127.868L408.2 126.748C414.32 126.268 420.88 125.448 427.88 124.308C434.61 123.208 440.23 122.038 444.72 120.808H443.99C443.64 120.858 443.37 120.878 443.2 120.878H442.21V114.478H431.58L431.12 112.628H442.21V107.878H430.06L429.53 105.968H439.57C438.87 105.788 438.27 105.438 437.79 104.908C437.97 102.838 437.42 100.658 436.14 98.3679H431.52L430.99 96.4579H442.21V90.4479L450.26 91.1779C450.13 92.0979 449.42 92.6479 448.15 92.8279V96.4579H452.11L455.21 92.6279C455.91 93.1579 456.6 93.6879 457.26 94.2179C458.8 95.4479 460.01 96.4879 460.89 97.3179C460.76 98.0179 460.21 98.3779 459.24 98.3779H449.14L455.94 99.5679C455.72 100.538 454.93 101.038 453.56 101.088C452.64 102.278 451.09 103.908 448.94 105.978H453.56L456.73 102.148C457.39 102.678 458.07 103.208 458.78 103.728C460.32 104.958 461.55 105.998 462.48 106.828C462.3 107.538 461.71 107.888 460.7 107.888H448.16V112.638H452.58L455.68 108.748C456.34 109.278 457.02 109.808 457.73 110.328C459.23 111.558 460.41 112.598 461.3 113.428C461.17 114.128 460.62 114.488 459.65 114.488H448.16V119.568C448.07 119.878 447.3 120.228 445.85 120.628L451.26 126.178C450.47 126.748 449.24 126.668 447.56 125.918C443.6 126.398 439.37 126.838 434.88 127.238V131.988H447.82L451.32 127.958C453.48 129.588 455.63 131.218 457.79 132.848C457.61 133.548 457 133.908 455.94 133.908H434.88V138.598H451.78L455.35 134.308C456.14 134.878 456.94 135.458 457.73 136.028C459.49 137.398 460.88 138.538 461.89 139.458C461.71 140.168 461.12 140.518 460.11 140.518H434.89V144.548C434.89 146.838 434.36 148.488 433.31 149.498C431.99 150.818 429.52 151.608 425.91 151.878L425.89 151.818ZM410.31 101.908H422.26V96.0979H410.31V101.908ZM412.95 117.228H423.05V111.088H412.95V117.228ZM440.75 105.938H447.02C447.68 102.548 448.14 100.018 448.41 98.3479H437.78C439.89 99.1879 441.37 100.198 442.2 101.388C442.9 102.398 443.06 103.368 442.66 104.298C442.31 105.178 441.67 105.728 440.74 105.948L440.75 105.938Z" fill="white"/>
<path d="M500.82 93.9579V112.058H499.39C498.93 108.588 498.1 105.818 496.9 103.758C495.7 101.698 494 100.068 491.79 98.8579C489.58 97.6479 487.29 97.0479 484.92 97.0479C482.24 97.0479 480.03 97.8679 478.28 99.4979C476.53 101.128 475.66 102.988 475.66 105.078C475.66 106.678 476.21 108.128 477.32 109.438C478.91 111.368 482.71 113.938 488.7 117.158C493.59 119.778 496.93 121.798 498.71 123.198C500.5 124.598 501.87 126.248 502.84 128.158C503.8 130.058 504.29 132.058 504.29 134.138C504.29 138.098 502.75 141.518 499.68 144.388C496.6 147.258 492.65 148.688 487.81 148.688C486.29 148.688 484.86 148.568 483.53 148.338C482.73 148.208 481.08 147.738 478.57 146.928C476.06 146.118 474.47 145.708 473.8 145.708C473.13 145.708 472.65 145.898 472.28 146.288C471.91 146.678 471.63 147.468 471.45 148.678H470.02V130.728H471.45C472.12 134.488 473.02 137.298 474.15 139.158C475.28 141.028 477.01 142.568 479.34 143.808C481.67 145.038 484.22 145.658 487 145.658C490.22 145.658 492.76 144.808 494.62 143.108C496.49 141.408 497.42 139.398 497.42 137.088C497.42 135.798 497.07 134.498 496.36 133.188C495.65 131.878 494.55 130.658 493.06 129.518C492.06 128.748 489.32 127.108 484.84 124.598C480.36 122.088 477.18 120.088 475.29 118.598C473.4 117.108 471.96 115.458 470.99 113.658C470.01 111.858 469.52 109.878 469.52 107.718C469.52 103.958 470.96 100.728 473.84 98.0079C476.72 95.2979 480.39 93.9379 484.84 93.9379C487.62 93.9379 490.56 94.6179 493.68 95.9879C495.12 96.6279 496.14 96.9479 496.73 96.9479C497.4 96.9479 497.94 96.7479 498.37 96.3479C498.79 95.9479 499.14 95.1479 499.39 93.9379H500.82V93.9579Z" fill="white"/>
<path d="M556.12 93.9579L557.32 111.748H556.12C554.52 106.418 552.25 102.588 549.29 100.248C546.33 97.9079 542.78 96.7379 538.64 96.7379C535.17 96.7379 532.03 97.6179 529.22 99.3779C526.42 101.138 524.21 103.948 522.6 107.808C520.99 111.668 520.19 116.468 520.19 122.198C520.19 126.928 520.95 131.038 522.47 134.508C523.99 137.978 526.27 140.648 529.32 142.498C532.37 144.348 535.85 145.278 539.76 145.278C543.16 145.278 546.15 144.548 548.75 143.098C551.35 141.648 554.2 138.758 557.32 134.438L558.52 135.208C555.9 139.868 552.83 143.278 549.34 145.438C545.84 147.598 541.69 148.678 536.87 148.678C528.2 148.678 521.49 145.458 516.73 139.028C513.18 134.238 511.4 128.608 511.4 122.128C511.4 116.908 512.57 112.108 514.91 107.738C517.25 103.368 520.47 99.9779 524.58 97.5679C528.68 95.1579 533.17 93.9579 538.03 93.9579C541.81 93.9579 545.54 94.8879 549.22 96.7379C550.3 97.3079 551.07 97.5879 551.54 97.5879C552.24 97.5879 552.84 97.3479 553.35 96.8579C554.02 96.1679 554.49 95.1979 554.78 93.9679H556.13L556.12 93.9579Z" fill="white"/>
<path d="M562.6 147.478V146.048H564.57C566.78 146.048 568.35 145.338 569.28 143.928C569.85 143.078 570.13 141.178 570.13 138.218V104.408C570.13 101.138 569.77 99.0978 569.05 98.2678C568.05 97.1378 566.55 96.5678 564.57 96.5678H562.6V95.1378H583.9C591.72 95.1378 597.67 96.0278 601.75 97.7978C605.83 99.5678 609.11 102.528 611.59 106.678C614.07 110.818 615.31 115.608 615.31 121.038C615.31 128.318 613.1 134.408 608.67 139.288C603.7 144.738 596.14 147.468 585.98 147.468H562.59L562.6 147.478ZM577.54 143.698C580.81 144.418 583.55 144.778 585.76 144.778C591.73 144.778 596.68 142.678 600.62 138.488C604.56 134.298 606.52 128.608 606.52 121.428C606.52 114.248 604.55 108.498 600.62 104.328C596.68 100.158 591.63 98.0778 585.45 98.0778C583.13 98.0778 580.5 98.4478 577.54 99.1978V143.698Z" fill="white"/>
<path d="M654.49 129.958H634.23L630.68 138.218C629.8 140.248 629.37 141.768 629.37 142.768C629.37 143.568 629.75 144.268 630.51 144.868C631.27 145.478 632.91 145.868 635.43 146.048V147.478H618.95V146.048C621.14 145.658 622.55 145.158 623.2 144.538C624.51 143.308 625.97 140.798 627.56 137.008L645.97 93.9379H647.32L665.54 137.468C667.01 140.968 668.34 143.238 669.53 144.278C670.73 145.318 672.39 145.908 674.53 146.038V147.468H653.88V146.038C655.96 145.938 657.37 145.588 658.11 144.998C658.84 144.408 659.21 143.688 659.21 142.838C659.21 141.708 658.69 139.918 657.67 137.478L654.51 129.948L654.49 129.958ZM653.41 127.098L644.53 105.948L635.42 127.098H653.4H653.41Z" fill="white"/>
<path d="M684.19 151.758C683.97 149.598 683.55 148.148 682.94 147.398C682.06 146.388 680.48 145.708 678.19 145.348V144.358C680.39 144.488 682.57 144.618 684.73 144.758C685.61 144.758 686.05 144.358 686.05 143.568V125.408C685.65 125.628 685.06 125.978 684.27 126.468C683.04 127.218 682.11 127.768 681.5 128.118C681.24 128.998 680.73 129.598 679.98 129.898L677.01 122.368C678.81 121.968 681.83 121.178 686.05 119.988V106.918H678.26L677.73 105.008H686.05V90.4178L694.44 91.2778C694.31 92.2878 693.49 92.9079 692 93.1279V105.008H693.32L696.36 100.588C698.21 102.348 700.03 104.108 701.84 105.868C701.66 106.568 701.09 106.928 700.12 106.928H692V118.288C693.41 117.888 695.57 117.258 698.47 116.368L698.67 117.158C696.16 118.918 693.94 120.418 692 121.648V144.028C692 146.538 691.56 148.298 690.68 149.308C689.62 150.588 687.47 151.398 684.21 151.748L684.19 151.758ZM714.23 151.688V136.568C709.52 141.808 703.14 145.988 695.08 149.118L694.49 148.198C701.31 143.968 706.59 138.428 710.34 131.558H697.27L696.74 129.648H714.24V123.508L719.65 124.038V107.398L725.39 109.708H730.87L733.51 106.938L739.25 111.228C738.68 111.798 737.89 112.178 736.87 112.348V122.058C736.83 122.318 736.3 122.648 735.29 123.048C734.19 123.448 733.22 123.638 732.38 123.638H731.46V121.858H724.86V122.718C724.86 122.938 724.57 123.208 724 123.508C723.29 123.858 722.48 124.098 721.56 124.238L722.22 124.308C722.09 125.098 721.45 125.588 720.3 125.758V129.658H728.95L732.65 124.968C733.44 125.588 734.24 126.218 735.03 126.878C736.79 128.328 738.2 129.538 739.26 130.508C739.13 131.218 738.53 131.568 737.48 131.568H722.23C724.21 133.988 726.87 136.188 730.22 138.168C733.3 140.018 736.49 141.428 739.79 142.388L739.66 143.118C737.24 143.648 735.65 145.498 734.91 148.668C728.48 144.928 723.71 139.228 720.58 131.568H720.32V149.988C720.32 150.298 719.77 150.648 718.67 151.048C717.57 151.488 716.49 151.708 715.43 151.708H714.24L714.23 151.688ZM698.78 124.878V107.378L704.46 109.688H709.61L712.18 107.048L717.66 111.138C717.22 111.668 716.49 112.018 715.48 112.198V122.238C715.44 122.498 714.91 122.828 713.89 123.228C712.83 123.668 711.89 123.888 711.05 123.888H710.13V121.778H703.92V123.298C703.92 123.558 703.52 123.868 702.73 124.218C701.81 124.658 700.75 124.878 699.56 124.878H698.77H698.78ZM703.93 119.858H710.14V111.608H703.93V119.858ZM705.84 107.178V90.9379L712.38 93.5779H723.01L725.85 90.5379L731.86 95.0278C731.42 95.5578 730.65 95.9279 729.55 96.1479V104.728C729.5 105.038 728.93 105.388 727.83 105.788C726.64 106.278 725.56 106.518 724.59 106.518H723.6V104.938H711.72V105.398C711.72 105.708 711.28 106.058 710.4 106.458C709.39 106.948 708.22 107.188 706.9 107.188H705.84V107.178ZM711.72 103.088H723.6V95.4279H711.72V103.088ZM724.86 119.928H731.46V111.608H724.86V119.928Z" fill="white"/>
<path d="M744.54 151.688L743.75 150.698C750.57 145.948 755.83 140.578 759.53 134.588C762.61 129.568 764.7 123.888 765.8 117.558C766.55 113.328 766.99 107.678 767.12 100.588H747.44L746.85 98.7378H792.27L795.97 94.7778L802.44 100.458C801.87 101.118 800.88 101.538 799.47 101.708C799.21 115.528 798.7 125.808 797.95 132.538C797.11 140.378 795.79 145.308 793.99 147.328C791.88 149.748 788.66 150.958 784.35 150.958C784.35 148.668 783.87 147.058 782.9 146.138C781.58 144.998 778.89 144.048 774.84 143.298L774.91 142.308C780.81 142.838 784.48 143.098 785.94 143.098C787.13 143.098 788.05 142.788 788.71 142.178C789.99 140.988 790.98 136.588 791.68 128.968C792.25 122.498 792.69 113.038 793 100.578H774.25C773.94 108.278 773.26 114.448 772.2 119.068C770.61 125.758 767.89 131.588 764.01 136.568C759.39 142.468 752.9 147.508 744.53 151.688H744.54Z" fill="white"/>
<path d="M5.89038 232.888L5.49042 232.308C8.70042 229.698 11.0904 226.248 12.6604 221.968C11.7404 220.158 10.9204 217.918 10.2104 215.238C9.17039 217.318 8.40038 218.778 7.89038 219.608C8.19038 220.058 8.14038 220.408 7.76038 220.678L5.40039 218.098C6.97039 216.818 8.43039 215.488 9.77039 214.088L10.1704 212.128L11.8604 212.708L10.6604 214.358C11.4004 216.678 12.2604 218.618 13.2404 220.198C14.1604 217.288 14.8004 213.708 15.1604 209.458H11.6004C11.2404 210.198 10.8904 210.908 10.5304 211.598C9.4604 211.958 8.20042 211.838 6.74042 211.238C9.15042 206.218 11.3104 201.318 13.2404 196.538H6.42041L6.02039 195.248H13.2404L15.2004 193.108L19.3404 196.588C18.9804 196.948 18.2904 197.198 17.2504 197.348C15.5304 201.298 13.8504 204.908 12.2204 208.178H14.8004L16.9404 205.948L20.9104 209.338C20.6704 209.698 20.1404 209.928 19.3104 210.048C18.5704 215.478 17.3204 219.848 15.5704 223.148C17.5304 225.048 20.1104 226.368 23.3204 227.118C25.9904 227.708 29.7804 228.008 34.6804 228.008C41.0904 228.008 45.3904 227.978 47.5604 227.918V228.498C46.0204 228.828 45.1804 229.968 45.0604 231.928H34.4104C29.2404 231.928 25.2304 231.468 22.3804 230.548C19.0804 229.508 16.4604 227.668 14.4904 225.028C12.3504 228.298 9.49038 230.928 5.89038 232.918V232.888ZM28.8804 227.048V221.118H18.8604L18.5004 219.828H28.8804V215.148H20.5004L20.1904 213.858H28.8804V209.268H21.0804L20.6804 207.978H28.8804V203.388H18.1404L17.7804 202.098H28.8704V197.598H21.1604L20.7604 196.308H28.8704V191.498L34.5304 192.078C34.4404 192.758 33.9104 193.178 32.9304 193.328V196.318H37.7004L39.6604 194.228L43.8904 197.438C43.5304 197.858 42.9204 198.148 42.0604 198.328V202.118H42.5104L44.5104 199.138C44.9204 199.558 45.3604 199.968 45.8004 200.388C46.7504 201.338 47.4804 202.108 47.9804 202.708C47.8904 203.178 47.5004 203.418 46.8204 203.418H42.0504V209.698C42.0204 209.878 41.6304 210.098 40.8904 210.368C40.0604 210.668 39.3504 210.818 38.7504 210.818H38.1304V209.308H32.9204V213.898H38.3604L40.5904 210.958C41.9904 212.118 43.3704 213.288 44.7304 214.478C44.6404 214.948 44.2504 215.188 43.5704 215.188H32.9204V219.868H39.2004L41.7404 216.708C42.2804 217.128 42.8204 217.558 43.3904 217.998C44.6404 218.978 45.6204 219.798 46.3304 220.448C46.2104 220.928 45.8104 221.158 45.1304 221.158H32.9204V225.878C32.9204 226.088 32.5804 226.338 31.9004 226.638C31.1604 226.938 30.4104 227.088 29.6704 227.088H28.8704L28.8804 227.048ZM32.9304 202.098H38.1404V197.598H32.9304V202.098ZM32.9304 207.978H38.1404V203.388H32.9304V207.978Z" fill="white"/>
<path d="M75.2104 232.888V223.488C70.9004 227.498 64.7404 230.428 56.7204 232.268L56.4104 231.648C62.9104 229.148 67.9004 225.748 71.3804 221.448H57.6604L57.2604 220.158H75.2204V216.418C73.7604 217.068 71.7704 217.648 69.2504 218.158L68.8504 217.448C71.3504 216.798 73.3104 215.858 74.7304 214.638C76.0104 213.538 76.9404 212.118 77.5404 210.358H72.7304L72.3704 209.068H77.8904C78.1604 207.878 78.3204 206.398 78.3804 204.608H74.6404L74.2404 203.318H87.2904L87.7804 202.828C87.2704 202.828 86.7404 202.618 86.1804 202.208C86.0604 200.808 85.4404 199.298 84.3104 197.668H81.7304C79.8604 199.658 77.7504 201.288 75.4004 202.568L74.8204 202.078C76.0104 200.858 77.1404 199.318 78.2104 197.448C79.3104 195.518 80.2104 193.498 80.9304 191.388L86.2304 193.258C85.9904 193.878 85.4104 194.148 84.4904 194.058C84.0104 194.828 83.4704 195.598 82.8404 196.378H91.2604L93.6204 193.478C94.1204 193.868 94.6404 194.268 95.1804 194.678C96.3404 195.568 97.2604 196.328 97.9404 196.948C97.8204 197.428 97.4204 197.658 96.7404 197.658H87.2104C88.2804 198.168 89.0404 198.798 89.4804 199.578C89.8404 200.228 89.9104 200.868 89.7004 201.498L93.0904 204.348C92.7604 204.708 92.2704 204.928 91.6204 205.018V212.328C91.6204 212.568 91.6604 212.718 91.7304 212.778C91.8004 212.838 91.9904 212.868 92.2904 212.868H94.5604C94.8304 212.868 95.0304 212.748 95.1804 212.508C95.3904 212.148 95.8204 210.818 96.4704 208.498C96.5004 208.408 96.5104 208.338 96.5104 208.278H97.0004L97.1304 212.598C97.9304 212.958 98.3304 213.478 98.3304 214.158C98.3304 214.928 97.9104 215.498 97.0804 215.848C96.2504 216.208 94.9004 216.378 93.0304 216.378H90.9404C89.5404 216.378 88.6404 216.138 88.2204 215.668C87.8604 215.248 87.6904 214.408 87.6904 213.128V210.148C87.4504 210.298 87.1704 210.368 86.8404 210.368H81.3604C80.4404 212.868 78.6904 214.748 76.1004 216.028L80.9604 216.478C80.8704 217.128 80.3504 217.528 79.4004 217.678V220.178H90.7604L93.1704 217.328C94.6504 218.458 96.1304 219.598 97.5804 220.758C97.4904 221.228 97.0904 221.468 96.3804 221.468H80.8804C82.8704 223.018 85.5304 224.348 88.8504 225.478C91.9104 226.518 95.0704 227.248 98.3404 227.658L98.2904 228.148C96.5104 228.568 95.3604 229.868 94.8604 232.068C91.5604 231.088 88.6104 229.708 85.9904 227.928C83.2904 226.118 81.1004 223.968 79.4404 221.468H79.4004V231.888C79.4004 232.068 79.0304 232.278 78.2904 232.508C77.4904 232.778 76.7104 232.908 75.9704 232.908H75.2104V232.888ZM59.4804 218.098L57.2104 213.688C59.5904 213.418 61.9604 213.108 64.3404 212.748V205.928H58.7304L58.3704 204.638H68.6604L70.4404 202.408C69.5804 202.938 68.7004 202.808 67.8104 202.008C67.8104 200.638 67.3604 199.188 66.4704 197.638H64.6404C62.4104 200.278 59.8404 202.358 56.9304 203.878L56.4004 203.348C57.8004 201.978 59.1204 200.258 60.3604 198.178C61.6704 196.008 62.7204 193.748 63.5204 191.408L68.7804 193.638C68.5104 194.228 67.9204 194.438 67.0004 194.258C66.4104 195.208 65.9604 195.908 65.6604 196.348H72.2104L74.3504 193.588C74.8204 193.978 75.2904 194.358 75.7304 194.748C76.7704 195.638 77.5904 196.368 78.1804 196.928C78.0604 197.408 77.6804 197.638 77.0204 197.638H68.8704C70.1804 198.318 70.9804 199.128 71.2804 200.048C71.5204 200.848 71.3704 201.538 70.8304 202.098C70.8904 202.158 71.0204 202.258 71.2304 202.408C72.8004 203.628 73.9504 204.558 74.6604 205.218C74.5704 205.688 74.1804 205.928 73.5004 205.928H68.2004V212.118C68.5604 212.058 69.0904 211.968 69.8004 211.848C71.7904 211.548 73.2904 211.308 74.3004 211.138L74.3904 211.808C71.3304 213.088 66.7104 214.838 60.5304 217.068C60.3504 217.598 60.0004 217.948 59.4604 218.088L59.4804 218.098ZM87.6804 209.318V204.598H82.4704C82.3204 206.288 82.0804 207.778 81.7604 209.058H82.9204L84.7004 206.648C85.7104 207.538 86.7004 208.428 87.6904 209.318H87.6804Z" fill="white"/>
<path d="M113.26 216.228C112.31 216.228 111.491 215.898 110.811 215.228C110.131 214.558 109.791 213.748 109.791 212.798C109.791 211.848 110.131 211.038 110.811 210.368C111.491 209.698 112.31 209.368 113.26 209.368C114.21 209.368 115.02 209.698 115.69 210.368C116.36 211.038 116.69 211.848 116.69 212.798C116.69 213.748 116.36 214.558 115.69 215.228C115.02 215.898 114.21 216.228 113.26 216.228Z" fill="white"/>
<path d="M128.67 214.088L128.18 213.638C130.14 211.558 132 208.988 133.75 205.928C135.62 202.688 137.09 199.378 138.16 195.988L144.17 198.438C143.9 199.028 143.31 199.268 142.39 199.148C138.97 205.738 134.4 210.718 128.67 214.068V214.088ZM164.98 232.248C164.09 233.008 162.99 232.878 161.68 231.868C161.23 229.938 160.39 227.858 159.14 225.628C153.05 227.228 144.87 229.018 134.59 230.978C134.26 231.538 133.82 231.868 133.25 231.958L130.98 226.258C132.52 226.228 135.21 226.108 139.04 225.898C141.56 219.508 143.55 212.918 145.01 206.118L151.25 207.678C151.1 208.328 150.54 208.658 149.56 208.658C147.18 214.778 144.18 220.498 140.56 225.808C145.13 225.538 151.13 225.128 158.56 224.558C156.9 221.738 154.86 218.988 152.46 216.318L153 215.958C156.98 217.828 160.11 219.998 162.4 222.458C164.27 224.478 165.4 226.488 165.79 228.468C166.15 230.218 165.88 231.478 164.99 232.228L164.98 232.248ZM166.49 213.518C163.37 211.348 160.72 208.658 158.54 205.428C156.36 202.208 154.78 198.648 153.8 194.758H142.8L142.44 193.508H152.69L154.25 191.098L158.57 194.038C158.07 194.598 156.91 194.928 155.1 195.018C156.26 197.928 158.19 200.658 160.89 203.218C163.68 205.888 166.85 207.928 170.38 209.318L170.29 209.808C169.4 210.078 168.61 210.548 167.93 211.238C167.28 211.918 166.8 212.678 166.5 213.508L166.49 213.518Z" fill="white"/>
<path d="M179.37 201.348L179.01 200.098H192.24L194.38 197.338C194.85 197.728 195.33 198.098 195.8 198.448C196.9 199.338 197.76 200.068 198.38 200.628C198.26 201.108 197.86 201.338 197.18 201.338H179.36L179.37 201.348ZM181.46 207.098L181.1 205.848H190.01L192.06 203.218C192.51 203.578 192.95 203.928 193.4 204.288C194.41 205.148 195.21 205.858 195.81 206.428C195.69 206.878 195.29 207.098 194.61 207.098H181.47H181.46ZM181.46 212.848L181.1 211.558H189.92L191.97 208.928C192.42 209.288 192.88 209.638 193.35 209.998C194.36 210.858 195.16 211.578 195.76 212.138C195.64 212.618 195.25 212.848 194.6 212.848H181.46ZM181.19 232.538V215.658L185.29 217.398H190.64L192.6 215.258L196.74 218.418C196.44 218.838 195.85 219.128 194.96 219.308V229.778C194.93 229.988 194.54 230.238 193.8 230.538C193.03 230.838 192.33 230.988 191.71 230.988H191.09V228.408H185.12V231.348C185.12 231.558 184.76 231.808 184.05 232.108C183.31 232.408 182.55 232.558 181.78 232.558H181.2L181.19 232.538ZM181.68 195.788L181.32 194.538H189.92L192.06 191.778C193.37 192.878 194.67 193.978 195.98 195.078C195.89 195.558 195.5 195.788 194.82 195.788H181.68ZM185.11 227.108H191.08V218.688H185.11V227.108ZM193.57 232.858L193.26 232.238C198.13 230.248 202.13 227.528 205.24 224.088C202.98 221.118 201.33 217.388 200.29 212.908H197.08L196.68 211.618H211.52L213.97 209.208L218.16 212.948C217.86 213.308 217.25 213.498 216.33 213.528C214.73 217.628 212.56 221.088 209.83 223.908C212.92 225.988 216.74 227.578 221.28 228.678L221.23 229.168C219.33 229.498 218.05 230.728 217.4 232.868C213.09 231.148 209.68 228.978 207.15 226.368C203.5 229.278 198.97 231.448 193.56 232.868L193.57 232.858ZM196.38 210.488L195.98 209.958C197.64 208.328 198.79 206.318 199.41 203.948C199.86 202.288 200.08 200.238 200.08 197.798V192.408L204.71 194.188H209.12L211.12 192.008L214.86 195.168C214.53 195.528 214.06 195.748 213.43 195.838V203.718C213.43 203.958 213.48 204.118 213.59 204.208C213.69 204.298 213.89 204.338 214.19 204.338H215.66C216.4 204.338 216.85 204.318 217 204.298C217.27 204.298 217.49 204.148 217.67 203.848C218 203.078 218.46 201.368 219.05 198.728H219.58L219.71 203.988C220.48 204.378 220.87 204.928 220.87 205.638C220.87 206.408 220.45 206.988 219.62 207.378C218.7 207.768 217.24 207.958 215.25 207.958H212.93C211.51 207.958 210.57 207.718 210.12 207.248C209.73 206.828 209.54 205.968 209.54 204.668V195.448H203.97V197.808C203.97 203.778 201.43 208.008 196.35 210.508L196.38 210.488ZM207.12 221.808C209.14 219.078 210.64 216.108 211.62 212.898H201.2C202.42 216.348 204.39 219.318 207.12 221.808Z" fill="white"/>
<path d="M235.82 216.228C234.87 216.228 234.05 215.898 233.37 215.228C232.69 214.558 232.35 213.748 232.35 212.798C232.35 211.848 232.69 211.038 233.37 210.368C234.05 209.698 234.87 209.368 235.82 209.368C236.77 209.368 237.58 209.698 238.25 210.368C238.92 211.038 239.25 211.848 239.25 212.798C239.25 213.748 238.92 214.558 238.25 215.228C237.58 215.898 236.77 216.228 235.82 216.228Z" fill="white"/>
<path d="M251.68 231.868L251.32 231.338C253.34 230.208 255.33 228.798 257.29 227.108C259.22 225.448 260.71 223.868 261.75 222.388L266.83 224.928C266.56 225.408 266.03 225.568 265.23 225.418C263.74 226.728 261.78 227.968 259.35 229.158C256.83 230.378 254.27 231.278 251.69 231.878L251.68 231.868ZM251.77 209.728L251.41 208.438H269.45V204.788H262.23V205.678C262.23 205.918 261.84 206.188 261.07 206.478C260.27 206.808 259.47 206.968 258.66 206.968H258.04V192.218L262.5 194.048H280.77L282.86 191.778L287.32 195.118C286.93 195.568 286.31 195.878 285.45 196.058V205.188C285.42 205.368 285 205.588 284.2 205.858C283.34 206.128 282.58 206.258 281.93 206.258H281.22V204.788H271.51L275.12 205.098C275.06 205.718 274.59 206.108 273.69 206.258V208.438H285.32L287.68 205.498C288.22 205.888 288.73 206.288 289.24 206.698C290.43 207.618 291.36 208.388 292.05 209.018C291.93 209.488 291.53 209.728 290.85 209.728H251.78H251.77ZM268.16 232.848C268.1 231.508 267.82 230.588 267.31 230.088C266.72 229.438 265.56 228.988 263.83 228.748V228.128C265.46 228.218 267.08 228.308 268.69 228.398C269.28 228.398 269.58 228.148 269.58 227.638V220.508H263.3V221.218C263.3 221.428 262.9 221.678 262.1 221.978C261.24 222.338 260.42 222.518 259.65 222.518H259.03V211.068L263.57 212.898H279.7L281.75 210.668L286.25 214.008C285.89 214.428 285.28 214.718 284.42 214.898V221.088C284.39 221.238 283.96 221.448 283.13 221.708C282.24 221.978 281.48 222.108 280.86 222.108H280.15V220.508H273.82V227.728C273.82 229.328 273.49 230.488 272.84 231.208C272.01 232.098 270.45 232.648 268.16 232.858V232.848ZM262.24 198.718H281.22V195.288H262.24V198.718ZM262.24 203.488H281.22V200.018H262.24V203.488ZM263.31 219.258H280.15V214.138H263.31V219.258ZM289.42 231.528C288.71 232.198 287.8 232.278 286.7 231.778C285.9 230.648 284.66 229.398 283 228.038C281.1 226.498 279.05 225.158 276.85 224.028L277.07 223.448C280.93 223.748 284 224.458 286.29 225.588C288.16 226.508 289.35 227.608 289.85 228.888C290.27 229.988 290.12 230.868 289.4 231.538L289.42 231.528Z" fill="white"/>
<path d="M320.87 232.798L320.65 232.128C322.02 231.358 323.13 230.538 323.99 229.678C323.81 229.768 323.59 229.808 323.32 229.808H308.66V231.588C308.66 231.768 308.39 231.988 307.86 232.258C307.21 232.588 306.46 232.748 305.63 232.748H304.96V219.248C304.01 220.318 303.04 221.288 302.06 222.148L301.44 221.698C303.61 218.518 305.33 214.348 306.61 209.178L311.33 210.778C311.12 211.398 310.59 211.698 309.73 211.668C309.4 212.408 309 213.178 308.53 213.988L309.24 214.298H313.12C313.15 214.058 313.19 213.678 313.25 213.138C313.49 211.538 313.62 210.408 313.65 209.748L318.86 210.508C318.77 211.158 318.25 211.518 317.3 211.578C316.53 212.498 315.65 213.408 314.67 214.298H318.63L320.55 211.938C320.96 212.268 321.38 212.588 321.8 212.918C322.78 213.688 323.55 214.348 324.12 214.878C324 215.348 323.62 215.588 322.96 215.588H316.32V218.968H318.24L320.02 216.698C320.44 217.028 320.84 217.338 321.22 217.638C322.14 218.378 322.85 219.008 323.36 219.508C323.24 219.988 322.87 220.218 322.25 220.218H316.33V223.688H318.25L320.08 221.418C320.47 221.748 320.87 222.068 321.28 222.398C322.17 223.138 322.87 223.768 323.37 224.268C323.28 224.738 322.92 224.978 322.3 224.978H316.33V228.498H318.74L320.79 225.918C322.04 226.958 323.27 228.008 324.49 229.078L324.45 229.208C325.67 227.928 326.57 226.448 327.17 224.748C327.67 223.268 327.99 221.408 328.11 219.178C327.52 219.478 326.74 219.628 325.79 219.628H325.17V196.778C325.02 196.898 324.78 196.958 324.46 196.958H318.89V198.698C318.89 198.878 318.67 199.058 318.22 199.228C317.66 199.468 316.9 199.588 315.95 199.588H315.28V196.958H310.6V198.828C310.6 199.008 310.38 199.188 309.93 199.368C309.37 199.578 308.62 199.678 307.7 199.678H306.99V196.958H302.09L301.78 195.668H306.99V191.478L311.94 191.928C311.88 192.578 311.44 192.978 310.6 193.128V195.668H315.28V191.478L320.27 191.968C320.21 192.618 319.75 193.008 318.89 193.128V195.668H320.63L322.37 193.398C323.32 194.198 324.26 195.018 325.18 195.848V193.178L329.41 194.828H336.85L338.81 192.598L342.77 195.628C342.35 196.078 341.76 196.358 340.99 196.478V217.998C340.99 218.178 340.68 218.398 340.05 218.668C339.34 218.968 338.55 219.118 337.69 219.118H337.42V227.898C337.42 228.168 337.46 228.338 337.55 228.408C337.64 228.488 337.83 228.518 338.13 228.518H340.36C340.63 228.488 340.83 228.328 340.96 228.028C341.09 227.728 341.35 226.708 341.74 224.958C341.98 223.918 342.16 223.128 342.27 222.598H342.81L342.94 228.208C343.39 228.388 343.68 228.608 343.83 228.878C343.95 229.118 344.01 229.438 344.01 229.858C344.01 231.398 342.33 232.178 338.98 232.178H336.98C335.67 232.178 334.81 231.938 334.4 231.468C334.04 231.078 333.87 230.268 333.87 229.018V217.658H331.95C331.71 221.728 330.81 224.888 329.23 227.148C327.54 229.588 324.76 231.468 320.9 232.808L320.87 232.798ZM303.32 209.898V199.878L306.84 201.348H308.93L310.4 199.838L313.7 202.248C313.46 202.608 313 202.828 312.32 202.918V208.438C312.29 208.588 311.97 208.778 311.36 209.018C310.75 209.258 310.22 209.378 309.78 209.378H309.29V207.948H306.3V208.928C306.3 209.078 306.08 209.268 305.63 209.508C305.07 209.778 304.44 209.908 303.76 209.908H303.31L303.32 209.898ZM306.31 206.688H309.3V202.638H306.31V206.688ZM308.67 218.988H312.68V215.608H308.67V218.988ZM308.67 223.708H312.68V220.238H308.67V223.708ZM308.67 228.518H312.68V224.998H308.67V228.518ZM314.15 209.408V199.878L317.76 201.348H319.85L321.36 199.788L324.7 202.238C324.43 202.568 323.94 202.808 323.23 202.948V208.248C323.2 208.398 322.89 208.588 322.29 208.828C321.7 209.068 321.16 209.188 320.69 209.188H320.2V207.938H317.17V208.428C317.17 208.578 316.95 208.768 316.5 209.008C315.94 209.278 315.31 209.408 314.63 209.408H314.14H314.15ZM317.18 206.688H320.21V202.638H317.18V206.688ZM328.9 201.918H337.01V196.128H328.9V201.918ZM328.9 209.088H337.01V203.208H328.9V209.088ZM328.9 216.348H337.01V210.378H328.9V216.348Z" fill="white"/>
<path d="M640.35 232.888C640.14 231.548 639.71 230.628 639.06 230.128C637.96 229.418 636.34 228.928 634.2 228.658V227.988C636.61 228.108 639 228.238 641.37 228.388C642.17 228.388 642.57 228.018 642.57 227.278V196.318H615.48V231.288C615.48 231.588 615.14 231.908 614.46 232.268C613.72 232.658 612.92 232.848 612.05 232.848H611.34V193.108L615.84 195.018H642.13L644.18 192.658L648.64 196.138C648.22 196.618 647.6 196.928 646.77 197.078V227.688C646.77 229.318 646.41 230.498 645.7 231.208C644.78 232.098 643 232.668 640.35 232.898V232.888ZM618.43 203.308L618.07 202.018H633.66L636.02 199.028C636.56 199.448 637.09 199.848 637.62 200.228C638.84 201.178 639.8 201.968 640.52 202.588C640.4 203.068 640 203.298 639.32 203.298H618.43V203.308ZM620.66 224.868V207.048L624.85 208.788H632.73L634.69 206.738L638.83 209.858C638.53 210.248 637.98 210.508 637.18 210.658V222.638C637.15 222.848 636.75 223.098 635.98 223.398C635.18 223.728 634.45 223.888 633.8 223.888H633.13V219.878H624.62V223.618C624.62 223.828 624.26 224.078 623.55 224.378C622.78 224.708 622.02 224.868 621.28 224.868H620.66ZM624.62 218.628H633.13V210.078H624.62V218.628Z" fill="white"/>
<path d="M659.51 207.228L659.11 205.978H667.08V194.888L672.56 195.418C672.47 196.008 671.98 196.388 671.09 196.528V205.978H677.77V191.458L683.7 191.988C683.61 192.668 683.06 193.088 682.05 193.238V198.588H688.78L691.5 195.288C693.13 196.568 694.77 197.858 696.4 199.168C696.28 199.638 695.86 199.878 695.15 199.878H682.05V205.978H693.1L695.77 202.638C697.4 203.948 699.02 205.248 700.63 206.558C700.51 207.008 700.09 207.228 699.38 207.228H659.51ZM659.55 221.888L659.15 221.358C661.26 219.728 663.29 217.648 665.25 215.118C667.09 212.768 668.5 210.528 669.48 208.388L674.83 211.288C674.53 211.768 673.98 211.928 673.18 211.778C671.61 213.708 669.68 215.538 667.39 217.258C664.84 219.218 662.22 220.758 659.55 221.888ZM662 232.938L661.87 232.178C669.15 230.488 674.85 228.298 678.98 225.628C684.27 222.268 688.48 217.388 691.63 210.968L697.24 213.868C696.94 214.348 696.26 214.508 695.19 214.358C691.21 220.658 686.41 225.228 680.8 228.078C676.2 230.428 669.93 232.048 662 232.938ZM676.3 223.048C676.15 221.648 675.82 220.718 675.32 220.238C674.58 219.588 673.37 219.158 671.71 218.948V218.278C673.46 218.368 675.2 218.468 676.92 218.588C677.48 218.588 677.77 218.338 677.77 217.828V207.228L683.47 207.768C683.38 208.388 682.89 208.768 682 208.878V217.968C682 219.628 681.67 220.788 681.02 221.438C680.22 222.298 678.64 222.838 676.3 223.038V223.048Z" fill="white"/>
<path d="M712.21 232.888V192.438L716.58 194.308H744.56L746.65 191.988L750.93 195.378C750.57 195.828 749.96 196.138 749.1 196.318V231.158C749.04 231.398 748.64 231.678 747.9 232.008C747.1 232.368 746.34 232.538 745.63 232.538H745.01V229.598H716.23V231.338C716.23 231.638 715.9 231.958 715.25 232.318C714.51 232.708 713.72 232.898 712.89 232.898H712.22L712.21 232.888ZM716.22 228.298H745V195.598H716.22V228.298ZM719.52 224.108L717.25 219.698C720.16 219.368 724.69 218.648 730.84 217.518L730.93 218.138C728.35 219.478 724.89 221.108 720.55 223.038C720.34 223.598 720 223.958 719.52 224.108ZM740.82 226.468C739.84 226.138 738.92 225.558 738.06 224.728C736.69 223.358 735.53 221.818 734.58 220.098C731.82 222.918 728.48 225.128 724.56 226.738L724.16 226.158C727.69 223.958 730.75 221.048 733.34 217.428C731.88 213.898 730.93 209.288 730.49 203.618H717.79L717.43 202.328H730.39C730.33 200.988 730.27 198.988 730.21 196.318L735.38 197.298C735.26 197.918 734.76 198.278 733.87 198.368C733.87 199.228 733.9 200.548 733.96 202.328H738.55L739.53 201.078C739.38 201.048 739.13 200.948 738.77 200.768C738.5 200.088 738.06 199.358 737.46 198.588C736.85 197.818 736.23 197.208 735.61 196.758L736.01 196.358C737.61 196.478 738.91 196.788 739.89 197.298C740.69 197.748 741.21 198.298 741.45 198.948C741.63 199.518 741.55 200.018 741.23 200.458C742.45 201.408 743.38 202.228 744.04 202.908C743.92 203.378 743.53 203.618 742.88 203.618H734.01C734.25 207.508 734.8 210.848 735.66 213.638C737.03 211.028 738.07 208.288 738.78 205.438L743.68 207.438C743.35 208.028 742.76 208.268 741.9 208.148C740.65 211.538 739.03 214.548 737.04 217.188C737.87 218.788 738.87 220.158 740.03 221.288C740.3 221.588 740.5 221.728 740.65 221.708C740.8 221.688 740.95 221.508 741.1 221.148C741.66 220.078 742.23 218.638 742.79 216.828L743.28 216.918L742.66 222.848C743.22 223.738 743.56 224.428 743.66 224.918C743.76 225.408 743.68 225.788 743.41 226.058C742.85 226.738 741.98 226.878 740.83 226.458L740.82 226.468ZM719.35 217.108V205.568L722.65 206.908H725.72L727.23 205.388L730.57 207.798C730.27 208.158 729.81 208.378 729.19 208.468V215.198C729.16 215.378 728.85 215.598 728.25 215.868C727.6 216.138 727.02 216.268 726.51 216.268H726.02V214.888H722.41V216.178C722.41 216.328 722.14 216.508 721.61 216.718C720.99 216.988 720.39 217.118 719.83 217.118H719.34L719.35 217.108ZM722.42 213.588H726.03V208.198H722.42V213.588Z" fill="white"/>
<path d="M762.47 232.848V192.708L766.79 194.448H769.91L772.09 192.358L776.05 196.148C775.78 196.508 775.14 196.678 774.14 196.678C771.82 201.548 769.95 205.068 768.53 207.238C772.18 210.358 774.01 213.978 774.01 218.108C774.04 220.308 773.64 221.928 772.81 222.968C771.95 224.068 770.49 224.648 768.44 224.708C768.44 223.278 768.28 222.318 767.95 221.808C767.65 221.478 767.09 221.218 766.26 221.008V231.608C766.26 231.818 765.98 232.068 765.41 232.368C764.73 232.698 763.97 232.858 763.14 232.858H762.47V232.848ZM766.26 220.328H768.53C768.92 220.328 769.23 220.238 769.47 220.058C770.09 219.668 770.41 218.718 770.41 217.208C770.41 213.468 769.41 210.188 767.43 207.358C768.47 203.908 769.39 200.038 770.19 195.728H766.27V220.318L766.26 220.328ZM773.66 214.048L773.26 213.428C775.93 211.588 778.22 209.198 780.12 206.258C781.81 203.588 783.09 200.618 783.95 197.348H779.94C779.82 197.618 779.61 197.988 779.32 198.458C779.2 198.668 779.11 198.818 779.05 198.908C780.71 199.268 781.78 199.868 782.26 200.738C782.65 201.448 782.53 202.038 781.93 202.498C781.32 202.958 780.66 202.908 779.95 202.338C779.77 201.508 779.27 200.678 778.44 199.848C778.05 200.438 777.42 201.308 776.53 202.428C778.16 202.988 779.2 203.748 779.65 204.698C780.01 205.528 779.89 206.188 779.29 206.658C778.7 207.128 778.03 207.088 777.29 206.528C777.11 205.518 776.61 204.438 775.78 203.278C774.47 204.738 773.17 205.908 771.86 206.798L771.33 206.348C772.93 204.658 774.4 202.408 775.74 199.618C776.99 196.978 777.91 194.288 778.5 191.558L783.45 192.668C783.3 193.178 782.77 193.378 781.85 193.288C781.46 194.268 781.06 195.188 780.65 196.048H783.86L785.91 194.048L789.34 196.988C789.1 196.098 788.85 194.808 788.58 193.108L789.29 192.798C790.18 196.778 791.87 200.218 794.37 203.138C795.47 200.818 796.29 198.788 796.82 197.038H791.87L791.47 195.748H796.68L798.82 193.698L802.52 197.258C802.25 197.498 801.67 197.658 800.78 197.748C799.53 199.708 797.63 201.768 795.08 203.938C797.37 206.318 799.99 208.158 802.97 209.458L802.88 209.948C801.22 210.188 800.06 211.268 799.4 213.198C794.44 209.638 791.1 204.328 789.38 197.288C789.14 197.498 788.61 197.648 787.78 197.738C785.34 205.338 780.65 210.778 773.7 214.038L773.66 214.048ZM771.79 230.088L771.34 229.468C772.91 228.218 774.41 226.618 775.84 224.658C777.21 222.848 778.25 221.078 778.96 219.358L783.77 221.678C783.56 222.098 783.07 222.208 782.3 222.038C781.29 223.498 779.79 224.978 777.8 226.498C775.87 227.988 773.86 229.188 771.79 230.108V230.088ZM784.31 232.848C784.25 231.598 783.98 230.738 783.51 230.268C782.89 229.648 781.76 229.218 780.12 228.978V228.358C781.69 228.448 783.25 228.538 784.8 228.628C785.39 228.628 785.69 228.378 785.69 227.868V217.308H776.6L776.24 216.018H794.02L796.34 212.988C796.84 213.408 797.35 213.818 797.85 214.238C799.01 215.188 799.9 215.978 800.52 216.598C800.4 217.078 800.02 217.308 799.36 217.308H789.69V227.908C789.69 229.478 789.38 230.608 788.75 231.298C787.98 232.158 786.49 232.678 784.29 232.858L784.31 232.848ZM780.79 211.148L780.43 209.858H789.16L791.25 207.048C791.72 207.438 792.19 207.818 792.63 208.208C793.7 209.128 794.52 209.868 795.08 210.438C794.99 210.908 794.62 211.148 793.97 211.148H780.78H780.79ZM800.59 229.458C799.86 229.958 799.01 229.888 798.03 229.238C797.2 226.718 795.16 223.628 791.93 219.968L792.38 219.658C795.26 220.608 797.5 221.808 799.11 223.268C800.45 224.488 801.22 225.738 801.43 227.008C801.61 228.138 801.33 228.958 800.61 229.458H800.59Z" fill="white"/>
<g filter="url(#filter0_d_10_328)">
<path d="M84.4403 33.5778H81.6703L81.6104 33.7878C79.6704 40.8378 73.8003 44.7178 65.0903 44.7178C53.5903 44.7178 45.8704 37.1678 45.8704 25.9178C45.8704 14.6678 53.7303 7.05775 64.9703 7.05775C73.8003 7.05775 79.6604 10.9578 81.4904 18.0378L81.5403 18.2478H84.3004L84.2203 17.9078C82.3603 9.56776 75.1603 4.58777 64.9603 4.58777C52.0903 4.58777 43.1003 13.3578 43.1003 25.9178C43.1003 38.4778 51.9303 47.2478 65.0703 47.2478C75.2003 47.2478 82.2203 42.3978 84.3303 33.9278L84.4203 33.5778H84.4403Z" fill="white"/>
<path d="M128.15 25.9778C128.15 12.8678 119.86 5.34778 105.4 5.34778H90.5903V46.4978H105.74C119.98 46.4978 128.15 39.0178 128.15 25.9778ZM94.1403 43.9678L93.2503 43.0778V8.70778L94.1403 7.81778H105.06C118.2 7.81778 125.44 14.2678 125.44 25.9778C125.44 37.6878 118.32 43.9678 105.4 43.9678H94.1403Z" fill="white"/>
<path d="M136.77 36.1578H163.01L163.81 36.6578L168.79 46.4978H171.92L151.03 5.34778H148.71L128.17 46.4978H131.06L135.99 36.6578L136.78 36.1678L136.77 36.1578ZM147.43 13.3478L149.85 8.61778L149.89 8.68777C150.68 10.2278 151.49 11.8378 152.21 13.3478L161.67 32.3978L160.87 33.6878H138.87L138.07 32.4078L147.43 13.3578V13.3478Z" fill="white"/>
<path d="M27.3103 24.5978L18.4402 23.0278C11.4902 21.8978 8.65027 19.7378 8.65027 15.5878C8.65027 10.4078 13.7703 7.05777 21.7003 7.05777C29.6303 7.05777 34.8703 11.0578 35.3603 16.7778L35.3802 17.0378H38.0703L38.0503 16.7378C37.4703 9.47778 30.9003 4.59778 21.7003 4.59778C12.5003 4.59778 6.07025 9.22777 6.07025 15.6078C6.07025 21.0278 9.96026 24.4178 17.6403 25.6878L26.4003 27.1978C33.4403 28.3878 36.5803 30.8378 36.5803 35.1578C36.5803 42.2178 29.2703 44.7378 22.4203 44.7378C12.0003 44.7378 7.74025 39.0578 7.19025 33.6578H4.55029C5.27029 42.0578 12.1103 47.2678 22.4703 47.2678C32.8303 47.2678 39.2103 42.3978 39.2103 35.1578C39.2103 29.5378 35.1003 25.8978 27.3103 24.6178" fill="white"/>
</g>
<path d="M681.48 38.9777V42.0377H645.7V38.9777H681.48ZM678.62 8.52771V11.5077H648.63V8.52771H678.62ZM675.92 23.2377V26.2177H651.28V23.2377H675.92Z" fill="white"/>
<path d="M690.21 16.7777V5.46771H693.07V16.7777H697.51V19.7577H693.07V33.7477C694.86 33.0677 696.6 32.3477 698.31 31.4977V34.5177C694.42 36.3877 690.26 37.9577 685.73 39.2377L685.02 36.1777C686.77 35.7477 688.51 35.2877 690.22 34.7777V19.7677H685.54V16.7877H690.22L690.21 16.7777ZM711.63 5.29771V15.2077L719.96 12.5677C719.88 17.8377 719.29 23.4577 718.17 29.3677L715.55 28.5177C716.3 24.7777 716.86 20.7777 717.22 16.4377L711.63 18.2277V35.1477H708.89V19.0777L703.81 20.6977V38.4277C703.81 39.8777 704.44 40.6377 705.71 40.6377H715.91C716.78 40.6377 717.38 40.3377 717.74 39.7477C718.22 39.0277 718.49 36.8977 718.65 33.4077L721.31 34.2977C721.03 38.6777 720.52 41.3577 719.72 42.2877C719.01 43.0977 717.93 43.5177 716.43 43.5177H704.85C702.31 43.5177 701.08 41.9877 701.08 39.0077V21.5677L698.22 22.4577V19.4777L701.08 18.5877V9.61772H703.82V17.6977L708.9 16.0777V5.27771H711.64L711.63 5.29771Z" fill="white"/>
<path d="M726.35 19.5477L724.76 17.1677C728.29 13.7677 730.91 9.76775 732.66 5.17775L735.32 5.89775C734.92 7.00775 734.45 8.10774 733.97 9.21774H742.5C741.98 7.89774 741.43 6.70774 740.79 5.60774L743.69 5.05774C744.25 6.33774 744.8 7.69775 745.32 9.22775H758.13V11.7777H745.51V14.6677H756.66V17.0477H745.51V19.8577H756.66V22.2377H745.51V25.2578H758.88V27.8477H729.72V15.8577C728.69 17.1377 727.58 18.3677 726.35 19.5577V19.5477ZM741.62 31.1978V28.9877H744.48V31.1978H760.03V33.9577H744.48V44.3378H741.62V33.9577H725.83V31.1978H741.62ZM737.81 37.5378C735.03 39.9577 731.62 42.0877 727.57 43.9577L725.82 41.4877C729.79 39.8277 733.16 37.9177 735.86 35.7077L737.8 37.5378H737.81ZM742.69 11.7677H732.57L732.37 12.1077V14.6577H742.69V11.7677ZM742.69 17.0378H732.37V19.8477H742.69V17.0378ZM742.69 22.2278H732.37V25.2477H742.69V22.2278ZM759.95 41.8378L757.89 44.0078C755.59 41.9277 752.38 39.7177 748.29 37.4177L750.12 35.5078C754.01 37.6378 757.3 39.7177 759.96 41.8477L759.95 41.8378Z" fill="white"/>
<path d="M798.79 44.3378H796.09V42.5078H769.11V44.3378H766.41V6.9978H798.78V44.3378H798.79ZM796.09 39.9178V9.50781H769.11V39.9178H796.09ZM781.25 12.1078V10.4878H783.83V12.1078H793.27V14.1078H783.83V15.8478H791.57V24.8678H791.53C792.56 26.1478 793.43 27.3378 794.07 28.3978L792.36 29.6778C792.04 29.0878 791.65 28.5278 791.25 27.9378L789.38 28.0678V30.5778H793.82V32.7878H789.38V35.5978C789.38 37.4278 788.43 38.3578 786.52 38.3578H782.59L782.07 36.0178C783.34 36.0978 784.57 36.1878 785.72 36.1878C786.51 36.1878 786.91 35.7578 786.91 34.9978V32.7878H771.28V30.5778H786.91V28.1978C782.94 28.4078 778.06 28.6178 772.27 28.7878L772.03 26.9578C775.36 26.8778 778.46 26.8278 781.23 26.7478V24.8778H773.61V15.8578H781.23V14.1178H771.87V12.1178H781.23L781.25 12.1078ZM780.3 35.7978L779.11 37.7078C777.48 36.4278 775.82 35.4578 774.11 34.7678L775.14 33.1078C777.04 33.8278 778.75 34.7278 780.3 35.7878V35.7978ZM781.49 19.6778V17.5078H775.98V19.6778H781.49ZM781.49 21.0778H775.98V23.2878H781.49V21.0778ZM783.59 19.6778H789.26V17.5078H783.59V19.6778ZM789.26 21.0778H783.59V23.2878H789.26V21.0778ZM783.82 26.6478C786.12 26.5678 788.26 26.4778 790.17 26.3978L788.98 24.8678H783.82V26.6578V26.6478Z" fill="white"/>
<path d="M574.64 15.7378C579.92 15.5978 584.17 17.8778 587.94 21.2378C590.53 23.5478 592.96 26.0378 595.5 28.4078C597.34 30.1278 599.36 31.6178 601.71 32.5978C602.29 32.8378 602.92 32.9678 603.52 33.1578C603.61 33.1878 603.7 33.2378 603.79 33.2778C603.71 33.3478 603.65 33.4478 603.56 33.4878C600.23 34.9078 597.9 37.5378 595.51 40.0978C595.04 40.5978 594.52 41.0578 594.04 41.5478C593.72 41.8678 593.42 41.8978 593.02 41.6378C592 40.9778 590.96 40.3578 589.92 39.7378C583.56 35.9278 577.13 32.2178 570.46 28.9778C565.88 26.7578 561.04 25.3878 555.96 24.9378C555.49 24.8978 555.02 24.8978 554.56 24.8678C554.46 24.8678 554.36 24.8178 554.25 24.7878C554.3 24.6778 554.33 24.5278 554.41 24.4578C555.22 23.7478 556.02 23.0278 556.86 22.3578C560.65 19.3378 564.82 17.0978 569.65 16.2978C571.3 16.0178 572.98 15.9178 574.65 15.7478L574.64 15.7378Z" fill="white"/>
<path d="M633.14 25.3978C631.85 25.2778 630.57 25.1378 629.28 25.0278C625.18 24.6778 621.26 25.3978 617.52 27.0678C615.74 27.8678 614.01 28.7878 612.25 29.6478C610.71 30.3978 609.14 31.0478 607.41 31.2378C605.44 31.4678 603.62 31.0078 601.9 30.1378C599.31 28.8378 597.13 26.9778 595.07 24.9778C594.79 24.6978 594.71 24.4878 595.03 24.1578C598.55 20.5778 602.471 17.5878 607.341 16.0678C612.931 14.3278 618.29 15.0478 623.43 17.7078C627.04 19.5778 630.13 22.1378 632.93 25.0678C633.02 25.1678 633.07 25.2978 633.14 25.4178H633.15L633.14 25.3978Z" fill="white"/>
<path d="M605.61 13.9378C605.37 14.0578 605.21 14.1478 605.05 14.2178C603.81 14.7478 602.54 15.2178 601.33 15.8078C598.3 17.2878 595.77 19.3678 593.86 22.1678C593.55 22.6178 593.37 22.7078 592.97 22.2478C589.83 18.7078 585.88 16.3378 581.57 14.5178C581.47 14.4778 581.36 14.4478 581.26 14.3978C581.05 14.2878 580.85 14.1578 580.64 14.0378C580.86 13.9378 581.07 13.8078 581.29 13.7378C585.95 12.3078 589.67 9.52777 592.7 5.76777C592.86 5.57777 593.03 5.38778 593.16 5.17778C593.42 4.77778 593.61 4.81778 593.88 5.17778C596.79 9.03778 600.57 11.7578 605 13.6278C605.17 13.6978 605.34 13.7978 605.6 13.9178L605.61 13.9378Z" fill="white"/>
<path d="M194.28 14.8778L219.17 39.7678" stroke="white" stroke-miterlimit="10"/>
<path d="M219.17 14.8778L194.28 39.7678" stroke="white" stroke-miterlimit="10"/>
<path d="M508.5 14.8778L533.38 39.7678" stroke="white" stroke-miterlimit="10"/>
<path d="M533.38 14.8778L508.5 39.7678" stroke="white" stroke-miterlimit="10"/>
<path d="M416.16 216.378C419.47 218.778 425 220.408 429.49 221.138L429.44 221.638C427.9 222.048 426.95 223.318 426.49 225.268C421.82 223.368 417.24 220.278 414.66 216.388H404.55C400.56 220.328 395.12 223.818 387.78 225.638L387.37 225.098C392.58 222.828 396.75 219.748 399.75 216.398H388.82L388.46 215.088H400.88C401.92 213.768 402.78 212.508 403.51 211.188H399.25V212.098C399.25 212.508 397.39 213.368 395.67 213.368H395.08V198.498L399.57 200.308H416.93L418.7 198.448C417.84 198.948 416.3 199.128 414.67 198.768L415.17 195.958H410.14L409.78 194.638H415.4L416.08 190.648L421.61 191.648C421.47 192.148 421.07 192.648 419.89 192.688L419.53 194.638H423.02L425.11 191.778C425.11 191.778 427.6 193.768 429.05 195.228C428.91 195.728 428.46 195.958 427.83 195.958H419.35L418.9 198.228L418.99 198.138L423.3 201.398C423.03 201.718 422.44 202.078 421.62 202.258V211.368C421.57 211.728 419.49 212.678 418.08 212.678H417.35V211.178H405.52L409.74 212.218C409.56 212.718 409.01 212.988 407.61 212.988C407.07 213.668 406.48 214.398 405.84 215.078H421.62L424.02 212.308C424.02 212.308 426.69 214.208 428.37 215.658C428.23 216.158 427.78 216.388 427.15 216.388H416.18L416.16 216.378ZM388.23 194.618H396.89L396.39 190.808L402.01 191.218C401.97 191.718 401.6 192.218 400.7 192.488L401.02 194.618H402.65L404.78 191.758C404.78 191.758 407.18 193.748 408.63 195.208C408.54 195.708 408.09 195.938 407.45 195.938H401.19L401.51 198.018C400.92 198.788 399.33 199.148 397.48 199.148L397.07 195.928H388.59L388.23 194.608V194.618ZM400.15 220.728C401.51 225.628 399.47 228.798 397.38 229.838C396.07 230.568 394.25 230.378 393.8 229.068C393.39 227.848 394.25 226.848 395.34 226.348C397.2 225.578 399.28 223.358 399.42 220.728H400.15ZM399.24 201.598V205.088H417.33V201.598H399.24ZM399.24 209.848H417.33V206.398H399.24V209.848ZM410.98 217.688C410.89 218.318 410.44 218.638 409.44 218.818V228.608C409.44 231.598 408.85 233.188 404.27 233.598C404.18 232.418 404 231.468 403.5 230.878C402.96 230.288 402.19 229.838 400.46 229.608V228.928C400.46 228.928 403.86 229.198 404.58 229.198C405.21 229.198 405.4 228.968 405.4 228.468V217.138L410.98 217.678V217.688ZM411.21 221.268C419.96 225.798 415.97 232.288 412.93 229.158C412.93 226.668 411.75 223.538 410.66 221.498L411.2 221.268H411.21ZM415.29 220.638C427.76 224.538 424.72 232.608 420.64 229.838C419.73 226.888 417.01 223.268 414.79 220.948L415.29 220.628V220.638Z" fill="white"/>
<path d="M479.13 227.308C480.4 227.808 480.67 228.308 480.67 229.208C480.67 231.068 478.95 231.928 471.51 231.928H466.8C462.58 231.928 461.59 231.018 461.59 227.808V210.078H456.2C455.29 221.728 451.39 229.208 438.2 233.158L437.97 232.568C448.17 227.448 450.85 220.278 451.25 210.078H438.6L438.19 208.768H456.96V191.038L463.08 191.628C462.99 192.258 462.58 192.718 461.4 192.898V208.768H472.69L475.46 205.368C475.46 205.368 478.54 207.678 480.4 209.358C480.26 209.858 479.81 210.088 479.13 210.088H465.98V226.728C465.98 227.548 466.21 227.768 467.75 227.768H471.88C473.51 227.768 474.87 227.768 475.51 227.678C476.1 227.628 476.28 227.498 476.55 226.998C477 226.048 477.68 223.098 478.45 219.788H478.95L479.13 227.318V227.308ZM442.82 193.848C456.06 199.608 452.07 209.348 447.53 205.548C447.08 201.738 444.67 197.208 442.32 194.168L442.82 193.848ZM477.64 196.338C477.41 196.838 476.78 197.158 475.78 197.018C472.79 200.688 469.16 204.318 465.85 206.718L465.35 206.268C467.16 203.228 469.7 198.108 471.56 193.578L477.63 196.338H477.64Z" fill="white"/>
<path d="M496.17 215.888C495.72 221.968 494.22 228.448 489.37 233.298L488.78 232.798C492.13 225.768 492.27 216.978 492.27 208.998V194.718L495.99 195.938C499.44 194.348 503.15 192.308 505.24 190.908L509.77 194.758C509.32 195.208 508.46 195.208 507.19 194.798C504.47 195.568 500.3 196.568 496.36 197.158V202.688H503.3L505.34 200.508L509.69 203.818C509.42 204.178 508.74 204.588 507.79 204.768V217.508C507.74 217.778 505.75 218.598 504.39 218.598H503.76V215.878H496.19L496.17 215.888ZM496.35 204.008V209.128C496.35 210.848 496.35 212.668 496.21 214.568H503.74V204.008H496.35ZM527.18 202.968C527.18 202.968 529.9 205.188 531.58 206.778C531.44 207.278 530.99 207.508 530.36 207.508H525.83V231.628C525.83 231.898 524.47 232.848 522.29 232.848H521.52V207.508H515.81C515.76 215.988 514.59 226.458 503.93 233.208L503.39 232.668C510.51 225.278 511.64 216.028 511.64 207.058V194.088L516.04 195.588C519.85 194.138 523.84 192.188 526.1 190.878L530.95 195.228C530.45 195.638 529.5 195.678 528.23 195.178C525.06 195.908 520.3 196.628 515.81 197.078V206.188H524.74L527.19 202.968H527.18Z" fill="white"/>
<path d="M577.81 208.768C577.49 209.268 576.99 209.358 575.91 209.448C574.05 214.618 571.38 219.148 567.57 222.908C571.65 225.768 576.41 227.848 581.58 229.208L581.44 229.708C579.58 229.938 578.18 231.208 577.45 233.158C572.55 231.258 568.34 228.718 564.89 225.268C560.36 228.848 554.46 231.478 546.8 233.068L546.44 232.438C553.24 230.218 558.63 226.998 562.71 222.918C559.63 219.158 557.27 214.438 555.82 208.638H553.33C551.92 218.158 548.62 226.408 540.41 232.578L539.96 232.168C548.3 222.198 549.8 209.588 549.75 195.808H541.95L541.54 194.498H564.71L566.61 192.368L570.92 195.718C570.6 196.128 570.19 196.258 569.33 196.348L567.83 207.318H570.96L573.59 204.868L577.81 208.768ZM554.33 195.798C554.19 199.788 554.01 203.638 553.51 207.308H563.48L564.93 195.798H554.32H554.33ZM556.73 208.628C558.41 213.528 561.22 217.508 564.75 220.688C567.7 217.198 569.78 213.158 571.14 208.628H556.72H556.73Z" fill="white"/>
<path d="M429.1 12.2977H436.79V15.9377H429.1V17.4577H436.79V21.1077H429.1V22.6277H436.79V26.2777H429.1V27.7977H450.39V26.2777H440.3V22.6277H450.39V21.1077H440.3V17.4577H450.39V15.9377H440.3V12.2977H450.39V10.7777H440.3V5.69775H436.79V10.7777H429.1V12.2977Z" fill="white"/>
<path d="M421.67 21.1077C421.67 21.1077 422.74 19.6877 424.12 17.7077V29.6178H427.37V14.4778H426.28C427.83 12.0678 429 10.0078 429.76 8.33775C429.79 8.33775 429.82 8.33775 429.85 8.33775C430.24 8.33775 430.56 8.02774 430.56 7.63774C430.56 7.52774 430.53 7.42774 430.48 7.32774C430.43 7.23774 430.36 7.15775 430.28 7.09775C430.24 7.06775 430.19 7.03775 430.15 7.01775L426.3 5.18774L426.27 5.32774C426.25 5.39774 424.65 12.2078 420.1 19.8378L420.05 19.9277L421.6 21.1777L421.67 21.0777V21.1077Z" fill="white"/>
<path d="M439.95 34.0878H451.33V32.5678H438.67V29.1378H435.15V32.5678H420.66V34.0878H431.75C430.83 36.2178 428.07 41.1178 421.24 44.2478L421.14 44.2978L421.62 45.4078L421.71 45.3878C421.8 45.3678 430.37 43.6678 435.15 35.2378V47.2478H438.67V35.0778C441.15 42.1378 450.33 45.3478 450.43 45.3878L450.54 45.4278L452.05 41.4878L451.92 41.4578C444.39 39.5378 441.11 35.7978 439.96 34.0978L439.95 34.0878Z" fill="white"/>
<path d="M414.73 24.4778L414.8 24.5778L415 24.4278L416.6 22.1378L416.54 22.0678C415.51 20.9478 414.35 20.0478 413.07 19.3978C411.88 18.7678 410.48 18.3278 409.03 18.1278V16.5478H415.54V15.0278H410.56C412.17 13.6178 413.92 11.9578 415.03 9.88776C415.07 9.88776 415.11 9.90776 415.16 9.90776C415.55 9.90776 415.87 9.59776 415.87 9.20776C415.87 8.99776 415.77 8.80776 415.59 8.65776C415.54 8.61776 415.49 8.58775 415.44 8.55775L412.85 6.93776L412.83 7.11777C412.64 8.75777 411.36 10.8478 409.04 13.3378V5.74776H406.15V15.0378H397.91V8.68776H399.72V7.16776H395.09V4.58777H391.35V7.15776H384.6V24.8278C384.6 40.4978 383.38 46.2378 383.24 46.8478L383.22 46.9478L384.04 47.2778L384.08 47.1678C387.08 40.0478 387.67 34.5878 387.67 27.5878V25.3378H397.92V16.5578H405.7C403.53 18.4678 401.35 20.1878 399.21 21.6578L399.11 21.7278L399.18 21.8278C399.18 21.8278 400.23 23.2778 400.32 23.3978L400.42 23.3278L400.5 23.4078C400.58 23.3278 401.99 22.2378 402.17 22.0978C403.43 21.1578 404.8 20.5678 406.15 20.3878V30.2778H404.13V26.4878C404.46 26.4378 404.72 26.1478 404.72 25.7978C404.72 25.6178 404.65 25.4378 404.52 25.3078C404.39 25.1778 404.21 25.0978 404.01 25.0978H401.5V30.2678H397.65V27.7978H395.05V30.2678H392.2V27.7978H389.59V42.4978C388.96 42.9678 388.34 43.3678 387.8 43.6678L387.68 43.7378L387.77 43.8478C389.56 46.0578 389.66 46.1778 389.66 46.1778C389.8 46.3478 390 46.4378 390.2 46.4378C390.59 46.4378 390.91 46.1278 390.91 45.7378C390.91 45.5878 390.86 45.4478 390.77 45.3278C392.54 43.2178 393.95 40.1678 394.28 39.0478L394.3 38.9878L393.67 38.2878L393.59 38.4078C393.19 38.9878 392.74 39.5578 392.21 40.1378V31.7878H395.06V42.4978C394.43 42.9678 393.81 43.3678 393.27 43.6678L393.15 43.7378L393.24 43.8478C395.02 46.0478 395.13 46.1778 395.13 46.1778C395.27 46.3478 395.46 46.4378 395.67 46.4378C396.06 46.4378 396.38 46.1278 396.38 45.7378C396.38 45.5878 396.33 45.4478 396.24 45.3278C398.01 43.2178 399.42 40.1678 399.75 39.0478L399.77 38.9878L399.14 38.2878L399.06 38.4078C398.66 38.9978 398.21 39.5678 397.68 40.1378V31.7878H401.53V35.8178C401.53 44.9578 398.93 46.7078 398.91 46.7278L398.8 46.7978L398.88 46.8978L399.35 47.2678L399.42 47.2178C404.09 44.0878 404.16 36.2778 404.16 36.1978V31.7978H406.18V41.4378H411.35V47.2378H414V41.4378H415.58V39.9178H414V31.7978H415.58V30.2778H414V25.1078H411.35V30.2778H409.07V20.5378C411.37 21.0678 413.49 22.5278 414.77 24.4678L414.73 24.4778ZM389.99 23.8178H387.64V16.5578H389.99V23.8178ZM389.99 15.0378H387.63V8.68776H389.99V15.0378ZM395.03 23.8178H392.69V16.5578H395.03V23.8178ZM395.03 15.0378H392.69V8.68776H395.03V15.0378ZM411.3 31.7978V39.9178H409.02V31.7978H411.3Z" fill="white"/>
<path d="M401.58 11.3278C401.95 12.0878 402.33 12.9478 402.69 13.8978L402.76 14.0778L405.1 11.4878L405.04 11.4078C404.44 10.6578 403.83 9.94775 403.24 9.30775C402.67 8.68775 402.03 8.12777 401.36 7.64777L401.27 7.58777L400.14 8.89777L400.19 8.96776C400.72 9.74776 401.19 10.5478 401.57 11.3278H401.58Z" fill="white"/>
<path d="M318.18 28.3978C316.08 36.8478 311.95 44.7178 311.91 44.7978L311.86 44.8978L315.3 46.7878L315.33 46.8078C315.38 46.8378 315.43 46.8678 315.49 46.8878C315.57 46.9178 315.65 46.9378 315.73 46.9378C316.12 46.9378 316.44 46.6278 316.44 46.2378C316.44 45.9978 316.31 45.7778 316.11 45.6478C318.78 39.5478 320.59 29.3178 320.61 29.2178L320.63 29.1178L318.22 28.2578L318.19 28.3878L318.18 28.3978Z" fill="white"/>
<path d="M316.04 24.2778C316.42 24.9078 316.73 25.4978 316.98 26.0478L317.06 26.2278L320.07 22.3378L320 22.2678C317.99 20.1178 315.56 18.1678 313.34 16.9378L313.25 16.8878L311.9 18.7378L311.97 18.8078C313.3 20.1378 314.71 22.0278 316.04 24.2778Z" fill="white"/>
<path d="M317.63 7.91779C316.4 6.88779 315.27 6.0678 314.36 5.5378L314.27 5.48779L312.84 7.23779L312.91 7.30779C314.6 9.00779 316.3 11.5178 317.58 14.2078L317.65 14.3678L320.74 11.0278L320.67 10.9478C319.81 9.9178 318.7 8.80779 317.62 7.91779H317.63Z" fill="white"/>
<path d="M333.92 16.0578H341.35V14.5278H333.92V10.0078H342.41V8.48776H333.92V4.58777H330.16V8.48776H321.67V10.0078H330.16V14.5278H322.73V16.0578H330.16V21.4878H320.75V23.0178H343.33V21.4878H333.92V16.0578Z" fill="white"/>
<path d="M323.2 47.1678H326.96V38.7178H337.82C337.81 40.6478 337.78 42.1178 337.75 43.2178C337.74 43.7478 337.62 44.0978 337.4 44.2778C337.04 44.5678 336.41 44.4378 335.67 44.2878L335.41 44.2378L336.28 47.2378H336.37C336.5 47.2378 336.63 47.2378 336.76 47.2378C339.03 47.2378 341.49 46.6878 341.61 43.2278V25.7878H323.2V47.1578V47.1678ZM326.96 27.3278H337.84V31.4378H326.96V27.3278ZM326.96 32.9578H337.84C337.84 34.3378 337.84 35.7878 337.84 37.1978H326.97V32.9578H326.96Z" fill="white"/>
<path d="M379.22 23.9078H365.71V21.2778H361.52V23.9078H348V25.4378H379.22V23.9078Z" fill="white"/>
<path d="M358.13 40.8378L355.66 38.2578L355.58 38.3678C355.58 38.3678 352.3 42.7678 348.01 45.4178L347.91 45.4778L348.86 47.1578L348.95 47.1178C348.95 47.1178 353.85 45.2078 357.2 41.8878C357.32 41.9778 357.47 42.0178 357.62 42.0178C358.01 42.0178 358.33 41.7078 358.33 41.3178C358.33 41.2178 358.31 41.1078 358.26 41.0178C358.23 40.9578 358.19 40.8978 358.13 40.8378Z" fill="white"/>
<path d="M377.54 42.2977C375.51 40.8577 373.07 39.4677 370.86 38.4877L370.76 38.4478L369.69 40.2578L369.77 40.3177C371.54 41.7777 374.78 44.6077 376.69 47.2077L376.78 47.3378L379.48 43.7977L379.39 43.7278C378.86 43.2778 378.24 42.8077 377.54 42.3177V42.2977Z" fill="white"/>
<path d="M355.1 19.2478H372.13V20.9678H375.82V6.50781H351.41V20.9678H355.1V19.2478ZM355.1 8.0278H372.13V12.1178H355.1V8.0278ZM355.1 13.6378H372.13V17.7278H355.1V13.6378Z" fill="white"/>
<path d="M372.13 36.9379H375.82V27.8179H351.42V36.9379H355.11V35.3279H361.89V43.3679C361.88 43.8979 361.74 44.2579 361.46 44.4779C360.94 44.8879 360.03 44.7179 359.14 44.5479L358.69 44.4679L359.5 47.2579H359.59C363.47 47.2479 365.89 46.5979 365.99 43.3879V35.3279H372.14V36.9379H372.13ZM355.1 33.7979V29.3379H372.13V33.7979H355.1Z" fill="white"/>
<path d="M475.57 39.9279C475.57 40.1579 475.47 40.3778 475.3 40.5278C475.14 40.6678 474.94 40.7279 474.74 40.6979C473.21 40.4779 471.83 39.8178 471.82 39.8078L471.59 39.6979L472.34 42.5379H474.86C475.94 42.5179 476.82 42.2979 477.48 41.8979C478.18 41.4679 478.62 40.6378 478.62 39.7178V34.6678H483.18V33.1479H478.62V30.9279H475.57V33.1479H461.38V34.6678H475.57V39.9379V39.9279Z" fill="white"/>
<path d="M466.23 35.2978L466.12 35.2578L465.54 36.7978L465.61 36.8478C466.47 37.4778 468.09 38.8378 469.28 40.8078L469.39 40.9878L470.86 37.9778L470.79 37.9178C470.79 37.9178 468.86 36.1978 466.22 35.2878L466.23 35.2978Z" fill="white"/>
<path d="M456.9 7.04785V47.2478H460.42V45.3878H484.14V47.2478H487.66V7.04785H456.91H456.9ZM484.13 43.8578H460.41V8.56786H484.13V43.8578Z" fill="white"/>
<path d="M470.82 15.8078H464.54C463.674 15.8078 463.24 15.8479 463.24 15.9279V25.4678H466.02V24.7879H470.83V28.2478C467.89 28.3678 465.1 28.3078 462.55 28.0578H462.42V28.1779C462.5 29.6979 462.52 30.2579 462.56 30.4579H462.53C462.53 30.7179 462.65 30.9279 462.86 31.0479C463.1 31.1779 463.43 31.1679 463.67 31.0179C463.84 30.9079 463.94 30.7378 463.95 30.5278C467.59 30.3778 475.96 29.8479 478.59 28.2379C479.53 29.4779 480.23 30.7979 480.67 32.1479L480.74 32.3479L482.79 29.8279L482.74 29.7579C482.74 29.7579 481.1 27.4278 478.54 25.9678L478.45 25.9178L477.66 27.1078L477.72 27.1779C477.82 27.2879 477.94 27.4279 478.08 27.5779C477.38 27.6779 475.89 27.8779 473.9 28.0479V24.7778H478.71V25.4579H481.49V15.7979H473.9V13.8078H482.8V12.2879H473.9V9.67786H470.84V12.2879H461.79V13.8078H470.84V15.7979L470.82 15.8078ZM470.82 23.2679H466.01V21.0578H470.82V23.2679ZM470.82 19.5379H466.01V17.3279H470.82V19.5379ZM473.88 17.3279H478.69V19.5379H473.88V17.3279ZM473.88 21.0578H478.69V23.2679H473.88V21.0578Z" fill="white"/>
<path d="M296.1 7.35779H274.89V12.6578H269.59V7.35779H248.38C245.45 7.35779 243.08 9.72779 243.08 12.6578V17.9578H248.38V12.6578H269.59V28.5678H248.38V23.2678H243.08V28.5678C243.08 31.4978 245.45 33.8678 248.38 33.8678H269.59V28.5678H274.89V33.8678H296.1C299.03 33.8678 301.4 31.4978 301.4 28.5678V23.2678H296.1V28.5678H274.89V12.6578H296.1V17.9578H301.4V12.6578C301.4 9.72779 299.03 7.35779 296.1 7.35779Z" fill="white"/>
<path d="M268.09 44.4978L269.49 44.5678V46.3278C269.03 46.4378 268.49 46.4878 268 46.4878C267.5 46.4878 267.13 46.2578 266.91 45.7878C266.61 45.2578 266.53 44.0678 266.59 43.2078C266.64 42.6978 266.66 42.0678 267.04 41.7278C267.41 41.4578 267.83 41.4378 268.29 41.4278C268.89 41.4378 269.6 41.5478 270.18 41.6978L270.38 40.8978C267.18 40.2478 264.69 41.6278 265.49 45.1578C266.08 47.6478 268.83 47.1778 270.69 46.5378V44.0778H268.14L268.09 44.4778V44.4978Z" fill="white"/>
<path d="M277.08 45.9678C276.67 45.4578 276.32 44.7978 275.95 44.2378C277.18 43.8878 277.66 41.9478 276.61 41.1978C275.81 40.6178 274.17 40.8078 273.11 40.8578V47.0178H274.3V44.4278H274.82C275.54 45.7878 276.35 47.6578 278.2 46.9978V46.6978C277.72 46.6978 277.39 46.3578 277.08 45.9778V45.9678ZM274.3 43.9078V41.3578C275.65 41.0178 276.31 42.1778 275.83 43.3378C275.56 43.8878 274.85 43.9278 274.3 43.9078Z" fill="white"/>
<path d="M281.3 40.9878C280.08 41.4178 279.62 42.6278 279.64 43.8778C279.61 45.8178 280.64 47.0778 282.66 47.0478C283.99 47.0778 285.19 46.4778 285.6 45.1978C285.96 44.0678 285.88 42.4878 285.02 41.6078C284.16 40.6878 282.44 40.5978 281.31 40.9878H281.3ZM284.52 44.6278C284.47 45.0378 284.45 45.5678 284.24 45.9078C284.17 46.0178 284.07 46.1078 283.95 46.1678C283.57 46.3578 283.16 46.4178 282.65 46.4178C281.2 46.4578 280.84 45.0978 280.86 43.8778C280.86 43.2778 280.89 42.7978 280.96 42.4378C281.03 42.0678 281.13 41.8378 281.29 41.7178C281.86 41.3378 282.89 41.2578 283.52 41.5478C284.61 42.0978 284.59 43.5278 284.52 44.6178V44.6278Z" fill="white"/>
<path d="M292.23 45.0078C292.21 45.4678 292.25 45.9178 291.91 46.1878C291.56 46.4178 291.15 46.4878 290.68 46.4878C289.63 46.5278 289.26 46.0978 289.27 45.0378V40.8478H288.09V44.9078C288.06 46.4878 289.15 47.0778 290.59 47.0478C291.98 47.0978 293.42 46.2978 293.4 44.8178V40.8378H292.22V44.9978L292.23 45.0078Z" fill="white"/>
<path d="M299.65 41.4678C298.84 40.4978 297.04 40.8678 295.9 40.8778V47.0578H297.08V41.3778C298.07 41.1978 298.8 41.5078 298.79 42.5978C298.81 43.5978 298.35 44.0478 297.41 44.1878L297.48 44.5678C299.06 44.6178 300.24 43.6678 299.96 42.1778C299.91 41.9178 299.82 41.6678 299.65 41.4678Z" fill="white"/>
<path d="M252.54 45.9578C252.57 46.5978 252.27 47.1478 251.66 47.4078L251.89 47.7378C252.96 47.4978 253.93 46.8278 253.88 45.6478V40.7878H252.54V45.9578Z" fill="white"/>
<path d="M245.89 44.0379C245.89 43.4779 245.93 43.0179 246 42.6379C246.07 42.2579 246.21 42.0079 246.41 41.8779C246.89 41.5379 247.42 41.5779 248 41.6279C248.46 41.6779 249.04 41.7579 249.47 41.8779L249.72 40.9679C248.89 40.8179 247.99 40.7279 247.15 40.8679C245.57 41.1279 244.44 42.3479 244.49 44.0079C244.46 45.8979 245.27 47.3679 247.33 47.3279C248.13 47.3279 249 47.1779 249.74 46.8679V46.3379C249.07 46.5479 248.33 46.6279 247.63 46.6379C246.16 46.6079 245.92 45.4479 245.89 44.0379Z" fill="white"/>
<path d="M258.33 40.7878H256.88V45.6678C256.88 46.4778 257.54 47.1378 258.36 47.1378H260.96L261.05 46.4678H258.33V40.7978V40.7878Z" fill="white"/>
<defs>
<filter id="filter0_d_10_328" x="0.310293" y="0.347769" width="175.85" height="51.1601" filterUnits="userSpaceOnUse" color-interpolation-filters="sRGB">
<feFlood flood-opacity="0" result="BackgroundImageFix"/>
<feColorMatrix in="SourceAlpha" type="matrix" values="0 0 0 0 0 0 0 0 0 0 0 0 0 0 0 0 0 0 127 0" result="hardAlpha"/>
<feOffset/>
<feGaussianBlur stdDeviation="2.12"/>
<feColorMatrix type="matrix" values="0 0 0 0 1 0 0 0 0 1 0 0 0 0 1 0 0 0 0.95 0"/>
<feBlend mode="normal" in2="BackgroundImageFix" result="effect1_dropShadow_10_328"/>
<feBlend mode="normal" in="SourceGraphic" in2="effect1_dropShadow_10_328" result="shape"/>
</filter>
</defs>
</svg>
