<svg viewBox="0 0 1315 479" xmlns="http://www.w3.org/2000/svg" xmlns:xlink="http://www.w3.org/1999/xlink" >
<defs>
  <filter id="b0" x="-1" y="-1" width="300%" height="300%" >
    <feGaussianBlur in="SourceGraphic" stdDeviation="5" />
  </filter>
  <filter id="b1" x="-1" y="-1" width="300%" height="300%" >
    <feGaussianBlur in="SourceGraphic" stdDeviation="10" />
  </filter>
<path id="t1" d="M40.5,21.9c0,6.1,1.6,13.7-7.7,10.7c-3-1.1-1.3-8.5-1.7-10.7H12.6l-5.7,0.9c-1.8,0.5-1.4-2.6-2-3.7
	c-0.4-1.2,7.1,0.5,7.7,0.3c0,0,18.5,0,18.5,0c0-11.6-0.4-13,0.7-12.9c17,1.4,9.6,4,8.7,6.1v6.8h17.7c0-11.3-0.3-13,0.7-13
	c16.4,1.2,10.1,3.8,8.8,6.1v6.8h10c2.7,0,3.5-3.1,7.1-6.9c1.8-1.9,7.6,3.9,10,7.5c2,2.9-1,2-27,2c0,8.1,1.5,11.4-5.9,11.3
	c-4.1-0.1-3.6-3.4-3.6-11.3H40.5z M6.5,72.2c-0.9,0.3-1-0.6-0.5-1.1C27.2,49.9,24.1,34,27.3,34c2.1,0,17.1,4,8.7,6
	c-1.7,2.8-3.9,7.7-6.3,10.7c7.4,2.4,2.4,4.5,1.6,5.2c0,39.1,0.7,42-1.7,42.9c-3,1-7.8,1-7.8-3.1c0,0,0-34.9,0-34.9
	C16.7,66,11.6,69.8,6.5,72.2L6.5,72.2z M59.8,84.7c0,3,1,3.6,14.5,3.6c6.8,0,8.7-0.8,11.5-8.6c1.5-4.1,3-5.1,2.9-2.4
	c-0.8,14.5,3.7,7.6,3.7,13.9c0,5.1-8.1,6.9-21.1,6.9c-20.2,0-21-5.6-21-11c0,0,0-48.3,0-48.3c0.3-1.2-0.7-4,1-3.8
	c18.4,1.4,9,4.1,8.6,6.2v21.3c8.7-5.5,16.7-16,20.2-21.2c15.2,10.3,8.1,9.6,5.5,9.5C77.6,57.4,69,62.2,59.8,65.1L59.8,84.7
	L59.8,84.7z M127.5,93.7c0.9,5.6-9.2,7.5-9.5,1.9c0,0,0-86.4,0-86.4c0.6-2.3,8.1,2.2,10.6,3.2c0,0,56.3,0,56.3,0
	c2.1,0.6,3.8-3,4.5-3.3c1.5-2.9,17.3,5.5,9.4,7.5c-2.2,0.3-0.1,77.4-0.8,78.4c0.1,3.9-6.3,5.1-8.9,3.1c-0.9-0.9-0.5-5.2-0.6-6.4
	h-61.1C127.5,91.7,127.5,93.6,127.5,93.7z M188.5,89.1c-0.9-0.2,1.7-75.8-1-73.9h-60.1v73.9L188.5,89.1L188.5,89.1z M175.1,61.9
	c2.4,0.4,7.6,3.3,7.8,6c-3.4,0.6-7.1,2.8-10.6,4c4.4,1.5,7.5,3.3,9.4,5.4c2.5,2.9,0.8,9-3.6,8.1c-6.2-4.3-9-10.2-19.3-15
	c-0.6,2.2,1.6,15.9-1.8,16.4c-2.4,1.2-7.1,0.9-6.8-2.8c0,0,0-12.4,0-12.4c-6.4,4.7-13.4,9-20.1,9.1c9.6-6.5,18.6-13.3,21.9-23.3h-5
	c1.6,5.1-8.9,7.8-8.7,2.3c0,0,0-18.6,0-18.6c1.1-1.9,6.6,1.5,8.2,2.2H167c0.4-0.1,0.7-0.2,1-0.5c2.8-4.7,7.5-0.3,10.8,1.7
	c1.7,1.4,0.7,1.5-1.4,4.6v8.5c-0.1,4.3-9.9,5.1-8.7-0.3h-6.7c-1,1.6-2,3.2-3.1,4.8v6c3.3,0.6,6.4,1.4,9.4,2.4
	C172,67.2,174.3,64.3,175.1,61.9L175.1,61.9z M153,28h-10.6l-5.7,0.9c-1.8,0.5-1.4-2.6-2-3.7c-0.4-1.2,7.1,0.5,7.7,0.3
	c0,0,10.6,0,10.6,0c-0.1-11.5-1.4-8.6,9.9-7.2c2.4,0.4,2.4,2.6,0.3,3.1c-0.7,0.2-1,0.6-1,1.1v3h6.3c2.7-0.4,3.6-5.6,6.6-5.3
	c1.6,1.2,9.4,7.3,4.5,7.9c0,0-17.5,0-17.5,0v7.4h10.2c7.1-5.4,4.8-8.8,12.4,0.6c1.1,1.2,0.2,2-1.3,2c-3,0.1-49.6-0.5-50.6,0.9
	c-1.8,0.5-1.4-2.6-2-3.7c-0.1-0.5,0.2-0.6,1.1-0.4c4.2,0.8,16.7,0.7,21.1,0.7L153,28L153,28z M168.6,54.9v-8.6
	c-1.2-0.7-20.2-0.3-21.6,0v8.6H168.6L168.6,54.9z M221.1,30.9c5.9-1.1,14.8,7.1,15.6,10.2c3.5,8.3-9.2,14.1-9.9,3
	C226.9,37.9,223.5,34.7,221.1,30.9L221.1,30.9z M252.4,24.5c0.6,0.3,0.7,0.8,0.5,1.5L237,69.1c-2.9,6.3,4.1,18.1,1.3,24.4
	c-1.3,4.1-6.5,5.4-9.1,2.2c-5.3-7.4,6.4-23.5-7.4-26.2c-0.6-0.3-0.8-0.7-0.6-1.2c2.3-1.3,6.7,1.1,8.6-1c0,0,21.4-42,21.4-42
	C251.6,24.7,252,24.4,252.4,24.5L252.4,24.5z M229.6,7.4c0.2-0.5,0.7-0.5,1.2-0.5c8.1,1.4,13.6,4.2,16.5,8.4c4.9,7.7-7,15.3-9.2,4.6
	C236.9,13.5,232.6,10.9,229.6,7.4L229.6,7.4z M298.5,37c0.3-0.4,0.6-2,1.2-1.6c2.9,1.9,8.5,3.8,8.9,7.3c-0.4,1.1-2.4,0.1-3.3,0.8
	c-6.1,5.9-12.6,9.9-19.6,12c4.8,15.8,14.4,25,26.3,31.3c-8.2,1.9-8.7,9.9-10.6,8.2c-9.5-8.1-15.9-22.2-19.4-42.4V88
	c0.1,6.8-5.7,10.1-11.3,10c-0.5,0.1-0.8-0.1-0.9-0.8c-2-8.1-8.3-6-9.6-8.9c0.1-0.6,0.6-0.8,1.4-0.8c5.7,0.2,9-0.1,10-1
	c2,0,0.3-35.8,0.9-37.1c-3.2,3.5-3,10.2-5.5,14.3c-6.5,13-15.2,25.1-26.5,28.3c10.2-10.4,19.9-24.3,21-43.7c-3-0.1-9.2,0.1-12.2,0.8
	c-2.3,0.7-1.5-2.1-2.2-3.5c-0.1-1.2,6.9,0.3,7.5,0.1c0,0,6.4,0,6.4,0c5.3-4,0.8-7.3,11.4,0.2c-0.4-0.6,1-14.1-1-13.3
	c-3.5-0.1-12.7-0.1-16,0.8c-2.1,0.5-1.6-2.3-2.2-3.5c-0.1-1.2,6.9,0.3,7.5,0.1c1.6-0.2,9.8,0.6,10.9-0.7c1.7-1.8,2.4-4.4,4.7-3.8
	c4.7,2.7,14.2,6,6.8,9.5c-0.8,0.3-1.3,1-1.3,2c0.6,8.5,2.4,15.1,3.2,17C291.3,49,295.7,43.3,298.5,37L298.5,37z M263.9,7.8
	c0.1-0.5,0.3-0.7,0.8-0.8c9.5-2.8,29.3,5.1,20.3,15.3C276.3,26.1,278.9,13.5,263.9,7.8L263.9,7.8z M328.4,29.3
	c7.3-0.8,14.3,5.2,16.6,10.1c4.1,8.1-8.4,14.3-9.6,3.4C335,36.4,331.2,33.1,328.4,29.3L328.4,29.3z M358.9,26.8
	c0.5,0.3,0.6,0.8,0.4,1.4L345.8,68c-2.4,6.7,4.8,18.9,1.8,25.6c-1.1,4.1-6.4,5.4-9,2.3c-4.1-5.2,0.6-16.3-0.9-22.4
	c-1.5-2.3-4.2-3.9-8.3-4.7c-0.5-0.2-0.7-0.6-0.7-1.1c2.9-1.3,7.9,1.2,10.2-1c0,0,18.7-38.8,18.7-38.8
	C358.1,27,358.5,26.7,358.9,26.8L358.9,26.8z M335,8.5c0.2-0.6,0.9-0.6,1.4-0.6c7.9,1.3,13.1,3.9,15.6,7.8c4.9,7.5-6.6,15.4-9.2,4.7
	c-1.1-5.1-3.6-8.7-7.5-10.8C335.1,9.3,334.9,9,335,8.5z M359,48.5c-1.4,0-1.8-2.2-2.8-3.2c-0.9-0.9,7-1.8,7.2-2.1
	c0-2.1-0.1-21.7,0.1-23.3c0-1.8,12.4,0.1,12.1,2.2c-1,1.1-1.8,2.2-2.6,3.3v15.1l11.1-3.5V9.1c-0.6-3.4,7.6-0.1,10.1-0.2
	c3.1,0.6,3.4,3.2,0.4,4c-0.6,0.1-0.9,0.6-1,1.4V34l9.2-2.9c1.2-1.6,2.2-4.8,4.3-4.7c2.9,0.9,8.5,1.7,10.1,4.8c0.2,1.3-2.2,1.2-1.9,3
	c-0.1,9-0.4,17.1-1,24.2c-0.8,6.7-0.8,9.3-5.5,12.7c-1.5,0.8-5.8,3.2-6.8,1c0-3-1.8-5.2-5.5-6.6c-2.5-2.8,4.2-1.2,5-1.5
	c5.1-2.4,3.5-16.8,4.2-31l-12.2,3.8c-0.9,2.3,2.3,40.9-2.2,40.5c-2.6,1.1-7.3,0.6-7.3-3c0,0,0-34.5,0-34.5L373,43.3v40.9
	c0.1,1.9,1.4,2.9,3.6,3.2c15.3,1.1,28.5,0.5,33.1-0.6c1.5-1,2.9-4.4,4.1-10.2c2.9-3,1.8,4.7,2.1,6.1c0.1,1.8,0.8,3.1,1.9,3.9
	c3.9,2,3.5,6.7-1.1,8.1c-4.7,2.7-38.5,3.6-46,0.7c-4.9-1.4-7-4.7-7.3-8.9c0,0,0-39.9,0-39.9L359,48.5L359,48.5z M463.9,94.8
	c0.2,4.3-5.8,5.3-8.5,3.6c-1.4-0.3-0.1-31.9-0.7-33.2c-3.2,0.1-5.5,0.5-5.3-2.9c-0.1-0.4,0.2-24.8-0.1-25.1
	c-1.7,0.8-17.6,5.2-11.2,1.4c18-7.5,30.7-18.5,38.1-32.9c0.6-1.5,14.8,5.7,10.2,7.4c9.3,8.5,26.9,13.9,40.6,14.8
	c4.4,0.9-5.7,3.1-6,9.3c-0.1,0.7-0.6,0.9-1.3,0.7c-18.1-6.8-29.9-14.9-35.3-24.5c-7.3,7.9-19.2,18.1-34,23.6
	c3.3,0.7,6.2,1.8,8.7,3.4c1.5-0.6,45.1,1.1,46.2-0.6c2.8-5,7.8-0.1,11.2,1.8c3.4,2.6-1.4,2.4-1.5,4.9c0,0,0,15.4,0,15.4
	c-0.1,4.1-9.7,5.4-9.2,0.2h-47.3c-0.3,1.7-1.7,2.3-2.9,2.9c3.4,0.6,6.3,1.8,8.8,3.3h34c1.4-0.3,2.1-2.2,3.4-2.9
	c3.1-0.1,6.2,2.5,8.9,4.1c3.4,2.6-1.4,2.4-1.5,4.9c0,0,0,21.2,0,21.2c-0.1,3.4-6.3,4.6-8.5,2.6c-0.7-1-0.6-2.7-0.6-3.9h-36.1
	L463.9,94.8L463.9,94.8z M477.4,59.5V43.2h-18.9v16.4H477.4z M462.7,44.5c22.9,4.6,3.9,23.5,2.6,8.8
	C465.9,49.1,463.4,47.1,462.7,44.5L462.7,44.5z M500,80.6v-9.4c-0.3-0.4-0.6-0.5-1-0.3h-33.5l-1.6,0.3v9.4H500z M500,91.8v-8.5
	h-36.1v8.5H500z M472.8,31.5h12.5c7.6-5.4,4.2-9.9,13,0.6c1.1,1.2,0.2,2-1.3,2c-4.3,0.1-26.2-0.5-29.9,0.9c-1.8,0.5-1.4-2.6-2-3.7
	C464.7,30.1,472.3,31.7,472.8,31.5z M505.8,59.5V43.2c-0.3-0.5-0.6-0.5-1-0.3h-18.2v16.6h2.8c2.2-4.7,3.5-9.1,3.6-13.1
	c0.4-0.9,0.1-2.2,1-2.1c1.7,0.4,13.1,4.6,7.8,6c-3,2.3-4.9,5.5-9.9,9.3H505.8z M558.8,93.9c0.5,4.6-5.2,6.2-8.4,4.1
	c-0.5-0.5-0.8-1.3-0.8-2.3V40.2C533.1,52.5,557.8,31,560,8.3c1-2.1,18.2,2.3,9.3,4.6c25,6.5,11.1,26.9,6.1,13.3
	c-1.3-4.5-3.7-8.2-7.2-11.1c-2.9,6.3-6.2,11.8-9.7,16.4c0.9-0.2,8.1,0.6,8.5-0.6c1.2-1,2.9-5.5,5.1-4.6c1.3,1.2,7.4,6.9,3.2,7.8
	c0,0-19.1,0-19.1,0c-1.7,1.8-3.4,3.4-5,4.8c2.3,0.6,4.8,1.6,7.6,3h12.2c1.8-0.3,2.2-3.3,4.3-3c2.3,1.2,12.9,4.6,7.3,7.6
	c-0.6,0.2-0.9,0.7-0.9,1.5v17c-0.2,4.3-10.2,5.3-9.1-0.2h-13.9v10.8h11.4c2.5-0.7,3.4-3.8,5.6-5.5c2-1.2,7.9,5.5,7.9,7.4
	c0.6,1.4-24.3,0.4-24.8,0.7v10.5h11.8c2.5-0.7,3.4-3.8,5.6-5.5c2.9-0.7,5.7,4.1,7.5,6c4.8,4-24.6,1.3-24.8,2L558.8,93.9L558.8,93.9z
	 M572.7,52.3v-7.5c-0.3-0.4-0.6-0.5-1-0.3c-1.5,0-11.7-0.2-12.8,0.3v7.5H572.7L572.7,52.3z M572.7,62.2v-7.4h-13.9v7.4H572.7z
	 M599.8,93.9c0.5,4.6-5.2,6.2-8.4,4.1c-0.5-0.5-0.8-1.3-0.8-2.3V37.4c-5.9,4.2-11.3-4.8-5.1-8.4c3-2.7,4.6-6.4,4.9-11.2
	c0.7-2.3,1.8,2,2.2,2.8c2.7,0.2,8.2,0.4,10.9,0.3V7.3c2.9-0.8,7.1,0.6,9.9,1c2.4,0.4,2.4,2.5,0.3,3.1c-0.7,0.2-1,0.6-1,1.1v8.3
	c1.1-0.2,9.2,0.7,9.8-0.8c1.1-0.9,2.7-3.4,4.4-2.7c3.2,1.9,8.6,3.2,9.7,6.8c-5.9,2.4-10.4,10.3-15.6,11.5c-0.2-4,2.5-8.4,2.7-12.3
	c-3.9,0-27-0.2-30.3,0.4c1.2,5.8,0.6,10-1.7,12.6c2.6,0.7,5.4,1.8,8.3,3.2h15c1.8-0.3,2.2-3.3,4.3-3c2.4,1.2,12.9,4.6,7.3,7.6
	c-0.6,0.2-0.9,0.7-0.9,1.5v15c-0.3,4.5-10.5,5.2-9.1-0.6h-17v11.2h18c1.4-0.3,2.1-2.2,3.4-2.9c3.1-0.1,6.2,2.5,8.9,4.1
	c3.4,2.6-1.4,2.4-1.5,4.9c0,0,0,16.6,0,16.6c-0.1,3.4-6.3,4.6-8.5,2.6c-0.9-1.2-0.5-3.6-0.6-5.1h-19.6
	C599.9,91.7,599.8,93.8,599.8,93.9z M616.8,57.6V42.5c-0.3-0.5-0.6-0.5-1-0.3c-1,0.1-15.4-0.2-15.9,0.3v15.1H616.8L616.8,57.6z
	 M619.5,89.1V74.3c-1.1-0.7-18.3-0.3-19.7,0v14.8H619.5z M712.2,9.6c0.2-0.5-0.5-2,0.6-1.8c3.7,0.7,9.6-0.3,11.6,2.8
	c0.2,1.7-2.7,1.4-2.6,2.9c0,0,0,9.7,0,9.7h21.3c3.6-0.5,4.6-8.2,8.5-7.4c3.4,2.5,7.9,5.4,9,9.3c-3.1,2.1-83.6-0.7-85.2,1.5
	c-1.8,0.5-1.4-2.6-2-3.7c-0.5-1.1,7.2,0.5,7.7,0.3c0,0,31.2,0,31.2,0L712.2,9.6L712.2,9.6z M692.2,45.2l-1.4,0.3v40.1
	c-0.1,4.1-2.2,5-5.9,5.2c-2.2,0-3.6-1-3.5-3.3c0,0,0-47.6,0-47.6c0.6-2.2,7.4,1.9,9.8,2.8c0,0,20.7,0,20.7,0c0.3-1-0.7-12,0.5-12.1
	c3.1,0.8,10.6-0.2,12.1,3.3c-2.6,4.7-3.4-1.4-3.1,8.7h18.4c8.5-3.6,1.5-8.6,15.2,0.5c4,3.4-2.7,3.4-2.9,6.7
	c-1.2,6,3.3,36.2-3.7,39.6c-9.7,4.2-6.8,2.4-10.9-3.3c-1.7-1.8-3.7-2.8-6.2-3.1c-1.4-0.4-1-2.3,0.6-2c7.1-0.3,10.1,1.1,10.8-3.2
	c0,0,0-31.9,0-31.9c0.7-1.7-20.8-0.4-21.3-0.8c-1,2.1,2.5,54.2-2.2,53.5c-2.6,1.1-7.3,0.6-7.3-3c0,0,0-50.5,0-50.5H692.2L692.2,45.2
	z M794.1,60.6v3c0.7,4.9-9.9,6.9-9.5,1.5c0,0,0-38.4,0-38.4c0.8-2.2,9,2.5,9.9,3h25.2V8.3c0-0.4,0-0.7-0.1-1
	c0.8-1.3,12.9,0.3,12.7,2.8c0.3,1.8-3.1,1.4-3.1,3.5c0,0,0,16,0,16h22.6c7.8-2.5,1.3-8,14.9,0.2c3.5,3-0.6,2.8-1.7,5.1
	c0,0,0,29.4,0,29.4c0.1,3.9-6.3,5.1-8.9,3.1c-1-0.9-0.4-5.5-0.6-6.8h-26.3v35.6c-0.1,4-5.2,4.6-8,3.1c-3,0.3-0.8-37.1-1.4-38.6
	L794.1,60.6L794.1,60.6z M819.8,32.4h-25.7V58h25.7V32.4z M829.3,58h26.3V32.6c-0.3-0.4-0.6-0.6-1-0.4h-25.3V58L829.3,58z
	 M901.3,44.3c4,9,1.8,24.7-4.8,31.9c-5.5,7-14.1-2.1-6.9-7.3C898.3,62.3,899.1,55.4,901.3,44.3L901.3,44.3z M912.9,31.4
	c0-1.7,12.4,0.1,12.1,2.2c-1,1.1-1.8,2.2-2.6,3.3v47.7c0,2.4,2.3,3.2,4.6,3.4c15.3,0.6,25.5,0.4,30.5-0.8c1.4-0.9,2.8-3.8,4.1-8.6
	c2.8-4.1,1.9,8.7,4,8.5c3.9,1.9,3.5,6.7-1,8.2c-7.5,2.2-43.7,6.3-50.5-3.4C911.3,87.6,913.3,36.5,912.9,31.4L912.9,31.4z M925.4,8.2
	c7.7-1.2,18.9,7.5,21.4,13.3c5.1,8.7-9.1,14.5-9.5,3.6C935.1,16.4,929.9,12.4,925.4,8.2z M958.9,43.5c9.4,1.7,19.1,15.3,19.8,23.3
	c2.4,8.7-10.8,12.6-10.2,1.6C969,57.5,963.9,50.3,958.9,43.5L958.9,43.5z M1010.5,94.8c0.4,4.9-5.4,6.5-8.7,4.2
	c-0.5-0.5-0.8-1.3-0.8-2.3V38c-18.9,12.9,8.2-8.7,10.4-31.1c0.5-2.2,16.4,2.3,11.1,4.7c24.8,5.9,11,27.5,5.2,13.1
	c-1.7-4.9-4.2-8.5-7.7-11c-3.3,6.6-6.9,12.1-10.7,16.6c2.4-0.1,7.7,1.4,9.7-0.1c1.2-1,2.9-5.5,5.1-4.6c12.2,11.6-2.7,6.8-9.5,7.8
	c0,0-6.2,0.8-6.2,0.8c-1,0.5-0.9-1.1-1.2-1.6c-1.6,1.5-3.2,2.9-4.7,4.2c9.5,3.9,10.2,3.4,20.6,3.3c1.8-0.3,2.3-3.4,4.4-3.2
	c2.5,1.1,13.5,4.9,7.6,7.9c-0.6,0.3-0.9,0.8-0.9,1.6c-0.5,2,1.4,20.8-1.4,21.6c-2.4,1.4-8.7,2.1-8.1-2.7h-14.3V76h12
	c2.4-0.7,2.7-3.7,5-5.7c2.5-2.1,5.3,3.6,6.9,5.6c1,1.2,0.7,2.7-1,2.7c0,0-22.9,0-22.9,0v10.4h12c6.6-5.1,4.2-11.2,12,0.2
	c7-12.8,8-53.7,7.4-77.6c0-0.6,0.2-0.8,0.7-0.8c2.5,0.9,5.3,2.1,8.4,3.7h19.8c3.4-0.5,4.3-7.5,7.9-6.7c1.8,1.1,11.9,8.7,6.6,9.3
	c0,0-34.3,0-34.3,0c0,3.7,0.1,17.4-0.1,20.8h19.3c1.8,0.5,2.9-1.8,3.7-2c2.6-1.9,7.6,1.7,9.3,2.2c1,0.6,1.5,1.3,1.4,2.1
	c-0.1,1.5-3,1-2.9,3c-1.6,14.8-5.3,26.3-11,34.5c5.5,6.8,12.2,9.9,17.2,13.6c-15.2,2.7-4.6,17.8-23.3-6.5
	c-5.9,5.5-16.9,13.1-22.9,12.9c6.5-5.3,15-10,19.8-18.6c-6.2-12.1-8.5-26.6-7.9-38.3h-2.9c-0.1,20.5-4.5,48.1-19.9,58.5
	c-3.6,1.4,2.6-6.4,2.6-7.7h-22.9L1010.5,94.8L1010.5,94.8z M1024.7,51.1c-0.4-0.3,1-10.2-1-8.4h-13.2v8.4H1024.7z M1024.7,62.6v-8.9
	h-14.3v8.9H1024.7z M1066,71.3c4-6.6,7.2-24.6,6-30.3c-0.1-0.3-0.3-0.4-0.7-0.4h-15.9C1056.8,51.9,1059.3,60.9,1066,71.3L1066,71.3z
	 M1146,22V6.9c3.1-0.8,7.3,0.6,10.4,1c2.5,0.6,2.3,2.7,0.2,3.3c-0.7,0.2-1,0.6-1,1.1V22h18.6c9.5-7.1,4.6-13,17.2,0.6
	c1.1,1.2,0.2,2-1.3,2c0,0-68.2,0-68.2,0c-0.4,22.9,2.1,61-18,72.5c7.9-15.1,9.3-52.1,8.5-78.3c0.9-2.2,7.1,2.3,9.9,3.3
	C1122.3,21.9,1146,22,1146,22z M1135.7,94.6c0.2,4.4-6,5.6-8.9,3.7c-0.5-0.4-0.6-1.2-0.6-2.3V60.8c0.8-2.2,9,2.5,10,3h11.8
	c0.5-0.3-1-35.1,0.6-34.5c2.6,0.2,16.1,0.7,10,4.5c-0.7,0.2-1,0.6-1,1.1v10.5h13.9c3-1,4-4.9,6.5-6.9c2.6-1.6,10.2,6.4,10.4,8.8
	c0.9,1.3-30.4,0.4-30.8,0.7v15.8h11.4c7.8-2.5,1.3-8,14.9,0.2c3.5,3-0.6,2.8-1.7,5.1c0,0,0,26,0,26c0.1,3.9-6.3,5.1-8.9,3.1
	c-0.9-0.9-0.5-4.1-0.6-5.3h-36.9C1135.7,92.8,1135.7,94.6,1135.7,94.6z M1172.6,90.2c-0.5-0.1,1.2-25.9-1-23.7h-36v23.7H1172.6z
	 M1220.9,41c-3.3,3.9-10.8,1.7-9.2-4c1-4.2,6.3-5.3,8.1-8.9c1.5-1.8,1.9-6.3,3.4-9.5c1.6,1.3,1.1,4.6,1.6,6.8h24.8v-17
	c3-0.8,7.3,0.6,10.4,1c2.5,0.6,2.3,2.7,0.2,3.3c-0.7,0.2-1,0.6-1,1.1v11.6h27.3c2.2-0.2,3.7-4.1,6.1-3.1c3.1,2.3,8.8,4,9.2,7.8
	c-7.5,1.9-13.7,10.2-20.1,10.9c0.9-4.5,5.5-8.7,6.8-13h-59.3l-4.4,0.4C1225,33.7,1223.6,37.9,1220.9,41z M1221.3,71.3l-5.8,1.4
	c-1.4,0.3-1.5-1.8-2.2-2.6c-1.4-1.4,7.5-1,7.8-1.4c0,0,25.8-3.2,25.8-3.2V48.6c-11.1,1.4-20,4.6-26,2.9c18.3-6,36.2-10.3,45.7-17.3
	c1.8-1.2,11.3,4.6,10.8,6.8c-6.6,1.8-14,3.5-21.1,5.5v17.9l20.5-2.6c2.2-1.8,3.1-5.1,5.3-7c1.7-2.1,12.1,3.9,12.8,6.5
	c-0.1,0.6-0.4,0.9-1,1l-37.6,4.8c1.2,19.6-5.7,21.5,14.7,21.2c9.1-0.2,12.7-0.1,15.9-1c1.7,1,6.7-17.8,8-11.7
	c0.1,3.7-1.5,7.8,0.9,10.6c17.6,14.7-38.1,12-42.5,10.2c-10-4-5.5-20.3-6.5-28.3L1221.3,71.3L1221.3,71.3z M134.7,163.1v34.5h-5.7
	v-30.7c-1.8,5.2-5.1,11.2-8.3,15.3l-1.9-1.5c3.1-5.4,7.3-16.5,8.9-27.4h-7.6v-3h8.8v-14.5h5.7v14.5h7.2v3h-7.2v4.9
	c2.9,2.6,5.8,5.9,8.2,10l-4.9,2.9C137,168.5,135.8,165.7,134.7,163.1L134.7,163.1z M178.8,192.2v3h-41.4v-3h7.1v-38.8h9.2
	c0.4-2.2,0.7-4.5,1.1-6.8h-14.8v-3h15.2c0.4-2.7,0.7-5.5,1-8.2l5.7,0.4c-0.3,2.6-0.6,5.2-0.9,7.8h16v3h-16.5
	c-0.3,2.3-0.7,4.5-1.1,6.8h12.9v38.8C172.4,192.2,178.8,192.2,178.8,192.2z M166.7,156.4h-16.4v6.5h16.4V156.4z M166.7,165.7h-16.4
	v6.5h16.4V165.7z M166.7,175.1h-16.4v7h16.4V175.1z M166.7,185h-16.4v7.2h16.4V185z M202.6,178.2c6.4-7.4,5.2-22.5,5.3-35.1h30
	c-0.3-2.5-0.5-5-0.6-7.6h5.7c0.1,2.6,0.3,5.1,0.6,7.6h11c-2.7-2.5-5.5-4.9-7.5-6.4l1.3-2.1c3.4,1.3,7.5,3,10.6,4.9l-2.5,3.7h5.8v3
	h-18.4c0.8,5.6,1.9,10.8,3.7,15c1.9-3.5,3.6-7.4,4.9-11.9l5.1,2c-1.8,4.9-4.1,9.9-7.7,14.5c4.9,5.6,10.4,10.4,9.2-4.1h2.4
	c6.1,19.3-7.2,19.1-15.5,8.6c-2.5,2.4-5.3,4.7-8.8,6.7l-1.4-1.9c2.9-2.3,5.6-5,8-8.3c-2.8-5.4-4.6-12.5-5.7-20.5H214
	c0.8,15.1-2.3,28.9-9.7,33.8L202.6,178.2L202.6,178.2z M213.3,177.6l2.3,0.6c-0.5,6.6-3.2,12.8-8,17.2l-4.1-4.3
	C208.7,187.2,211.4,183.6,213.3,177.6z M237.2,154.3h-21.4v-3h21.4V154.3z M236.1,171.8h-19.6v-13h19.6V171.8z M247.2,181
	c6.2,19.5-8.8,13.7-19,14.5c-7.5-0.3-9.8-1.8-9.8-6.6v-13h5.8v10.5c0,2.8,0.7,3.5,4.5,3.7c4.5,0.3,9.8,0.2,12.6-0.2
	c2.7-0.4,3.5-1.3,3.5-9H247.2z M230.9,161.8h-9.1v6.9h9.1V161.8z M229.2,175.2c3.3,1.5,7.6,4.3,11.2,7.8l-3.8,4
	c-3.3-4-5.9-6.9-8.8-9.9L229.2,175.2L229.2,175.2z M262.7,191.6l-5.4,2.9c-2.1-5.6-4.5-10.2-7.3-15.3l1.9-1.5
	C256,181.4,260,186.9,262.7,191.6L262.7,191.6z M344,143.5v12.4h-5.9v-9.4h-43.2v9.4H289v-12.4h28.5c-3.3-2.2-6.8-4.2-9.9-5.9
	l0.9-2.3c3.9,0.7,9.6,2.3,14,4.2l-2.1,3.9H344L344,143.5z M319.3,174.4h22.6c-0.8,11.8,5.4,31.3-16.9,20.5l0.6-2.2
	c9.6,1.3,10.6,0.9,10.6-3.4v-11.9h-16.8v7.6c2.6-0.3,5-0.7,7.1-1c-0.7-1.4-1.4-2.8-2.1-4.1l1.9-1.3c3.1,2.8,5.8,6.6,7.9,10.1
	l-4.5,2.5c-0.6-1.4-1.3-3.1-2.1-4.8c-6.7,2.3-18.1,5-25.2,6l-1.3-5.6c3.8-0.2,8.1-0.5,12.4-1v-8.2h-16.7v20.2h-5.7v-23.2h22.4v-4.5
	h-15v-19.2h36v19.2h-15.3V174.4L319.3,174.4z M304.2,158.8h9.3v-5.1h-9.3V158.8z M313.5,166.8v-5h-9.3v5H313.5z M319.3,158.8h9.7
	v-5.1h-9.7V158.8z M319.3,166.8h9.7v-5h-9.7V166.8z M391.8,177.2v-4.7h-11.8c-0.7,12-2.7,18.8-8.5,25.8l-2.1-1.5
	c6.5-8,4.5-39.8,4.8-55.9l5.1,1.7c4.7-1.4,11.4-4.5,15.1-7l4.9,5.1c-6.8,2.2-13.1,3.6-19,4.3v8.6h17.4v23.7L391.8,177.2L391.8,177.2
	z M391.8,169.5v-12.8h-11.5c0,4.1,0,9.1-0.1,12.8H391.8L391.8,169.5z M430,162.2h-7.3v35.2h-5.9v-35.2h-9.7
	c-0.1,14.7-1.9,26.1-12.2,35.8l-1.8-1.6c10.3-13,7.6-37.9,7.9-55.6c7.3,2.9,15.7-1.8,22.2-5.3l4.3,5.2c-7,2.5-14.4,3.4-20.6,3.9
	v14.6H430V162.2L430,162.2z M542.8,174c-6,4.5-13.6,9.1-18.7,11.5l-2.7-6c2.2-0.7,4.9-1.5,7.9-2.6v-19.5h-7v-3h7v-17h5.8v17h6.8v3
	h-6.8v17.2c2.2-0.9,4.4-1.8,6.5-2.7L542.8,174L542.8,174z M574.3,196.5c-3.4-1.7-5.9-5.1-7.7-9.8c-4.1,4.7-9.2,8.5-15.6,11l-1.2-2.3
	c6.5-3.5,11.4-8.2,15.1-14c-2.1-8.6-2.8-19.6-3-31.2h-13v10.4h11.9c-1.3,11.5,4.2,31.9-13,23.1l0.6-2.4c5.5,0.8,6.1,0.4,6.3-1.9
	c0.3-3.7,0.6-9.2,0.7-15.8h-6.5c0.6,15.7-3,26.8-12.5,34.2l-1.7-1.9c10.7-10,8.3-33.7,8.5-48.6h18.8c-0.1-3.8-0.1-7.6-0.1-11.4h5.5
	c0,3.6,0,7.4,0.1,11.4h13.2v3.1h-13.2c0.2,8,0.7,16.1,1.7,23c2.1-5.1,3.6-10.7,4.7-16.8l5.9,1.4c-1.9,8.7-4.8,16.7-9.2,23.4
	c2.7,8.8,7.6,16.9,7-2h2.5C583.3,195.4,579.6,199.1,574.3,196.5L574.3,196.5z M575.6,146.8c-1.7-2.7-4.2-6.5-6.5-9.5l1.7-1.7
	c3,1.9,6.8,4.8,9.2,7.4L575.6,146.8z M605.4,181.6c4.7-5.8,7.7-11.1,10.1-22.2l2.4,0.3c-0.1,11.2-2.5,19.6-5.8,26.1L605.4,181.6
	L605.4,181.6z M623.5,185.9V150h6.4v34.5c0,3.5,0.7,4.3,4.4,4.5c10.5-0.5,15.4,4.5,14.7-14.2h2.5c3.3,15.2,2.9,19.2-6.3,20.1
	c-4.1,0.4-8.3,0.3-12,0C625.3,194.5,623.5,194.1,623.5,185.9z M626.5,137.6l1.3-2.3c8,2.9,14.8,6.7,20.4,11.4l-5.2,5.9
	C637.4,146.3,632.9,142.4,626.5,137.6z M650.1,158.5l2.2-1.3c5.8,6.6,10.8,14.6,13.6,21.6l-7.2,3.1
	C656.3,173.6,653.8,166.2,650.1,158.5L650.1,158.5z M712.2,184c-4.5,4-15.4,9.5-22.1,11.3l-0.9-2.3c6.3-3,13.5-8.2,17.2-12.6
	L712.2,184z M748.1,164.6h-58.5v-3h29.1c-2.8-1.4-6.1-2.9-8.4-3.9l0.5-2.2c3.8,0.5,10,1.9,14.4,3.4l-1.5,2.7h24.3V164.6L748.1,164.6
	z M739.1,154.9h-40.3v-16.4h40.3V154.9z M722.7,179.2c0,11.4,2.7,24.8-17,15l0.7-2.3c9.4,1.5,10.5,1,10.5-2.5v-10.3h-16v-11.6h36.6
	v11.6H722.7z M733.3,141.3h-28.8v3.9h28.8V141.3z M733.3,147.9h-28.8v4.1h28.8V147.9z M706.6,176.2h25.1v-5.6h-25.1V176.2z
	 M748.3,189.9l-3.9,5.6c-4.5-3.9-12.3-9.1-18-12.6l0.9-2.2C733.5,182.4,742.7,186.4,748.3,189.9L748.3,189.9z M826.2,196.1
	c-7.1,0-8-1.7-8-6.8V175h-2.1c-0.5,13.5-5.5,18.6-18.4,23.2l-1.1-2.1c2.4-1,4.4-2.1,6.1-3.3h-19.8v4.1h-5.1v-21.9
	c-1.4,1.7-2.8,3.2-4.2,4.4l-1.4-1.5c3.3-3.9,6.5-10.6,8.6-17.6h-5.1v-10.8h13.2v10.8h-7l3.9,1.5c-0.7,1.7-1.7,3.7-2.7,5.6h9.5
	c-1.4-2.1-2.7-3.9-4.2-5.7l1.3-1.5c2.6,1.5,4.7,2.9,7,5.2l-2.1,1.9h10.9v2.6h-9.8v4.4h7.9v2.7h-7.9v4.8h8.2v2.7h-8.2v5.2h10.7
	c3.6-3.9,4.6-8.8,4.8-14.8H807v-35.4h21.5V175h-5.3v13.4c0,2.5,0.3,2.9,3,2.9c2.7,0,2.9-0.3,2.9-8.6h2.4
	C833.3,193.1,833.3,196.1,826.2,196.1L826.2,196.1z M781.4,144h-8.3v-3h8.3v-5.1h5.1v5.1h6.8v-5.1h5.1v5.1h7.8v3h-7.8v4.1h-5.1V144
	h-6.8v4.1h-5.1V144z M779.7,157.6h5.1v-5.4h-5.1V157.6z M790.4,170.1h-7.5v4.4h7.5V170.1z M790.4,177.1h-7.5v4.8h7.5V177.1z
	 M790.4,184.6h-7.5v5.2h7.5V184.6z M791.7,149.6h13.1v10.8h-13.1V149.6z M795.7,157.5h5.1v-5.3h-5.1V157.5z M812.1,150.3h11.2v-7.6
	h-11.2V150.3z M812.1,160.8h11.2v-7.7h-11.2V160.8z M812.1,172h11.2v-8.4h-11.2V172z M1152.2,174.8l0.7,2.2
	c-6.3,3.8-14,7.4-22.1,10.4l-1.9-6.7c2.1-0.3,5.3-0.9,9-1.7v-21.8h-8.2v-3h8.2v-18.1h5.7v18.1h8.1v3h-8.1v20.2
	C1146.6,176.6,1149.4,175.8,1152.2,174.8z M1188.3,169.5v3h-16.9v25.2h-6v-25.2h-17v-3h17v-26.5h-14.9v-3h35.6v3h-14.6v26.5H1188.3
	L1188.3,169.5z M1162.9,163.5l-5.9,2.1c-1.5-5.9-3.3-12.4-5.3-17.6l2.2-1C1157,151.2,1160.6,157.1,1162.9,163.5L1162.9,163.5z
	 M1173.1,164.9c2.6-5.5,4.9-12.7,6-18.7l6.3,2.5c-2.5,5.9-7.1,13.4-10.1,17.2L1173.1,164.9z M450.9,138.6l-0.9,0.9l55.3,55.3
	l0.9-0.9L450.9,138.6z M505.3,138.6L450,193.9l0.9,0.9l55.3-55.3L505.3,138.6z M874.2,198.6v-48.8h-15.3v-3.2
	c9.2-0.4,16.9-3.8,19.8-12.7h9.5v64.6L874.2,198.6L874.2,198.6z M950.9,145.1h-19.8l-3.2,6c37.5,3.8,36.1,48.9-2.4,48.9
	c-15.3,0-19.2-11.1-7.2-11.7c8-0.4,10,9.6,21.4,0.4c7.8-6.3,5.5-28-27.5-27.3l14.4-26.3h29.3L950.9,145.1z M1016.5,164.6
	c27.4-2,13.6-38.1-4.2-13.5l-5.7-2.6c8-27.9,59.5-11.2,30.8,12.3c17.3,6.8,20.9,39.2-21.6,39.2c-11,0-14.7-10.3-2.5-10.9
	c5.1-0.3,8.3,3.8,12.8,4.4c18.3-2.6,12.2-27-9.6-25.1L1016.5,164.6L1016.5,164.6z M1105,137.4c-12.9,1.2-24.6,10.2-29,22.3
	c16.9-8.2,37.8,8.1,29.1,26.4c-8.1,19-38.5,18.3-45-1.6c-9.4-27.4,18.2-52.3,44.9-50.7L1105,137.4L1105,137.4z M1074.5,166.7
	c-3.3,36.4,17.7,33.1,17.7,14.6C1092.2,166,1082.7,160.1,1074.5,166.7z M990.8,169.8H973v4h17.8V169.8z"/>
<path id="t2" d="M412.9,346c4.6-0.9,9-1.9,13.1-3.2v61.1h-13.1V346z M432.5,403.9h12.3v-68.4c-3.8,1.9-7.9,3.6-12.3,5.1V403.9z
	 M501.2,282.1v121.8h15.5V282.1H501.2z M394.5,403.9h11.4v-56.8c-3.7,0.5-7.5,1-11.4,1.2V403.9z M470.1,403.9V318
	c-4,3.9-8.7,7.6-14,11.1V291c8.3-3.6,15.6-8,21.8-12.6v125.5h15.6V246.7h-7c-3.2,8.7-17.5,31.6-35.1,39.8v117.4H470.1z M534.1,410.1
	h-157v-3.4h157V410.1z M550.4,417H360.8v-4.7h189.5V417z M370.2,449.7c7.5-1.1,6.2-9.6-0.4-9.6h-9.9v0.4h3.2v20.1h-3.2v0.4h10
	C377.2,460.9,379.2,450.7,370.2,449.7z M365.9,449.5v-9.1c3.9,0,6.2,0.1,6.2,4.5C372.1,449.9,369.6,449.5,365.9,449.5L365.9,449.5z
	 M365.9,449.9c3.8,0,7-0.4,7,5.1c0,5.3-2.3,5.5-7,5.5V449.9z M384.7,450.5c0,6.9,5,10.9,9.9,10.9c5,0,9.9-4.8,9.9-10.9
	c0-6.7-5-10.9-9.9-10.9C389.7,439.5,384.7,444,384.7,450.5z M388,450.5c0-7.1,2.2-10.6,6.7-10.6c4.4,0,6.7,3.5,6.7,10.6
	c0,7-1.8,10.5-6.7,10.5C389.8,460.9,388,457.4,388,450.5z M442.8,460.5v0.4h9.2v-0.4h-3.2v-20.1c4.1,0,5.8,0.9,6.9,5h0.3V440h-17.4
	v5.4h0.3c1.3-3.9,2.2-5,6.9-5v20.1H442.8z M462.8,460.9h9.2v-0.4h-3.2v-20.1h3.2V440h-9.2v0.4h3.2v20.1h-3.2V460.9z M498.7,466.1
	c-2.9,0-3.1-1.7-4.7-2.8c-1.7-1.2-3.5-0.5-5.6-1.9c7.1,0.2,11-5.2,11-10.7c0.1-5.5-3.7-11.2-9.9-11.2c-10.6,0-14.6,17.4-2.6,21.4
	c4.5,1.5,1,5.8,11.8,5.5V466.1z M482.9,450.5c0-7,2.1-10.5,6.7-10.4c4.6,0,6.7,3.5,6.7,10.4c0,7-1.8,10.5-6.7,10.5
	C484.9,460.9,482.9,457.4,482.9,450.5z M506.7,440.4h3.2v13.9c0,4.8,2.4,7,6.9,7c4.7,0,7.2-2.1,7.2-6.7v-14.2h3.2V440h-6.8v0.4h3.2
	v13.6c0,4.4-2.2,6.9-5.5,6.9c-4.1,0-5.3-1.9-5.3-6.4v-14.2h3.2V440h-9.2L506.7,440.4z M411.8,440.4h3.2v13.9c0,4.8,2.4,7,6.9,7
	c4.7,0,7.2-2.1,7.2-6.7v-14.2h3.2V440h-6.8v0.4h3.2v13.6c0,4.4-2.2,6.9-5.5,6.9c-4.1,0-5.3-1.9-5.3-6.4v-14.2h3.2V440h-9.2
	L411.8,440.4z M533.3,460.9h17.4v-6.4h-0.3c-0.3,2.8-2.3,6-5.7,6h-5.4v-10.6h2.3c2.5,0,3.3,2.3,3.7,4.4h0.3v-9.1h-0.3
	c-0.5,2.4-1.1,4.3-4.2,4.3h-1.8v-9.1h4.7c3.3,0,4.5,2,5.3,4.7h0.3V440h-16.3v0.4h3.2v20.1h-3.2L533.3,460.9z M613.7,352.6l-14.5,3.7
	V336h23.1v-34.9h-30.4V358l-5.5,1l2.6,8.1c8.5-2.4,18.5-6.5,25.9-11.1l2.8,9.2l7.8-3.3c-2.7-6.6-8.1-16-13.2-21.9l-2.9,1.5
	L613.7,352.6z M599.2,304.8h15.9v11.6h-15.9V304.8z M599.2,320h15.9v12.2h-15.9V320z M627.5,300.9v71.2h7.5v-67.6h12.9v43.5
	c0,3.9-1.4,4.6-10.9,3.2l-0.8,3.2c10.3,5.5,19,3.9,19-4.7v-48.8H627.5z M703.4,297v24.5H695v-22.8h-6.7V330h6.7v-4.9h8.4v11.5h-19.3
	v3.7h6.2c-0.2,14.1-2,23.6-7,30.6l2.3,2c8-7.4,11.1-18.4,11.4-32.6h6.4v32h7V297L703.4,297L703.4,297z M712.2,336.1
	c17.6-3.8,33.5-14.2,40.9-31.1l-6.8-3.4l-2,1.2h-11.1c0.9-1.2,1.7-2.5,2.4-3.8l-6.8-3c-4.7,9.8-10.8,17.2-17.3,21.8l1.5,2.4
	c1.9-0.9,3.7-2,5.7-3.4c1.8,2.8,3.4,5.5,5.1,8.9l4.7-3.6c-2.3-2.9-4.6-5.3-7.1-7.2c1.5-1.1,2.9-2.4,4.3-3.7c2.4,2.4,4.6,5,6.5,7.8
	l4.5-4.4c-2.8-2.4-5.6-4.5-8.4-6.1c0.7-0.6,1.3-1.3,1.9-2h14.5c-5.3,12-18.5,22.4-33.4,26.8L712.2,336.1L712.2,336.1z M755.8,337.4
	h-8.4v-10.8h-7v10.8H713v3.7h27.5v21.5c0,4.2-1.5,5-15.5,2.9l-0.7,2.9c15.5,7.1,23.3,3.4,23.3-4.1V341h8.4L755.8,337.4L755.8,337.4z
	 M727.2,360.1L727.2,360.1l5.6-4.7c-3.3-3.8-9.6-9.1-14-12l-1.9,2.2L727.2,360.1z M810.6,305.2l-8.6-3.4
	c-4.1,17.3-11.1,29.3-21.5,39.1l1.7,2.4C795.1,334.8,805.2,320,810.6,305.2z M787.4,359.2l2.3,9.3c13-1.3,31.6-4.6,45-9
	c2,4.2,3.8,8.3,5.2,12l8.7-4.7v0c-4.5-8-11.8-17-20.4-25.1l-2.4,2c2.6,4.1,5,8.4,7.2,12.6c-8.6,1.2-20.2,2.1-30.9,2.6
	c6.5-7.7,13.9-19.2,18.6-30.2l-9.3-3.6c-3,11.5-8.2,24.8-14,34L787.4,359.2z M830.7,301.8h-16.1v3.7h13.1
	c2.8,18.1,10.7,30,20.9,37.7l6.7-9.2C843.7,328,833.4,318.1,830.7,301.8z M911.3,300.3h-28.7v72.2h7.2v-48.2h21.6V300.3z
	 M904.5,310.3h-14.7v-6.3h14.7V310.3z M904.5,320.6h-14.7v-6.7h14.7V320.6z M910.8,344.4V334h8.6v34.8h6.8V334h9.4v-3.7h-40.7v3.7h9
	v10.5h-11.5v3.7h11.3c-0.6,9.8-3.3,15-10.9,20.1l1.6,2.6c9.6-3.5,15.4-11.1,16.3-22.7h27.4v-3.7H910.8z M947.2,300.3h-28.3v24H940
	v38.1c0,3.9-1,5-11.2,3.7l-0.7,3c10.8,5.2,19,3.8,19-5L947.2,300.3L947.2,300.3z M940,310.3h-14.3v-6.3H940V310.3z M940,320.6h-14.3
	v-6.7H940V320.6z M591.6,409.4c0-13,13.7-18.4,22.1-5.9l3.4-2.4c-7.2-14.2-34.3-11.1-34.3,8.2c0,18.9,26.5,22.8,34.2,8.2l-3.3-2.5
	C606,428,591.6,422.6,591.6,409.4z M695.4,409.1v16.7h7.5v-17.3c0-7.4-8.6-10.8-16.3-4.7c-2.6-3.1-8.1-4.8-14.1-0.5v-2.7h-2.2
	l-5.2,2.7v22.4h7.5v-18.1c5.1-4.8,7.8-2.2,7.8,1.3v16.7h7.4v-18.1C692.7,402.9,695.4,405.5,695.4,409.1z M716.1,393.9
	c2,4.2,9.3,1.9,7.4-2.8C721.5,386.9,714.2,389.2,716.1,393.9z M716.1,425.7h7.5v-25.1h-2.2l-5.2,2.7V425.7z M796.4,402.8h-7.5
	c-6-3.8-13.6-2.4-17.4,1.2c-4,3.9-3.8,10.4,2.8,12.9c-3.7,1.3-8,6.4-1.8,8.1c-20.1,13.4,21.5,17.3,24,3.6c2.2-12.1-25.9-2.9-19-10.6
	c8.7,1.8,19.7-2.9,14.5-12.5h4.5L796.4,402.8L796.4,402.8z M786.9,426.3c7.7-0.1,5.8,5.7-0.4,6.6c-4.7,1.5-16.8-0.6-10.8-7.2
	C779.2,426.1,783.2,426.2,786.9,426.3L786.9,426.3z M781.5,416.3c-5.6,0-6.5-13.2-0.9-13.2C786.3,403.1,787.7,416.3,781.5,416.3z
	 M817.5,420.5c3.2,8.4,19.6,7.8,19.6-1.5c0-8.3-13-8.1-13-12.9c0-2.4,6.2-4,7.2,1l4.3-1.5c-3.2-7.1-17.9-6.6-17.9,2.1
	c0,7.7,12.3,7.7,12.3,12.6c0,4.2-7,3.8-8.3-1.4L817.5,420.5z M895.5,426.2c9.9,0,16.3-9.9,12.6-18c-4.6-10-21.2-10-25.1,0.3
	C879.4,417.5,885.4,426.2,895.5,426.2z M896.3,423.2c-5.6,0-7-10-6.1-14.6c1.5-7.1,8.8-6.6,10.4,2.1
	C901.7,416,900.5,423.2,896.3,423.2z M859.4,426.2c9.9,0,16.3-9.9,12.6-18c-4.6-10-21.2-10-25.1,0.3
	C843.3,417.5,849.3,426.2,859.4,426.2z M860.2,423.2c-5.6,0-7-10-6.1-14.6c1.5-7.1,8.8-6.6,10.4,2.1
	C865.6,416,864.4,423.2,860.2,423.2z M640.2,426.2c9.9,0,16.3-9.9,12.6-18c-4.6-10-21.2-10-25.1,0.3
	C624.2,417.5,630.1,426.2,640.2,426.2z M641,423.2c-5.6,0-7-10-6.1-14.6c1.5-7.1,8.8-6.6,10.4,2.1C646.4,416,645.2,423.2,641,423.2z
	 M934.7,408.9v16.8h7.4v-17.6c0-6.1-6.8-10.4-15.1-5v-2.5h-2.2l-5.3,2.7v22.4h7.5v-18C933.4,402.2,934.7,406.4,934.7,408.9
	L934.7,408.9z M750.9,408.9v16.8h7.4v-17.6c0-6.1-6.8-10.4-15.1-5v-2.5H741l-5.3,2.7v22.4h7.5v-18
	C749.6,402.2,750.9,406.4,750.9,408.9L750.9,408.9z"/>


</defs>
<use xlink:href="#t1" fill="#000" x="4" y="3" filter="url(#b0)" />
<use xlink:href="#t2" fill="#12305B" x="4" y="3" filter="url(#b0)" />
<use xlink:href="#t2" fill="#024c" x="4" y="3" filter="url(#b1)" />
<use xlink:href="#t2" fill="#024c" x="4" y="3" filter="url(#b1)" />
<use xlink:href="#t2" fill="#000" x="4" y="3" filter="url(#b0)" />
<use xlink:href="#t1" fill="#fff" x="0" y="0" />
<use xlink:href="#t2" fill="#fff" x="0" y="0" />
</svg>
