<?xml version="1.0" encoding="utf-8"?>
<!-- Generator: Adobe Illustrator 26.5.0, SVG Export Plug-In . SVG Version: 6.00 Build 0)  -->
<svg version="1.1" id="圖層_1" xmlns="http://www.w3.org/2000/svg" xmlns:xlink="http://www.w3.org/1999/xlink" x="0px" y="0px"
	 viewBox="0 0 724 372" style="enable-background:new 0 0 724 372;" xml:space="preserve">
<style type="text/css">
	.st0{fill:#FFFFFF;}
	.st1{fill:none;stroke:#FFFFFF;stroke-width:1.09;stroke-miterlimit:10;}
</style>
<path class="st0" d="M224.1,357c-2-3.6-9.4-0.6-6.1,3.2c1.8,1.4,4.7,1.5,6.5,2.9c6.1,6.2-5.8,12.2-9.9,6.2l1.8-1.5
	c4.8,5.9,12.4-3,2.9-4.6c-10.4-3.2,0.3-14.7,6.5-7.8L224.1,357L224.1,357z M241.8,354h3.1l5.9,13.6h0.1l5.9-13.6h3v17.4h-2.1v-14.6
	h0l-6.2,14.6h-1.2l-6.2-14.6h-0.1v14.6h-2.1L241.8,354L241.8,354z M276.4,354h2.1v17.4h-2.1V354z M295.1,354h2.1v15.5h8v1.9h-10
	L295.1,354L295.1,354z M319.6,354h10.9v1.9h-8.9v5.5h8.3v1.9h-8.3v6.2h9.3v1.9h-11.4L319.6,354L319.6,354z M364.5,354h2.1v7.4h9.3
	V354h2.1v17.4h-2.1v-8.1h-9.3v8.1h-2.1V354z M402.6,371.8c-6.7,0.2-10.9-6.8-8.4-12.8c2.7-7.3,14.2-7.3,16.8,0
	C413.5,365,409.4,372,402.6,371.8z M402.6,369.9c5.1,0.2,8.2-5.6,6.4-10c-2-5.9-10.7-5.9-12.8,0
	C394.4,364.3,397.5,370.1,402.6,369.9z M440.4,364.7c0.8,6.4-7.7,9.6-11.7,4.9c-2.6-2.9-1.1-12.2-1.5-15.7h2.1v10.5
	c-0.6,7.2,9.6,7.2,9,0c0,0,0-10.5,0-10.5h2.1L440.4,364.7L440.4,364.7z M465.2,357c-2-3.6-9.4-0.6-6.1,3.2c1.8,1.4,4.7,1.5,6.5,2.9
	c6.1,6.2-5.8,12.2-9.9,6.2l1.8-1.5c2.1,4.3,10.6,0.6,6.4-3.3c-1.9-1.2-4.8-1.3-6.5-3c-5-5.9,5.5-11.4,9.5-6.2L465.2,357L465.2,357z
	 M482.9,354h10.9v1.9h-8.9v5.5h8.3v1.9h-8.3v6.2h9.3v1.9h-11.4L482.9,354L482.9,354z M65.8,26.9c-3,9.6-7.4,18.1-12.7,25.2
	c5.4,12,9.8,11.8,9.9-4.5c2,2.1,5.1,4,7.4,4.9c-0.7,21.6-15.9,21.3-23.6,7.1c-3.8,3.9-7.9,7.2-12.4,10c-1.3-1.9-4.5-5.5-6.3-7.2
	c5.7-3.1,10.7-7.1,15-11.9C40.6,42.3,39,32,38,21H16.7v7.9h18.2c-1.2,21.8,3.3,32.6-16,30.6c-0.1-2.6-1.1-6-2.4-8.2
	c11.2,1.1,9.1,0.4,9.8-14.4h-9.6c-0.3,10.7-1.8,25.1-7.9,34.1c-1.5-1.7-5.4-4.9-7.4-6c8.9-15,5.4-36.3,6.1-52.7h30
	c-0.1-3.6-0.3-7.2-0.3-10.9h9.2c-0.1,3.7,0,7.3,0.2,10.9h11.3c-2.7-2.2-6.4-4.6-9.4-6.4l5.3-5.2c4,2.1,9.4,5.4,12,7.9l-3.5,3.7h7.6
	V21H47.1c0.7,7.4,1.7,14.3,2.9,20.2c2.9-4.9,5.3-10.4,7.1-16.3L65.8,26.9L65.8,26.9z M144.4,33.4c-2.9,2.3-6.2,4.6-9.5,6.8
	c2.9,8.7,8.8,16,17.2,19.3c-2,1.6-4.6,5-5.8,7.1c-8.8-4.2-14.6-12.1-18.2-22.1c-0.7,0.5-1.5,1-2.3,1.4c3.6,16.3-3.5,26.1-18.2,23.8
	c-0.2-2.4-0.9-5.9-2.3-8.3c7.5,1.2,13,0.5,12.7-8.8c-8.4,5.7-19.9,11.2-29.7,14.1c-1-2.1-2.9-5.3-4.6-7.3c11.6-2.5,25.8-8.8,33-15
	c-0.3-0.9-0.7-1.8-1.1-2.8c-7.4,4.6-18.1,9.4-26.5,12c-1-2-2.8-4.9-4.3-6.8c9-1.9,21.1-6.5,27.5-10.8c-0.7-0.8-1.3-1.6-2.1-2.4
	c-6.4,3.4-13.5,5.9-20.5,7.7c-0.8-1.7-3-5.2-4.5-6.8c8.3-1.7,17.1-4.5,23.7-8.1H96.4v-7.4h41.1v7.4h-16.3c-1.3,1.2-2.8,2.4-4.4,3.4
	c2.9,2.6,5,5.7,6.5,8.9c5.1-3.4,10.4-7.6,13.9-11.1L144.4,33.4L144.4,33.4z M94.1,23.7h-8.6V7.1h26.6c-0.5-1.4-1.2-2.8-1.8-3.9
	l9.3-2.7c1.2,2,2.4,4.4,3.2,6.6H149v16.6h-9v-8.7H94.1L94.1,23.7L94.1,23.7z M178.9,39.9H164v-7.7h14.9V16.6h8v15.7h14.9v7.7h-14.9
	v15.7h-8V39.9z M278.6,23.2c-1.9,10.9-4.8,20.1-9.1,27.7c3.9,4.9,8.5,8.9,14,11.7c-1.9,1.5-4.6,4.9-6,7.2
	c-5.1-2.9-9.4-6.8-13.2-11.6c-3.9,4.9-8.8,8.8-14.6,12.1c-1-1.8-3.9-5.5-5.7-7.1c6.4-3.1,11.3-7.1,15.3-12.4c-2.8-4.8-5.1-10.1-7-16
	c-1.2,1.9-2.5,3.7-3.8,5.3c-1-1.7-3.5-4.9-5.3-6.8v36.9h-8.7v-19c-11.7,4.1-14.1,5.4-15.8,6.8c-0.6-2.1-2.1-6.1-3.4-8
	c5.4-1.1,1.7-37,2.7-40.7h8.6v35.9l7.8-2.3V2.5h8.7v29c5.7-7.1,9.1-18.3,10.9-30.2l8.9,1.5c-0.7,4.1-1.6,8.2-2.6,12.1H283v8.3
	L278.6,23.2L278.6,23.2z M258,23.2c-0.2,0.7-0.5,1.3-0.7,2c1.7,6.3,4.1,12.4,7,17.7c2.7-5.6,4.6-12.1,5.7-19.7H258z M319.7,49.6
	c-1-2.3-2.9-5.9-4.9-9.1V70h-8.3V43.7c-2.4,5.5-5,10.7-7.9,14.3c-0.8-2.5-2.7-6.1-4-8.3c4-4.7,8.2-12.6,10.7-19.7h-9.9v-8.2h11v-8.3
	c-2.8,0.4-5.5,0.9-8.2,1.2c-0.3-2-1.4-4.9-2.4-6.8c8.4-1.2,17.6-3.5,23.7-6.1l4.9,7.1c-2.9,1.1-6.2,2.1-9.7,2.9v10h9.1v8.2h-9.1V31
	c1.9,1.8,8.6,9.8,9.9,11.8L319.7,49.6L319.7,49.6z M363.8,59.7v8.1h-43.3v-8.1h6.9V5h30.1v54.7H363.8z M335.9,13.1V23h12.7v-9.9
	H335.9z M348.6,30.9h-12.7v10.3h12.7V30.9z M335.9,59.7h12.7V49h-12.7V59.7z M428.2,23.8c-0.2,7.6-1.2,16.7-5.1,25.5
	c3.5,3.3,6.8,6.3,8.9,8.9l-5.7,7.3c-1.8-2.3-4.5-5.2-7.5-8.2c-3.1,4.6-7.1,9-12.5,13c-1.3-1.8-4.2-4.7-6.2-6.1
	c5.5-3.9,9.6-8.2,12.4-12.9c-3.8-3.5-7.6-7-11-9.9c1.2-4.4,2.4-10,3.5-16l-4.1,0.3l-0.8-8.3c1.9-0.1,4.1-0.1,6.2-0.2
	c0.7-5.3,1.3-10.6,1.6-15.4l8.7,0.4c-0.4,4.6-1,9.6-1.8,14.7l5.3-0.3v-4.6h8.2v4.2l3.8-0.2v7.9L428.2,23.8L428.2,23.8z M413.5,24.8
	c-0.9,4.9-1.8,9.6-2.7,13.8c1.8,1.5,3.8,3.2,5.7,4.8c2.5-6.6,3.4-13.3,3.6-19.1L413.5,24.8L413.5,24.8z M469,39.9h-14.7v20.7
	c0.1,10.4-7.7,9.2-16.9,9.5c-0.4-2.4-1.7-6-2.9-8.3c4.2-0.5,10.7,1.5,10.7-1.3c0,0,0-20.5,0-20.5h-15.5v-8.3h15.5v-7.1
	c3.2-2.8,6.4-6.9,9-10.7h-21.6v-8h27.3l2.1-0.4l5.9,4.3c-3.5,5.4-8.3,11.6-13.5,16.4v5.5H469V39.9L469,39.9z M548.4,60.3V68h-65.2
	v-7.7H511V54h-21.4v-7.5H511v-5.6h9v5.6h22.5V54H520v6.3H548.4z M491.6,21.2h-8.2v-14h28.2c-0.6-1.5-1.2-3.2-2-4.4l8.5-2.5
	c1.2,2.1,2.5,4.7,3.3,6.9h26.2v14h-7.8v5.9h-8.7c4.5,3.6,9.6,8.2,12.3,11.5l-6.9,4.7c-1-1.3-2.3-2.9-3.9-4.6
	c-32.9,2.7-36.9,2.9-39.8,4.1c-0.4-1.6-1.6-5.5-2.5-7.6c4.7-1.3,6.8-3.9,12-8.1h-10.8L491.6,21.2L491.6,21.2z M491.9,15.1v4.5h46.9
	v-4.5H491.9z M526.5,32.8c-1.3-1.2-2.7-2.2-3.8-3.2l3.6-2.4h-12.7c-2.6,2.5-5.6,4.9-8.5,7.1L526.5,32.8L526.5,32.8z M626.2,26.9
	c-3,9.6-7.4,18.1-12.7,25.2c5.4,12,9.8,11.8,9.9-4.5c2,2.1,5.1,4,7.4,4.9c-0.7,21.6-15.9,21.3-23.6,7.1c-3.8,3.9-7.9,7.2-12.4,10
	c-1.3-1.9-4.5-5.5-6.3-7.2c5.7-3.1,10.7-7.1,15-11.9c-2.5-8.3-4.1-18.6-5.1-29.6h-21.3v7.9h18.2c-1.2,21.8,3.3,32.6-16,30.6
	c-0.2-2.6-1.1-6-2.4-8.2c11.2,1.1,9.1,0.4,9.8-14.4h-9.6c-0.3,10.7-1.8,25.1-7.9,34.1c-1.5-1.7-5.4-4.9-7.4-6
	c8.9-15,5.4-36.3,6.1-52.7h30c-0.2-3.6-0.3-7.2-0.3-10.9h9.2c-0.1,3.7,0,7.3,0.2,10.9h11.3c-2.7-2.2-6.4-4.6-9.4-6.4l5.3-5.2
	c4,2.1,9.4,5.4,12,7.9l-3.5,3.7h7.7V21h-22.7c0.7,7.4,1.7,14.3,2.9,20.2c2.9-4.9,5.3-10.4,7.1-16.3L626.2,26.9L626.2,26.9z
	 M649.5,22c-0.9,1-1.8,1.9-2.6,2.8c-0.7-1.6-2.9-4.9-4.2-6.2c4.4-4.1,8.4-10.5,10.5-17.1l6.7,1.8c-0.6,1.9-1.4,3.7-2.3,5.7h5.6
	c-0.6-1.8-1.4-3.7-2.2-5.4l7.2-2c1.1,2.3,2.5,5.1,3.2,7.4h5.4v5.5h-7.7v2.8h6.2v0.1c3.8-4.3,7.2-10.1,9.2-16l6.8,1.9
	c-0.7,1.9-1.5,3.8-2.3,5.7h5.7c-0.6-1.8-1.4-3.7-2.1-5.2l7.2-2c1.1,2.2,2.4,5,3.2,7.2h6.6v5.4h-9.1v2.8h7.2v5.1h-7.2v2.8h7.2v5.1
	h-7.2v2.8h10v5.5h-29.5V22.1c-0.9,1.1-1.8,2.1-2.7,3.1c-0.6-1-1.8-2.6-3-4.1v1.3h-6.2v2.8h6.2v5.1h-6.2v2.8h8.3v5.5h-28
	C649.5,38.5,649.6,22,649.5,22z M703.6,44.9c-3.5,5.6-8.4,10-14.3,13.5c6.6,1.4,13.8,2.3,21.4,2.9c-1.9,2.1-4.3,5.9-5.5,8.3
	c-10.2-1-19.5-2.8-27.6-5.8c-9.2,3.2-19.6,5.2-30.3,6.3c-0.7-2.3-2.1-5.8-3.5-7.9c8-0.6,15.8-1.7,23-3.4c-4.1-2.4-7.8-5.4-11-8.6
	l3.4-1.5H648v-7.1h48.1l1.5-0.4L703.6,44.9L703.6,44.9z M662.2,14.5h-5.3v2.8h5.3V14.5z M662.2,22.3h-5.3v2.8h5.3V22.3z M662.2,30.3
	h-5.3v2.8h5.3V30.3z M666.2,48.7c3.2,2.6,7.3,4.6,12.1,6.4c4.2-1.8,7.8-3.8,10.8-6.4C689.1,48.7,666.2,48.7,666.2,48.7z M693.5,14.5
	h-5.1v2.8h5.1V14.5z M693.5,22.3h-5.1v2.8h5.1V22.3z M693.5,30.3h-5.1v2.8h5.1V30.3z M28.6,111.3c-3.5,18.9-12,32.3-22.2,39.5
	c-0.8-1.2-3-3.3-4.3-4.1c9.2-6,16.6-16.9,20-31.2H4.4v-5.4H24l1.1-0.2L28.6,111.3L28.6,111.3z M62.9,108.7
	c-4.8,5.5-11.1,12-16.2,16.3c6.2,8.9,14,16.5,22.7,20.5c-1.2,1.1-3.1,3.3-4,4.9C54.2,144.5,44.9,133,38.3,120v30.6
	c-0.3,8.8-5.8,6.9-14.3,7.4c-0.2-1.6-1.2-4.3-2-5.9c4.9-0.4,10.4,1.7,10.7-1.5c0,0,0-58.8,0-58.8h5.7c0,11.8-1.5,18.7,5.8,29.2
	c4.9-4.5,10.5-10.9,14-15.8L62.9,108.7L62.9,108.7z M95.3,119.1c0,12.2,0.8,26.4-7.3,37.6c-0.9-1.1-3.1-2.8-4.4-3.5
	c8.5-11.7,5.9-26.2,6.3-39h58.6v4.9L95.3,119.1L95.3,119.1z M144.8,108.5H90.4v-14h5.3v9.1h18.7v-12h5.6v12h19.2v-9.1h5.5V108.5z
	 M149.7,142.5h-23.8V158h-5.6v-15.5H97.6v-4.9h22.7v-7.8h-19v-4.6h44.6v4.6h-20v7.8h23.8V142.5z M181.1,117.1c4.3,0,7.7,3.4,7.7,7.7
	c-0.3,10.2-15.1,10.2-15.4,0C173.4,120.5,176.8,117.1,181.1,117.1z M237.6,95.6c-5.2,11.9-13.2,23.5-21.3,30.9
	c-1-1.1-3.3-3.3-4.8-4.4c8.1-6.8,15.7-17.4,20.2-28.3L237.6,95.6z M258,130.1c5.9,7.8,12.8,17.9,16.3,24.4l-5.4,3
	c-1-2-2.4-4.4-3.9-7c-37.6,2.6-41.6,2.8-44.4,3.9c-0.2-1.2-1.3-4.1-2.1-5.7c9.7-6.7,15.6-17.8,25.1-34.9l6,2.5
	c-6.2,11.3-13.8,22.5-21.3,31.1l33.6-1.9c-2.8-4.5-6.1-9.2-9-13.1L258,130.1L258,130.1z M259.5,93.5c3.5,11.5,10.8,22.4,19.2,28
	c-1.3,1.1-3.2,3.5-4.2,5c-8.2-6.1-15.2-16.6-19.1-27.5h-13.5v-5.4C241.9,93.5,259.5,93.5,259.5,93.5z M357,94.8V158h-5.3V155h-49.8
	v3.1h-5.2V94.8C296.8,94.8,357,94.8,357,94.8z M351.7,150V99.8h-49.8V150H351.7z M329.2,140.9c-0.1,1,0,2.6,0.1,3.5
	c-13.4,3.7-15.3,4.2-16.4,4.9c-0.2-1-0.9-2.6-1.5-3.4c3.5-0.3,2.9-6.5,2.8-9.2c-2.6,1-5.2,1.9-7.7,2.5c-0.6-0.7-1.9-2.4-2.8-3.2
	c5.7-1.3,12-3.4,16.6-5.9h-10.2v-10.8h33.7v10.8h-17.4c-2.2,1.7-5,3.3-8,4.7v8.6L329.2,140.9L329.2,140.9z M348.1,116.6h-42.6v-3.5
	h18.7v-4.5h-14.6v-3.3h14.6v-4.1h4.9v4.1h15.1v3.3h-15.1v4.5h19L348.1,116.6L348.1,116.6z M314.7,127.2H339v-5h-24.2V127.2z
	 M347.9,133.9c-2.5,1.7-5.4,3.4-8.1,4.7c3.3,2.2,6.3,4.4,8.4,6.2l-3.6,2.5c-4.2-3.8-12.8-9.7-19.6-13.6l3.3-2c2.6,1.4,5.5,3.1,8.3,5
	c2.8-1.6,5.9-3.5,7.8-4.9L347.9,133.9z M436.7,93.6c6.8,10.1,19.2,19.8,30.7,24.6c-1.1,1.1-2.9,3.3-3.6,4.7
	c-11-5.2-22.4-14.5-30-24.2c-7.4,9.2-19.8,19.3-29.9,24.8c-0.6-1.4-2.1-3.2-3.3-4.4c9-4.2,19.8-12.4,27-20.4h-12.9v-5.1H436.7z
	 M436.4,151h28.3v4.9h-61.4V151h27.5V139h-20.3v-4.8h20.3v-11.1h-17.2v-4.9h40.5v4.9h-17.8v11.1H457v4.8h-20.6V151z M548,151v4.9
	h-64V151h29.1v-9.6h-22.5v-4.8h22.5V129h5.4v7.6h23v4.8h-23v9.6H548z M490.1,110.8h-5.2V98H514c-0.8-1.8-1.9-3.9-2.8-5.6l5.2-1.5
	c1.3,2.2,2.8,5,3.7,7.1h26.9v12.8h-5.5V103h-51.4V110.8L490.1,110.8z M537.7,131.2c-1-1.3-2.4-3-4.1-4.6
	c-34.4,2.7-37.8,2.9-40.1,3.9c-0.3-1.1-1-3.6-1.6-4.9c5.6-2,8.4-5.3,15-11.3h-14.7v-4.7H540v4.7h-26.2c-3.9,3.8-8.1,7.5-12.3,10.5
	l28-2c-2-1.8-4-3.6-5.9-5.1l4-2.5c4.9,3.8,11.2,9.4,14.2,13.1L537.7,131.2L537.7,131.2z M574.8,126.3c-1.5,7.9-4.7,17.9-8.4,22.9
	c-0.5-1.5-1.7-3.9-2.6-5.3c3-4.2,6.2-12.3,7.5-18.7L574.8,126.3L574.8,126.3z M580.4,121v37h-4.9v-37h-10.6v-5.1h10.6V91.8h4.9V116
	h8.9v5H580.4z M569.2,112.8c-0.7-4.1-2.4-10.5-3.9-15.3l4-0.9c1.6,4.9,3.3,11.1,4.1,15.3L569.2,112.8L569.2,112.8z M584.3,125.3
	c1.3,1.9,6.2,10.9,7.3,13.1l-3.7,4c-1.2-3.6-5.1-12.2-6.5-15L584.3,125.3z M591.2,98.1c-1.9,5-4.2,11.3-6.1,15.1l-3.5-1.2
	c1.7-4.1,3.9-10.9,4.9-15.5L591.2,98.1z M626.8,152.3c-0.2,6.8-5.1,5.1-11.8,5.5c-0.2-1.4-0.9-3.2-1.5-4.5c9.8,0.3,8.3,1.2,8.3-7.2
	h-22.5c-0.8,4.6-2.2,9.1-5.2,12.7c-0.8-1-2.7-3-3.8-3.6c6.9-9.2,4.3-21.7,4.8-31.9h31.8V152.3z M631,115v4.1h-40.3V115h17.1v-4.9
	h-14.5v-3.9h14.5v-4.4h-16.3v-4.1h16.3v-5.9h5.3v5.9h17.1v4.1h-17.1v4.4H629v3.9h-15.8v4.9H631z M621.7,142.3v-5.4h-21.8
	c0,1.7-0.1,3.5-0.2,5.4C599.7,142.3,621.7,142.3,621.7,142.3z M599.9,127.7v5.4h21.8v-5.4H599.9z M658,115.2c-0.8,6-3,10.5-8.8,13.4
	c-0.6-1.2-2-2.8-3-3.5c4.4-2,6.2-5.4,6.9-9.9h-5.2v-4.4h18v-4.3h-14.6V92.9h4.7v9.2h9.9V91.6h5.1v35.6h-5.1v-12L658,115.2L658,115.2
	z M708.3,138.5c-3.8,2.7-8.6,5.3-12.8,7.3c5,3.5,11.1,5.9,18,7.4c-1.1,1-2.5,3-3.1,4.4c-14.2-3.5-24.9-11.4-30.9-23.2h-0.2
	c-3,2.5-6.9,4.8-11.2,6.8v10.2l17-3.5c-0.2,1.3-0.3,3.3-0.2,4.3c-19.6,4.5-21.9,5.2-23.4,5.9c-0.4-1.2-1.5-3.3-2.2-4.3
	c3.8-1.1,3.7-6.8,3.5-10.4c-4.4,1.7-9,3.1-13.3,4c-0.6-1.2-2-3-3-4c8.8-1.7,18.7-4.9,25.5-9.1h-24.5v-4.3h30.2
	c-0.7-1.5-1.6-3.3-2.4-4.7l5.2-1.5c1.2,1.9,2.5,4.2,3.3,6.2h28.4v4.3h-27.5c1.9,3.2,4.3,6.1,7.3,8.7c4.2-2.2,9.2-5.2,12.3-7.5
	L708.3,138.5z M689.6,106.4H674v-4.7h15.6v-10h5.3v10h16.3v4.7h-16.3v12h14.8v4.7h-34.1v-4.7h14L689.6,106.4L689.6,106.4z
	 M289.5,236.1c3.3-3.5,17.1-15.9,19.6-19.7c6.9-10.8-11.2-17.4-13.6-5.4l-5.2-0.5c3.9-18.9,34.3-8.8,22.6,8.8
	c-3.1,4.6-13.9,13.6-17.9,17.7v0.1h20.6v4.5h-26V236.1L289.5,236.1z M330,218l0.1,0.1c19.6-8,25.2,24.3,4.1,24.2
	c-7.3,0.2-13.8-5.1-13.5-12.7c-0.4-8.5,10.9-21.3,14.6-28.4h5.6L330,218L330,218z M334.2,221.1c-6.5-0.2-10.5,6.3-8.1,12.1
	c2.6,6.6,13.5,6.6,16.1,0C344.8,227.4,340.7,220.8,334.2,221.1z M352.6,225.9h14v4.1h-14V225.9z M393.1,227.9h5.8v4.5h-5.8v9.3h-4.8
	v-9.3h-17.1v-5.3l16-25.9h5.9V227.9L393.1,227.9z M388.3,206.8h-0.1l-12.9,21.1h13L388.3,206.8L388.3,206.8z M424.9,227.9h5.8v4.5
	h-5.8v9.3h-4.8v-9.3h-17.1v-5.3l16.1-25.9h5.9V227.9L424.9,227.9z M420.1,206.8H420L407,227.9h13L420.1,206.8L420.1,206.8z
	 M449,211.7c-9,0-16.3,7.3-16.3,16.4c0.9,21.7,31.8,21.7,32.7,0C465.4,219.1,458,211.7,449,211.7z M459.3,232.1h-5.9v7.6h-2.8v-7.6
	h-5.8l0.3,1.8c-2.3,0.9-4.7,1.9-6.7,2.6l-1-2.8c0.8-0.2,1.7-0.5,2.7-0.8v-7h-2.3v-2.6h2.3v-5.1h2.5v5.1h2v2.6h-2v6.2l2.1-0.7
	l0.1,0.5v-2.5h5.8v-7.8h-5.2V219h13.3v2.6h-5.3v7.8h5.9C459.3,229.5,459.3,232.1,459.3,232.1z M445.9,223.2l2.2-0.5
	c0.6,1.7,1.1,3.9,1.2,5.4l-2.3,0.6C446.8,227.1,446.4,224.9,445.9,223.2z M458.4,223c-0.6,2-1.2,4.1-1.7,5.5l-2.1-0.6
	c0.5-1.5,1.1-3.8,1.3-5.5L458.4,223L458.4,223z"/>
<path class="st1" d="M710.2,189.3H13.7c-6.8,0-12.3,4.6-12.3,10.4v42.4c0,5.7,5.5,10.4,12.3,10.4h696.5c6.8,0,12.3-4.6,12.3-10.4
	v-42.4C722.5,193.9,717,189.3,710.2,189.3z"/>
</svg>
