<?xml version="1.0" encoding="utf-8"?>
<!-- Generator: Adobe Illustrator 26.5.0, SVG Export Plug-In . SVG Version: 6.00 Build 0)  -->
<svg version="1.1" id="圖層_1" xmlns="http://www.w3.org/2000/svg" xmlns:xlink="http://www.w3.org/1999/xlink" x="0px" y="0px"
	 viewBox="0 0 924 675" style="enable-background:new 0 0 924 675;" xml:space="preserve">
<style type="text/css">
@keyframes letterDraw {
  to {
     stroke-dashoffset: 0;
  }
}
	.st1{stroke-width:1.33;}
	.st2{stroke-width:110;}
	.st3{stroke-width:40;}

	.line{fill:none;stroke:#FFF;stroke-linecap:round;stroke-linejoin:round;stroke-miterlimit:10;
	}

	.an1{
	animation: letterDraw .8s 2s linear forwards;
 stroke-dasharray: 688;
 stroke-dashoffset: 688;}
	.an2{
	animation: letterDraw .8s 2.8s linear forwards;
 stroke-dasharray: 810;
 stroke-dashoffset: 810;}
	.an3{
	animation: letterDraw .3s 3.6s linear forwards;
 stroke-dasharray: 345;
 stroke-dashoffset: 345;}
	.an4{
	animation: letterDraw .3s 3.9s linear forwards;
 stroke-dasharray: 410;
 stroke-dashoffset: 410;}
	.an5{
	animation: letterDraw .2s 4.2s linear forwards;
 stroke-dasharray: 400;
 stroke-dashoffset: 400;}
	.an6{
	animation: letterDraw 3s 4.4s linear forwards;
 stroke-dasharray: 4956;
 stroke-dashoffset: 4956;}
	
</style>
<path class="line st1 an6" d="M220.8,673.7c20.3-1.1,44.6-5.1,73.6-12.9c50.3-13.6,53.8,12.5,66.8,12.2c13-0.2,28.7-2.9,40.2-8.2
	c14.2-6.8,32.5-1,41.9-5.8c0.9-1,1.8-2.7,2.5-5.3c1.9-6,3.5-16.2-2.7-5.4c-4.7,7.2,4.4,12.4,10.2,14.7c8.2,5,13.4,4.9,9.3-5.9
	c-4.3-8.8,10.6-28.7,1.6-30.9c-4.6-1.7-14.8-0.4-16.9-6c-6.7-13,6.9-28.9,6.1-41.9c1.2-9.7-12.5-15.3-11.3-10.6
	c1.3,1.8,5.4,4.2,6.7,6.1c1.7,8.7-4.6,27.6-9.3,36c-2.4,3.9-5.1,6.5-7.5,7.5c-4.5,1.8-8.5-1.8-5.1-5.7c5-3.7,7.7-7.8,7.6-14.8
	c2.8-9,2.7-24.9,4.1-33.6c5.7-6.4,23.6,12.3,22.8-6c-1.3-7.2-7.3-12.7,2.7-16.3c1.2-0.6,1.4-1,1.5-1.3c-0.6-1.6-5.1,0.1-6.8,1.2
	c-2.9,2.3-3.6,6.9-6.4,9.2c-11.9,7.4,7.2,7,11.1,3.4c2.5-3,0.4-6.7,5.7-5.7c0.8,0,1.3-0.2,1.2-0.7c-7.4-10.6,6.3-11.5-7.3-19.6
	c-14.3-7.7-30.9,3.9-22.9,19.8c2.1,4,6.7,6.2,5.6,10.2c-0.1,4.1,13.6,5.3,16.3,3c2.6-1.7,4.2-6.6,7.4-7c2.9-0.1,4.9,3.2,5,6.1
	c0.4,2.7-2.5,5.4,0,6.8c9.6,4,10.9,8.2,12.9,17.2c4,4.8,12.5-0.3,11.7-6c-0.5-4.7-7.1-7.5-10.9-11.6c-7-7.2-15.9-14-17.7,0.1
	c0.3,9.4,9,14.8,12.8,24.4c3.2,7.9,5.6,20.2,1.9,27c-6.6,9.3-23.3,2.3-30.9,9.2c-2.2,7-4.4,14-4.7,22.4c-0.6,6.4-3,13.9,2.5,17.8
	c13.6,8.7,25.2-9.8,38.5-13.3c10.6-2.2,24.8,5,32.3-3.1c6.6-5.6-1.8-12.9-0.5-19.2c1.2-4.6,4.3-9.5,2.7-14.4c-0.9-3-2.3-2.8-3,0.4
	c-0.7,8.2-6.6,7.1-6.5,12.3c0.2,6.4,4.2,18.3,12.3,18.3c14.6-0.9-2.6-11.6,1.9-18.2c12.8-15.2,3.5-41.5,13.5-42.5
	c9.7-3,7.9,41.9,9.8,49.5c0.9,7.1-1.3,13.2,2,17.2c6.8,1.5,5.5-0.9,3.6-6.1c-0.5-1.8-0.5-3.4-0.2-7.6c0.4-6.6,2-18.9,1-24.8
	c0-5.3-5.4-5.4-9.2-4.7c-2.5,0.4-3.1,1.2-1.2,2c3.6,0.3,12.6,0.8,14.9-2.7c0.9-6.6-2.2-22.7-3.2-30.9c-1.6-9-2.6-11.7-9.5-9.7
	c-4.2,1.8-6.9,9.6-9,13c-2.4,3.2-7.3,1.3-11.1,1.3c-15.4-2.4,2.4-32.8-6.6-39.9c-4.7-1.7-7.5-2.7-10.1,3.5
	c-4.2,6.8-9.4,21.5-17.1,24.6c-1.4,0.3-3.1,0-3.9,0.2c-2.6,1,2.7,6.5,3,8.2c2,2.2,4.5-1.1,8.3-3.9c7.6-6,16.8-16.3,18.4-25.6
	c1.5-5-7.2-5.8-7.2-9.9c0.3-3.1,1.3-9.6,3.4-12.8c5.1-7.2,14.4-0.7,19.7,2.6c3.4,1.9,4,0.5,5.3,4c0.9,1.9,1.5,5.9,4,5.4
	c1.6-0.5,3.5-1.2,1.6-3.2c-11.2-7.9,0-21.1-6.6-29.8c-1-2.8-19.3-8.6-15-2.9c2.8,1.8,9.6,3.1,12,6.3c5.2,7.8-6,10.3-5.6,15.7
	c0.3,7.6,16.5,28.9-3.2,11.8c-5-7-1.7-14.4-5.1-22.1c-6.2-12.5-3.3-17.5,9.5-23.1c11.9-3.6,18.2,25.4,27.3,31.9
	c5.6,5.9-5.1,10.2,0,16.4c6.5,8.9,26.8,15.2,35.1,6.6c1-4.8-1.1-5.6-5.4-4.9c-27.5,0-19.6-18.9-29.8-5.8c-3.5,3.6-6.2-5.2-9.5-4.3
	c-0.8,3.2,1.9,3.6,2.4,10.1c1.3,11.3,3.3,27.6-7.3,34.4c-13.2,10-29.4-7.5-25.9,9c1.1,7.3,1.3,22.6,4.1,28.6c2.3,3.5,8.5,3.1,11.8,2
	c5.2-2.5,2.3-14,3.1-19.2c-0.2-5.7,2.3-8.3,3.8-2.6c0.8,5-0.6,14,0.6,18.9c2.9,8.5,1.3,17.8,3.1,27.1c1.2,6.9-3.2,15,5.3,16.3
	c9.6,0.4,27-12.1,38.3-13.7c8.1-1.6,13,1.3,19.5,1.9c8.3,0.5,20.3-1.6,25.8-4.1c0.7-0.7,0.8-1.6-0.3-4.1
	c-12.1-16.9-0.5-27.2-0.7-45.6c0.1-10.8-4.1-28.5-6.2-39c-1.8-8.8-1.7-9.9-8.5-12.6c-3.6-1.3-7.7-4-7.2,1.3
	c0.2,5.3-1.1,8.9,0.4,15.7c4.2,14.5,5.9,25.1,22.4,28.6c5.9,1.1,6.8,3.2,8.9-3.8c1.2-4.6,2.7-13.6,3.7-20.6
	c5.4-34.7-11.5-21-32.7-27.6c-8.7-5.1-5.4-18.7-6.1-29.3c-0.6-16.1,4.9-31.1-7.5-41.8c-6.6-4.2-1,3.2,0.8,5.9
	c5.9,7.4,2,18.5,0.2,26.9c-0.8,3.3-1,4.1-2,4.8c-4.9,2.6-12.5,4.3-10.2,12.2c0.9,5.2,4.1,15.2,5.1,19.8c1.1,3.8-2.1,7-3,10.8
	c-3,9,9.8,12.5,13.6,5.4c3.6,0.4,4.2-0.1,4-4.4c-0.6-4-3.8-8.9-5.3-12.9c-3.9-6.5,1.2-23.9-6.5-27.2c-4.9-1.6-10.4,0.7-10.4-6.8
	c-0.7-7.2-1.4-21,1.5-28.1c4.6-10.7,19.3-15.7,25.9-24.7c10.2-12,4.6-4.6,11.6-3.6c8.8,0.3,6.4-7,10.8-9.7c1.2-0.2,0.8-1.5-0.2-2.1
	c-3.5-1.6-4.3,4.4-5.4,6.8c-1.1,2.9-3.4,3.1-4.9,0.9c-1-1.6-1.3-5.3-3.7-5c-4.6,2.9-2.4,13.1-0.3,17.5c3.2,5.1,11.6,5,12.3-1.4
	c0.7-2.7,2.4-2.7,4.4-1.9c3.8,1-2-7.1-0.2-10.9c0.2-3.6,2.4-7.1-1.4-9.6c-6.5-5.9-18.6-7.9-24.9-0.5c-5,6,0.9,14.4-1.3,21.1
	c-0.3,3.9,4.3,6.4,6.3,9.5c2.1,1,4.1,17.1,6.9,12.6c1.6-2.3,0.1-12.2,3.6-12.7c3.2,0.5,10.9,4.8,13.8,6.3c1.4,0.9,1.9,1.7,2.2,5.5
	c0.6,7.6,1.2,25.4,1.8,33c-0.3,11.5,7.6,4.1,10.3,10.2c1.2,3.1,3.3,8.2,3.4,11.5c-1.1,4.4,3.2,15.3,0.7,17.8c-1.5,1.2-6.1,5.8-7,1.9
	c-1.9-16.9,8.2-9.1-5.3-27.8c-3.4-5.3,4.1-6.4,7.1-8.7c2.8-2.6,0-4.5-1.5-11.2c-1.7-5.4-4.5-14.4-6.1-19.6c-1.5-5.2-1.8-6.6-2.4-7.3
	c-0.6-0.7-1.6-0.7-2.3,3.6c-1.5,10-1.8,30.2,0.9,40.9c5.3,16.7,13.8,34.1-11.7,27.3c-7.2-1.5,5.5,31.8,5,36.3
	c0.5,2.8,0.5,4.5-1.3,5.6c-3.7,2.2-12.7,0.7-16.2,3.9c-7.2,10.7-0.6,26.9-3.8,39c-2.4,15.7,8.2,27.8,24,19.1
	c3.5-2.3,6.8-6.6,12.2-8.2c5.4-1.6,13-0.6,16.3-2.5s2.4-6.8,2.4-9.6c1.4-10.6,8.6,3.5-1.2,4.7c-10,0.7-4.6-5.9-0.5-13.9
	c5.2-10,14.6-27.6,16.9-38.4c2.2-6.9,1.9-15.2,5.4-20.2c3.1-3.2,12.8-3.6,16.8-2.8c4.8,1.9,2,6.3-0.5,11.7
	c-5.9,9.7-18.2,32.6-23.7,43c-4.7,9.3-8.1,9.1-14.5,5.5c-8.3-8.4,13.5-34,13.3-45.6c0.8-13.2,11.2-26.3,25.5-23.6
	c5.8,0.7,12,2.7,16.6,1.9c4.6,1.3-2.2,10.1-0.8,14.2c4.3,14,12.7,32.2,15.2,48.3c2.8,8.8,0.7,19.1,7.8,18.7c0.6-0.1,0.8-0.5,0.7-3.4
	c-0.6-9.2-1.7-26.2-4.1-36.8c-5.2-20.5-12.8-37.6-18.7-57c-1.3-4.3-2.2-36.5,3.1-33.3c1.1,8.5-1.6,19.7,1.1,29.3
	c2,7.2,4.2,15,7,20.4c1.8,2.6,5,2.8,6,5.3c0.9,2.1,0.7,7.2-0.4,9.4c-2.9,4.1-4.5-6.5-5.3-8.3c-1-2.8,0.3-4.3,2.9-4.8
	c7.4-2-6.1-44.8-6.9-53.2c-2.1-14.4-5.8-11.5-14.4-17.3c-6.6-6.7,4.2-13.5-0.9-17.7c-3.4-2.8-11.5-5.2-15.6-3.4
	c-2.1,3.2,8,1.8,9.7,2.7c8.7,4.8-3.6,25.4-10.7,14.5c-3.9-4.3-1.6-10.1-1.9-15c-2.1-5.7,0.3-9.1,6.7-10.1
	c14.7-3.1,15.4,13.1,19.4,22.8c0.8,3.3-0.3,6.8-2.9,8.9c-2.7,2.3-2.8,6.6-3.4,10c-2,11.4-12-7.2-15.9-9.4c-3.9-4.7-8.4-2.5-12.2,0.6
	c-3.7,5.7,5.6,10.7-0.2,22.3c-5.1,10.3-16.2,25.3-21.8,34.9c-5.2,5.2-2.1-5.9-6.5-4.6c-4.4,1.2-6.8,9.2-1.1,10.3
	c4.7,0.5,6.9-4.1,5.4-8.2c-0.6-2.8-3.2-5.4-3.4-8.3c1.6-7.6,9.2-12.9,12.4-20.8c3.1-6,6-16.5,9.5-21.6c5.9-6.8,10.9,2.6,9.6,9.4
	c-0.6,13.7-4.2,37.3-5.3,50.9c0.7,6.5,7.4,4.3,12.7,4.4c8.6-1,15.4-4.2,12.7,7.5c0.2,5.7,2.3,5.6,6,12.7c2.7,4.7,6.7,11.9,9.5,19
	c5.4,8.8,7.4,42.4,13.6,42.1c5.9,0.2,14.9,2.4,19.8-1.8c3.8-4.7-4-6-7-4.6c-1.6,0.7-1.3,2.2,1,3c7.9,2.8,21.4-3.5,30.7-4.3
	c6.3-0.5,22.6,0.2,30.1,2c8,2.2,15.6,3.9,23.8,1.6c13.5-3.3,47.5-9.1,77.2-12.3"/>
<g>
	<defs>
		<path id="SVGID_1_" d="M9.7,168.4c8.7-9.4,20.2-25.9,34.7-22.5c2.6,0.9,0.5,1.8-1.2,2.8c-3.2,1.5-2.1,2.2,1.6,3.3
			c9.8,3.7,31.8,10.4,33.2,22.7c0,4.4-8,7.4-8,1.5c0.2-1.4,0.6-2.3-0.1-3.8c-2.1-4.1-14.3-9.7-18.6-11.8
			c-18.3-8.2-19.3-7.3-32.8,7.8c-5.2,5.2-5.5,7.8-10.1,11.1C-2.6,184.5,5.2,173,9.7,168.4z M28.4,189.2c2.5-4.4,11.1-19.7,15.3-12.3
			c0.2,1.3-16.2,21.8-8.5,20.1c5.8-4.2,16.2-10.5,21.6-1.9c1.6,2.7,6.1,8.7,7,14.1c-0.5,3.3-3.6,2.3-5.3-0.3
			c-2.8-2.2-7.1-15-11.5-11.6c-4.5,2.6-10,8.6-15.2,8.2C23,204.1,24.3,196.1,28.4,189.2z M91.3,186.9c1.4-6.8,10.3-29.6,15.7-21.6
			c-7.3,14.4-14.5,35.2-13.9,50.7c0.1,1.9-1.4,2.6-2.9,2.5C82.7,215.2,90.4,193.3,91.3,186.9z M135.3,184.5c0,2.7-3.2,5-4.5,6.7
			c-0.1,1.3,0.1,5.7,1.7,5.8c3.9-1,9.2,0,3.4,3.5c-5.2,1.8,2,10.2,3.4,13.7c4,6.5,3.2,3.2,5.7-4.9c2.5-10,5.9-28,6.7-37.9
			c1.7-11.4-4.6-18.1-15.1-18.9c-4.6-0.4-8.2,0.8-12.8,0.6c-9.4-5.5,21.3-8.3,27.2-0.6c12,12.5,4.4,33.3,2.1,48.4
			c-2.5,11.2-7.7,37.6-17,18.5c-1.1-1.8-1.5-3.7-3.1-4.3c-4.6-0.9-20.9,5-27.9,7.9c-2.3,0.7-5.1,1.2-4.8-1.9
			c4.1-6.5,22.3-8.9,30.5-10.8c-0.8-3.4-1.1-3.5-5-1c-6,4.7-14.5-2-9.4-8.4c1.4-2.6,8.1-8,8.8-2.7c0.2,0.9-3.5,4.2-4.2,5.4
			c-1.4,4.7,6.9,0.6,6.2-2.5c0-3.1-3.3-8-0.4-10.3c-2.5-0.4-12.2-6.4-5.4-7.1c1.8,0.1,4.1,2.4,6.2,2.6c4-1.4,0.8-3.2-2.2-3.4
			C108.7,178.7,135.6,175.7,135.3,184.5z M110.1,194.9c2.8-2.1,8-5.7,10.9-5.8c2.6,0.3,2.6,2,0.4,3.8c-3.2,2.1-7.9,7.8-11.8,8.9
			C104.5,201,105.9,197.5,110.1,194.9z M124.1,169.1c1.3-0.8,2-1.2,2.2-1.3c-11-1.9-2.9-5.2,2.8-5.6c0.5-0.7,0.7-4.3,1.4-5.1
			c1.7-2.2,4.5-0.4,3.7,2.4c-0.4,3.3,3.6,0.9,5.1,2.3c1.7,2-2,4-3.8,4.5c-1.7,0.5-5,3.6-6.5,5.4c2.8,0.6,6.5-1.5,9.3-1.7
			c13.8,0.2-4.4,6.8-9.5,6.4C118.8,177.7,109.7,177.1,124.1,169.1z M185,159.6c-0.3-4.7,6.2-3.5,6.3,0.7c1.2,3.9-1.6,12,1.1,16.3
			c3,6.1-4.6,10.9-8.7,15.9c-5.3,4.5-2.5,5.1,1.6,3.5c3.5-1.4,11.2-9.6,13.9-4.2c-0.3,2.6-7.6,6.3-7.8,8.2c2,2.3,9.1,1.2,10.2,4
			c-2.5,3.9-9.5,2.8-13.5,0.8c-3.4-1.3-4.3-3.3-5,0.1c-0.5,3.6-1.3,15.7-2.3,16.3c-3.1,3.6-7-1.8-6.3-5.1c0.8-4.9,2.8-13,1.8-17.1
			c-1.9,4.8-5.7,6-8.6,1.1c0.9-4.3,7.5-6.9,10-10.7c0.4-0.8,4.4-4.4,3.4-5.4c-9.4-4.7-0.3-5.1,4.2-7.6
			C185.1,170.9,184.6,163.8,185,159.6z M217.7,174.8c1.2-9-0.6-7.8,8.4-8.8c11.1-0.6,31.5-1.1,24.2,14.7c-1.5,3.9-5.1,12.3-9.8,8.9
			c-0.9-0.8-1.3-1.5-0.6-2.2c2.8-3.4,8.4-11.7,3.8-15.2c-5.2-2.2-7.4-0.7-5.3,4.7c1.9,0.9,8.7,1.1,4.3,4.8c-1.2,1.7-3.6,0.2-4.8,1.5
			c-0.4,0.3-1.2,4.5-0.4,5.7c0.5,0.9,2.4,1.6,2.2,2.9c-0.1,1.3-0.5,1.4-1.7,2c-2,1.3-2.8,5.6-3.2,8c13-4.2,1.3,5.2-1,9.4
			c-0.9,1.8-3.8,7.7-1.2,9.4c8.3,0.2,21.2-5.5,29.7-2.3c2.3,5.1-19.5,4.9-23.7,7.5c-1.5,0.7-6.9,0.8-8.8,1.5
			c-4.6,1.9-13.1,5-15.6-1.3c7.7-4.6,11.6-1.8,11.8-13.7c-10-4.4-5.6-5.7,2.1-8.2c0-2.2,0.8-5,0.1-7c-0.2-0.1-0.3-0.1-0.4-0.1
			c-4.3,1.2-7.9-2.8-11-5.5C216.4,185.6,217.3,181.9,217.7,174.8z M226.8,182.2c-5.4-4.2-3.4,7.5-3.2,9.9c1.6,0.1,4.9-1.2,6.4-1.9
			c-0.2-2.6-0.3-3.9-0.4-6.4C229,183.4,228,182.8,226.8,182.2z M224.6,178.8c5.8,0.7,6.4-3.1,7.2-7.7c-0.3-0.1-0.4-0.2-0.7-0.4
			c-2.1,0.3-3.1,0.5-5.2,0.8C225.1,174.7,224.7,177.2,224.6,178.8z M283.2,222.2c1.7-4.5,2.7-7.1,3.1-7.6c6.1-4.1,7.5,2,4.3,7.3
			c-1.5,3.8-2.6,10-7.3,10.9C278.3,231.4,281.4,228.7,283.2,222.2z M317.7,190.3c8.3-1.2,19.4,1.5,25.9-2.6c1.4-0.8,8.1-16,9.9-18.9
			c1.4-3.8,5.3-4.3,6.5-1.2c-2.3,13.6-18.6,23.2,0.4,17.8c8.3-1.5,10.7-2.8,14.5-1.6c2.4,5.1-4.9,6.3-8.5,6.5
			c-18,3-16.5-0.4-24.4,16.9c12.2,6.4,34.8,14.3,43.1,23.3c-4.4,6.7-20.7-5.9-28.4-9.6c-5.4-2.6-17-11.3-18.7-7.1
			c-2,4.3-7.3,14.2-12.6,14.6c-8.6-2.6,0.4-7.5,3-10.5c0.7-0.1,11.6-22.9,11.8-23.3c-5.6,1.2-24.3,3.2-24.8-3.1
			C315.4,190.9,316.2,190.5,317.7,190.3z M409.8,180c-0.5-3.3,3.2-4.2,4.7-1.9c0.9,1.2,0.9,4,1.8,5.6c2.1,1.3,6.1-1.7,7.9-0.2
			c2,4.7-3.9,4.9-7.2,6.1c0.1,2.6-1.6,7.4,0.4,9.1c3.6,1.2,13.8,4,9.9,9.6c-1.8-0.1-3.7-2.8-5.5-3.4c-2-1-6.6-1.3-6.3,2
			c0.2,1.8-2.3,18.8-3.6,20.2c-5.5,7.4-11.6-2.6-10.7-8.6c-0.3-4.5,1.9-4.8,3.7-2.8c0.8,1.1,1,6.2,2.1,7c2.1-1.9,2.9-14.1,1.8-16.8
			c-5.9-0.9-7.7,8.1-12.1,10c-4.9-0.5-4.8-4.6-1.5-8.2c10.1-12.9,16-1.1,14.9-16.3c-0.1-0.1-0.2-0.1-0.3-0.2c-3.1,1-7.7,2.6-9.7,2.4
			c-2.3,0.2-7.7-3.3-3.1-4.8c3-1.5,11.6-0.9,12.8-4.4C410,182.7,409.8,182,409.8,180z M425.5,174.5c14.5-2.5,5.1-2.7,12.5-6.4
			c0.6,0,1.4,0.9,1.4,1.4c1.4,2.5,7.5-0.7,7.8,2.7c-0.2,2.9-5.4,3-6.8,5c-1.2,0.6-2.5,6.4-0.3,6.8c1.7,0,3.9-1.4,5.3-1.3
			c9.1,0.6-1.2,6.3-4.9,8.2c-1,0.5-1.3,0.7-1.5,1.3c-0.5,2.2-4.4,1.8-5.7,0.5c-2.9-3.3,0.6-9,0.1-13.4c-0.1-0.1-0.1-0.1-0.2-0.2
			c-1.8,0-4.4,0.6-5.9,0.5C425.5,179.4,422.2,175.4,425.5,174.5z M431,217.7c1.3-12.3,2.4-18.9,3.3-19.8c1.3-1.2,5.1-0.7,6.2,1.1
			c2.1,2.4,5.4,2.4,6.9,5.2c1.9,2.9,2.3,8.6-0.5,11.3c-2.7,3.5-7.1,1-8.9,2.7c-0.6,1.5,0,3.3,1.7,3.5c0.6,0,0.7,1.4,1.3,1.5
			c1-0.7,3.6-4.2,4.4-4.6c1.6-1.7,4.6-1.2,4.4,1.4c0.5,1.1-3.9,6.4-4.4,7.6c0.1,0.1,0.1,0.2,0.2,0.3c4.8-0.5,9.5-4.3,13.2-6.9
			c10.2-2.6-2.4,7.2-5.3,9.5c-3.2,2.8-4.3,1.4-7.1,3.5c-2.4,1.6-21.2,8.9-17.3,0.3c3.2-1.1,9.7-6.2,9.2-9.5c-3,1.4-6-2.2-7.5-4.1
			C430.5,220.4,430.8,219.1,431,217.7z M442.9,206.7c-3-3.2-6.2,5-2.8,6.2C442.6,212.8,444,208.7,442.9,206.7z M474.2,177.5
			c3.9,0.4,2.9,6.3,4.9,9.3c3.4-0.3,11.5-1.5,8.1,3.5c-4.6,2.2-6.3,0.8-5.7,8c0.2,2,0,4.7,2.5,4.7c1.8-0.3,6.7,2.5,4.1,4.4
			c-2.8,0.8-6.5,0.1-6.2,4.6c0.6,14.7-16.9,11.1-15,7.6c4.7-0.4,9.3-1.8,9-7.7c0.7-4.4-6.3-2.8-8.6-4.1c-5.6-4.2,5.6-4.8,7.9-5.6
			c0.7-1.3,0.1-4.2-0.5-5.5c-3.8-1-10.8,4.8-13.6,1.8c-5.5-5.7,7.9-6.1,10.3-8.3C476.8,187.6,466.9,177.7,474.2,177.5z M518.2,170.1
			c7.7-0.2,9.7,3,7.2,8.6c-1.8,4.6-4.2,4.6-8.9,4.7c-4.3,7.3-5.8,28.2-14.4,26.3c-1.9-2.9,4.3-13.1,4.9-16.1
			c1.7-5.5,4.5-16.3,9.1-20C514.3,172,514.7,170.1,518.2,170.1z M518.3,190.4c4.8-2.8,3.1,0.7,5.6,1.3c5.7-1.1,10.1,1,6.8,7.3
			c-0.8,2.5-3,6.3-5.3,7.7c-3,1.6-8.4,0.5-8.8-3.2c-0.1-0.9,0.6-2.9,0.9-3.5C519.7,196.8,515.2,193,518.3,190.4z M522.3,176.1
			c0.3-0.9-0.1-1.8-1.4-1.7c-1.2,0.1-3.2,4-1.6,4.5C520.7,179.1,522.3,177.4,522.3,176.1z M524.4,226.4c3.9-9.4,1.3-17.7,14.3-19.3
			c5.6-0.4,6.4,4.1,7.5,8.3c1.1,1.2,3,1.7,3.2,3.6c-1.1,1.7-4.4,3.9-1.8,5.7c2.6,0,13.4-2.9,11,1.7c-3.6,4-12.6,2-13.6,7.9
			c-1.1,4.3-0.3,11.1-5.1,11.8c-1.3,0.1-3.9-1.2-3.9-2.8c-0.3-0.8,2.1-1.6,3.2-2.1c0.5-2.4,2.5-7.1-0.4-8.8
			c-1.2-0.1-3.7,1.5-5.4,1.6c-2.5,0.3-4.2-3.6-1.8-4.9c2.2-1.6,10.3-1.5,8.7-5.9c-0.1-0.1-0.2-0.1-0.4-0.2c-3.3,1.7-6.7,3.8-9.6,3.2
			c-2.4,3.8-4,11-6.1,14.7c-1.8,4.5-5.1,3.9-5.6,0.1C520.9,235.5,521.9,232.7,524.4,226.4z M525.9,195.7c-3,1-4.8,11.2-1,4.3
			C526,197.6,526.2,197.3,525.9,195.7z M542.7,157.7c2.9,0.6,2.4,3.7,3,6.8c-0.4,6.2,3.8,3.7,8.1,2.1c3.5-1.6,8.6-4.2,6.3,2.4
			c-0.4,2.3-15.4,3.1-14.3,6.7c-0.1,3.5,0.5,5.8,2.6,2.5c1.7-4.1,8.1-4,4.5,1c0.1,0.1-1.4,1.6-0.6,1.6c2.6-0.4,4.4,0.8,3.2,3.3
			c-1.2,1-4.2,2.4-2.4,4.2c7.1,0.6,0.7,5-1.4,6.7c-1.1,2.3-0.9,5.9-2.2,8.3c-4.9,2.5-4.4-2.2-4.1-5.8c-0.3-1.2-3.6-0.7-4.5-1.2
			c-4-2.7,6.1-3.7,6-6.9c-0.3-2.1-5.2-1.1-6.9-2.2c-2.4-1.4-0.3-3.4,1.9-4c1.3-0.2,0.3-0.9,0.1-1.7c-1.1-1.7-0.5-6.8-2.2-6.8
			c-6.2,2.1-10.5-4.5-1.3-4.7C546.5,170.8,535.6,158.3,542.7,157.7z M538.6,214.3c-2.4-3-2.6-1.9-4.6,1.9c-2.5,4.9-1.9,5.7,2.8,3.2
			C540.5,217.4,540.5,217.2,538.6,214.3z M581.5,179.5c10.8-4.2,13,11.2,13.4,19c0.7,7.6,1.4,25.2-5.1,24.2
			c-1.8,0.4-4.9-1.8-2.1-2.9c1.8-1.3,1.7-6.7,1.7-9.2c-1.9,0.9-3,3.2-5.5,3c-2.4,0.2-4.1-2.6-2-4.3c2.6-2,9.8-4.1,6.7-8.5
			c-11.8,0.8-6.7,15.1-12.6,20.8c-5.8,0.3-3.5-6.4-2.6-9.9c1.4-3.9,1.1-8.6,1.9-12.5c1.9-4.9-2.3-18.8,6.6-16.1
			c3,6.7-5.1,15.4,7.7,13.4c-1.2-7.7-2.7-11-8.8-15.9C580.4,180.3,580.6,179.9,581.5,179.5z M608.3,203.7c1.7-4,2.7-10.1,6.6-12.9
			c5.9-3.2,3.4,2.4,2.9,5.5c7.3-2.6,16.3-4.5,23.7-4.8c7.3-1.3,8.9,3.7,7.1,9.5c-0.8,2.4-5.7,8.8-8.3,6.2c5.9-14,4.4-12.1-9.6-9.2
			c-0.8,2.8-1.1,5.1-1,6.7c7.6-0.3,10.2,3.5,1.7,6.2c-1.1,3.8-4.9,7.7-6,11.5c1,0.3,7.7-4.4,8.8-4.3c13.9-1.2,8.6,37-5,29.2
			c-5.8-4,1.1-4.5,4.2-5.1c2.6-3,2.3-12.1,1.6-16.2c-2.6-1.5-8.5,1.6-11.2,3.9c-2.3,1.8-4.7,5.9-7.6,7.4c-8.7-0.3,0.7-8.4,2.4-12
			c2.8-3.8,3.3-7.9,5-10.9c-8.1-2.3-4.7-4-0.6-8.4c0.8-1.1,1.9-7.7-1.9-4.8c-3.5,1.6-5.1,2.7-7.2,6.1
			C611.2,213.5,605.8,208.8,608.3,203.7z M618,149.4c10.5-4.6,4.7,11.8,7.6,15.7c3.7-1,13.5-6.9,11.6,0.8
			c-3.9,1.7-12.5,6.5-15.6,7.2c4.4,1.7,4,14.8,0.9,14.9c-7.1-0.6-3.1-8.8-4-13.6c-3.3,0.5-8.1-0.7-5.6-4.5c1.2-0.8,5.2-1.3,5.6-2.7
			c0.9-3.2,1-9.2-0.2-12.7C617.5,152.6,617.3,150.6,618,149.4z M627.7,178c0-2.4-0.1-4.3,0.1-5.2c0.5-1.8,4.5-3,5.4-1.2
			c0.9,3.2,1.4,12.4-2.3,13.7C626.5,185.6,628,181.5,627.7,178z M131.1,273.4c9.1-1.1,28.8-1.1,23.3,12.4c-0.9,2.1-3.9,8.4-5.9,4.6
			c-1-2.9,1.2-5.4,1.4-8.5c-2.4-7.3-14.7-3.8-21-3.4c-6.3,1.3-21.5,1.4-26.5,6.8c-1.3,1.3-2.9,4.7-4.2,6c-2.4,1-7,0.2-5.9-4.1
			c0.7-5,6.4-8.7,10.1-12.5c3.1-5.3,18.8-2.4,8.9,1.3C115.7,275.9,126.2,273.6,131.1,273.4z M120.7,287.2c3.5-1.1,21.3-3.5,16,3.6
			c-1.7,0.6-4.1-0.5-5.4,0.5c-1.4,1.9-5.6,6.1-7.3,7.6c14.7,4.2,10.6,21.2,5.6,31.7c-2.9,6.6-9.1,16.9-16.6,10.5
			c-2.2-3.4-2.1-5.8-4.1-9.5c-3.1,0.7-11.3,6.7-12.9,0.6c0.1-0.6,0.5-1.1,1.3-1.4c5.2-2,8.2-3.9,13.3-7c5.3-2.9,10.8-8.7,14.6-3.9
			c-1.9,4-8.4,6.3-10.6,9.7c0.2,2.6,1.3,6.3,3.1,6.8c4.2-2.2,10.4-20.2,9.8-25c-6.7,1.7-18.8,17.6-23.3,7.8
			c2.3-2.9,8.4-5.2,10.3-7.4c2.9-2.3,5.5-4.4,9-5.2c6.1-1.4-4.5-2.7-6.1-0.6c-4.6,1.5-13.5,13.9-17.3,5.4c2.9-6.2,13.2-8.9,18.8-15
			c2.6-2.3,3.3-3.5,2.1-3.5C116.9,293.1,116,288,120.7,287.2z M122,256.8c5-1.8,6.1,3.9,6.4,8.1c0,1.8,1.6,2.8,1.5,4.4
			C125.2,278.3,118.7,259.7,122,256.8z M141.5,309c4.2-1.6,13.3-6.3,15.8-1.2c-0.2,2.8-7.5,3.8-9,5.3c5.7,5.5,12.6,10,19.4,12.3
			c3.7,2.3,24.7,3.7,20.6,9.6c-3.9,0.2-21.7-4.5-28.9-7.7c-5-2.1-7.2-4.6-10.9-6.9C140,314.3,134.3,313,141.5,309z M213.7,279.5
			c6.3,0.5,3.7,4.1,1.2,7.1c-6.4,14.7-15.1,28.3-12.9,43.4c3.1,10.6-9,7-6.7-2.7C195.8,319.3,204.9,279.5,213.7,279.5z M220.4,303.3
			c6,2.4,5.5,4.9,5.3,11.1c-0.7,4.9-1,21.6-9,18c-4.6-2.5-10.1,5.3-13.1-2.9c2.7-4.8,14.4-1.5,14.5-9c-5.3,0.8-11.6,5.8-13.3-1.8
			c2.2-2.4,10-3,13.1-4.3c3-7.9-2.7-6.8-7.3-9.1C205.3,298.8,217.3,302.1,220.4,303.3z M243.5,294.2c3.6-5.7,2.6-7.7,7.2-7.8
			c5.6,0.5,3.1,3,1.8,6.3c0,0.7,0.4,1.2,1.4,1.3c9.4,2.5,18.2,2.4,18.7,12.7c0.6,1.4-3.4,10.5-1.4,11.6c3.1,1.1,12.3,1.3,8.7,6.6
			c-2.6,1.7-8.1-0.5-10.8-0.6c-4.1,8-7.4,12.3-10.1,12.9c-4.9,2.5-20-9.6-11.3-9.8c4.8,0.2,7.2,9.4,10.9,1.6
			c1.2-2.8,3.5-4.6,0.8-5.5c-2.9-0.9-6.1-1.9-7.9-2.9c-7.9-6.8,8.6-2.6,11.4-3.7c2.1-1.2,2.4-7.6,2.6-9.9c1.2-4.6-12.4-10.1-15.9-6
			c-1.2,1.3-2.7,4.7-4.8,4.7c-1.9-0.1-4.6-1-4.4-3.2C240.2,301.1,241.3,298.4,243.5,294.2z M293.5,300.9c5.5-0.9,13.8,0.2,19.4-0.2
			c2.2-3.3,5.6-8.3,9.2-9.9c3.5-0.9,2.4,3.2,0.4,5.1c0.1,0.2-3.6,4.1-2.7,4.3c2.6,1,17.4-3.2,15.1,2.6c-2.6,2.2-7,1.5-11,1.7
			c-7.7-1.8-9.7,9.5-14.1,13.9c10.3-0.3,10.2,12.5,4.4,18.3c-17.1,13.1-28.3-9-10.4-18.9c0.8-3.5,10-12.9,2.8-12.6
			C302.9,305.2,286.3,306,293.5,300.9z M303.6,336.3c4,1,10.8-11.1,5.8-11.9C304.1,323.3,298,334.2,303.6,336.3z M346.4,290.6
			c1.9-2,7-1.8,6.7,1.8c0,1.4-0.5,2.9,0.7,4c1.7,1.5,5.7,0.3,7.3,1.8c3.9,9.6-3.3,15.4-9.9,25.2c11.9,7.2,28.4,11.2,39.9,15.3
			c4.4,1.7,7.8,4.7,4.5,6.7c-11.9-2-38.7-12-49.4-16.8c-6.3,5.7-12.6,12.3-16.9,5.1c-0.1-0.9,2.2-0.5,2.7-0.7
			c2.2-0.3,7.5-5.1,7.8-7.3c-0.5-1.5-3.1-3-3.1-4.8c1.2-3.4,7.6,2.1,9.5-1.5c2-4,10.1-13,8.3-17
			C349.8,301.8,341.4,295.9,346.4,290.6z M427.6,320.5c0.9-1.5,0.5-4,0.8-5.7c-6.8,1.3-14.2,3.2-20.1,6c-4.1,3.7-14.6,1.3-5-3.1
			c7.9-3.4,16.7-6.8,25.1-7c0.1-0.5,0.1-1.4,0.1-2.7c-6,0-17.3,4.6-17.2-4.9c1-9.1,10-9.1,18-11.4c-0.4-1.7,0.5-4.8-0.8-5.6
			c-2.3,0.1-9.4,0.8-10.3,0.7c-5.6,0.4-13.7-3.1-6.6-4.9c4.2-0.9,12.8-1.2,18.1-1.6c-1.7-10.6,7.5-10.6,6.5-0.4
			c3.6-0.2,14.8-0.6,10.9,4c0.1,0.3-7.8,1.7-10.5,2.1c-0.8,0.7-1.4,3.6-1.3,4.6c2.9,0.2,6.1,0.9,9.1,1.7c1.4,6.8-2.2,13.5-9.3,14.5
			c0,1.1,0,1.7,0,2.9c3.9-0.7,13.3-1.4,17.4-0.3c2.9,0.5,4.1,4.7,6.3,5.7c1.8,0.6,6.7-0.5,6.5,3.2c1.4,5-5.4,4-8.5,3
			c-2.4,4.7-8.5,8.3-13.2,9.7c-2.4,0.3-10.2,1.1-9.7,1.3c-4.5,10.4,1.7,26.4-10.5,32.5c-6.3,2.5-20.3,0.3-22.3-6.9
			c-0.1-0.8,0.4-1.3,1.4-1.3c5.5,0.5,14.1,7,19.3,2.7c2.8-5.7,5.2-19,3.8-25.2c-3.7,0.1-6.3,3.1-9.7,3.9
			c-11.8-6.4,8.7-5.8,10.7-10.9c0,0-0.1-0.1-0.1-0.1c-5.1,0.3-16.3,3.1-21.1,4.8c-2,1.5-5.8,0.1-7.2-1.8c0,0,0-0.1,0-0.1
			C405.3,323.6,418.9,322.1,427.6,320.5z M428.8,297.4c-2.1-0.9-4.9,1.2-7,1.2c-3,0.3-4.3,3.7-3.8,6.7c4.2-1.4,6.3-2.1,10.5-3.6
			C429,300.9,429.6,298.3,428.8,297.4z M436.7,295.9c-2.1,0.1-2.8,4.1-1.5,5.2C437.1,301.2,441.5,294.8,436.7,295.9z M448.5,312.6
			c-3.1-0.5-9.1,0.2-12.5,1.4c0,0,0.1,0.1,0.1,0.1c-0.2,0.1-0.5,0.4-0.7,0.8c0,0-0.1-0.1-0.1-0.1c-0.3,0.1-2,2.7-1.3,2.9
			c1.6-0.1,14.8-2.7,16.5-3.4c0-0.1,0-0.1,0.1-0.1C451,313,450.4,312.9,448.5,312.6z M445.5,322.4c9.8-6-6.1-1.3-8.6-0.8
			c-3.4,0.6-3,3-0.8,3.4C439.1,324.4,442.9,323.8,445.5,322.4z M522.3,288.7c11.9-3.3,21,1.8,16.3,15c-1.8,9.2-9.1,15.9-18.3,15.8
			c0.5,4.2-1.2,11.1,1.8,13.3c4.8-4,7.9-10.6,14.7-10.6c6.7,1.1,9.7,14.9-1.1,6.6c-5.7,5.2-10.8,15.4-19.5,7.8
			c-6.7-3.9-1.4-32,0-37.9c0.8-1.7,6.3-3.4,6.9-0.9c0.1,0.9-0.7,3.2-1.1,4.5c0.1,0.2,0.2,0.3,0.4,0.4c6.5-0.7,9.9-1.3,10.2-1.6
			c1.3-2.7,1.1-9.6-3.7-8.8c-2,0.1-2.1,0.3-4.3,0.3C520.5,293.1,517.9,290,522.3,288.7z M530,307.6c-2.6,0.5-6.9-0.2-8.5,2.2
			c-0.5,0.5-1.5,4.5,0,5c0.9,0.1,6.9-4.2,7.9-4.4C530.8,310,531.8,308.5,530,307.6z M558.5,292.5c7.3-1.9,18.1-5.3,19.7,2.5
			c0.2,6.9-5.5,24.7-14.6,15.6c-0.1,14.4,0.1,35.7-0.5,47.8c-0.1,7.7-1.3,15.2-7.1,12.5c-2.1-3.8,0.6-21.4,0.4-25.7
			c0.4-13,0.2-24.3-1.3-37.8C555,295.6,546,295.9,558.5,292.5z M570.9,296.2c-13.2-3.4-9.6,16-2.9,8.5
			C569.4,302.7,573,298.4,570.9,296.2z M610.1,295c2.8,0,4.1-8.3,5-10.3c15-10.9,1.9,46.7,3,53.2c-1.4,3.3-6.9,1.6-7-1.5
			c0-2.9,3-14,2.7-16.8c-4.5,6.9-7.7,9.6-12.9,13.2c-4.4,3.6-7.1,7-11,8.6c-2.1-0.3-8.2-1.9-3.6-4.8c2.7-3,23.2-16,18.6-18.8
			c-2.8,1.3-7.6,2.6-8.7-1.2c3.8-4.4,12.3-4.8,17.7-6.6c1-0.3,1.6-4.5,1.7-12.4c-4.1,7.1-11.3,2.3-15.7-1.8c-2-2.1-4-9.2,0.6-9.5
			C604.2,286.9,606.5,294.4,610.1,295z M660.8,298.9c5.6-4.4,5.1,3.5,7.6,5.3c3.7-0.5,9.4-2.2,6.8,3c-0.8,1.7-5.1,2.9-4.9,5.2
			c1.6,2.8-1.3,7.7,1.1,10.1c2.4,1.7,6.8,1.6,7,5.6c0.7,4.1-4.3,2.1-6.5,2.3c-1.3,1.5-0.5,7.5-0.9,9.1c-0.2,1.8-1.4,3.3-1.7,5.2
			c-1.8,5.6-10.4,9.3-15.8,6.3c-7-4.6-1-9.5,4.7-4.3c5.2-1.2,6.7-11,4.6-16.6c-3.9,0.8-13,1.2-12.6-2.8c-0.1-1,0.5-1.7,1.8-2.1
			c1.6-0.7,9.2-1,10.3-1.9c-0.3-2.6,1.7-10.1-1.3-9.5c-5.9-0.1-18.3,8.1-23.2,2.3c1.5-2.1,7.5-3.9,10.8-5.2
			c4.8-2.2,8.9-1.5,12.6-3.8C660.4,304.4,657.3,300.8,660.8,298.9z M644.2,284.3c-3.9-1.8,0.1-5.1,1.2-7.2c1.8-3.9,2.6-10.8,7.7-8.7
			c2.4,0.8,1.5,2.8,1.4,4.6c3,4.6,12.8-3.8,7.4,14.4c-1.4,4.5-2.5,6.2-4.5,8.8c-0.6,4.1-6.5,8.7-10.3,9.8c-3,0.6-9.9-4.1-3.4-5
			c8.5-1.8-8.5-4.2,2.8-6.7c0.9-0.1,3.5-0.1,4.3-1c3.1-3.5-4.2-1.7-5.6-2.9c-6.3-5.1,5.5-4.3,8.4-4.6c4.8-9.2-2.6-4.6-5.8-0.7
			C646.7,285.9,646.2,285.1,644.2,284.3z M691.8,302c0.1-4.8,5.2-29.7,10.3-22.7c0.6,1.7-2.2,9.4-2.7,10.6
			c-1.1,8.8-3.7,25.8,0.4,33.9c1.8,3.1,2.9,5.1-1.4,5.5C691.1,330,690.8,310.3,691.8,302z M706,273.1c10.4-1.4,14.8,12.9,10.9,20.5
			c-1.9,3.6-10,8.1-13.4,8.1c-4,0-4.7-2.2-2.6-4.3c2.6-2,8.3-1.9,10.7-5.3c4.6-6.2-8.2-1.8-9-6c0.5-4.2,4.6-2.8,8.6-2.4
			c-1.1-3.1-0.7-5.5-4.2-5.1C701.2,279.5,699.6,273.7,706,273.1z M728.6,302.6c6.5-0.9,20.1-8.5,18.4-0.3c-2.4,0.8-5.3,2.2-4.7,5.4
			c0,2.6,2.2,1.8,3.9,2.7c2.2,1.2,1.3,3.8-0.5,4.7c-3.7,2.2-1.8,7-1.8,10.6c0.6,5.6,1.6,18.2,0.6,19.7c-0.9,3.4-6.9,3.4-6.9-0.5
			c-1.1-3.8,0.4-23.9-2.8-24.5c-3.7,0.7-4.1,8.5-5.2,11.6c-1.6,4.5-6.5,3.3-7.4-0.3c0-2.4,4.3-6.6,3.8-9.5c-0.6-1.4-4.3-0.1-4.3-2.3
			c0.5-3.8,6.3-1.7,5.7-6.4c1-7.4-2.1-3.3-6.4-4.7C716.8,305.2,722.4,304.1,728.6,302.6z M736.6,309.1c-0.6-1.1-2.9-0.3-3.2,0
			c-0.3,0.5-0.3,2.7,0.3,3.7C736,314.8,738.5,311.3,736.6,309.1z M741.6,267.5c1.1-1.5,4.2-0.5,5.8,0.3c2.7,0.2,6.3,0.1,9.3,0.2
			c12.6,1.5,8.9,16,9.8,25.8c0.2,10.3,0.3,10,2.8,21.9c2.4,8.7,4.3,20.8-4.9,12.9c-3.3-3.3-3.9-4-1.8-7.3c0.3-8.2-2.5-18.9-2.2-26.9
			c-1-8.3,1.9-24.8-11.4-20.8c0.2,2.2,0.8,4.5,1.5,6.7c2.2-0.4,7.6-3,8.3,0.6c-1.1,3.4-8.8,3.7-7.6,8c2-0.4,2.9-1.5,4.9-1.6
			c4-0.5,3.2,4.4,1,5.8c-2.7,2.3-10.2,2.9-11.6-1.1C744.8,285.1,740.7,274,741.6,267.5z M794.5,276.9c7.8-3.2,5.4,10.8,7.2,14.5
			c5.4,2,4.6-6.5,8.9-7c3.3-0.4,2.8,1.4,3.8,3.8c10.4,0.8,0.5,5.3-1.9,8.4c-12,25,2.1,10.5-0.2,20.4c-0.7,2.4-5.4,2.5-7.7,2.3
			c-3.5,2.3-10,15.6-15.2,7c10.1-5.8,10.5-13.5,5-23.9c-3.3-1-6.4,3.2-9.9,0.2c-7-3.8,6.9-6.3,9.5-8.1
			C793.9,289.6,793.6,276.6,794.5,276.9z M800.7,300.5c1.7,9.1,4.5,2.2,3.4-1.9C802.6,297.5,800.3,298.3,800.7,300.5z M829.6,271.7
			c0.8-3.2-0.3-16.2,7-12.2c2.6,7.3-2.4,17.9,0.8,25.5c4-2.9,5.9-9,11.2-9.5c5-1.2,10.5,6,10.9,8.5c0.2,0.8-1.1,3.3-1.3,3.9
			c-2.9-0.4-5.8-2.6-8.4-5.4c-0.9-1-0.9-0.4-1.9,0.5c-2.9,3.2-4.9,7.2-9.1,7.8c-3.5,0.5-7.8-1.6-8.2-5.3
			C830.1,281.9,829,273.8,829.6,271.7z M835.8,308.3c-0.2-2.4-1.1-5.9-0.1-7.9c3.4-3.4,6.1-1.6,6.7,3c2.2,0.2,8.1-1.8,10.3-1.9
			c7.1,0.1,4.6,9.1,4.2,13.8c5.2,4.3,30.2-15.6,30.4-3c-5,2.7-41.4,18.7-42.5,10.5c2.4-4.3,8.2-9.2,5.5-14.8
			c-12.6,1.8-0.8,14.9-13.3,8.4C836.7,314.4,836.2,311.8,835.8,308.3z M41.6,397.8c10.2-14.6,25.2-4.3,18.5-0.9
			c-2.7-4.3-7.9-3.9-11.5-0.7c-5.4,3.2-7.9,13.8,0.9,12.9c2.9-0.2,7.4-2.7,9.6-0.3c-0.8,2.5-4.3,2.9-6.7,3.4
			C42.7,415.5,34.2,405.4,41.6,397.8z M79.2,398.6c0-0.1,0.1-0.2,0.2-0.3c12.3-14.4,24.1,5.6,7.4,19.1
			C74.8,423.6,74.7,405.2,79.2,398.6z M91.8,403.7c1.6-9.6-8.9-7.9-10.9-0.2c-1.8,3.7-1.9,15,4.5,10.4
			C88.3,411.3,91.3,407.5,91.8,403.7z M114.7,412.5c2.2-4.4,5.4-13.1,10.5-11.9c1.7,1.5-1.3,3.2-2,4.5c-1.1,2.1,0,5.5,0.7,7.7
			c2.6,4.6,5.8-2.7,8-5.6c2.8-5,5.8-7.6,6.7-0.5c-0.2-1.1,2,19.5-1.3,20.6c-4-3.3,0.3-14.5-2.3-18.9c-4.6,7.3-12.1,17.4-15.7,3.2
			c-1.8,2.3-3.7,7.2-5.1,10.2C107.3,426.2,113.5,415.3,114.7,412.5z M163.6,406.5c2.7-0.4,8.5,0.9,11.2-0.3c0.9-0.7,2.6-0.3,2.9,0.7
			c-0.4,1.5-1.9,1.7-3.4,2.5c-3.3,2.1-4.5,10.5-5.5,13.9c0.1,3.1,6.9-0.3,7.5,2c-1.9,3.8-12.2,4-15.6,2.2c-1.8-1.3-0.6-2.9,1.3-2.9
			c4.2,0.6,5.5-11.2,6.3-13.7c0.1-2.6-4-0.9-5.4-1.9C161.1,408.4,161.8,406.4,163.6,406.5z M197.2,414.7
			C197.2,414.7,197.2,414.7,197.2,414.7c0-0.1-0.1-0.2-0.1-0.2c-0.1-0.6-0.2-1.2,0.6-1.5c1.4-0.7,2.4-3.7,4.6-3.2
			c2.3,0.2,0.4,2.5,1.1,3.7c1.4,2.6,4.3,6.2,5.6,9c1,1.6,2,4.6,3.3,1.3c2.1-3.6,0.7-12.6,4.1-14.2c4.7,3.8-0.9,12.6-0.8,18.4
			c-0.7,13.7-7.8-0.4-11.1-6.2c-1.1-1.3-2.6-5.1-3.9-3.1c-2.1,2.5-4.5,14.7-7.6,12C190.4,427.6,198.2,419.1,197.2,414.7z
			 M234.1,423.7c0.3-6,5.8-12.6,12.4-13.1c1.3-0.2,2.9,0,2.8,1.3c-0.5,1.7-4.3,1.9-5.3,2.9c-4.3,2.3-7.6,9.8-4.8,14.4
			c2.3,4.1,5.7,3.6,7.4-0.6c0.5-1.1,1.3-2.2,0.4-2.6c-1.9,0.1-3.9,0.1-3.9-2.2c1.3-2.1,4.5-0.8,7.2-1c6.4,0.2,5.2,5.6,3.3,10.4
			c-1.3,3.1-2.8,7-5.7,7.6c-2.4-0.5-1.4-1.4,0.1-4c1.7-3.2,3.9-6,3.2-9.3c-0.4-0.5-0.9,0-1,0.7C247.6,441.2,232.5,434.8,234.1,423.7
			z M309.2,419.4c7.3-11.4,15.1-1.7,8.7,2c-1.5,0.2-0.9-3.3-2.1-3.5c-2.5,0.7-6.9,8-1.6,7.9c8.9,1.1,3.5,12.5-2.1,15
			c-4,2.7-9.4-1.1-7.2-5.5c3.7-4.3,1,6.4,6.9,1.4C322.9,424.6,301.9,433.7,309.2,419.4z M337.5,421.3c0-0.1,0.1-0.2,0.2-0.4
			c1.9-7.2,13.9-8.6,15.9-0.7c2.1,7.7-4.3,25.6-14.2,18.7C335,434.9,336,426.4,337.5,421.3z M350.8,424.2c0-9.8-10.1-6.3-10.8,1.6
			c-1.2,4,0.6,15.1,6.1,9.5C348.6,432.3,350.9,428.1,350.8,424.2z M371.5,421.1c0-0.1,0.1-0.2,0.2-0.4c9.5-16.5,24.7,1.1,10.9,17.4
			C371.8,446.5,368.3,428.4,371.5,421.1z M384.8,423.7c-0.2-9.8-10.2-6.1-10.7,1.8c-1.1,4,0.9,15.1,6.3,9.3
			C382.8,431.9,385,427.6,384.8,423.7z M407.5,420.5C407.4,420.5,407.4,420.5,407.5,420.5c-0.1-0.1-0.1-0.2-0.1-0.2
			c-0.2-0.6-0.3-1.1,0.4-1.6c0.6-0.1,1.5-2.4,2.1-2.8c1-1.3,4-1.3,3.3,0.8c0,3.8,5.4,6.6,7,10c3.1,5.2,3.8,0.5,3.9-3.3
			c0.5-3-1.1-12.9,3.1-9.7c2.4,5,0,11.8,0.3,17.6c1,14.9-9.1-1.7-13.3-6.2c-4.4-6.9-4.7,11.6-7.5,12.3
			C400.7,436.7,409.4,424.6,407.5,420.5z M62,11.7c3.3-4,8.8-12.7,14.5-9.9c-0.7,0.9-3.2,1.6-0.2,2.1c4.1,1.4,13.4,3.9,14.1,9.1
			c0.1,1.9-3.2,3.3-3.3,0.7c0.4-2.1-0.7-2.5-3.2-4c-4.7-1.7-10.6-7-14.8-2.3c-2.6,2.5-5,6.7-7.4,8.9C57.4,18.7,60.2,13.7,62,11.7z
			 M70.2,20.2c1-2,4.1-8.5,6.1-5.5c-0.1,1.1-6.1,8.8-3.2,8.7c2.3-1.9,6.5-4.8,8.8-1.2c0.7,0.4,5.7,9.5,0.9,5.8
			c-1.3-0.9-2.9-6.1-4.9-4.7C73.5,28.2,66.2,28.7,70.2,20.2z M97.4,18.2c0.8-3.2,3.4-12.3,6.3-9.4c-2.9,6.2-5.7,15.2-5.3,21.7
			C94.1,35.8,96.8,19.7,97.4,18.2z M115.6,16.7c0,1.1-1.3,2.1-1.8,2.9c0,0.5,0.1,2.4,0.7,2.4c0.9-0.1,2.3-0.5,2.5,0.3
			c0.2,0.5-1.9,1.5-2,2c0.1,1,1.6,3.8,2.3,5c2.2,5.1,3.2-8,4-10.4c1.5-7.3,2.8-16.7-6.9-15.8c-13.8,1.4,7.4-7.5,9.8,3.5
			c1.6,8-1.4,17.4-2.8,23.8c-0.5,2.3-2.1,5.5-4.2,3.2c-0.8-0.8-1.3-3.3-2.4-3.8c-2.4-0.5-9.4,3.2-12.7,3.9c-3.1-2.9,9-5.3,11.4-5.8
			c0.8,0-0.1-1.3-0.3-1.4c-5.6,4.7-8.6-2.9-2.5-4.8c2.4,0.6-1.2,2.6-1,3.8c0.9,0.9,2.7-0.6,2.6-1.7c0-1.3-1.4-3.4-0.2-4.4
			c-1.1-0.1-5.1-2.6-2.3-3c0.9,0,2.8,2.1,3.4,0.3c-0.2-0.6-1-0.5-1.7-0.7C104.7,14.4,115.9,13.1,115.6,16.7z M105.3,21.4
			c1.4-0.9,4.1-3.7,5.3-2.1c-1,1.6-3.7,4.1-5.5,5C103,24,103.6,22.5,105.3,21.4z M110.9,10.2c0.5-0.3,0.8-0.5,0.9-0.6
			c-4.5-0.7-1.2-2.2,1.1-2.4c0.2-0.9,0.6-3.7,2-2.2c0.2,0.2-0.1,1.7,0.3,1.8c0.4,0,1.6,0,1.9,0.2c0.7,1.7-1.9,1.6-2.9,2.9
			c0,0-1.3,1.3-1.3,1.3c1.3,0.8,4.9-2.2,5.9-0.1C117.2,13.7,101.5,15.5,110.9,10.2z M134,17.1c4.6-2.6,18.7-6.7,19.4,1.3
			c-0.8,4.8-4,12.7-9.8,12.6c-3.8-1,1.8-2.1,2.7-4c1.9-2.4,5-6.9,3.9-9.8c-4.3-1.6-7.6,5.4-11.6,6.4C134,25.8,128.7,20.9,134,17.1z
			 M138.1,21c1.5-0.9,4.6-2.6,5.1-4c-2.2,0.1-7.8,1.5-8.6,3.9C134.9,22.7,136.4,21.9,138.1,21z M167.4,13c5.2-1.1,3.4,0.8,4.4-4.3
			c3.8-0.9,2,1.3,2.6,3.3c1.1,0.4,5.1,0.9,5.9,1.2c4.9,2.3-5.5,7-7.1,8.8c-2.5,6-2.7,12.8-3.5,19.3c-5.3,3.2-0.5-11.8-0.7-14
			c0.2-1.4,1.9-5.2-0.9-4.3c-2.9-0.1-5.9-0.5-6.5-4.4c-0.3-2.5-1.9-10.9,2.4-8.3C164.5,15.2,161.5,15,167.4,13z M169.6,19.7
			c0.9-0.3,1-2.2,1.1-3.2c0-0.2,0.4-1.4-0.1-1.6c-2.2,0.3-4.8,0.8-5.2,1.4C162.8,19.3,167.5,20.8,169.6,19.7z M174.7,14.5
			c-1.7-0.2-2,3.2-1.3,4.1C175.3,17.7,181.1,14.3,174.7,14.5z M187.6,22.9c1.5-2.6,3.9-7.8,7.1-6.4c0.7,0.4,0.6,0.8,0,1.3
			c-3.6,1.6-10.7,15.1-2.1,10.5C193.8,33.7,182.1,33,187.6,22.9z M211.7,28.2c2.7-0.8,3.7,1,1.3,2.2c-2.9,1.7-12.5,1-12.2-1.6
			C202.2,25.9,208.4,29.4,211.7,28.2z M203,18.2c1.9-0.7,9.7-1.9,10.7,0.7C212.5,20,201.2,22.1,203,18.2z M230.7,17.3
			c0.5-1.6,2-7.5,3.9-4.3c-0.1,1.4-1.5,3.6-1.6,4.7c2.2,0.7,8.9-3.4,8.4,1c-1.7,1.1-9.4,1.2-9.2,1.9c-0.5,0.6-1.2,5.7-1.2,6.5
			c0,1.5,2.4,0.1,4.6,0c0.8-0.4,1.3-3.4,2.4-3.7c2.1,0.4,0.4,2.8,0.1,4c7.6,0.7,3,15.6-2.5,11.2c0.4-1.1,2.2-1.4,2.8-2.6
			c1.1-1.4,1.8-6.5-1.2-6.3c-1.1,0.4-6.1,6.1-7.3,7.7c-8.1,1.1-10.4-5.8-2-8.5c0.3-1.3,1.8-6.8,1.1-7.9c-0.8-0.5-2-0.3-3.4-0.4
			c-1.6-0.2-3.9,0.5-4.2-1.2C222.7,17,229.3,19.9,230.7,17.3z M226.2,32.8c-2.1,1.7,0.5,2.9,1.5,1.6c0-0.5-0.3-2.2-0.2-2.7
			C227.2,31.9,226.8,32.2,226.2,32.8z M232.7,29.9c-2.4,0.1-2.8,1.9-2.4,3.8C230.6,33,235.4,29.3,232.7,29.9z M252.8,16.5
			c9.4,0.9,13.4-0.3,3.1,8.4c7.7,1.2,2.8,6,4,10.3c-0.1,1.1-1.5,0.8-2.1,1.3c-1.6,2.4-3.5,4.7-6.5,4.3c-4.9-0.9-1.5-6.3,1.8-7.1
			c1.9-1.1,4.3,0.5,4.7-2.3c2-8.5-6-0.6-6.7-4.8c0.5-1.3,6.6-5.7,7-7.4c-2.4-0.1-4.1,0-6.4-0.8C248,16.9,250.6,15.6,252.8,16.5z
			 M255.1,35.6c-2.8-0.2-6,5.7-1.2,2C254.8,36.7,255.6,36,255.1,35.6z M268.7,25.4c6-0.5,10.8,2.5,13.4-5c1.5-2.1,1.9-5.7,4.4-4.6
			c1.9,1.3-4.7,8-3.4,8.7c2,0,14.2-3.1,8.3,1.5c-3.1,0.3-6.4,0.6-9.5,1.3c-0.5,0.8-3.2,4.9-3.4,5.7c4.2,2.5,22,10.7,15.6,11.5
			c-5.3-1.1-11.6-7.8-16.9-9.3c-1.3,1.7-3.3,6.5-5.9,6.6c-3.4-1,0.3-3.3,1.4-4.4c0.3,0,5.3-9.6,5.3-9.7
			C276.2,28.4,264.4,27.8,268.7,25.4z M308.9,21.6c0.5-0.6,0.1-1.8,0.2-2.5c0-1.2,1.8-1.6,2.3-0.7c0.2,0.3,0.7,2,0.9,2.4
			c1.7-0.2,3.5-0.9,5.3-0.9c3.3,1.6-3.7,3.4-4.9,3.6c-0.6,1.1-0.2,1.9-0.2,4.1c3.9-1.4,6.1,1.5,0.3,2.8c-0.3,2.8,0.4,5.2,1.1,7.8
			c-2.7,2.8-3.6-4-4-6.8c-6.1,1.9-6.1-2.1-0.4-2.7c0.2-1.2-0.3-3.2-0.5-4.4c-1.8,0.3-5.8,2.1-6.7-0.4
			C302.8,22.5,307.8,22.2,308.9,21.6z M303.5,37.5c5.4-1.1-2.7,7.7,13.1,5.2C322.1,45.5,300,49.6,303.5,37.5z M327.3,26.2
			c1.4-0.5,4.6,0.3,5.9-1c0.8-1.8,4.1-7.1,5.5-3.4c-0.2,1.4-2.1,1.9-2.3,3.2c1.3,1.8,8.8-1.7,9.5,1.1c-0.3,1.9-2.7,1.1-4.7,1.4
			c-8.9-1-9.5,4.8-14.1,10.4c-1,1.8-3.4,2.1-3.2,0.3c1.1-1.8,5-6.6,6.4-9.4c-0.3-0.4-2.4-0.1-3-0.2
			C325.9,28.6,324.9,26.3,327.3,26.2z M338.4,32.4c3,1-0.8,6.7-0.6,8.5c0.2,1.3,3.3,3.2,3.8,4.3c0.5,0.8-0.4,1.9-1.4,1.8
			c-1.5-0.2-2.7-2.8-3.8-3.4c-7.4,8.3-11.2-5.7-1.2-3.7C336.8,38,335.6,32.4,338.4,32.4z M332.2,44c0.6,0.1,1.9-1.3,2.2-1.7
			C333.2,41.8,330.8,42.9,332.2,44z M346.4,33.7c1.3-1.3,8.3,5.4,6,6.3C350.6,39.3,345.2,35.9,346.4,33.7z M360.7,28.3
			c1.4-0.6,8-0.5,9-1.8c0.6-1.3-0.1-4.4,2.2-4.1c1.4,0.3,0.5,2.6,1.2,3.7c2,0.6,6.8-1.6,7.5,0.5c-0.2,2.9-5.7,1.1-7.1,2.2
			c-1.4,1.5-1.9,6.1-1,8.2c3.9,2.1,10.2,2.8,14.3,4.7c1.8,0.8,8.6,3.1,5.2,4.8c-3.9-0.7-12.5-4.8-16.3-6c-1.8-0.2-4.9-3-4.9,0.7
			c-0.8,2,1.3,9.7-2,9.8c-1.3-0.1-3-1.8-1.7-3c1-1.1,0.7-1.4,1.1-3.7c0.7-3-0.3-5.9,0.7-8.7c-2.1,1.5-6.6,8.8-9.2,9.3
			c-2-0.6-0.8-1.6,0.7-3.6c2.3-2.9,5.7-6.3,8.6-8c1.5-3.9,1.3-4.4-3.3-3.4c-2.3,0.3-3.7,1.3-5-0.2C360.1,29.1,359.8,28.6,360.7,28.3
			z M108.5,62.5c0.9-0.3,4.9,0.1,5.5-0.5c0.4-0.3,0.3-1.8,0.7-2.2c2-1.1,2.6,0.4,1.9,2.2c10.9-2,7.7,2.2-0.4,2.3
			c-0.7,1.6-1.9,5.3-2,7c1.7,0.2,7.5-2.2,7.6,0.3c-1.4,2.7-8.6,0.3-8.4,4.3c-2,8.9,6.3,6.4,11.7,3c1.9,6.1-18.8,10.1-14.1-4.2
			c-5.7,1.5-3.5-2.7,0.5-2.9c0.1-2.2,2.6-6.2,0.9-7.3c-0.8-0.1-2.5,0.3-3.3,0.2C107.2,64.8,106.7,62.9,108.5,62.5z M134.1,71.3
			c16.8-6.4,10.6,14.2-0.7,14.3c-2.6-0.4-2-3.7,0.6-2.2c4.1,0,7.1-6.3,7.6-9.8C141.8,71.2,129,75.5,134.1,71.3z M136.3,60.9
			c4.2-1.2,15.3,3.2,4.5,2.7C139.1,63.7,133.3,63.1,136.3,60.9z M160.9,60.6c2-1.6,3,3,4.2,3.4c6.7-1.1,5.6,2.9-0.2,2.6
			c-2.3,5.2-1,5.3-0.1,10c-0.6,4-2.7,13.3-7.9,13.7c-1.6,0-1.3-1.4-0.3-1.9c2.5-2.4,5.5-8.9,5.3-12.3c-2.3,3.8-7.7,2.3-4.5-2.2
			c2.4-2.8,4.4-2.3,4.7-7c-2.1-0.3-9.7,1.7-10.4-1c1.7-1.8,7.9-1,10.3-2C162.2,62.6,159.6,61.8,160.9,60.6z M159.5,75.9
			c1,0,1.9-1.8,2-2.6C160.5,73.2,158.8,75,159.5,75.9z M174.6,75.2c2.1-1.9,5.8-7.1,8.8-8.5c4.6,1.3-5.8,8.3-6.3,10.1
			c-0.3,3.1,2.4,8.3,4.2,10.5C177.7,91.4,172.6,77.9,174.6,75.2z M190.3,60.8c1.9-0.4,1.7,7.2,0.2,7.3
			C188.5,67.9,188.1,60.8,190.3,60.8z M194.3,66.6c-0.4-1.9-1-5,1.3-5.4C197.5,62.1,197,73,194.3,66.6z M205,68.5
			c0.1-0.1,0.3-0.2,0.4-0.2c3.7,0.6-1,8.5,3,6.8c1.1-1.7,3.5-3.9,3.7-0.3c2,0.5,2.4,1.3,0.2,2.4c-2,0.8-4.8,5.3-4.5,7.2
			c1,0.6,2.3,1,1.3,2.3c-1.4,1.7-3.2-0.8-4.8,1.7c-1,0.8-2.8,3.1-4.2,1.7c-2.5-2.1,3-0.8,3.6-5.8c-0.2-1.2,0.5-5.9-2.2-5
			c-1.2,0.6-2.9-0.5-3.1-1.7c0.6-0.8,3.9-1.2,5-1.6C203.8,73.8,204.8,68.1,205,68.5z M205.8,78.8c-0.1,3.7,1.7,1.3,1.5-0.6
			C206.8,77.7,205.8,77.9,205.8,78.8z M219.5,68.8c0.7-1,0.6-5.3,2.8-5c3.1,0.9-1.9,8.4-0.7,11.2c1.8-0.9,3-3.3,5.2-3.1
			c2.8,0.3,4.7,4.3,2.9,5.9c-1.1-0.4-2.1-1.5-2.9-2.9c-0.3-0.5-0.3-0.3-0.8,0.1C219.1,81.6,217.8,74.2,219.5,68.8z M219.1,84.6
			c0.1-0.9,0.1-2.7,0.6-3.3c1.5-1.3,2.7,0,2.4,1.7c1.5,0.5,4.8-1,5.5,0.9c1.4,2.4-3.3,6.6,1.9,5.5c2.4,0,9.9-3.6,9.5,0.8
			c-2.9,0.7-16.8,4.7-17.5,1c1.3-1.7,4-3.2,3.3-5.8c-4.8-0.4-1.6,6.2-5.9,2.5C219,87.3,219,86.1,219.1,84.6z M256.2,68.7
			c4-0.7-0.8,3.5,5.6,2.4c1.6,0,1.4,1.7,0.2,2.1c-0.9,0.3-2.8,0.5-4,0.7c-0.8,1.7-0.8,3.2-1.2,4.8c1.4,0.2,4.2-2,4.5,0.2
			c-2.3,2.1-6.3,1.8-6.3,6c1.3,1.8,4.3,2,5.7,4.4c1.6,2.5,2.9,4.1,1.1,4.9c-2.7-1.2-4-6.3-7.6-6.2c-1.4,0.4-2.3,2.9-3.5,3.6
			c-2.7,2.5-6.5-1.6-3.7-4.1c1.6-1.8,4.3-0.8,5.8-3.2c3-4.2-4.9-0.5-5-3.6c0.4-1.6,4.1-0.6,5.4-1.1c1.9-0.1,1.6-2.7,1.7-5
			c-0.7-1.5-7.2,0.7-7.1-2.4c1.3-2.1,5.8,0.1,7.8-0.7C255.8,71.1,255.6,69.2,256.2,68.7z M250.5,87.9c-0.7,0-3.6,2.1-1.6,2.4
			C249.4,90.3,251.6,88.2,250.5,87.9z M273.9,71.1c9.4,0.9,13.4-0.3,3.1,8.4c7.7,1.2,2.8,6,4,10.3c-0.1,1.1-1.5,0.8-2.1,1.3
			c-1.8,2.8-5,5.9-8.2,3.5c-2.5-2.3,1.2-5.5,3.5-6.3c1.9-1.1,4.3,0.5,4.7-2.3c1.5-7.6-3.8-2.2-6.4-3.9c-1.5-2.2,6.4-6,6.6-8.4
			c-2.4-0.1-4.1,0-6.4-0.8C269.1,71.5,271.6,70.2,273.9,71.1z M276.2,90.2c-2.8-0.2-6,5.7-1.2,2C275.8,91.3,276.7,90.6,276.2,90.2z
			 M327.2,74.1c5.9-1.4,14,1.6,7.6,7.6c-1.3-0.5-0.4-2.2-0.1-3.3c0.8-4-5.9-2.5-8.3-2.1c-2.6,0.6-8.7,0.9-10.6,3.2
			c-0.5,0.6-1.1,2-1.7,2.6c-1,0.5-2.8,0.1-2.4-1.7c0.2-2.1,2.5-3.8,4-5.4c1.2-2.3,7.5-1.2,3.6,0.4C320.9,75.3,325.2,74.2,327.2,74.1
			z M323,80.1c1.6-0.5,8.4-1.7,6.5,1.4c-0.7,0.2-1.7-0.2-2.2,0.3c-0.6,0.8-2.2,2.6-2.9,3.3c10.3,1.9-1.8,29.6-5.9,14.1
			c-0.7,0.2-2.8,1.5-3.7,1.6c-3.3-1,0.5-2.4,1.8-3.2c1.8-1,4.7-3.6,6.4-4.2c4.4-0.2-0.6,3.2-1.8,4.2c-1.2,0.9,0,3.2,0.7,3.5
			c1.9-1.6,4-8.2,3.9-10.7c-2.8,0.8-7.1,7.6-9.3,3.6c2.5-2,4.9-4.4,7.7-5.6c2.4-0.6-1.8-1.2-2.4-0.2c-1.5,0.7-3.6,3.5-5.4,3.8
			c-3.7-1.5,1-3.8,3.1-5.4c0.5-0.6,4.5-3.4,3.7-4C321.5,82.6,321.1,80.4,323,80.1z M323.4,67.1c2.9-0.9,2.3,3.6,3.2,5.3
			C324.7,76.1,322.1,68.5,323.4,67.1z M331.4,89.2c4.1-2.6,10.2-1.4,2.8,1.7c4.3,5.3,10.9,5.2,16.1,8.1c1.1,2.8-9.5-1.3-11.7-2.2
			C336.2,95.2,327.1,90.9,331.4,89.2z M358.5,75.4c3.7-0.7,1.2,6.2,3.1,7.4c4.7,1.1,1.9,2.4-1,2.6c-3.6,6.3,1.1,2.6,0.4,8
			c-2.7,12-11.2,6.3-5.8,5.4c1.7,0.5,5.5-8.2,2.5-6.9c-0.9,1.6-3.9,4-4.2,0.8c0.4-2.4,4-4.2,4.1-6.7c-1.2-0.1-4.3,0.3-3.4-1.9
			c0-0.1,4.7-0.6,4.8-0.7C359.4,81.4,357.8,76.7,358.5,75.4z M373.2,76.5c1.5-0.4,1.5,1.2,1.4,2.3c1.6-0.2,5.5-0.2,8.2-0.2
			c0.3,1.3-0.1,2.6-1.7,2.2c-2.6-0.1-5.1,0.3-7.2,1.3c-1.5,0.9-3.1,0.5-3.2-1.3C371,80.8,372.7,76.3,373.2,76.5z M373.7,86
			c0.9-1.6,2-0.5,2.1,0.8c1.3-0.6,5.8-1.4,4,1.4c-1.9,0.6-1.9,0.9-1.4,2.8c1.3-0.2,3.5,0.2,2.4,1.9c-1.7,1-3.3,1.8-4,3.9
			c5,1.3,9.2,4.6,13.8,6.2c2,2.4-1.2,2.8-3.7,1.2c-4.2-2-7.6-4-11.1-6.3c-1.1,1.6-2.1,4.4-3.8,4.8c-2.3-1.4-1.2-2,0.7-5
			c0.8-1.2,1.2-1.8,1.2-1.8c-0.6-0.4-3.1-1.1-1.7-2.4c2.1-0.4,4-1.6,2.8-3.8C373.7,88.6,372.3,88,373.7,86z M396.5,89.1
			c4.6-2.6,18.7-6.7,19.4,1.3c-0.8,4.8-4,12.7-9.8,12.6c-3.8-1,1.8-2.1,2.7-4c1.9-2.4,5-6.9,3.9-9.8c-4.3-1.6-7.6,5.4-11.5,6.4
			C396.5,97.7,391.2,92.9,396.5,89.1z M400.7,92.9c1.5-0.9,4.6-2.6,5-4.1c-2.2,0.1-7.8,1.5-8.6,3.9
			C397.5,94.6,398.9,93.8,400.7,92.9z M433.8,83.9c0.5-1.2,2.2-0.7,2.3,0.5c0,1.2-1.4,2.6-0.9,3.6c1.3,0.1,3.8-1.2,3.8,0.7
			c-0.3,2-5.6,0.5-4.2,3.4c0.9,0.1,2.1,0.4,1.1,1.4c-4.5,1.8-2.8,8.8-5.9,11.6c-5.2,3.2,0.5-7.2,0-9.1c0,0,0,0,0-0.1
			c-1.2,0.5-2.9,0.5-3.2-0.9c0.6-1.4,4.9-1.8,4.6-4c-6.6-1.7-6.2,6.1-8.7,2.2c1.7-3.2,3.1-6.9,6.1-8.9c6.2-2.7,1.2,2.2-0.2,4.2
			C432.4,89.8,433,86.7,433.8,83.9z M436.6,109.5c4.3-0.7,16.8-23.2,19-17.7c0.4,0.1-3.9,5.2-6.4,8c-2.9,3.5-11.1,15-14.1,10.7
			C435.4,110.2,435.9,109.9,436.6,109.5z M444.6,95.3c1.7-1.7,5.4-8.6,7.3-4.8c-0.4,1-5.8,7.8-7,7.9C442.5,99,442.8,97.3,444.6,95.3
			z M444.5,86.5c0.6-1.7,0.6-5.5,2.7-5.1c2.7,0,0.1,3.5,0.2,4.8c13.7-3.2,15.1,2.6,10.2,14.7c-5,10.3-13.2,0.8-6.7,2.1
			c4.1,3,9.2-13.4,5-15.5c-1.8-0.1-6.7,0.4-8.9,1.3C445.1,92.2,443.2,89.6,444.5,86.5z M465.5,104.7c0.8-1.1,2.2-4.7,3.9-3.2
			c0.3,0.4-0.1,1.9,0.4,2.2c0.8,0.8,2.6,0.8,2.4,2.4C470.6,112.2,462.4,112.4,465.5,104.7z M469.3,106c-1-0.6-3,1.9-1.9,2.7
			C467.9,108.9,469.9,106.4,469.3,106z M470.3,92.6c1-0.1,4.6-0.9,4.8,0.8C474.6,96.2,465.1,94.3,470.3,92.6z M470.6,87.3
			c1.3-0.8,1.6-5.1,2.3-7c0.3-1.2,1.7-1,2.3-0.4c0.9,2-1.4,4.6-1.5,6.7l0.2,0.2c1.5,0,3-0.7,3.2,0.7c-0.6,2.4-5.9,2.3-7.7,1.6
			c-0.4-0.2-0.7-1.2-0.4-1.6C469.4,87.3,470.2,87.5,470.6,87.3z M470.7,96.6c2.3-0.7,6.6,0.3,2.5,2c-1.2,0.5-2.1,0.8-2.6,0.8
			C469.3,98.7,467.8,96.6,470.7,96.6z M481.6,104.8c1.1-2.2,3.3-5.1,4.8-1.8c4.4,1,6.5,1.9,3.5,6.4l0.1,0.1l0,0
			c1.1,0.4,5.2-0.2,5.2,1.1c-0.2,1.5-1.5,1.2-3,1.4c-3-0.3-8,3-9.7-0.5c2.2-1.4,6.6-2.3,5.9-6l-0.3-0.2c-1.8-0.2-4.2,0.9-5.2,2.3
			C481.1,108.9,480.3,106.4,481.6,104.8z M483.3,87.1c2.8-1.3,9.7-1.9,12.3,0.4c0.1,1.4-3,1.1-4.3,0.9c-4.5,6.8,2,1.4,2.5,5.6
			c-0.3,4-4.9,2.9,1.5,3.6c3.3,2.4-14.6,5.2-11.4,1.1c2.1-0.4,6.5-2.2,7.5-4.4c-1.2-1-3.4,0-3.9,1.6c-0.3,1.1-1.4,1.4-2.2,0.9
			c-0.3-0.3-0.3-1.3-0.6-1.6c-0.6,0-1.3,0.6-2,0.6c-0.6,0-1.8-1.2-1.1-1.8c3.8-1.6,4.8-0.2,6.2-5.2l-0.1-0.2
			c-1.3-0.3-3.1,1.3-4.2-0.2C482.8,87.6,482.5,87.6,483.3,87.1z"/>
	</defs>
	<clipPath id="SVGID_002">
		<use xlink:href="#SVGID_1_"  style="overflow:visible;"/>
	</clipPath>
	<g style="clip-path:url(#SVGID_002);">
		<path class="line st2 an1" d="
		M-61.7,165.5c171.2,27.5,528.4,52.9,685.6,33.9"/>
	
		<path class="line st2 an2" d="
		M36.4,290.7c225.6,40.5,585.9,44.4,806.8,8.2"/>
	
		<path class="line st3 an3" d="
		M36.4,9.2c101.3,16,205.2,20.9,342.9,28.2"/>
	
		<path class="line st3 an4" d="
		M82.2,69c106.7,6.9,249.6,17.8,407.7,30.2"/>
	
		<path class="line st3 an5" d="
		M19,397.1c111.7,24.8,301.3,36.9,397.9,29.6"/>
	</g>
</g>
</svg>
