<?xml version="1.0" encoding="utf-8"?>
<!-- Generator: Adobe Illustrator 26.5.0, SVG Export Plug-In . SVG Version: 6.00 Build 0)  -->
<svg version="1.1" id="圖層_1" xmlns="http://www.w3.org/2000/svg" xmlns:xlink="http://www.w3.org/1999/xlink" x="0px" y="0px"
	 viewBox="0 0 1920 1080" style="enable-background:new 0 0 1920 1080;" xml:space="preserve">
<style type="text/css">
	.st0{fill:#5C3719;}
	.st1{fill:#E26F11;}
	.st2{fill:#933723;}
	.st3{fill:#BA7A1F;}
	.st4{fill:#221714;}
</style>
<path class="st0" d="M443.1,736.9c3.2,9.9,3.2,16.5-0.1,18.4c-7.2,4.1-13.9-2-18-9.5c-4.1-6.4-6.7-16.2-8.6-27.7h-0.4
	c-0.9,20.4-2.9,29.6-8.6,33.5c-3.5,2.7-8.2,4-14.5,4c0-4.1-0.3-7.8-2-9.9c-1.8-2-5-3.5-9.2-4.4v-2.1c3.8,0.3,10.1,0.6,12.4,0.6
	c1.9,0,2.8-0.2,3.8-1.1c1.9-1.7,2.9-8.8,3.8-22.7h-40.4v2.4c0,1.5-6.4,5.2-12.9,5.2h-2.3v-74.6l16,6.9h4.1c0.4-3.5,0.9-7.9,1-11.6
	h-25.6l-1.2-4.3H390l7.9-10.4c0,0,8.9,7,14.8,12.2l0.1-12.8h-74.6v33.4c0,28.7-1.5,68.8-29.6,95.1l-1.8-1.1
	c13.8-28.4,14.5-63.4,14.5-94.1v-46l19.5,8.2H411l8.8-10.2l16.7,14.8c-1,1.1-3.1,2.3-6.4,2.9c-2.3,29.4-1.5,81.6,6.1,94.1
	c1.2,1.8,1.9,1.5,2.6-0.6c1.9-5.2,3.4-11.3,4.7-17.1l1.5,0.2L443.1,736.9z M343.4,722c5,14.2,2.5,24.5-2.8,28.8
	c-3.5,2.9-10.2,2.1-12.3-2.9c-1.6-4.6,1-8.7,5-11c4-2.4,8.3-9,7.8-14.9H343.4z M354.1,723.5c21.7,15.1,5.6,32.5-2.2,21.2
	c1.8-7,1.5-15.2,0.3-20.7L354.1,723.5z M361.1,660.4v9.8h27.7v-9.8H361.1z M388.8,674.6h-27.7v9.9h27.7V674.6z M361.1,698.2h33.7
	l6.7-8.7c-2.5,1.4-6.9,2.9-10,2.9h-2.8v-3.7h-27.7V698.2z M415.1,710.4c-0.3-2.7-0.6-5.6-0.9-8.5c-0.6,0.5-1.5,0.6-2.5,0.6h-50.6
	v9.1h39.1l7.5-7.5L415.1,710.4z M366.8,720.3c25.8,8.5,13.3,28.4,4,19.1c0.3-6.2-2.3-13.7-5.6-18.1L366.8,720.3z M384.6,644.4
	c-2.8,3.8-6.3,8.2-9.5,11.6h12.4l6.9-7.3l14.3,11c-0.7,0.9-2.3,2.1-4.7,2.6v25.5c0,0.3-0.6,0.9-1.6,1.4c1.3,1.1,7.2,5.6,11.6,9.6
	c-1.3-17.4-1.6-37.2-1.5-56.4c-0.4,1.4-2,2.1-4,2.1H384.6z M381.3,718.3c25.3,2.6,16.1,22.1,6.4,14.9c-0.6-4.9-4.2-10.7-7.8-13.9
	L381.3,718.3z M592.7,652.2c-0.3,2.1-1.5,3.7-5.4,4.3V752c0,1.7-7.9,5.6-14.9,5.6h-3.2V743h-81.7l-5.7,8.2l-18.9-9.8
	c1.3-1.7,3.5-3.7,5.6-5v-86.6l23.6,2.4c-0.4,2.3-1.8,3.7-5.4,4.3v82h31.8V617.3l23.7,2.4c-0.3,2.1-1.5,3.7-5.4,4.3v114.6h32.5v-88.7
	L592.7,652.2z M731.9,707.2c0,0,11,9.1,17.6,15.6c-0.4,1.7-2,2.4-4.1,2.4H614.5l-1.3-4.4H638v-76.7l18.6,7.3h14.2
	c0.1-4.1,0.4-8.8,0.7-14.2h-52.1l-1.3-4.3h53.6c0.3-6.6,0.4-13.4,0.6-19.2l23,2.3c-0.3,2.4-2.2,4.1-5.3,4.6c-0.4,3.7-1,7.9-1.8,12.3
	h27.4l9.8-12.7c0,0,11,8.5,17.6,14.5c-0.3,1.7-1.9,2.4-4.1,2.4h-51.2l-2,14.2h18.1l7.8-10.1l18.4,13.1c-1,1.5-2.8,2.4-6.6,3.2v61.4
	L731.9,707.2z M613.3,756.1c16.4-7.3,34.5-20.4,42.9-30.2l19.8,13.3c-1.3,1.7-4.2,2.3-8.8,1.2c-12.4,7.3-33.2,14.3-53.3,17.5
	L613.3,756.1z M655.3,655.7v13.3h50.1v-13.3H655.3z M705.4,673.4h-50.1V686h50.1V673.4z M655.3,690.3v12.7h50.1v-12.7H655.3z
	 M655.3,720.8h50.1v-13.4h-50.1V720.8z M693.1,729.5c77.9,4,49.5,36.7,34.8,23.9c-6-6.9-17.6-15.7-35.3-22L693.1,729.5z
	 M894.7,734.8c5.3,2,6.9,4,6.9,7c0,8.1-7.6,10.7-39.7,10.7h-20.2c-17.4,0-23.4-3-23.4-17.1v-56.6l-12.6,5.8l-2.9-3.4l15.5-7v-12.2
	c-0.7,0.6-1.8,0.9-2.9,0.9h-18.6v47.3c6.4-1.8,13.2-3.7,19.9-5.6l0.4,1.7c-8.5,6.7-21.5,16.5-41,28.5c-0.6,2-2,3.7-3.8,4.3
	l-9.7-20.4c3.8-0.8,10.1-2.3,17.7-4.1V663h-16l-1.2-4.4h17.1v-40.7l21.8,2c-0.3,2.1-1.3,3.8-5.4,4.4v34.3h3.2l7-12.2
	c0,0,6.9,7.5,11.3,13.1v-23.2l21.2,2.4c-0.1,1.8-1.6,3.5-5.1,4V667l12.4-5.6v-47l21.2,2.1c-0.3,2.1-1.5,3.7-5.4,4.3v33.4l14.8-6.9
	l7.5-7.9l14.1,15.2c-1.2,1.4-2.6,1.8-5.9,2.1c-3.7,17.4-10.8,42.7-19.8,59.3l-1.8-1.1c2.8-18.9,5-44.8,5.4-62.5l-14.3,6.4v60.8
	c0,1.7-6.9,4.9-12.9,4.9h-2.9V666l-12.4,5.8v59.3c0,4.4,1.9,5.8,9.2,5.8h19.6c7.6,0,13.6-0.2,16.5-0.5c2.3-0.2,3.8-0.8,5.1-2.3
	c1.9-2.9,4.4-10.5,7.6-21h1.6L894.7,734.8z M1033.9,731.6c0,0,11.7,9.3,19,15.9c-0.4,1.7-2,2.4-4.2,2.4H918.9l-1.3-4.4H975v-57.3
	h-44.8l-1-4.3H975v-50.3h-50.1l-1.3-4.3h93.5l10.4-13.7c0,0,11.9,9.3,18.7,15.6c-0.4,1.7-1.9,2.4-4.1,2.4h-48.3v50.3h19.2l10.1-13.1
	c0,0,11.3,8.8,18,15.1c-0.4,1.5-1.9,2.3-4.1,2.3h-43.2v57.3h29.4L1033.9,731.6z M428.2,823.8c10,5.8,5.8,13.2,2.2,9.8
	c-0.1-2.4-1-5.5-2.2-7.8v30c0,0.6-2.1,1.9-3.9,1.9h-1v-24.5c-1.8,4-4.1,7.6-6.9,10.8l-0.8-0.7c3.7-6.6,5.7-15.3,6.9-23.8h-5.8
	l-0.5-1.7h7.1v-14.3l7,0.8c-0.2,0.9-0.6,1.4-2.1,1.6v11.9h0.5l2.6-3.8c0,0,3,2.7,4.8,4.5c-0.2,0.6-0.7,0.9-1.5,0.9h-6.3V823.8z
	 M464.4,849.7c0,0,3.7,2.7,5.9,4.6c-0.1,0.6-0.7,0.9-1.5,0.9h-37.1l-0.5-1.7h30L464.4,849.7z M434.5,809.9l-0.5-1.7h26.4l3-3.9
	c0,0,3.4,2.7,5.5,4.6c-0.2,0.6-0.7,0.9-1.6,0.9h-18.7c-0.9,2.3-2,5.2-3,7.5h3.8l2.7-2.8l4.9,4.3c-0.4,0.4-1.1,0.8-2.4,1
	c-0.3,19.8-1,27.4-3.5,30.1c-1.6,1.7-3.7,2.4-6.2,2.4c0-1.5-0.1-2.8-0.8-3.4c-0.6-0.7-2.2-1.3-3.9-1.6v-0.9c1.7,0.1,4.4,0.3,5.4,0.3
	c0.9,0,1.3-0.2,1.8-0.6c1.6-1.6,2.2-9.7,2.5-27h-4.6l-2.2,2.3l-5.1-3.7c0.6-0.5,1.6-0.9,2.6-1.2c0.9-2.1,1.9-4.7,2.6-6.6H434.5z
	 M442.2,842.7v-2.3h-3.5v3c0,0.5-1.6,1.3-3.2,1.3h-0.6v-22.2l4,1.9h2.8l1.9-2l4.2,3.2c-0.2,0.3-1,0.7-1.8,0.9v15
	c-0.1,0.4-2,1.3-3.3,1.3H442.2z M442.2,838.6V826h-3.5v12.6H442.2z M469.5,821.8c-0.3,0.5-0.9,0.7-2.1,0.8
	c-0.5,3.7-1.3,7.5-2.7,11.2c6.7,8.3,3.7,14.9-0.2,11.6c-0.3-2.1-1-4.4-2-6.7c-1.9,3.4-4.4,6.5-7.9,9.1l-0.6-0.8
	c3.1-3.5,5.2-7.8,6.5-12.5c-1.6-2.9-3.4-5.7-5.2-8l0.8-0.4c2.1,1.4,4,2.8,5.4,4.2c0.5-2.8,0.9-5.6,1.2-8.3H456l-0.9-1.7h7l2.6-2.7
	L469.5,821.8z M495.9,830l5.7,4.4c-0.3,0.5-1.2,0.9-2.4,1.2v18.9c-0.1,0.5-2.7,1.7-4.5,1.7h-0.8v-4.5h-10.1v3.8
	c0,0.5-2.3,1.7-4.5,1.7h-0.8v-26.5l5.6,2.3h9.2L495.9,830z M493.8,849.9v-15.3h-10.1v15.3H493.8z M493.1,827.4
	c0,0.5-2.4,1.7-4.8,1.7h-0.8v-24.1l5.9,2.4h17.7l2.8-3l5.8,4.4c-0.3,0.5-1.2,1-2.4,1.2v17c-0.1,0.4-2.7,1.6-4.6,1.6h-0.9v-4.5h-18.5
	V827.4z M493.1,809.1v13.4h18.5v-13.4H493.1z M529,834.3c-0.3,0.5-1.2,0.9-2.4,1.2V855c-0.1,0.4-2.8,1.5-4.6,1.5h-0.9v-4.9h-10.6v4
	c0,0.5-2.2,1.7-4.5,1.7h-0.8v-26.6l5.6,2.3h9.7l2.7-2.9L529,834.3z M521.1,849.9v-15.3h-10.6v15.3H521.1z M537.2,814.2l3.5-4.3
	c2-2.5,4.9-3.9,8.8-3.9c6.5,0,10.6,4.6,10.6,10.1c0,2.2-0.8,4.2-2.1,5.8c-1.2,1.2-3.6,3.3-5.6,4.6c6.6,1.4,11.2,6,11.2,11.8
	c0,12.3-14.3,18.4-19.4,18.4c-3.2,0-5.9-1.6-6.8-2.4c-0.9-1-1.4-1.7-1.4-2.5c0-1.2,0.8-2.1,1.6-2.7c0.5-0.4,1-0.4,1.5,0
	c1.9,2,5.1,4.3,9.1,4.3c5,0,9.3-3.3,9.3-12.1c0-8.3-5.7-11.1-10.1-11.1c-1.6,0-3.4,0.4-4.3,0.7l-0.3-1.2c7.9-2.7,11.5-5.5,11.5-11.5
	c0-5.4-3.4-8.1-7.5-8.1c-4.2,0-6.4,2.1-8.9,5L537.2,814.2z M585.7,835.1H572l0.2-2.9H586L585.7,835.1z M617.9,841.4v6.6
	c0,5.1,0.5,5.9,6.1,6.6v1h-17.5v-1c5-1,5.6-1.5,5.6-6.7v-6.6h-19v-1.8c7.3-10.8,15.4-22.9,22.8-33.8h2v32.6h6.9v3H617.9z M612,814.4
	c-4.6,7-10.6,16.1-15.8,24.1H612L612,814.4z M642.1,824.8c0,10.3-0.8,23.7-11.6,32.5l-0.8-0.5c6.3-9.4,7-21.1,7-32v-17.3l5.1,2
	c11.2-1.3,24.8-3.7,32.1-5.9l5.4,5.5c-0.6,0.5-1.9,0.5-3.5-0.2c-8.8,1-22.1,1.8-33.7,1.7v4h30.1l2.6-2.8l5.8,4.2
	c-0.3,0.5-1.2,0.9-2.3,1.2v8.2c-0.1,0.4-2.8,1.5-4.6,1.5h-0.9v-2.3h-30.6V824.8z M676.9,828.9c0,0,3.4,2.6,5.6,4.6
	c-0.2,0.6-0.8,0.9-1.6,0.9h-21.9c-0.2,2-0.5,3.8-0.9,5.8h12.6l2.9-2.7l5.3,4.4c-0.3,0.5-1.1,0.8-2.3,0.9c-0.6,6.8-2,11.3-4.4,12.8
	c-1.6,1-3.8,1.6-6.5,1.6c0-1.5-0.2-2.9-1-3.7c-0.9-0.8-3-1.5-5.3-1.9v-0.8c2.3,0.2,6.2,0.5,7.4,0.5c1,0,1.5-0.1,2-0.4
	c1-0.8,1.9-4.2,2.4-9h-13.5c-1.9,6-6.6,11.5-18.1,15.6l-0.6-0.9c12.4-6.7,13.7-14.5,13.9-22.2h-9.2l-0.5-1.7h18.7
	c-0.5-0.1-1-0.2-1.5-0.6c-0.5-2.1-2.2-4.6-3.5-6.1l0.5-0.3c9.9,0.6,8.8,6.6,5.5,7h11L676.9,828.9z M642.1,816.4v6.6h30.6v-6.6H642.1
	z M706.6,852.6v-37.1h2v37.1H706.6z M776.4,848.5c0,0,4,3,6.5,5.2c-0.2,0.6-0.7,0.9-1.6,0.9h-49.8l-0.5-1.6h8.3v-28.7l7.7,0.7
	c-0.2,0.7-0.6,1.3-2.1,1.5v26.5h9.9v-40.2H734l-0.4-1.6h37.3l3.5-4.4c0,0,4,3,6.4,5.1c-0.2,0.6-0.7,0.9-1.5,0.9h-18.8v17.9h8.3
	l3.5-4.3c0,0,3.8,3,6.2,5.1c-0.2,0.6-0.8,0.9-1.6,0.9h-16.4v20.8h12.4L776.4,848.5z M801.3,821.8c-0.2,0.5-0.7,0.9-1.7,1.1v33
	c-0.1,0.4-2.2,1.6-4.2,1.6h-0.9v-30.2c-2.1,2.7-4.3,5.2-6.7,7.2l-0.7-0.5c4.6-6.8,9.3-17.6,11.7-28.3l7.6,2.3
	c-0.2,0.7-0.9,1.2-2.2,1.1c-1.5,4.2-3.4,8.1-5.5,11.7L801.3,821.8z M834.2,829.9c0,0,3.6,2.8,5.8,4.8c-0.2,0.6-0.7,0.9-1.6,0.9
	h-15.1v20c0,0.4-1.7,1.7-4.3,1.7H818v-16.2c-0.4,0.4-1.1,0.6-1.9,0.4c-4.1,5.6-9.3,10.2-14.3,13.1l-0.7-0.6
	c3.5-3.8,7.7-10.2,10.4-16.5l6.5,3.1v-4.9h-15.6l-0.4-1.6h16v-8.5h-5.6v2.2c0,0.3-1.6,1.3-4.2,1.3h-0.9v-21.7l5.7,2.3h15.8l2.5-2.9
	l5,3.9c-0.3,0.4-0.9,0.8-2.1,0.9V827c0,0.3-1.8,1.2-4.4,1.2h-0.9v-2.7h-5.7v8.5h7.7L834.2,829.9z M812.5,824h16.6v-12.6h-16.6V824z
	 M825.3,838.8c18.4,7.2,15,18.3,9.4,14.7c-1.7-4.5-6.5-10.4-10-14.3L825.3,838.8z M880.7,829.3c3.6,4.2,10.5,6.8,16.1,7.7l-0.1,0.7
	c-2.3,1.1-3.8,2.5-4.1,4.6c-5.7-2.5-10.6-7.2-13.5-13h-15.9c-1.9,2.3-4.1,4.6-6.6,6.6c12.5,1.9,8.1,10.5,3.6,7.2
	c-0.4-2.3-2.4-5.1-4.2-6.7c-3.1,2.4-6.8,4.6-11.2,6.3l-0.5-0.6c5.8-3.5,10.2-7.8,13.5-12.7h-12.5l-0.4-1.6h14c1.3-2,2.3-4,3.3-6.1
	h-11.8L850,820h13c0.7-1.9,1.4-3.9,1.9-5.9h-16.8l-0.4-1.6h17.7c0.7-2.4,1.1-4.8,1.5-7.2l7.9,1.7c-0.2,0.8-0.9,1.3-2.2,1.3
	c-0.3,1.3-0.7,2.8-1.1,4.2h14l3.2-3.8c0,0,3.5,2.6,5.6,4.5c-0.1,0.6-0.7,0.9-1.5,0.9H871c-0.6,2-1.3,4-2.2,5.9H882l2.9-3.6
	c0,0,3.3,2.4,5.4,4.3c-0.1,0.6-0.7,0.9-1.5,0.9h-20.8c-1.1,2.1-2.3,4.1-3.7,6.1h22.7l3.2-4c0,0,3.6,2.7,5.9,4.7
	c-0.1,0.6-0.7,0.9-1.6,0.9H880.7z M885.1,838.6c-0.3,0.6-1.1,0.9-2.3,0.6c-1.9,1.4-4.2,2.9-6.3,4c17.3,5.3,13.2,13.9,8.4,11.2
	c-1.8-2.6-6.6-7-12.4-10.8v7.8c0,3.6-0.8,5.5-6.8,6c-0.1-1.4-0.4-2.5-1.1-3.1c-0.8-0.7-1.8-1.2-4.3-1.6v-0.8c0,0,5.1,0.4,6.2,0.4
	c0.8,0,1.1-0.2,1.1-0.9v-7c-3.1,2.3-7.2,5.3-12.6,8.9c-0.1,0.7-0.4,1.3-0.9,1.6l-4.6-4.8c3.3-1.1,10.5-4,18.1-7.2v-11.9l7,0.7
	c-0.1,0.8-0.7,1.3-1.9,1.4v9.2c0.7,0.2,1.4,0.3,2.1,0.5c1.4-2,3.1-5,4.6-7.7L885.1,838.6z M915.6,847.4c2.8-0.6,5.7-1.3,8.7-2.1
	l0.2,0.8c-4.6,2.2-11.1,5.3-20.1,9.1c-0.2,0.7-0.7,1.2-1.3,1.3l-2.4-5.9c0.8-0.2,1.9-0.3,3.3-0.6v-19.8l5.7,0.6
	c-0.1,0.6-0.5,1.1-1.5,1.2v17.2l2.9-0.7v-23.8h-2.3v1.1c0,0.3-1.5,1.4-4,1.4h-0.8v-19.7l5.5,2.1h6.9l2.3-2.5l5.1,3.8
	c-0.3,0.4-1.1,0.8-2.2,1.1v13.2c-0.1,0.3-2.4,1.2-3.9,1.2h-0.8v-1.7h-1.2v8.9h1.4l2.6-3.8c0,0,3,2.7,4.7,4.5
	c-0.2,0.6-0.7,0.9-1.4,0.9h-7.2V847.4z M908.5,823.1h8.2v-11.9h-8.2V823.1z M949.4,814.2c-0.4,0.6-1,0.7-2.3,0.8
	c-1.8,4.1-4.3,7.9-7.4,11.3c3.8,2.7,8.5,4.7,14.2,6l-0.1,0.6c-2.1,0.7-3.3,2.1-3.7,4.7c-1.7-0.7-3.3-1.3-4.7-2.1l4,3
	c-0.4,0.4-0.9,0.8-2.1,0.9V856c0,0.3-1.7,1.2-4.3,1.2h-0.9v-3.8h-11.5v2.7c0,0.4-1.6,1.3-4.1,1.3h-0.8v-20.9
	c-1.9,0.9-3.9,1.7-6.1,2.3l-0.4-0.8c6.3-3,11.6-7.1,15.6-11.9c-1.6-2.2-2.9-4.7-4.1-7.3c-2.4,3.1-5.2,5.6-8.3,7.5l-0.7-0.6
	c4.1-4.6,7.9-12.1,9.9-20.1l7,2.3c-0.3,0.7-0.9,1.2-2.2,1.1c-0.5,1.3-1.1,2.4-1.7,3.6h7l3-2.9L949.4,814.2z M944.1,834.8
	c-2.8-1.7-5.1-3.6-7.1-5.7c-2.9,2.6-6.2,4.9-10.1,6.8l4.2,1.7h10.7L944.1,834.8z M941.9,851.8v-12.6h-11.5v12.6H941.9z M933.6,814.3
	c-0.7,1.2-1.4,2.3-2.2,3.3c1.3,2.3,3,4.3,5,6.2c2.2-3,3.9-6.2,5.1-9.5H933.6z"/>
<path class="st1" d="M100.1,66.2c0.4,4.4,0.7,7.8,8,8.7l-0.3,0.6c-4.9,2.8-8.3,2.6-10.7,0.4c-1.9-1.7-3.4-4.2-3.6-6.6
	c-0.3-2.4-1.2-3.9-2.5-5.6c-3.1-4-6.5-4.7-6.7-4.7l0,0l-0.3-0.6c0.3-0.1,9.3-5.6,13.7,0.1C99.6,60.8,99.9,63.7,100.1,66.2z
	 M93.5,78.2c1.6-6.9-8.3-10.4-8.6-10.6l-0.3,0.6l0,0c0.1,0.2,1.7,3.1,0.6,8.1c-0.4,2.1-1.1,3.8-2.8,5.4c-1.7,1.7-2.7,4.4-2.9,7
	c-0.1,3.2,1.8,6.1,7.1,8.1l0.6-0.2c-3.8-6.3-1.4-8.7,1.7-11.7C90.7,83.1,92.8,81,93.5,78.2z M75.5,87.2c6.4-3.1,2.8-13,2.9-13.3
	L77.6,74l0,0c0,0.2-1.3,3.3-6,5.6c-1.9,0.9-3.7,1.5-6,1.3c-2.4-0.3-5.2,0.6-7.2,2.2c-2.6,1.9-3.6,5.3-1.9,10.6l0.6,0.3
	c2.4-6.9,5.8-6.5,10.1-6C69.9,88.1,72.8,88.5,75.5,87.2z M57.1,78.9c6.5,3,11.9-6,12.2-6.2l-0.5-0.4l0,0c-0.2,0.1-3.5,1-8.1-1.1
	c-1.9-0.9-3.5-1.9-4.7-3.8c-1.3-2.1-3.8-3.6-6.2-4.2c-3.1-0.8-6.3,0.5-9.4,5.3l0.1,0.6c6.9-2.5,8.8,0.4,11.1,4.1
	C52.9,75.3,54.4,77.7,57.1,78.9z M52,59.5c1.7,6.9,12.2,5.5,12.5,5.6l0.1-0.7h0.1c-0.2-0.1-3-2-4.2-6.9c-0.5-2.1-0.8-3.9-0.1-6.1
	c0.8-2.3,0.4-5.2-0.6-7.5c-1.3-3-4.4-4.6-10-4l-0.4,0.4c6.3,3.8,5.2,7.1,3.8,11.2C52.2,53.9,51.2,56.6,52,59.5z M63.9,43.2
	c-4.3,5.7,3.4,12.9,3.5,13.1l0.6-0.4l0,0c-0.1-0.2-0.3-3.6,2.8-7.7c1.3-1.7,2.6-3.1,4.7-3.8c2.2-0.8,4.3-3,5.5-5.3
	c1.5-2.9,0.8-6.3-3.2-10.3L77,28.9c1,7.3-2.2,8.5-6.3,10C68.3,39.8,65.6,40.8,63.9,43.2z M84,42.2c-7.1,0.3-7.8,10.8-8,11.1l0.6,0.2
	l0,0c0.1-0.2,2.6-2.5,7.7-2.7c2.1-0.1,4,0.1,6,1.2c2.1,1.2,5,1.5,7.5,0.9c3.1-0.6,5.4-3.3,6-8.9l-0.4-0.6c-5,5.4-8,3.7-11.7,1.4
	C89.4,43.6,86.9,42,84,42.2z M75,58.1c-3.1,0-5.6,2.5-5.6,5.6c0,3.1,2.6,5.6,5.6,5.6c3.1,0,5.6-2.5,5.6-5.6
	C80.7,60.7,78.1,58.1,75,58.1z"/>
<path class="st2" d="M1756.5,1054.1L1756.5,1054.1c-0.1,0.1-0.3,0.1-0.4,0.1c-0.2,0-0.4-0.1-0.5-0.2l0,0l-10.6-6.9v-8.6l17.8,11.5
	L1756.5,1054.1z M1772.8,1038.5l-13.4-8.6l0,0c-0.1-0.1-0.3-0.1-0.4-0.1c-0.2,0-0.3,0.1-0.5,0.2l-13.6,8.7l6.7,4.3l9-5.8
	c0.1-0.1,0.5-0.2,0.9,0c0,0,0,0,0.1,0l11.3,7.3V1038.5z"/>
<path class="st3" d="M1761.6,1041c0.2,0,0.4,0.1,0.5,0.2l0,0l10.6,6.9v8.6l-17.8-11.5l6.2-4l0,0
	C1761.3,1041,1761.4,1041,1761.6,1041 M1744.8,1056.7l13.4,8.6l0,0c0.1,0.1,0.3,0.1,0.4,0.1c0.2,0,0.3-0.1,0.5-0.2l13.6-8.7
	l-6.7-4.3l-9,5.8c-0.1,0.1-0.5,0.2-0.9,0c0,0,0,0-0.1,0l-11.3-7.3V1056.7z"/>
<path class="st4" d="M519.1,516.1c1.4,0.2,2.7,0.5,3.8,1c1.2,0.5,2.2,1,3.1,1.7c0.9,0.7,1.5,1.5,2,2.3c0.5,0.9,0.7,1.8,0.7,2.8
	c0,1.2-0.3,2.2-1,3.3c-0.6,1-1.5,1.9-2.6,2.6c-1.1,0.7-2.4,1.3-3.9,1.8c-1.5,0.4-3.1,0.7-4.8,0.7c-0.6,0-1.2,0-1.8,0
	c-0.6,0-1.2,0-1.8-0.1v-1.7c1.1,0.5,2.3,0.8,3.6,0.8c1.1,0,2.1-0.2,3-0.6c1-0.4,1.8-0.9,2.5-1.6c0.7-0.7,1.3-1.4,1.7-2.3
	c0.4-0.9,0.6-1.8,0.6-2.8s-0.2-1.9-0.6-2.8c-0.4-0.8-1-1.6-1.6-2.2c-0.7-0.6-1.5-1.1-2.5-1.5c-0.9-0.4-2-0.5-3-0.5
	c-1.1,0-2.1,0-3.2,0.1c-1.1,0.1-1.9,0.4-2.5,1v13.8h-4.9l-1-1h1c0.3,0,0.5,0,0.6-0.1c0.1-0.1,0.2-0.2,0.3-0.4
	c0.1-0.1,0.1-0.3,0.1-0.5V506c0-0.3-0.1-0.7-0.3-1c-0.1-0.3-0.3-0.5-0.6-0.7c-0.3-0.2-0.6-0.3-1.1-0.3l1-1h5h4.6
	c1.4,0,2.7,0.2,3.9,0.5c1.2,0.4,2.3,0.8,3.2,1.5c0.9,0.6,1.6,1.3,2.1,2.2c0.5,0.8,0.8,1.7,0.8,2.6c0,0.7-0.2,1.4-0.5,2.1
	c-0.3,0.6-0.7,1.2-1.3,1.8c-0.6,0.5-1.2,1-2,1.4C520.9,515.5,520.1,515.8,519.1,516.1z M515.4,515.9c0.9,0,1.7-0.2,2.5-0.5
	c0.8-0.3,1.5-0.8,2-1.4c0.6-0.6,1-1.2,1.4-1.9c0.3-0.7,0.5-1.5,0.5-2.3c0-0.8-0.2-1.6-0.6-2.3c-0.4-0.7-0.9-1.3-1.6-1.8
	c-0.7-0.5-1.4-0.9-2.3-1.2c-0.9-0.3-1.8-0.4-2.8-0.4c-1,0-1.8,0.1-2.4,0.2c-0.6,0.1-1,0.3-1.2,0.5v10.4c0.6,0.4,1.3,0.6,2.1,0.7
	C513.8,515.9,514.6,515.9,515.4,515.9z M570.8,531.8h-6.3l-9.9-24l-4.7,12.1h7.5l0.6,1.6h-8.7l-4.1,10.4h-2l-1-1
	c0.3,0,0.6-0.1,0.9-0.3c0.2-0.2,0.4-0.4,0.6-0.7c0.2-0.3,0.4-0.6,0.5-1l10.3-25.9h1.8l11.5,27c0.1,0.3,0.4,0.5,0.8,0.7
	c0.4,0.1,0.8,0.2,1.2,0.2L570.8,531.8z M600.2,502.8c2.5,0,4.8,0.4,7,1.1c2.2,0.8,4.1,1.8,5.8,3.2c1.6,1.3,2.9,2.9,3.9,4.7
	c0.9,1.8,1.4,3.7,1.4,5.7c0,2-0.5,3.9-1.4,5.7c-0.9,1.8-2.2,3.3-3.9,4.7c-1.6,1.3-3.6,2.4-5.8,3.2c-2.2,0.8-4.5,1.1-7,1.1
	c-2.5,0-4.9-0.4-7.1-1.1c-2.2-0.8-4.1-1.8-5.8-3.2c-1.6-1.3-2.9-2.9-3.9-4.7c-0.9-1.8-1.4-3.7-1.4-5.7c0-2,0.5-3.9,1.4-5.7
	c0.9-1.8,2.2-3.3,3.9-4.7c1.6-1.3,3.6-2.4,5.8-3.2C595.3,503.2,597.6,502.8,600.2,502.8z M600.1,530.8c1.8,0,3.6-0.3,5.2-1
	c1.6-0.7,3-1.6,4.2-2.8c1.2-1.2,2.1-2.6,2.8-4.2c0.7-1.6,1-3.3,1-5.2c0-1.8-0.3-3.6-1-5.2c-0.7-1.6-1.6-3-2.8-4.2
	c-1.2-1.2-2.6-2.1-4.2-2.8c-1.6-0.7-3.3-1-5.2-1c-1.8,0-3.6,0.3-5.2,1c-1.6,0.7-3,1.6-4.2,2.8c-1.2,1.2-2.1,2.6-2.8,4.2
	c-0.7,1.6-1,3.3-1,5.2c0,1.8,0.3,3.6,1,5.2c0.7,1.6,1.6,3,2.8,4.2c1.2,1.2,2.6,2.1,4.2,2.8C596.5,530.4,598.2,530.8,600.1,530.8z
	 M646.8,529.9c0,0.2,0,0.4,0.1,0.5c0.1,0.1,0.1,0.3,0.3,0.3c0.1,0.1,0.3,0.1,0.6,0.1l1,1h-2h-4h-1l-1-1h1c0.3,0,0.5,0,0.6-0.1
	c0.1-0.1,0.2-0.2,0.3-0.3c0.1-0.1,0.1-0.3,0.1-0.5v-23.1c0-0.3-0.1-0.6-0.3-0.9c-0.1-0.2-0.4-0.4-0.7-0.6c-0.3-0.2-0.7-0.3-1.3-0.3
	H637c-0.6,0-1.1,0.1-1.5,0.3c-0.4,0.2-0.7,0.4-1,0.8c-0.3,0.4-0.4,0.9-0.4,1.6l-1-1c0-1.2,0.3-2.1,0.8-2.8c0.5-0.6,1.6-1,3.1-1h3
	h16.8l-2.4,2h-7.4V529.9z M696.8,531.8h-6.3l-9.9-24l-4.7,12.1h7.5l0.6,1.6h-8.7l-4.1,10.4h-2l-1-1c0.3,0,0.6-0.1,0.9-0.3
	c0.2-0.2,0.4-0.4,0.6-0.7c0.2-0.3,0.4-0.6,0.5-1l10.3-25.9h1.8l11.5,27c0.1,0.3,0.4,0.5,0.8,0.7c0.4,0.1,0.8,0.2,1.2,0.2
	L696.8,531.8z M721.1,531.8h-7l-1-0.9h1c0.5,0,0.7-0.1,0.8-0.4c0.1-0.3,0.2-0.5,0.2-0.5V506c0-0.3-0.1-0.7-0.3-1
	c-0.1-0.3-0.3-0.5-0.6-0.7c-0.3-0.2-0.6-0.3-1.1-0.3l1-1c1.5,0,2.7,0.5,3.6,1.4c0.9,0.9,1.4,2.1,1.4,3.6v22c0,0.1,0,0.2,0.1,0.5
	c0.1,0.3,0.4,0.4,0.8,0.4L721.1,531.8z M796,531.8h-5.9v-24.7l-11.9,25.1h-1.9l0.5-1l-11.5-22.4l0,23.1h-3l-1-1h1
	c0.2,0,0.4,0,0.5-0.1c0.1-0.1,0.2-0.2,0.3-0.3c0.1-0.1,0.1-0.2,0.1-0.3c0-0.1,0-0.2,0-0.2v-23.9c0-0.3-0.1-0.7-0.3-1
	c-0.1-0.3-0.3-0.5-0.6-0.7c-0.3-0.2-0.6-0.3-1.1-0.3l1-1c0.6-0.1,1.3-0.1,1.9-0.1c0.5,0.1,1.1,0.2,1.6,0.4c0.5,0.2,1,0.7,1.3,1.2
	l11.6,22.6l11.3-24.2v0h5.9l-1,1c-0.3,0-0.4,0.1-0.6,0.3c-0.1,0.2-0.2,0.4-0.3,0.7c-0.1,0.3-0.1,0.6-0.1,1v23.9c0,0.2,0,0.4,0.1,0.5
	c0.1,0.1,0.1,0.3,0.3,0.3c0.1,0.1,0.3,0.1,0.6,0.1L796,531.8z M840.9,531.8h-6.3l-9.9-24l-4.7,12.1h7.5l0.6,1.6h-8.7l-4.1,10.4h-2
	l-1-1c0.3,0,0.6-0.1,0.9-0.3c0.2-0.2,0.4-0.4,0.6-0.7c0.2-0.3,0.4-0.6,0.5-1l10.3-25.9h1.8l11.5,27c0.1,0.3,0.4,0.5,0.8,0.7
	c0.4,0.1,0.8,0.2,1.2,0.2L840.9,531.8z M884.9,503l-1,1c-0.5,0-0.8,0.2-0.8,0.6c-0.1,0.4-0.1,0.9-0.1,1.4v25.8h-2v0l-21.9-25.3v25.4
	h-3l-1-1h1c0.3,0,0.5,0,0.6-0.1c0.1-0.1,0.2-0.2,0.3-0.3c0.1-0.1,0.1-0.3,0.1-0.5v-23.9c0-0.3-0.1-0.7-0.3-1
	c-0.1-0.3-0.3-0.5-0.6-0.7c-0.3-0.2-0.6-0.3-1.1-0.3l1-1c0.7-0.1,1.4-0.2,2.1-0.1c0.6,0.1,1.2,0.2,1.9,0.4c0.7,0.2,1.3,0.6,1.8,1.2
	l19.1,21.6V503H884.9z M914.7,517.3c1.4,0.7,2.6,1.6,3.4,2.5c0.8,1,1.3,2,1.6,3.1c0.2,1.1,0.2,2.2-0.1,3.2c-0.3,1.1-0.9,2-1.7,2.9
	c-0.8,0.9-1.9,1.6-3.2,2.1c-1.3,0.5-2.9,0.8-4.6,0.8c-1.7,0-3.1-0.2-4.3-0.6c-1.2-0.4-2.2-0.9-2.9-1.4c-0.9-0.6-1.7-1.2-2.2-1.9
	l-0.6-6.3c0.3,1.4,0.8,2.6,1.5,3.7c0.6,1.1,1.4,2.1,2.3,2.9c0.9,0.8,1.9,1.4,2.9,1.8c1.1,0.4,2.2,0.6,3.4,0.6c1.1,0,2.1-0.2,2.9-0.6
	c0.8-0.4,1.4-0.9,1.8-1.5c0.4-0.6,0.7-1.3,0.8-2c0.1-0.7,0.1-1.5,0-2.2c-0.2-0.7-0.5-1.4-0.9-2c-0.4-0.6-1-1.1-1.6-1.5l-7.4-4
	c-1.4-0.7-2.4-1.6-3.2-2.6c-0.8-1-1.3-2-1.5-3.1c-0.2-1.1-0.2-2.1,0.1-3.2c0.3-1,0.8-2,1.5-2.8c0.7-0.8,1.7-1.5,2.8-2
	c1.2-0.5,2.5-0.8,4.1-0.8c1.2,0,2.3,0.1,3.2,0.3c1,0.2,1.8,0.4,2.5,0.6c0.8,0.3,1.5,0.5,2.2,0.8l1.2,5.5c-1-1.9-2.2-3.4-3.7-4.5
	c-1.5-1.1-3.3-1.7-5.3-1.7c-1,0-1.8,0.2-2.5,0.5c-0.7,0.4-1.2,0.8-1.6,1.4c-0.4,0.6-0.7,1.2-0.8,1.9c-0.1,0.7-0.1,1.4,0,2.1
	c0.1,0.7,0.4,1.3,0.7,1.9c0.4,0.6,0.8,1.1,1.4,1.4L914.7,517.3z M944.7,531.8h-7l-1-0.9h1c0.5,0,0.7-0.1,0.8-0.4
	c0.1-0.3,0.2-0.5,0.2-0.5V506c0-0.3-0.1-0.7-0.3-1c-0.1-0.3-0.3-0.5-0.6-0.7c-0.3-0.2-0.6-0.3-1.1-0.3l1-1c1.5,0,2.7,0.5,3.6,1.4
	c0.9,0.9,1.4,2.1,1.4,3.6v22c0,0.1,0,0.2,0.1,0.5c0.1,0.3,0.4,0.4,0.8,0.4L944.7,531.8z M978.5,502.8c2.5,0,4.8,0.4,7,1.1
	c2.2,0.8,4.1,1.8,5.8,3.2c1.6,1.3,2.9,2.9,3.9,4.7c0.9,1.8,1.4,3.7,1.4,5.7c0,2-0.5,3.9-1.4,5.7c-0.9,1.8-2.2,3.3-3.9,4.7
	c-1.6,1.3-3.6,2.4-5.8,3.2c-2.2,0.8-4.5,1.1-7,1.1c-2.5,0-4.9-0.4-7.1-1.1c-2.2-0.8-4.1-1.8-5.8-3.2c-1.6-1.3-2.9-2.9-3.9-4.7
	c-0.9-1.8-1.4-3.7-1.4-5.7c0-2,0.5-3.9,1.4-5.7c0.9-1.8,2.2-3.3,3.9-4.7c1.6-1.3,3.6-2.4,5.8-3.2C973.6,503.2,976,502.8,978.5,502.8
	z M978.4,530.8c1.8,0,3.6-0.3,5.2-1c1.6-0.7,3-1.6,4.2-2.8c1.2-1.2,2.1-2.6,2.8-4.2c0.7-1.6,1-3.3,1-5.2c0-1.8-0.3-3.6-1-5.2
	c-0.7-1.6-1.6-3-2.8-4.2c-1.2-1.2-2.6-2.1-4.2-2.8c-1.6-0.7-3.3-1-5.2-1c-1.8,0-3.6,0.3-5.2,1c-1.6,0.7-3,1.6-4.2,2.8
	c-1.2,1.2-2.1,2.6-2.8,4.2c-0.7,1.6-1,3.3-1,5.2c0,1.8,0.3,3.6,1,5.2c0.7,1.6,1.6,3,2.8,4.2c1.2,1.2,2.6,2.1,4.2,2.8
	C974.8,530.4,976.6,530.8,978.4,530.8z M1042.3,503l-1,1c-0.5,0-0.8,0.2-0.8,0.6c-0.1,0.4-0.1,0.9-0.1,1.4v25.8h-2v0l-21.9-25.3
	v25.4h-3l-1-1h1c0.3,0,0.5,0,0.6-0.1c0.1-0.1,0.2-0.2,0.3-0.3c0.1-0.1,0.1-0.3,0.1-0.5v-23.9c0-0.3-0.1-0.7-0.3-1
	c-0.1-0.3-0.3-0.5-0.6-0.7c-0.3-0.2-0.6-0.3-1.1-0.3l1-1c0.7-0.1,1.4-0.2,2.1-0.1c0.6,0.1,1.2,0.2,1.9,0.4c0.7,0.2,1.3,0.6,1.8,1.2
	l19.1,21.6V503H1042.3z M721.5,364.1h32.7c0.5,0,0.7-0.5,0.4-0.9l-7.5-9.2c-0.2-0.3-0.6-0.3-0.8,0l-5.4,5.2
	c-0.1,0.1-0.2,0.2-0.4,0.2l-55.9-0.2c2-3.3,3.8-7.1,5.3-10.2h57.3c0.5,0,0.7-0.5,0.4-0.9l-7.5-9.2c-0.2-0.3-0.6-0.3-0.8,0l-5.4,5.2
	c-0.1,0.1-0.2,0.2-0.4,0.2l-41.2-0.1c2.3-4.3,3.6-7.7,4.7-11h50.2c0.5,0,0.7-0.5,0.4-0.9l-7.5-9.2c-0.2-0.3-0.6-0.3-0.8,0l-5.4,5.2
	c-0.1,0.1-0.2,0.2-0.4,0.2l-34.9-0.1c0.8-2.5,1.2-4.2,1.3-4.7c0-0.1,0.1-0.2,0.2-0.2l7.2-5.2c0.3-0.2,0.2-0.7-0.2-0.8l-25.3-4.2
	c-0.2,0-0.5,0.1-0.5,0.4c-0.2,1.5-1.1,6.9-3.3,14.7l-39.8-0.1c-0.3,0-0.6,0.2-0.6,0.6v4c0,0.3,0.2,0.6,0.6,0.6h38.3
	c-1.2,3.6-2.6,6.8-4.3,10.9l-29.5-0.1c-0.3,0-0.6,0.2-0.6,0.6v4c0,0.3,0.2,0.6,0.6,0.6h27.3c-1.4,3.1-3,6.9-4.8,10.1l-33.8-0.1
	c-0.3,0-0.6,0.2-0.6,0.6v4c0,0.3,0.2,0.6,0.6,0.6h31c-7.6,12.7-18.2,26-32.9,37.5c-0.3,0.2,1.8,1.2,2,1.1
	c10.3-3.2,19.1-8.1,26.7-13.9c1.8,1.1,6.4,4.4,6.9,4.8c2.7,2.1,5.2,4.2,7.7,6.5c1.2,1.2,2.3,2.4,3.5,3.6c1,1,2.2,2.1,3.7,2.1
	c2.7-0.1,4.8-3.2,5.7-5.4c0.8-1.9,1.2-4.2,0.7-6.2c-0.6-2.8-3-4.1-5.4-5c-3.9-1.4-8-2.1-12.1-2.5c-2.4-0.3-4.8-0.5-7.3-0.6
	c8-6.7,14.5-14.4,19.7-22.1h29.4c9,22.8,29.3,34.4,40.5,38.7c0.3-4.2,3.4-11,9.8-16.2C747,385.2,730.7,374.9,721.5,364.1z
	 M707.8,408l17.7-10.7c0.2-0.1,0.5-0.2,0.8-0.2l2.6-0.2c0.3,0,0.7-0.2,0.9-0.4c0.9-0.7,0.9-2.2-0.1-2.9l-11.7-7.9
	c-0.8-0.5-1.8-0.3-2.3,0.4l-10.9,14.8v-29.4h-16.1l-0.2,35.3l-48.7,10.8l8.2,19.2l4.4-5.7l36-18.5l-0.1,15.6c0,8.3-10,8.6-27.7,8.1
	v1.8c9.3,2.8,20.9,3.4,21.3,13.9c21.9,0,22.9-4.3,22.9-20.2v-18.8c8.6,3.7,24.4,12.1,35.1,26.9c5.3-3,13.8-11.7,8.8-19
	C743.5,413.5,719.2,409.5,707.8,408z M595.4,386h26.9l-11.8-11.7l-6,6.2l-21.4-0.1v-17.6h9.4v6.7l16.5-3.8v-42.6l3.1-2.4l-14.9-8
	l-5.8,8h-34.2l-15.6-7.1v60.1l15.6-3.7v-7.1h10.1v17.5l-36-0.2v5.8h16.1c-0.5,7.7-3.6,35.1-23.9,51l-0.1-87.1l-4.2,0
	c9.5-16.1,14.3-29.2,14.3-29.2l4.6-3.4l-26.2-5c-1.3,7.9-4.6,35.1-28,75.1c0.1-0.1,3.7,1.5,3.9,1.4c7.1-6.1,13.4-13.1,18.9-20.3V452
	h16.8l0-10.8c10.2-3.7,16.7-8.5,23-16c6.8-8.3,12.1-15.9,14.7-30.8c0.6-3.3,0.9-6.6,1-8.4h5.1v66.1h15.9V386h4.4
	c7,34.5,19.7,50.2,27.2,56.5c1-5.2,5.8-11.6,14.8-14.8C615.2,418,603.5,401.7,595.4,386z M592.6,324.3v34.6h-35.4v-34.6H592.6z
	 M956.6,365.6H999v9.3l18.6-4.3v-48.2l3.5-2.6l-16.8-7.2l-6.6,7.2h-41.2l-17.6-6.7v61.7l17.6-4.1V365.6z M999,324v36.9h-42.5V324
	H999z M956.9,386.3h-26.2l-16-5.7v71.5l16-4.1v-5.1h27.4v9.3l16.3-4.2l0.5-59l3.2-2.6l-15.2-7.2L956.9,386.3z M930.8,438.5V390h27.4
	l0,48.4H930.8z M1031,379.1l-5.9,7.2h-26.2l-16-5.7v71.5l16-4.1v-5.1h27.4v9.3l16.3-4.2l0.5-59l3.2-2.6L1031,379.1z M998.9,438.5
	V390h27.4l0,48.4H998.9z M776.1,368.9c-3.2,0,5.1,8.6,7.3,10.8c0.3,0.3,0.7,0.5,1.1,0.5l110.4,0l1.9-2.2c0.5-0.5,0.5-1.3,0-1.9
	l-12.7-15.8l-9.5,8.5C874.6,368.9,789.7,368.9,776.1,368.9z M419.7,315.4h3v-19.7h-3V315.4z M427.5,520.5h-1.7v21.6h1.7V520.5z
	 M415.1,520.5h-1.7v21.6h1.7V520.5z M394.2,315.5h-2.7v200.4h2.7V315.5z M427.4,315.5h-7.7v188h7.7V315.5z M389.2,315.5h-7.7v188
	h7.7V315.5z M351.1,291.9h-1.3v24.9h1.3V291.9z M336.5,291.9h-1.3v24.9h1.3V291.9z M397.2,301.5h-9.5v1.9h9.5V301.5z M421.2,301.5
	h-9.5v1.9h9.5V301.5z M335.9,301.5h-4.8v1.9h4.8V301.5z M358.8,301.6h-8.6v1.8h8.6V301.6z M437,515.8H315.2v6H437V515.8z M437,530
	H315.2v1.7H437V530z M411.3,334.3h-13.6v2.2h13.6V334.3z M411.3,372.1h-13.6v2.2h13.6V372.1z M349.8,372.1h-13.6v2.2h13.6V372.1z
	 M349.8,409.3h-13.6v2.2h13.6V409.3z M411.3,409.3h-13.6v2.2h13.6V409.3z M411.3,446.5h-13.6v2.2h13.6V446.5z M349.8,446.5h-13.6
	v2.2h13.6V446.5z M349.8,483.9h-13.6v2.2h13.6V483.9z M411.3,483.9h-13.6v2.2h13.6V483.9z M349.8,334.3h-13.6v2.2h13.6V334.3z
	 M434.2,315.5h-59.6v2.8h59.6V315.5z M366.7,315.5h-49v2.8h49V315.5z M314.2,544.7v-29.3h123.6v29.3L314.2,544.7z M317.1,517.3v23.5
	l117.7,0v-23.5H317.1z M415.1,520.5h-1.7v21.6h1.7V520.5z M355.7,520.5h-1.7v21.6h1.7V520.5z M367.6,520.5h-1.7v21.6h1.7V520.5z
	 M379.3,520.5h-1.7v21.6h1.7V520.5z M392.3,520.4h-1.7v21.6h1.7V520.4z M404.1,520.5h-1.7v21.6h1.7V520.5z M343.1,520.5h-1.7v21.6
	h1.7V520.5z M330.2,520.5h-1.7v21.6h1.7V520.5z M366.7,352.7h-49v3.5h49V352.7z M366.7,390.1h-49v3.5h49V390.1z M366.7,427.3h-49
	v3.5h49V427.3z M366.7,464.3h-49v3.5h49V464.3z M434.2,501.8H317.7v3.5h116.4V501.8z M434.2,501.8h-36.3v3.5h36.3V501.8z
	 M434.2,352.5h-59.7v3.9h59.7V352.5z M434.2,389.9h-59.7v3.9h59.7V389.9z M434.2,427.1h-59.7v3.9h59.7V427.1z M434.2,464.1h-59.7
	v3.9h59.7V464.1z M404.5,318.3l-7.8-10.2l7.8-10.2l7.8,10.2L404.5,318.3z M397.8,308.1l6.6,8.7l6.6-8.7l-6.6-8.7L397.8,308.1z
	 M412.4,291.9h-1.3v23.8h1.3V291.9z M397.8,291.9h-1.3v23.8h1.3V291.9z M404.5,313.4l-2.9-3.7v-3.1l2.9-3.7l2.9,3.7v3.1L404.5,313.4
	z M402.4,309.2l2.1,2.7l2.1-2.7v-2.3l-2.1-2.7l-2.1,2.7V309.2z M404.5,310.6l-1.4-1.8v-1.5l1.4-1.8l1.4,1.8v1.5L404.5,310.6z
	 M411.7,296.3h-14.5v2.2h14.5V296.3z M406.9,307l-0.1-0.3l-1.2,0.6l0.1,0.3L406.9,307z M405.7,308.6l-0.1,0.3l1.2,0.6l0.1-0.3
	L405.7,308.6z M403.2,307.6l0.1-0.3l-1.2-0.6L402,307L403.2,307.6z M402,309.2l0.1,0.3l1.2-0.6l-0.1-0.3L402,309.2z M404.6,304.1
	l-0.4-0.1l0,8.2l0.4,0.1L404.6,304.1z M409.4,297.9h-1.2v17.9h1.2V297.9z M400.7,297.9h-1.2v17.9h1.2V297.9z M345.3,308.2l-0.1-0.3
	l-0.9,0.5l0.1,0.3L345.3,308.2z M342,308.4l-0.9-0.5l-0.1,0.3l0.9,0.5L342,308.4z M316.2,295.8v220.5h3V295.8H316.2z M365.2,295.8
	v220.5h3V295.8H365.2z M373.2,295.8v219.6h3V295.8H373.2z M432.7,295.8v220.5h3V295.8H432.7z M386.2,315.4h3v-19.7h-3V315.4z
	 M357.4,315.7h3V296h-3V315.7z M329.5,315.7h3V296h-3V315.7z M343.2,318.3l-7.8-10.2l7.8-10.2l7.8,10.2L343.2,318.3z M336.5,308.1
	l6.6,8.7l6.6-8.7l-6.6-8.7L336.5,308.1z M343.2,314.6l-4.5-5.9l4.5-5.9l4.5,5.9L343.2,314.6z M339.7,308.7l3.5,4.6l3.5-4.6l-3.5-4.6
	L339.7,308.7z M350.4,296.3h-14.5v2.2h14.5V296.3z M349.8,307.8h-13.9v8h13.9V307.8z M348,297.1h-1.2v12.6h1.2V297.1z M339.5,297.1
	h-1.2v12.6h1.2V297.1z M399.2,315.5h-2.7v200.4h2.7V315.5z M389.2,316.9h-2.7v199h2.7V316.9z M337.9,316.7h-2.7v200.4h2.7V316.7z
	 M351.1,316.7h-2.7v200.4h2.7V316.7z M412.4,315.5h-2.7v200.4h2.7V315.5z M418.1,303h-1.2v12.6h1.2V303z M415.2,303H414v12.6h1.2
	V303z M326.7,305.9H324v211.3h2.7V305.9z M394.9,303h-1.2v12.6h1.2V303z M392,303h-1.2v12.6h1.2V303z M354.8,303h-1.2v12.6h1.2V303z
	 M362.8,316.3h-7.7v186.9h7.7V316.3z M263.3,63.4c-1.2,1.2-3,1-4.8-0.6c-0.7-0.5-1-1.1-1-1.5c0.1-0.4,0.3-0.6,0.3-0.6l0.1-0.1h0.1
	c3.2-0.2,8.9-4.2,9.7-5.2c0.5-0.6,0.1-2.3-0.3-3.2l0,0l0,0c-0.2-1-0.1-1.7,0.3-2.2c0.5-0.5,1.3-0.4,1.2-0.4c3-0.2,4.5,3,4.7,3.8
	c0.1,0.3,0.2,0.3,0.2,0.3c0.7-0.2,1.2-0.2,1.5,0c0.4,0.3,0.6,0.8,0.7,1.5v0.1c0.1,0.6,0.1,1-0.2,1.4c-0.3,0.4-0.7,0.5-0.7,0.5
	c-8.8,2.6-10.3,4.4-11.4,5.6L263.3,63.4z M274.9,63.9c0.2-0.4,0.2-0.7,0.1-1.1c-0.3-0.7-1.2-1.5-1.9-1.8c-0.7-0.2-1.4,0-2.1,0.3
	l-0.6,0.2c-0.8,0.3-1.7,0.4-2.6,0.6l-1.2,0.1l-0.1,0.3c0,0.8,0.2,1.3,0.8,1.8c0.6,0.5,1.3,1.1,2.3,1.2c1,0.1,1.9,0.1,2.9-0.1
	C273.3,65.1,274.5,64.7,274.9,63.9z M272.5,67.2l-0.1-0.1h-0.1c-0.1,0-4.6,0.9-6.3,0.5l-0.4-0.1l0.1,0.4c0,0.1,0.5,2.3,4.6,2.9
	c0.1,0,2.4,0.2,3.8-0.2h0.1l0.1-0.1c0,0,0.6-0.6,0.5-1.5C274.4,68.4,273.7,67.7,272.5,67.2z M263.3,74.5L263.3,74.5L263.3,74.5z
	 M274.7,77.6l0.3-0.4l0.7-1.3c0.1-0.3,0.3-0.6,0.3-0.9c0-0.2,0-0.4-0.1-0.5c-0.2-0.6-0.7-1.1-1.5-1.5l-0.4-0.3
	c-0.6-0.3-1.2-0.6-1.9-0.6c-0.8,0.1-1.4,0.6-2,1l-0.6,0.4l-2.1,1.3c-0.4,0.3-0.8,0.6-0.7,0.9c0.1,0.4,0.5,0.4,0.6,0.5l1.2,0.1h0.3
	h0.4h0.6l0.2,0.1c0,0.1-0.1,0.3-0.8,0.8l-0.1,0.1c0,0-0.9,0.6-1.1,0.8c-0.1,0-0.3-0.1-0.4-0.4c-0.4-0.9-1.1-1.7-1.9-2.3
	c-0.7-0.6-1.5-1-2.1-0.9l-0.5,0.3c-0.1,0.2-0.1,0.4-0.1,0.6c0,0.5,0.3,1,0.4,1.4l0.5,0.8c0.3,0.4,0.6,0.9,0.8,1.3
	c0.4,1.2,0.5,2.3,0.5,3.5v1v0.3l0.1,0.6c0.3,0.8,1.4,1.5,2.1,1.7c0.4,0.1,0.8,0.1,1.1-0.1c0.2-0.1,0.4-0.5,0.4-1.2c0,0,0,0,0-0.1
	c0-0.6-0.1-1.3-0.2-2.1c0,0,0.1-0.3,0.8-0.3l1.9-0.3l0.3-0.1L272,82l0.8-0.1l0.3-0.1c0.3,0,0.6-0.1,0.9-0.3c0.5-0.3,0.5-0.9,0.5-1.3
	v-0.1V80v-0.8l-0.2-0.4c-0.1-0.1-0.1-0.1-0.1-0.2l0,0C274.3,78.1,274.5,77.9,274.7,77.6z M276.3,51L276.3,51c0.6,1,1.7,2.6,1.8,3
	c0.1,0.4,0.2,6.8,0.2,10.9V65l0.1,0.1c0.4,0.4,1.5,1.8,2.4,1.9c0.1,0.1,0.3,0.1,0.4,0c0.3-0.1,0.6-0.5,0.6-2.4l-0.3-11l-0.1-0.1
	c-0.3-0.4-2.3-4-4.2-3.9c-0.1,0-0.6,0.1-0.8,0.5C276.2,50.3,276.1,50.6,276.3,51L276.3,51z M284.7,53.7c-0.6,0.6-1.2,1.2-1.9,1.5
	c-0.4,0.3-1,0.6-1.2,1c-0.4,0.7,0.3,1.2,0.8,1.5l0.1,0.1c1.1,0.8,1.8,0.7,3,0.4h0.2l1.9-0.3h0.6c0.6-0.1,1.3-0.1,1.9-0.5
	c0.6-0.6,0.5-1.5,0.3-2.1l-0.1-0.8c0.1-0.9,0.6-1.8,1.1-2.5l0.4-0.5c0.4-0.5,0.8-1.2,0.8-1.9s-0.5-1.5-1.5-2.1
	c-0.5-0.3-1.1-0.7-1.8-0.9c-0.1,0-1.6-0.5-1.9,0.3c-0.3,0.9-1.3,1.6-2.1,2.2l-0.1,0.1c-1.1,0.8-2.2,1.6-3.4,2.2l-0.2,0.1v0.2
	c0,0.2,0.1,0.4,0.3,0.5c0.5,0.4,1.6,0.2,2.6-0.1l0.3-0.1c0.6-0.1,1-0.1,1-0.1c0,0,0,0.1,0,0.3C285.7,52.5,285.3,53.1,284.7,53.7z
	 M289.7,59.1c-0.1,0.1-2.8,1.4-4.4,2.1c-1.5,0.6-3,0.7-3,0.7H282l0.1,0.2l0.1,0.6c0.4,0.6,2.1,1.3,2.8,1.4c0.9,0.2,2.2-0.1,2.3-0.2
	c1.5-0.4,3.2-0.5,4.4-0.6l0.9-0.1c1-0.1,1.5-0.7,1.6-1.2c0.1-0.3,0.1-0.6-0.1-0.8l-0.7-0.8l-0.9-1.1
	C291.7,58.4,289.7,59.1,289.7,59.1z M299.2,79.6c-1-0.6-1.8-1-2.7-1.3l-1.2-0.5l-1.3-0.5c-1.9-0.7-4.6-1.6-4.2-3.4l0.5-1.6
	c0.4-1.2,1-2.6,0.5-3.9c-0.4-1-1.3-1.7-1.8-2c-0.4-0.3-0.8-0.4-1.3-0.5c0,0-1-0.1-1.1,0.3l-0.1,0.2l0.1,0.2c0.6,0.6,0.3,2.4,0.1,3.4
	l-0.1,0.3c-0.3,1.8-0.6,2-0.7,2c0,0-0.1,0-0.1-0.1c-1-0.9-2-1.8-2.9-2.8l-0.4-0.5c-0.3-0.4-0.5-0.8-1.1-1c-0.4-0.2-0.9-0.3-1.7-0.3
	c-0.6,0-2.2,0.8-2.6,1.6c-0.2,0.4-0.1,0.8,0.2,1c0.4,0.4,0.8,0.6,1.3,0.8l0,0l0,0l0.3,0.1l0.5,0.3c1,0.5,1.8,1.3,2.6,2.5l1,1.6
	l0.1,0.2c0,0,0.3,0.4,0.3,0.5c-0.5,1.3-3.3,3-7.6,4.6H276c-1,0.3-1.1,0.7-1.1,1c0,0.1,0,0.1,0,0.1L275,82l0.1,0.1
	c5.6,1.8,10.3-1.2,11.4-1.9c2.7,2.8,5.5,5.6,9.7,4.9c1.3-0.2,3.3-0.8,3.8-1.3c0.4-0.4,0.6-1.1,0.4-1.9C300.3,81,299.8,80,299.2,79.6
	z M308.1,58.4l2.2,1.7l0.2-0.1c0.1-0.1,1.4-1,2-1.9c0.3,0.2,0.6,0.6,0.6,1.6c0,0.1,0,0.3,0,0.4c0,1.5-0.2,3.8-0.3,4.1
	c-0.1,0.2-0.4,0.9-0.4,1.7c0,0.3,0.1,0.5,0.1,0.8c0.1,0.1,0.9,1.3,2,1.9c0.1,0.1,0.4,0.4,0.9,0.3c0.4-0.1,0.7-0.6,0.8-1.4
	c0.3-1.5,0.5-3.6,0.5-5.5c0-1.7-0.2-3.1-0.8-3.8c-1-1.2-1.5-1.9-1.7-2.2c0.1-0.1,0.4-0.6,0.4-0.6l3.4-4.7c0,0,0.3-0.6,0.3-1.3
	s-0.3-1.7-1.3-2.6l-0.6-0.5c-1.8-1.6-3.4-3-4.5-2l-0.1,0.1v0.2c0,0.1,0.2,3.3-0.5,4.9c-0.6,1.6-2.2,4.2-4.1,6
	c-0.1,0.1-0.4,0.4-0.4,0.9C306.9,57,307.3,57.7,308.1,58.4z M338.4,69L338.4,69c-0.7-0.4-1.4-0.9-1.9-0.8l-1.3,0.3l-2.4,0.5
	c-1.1,0.2-3.7,0.6-5.3-0.1c-0.1-0.1-0.6-0.9-0.9-1.4c0.3-0.1,0.7-0.1,0.7-0.1l1.5-0.3l0.4-0.1c0.8-0.1,1.9-0.3,2.1-1
	c0-0.1,0.1-0.1,0.1-0.2c0-0.5-0.4-1-0.8-1.3l-0.1-0.1c-0.4-0.5-1-0.9-1.6-1.2l-0.8-0.1c-0.2,0-0.6,0-0.7-0.1v-0.2
	c0.1-0.1,0.1-0.1,0.2-0.1l0.3-0.1c1.2-0.3,1.8-0.8,1.9-1.5c0,0,0-0.1,0-0.1c0-1-1.6-1.6-2.5-1.9l0,0c0,0,0-0.1,0-0.2
	c0.1,0,0.1-0.1,0.1-0.1c0.8-0.3,2-0.7,2.3-1.5c0.1-0.1,0.1-0.3,0.1-0.4s0-0.3-0.1-0.4c-0.3-0.7-1.2-1.2-1.9-1.4l-0.1-0.1
	c0.1-0.4,1.9-1.3,2.4-1.6l0.8-0.4c0.4-0.4,0.6-0.8,0.6-1.2c0-0.1,0-0.1-0.1-0.2c-0.2-0.8-1.3-1-2.4-1.2l-0.4-0.1
	c-0.4-0.1-0.9-0.1-1.2,0c0.1-0.1,1.4-2,0.5-3.3c-0.8-1.2-2.2-3.4-6.3-3.2h-0.4l0.2,0.4c0.6,1.3,1.2,3.6,0.8,4.1l-0.2,0.3l0.3,0.2
	c0.3,0.2,2.6,1.7,3.5,1.7c0.5,0.1,0.9,0,1.2,0c-0.3,0.1-0.5,0.3-0.7,0.4l-0.7,0.4c-1.9,1-3.7,1.7-5.3,2.2c-1.2,0.4-1.7,0.4-1.7,0.4
	l-0.4,0.1l0.2,0.4c0.6,1.1,2.6,1.4,3.9,1.6l0.8,0.2l0.1,0.1v0.1c0,0.1-0.1,0.4-0.1,0.5c-0.4,0.4-2.1,1.1-2.6,1.3l-0.3,0.1l0.1,0.3
	c0.3,0.8,1.4,1,2.2,1.1l0.6,0.1c0,0,0.1,0,0.1,0.1c0,0.1,0,0.1,0,0.2c0,0.3-0.1,0.6-0.3,0.8c-0.2,0.2-0.6,0.2-0.9,0.3l-0.4,0.1h-0.1
	c-0.4,0.1-0.8,0.1-1.1,0.4l-0.1,0.6c0.2,0.8,1.5,1,2.2,1c0,0,0.2,0,0.3,0c0.1,0.1,0.1,0.2,0.1,0.3c0,0.3-0.1,0.6-0.1,0.7
	c-0.3,0.4-1.6,0.5-2.3,0.6l-0.8,0.1l-0.3,0.1c-0.3,0.1-0.8,0.1-0.8,0.7v0.1c0.1,0.7,1.2,1.2,1.5,1.4c0.9,0.4,1.8,1.1,1.8,1.6l0,0
	c0,0.3-0.8,0.4-1.1,0.4h-0.1c-1,0-2,0.1-3.1,0.3l-2.9,0.6c-1.1,0.3-2.2,0.6-3.4,0.7c-1.9,0.2-3.8-0.3-5.3-0.6l-1.6-0.4
	c-1.5-0.3-2.2-0.1-2.2-0.1l-0.3,0.1v0.2c-0.3,2.8,1.9,4.4,2.7,5l0.2,0.1c0.7,0.6,1.5,0.3,1.5,0.3c3.4-2.1,14-3.6,16-3.8
	c0.1,0.8,0.1,2.7,0.1,4.2c0,0.6,0,1.2,0,1.6c-0.1,1.1-0.4,1.3-1.7,1.2h-0.6c-0.8,0-1.7,0-2.5-0.2c0,0-0.2-0.1-0.3-0.1
	c0-0.1,0-0.4,0-0.4c0-0.6-0.2-1-0.4-1.5l-0.1-0.2c-0.4-0.8-0.4-1.1-0.4-1.2l0,0v0.1l-0.5-0.4c-0.4,0.5-0.9,1-1.4,1.4l-0.5,0.4
	l-0.7,0.6c-0.4,0.5-1,1-1.5,1.2l-0.6,0.2c-0.4,0.1-0.8,0.1-1.2,0.4c0,0-1.1,1.2-0.7,1.7c0.7,0.9,2.6,2.9,5.1,2.9
	c0.9,0,1.4-1.2,1.8-2.1l0.3-0.5c0.3-0.5,0.4-0.4,1.2-0.1l0.1,0.1l0.6,0.3c1,0.4,2.1,0.9,2.8,1.7l0.6,0.8c0.3,0.4,0.6,0.9,1.2,1.3
	c0.8,0.6,1.5,0.7,2.2,0.4c2.1-1,2.5-5.5,2.6-6c0,0,0.3-6.1,0.3-7.4c1,0,4.7,0,5.1,0c0.5,0.1,1,0.3,1.5,0.4l0.9,0.3
	c0.7,0.2,1.5,0.4,2.5,0.4c1,0.1,2.4-0.1,2.8-0.8c0.2-0.4,0.1-0.9-0.2-1.4C340,70.2,339.3,69.5,338.4,69z M330,76.8l-0.4,0.1l0.1,0.3
	c0,0.1,1.9,4.4,2.2,5.1v0.1l0.1,0.1c0.4,0.3,1.4,1.3,1.7,1.7l0.1,0.1c0.1,0.3,0.5,0.5,0.9,0.5c0.5,0,1.2-0.4,1.5-1.3
	c0.4-0.9,1.2-3,0.8-4C336.8,78.6,333.6,76,330,76.8z M219.3,60.1l0.8,0.2c0.4,0.1,1,0.2,1.1,0.4c0.1,0.5-1.2,5.1-2.4,9.2l0.6,0.3
	c0.1-0.1,0.4-0.6,0.6-0.8c0.3-0.2,0.9-0.4,1.2-0.5c0.9-0.2,2.1-2.4,4.2-7.6l0.3-0.6c0,0,0.6-1.5,0.8-1.8c1.5-1.3,1.9-2.1,1.9-2.6
	c0-0.2-0.1-0.4-0.1-0.6l-0.1-0.1c-0.1-0.5-0.8-1.1-1.7-1.9l-0.1-0.1c-0.8-0.6-2.3-0.6-2.5-0.6h-0.1l-2.4,1.9
	c-0.9,0.8-4.5,2.2-4.5,2.2l-0.1,0.1l-0.1,0.1c-0.1,0.1-0.1,0.4,0,0.7C216.9,59.1,218.7,59.9,219.3,60.1z M256.6,79h0.4l-0.1,0.4
	c-0.6,6.7-11.9,7.2-12.4,7.2h-0.1h-0.1c-2.3-0.8-9-4.2-13.2-6.6c-3.7-2.1-5.2-1.8-5.4-1.7c-5.3,6.7-8.5,7-9.7,7.1h-0.2
	c-0.3,0.1-0.8,0.1-1-0.3c0-0.1-0.1-0.2-0.1-0.3c0-0.2,0.1-0.3,0.1-0.4l0.1-0.1l0,0c3.2-2.4,5.6-6.3,6-7c-0.2-0.3-1.4-0.8-2-1l-1-0.4
	c-0.6-0.3-0.8-0.7-0.8-1.2c0-0.3,0.1-0.6,0.2-0.8l0.1-0.1l0.1-0.1c0.6-0.3,2.1-0.4,3.3-0.5c0.8-0.1,1.7-0.2,1.9-0.3
	c0.3-0.2,0.6-1.9,0.7-2.5l0.1-0.6c0-0.1,0-0.1,0-0.2c0-0.4-0.2-0.8-0.4-1.2l-0.3-0.7c0,0,0,0,0-0.1c0-0.6,1-1,1.5-1.1l0.1-0.1
	l0.1,0.1c2.7,1.5,3.4,2.8,3.4,3.7c0,0.4-0.1,0.8-0.3,1.1l-0.1,0.1c-0.3,0.6-0.4,1.5-0.6,2c0.4,0.2,6.4,2.3,7.1,2.6
	c0-0.6,0-2.2,0-2.7c-1.2,0.2-3.1,0.1-4.2-0.4c-1.2-0.6-1.4-1.4-1.4-1.5l-0.1-0.5l0.5,0.2c0.7,0.2,4.6-0.5,5.1-0.8
	c0.1-0.1,0.1-0.1,0.1-0.3c0-0.3-0.1-0.6-0.2-0.9c-0.6-0.1-2.4-0.3-3.1-0.6c-0.5-0.3-1.2-0.7-1.3-1.2c0-0.1,0-0.2,0-0.3
	c0-0.2,0.1-0.3,0.1-0.4c0.3-0.4,1-0.5,2.8-0.6l1.2-0.1c0.1-0.1,0.2-0.3,0.2-0.6c0-0.1-0.1-0.3-0.1-0.4c-0.4,0-1.3-0.1-2.8-0.4
	c-0.6-0.1-1.3-0.3-1.4-0.9c-0.1-0.1-0.1-0.1-0.1-0.1c0-0.4,0.4-0.7,0.5-0.8l0.1-0.1l0.6-0.1c0.9-0.1,2.5-0.4,2.8-0.6
	c0.1-0.1,0.2-0.4,0.2-0.9c0-0.2-0.1-0.3-0.1-0.5c-0.8,0.1-2.6,0.5-3.2,0.7h-0.1l-0.1-0.1c-1.4-0.6-2.2-1.2-2.5-1.9
	c-0.1-0.1-0.1-0.3-0.1-0.4c0-0.3,0.1-0.4,0.1-0.4l0.1-0.1l2.4-0.7c1.3-0.4,2.8-0.8,3.1-1c0.3-0.2,0.4-0.6,0.4-0.9l0,0
	c-4.6-0.1-5.1-1.2-5.1-1.7c0-0.3,0.3-0.6,0.6-0.9c0.6-0.4,1.5-0.9,2.2-0.7c0.6,0.1,1.6-0.2,2.1-0.4c-0.1-0.4-0.3-5.6-0.3-5.6
	c-0.1-2-0.8-3.9-0.8-3.9v-0.1v-0.1c0-0.3,0.1-0.5,0.3-0.7c0.6-0.4,1.6-0.3,1.8-0.3c0.1,0,2.6,1.2,4.5,2.8c0.7,0.6,0.9,1.2,0.9,1.7
	s-0.2,1.1-0.4,1.6l-0.3,1c-0.1,0.2-0.1,0.4-0.1,0.7c0,0.3,0.1,0.5,0.1,0.8c0.4-0.1,0.8-0.3,1.2-0.4c1.8-0.6,2.8,0.3,3.6,1.2l0.1,0.1
	c0.4,0.6,1,1.3,1,2.1c0,0.1,0,0.3,0,0.3c-0.1,0.4-0.3,0.8-0.6,1.2c0.5,0,1.1,0,1.4,0c1.1,0,2.2,1.2,2.8,1.9c0.3,0.3,0.6,0.8,0.3,1.3
	c-0.1,0.3-0.9,0.9-1.3,0.8c-1.5-0.4-3.1-0.6-5.3-0.4c-0.3,0-2.5,0.2-3.2,0.3c0.1,0.3,0.1,1.1,0.2,1.4c0.2,0,0.4,0,0.4,0
	c1,0,2.2-0.1,2.8,0.4c0.4,0.3,0.4,0.6,0.4,0.8c0,0.1,0,0.1,0,0.1c-0.1,0.8-1.3,1.3-2.4,1.7l-0.4,0.1c-0.3,0.1-0.8,0.2-0.8,0.3
	c0,0,0,0.1,0,0.2c0,0.2,0,0.4,0.1,0.6c0,0,0,0.1,0,0.1c0.3,0,0.7,0,1.1-0.1c0.6-0.1,2,0.4,2.4,1.1c0.1,0.2,0.1,0.3,0.1,0.5
	s-0.1,0.4-0.2,0.6c-0.4,0.5-1.2,0.6-1.9,0.6c-0.5,0.1-1,0.1-1.3,0.3c-0.1,0.1-0.1,0.2-0.1,0.4c0,0.3,0.1,0.8,0.2,1
	c0.4-0.1,1.7-0.3,1.7-0.3l2.6-0.4c0.9-0.1,1.7,0.6,2.1,1.3c0.4,0.7,0.6,1.5,0.3,2.1c-0.1,0.3-0.5,0.6-1.3,0.6l-2.8-0.2l-1.9-0.2
	c-0.4-0.1-0.6,0.1-0.6,0.1s-0.1,5.2-0.1,5.5C240.7,78.4,250.2,78.7,256.6,79z M240.7,52.6c-0.4,0.1-0.9,0.2-1.3,0.6
	c0,0.2,0,0.6-0.1,1.1C239.9,53.6,240.4,53,240.7,52.6z M378.3,59.1l-0.1,1.3l0.1,1l0.1,3.4c0,0.1,0,0.1,0,0.1c0,1.1-0.1,2.1-0.2,3
	c-0.1,0.8-0.2,1.6-0.2,2.4c0,0.5,0.1,1,0.1,1.5c0.3,1.6,0.3,3.2,0.3,4.8c0,1.8,0,3.5,0.4,5.2c0.1,0.1,0.1,0.3,0.1,0.5
	c0,1.5-1.2,3.7-2.7,4.7c-0.9,0.6-1.8,0.7-2.6,0.3s-1.1-1.3-1.5-2.1l-0.6-1.2V84c-0.2,0.2-0.4,0.4-0.6,0.5l-0.4,0.4l-0.6-0.1
	c-1.7-0.4-4.2-1-6.5-0.6c0,0-4,0.3-4,0.3c-0.5-0.1-1,0.1-1.6,0.2c-0.8,0.1-1.5,0.3-2.4,0c-1.1-0.4-2.2-1.2-2.9-2.1l-0.1-0.3l0.2-0.2
	c0.8-0.8,1.9-0.8,2.9-0.7c0.6,0,1.2,0.1,1.8-0.1l0.2-0.1c1.7-0.3,3.3-0.6,5.3-0.8c-0.2-0.4-0.4-0.6-0.8-1c-0.4-0.4-1-0.9-1.1-1.7
	l-0.1-0.3l0.3-0.1c0.7-0.1,1.4,0,2.1,0.1c0,0,0.3,0.1,0.6,0.1v-0.1h0.4v0.1c0.1,0,0.2,0,0.2,0c0.1-0.1,0.3-0.3,0.4-0.4
	c0.1-0.7,0.2-1.4,0.2-2.1c0-1.2-0.2-2.2-0.4-3.5c-0.9,0.1-2.4,0.3-3.1,0.8c0.3,0.5,0.4,1.2,0.4,1.9c0,0.7-0.2,1.3-0.7,1.9l-0.1,0.1
	h-0.1c-1.2,0.4-2.3-0.4-3.3-2.5l0,0c-1.5,0.8-4,2.1-5.7,1.3c0,0-0.6-0.4-1.2-0.8l0,0c0.1,0.3,0.2,0.6,0.2,1.2c0,0.4,0,1-0.1,1.6
	l-0.1,1l0.1,2.6c0,0.5,0.1,1,0.1,1.5c0,1.2-0.3,2.2-1.3,3.4l-0.1,0.1h-0.4h-0.1l-1-1.1c-0.5-0.5-1-1-1.4-1.8l-0.7-2.4
	c-0.1-0.1-0.1-0.3-0.1-0.6c0-1,0.3-2.6,0.7-4.5l0.3-1.3l0.1-9.3c0,0-0.1-2.8-0.1-3l0,0c0-0.4,0.1-0.7,0.1-1.2c0-1.6-0.4-3.5-0.7-5.1
	c-0.2-1.3-0.4-2.2-0.4-2.8c0-0.3,0-0.4,0.1-0.6l0.1-0.2h0.2c1.6,0,3.8,2.1,4.1,3.9v0.1l-0.1,1.9l-0.1,2c-0.3,1.3-0.1,4.2,0.1,6.3
	l0.1,1.5l-0.1,1.3c0,0.8-0.1,2,0.1,2.2c1,0.6,5,0.1,6.2-0.5c0.1-0.1,0.3-0.2,0.4-0.4c0.1-0.2,0.2-0.3,0.3-0.4
	c-0.8,0-1.7-0.6-2.2-1.3c-0.2-0.3-0.3-0.6-0.3-0.9c0-0.1,0.1-0.3,0.1-0.4l0.1-0.1c0,0,1.9-0.4,2.3-0.5c-0.1-0.1-0.3-0.3-0.4-0.4
	c-0.2-0.2-0.4-0.5-0.6-0.9l-0.3-1.6c-0.1-0.6-0.2-1.2-0.4-1.8c-0.4-1.1-1.2-1.9-2-2.6l-1-1v-0.9v-0.3l0.9-0.1c1,0,1.9-0.1,2.6,1.2
	l0.1,0.1c0,0,0.1,0.3,0.2,0.4h0.1l0.1,0.2c0.4,0.8,0.6,1.5,0.8,2.1l0.5,1.4l0.4,0.8c0.1,0.3,0.3,0.4,0.4,0.7
	c0.2-0.4,0.6-0.6,0.9-0.8c0,0,0.1-0.1,0.3-0.1c0.1-0.3,0.1-0.6,0.1-0.8l0,0c-0.5,0-1.1-0.1-1.4-0.6l-0.1-0.1v-0.5l0.1-0.1
	c0.7-0.5,1.2-1.2,1.6-1.9c-0.3,0-0.4,0.1-0.4,0.1c-0.8,0.1-1.9,0.4-2.4-0.7l-0.1-0.3c0,0,2.7-1.3,3-1.5c0-0.3,0.1-0.9,0.1-1.1
	l-0.1-0.1c-0.9-0.1-1.5-0.5-2.1-0.9l-0.8-0.5V53l0.1-0.1c0.4-0.3,1-0.6,1.4-0.8c0.4-0.2,0.8-0.4,1.1-0.6c0-0.2-0.1-0.8-0.1-1
	c-0.8,0.2-1.5,0.5-2.1,0.8c-1.7,0.8-3.3,1.6-5.5-0.1l-0.2-0.1c-0.6-0.4-1.3-1-1.3-2.1v-0.1l0.3-0.5h0.2c1.9,0,3.3-0.4,4.9-0.8
	c1-0.3,2.1-0.6,3.3-0.8c1.9-0.3,3.6-0.3,5.3-0.4c1.7-0.1,3.3-0.2,4.9-0.4c4.8-0.6,6.8,0.8,8.8,3.7l0.3,0.4c0.4,0.5,0.8,1.1,0.9,2.1
	v0.1l-0.1,0.1c-0.6,1-0.6,2-0.8,3.1c-0.1,0.8-0.1,1.5-0.3,2.3L378.3,59.1z M358.6,69.4L358.6,69.4c0.9,0.3,2.1-0.1,3.3-0.4
	c0.8-0.2,1.5-0.4,2.2-0.5c0.1-0.1,0.4-1.3,0.4-1.3h0.3c0.2,0,0.4,0.1,0.5,0.1c0-0.1-0.1-0.4-0.1-0.4c-1.3,0.2-2.6,0.8-3.8,1.5
	C360.4,68.6,359.5,69.2,358.6,69.4L358.6,69.4z M364.7,60.2c-0.3,0.4-0.6,0.6-1,0.8c0,0.1,0,0.1,0,0.1c0.3-0.1,0.5-0.2,0.7-0.3
	C364.5,60.8,364.6,60.4,364.7,60.2z M365,59.3c0.1-0.2,0.6-1.7,0.8-2.3c-0.4,0-0.7,0.1-1,0.2c0,0-0.4,0.1-0.7,0.2
	c-0.1,0.3-0.1,0.8-0.1,1c0.1,0.1,0.2,0.1,0.3,0.2C364.5,58.6,364.9,58.9,365,59.3z M364.7,63.8c-0.3,0.1-0.6,0.1-0.8,0.2
	c0,0.2,0,0.3-0.1,0.6h0.1c0.3-0.1,0.6-0.2,0.8-0.3C364.7,64.1,364.7,64,364.7,63.8z M359.1,64c0.2,0.5,0.3,1.1,0.3,1.8
	c0.1,0,0.4,0,0.5-0.1c0-0.1,0-0.1,0-0.1C360,64.6,359.8,64.4,359.1,64z M372.1,82.4c0,0.1,0,0.2,0,0.3c0.1-0.2,0.3-0.4,0.4-0.5
	c0.4-0.4,0.7-0.8,0.8-1.3v-0.1c0-0.1,0.1-0.3,0.2-0.4c0.3-1.3,0.4-2.6,0.4-3.8c0-0.7-0.1-1.3-0.1-2.1c-0.1-0.7-0.1-1.4-0.1-2.2
	c0-0.8,0.1-1.7,0.1-2.6v-2.1c0-0.5,0-1,0-1.5c0-0.6,0.1-1.2,0.1-1.7c0.3-2.3,0.6-4.9,0.6-7.2c0-1.2-0.1-2.4-0.3-3.4
	c-0.4-2.1-1.5-3.7-3.1-4.6c-1.4-0.8-3.1-1-4.7-0.6c0,0-1.9,0.4-2.4,0.4c0.1,0.3,0.3,0.4,0.3,0.7c0,0,0.2,0.4,0.2,0.5l0,0
	c0.1,0.1,0.3,0.1,0.4,0.2c0.3,0.1,0.6,0.1,0.8,0.4c0.4,0.3,0.6,0.7,0.6,1.1V52c0,0.8-1.1,1.5-1.9,2.1c0,0-0.2,0.2-0.3,0.3
	c0,0.1,0,0.2,0,0.3h0.1c0.1-0.1,0.9-0.4,0.9-0.4c0.6-0.3,1.3-0.6,1.9-0.8c0.6-0.1,1.3,0.1,1.9,0.5c1,0.7,1.7,2.1,1.7,3.2v0.2
	l-0.1,0.1c-1,1-1.7,2.8-2.4,4.4c0,0-0.8,1.9-0.8,2.1V64c1,0.4,1.3,1.2,1.3,2.2c0,0.5-0.1,1.1-0.2,1.7c0.1,0,0.1,0,0.1,0
	c0.5-0.3,1.2-0.4,2-0.4v-0.3h0.1v0.3c0.3,0,0.5,0.1,0.8,0.1c0-0.1,0.1-0.1,0.1-0.1h0.2h0.2l0.1,0.1c0.5,0.5,2.1,2.2,1.3,3.2
	c-0.7,0.6-1.9,0.4-3,0.3c-0.8-0.1-1.7-0.3-2.3,0c0.2,1,0.3,3.3,0.3,5.3c0,1.2-0.1,2.2-0.2,2.9c1.2,0.2,2.8,0.9,3.5,2
	C372,81.6,372.2,82,372.1,82.4z M135.3,75.3L135.3,75.3l0.1-0.1c0.4-2.1,0.4-3.3,0-3.5c-0.1-0.1-0.3-0.1-0.5,0c0,0-1.2,0.8-1.8,1.3
	c0-0.6-0.1-1.3-0.1-2c0-1,0.1-1.9,0.2-2.2c0.4-0.8,2.2-2,2.9-2.4l0.2-0.1l-0.1-0.3c-0.1-0.1-1.3-2.2-2.6-2.7c0-0.1,0-0.1,0-0.2
	c0-0.8,0.1-2.7,0.7-3.7c0-0.1,0.1-0.3,0.1-0.8c0-0.8-0.5-2.4-3.3-4.1c-0.1-0.1-3-1.3-4.5-0.5c-0.4,0.3-0.8,0.7-0.8,1.3l-0.1,0.4
	l0.4-0.1c0,0,0.2-0.1,0.4,0.1c0.3,0.3,0.9,1,1,3.7l0.1,2.1c0.1,0.8,0.1,1.7,0.1,2.4c0,0.4,0,0.8-0.1,0.9c-0.3,0.4-2.9,2.2-4.4,2.8
	c-0.1,0-1.1,0.3-1.3,0.9c-0.1,0.1-0.1,0.2-0.1,0.3c0,0.1,0.1,0.4,0.2,0.6v0.1l0.1,0.1c0.1,0.1,3.2,2,4.6,2.5c0.1,0.3,0.4,1.6,0.4,3
	c0,0.6-0.1,1.2-0.3,1.6c-0.3,0.3-2.6,2.2-5.2,2.6c-0.1,0-1,0.1-1.2,0.8c0,0.1-0.1,0.2-0.1,0.3c0,0.4,0.3,0.8,0.7,1.3
	c1.6,1.6,2.8,2.4,2.8,2.4l0,0l-0.1-0.1l0.5,0.3c0.6,0.1,1.2-0.3,2.1-1.1l2-1.8C130.9,79.4,133.8,76.9,135.3,75.3z M171.3,82.9
	c-0.2,0.9-2.2,1.1-2.8,1.2c-3.5,0.8-5.4-0.4-5.5-0.4c-3.9-2.2-6.7-4.9-7.4-5.6c-2.7,2.8-6.3,3.3-6.5,3.3l-0.7,0.1l0.4-0.6
	c3-3.3,3.5-5.6,3.7-6.5c0,0,0-0.1,0-0.1c0-0.4-0.3-1-0.6-1.5c-0.7,2.3-2.6,5.1-4.3,6.9c-1.7,1.9-3.2,0.8-3.2,0.8l-3.8-2.4
	c-0.6-0.4-0.8-0.4-0.9-0.4c-0.4,2.8-2.2,4.9-2.3,5.1c-1.1,0.8-1.9,1.1-2.6,0.8c-0.6-0.2-0.8-0.8-0.8-0.8c-0.3-0.6-1.5-2.2-2-2.8
	l-0.4-0.4h0.6c2.6-0.1,3-1.6,3-1.7C140,68.2,135.1,60,135,60l-0.1-0.1v-0.1c0.1-0.7,1.2-0.8,1.8-0.7c0.6,0,2.9,1.7,3.3,2.2
	c0.3,0.4,0.2,1.1,0.1,1.8l-0.1,0.8c0,0.1,0.1,0.2,0.1,0.2c0,0.1,0.1,0.1,0.2,0c0.3-0.3,3.7-3.9,4.9-5.1c0.7-0.7,0.8-1.2,0.8-1.4
	c0-0.1,0-0.1,0-0.1v-0.1l0,0c-0.1-0.9-2.6-5.5-4.3-8.5l-1.5-2.9l-0.1-0.2c-0.2-0.4-0.3-0.6-0.7-1c-0.4-0.4-0.6-0.8-0.6-1.1
	c0-0.1,0.1-0.2,0.1-0.3c0.1-0.4,0.5-0.6,0.8-0.6c1.1-0.1,2.6,0.4,2.7,0.4c4.4,1.4,4.6,3.7,4.6,3.8l1.3,5.8c0.4,2.1,0.8,2.6,0.9,2.8
	c0.5-0.2,1.6-1,2.1-1.3c2.8-1.2,3.7,1.1,3.7,1.1c0.1,0.3,0.2,0.5,0.2,0.8c0,0.9-0.6,1.5-0.6,1.6c-1,1-2.6,4-2.7,4.3
	c0,1.3,1.9,4.7,3,6.3c0.5-2.1,1.1-11.9,1.1-12.8c0-0.4-0.6-1.5-0.9-2.1c-1-1.2-1.5-2.1-1.5-2.8c0-0.2,0.1-0.4,0.1-0.5
	c0.4-0.8,1.5-0.6,1.6-0.6c3.5,1.1,4,3.1,4,3.4c0.4,0.6,0.6,1.1,0.6,1.5c0,0.1-0.1,0.3-0.1,0.4c-0.3,0.5-1,0.6-1,0.6
	c-1.7,0.4-1.8,3.7-1.8,4c0.3,0.6,1.7,4.8,1.9,6.5c0.1,0.3,0.1,0.5,0.1,0.8c0,2.1-0.7,5.5-0.8,6.1c2.1,2.8,11.2,8,11.3,8
	C170.6,81.6,171.2,82.1,171.3,82.9z M149,66.1c-0.1,0.3-0.3,0.4-0.4,0.8c0.3,0,0.4,0,0.6,0C149.2,66.5,149,66.2,149,66.1z
	 M147.6,69.7c-2.6,0.6-6.3,4.8-7.2,6c1,0.3,3.3-0.1,4.2-0.3c2.6-2.6,3.1-4.3,3.1-5.1C147.7,70,147.6,69.8,147.6,69.7z M140.6,69.5
	c0,0.1,0,0.2,0,0.3c1.3-1.2,4.8-4.6,6.5-7.5v-0.1c0-0.3-0.1-0.4-0.1-0.6c-0.8,0.7-5.9,4.7-6.5,5.2C140.6,68.1,140.6,69,140.6,69.5z
	 M183.5,69.3c0.1,1,0.4,8.8,0.4,9.8c0,1-0.3,1.5-1.1,2.8l-0.6,1.1c-0.4,0.8-1,1.3-1.6,1.3c-0.8,0.1-1.3-0.7-1.3-0.7
	c0-0.1-2.4-3-3-3.5c-0.6-0.5-3.7-1.9-5.1-2.6l-0.1-0.1c-0.5-0.2-0.8-0.6-0.8-1.2c-0.1-1,0.5-2.4,1-2.8c0.6-0.4,1.8-0.6,1.7-0.6
	c1.5-0.8,5.8-4.3,6.3-4.7c0.1-0.3,0.2-1.5,0.2-2.2c0-0.1,0-0.2,0-0.3c0-0.2,0-0.3-0.1-0.3c-2.1,1.8-3.9,0.5-3.9,0.5
	c-2.2-1-3.2-1.8-3.2-2.6l0,0c0-0.4,0.4-0.7,0.7-0.8c3.5-0.4,5.8-3.1,6.1-3.4c0-0.4,0.1-4.8,0.1-4.8c-0.1-3.5-0.7-4.4-1-4.6
	c-0.2-0.1-0.3-0.1-0.3-0.1l-0.3,0.1l-0.1-0.3c-0.1-0.5,0.1-0.9,0.4-1.2c0.7-0.6,2.1-0.1,2.4-0.1c1.1,0.7,2.4,1.6,3.4,2.8l0.1,0.1
	l0.6,0.8c0.1,0.3,0.2,0.5,0.2,0.7c0,0.3-0.1,0.6-0.3,1l-0.1,0.3l-0.1,0.3c-0.3,0.6-0.5,1.3-0.5,2c0,0.1,0.1,0.3,0.1,0.4
	c0.1,0.3,0.3,0.8,0.4,0.9l0.5,0.2c0.3,0.1,0.6,0.1,1,0.6l0.6,1.2l0.2,0.5c0.1,0.2,0.1,0.4,0.1,0.6c0,0.4-0.2,0.7-0.6,1l-0.7,0.5
	c-0.5,0.4-1.1,0.8-1.5,1.2c-0.3,0.3-0.3,0.8-0.3,1.4c0,0.2,0,0.3,0,0.5c0.6-0.4,1.9-1.2,2.3-1.2l0,0c0.3-0.1,0.4,0,0.5,0.2
	c0.1,0.1,0.1,0.2,0.1,0.4c0,0.6-0.4,1.5-0.4,1.5l-0.8,1l-0.5,0.6C184.5,67.7,183.2,69.3,183.5,69.3z M175.6,76.1
	c0.4,0.5,1.7,1.6,2.6,1.5h0.1h0.1c0,0,0.1,0.1,0.2,0c0.1-0.1,0.3-0.3,0.4-0.9c0.2-1.2,0.3-3.3,0.3-4.3
	C177.4,73.8,175.6,75.5,175.6,76.1z M209.6,70.2c0.1,0.1,2,3.5,0.8,5.4l-1.2,1.5c-1,1.2-1.9,2.4-2.2,3.4v0.1l-0.1,0.1
	c-0.1,0.1-2.6,3.3-6.8,3.8c-0.1,0-1.9,0.1-3.1-2.2c-0.3-0.4-0.8-1.2-1.3-1.3c-0.1,0-0.3,0-0.3,0.1c-3,2.2-3.7,2.2-7.3,1.8
	c-0.3-0.1-0.4-0.3-0.4-0.3c-0.1-0.6,1.4-1.7,2.1-2.2c2.6-1.9,5.1-4.3,7-7.1c0.6-0.8,1.1-1.6,1.5-2.4l0.1-0.3c0.2-0.4,0.4-0.8,0.2-1
	c-0.1-0.1-0.3-0.2-0.4-0.2c-0.2,0-0.4,0.2-0.6,0.4c-0.7,1.3-1.6,2.6-2.5,3.7l-0.4,0.5c-0.8,1.1-1.7,2.2-3,3c-1,0.6-2.6,0.7-3.8,0.8
	c-0.4,0-1,0-1.2-0.4c-0.1-0.1-0.1-0.2-0.1-0.3c0-0.4,0.4-0.8,0.8-1.3l0.7-0.9c0.4-0.8,1.1-1.5,1.7-2.1l1.2-1.4l0.2-0.2
	c0.1-0.3,0.4-0.6,0.4-0.8c0,0,0-0.2,0-0.3c-0.1,0-0.1,0.1-0.4,0.2l-1.6,1l-1.2,0.8l-0.3,0.2c-1.1,0.6-2.1,1.3-3.4,0.3
	c-0.5-0.4-0.8-0.9-0.9-1.3c0-0.1,0-0.1,0-0.2c0-0.4,0.1-0.7,0.4-1.1c0.4-0.6,1.2-1.1,2.1-1.6c1.3-0.8,2.8-1.8,3.2-2.4
	c-0.8-0.3-2.6-1-2.9-1.9C187,64.2,187,64,187,64c0-0.1,0-0.3,0.1-0.4l0.1-0.1h0.1c1.5-0.4,3.1-1.2,3.3-1.7c0.1-0.5,0.2-2,0.2-3.4
	c0-1.2,0-2.3-0.1-2.8c-0.6-3.3-1.5-4-1.9-4.3l-0.4-0.4c-0.1-0.2-0.1-0.3-0.1-0.5s0.1-0.4,0.2-0.6c0.5-0.7,2-0.6,2.7-0.5h0.1
	c0.6,0.1,1.2,0.4,1.6,0.8c0.4,0.3,0.7,0.6,1.2,0.6c0.4,0.1,0.9-0.1,1.3-0.3c0.8-0.3,1.6-0.6,2.4,0.1c0.5,0.4,0.6,1.1,0.5,1.5
	c-0.1,0.8-0.8,1.1-1.3,1.3l-0.3,0.1l-0.4,0.1c-0.4,0.1-1.2,0.4-1.3,0.7c-0.3,0.6-0.3,0.7-0.1,0.8c0.3,0.1,0.6,0.1,1,0s0.8-0.1,1.2,0
	c0.3,0.1,0.4,0.3,0.4,0.5l0.1,0.1l0.1,0.2c0.2,0.3,0.3,0.6,0.3,0.9c0,0.1,0,0.2,0,0.3c-0.3,0.8-1.2,0.8-1.9,0.9
	c-0.9,0.1-1.3,0.1-1.4,0.7c0,0-0.1,1.1-0.1,1.4c0.1,0.1,0.1,0.1,0.1,0.1c0.3-0.3,1.9-1.5,3-1c0-0.1,0.1-0.3,0.2-0.7
	c0.3-1.3,1.2-7.8,1.2-10.1c0-0.4,0-0.6-0.1-0.8v-0.1l0,0c0,0-0.1-0.2-0.3-0.3c-0.2-0.1-0.6-0.1-1,0.1l-0.4,0.2c-1.5,0.6-4,1.7-6,1.1
	l-0.6-0.2l0.6-0.3c0.1-0.1,6.2-3.4,7.2-4.2h0.1h0.1c0.4-0.1,1.2-0.3,1.5-0.1c0,0,2.8,2.4,2.7,2.4c0,0,1.5,0.7,0.4,3
	c0,0.1-1.6,6.2-1.7,7.6c-0.1,1.5-0.8,7.4-0.9,7.6c0,0-0.1,0.6-0.6,0.9c-0.6,0.3-1.3,0.1-2.3-0.4c-0.1,0.1-0.5,0.6-0.9,1
	c2-0.2,7.6-0.7,8.4-0.4l0.3,0.1C206.2,65.8,207.2,66,209.6,70.2L209.6,70.2z M203.2,68.2c0,0.6-0.2,1.6-1,2.8l-1.3,2.1
	c-1.9,3.1-3.3,5.6-4.2,6.4c0.3,0.1,0.6,0.2,1.5,0.2c2.1,0.1,3.6-0.3,4.3-0.8c0.9-0.7,4.2-3.8,4.2-5.7v-0.1c-0.1-1.9-1-5.1-3.8-5.6
	C203.2,67.7,203.2,68,203.2,68.2z M1780,1055.7l-0.3,0.3c-0.3-0.3-0.6-0.4-0.9-0.4c-0.4,0-0.8,0.2-0.8,0.6c0,0.4,0.2,0.5,0.9,0.8
	c0.7,0.2,1.2,0.5,1.2,1.2c0,0.7-0.5,1.2-1.4,1.2c-0.6,0-1-0.2-1.4-0.5l0.3-0.3c0.3,0.3,0.6,0.4,1.1,0.4c0.5,0,0.9-0.3,0.9-0.8
	c0-0.4-0.2-0.6-0.9-0.8c-0.8-0.2-1.2-0.5-1.2-1.2c0-0.6,0.5-1,1.3-1C1779.3,1055.3,1779.7,1055.4,1780,1055.7z M1783.1,1059.4h-0.4
	l0-0.5c-0.2,0.4-0.5,0.6-1,0.6c-0.5,0-0.9-0.3-0.9-0.9v-2.2h0.5v2.2c0,0.4,0.2,0.6,0.5,0.6c0.4,0,0.6-0.2,0.8-0.6v-2.2h0.5V1059.4z
	 M1786.4,1057.2v2.2h-0.5v-2.1c0-0.5-0.2-0.6-0.5-0.6c-0.4,0-0.6,0.2-0.8,0.6v2.2h-0.5v-3.1h0.4l0,0.5c0.2-0.3,0.6-0.5,1-0.5
	C1786.1,1056.2,1786.4,1056.6,1786.4,1057.2z M1791.3,1055.7l-0.3,0.3c-0.3-0.2-0.5-0.3-0.8-0.3c-0.6,0-1.2,0.4-1.2,1.7
	c0,1.2,0.5,1.7,1.2,1.7c0.4,0,0.6-0.2,0.9-0.3l0.3,0.3c-0.2,0.2-0.6,0.4-1.1,0.4c-1,0-1.7-0.7-1.7-2.1c0-1.4,0.8-2.1,1.7-2.1
	C1790.7,1055.3,1791,1055.4,1791.3,1055.7z M1794.2,1057.2v2.2h-0.5v-2.1c0-0.5-0.2-0.6-0.5-0.6c-0.4,0-0.6,0.2-0.8,0.6v2.2h-0.5
	v-4.3l0.5-0.1v1.7c0.2-0.3,0.5-0.5,0.9-0.5C1793.9,1056.2,1794.2,1056.6,1794.2,1057.2z M1797.5,1059.1l-0.1,0.3
	c-0.3,0-0.5-0.2-0.6-0.5c-0.2,0.3-0.5,0.5-0.9,0.5c-0.6,0-1-0.4-1-0.9c0-0.7,0.5-1,1.3-1h0.5v-0.2c0-0.5-0.2-0.6-0.7-0.6
	c-0.2,0-0.5,0.1-0.8,0.2l-0.1-0.4c0.4-0.1,0.7-0.2,1.1-0.2c0.7,0,1.1,0.4,1.1,1v1.4C1797.2,1059,1797.3,1059,1797.5,1059.1z
	 M1796.7,1058.6v-0.7h-0.4c-0.6,0-0.9,0.2-0.9,0.7c0,0.4,0.2,0.6,0.6,0.6C1796.3,1059.1,1796.5,1058.9,1796.7,1058.6z
	 M1800.5,1057.2v2.2h-0.5v-2.1c0-0.5-0.2-0.6-0.5-0.6c-0.4,0-0.6,0.2-0.8,0.6v2.2h-0.5v-3.1h0.4l0,0.5c0.2-0.3,0.6-0.5,1-0.5
	C1800.2,1056.2,1800.5,1056.6,1800.5,1057.2z M1803.9,1056.4c-0.2,0.1-0.5,0.1-0.9,0.1c0.4,0.2,0.5,0.4,0.5,0.8c0,0.6-0.4,1-1.2,1
	c-0.1,0-0.3,0-0.4-0.1c-0.1,0.1-0.2,0.2-0.2,0.3c0,0.1,0.1,0.3,0.4,0.3h0.5c0.6,0,1,0.4,1,0.8c0,0.6-0.5,0.9-1.4,0.9
	c-1,0-1.3-0.3-1.3-0.9h0.4c0,0.4,0.2,0.5,0.9,0.5c0.7,0,0.9-0.2,0.9-0.5c0-0.3-0.2-0.5-0.6-0.5h-0.5c-0.5,0-0.8-0.3-0.8-0.6
	c0-0.2,0.1-0.4,0.3-0.5c-0.4-0.2-0.5-0.5-0.5-0.9c0-0.6,0.5-1.1,1.2-1.1c0.8,0,1.1-0.1,1.4-0.3L1803.9,1056.4z M1801.7,1057.3
	c0,0.4,0.2,0.7,0.7,0.7c0.4,0,0.7-0.3,0.7-0.7c0-0.5-0.2-0.7-0.7-0.7C1802,1056.6,1801.7,1056.9,1801.7,1057.3z M1806.6,1058h-2
	c0,0.7,0.4,1,0.9,1c0.3,0,0.5-0.1,0.8-0.3l0.2,0.3c-0.3,0.2-0.6,0.4-1.1,0.4c-0.8,0-1.4-0.6-1.4-1.6c0-1,0.5-1.6,1.3-1.6
	c0.8,0,1.3,0.6,1.3,1.5C1806.6,1057.8,1806.6,1057.9,1806.6,1058z M1806.1,1057.6c0-0.6-0.2-1-0.8-1c-0.4,0-0.7,0.3-0.8,1
	L1806.1,1057.6L1806.1,1057.6z M1809.3,1059.4h-0.5v-4h0.5V1059.4z M1812.7,1057.2v2.2h-0.5v-2.1c0-0.5-0.2-0.6-0.5-0.6
	c-0.4,0-0.6,0.2-0.8,0.6v2.2h-0.5v-3.1h0.4l0,0.5c0.2-0.3,0.6-0.5,1-0.5C1812.4,1056.2,1812.7,1056.6,1812.7,1057.2z M1815.2,1059.2
	c-0.2,0.1-0.4,0.2-0.7,0.2c-0.5,0-0.8-0.3-0.8-0.9v-1.9h-0.5v-0.4h0.5v-0.7l0.5,0v0.8h0.7l-0.1,0.4h-0.7v1.9c0,0.3,0.1,0.5,0.4,0.5
	c0.1,0,0.3,0,0.4-0.1L1815.2,1059.2z M1817.8,1058h-2c0,0.7,0.4,1,0.9,1c0.3,0,0.5-0.1,0.8-0.3l0.2,0.3c-0.3,0.2-0.6,0.4-1.1,0.4
	c-0.9,0-1.4-0.6-1.4-1.6c0-1,0.5-1.6,1.3-1.6c0.8,0,1.3,0.6,1.3,1.5C1817.8,1057.8,1817.8,1057.9,1817.8,1058z M1817.4,1057.6
	c0-0.6-0.2-1-0.8-1c-0.4,0-0.7,0.3-0.8,1L1817.4,1057.6L1817.4,1057.6z M1820.2,1056.2l-0.1,0.5c-0.1,0-0.2,0-0.3,0
	c-0.4,0-0.6,0.3-0.8,0.9v1.8h-0.5v-3.1h0.4l0,0.6c0.2-0.5,0.5-0.7,0.8-0.7C1820,1056.2,1820.1,1056.2,1820.2,1056.2z M1823,1057.2
	v2.2h-0.5v-2.1c0-0.5-0.2-0.6-0.5-0.6c-0.4,0-0.6,0.2-0.8,0.6v2.2h-0.5v-3.1h0.4l0,0.5c0.2-0.3,0.6-0.5,1-0.5
	C1822.7,1056.2,1823,1056.6,1823,1057.2z M1826.2,1059.1l-0.1,0.3c-0.3,0-0.5-0.2-0.6-0.5c-0.2,0.3-0.5,0.5-0.9,0.5
	c-0.6,0-1-0.4-1-0.9c0-0.7,0.5-1,1.3-1h0.5v-0.2c0-0.5-0.2-0.6-0.7-0.6c-0.2,0-0.5,0.1-0.8,0.2l-0.1-0.4c0.4-0.1,0.7-0.2,1.1-0.2
	c0.7,0,1.1,0.4,1.1,1v1.4C1826,1059,1826.1,1059,1826.2,1059.1z M1825.5,1058.6v-0.7h-0.4c-0.6,0-0.9,0.2-0.9,0.7
	c0,0.4,0.2,0.6,0.6,0.6C1825.1,1059.1,1825.3,1058.9,1825.5,1058.6z M1828.4,1059.2c-0.2,0.1-0.4,0.2-0.7,0.2
	c-0.5,0-0.8-0.3-0.8-0.9v-1.9h-0.5v-0.4h0.5v-0.7l0.5,0v0.8h0.7l-0.1,0.4h-0.7v1.9c0,0.3,0.1,0.5,0.4,0.5c0.1,0,0.3,0,0.4-0.1
	L1828.4,1059.2z M1829.5,1055.2c0,0.2-0.1,0.3-0.4,0.3c-0.2,0-0.3-0.1-0.3-0.3c0-0.2,0.1-0.3,0.3-0.3
	C1829.3,1054.8,1829.5,1055,1829.5,1055.2z M1829.3,1059.4h-0.5v-3.1h0.5V1059.4z M1832.8,1057.8c0,1-0.5,1.6-1.4,1.6
	c-0.9,0-1.4-0.6-1.4-1.6c0-1,0.5-1.6,1.4-1.6C1832.4,1056.2,1832.8,1056.8,1832.8,1057.8z M1830.7,1057.8c0,0.8,0.3,1.2,0.8,1.2
	c0.5,0,0.8-0.4,0.8-1.2c0-0.8-0.3-1.2-0.8-1.2C1831,1056.6,1830.7,1057,1830.7,1057.8z M1835.9,1057.2v2.2h-0.5v-2.1
	c0-0.5-0.2-0.6-0.5-0.6c-0.4,0-0.6,0.2-0.8,0.6v2.2h-0.5v-3.1h0.4l0,0.5c0.2-0.3,0.6-0.5,1-0.5
	C1835.6,1056.2,1835.9,1056.6,1835.9,1057.2z M1839.2,1059.1l-0.1,0.3c-0.3,0-0.5-0.2-0.6-0.5c-0.2,0.3-0.5,0.5-0.9,0.5
	c-0.6,0-1-0.4-1-0.9c0-0.7,0.5-1,1.3-1h0.5v-0.2c0-0.5-0.2-0.6-0.7-0.6c-0.2,0-0.5,0.1-0.8,0.2l-0.1-0.4c0.4-0.1,0.7-0.2,1.1-0.2
	c0.7,0,1.1,0.4,1.1,1v1.4C1838.9,1059,1839,1059,1839.2,1059.1z M1838.4,1058.6v-0.7h-0.4c-0.6,0-0.9,0.2-0.9,0.7
	c0,0.4,0.2,0.6,0.6,0.6C1838,1059.1,1838.2,1058.9,1838.4,1058.6z M1839.9,1058.8v-3.8l0.5-0.1v3.8c0,0.2,0.1,0.3,0.2,0.3
	c0.1,0,0.1,0,0.2,0l0.1,0.3c-0.1,0.1-0.3,0.1-0.4,0.1C1840.1,1059.5,1839.9,1059.2,1839.9,1058.8z M1843.5,1058.9h1.7l-0.1,0.4h-2.1
	v-4h0.5V1058.9z M1846.3,1055.2c0,0.2-0.1,0.3-0.4,0.3c-0.2,0-0.3-0.1-0.3-0.3c0-0.2,0.1-0.3,0.3-0.3
	C1846.1,1054.8,1846.3,1055,1846.3,1055.2z M1846.2,1059.4h-0.5v-3.1h0.5V1059.4z M1851.1,1057.2v2.2h-0.5v-2.1
	c0-0.5-0.2-0.6-0.5-0.6c-0.3,0-0.5,0.2-0.8,0.6v2.2h-0.5v-2.1c0-0.5-0.2-0.6-0.5-0.6c-0.3,0-0.6,0.2-0.8,0.6v2.2h-0.5v-3.1h0.4
	l0,0.5c0.2-0.3,0.5-0.5,0.9-0.5c0.4,0,0.7,0.2,0.8,0.6c0.2-0.3,0.5-0.6,0.9-0.6C1850.8,1056.2,1851.1,1056.6,1851.1,1057.2z
	 M1852.6,1055.2c0,0.2-0.1,0.3-0.4,0.3c-0.2,0-0.3-0.1-0.3-0.3c0-0.2,0.1-0.3,0.3-0.3C1852.5,1054.8,1852.6,1055,1852.6,1055.2z
	 M1852.5,1059.4h-0.5v-3.1h0.5V1059.4z M1855.1,1059.2c-0.2,0.1-0.4,0.2-0.7,0.2c-0.5,0-0.8-0.3-0.8-0.9v-1.9h-0.5v-0.4h0.5v-0.7
	l0.5,0v0.8h0.7l-0.1,0.4h-0.7v1.9c0,0.3,0.1,0.5,0.4,0.5c0.1,0,0.3,0,0.4-0.1L1855.1,1059.2z M1857.7,1058h-2c0,0.7,0.4,1,0.9,1
	c0.3,0,0.5-0.1,0.8-0.3l0.2,0.3c-0.3,0.2-0.6,0.4-1.1,0.4c-0.9,0-1.4-0.6-1.4-1.6c0-1,0.5-1.6,1.3-1.6c0.8,0,1.3,0.6,1.3,1.5
	C1857.7,1057.8,1857.7,1057.9,1857.7,1058z M1857.2,1057.6c0-0.6-0.2-1-0.8-1c-0.4,0-0.7,0.3-0.8,1L1857.2,1057.6L1857.2,1057.6z
	 M1860.8,1055v4.3h-0.4l-0.1-0.4c-0.2,0.3-0.5,0.5-0.9,0.5c-0.8,0-1.2-0.6-1.2-1.6c0-0.9,0.5-1.6,1.2-1.6c0.4,0,0.6,0.2,0.8,0.4
	v-1.6L1860.8,1055z M1860.3,1058.6v-1.5c-0.2-0.3-0.4-0.4-0.7-0.4c-0.5,0-0.8,0.4-0.8,1.2c0,0.8,0.3,1.2,0.7,1.2
	C1859.9,1059.1,1860.1,1058.9,1860.3,1058.6z M1865.3,1056.5l-0.2,0.3c-0.2-0.2-0.4-0.2-0.7-0.2c-0.5,0-0.8,0.4-0.8,1.2
	c0,0.8,0.3,1.2,0.8,1.2c0.3,0,0.5-0.1,0.7-0.2l0.2,0.3c-0.3,0.2-0.6,0.3-0.9,0.3c-0.8,0-1.3-0.6-1.3-1.6c0-1,0.5-1.6,1.3-1.6
	C1864.7,1056.2,1865,1056.3,1865.3,1056.5z M1868.3,1057.8c0,1-0.5,1.6-1.4,1.6s-1.4-0.6-1.4-1.6c0-1,0.5-1.6,1.4-1.6
	C1867.8,1056.2,1868.3,1056.8,1868.3,1057.8z M1866.1,1057.8c0,0.8,0.3,1.2,0.8,1.2c0.5,0,0.8-0.4,0.8-1.2c0-0.8-0.3-1.2-0.8-1.2
	C1866.4,1056.6,1866.1,1057,1866.1,1057.8z M1872.9,1057.2v2.2h-0.5v-2.1c0-0.5-0.2-0.6-0.5-0.6c-0.3,0-0.5,0.2-0.8,0.6v2.2h-0.5
	v-2.1c0-0.5-0.2-0.6-0.5-0.6c-0.3,0-0.6,0.2-0.8,0.6v2.2h-0.5v-3.1h0.4l0,0.5c0.2-0.3,0.5-0.5,0.9-0.5c0.4,0,0.7,0.2,0.8,0.6
	c0.2-0.3,0.5-0.6,0.9-0.6C1872.6,1056.2,1872.9,1056.6,1872.9,1057.2z M1876.4,1057.8c0,0.9-0.4,1.6-1.2,1.6c-0.4,0-0.6-0.1-0.8-0.4
	v1.5l-0.5,0.1v-4.3h0.4l0,0.4c0.2-0.3,0.6-0.5,0.9-0.5C1876.1,1056.2,1876.4,1056.8,1876.4,1057.8z M1875.9,1057.8
	c0-0.8-0.2-1.2-0.7-1.2c-0.3,0-0.6,0.2-0.8,0.5v1.5c0.2,0.3,0.4,0.4,0.7,0.4C1875.6,1059,1875.9,1058.7,1875.9,1057.8z
	 M1879.4,1059.1l-0.1,0.3c-0.3,0-0.5-0.2-0.6-0.5c-0.2,0.3-0.5,0.5-0.9,0.5c-0.6,0-1-0.4-1-0.9c0-0.7,0.5-1,1.3-1h0.5v-0.2
	c0-0.5-0.2-0.6-0.7-0.6c-0.2,0-0.5,0.1-0.8,0.2l-0.1-0.4c0.4-0.1,0.7-0.2,1.1-0.2c0.7,0,1.1,0.4,1.1,1v1.4
	C1879.1,1059,1879.2,1059,1879.4,1059.1z M1878.6,1058.6v-0.7h-0.4c-0.6,0-0.9,0.2-0.9,0.7c0,0.4,0.2,0.6,0.6,0.6
	C1878.2,1059.1,1878.5,1058.9,1878.6,1058.6z M1882.4,1057.2v2.2h-0.5v-2.1c0-0.5-0.2-0.6-0.5-0.6c-0.4,0-0.6,0.2-0.8,0.6v2.2h-0.5
	v-3.1h0.4l0,0.5c0.2-0.3,0.6-0.5,1-0.5C1882.1,1056.2,1882.4,1056.6,1882.4,1057.2z M1884.6,1059.4c-0.2,0.7-0.6,1.1-1.4,1.2
	l-0.1-0.4c0.6-0.1,0.8-0.4,1-0.9h-0.2l-1-3.1h0.5l0.9,2.7l0.8-2.7h0.5L1884.6,1059.4z M1789,1050.5h-11.7v-1.6h4.6v-10h1.7v3.7h4.5
	v1.6h-4.5v4.6h5.4V1050.5z M1802.3,1051.2c-2.8-0.6-4.5-2.1-5.4-4.3h-0.8v2.2c0.6,0,1.4-0.1,2-0.2l0.1,1.3l-0.1,0
	c-0.1,0-0.1,0-0.2,0l-0.1,0c-0.3,0.1-0.6,0.1-0.8,0.1l-0.1,0l-0.2,0c-1,0.2-2.1,0.3-2.9,0.4l-0.2-1.4c0.3,0,0.6-0.1,1-0.1l0.1,0
	c0.1,0,0.1,0,0.1,0v-2.4h-0.9c-0.2,1.4-0.8,3.1-1.7,4.3l-1.2-0.9c1.4-1.6,1.6-4.4,1.6-6v-1.9h-1.1v-2.6h4.8v-1h1.5v1h4.8v2.6h-1v0.8
	h-7.6v1.1c0,0.4,0,0.9,0,1.4h8.6v1.3h-1.3l1,0.8c-0.6,0.4-1.5,0.8-2.1,1.1c0.7,0.4,1.8,0.8,2.6,1L1802.3,1051.2z M1801.1,1041.9
	v-0.8h-8.2v0.8H1801.1z M1801.2,1045h-6.7v-1.1h6.7V1045z M1799.2,1048.1c0.5-0.3,1.3-0.8,1.7-1.2h-2.5
	C1798.7,1047.4,1798.9,1047.8,1799.2,1048.1z M1816.4,1050.8h-10.9v-11.4h10.9V1050.8z M1814.9,1049.4v-8.6h-1.6
	c0.4,0.2,0.9,0.5,1.1,0.8l-0.5,0.5h0.6v1.1h-2.2c0.1,0.7,0.1,1.5,0.1,2c0.3-0.5,0.4-1.1,0.6-1.7l1.2,0.2c-0.3,1.1-0.7,2.2-1.3,3
	c0.2,0.4,0.3,0.7,0.5,0.7c0.1,0.1,0.3-0.5,0.3-1l1,0.3c-0.2,1.8-1,2.3-1.8,1.9c-0.4-0.1-0.6-0.5-0.9-0.9c-0.4,0.4-0.9,0.8-1.4,1.2
	l-0.7-1.1c0,0,0.2-0.1,0.3-0.2c-0.1,0-0.2,0-0.3,0l-0.1,0c-0.1,0-0.3,0-0.4,0.1l-0.1,0c-0.6,0.1-1.3,0.2-1.8,0.3l-0.1-1.1
	c0.7-0.1,1.6-0.2,2.6-0.3l0.1,0c0,0,0.1,0,0.1,0l0.1,0c0,0,0,0,0.1,0l0.3,0c0.1,0,0.1,0,0.2,0l0,0.7c0.2-0.2,0.5-0.4,0.6-0.7
	c-0.2-0.7-0.4-1.6-0.5-2.6l0-0.1c0-0.3-0.1-0.5-0.1-0.8h-3.5v-1.1h3.4c0-0.3,0-0.8-0.1-1.1h1.3c0,0.4,0,0.8,0.1,1.1h1.3
	c-0.3-0.2-0.7-0.5-1-0.7l0.6-0.6h-6.1v8.6H1814.9z M1810.6,1046.2h-2.8v-2.5h2.8V1046.2z M1809.5,1045.4v-0.9h-0.8v0.9H1809.5z
	 M1827.9,1040.8v-1.1h1.7l0.3-0.1l0.8,0.5c-0.3,1-1,2.3-1.5,3c0.5,0.6,1.2,1.1,1.7,1.4l-0.7,1.3c-0.6-0.3-1.2-0.7-1.6-1.2v0.7h-4.2
	v-0.6c-0.4,0.4-0.9,0.8-1.3,1c-0.2-0.3-0.3-0.7-0.6-0.9c0.1,0.5,0.2,1.2,0.2,1.6c0,0.8-0.2,1.5-0.5,1.7c-0.2,0.1-0.4,0.2-0.6,0.3
	c-0.2,0-0.4,0-0.7,0c0-0.3-0.1-0.9-0.3-1.2v3.9h-1.3v-11.8h2.5l0.2-0.1l0.9,0.5c-0.1,0.4-0.2,0.8-0.3,1.2l0,0.1
	c0,0.2-0.1,0.4-0.1,0.6c0.7-0.8,1.2-1.9,1.5-2.9l1.2,0.3c-0.1,0.2-0.2,0.5-0.3,0.7h0.8l0.2,0l0.3,0.1c-0.1-0.2-0.1-0.4-0.2-0.6
	l1.2-0.2C1827.5,1039.6,1827.7,1040.3,1827.9,1040.8z M1821.1,1047.2c0.1,0,0.2,0,0.3-0.1c0.1-0.1,0.2-0.5,0.2-0.9
	c0-0.6-0.1-1.6-0.7-2.6c0.1-0.4,0.2-0.9,0.3-1.4l0-0.1c0.1-0.5,0.2-1,0.3-1.4h-0.7v6.5C1820.9,1047.2,1821,1047.2,1821.1,1047.2z
	 M1822.5,1044.7c0.4-0.2,0.8-0.6,1.2-1l0.1-0.1c0,0,0,0,0.1-0.1c-0.2-0.2-0.5-0.5-0.8-0.7c-0.1,0.1-0.2,0.2-0.3,0.3
	c-0.1-0.1-0.2-0.3-0.5-0.5c-0.1,0.3-0.2,0.7-0.3,0.9C1822.2,1043.9,1822.4,1044.4,1822.5,1044.7z M1823.4,1050.8
	c-0.3-0.2-0.8-0.6-1.1-0.7c0.5-0.5,1-1.4,1.3-2.2l1.3,0.3C1824.7,1049.1,1824,1050.2,1823.4,1050.8z M1824.9,1051.2l-0.1-1.3
	c0.2,0,0.6,0,0.8,0h0.1c0.1,0,0.1-0.1,0.1-0.2v-2.3h-2.6v-1.3h6.6v1.3h-2.6v2.3c0,0.6,0,1-0.5,1.2
	C1826.4,1051.1,1825.8,1051.2,1824.9,1051.2z M1824.4,1042.8c0.1-0.1,0.2-0.3,0.3-0.4c-0.2-0.2-0.5-0.4-0.8-0.6
	c-0.1,0.1-0.2,0.3-0.3,0.4C1823.9,1042.4,1824.2,1042.6,1824.4,1042.8z M1825.1,1041.6c0.1-0.2,0.2-0.5,0.3-0.8h-0.9
	c-0.1,0.1-0.1,0.2-0.2,0.3C1824.6,1041.2,1824.9,1041.4,1825.1,1041.6z M1828.2,1044.1c-0.6-0.8-1.2-2.1-1.6-3.2
	c-0.3,1.2-0.8,2.4-1.4,3.2H1828.2z M1828.5,1042.1c0.2-0.4,0.5-0.8,0.6-1.3h-1.2C1828.1,1041.3,1828.3,1041.7,1828.5,1042.1z
	 M1829.4,1050.8c-0.3-0.6-1-1.7-1.5-2.4l1.2-0.6c0.6,0.6,1.4,1.7,1.6,2.3L1829.4,1050.8z M1839.9,1051.1l-0.1-1.5c0.4,0,1,0,1.3,0
	h0.1c0.2,0,0.3-0.1,0.3-0.3v-0.8h-4.5v2.6h-1.5v-5.8c-0.5,0.6-1.1,1.1-1.8,1.6l-0.9-1.3c1.3-0.8,2.5-2.4,3.2-3.8h-2.9v-1.5h3.5
	c0.2-0.5,0.4-1.1,0.4-1.6l1.6,0.4c-0.1,0.4-0.3,0.8-0.4,1.2h6.3v1.5h-6.9c-0.1,0.3-0.2,0.7-0.4,1h5.8v6.6c0,0.7-0.2,1.2-0.7,1.4
	C1841.8,1051.1,1841,1051.1,1839.9,1051.1z M1841.5,1045.1v-0.9h-4.5v0.9H1841.5z M1841.5,1047.3v-0.9h-4.5v0.9H1841.5z
	 M1848.7,1051.2h-1.4v-11.8h3.1l0.2-0.1l1,0.6c-0.2,0.5-0.4,1.1-0.5,1.7l0,0.1l0,0.1c-0.2,0.6-0.4,1.2-0.6,1.6c0.8,1,1,2,1,2.7
	c0,0.8-0.2,1.4-0.6,1.7c-0.2,0.2-0.5,0.3-0.8,0.3c-0.3,0-0.6,0-1,0l-0.1-1.4c0.1,0,0.2,0,0.3,0h0.1c0.1,0,0.3,0,0.4-0.1
	c0.1-0.1,0.2-0.4,0.2-0.8c0-0.6-0.2-1.5-1-2.3c0.1-0.4,0.2-0.8,0.4-1.3l0-0.1c0.1-0.5,0.3-1.1,0.4-1.5h-1.2V1051.2z M1857.8,1051.2
	c-1.9-1-3-3.3-3.5-5.7h-0.9v3.5c0.4-0.1,0.8-0.2,1.1-0.3l0.1,0c0.2,0,0.3-0.1,0.5-0.1l0.1,1.4c-0.2,0-0.4,0.1-0.6,0.1l-0.1,0l-0.1,0
	c-0.1,0-0.2,0-0.3,0.1l-0.3,0.1l-0.1,0c-0.1,0-0.2,0.1-0.3,0.1l-0.1,0c-0.8,0.2-1.6,0.4-2.2,0.5l-0.5-1.5c0.4,0,0.9-0.1,1.4-0.2
	v-9.8h6v6.1h-2.3c0.1,0.5,0.3,1,0.5,1.4c0.4-0.4,0.9-1,1.2-1.3l1.2,0.9c-0.5,0.5-1.3,1.1-1.8,1.5c0.5,0.7,1.3,1.4,2,1.7
	L1857.8,1051.2z M1856.3,1041.8v-1h-2.9v1H1856.3z M1856.3,1044.1v-1.1h-2.9v1.1H1856.3z M1861.7,1045.4l-1.1-1.2
	c1-0.7,2.1-2.3,2.6-3.4l1.7,0.5C1864.3,1042.7,1863,1044.4,1861.7,1045.4z M1870.8,1051.2c-0.1-0.3-0.3-0.7-0.5-1.1
	c-0.4,0-0.8,0.1-1.2,0.1l-0.1,0h-0.1h-0.1c-0.1,0-0.1,0-0.1,0l-0.1,0l-0.5,0l-0.1,0h-0.1c-0.1,0-0.1,0-0.2,0l-0.1,0h-0.1l-0.2,0
	c-0.1,0-0.2,0-0.3,0h-0.1c-0.1,0-0.3,0-0.4,0h-0.1l-0.1,0h-0.1h-0.1c-0.1,0-0.2,0-0.3,0l-0.1,0c-0.2,0-0.5,0-0.7,0l-0.1,0
	c-0.1,0-0.2,0-0.3,0h-0.1c-1,0-1.9,0.1-2.6,0.1l-0.2-1.6c0.4,0,0.9,0,1.5,0h0.1c0.1,0,0.2,0,0.3,0c0.3-0.6,0.6-1.3,0.9-2l0.1-0.1
	c0.4-1.1,0.8-2.3,1.1-3.3l1.9,0.5c-0.3,0.6-0.5,1.2-0.8,1.9l-0.1,0.1c0,0,0,0.1-0.1,0.1l-0.1,0.1c0,0,0,0.1,0,0.1l-0.1,0.1
	c-0.4,0.9-0.8,1.7-1.2,2.4c0.2,0,0.3,0,0.5,0h0.1c0,0,0.1,0,0.1,0h0.1c0.2,0,0.3,0,0.5,0h0.1c0,0,0,0,0.1,0h0.1c0.1,0,0.1,0,0.2,0
	h0.1c0,0,0.1,0,0.1,0h0.1h0.1c0.1,0,0.1,0,0.2,0h0.1c0.1,0,0.1,0,0.2,0h0.1c0,0,0.1,0,0.1,0h0.2c0.1,0,0.2,0,0.3,0h0.2
	c0.1,0,0.2,0,0.3,0l0.2,0c-0.5-0.7-1-1.5-1.5-2.2l1.5-0.7c1.1,1.3,2.5,3.4,3.1,4.6L1870.8,1051.2z M1871.4,1045.1
	c-1.3-1.1-2.5-2.8-3.2-4.3h-3.9v-1.5h5c0.6,1.6,2.1,3.6,3.3,4.5L1871.4,1045.1z M1882.2,1051.1l-0.1-1.7c0.5,0,1.4,0,1.6,0
	c0.2,0,0.3-0.1,0.3-0.3v-8.1h-8.9v-1.5h10.5v9.5c0,0.8-0.2,1.4-0.7,1.7C1884.4,1051.1,1883.5,1051.1,1882.2,1051.1z M1882.8,1043.4
	h-7.5v-1.4h7.5V1043.4z M1882.1,1049h-6.2v-4.7h6.2V1049z M1880.6,1047.7v-2.1h-3.2v2.1H1880.6z"/>
</svg>
