<svg viewBox="0 0 117 446" xmlns="http://www.w3.org/2000/svg">
<path d="M77.3,35.9C89.1,27.7,93.1,13.9,92.4,0c2.5,0.4,10.5,0.5,5.3,2.4c-0.5,11.8,6.2,24.7,18.2,27.9l0,0.4
	c-2.1,0.7-3,1.7-4.2,4.3c-0.2,0.4-0.3,0.5-0.5,0.5c-9.2-5-13.5-17.9-14-29.2c-0.7,14.5-6.7,24.5-19.7,30L77.3,35.9L77.3,35.9z
	 M94.4,58c0-2.7,0.1-7.6-0.3-10c7.3,0.6,8.5,1,5,2.5V58h5.8c1.3-1.7,1.8-2.2,3.2-3.9c2.2,1.8,3.4,2.4,5.3,4.5c0,0.2-0.2,0.3-0.5,0.3
	H99.1v10.4h5.1c1.3-1.6,1.8-2.1,3.1-3.8c0.5,0.6,6.6,4.7,4.6,4.6c0,0-12.9,0-12.9,0v12.2h7.4c1.4-1.7,1.9-2.2,3.4-3.9
	c0.5,0.6,6.9,4.9,4.9,4.7c-1.7,0.1-35.9-0.3-36.6,0.3l-0.2-1.5c2.3,0.7,13.9,0.3,16.5,0.4V70c-2,0.1-9.3-0.2-11.1,0.2l-0.2-1.4
	c1.9,0.5,9.2,0.2,11.3,0.3V58.8h-7.2c-3.4,5.3-4.7,6.8-8.7,10.2l-0.4-0.4c3.6-5.4,6.6-12.5,7.1-18.6c6,1.6,6.8,1.9,6.8,2.4
	c0,0.5-0.6,0.7-2,0.9c-1.1,2.3-1.5,3.2-2.3,4.7L94.4,58L94.4,58z M108.6,106.9c0.9-1.1,1.2-1.3,2.1-2.4c1.4,1,1.8,1.3,3.1,2.3
	c0.4,0.4,0.6,0.6,0.6,0.8c0,0.3-0.3,0.6-1.4,1.1c-0.1,4.3,0.1,6.8,0.1,12.2c0.5,0.6,4,2.9,2.8,3.1c0,0-12.8,0-12.8,0
	c3.3,4.1,6.9,4.5,12.8,5.1v0.5c-1.6,0.6-2.4,2.4-2.9,4c-0.1,0.4-0.2,0.5-0.5,0.5c-4-1.1-9-5.4-10.1-10.1h-0.2
	c-2,5.9-6.7,9.2-15.2,10.6l-0.2-0.5c6.3-2.5,9.4-5.4,11.2-10.2c-2.1,0.1-8-0.2-10,0.2l-0.2-1.4c1.9,0.6,8.4,0.3,10.5,0.3
	c0.4-1.7,0.5-3,0.5-4.3c2.4,0.4,9,0.6,4.2,2.1c-0.2,1.2-0.3,1.5-0.5,2.3h7.6l1.3-1.5c-0.9,0-2.3,0.3-2.2-0.7c0,0,0-3.2,0-3.2
	c-2.6-0.1-6.8,0.7-6.3-2c0,0,0-8.1,0-8.1h-2.1c-0.2,6.8-1.4,9.2-6.2,11.8l-0.1-0.2c0,2.3,0.5,2.7-2.6,2.7c-1.2,0-1.3-0.1-1.4-0.8
	l0.1-7.5c-2.2,1.8-2.6,2.1-4.3,3.2v7.5c0,1.2,0,3.3,0,6.4c0,1.6-0.5,2.5-1.7,3.1c-0.8,0.5-2.2,0.8-3.3,0.8c-0.6,0-0.7-0.1-0.7-1.1
	c-0.6-2.6-0.8-2.3-3.9-3.5v-0.5c2.6,0.2,3.1,0.2,4.9,0.3c0.3,0,0.4-0.1,0.4-0.6v-10c-0.8,0.5-0.8,0.5-2.3,1.3
	c-0.2,1.2-0.4,1.6-0.7,1.6c-0.4,0-0.5-0.4-2.2-5.7c1.8-0.2,2.7-0.4,5.2-1v-8.8c-1.5,0-3.3-0.1-4.8,0.3l-0.2-1.5
	c1.7,0.4,3.4,0.3,5,0.3c0-2.6,0.1-7.3-0.3-9.1c4.9,0.4,5.2,0.4,5.6,0.6c1.2,0.5,0.4,1.1-1,1.6v6.9h0.4c0.8-1.1,1-1.5,1.9-2.6
	c1.2,1.2,1.4,1.4,2.6,2.8c1.9-3.4,3.1-6.3,3.7-9.5c2.3,0.5,9.6,1.5,4.3,2.6c-0.5,0.9-0.7,1.1-1,1.8h4.7c1.1-1.1,1.4-1.4,2.5-2.5
	c1.2,1.3,7.5,4.5,2.2,4.3c-2,1.7-2.7,2.3-5.4,4L108.6,106.9L108.6,106.9z M86.1,114.7c2.9-0.9,3.1-0.9,4.3-1.5c0-0.6,0-1.9,0-3.8
	c-1,0.7-1.3,1-2.6,1.8l-0.3-0.3c1.5-1.8,2-2.6,3-4h-4.5V114.7z M100.7,106.9c0.7-1.4,1.3-2.8,2-5h-5.4c-0.9,1.4-2.5,3.4-3.6,4.6
	l0.6,0.4H100.7z M94.3,119.2c2.8-3.9,2.6-6,2.7-11.5h-2.7V119.2z M106.3,114.5c-0.1,0.9,2.5,0.3,2.7,0.4v-7.2h-2.7V114.5z
	 M108.2,166.3c1.2-1.3,1.6-1.8,2.8-3.1c0.5,0.6,5.8,4,3.8,4c0,0-13.8,0-13.8,0c4.8,3.7,8.1,3.9,15,4.3v0.5c-4.7,2.6,0.8,6.3-7.9,2.2
	c-0.2,4.5,1.7,8.1-4.8,8.3c-0.5,0-0.6,0-0.7-0.8c-0.2-1.5-1.2-2.3-3.6-2.9v-0.5c2.6,0.2,2.7,0.2,4.3,0.2c0.4,0,0.6-0.1,0.6-0.6
	c0,0,0-4.8,0-4.8H98c0,5.4,0,6.1,0.1,9.7c-0.1,1.4-1.2,1-2.9,1.2c-1.4,0-1.6-0.1-1.6-0.8c0.1-2.4,0.1-5.8,0.1-10h-5.6
	c0,0.8,0,6,0,6.7c0,2.1,0.6,2.9-2.5,2.8c-1.6,0-1.8-0.1-1.8-0.8c0.1-4.6,0.1-5.1,0.1-8.4c-2.2,1.1-3.6,1.6-7,2.7l-0.2-0.4
	c4.9-2.7,7.9-5,11.1-8.6c-2.2,0.1-8-0.2-10.1,0.3l-0.3-1.5c2.1,0.6,8.9,0.3,11.2,0.4c0.8-1,1.2-1.5,2.2-3.1h-3.4
	c0.1,1.4-0.1,1.5-2.7,1.5c-1.3,0-1.6-0.1-1.6-0.7c0.1-4.9,0.2-8.4,0-11.8c2.1,0.8,2.7,1.1,4.8,2h16.2c0.8-0.7,1.5-1.4,2.2-2.2
	c1.4,0.9,1.8,1.2,3.1,2.2c0.9,0.8,0.4,1-0.9,1.6v2.4c0,2.9,0,3.3,0.1,5.4c0,0.5-0.1,0.7-0.5,0.8c-0.3,0.1-3.9,0.9-3.8-0.4
	c0,0,0-0.8,0-0.8h-8.5c-1.2,1.6-1.5,2.1-2.4,3.1C93.5,166.3,108.2,166.3,108.2,166.3z M87.9,149.6c0-1.3,0-2.4-0.1-3.8
	c4.8,0.4,5.2,0.4,5.7,0.6c1.1,0.5,0.3,1-1.2,1.4v1.8h7.2c0-1.4,0-2-0.1-3.7c2.3,0.2,9.3,0.4,4.4,2v1.8h4.1c1.2-1.4,1.6-1.7,2.9-3
	c2,1.3,2.5,1.8,4.4,3.2c0.5,0.4,0.4,0.6-0.3,0.7c0,0-11.1,0-11.1,0c-0.1,2.1,0.9,2.8-3,2.7c-1.1,0-1.3-0.2-1.3-0.8v-1.9h-7.2
	c0,1.9,0.7,2.7-2.9,2.6c-1.2,0-1.5-0.1-1.5-0.7c0-0.9,0-1.2,0-1.8c-2.1,0.1-7.9-0.2-9.9,0.2l-0.2-1.5
	C80.1,149.8,85.6,149.5,87.9,149.6L87.9,149.6z M92.6,167.1c-1.7,1.8-3.4,3.2-5.4,4.5c0.4,0.2,0.6,0.3,1.2,0.6h5.4
	c0-1.9,0-2.3-0.2-3.9c4.6,0.5,8.1,0.8,4.4,1.9v2h5.7c0.3-0.2,0.4-0.3,0.6-0.6c-2-1.6-2.7-2.4-4.3-4.6L92.6,167.1L92.6,167.1z
	 M104.3,155H87.6v3.2h16.8V155z M87.6,159.1v3.2h16.8v-3.2H87.6z M76.6,237.2c4.1-5.9,7-13.4,8.1-20.4c2,0.5,7.3,1.3,6.7,2
	c0,0.4-0.9,0.7-2.1,0.8c-1.7,4.2-2.8,6.4-5,9.8c0.8,0.2,6,0.8,2,2.1c0,5.1,0.1,16.5,0.2,21.7c0,0.6-0.2,0.9-0.6,1
	c-0.3,0.1-4.4,1.1-4.1-0.6c0.3-9.1,0.2-13.2,0.2-21c-1.3,1.7-2.6,3-5,5L76.6,237.2L76.6,237.2z M92.9,221.9c-0.7,0-1.3,0-2.7,0.3
	l-0.2-1.5c2.1,0.6,15.8,0.2,18.2,0.3c1.4-1.5,1.8-2,3.1-3.5c1.9,1.7,3,2.2,4.7,4.1c0.1,0.5-3.8,0.2-4.1,0.3v16.2
	c0,2.7,0,5.2,0.2,11.5c0,3.4-1.7,4.2-4.8,4.7c-4.2,0.8,1.6-2.5-8.1-4.6l0-0.5c3.4,0.2,4.4,0.3,7.5,0.4c0.6,0,0.8-0.2,0.8-0.7v-26.8
	L92.9,221.9L92.9,221.9z M90.1,244.6c0.1-8.4,0.3-12.2,0-18.6c2,0.9,2.5,1.2,4.4,2.3h4.9c0.9-1.1,1.1-1.4,2-2.4
	c0.8,0.7,4.9,2.6,3.3,3.6c-0.1,0.1-0.7,0.4-1,0.6c-0.1,5.4,0,7.2,0.1,13.1c0,0.9-0.5,1.1-2.2,1.1c-1.8,0-2.1-0.1-2.1-0.9v-1.9h-5.2
	c-0.1,0.5,0.3,3.3-0.2,3.6c-0.3,0.3-1.1,0.5-2.4,0.5C90.2,245.7,90,245.5,90.1,244.6L90.1,244.6z M94.3,240.7h5.2v-11.5h-5.2V240.7z
	 M76.6,301.2c5.4-4.4,9.1-8.3,11.5-14c3.2,1.7,4.3,1.6,5.2,3c0,0.7-1.1,0.6-1.8,0.5c-4.8,5.8-6.8,7.2-14.7,10.8L76.6,301.2z
	 M77.1,288.3c4.3-2.7,8.8-7.4,11-11.7c2,1.1,8.2,3.9,3.3,3.8c-4.8,4.3-7.7,6.1-14.1,8.4L77.1,288.3L77.1,288.3z M77.2,277.7
	c4.4-3.6,7.5-6.6,9.8-10.9c1.7,1.1,5.3,2.6,5.4,3.5c-0.2,0.8-1.2,0.5-2.1,0.5c-4.7,3.6-7.7,5.4-12.9,7.3L77.2,277.7L77.2,277.7z
	 M86.5,303.4c4.7-2.3,8.6-5.2,10.6-8c-1,0-3.4,0.7-3.4-0.6c0.2-4.5,0.3-21.1,0-22.6c2.2,1,2.8,1.3,4.8,2.4h1.4
	c0.4-1.9,0.5-2.9,0.8-5.2c-1.8,0.1-6.4-0.2-8.2,0.2l-0.3-1.4c1.7,0.5,13.7,0.2,15.7,0.3c1.1-1.3,2-2.3,2.8-3.2
	c2.1,1.6,3.2,2,4.9,3.8c0,0.2-0.2,0.3-0.4,0.3h-8.8c-1.6,2.1-2.7,3.3-4.5,5.2h5.6c0.9-1.1,1.2-1.4,2.2-2.5c1.6,1.1,2.1,1.5,3.6,2.7
	c0.9,0.8,0.2,1-1.1,1.7v6.5c0,6.1,0,9.4,0.1,11.4c0,0.5-0.1,0.7-0.5,0.8c-0.3,0.1-1.8,0.2-3.4,0.2c-0.8,0.1-0.7-0.9-0.7-1.4h-9.5
	c0,0.4,0,1.1-0.4,1.2c4.3,1.9,4.8,2.1,4.8,2.5c0,0.7-1.6,0.4-2.1,0.5c-4.4,2.9-7.5,4.1-13.8,5.5L86.5,303.4z M107.8,280.5v-5h-9.5v5
	H107.8z M98.3,281.3v5.4h9.5v-5.4H98.3z M98.3,287.6v5.7h9.5v-5.7H98.3z M104,295.9c4.7,1,10,1.2,10.1,4.7c0,1.6-0.9,3.1-1.8,3.1
	c-0.5,0-0.8-0.2-1.5-1.2c-1.7-2.3-4-4.4-7-6.2L104,295.9L104,295.9z M89.4,336.9c1-1.2,1.3-1.6,2.2-2.8c1.1,1.4,2,1.9,2.9,3.5
	c1.2,0.2,6,0.1,7.2,0.1v-5c-1.5,0-5.9-0.1-7.3,0.2l-0.2-1.3c1.1,0.6,12.7,0.2,14.2,0.3c1-1.1,1.4-1.4,2.5-2.5
	c1.6,1.1,2.1,1.5,3.8,2.8c0.2,0.3,0.2,0.5-0.3,0.6c0,0-8.2,0-8.2,0v5h3c1-1.1,1.9-2.2,2.8-3.1c1.7,1.4,2.2,1.8,3.8,3.3
	c0.4,0.3,0.1,0.8-0.3,0.7c0,0-9.3,0-9.3,0c0,2.6,0.1,3.1,0.1,6.8c-0.1,1.2-1.2,0.9-3,1c-1.3,0-1.6-0.1-1.6-0.8
	c0-2.1,0.1-5.5,0.1-7.1c-1.9,0-6.5-0.2-8.4,0.2l-0.2-1h-4.4v8.5c6.6,2.6,19.3,1.1,27.4,0.5v0.5c-5.5,4.5,2.1,4.9-9.9,4.7
	c-13.4-0.2-19.9,0.8-24.3-11.3c-0.9,4.7-2.4,8.2-5.1,11.9l-0.5-0.2c1.8-6.3,2.5-13.3,2.3-19.8c1.7,0.5,8.8,0.9,4.1,2.4
	c-0.3,2.6-0.4,3-0.6,4.4c1.5,2.8,1.7,3.1,2.5,4v-13.4c-1.6,0.1-5.9-0.2-7.3,0.2l-0.3-1.4c1.6,0.5,5.4,0.2,7.1,0.3v-6.1
	c-1.5,0-4.3-0.1-5.7,0.2l-0.3-1.4c1.6,0.5,4.4,0.3,6,0.3c0-2.3,0.1-4.3-0.3-6.5c6,0.6,6.2,0.6,6.2,1.2c0,0.4-0.4,0.6-1.6,1v4.3h0.9
	l2.3-2.7c0.3,0.4,4.6,3.4,3.1,3.5c0,0-6.3,0-6.3,0v6.1h1.3c0.8-1,1.5-1.9,2.2-2.7c0.4,0.5,4.6,3.6,3,3.6c0,0-6.2,0-6.2,0v7
	L89.4,336.9L89.4,336.9z M108.1,317.6c1.1-1,1.4-1.3,2.3-2.2c1.3,0.9,1.8,1.3,3,2.3c0.4,0.2,0.5,0.4,0.5,0.6c0,0.3-0.2,0.4-1.1,1
	c-0.1,3,0,5.5,0.1,9c-0.2,1.3-2.1,0.8-3.4,1c-1.1,0.1-1-0.6-1-1.3h-8.4c0,0.3,0.1,1.3-0.3,1.4c-0.4,0.4-4.6,0.7-4.1-0.4
	c0-1.6,0.3-9.1,0-13.6c2,0.9,2.6,1.2,4.6,2.1L108.1,317.6L108.1,317.6z M108.5,318.5h-8.4v3.9h8.4V318.5z M100.1,323.2v3.9h8.4v-3.9
	H100.1z M88.9,394.1c2.7-0.6,3.4-0.7,5.6-1.3l0.1,0.5c-4.3,2.4-7.8,4-14.8,6.7c-0.4,3.5-1.5,1.8-2.8-4.1c1,0,1.3-0.1,2-0.1
	c-0.1-2.9,0.2-11.1-0.2-13.9c2,0.3,8.1,0.5,4.1,2v11.2l2-0.4v-17.2h-2c0,1.7,0.4,2.1-2.6,2c-1.4,0-1.5-0.1-1.5-0.8
	c0.1-3.7,0.3-9.4,0-14.3c2,0.9,2.6,1.2,4.5,2.3h4.8c0.9-1,1.2-1.3,2-2.3c1.2,1,2.9,1.7,3.7,2.9c0,0.4-0.3,0.7-1.4,1.3
	c0,3.9,0,3.8,0.1,9.3c0.3,1.2-1.9,1.2-3.6,1.1v5.5h0.9c0.8-1.2,1.1-1.5,2-2.6c0.4,0.6,4.2,3.4,2.6,3.5c0,0-5.5,0-5.5,0L88.9,394.1
	L88.9,394.1z M83,376.8h5.5v-9H83V376.8z M107.2,369.1c1.1-1.1,1.4-1.4,2.5-2.4c1.6,1.2,2.1,1.6,3.6,2.8c0.4,0.3,0.5,0.5,0.5,0.7
	c0,0.4-0.4,0.6-1.8,1c-2.2,3.9-3.3,5.5-5.4,7.8c2.9,1.7,5.1,2.3,10.1,2.9v0.4c-1.2,0.9-1.9,2.1-2.2,3.6c-0.1,0.5-0.2,0.7-0.4,0.7
	c-2.9-0.8-7-3.2-9.4-5.6c-2,1.9-4.3,3.6-6.7,4.9c1.1,0.6,1.4,0.7,2.7,1.4h7c0.5-0.5,1.2-1.2,2-2c1.4,0.9,1.8,1.2,3.2,2.2
	c1.1,0.8,0.7,1-0.6,1.8c0,8.4,0.1,6.1,0.2,11.1c0,0.8-0.6,1-2.9,1c-1.4,0-1.6-0.1-1.6-0.8v-1.6h-7.8c-0.1,2,0.6,2.7-2.9,2.6
	c-1.3,0-1.5-0.1-1.5-0.8c0.2-5.9,0.2-8.8,0.2-13.8c-1.4,0.7-2.3,1.1-4.7,1.9l-0.2-0.4c5-3.3,8.2-6.1,11.4-10.1
	c-1.3-1.8-1.9-2.9-2.8-5.4c-1.8,2.6-3.3,4-6.5,6.6l-0.4-0.3c3.3-4.7,5.2-10.4,6.1-15.5c5.6,1.2,6.4,1.5,6.4,2c0,0.4-0.6,0.6-1.9,0.8
	c-0.6,1.2-0.8,1.6-1.2,2.4L107.2,369.1L107.2,369.1z M101.5,370c-0.5,1-0.8,1.4-1.5,2.5c1.3,2.3,1.9,3.1,3.5,4.6
	c1.7-2.4,2.5-3.9,3.8-7C107.4,370,101.5,370,101.5,370z M100.1,398.3h7.8v-9.9h-7.8V398.3z M7.1,56.6C8,61.9,8.8,71,3.4,72.6
	c-1.8,0.2-3.2-3.7-1.9-5.4c3.2-2.4,4.9-6.1,5.1-10.6L7.1,56.6L7.1,56.6z M11.5,57.2c0-2.7-0.1-4.7-0.2-6.3c6.3,0.8,6.7,0.9,6.7,1.5
	c0,0.4-0.3,0.6-1.8,1.1v20.1c0,0.9,0,0.9,5.2,0.9c3.5,0,4.2-0.1,4.6-0.9c0.5-0.9,1.4-3.8,2.9-9.7l0.6,0.1l-0.3,8.7v0.1
	c0,0.6,0.2,0.7,1.1,1c2.7,0.9,1.6,4.4-1.4,4.6c-1.8,0.3-15.6,0.8-16.5-0.4c-1.9-0.7-0.8-7.2-1-8.9C11.4,69.1,11.4,57.2,11.5,57.2
	L11.5,57.2z M12.4,43.2c10.1,1.6,12.9,3,12.9,6.2c0,2.1-0.7,3.4-1.8,3.4c-0.5,0-0.9-0.2-1.5-0.9c-3.1-3.7-5.9-6.1-9.8-8.2L12.4,43.2
	z M29.7,56c5.8,4.3,8.9,7.9,8.9,10.4c0,2.4-1.8,4.9-3.4,4.9c-0.8,0-1.1-0.5-1.3-1.9c-0.7-5.2-2-8.8-4.5-13.2L29.7,56z M22.3,101.1
	c3.2,7.9,9.5,12.8,17.4,15.9v0.4c-1.9,0.6-2.7,2.1-3.4,3.8c-0.2,0.4-0.3,0.6-0.5,0.6c-7.2-4.1-11.6-11.6-14-19.8l0.1,17h2
	c0.9-1.2,1.8-2.2,2.6-3.3c1.9,1.6,2.9,2.1,4.4,3.9c0,0.1-0.2,0.3-0.4,0.3H22c0.1,4.1,0.1,6.9,0.2,8.4c0,0.9-0.4,1-3.1,1
	c-1.5,0-1.7-0.1-1.8-0.9c0.1-3,0.2-3.7,0.2-8.6c-1.7,0.1-6.3-0.2-7.9,0.2l-0.2-1.3c1.9,0.5,6.2,0.2,8.1,0.3l0.1-12.2
	c-4.4,7.4-9.8,11.6-17.3,15.5L0,122c7.2-6,12.2-12.8,15.7-20.9c-2.2,0.1-11.8-0.3-13.7,0.3l-0.2-1.5c2.1,0.7,13.4,0.3,15.8,0.4
	c0-2.5,0.1-6.6-0.2-8.8c2.5,0.3,9.7,0.6,4.7,2.3v6.4h8.8c1.4-1.6,1.8-2.1,3.1-3.6c2.1,1.6,2.7,2.2,4.8,3.9c0.3,0.3,0.2,0.6-0.2,0.6
	C38.3,101.1,22.3,101.1,22.3,101.1L22.3,101.1z M32.8,149.8c0.3,0.3,0.4,0.6-0.2,0.6c-1.4,0.1-23.8-0.2-24.3,0.2l-0.4-1.4
	c1.9,0.7,16.6,0.3,18.9,0.4c1-1.1,1.3-1.4,2.4-2.5c1.3,0.9,1.4,1.1,2.5,2c0.3-0.9,0.5-1.5,0.9-3H7.2c0.4,3.4-1.2,7.6-3.5,7.4
	c-2.3-0.1-3.9-3.9-0.9-5.2c2.1-1.3,2.8-2.5,3.2-5.6h0.4c0.4,1.2,0.5,1.6,0.6,2.5h10.3c0-1.7,0.1-3.3-0.2-5c6,0.4,6.7,0.5,6.7,1.2
	c0,0.4-0.3,0.6-1.8,1v2.8h10c0.9-1,1.2-1.4,2.2-2.3c2.1,1.4,2.7,1.9,4.6,3.4c1.3,1-0.4,1.5-1.6,1.4c-2,1.1-3.1,1.5-4.7,2.1
	L32.8,149.8L32.8,149.8z M30.4,163.6c0.9-0.9,1.2-1.3,2.2-2.2c1.6,0.9,2,1.3,3.4,2.2c0.4,0.3,0.6,0.5,0.6,0.7c0,0.3-0.2,0.5-1.5,1.3
	c0,4,0,7.5,0.1,11.8c-0.1,0.7-0.7,0.9-3.1,0.9c-1.1,0-1.4-0.1-1.4-0.6V176H9.5c-0.1,0.7,0.4,2.1-0.9,2.2c-0.7,0.1-3.9,0.6-3.7-0.5
	c0.3-6.4,0.3-12.6,0.1-16.5c2.3,0.9,3,1.3,5.1,2.4L30.4,163.6L30.4,163.6z M26.8,153.5c0.8-0.9,1.1-1.2,2-2.1c1.5,1,2,1.3,3.4,2.3
	c0.3,0.3,0.5,0.5,0.5,0.6c0,0.3-0.4,0.6-1.4,1.1c0.1,2.1,0,3.8,0.1,5.5c-0.1,0.7-0.5,0.9-2.7,0.9c-2.1,0.1-1.7-0.3-1.7-1.5H13.2
	c0,0.6,0.1,1.4-0.7,1.5c-0.5,0-3.5,0.6-3.7-0.4c0.2-4.5,0.1-6.5,0-9.9c2.1,0.8,2.7,1.1,4.6,2.1H26.8z M17.7,169.1v-4.7H9.5v4.7
	C9.5,169.1,17.7,169.1,17.7,169.1z M9.5,175.2h8.2V170H9.5L9.5,175.2L9.5,175.2z M13.2,159.4h13.8v-5H13.2V159.4z M30.7,164.4H22
	v4.7h8.7V164.4z M22,170v5.2h8.7V170H22z M22.6,221.2c5.6,0.6,10.2,0.2,16.8-0.5l0,0.5c-1.4,0.9-2.2,2.1-2.5,3.7
	c-0.1,0.9-0.2,1-0.6,1c-11.5,0.4-20.9,0.6-25.1-11c-2.4,5.7-5,8.8-10.8,12.3l-0.3-0.4c5.2-6,7.7-12.8,7.9-19.9
	c2.3,0.6,10,1.8,4.8,2.9c-0.6,2.1-0.9,2.9-1.3,4.3c1.6,2.8,3.8,4.8,6.5,6.1v-16.8h-6.5c0,1.8,0.2,2.3-3,2.2c-1.6,0-1.8-0.1-1.8-0.9
	c0.2-6.3,0.2-10.1-0.2-14.8c2.4,1,3.1,1.3,5.5,2.5h15.5c0.7-0.7,1.5-1.5,2.5-2.5c1.6,1.1,2.1,1.4,3.6,2.6c0.4,0.3,0.6,0.5,0.6,0.7
	c0,0.4-0.4,0.6-1.6,1.3c0,3.9,0,4.6,0.2,9.8c0,1.4-1.1,1.1-3.3,1.3c-2.2,0.1-1.4-0.8-1.6-2.1h-5.4v7.9h5.8c1.2-1.3,2.2-2.5,3.1-3.6
	c2.1,1.6,2.7,2.1,4.6,3.8c0.4,0.3,0.4,0.7-0.2,0.7c0,0-13.3,0-13.3,0L22.6,221.2L22.6,221.2z M11.5,202.4H28v-9.3H11.5V202.4z
	 M0.2,280.8c4.1-5.9,7-13.4,8.1-20.4c2,0.5,7.3,1.3,6.7,2c0,0.4-0.9,0.7-2.1,0.8c-1.7,4.2-2.8,6.4-5,9.8c0.8,0.2,6,0.8,2,2
	c0,5.1,0.1,16.5,0.2,21.7c0,0.6-0.2,0.9-0.6,1c-0.3,0.1-4.4,1.1-4.1-0.6c0.3-9.1,0.2-13.2,0.2-21c-1.3,1.7-2.6,3-5,5L0.2,280.8
	L0.2,280.8z M16.5,265.5c-0.6,0-1.3,0-2.7,0.3l-0.2-1.5c2.1,0.6,15.8,0.2,18.2,0.3c1.4-1.5,1.8-2,3.1-3.5c1.9,1.7,3,2.2,4.7,4.1
	c0.1,0.5-3.8,0.2-4.1,0.3c0,0,0,16.2,0,16.2c0,2.7,0,5.2,0.2,11.5c0,3.4-1.7,4.2-4.8,4.7c-4.2,0.8,1.6-2.5-8.1-4.6l0-0.5
	c3.4,0.2,4.4,0.3,7.5,0.4c0.6,0,0.8-0.2,0.8-0.7v-26.8L16.5,265.5L16.5,265.5z M13.7,288.2c0.1-8.4,0.3-12.2,0-18.6
	c2,0.9,2.5,1.2,4.4,2.3h4.9c0.9-1.1,1.1-1.4,2-2.4c0.8,0.7,4.9,2.6,3.4,3.6c-0.1,0.1-0.7,0.4-1,0.6c-0.1,5.4,0,7.2,0.1,13.1
	c0,0.9-0.5,1.1-2.2,1.1c-1.8,0-2.1-0.1-2.1-0.9v-1.9h-5.2c-0.1,0.5,0.3,3.3-0.2,3.6c-0.3,0.3-1.1,0.5-2.4,0.5
	C13.8,289.3,13.7,289.1,13.7,288.2L13.7,288.2z M17.9,284.3h5.2v-11.5h-5.2V284.3z M6.8,323.6c1.5,4.8,0.3,14.3-3.8,14.2
	c-1.3,0-2.1-1.2-2.1-3.3c0-1.1,0.3-1.5,1.2-2.1c3-2,3.9-4.9,4.2-8.7L6.8,323.6z M11.1,323.8c0-2.7,0-4-0.2-5.5
	c6,0.6,6.5,0.7,6.5,1.3c0,0.4-0.4,0.7-1.8,1.1V334c5.9-6.3,11.3-14.3,13.8-21.7c2.5,1.1,9.8,3.3,4,3.7c-6,10.6-10.5,16.2-17.8,22.1
	v3.1c0,0.7,0.4,0.9,2.3,0.9c7.8,0,8,0,8.5-0.9c0.6-0.9,1.5-3.8,3-9l0.5,0.1c0,0.1-0.3,8.1-0.3,8.1c0,0.5,0.2,0.6,0.9,0.8
	c2.7,0.7,1.9,3.8-0.6,4.4c-1.4,0.4-3.4,0.5-7.2,0.5c-6.3,0-8.5,0-9.4-0.2c-2.4-0.1-2.1-2.9-2.1-5.2c-2.9,1.9-5,2.9-9.8,4.7l-0.2-0.5
	c3.9-2.1,6.8-4.2,10-7L11.1,323.8L11.1,323.8z M12.1,310.1c9.5,1.5,11.9,2.5,11.9,5.4c0,1.7-0.9,3.1-2,3.1c-0.4,0-0.7-0.2-1.2-0.8
	c-2.9-3.4-5.2-5.4-8.8-7.2L12.1,310.1L12.1,310.1z M31.2,324.4c6.4,5.4,9.7,8.3,6.3,13.2c-0.5,0.7-1.2,1-1.8,1c-0.7,0-1-0.5-1.2-2.2
	c-0.7-5.2-1.6-8.1-3.6-11.7L31.2,324.4z M10.4,368.3c0.9-0.9,1.1-1.2,2-2.1c1.2,1,2.5,1.5,3.3,2.7c0,0.3,0,0.3-1.3,1
	c-0.5,5.6-1.4,9.7-2.9,13.6c1.7,1,1.8,1.2,2,2.7c0,1.2-0.9,2.7-1.6,2.7c-0.9-0.1-1.1-1.5-1.8-2.3c-2.5,4.2-5,6.8-9.4,9.3l-0.3-0.4
	c4-4.3,6-7.3,7.6-11.8c-0.8-0.9-1.4-1.5-2.3-2.2c-0.2,1.1-0.4,1.5-0.8,3c-0.2,0.6-0.4,0.6-2,0.6c-1.3,0-2-0.2-1.8-0.9
	c1.4-5,2.4-9.7,3.4-15.1c-1.2,0-2.5,0-3.6,0.2l-0.2-1.4c1.5,0.4,2.6,0.4,4,0.4c0.6-3.8,1-7.2,0.9-9.4c1.9,0.4,8.4,0.8,3.8,2.3
	c-0.1,0.6-0.5,3-1.1,7.1L10.4,368.3L10.4,368.3z M8,369.2c-0.7,4.5-1.4,8-2.3,11.8c1.1,0.4,2,0.8,2.7,1.1c1.2-3.9,1.8-7.3,2.2-12.9
	H8z M20.3,369.6c-0.5,13.6-2.9,19.9-9.6,26.3l-0.4-0.3c6.6-10.8,6.1-23,5.9-36.8c2,0.8,2.6,1.1,4.6,2.2h12.6c1-0.9,1.3-1.2,2.3-2.1
	c1.4,1,1.8,1.3,3.1,2.2c0.5,0.4,0.5,0.5,0.5,0.6c0,0.3-0.1,0.4-1.4,1.2c-0.1,3.2,0,3.5,0.1,7.4c0,1.2-1.1,0.8-2.9,1
	c-1.6,0.1-1.4-0.7-1.4-1.7L20.3,369.6L20.3,369.6z M24.9,368.8v-6.9h-4.4c-0.1,4.2-0.1,6.5-0.1,6.9H24.9z M33.2,373.8
	c0.9-0.9,1.3-1.3,2.2-2.2c1.4,0.9,1.7,1.2,2.9,2c0.5,0.4,0.6,0.5,0.6,0.7c0,0.4-0.2,0.6-1.4,1.3c0,5.6,0.1,15.1,0.2,19.4
	c0,1.3-1.1,1-2.7,1.2c-2.3,0.2-1.5-1.4-1.6-2.7h-8.8c-0.1,2.1,0.9,3-2.7,2.9c-1.3,0-1.6-0.1-1.6-0.8c0.4-11,0.5-14.7,0.2-24
	c1.9,0.9,2.5,1.2,4.4,2.2L33.2,373.8L33.2,373.8z M33.5,374.6h-8.8v4.9h8.8V374.6z M24.7,380.4v5.2h8.8v-5.2H24.7z M24.7,386.5v6.1
	h8.8v-6.1H24.7z M33.6,361.8h-4.7v6.9h4.7V361.8z M0.3,428.6c3.7-5.9,6.8-14.4,7.6-20.8c6.1,1.5,6.6,1.6,6.6,2.2
	c0,0.4-0.5,0.6-1.8,0.8c-1.7,4.3-2.9,6.8-5,10c3,0.5,3.7,0.9,1.6,1.6c0,9.1,0,9.3,0,22c0,0.4-0.1,0.6-0.3,0.8
	c-0.3,0.3-4.6,1.2-4.3-0.5C5,435.2,4.9,432,5,424.4c-1.5,1.9-2.5,2.9-4.3,4.5L0.3,428.6L0.3,428.6z M39.9,428.9
	c-1.6,0.9-2.3,1.9-2.8,3.6c-0.1,0.6-0.3,0.7-0.6,0.6c-0.6-0.3-1.1-0.6-2.1-1.4c-0.3,0.3-0.5,0.4-0.8,0.7c0,6.8,0,7.2,0.2,11.5
	c0,1.2-0.7,1.5-3.3,1.5c-1.1,0-1.3-0.2-1.4-0.9v-1.8h-10c-0.1,0.5,0.2,2.1-0.3,2.3c-0.2,0.3-4.7,1.1-4.3-0.5
	c0.2-4.3,0.3-8.6,0.1-13.7c-1.3,1-2.3,1.5-4.8,2.7l-0.2-0.4c5.5-4.8,10.2-11,12.2-17.5c5.4,1.3,5.9,1.5,5.9,2
	c0.1,0.5-1.1,0.7-1.5,0.7c2.7,5.4,7.9,8.7,13.7,10.1L39.9,428.9L39.9,428.9z M10.7,422.4c3.2-4.2,5.9-9.3,7-13.9
	c3.3,1,9.1,2.7,4.1,3.2c-3.4,5.2-6,7.9-10.8,11L10.7,422.4L10.7,422.4z M29.1,430.5c0.8-0.8,1.1-1,2-1.8c-2.5-2.8-3.8-5-5.6-9.7
	c-2.7,4.5-5,7.2-8.7,10.2c1.1,0.5,1.4,0.7,2.6,1.3H29.1z M29.1,441.9v-10.5h-10v10.5H29.1z M26,408.8c4.3,2,10.6,4.3,10.8,7.9
	c0,1.8-1.3,3.7-2.5,3.7c-0.6,0-0.8-0.2-1.5-1.6c-1.5-3-3.8-6.2-7.2-9.6L26,408.8L26,408.8z"/>
</svg>
