<?xml version="1.0" encoding="utf-8"?>
<!-- Generator: Adobe Illustrator 26.5.0, SVG Export Plug-In . SVG Version: 6.00 Build 0)  -->
<svg version="1.1" id="圖層_1" xmlns="http://www.w3.org/2000/svg" xmlns:xlink="http://www.w3.org/1999/xlink" x="0px" y="0px"
	 viewBox="0 0 375 667" style="enable-background:new 0 0 375 667;" xml:space="preserve">
<style type="text/css">
	.st0{fill:#040000;}
	.st1{fill:#E26F11;}
	.st2{fill:#5C3719;}
	.st3{fill:#50080D;stroke:#40210D;stroke-width:0.3222;stroke-miterlimit:10;}
	.st4{fill:#221714;}
	.st5{fill:none;stroke:#5C3719;stroke-width:0.3296;stroke-miterlimit:10;}
	.st6{fill:#933723;}
	.st7{fill:#BA7A1F;}
</style>
<g>
	<g>
		<path class="st0" d="M111,31.2c0.5-0.5,1.1-1.3,4.8-2.4c0,0,0.2,0,0.3-0.2c0.1-0.2,0.1-0.4,0.1-0.6v-0.1c-0.1-0.3-0.1-0.5-0.3-0.7
			c-0.1-0.1-0.4-0.1-0.7,0c0,0-0.1,0-0.1-0.1c-0.1-0.4-0.7-1.7-2-1.6c0,0-0.3-0.1-0.5,0.2c-0.2,0.2-0.2,0.5-0.1,0.9l0,0l0,0
			c0.2,0.4,0.4,1.1,0.1,1.4c-0.3,0.4-2.7,2.1-4.1,2.2h0l0,0c0,0-0.1,0.1-0.1,0.3c0,0.2,0.1,0.4,0.4,0.7c0.8,0.7,1.5,0.8,2,0.2
			L111,31.2z"/>
		<path class="st0" d="M115.7,31.6c0.1-0.2,0.1-0.3,0-0.5c-0.1-0.3-0.5-0.7-0.8-0.8c-0.3-0.1-0.6,0-0.9,0.1l-0.2,0.1
			c-0.4,0.1-0.7,0.2-1.1,0.2l-0.5,0l0,0.1c0,0.4,0.1,0.5,0.4,0.8c0.3,0.2,0.6,0.5,1,0.5c0.4,0,0.8,0,1.2-0.1
			C115.1,32.1,115.6,31.9,115.7,31.6z"/>
		<path class="st0" d="M114.7,32.9L114.7,32.9L114.7,32.9c-0.1,0-2,0.4-2.8,0.2l-0.2-0.1l0.1,0.2c0,0,0.2,1,2,1.2
			c0.1,0,1,0.1,1.6-0.1h0l0,0c0,0,0.3-0.3,0.2-0.6C115.5,33.5,115.2,33.2,114.7,32.9z"/>
		<path class="st0" d="M110.8,36.1L110.8,36.1L110.8,36.1z"/>
		<path class="st0" d="M115.7,37.4l0.1-0.2l0.3-0.5c0.1-0.1,0.1-0.3,0.1-0.4c0-0.1,0-0.2-0.1-0.2c-0.1-0.2-0.3-0.5-0.7-0.6l-0.2-0.1
			c-0.2-0.1-0.5-0.3-0.8-0.2c-0.3,0.1-0.6,0.2-0.8,0.4l-0.3,0.2l-0.9,0.6c-0.2,0.1-0.4,0.2-0.3,0.4c0,0.2,0.2,0.2,0.3,0.2l0.5,0.1
			h0.1h0.2h0.3l0.1,0c0,0-0.1,0.1-0.4,0.4l0,0c0,0-0.4,0.3-0.5,0.3c0,0-0.1-0.1-0.2-0.2c-0.2-0.4-0.5-0.7-0.8-1
			c-0.3-0.2-0.6-0.4-0.9-0.4l-0.2,0.1c-0.1,0.1-0.1,0.2-0.1,0.2c0,0.2,0.1,0.4,0.2,0.6l0.2,0.3c0.1,0.2,0.2,0.4,0.4,0.6
			c0.2,0.5,0.2,1,0.2,1.5v0.4V40l0,0.3c0.1,0.4,0.6,0.7,0.9,0.7c0.2,0.1,0.4,0,0.5-0.1c0.1-0.1,0.2-0.2,0.2-0.5c0,0,0,0,0,0
			c0-0.3,0-0.6-0.1-0.9c0,0,0.1-0.1,0.3-0.1l0.8-0.1l0.1,0l0.2,0l0.3-0.1l0.1,0c0.1,0,0.3,0,0.4-0.1c0.2-0.1,0.2-0.4,0.2-0.6v-0.1
			v-0.1v-0.3l-0.1-0.2c0-0.1,0-0.1,0-0.1l0,0C115.5,37.6,115.6,37.5,115.7,37.4z"/>
		<path class="st0" d="M116.3,26.1L116.3,26.1c0.3,0.4,0.7,1.1,0.8,1.3c0.1,0.2,0.1,2.9,0.1,4.6V32l0,0c0.2,0.2,0.7,0.8,1,0.8
			c0.1,0,0.1,0.1,0.2,0c0.1-0.1,0.2-0.2,0.2-1l-0.1-4.7l0,0c-0.1-0.2-1-1.7-1.8-1.7c-0.1,0-0.3,0.1-0.4,0.2
			C116.3,25.8,116.3,25.9,116.3,26.1L116.3,26.1z"/>
		<path class="st0" d="M119.9,27.2c-0.2,0.3-0.5,0.5-0.8,0.7c-0.2,0.1-0.4,0.2-0.5,0.4c-0.2,0.3,0.1,0.5,0.3,0.7l0.1,0
			c0.5,0.4,0.8,0.3,1.3,0.2h0.1l0.8-0.1h0.2c0.3,0,0.6,0,0.8-0.2c0.3-0.2,0.2-0.6,0.1-0.9l0-0.4c0-0.4,0.3-0.8,0.5-1.1l0.2-0.2
			c0.2-0.2,0.4-0.5,0.4-0.8s-0.2-0.6-0.6-0.9c-0.2-0.1-0.5-0.3-0.8-0.4c0,0-0.7-0.2-0.8,0.1c-0.1,0.4-0.5,0.7-0.9,1l-0.1,0
			c-0.5,0.4-1,0.7-1.4,1l-0.1,0v0.1c0,0.1,0.1,0.2,0.1,0.2c0.2,0.2,0.7,0.1,1.1,0l0.1,0c0.2-0.1,0.4-0.1,0.4,0c0,0,0,0,0,0.1
			C120.3,26.7,120.2,27,119.9,27.2z"/>
		<path class="st0" d="M122,29.5c0,0-1.2,0.6-1.8,0.9c-0.7,0.3-1.3,0.3-1.3,0.3h-0.2l0,0.1l0,0.2c0.2,0.3,0.9,0.5,1.2,0.6
			c0.4,0.1,1-0.1,1-0.1c0.6-0.2,1.4-0.2,1.9-0.3l0.4,0c0.4,0,0.6-0.3,0.7-0.5c0.1-0.1,0-0.3-0.1-0.4l-0.3-0.4l-0.4-0.5
			C122.9,29.2,122,29.5,122,29.5z"/>
		<path class="st0" d="M126.1,38.2c-0.4-0.2-0.8-0.4-1.1-0.6l-0.5-0.2l-0.6-0.2c-0.8-0.3-1.9-0.7-1.8-1.4l0.2-0.7
			c0.2-0.5,0.4-1.1,0.2-1.7c-0.2-0.4-0.5-0.7-0.8-0.8c-0.2-0.1-0.3-0.2-0.5-0.2c0,0-0.4,0-0.5,0.1l0,0.1l0.1,0.1
			c0.2,0.3,0.1,1,0,1.4l0,0.1c-0.1,0.8-0.3,0.8-0.3,0.8c0,0,0,0-0.1,0c-0.4-0.4-0.8-0.8-1.2-1.2l-0.2-0.2c-0.1-0.2-0.2-0.3-0.5-0.4
			c-0.2-0.1-0.4-0.1-0.7-0.1c-0.3,0-0.9,0.3-1.1,0.7c-0.1,0.2,0,0.3,0.1,0.4c0.2,0.2,0.4,0.3,0.5,0.4l0,0l0,0l0.1,0.1l0.2,0.1
			c0.4,0.2,0.8,0.5,1.1,1.1l0.4,0.7l0.1,0.1c0,0,0.1,0.2,0.1,0.2c-0.2,0.5-1.4,1.3-3.2,1.9h0c-0.4,0.1-0.5,0.3-0.5,0.4
			c0,0,0,0.1,0,0.1l0,0.1l0.1,0c2.4,0.8,4.4-0.5,4.8-0.8c1.1,1.2,2.3,2.4,4.1,2.1c0.5-0.1,1.4-0.4,1.6-0.5c0.2-0.2,0.2-0.5,0.2-0.8
			C126.5,38.8,126.3,38.4,126.1,38.2z"/>
		<path class="st0" d="M129.8,29.2l0.9,0.7l0.1-0.1c0.1-0.1,0.6-0.4,0.8-0.8c0.1,0.1,0.2,0.3,0.3,0.7c0,0.1,0,0.1,0,0.2
			c0,0.7-0.1,1.6-0.1,1.7c0,0.1-0.2,0.4-0.2,0.7c0,0.1,0,0.2,0.1,0.3c0,0.1,0.4,0.6,0.8,0.8c0,0,0.2,0.2,0.4,0.1
			c0.2-0.1,0.3-0.2,0.4-0.6c0.1-0.6,0.2-1.5,0.2-2.3c0-0.7-0.1-1.3-0.4-1.6c-0.4-0.5-0.6-0.8-0.7-0.9c0.1-0.1,0.2-0.2,0.2-0.2l1.4-2
			c0,0,0.1-0.2,0.1-0.6c0-0.3-0.1-0.7-0.5-1.1l-0.2-0.2c-0.8-0.7-1.4-1.3-1.9-0.8l-0.1,0.1v0.1c0,0,0.1,1.4-0.2,2.1
			c-0.3,0.7-0.9,1.8-1.7,2.5c-0.1,0-0.2,0.2-0.2,0.4C129.3,28.7,129.5,29,129.8,29.2z"/>
		<path class="st0" d="M142.7,33.7L142.7,33.7c-0.3-0.2-0.6-0.4-0.8-0.3l-0.5,0.1l-1,0.2c-0.5,0.1-1.6,0.2-2.2,0
			c0-0.1-0.3-0.4-0.4-0.6c0.1,0,0.3-0.1,0.3-0.1l0.6-0.1l0.2,0c0.4-0.1,0.8-0.1,0.9-0.4c0,0,0-0.1,0-0.1c0-0.2-0.2-0.4-0.3-0.5l0,0
			c-0.2-0.2-0.4-0.4-0.7-0.5l-0.4,0c-0.1,0-0.3,0-0.3,0v-0.1c0-0.1,0-0.1,0.1-0.1l0.1,0c0.5-0.1,0.8-0.4,0.8-0.6c0,0,0,0,0-0.1
			c0-0.4-0.7-0.7-1.1-0.8l0,0c0,0,0-0.1,0-0.1c0,0,0.1,0,0.1,0c0.3-0.1,0.8-0.3,1-0.6c0-0.1,0.1-0.1,0.1-0.2s0-0.1-0.1-0.2
			c-0.1-0.3-0.5-0.5-0.8-0.6l0,0c0.1-0.2,0.8-0.5,1-0.7l0.4-0.2c0.2-0.2,0.3-0.3,0.3-0.5c0,0,0-0.1,0-0.1c-0.1-0.3-0.6-0.4-1-0.5
			l-0.2,0c-0.2-0.1-0.4-0.1-0.5,0c0-0.1,0.6-0.8,0.2-1.4c-0.3-0.5-1-1.4-2.7-1.4h-0.2l0.1,0.2c0.2,0.6,0.5,1.5,0.3,1.7l-0.1,0.1
			l0.1,0.1c0.1,0.1,1.1,0.7,1.5,0.7c0.2,0,0.4,0,0.5,0c-0.1,0.1-0.2,0.1-0.3,0.2l-0.3,0.2c-0.8,0.4-1.5,0.7-2.2,1
			c-0.5,0.2-0.7,0.2-0.7,0.2l-0.2,0l0.1,0.2c0.2,0.5,1.1,0.6,1.7,0.7l0.4,0.1l0,0v0c0,0.1,0,0.2-0.1,0.2c-0.2,0.2-0.9,0.5-1.1,0.6
			l-0.1,0.1l0,0.1c0.1,0.3,0.6,0.4,1,0.5l0.2,0.1c0,0,0,0,0.1,0.1c0,0,0,0.1,0,0.1c0,0.1-0.1,0.3-0.1,0.3c-0.1,0.1-0.2,0.1-0.4,0.1
			l-0.2,0h-0.1c-0.2,0-0.4,0.1-0.5,0.2l0,0.2c0.1,0.4,0.6,0.4,0.9,0.4c0,0,0.1,0,0.1,0c0,0,0,0.1,0,0.1c0,0.1,0,0.2-0.1,0.3
			c-0.1,0.2-0.7,0.2-1,0.2l-0.4,0.1l-0.1,0c-0.1,0-0.4,0.1-0.4,0.3v0c0,0.3,0.5,0.5,0.7,0.6c0.4,0.2,0.8,0.5,0.8,0.7l0,0
			c0,0.1-0.3,0.2-0.5,0.2h-0.1c-0.4,0-0.8,0-1.3,0.1l-1.2,0.3c-0.5,0.1-1,0.2-1.4,0.3c-0.8,0.1-1.6-0.1-2.3-0.3l-0.7-0.2
			c-0.7-0.1-0.9-0.1-1-0.1l-0.1,0v0.1c-0.1,1.2,0.8,1.8,1.1,2.1l0.1,0.1c0.3,0.2,0.7,0.1,0.7,0.1c1.4-0.9,6-1.5,6.8-1.6
			c0,0.3,0,1.1,0,1.8c0,0.3,0,0.5,0,0.7c0,0.5-0.2,0.5-0.7,0.5H135c-0.4,0-0.7,0-1.1-0.1c0,0-0.1,0-0.1,0c0,0,0-0.2,0-0.2
			c0-0.2-0.1-0.4-0.2-0.7l-0.1-0.1c-0.2-0.3-0.2-0.5-0.2-0.5l0,0v0l-0.2-0.2c-0.2,0.2-0.4,0.4-0.6,0.6l-0.2,0.2l-0.3,0.3
			c-0.2,0.2-0.4,0.4-0.7,0.5l-0.3,0.1c-0.2,0-0.3,0.1-0.5,0.2c0,0-0.5,0.5-0.3,0.7c0.3,0.4,1.1,1.2,2.1,1.2c0.4,0,0.6-0.5,0.8-0.9
			l0.1-0.2c0.1-0.2,0.2-0.2,0.5-0.1l0.1,0l0.2,0.1c0.4,0.2,0.9,0.4,1.2,0.7l0.2,0.3c0.1,0.2,0.3,0.4,0.5,0.5c0.4,0.2,0.7,0.3,1,0.2
			c0.9-0.4,1.1-2.3,1.1-2.6c0,0,0.1-2.6,0.1-3.2c0.4,0,2,0,2.1,0c0.2,0,0.4,0.1,0.6,0.2l0.4,0.1c0.3,0.1,0.7,0.2,1.1,0.2
			c0.4,0,1,0,1.2-0.3c0.1-0.2,0.1-0.4-0.1-0.6C143.4,34.2,143.1,33.9,142.7,33.7z"/>
		<path class="st0" d="M139.1,37l-0.2,0l0.1,0.1c0,0,0.8,1.9,0.9,2.1v0l0,0c0.2,0.1,0.6,0.5,0.7,0.7l0,0c0.1,0.1,0.2,0.2,0.4,0.2
			c0.2,0,0.5-0.2,0.7-0.5c0.2-0.4,0.5-1.3,0.4-1.7C142,37.8,140.6,36.7,139.1,37z"/>
		<path class="st0" d="M92.2,30l0.3,0.1c0.2,0,0.4,0.1,0.5,0.2c0,0.2-0.5,2.2-1,3.9l0.2,0.1c0.1-0.1,0.2-0.2,0.3-0.3
			c0.1-0.1,0.4-0.2,0.5-0.2c0.4-0.1,0.9-1,1.8-3.2l0.1-0.2c0,0,0.3-0.7,0.3-0.8c0.6-0.5,0.8-0.9,0.8-1.1c0-0.1,0-0.2-0.1-0.2l0-0.1
			c-0.1-0.2-0.3-0.5-0.7-0.8l-0.1,0C94.8,27,94.1,27,94,27H94l-1,0.8c-0.4,0.3-1.9,0.9-1.9,1l-0.1,0l0,0.1c0,0.1-0.1,0.2,0,0.3
			C91.2,29.5,91.9,29.9,92.2,30z"/>
		<path class="st0" d="M100.9,37.2c0-0.1,0-2.3,0-2.3s0.1-0.1,0.3,0L102,35l1.2,0.1c0.4,0,0.5-0.2,0.6-0.3c0.1-0.2,0.1-0.6-0.1-0.9
			c-0.2-0.3-0.5-0.6-0.9-0.5l-1.1,0.2c0,0-0.5,0.1-0.7,0.1c0-0.1-0.1-0.3-0.1-0.4c0-0.1,0-0.1,0.1-0.2c0.1-0.1,0.3-0.1,0.5-0.1
			c0.3,0,0.7-0.1,0.8-0.3c0.1-0.1,0.1-0.2,0.1-0.3s0-0.1-0.1-0.2c-0.2-0.3-0.8-0.5-1-0.5c-0.2,0-0.4,0-0.5,0c0,0,0-0.1,0-0.1
			c0-0.1,0-0.2,0-0.3c0-0.1,0-0.1,0-0.1c0-0.1,0.2-0.1,0.4-0.1l0.2-0.1c0.5-0.2,1-0.4,1-0.7c0,0,0,0,0-0.1c0-0.1,0-0.2-0.2-0.3
			c-0.2-0.2-0.8-0.2-1.2-0.2c0,0-0.1,0-0.2,0c0-0.1-0.1-0.5-0.1-0.6c0.3-0.1,1.2-0.1,1.4-0.1c0.9-0.1,1.6,0,2.2,0.2
			c0.2,0.1,0.5-0.2,0.6-0.3c0.1-0.2,0-0.4-0.1-0.6c-0.2-0.3-0.7-0.8-1.2-0.8c-0.1,0-0.4,0-0.6,0c0.1-0.2,0.2-0.3,0.2-0.5
			c0,0,0-0.1,0-0.1c0-0.4-0.2-0.7-0.4-0.9l-0.1-0.1c-0.3-0.4-0.8-0.8-1.5-0.5c-0.2,0.1-0.3,0.1-0.5,0.2c0-0.1,0-0.2,0-0.4
			c0-0.1,0-0.2,0-0.3l0.1-0.4c0.1-0.2,0.2-0.4,0.2-0.7c0-0.2-0.1-0.5-0.4-0.7c-0.8-0.7-1.8-1.2-1.9-1.2c-0.1,0-0.5-0.1-0.8,0.1
			c-0.1,0.1-0.1,0.2-0.1,0.3v0v0c0,0,0.3,0.8,0.4,1.7c0,0,0.1,2.2,0.1,2.4c-0.2,0.1-0.6,0.2-0.9,0.2c-0.3-0.1-0.7,0.1-0.9,0.3
			c-0.2,0.1-0.3,0.3-0.3,0.4c0,0.2,0.2,0.7,2.1,0.7l0,0c0,0.1,0,0.3-0.2,0.4c-0.1,0.1-0.8,0.3-1.3,0.4l-1,0.3l0,0.1
			c0,0-0.1,0.1-0.1,0.2c0,0.1,0,0.1,0,0.2c0.1,0.3,0.5,0.6,1.1,0.8l0,0h0.1c0.3-0.1,1-0.3,1.4-0.3c0,0.1,0,0.1,0,0.2
			c0,0.2,0,0.4-0.1,0.4C98.1,30.9,97.4,31,97,31l-0.2,0l0,0c0,0-0.2,0.2-0.2,0.3c0,0,0,0,0,0.1c0.1,0.2,0.4,0.3,0.6,0.4
			c0.6,0.1,1,0.2,1.2,0.2c0,0.1,0,0.1,0,0.2c0,0.1,0,0.2-0.1,0.3l-0.5,0.1c-0.7,0.1-1.1,0.1-1.2,0.3c0,0.1-0.1,0.1-0.1,0.2
			c0,0,0,0.1,0,0.1c0.1,0.2,0.3,0.4,0.5,0.5c0.3,0.1,1.1,0.2,1.3,0.3c0.1,0.1,0.1,0.3,0.1,0.4c0,0.1,0,0.1,0,0.1
			c-0.2,0.1-1.9,0.4-2.2,0.3l-0.2-0.1l0,0.2c0,0,0.1,0.4,0.6,0.6c0.4,0.2,1.3,0.2,1.8,0.2c0,0.2,0,0.9,0,1.1c-0.3-0.1-2.8-1-3-1.1
			c0.1-0.2,0.1-0.6,0.2-0.8l0,0c0.1-0.1,0.1-0.3,0.1-0.5c0-0.4-0.3-0.9-1.4-1.6l-0.1,0l-0.1,0c-0.2,0.1-0.6,0.2-0.6,0.5c0,0,0,0,0,0
			l0.1,0.3c0.1,0.2,0.2,0.4,0.2,0.5c0,0,0,0.1,0,0.1l-0.1,0.2c-0.1,0.3-0.2,1-0.3,1.1c-0.1,0-0.5,0.1-0.8,0.1
			c-0.5,0.1-1.1,0.1-1.4,0.2l-0.1,0l0,0.1c-0.1,0.1-0.1,0.2-0.1,0.3c0,0.2,0.1,0.4,0.3,0.5l0.4,0.2c0.2,0.1,0.8,0.3,0.8,0.4
			c-0.2,0.3-1.2,2-2.5,3l0,0l0,0c0,0-0.1,0.1-0.1,0.2c0,0,0,0.1,0,0.1c0.1,0.1,0.3,0.1,0.4,0.1h0.1c0.5-0.1,1.9-0.2,4.1-3
			c0.1,0,0.7-0.2,2.3,0.7c1.8,1,4.6,2.5,5.6,2.8h0h0c0.2,0,5-0.2,5.3-3l0-0.2H108C105.3,37.8,101.3,37.7,100.9,37.2z M100.7,27.5
			c0-0.2,0-0.4,0-0.5c0.2-0.2,0.4-0.2,0.5-0.2C101.1,26.9,100.9,27.2,100.7,27.5z"/>
		<path class="st0" d="M159.7,28.9c0.1-0.3,0.1-0.7,0.1-1c0.1-0.5,0.1-0.9,0.3-1.3l0,0v-0.1c0-0.4-0.2-0.7-0.4-0.9l-0.1-0.2
			c-0.8-1.2-1.7-1.8-3.7-1.5c-0.7,0.1-1.4,0.1-2.1,0.2c-0.7,0.1-1.5,0.1-2.3,0.2c-0.5,0.1-1,0.2-1.4,0.3c-0.7,0.2-1.3,0.4-2.1,0.4
			h-0.1l-0.1,0.2v0c0,0.4,0.3,0.7,0.6,0.9l0.1,0.1c0.9,0.7,1.6,0.4,2.3,0.1c0.3-0.1,0.6-0.3,0.9-0.4c0,0.1,0,0.4,0,0.4
			c-0.1,0.1-0.3,0.2-0.5,0.3c-0.2,0.1-0.4,0.2-0.6,0.4l-0.1,0.1v0.3l0.3,0.2c0.2,0.2,0.5,0.4,0.9,0.4l0,0c0,0.1,0,0.4,0,0.5
			c-0.1,0.1-1.3,0.6-1.3,0.6l0.1,0.1c0.2,0.5,0.7,0.4,1,0.3c0,0,0.1,0,0.2,0c-0.2,0.3-0.4,0.6-0.7,0.8l-0.1,0v0.2l0,0
			c0.1,0.2,0.4,0.3,0.6,0.3l0,0c0,0.1,0,0.2,0,0.4c-0.1,0-0.1,0.1-0.1,0.1c-0.1,0.1-0.3,0.2-0.4,0.4c-0.1-0.1-0.1-0.2-0.2-0.3
			l-0.2-0.4l-0.2-0.6c-0.1-0.3-0.2-0.5-0.4-0.9l-0.1-0.1h0c0-0.1-0.1-0.2-0.1-0.2l0,0c-0.3-0.5-0.7-0.5-1.1-0.5l-0.4,0v0.1v0.4
			l0.4,0.4c0.3,0.3,0.7,0.7,0.8,1.1c0.1,0.3,0.1,0.5,0.2,0.8l0.1,0.7c0.1,0.2,0.2,0.3,0.2,0.4c0.1,0.1,0.1,0.1,0.2,0.2
			c-0.2,0-1,0.2-1,0.2l0,0.1c0,0.1-0.1,0.1-0.1,0.2c0,0.1,0.1,0.2,0.1,0.4c0.2,0.3,0.6,0.5,0.9,0.5c-0.1,0.1-0.1,0.1-0.1,0.2
			c-0.1,0.1-0.1,0.1-0.2,0.2c-0.5,0.2-2.2,0.5-2.6,0.2c-0.1-0.1-0.1-0.6-0.1-1l0-0.6l-0.1-0.6c-0.1-0.9-0.2-2.1-0.1-2.7l0.1-0.8
			l0.1-0.8v0c-0.1-0.8-1.1-1.7-1.7-1.7H146l0,0.1c0,0.1,0,0.1,0,0.2c0,0.2,0.1,0.7,0.2,1.2c0.1,0.7,0.3,1.5,0.3,2.2
			c0,0.2,0,0.3,0,0.5l0,0c0,0.1,0,1.3,0,1.3l-0.1,3.9l-0.1,0.6c-0.2,0.8-0.3,1.5-0.3,1.9c0,0.1,0,0.2,0,0.2l0.3,1
			c0.2,0.3,0.4,0.5,0.6,0.8l0.4,0.5h0.1h0.2l0-0.1c0.4-0.5,0.5-1,0.5-1.4c0-0.2,0-0.4,0-0.7l-0.1-1.1l0-0.4c0-0.3,0-0.5,0-0.7
			c0-0.2,0-0.4-0.1-0.5l0,0c0.2,0.1,0.5,0.3,0.5,0.3c0.7,0.3,1.8-0.2,2.4-0.5l0,0c0.4,0.9,0.9,1.3,1.4,1.1h0l0,0
			c0.2-0.2,0.3-0.5,0.3-0.8s-0.1-0.6-0.2-0.8c0.3-0.2,0.9-0.3,1.3-0.3c0.1,0.5,0.2,1,0.2,1.5c0,0.3,0,0.6-0.1,0.9
			c-0.1,0-0.1,0.1-0.2,0.2c0,0,0,0-0.1,0v-0.1h-0.2v0.1c-0.1,0-0.3,0-0.3,0c-0.3,0-0.6-0.1-0.9,0l-0.1,0l0,0.1
			c0.1,0.3,0.3,0.5,0.5,0.7c0.1,0.1,0.2,0.2,0.3,0.4c-0.8,0.1-1.5,0.2-2.2,0.3l-0.1,0c-0.2,0.1-0.5,0-0.8,0c-0.4,0-0.9-0.1-1.2,0.3
			l-0.1,0.1l0.1,0.1c0.3,0.4,0.8,0.7,1.2,0.9c0.4,0.1,0.7,0.1,1,0c0.2-0.1,0.5-0.1,0.7-0.1c0,0,1.7-0.1,1.7-0.1c1-0.2,2,0.1,2.7,0.2
			l0.2,0.1l0.2-0.2c0.1-0.1,0.2-0.1,0.2-0.2v0l0.3,0.5c0.2,0.3,0.3,0.7,0.6,0.9c0.3,0.2,0.7,0.2,1.1-0.1c0.6-0.4,1.1-1.4,1.1-2
			c0-0.1,0-0.2,0-0.2c-0.2-0.7-0.2-1.4-0.2-2.2c0-0.7,0-1.4-0.1-2c0-0.2-0.1-0.4-0.1-0.6c0-0.4,0-0.7,0.1-1c0.1-0.4,0.1-0.8,0.1-1.3
			c0,0,0,0,0-0.1l-0.1-1.4l0-0.4l0.1-0.5L159.7,28.9z M151.2,33.9c0.4-0.1,0.8-0.3,1.2-0.5c0.5-0.3,1.1-0.5,1.6-0.6c0,0,0,0.1,0,0.2
			c-0.1,0-0.1,0-0.2,0h-0.1c0,0-0.1,0.5-0.2,0.6c-0.3,0.1-0.6,0.1-0.9,0.2C152.1,33.9,151.6,34,151.2,33.9L151.2,33.9L151.2,33.9z
			 M153.7,30.3c-0.1,0.1-0.2,0.1-0.3,0.1c0,0,0,0,0-0.1c0.2-0.1,0.3-0.2,0.4-0.4C153.8,30.1,153.7,30.2,153.7,30.3z M153.6,29.3
			c-0.1,0-0.1-0.1-0.1-0.1c0-0.1,0-0.3,0.1-0.4c0.1,0,0.3-0.1,0.3-0.1c0.1,0,0.3-0.1,0.4-0.1c-0.1,0.2-0.3,0.9-0.3,1
			C153.9,29.4,153.7,29.3,153.6,29.3z M153.8,31.7c-0.1,0.1-0.2,0.1-0.4,0.1h0c0-0.1,0-0.2,0-0.2c0.1,0,0.2-0.1,0.4-0.1
			C153.8,31.6,153.8,31.6,153.8,31.7z M151.8,32.3C151.8,32.3,151.8,32.3,151.8,32.3c-0.1,0.1-0.2,0.1-0.2,0.1
			c0-0.3-0.1-0.5-0.1-0.8C151.7,31.8,151.8,31.9,151.8,32.3z M156.8,38.9c-0.3-0.5-1-0.8-1.5-0.8c0.1-0.3,0.1-0.7,0.1-1.2
			c0-0.8-0.1-1.8-0.1-2.3c0.2-0.1,0.6-0.1,1,0c0.5,0.1,1,0.2,1.3-0.1c0.3-0.4-0.3-1.1-0.5-1.4l-0.1-0.1h-0.1h-0.1c0,0,0,0,0,0
			c-0.1,0-0.2-0.1-0.4-0.1v-0.1h-0.1V33c-0.3,0-0.6,0.1-0.8,0.2c0,0,0,0,0,0c0.1-0.2,0.1-0.5,0.1-0.7c0-0.4-0.1-0.8-0.6-0.9v0
			c0-0.1,0.4-0.9,0.4-0.9c0.3-0.7,0.6-1.4,1-1.9l0.1,0v-0.1c0-0.5-0.3-1.1-0.7-1.4c-0.2-0.2-0.5-0.3-0.8-0.2
			c-0.2,0.1-0.5,0.2-0.8,0.3c0,0-0.3,0.1-0.4,0.2h0c0-0.1,0-0.1,0-0.1c0.1,0,0.1-0.1,0.1-0.1c0.3-0.2,0.8-0.5,0.8-0.9v0
			c0-0.2-0.1-0.3-0.3-0.5c-0.1-0.1-0.2-0.1-0.3-0.2c-0.1,0-0.2,0-0.2-0.1l0,0c0,0-0.1-0.2-0.1-0.2c0-0.1-0.1-0.2-0.1-0.3
			c0.2,0,1-0.2,1-0.2c0.7-0.2,1.4-0.1,2,0.2c0.7,0.4,1.1,1.1,1.3,2c0.1,0.4,0.1,0.9,0.1,1.4c0,1-0.1,2.1-0.3,3
			c0,0.2-0.1,0.5-0.1,0.7c0,0.2,0,0.4,0,0.6V34c0,0.4-0.1,0.8-0.1,1.1c0,0.3,0,0.6,0,0.9c0,0.3,0,0.6,0,0.9c0,0.5,0,1-0.2,1.6
			c-0.1,0.1-0.1,0.1-0.1,0.2v0.1c-0.1,0.2-0.2,0.4-0.4,0.5c-0.1,0.1-0.1,0.1-0.2,0.2c0,0,0-0.1,0-0.1
			C157,39.3,156.9,39.1,156.8,38.9z"/>
		<path class="st0" d="M56.6,36.4L56.6,36.4L56.6,36.4c0.2-1,0.2-1.5,0-1.5c0,0-0.1-0.1-0.2,0c0,0-0.5,0.4-0.8,0.5
			c0-0.3,0-0.6,0-0.8c0-0.4,0-0.8,0.1-0.9c0.2-0.3,0.9-0.8,1.2-1l0.1-0.1l-0.1-0.1c0,0-0.5-1-1.1-1.1c0,0,0-0.1,0-0.1
			c0-0.4,0-1.1,0.3-1.5c0,0,0.1-0.1,0.1-0.3c0-0.4-0.2-1-1.4-1.7c-0.1,0-1.3-0.6-1.9-0.2c-0.2,0.1-0.3,0.3-0.4,0.6l0,0.2l0.2-0.1
			c0,0,0.1,0,0.2,0.1c0.1,0.1,0.4,0.4,0.4,1.5l0.1,0.9c0,0.3,0.1,0.7,0.1,1c0,0.2,0,0.3-0.1,0.4c-0.1,0.2-1.2,1-1.9,1.2
			c0,0-0.5,0.1-0.5,0.4c0,0,0,0.1,0,0.1c0,0.1,0,0.2,0.1,0.2v0l0,0c0.1,0,1.4,0.8,1.9,1.1c0,0.1,0.2,0.7,0.2,1.3
			c0,0.2,0,0.5-0.1,0.7c-0.1,0.1-1.1,1-2.2,1.1c-0.1,0-0.4,0.1-0.5,0.3c0,0,0,0.1,0,0.1c0,0.2,0.1,0.4,0.3,0.5c0.7,0.7,1.2,1,1.2,1
			l0,0l0,0l0.2,0.1c0.2,0,0.5-0.1,0.9-0.5l0.8-0.8C54.7,38.1,55.9,37.1,56.6,36.4z"/>
		<path class="st0" d="M71,38.8c-0.1,0-3.9-2.2-4.8-3.4c0.1-0.3,0.4-1.7,0.4-2.6c0-0.1,0-0.2,0-0.3c-0.1-0.7-0.7-2.5-0.8-2.8
			c0-0.1,0.1-1.5,0.8-1.7c0,0,0.3,0,0.4-0.2c0-0.1,0.1-0.1,0.1-0.2c0-0.2-0.1-0.4-0.3-0.6c0-0.1-0.2-1-1.7-1.4
			c-0.1,0-0.5-0.1-0.7,0.3c0,0.1-0.1,0.1-0.1,0.2c0,0.3,0.2,0.7,0.7,1.2c0.1,0.2,0.4,0.7,0.4,0.9c0,0.4-0.2,4.5-0.5,5.4
			c-0.4-0.7-1.3-2.1-1.3-2.7c0.1-0.1,0.7-1.4,1.1-1.8c0,0,0.3-0.3,0.3-0.7c0-0.1,0-0.2-0.1-0.3c0,0-0.4-1-1.6-0.5
			c-0.2,0.1-0.7,0.5-0.9,0.5c-0.1-0.1-0.2-0.3-0.4-1.2l-0.6-2.4c0,0-0.1-1-2-1.6c0,0-0.7-0.2-1.1-0.2c-0.1,0-0.3,0.1-0.3,0.2
			c0,0,0,0.1,0,0.1c0,0.1,0.1,0.3,0.3,0.5c0.2,0.1,0.2,0.2,0.3,0.4l0.1,0.1l0.7,1.2c0.7,1.3,1.8,3.2,1.8,3.6l0,0v0c0,0,0,0,0,0.1
			c0,0.1-0.1,0.3-0.4,0.6c-0.5,0.5-2,2-2.1,2.1c0,0-0.1,0-0.1,0c0,0,0,0,0-0.1l0-0.3c0-0.3,0.1-0.6-0.1-0.8
			c-0.2-0.2-1.1-0.9-1.4-0.9c-0.3,0-0.7,0-0.8,0.3v0.1l0,0c0,0,2.1,3.5,0.1,7.5c0,0.1-0.2,0.7-1.3,0.7h-0.2l0.2,0.2
			c0.2,0.2,0.7,0.9,0.8,1.2c0,0,0.1,0.2,0.3,0.3c0.3,0.1,0.6,0,1.1-0.4c0.1-0.1,0.8-1,1-2.1c0.1,0,0.1,0,0.4,0.2l1.6,1
			c0,0,0.6,0.4,1.4-0.4c0.7-0.8,1.5-1.9,1.8-2.9c0.1,0.2,0.3,0.5,0.3,0.6c0,0,0,0.1,0,0.1c-0.1,0.4-0.3,1.3-1.6,2.7l-0.2,0.2l0.3,0
			c0.1,0,1.6-0.2,2.7-1.4c0.3,0.3,1.5,1.4,3.2,2.4c0,0,0.8,0.5,2.3,0.2c0.2,0,1.1-0.1,1.2-0.5C71.8,39.3,71.6,39.1,71,38.8z
			 M62.5,32.8c-0.1,0-0.2,0-0.3,0c0.1-0.1,0.1-0.2,0.2-0.3C62.4,32.5,62.4,32.7,62.5,32.8z M61.8,34.3c0,0.4-0.2,1.1-1.3,2.2
			c-0.4,0.1-1.4,0.2-1.8,0.1c0.4-0.5,2-2.3,3.1-2.5C61.8,34.1,61.8,34.1,61.8,34.3z M58.8,32.8c0.3-0.2,2.4-1.9,2.8-2.2
			c0,0.1,0,0.1,0,0.2v0c-0.7,1.3-2.2,2.7-2.8,3.2c0-0.1,0-0.1,0-0.1C58.8,33.7,58.8,33.4,58.8,32.8z"/>
		<path class="st0" d="M77.4,33.2l0.2-0.2l0.4-0.4c0,0,0.2-0.4,0.2-0.6c0-0.1,0-0.1-0.1-0.2c-0.1-0.1-0.1-0.1-0.2-0.1l0,0
			c-0.2,0-0.7,0.3-1,0.5c0-0.1,0-0.1,0-0.2c0-0.2,0-0.5,0.1-0.6c0.2-0.2,0.4-0.3,0.6-0.5l0.3-0.2c0.2-0.1,0.2-0.2,0.2-0.4
			c0-0.1,0-0.2-0.1-0.2l-0.1-0.2l-0.2-0.5C77.7,29,77.6,29,77.5,29l-0.2-0.1c-0.1,0-0.1-0.2-0.2-0.4c0-0.1,0-0.1,0-0.2
			c0-0.3,0.1-0.6,0.2-0.8l0.1-0.1l0.1-0.1c0.1-0.1,0.1-0.3,0.1-0.4c0-0.1,0-0.2-0.1-0.3l-0.2-0.4l0-0.1c-0.4-0.5-1-0.9-1.4-1.2
			c-0.1,0-0.7-0.2-1,0c-0.1,0.1-0.2,0.3-0.2,0.5l0,0.1l0.1,0c0,0,0,0,0.1,0c0.1,0.1,0.4,0.5,0.4,2c0,0-0.1,1.8-0.1,2
			c-0.1,0.1-1.1,1.3-2.6,1.4c-0.1,0.1-0.3,0.2-0.3,0.4l0,0c0,0.3,0.4,0.7,1.4,1.1c0,0,0.8,0.5,1.7-0.2c0,0,0,0.1,0,0.1
			c0,0,0,0.1,0,0.1c0,0.3-0.1,0.8-0.1,0.9c-0.2,0.2-2,1.7-2.7,2c0,0-0.5,0.1-0.7,0.3c-0.2,0.2-0.5,0.7-0.4,1.2
			c0,0.2,0.1,0.4,0.4,0.5l0.1,0c0.6,0.3,1.9,0.9,2.2,1.1s1.3,1.4,1.3,1.5c0,0,0.2,0.3,0.5,0.3c0.2,0,0.5-0.2,0.7-0.5l0.3-0.5
			c0.3-0.5,0.5-0.8,0.5-1.2c0-0.4-0.2-3.8-0.2-4.2C76.9,33.9,77.4,33.2,77.4,33.2z M75.2,35.2c0,0.4,0,1.3-0.1,1.8
			c0,0.3-0.1,0.4-0.2,0.4c-0.1,0-0.1,0-0.1,0h0h0c-0.4,0-0.9-0.4-1.1-0.7C73.7,36.5,74.4,35.8,75.2,35.2z"/>
		<path class="st0" d="M88.1,34.3c-1-1.8-1.4-1.9-1.8-2l-0.1,0c-0.3-0.1-2.7,0.1-3.6,0.2c0.2-0.2,0.3-0.4,0.4-0.4
			c0.4,0.2,0.7,0.3,1,0.2c0.2-0.1,0.3-0.4,0.3-0.4c0-0.1,0.4-2.6,0.4-3.2s0.7-3.2,0.7-3.2c0.4-1-0.2-1.3-0.2-1.3c0,0-1.1-1-1.1-1
			c-0.1-0.1-0.5,0-0.7,0h0h0c-0.4,0.4-3,1.8-3.1,1.8L80,25l0.3,0.1c0.8,0.3,1.9-0.2,2.5-0.5l0.2-0.1c0.2-0.1,0.3-0.1,0.4-0.1
			c0.1,0.1,0.1,0.1,0.1,0.1l0,0v0c0,0.1,0,0.2,0,0.3c0,1-0.4,3.7-0.5,4.3c0,0.2-0.1,0.3-0.1,0.3c-0.5-0.2-1.1,0.3-1.3,0.4
			c0,0,0,0-0.1,0c0-0.1,0.1-0.6,0.1-0.6c0-0.2,0.2-0.3,0.6-0.3c0.3,0,0.7,0,0.8-0.4c0,0,0-0.1,0-0.1c0-0.1-0.1-0.3-0.1-0.4l0-0.1
			l0-0.1c0-0.1-0.1-0.2-0.2-0.2c-0.2-0.1-0.4,0-0.5,0s-0.3,0.1-0.4,0c-0.1-0.1-0.1-0.1,0.1-0.4c0.1-0.1,0.4-0.2,0.6-0.3l0.2-0.1
			l0.1-0.1c0.2-0.1,0.5-0.2,0.6-0.5c0-0.2,0-0.5-0.2-0.7c-0.4-0.3-0.7-0.2-1-0.1c-0.2,0.1-0.4,0.1-0.6,0.1s-0.3-0.1-0.5-0.3
			c-0.2-0.1-0.4-0.3-0.7-0.3h0c-0.3,0-0.9-0.1-1.1,0.2C79,25.6,79,25.7,79,25.8c0,0.1,0,0.1,0,0.2l0.2,0.2c0.2,0.1,0.5,0.4,0.8,1.8
			c0.1,0.2,0.1,0.7,0.1,1.2c0,0.6,0,1.2-0.1,1.4c-0.1,0.2-0.8,0.5-1.4,0.7h0l0,0c-0.1,0.1-0.1,0.1-0.1,0.2c0,0,0,0.1,0,0.1
			c0.1,0.4,0.9,0.7,1.2,0.8c-0.2,0.2-0.8,0.7-1.4,1c-0.4,0.2-0.7,0.4-0.9,0.7c-0.1,0.2-0.2,0.3-0.2,0.5c0,0,0,0.1,0,0.1
			c0,0.2,0.2,0.4,0.4,0.6c0.6,0.4,1,0.1,1.4-0.1l0.1-0.1l0.5-0.3l0.7-0.4c0.1-0.1,0.1-0.1,0.2-0.1c0,0,0,0.1,0,0.1
			c0,0.1-0.1,0.2-0.2,0.3l-0.1,0.1l-0.5,0.6c-0.2,0.3-0.5,0.6-0.7,0.9l-0.3,0.4c-0.2,0.2-0.4,0.4-0.4,0.6c0,0,0,0.1,0,0.1
			c0.1,0.2,0.3,0.2,0.5,0.2c0.5,0,1.2-0.1,1.6-0.3c0.5-0.3,0.9-0.8,1.3-1.3l0.2-0.2c0.4-0.5,0.8-1,1.1-1.6c0.1-0.1,0.2-0.2,0.2-0.2
			c0.1,0,0.1,0,0.2,0.1c0.1,0.1,0,0.2-0.1,0.4l-0.1,0.1c-0.2,0.4-0.4,0.7-0.6,1c-0.8,1.2-1.8,2.2-3,3c-0.3,0.2-0.9,0.7-0.9,0.9
			c0,0,0.1,0.1,0.2,0.1c1.5,0.2,1.8,0.2,3.1-0.8c0,0,0.1,0,0.1,0c0.2,0,0.4,0.4,0.5,0.5c0.5,1,1.3,1,1.3,1c1.8-0.2,2.8-1.6,2.9-1.6
			l0,0v0c0.1-0.4,0.5-1,0.9-1.4l0.5-0.7C88.9,35.7,88.1,34.3,88.1,34.3L88.1,34.3z M85.3,33.1c1.2,0.2,1.6,1.6,1.6,2.4v0
			c0,0.8-1.4,2.1-1.8,2.4c-0.3,0.2-1,0.4-1.8,0.3c-0.4,0-0.5-0.1-0.7-0.1c0.4-0.4,1-1.4,1.8-2.7l0.5-0.9c0.3-0.5,0.4-0.9,0.4-1.2
			C85.4,33.3,85.3,33.2,85.3,33.1z"/>
	</g>
	<g>
		<path class="st1" d="M40.7,29.3c-1.8-2.4-5.7-0.1-5.8,0l0.1,0.3l0,0c0.1,0,1.5,0.3,2.8,2c0.5,0.7,1,1.4,1.1,2.4
			c0.1,1,0.7,2.1,1.5,2.8c1,0.9,2.5,1,4.5-0.2l0.1-0.3c-3.1-0.4-3.2-1.8-3.4-3.7C41.6,31.5,41.5,30.3,40.7,29.3z"/>
		<path class="st1" d="M38.8,37.6c0.7-2.9-3.5-4.4-3.6-4.5l-0.1,0.2l0,0c0.1,0.1,0.7,1.3,0.2,3.5c-0.2,0.9-0.5,1.6-1.2,2.3
			c-0.7,0.7-1.1,1.9-1.2,3c-0.1,1.4,0.8,2.6,3,3.4l0.3-0.1c-1.6-2.7-0.6-3.7,0.7-4.9C37.7,39.7,38.6,38.8,38.8,37.6z"/>
		<path class="st1" d="M31.2,41.5c2.7-1.3,1.2-5.5,1.2-5.7l-0.3,0.1l0,0c0,0.1-0.6,1.4-2.5,2.4c-0.8,0.4-1.5,0.7-2.5,0.5
			c-1-0.1-2.2,0.3-3.1,0.9c-1.1,0.8-1.5,2.2-0.8,4.5l0.2,0.1c1-2.9,2.5-2.8,4.3-2.6C28.9,41.8,30.1,42,31.2,41.5z"/>
		<path class="st1" d="M23.4,37.9c2.7,1.3,5.1-2.6,5.2-2.6l-0.2-0.2l0,0c-0.1,0.1-1.5,0.4-3.4-0.5c-0.8-0.4-1.5-0.8-2-1.6
			c-0.5-0.9-1.6-1.5-2.6-1.8c-1.3-0.4-2.7,0.2-4,2.2l0,0.3c2.9-1.1,3.7,0.2,4.7,1.7C21.6,36.4,22.3,37.4,23.4,37.9z"/>
		<path class="st1" d="M21.3,29.7c0.7,2.9,5.2,2.3,5.3,2.4l0-0.3h0c-0.1,0-1.3-0.8-1.8-2.9c-0.2-0.9-0.3-1.7,0-2.6
			c0.3-1,0.2-2.2-0.3-3.2c-0.5-1.3-1.8-2-4.2-1.7l-0.2,0.2c2.7,1.6,2.2,3,1.6,4.7C21.3,27.3,20.9,28.5,21.3,29.7z"/>
		<path class="st1" d="M26.3,22.8c-1.8,2.4,1.4,5.5,1.5,5.6l0.2-0.2l0,0c0-0.1-0.1-1.5,1.2-3.3c0.5-0.7,1.1-1.3,2-1.6
			c1-0.4,1.8-1.3,2.3-2.2c0.6-1.2,0.3-2.7-1.4-4.4l-0.3,0c0.4,3.1-0.9,3.6-2.7,4.2C28.2,21.3,27,21.8,26.3,22.8z"/>
		<path class="st1" d="M34.8,22.3c-3,0.1-3.3,4.6-3.4,4.7l0.3,0.1l0,0c0.1-0.1,1.1-1.1,3.3-1.1c0.9,0,1.7,0,2.5,0.5
			c0.9,0.5,2.1,0.6,3.2,0.4c1.3-0.3,2.3-1.4,2.5-3.8L43,22.9c-2.1,2.3-3.4,1.5-5,0.6C37.1,22.9,36.1,22.3,34.8,22.3z"/>
		<path class="st1" d="M33.4,31.5c0,1.3-1.1,2.4-2.4,2.4c-1.3,0-2.4-1.1-2.4-2.4c0-1.3,1.1-2.4,2.4-2.4
			C32.3,29.1,33.4,30.2,33.4,31.5z"/>
	</g>
</g>
<g>
	<g>
		<g>
			<path class="st2" d="M107.6,246.4c1.1,3.4,1.1,5.6,0,6.2c-2.4,1.4-4.7-0.7-6.1-3.2c-1.4-2.2-2.3-5.5-2.9-9.4h-0.1
				c-0.3,6.9-1,10-2.9,11.3c-1.2,0.9-2.8,1.3-4.9,1.3c0-1.4-0.1-2.6-0.7-3.4c-0.6-0.7-1.7-1.2-3.1-1.5v-0.7c1.3,0.1,3.4,0.2,4.2,0.2
				c0.6,0,0.9-0.1,1.3-0.4c0.6-0.6,1-3,1.3-7.7H79.9v0.8c0,0.5-2.2,1.8-4.4,1.8h-0.8v-25.2l5.4,2.3h1.4c0.1-1.2,0.3-2.7,0.3-3.9
				h-8.7l-0.4-1.4h16.8l2.7-3.5c0,0,3,2.4,5,4.1l0-4.3H72.1v11.3c0,9.7-0.5,23.3-10,32.2l-0.6-0.4c4.7-9.6,4.9-21.5,4.9-31.8v-15.6
				l6.6,2.8h23.8l3-3.5l5.6,5c-0.3,0.4-1,0.8-2.2,1c-0.8,10-0.5,27.6,2.1,31.8c0.4,0.6,0.6,0.5,0.9-0.2c0.6-1.8,1.1-3.8,1.6-5.8
				l0.5,0.1L107.6,246.4z M73.9,241.4c1.7,4.8,0.8,8.3-0.9,9.7c-1.2,1-3.5,0.7-4.2-1c-0.5-1.5,0.3-2.9,1.7-3.7
				c1.3-0.8,2.8-3,2.6-5.1H73.9z M77.5,241.9c7.3,5.1,1.9,11-0.7,7.2c0.6-2.4,0.5-5.2,0.1-7L77.5,241.9z M79.9,220.6v3.3h9.4v-3.3
				H79.9z M89.2,225.4h-9.4v3.4h9.4V225.4z M79.9,233.4h11.4l2.3-2.9c-0.8,0.5-2.3,1-3.4,1h-0.9v-1.2h-9.4V233.4z M98.1,237.5
				c-0.1-0.9-0.2-1.9-0.3-2.9c-0.2,0.2-0.5,0.2-0.8,0.2H79.9v3.1h13.2l2.5-2.5L98.1,237.5z M81.8,240.8c8.7,2.9,4.5,9.6,1.3,6.4
				c0.1-2.1-0.8-4.6-1.9-6.1L81.8,240.8z M87.8,215.1c-0.9,1.3-2.1,2.8-3.2,3.9h4.2l2.3-2.5l4.9,3.7c-0.2,0.3-0.8,0.7-1.6,0.9v8.6
				c0,0.1-0.2,0.3-0.5,0.5c0.4,0.4,2.4,1.9,3.9,3.2c-0.4-5.9-0.5-12.6-0.5-19.1c-0.1,0.5-0.7,0.7-1.3,0.7H87.8z M86.7,240.2
				c8.6,0.9,5.4,7.5,2.2,5.1c-0.2-1.7-1.4-3.6-2.6-4.7L86.7,240.2z"/>
			<path class="st2" d="M158.2,217.8c-0.1,0.7-0.5,1.2-1.8,1.4v32.3c0,0.6-2.7,1.9-5,1.9h-1.1v-5h-27.6l-1.9,2.8l-6.4-3.3
				c0.4-0.6,1.2-1.2,1.9-1.7V217l8,0.8c-0.1,0.8-0.6,1.2-1.8,1.4V247H133v-41l8,0.8c-0.1,0.7-0.5,1.2-1.8,1.4V247h11v-30
				L158.2,217.8z"/>
			<path class="st2" d="M205.3,236.4c0,0,3.7,3.1,5.9,5.3c-0.1,0.6-0.7,0.8-1.4,0.8h-44.3l-0.4-1.5h8.4V215l6.3,2.5h4.8
				c0-1.4,0.1-3,0.2-4.8h-17.6l-0.4-1.4h18.1c0.1-2.2,0.1-4.5,0.2-6.5l7.8,0.8c-0.1,0.8-0.7,1.4-1.8,1.5c-0.1,1.2-0.3,2.7-0.6,4.2
				h9.3l3.3-4.3c0,0,3.7,2.9,5.9,4.9c-0.1,0.6-0.6,0.8-1.4,0.8h-17.3l-0.7,4.8h6.1l2.6-3.4l6.2,4.4c-0.3,0.5-0.9,0.8-2.2,1.1v20.8
				L205.3,236.4z M165.2,252.9c5.5-2.5,11.7-6.9,14.5-10.2l6.7,4.5c-0.4,0.6-1.4,0.8-3,0.4c-4.2,2.5-11.2,4.8-18,5.9L165.2,252.9z
				 M179.4,219v4.5h16.9V219H179.4z M196.3,224.9h-16.9v4.3h16.9V224.9z M179.4,230.7v4.3h16.9v-4.3H179.4z M179.4,241h16.9v-4.5
				h-16.9V241z M192.1,243.9c26.3,1.3,16.7,12.4,11.8,8.1c-2-2.3-5.9-5.3-11.9-7.4L192.1,243.9z"/>
			<path class="st2" d="M260.4,245.7c1.8,0.7,2.3,1.3,2.3,2.4c0,2.7-2.6,3.6-13.4,3.6h-6.8c-5.9,0-7.9-1-7.9-5.8v-19.1l-4.3,2
				l-1-1.1l5.2-2.4v-4.1c-0.2,0.2-0.6,0.3-1,0.3h-6.3v16c2.2-0.6,4.5-1.2,6.7-1.9l0.1,0.6c-2.9,2.3-7.3,5.6-13.9,9.6
				c-0.2,0.7-0.7,1.2-1.3,1.4l-3.3-6.9c1.3-0.3,3.4-0.8,6-1.4v-17.4h-5.4l-0.4-1.5h5.8v-13.8l7.4,0.7c-0.1,0.7-0.4,1.3-1.8,1.5v11.6
				h1.1l2.4-4.1c0,0,2.3,2.5,3.8,4.4v-7.8l7.2,0.8c0,0.6-0.5,1.2-1.7,1.3v8.2l4.2-1.9V205l7.2,0.7c-0.1,0.7-0.5,1.2-1.8,1.4v11.3
				l5-2.3l2.5-2.7l4.8,5.2c-0.4,0.5-0.9,0.6-2,0.7c-1.2,5.9-3.7,14.4-6.7,20.1l-0.6-0.4c0.9-6.4,1.7-15.2,1.8-21.1l-4.9,2.2v20.6
				c0,0.6-2.3,1.6-4.4,1.6h-1v-19.8l-4.2,2v20.1c0,1.5,0.6,2,3.1,2h6.6c2.6,0,4.6-0.1,5.6-0.2c0.8-0.1,1.3-0.3,1.7-0.8
				c0.6-1,1.5-3.6,2.6-7.1h0.5L260.4,245.7z"/>
			<path class="st2" d="M307.4,244.6c0,0,4,3.1,6.4,5.4c-0.1,0.6-0.7,0.8-1.4,0.8h-43.9l-0.4-1.5h19.4v-19.4h-15.1l-0.3-1.4h15.5
				v-17h-16.9l-0.4-1.4h31.6l3.5-4.6c0,0,4,3.1,6.3,5.3c-0.1,0.6-0.6,0.8-1.4,0.8h-16.3v17h6.5l3.4-4.4c0,0,3.8,3,6.1,5.1
				c-0.1,0.5-0.6,0.8-1.4,0.8h-14.6v19.4h9.9L307.4,244.6z"/>
		</g>
		<line class="st3" x1="61.1" y1="252" x2="313.4" y2="252"/>
	</g>
	<g>
		<g>
			<path class="st2" d="M102.5,275.8c3.4,1.9,2,4.5,0.7,3.3c0-0.8-0.4-1.8-0.7-2.7v10.1c0,0.2-0.7,0.6-1.3,0.6h-0.3V279
				c-0.6,1.3-1.4,2.6-2.3,3.7l-0.3-0.2c1.2-2.2,1.9-5.2,2.3-8.1h-2l-0.2-0.6h2.4v-4.8l2.4,0.3c-0.1,0.3-0.2,0.5-0.7,0.6v4h0.2
				l0.9-1.3c0,0,1,0.9,1.6,1.5c-0.1,0.2-0.2,0.3-0.5,0.3h-2.1V275.8z M114.8,284.6c0,0,1.3,0.9,2,1.6c0,0.2-0.2,0.3-0.5,0.3h-12.5
				l-0.2-0.6h10.2L114.8,284.6z M104.7,271.1l-0.2-0.6h8.9l1-1.3c0,0,1.2,0.9,1.8,1.6c-0.1,0.2-0.2,0.3-0.5,0.3h-6.3
				c-0.3,0.8-0.7,1.8-1,2.5h1.3l0.9-1l1.7,1.5c-0.1,0.1-0.4,0.3-0.8,0.3c-0.1,6.7-0.4,9.3-1.2,10.2c-0.5,0.6-1.2,0.8-2.1,0.8
				c0-0.5,0-0.9-0.3-1.2c-0.2-0.2-0.7-0.4-1.3-0.6v-0.3c0.6,0,1.5,0.1,1.8,0.1c0.3,0,0.5-0.1,0.6-0.2c0.6-0.6,0.7-3.3,0.8-9.1h-1.6
				l-0.7,0.8l-1.7-1.2c0.2-0.2,0.6-0.3,0.9-0.4c0.3-0.7,0.6-1.6,0.9-2.2H104.7z M107.3,282.2v-0.8h-1.2v1c0,0.2-0.6,0.5-1.1,0.5
				h-0.2v-7.5l1.4,0.6h1l0.6-0.7l1.4,1.1c-0.1,0.1-0.3,0.2-0.6,0.3v5.1c0,0.1-0.7,0.4-1.1,0.4H107.3z M107.3,280.8v-4.3h-1.2v4.3
				H107.3z M116.5,275.2c-0.1,0.2-0.3,0.2-0.7,0.3c-0.2,1.2-0.4,2.5-0.9,3.8c2.3,2.8,1.2,5.1-0.1,3.9c-0.1-0.7-0.4-1.5-0.7-2.3
				c-0.6,1.2-1.5,2.2-2.7,3.1l-0.2-0.3c1.1-1.2,1.7-2.6,2.2-4.2c-0.5-1-1.2-1.9-1.7-2.7l0.3-0.1c0.7,0.5,1.3,0.9,1.8,1.4
				c0.2-0.9,0.3-1.9,0.4-2.8H112l-0.3-0.6h2.4l0.9-0.9L116.5,275.2z"/>
			<path class="st2" d="M125.5,277.9l1.9,1.5c-0.1,0.2-0.4,0.3-0.8,0.4v6.4c0,0.2-0.9,0.6-1.5,0.6h-0.3v-1.5h-3.4v1.3
				c0,0.2-0.8,0.6-1.5,0.6h-0.3v-9l1.9,0.8h3.1L125.5,277.9z M124.8,284.7v-5.2h-3.4v5.2H124.8z M124.5,277c0,0.2-0.8,0.6-1.6,0.6
				h-0.3v-8.1l2,0.8h6l0.9-1l1.9,1.5c-0.1,0.2-0.4,0.3-0.8,0.4v5.7c0,0.1-0.9,0.6-1.6,0.6h-0.3V276h-6.3V277z M124.5,270.9v4.5h6.3
				v-4.5H124.5z M136.7,279.4c-0.1,0.2-0.4,0.3-0.8,0.4v6.6c0,0.1-0.9,0.5-1.6,0.5H134v-1.7h-3.6v1.3c0,0.2-0.7,0.6-1.5,0.6h-0.3v-9
				l1.9,0.8h3.3l0.9-1L136.7,279.4z M134,284.7v-5.2h-3.6v5.2H134z"/>
			<path class="st2" d="M139.4,272.6l1.2-1.5c0.7-0.8,1.7-1.3,3-1.3c2.2,0,3.6,1.6,3.6,3.4c0,0.7-0.3,1.4-0.7,1.9
				c-0.4,0.4-1.2,1.1-1.9,1.6c2.2,0.5,3.8,2,3.8,4c0,4.2-4.8,6.2-6.6,6.2c-1.1,0-2-0.5-2.3-0.8c-0.3-0.3-0.5-0.6-0.5-0.8
				c0-0.4,0.3-0.7,0.5-0.9c0.2-0.1,0.3-0.1,0.5,0c0.6,0.7,1.7,1.4,3.1,1.4c1.7,0,3.2-1.1,3.2-4.1c0-2.8-1.9-3.8-3.4-3.8
				c-0.6,0-1.2,0.1-1.5,0.3l-0.1-0.4c2.7-0.9,3.9-1.9,3.9-3.9c0-1.8-1.2-2.7-2.5-2.7c-1.4,0-2.2,0.7-3,1.7L139.4,272.6z"/>
			<path class="st2" d="M155.8,279.6h-4.6l0.1-1h4.7L155.8,279.6z"/>
			<path class="st2" d="M166.7,281.8v2.2c0,1.7,0.2,2,2,2.2v0.3h-5.9v-0.3c1.7-0.3,1.9-0.5,1.9-2.3v-2.2h-6.4v-0.6
				c2.5-3.7,5.2-7.7,7.7-11.4h0.7v11h2.3v1H166.7z M164.7,272.6c-1.6,2.4-3.6,5.4-5.3,8.1h5.3L164.7,272.6z"/>
			<path class="st2" d="M174.9,276.2c0,3.5-0.3,8-3.9,11l-0.3-0.2c2.1-3.2,2.4-7.1,2.4-10.8v-5.9l1.7,0.7c3.8-0.4,8.4-1.3,10.9-2
				l1.8,1.9c-0.2,0.2-0.6,0.2-1.2-0.1c-3,0.4-7.5,0.6-11.4,0.6v1.4h10.2l0.9-1l1.9,1.4c-0.1,0.2-0.4,0.3-0.8,0.4v2.8
				c0,0.1-0.9,0.5-1.6,0.5h-0.3v-0.8L174.9,276.2L174.9,276.2z M186.7,277.6c0,0,1.2,0.9,1.9,1.6c-0.1,0.2-0.3,0.3-0.5,0.3h-7.4
				c-0.1,0.7-0.2,1.3-0.3,1.9h4.2l1-0.9l1.8,1.5c-0.1,0.2-0.4,0.3-0.8,0.3c-0.2,2.3-0.7,3.8-1.5,4.3c-0.6,0.4-1.3,0.6-2.2,0.6
				c0-0.5-0.1-1-0.4-1.2c-0.3-0.3-1-0.5-1.8-0.6V285c0.8,0.1,2.1,0.2,2.5,0.2c0.3,0,0.5,0,0.7-0.1c0.4-0.3,0.6-1.4,0.8-3h-4.6
				c-0.6,2-2.2,3.9-6.1,5.3l-0.2-0.3c4.2-2.3,4.6-4.9,4.7-7.5h-3.1l-0.2-0.6h6.3c-0.2,0-0.3-0.1-0.5-0.2c-0.2-0.7-0.7-1.6-1.2-2.1
				l0.2-0.1c3.3,0.2,3,2.2,1.8,2.4h3.7L186.7,277.6z M174.9,273.3v2.2h10.4v-2.2H174.9z"/>
			<path class="st2" d="M196.7,285.6V273h0.7v12.6H196.7z"/>
			<path class="st2" d="M220.3,284.2c0,0,1.4,1,2.2,1.8c-0.1,0.2-0.2,0.3-0.5,0.3h-16.8l-0.2-0.5h2.8V276l2.6,0.2
				c-0.1,0.2-0.2,0.4-0.7,0.5v9h3.3v-13.6h-7l-0.2-0.5h12.6l1.2-1.5c0,0,1.4,1,2.2,1.7c-0.1,0.2-0.2,0.3-0.5,0.3h-6.3v6h2.8l1.2-1.5
				c0,0,1.3,1,2.1,1.7c-0.1,0.2-0.3,0.3-0.5,0.3h-5.5v7h4.2L220.3,284.2z"/>
			<path class="st2" d="M228.7,275.1c-0.1,0.2-0.2,0.3-0.6,0.4v11.1c0,0.1-0.8,0.5-1.4,0.5h-0.3V277c-0.7,0.9-1.5,1.8-2.3,2.4
				l-0.2-0.2c1.5-2.3,3.1-6,4-9.6l2.6,0.8c-0.1,0.2-0.3,0.4-0.7,0.4c-0.5,1.4-1.1,2.7-1.8,4L228.7,275.1z M239.9,277.9
				c0,0,1.2,1,2,1.6c-0.1,0.2-0.2,0.3-0.5,0.3h-5.1v6.8c0,0.1-0.6,0.6-1.5,0.6h-0.3v-5.5c-0.1,0.1-0.4,0.2-0.6,0.1
				c-1.4,1.9-3.1,3.4-4.8,4.4l-0.2-0.2c1.2-1.3,2.6-3.4,3.5-5.6l2.2,1v-1.7h-5.3l-0.2-0.5h5.4v-2.9h-1.9v0.8c0,0.1-0.5,0.5-1.4,0.5
				h-0.3v-7.3l1.9,0.8h5.3l0.8-1l1.7,1.3c-0.1,0.2-0.3,0.3-0.7,0.3v5.2c0,0.1-0.6,0.4-1.5,0.4h-0.3v-0.9h-1.9v2.9h2.6L239.9,277.9z
				 M232.5,275.9h5.6v-4.3h-5.6V275.9z M236.9,280.9c6.2,2.4,5.1,6.2,3.2,5c-0.6-1.5-2.2-3.5-3.4-4.8L236.9,280.9z"/>
			<path class="st2" d="M255.6,277.7c1.2,1.4,3.6,2.3,5.5,2.6l0,0.2c-0.8,0.4-1.3,0.8-1.4,1.5c-1.9-0.8-3.6-2.4-4.6-4.4h-5.4
				c-0.6,0.8-1.4,1.5-2.2,2.2c4.2,0.6,2.7,3.6,1.2,2.4c-0.2-0.8-0.8-1.7-1.4-2.3c-1.1,0.8-2.3,1.5-3.8,2.1l-0.2-0.2
				c2-1.2,3.5-2.7,4.6-4.3h-4.2l-0.2-0.5h4.7c0.4-0.7,0.8-1.4,1.1-2.1h-4l-0.2-0.5h4.4c0.2-0.7,0.5-1.3,0.7-2h-5.7l-0.2-0.5h6
				c0.2-0.8,0.4-1.6,0.5-2.4l2.7,0.6c-0.1,0.3-0.3,0.5-0.7,0.5c-0.1,0.5-0.2,0.9-0.4,1.4h4.7l1.1-1.3c0,0,1.2,0.9,1.9,1.5
				c0,0.2-0.2,0.3-0.5,0.3h-7.4c-0.2,0.7-0.5,1.3-0.8,2h4.5l1-1.2c0,0,1.1,0.8,1.8,1.4c0,0.2-0.2,0.3-0.5,0.3h-7
				c-0.4,0.7-0.8,1.4-1.2,2.1h7.7l1.1-1.3c0,0,1.2,0.9,2,1.6c0,0.2-0.2,0.3-0.5,0.3H255.6z M257.1,280.8c-0.1,0.2-0.4,0.3-0.8,0.2
				c-0.7,0.5-1.4,1-2.1,1.4c5.9,1.8,4.5,4.7,2.8,3.8c-0.6-0.9-2.2-2.4-4.2-3.7v2.7c0,1.2-0.3,1.9-2.3,2c0-0.5-0.1-0.8-0.4-1.1
				c-0.3-0.2-0.6-0.4-1.5-0.5v-0.3c0,0,1.7,0.1,2.1,0.1c0.3,0,0.4-0.1,0.4-0.3v-2.4c-1.1,0.8-2.4,1.8-4.3,3c0,0.2-0.2,0.4-0.3,0.5
				l-1.5-1.6c1.1-0.4,3.5-1.3,6.1-2.4v-4l2.4,0.2c0,0.3-0.2,0.4-0.7,0.5v3.1c0.2,0.1,0.5,0.1,0.7,0.2c0.5-0.7,1-1.7,1.6-2.6
				L257.1,280.8z"/>
			<path class="st2" d="M267.4,283.8c0.9-0.2,1.9-0.5,2.9-0.7l0.1,0.3c-1.5,0.8-3.8,1.8-6.8,3.1c-0.1,0.2-0.2,0.4-0.5,0.5l-0.8-2
				c0.3-0.1,0.7-0.1,1.1-0.2V278l1.9,0.2c0,0.2-0.2,0.4-0.5,0.4v5.8l1-0.2v-8H265v0.4c0,0.1-0.5,0.5-1.3,0.5h-0.3v-6.7l1.8,0.7h2.3
				l0.8-0.8l1.7,1.3c-0.1,0.1-0.4,0.3-0.8,0.4v4.5c0,0.1-0.8,0.4-1.3,0.4h-0.3v-0.6h-0.4v3h0.5l0.9-1.3c0,0,1,0.9,1.6,1.5
				c-0.1,0.2-0.2,0.3-0.5,0.3h-2.4V283.8z M265,275.6h2.8v-4H265V275.6z M278.8,272.6c-0.2,0.2-0.3,0.2-0.8,0.3
				c-0.6,1.4-1.4,2.7-2.5,3.8c1.3,0.9,2.9,1.6,4.8,2l0,0.2c-0.7,0.2-1.1,0.7-1.3,1.6c-0.6-0.2-1.1-0.5-1.6-0.7l1.3,1
				c-0.1,0.2-0.3,0.3-0.7,0.3v5.6c0,0.1-0.6,0.4-1.4,0.4h-0.3v-1.3h-3.9v0.9c0,0.1-0.5,0.4-1.4,0.4h-0.3v-7.1
				c-0.6,0.3-1.3,0.6-2.1,0.8l-0.1-0.3c2.1-1,3.9-2.4,5.3-4c-0.5-0.8-1-1.6-1.4-2.5c-0.8,1-1.8,1.9-2.8,2.5l-0.2-0.2
				c1.4-1.6,2.7-4.1,3.3-6.8l2.4,0.8c-0.1,0.2-0.3,0.4-0.7,0.4c-0.2,0.4-0.4,0.8-0.6,1.2h2.4l1-1L278.8,272.6z M277,279.5
				c-1-0.6-1.7-1.2-2.4-1.9c-1,0.9-2.1,1.7-3.4,2.3l1.4,0.6h3.6L277,279.5z M276.3,285.3V281h-3.9v4.3H276.3z M273.5,272.6
				c-0.2,0.4-0.5,0.8-0.7,1.1c0.5,0.8,1,1.5,1.7,2.1c0.7-1,1.3-2.1,1.7-3.2H273.5z"/>
		</g>
	</g>
	<g>
		<g>
			<g>
				<g>
					<g>
						<path class="st4" d="M133.3,171.7c0.5,0.1,0.9,0.2,1.3,0.3c0.4,0.2,0.7,0.4,1,0.6c0.3,0.2,0.5,0.5,0.7,0.8
							c0.2,0.3,0.2,0.6,0.2,1c0,0.4-0.1,0.8-0.3,1.1c-0.2,0.3-0.5,0.6-0.9,0.9c-0.4,0.3-0.8,0.5-1.3,0.6c-0.5,0.1-1,0.2-1.6,0.2
							c-0.2,0-0.4,0-0.6,0c-0.2,0-0.4,0-0.6,0v-0.6c0.4,0.2,0.8,0.3,1.2,0.3c0.4,0,0.7-0.1,1-0.2c0.3-0.1,0.6-0.3,0.8-0.5
							c0.2-0.2,0.4-0.5,0.6-0.8c0.1-0.3,0.2-0.6,0.2-1s-0.1-0.7-0.2-0.9c-0.1-0.3-0.3-0.5-0.6-0.8c-0.2-0.2-0.5-0.4-0.8-0.5
							c-0.3-0.1-0.7-0.2-1-0.2c-0.4,0-0.7,0-1.1,0.1c-0.4,0-0.6,0.1-0.9,0.3v4.7h-1.7l-0.3-0.3h0.3c0.1,0,0.2,0,0.2-0.1
							c0,0,0.1-0.1,0.1-0.1c0,0,0-0.1,0-0.2v-8.1c0-0.1,0-0.2-0.1-0.3c0-0.1-0.1-0.2-0.2-0.2c-0.1-0.1-0.2-0.1-0.4-0.1l0.3-0.3h1.7
							h1.5c0.5,0,0.9,0.1,1.3,0.2c0.4,0.1,0.8,0.3,1.1,0.5c0.3,0.2,0.5,0.5,0.7,0.7c0.2,0.3,0.3,0.6,0.3,0.9c0,0.2-0.1,0.5-0.2,0.7
							c-0.1,0.2-0.3,0.4-0.4,0.6c-0.2,0.2-0.4,0.3-0.7,0.5C133.9,171.5,133.6,171.7,133.3,171.7z M132.1,171.7
							c0.3,0,0.6-0.1,0.8-0.2c0.3-0.1,0.5-0.3,0.7-0.5c0.2-0.2,0.3-0.4,0.5-0.7c0.1-0.2,0.2-0.5,0.2-0.8c0-0.3-0.1-0.5-0.2-0.8
							c-0.1-0.2-0.3-0.4-0.5-0.6c-0.2-0.2-0.5-0.3-0.8-0.4c-0.3-0.1-0.6-0.2-1-0.2c-0.4,0-0.6,0-0.8,0.1c-0.2,0-0.3,0.1-0.4,0.2v3.5
							c0.2,0.1,0.5,0.2,0.7,0.2C131.5,171.7,131.8,171.7,132.1,171.7z"/>
						<path class="st4" d="M150.8,177.1h-2.1l-3.3-8.1l-1.6,4.1h2.5l0.2,0.5h-2.9l-1.4,3.5h-0.7l-0.3-0.3c0.1,0,0.2,0,0.3-0.1
							c0.1-0.1,0.2-0.1,0.2-0.2c0.1-0.1,0.1-0.2,0.2-0.3l3.5-8.8h0.6l3.9,9.1c0,0.1,0.1,0.2,0.3,0.2c0.1,0,0.3,0.1,0.4,0.1
							L150.8,177.1z"/>
						<path class="st4" d="M160.7,167.3c0.8,0,1.6,0.1,2.4,0.4c0.7,0.3,1.4,0.6,2,1.1c0.6,0.5,1,1,1.3,1.6c0.3,0.6,0.5,1.2,0.5,1.9
							c0,0.7-0.2,1.3-0.5,1.9c-0.3,0.6-0.8,1.1-1.3,1.6c-0.6,0.5-1.2,0.8-2,1.1c-0.7,0.3-1.5,0.4-2.4,0.4c-0.8,0-1.6-0.1-2.4-0.4
							c-0.7-0.3-1.4-0.6-2-1.1c-0.6-0.5-1-1-1.3-1.6c-0.3-0.6-0.5-1.2-0.5-1.9c0-0.7,0.2-1.3,0.5-1.9c0.3-0.6,0.8-1.1,1.3-1.6
							c0.6-0.5,1.2-0.8,2-1.1C159.1,167.4,159.9,167.3,160.7,167.3z M160.7,176.7c0.6,0,1.2-0.1,1.7-0.4c0.5-0.2,1-0.6,1.4-1
							c0.4-0.4,0.7-0.9,1-1.4c0.2-0.5,0.4-1.1,0.4-1.8c0-0.6-0.1-1.2-0.4-1.7c-0.2-0.5-0.6-1-1-1.4c-0.4-0.4-0.9-0.7-1.4-1
							c-0.5-0.2-1.1-0.4-1.7-0.4c-0.6,0-1.2,0.1-1.8,0.4c-0.5,0.2-1,0.6-1.4,1c-0.4,0.4-0.7,0.9-1,1.4c-0.2,0.5-0.4,1.1-0.4,1.7
							c0,0.6,0.1,1.2,0.4,1.8c0.2,0.5,0.6,1,1,1.4c0.4,0.4,0.9,0.7,1.4,1C159.5,176.6,160.1,176.7,160.7,176.7z"/>
						<path class="st4" d="M176.5,176.4c0,0.1,0,0.1,0,0.2c0,0,0.1,0.1,0.1,0.1c0,0,0.1,0,0.2,0l0.3,0.3h-0.7h-1.3h-0.3l-0.3-0.3
							h0.3c0.1,0,0.2,0,0.2,0c0,0,0.1-0.1,0.1-0.1c0,0,0-0.1,0-0.2v-7.8c0-0.1,0-0.2-0.1-0.3c0-0.1-0.1-0.1-0.2-0.2
							c-0.1-0.1-0.2-0.1-0.4-0.1h-1.2c-0.2,0-0.4,0-0.5,0.1c-0.1,0.1-0.3,0.2-0.4,0.3c-0.1,0.1-0.2,0.3-0.2,0.5l-0.3-0.3
							c0-0.4,0.1-0.7,0.3-0.9c0.2-0.2,0.5-0.3,1.1-0.3h1h5.7L179,168h-2.5V176.4z"/>
						<path class="st4" d="M193.4,177.1h-2.1l-3.3-8.1l-1.6,4.1h2.5l0.2,0.5h-2.9l-1.4,3.5h-0.7l-0.3-0.3c0.1,0,0.2,0,0.3-0.1
							c0.1-0.1,0.2-0.1,0.2-0.2c0.1-0.1,0.1-0.2,0.2-0.3l3.5-8.8h0.6l3.9,9.1c0,0.1,0.1,0.2,0.3,0.2c0.1,0,0.3,0.1,0.4,0.1
							L193.4,177.1z"/>
						<path class="st4" d="M201.6,177.1h-2.4l-0.3-0.3h0.3c0.2,0,0.2,0,0.3-0.1c0-0.1,0.1-0.2,0.1-0.2v-8.1c0-0.1,0-0.2-0.1-0.3
							c0-0.1-0.1-0.2-0.2-0.2c-0.1-0.1-0.2-0.1-0.4-0.1l0.3-0.3c0.5,0,0.9,0.2,1.2,0.5c0.3,0.3,0.5,0.7,0.5,1.2v7.4
							c0,0,0,0.1,0.1,0.2c0,0.1,0.1,0.1,0.3,0.1L201.6,177.1z"/>
						<path class="st4" d="M227,177.1h-2v-8.4l-4,8.5h-0.6l0.2-0.3l-3.9-7.6l0,7.8h-1l-0.3-0.3h0.3c0.1,0,0.1,0,0.2,0
							c0,0,0.1-0.1,0.1-0.1c0,0,0-0.1,0-0.1c0,0,0-0.1,0-0.1v-8.1c0-0.1,0-0.2-0.1-0.3c0-0.1-0.1-0.2-0.2-0.2
							c-0.1-0.1-0.2-0.1-0.4-0.1l0.3-0.3c0.2,0,0.4,0,0.6,0c0.2,0,0.4,0.1,0.6,0.2c0.2,0.1,0.3,0.2,0.5,0.4l3.9,7.6l3.8-8.2v0h2
							l-0.3,0.3c-0.1,0-0.2,0-0.2,0.1c0,0.1-0.1,0.2-0.1,0.2c0,0.1,0,0.2,0,0.3v8.1c0,0.1,0,0.1,0,0.2c0,0,0.1,0.1,0.1,0.1
							c0,0,0.1,0,0.2,0L227,177.1z"/>
						<path class="st4" d="M242.1,177.1H240l-3.3-8.1l-1.6,4.1h2.5l0.2,0.5h-2.9l-1.4,3.5h-0.7l-0.3-0.3c0.1,0,0.2,0,0.3-0.1
							c0.1-0.1,0.2-0.1,0.2-0.2c0.1-0.1,0.1-0.2,0.2-0.3l3.5-8.8h0.6l3.9,9.1c0,0.1,0.1,0.2,0.3,0.2c0.1,0,0.3,0.1,0.4,0.1
							L242.1,177.1z"/>
						<path class="st4" d="M257,167.3l-0.3,0.3c-0.2,0-0.3,0.1-0.3,0.2s0,0.3,0,0.5v8.7h-0.7v0l-7.4-8.6v8.6h-1l-0.3-0.3h0.3
							c0.1,0,0.2,0,0.2,0c0,0,0.1-0.1,0.1-0.1c0,0,0-0.1,0-0.2v-8.1c0-0.1,0-0.2-0.1-0.3c0-0.1-0.1-0.2-0.2-0.2
							c-0.1-0.1-0.2-0.1-0.4-0.1l0.3-0.3c0.2,0,0.5-0.1,0.7,0c0.2,0,0.4,0.1,0.6,0.1c0.2,0.1,0.4,0.2,0.6,0.4l6.5,7.3v-7.8H257z"/>
						<path class="st4" d="M267.1,172.2c0.5,0.2,0.9,0.5,1.1,0.9c0.3,0.3,0.4,0.7,0.5,1.1c0.1,0.4,0.1,0.7,0,1.1
							c-0.1,0.4-0.3,0.7-0.6,1c-0.3,0.3-0.6,0.5-1.1,0.7c-0.4,0.2-1,0.3-1.6,0.3c-0.6,0-1.1-0.1-1.5-0.2c-0.4-0.1-0.7-0.3-1-0.5
							c-0.3-0.2-0.6-0.4-0.8-0.7l-0.2-2.1c0.1,0.5,0.3,0.9,0.5,1.3c0.2,0.4,0.5,0.7,0.8,1c0.3,0.3,0.6,0.5,1,0.6
							c0.4,0.1,0.8,0.2,1.2,0.2c0.4,0,0.7-0.1,1-0.2c0.3-0.1,0.5-0.3,0.6-0.5c0.1-0.2,0.2-0.4,0.3-0.7c0-0.3,0-0.5,0-0.7
							c-0.1-0.2-0.2-0.5-0.3-0.7c-0.1-0.2-0.3-0.4-0.6-0.5l-2.5-1.4c-0.5-0.2-0.8-0.5-1.1-0.9c-0.3-0.3-0.4-0.7-0.5-1
							c-0.1-0.4-0.1-0.7,0-1.1c0.1-0.4,0.3-0.7,0.5-0.9c0.2-0.3,0.6-0.5,1-0.7c0.4-0.2,0.8-0.3,1.4-0.3c0.4,0,0.8,0,1.1,0.1
							c0.3,0.1,0.6,0.1,0.8,0.2c0.3,0.1,0.5,0.2,0.7,0.3l0.4,1.9c-0.3-0.6-0.8-1.1-1.3-1.5c-0.5-0.4-1.1-0.6-1.8-0.6
							c-0.3,0-0.6,0.1-0.8,0.2c-0.2,0.1-0.4,0.3-0.6,0.5c-0.1,0.2-0.2,0.4-0.3,0.6c0,0.2,0,0.5,0,0.7c0,0.2,0.1,0.5,0.3,0.7
							c0.1,0.2,0.3,0.4,0.5,0.5L267.1,172.2z"/>
						<path class="st4" d="M277.3,177.1h-2.4l-0.3-0.3h0.3c0.2,0,0.2,0,0.3-0.1c0-0.1,0.1-0.2,0.1-0.2v-8.1c0-0.1,0-0.2-0.1-0.3
							c0-0.1-0.1-0.2-0.2-0.2c-0.1-0.1-0.2-0.1-0.4-0.1l0.3-0.3c0.5,0,0.9,0.2,1.2,0.5c0.3,0.3,0.5,0.7,0.5,1.2v7.4
							c0,0,0,0.1,0.1,0.2c0,0.1,0.1,0.1,0.3,0.1L277.3,177.1z"/>
						<path class="st4" d="M288.7,167.3c0.8,0,1.6,0.1,2.4,0.4c0.7,0.3,1.4,0.6,2,1.1c0.6,0.5,1,1,1.3,1.6c0.3,0.6,0.5,1.2,0.5,1.9
							c0,0.7-0.2,1.3-0.5,1.9c-0.3,0.6-0.8,1.1-1.3,1.6c-0.6,0.5-1.2,0.8-2,1.1c-0.7,0.3-1.5,0.4-2.4,0.4c-0.8,0-1.6-0.1-2.4-0.4
							c-0.7-0.3-1.4-0.6-2-1.1c-0.6-0.5-1-1-1.3-1.6c-0.3-0.6-0.5-1.2-0.5-1.9c0-0.7,0.2-1.3,0.5-1.9c0.3-0.6,0.8-1.1,1.3-1.6
							c0.6-0.5,1.2-0.8,2-1.1C287,167.4,287.8,167.3,288.7,167.3z M288.6,176.7c0.6,0,1.2-0.1,1.7-0.4c0.5-0.2,1-0.6,1.4-1
							c0.4-0.4,0.7-0.9,1-1.4c0.2-0.5,0.4-1.1,0.4-1.8c0-0.6-0.1-1.2-0.4-1.7c-0.2-0.5-0.6-1-1-1.4c-0.4-0.4-0.9-0.7-1.4-1
							c-0.5-0.2-1.1-0.4-1.7-0.4c-0.6,0-1.2,0.1-1.8,0.4c-0.5,0.2-1,0.6-1.4,1c-0.4,0.4-0.7,0.9-1,1.4c-0.2,0.5-0.4,1.1-0.4,1.7
							c0,0.6,0.1,1.2,0.4,1.8c0.2,0.5,0.6,1,1,1.4c0.4,0.4,0.9,0.7,1.4,1C287.4,176.6,288,176.7,288.6,176.7z"/>
						<path class="st4" d="M310.3,167.3l-0.3,0.3c-0.2,0-0.3,0.1-0.3,0.2c0,0.1,0,0.3,0,0.5v8.7h-0.7v0l-7.4-8.6v8.6h-1l-0.3-0.3
							h0.3c0.1,0,0.2,0,0.2,0c0,0,0.1-0.1,0.1-0.1c0,0,0-0.1,0-0.2v-8.1c0-0.1,0-0.2-0.1-0.3c0-0.1-0.1-0.2-0.2-0.2
							c-0.1-0.1-0.2-0.1-0.4-0.1l0.3-0.3c0.2,0,0.5-0.1,0.7,0c0.2,0,0.4,0.1,0.6,0.1c0.2,0.1,0.4,0.2,0.6,0.4l6.5,7.3v-7.8H310.3z"
							/>
					</g>
				</g>
			</g>
		</g>
		<g>
			<g>
				<g>
					<g>
						<g>
							<path class="st4" d="M201.8,120.3h11.1c0.2,0,0.2-0.2,0.1-0.3l-2.5-3.1c-0.1-0.1-0.2-0.1-0.3,0l-1.8,1.8c0,0-0.1,0.1-0.1,0.1
								l-18.9-0.1c0.7-1.1,1.3-2.4,1.8-3.4h19.4c0.2,0,0.2-0.2,0.1-0.3l-2.5-3.1c-0.1-0.1-0.2-0.1-0.3,0l-1.8,1.8
								c0,0-0.1,0.1-0.1,0.1l-13.9-0.1c0.8-1.4,1.2-2.6,1.6-3.7h17c0.2,0,0.2-0.2,0.1-0.3l-2.5-3.1c-0.1-0.1-0.2-0.1-0.3,0l-1.8,1.8
								c0,0-0.1,0.1-0.1,0.1l-11.8,0c0.3-0.9,0.4-1.4,0.4-1.6c0,0,0-0.1,0.1-0.1l2.4-1.8c0.1-0.1,0.1-0.2-0.1-0.3l-8.5-1.4
								c-0.1,0-0.2,0-0.2,0.1c-0.1,0.5-0.4,2.3-1.1,5l-13.5,0c-0.1,0-0.2,0.1-0.2,0.2v1.3c0,0.1,0.1,0.2,0.2,0.2h13
								c-0.4,1.2-0.9,2.3-1.5,3.7l-10,0c-0.1,0-0.2,0.1-0.2,0.2v1.3c0,0.1,0.1,0.2,0.2,0.2h9.2c-0.5,1-1,2.3-1.6,3.4l-11.4,0
								c-0.1,0-0.2,0.1-0.2,0.2v1.3c0,0.1,0.1,0.2,0.2,0.2h10.5c-2.6,4.3-6.2,8.8-11.1,12.7c-0.1,0.1,0.6,0.4,0.7,0.4
								c3.5-1.1,6.5-2.7,9-4.7c0.6,0.4,2.2,1.5,2.3,1.6c0.9,0.7,1.8,1.4,2.6,2.2c0.4,0.4,0.8,0.8,1.2,1.2c0.3,0.3,0.7,0.7,1.3,0.7
								c0.9,0,1.6-1.1,1.9-1.8c0.3-0.6,0.4-1.4,0.2-2.1c-0.2-0.9-1-1.4-1.8-1.7c-1.3-0.5-2.7-0.7-4.1-0.9c-0.8-0.1-1.6-0.2-2.5-0.2
								c2.7-2.3,4.9-4.9,6.7-7.5h10c3,7.7,9.9,11.6,13.7,13.1c0.1-1.4,1.2-3.7,3.3-5.5C210.4,127.5,204.9,124,201.8,120.3z"/>
							<path class="st4" d="M197.1,135.2l6-3.6c0.1,0,0.2-0.1,0.3-0.1l0.9-0.1c0.1,0,0.2-0.1,0.3-0.1c0.3-0.3,0.3-0.7,0-1l-4-2.7
								c-0.3-0.2-0.6-0.1-0.8,0.1l-3.7,5v-9.9h-5.5l-0.1,11.9l-16.5,3.7l2.8,6.5l1.5-1.9l12.2-6.2l0,5.3c0,2.8-3.4,2.9-9.4,2.7v0.6
								c3.1,0.9,7.1,1.1,7.2,4.7c7.4,0,7.8-1.5,7.8-6.8v-6.4c2.9,1.3,8.3,4.1,11.9,9.1c1.8-1,4.7-4,3-6.4
								C209.2,137,201,135.7,197.1,135.2z"/>
						</g>
						<path class="st4" d="M159.1,127.8h9.1l-4-3.9l-2,2.1l-7.2,0v-5.9h3.2v2.3l5.6-1.3v-14.4l1-0.8l-5-2.7l-2,2.7h-11.6l-5.3-2.4
							v20.3l5.3-1.3v-2.4h3.4v5.9l-12.2-0.1v2h5.4c-0.2,2.6-1.2,11.9-8.1,17.2l0-29.5l-1.4,0c3.2-5.4,4.8-9.9,4.8-9.9l1.6-1.2
							l-8.8-1.7c-0.5,2.7-1.6,11.9-9.5,25.4c0,0,1.3,0.5,1.3,0.5c2.4-2.1,4.5-4.4,6.4-6.9v28.3h5.7l0-3.6c3.5-1.3,5.7-2.9,7.8-5.4
							c2.3-2.8,4.1-5.4,5-10.4c0.2-1.1,0.3-2.2,0.3-2.9h1.7v22.4h5.4v-22.4h1.5c2.4,11.7,6.7,17,9.2,19.1c0.3-1.8,2-3.9,5-5
							C165.8,138.6,161.9,133.1,159.1,127.8z M158.2,106.9v11.7h-12v-11.7H158.2z"/>
						<g>
							<path class="st4" d="M281.3,120.8h14.4v3.2l6.3-1.4v-16.3l1.2-0.9l-5.7-2.4l-2.2,2.4h-13.9l-6-2.3V124l6-1.4V120.8z
								 M295.6,106.8v12.5h-14.4v-12.5H295.6z"/>
							<path class="st4" d="M281.4,127.8h-8.8l-5.4-1.9v24.2l5.4-1.4V147h9.3v3.1l5.5-1.4l0.2-19.9l1.1-0.9l-5.2-2.4L281.4,127.8z
								 M272.5,145.5v-16.4h9.3l0,16.4H272.5z"/>
							<path class="st4" d="M306.4,125.4l-2,2.4h-8.8l-5.4-1.9v24.2l5.4-1.4V147h9.3v3.1l5.5-1.4l0.2-19.9l1.1-0.9L306.4,125.4z
								 M295.6,145.5v-16.4h9.3l0,16.4H295.6z"/>
						</g>
					</g>
				</g>
			</g>
			<path class="st4" d="M220.2,122c-1.1,0,1.7,2.9,2.5,3.7c0.1,0.1,0.2,0.2,0.4,0.2l37.3,0l0.7-0.7c0.2-0.2,0.2-0.4,0-0.6l-4.3-5.3
				l-3.2,2.9C253.6,122,224.8,122,220.2,122z"/>
		</g>
		<g>
			<rect x="99.7" y="97.2" class="st0" width="1" height="6.7"/>
			<g>
				<g>
					<rect x="101.8" y="173.2" class="st0" width="0.6" height="7.3"/>
				</g>
				<g>
					<rect x="97.6" y="173.2" class="st0" width="0.6" height="7.3"/>
				</g>
			</g>
			<g>
				<rect x="90.2" y="103.9" class="st0" width="0.9" height="67.8"/>
			</g>
			<g>
				<rect x="99.7" y="103.9" class="st0" width="2.6" height="63.6"/>
			</g>
			<g>
				<rect x="86.8" y="103.9" class="st0" width="2.6" height="63.6"/>
			</g>
			<g>
				<rect x="76" y="95.9" class="st0" width="0.4" height="8.4"/>
			</g>
			<g>
				<rect x="71.1" y="95.9" class="st0" width="0.4" height="8.4"/>
			</g>
			<g>
				<rect x="88.9" y="99.2" class="st0" width="3.2" height="0.7"/>
			</g>
			<g>
				<rect x="97" y="99.2" class="st0" width="3.2" height="0.7"/>
			</g>
			<g>
				<rect x="69.7" y="99.2" class="st0" width="1.6" height="0.7"/>
			</g>
			<g>
				<rect x="76.2" y="99.2" class="st0" width="2.9" height="0.6"/>
			</g>
			<g>
				<rect x="64.3" y="171.7" class="st0" width="41.2" height="2"/>
			</g>
			<g>
				<rect x="64.3" y="176.5" class="st0" width="41.2" height="0.6"/>
			</g>
			<g>
				<g>
					<rect x="92.2" y="110.3" class="st0" width="4.6" height="0.7"/>
				</g>
			</g>
			<g>
				<g>
					<rect x="92.2" y="123" class="st0" width="4.6" height="0.7"/>
				</g>
			</g>
			<g>
				<g>
					<rect x="71.5" y="123" class="st0" width="4.6" height="0.7"/>
				</g>
			</g>
			<g>
				<g>
					<rect x="71.5" y="135.6" class="st0" width="4.6" height="0.7"/>
				</g>
			</g>
			<g>
				<g>
					<rect x="92.2" y="135.6" class="st0" width="4.6" height="0.7"/>
				</g>
			</g>
			<g>
				<g>
					<rect x="92.2" y="148.2" class="st0" width="4.6" height="0.7"/>
				</g>
			</g>
			<g>
				<g>
					<rect x="71.5" y="148.2" class="st0" width="4.6" height="0.7"/>
				</g>
			</g>
			<g>
				<g>
					<rect x="71.5" y="160.9" class="st0" width="4.6" height="0.7"/>
				</g>
			</g>
			<g>
				<g>
					<rect x="92.2" y="160.9" class="st0" width="4.6" height="0.7"/>
				</g>
			</g>
			<g>
				<g>
					<rect x="71.5" y="110.3" class="st0" width="4.6" height="0.7"/>
				</g>
			</g>
			<g>
				<rect x="84.5" y="103.9" class="st0" width="20.1" height="1"/>
			</g>
			<g>
				<rect x="65.2" y="103.9" class="st0" width="16.6" height="1"/>
			</g>
			<g>
				<g>
					<path class="st0" d="M64,181.4v-9.9h41.8v9.9L64,181.4z M65,172.1v8l39.8,0v-7.9H65z"/>
				</g>
			</g>
			<g>
				<rect x="97.6" y="173.2" class="st0" width="0.6" height="7.3"/>
			</g>
			<g>
				<rect x="77.5" y="173.2" class="st0" width="0.6" height="7.3"/>
			</g>
			<g>
				<rect x="81.5" y="173.3" class="st0" width="0.6" height="7.3"/>
			</g>
			<g>
				<rect x="85.5" y="173.2" class="st0" width="0.6" height="7.3"/>
			</g>
			<g>
				<rect x="89.8" y="173.2" class="st0" width="0.6" height="7.3"/>
			</g>
			<g>
				<rect x="93.9" y="173.2" class="st0" width="0.6" height="7.3"/>
			</g>
			<g>
				<rect x="73.2" y="173.2" class="st0" width="0.6" height="7.3"/>
			</g>
			<g>
				<rect x="68.9" y="173.2" class="st0" width="0.6" height="7.3"/>
			</g>
			<g>
				<rect x="65.2" y="116.5" class="st0" width="16.6" height="1.2"/>
			</g>
			<g>
				<rect x="65.2" y="129.2" class="st0" width="16.6" height="1.2"/>
			</g>
			<g>
				<rect x="65.2" y="141.7" class="st0" width="16.6" height="1.2"/>
			</g>
			<g>
				<rect x="65.2" y="154.2" class="st0" width="16.6" height="1.2"/>
			</g>
			<g>
				<rect x="65.2" y="166.9" class="st0" width="39.4" height="1.2"/>
			</g>
			<g>
				<rect x="92.3" y="166.9" class="st0" width="12.3" height="1.2"/>
			</g>
			<g>
				<rect x="84.4" y="116.4" class="st0" width="20.2" height="1.3"/>
			</g>
			<g>
				<rect x="84.4" y="129.1" class="st0" width="20.2" height="1.3"/>
			</g>
			<g>
				<rect x="84.4" y="141.7" class="st0" width="20.2" height="1.3"/>
			</g>
			<g>
				<rect x="84.4" y="154.2" class="st0" width="20.2" height="1.3"/>
			</g>
			<g>
				<g>
					<g>
						<path class="st0" d="M94.5,104.9l-2.6-3.5l2.6-3.5l2.6,3.5L94.5,104.9z M92.3,101.4l2.2,2.9l2.2-2.9l-2.2-2.9L92.3,101.4z"/>
					</g>
					<g>
						<rect x="96.8" y="95.9" class="st0" width="0.4" height="8.1"/>
					</g>
					<g>
						<rect x="91.9" y="95.9" class="st0" width="0.4" height="8.1"/>
					</g>
					<g>
						<path class="st0" d="M94.5,103.2l-1-1.3v-1l1-1.3l1,1.3v1L94.5,103.2z M93.8,101.8l0.7,0.9l0.7-0.9V101l-0.7-0.9l-0.7,0.9
							V101.8z"/>
					</g>
					<g>
						<path class="st0" d="M94.5,102.2l-0.5-0.6v-0.5l0.5-0.6l0.5,0.6v0.5L94.5,102.2z"/>
					</g>
					<g>
						<rect x="92.1" y="97.4" class="st0" width="4.9" height="0.7"/>
					</g>
					<g>
						<g>
							<polygon class="st0" points="95,101.2 94.9,101.1 95.3,100.9 95.3,101 							"/>
						</g>
						<g>
							<polygon class="st0" points="95,101.6 94.9,101.7 95.3,101.9 95.3,101.8 							"/>
						</g>
					</g>
					<g>
						<g>
							<polygon class="st0" points="94.1,101.2 94.2,101.1 93.8,100.9 93.7,101 							"/>
						</g>
						<g>
							<polygon class="st0" points="94.1,101.6 94.2,101.7 93.8,101.9 93.7,101.8 							"/>
						</g>
					</g>
					<g>
						<polygon class="st0" points="94.6,102.8 94.5,102.8 94.5,100 94.6,100 						"/>
					</g>
					<g>
						<g>
							<rect x="95.8" y="98" class="st0" width="0.4" height="6"/>
						</g>
					</g>
					<g>
						<g>
							<rect x="92.8" y="98" class="st0" width="0.4" height="6"/>
						</g>
					</g>
				</g>
			</g>
			<g>
				<polygon class="st0" points="74.2,101.6 74.2,101.5 74.5,101.4 74.5,101.4 				"/>
			</g>
			<g>
				<polygon class="st0" points="73.4,101.6 73.1,101.4 73.1,101.4 73.4,101.5 				"/>
			</g>
			<path class="st0" d="M64.7,97.2v74.6h1V97.2H64.7z"/>
			<path class="st0" d="M81.3,97.2v74.6h1V97.2H81.3z"/>
			<path class="st0" d="M84,97.2v74.3h1V97.2H84z"/>
			<path class="st0" d="M104.1,97.2v74.6h1V97.2H104.1z"/>
			<rect x="88.4" y="97.2" class="st0" width="1" height="6.7"/>
			<rect x="78.6" y="97.3" class="st0" width="1" height="6.7"/>
			<rect x="69.2" y="97.3" class="st0" width="1" height="6.7"/>
			<g>
				<g>
					<g>
						<path class="st0" d="M73.8,104.9l-2.6-3.5l2.6-3.5l2.6,3.5L73.8,104.9z M71.6,101.4l2.2,2.9l2.2-2.9l-2.2-2.9L71.6,101.4z"/>
					</g>
					<g>
						<path class="st0" d="M73.8,103.6l-1.5-2l1.5-2l1.5,2L73.8,103.6z M72.6,101.6l1.2,1.5l1.2-1.5l-1.2-1.5L72.6,101.6z"/>
					</g>
					<g>
						<rect x="71.3" y="97.4" class="st0" width="4.9" height="0.7"/>
					</g>
					<g>
						<rect x="71.3" y="101.3" class="st0" width="4.7" height="2.7"/>
					</g>
					<g>
						<g>
							<rect x="75" y="97.7" class="st0" width="0.4" height="4.3"/>
						</g>
					</g>
					<g>
						<g>
							<rect x="72.2" y="97.7" class="st0" width="0.4" height="4.3"/>
						</g>
					</g>
				</g>
			</g>
			<g>
				<rect x="91.9" y="103.9" class="st0" width="0.9" height="67.8"/>
			</g>
			<g>
				<rect x="88.5" y="104.4" class="st0" width="0.9" height="67.3"/>
			</g>
			<g>
				<rect x="71.1" y="104.3" class="st0" width="0.9" height="67.8"/>
			</g>
			<g>
				<rect x="75.6" y="104.3" class="st0" width="0.9" height="67.8"/>
			</g>
			<g>
				<rect x="96.3" y="103.9" class="st0" width="0.9" height="67.8"/>
			</g>
			<g>
				<g>
					<rect x="98.7" y="99.7" class="st0" width="0.4" height="4.3"/>
				</g>
				<g>
					<rect x="97.8" y="99.7" class="st0" width="0.4" height="4.3"/>
				</g>
			</g>
			<g>
				<rect x="67.3" y="100.7" class="st0" width="0.9" height="71.5"/>
			</g>
			<g>
				<g>
					<rect x="90.9" y="99.7" class="st0" width="0.4" height="4.3"/>
				</g>
				<g>
					<rect x="89.9" y="99.7" class="st0" width="0.4" height="4.3"/>
				</g>
			</g>
			<g>
				<g>
					<rect x="77.3" y="99.7" class="st0" width="0.4" height="4.3"/>
				</g>
			</g>
			<g>
				<rect x="77.8" y="104.2" class="st0" width="2.6" height="63.2"/>
			</g>
		</g>
	</g>
	<polyline class="st5" points="88.9,287.7 61.6,287.7 61.6,271.3 88.9,271.3 	"/>
	<polyline class="st5" points="285.3,287.7 312.6,287.7 312.6,271.3 285.3,271.3 	"/>
</g>
<g>
	<g>
		<g>
			<path class="st6" d="M277.9,647l-12.1-7.8v5.8l7.2,4.7l0,0c0.1,0.1,0.2,0.1,0.3,0.1c0.1,0,0.2,0,0.3-0.1l0,0L277.9,647z"/>
			<path class="st6" d="M284.8,639.1l-9.1-5.9l0,0c-0.1-0.1-0.2-0.1-0.3-0.1c-0.1,0-0.2,0-0.3,0.1l-9.2,5.9l4.5,2.9l6.1-3.9
				c0.1-0.1,0.3-0.2,0.6,0c0,0,0,0,0,0l7.7,5V639.1z"/>
			<path class="st7" d="M277.2,640.8c-0.1,0-0.2,0-0.3,0.1l0,0l-4.2,2.7l12.1,7.8v-5.8l-7.2-4.7l0,0
				C277.4,640.9,277.3,640.8,277.2,640.8"/>
			<path class="st7" d="M265.8,651.5l9.1,5.9l0,0c0.1,0.1,0.2,0.1,0.3,0.1c0.1,0,0.2,0,0.3-0.1l9.2-5.9l-4.5-2.9l-6.1,4
				c-0.1,0.1-0.3,0.2-0.6,0c0,0,0,0,0,0l-7.7-5V651.5z"/>
			<g>
				<g>
					<g>
						<path class="st0" d="M289.7,650.8l-0.2,0.2c-0.2-0.2-0.4-0.2-0.6-0.2c-0.3,0-0.5,0.1-0.5,0.4c0,0.2,0.1,0.4,0.6,0.5
							c0.5,0.1,0.8,0.3,0.8,0.8c0,0.5-0.4,0.8-1,0.8c-0.4,0-0.7-0.1-0.9-0.4l0.2-0.2c0.2,0.2,0.4,0.3,0.7,0.3c0.3,0,0.6-0.2,0.6-0.5
							c0-0.3-0.1-0.4-0.6-0.6c-0.5-0.2-0.8-0.4-0.8-0.8c0-0.4,0.4-0.7,0.9-0.7C289.2,650.5,289.5,650.6,289.7,650.8z"/>
						<path class="st0" d="M291.8,653.3h-0.3l0-0.3c-0.2,0.3-0.4,0.4-0.7,0.4c-0.4,0-0.6-0.2-0.6-0.6v-1.5h0.3v1.5
							c0,0.3,0.1,0.4,0.3,0.4c0.2,0,0.4-0.2,0.5-0.4v-1.5h0.3V653.3z"/>
						<path class="st0" d="M294,651.8v1.5h-0.3v-1.5c0-0.3-0.1-0.4-0.3-0.4c-0.2,0-0.4,0.2-0.6,0.4v1.5h-0.3v-2.1h0.3l0,0.3
							c0.2-0.2,0.4-0.4,0.7-0.4C293.8,651.2,294,651.4,294,651.8z"/>
						<path class="st0" d="M297.4,650.8l-0.2,0.2c-0.2-0.1-0.3-0.2-0.5-0.2c-0.4,0-0.8,0.3-0.8,1.1c0,0.8,0.3,1.1,0.8,1.1
							c0.3,0,0.4-0.1,0.6-0.2l0.2,0.2c-0.2,0.2-0.4,0.3-0.8,0.3c-0.7,0-1.1-0.5-1.1-1.4c0-0.9,0.5-1.4,1.1-1.4
							C297,650.5,297.2,650.6,297.4,650.8z"/>
						<path class="st0" d="M299.4,651.8v1.5H299v-1.5c0-0.3-0.1-0.4-0.3-0.4c-0.2,0-0.4,0.2-0.6,0.4v1.5h-0.3v-2.9l0.3,0v1.2
							c0.2-0.2,0.4-0.4,0.6-0.4C299.1,651.2,299.4,651.4,299.4,651.8z"/>
						<path class="st0" d="M301.6,653.1l-0.1,0.2c-0.2,0-0.3-0.1-0.4-0.3c-0.1,0.2-0.4,0.3-0.6,0.3c-0.4,0-0.7-0.3-0.7-0.6
							c0-0.4,0.3-0.7,0.9-0.7h0.3v-0.2c0-0.3-0.1-0.4-0.5-0.4c-0.2,0-0.4,0-0.6,0.1l-0.1-0.2c0.3-0.1,0.5-0.1,0.7-0.1
							c0.5,0,0.7,0.3,0.7,0.7v1C301.4,653,301.5,653.1,301.6,653.1z M301.1,652.8v-0.5h-0.3c-0.4,0-0.6,0.1-0.6,0.4
							c0,0.3,0.1,0.4,0.4,0.4C300.8,653.1,300.9,653,301.1,652.8z"/>
						<path class="st0" d="M303.6,651.8v1.5h-0.3v-1.5c0-0.3-0.1-0.4-0.3-0.4c-0.2,0-0.4,0.2-0.6,0.4v1.5h-0.3v-2.1h0.3l0,0.3
							c0.2-0.2,0.4-0.4,0.7-0.4C303.4,651.2,303.6,651.4,303.6,651.8z"/>
						<path class="st0" d="M306,651.3c-0.2,0.1-0.4,0.1-0.6,0.1c0.2,0.1,0.4,0.3,0.4,0.5c0,0.4-0.3,0.7-0.8,0.7c-0.1,0-0.2,0-0.3,0
							c-0.1,0-0.1,0.1-0.1,0.2c0,0.1,0.1,0.2,0.3,0.2h0.3c0.4,0,0.7,0.2,0.7,0.6c0,0.4-0.3,0.6-1,0.6c-0.7,0-0.9-0.2-0.9-0.6h0.3
							c0,0.3,0.1,0.4,0.6,0.4c0.5,0,0.6-0.1,0.6-0.3c0-0.2-0.2-0.3-0.4-0.3h-0.3c-0.4,0-0.5-0.2-0.5-0.4c0-0.1,0.1-0.3,0.2-0.4
							c-0.2-0.1-0.4-0.3-0.4-0.6c0-0.4,0.3-0.7,0.8-0.7c0.5,0,0.7-0.1,1-0.2L306,651.3z M304.5,651.9c0,0.3,0.2,0.5,0.5,0.5
							c0.3,0,0.5-0.2,0.5-0.5c0-0.3-0.2-0.5-0.5-0.5C304.6,651.4,304.5,651.6,304.5,651.9z"/>
						<path class="st0" d="M307.8,652.4h-1.4c0,0.5,0.3,0.7,0.6,0.7c0.2,0,0.4-0.1,0.6-0.2l0.1,0.2c-0.2,0.2-0.4,0.3-0.7,0.3
							c-0.6,0-0.9-0.4-0.9-1.1c0-0.7,0.3-1.1,0.9-1.1c0.6,0,0.9,0.4,0.9,1C307.8,652.3,307.8,652.3,307.8,652.4z M307.5,652.1
							c0-0.4-0.2-0.7-0.5-0.7c-0.3,0-0.5,0.2-0.5,0.7L307.5,652.1L307.5,652.1z"/>
						<path class="st0" d="M309.6,653.3h-0.3v-2.8h0.3V653.3z"/>
						<path class="st0" d="M311.9,651.8v1.5h-0.3v-1.5c0-0.3-0.1-0.4-0.3-0.4c-0.2,0-0.4,0.2-0.6,0.4v1.5h-0.3v-2.1h0.3l0,0.3
							c0.2-0.2,0.4-0.4,0.7-0.4C311.7,651.2,311.9,651.4,311.9,651.8z"/>
						<path class="st0" d="M313.6,653.2c-0.1,0.1-0.3,0.1-0.5,0.1c-0.3,0-0.6-0.2-0.6-0.6v-1.3h-0.4v-0.3h0.4v-0.5l0.3,0v0.5h0.5
							l0,0.3h-0.5v1.3c0,0.2,0.1,0.3,0.3,0.3c0.1,0,0.2,0,0.3-0.1L313.6,653.2z"/>
						<path class="st0" d="M315.4,652.4h-1.4c0,0.5,0.3,0.7,0.6,0.7c0.2,0,0.4-0.1,0.6-0.2l0.1,0.2c-0.2,0.2-0.4,0.3-0.7,0.3
							c-0.6,0-0.9-0.4-0.9-1.1c0-0.7,0.3-1.1,0.9-1.1c0.6,0,0.9,0.4,0.9,1C315.4,652.3,315.4,652.3,315.4,652.4z M315.1,652.1
							c0-0.4-0.2-0.7-0.5-0.7c-0.3,0-0.5,0.2-0.5,0.7L315.1,652.1L315.1,652.1z"/>
						<path class="st0" d="M317,651.2l-0.1,0.3c-0.1,0-0.1,0-0.2,0c-0.3,0-0.4,0.2-0.5,0.6v1.2h-0.3v-2.1h0.3l0,0.4
							c0.1-0.3,0.3-0.5,0.6-0.5C316.9,651.2,317,651.2,317,651.2z"/>
						<path class="st0" d="M318.9,651.8v1.5h-0.3v-1.5c0-0.3-0.1-0.4-0.3-0.4c-0.2,0-0.4,0.2-0.6,0.4v1.5h-0.3v-2.1h0.3l0,0.3
							c0.2-0.2,0.4-0.4,0.7-0.4C318.7,651.2,318.9,651.4,318.9,651.8z"/>
						<path class="st0" d="M321.1,653.1l-0.1,0.2c-0.2,0-0.3-0.1-0.4-0.3c-0.1,0.2-0.4,0.3-0.6,0.3c-0.4,0-0.7-0.3-0.7-0.6
							c0-0.4,0.3-0.7,0.9-0.7h0.3v-0.2c0-0.3-0.1-0.4-0.5-0.4c-0.2,0-0.4,0-0.6,0.1l-0.1-0.2c0.3-0.1,0.5-0.1,0.7-0.1
							c0.5,0,0.7,0.3,0.7,0.7v1C321,653,321,653.1,321.1,653.1z M320.6,652.8v-0.5h-0.3c-0.4,0-0.6,0.1-0.6,0.4
							c0,0.3,0.1,0.4,0.4,0.4C320.3,653.1,320.5,653,320.6,652.8z"/>
						<path class="st0" d="M322.6,653.2c-0.1,0.1-0.3,0.1-0.5,0.1c-0.3,0-0.6-0.2-0.6-0.6v-1.3h-0.4v-0.3h0.4v-0.5l0.3,0v0.5h0.5
							l0,0.3h-0.5v1.3c0,0.2,0.1,0.3,0.3,0.3c0.1,0,0.2,0,0.3-0.1L322.6,653.2z"/>
						<path class="st0" d="M323.3,650.5c0,0.1-0.1,0.2-0.2,0.2c-0.1,0-0.2-0.1-0.2-0.2c0-0.1,0.1-0.2,0.2-0.2
							C323.2,650.2,323.3,650.3,323.3,650.5z M323.2,653.3h-0.3v-2.1h0.3V653.3z"/>
						<path class="st0" d="M325.6,652.3c0,0.7-0.3,1.1-0.9,1.1s-0.9-0.4-0.9-1.1c0-0.7,0.3-1.1,0.9-1.1
							C325.3,651.2,325.6,651.6,325.6,652.3z M324.1,652.3c0,0.6,0.2,0.8,0.6,0.8c0.4,0,0.6-0.3,0.6-0.8c0-0.6-0.2-0.8-0.6-0.8
							C324.3,651.4,324.1,651.7,324.1,652.3z"/>
						<path class="st0" d="M327.7,651.8v1.5h-0.3v-1.5c0-0.3-0.1-0.4-0.3-0.4c-0.2,0-0.4,0.2-0.6,0.4v1.5h-0.3v-2.1h0.3l0,0.3
							c0.2-0.2,0.4-0.4,0.7-0.4C327.5,651.2,327.7,651.4,327.7,651.8z"/>
						<path class="st0" d="M329.9,653.1l-0.1,0.2c-0.2,0-0.3-0.1-0.4-0.3c-0.1,0.2-0.4,0.3-0.6,0.3c-0.4,0-0.7-0.3-0.7-0.6
							c0-0.4,0.3-0.7,0.9-0.7h0.3v-0.2c0-0.3-0.1-0.4-0.5-0.4c-0.2,0-0.4,0-0.6,0.1l-0.1-0.2c0.3-0.1,0.5-0.1,0.7-0.1
							c0.5,0,0.7,0.3,0.7,0.7v1C329.7,653,329.8,653.1,329.9,653.1z M329.4,652.8v-0.5h-0.3c-0.4,0-0.6,0.1-0.6,0.4
							c0,0.3,0.1,0.4,0.4,0.4C329.1,653.1,329.3,653,329.4,652.8z"/>
						<path class="st0" d="M330.4,652.9v-2.6l0.3,0v2.6c0,0.1,0,0.2,0.1,0.2c0.1,0,0.1,0,0.1,0l0.1,0.2c-0.1,0-0.2,0.1-0.3,0.1
							C330.6,653.4,330.4,653.2,330.4,652.9z"/>
						<path class="st0" d="M332.9,653h1.1l0,0.3h-1.4v-2.8h0.3V653z"/>
						<path class="st0" d="M334.8,650.5c0,0.1-0.1,0.2-0.2,0.2c-0.1,0-0.2-0.1-0.2-0.2c0-0.1,0.1-0.2,0.2-0.2
							C334.7,650.2,334.8,650.3,334.8,650.5z M334.7,653.3h-0.3v-2.1h0.3V653.3z"/>
						<path class="st0" d="M338,651.8v1.5h-0.3v-1.5c0-0.3-0.1-0.4-0.3-0.4c-0.2,0-0.4,0.2-0.5,0.4v1.5h-0.3v-1.5
							c0-0.3-0.1-0.4-0.3-0.4c-0.2,0-0.4,0.2-0.5,0.4v1.5h-0.3v-2.1h0.3l0,0.3c0.1-0.2,0.3-0.4,0.6-0.4c0.3,0,0.5,0.1,0.5,0.4
							c0.2-0.2,0.4-0.4,0.6-0.4C337.8,651.2,338,651.4,338,651.8z"/>
						<path class="st0" d="M339.1,650.5c0,0.1-0.1,0.2-0.2,0.2c-0.1,0-0.2-0.1-0.2-0.2c0-0.1,0.1-0.2,0.2-0.2
							C339,650.2,339.1,650.3,339.1,650.5z M339,653.3h-0.3v-2.1h0.3V653.3z"/>
						<path class="st0" d="M340.7,653.2c-0.1,0.1-0.3,0.1-0.5,0.1c-0.3,0-0.6-0.2-0.6-0.6v-1.3h-0.4v-0.3h0.4v-0.5l0.3,0v0.5h0.5
							l0,0.3H340v1.3c0,0.2,0.1,0.3,0.3,0.3c0.1,0,0.2,0,0.3-0.1L340.7,653.2z"/>
						<path class="st0" d="M342.5,652.4h-1.4c0,0.5,0.3,0.7,0.6,0.7c0.2,0,0.4-0.1,0.6-0.2l0.1,0.2c-0.2,0.2-0.4,0.3-0.7,0.3
							c-0.6,0-0.9-0.4-0.9-1.1c0-0.7,0.3-1.1,0.9-1.1c0.6,0,0.9,0.4,0.9,1C342.5,652.3,342.5,652.3,342.5,652.4z M342.2,652.1
							c0-0.4-0.2-0.7-0.5-0.7c-0.3,0-0.5,0.2-0.5,0.7L342.2,652.1L342.2,652.1z"/>
						<path class="st0" d="M344.6,650.4v3h-0.3l0-0.3c-0.1,0.2-0.3,0.3-0.6,0.3c-0.5,0-0.8-0.4-0.8-1.1c0-0.6,0.3-1.1,0.8-1.1
							c0.3,0,0.4,0.1,0.6,0.3v-1.1L344.6,650.4z M344.3,652.8v-1c-0.1-0.2-0.3-0.3-0.5-0.3c-0.3,0-0.5,0.3-0.5,0.8
							c0,0.6,0.2,0.8,0.5,0.8C344,653.1,344.1,653,344.3,652.8z"/>
						<path class="st0" d="M347.7,651.4l-0.2,0.2c-0.1-0.1-0.3-0.2-0.5-0.2c-0.3,0-0.6,0.3-0.6,0.8c0,0.6,0.2,0.8,0.6,0.8
							c0.2,0,0.3-0.1,0.5-0.2l0.2,0.2c-0.2,0.2-0.4,0.2-0.6,0.2c-0.6,0-0.9-0.4-0.9-1.1c0-0.7,0.3-1.1,0.9-1.1
							C347.3,651.2,347.5,651.2,347.7,651.4z"/>
						<path class="st0" d="M349.7,652.3c0,0.7-0.3,1.1-0.9,1.1s-0.9-0.4-0.9-1.1c0-0.7,0.3-1.1,0.9-1.1
							C349.4,651.2,349.7,651.6,349.7,652.3z M348.2,652.3c0,0.6,0.2,0.8,0.6,0.8c0.4,0,0.6-0.3,0.6-0.8c0-0.6-0.2-0.8-0.6-0.8
							C348.4,651.4,348.2,651.7,348.2,652.3z"/>
						<path class="st0" d="M352.9,651.8v1.5h-0.3v-1.5c0-0.3-0.1-0.4-0.3-0.4c-0.2,0-0.4,0.2-0.5,0.4v1.5h-0.3v-1.5
							c0-0.3-0.1-0.4-0.3-0.4c-0.2,0-0.4,0.2-0.5,0.4v1.5h-0.3v-2.1h0.3l0,0.3c0.1-0.2,0.3-0.4,0.6-0.4c0.3,0,0.5,0.1,0.5,0.4
							c0.2-0.2,0.4-0.4,0.6-0.4C352.7,651.2,352.9,651.4,352.9,651.8z"/>
						<path class="st0" d="M355.2,652.3c0,0.6-0.3,1.1-0.8,1.1c-0.2,0-0.4-0.1-0.6-0.3v1l-0.3,0v-2.9h0.3l0,0.3
							c0.2-0.2,0.4-0.3,0.6-0.3C355,651.2,355.2,651.6,355.2,652.3z M354.9,652.3c0-0.6-0.2-0.8-0.5-0.8c-0.2,0-0.4,0.2-0.5,0.3v1
							c0.1,0.2,0.3,0.3,0.5,0.3C354.7,653.1,354.9,652.8,354.9,652.3z"/>
						<path class="st0" d="M357.3,653.1l-0.1,0.2c-0.2,0-0.3-0.1-0.4-0.3c-0.1,0.2-0.4,0.3-0.6,0.3c-0.4,0-0.7-0.3-0.7-0.6
							c0-0.4,0.3-0.7,0.9-0.7h0.3v-0.2c0-0.3-0.1-0.4-0.5-0.4c-0.2,0-0.4,0-0.6,0.1l-0.1-0.2c0.3-0.1,0.5-0.1,0.7-0.1
							c0.5,0,0.7,0.3,0.7,0.7v1C357.1,653,357.2,653.1,357.3,653.1z M356.8,652.8v-0.5h-0.3c-0.4,0-0.6,0.1-0.6,0.4
							c0,0.3,0.1,0.4,0.4,0.4C356.5,653.1,356.6,653,356.8,652.8z"/>
						<path class="st0" d="M359.3,651.8v1.5H359v-1.5c0-0.3-0.1-0.4-0.3-0.4c-0.2,0-0.4,0.2-0.6,0.4v1.5h-0.3v-2.1h0.3l0,0.3
							c0.2-0.2,0.4-0.4,0.7-0.4C359.1,651.2,359.3,651.4,359.3,651.8z"/>
						<path class="st0" d="M360.8,653.3c-0.1,0.4-0.4,0.8-0.9,0.8l0-0.3c0.4-0.1,0.5-0.2,0.7-0.6h-0.1l-0.7-2.1h0.4l0.6,1.9l0.6-1.9
							h0.3L360.8,653.3z"/>
					</g>
					<g>
						<path class="st0" d="M295.8,647.3h-7.9v-1.1h3.1v-6.8h1.1v2.5h3.1v1.1h-3.1v3.2h3.7V647.3z"/>
						<path class="st0" d="M304.9,647.8c-1.9-0.4-3-1.4-3.6-2.9h-0.6v1.5c0.4,0,0.9-0.1,1.4-0.1l0,0.9l-0.1,0c0,0-0.1,0-0.1,0
							l-0.1,0c-0.2,0-0.4,0.1-0.6,0.1l-0.1,0l-0.1,0c-0.7,0.1-1.4,0.2-1.9,0.3l-0.1-1c0.2,0,0.4,0,0.6-0.1l0.1,0c0,0,0.1,0,0.1,0
							v-1.7h-0.6c-0.1,0.9-0.5,2.1-1.1,2.9l-0.8-0.6c0.9-1.1,1.1-3,1.1-4.1v-1.3h-0.7V640h3.2v-0.7h1.1v0.7h3.3v1.8h-0.7v0.6h-5.1
							v0.7c0,0.3,0,0.6,0,0.9h5.8v0.9h-0.9l0.7,0.5c-0.4,0.3-1,0.6-1.4,0.7c0.5,0.3,1.2,0.6,1.7,0.7L304.9,647.8z M304,641.4v-0.5
							h-5.5v0.5H304z M304.1,643.5h-4.6v-0.8h4.6V643.5z M302.7,645.7c0.4-0.2,0.9-0.5,1.2-0.8h-1.7
							C302.4,645.1,302.5,645.4,302.7,645.7z"/>
						<path class="st0" d="M314.4,647.5H307v-7.8h7.4V647.5z M313.4,646.5v-5.9h-1.1c0.3,0.1,0.6,0.4,0.7,0.5l-0.4,0.4h0.4v0.7h-1.5
							c0,0.5,0,1,0.1,1.4c0.2-0.3,0.3-0.7,0.4-1.1l0.8,0.2c-0.2,0.7-0.5,1.5-0.9,2.1c0.1,0.3,0.2,0.5,0.3,0.5c0.1,0,0.2-0.4,0.2-0.7
							l0.7,0.2c-0.2,1.2-0.6,1.6-1.2,1.3c-0.3-0.1-0.4-0.3-0.6-0.6c-0.3,0.3-0.6,0.6-1,0.8l-0.5-0.7c0,0,0.1-0.1,0.2-0.1
							c-0.1,0-0.1,0-0.2,0l-0.1,0c-0.1,0-0.2,0-0.3,0l-0.1,0c-0.4,0.1-0.9,0.1-1.3,0.2l-0.1-0.8c0.5-0.1,1.1-0.1,1.8-0.2l0.1,0
							c0,0,0,0,0.1,0l0.1,0c0,0,0,0,0,0l0.2,0c0,0,0.1,0,0.1,0l0,0.5c0.2-0.1,0.3-0.3,0.4-0.5c-0.1-0.5-0.2-1.1-0.3-1.8l0-0.1
							c0-0.2,0-0.4-0.1-0.5h-2.4v-0.7h2.3c0-0.2,0-0.5,0-0.8h0.9c0,0.2,0,0.5,0,0.8h0.9c-0.2-0.2-0.5-0.4-0.7-0.5l0.4-0.4H308v5.9
							H313.4z M310.5,644.4h-1.9v-1.7h1.9V644.4z M309.8,643.8v-0.6h-0.5v0.6H309.8z"/>
						<path class="st0" d="M322.3,640.7V640h1.2l0.2-0.1l0.6,0.3c-0.2,0.7-0.7,1.5-1,2c0.3,0.4,0.8,0.7,1.2,0.9l-0.5,0.9
							c-0.4-0.2-0.8-0.5-1.1-0.8v0.5h-2.8v-0.4c-0.3,0.3-0.6,0.5-0.9,0.7c-0.1-0.2-0.2-0.5-0.4-0.6c0.1,0.4,0.1,0.8,0.1,1.1
							c0,0.5-0.1,1-0.3,1.2c-0.1,0.1-0.3,0.2-0.4,0.2c-0.1,0-0.3,0-0.5,0c0-0.2-0.1-0.6-0.2-0.8v2.6h-0.9v-8h1.7l0.1,0l0.6,0.4
							c-0.1,0.2-0.1,0.5-0.2,0.8l0,0.1c0,0.1-0.1,0.3-0.1,0.4c0.5-0.5,0.8-1.3,1-2l0.8,0.2c0,0.2-0.1,0.3-0.2,0.5h0.6l0.2,0l0.2,0.1
							c0-0.1-0.1-0.3-0.1-0.4l0.8-0.2C322,639.9,322.1,640.3,322.3,640.7z M317.6,645.1c0.1,0,0.2,0,0.2-0.1
							c0.1-0.1,0.1-0.3,0.1-0.6c0-0.4-0.1-1.1-0.5-1.7c0.1-0.3,0.1-0.6,0.2-0.9l0-0.1c0.1-0.3,0.1-0.7,0.2-1h-0.5v4.4
							C317.5,645.1,317.6,645.1,317.6,645.1z M318.6,643.3c0.3-0.2,0.6-0.4,0.8-0.7l0.1-0.1c0,0,0,0,0,0c-0.1-0.1-0.4-0.3-0.5-0.5
							c-0.1,0.1-0.1,0.1-0.2,0.2c0-0.1-0.2-0.2-0.3-0.3c-0.1,0.2-0.1,0.5-0.2,0.6C318.4,642.8,318.5,643.1,318.6,643.3z
							 M319.2,647.5c-0.2-0.1-0.5-0.4-0.7-0.5c0.4-0.4,0.7-1,0.9-1.5l0.9,0.2C320,646.3,319.6,647.1,319.2,647.5z M320.2,647.7
							l-0.1-0.9c0.1,0,0.4,0,0.6,0h0.1c0.1,0,0.1-0.1,0.1-0.1v-1.5h-1.7v-0.9h4.5v0.9h-1.8v1.6c0,0.4,0,0.7-0.3,0.8
							C321.3,647.7,320.8,647.7,320.2,647.7z M319.9,642.1c0.1-0.1,0.1-0.2,0.2-0.3c-0.1-0.1-0.3-0.3-0.5-0.4
							c-0.1,0.1-0.1,0.2-0.2,0.3C319.5,641.8,319.7,641.9,319.9,642.1z M320.3,641.2c0.1-0.2,0.1-0.4,0.2-0.5h-0.6
							c0,0.1-0.1,0.1-0.1,0.2C320,641,320.2,641.1,320.3,641.2z M322.4,642.9c-0.4-0.6-0.8-1.4-1.1-2.2c-0.2,0.8-0.5,1.6-1,2.2
							H322.4z M322.6,641.6c0.1-0.3,0.3-0.6,0.4-0.9h-0.8C322.4,641,322.5,641.3,322.6,641.6z M323.3,647.5
							c-0.2-0.4-0.7-1.1-1.1-1.6l0.8-0.4c0.4,0.4,0.9,1.1,1.1,1.5L323.3,647.5z"/>
						<path class="st0" d="M330.4,647.7l0-1c0.3,0,0.7,0,0.9,0h0c0.1,0,0.2-0.1,0.2-0.2V646h-3.1v1.7h-1v-3.9
							c-0.3,0.4-0.8,0.8-1.2,1.1l-0.6-0.9c0.9-0.6,1.7-1.6,2.2-2.6h-2v-1h2.4c0.1-0.3,0.2-0.7,0.3-1.1l1.1,0.3
							c-0.1,0.3-0.2,0.6-0.3,0.8h4.3v1h-4.7c-0.1,0.2-0.2,0.5-0.3,0.7h3.9v4.5c0,0.5-0.1,0.8-0.5,1
							C331.7,647.7,331.2,647.7,330.4,647.7z M331.5,643.6V643h-3.1v0.6H331.5z M331.5,645.1v-0.6h-3.1v0.6H331.5z"/>
						<path class="st0" d="M336.4,647.7h-1v-8h2.1l0.2,0l0.7,0.4c-0.1,0.4-0.2,0.8-0.4,1.2l0,0.1l0,0.1c-0.1,0.4-0.3,0.8-0.4,1.1
							c0.6,0.6,0.7,1.3,0.7,1.8c0,0.6-0.1,1-0.4,1.2c-0.1,0.1-0.3,0.2-0.5,0.2c-0.2,0-0.4,0-0.7,0l0-0.9c0,0,0.1,0,0.2,0h0.1
							c0.1,0,0.2,0,0.3-0.1c0.1-0.1,0.2-0.3,0.2-0.5c0-0.4-0.2-1-0.6-1.6c0.1-0.2,0.2-0.5,0.3-0.9l0-0.1c0.1-0.4,0.2-0.7,0.3-1h-0.8
							V647.7z M342.6,647.7c-1.3-0.7-2-2.2-2.4-3.9h-0.6v2.4c0.3,0,0.5-0.1,0.8-0.2l0.1,0c0.1,0,0.2,0,0.4-0.1l0.1,0.9
							c-0.1,0-0.3,0.1-0.4,0.1l-0.1,0l-0.1,0c-0.1,0-0.1,0-0.2,0l-0.2,0.1l-0.1,0c-0.1,0-0.1,0-0.2,0l-0.1,0
							c-0.5,0.1-1.1,0.3-1.5,0.3l-0.4-1c0.3,0,0.6-0.1,0.9-0.2v-6.7h4.1v4.2H341c0.1,0.3,0.2,0.7,0.3,1c0.3-0.3,0.6-0.6,0.8-0.9
							l0.8,0.6c-0.4,0.3-0.9,0.8-1.2,1c0.3,0.5,0.9,1,1.3,1.2L342.6,647.7z M341.6,641.3v-0.7h-2v0.7H341.6z M341.6,643v-0.8h-2v0.8
							H341.6z"/>
						<path class="st0" d="M345.3,643.8l-0.7-0.8c0.7-0.5,1.5-1.5,1.8-2.3l1.2,0.4C347,642,346.1,643.2,345.3,643.8z M351.4,647.8
							c-0.1-0.2-0.2-0.5-0.4-0.7c-0.3,0-0.5,0-0.8,0l-0.1,0h-0.1H350c0,0-0.1,0-0.1,0l-0.1,0l-0.3,0l0,0h-0.1c0,0-0.1,0-0.1,0
							l-0.1,0h0l-0.2,0c-0.1,0-0.1,0-0.2,0h-0.1c-0.1,0-0.2,0-0.3,0h-0.1l-0.1,0h0H348c-0.1,0-0.1,0-0.2,0l-0.1,0
							c-0.2,0-0.3,0-0.5,0l-0.1,0c-0.1,0-0.1,0-0.2,0h-0.1c-0.7,0-1.3,0.1-1.8,0.1l-0.1-1.1c0.3,0,0.6,0,1,0h0.1c0.1,0,0.2,0,0.2,0
							c0.2-0.4,0.4-0.9,0.6-1.4l0-0.1c0.3-0.8,0.6-1.6,0.8-2.2l1.3,0.3c-0.2,0.4-0.4,0.8-0.5,1.3l0,0.1c0,0,0,0.1,0,0.1l0,0.1
							c0,0,0,0,0,0l0,0.1c-0.3,0.6-0.5,1.2-0.8,1.6c0.1,0,0.2,0,0.3,0h0.1c0,0,0,0,0,0h0.1c0.1,0,0.2,0,0.4,0h0.1c0,0,0,0,0,0h0.1
							c0,0,0.1,0,0.1,0h0.1c0,0,0.1,0,0.1,0h0.1h0.1c0,0,0.1,0,0.1,0h0.1c0,0,0.1,0,0.1,0h0.1c0,0,0.1,0,0.1,0h0.1
							c0.1,0,0.1,0,0.2,0h0.1c0.1,0,0.1,0,0.2,0l0.1,0c-0.3-0.5-0.7-1.1-1.1-1.5l1-0.5c0.8,0.9,1.7,2.3,2.1,3.1L351.4,647.8z
							 M351.9,643.6c-0.9-0.8-1.7-1.9-2.2-2.9H347v-1h3.4c0.4,1.1,1.4,2.4,2.3,3L351.9,643.6z"/>
						<path class="st0" d="M359.2,647.7l-0.1-1.1c0.3,0,0.9,0,1.1,0c0.2,0,0.2-0.1,0.2-0.2v-5.5h-6.1v-1h7.1v6.5
							c0,0.6-0.1,1-0.5,1.1C360.7,647.7,360.1,647.7,359.2,647.7z M359.6,642.4h-5.1v-0.9h5.1V642.4z M359.1,646.3h-4.2v-3.2h4.2
							V646.3z M358.1,645.4V644H356v1.4H358.1z"/>
					</g>
				</g>
			</g>
		</g>
	</g>
</g>
</svg>
