<svg width="129" height="133" viewBox="0 0 129 133" fill="none" xmlns="http://www.w3.org/2000/svg">
<path d="M36.0007 0.67034C35.8614 1.39325 35.2787 1.96398 33.8346 2.11617V32.9601H57.586V37.2849H33.8346V54.8756C39.0156 59.9233 53.4184 75.7765 56.8766 79.9617L53.2791 83.8552C49.9729 79.2388 40.029 67.4186 33.8473 60.6462V132.43H29.5277V49.5362C22.9027 70.0059 12.8321 91.4902 3.17954 103.158C2.4575 102.004 1.01342 100.419 0.0126953 99.6958C10.9573 86.582 23.3334 60.3418 28.9577 37.2722H3.02753V32.9475H29.515V0.0869141L36.0007 0.657645V0.67034ZM65.2244 9.61153H128.713V131.859H124.394V122.486H69.544V131.859H65.2244V9.61153ZM124.406 13.9363H69.544V44.9324H124.406V13.9363ZM69.544 49.2572V81.4075H124.406V49.2572H69.544ZM69.544 118.162H124.406V85.7323H69.544V118.162Z" fill="white"/>
</svg>
