<svg xmlns="http://www.w3.org/2000/svg" viewBox="0 0 310.9 205.49"><defs><style>.cls-1{font-size:15px;font-family:NotoSansCJKtc-Medium-B5pc-H, Noto Sans CJK TC;letter-spacing:0.09em;}.cls-1,.cls-13{fill:#fff;}.cls-2{letter-spacing:-0.16em;}.cls-3{letter-spacing:0.06em;}.cls-4{letter-spacing:0.11em;}.cls-5{letter-spacing:-0.14em;}.cls-6{letter-spacing:-0.62em;}.cls-7{letter-spacing:0.09em;}.cls-8{letter-spacing:-0.37em;}.cls-9{letter-spacing:0.09em;}.cls-10{letter-spacing:-0.37em;}.cls-11{letter-spacing:0.06em;}.cls-12{letter-spacing:-0.19em;}.cls-13{font-size:20px;font-family:NotoSansCJKtc-Bold-B5pc-H, Noto Sans CJK TC;letter-spacing:0.02em;}</style></defs><g id="圖層_2" data-name="圖層 2"><g id="圖層_3" data-name="圖層 3"><text class="cls-1" transform="translate(0 84.42)">新重劃<tspan class="cls-2" x="48.95" y="0">區，</tspan><tspan x="74.08" y="0">總需要一座經典建</tspan><tspan class="cls-2" x="204.61" y="0">築，</tspan><tspan x="229.74" y="0">立定城市</tspan><tspan class="cls-3" x="295" y="0">的</tspan><tspan class="cls-4"><tspan x="0" y="26">不凡身</tspan><tspan class="cls-5" x="49.88" y="26">價</tspan><tspan class="cls-6" x="62.75" y="26">。</tspan><tspan class="cls-7" x="68.41" y="26">「</tspan><tspan x="84.75" y="26">朗朗城</tspan><tspan class="cls-7" x="134.63" y="26">心</tspan><tspan class="cls-8" x="150.96" y="26">」以</tspan><tspan class="cls-9" x="169.79" y="26">「</tspan><tspan x="186.13" y="26">現代新古</tspan><tspan class="cls-7" x="252.63" y="26">典</tspan><tspan class="cls-10" x="268.96" y="26">」</tspan><tspan x="278.38" y="26">語</tspan><tspan class="cls-3" x="295" y="26">彙</tspan></tspan><tspan x="0" y="52">為塭仔圳落</tspan><tspan class="cls-2" x="81.58" y="52">款，</tspan><tspan x="106.71" y="52">輕奢且具時尚感的樣</tspan><tspan class="cls-2" x="253.55" y="52">貌、</tspan><tspan x="278.68" y="52">國</tspan><tspan class="cls-11" x="295" y="52">際</tspan><tspan x="0" y="78">豪宅級的飛簷設</tspan><tspan class="cls-2" x="114.21" y="78">計，</tspan><tspan x="139.34" y="78">讓城市居民傾羨仰</tspan><tspan class="cls-2" x="269.87" y="78">望，</tspan><tspan class="cls-11" x="295" y="78">為</tspan><tspan class="cls-11"><tspan x="0" y="104">新世代經典建築榮耀加</tspan><tspan class="cls-12" x="159" y="104">冕。</tspan></tspan></text><text class="cls-13" transform="translate(0 17.6)">新古典建築風格<tspan x="0" y="30">國際飛簷榮耀加冕</tspan></text></g></g></svg>