<svg xmlns="http://www.w3.org/2000/svg" viewBox="0 0 478.56 338.78"><defs><style>.cls-1{font-size:22px;font-family:NotoSansCJKtc-Medium-B5pc-H, Noto Sans CJK TC;letter-spacing:0.09em;}.cls-1,.cls-13{fill:#fff;}.cls-2{letter-spacing:-0.16em;}.cls-3{letter-spacing:0.09em;}.cls-4{letter-spacing:0.04em;}.cls-5{letter-spacing:0.06em;}.cls-6{letter-spacing:-0.19em;}.cls-7{letter-spacing:-0.68em;}.cls-8{letter-spacing:0.04em;}.cls-9{letter-spacing:-0.43em;}.cls-10{letter-spacing:0.04em;}.cls-11{letter-spacing:0.04em;}.cls-12{letter-spacing:-0.21em;}.cls-13{font-size:40px;font-family:NotoSansCJKtc-Bold-B5pc-H, Noto Sans CJK TC;letter-spacing:0.04em;}</style></defs><g id="圖層_2" data-name="圖層 2"><g id="圖層_3" data-name="圖層 3"><text class="cls-1" transform="translate(0 150.95)">新重劃<tspan class="cls-2" x="71.65" y="0">區，</tspan><tspan x="108.42" y="0">總需要一座經典建</tspan><tspan class="cls-2" x="299.49" y="0">築，</tspan><tspan class="cls-3" x="336.26" y="0">立定城市的</tspan><tspan class="cls-4" x="455.68" y="0">不</tspan><tspan class="cls-5"><tspan x="0" y="41.2">凡身</tspan><tspan class="cls-6" x="46.43" y="41.2">價</tspan><tspan class="cls-7" x="64.14" y="41.2">。</tspan><tspan class="cls-8" x="71.27" y="41.2">「</tspan><tspan x="94.06" y="41.2">朗朗城</tspan><tspan class="cls-8" x="163.7" y="41.2">心</tspan><tspan class="cls-9" x="186.5" y="41.2">」以</tspan><tspan class="cls-10" x="211.76" y="41.2">「</tspan><tspan x="234.55" y="41.2">現代新古</tspan><tspan class="cls-8" x="327.41" y="41.2">典</tspan><tspan class="cls-9" x="350.2" y="41.2">」</tspan><tspan x="362.83" y="41.2">語彙為塭</tspan><tspan class="cls-4" x="455.68" y="41.2">仔</tspan></tspan><tspan x="0" y="82.4">圳落</tspan><tspan class="cls-2" x="47.77" y="82.4">款，</tspan><tspan class="cls-3" x="84.54" y="82.4">輕奢且具時尚感的樣</tspan><tspan class="cls-2" x="299.49" y="82.4">貌、</tspan><tspan x="336.26" y="82.4">國際豪宅級</tspan><tspan class="cls-11" x="455.68" y="82.4">的</tspan><tspan x="0" y="123.6">飛簷設</tspan><tspan class="cls-2" x="71.65" y="123.6">計，</tspan><tspan x="108.42" y="123.6">讓城市居民傾羨仰</tspan><tspan class="cls-2" x="299.49" y="123.6">望，</tspan><tspan class="cls-3" x="336.26" y="123.6">為新世代經</tspan><tspan class="cls-4" x="455.68" y="123.6">典</tspan><tspan class="cls-4"><tspan x="0" y="164.8">建築榮耀加</tspan><tspan class="cls-12" x="114.4" y="164.8">冕。</tspan></tspan></text><text class="cls-13" transform="translate(0 35.2)">新古典建築風格<tspan x="0" y="60.49">國際飛簷榮耀加冕</tspan></text></g></g></svg>