<svg width="177" height="177" viewBox="0 0 177 177" fill="#FFF" xmlns="http://www.w3.org/2000/svg">
<path d="M107.6,62c0-25.7-38.7-25.7-38.7,0C68.9,87.7,107.6,87.7,107.6,62z M73.2,62c0-20.3,30-20.3,30,0C103.3,82.3,73.2,82.3,73.2,62z M118.9,136.6c0-6.5-15.7-8.4-23.5-8.9c9-16.4,26.4-49.6,26.4-63c0-44.7-67-44.7-67,0c0,13.4,17.3,46.6,26.4,63c-7.8,0.5-23.5,2.3-23.5,8.9C57.6,148.8,118.9,148.8,118.9,136.6z M88.3,131.7c-6.8-12-29.2-52.8-29.2-66.9c0-39.1,58.4-39.1,58.4,0C117.5,78.9,95,119.7,88.3,131.7z M114.5,136.7c-3.5,6.7-49,6.7-52.6,0c0.6-1.1,6.7-4.1,21.5-4.7l4.8,8.4L93,132C107.8,132.6,113.9,135.6,114.5,136.7z"/>
</svg>
