<svg width="177" height="177" viewBox="0 0 177 177" fill="#FFF" xmlns="http://www.w3.org/2000/svg">
<path d="M109.5,101.1h13.3v22.1c-0.1,3.1-3,6.5-4.9,9.5l2.8,2.3c2.5-3.7,5.7-7.5,5.7-11.7V97.5h-13.3V56.9c0-4.9,10.6-5.3,10.6-14.6V25.9H88.3v16.4c0,9.1,10.6,9.7,10.6,14.6v40.6H85.6v25.7h3.6v-22.1h9.7v11.5c0.3,4.4,5.4,6.5,7.1,7.3c1.7-0.8,6.8-2.8,7.1-7.3v-8h-3.6v8c0,0.9-1.7,2.4-3.5,3.3c-1.8-0.9-3.5-2.4-3.5-3.3V93.2h7V101.1z M102.5,89.6V58.7h7v30.9H102.5zM120.1,29.5v4.4H91.9v-4.4H120.1z M91.9,42.3v-4.8h28.2v4.8c0,6.3-9.2,7.3-10.4,12.8h-7.5C101,49.5,91.9,48.6,91.9,42.3zM61.3,143.7l3.1,4.6l3-2l-3.1-4.7l15.9-11.3h9.6l18.6,10.6h21l10.1,10.1l2.5-2.5l-11.1-11.1h-21.5l-18.6-10.6H78.9l-18.3,13.1l-16.1-5.3l-14.1,14L33,151l12.5-12.5L61.3,143.7z"/>
</svg>
