<?xml version="1.0" encoding="utf-8"?>
<!-- Generator: Adobe Illustrator 27.6.1, SVG Export Plug-In . SVG Version: 6.00 Build 0)  -->
<svg version="1.1" id="圖層_1" xmlns="http://www.w3.org/2000/svg" xmlns:xlink="http://www.w3.org/1999/xlink" x="0px" y="0px"
	 viewBox="0 0 49 80" style="enable-background:new 0 0 49 80;" xml:space="preserve">
<style type="text/css">
	.st0{fill-rule:evenodd;clip-rule:evenodd;fill:#FFFFFF;}
</style>
<path class="st0" d="M22.9,2c0-0.8,0.6-1.4,1.4-1.4c0.8,0,1.4,0.6,1.4,1.4v5.5h7.5c0.8,0,1.4,0.6,1.4,1.4v5.5c0,0.8-0.6,1.4-1.4,1.4
	c-0.8,0-1.4-0.6-1.4-1.4v-4.1H16.8v4.1c0,0.8-0.6,1.4-1.4,1.4c-0.8,0-1.4-0.6-1.4-1.4V9c0-0.8,0.6-1.4,1.4-1.4h7.5V2z M38.8,73.3
	c0.8,0,1.4-0.6,1.4-1.4V18.4c0-0.8-0.6-1.4-1.4-1.4H9.8c-0.8,0-1.4,0.6-1.4,1.4v53.5c0,0.8,0.6,1.4,1.4,1.4c0.8,0,1.4-0.6,1.4-1.4
	V19.8h26.3v52.1C37.5,72.7,38.1,73.3,38.8,73.3z M22.9,71.8V30.5c0-0.8,0.6-1.4,1.4-1.4s1.4,0.6,1.4,1.4v41.3c0,0.8-0.6,1.4-1.4,1.4
	S22.9,72.6,22.9,71.8z M1.4,76.6h45.8c0.8,0,1.4,0.6,1.4,1.4c0,0.8-0.6,1.4-1.4,1.4H1.4C0.6,79.4,0,78.8,0,78
	C0,77.2,0.6,76.6,1.4,76.6z M15.7,30.5v41.3c0,0.8,0.6,1.4,1.4,1.4s1.4-0.6,1.4-1.4V30.5c0-0.8-0.6-1.4-1.4-1.4
	C16.3,29.1,15.7,29.8,15.7,30.5z M30.1,71.8V30.5c0-0.8,0.6-1.4,1.4-1.4c0.8,0,1.4,0.6,1.4,1.4v41.3c0,0.8-0.6,1.4-1.4,1.4
	C30.7,73.2,30.1,72.6,30.1,71.8z"/>
</svg>
