<svg width="49" height="80" viewBox="0 0 49 80" fill="none" xmlns="http://www.w3.org/2000/svg">
<path fill-rule="evenodd" clip-rule="evenodd" d="M22.9015 2.02211C22.9015 1.24364 23.53 0.611328 24.3037 0.611328C25.0774 0.611328 25.7059 1.24364 25.7059 2.02211V7.56978H33.2297C33.9886 7.56978 34.6053 8.19017 34.6053 8.95372V14.4626C34.6053 15.2262 33.9886 15.8466 33.2297 15.8466C32.4708 15.8466 31.8542 15.2262 31.8542 14.4626V10.3377H16.7502V14.4596C16.7502 15.2232 16.1336 15.8436 15.3747 15.8436C14.6158 15.8436 13.9992 15.2232 13.9992 14.4596V8.95074C13.9992 8.18718 14.6158 7.5668 15.3747 7.5668H22.9015V2.02211ZM38.8448 73.2684C39.6037 73.2684 40.2203 72.648 40.2203 71.8844V18.3703C40.2203 17.6067 39.6037 16.9863 38.8448 16.9863H9.76321C9.00431 16.9863 8.3877 17.6067 8.3877 18.3703V71.8844C8.3877 72.648 9.00431 73.2684 9.76321 73.2684C10.5221 73.2684 11.1387 72.648 11.1387 71.8844V19.7572H37.4663V71.8874C37.4663 72.651 38.0829 73.2684 38.8448 73.2684ZM22.9248 71.7942V30.5207C22.9248 29.7571 23.5414 29.1367 24.3003 29.1367C25.0592 29.1367 25.6758 29.7571 25.6758 30.5207V71.7942C25.6758 72.5577 25.0592 73.1781 24.3003 73.1781C23.5414 73.1781 22.9248 72.5577 22.9248 71.7942ZM1.42368 76.5635H47.1804C47.9542 76.5635 48.5826 77.1958 48.5797 77.9743C48.5797 78.7527 47.9512 79.385 47.1775 79.385H1.42368C0.649954 79.385 0.0214844 78.7527 0.0214844 77.9743C0.0214844 77.1958 0.649954 76.5635 1.42368 76.5635ZM15.7246 30.5207V71.7942C15.7246 72.5577 16.3412 73.1781 17.1001 73.1781C17.859 73.1781 18.4756 72.5577 18.4756 71.7942V30.5207C18.4756 29.7571 17.859 29.1367 17.1001 29.1367C16.3383 29.1367 15.7246 29.7571 15.7246 30.5207ZM30.1289 71.7942V30.5207C30.1289 29.7571 30.7455 29.1367 31.5044 29.1367C32.2633 29.1367 32.8799 29.7571 32.8799 30.5207V71.7942C32.8799 72.5577 32.2633 73.1781 31.5044 73.1781C30.7455 73.1781 30.1289 72.5577 30.1289 71.7942Z" fill="black"/>
</svg>
