<svg width="177" height="177" viewBox="0 0 177 177" fill="#FFF" xmlns="http://www.w3.org/2000/svg">
<path d="M125.1,76.3C101.5,55,96.4,56.2,68,57.8c-14.3,0.8-21.4,10.7-26.7,16.7l-11.7,0.4c-8.5,35,1.8,35.3,13.3,35.3c3.2,13.2,20.7,13.2,23.8,0h44.9c2.1,13,21.3,13.2,23.7-0.1c17.6,0,18.3,1.5,21-14.1C156.3,85.3,149.9,79.7,125.1,76.3z M47,107.9c0-10.3,15.5-10.3,15.5,0S47,118.2,47,107.9z M115.7,107.9c0-10.3,15.5-10.3,15.5,0S115.7,118.2,115.7,107.9z M151.9,95.8c-2,12.6-2.6,10-16.6,10c-2.4-13.4-21.4-13.3-23.7,0.1H66.7c-3.1-13.3-21.5-13.4-23.8,0c-8.1,0-16.6,2.7-10.4-26.8l10.7-0.3c5.6-5.7,11.7-16.2,24.9-16.7c29.1-1.2,28.8-2.5,50.4,13.8H89.9v-7.7h-4.3V76c-20.7,0-20.6,0.6-24.4-6.4L57,70.4c3.9,12.6,7.4,9.9,66,9.9C144.1,83.7,151.9,86.4,151.9,95.8z"/>
</svg>
