<svg width="68" height="72" viewBox="0 0 68 72" fill="none" xmlns="http://www.w3.org/2000/svg">
<path fill-rule="evenodd" clip-rule="evenodd" d="M56.3439 16.7842C56.3439 17.4528 56.299 18.1343 56.2114 18.8179C63.4203 22.3619 67.9924 29.6357 67.9967 37.762C67.9967 49.4108 58.5188 58.8892 46.8682 58.8892C43.5043 58.8892 40.1554 58.0775 37.1807 56.5394C36.2226 56.0438 35.8463 54.8624 36.3424 53.9033C36.8385 52.942 38.019 52.5681 38.9792 53.0637C41.4342 54.3348 44.0881 54.9778 46.8682 54.9778C56.3632 54.9778 64.0854 47.2553 64.0854 37.762C64.0854 30.7017 59.849 24.4319 53.2944 21.7915C52.4027 21.4348 51.9044 20.482 52.1161 19.5463C52.3278 18.6085 52.4347 17.6793 52.4347 16.7799C52.4347 9.89702 46.834 4.29797 39.9501 4.29797C36.5605 4.29797 33.3848 5.64165 31.0111 8.07909C30.3481 8.76054 29.2896 8.86522 28.5026 8.32689C26.4239 6.89989 23.9925 6.1458 21.469 6.1458C14.6044 6.1458 9.01855 11.7299 9.01855 18.5936C9.01855 20.3068 9.36499 21.9731 10.0472 23.5432C10.3979 24.3486 10.1669 25.2885 9.48475 25.8418C5.94764 28.7065 3.92032 32.9533 3.92032 37.4949C3.92032 45.7643 10.6481 52.4912 18.9177 52.4912C20.9472 52.4912 22.9232 52.0875 24.788 51.2928C25.7824 50.8698 26.9308 51.3313 27.3563 52.3246C27.7819 53.3201 27.32 54.4672 26.3256 54.8923C23.9711 55.8964 21.4797 56.4048 18.9177 56.4048C8.49034 56.4048 0.00683594 47.924 0.00683594 37.4971C0.00683594 32.2505 2.15177 27.3158 5.93695 23.7504C5.38307 22.0906 5.10292 20.3624 5.10292 18.5957C5.10292 9.57445 12.4423 2.23651 21.4647 2.23651C24.2491 2.23651 26.95 2.93505 29.3623 4.2702C32.3198 1.75586 36.0216 0.388672 39.9458 0.388672C48.9874 0.388672 56.3439 7.7437 56.3439 16.7842ZM43.8015 36.0059C44.4537 36.8668 44.2848 38.0951 43.423 38.7466L33.774 46.0611V69.1195C33.774 70.2004 32.8972 71.0763 31.8172 71.0763C30.7351 71.0763 29.8605 70.2004 29.8605 69.1195V43.3972L19.7175 36.6574C18.8193 36.0614 18.5734 34.8459 19.1722 33.9465C19.771 33.045 20.9835 32.8015 21.8838 33.3997L29.8626 38.6996V29.3195L22.7948 23.3936C21.9672 22.6993 21.8582 21.4646 22.5532 20.6378C23.2461 19.8111 24.48 19.7043 25.3076 20.3964L29.8605 24.2139V21.0309C29.8605 19.95 30.7373 19.0741 31.8172 19.0741C32.8993 19.0741 33.774 19.95 33.774 21.0309V30.5328L39.4753 25.2948C40.2708 24.5642 41.5069 24.6176 42.2382 25.4123C42.9696 26.2091 42.9161 27.446 42.1206 28.1766L33.774 35.8456V41.1542L41.062 35.6299C41.9217 34.9762 43.1492 35.145 43.8015 36.0059Z" fill="black"/>
</svg>
