<svg width="177" height="177" viewBox="0 0 177 177" fill="#FFF" xmlns="http://www.w3.org/2000/svg">
<path d="M121.9,67.5c3.3-21-23.5-35.4-39.2-21.3c-18.2-10.8-41.4,8.6-34.2,28.5c-22.2,20.5,2,57.7,29.8,45.5c3.4-1.4,1.3-6.4-2.2-5.3c-27.7,9.4-41-25.3-20.6-38.6c-9.1-19.6,11.9-35,27.8-23.1C96.8,38,121.4,49.8,115.3,71c35.3,14.9,13,61.2-18.6,46.5c-3.3-1.8-5.9,3.4-2.6,5.1C131.5,140.2,158.1,86.9,121.9,67.5z M103.2,96.6c3-2.2-0.5-6.8-3.4-4.6c0,0-10.6,8.1-10.6,8.1v-7.8l12.2-11.2c2.8-2.5-1.2-6.8-3.9-4.2c0,0-8.3,7.7-8.3,7.7V70.7c0-3.7-5.8-3.7-5.7,0c0,0,0,4.6,0,4.6l-6.6-5.6c-2.8-2.4-6.5,2-3.7,4.4c0,0,10.3,8.7,10.3,8.7v13.7l-11.6-7.7c-3.1-2.1-6.3,2.8-3.2,4.8c0,0,14.8,9.8,14.8,9.8V141c0,3.7,5.8,3.7,5.7,0c0,0,0-33.7,0-33.7C89.1,107.3,103.2,96.6,103.2,96.6z"/>
</svg>
