<svg width="51" height="91" viewBox="0 0 51 91" fill="none" xmlns="http://www.w3.org/2000/svg">
<path fill-rule="evenodd" clip-rule="evenodd" d="M26.4083 5.35156C24.8243 5.35156 23.4639 6.66592 23.4639 8.40827V10.2605C23.4639 12.0029 24.8243 13.3172 26.4083 13.3172C27.9923 13.3172 29.3528 12.0029 29.3528 10.2605V8.40827C29.3528 6.66592 27.9923 5.35156 26.4083 5.35156ZM18.4639 8.40827C18.4639 4.0012 21.9671 0.351562 26.4083 0.351562C30.8495 0.351562 34.3528 4.0012 34.3528 8.40827V10.2605C34.3528 14.6676 30.8495 18.3172 26.4083 18.3172C21.9671 18.3172 18.4639 14.6676 18.4639 10.2605V8.40827ZM19.834 41.9509L23.9862 41.1044L23.9971 41.1021C24.8966 40.9145 25.7159 40.5337 26.4166 40.0087C27.1123 40.5246 27.9265 40.8993 28.825 41.0846L28.8307 41.0858L32.9824 41.9322V42.9531H26.4082V47.9531H32.9824V89.9069H37.9824V42.9516L43.4575 44.0678L43.4581 44.0679C45.8103 44.5478 48.2249 43.5585 49.5863 41.5808C50.2997 40.5617 50.686 39.3399 50.686 38.0435C50.686 36.5017 50.122 35.16 49.2739 34.1154L49.269 34.1094L40.1586 22.9589L40.1555 22.9551C39.0655 21.6263 37.3962 20.7256 35.4823 20.7256V25.7256C35.7819 25.7256 36.072 25.8616 36.2885 26.1247L36.2898 26.1262L45.3921 37.2668L45.394 37.2692C45.5972 37.5204 45.686 37.7709 45.686 38.0435C45.686 38.3341 45.6039 38.552 45.4886 38.7156L45.479 38.7293L45.4695 38.7432C45.2322 39.0899 44.8218 39.2432 44.4575 39.1688L44.4569 39.1687L29.8352 36.1878L29.8332 36.1874C29.3276 36.0821 28.9234 35.6252 28.9086 35.039L28.9086 35.0243V28.7823L28.9082 28.7823L23.9086 28.7823L23.9082 28.7823V35.0058L23.9084 35.0506C23.8962 35.6281 23.4847 36.0994 22.9804 36.2065L22.9765 36.2074L8.3657 39.1861L8.36379 39.1864C7.98046 39.2629 7.58626 39.11 7.34806 38.7627C7.20957 38.5595 7.13086 38.3273 7.13086 38.0435C7.13086 37.7722 7.21945 37.5121 7.42097 37.2493L16.4969 26.141C16.742 25.856 17.0427 25.7258 17.334 25.7256H17.3346H35.4821V20.7256H17.3346H17.334C15.4153 20.7258 13.7606 21.6294 12.6647 22.9292L12.6523 22.944L12.6401 22.9589L3.5297 34.1094L3.51369 34.129L3.49809 34.1489C2.692 35.1773 2.13086 36.505 2.13086 38.0435C2.13086 39.3521 2.52375 40.5643 3.21965 41.5834L3.22101 41.5854C4.57952 43.5706 6.97883 44.5659 9.35306 44.0876L9.35878 44.0864L14.834 42.9702V44.4769L2.32488 58.0517C1.07679 59.3411 0.31543 61.1198 0.31543 63.0494C0.31543 66.9378 3.41945 70.18 7.35247 70.18H24.7026L25.7265 90.0352L30.7199 89.7777L28.9051 54.5852L23.9117 54.8427L24.0627 57.7705H13.7051V62.7705H24.3205L24.4448 65.18H7.35247C6.27659 65.18 5.31543 64.2731 5.31543 63.0494C5.31543 62.4381 5.5583 61.8958 5.92596 61.5206L5.95276 61.4932L5.97871 61.465L18.4298 47.9531H22.7784V42.9531H19.834V41.9509ZM17.334 45.4532L17.3337 45.4529H17.334V45.4532Z" fill="black"/>
</svg>
