<svg width="177" height="177" viewBox="0 0 177 177" fill="#FFF" xmlns="http://www.w3.org/2000/svg">
<path d="M63.8,75.1c-12.8,0-24.9-14.8,0-40.6C88.7,60.3,76.6,75.1,63.8,75.1z M63.8,71.6c12.1,0,18-12.2,0-30.9C45.8,59.4,51.7,71.6,63.8,71.6z M63.8,67.7c-4.1,0-7.5-3.4-7.5-7.5h3.6c0,2.2,1.8,3.9,3.9,3.9V67.7z M97.7,134.3c-32.5,0-32.5-48.9,0-48.9S130.2,134.3,97.7,134.3z M97.7,89c-27.5,0-27.5,41.8,0,41.8S125.2,89,97.7,89z M97.7,142.4c-26.3,0-42.3-31.5-25.9-52.4l25.9-36.2L123.6,90C140,111,124,142.4,97.7,142.4z M97.7,60l-23,32.2c-14.7,18.7-0.6,46.7,23,46.7s37.7-28.1,23-46.7L97.7,60z M99.5,99.7h-3.6v20.4h3.6V99.7z M107.9,108.1H87.5v3.6h20.4V108.1z"/>
</svg>
