<?xml version="1.0" encoding="utf-8"?>
<!-- Generator: Adobe Illustrator 27.6.1, SVG Export Plug-In . SVG Version: 6.00 Build 0)  -->
<svg version="1.1" id="圖層_1" xmlns="http://www.w3.org/2000/svg" xmlns:xlink="http://www.w3.org/1999/xlink" x="0px" y="0px"
	 viewBox="0 0 92 89" style="enable-background:new 0 0 92 89;" xml:space="preserve">
<style type="text/css">
	.st0{fill-rule:evenodd;clip-rule:evenodd;fill:#FFFFFF;}
</style>
<path class="st0" d="M0.2,46.7C0.2,21,20.6,0,45.7,0c25.1,0,45.5,21,45.5,46.7c0,15.3-7.3,29.7-19.6,38.4l-2-2.9
	C81,74.1,87.7,60.9,87.7,46.7c0-23.8-18.9-43.2-42-43.2c-23.2,0-42,19.4-42,43.2c0,14.2,6.8,27.4,18.1,35.5l-2,2.9
	C7.6,76.4,0.2,62,0.2,46.7z M72.4,29.2v35.9c0,5.8-4.6,10.5-10.2,10.5h-4.9l7.3,9.5c0.6,0.8,0.5,1.9-0.3,2.5
	C64,87.9,63.7,88,63.3,88c-0.5,0-1-0.2-1.3-0.7l-3.1-4c-0.1,0-0.2,0-0.3,0H32.8c-0.1,0-0.2,0-0.3,0l-3.1,4c-0.3,0.4-0.8,0.7-1.3,0.7
	c-0.4,0-0.7-0.1-1.1-0.4c-0.7-0.6-0.9-1.7-0.3-2.5l7.3-9.5h-4.9c-5.6,0-10.2-4.7-10.2-10.5V29.2c0-7.7,8.7-11.4,26.7-11.4
	C63.6,17.8,72.4,21.5,72.4,29.2z M47.4,50.9H69V32.5H47.4V50.9z M69,29c-0.2-6.4-12.7-7.7-23.3-7.7c-10.5,0-23.1,1.3-23.3,7.7H69z
	 M44,32.5H22.4v18.4H44V32.5z M38.4,75.6l-3.3,4.2h21l-3.3-4.2H38.4z M22.4,65.1c0,3.9,3.1,7,6.8,7h33c3.8,0,6.8-3.1,6.8-7V54.4
	H22.4V65.1z M25.5,62.7c0-3.2,2.5-5.8,5.7-5.8s5.7,2.6,5.7,5.8c0,3.2-2.5,5.8-5.7,5.8S25.5,65.9,25.5,62.7z M28.9,62.7
	c0,1.3,1,2.3,2.2,2.3s2.2-1,2.2-2.3s-1-2.3-2.2-2.3S28.9,61.4,28.9,62.7z M65.9,62.7c0-3.2-2.5-5.8-5.7-5.8s-5.7,2.6-5.7,5.8
	s2.5,5.8,5.7,5.8C63.3,68.5,65.9,65.9,65.9,62.7z M60.2,65C59,65,58,64,58,62.7s1-2.3,2.2-2.3c1.2,0,2.2,1,2.2,2.3S61.4,65,60.2,65z
	"/>
</svg>
