<?xml version="1.0" encoding="utf-8"?>
<!-- Generator: Adobe Illustrator 26.5.0, SVG Export Plug-In . SVG Version: 6.00 Build 0)  -->
<svg version="1.1" id="圖層_1" xmlns="http://www.w3.org/2000/svg" xmlns:xlink="http://www.w3.org/1999/xlink" x="0px" y="0px"
	 viewBox="0 0 835 1052" style="enable-background:new 0 0 835 1052;" xml:space="preserve">
<style type="text/css">
	.st0{fill:none;stroke:#B7A999;stroke-width:0.9993;stroke-miterlimit:10;}
</style>
<path class="st0" d="M30.4,321c34.1,73.2,161.3,34.9,121.5-60.7c-12.3-29.5-4.6-84.9,47.8-91.6C55.2,153.4,5.6,267.9,30.4,321z
	 M624.9,958c24.3,60.6,18,82.5-15.7,82.5v10.5h225.3v-10.5c-36.3,0-62.9-19.7-80.6-59.6l-0.4,0.4L384.3,1H213.5v10.5
	c55.4,0,74.4,27.5,104.8,114.3l41.9,115.9c6,69.6-6.6,87.6-69.3,148.9C113.6,563.7-40.4,677.4,10.3,894.4
	c56.2,240.2,451.4,238.2,486.5-276.8L624.9,958z M113.8,858.9c-89.9-239.2,146.9-377,270.9-547.6l72.1,199.2
	c18.6,163.4,28.4,239.3-75,366.1C291.2,987.9,142.6,935.4,113.8,858.9z"/>
</svg>
