<svg viewBox="0 0 835 1052" fill="none" stroke="url(#SVGID_1_)" xmlns="http://www.w3.org/2000/svg">

<linearGradient id="SVGID_1_" gradientUnits="userSpaceOnUse" x1="0" y1="0" x2="300" y2="300">
	<stop  offset="0" style="stop-color:#B7A999"/>
	<stop  offset="0.5" style="stop-color:#FFF"/>
	<stop  offset="1" style="stop-color:#B7A999"/>
<animate
      attributeName="x1" from="-1500" to="1700"
      dur="5s" repeatCount="indefinite" />
<animate
      attributeName="x2" from="-1200" to="2000"
      dur="5s" repeatCount="indefinite" />
</linearGradient>
<path class="st0" d="M30.4,321c34.1,73.2,161.3,34.9,121.5-60.7c-12.3-29.5-4.6-84.9,47.8-91.6C55.2,153.4,5.6,267.9,30.4,321z
	 M624.9,958c24.3,60.6,18,82.5-15.7,82.5v10.5h225.3v-10.5c-36.3,0-62.9-19.7-80.6-59.6l-0.4,0.4L384.3,1H213.5v10.5
	c55.4,0,74.4,27.5,104.8,114.3l41.9,115.9c6,69.6-6.6,87.6-69.3,148.9C113.6,563.7-40.4,677.4,10.3,894.4
	c56.2,240.2,451.4,238.2,486.5-276.8L624.9,958z M113.8,858.9c-89.9-239.2,146.9-377,270.9-547.6l72.1,199.2
	c18.6,163.4,28.4,239.3-75,366.1C291.2,987.9,142.6,935.4,113.8,858.9z"/>
</svg>
