<svg width="981" height="115" viewBox="0 0 981 115" fill="none" xmlns="http://www.w3.org/2000/svg">
<g filter="url(#filter0_d_120_976)">
<path d="M10.3799 101.4V14.1799H29.5298C36.5198 14.1799 41.75 14.28 45.21 14.49C48.67 14.69 52.6697 15.41 57.2297 16.62C61.7797 17.84 65.7298 19.75 69.0598 22.35C79.3098 30.24 84.4299 42.07 84.4299 57.85C84.4299 73.63 79.3098 85.34 69.0598 93.23C64.4998 96.73 59.5597 98.9599 54.2397 99.9399C48.9097 100.92 41.9398 101.4 33.3198 101.4H10.3899H10.3799ZM24.5298 88.59H36.4897C42.1797 88.59 46.7798 88.2399 50.2798 87.5499C53.7798 86.8599 56.9498 85.29 59.7998 82.85C66.3898 77.24 69.6799 68.86 69.6799 57.72C69.6799 46.58 66.3898 38.2 59.7998 32.59C56.8698 30.15 53.5398 28.59 49.7998 27.89C46.0598 27.2 41.0598 26.85 34.7998 26.85H24.5498V88.58L24.5298 88.59Z" fill="white"/>
<path d="M112.86 101.4V14.1799H161.54V26.26H127.02V48.1H161.54V60.5399H127.02V88.72H161.54V101.41H112.86V101.4Z" fill="white"/>
<path d="M217.65 104.82L178.74 14.1799H193.5L213.02 60.66C215.22 65.87 216.76 70.5399 217.65 74.6899C218.71 70.2999 220.29 65.62 222.41 60.66L241.93 14.1799H256.57L217.65 104.82Z" fill="white"/>
<path d="M277.55 101.4V14.1799H326.22V26.26H291.7V48.1H326.22V60.5399H291.7V88.72H326.22V101.41H277.55V101.4Z" fill="white"/>
<path d="M354.64 101.4V14.1799H368.79V88.72H400.51V101.41H354.64V101.4Z" fill="white"/>
<path d="M509.09 57.98C509.09 70.67 504.53 81.4399 495.43 90.3099C486.24 99.2599 475.26 103.73 462.49 103.73C449.72 103.73 438.54 99.2599 429.43 90.3099C420.4 81.5299 415.89 70.75 415.89 57.98C415.89 45.21 420.4 34.4 429.43 25.53C438.54 16.67 449.56 12.23 462.49 12.23C475.42 12.23 486.32 16.66 495.43 25.53C504.54 34.48 509.09 45.29 509.09 57.98ZM494.33 57.98C494.33 48.95 491.2 41.2299 484.94 34.7999C478.84 28.4599 471.36 25.28 462.49 25.28C453.62 25.28 446.1 28.4499 439.92 34.7999C433.74 41.1399 430.65 48.87 430.65 57.98C430.65 67.09 433.74 74.6899 439.92 81.0399C446.1 87.3799 453.62 90.5599 462.49 90.5599C471.36 90.5599 478.76 87.3899 484.94 81.0399C491.2 74.6199 494.33 66.93 494.33 57.98Z" fill="white"/>
<path d="M550.81 62.25V101.41H537.51V14.1899H558.98C564.35 14.1899 568.66 14.46 571.91 14.98C575.16 15.51 578.13 16.75 580.82 18.7C583.5 20.65 585.64 23.3599 587.22 26.8099C588.81 30.2699 589.6 34.07 589.6 38.22C589.6 42.37 588.81 46.1899 587.22 49.6899C585.63 53.1899 583.5 55.91 580.82 57.86C578.14 59.73 575.17 60.93 571.91 61.46C568.66 61.99 564.35 62.25 558.98 62.25H550.81ZM551.66 50.66H555.32C562.48 50.66 567.54 49.93 570.51 48.46C573.48 47 574.96 43.8699 574.96 39.0699C574.96 34.2699 573.43 30.76 570.39 29.01C567.34 27.26 562.32 26.39 555.32 26.39H551.66V50.6699V50.66Z" fill="white"/>
<path d="M685.73 58.34C685.73 58.26 685.2 54.27 684.14 46.38C683.41 50.37 682.07 54.39 680.11 58.46L657.3 104.94L634.49 57.49C632.62 53.67 631.2 49.97 630.22 46.39C630.14 50.13 629.61 54.16 628.63 58.47L619.24 101.41H606.19L626.81 10.77L652.55 65.5399C653.36 67.3299 654.95 71.27 657.31 77.37C657.88 75.83 659.55 71.8799 662.31 65.5399L687.44 10.77L708.54 101.41H695.37L685.73 58.35V58.34Z" fill="white"/>
<path d="M732.09 101.4V14.1799H780.76V26.26H746.24V48.1H780.76V60.5399H746.24V88.72H780.76V101.41H732.09V101.4Z" fill="white"/>
<path d="M809.19 101.4V10.76L864.57 64.0699C867.58 66.9999 870.75 70.5399 874.09 74.6799V14.1699H887.14V104.81L830.66 50.52C827.57 47.59 824.76 44.34 822.24 40.76V101.39H809.19V101.4Z" fill="white"/>
<path d="M947.52 26.26V101.41H933.37V26.26H910.19V14.1799H970.58V26.26H947.52Z" fill="white"/>
</g>
<defs>
<filter id="filter0_d_120_976" x="0.379883" y="0.76001" width="980.2" height="114.18" filterUnits="userSpaceOnUse" color-interpolation-filters="sRGB">
<feFlood flood-opacity="0" result="BackgroundImageFix"/>
<feColorMatrix in="SourceAlpha" type="matrix" values="0 0 0 0 0 0 0 0 0 0 0 0 0 0 0 0 0 0 127 0" result="hardAlpha"/>
<feOffset/>
<feGaussianBlur stdDeviation="5"/>
<feColorMatrix type="matrix" values="0 0 0 0 0.298039 0 0 0 0 0.329412 0 0 0 0 0.529412 0 0 0 0.5 0"/>
<feBlend mode="normal" in2="BackgroundImageFix" result="effect1_dropShadow_120_976"/>
<feBlend mode="normal" in="SourceGraphic" in2="effect1_dropShadow_120_976" result="shape"/>
</filter>
</defs>
</svg>
