<svg width="796" height="156" viewBox="0 0 796 156" fill="none" xmlns="http://www.w3.org/2000/svg">
<g clip-path="url(#clip0_828_5753)">
<path d="M30.0193 33.3067L55.476 58.6565C59.6574 62.8453 63.2105 65.6885 66.1787 67.2077C69.1251 68.727 72.0933 69.5734 75.0398 69.7905V71.6787H42.1952V69.7905C44.1667 69.7905 45.575 69.4649 46.4416 68.7921C47.3082 68.1193 47.7415 67.3814 47.7415 66.5783C47.7415 65.7753 47.5898 65.0374 47.2649 64.3863C46.9399 63.7352 45.8783 62.5415 44.0801 60.7618L20.2483 37.1265V59.4161C20.2483 62.9104 20.4649 65.2327 20.8982 66.3613C21.2449 67.2077 21.9598 67.9457 23.0431 68.5534C24.4947 69.3781 26.0546 69.7688 27.6794 69.7688H30.0193V71.657H0.576172V69.7688H3.02435C5.88417 69.7688 7.94237 68.944 9.24229 67.2728C10.0656 66.1877 10.4555 63.5615 10.4555 59.4161V14.7284C10.4555 11.2341 10.2389 8.89012 9.78392 7.73982C9.43728 6.91509 8.74399 6.19887 7.70405 5.59117C6.20915 4.76643 4.64925 4.37576 3.02435 4.37576H0.576172V2.48755H30.0193V4.37576H27.6794C26.0762 4.37576 24.538 4.76643 23.0431 5.54776C21.9815 6.09035 21.2665 6.91509 20.8549 8.00027C20.4432 9.08545 20.2483 11.3426 20.2483 14.7284V35.9111C20.9199 35.26 23.2597 33.1113 27.2245 29.4217C37.3205 20.176 43.4084 13.9905 45.51 10.9086C46.4199 9.54122 46.8749 8.34752 46.8749 7.32746C46.8749 6.54612 46.5066 5.85161 45.8133 5.26561C45.0983 4.67961 43.8851 4.37576 42.1952 4.37576H40.6136V2.48755H65.9837V4.37576C64.4888 4.41917 63.1239 4.6145 61.9106 4.98346C60.6973 5.35243 59.2024 6.09035 57.4259 7.15383C55.671 8.2173 53.4828 9.95359 50.9046 12.341C50.168 13.0138 46.7016 16.5081 40.5703 22.8021L30.0193 33.3067V33.3067Z" fill="white"/>
<path d="M116.681 48.4991H89.9458L85.2661 59.416C84.1178 62.1073 83.5329 64.104 83.5329 65.4279C83.5329 66.4914 84.0311 67.403 85.0278 68.206C86.0244 69.009 88.1909 69.5299 91.5273 69.7686V71.6569H69.7754V69.7686C72.6569 69.2695 74.5201 68.5967 75.3867 67.7719C77.1199 66.1441 79.0265 62.8235 81.1497 57.8317L105.436 0.903076H107.213L131.261 58.4611C133.19 63.0839 134.945 66.1007 136.526 67.4681C138.108 68.8354 140.296 69.6167 143.112 69.7904V71.6786H115.857V69.7904C118.609 69.6601 120.472 69.2044 121.425 68.423C122.4 67.6417 122.877 66.6867 122.877 65.5581C122.877 64.0606 122.205 61.6949 120.84 58.4611L116.659 48.5208L116.681 48.4991ZM115.251 44.7227L103.53 16.7684L91.5057 44.7227H115.251V44.7227Z" fill="white"/>
<path d="M177.235 0.903076C186.205 0.903076 193.961 4.31054 200.547 11.1255C207.112 17.9404 210.405 26.4699 210.405 36.6706C210.405 46.8713 207.09 55.9 200.482 62.8452C193.852 69.7904 185.836 73.2629 176.433 73.2629C167.031 73.2629 158.928 69.8772 152.472 63.1056C145.994 56.3341 142.766 47.5876 142.766 36.8226C142.766 26.0576 146.492 16.8769 153.967 9.93178C160.445 3.91988 168.222 0.903076 177.257 0.903076L177.235 0.903076ZM176.26 4.6361C170.086 4.6361 165.124 6.93668 161.398 11.5161C156.74 17.2242 154.422 25.6018 154.422 36.6272C154.422 47.6527 156.826 56.6163 161.658 62.6933C165.363 67.3161 170.237 69.6384 176.325 69.6384C182.803 69.6384 188.176 67.0991 192.401 62.0422C196.626 56.9635 198.749 48.9766 198.749 38.0597C198.749 26.2312 196.431 17.3978 191.773 11.5813C188.046 6.95838 182.868 4.6361 176.282 4.6361H176.26Z" fill="white"/>
<path d="M230.64 34.5872H262.726V14.7718C262.726 11.2341 262.509 8.91182 262.076 7.78323C261.73 6.93679 261.015 6.19887 259.931 5.59117C258.48 4.76643 256.92 4.37576 255.295 4.37576H252.847V2.48755H282.398V4.37576H279.95C278.325 4.37576 276.765 4.76643 275.314 5.54776C274.23 6.09035 273.494 6.91509 273.104 8.02197C272.714 9.12885 272.519 11.386 272.519 14.7718V59.4378C272.519 62.9321 272.736 65.2544 273.19 66.383C273.537 67.2294 274.23 67.9674 275.27 68.5751C276.765 69.3998 278.325 69.7905 279.95 69.7905H282.398V71.6787H252.847V69.7905H255.295C258.111 69.7905 260.17 68.9657 261.448 67.2945C262.293 66.2094 262.726 63.5832 262.726 59.4378V38.3636H230.64V59.4378C230.64 62.9321 230.857 65.2544 231.29 66.383C231.636 67.2294 232.351 67.9674 233.435 68.5751C234.886 69.3998 236.446 69.7905 238.071 69.7905H240.563V71.6787H210.968V69.7905H213.416C216.276 69.7905 218.334 68.9657 219.634 67.2945C220.457 66.2094 220.847 63.5832 220.847 59.4378V14.7718C220.847 11.2341 220.63 8.91182 220.176 7.78323C219.829 6.93679 219.136 6.19887 218.096 5.59117C216.601 4.76643 215.041 4.37576 213.416 4.37576H210.968V2.48755H240.563V4.37576H238.071C236.446 4.37576 234.908 4.76643 233.435 5.54776C232.373 6.09035 231.658 6.91509 231.246 8.02197C230.835 9.12885 230.64 11.386 230.64 14.7718V34.5872V34.5872Z" fill="white"/>
<path d="M327.159 0.903076V24.8422H325.274C324.667 20.241 323.562 16.5948 321.98 13.8818C320.399 11.1689 318.146 8.99852 315.221 7.39246C312.296 5.78639 309.285 5.00506 306.165 5.00506C302.633 5.00506 299.709 6.09024 297.412 8.2389C295.094 10.4093 293.946 12.8618 293.946 15.6181C293.946 17.7234 294.682 19.655 296.134 21.3913C298.235 23.9523 303.24 27.3381 311.17 31.592C317.626 35.0646 322.024 37.7341 324.385 39.5789C326.747 41.4237 328.567 43.6158 329.845 46.1334C331.123 48.651 331.752 51.2772 331.752 54.0335C331.752 59.2641 329.715 63.7784 325.664 67.5766C321.612 71.3747 316.391 73.2629 310 73.2629C308.006 73.2629 306.122 73.111 304.345 72.8072C303.283 72.6335 301.117 72.0258 297.802 70.9406C294.487 69.8772 292.386 69.3346 291.519 69.3346C290.652 69.3346 290.003 69.595 289.504 70.0942C289.006 70.6151 288.638 71.6569 288.399 73.2629H286.514V49.5409H288.399C289.288 54.511 290.479 58.2223 291.974 60.6965C293.469 63.1707 295.744 65.2109 298.82 66.8387C301.897 68.4664 305.255 69.2912 308.938 69.2912C313.184 69.2912 316.542 68.1626 318.991 65.9271C321.461 63.6916 322.674 61.0221 322.674 57.9619C322.674 56.269 322.197 54.5327 321.266 52.8181C320.334 51.0818 318.882 49.4758 316.911 47.9782C315.589 46.9581 311.971 44.7878 306.056 41.4671C300.142 38.1465 295.939 35.4986 293.447 33.5236C290.956 31.5486 289.049 29.3782 287.771 26.9908C286.471 24.6034 285.843 21.999 285.843 19.1341C285.843 14.164 287.749 9.88837 291.541 6.30728C295.332 2.72618 300.185 0.92478 306.056 0.92478C309.718 0.92478 313.618 1.83633 317.712 3.63773C319.619 4.48417 320.962 4.91825 321.742 4.91825C322.63 4.91825 323.345 4.6578 323.909 4.13691C324.472 3.61603 324.927 2.55255 325.252 0.946483H327.137L327.159 0.903076Z" fill="white"/>
<path d="M364.315 69.7905V71.6787H334.72V69.7905H337.168C340.028 69.7905 342.086 68.9657 343.386 67.2945C344.209 66.2094 344.599 63.5832 344.599 59.4378V14.7284C344.599 11.2341 344.382 8.91182 343.927 7.78323C343.581 6.93679 342.888 6.19887 341.848 5.59117C340.353 4.76643 338.793 4.37576 337.168 4.37576H334.72V2.48755H364.315V4.37576H361.823C359.007 4.37576 356.948 5.2005 355.67 6.87168C354.825 7.95686 354.392 10.583 354.392 14.7284V59.4378C354.392 62.9321 354.608 65.2544 355.063 66.383C355.41 67.2294 356.125 67.9674 357.208 68.5751C358.66 69.3998 360.22 69.7905 361.845 69.7905H364.336H364.315Z" fill="white"/>
<path d="M411.415 4.37576V2.48755H435.875V4.37576H433.276C430.567 4.37576 428.466 5.52605 427.014 7.80493C426.299 8.86841 425.953 11.2992 425.953 15.1625V43.2252C425.953 50.1704 425.259 55.5529 423.895 59.3727C422.53 63.1926 419.821 66.4915 415.792 69.2262C411.762 71.9608 406.302 73.3281 399.369 73.3281C391.83 73.3281 386.11 72.0259 382.211 69.3998C378.311 66.7736 375.538 63.2577 373.913 58.8301C372.83 55.8133 372.288 50.127 372.288 41.7928V14.7284C372.288 10.4745 371.703 7.69642 370.533 6.35079C369.363 5.00517 367.456 4.35406 364.857 4.35406H362.257V2.48755H392.112V4.37576H389.468C386.609 4.37576 384.572 5.28731 383.359 7.08871C382.514 8.30412 382.081 10.8651 382.081 14.7501V44.9181C382.081 47.6094 382.319 50.6913 382.817 54.1639C383.315 57.6364 384.204 60.3277 385.482 62.281C386.782 64.2126 388.623 65.8187 391.05 67.0775C393.476 68.3363 396.466 68.9657 399.998 68.9657C404.504 68.9657 408.556 67.9891 412.13 66.014C415.705 64.039 418.132 61.5214 419.432 58.4395C420.731 55.3576 421.381 50.1487 421.381 42.7912V14.7284C421.381 10.4094 420.905 7.69642 419.952 6.61124C418.63 5.11369 416.658 4.37576 414.037 4.37576H411.437H411.415Z" fill="white"/>
<path d="M430.394 2.48755H449.134L491.36 54.3809V14.4679C491.36 10.214 490.883 7.56619 489.93 6.50272C488.673 5.07028 486.68 4.35406 483.972 4.35406H481.589V2.48755H505.637V4.37576H503.189C500.264 4.37576 498.206 5.26561 496.971 7.0236C496.213 8.10878 495.845 10.6047 495.845 14.4679V72.7855H494.003L448.463 17.0724V59.6766C448.463 63.9305 448.918 66.5783 449.827 67.6418C451.127 69.0742 453.099 69.7904 455.785 69.7904H458.234V71.6787H434.185V69.7904H436.568C439.515 69.7904 441.616 68.9006 442.83 67.1426C443.566 66.0574 443.956 63.5615 443.956 59.6983V11.5597C441.963 9.21567 440.425 7.67471 439.406 6.91509C438.367 6.17716 436.85 5.46094 434.857 4.83154C433.882 4.52769 432.387 4.37576 430.372 4.37576V2.48755H430.394Z" fill="white"/>
<path d="M565.911 0.903026L567.687 22.7369H565.911C564.112 17.2893 561.794 13.1873 558.934 10.4309C554.818 6.45915 549.553 4.46242 543.097 4.46242C534.301 4.46242 527.606 7.9567 523.035 14.9236C519.2 20.8052 517.272 27.8155 517.272 35.9544C517.272 42.5523 518.55 48.5859 521.085 54.0118C523.62 59.4594 526.956 63.4528 531.095 65.9705C535.211 68.5098 539.457 69.7686 543.812 69.7686C546.347 69.7686 548.817 69.443 551.2 68.7919C553.583 68.1408 555.858 67.1859 558.068 65.9271V45.9163C558.068 42.4437 557.808 40.1649 557.266 39.1014C556.746 38.0379 555.923 37.2132 554.818 36.6489C553.713 36.0846 551.763 35.8024 548.99 35.8024V33.8708H575.725V35.8024H574.447C571.804 35.8024 569.984 36.6923 568.987 38.4503C568.315 39.7091 567.969 42.1833 567.969 45.8946V67.0773C564.069 69.1826 560.213 70.7236 556.4 71.7219C552.608 72.6986 548.362 73.1978 543.725 73.1978C530.38 73.1978 520.24 68.9005 513.307 60.3492C508.108 53.925 505.508 46.5023 505.508 38.103C505.508 32.0043 506.959 26.1877 509.884 20.6099C513.351 13.9686 518.095 8.86825 524.14 5.30886C529.188 2.35717 535.168 0.859619 542.079 0.859619C544.592 0.859619 546.867 1.05495 548.925 1.46732C550.983 1.87969 553.886 2.76954 557.656 4.18027C559.563 4.89649 560.841 5.24375 561.469 5.24375C562.098 5.24375 562.661 4.9399 563.116 4.3539C563.571 3.7679 563.852 2.59591 563.961 0.859619H565.846L565.911 0.903026Z" fill="white"/>
<path d="M124.264 130.973H97.5288L92.8491 141.89C91.7008 144.581 91.1159 146.578 91.1159 147.902C91.1159 148.965 91.6142 149.877 92.6108 150.68C93.6074 151.483 95.7739 152.004 99.1104 152.243V154.131H77.3584V152.243C80.2399 151.743 82.1031 151.07 82.9697 150.246C84.7029 148.618 86.6095 145.297 88.7327 140.306L113.019 83.3552H114.796L138.844 140.913C140.773 145.536 142.528 148.553 144.109 149.92C145.691 151.288 147.879 152.069 150.695 152.243V154.131H123.44V152.243C126.192 152.112 128.055 151.656 129.03 150.875C130.005 150.094 130.482 149.139 130.482 148.01C130.482 146.513 129.81 144.147 128.445 140.913L124.264 130.973V130.973ZM122.834 127.197L111.113 99.2423L99.0887 127.197H122.834V127.197Z" fill="white"/>
<path d="M168.461 88.7376V116.084H183.648C187.591 116.084 190.213 115.498 191.535 114.304C193.289 112.742 194.286 109.985 194.481 106.035H196.366V130.126H194.481C194.004 126.762 193.528 124.592 193.051 123.637C192.444 122.443 191.426 121.51 190.04 120.837C188.653 120.164 186.508 119.817 183.627 119.817H168.439V142.628C168.439 145.688 168.569 147.554 168.851 148.206C169.111 148.878 169.588 149.399 170.281 149.79C170.952 150.181 172.252 150.376 174.159 150.376H185.88C189.78 150.376 192.618 150.094 194.394 149.551C196.149 149.009 197.861 147.945 199.486 146.339C201.587 144.234 203.754 141.043 205.964 136.789H208L202.042 154.131H148.811V152.242H151.259C152.884 152.242 154.422 151.852 155.895 151.07C156.978 150.528 157.715 149.703 158.105 148.618C158.495 147.533 158.69 145.297 158.69 141.933V96.985C158.69 92.6008 158.257 89.8879 157.368 88.8678C156.155 87.5005 154.119 86.8277 151.259 86.8277H148.811V84.9395H202.042L202.8 100.089H200.807C200.092 96.4424 199.312 93.9465 198.446 92.5791C197.579 91.2118 196.301 90.1917 194.589 89.4755C193.224 88.9546 190.841 88.7159 187.418 88.7159H168.461V88.7376Z" fill="white"/>
<path d="M275.661 154.152H257.224L233.847 121.792C232.114 121.857 230.705 121.901 229.622 121.901C229.189 121.901 228.712 121.901 228.192 121.879C227.672 121.879 227.152 121.836 226.611 121.792V141.89C226.611 146.252 227.087 148.943 228.04 150.007C229.319 151.504 231.269 152.242 233.847 152.242H236.555V154.131H206.96V152.242H209.56C212.485 152.242 214.565 151.287 215.821 149.377C216.536 148.314 216.883 145.818 216.883 141.868V97.1586C216.883 92.7961 216.406 90.1049 215.453 89.0414C214.131 87.5439 212.16 86.8059 209.538 86.8059H206.938V84.9177H232.092C239.436 84.9177 244.831 85.4603 248.319 86.5238C251.807 87.5873 254.754 89.5623 257.18 92.4489C259.607 95.3138 260.82 98.7429 260.82 102.736C260.82 106.99 259.433 110.68 256.66 113.805C253.887 116.931 249.597 119.144 243.791 120.447L258.047 140.305C261.297 144.863 264.113 147.902 266.453 149.377C268.793 150.875 271.848 151.83 275.617 152.242V154.131L275.661 154.152ZM226.611 118.58C227.261 118.58 227.824 118.58 228.3 118.602C228.777 118.602 229.167 118.623 229.47 118.623C236.057 118.623 241.018 117.191 244.376 114.326C247.713 111.461 249.402 107.837 249.402 103.409C249.402 98.9817 248.059 95.5742 245.351 92.883C242.643 90.17 239.068 88.8244 234.627 88.8244C232.655 88.8244 229.99 89.1499 226.632 89.801V118.58H226.611Z" fill="white"/>
<path d="M307.681 83.3767C316.651 83.3767 324.407 86.7842 330.993 93.5991C337.558 100.414 340.851 108.944 340.851 119.144C340.851 129.345 337.536 138.374 330.928 145.319C324.299 152.264 316.283 155.737 306.88 155.737C297.477 155.737 289.374 152.351 282.918 145.579C276.44 138.808 273.212 130.061 273.212 119.296C273.212 108.531 276.938 99.3506 284.413 92.4054C290.891 86.3935 298.647 83.3767 307.681 83.3767ZM306.706 87.1097C300.532 87.1097 295.571 89.4103 291.844 93.9898C287.186 99.6978 284.868 108.075 284.868 119.101C284.868 130.126 287.273 139.09 292.104 145.167C295.809 149.79 300.705 152.112 306.771 152.112C313.249 152.112 318.622 149.573 322.847 144.516C327.072 139.437 329.195 131.45 329.195 120.533C329.195 108.705 326.877 99.8715 322.219 94.0549C318.492 89.432 313.314 87.1097 306.728 87.1097H306.706Z" fill="white"/>
<path d="M399.997 84.9612L400.755 101.195H398.827C398.459 98.3306 397.939 96.2905 397.289 95.0751C396.227 93.1 394.841 91.6459 393.086 90.7126C391.331 89.7794 389.034 89.3019 386.174 89.3019H376.447V142.172C376.447 146.426 376.902 149.074 377.812 150.137C379.112 151.57 381.083 152.286 383.77 152.286H386.174V154.174H356.883V152.286H359.331C362.256 152.286 364.314 151.396 365.549 149.638C366.286 148.553 366.676 146.057 366.676 142.194V89.3236H358.378C355.15 89.3236 352.853 89.5623 351.51 90.0398C349.733 90.6909 348.239 91.928 346.982 93.7729C345.725 95.6177 344.989 98.0919 344.75 101.217H342.822L343.646 84.9829H400.04L399.997 84.9612Z" fill="white"/>
<path d="M468.655 154.152H450.218L426.841 121.792C425.108 121.857 423.699 121.901 422.616 121.901C422.183 121.901 421.706 121.901 421.186 121.879C420.666 121.879 420.146 121.836 419.605 121.792V141.89C419.605 146.252 420.081 148.943 421.035 150.007C422.335 151.504 424.263 152.242 426.841 152.242H429.549V154.131H399.954V152.242H402.554C405.479 152.242 407.559 151.287 408.815 149.377C409.53 148.314 409.877 145.818 409.877 141.868V97.1586C409.877 92.7961 409.4 90.1049 408.447 89.0414C407.125 87.5439 405.154 86.8059 402.532 86.8059H399.933V84.9177H425.086C432.431 84.9177 437.825 85.4603 441.313 86.5238C444.801 87.5873 447.748 89.5623 450.174 92.4489C452.601 95.3138 453.814 98.7429 453.814 102.736C453.814 106.99 452.428 110.68 449.654 113.805C446.881 116.931 442.592 119.144 436.785 120.447L451.041 140.305C454.291 144.863 457.107 147.902 459.447 149.377C461.787 150.875 464.842 151.83 468.612 152.242V154.131L468.655 154.152ZM419.605 118.58C420.255 118.58 420.818 118.58 421.295 118.602C421.771 118.602 422.161 118.623 422.465 118.623C429.051 118.623 434.012 117.191 437.37 114.326C440.707 111.461 442.397 107.837 442.397 103.409C442.397 98.9817 441.053 95.5742 438.345 92.883C435.637 90.17 432.062 88.8244 427.621 88.8244C425.649 88.8244 422.984 89.1499 419.626 89.801V118.58H419.605Z" fill="white"/>
<path d="M500.677 83.3767C509.646 83.3767 517.402 86.7842 523.988 93.5991C530.553 100.414 533.846 108.944 533.846 119.144C533.846 129.345 530.531 138.374 523.923 145.319C517.294 152.264 509.278 155.737 499.875 155.737C490.472 155.737 482.369 152.351 475.913 145.579C469.435 138.808 466.207 130.061 466.207 119.296C466.207 108.531 469.933 99.3506 477.408 92.4054C483.886 86.3935 491.664 83.3767 500.677 83.3767ZM499.702 87.1097C493.527 87.1097 488.566 89.4103 484.818 93.9898C480.159 99.6978 477.841 108.075 477.841 119.101C477.841 130.126 480.246 139.09 485.078 145.167C488.782 149.79 493.679 152.112 499.745 152.112C506.223 152.112 511.596 149.573 515.821 144.516C520.045 139.437 522.168 131.45 522.168 120.533C522.168 108.705 519.85 99.8715 515.192 94.0549C511.466 89.432 506.288 87.1097 499.702 87.1097Z" fill="white"/>
<path d="M554.037 121.749V141.911C554.037 146.274 554.514 148.965 555.467 150.029C556.767 151.526 558.717 152.264 561.317 152.264H563.96V154.152H534.365V152.264H536.965C539.89 152.264 541.97 151.309 543.226 149.399C543.898 148.336 544.245 145.84 544.245 141.89V97.1803C544.245 92.8179 543.79 90.1266 542.88 89.0631C541.558 87.5656 539.587 86.8277 536.965 86.8277H534.365V84.9395H559.67C565.845 84.9395 570.72 85.5689 574.294 86.8494C577.869 88.1299 580.859 90.2785 583.307 93.2953C585.755 96.3121 586.969 99.9149 586.969 104.06C586.969 109.703 585.105 114.304 581.401 117.842C577.674 121.38 572.431 123.138 565.628 123.138C563.96 123.138 562.162 123.029 560.234 122.791C558.305 122.552 556.225 122.205 554.016 121.727L554.037 121.749ZM554.037 118.84C555.836 119.188 557.439 119.426 558.825 119.6C560.212 119.774 561.404 119.861 562.4 119.861C565.932 119.861 568.986 118.493 571.543 115.759C574.099 113.024 575.399 109.465 575.399 105.124C575.399 102.129 574.793 99.3506 573.558 96.7896C572.344 94.2286 570.611 92.297 568.358 91.0165C566.105 89.7359 563.57 89.1065 560.71 89.1065C558.977 89.1065 556.745 89.4321 554.037 90.0832V118.862V118.84Z" fill="white"/>
<path d="M623.583 83.3767C632.552 83.3767 640.309 86.7842 646.895 93.5991C653.459 100.414 656.752 108.944 656.752 119.144C656.752 129.345 653.438 138.374 646.808 145.319C640.179 152.264 632.184 155.737 622.76 155.737C613.335 155.737 605.254 152.351 598.798 145.579C592.32 138.808 589.092 130.061 589.092 119.296C589.092 108.531 592.818 99.3506 600.293 92.4054C606.771 86.3935 614.548 83.3767 623.561 83.3767H623.583ZM622.608 87.1097C616.433 87.1097 611.472 89.4103 607.724 93.9898C603.066 99.6978 600.748 108.075 600.748 119.101C600.748 130.126 603.153 139.09 607.984 145.167C611.689 149.79 616.585 152.112 622.651 152.112C629.129 152.112 634.502 149.573 638.727 144.516C642.952 139.437 645.075 131.45 645.075 120.533C645.075 108.705 642.757 99.8715 638.099 94.0549C634.372 89.432 629.194 87.1097 622.608 87.1097V87.1097Z" fill="white"/>
<path d="M715.357 135.01L717.047 135.357L711.132 154.131H657.641V152.242H660.241C663.166 152.242 665.245 151.287 666.502 149.377C667.217 148.292 667.564 145.775 667.564 141.825V97.1803C667.564 92.8613 667.087 90.1483 666.134 89.0631C664.812 87.5656 662.841 86.8277 660.219 86.8277H657.619V84.9395H688.904V86.8277C685.242 86.7843 682.664 87.1315 681.191 87.8477C679.718 88.564 678.699 89.4538 678.158 90.5607C677.616 91.6459 677.335 94.2503 677.335 98.374V141.846C677.335 144.668 677.616 146.599 678.158 147.663C678.569 148.379 679.198 148.9 680.043 149.247C680.888 149.595 683.531 149.746 687.994 149.746H693.042C698.328 149.746 702.055 149.356 704.2 148.574C706.344 147.793 708.294 146.404 710.049 144.407C711.826 142.411 713.581 139.285 715.357 134.988V135.01Z" fill="white"/>
<path d="M746.252 152.264V154.152H716.657V152.264H719.105C721.965 152.264 724.023 151.439 725.323 149.768C726.147 148.683 726.537 146.057 726.537 141.911V97.202C726.537 93.7077 726.32 91.3854 725.865 90.2569C725.518 89.4104 724.825 88.6725 723.785 88.0648C722.29 87.2401 720.73 86.8494 719.105 86.8494H716.657V84.9612H746.252V86.8494H743.761C740.944 86.8494 738.886 87.6741 737.608 89.3453C736.763 90.4305 736.329 93.0566 736.329 97.202V141.911C736.329 145.406 736.546 147.728 736.979 148.857C737.326 149.703 738.041 150.441 739.124 151.049C740.576 151.873 742.136 152.264 743.761 152.264H746.252V152.264Z" fill="white"/>
<path d="M791.403 83.3767V107.316H789.518C788.911 102.715 787.806 99.0684 786.225 96.3555C784.643 93.6425 782.39 91.4722 779.465 89.8661C776.54 88.26 773.529 87.4787 770.409 87.4787C766.877 87.4787 763.953 88.5639 761.656 90.7125C759.338 92.8829 758.19 95.3354 758.19 98.0918C758.19 100.197 758.926 102.129 760.378 103.865C762.479 106.426 767.484 109.812 775.414 114.066C781.87 117.538 786.268 120.208 788.629 122.053C790.991 123.897 792.811 126.089 794.089 128.607C795.367 131.125 795.996 133.751 795.996 136.507C795.996 141.738 793.959 146.252 789.908 150.05C785.856 153.848 780.635 155.737 774.244 155.737C772.229 155.737 770.344 155.585 768.589 155.281C767.527 155.107 765.361 154.499 762.046 153.414C758.731 152.351 756.63 151.808 755.763 151.808C754.897 151.808 754.247 152.069 753.748 152.568C753.25 153.089 752.882 154.13 752.643 155.737H750.759V132.015H752.643C753.532 136.985 754.723 140.696 756.218 143.17C757.713 145.644 759.988 147.685 763.064 149.312C766.141 150.94 769.499 151.765 773.182 151.765C777.428 151.765 780.787 150.636 783.235 148.401C785.705 146.165 786.918 143.496 786.918 140.436C786.918 138.743 786.441 137.006 785.51 135.292C784.578 133.555 783.126 131.949 781.155 130.452C779.833 129.432 776.215 127.261 770.301 123.941C764.386 120.62 760.183 117.972 757.691 115.997C755.2 114.022 753.293 111.852 752.015 109.464C750.715 107.077 750.087 104.473 750.087 101.608C750.087 96.6376 751.993 92.362 755.785 88.7809C759.598 85.1998 764.429 83.3984 770.301 83.3984C773.962 83.3984 777.862 84.31 781.957 86.1114C783.863 86.9578 785.206 87.3919 785.986 87.3919C786.875 87.3919 787.589 87.1314 788.153 86.6106C788.716 86.0897 789.171 85.0262 789.496 83.4201H791.381L791.403 83.3767Z" fill="white"/>
</g>
<defs>
<clipPath id="clip0_828_5753">
<rect width="795.419" height="154.834" fill="white" transform="translate(0.576172 0.903076)"/>
</clipPath>
</defs>
</svg>
