<svg width="1842" height="154" viewBox="0 0 1842 154" fill="none" xmlns="http://www.w3.org/2000/svg">
<path d="M54.94 141.64C58.37 144.34 64.14 145.69 72.24 145.69C88.68 145.57 100.65 141.21 108.14 132.62C114.89 125.01 121.58 113.97 128.21 99.49H133.18L127.29 150.67H2.66V145.7C13.34 145.7 19.66 143.98 21.62 140.55C22.97 137.97 23.64 132.94 23.64 125.46V24.19C23.64 18.79 22.54 14.93 20.33 12.59C17.87 10.26 11.43 9.09 1 9.09V4.13H76.29V9.10001C62.67 9.10001 55.06 10.02 53.46 11.86C51.25 14.32 50.15 17.75 50.15 22.17V129.31C50.27 134.83 51.87 138.95 54.94 141.64Z" stroke="white" stroke-miterlimit="10"/>
<path d="M227.83 2.46996C248.82 2.58996 266.73 9.70996 281.58 23.82C295.32 36.95 302.2 54.56 302.2 76.65C302.2 98.74 294.65 117.33 279.56 132.43C266.31 145.56 249.31 152.13 228.57 152.13C207.58 152.01 190.1 145.25 176.11 131.88C161.02 117.28 153.47 99.61 153.47 78.86C153.47 56.77 160.65 38.3 175.01 23.45C188.38 9.45996 206 2.45996 227.84 2.45996L227.83 2.46996ZM184.01 78.87C184.13 101.82 188.49 119.43 197.08 131.7C204.32 142.01 214.81 147.16 228.56 147.16C241.45 147.16 251.63 142.19 259.12 132.25C267.46 121.33 271.64 102.8 271.64 76.66C271.64 52.85 267.71 35.61 259.86 24.93C251.39 13.27 240.72 7.43996 227.83 7.43996C214.58 7.55996 204.2 13.02 196.72 23.82C188.25 36.46 184.02 54.81 184.02 78.86L184.01 78.87Z" stroke="white" stroke-miterlimit="10"/>
<path d="M322.67 78.68C322.79 54.5 329.36 35.73 342.37 22.35C355.99 9.71 374.28 3.39 397.23 3.39C407.29 3.39 415.27 4.68 421.16 7.26C428.4 10.7 433.55 12.35 436.62 12.23C440.05 12.23 443.12 8.49 445.82 1H450.79V53.46H445.82C442.14 39.96 436.55 29.9 429.07 23.27C417.78 13.21 407.16 8.24 397.22 8.36C382 8.48 370.71 14.5 363.35 26.4C356.47 37.94 353.04 55.36 353.04 78.68C353.16 98.81 357.15 114.21 365 124.88C373.1 136.42 384.33 142.18 398.69 142.18C407.53 142.06 416.24 139.97 424.83 135.92C433.3 132.12 442.01 125.92 450.97 117.33L455.2 121.38C445.87 133.16 436.98 141.14 428.51 145.31C419.55 150.34 409.67 152.79 398.87 152.67C374.45 152.67 355.55 146.16 342.17 133.16C329.16 121.13 322.66 102.97 322.66 78.67L322.67 78.68Z" stroke="white" stroke-miterlimit="10"/>
<path d="M533.11 5.05006L533.29 4.68006L533.47 4.31006H538.81L592.75 122.49C595.08 127.89 598.89 133.23 604.16 138.5C608.82 143.29 613 145.68 616.68 145.68V150.65H545.44V145.68C557.1 145.68 563.85 144.02 565.69 140.71C567.16 137.64 566.73 133.47 564.4 128.19L554.46 106.65H500.52L491.87 130.21C489.54 135.98 489.29 139.85 491.13 141.81C493.58 144.39 502.42 145.68 517.64 145.68V150.65H470.88V145.68C473.58 145.56 476.22 144.33 478.8 142C481.5 139.42 483.77 135.92 485.61 131.51L533.1 5.23006V5.05006H533.11ZM502.37 101.69H552.07L524.64 42.0501L502.37 101.69Z" stroke="white" stroke-miterlimit="10"/>
<path d="M647.46 22.35C641.32 29.84 638.26 39.17 638.26 50.33H633.29V3.94995H758.47V50.34H753.5C753.38 37.82 749.75 27.82 742.64 20.34C737.49 14.94 726.38 11.81 709.32 10.95V125.45C709.32 133.55 710.61 138.95 713.19 141.65C715.89 144.35 722.82 145.7 733.99 145.7V150.67H658.88V145.7C670.17 145.7 676.92 144.04 679.13 140.73C680.72 138.4 681.52 133.31 681.52 125.45V10.94C664.09 12.17 652.74 15.97 647.46 22.35Z" stroke="white" stroke-miterlimit="10"/>
<path d="M851.28 4.5V9.47C839.62 9.47 833.06 10.21 831.58 11.68C829.25 14.01 828.08 17.45 828.08 21.99V125.26C828.08 133.85 829.43 139.5 832.13 142.2C834.71 144.78 841.03 146.07 851.09 146.07V151.04H778.75V146.07C789.18 146.07 795.38 144.6 797.34 141.65C799.3 138.83 800.29 133.37 800.29 125.27V21.99C800.29 17.33 799 13.83 796.42 11.5C794.7 10.15 788.81 9.47 778.75 9.47V4.5H851.28Z" stroke="white" stroke-miterlimit="10"/>
<path d="M946.49 2.46996C967.48 2.58996 985.39 9.70996 1000.24 23.82C1013.98 36.95 1020.86 54.56 1020.86 76.65C1020.86 98.74 1013.31 117.33 998.22 132.43C984.97 145.56 967.97 152.13 947.23 152.13C926.24 152.01 908.76 145.25 894.77 131.88C879.68 117.28 872.13 99.61 872.13 78.86C872.13 56.77 879.31 38.3 893.67 23.45C907.04 9.45996 924.66 2.45996 946.5 2.45996L946.49 2.46996ZM902.68 78.87C902.8 101.82 907.16 119.43 915.75 131.7C922.99 142.01 933.48 147.16 947.23 147.16C960.12 147.16 970.3 142.19 977.79 132.25C986.13 121.33 990.31 102.8 990.31 76.66C990.31 52.85 986.38 35.61 978.53 24.93C970.06 13.27 959.39 7.43996 946.5 7.43996C933.25 7.55996 922.87 13.02 915.39 23.82C906.92 36.46 902.69 54.81 902.69 78.86L902.68 78.87Z" stroke="white" stroke-miterlimit="10"/>
<path d="M1163.56 152.68L1160.8 149.92L1067.84 35.05V126.17C1067.84 133.41 1069.13 138.38 1071.71 141.08C1074.53 144.27 1080.91 145.87 1090.85 145.87V150.84H1041.88V145.87C1052.06 145.87 1057.96 144.15 1059.55 140.71C1060.77 138.13 1061.39 133.29 1061.39 126.17V25.12C1061.39 20.7 1060.29 16.84 1058.08 13.52C1056.12 10.82 1049.98 9.47 1039.67 9.47V4.5H1082.01L1160.8 102.62V23.83C1160.68 18.92 1159.26 15.12 1156.57 12.42C1154.48 10.46 1148.29 9.47 1137.98 9.47V4.5H1188.23V9.47C1178.53 9.47 1172.89 10.39 1171.29 12.23C1168.59 15.18 1167.24 19.04 1167.24 23.83V152.69H1163.56V152.68Z" stroke="white" stroke-miterlimit="10"/>
<path d="M1841.42 4.56006H1202.4V13.7701H1841.42V4.56006Z" stroke="white" stroke-miterlimit="10"/>
</svg>
