<svg width="346" height="66" viewBox="0 0 346 66" fill="none" xmlns="http://www.w3.org/2000/svg">
<path d="M19.4928 41.3951C20.478 42.1706 22.1353 42.5584 24.4618 42.5584C29.1837 42.5239 32.6218 41.2716 34.7731 38.8044C36.7118 36.6186 38.6334 33.4476 40.5377 29.2887H41.9652L40.2734 43.9887H4.47679V42.5612C7.54433 42.5612 9.35958 42.0672 9.92254 41.082C10.3103 40.341 10.5027 38.8963 10.5027 36.7478V7.66075C10.5027 6.10974 10.1868 5.00106 9.55202 4.32896C8.84546 3.65973 6.99574 3.32368 4 3.32368V1.89905H25.625V3.32655C21.7131 3.32655 19.5273 3.59079 19.0677 4.11928C18.433 4.82585 18.117 5.81103 18.117 7.08056V37.8537C18.1515 39.4391 18.611 40.6225 19.4928 41.3951Z" stroke="white" stroke-miterlimit="10"/>
<path d="M69.1509 1.42218C75.1797 1.45665 80.3239 3.50168 84.5891 7.5544C88.5356 11.3256 90.5117 16.3836 90.5117 22.7284C90.5117 29.0732 88.3431 34.4126 84.0089 38.7497C80.2032 42.521 75.3204 44.408 69.3634 44.408C63.3346 44.3735 58.314 42.4319 54.2957 38.5917C49.9615 34.3983 47.793 29.323 47.793 23.3632C47.793 17.0184 49.8552 11.7134 53.9798 7.44813C57.8199 3.42987 62.8808 1.41931 69.1538 1.41931L69.1509 1.42218ZM56.5648 23.366C56.5992 29.9578 57.8515 35.0158 60.3188 38.54C62.3983 41.5013 65.4112 42.9805 69.3606 42.9805C73.0629 42.9805 75.9868 41.553 78.1381 38.698C80.5335 35.5615 81.7341 30.2393 81.7341 22.7313C81.7341 15.8925 80.6053 10.9408 78.3506 7.87322C75.9179 4.52419 72.8532 2.84968 69.1509 2.84968C65.3452 2.88415 62.3638 4.45239 60.2154 7.5544C57.7826 11.1849 56.5676 16.4554 56.5676 23.3632L56.5648 23.366Z" stroke="white" stroke-miterlimit="10"/>
<path d="M96.3911 23.3115C96.4255 16.3664 98.3126 10.9753 102.049 7.13222C105.961 3.50171 111.215 1.68646 117.806 1.68646C120.696 1.68646 122.988 2.05698 124.68 2.79802C126.759 3.78607 128.238 4.25998 129.12 4.22552C130.105 4.22552 130.987 3.1513 131.763 1H133.19V16.0677H131.763C130.706 12.1902 129.1 9.30075 126.952 7.39646C123.709 4.507 120.659 3.0795 117.804 3.11396C113.432 3.14843 110.189 4.87751 108.075 8.29547C106.099 11.61 105.114 16.6135 105.114 23.3115C105.148 29.0933 106.295 33.5165 108.549 36.5812C110.876 39.8958 114.101 41.5502 118.226 41.5502C120.765 41.5157 123.267 40.9154 125.734 39.7522C128.167 38.6607 130.668 36.8799 133.242 34.4127L134.457 35.5759C131.777 38.9594 129.224 41.2515 126.791 42.4492C124.217 43.8939 121.379 44.5976 118.277 44.5631C111.263 44.5631 105.835 42.6933 101.992 38.9594C98.2551 35.5041 96.3882 30.2881 96.3882 23.3086L96.3911 23.3115Z" stroke="white" stroke-miterlimit="10"/>
<path d="M156.834 2.16323L156.886 2.05696L156.938 1.95068H158.472L173.964 35.8947C174.634 37.4457 175.728 38.9795 177.242 40.4932C178.58 41.869 179.781 42.5554 180.838 42.5554V43.9829H160.376V42.5554C163.725 42.5554 165.664 42.0786 166.192 41.1279C166.614 40.2462 166.491 39.0484 165.822 37.5319L162.967 31.3451H147.474L144.989 38.1121C144.32 39.7694 144.248 40.8809 144.777 41.4439C145.48 42.1849 148.019 42.5554 152.391 42.5554V43.9829H138.96V42.5554C139.736 42.521 140.494 42.1677 141.235 41.4984C142.011 40.7574 142.663 39.7521 143.191 38.4855L156.831 2.21493V2.16323H156.834ZM148.005 29.9205H162.28L154.402 12.7905L148.005 29.9205Z" stroke="white" stroke-miterlimit="10"/>
<path d="M189.678 7.1322C187.915 9.2835 187.036 11.9633 187.036 15.1687H185.608V1.84729H221.563V15.1716H220.136C220.101 11.5755 219.058 8.70331 217.016 6.55488C215.537 5.00387 212.346 4.10486 207.446 3.85785V36.7449C207.446 39.0714 207.817 40.6224 208.558 41.3979C209.333 42.1734 211.323 42.5612 214.532 42.5612V43.9887H192.958V42.5612C196.201 42.5612 198.14 42.0844 198.775 41.1337C199.231 40.4644 199.461 39.0025 199.461 36.7449V3.85498C194.455 4.20826 191.195 5.29971 189.678 7.1322Z" stroke="white" stroke-miterlimit="10"/>
<path d="M248.22 2.00525V3.43275C244.871 3.43275 242.987 3.64529 242.562 4.06751C241.892 4.73674 241.556 5.72479 241.556 7.02878V36.6903C241.556 39.1576 241.944 40.7804 242.72 41.5559C243.461 42.2969 245.276 42.6674 248.165 42.6674V44.0949H227.388V42.6674C230.383 42.6674 232.164 42.2452 232.727 41.3979C233.29 40.5879 233.574 39.0197 233.574 36.6932V7.02878C233.574 5.69032 233.204 4.68504 232.463 4.01581C231.969 3.62806 230.277 3.43275 227.388 3.43275V2.00525H248.22Z" stroke="white" stroke-miterlimit="10"/>
<path d="M275.566 1.42218C281.595 1.45665 286.739 3.50168 291.005 7.5544C294.951 11.3256 296.927 16.3836 296.927 22.7284C296.927 29.0732 294.759 34.4126 290.424 38.7497C286.619 42.521 281.736 44.408 275.779 44.408C269.75 44.3735 264.729 42.4319 260.711 38.5917C256.377 34.3983 254.208 29.323 254.208 23.3632C254.208 17.0184 256.271 11.7134 260.395 7.44813C264.235 3.42987 269.296 1.41931 275.569 1.41931L275.566 1.42218ZM262.983 23.366C263.018 29.9578 264.27 35.0158 266.737 38.54C268.817 41.5013 271.83 42.9805 275.779 42.9805C279.481 42.9805 282.405 41.553 284.556 38.698C286.952 35.5615 288.153 30.2393 288.153 22.7313C288.153 15.8925 287.024 10.9408 284.769 7.87322C282.336 4.52419 279.272 2.84968 275.569 2.84968C271.764 2.88415 268.782 4.45239 266.634 7.5544C264.201 11.1849 262.986 16.4554 262.986 23.3632L262.983 23.366Z" stroke="white" stroke-miterlimit="10"/>
<path d="M337.914 44.566L337.121 43.7732L310.421 10.7799V36.9517C310.421 39.0312 310.792 40.4587 311.533 41.2342C312.343 42.1504 314.175 42.61 317.03 42.61V44.0375H302.965V42.61C305.889 42.61 307.583 42.116 308.04 41.1279C308.39 40.3869 308.569 38.9967 308.569 36.9517V7.92779C308.569 6.65826 308.253 5.54958 307.618 4.596C307.055 3.8205 305.291 3.43275 302.33 3.43275V2.00525H314.491L337.121 30.1876V7.55727C337.087 6.14701 336.679 5.05556 335.906 4.28006C335.306 3.7171 333.528 3.43275 330.567 3.43275V2.00525H345V3.43275C342.214 3.43275 340.594 3.69699 340.134 4.22548C339.359 5.07279 338.971 6.18147 338.971 7.55727V44.5689H337.914V44.566Z" stroke="white" stroke-miterlimit="10"/>
<path d="M345 59.9395H0V64.9395H345V59.9395Z" stroke="white" stroke-miterlimit="10"/>
</svg>
