<svg viewBox="0 0 616 543" fill="none" xmlns="http://www.w3.org/2000/svg" xmlns:xlink="http://www.w3.org/1999/xlink">
<radialGradient id="p0" cx="95" cy="103" r="95" gradientUnits="userSpaceOnUse">
	<stop offset="0.5" stop-opacity="0.23"/>
	<stop offset="0.75" stop-opacity="0.09"/>
	<stop offset="0.85" stop-opacity="0.03"/>
	<stop offset="1" stop-opacity="0"/>
</radialGradient>
<linearGradient id="p1" x1="16.4502" y1="0" x2="153.45" y2="0" gradientUnits="userSpaceOnUse">
	<stop stop-color="#324591"/>
	<stop offset="1" stop-color="#737CB0"/>
</linearGradient>
<linearGradient id="p2" x1="157.45" y1="0" x2="12.4502" y2="0" gradientUnits="userSpaceOnUse">
	<stop stop-color="#324591"/>
	<stop offset="1" stop-color="#737CB0"/>
</linearGradient>
<linearGradient id="p3" x1="16.4502" y1="0" x2="153.45" y2="0" gradientUnits="userSpaceOnUse">
<stop stop-color="#364E95"/>
<stop offset="0.92" stop-color="#4C9788"/>
<stop offset="1" stop-color="#4E9E87"/>
</linearGradient>
<linearGradient id="p4" x1="157.45" y1="0" x2="12.4502" y2="0" gradientUnits="userSpaceOnUse">
<stop stop-color="#364E95"/>
<stop offset="0.92" stop-color="#4C9788"/>
<stop offset="1" stop-color="#4E9E87"/>
</linearGradient>
<defs>
<g id="list1">
	<circle fill="url(#p0)" cx="95" cy="102" r="95"/>
	<polygon style="fill:url(#p1);stroke:url(#p2);stroke-width:8;" points="16.5,43.4 84.9,4 153.4,43.4 153.4,122.6 84.9,162.1 16.5,122.6"/>
</g>
<g id="list2">
	<circle fill="url(#p0)" cx="95" cy="102" r="95"/>
	<polygon style="fill:url(#p3);stroke:url(#p4);stroke-width:8;" points="16.5,43.4 84.9,4 153.4,43.4 153.4,122.6 84.9,162.1 16.5,122.6"/>
</g>
</defs>
<circle stroke="#fff8" stroke-width="8" cx="319.4" cy="254.6" r="179.5"/>
<use xlink:href="#list1" x="333" y="3" />
<use xlink:href="#list1" x="40" y="174" />
<use xlink:href="#list1" x="333" y="345" />
<use xlink:href="#list2" x="135" y="3" />
<use xlink:href="#list2" x="426" y="174" />
<use xlink:href="#list2" x="135" y="345" />
<path fill="#231815" d="M234.3,288h-4.2v-7.1h0.9v6.3h3.3V288z M256.4,280.9v5.8l-1,1.3h-3.2l-1-1.3v-5.8h0.9v5.6l0.6,0.8h2.2l0.6-0.8
	v-5.6H256.4L256.4,280.9z M277.8,288.1l-2.1-2.9l-2.1,2.9l-0.7-0.5l2.3-3.1l-2.3-3.2l0.7-0.5l2.1,2.9l2.1-2.9l0.7,0.5l-2.3,3.2
	l2.3,3.1L277.8,288.1L277.8,288.1z M300.3,280.9v5.8l-1,1.3h-3.2l-1-1.3v-5.8h0.9v5.6l0.6,0.8h2.2l0.6-0.8v-5.6H300.3L300.3,280.9z
	 M321.5,287.2h0.9v0.8H321l-2.2-2.9H318v2.9h-0.9v-7.1h3.7l1.1,0.8v2.6l-1.1,0.8H320L321.5,287.2L321.5,287.2z M320.6,284.3l0.5-0.4
	v-1.8l-0.5-0.4h-2.5v2.6L320.6,284.3L320.6,284.3z M341.4,281.7h-0.6v5.5h0.6v0.8h-2.2v-0.8h0.6v-5.5h-0.6v-0.8h2.2V281.7z M358,288
	v-3.8l2.6-3.4h0.9l2.6,3.4v3.8h-0.9v-2.2H359v2.2H358z M363.2,284.5l-2.1-2.8c-0.7,0.9-1.4,1.8-2.1,2.8v0.5h4.3L363.2,284.5
	L363.2,284.5z M381,288v-7.1h1.3l3.4,6.1v-6.1h0.9v7.1h-1.3l-3.3-6v6.1h-1V288z M405.5,288v-6.3h-2.2v-0.8h5.3v0.8h-2.2v6.3H405.5
	L405.5,288z M312.6,256l-3,3.6h-3.3v-28h8.5v-4.2h-22.4v4.2h8.9v28h-8.9v4.2H312l4.6-5.4L312.6,256z M326.9,221.3h-5v5.7h-4.4v4.2
	h4.4v26l-6.1,7.6l4.1,2.3l7-8.6v-27.2h14.3v31.2h-10.9v4.2h15.9V227h-19.3V221.3L326.9,221.3z M230.1,246.4h55.7v-3.7h-55.7
	L230.1,246.4L230.1,246.4z M375.4,261.6l7.1,5.8l3.5-2.9l-7.1-5.8L375.4,261.6z M383.2,237.4v-2.7h24v-4.2h-24v-2.8h24v-4.2h-24
	v-2.3h-5v2.3h-24.1v4.2h24.1v2.8h-24.1v4.2h24.1v2.7h-25.5v4.2h56v-4.2H383.2L383.2,237.4z M357,267.4h5v-18.9h37.4v18.9h5v-23.1
	H357V267.4z M375.4,252.7l7.1,5.8l3.5-2.9l-7.1-5.8L375.4,252.7z"/>
<path fill="#fff" d="M200.2,65.6c-1,0.3-1.9,0.6-2.9,0.9v7.6c0,1.7-0.3,2.6-1.2,3.1c-0.9,0.6-2.2,0.7-4.2,0.7
	c-0.1-0.9-0.5-2.4-0.9-3.3c1.1,0.1,2.1,0.1,2.5,0c0.4,0,0.5-0.1,0.5-0.5v-6.7c-1,0.3-2,0.6-2.9,0.8l-0.8-3.4c1-0.2,2.3-0.5,3.6-0.9
	v-5.2h-3.2v-3.3h3.2v-5.7h3.3v5.7h2.8v3.3h-2.8V63l2.4-0.7L200.2,65.6L200.2,65.6z M210.8,74.4c0.8,0.1,1.7,0.1,2.5,0.1
	c0.9,0,4.5,0,5.8-0.1c-0.5,0.8-0.9,2.2-1,3.1h-5c-4.2,0-7.4-0.7-9.7-3.6c-0.7,1.6-1.6,3-2.7,4c-0.5-0.5-2-1.5-2.7-2
	c2.2-1.9,3.3-5,3.7-8.6l3.3,0.4c-0.1,1-0.3,1.9-0.5,2.8c0.8,1.4,1.8,2.2,3.1,2.8v-6.5h-5.7v-2.7h5.7v-1.5H200v-2.8h7.4v-1.4h-5.7V56
	h5.7v-1.3h-6.9v-2.8h6.9v-2.3h3.3v2.3h7.6v2.8h-7.6V56h6.4v4.1h1.9v2.8h-1.9v4.2h-6.4v1.8h6.6v2.8h-6.6v2.7H210.8z M210.8,60.1h3.1
	v-1.4h-3.1V60.1z M210.8,64.4h3.1v-1.5h-3.1V64.4z M229.2,64.3c-0.4,2.5-1.2,5.2-2.1,7.4c0.4,0.3,1,0.7,1.8,1.2
	c2.1,1.2,4.9,1.4,8.4,1.4s8.9-0.3,12.2-0.8c-0.4,1-1,2.7-1.1,3.7c-2.5,0.2-7.8,0.4-11.4,0.4c-4,0-6.6-0.3-8.7-1.6
	c-1.3-0.7-2.3-1.7-3-1.7s-1.8,2.1-2.5,3.8l-2.4-3.4c1.1-1.3,2.2-2.3,3.3-2.9c0.7-1.5,1.3-3.4,1.7-5.2h-3.8c0.7-1.8,1.5-4.2,2.2-6.5
	H221v-3.2h7.2c-0.6,2.1-1.4,4.6-2.1,6.6h0.5l0.5-0.1L229.2,64.3L229.2,64.3z M224.3,55.9c-0.3-1.4-1.1-3.6-1.7-5.2l3.2-1
	c0.6,1.6,1.4,3.7,1.8,5L224.3,55.9z M231.6,56.6h-2.5v-6h19.2v6h-3.1v1.1h-4.6v1.1h6.3v8.8h-6.3v1.1h7.8v2.6h-7.8v2H237v-2h-7.7
	v-2.6h7.7v-1.1h-6.2v-8.8h6.2v-1.1h-5.4V56.6z M232.4,53.2v2h4.7V54h3.5v1.2h4.3v-2H232.4z M233.8,62.2h3.2V61h-3.2V62.2z M237,65.5
	v-1.2h-3.2v1.2H237z M240.5,61v1.2h3.1V61H240.5z M243.6,64.3h-3.1v1.2h3.1V64.3z M185.6,102.4c-0.4,4.4-1.1,8.1-2.4,10.9
	c3.3,2.1,7.7,2.6,12.3,2.6c1.7,0,6.6,0,8.6-0.1c-0.5,0.9-1.1,2.5-1.4,3.6h-7.3c-5.4,0-10.1-0.6-13.8-3.1c-1.1,1.6-2.5,3-4.2,4.1
	c-0.4-0.9-1.3-2.4-2-3.1c1.4-0.8,2.6-1.9,3.6-3.3c-1.4-1.5-2.5-3.5-3.4-5.9l2.7-1.2c0.6,1.7,1.4,3,2.3,4.1c0.7-1.7,1.2-3.8,1.5-6
	h-5.6c1.3-2.3,2.9-5.5,4.3-8.6h-5v-3.2h9.7c-1.3,2.8-2.9,6.2-4.3,8.9h1.7l0.6-0.1L185.6,102.4L185.6,102.4z M203,114h-17v-3.3h1.5
	V99.1h3.4v11.5h2.7V97c-2.1,0.2-4.4,0.4-6.4,0.5c-0.1-0.9-0.5-2.2-0.9-3c5.2-0.3,10.9-1.1,14.6-2.2l2,3c-1.7,0.5-3.7,0.9-5.7,1.2
	v5.1h5.1v3.2h-5.1v5.8h5.8L203,114L203,114z M215.9,93c-0.8,2.1-1.8,4.3-2.9,6.3v20.6h-3.4v-15.4c-0.7,0.9-1.3,1.7-2,2.4
	c-0.3-0.9-1.3-2.9-1.9-3.7c2.7-2.7,5.3-7,6.8-11.3L215.9,93L215.9,93z M232.7,95.8V113h-3.4v-1.3h-3.4v8.3h-3.7v-8.3h-3.3v1.5h-3.3
	V95.8h6.6v-4h3.7v4H232.7z M218.9,99.1v3h3.3v-3H218.9z M222.3,108.4v-3.1H219v3.1H222.3z M225.9,99.1v3h3.4v-3H225.9z M229.4,108.4
	v-3.1H226v3.1H229.4z M244.4,110.6c-0.1-0.4-0.1-0.8-0.2-1.3c-5.5,0.8-6.5,1.1-7.1,1.4c-0.2-0.7-0.8-2.3-1.2-3.2
	c0.8-0.2,1.5-0.9,2.5-2c0.3-0.4,1-1.2,1.8-2.4c-2.2,0.3-2.9,0.4-3.3,0.7c-0.2-0.7-0.7-2.2-1.1-3.1c0.6-0.2,1.1-0.7,1.7-1.6
	c0.6-0.8,2.4-4.1,3.3-7.3l3.3,1.4c-1,2.4-2.5,5-3.9,7.1l2-0.2c0.8-1.3,1.5-2.7,2.1-4l3.1,1.9c-1.2,2.1-2.5,4.2-4,6.2l2.2-0.6
	c0.7,2,1.4,4.7,1.6,6.3L244.4,110.6L244.4,110.6z M239.9,112.1c-0.2,2.8-0.7,5.7-1.4,7.6c-0.6-0.3-1.9-0.7-2.7-0.9
	c0.7-1.8,1.1-4.6,1.3-7.1L239.9,112.1L239.9,112.1z M242.9,111.6c0.3,2,0.6,4.6,0.7,6.4l-2.7,0.4c0-1.7-0.2-4.4-0.5-6.4L242.9,111.6
	z M243.6,106.5c-0.2-0.7-0.4-1.4-0.5-2.1c-0.6,0.8-1.3,1.6-2,2.4L243.6,106.5L243.6,106.5z M245.7,110.7c0.5,1.3,1,3,1.2,4.2
	l-2.4,0.8c-0.2-1.1-0.7-2.9-1.1-4.2L245.7,110.7L245.7,110.7z M254.1,108.5c-1,4.7-3.2,8.2-6.4,10.1c-0.4-0.7-1.4-1.9-2-2.5
	c1.9-1,3.5-3.1,4.4-5.3h-2.7v-2.9h4l0.5-0.1L254.1,108.5z M263.9,108.7c-1.4,1.1-2.8,2.3-4,3.2c1.2,1.8,2.7,3.3,4.4,4.2
	c-0.8,0.7-1.8,2-2.4,2.9c-1.8-1.2-3.2-3-4.4-5v2.6c0,1.6-0.3,2.5-1.3,3.1c-1,0.5-2.4,0.6-4.4,0.6c-0.1-1-0.5-2.4-1-3.3
	c1.1,0.1,2.4,0.1,2.7,0c0.4,0,0.5-0.1,0.5-0.4V106h-5.8V95h4.3c0.4-1.1,0.8-2.3,1-3.2l4.1,0.7c-0.4,0.9-0.9,1.7-1.4,2.5h6.5v11h-5.3
	v1c0.3,0.8,0.6,1.7,0.9,2.4c1-0.9,2-2.1,2.7-2.9L263.9,108.7L263.9,108.7z M251.8,99.2h7.7v-1.5h-7.7V99.2z M251.8,103.3h7.7v-1.6
	h-7.7V103.3z M402.2,74c0,1.7-0.4,2.5-1.5,3s-2.7,0.6-5.1,0.6c-0.2-0.9-0.7-2.2-1.1-3c1.4,0.1,3.1,0.1,3.5,0.1
	c0.5,0,0.7-0.2,0.7-0.7V54.5H393l3.3,0.8c-0.8,1.4-1.5,2.8-2.3,4h3.8v2.9h-6.9V70h2.4v-6.3h3.2V73h-14.3v-9.2h3v6.3h2.4v-7.8h-6.5
	v-2.9h3.3c-0.4-1.1-1.1-2.7-1.7-3.8l2.9-1c0.8,1.3,1.6,3,2,4.1l-1.9,0.7h4.9c0.8-1.5,1.6-3.3,2.1-4.8h-12.6V78h-3.5V51.1h25.6
	L402.2,74L402.2,74z M431.8,56v21.8H428v-2.1h-20.8V56.2h3.7V72h6.6V49.9h3.8V72h6.7V56H431.8L431.8,56z M447.5,69.2l0.4,3.3
	c-3.9,1-8.1,1.9-11.2,2.7l-0.8-3.6c1.7-0.3,3.9-0.7,6.2-1.2c0.7-3.1,1.4-7.9,1.7-11.3l3.3,0.5c-0.6,3.3-1.3,7.2-2.1,10.1L447.5,69.2
	L447.5,69.2z M442.1,55h6.1v3.3h-12.1V55h5.1c-0.3-1.2-1.1-3-1.7-4.3l3.1-0.9c0.9,1.3,1.6,3.1,2,4.3L442.1,55L442.1,55z M439.9,59.3
	c0.6,3.2,1.2,7.2,1.4,9.9l-2.9,0.6c-0.1-2.7-0.6-6.9-1.2-10.1L439.9,59.3L439.9,59.3z M456.7,58.7v5.2h6v13.9H459v-1.3h-7.2V78h-3.5
	V64h4.7V49.7h3.7v5.6h7v3.4H456.7z M459,67.2h-7.2v5.9h7.2V67.2z M384.9,96.1V120h-3v-5.2c-2.1,0.4-4.3,0.8-6.1,1.1l-0.7-3.1
	l1.6-0.2V96.2h-1.1V93h10.2v3.2L384.9,96.1L384.9,96.1z M381.9,96.1h-2.3v3.2h2.3V96.1z M381.9,102.2h-2.3v3.2h2.3V102.2z
	 M381.9,111.8v-3.4h-2.3v3.7L381.9,111.8z M393.1,101.2c0.6,1.6,1.2,3.7,1.5,5l-2.1,0.7c-0.1-0.4-0.2-0.9-0.3-1.4
	c-4.9,0.6-5.7,0.8-6.2,1.1c-0.1-0.7-0.5-2.2-0.8-3.1c0.5-0.1,1.1-0.6,1.8-1.4c0.2-0.2,0.7-0.8,1.3-1.5c-1.4,0.2-1.8,0.3-2.1,0.4
	c-0.1-0.7-0.5-2.3-0.8-3.2c0.4-0.1,0.9-0.5,1.2-1.1c0.4-0.5,1.8-2.6,2.7-4.8l2.5,1.1c-0.9,1.9-2.2,3.8-3.3,5.2l1.4-0.1
	c0.5-0.9,1.1-1.7,1.6-2.7l2.3,1.2c-1.5,2.5-3.3,5-5,6.8l2.8-0.3c-0.2-0.5-0.3-1.1-0.5-1.6L393.1,101.2L393.1,101.2z M390.6,106.9h3
	v4.5c0,3.1-1,6.7-5.6,8.8c-0.3-0.7-1.3-2-1.9-2.5c2.3-1,3.4-2.2,4-3.5h-3.8v-7.3h2.9v4.3h1.4V106.9L390.6,106.9z M401.6,106.7
	c-0.1-0.4-0.2-1-0.4-1.5c-4.8,0.8-5.6,1.1-6.2,1.4c-0.1-0.7-0.5-2.2-0.7-3c0.5-0.1,1-0.6,1.6-1.4c0.3-0.3,0.8-1,1.4-1.9
	c-1.9,0.2-2.4,0.4-2.7,0.5c-0.1-0.7-0.5-2.1-0.8-3c0.4-0.1,0.8-0.4,1.2-1c0.4-0.5,1.9-2.6,2.7-4.7l2.2,1.2C399,95,398,96.6,397,98
	l1.6-0.1c0.4-0.8,0.9-1.6,1.2-2.5l2.3,1.2c-1.3,2.5-2.8,4.9-4.3,6.8l2.6-0.4c-0.2-0.5-0.4-1.1-0.6-1.5l2-0.7c0.7,1.6,1.5,3.7,1.8,5
	L401.6,106.7L401.6,106.7z M399.4,107.1h2.9v8.2h-2.9v-1h-1.5v5.8h-3.1V107h3.1v4.2h1.5V107.1L399.4,107.1z M410.3,103.6V120h-3.5
	V92.9h11.6v10.7H410.3L410.3,103.6z M410.3,95.5V97h4.7v-1.5H410.3z M415.1,101v-1.7h-4.7v1.7H415.1z M423.9,113.2v6.2h-3.1v-6.2
	h-2.9c-0.3,2.1-1.3,5-3.9,6.8c-0.5-0.6-1.6-1.6-2.3-2.1c1.9-1.2,2.8-3.2,3.1-4.7h-3.1v-2.9h3.2V108h-2.8v-2.8h14.6v2.8h-2.8v2.3h3.3
	v2.9L423.9,113.2L423.9,113.2z M420.8,110.3V108H418v2.3H420.8z M432.3,115.8c0,1.8-0.3,2.8-1.4,3.4s-2.7,0.7-4.9,0.7
	c-0.1-1-0.6-2.6-1.1-3.6c1.4,0.1,2.8,0.1,3.3,0c0.5,0,0.6-0.2,0.6-0.6v-12.1h-8.3V93h11.8V115.8z M423.9,95.5V97h4.9v-1.5H423.9z
	 M428.8,101.1v-1.7h-4.9v1.7H428.8z M463.4,113.2h-7c2.4,1.2,5.2,2.8,6.8,4.1l-2.8,2.5c-1.6-1.4-5-3.5-7.6-4.9l2.1-1.7h-3.5v6.8
	h-3.6v-6.8h-5.1l3.5,1.2c-1.8,2.1-4.7,3.9-7.3,5.1c-0.7-0.7-2.2-1.8-3-2.4c2.6-0.8,5.2-2.3,6.6-3.9H436v-3h11.8v-2.1h3.6v2.1h12
	V113.2L463.4,113.2z M459.7,109.6c-2.1-0.9-5.1-1.8-8.6-2.6c-3.4,1.4-7.9,2-13.8,2.4c-0.3-1.1-0.7-2.2-1.2-3
	c3.5-0.1,6.4-0.3,8.9-0.8c-1.7-0.3-3.4-0.6-5.2-0.9c0.8-0.7,1.7-1.5,2.5-2.5h-6v-2.8h8.5c0.7-0.9,1.4-1.8,1.9-2.6h-6.6v1.7h-3.3
	v-4.6h10.7c-0.2-0.4-0.4-0.9-0.6-1.3l3.8-0.8c0.4,0.6,0.8,1.3,1.2,2h10.8v4.6h-3.5v-1.7h-11.1l2.2,0.7c-0.5,0.6-1,1.3-1.5,2h5.8
	c0.3-0.6,0.5-1.2,0.7-1.8l3.5,0.7c-0.1,0.4-0.3,0.8-0.4,1.2h4.7v2.8h-6.2c-0.7,1-1.4,1.9-2.3,2.6c3.3,0.8,6.2,1.6,8.5,2.4
	L459.7,109.6L459.7,109.6z M446.1,102.2c-0.2,0.3-0.5,0.5-0.8,0.8c1.7,0.3,3.4,0.6,5,0.9c0.9-0.5,1.7-1,2.3-1.7L446.1,102.2
	L446.1,102.2z M122,225.9h-5.2c0.8,0.6,1.6,1.4,2.1,1.9l-2.2,1.9h2.5v7.6h-9.6v1.8h11c0,0,0,0.9-0.1,1.3c-0.3,4-0.7,6-1.5,6.8
	c-0.6,0.7-1.4,1-2.3,1.1s-2.3,0.1-3.8,0.1c-0.1-1.1-0.4-2.4-1-3.3c1.3,0.1,2.5,0.1,3.1,0.1c0.4,0,0.8,0,1-0.3
	c0.3-0.3,0.5-1.1,0.7-2.8h-7.2v7.5H106v-5.9c-2.5,2.5-5.9,4.5-9.2,5.8c-0.5-0.9-1.5-2.2-2.3-2.8c3.1-0.9,6.4-2.6,8.8-4.5h-6.5
	c0.5-2.1,0.9-5.2,1.1-7.7h8.1v-1.7h-9.2v-3h6.2c-0.7-0.9-1.8-2-2.8-2.8l1.2-1h-1.8c-1,1.5-2.1,2.9-3.1,3.9c-0.5-0.6-1.7-1.9-2.4-2.4
	c1.8-1.6,3.4-4,4.4-6.3l3.2,0.9c-0.2,0.4-0.3,0.8-0.5,1.2h6.6v2.8h-4.3c0.8,0.7,1.6,1.4,2.1,2l-1.9,1.8h12.7c-0.7-0.8-2-1.9-2.9-2.7
	l1.3-1.1h-2.5c-0.7,1.1-1.5,2.1-2.4,2.9c-0.6-0.6-1.9-1.6-2.7-2.1c1.7-1.4,3-3.5,3.8-5.7l3.3,0.8c-0.1,0.4-0.3,0.9-0.5,1.3h8.3
	L122,225.9L122,225.9z M106,237.3h-4.9c-0.1,0.6-0.2,1.2-0.2,1.8h5.2L106,237.3L106,237.3z M115.6,232.6h-6v1.7h6V232.6z
	 M151.7,242.9v4.1h-26.8v-4.1H151.7z M149.2,225.5v4h-21.8v-4H149.2z M100.6,277.3c-1.2,2.8-2.8,5.2-4.8,7.1c2.9,1.9,6.5,3.2,11,3.9
	c-0.8,0.8-1.7,2.3-2.2,3.2c-4.8-0.9-8.6-2.5-11.6-4.7c-3.2,2.3-7.1,3.8-11.5,4.9c-0.4-0.8-1.5-2.4-2.2-3.2c4.4-0.9,8.1-2.1,11.1-4.1
	c-1.8-1.9-3.3-4.3-4.4-7l3.2-1c0.9,2.2,2.2,4.2,3.9,5.8c1.7-1.6,3-3.6,3.9-6L100.6,277.3z M90.4,272.4c-2,2.7-5.3,5.4-8,7
	c-0.7-0.7-2-2-2.8-2.6c2.7-1.4,5.6-3.6,7.4-5.7L90.4,272.4z M106.2,270.8H79.8v-3.5h11.8c-0.4-1-1-2.1-1.5-3l3.4-1.2
	c0.8,1.3,1.8,3,2.2,4.2h-0.1h10.7v3.5H106.2z M98.7,270.9c2.6,1.8,6.1,4.4,7.8,6.4l-3.1,2.3c-1.5-1.9-4.8-4.7-7.5-6.7L98.7,270.9
	L98.7,270.9z M114.7,278c-1.2-1-3.7-2.5-5.6-3.3l1.9-2.8c1.9,0.7,4.5,2,5.7,3L114.7,278z M118,281.8c-1.6,3.1-3.5,6.6-5.3,9.5
	l-3-2.4c1.6-2.3,3.9-6,5.7-9.5L118,281.8L118,281.8z M115.8,269.9c-1.1-1.1-3.5-2.6-5.4-3.5l2-2.6c1.8,0.8,4.3,2.1,5.5,3.3
	L115.8,269.9z M120.4,278h3.2v2.9c0,3.3-0.5,7.6-4.5,10.6c-0.5-0.7-1.7-1.9-2.5-2.4c3.4-2.5,3.8-5.8,3.8-8.4V278L120.4,278z
	 M134.4,278.1c-0.3-0.5-0.8-1.2-1.3-1.9c-11.2,0.8-12.8,0.9-13.9,1.4c-0.2-0.7-0.7-2.4-1.1-3.3c0.8-0.2,1.4-0.9,2.3-1.9
	c0.4-0.4,0.9-1.1,1.6-2.1h-4v-3.2h6c0.7-1.2,1.4-2.5,2-3.8l3.5,1.4c-0.4,0.8-0.9,1.6-1.4,2.4h8.6v3.2h-4.2c1.6,1.9,3.7,4.4,4.8,6
	L134.4,278.1L134.4,278.1z M126,270.3c-0.9,1.2-1.8,2.4-2.8,3.5l7.8-0.4c-0.5-0.6-1-1.3-1.4-1.8l2.1-1.2H126V270.3z M125.4,278.2
	h3.1v12.1h-3.1V278.2z M135.4,288.2c0.4,0,1.1-0.1,1.4-0.2c0.1,0.8,0.2,2,0.3,2.7c-0.4,0.2-1.1,0.2-1.7,0.2H134
	c-2.8,0-3.4-1.2-3.4-4.1V278h3.3v8.9c0,1,0,1.3,0.4,1.3L135.4,288.2L135.4,288.2z M147.8,277.5c-0.5,2.8-1.4,5.6-2.4,7.9
	c0.4,0.3,1,0.7,1.8,1.2c2.1,1.2,4.9,1.4,8.4,1.4s8.9-0.3,12.2-0.8c-0.4,1-1,2.7-1.1,3.7c-2.5,0.1-7.8,0.4-11.4,0.4
	c-4,0-6.5-0.3-8.7-1.6c-1.3-0.7-2.3-1.7-3-1.7s-1.8,2.1-2.5,3.8l-2.4-3.4c1-1.3,2.1-2.3,3.2-2.9c0.7-1.5,1.3-3.4,1.7-5.2H140
	c0.7-1.8,1.5-4.2,2.2-6.6h-2.7v-3.2h7c-0.6,2.1-1.3,4.5-2.1,6.6h1.2l0.5-0.1L147.8,277.5L147.8,277.5z M142.7,269.6
	c-0.3-1.4-1.1-3.6-1.6-5.2l3.2-1c0.6,1.6,1.3,3.6,1.8,5L142.7,269.6z M154.7,271.5c0.1-0.5,0.2-1,0.3-1.5h-7.2v-3h4
	c-0.4-0.8-0.9-1.7-1.4-2.4l2.8-1.1c0.7,0.9,1.5,2.2,1.9,3L154,267h4.5c0.7-1.1,1.5-2.5,1.9-3.6l3.5,1c-0.6,0.9-1.2,1.8-1.8,2.6h4.8
	v2.9h-8.2c-0.2,0.5-0.5,1-0.7,1.5h6.6V286H150v-14.6h4.7V271.5z M161.1,274h-7.7v1.7h7.7V274z M161.1,277.9h-7.7v1.6h7.7V277.9z
	 M161.1,281.9h-7.7v1.7h7.7V281.9z M196.7,404.6c-0.2-0.7-0.7-1.8-1.2-2.9v14h-3.1V404c-0.6,2.1-1.3,4-2.1,5.4
	c-0.3-1-0.9-2.6-1.4-3.6c1.4-2.1,2.6-6,3.3-9.5h-2.5V393h2.7v-5.6h3.1v5.6h2v3.3h-2v1.3c0.7,0.9,2.4,3.7,2.8,4.4L196.7,404.6
	L196.7,404.6z M215.8,406.7c-0.9,1.7-2,3.1-3.3,4.4c0.6,0.6,1.2,1,1.9,1.1c0.6,0.1,0.9-1,1.2-3.1c0.5,0.7,1.7,1.6,2.3,1.9
	c-0.8,3.7-2,4.8-3.3,4.7c-1.8-0.1-3.3-1.1-4.4-2.6c-1.4,1-3.1,1.8-4.8,2.5c-0.4-0.6-1.2-1.7-1.8-2.3c1.9-0.7,3.7-1.6,5.2-2.7
	c-0.6-1.4-1.1-3-1.5-4.8H203c0,0.2,0,0.5-0.1,0.7c1.2,1,3,2.4,3.8,3.3l-2.2,2.1c-0.5-0.6-1.4-1.4-2.3-2.2c-0.7,2.1-1.9,4.3-4.1,6
	c-0.4-0.6-1.7-1.7-2.4-2c3.2-2.4,4-5.4,4.1-7.9H198V403h8.4c-0.5-3.1-0.8-6.6-1-10.6c-1.2,2.2-2.7,4.5-4.1,6.3l1.7-0.2
	c-0.2-0.5-0.3-0.9-0.4-1.4l2.1-0.5c0.5,1.4,1,3.2,1.2,4.4l-2.2,0.7c0-0.3-0.1-0.6-0.2-1c-3.6,0.5-4.3,0.8-4.7,0.9
	c-0.2-0.5-0.5-1.8-0.9-2.4c0.5-0.1,1-0.6,1.5-1.3c0.3-0.3,0.8-1.1,1.5-2.2c-1.6,0.2-2.1,0.4-2.4,0.5c-0.2-0.5-0.6-1.8-0.9-2.4
	c0.4-0.1,0.8-0.5,1.1-1.1c0.3-0.5,1.4-2.7,2-4.8l2.6,0.7c-0.7,1.8-1.7,3.6-2.6,5l1.4-0.1c0.3-0.6,0.6-1.2,0.8-1.9l2.5,0.8
	c-0.1-1.4-0.1-3-0.2-4.6h3c0.1,5.9,0.5,11.2,1.3,15.3h2.8c-0.5-0.4-1.1-0.9-1.6-1.3l1.4-1.1c-1.4,0.2-1.9,0.4-2.1,0.5
	c-0.1-0.5-0.5-1.8-0.8-2.5c0.5-0.1,0.9-0.6,1.5-1.4c0.3-0.3,0.8-1.1,1.4-2.1c-1.6,0.2-2.1,0.4-2.4,0.5c-0.2-0.5-0.6-1.7-0.9-2.4
	c0.4-0.1,0.7-0.5,1.1-1c0.3-0.5,1.3-2.6,1.8-4.6l2.6,0.7c-0.6,1.6-1.5,3.3-2.4,4.6l1.4-0.1c0.3-0.6,0.5-1.3,0.8-1.9l2.6,0.8
	c-1.1,2.3-2.6,4.6-4,6.4l1.7-0.2c-0.1-0.4-0.3-0.9-0.4-1.3l2.1-0.6c0.5,1.4,1.1,3.3,1.4,4.4l-2.1,0.8c-0.1-0.4-0.2-0.8-0.3-1.2
	c-0.8,0.1-1.4,0.2-1.9,0.3c0.8,0.6,1.8,1.3,2.3,1.8l-0.8,0.7h2.4v2.8h-3.5L215.8,406.7L215.8,406.7z M210.1,405.8
	c0.2,1,0.5,1.8,0.8,2.6c0.7-0.8,1.3-1.7,1.8-2.6H210.1z M221,409.5h4.8v-14.1h-4.1v-2.8c2.2-0.4,3.8-1,5.2-1.9h3.3v18.8h4.2v3.6H221
	V409.5L221,409.5z M237.1,410.5l2.1-2.8c1.3,1.2,2.8,2.3,4.9,2.3c2.3,0,4-1.5,4-4.1s-1.5-4.1-3.8-4.1c-1.3,0-2.1,0.3-3.4,1.2l-2-1.3
	l0.6-10.8h12v3.7h-8.1l-0.4,4.7c0.9-0.4,1.7-0.6,2.7-0.6c3.7,0,6.9,2.2,6.9,7.1s-3.7,7.8-7.8,7.8
	C241.1,413.5,238.8,412.1,237.1,410.5z M512.1,217.2v3h-26.7v-3H497c-0.2-0.7-0.5-1.5-0.7-2.1l3.7-0.9c0.3,0.9,0.8,2.1,1.2,3H512.1z
	 M511.4,239.4c0,1.6-0.4,2.2-1.5,2.7c-1.1,0.4-2.7,0.4-4.8,0.4c-0.2-0.8-0.7-1.8-1.1-2.5h-8.6v1.3H492v-8h13.1v6.7h-0.4
	c1.1,0,2.1,0,2.4,0c0.4,0,0.6-0.1,0.6-0.5V232h-18v10.6h-3.5v-13.5h25.1L511.4,239.4L511.4,239.4z M508.5,227.9h-19v-6.5h19V227.9z
	 M504.7,223.8H493v1.7h11.7V223.8z M502,235.6h-6.6v1.7h6.6V235.6z M533,231.2v0.9h7v10.4h-3.4v-0.9h-15.5v0.9h-3.2v-10.4h7.7v-0.9
	H515v-2.3h15.6c-0.3-0.6-0.9-1.5-1.4-1.9c1.3-0.2,2.6-0.6,3.8-1.1c-1-0.4-2-0.8-3-1.2l1.2-1.7c1.3,0.5,2.8,1,4.3,1.5
	c0.7-0.5,1.3-1,1.8-1.7h-7.2V221c-0.5-0.6-1.2-1.3-1.5-1.6c2.3-0.8,2.7-1.7,2.7-2.8v-1.5h8v2.2c0,0.6,0.1,0.8,0.4,0.8h1.1
	c0.4,0,1.1,0,1.4-0.1c0,0.7,0.1,1.6,0.2,2.3c-0.4,0.1-1,0.1-1.6,0.1h-1.5c-2.2,0-2.8-0.9-2.8-2.9h-2.6c-0.1,1.2-0.7,2.4-2.1,3.3h7
	l0.5-0.1l1.7,0.7c-0.7,1.7-1.7,3-2.9,4.1c1.3,0.5,2.6,1.1,3.4,1.5l-1.1,1.8h2.6v2.3L533,231.2L533,231.2z M516.5,217.4h-1v-2h13.7v2
	H522l1.4,0.3c-0.1,0.2-0.2,0.4-0.3,0.7h5.1v1.6h-2.8v1.1h3.3v1.7h-2.8c1,0.6,2,1.4,2.6,1.9l-1.4,1.4c-0.6-0.6-1.6-1.4-2.7-2
	c-0.6,0.8-1.6,1.5-3.1,2h4.6c0.9,0,2.4-0.1,3-0.2c0.1,0.7,0.2,1.5,0.2,2.1c-0.6,0.2-1.9,0.2-3.1,0.2h-6c-3,0-3.8-1.1-3.8-3.6
	L516.5,217.4L516.5,217.4z M522.1,220c-0.3,0.4-0.6,0.7-0.9,1c-0.4-0.3-1.3-0.8-1.8-1.1c0.9-0.8,1.5-1.7,1.9-2.6h-2.2v7.3
	c0,1,0.2,1.4,1.3,1.4h0.6c-0.3-0.5-0.9-1.1-1.4-1.5c1.8-0.4,2.7-1.1,3.1-1.9h-3.1v-1.7h3.5V220H522.1L522.1,220z M536.7,239.9v-3.2
	h-3.2c-2.6,0-3.2-0.5-3.2-2.4V234h-2c-0.3,1.7-2,2.8-5.9,3.3c-0.2-0.5-0.8-1.2-1.2-1.8v4.3L536.7,239.9L536.7,239.9z M521.1,234v1.3
	c2.7-0.2,3.9-0.6,4.3-1.3H521.1z M535.1,237.3v1.8h-12v-1.8H535.1z M530.3,231.2h-2v0.9h2V231.2z M539.9,228.9
	c-1.1-0.5-2.5-1.1-4-1.8c-1.4,0.8-2.9,1.3-4.5,1.8H539.9z M533,234v0.3c0,0.7,0.1,0.7,0.9,0.7h2.8v-1H533L533,234z M481.5,280.9
	c0,1.7-0.4,2.5-1.5,3s-2.7,0.6-5.1,0.6c-0.2-0.9-0.7-2.2-1.1-3c1.4,0.1,3.1,0.1,3.5,0.1c0.5,0,0.7-0.2,0.7-0.7v-19.4h-5.7l3.3,0.8
	c-0.8,1.4-1.5,2.8-2.3,4h3.8v2.9h-6.9v7.8h2.4v-6.2h3.2v9.2h-14.3v-9.2h3.1v6.2h2.4v-7.8h-6.5v-2.9h3.3c-0.4-1.1-1.1-2.7-1.7-3.8
	l2.9-1c0.8,1.3,1.6,3,2,4.1l-1.9,0.7h4.9c0.8-1.5,1.6-3.4,2-4.8h-12.6v23.4h-3.5V258h25.6L481.5,280.9L481.5,280.9z M511.2,262.9
	v21.8h-3.8v-2.1h-20.8V263h3.7v15.8h6.6v-22.1h3.8v22.1h6.7v-15.9H511.2L511.2,262.9z M534.8,257c1.4,4.4,4.5,8.7,8.7,10.9
	c-0.7,0.8-2,2.3-2.5,3.3c-0.8-0.5-1.6-1.1-2.3-1.8c-0.3,8.9-0.7,12.4-1.8,13.6c-0.8,1-1.6,1.3-2.8,1.4c-1,0.2-2.8,0.2-4.6,0.1
	c-0.1-1.1-0.5-2.6-1.2-3.6c1.7,0.1,3.2,0.2,4,0.2c0.5,0,0.9-0.1,1.2-0.4c0.6-0.7,0.9-3.4,1.2-9.6h-6c-0.8,5.8-2.7,11-10.5,13.9
	c-0.5-1-1.5-2.5-2.4-3.3c6.8-2.2,8.4-6.2,9-10.6h-5.1v-2c-0.7,0.8-1.5,1.5-2.3,2.2c-0.6-0.7-2.2-2-3-2.7c3.4-2.4,6.1-6.5,7.5-11
	l3.8,0.9c-1.1,3.4-2.8,6.5-4.7,9.1h15.6c-2-2.1-3.5-4.7-4.6-7.2h-4.8V257H534.8L534.8,257z M555.7,259c-0.8,2.5-1.8,5.6-2.6,7.9
	c1.8,2.4,2.2,4.5,2.2,6.2c0,2-0.4,3.3-1.4,4c-0.5,0.4-1,0.5-1.7,0.7c-0.5,0.1-1.2,0.1-1.9,0.1c0-0.9-0.3-2.2-0.8-3.1
	c0.5,0,1,0.1,1.3,0c0.3,0,0.6-0.1,0.8-0.2c0.4-0.3,0.5-0.9,0.5-1.8c0-1.5-0.4-3.4-2.1-5.5c0.6-1.8,1.2-4.3,1.7-6.2h-2.4v23.7h-3.1
	v-26.9h6.7l0.5-0.2L555.7,259L555.7,259z M569.9,281.3c0.4,0,0.6-0.5,0.7-3.6c0.7,0.6,2,1.1,2.9,1.3c-0.3,4.1-1.1,5.3-3.2,5.3h-2.1
	c-2.7,0-3.3-1-3.3-4v-6.2h-2c-0.5,5.1-1.8,8.6-7.7,10.6c-0.3-0.9-1.3-2.2-2-2.9c4.8-1.5,5.9-3.9,6.2-7.7h-3.6V271H573v3.2h-4.7v6.2
	c0,0.9,0.1,1,0.5,1h1.1V281.3z M558.1,266h-2.4v-5.9h7c-0.3-1-0.8-2-1.2-2.9l3.4-1c0.7,1.2,1.4,2.7,1.7,3.8h6.2v6h-2.4v2.7H558V266
	H558.1z M559.1,263.2v2.5h10.4v-2.5H559.1z M388.4,413.6c0-2.9,1.8-4.7,3.8-5.8v-0.1c-1.7-1.2-3-2.9-3-5.3c0-3.6,2.8-5.9,6.7-5.9
	c3.9,0,6.5,2.4,6.5,6c0,2.2-1.4,4-2.9,5.1v0.1c2.1,1.1,3.8,2.9,3.8,6c0,3.4-3,6-7.5,6C391.6,419.6,388.4,417.1,388.4,413.6
	L388.4,413.6z M399.2,413.4c0-2.3-2.1-3.3-5-4.5c-1.2,1-2,2.5-2,4.1c0,2,1.7,3.3,3.8,3.3C397.9,416.4,399.2,415.4,399.2,413.4
	L399.2,413.4z M398.9,402.6c0-1.8-1.1-3.1-3-3.1c-1.5,0-2.7,1-2.7,2.8c0,2.1,1.7,3.1,4.1,4.1C398.4,405.2,398.9,404,398.9,402.6
	L398.9,402.6z M416.3,400.5h-10.1v-3.7h14.9v2.7c-5.2,6.3-5.9,10.9-6.2,19.7h-4.5C410.8,411.4,412.1,406.4,416.3,400.5L416.3,400.5z
	 M430.6,415.8c-1.1,2.2-2.8,4.6-4.5,6c-0.7-0.6-2-1.7-2.9-2.1c1.6-1.2,3.1-3.1,4-4.9L430.6,415.8L430.6,415.8z M438.4,414.6h-14.8
	v-3.1h2.7v-11.2h-2.4v-3.1h2.4V394h3.2v3.2h3.7V394h3.3v3.2h2v3.1h-2v11.2h1.8L438.4,414.6L438.4,414.6z M429.5,400.3v1.8h3.7v-1.8
	H429.5z M429.5,406.7h3.7v-1.9h-3.7V406.7z M429.5,411.5h3.7v-2h-3.7V411.5z M450.8,417.8c0,1.8-0.3,2.7-1.4,3.3s-2.6,0.7-4.8,0.6
	c-0.1-0.9-0.6-2.5-1-3.4c1.3,0.1,2.8,0.1,3.2,0.1c0.5,0,0.6-0.1,0.6-0.6v-6h-4.6c-0.3,3.6-1.1,7.3-2.7,10.1c-0.6-0.6-2-1.7-2.8-2
	c0.1-0.2,0.2-0.3,0.3-0.5l-2.5,1.4c-0.6-1.2-2.1-3.2-3.2-4.6l2.7-1.5c1.1,1.2,2.5,2.9,3.3,4.1c1.8-3.8,1.9-8.9,1.9-12.8v-11.1H451
	L450.8,417.8L450.8,417.8z M447.3,408.6v-3.7h-4.4v1.1c0,0.8,0,1.7,0,2.6H447.3L447.3,408.6z M442.9,398.1v3.5h4.4v-3.5H442.9z
	 M403.4,460.2v2.8H376v-2.8h11.7v-1.6h-9.5v-2.7h9.5v-1.4h-8.5V445h8.5v-1.2h-11.5V441h11.5v-1.3c-2.9,0.1-5.9,0.2-8.6,0.2
	c0-0.8-0.4-2-0.7-2.8c7-0.1,15.2-0.7,20.3-1.5l1.7,2.8c-2.6,0.4-5.8,0.8-9.1,1v1.6h11.8v2.8h-11.8v1.2h9v9.6h-9v1.4h10.1v2.7h-10.1
	v1.6h12.1V460.2z M382.7,448.7h5v-1.4h-5V448.7z M387.7,452.2v-1.4h-5v1.4H387.7z M391.4,447.3v1.4h5.3v-1.4H391.4z M396.6,450.8
	h-5.3v1.4h5.3V450.8z M421.4,440.2h1.6v2.2h-1.6v3h-5.6v0.9h5.9v2h-5.9v0.9h7v2.3H406v-2.3h6.6v-0.9h-5.3v-2h5.3v-0.9h-5.2v-1.9h5.2
	v-1.1h-6.8v-2.2h6.8v-1h-5.2v-1.9h5.2v-1.6h3.2v1.6h5.6L421.4,440.2L421.4,440.2z M405.9,460.4c4.3-0.1,10.9-0.3,17.1-0.6l-0.1,2.7
	c-6,0.3-12.5,0.5-16.8,0.7L405.9,460.4z M421.6,452.3v6.9h-14.1v-6.9H421.6z M410.2,455h2.8v-1h-2.8V455z M410.2,457.5h2.8v-1h-2.8
	V457.5z M415.9,440.2h2.5v-1h-2.5V440.2z M418.4,442.4h-2.5v1.1h2.5V442.4z M418.6,454H416v1h2.7v-1H418.6z M418.6,456.6H416v1h2.7
	v-1H418.6z M427.1,456.4h-3.3v-17h3.3V456.4z M433,436.3v23.4c0,1.9-0.4,2.9-1.5,3.4c-1.1,0.6-2.7,0.7-5.1,0.7
	c-0.1-1-0.6-2.5-1.1-3.5c1.6,0.1,3.1,0.1,3.6,0.1s0.7-0.1,0.7-0.6v-23.4h3.4V436.3z M457.8,459.5c1.9,0,4.3-0.1,5.6-0.4
	c0.1,0.9,0.3,2.5,0.5,3.4c-1.1,0.3-3.8,0.3-6.2,0.3h-11.9c-5.3,0-7.8-1.6-7.8-7.2v-15.7h-1.2v-3.2h25.7v3.2h-20.9v15.9
	c0,2.6,0.9,3.6,4,3.6L457.8,459.5L457.8,459.5z M442.8,449.8h8.3v8.1h-8.3V449.8z M445.7,455.5h2.4v-3.3h-2.4V455.5z M457.7,448.5
	h-11.9v-7.2h11.9V448.5z M454.2,443.6h-4.9v2.5h4.9V443.6z M461,457.9h-8.5v-8.1h8.5V457.9z M457.9,452.2h-2.4v3.3h2.4V452.2z
	 M211.3,446.4c0,1-0.2,1.4-0.9,1.7c-0.6,0.3-1.6,0.3-2.9,0.3c-0.1-0.5-0.4-1.3-0.6-1.7c0.8,0,1.8,0,2,0c0.3,0,0.4-0.1,0.4-0.4v-11.1
	H206l1.9,0.4c-0.4,0.8-0.9,1.6-1.3,2.3h2.2v1.7h-3.9v4.5h1.4v-3.6h1.8v5.3h-8.2v-5.3h1.8v3.6h1.4v-4.5h-3.7V438h1.9
	c-0.2-0.7-0.6-1.5-1-2.2l1.7-0.5c0.4,0.7,0.9,1.7,1.1,2.3L202,438h2.8c0.4-0.8,0.9-1.9,1.2-2.8h-7.2v13.4h-2v-15.3h14.7v13.1H211.3z
	 M228.3,436.1v12.5h-2.2v-1.2h-11.9v-11.2h2.1v9.1h3.8v-12.7h2.2v12.7h3.8v-9.1L228.3,436.1L228.3,436.1z M243,446.1
	c1.1,0,2.5-0.1,3.2-0.2c0.1,0.5,0.2,1.4,0.3,1.9c-0.7,0.2-2.2,0.2-3.6,0.2h-6.8c-3,0-4.5-0.9-4.5-4.1v-9h-0.7V433h14.7v1.8h-12v9.1
	c0,1.5,0.5,2.1,2.3,2.1L243,446.1L243,446.1z M234.4,440.5h4.8v4.6h-4.8V440.5z M236,443.8h1.4v-1.9H236V443.8z M242.9,439.8h-6.8
	v-4.1h6.8V439.8z M240.9,437h-2.8v1.4h2.8V437z M244.8,445.2h-4.9v-4.6h4.9V445.2z M243,441.9h-1.4v1.9h1.4V441.9z M193.7,461
	c-0.5,0.9-1.2,1.8-1.9,2.7v9h-2.1V466c-0.5,0.5-0.9,0.9-1.4,1.3c-0.3-0.4-1-1.3-1.4-1.8c1.8-1.2,3.7-3.2,4.8-5.2L193.7,461
	L193.7,461z M193.1,457.4c-1.2,1.6-3.1,3.4-4.8,4.6c-0.3-0.5-0.8-1.3-1.1-1.7c1.4-0.9,3.1-2.5,3.9-3.7L193.1,457.4L193.1,457.4z
	 M203.2,464.2h-2.4v6.1c0,1.1-0.2,1.7-1,2c-0.7,0.3-1.8,0.4-3.4,0.4c-0.1-0.6-0.4-1.5-0.6-2.1c1,0,2.1,0,2.4,0
	c0.3,0,0.4-0.1,0.4-0.3v-6h-5.1v-2h9.6v1.9H203.2z M202.8,459.5h-8.4v-2h8.4V459.5z M219.6,461.6c-0.4,2.7-1,4.9-2,6.7
	c0.8,1.1,1.9,2.1,3.2,2.7c-0.5,0.4-1.1,1.2-1.4,1.8c-1.3-0.7-2.3-1.6-3.1-2.6c-0.9,1.1-2.1,2-3.5,2.7c-0.2-0.5-0.8-1.4-1.2-1.8
	c1.5-0.7,2.7-1.6,3.5-2.7c-0.6-1.1-1-2.4-1.4-3.8c-0.2,0.3-0.4,0.6-0.6,0.9c-0.2-0.2-0.6-0.6-0.9-0.9v0.2h-2v3.5
	c0.8-0.2,1.6-0.4,2.4-0.5l0.2,1.9c-2.8,0.7-5.9,1.3-8.1,1.8l-0.4-2.1l0.9-0.2v-7.4h1.8v7l1.1-0.2v-8.9h-3.5v-2h7.9v2h-2.4v3h2v0.4
	c1.1-1.7,1.8-4,2.1-6.4l2,0.3c-0.2,1-0.4,1.9-0.6,2.8h4.9v1.9L219.6,461.6L219.6,461.6z M215,461.8c0.3,1.6,0.7,3,1.3,4.4
	c0.6-1.3,0.9-2.8,1.2-4.6h-2.4L215,461.8L215,461.8z M237,459.5v8.6h-2.2v-0.9h-3.9v5.4h-2.2v-5.4h-3.9v1h-2.1v-8.7h6v-3h2.2v3H237
	L237,459.5z M228.8,465.3v-3.7h-3.9v3.7H228.8z M234.9,465.3v-3.7H231v3.7H234.9z M242.5,462.9c-0.2,2.2-0.7,5.2-1.3,7.2l-2.1-0.8
	c0.6-1.8,1.1-4.4,1.3-6.7L242.5,462.9L242.5,462.9z M245.8,461.5v8c0,0.8,0.1,1,1,1h2.5c0.9,0,1-0.6,1.1-3.2
	c0.5,0.4,1.4,0.7,1.9,0.9c-0.2,3.3-0.8,4.3-2.9,4.3h-2.9c-2.2,0-2.9-0.7-2.9-2.9v-8L245.8,461.5L245.8,461.5z M245.6,456.8
	c1.6,1,3.8,2.5,4.8,3.6l-1.5,1.6c-0.9-1-3.1-2.7-4.7-3.8L245.6,456.8z M253.2,462c1,2.1,1.9,4.6,2.2,6.4l-2.1,0.9
	c-0.3-1.8-1.2-4.5-2.1-6.5L253.2,462L253.2,462z"/>
</svg>
