<svg viewBox="0 0 851 127" fill="#fff" xmlns="http://www.w3.org/2000/svg">
<path d="M14.9,79.6c1.8-0.7,7.8-2.6,10.2-4c0.9-7.3,2.2-42,0.8-57.4c11.9,1.8,15.7,3.1,7.5,5.8c-1,55.5,4.6,71.4-30,97.4l-1.9-1.7
	C15.9,106.5,22,97.5,24.6,79.3c-6.3,4.3-9.9,6.4-17.5,10.4c-1.3,9-3.1,7.9-7.1-6c2.9-0.3,3.6-0.5,7.1-1.5C6.9,71.8,7.5,18.5,6.7,9.9
	c3.3,1.5,4.4,2,7.5,3.6c8-5.1,12.4-8.4,15.9-12c4.8,2.9,14.3,9,3.5,7.5c-6,2.8-8.2,3.6-18.7,6.6V79.6z M16.7,37.2
	c7.4,8.2,11.9,17.6,3.5,22.5c-0.3,0-0.8-0.3-1.1-0.7c-0.9-6-1.1-13.8-3.3-21.3L16.7,37.2L16.7,37.2z M65.6,63.5
	c0,5.9,0,6.7,0.1,20.2c-0.1,7.5-2,9.6-11,12.3c-0.5-5.2-1.9-6.7-7.6-7.9c0,7.6,0.5,23.4,0.5,31.1c0,2.5-8.4,3.4-8.4,0.9
	c0.5-18.8,1.1-60.8,0.4-113.6c3.6,2.1,4.7,2.8,8.3,5.1h10c1.9-2.3,2.5-3.1,4.4-5.1c3.4,3.4,11.9,6.2,3.2,9.6v28.4
	c7.2-15,8.8-20.9,10.3-36.1c3.3,1.9,4.3,2.4,7,4.7C95.2,9.8,103.8,6,110.9,1c14.7,9.8,13,13.1,2.8,8.3c-8.4,3.1-15.8,4.6-28.8,5.8
	c-5.4,13.2-9.8,20.9-17.7,30.1l-1.7-0.5L65.6,63.5L65.6,63.5z M47.1,14.7v71.2l8.7,0.3c1.5,0.1,2.5-0.3,2.4-2c0,0,0-69.4,0-69.4
	C58.2,14.7,47.1,14.7,47.1,14.7z M49.2,37.9c5,6.6,7.5,11.8,7.5,15.4c0.2,4-4.8,12.6-6,6.7c0-4.8-0.5-14.4-2.7-21.5L49.2,37.9z
	 M98.9,111.7c0,5.1-1.7,6.6-12.2,9.6c-1.4-7.2-3.3-6.9-17-9.5v-2.1c21,1.2,20.5,1.8,20.5-0.9V78.1c-5.6,0.1-16.8-0.3-21.9,0.5
	L67.2,74c6.4,1.5,16.5,1,23,1.1l0,0c0-5.6-0.1-11-0.4-16.1c3.9,0.4,5.1,0.7,8,1.1c4-4.6,5.3-6.3,9.8-12.4c-7.1,0.1-27.5-0.4-34,0.5
	l-0.8-5c7.2,2.4,27,1,34.8,1.3l5.1-4.7c4.7,4.3,17.7,10,2.7,10.8c-2.9,2-7.8,5.2-14.9,9.8c4.4,1.1,3.5,2.5-1.7,3.9v10.7h10.2
	c1.9-2.3,4-4.9,6.4-7.9c4.4,3.9,5.8,5.1,10,9.1c0.7,1,0.8,1.8-0.7,1.9c0,0-26,0-26,0L98.9,111.7z M92.8,16.7
	c5.9,7.4,8.8,12.3,8.8,15.1c0,5-6.4,10.8-6.9,5.2c-0.5-5.1-0.6-10.5-3-19.8L92.8,16.7L92.8,16.7z M108,14.1
	c12.3,8.3,16.5,13.2,16.5,17.9c0,6.3-4.7,11.9-6.6,5c-2.2-8.5-4.8-13.2-11.1-21.9L108,14.1z M185.4,11.9c0,0,26.5,0,26.5,0
	c0-3.9,0.1-6.4-0.4-11c13.2,1.7,13.9,1.9,13.9,3.2c0,1.1-1.2,1.6-5.2,2.5v5.2h17.4c2.5-2.4,5.4-5.1,8.6-8.2
	c5.3,3.9,8.8,5.3,12.8,10.4c0,0.5-0.5,0.8-1.5,0.8h-37.3c0,6.1,2,7.1-5.8,7.1c-4.6,0.4-2.1-5-2.5-7.1h-26.5c0,6.3,1.4,8.2-5.8,8.2
	c-1.7,0-2.3-0.4-2.3-1.7c0-1.6,0.1-3.4,0.1-6.4c-10.3,0.1-26.5-0.4-36.8,0.9l-0.9-5.4c9.8,1.9,27.3,1.2,37.7,1.3
	c0-4.8,0-8.8-0.8-11.9c6.9,0.3,22,1.7,8.7,5.7V11.9z M182,51.5c-0.2,4.2,3.3,2.1,10.3,2.7c4.7,0.1,3.4-2.4,5.6-6.7l1.3,0.3
	c0.1,0.8-0.2,5.7,0.4,5.8c0.3,0.6,4.2,0.8,3.7,2.7c0,2.4-2.3,2.9-11.2,2.9c-11.9,0-14.2-0.3-15.8-1.5c-0.4,1.1-0.7,1.2-3.3,2v5.6
	h10.8c2.5-2.3,3.3-2.9,5.8-5.2c2.9,2.9,5.7,4.1,7.5,7.6c0.4,1.5-23.4,0.3-24.1,0.7v8.3c13.4-1.6,15.8-1.9,23.4-3.2l0.7,1.9
	c-12.3,3.9-32.5,8.7-48.6,11.5c0,3.5-0.7,4.9-1.9,4.9c-1.1,0-1.7-1.5-5.2-12.2c9.2-0.3,7.4,0,23.8-2v-9.2c-5.6,0-10.5-0.2-16.7,0.8
	l-1.1-4.8c6.4,1.1,11.7,1,17.8,0.9c0-3.5,0.1-6.2-0.5-9.9c4.2,0.5,8.9,0.5,11.1,1.2c-0.3-2.6,0.2-7.8,0-11h-11
	c-4.1,11.3-9.9,14.8-22.5,18.6l-0.5-1.3c9.5-5.5,12.3-8.8,14.9-17.3c-4.8-0.1-10.7,0.1-15.7,0.7l-0.9-5c6.4,1.7,18.1,1.1,25.2,1.2
	v-8c-5.9,0-11.9-0.1-18.3,0.8l-0.9-5.1c5.9,1.3,13,1.2,19.3,1.2c0-3.7,0.1-7-0.4-11c5.6,0.5,19.1,1.8,8.2,5.2v5.8h10.7
	c2.1-2.5,2.8-3.3,5.2-6c1.2,1.2,11.3,8.7,7,9.1c0,0-22.9,0-22.9,0v8h15.1c2.3-2.5,3.1-3.3,5.5-5.9c3.6,3.1,4.5,4,7.6,7.2
	c0.6,1,1,1.7-0.5,1.7c0,0-18.7,0-18.7,0L182,51.5L182,51.5z M191.9,101.4c-1.7,2.4-4.4,5.2-10.4,11.5c12.4-0.4,24.9-1.3,42.1-2.4
	c-3.3-2-4.7-2.8-9.8-5.8l0.8-1.2c21,6.1,29.2,4.7,30,17.1c0,4.6-2.4,5.9-5.1,2.6c-3.3-3.9-6.2-6.1-12.4-10.4
	c-15.5,2.8-52.3,8-67.2,9.2c-2.2,8.5-4,5.2-7.4-8.8c9.5,1,12.1,0.5,24.3,0c0.8-1.6,4-9.5,4.8-11.8c-10.9,0.1-28.4-0.5-39.3,1.2
	l-1.5-5.8c12.1,2.8,84.1,1,97.7,1.5c3.3-3.6,4.3-4.7,7.6-7.9c4.8,3.9,8.3,5.2,12.2,10.3C256,102.6,194.5,100.8,191.9,101.4z
	 M218.8,85.5c3.1-3.5,4.1-4.5,7.5-7.8c1.8,1.8,15.3,10.6,9.6,10.8c-10,0.1-57.9-0.5-67,0.7l-1.2-4.7
	C177.1,86.1,208.6,85.3,218.8,85.5z M206.3,48.2c4.3,2.3,6,3.2,9.5,5.3c1.1-4.5,1.7-8.3,2.1-13.5c-5.6,0-9.9-0.1-16.3,0.8l-1.1-4.8
	c5.3,1.1,11.8,1,17.5,0.9c0.1-3.8,0.4-9.8-0.3-14.4c12.3,1.5,12.7,1.6,12.7,3.1c0,1.1-0.9,1.6-4.3,2.7c0,3.8-0.2,7.1-0.4,8.7h10
	l4.3-4.3c4.1,2.9,14.2,6.2,3.6,9.9c0.8,16.7,2.3,21.8,8.3,30.5c2-3.4,4.9-9.1,8.7-17.3l1.3,0.5c-0.6,2.7-4.5,18.3-4.5,20.3
	c-0.2,1.6,3.2,5.2,2.8,6.8c-2.1,8-10.8,0-15.1-7.1c-6.2-9.5-7.9-16.3-9.4-36.4h-10.3c-0.8,8.8-1.5,11.9-3.8,17.5
	c7.2,5.5,8.6,7.4,8.6,11.8c0,3.1-0.7,4.5-2,4.5c-2.9-0.8-5.8-8.4-9.2-11.2c-4.7,7.4-10.8,12.6-21.9,18.6l-0.7-1.2
	c10.8-9.4,14.6-13.9,17.8-22.2c-3.8-3.5-4.3-4-9.2-8.6C205.1,49.2,206.3,48.2,206.3,48.2z M288.7,63.7c-6.7,7.5-8.8,9.5-15.4,14.6
	l-1.1-1.5c13-15.3,20.8-28.6,27.2-46.4c11.5,4.1,12.2,4.4,12.2,5.6c0,1.5-1.2,2-4.8,2.4c-4.5,8.2-6.7,11.2-12,18.1
	c7.9,1.4,9.1,3.3,2.7,5.1c-0.1,18.6,0.1,41.3,0.1,58.5c-0.5,1.1-1.1,1.5-3.2,1.7c-1.8,0-5.7,1.4-6-1.5
	C288.6,113.1,288.8,78.5,288.7,63.7L288.7,63.7z M274.3,38.8c9-9,20.1-25.3,25.1-37.7c4.7,1.5,22.5,7.2,7.5,7.8
	c-9.6,12.8-19.5,22.7-31.3,31.4L274.3,38.8L274.3,38.8z M304.1,107.8c5.1-11.6,11.2-46.2,10.8-60.6c14,2.3,17.9,4.4,8.7,6.6
	c-5.2,26.8-6.7,34.8-17.3,55L304.1,107.8z M348.5,31.2c2.5-2.8,2.5-2.9,5.2-6.1c-3.2-0.4-4.5-11.1-8.6-16.1l1.1-1.2
	c7.2,3.3,17,9.8,8.4,17c3.3,3.3,6,4.8,9,9.2c0.8,1.8-23.4,0.4-24,0.8c-0.3,21.9,0.2,66.7,0.5,84.3c0.2,2.5-9.8,3.8-9.4,1.1
	c0.8-50.8,0.5-48,0.5-85.4c-5.8,0.1-11.5-0.3-17.8,0.5l-1.1-5.1c6.2,1.1,12.8,1,18.7,0.9c0-9.1,0-18.9-0.5-27.8
	c14,1.7,16.5,2.7,9.2,5.9l-0.3,21.9H348.5L348.5,31.2z M346.7,48.6c8.4,18.5,23.5,42.4,8.4,53.3c-1.1,0-1.2-0.4-1.6-4.6
	c-1.6-21-4.5-36-9-47.8L346.7,48.6z M383.7,79.9c0,8.6,0.3,19.3,0.3,32.4c-1.1,8.6-3.2,7.1-14.3,9.8c-0.7-6.6-2.4-7.6-16.5-9.8v-1.9
	c5.3-0.3,22.8,2.7,21.5-1.1c0,0,0-64.9,0-64.9c-4.9,0.1-11.5-0.3-15.9,0.8l-0.9-5.1c6.3,1.8,17.7,1.1,24.2,1.2
	c2.7-3.8,3.6-4.8,6.3-8.6c16.2,14.4,13.8,11.3-4.7,11.6C383.7,44.4,383.7,79.9,383.7,79.9z M380,14.6c2.8-3.6,3.6-4.6,6.3-8
	c1.3,1.9,14.5,11,9.1,11.1c-5.7,0.1-28.7-0.4-34.1,0.5l-0.8-4.5C365.7,15.2,374.4,14.4,380,14.6L380,14.6z M408.4,87.9
	c22.9,0.4,22.9,34.5,0,34.9C385.5,122.4,385.6,88.4,408.4,87.9z M422,105.4c-0.1-18-27.1-17.9-27.3,0
	C394.8,123.2,421.9,123,422,105.4z M468,79.6c1.8-0.7,7.8-2.6,10.2-4c0.9-7.3,2.2-42,0.8-57.4c11.9,1.8,15.7,3.1,7.5,5.8
	c-1,55.5,4.6,71.4-30,97.4l-1.9-1.7c14.5-13.1,20.5-22.2,23.1-40.3c-6.3,4.3-9.9,6.4-17.5,10.4c-1.3,9-3.1,7.9-7.1-6
	c2.9-0.3,3.6-0.5,7.1-1.5c-0.2-10.5,0.5-63.8-0.4-72.4c3.3,1.5,4.4,2,7.5,3.6c8-5.1,12.4-8.4,15.9-12c4.8,2.9,14.3,9,3.5,7.5
	c-6,2.8-8.2,3.6-18.7,6.6C468,15.5,468,79.6,468,79.6z M469.9,37.2c7.4,8.2,11.9,17.6,3.5,22.5c-0.3,0-0.8-0.3-1.1-0.7
	c-0.9-6-1.1-13.8-3.4-21.3L469.9,37.2L469.9,37.2z M518.7,63.6c0,5.9,0,6.7,0.1,20.2c-0.1,7.5-2,9.6-11,12.3
	c-0.5-5.2-1.9-6.7-7.6-7.9c0,7.6,0,9.1,0.3,19.4c-0.7,1.4,2.6,14.2-2.5,13.9c-0.1-0.2-6.1,1.3-5.6-1.3c0.4-18.8,1.1-60.8,0.4-113.6
	c3.6,2.1,4.7,2.8,8.3,5.1h10c1.9-2.3,2.5-3.1,4.4-5.1c3.4,3.4,11.9,6.2,3.2,9.6v28.4c7.2-15,8.8-20.9,10.3-36.1
	c3.3,1.9,4.3,2.4,7,4.7C548.4,9.8,557,6,564.1,1c13,8.4,14.1,13.5,2.8,8.3c-8.4,3.1-15.8,4.6-28.8,5.8c-5.3,13.2-9.8,20.9-17.7,30.1
	l-1.7-0.5L518.7,63.6L518.7,63.6z M500.3,14.7v71.2l8.7,0.3c1.5,0.1,2.5-0.3,2.4-2c0,0,0-69.4,0-69.4L500.3,14.7L500.3,14.7z
	 M502.4,37.9c4.9,6.6,7.5,11.8,7.5,15.4c0.2,4-4.8,12.6-6,6.7c0-4.8-0.5-14.4-2.7-21.5L502.4,37.9z M543.4,72.1
	c0-5.6-0.1-8-0.4-13.1c3.9,0.4,5.1,0.7,8,1.1c4-4.5,5.4-6.3,9.8-12.4c-7.1,0.1-27.5-0.4-34,0.5l-0.8-4.9c7.2,2.4,27,1,34.8,1.3
	l5.1-4.7c4.7,4.3,17.7,10,2.7,10.8c-2.9,2-7.8,5.2-14.9,9.8c4.4,1.1,3.5,2.5-1.7,3.9v10.7h10.2c1.9-2.3,4-5,6.4-7.9
	c4.4,3.9,5.8,5.1,10,9.1c0.7,1,0.8,1.8-0.7,1.9c0,0-26,0-26,0c0,12.4,0,18.3,0.1,33.6c0,5.1-1.7,6.6-12.2,9.6c-2.5-9-4.1-6.6-17-9.5
	v-2.1c28.9,1.4,18.7,7.3,20.5-31.6c-5.6,0.1-16.8-0.3-21.9,0.5l-1.1-4.7c6.4,1.5,16.5,1,23,1.1L543.4,72.1L543.4,72.1z M546,16.7
	c5.9,7.4,8.8,12.3,8.8,15.1c0,3-4.1,9.9-6.6,6.6c-1.2-6-0.9-11.9-3.4-21.1L546,16.7L546,16.7z M561.2,14.1
	c12.6,9.8,14.1,8.7,16.5,18.1c0,3.9-2.1,8-4.2,8c-1.1,0-1.9-0.9-2.4-3.2c-2.4-8.4-4.8-13.2-11.1-21.9L561.2,14.1z M590.5,120.6
	c9.1-9.2,13.5-15.6,18.2-26.4c-5.3-6.2-8.8-21.7-13.4-29.7l5.6-1.7c-1.1,7,3.9,17.2,9.8,26.8c4.6-11.8,6.7-21.9,7.9-36.7h-12.8
	c-1.9,2.9-1.5,4.4-5.9,4.5c-1.7,0.1-5.1-0.1-4.8-1.6c9.3-19.2,15.2-30.6,19.3-42.4c-5.8,0.2-15.5-0.7-21.4,0.9l-1.2-4.9
	c3,0.8,18.2,1.1,22.6,0.9c2-2.5,2.7-3.3,4.9-5.7c3.7,3.4,6.4,4.1,9.4,7.8c0,0.9-0.5,1.3-6.2,3.8c-5.4,13.2-8.2,19.5-15.2,33.7H618
	c2-2.7,2.7-3.5,4.8-6.2c3.4,2.7,6.7,4.2,9.4,7.6c0,0.7-1.7,2-5.4,4c-2.8,20.3-4.7,27-11.1,40.1c27.6,22.9,60.9,13.1,101.8,12.6v1.7
	c-5.7,1.5-8.8,3.5-8.8,9.6c-37.1,1.2-74.1,3.7-95.7-19.4c-5.9,9.4-11.5,15.2-21.3,21.9L590.5,120.6L590.5,120.6z M703.2,31.5
	c2.1-3.5,2.8-4.4,5.4-7.9c14.6,15.5,6.6,10-7.2,11c0.2,7.8,0.1,17.6,0.4,20.1c0,1.9-0.7,2.3-4.3,2.5c-4.7,1.1-4.9,0-4.7-4.7h-20.3
	l0.1,15.2h19.5c2.8-3.2,3.6-4.3,6.3-7.6c4.7,3.5,6.3,4.7,11.2,9c5.4,3.8-37.6,0.9-37.1,1.7l0.1,14.7h21.7c3.2-3.9,4.3-4.9,7.1-8.7
	c4.1,4,7.5,5.5,11.6,10.6c0,0.7-0.7,1.2-1.3,1.2h-39.1c0,8.8,0,12,0.1,16.7c-0.8,2-4.7,1.2-7.5,1.6c-3.1,0.6-0.6-12.4-1.2-18.3
	c-7.4,0.2-25.8-0.6-32.8,0.8l-1.7-4.7c7.6,1.3,26.6,0.7,34.7,0.8V70.8c-7,0.2-22-0.6-28.9,0.8l-1.3-5.1c7.8,1.8,22.5,1.1,30.2,1.2
	V52.4c-6.6,0.2-19.9-0.7-26.1,0.9l-1.7-5.1c8.4,1.5,19.9,1,27.8,1.1V34.5c-7.6,0.3-25.7-0.9-32.9,1.1l-1.5-5.4
	c9.2,2,25.2,1,34.2,1.2v-15c-6.2,0.2-19.1-0.5-25.4,0.7l-1.5-4.9c8.5,1.8,18.9,1.1,26.8,1.2c0-3.4-0.1-7.6-0.4-12.7
	c8.9,0.8,20.5,2.3,8.6,6v6.7h20.6c1.6-2.5,2.1-3.2,4.2-5.8c3.6,2.9,6.5,3.5,8.7,6.9c-0.1,1.9-3,2.6-4.4,3.9c0,3.8,0.2,9.2,0.1,13
	C701.4,31.5,703.2,31.4,703.2,31.5z M692.8,16.5h-20.5v15h20.5V16.5z M672.3,34.5l0.1,14.8h20.3V34.5H672.3z M772.7,14.7
	c2.3-2.7,4.4-5.2,6.4-7.5c4.4,3.8,5.6,4.9,9.8,8.8c5.2,3.6-28.9,1-28.6,1.7c10.9,5.7,13.7,12,5.8,16.6c-2.6-0.1-3.8-11.8-8-16.6h-8
	c-6.8,9.4-12.6,15.1-22.5,22.5l-1.3-1.2c11.5-12.8,18.6-24.7,21.7-38.8C760.2,2.7,763,3.5,763,4.8c0,1.2-0.9,1.5-6.3,2.3
	c-2.1,3.8-2.8,4.9-4.7,7.6L772.7,14.7L772.7,14.7z M827.7,83.6c3.1-3.8,3.9-4.8,6.8-8.3c5.1,4.3,8.7,5.4,12.6,10.7
	c0,0.4-0.5,0.7-1.1,0.7h-52.3c17.4,14.7,30.4,19,56.9,21.1v2c-4.8,0.7-8.1,4.1-9.5,8.7c-18.3-4.2-37-15.3-49.4-30.8
	c-0.1,10.3,0.1,21.5,0.5,33c-0.1,0.9-0.3,1.3-0.9,1.7c-1.2,0.2-7.4,2.3-8.2-0.8c0.7-20.3,0.5-17.8,0.5-31.6
	c-13,13.4-35,24.5-56,30.4l-0.8-1.9c18.9-8.6,35.8-17.6,49.6-32c-9.6,0.3-33.7-0.9-43.4,1.2l-0.9-5.6c8.4,2.5,42.3,0.9,51.5,1.3
	c0-4.4,0-6.8-0.5-11.9c7.2,0.7,21.9,2,8.6,5.6v6.3H827.7L827.7,83.6z M745.9,41.4c-2.7,0-3.2,0.1-8.6,0.9l-0.9-5.3
	c7,2.3,25.8,1,33.1,1.3c2.1-2.7,2.8-3.5,5.1-6c3.5,3.2,4.6,4.1,7.6,7.4c0.7,0.8,0.4,1.5-0.5,1.7c0,0-19.8,0-19.8,0V60
	c5.9-1.1,6.8-1.3,18.7-3.9l0.4,1.7c-14.7,6-33,10.5-42.7,13.2c-0.5,3.9-1.1,5.1-2.1,5.1s-1.1,0-4.8-12.4c3.6-0.1,11.1-0.9,22.7-2.5
	V41.4L745.9,41.4L745.9,41.4z M826,63c-0.3,2.5,0.9,2.7,5.1,2.8c11.3-0.1,7.7-3.8,12.8-22.2l1.9,0.1c0,1.1-0.7,18-0.8,18.6
	c0,1.3,0.4,1.7,1.9,2c5,1.4,2.9,6.7-2.3,7.1c-7.8,0.3-27.2,4.3-26.6-5.4c0,0,0-26.1,0-26.1h-22.5c1.3,21.9-11.4,33.3-31.5,39.6
	L763,78c21.5-10.5,26.7-22.2,24.2-46.4c4.3,2.3,5.6,2.9,9.5,5.3h21c1.9-2.1,2.4-2.8,4.3-4.8c3.4,3.5,13.6,6.5,4,9.9L826,63L826,63z
	 M829.1,14.7c3.2-4,4.2-5.2,7.2-9c5,4.5,7.7,6.1,12,11.1c0,0.4-0.7,0.9-1.1,0.9H810c6.8,4,9.4,6.7,9.4,9.4c0,3.1-3.1,7.6-5,7.6
	c-0.9,0-1.5-0.7-1.7-2.3c-1.3-7.4-2.5-10.7-5.1-14.7H799c-5.9,7.5-10.3,11.8-17.4,17.1l-1.3-1.3c7.6-8,15.6-22.3,17.5-33
	c3.1,0.7,25.1,4.1,8.3,6.4c-2.1,3.9-2.9,5.1-4.8,7.8L829.1,14.7L829.1,14.7z M798.1,46.8c12.7,6.7,20.9,15.3,11,21.8
	c-1.1,0-1.3-0.4-2.4-3.5c-2.3-7.1-3.6-9.5-9.2-17.4L798.1,46.8L798.1,46.8z"/>
</svg>
