<svg width="22" height="567" viewBox="0 0 22 567" fill="none" xmlns="http://www.w3.org/2000/svg">
<path d="M14.9803 545.631C16.306 546.199 17.4549 546.974 18.4271 547.946C19.3993 548.919 20.1505 550.064 20.6719 551.355C21.1934 552.655 21.4585 554.032 21.4585 555.496C21.4585 556.934 21.2022 558.302 20.6808 559.594C20.1682 560.885 19.4346 562.012 18.489 562.977C17.5433 563.941 16.412 564.707 15.104 565.266C13.796 565.835 12.3554 566.11 10.7734 566.11C9.10307 566.11 7.59179 565.817 6.2661 565.232C4.93157 564.647 3.80031 563.855 2.88117 562.856C1.95318 561.858 1.23731 560.695 0.742386 559.352C0.247462 558.018 -4.15044e-07 556.615 -4.79765e-07 555.134C-5.50131e-07 553.525 0.291651 552.078 0.874955 550.796C1.45826 549.513 2.24484 548.428 3.22585 547.542C4.20686 546.655 5.34695 545.966 6.62845 545.493C7.90995 545.019 9.25332 544.787 10.6586 544.787C12.214 544.778 13.6546 545.062 14.9803 545.631ZM7.09686 548.747C5.88606 549.04 4.79016 549.487 3.80915 550.081C2.82814 550.684 2.02389 551.424 1.41407 552.319C0.804252 553.206 0.494924 554.265 0.494924 555.479C0.494924 556.71 0.804252 557.777 1.41407 558.681C2.02389 559.576 2.8193 560.308 3.80031 560.893C4.77249 561.47 5.87723 561.892 7.1057 562.167C8.34301 562.443 9.598 562.581 10.8618 562.581C12.1875 562.581 13.4602 562.426 14.6887 562.124C15.9171 561.823 16.9954 561.367 17.9322 560.773C18.869 560.179 19.6202 559.43 20.177 558.526C20.7426 557.622 21.0254 556.581 21.0254 555.384C21.0254 554.187 20.7161 553.154 20.0886 552.268C19.4611 551.381 18.6657 550.649 17.6759 550.064C16.6949 549.479 15.5901 549.04 14.3616 548.738C13.1332 548.446 11.9047 548.299 10.6851 548.299C9.50078 548.308 8.29882 548.454 7.09686 548.747Z" fill="white"/>
<path d="M1.14007 430.57C1.41404 431.001 1.82943 431.328 2.39505 431.552C2.68671 431.69 3.22582 431.767 4.0124 431.81C4.79897 431.844 5.64741 431.888 6.54005 431.922C7.37965 431.956 8.3695 431.991 9.50076 432.025C10.6408 432.051 11.8605 432.068 13.1685 432.068C13.7165 432.068 14.3351 432.068 15.0333 432.068C15.7138 432.068 16.412 432.068 17.1191 432.051C17.8261 432.042 18.5331 432.034 19.2402 432.034C19.9472 432.034 20.5747 432.034 21.1403 432.034C21.2199 432.034 21.2817 432.06 21.3259 432.103C21.3701 432.146 21.3966 432.223 21.3966 432.318C21.3966 432.473 21.2994 432.636 21.105 432.826C19.196 434.436 17.4461 435.908 15.8464 437.233C14.2556 438.559 12.7266 439.824 11.2772 441.03C9.82776 442.235 8.41369 443.414 7.02613 444.568C5.64742 445.721 4.21567 446.944 2.7309 448.235L15.051 448.235C16.0408 448.235 16.9423 448.209 17.7377 448.166C18.5331 448.123 19.1253 448.003 19.523 447.813C19.9737 447.607 20.3096 447.279 20.5305 446.832C20.7514 446.384 20.9194 445.773 21.0077 444.998L21.2994 444.998L21.2994 451.997L21.0077 451.997C20.9459 451.541 20.831 451.084 20.6454 450.628C20.4598 450.172 20.1593 449.81 19.7262 449.543C19.3197 449.277 18.7099 449.104 17.9145 449.036C17.1191 448.958 16.1646 448.906 15.051 448.863C14.2114 448.829 13.2215 448.794 12.0903 448.777C10.9502 448.76 9.73054 448.751 8.42253 448.751C7.8569 448.751 7.38849 448.751 7.0173 448.751C6.6461 448.751 6.29258 448.751 5.93907 448.751C5.58555 448.751 5.23203 448.751 4.86084 448.751C4.47197 448.751 3.99472 448.76 3.42909 448.777C2.86347 448.838 2.40389 448.967 2.04154 449.173C1.67918 449.38 1.39637 449.63 1.1931 449.914C0.989823 450.198 0.839578 450.508 0.751199 450.835C0.662819 451.162 0.600954 451.48 0.556764 451.79L0.291626 451.79L0.291626 446.014L16.465 432.533L6.54005 432.533C5.76231 432.533 5.01992 432.542 4.30405 432.559C3.59701 432.576 3.03139 432.662 2.62484 432.817C2.07689 433.007 1.63499 433.342 1.29915 433.824C0.95447 434.306 0.715846 435.004 0.583277 435.916L0.291625 435.916L0.291625 428.866L0.583277 428.866C0.680494 429.572 0.866091 430.14 1.14007 430.57Z" fill="white"/>
<path d="M21.3171 317.809L21.3171 336.067L21.0254 336.067C20.9459 335.594 20.8222 335.12 20.6454 334.655C20.4686 334.191 20.23 333.829 19.9207 333.562C19.8058 333.467 19.6379 333.39 19.4081 333.321C19.1871 333.252 18.9308 333.201 18.6303 333.166C18.3387 333.132 18.0294 333.097 17.7112 333.063C17.3842 333.037 17.0749 333.02 16.7655 333.02C16.4916 333.02 16.1204 333.011 15.6608 333.003C15.1924 332.994 14.6798 332.985 14.123 332.977C13.5662 332.968 13.0006 332.96 12.4173 332.96C11.8163 332.96 11.2507 332.96 10.7204 332.96L5.05527 332.96C4.70176 332.96 4.36591 332.96 4.03007 332.96C3.67656 332.96 3.34955 332.977 3.04906 333.003C2.74857 333.028 2.4746 333.071 2.24481 333.132C2.01502 333.192 1.82943 333.278 1.68802 333.39C1.35218 333.657 1.10472 334.01 0.927957 334.457C0.751199 334.905 0.636305 335.37 0.57444 335.869L0.291626 335.869L0.291626 326.796L0.583277 326.796C0.618629 327.046 0.680495 327.338 0.760036 327.674C0.839578 328.018 0.963309 328.337 1.14007 328.638C1.31683 328.939 1.56429 329.206 1.88245 329.421C2.20946 329.637 2.62484 329.757 3.15512 329.774C3.83564 329.792 4.46313 329.809 5.02876 329.817C5.59439 329.826 6.15118 329.835 6.69029 329.843C7.23824 329.852 7.79503 329.86 8.38717 329.86C8.97932 329.86 9.62449 329.86 10.3404 329.86C11.0032 329.86 11.6042 329.86 12.1521 329.86C12.6736 329.86 13.195 329.86 13.6988 329.86C14.2025 329.86 14.724 329.86 15.2631 329.843C15.8022 329.835 16.3943 329.826 17.0572 329.826C17.6847 329.809 18.2768 329.783 18.8336 329.757C19.3992 329.731 19.8146 329.628 20.0886 329.456C20.1858 329.378 20.283 329.232 20.3803 329C20.4775 328.776 20.557 328.5 20.6277 328.173C20.6984 327.846 20.7514 327.502 20.8045 327.123C20.8575 326.744 20.8752 326.365 20.8752 325.987C20.8752 325.832 20.8752 325.591 20.8575 325.264C20.8487 324.928 20.831 324.566 20.7956 324.17C20.7691 323.774 20.7249 323.361 20.6631 322.948C20.6012 322.535 20.5217 322.165 20.4244 321.837C20.2123 321.08 19.9295 320.451 19.576 319.944C19.2225 319.444 18.8248 319.014 18.3652 318.652C17.9056 318.291 17.4107 317.989 16.8804 317.74C16.3502 317.49 15.7845 317.258 15.2012 317.025L15.2896 316.741L21.3171 317.809Z" fill="white"/>
<path d="M0.989822 207.844C1.18426 208.223 1.44056 208.576 1.74988 208.895C2.05921 209.213 2.43041 209.523 2.85463 209.816C3.28769 210.108 3.77377 210.427 4.31289 210.771C4.68408 210.995 5.179 211.314 5.81534 211.727C6.45167 212.14 7.10567 212.553 7.7862 212.975C8.46672 213.406 9.12072 213.81 9.73938 214.215C10.3669 214.611 10.853 214.921 11.1976 215.153L17.066 215.153C17.6317 215.153 18.1796 215.136 18.7187 215.11C19.2578 215.084 19.629 214.989 19.8411 214.843C20.2654 214.559 20.5482 214.189 20.6896 213.733C20.8222 213.276 20.937 212.846 21.0077 212.424L21.2994 212.424L21.2994 221.188L21.0077 221.188C20.9459 220.697 20.8575 220.266 20.7338 219.896C20.61 219.526 20.3007 219.13 19.8146 218.717C19.7174 218.622 19.5495 218.553 19.3197 218.502C19.0899 218.459 18.8248 218.416 18.5331 218.39C18.2415 218.364 17.9321 218.347 17.5963 218.33C17.2693 218.321 16.9423 218.312 16.633 218.312C16.085 218.295 15.4398 218.278 14.6886 218.269C13.9374 218.261 13.0271 218.252 11.9577 218.252C11.8958 218.286 11.7191 218.407 11.4009 218.596C11.0827 218.786 10.7027 219.018 10.252 219.294C9.79241 219.569 9.27981 219.87 8.71418 220.206C8.14855 220.542 7.6006 220.869 7.06148 221.188C6.53121 221.506 6.02745 221.816 5.55904 222.1C5.09063 222.384 4.71059 222.617 4.41894 222.815C3.85331 223.176 3.34071 223.503 2.8723 223.796C2.40389 224.089 2.00619 224.39 1.67034 224.691C1.3345 224.992 1.0782 225.294 0.883768 225.586C0.689333 225.879 0.583278 226.215 0.556764 226.594L0.291626 226.594L0.291626 217.977L0.583277 217.977C0.600953 218.261 0.636305 218.545 0.671657 218.829C0.707009 219.113 0.768874 219.38 0.857254 219.629C0.945633 219.879 1.06053 220.077 1.21077 220.223C1.36102 220.378 1.55545 220.447 1.81175 220.447C2.06805 220.447 2.44808 220.309 2.96952 220.034C3.48212 219.759 4.00356 219.466 4.53384 219.165C4.88735 218.958 5.31157 218.708 5.8065 218.424C6.30142 218.14 6.8317 217.83 7.37965 217.486C7.93644 217.142 8.50207 216.797 9.08537 216.444C9.66868 216.091 10.2255 215.764 10.7469 215.463C10.3757 215.222 9.9073 214.912 9.33283 214.55C8.75837 214.189 8.17506 213.827 7.58292 213.457C6.99078 213.087 6.42515 212.734 5.8772 212.407C5.32925 212.071 4.90503 211.822 4.5957 211.649C4.43662 211.555 4.25986 211.451 4.05659 211.339C3.85331 211.228 3.6412 211.116 3.41142 211.012C3.19047 210.909 2.96068 210.814 2.72206 210.746C2.49227 210.668 2.27132 210.634 2.07689 210.634C1.76756 210.634 1.5201 210.711 1.34334 210.857C1.16658 211.012 1.03401 211.202 0.936795 211.443C0.839577 211.684 0.768874 211.942 0.715846 212.226C0.671657 212.51 0.627467 212.786 0.583277 213.053L0.291625 213.053L0.291625 206.484L0.583277 206.484C0.662818 207.009 0.795387 207.466 0.989822 207.844Z" fill="white"/>
<path d="M5.34692 0.527629C4.35708 1.30239 3.50863 2.04273 2.81044 2.74862C2.11224 3.4459 1.5908 4.13458 1.2638 4.79743C1.10472 5.11594 0.980984 5.70129 0.866091 6.54491C0.760036 7.38854 0.707009 8.36994 0.707009 9.48904C0.707009 9.67842 0.715847 9.89359 0.724684 10.1432C0.733522 10.3929 0.74236 10.6253 0.751198 10.8491C0.760036 11.0729 0.768874 11.2882 0.777712 11.4861C0.78655 11.6841 0.795388 11.8305 0.795388 11.9252C0.910281 11.9424 1.02517 11.9682 1.14891 11.9941C1.2638 12.0199 1.40521 12.0457 1.55545 12.0629C1.71453 12.0802 1.90897 12.0974 2.15643 12.1232C2.40389 12.1404 2.69554 12.1576 3.04906 12.1749C3.72958 12.1921 4.47197 12.2093 5.28506 12.2179C6.08931 12.2265 6.85821 12.2351 7.57408 12.2351C8.28996 12.2351 8.91745 12.2351 9.44773 12.2351C9.95149 12.2351 10.252 12.2351 10.3492 12.2351C10.3492 12.1749 10.3492 12.0113 10.3492 11.7272C10.3492 11.4259 10.3404 11.0902 10.3227 10.72C10.305 10.3499 10.2785 9.96247 10.252 9.56648C10.2255 9.17049 10.1813 8.83479 10.1194 8.56793C9.96033 7.88786 9.75705 7.34553 9.50075 6.94954C9.25329 6.55355 8.94396 6.23501 8.59928 6.0112C8.24577 5.78738 7.86574 5.62382 7.44152 5.52913C7.02613 5.43443 6.5754 5.34836 6.08931 5.27088L6.08931 4.92652L15.4929 4.92652L15.4929 5.27088C14.8742 5.42583 14.2114 5.64105 13.522 5.92513C12.8327 6.20921 12.3024 6.55355 11.9312 6.94954C11.6042 7.31109 11.3479 7.69844 11.1888 8.10304C11.0209 8.50763 10.9237 8.98974 10.8795 9.54068C10.8618 9.82476 10.8441 10.0744 10.8353 10.281C10.8264 10.4876 10.8176 10.6856 10.8176 10.875C10.8176 11.0644 10.8176 11.2624 10.8176 11.469C10.8176 11.6756 10.8176 11.9338 10.8176 12.2351C11.4363 12.2351 12.0638 12.2351 12.6824 12.2351C13.2834 12.2351 13.8755 12.2351 14.4323 12.2351C14.9803 12.2351 15.484 12.2351 15.9348 12.2179C16.3943 12.2093 16.7832 12.2007 17.1191 12.2007C17.7377 12.1834 18.3299 12.149 18.8866 12.106C19.4434 12.0543 19.8588 11.951 20.124 11.7789C20.3979 11.6067 20.61 11.3226 20.7514 10.9094C20.8929 10.5048 20.9901 9.91081 21.0254 9.12744L21.3171 9.12744L21.3171 18.2266L21.0254 18.2266C20.9459 17.7531 20.8222 17.3141 20.6454 16.9009C20.4686 16.4963 20.23 16.1606 19.9207 15.8937C19.8058 15.799 19.6379 15.7215 19.4081 15.6699C19.1871 15.6096 18.9308 15.558 18.6303 15.5149C18.3387 15.4633 18.0294 15.4375 17.7112 15.4116C17.3842 15.3944 17.0749 15.3858 16.7655 15.3858C16.4916 15.3858 16.1204 15.3772 15.6608 15.3686C15.1924 15.3599 14.6798 15.3514 14.123 15.3428C13.5662 15.3341 13.0006 15.3255 12.4173 15.3255C11.8163 15.3255 11.2507 15.3255 10.7204 15.3255L5.01992 15.3255C4.6664 15.3255 4.31289 15.3342 3.94169 15.3428C3.5705 15.3514 3.22582 15.3686 2.88998 15.403C2.55414 15.4288 2.26249 15.4805 1.99735 15.5494C1.73221 15.6182 1.54661 15.7043 1.42288 15.8162C1.11355 16.1003 0.910281 16.4016 0.821902 16.7287C0.733523 17.0558 0.653981 17.469 0.57444 17.9769L0.291626 17.9769L0.291625 2.16325L5.19668 0.226354L5.34692 0.527629Z" fill="white"/>
</svg>
