<svg width="34" height="928" viewBox="0 0 34 928" fill="none" xmlns="http://www.w3.org/2000/svg">
<path d="M23.7356 894.423C25.8361 895.354 27.6566 896.625 29.1969 898.219C30.7373 899.814 31.9276 901.691 32.7538 903.809C33.58 905.94 34.0001 908.198 34.0001 910.597C34.0001 912.954 33.594 915.199 32.7678 917.316C31.9556 919.433 30.7933 921.282 29.295 922.862C27.7966 924.443 26.0042 925.699 23.9317 926.617C21.8592 927.548 19.5767 928 17.0701 928C14.4234 928 12.0289 927.52 9.92836 926.56C7.81386 925.601 6.02143 924.302 4.56509 922.665C3.09474 921.028 1.96047 919.122 1.17628 916.92C0.392093 914.733 -6.80489e-07 912.432 -7.86603e-07 910.005C-9.01971e-07 907.365 0.462109 904.994 1.38633 902.891C2.31055 900.788 3.55684 899.01 5.11121 897.556C6.66558 896.102 8.47201 894.973 10.5025 894.197C12.533 893.421 14.6615 893.04 16.888 893.04C19.3526 893.025 21.6351 893.491 23.7356 894.423ZM11.2447 899.532C9.32622 900.012 7.5898 900.746 6.03543 901.72C4.48106 902.708 3.20676 903.921 2.24053 905.389C1.2743 906.843 0.784186 908.579 0.784186 910.569C0.784186 912.587 1.2743 914.338 2.24053 915.82C3.20676 917.287 4.46706 918.487 6.02143 919.447C7.5618 920.393 9.31221 921.084 11.2587 921.536C13.2191 921.987 15.2076 922.213 17.2101 922.213C19.3106 922.213 21.3271 921.959 23.2735 921.465C25.22 920.971 26.9284 920.223 28.4128 919.249C29.8971 918.275 31.0874 917.048 31.9696 915.566C32.8658 914.084 33.3139 912.376 33.3139 910.414C33.3139 908.452 32.8238 906.758 31.8296 905.305C30.8353 903.851 29.575 902.651 28.0067 901.691C26.4523 900.732 24.7019 900.012 22.7554 899.518C20.8089 899.038 18.8625 898.798 16.93 898.798C15.0536 898.812 13.1491 899.052 11.2447 899.532Z" fill="#3E3A39"/>
<path d="M1.80648 705.775C2.24058 706.48 2.89874 707.017 3.79495 707.384C4.25706 707.61 5.11126 707.737 6.35756 707.807C7.60386 707.864 8.94818 707.934 10.3625 707.991C11.6928 708.047 13.2612 708.104 15.0536 708.16C16.8601 708.202 18.7925 708.231 20.865 708.231C21.7332 708.231 22.7134 708.231 23.8197 708.231C24.898 708.231 26.0042 708.231 27.1245 708.202C28.2448 708.188 29.365 708.174 30.4853 708.174C31.6056 708.174 32.5998 708.174 33.496 708.174C33.622 708.174 33.7201 708.216 33.7901 708.287C33.8601 708.358 33.9021 708.485 33.9021 708.64C33.9021 708.894 33.7481 709.162 33.44 709.473C30.4153 712.112 27.6426 714.525 25.108 716.699C22.5874 718.873 20.1648 720.947 17.8683 722.923C15.5718 724.899 13.3312 726.833 11.1327 728.724C8.94818 730.615 6.67964 732.62 4.32708 734.737L23.8477 734.737C25.4161 734.737 26.8444 734.694 28.1047 734.624C29.365 734.553 30.3033 734.356 30.9334 734.045C31.6476 733.706 32.1797 733.17 32.5298 732.436C32.8799 731.702 33.1459 730.7 33.286 729.43L33.7481 729.43L33.7481 740.905L33.286 740.905C33.1879 740.156 33.0059 739.408 32.7118 738.66C32.4178 737.912 31.9416 737.32 31.2555 736.882C30.6113 736.444 29.6451 736.162 28.3848 736.049C27.1245 735.922 25.6121 735.838 23.8477 735.767C22.5174 735.711 20.949 735.654 19.1566 735.626C17.3502 735.598 15.4177 735.584 13.3452 735.584C12.449 735.584 11.7068 735.584 11.1187 735.584C10.5306 735.584 9.97042 735.584 9.41029 735.584C8.85015 735.584 8.29002 735.584 7.70188 735.584C7.08573 735.584 6.32955 735.598 5.43334 735.626C4.53713 735.725 3.80895 735.936 3.23482 736.275C2.66068 736.614 2.21257 737.023 1.8905 737.489C1.56842 737.955 1.33036 738.463 1.19033 738.999C1.0503 739.535 0.952275 740.058 0.882258 740.566L0.462158 740.566L0.462158 731.095L26.0883 708.993L10.3625 708.993C9.13022 708.993 7.95394 709.007 6.81967 709.035C5.6994 709.063 4.80319 709.204 4.15904 709.458C3.29083 709.769 2.59066 710.319 2.05854 711.11C1.51241 711.9 1.13432 713.043 0.924267 714.54L0.462157 714.54L0.462157 702.98L0.924266 702.98C1.0783 704.138 1.37237 705.069 1.80648 705.775Z" fill="#3E3A39"/>
<path d="M33.7761 520.895L33.7761 550.831L33.314 550.831C33.1879 550.055 32.9919 549.278 32.7118 548.516C32.4318 547.754 32.0537 547.161 31.5636 546.724C31.3815 546.568 31.1154 546.441 30.7514 546.328C30.4013 546.216 29.9952 546.131 29.5191 546.074C29.057 546.018 28.5668 545.961 28.0627 545.905C27.5446 545.863 27.0545 545.834 26.5644 545.834C26.1303 545.834 25.5421 545.82 24.814 545.806C24.0718 545.792 23.2596 545.778 22.3774 545.764C21.4952 545.75 20.5989 545.736 19.6747 545.736C18.7225 545.736 17.8263 545.736 16.9861 545.736L8.00995 545.736C7.44982 545.736 6.91769 545.736 6.38557 545.736C5.82543 545.736 5.30731 545.764 4.8312 545.806C4.35508 545.849 3.92098 545.919 3.55689 546.018C3.19281 546.117 2.89874 546.258 2.67468 546.441C2.14256 546.879 1.75046 547.458 1.4704 548.191C1.19033 548.925 1.00829 549.688 0.910265 550.506L0.462158 550.506L0.462158 535.63L0.924268 535.63C0.980281 536.039 1.0783 536.519 1.20433 537.07C1.33036 537.634 1.52641 538.156 1.80648 538.65C2.08654 539.144 2.47864 539.582 2.98276 539.935C3.50088 540.288 4.15904 540.485 4.99924 540.513C6.07749 540.542 7.07173 540.57 7.96794 540.584C8.86416 540.598 9.74637 540.612 10.6006 540.626C11.4688 540.641 12.351 540.655 13.2892 540.655C14.2274 540.655 15.2497 540.655 16.3839 540.655C17.4342 540.655 18.3864 540.655 19.2546 540.655C20.0808 540.655 20.907 540.655 21.7052 540.655C22.5034 540.655 23.3296 540.655 24.1838 540.626C25.038 540.612 25.9762 540.598 27.0265 540.598C28.0207 540.57 28.9589 540.528 29.8411 540.485C30.7374 540.443 31.3955 540.274 31.8296 539.991C31.9837 539.864 32.1377 539.624 32.2917 539.243C32.4458 538.876 32.5718 538.425 32.6838 537.888C32.7959 537.352 32.8799 536.787 32.9639 536.166C33.0479 535.545 33.0759 534.924 33.0759 534.303C33.0759 534.049 33.0759 533.654 33.0479 533.118C33.0339 532.567 33.0059 531.975 32.9499 531.325C32.9079 530.676 32.8379 529.999 32.7398 529.321C32.6418 528.644 32.5158 528.037 32.3617 527.5C32.0257 526.258 31.5776 525.228 31.0174 524.395C30.4573 523.577 29.8271 522.871 29.099 522.278C28.3708 521.685 27.5866 521.191 26.7464 520.782C25.9062 520.373 25.01 519.992 24.0858 519.611L24.2258 519.145L33.7761 520.895Z" fill="#3E3A39"/>
<path d="M1.56842 340.602C1.87649 341.223 2.28259 341.802 2.77271 342.324C3.26282 342.847 3.85096 343.355 4.52312 343.835C5.20929 344.314 5.97947 344.837 6.83367 345.401C7.42181 345.768 8.206 346.29 9.21424 346.968C10.2225 347.645 11.2587 348.323 12.337 349.014C13.4152 349.72 14.4515 350.383 15.4317 351.047C16.426 351.696 17.1961 352.204 17.7423 352.585L27.0405 352.585C27.9367 352.585 28.8049 352.557 29.6591 352.515C30.5133 352.472 31.1014 352.317 31.4375 352.077C32.1097 351.611 32.5578 351.004 32.7818 350.256C32.9919 349.508 33.1739 348.803 33.286 348.111L33.7481 348.111L33.7481 362.479L33.286 362.479C33.1879 361.675 33.0479 360.969 32.8519 360.362C32.6558 359.755 32.1657 359.106 31.3955 358.428C31.2415 358.273 30.9754 358.16 30.6113 358.076C30.2472 358.005 29.8271 357.934 29.365 357.892C28.9029 357.85 28.4128 357.822 27.8807 357.793C27.3626 357.779 26.8444 357.765 26.3543 357.765C25.4861 357.737 24.4639 357.709 23.2736 357.694C22.0833 357.68 20.641 357.666 18.9466 357.666C18.8485 357.723 18.5685 357.92 18.0643 358.231C17.5602 358.541 16.9581 358.922 16.2439 359.374C15.5157 359.826 14.7035 360.32 13.8073 360.87C12.9111 361.421 12.0429 361.957 11.1887 362.479C10.3485 363.001 9.55032 363.509 8.80814 363.975C8.06597 364.441 7.46382 364.822 7.00171 365.147C6.1055 365.739 5.29331 366.276 4.55113 366.756C3.80895 367.236 3.1788 367.73 2.64668 368.224C2.11455 368.718 1.70845 369.212 1.40038 369.691C1.09231 370.171 0.924268 370.722 0.882258 371.343L0.462158 371.343L0.462158 357.215L0.924268 357.215C0.952274 357.68 1.00829 358.146 1.0643 358.612C1.12031 359.078 1.21834 359.515 1.35837 359.925C1.4984 360.334 1.68045 360.658 1.9185 360.898C2.15656 361.152 2.46463 361.265 2.87073 361.265C3.27683 361.265 3.87897 361.04 4.70517 360.588C5.51736 360.136 6.34356 359.656 7.18376 359.162C7.74389 358.824 8.41605 358.414 9.20024 357.949C9.98442 357.483 10.8246 356.975 11.6928 356.41C12.575 355.846 13.4713 355.281 14.3955 354.702C15.3197 354.124 16.2019 353.587 17.0281 353.093C16.44 352.698 15.6978 352.19 14.7876 351.597C13.8773 351.004 12.9531 350.412 12.0149 349.805C11.0767 349.198 10.1805 348.619 9.31226 348.083C8.44406 347.532 7.7719 347.123 7.28178 346.841C7.02972 346.686 6.74965 346.516 6.42758 346.333C6.1055 346.149 5.76942 345.966 5.40533 345.796C5.05525 345.627 4.69116 345.472 4.31307 345.359C3.94899 345.232 3.5989 345.175 3.29083 345.175C2.80071 345.175 2.40862 345.302 2.12855 345.542C1.84849 345.796 1.63844 346.107 1.4844 346.502C1.33036 346.897 1.21834 347.321 1.13432 347.786C1.0643 348.252 0.994284 348.704 0.924267 349.141L0.462157 349.141L0.462157 338.372L0.924267 338.372C1.0503 339.233 1.26035 339.981 1.56842 340.602Z" fill="#3E3A39"/>
<path d="M8.47206 0.694462C6.90369 1.96472 5.55937 3.17855 4.45311 4.3359C3.34684 5.47914 2.52065 6.60827 2.00252 7.69505C1.75046 8.21727 1.55442 9.17698 1.37237 10.5602C1.20433 11.9433 1.12031 13.5524 1.12031 15.3872C1.12031 15.6977 1.13432 16.0505 1.14832 16.4598C1.16232 16.8691 1.17633 17.2502 1.19033 17.6172C1.20433 17.9841 1.21834 18.337 1.23234 18.6616C1.24634 18.9862 1.26035 19.2262 1.26035 19.3814C1.44239 19.4096 1.62443 19.452 1.82048 19.4944C2.00252 19.5367 2.22658 19.5791 2.46463 19.6073C2.71669 19.6355 3.02477 19.6638 3.41686 19.7061C3.80895 19.7343 4.27106 19.7625 4.8312 19.7908C5.90945 19.819 7.08573 19.8472 8.37404 19.8613C9.64834 19.8754 10.8666 19.8896 12.0009 19.8896C13.1352 19.8896 14.1294 19.8896 14.9696 19.8896C15.7678 19.8896 16.2439 19.8896 16.3979 19.8896C16.3979 19.7908 16.3979 19.5226 16.3979 19.0568C16.3979 18.5628 16.3839 18.0124 16.3559 17.4055C16.3279 16.7986 16.2859 16.1634 16.2439 15.5142C16.2019 14.8649 16.1319 14.3145 16.0339 13.877C15.7818 12.762 15.4597 11.8728 15.0536 11.2236C14.6615 10.5743 14.1714 10.0521 13.6253 9.68509C13.0652 9.31812 12.463 9.04996 11.7909 8.89471C11.1327 8.73945 10.4185 8.59833 9.64834 8.4713L9.64834 7.90671L24.5479 7.90671L24.5479 8.4713C23.5677 8.72535 22.5174 9.07822 21.4251 9.54398C20.3329 10.0097 19.4927 10.5743 18.9045 11.2236C18.3864 11.8163 17.9803 12.4514 17.7283 13.1148C17.4622 13.7781 17.3082 14.5686 17.2381 15.4719C17.2101 15.9377 17.1821 16.3469 17.1681 16.6857C17.1541 17.0244 17.1401 17.349 17.1401 17.6595C17.1401 17.9701 17.1401 18.2947 17.1401 18.6334C17.1401 18.9722 17.1401 19.3956 17.1401 19.8896C18.1204 19.8896 19.1146 19.8896 20.0948 19.8896C21.0471 19.8896 21.9853 19.8896 22.8675 19.8896C23.7357 19.8896 24.5339 19.8896 25.2481 19.8613C25.9762 19.8472 26.5924 19.8331 27.1245 19.8331C28.1047 19.8048 29.043 19.7484 29.9252 19.6778C30.8074 19.5932 31.4655 19.4238 31.8856 19.1415C32.3197 18.8592 32.6558 18.3934 32.8799 17.716C33.1039 17.0526 33.258 16.0787 33.314 14.7944L33.7761 14.7944L33.7761 29.7129L33.314 29.7129C33.1879 28.9366 32.9919 28.2168 32.7118 27.5394C32.4318 26.876 32.0537 26.3256 31.5636 25.888C31.3815 25.7328 31.1154 25.6057 30.7514 25.5211C30.4013 25.4223 29.9952 25.3376 29.5191 25.267C29.057 25.1823 28.5668 25.14 28.0627 25.0977C27.5446 25.0694 27.0545 25.0553 26.5644 25.0553C26.1303 25.0553 25.5421 25.0411 24.814 25.027C24.0718 25.0129 23.2596 24.9988 22.3774 24.9847C21.4952 24.9706 20.5989 24.9565 19.6747 24.9565C18.7225 24.9565 17.8263 24.9565 16.9861 24.9565L7.95394 24.9565C7.39381 24.9565 6.83367 24.9706 6.24553 24.9847C5.65739 24.9988 5.11126 25.0271 4.57914 25.0835C4.04701 25.1259 3.5849 25.2105 3.1648 25.3234C2.7447 25.4364 2.45063 25.5775 2.25458 25.761C1.76447 26.2267 1.44239 26.7207 1.30236 27.2571C1.16232 27.7934 1.03629 28.4709 0.910265 29.3036L0.462158 29.3036L0.462157 3.37616L8.23401 0.200505L8.47206 0.694462Z" fill="#3E3A39"/>
</svg>
