<svg width="178" height="174" viewBox="0 0 178 174" fill="none" xmlns="http://www.w3.org/2000/svg">
<path fill="#FFF" d="M1.3,162.9V48.2h26.6v114.7L1.3,162.9L1.3,162.9z M10.7,148.7h8.3v-38h-8.3V148.7z M10.7,96.6h8.3V62.4h-8.3
	V96.6z M48.4,37.6V26.5h-20v11.1H15.7V26.5H0V12.9h15.7V0.3h12.8v12.6h20V0.3h13v12.6h15.7v13.6H61.4v11.1H48.4z M61,162.9v-43.2
	H33.7V107H61V94.3H33.5V81.2h15.8V66.9H35.5V54.2h13.9v-8.6h12.8v8.6h13.1v12.7H62.1v14.4h14.9v13.1h-4.1V107h4.3v12.7h-4.3v43.2H61
	z M50.9,173.7l-14.4-39.6h14.6l14.2,39.6H50.9z M123.5,36.2l-3.2-15.6h-5.2l-2.5,15.6H99.5L105.2,0h13.2L117,8.1h19.2v12.5h-5.5
	l2.9,15.6H123.5z M100,163l9.7-28.7h14.9l-9.9,28.7H100z M162.7,36.2l-3.1-15.6h-5.4l-2.5,15.6h-12.5L144.7,0h12.6L156,8.1h21.2
	v12.5h-6.9l3,15.6H162.7z M163.3,163l-10.6-28.7h14.6l10.4,28.7H163.3z M132.3,163.2v-39.1h-31.8l-0.1-12.3h31.9V108h12.9v3.8h32.5
	v12.3h-32.5v39.1H132.3z M172,88.7V45.3h-37.5v12.5h4.1V79l-17.3,3.8v-25h7.1V45.3h-27.3v12.5h7.8v28.8l-8.6,2.1v12.3l24.5-6.5
	l13.7-3.1v9.2h12.9V88.4l2.7-0.6V75.5l-2.7,0.6V57.8h9v43H175l2.6-12.1H172z"/>
</svg>
