
<svg xmlns="http://www.w3.org/2000/svg" xmlns:xlink="http://www.w3.org/1999/xlink" viewBox="0 0 807 50" fill="#fff">
<g id="icon">
	<linearGradient id="p0" x1="26.47" y1="9.26" x2="6.41" y2="34.06" gradientUnits="userSpaceOnUse">
	<stop stop-color="#6DB131"/>
	<stop offset="0.26" stop-color="#52A535"/>
	<stop offset="0.75" stop-color="#22913D"/>
	<stop offset="1" stop-color="#108A41"/>
	</linearGradient>
	<path fill="url(#p0)" d="M13,20c7.8-3.5,15.8-4.5,21.9-3.3c-0.7-0.3-1.4-0.8-1.8-1.6c-1.1-2-3.3-3.2-5.9-3c-1,0.1-2.1-0.2-2.7-0.6
			c-0.9-0.6-2-1-3.3-1c-1.3,0-2.4,0.4-3.3,1c-0.7,0.5-1.7,0.7-2.7,0.6c-2.5-0.3-4.7,0.9-5.9,3C8.7,16,7.8,16.6,7,16.9
			c-2,0.7-3.7,2.5-3.9,4.9c-0.1,1.1-0.8,2-1.3,2.5C0.5,25.6,0,27.2,0,28.8v0.1C3.3,25.5,7.7,22.3,13,20L13,20z"/>
	<linearGradient id="p1" x1="32.77" y1="8.47995" x2="8.86" y2="38.06" gradientUnits="userSpaceOnUse">
	<stop stop-color="#47A638"/>
	<stop offset="0.11" stop-color="#3CA039"/>
	<stop offset="0.45" stop-color="#24943D"/>
	<stop offset="0.75" stop-color="#158C40"/>
	<stop offset="1" stop-color="#108A41"/>
	</linearGradient>
	<path fill="url(#p1)" d="M19.9,24.6c6.7-3,13.5-4.2,19.1-3.7
		c-0.5-2-1.9-3.4-3.7-4c-0.1,0-0.3-0.1-0.4-0.2c-6.1-1.2-14-0.2-21.9,3.3c-5.2,2.4-9.7,5.5-13,8.9c0,3.2,2.4,5.8,5.5,6.2
		C8.9,31,13.8,27.3,19.9,24.6z"/>
	<path fill="#108A41" d="M40.4,24.3c-0.5-0.5-1.2-1.4-1.3-2.5c0-0.3-0.1-0.6-0.1-0.9c-5.6-0.5-12.4,0.7-19.1,3.7
		c-6,2.7-11,6.4-14.4,10.5c0.3,0,0.6,0.1,0.9,0.1h9.1c0.9,0,1.6,0.7,1.6,1.6v0.4c0,1.5-1.4,1.7-1.4,1.7L8.2,40
		c-0.3,0-0.5,0.2-0.5,0.5v0.9h26.9v-0.9c0-0.3-0.2-0.4-0.5-0.5l-7.4-1.3c0,0-1.4-0.2-1.4-1.7v-0.4c0-0.9,0.7-1.6,1.6-1.6H36
		c3.5,0,6.3-2.8,6.3-6.3C42.3,27.2,41.7,25.6,40.4,24.3L40.4,24.3z"/>
</g>

<use xlink:href="#icon" x="472" y="1" transform="scale(0.93)" />
<use xlink:href="#icon" x="649" y="0" transform="scale(0.93)" />
<path d="M76.4,15.9H55.8c-0.7,0-1.3,0.6-1.3,1.3v18.4c0,0.7,0.6,1.3,1.3,1.3h20.6c0.7,0,1.3-0.6,1.3-1.3V17.2
	C77.7,16.5,77.1,15.9,76.4,15.9z M69.6,17.4h1.8c0.1,0.5,0.2,1.2,0.4,2.1h-2.1C69.6,18.6,69.6,17.8,69.6,17.4z M57.4,17.4h9.9
	c0,0.4,0,1.1,0.1,2.1h-10V17.4z M74.8,35.3H57.4V21.1h10.2c0.3,2.3,0.9,5.3,2.2,8.1c-1.1,1.5-2.3,2.9-3.8,3.9c-0.1,0.1,0,0.2,0,0.2
	l0.5,0.9c0,0,0.1,0.2,0.2,0.1c1.5-0.9,2.8-2.1,3.9-3.4c0.8,1.4,1.7,2.6,2.8,3.6c0.1,0.1,0.2,0,0.2,0l0.7-0.8c0,0,0.1-0.1,0-0.2
	c-1.1-1.3-1.9-2.7-2.6-4.2c0.8-1.2,1.5-2.4,2.1-3.6c0.1-0.2-0.1-0.3-0.1-0.3l-1.5-0.6c0,0-0.2-0.1-0.2,0.1c-0.3,0.7-0.7,1.5-1.1,2.2
	c-0.7-2.2-1.1-4.4-1.3-6.2h3.7c0,0,0.5,0,0.5-0.7c-0.2-1.2-0.4-2.3-0.6-3h1.4V35.3L74.8,35.3z M66.9,30.9v-1.1
	c0-0.2-0.2-0.1-0.2-0.1c-2.9,0.8-6.4,1.1-8,1.2c-0.1,0-0.2,0.1-0.2,0.2v1.7c0,0.1,0.1,0.2,0.2,0.2h0c1.8-0.1,5.6-0.9,8-1.9
	C66.7,31.1,66.9,31.1,66.9,30.9L66.9,30.9z M59.8,28.6h5.9c0.7,0,1.3-0.6,1.3-1.3v-3.6c0-0.7-0.6-1.3-1.3-1.3h-5.9
	c-0.7,0-1.3,0.6-1.3,1.3v3.6C58.5,28,59.1,28.6,59.8,28.6L59.8,28.6z M61.3,23.8h2.8v3.5h-2.8V23.8z M162.2,21.3h-20.2
	c-0.2,0-0.3,0.1-0.3,0.3v0.9c0,0.2,0.1,0.3,0.3,0.3h19.4l-0.5,2c0,0.2,0.1,0.3,0.3,0.3h1.4c0.2,0,0.2-0.1,0.3-0.3
	c0,0,0.5-1.6,0.7-2.2C163.6,22.1,163.4,21.3,162.2,21.3L162.2,21.3z M149.4,30.5h-5.8c-0.7,0-1.3,0.6-1.3,1.3v2.7
	c0,0.7,0.6,1.3,1.3,1.3h5.8c0.7,0,1.3-0.6,1.3-1.3v-2.7C150.7,31,150.1,30.5,149.4,30.5z M147.9,34.4h-2.7v-2.6h2.7V34.4z
	 M141.9,18.2h8.4V19h-6.7c-0.1,0-0.2,0.1-0.2,0.2v1c0,0.1,0.1,0.2,0.2,0.2H160c0.1,0,0.2-0.1,0.2-0.2v-1c0-0.1-0.1-0.2-0.2-0.2h-6.6
	v-0.8h8.4c0.1,0,0.2-0.1,0.2-0.2v-1c0-0.1-0.1-0.2-0.2-0.2h-8.4V16c0-0.2-0.1-0.3-0.3-0.3h-2.4c-0.2,0-0.3,0.1-0.3,0.3v0.7h-8.4
	c-0.1,0-0.2,0.1-0.2,0.2v1C141.7,18.1,141.8,18.2,141.9,18.2z M142.6,25.8c-0.1,0-0.2,0.1-0.2,0.2v1c0,0.1,0.1,0.2,0.2,0.2h18.5
	c0.1,0,0.2-0.1,0.2-0.2v-1c0-0.1-0.1-0.2-0.2-0.2h-7.8V25h6.6c0.1,0,0.2-0.1,0.2-0.2v-1c0-0.1-0.1-0.2-0.2-0.2h-16.3
	c-0.1,0-0.2,0.1-0.2,0.2v1c0,0.1,0.1,0.2,0.2,0.2h6.6v0.8H142.6L142.6,25.8z M163.1,28.1h-22.5c-0.1,0-0.2,0.1-0.2,0.2v1
	c0,0.1,0.1,0.2,0.2,0.2h16.8v0.8h-5.6c-0.1,0-0.2,0.1-0.2,0.2v1c0,0.1,0.1,0.2,0.2,0.2h1.7l0.3,2.2c0,0.1,0.1,0.2,0.2,0.2h1.7
	c0.1,0,0.1-0.1,0.1-0.1l-0.6-2.3h2.1v2.3c0,0.6-0.1,1-1.2,1h-0.6c-0.1,0-0.1,0-0.1,0.1v1.1c0,0.2,0.2,0.4,0.4,0.4h1.1
	c2.5,0,3.3-0.3,3.3-2.5V32h1.5c0.1,0,0.2-0.1,0.2-0.2v-1c0-0.1-0.1-0.2-0.2-0.2h-1.5v-0.8h2.9c0.1,0,0.2-0.1,0.2-0.2v-1
	C163.3,28.2,163.2,28.1,163.1,28.1z M135.1,35.7l-0.8,1c0,0-0.2,0.2-0.4,0.1c0,0,0,0,0,0c-6.2-2.5-9.1-7.8-10.4-12.4
	c-1.3,4.6-4.2,9.9-10.4,12.4c0,0,0,0,0,0c-0.2,0.1-0.4-0.1-0.4-0.1l-0.8-1c0,0-0.1-0.2,0-0.3c0.4-0.2,1-0.5,1.4-0.8
	c8.3-5.3,8.5-16.7,8.5-18.4c0-0.1,0.1-0.2,0.2-0.2h2.9c0.1,0,0.2,0.1,0.2,0.2c0,1.7,0.2,13.1,8.5,18.4c0.4,0.3,1,0.6,1.4,0.8
	C135.3,35.5,135.1,35.7,135.1,35.7z M95.1,27.2h-1.3c-0.2,0-0.3,0.1-0.3,0.3v6.9c0,0.6-0.1,1-1.2,1h-0.6c-0.1,0-0.1,0.1-0.1,0.1v1.1
	c0,0.2,0.2,0.4,0.4,0.4h1.1c2.5,0,3.3-0.3,3.3-2.5v-5.9C96.3,27.8,95.8,27.2,95.1,27.2L95.1,27.2z M106.3,28.9
	c-1.4-0.7-3.1-1.7-4.3-2.9h4.3c0.1,0,0.2-0.1,0.2-0.2v-1.3c0-0.1-0.1-0.2-0.2-0.2H91.7c0.5-0.7,1-1.3,1.4-2h10.5
	c0.1,0,0.2-0.1,0.2-0.2v-1.3c0-0.1-0.1-0.2-0.2-0.2h-9.4c0.4-0.7,0.8-1.4,1-2h10.3c0.1,0,0.2-0.1,0.2-0.2V17c0-0.1-0.1-0.2-0.2-0.2
	H96c0.1-0.2,0.2-0.5,0.2-0.6c0.1-0.2,0.1-0.4-0.2-0.5c-0.6-0.1-1.7-0.3-2-0.4c-0.4-0.1-0.5,0.3-0.5,0.3l-0.2,0.6
	c-0.1,0.2-0.1,0.4-0.2,0.6h-8.5c-0.1,0-0.2,0.1-0.2,0.2v1.3c0,0.1,0.1,0.2,0.2,0.2h7.8c-0.3,0.6-0.6,1.3-1,2h-4.9
	c-0.1,0-0.2,0.1-0.2,0.2V22c0,0.1,0.1,0.2,0.2,0.2h3.9c-0.4,0.7-0.9,1.3-1.4,2h-5.3c-0.1,0-0.2,0.1-0.2,0.2v1.3
	c0,0.1,0.1,0.2,0.2,0.2h3.9c-1.1,1.2-2.4,2.2-3.9,2.9c-0.4,0.1-0.2,0.5-0.2,0.5l0.3,0.7c0,0,0.1,0.3,0.4,0.2
	c0.9-0.3,1.8-0.8,2.6-1.3c1.9,0.5,4.1,1.5,4.7,1.7c0.2,0.1,0.3-0.1,0.3-0.1l0.7-1.4c0,0,0.1-0.2-0.1-0.3c-0.8-0.3-2.5-0.8-3.9-1.1
	c0.7-0.5,1.3-1.1,1.8-1.7h9.2c0.6,0.6,1.2,1.1,1.8,1.6c-1.1,0.5-2.9,0.9-3.8,1c-0.1,0-0.2,0.1-0.1,0.2c0.2,0.6,0.3,1,0.4,1.6
	c0.1,0.2,0.2,0.2,0.3,0.2c0.7-0.1,3.5-1.2,4.7-2c1,0.6,2.1,1.2,3.2,1.6c0.3,0.1,0.4-0.2,0.4-0.2l0.3-0.7
	C106.5,29.4,106.7,29,106.3,28.9L106.3,28.9z M92.6,32.8c-0.1-0.5-0.1-0.4-0.2-1c0-0.1-0.1-0.2-0.2-0.1c-2.3,1.2-4.7,1.8-7.2,2.5
	c-0.2,0.1-0.2,0.2-0.1,0.3c0.2,0.4,0.6,1.2,0.7,1.5c0.1,0.1,0.2,0.2,0.4,0.1c2.1-0.7,4.7-2,6.5-3.1C92.6,33,92.6,32.9,92.6,32.8
	L92.6,32.8z M104.7,34.3c-2.1-1-4.6-1.8-6.8-2.3c-0.2-0.1-0.2,0.1-0.2,0.1L97.3,33c0,0-0.1,0.2,0.1,0.3c2.1,0.9,4,1.7,6,2.8
	c0.2,0.1,0.4,0.1,0.6-0.1c0.4-0.5,0.5-0.8,0.9-1.3C104.9,34.5,104.8,34.4,104.7,34.3L104.7,34.3z"/>
<path d="M388.6,8c-0.7,0.1-0.8,0.2-0.8,0.9v1c0,0.4,0,0.8,0.1,1.1c-0.8,0.2-1.8,0.4-2.7,0.4c-2.7,0-4.4-1.6-4.4-4
	c0-2.8,2.2-4.1,4.6-4.1c1,0,1.9,0.2,2.3,0.3c0,0.4,0.1,1.1,0.2,1.9l-0.4,0.1c-0.3-1.5-1.2-1.9-2.4-1.9c-1.8,0-3.1,1.3-3.1,3.6
	c0,1.7,1,3.7,3.2,3.7c0.4,0,0.8-0.1,1-0.2c0.2-0.1,0.4-0.3,0.4-0.8v-1c0-0.9-0.1-0.9-1.3-1V7.7h3.2V8z M395,9.4
	c-0.1,0.4-0.3,1.6-0.4,1.9H389V11c1-0.1,1.1-0.2,1.1-1.2V5c0-1-0.1-1.1-1-1.2V3.5h3.2v0.3C391.4,4,391.3,4,391.3,5v4.7
	c0,0.6,0.1,0.9,0.3,1c0.2,0.1,0.6,0.1,1.1,0.1c0.6,0,1-0.1,1.3-0.4c0.2-0.2,0.4-0.6,0.6-1.2L395,9.4L395,9.4z M403.3,7.3
	c0,2.6-1.8,4.2-4,4.2c-2.2,0-3.9-1.7-3.9-4c0-2.1,1.5-4.2,4.1-4.2C401.5,3.3,403.3,4.9,403.3,7.3L403.3,7.3z M396.7,7.2
	c0,2.2,1.2,3.9,2.9,3.9c1.3,0,2.4-1.1,2.4-3.4c0-2.5-1.3-3.9-2.8-3.9C397.9,3.8,396.7,5,396.7,7.2L396.7,7.2z M411.1,11.4
	c-0.1,0-0.3,0-0.4,0c-1-0.1-1.5-0.3-2-1.1c-0.4-0.6-0.8-1.3-1.2-1.9c-0.2-0.3-0.4-0.5-1-0.5h-0.3v1.9c0,1,0.1,1.1,1.1,1.2v0.3h-3.2
	V11c1-0.1,1.1-0.2,1.1-1.2V5c0-1-0.1-1.1-1-1.1V3.5h3c0.9,0,1.5,0.1,2,0.4c0.5,0.3,0.8,0.9,0.8,1.6c0,1-0.7,1.7-1.5,2.1
	c0.2,0.4,0.7,1.2,1.1,1.7c0.4,0.7,0.7,1,1,1.3c0.3,0.3,0.6,0.5,0.8,0.6L411.1,11.4L411.1,11.4z M406.6,7.5c0.6,0,1-0.1,1.3-0.3
	c0.4-0.4,0.6-0.8,0.6-1.5c0-1.3-0.8-1.8-1.7-1.8c-0.3,0-0.5,0-0.6,0.1c-0.1,0.1-0.1,0.2-0.1,0.5v3H406.6L406.6,7.5z M411.7,11.3V11
	c1-0.1,1.1-0.1,1.1-1.2V5c0-1-0.1-1.1-1.1-1.2V3.5h3.3v0.3C414,4,413.9,4,413.9,5v4.8c0,1,0.1,1.1,1.1,1.2v0.3H411.7z M420.6,11.3
	V11c0.8-0.1,0.9-0.2,0.7-0.7c-0.1-0.4-0.4-1.1-0.6-1.7h-2.5c-0.2,0.5-0.3,1-0.5,1.5c-0.2,0.7-0.1,0.9,0.8,0.9v0.3h-2.6V11
	c0.8-0.1,0.9-0.2,1.3-1.2l2.5-6.3l0.4-0.1c0.8,2.1,1.6,4.3,2.3,6.4c0.4,1,0.5,1.2,1.3,1.2v0.3H420.6L420.6,11.3z M419.4,5L419.4,5
	c-0.4,1-0.8,2-1.1,3h2.2L419.4,5z M390.4,14.3c-1.1,0.1-1.2,0.2-1.2,1.3V21c0,1.1,0.1,1.2,1.2,1.3v0.4h-3.7v-0.4
	c1.1-0.1,1.2-0.2,1.2-1.3v-2.7h-4.4V21c0,1.1,0.1,1.2,1.2,1.3v0.4H381v-0.4c1.1-0.1,1.2-0.2,1.2-1.3v-5.4c0-1.1-0.1-1.2-1.2-1.3
	v-0.4h3.6v0.4c-1,0.1-1.1,0.2-1.1,1.3v2.1h4.4v-2.1c0-1.1-0.1-1.2-1.2-1.3v-0.4h3.6L390.4,14.3L390.4,14.3z M400.3,18.2
	c0,2.9-2.1,4.7-4.5,4.7s-4.4-1.9-4.4-4.5c0-2.4,1.7-4.7,4.6-4.7C398.3,13.7,400.3,15.5,400.3,18.2L400.3,18.2z M392.9,18
	c0,2.5,1.3,4.4,3.2,4.4c1.5,0,2.7-1.3,2.7-3.8c0-2.8-1.4-4.3-3.2-4.3C394.2,14.2,392.8,15.5,392.9,18L392.9,18z M408.2,16
	c-0.2-0.7-0.3-1-0.5-1.2c-0.2-0.3-0.5-0.4-1.4-0.4h-0.9V21c0,1.1,0.1,1.2,1.4,1.3v0.4h-4v-0.4c1.2-0.1,1.3-0.2,1.3-1.3v-6.6h-0.8
	c-1.1,0-1.4,0.1-1.6,0.4c-0.2,0.2-0.3,0.6-0.4,1.2h-0.4c0.1-0.8,0.1-1.7,0.2-2.5h0.3c0.2,0.3,0.4,0.3,0.7,0.3h5.4
	c0.4,0,0.5-0.1,0.7-0.3h0.3c0,0.6,0.1,1.6,0.1,2.4L408.2,16L408.2,16z M416.4,20.5c-0.1,0.5-0.3,1.7-0.5,2.1h-6.6v-0.4
	c1.2-0.1,1.3-0.2,1.3-1.3v-5.3c0-1.2-0.1-1.3-1.2-1.3v-0.4h6.1c0,0.3,0.1,1.2,0.1,2l-0.4,0.1c-0.1-0.6-0.3-0.9-0.5-1.2
	c-0.2-0.3-0.6-0.4-1.5-0.4h-1c-0.4,0-0.5,0-0.5,0.4v3h1.2c1.2,0,1.3-0.1,1.5-1h0.4v2.6h-0.4c-0.2-1-0.3-1-1.5-1h-1.2v2.5
	c0,0.7,0.1,0.9,0.3,1.1c0.2,0.2,0.7,0.2,1.4,0.2c1,0,1.4-0.1,1.7-0.4c0.2-0.3,0.5-0.7,0.7-1.3L416.4,20.5L416.4,20.5z M423.8,20.5
	c-0.1,0.5-0.4,1.8-0.5,2.2h-6.2v-0.4c1.2-0.1,1.3-0.2,1.3-1.3v-5.4c0-1.2-0.1-1.2-1.2-1.3v-0.4h3.6v0.4c-1.1,0.1-1.2,0.2-1.2,1.3
	v5.3c0,0.7,0.1,1,0.3,1.1c0.3,0.2,0.7,0.2,1.2,0.2c0.7,0,1.2-0.1,1.5-0.4c0.2-0.3,0.5-0.7,0.7-1.3L423.8,20.5L423.8,20.5z
	 M389.3,29.8c-0.8,0.1-0.8,0.2-0.8,1v1.1c0,0.5,0,0.9,0.1,1.2c-0.8,0.2-1.9,0.5-2.9,0.5c-2.9,0-4.8-1.8-4.8-4.3c0-3,2.4-4.5,5-4.5
	c1.1,0,2.1,0.3,2.5,0.4c0,0.5,0.1,1.2,0.2,2l-0.4,0.1c-0.3-1.6-1.3-2-2.5-2c-1.9,0-3.3,1.5-3.3,3.8c0,1.9,1.1,4,3.5,4
	c0.4,0,0.8-0.1,1.1-0.2c0.2-0.1,0.4-0.3,0.4-0.8v-1.1c0-0.9-0.1-1-1.4-1.1v-0.4h3.4V29.8L389.3,29.8z M397.8,33.4
	c-0.1,0-0.3,0-0.4,0c-1.1-0.1-1.6-0.4-2.2-1.2c-0.4-0.6-0.9-1.4-1.3-2.1c-0.2-0.4-0.4-0.5-1.1-0.5h-0.4v2c0,1.1,0.1,1.2,1.1,1.3v0.4
	H390v-0.4c1-0.1,1.2-0.2,1.2-1.3v-5.2c0-1.1-0.1-1.2-1.1-1.2v-0.4h3.3c1,0,1.6,0.1,2.1,0.4c0.5,0.3,0.9,0.9,0.9,1.7
	c0,1.1-0.7,1.8-1.7,2.2c0.2,0.4,0.8,1.3,1.1,1.9c0.5,0.7,0.7,1,1,1.4c0.3,0.4,0.6,0.5,0.9,0.6L397.8,33.4L397.8,33.4z M393,29.2
	c0.6,0,1.1-0.1,1.4-0.4c0.5-0.4,0.7-0.9,0.7-1.6c0-1.4-0.9-1.9-1.8-1.9c-0.4,0-0.6,0.1-0.7,0.1c-0.1,0.1-0.1,0.2-0.1,0.6v3.2H393
	L393,29.2z M406.8,29c0,2.8-2,4.5-4.4,4.5c-2.4,0-4.3-1.8-4.3-4.3c0-2.3,1.6-4.5,4.4-4.5C404.8,24.7,406.8,26.4,406.8,29L406.8,29z
	 M399.6,28.8c0,2.4,1.3,4.2,3.1,4.2c1.4,0,2.6-1.2,2.6-3.7c0-2.7-1.3-4.2-3-4.2C400.9,25.2,399.6,26.4,399.6,28.8z M416.2,25.3
	c-0.8,0.1-1.1,0.2-1.1,0.8c0,0.4-0.1,0.9-0.1,2.1v1.1c0,1.5-0.2,2.6-1,3.4c-0.6,0.6-1.5,0.9-2.3,0.9c-0.8,0-1.5-0.2-2.1-0.6
	c-0.8-0.6-1.1-1.6-1.1-3.1v-3.2c0-1.2-0.1-1.2-1.1-1.3v-0.4h3.5v0.4c-1,0.1-1.1,0.1-1.1,1.3v2.9c0,2.1,0.8,3.3,2.4,3.3
	c1.8,0,2.4-1.5,2.4-3.6v-1c0-1.1,0-1.7-0.1-2.1c-0.1-0.5-0.3-0.7-1.3-0.7v-0.4h3.1L416.2,25.3L416.2,25.3z M420.3,24.9
	c0.9,0,1.7,0.2,2.2,0.5c0.5,0.4,0.9,1,0.9,1.9c0,1.7-1.3,2.5-2.5,2.7c-0.2,0-0.4,0-0.6,0l-0.9-0.2v2c0,1.1,0.1,1.2,1.3,1.2v0.4H417
	V33c1-0.1,1.1-0.2,1.1-1.3v-5.1c0-1.1-0.1-1.2-1.1-1.3v-0.4H420.3L420.3,24.9z M419.3,29.3c0.2,0.1,0.5,0.2,0.9,0.2
	c0.8,0,1.8-0.4,1.8-2.1c0-1.4-0.9-2-1.9-2c-0.3,0-0.6,0.1-0.7,0.2c-0.1,0.1-0.1,0.2-0.1,0.6L419.3,29.3L419.3,29.3z M345.5,43.3h5.1
	c0,0,0.1-0.1,0.3-0.4c0.2-0.3,0.4-0.4,0.4-0.4c0.1,0,0.3,0.1,0.6,0.4c0.2,0.3,0.4,0.4,0.4,0.5c0,0.1-0.1,0.2-0.2,0.2H351v1.3h0.2
	c0,0,0.1-0.1,0.3-0.3c0.2-0.3,0.4-0.4,0.4-0.4c0.1,0,0.3,0.1,0.5,0.4c0.2,0.3,0.4,0.4,0.4,0.5c0,0.1-0.1,0.2-0.2,0.2H351v1.2
	c0.1-0.1,0.1-0.1,0.2-0.3c0.2-0.3,0.3-0.4,0.4-0.4c0.1,0,0.3,0.1,0.5,0.4c0.2,0.3,0.3,0.4,0.3,0.5c0,0.1,0,0.2-0.2,0.2h-3.5v1.1h1.7
	c0,0,0.1-0.1,0.3-0.4c0.2-0.3,0.4-0.4,0.4-0.4c0.1,0,0.3,0.2,0.6,0.4c0.3,0.3,0.4,0.4,0.4,0.5c0,0.1-0.1,0.2-0.2,0.2h-3.2v1.4
	c0,0.1-0.2,0.2-0.5,0.3c-0.2,0-0.3,0-0.3,0c-0.2,0-0.3-0.1-0.3-0.3c0-0.3,0.1-0.8,0.1-1.4h-1.9c-0.6,0-1,0-1.2,0l-0.2-0.4
	c0.3,0.1,0.8,0.1,1.4,0.1h1.9v-1.1h-2.2c-0.6,0-1,0-1.2,0l-0.2-0.4c0.3,0.1,0.7,0.1,1.3,0.1v-1.3H345c-0.6,0-1,0-1.2,0l-0.2-0.4
	c0.3,0.1,0.8,0.1,1.3,0.1h0.5v-1.3c-0.5,0-0.9,0-1.2,0l-0.2-0.4C344.4,43.3,344.9,43.3,345.5,43.3L345.5,43.3z M345.4,42h0.7v-0.3
	c0-0.3,0-0.6-0.1-0.8c0.3,0,0.7,0.1,1.1,0.2c0.4,0,0.6,0.1,0.6,0.2c0,0.1-0.1,0.2-0.3,0.3c-0.2,0-0.2,0.1-0.2,0.3V42h1.8v-0.3
	c0-0.3,0-0.6-0.1-0.8c0.3,0,0.7,0.1,1.1,0.2c0.4,0,0.6,0.1,0.6,0.2c0,0.1-0.1,0.2-0.3,0.3c-0.2,0-0.2,0.1-0.2,0.3V42h0.9
	c0,0,0.1-0.1,0.3-0.4c0.2-0.3,0.4-0.5,0.4-0.5c0.1,0,0.3,0.2,0.6,0.4c0.3,0.3,0.4,0.5,0.4,0.5c0,0.1-0.1,0.2-0.2,0.2h-2.4v0.5
	c0,0.1-0.2,0.2-0.5,0.3c-0.2,0-0.3,0-0.3,0c-0.2,0-0.3-0.1-0.3-0.2c0-0.2,0-0.3,0-0.4v-0.2h-1.8v0.5c0,0.1-0.2,0.2-0.5,0.3
	c-0.2,0-0.3,0-0.3,0c-0.2,0-0.3-0.1-0.3-0.2c0-0.2,0-0.3,0-0.4v-0.2h-0.9c-0.5,0-1,0-1.3,0.1l-0.2-0.5C344.4,42,344.9,42,345.4,42
	L345.4,42z M347.7,43.6h-1.1v1.3h1.1V43.6z M347.7,45.1h-1.1v1.3h1.1V45.1z M349.9,43.6h-1.1v1.3h1.1V43.6z M349.9,45.1h-1.1v1.3
	h1.1V45.1z M357.4,42.1h1.6c0.1-0.4,0.2-0.9,0.2-1.3c0.4,0.1,0.7,0.2,0.9,0.3c0.4,0.1,0.5,0.2,0.5,0.3c0,0.1-0.1,0.2-0.2,0.2
	c-0.2,0-0.2,0.1-0.2,0.2c0,0.1-0.1,0.2-0.1,0.3h1.8c0,0,0.1-0.1,0.3-0.4c0.2-0.3,0.4-0.5,0.4-0.5c0.1,0,0.3,0.2,0.6,0.5
	c0.3,0.3,0.4,0.5,0.4,0.5c0,0.1-0.1,0.2-0.2,0.2H360c-0.1,0.3-0.2,0.7-0.3,0.9h1.7c0,0,0.1-0.1,0.3-0.4c0.2-0.3,0.4-0.4,0.4-0.4
	c0.1,0,0.3,0.1,0.6,0.4c0.3,0.3,0.4,0.4,0.4,0.5c0,0.1-0.1,0.2-0.2,0.2h-2.1c0.3,0.4,0.5,0.7,0.8,1h0.8c0,0,0.1-0.2,0.4-0.4
	c0.3-0.3,0.4-0.5,0.5-0.5c0.1,0,0.3,0.2,0.6,0.5c0.3,0.3,0.4,0.5,0.4,0.6c0,0.1-0.1,0.2-0.2,0.2h-2.2c0.2,0.2,0.4,0.3,0.6,0.5
	c0.7,0.4,1.4,0.7,2,0.9l0,0.2c-0.3,0.1-0.5,0.3-0.6,0.6c-0.1,0.2-0.1,0.3-0.2,0.3c-0.1,0-0.4-0.2-0.9-0.5c-0.5-0.4-0.9-0.8-1.3-1.3
	c-0.1-0.2-0.3-0.4-0.4-0.6h-2.3c-0.3,0.4-0.6,0.8-1,1.1c0.4,0.1,0.7,0.2,0.8,0.3c0.2,0.1,0.3,0.3,0.3,0.5c0,0.2-0.1,0.3-0.2,0.5
	c-0.1,0.1-0.2,0.2-0.4,0.2c-0.1,0-0.2-0.1-0.3-0.4c-0.1-0.3-0.3-0.6-0.5-0.8c-0.5,0.4-1.2,0.7-2,1.1l-0.1-0.2c0.9-0.6,1.6-1.2,2-1.7
	c0.1-0.2,0.2-0.3,0.4-0.5H357c-0.6,0-1,0-1.2,0l-0.2-0.4c0.3,0.1,0.8,0.1,1.4,0.1h1.1c0.2-0.3,0.3-0.7,0.5-1H358c-0.6,0-1.3,0-1.5,0
	l-0.2-0.4c0.3,0.1,1,0.1,1.6,0.1h0.6c0.1-0.3,0.2-0.6,0.3-0.9h-1.6c-0.6,0-1,0-1.2,0L356,42C356.3,42,356.8,42,357.4,42.1
	L357.4,42.1z M359.4,47.5c-0.6,0.5-1.1,0.8-1.7,1.1c-0.4,0.2-0.5,0.3-0.5,0.3v0.2c0,0.1-0.1,0.2-0.1,0.2c-0.1,0-0.2-0.2-0.4-0.5
	c-0.1-0.2-0.2-0.4-0.4-0.7c0.8-0.1,1.8-0.4,3.1-0.8L359.4,47.5L359.4,47.5z M360.5,45.3c0.4,0.1,0.6,0.2,0.6,0.3
	c0,0.1-0.1,0.2-0.2,0.2c-0.2,0.1-0.3,0.1-0.3,0.2v1.1c0.1,0,0.2,0.1,0.3,0.1c0.1-0.1,0.9-1,1-1.5c0-0.1,0.5,0.4,0.7,0.5
	c0.2,0.2,0.3,0.3,0.3,0.3c0,0.1,0-0.1-0.1-0.1l-0.4,0.3c-0.2,0.1-0.9,0.4-1.2,0.5c0.3,0.1,0.7,0.2,0.9,0.3c0.5,0.2,0.9,0.5,1.1,0.7
	c0.2,0.2,0.3,0.4,0.3,0.7c0,0.1,0,0.3-0.1,0.4c-0.1,0.1-0.2,0.2-0.3,0.2c-0.2,0-0.5-0.3-1-0.9c-0.4-0.4-0.8-0.8-1.4-1.2v1.4
	c0,0.4-0.1,0.7-0.3,0.8c-0.3,0.2-0.5,0.3-0.8,0.3c-0.1,0-0.2-0.1-0.2-0.3c-0.1-0.3-0.4-0.6-1.1-0.8l0-0.2c0.5,0.1,0.8,0.1,1.1,0.1
	c0.2,0,0.2-0.1,0.2-0.2V46c0-0.2,0-0.5-0.1-1C360,45.1,360.3,45.2,360.5,45.3L360.5,45.3z M360.5,43.5h-0.9c-0.2,0.4-0.3,0.8-0.5,1
	h1.9C360.8,44.2,360.6,43.9,360.5,43.5L360.5,43.5z M368.7,43.6h2.1c0-0.4,0.1-0.9,0.1-1.4c0-0.5,0-1,0-1.4c0.3,0.1,0.7,0.1,1,0.2
	c0.5,0.1,0.7,0.2,0.7,0.3c0,0.1-0.1,0.2-0.2,0.2c-0.2,0.1-0.3,0.2-0.3,0.2c-0.1,0.7-0.1,1.3-0.2,1.8h2.2c0,0,0.2-0.2,0.4-0.5
	c0.3-0.3,0.4-0.5,0.5-0.5c0.1,0,0.4,0.2,0.7,0.5c0.3,0.3,0.5,0.5,0.5,0.6c0,0.1-0.1,0.2-0.2,0.2h-3.6c0.2,0.6,0.4,1.2,0.6,1.8
	c0.3,0.6,0.7,1.2,1.2,1.6c0.6,0.5,1.3,1,2,1.3l0,0.2c-0.4,0.1-0.6,0.3-0.7,0.5c-0.1,0.3-0.2,0.4-0.3,0.4c-0.1,0-0.3-0.2-0.6-0.4
	c-0.3-0.3-0.7-0.7-1.1-1.2c-0.3-0.4-0.6-0.9-0.8-1.6c-0.2-0.6-0.4-1.5-0.6-2.7h-0.1c-0.2,1-0.4,1.8-0.6,2.3
	c-0.4,0.8-0.9,1.6-1.6,2.2c-0.6,0.5-1.4,1-2.4,1.5l-0.1-0.2c0.8-0.5,1.5-1.1,2.1-1.8c0.5-0.6,1-1.4,1.3-2.4c0.1-0.5,0.2-1,0.3-1.5
	h-2.2c-0.5,0-1,0-1.3,0.1l-0.2-0.5C367.6,43.5,368.2,43.6,368.7,43.6L368.7,43.6z M381.7,41c0.3,0.1,0.4,0.2,0.4,0.3
	s-0.1,0.2-0.3,0.2c-0.1,0-0.1,0-0.2,0c0.5,0.1,0.9,0.3,1.2,0.4c0.3,0.2,0.4,0.4,0.4,0.6c0,0.2-0.1,0.3-0.2,0.4
	c-0.1,0.1-0.2,0.1-0.3,0.1c-0.2,0-0.4-0.1-0.6-0.4c-0.2-0.3-0.4-0.6-0.8-0.9c-0.3,0.4-0.6,0.8-0.9,1.1c-0.1,0.1-0.2,0.1-0.2,0.2
	c0.3,0,0.5,0,0.7,0h0.4c0-0.1,0.1-0.2,0.2-0.3c0.1-0.2,0.2-0.3,0.2-0.3c0.1,0,0.2,0.1,0.3,0.3c0.2,0.2,0.2,0.3,0.2,0.4
	c0,0.1,0,0.2-0.1,0.2H381c-0.2,0-0.5,0-0.8,0l-0.1-0.2c-0.3,0.3-0.7,0.5-1.1,0.7l-0.1-0.1c0.5-0.5,0.9-1,1.1-1.4
	c0.3-0.5,0.5-1,0.7-1.7C381.1,40.9,381.4,41,381.7,41L381.7,41z M380.7,44.2h1c0.1-0.1,0.2-0.2,0.3-0.3c0.1-0.2,0.2-0.2,0.3-0.2
	c0.1,0,0.3,0.1,0.6,0.3c0.3,0.2,0.5,0.4,0.5,0.5c0,0.1-0.1,0.2-0.2,0.3c-0.1,0.1-0.2,0.2-0.2,0.3v0.2l0.1,1.8c0,0.1-0.2,0.2-0.5,0.2
	c-0.1,0-0.2,0-0.3,0c-0.2,0-0.3-0.1-0.3-0.3V47h-1.3v1.3c0.4,0,0.7-0.1,1.1-0.1c-0.1-0.2-0.3-0.5-0.4-0.7l0.1-0.2
	c0.6,0.2,1,0.4,1.2,0.6c0.2,0.2,0.3,0.4,0.3,0.7c0,0.2-0.1,0.3-0.2,0.5c-0.1,0.1-0.2,0.2-0.4,0.2c-0.1,0-0.3-0.2-0.4-0.5
	c0-0.1-0.1-0.2-0.1-0.3c-0.6,0.4-1.2,0.7-1.8,0.9c-0.1,0-0.1,0-0.1,0.1c0,0,0,0.1,0,0.1c0,0.1-0.1,0.1-0.1,0.1
	c-0.1,0-0.3-0.2-0.5-0.7c-0.1-0.1-0.1-0.3-0.2-0.6c0.2,0,0.4,0,0.6,0v-2.8c0-0.8,0-1.4-0.1-1.8C379.8,43.9,380.2,44,380.7,44.2
	L380.7,44.2z M382,45.5v-1h-1.3v1H382z M382,46.7v-1h-1.3v1H382z M387.7,41.4c0.2,0.2,0.4,0.4,0.4,0.4c0,0.1-0.1,0.2-0.2,0.2h-3.2
	v1.7h1.6c0.1-0.1,0.2-0.2,0.3-0.3c0.2-0.1,0.3-0.2,0.3-0.2c0.1,0,0.3,0.1,0.6,0.4c0.3,0.2,0.5,0.4,0.5,0.5c0,0.1-0.1,0.1-0.2,0.2
	c-0.2,0.1-0.3,0.1-0.3,0.2c-0.2,1.1-0.4,1.9-0.7,2.4c-0.1,0.2-0.2,0.4-0.4,0.6c0,0,0.1,0.1,0.1,0.1c0.4,0.4,0.9,0.7,1.6,1l-0.1,0.2
	c-0.3,0.1-0.5,0.3-0.6,0.6c-0.1,0.2-0.1,0.4-0.2,0.4c-0.2,0-0.4-0.2-0.7-0.5c-0.3-0.3-0.6-0.7-0.8-1.1c-0.1,0.1-0.3,0.3-0.4,0.4
	c-0.6,0.5-1.3,1-2,1.3l-0.1-0.2c0.6-0.5,1.2-1.1,1.6-1.7c0.2-0.2,0.3-0.5,0.5-0.7c-0.1-0.3-0.2-0.7-0.3-1.1
	c-0.2-0.7-0.3-1.4-0.4-2.2h-0.1v0c0,1-0.1,1.8-0.2,2.5c-0.1,0.7-0.3,1.3-0.7,1.8c-0.3,0.5-0.6,0.9-1.1,1.3l-0.2-0.1
	c0.4-0.7,0.6-1.4,0.8-2.1c0.2-0.8,0.2-2,0.2-3.6c0-1.3,0-2.2-0.1-2.8c0.5,0.2,0.9,0.3,1.3,0.5h1.3c0,0,0.1-0.1,0.3-0.4
	c0.3-0.3,0.5-0.5,0.6-0.5C387,40.8,387.2,41,387.7,41.4L387.7,41.4z M385.7,46.3c0,0.1,0.1,0.2,0.1,0.3c0.1-0.1,0.1-0.2,0.1-0.3
	c0.3-0.7,0.4-1.5,0.4-2.2H385C385.2,45,385.4,45.7,385.7,46.3L385.7,46.3z M396.3,41c0.3,0,0.4,0.1,0.4,0.2c0,0-0.1,0.1-0.2,0.2
	c-0.2,0.1-0.3,0.2-0.3,0.3v0.5h1.6c0,0,0.1-0.1,0.3-0.3c0.3-0.3,0.4-0.5,0.5-0.5c0.1,0,0.3,0.2,0.7,0.5c0.2,0.2,0.4,0.4,0.4,0.4
	c0,0.1-0.1,0.2-0.2,0.2h-6.6v0.9c0,1.1,0,2.1-0.1,2.9c-0.1,0.7-0.3,1.4-0.6,2.1c-0.2,0.5-0.6,1-1,1.5l-0.2-0.1
	c0.3-0.8,0.5-1.6,0.6-2.3c0.1-0.9,0.2-2.2,0.2-4c0-0.8,0-1.3-0.1-1.7c0.6,0.2,1.1,0.4,1.5,0.5h1.9v-0.5c0-0.3,0-0.6-0.1-0.9
	C395.4,40.9,395.9,40.9,396.3,41L396.3,41z M396.5,42.9c0.3,0,0.4,0.1,0.4,0.2c0,0-0.1,0.1-0.3,0.2c-0.2,0.1-0.3,0.2-0.3,0.3v0.8
	h1.4c0,0,0.1-0.1,0.3-0.4c0.3-0.3,0.4-0.5,0.5-0.5c0.1,0,0.3,0.2,0.7,0.5c0.2,0.2,0.4,0.4,0.4,0.4c0,0.1-0.1,0.2-0.2,0.2h-3.1v1.9
	h1.1c0.2-0.2,0.3-0.3,0.4-0.5c0.1-0.1,0.2-0.2,0.3-0.2c0.1,0,0.3,0.1,0.6,0.3c0.3,0.2,0.5,0.4,0.5,0.5c0,0.1-0.1,0.2-0.2,0.3
	c-0.1,0.1-0.2,0.2-0.2,0.3v1c0,0.3,0,0.7,0,1.3c0,0.1-0.2,0.2-0.5,0.3c-0.2,0-0.3,0-0.3,0c-0.2,0-0.3-0.1-0.3-0.3v-0.3h-3.4v0.3
	c0,0.1-0.2,0.2-0.5,0.3c-0.2,0-0.3,0-0.3,0c-0.2,0-0.3-0.1-0.3-0.3c0-0.3,0-0.7,0-1v-1c0-0.5,0-1-0.1-1.4c0.4,0.1,0.9,0.3,1.3,0.5
	h0.7v-2.8c0-0.3,0-0.6-0.1-0.9C395.6,42.8,396.1,42.9,396.5,42.9L396.5,42.9z M397.8,48.9v-2.1h-3.4v2.1H397.8z M405.5,41.1
	c0.3,0.1,0.4,0.2,0.4,0.3c0,0.1-0.1,0.2-0.2,0.2c-0.2,0-0.3,0.1-0.3,0.1c-0.1,0.2-0.3,0.4-0.4,0.6h1.9c0.2-0.5,0.4-0.9,0.5-1.4
	c0.3,0.1,0.6,0.2,0.9,0.3c0.3,0.1,0.4,0.2,0.4,0.3c0,0.1-0.1,0.1-0.2,0.1c-0.2,0-0.2,0.1-0.2,0.1c-0.2,0.2-0.5,0.4-0.8,0.6h2
	c0,0,0.1-0.1,0.3-0.3c0.3-0.3,0.4-0.5,0.5-0.5c0.1,0,0.3,0.2,0.7,0.5c0.2,0.2,0.4,0.3,0.4,0.4c0,0.1-0.1,0.2-0.2,0.2h-3.2v0.8h0.9
	c0,0,0.1-0.1,0.3-0.3c0.3-0.3,0.4-0.4,0.5-0.4c0.1,0,0.3,0.2,0.6,0.5c0.2,0.2,0.3,0.3,0.3,0.4c0,0.1-0.1,0.2-0.2,0.2h-2.4v0.8h0.9
	c0,0,0.1-0.1,0.3-0.3c0.2-0.3,0.4-0.4,0.5-0.4c0.1,0,0.3,0.2,0.6,0.5c0.2,0.2,0.3,0.3,0.3,0.4c0,0.1-0.1,0.2-0.2,0.2h-2.5v0.8h1.7
	c0,0,0.1-0.1,0.3-0.3c0.3-0.3,0.4-0.5,0.5-0.5c0.1,0,0.3,0.2,0.7,0.5c0.2,0.2,0.3,0.3,0.3,0.4c0,0.1-0.1,0.2-0.2,0.2H405V46
	c0,0.1-0.2,0.2-0.5,0.3c-0.1,0-0.2,0-0.3,0c-0.2,0-0.3-0.1-0.3-0.3c0-0.5,0.1-1.1,0.1-1.7v-1c-0.3,0.3-0.7,0.5-1.2,0.8l-0.2-0.2
	c0.5-0.5,0.9-1,1.2-1.5c0.3-0.5,0.5-1.1,0.7-1.7C404.9,40.9,405.2,41,405.5,41.1L405.5,41.1z M404.1,46.9h2.7v-0.1
	c0-0.3,0-0.6-0.1-0.8c0.3,0,0.7,0.1,1.1,0.2c0.4,0,0.6,0.1,0.6,0.2c0,0.1-0.1,0.2-0.3,0.3c-0.2,0.1-0.2,0.1-0.2,0.3v0.1h1.9
	c0,0,0.2-0.2,0.4-0.4c0.3-0.3,0.4-0.5,0.5-0.5c0.1,0,0.3,0.2,0.6,0.5c0.3,0.3,0.4,0.5,0.4,0.6c0,0.1-0.1,0.2-0.2,0.2h-3.4
	c0.5,0.3,1,0.6,1.6,0.7c0.7,0.2,1.4,0.3,2,0.4l0,0.2c-0.3,0.1-0.5,0.3-0.6,0.6c-0.1,0.2-0.1,0.3-0.2,0.3c-0.1,0-0.4-0.1-0.9-0.3
	c-0.5-0.2-0.9-0.5-1.3-0.8c-0.3-0.3-0.6-0.6-0.8-0.9v2.2c0,0.1-0.2,0.2-0.5,0.3c-0.2,0-0.3,0-0.3,0c-0.2,0-0.3-0.1-0.3-0.2
	c0-0.2,0-0.3,0-0.4v-1.7c-0.3,0.3-0.6,0.5-0.9,0.7c-0.4,0.3-0.9,0.5-1.4,0.7c-0.5,0.2-1.1,0.4-1.7,0.5l-0.1-0.2
	c0.7-0.2,1.3-0.5,1.8-0.9c0.5-0.3,1-0.7,1.3-1.2h-1.8c-0.6,0-1,0-1.2,0l-0.2-0.4C403,46.9,403.5,46.9,404.1,46.9L404.1,46.9z
	 M406.9,42.5H405v0.8h1.9V42.5z M406.9,43.6H405v0.8h1.9V43.6z M406.9,44.7H405v0.8h1.9V44.7z M422.1,46.8l-0.6-0.4
	c0.2-0.1,0.3-0.2,0.3-0.4c0-0.1-0.1-0.4-0.9-0.6c0.2-0.1,0.5-0.2,0.5-0.2v-1.5c0.1,0,0.3-0.1,0.3-0.1c0,0,0-0.1,0-0.1
	c0,0-0.6-0.6-0.8-0.6c-0.1,0-0.1,0-0.1,0l-0.3,0.4h-0.9v-0.6h1.9c0.2,0,0.2,0,0.2-0.2c0,0,0,0,0,0l-0.6-0.6c0,0,0,0,0,0l-0.4,0.6
	h-1.1V42c0.2,0,0.3-0.1,0.4-0.2c0,0,0,0,0,0l-1.3-0.1c0,0,0,0,0,0c0,0,0,0,0,0v0.7c0,0-2.2,0-2.4,0l0.1,0.3l0,0c0.1,0,2.2,0,2.2,0
	v0.6h-0.9l-0.9-0.4c0,0,0,0,0,0c0,0,0,0,0,0v2.6c0,0,0,0,0,0c0.6,0,0.9-0.2,0.9-0.3h0.9v0.5c-1,0-1.8,0-2.3,0c0,0,0,0,0,0
	c0,0,0,0,0,0l0.5,0.8c0,0,0,0,0,0c0.1,0,0.2-0.1,0.3-0.2c1.7-0.2,2.8-0.3,3.8-0.4c0.1,0.1,0.2,0.2,0.2,0.3c0.1,0.1,0.1,0.1,0.2,0.1
	l-0.3,0.4h-0.3v-0.3c0.3,0,0.4-0.1,0.4-0.2v0c0,0,0,0,0,0l-1.3-0.1c0,0,0,0,0,0v0v0.6h-3.6c0,0,0,0,0,0c0,0,0,0,0,0l0.1,0.2
	c0,0,0,0,0,0h0.9l0,0c0,0,0,0,0,0c0,0,0,0,0,0c0.2,0.2,0.5,0.6,0.5,0.9c0.1,0.1,0.2,0.2,0.4,0.2c0.3,0,0.5-0.2,0.5-0.5
	c0-0.1-0.1-0.5-0.9-0.7h2.1v0.7c0,0.1-0.1,0.1-0.2,0.1l-0.8-0.2c0,0,0,0,0,0v0.2c0,0,0,0,0,0c0.5,0.2,0.7,0.6,0.8,1c0,0,0,0,0,0
	c0,0,0,0,0,0c1-0.1,1.2-0.4,1.2-1.1V47h1.2C422.3,47,422,47,422.1,46.8C422.1,46.8,422.1,46.8,422.1,46.8L422.1,46.8z M418.4,44.3
	v0.6h-0.9v-0.6H418.4z M417.5,44.1v-0.5h0.9v0.5H417.5z M420.3,44.3v0.6h-0.9v-0.6H420.3z M419.4,44.1v-0.5h0.9v0.5H419.4z
	 M419.8,45.3l-0.1,0.2c0,0,0,0,0,0c0,0,0,0,0,0c0.2,0.1,0.3,0.1,0.4,0.2h-0.8v-0.5h0.9v0.1C420.2,45.3,420,45.3,419.8,45.3
	C419.8,45.3,419.8,45.3,419.8,45.3L419.8,45.3z M423,41.1c-0.3-0.2-0.5-0.3-0.6-0.3c-0.1,0-0.2,0.1-0.3,0.2
	c-0.1,0.1-0.2,0.2-0.3,0.3h-5.7c-0.4-0.2-0.8-0.3-1.2-0.4c0.1,0.7,0.1,1.2,0.1,1.7v5.3c0,0.5,0,1.1-0.1,1.8c0,0.2,0.1,0.3,0.4,0.3
	c0,0,0.1,0,0.3,0c0.3-0.1,0.5-0.1,0.5-0.2v-0.3h6v0.3c0,0.2,0.1,0.3,0.3,0.3c0.1,0,0.2,0,0.3,0c0.4-0.1,0.6-0.2,0.6-0.3l-0.1-2v-5.3
	c0-0.1,0.1-0.2,0.2-0.3c0.2-0.1,0.3-0.2,0.3-0.3C423.5,41.5,423.3,41.3,423,41.1L423,41.1z M421.9,49h-6v-7.4h6V49z M421.6,42.7
	c0.1,0,0.2-0.1,0.2-0.2c0-0.1-0.1-0.2-0.3-0.4c-0.2-0.2-0.4-0.4-0.5-0.4c0,0-0.2,0.1-0.3,0.4c-0.2,0.2-0.2,0.3-0.2,0.3h0v0.3H421.6z
	"/>
<path fill="#D4144F" d="M359.8,0C350,0,342,7.9,342,17.7c0,9.8,7.9,17.7,17.7,17.7c9.8,0,17.7-7.9,17.7-17.7C377.5,7.9,369.6,0,359.8,0
	z M367.9,19.4c0,0,0-0.2,0-1.5s-0.6-3.6-2.7-3.3c-1.4,0.3-1.8,1.2-1.9,2v5c0,0,0,0.4,0,0.6c0,1.7-1.9,3.3-3.1,3.7
	c-3,1.1-6.4,1.4-8.6,1.3c-3.1-0.1-4.5-2.4-4.5-2.4l5.8-1.2c0,0,1.9,1.9,3.5,1.7c0.8-0.1,1-1.5,1-2.7c0,0,0-1.8,0-2.2
	c0-0.4-0.6-0.4-1.1-0.2c-9.2,3.6-9.8-0.6-9.8-1.4c-0.1-4.2,8.1-5.4,10.9-4.8c0-0.4,0-5.2,0-5.2l6-1v5.7c0,0.8,2.8-0.3,3.8-0.6
	c5.7-1.5,7,1.4,7,2.8v3.7L367.9,19.4L367.9,19.4z M353.6,15.2c-1.7,0.6-1.3,4.3,2.1,4c1.1-0.2,1.5-1.2,1.4-1.9
	C356.8,15.9,355.3,14.6,353.6,15.2L353.6,15.2z"/>

<path d="M508.4,16.4h-18.3c-0.6,0-1.1,0.5-1.1,1.1v16.3c0,0.6,0.5,1.1,1.1,1.1h18.3c0.6,0,1.1-0.5,1.1-1.1V17.5
	C509.5,16.9,509,16.4,508.4,16.4L508.4,16.4z M502.4,17.8h1.6c0.1,0.4,0.2,1.1,0.3,1.9h-1.9C502.4,18.8,502.4,18.1,502.4,17.8
	L502.4,17.8z M491.6,17.8h8.8c0,0.3,0,1,0.1,1.9h-8.9V17.8z M507,33.6h-15.4V21h9.1c0.3,2,0.8,4.7,1.9,7.1c-0.9,1.3-2,2.6-3.3,3.4
	c-0.1,0.1,0,0.2,0,0.2l0.4,0.8c0,0,0.1,0.2,0.2,0.1c1.3-0.8,2.5-1.8,3.5-3c0.7,1.2,1.5,2.3,2.5,3.2c0.1,0.1,0.2,0,0.2,0l0.6-0.7
	c0,0,0.1-0.1,0-0.2c-1-1.1-1.7-2.4-2.3-3.7c0.7-1,1.3-2.1,1.8-3.2c0.1-0.2-0.1-0.2-0.1-0.2l-1.3-0.5c0,0-0.1-0.1-0.2,0.1
	c-0.3,0.7-0.6,1.3-1,2c-0.6-2-1-3.9-1.1-5.4h3.3c0,0,0.5,0,0.5-0.6c-0.2-1-0.4-2.1-0.5-2.6h1.2L507,33.6L507,33.6z M500,29.7v-1
	c0-0.2-0.2-0.1-0.2-0.1c-2.6,0.7-5.7,1-7.1,1c-0.1,0-0.2,0.1-0.2,0.2v1.5c0,0.1,0.1,0.2,0.2,0.2h0c1.6-0.1,5-0.8,7.1-1.7
	C499.9,29.8,500,29.8,500,29.7L500,29.7z M493.7,27.6h5.2c0.6,0,1.1-0.5,1.1-1.1v-3.2c0-0.6-0.5-1.1-1.1-1.1h-5.2
	c-0.6,0-1.1,0.5-1.1,1.1v3.2C492.5,27.1,493,27.6,493.7,27.6z M495,23.3h2.5v3.1H495V23.3z M535,27.9c-1.3-0.6-2.7-1.5-3.8-2.6h3.8
	c0.1,0,0.2-0.1,0.2-0.2V24c0-0.1-0.1-0.2-0.2-0.2h-13c0.5-0.6,0.9-1.2,1.3-1.8h9.3c0.1,0,0.2-0.1,0.2-0.2v-1.1
	c0-0.1-0.1-0.2-0.2-0.2h-8.3c0.4-0.6,0.7-1.2,0.9-1.8h9.1c0.1,0,0.2-0.1,0.2-0.2v-1.1c0-0.1-0.1-0.2-0.2-0.2h-8.4
	c0.1-0.2,0.2-0.4,0.2-0.6c0.1-0.2,0.1-0.4-0.2-0.4c-0.5-0.1-1.5-0.3-1.8-0.4c-0.4-0.1-0.5,0.3-0.5,0.3l-0.2,0.5
	c-0.1,0.2-0.1,0.3-0.2,0.5h-7.5c-0.1,0-0.2,0.1-0.2,0.2v1.1c0,0.1,0.1,0.2,0.2,0.2h6.9c-0.2,0.6-0.5,1.2-0.9,1.8h-4.4
	c-0.1,0-0.2,0.1-0.2,0.2v1.1c0,0.1,0.1,0.2,0.2,0.2h3.5c-0.4,0.6-0.8,1.2-1.2,1.8h-4.7c-0.1,0-0.2,0.1-0.2,0.2v1.1
	c0,0.1,0.1,0.2,0.2,0.2h3.4c-1,1-2.2,2-3.4,2.6c-0.3,0.1-0.2,0.4-0.2,0.4l0.2,0.6c0,0,0.1,0.2,0.4,0.1c0.8-0.3,1.6-0.7,2.3-1.1
	c1.7,0.4,3.6,1.3,4.1,1.5c0.2,0.1,0.2,0,0.2,0l0.6-1.3c0,0,0.1-0.2-0.1-0.2c-0.7-0.3-2.3-0.7-3.5-1c0.6-0.5,1.1-1,1.6-1.5h8.1
	c0.5,0.5,1,1,1.6,1.4c-1,0.5-2.5,0.8-3.4,0.9c-0.1,0-0.2,0.1-0.1,0.2c0.2,0.5,0.2,0.9,0.4,1.4c0.1,0.2,0.1,0.2,0.3,0.1
	c0.6-0.1,3.1-1,4.2-1.8c0.9,0.6,1.9,1,2.8,1.4c0.3,0.1,0.4-0.1,0.4-0.1l0.2-0.6C535.1,28.3,535.3,28,535,27.9L535,27.9z M533.5,32.7
	c-1.9-0.9-4.1-1.6-6-2.1c-0.2-0.1-0.2,0.1-0.2,0.1l-0.4,0.8c0,0-0.1,0.2,0.1,0.2c1.9,0.8,3.5,1.5,5.3,2.5c0.2,0.1,0.4,0.1,0.5-0.1
	c0.3-0.5,0.5-0.7,0.8-1.2C533.7,32.9,533.6,32.7,533.5,32.7L533.5,32.7z M522.8,31.3c-0.1-0.4-0.1-0.4-0.2-0.8
	c0-0.1-0.1-0.2-0.2-0.1c-2.1,1.1-4.1,1.6-6.4,2.2c-0.1,0.1-0.2,0.1-0.1,0.3c0.2,0.4,0.5,1.1,0.6,1.4c0.1,0.1,0.2,0.2,0.3,0.1
	c1.8-0.6,4.1-1.8,5.8-2.7C522.8,31.5,522.8,31.5,522.8,31.3z M525,26.4h-1.2c-0.1,0-0.3,0.1-0.3,0.2v6.1c0,0.6-0.1,0.9-1,0.9H522
	c-0.1,0-0.1,0.1-0.1,0.1v1c0,0.2,0.1,0.3,0.3,0.3h1c2.2,0,2.9-0.3,2.9-2.2v-5.2C526.1,26.9,525.6,26.4,525,26.4L525,26.4z
	 M585.6,33.6c-1.8-0.7-3.2-1.4-4.4-2.2c2.5-2.1,3.4-4.2,3.5-4.9v0c0-0.2,0-0.5,0-0.5c-0.1-0.5-0.4-0.8-0.8-0.8h-8.8
	c-0.1,0-0.2,0.1-0.2,0.2v1c0,0.1,0.1,0.2,0.2,0.2h7.4c-0.1,0.6-0.8,2.1-2.8,3.8c-1.4-1.2-2.1-2.3-2.5-3.1H575c0.4,1,1.4,2.6,3.3,4.1
	c-1.1,0.8-2.6,1.5-4.4,2.2c-0.2,0.1-0.1,0.2-0.1,0.2l0.3,1c0,0,0.1,0.2,0.2,0.1c2.2-0.7,3.9-1.6,5.3-2.5c1.4,0.9,3.1,1.8,5.3,2.5
	c0.2,0,0.2-0.1,0.2-0.1l0.3-1C585.7,33.8,585.8,33.6,585.6,33.6L585.6,33.6z M565.5,19.6h8.1c0.1,0,0.2,0.1,0.2,0.2v1
	c0,0.1-0.1,0.2-0.2,0.2h-8.1c-0.1,0-0.2-0.1-0.2-0.2v-1C565.3,19.7,565.4,19.6,565.5,19.6z M572.5,25.2h-6.1c-0.1,0-0.2,0.1-0.2,0.2
	v1c0,0.1,0.1,0.2,0.2,0.2h6.1c0.1,0,0.2-0.1,0.2-0.2v-1C572.7,25.2,572.7,25.2,572.5,25.2z M572.5,22.4h-6.1c-0.1,0-0.2,0.1-0.2,0.2
	v1c0,0.1,0.1,0.2,0.2,0.2h6.1c0.1,0,0.2-0.1,0.2-0.2v-1C572.7,22.5,572.7,22.4,572.5,22.4z M572.5,16.8h-6.1c-0.1,0-0.2,0.1-0.2,0.2
	v1c0,0.1,0.1,0.2,0.2,0.2h6.1c0.1,0,0.2-0.1,0.2-0.2v-1C572.7,16.9,572.7,16.8,572.5,16.8z M575,24.2c0.1,0.1,0.2,0.1,0.3,0.1
	c0,0,3.1-2,3.1-5.1v-1h3.1v3.4c0,1,0.2,1.6,0.6,1.9c0.4,0.3,1,0.5,1.8,0.5h1.5c0.1,0,0.2-0.1,0.2-0.2v-1c0-0.1-0.1-0.2-0.2-0.2h-0.8
	c-0.4,0-0.7-0.1-0.8-0.2c-0.1-0.1-0.2-0.4-0.2-0.9V18c0,0,0-0.3,0-0.3c0-0.5-0.4-0.9-0.8-0.9h-6.2c-0.1,0-0.2,0.1-0.2,0.2v0.9
	c0,1.5-0.2,2.6-0.5,3.3c-0.3,0.8-1.5,1.7-1.5,1.7c-0.1,0.1-0.1,0.2-0.1,0.3L575,24.2z M572.2,27.9h-5.4c-0.5,0-0.9,0.3-0.9,0.8
	c0,0.7,0,5.1,0,5.1c0,0.6,0.4,1,0.9,1h5.4c0.5,0,0.9-0.4,0.9-1v-5C573.1,28.3,572.7,27.9,572.2,27.9L572.2,27.9z M570.7,33.5h-2.4
	v-4.2h2.4V33.5z M560.2,33.2h-9.7c-4.3,0-5.6-1.8-5.7-2c0.5-1.1,1-2.1,1.3-3c0.4-1.3,0.6-2.8,0.7-4.4c0-0.4-0.2-0.6-0.7-0.6h-2.9
	l3.3-5l-0.8-1.1h-5c-0.1,0-0.2,0.1-0.2,0.2v1c0,0.1,0.1,0.2,0.2,0.2h3.6l-3.4,5.2l0.5,0.9h3.2c0.1,0,0.1,0.1,0.1,0.2
	c0,1.3-0.4,3.1-1.1,4.6c-0.4-0.7-1.2-3.1-1.2-3.1c0-0.1-0.2-0.2-0.3-0.1l-1.4,0.5c-0.1,0-0.2,0.1-0.1,0.3c0.4,1.3,2,4.3,2,4.3
	c-0.7,1.5-2.5,2.3-2.5,2.3c-0.1,0.1-0.1,0.2,0,0.3l0.8,1.1c0.1,0.1,0.2,0.1,0.3,0c0,0,1.1-0.7,1.4-1c0.6-0.5,1-0.9,1.2-1.3
	c0,0,2.1,2.2,5.6,2.2h5.3h5.1c0.1,0,0.2-0.1,0.3-0.2l0.3-1.3C560.5,33.2,560.4,33.2,560.2,33.2L560.2,33.2z M558,24.2h0.3
	c0.6,0,1.1-0.5,1.1-1.1v-1.7h0.9c0.1,0,0.2-0.1,0.2-0.2v-0.9c0-0.1-0.1-0.2-0.2-0.2h-0.9v-1.7c0-0.6-0.5-1.1-1.1-1.1h-4.2v-0.9
	c0-0.1-0.1-0.2-0.2-0.2h-1.8c-0.1,0-0.2,0.1-0.2,0.2v0.9h-3.7c0,0-0.1,0-0.1,0.1c0,0,0,0,0,0c0,0-0.1,0.1-0.1,0.1v0.9
	c0,0.1,0.1,0.2,0.2,0.2h3.7V20h-5.5c-0.1,0-0.2,0.1-0.2,0.2v0.9c0,0.1,0.1,0.2,0.2,0.2h5.5v1.5h-3.7c-0.1,0-0.2,0.1-0.2,0.2V24
	c0,0,0,0.1,0.1,0.1c0,0,0,0,0,0c0,0,0.1,0.1,0.1,0.1h3.7v1.7h-4.2c-0.1,0-0.2,0.1-0.2,0.2V27c0,0.1,0.1,0.2,0.2,0.2h4.2v1.6h-5.1
	c-0.1,0-0.2,0.1-0.2,0.2V30c0,0.1,0.1,0.2,0.2,0.2h5.1v2.2c0,0.1,0.1,0.3,0.3,0.3h0.8c0.6,0,1.1-0.5,1.1-1.2v-1.3h6.2
	c0.1,0,0.2-0.1,0.2-0.2v-0.9c0-0.1-0.1-0.2-0.2-0.2h-6.2v-1.6h5.1c0.1,0,0.2-0.1,0.2-0.2v-0.9c0-0.1-0.1-0.2-0.2-0.2h-5.1v-1.7
	L558,24.2L558,24.2z M554.2,18.5h3.1V20h-3.1V18.5z M554.2,22v-0.6h3.1v1.5h-3.1V22L554.2,22z"/>

<path d="M806.9,31.9c-1.7-0.3-4-1-6.1-2.5h5.7c0.1,0,0.2-0.1,0.2-0.2v-0.7c0-0.1-0.1-0.2-0.2-0.2h-6.7v-1.2h5.2
	c0.1,0,0.2-0.1,0.2-0.2v-0.7c0-0.1-0.1-0.2-0.2-0.2h-5.2v-1.2h6.7c0.1,0,0.2-0.1,0.2-0.2v-0.7c0-0.1-0.1-0.2-0.2-0.2h-4.1l0.5-1.9
	h3.6c0.1,0,0.2-0.1,0.2-0.2V21c0-0.1-0.1-0.2-0.2-0.2H804l0.6-2c0,0-0.1-0.1-0.1-0.1h-1.4c-0.1,0-0.2,0.1-0.2,0.2l-0.4,1.9h-1.1
	v-2.2c0-0.1-0.1-0.2-0.2-0.2h-1.4c-0.1,0-0.2,0.1-0.2,0.2v2.2h-1.8v-2.2c0-0.1-0.1-0.2-0.2-0.2h-1.4c-0.1,0-0.2,0.1-0.2,0.2v2.2H795
	l-0.4-1.9c0-0.1-0.1-0.2-0.2-0.2H793c-0.1,0-0.1,0-0.1,0.1l0.6,2H791c-0.1,0-0.2,0.1-0.2,0.2v0.7c0,0.1,0.1,0.2,0.2,0.2h3.6l0.5,1.9
	H791c-0.1,0-0.2,0.1-0.2,0.2v0.7c0,0.1,0.1,0.2,0.2,0.2h6.7V26h-5.2c-0.1,0-0.2,0.1-0.2,0.2V27c0,0.1,0.1,0.2,0.2,0.2h5.2v1.2H791
	c-0.1,0-0.2,0.1-0.2,0.2v0.7c0,0.1,0.1,0.2,0.2,0.2h5.7c-2.1,1.4-4.5,2.2-6.1,2.5c-0.1,0-0.2,0.1-0.1,0.2l0.1,0.6
	c0,0.1,0.1,0.2,0.2,0.1c3.6-0.4,6.1-1.8,7-2.4v2.8c0,0.1,0.1,0.2,0.2,0.2h0.8c0.5,0,0.9-0.4,0.9-0.9v-2.1c0.9,0.6,3.4,1.9,7,2.4
	c0.1,0,0.2-0.1,0.2-0.1l0.1-0.6C807,32,806.9,31.9,806.9,31.9L806.9,31.9z M796.7,23.8l-0.3-1.9h4.6l-0.3,1.9H796.7z M669.7,18.8
	h-14.5c-0.5,0-0.9,0.4-0.9,0.9v12.9c0,0.5,0.4,0.9,0.9,0.9h14.4c0.5,0,0.9-0.4,0.9-0.9V19.7C670.5,19.2,670.2,18.8,669.7,18.8z
	 M664.9,19.9h1.2c0.1,0.3,0.2,0.8,0.2,1.5h-1.5C664.9,20.7,664.9,20.2,664.9,19.9L664.9,19.9z M656.3,19.9h7c0,0.3,0,0.8,0.1,1.5h-7
	V19.9z M668.5,32.4h-12.2v-9.9h7.2c0.2,1.6,0.7,3.7,1.5,5.7c-0.7,1.1-1.6,2-2.6,2.7c-0.1,0.1,0,0.2,0,0.2l0.3,0.6c0,0,0,0.1,0.2,0
	c1.1-0.6,2-1.4,2.8-2.4c0.5,0.9,1.2,1.8,2,2.5c0.1,0.1,0.2,0,0.2,0l0.5-0.6c0,0,0.1-0.1,0-0.1c-0.8-0.9-1.3-1.9-1.8-2.9
	c0.6-0.8,1-1.7,1.4-2.5c0.1-0.1-0.1-0.2-0.1-0.2l-1-0.4c0,0-0.1,0-0.2,0.1c-0.2,0.5-0.5,1.1-0.8,1.6c-0.5-1.5-0.8-3.1-0.9-4.3h2.6
	c0,0,0.4,0,0.4-0.5c-0.2-0.8-0.3-1.6-0.4-2.1h1L668.5,32.4L668.5,32.4z M658,27.7h4.1c0.5,0,0.9-0.4,0.9-0.9v-2.5
	c0-0.5-0.4-0.9-0.9-0.9H658c-0.5,0-0.9,0.4-0.9,0.9v2.5C657.1,27.3,657.5,27.7,658,27.7L658,27.7z M659.1,24.3h2v2.4h-2V24.3z
	 M663,29.3v-0.8c0-0.1-0.1-0.1-0.1-0.1c-2,0.6-4.5,0.8-5.6,0.8c-0.1,0-0.2,0.1-0.2,0.2v1.2c0,0.1,0.1,0.2,0.2,0.2
	c1.3-0.1,4-0.6,5.6-1.3C662.9,29.5,663,29.4,663,29.3L663,29.3z M689.5,31.7c-1.5-0.7-3.2-1.3-4.8-1.6c-0.2-0.1-0.2,0.1-0.2,0.1
	l-0.3,0.6c0,0-0.1,0.1,0.1,0.2c1.5,0.6,2.8,1.2,4.2,2c0.1,0.1,0.3,0.1,0.4-0.1c0.3-0.4,0.4-0.6,0.6-0.9
	C689.6,31.9,689.6,31.8,689.5,31.7L689.5,31.7z M682.8,26.7h-0.9c-0.1,0-0.2,0.1-0.2,0.2v4.8c0,0.4-0.1,0.7-0.8,0.7h-0.4
	c-0.1,0-0.1,0.1-0.1,0.1v0.8c0,0.1,0.1,0.2,0.2,0.2h0.8c1.7,0,2.3-0.2,2.3-1.7v-4.1C683.7,27.1,683.3,26.7,682.8,26.7L682.8,26.7z
	 M681,30.6c-0.1-0.4-0.1-0.3-0.1-0.7c0-0.1-0.1-0.1-0.2-0.1c-1.6,0.8-3.3,1.3-5,1.8c-0.1,0-0.1,0.1-0.1,0.2c0.1,0.3,0.4,0.8,0.5,1.1
	c0,0.1,0.2,0.1,0.3,0.1c1.4-0.5,3.3-1.4,4.6-2.2C681,30.8,681,30.7,681,30.6L681,30.6z M690.7,27.9c-1-0.5-2.2-1.2-3-2h3
	c0.1,0,0.2-0.1,0.2-0.2v-0.9c0-0.1-0.1-0.2-0.2-0.2h-10.3c0.4-0.5,0.7-0.9,1-1.4h7.3c0.1,0,0.2-0.1,0.2-0.2v-0.9
	c0-0.1-0.1-0.2-0.2-0.2h-6.6c0.3-0.5,0.5-1,0.7-1.4h7.2c0.1,0,0.2-0.1,0.2-0.2v-0.9c0-0.1-0.1-0.2-0.2-0.2h-6.7
	c0.1-0.2,0.1-0.3,0.2-0.4c0.1-0.2,0-0.3-0.1-0.3c-0.4-0.1-1.2-0.2-1.4-0.3c-0.3-0.1-0.4,0.2-0.4,0.2l-0.1,0.4c0,0.1-0.1,0.3-0.2,0.4
	h-6c-0.1,0-0.2,0.1-0.2,0.2v0.9c0,0.1,0.1,0.2,0.2,0.2h5.5c-0.2,0.4-0.4,0.9-0.7,1.4h-3.4c-0.1,0-0.2,0.1-0.2,0.2v0.9
	c0,0.1,0.1,0.2,0.2,0.2h2.7c-0.3,0.5-0.6,0.9-1,1.4h-3.7c-0.1,0-0.2,0.1-0.2,0.2v0.9c0,0.1,0.1,0.2,0.2,0.2h2.7
	c-0.8,0.8-1.7,1.5-2.7,2c-0.3,0.1-0.1,0.3-0.1,0.3l0.2,0.5c0,0,0.1,0.2,0.3,0.1c0.6-0.2,1.2-0.5,1.8-0.9c1.3,0.3,2.9,1,3.3,1.2
	c0.1,0.1,0.2,0,0.2,0l0.5-1c0,0,0.1-0.1-0.1-0.2c-0.5-0.2-1.8-0.6-2.7-0.8c0.5-0.4,0.9-0.8,1.3-1.2h6.4c0.4,0.4,0.8,0.8,1.3,1.1
	c-0.8,0.4-2,0.6-2.7,0.7c-0.1,0-0.1,0.1-0.1,0.2c0.1,0.4,0.2,0.7,0.3,1.1c0,0.1,0.1,0.1,0.2,0.1c0.5-0.1,2.4-0.8,3.3-1.4
	c0.7,0.4,1.5,0.8,2.2,1.1c0.2,0.1,0.3-0.1,0.3-0.1l0.2-0.5C690.8,28.2,690.9,28,690.7,27.9z M710.7,32.6c-1.2-0.8-2-1.9-2.6-3
	c1.3-2.1,1.9-4.5,2.1-6.8c0,0,0.1-0.9-0.9-0.9h-5.2v-1.4c0-0.1,0.1-0.2,0.2-0.2h5.6c0.1,0,0.2-0.1,0.2-0.2v-0.9
	c0-0.1-0.1-0.2-0.2-0.2h-6.5c-0.4,0.1-0.7,0.3-0.7,0.8v5.7c0,1.2,0,2.4-0.1,3.4c-0.2,1.7-0.8,4.1-0.8,4.1c0,0.1,0,0.2,0.1,0.2
	l0.8,0.2c0.1,0,0.2,0,0.2-0.1c0,0,1-2.6,1.1-4.5c0.2-1.9,0.2-2.5,0.2-3.3v-2.4h4.3c-0.1,1.4-0.5,3.1-1.2,4.8
	c-0.5-1.4-0.9-2.8-1.1-4.1h-1.5c-0.1,0-0.2,0.1-0.2,0.2c0,0,0,0,0,0c0.4,1.9,0.9,3.8,1.9,5.5c-0.7,1.1-1.6,2.1-2.8,3
	c-0.1,0-0.1,0.2,0,0.2l0.6,0.6c0.1,0.1,0.2,0.1,0.2,0c1.2-0.8,2.1-1.7,2.8-2.6c0.7,1,1.6,1.8,2.7,2.6c0.1,0,0.2,0,0.2,0l0.6-0.6
	C710.8,32.8,710.7,32.6,710.7,32.6L710.7,32.6z M701.9,22.2v-0.9c-0.5-0.5-1.1-1.4-1.5-2.3c-0.1-0.3-0.2-0.6-0.6-0.5h-2.7
	c-0.3,0-0.4,0.1-0.5,0.3c0,0.1-0.1,0.1-0.1,0.2c-0.5,1.2-1.4,2.1-2.1,2.7v0.7c0,0.1,0.1,0.1,0.2,0.1c0,0,0,0,0.1,0c0,0,0.1,0,0.1,0
	c1.7-0.9,3-1.9,3.7-3.1c0.7,1.1,1.8,2.1,3.2,2.8c0,0,0,0,0.1,0c0,0,0,0,0.1,0C701.8,22.3,701.9,22.3,701.9,22.2L701.9,22.2z
	 M700.8,22.6h-1.7v-1c0-0.1-0.1-0.2-0.2-0.2h-1.2c-0.1,0-0.2,0.1-0.2,0.2v1H696c-0.4,0-0.8,0.2-0.8,0.8v9.9c0,0.1,0.1,0.2,0.2,0.2
	c1.1,0,2.9-0.4,4.4-1c0.1,0.2,0.2,0.5,0.3,0.8c0.1,0.2,0.2,0.2,0.3,0.1c0.2-0.1,0.6-0.3,0.9-0.4c0.1-0.1,0.2-0.1,0.1-0.3
	c-0.6-1.5-1.1-2.1-1.5-2.8c-0.1-0.1-0.1-0.1-0.2-0.1c-0.2,0.1-0.8,0.4-0.8,0.4c-0.1,0-0.1,0.1-0.1,0.2c0.1,0.3,0.3,0.7,0.5,1
	c-0.9,0.2-2,0.4-2.6,0.5v-3h4.1c0.4,0,0.8-0.2,0.8-0.8v-4.8C701.6,22.8,701.2,22.6,700.8,22.6L700.8,22.6z M700.1,27.8h-3.3v-1.5
	h3.3V27.8z M700.1,25.2h-3.3v-1.5h3.3V25.2z M729.3,19.6h-5.8v-0.9c0-0.1-0.1-0.2-0.2-0.2h-1.6c-0.1,0-0.2,0.1-0.2,0.2v0.9h-5.9
	c-0.4,0.1-0.7,0.3-0.7,0.8v5.5c0,1.2,0,2-0.1,3c-0.2,1.9-1.1,3.9-1.1,3.9c0,0.1,0,0.2,0.1,0.2l0.7,0.3c0.1,0,0.2,0,0.2-0.1
	c0,0,1.8-2.4,2-4.5c0.1-1.1,0.1-2.1,0.1-2.8v-4.7c0-0.1,0.1-0.2,0.2-0.2h4.6v5.7h-2.7c-0.5,0-0.9,0.4-0.9,0.9v5.1
	c0,0.5,0.4,0.9,0.9,0.9h8.8c0.5,0,0.9-0.4,0.9-0.9v-5.1c0-0.5-0.4-0.9-0.9-0.9h-4.1v-2.1h5.8c0.1,0,0.2-0.1,0.2-0.2v-1
	c0-0.1-0.1-0.2-0.2-0.2h-5.8V21h5.8c0.1,0,0.2-0.1,0.2-0.2v-1C729.5,19.7,729.4,19.6,729.3,19.6L729.3,19.6z M726.7,27.8v4.4h-6.8
	v-4.4H726.7z M787,27.9h-0.9v-1.2c0-0.5-0.4-0.9-0.9-0.9h-5v-1.1h5c0.5,0,0.9-0.4,0.9-0.9v-1.9c0-0.5-0.4-0.9-0.9-0.9h-5v-0.9h6.6
	c0.1,0,0.2-0.1,0.2-0.2v-0.7c0-0.1-0.1-0.2-0.2-0.2h-6.6v-0.6c0-0.1-0.1-0.2-0.2-0.2h-1.5c-0.1,0-0.2,0.1-0.2,0.2v0.6h-6.6
	c-0.1,0-0.2,0.1-0.2,0.2V20c0,0.1,0.1,0.2,0.2,0.2h6.6v0.9h-5c-0.5,0-0.9,0.4-0.9,0.9v0c0,0,0,0.1,0,0.1v1.7c0,0,0,0.1,0,0.1v0
	c0,0.5,0.4,0.9,0.9,0.9h5v1.1h-5.7c-0.1,0-0.2,0.1-0.2,0.2v0.7c0,0.1,0.1,0.2,0.2,0.2h5.7v1.1h-6.8c-0.1,0-0.2,0.1-0.2,0.2v0.7
	c0,0.1,0.1,0.2,0.2,0.2h6.8V30h-5.7c-0.1,0-0.2,0.1-0.2,0.2v0.7c0,0.1,0.1,0.2,0.2,0.2h5.7v0.6c0,0.4-0.1,0.7-0.8,0.7h-0.4
	c-0.1,0-0.1,0.1-0.1,0.1v0.8c0,0.1,0.1,0.2,0.3,0.2h0.5c1.7,0,2.4-0.2,2.4-1.7v-0.7h5c0.5,0,0.9-0.4,0.9-0.9V29h0.9
	c0.1,0,0.2-0.1,0.2-0.2v-0.7C787.2,28,787.1,27.9,787,27.9L787,27.9z M780.2,22.1h4.1v1.5h-4.1V22.1z M778.4,23.6h-4.1v-1.5h4.1
	V23.6z M784.3,30h-4.1v-1.1h4.1V30z M784.3,27.9h-4.1v-1.1h4.1V27.9z M736.7,24.5c0.4,0,0.8-0.4,0.8-0.9v-1.5c0-0.5-0.3-0.8-0.8-0.8
	h-2.4c-0.4,0-0.8,0.3-0.8,0.7c0,0.7,0,1.6,0,1.6c0,0.5,0.3,0.9,0.8,0.9H736.7z M734.8,22.2h1.4v1.4h-1.4V22.2z M741.1,21.3h-2.4
	c-0.4,0-0.8,0.3-0.8,0.7c0,0.7,0,1.6,0,1.6c0,0.5,0.3,0.9,0.8,0.9h2.5c0.4,0,0.8-0.4,0.8-0.9v-1.5C741.9,21.6,741.5,21.3,741.1,21.3
	z M740.5,23.6h-1.4v-1.4h1.4V23.6z M741.8,19.3h-1.7v-0.1c0-0.3-0.3-0.6-0.7-0.6h-0.6c-0.1,0-0.2,0.1-0.2,0.2v0.6h-1.9v-0.6
	c0-0.1-0.1-0.2-0.2-0.2h-0.6c-0.3,0-0.6,0.3-0.7,0.6v0.1h-1.7c-0.1,0-0.2,0.1-0.2,0.2v0.7c0,0.1,0.1,0.2,0.2,0.2h1.7v0.4
	c0,0.1,0.1,0.2,0.2,0.2h1.1c0.1,0,0.2-0.1,0.2-0.2v-0.4h1.9v0.4c0,0.1,0.1,0.2,0.2,0.2h1.1c0.1,0,0.2-0.1,0.2-0.2v-0.4h1.7
	c0.1,0,0.2-0.1,0.2-0.2v-0.7C742,19.3,741.9,19.3,741.8,19.3z M741.7,32.2h-2.4v-1.1h2.3c0.1,0,0.2-0.1,0.2-0.2v-0.7
	c0-0.1-0.1-0.2-0.2-0.2h-2.3v-1.1h2.3c0.1,0,0.2-0.1,0.2-0.2v-0.7c0-0.1-0.1-0.2-0.2-0.2h-2.3V27h2.3c0.1,0,0.2-0.1,0.2-0.2v-0.7
	c0-0.1-0.1-0.2-0.2-0.2h-2.1c0.1-0.2,0.4-0.8,0.4-0.8c0-0.1,0.1-0.2,0-0.2h-1.2c-0.1,0-0.1,0-0.2,0.1c0,0-0.1,0.1-0.1,0.2
	c-0.1,0.2-0.2,0.5-0.4,0.7h-2.2c0.1-0.2,0.3-0.7,0.4-0.9c0-0.1,0.1-0.2,0-0.2h-1.3c-0.1,0-0.2,0.1-0.2,0.2c-0.2,0.7-0.9,1.9-1.7,2.7
	c0,0,0,0.1,0,0.1l0.6,0.4c0,0,0.1,0,0.1,0c0.2-0.1,0.5-0.4,0.7-0.6v5c0,0.3,0.2,0.5,0.5,0.5h6.8c0.1,0,0.2-0.1,0.2-0.2v-0.7
	C741.8,32.3,741.8,32.2,741.7,32.2L741.7,32.2z M737.8,32.2H736c-0.1,0-0.2-0.1-0.2-0.2v-0.9h2V32.2z M737.8,30.1h-2v-1.1h2V30.1z
	 M737.8,28.1h-2v-0.9c0-0.1,0.1-0.2,0.2-0.2h1.9V28.1z M749.4,30.9l-1-0.2c0,0,0,0,0,0c-0.1,0-0.1,0.1-0.1,0.1c0,0.6,0,1-0.1,1.3
	c-0.1,0.3-0.1,0.4-0.3,0.4h-0.3c-0.3,0-0.4-0.1-0.4-0.5v-2.8h0.3c0.5,0,0.9-0.4,0.9-0.9v-8.5c0-0.5-0.4-0.9-0.9-0.9h-4
	c-0.5,0-0.9,0.4-0.9,0.9v8.5c0,0.5,0.4,0.9,0.9,0.9h0.3c-0.2,1.3-0.5,2.3-1.5,3.7c0,0.1,0,0.2,0,0.2l0.7,0.3c0.1,0,0.1,0,0.2-0.1
	c1.2-1.5,1.7-2.4,1.9-4.2h0.6V32c0,1.2,0.6,1.5,1.5,1.5c0.4,0,0.4,0,0.8,0c0.9,0,1.3-0.6,1.3-2.4C749.5,30.9,749.5,30.9,749.4,30.9
	L749.4,30.9z M746.8,28.1h-2.6v-1.9h2.6V28.1z M746.8,25h-2.6v-1.9h2.6V25z M746.8,22h-2.6V20h2.6V22z M756.1,23.5
	c0.1,0.1,0.2,0.1,0.3,0l0.8-0.5c0.1-0.1,0.1-0.2,0-0.3c-0.4-0.9-1-2.3-2.2-3.6c-0.2-0.2-0.3-0.2-0.4-0.1c-0.4,0.2-0.9,0.5-1.1,0.6
	c-0.2,0.1-0.2,0.2,0,0.4C755,21.9,755.5,22.7,756.1,23.5L756.1,23.5z M762.8,23.1l0.8,0.4c0.1,0,0.2,0,0.2,0
	c1.3-1.2,1.7-1.7,2.6-3.4c0.1-0.2,0.1-0.3-0.1-0.3l-1.1-0.7c-0.2-0.1-0.3,0-0.4,0.1c-0.6,1.3-1.1,2.3-2.1,3.6
	C762.6,23.1,762.8,23.2,762.8,23.1L762.8,23.1z M767.7,29.5l-1.5-0.4c-0.1,0-0.2,0-0.2,0.1c0,0.8,0,2.1-0.1,2.3
	c-0.2,0.3-0.4,0.5-0.8,0.5h-1.3c0,0-0.8,0-0.8-0.9v-5.2h4.4c0.1,0,0.2-0.1,0.2-0.2v-1c0-0.1-0.1-0.2-0.2-0.2h-6.6v-5.8
	c0-0.1-0.1-0.2-0.2-0.2h-1.5c-0.1,0-0.2,0.1-0.2,0.2v5.8h-6.4c-0.1,0-0.2,0.1-0.2,0.2v1c0,0.1,0.1,0.2,0.2,0.2h4.1
	c-0.5,2.7-0.7,4.1-3.6,6.5c-0.2,0.2-0.3,0.2-0.3,0.2c0,0.1,0,0.1,0,0.2l0.7,0.7c0,0,0.1,0.1,0.2,0c0.1-0.1,0.3-0.2,0.4-0.3
	c3.6-2.9,3.6-3.3,4.4-7.3h2.7v5.3c0,0-0.1,2.2,2,2.2h2.6c0,0,1.3-0.1,1.6-1.2c0.2-0.8,0.3-2.1,0.3-2.6
	C767.8,29.5,767.8,29.5,767.7,29.5L767.7,29.5z"/>
<path fill="#D01F37" d="M188.1,32.2c-0.1-0.1-0.2-0.2-0.3-0.4c-0.2-0.2-0.3-0.5-0.5-0.7c-0.3-0.5-0.6-1.1-0.9-1.7
	c-1.4-4.2,0.3-8.6,2.5-12.2c0.2-0.4,0.5-0.7,0.7-1.1c0.1-0.1,0.1-0.3,0-0.4c-0.2-0.4-0.8-0.7-1.2-0.9c-0.5-0.3-1-0.5-1.5-0.8
	c-0.7-0.3-1.3-0.6-2-0.8c-0.1,0-0.3-0.1-0.4-0.1c0,0,0,0,0,0H184v0c-0.5,0.1-0.8,1-1,1.4c-0.4,1-0.6,2.1-0.7,3.2c0,0.1,0,0.2,0,0.2
	c0,0.2-0.1,0.4-0.1,0.7c0,0.1,0,0.2,0,0.2c0,0.3-0.1,0.7-0.1,1h0V22h0C182.3,26.2,183.5,31.5,188.1,32.2
	C188.1,32.2,188.1,32.2,188.1,32.2L188.1,32.2z M186.4,26.2c0,0.1,0,0.3,0,0.4v0.2c0,2.7,1.5,4.9,4,5.7c0-0.2-0.1-0.4-0.2-0.6
	c-1.4-3.7,0.4-7.4,2.9-9.9c0.1-0.1,0.2-0.2,0.2-0.2c0.2-0.3,0.5-0.5,0.8-0.8c0.2-0.2,0.4-0.4,0.7-0.6c0.6-0.5,1.1-1,1.7-1.4
	c0.4-0.3,0.9-0.7,1.1-1.1c0.1-0.2,0-0.4-0.1-0.5c-0.5-0.6-1-1.2-1.6-1.8c-0.1-0.1-0.3-0.3-0.4-0.4c-0.4-0.3-0.8-0.7-1.3-1
	c-0.3-0.2-0.8-0.5-1.2-0.5c-3.5,2.5-6.1,8-6.5,12.3C186.4,25.9,186.4,26,186.4,26.2L186.4,26.2z M203.6,17.5
	c-0.2-0.3-0.5-0.5-0.8-0.7c-0.3-0.2-0.8-0.6-1.3-0.6c0,0-0.1,0-0.1,0c-0.1,0-0.2,0-0.2,0.1c-0.3,0.1-0.5,0.2-0.8,0.3
	c-0.3,0.2-0.6,0.3-0.8,0.5c-1.2,0.7-2.3,1.6-3.3,2.5c-0.1,0.1-0.3,0.2-0.4,0.4c-0.6,0.5-1.1,1-1.6,1.6c-0.1,0.1-0.2,0.2-0.4,0.4
	c-1.9,2.2-3.8,4.8-3.7,7.8c0,0.1,0,0.2,0,0.3c0.1,0.9,0.5,1.9,1.1,2.6c0.1,0,0.2,0,0.4,0c0.1,0,0.2,0,0.3,0c0.2,0,0.4,0,0.6,0
	c0.1,0,0.2,0,0.3,0c0.2,0,0.4-0.1,0.7-0.1c2.1-0.5,3.2-2.2,4.4-3.8c0.9-1.3,1.9-2.5,3.1-3.6c0.1-0.1,0.1-0.2,0.2-0.2
	c0.3-0.3,0.6-0.5,0.8-0.8c0.3-0.2,0.6-0.5,0.9-0.8c0.5-0.4,1-0.8,1.5-1.1c0.6-0.4,1.5-0.8,1.3-1.7C205.2,19.4,204.4,18.4,203.6,17.5
	L203.6,17.5z M202.6,28.6c-1.2,0.2-2.4,0.7-3.5,1.2c-0.2,0.1-0.4,0.2-0.6,0.3c-0.5,0.3-1,0.6-1.5,0.9c-1.5,1-3.3,2-5.2,2.2
	c-0.2,0-0.4,0-0.6,0c-0.1,0-0.2,0-0.3,0c-1.5,0-3-0.4-4.4-0.9c0,0,0,0,0,0c0.4,0.6,0.9,1.1,1.4,1.7c0.1,0.1,0.2,0.3,0.4,0.4
	c2.6,2.9,6.7,5.7,10.4,2.8c2.4-1.8,2.2-5.8,4.3-7.9c0.2-0.2,0.3-0.3,0.5-0.5c0.1-0.1,0.2-0.1,0.2-0.2c0,0,0,0,0,0
	C203.4,28.6,203,28.6,202.6,28.6L202.6,28.6z M200.9,31.1c-0.8,0.2-1.2-0.8-0.5-1.2c0.1,0,0.1,0,0.2-0.1
	C201.6,29.9,201.7,30.9,200.9,31.1L200.9,31.1z M200.8,35.7c0-0.1,0.1-0.3,0-0.4c-0.9,1.5-2.1,3-3.8,3.6c-0.1,0-0.2,0.1-0.4,0.1
	c-0.1,0-0.1,0-0.2,0c0,0,0,0,0,0c0.4,0.4,1.1,0.2,1.5,0C199.4,38.4,200.5,37.2,200.8,35.7L200.8,35.7z M201.1,36c0,0,0,0.1,0,0.2
	c-0.1,0.2-0.1,0.4-0.2,0.6c-0.4,1-0.9,1.8-1.8,2.4c-0.1,0.1-0.2,0.1-0.4,0.2c-0.1,0-0.1,0-0.1,0.1c0,0,0,0,0,0
	C200.2,39.8,201.6,37.4,201.1,36L201.1,36L201.1,36z"/>
<path d="M263.3,31.2c0.2-0.2,0.3-0.5,0.4-0.7c0.1-0.3-0.2-0.8-0.3-0.9c-0.3-0.2-0.7-0.3-1.1-0.3c-0.2,0-0.5,0-0.7-0.1
	c-1.6-0.2-3.3-0.7-4.4-1.9c0-0.1,0.3,0,0.4,0h4c0.3,0,0.9,0.1,1.2-0.1c0.8-0.4,0.8-1.5,0.2-1.9c-0.3-0.2-1-0.1-1.5-0.1
	c-1.7,0-3.4,0-5,0c0-0.1,0-0.6,0-0.7c1.6-0.1,3.3,0,5,0c0.4,0,1.2,0.1,1.4-0.1c0.3-0.2,0.7-0.6,0.6-1.2c-0.2-1-1.1-0.8-1.9-0.8
	c-1.7,0-3.4,0-5,0c0,0,0-0.1,0-0.2c0-0.1,0-0.5,0-0.6c1.6,0,3.2,0,4.8,0c0.1,0,0.2,0,0.4,0c0.6-0.1,0.9-0.8,0.7-1.4
	c-0.3-0.7-1-0.6-1.9-0.6c-1.3,0-2.6,0-3.9,0c0-0.1,0-0.6,0-0.7c1.6-0.1,3.2,0,4.7,0c0.6,0,1.1,0.1,1.4-0.2c0.7-0.4,0.5-1.5-0.1-1.8
	c-0.2-0.1-0.7-0.1-1-0.1c-0.8,0-1.5,0-2.3,0c0-0.1,0.2-0.5,0.2-0.6c0.1-0.3,0.3-0.7,0.1-1c-0.1-0.2-0.2-0.4-0.3-0.5
	c-0.1,0-0.1-0.1-0.2-0.1c-0.2-0.1-0.7-0.1-0.8,0c-0.2,0.1-0.3,0.4-0.5,0.6c-0.3,0.5-0.6,1.1-0.9,1.6c-1,0-2.1,0-3.1,0
	c-0.1-0.5-0.4-0.9-0.7-1.3c-0.1-0.1-0.2-0.3-0.4-0.4c-0.2-0.3-0.4-0.5-0.8-0.5c0,0-0.1,0-0.1,0c-0.6,0.1-1.2,0.8-0.8,1.5
	c0.1,0.3,0.4,0.5,0.5,0.8c-1.1,0.1-2.3-0.1-3.3,0c-0.7,0.2-1,1.2-0.4,1.7c0.3,0.3,0.9,0.3,1.5,0.3c1.6,0,3.3,0,5,0
	c0,0.1,0,0.6,0,0.7c-1.4,0.1-2.9,0-4.3,0c-0.9,0-1.7-0.1-1.8,1c0,0.2,0,0.4,0.1,0.5c0.3,0.5,0.7,0.5,1.6,0.5c1.5,0,2.9,0,4.4,0
	c0,0,0,0.7,0,0.8c-1.7,0.1-3.4,0-5.1,0c-1,0-1.8-0.1-1.9,0.8c-0.1,0.5,0.2,0.9,0.4,1.1c0.3,0.2,1,0.2,1.6,0.2c1.7,0,3.4,0,5,0
	c0,0.1,0,0.6,0,0.7c-1.6,0-3.3,0-5,0c-1.1,0-1.9-0.1-2,0.8c-0.1,0.7,0.4,1.2,0.9,1.3c1.8,0,3.7,0,5.5,0c0,0,0,0,0,0
	c-0.4,0.5-1,0.7-1.6,1c-0.1,0-0.2,0-0.2,0.1c-0.9,0.3-1.8,0.5-2.7,0.7c-0.3,0-0.7,0.1-1,0.1c-0.1,0-0.1,0-0.2,0
	c-0.2,0-0.4,0-0.6,0.1c-0.4,0.2-0.6,0.9-0.5,1.4c0.4,1,1.8,0.7,2.8,0.5c1.9-0.3,3.9-0.9,5.3-2.2c0.1-0.1,0.2-0.2,0.3-0.3
	c0-0.1,0.1-0.1,0.2-0.2c1.6,1.3,3.4,2.4,5.5,2.7C261.7,31.3,262.7,31.5,263.3,31.2L263.3,31.2z M282.4,27.3c0-0.1,0-0.2,0-0.3
	c0-0.2,0-0.4,0-0.6v-0.3c-0.2-1.5-0.8-2.8-1.8-3.8c-0.1-0.2-0.4-0.4-0.5-0.6c0-0.2,0-0.4,0-0.5c0.4-1.4,1-2.8,1.4-4.2
	c0-0.1,0-0.3,0.1-0.4c0.2-0.5-0.1-1-0.5-1.3c-0.6-0.3-1.8-0.2-2.6-0.2h-2.1c-0.6,0-1.2,0-1.4,0.4c-0.6,0.7-0.3,1.7-0.4,2.5
	c0,2.4,0,4.8,0,7.1c0,0,0,0,0,0c0,0,0,0,0,0c-0.2-0.1-0.3-0.3-0.5-0.4c-0.2-0.1-0.4-0.1-0.6-0.1c-0.7,0-1.4,0-2,0c0,0,0-0.4,0.1-0.5
	c0-0.1,0-0.3,0-0.4V23c0-0.1,0-0.5,0-0.5c0.6,0,1.3,0,1.9,0c0.6-0.1,0.9-0.9,0.7-1.4c-0.2-0.8-1.1-0.6-1.8-0.6c-0.3,0-0.5,0-0.8,0
	c-0.1-0.5,0-1.5,0-2.1c0.6-0.1,1.5,0,2.1,0c0.4-0.1,0.8-0.6,0.8-1c0-0.1,0-0.2,0-0.3c-0.2-0.6-0.7-0.7-1.3-0.7h-1.5c0,0,0,0,0,0
	c0-0.2,0-0.5,0-0.7c0-0.6-0.3-1-1-1c-0.1,0-0.1,0-0.2,0c-0.6,0.1-0.8,0.5-0.9,1.1c0,0.2,0,0.4,0,0.6c-0.6,0-1.2,0-1.8,0
	c-0.5,0-1.1,0-1.3,0.5c-0.3,0.7,0.1,1.4,0.9,1.5c0.7,0,1.4,0,2.2,0c0,0.1,0,0.7,0,0.8c0,0.4,0,0.9,0,1.3c-0.6,0-1.2,0-1.8,0
	c-0.6-0.1-1.2,0.2-1.3,0.8c-0.1,0.7,0.3,1.1,0.8,1.2c0.7,0.1,1.5,0,2.2,0c0.1,0.6,0,1.5,0,2.2c-0.9,0.1-1.9-0.1-2.8,0.1
	c-0.4,0.2-0.6,0.5-0.6,0.9c0,0.7,0.4,1,0.9,1.1c0.6,0,1.2,0,1.8,0c-0.3,0.9-1,1.7-1.7,2.2c-0.2,0.1-0.3,0.2-0.5,0.3
	c-0.9,0.3-1,1.6-0.1,2c0.7,0.3,1.3-0.2,1.8-0.5c1.4-1,2.4-2.5,2.8-4.1c0.7,0,1.4,0,2.1,0c0.2,0,0.5,0,0.7,0c0.3-0.1,0.5-0.3,0.7-0.6
	h0c0,1.2,0,2.3,0,3.5c0,0.5-0.1,1,0.1,1.3c0.2,0.6,1.2,0.9,1.8,0.3c0.2-0.2,0.3-0.5,0.3-0.8c0-0.3,0-0.6,0-0.9
	c0.1,0,0.2,0.1,0.2,0.1c0.1,0,0.2,0.1,0.2,0.1c0.1,0,0.1,0,0.2,0c0.2,0.1,0.5,0.1,0.8,0.1c0.1,0,0.2,0,0.3,0
	C280.6,30.1,282.2,29.3,282.4,27.3L282.4,27.3z M278.6,27.7c-0.1,0-0.2,0-0.2,0c-0.3-0.1-0.8-0.1-1.2,0c0,0-0.1,0.1-0.1,0
	c0-3.3,0-6.7,0-10c0-0.2,0-0.3,0.1-0.4c0-0.1,0.1-0.1,0.1-0.1c0,0,0.1,0,0.1,0c0.5,0,1,0,1.5,0c0.2,0,0.5,0,0.5,0.1
	c0.1,0.1,0,0.3,0,0.4c-0.3,0.9-0.6,1.7-0.9,2.6c-0.1,0.2-0.1,0.3-0.2,0.5c-0.3,0.6-0.5,1.4,0.1,1.9c0.2,0.2,0.3,0.4,0.5,0.6
	c0.6,0.7,1.1,1.4,1.4,2.3C280.8,27.2,280.2,28.1,278.6,27.7z M306.6,16.9c1.6,0,3.3,0,4.9,0c0,0.1,0,0.2,0,0.3c0,0,0,0,0,0
	c-1.2,0-2.5,0-3.7,0c-0.4,0-1-0.1-1.2,0.1c-0.1,0.1-0.2,0.3-0.2,0.5c0,0.2,0,0.3,0,0.4c0.1,0.4,0.5,0.4,1.1,0.4h10.1
	c0.4,0,0.7,0,0.9-0.2c0,0,0.1-0.3,0.2-0.5c0-0.1-0.1-0.4-0.1-0.5c0-0.1-0.3-0.1-0.4-0.1c-1.5-0.1-3.2,0-4.7,0c0-0.1,0-0.3,0-0.3
	c1.6,0,3.3,0,4.9,0c0.4,0,0.9,0,1.3,0c0.3-0.1,0.5-0.4,0.6-0.7c0.1-0.9-0.8-0.8-1.7-0.8c-1.7,0-3.4,0-5.1,0c0,0,0,0-0.1,0
	c0-0.1,0-0.1,0-0.2c-0.1-0.3-0.3-0.5-0.5-0.6c-0.1,0-0.2,0-0.3,0l-0.2,0c-0.4,0.1-0.6,0.2-0.7,0.6c0,0.1,0,0.2,0,0.2h-5.4
	c-0.2,0-0.5,0-0.7,0c-0.2,0.1-0.4,0.3-0.4,0.6c0,0.2,0,0.3,0.1,0.4C305.3,17,305.9,16.8,306.6,16.9L306.6,16.9z M243.8,15.7h-6.4
	c0,0,0,0,0,0c0-0.7-0.3-1.2-1.1-1.2c-0.1,0-0.2,0-0.3,0c-0.3,0.1-0.5,0.3-0.6,0.6c0,0.2,0,0.4,0,0.5c-1.8,0.1-3.6,0-5.3,0
	c-0.7,0-1.5-0.1-1.8,0.3c-0.5,0.6-0.2,1.6,0.4,1.7c1.1,0.1,2.4,0,3.5,0c0.1,0.3,0.2,0.6,0.4,0.8c0,0.1,0.2,0.3,0.2,0.4
	c-0.6,0-1.3,0-1.9,0c-0.3,0-0.6,0-0.8,0c-0.3,0.1-0.6,0.4-0.8,0.6c-0.2,0.4-0.2,0.8-0.2,1.3v9.1c0,0.8,0,1.3,0.6,1.5
	c0.1,0,0.2,0.1,0.3,0.1c0.3,0.1,0.6-0.1,0.8-0.2c0.4-0.3,0.4-0.9,0.4-1.6c0-1.7,0-3.5,0-5.3c0,0,0,0,0,0c0.1,0.1,0.4,0.1,0.6,0.1
	c0.1,0,0.3,0,0.4,0c0,0,0,0,0,0c0,0.1-0.1,0.2-0.1,0.2c0,0.1-0.1,0.1-0.1,0.2c-0.2,0.8-0.1,1.8-0.1,2.6c0,0.5,0,1.3,0.4,1.7
	c0.5,0.4,1.3,0.3,2.2,0.3h5.3c0,0,0.1,0,0.1,0c0.1,0-0.1,0.1-0.1,0.2c-0.1,0.1-0.3,0.3-0.3,0.5c-0.1,0.5,0.1,1.1,0.6,1.3
	c0.2,0.1,0.5,0.1,0.8,0.2h0.3c0.2,0,0.5,0,0.7,0c0.1,0,0.2,0,0.3,0c1.9-0.2,1.8-1.7,1.7-3.6v-3.5c0-1,0-2,0-3c0-1.1,0.1-2.2-1.1-2.5
	c-0.8-0.1-1.7,0-2.5,0c0-0.1,0.1-0.3,0.2-0.4c0-0.1,0-0.2,0.1-0.3c0-0.1,0.1-0.4,0.2-0.5c0-0.1,0.2,0,0.3,0c0.3,0,0.6,0,0.9,0
	c0.8,0,1.6,0.1,2.4,0C245.1,17.4,244.9,15.8,243.8,15.7L243.8,15.7z M234.3,17.7c1.3,0,2.7,0,4,0c0,0,0,0,0,0c0,0.1,0,0.2-0.1,0.3
	c-0.1,0.3-0.2,0.6-0.4,0.9c-1,0-2.1,0-3.2,0c-0.1,0-0.1-0.3-0.1-0.3C234.6,18.3,234.3,18,234.3,17.7
	C234.3,17.7,234.3,17.7,234.3,17.7L234.3,17.7z M232,22.4c-0.3,0.1-0.7,0.2-1,0.4h0c0-0.1,0-0.4,0-0.6c0-0.3-0.1-0.8,0.1-1
	c0.1-0.1,0.2-0.1,0.4-0.2c0.7,0,1.4,0,2.1,0c0,0,0,0,0,0C233.4,21.8,232.6,22.1,232,22.4L232,22.4z M237.8,27.7H235
	c-0.3,0-0.9,0.1-1.2-0.1c0,0-0.1-0.1-0.1-0.1c-0.1-0.2-0.1-1.1,0-1.2c0.1-0.1,0.2,0,0.3-0.1h3.3c0.3,0,1.1-0.1,1.2,0.1
	c0.1,0.1,0.2,0.2,0.2,0.3C238.9,27.5,238.8,27.7,237.8,27.7L237.8,27.7z M241.5,29.4c-0.2,0.3-0.7,0.1-1,0c-0.1,0-0.3,0-0.4,0
	c0,0,0.2-0.1,0.2-0.1c0.2-0.1,0.3-0.3,0.4-0.6c0.2-0.8,0-1.8,0.1-2.7c0-0.3,0.1-0.7-0.1-1c-0.2-0.4-0.5-0.7-0.9-0.8
	c-0.5-0.1-1.1,0-1.7,0c-1.8,0-3.6,0-5.3,0c0.8-0.5,1.7-1,2.3-1.8c0.2-0.3,0.3-0.7,0.4-1.1c0-0.1,0-0.3,0.1-0.4c0,0,0,0,0,0
	c0.5,0,0.9,0,1.4,0c0.1,1-0.3,2.6,0.6,3c0.3,0.2,0.7,0.1,1.1,0.1c0.9,0,2-0.1,2.8,0c0,1.3,0,2.6,0,3.8
	C241.6,28.5,241.7,29.2,241.5,29.4L241.5,29.4z M240.6,21c0.2,0,0.5,0,0.7,0.1c0.2,0.1,0.3,0.3,0.3,0.7c0,0.1,0,0.4,0,0.5
	c-0.6,0-1.2,0-1.8,0c-0.3,0-0.5,0-0.7-0.1c-0.1-0.2,0-0.8-0.1-1.1c0,0,0,0,0,0H240.6L240.6,21z M297.7,29c0.3,0.4,0.7,0.7,1.1,1.1
	c0.5,0.4,0.9,0.9,1.6,1.2c0.9,0.3,1.6-0.3,1.5-1.2c0-0.1,0-0.2,0-0.2c-0.1-0.4-0.5-0.6-0.8-0.8c-0.5-0.4-1-0.8-1.5-1.2
	c-0.1-0.1-0.2-0.2-0.2-0.2c-1.8-1.7-3.1-3.8-3.9-6.2c-0.1-0.4-0.2-0.7-0.3-1.1c0-0.1,0-0.2-0.1-0.3c-0.1-0.5-0.2-1.1-0.3-1.7
	c0-0.3-0.1-0.6-0.1-0.9c0-0.2,0-0.5,0.1-0.6c0-1.1,0.1-1.9-1.2-2c-0.1,0-0.1,0-0.2,0c-1.1,0.3-0.7,1.6-0.8,2.5c0,0.1,0,0.2,0,0.3
	c-0.1,0.3,0,0.7-0.1,1c0,0.3-0.1,0.5-0.1,0.8c-0.5,3.4-2.2,6.6-4.8,8.7c-0.1,0.1-0.2,0.2-0.3,0.3c0,0-0.1,0-0.1,0
	c-0.3,0.2-0.6,0.5-0.9,0.7c-0.1,0.1-0.3,0.1-0.4,0.2c-1.1,0.6-0.5,2.5,0.9,2c0.7-0.2,1.2-0.6,1.8-1c1.8-1.4,3.2-3.3,4.2-5.4
	c0-0.1,0.1-0.2,0.1-0.2c0.1-0.3,0.3-0.7,0.4-1c0.1-0.3,0.2-0.6,0.4-0.9c0.3,0.8,0.7,1.7,1.2,2.5c0,0.1,0.1,0.2,0.1,0.2
	c0.7,1.1,1.5,2.2,2.4,3.2C297.4,28.7,297.5,28.8,297.7,29L297.7,29z M210.2,17.7c1.1,0.2,2.3,0,3.4,0.1c2.6,0,5.1,0,7.7,0
	c0.8,0,1.8,0.1,2.6,0c0.4-0.2,0.6-0.5,0.8-1c0-0.3-0.1-0.7-0.3-0.9c-0.2-0.1-0.4-0.2-0.7-0.2c-4.3,0-8.6,0-13,0c0,0-0.1,0-0.1,0
	c-0.1,0-0.2,0-0.2,0C209.5,15.9,209.4,17.4,210.2,17.7z M321,19.6c-0.2-0.7-0.8-0.7-1.5-0.7h-13.7c-0.4,0-0.8,0-1,0.1
	c-0.3,0.2-0.4,0.7-0.2,1c0.2,0.5,0.7,0.5,1.4,0.5h11.9c0.2,0,0.7,0,0.8,0.1c0,0.1-0.2,0.2-0.3,0.2c-0.2,0.1-0.3,0.2-0.3,0.4
	c0,0.1,0,0.1,0,0.2c-0.1,0.7,0.7,1.1,1.3,0.7c0.4-0.3,0.8-0.7,1.1-1.2c0.2-0.3,0.5-0.6,0.6-1.1h0L321,19.6L321,19.6L321,19.6z
	 M306.6,22.8c-0.4,0-1.1-0.1-1.4,0.1c-0.2,0.2-0.3,0.9,0,1.1c0.2,0.2,0.6,0.1,1,0.1h12.6c0.5,0,0.8,0,1.1-0.2
	c0.1-0.1,0.1-0.4,0.2-0.5c0-0.1-0.1-0.5-0.1-0.5c0-0.1-0.4-0.1-0.5-0.2c-2,0-4,0-6,0c0-0.1,0-0.3,0-0.4c1,0,1.9,0,2.9,0
	c0.3,0,0.7,0,1-0.1c0.3-0.2,0.4-0.7,0.2-1.1c-0.1-0.2-0.2-0.1-0.4-0.2c-3.3-0.1-6.6,0-9.9,0c-0.1,0-0.1,0-0.2,0
	c-0.2,0-0.3,0.2-0.4,0.4c-0.1,0.4-0.1,0.8,0.3,0.9c0.3,0.1,0.8,0.1,1.2,0.1c1.1,0,2.2,0,3.4,0c0,0,0,0.3,0,0.4
	C309.9,22.8,308.2,22.7,306.6,22.8L306.6,22.8z M223,21.9c-3.2,0-6.5,0-9.7,0c-0.5,0-1,0-1.5,0c-0.6-0.1-1.2,0-1.4,0.7
	c-0.2,0.4-0.1,1.1,0.3,1.3c0.7,0.3,1.7,0.1,2.5,0.1h7.1c0.7,0,1.4,0,2,0c0.5,0,1.1,0.1,1.4-0.3C224.2,22.9,224,21.9,223,21.9
	L223,21.9z M320.6,24.7c-0.2-0.1-0.7-0.1-1.1-0.1H305c0,0-0.1,0-0.2,0c-0.7,0.1-0.9,1.1-0.3,1.5c0.2,0.1,0.4,0.1,0.7,0.1
	c3.8,0,7.5,0,11.3,0c0,0,0,0,0,0c0,0.1,0,0.4,0,0.4c-1.3,0.1-2.6,0-3.9,0c-0.7,0.1-0.9,0.8-0.5,1.4c0.2,0.3,0.7,0.2,1,0.2
	c0,0.1-0.1,0.3,0,0.5c0,0.1,0.1,0.2,0.1,0.3c0.3,0.4,0.5,0.8,0.8,1.1c0.1,0.1,0.3,0,0.4,0.1c0,0,0,0,0,0c0,0.1,0,0.3,0,0.4
	c0,0.6,0.4,0.7,0.9,0.9c1.4,0.4,3,0,3.1-1.7c0-0.5,0-1,0-1.6c0.3,0,0.7,0,1.1,0c0.6-0.1,0.8-0.8,0.5-1.3c-0.2-0.4-1-0.2-1.5-0.3
	c0,0,0-0.4,0-0.5c0.8-0.1,2.2,0.3,2.4-0.6C321,25.2,320.8,24.8,320.6,24.7L320.6,24.7z M316.4,29.6c-0.3,0-0.7,0-1.1,0
	c0,0,0-0.3,0-0.4c-0.1-0.3-0.2-0.5-0.3-0.7c-0.1-0.1-0.1-0.2-0.2-0.2c0,0,0,0,0,0c0.6,0,1.2,0,1.8,0c0,0,0,0,0,0
	C316.6,28.6,316.7,29.4,316.4,29.6L316.4,29.6z M305.6,30.2c0.2,0.8,0.8,0.8,1.7,0.7h2.4c0.8,0,1.3,0.1,1.7-0.4
	c0.4-0.6,0.2-1.7,0.2-2.5c0.2-1.2-0.8-1.4-1.9-1.4h-3.3c-0.4,0-0.7,0.3-0.8,0.6c-0.1,0.3-0.1,0.7-0.1,1
	C305.5,28.9,305.5,29.6,305.6,30.2L305.6,30.2z M307.3,28.3c0.1-0.1,0.2-0.1,0.3-0.1h1.5c0.3,0,0.5,0,0.7,0.1
	c0.1,0.2,0.1,0.7,0.1,0.9c-0.1,0.2-0.6,0.1-0.9,0.1c-0.5,0-1.1,0.1-1.6,0c0,0-0.1-0.1-0.1-0.1C307.2,29,307.3,28.4,307.3,28.3
	L307.3,28.3z M224.9,30.4c0.5-0.2,0.8-1.1,0.5-1.6c-0.2-0.5-0.8-0.5-1.5-0.5h-14.1c-0.1,0-0.2,0-0.3,0c-0.9,0.2-1,1.7-0.1,2
	c0.3,0.1,0.8,0.1,1.2,0.1h13.3C224.3,30.5,224.7,30.5,224.9,30.4L224.9,30.4z M267.8,34c-0.1,0-0.2,0-0.3,0
	c-0.7,0.1-1.2,0.6-1.4,1.3c0,0.2,0,0.3,0,0.5c0,0.1,0,0.2,0,0.2c-0.1,0.1-0.5,0-0.6,0c-0.1,0,0,0.3,0,0.3c0.1,0.1,0.5,0,0.6,0
	c0.1,0.6,0,1.3,0,2c0,0.2,0,0.4,0,0.5c-0.1,0.2-0.5,0-0.6,0.1c0,0,0,0,0,0c0,0.1,0,0.2,0,0.3c0.8,0.1,1.8,0,2.7,0c0,0,0,0,0,0
	c0,0,0-0.2,0-0.3c0,0,0,0,0,0c-0.2,0-0.7,0.1-0.8,0c-0.1-0.1-0.1-0.4-0.1-0.6c0-0.6,0-1.3,0-1.9c0.2-0.1,0.7,0,0.9,0
	c0-0.1,0-0.3,0-0.3c-0.2-0.1-0.7,0-0.9,0c0,0,0,0,0,0c0-0.5-0.1-1.3,0.3-1.6c0.1-0.1,0.4-0.2,0.7-0.1c0,0,0.1,0,0.1,0.1
	c0,0.1-0.1,0.1-0.2,0.2c-0.1,0.1-0.2,0.2-0.2,0.4c0.2,0.5,0.9,0.4,1.1,0.1C269.2,34.5,268.6,34,267.8,34L267.8,34z M217,34.5
	c0.1,0,0.1,0,0.2,0c0,0,0-0.3,0-0.3c-0.1-0.1-0.5,0-0.6,0c-0.6,0-1.2,0-1.8,0c-0.5,1.1-0.9,2.3-1.4,3.5c0,0,0,0,0,0
	c-0.4-1.1-0.9-2.3-1.3-3.5c-0.1-0.1-0.5,0-0.7,0h-1.7c0,0,0,0,0,0c0,0.1,0,0.2,0,0.3c0.2,0.1,0.7-0.1,0.8,0.1c0.1,0.1,0,0.7,0,1v2
	c0,0.3,0,0.8-0.1,1c-0.1,0.2-0.3,0.3-0.5,0.4c-0.1,0-0.2,0-0.3,0.1c0,0.1,0,0.2,0,0.3c0.5,0,1,0,1.5,0c0.2,0,0.6,0,0.7,0
	c0-0.1,0-0.2,0-0.3c-0.1,0-0.2,0-0.3-0.1c-0.2-0.1-0.4-0.2-0.5-0.4c-0.1-0.2-0.1-0.8-0.1-1.2v-2.9c0,0,0,0,0,0
	c0.5,1.2,1,2.6,1.5,3.9c0,0.1,0,0.1,0.1,0.2c0.1,0.2,0.2,0.6,0.3,0.7c0.1,0,0.2,0,0.3,0c0.5-1.2,0.9-2.4,1.4-3.6
	c0.2-0.4,0.3-0.7,0.4-1.1c0-0.1,0.1-0.1,0.1-0.1c0,1.1,0,2.2,0,3.3c0,0.3,0,0.7,0,1c-0.1,0.2-0.6,0.1-0.8,0.1c0,0,0,0.2,0,0.3
	c0.1,0.1,0.6,0,0.7,0c0.7,0,1.6,0,2.3,0v-0.3c0,0,0,0,0,0c-0.3-0.1-0.7,0.1-0.8-0.1c-0.1-0.3,0-0.7,0-1c0-1.1-0.1-2.2,0-3.3
	C216.4,34.5,216.7,34.5,217,34.5L217,34.5z M260.9,37.4c-0.1,0-0.1,0.1-0.1,0.2c-0.2,0.8-0.9,1.6-1.9,1.4c-0.3,0-0.8,0.1-0.9-0.1
	c-0.1-0.1,0-0.7,0-0.9v-2.4c0-0.2,0-0.9,0-1c0.1-0.2,0.6-0.1,0.8-0.1c0,0,0-0.2,0-0.3c-1-0.1-2,0-3,0c-0.1,0,0,0.2,0,0.3
	c0,0,0,0,0,0c0.3,0,0.6-0.1,0.8,0.1c0.1,0.1,0.1,0.8,0.1,1V38c0,0.2,0.1,0.8-0.1,0.9c-0.1,0.2-0.6,0-0.8,0.1c0,0.1,0,0.2,0,0.3
	c1.7,0,3.5,0,5.2,0c0.1-0.1,0-0.4,0-0.5c0-0.5,0.1-1,0.1-1.5C261.2,37.4,261,37.4,260.9,37.4L260.9,37.4z M279,34.5c0,0,0-0.2,0-0.3
	c-0.9-0.1-2,0-3,0h0c0,0.1,0,0.2,0,0.3c0.2,0.1,0.7-0.1,0.9,0.1c0.1,0.1,0,0.8,0,1c0,0.8,0,1.5,0,2.3c0,0.3,0,0.6,0,0.9
	c-0.1,0.3-0.6,0.1-0.9,0.2c0,0,0,0.2,0,0.3c0.9,0.1,2.1,0,3.1,0c0-0.1,0-0.3,0-0.3c-0.3-0.1-0.7,0.1-0.8-0.1c-0.1-0.1,0-0.8,0-1
	v-2.4c0-0.2,0-0.8,0-0.9C278.3,34.4,278.7,34.6,279,34.5L279,34.5z M242.8,35.3c0.7-0.2,0.6-1.2-0.2-1.1c-0.1,0-0.1,0-0.2,0
	C241.6,34.5,242,35.5,242.8,35.3z M263,34.2c-0.8,0.3-0.4,1.2,0.4,1.1c0.7-0.2,0.7-1.1-0.2-1.1C263.1,34.2,263,34.2,263,34.2z
	 M221.3,38.7c-0.2,0.3-0.7,0.5-1.1,0.4c-0.1,0-0.2,0-0.2,0c-0.4-0.1-0.6-0.3-0.7-0.7c0-0.1-0.1-0.5-0.1-0.6c0.9,0,1.8,0,2.6,0
	c0.1-1.1-0.7-1.9-1.9-1.8c-0.1,0-0.1,0-0.2,0c-0.1,0-0.2,0-0.4,0.1c-1.7,0.4-1.9,2.5-0.6,3.2c0.8,0.4,2.3,0.4,2.9-0.5
	c0,0,0.1-0.2,0.1-0.2c0,0-0.2-0.1-0.3-0.2C221.5,38.4,221.3,38.6,221.3,38.7L221.3,38.7z M219.6,36.3c0.1,0,0.2,0,0.3-0.1
	c0.7,0,1,0.6,0.8,1.1c-0.2,0.2-1.1,0.1-1.5,0.1c0,0,0,0,0,0C219.2,37,219.3,36.5,219.6,36.3L219.6,36.3z M229.6,39.1
	c-0.6,0.1-1.1-0.1-1.3-0.5c-0.2-0.6-0.2-1.3,0.1-1.9c0.2-0.3,0.6-0.6,1.2-0.4c0.1,0,0.3,0.1,0.3,0.1c0,0.1-0.1,0.2-0.1,0.2
	c-0.1,0.1-0.2,0.3-0.1,0.4c0.1,0.4,0.7,0.5,1,0.2c0.2-0.2,0.2-0.6,0.1-0.8c-0.3-0.4-0.8-0.5-1.5-0.5c-0.1,0-0.3,0-0.4,0
	c-0.3,0.1-0.5,0.1-0.7,0.2c-0.9,0.3-1.6,1.7-0.8,2.7c0.7,1,3.1,0.9,3.7-0.5c-0.1-0.1-0.2-0.1-0.3-0.1
	C230.4,38.6,230.1,39,229.6,39.1L229.6,39.1z M248,38.6c-0.1,0.2-0.4,0.4-0.6,0.4c-1,0.3-1.6-0.5-1.5-1.3c0.9,0,1.8,0,2.6,0
	c0.1-1.1-0.7-1.9-1.9-1.8c-0.1,0-0.1,0-0.2,0c-0.1,0-0.2,0-0.4,0.1c-1.5,0.4-2,2.3-0.6,3.2c0.9,0.5,2.4,0.4,2.9-0.5
	c0,0,0.1-0.2,0.1-0.2c0,0-0.2-0.1-0.3-0.2C248.2,38.4,248.1,38.5,248,38.6L248,38.6z M245.9,37.1c0.1-0.5,0.3-0.8,0.7-0.8
	c0.7,0,1,0.6,0.8,1.1c-0.1,0.1-0.3,0.1-0.4,0.1h-1.1C245.8,37.4,245.9,37.2,245.9,37.1L245.9,37.1z M250.5,37.1
	c-0.3-0.1-0.5-0.2-0.3-0.6c0.3-0.5,1.5-0.3,1.8,0.2c0,0.1,0.2,0.3,0.2,0.3c0.1,0,0.1,0,0.2,0c0.1,0,0.1,0,0.2,0c0-0.1,0-0.2,0-0.3
	c0-0.2,0-0.3,0-0.5c0-0.1,0-0.2,0-0.2c-0.3,0-0.3,0.1-0.5,0.3c-0.1,0-0.3-0.1-0.4-0.2c-0.2-0.1-0.5-0.1-0.8-0.1c-0.1,0-0.2,0-0.3,0
	c-0.7,0.1-1.3,0.7-1,1.5c0.4,0.7,1.3,0.7,2,0.8c0.3,0.1,0.5,0.1,0.6,0.4c0.1,0.4-0.6,0.6-1,0.5c-0.5-0.1-0.8-0.2-1.1-0.5
	c0-0.1-0.1-0.1-0.1-0.2c0-0.1-0.1-0.2-0.1-0.2c-0.1,0-0.2,0-0.3,0c0,0.1,0,0.2,0,0.3c0,0.2,0,0.4,0,0.6c0,0.1,0,0.2,0,0.3
	c0,0,0,0,0,0c0.4,0.1,0.4-0.1,0.6-0.3c0.1,0,0.2,0.1,0.3,0.1c0.2,0.1,0.3,0.1,0.5,0.1c0.1,0,0.3,0,0.4,0c0.9,0,1.7-0.5,1.5-1.4
	C252.5,37.3,251.4,37.3,250.5,37.1L250.5,37.1z M272.6,38.3c-0.3,0.4-0.8,0.8-1.3,0.8H271c-0.6-0.1-0.9-0.7-0.8-1.3
	c0.1-0.1,0.4,0,0.6,0c0.7,0,1.4,0,2,0c0.1,0,0-0.2,0-0.2c-0.1-1-0.8-1.6-1.9-1.6c-0.1,0-0.2,0-0.2,0c-1.1,0.1-2.1,1.2-1.6,2.4
	c0.5,1.3,3,1.6,3.8,0.1c0,0,0,0,0,0C272.8,38.5,272.6,38.3,272.6,38.3L272.6,38.3z M270.2,37c0.1-0.4,0.3-0.7,0.7-0.8
	c0.7,0,1,0.6,0.8,1.1c-0.1,0.2-0.8,0.1-1.1,0.1c-0.1,0-0.3,0-0.4,0C270.1,37.4,270.2,37.1,270.2,37z M287.3,37.2
	c-0.2-0.1-0.5-0.1-0.7-0.2c-0.2-0.1-0.3-0.4-0.1-0.6c0.4-0.3,1.3-0.2,1.7,0.2c0.1,0.1,0.1,0.2,0.2,0.3c0,0,0.1,0.1,0.1,0.1
	c0.1,0,0.2,0,0.3,0c0-0.1,0-0.2,0-0.3c0-0.3,0-0.5-0.1-0.8c0,0-0.1,0-0.1,0c-0.2,0-0.2,0.2-0.4,0.3c-0.1,0-0.3-0.1-0.3-0.2
	c-0.2-0.1-0.5-0.1-0.8-0.1c0,0-0.1,0-0.1,0c-0.1,0-0.2,0-0.3,0.1c-0.6,0.2-1,0.7-0.8,1.4c0.4,0.8,1.4,0.7,2.2,1
	c0.2,0.1,0.4,0.1,0.4,0.4c-0.1,0.4-0.8,0.5-1.3,0.4c-0.5-0.1-0.9-0.5-1.1-0.9c0,0-0.3,0-0.3,0c0,0,0,0.2,0,0.3c0,0.3,0,0.6,0.1,0.9
	c0,0,0.1,0,0.2,0c0.1,0,0.1,0,0.2,0c0.1-0.1,0.2-0.2,0.3-0.3c0.1,0,0.1,0.1,0.2,0.1c0.2,0.1,0.4,0.1,0.6,0.2c0.3,0.1,0.7,0,1,0
	c0.7-0.1,1.3-1,0.8-1.6C288.6,37.4,288,37.3,287.3,37.2L287.3,37.2z M304.4,39c-0.2,0-0.3,0.2-0.5,0c-0.2-0.1-0.1-0.4-0.1-0.6v-1.1
	c0-0.2,0-0.3,0-0.5c-0.2-0.7-0.9-0.9-1.8-0.9c-0.1,0-0.1,0-0.2,0c-0.1,0-0.3,0-0.4,0.1c-0.6,0.1-1.5,0.6-0.9,1.2
	c0.3,0.3,1.1,0.2,1-0.4c0-0.1-0.1-0.2-0.1-0.3c0-0.2,0.3-0.2,0.4-0.2c0.4-0.1,0.8,0.1,0.9,0.3c0.1,0.2,0.1,0.5,0,0.7
	c-0.7,0.2-1.8,0.2-2.4,0.7c-0.1,0.1-0.3,0.4-0.3,0.7c0.1,0.4,0.3,0.6,0.8,0.7c0.6,0.1,1.3,0,1.8-0.4c0.1,0,0.1-0.1,0.2-0.1h0
	c0.2,0.3,0.3,0.5,0.7,0.6c0.1,0,0.1,0,0.2,0c0.3,0,0.7-0.1,0.9-0.2C304.6,39.2,304.5,39,304.4,39L304.4,39z M302.2,38.9
	c-0.2,0.1-0.6,0.1-0.8-0.1c-0.1-0.1-0.1-0.1-0.1-0.2c-0.2-0.7,0.5-0.8,0.9-1c0.2,0,0.3,0,0.5-0.1c0,0,0,0,0,0c0,0,0,0,0,0
	C302.8,38.2,302.7,38.8,302.2,38.9z M313.2,39.1c-1.1-0.1-1.1-1.7-0.7-2.4c0.2-0.3,0.6-0.6,1.2-0.5c0.1,0,0.2,0,0.3,0.1
	c0.1,0.1,0,0.2,0,0.2c-0.1,0.1-0.2,0.3-0.2,0.5c0.1,0.4,0.7,0.4,1,0.2c0.2-0.2,0.2-0.6,0.1-0.8c-0.2-0.4-0.8-0.5-1.5-0.5
	c-0.1,0-0.3,0-0.4,0c-2.3,0.2-2.6,3.2-0.3,3.5c0.1,0,0.2,0,0.3,0c0.8,0.1,1.7-0.3,2-1c0,0,0.1-0.2,0.1-0.2c0,0-0.2-0.1-0.3-0.1
	C314.5,38.8,313.9,39.2,313.2,39.1L313.2,39.1z M319.5,38.3c-0.2,0.3-0.5,0.6-0.8,0.7c-1,0.3-1.6-0.4-1.6-1.3c0.8-0.1,1.8,0,2.6,0
	c0,0,0,0,0,0c0-0.1,0-0.2,0-0.3c-0.2-0.9-0.8-1.5-1.9-1.5c-0.1,0-0.1,0-0.2,0c-0.1,0-0.2,0-0.4,0.1c-1.5,0.4-2,2.3-0.6,3.2
	c0.8,0.5,2.5,0.4,3-0.6c0,0,0,0,0.1-0.1C319.8,38.4,319.5,38.3,319.5,38.3L319.5,38.3z M317.5,36.3c0.1-0.1,0.2,0,0.3-0.1
	c0.7-0.1,1,0.6,0.8,1.1c-0.1,0.2-0.9,0.1-1.2,0.1c-0.1,0-0.3,0-0.4,0C317.1,37,317.2,36.5,317.5,36.3L317.5,36.3z M284.3,38.9
	c-0.2-1.1,0.5-3-1.3-3c-0.1,0-0.1,0-0.2,0c-0.5,0.1-0.9,0.4-1.2,0.7c0,0,0,0,0,0c-0.1-0.2,0-0.5-0.1-0.7c-0.1,0-0.3,0-0.4,0
	c-0.3,0-0.5,0-0.8,0c-0.1,0-0.3,0-0.4,0c0,0,0,0.2,0,0.2c0,0.1,0.2,0,0.3,0c0.1,0,0.2,0.1,0.3,0.2c0.1,0.5,0,1.2,0,1.8
	c0,0.2,0,0.4-0.1,0.6c-0.1,0.2-0.4,0.1-0.6,0.1c0,0.1,0,0.2,0,0.3c0,0,0.4,0,0.5,0c0.6,0,1.2,0,1.8,0c0,0,0-0.3,0-0.3
	c-0.2-0.1-0.4,0-0.6-0.1c-0.1-0.1-0.1-0.6-0.1-0.9c0-1,0.2-1.6,1.1-1.5c0.7,0.1,0.5,0.8,0.5,1.6c0,0.2,0,0.7,0,0.8
	c-0.1,0.1-0.1,0.2-0.3,0.2c-0.1,0-0.2,0-0.3,0c0,0,0,0.2,0,0.3c0,0,0,0,0,0c0.7,0,1.5,0,2.3,0c0-0.1,0-0.2,0-0.3
	C284.7,39,284.4,39.1,284.3,38.9L284.3,38.9z M310,39c-0.2,0-0.2-0.1-0.3-0.2c-0.1-1.1,0.4-2.9-1.3-2.9c0,0-0.1,0-0.1,0
	c-0.1,0-0.2,0-0.3,0.1c-0.4,0.1-0.8,0.4-1,0.7h0c-0.1-0.2,0-0.5-0.2-0.7c-0.1,0-0.3,0-0.4,0c-0.2,0-0.5,0-0.7,0c-0.1,0-0.3,0-0.4,0
	c0,0.1,0,0.2,0,0.2c0.1,0,0.2,0,0.3,0c0.4,0.1,0.4,0.4,0.4,0.8c0,0.6,0.1,1.2,0,1.7c-0.1,0.1-0.2,0.1-0.4,0.1c-0.1,0-0.1,0-0.2,0
	c0,0,0,0.2,0,0.3c0,0.1,0.5,0,0.6,0c0.6,0,1.2,0,1.8,0c0-0.1,0-0.3,0-0.3c-0.2-0.1-0.4,0-0.6-0.1c-0.1-0.1-0.1-0.6-0.1-0.9
	c0-0.9,0.2-1.5,1.1-1.5c0.7,0.1,0.6,0.8,0.6,1.6c0,0.2,0,0.7-0.1,0.8c-0.1,0.2-0.3,0.1-0.5,0.1c0,0.1,0,0.2,0,0.3
	c0.1,0.1,0.5,0,0.6,0c0.5,0,1.1,0,1.7,0c0,0,0-0.2,0-0.3C310.3,39,310.1,39.1,310,39L310,39z M225.5,36c0,0-0.1,0-0.1,0
	c-0.5,0.1-0.9,0.4-1.1,1c0,0,0,0,0,0c-0.1-0.2,0-0.7,0-0.9c0,0-0.3,0-0.4,0c-0.3,0-0.6,0-0.9,0c-0.1,0-0.3,0-0.3,0v0.3
	c0.2,0,0.4,0,0.6,0.2c0.2,0.5,0,1.3,0.1,1.8c0,0.1,0,0.5,0,0.6c-0.1,0.2-0.4,0.1-0.7,0.1c0,0.1,0,0.2,0,0.3c0.1,0.1,0.5,0,0.7,0
	c0.6,0,1.3,0,2,0c0,0,0-0.3,0-0.3c-0.2-0.1-0.7,0.1-0.8-0.2c-0.1-0.7,0-1.8,0.4-2.3c0.1-0.1,0.4-0.5,0.6-0.3c0,0.1-0.2,0.3-0.1,0.5
	c0.1,0.3,0.6,0.4,0.9,0.1C226.6,36.4,226.1,36,225.5,36L225.5,36z M240.1,36c0,0-0.1,0-0.1,0c-0.5,0.1-1,0.5-1.1,1h0
	c0-0.3,0-0.7,0-1c-0.1,0-0.3,0-0.5,0c-0.2,0-0.5,0-0.7,0c-0.1,0-0.4,0-0.4,0v0.3c0.2,0,0.5,0,0.6,0.2c0.1,0.5,0,1.2,0.1,1.8
	c0,0.7,0,0.7-0.7,0.7c0,0.1,0,0.2,0,0.3c0.8,0.1,1.8,0,2.6,0c0,0,0,0,0,0v-0.3l0,0c-0.3,0-0.7,0.1-0.8-0.1c-0.1-0.1,0-0.5,0-0.7
	c0-0.7,0.1-1.2,0.4-1.6c0.1-0.2,0.4-0.4,0.6-0.4c0.1,0.1-0.1,0.3-0.1,0.5c0.1,0.3,0.5,0.5,0.8,0.3c0.2-0.2,0.2-0.5,0.1-0.7
	C240.7,36.1,240.4,36,240.1,36L240.1,36z M298.5,36c0,0-0.1,0-0.1,0c-0.5,0.1-1,0.5-1.1,1c0,0,0,0,0,0c-0.1-0.1,0-0.8,0-1
	c0,0-0.3,0-0.4,0c-0.3,0-0.6,0-0.9,0c-0.1,0-0.3,0-0.3,0c0,0.1,0,0.2,0,0.3c0.2,0,0.5,0,0.6,0.2c0.2,0.4,0,1.3,0.1,1.8
	c0,0.2,0,0.5,0,0.6c-0.1,0.2-0.4,0.1-0.6,0.1c0,0,0,0,0,0c0,0.1,0,0.2,0,0.3c0,0,0,0,0,0c0.9,0,1.8,0,2.6,0c0-0.1,0-0.3,0-0.3
	c-0.2,0-0.7,0.1-0.8-0.1c-0.1-0.1-0.1-0.5-0.1-0.7c0-0.7,0.2-1.3,0.5-1.7c0.1-0.1,0.4-0.4,0.6-0.2c0,0.2-0.1,0.2-0.1,0.5
	c0.1,0.3,0.6,0.5,0.8,0.2c0-0.1,0.1-0.1,0.1-0.2C299.5,36.2,299,35.9,298.5,36L298.5,36z M236.2,39c-0.1,0-0.3-0.1-0.3-0.2
	c-0.1-0.9,0-1.9,0-2.8c-0.1,0-0.3,0-0.4,0c-0.3,0-0.6,0-0.9,0c-0.1,0-0.3,0-0.4,0c0,0.1,0,0.2,0,0.3c0,0.1,0.2,0,0.3,0
	c0.1,0,0.3,0.1,0.3,0.2c0.1,0.4,0,0.9,0,1.3c-0.1,0.4-0.2,0.7-0.5,0.8c-0.3,0.2-0.9,0.1-1.1-0.3c-0.1-0.8,0-1.7-0.1-2.5
	c0,0,0,0-0.1,0c-0.4,0-0.8,0-1.2,0.1c-0.1,0-0.3,0-0.4,0c0,0,0,0.2,0,0.3c0.2,0,0.5,0,0.6,0.2c0.1,0.5,0,1,0,1.5
	c0,1.6,1.8,1.7,2.7,0.6h0c0,0.2,0,0.6,0.1,0.7c0,0.1,0.3,0,0.4,0c0.4,0,0.8,0,1.2,0c0,0,0-0.2,0-0.3C236.5,39,236.3,39.1,236.2,39
	L236.2,39z M294.5,39c-0.1,0-0.2-0.1-0.3-0.2c-0.1-0.1-0.1-0.6-0.1-0.8c0-0.7,0-1.4,0-2c-0.1,0-0.3,0-0.4,0c-0.3,0-0.6,0-0.9,0
	c-0.1,0-0.3,0-0.4,0v0.2l0,0c0.2,0,0.4,0,0.5,0.2c0.1,0.2,0.1,0.6,0.1,0.8c0,0.2,0,0.5,0,0.6c-0.1,0.4-0.4,0.9-1,0.8
	c-0.3,0-0.5-0.2-0.6-0.4c-0.1-0.8,0-1.7,0-2.4c0,0,0,0,0,0c0,0,0,0-0.1,0c-0.5,0-1.1,0.1-1.6,0.1c0,0,0,0,0,0c0,0.1,0,0.2,0,0.3
	c0,0.1,0.2,0,0.3,0.1c0.1,0,0.2,0.1,0.3,0.2c0.2,0.9-0.3,2.4,0.7,2.7c0.5,0.3,1.3,0.1,1.8-0.3c0.1-0.1,0.2-0.3,0.3-0.3c0,0,0,0,0,0
	c0,0.1,0,0.2,0,0.3c0,0.1,0.1,0.3,0.1,0.4c0.1,0,0.4,0,0.6,0c0.3,0,0.6,0,1,0c0,0,0-0.2,0-0.3C294.7,39,294.6,39.1,294.5,39
	L294.5,39z M243.3,38.9c-0.1-0.1,0-0.5,0-0.6c0-0.7,0-1.6,0-2.3c0,0,0,0-0.1,0c-0.1,0-0.2,0-0.2,0c-0.3,0-0.6,0-1,0
	c-0.1,0-0.3,0-0.4,0c0,0.1,0,0.2,0,0.3c0.2,0,0.4,0,0.5,0.2c0.1,0.1,0.1,0.4,0.1,0.6v1.3c0,0.2,0,0.5-0.1,0.6
	c-0.1,0.2-0.4,0-0.5,0.1c0,0.1,0,0.2,0,0.3c0.1,0.1,0.4,0,0.6,0c0.6,0,1.2,0,1.7,0c0-0.1,0-0.3,0-0.3
	C243.6,39,243.4,39.1,243.3,38.9L243.3,38.9z M263.9,39c-0.1-0.1-0.1-0.5-0.1-0.7c0-0.7,0-1.5,0-2.2h-0.1c-0.4,0-0.9,0-1.3,0.1
	c-0.1,0-0.2,0-0.3,0c0,0.1,0,0.2,0,0.3c0,0,0,0,0,0c0.2,0,0.4,0,0.5,0.2c0.1,0.5,0,1.2,0.1,1.8c0,0.6,0,0.7-0.6,0.7
	c0,0.1,0,0.2,0,0.3c0.1,0.1,0.4,0,0.6,0c0.6,0,1.2,0,1.7,0c0-0.1,0-0.2,0-0.3C264.2,39,264,39.1,263.9,39L263.9,39z"/>
</svg>
