<svg fill="#4D4D4D" xmlns="http://www.w3.org/2000/svg" viewBox="0 0 100 20">
<path d="M36.7,10.4V2.6h5.4v7.8h1.7V8.9h-1.2V7.8h1.3V6.4h-1.3V5.3H44V4h-1.4V2.8h2.6L45,10.5h0.7v1.1H33.2v-1.1H34
	l-0.1-7.4c0.9-0.1,1.7-0.3,2.3-0.6l0.5,1.1c-0.4,0.2-1.1,0.3-1.5,0.4v1.2h1.1v1.1h-1.1v1.4h1.2V9h-1.1v1.5h1.4
	C36.7,10.5,36.7,10.4,36.7,10.4z M38.2,12.5c-1.1,0.8-2.4,1.5-4,1.9l-0.8-1.1c1.5-0.4,2.8-0.9,3.9-1.6L38.2,12.5z M41,10.4V3.7h-3.2
	v6.7H41z M40.7,4.3v1h-2.6v-1H40.7z M40.5,5.9v3.8h-2.3V5.9H40.5z M39.7,6.9H39v1.9h0.7V6.9z M44.9,14.4c-1.2-0.6-3-1.4-4.2-1.9
	l0.8-0.9c1.4,0.4,2.7,1,4.2,1.6L44.9,14.4L44.9,14.4z M93.7,3.8C92.6,5.1,92,5.4,90.1,6h2.7v3.1h-2.6l-0.1,1.2H93
	c-0.1,3.9-0.1,3.9-4.1,3.9L88.5,13c3.4,0.2,3,0.3,3.2-1.7h-3l0.4-3.1h2.5V7h-2l-0.5-0.6l-0.8,0.2l-0.7-1.1c0.7-0.1,1.2-0.3,1.9-0.5
	c-0.2-0.2-0.7-0.7-1-0.9l1-0.6c0.1,0.1,0.9,0.7,1.1,1c0.7-0.2,1.3-0.5,1.9-1.1h-3.3V2.5H94c0.3,0.4,0.7,0.8,1.1,1.1
	c0.4-0.4,0.8-0.7,1.1-1.2l1,0.6l-1.3,1.3l1,0.5c0.1,0.1,1.2-1.2,1.2-1.3l1,0.5c-0.3,0.5-0.7,0.9-1.1,1.3c0.1,0,1.6,0.4,1.6,0.4
	L99,6.9l-1.4-0.4c0,0.3-0.1,1.4,0.1,1.5c0.5,0,1.1,0,1.4,0l0.5,1c-0.9-0.1-2.9,0.4-2.8-1V7.1h-1.2c0,0.8-0.5,1.6-1.5,2.2l-1-0.8
	c1-0.5,1.3-1.4,1.3-2.5h3C96,5.6,94.8,4.9,93.7,3.8L93.7,3.8z M93.6,14.4l-0.4-1c1.2-0.2,3.6-1.5,4.4-2.9h-4V9.4h5.5v0.9l0,0
	C97.8,12.7,95.8,13.7,93.6,14.4z M93.6,11.2l1.7,0.1c0.8,0.8,2.5,1.7,4.2,2l-0.4,1.1C96.9,13.8,94.9,12.8,93.6,11.2z M63.8,9.4
	l-0.5,0.3L62.9,10V6.7h1V5.5h-1V2.2h-1.2v3.3h-1.3v1.2h1.2v3.8c-0.2,0.1-1,0.4-1.3,0.5l0.2,1.4c1.6-0.7,2.6-1.3,3.2-1.7L63.8,9.4
	L63.8,9.4z M69.8,12.3c0.5,1.3,2.1,2.1,2.7,2.3V13c-1.5-0.6-1.6-0.8-1.9-1.9c0.8-1.2,1.4-2.7,1.9-4.5l-1.1-0.4
	c0,0.1-0.7,2.4-1.1,3.2C70,7.7,70,6.5,70,4.9h2.9l-0.1-1.2h-2.9V2h-1.2v1.7h-4.3c0,2.8,0.2,6.5-0.9,8.8l-0.1,1.7
	c1.1-1.5,2.2-3.7,2.2-6.7H67c0,2.4,0.2,3.8-1.6,3.2l0.4,1.3c2.3,0.3,2.3-0.5,2.3-5.7h-2.5V4.9h3.1c0,1.7,0,4.2,0.6,6
	c-0.7,1-1.3,1.6-2.2,2.2c0.1,0.2,0.3,1,0.4,1.3C68.2,13.9,68.9,13.2,69.8,12.3z M49.4,11.4c0.2-0.3,0.3-1.2,0.5-2.1V8.6h-1.5
	C49,7.7,49.5,6.9,49.8,6V5.1h-3v1.1h1.7c-0.2,0.5-0.9,1.6-1.5,2.6v0.9h1.7c-0.3,1.7-0.9,3-1.9,3.9l0.9,1c0.6-0.5,1-1.2,1.3-2
	c1.1,1.9,3.1,1.7,10.1,1.7l0.2-1.2C53.4,13.1,50.2,13.4,49.4,11.4z M47.9,2.3l-0.8,0.6l1.7,1.9L49.7,4L47.9,2.3z M55.3,10.4V9.6h3.4
	V4.8h-3.4V4.1h3.8V3h-3.8V2h-1.2v1h-3.7v1.1H54v0.7h-3.3v4.8H54v0.8h-3.8v1.1H54v1.3h1.2v-1.3h3.9v-1.1L55.3,10.4L55.3,10.4z
	 M52,5.9h2.1v0.8h-1.5l-0.2,1h1.7v1H52V5.9z M55.3,5.8h2.2v0.9h-1.6l-0.2,1h1.8v1h-2.2V5.8z M80.6,2.5V7h4.2v5.7
	c0,0.3-0.2,0.4-0.5,0.4L82.9,13l0.3,1.2c1.1,0,2.8,0.4,2.8-1.2V2.4L80.6,2.5C80.6,2.4,80.6,2.5,80.6,2.5z M84.8,4.3h-2.4l-0.2,0.8
	h2.5V6h-3c0-0.7,0-1.8,0-2.5h3L84.8,4.3L84.8,4.3z M74.4,2.5v12h1.2V7h4.1V2.5H74.4z M78.6,4.3h-2.3l-0.2,0.8h2.5V6h-2.9
	c0-0.7,0-1.8,0-2.5h2.9V4.3z M80.9,14.1H82v-2.9h1.9v-1.1h-1.8V8.8h1.5v-1h-7v1h1.6v1.4h-2v1.1h1.9c-0.1,0.8-0.7,1.7-1.9,2.2
	l0.9,0.9c1.4-0.8,2.1-1.8,2.2-3h1.2l-0.1-1.3h-1V8.8h1.5V14.1z M72,2.8h-1.3V4H72V2.8z M20.3,3.9c-0.3,0-0.4,0.2-0.6,0.4L12,15.6
	L4.3,4.3C4,3.9,3.9,3.9,3.7,3.9H1c-0.8,0-0.6,0.5-0.5,0.6l9.3,13.7c0.1,0.2,0.5,0.4,0.7,0.4h2.9c0,0,0.4,0,0.7-0.4l9.3-13.7
	c0.2-0.2,0.4-0.6-0.4-0.6H20.3z M15.8,18c-0.3,0.6,0.7,0.5,1.3,0.5c0.8,0,1.9,0,1.9,0s0.4,0,0.7-0.4c0.4-0.4,7-10.3,9.3-13.7
	c0.1-0.2,0.3-0.5-0.5-0.5h-2.8c-0.3,0-0.4,0.1-0.6,0.4L15.8,18z M11.5,12.7c0.2,0.3,0.5,0.3,0.8,0l1.5-2.2c0.1-0.2,0.1-0.3,0-0.4
	l-4-5.8C9.6,4,9.5,3.9,9.2,3.9H6.5C5.7,3.9,5.9,4.4,6,4.5L11.5,12.7z M14.5,8.8l-3-4.4c-0.1-0.2,0-0.5,0.3-0.5h6
	c0.3,0,0.4,0.3,0.3,0.5l-3,4.4C14.9,9,14.6,9,14.5,8.8z M34.1,19.2h-0.4l0,0l2-2.6h0.4 M33.8,16.6h0.5l1.9,2.6h-0.5 M37,19.2h-0.5
	v-2.6H37 M53.3,19.2h-0.4l-1.5-2v2H51v-2.6h0.4l1.5,2v-2h0.4 M40.1,19.2h-0.4l-1.5-2v2h-0.4v-2.6h0.4l1.5,2v-2h0.4 M65.5,19.2h-0.4
	l-1.5-2v2h-0.4v-2.6h0.4l1.5,2v-2h0.4 M96,19.2h-0.4l-1.5-2v2h-0.4v-2.6h0.4l1.5,2v-2H96 M43,19.2c-1.1,0.4-2.3,0.1-2.3-1.3
	c0-1.3,1.3-1.5,2.3-1.3V17c-0.9-0.4-1.9-0.2-1.9,0.9c0,0.8,0.7,1.3,1.5,1.1v-0.8h0.5 M68.4,19.2c-1.1,0.4-2.3,0.1-2.3-1.3
	c0-1.3,1.3-1.5,2.3-1.3V17c-0.9-0.4-1.9-0.2-1.9,0.9c0,0.8,0.7,1.3,1.5,1.1v-0.8h0.5 M45,16.6h0.5v2.3h1.3v0.2H45 M80.5,16.6H81v2.3
	h1.3v0.2h-1.8 M47.6,19.2h-0.5v-2.6h0.5 M50.6,19.2h-0.5l-0.4-0.7h-1.3L48,19.2h-0.4l1.2-2.6h0.5 M49.3,17.1l-0.5,1.2h1.1l0,0
	 M57.5,17.1c-0.9-0.4-1.9-0.2-1.9,0.9s1.1,1.3,1.9,0.8v0.4c-0.5,0.2-2.3,0.6-2.3-1.2c0-1.3,1.3-1.5,2.3-1.3 M60.4,19.2h-0.5v-1.3
	h-1.4v1.3H58v-2.6h0.5v1.1h1.4v-1.1h0.5 M61.2,16.6h1.6v0.2h-1.2v0.8h1.1v0.2h-1.1v0.9h1.3v0.2h-1.8 M73.5,16.6h1.6v0.2h-1.2v0.8H75
	v0.2h-1.1v0.9h1.3v0.2h-1.8 M78.4,16.6H80v0.2h-1.2v0.8h1.1v0.2h-1.1v0.9h1.3v0.2h-1.7 M91.5,16.6h1.6v0.2h-1.2v0.8H93v0.2h-1.1v0.9
	h1.3v0.2h-1.8 M70.5,16.6h0.9c0.9,0,1.5,0.5,1.5,1.3c0,0.9-0.6,1.4-1.5,1.4h-0.9l0,0 M70.9,18.9c0.5,0,1.6,0.2,1.6-1.1
	c0-1.2-0.9-1.1-1.6-1.1 M76.9,19.2h-0.4l-1.1-2.6h0.5l0.9,2.1l0.8-2.1H78 M83.8,19.3c-1.8,0-1.8-2.7,0.1-2.7
	C85.8,16.6,85.7,19.3,83.8,19.3z M83.9,19.1c1.3,0,1.3-2.2,0-2.2C82.6,16.8,82.6,19.1,83.9,19.1L83.9,19.1z M85.9,16.6h0.8
	c0.8,0,0.9,0.2,0.9,0.7c0,0.9-1.4,0.9-1.4,0.9v1.1h-0.4 M86.2,17.9c0,0,0.9,0.1,0.9-0.6c0-0.5-0.4-0.5-0.9-0.5V17.9z M90.8,19.2
	h-0.4v-2.1l-0.8,2h-0.4l-0.8-2v2.1H88v-2.6h0.6l0.8,2l0.8-2h0.5 M98.9,16.6v0.2h-1.1v2.3h-0.4v-2.3h-1v-0.2"/>
</svg>
