<?xml version="1.0" encoding="utf-8"?>
<!-- Generator: Adobe Illustrator 26.5.0, SVG Export Plug-In . SVG Version: 6.00 Build 0)  -->
<svg version="1.1" id="圖層_1" xmlns="http://www.w3.org/2000/svg" xmlns:xlink="http://www.w3.org/1999/xlink" x="0px" y="0px"
	 viewBox="0 0 466 56" style="enable-background:new 0 0 466 56;" xml:space="preserve">
<style type="text/css">
	.st0{fill:url(#SVGID_1_);}
</style>
<linearGradient id="SVGID_1_" gradientUnits="userSpaceOnUse" x1="232.7888" y1="0.8588" x2="232.7888" y2="56.3155">
	<stop  offset="0" style="stop-color:#006556"/>
	<stop  offset="1" style="stop-color:#197164;stop-opacity:0.2"/>
	<stop  offset="1" style="stop-color:#006556;stop-opacity:0.2"/>
</linearGradient>
<path class="st0" d="M0.1,3V2.4h30.7v7.9h-0.6c-0.4-3.8-2.6-6.5-7-6.3C23.3,4,11,4,11,4v23.6h11.5c4.1,0,5.4-1.6,6-5.1H29v11.8h-0.6
	c-0.4-3.5-2-5.2-6-5.1c0,0-11.5,0-11.5,0v19c-0.1,3.4,2.4,6.1,5.7,5.8v0.6H0.1V54c3.3,0.3,5.6-2.4,5.5-5.8c0,0,0-39.5,0-39.5
	C5.8,4.7,3.6,2.8,0.1,3z M35.5,54c3.2,0.3,5.6-2.3,5.4-5.8c0,0,0-39.4,0-39.4c0.1-3.9-2.1-5.7-5.5-5.9V2.4h16.4V3
	c-3.4,0.2-5.6,1.9-5.5,5.9c0.7,3.2-1.8,41.6,1.7,42.9c1.7,1.7,7.2,1.3,9.9,1.3c5.3,0.2,7.7-2.2,9.4-7h0.6l-2,8.6H35.5L35.5,54
	L35.5,54z M123.7,28.5c-1.1,36.5-53.2,36.2-54.1-0.2C70.6-8,123.1-8.1,123.7,28.5L123.7,28.5z M117.6,28.7
	c1.6-35-43.4-34.5-41.8-0.2C74.2,62.6,119.1,63.2,117.6,28.7L117.6,28.7z M179.5,54.6h-10.7V46l-0.2-0.1c-5.2,13.6-26,13-32.1,1
	c-4.1-7.6-1.5-29.5-2.2-38c-0.1-3.6-1-5.5-5.3-5.8V2.4H145V3c-4.2,0.4-5.4,2.4-5.5,5.8c0,0,0,25.6,0,25.6c0.2,8.6,0.7,13.3,6.6,17.7
	c10.3,6.5,23.6-1.8,22.7-14.8c0,0,0-28.5,0-28.5c-0.1-3.5-1.3-5.5-5.6-5.8V2.4h16.4V3c-4.1,0-5.4,2.5-5.6,5.7c0,0,0,39.6,0,39.6
	c-0.2,3.7,2.1,5.3,5.5,5.7L179.5,54.6L179.5,54.6z M183.9,3.1h-0.7V2.4c5.1,0.4,20.6-1.1,25,1.3c11.5,4.8,9.6,23.3-3.1,24.8v0.1
	c9.2,3.6,12.5,23.6,21.9,25.4v0.6h-9.3c-7.2-7.8-11.1-26-23.7-25.4v19.1c0,3.7,1.9,5.6,5.6,5.7v0.6h-16.3V54c3.3,0,5.6-2.2,5.4-5.7
	c0,0,0-39.5,0-39.5C188.8,5.3,186.9,3.2,183.9,3.1L183.9,3.1z M194,27.8c5.6,0.2,12-0.2,14.7-5.2c4.8-9.8-3.2-21.5-14.7-18.5V27.8z
	 M245.2,2.4V3c-3.4,0.1-5.6,1.9-5.5,5.7c0,0,0,39.6,0,39.6c-0.1,3.6,2.3,5.7,5.5,5.8v0.6H229V54c3.3-0.1,5.6-2,5.5-5.7
	c0,0,0-39.7,0-39.7c0.1-3.9-2.1-5.6-5.5-5.7V2.4H245.2z M275.6,12.4H275c-4.1-19.3-29.6-5.8-17.6,9.1c4.5,4.3,13.6,7.7,17.5,12.2
	c9.7,12-4,26-17.7,21.4c-2.9-0.3-7.6-5.1-7.9,0.6h-0.6V42.5h0.6c2.9,18.8,33.3,12.9,21.4-4.9c-3.8-4.4-12.9-7.4-17-11.8
	c-6.5-6.2-4.7-18.1,3.4-22.4c7.8-5.3,17.4,2.1,17.9-2.2h0.6L275.6,12.4L275.6,12.4z M321.4,26.3V8.8c0-3.5-1.8-5.9-5.5-5.8V2.4h16.3
	V3c-3.7-0.1-5.5,2.3-5.5,5.8c0,0,0,39.5,0,39.5c0,3.8,1.8,5.7,5.5,5.7v0.6h-16.3V54c3.6,0,5.6-2.1,5.6-5.7c0,0,0-20.5,0-20.5h-29.3
	v20.4c0,3.5,2.1,5.8,5.6,5.8v0.6h-16.3V54c3.6,0,5.5-2.2,5.5-5.8c0,0,0-39.5,0-39.5c0-3.9-1.8-5.8-5.5-5.8V2.4h16.3V3
	c-3.8-0.1-5.5,2.3-5.6,5.8c0,0,0,17.5,0,17.5H321.4L321.4,26.3z M352.2,2.4V3c-3.4,0.1-5.6,1.9-5.5,5.7c0,0,0,39.6,0,39.6
	c-0.1,3.6,2.3,5.7,5.5,5.8v0.6H336V54c3.3-0.1,5.6-2,5.5-5.7c0,0,0-39.7,0-39.7c0.1-3.9-2.1-5.6-5.5-5.7V2.4H352.2z M409.3,2.4V3
	c-4.3,0.2-5.6,2.8-5.5,7.1c0,0,0,45.8,0,45.8h-0.3l-39.3-44.8v32.1c0.2,5.4-0.6,10.4,5.7,10.8v0.6H357V54c5.9-0.2,5.4-5.3,5.6-10.7
	c0,0,0-34.1,0-34.1c-2.7-3.2-4.8-5.9-8.7-6.3V2.4h9.6l38.7,44.2V12.9c0-5.3,0.2-9.8-5.8-9.9V2.4L409.3,2.4L409.3,2.4z M459.8,13.2
	h-0.6c-3.3-12.6-21.7-13.4-30.9-6.1c-10.8,8.2-10,30.3-2.5,39.9c3.7,4.9,9.7,7.3,17.9,7.3c5.5-0.2,10.9,0.2,10.7-5.7
	c0,0,0-9.6,0-9.6c0-4.5-1.8-5.3-5.8-6v-0.6h16.6v0.6c-3.9,0.3-5.9,2.3-5.6,6.2c0,0,0,14.5,0,14.5C406.1,69.6,399,3.1,442.2,0.9
	c4.5,0.1,6.5,0.6,11.9,1.7c2.4,0.5,4,1,5.1-1.3h0.6L459.8,13.2L459.8,13.2z"/>
</svg>
