<svg width="806" height="277" viewBox="0 0 806 277" fill="none" xmlns="http://www.w3.org/2000/svg">
<path d="M380.595 159.22V169.165H439.755V159.22H380.595ZM377.11 184.295V194.07H436.525V184.295H377.11ZM367.25 211.24V221.185H444.09V211.24H367.25ZM400.315 143.835V216.17H410.94V143.835H400.315ZM380.68 144.855C377.62 156.585 372.18 168.315 365.465 175.455C368.1 176.9 372.605 179.875 374.645 181.66C381.275 173.5 387.48 160.41 391.22 147.235L380.68 144.855ZM488.97 189.14V223.565H498.235V198.405H523.82V223.225H533.51V189.14H488.97ZM526.795 143.835C517.36 147.575 501.38 150.38 486.93 151.825C488.035 154.12 489.395 158.115 489.82 160.58C504.865 159.22 522.12 156.585 534.615 151.825L526.795 143.835ZM506.395 153.355V194.495H516.085V153.355H506.395ZM483.615 168.57V178.345H537.845V168.57H483.615ZM495.6 210.9V220.08H527.815V210.9H495.6ZM462.705 152.25C467.55 155.055 474.775 159.135 478.175 161.685L484.21 153.44C480.555 151.06 473.16 147.32 468.4 144.94L462.705 152.25ZM458.54 175.795C463.64 178.515 471.035 182.595 474.52 184.975L480.215 176.56C476.475 174.18 468.91 170.525 464.065 168.23L458.54 175.795ZM459.815 215.745L468.485 222.63C473.585 214.385 479.025 204.695 483.53 195.685L476.05 188.97C470.95 198.745 464.405 209.37 459.815 215.745ZM567.935 211.75V220.59H613.835V211.75H567.935ZM562.325 192.37V223.735H572.44V201.21H609.415V223.48H619.87V192.37H562.325ZM553.57 150.72V159.39H586.805V150.72H553.57ZM552.125 168.06L553.145 176.985C562.58 175.88 575.245 174.35 587.4 172.82L587.145 164.575C574.395 165.935 560.965 167.38 552.125 168.06ZM566.15 143.75V181.065C566.15 182 565.81 182.34 564.705 182.34C563.77 182.425 560.2 182.425 557.225 182.255C558.33 184.465 559.52 187.95 559.86 190.33C565.385 190.33 569.295 190.16 572.1 188.97C575.075 187.61 575.84 185.655 575.84 181.235V143.75H566.15ZM593.35 162.79V171.205H629.39V162.79H593.35ZM609.245 165.425V190.5H619.02V165.425H609.245ZM619.19 144.005C612.39 146.555 600.83 148.85 590.46 150.125C591.48 151.995 592.755 155.48 593.095 157.52C604.315 156.33 617.49 154.035 627.095 150.72L619.19 144.005ZM590.46 150.125V163.81C590.46 171.29 589.355 179.11 580.855 184.72C583.15 186.08 586.635 189.225 588.165 191.35C598.025 184.295 599.385 174.01 599.385 163.98V150.125H590.46ZM644.775 199.935V208.095H721.87V199.935H644.775ZM661.35 185.4V192.625H698.58V185.4H661.35ZM679.285 197.555V213.79C679.285 214.895 678.945 215.15 677.585 215.15C676.225 215.15 671.125 215.15 667.045 214.98C668.32 217.445 669.765 220.93 670.275 223.565C676.65 223.565 681.325 223.565 684.81 222.29C688.38 220.93 689.315 218.72 689.315 214.13V197.555H679.285ZM696.03 185.4V187.1C692.63 190.33 685.32 195.005 679.285 197.555C680.56 198.745 682.855 201.21 683.875 202.74C691.695 199.51 700.025 194.75 706.4 190.16L700.62 184.89L698.495 185.4H696.03ZM646.22 174.435V191.945H655.91V181.83H710.735V191.945H720.85V174.435H646.22ZM706.655 146.64C706.315 156.84 705.38 169.76 704.275 178.09H714.05C714.985 170.015 715.835 157.095 716.345 146.64H706.655ZM694.925 146.64V153.015H710.65V146.64H694.925ZM668.32 144.26C663.73 145.79 656.165 148.085 651.065 148.935L654.635 154.545C659.82 153.695 667.215 152.165 672.57 150.125L668.32 144.26ZM655.995 155.905V162.195H671.89V155.905H655.995ZM656.25 165.17V171.46H672.145V165.17H656.25ZM695.435 155.905V162.195H709.8V155.905H695.435ZM695.01 165.17V171.46H709.29V165.17H695.01ZM686.595 144.345C683.45 148.51 677.755 152.335 671.89 154.885C673.505 155.905 676.055 158.2 677.245 159.39C683.025 156.415 689.4 151.485 693.225 146.215L686.595 144.345ZM673.675 148.85C678.945 151.57 685.49 155.735 688.55 158.71L693.48 154.375C690.08 151.4 683.535 147.405 678.35 144.94L673.675 148.85ZM686.68 158.71C683.365 163.13 677.245 167.21 671.21 169.845C672.655 170.95 675.205 173.585 676.31 174.86C682.515 171.63 689.23 166.36 693.31 160.665L686.68 158.71ZM673.25 163.385C678.86 166.36 685.745 170.95 688.975 174.18L693.99 169.76C690.505 166.53 683.45 162.195 678.01 159.475L673.25 163.385ZM651.065 148.935L652.765 177.665H662.285L660.755 151.4L651.065 148.935Z" fill="white"/>
<path d="M8.712 220H99.792V204.556H59.598C52.272 204.556 43.56 205.15 35.838 205.942C70.092 173.668 92.862 144.166 92.862 115.06C92.862 89.122 76.626 72.292 50.688 72.292C32.274 72.292 19.602 80.806 7.722 93.676L18.216 103.774C26.334 94.27 36.63 86.944 48.51 86.944C66.528 86.944 75.042 99.22 75.042 115.852C75.042 140.602 54.252 169.708 8.712 209.506V220ZM165.862 222.772C191.8 222.772 212.59 207.13 212.59 181.39C212.59 161.392 198.73 148.522 181.702 144.364V143.572C197.146 138.028 207.442 126.346 207.442 108.724C207.442 85.558 189.622 72.292 165.268 72.292C148.636 72.292 135.766 79.618 124.876 89.518L134.578 101.2C142.696 92.884 152.992 86.944 164.674 86.944C179.722 86.944 189.028 96.052 189.028 109.912C189.028 125.752 178.93 137.632 149.032 137.632V151.69C182.494 151.69 194.176 163.174 194.176 180.598C194.176 197.23 181.9 207.724 164.674 207.724C148.042 207.724 137.152 199.804 128.638 190.894L119.53 202.774C129.034 213.268 143.092 222.772 165.862 222.772ZM294.698 220H311.726V74.866H291.728L231.338 168.124V180.004H331.13V165.748H250.346L283.412 116.248C287.372 109.12 291.332 101.794 294.896 94.666H295.886C295.292 102.19 294.698 113.872 294.698 121.198V220Z" fill="white"/>
<g clip-path="url(#clip0_353_520)">
<path d="M416.11 104.08C416.11 105.39 415.23 106.09 413.47 106.19C412.92 106.59 412.34 106.79 411.73 106.79L408.94 107.17H407.58L406.52 107.92H404.78L404.1 108.52H400.4L398.29 109.65H397.91C397.56 109.65 397.31 109.68 397.16 109.73L396.78 110.14C396.28 110.41 395.8 110.55 395.35 110.55C395.05 110.55 394.64 110.43 394.14 110.17L392.48 110.55L390.74 110.63L388.93 111.16H384.48L381.99 110.56H379.95L379.27 109.96L377.84 109.88C375.63 108.23 374.09 106.5 373.24 104.7C372.89 103.5 372.51 102.3 372.11 101.09L371.51 99.66L372.26 97.1L371.81 94.02L372.49 93.57L372.64 90.71L373.17 89.21L373.55 86.96V82.3L374.23 81.1L374.38 80.5V77.79L374.83 77.19L374.15 76.66L375.06 73.96L375.29 73.88L374.84 72.68L376.5 72C377.25 71.35 377.88 70.97 378.39 70.87L380.35 71.17L382.08 74.79L381.02 75.62C381.27 75.97 381.4 76.37 381.4 76.83L380.57 79.09V81.65L379.8 83.99L379.59 86.18L378.38 90.71V91.31C378.38 91.86 378.3 92.34 378.15 92.74L378 93.8L377.85 95.16L378 97.5L377.77 98.1L378.37 101.42L379.43 103.76V103.99L382.22 105.65L386.29 106.03H387.5L390.37 105.5H392.41L392.94 105.12H397.09L398 104.37H401.02L402.38 103.92L407.28 103.69L409.32 103.16C409.82 103.21 410.43 103.24 411.13 103.24L411.88 102.64C412.53 102.39 413.14 102.26 413.69 102.26C415.3 102.26 416.1 102.86 416.1 104.07L416.11 104.08Z" stroke="white" stroke-miterlimit="10"/>
<path d="M430.52 75.49L430.29 75.57L429.84 78.44L429.92 80.1L430.22 80.33L429.47 82.06L429.62 83.34L428.86 84.77C428.63 85.42 428.44 85.95 428.27 86.35C428.57 86.65 428.72 86.98 428.72 87.33C428.72 87.73 428.57 88.11 428.27 88.46L429.02 91.02H428.11L428.03 91.17L428.71 92.23L428.11 94.27H427.85L427.42 95.78C427.67 95.78 427.85 95.76 427.95 95.7L427.72 97.21L428.25 98.57L427.72 99.63L427.8 101.97L427.57 102.95C428.02 103.45 428.25 103.93 428.25 104.38C428.25 104.68 428.14 105.01 427.91 105.36C427.68 105.71 427.57 105.94 427.57 106.04C428.48 106.69 429.13 107.3 429.53 107.85L428.7 108.6L429.76 109.2C429.56 111.21 428.83 112.22 427.57 112.22C426.31 112.22 425.48 111.67 425.08 110.56L424.7 110.03C423.89 108.92 423.49 108.14 423.49 107.69L421.98 106.11L422.66 105.36L422.21 104.76V103.18L422.12 102.65C422.03 102.15 421.99 101.74 421.99 101.44C421.99 101.14 422.07 100.81 422.22 100.46L422.07 99.86L421.99 97.45L422.22 97.15V92.85L422.67 89.23L422.22 85.46L422.67 85.08L422.22 84.85L422.67 83.34V82.81L422.22 82.73L422.67 81.07C421.99 80.37 421.56 79.39 421.39 78.13H422.37L423.28 75.87L423.43 76.02L423.88 74.81L423.5 75.26V73.22H424.78L425.01 72.54L426.44 72.01C427.7 72.11 428.68 72.31 429.38 72.61C430.13 73.31 430.51 74.14 430.51 75.1V75.48L430.52 75.49Z" stroke="white" stroke-miterlimit="10"/>
<path d="M481.14 74.47C481.14 75.44 480.41 75.95 478.95 76L477.59 76.61L476.23 76.31L474.27 77.22C473.16 76.77 472.36 76.54 471.86 76.54C471.81 76.54 471.6 76.58 471.22 76.65C470.84 76.73 470.5 76.76 470.2 76.76C469.8 76.76 469.49 76.74 469.29 76.68L467.63 77.21H467.25L467.1 77.28L462.95 77.35L462.5 78.04L460.61 77.44L459.86 77.82L458.05 77.97L456.92 77.74C456.47 77.79 456.03 77.85 455.6 77.93C455.17 78.01 454.93 78.04 454.88 78.04L453.9 78.19L453.45 78.49L453.9 79.83L454.5 81.39L454.2 82.58L454.95 83.18L454.5 84.07V85.04C454.5 85.49 454.37 86.03 454.12 86.68L453.89 89.14H455.1L457.51 88.91L458.57 89.14H459.78L460.23 88.85L462.57 88.61L464.23 89.14C465.03 89.02 465.61 88.94 465.96 88.91H468.45L469.88 88.53L470.71 88.91L471.84 88.77C472.24 88.72 472.54 88.7 472.75 88.7L477.13 88.22L477.66 88.45C477.81 88.4 477.99 88.37 478.19 88.37C478.54 88.37 478.97 88.47 479.47 88.67C480.12 89.58 480.45 90.38 480.45 91.08C480.45 91.33 480.42 91.53 480.37 91.68L478.94 91.91L477.66 92.59H476.53L475.93 93.04H473.82L471.94 93.52L469.76 93.87L469.31 93.79L469.16 93.94L466.3 93.64L465.32 94.02L463.97 93.87C463.22 94.32 462.29 94.55 461.19 94.55H460.51C460.26 94.58 459.73 94.68 458.93 94.85L457.35 93.94C456.75 94.44 456.25 94.74 455.85 94.85L454.42 94.55H453.52C453.42 95.06 453.27 96.58 453.07 99.11C453.22 99.72 453.3 100.25 453.3 100.71L452.55 102.61L453.08 103.52L452.4 104.73L452.63 105.87L452.25 106.55C451.6 109.99 451.14 112.2 450.89 113.16C450.49 114.68 450.03 115.57 449.53 115.82L447.87 114.99H445.83L446.36 112.63V111.57L446.81 111.11L446.96 110.12L447.04 109.74V108.75L446.21 107.99L446.38 107.53C446.38 106.47 446.6 105.53 447.04 104.72L446.66 104.42L446.81 103.51L446.58 102.45L447.03 101.23V98.49L447.33 95.83L447.03 94.92V94.54L445.82 95.14L444.08 94.23L443.33 94.38C442.83 94.48 442.52 94.53 442.42 94.53C441.01 94.53 440.31 93.7 440.31 92.04C440.31 89.93 441.34 88.87 443.41 88.87C444.45 88.87 445.18 88.89 445.63 88.93L447.7 89.1V86.1L447.32 85.95L447.7 81.38L446.94 79.36L446.86 78.69L446.32 78.39L443.88 79.75L442.66 78.09C441.74 77.69 441.29 76.91 441.29 75.75C441.59 75.3 441.74 74.95 441.74 74.69V72.95H443.85C444.91 72.3 445.86 71.97 446.72 71.97C446.67 71.97 447.4 72.07 448.91 72.27C449.82 72.19 451.48 72.09 453.89 71.97L456.61 72.27L458.65 72.19L458.95 71.96C459.3 71.76 459.68 71.66 460.08 71.66C460.43 71.66 460.71 71.73 460.91 71.86L461.21 71.96C461.66 71.9 462.34 71.8 463.25 71.66C464.16 71.52 464.83 71.42 465.29 71.36L465.37 71.59L465.82 71.97H466.12C466.37 71.97 466.72 71.92 467.18 71.82C467.63 71.72 467.96 71.67 468.16 71.67H468.39L470.43 72.02L472.62 72.28C473.37 72.08 474.08 71.98 474.73 71.98C475.23 71.98 475.71 72.08 476.16 72.28H477.44C477.89 72.08 478.4 71.98 478.95 71.98C480.41 71.98 481.14 72.8 481.14 74.43V74.47Z" stroke="white" stroke-miterlimit="10"/>
<path d="M527.84 86.5C527.84 87.66 527.49 88.71 526.78 89.67C525.42 90.22 524.29 90.5 523.39 90.5C523.19 90.5 522.91 90.45 522.56 90.35C522.21 90.25 521.98 90.2 521.88 90.2L519.92 91.18L518.11 91.03L517.05 91.41L516.52 91.26L515.16 92.01L514.03 91.71H511.09L509.73 92.09H509.5L508.97 92.62L507.91 92.24L507.3 92.62L505.63 92.09L504.64 92.62C503.43 92.32 502.72 92.17 502.52 92.17C501.96 92.17 501.28 92.35 500.47 92.7L497.06 93L496.76 92.62L495.47 92.95L495.39 93.39L496.06 97.16L495.9 97.54L496.13 98.29V99.27C496.38 100.02 496.56 100.78 496.66 101.53L497.57 102.43L497.42 102.88L498.93 104.76C500.49 105.87 501.67 106.42 502.48 106.42H502.63C502.73 106.42 502.86 106.4 503.01 106.34H503.31C503.51 106.34 503.79 106.42 504.14 106.57L504.82 106.49C505.47 106.34 506.4 106.16 507.61 105.96L508.44 105.51L508.59 105.21L509.12 105.13L509.72 104.75L510.1 104.98L511.31 104.6L512.29 104L512.67 103.47L513.95 102.49L514.93 102.34L516.74 100.98C518 100.78 518.9 99.77 519.46 97.96L519.69 98.04L519.77 97.81L520.75 97.73L522.18 96.52L522.71 96.44C522.86 96.39 523.04 96.36 523.24 96.36C524.19 96.36 524.77 97.29 524.97 99.15L521.65 103.07L520.82 103.3L520.52 103.75L519.09 105.26L517.05 106.47L515.39 108.05L514.86 107.97L514.26 108.57L510.87 109.85L509.51 111.36L508.53 110.98L508.15 111.66L507.47 111.43L507.09 111.81L504.6 111.36L502.04 112.42L499.47 111.59L496.23 110.08C493.46 108.77 491.33 105.15 489.82 99.22V98.39L489.22 96.65L489.82 95.9L489.44 93.79L489.36 93.11L488.08 91.68V90.77C488.08 89.31 488.48 88.31 489.29 87.75C489.44 87.35 489.72 86.97 490.12 86.62L489.82 86.39V83.22L490.74 80.81L490.95 79.6L490.2 79.68H489.9C489.19 79.68 488.59 79.44 488.09 78.96C487.59 78.48 487.34 77.92 487.34 77.26C487.34 76.51 487.82 75.65 488.77 74.7L489.3 74.17L489.98 73.87C490.78 73.52 491.41 73.34 491.87 73.34H493.3L494.05 72.06L497.44 72.29L497.67 72.52C498.12 72.43 498.8 72.39 499.71 72.39L501.22 72.07H501.6C502.25 71.87 502.88 71.47 503.49 70.86L504.62 71.54H506.51L514.05 70.86L514.8 71.31L515.86 71.04L516.46 70.33L517.97 71.31L518.5 70.86L520.16 71.54L521.29 71.31L521.89 71.54L524.3 71.31L524.83 71.69L526.04 71.92C527.2 72.12 527.77 72.67 527.77 73.58C527.77 74.18 527.56 74.71 527.13 75.16C526.7 75.61 526.26 75.84 525.81 75.84H525.51L524.68 76.29L523.17 75.84L522.49 75.92C522.34 75.97 522.14 76 521.89 76C521.39 76 520.93 75.9 520.53 75.7L520.3 75.4C519.8 75.5 519.47 75.55 519.32 75.55C519.12 75.55 518.87 75.5 518.57 75.4C518.07 75.75 517.14 76.05 515.78 76.31C515.07 76.31 514.3 76.29 513.44 76.23C513.44 76.18 513.54 76 513.74 75.7L511.78 76.3H511.63C511.28 76.3 510.62 76.65 509.67 77.36L508.69 76.91L508.24 77.21L506.43 76.68L505.37 77.21H503.86L501.6 77.66L499.71 78.49L499.18 78.19L498.2 78.87H497.22L496.99 79.25L497.22 80.15L495.94 81.66L496.54 81.74V83.85L497.37 84.76L496.69 85.36C496.19 86.21 495.94 86.79 495.94 87.09C495.94 87.29 496.09 87.44 496.39 87.54L497.3 87.24C497.55 87.19 497.8 87.16 498.05 87.16C498.8 87.26 499.36 87.36 499.71 87.46L501.07 86.93L502.28 87.16H505.98C506.18 87.16 506.58 86.98 507.19 86.63C507.59 86.83 508.17 86.93 508.92 86.93C509.02 86.93 509.2 86.91 509.45 86.85H510.2C510.1 86.85 510 86.83 509.9 86.77H510.13C510.43 86.77 511.34 86.9 512.85 87.15C513 87.07 513.78 86.98 515.19 86.9C515.99 86.82 516.5 86.77 516.7 86.77C517.45 86.77 518.18 86.8 518.89 86.85L519.57 86.77C520.27 86.37 520.93 86.17 521.53 86.17C521.98 86.17 522.44 86.25 522.89 86.4L523.95 86.17L524.86 86.55L527.88 85.8V86.48L527.84 86.5Z" stroke="white" stroke-miterlimit="10"/>
<path d="M604.03 102.34C604.03 102.94 603.7 103.67 603.05 104.53C602.24 105.59 601.26 106.42 600.11 107.02C599.71 107.37 599.28 107.57 598.83 107.62C597.92 108.22 597.04 108.55 596.19 108.6C595.84 108.95 595.23 109.28 594.38 109.58H593.02L591.66 110.64L590.23 110.34L589.78 110.42L588.65 110.57C587.9 110.67 587.27 110.72 586.76 110.72C586.66 110.72 586.48 110.7 586.23 110.64H585.63L584.57 111.02L583.06 111.17H581.32L580.49 111.64L580.72 111.92C579.56 111.92 578.66 111.94 578 112L577.62 111.92L574.53 111.64L570.15 111.45L568.72 111.17C568.27 111.47 567.74 111.62 567.14 111.62C566.44 111.62 565.71 111.39 564.95 110.94L563.52 111.47L562.77 110.79C560.66 110.74 559.43 110.54 559.07 110.19L558.77 110.04C558.92 110.04 558.49 110.09 557.49 110.19L554.55 108.23L553.19 107.93C552.33 107.53 551.61 106.82 551 105.82C550.5 104.97 550.25 104.14 550.25 103.33C550.25 102.78 550.5 101.8 551 100.39L552.51 98.73L554.32 98.81C554.72 98.26 555.3 97.98 556.06 97.98C557.67 97.98 558.47 99.28 558.47 101.88C557.41 102.13 556.78 102.34 556.58 102.49C556.33 102.8 555.95 103.13 555.45 103.48V103.71L556.13 104.07L557.04 105L559.98 104.85L562.47 105.6L566.39 105.52L567.82 106.5L568.5 106.05C568.8 106.05 569.18 106.15 569.63 106.34L571.59 106.63L571.74 107.11H572.95C574.11 106.71 574.76 106.51 574.91 106.51H581.55L583.21 106.08L584.04 105.23L586.91 105.53C588.37 105.08 589.52 104.85 590.38 104.85H590.76C591.11 104.6 591.41 104.47 591.67 104.47C591.82 104.47 592 104.52 592.2 104.62L592.95 104.32V103.72H594.53C594.88 103.27 595.51 103.02 596.42 102.97C597.12 102.32 597.7 101.96 598.16 101.91L598.76 101C598.76 100.55 597.15 99.57 593.93 98.06L593.33 97.61C592.27 97.51 591.44 97.33 590.84 97.08C590.49 97.08 590.16 97.06 589.86 97H589.71C589.46 97 588.48 96.7 586.77 96.1C586.22 95.7 585.64 95.5 585.03 95.5C584.83 95.5 584.53 95.55 584.12 95.65H582.61L582.38 95.42C581.57 95.27 580.95 95.04 580.49 94.74L579.58 95.04L577.24 93.91H575.73L574.75 93.31H573.24L573.01 92.93H571.8L570.74 91.72H570.21C568.65 91.72 567.44 91.42 566.59 90.82L566.44 90.67C565.33 90.32 564.53 89.77 564.03 89.03L562.75 87.83L561.92 85.89L561.01 84.69L561.39 81.63L563.2 79.54C563.5 79.49 563.73 79.17 563.88 78.57C564.03 78.52 564.28 78.4 564.63 78.2L568.48 76.11H569.54C570.24 76.11 570.97 75.86 571.73 75.36H572.18V75.51L572.93 74.83H573.31C574.92 74.23 576.25 73.92 577.31 73.92H577.69L578.37 74L579.5 73.32C579.8 73.27 580.2 73.24 580.71 73.24H581.16C581.51 73.24 582.13 73.19 583.01 73.09C583.89 72.99 584.58 72.91 585.09 72.86L586.45 72.78L588.49 71.72C588.64 71.82 588.97 72.2 589.47 72.85H591.13C591.43 72.85 591.98 72.98 592.79 73.23H593.32C594.53 73.23 595.53 73.48 596.34 73.99C599 74.65 600.34 76 600.34 78.03C600.34 79.76 598.96 80.8 596.19 81.15L595.59 80.24C595.44 80.19 595.17 80.09 594.8 79.94C594.42 79.79 594.13 79.69 593.93 79.64H592.27L591.52 78.81L590.31 78.96L589.63 79.71L587.82 78.43L585.86 78.73L583.52 78.2C582.06 78.3 580.83 78.6 579.82 79.11L579.67 79.19C579.52 79.29 579.35 79.38 579.18 79.45C579 79.53 578.89 79.56 578.84 79.56L577.78 79.11L575.67 80.09L571.75 81.15L570.84 80.92L569.18 81.98H568.43L567.98 82.66L566.4 83.72L566.55 84.17L567.38 85L568.13 85.23L569.34 85.98L571.68 86.81L572.81 86.89L574.85 88.1L575.45 87.87C576.91 88.17 577.89 88.57 578.39 89.08L578.62 89.31H578.77L580.28 90.22L580.81 89.69L582.62 89.92H583.98L585.04 90.75H585.57C586.42 90.75 587.18 90.85 587.83 91.05H588.58C589.49 91.05 590.49 91.48 591.6 92.33L592.51 92.03L593.19 92.33H594.47L596.66 93.84L598.92 94.07L599.83 95.28C601.54 96.34 602.66 97.25 603.19 98.03C603.72 98.81 603.98 99.93 603.98 101.39C603.98 101.49 604 101.64 604.06 101.84V102.37L604.03 102.34Z" stroke="white" stroke-miterlimit="10"/>
<path d="M661.81 74.2799L659.93 78.0399L658.2 78.2799H655.86L654.58 78.4299L653.6 78.2799L648.85 78.7299L647.49 78.2799L647.19 78.3599C646.69 78.5599 645.83 78.7599 644.63 78.9599H641.92L641.32 78.7299H641.09C640.59 78.7299 639.86 78.8299 638.9 79.0399C638.15 79.2099 637.22 79.2899 636.11 79.2899L634.86 79.0299L634.64 80.0099H633.75L633.52 83.5599L633.93 84.1599L633.78 85.2899L633.74 87.2499C633.74 89.3099 633.54 90.6899 633.14 91.3999L633.74 92.2299L633.29 94.4199L633.74 95.0199L632.91 96.2299V96.8299L632.46 97.6599L632.76 99.3199L632.61 102.49L632.08 103.92C632.13 103.97 632.16 104.1 632.16 104.3C632.16 104.2 632.08 104.53 631.93 105.28C631.93 105.33 631.96 105.43 632.01 105.58V105.96C632.01 106.51 631.81 107.04 631.41 107.54L631.71 108.6C631.71 108.95 631.68 109.18 631.63 109.28L631.55 109.51C631.45 109.81 631.4 110.11 631.4 110.41C631.4 111.36 631.5 112.17 631.7 112.82C630.59 113.02 629.96 113.12 629.81 113.12C629.36 113.12 628.98 113.07 628.68 112.97L628.53 112.89C627.22 112.59 626.57 111.38 626.57 109.27V108.21C626.57 107.81 626.53 107.24 626.46 106.51C626.38 105.78 626.35 105.24 626.35 104.89C626.35 104.39 626.43 103.96 626.58 103.61L626.88 100.52C626.48 99.9699 626.28 99.5099 626.28 99.1599C626.28 99.0599 626.38 98.8599 626.58 98.5599C626.28 98.1599 626.13 97.8599 626.13 97.6499C626.13 97.2499 626.25 96.9199 626.51 96.6699C626.51 96.2199 626.71 95.5899 627.11 94.7799C627.01 94.3799 626.96 93.9499 626.96 93.4999C627.31 93.4999 627.49 93.3199 627.49 92.9699C627.49 92.8699 627.44 92.7099 627.34 92.4799C627.24 92.2499 627.19 92.0199 627.19 91.7599L627.49 92.0599L627.11 91.3799C627.11 90.4199 627.23 89.5999 627.49 88.8899V86.6999L627.11 85.1199L627.49 82.1799L627.11 79.9899L627.26 79.2399L626.13 79.3199L625.3 79.7699L624.7 79.6899V79.9899C623.64 79.9899 622.61 79.9099 621.61 79.7599L621.38 80.3599L618.44 79.3799L614.52 79.2999L612.03 79.9799C610.02 78.2699 609.01 77.0399 609.01 76.2799C609.01 75.8299 609.09 75.3699 609.24 74.9199V75.1499L610.9 73.7899L612.33 73.8599L617.38 74.6999L618.66 74.2499L622.51 74.3399L625.53 74.7799L627.49 74.0299L628.17 72.0699L631.19 72.8199H631.34L631.49 73.0299L632.55 74.1899L632.85 74.2599L633.91 73.8099L636.1 74.2599C638.26 73.9599 639.54 73.8099 639.95 73.8099C640.55 73.8099 641.18 73.9399 641.84 74.1899C641.99 74.1899 642.29 74.2199 642.75 74.2699H644.64L647.21 73.8199L649.4 74.1399L649.7 74.2699L650.83 73.8199L652.41 74.2699H661.84L661.81 74.2799Z" stroke="white" stroke-miterlimit="10"/>
<path d="M707.6 73.15C707.6 73.45 707.32 73.83 706.77 74.28C706.22 74.73 705.91 75.24 705.86 75.79C705.61 76.24 705.26 76.65 704.8 77C704.65 77.6 704.15 77.98 703.29 78.13L701.93 79.19L700.95 81H700.2C699.85 81.5 699.4 81.98 698.84 82.43C698.69 82.48 698.26 82.68 697.56 83.03L695.98 84.77L693.87 86.28L693.19 86.51L692.51 87.72L690.85 88.7L690.02 89.53L689.27 91.42L686.48 94.51L685.57 95.87L685.19 96.62L685.64 97.37L685.04 98.73L685.42 100.01L684.82 101.75L684.97 102.81L685.5 104.92C684.75 105.83 684.37 106.65 684.37 107.41C684.37 107.76 684.43 108.29 684.56 108.99C684.68 109.69 684.75 110.2 684.75 110.5L684.15 113.82L684.3 115.71L684 116.39L684.53 119.11L683.93 120.02L684.46 121.38L684.01 122.06L684.31 122.66C684.46 122.96 684.54 123.29 684.54 123.64V124.02L684.01 125.91L684.46 127.95L683.78 129.38L684.46 130.29V130.82C684.46 132.83 684.17 134.25 683.6 135.08C683.03 135.91 681.99 136.33 680.5 136.33L679.83 132.72L679.16 130.54L679.09 129.11L678.12 128.51L678.76 126.98L678.44 125.92L678.74 123.66L678.29 121.24L678.52 119.35V118.82C678.47 118.57 678.44 118.37 678.44 118.22C678.44 118.07 678.47 117.89 678.52 117.69V117.24L678.14 113.77L678.52 112.11L678.29 110.3L678.74 107.28L678.06 106.07L678.44 104.26L678.36 102.83L677.76 101.47C678.16 100.57 678.36 99.86 678.36 99.36C678.36 99.06 678.31 98.83 678.21 98.68L677.91 97.32L677.46 96.04L676.71 95.44L676.26 94.76C675.4 94.31 674.27 93.2 672.87 91.44L671.66 90.68L670.6 88.72L667.58 86L666.98 84.94L665.77 83.43L663.51 81.62V80.87L662.38 80.12C662.18 78.86 661.65 78.23 660.8 78.23C658.74 77.07 657.68 75.31 657.63 72.95L658.01 70.99H658.92C659.27 70.69 659.83 70.54 660.58 70.54C661.33 70.54 662.39 70.77 663.75 71.22L664.28 72.43L665.49 72.81L666.85 74.92L668.81 76.35L668.89 77.03L670.47 79.52L671.6 80.35L675.75 86.08L677.11 87.82C678.92 89.68 680.33 91.19 681.33 92.35V92.12C681.33 91.52 681.63 90.89 682.24 90.23L682.16 90.61C682.51 89.81 682.94 89.15 683.44 88.65C683.59 87.95 683.94 87.39 684.5 86.99C684.6 86.64 685.08 86.08 685.93 85.33L686.61 85.03L686.84 84.73C687.29 83.42 688.2 82.77 689.56 82.77L689.71 83.07L690.39 81.79C690.99 81.64 691.24 81.56 691.14 81.56C691.59 81.01 691.97 80.55 692.27 80.2L692.8 79.22C693.65 78.11 694.74 77.46 696.04 77.26V76.35L696.57 75.75L697.32 75.15L697.77 73.57C697.92 73.82 698.12 73.95 698.37 73.95C698.82 73.95 699.22 73.35 699.58 72.14L701.84 71.16L703.05 69.95L705.16 70.1L706.75 69.65L707.43 71.23C707.58 72.04 707.66 72.69 707.66 73.19L707.6 73.15Z" stroke="white" stroke-miterlimit="10"/>
<path d="M759.58 104.08C759.58 105.39 758.7 106.09 756.94 106.19C756.39 106.59 755.81 106.79 755.2 106.79L752.41 107.17H751.05L749.99 107.92H748.25L747.57 108.52H743.87L741.76 109.65H741.38C741.03 109.65 740.78 109.68 740.63 109.73L740.25 110.14C739.75 110.41 739.27 110.55 738.82 110.55C738.52 110.55 738.11 110.43 737.61 110.17L735.95 110.55L734.21 110.63L732.4 111.16H727.95L725.46 110.56H723.42L722.74 109.96L721.31 109.88C719.1 108.23 717.56 106.5 716.71 104.7C716.36 103.5 715.98 102.3 715.58 101.09L714.98 99.66L715.73 97.1L715.28 94.02L715.96 93.57L716.11 90.71L716.64 89.21L717.02 86.96V82.3L717.7 81.1L717.85 80.5V77.79L718.3 77.19L717.62 76.66L718.53 73.96L718.76 73.88L718.31 72.68L719.97 72C720.72 71.35 721.35 70.97 721.86 70.87L723.82 71.17L725.55 74.79L724.49 75.62C724.74 75.97 724.87 76.37 724.87 76.83L724.04 79.09V81.65L723.27 83.99L723.06 86.18L721.85 90.71V91.31C721.85 91.86 721.77 92.34 721.62 92.74L721.47 93.8L721.32 95.16L721.47 97.5L721.24 98.1L721.84 101.42L722.9 103.76V103.99L725.69 105.65L729.76 106.03H730.97L733.84 105.5H735.88L736.41 105.12H740.56L741.47 104.37H744.49L745.85 103.92L750.75 103.69L752.79 103.16C753.29 103.21 753.9 103.24 754.6 103.24L755.35 102.64C756 102.39 756.61 102.26 757.16 102.26C758.77 102.26 759.57 102.86 759.57 104.07L759.58 104.08Z" stroke="white" stroke-miterlimit="10"/>
<path d="M804.62 86.5C804.62 87.66 804.27 88.71 803.56 89.67C802.2 90.22 801.07 90.5 800.17 90.5C799.97 90.5 799.69 90.45 799.34 90.35C798.99 90.25 798.76 90.2 798.66 90.2L796.7 91.18L794.89 91.03L793.83 91.41L793.3 91.26L791.94 92.01L790.81 91.71H787.87L786.51 92.09H786.28L785.75 92.62L784.69 92.24L784.08 92.62L782.41 92.09L781.42 92.62C780.21 92.32 779.5 92.17 779.3 92.17C778.74 92.17 778.06 92.35 777.26 92.7L773.85 93L773.55 92.62L772.26 92.95L772.18 93.39L772.85 97.16L772.69 97.54L772.92 98.29V99.27C773.17 100.02 773.35 100.78 773.45 101.53L774.36 102.43L774.21 102.88L775.72 104.76C777.28 105.87 778.46 106.42 779.27 106.42H779.42C779.52 106.42 779.65 106.4 779.8 106.34H780.1C780.3 106.34 780.58 106.42 780.93 106.57L781.61 106.49C782.26 106.34 783.19 106.16 784.4 105.96L785.23 105.51L785.38 105.21L785.91 105.13L786.51 104.75L786.89 104.98L788.1 104.6L789.08 104L789.46 103.47L790.74 102.49L791.72 102.34L793.53 100.98C794.79 100.78 795.69 99.77 796.25 97.96L796.48 98.04L796.56 97.81L797.54 97.73L798.97 96.52L799.5 96.44C799.65 96.39 799.83 96.36 800.03 96.36C800.98 96.36 801.56 97.29 801.76 99.15L798.44 103.07L797.61 103.3L797.31 103.75L795.88 105.26L793.84 106.47L792.18 108.05L791.65 107.97L791.05 108.57L787.66 109.85L786.3 111.36L785.32 110.98L784.94 111.66L784.26 111.43L783.88 111.81L781.39 111.36L778.83 112.42L776.26 111.59L773.02 110.08C770.25 108.77 768.12 105.15 766.61 99.22V98.39L766.01 96.65L766.61 95.9L766.23 93.79L766.15 93.11L764.87 91.68V90.77C764.87 89.31 765.27 88.31 766.08 87.75C766.23 87.35 766.51 86.97 766.91 86.62L766.61 86.39V83.22L767.53 80.81L767.74 79.6L766.99 79.68H766.69C765.99 79.68 765.38 79.44 764.88 78.96C764.38 78.48 764.13 77.92 764.13 77.26C764.13 76.51 764.61 75.65 765.56 74.7L766.09 74.17L766.77 73.87C767.57 73.52 768.2 73.34 768.66 73.34H770.09L770.84 72.06L774.23 72.29L774.46 72.52C774.91 72.43 775.59 72.39 776.5 72.39L778.01 72.07H778.39C779.04 71.87 779.67 71.47 780.28 70.86L781.41 71.54H783.3L790.84 70.86L791.59 71.31L792.65 71.04L793.25 70.33L794.76 71.31L795.29 70.86L796.95 71.54L798.08 71.31L798.68 71.54L801.09 71.31L801.62 71.69L802.83 71.92C803.99 72.12 804.56 72.67 804.56 73.58C804.56 74.18 804.35 74.71 803.92 75.16C803.49 75.61 803.05 75.84 802.6 75.84H802.3L801.47 76.29L799.96 75.84L799.28 75.92C799.13 75.97 798.93 76 798.68 76C798.18 76 797.72 75.9 797.32 75.7L797.09 75.4C796.59 75.5 796.26 75.55 796.11 75.55C795.91 75.55 795.66 75.5 795.36 75.4C794.86 75.75 793.93 76.05 792.57 76.31C791.87 76.31 791.09 76.29 790.23 76.23C790.23 76.18 790.33 76 790.53 75.7L788.57 76.3H788.42C788.07 76.3 787.41 76.65 786.46 77.36L785.48 76.91L785.03 77.21L783.22 76.68L782.16 77.21H780.65L778.39 77.66L776.5 78.49L775.97 78.19L774.99 78.87H774.01L773.78 79.25L774.01 80.15L772.73 81.66L773.33 81.74V83.85L774.16 84.76L773.48 85.36C772.98 86.21 772.73 86.79 772.73 87.09C772.73 87.29 772.88 87.44 773.18 87.54L774.09 87.24C774.34 87.19 774.59 87.16 774.84 87.16C775.59 87.26 776.15 87.36 776.5 87.46L777.86 86.93L779.07 87.16H782.77C782.97 87.16 783.37 86.98 783.98 86.63C784.38 86.83 784.96 86.93 785.71 86.93C785.81 86.93 785.99 86.91 786.24 86.85H786.99C786.89 86.85 786.79 86.83 786.69 86.77H786.92C787.22 86.77 788.13 86.9 789.64 87.15C789.79 87.07 790.57 86.98 791.98 86.9C792.78 86.82 793.29 86.77 793.49 86.77C794.24 86.77 794.97 86.8 795.68 86.85L796.36 86.77C797.06 86.37 797.72 86.17 798.32 86.17C798.77 86.17 799.23 86.25 799.68 86.4L800.74 86.17L801.65 86.55L804.67 85.8V86.48L804.62 86.5Z" stroke="white" stroke-miterlimit="10"/>
</g>
<defs>
<clipPath id="clip0_353_520">
<rect width="434.12" height="67.79" fill="white" transform="translate(371 69)"/>
</clipPath>
</defs>
</svg>
