<?xml version="1.0" encoding="utf-8"?>
<!-- Generator: Adobe Illustrator 26.5.0, SVG Export Plug-In . SVG Version: 6.00 Build 0)  -->
<svg version="1.1" id="圖層_1" xmlns="http://www.w3.org/2000/svg" xmlns:xlink="http://www.w3.org/1999/xlink" x="0px" y="0px"
	 viewBox="0 0 1538 140" style="enable-background:new 0 0 1538 140;" xml:space="preserve">
<style type="text/css">
	.st0{fill:#146167;}
	.st1{fill:#FFFFFF;}
</style>
<path class="st0" d="M53.5,25.4c-1.5,7.5-3.9,14.1-7.1,19.7c2.6,6.8,4,5.4,4.4-3c1.4,1.4,3.6,3,5.3,3.6c-0.3,13-9.1,14.3-14.2,6.1
	c-1.6,1.9-3.3,3.6-5.2,5.1c-1.2-1.3-4.2-3.9-6-5c0.5-0.3,1-0.7,1.5-1.1H25v0.1h-5.7V24.4h16.4v5.1h-3.2v2H36v11.8h-3.5v2.3h3.6V47
	c1-1.1,1.9-2.2,2.7-3.5C37.4,38,36.4,31,35.9,22.9h-18c-0.2,10.4,1,24.5-3.6,33.7c-1.3-1-4.5-2.7-6.2-3.3c1.8-3.5,2.5-8,2.8-12.4
	H9.1c0,4.3-0.4,11.1-4.2,15.6c-1-1-3.3-2.5-4.6-3.2c2.9-3.7,3.1-9,3.1-12.4H0.9v-6.7h10.2v-2.7h-8V16.9H9V25h2.1v-9h24.4l-0.1-3h1.2
	v-1.2h-7.5V5h7.5V1.8h8.3V5H54v6.8h-2.8c1.2,1,2.4,2.1,3.1,3L52.7,16h2v7H43c0.2,3.7,0.5,7.2,0.9,10.2c0.9-2.8,1.7-5.8,2.2-8.9
	L53.5,25.4z M12,11.8H2.2V5H12V1.8h8.3V5h7v6.8h-7V14H12V11.8L12,11.8z M25,29.4v2h2.2v-2H25z M25,36.2v2.4h5.5v-2.4H25z M25,45.6
	h2.2v-2.3H25V45.6z M42.8,13.2V16h4c-0.6-0.6-1.3-1.2-2-1.7l3.5-2.5h-3.4v1.4H42.8z M108.9,3.8c-0.5,1.5-1,3-1.5,4.5
	c2.7,5.2,7.4,10.3,12.3,13.3c-1.9,1.5-4.5,4.5-5.8,6.6c-3.8-2.9-7.4-7.2-10.2-12.1c-3,5.1-6.7,9.1-11.2,12.5c-0.8-1.4-2.1-3-3.5-4.5
	c-1.7,21.6,4.4,32.2-12.1,31.4c-0.1-2.2-1-5.5-2.1-7.5c8.6,1.2,5.3-2.7,6.3-17h-4c-0.8,10.4-2.6,19.1-7.5,25.4
	c-1.3-2.1-3.8-5-5.9-6.4c5.4-7.2,5.7-18,5.8-31.9h-3.8v-7.6h9.4c-0.7-1.9-1.9-4.3-3.1-6.2l7.4-2.8c1.7,2.4,3.4,5.5,4.1,7.6l-3.5,1.4
	h10.3v7.6H77.5c0,1.8-0.1,3.6-0.1,5.4h11.1c-0.6-0.6-1.2-1.1-1.7-1.6c6.7-4.1,11.8-11.2,14.4-20.3L108.9,3.8L108.9,3.8z M97.7,38.9
	c5.2,2.8,13.2,7.4,17,10.6l-5.8,7.1c-3.4-3.3-11-8.3-16.5-11.5L97.7,38.9z M106.2,38.1c-1.9-2.4-6.5-6.1-9.8-8.6l5.3-5.4
	c3.3,2.2,8,5.6,10.2,8L106.2,38.1z M172.6,19.5c-2.7,7.8-6.4,14.3-11.1,19.7c5.8,4.1,12.7,7.2,21,9c-1.9,1.8-4.4,5.5-5.6,7.8
	c-8.8-2.3-16-5.9-22-10.6c-6.3,4.9-13.9,8.6-22.9,11.1c-0.9-2-3.4-5.9-5.1-7.9c8.8-1.9,16-4.9,21.8-9.2c-4.8-5.5-8.4-12.1-11.4-19.9
	h-9.1v-8.2h23.7c-0.6-2.3-1.6-5.2-2.7-7.5l9-2.6c1.4,2.7,3,6.3,3.6,8.7l-4.7,1.4h24.1v8.2H172.6z M146,19.5c2.2,5.3,5.3,10,9.1,14.1
	c3.4-3.9,6.1-8.6,8.1-14.1H146z M203.2,23c-0.8,7.9-1.9,18-3.7,24.8l-8.6-3.5c1.8-6.2,3.4-14.7,4-22.9L203.2,23L203.2,23z
	 M214.8,18.6v25.8c0,2.8,0.3,3.2,2.9,3.2c7.5-0.5,9.9,3.1,10.1-10.2c1.9,1.4,5.6,2.9,7.8,3.5c-0.4,16.3-8.1,14.6-19,14.4
	c-8.2,0-10.5-2.6-10.5-10.9V18.6L214.8,18.6L214.8,18.6z M213.3,2.1c5.2,3.1,12.7,8,16.3,11.5l-6.2,6.6c-3.2-3.6-10.4-8.9-15.8-12.4
	L213.3,2.1z M238.5,19.4c3.2,6.8,6.1,15.5,7.3,21.4l-8.5,3.6c-0.9-5.9-3.7-15-6.6-21.8L238.5,19.4z M287.4,25.5
	c3.7,10.4,10.4,18.8,21,22.9c-2.1,1.8-4.9,5.5-6.2,7.9C292,51.6,285.7,44,281.3,33.8c-3.3,8.8-9.4,16.8-20.7,22.5
	c-1.3-2.3-3.9-5.3-6.3-7.1c12.6-5.7,17.9-14.3,20.2-23.7h-19v-8.7h20.4c0.4-5.1,0.4-10.1,0.4-14.9h9.2c-0.1,4.8-0.1,9.8-0.6,14.9
	h22.1v8.7C306.9,25.5,287.4,25.5,287.4,25.5z M346.4,45.6c0.7,8.5-1.4,10.7-10.1,10.3c-0.3-2-1.2-4.6-2.1-6.4
	c4.4-0.2,5.4,1.4,5.1-3.3l-5.9,0.6l-0.5-4c-4.7,2.3-9.5,4.6-13.7,6.5l-2.4-8.3c1.5-0.5,3.3-1.2,5.3-2V23.3h-4.2v-7.9h4.2V2.8h7.2
	v12.7h4.1v7.9h-4.1v12.9l3.9-1.6l1.4,5.5c1.5-0.1,3.1-0.2,4.7-0.3v-2.5h0.1l-0.1-0.1c0.7-0.5,1.4-1,2.2-1.7h-7.7v-6
	c0.4,0,15.4,0.2,15.1-0.4l4.1,3.2c-1.8,2.1-4.2,4.4-6.6,6.3v0.5l5.9-0.5l0.1,6.3L346.4,45.6L346.4,45.6z M353.1,14.2h-19.7V7.8h6.2
	c-0.4-1.4-0.9-2.8-1.4-4l7-1.4c0.8,1.6,1.6,3.7,2.1,5.5h5.8V14.2z M369.2,20.6c-0.8,7.9-2.1,14.8-4.3,20.6c1.8,4,4.2,7.4,7.4,9.6
	c-1.5,1.3-3.7,4-4.8,5.8c-2.6-2.1-4.7-4.8-6.3-8c-2,3.2-4.5,5.9-7.5,8.2c-0.8-1.4-3.2-4.2-4.5-5.5c3.9-2.7,6.8-6.3,8.8-10.8
	c-0.9-3-1.6-6.4-2.2-9.9c-0.3,0.6-0.6,1.1-0.9,1.6c-0.6-1.2-2.2-3.5-3.5-5.1V28h-16.4V15.9h16.4v7.5c2.6-5.7,4-13.6,4.8-21.4
	l7.2,1.2c-0.5,3.5-1,7-1.8,10.5h9.6v7H369.2z M345,20.9h-4.4v2.1h4.4V20.9z M359.9,20.6c0.3,3.1,0.8,6,1.4,8.9
	c0.5-2.8,0.9-5.8,1.1-8.9H359.9z M19.1,121.6c-1.1-1.6-3.8-5.1-5.8-7.6v25.6h-2.6v-24.8c-2.4,2.9-4.9,5.4-7.4,7.4
	c-0.3-0.8-1.1-1.9-1.6-2.4c5.8-4.4,12.1-12,15.4-19.6H2.8v-2.6h15.6l0.5-0.1l1.5,1c-1.6,4.3-4,8.6-6.7,12.4c1.9,2.1,6,7.2,7.2,8.6
	L19.1,121.6z M12.2,96.5c-0.9-2-2.9-5.1-4.8-7.3l2-1.3c2,2.2,4,5.2,4.9,7.2L12.2,96.5L12.2,96.5z M54.2,136.1v2.4H20.1v-2.4h11.5
	c-0.5-1.9-1.5-4.3-2.5-6.3l2.3-0.6c1,2.2,2.2,5.1,2.8,6.9h6.9c1.2-2.1,2.5-5.1,3.2-7.1l2.6,0.8c-1.1,2.2-2.2,4.5-3.4,6.4H54.2
	L54.2,136.1z M53.6,114.3H21.7v-2.4h31.9V114.3z M51.9,108.6H23.7v-16h8.6v-4.9h2.4v4.9h6.1v-4.9h2.4v4.9h8.8L51.9,108.6L51.9,108.6
	z M25.5,128.1v-10.3h24.7v10.3H25.5L25.5,128.1z M26.2,99.5h6.3v-4.7h-6.3V99.5z M26.2,106.5h6.3v-4.9h-6.3V106.5z M28,125.9h19.7
	v-6H27.9L28,125.9L28,125.9z M40.7,99.5v-4.7h-6.1v4.7H40.7z M34.6,101.6v4.9h6.1v-4.9H34.6z M49.5,94.7H43v4.7h6.5V94.7z
	 M49.5,101.6H43v4.9h6.5V101.6z M78.8,115.8c-0.8,4.9-2,9.1-3.6,12.7c5.9,11.3,30.3,7.5,42.7,7.2c-0.5,0.7-0.7,1.9-0.9,2.7
	c-12.5,0-36.8,3.5-42.9-7.6c-2,3.9-4.5,6.8-7.4,9c-0.4-0.6-1.4-1.6-2-2c5.3-3.7,9.3-10.5,11-20.1c-2,0.2-8.2-0.5-9.6,0.8
	c-0.2-0.8-0.9-2.2-1.2-2.9c4.2-1.5,6.5-7.4,10.2-12.3h-9.7v-2.5H77l0.6-0.3l2.1,1c-2.4,3.4-6.8,9.9-10,13.7
	C71.2,115.4,77.7,114.8,78.8,115.8L78.8,115.8z M74.7,98.1c-1.4-2.4-4.3-6.4-6.7-9.3l2.1-1.2c2.5,2.9,5.4,6.7,6.7,9.1L74.7,98.1
	L74.7,98.1z M82.7,114.7H80v-2.3h2.6v-2.5h2.5v2.5H97v-4.5H85.3V89.7h26.4v18.2H99.5v4.5h15.9v17.4c-0.5,4.4-3.8,2.5-9,3
	c-0.1-0.7-0.5-1.5-0.9-2.1c3.7-0.3,6.9,1,7.4-0.9c0,0,0-15.1,0-15.1H99.5v7.4l6.8-0.6c-0.8-1.5-1.6-3.2-2.4-4.5l2-0.5
	c1.8,3,3.8,7.3,4.5,9.9l-2,0.6c-0.3-1-0.8-2.2-1.3-3.5c-7.2,0.7-14.4,1.4-19.7,2l-0.3-2.4c2.7-0.2,6.1-0.5,9.8-0.8v-7.6H85.1v17.9
	h-2.5L82.7,114.7L82.7,114.7z M87.7,97.7H97V92h-9.3V97.7z M97,105.7v-5.8h-9.3v5.8H97z M109.2,92h-9.7v5.7h9.7V92z M109.2,99.8
	h-9.7v5.8h9.7V99.8z M133.8,124.3c-0.8,4.9-1.9,10.4-3.2,14c-0.5-0.2-1.7-0.7-2.4-0.9c1.4-3.7,2.4-8.8,3-13.6L133.8,124.3z
	 M146.2,122.1c-0.2-1.2-0.5-2.5-0.9-4c-13.1,2-14.7,2.4-15.6,2.9c-0.2-0.6-0.6-2-1-2.8c4-2.2,5.9-6,9.9-11.4
	c-7.4,0.8-8.6,1.1-9.4,1.4c-0.1-0.6-0.6-2-0.9-2.7c4.6-3.4,7.2-9.3,11.6-18l2.6,1.1c-2.9,5.9-6.3,11.8-9.8,16.4l7.6-0.8
	c1.6-2.4,3.1-5,4.4-7.6l2.5,1.4c-4.1,7.1-9,14.1-13.8,19.4l11.3-1.6c-0.6-2.1-1.3-4.3-2-6.2l2.5-0.5c1.4,3.9,3,9.1,3.4,12.1
	C148.8,121.4,146.3,122.1,146.2,122.1z M139.2,123.8c0.7,4,1.4,9.1,1.6,12.5l-2.4,0.5c-0.2-3.4-0.8-8.6-1.4-12.6
	C136.9,124.2,139.2,123.8,139.2,123.8z M144.5,122.6c1.2,3.2,2.6,7.4,3.2,10.2l-2.3,0.7c-0.5-2.8-1.8-7.1-3.1-10.3
	C142.4,123.1,144.5,122.6,144.5,122.6z M181.1,136.2c-0.4,0.6-0.8,1.8-0.9,2.6c-10.3,0-20.9,1.7-24.8-11.5
	c-1.3,4.9-3.4,9.4-6.8,12.5c-0.4-0.6-1.3-1.4-1.9-1.7c5.8-4.9,7.3-14.7,7.8-23h2.6c-1.9,6.8,0.6,17.3,6.3,19.4v-25.6h-12.1v-2.5
	h27.2v2.5h-12.5v10.3h12v2.6h-12v13.7C169.6,136.6,177.4,136.1,181.1,136.2L181.1,136.2z M152.6,104.1H150v-9h14.8
	c-0.8-2.1-2.2-4.8-3.5-6.9l2.3-0.8c1.6,2.4,3.2,5.5,4,7.7H180v9h-2.6v-6.5h-24.8V104.1z M214.4,108.7c-1.9,23.7,3.4,32.1-11.7,30.2
	c-0.1-0.8-0.3-1.9-0.8-2.6c3.8-0.1,5.8,1,7.8-0.5c1-1.3,1.5-7.3,1.9-24.5h-9.6c0.1,10-0.8,20-9,28.5c-0.5-0.6-1.3-1.3-2.1-1.8
	c10.7-11,8-25,8.4-38.1h-7.5v-2.6h25.5v2.6h-15.4v8.8C202.1,108.7,214.4,108.7,214.4,108.7z M204.8,96.3c-0.6-2.1-1.9-5.4-3.2-7.8
	l2.4-0.9c1.3,2.5,2.7,5.6,3.4,7.6L204.8,96.3z M239.9,101.1c-1.7,9.8-4.2,17.7-8.1,24c3.2,5.5,7.4,9.7,12.7,12.2
	c-0.6,0.5-1.5,1.5-2,2.3c-5.1-2.6-9.1-6.8-12.3-12.1c-3.6,5.1-8.4,9-14.5,12.2c-0.3-0.6-1.2-1.9-1.8-2.4c6.4-3.1,11.2-7.1,14.8-12.4
	c-2.8-5.4-4.8-11.8-6.3-18.8c-1.4,3.4-3.1,6.4-4.8,8.9c-0.5-0.5-1.7-1.4-2.3-2c4.6-6.1,7.9-15.8,9.8-25.6l2.8,0.5
	c-0.8,3.5-1.6,7.1-2.7,10.4H244v2.6C244,101.1,239.9,101.1,239.9,101.1z M224.3,101.1c0.4,7.8,3.3,15.3,6,21.3
	c3.3-5.8,5.3-12.8,6.8-21.3H224.3z M301,100.6c-6.9,10.4-20.4,22.9-32.2,29.8c8.7,7.7,28,3.7,38.5,3.6c-0.3,0.8-0.8,2.3-0.9,3.1
	c-9.4,0-27.9,2.7-35.9-2.5c-6.1-5.5-7.4-3.2-12.9,3.6l-2.1-2.5c4.1-4.2,7.1-7.8,10.8-7c11-6.2,23.4-17.5,30.1-26.7h-37.9v-2.7
	c0.6-0.2,40,0.4,40.5-0.2L301,100.6L301,100.6z M283,98.4c-1.1-2.5-3.7-6.6-5.9-9.6l2.4-1.2c2.3,3,5,7,6.1,9.4L283,98.4z
	 M326.8,108.8c-1,6.3-3,15.9-5.6,21.8l-2.6-1.2c2.7-5.8,4.7-14.9,5.6-21.2L326.8,108.8L326.8,108.8z M335.4,103.4v29.4
	c0,2.6,0.8,3.2,4.3,3.2c13.8-1.1,17.4,5.1,17.7-12.7c0.8,0.5,1.8,1,2.6,1.3c-0.5,10.9-1.5,14-7.5,14h-12.8c-5.5,0-7.1-1.2-7.1-5.9
	v-29.4H335.4z M337.6,90.3c5.4,3.9,12.1,9.5,15.4,13.2l-1.9,2c-3.2-3.6-9.8-9.4-15.2-13.4L337.6,90.3L337.6,90.3z M362.6,106.9
	c3.5,6.9,6.8,15.9,8,21.8l-2.7,0.9c-1.1-5.9-4.4-14.9-7.8-21.8L362.6,106.9L362.6,106.9z"/>
<path class="st1" d="M1141.4,12.5c-0.9,7-2.4,12.8-4.8,17.6c2.1,3.5,4.8,6.2,8.1,8c-0.9,0.7-2.2,2.3-2.8,3.4c-3-1.9-5.5-4.5-7.5-7.7
	c-2.2,3-4.9,5.6-8.3,7.8c-0.4-0.8-1.6-2.6-2.3-3.4c3.7-2.1,6.5-4.8,8.6-8.2c-1.6-3.4-2.8-7.3-3.8-11.6c-0.8,1.9-1.7,3.6-2.7,5.1
	c-0.5-0.8-1.9-2.6-2.7-3.4c0.6-0.9,1.2-1.9,1.7-2.9h-21.5v-3.5h4.9V9.1h-4.2V5.6h4.2V0.9h3.8v4.7h4.9V0.9h3.8v4.7h4.3V9h-4.3v4.7
	h4.2v3.1c2.1-4.5,3.4-10.4,4.1-16.3l3.9,0.5c-0.4,2.6-0.8,5.2-1.4,7.7h12.6v3.9H1141.4z M1122.7,37.5c0,4.5-3.1,3.8-7.3,4
	c-0.1-1-0.6-2.5-1.2-3.5c1.9-0.2,4.6,0.6,4.5-0.6c0,0,0-4.6,0-4.6c-2.9,1.3-5.6,2.5-8.1,3.6l-1.2-2.8c-0.4,3-1.2,5.9-3,8.2
	c-0.7-0.7-2.3-1.8-3.1-2.2c4.1-5.7,2.5-13.7,2.8-20.1h16.5V37.5z M1109.9,28.1c0,1.5,0,3.2-0.3,4.9c2.4-0.7,5.8-1.8,9.2-3v-7.4h-8.9
	V28.1z M1111.9,23.7c2.3,1.1,4.9,2.5,6.4,3.5l-1.9,2.6c-1.4-1.1-4.1-2.8-6.3-3.9L1111.9,23.7L1111.9,23.7z M1111.9,13.7h4.9V9.1
	h-4.9V13.7z M1130.7,12.5c0.8,4.8,2.1,9.4,3.7,13.4c1.6-3.8,2.6-8.2,3.2-13.4H1130.7z M1178.2,27.3c3.6,3.7,10.5,7.4,18.3,9
	c-0.8,0.9-2.1,2.6-2.6,3.7c-6.4-1.6-11.9-4.9-15.7-8.2v9.8h-4.4v-9.9c-4.2,3.9-10,7-15.8,8.6c-0.5-1-1.8-2.6-2.6-3.5
	c7.3-1.6,14.6-5.3,18.5-9.9v-3.5h-9.9v8.2h-4.4V19.7h14.3v-2.9h-17.3v-3.6h17.3v-2.6h3.6c-0.8-0.7-2-1.7-2.8-2.2
	c2.4-2,4.5-5.1,5.6-8.3L1184,1c-0.3,0.8-0.6,1.6-0.9,2.4h12.8v3.3h-8.8c1.4,1.1,3,2.5,3.9,3.4l-2.8,2.5c-1-1.2-3-3.1-4.6-4.3
	l1.9-1.6h-4.3c-1,1.5-2.1,2.8-3.2,3.9h0.2v2.6h16.6v3.6h-16.6v2.9h14.2v7.9c0,4.5-3.6,3.6-7.4,3.9c-0.3-1.1-0.9-2.4-1.4-3.3
	c1.9-0.1,4.6,0.6,4.6-0.5c0,0,0-4.3,0-4.3h-9.9L1178.2,27.3L1178.2,27.3z M1162.7,6.6c-1.4,2.2-3,4.2-4.6,5.8
	c-0.6-0.7-2-2.1-2.8-2.7c2.6-2.4,5.1-6,6.5-9.6l3.7,1.1c-0.3,0.8-0.6,1.5-1,2.2h10.7v3.3h-7.5c1.3,1.2,2.8,2.6,3.6,3.5l-2.7,2.4
	c-0.9-1.2-2.8-3.1-4.3-4.5l1.7-1.4L1162.7,6.6L1162.7,6.6z M1211.5,27.2c3.4-1.3,5.5-3.4,5.7-6.1c-5.3,1-6-7.3-0.6-7.1
	c2.8,0,4.3,2.2,4.3,5.6c0,5-3.1,8.8-8.2,10.5L1211.5,27.2L1211.5,27.2z M1277.6,18.2v4.6h-40.8v-4.6H1277.6z M1295.8,17
	c0,7-0.6,17.5-4.3,24.3c-0.8-0.8-2.5-1.9-3.5-2.4c5.1-10.3,3.4-23.3,3.7-34.1h18.1c-0.6-1.2-1.3-2.5-2.1-3.5l3.9-1.3
	c1.1,1.5,2.2,3.3,2.9,4.8h14.5v3.8h-33.3L1295.8,17L1295.8,17z M1314.5,36.8h14.9v3.6h-33.6v-3.6h14.7v-5.7h-11.9v-3.6h11.9V10.3h4
	v12.2c3.2-2.6,5.2-6.7,5.9-11.5l3.8,0.5c-0.4,2-0.8,3.8-1.5,5.4c2.4,2.1,5.2,4.4,6.7,6l-2.4,2.7c-1.2-1.5-3.5-3.6-5.7-5.5
	c-1.2,2.1-2.6,3.8-4.3,5.2c-0.5-0.5-1.6-1.4-2.4-2.1v4.2h12.2v3.6h-12.2L1314.5,36.8L1314.5,36.8z M1306.1,11.4
	c-0.3,1.9-0.7,3.6-1.2,5.2c2,1.8,4.2,3.9,5.3,5.3l-2.4,2.8c-0.9-1.2-2.6-3.1-4.3-4.8c-1.1,2.3-2.6,4.2-4.4,5.8
	c-0.6-0.6-2.2-1.8-3.1-2.3c3.5-2.7,5.5-7.1,6.3-12.4L1306.1,11.4z M1354.4,27.5c-0.1-0.7-0.3-1.5-0.6-2.4
	c-9.6,1.6-11.1,1.9-12.1,2.4c-0.2-0.8-0.8-2.7-1.2-3.8c2.7-1.3,4.2-4,6.8-7.4c-4.2,0.5-5.2,0.7-5.9,1c-0.2-0.8-0.8-2.6-1.2-3.6
	c3.7-2.5,5.4-7,8.4-13.6l3.8,1.6c-1.9,4-4.3,8.1-6.8,11.4l4.1-0.4c1.2-1.8,2.2-3.7,3.2-5.5l3.4,2.1c-2.7,4.8-6.1,9.5-9.5,13.4
	l6.1-0.8c-0.5-1.3-0.9-2.6-1.4-3.8l3.2-1c1.2,2.9,2.6,6.7,3.2,9L1354.4,27.5L1354.4,27.5z M1345.8,29.8c-0.4,3.9-1.2,8.1-2.1,10.8
	c-0.8-0.4-2.5-0.9-3.4-1.2c1-2.7,1.7-6.6,2-10.2L1345.8,29.8L1345.8,29.8z M1350.8,29.1c0.6,3.2,1.1,7.2,1.2,9.9l-3.4,0.7
	c-0.1-2.7-0.6-6.8-1.1-10L1350.8,29.1L1350.8,29.1z M1355.5,27.7c1,2.6,2.1,6,2.5,8.3l-3.3,1.1c-0.4-2.2-1.4-5.8-2.3-8.5
	L1355.5,27.7L1355.5,27.7z M1375.6,37.2c3.1,0.3,2.5-1.8,2.7-4.8c0.9,0.8,2.2,1.4,3.5,1.8c-0.1,4.5-1.3,6.9-5.8,6.6
	c-2.1-0.1-5.5,0.4-7.2-0.9c-1.9-0.4-1.4-8.1-1.5-10.6h-8.2V13.7h3.6v11.8h4.6V9.9h-9.1V6.1h9.1V0.5h3.8v5.6h10.3v3.8h-10.3v15.5h4.8
	V13.7h3.7v17.7h-3.7v-2.1h-4.8c0.2,1.4-0.5,6.8,0.5,7.7C1372.4,37.3,1374.7,37.1,1375.6,37.2L1375.6,37.2z M1432.9,35.3h-18v6.1
	h-4.2v-6.1H1393v-3.4h17.8v-2.1h3.8c-0.6-0.5-1.2-0.9-1.7-1.2c3.1-1.4,5.6-3.7,6.8-6.6h-13.8l1.8,0.4c-0.4,0.8-0.8,1.5-1.2,2.2
	c1.8,1,4,2.4,5.2,3.4l-2.5,2.3c-1-0.9-2.9-2.2-4.7-3.3c-1.8,1.8-3.9,3.3-6.1,4.4c-0.5-0.6-2-1.8-2.8-2.3c3.7-1.5,6.9-4,8.4-7.1h-9.2
	v-3.3h16.1c-0.3-0.8-0.8-1.6-1.2-2.3c-1.2,0.4-3,0.4-5.5,0.4c-0.2-0.9-0.7-2.1-1.1-2.9c2-0.1,4.6,0.7,4.7-0.6c0,0,0-8.3,0-8.3h-9.9
	c2.3,0.7,5.4,1.7,7,2.4l-1.3,2.5l2.1-0.8l0.6,2.7c-3.7,1.5-7.6,3.1-10.7,4.4l-1.3-3.1c2.4-0.7,5.7-1.9,9.1-3.1c-1.7-0.8-5-2-7.6-2.8
	l1.3-2.1h-2.6V1.8h16.8v11.6c0,1.7-0.3,2.4-1.3,2.9l3.4-0.7c0.6,1,1.3,2.2,1.8,3.2h15.7V22H1421l2.4,0.4c-0.3,0.9-0.6,1.6-1.1,2.3
	c2.4,1.2,5.1,2.7,6.6,3.8l-2.4,2.5c-1.3-1.1-3.8-2.5-6.1-3.8c-1.3,1.4-2.9,2.7-4.6,3.6c-0.2-0.2-0.5-0.4-0.8-0.7V32h18L1432.9,35.3
	L1432.9,35.3z M1413.4,13.1c2.3-0.7,5.7-1.9,9.1-3.2c-1.8-0.8-5.1-2-7.6-2.8l1.2-2.1h-2.6V1.8h16.9v11.8c-0.1,4.4-3.4,3.3-7.5,3.5
	c-0.1-0.9-0.6-2.1-1.1-2.9c2-0.1,4.6,0.6,4.7-0.6c0,0,0-8.6,0-8.6h-9.8c2.4,0.7,5.5,1.7,7.1,2.4l-1.3,2.5L1425,9l0.6,2.7
	c-3.7,1.6-7.7,3.2-10.8,4.5L1413.4,13.1L1413.4,13.1z M1457.4,28.2c-0.5-1.2-1.6-3.4-2.6-5.4v18.8h-3.9V24.7
	c-1.4,3.7-3.1,7.1-4.8,9.5c-0.4-1.2-1.4-3-2.1-4.1c2.4-3,5-8.4,6.4-13.1h-5.3v-3.9h5.8V6.7c-1.5,0.3-3,0.6-4.3,0.8
	c-0.2-0.9-0.8-2.3-1.2-3.2c4.2-0.9,8.9-2.1,11.9-3.5l2.5,3.4c-1.5,0.6-3.2,1.2-5,1.7v7.3h5v3.9h-5v0.9c1.1,1.4,4.3,5.9,5.1,7.1
	c0.9-3.3,1.5-7.3,1.8-10.8l3.1,0.8c-0.4,4.6-1.3,10.7-2.9,14.3l-3.2-1.1c0.4-0.9,0.8-1.9,1.1-3L1457.4,28.2L1457.4,28.2z
	 M1477.2,37.4c1.4,0,1.7-1.1,1.9-6.4c0.9,0.7,2.5,1.3,3.5,1.6c-0.4,6.5-1.4,8.4-5.1,8.4c-4.4-0.3-11.2,1.7-10.8-5.1
	c-1.6,1.7-3.4,3.2-5.2,4.7c-0.6-0.8-2.4-2.2-3.4-2.8c3.2-2.2,6.1-4.9,8.6-8.1V10.4h3.9v13.7c3.7-6,6.5-13.1,8.5-20.9l4,0.8
	c-1.2,4.5-2.7,8.7-4.3,12.7l2.8-0.8c1.8,4.1,3.5,9.4,4.1,13l-3.8,1.1c-0.5-3.3-2-8.3-3.5-12.3c-2.2,5-4.7,9.5-7.7,13.5
	C1470.6,38.9,1470.1,37.2,1477.2,37.4L1477.2,37.4z M1473.9,9.9c-1.8-1.9-5.5-4.8-8.3-6.7l2.5-2.8c2.8,1.7,6.6,4.5,8.5,6.3
	L1473.9,9.9L1473.9,9.9z M1510.7,30.6c-4.6,1.9-9.4,3.8-13.3,5.3l-1.4-4.2c1.5-0.5,3.4-1.1,5.4-1.8V15.1h-4.7v-3.9h4.7V1h4.1v10.2
	h4.1v3.9h-4.1v13.3l4.4-1.6L1510.7,30.6z M1531.7,37.7c2.7,0.1,1.9-2,2.2-4.6c0.8,0.7,2.2,1.4,3.3,1.8c0,4.2-1,6.4-5.1,6.1
	c-1.8-0.1-4.7,0.3-6.1-0.9c-1.8-0.9-0.9-8-1.1-10h-3.6c-0.8,6.2-3,9.7-11.3,11.7c-0.3-1-1.3-2.5-2.1-3.3c7.1-1.4,8.9-3.8,9.5-8.5
	h-4.2V17h20.7v13h-5c0.2,0.8-0.4,7,0.3,7.5C1529.4,37.8,1531.1,37.6,1531.7,37.7z M1535.9,15.1H1511v-3.5h5.9
	c-0.3-1.1-0.8-2.6-1.2-3.7l3.4-0.8c0.6,1.3,1.2,3.1,1.5,4.2l-0.8,0.2h6.3c0.5-1.4,1.2-3.1,1.6-4.4l3.8,0.8c-0.6,1.2-1.2,2.5-1.8,3.6
	h6.2L1535.9,15.1L1535.9,15.1z M1534.8,6.8h-22.5V3.4h9.2c-0.3-0.9-0.6-1.8-1-2.6l3.8-0.8c0.5,1,1.1,2.2,1.4,3.3h9V6.8z
	 M1516.8,22.1h12.9v-2.4h-12.9V22.1z M1516.8,27.2h12.9v-2.5h-12.9V27.2z M1075.2,87.2v1h-5.8v14.6h-1.2V88.2h-5.8v-1H1075.2
	L1075.2,87.2z M1097.6,87.2v15.6h-1.2v-7.4h-10.3v7.4h-1.2V87.2h1.2v7.2h10.3v-7.2H1097.6z M1117.4,87.2v1h-7.2v6.2h7v1h-7v6.3h7.4
	v1h-8.6V87.2H1117.4z M1155.9,87.2v15.6h-1l-11.7-13.7v13.7h-1.2V87.2h1l11.7,13.7V87.2H1155.9z M1173.4,87.1l7.1,15.7h-1.2
	l-2.4-5.4h-7.5l-2.4,5.4h-1.2l7.1-15.7H1173.4z M1176.4,96.4l-3.3-7.4l-3.3,7.4H1176.4z M1199.1,87.2v1h-5.8v14.6h-1.2V88.2h-5.8v-1
	H1199.1L1199.1,87.2z M1220.2,87.2h1.2c-0.2,5.3,1.7,16.1-6.5,15.8c-8.3,0.2-6.2-10.5-6.4-15.8h1.2c0.4,4.5-2,14.9,5.2,14.7
	C1222.1,102.1,1219.8,91.7,1220.2,87.2L1220.2,87.2z M1232.5,87.2c2.1,0.1,6.3-0.4,7.7,1.1c2.3,2,1.5,5.8-1.6,6.7
	c1.4,0.7,4.5,6.4,5.5,7.8h-1.4c-1-1.5-3.6-6.2-4.8-7c-0.8-0.7-3.1-0.5-4.3-0.5v7.5h-1.2V87.2z M1233.7,88.2v6.1
	c2.5,0,6.6,0.4,6.6-3.1C1240.3,87.9,1236.2,88.2,1233.7,88.2L1233.7,88.2z M1261.7,87.2v1h-7.2v6.2h7v1h-7v6.3h7.4v1h-8.6V87.2
	H1261.7z M1287.5,87.2v15.6h-1.2V87.2H1287.5z M1312.8,87.2v15.6h-1l-11.7-13.7v13.7h-1.2V87.2h1l11.7,13.7V87.2H1312.8z
	 M1346.3,87.2l-6,7.2v8.4h-1.2v-8.4l-6-7.2h1.4l5.2,6.2l5.1-6.2H1346.3L1346.3,87.2z M1361.6,87c10.7-0.1,10.7,16.1,0,16
	C1350.9,103.1,1350.9,86.9,1361.6,87z M1361.6,101.9c9,0.1,9-13.9,0-13.8C1352.6,88.1,1352.6,102,1361.6,101.9z M1391.9,87.2h1.2
	c-0.2,5.3,1.7,16.1-6.5,15.8c-8.3,0.2-6.2-10.5-6.4-15.8h1.2c0.4,4.5-2,14.9,5.2,14.7C1393.8,102.1,1391.5,91.7,1391.9,87.2
	L1391.9,87.2z M1404.2,87.2c2.1,0.1,6.3-0.4,7.7,1.1c2.3,2,1.5,5.8-1.6,6.7c1.4,0.7,4.5,6.4,5.5,7.8h-1.4c-1-1.5-3.6-6.2-4.8-7
	c-0.8-0.7-3.1-0.5-4.3-0.5v7.5h-1.2V87.2z M1405.4,88.2v6.1c2.5,0,6.6,0.4,6.6-3.1C1412,87.9,1407.9,88.2,1405.4,88.2L1405.4,88.2z
	 M1451.8,87.2v15.6h-1.2v-7.4h-10.3v7.4h-1.2V87.2h1.2v7.2h10.3v-7.2H1451.8z M1471.6,87.2v1h-7.2v6.2h7v1h-7v6.3h7.4v1h-8.6V87.2
	H1471.6z M1488.2,87.1l7.1,15.7h-1.2l-2.4-5.4h-7.5l-2.4,5.4h-1.2l7.1-15.7H1488.2z M1491.2,96.4l-3.3-7.4l-3.3,7.4H1491.2z
	 M1505.1,87.2c2.1,0.1,6.3-0.4,7.7,1.1c2.3,2,1.5,5.8-1.6,6.7c1.4,0.7,4.5,6.4,5.5,7.8h-1.4c-1-1.5-3.6-6.2-4.8-7
	c-0.8-0.7-3.1-0.5-4.3-0.5v7.5h-1.2V87.2z M1506.3,88.2v6.1c2.5,0,6.6,0.4,6.6-3.1C1512.9,87.9,1508.8,88.2,1506.3,88.2L1506.3,88.2
	z M1536.3,87.2v1h-5.8v14.6h-1.2V88.2h-5.8v-1H1536.3L1536.3,87.2z"/>
</svg>
