<?xml version="1.0" encoding="utf-8"?>
<!-- Generator: Adobe Illustrator 26.5.0, SVG Export Plug-In . SVG Version: 6.00 Build 0)  -->
<svg version="1.1" id="圖層_1" xmlns="http://www.w3.org/2000/svg" xmlns:xlink="http://www.w3.org/1999/xlink" x="0px" y="0px"
	 viewBox="0 0 99 134" style="enable-background:new 0 0 99 134;" xml:space="preserve">
<style type="text/css">
	.st0{fill:#FFFFFF;}
</style>
<path class="st0" d="M21.3,6h-6.9V5.1H16V3.4h-1.4V2.5H16V0.9h1v1.6h1.8V0.9h1v1.6h1.4v0.9h-1.4v1.7h1.5L21.3,6L21.3,6z M20.4,12.8
	c0,1.3-0.9,1-2.2,1.1c0-0.3-0.2-0.6-0.3-0.9c2.2,0.3,1.5-0.5,1.6-2c-1,0.4-2,0.8-2.8,1.2l-0.4-0.9c0.8-0.2,2-0.7,3.2-1.1V7.7h-3.1
	c0,2.1,0.2,4.5-1.1,6.3c-0.2-0.2-0.6-0.5-0.8-0.6c1.3-1.9,0.8-4.4,0.9-6.5h5.1L20.4,12.8L20.4,12.8z M17,8.2
	c0.8,0.4,1.7,0.8,2.2,1.2l-0.5,0.7c-0.5-0.3-1.4-0.9-2.1-1.3L17,8.2L17,8.2z M16.9,5.1h1.8V3.4h-1.8V5.1z M26.4,4.4
	c-0.3,2.3-0.8,4.3-1.6,5.9c0.7,1.2,1.6,2.1,2.7,2.7c-0.2,0.2-0.6,0.6-0.7,0.9c-1-0.6-1.9-1.5-2.5-2.6c-0.7,1.1-1.6,1.9-2.8,2.6
	c-0.1-0.2-0.4-0.6-0.6-0.8c1.2-0.7,2.1-1.6,2.8-2.8c-0.6-1.2-1-2.7-1.4-4.2c-0.3,0.7-0.6,1.3-0.9,1.9c-0.1-0.2-0.5-0.6-0.7-0.8
	c1-1.5,1.6-3.9,2-6.3l1,0.2c-0.1,0.8-0.3,1.7-0.5,2.5h4.2v1L26.4,4.4L26.4,4.4z M24.3,9.2c0.6-1.3,1-2.9,1.2-4.8h-2.6
	C23.2,6.2,23.6,7.8,24.3,9.2z M21.5,25.2c1.1,1.3,3.4,2.6,6,3.2c-0.2,0.2-0.5,0.7-0.7,0.9c-2.2-0.6-4.1-1.8-5.3-2.9v3.4h-1.1v-3.5
	c-1.4,1.4-3.4,2.5-5.3,3c-0.1-0.3-0.4-0.7-0.7-0.9c2.4-0.5,4.7-1.8,6-3.4v-1.2h-3.5v2.8h-1.1v-3.7h4.6v-1.1h-5.6v-0.9h5.6V20h1.1
	v0.9h5.4v0.9h-5.4v1.1h4.6c-0.1,1.8,0.7,4.2-2.2,3.7c-0.1-0.3-0.2-0.6-0.4-0.8c2.1,0.3,1.4-0.4,1.5-1.9h-3.6L21.5,25.2L21.5,25.2z
	 M16.6,18.6c-0.4,0.7-1,1.4-1.5,1.9c-0.2-0.2-0.5-0.5-0.7-0.7c0.9-0.8,1.7-1.9,2.2-3.1l0.9,0.3c-0.1,0.3-0.2,0.6-0.4,0.8h3.7v0.9
	h-2.7c0.5,0.4,1,0.9,1.3,1.3l-0.7,0.6c-0.3-0.4-0.9-1-1.4-1.5l0.6-0.4C17.8,18.6,16.6,18.6,16.6,18.6z M22.5,18.6
	c-0.3,0.5-0.7,1-1.1,1.3c-0.2-0.2-0.6-0.5-0.8-0.6c0.8-0.7,1.4-1.6,1.8-2.7l1,0.2c-0.1,0.3-0.2,0.6-0.4,0.9h4.3v0.8h-3.1
	c0.5,0.4,1.1,0.9,1.4,1.3l-0.7,0.6c-0.3-0.4-1-1-1.5-1.4l0.6-0.5C24.1,18.6,22.5,18.6,22.5,18.6z M19.4,37.6
	c1.1-0.5,1.7-1.1,1.8-2.1c-1.5,0.4-1.8-2.1-0.2-2c2.5,0.5,0.8,4.5-1.3,4.9C19.7,38.3,19.3,37.6,19.4,37.6z M27.3,47.2v1.2h-13v-1.2
	H27.3z M16.4,59.8c0,3.4,0.3,7.3-1.3,10.5c-0.2-0.2-0.6-0.5-0.9-0.6c1.6-3.3,1.1-7.5,1.2-10.9h6c-0.2-0.4-0.5-0.9-0.8-1.3l1-0.3
	c0.4,0.5,0.7,1.1,1,1.6h4.7v1H16.4z M22.3,69h4.9V70H16.4V69h4.9v-2.1h-3.9V66h3.9v-5.6h1v4.2c1.2-0.9,1.8-2.3,2.1-3.9l1,0.1
	c-0.1,0.6-0.3,1.2-0.5,1.8c0.8,0.7,1.8,1.6,2.3,2.1l-0.6,0.7c-0.4-0.5-1.3-1.3-2-2c-0.4,0.7-0.9,1.4-1.5,1.9
	c-0.2-0.2-0.5-0.4-0.7-0.6V66h4v0.9h-4L22.3,69L22.3,69z M19.7,60.7c-0.1,0.6-0.3,1.2-0.4,1.7c0.7,0.6,1.4,1.3,1.8,1.9L20.4,65
	c-0.3-0.4-0.9-1.1-1.5-1.7c-0.4,0.8-0.9,1.5-1.5,2.1c-0.2-0.2-0.6-0.5-0.8-0.6c1.2-0.9,1.9-2.4,2.1-4.2
	C18.7,60.6,19.7,60.7,19.7,60.7z M18.7,78.5c0.4,0.9,0.9,2.2,1,2.9l-0.9,0.3c0-0.2-0.1-0.5-0.2-0.8c-3.2,0.5-3.7,0.6-3.9,0.8
	c-0.1-0.2-0.2-0.7-0.3-1c0.9-0.5,1.4-1.4,2.3-2.6c-1.5,0.2-1.9,0.2-2.1,0.3c-0.1-0.2-0.2-0.7-0.3-1c1.2-0.8,1.8-2.3,2.8-4.4l1,0.4
	c-0.7,1.4-1.5,2.8-2.3,3.8l1.6-0.1c0.4-0.6,0.7-1.2,1-1.8l0.9,0.5c-0.9,1.6-2,3.2-3.2,4.5l2.3-0.3c-0.1-0.5-0.3-0.9-0.5-1.3
	L18.7,78.5L18.7,78.5z M15.8,82.5c-0.1,1.2-0.4,2.6-0.7,3.5c-0.2-0.1-0.7-0.3-0.9-0.3c0.3-0.9,0.5-2.1,0.7-3.3L15.8,82.5L15.8,82.5z
	 M17.4,82.3c0.2,1,0.4,2.3,0.4,3.1l-0.9,0.2c0-0.9-0.2-2.2-0.4-3.2L17.4,82.3L17.4,82.3z M18.9,81.9c0.3,0.8,0.7,1.9,0.8,2.6
	l-0.8,0.3c-0.1-0.7-0.5-1.8-0.8-2.7L18.9,81.9z M25.5,85.1c1.1,0.1,0.9-0.6,1-1.6c0.2,0.2,0.6,0.4,0.9,0.5c0.3,2.6-2.3,2.4-4,1.9
	C22.8,85.7,23,83,23,82.2h-2.7v-4.8h0.9v3.9H23V76h-3v-1h3v-1.9h1v1.9h3.4v1h-3.4v5.2h1.8v-3.9h1V83h-1v-0.8h-1.8
	C24.1,83.8,23.2,85.5,25.5,85.1L25.5,85.1z M27.2,100h-5.8v2.1h-1.1V100h-5.8v-0.9h5.8v-0.7h1c-0.2-0.1-0.3-0.3-0.4-0.3
	c1.1-0.5,1.9-1.3,2.3-2.3l0.9,0.2c-0.1,0.3-0.2,0.6-0.4,0.8c0.8,0.4,1.7,1,2.2,1.4l-0.6,0.7c-0.4-0.4-1.3-0.9-2-1.4
	c-0.5,0.5-1,1-1.6,1.3c-0.1-0.1-0.1-0.1-0.2-0.2v0.6h5.8L27.2,100L27.2,100z M15.4,94L15,93.2c1-0.3,2.3-0.8,3.7-1.3l0.2,0.7
	L15.4,94z M19.4,90.4h-4.3v-0.9h5.3c-0.3,2,1.2,5.2-2.3,4.6c-0.1-0.2-0.2-0.5-0.3-0.8c0.8-0.1,1.4,0.3,1.6-0.2
	C19.4,93.2,19.4,90.4,19.4,90.4L19.4,90.4z M26.6,95.8h-8.1l0.6,0.1c-0.1,0.3-0.3,0.5-0.4,0.8c0.6,0.3,1.4,0.8,1.8,1.2l-0.6,0.6
	c-0.4-0.3-1-0.8-1.7-1.1c-0.6,0.6-1.3,1.2-2.1,1.6c-0.1-0.2-0.5-0.5-0.7-0.6c1.2-0.5,2.3-1.4,2.8-2.5h-3.1v-0.8h5.3
	c-0.1-0.3-0.3-0.6-0.5-0.9l1-0.2c0.2,0.3,0.5,0.7,0.6,1.1h5.1L26.6,95.8L26.6,95.8z M18.1,92c-0.6-0.3-1.7-0.7-2.5-0.9l0.4-0.6
	c0.8,0.2,1.9,0.6,2.5,0.8L18.1,92z M24.9,92.6c-1.2,0.5-2.5,1-3.6,1.4L21,93.2c0.9-0.3,2.4-0.8,3.7-1.3L24.9,92.6z M25.3,90.4H21
	v-0.8h5.3c-0.3,2,1.2,5.3-2.3,4.7c-0.1-0.2-0.2-0.5-0.3-0.8c0.8-0.1,1.4,0.2,1.6-0.2C25.3,93.3,25.3,90.4,25.3,90.4L25.3,90.4z
	 M24,92c-0.6-0.3-1.7-0.7-2.5-0.9l0.4-0.6c0.8,0.2,1.9,0.6,2.5,0.8L24,92z M18.5,113.6c-0.2-0.4-0.6-1.2-1-1.9v6.4h-1v-6
	c-0.5,1.3-1.1,2.6-1.7,3.4c-0.1-0.3-0.4-0.8-0.6-1c0.8-1,1.7-2.9,2.2-4.5h-1.9v-1h2v-2.3c-0.5,0.1-1,0.2-1.5,0.3
	c0-0.2-0.2-0.6-0.3-0.8c1.3-0.3,2.9-0.7,3.8-1.1l0.7,0.9c-0.5,0.2-1.1,0.4-1.7,0.6v2.5h1.7v1h-1.7v0.3c0.4,0.5,1.4,2,1.6,2.4
	L18.5,113.6L18.5,113.6z M26.4,114.4c-0.2-1.2-0.7-2.9-1.3-4.2c-0.7,1.8-1.6,3.3-2.7,4.7c0.1,0.5-0.4,2.3,0.6,2.1
	c1.7-0.2,2.4,0.8,2.3-2.1c0.2,0.2,0.6,0.4,0.9,0.4c0,3.3-1.4,2.6-3.4,2.7c-1.3,0-1.5-0.5-1.5-1.8c-0.6,0.6-1.2,1.2-1.8,1.7
	c-0.2-0.2-0.6-0.6-0.9-0.7c1-0.7,1.9-1.6,2.7-2.5V108h1v5.1c1.3-2.1,2.3-4.5,3.1-7.3l1,0.2c-0.4,1.5-0.9,2.8-1.4,4.1l0.9-0.3
	c0.6,1.3,1.2,3.1,1.4,4.2L26.4,114.4L26.4,114.4z M18.8,113.9c0.6-1.1,0.9-3,1.1-4.4l0.8,0.2c-0.2,1.5-0.5,3.4-1,4.5L18.8,113.9
	L18.8,113.9z M23.8,107.8c-0.6-0.6-1.8-1.6-2.7-2.2l0.7-0.7c0.9,0.6,2.2,1.5,2.7,2.1L23.8,107.8z M18.8,130.4
	c-1.4,0.6-3,1.2-4.2,1.7l-0.3-1.1c0.5-0.2,1.1-0.4,1.8-0.6v-5h-1.6v-1H16V121h1v3.3h1.4v1H17v4.6l1.5-0.6L18.8,130.4L18.8,130.4z
	 M25.6,132.9c1,0.1,0.7-0.6,0.8-1.6c0.2,0.2,0.6,0.4,0.9,0.5c0,1.3-0.3,2-1.6,2c-0.5,0-1.5,0.1-1.9-0.2c-0.6-0.3-0.3-2.7-0.4-3.3
	h-1.3c-0.2,2.1-1,3.2-3.6,3.8c-0.1-0.2-0.4-0.6-0.6-0.8c2.3-0.5,2.9-1.3,3.1-2.9h-1.5v-4.1h6.5v4.1h-1.7c0.1,0.3-0.2,2.5,0.1,2.6
	C24.7,133,25.4,132.9,25.6,132.9L25.6,132.9z M26.9,125.4H19v-0.9h2c-0.1-0.4-0.3-0.9-0.4-1.4l0.9-0.2c0.2,0.4,0.4,1,0.5,1.4
	l-0.5,0.1h2.4c0.2-0.5,0.5-1.1,0.6-1.5l1,0.2c-0.2,0.5-0.4,0.9-0.6,1.3h2.2L26.9,125.4L26.9,125.4z M26.5,122.8h-7.1v-0.9h3.1
	c-0.1-0.3-0.3-0.6-0.4-0.9l1-0.2c0.2,0.3,0.4,0.8,0.5,1.1h3L26.5,122.8L26.5,122.8z M20.6,127.8h4.5v-0.9h-4.5V127.8z M20.6,129.5
	h4.5v-1h-4.5V129.5z M4.5,5.6H4.3V4.1H0.4V3.8h3.8V2.3h0.3V5.6L4.5,5.6z M4.5,11.4H0.4v-0.3h1.9V8.4H0.4V8h4.1v0.3H2.6v2.7h1.9V11.4
	z M4.5,16.4H4.3v-1.9H2.6v1.8H2.4v-1.8H0.7v1.9H0.4v-2.3h4.1V16.4L4.5,16.4z M4.5,26.3H0.4V26L4,22.9H0.4v-0.3h4.1v0.3l-3.6,3.1h3.6
	V26.3z M4.5,30.7l-4.1,1.9v-0.3l1.4-0.6v-2L0.4,29v-0.3l4.1,1.9V30.7L4.5,30.7z M2.1,31.5L4,30.6l-1.9-0.9V31.5z M4.5,37.3H4.3v-1.5
	H0.4v-0.3h3.8v-1.5h0.3V37.3L4.5,37.3z M4.5,42.7V43c-1.4,0-4.2,0.4-4.1-1.7c-0.1-2.2,2.8-1.6,4.1-1.7v0.3c-1.2,0.1-3.9-0.5-3.9,1.4
	C0.6,43.2,3.3,42.6,4.5,42.7z M4.5,45.8c0.4,1.5-0.9,3.6-2,1.6c-0.2,0.4-1.7,1.2-2,1.5v-0.4c0.9-0.6,2.3-1.1,2-2.4h-2v-0.3H4.5z
	 M4.3,46.1H2.7C2.3,48.4,4.6,48.4,4.3,46.1L4.3,46.1z M4.5,53.3H4.3v-1.9H2.6v1.8H2.4v-1.8H0.7v1.9H0.4v-2.3h4.1V53.3L4.5,53.3z
	 M4.5,59.8H0.4v-0.3h4.1V59.8z M4.5,66.2H0.4V66L4,62.9H0.4v-0.3h4.1v0.3l-3.6,3.1h3.6V66.2z M4.5,74.7l-1.9-1.6H0.4v-0.3h2.2
	l1.9-1.6v0.4L2.9,73l1.6,1.3V74.7L4.5,74.7z M4.6,78.6c0.1,2.8-4.3,2.8-4.2,0C0.3,75.8,4.6,75.8,4.6,78.6z M0.7,78.6
	c-0.1,2.3,3.7,2.3,3.6,0C4.3,76.3,0.6,76.3,0.7,78.6z M4.5,86.4v0.3c-1.4,0-4.2,0.4-4.1-1.7c-0.1-2.2,2.8-1.6,4.1-1.7v0.3
	c-1.2,0.1-3.9-0.5-3.9,1.4C0.6,86.9,3.3,86.3,4.5,86.4z M4.5,89.5c0.4,1.5-0.9,3.6-2,1.6c-0.2,0.4-1.7,1.2-2,1.5v-0.4
	c0.9-0.6,2.3-1.1,2-2.4h-2v-0.3H4.5z M4.3,89.8H2.7C2.3,92.1,4.6,92.1,4.3,89.8L4.3,89.8z M4.5,101.7H0.4v-0.3h1.9v-2.7H0.4v-0.3
	h4.1v0.3H2.6v2.7h1.9V101.7z M4.5,106.8H4.3v-1.9H2.6v1.8H2.4v-1.8H0.7v1.9H0.4v-2.3h4.1V106.8L4.5,106.8z M4.5,111l-4.1,1.9v-0.3
	l1.4-0.6v-2l-1.4-0.6v-0.3l4.1,1.9V111L4.5,111z M2.1,111.7l1.9-0.9L2.1,110V111.7z M4.5,115.2c0.4,1.5-0.9,3.6-2,1.6
	c-0.2,0.4-1.7,1.2-2,1.5v-0.4c0.9-0.6,2.3-1.1,2-2.4h-2v-0.3H4.5z M4.3,115.5H2.7C2.3,117.9,4.6,117.8,4.3,115.5L4.3,115.5z
	 M4.5,123.3H4.3v-1.5H0.4v-0.3h3.8v-1.5h0.3V123.3L4.5,123.3z M98.3,6.4c-0.4,1.9-1,3.5-1.8,4.9c0.7,1.7,1,1.3,1.1-0.8
	c0.4,0.4,0.9,0.7,1.3,0.9c-0.1,3.2-2.3,3.6-3.5,1.5c-0.4,0.5-0.8,0.9-1.3,1.3c-0.3-0.3-1.1-1-1.5-1.2c0.1-0.1,0.3-0.2,0.4-0.3h-1.8
	v0h-1.4V6.1h4.1v1.3H93v0.5h0.9v3H93v0.6h0.9v0.4c0.2-0.3,0.5-0.6,0.7-0.9c-0.4-1.4-0.6-3.1-0.7-5.1h-4.5c0,2.6,0.3,6.1-0.9,8.4
	c-0.3-0.3-1.1-0.7-1.5-0.8c0.5-0.9,0.6-2,0.7-3.1h-0.5c0,1.1-0.1,2.8-1.1,3.9c-0.3-0.2-0.8-0.6-1.1-0.8c0.7-0.9,0.8-2.2,0.8-3.1
	h-0.6V8.6h2.5V7.9h-2V4.2h1.5v2h0.5V4h6.1l0-0.8h0.3V3h-1.9V1.3h1.9V0.5h2.1v0.8h2.3V3h-0.7c0.3,0.2,0.6,0.5,0.8,0.7L98,4h0.5v1.7
	h-2.9c0,0.9,0.1,1.8,0.2,2.5c0.2-0.7,0.4-1.4,0.6-2.2C96.4,6.1,98.3,6.4,98.3,6.4z M88,3h-2.4V1.3H88V0.5H90v0.8h1.7V3H90v0.6H88V3z
	 M91.2,7.4v0.5h0.6V7.4H91.2z M91.2,9.1v0.6h1.4V9.1H91.2z M91.2,11.4h0.6v-0.6h-0.6V11.4z M95.6,3.3V4h1c-0.2-0.2-0.3-0.3-0.5-0.4
	L97,3h-0.8v0.4L95.6,3.3L95.6,3.3z M96.3,16.8c-0.1,0.4-0.2,0.8-0.4,1.1c0.7,1.3,1.8,2.6,3.1,3.3c-0.5,0.4-1.1,1.1-1.4,1.6
	c-1-0.7-1.8-1.8-2.5-3c-0.7,1.3-1.7,2.3-2.8,3.1c-0.2-0.3-0.5-0.8-0.9-1.1c-0.4,5.4,1.1,8-3,7.8c0-0.6-0.2-1.4-0.5-1.9
	c2.3,0.2,1.2-0.6,1.6-4.2h-1c-0.2,2.6-0.7,4.8-1.9,6.3c-0.3-0.5-1-1.2-1.5-1.6c1.3-1.8,1.4-4.5,1.4-8h-1v-1.9h2.3
	c-0.2-0.5-0.5-1.1-0.8-1.6l1.8-0.7c0.4,0.6,0.9,1.4,1,1.9l-0.9,0.3h2.6v1.9h-3.1c0,0.5,0,0.9,0,1.3h2.8c-0.1-0.1-0.3-0.3-0.4-0.4
	c1.7-1,2.9-2.8,3.6-5.1L96.3,16.8L96.3,16.8z M93.5,25.5c1.3,0.7,3.3,1.8,4.2,2.6l-1.4,1.8c-0.8-0.8-2.7-2.1-4.1-2.9L93.5,25.5
	L93.5,25.5z M95.6,25.3c-0.5-0.6-1.6-1.5-2.4-2.2l1.3-1.3c0.8,0.6,2,1.4,2.5,2L95.6,25.3L95.6,25.3z M96.4,36.5
	c-0.7,2-1.6,3.6-2.8,4.9c1.4,1,3.2,1.8,5.2,2.3c-0.5,0.5-1.1,1.4-1.4,2c-2.2-0.6-4-1.5-5.5-2.7c-1.6,1.2-3.4,2.1-5.7,2.8
	c-0.2-0.5-0.9-1.5-1.3-2c2.2-0.5,4-1.2,5.4-2.3c-1.2-1.4-2.1-3-2.8-5h-2.3v-2h5.9c-0.1-0.6-0.4-1.3-0.7-1.9l2.2-0.7
	c0.4,0.7,0.8,1.6,0.9,2.2l-1.2,0.4h6v2H96.4L96.4,36.5z M89.8,36.5c0.6,1.3,1.3,2.5,2.3,3.5c0.8-1,1.5-2.1,2-3.5H89.8z M88.3,53.1
	c-0.2,2-0.5,4.5-0.9,6.2l-2.1-0.9c0.5-1.6,0.8-3.7,1-5.7L88.3,53.1z M91.2,52c0.3,0.6-0.8,7.7,0.7,7.2c1.9-0.1,2.5,0.8,2.5-2.5
	c0.5,0.4,1.4,0.7,1.9,0.9c-0.1,4-2.1,3.7-4.7,3.6c-4.3,0.6-2.1-6.9-2.6-9.2L91.2,52L91.2,52z M90.8,47.9c1.3,0.8,3.2,2,4,2.9
	l-1.5,1.7c-0.8-0.9-2.6-2.2-3.9-3.1L90.8,47.9z M97.1,52.2c0.8,1.7,1.5,3.9,1.8,5.3l-2.1,0.9c-0.2-1.5-0.9-3.7-1.6-5.4L97.1,52.2z
	 M93.5,69.5c0.9,2.6,2.6,4.7,5.2,5.7c-0.5,0.5-1.2,1.4-1.5,2c-2.5-1.2-4.1-3.1-5.2-5.6c-0.8,2.2-2.3,4.2-5.1,5.6
	c-0.3-0.6-1-1.3-1.6-1.8c3.1-1.4,4.4-3.6,5-5.9h-4.7v-2.2h5.1c0.1-1.3,0.1-2.5,0.1-3.7H93c0,1.2,0,2.5-0.1,3.7h5.5v2.2L93.5,69.5
	L93.5,69.5z M92.5,90.3c0.3,1.9-0.6,2.8-2.5,2.6c-0.1-0.5-0.3-1.1-0.5-1.6c1,0,1.4,0.2,1.3-0.8l-1.5,0.1l-0.1-1
	c-1.2,0.6-2.4,1.1-3.4,1.6l-0.6-2.1c0.4-0.1,0.8-0.3,1.3-0.5v-3.9h-1v-2h1v-3.2h1.8v3.2h1v2h-1V88l1-0.4l0.3,1.4
	c0.4,0,0.8-0.1,1.2-0.1v-0.6h0l0,0c0.2-0.1,0.4-0.3,0.5-0.4h-1.9v-1.5c0.1,0,3.8,0,3.8-0.1l1,0.8c-0.5,0.5-1,1.1-1.6,1.6v0.1
	l1.5-0.1l0,1.6L92.5,90.3L92.5,90.3z M94.1,82.5h-4.9v-1.6h1.5c-0.1-0.3-0.2-0.7-0.3-1l1.7-0.4c0.2,0.4,0.4,0.9,0.5,1.4h1.4
	L94.1,82.5L94.1,82.5z M98.1,84.1c-0.2,2-0.5,3.7-1.1,5.1c0.4,1,1,1.8,1.8,2.4c-0.4,0.3-0.9,1-1.2,1.5c-0.6-0.5-1.2-1.2-1.6-2
	c-0.5,0.8-1.1,1.5-1.9,2.1c-0.2-0.3-0.8-1.1-1.1-1.4c1-0.7,1.7-1.6,2.2-2.7c-0.2-0.8-0.4-1.6-0.6-2.5c-0.1,0.1-0.1,0.3-0.2,0.4
	c-0.2-0.3-0.5-0.9-0.9-1.3v0.2h-4.1v-3h4.1v1.9c0.6-1.4,1-3.4,1.2-5.3l1.8,0.3c-0.1,0.9-0.3,1.8-0.4,2.6h2.4v1.7L98.1,84.1
	L98.1,84.1z M92.1,84.1h-1.1v0.5h1.1V84.1z M95.8,84.1c0.1,0.8,0.2,1.5,0.3,2.2c0.1-0.7,0.2-1.4,0.3-2.2H95.8z M69.3,9.3
	c-0.3-0.4-0.9-1.3-1.4-1.9v6.4h-0.7V7.7C66.6,8.4,66,9,65.3,9.5c-0.1-0.2-0.3-0.5-0.4-0.6c1.4-1.1,3-3,3.8-4.9h-3.5V3.3
	c0.1,0,3.9,0.1,4,0l0.4,0.2c-0.4,1.1-1,2.2-1.7,3.1c0.5,0.5,1.5,1.8,1.8,2.1L69.3,9.3L69.3,9.3z M67.6,3.1c-0.2-0.5-0.7-1.3-1.2-1.8
	l0.5-0.3c0.5,0.5,1,1.3,1.2,1.8L67.6,3.1L67.6,3.1z M78,12.9v0.6h-8.5v-0.6h2.9c-0.1-0.5-0.4-1.1-0.6-1.6l0.6-0.2
	c0.3,0.6,0.6,1.3,0.7,1.7h1.7c0.3-0.5,0.6-1.3,0.8-1.8l0.6,0.2c-0.3,0.5-0.6,1.1-0.8,1.6L78,12.9L78,12.9z M77.9,7.5h-7.9V6.9h7.9
	V7.5z M77.4,6.1h-7v-4h2.1V0.9h0.6v1.2h1.5V0.9h0.6v1.2h2.2V6.1z M70.9,10.9V8.4H77v2.6H70.9z M71,3.8h1.6V2.6H71V3.8z M71,5.5h1.6
	V4.3H71V5.5z M71.5,10.4h4.9V8.9h-4.9V10.4z M74.7,3.8V2.6h-1.5v1.2H74.7z M73.1,4.3v1.2h1.5V4.3H73.1z M76.8,2.6h-1.6v1.2h1.6V2.6z
	 M76.8,4.3h-1.6v1.2h1.6V4.3z M68.4,23.8c-0.2,1.2-0.5,2.3-0.9,3.2c1.5,2.8,7.5,1.9,10.6,1.8c-0.1,0.2-0.2,0.5-0.2,0.7
	c-3.1,0-9.1,0.9-10.7-1.9c-0.5,1-1.1,1.7-1.8,2.3c-0.1-0.2-0.3-0.4-0.5-0.5c1.3-0.9,2.3-2.6,2.7-5c-0.5,0-2.1-0.1-2.4,0.2
	c0-0.2-0.2-0.6-0.3-0.7c1-0.4,1.6-1.8,2.5-3.1h-2.4v-0.6H68l0.2-0.1l0.5,0.2c-0.6,0.9-1.7,2.5-2.5,3.4
	C66.5,23.7,68.1,23.5,68.4,23.8L68.4,23.8z M67.4,19.4c-0.4-0.6-1.1-1.6-1.7-2.3l0.5-0.3c0.6,0.7,1.3,1.7,1.7,2.3L67.4,19.4
	L67.4,19.4z M69.4,23.5h-0.7v-0.6h0.7v-0.6H70v0.6h3v-1.1H70v-4.5h6.6v4.5h-3v1.1h4v4.3c-0.1,1.1-0.9,0.6-2.2,0.8
	c0-0.2-0.1-0.4-0.2-0.5c1-0.1,1.6,0.3,1.8-0.2c0,0,0-3.8,0-3.8h-3.3v1.9l1.7-0.1c-0.2-0.4-0.4-0.8-0.6-1.1l0.5-0.1
	c0.5,0.8,0.9,1.8,1.1,2.5l-0.5,0.2c-0.1-0.3-0.2-0.5-0.3-0.9c-1.8,0.2-3.6,0.4-4.9,0.5l-0.1-0.6c0.7-0.1,1.5-0.1,2.4-0.2v-1.9H70V28
	h-0.6L69.4,23.5L69.4,23.5z M70.6,19.3H73v-1.4h-2.3V19.3z M73,21.3v-1.5h-2.3v1.5H73z M76,17.8h-2.4v1.4H76V17.8z M76,19.8h-2.4
	v1.5H76V19.8z M66.4,41.8c-0.2,1.2-0.5,2.6-0.8,3.5c-0.1-0.1-0.4-0.2-0.6-0.2c0.3-0.9,0.6-2.2,0.7-3.4L66.4,41.8L66.4,41.8z
	 M69.5,41.3c0-0.3-0.1-0.6-0.2-1c-3.2,0.5-3.6,0.6-3.9,0.7c0-0.1-0.2-0.5-0.2-0.7c1-0.5,1.5-1.5,2.5-2.8c-1.8,0.2-2.1,0.3-2.3,0.4
	c0-0.2-0.1-0.5-0.2-0.7c1.1-0.9,1.8-2.3,2.9-4.5l0.6,0.3c-0.7,1.5-1.6,2.9-2.4,4.1l1.9-0.2c0.4-0.6,0.8-1.2,1.1-1.9l0.6,0.3
	c-1,1.8-2.2,3.5-3.4,4.8l2.8-0.4c-0.1-0.5-0.3-1.1-0.5-1.6l0.6-0.1c0.4,1,0.7,2.3,0.9,3L69.5,41.3L69.5,41.3z M67.7,41.7
	c0.2,1,0.3,2.3,0.4,3.1l-0.6,0.1c0-0.9-0.2-2.2-0.4-3.1L67.7,41.7z M69,41.4c0.3,0.8,0.7,1.9,0.8,2.5l-0.6,0.2
	c-0.1-0.7-0.5-1.8-0.8-2.6L69,41.4L69,41.4z M78.1,44.8c-0.1,0.2-0.2,0.5-0.2,0.6c-2.6,0-5.2,0.4-6.2-2.9c-0.3,1.2-0.8,2.4-1.7,3.1
	c-0.1-0.1-0.3-0.3-0.5-0.4c1.4-1.2,1.8-3.7,1.9-5.7h0.7c-0.5,1.7,0.1,4.3,1.6,4.8V38h-3v-0.6h6.8V38h-3.1v2.6h3v0.6h-3v3.4
	C75.3,44.9,77.2,44.7,78.1,44.8L78.1,44.8z M71,36.8h-0.6v-2.2h3.7c-0.2-0.5-0.5-1.2-0.9-1.7l0.6-0.2c0.4,0.6,0.8,1.4,1,1.9h3.1v2.2
	h-0.7v-1.6H71L71,36.8L71,36.8z M70.7,53.8c-0.6,6,1.1,7.9-2.9,7.5c0-0.2-0.1-0.5-0.2-0.7c3.4,0.3,1.9-0.6,2.4-6.2h-2.4
	c0,2.5-0.2,5-2.2,7.1c-0.1-0.1-0.3-0.3-0.5-0.5c2.6-2.7,2-6.3,2.1-9.5h-1.9V51h6.3v0.7h-3.8v2.2L70.7,53.8L70.7,53.8z M68.3,50.7
	c-0.2-0.5-0.5-1.4-0.8-2l0.6-0.2c0.3,0.6,0.7,1.4,0.8,1.9L68.3,50.7L68.3,50.7z M77,51.9c-0.4,2.5-1,4.4-2,6
	c0.8,1.4,1.8,2.4,3.1,3.1c-0.2,0.1-0.4,0.4-0.5,0.6c-1.3-0.7-2.3-1.7-3.1-3c-0.9,1.3-2.1,2.3-3.6,3.1c-0.1-0.2-0.3-0.5-0.4-0.6
	c1.6-0.8,2.8-1.8,3.7-3.1c-0.7-1.4-1.2-2.9-1.6-4.7c-0.4,0.8-0.8,1.6-1.2,2.2c-0.1-0.1-0.4-0.4-0.6-0.5c1.1-1.5,2-3.9,2.4-6.4
	l0.7,0.1c-0.2,0.9-0.4,1.8-0.7,2.6H78v0.7L77,51.9L77,51.9z M73.1,51.9c0.1,1.9,0.8,3.8,1.5,5.3c0.8-1.4,1.3-3.2,1.7-5.3H73.1z
	 M76.5,67.7c-1.7,2.6-5.1,5.7-8,7.4c2.2,1.9,7,0.9,9.6,0.9c-0.1,0.2-0.2,0.6-0.2,0.8c-2.3,0-6.9,0.7-8.9-0.6
	c-1.5-1.4-1.8-0.8-3.2,0.9l-0.5-0.6c1-1.1,1.8-1.9,2.7-1.7c2.7-1.5,5.8-4.4,7.5-6.7h-9.4v-0.7c0.2-0.1,9.9,0.1,10.1-0.1L76.5,67.7
	L76.5,67.7z M72,67.1c-0.3-0.6-0.9-1.7-1.5-2.4l0.6-0.3c0.6,0.7,1.2,1.8,1.5,2.3L72,67.1L72,67.1z M67.2,85.7
	c-0.3,1.6-0.8,4-1.4,5.5l-0.7-0.3c0.7-1.4,1.2-3.7,1.4-5.3L67.2,85.7z M69.3,84.3v7.3c0,0.6,0.2,0.8,1.1,0.8
	c2.5-0.3,4.6,1.4,4.4-3.2c0.2,0.1,0.5,0.3,0.7,0.3c0.2,4.7-2.3,3.3-5.1,3.5c-1.4,0-1.8-0.3-1.8-1.5v-7.3H69.3z M69.9,81
	c1.3,1,3,2.4,3.8,3.3l-0.5,0.5c-0.8-0.9-2.4-2.4-3.8-3.3L69.9,81L69.9,81z M76.1,85.2c0.9,1.7,1.7,4,2,5.4l-0.7,0.2
	c-0.3-1.5-1.1-3.7-1.9-5.4L76.1,85.2z"/>
</svg>
