<svg width="246" height="91" viewBox="0 0 246 91" fill="none" xmlns="http://www.w3.org/2000/svg">
<g filter="url(#filter0_i_206_732)">
<path d="M0.931 41.897L1.102 42.429H17.537C17.803 42.429 18.012 42.334 18.069 42.125C17.195 41.403 15.808 40.396 15.808 40.396L14.573 41.897H0.931ZM2.09 51.72L2.261 52.252H16.644C16.929 52.252 17.138 52.157 17.195 51.948C16.359 51.245 14.991 50.276 14.991 50.276L13.794 51.72H2.09ZM0.589 54.437L0.741 54.988H17.86C18.126 54.988 18.354 54.893 18.411 54.684C17.499 53.886 15.96 52.727 15.96 52.727L14.611 54.437H0.589ZM14.288 37.831C11.533 38.724 6.232 39.75 2.052 40.187L2.09 40.491C6.479 40.567 11.647 40.206 15.01 39.731C15.58 39.978 16.017 39.978 16.207 39.788L14.288 37.831ZM8.265 39.807V54.589H10.545V39.807H8.265ZM4.37 49.193V49.725H14.497V49.193H4.37ZM4.37 46.628V47.16H14.535V46.628H4.37ZM13.68 44.158V50.485H14.041C14.82 50.485 15.922 50.029 15.941 49.877V45.051C16.34 44.975 16.587 44.823 16.701 44.671L14.516 43.018L13.49 44.158H13.68ZM3.002 44.158V50.846H3.325C4.237 50.846 5.244 50.333 5.244 50.143V44.69H14.25V44.158H5.377L3.002 43.208V44.158ZM23.807 37.926V46.818H25.745V38.629C26.144 38.553 26.258 38.382 26.315 38.154L23.807 37.926ZM21.375 47.958V48.509H28.367V47.958H21.375ZM21.375 49.763V50.295H28.367V49.763H21.375ZM21.375 51.625V52.157H28.367V51.625H21.375ZM19.57 41.137L19.722 41.688H30.894C31.141 41.688 31.331 41.593 31.369 41.384C30.894 40.852 30.077 40.13 30.077 40.13L29.355 41.137H19.57ZM19.551 46.533L19.703 47.065H30.001C30.248 47.065 30.457 46.97 30.514 46.761C29.792 46.134 28.652 45.279 28.652 45.279L27.664 46.533H19.551ZM20.083 44.766L20.235 45.317H29.583C29.849 45.317 30.02 45.222 30.077 45.013C29.431 44.424 28.367 43.626 28.367 43.626L27.455 44.766H20.083ZM23.959 47.958V51.872H25.745V47.958H23.959ZM20.558 39.313L20.71 39.864H28.424V39.313H20.558ZM20.463 42.999L20.634 43.531H28.443V42.999H20.463ZM27.322 47.958V52.575H27.645C28.272 52.575 29.241 52.214 29.26 52.081V48.775C29.564 48.699 29.811 48.547 29.906 48.433L28.025 47.027L27.151 47.958H27.322ZM27.341 39.313V43.968H27.664C28.291 43.968 29.203 43.55 29.222 43.398V40.054C29.507 39.997 29.716 39.864 29.811 39.769L28.025 38.42L27.17 39.313H27.341ZM20.596 47.958V52.86H20.919C21.888 52.86 22.477 52.461 22.477 52.328V47.958H22.705L20.596 47.16V47.958ZM31.274 39.579V51.378H31.635C32.357 51.378 33.193 50.979 33.193 50.789V40.32C33.649 40.244 33.782 40.073 33.839 39.807L31.274 39.579ZM34.599 38.192V53.012C34.599 53.259 34.504 53.373 34.181 53.373C33.763 53.373 31.654 53.24 31.654 53.24V53.506C32.642 53.658 33.079 53.886 33.402 54.209C33.706 54.551 33.82 55.026 33.896 55.691C36.309 55.463 36.632 54.627 36.632 53.164V38.99C37.107 38.914 37.297 38.743 37.335 38.458L34.599 38.192ZM19.589 53.335L20.634 55.729C20.843 55.691 21.052 55.558 21.185 55.311C25.593 54.399 28.576 53.715 30.628 53.107L30.609 52.841C25.935 53.107 21.508 53.297 19.589 53.335ZM38.209 54H42.845V53.392L40.755 53.107H40.299L38.209 53.392V54ZM39.368 54H40.413L44.46 47.445L44.764 46.894H44.878L44.346 46.514L39.368 54ZM45.182 54H51.528V53.392L48.849 53.107H48.07L45.182 53.392V54ZM45.429 46.628L49.799 39.94H48.811L45.277 45.792L44.973 46.305H44.878L45.429 46.628ZM47.538 54H50.502L42.275 39.94H39.311L47.538 54ZM38.399 40.567L41.059 40.814H41.914L44.631 40.567V39.94H38.399V40.567ZM46.455 40.567L48.469 40.814H48.944L51.015 40.567V39.94H46.455V40.567ZM62.3881 38.705C62.8821 38.629 63.0151 38.458 63.0721 38.192L60.1271 37.907V52.803C60.1271 53.05 60.0131 53.164 59.6521 53.164C59.1961 53.164 56.8401 53.012 56.8401 53.012V53.278C57.9421 53.449 58.4171 53.715 58.7781 54.057C59.1201 54.418 59.2531 54.95 59.3291 55.691C62.0461 55.444 62.3881 54.551 62.3881 52.955V38.705ZM52.6221 43.455L52.7931 44.006H58.0371V43.455H52.6221ZM57.1251 43.455C56.5931 47.217 55.0731 51.207 52.1661 53.677L52.3371 53.886C56.5361 51.72 58.4551 48.053 59.3291 44.329C59.7661 44.291 59.9371 44.215 60.0891 44.025L58.0561 42.296L56.9161 43.455H57.1251ZM62.3881 40.662L62.2361 40.738C63.0721 47.806 65.0861 51.188 68.2591 53.829C68.5821 52.784 69.2851 51.986 70.2161 51.815L70.3111 51.625C66.9481 49.972 63.5281 47.027 62.3881 40.662ZM67.2521 41.099C66.5491 42.524 65.0101 44.88 63.6801 46.419L63.8701 46.609C65.8271 45.583 67.8411 44.082 69.1331 42.999C69.5891 43.075 69.7791 42.98 69.8741 42.79L67.2521 41.099ZM73.2941 44.177V47.73C73.2941 50.295 73.1041 53.183 71.3371 55.444L71.4891 55.615C75.2321 53.563 75.5551 50.2 75.5551 47.73V44.367H75.8971L73.2941 43.455V44.177ZM86.9361 42.847L85.7961 44.367H74.3771V44.918H88.4561C88.7221 44.918 88.9121 44.823 88.9691 44.614C88.2091 43.892 86.9361 42.847 86.9361 42.847ZM82.7751 55.178V46.818H80.4571V55.691H80.8751C82.0721 55.691 82.7751 55.292 82.7751 55.178ZM86.8031 48.889L85.6631 50.39H75.6691L75.8211 50.941H88.3231C88.5891 50.941 88.7791 50.846 88.8361 50.637C88.0761 49.915 86.8031 48.889 86.8031 48.889ZM85.7581 45.355L84.6751 46.818H76.5431L76.6951 47.369H87.2211C87.4871 47.369 87.6771 47.274 87.7341 47.065C86.9931 46.362 85.7581 45.355 85.7581 45.355ZM75.3081 39.579H73.6551V42.315L74.0161 41.631C73.6741 41.745 73.1991 42.125 72.9331 42.41L75.2511 43.607L75.9541 42.619H75.8401V39.902L75.3081 39.579ZM76.5431 38.933L73.6551 38.648V40.092H75.8401V39.484C76.3341 39.408 76.5051 39.218 76.5431 38.933ZM87.9241 38.914L84.9791 38.667V43.417H85.3591C86.2521 43.417 87.2211 43.113 87.2211 42.961V39.446C87.7341 39.37 87.8861 39.18 87.9241 38.914ZM82.1861 38.116L79.2791 37.869V42.353H81.5021V38.648C81.9961 38.553 82.1481 38.382 82.1861 38.116ZM85.5871 42.068H74.6431V42.619H85.5871V42.068ZM89.9951 54H94.6311V53.392L92.5411 53.107H92.0851L89.9951 53.392V54ZM91.1541 54H92.1991L96.2461 47.445L96.5501 46.894H96.6641L96.1321 46.514L91.1541 54ZM96.9681 54H103.314V53.392L100.635 53.107H99.8561L96.9681 53.392V54ZM97.2151 46.628L101.585 39.94H100.597L97.0631 45.792L96.7591 46.305H96.6641L97.2151 46.628ZM99.3241 54H102.288L94.0611 39.94H91.0971L99.3241 54ZM90.1851 40.567L92.8451 40.814H93.7001L96.4171 40.567V39.94H90.1851V40.567ZM98.2411 40.567L100.255 40.814H100.73L102.801 40.567V39.94H98.2411V40.567ZM109.804 44.614L109.956 45.165H121.85C122.116 45.165 122.287 45.07 122.325 44.861C121.85 44.253 120.957 43.36 120.957 43.36L120.178 44.614H109.804ZM110.032 40.092L110.184 40.624H121.261C121.527 40.624 121.717 40.529 121.774 40.32C120.995 39.598 119.703 38.534 119.703 38.534L118.544 40.092H110.032ZM114.269 37.964V53.487L116.435 54.418V38.781C116.948 38.705 117.081 38.515 117.119 38.249L114.269 37.964ZM110.982 42.182L111.153 42.733H118.905V42.182H110.982ZM110.906 47.179L111.077 47.711H118.981V47.179H110.906ZM118.107 42.182V48.357H118.449C119.133 48.357 120.121 47.92 120.14 47.787V43.018C120.463 42.942 120.71 42.79 120.805 42.657L118.867 41.194L117.917 42.182H118.107ZM115.39 49.991V50.542H120.387C120.653 50.542 120.862 50.447 120.919 50.238C120.159 49.516 118.905 48.49 118.905 48.49L117.784 49.991H115.39ZM110.697 48.509C110.678 51.473 109.823 53.829 108.398 55.539L108.607 55.729C110.849 54.627 112.236 52.746 112.901 49.459C113.338 49.421 113.547 49.25 113.604 49.003L110.697 48.509ZM112.141 50.58L111.97 50.675C112.958 54.342 114.82 55.254 118.354 55.254C119.057 55.254 120.672 55.254 121.337 55.254C121.337 54.342 121.641 53.582 122.268 53.43V53.202C121.28 53.221 119.304 53.221 118.449 53.221C115.105 53.221 113.281 52.803 112.141 50.58ZM104.161 42.372L104.313 42.923H110.488C110.754 42.923 110.944 42.828 110.982 42.619C110.45 41.897 109.424 40.795 109.424 40.795L108.512 42.372H104.161ZM106.346 37.869V53.012C106.346 53.259 106.27 53.335 105.985 53.335C105.643 53.335 104.123 53.221 104.123 53.221V53.506C104.902 53.639 105.244 53.867 105.51 54.19C105.738 54.513 105.814 55.026 105.852 55.729C108.17 55.501 108.455 54.684 108.455 53.164V38.667C108.93 38.61 109.12 38.42 109.158 38.135L106.346 37.869ZM103.895 47.217L104.788 49.744C105.016 49.668 105.206 49.478 105.263 49.231C107.752 47.749 109.538 46.495 110.659 45.678L110.602 45.469C107.847 46.248 104.978 46.989 103.895 47.217ZM126.448 50.694L126.239 50.827C127.588 54.38 129.716 55.216 134.048 55.216C135.378 55.216 138.57 55.216 139.824 55.216C139.843 54.399 140.204 53.677 140.945 53.506V53.259C139.33 53.316 135.644 53.316 134.105 53.316C129.963 53.316 127.816 53.012 126.448 50.694ZM137.981 39.085H138.19C138.133 39.731 137.943 40.909 137.81 41.593L138 41.707C138.703 41.289 139.634 40.548 140.204 40.016C140.565 39.997 140.774 39.94 140.926 39.807L139.045 38.002L137.981 39.085ZM130.229 37.945L129.963 37.964C130.039 38.762 129.45 39.522 128.899 39.807C128.329 40.054 127.911 40.529 128.082 41.194C128.272 41.859 129.089 42.03 129.659 41.726C130.514 41.308 131.065 39.921 130.229 37.945ZM138.437 49.041L137.335 50.409H128.709L128.861 50.96H139.957C140.242 50.96 140.451 50.865 140.489 50.656C139.71 49.972 138.437 49.041 138.437 49.041ZM137.81 40.643L136.746 41.916H129.127L129.279 42.467H139.273C139.539 42.467 139.729 42.372 139.786 42.163C139.026 41.517 137.81 40.643 137.81 40.643ZM135.929 40.377L133.231 40.13V53.183H133.592C134.352 53.183 135.226 52.765 135.226 52.575V40.928C135.72 40.852 135.872 40.643 135.929 40.377ZM131.654 48.965V44.291H137.886V43.759H131.768L129.716 42.923V49.592H130.001C130.799 49.592 131.654 49.155 131.654 48.965ZM139.045 39.085H129.963V39.636H139.045V39.085ZM137.715 45.982H130.704V46.533H137.715V45.982ZM137.715 48.205H130.704V48.756H137.715V48.205ZM136.651 43.759H136.841V49.269H137.164C137.81 49.269 138.779 48.851 138.798 48.699V44.633C139.178 44.557 139.463 44.386 139.577 44.234L137.582 42.714L136.651 43.759ZM128.101 43.379L126.429 42.657C125.935 43.74 124.681 45.963 123.921 46.989L124.643 46.438C124.263 46.514 123.769 46.723 123.484 46.913L125.137 48.091L125.802 47.483H125.65C126.334 46.438 127.588 44.348 128.101 43.379ZM126.182 42.676H126.429L126.638 43.626C127.512 43.759 128.538 43.721 128.861 43.398L127.075 41.783L126.182 42.676ZM126.847 46.951H127.056C126.543 49.782 125.137 53.145 123.18 55.349L123.37 55.558C126.353 53.601 128.234 50.599 129.127 47.749C129.564 47.711 129.735 47.654 129.868 47.464L127.968 45.83L126.847 46.951ZM127.398 42.676H123.199L123.37 43.227H127.398V42.676ZM127.436 46.951H125.042L124.833 47.483H127.436V46.951ZM124.301 38.021L124.13 38.135C124.776 38.876 125.441 40.035 125.555 41.08C127.398 42.486 129.241 38.876 124.301 38.021ZM141.781 54H146.417V53.392L144.327 53.107H143.871L141.781 53.392V54ZM142.94 54H143.985L148.032 47.445L148.336 46.894H148.45L147.918 46.514L142.94 54ZM148.754 54H155.1V53.392L152.421 53.107H151.642L148.754 53.392V54ZM149.001 46.628L153.371 39.94H152.383L148.849 45.792L148.545 46.305H148.45L149.001 46.628ZM151.11 54H154.074L145.847 39.94H142.883L151.11 54ZM141.971 40.567L144.631 40.814H145.486L148.203 40.567V39.94H141.971V40.567ZM150.027 40.567L152.041 40.814H152.516L154.587 40.567V39.94H150.027V40.567ZM166.207 45.716L162.977 44.5C162.35 46.875 160.222 51.093 158.778 52.461C158.569 52.651 157.98 52.784 157.98 52.784L158.968 55.691C159.576 55.463 160.089 54.627 160.241 53.145H158.987L159.006 53.392C161.305 51.663 164.326 48.186 165.637 45.811L165.067 46.001C165.732 46.191 166.093 45.982 166.207 45.716ZM158.417 52.917L159.272 55.216C164.383 54.133 168.278 52.955 170.767 52.062L170.729 51.777C165.884 52.404 160.697 52.86 158.417 52.917ZM166.397 38.857H166.872V39.161C167.48 43.17 169.057 46.229 171.907 48.148C172.154 47.217 172.933 46.305 173.921 45.963L173.959 45.735C170.653 44.652 168.316 42.277 167.423 39.522C168.202 39.484 168.867 39.332 169.114 39.028L167.138 37.698L166.397 38.857ZM167.328 38.857H164.535L164.706 39.389H167.328V38.857ZM163.965 40.187L160.906 38.952C159.861 42.581 157.79 45.906 155.738 47.901L155.928 48.072C158.911 46.552 161.381 44.196 163.186 40.51C163.623 40.567 163.889 40.396 163.965 40.187ZM166.815 48.414L166.606 48.528C168.126 50.314 169.608 52.917 170.026 55.197C172.629 57.23 174.491 51.454 166.815 48.414ZM183.649 49.003L183.516 49.269C185.416 50.466 186.841 51.986 187.335 52.879C189.064 53.867 190.47 50.295 183.649 49.003ZM182.718 48.832L180.951 49.725V50.485H182.718V48.832ZM180.799 51.815L181.312 53.316C182.889 52.423 184.409 51.416 185.15 50.96L185.093 50.694C183.326 51.188 181.54 51.644 180.799 51.815ZM182.281 49.915H180.951V51.245C180.951 51.53 180.856 51.682 180.267 52.081L181.255 53.544C181.578 53.373 181.977 52.822 181.768 51.891L181.217 52.442L182.718 51.891V50.181L182.281 49.915ZM189.045 49.516L187.468 48.072C187.012 48.661 186.157 49.668 185.568 50.2L185.739 50.39C186.518 50.162 187.772 49.82 188.418 49.573C188.779 49.706 188.95 49.649 189.045 49.516ZM184.428 48.034V47.73H182.471C181.54 48.984 180.001 50.143 178.215 50.922L178.367 51.226C180.875 50.58 183.117 49.516 184.428 48.034ZM187.734 42.467L186.765 43.645H178.462L178.614 44.196H189.007C189.273 44.196 189.463 44.101 189.52 43.892C188.836 43.284 187.734 42.467 187.734 42.467ZM186.974 40.681L186.043 41.821H179.203L179.355 42.353H188.19C188.456 42.353 188.646 42.258 188.684 42.049C188.019 41.46 186.974 40.681 186.974 40.681ZM185.188 40.358L182.661 40.13V43.892H184.656V40.795C185.036 40.738 185.169 40.586 185.188 40.358ZM181.578 48.243V45.868H186.822V45.336H181.673L179.754 44.557V48.794H180.001C180.742 48.794 181.578 48.414 181.578 48.243ZM185.872 45.336H186.024V48.566H186.347C186.936 48.566 187.867 48.224 187.886 48.091V46.039C188.152 45.982 188.361 45.868 188.437 45.754L186.708 44.481L185.872 45.336ZM186.746 47.654H180.723V48.186H186.746V47.654ZM178.196 54.836V39.636H190.261V39.085H178.386L176.011 38.097V55.691H176.391C177.341 55.691 178.196 55.14 178.196 54.836ZM189.387 39.085H189.577V55.558H189.919C190.755 55.558 191.781 55.026 191.8 54.855V39.997C192.199 39.902 192.465 39.769 192.598 39.598L190.47 37.888L189.387 39.085ZM190.356 53.601H177.303V54.133H190.356V53.601ZM193.567 54H198.203V53.392L196.113 53.107H195.657L193.567 53.392V54ZM194.726 54H195.771L199.818 47.445L200.122 46.894H200.236L199.704 46.514L194.726 54ZM200.54 54H206.886V53.392L204.207 53.107H203.428L200.54 53.392V54ZM200.787 46.628L205.157 39.94H204.169L200.635 45.792L200.331 46.305H200.236L200.787 46.628ZM202.896 54H205.86L197.633 39.94H194.669L202.896 54ZM193.757 40.567L196.417 40.814H197.272L199.989 40.567V39.94H193.757V40.567ZM201.813 40.567L203.827 40.814H204.302L206.373 40.567V39.94H201.813V40.567ZM219.21 44.063H217.443V46.419C217.443 47.464 217.595 47.844 218.925 47.844H219.875C221.737 47.844 222.288 47.597 222.288 46.932C222.288 46.59 222.155 46.4 221.718 46.248L221.623 46.21H221.452C221.338 46.248 221.167 46.286 221.053 46.286C220.958 46.305 220.787 46.324 220.673 46.324C220.559 46.324 220.331 46.324 220.122 46.324H219.514C219.248 46.324 219.21 46.248 219.21 46.058V44.614C219.21 44.481 219.21 44.272 219.21 44.063ZM215.999 44.12H213.947C213.89 45.754 213.738 47.236 210.736 48.49L210.926 48.737C215.163 47.73 215.828 46.077 215.999 44.12ZM215.068 37.774L214.916 37.869C215.353 38.401 215.809 39.275 215.904 40.054C217.728 41.422 219.761 38.04 215.068 37.774ZM211.458 54.931V44.329H222.63V43.778H211.629L209.254 42.828V55.691H209.596C210.546 55.691 211.458 55.178 211.458 54.931ZM221.908 43.778H222.098V52.936C222.098 53.183 222.022 53.316 221.699 53.316C221.262 53.316 219.571 53.202 219.571 53.202V53.449C220.445 53.601 220.825 53.848 221.11 54.171C221.376 54.494 221.452 54.988 221.509 55.653C223.96 55.444 224.283 54.608 224.283 53.164V44.69C224.682 44.614 224.948 44.443 225.081 44.291L222.896 42.638L221.908 43.778ZM222.972 38.591L221.661 40.225H208.304L208.475 40.757H224.815C225.1 40.757 225.309 40.662 225.347 40.453C224.454 39.693 222.972 38.591 222.972 38.591ZM219.21 52.176H214.289V52.727H219.21V52.176ZM217.804 48.756H217.975V53.734H218.317C218.944 53.734 219.951 53.373 219.97 53.24V49.516C220.255 49.478 220.483 49.326 220.578 49.212L218.716 47.806L217.804 48.756ZM215.429 53.487V49.288H219.343V48.756H215.505L213.472 47.939V54.076H213.757C214.555 54.076 215.429 53.658 215.429 53.487ZM221.49 41.384L218.507 40.719C218.317 41.764 217.975 43.303 217.633 44.329H218.146C219.096 43.569 220.103 42.524 220.768 41.764C221.205 41.764 221.414 41.612 221.49 41.384ZM212.75 40.757L212.579 40.871C213.054 41.555 213.567 42.638 213.643 43.588C215.448 45.032 217.481 41.631 212.75 40.757ZM237.165 45.621L236.994 45.773C237.925 46.552 239.236 47.882 239.749 48.87C241.364 49.611 242.067 46.552 237.165 45.621ZM236.405 47.331H236.595C236.576 48.509 236.538 49.06 236.405 49.174C236.348 49.25 236.253 49.269 236.044 49.269C235.778 49.269 235.265 49.25 234.923 49.231V49.516C235.284 49.592 235.569 49.706 235.721 49.896C235.911 50.105 235.949 50.409 235.949 50.789C236.595 50.808 237.051 50.713 237.431 50.485C237.963 50.143 238.077 49.535 238.096 48.053C238.438 47.996 238.647 47.92 238.78 47.787L237.203 46.533L236.405 47.331ZM239.977 41.156L237.887 40.301C237.583 41.232 237.241 42.201 236.956 42.809L237.222 42.961C237.868 42.619 238.628 42.03 239.274 41.479C239.654 41.517 239.882 41.365 239.977 41.156ZM231.332 40.187L231.161 40.301C231.598 40.89 232.016 41.878 232.054 42.676C233.46 43.911 235.17 41.156 231.332 40.187ZM232.339 46.97V51.378C232.339 52.556 232.662 52.879 234.353 52.879H236.234C239.141 52.879 239.882 52.632 239.882 51.91C239.882 51.606 239.73 51.416 239.236 51.226L239.179 49.592H238.951C238.704 50.333 238.476 50.979 238.305 51.188C238.191 51.34 238.077 51.359 237.868 51.378C237.64 51.397 237.051 51.397 236.424 51.397H234.752C234.182 51.397 234.106 51.34 234.106 51.074V47.331H234.353L232.681 46.666L232.339 46.97ZM237.07 47.331H233.308L233.479 47.863H237.07V47.331ZM237.374 40.263L234.714 39.769C234.353 42.923 233.137 46.59 229.907 48.889L230.078 49.098C234.239 47.198 235.911 43.911 236.633 40.719C237.07 40.7 237.279 40.548 237.374 40.263ZM239.559 44.177L238.647 45.336H230.116L230.268 45.887H240.718C240.965 45.887 241.155 45.792 241.212 45.583C240.585 44.994 239.559 44.177 239.559 44.177ZM238.913 42.239L238.001 43.284H230.61L230.762 43.835H240.129C240.395 43.835 240.585 43.74 240.642 43.531C239.977 42.961 238.913 42.239 238.913 42.239ZM229.888 54.798V39.579H242.01V39.047H230.078L227.684 38.059V55.634H228.064C229.014 55.634 229.888 55.083 229.888 54.798ZM241.06 39.047H241.25V55.52H241.592C242.428 55.52 243.473 54.988 243.492 54.817V39.959C243.872 39.864 244.138 39.712 244.271 39.541L242.143 37.85L241.06 39.047ZM242.143 53.601H229.09V54.133H242.143V53.601ZM6.346 85.159V75.032H4.218V85.672H4.598C5.7 85.672 6.346 85.273 6.346 85.159ZM4.826 79.858L2.356 78.775C2.147 80.295 1.558 82.594 0.665 84.114L0.855 84.323C2.337 83.183 3.439 81.473 4.123 80.124C4.579 80.181 4.75 80.048 4.826 79.858ZM3.496 67.831L3.344 67.945C3.819 68.572 4.294 69.579 4.351 70.472C6.137 71.916 8.189 68.515 3.496 67.831ZM16.454 85.102V75.07H14.25V85.691H14.649C15.77 85.691 16.435 85.235 16.454 85.102ZM18.202 70.016L15.884 68.154C14.953 68.99 13.11 70.206 11.552 70.89L11.628 71.137C13.566 70.947 15.732 70.51 17.062 70.073C17.632 70.244 17.993 70.206 18.202 70.016ZM13.243 70.548L10.583 69.712V76.001C10.583 79.364 10.374 82.784 8.227 85.501L8.436 85.729C12.464 83.221 12.749 79.326 12.749 76.039V70.795C12.996 70.757 13.186 70.681 13.243 70.548ZM16.359 73.265L15.162 74.918H11.21V75.469H18.031C18.297 75.469 18.506 75.374 18.544 75.165C17.746 74.405 16.359 73.265 16.359 73.265ZM9.291 72.011L6.707 71.213C6.517 72.391 6.118 74.082 5.738 75.222H6.023C6.992 74.348 7.98 73.208 8.588 72.353C9.006 72.391 9.215 72.239 9.291 72.011ZM2.356 71.327L2.147 71.403C2.508 72.239 2.907 73.436 2.888 74.462C4.332 75.925 6.327 73.018 2.356 71.327ZM6.707 79.003L6.498 79.117C7.125 80.029 7.752 81.416 7.809 82.594C9.386 84 11.134 80.637 6.707 79.003ZM8.778 73.455L7.752 74.861H0.494L0.646 75.393H10.127C10.393 75.393 10.583 75.298 10.64 75.089C9.956 74.424 8.778 73.455 8.778 73.455ZM8.398 76.305L7.429 77.654H0.836L0.988 78.205H9.652C9.918 78.205 10.108 78.11 10.165 77.901C9.5 77.236 8.398 76.305 8.398 76.305ZM8.246 69.389L7.239 70.738H0.779L0.931 71.289H9.538C9.804 71.289 9.994 71.194 10.051 70.985C9.367 70.32 8.246 69.389 8.246 69.389ZM33.668 68.097L31.046 67.869V71.289H31.445C32.205 71.289 33.155 70.966 33.155 70.833V68.496C33.516 68.458 33.649 68.287 33.668 68.097ZM25.935 68.097L23.332 67.869V72.049H23.712C24.472 72.049 25.422 71.707 25.422 71.574V68.496C25.783 68.439 25.897 68.287 25.935 68.097ZM35.625 68.363L34.637 69.731H28.975L29.127 70.263H36.898C37.164 70.263 37.354 70.168 37.411 69.959C36.746 69.294 35.625 68.363 35.625 68.363ZM26.942 68.363L25.973 69.731H19.817L19.969 70.263H28.215C28.481 70.263 28.69 70.168 28.728 69.959C28.082 69.294 26.942 68.363 26.942 68.363ZM29.127 73.911L26.714 73.702V75.374C26.714 76.4 26.999 76.742 28.728 76.742H30.628C33.573 76.742 34.295 76.799 34.295 76.039C34.295 75.792 34.143 75.678 33.592 75.469L33.516 75.45H33.326C33.193 75.488 32.946 75.526 32.832 75.545C32.699 75.564 32.471 75.602 32.3 75.602C32.072 75.602 31.445 75.621 30.856 75.621H29.165C28.614 75.621 28.576 75.545 28.576 75.355V74.348C28.918 74.291 29.089 74.139 29.127 73.911ZM31.654 73.341L30.875 74.462L23.636 74.994L23.826 75.507L32.851 74.861C33.079 74.861 33.269 74.728 33.288 74.519C32.68 74.025 31.654 73.341 31.654 73.341ZM23.598 80.96V84.893H25.498V81.796H25.745L23.598 80.96ZM33.041 81.796H33.212V84.893H35.112V82.537C35.435 82.48 35.644 82.347 35.758 82.214L33.953 80.884L33.041 81.796ZM34.105 81.796H24.472V82.328H34.105V81.796ZM31.844 81.796H30.077V84.893H31.844V81.796ZM28.69 81.796H26.923V84.893H28.69V81.796ZM35.929 83.373L35.169 84.551H21.527L21.679 85.102H36.841C37.088 85.102 37.259 85.007 37.316 84.798C36.822 84.209 35.929 83.373 35.929 83.373ZM33.953 73.075H34.162C34.105 73.645 33.953 74.69 33.839 75.279L34.048 75.393C34.694 75.07 35.568 74.443 36.081 73.987C36.461 73.968 36.651 73.93 36.803 73.778L34.979 72.03L33.953 73.075ZM32.718 70.719L31.787 71.764H28.101V72.296H33.915C34.181 72.296 34.371 72.201 34.428 71.992C33.763 71.441 32.718 70.719 32.718 70.719ZM21.299 72.885V76.723C21.299 79.573 21.185 82.86 19.646 85.482L19.836 85.653C23.028 83.183 23.256 79.402 23.256 76.723V73.075H23.579L21.299 72.239V72.885ZM29.678 70.852L27.037 70.624V73.379H29.146V71.289C29.526 71.213 29.659 71.061 29.678 70.852ZM30.267 77.483H28.424V80.77H30.267V77.483ZM31.939 77.369H32.11V81.359H32.433C33.079 81.359 34.048 80.96 34.067 80.808V78.129C34.352 78.072 34.58 77.939 34.675 77.825L32.832 76.438L31.939 77.369ZM26.562 81.017V77.901H33.478V77.369H26.676L24.567 76.533V81.625H24.852C25.669 81.625 26.562 81.169 26.562 81.017ZM34.96 73.075H22.401V73.626H34.96V73.075ZM33.269 78.908H25.308V79.459H33.269V78.908ZM33.269 80.504H25.308V81.036H33.269V80.504ZM46.037 78.756L45.866 78.87C46.531 79.706 47.291 80.979 47.538 82.081C49.419 83.449 51.11 79.801 46.037 78.756ZM53.922 75.811L51.091 75.545V83.183C51.091 83.43 50.996 83.544 50.654 83.544C50.198 83.544 47.671 83.392 47.671 83.392V83.639C48.811 83.81 49.305 84.038 49.685 84.342C50.046 84.665 50.16 85.121 50.236 85.767C52.896 85.539 53.276 84.741 53.276 83.259V76.305C53.694 76.248 53.884 76.096 53.922 75.811ZM52.174 68.097L49.4 67.85V74.842H51.566V68.591C52.003 68.515 52.155 68.344 52.174 68.097ZM54.682 76.077L53.599 77.521H45.03L45.182 78.053H56.145C56.411 78.053 56.62 77.958 56.658 77.749C55.917 77.065 54.682 76.077 54.682 76.077ZM53.884 73.037L52.763 74.481H46.17L46.322 75.032H55.385C55.67 75.032 55.86 74.937 55.898 74.728C55.138 74.025 53.884 73.037 53.884 73.037ZM54.302 69.56L53.143 71.061H45.581L45.733 71.612H55.879C56.164 71.612 56.354 71.517 56.411 71.308C55.613 70.586 54.302 69.56 54.302 69.56ZM44.764 71.194L43.795 72.752H39.767V73.303H45.961C46.227 73.303 46.417 73.208 46.455 72.999C45.885 72.277 44.764 71.194 44.764 71.194ZM38.703 78.376L40.185 80.732C40.394 80.656 40.565 80.447 40.622 80.2C43.282 78.452 45.106 77.103 46.284 76.172L46.227 75.944C43.092 77.046 39.995 78.053 38.703 78.376ZM41.971 70.244L39.368 69.826C39.349 72.315 39.102 75.146 38.646 77.16L38.95 77.293C40.071 75.64 40.831 73.227 41.268 70.719C41.705 70.681 41.914 70.51 41.971 70.244ZM44.65 68.23L41.857 67.945V85.672H42.275C43.054 85.672 43.947 85.178 43.947 84.931V68.762C44.46 68.686 44.612 68.496 44.65 68.23ZM60.724 69.484H58.672V82.67C58.672 84.836 60.04 85.14 63.137 85.14H67.336C73.72 85.159 74.993 84.969 74.993 83.924C74.993 83.544 74.727 83.24 73.682 83.05L73.568 83.031H73.359C72.96 83.164 72.542 83.259 72.276 83.297C71.972 83.335 71.535 83.392 71.155 83.411C70.566 83.449 69.122 83.487 67.507 83.487H62.909C61.237 83.487 60.724 83.24 60.724 82.385V70.282C60.724 70.073 60.724 69.769 60.724 69.484ZM72.409 67.736L71.269 69.237H57.836L58.007 69.769H73.929C74.195 69.769 74.404 69.674 74.461 69.465C73.682 68.762 72.409 67.736 72.409 67.736ZM71.383 77.293H71.554V82.442H71.877C72.466 82.442 73.416 82.081 73.435 81.948V78.053C73.739 77.996 73.986 77.863 74.081 77.749L72.257 76.362L71.383 77.293ZM72.219 81.017H69.122V81.549H72.219V81.017ZM69.977 82.081V77.825H72.409V77.293H70.053L68.134 76.514V82.67H68.4C69.16 82.67 69.977 82.271 69.977 82.081ZM64.999 77.293H65.17V82.518H65.474C66.082 82.518 66.994 82.157 67.013 82.043V78.034C67.317 77.996 67.545 77.844 67.64 77.73L65.873 76.4L64.999 77.293ZM65.968 81.017H62.89V81.549H65.968V81.017ZM63.65 82.385V77.825H65.911V77.293H63.707L61.826 76.514V82.955H62.092C62.852 82.955 63.65 82.556 63.65 82.385ZM69.198 71.27H69.388V76.02H69.749C70.414 76.02 71.497 75.64 71.516 75.507V72.106C71.858 72.03 72.105 71.878 72.219 71.745L70.186 70.225L69.198 71.27ZM70.243 74.614H64.752V75.146H70.243V74.614ZM65.588 75.697V71.802H70.205V71.27H65.683L63.498 70.396V76.343H63.783C64.657 76.343 65.588 75.887 65.588 75.697ZM83.98 75.336V75.868H86.925V75.336H83.98ZM90.82 68.705L90.668 68.819C91.143 69.294 91.751 70.13 91.903 70.871C93.67 71.954 95.19 68.705 90.82 68.705ZM83.923 71.878V72.41H93.955C94.24 72.41 94.43 72.315 94.468 72.106C93.727 71.441 92.511 70.51 92.511 70.51L91.428 71.878H83.923ZM88.35 68.116C88.369 74.462 88.692 80.124 91.409 84.19C91.998 85.064 93.366 86.071 94.335 85.425C94.696 85.159 94.582 84.494 94.069 83.297L94.487 80.048L94.278 80.01C93.993 80.808 93.575 81.739 93.309 82.214C93.138 82.556 93.024 82.575 92.815 82.233C90.554 79.269 90.307 73.892 90.421 68.933C90.915 68.876 91.086 68.648 91.105 68.401L88.35 68.116ZM76.608 73.284L76.76 73.816H82.517C82.764 73.816 82.954 73.721 83.011 73.512C82.46 72.828 81.434 71.764 81.434 71.764L80.522 73.284H76.608ZM78.451 68.23V80.39L80.56 79.725V69.009C81.073 68.933 81.225 68.743 81.263 68.477L78.451 68.23ZM76.361 80.124L77.52 82.67C77.729 82.594 77.919 82.385 77.995 82.119C80.275 80.58 81.871 79.307 82.878 78.471L82.802 78.262C80.161 79.098 77.444 79.877 76.361 80.124ZM82.555 71.878V76.02C82.555 79.269 82.213 82.727 79.629 85.463L79.819 85.634C84.189 83.164 84.607 79.117 84.607 76.001V71.878H84.93L82.555 71.004V71.688V71.878ZM86.108 75.336C86.051 78.68 85.956 80.257 85.671 80.618C85.595 80.713 85.519 80.732 85.367 80.732C85.12 80.732 84.436 80.694 83.961 80.656V80.922C84.474 81.055 84.911 81.302 85.101 81.549C85.291 81.796 85.367 82.233 85.367 82.651C86.032 82.632 86.602 82.499 87.039 82.157C87.78 81.511 87.913 79.858 87.989 76.172C88.35 76.115 88.597 75.982 88.711 75.83L86.906 74.348L85.918 75.336H86.108ZM91.922 74.025C90.668 79.573 88.54 82.841 84.854 85.216L85.025 85.52C89.49 83.563 91.998 80.523 93.689 75.203C94.183 75.222 94.373 75.127 94.449 74.88L91.922 74.025ZM102.353 67.85L102.22 67.964C102.866 68.629 103.607 69.712 103.854 70.738C106.096 72.087 107.882 67.888 102.353 67.85ZM105.659 85.102V71.251H103.303V85.748H103.74C104.937 85.748 105.64 85.254 105.659 85.102ZM100.187 82.347V74.709H109.896V74.177H100.339L97.964 73.227V83.069H98.287C99.237 83.069 100.187 82.575 100.187 82.347ZM108.566 74.177H108.756V80.485C108.756 80.713 108.68 80.827 108.376 80.827C107.939 80.827 106.381 80.732 106.381 80.732V80.979C107.236 81.112 107.578 81.378 107.844 81.701C108.091 82.024 108.167 82.537 108.224 83.24C110.694 83.012 111.017 82.176 111.017 80.713V75.07C111.416 75.013 111.682 74.842 111.796 74.69L109.573 73.018L108.566 74.177ZM111.093 69.408L109.763 71.08H95.608L95.76 71.631H112.955C113.24 71.631 113.43 71.536 113.487 71.327C112.575 70.529 111.093 69.408 111.093 69.408ZM114.608 78.566L114.779 79.098H131.898C132.183 79.098 132.411 79.003 132.468 78.794C131.575 78.034 130.131 76.894 130.131 76.894L128.858 78.566H114.608ZM115.292 72.771L115.444 73.303H131.29C131.556 73.303 131.746 73.208 131.803 72.999C131.024 72.258 129.713 71.194 129.713 71.194L128.554 72.771H115.292ZM119.168 68.097V78.813H121.41V68.895C121.923 68.819 122.056 68.629 122.094 68.344L119.168 68.097ZM125.305 68.097V78.813H127.566V68.895C128.079 68.819 128.231 68.629 128.269 68.344L125.305 68.097ZM125.039 80.219L124.887 80.39C126.578 81.606 128.573 83.639 129.466 85.406C132.107 86.736 133.247 81.473 125.039 80.219ZM120.156 79.668C119.168 81.53 117.04 84 114.722 85.52L114.855 85.729C117.876 84.836 120.555 83.107 122.132 81.473C122.569 81.549 122.759 81.454 122.873 81.264L120.156 79.668ZM142.462 68.952L142.272 69.066C142.709 69.75 143.184 70.814 143.279 71.707C144.704 72.961 146.414 70.187 142.462 68.952ZM140.923 81.663L138.529 79.858C137.237 82.024 135.28 83.867 133.589 84.855L133.741 85.102C135.945 84.551 138.263 83.544 140.087 81.796C140.505 81.948 140.79 81.834 140.923 81.663ZM144.552 80.504L144.381 80.656C145.768 81.739 147.573 83.506 148.447 84.931C150.803 85.957 151.715 81.492 144.552 80.504ZM134.805 68.99L134.596 69.085C135.014 69.807 135.451 70.928 135.508 71.859C136.933 73.151 138.681 70.339 134.805 68.99ZM150.936 70.624L149.207 68.724C148.694 69.351 147.497 70.51 146.604 71.175L146.737 71.403C147.915 71.213 149.397 70.833 150.119 70.567C150.48 70.795 150.803 70.738 150.936 70.624ZM142.785 70.51L141.132 68.667C140.676 69.332 139.593 70.529 138.814 71.27L138.928 71.46C140.03 71.194 141.36 70.776 142.025 70.491C142.367 70.7 142.671 70.643 142.785 70.51ZM147.953 68.154L145.369 67.907V70.073C145.369 71.859 144.818 73.816 141.816 75.127L141.968 75.355C146.433 74.272 147.269 72.087 147.326 70.111V68.629C147.763 68.572 147.915 68.382 147.953 68.154ZM140.201 68.154L137.674 67.926V69.75C137.674 71.46 137.161 73.455 134.216 74.766L134.387 74.975C138.757 73.892 139.536 71.65 139.593 69.788V68.648C140.03 68.591 140.182 68.401 140.201 68.154ZM148.58 75.754H148.789C148.732 76.324 148.637 77.407 148.561 77.977L148.751 78.091C149.378 77.749 150.309 77.103 150.841 76.685C151.221 76.666 151.411 76.628 151.563 76.476L149.663 74.652L148.58 75.754ZM149.587 75.754H135.47V76.286H149.587V75.754ZM144.267 76.742L141.303 76.457V85.71H141.721C142.614 85.71 143.621 85.292 143.621 85.121V77.217C144.096 77.141 144.229 76.97 144.267 76.742ZM148.048 77.426L146.87 78.946H135.204L135.356 79.497H149.663C149.948 79.497 150.138 79.402 150.195 79.193C149.378 78.452 148.048 77.426 148.048 77.426ZM138.814 71.897L138.662 72.049C139.422 72.638 140.296 73.721 140.524 74.671C142.329 75.735 143.583 72.22 138.814 71.897ZM146.528 71.916L146.376 72.049C147.174 72.714 148.219 73.873 148.599 74.842C150.461 75.811 151.582 72.296 146.528 71.916ZM135.774 74.747H135.546C135.318 75.659 134.691 76.343 134.026 76.685C132.05 79.174 137.674 80.105 135.774 74.747Z" fill="#BC976C"/>
</g>
<g filter="url(#filter1_i_206_732)">
<path d="M8.525 32.55V19.175H5.4V33.275H5.975C7.575 33.275 8.525 32.7 8.525 32.55ZM6.5 25.575L3.025 24.05C2.775 26.075 2.05 29.175 0.9 31.225L1.15 31.475C3.15 30 4.625 27.75 5.575 25.95C6.175 26.025 6.4 25.85 6.5 25.575ZM4.45 9.675L4.25 9.825C4.85 10.65 5.425 11.975 5.475 13.2C8.025 15.275 11.05 10.425 4.45 9.675ZM21.9 32.45V19.325H18.675V33.3H19.25C20.9 33.3 21.875 32.625 21.9 32.45ZM24.075 12.725L20.75 10.05C19.6 11.2 17.275 12.875 15.325 13.825L15.425 14.125C17.95 13.9 20.775 13.375 22.5 12.8C23.3 13.05 23.8 12.975 24.075 12.725ZM17.75 13.325L13.9 12.125V20.45C13.9 24.875 13.65 29.45 10.85 33.05L11.1 33.35C16.675 30.05 17.05 24.875 17.05 20.525V13.65C17.4 13.6 17.675 13.5 17.75 13.325ZM21.4 16.75L19.7 19.1H14.8V19.825H23.75C24.1 19.825 24.4 19.7 24.45 19.425C23.325 18.35 21.4 16.75 21.4 16.75ZM12.35 15.225L8.7 14.1C8.475 15.675 8 17.925 7.525 19.425H7.875C9.2 18.3 10.575 16.8 11.425 15.675C11.975 15.725 12.25 15.525 12.35 15.225ZM3.05 14.225L2.775 14.325C3.225 15.45 3.675 17.025 3.625 18.4C5.675 20.5 8.575 16.45 3.05 14.225ZM8.8 24.35L8.525 24.475C9.325 25.7 10.1 27.525 10.175 29.1C12.4 31.075 14.9 26.425 8.8 24.35ZM11.5 17L10.1 18.95H0.625L0.825 19.65H13.375C13.725 19.65 13.975 19.525 14.05 19.25C13.125 18.35 11.5 17 11.5 17ZM10.95 20.725L9.625 22.6H1.1L1.3 23.325H12.7C13.05 23.325 13.3 23.2 13.375 22.925C12.475 22.025 10.95 20.725 10.95 20.725ZM10.75 11.675L9.375 13.55H1L1.2 14.25H12.55C12.9 14.25 13.15 14.125 13.225 13.85C12.3 12.95 10.75 11.675 10.75 11.675ZM44.425 10.025L40.7 9.7V14.225H41.275C42.375 14.225 43.775 13.775 43.775 13.6V10.525C44.25 10.475 44.4 10.25 44.425 10.025ZM34.15 10.025L30.45 9.7V15.3H31.025C32.125 15.3 33.525 14.825 33.525 14.65V10.525C33.975 10.45 34.125 10.25 34.15 10.025ZM46.825 10.275L45.45 12.2H38.15L38.35 12.9H48.625C48.975 12.9 49.225 12.775 49.3 12.5C48.4 11.575 46.825 10.275 46.825 10.275ZM35.425 10.275L34.075 12.2H26.025L26.225 12.9H37.225C37.575 12.9 37.85 12.775 37.9 12.5C37 11.575 35.425 10.275 35.425 10.275ZM38.55 17.675L35.125 17.4V19.55C35.125 20.975 35.525 21.45 37.9 21.45H40.325C44.175 21.45 45.2 21.55 45.2 20.475C45.2 20.125 44.975 19.975 44.225 19.675L44.1 19.625H43.85C43.675 19.7 43.325 19.75 43.175 19.775C43 19.8 42.675 19.85 42.425 19.85C42.125 19.85 41.35 19.875 40.65 19.875H38.55C37.875 19.875 37.825 19.775 37.825 19.525V18.25C38.275 18.175 38.5 17.975 38.55 17.675ZM41.525 16.875L40.425 18.425L31.15 19.125L31.4 19.8L43.2 18.925C43.5 18.925 43.75 18.75 43.775 18.475C42.925 17.8 41.525 16.875 41.525 16.875ZM31.1 26.9V32.2H33.85V28.075H34.2L31.1 26.9ZM43.35 28.075H43.575V32.2H46.325V29.075C46.75 29 47 28.825 47.15 28.65L44.625 26.8L43.35 28.075ZM44.85 28.075H32.35V28.775H44.85V28.075ZM42.075 28.075H39.525V32.2H42.075V28.075ZM37.975 28.075H35.425V32.2H37.975V28.075ZM47.3 30.15L46.25 31.775H28.375L28.575 32.475H48.525C48.875 32.475 49.1 32.35 49.175 32.075C48.5 31.3 47.3 30.15 47.3 30.15ZM44.45 16.625H44.725C44.7 17.375 44.55 18.75 44.45 19.55L44.7 19.7C45.6 19.275 46.8 18.475 47.525 17.875C48.025 17.85 48.275 17.8 48.475 17.6L45.9 15.15L44.45 16.625ZM42.9 13.45L41.625 14.9H37.025V15.6H44.575C44.925 15.6 45.175 15.475 45.25 15.2C44.325 14.45 42.9 13.45 42.9 13.45ZM27.925 16.375V21.525C27.925 25.25 27.8 29.575 25.825 32.975L26.05 33.2C30.45 30.025 30.775 25.05 30.775 21.525V16.625H31.225L27.925 15.45V16.375ZM39.25 13.7L35.475 13.375V17H38.55V14.275C39.05 14.175 39.225 13.975 39.25 13.7ZM40.05 22.4H37.375V26.75H40.05V22.4ZM41.875 22.25H42.1V27.5H42.6C43.525 27.5 44.925 26.925 44.95 26.725V23.275C45.35 23.2 45.625 23.025 45.75 22.875L43.15 20.925L41.875 22.25ZM35.275 27.025V22.95H44.15V22.25H35.425L32.375 21.05V27.9H32.775C33.975 27.9 35.275 27.25 35.275 27.025ZM45.875 16.625H29.525V17.325H45.875V16.625ZM43.85 24.3H33.45V25H43.85V24.3ZM43.85 26.4H33.45V27.1H43.85V26.4ZM64.125 10.825C64.775 10.725 64.95 10.5 65.025 10.15L60.8 9.75V29.175C60.8 29.5 60.65 29.65 60.2 29.65C59.575 29.65 56.45 29.45 56.45 29.45V29.775C57.925 30.025 58.525 30.4 59.025 30.9C59.5 31.425 59.675 32.2 59.775 33.275C63.625 32.95 64.125 31.7 64.125 29.4V10.825ZM51.075 17.125L51.3 17.85H58.075V17.125H51.075ZM56.775 17.125C56.125 22.075 54.2 27.35 50.45 30.625L50.65 30.9C56.3 28.075 58.875 23.25 60.025 18.325C60.6 18.275 60.825 18.175 61 17.9L58.125 15.45L56.5 17.125H56.775ZM64.125 13.575L63.95 13.675C64.95 22.975 67.35 27.325 71.425 30.825C71.9 29.3 72.9 28.125 74.275 27.875L74.4 27.6C70.05 25.55 65.575 21.85 64.125 13.575ZM70.2 13.875C69.325 15.75 67.375 18.925 65.7 21L65.925 21.25C68.55 19.925 71.2 18 72.95 16.6C73.575 16.675 73.825 16.55 73.95 16.3L70.2 13.875ZM78.2 18.075V22.775C78.2 26.15 77.975 30 75.65 32.975L75.825 33.175C81.075 30.525 81.55 26.05 81.55 22.775V18.325H82.025L78.2 17.025V18.075ZM96.15 16.175L94.575 18.325H79.775V19.05H98.3C98.65 19.05 98.925 18.925 99 18.65C97.95 17.65 96.15 16.175 96.15 16.175ZM91.05 32.575V21.525H87.65V33.3H88.275C90.025 33.3 91.05 32.725 91.05 32.575ZM96.1 24.125L94.525 26.275H81.6L81.8 26.975H98.25C98.6 26.975 98.85 26.85 98.925 26.575C97.875 25.575 96.1 24.125 96.1 24.125ZM94.725 19.45L93.225 21.525H82.7L82.9 22.25H96.8C97.15 22.25 97.425 22.125 97.5 21.85C96.475 20.875 94.725 19.45 94.725 19.45ZM81.1 11.975H78.675V15.55L79.175 14.625C78.725 14.8 78.075 15.325 77.725 15.75L81.025 17.4L82.025 16H81.875V12.45L81.1 11.975ZM82.8 11.125L78.675 10.725V12.625H81.875V11.85C82.55 11.75 82.75 11.5 82.8 11.125ZM97.675 11.1L93.45 10.75V17.075H94C95.325 17.075 96.75 16.65 96.75 16.45V11.8C97.425 11.7 97.625 11.45 97.675 11.1ZM90.175 10.025L86.025 9.7V15.65H89.275V10.75C89.95 10.625 90.125 10.375 90.175 10.025ZM94.325 15.275H80.1V16H94.325V15.275ZM106.35 18.7L106.55 19.4H117.7C118.05 19.4 118.325 19.275 118.4 19C117.3 18.05 115.525 16.725 115.525 16.725L113.95 18.7H106.35ZM102.4 23.05L102.6 23.75H122.075C122.45 23.75 122.725 23.625 122.8 23.35C121.625 22.35 119.675 20.825 119.675 20.825L117.975 23.05H102.4ZM101.15 31.7L101.35 32.4H123.25C123.625 32.4 123.925 32.275 124 32C122.725 30.875 120.575 29.25 120.575 29.25L118.7 31.7H101.15ZM110.45 18.85V31.95H113.875V18.85H110.45ZM105 24.7L104.75 24.8C105.35 26.275 105.85 28.15 105.75 29.925C108.375 32.65 111.975 27.325 105 24.7ZM116.675 24.525C116.175 26.675 115.5 29.175 115.025 30.65L115.3 30.825C116.825 29.775 118.525 28.175 119.95 26.55C120.5 26.6 120.85 26.4 120.95 26.075L116.675 24.525ZM113.6 11.825C115.05 15.975 118.35 18.8 121.975 20.75C122.2 19.425 123.175 17.875 124.65 17.45L124.7 17.05C121.025 16.125 116.275 14.6 114 11.525C114.875 11.425 115.2 11.275 115.3 10.925L110.3 9.625C109.3 13.25 104.7 18.6 100.45 21.45L100.6 21.725C105.6 19.775 111.075 15.75 113.6 11.825ZM125.6 12.15L125.8 12.875H135.7C136.075 12.875 136.35 12.75 136.4 12.475C135.35 11.525 133.65 10.225 133.65 10.225L132.1 12.15H125.6ZM128.675 12.175C128.25 17.05 127.275 22.25 125.3 25.95L125.6 26.2C129.15 22.6 131.1 18.025 131.85 12.575V12.175H128.675ZM128.9 19.075V19.8H133.375V19.075H128.9ZM128.875 27.875V28.6H133.375V27.875H128.875ZM131.975 19.075V30.3H132.45C133.375 30.3 134.75 29.725 134.775 29.575V20.2C135.225 20.125 135.55 19.925 135.7 19.725L133.025 17.675L131.725 19.075H131.975ZM130.25 19.075H130.575L128.975 18.475L127.5 20.625V31.55H128C129.4 31.55 130.25 30.925 130.25 30.75V19.075ZM135.375 12.225L135.575 12.925H148.9C149.25 12.925 149.525 12.8 149.575 12.525C148.625 11.625 147 10.375 147 10.375L145.575 12.225H135.375ZM134.725 26.025L134.925 26.725H149.1C149.45 26.725 149.725 26.6 149.775 26.325C148.825 25.45 147.275 24.25 147.275 24.25L145.875 26.025H134.725ZM142.7 23.9V29.95C142.7 30.2 142.575 30.3 142.3 30.3C141.9 30.3 140 30.175 140 30.175V30.525C141 30.675 141.4 31 141.7 31.375C142 31.8 142.075 32.45 142.125 33.325C145.225 33.05 145.65 32.025 145.65 30.025V24.85C146.175 24.775 146.425 24.575 146.475 24.2L142.7 23.9ZM137.35 17.1V17.8H146.525V17.1H137.35ZM137.35 19.675V20.375H146.525V19.675H137.35ZM136.025 14.55V21.575H136.525C138 21.575 138.875 21.1 138.875 20.925V15.25H145.075V21.15H145.575C147.1 21.15 148.025 20.675 148.025 20.575V15.425C148.575 15.325 148.8 15.175 148.95 14.975L146.325 13L144.975 14.55H139.125L136.025 13.35V14.55ZM136.175 27.05L135.975 27.225C136.8 28 137.575 29.35 137.675 30.6C140.325 32.475 142.85 27.35 136.175 27.05ZM144.375 21.05L144.2 21.25C145.25 22.025 146.475 23.45 146.925 24.7C149.6 26.05 151.125 20.95 144.375 21.05ZM135.275 22.6L136.425 25.775C136.7 25.725 137 25.55 137.175 25.25C141.8 24.175 144.975 23.35 147.15 22.675V22.325C142.15 22.5 137.35 22.625 135.275 22.6ZM140.45 9.825V23.65L143.425 23.375V10.8C144.025 10.7 144.2 10.475 144.25 10.15L140.45 9.825ZM155.1 11.875H152.1V29.2C152.1 32.2 154.025 32.6 158.25 32.6H163.625C172.1 32.6 173.8 32.325 173.8 30.85C173.8 30.325 173.425 29.85 171.9 29.6L171.75 29.55H171.5C170.9 29.75 170.325 29.9 169.925 29.95C169.5 30 168.85 30.075 168.35 30.1C167.575 30.15 165.775 30.2 163.85 30.2H157.925C155.825 30.2 155.1 29.9 155.1 28.775V12.95C155.1 12.675 155.1 12.225 155.1 11.875ZM170.2 9.425L168.6 11.55H151.025L151.25 12.25H172.35C172.7 12.25 172.975 12.125 173.05 11.85C171.975 10.875 170.2 9.425 170.2 9.425ZM168.825 22.15H169.05V28.925H169.525C170.375 28.925 171.75 28.4 171.775 28.225V23.175C172.175 23.1 172.475 22.925 172.6 22.775L170.05 20.85L168.825 22.15ZM169.975 27.05H166.1V27.75H169.975V27.05ZM167.325 28.4V22.85H170.225V22.15H167.425L164.65 21.05V29.25H165.025C166.125 29.25 167.325 28.675 167.325 28.4ZM160.45 22.15H160.675V29.025H161.125C162 29.025 163.325 28.525 163.35 28.35V23.175C163.75 23.1 164.025 22.9 164.15 22.75L161.675 20.9L160.45 22.15ZM161.8 27.05H157.95V27.75H161.8V27.05ZM159.025 28.825V22.85H161.65V22.15H159.1L156.4 21.05V29.625H156.775C157.875 29.625 159.025 29.05 159.025 28.825ZM165.95 14.225H166.2V20.45H166.725C167.7 20.45 169.275 19.925 169.3 19.75V15.35C169.775 15.25 170.075 15.05 170.225 14.875L167.35 12.725L165.95 14.225ZM167.425 18.575H160.375V19.275H167.425V18.575ZM161.625 19.975V14.925H167.375V14.225H161.75L158.55 12.975V20.9H158.975C160.25 20.9 161.625 20.25 161.625 19.975ZM179.75 19.525V20.225H185.175V19.525H179.75ZM184.125 19.525C184.025 23.975 183.825 25.95 183.4 26.35C183.25 26.5 183.075 26.55 182.725 26.55C182.325 26.55 181.35 26.5 180.825 26.45L180.8 26.775C181.575 26.975 182.05 27.275 182.325 27.675C182.625 28.1 182.675 28.8 182.675 29.7C183.925 29.7 184.825 29.425 185.55 28.875C186.7 28 187 26.175 187.15 20.725C187.65 20.65 187.95 20.475 188.125 20.275L185.425 18.025L183.875 19.525H184.125ZM187.775 9.75C187.8 18.375 188.725 26.25 194.3 31.45C195.475 32.525 197.725 33.7 199.025 32.525C199.5 32.1 199.375 31.225 198.425 29.6L199.05 25.25L198.825 25.175C198.3 26.275 197.55 27.675 197.125 28.325C196.825 28.75 196.625 28.75 196.275 28.4C191.625 24.65 190.925 17.6 191.025 10.85C191.675 10.775 191.9 10.475 191.925 10.15L187.775 9.75ZM192.3 10.375L192.1 10.55C193.025 11.225 194.075 12.45 194.475 13.575C197.225 14.9 198.825 9.775 192.3 10.375ZM194.1 17.55C192.875 23.05 189.725 29.175 183.7 32.775L183.875 33.075C191.525 30.4 195.35 24.8 197.375 19.45C198.025 19.475 198.25 19.275 198.35 18.975L194.1 17.55ZM179.6 14.875V15.575H198.5C198.875 15.575 199.15 15.45 199.225 15.175C198.05 14.175 196.075 12.675 196.075 12.675L194.325 14.875H179.6ZM178 14.875V20.25C178 24.475 177.8 29.4 175.425 33.25L175.625 33.45C180.925 29.95 181.275 24.3 181.275 20.225V14.875H181.775L178 13.575V14.625V14.875ZM201.1 12L201.3 12.725H215.05C215.4 12.725 215.675 12.6 215.75 12.325C214.65 11.35 212.825 9.9 212.825 9.9L211.225 12H201.1ZM200.6 19.825L200.8 20.525H215.65C216 20.525 216.275 20.4 216.35 20.125C215.35 19.125 213.65 17.6 213.65 17.6L212.125 19.825H200.6ZM209.05 12V33.025H209.65C211.275 33.025 212.2 32.35 212.225 32.125V12H209.05ZM203.6 12V19.725C203.6 24.375 203.35 29.275 200.575 33.15L200.8 33.325C206.4 29.8 206.7 24.325 206.7 19.7V12H203.6ZM220.425 10C218.725 13 216.7 15.625 214.25 17.5L214.425 17.825C217.6 16.65 220.675 14.825 223.2 12.575C223.75 12.675 224 12.6 224.2 12.325L220.425 10ZM220.35 16.425C218.5 19.875 216.2 22.6 213.325 24.55L213.475 24.875C217.175 23.675 220.5 21.775 223.25 18.975C223.85 19.075 224.1 18.975 224.275 18.7L220.35 16.425ZM220.575 22.875C218.55 27.6 215.825 30.7 212.125 32.9L212.25 33.225C217.025 31.825 220.725 29.45 223.7 25.275C224.3 25.35 224.575 25.225 224.725 24.925L220.575 22.875Z" fill="#BC976C"/>
</g>
<defs>
<filter id="filter0_i_206_732" x="0.494019" y="37.698" width="243.776" height="53.038" filterUnits="userSpaceOnUse" color-interpolation-filters="sRGB">
<feFlood flood-opacity="0" result="BackgroundImageFix"/>
<feBlend mode="normal" in="SourceGraphic" in2="BackgroundImageFix" result="shape"/>
<feColorMatrix in="SourceAlpha" type="matrix" values="0 0 0 0 0 0 0 0 0 0 0 0 0 0 0 0 0 0 127 0" result="hardAlpha"/>
<feOffset dy="4"/>
<feGaussianBlur stdDeviation="2"/>
<feComposite in2="hardAlpha" operator="arithmetic" k2="-1" k3="1"/>
<feColorMatrix type="matrix" values="0 0 0 0 0 0 0 0 0 0 0 0 0 0 0 0 0 0 0.25 0"/>
<feBlend mode="normal" in2="shape" result="effect1_innerShadow_206_732"/>
</filter>
<filter id="filter1_i_206_732" x="0.625" y="9.42505" width="224.1" height="28.2749" filterUnits="userSpaceOnUse" color-interpolation-filters="sRGB">
<feFlood flood-opacity="0" result="BackgroundImageFix"/>
<feBlend mode="normal" in="SourceGraphic" in2="BackgroundImageFix" result="shape"/>
<feColorMatrix in="SourceAlpha" type="matrix" values="0 0 0 0 0 0 0 0 0 0 0 0 0 0 0 0 0 0 127 0" result="hardAlpha"/>
<feOffset dy="4"/>
<feGaussianBlur stdDeviation="2"/>
<feComposite in2="hardAlpha" operator="arithmetic" k2="-1" k3="1"/>
<feColorMatrix type="matrix" values="0 0 0 0 0 0 0 0 0 0 0 0 0 0 0 0 0 0 0.25 0"/>
<feBlend mode="normal" in2="shape" result="effect1_innerShadow_206_732"/>
</filter>
</defs>
</svg>
