<svg width="289" height="89" viewBox="0 0 289 89" fill="none" xmlns="http://www.w3.org/2000/svg">
<path d="M3.27002 16.96V1.31998H4.68002V16.97H3.27002V16.96Z" fill="#C6A93E"/>
<path d="M20.3601 16.96L12.2201 2.67998C12.2601 4.60998 12.2901 6.93998 12.2901 8.88998V16.96H10.8801V1.31998H13.0101L21.1701 15.61C21.1301 13.66 21.1001 11.35 21.1001 9.39998V1.31998H22.4801L22.5001 16.97H20.3501L20.3601 16.96Z" fill="#C6A93E"/>
<path d="M34.4 2.46998V16.96H32.99V2.46998H27.25V1.31998H40.13V2.47998H34.39L34.4 2.46998Z" fill="#C6A93E"/>
<path d="M54.7601 16.96H44.6201V1.31998H54.5301V2.47998H46.0301V8.55998H53.9401V9.73998H46.0301V15.82H54.7601V16.98V16.96Z" fill="#C6A93E"/>
<path d="M70.8 16.96H69.24C68.85 15.96 68.58 14.99 68.36 12.95C68.16 11.29 67.48 9.99998 65.8 9.90998C65.39 9.88998 64.94 9.88998 64.58 9.88998H61.38V16.96H59.97V1.31998H64.57C65.36 1.31998 65.98 1.31998 66.7 1.40998C69.01 1.69998 70.56 2.96998 70.56 5.46998C70.56 7.52998 69.24 8.77998 67.61 9.18998C68.95 9.72998 69.61 11.16 69.76 12.79C69.99 14.94 70.26 16.08 70.8 16.96ZM64.59 8.70998C65.27 8.70998 65.66 8.70998 66.18 8.65998C67.9 8.51998 69.04 7.40998 69.04 5.57998C69.04 3.74998 68.06 2.83998 66.36 2.58998C65.82 2.51998 65.32 2.49998 64.57 2.49998H61.37V8.70998H64.59Z" fill="#C6A93E"/>
<path d="M75.8501 16.96V1.31998H77.2601V16.97H75.8501V16.96Z" fill="#C6A93E"/>
<path d="M96.8801 9.14C96.8801 13.86 94.1801 17.28 89.6001 17.28C85.0201 17.28 82.3401 13.86 82.3401 9.14C82.3401 4.42 85.0401 1 89.6001 1C94.1601 1 96.8801 4.38 96.8801 9.14ZM95.3201 9.14C95.3201 4.74 92.9901 2.13 89.6101 2.13C86.2301 2.13 83.9201 4.74 83.9201 9.14C83.9201 13.54 86.2601 16.15 89.6101 16.15C92.9601 16.15 95.3201 13.52 95.3201 9.14Z" fill="#C6A93E"/>
<path d="M113.09 16.96H111.53C111.15 15.96 110.87 14.99 110.65 12.95C110.45 11.29 109.77 9.99998 108.09 9.90998C107.68 9.88998 107.23 9.88998 106.87 9.88998H103.67V16.96H102.26V1.31998H106.86C107.65 1.31998 108.27 1.31998 108.99 1.40998C111.3 1.69998 112.84 2.96998 112.84 5.46998C112.84 7.52998 111.52 8.77998 109.89 9.18998C111.23 9.72998 111.89 11.16 112.04 12.79C112.27 14.94 112.54 16.08 113.08 16.96H113.09ZM106.88 8.70998C107.56 8.70998 107.95 8.70998 108.47 8.65998C110.19 8.51998 111.33 7.40998 111.33 5.57998C111.33 3.74998 110.36 2.83998 108.66 2.58998C108.12 2.51998 107.62 2.49998 106.87 2.49998H103.67V8.70998H106.89H106.88Z" fill="#C6A93E"/>
<path d="M144.66 8.99998C144.66 13.94 141.58 16.48 138.52 16.87C137.73 16.96 137.32 16.96 136.52 16.96H131.94V1.31998H136.59C137.41 1.31998 137.77 1.31998 138.47 1.38998C141.64 1.74998 144.66 4.01998 144.66 9.00998V8.99998ZM143.12 8.99998C143.12 4.98998 140.92 2.91998 138.34 2.55998C137.84 2.48998 137.34 2.48998 136.53 2.48998H133.36V15.78H136.47C137.24 15.78 137.79 15.78 138.4 15.69C140.98 15.3 143.14 13.06 143.14 8.99998H143.12Z" fill="#C6A93E"/>
<path d="M160.17 16.96H150.03V1.31998H159.94V2.47998H151.44V8.55998H159.35V9.73998H151.44V15.82H160.17V16.98V16.96Z" fill="#C6A93E"/>
<path d="M175.04 5.50999H173.57C173.3 3.37999 171.94 2.12999 169.87 2.12999C168.08 2.12999 166.42 3.05999 166.42 4.91999C166.42 6.77999 167.53 7.52999 170.21 8.20999C173.57 9.06999 175.24 10.34 175.24 12.93C175.24 15.52 172.97 17.28 169.98 17.28C166.81 17.28 164.52 15.67 164.18 12.65H165.68C166.07 14.89 167.79 16.14 170.03 16.14C172.09 16.14 173.75 14.96 173.75 13.15C173.75 11.13 172.57 10.27 169.65 9.53999C166.68 8.76999 164.91 7.72999 164.91 5.20999C164.91 2.68999 167.22 0.98999 169.99 0.98999C173.12 0.98999 174.75 2.95999 175.05 5.49999L175.04 5.50999Z" fill="#C6A93E"/>
<path d="M180.69 16.96V1.31998H182.1V16.97H180.69V16.96Z" fill="#C6A93E"/>
<path d="M200.62 9.64V16.96H199.35V13.74L198.74 15.15C197.7 16.6 196.04 17.28 194.16 17.28C189.85 17.28 187.18 13.97 187.18 9.21C187.18 4.45 190.2 1 194.53 1C198.29 1 200.31 3.22 200.74 6.19L200.76 6.42H199.35L199.3 6.19C198.82 3.81 197.26 2.13 194.47 2.13C191.18 2.13 188.73 4.87 188.73 9.14C188.73 13.41 191.04 16.15 194.24 16.15C196.73 16.15 199.21 14.34 199.21 10.8H194.95V9.64H200.62Z" fill="#C6A93E"/>
<path d="M216.02 16.96L207.88 2.66998C207.92 4.59998 207.95 6.92998 207.95 8.87998V16.95H206.54V1.31998H208.67L216.83 15.61C216.79 13.66 216.76 11.35 216.76 9.39998V1.31998H218.14L218.16 16.97H216.01L216.02 16.96Z" fill="#C6A93E"/>
<path d="M17.04 70.1C17.04 70.71 16.48 71.18 15.26 71.32V76.56C15.26 79.7 15.31 82.69 15.35 85.22C15.35 85.83 14.55 87.05 13.1 87.05C12.26 87.05 12.12 86.68 12.12 86.16V82.98H3.37V85.74C3.37 86.3 2.48 87.47 0.98 87.47C0.09 87.47 0 87 0 86.49C0.05 82.84 0.14 79.23 0.14 75.91V66.64C1.36 67.25 2.57 68 3.6 68.89H11.93C12.21 68.23 12.63 67.53 13.1 66.97C14.79 67.72 17.03 69.26 17.03 70.11L17.04 70.1ZM3.37 81.62H12.12V70.24H3.37V81.62ZM8.61 63.74C8.66 60.88 8.7 57.79 8.7 54.89V47.07C9.92 47.63 11.13 48.43 12.16 49.32H24.19C24.52 48.62 24.89 47.96 25.41 47.35C27.14 48.1 29.44 49.6 29.44 50.49C29.44 51.1 28.88 51.57 27.66 51.71V55.27C27.66 57.84 27.71 60.14 27.75 62.71C27.75 63.27 26.81 64.44 25.46 64.44C24.62 64.44 24.43 64.07 24.43 63.55V61.68H11.93V62.9C11.93 63.46 11.04 64.68 9.59 64.68C8.75 64.68 8.61 64.26 8.61 63.74ZM24.43 50.68H11.93V60.32H24.43V50.68ZM36.13 71.37V76.61C36.13 79.23 36.18 82.7 36.22 85.22C36.22 85.83 35.38 87.05 33.83 87.05C32.99 87.05 32.89 86.68 32.89 86.16V82.98H24.14V85.79C24.14 86.35 23.3 87.48 21.8 87.48C20.91 87.48 20.86 87.01 20.86 86.5C20.91 83.46 21 79.24 21 75.92V66.7C22.17 67.26 23.25 68.01 24.37 68.9H32.7C33.03 68.29 33.36 67.59 33.87 66.98C35.55 67.73 37.9 69.32 37.9 70.16C37.9 70.77 37.34 71.24 36.12 71.38L36.13 71.37ZM24.15 81.62H32.9V70.24H24.15V81.62Z" fill="black"/>
<path d="M84.17 54.09V66.82C84.17 73.42 84.22 79.83 84.26 84.84C84.26 85.59 83.42 86.76 81.92 86.76C81.08 86.76 80.94 86.39 80.94 85.82V82.45H54.63V84.93C54.63 85.68 53.6 86.76 52.24 86.76C51.44 86.76 51.26 86.43 51.26 85.87C51.31 78.99 51.4 72.43 51.4 66.82V49.45C52.57 50.06 53.79 50.9 54.86 51.7H80.7C81.03 51.09 81.36 50.53 81.92 49.87C83.65 50.62 85.85 52.21 85.85 52.96C85.85 53.57 85.29 53.99 84.17 54.08V54.09ZM66.05 53.06H54.63V65.65H66.05V53.06ZM54.63 67.01V81.1H66.05V67.01H54.63ZM80.94 53.06H69.24V65.65H80.94V53.06ZM69.24 81.1H80.94V67.01H69.24V81.1Z" fill="black"/>
<path d="M99.7999 55.96C98.1099 55.96 96.1499 55.59 95.6299 53.9C100.26 54.56 105.27 54.6 109.63 54.6C110.19 53.62 110.89 52.59 111.69 51.7C113.33 52.45 115.95 54.09 115.95 55.07C115.95 55.59 115.48 55.96 114.54 55.96H99.7899H99.7999ZM109.3 58.16C110.89 58.91 113.28 60.36 113.28 61.2C113.28 61.71 112.81 62.04 112.02 62.04H101.63C100.23 62.04 98.4499 61.62 98.1199 60.03C101.54 60.54 104.49 60.69 107.44 60.69C107.95 59.8 108.52 59 109.31 58.16H109.3ZM101.34 68.22C99.9799 68.22 98.5299 67.85 98.1099 66.25C101.34 66.77 104.34 66.86 107.47 66.86C107.98 65.97 108.59 65.03 109.34 64.24C110.74 64.9 113.27 66.44 113.27 67.38C113.27 67.9 112.85 68.22 111.96 68.22H101.33H101.34ZM109.58 86.8C108.78 86.8 108.64 86.47 108.64 85.91V84.13H102.32V86.28C102.32 86.84 101.48 88.06 99.9799 88.06C99.1399 88.06 99.0399 87.73 99.0399 87.22C99.0899 84.27 99.1299 81.51 99.1299 78.56V71.07C100.3 71.63 101.56 72.43 102.55 73.27H108.4C108.73 72.71 109.06 72.15 109.57 71.54C110.83 72.01 113.32 73.51 113.32 74.49C113.32 75.1 112.81 75.47 111.78 75.66V79.12C111.78 80.85 111.83 82.91 111.87 85.07C111.87 85.73 110.84 86.8 109.58 86.8ZM101.15 46.12C101.43 45.7 101.81 45.89 102.27 46.12C105.27 47.62 108.07 49.63 108.07 51.27C108.07 52.39 106.99 53.66 105.73 53.66C104.98 53.66 104.75 53.14 104.65 52.63C104.46 51.6 104.18 49.68 101.47 47.01C101.19 46.73 100.86 46.49 101.14 46.12H101.15ZM102.32 82.78H108.64V74.63H102.32V82.78ZM139.54 85.45C139.54 85.97 139.12 86.11 138.28 86.2C135.14 86.53 133.18 86.57 132.71 87.42C130.32 86.62 127 84.33 124.61 81.47C121.1 84.56 116.7 86.76 112.02 87.74C111.41 87.88 110.76 87.97 110.66 87.41C110.57 86.94 110.8 86.85 111.46 86.66C115.86 85.4 119.98 83.01 123.21 79.59C121.06 76.41 119.42 72.52 118.48 67.98H117.59C115.95 67.98 114.55 67.51 113.84 65.97C117.16 66.44 119.83 66.63 123.02 66.63H128.54C128.96 66.02 129.34 65.41 129.9 64.8C131.54 65.5 134.07 67.14 134.07 68.08C134.07 68.83 133.23 69.11 132.15 69.3C131.26 73.23 129.29 76.65 126.67 79.51C130.98 83.4 136.83 84.43 138.42 84.66C139.03 84.75 139.54 84.89 139.54 85.46V85.45ZM118.71 47.16C120.07 47.68 121.38 48.38 122.55 49.17H126.72C127.05 48.65 127.38 48.09 127.84 47.58C129.29 48.19 131.54 49.55 131.54 50.44C131.54 51 130.98 51.38 130.14 51.52V59.52C130.14 60.27 130.51 60.5 131.45 60.55C132.57 60.6 134.02 60.41 134.77 59.99C135.1 59.8 135.43 59.66 135.66 59.66C136.04 59.66 136.41 59.75 136.83 60.08C137.49 60.59 138.23 61.48 138.23 61.95C138.23 62.42 138 62.61 137.39 62.75C135.89 63.08 133.79 63.36 131.4 63.36C127.94 63.36 126.95 62.38 126.95 60.13V50.53H122.55C122.55 58.63 119.37 63.03 114.73 65.14C114.12 65.42 113.75 65.37 113.51 65.05C113.28 64.72 113.56 64.44 114.02 64.16C117.25 62.01 119.12 58.5 119.31 52.13C119.36 50.68 119.08 48.62 118.7 47.17L118.71 47.16ZM119.93 67.99C121.01 72.06 122.69 75.15 124.85 77.59C126.82 74.92 128.27 71.78 128.83 67.99H119.94H119.93Z" fill="black"/>
<path d="M149.46 56.1C147.54 56.1 145.57 55.63 145.2 53.99C150.54 54.65 155.87 54.74 160.79 54.74C161.35 53.76 162.01 52.91 162.8 52.02C164.34 52.68 167.11 54.31 167.11 55.25C167.11 55.76 166.69 56.09 165.75 56.09H149.46V56.1ZM160.04 58.25C161.49 58.86 164.11 60.4 164.11 61.29C164.11 61.81 163.73 62.13 162.8 62.13H152.03C150.49 62.13 148.57 61.85 148.1 60.12C151.52 60.64 154.93 60.78 158.26 60.78C158.77 59.89 159.29 59.09 160.04 58.25ZM151.66 68.46C150.16 68.46 148.43 67.99 148.1 66.45C151.75 66.96 154.75 67.11 158.12 67.11C158.68 66.22 159.24 65.38 160.04 64.54C161.45 65.15 164.07 66.79 164.07 67.63C164.07 68.15 163.65 68.47 162.81 68.47H151.67L151.66 68.46ZM164.25 74.83C164.25 75.44 163.64 75.81 162.66 76V79.32C162.66 81.57 162.71 83.67 162.75 85.73C162.75 86.34 161.81 87.37 160.46 87.37C159.71 87.37 159.52 87 159.52 86.48V84.23H152.17V86.43C152.17 86.99 151.28 88.16 149.83 88.16C149.08 88.16 148.89 87.83 148.89 87.32C148.94 84.42 148.98 81.47 148.98 78.43V71.41C150.15 71.97 151.41 72.72 152.4 73.52H159.28C159.61 72.91 159.94 72.4 160.4 71.83C162.23 72.63 164.24 73.94 164.24 74.83H164.25ZM151.66 46.23C151.89 45.9 152.22 46 152.69 46.23C155.45 47.63 158.45 49.65 158.45 51.38C158.45 52.55 157.42 53.67 156.25 53.67C155.5 53.67 155.22 53.3 155.13 52.69C154.94 51.61 154.38 49.32 151.9 47.07C151.53 46.74 151.43 46.56 151.67 46.23H151.66ZM152.17 82.89H159.52V74.88H152.17V82.89ZM188.64 63.32C188.64 63.93 188.13 64.21 187.28 64.21H177.31C177.31 71.28 177.4 79.24 177.45 85.84C177.45 86.59 176.51 87.85 174.92 87.85C174.08 87.85 173.94 87.48 173.94 86.87C174.03 79.89 174.08 72.4 174.08 64.21H167.43C165.79 64.21 163.97 63.84 163.45 62.15C166.68 62.67 170 62.85 174.08 62.85V46.23C177.45 46.51 179.23 47.21 179.23 48.01C179.23 48.62 178.71 48.95 177.31 49.09V62.85H181.94C182.55 61.77 183.25 60.7 184.09 59.71C185.68 60.46 188.63 62.28 188.63 63.31L188.64 63.32Z" fill="black"/>
<path d="M237.98 82.69C237.98 83.35 237.46 83.77 236.34 83.77H199.54C197.62 83.77 195.56 83.3 195.19 81.62C201.88 82.32 208.53 82.42 214.76 82.42V54.75H202.35C200.66 54.75 198.75 54.42 198.09 52.6C204.5 53.26 209.84 53.4 216.53 53.4H226.88C227.63 52.14 228.42 50.97 229.41 49.8C231.28 50.6 234.79 52.66 234.79 53.78C234.79 54.39 234.32 54.76 233.34 54.76H217.98V82.43H229.78C230.57 81.07 231.46 79.76 232.4 78.64C234.18 79.39 237.97 81.54 237.97 82.71L237.98 82.69Z" fill="black"/>
<path d="M256.28 69.21C256.28 75.16 256.37 80.91 256.42 86.63C256.42 87.33 255.58 88.6 254.03 88.6C253.14 88.6 253 88.18 253 87.62C253.05 81.58 253.14 75.35 253.14 69.32V66.6C251.03 72.69 247.24 77.27 245.09 79.43C244.62 79.9 244.2 79.99 243.87 79.66C243.64 79.43 243.59 79.15 244.06 78.54C245.89 76.11 250.01 69.88 251.88 60.61H248.04C246.4 60.61 245.18 60.19 244.76 58.6C247.43 59.02 250.24 59.26 253.14 59.26V51.91C250.71 52.29 248.32 52.47 246.54 52.47C245.84 52.47 245.37 52.38 245.42 51.77C245.47 51.21 245.98 51.21 246.54 51.11C250.15 50.5 255.76 49.38 258.34 46.48C260.45 47.28 262.69 48.96 262.69 49.99C262.69 50.41 262.36 50.69 261.85 50.69C261.19 50.69 260.63 50.5 260.02 50.17C258.9 50.59 257.63 50.97 256.27 51.29V59.25H257.53C258.04 58.31 258.61 57.47 259.31 56.44C260.9 57.28 263.24 58.87 263.24 59.72C263.24 60.33 262.73 60.61 261.88 60.61H256.26V64.64C260.52 66.93 262.67 68.81 262.67 70.63C262.67 71.8 261.73 73.3 260.38 73.3C259.63 73.3 259.54 72.97 259.44 72.36C259.3 71.47 259.21 69.13 256.26 66.04V69.22L256.28 69.21ZM288.07 85.08C288.07 85.64 287.65 85.97 286.67 85.97H263.26C261.57 85.97 259.98 85.45 259.42 83.86C263.4 84.38 267.38 84.61 272.34 84.61V76.84H267.24C265.6 76.84 264.01 76.61 263.45 74.78C266.16 75.2 268.69 75.44 272.34 75.48V68.65C268.83 68.93 265.46 69.02 263.82 69.02C263.21 69.02 262.88 68.83 262.88 68.36C262.88 67.94 263.16 67.75 263.82 67.7C269.58 67.28 278.19 66.16 281 63.63C283.06 64.52 285.03 66.06 285.03 66.86C285.03 67.89 283.58 67.8 282.03 67.14C280.53 67.65 278.14 68.03 275.57 68.31V75.47H278.19C278.75 74.49 279.45 73.5 280.16 72.71C281.89 73.46 284.47 75 284.47 75.89C284.47 76.45 284 76.83 282.97 76.83H275.57V84.6H281.33C281.99 83.52 282.69 82.49 283.48 81.6C285.35 82.44 288.07 84.08 288.07 85.06V85.08ZM265.6 62.42C265.65 59.85 265.69 57.46 265.69 54.79V47.86C266.81 48.33 268.08 49.03 269.06 49.83H278.89C279.17 49.22 279.5 48.71 279.92 48.14C281.7 48.84 283.85 50.2 283.85 51.09C283.85 51.65 283.24 51.98 282.31 52.12V54.88C282.31 57.08 282.36 59.19 282.4 61.2C282.4 61.9 281.46 62.93 280.06 62.93C279.26 62.93 279.12 62.6 279.12 62.04V60.59H268.82V61.62C268.82 62.28 267.84 63.26 266.57 63.26C265.73 63.26 265.59 62.89 265.59 62.42H265.6ZM279.13 51.18H268.83V59.23H279.13V51.18Z" fill="black"/>
</svg>
