<svg width="88" height="23" viewBox="0 0 88 23" fill="none" xmlns="http://www.w3.org/2000/svg">
<g clip-path="url(#clip0_313_4091)">
<path d="M76.3 2.09999C76.3 2.23999 76.14 2.29999 75.86 2.32999C75.6 2.65999 75.24 3.04999 74.96 3.30999C74.88 3.38999 74.79 3.44999 74.7 3.38999C74.61 3.32999 74.65 3.24999 74.7 3.14999C74.83 2.85999 74.99 2.47999 75.11 2.13999H69.05C69.07 2.31999 69.08 2.49999 69.08 2.65999C69.08 3.39999 68.58 3.73999 68.2 3.73999C67.89 3.73999 67.75 3.54999 67.75 3.33999C67.75 3.12999 67.95 3.03999 68.11 2.92999C68.51 2.64999 68.72 2.21999 68.64 1.42999C68.63 1.33999 68.64 1.23999 68.77 1.23999C68.9 1.23999 68.92 1.32999 68.94 1.42999C68.97 1.54999 68.99 1.69999 69.02 1.85999H75.02C75.13 1.68999 75.24 1.52999 75.37 1.37999C75.76 1.55999 76.31 1.89999 76.31 2.08999L76.3 2.09999ZM76.15 8.49999C76.15 8.63999 76.03 8.70999 75.81 8.70999H68.91C68.48 8.70999 67.95 8.63999 67.83 8.22999C69.06 8.36999 70.47 8.41999 71.67 8.41999V6.26999H69.86C69.43 6.26999 69.06 6.18999 68.94 5.81999C69.97 5.93999 70.89 5.97999 71.98 5.97999H73.58C73.73 5.71999 73.88 5.49999 74.08 5.28999C74.44 5.42999 75.13 5.82999 75.13 6.04999C75.13 6.18999 75.03 6.26999 74.79 6.26999H72.37V8.41999H74.53C74.67 8.16999 74.84 7.92999 75.05 7.69999C75.42 7.85999 76.16 8.26999 76.16 8.49999H76.15ZM67.87 5.45999C67.85 5.35999 67.91 5.31999 68.04 5.28999C68.14 5.26999 70.38 4.84999 70.73 2.46999C71.32 2.61999 71.76 2.89999 71.76 3.04999C71.76 3.18999 71.56 3.20999 71.3 3.19999C70.61 4.96999 68.81 5.44999 68.14 5.54999C68.01 5.56999 67.89 5.56999 67.87 5.45999ZM70.88 0.0499931C70.93 -0.0300069 71.02 -6.93277e-06 71.14 0.0499931C72.05 0.459993 72.66 0.899993 72.66 1.25999C72.66 1.52999 72.45 1.80999 72.12 1.80999C71.94 1.80999 71.91 1.69999 71.89 1.58999C71.85 1.37999 71.71 0.849993 70.97 0.259993C70.88 0.189993 70.83 0.129993 70.88 0.0499931ZM73.18 3.04999V3.90999C73.18 4.11999 73.32 4.23999 73.67 4.23999C74.29 4.23999 74.9 4.18999 75.22 4.08999C75.32 4.05999 75.4 4.02999 75.47 4.02999C75.69 4.02999 76.05 4.30999 76.05 4.47999C76.05 4.57999 75.99 4.65999 75.81 4.69999C75.26 4.80999 74.46 4.84999 73.72 4.84999C72.75 4.84999 72.52 4.61999 72.52 4.09999V2.48999C73.01 2.52999 73.55 2.68999 73.55 2.86999C73.55 2.98999 73.38 3.03999 73.19 3.05999L73.18 3.04999Z" fill="white"/>
<path d="M81.2302 3.55001H79.4302V8.73001C79.4302 8.88 79.2002 9.12001 78.9302 9.12001C78.7402 9.12001 78.7202 9.02001 78.7202 8.91001C78.7502 7.65001 78.7602 6.32001 78.7602 4.59001V0.350006C79.0102 0.450006 79.2702 0.610006 79.4802 0.780006H81.1802C81.2502 0.650006 81.3202 0.540006 81.4202 0.420006C81.8102 0.570006 82.2202 0.850006 82.2202 1.00001C82.2202 1.12001 82.0802 1.19001 81.8902 1.22001V2.17001C81.8902 2.64001 81.8902 3.05001 81.9102 3.55001C81.9102 3.70001 81.6902 3.92001 81.4202 3.92001C81.2402 3.92001 81.2202 3.85001 81.2202 3.74001V3.56001L81.2302 3.55001ZM79.4302 3.26001H81.2302V2.28001H79.4402V3.26001H79.4302ZM81.2202 1.06001H79.4302V1.99001H81.2202V1.06001ZM83.6402 7.86001C83.4702 7.86001 83.4402 7.79001 83.4402 7.69001V7.29001H81.5202V7.67001C81.5202 7.83001 81.2902 8.04001 81.0302 8.04001C80.8502 8.04001 80.8202 7.94001 80.8202 7.84001C80.8202 7.19001 80.8402 6.55001 80.8402 5.83001V4.08001C81.0802 4.18001 81.3502 4.33001 81.5602 4.51001H83.3902C83.4602 4.38001 83.5402 4.27001 83.6402 4.16001C83.9802 4.29001 84.4302 4.58001 84.4302 4.74001C84.4302 4.87001 84.3102 4.94001 84.1102 4.97001V5.87001C84.1102 6.39001 84.1102 6.90001 84.1102 7.47001C84.1102 7.64001 83.9202 7.86001 83.6202 7.86001H83.6402ZM83.4402 4.80001H81.5202V5.72001H83.4402V4.80001ZM81.5202 7.01001H83.4402V6.01001H81.5202V7.01001ZM86.6202 1.02001C86.6202 1.14001 86.4802 1.22001 86.2802 1.25001V8.05001C86.2802 8.57001 85.9002 8.86001 85.0602 9.11001C84.9502 8.83001 84.2402 8.67001 83.7702 8.55001C83.6302 8.51001 83.5402 8.48001 83.5602 8.35001C83.5802 8.21001 83.7202 8.24001 83.8102 8.25001C84.0202 8.27001 84.4402 8.32001 84.8202 8.32001C85.4102 8.32001 85.6002 8.08001 85.6002 7.68001V3.55001H83.7602C83.7602 3.72001 83.5102 3.92001 83.2802 3.92001C83.0802 3.92001 83.0502 3.84001 83.0502 3.71001C83.0702 3.14001 83.0802 2.58001 83.0802 1.88001V0.360006C83.3302 0.460006 83.5902 0.610006 83.8002 0.780006H85.5502C85.6202 0.640006 85.7002 0.520006 85.7902 0.410006C86.1702 0.570006 86.6102 0.850006 86.6102 1.02001H86.6202ZM85.6102 1.06001H83.7702V1.99001H85.6102V1.06001ZM83.7702 3.26001H85.6102V2.28001H83.7702V3.26001Z" fill="white"/>
<path d="M76.64 22.37C76.64 22.5 76.55 22.52 76.37 22.54C75.72 22.61 75.25 22.64 75.14 22.78C74.71 22.66 73.11 21.96 72.22 20.01H72.05C71.62 21.86 69.61 22.63 67.71 22.8C67.58 22.8 67.43 22.8 67.42 22.67C67.41 22.53 67.53 22.51 67.65 22.49C69.45 22.24 70.91 21.44 71.32 20.01H68.74C68.26 20.01 67.71 19.95 67.59 19.5C68.97 19.67 70 19.72 71.39 19.72C71.47 19.34 71.49 18.9 71.46 18.47H69.02C68.61 18.47 68.06 18.44 67.93 17.99C69.02 18.14 70.21 18.18 71.62 18.18V17.16H69.81C69.45 17.16 68.95 17.13 68.83 16.7C69.52 16.82 70.44 16.87 71.62 16.87V15.84H69.36C68.96 15.84 68.38 15.79 68.24 15.36C69.3 15.5 70.81 15.55 71.82 15.55H72.42C72.7 15.2 73.07 14.49 73.1 13.74C73.72 13.9 74.16 14.21 74.16 14.37C74.16 14.48 74.02 14.54 73.74 14.5C73.43 14.92 73.04 15.27 72.66 15.54H74.39C74.5 15.33 74.63 15.13 74.8 14.94C75.21 15.13 75.78 15.46 75.78 15.64C75.78 15.77 75.66 15.83 75.43 15.83H72.29V16.86H73.57C73.67 16.68 73.79 16.46 73.95 16.28C74.34 16.46 74.88 16.79 74.88 16.96C74.88 17.08 74.77 17.14 74.54 17.14H72.29V18.16H74.53C74.63 17.97 74.75 17.77 74.92 17.58C75.33 17.75 75.89 18.08 75.89 18.26C75.89 18.39 75.78 18.45 75.56 18.45H71.68C72.22 18.56 72.59 18.74 72.59 18.91C72.59 19.04 72.43 19.09 72.17 19.08C72.15 19.31 72.12 19.57 72.1 19.7H74.89C75.01 19.48 75.14 19.26 75.33 19.05C75.76 19.24 76.34 19.6 76.34 19.79C76.34 19.91 76.24 19.98 75.99 19.98H72.53C73.83 21.95 76.26 22.16 76.38 22.18C76.5 22.2 76.63 22.21 76.63 22.34L76.64 22.37ZM69.87 13.82C69.94 13.74 70.01 13.77 70.12 13.82C70.9 14.24 71.38 14.68 71.38 14.99C71.38 15.2 71.19 15.47 70.91 15.47C70.74 15.47 70.68 15.35 70.67 15.23C70.65 15.06 70.61 14.56 69.96 14.01C69.87 13.93 69.81 13.88 69.87 13.81V13.82Z" fill="white"/>
<path d="M87.1102 18.43C87.1102 18.57 86.9802 18.61 86.7002 18.64C86.4102 18.94 86.0702 19.26 85.7902 19.47C85.6902 19.55 85.6202 19.59 85.5402 19.54C85.4402 19.48 85.5002 19.38 85.5402 19.32C85.6702 19.09 85.8402 18.77 85.9502 18.48H79.1302C79.1002 19.08 78.7702 19.52 78.3202 19.52C78.1002 19.52 77.9502 19.35 77.9502 19.21C77.9502 19.03 78.1002 18.98 78.2602 18.88C78.5502 18.7 78.7902 18.38 78.8302 17.91C78.8302 17.8 78.8502 17.71 78.9702 17.71C79.1002 17.71 79.1202 17.82 79.1302 17.92C79.1302 18.01 79.1302 18.11 79.1302 18.2H79.4102C79.3402 16.93 79.2802 15.63 79.2002 14.33C79.4302 14.41 79.7202 14.54 79.9202 14.69C80.2402 14.59 80.7102 14.32 80.9702 13.98C81.3502 14.16 81.6802 14.46 81.6802 14.6C81.6802 14.68 81.6202 14.72 81.5202 14.72C81.4102 14.72 81.2702 14.67 81.1302 14.62C80.7702 14.82 80.2402 14.95 79.8302 15C79.8502 15.28 79.8602 15.55 79.8802 15.82H80.4302C80.5102 15.69 80.6102 15.55 80.7302 15.41C80.9302 15.5 81.4002 15.79 81.4002 15.95C81.4002 16.05 81.3202 16.1 81.1602 16.1H79.8902L79.9502 17.03H80.5302C80.6302 16.88 80.7102 16.74 80.8402 16.6C81.0502 16.7 81.5102 16.98 81.5102 17.15C81.5102 17.25 81.4402 17.31 81.2702 17.31H79.9602C79.9702 17.61 79.9902 17.91 80.0102 18.2H84.9502C84.9802 17.9 85.0002 17.61 85.0202 17.31H84.4402C84.1402 17.31 83.8402 17.25 83.7502 16.91C84.1602 16.98 84.5902 17.01 85.0502 17.02L85.1102 16.17H84.5702C84.3002 16.17 83.9802 16.1 83.9202 15.76C84.3102 15.83 84.7202 15.87 85.1402 15.88C85.1602 15.56 85.1902 15.25 85.2102 14.93H84.4102C84.1402 14.93 83.8702 14.85 83.8002 14.51C84.2402 14.59 84.6702 14.63 85.1702 14.64C85.2402 14.52 85.3102 14.42 85.4002 14.31C85.7702 14.48 86.2302 14.79 86.2302 14.95C86.2302 15.1 86.0502 15.17 85.8102 15.19C85.7402 16.14 85.6702 17.2 85.5802 18.19H85.8902C85.9702 18.04 86.0702 17.88 86.1802 17.74C86.6102 17.91 87.1102 18.25 87.1102 18.41V18.43ZM86.5302 20.73C86.5302 20.86 86.4202 20.94 86.1802 20.94H83.0402V21.97C83.0402 22.51 82.6602 22.83 81.8402 22.98C81.7402 22.69 80.9202 22.49 80.3602 22.34C80.2302 22.3 80.1502 22.28 80.1902 22.15C80.2202 22.04 80.2902 22.03 80.4302 22.06C80.7002 22.11 81.2602 22.2 81.6102 22.2C82.1202 22.2 82.3502 22.07 82.3502 21.7V20.94H79.3602C78.9402 20.94 78.5202 20.85 78.4102 20.44C79.7102 20.61 81.1002 20.65 82.3502 20.65V19.96C82.5002 19.96 82.6302 19.99 82.7502 20.02C83.0102 19.87 83.2602 19.71 83.4702 19.52H81.1002C80.6702 19.52 80.2502 19.45 80.1202 19.01C81.2302 19.18 82.5602 19.19 83.5302 19.19C83.6202 19.04 83.7302 18.89 83.8402 18.76C84.2602 18.94 84.7802 19.27 84.7802 19.45C84.7802 19.59 84.6302 19.64 84.2402 19.66C83.8602 19.84 83.5002 19.99 83.1202 20.11C83.2402 20.17 83.3102 20.22 83.3102 20.27C83.3102 20.36 83.2102 20.41 83.0302 20.43V20.65H84.9502C85.1002 20.39 85.2502 20.15 85.4402 19.94C85.8602 20.12 86.5202 20.51 86.5202 20.73H86.5302ZM82.3602 16.93C82.1802 16.78 81.9702 16.62 81.7202 16.46C81.6602 16.42 81.6002 16.38 81.6502 16.31C81.6802 16.26 81.7502 16.27 81.8202 16.31C82.0902 16.44 82.3302 16.57 82.5402 16.69C82.6802 16.47 82.7902 16.22 82.8602 15.96C83.2402 16.1 83.5802 16.3 83.5802 16.44C83.5802 16.54 83.4402 16.56 83.2402 16.53C83.1402 16.68 83.0402 16.82 82.9402 16.95C83.3802 17.24 83.6102 17.49 83.6102 17.66C83.6102 17.81 83.5002 18.02 83.2902 18.02C83.1702 18.02 83.1602 17.94 83.1202 17.87C83.0402 17.73 82.9002 17.5 82.6502 17.25C82.2602 17.64 81.8302 17.89 81.3802 18.05C81.2802 18.09 81.2102 18.1 81.1702 18.03C81.1302 17.96 81.2002 17.91 81.2802 17.87C81.5002 17.76 81.9602 17.43 82.3402 16.95L82.3602 16.93ZM81.7802 14.15C81.8202 14.09 81.8702 14.1 81.9502 14.15C82.2102 14.28 82.4402 14.41 82.6402 14.53C82.7402 14.33 82.8302 14.1 82.8902 13.85C83.2902 13.97 83.6102 14.17 83.6102 14.3C83.6102 14.39 83.5002 14.41 83.3002 14.39C83.2202 14.54 83.1402 14.68 83.0502 14.8C83.3702 15.03 83.5702 15.24 83.5702 15.41C83.5702 15.6 83.4402 15.77 83.2502 15.77C83.1402 15.77 83.1102 15.7 83.0802 15.63C83.0402 15.55 82.9502 15.37 82.7702 15.14C82.4202 15.52 82.0402 15.76 81.7302 15.91C81.6402 15.95 81.5502 15.96 81.5102 15.88C81.4702 15.81 81.5402 15.77 81.6202 15.72C81.7702 15.61 82.1602 15.33 82.4702 14.82C82.3002 14.65 82.0902 14.47 81.8302 14.3C81.7602 14.25 81.7302 14.22 81.7702 14.16L81.7802 14.15Z" fill="white"/>
<path d="M0 7.28001V1.60001H0.51V7.29001H0V7.28001Z" fill="#C6A93E"/>
<path d="M5.87994 7.28001L2.92994 2.09001C2.94994 2.79001 2.94994 3.64001 2.94994 4.35001V7.28001H2.43994V1.60001H3.20994L6.17994 6.79001C6.15994 6.08001 6.15994 5.24001 6.15994 4.53001V1.60001H6.65994V7.29001H5.88994L5.87994 7.28001Z" fill="#C6A93E"/>
<path d="M10.6598 2.02001V7.29001H10.1498V2.02001H8.06982V1.60001H12.7498V2.02001H10.6698H10.6598Z" fill="#C6A93E"/>
<path d="M17.7298 7.28001H14.0498V1.60001H17.6498V2.02001H14.5598V4.23001H17.4398V4.66001H14.5598V6.87001H17.7298V7.29001V7.28001Z" fill="#C6A93E"/>
<path d="M23.23 7.28001H22.66C22.52 6.92001 22.42 6.56001 22.34 5.82001C22.27 5.22001 22.02 4.75001 21.41 4.72001C21.26 4.72001 21.1 4.72001 20.96 4.72001H19.8V7.29001H19.29V1.60001H20.96C21.25 1.60001 21.47 1.60001 21.73 1.63001C22.57 1.74001 23.13 2.20001 23.13 3.10001C23.13 3.85001 22.65 4.30001 22.06 4.45001C22.55 4.65001 22.78 5.17001 22.84 5.76001C22.92 6.54001 23.02 6.95001 23.22 7.28001H23.23ZM20.97 4.28001C21.22 4.28001 21.36 4.28001 21.55 4.26001C22.18 4.21001 22.59 3.81001 22.59 3.14001C22.59 2.47001 22.24 2.14001 21.62 2.05001C21.42 2.03001 21.24 2.02001 20.97 2.02001H19.81V4.28001H20.98H20.97Z" fill="#C6A93E"/>
<path d="M24.7402 7.28001V1.60001H25.2502V7.29001H24.7402V7.28001Z" fill="#C6A93E"/>
<path d="M32.0498 4.44001C32.0498 6.15001 31.0698 7.40001 29.3998 7.40001C27.7298 7.40001 26.7598 6.16001 26.7598 4.44001C26.7598 2.72001 27.7398 1.48001 29.3998 1.48001C31.0598 1.48001 32.0498 2.71001 32.0498 4.44001ZM31.4798 4.44001C31.4798 2.84001 30.6298 1.89001 29.3998 1.89001C28.1698 1.89001 27.3298 2.84001 27.3298 4.44001C27.3298 6.04001 28.1798 6.99001 29.3998 6.99001C30.6198 6.99001 31.4798 6.03001 31.4798 4.44001Z" fill="#C6A93E"/>
<path d="M37.6099 7.28001H37.0399C36.8999 6.92001 36.7999 6.56001 36.7199 5.82001C36.6499 5.22001 36.3999 4.75001 35.7899 4.72001C35.6399 4.72001 35.4799 4.72001 35.3399 4.72001H34.1799V7.29001H33.6699V1.60001H35.3399C35.6299 1.60001 35.8499 1.60001 36.1099 1.63001C36.9499 1.74001 37.5099 2.20001 37.5099 3.10001C37.5099 3.85001 37.0299 4.30001 36.4399 4.45001C36.9299 4.65001 37.1599 5.17001 37.2199 5.76001C37.2999 6.54001 37.3999 6.95001 37.5999 7.28001H37.6099ZM35.3499 4.28001C35.5999 4.28001 35.7399 4.28001 35.9299 4.26001C36.5599 4.21001 36.9699 3.81001 36.9699 3.14001C36.9699 2.47001 36.6199 2.14001 35.9999 2.05001C35.7999 2.03001 35.6199 2.02001 35.3499 2.02001H34.1899V4.28001H35.3599H35.3499Z" fill="#C6A93E"/>
<path d="M4.62 18.68C4.62 20.48 3.5 21.4 2.39 21.54C2.1 21.57 1.95 21.57 1.67 21.57H0V15.88H1.69C1.99 15.88 2.12 15.88 2.37 15.9C3.52 16.03 4.62 16.86 4.62 18.67V18.68ZM4.06 18.68C4.06 17.22 3.26 16.47 2.32 16.34C2.14 16.32 1.96 16.32 1.66 16.32H0.51V21.15H1.64C1.92 21.15 2.12 21.15 2.34 21.12C3.28 20.98 4.06 20.16 4.06 18.69V18.68Z" fill="#C6A93E"/>
<path d="M9.93 21.58H6.25V15.89H9.85V16.31H6.76V18.52H9.64V18.95H6.76V21.16H9.93V21.58Z" fill="#C6A93E"/>
<path d="M15.0098 17.42H14.4698C14.3698 16.65 13.8798 16.19 13.1298 16.19C12.4798 16.19 11.8798 16.53 11.8798 17.2C11.8798 17.87 12.2798 18.15 13.2598 18.39C14.4798 18.7 15.0898 19.16 15.0898 20.1C15.0898 21.04 14.2698 21.68 13.1798 21.68C12.0298 21.68 11.1898 21.1 11.0698 20H11.6098C11.7498 20.82 12.3798 21.27 13.1898 21.27C13.9398 21.27 14.5398 20.84 14.5398 20.18C14.5398 19.45 14.1098 19.13 13.0498 18.87C11.9698 18.59 11.3298 18.21 11.3298 17.3C11.3298 16.39 12.1698 15.77 13.1798 15.77C14.3198 15.77 14.9098 16.49 15.0198 17.41L15.0098 17.42Z" fill="#C6A93E"/>
<path d="M16.73 21.58V15.89H17.24V21.58H16.73Z" fill="#C6A93E"/>
<path d="M23.6498 18.91V21.57H23.1898V20.4L22.9698 20.91C22.5898 21.44 21.9898 21.68 21.2998 21.68C19.7298 21.68 18.7598 20.48 18.7598 18.75C18.7598 17.02 19.8598 15.77 21.4298 15.77C22.7998 15.77 23.5298 16.58 23.6898 17.66V17.74H23.1898L23.1698 17.66C22.9998 16.79 22.4298 16.19 21.4198 16.19C20.2298 16.19 19.3398 17.19 19.3398 18.74C19.3398 20.29 20.1798 21.29 21.3398 21.29C22.2498 21.29 23.1398 20.63 23.1398 19.35H21.5898V18.93H23.6498V18.91Z" fill="#C6A93E"/>
<path d="M28.91 21.58L25.95 16.39C25.97 17.09 25.97 17.94 25.97 18.65V21.58H25.46V15.89H26.23L29.2 21.08C29.18 20.37 29.18 19.53 29.18 18.82V15.89H29.68V21.58H28.91Z" fill="#C6A93E"/>
</g>
<defs>
<clipPath id="clip0_313_4091">
<rect width="87.11" height="22.98" fill="white"/>
</clipPath>
</defs>
</svg>
