<?xml version="1.0" encoding="UTF-8"?>
<svg id="_圖層_2" data-name="圖層 2" xmlns="http://www.w3.org/2000/svg" viewBox="0 0 516.7 74.75">
  <defs>
    <style>
      .cls-1 {
        fill: #fff;
      }

      .cls-2 {
        fill: none;
        stroke: #fff;
        stroke-miterlimit: 10;
      }
    </style>
  </defs>
  <g id="_圖文" data-name="圖文">
    <g>
      <path class="cls-1" d="m57.06,48.97v1.97h-30.6v-1.97h18.02c1.32-4.8,2.65-11.39,3.33-18.09l4.16,1c-1.18,5.62-3.69,12.47-5.84,17.09h10.93Zm-1.29-19.99h-27.91v-1.79h13.26c-1-2.22-2.54-5.41-3.69-7.34l1.04-.82c2.33,1.79,4.94,4.62,6.41,6.95l-2.04,1.22h12.93v1.79Zm-24,2.65l1.36-.47c2.72,4.55,5.02,10.68,5.84,15.51l-4.05.82c-.5-5.48-1.61-10.78-3.15-15.87Z"/>
      <path class="cls-1" d="m72.72,38.9c2.29,2.51,5.12,6.7,6.31,9.75l-3.4,1.47c-.36-1.29-.89-2.94-1.5-4.59-3.3,1.9-8.42,3.98-11.11,4.73l-1.36-3.58,2.76-.43v-25.01h12.93v15.55h-9.71v8.81c2.01-.43,4.01-.93,5.91-1.5-.64-1.68-1.32-3.3-1.9-4.48l1.07-.72Zm-5.09-10.71h6.55v-5.34h-6.55v5.34Zm0,6.99h6.55v-5.45h-6.55v5.45Zm24.33-13.9v22.61c0,3.8-4.55,3.58-8.21,1.29l.32-1.22c3.83.72,4.73.47,4.73-1.25v-19.81h-5.62v30.02h-3.22v-31.64h12Z"/>
      <path class="cls-1" d="m112.61,32.56c-1.22,2.58-3.26,5.91-4.19,6.95l-1.04-.5c.61-1.58,1.18-3.76,1.51-5.77h-2.58v16.09c0,2.9-2.47,4.77-8.24,1.22l.43-1.29c4.12,1.11,4.66.86,4.66-.72v-15.3h-5.52v-1.54h8.06c-1.25-1.61-2.94-3.55-4.51-5.27l.75-.97c1,.54,2.26,1.29,3.48,2.08.93-1.58,1.9-3.55,2.29-4.84h-8.96v-1.5h9.03l.82-.57,3.19,1.86c-1.43,2.08-3.4,4.41-5.09,5.95.72.54,1.36,1.07,1.86,1.61l-1.61,1.65h1.9l.75-.61,3.01,1.47Zm4.48,13.29l2.9,2.04c-3.15,2.47-7.34,4.51-11.03,5.52l-.5-1.18c2.9-1.36,6.2-3.62,8.63-6.38Zm1.68-22.57h-6.52v-1.61h16.98v1.61h-6.99c-.82,1.5-1.79,3.05-2.51,4.05h7.45v17.84h-14.08v-17.84h5.05c.25-1.25.46-2.87.61-4.05Zm5.34,5.66h-7.99v3.62h7.99v-3.62Zm0,5.23h-7.99v3.83h7.99v-3.83Zm0,5.45h-7.99v3.94h7.99v-3.94Zm6.05,10.35l-2.04,3.05c-1.76-1.61-4.87-4.08-7.67-5.95l.54-1.18c3.12.9,6.16,2.19,9.17,4.08Z"/>
      <path class="cls-1" d="m137.77,41.87c.18,4.23-.21,8.2-1.11,10.53l-3.3-1.4c1.33-2.15,2.54-5.45,3.12-9.28l1.29.14Zm6.41-8.56c1.76,1.9,3.8,4.62,4.84,6.66l-2.87,1.54c-.32-1.04-.75-2.22-1.22-3.4-3.37,1.22-7.52,2.33-10.71,2.83l-.72-3.44c.86.04,1.76.04,2.69,0,1.72-1.93,3.19-3.94,4.69-6.52-2.04.64-4.26,1.18-6.23,1.47l-.64-3.05c.75.04,1.5.04,2.22.04,1.33-2.76,2.79-6.77,3.69-10.21l3.3,1.15c-1.54,3.3-3.62,6.7-5.45,9.06,1.43-.07,2.83-.14,4.12-.25.75-1.4,1.51-2.94,2.33-4.69l3.12,1.54c-2.65,4.66-6.2,8.71-9.28,11.39,2.12-.14,4.3-.36,6.31-.61-.43-1.04-.86-2.01-1.29-2.83l1.11-.68Zm-3.47,8.03c1.18,2.83,2.29,6.38,2.72,8.99l-3.3.5c0-2.54-.32-6.34-.68-9.21l1.25-.29Zm3.15-1.07c1.54,1.76,3.55,5.09,4.44,7.09l-2.94,1.25c-.61-2.36-1.65-5.55-2.65-7.81l1.15-.54Zm19.99-13.9c-.04,12.18-.39,18.88-.97,22.28-.79,4.66-5.09,5.55-11.5.32l.54-1.18c5.66,1.93,7.2,2.4,7.74-.5.39-2.08.89-7.63.89-19.31h-9.24c-1.11,2.15-2.54,4.34-4.41,6.31l-1.04-.82c2.72-4.77,4.05-9.24,4.91-14.26l3.51.86c-.39,1.61-1.07,3.87-2.19,6.31h11.75Zm-9.31,16.12c-1.18-3.08-2.76-6.52-4.41-9.57l1.04-.79c2.51,2.36,4.98,5.55,6.63,8.56l-3.26,1.79Z"/>
    </g>
    <g>
      <path class="cls-1" d="m190.6,42.49l-1.39,3.57h-3.48l6.6-17.39h2.56l6.42,17.39h-3.53l-1.3-3.57h-5.89Zm2.85-8.85h-.04l-1.86,6.16h4.02l-2.11-6.16Z"/>
      <path class="cls-1" d="m207.88,46.06h-3.3v-16.94h4.49c.88,0,1.69.09,2.42.28.73.19,1.34.49,1.85.91.51.42.9.96,1.18,1.63.28.67.42,1.48.42,2.44,0,1.81-.47,3.16-1.4,4.03-.94.88-2.27,1.31-4.01,1.31h-1.64v6.33Zm0-9.08h.67c.49,0,.93-.03,1.3-.1.37-.07.69-.19.94-.38.25-.19.45-.45.57-.8.13-.34.19-.79.19-1.35s-.08-.97-.22-1.3c-.15-.33-.36-.58-.63-.76s-.59-.3-.98-.35c-.38-.05-.8-.08-1.27-.08h-.58v5.12Z"/>
      <path class="cls-1" d="m221.98,46.06h-3.3v-16.94h4.49c.88,0,1.69.09,2.42.28.73.19,1.34.49,1.85.91.51.42.9.96,1.18,1.63.28.67.42,1.48.42,2.44,0,1.81-.47,3.16-1.4,4.03-.94.88-2.27,1.31-4.01,1.31h-1.64v6.33Zm0-9.08h.67c.49,0,.93-.03,1.3-.1.37-.07.69-.19.94-.38.25-.19.45-.45.57-.8.13-.34.19-.79.19-1.35s-.08-.97-.22-1.3c-.15-.33-.36-.58-.63-.76s-.59-.3-.98-.35c-.38-.05-.8-.08-1.27-.08h-.58v5.12Z"/>
      <path class="cls-1" d="m240.36,46.51c-1.24,0-2.38-.24-3.4-.72-1.03-.48-1.91-1.12-2.64-1.93-.73-.81-1.31-1.76-1.72-2.84-.41-1.09-.62-2.24-.62-3.45s.21-2.31.62-3.39c.41-1.08.98-2.03,1.72-2.84.73-.82,1.61-1.46,2.64-1.94,1.03-.48,2.16-.72,3.4-.72s2.36.24,3.39.72c1.03.48,1.92,1.13,2.65,1.94.73.82,1.31,1.76,1.72,2.84.41,1.08.62,2.21.62,3.39s-.21,2.36-.62,3.45c-.41,1.09-.98,2.03-1.72,2.84-.73.81-1.62,1.45-2.65,1.93s-2.16.72-3.39.72Zm0-14.58c-.72,0-1.38.16-2,.47s-1.14.73-1.57,1.25c-.43.52-.78,1.1-1.02,1.76-.25.66-.37,1.33-.37,2.02,0,.64.13,1.31.38,1.99.25.68.6,1.31,1.04,1.88.44.57.97,1.04,1.57,1.4.61.37,1.26.55,1.96.55s1.36-.18,1.97-.55c.61-.37,1.13-.83,1.57-1.4.44-.57.79-1.19,1.04-1.88.25-.68.38-1.34.38-1.99,0-.69-.12-1.36-.37-2.02-.25-.66-.59-1.25-1.02-1.76-.43-.52-.96-.93-1.57-1.25-.61-.31-1.28-.47-2-.47Z"/>
      <path class="cls-1" d="m255.9,46.06h-3.3v-16.94h3.3v16.94Z"/>
      <path class="cls-1" d="m260.56,28.68h2.38l8.92,11.84h.04v-11.39h3.3v17.28h-2.38l-8.92-11.84h-.04v11.5h-3.3v-17.39Z"/>
      <path class="cls-1" d="m285.36,46.06h-3.3v-14.06h-3.42v-2.88h10.13v2.88h-3.42v14.06Z"/>
      <path class="cls-1" d="m304.88,35.55h-.04l-3.84,10.74h-1.15l-3.71-10.74h-.04l-1.5,10.51h-3.33l2.85-17.39h2.34l4.18,11.16,4-11.16h2.38l2.54,17.39h-3.33l-1.35-10.51Z"/>
      <path class="cls-1" d="m316.56,32v3.73h5.26v2.88h-5.26v4.58h5.46v2.88h-8.76v-16.94h8.76v2.88h-5.46Z"/>
      <path class="cls-1" d="m326.46,28.68h2.38l8.92,11.84h.04v-11.39h3.3v17.28h-2.38l-8.92-11.84h-.04v11.5h-3.3v-17.39Z"/>
      <path class="cls-1" d="m351.26,46.06h-3.3v-14.06h-3.42v-2.88h10.13v2.88h-3.42v14.06Z"/>
    </g>
    <rect class="cls-2" x=".5" y=".5" width="515.7" height="73.75"/>
    <polyline class="cls-2" points="369.56 43.04 491.43 43.04 483.01 34.62"/>
  </g>
</svg>