<svg xmlns="http://www.w3.org/2000/svg" viewBox="0 0 823.52 261.35"><defs><style>.cls-1{fill:#fff;}.cls-2{fill:none;stroke:#fff;stroke-miterlimit:10;stroke-width:1.2px;}.cls-3{fill:#a32b2c;fill-rule:evenodd;}.cls-4{fill:#a7a6a7;}</style></defs><g id="圖層_2" data-name="圖層 2"><g id="圖文"><path class="cls-1" d="M11.72,120.47H27.39c.57-.57,1.1-1.14,1.58-1.67.71-.79,1.19-1.23,1.54-1.23a7.73,7.73,0,0,1,3,1.49c1.68,1.32,2.51,2.2,2.51,2.64s-.44.84-1.23,1.32a2.22,2.22,0,0,0-1,1.59v20.64l.35,9.28c0,.62-.84,1.06-2.51,1.37-.75.08-1.27.17-1.63.17-.92,0-1.36-.53-1.36-1.54v-2.24H11.41v2.42c0,.53-.79,1-2.33,1.23a13.3,13.3,0,0,1-1.45.13c-1.06,0-1.54-.48-1.54-1.36.22-3.43.35-6.47.35-9.11V126.68a79.93,79.93,0,0,0-.53-8.28A34,34,0,0,1,11.72,120.47Zm16.9,14.44V121.7H11.41v13.21Zm0,16.19v-15H11.41v15Z"/><path class="cls-1" d="M88.52,117.26c1.06.09,1.63.35,1.63.84,0,.17-.35.44-1,.74s-1.1.71-1.1,1.15v1.89h9.64a13.84,13.84,0,0,0,1.5-1.85c1-1.41,1.71-2.11,1.93-2.11.57,0,1.5.7,2.77,2a8.42,8.42,0,0,1,1.9,2.42c0,.49-.31.71-.88.71H92.79a9.72,9.72,0,0,0,1.41.39c1.19.36,1.8.75,1.8,1.15s-.35.7-1,.79-1.1.22-1.19.4a11.85,11.85,0,0,1-1.85,2.86,12.24,12.24,0,0,1-1.32,1.27h6.6c.44-.39.75-.7,1-1,.84-.7,1.41-1.1,1.76-1.1a7.73,7.73,0,0,1,2.78,1.5c1.32,1.06,2,1.76,2,2.11s-.35.75-1,1.19c-.88.57-1.27,1.1-1.27,1.59v17.86a3.74,3.74,0,0,1-2.47,3.39,8.44,8.44,0,0,1-3.34.92c-.35,0-.62-.52-.84-1.58-.35-1.32-1.71-2.38-4-3.26l0-.13a8.64,8.64,0,0,1-1.23.13,1,1,0,0,1-1.19-1.18v-.71H81.74v1.59c0,.57-.66,1-2,1.23a9.91,9.91,0,0,1-1.28.13c-1,0-1.41-.44-1.41-1.36.09-1.37.18-2.73.18-4.14v-2.07A45.87,45.87,0,0,0,77,140a12.71,12.71,0,0,1-2.11.57l-.53-.48a7.63,7.63,0,0,0,2.29-1.54,5.93,5.93,0,0,0,1.63-1.94A10.62,10.62,0,0,0,78.8,133v-1.84h-5v24.2c0,.53-.7,1-2.11,1.27a10.54,10.54,0,0,1-1.32.14c-1,0-1.54-.49-1.54-1.41.22-3.08.35-5.85.35-8.23V135.61c0-2.07-.13-4.58-.35-7.57a29.48,29.48,0,0,1,5.33,1.89h5.14c-.21-.52-.48-1.27-.79-2.24a17.42,17.42,0,0,0-2.11-4.45l.09-.17H71.93c-2.51,0-4.27.09-5.32.17l-.71-1.71a36,36,0,0,0,6,.35H83.46v-1.72a21,21,0,0,0-.35-3.65C85,116.69,86.76,117,88.52,117.26Zm-.61,23.85c.61-.62,1.23-1.14,1.76-1.63a2,2,0,0,1,1.18-.61,7.11,7.11,0,0,1,2.43,1.18c1.45,1,2.2,1.72,2.2,2.12s-.31.79-.88,1.14a1.66,1.66,0,0,0-.66,1.23v.71c0,1.23,0,2.86.17,5a.78.78,0,0,1-.48.7,26.89,26.89,0,0,0,3.08.18c.79,0,1.19-.44,1.19-1.41V137.85a10,10,0,0,1-4.14.66H91.6a7.64,7.64,0,0,1-2.11-.22,2,2,0,0,1-1.89-2.15v-5H83.29V133A5.75,5.75,0,0,1,79.46,139a8.71,8.71,0,0,1-1.32.62,40,40,0,0,1,4.18,1.54Zm1-11.18c.35-1.14.61-2.24.83-3.21s.36-2.24.49-3.65h-11c.4.17.75.39,1.1.57a5.43,5.43,0,0,1,1.85,1.76,2.9,2.9,0,0,1,.53,1.63,3.19,3.19,0,0,1-1,2.29,2,2,0,0,1-.62.61Zm.57,18.57v-6.2H81.74v6.2Zm1.89-14.61c0,.75.18,1.15.62,1.24a8.61,8.61,0,0,0,1.76.13,1.38,1.38,0,0,0,1.19-.49c.08-.35.26-1.32.53-2.94h.7l.18,2.06c0,.4.39.75,1.27,1.1a.58.58,0,0,0,.27.09v-3.91H91.38Z"/><path class="cls-1" d="M139.32,128.74h9.1c.18-1.89.31-3.91.36-6,0-2.38-.09-4.4-.18-6,1.5.22,3,.48,4.45.75,2.06.39,3.12.79,3.12,1.14s-.35.79-1,1.1-1.1.66-1.1,1c-.26,3-.53,5.72-.83,8.09h9.63a20.45,20.45,0,0,0,1.72-2c1.23-1.5,2-2.29,2.2-2.29.62,0,1.63.75,3,2.16s2.07,2.37,2.07,2.68-.31.66-.88.66H154.81a37.61,37.61,0,0,0,2.86,8,22.88,22.88,0,0,0,5.28,7.22,32.56,32.56,0,0,0,9.06,5.76l-.17,1a5.17,5.17,0,0,0-3.08,2.33c-.53,1.19-1,1.8-1.41,1.8s-1.41-.66-2.73-1.89a27.94,27.94,0,0,1-4.84-5.46,27.32,27.32,0,0,1-3.57-7,52.37,52.37,0,0,1-2.68-11.8h-.44c-.7,4.58-1.58,8-2.73,10.3a27.86,27.86,0,0,1-7.17,9.59,41.9,41.9,0,0,1-10.74,6.6l-.35-.88a41.89,41.89,0,0,0,9.2-8.18A29.91,29.91,0,0,0,147,136.67a45,45,0,0,0,1.32-6.74h-9.63a42,42,0,0,0-5.86.36l-.7-2.07A54.83,54.83,0,0,0,139.32,128.74Z"/><path class="cls-1" d="M204,126.68h.88V123.9a71.85,71.85,0,0,0-.35-7.39c1.32.13,2.95.35,5,.71,1.37.17,2.07.48,2.07.88s-.44.79-1.32,1.05c-.62.18-.92.53-.92,1v6.52h.52a11.85,11.85,0,0,0,1.06-1.15c.75-.83,1.19-1.27,1.36-1.27.36,0,1,.44,1.81,1.32a5.62,5.62,0,0,1,1.27,1.62c0,.44-.17.66-.52.66h-5.5v4.32a17.43,17.43,0,0,1,5.1,2.68,5.4,5.4,0,0,1,1.63,3.83,2.83,2.83,0,0,1-.88,1.94,2,2,0,0,1-1.54.66c-.84,0-1.54-.8-2.11-2.38a19.62,19.62,0,0,0-2.2-4.22V155c0,.57-.66,1-2,1.27a9.91,9.91,0,0,1-1.28.13c-1.06,0-1.54-.48-1.54-1.4.22-2.6.35-5,.35-7.22v-9.64a28.18,28.18,0,0,1-2.95,4.58,19.94,19.94,0,0,1-3.61,3.87l-.66-.35a73.53,73.53,0,0,0,6.74-18.4H204c-2.51,0-4.27.09-5.32.18l-.71-1.72A34.74,34.74,0,0,0,204,126.68Zm17.56.17h1v-2.07c0-3.08-.13-5.76-.35-8.09,1.41.17,3.17.39,5.32.75,1.5.22,2.25.52,2.25,1s-.49.84-1.41,1.1c-.7.18-1,.53-1,1v6.38h2.77a19.9,19.9,0,0,0,1.37-1.54c1-1.14,1.54-1.71,1.71-1.71.49,0,1.28.57,2.33,1.67s1.63,1.85,1.63,2.11a.61.61,0,0,1-.7.66h-8.72a47.29,47.29,0,0,0,4.89,11.05,17.44,17.44,0,0,0,5.54,5.45L238,145.6a4.31,4.31,0,0,0-2.9,2.82c-.35,1.1-.79,1.62-1.23,1.62s-1-1-2-3.16a47.49,47.49,0,0,1-3-8.1c-.57-1.94-1.05-3.87-1.49-5.9v14.61c0,2.64,0,5.24.17,7.88,0,.53-.79,1-2.28,1.27a13.85,13.85,0,0,1-1.5.14c-1.06,0-1.54-.49-1.54-1.41.22-2.86.35-5.5.35-7.88V137.06c-.44,1.06-.88,1.94-1.23,2.69a35.38,35.38,0,0,1-4.53,6.64,27.8,27.8,0,0,1-5.59,4.89l-.35-.53a42.74,42.74,0,0,0,5.63-9.33A74.82,74.82,0,0,0,220.82,128c-2.2,0-3.74.09-4.66.18l-.66-1.72A35.61,35.61,0,0,0,221.53,126.85Z"/><path class="cls-1" d="M274,117.83c1.32.53,2,1.06,2,1.63,0,.31-.35.48-1,.53a2.49,2.49,0,0,0-1.1.31,36.51,36.51,0,0,1-5,5.63,9.36,9.36,0,0,1,.84.53,3.68,3.68,0,0,1,1.41,2.81,2.7,2.7,0,0,1-.79,1.81,1.83,1.83,0,0,1-1.41.57c-.71,0-1.32-.62-1.85-1.89a14.63,14.63,0,0,0-3.48-5.15l.31-.53c1.41.4,2.55.79,3.48,1.14a54.23,54.23,0,0,0,2.37-8.84C271.27,116.86,272.67,117.35,274,117.83Zm5.06,7c1.23.53,1.89,1.1,1.89,1.63,0,.26-.35.4-1,.44a3.06,3.06,0,0,0-1.1.26,57.35,57.35,0,0,1-8.27,8.37c2.24-.18,4.4-.36,6.42-.62a16.07,16.07,0,0,0-1.23-2.95l.35-.35a15.94,15.94,0,0,1,4.18,3,5.14,5.14,0,0,1,1.5,3,3,3,0,0,1-.62,2,2.2,2.2,0,0,1-1.62.75,1.69,1.69,0,0,1-1.24-.4c-.3-.18-.57-1-.74-2.46-.09-.44-.14-.88-.22-1.32-.88.52-1.76,1-2.64,1.45v11c0,2.82,0,5,.17,6.69,0,.48-.75.83-2.15,1.1a11.83,11.83,0,0,1-1.46.13,1.08,1.08,0,0,1-1.18-1.23c.08-1.59.17-3.79.17-6.69v-3.17a2.78,2.78,0,0,0-.88.4,24.19,24.19,0,0,1-2.11,5,26.36,26.36,0,0,1-3,4.1l-.53-.49a56.47,56.47,0,0,0,1.19-5.72c.27-1.85.53-4.09.71-6.64,1.45.39,2.86.79,4.22,1.14a1,1,0,0,0,.44.13v-3.91c-.75.26-1.45.48-2.15.66-.45.08-.62.22-.62.39s-.09.4-.13.66-.18.57-.36.57c-.61,0-1.32-1-2.15-3.08-.22-.52-.62-1.45-1.15-2.77,1.5,0,3-.13,4.49-.22A48.47,48.47,0,0,0,275,123.42C276.37,123.9,277.78,124.39,279.1,124.87Zm1.45,20.86a7.32,7.32,0,0,1,1.5,3.79,3,3,0,0,1-.66,2.11,2.39,2.39,0,0,1-1.76.83,1.42,1.42,0,0,1-1.24-.48c-.3-.22-.57-1.19-.74-2.95a22.61,22.61,0,0,0-1.81-6.56l.53-.48A18.66,18.66,0,0,1,280.55,145.73ZM288,119.81h5.89c.53-.53,1-1,1.46-1.54.66-.7,1.14-1,1.45-1,.53,0,1.41.52,2.68,1.54s2.16,1.8,2.16,2.06a1.56,1.56,0,0,1-1,1.32c-.71.44-1.06.84-1.06,1.28v30.41h.71a7.09,7.09,0,0,1,.74-1.72c.44-.79.8-1.19,1.15-1.19s.61.36,1.14,1.06a5.06,5.06,0,0,1,1.06,2.38.58.58,0,0,1-.66.66H281c-1.32,0-2.73,0-4.14.17l-.66-1.71c2.12.22,3.7.35,4.8.35h1.54V126.15a56.42,56.42,0,0,0-.48-8.41A32,32,0,0,1,288,119.81Zm6.78,11V121h-7.4v9.81Zm0,11.18V132h-7.4v10Zm0,11.84V143.18h-7.4v10.65Z"/><path class="cls-1" d="M385.83,152.51,375.88,139,366,152.51h-3.74L374,136.67l-11-15h3.74L376,134.29l9.24-12.59h3.52l-10.92,14.88,11.75,15.93Z"/><path class="cls-1" d="M468,118.27c1.37.53,2.07,1.1,2.07,1.72,0,.26-.35.44-1.05.53a2.41,2.41,0,0,0-1.15.3,59.79,59.79,0,0,1-9.72,9.38q10-.19,20.33-.84a69,69,0,0,0-5.11-6.12l.49-.7A51.16,51.16,0,0,1,482,127.2a19.18,19.18,0,0,1,3.39,3.17,3.65,3.65,0,0,1,.79,2.16,4.4,4.4,0,0,1-1,3,2.89,2.89,0,0,1-2.29,1.28c-.35,0-.79-.57-1.32-1.76a38.25,38.25,0,0,0-2.2-4.45,130.1,130.1,0,0,1-24.82,4.49c-.26,0-.4.31-.44.88s-.44,1-.79,1c-.66,0-1.23-.79-1.76-2.46-.35-.88-.84-2.29-1.5-4.22,2,0,4.09,0,6.12,0a51.18,51.18,0,0,0,7.48-13.55C465.14,117.22,466.64,117.74,468,118.27Zm-8.14,20.6h15.23c.66-.8,1.32-1.5,1.94-2.12a2,2,0,0,1,1.32-.79,8.29,8.29,0,0,1,2.68,1.32c1.63,1.15,2.46,1.89,2.46,2.29s-.35.84-1,1.28a1.59,1.59,0,0,0-.75,1.32v7.7c0,1.41,0,3.25.17,5.67,0,.53-.79,1-2.28,1.28-.71,0-1.19.09-1.5.09-.79,0-1.19-.49-1.19-1.37V153.3H459.46v2.24c0,.53-.75,1-2.2,1.28-.66,0-1.14.09-1.41.09-1.05,0-1.54-.49-1.54-1.37.22-3.3.36-6.2.36-8.75V144.9c0-2.16-.14-4.8-.36-7.93A32,32,0,0,1,459.9,138.87ZM477,152.11v-12H459.46v12Z"/><path class="cls-1" d="M521,122.89h10.3a49.27,49.27,0,0,0-.53-6.51c1.36.18,3.12.44,5.32.79,1.72.27,2.6.57,2.6.93s-.49.88-1.41,1.23c-.7.22-1,.61-1,1.14v2.42h9.11a12.43,12.43,0,0,0,1.67-1.93c1.19-1.46,1.89-2.2,2.11-2.2.62,0,1.54.7,2.86,2.11s2,2.24,2,2.55-.31.66-.88.66H536.31v5h8.76c.44-.4.74-.71,1-1,.83-.71,1.41-1.1,1.76-1.1a7.85,7.85,0,0,1,2.9,1.58c1.37,1.06,2.07,1.81,2.07,2.2s-.35.71-1,1.24c-.88.61-1.27,1.14-1.27,1.67v18.74a3.73,3.73,0,0,1-2.34,3.39,7.29,7.29,0,0,1-3.16.93c-.31,0-.58-.58-.84-1.68-.35-1.32-1.76-2.46-4.14-3.34l.18-.84a27.08,27.08,0,0,0,4.8.49c.44,0,.7-.44.7-1.37V130.29H522.23v25.08c0,.53-.75,1-2.2,1.27a12.76,12.76,0,0,1-1.41.14,1.23,1.23,0,0,1-1.37-1.41c.09-1.54.18-3,.18-4.62V133.37a59.87,59.87,0,0,0-.35-6.34A43.29,43.29,0,0,1,523,129.1h8.37v-5h-11a42.12,42.12,0,0,0-5.85.35l-.7-2.07A54,54,0,0,0,521,122.89Zm19.36,9.77c1.14.62,1.76,1.06,1.76,1.41s-.31.62-.88.66-1.1.13-1.19.35a13,13,0,0,1-1.85,2,7.87,7.87,0,0,1-2.11,1.45h3.13a5.89,5.89,0,0,0,1-1.1c.71-.83,1.15-1.27,1.32-1.27.36,0,1,.44,1.85,1.32s1.28,1.41,1.28,1.58c0,.49-.18.71-.53.71h-8.1c0,1.76,0,3.34,0,4.79h2.9a7.43,7.43,0,0,0,1.1-1.36c.79-1,1.28-1.54,1.45-1.54.44,0,1.19.53,2.16,1.54s1.45,1.67,1.45,1.89c0,.49-.22.71-.66.71h-8.4c0,3.56.13,6.24.3,8.05,0,.39-.44.7-1.23.92a17.29,17.29,0,0,1-2.9.27,1.09,1.09,0,0,1-1.19-.84c.09-2.16.13-5,.18-8.4h-1.9c-2.55,0-4.31,0-5.32.13l-.71-1.72a34.94,34.94,0,0,0,6,.35h1.9v-4.79h-1.19c-2.56,0-4.32.08-5.37.17l-.66-1.71a41.88,41.88,0,0,0,6,.3h4.27a25.49,25.49,0,0,0,1.71-3.43,22.47,22.47,0,0,0,1.23-4.09C538.51,131.65,539.52,132.22,540.4,132.66Zm-9.55.71a2.88,2.88,0,0,1,1.19,2.24,2.83,2.83,0,0,1-.88,1.94,2,2,0,0,1-1.54.66c-.53,0-.92-.53-1.28-1.63a14.55,14.55,0,0,0-2.51-4.4l.36-.71A15.36,15.36,0,0,1,530.85,133.37Z"/><path class="cls-1" d="M588.16,137.85h3.34c.66-.79,1.28-1.49,1.89-2.11.44-.53.84-.83,1.19-.83a7.86,7.86,0,0,1,2.55,1.27c1.5,1.06,2.29,1.81,2.29,2.2a1.47,1.47,0,0,1-.79,1.15,1.66,1.66,0,0,0-.57,1.23v8.62c0,1.32,0,3.13.13,5.5,0,.53-.75,1-2.16,1.24a14.11,14.11,0,0,1-1.45.13c-.79,0-1.19-.49-1.19-1.37v-1.4h-6.2v1.4c0,.53-.71,1-2.07,1.24a13.17,13.17,0,0,1-1.36.13,1.22,1.22,0,0,1-1.37-1.37c.09-1.49.18-3,.18-4.48v-8.59a57.24,57.24,0,0,0-.35-6.2A46,46,0,0,1,588.16,137.85Zm5.23,6.87V139h-6.2v5.68Zm0,7.57v-6.38h-6.2v6.38Zm1-32.48H605.1c.7-.75,1.36-1.41,2-2a1.86,1.86,0,0,1,1.28-.75,8.29,8.29,0,0,1,2.68,1.32c1.63,1.14,2.46,1.89,2.46,2.29s-.39.83-1.1,1.27a1.7,1.7,0,0,0-.79,1.32v4.27c0,1.45,0,3.39.18,5.86,0,.57-.79,1-2.38,1.27a14.94,14.94,0,0,1-1.58.13c-.8,0-1.19-.44-1.19-1.4v-.84H593.22v1c0,.57-.75,1-2.2,1.28a9.88,9.88,0,0,1-1.41.09,1.2,1.2,0,0,1-1.37-1.37c.09-1.54.18-3.08.18-4.62v-5a59.83,59.83,0,0,0-.35-6.33A42.88,42.88,0,0,1,594.41,119.81Zm12.23,5.85V121H593.22v4.66Zm0,5.64v-4.45H593.22v4.45Zm.88,6.55h3.56c.71-.83,1.37-1.58,2-2.24a1.88,1.88,0,0,1,1.32-.84,8.65,8.65,0,0,1,2.69,1.28c1.63,1.14,2.46,1.89,2.46,2.33s-.3.84-.92,1.23a1.84,1.84,0,0,0-.62,1.32V149c0,1.41,0,3.3.18,5.68,0,.53-.79,1-2.29,1.23a13.71,13.71,0,0,1-1.5.13c-.83,0-1.23-.48-1.23-1.36v-1.23h-6.69v1.4c0,.53-.75,1-2.2,1.24-.66.08-1.14.13-1.41.13a1.21,1.21,0,0,1-1.36-1.37c.09-1.58.18-3.08.18-4.66V142a60,60,0,0,0-.36-6.38A48.12,48.12,0,0,1,607.52,137.85Zm5.63,6.87V139h-6.69v5.68Zm0,7.57v-6.38h-6.69v6.38Z"/><path class="cls-1" d="M653.21,121.88h3.12V120.3a19.49,19.49,0,0,0-.35-3.79c1.32.18,2.95.44,4.88.71,1.77.17,2.69.48,2.69.88s-.48.92-1.45,1.23a1.19,1.19,0,0,0-1,1.14v1.41h9.28V120.3a19.49,19.49,0,0,0-.35-3.79c1.32.18,3,.44,4.93.71,1.76.17,2.64.48,2.64.88s-.48.92-1.45,1.23a1.19,1.19,0,0,0-1,1.14v1.41h4a15.18,15.18,0,0,0,1.32-1.54c.88-1.14,1.45-1.76,1.63-1.76.44,0,1.19.57,2.2,1.72s1.59,1.8,1.59,2.06a.63.63,0,0,1-.71.71h-10v3.78c0,.57-.75,1-2.16,1.23a13.93,13.93,0,0,1-1.45.14,1.47,1.47,0,0,1-1.05-.27,3.88,3.88,0,0,1-1.06.57c-.7.27-1.1.53-1.14.89v2.42h5.14a13.41,13.41,0,0,0,1.5-2c.57-.7,1.1-1.1,1.63-1.1a4.58,4.58,0,0,1,2.11,1.06c1.76,1.28,2.69,2.2,2.69,2.73a1,1,0,0,1-.71.92c-.7.36-1,.8-1,1.32v6.87h.53a8.49,8.49,0,0,0,1-1.23c.75-.88,1.19-1.37,1.32-1.37.44,0,1.06.49,1.94,1.41s1.37,1.5,1.37,1.72c0,.44-.18.66-.53.66H669a12.81,12.81,0,0,0,2.64,3,17.28,17.28,0,0,0,5.42,3,52.74,52.74,0,0,0,9.19,2.47l-.13,1a4.5,4.5,0,0,0-2.82,2.11c-.52,1.1-1,1.67-1.32,1.67a8.83,8.83,0,0,1-2.86-1,26.18,26.18,0,0,1-5-2.82,13.33,13.33,0,0,1-3.74-3.65,15.55,15.55,0,0,1-2.68-5.76h-.27a17,17,0,0,1-3.21,5.45,18.89,18.89,0,0,1-5.85,4.27,56.91,56.91,0,0,1-11.49,3.7l-.35-.71a45.28,45.28,0,0,0,10.25-5.19,14.66,14.66,0,0,0,5-5.76,12.8,12.8,0,0,0,.66-1.76H652c-2.51,0-4.27.08-5.32.17l-.71-1.71a34,34,0,0,0,5.85.35v-2.95a55.08,55.08,0,0,0-.52-8.76,34.87,34.87,0,0,1,5.63,1.9h6.42c0-1.76-.22-3.92-.52-6.52,1.58.27,3.21.57,4.79.88a11.06,11.06,0,0,1,2.64.79,11.6,11.6,0,0,0,.13-1.49v-2.42h-9.28v3.78c0,.57-.75,1-2.2,1.23a12.76,12.76,0,0,1-1.41.14c-.92,0-1.36-.27-1.36-.84.08-.84.17-1.45.17-1.89v-2.42h-3.78a42,42,0,0,0-5.85.35l-.71-2.07A55.07,55.07,0,0,0,653.21,121.88Zm9.5,19.76a52,52,0,0,0,.66-8.63h-6.55v8.63Zm5.06,0h7V133h-6.38A70.51,70.51,0,0,1,667.77,141.64Z"/><path class="cls-1" d="M717.73,129.76a3.07,3.07,0,0,1,1.36,2.42,3.53,3.53,0,0,1-1.14,2.46,2.68,2.68,0,0,1-2,.79c-.57,0-1.06-.57-1.45-1.8a15,15,0,0,0-2.82-5.06l.49-.88A18.89,18.89,0,0,1,717.73,129.76Zm5.81-3.26c-1.28,5.55-2.25,9.9-2.91,13a38.54,38.54,0,0,0-.88,6.3,21.72,21.72,0,0,0,.18,2.77,24.56,24.56,0,0,1,.7,4.75A2.24,2.24,0,0,1,720,155a2.7,2.7,0,0,1-2,.7,4.46,4.46,0,0,1-2.64-.7,2.08,2.08,0,0,1-.62-1.72,14.91,14.91,0,0,1,.4-2.86c.09-.92.13-1.67.13-2.29a5.68,5.68,0,0,0-.44-2.33c-.31-.62-1.28-1.14-2.86-1.63l.18-1a9.12,9.12,0,0,0,3.43-.4,4.09,4.09,0,0,0,1.23-2l5.85-14.44Zm-3-7.74a3,3,0,0,1,1.32,2.42,3.65,3.65,0,0,1-1.1,2.46,2.68,2.68,0,0,1-2,.79c-.57,0-1-.57-1.45-1.8a15.41,15.41,0,0,0-2.68-5.06l.52-.88A17.76,17.76,0,0,1,720.5,118.76Zm8,.88H745a14.32,14.32,0,0,0,1.37-1.54c1-1.15,1.58-1.72,1.76-1.72.48,0,1.27.57,2.33,1.67s1.63,1.85,1.63,2.11a.62.62,0,0,1-.7.66h-9.82v6.38h1.89c.53-.48,1-1,1.46-1.4.66-.66,1.14-1,1.49-1a7.44,7.44,0,0,1,2.78,1.37c1.58,1.23,2.37,2,2.37,2.42s-.4.75-1.14,1.19-.93,1-.93,1.41V147l.36,8.41c0,.53-.8,1-2.34,1.27a12.23,12.23,0,0,1-1.45.14c-.84,0-1.23-.49-1.23-1.41V153.3H729v2.07c0,.53-.7,1-2.11,1.27a10.92,10.92,0,0,1-1.32.14c-1.06,0-1.54-.49-1.54-1.41.22-3.08.35-5.85.35-8.23V132.88c0-2.07-.13-4.58-.35-7.57a29.58,29.58,0,0,1,5.37,1.89h1.84v-6.38h-2.77c-2.51,0-4.27.09-5.32.18l-.66-1.72A33.74,33.74,0,0,0,728.51,119.64Zm16.33,25.61v-5h-3.26a4,4,0,0,1-3-1,3.08,3.08,0,0,1-1.06-2.64v-8.28h-2.07v1a25.13,25.13,0,0,1-.84,6.9,10.29,10.29,0,0,1-2.37,4A12.77,12.77,0,0,1,729,143v2.29ZM729.61,140a15.48,15.48,0,0,0,1.23-3.74,48.09,48.09,0,0,0,.44-6.86v-1H729v12.76A11,11,0,0,0,729.61,140Zm15.23,12.1v-5.67H729v5.67Zm-7.35-31.29h-2.07v6.38h2.07Zm4.09,15c0,.48.35.7,1.06.7h2.2v-8.1h-3.26Z"/><path class="cls-1" d="M802.06,117.35c1.14,0,1.76.35,1.76.92,0,.18-.36.44-1.06.75s-1.14.7-1.14,1.14v2.38h7.21a10.79,10.79,0,0,0,1.41-1.54c1.19-1.5,2-2.24,2.38-2.24s1.41.83,3.17,2.42c1.05,1,1.62,1.62,1.62,1.89,0,.48-.3.7-.88.7H787.14v3.92a117.17,117.17,0,0,1-.62,12.72,34.41,34.41,0,0,1-2.73,9.11,30.83,30.83,0,0,1-4.53,6.73l-.88-.35a52,52,0,0,0,2.86-10.34,126.14,126.14,0,0,0,.93-17.87,37.82,37.82,0,0,0-.53-7.53,35.21,35.21,0,0,1,6.47,2.38h8.49v-2.07a25.07,25.07,0,0,0-.35-4C798.27,116.73,800.21,117,802.06,117.35Zm1.05,8.58c1.15.09,1.76.39,1.76.92,0,.18-.39.44-1.1.75s-1.14.7-1.14,1.14v3.44h6a15.57,15.57,0,0,0,1.41-1.59c1.18-1.45,2-2.2,2.37-2.2s1.41.84,3.17,2.42c1.06,1,1.63,1.63,1.63,1.9,0,.44-.31.66-.88.66H802.63v8.27h4.8c.66-.75,1.27-1.41,1.89-2a1.8,1.8,0,0,1,1.23-.74,7.83,7.83,0,0,1,2.51,1.27c1.49,1.06,2.29,1.81,2.29,2.16s-.36.88-1,1.27a1.62,1.62,0,0,0-.75,1.33v4.31c0,1.41,0,3.3.18,5.67,0,.53-.8,1-2.29,1.24-.71.08-1.19.13-1.5.13-.79,0-1.19-.49-1.19-1.37v-1.4H793.7V155c0,.57-.75,1-2.21,1.27a11.94,11.94,0,0,1-1.4.13,1.22,1.22,0,0,1-1.37-1.4c.09-1.54.13-3,.13-4.62v-4.49c0-2.16-.13-4.27-.3-6.34a43.29,43.29,0,0,1,5.89,2.07h3.22V129.1a24.91,24.91,0,0,0-.36-4Q800.27,125.47,803.11,125.93Zm5.72,26.36v-9.46H793.7v9.46Z"/><line class="cls-2" y1="94.71" x2="821.58" y2="94.71"/><line class="cls-2" y1="177.6" x2="821.58" y2="177.6"/><path class="cls-1" d="M47.14,251.37c-4,6.69-9.7,10-17.34,10s-13.47-3.29-17.33-10Q7.65,243.17,7.66,231c0-8.19,1.6-15,4.81-20.44,3.77-6.6,9.61-10,17.33-10s13.48,3.39,17.34,10C50.34,216,52,222.82,52,231S50.34,245.9,47.14,251.37Zm-7.25-37c-2.08-7-5.38-10.56-10.09-10.56s-8.1,3.58-10.08,10.56a61.18,61.18,0,0,0-2,16.67,60.11,60.11,0,0,0,2,16.59c2,7.06,5.37,10.55,10.08,10.55s8-3.49,10.09-10.55A64.58,64.58,0,0,0,41.77,231,65.74,65.74,0,0,0,39.89,214.34Z"/><path class="cls-1" d="M110.93,255.89a20.71,20.71,0,0,1-14.61,5.46c-7.16,0-12.72-2.73-16.58-8.38q-5.08-7.35-5.09-18.66c0-22.42,8.39-33.73,25.25-33.73a22.62,22.62,0,0,1,9.71,2.07c3.58,1.79,5.37,4.34,5.37,7.73a8.84,8.84,0,0,1-1.6,5.28,5.94,5.94,0,0,1-5,2.45,7.07,7.07,0,0,1-4.71-1.7,5.4,5.4,0,0,1-2-4.33,6,6,0,0,1,1.32-3.59c.85-1.22,1.32-1.79,1.32-1.79,0-1.88-1.32-2.92-3.77-2.92q-8.62,0-12.72,8.2c-2.07,4.15-3.2,9.61-3.2,16.21,3.11-3.21,7.54-4.9,13.28-4.9a19,19,0,0,1,13.48,5.18,17.83,17.83,0,0,1,5.46,13.29Q116.86,250.52,110.93,255.89Zm-6.13-24c-2.26-3.58-5-5.46-8.38-5.46s-6.13,1.88-8.3,5.46A19.82,19.82,0,0,0,85.3,242,20.31,20.31,0,0,0,88,252.59c2.07,3.77,4.9,5.56,8.39,5.56s6.31-1.79,8.48-5.46a21.24,21.24,0,0,0,2.73-10.56A19.82,19.82,0,0,0,104.8,231.86Z"/><path class="cls-1" d="M137.3,243.73V236H161v7.72Z"/><path class="cls-1" d="M221.54,260.13H182.06v-4.81c4.71-5.74,11.59-13.28,20.73-22.61a75.93,75.93,0,0,0,6.87-7.54c2.27-3.11,3.49-6.22,3.49-9.23a12.44,12.44,0,0,0-3.3-8.48,10.77,10.77,0,0,0-8.1-3.58,11.83,11.83,0,0,0-7.44,2.26,8.08,8.08,0,0,0-3.4,6.78,21.81,21.81,0,0,0,2.93,2.08,6.22,6.22,0,0,1,3,5.08,6.11,6.11,0,0,1-1.79,4.43,6,6,0,0,1-4.43,1.79,6.4,6.4,0,0,1-5.84-3.39,13.41,13.41,0,0,1-1.7-7c0-4.9,2.17-8.86,6.69-11.69a25.29,25.29,0,0,1,13.67-3.58c5.56,0,10.08,1.32,13.66,4,3.86,2.92,5.84,7.07,5.84,12.53,0,4-1.79,7.82-5.28,11.69a93.21,93.21,0,0,1-9.89,8.76q-7.2,5.65-17.24,13.85h23c2.17,0,3.58-.19,4.24-.66s.94-1.79,1.32-4l.75-4.24H223Z"/><path class="cls-1" d="M264.31,261.35a22.11,22.11,0,0,1-9.7-2c-3.58-1.7-5.37-4.34-5.37-7.73a8.2,8.2,0,0,1,1.79-5.37,5.89,5.89,0,0,1,4.89-2.36,7,7,0,0,1,4.62,1.7,5.54,5.54,0,0,1,2,4.33,6,6,0,0,1-1.32,3.49c-.94,1.32-1.32,1.88-1.32,1.88,0,1.89,1.23,2.83,3.77,2.83,5.65,0,9.89-2.73,12.63-8.2,2-4.14,3-9.51,3.2-16.11-3.2,3.3-7.54,4.9-13.19,4.9a18.35,18.35,0,0,1-13.38-5.18c-3.58-3.39-5.37-7.92-5.37-13.38a18.28,18.28,0,0,1,5.84-14,20.18,20.18,0,0,1,14.51-5.56c7.16,0,12.63,2.83,16.49,8.48,3.3,4.9,5,11.12,5,18.56C289.37,250.14,281,261.35,264.31,261.35Zm11.78-51.91c-2.07-3.77-4.9-5.66-8.29-5.66s-6.32,1.89-8.39,5.56a21.07,21.07,0,0,0-2.64,10.46,19.08,19.08,0,0,0,2.73,10.27c2.08,3.68,4.9,5.47,8.3,5.47s6-1.79,8.19-5.37a19.34,19.34,0,0,0,2.83-10.27A21.12,21.12,0,0,0,276.09,209.44Z"/><path class="cls-1" d="M330.26,261.35a22.11,22.11,0,0,1-9.7-2c-3.58-1.7-5.37-4.34-5.37-7.73a8.2,8.2,0,0,1,1.79-5.37,5.89,5.89,0,0,1,4.9-2.36,7,7,0,0,1,4.61,1.7,5.54,5.54,0,0,1,2,4.33,6,6,0,0,1-1.32,3.49c-.94,1.32-1.32,1.88-1.32,1.88,0,1.89,1.23,2.83,3.77,2.83,5.66,0,9.9-2.73,12.63-8.2,2-4.14,3-9.51,3.2-16.11-3.2,3.3-7.54,4.9-13.19,4.9a18.35,18.35,0,0,1-13.38-5.18c-3.58-3.39-5.37-7.92-5.37-13.38a18.28,18.28,0,0,1,5.84-14,20.2,20.2,0,0,1,14.51-5.56c7.16,0,12.63,2.83,16.49,8.48,3.3,4.9,5,11.12,5,18.56C355.33,250.14,346.94,261.35,330.26,261.35ZM342,209.44c-2.07-3.77-4.9-5.66-8.29-5.66s-6.31,1.89-8.39,5.56a21.07,21.07,0,0,0-2.64,10.46,19,19,0,0,0,2.74,10.27c2.07,3.68,4.9,5.47,8.29,5.47s6-1.79,8.2-5.37a19.42,19.42,0,0,0,2.82-10.27A21.12,21.12,0,0,0,342,209.44Z"/><path class="cls-1" d="M376,243.73V236h23.65v7.72Z"/><path class="cls-1" d="M460.19,260.13H420.71v-4.81c4.71-5.74,11.59-13.28,20.73-22.61a77.82,77.82,0,0,0,6.88-7.54c2.26-3.11,3.48-6.22,3.48-9.23a12.48,12.48,0,0,0-3.29-8.48,10.79,10.79,0,0,0-8.11-3.58,11.85,11.85,0,0,0-7.44,2.26,8.07,8.07,0,0,0-3.39,6.78,21.16,21.16,0,0,0,2.92,2.08,6.19,6.19,0,0,1,3,5.08,6.11,6.11,0,0,1-1.79,4.43,6,6,0,0,1-4.43,1.79,6.4,6.4,0,0,1-5.84-3.39,13.4,13.4,0,0,1-1.69-7c0-4.9,2.16-8.86,6.69-11.69a25.23,25.23,0,0,1,13.66-3.58c5.56,0,10.08,1.32,13.66,4,3.86,2.92,5.84,7.07,5.84,12.53,0,4-1.79,7.82-5.27,11.69a94.62,94.62,0,0,1-9.9,8.76q-7.2,5.65-17.24,13.85h23c2.17,0,3.58-.19,4.24-.66s.94-1.79,1.32-4l.75-4.24h3.11Z"/><path class="cls-1" d="M522,257.11a27.73,27.73,0,0,1-15.46,4.24c-5.74,0-10.64-1.22-14.7-3.86a14.19,14.19,0,0,1-7.16-12.72c0-3.3,1.51-6.41,4.71-9.23a28.19,28.19,0,0,1,9.33-5.28,21.52,21.52,0,0,1-8.1-5.56,12.6,12.6,0,0,1-3.77-8.76c0-4.9,2.26-8.86,6.78-11.69a24.45,24.45,0,0,1,13.57-3.67A25.91,25.91,0,0,1,520.77,204c4.52,2.83,6.78,6.69,6.78,11.69q0,3.94-3.67,7.35a23.54,23.54,0,0,1-7.26,4.71,21.34,21.34,0,0,1,9,5.93A15.31,15.31,0,0,1,522,257.11Zm-18.09-24.59c-6.22,2.45-9.24,6.6-9.24,12.44a12.59,12.59,0,0,0,3.77,9.23,11.61,11.61,0,0,0,8.86,4,11.84,11.84,0,0,0,9-4,13.16,13.16,0,0,0,3.58-9.23C519.92,238.93,514.55,234.78,503.91,232.52Zm3.39-28.74a11.09,11.09,0,0,0-8.11,2.92,11.84,11.84,0,0,0-2.82,8.3c0,4.9,4.9,8.48,14.88,10.74,4.62-3.21,7-6.79,7-10.74C518.23,207.55,514.55,203.78,507.3,203.78Z"/><path class="cls-1" d="M588,257.11a27.73,27.73,0,0,1-15.46,4.24c-5.74,0-10.64-1.22-14.69-3.86a14.17,14.17,0,0,1-7.16-12.72c0-3.3,1.5-6.41,4.71-9.23a28,28,0,0,1,9.32-5.28,21.52,21.52,0,0,1-8.1-5.56,12.64,12.64,0,0,1-3.77-8.76c0-4.9,2.26-8.86,6.79-11.69a24.43,24.43,0,0,1,13.57-3.67A25.9,25.9,0,0,1,586.72,204c4.53,2.83,6.79,6.69,6.79,11.69q0,3.94-3.68,7.35a23.62,23.62,0,0,1-7.25,4.71,21.37,21.37,0,0,1,8.95,5.93,15.08,15.08,0,0,1,4,9.9A15.27,15.27,0,0,1,588,257.11Zm-18.09-24.59c-6.22,2.45-9.24,6.6-9.24,12.44a12.59,12.59,0,0,0,3.77,9.23,11.61,11.61,0,0,0,8.86,4,11.84,11.84,0,0,0,9-4,13.16,13.16,0,0,0,3.58-9.23C585.87,238.93,580.5,234.78,569.86,232.52Zm3.39-28.74a11.05,11.05,0,0,0-8.1,2.92,11.8,11.8,0,0,0-2.83,8.3c0,4.9,4.9,8.48,14.89,10.74,4.61-3.21,7-6.79,7-10.74C584.18,207.55,580.5,203.78,573.25,203.78Z"/><path class="cls-1" d="M653.9,257.11a27.7,27.7,0,0,1-15.45,4.24c-5.75,0-10.65-1.22-14.7-3.86a14.17,14.17,0,0,1-7.16-12.72c0-3.3,1.51-6.41,4.71-9.23a28,28,0,0,1,9.33-5.28,21.48,21.48,0,0,1-8.11-5.56,12.64,12.64,0,0,1-3.77-8.76c0-4.9,2.27-8.86,6.79-11.69a24.43,24.43,0,0,1,13.57-3.67A25.93,25.93,0,0,1,652.68,204c4.52,2.83,6.78,6.69,6.78,11.69q0,3.94-3.68,7.35a23.62,23.62,0,0,1-7.25,4.71,21.3,21.3,0,0,1,9,5.93,15.08,15.08,0,0,1,4,9.9A15.27,15.27,0,0,1,653.9,257.11Zm-18.09-24.59c-6.22,2.45-9.24,6.6-9.24,12.44a12.59,12.59,0,0,0,3.77,9.23,11.61,11.61,0,0,0,8.86,4,11.87,11.87,0,0,0,9-4,13.21,13.21,0,0,0,3.58-9.23C651.83,238.93,646.46,234.78,635.81,232.52Zm3.39-28.74a11.05,11.05,0,0,0-8.1,2.92,11.8,11.8,0,0,0-2.83,8.3c0,4.9,4.9,8.48,14.89,10.74,4.62-3.21,7-6.79,7-10.74C650.13,207.55,646.46,203.78,639.2,203.78Z"/><path class="cls-3" d="M725.68,246.47v7.47l-.35.69h7.09l-.35-.69V233.58l.35-.7H709.81l.35.7v20.36l-.35.69h7.1l-.35-.69v-7.47a4.56,4.56,0,1,1,9.12,0Z"/><path class="cls-1" d="M741.08,235.41h1.84a5.82,5.82,0,0,0,.67-.79c.47-.6.77-.9.85-.9.24,0,.63.3,1.18.88a4,4,0,0,1,.82,1.05c0,.23-.11.34-.32.34h-1.53v13.74c0,1.25,0,2.23.09,3,0,.24-.34.41-1,.54a5.76,5.76,0,0,1-.66.06c-.35,0-.5-.21-.5-.6,0-.7.09-1.69.09-3v-1.48a10.48,10.48,0,0,1-2.32,1.35c-.15.05-.21.11-.21.2a.73.73,0,0,0-.06.32c-.07.19-.15.28-.26.28-.28,0-.6-.47-1-1.46-.1-.26-.28-.71-.53-1.31.38,0,.75-.06,1.09-.11V236l-.84.07-.32-.84A16.81,16.81,0,0,0,741.08,235.41Zm1.52,3.75V236h-1.35v3.17Zm0,4v-3.35h-1.35v3.35Zm0,3.94v-3.36h-1.35v3.58C741.72,247.2,742.17,247.14,742.6,247.05Zm6.47-12.56c.58.24.88.49.88.75s-.15.19-.43.22a1.38,1.38,0,0,0-.49.1,13.55,13.55,0,0,1-2.31,2.53l.42.17a.94.94,0,0,1,.56.75,1.53,1.53,0,0,1-.49,1.05,1.07,1.07,0,0,1-.86.37c-.21,0-.41-.22-.56-.64a5.46,5.46,0,0,0-1.11-1.78l.17-.35c.43.09.84.15,1.18.24a23.88,23.88,0,0,0,1.16-4.1C747.83,234,748.47,234.28,749.07,234.49Zm2,1.93c.51.21.79.45.79.66s-.13.2-.38.2a.94.94,0,0,0-.45.13,26.56,26.56,0,0,1-3.65,4.35c.84-.07,1.63-.15,2.38-.24a9,9,0,0,0-.49-1.52l.26-.24a7,7,0,0,1,1.6,1.08,1.83,1.83,0,0,1,.56,1.09,1.62,1.62,0,0,1-.3,1,1.17,1.17,0,0,1-.86.41.42.42,0,0,1-.4-.18c-.11-.06-.2-.38-.26-1,0-.07,0-.13,0-.17a11.41,11.41,0,0,1-3.28,1.56c-.17,0-.24.09-.24.17s0,.13-.06.22-.09.21-.17.21c-.24,0-.52-.38-.82-1.2a10.15,10.15,0,0,1-.45-1.07c.6,0,1.18-.06,1.76-.11a25.49,25.49,0,0,0,2.76-6Zm-3.62,8.32c.7.08,1.07.21,1.07.38s-.19.35-.54.48a.45.45,0,0,0-.38.45v2.25h1.28c0-.52.05-1.12.05-1.76s-.07-1.65-.15-2.77c.64.11,1.28.22,1.92.35a8.91,8.91,0,0,1,.91.23c0-.13,0-.28-.07-.4.54.08,1.2.17,2,.3s1.1.19,1.1.36-.2.39-.54.51a.53.53,0,0,0-.38.5v2.76h1.35v-2.16a6.24,6.24,0,0,0-.18-1.53l2,.31c.68.08,1,.19,1,.36s-.2.36-.54.47-.39.24-.39.45v3.37c0,.23-.3.4-.85.51a4.83,4.83,0,0,1-.56.07c-.34,0-.49-.11-.49-.35V249h-1.35v3.86c0,.24-.3.41-.9.54l-.6,0c-.41,0-.6-.11-.6-.32s.08-.6.08-.75v-6.8c0-.21,0-.43,0-.6a1.28,1.28,0,0,1-.24.11c-.3.13-.47.26-.49.4a25.17,25.17,0,0,1-.17,3.78,5.3,5.3,0,0,1-.79,1.71,5,5,0,0,1-1.38,1.25,13.46,13.46,0,0,1-2.68,1.07l-.17-.26a8.51,8.51,0,0,0,1.93-1.44,3.91,3.91,0,0,0,.95-1.58,6.48,6.48,0,0,0,.21-1.07h-1.24v.83c0,.24-.3.41-.86.52l-.56.06c-.34,0-.51-.11-.51-.34v-4a6.71,6.71,0,0,0-.17-1.52Zm7.76-10.29c.6.26.92.51.92.79,0,.13-.17.19-.47.22s-.5.06-.52.1a17.18,17.18,0,0,1-2.46,2.72l.51.24a1,1,0,0,1,.52.82,1.6,1.6,0,0,1-.52,1.13,1.14,1.14,0,0,1-.9.39c-.19,0-.36-.24-.49-.73a6,6,0,0,0-1-1.95l.18-.35,1,.24a25.89,25.89,0,0,0,1.2-4.35Zm1.73,2.4c.52.21.8.43.8.64s-.15.19-.41.22-.41.08-.43.12a23.81,23.81,0,0,1-3,3.71,19.53,19.53,0,0,0,2.16-.28,6.85,6.85,0,0,0-.38-1.32l.25-.26a6.59,6.59,0,0,1,1.55,1,1.79,1.79,0,0,1,.53,1,1.9,1.9,0,0,1-.32,1.16,1.23,1.23,0,0,1-.92.45.4.4,0,0,1-.37-.18,2,2,0,0,1-.21-1c0-.09,0-.18,0-.26a9.34,9.34,0,0,1-2.57,1.44c-.13,0-.18.08-.18.17a.25.25,0,0,0-.06.19c0,.15-.11.22-.19.22-.24,0-.52-.39-.82-1.21-.1-.21-.25-.55-.45-1.05.39,0,.77,0,1.16-.08a23.76,23.76,0,0,0,2.19-5.36Z"/><path class="cls-1" d="M763.23,235.65H765a8,8,0,0,0,.71-.82c.5-.62.8-.94.88-.94.26,0,.69.32,1.24.92s.86,1,.86,1.1-.15.34-.43.34h-3.08a44.23,44.23,0,0,1-1.44,5.06l.79.38h.56c.28-.34.56-.66.82-.92a.77.77,0,0,1,.53-.34,4,4,0,0,1,1.12.53c.68.48,1.05.8,1.05,1a.78.78,0,0,1-.39.58.79.79,0,0,0-.28.6v5.19c0,.6,0,1.41.09,2.42,0,.28-.35.49-1,.62a5.71,5.71,0,0,1-.64.06.52.52,0,0,1-.6-.6v-.92h-1.33v1.61c0,.21-.35.39-1,.51a3.64,3.64,0,0,1-.6.07c-.51,0-.77-.19-.77-.58a25.4,25.4,0,0,0,.17-2.94v-4.28a.18.18,0,0,0-.06.1,9.77,9.77,0,0,1-1.87,2.17l-.15-.32a28.48,28.48,0,0,0,1.42-4.12,57.67,57.67,0,0,0,1.13-5.85c-.94,0-1.63,0-2.06.08l-.34-.83A20.13,20.13,0,0,0,763.23,235.65Zm2.51,13.65v-7h-1.33v7Zm7.41.9c.65.35,1,.6,1,.78s-.17.27-.47.32-.58.06-.63.19q-1,.45-2.25.84a30.82,30.82,0,0,1-4.28.92l-.15-.34a22,22,0,0,0,3-1.63,7.33,7.33,0,0,0,2.14-2Zm-1.46-14.87h4.36a6.66,6.66,0,0,0,.68-.84c.52-.6.82-.92.9-.92.26,0,.69.3,1.25.9s.85,1,.85,1.09-.15.35-.42.35h-3.82a11.38,11.38,0,0,1-1.87,2.42h1.91c.26-.24.52-.45.73-.67s.54-.49.71-.49a3.61,3.61,0,0,1,1.35.64c.77.6,1.16,1,1.16,1.2s-.17.41-.52.63a1,1,0,0,0-.41.7v4.18l.18,4.29c0,.28-.41.47-1.18.6-.35,0-.6.07-.75.07-.39,0-.58-.22-.58-.67v-.34h-4.7V249c0,.28-.34.49-1,.62a4.25,4.25,0,0,1-.64.07c-.47,0-.68-.22-.68-.69,0-.71.08-1.44.08-2.16v-6.46c0-1-.06-2-.15-3a20,20,0,0,1,2.72,1h.6c.09-.71.18-1.52.26-2.42h-1c-1.24,0-2.1,0-2.59.08l-.34-.84A16.74,16.74,0,0,0,771.69,235.33Zm4.53,5.93v-2.33h-4.7v2.33Zm0,3.26v-2.68h-4.7v2.68Zm0,3.37v-2.77h-4.7v2.77Zm1.13,2.16a6.89,6.89,0,0,1,1.5.63,1.3,1.3,0,0,1,.63,1,1.84,1.84,0,0,1-.5,1,1.29,1.29,0,0,1-.85.4,1,1,0,0,1-.73-.49,10.41,10.41,0,0,0-3-2.7l.09-.41A17.38,17.38,0,0,1,777.35,250.05Z"/><path class="cls-1" d="M789,239.16a3,3,0,0,1,.66,1.1c0,.23-.1.34-.32.34h-2.53v7.14c.94-.19,1.82-.43,2.68-.69l.09.24a16.32,16.32,0,0,1-5.3,3.11c-.21,0-.3.13-.3.25a1.19,1.19,0,0,0-.08.3c-.07.2-.15.28-.26.28-.28,0-.6-.47-1-1.45l-.51-1.31c.83-.09,1.65-.2,2.42-.32V240.6h-.26c-.43,0-1,0-1.67.09l-.34-.84a16.44,16.44,0,0,0,2,.15h.26v-2.68a17.82,17.82,0,0,0-.26-3.17c.6.08,1.4.19,2.38.36.75.13,1.14.26,1.14.39s-.19.41-.58.58a.49.49,0,0,0-.43.51v4h.26a7.54,7.54,0,0,0,.49-.94c.26-.54.43-.82.52-.82S788.53,238.56,789,239.16Zm9.26-1.43c.15-.26.32-.41.54-.41a3.25,3.25,0,0,1,1.26.58c.81.49,1.24.84,1.24,1s-.19.32-.55.58a.89.89,0,0,0-.45.66c0,4-.15,6.3-.43,7a2.14,2.14,0,0,1-1,1.22,2.35,2.35,0,0,1-1.05.39c-.22,0-.37-.28-.47-.88a1.66,1.66,0,0,0-1-1.31v1.93c0,.28-.35.47-1,.6a5.64,5.64,0,0,1-.65.06c-.51,0-.77-.21-.77-.66.11-1.33.17-2.57.17-3.69v-4.24l-1.75.6V250c0,.47.17.73.53.79a27.33,27.33,0,0,0,3.2.13,11.54,11.54,0,0,0,2.31-.19,1.41,1.41,0,0,0,.92-.43,2.87,2.87,0,0,0,.48-1c.21-.6.42-1.39.68-2.42l.52.09c0,1.07,0,1.76,0,2a1.9,1.9,0,0,0,.41,1.42,1.48,1.48,0,0,1,.53.92c0,.38-.3.73-.86,1a4.88,4.88,0,0,1-1.43.39,26.14,26.14,0,0,1-3.6.22,32,32,0,0,1-4.57-.22,1.82,1.82,0,0,1-1.24-.73,2.67,2.67,0,0,1-.26-1.39V242a7.16,7.16,0,0,0-1.67.73l-.6-.75a6.3,6.3,0,0,0,2.27-.54v-4a17.82,17.82,0,0,0-.17-2.43c.68.07,1.46.17,2.36.3s1.24.28,1.24.45-.21.48-.64.63a.62.62,0,0,0-.45.55v3.67L794,240v-2.38a28.19,28.19,0,0,0-.23-3.78c.64.07,1.46.18,2.46.35.69.08,1,.23,1,.43s-.21.43-.6.55a.51.51,0,0,0-.4.52v3.51l1.41-.49A10.16,10.16,0,0,1,798.24,237.73Zm-2,8.25a8.7,8.7,0,0,0,1,.07c.3,0,.5-.2.58-.61,0-.7.09-2.8.09-6.28l-1.67.58Z"/><path class="cls-1" d="M815.07,234c.54,0,.82.17.82.4s-.17.24-.48.39-.53.39-.53.62v.84h4.46a8.67,8.67,0,0,0,.68-.86c.5-.64.8-1,.9-1,.26,0,.69.33,1.29.95s.88,1,.88,1.13-.15.35-.41.35H819c.17.08.32.17.47.23.77.43,1.18.71,1.18.86s-.2.26-.58.26l-.69-.09a18,18,0,0,1-2.12,1A5.72,5.72,0,0,1,819,240a1,1,0,0,1,.36.73,1.05,1.05,0,0,1-.25.77.54.54,0,0,1-.18.15h.95s.21-.22.6-.67c.49-.62.81-.94,1-.94s.6.36,1.33,1.05c.45.43.69.71.69.79,0,.24-.15.35-.43.35H807.93v2.33a24.39,24.39,0,0,1-.28,3.88,8.55,8.55,0,0,1-1.2,2.79,11.51,11.51,0,0,1-2,2.06l-.32-.17a13,13,0,0,0,1.17-3.15,27.37,27.37,0,0,0,.41-5.41,21.09,21.09,0,0,0-.25-3.92,20.44,20.44,0,0,1,2.76,1h9.52a3.45,3.45,0,0,1-.69-.43,14,14,0,0,0-1.95-1.18l-.23.09a36.45,36.45,0,0,1-6.48,1.35l-.08-.35a51.6,51.6,0,0,0,5.1-1.84,44.52,44.52,0,0,0-4.27-1.33l.09-.26c2.36.3,4.24.6,5.68.86a14.12,14.12,0,0,0,2.53-1.69h-9.22c-1.22,0-2.08,0-2.59.08l-.35-.83a17.22,17.22,0,0,0,2.94.17h4.35v-.75a10.77,10.77,0,0,0-.17-1.84C813.29,233.74,814.19,233.85,815.07,234Zm-2.87,9.52c.6.19.92.38.92.6s-.17.32-.49.36-.54.13-.58.21c-.22.41-.41.78-.62,1.1h2.87v-1.27a10.77,10.77,0,0,0-.17-1.84q1.38.13,2.7.36c.54.05.81.18.81.41s-.17.24-.47.39-.51.38-.51.6v1.35h1.76l.57-.67c.52-.6.84-.92,1-.92a4.79,4.79,0,0,1,1.33,1c.45.43.69.71.69.82s-.15.32-.43.32h-4.93v2.53h1.67s.24-.26.62-.71.71-.82.8-.82.55.28,1,.8a3.4,3.4,0,0,1,.73,1,.31.31,0,0,1-.34.35h-4.5v2.68h2.68l.68-.86c.5-.65.8-1,.9-1,.26,0,.69.32,1.29.94s.88,1,.88,1.16-.15.32-.41.32H810.21a24.93,24.93,0,0,0-2.6.09l-.34-.84a19,19,0,0,0,2.94.18h4.09v-2.68h-1.59c-1.24,0-2.1,0-2.59.08l-.34-.83a18.18,18.18,0,0,0,2.93.17h1.59v-2.53H811a6.71,6.71,0,0,1-.47.53,13.75,13.75,0,0,1-2.1,1.83l-.26-.26a14.71,14.71,0,0,0,1.27-2.55,19.83,19.83,0,0,0,.75-3C810.89,243.13,811.56,243.32,812.2,243.52Z"/><polyline class="cls-4" points="710.37 209.91 713.09 205.95 723.57 205.95 719.77 200.21 710.32 200.21 703.58 209.91 710.32 219.62 719.77 219.62 723.57 213.89 713.09 213.89 710.37 209.91"/><polyline class="cls-4" points="718.04 209.91 715.6 206.43 713.15 209.91 715.6 213.41 718.04 209.91"/><polyline class="cls-4" points="702.56 209.91 709.3 200.21 702.51 200.21 695.77 209.91 702.51 219.62 709.3 219.62 702.56 209.91"/><polyline class="cls-4" points="727.38 209.91 720.64 200.21 727.43 200.21 734.17 209.91 727.43 219.62 720.64 219.62 727.38 209.91"/><polyline class="cls-4" points="716.42 206.43 719.91 206.43 722.35 209.91 719.91 213.41 716.42 213.41 718.87 209.91 716.42 206.43"/><path class="cls-1" d="M807.47,217.31h2.22v-4.37h-3.32v4.37h1.1Zm-1.1,1.81h-1.51v-6.94h6.33v5.89h-4.82v1.05"/><path class="cls-1" d="M811.19,201.47h-6.33v-.75h6.33v.75m.91,3h-8v-.91h8v.91m-.91,3h-6.33v-.91h6.33v.91m1.22,1.05-.76-.76a5.47,5.47,0,0,0,1.37-1.29,4.28,4.28,0,0,0,.9-3.08v-2.71H819V206a1.17,1.17,0,0,0,.07.38.67.67,0,0,0,.39.22h.79c.36,0,.52-.74.64-1.13a8.45,8.45,0,0,0,.22-1.14l1.67.76c-.3,1.31-.81,2-1.52,2.11a18.83,18.83,0,0,1-2.86.15,1.1,1.1,0,0,1-.76-.44,1.44,1.44,0,0,1-.15-.91v-4.53h-2.11v.76a8.22,8.22,0,0,1-.68,3.46,8.1,8.1,0,0,1-2.33,2.87m-1.22,1.5h-6.33v-.75h6.33v.75m11,8.91a16.44,16.44,0,0,1-2.41-1.21c-.81-.51-1.56-1-2.27-1.51a21,21,0,0,1-2.64,1.59A19.64,19.64,0,0,1,812.1,219l-.45-.61,2.42-1.35a17.18,17.18,0,0,0,2.41-1.67c-.16-.22-1-1-1.77-1.9a16.31,16.31,0,0,1-2-2.64l2,0a12.9,12.9,0,0,0,2.72,3.48s.61-1,1.11-2a17.53,17.53,0,0,0,.86-2.25h-7.7v-.75h9.81a24.58,24.58,0,0,1-1.21,3.28,12.11,12.11,0,0,1-1.81,2.75s1,.79,1.88,1.41,2.5,1.47,2.5,1.47l-.76.75"/><path class="cls-1" d="M771.08,203.88v6.34h-1.91v-6.34"/><path class="cls-1" d="M779,203.76v.75H761.3v-.75Z"/><path class="cls-1" d="M779,213.25V214H761.3v-.76Z"/><path class="cls-1" d="M777.62,206.69v.75h-15v-.75Z"/><path class="cls-1" d="M779.62,209.76v.76h-19v-.76Z"/><path class="cls-1" d="M767,204c-.39-.47-.95-1.09-1.28-1.45s-.74-.83-1.08-1.23l.67-.71a7.74,7.74,0,0,1,1.55.91,13.19,13.19,0,0,1,1.44,1.15Z"/><path class="cls-1" d="M775.59,201.45c-.44.42-1.19,1.33-1.52,1.68s-.76.82-1.13,1.19l-1.33-.15a10.1,10.1,0,0,1,1.18-2,20.36,20.36,0,0,1,1.11-1.78Z"/><path class="cls-1" d="M760.39,218.29v1.06s5.93,0,9.57-4.12l1-1.62,0-2.63-1.82,0s0,1.25,0,1.57C769.13,213.94,767.62,217.3,760.39,218.29Z"/><path class="cls-1" d="M779.61,218.29v1.06s-6.3-.41-9.44-4.42l-.69-1.06,1.92,0S772.16,216.48,779.61,218.29Z"/><path class="cls-1" d="M783,219l-.47-.47c.41-.36.82-.73,1.22-1s.81-.71,1.21-1.05a9.08,9.08,0,0,1-1.14-2.73,16.06,16.06,0,0,1-.53-2.71h1.37a15.81,15.81,0,0,0,.3,2.18,22.94,22.94,0,0,0,.75,2.2,27.32,27.32,0,0,0,.6-3c.11-1,.2-2,.31-3H783.4l3.32-6.79h-4.08v-.75h5.13c.2,0,.33.05.38.15a1.89,1.89,0,0,1,.08.6c-.51,1-1,2-1.44,3s-1,2-1.43,3h2.71a28.92,28.92,0,0,1-.53,3.92,18,18,0,0,1-1.13,3.77,5.86,5.86,0,0,0,2.11,1,8.25,8.25,0,0,0,2.42.38h10.12l-.16.91H790a8.33,8.33,0,0,1-2.26-.46,14.39,14.39,0,0,1-2.11-.9c-.45.3-2.26,1.56-2.71,1.8"/><path class="cls-1" d="M795.13,210h4.36v-3.26h1.4V206h-1.4v-3h-4.42v-.62a5.87,5.87,0,0,1,.13-.91c-.05-.39-2.12-.44-2.12-.44a5.79,5.79,0,0,1,.26,1.2c0,.27,0,.53.07.77h-3.92v.7h4V206h-5.35v.7h5.35v2.33h-4.19V210h4.19v1.86h-4v.7h4v2.09h-4.89v.93h4.89v1.63h1.63v-1.63h5.36v-.93h-5.36v-2.09h4.42v-.7h-4.42V210Zm2.5-.93h-2.56v-2.33h2.56Zm-2.56-4.66v-.69h2.56V206h-2.56V204.4Z"/><path class="cls-1" d="M750.08,203.43H738.69v-.76h18.79v.76h-5.74m3.85,3.11c-.35-.4-.76-1-1.05-1.31s-.68-.71-1-1l.61-.61a5.82,5.82,0,0,1,1.43.84c.5.35,1,.73,1.44,1.13"/><path class="cls-1" d="M756.27,215.94c-.16.5-.17.51-.27.77s-.33.59-.33.59a4.06,4.06,0,0,1-1-1.32,5.54,5.54,0,0,1-.51-1.39l2.56-5a5.78,5.78,0,0,0-2.11-1,36.86,36.86,0,0,1-1.06,3.92,17.83,17.83,0,0,1-.41-2.11,14.42,14.42,0,0,1-.11-2.12V207.2h4v-.7h-4c0-.23.15-1.63.15-1.63h-2c0,.23.08,1.63.08,1.63h-8.9v2.56h-1.4v-2a5.54,5.54,0,0,1,.13-.91c0-.4-2.12-.45-2.12-.45a6.11,6.11,0,0,1,.26,1.2c0,.51.1,1,.1,1.36v1.51h3v2.09h-3.49v.7h1a15.93,15.93,0,0,1-.38,1.78c-.21.49-.46,1-.76,1.6l.38.76a6,6,0,0,0,1.58-1.84,8.34,8.34,0,0,0,.68-2.3h.9a8.73,8.73,0,0,1-1,3.68,18.44,18.44,0,0,1-1.75,2.71l.29.25.46.37.31-.36c1.57-1.93,2.6-3.52,2.87-5.23a38.11,38.11,0,0,0,.29-6.77h7.55c.06,1.16.15,2.49.3,3.69s.42,2.49.73,3.7c-.43.61-.92,1.2-1.39,1.75v-.77h-1.86v-1.86h1.86v-2.79h-1.86v-1.4h1.86v-.93h-6.52v8.61H746v-.7h4.89c-.13,0-.27.26-.4.4a17.13,17.13,0,0,1-2.11,1.78l.4.53.06.07.13-.08a16.77,16.77,0,0,0,2-1.28,16.6,16.6,0,0,0,2-1.67,12,12,0,0,0,1.21,1.81c.22.28.87,1.07,1.5,1.06s1.37-.84,1.37-.84a5.37,5.37,0,0,0,.75-1.43ZM746,209.52h1.4v1.4H746Zm0,2.1h3.26V213H746Zm1.4,3.95H746v-1.86h1.4Z"/><path class="cls-1" d="M745.34,203.94v-2a5.56,5.56,0,0,1,.14-.91c-.05-.4-2.13-.45-2.13-.45a5.46,5.46,0,0,1,.26,1.2c0,.51.11,1,.11,1.36v1.74h1.62Z"/><path class="cls-1" d="M749.53,204.87h1.63v-1.74c0-.4,0-.85.05-1.36a6.4,6.4,0,0,1,.23-1.2s-2,.05-2.08.45a5.61,5.61,0,0,1,.17.91v2.94Z"/><path class="cls-1" d="M13.71,6.55H51.39a18.4,18.4,0,0,0,2.57-3C55.78,1.42,56.86.27,57.2.27c.95,0,2.37,1.08,4.39,3.17s3,3.45,3,3.92c0,.74-.47,1.08-1.35,1.08H43.22v12.9h6.62c.81-.81,1.55-1.55,2.23-2.3,1-1.08,1.76-1.68,2.23-1.68.81,0,2.29.74,4.46,2.23,2.43,1.89,3.71,3.17,3.71,3.84s-.54,1.29-1.62,2a3.21,3.21,0,0,0-1.28,2.23v19l.54,13.71c0,.81-1.29,1.48-3.85,2-1.15.06-2,.13-2.5.13-1.22,0-1.83-.74-1.83-2.09V56.19H15.53v4.19c0,.81-1.14,1.48-3.37,2-1,.06-1.76.13-2.16.13a1.86,1.86,0,0,1-2.1-2.09c.14-2.43.27-4.73.27-7.09V27.69a91.33,91.33,0,0,0-.54-9.79,72.25,72.25,0,0,1,9.52,3.44h5.74V8.44H12.63a79.13,79.13,0,0,0-9,.47l-1-3.1A82.45,82.45,0,0,0,13.71,6.55ZM51.93,54.3V43.76H43.22c-2.5,0-4.32-.54-5.4-1.62a5,5,0,0,1-2-4.46V23.16h-5.6a50.64,50.64,0,0,1-1.49,11.35,22.87,22.87,0,0,1-4.39,8,23.43,23.43,0,0,1-7.5,5.94l-.81-1a23.38,23.38,0,0,0,3.52-5.68,27.17,27.17,0,0,0,2.29-7.36,81.22,81.22,0,0,0,1-11.28H15.53V54.3ZM35.86,8.44H30.32v12.9h5.54Zm7.36,28c0,.88.61,1.28,1.83,1.28h6.88V23.16H43.22Z"/><path class="cls-1" d="M82.79,4.46h6.62a31.29,31.29,0,0,1,2.84-3A2.77,2.77,0,0,1,94.14.27C94.68.27,96,1,98,2.16c2.3,1.62,3.51,2.77,3.51,3.38s-.47,1.21-1.35,1.82a2.34,2.34,0,0,0-1,1.82V20.26c0,2.09.06,4.93.27,8.44,0,.88-1.15,1.56-3.38,2a17.84,17.84,0,0,1-2.16.2c-1.22,0-1.82-.67-1.82-2.16V26.88h-9.8v33.5c0,.81-1.08,1.48-3.24,2-.94.06-1.62.13-2,.13-1.63,0-2.37-.74-2.37-2.09.34-4.73.54-9,.54-12.63V13.17c0-3.17-.2-7-.54-11.62A44.85,44.85,0,0,1,82.79,4.46Zm9.26,9.79v-8h-9.8v8Zm0,10.81v-9h-9.8v9Zm20.53-20.6H120L121.49,3c1.29-1.08,2.16-1.69,2.7-1.69s2.1.81,4.33,2.3c2,1.62,3.1,2.7,3.1,3.24s-.54,1.08-1.55,1.82c-1.28.88-1.89,1.69-1.89,2.44v44c0,2.57-1.29,4.46-3.72,5.81a11.82,11.82,0,0,1-5,1.55c-.75,0-1.36-1-1.9-3-.81-2.37-3.91-4.32-9.18-5.94l.27-1.36a53.4,53.4,0,0,0,10.81,1.36c1,0,1.55-.81,1.55-2.44V26.88h-9.46V28.5c0,.88-1.14,1.49-3.37,1.89a18.18,18.18,0,0,1-2.16.2,1.83,1.83,0,0,1-2.1-2.09c.14-2.36.21-4.73.21-7.16V11.08c0-3.38-.21-6.62-.48-9.8A73.22,73.22,0,0,1,112.58,4.46ZM121,14.25v-8h-9.46v8Zm0,10.81v-9h-9.46v9Z"/><path class="cls-1" d="M149.51,19.25h14c.27-2.91.48-6,.54-9.25,0-3.65-.13-6.76-.27-9.26,2.3.34,4.6.75,6.83,1.15,3.17.61,4.79,1.22,4.79,1.76s-.54,1.21-1.48,1.69c-1.15.54-1.69,1-1.69,1.48-.41,4.59-.81,8.78-1.29,12.43h14.79a31.58,31.58,0,0,0,2.64-3.11c1.89-2.3,3-3.51,3.37-3.51.95,0,2.5,1.15,4.53,3.31s3.17,3.65,3.17,4.12c0,.67-.47,1-1.35,1H173.29a58.81,58.81,0,0,0,4.39,12.29,35,35,0,0,0,8.1,11.08,50.56,50.56,0,0,0,13.91,8.85l-.27,1.55c-2.43.94-4,2.09-4.72,3.58-.81,1.82-1.56,2.77-2.17,2.77s-2.16-1-4.18-2.91a42.75,42.75,0,0,1-7.43-8.37,41.51,41.51,0,0,1-5.47-10.74c-1.69-4.19-3-10.26-4.12-18.1h-.68c-1.08,7-2.43,12.29-4.18,15.8a43,43,0,0,1-11,14.73c-4.05,3.64-9.52,6.95-16.48,10.13l-.54-1.35a64.51,64.51,0,0,0,14.11-12.56q5.37-6.09,8.72-16.42a70.58,70.58,0,0,0,2-10.33H148.5a64.18,64.18,0,0,0-9,.54l-1.08-3.17A83.89,83.89,0,0,0,149.51,19.25Z"/><path class="cls-1" d="M212.59,32.69a22.19,22.19,0,0,0,2.09-2.37c.95-1.08,1.69-1.62,2.1-1.62.67,0,1.89.81,3.64,2.3,2,1.62,3,2.63,3,3a2.35,2.35,0,0,1-1.28,1.82c-.88.81-1.35,1.49-1.35,2.09V49a10.6,10.6,0,0,0,7.29,3.65c3.38.4,9.86.61,19.52.61a152.84,152.84,0,0,0,19.66-1.36l.2,1.36c-1.76.4-3.24,2.16-4.39,5.13-.21,1.28-.61,2-1.15,2H245.34c-3.78,0-8.57-.27-14.38-.75-5.81-1.21-9.86-3.91-12.29-8.24-.27,0-.48.21-.68.61a47.28,47.28,0,0,1-6.21,7.36c0,1.76-.34,2.64-1,2.64-.41,0-.88-.54-1.36-1.49a77.75,77.75,0,0,1-3.71-8c3.44-.67,6.08-1.28,8-1.82V34.51a33.28,33.28,0,0,0-6.89.54l-1.08-3.17A26.81,26.81,0,0,0,212.59,32.69Zm5.2-14.93c1.62,1,2.43,2.23,2.43,3.58a5.25,5.25,0,0,1-1.62,3.58,3.63,3.63,0,0,1-2.84,1.15c-1.15,0-2.09-.88-2.9-2.7a22.16,22.16,0,0,0-5.54-7.57l.54-1.08Q215,16.15,217.79,17.76ZM219.48,6q2.63,1.51,2.63,3.44a4.89,4.89,0,0,1-1.55,3.38,3.35,3.35,0,0,1-2.7,1.15c-1.29,0-2.37-.88-3.25-2.63a21.28,21.28,0,0,0-6.28-7.16l.54-1A49.87,49.87,0,0,1,219.48,6Zm36-3.85c1.83.54,2.77,1.15,2.77,1.76S257.7,5,256.62,5.13s-1.69.41-1.82.68a15.66,15.66,0,0,1-3.18,3.71,12.46,12.46,0,0,1-2.36,1.83h6.08c.13-.07.81-.88,2.09-2.37,1.49-1.75,2.37-2.7,2.64-2.7.74,0,1.95.88,3.58,2.63s2.49,2.84,2.49,3.18a1,1,0,0,1-1.08,1.08H248.32a34.83,34.83,0,0,1-6.08,7.09h9.11c.81-.67,1.49-1.35,2.1-2,.94-.94,1.69-1.42,2.16-1.42.74,0,2.09.68,4.12,2,2.29,1.89,3.51,3.11,3.51,3.78s-.54,1.15-1.49,1.83a3.1,3.1,0,0,0-1.14,2.09V36.4l.54,12.9c0,.88-1.22,1.49-3.58,1.89a20.12,20.12,0,0,1-2.23.2c-1.28,0-1.89-.67-1.89-2.09V47.48H235.82v2.09c0,.88-1.08,1.49-3.24,1.89a15.41,15.41,0,0,1-2,.2c-1.62,0-2.43-.67-2.43-2.09.34-4.73.54-9,.54-12.63V29c0-3.1-.2-7-.54-11.61a45.06,45.06,0,0,1,8.24,2.9h2.37a43.69,43.69,0,0,0,1.62-7.09h-7.43c-3.92,0-6.62.13-8.18.27l-1.08-2.63a54.6,54.6,0,0,0,9.26.54h13.64a35.93,35.93,0,0,0,1.76-4.73c.4-1.69.81-3.72,1.21-6.15C251.56,1.08,253.52,1.62,255.47,2.16ZM239.33,3.31c1.35.81,2,1.69,2,2.77a5,5,0,0,1-1.62,3.51,3.75,3.75,0,0,1-2.91,1.22c-.81,0-1.48-.75-2-2.37a19.43,19.43,0,0,0-4.05-6.35L231.3,1C235.15,1.76,237.85,2.5,239.33,3.31ZM253.45,28.7V22.15H235.82V28.7Zm0,8.24V30.59H235.82v6.35Zm0,8.65V38.77H235.82v6.82Z"/><path class="cls-1" d="M330.57,10.47V26.88h12.9a23.17,23.17,0,0,0,2.7-3c1.89-2.36,3-3.58,3.37-3.58.95,0,2.5,1.15,4.53,3.38s3.17,3.58,3.17,4.05c0,.67-.47,1-1.35,1H330.57V47.75c0,5.06.06,9,.27,12.09,0,.94-1.42,1.68-4.19,2.16-1.22.13-2.16.27-2.7.27-1.42,0-2.09-.81-2.09-2.43a109,109,0,0,0,.54-12.09v-19H305.51a65.65,65.65,0,0,0-9,.54l-1.08-3.17a84.89,84.89,0,0,0,11.14.81H322.4V11.21c-7.64.61-14.86,1-21.62,1.15l-.54-1.82C311,9.18,319,7.7,324.15,6.21a89,89,0,0,0,17-5.74c2.43,1.89,4.46,3.38,5.95,4.39,2.16,1.69,3.31,2.91,3.31,3.58s-.48,1-1.36,1l-3.37-.54C340.36,9.52,335.36,10.06,330.57,10.47Z"/><path class="cls-1" d="M371,19.52v-7.7a56.07,56.07,0,0,0-.81-10c1.89.27,4.39.61,7.49,1.15,2.37.41,3.58.81,3.58,1.22,0,.67-.6,1.28-1.82,1.82A1.58,1.58,0,0,0,378,7.63V19.52h.81a12.71,12.71,0,0,0,1.62-1.89c1.15-1.35,1.82-2.1,2.09-2.1.61,0,1.56.75,2.91,2.16s2.09,2.3,2.09,2.57c0,.74-.27,1.08-.81,1.08H378V42.41c3.24-.4,6.28-.94,9.25-1.55l.27.81a56.06,56.06,0,0,1-17.49,9c-.68.13-1,.34-1,.67a3.28,3.28,0,0,0-.27,1c-.14.61-.41.88-.75.88-.94,0-2-1.63-3.3-4.87-.34-.88-.95-2.36-1.76-4.39,2.77-.13,5.4-.4,8-.74V21.34c-3.18.07-5.47.14-6.89.27L363,19A47.52,47.52,0,0,0,371,19.52ZM393.64,5h17.9a22.47,22.47,0,0,0,2.09-2.37C415.12.88,416.06,0,416.33,0c.74,0,2,.88,3.58,2.57s2.43,2.83,2.43,3.24a.9.9,0,0,1-1,1H406.81V36.4h4.73a19.34,19.34,0,0,0,2.43-3c1.75-2.23,2.77-3.38,3.1-3.38.95,0,2.37,1.08,4.39,3.18s3,3.51,3,3.91c0,.75-.47,1.08-1.35,1.08H406.81V60.11c0,.81-1.28,1.48-3.72,2a23.06,23.06,0,0,1-2.36.2,1.88,1.88,0,0,1-2.09-2.16,98.09,98.09,0,0,0,.54-11.62V38.22h-7.43c-3.85,0-6.55.14-8.17.28l-1-2.64a52.72,52.72,0,0,0,9.19.54h7.43V6.82h-5.54c-3.92,0-6.62.14-8.17.27l-1.08-2.63A54.46,54.46,0,0,0,393.64,5ZM395,18.71c2,2.7,3.11,5.13,3.11,7.36a5.49,5.49,0,0,1-1.89,4.25,4,4,0,0,1-2.84,1.08,2,2,0,0,1-1.82-1.14c-.48-.61-.88-2.17-1.22-4.6a58.06,58.06,0,0,0-3.58-12.76l.81-.54A28.8,28.8,0,0,1,395,18.71Zm24.85-4.39c2,.67,3,1.35,3,2s-.54,1-1.62,1.15-1.69.41-1.82.68a28.93,28.93,0,0,1-3.58,7.09,46.63,46.63,0,0,1-5.07,5.87l-1.08-1.08a78.62,78.62,0,0,0,2.3-8.17c.54-2.63,1-5.81,1.42-9.52C415.59,13,417.75,13.64,419.84,14.32Z"/><path class="cls-1" d="M451.92,17.63c1.35,1.75,2.09,2.9,2.09,3.44,0,.74-.34,1.08-1,1.08h-8V44.64c3-.61,5.74-1.35,8.44-2.16l.27.74A51,51,0,0,1,437.06,53c-.67.13-.94.4-.94.81a2.83,2.83,0,0,0-.27.94c-.21.61-.48.88-.82.88-.87,0-1.89-1.49-3.1-4.59-.34-.81-.88-2.23-1.62-4.12,2.63-.27,5.2-.61,7.63-1V22.15h-.81c-1.35,0-3.11.14-5.27.27l-1.08-2.63a53,53,0,0,0,6.35.47h.81V11.82a56.07,56.07,0,0,0-.81-10c1.89.27,4.39.61,7.49,1.15,2.37.41,3.58.81,3.58,1.22,0,.67-.6,1.28-1.82,1.82A1.58,1.58,0,0,0,445,7.63V20.26h.81a25,25,0,0,0,1.55-3c.81-1.69,1.35-2.57,1.62-2.57C449.56,14.72,450.5,15.74,451.92,17.63Zm29.17-4.53c.48-.81,1-1.28,1.69-1.28s2,.61,4,1.82c2.56,1.56,3.91,2.64,3.91,3.24,0,.41-.6,1-1.75,1.83a2.79,2.79,0,0,0-1.42,2.09c0,12.56-.47,19.86-1.35,21.88a6.66,6.66,0,0,1-3.24,3.85,7.42,7.42,0,0,1-3.31,1.22c-.68,0-1.15-.88-1.49-2.77a5.18,5.18,0,0,0-3.24-4.12v6.08c0,.88-1.08,1.48-3.24,1.89a17.42,17.42,0,0,1-2,.2c-1.62,0-2.43-.67-2.43-2.09.34-4.19.54-8.11.54-11.62V22l-5.54,1.89V51.66c0,1.49.54,2.3,1.69,2.5a88.83,88.83,0,0,0,10.07.41,36.41,36.41,0,0,0,7.29-.61c1.48-.27,2.43-.67,2.9-1.35a8.69,8.69,0,0,0,1.49-3c.67-1.89,1.35-4.39,2.16-7.63l1.62.27c.07,3.38.14,5.54.14,6.35,0,2.16.4,3.64,1.28,4.46a4.73,4.73,0,0,1,1.69,2.9c0,1.21-.95,2.3-2.7,3.11a16.81,16.81,0,0,1-4.53,1.21,82.6,82.6,0,0,1-11.34.68,101.44,101.44,0,0,1-14.39-.68A5.72,5.72,0,0,1,455.63,58c-.54-.82-.81-2.23-.81-4.39V26.41a23.2,23.2,0,0,0-5.26,2.29l-1.9-2.36a20.13,20.13,0,0,0,7.16-1.69V12.09a56.74,56.74,0,0,0-.54-7.63c2.16.2,4.59.54,7.43.94,2.57.41,3.92.88,3.92,1.42,0,.81-.68,1.49-2,2a2,2,0,0,0-1.42,1.76V22.08l5.54-1.95v-7.5A88.71,88.71,0,0,0,467,.74c2,.21,4.59.54,7.77,1.08,2.16.27,3.31.75,3.31,1.35s-.68,1.35-1.9,1.76a1.59,1.59,0,0,0-1.28,1.62V17.63l4.46-1.56C480,14.93,480.55,13.91,481.09,13.1Zm-6.21,26a25,25,0,0,0,3.18.21c.94,0,1.55-.61,1.82-1.9.13-2.22.27-8.84.27-19.78l-5.27,1.82Z"/><path class="cls-1" d="M512.56,7.63h30.87a19.29,19.29,0,0,0,2.56-3c1.83-2.23,2.91-3.38,3.24-3.38.95,0,2.37,1.08,4.39,3.24s3,3.45,3,3.92c0,.68-.47,1-1.35,1H532.62V29.78h8.44a19,19,0,0,0,2.57-3c1.82-2.23,2.9-3.38,3.24-3.38,1,0,2.36,1.09,4.39,3.25s3,3.44,3,3.91c0,.68-.47,1-1.35,1H532.62V54.84h13.44a22.18,22.18,0,0,0,2.5-3c1.75-2.23,2.77-3.38,3-3.38.94,0,2.36,1.08,4.39,3.24s3,3.45,3,3.92c0,.67-.48,1.08-1.35,1.08H508.91a65.76,65.76,0,0,0-9,.47L498.85,54a83.91,83.91,0,0,0,11.08.81h14.79V31.61h-9.79a62.53,62.53,0,0,0-8.92.54L504.93,29a83.08,83.08,0,0,0,11.08.81h8.71V9.45H511.55a63.87,63.87,0,0,0-9,.55l-1.08-3.18A83.77,83.77,0,0,0,512.56,7.63Z"/><path class="cls-1" d="M635.81,57.07H601.09V53.15q6-7.29,18.37-19.86a69.75,69.75,0,0,0,6.15-6.68,14.47,14.47,0,0,0,3.11-8.38,11.09,11.09,0,0,0-3-7.69,9.78,9.78,0,0,0-7.42-3.25,11.26,11.26,0,0,0-6.83,2.1,7.34,7.34,0,0,0-3.1,6.21c0,.41.4.81,1.35,1.28,1.21.75,2.09,1.35,2.63,1.76A4.71,4.71,0,0,1,613.72,22a5.15,5.15,0,0,1-1.48,3.71,5.23,5.23,0,0,1-3.78,1.49,5.3,5.3,0,0,1-4.93-3A10.8,10.8,0,0,1,602,18.3q0-6.48,5.87-10.13a22.16,22.16,0,0,1,11.89-3.1c4.86,0,8.85,1.14,12,3.37a12.88,12.88,0,0,1,5.13,10.88c0,3.37-1.56,6.82-4.66,10.26a71.07,71.07,0,0,1-8.78,7.63c-5.61,4.32-10.88,8.58-15.74,12.7h21.07c2,0,3.31-.2,3.85-.68s1-1.62,1.42-3.64l.61-3.52h2.23Z"/><path class="cls-1" d="M676.05,38.29c-1.55,0-3.91-1.15-7.09-3.51s-5.33-3.44-6.35-3.44a10.13,10.13,0,0,0-4.18.74,7.29,7.29,0,0,0-3,2.7l-1.69-.88a19.62,19.62,0,0,1,3.51-6,7.71,7.71,0,0,1,5.87-3c1.76,0,4.33,1.22,7.7,3.51s5.27,3.52,5.81,3.52a8.37,8.37,0,0,0,7.16-3.58l1.69.94C683.21,35.32,680.11,38.29,676.05,38.29Z"/><path class="cls-1" d="M732.44,54.43a23.14,23.14,0,0,1-13.1,3.72,23.65,23.65,0,0,1-11.55-2.7q-5.87-3.24-5.87-9.53a6.72,6.72,0,0,1,1.75-4.66,6,6,0,0,1,4.46-1.95,6.11,6.11,0,0,1,3.92,1.35,4.61,4.61,0,0,1,1.62,3.64,5.42,5.42,0,0,1-1.89,4.12c-1.35,1.15-2,1.89-2,2.16,0,1.83,1.15,3.25,3.44,4.19a13.77,13.77,0,0,0,5.81,1.15,9.89,9.89,0,0,0,8.38-4,14.07,14.07,0,0,0,2.83-9,12.61,12.61,0,0,0-2.56-8,9.24,9.24,0,0,0-7.5-3.45,15.83,15.83,0,0,0-2.43.34,10.14,10.14,0,0,1-2.43.34c-2.43,0-3.58-.54-3.58-1.69s1.21-1.82,3.64-1.82a22.74,22.74,0,0,1,2.44.2,20.23,20.23,0,0,0,2.43.2A8.19,8.19,0,0,0,727,25.6a11.28,11.28,0,0,0,2.57-7.23,12.63,12.63,0,0,0-2.23-7.83A8.69,8.69,0,0,0,720,7.29c-5.34,0-8,1.76-8,5.14a7.88,7.88,0,0,0,1.55,2,5.74,5.74,0,0,1,1.55,3.51,4.76,4.76,0,0,1-1.48,3.58,5.63,5.63,0,0,1-3.85,1.35A5.43,5.43,0,0,1,705.56,21a5.86,5.86,0,0,1-1.75-4.39c0-3.64,1.89-6.61,5.67-8.84a21.46,21.46,0,0,1,10.74-2.7,20.34,20.34,0,0,1,11.55,3.24,11.47,11.47,0,0,1,5.6,10.06c0,5.13-2.56,9-7.63,11.55,6,2.43,8.92,6.82,8.92,13A13.23,13.23,0,0,1,732.44,54.43Z"/><path class="cls-1" d="M789.44,9.73c-4.86.2-10.87.27-18,.27v3.44h35.12c.74-.95,1.41-1.82,2-2.5a2.29,2.29,0,0,1,1.69-.94c.74,0,2.09.74,4,2.09,2.16,1.48,3.31,2.57,3.31,3.17s-.47,1-1.28,1.49A2.58,2.58,0,0,0,815,18.17v6.35q0,1.21-3.24,1.62a17.42,17.42,0,0,1-2,.2c-1.28,0-1.89-.47-1.89-1.55V23.7h-36.4c-.14,5.88-.41,11.08-.95,15.61a44.19,44.19,0,0,1-4.19,12.76,45.77,45.77,0,0,1-6.95,9.39L758,60.92a65.26,65.26,0,0,0,4.52-14.46c1-5.53,1.56-13.77,1.56-24.85a126.29,126.29,0,0,0-.81-17.15A59.65,59.65,0,0,1,772.49,8a138,138,0,0,0,15.06-2.16,89.92,89.92,0,0,0,19-5.54c2,1.28,3.84,2.5,5.53,3.65s2.64,2.36,2.64,3.17c-.14.41-.75.54-1.83.54l-3.17-.54A149.28,149.28,0,0,1,789.44,9.73Zm7.9,16.14c1.69.13,2.57.54,2.57,1.28,0,.34-.54.74-1.49,1.28-1.15.54-1.69,1.15-1.69,1.89V33H806a26.25,26.25,0,0,0,2.22-2.7c1.56-2,2.5-3.11,2.77-3.11.81,0,2.16,1,4,3s2.84,3.24,2.84,3.65c0,.67-.47,1-1.35,1H791.94a66.8,66.8,0,0,1-1.08,7.16h14c1-.81,1.63-1.42,2-1.82a5.18,5.18,0,0,1,2.23-1.35c.67,0,2,.81,3.92,2.36S816,43.7,816,44.3s-.54,1.15-1.62,1.62-1.49.88-1.49,1.29c-1.35,5.87-2.43,9.45-3.17,10.94a6.84,6.84,0,0,1-3.11,2.9,8,8,0,0,1-3.24,1c-.67,0-1.35-.81-1.89-2.37-.74-1.89-3.51-3.78-8.37-5.8l.27-1.36a71.56,71.56,0,0,0,8.64.82,1.84,1.84,0,0,0,1.89-1.09c.47-.94,1.15-3.78,2.1-8.44H790.32a23.23,23.23,0,0,1-.88,2.43,19.91,19.91,0,0,1-4.19,6.42,24.51,24.51,0,0,1-6.68,4.93,72,72,0,0,1-11.89,4.73l-.81-1.35a52,52,0,0,0,7.5-4.19,22.92,22.92,0,0,0,6.14-5.88,20.68,20.68,0,0,0,3-6.61A46.77,46.77,0,0,0,784,34.78h-2.57c-3.92,0-6.62.14-8.17.27l-1.08-2.63a54.46,54.46,0,0,0,9.25.54h7.9V30.59a34.69,34.69,0,0,0-.54-5.8C791.74,25.06,794.57,25.46,797.34,25.87Zm10.47-4V15.26h-36.4v6.62Z"/></g></g></svg>