<svg xmlns="http://www.w3.org/2000/svg" width="295.283" height="118.316" viewBox="0 0 295.283 118.316">
  <g id="Group_2020" data-name="Group 2020" transform="translate(-42.141 -507.271)">
    <g id="Group_43" data-name="Group 43" transform="translate(-3045.919 -0.053)">
      <path id="Path_484" data-name="Path 484" d="M3103.852,511.469v4.794h6.711v17.483h-2.595v-2.284H3092.6v2.4h-2.594V516.263h6.119v-4.794h-8.065v-1.41h24.25v1.41Zm4.116,18.724v-4.145h-3.581c-2.651,0-3.018-.79-3.018-3.046v-5.47h-2.707c-.112,3.948-.9,8.149-4.99,11l-.677-.789c2.876-2.989,3.13-7.276,3.13-10.208H3092.6v12.661Zm-6.6-18.724h-2.707v4.794h2.707Zm2.483,6.063V522.1c0,1.241.309,1.635,1.606,1.635h2.51v-6.2Z" fill="#fff"/>
      <path id="Path_485" data-name="Path 485" d="M3123.19,508.96h9.729v10.264h-7.19V533.83h-2.539Zm7.248,4.37v-3.1h-4.709v3.1Zm0,4.653V514.6h-4.709v3.384Zm7.077,12.689c4.089,1.184,5.1,1.043,5.1-.846v-10.6h-7.135V508.96h9.672V530.5c0,3.468-2.961,4.624-8.008,1.156Zm5.1-17.342v-3.1h-4.653v3.1Zm0,4.653V514.6h-4.653v3.384Z" fill="#fff"/>
      <path id="Path_486" data-name="Path 486" d="M3180.992,530.729l-2.058,3.214c-2.707-1.241-8.686-6.6-10.152-16.468-1.467,8.573-6.881,14.325-12.972,16.666l-.507-.959c4.907-2.792,9.3-7.416,10.631-16.242h-9.7v-1.551h9.9c.057-.649.113-1.325.141-2,.084-1.72.113-3.751.141-5.612l2.876.085c0,2.227-.056,4.258-.169,6.429l-.085,1.1h10.631v1.551h-9.926A20.094,20.094,0,0,0,3180.992,530.729Z" fill="#fff"/>
      <path id="Path_487" data-name="Path 487" d="M3214.713,530.249l-.846,2.764c-3.017.2-7.783.281-11.195.141-5.78-.226-7.388-2.059-8.572-4.258a21.843,21.843,0,0,1-3.271,5.245L3189,532.42a20.192,20.192,0,0,0,3.666-3.919v-6.373h-3.412v-1.269h5.949v7.585c1.552,2.313,5.1,2.426,7.615,2.426A106.5,106.5,0,0,0,3214.713,530.249ZM3193.4,518.885a49.514,49.514,0,0,0-3.919-4.511l.536-.874a24,24,0,0,1,5.187,3.383Zm-2.989-10.151.508-.818a20.224,20.224,0,0,1,5.188,3.13l-1.777,2A41.18,41.18,0,0,0,3190.406,508.734Zm13.2,4.737h-7.275v-1.24h5.216c-.761-1.41-1.691-2.961-2.425-4.061l.705-.733a20.455,20.455,0,0,1,4.2,3.778l-1.38,1.016h4.172a25.193,25.193,0,0,0,1.382-4.794l2.791.846a20.064,20.064,0,0,1-2.96,3.948h5.78v1.24h-7.472a24.041,24.041,0,0,1-1.889,2.792h7.416V529.4h-2.481v-1.494h-8.206v1.579H3198.7V516.263h4.4A24.58,24.58,0,0,0,3203.6,513.471Zm5.781,4.061h-8.206v2.086h8.206Zm0,3.3h-8.206v2.284h8.206Zm0,3.5h-8.206v2.312h8.206Z" fill="#fff"/>
      <path id="Path_488" data-name="Path 488" d="M3232.9,520.634a2.665,2.665,0,1,1,2.678,2.65A2.653,2.653,0,0,1,3232.9,520.634Z" fill="#fff"/>
      <path id="Path_489" data-name="Path 489" d="M3281.617,532.336h-20.189v1.635h-2.595V509.495h22.107v1.269h-19.512v20.3h20.189Zm-8.572-2.228V519.957h-5.526c-.4,5.611-1.918,8.206-4.427,10.546l-.79-.677c2.284-3.186,2.735-6.457,2.707-12.661v-3.5l2.341.676a28.107,28.107,0,0,0,9.333-2.876l2.509,2.228A65.3,65.3,0,0,1,3267.6,515.3v2.679a5.5,5.5,0,0,1-.029.705h13v1.269h-5.048v10.151Z" fill="#fff"/>
      <path id="Path_490" data-name="Path 490" d="M3294.9,517.842l1.014.141c-.056,4.709-.817,8.149-2.2,10.913l-3.074-1.692C3292.639,524.751,3293.879,522.523,3294.9,517.842Zm3.382,11.166V513.894h2.707v14.579c0,1.466.283,1.8,1.862,1.917a21.258,21.258,0,0,0,3.552,0c2.059-.169,2.426-.62,2.4-5.978h1.071c1.974,6.429,1.27,8.121-2.566,8.488a28.167,28.167,0,0,1-4.878,0C3299.039,532.646,3298.277,532.477,3298.277,529.008Zm1.27-20.359.535-.987a27.457,27.457,0,0,1,8.6,4.822l-2.228,2.538A40.609,40.609,0,0,0,3299.547,508.649Zm9.954,8.826.931-.564a33.584,33.584,0,0,1,5.723,9.109l-3.13,1.3A56.793,56.793,0,0,0,3309.5,517.475Z" fill="#fff"/>
      <path id="Path_491" data-name="Path 491" d="M3349.594,529.149l-1.185,3.3a64.794,64.794,0,0,1-8.375.253c-5.949-.14-8.4-2.707-9.615-5.611-1.466-3.553-1.354,1.269-2.961,6.26L3324.5,531.8c3.412-5.386,4.371-10.4,6.57-6.119.114.254.254.479.4.733,4.005-2.679,8.657-7.049,10.913-11.194h-16.411v-1.551H3342.4l1.157-.762,3.1,1.777a36.687,36.687,0,0,1-14.606,12.689c1.1,1.438,3.045,2.65,8.092,2.65A59.427,59.427,0,0,0,3349.594,529.149Zm-18.329-20.895.564-.93a30.445,30.445,0,0,1,7.022,3.666l-2.059,2.51A72.675,72.675,0,0,0,3331.265,508.254Z" fill="#fff"/>
      <path id="Path_492" data-name="Path 492" d="M3364.93,514.825v19.062H3362.5V518.519a22.46,22.46,0,0,1-3.892,3.947l-.676-.761c2.2-2.4,4.962-6.767,6.964-13.958l2.679.931A32.467,32.467,0,0,1,3364.93,514.825Zm10.32-.593v4.71h7.19v1.268h-7.19v4.935h7.275v1.269h-7.275v7.473h-2.481V514.232h-1.748a24.392,24.392,0,0,1-4.6,5.922l-.733-.705a25.052,25.052,0,0,0,4.793-11.476l2.764.845a21.281,21.281,0,0,1-1.551,4.146h11.646v1.268Z" fill="#fff"/>
    </g>
    <g id="Group_72" data-name="Group 72" transform="translate(-3045.919 -0.053)">
      <g id="Group_64" data-name="Group 64">
        <path id="Path_590" data-name="Path 590" d="M3263.529,619.486v5.56l-.26.518h5.286l-.262-.515V609.876l.262-.518h-16.844l.259.52v15.168l-.259.518h5.283l-.261-.515v-5.563a3.4,3.4,0,1,1,6.8,0Z" fill="#fff" fill-rule="evenodd"/>
        <g id="Group_63" data-name="Group 63">
          <path id="Path_591" data-name="Path 591" d="M3276.657,622.528a26.62,26.62,0,0,1-3.084.99l-.33.082-.2-1.567.4-.066.331-.082v-9.616h-.726V610.9h5.822v1.369h-.842v13.294h-1.369Zm-1.516-8.3h1.516v-1.963h-1.516Zm0,3.4h1.516v-2.094h-1.516Zm.774,3.711.742-.3v-2.112h-1.516v2.656Zm5.954-10.506-.247.495a14.186,14.186,0,0,1-1.434,2.358h.593l.577-.033.479-.692c.088-.154.208-.385.362-.693l1.188.594a18.175,18.175,0,0,1-3.183,3.744l.824-.033.759-.066-.115-.479-.165-.511.989-.165a13.083,13.083,0,0,1,.627,2.606l-1.1.165-.049-.511-1.716.148a13.883,13.883,0,0,0-1.83.083l-.182-1.237h.429a18.581,18.581,0,0,0,1.765-1.683l.181-.181-.99.033-1.071.033-.182-1.188.445.017a16.115,16.115,0,0,0,1.683-2.886c.032-.088.082-.2.148-.347Zm-2.639,14.712-.775-1.3a6.679,6.679,0,0,0,2-.7,2.134,2.134,0,0,0,.989-1.327h-2.572v-3.5h1.32V620.9h1.319v-2.474h1.369v2.59a4.528,4.528,0,0,1-.85,3.034A5.56,5.56,0,0,1,3279.23,625.546Zm7.192-14.712a16.544,16.544,0,0,1-1.633,2.9h.776l.593-.033.446-.693.362-.709,1.171.594a16.433,16.433,0,0,1-3.051,3.793l.874-.033.924-.066-.132-.478-.148-.511.989-.165a11.688,11.688,0,0,1,.627,2.705l-1.122.181-.049-.627-1.765.149-1.847.1-.2-1.254h.364c.121-.121.219-.214.3-.28a12.735,12.735,0,0,0,1.55-1.616l-1.187.032-1.071.033-.2-1.187.462.016c.143-.208.258-.373.347-.495a12.941,12.941,0,0,0,1.138-2.177c.065-.142.153-.329.263-.56Zm-1.3,7.587v2.87h1.336v-2.573h1.319v3.892h-2.655v2.953h-1.369v-7.142Z" fill="#fff"/>
          <path id="Path_592" data-name="Path 592" d="M3295.048,623.963h-2.672v1.451h-1.386v-6.878a1.494,1.494,0,0,0-.115.215q-.182.347-.248.445l-.412.643-.693-1.847a15.781,15.781,0,0,0,2.21-5.509h-2v-1.435h5.625v1.435h-2.128c-.043.22-.077.4-.1.545a14.014,14.014,0,0,1-.841,2.9h2.755Zm-1.369-6.664h-1.3v5.295h1.3Zm5.954,6.054a11.442,11.442,0,0,1-3.975,2.177l-.973-1.27a17.093,17.093,0,0,0,3.909-1.881Zm-3.579-9.9h2.853l.231-.61.165-.594h-3.364v-1.319h8.774v1.319H3300.8l-.165.644q-.082.264-.165.461l-.049.1h3.611v8.725h-7.982Zm6.514,1.27h-5.046v1.139h5.046Zm-5.046,3.612h5.046v-1.269h-5.046Zm0,2.574h5.046v-1.369h-5.046Zm6.416,4.618-1.9-1.089q-.809-.445-2.013-1.022l.991-1.056a31.88,31.88,0,0,1,3.133,1.468c.143.077.329.176.561.3Z" fill="#fff"/>
          <path id="Path_593" data-name="Path 593" d="M3309.446,621.555l.726-.346.956-.512v1.551a30.985,30.985,0,0,1-4.9,2.177l-.2-1.633,1.121-.347a8.495,8.495,0,0,0,.841-.313v-6.02h-1.813v-1.4h1.813v-4.321h1.452v4.321h1.485v1.4h-1.485Zm11.282-3.447a3.3,3.3,0,0,1-.454,2.1,2.51,2.51,0,0,1-1.823.487h-.313a.486.486,0,0,1-.116-.016l-.462-1.567.941.066a.9.9,0,0,0,.6-.14.8.8,0,0,0,.14-.553l.1-3.513-2.342.858V622.1h-1.451v-5.723l-2.013.775v5.822q0,.478.182.594a.99.99,0,0,0,.528.115h4.5c.353,0,.572-.085.66-.255a9.138,9.138,0,0,0,.247-2.037l1.551.528a7.007,7.007,0,0,1-.684,2.779,2.086,2.086,0,0,1-1.592.453h-4.981a2.087,2.087,0,0,1-1.509-.429,2.448,2.448,0,0,1-.421-1.682V617.7l-1.27.462-.115-1.418,1.385-.512v-4.205h1.517v3.661l2.013-.759v-4.535H3317v3.991l3.81-1.435Z" fill="#fff"/>
          <path id="Path_594" data-name="Path 594" d="M3332.553,617.563v1.353h4.371v1.336h-4.371v1.072h3.876v1.336h-3.876v1.122h5.146v1.352h-12.453v-1.352h5.724V622.66h-3.761v-1.336h3.761v-1.072h-3.084c-.077.132-.138.242-.182.33a8.051,8.051,0,0,1-1.039,1.418,1.471,1.471,0,0,0-.115.132l-1.188-.89a9.46,9.46,0,0,0,1.913-3.283c.034-.1.077-.22.132-.363l1.386.462-.182.495-.131.363h2.49v-1.353h-5.542v1.831a12.489,12.489,0,0,1-1.6,6.086l-1.287-.94a10.874,10.874,0,0,0,1.32-5.459V616.31h13.607v1.253Zm-8.972-4.7v-1.27h5.888l-.215-.446-.346-.577,1.616-.181.379.61.314.594h5.922v1.27h-2.524q-.148.165-.231.264a5.028,5.028,0,0,1-.544.527l-.644.561,1.551.4,1.682.462-.676,1.22c-.144-.043-.264-.082-.363-.115q-1.105-.346-1.83-.544l-1.848-.495a13.659,13.659,0,0,1-5.789,1.138h-.33l-.512-1.188c.088,0,.195,0,.322.008s.294.009.5.009h.2a11.173,11.173,0,0,0,3.512-.479l-1.6-.329-1.98-.4.61-.94,2.524.412,2.276.429.2-.1a6.94,6.94,0,0,0,.99-.742,1.356,1.356,0,0,1,.115-.1Z" fill="#fff"/>
        </g>
      </g>
      <g id="Group_71" data-name="Group 71">
        <g id="Group_65" data-name="Group 65">
          <path id="Path_595" data-name="Path 595" d="M3142.281,617.47l2.239-3.429h8.6L3150,609.334h-7.763l-5.533,8.137,5.533,8.17H3150l3.119-4.706h-8.6Z" fill="#fff"/>
          <path id="Path_596" data-name="Path 596" d="M3148.964,617.47l-2.01-2.865-2.012,2.865,2.012,2.867Z" fill="#fff"/>
          <path id="Path_597" data-name="Path 597" d="M3135.827,609.334l-5.531,8.137,5.531,8.17h5.576l-5.531-8.17,5.531-8.137Z" fill="#fff"/>
          <path id="Path_598" data-name="Path 598" d="M3150.715,609.334l5.534,8.137-5.534,8.17h5.577l5.529-8.17-5.529-8.137Z" fill="#fff"/>
          <path id="Path_599" data-name="Path 599" d="M3147.754,614.605l2.01,2.865-2.01,2.867h2.864l2-2.874-2-2.859Z" fill="#fff"/>
        </g>
        <g id="Group_70" data-name="Group 70">
          <g id="Group_66" data-name="Group 66">
            <path id="Path_600" data-name="Path 600" d="M3192.034,617.364v-1.985h5.181v-.644h-5.181V612.87h6.234v-.645h-4.327c.15-.173.305-.348.456-.531.266-.3.863-1.08,1.21-1.442l-1.337-.9a17.224,17.224,0,0,0-.885,1.519,12.713,12.713,0,0,0-.789,1.349h-3.628l.873-.963a11.718,11.718,0,0,0-1.139-.986,6.646,6.646,0,0,0-1.227-.779l-.533.616c.268.341.552.7.858,1.049.22.265.583.693.874,1.063h-4.4v.645h6.239v1.865h-5.184v.644h5.184v1.985h-6.763v.645H3198.8v-.645Z" fill="#fff"/>
            <path id="Path_601" data-name="Path 601" d="M3192.314,621h5.954v-.65h-6.289L3192,618.4l-1.442-.013s-.01,1.066-.02,1.339a2.792,2.792,0,0,1-.108.622h-6.147V621h5.9c-.666,1.343-2.431,3.042-6.616,3.655v.91a10.772,10.772,0,0,0,7.583-3.524l.162-.267.006.01c2.49,3.432,7.487,3.781,7.487,3.781v-.91C3193.545,623.284,3192.484,621.4,3192.314,621Z" fill="#fff"/>
          </g>
          <g id="Group_67" data-name="Group 67">
            <path id="Path_602" data-name="Path 602" d="M3177.471,612.471c.246.292.508.595.789.9.235.262.5.565.779.908a1.826,1.826,0,0,1,.6-.322,3.081,3.081,0,0,1,.6-.324,13.776,13.776,0,0,0-1.146-.968,4.566,4.566,0,0,0-1.133-.716Z" fill="#fff"/>
            <path id="Path_603" data-name="Path 603" d="M3169.913,612.986h1.324v-1.161h3.48v.646h1.321v-.646h4.558v-.646h-4.558v-.393a2.306,2.306,0,0,1,.057-.515,1.888,1.888,0,0,1,.065-.514l-.122-.394a2.9,2.9,0,0,0-.543-.061h-.9l-.122.192c.084,0,.16.222.245.646v1.039h-3.48a5.092,5.092,0,0,1,.056-.776,4.358,4.358,0,0,1,.065-.778,1.951,1.951,0,0,0-.664-.262,1.131,1.131,0,0,0-.429-.081,1.432,1.432,0,0,0-.23.02h-.176l-.19.192c.048.222.087.474.122.777.039.263.087.554.122.908h-4.256v.646h4.256Z" fill="#fff"/>
            <path id="Path_604" data-name="Path 604" d="M3179.639,622.541c-.084.172-.161.364-.244.586-.074.172-.158.363-.234.575v.131c-.207-.081-.441-.433-.722-1.029a13.973,13.973,0,0,1-.478-1.423l1.678-3.743a.389.389,0,0,1,.177-.263l.18-.262a1.312,1.312,0,0,0-.779-.647c-.318-.081-.62-.17-.9-.251-.083.555-.179,1.12-.3,1.675-.161.565-.339,1.12-.547,1.685a16.934,16.934,0,0,1-.356-1.807,14.558,14.558,0,0,1-.122-1.816v-.9h3.247v-.646h-3.247a2.086,2.086,0,0,1,.069-.585,3.065,3.065,0,0,1,.053-.585v-.384l-1.077-.131-.478.131a2.741,2.741,0,0,0,.114.777c.046.253.082.514.12.777h-7.323v2.19h-1.078v-1.675a1.142,1.142,0,0,1,.065-.393,1.372,1.372,0,0,1,.057-.385.535.535,0,0,0-.6-.514,4.368,4.368,0,0,0-.479-.03,1.959,1.959,0,0,0-.365.03l-.234.131a5.424,5.424,0,0,1,.177,1.029c.039.435.057.818.057,1.161v1.292h2.4v1.807h-2.757v.646h.844a14.888,14.888,0,0,1-.3,1.493c-.17.423-.366.877-.6,1.351l.3.646a5.032,5.032,0,0,0,1.256-1.544,8.3,8.3,0,0,0,.543-1.946h.715c-.282,1.119-.535,2.068-.78,2.844a9.149,9.149,0,0,1-1.378,2.584l.235.2.366.313c.081-.105.163-.209.241-.313a10.532,10.532,0,0,0,2.215-4.663,32.589,32.589,0,0,0,.3-5.61h6.005c.046,1.07.12,2.13.242,3.159.16,1.079.356,2.13.6,3.168a17.211,17.211,0,0,1-1.078,1.5v-.592h-1.566V620.6h1.566v-2.451h-1.566v-1.161h1.442v-.777h-5.045v7.366h1.323v-.646h3.8c-.1.13-.212.259-.319.384a14.109,14.109,0,0,1-1.679,1.543l.322.465.043.061c.034-.02.069-.042.1-.061a12.833,12.833,0,0,0,1.576-1.1,12.65,12.65,0,0,0,1.555-1.423,10.258,10.258,0,0,0,.968,1.544,2.654,2.654,0,0,0,1.111.979,1.22,1.22,0,0,0,.2.061,1.128,1.128,0,0,0,.178-.061,1.828,1.828,0,0,0,.789-.788c.234-.514.44-.918.6-1.22Zm-8.047-5.549h1.079v1.161h-1.079Zm0,1.806h2.524v1.16h-2.524Zm1.079,3.491h-1.079V620.6h1.079Z" fill="#fff"/>
          </g>
          <g id="Group_68" data-name="Group 68">
            <path id="Path_605" data-name="Path 605" d="M3216.24,624.065h-7.8a6.163,6.163,0,0,1-1.924-.323,4.541,4.541,0,0,1-1.677-.838,16.833,16.833,0,0,0,.9-3.229,28.522,28.522,0,0,0,.421-3.36h-2.156c.356-.857.741-1.726,1.136-2.583.365-.909.741-1.766,1.144-2.584a1.563,1.563,0,0,0-.066-.515c-.038-.09-.14-.13-.3-.13h-4.078v.645h3.244l-2.644,5.813h2.522c-.084.857-.16,1.726-.243,2.583a25.5,25.5,0,0,1-.478,2.584c-.236-.646-.441-1.272-.6-1.877a15.545,15.545,0,0,1-.237-1.868h-1.086a14.459,14.459,0,0,0,.421,2.321,7.983,7.983,0,0,0,.9,2.332c-.319.292-.64.595-.958.9a10.318,10.318,0,0,0-.966.909l.367.383a8.047,8.047,0,0,0,1.078-.776c.356-.253.72-.516,1.079-.767a10.933,10.933,0,0,0,1.677.767,6.26,6.26,0,0,0,1.8.393h8.647l.069-.454.053-.323Z" fill="#fff"/>
            <path id="Path_606" data-name="Path 606" d="M3210.367,612.177v1.938h-4.2v.646h4.2v2.069h-3.246v.645h3.246v1.686h-3.124v.636h3.124v1.816h-3.847v.646h3.847v1.423h1.321v-1.423h4.324v-.646h-4.324V619.8h3.479v-.636h-3.479v-1.686h3.479v-2.714h1.2v-.646h-1.2v-2.583h-3.479v-.384a2.7,2.7,0,0,1,.057-.585,2.181,2.181,0,0,1,.065-.575,1.756,1.756,0,0,0-.667-.262,2.656,2.656,0,0,0-.373-.03,1.155,1.155,0,0,0-.283.03h-.243l-.121.131a3.836,3.836,0,0,1,.186.776,6.339,6.339,0,0,1,.058.9h-3.124v.645Zm1.321,0h2.156v1.938h-2.156Zm0,2.584h2.156v2.069h-2.156Z" fill="#fff"/>
          </g>
          <g id="Group_69" data-name="Group 69">
            <path id="Path_607" data-name="Path 607" d="M3220.131,620.567v4.77h1.2v-.9h3.838V619.4h-5.036Zm1.2,2.506v-3.025h2.647v3.745h-2.647Z" fill="#fff"/>
            <rect id="Rectangle_34" data-name="Rectangle 34" width="6.356" height="0.776" transform="translate(3219.531 612.036)" fill="#fff"/>
            <rect id="Rectangle_35" data-name="Rectangle 35" width="5.036" height="0.645" transform="translate(3220.131 609.585)" fill="#fff"/>
            <path id="Path_608" data-name="Path 608" d="M3226.133,616.295a6.726,6.726,0,0,0,1.856-2.453,7.5,7.5,0,0,0,.543-2.966v-.646h1.68V614.1a1.246,1.246,0,0,0,.122.777c.074.171.28.293.6.383a14.275,14.275,0,0,0,2.279-.131c.563-.081.966-.685,1.2-1.807l-1.324-.646a7.79,7.79,0,0,0-.178.97,2.785,2.785,0,0,1-.421.968h-.712a1.684,1.684,0,0,1-.3-.262.865.865,0,0,1-.065-.252v-4.52h-4.078v3.349c-.244.565-.478,1.08-.723,1.554a4.768,4.768,0,0,1-1.079,1.161Z" fill="#fff"/>
            <path id="Path_609" data-name="Path 609" d="M3232.734,623.469a18.421,18.421,0,0,1-1.678-1.362c.478-.767.938-1.595,1.378-2.452a19.468,19.468,0,0,0,1.024-2.714h-7.8v.646h6.125c-.208.646-.4,1.271-.6,1.876a8.46,8.46,0,0,1-.966,1.746,5.944,5.944,0,0,1-.9-1.292,11.845,11.845,0,0,1-.535-1.423l-.188-.261-.179-.122a.942.942,0,0,0-.183-.019,1.2,1.2,0,0,0-.538.141.512.512,0,0,0-.355.523,4.932,4.932,0,0,0,.841,1.615c.517.727.921,1.313,1.2,1.736a13.493,13.493,0,0,1-1.923,1.423c-.647.393-1.284.777-1.922,1.161l.356.524a15.563,15.563,0,0,0,2.222-.969,16.366,16.366,0,0,0,2.1-1.362c.563.434,1.164.858,1.8,1.292a13.3,13.3,0,0,0,1.923,1.039l.6-.646C3233.9,624.215,3233.3,623.853,3232.734,623.469Z" fill="#fff"/>
            <rect id="Rectangle_36" data-name="Rectangle 36" width="5.036" height="0.646" transform="translate(3220.131 616.941)" fill="#fff"/>
            <rect id="Rectangle_37" data-name="Rectangle 37" width="5.036" height="0.777" transform="translate(3220.131 614.619)" fill="#fff"/>
          </g>
        </g>
      </g>
    </g>
    <g id="Group_89" data-name="Group 89" transform="translate(-3045.919 -0.053)">
      <path id="Path_649" data-name="Path 649" d="M3089.531,563.232c0-7.6,3.477-11.72,8.178-11.72,4.861,0,7.791,4.186,7.791,11.4,0,7.7-3.026,11.977-8.113,11.945C3092.848,574.822,3089.531,570.7,3089.531,563.232Zm12.621-.194c0-5.569-1.417-9.691-4.636-9.691-2.737,0-4.637,3.735-4.637,9.917,0,5.892,1.771,9.755,4.6,9.755C3100.671,573.019,3102.152,568.834,3102.152,563.038Z" fill="#fff"/>
      <path id="Path_650" data-name="Path 650" d="M3116.61,575.048c-5.666,0-7.887-4.669-7.887-10.4,0-8.049,4.8-12.492,13.329-13.3l.225,1.514c-6.665.837-10.625,4.668-10.592,10.463l.161.032a6.072,6.072,0,0,1,5.6-3.67c4.282.032,6.825,3.51,6.825,7.341C3124.273,571.216,3122.181,575.048,3116.61,575.048Zm.129-13.362c-2.382,0-4.539,2.222-4.539,5.538,0,3.767,1.835,5.988,4.539,5.988,2.48,0,4.186-2.06,4.186-5.891C3120.925,563.3,3119.122,561.686,3116.739,561.686Z" fill="#fff"/>
      <path id="Path_651" data-name="Path 651" d="M3136.06,564.777v2.447h-8.4v-2.447Z" fill="#fff"/>
      <path id="Path_652" data-name="Path 652" d="M3153.641,558.016c0,4.218-3.027,7.276-8.307,12.138l-2.125,1.964v.193h10.947v2.125H3139.12V572.73l2.544-2.222c5.409-4.733,8.629-8.725,8.629-12.138,0-2.157-1.256-5.055-4.7-5.055a9.031,9.031,0,0,0-5.731,2.383v-2.64a14.768,14.768,0,0,1,6.279-1.61C3151.1,551.448,3153.641,554.925,3153.641,558.016Z" fill="#fff"/>
      <path id="Path_653" data-name="Path 653" d="M3169.517,563.682l-.162-.064a5.576,5.576,0,0,1-4.764,2.833,6.776,6.776,0,0,1-6.986-6.954,7.879,7.879,0,0,1,7.919-8.049c4.7,0,7.373,3.477,7.373,9.24,0,8.951-4.893,13.329-13.264,14.134l-.29-1.481C3166.136,572.15,3168.938,568.448,3169.517,563.682Zm-.129-2.446a5.8,5.8,0,0,0,.258-1.61c0-3.188-1.095-6.343-4.347-6.343-2.769,0-4.347,2.833-4.347,6.021,0,2.8,1.707,4.829,4.379,4.829A4.162,4.162,0,0,0,3169.388,561.236Z" fill="#fff"/>
      <path id="Path_654" data-name="Path 654" d="M3188.355,563.682l-.162-.064a5.576,5.576,0,0,1-4.764,2.833,6.776,6.776,0,0,1-6.987-6.954,7.879,7.879,0,0,1,7.92-8.049c4.7,0,7.373,3.477,7.373,9.24,0,8.951-4.893,13.329-13.264,14.134l-.29-1.481C3184.974,572.15,3187.775,568.448,3188.355,563.682Zm-.129-2.446a5.809,5.809,0,0,0,.257-1.61c0-3.188-1.094-6.343-4.346-6.343-2.769,0-4.347,2.833-4.347,6.021,0,2.8,1.707,4.829,4.379,4.829A4.163,4.163,0,0,0,3188.226,561.236Z" fill="#fff"/>
      <path id="Path_655" data-name="Path 655" d="M3203.683,564.777v2.447h-8.4v-2.447Z" fill="#fff"/>
      <path id="Path_656" data-name="Path 656" d="M3221.264,558.016c0,4.218-3.027,7.276-8.307,12.138l-2.125,1.964v.193h10.947v2.125h-15.036V572.73l2.544-2.222c5.409-4.733,8.629-8.725,8.629-12.138,0-2.157-1.256-5.055-4.7-5.055a9.031,9.031,0,0,0-5.731,2.383v-2.64a14.77,14.77,0,0,1,6.279-1.61C3218.721,551.448,3221.264,554.925,3221.264,558.016Z" fill="#fff"/>
      <path id="Path_657" data-name="Path 657" d="M3230.507,562.62v-.193c-2.575-1.191-4.249-2.962-4.249-5.248,0-3.542,3.219-5.828,7.308-5.828,4.475,0,6.826,2.866,6.826,5.667,0,2.672-1.546,4.024-4.379,5.377v.193c2.865,1.062,5.183,2.737,5.183,5.7,0,4.476-2.929,6.826-7.855,6.794-4.8-.032-7.889-2.415-7.889-6.407C3225.452,565.614,3227.706,563.843,3230.507,562.62Zm2.834,10.625a4.447,4.447,0,0,0,4.507-4.7c0-2.7-1.674-4.379-4.8-5.151a5.285,5.285,0,0,0-4.25,4.958A4.583,4.583,0,0,0,3233.341,573.245Zm3.9-15.9a3.878,3.878,0,0,0-3.9-4.153,3.968,3.968,0,0,0-3.928,4.088c-.032,2.254,1.513,3.671,4.153,4.379A4.8,4.8,0,0,0,3237.236,557.34Z" fill="#fff"/>
      <path id="Path_658" data-name="Path 658" d="M3249.6,562.62v-.193c-2.576-1.191-4.249-2.962-4.249-5.248,0-3.542,3.218-5.828,7.307-5.828,4.476,0,6.826,2.866,6.826,5.667,0,2.672-1.546,4.024-4.379,5.377v.193c2.866,1.062,5.184,2.737,5.184,5.7,0,4.476-2.93,6.826-7.856,6.794-4.8-.032-7.888-2.415-7.888-6.407C3244.547,565.614,3246.8,563.843,3249.6,562.62Zm2.833,10.625a4.447,4.447,0,0,0,4.507-4.7c0-2.7-1.673-4.379-4.8-5.151a5.284,5.284,0,0,0-4.25,4.958A4.583,4.583,0,0,0,3252.435,573.245Zm3.9-15.9a3.879,3.879,0,0,0-3.9-4.153,3.967,3.967,0,0,0-3.927,4.088c-.032,2.254,1.513,3.671,4.152,4.379A4.8,4.8,0,0,0,3256.331,557.34Z" fill="#fff"/>
      <path id="Path_659" data-name="Path 659" d="M3268.7,562.62v-.193c-2.575-1.191-4.249-2.962-4.249-5.248,0-3.542,3.219-5.828,7.309-5.828,4.474,0,6.825,2.866,6.825,5.667,0,2.672-1.546,4.024-4.379,5.377v.193c2.865,1.062,5.184,2.737,5.184,5.7,0,4.476-2.93,6.826-7.856,6.794-4.8-.032-7.888-2.415-7.888-6.407C3263.642,565.614,3265.9,563.843,3268.7,562.62Zm2.834,10.625a4.447,4.447,0,0,0,4.507-4.7c0-2.7-1.674-4.379-4.8-5.151a5.285,5.285,0,0,0-4.25,4.958A4.584,4.584,0,0,0,3271.53,573.245Zm3.9-15.9a3.879,3.879,0,0,0-3.9-4.153,3.967,3.967,0,0,0-3.927,4.088c-.033,2.254,1.512,3.671,4.153,4.379A4.8,4.8,0,0,0,3275.426,557.34Z" fill="#fff"/>
    </g>
  </g>
</svg>
