<?xml version="1.0" encoding="utf-8"?>
<!-- Generator: Adobe Illustrator 27.6.1, SVG Export Plug-In . SVG Version: 6.00 Build 0)  -->
<svg version="1.1" id="_圖層_2" xmlns="http://www.w3.org/2000/svg" xmlns:xlink="http://www.w3.org/1999/xlink" x="0px" y="0px"
	 viewBox="0 0 953 114.6" style="enable-background:new 0 0 953 114.6;" xml:space="preserve">
<style type="text/css">
	.st0{fill:#FFFFFF;}
	.st1{fill:none;stroke:#FFFFFF;stroke-width:2;stroke-miterlimit:10;}
</style>
<g>
	<g>
		<path class="st0" d="M35.5,9.1v9.7h13.6v35.5h-5.3v-4.6H12.7v4.9H7.4V18.8h12.4v-0.9V9.1H3.4V6.2h49.3v2.9H35.5z M43.9,47.1v-8.4
			h-7.3c-5.4,0-6.1-1.6-6.1-6.2V21.4H25c-0.2,8-1.8,16.6-10.1,22.4l-1.4-1.6c5.8-6.1,6.4-14.8,6.4-20.8h-7.2v25.7
			C12.7,47.1,43.9,47.1,43.9,47.1z M30.5,9.1H25v9.7h5.5V9.1z M35.5,21.4v9.3c0,2.5,0.6,3.3,3.3,3.3h5.1V21.4H35.5z"/>
		<path class="st0" d="M63.4,4h19.8v20.9H68.6v29.7h-5.2C63.4,54.6,63.4,4,63.4,4z M78.1,12.9V6.6h-9.6v6.3H78.1z M78.1,22.3v-6.9
			h-9.6v6.9H78.1z M92.5,48.1c8.3,2.4,10.4,2.1,10.4-1.7V24.8H88.4V4h19.7v43.8c0,7.1-6,9.4-16.3,2.4L92.5,48.1z M102.9,12.9V6.6
			h-9.5v6.3H102.9z M102.9,22.3v-6.9h-9.5v6.9H102.9z"/>
		<path class="st0" d="M169.5,48.2l-4.2,6.5c-5.5-2.5-17.7-13.4-20.6-33.5c-3,17.4-14,29.1-26.4,33.9l-1-1.9
			c10-5.7,18.9-15.1,21.6-33h-19.7V17h20.1c0.1-1.3,0.2-2.7,0.3-4.1c0.2-3.5,0.2-7.6,0.3-11.4l5.8,0.2c0,4.5-0.1,8.7-0.3,13.1
			l-0.2,2.2h21.6v3.2h-20.2C150.8,36.7,161.7,44.8,169.5,48.2z"/>
		<path class="st0" d="M226.6,47.3l-1.7,5.6c-6.1,0.4-15.8,0.6-22.8,0.3c-11.8-0.5-15-4.2-17.4-8.7c-1.9,4.1-4.1,7.7-6.6,10.7
			l-3.7-3.5c2.6-2,5.5-5.2,7.5-8v-13H175v-2.6h12.1v15.4c3.2,4.7,10.4,4.9,15.5,4.9C209.8,48.5,220,48.1,226.6,47.3z M183.2,24.2
			c-1.9-2.6-5.3-6.4-8-9.2l1.1-1.8c3.2,1.5,7.4,4.1,10.5,6.9L183.2,24.2z M177.2,3.5l1-1.7c3.2,1.3,7.5,3.7,10.5,6.4l-3.6,4.1
			C183,9.5,180.1,6.4,177.2,3.5z M204,13.2h-14.8v-2.5h10.6c-1.5-2.9-3.4-6-4.9-8.3l1.4-1.5c3,2,6.7,5.3,8.5,7.7l-2.8,2.1h8.5
			c1.1-2.7,2.2-6.4,2.8-9.7l5.7,1.7c-1.6,2.8-3.9,5.9-6,8h11.8v2.5h-15.2c-1.1,1.9-2.5,4-3.8,5.7h15.1v26.7h-5v-3h-16.7v3.2h-5v-27
			h8.9C203.4,17,203.8,14.9,204,13.2z M215.7,21.4H199v4.2h16.7V21.4z M215.7,28.1H199v4.6h16.7V28.1z M215.7,35.2H199v4.7h16.7
			V35.2z"/>
		<path class="st0" d="M260.5,34.1h20.2c-0.3,4.7-0.7,8.5-1.3,11c-1.7,8.1-7.5,7.6-15.1,1.9l0.9-1.9c7.4,2.5,8.1,1.9,8.9-0.6
			c0.5-1.7,1-4.9,1.1-7.9h-14.7v18.1h-5.2v-14c-5.3,5.4-15.1,10.4-22.8,12.3l-0.7-1.9c7.6-3,15.9-8.3,21-14.4H242
			c-0.5,1.5-0.9,2.9-1.3,4l-4.9-1.1c1.9-5.1,3.3-9.8,4.3-14.7l4.3,1.4h10.9v-5.4h-17.9v-2.6h39.8v10.5h-16.7V34.1z M234,19.1
			l-1.5-1.4c3.6-4,7.1-10.8,8.7-16.5l5.6,1.7c-0.5,1.1-1.3,2.7-2.4,4.4H259v2.6h-9c1.2,1.7,2.4,3.6,3.4,6l-4.6,1.3
			c-0.4-2.3-0.9-4.6-1.7-7.3h-4.5C240.2,13.2,237,16.9,234,19.1z M242.8,34.1h12.6v-5.3h-11.1L242.8,34.1z M282.3,7.2v2.6h-10.1
			c1.3,1.6,2.4,3.6,3.6,6l-4.6,1.3c-0.5-2.4-0.9-4.5-1.7-7.3h-4.8c-2.2,3-4.6,5.6-7.1,7.7l-1.5-1.4c3.4-4.1,6.1-10.2,7.5-14.8
			l5.3,1.6c-0.7,1.5-1.5,2.9-2.4,4.4L282.3,7.2L282.3,7.2z M260.5,26.2h11.7v-5.4h-11.7V26.2z"/>
		<path class="st0" d="M338.8,23.8v3.7H291v-3.7H338.8z"/>
		<path class="st0" d="M359.1,32.8v16.1c0,5-4.1,7.2-12.7,1.7l0.6-1.9c6,1.4,7.2,1.1,7.2-1.6v-12c-2.1,0.9-4.1,1.7-6,2.3l-1.9-5.6
			c2.5-0.5,5.2-1,7.9-1.5V17.6h-6.9V15h6.9V1.7h4.9V15h5.8v2.6h-5.8V29c2.1-0.6,4.1-1.2,5.8-1.9l0.8,1.9
			C363.8,30.3,361.5,31.6,359.1,32.8z M372.9,1.7h4.9v22c0,19-5.6,26.3-14.4,31.4l-1.1-1.7c4.6-3.7,8.3-8.1,9.8-17.5
			c-3,1.8-6.2,3.4-8.9,4.3l-1.9-5c3.6-0.3,7.6-1.1,11.2-2.1c0.2-2.2,0.4-4.7,0.5-7.5h-8.5V23h8.5v-9h-8.5v-2.6h8.5V1.7H372.9z
			 M397.9,36.5v2.6h-11.2v15.4h-4.9V1.6h4.9v10.2h10.1v2.6h-10.1v8.8h9.5v2.6h-9.5v10.8h11.2V36.5z"/>
		<path class="st0" d="M435,56.9h-4V-0.4h4V56.9z"/>
		<path class="st0" d="M486.9,40.3h13.8v2.6h-14.4c-0.1,0.4-0.3,0.8-0.5,1.1c4.5,1.5,10.3,3.6,14.1,6.1l-2.6,4.3
			c-3.3-2.6-8.3-5.9-12.4-8.5c-2.8,5-7.9,8-15.9,9.6l-0.7-1.9c7.7-2.8,11.2-5.2,12.8-10.8h-12v-2.6h12.5c0.2-1.2,0.3-2.5,0.4-4
			l5.4,0.3C487.2,37.9,487.1,39.2,486.9,40.3z M480,12.1h-10.8V9.5h9.6c-1.4-2.6-2.8-5.1-4.3-7.3l1.3-1.3c2.4,1.5,5,3.6,7.5,6.5
			l-2.8,2.1h6.7c1.2-2.6,2-4.9,2.9-8.3l5.4,1.9c-1.8,2.5-3.7,4.6-5.4,6.4h10.4v2.6h-10.3v4h7.7v19.2h-25.3V16.1h7.6L480,12.1z
			 M486.4,20.9v-2.5H484c-0.3,5.5-3.4,7.6-6.9,8.5V28h16.3v-2.6h-2.8C487.3,25.5,486.4,24.4,486.4,20.9z M477.1,18.5v6.4
			c2.5-1.5,3-3.1,3-6.4H477.1z M493.4,32.9v-2.5h-16.3v2.5H493.4z M486.5,12.1H484v4h2.5V12.1z M490.2,18.5v2.3
			c0,1.1,0.1,1.5,1.5,1.5h1.7v-3.8H490.2z M507,43.3l0.5-2c6,1.1,6.2-0.3,5.5-5.5c-0.4-3.1-1.1-6.5-5.2-13c1.7-4.5,2.9-10,3.7-15.4
			h-5.1v47.5h-4.9V3.7l4.2,1.1h5.3l1.4-0.9l4.6,2c-2.1,7.6-4,12-6.9,16.6c4.2,4.9,6.4,8.2,7.7,13.2C520.5,45.6,513.3,47.8,507,43.3z
			"/>
		<path class="st0" d="M576.5,29.4h-22.2v19.4c0,5.2-5.6,9.1-16.6,1l0.7-1.9c9.2,2.5,10.4,2.1,10.4-1.3V29.4h-22.7v-3.2h22.7V16.1
			l4.1,0.7c3.6-2.4,7.6-5.9,9.5-8.2h-30.9V5.8H563l2.1-1.3l5.7,4.4c-4.6,3.8-11.8,8-16.5,9.9v7.4h22.2V29.4z"/>
		<path class="st0" d="M611.5,39.6v10.6c0,4.8-4.9,7.3-13.4,1.1l0.7-1.8c6.8,1.7,7.7,1.5,7.7-1v-8.9H595V28.2
			c-3.3,2-7.1,3.8-11.5,5.3l-0.7-1.9c4.3-1.9,7.9-4,10.8-6.2c-1.3-1.9-2.9-4.1-4.2-5.5l1.2-1.6c1.9,0.9,4.3,2.4,6.5,4.2
			c1.7-1.7,3.3-3.4,4.6-5.3H592v-2.6h11.4c0.9-1.5,1.7-3.1,2.5-4.8H590v7.5h-5V7.2h24.8c-2.7-1.4-6.2-2.9-9-4l0.5-2
			c3.2,0.2,8.4,0.9,12.6,2.3l-1.7,3.7h19.9v10.1h-5V9.8h-19.9l4.1,1.4c-0.6,1.1-1.3,2.2-2.1,3.3h16.3v2.6h-12.1
			c1.7,2.2,3.8,4,6.3,5.5c1.3-1.7,2.5-3.5,3.3-5.3l4.4,2.9c-1.9,1.7-3.5,2.8-5.3,3.8c3.5,1.7,7.6,2.9,12.2,3.7l-2.6,5.4
			c-3.3-1-6.6-2.5-9.7-4.5v10.9L611.5,39.6L611.5,39.6z M602.8,43.6c-4.6,3.8-11.2,7.1-17.1,8.8l-0.9-1.9
			c5.7-2.6,10.3-6.1,13.6-10.1L602.8,43.6z M617.2,26.3h-17.4v3.9h17.4V26.3z M599.8,37.1h17.4v-4.3h-17.4V37.1z M601.2,23.7h14.6
			c-1.8-1.9-3.5-4.1-4.7-6.5h-3.8C605.6,19.5,603.5,21.7,601.2,23.7z M614.7,41.1c5.6,1.3,13.4,4.1,17.5,6.4l-3,5
			c-3.3-2.5-9.9-6.8-15.2-9.5L614.7,41.1z"/>
		<path class="st0" d="M690.7,23v3.2h-22.2V55H663V26.1h-21.7V23H663V10.6c-7,0.9-13.7,1.5-18.9,1.7l-0.4-2.1
			c13.1-1.6,27.7-5.1,35.5-8.7l5.6,5c-5,1.3-10.7,2.4-16.3,3.3V23H690.7z"/>
		<path class="st0" d="M717.4,35.3l0.6,1.9c-5.4,3.3-12,6.4-19,8.9l-1.6-5.7c1.8-0.2,4.5-0.7,7.7-1.5V20.1H698v-2.6h7.1V2h4.9v15.5
			h6.9v2.6H710v17.4C712.6,36.8,715,36.1,717.4,35.3z M748.4,30.8v2.6h-14.5V55h-5.2V33.3h-14.6v-2.6h14.6V8H716V5.5h30.5V8h-12.6
			v22.7L748.4,30.8L748.4,30.8z M726.6,25.6l-5,1.8c-1.3-5.1-2.8-10.6-4.5-15.1l1.9-0.9C721.6,15,724.6,20.1,726.6,25.6z
			 M735.3,26.8c2.2-4.8,4.2-10.9,5.1-16.1l5.4,2.2c-2.1,5-6.1,11.5-8.7,14.8L735.3,26.8z"/>
		<path class="st0" d="M773.9,34.6l0.9,1.9c-5.1,3.8-11.3,7.6-17.9,10.8l-2.3-5.6c1.8-0.4,4.6-1.3,7.7-2.4V20.1h-6.9v-2.6h6.9V4.6h5
			v12.9h7v2.6h-7v17.4C769.6,36.6,771.9,35.6,773.9,34.6z M799.4,53.2c-5,0.3-9.5,0.3-14.4,0c-6.4-0.5-8.9-2.2-8.9-8.1V25.2
			c-1.7,0.6-3.3,1.2-4.9,1.8l-0.9-2.4c1.9-0.7,3.8-1.4,5.7-2.1V7.8h4.9v12.7l5.8-2.2V3h4.7v13.4c2.1-0.9,4.2-1.7,6.2-2.5l0.9-1.4
			l5.6,1.4c-0.9,5.8-3.9,18.3-6.1,23l-2-0.5c1-4.8,2-16.7,2-19.9c-2.2,0.9-4.4,1.8-6.6,2.7v22.3h-4.7V21.1l-5.8,2.2v21.3
			c0,2.9,1.8,3.6,4.4,3.8c4.8,0.5,9,0.3,13.8,0c3-0.2,3.4-1.7,3.3-11.4l2-0.1C808.2,50.2,806.7,52.6,799.4,53.2z"/>
		<path class="st0" d="M812.7,48.4H835V28.8h-16.7v-2.9H835V8.6h-19.5V5.4h44.3v3.2h-19.3V26h17v2.9h-17v19.6h22.6v3.2h-50.3
			L812.7,48.4L812.7,48.4z"/>
	</g>
</g>
<g>
	<g>
		<path class="st0" d="M18.5,85.1v4.2h13.1v20.8c0,3.9-3.3,5.1-9.5,1.3l0.4-1.3c4.8,1.1,5.6,0.8,5.6-1.1V91.1H5.8v22.8H2.4V89.3H15
			v-4.2H0v-1.7h15v-5h3.6v5h15.2v1.7C33.8,85.1,18.5,85.1,18.5,85.1z M27,104.9h-8.5v7.7h-3.4v-7.7H7v-1.7h8.2v-3.8H7.5v-1.7h5
			c-0.8-1.9-1.9-3.9-3.1-5.5l1-0.9c1.9,1.3,3.7,3.1,5.2,5.1l-2,1.3H18c0.9-1.6,2-4.4,2.6-6.5l3.5,1.7c-1.5,2-3.1,3.6-4.3,4.8h6.6
			v1.7h-8v3.8H27V104.9z"/>
		<path class="st0" d="M69.9,86.4v27.2h-3.4v-3.9H43.9v4.2h-3.3V86.5h3.3V108h9.6V78.5H57V108h9.5V86.4H69.9z"/>
		<path class="st0" d="M109.3,94.2l-3.5,2.4c-0.8-1.5-1.7-3.2-2.8-5c-6.2,1.3-15.9,2.7-24,3.4l-1.1-4.2c1.8,0.1,3.5,0.1,5.3,0.1
			c2.9-3.7,5.6-8.8,7.2-12.8l4,1.9c-2.4,3.5-5.6,7.8-8.9,10.9c6.1,0,12.2-0.4,16.7-0.8c-1.2-1.9-2.6-3.9-4.1-5.9l1.1-1
			C102.9,86.3,107.6,91.4,109.3,94.2z M82,98.1h22.7v15.8h-3.6v-2.8H85.6v2.8H82V98.1z M85.6,109.3h15.5v-9.5H85.6V109.3z"/>
		<path class="st0" d="M133.4,85.1v4.2h13.1v20.8c0,3.9-3.3,5.1-9.5,1.3l0.4-1.3c4.8,1.1,5.6,0.8,5.6-1.1V91.1h-22.3v22.8h-3.4V89.3
			h12.6v-4.2h-15v-1.7h15v-5h3.6v5h15.2v1.7C148.7,85.1,133.4,85.1,133.4,85.1z M141.9,104.9h-8.5v7.7H130v-7.7h-8.2v-1.7h8.2v-3.8
			h-7.7v-1.7h5c-0.8-1.9-1.9-3.9-3.1-5.5l1-0.9c1.9,1.3,3.7,3.1,5.2,5.1l-2,1.3h4.4c0.9-1.6,2-4.4,2.6-6.5l3.5,1.7
			c-1.5,2-3.1,3.6-4.3,4.8h6.6v1.7h-8v3.8h8.5v1.7H141.9z"/>
		<path class="st0" d="M159.2,92.2c-0.2,12.2-2,17.5-5.6,21.8l-1.1-0.8c2.7-4.6,3.3-9.1,3.3-21.6v-9.1h15.9c-2-1.1-4.1-2.2-6-3.1
			l0.3-1.3c2.3,0.2,5.7,0.8,8.7,2l-1.2,2.5H186v1.7h-26.8V92.2z M167.5,107.9l3.5,1.8c-3.7,2.3-9.2,3.8-13.8,4.4l-0.4-1.3
			C161.2,111.7,164.6,110.3,167.5,107.9z M186.3,96.2h-26.5v-1.7h26.5V96.2z M168.2,85v2.3h8.1V85h3.2v2.3h5.7V89h-5.7v3.8H165V89
			h-5v-1.7h5.1V85H168.2z M161.4,107.7v-9.8h21.7v9.8H161.4z M164.7,101.9h6v-2.3h-6V101.9z M164.7,106.1h6v-2.5h-6V106.1z
			 M168.2,89v2.2h8.1V89H168.2z M173.9,101.9h6v-2.3h-6V101.9z M173.9,106.1h6v-2.5h-6V106.1z M186.8,111.3l-1.6,3.3
			c-2.8-1.6-7.1-3.5-10.9-5l0.3-1.3C178.6,108.8,182.8,109.7,186.8,111.3z"/>
		<path class="st0" d="M203.9,98.9c-3.5,2.7-7.3,5.1-11.6,7l-1.6-3.6c1.5-0.3,3.4-0.9,5.2-1.5V89.3h-4.6v-1.7h4.6v-9h3.3v9h4.4v1.7
			h-4.4v10.1c1.5-0.6,2.8-1.2,4-1.8L203.9,98.9z M210.9,95.5c-0.5,1-1.1,2-2,2.9h15.2c0,3.4-0.2,9-1,12.6c-0.7,3.4-4.1,4.7-9.6,0.5
			l0.5-1.3c4.4,1.5,5.4,1,5.7-0.3s0.8-5.2,0.9-9.8h-2c-2.3,6.9-8.8,11.4-14.6,13.4l-0.7-1.2c4.4-2.1,10-6.3,11.9-12.2h-2.3
			c-2.4,4.8-7.5,8.2-12.3,10l-0.6-1.3c3.7-1.8,7.8-5.3,9.5-8.8H207c-2,2.1-4.6,3.9-7.1,5.2l-0.7-1.2c3.3-2,6.2-5.4,7.7-8.6h-5.7
			v-1.7h23.6v1.7h-13.9V95.5z M221.7,91.4h-16.6V80.1h16.6V91.4z M208.3,81.9v3h10.1v-3H208.3z M218.5,89.7v-3.1h-10.1v3.1H218.5z"
			/>
		<path class="st0" d="M245,99.2c0,1-0.2,2-0.4,2.9h13.7c-0.2,3.8-0.5,6.8-1.2,9.2c-1.1,3.8-6.2,3.3-10.5,0l0.5-1.3
			c5.6,1.6,6.2,1.1,6.7-0.7c0.3-1.2,0.6-2.9,0.8-5.6h-10.4c-2.1,6.3-7.5,9.4-13.8,10.7l-0.4-1.3c8.7-2.8,10.7-8,11.2-13.9h-10.6
			v-1.7h16c-1.5-1.5-3.3-3.4-4.8-4.7l0.6-0.9h-7.8v4.5h-3.3v-6.2h9.8c-1-1.9-2.2-3.8-3.1-5.1l0.6-0.6h-7.4v-1.7h15.4
			c-1.8-1.4-3.6-2.6-5.5-3.8l0.5-1.3c2.3,0.5,5.1,1.4,8,3l-1.4,2.1h13.9v1.7H253l3,1.2c-1.1,1.5-2.9,3.2-4.3,4.4h9.9v6.2h-3.3v-4.5
			h-15c2.2,0.9,4.7,2.5,6.3,3.6l-1.6,2h14.4v1.7H245V99.2z M244.5,88.8l-1.9,1.4h7c0.8-1.5,1.8-3.8,2.3-5.6h-12.4
			C241.1,85.5,243,87,244.5,88.8z"/>
		<path class="st0" d="M305.5,94.1c-0.8,4.6-2.6,13.4-3.9,17.3l-3.6-1.8c2.2-4,4.7-11.3,6.2-16L305.5,94.1z M304.2,88.7
			c-1.1-2-3.4-5.4-5.1-7.5l0.9-1.1c2.4,1.5,5.4,4.1,7,5.9L304.2,88.7z M329.8,114.2c-4.4-0.9-8-2.2-10.9-4.7
			c-3.6,2.5-8.2,3.9-14.1,4.7l-0.3-1.3c5.4-1.1,9.6-2.8,12.7-5.2c-1.2-1.4-2.3-3.1-3.2-5.2c-1.8,2.3-4.1,4.3-6.8,6l-0.8-1
			c3.9-3.1,6.7-7.2,8-12l3,1c-0.4,1-0.8,1.9-1.3,2.8h6.2l0.5-0.5l3.3,1.4c-1.2,3.1-2.9,5.6-5,7.6c3,1.6,6.5,2.3,10.8,2.6
			L329.8,114.2z M312.5,90.2H307v-1.7h9.2v-3.8h-7V83h7v-4.4h3.4V83h7.7v1.7h-7.7v3.8h10.2v1.7h-7.3v2c0,1.8,0.8,2,3.2,1.9
			c2.5,0,3.2-0.4,3.8-1l1.3,2.4c-0.9,0.7-1.8,1.2-5,1.2c-4.8,0-6.4-0.3-6.4-4.1v-2.5h-3.5c-0.7,4.1-3.6,8-9.5,9.6l-0.6-1.3
			C310.8,96.3,312,93.6,312.5,90.2z M314.7,101.4c1.1,2,2.5,3.6,4,4.8c1.5-1.5,2.6-3.3,3.3-5.2h-7
			C314.9,101.2,314.8,101.3,314.7,101.4z"/>
		<path class="st0" d="M354.8,110.3h14.4v2.1H337v-2.1h14.2V102h-10.4v-1.9h24.4v1.9h-10.5L354.8,110.3L354.8,110.3z M340.7,91.7
			h-3.4V84h16.2c-1.8-1.5-4.4-3.5-6.3-4.8l0.5-1.3c2.5,0.6,6.6,1.9,8.8,3.2l-1.8,2.9h13.9v7.5h-3.4v-5.7h-6.7V92c0,1.4,0.4,2,3.6,2
			c2.8,0,3.8,0.1,5.2-1.3l1.9,2.6c-1.3,1.7-3.5,1.8-8.1,1.8c-5.3,0-5.9-1.1-5.9-4.1v-7.3h-4.6v1.8C350.5,94,345,98.3,338,99.7
			l-0.5-1.3c5.3-1.8,9.5-5.2,9.6-11.1v-1.6h-6.5v6H340.7z"/>
		<path class="st0" d="M379.6,95.1c-2.1-2.5-3.9-4.7-5.6-6.4l0.8-1.1c2.1,1,4.8,2.6,7.3,4.5L379.6,95.1z M382.3,96.6
			c-0.7,4.7-1.9,11.8-3,15.7l-3.9-1.6c2.1-4.1,3.9-9.5,5.6-14.5L382.3,96.6z M381.5,85.6c-1.8-2.5-3.7-4.6-5.4-6.4l0.8-1.1
			c1.9,0.8,4.6,2.4,7.2,4.7L381.5,85.6z M392.3,93.9c-1.3,8.5-5.8,14.7-10.6,17.9l-0.9-1c4.1-4.1,6.6-9.1,7.7-15.7h-5.7v-1.7h5.5
			l0.7-0.7L392.3,93.9z M409,106.5l-2.9,3.9c-2.6-2.2-6.5-6.5-8.8-17.2v16.5c0,3.9-3.1,6.1-10.1,1.7l0.4-1.3
			c5.6,1.3,6.2,0.7,6.2-1.5V88h-8.3v-1.7h11.8V88c0.5,2.5,1.2,4.7,1.9,6.5c1.9-2,3.5-4.3,4.8-6.8l3.4,2.6c-3.1,2.8-5.2,4.3-7.6,5.6
			C402.6,102.3,406.4,104.8,409,106.5z M399.6,85.2c-2.9-2-7.1-4-10.9-5.7l0.3-1.3c4.4,0.7,9.4,2.1,12.4,3.6L399.6,85.2z"/>
		<path class="st0" d="M417.7,94.9c-1.4-2.1-4-5.3-5.5-6.9l0.8-1.1c2.3,1.1,5.2,3.1,7.4,5.1L417.7,94.9z M420.1,96.4l1.3,0.5
			c-1.2,5.4-2.8,11.7-4.2,15.2l-3.8-2.1C415.5,106.5,418.1,101.2,420.1,96.4z M414.1,79.7l0.7-1.2c2.2,0.9,5.9,2.9,7.8,4.6l-2.5,3.1
			C418.5,84.2,415.8,81.2,414.1,79.7z M442.4,112.6c-3.3,0.2-7.5,0.2-10.8,0c-5.3-0.3-6.9-1-6.9-5.9V94.5c-1,0.3-1.9,0.7-2.9,1
			l-0.7-1.6c1.1-0.4,2.4-0.9,3.6-1.4v-11h3.6v9.6c1.5-0.6,2.9-1.2,4.4-1.8V78.5h3.4v9.6l4.2-1.7l0.7-0.8l3.7,1
			c-0.7,7.1-2.6,13.1-4.1,17l-1.3-0.4c0.7-3.7,1.2-9.3,1.3-14.9c-1.5,0.6-3,1.2-4.5,1.8v16h-3.4V91.4c-1.5,0.6-2.9,1.2-4.4,1.8v13.4
			c0,2,0.7,2.5,3,2.6c3.4,0.2,6.9,0.2,10.3-0.1c2.2-0.2,2.3-1,2.4-7.2h1.4C447.3,109.1,447.6,112.3,442.4,112.6z"/>
		<path class="st0" d="M479.8,89.1c0,5.5-4,9.5-10.9,15.9l-2.8,2.6v0.3h14.3v2.8h-19.7v-2.2l3.3-2.9c7.1-6.2,11.3-11.4,11.3-15.9
			c0-2.8-1.6-6.6-6.2-6.6c-3,0-5.6,1.5-7.5,3.1v-3.5c1.9-0.9,4.9-2.1,8.2-2.1C476.5,80.5,479.8,85.1,479.8,89.1z"/>
		<path class="st0" d="M487.7,97.3c1.8-4.8,4.8-5.4,7-5.4c4.8,0,7,6,10.4,6c2.1,0,3.2-0.3,4.1-3.7l2.1,0.2c-0.9,5.6-4.5,6-6.7,6
			c-5.6,0-7.2-6.1-11-6.1c-1.7,0-3.2,1.3-3.9,3.5L487.7,97.3z"/>
		<path class="st0" d="M523.9,95.9c-0.5,0-1.2,0-1.9,0.1v-2.9c4.7-0.3,7.7-3.1,8-6c0.3-2.7-1.7-4.1-4.9-4.1s-5.3,1.3-7,2.7v-3.5
			c1-0.5,3.6-1.6,7.7-1.6c6.6,0,8.8,4.2,8.5,6.8c-0.4,3.5-3.9,5.6-6.7,6.6v0.3c3.8,0.3,7.8,2.9,8,7c0.3,3.9-2.3,9.1-9.5,9.9
			c-2.7,0.3-5.9,0.1-8.5-0.7l-0.3-1.9c2.9,0.5,6,0.5,7.8,0.3c5.6-1,6.3-5.5,6.1-7.2C531.4,97.9,527.4,95.8,523.9,95.9z"/>
		<path class="st0" d="M558.7,91.5c-0.2,13.9-3.3,18.5-6.8,22.3l-1.1-0.9c2.7-3.9,4.3-8.2,4.3-20V80.8l3.3,0.8
			c6.4-0.2,15.2-1.6,20.2-3.5l3.5,3.2c-6.9,1.4-16.8,1.9-23.5,1.7v1.8h23.7v6.8h-23.6V91.5z M569.1,98.4c0,1.1-0.2,2.3-0.4,3.4h12.6
			c-0.2,4.6-0.6,7.7-1.1,9.3c-0.9,3-3.7,4.2-9.7,0.3l0.5-1.3c5.5,1.6,5.9,0.8,6.2-1.3c0.3-1.6,0.5-3.4,0.5-5.3h-9.5
			c-1.3,4.6-4.6,8.8-11.5,10.7l-0.6-1.2c7.7-3.4,9.1-8.5,9.5-14.7h-6.1v-1.7h13.9c-2.1-1.3-4.4-2.5-6.4-3.4l0.3-1.3
			c2,0.2,5.7,0.7,8.3,1.7l-1.4,3h10.5v1.7h-15.6V98.4z M558.7,86.5v3.4h20.4v-3.4H558.7z"/>
		<path class="st0" d="M619.4,95.9c0-9.9,4.5-15.3,10.7-15.3c6.4,0,10.2,5.5,10.2,14.9c0,10.1-4,15.7-10.6,15.6
			C623.7,111.1,619.4,105.7,619.4,95.9z M635.9,95.7c0-7.3-1.9-12.7-6.1-12.7c-3.6,0-6.1,4.9-6.1,13c0,7.7,2.3,12.8,6,12.8
			C634,108.8,635.9,103.3,635.9,95.7z"/>
		<path class="st0" d="M654.8,111.4c-7.4,0-10.3-6.1-10.3-13.6c0-10.5,6.3-16.3,17.4-17.4l0.3,2c-8.7,1.1-13.9,6.1-13.9,13.7h0.2
			c1-2.3,3.5-4.8,7.3-4.8c5.6,0,8.9,4.6,8.9,9.6C664.9,106.4,662.1,111.4,654.8,111.4z M655,93.9c-3.1,0-5.9,2.9-5.9,7.2
			c0,4.9,2.4,7.8,5.9,7.8c3.2,0,5.5-2.7,5.5-7.7C660.5,96,658.1,93.9,655,93.9z"/>
		<path class="st0" d="M680.3,98v3.2h-11V98H680.3z"/>
		<path class="st0" d="M703.3,89.1c0,5.5-4,9.5-10.9,15.9l-2.8,2.6v0.3H704v2.8h-19.7v-2.2l3.3-2.9c7.1-6.2,11.3-11.4,11.3-15.9
			c0-2.8-1.6-6.6-6.2-6.6c-3,0-5.6,1.5-7.5,3.1v-3.5c1.9-0.9,4.9-2.1,8.2-2.1C700,80.5,703.3,85.1,703.3,89.1z"/>
		<path class="st0" d="M724.1,96.5l-0.2-0.1c-0.8,1.5-3,3.7-6.2,3.7c-5.4,0-9.1-4-9.1-9.1c0-5.6,4.2-10.5,10.4-10.5
			s9.6,4.6,9.6,12.1c0,11.7-6.4,17.4-17.4,18.5l-0.4-1.9C719.6,107.6,723.3,102.8,724.1,96.5z M723.9,93.3c0.2-0.4,0.3-1.5,0.3-2.1
			c0-4.2-1.4-8.3-5.7-8.3c-3.6,0-5.7,3.7-5.7,7.9c0,3.7,2.2,6.3,5.7,6.3C721.1,97.1,722.8,95.9,723.9,93.3z"/>
		<path class="st0" d="M748.7,96.5l-0.2-0.1c-0.8,1.5-3,3.7-6.2,3.7c-5.4,0-9.1-4-9.1-9.1c0-5.6,4.2-10.5,10.4-10.5
			s9.6,4.6,9.6,12.1c0,11.7-6.4,17.4-17.4,18.5l-0.4-1.9C744.3,107.6,748,102.8,748.7,96.5z M748.5,93.3c0.2-0.4,0.3-1.5,0.3-2.1
			c0-4.2-1.4-8.3-5.7-8.3c-3.6,0-5.7,3.7-5.7,7.9c0,3.7,2.2,6.3,5.7,6.3C745.8,97.1,747.4,95.9,748.5,93.3z"/>
		<path class="st0" d="M768.8,98v3.2h-11V98H768.8z"/>
		<path class="st0" d="M791.8,89.1c0,5.5-4,9.5-10.9,15.9l-2.8,2.6v0.3h14.3v2.8h-19.7v-2.2l3.3-2.9c7.1-6.2,11.3-11.4,11.3-15.9
			c0-2.8-1.6-6.6-6.2-6.6c-3,0-5.6,1.5-7.5,3.1v-3.5c1.9-0.9,4.9-2.1,8.2-2.1C788.4,80.5,791.8,85.1,791.8,89.1z"/>
		<path class="st0" d="M803.9,95.1v-0.3c-3.4-1.6-5.6-3.9-5.6-6.9c0-4.6,4.2-7.6,9.6-7.6c5.9,0,8.9,3.7,8.9,7.4c0,3.5-2,5.3-5.7,7
			V95c3.8,1.4,6.8,3.6,6.8,7.5c0,5.9-3.8,8.9-10.3,8.9c-6.3,0-10.3-3.2-10.3-8.4C797.2,99.1,800.2,96.7,803.9,95.1z M807.6,109
			c3.7,0,5.9-2.8,5.9-6.2c0-3.5-2.2-5.7-6.3-6.7c-3.5,0.9-5.6,3.7-5.6,6.5C801.5,105.7,803.7,109,807.6,109z M812.7,88.2
			c0-2.4-1.4-5.4-5.1-5.4c-3.3,0-5.1,2.8-5.1,5.4c0,2.9,2,4.8,5.4,5.7C810.5,93,812.7,90.9,812.7,88.2z"/>
		<path class="st0" d="M828.8,95.1v-0.3c-3.4-1.6-5.6-3.9-5.6-6.9c0-4.6,4.2-7.6,9.6-7.6c5.9,0,8.9,3.7,8.9,7.4c0,3.5-2,5.3-5.7,7
			V95c3.8,1.4,6.8,3.6,6.8,7.5c0,5.9-3.8,8.9-10.3,8.9c-6.3,0-10.3-3.2-10.3-8.4C822.2,99.1,825.2,96.7,828.8,95.1z M832.6,109
			c3.7,0,5.9-2.8,5.9-6.2c0-3.5-2.2-5.7-6.3-6.7c-3.5,0.9-5.6,3.7-5.6,6.5C826.4,105.7,828.7,109,832.6,109z M837.7,88.2
			c0-2.4-1.4-5.4-5.1-5.4c-3.3,0-5.1,2.8-5.1,5.4c0,2.9,2,4.8,5.4,5.7C835.5,93,837.7,90.9,837.7,88.2z"/>
		<path class="st0" d="M853.8,95.1v-0.3c-3.4-1.6-5.6-3.9-5.6-6.9c0-4.6,4.2-7.6,9.6-7.6c5.9,0,8.9,3.7,8.9,7.4c0,3.5-2,5.3-5.7,7
			V95c3.8,1.4,6.8,3.6,6.8,7.5c0,5.9-3.8,8.9-10.3,8.9c-6.3,0-10.3-3.2-10.3-8.4C847.2,99.1,850.2,96.7,853.8,95.1z M857.5,109
			c3.7,0,5.9-2.8,5.9-6.2c0-3.5-2.2-5.7-6.3-6.7c-3.5,0.9-5.6,3.7-5.6,6.5C851.4,105.7,853.7,109,857.5,109z M862.6,88.2
			c0-2.4-1.4-5.4-5.1-5.4c-3.3,0-5.1,2.8-5.1,5.4c0,2.9,2,4.8,5.4,5.7C860.5,93,862.6,90.9,862.6,88.2z"/>
	</g>
	<circle class="st0" cx="281" cy="96.5" r="3"/>
	<circle class="st0" cx="601.5" cy="96.5" r="3"/>
</g>
<line class="st1" x1="921" y1="3" x2="921" y2="113"/>
</svg>
