<svg xmlns="http://www.w3.org/2000/svg" viewBox="0 0 697.39 192.51"><defs><style>.cls-1{fill:#fff;}</style></defs><g id="圖層_2" data-name="圖層 2"><g id="圖文"><path class="cls-1" d="M293,168.64,279.2,187.85c-25.48-6.06-66.54-44.29-74.63-96.87h-5a110.24,110.24,0,0,1-22.65,26.3v47.11a370.51,370.51,0,0,0,40.65-8.49l2.42,6.47c-18.2,8.7-56.42,21.84-86.55,27.31l-5.87-20.23c10.72-.61,21.44-1.42,32-2.63v-36.6a228,228,0,0,1-47.12,23.66l-3-6.27c30.54-14.76,51.37-33.17,68.56-56.63H116.6v-9.1h74V62.67H132.17v-9.1h58.45V34.36H122.67V25.25h68V3.82h17.8V25.25h68.35v9.11H208.42V53.57h60.47v9.1H208.42V81.88h75.84V91h-71.8a110,110,0,0,0,18.61,35.8A199.22,199.22,0,0,0,258,97.46l16.18,12.94a264.91,264.91,0,0,1-37.41,23C250.89,149,270.1,161,293,168.64Z"/><path class="cls-1" d="M495,117.88l-9.71,20.63C456.14,130,423.38,112.42,405,78.24c-20.22,28.72-52.58,46.92-92,57.84l-2.63-6.88c28.12-9.9,51.37-23.86,68.36-43.88l-1.21-3.24c-16.38,6.47-39,13.55-53.39,14.77l-3.64-16.59a171.77,171.77,0,0,0,17.39-.4c4.45-8.5,7.48-17.6,9.91-28.72l17.59,5.06c-3.84,7.28-10.51,15.57-17,22.65,9.3-1,18.6-2.43,26.29-3.64A83.73,83.73,0,0,0,369,63.88l5.26-4a93.75,93.75,0,0,1,13.15,13.75A121.83,121.83,0,0,0,397.9,54l17.19,7.08c-1.82,3.64-3.65,7.28-5.67,10.52a43,43,0,0,0,4.86,6.88c2,0,4-.21,6.06-.21a156.59,156.59,0,0,0,8.09-32.36l17.19,5.26a147.55,147.55,0,0,1-16.18,26.5A246.4,246.4,0,0,0,462,73c-2.22-4.65-4.85-8.9-7.27-12.94l5.45-4.25c8.7,7.28,19.42,18.2,25.89,28.92L470.5,93c-1.42-4.45-3.24-8.89-5.06-13.14a199.86,199.86,0,0,1-38.63,10.72C450.48,109,482.83,115.66,495,117.88ZM453.92,137.7l15.77,11.73c-28.92,24.67-81.71,40-135.1,43.08l-1.82-7.08C384.55,179,429.65,160.55,453.92,137.7ZM335.81,31.32c8.49.61,17.19,1,25.88,1.21A138.81,138.81,0,0,0,384.34,1.19l20.43,8.09c-6.87,7.48-17.8,16.18-29.32,23.46,23.66.2,46.51-.81,64.51-2.43a161.34,161.34,0,0,0-13.15-13.14l3.85-5.47A134.1,134.1,0,0,1,470.5,39.62l-14,12.53A140.66,140.66,0,0,0,445.62,37c-30.53,7.07-77.46,11.93-106.17,11.93Zm1.82,131.46c37.62-8.9,67.34-21.84,90.2-44.7l14.56,10.72c-21.84,20.63-62.7,35.39-102.54,41.06ZM418.32,110c-17.8,17.6-48.74,31.15-77.66,36.2l-2-6.67c28.11-8.49,51.57-22.85,64.71-39.64Z"/><path class="cls-1" d="M697.39,164l-6.07,19.82c-21.64,1.41-55.81,2-80.29,1-41.46-1.62-53-14.76-61.48-30.54-6.67,14.36-14.36,27.31-23.46,37.62L513,179.56c9.1-7.07,19.41-18.4,26.29-28.11v-45.7H514.77v-9.1h42.67v54.4c11.12,16.58,36.61,17.39,54.6,17.39C638.34,168.44,674.13,167,697.39,164ZM544.5,82.49c-6.88-9.3-18.61-22.65-28.11-32.36l3.84-6.27c11.32,5.46,26.09,14.36,37.21,24.27ZM523.06,9.68l3.64-5.86C537.82,8.27,553.19,17,563.91,26.27L551.17,40.63A294.92,294.92,0,0,0,523.06,9.68Zm94.65,34H565.53v-8.9H603c-5.47-10.11-12.14-21.24-17.4-29.12L590.61.38c10.72,7.08,23.66,18.81,30.13,27.1l-9.91,7.28h29.93c4-9.51,7.69-22.65,9.91-34.38l20,6.07a143.74,143.74,0,0,1-21.23,28.31h41.46v8.9H637.33a174.67,174.67,0,0,1-13.55,20H677v94.24h-17.8V147.2H600.32v11.33h-17.8V63.68h31.55A173.33,173.33,0,0,0,617.71,43.66Zm41.46,29.12H600.32v15h58.85Zm0,23.66H600.32v16.38h58.85Zm0,25.08H600.32v16.59h58.85Z"/><path class="cls-1" d="M81.28,90.47C74.43,89.89,70,83.92,67.19,75A61.49,61.49,0,0,1,47,89.3l-1.76-2.94A52.12,52.12,0,0,0,58.1,77.07h-20v6.17H31.3V36.29H60.64v4.2H50v8h9.1V64.75H50v8.12H61.91a57.77,57.77,0,0,0,3.52-5C63.18,57.12,62.5,43.72,62.3,30.81H27.68V51.45c0,17.5-2.25,30.9-14.18,39.9l-2.64-2.44c7.23-9,8.6-13.89,8.8-29.93H12.72c.09,8.31,0,17.12-10.27,26.31L0,82.94c6.36-8.41,6-14.77,6-24H1.17v-4.4H19.66V44.41H11.15V49.2H4.4V25.43h6.75V40h8.51V26.41H62.21V18.78l7.43.19v7.44h7.82A112.33,112.33,0,0,0,71,15.55l2.54-2.35c2.74,1.57,8.22,6.56,11,9.88L80.2,26.41h6.65v4.4H69.64c.2,8.22.59,17.21,1.56,25.43a84.29,84.29,0,0,0,4.21-18.49l7.92,2c-1.37,7.43-3.81,18-10.46,28C74.24,74,76,78.74,78.34,80.5c3.82,3.22,3.82-4.4,3.72-12.13h3.42C89.1,81,87.15,91,81.28,90.47Zm-55.46-78H2.05V8H25.82V0h8.41V8H51.35V0h8.41V8H85.68v4.4H59.76v7H51.35v-7H34.23v8.32H25.82ZM38.15,48.51h6v-8h-6Zm0,12H53V52.72H38.15Zm6,4.21h-6v8.12h6Z"/><path class="cls-1" d="M88.71,177.73l-5.08,10.56c-9.39-1.46-29.84-7.72-38-27.87-5.67,15.65-19.86,24.74-44.41,28.46L.1,185.55c21-5.28,31-13.79,35.4-25.13H3.42V156H36.87a52.25,52.25,0,0,0,1.47-10l10,.78a45.71,45.71,0,0,1-1.47,9.2H84.6v4.4h-35C60.15,174.6,78,176.75,88.71,177.73Zm-2.93-33.55H2.54v-4.4H38.93v-9.59H12.13v-4.4h26.8V116.5H6v-4.4H30.22A138.29,138.29,0,0,0,18,99.29l1.86-3c5.47,2.16,14.76,7.14,19.36,10.76l-4.6,5.09H49.2a63.36,63.36,0,0,0,7.92-16.43l9.68,4.69A67.35,67.35,0,0,1,55,112.1H82.26v4.4H48.12v9.29H76.19v4.4H48.12v9.59H85.78Z"/></g></g></svg>