<svg xmlns="http://www.w3.org/2000/svg" width="10.509" height="146.368" viewBox="0 0 10.509 146.368">
  <g id="Group_95" data-name="Group 95" transform="translate(-3317.846 -88.434)">
    <path id="Path_670" data-name="Path 670" d="M3326.612,92.99a2.1,2.1,0,0,1,.889,1.8,3.1,3.1,0,0,1-2.25,2.572,9.612,9.612,0,0,1-2.653.6c-.127,0-.2-.058-.2-.138s.058-.15.174-.173a7.842,7.842,0,0,0,2.457-.831,2.882,2.882,0,0,0,1.58-2.215,1.75,1.75,0,0,0-.553-1.453,2.221,2.221,0,0,0-1.327-.542,13.811,13.811,0,0,1-2.25,2.791c.093.242.173.4.254.577a.838.838,0,0,1,.081.323.281.281,0,0,1-.311.265c-.139,0-.254-.1-.393-.288a1.8,1.8,0,0,1-.2-.381,4.34,4.34,0,0,1-2.191,1.1c-.623,0-.842-.427-.842-.98a3.291,3.291,0,0,1,1.384-2.331,6.787,6.787,0,0,1,1.337-.807c.036-.669.093-1.211.174-1.811a6.95,6.95,0,0,1-.761.046,1.553,1.553,0,0,1-1.419-.715.667.667,0,0,1-.116-.289.086.086,0,0,1,.082-.08.27.27,0,0,1,.161.08,1.46,1.46,0,0,0,1.222.45,5.988,5.988,0,0,0,.923-.081c.046-.323.081-.53.115-.819.012-.138.036-.288.036-.4,0-.231-.07-.289-.3-.4a1.381,1.381,0,0,0-.346-.092.124.124,0,0,1-.115-.116c0-.057.081-.115.15-.138a1.243,1.243,0,0,1,.461-.069,1.63,1.63,0,0,1,.774.265c.2.127.4.311.4.507a.331.331,0,0,1-.173.289c-.139.092-.208.288-.335.865a9.215,9.215,0,0,0,1.857-.634,1.462,1.462,0,0,1,.578-.15c.218,0,.449.115.449.323,0,.15-.069.23-.231.311a7.486,7.486,0,0,1-1.246.427c-.472.127-.968.242-1.556.346a12.438,12.438,0,0,0-.22,1.661,8.378,8.378,0,0,1,1.95-.381.476.476,0,0,0,.034-.184.542.542,0,0,0-.381-.45c-.081-.035-.1-.081-.1-.115,0-.058.1-.116.254-.116a1.206,1.206,0,0,1,.853.45.446.446,0,0,1,.15.265.88.88,0,0,1-.034.185A3.375,3.375,0,0,1,3326.612,92.99Zm-5.029.335c-.865.461-2.03,1.511-2.03,2.468,0,.37.115.485.311.485a3.509,3.509,0,0,0,1.892-.911A8.6,8.6,0,0,1,3321.583,93.325Zm.7,1.58a9.591,9.591,0,0,0,1.731-2.284,6.86,6.86,0,0,0-1.88.438A6.83,6.83,0,0,0,3322.286,94.9Z" fill="#fff"/>
    <path id="Path_671" data-name="Path 671" d="M3320.314,105.307a1.718,1.718,0,0,1-.808-.161,1.261,1.261,0,0,1-.576-.554.221.221,0,0,1-.024-.115.111.111,0,0,1,.093-.093.176.176,0,0,1,.138.07,1.483,1.483,0,0,0,.969.311,7.366,7.366,0,0,0,1.511-.2,10.534,10.534,0,0,0,.393-1.211,1.641,1.641,0,0,0,.069-.4.3.3,0,0,0-.22-.277,2.43,2.43,0,0,0-.472-.15c-.046-.011-.07-.023-.07-.057s.046-.093.093-.127a.692.692,0,0,1,.427-.1,2.46,2.46,0,0,1,.98.323c.173.115.277.2.277.369a.351.351,0,0,1-.185.3,1.281,1.281,0,0,0-.311.507c-.08.174-.185.416-.277.646a7.261,7.261,0,0,0,.935-.357,1.563,1.563,0,0,1,.554-.173c.3,0,.461.15.461.346s-.116.288-.427.392c-.4.139-1.108.335-1.812.5-.669,1.627-1.36,3.08-2.122,4.626a.461.461,0,0,1-.415.311.392.392,0,0,1-.416-.415.646.646,0,0,1,.151-.381,31.127,31.127,0,0,0,2.122-4.014A9.818,9.818,0,0,1,3320.314,105.307Zm5.237.681a2.269,2.269,0,0,0-1.015-.2,3.8,3.8,0,0,0-.542.034.8.8,0,0,1-.15.012.118.118,0,0,1-.1-.127c0-.046.046-.092.115-.115a3.059,3.059,0,0,1,1.073-.2,3.882,3.882,0,0,1,1.984.553.946.946,0,0,1,.52.681.35.35,0,0,1-.347.358.555.555,0,0,1-.346-.151,1.567,1.567,0,0,0-.958-.5c-.552,0-1.118.161-1.118,1.072a13.138,13.138,0,0,0,.392,2.157,7.662,7.662,0,0,1,2.1.981.555.555,0,0,1,.231.45.366.366,0,0,1-.38.392.665.665,0,0,1-.427-.2,6.2,6.2,0,0,0-1.5-.946,1.336,1.336,0,0,1-.438,1.107,1.865,1.865,0,0,1-1.35.4c-.946,0-1.615-.484-1.615-1.211,0-.75.762-1.188,1.754-1.188a5.07,5.07,0,0,1,.9.069c-.046-.6-.149-1.223-.149-1.788a1.471,1.471,0,0,1,1.372-1.615Zm-2.284,3.853c-.646,0-1.211.254-1.211.727,0,.346.323.634,1.119.634a1.291,1.291,0,0,0,.911-.288.9.9,0,0,0,.311-.7,1.044,1.044,0,0,0-.011-.173A3.571,3.571,0,0,0,3323.267,109.841Z" fill="#fff"/>
    <path id="Path_672" data-name="Path 672" d="M3323.486,118a1.46,1.46,0,0,1,.415-.127c.185,0,.415.116.415.335.012.2-.115.311-.369.4a18.933,18.933,0,0,1-1.891.622c-.693,1.892-1.362,3.8-2.134,5.653-.115.288-.289.392-.474.392a.409.409,0,0,1-.264-.127.526.526,0,0,1-.116-.311,1.093,1.093,0,0,1,.15-.439c.807-1.638,1.488-3.264,2.157-5.018a5.938,5.938,0,0,1-1.223.173,1.848,1.848,0,0,1-1.119-.38c-.184-.15-.311-.277-.311-.4a.123.123,0,0,1,.1-.115.3.3,0,0,1,.173.057,1.643,1.643,0,0,0,.981.277,8,8,0,0,0,1.637-.311c.139-.45.242-.785.323-1.1a2.048,2.048,0,0,0,.092-.565.326.326,0,0,0-.207-.312,1.953,1.953,0,0,0-.462-.15c-.08-.023-.1-.057-.1-.1s.057-.092.1-.115a.86.86,0,0,1,.439-.127,2.2,2.2,0,0,1,1.038.438c.2.15.22.254.22.358a.343.343,0,0,1-.151.288,1.028,1.028,0,0,0-.334.508,6.106,6.106,0,0,0-.265.692A11.444,11.444,0,0,0,3323.486,118Zm-.565,4.776c.069-.127.139-.208.208-.208a.089.089,0,0,1,.092.081,1.2,1.2,0,0,1-.034.185,2.032,2.032,0,0,0-.058.53.992.992,0,0,0,.38.808,2.574,2.574,0,0,0,1.5.392,4.657,4.657,0,0,0,1.2-.115,1.383,1.383,0,0,1,.484-.093,1.166,1.166,0,0,1,.519.116.414.414,0,0,1,.242.392c0,.219-.219.323-.611.38-.312.035-.854.07-1.245.07a3.821,3.821,0,0,1-2.25-.543,1.369,1.369,0,0,1-.612-1.2A1.616,1.616,0,0,1,3322.921,122.781Zm1.846-2.5a4.4,4.4,0,0,0-1.465.392.56.56,0,0,1-.127.035.114.114,0,0,1-.115-.093.18.18,0,0,1,.08-.15,2.674,2.674,0,0,1,.773-.473,3.809,3.809,0,0,1,1.407-.277,3.519,3.519,0,0,1,1.35.231c.265.116.415.219.415.473a.289.289,0,0,1-.322.289.7.7,0,0,1-.266-.058,1.131,1.131,0,0,0-.369-.081.942.942,0,0,0-.473.161c-.289.174-.738.485-1.131.727a.3.3,0,0,1-.172.069c-.036,0-.1-.08-.1-.126a.2.2,0,0,1,.081-.127c.266-.242.657-.6,1.1-.935.047-.034.035-.069-.034-.069A6.019,6.019,0,0,0,3324.767,120.278Z" fill="#fff"/>
    <path id="Path_673" data-name="Path 673" d="M3323.256,131.614a4.612,4.612,0,0,1-.3,1.349,11.607,11.607,0,0,1-1.649,2.988,1.548,1.548,0,0,1-1.165.75,1.067,1.067,0,0,1-.866-.462,2.536,2.536,0,0,1-.53-1.707,4.2,4.2,0,0,1,1.084-2.722,4.932,4.932,0,0,1,3.692-1.511,4.239,4.239,0,0,1,2.676.888,3.428,3.428,0,0,1,.034,5.318,6.887,6.887,0,0,1-3.84,1.292.164.164,0,0,1-.162-.139c0-.092.057-.127.208-.161a6.42,6.42,0,0,0,3.137-1.465,3.26,3.26,0,0,0,1.038-2.388,2.913,2.913,0,0,0-.968-2.2,3.341,3.341,0,0,0-2.146-.75,5.023,5.023,0,0,0-.611.023A1.349,1.349,0,0,1,3323.256,131.614Zm-2.907.276a3.591,3.591,0,0,0-1,2.492,1.994,1.994,0,0,0,.254,1.073.646.646,0,0,0,.542.392c.242,0,.472-.207.807-.657a12.228,12.228,0,0,0,1.65-3,2.53,2.53,0,0,0,.162-.911.718.718,0,0,0-.185-.531A4.064,4.064,0,0,0,3320.349,131.89Z" fill="#fff"/>
    <path id="Path_674" data-name="Path 674" d="M3319.2,147.38c-.047.773-.427,1.268-.9,1.268a.416.416,0,0,1-.449-.426c0-.243.092-.37.437-.543a1.411,1.411,0,0,0,.728-1.1c.011-.046.1-.035.115.011a3.969,3.969,0,0,1,.069.5h7.8c.358-.369.415-.415.5-.415s.161.046.612.45c.207.184.254.265.254.346,0,.15-.093.207-.405.231-.137.011-.2.057-.369.2a5.9,5.9,0,0,1-.738.553c-.034.024-.127-.023-.1-.069a5.417,5.417,0,0,0,.346-1h-5.156c.565.138.911.276.911.392s-.115.184-.507.207a3.417,3.417,0,0,1-.254.323h2.8c.4-.357.462-.4.542-.4s.174.057.543.415c.161.162.207.231.207.3,0,.138-.069.2-.5.323-1.6,1.949-3.819,3.022-7.083,3.368-.08.012-.1-.161-.023-.184a10.642,10.642,0,0,0,6.3-3.53h-3.045a6.632,6.632,0,0,1-.669.6c.9.127,1.465.484,1.442.946a.391.391,0,0,1-.369.415c-.15-.012-.265-.092-.37-.3a2,2,0,0,0-.877-.923,7.749,7.749,0,0,1-2.491,1.177c-.081.023-.127-.139-.057-.173a8.067,8.067,0,0,0,2.78-2.192,2.88,2.88,0,0,0,.449-.761Zm5.745-4.3c.011.219.023.346.023.4,0,.23-.162.334-.5.334-.254,0-.346-.081-.346-.265,0-.046.011-.185.011-.473h-2.2c.011.231.011.357.011.415,0,.219-.161.335-.472.335-.266,0-.369-.093-.369-.289,0-.046.01-.184.022-.461h-2.145a5.469,5.469,0,0,0-.808.069l-.115-.438a5.62,5.62,0,0,0,.923.08h2.145v-.161a6.1,6.1,0,0,0-.046-.934c1.131.115,1.246.149,1.246.3,0,.081-.069.162-.392.266v.53h2.2v-.15a6.408,6.408,0,0,0-.046-.945c1,.092,1.223.149,1.223.288,0,.1-.07.161-.369.277v.53h1.765c.473-.542.576-.611.646-.611s.184.069.714.461c.243.173.29.254.29.323s-.036.116-.151.116Zm-4.834,3.218c0,.231-.15.335-.461.335-.265,0-.358-.081-.358-.3,0-.127.035-.346.035-1.131a11.687,11.687,0,0,0-.069-1.453,4.2,4.2,0,0,1,.957.438h5.86c.312-.346.37-.392.439-.392.092,0,.149.046.484.311.161.139.207.22.207.289s-.046.15-.276.3v.346c0,.784.023,1.13.023,1.234,0,.254-.15.358-.5.358-.22,0-.323-.092-.323-.3v-.081h-6.022Zm0-1.822v1.488h1.477v-1.488Zm2.249,0v1.488h1.477v-1.488Zm2.25,1.488h1.523v-1.488H3324.6Z" fill="#fff"/>
    <path id="Path_675" data-name="Path 675" d="M3322.9,160.954c0-.657-.161-.934-.576-.934a2.24,2.24,0,0,0-1.419.807,9.125,9.125,0,0,0-.911,1.154c-.093.127-.242.277-.392.277-.219,0-.381-.139-.381-.462,0-.173.127-.334.357-.565a12.242,12.242,0,0,0,1.119-1.327,14.769,14.769,0,0,0,.854-1.361,6.718,6.718,0,0,1-.992.069,1.394,1.394,0,0,1-1.338-.738.286.286,0,0,1-.046-.15.094.094,0,0,1,.092-.1.221.221,0,0,1,.138.093,1.487,1.487,0,0,0,1.143.38,6.378,6.378,0,0,0,1.3-.184,6.587,6.587,0,0,0,.381-.981,1.3,1.3,0,0,0,.057-.3c0-.15-.08-.219-.23-.265a2.868,2.868,0,0,0-.473-.092c-.058-.012-.093-.035-.093-.07a.225.225,0,0,1,.093-.126.7.7,0,0,1,.449-.151,1.966,1.966,0,0,1,.865.266c.278.161.381.311.381.45a.306.306,0,0,1-.127.265,1.111,1.111,0,0,0-.288.311c-.069.116-.2.347-.288.531a4.8,4.8,0,0,0,1-.4,1.2,1.2,0,0,1,.589-.2c.254,0,.438.139.438.346s-.162.277-.38.358a19.36,19.36,0,0,1-2.019.577c-.358.6-.716,1.211-1.107,1.765a2.591,2.591,0,0,1,1.383-.554,1,1,0,0,1,1.062.981c.022.138.022.346.034.542a27.145,27.145,0,0,0,2.308-1.442.345.345,0,0,0,.173-.243c0-.057-.046-.1-.139-.161a1.522,1.522,0,0,0-.346-.127c-.069-.023-.115-.046-.115-.081s.08-.115.173-.15a.73.73,0,0,1,.288-.046,2.046,2.046,0,0,1,.877.289c.346.184.53.38.53.611a.3.3,0,0,1-.3.3,1.6,1.6,0,0,0-.449.127c-.565.242-1.143.508-1.938.923-.335.173-.715.4-1.038.576v1.615c0,.323-.127.485-.358.485a.365.365,0,0,1-.392-.415c0-.277.023-.762.045-1.327-1.014.577-1.614,1.027-1.614,1.742,0,.473.415.842,1.488.842a12.537,12.537,0,0,0,1.615-.081,6.841,6.841,0,0,0,.68-.138,1.874,1.874,0,0,1,.393-.069c.4,0,.8.23.8.507,0,.185-.127.3-.577.369a15.218,15.218,0,0,1-2.18.116c-1.569,0-2.631-.381-2.631-1.477,0-1,.8-1.661,2.03-2.4Z" fill="#fff"/>
    <path id="Path_676" data-name="Path 676" d="M3323.094,172.383a1.068,1.068,0,0,1,.911.473,2.4,2.4,0,0,1,.335,1.372,7.425,7.425,0,0,1-.45,2.446,3.783,3.783,0,0,1-.9,1.477,1.521,1.521,0,0,1-1.026.519c-.266,0-.381-.069-.427-.3a.752.752,0,0,0-.174-.415c-.184-.22-.391-.439-.669-.727a.155.155,0,0,1-.057-.116c0-.046.057-.126.115-.126a.2.2,0,0,1,.127.057c.335.231.611.415.911.589a.759.759,0,0,0,.335.08.6.6,0,0,0,.439-.219,3.989,3.989,0,0,0,.819-1.569,7.712,7.712,0,0,0,.3-1.961,1.565,1.565,0,0,0-.2-.969.529.529,0,0,0-.5-.2,3.309,3.309,0,0,0-.8.138c-.357.739-.68,1.465-1.026,2.134-.6,1.166-1.119,2.181-1.742,3.242a.432.432,0,0,1-.4.231.343.343,0,0,1-.37-.323.713.713,0,0,1,.151-.427c.68-1.027,1.3-2.065,1.88-3.126.3-.566.553-1.038.785-1.523-.427.15-.877.335-1.212.473a1.242,1.242,0,0,0-.334.173.422.422,0,0,1-.289.127.774.774,0,0,1-.519-.277,1.292,1.292,0,0,1-.438-.807c0-.127.057-.277.115-.277s.069.023.127.1c.208.265.381.426.565.426a3.485,3.485,0,0,0,.831-.15c.4-.092.842-.207,1.4-.357a13.109,13.109,0,0,0,.519-1.4,1.349,1.349,0,0,0,.081-.45c0-.1-.024-.161-.173-.265a1.627,1.627,0,0,0-.508-.173c-.115-.023-.161-.046-.161-.1s.069-.1.149-.15a1.012,1.012,0,0,1,.415-.092,1.881,1.881,0,0,1,1.155.484.487.487,0,0,1,.184.381c0,.115-.069.2-.22.265a.8.8,0,0,0-.276.369c-.139.312-.3.646-.462,1A3.6,3.6,0,0,1,3323.094,172.383Zm4.591,3.553a.53.53,0,0,1-.334-.127.646.646,0,0,0-.427-.127c-.369,0-.774.023-1.3.058a.144.144,0,0,1-.161-.15c0-.07.034-.116.127-.139a10.006,10.006,0,0,0,1.292-.323c.138-.046.185-.08.185-.207a1.883,1.883,0,0,0-.393-.889,4.951,4.951,0,0,0-1.269-1.211.239.239,0,0,1-.115-.161c0-.058.069-.116.173-.116a.214.214,0,0,1,.1.023,4.59,4.59,0,0,1,1.615,1.1,2.745,2.745,0,0,1,.923,1.777C3328.1,175.786,3327.9,175.936,3327.685,175.936Z" fill="#fff"/>
    <path id="Path_677" data-name="Path 677" d="M3320.314,186.188a1.73,1.73,0,0,1-.808-.161,1.266,1.266,0,0,1-.576-.554.222.222,0,0,1-.024-.116.11.11,0,0,1,.093-.092.176.176,0,0,1,.138.07,1.483,1.483,0,0,0,.969.311,7.366,7.366,0,0,0,1.511-.2,10.533,10.533,0,0,0,.393-1.211,1.648,1.648,0,0,0,.069-.4.3.3,0,0,0-.22-.277,2.43,2.43,0,0,0-.472-.15c-.046-.011-.07-.023-.07-.058s.046-.092.093-.126a.692.692,0,0,1,.427-.1,2.46,2.46,0,0,1,.98.323c.173.115.277.2.277.369a.351.351,0,0,1-.185.3,1.273,1.273,0,0,0-.311.507c-.08.173-.185.415-.277.646a7.261,7.261,0,0,0,.935-.357,1.542,1.542,0,0,1,.554-.173c.3,0,.461.15.461.346s-.116.288-.427.392c-.4.138-1.108.334-1.812.5-.669,1.627-1.36,3.08-2.122,4.626a.461.461,0,0,1-.415.311.392.392,0,0,1-.416-.415.644.644,0,0,1,.151-.381,31.127,31.127,0,0,0,2.122-4.014A10.088,10.088,0,0,1,3320.314,186.188Zm5.237.681a2.269,2.269,0,0,0-1.015-.2,3.8,3.8,0,0,0-.542.034.8.8,0,0,1-.15.012.118.118,0,0,1-.1-.127c0-.046.046-.092.115-.116a3.082,3.082,0,0,1,1.073-.2,3.882,3.882,0,0,1,1.984.554.946.946,0,0,1,.52.681.35.35,0,0,1-.347.357.554.554,0,0,1-.346-.15,1.57,1.57,0,0,0-.958-.5c-.552,0-1.118.162-1.118,1.073a13.156,13.156,0,0,0,.392,2.157,7.633,7.633,0,0,1,2.1.981.555.555,0,0,1,.231.45.366.366,0,0,1-.38.392.67.67,0,0,1-.427-.2,6.2,6.2,0,0,0-1.5-.946,1.336,1.336,0,0,1-.438,1.107,1.865,1.865,0,0,1-1.35.4c-.946,0-1.615-.484-1.615-1.211,0-.75.762-1.188,1.754-1.188a5.07,5.07,0,0,1,.9.069c-.046-.6-.149-1.223-.149-1.788a1.47,1.47,0,0,1,1.372-1.615Zm-2.284,3.852c-.646,0-1.211.254-1.211.727,0,.346.323.635,1.119.635a1.287,1.287,0,0,0,.911-.289.9.9,0,0,0,.311-.7,1.039,1.039,0,0,0-.011-.173A3.543,3.543,0,0,0,3323.267,190.721Z" fill="#fff"/>
    <path id="Path_678" data-name="Path 678" d="M3322.782,203.281a1.012,1.012,0,0,1,.9.53,14.236,14.236,0,0,1,.542,1.327c.184.392.345.531.934.531a5.721,5.721,0,0,0,1.1-.127,2.207,2.207,0,0,1,.5-.07.98.98,0,0,1,.588.174.478.478,0,0,1,.22.38c0,.208-.151.346-.624.393-.323.034-.83.046-1.176.046a5.075,5.075,0,0,1-1.235-.116,1.285,1.285,0,0,1-.968-1.038,10.256,10.256,0,0,0-.405-1.35.553.553,0,0,0-.542-.334c-.4,0-.784.415-1.234.888s-.911,1.038-1.419,1.684a.436.436,0,0,1-.369.173c-.265,0-.381-.219-.381-.484a.644.644,0,0,1,.266-.461c.68-.658,1.534-1.535,2.376-2.435.727-.784,1.442-1.557,1.972-2.261.047-.069.012-.126-.068-.1a16.625,16.625,0,0,0-2.331,1.038,2.318,2.318,0,0,0-.334.207.475.475,0,0,1-.323.116c-.161,0-.312-.116-.52-.335a1.089,1.089,0,0,1-.346-.646,1,1,0,0,1,.036-.311c.022-.069.057-.116.1-.116s.058.024.139.162a1.088,1.088,0,0,0,.207.277.489.489,0,0,0,.357.15,1.394,1.394,0,0,0,.45-.093c.647-.23,1.465-.53,2.169-.795a.843.843,0,0,0,.381-.208.374.374,0,0,1,.265-.162,1.4,1.4,0,0,1,.658.323c.288.22.439.346.439.543,0,.161-.139.219-.3.242a.644.644,0,0,0-.415.2c-.739.75-1.384,1.384-2.238,2.261A1.283,1.283,0,0,1,3322.782,203.281Zm-.992-5.537a.908.908,0,0,1-.253-.543.111.111,0,0,1,.092-.1.18.18,0,0,1,.139.081,2.087,2.087,0,0,0,1.637.68,1.687,1.687,0,0,1,.785.173.444.444,0,0,1,.231.415c0,.231-.162.289-.347.289-.127,0-.334-.023-.449-.023a1.6,1.6,0,0,0-.611.127c-.439.184-.762.334-1.189.542a.554.554,0,0,1-.23.058.1.1,0,0,1-.1-.093.187.187,0,0,1,.093-.161c.369-.243.669-.439,1.153-.773A2.408,2.408,0,0,1,3321.79,197.744Z" fill="#fff"/>
    <path id="Path_679" data-name="Path 679" d="M3323.717,219.22a1.254,1.254,0,0,1-.45,1.05,2.051,2.051,0,0,1-1.384.369c-.969,0-1.927-.381-1.927-1.211,0-.877,1.038-1.188,1.869-1.188a9.164,9.164,0,0,1,1.177.08c-.012-.657-.012-1.349-.023-1.926-.266.023-.7.035-1.015.035-1.085,0-1.512-.3-1.512-.8a1.028,1.028,0,0,1,.2-.623c.058-.081.116-.127.173-.127s.1.034.1.081a.447.447,0,0,1-.046.15.716.716,0,0,0-.058.311c0,.288.22.427.923.427.369,0,.854-.023,1.223-.058,0-.623-.012-1.142-.023-1.765a17.057,17.057,0,0,1-2.18.15,1.709,1.709,0,0,1-1.6-.784.286.286,0,0,1-.046-.15.1.1,0,0,1,.092-.081.2.2,0,0,1,.139.058,2.078,2.078,0,0,0,1.338.392,17.79,17.79,0,0,0,2.238-.208c0-.4,0-.98-.012-1.338-.012-.277-.022-.392-.115-.484a.551.551,0,0,0-.312-.139,2.607,2.607,0,0,0-.288-.011.083.083,0,0,1-.081-.093c0-.069.058-.115.162-.184a.814.814,0,0,1,.427-.127,1.611,1.611,0,0,1,.773.254c.345.2.46.4.46.53a.341.341,0,0,1-.137.277.528.528,0,0,0-.185.392c-.035.369-.047.6-.047.82a12.112,12.112,0,0,0,1.258-.266,1.989,1.989,0,0,0,.554-.219.931.931,0,0,1,.519-.127c.288,0,.715.127.715.392,0,.208-.127.3-.634.416a24.1,24.1,0,0,1-2.412.438c-.01.6-.01,1.142-.01,1.765a6.629,6.629,0,0,0,1.026-.231,1.347,1.347,0,0,0,.369-.208.854.854,0,0,1,.5-.138c.346,0,.542.116.542.3s-.127.288-.391.392a9.5,9.5,0,0,1-2.032.5c.012.658.059,1.5.093,2.134a9.077,9.077,0,0,1,2.642,1.142.675.675,0,0,1,.381.566.406.406,0,0,1-.358.438.592.592,0,0,1-.4-.15,7.827,7.827,0,0,0-2.2-1.326Zm-2.146-.507c-.542,0-1.211.173-1.211.669s.681.669,1.35.669a1.434,1.434,0,0,0,1.038-.288,1.07,1.07,0,0,0,.254-.843A5.727,5.727,0,0,0,3321.571,218.713Z" fill="#fff"/>
    <path id="Path_680" data-name="Path 680" d="M3326,227.223a1.423,1.423,0,0,0,.588-.115.825.825,0,0,1,.358-.081,2.089,2.089,0,0,1,.9.3.5.5,0,0,1,.288.427.274.274,0,0,1-.265.288,3.758,3.758,0,0,1-.612-.1,7.828,7.828,0,0,0-1.4-.127c-.611,0-1.165,0-1.8.046-.011.842-.023,1.442-.023,2.1a3.442,3.442,0,0,1,.2,1.269,3.218,3.218,0,0,1-1.384,2.584,6.467,6.467,0,0,1-1.973.923,1.426,1.426,0,0,1-.357.069c-.1,0-.162-.058-.162-.127s.035-.115.15-.161a6.31,6.31,0,0,0,1.845-1.073,3.121,3.121,0,0,0,1.1-1.684,1.186,1.186,0,0,1-.8.265,1.248,1.248,0,0,1-1.257-1.419,1.357,1.357,0,0,1,1.3-1.407,1.374,1.374,0,0,1,.738.184c0-.5-.011-.957-.023-1.453a23.057,23.057,0,0,0-2.85.507,2.528,2.528,0,0,0-.784.277.582.582,0,0,1-.335.116,1.054,1.054,0,0,1-.68-.335,1.188,1.188,0,0,1-.473-.75c0-.138.035-.219.093-.219a.126.126,0,0,1,.08.035c.358.346.531.438.865.438a4.223,4.223,0,0,0,.738-.092c1.108-.185,2.273-.358,3.334-.485,0-.427,0-.726-.011-1.13a1.555,1.555,0,0,0-.07-.508.354.354,0,0,0-.322-.184,3.257,3.257,0,0,0-.335-.035c-.069,0-.115-.023-.115-.069,0-.069.023-.1.1-.173a.992.992,0,0,1,.577-.231,1.463,1.463,0,0,1,.842.346c.231.173.323.277.323.415a.447.447,0,0,1-.15.324.5.5,0,0,0-.126.334c-.012.219-.023.5-.035.854C3324.79,227.293,3325.424,227.258,3326,227.223Zm-4.106,3.3a.781.781,0,0,0,.807.853c.485,0,.784-.334.8-.888-.035-.508-.289-.946-.831-.946C3322.264,229.542,3321.9,229.865,3321.9,230.523Z" fill="#fff"/>
  </g>
</svg>
