<?xml version="1.0" encoding="utf-8"?>
<!-- Generator: Adobe Illustrator 27.6.1, SVG Export Plug-In . SVG Version: 6.00 Build 0)  -->
<svg version="1.1" id="圖層_1" xmlns="http://www.w3.org/2000/svg" xmlns:xlink="http://www.w3.org/1999/xlink" x="0px" y="0px"
	 viewBox="0 0 230.4 11.5" style="enable-background:new 0 0 230.4 11.5;" xml:space="preserve">
<style type="text/css">
	.st0{fill-rule:evenodd;clip-rule:evenodd;fill:#FFFFFF;}
	.st1{fill:#FFFFFF;}
</style>
<g>
	<g>
		<g>
			<path class="st0" d="M69.3,6.5v3l-0.1,0.3h2.9l-0.1-0.3V1.3L72.1,1h-9.1l0.1,0.3v8.2l-0.1,0.3h2.9l-0.1-0.3v-3
				c0-1,0.7-1.9,1.9-1.9C68.5,4.7,69.3,5.5,69.3,6.5L69.3,6.5z"/>
			<g>
				<path class="st1" d="M75.8,2.1h0.8c0,0,0.1-0.1,0.3-0.3c0.2-0.3,0.3-0.4,0.4-0.4c0.1,0,0.3,0.1,0.5,0.4C78,2,78.1,2.1,78.1,2.2
					c0,0.1,0,0.2-0.1,0.2h-0.7v6c0,0.5,0,1,0,1.3c0,0.1-0.2,0.2-0.4,0.2c-0.1,0-0.2,0-0.3,0c-0.2,0-0.2-0.1-0.2-0.3
					c0-0.3,0-0.7,0-1.3V7.7c-0.3,0.3-0.7,0.5-1,0.6c-0.1,0-0.1,0-0.1,0.1c0,0,0,0.1,0,0.1c0,0.1-0.1,0.1-0.1,0.1
					c-0.1,0-0.3-0.2-0.4-0.6c0-0.1-0.1-0.3-0.2-0.6c0.2,0,0.3,0,0.5,0V2.3c-0.2,0-0.3,0-0.4,0L74.5,2C74.8,2,75.2,2.1,75.8,2.1z
					 M76.4,3.7V2.3h-0.6v1.4H76.4z M76.4,5.4V4h-0.6v1.5H76.4z M76.4,7.2V5.7h-0.6v1.6C76,7.2,76.2,7.2,76.4,7.2z M79.3,1.6
					c0.3,0.1,0.4,0.2,0.4,0.3c0,0.1-0.1,0.1-0.2,0.1c-0.1,0-0.2,0-0.2,0c-0.3,0.4-0.6,0.8-1,1.1c0.1,0,0.1,0.1,0.2,0.1
					c0.2,0.1,0.2,0.2,0.2,0.3c0,0.2-0.1,0.3-0.2,0.5c-0.1,0.1-0.2,0.2-0.4,0.2c-0.1,0-0.2-0.1-0.2-0.3c-0.1-0.3-0.3-0.5-0.5-0.8
					L77.4,3c0.2,0,0.4,0.1,0.5,0.1c0.2-0.6,0.4-1.2,0.5-1.8C78.7,1.4,79,1.6,79.3,1.6z M80.1,2.5c0.2,0.1,0.3,0.2,0.3,0.3
					c0,0.1-0.1,0.1-0.2,0.1c-0.1,0-0.2,0-0.2,0.1c-0.5,0.7-1,1.3-1.6,1.9c0.4,0,0.7-0.1,1-0.1c0-0.2-0.1-0.4-0.2-0.7L79.5,4
					c0.3,0.2,0.6,0.3,0.7,0.5c0.2,0.2,0.2,0.3,0.2,0.5c0,0.2,0,0.3-0.1,0.5c-0.1,0.1-0.2,0.2-0.4,0.2c-0.1,0-0.1,0-0.2-0.1
					c0,0-0.1-0.2-0.1-0.4c0,0,0-0.1,0-0.1c-0.5,0.3-1,0.5-1.4,0.7c-0.1,0-0.1,0-0.1,0.1c0,0,0,0.1,0,0.1c0,0.1,0,0.1-0.1,0.1
					c-0.1,0-0.2-0.2-0.4-0.5c0-0.1-0.1-0.2-0.2-0.5c0.3,0,0.5,0,0.8,0c0.5-0.8,0.9-1.7,1.2-2.6C79.7,2.3,79.9,2.4,80.1,2.5z
					 M78.6,6.1c0.3,0,0.5,0.1,0.5,0.2c0,0.1-0.1,0.2-0.2,0.2c-0.1,0-0.2,0.1-0.2,0.2v1h0.6c0-0.2,0-0.5,0-0.8c0-0.3,0-0.7-0.1-1.2
					c0.3,0,0.6,0.1,0.8,0.2c0.2,0,0.3,0.1,0.4,0.1c0-0.1,0-0.1,0-0.2c0.2,0,0.5,0.1,0.9,0.1c0.3,0,0.5,0.1,0.5,0.2
					c0,0.1-0.1,0.2-0.2,0.2c-0.1,0-0.2,0.1-0.2,0.2v1.2h0.6v-1c0-0.3,0-0.5-0.1-0.7c0.2,0,0.5,0.1,0.9,0.1c0.3,0,0.5,0.1,0.5,0.2
					c0,0.1-0.1,0.2-0.2,0.2c-0.1,0-0.2,0.1-0.2,0.2v1.5c0,0.1-0.1,0.2-0.4,0.2c-0.1,0-0.2,0-0.2,0c-0.2,0-0.2,0-0.2-0.2V8h-0.6v1.7
					c0,0.1-0.1,0.2-0.4,0.2c-0.1,0-0.2,0-0.3,0c-0.2,0-0.3,0-0.3-0.1c0-0.2,0-0.3,0-0.3v-3c0-0.1,0-0.2,0-0.3c0,0-0.1,0-0.1,0
					c-0.1,0.1-0.2,0.1-0.2,0.2c0,0.9,0,1.4-0.1,1.7c-0.1,0.3-0.2,0.5-0.3,0.8c-0.1,0.2-0.3,0.4-0.6,0.5c-0.3,0.2-0.6,0.3-1.2,0.5
					l-0.1-0.1c0.3-0.2,0.6-0.4,0.8-0.6c0.2-0.2,0.3-0.4,0.4-0.7c0-0.1,0.1-0.3,0.1-0.5h-0.5v0.4c0,0.1-0.1,0.2-0.4,0.2
					c-0.1,0-0.2,0-0.2,0c-0.2,0-0.2,0-0.2-0.2V6.7c0-0.3,0-0.5-0.1-0.7C77.9,6.1,78.2,6.1,78.6,6.1z M82,1.6
					c0.3,0.1,0.4,0.2,0.4,0.3c0,0.1-0.1,0.1-0.2,0.1c-0.1,0-0.2,0-0.2,0c-0.3,0.4-0.7,0.8-1.1,1.2c0.1,0,0.2,0.1,0.2,0.1
					c0.2,0.1,0.2,0.2,0.2,0.4c0,0.2-0.1,0.3-0.2,0.5c-0.1,0.1-0.2,0.2-0.4,0.2c-0.1,0-0.2-0.1-0.2-0.3c-0.1-0.3-0.2-0.6-0.4-0.9
					l0.1-0.2c0.2,0,0.3,0.1,0.4,0.1C80.8,2.6,81,2,81.1,1.3C81.4,1.4,81.7,1.5,82,1.6z M82.7,2.7C83,2.8,83.1,2.9,83.1,3
					C83.1,3,83,3,82.9,3.1c-0.1,0-0.2,0-0.2,0.1c-0.4,0.6-0.8,1.1-1.3,1.6c0.3,0,0.6-0.1,1-0.1c0-0.2-0.1-0.4-0.2-0.6l0.1-0.1
					c0.3,0.2,0.5,0.3,0.7,0.5c0.2,0.2,0.2,0.3,0.2,0.5c0,0.2,0,0.4-0.1,0.5c-0.1,0.1-0.3,0.2-0.4,0.2c-0.1,0-0.1,0-0.2-0.1
					c0,0-0.1-0.2-0.1-0.4c0,0,0-0.1,0-0.1c-0.4,0.3-0.7,0.5-1.1,0.6c-0.1,0-0.1,0-0.1,0.1c0,0,0,0,0,0.1c0,0.1,0,0.1-0.1,0.1
					c-0.1,0-0.2-0.2-0.4-0.5c0-0.1-0.1-0.2-0.2-0.5c0.2,0,0.3,0,0.5,0c0.4-0.7,0.7-1.5,1-2.4C82.2,2.5,82.5,2.6,82.7,2.7z"/>
				<path class="st1" d="M85.5,2.2h0.8c0,0,0.1-0.1,0.3-0.4c0.2-0.3,0.3-0.4,0.4-0.4c0.1,0,0.3,0.1,0.5,0.4c0.2,0.3,0.4,0.4,0.4,0.5
					c0,0.1-0.1,0.2-0.2,0.2h-1.4c-0.2,1-0.4,1.7-0.6,2.2L86,4.8h0.2c0.1-0.2,0.2-0.3,0.4-0.4c0.1-0.1,0.2-0.2,0.2-0.2
					c0.1,0,0.2,0.1,0.5,0.2c0.3,0.2,0.5,0.3,0.5,0.4c0,0.1-0.1,0.2-0.2,0.3c-0.1,0.1-0.1,0.2-0.1,0.3v2.3c0,0.3,0,0.6,0,1.1
					c0,0.1-0.2,0.2-0.5,0.3c-0.1,0-0.2,0-0.3,0c-0.2,0-0.3-0.1-0.3-0.3V8.4H86v0.7c0,0.1-0.2,0.2-0.4,0.2c-0.1,0-0.2,0-0.3,0
					c-0.2,0-0.3-0.1-0.3-0.3C85,8.7,85,8.3,85,7.8V5.9c0,0,0,0,0,0c-0.2,0.4-0.5,0.7-0.8,1l-0.1-0.1c0.2-0.5,0.4-1.1,0.6-1.8
					c0.2-0.7,0.4-1.6,0.5-2.6c-0.4,0-0.7,0-0.9,0l-0.2-0.4C84.5,2.1,84.9,2.2,85.5,2.2z M86.6,8.1V5.1H86v3.1H86.6z M89.8,8.5
					c0.3,0.2,0.4,0.3,0.4,0.3C90.3,9,90.2,9,90,9c-0.2,0-0.3,0-0.3,0.1c-0.3,0.1-0.6,0.3-1,0.4c-0.4,0.1-1,0.3-1.9,0.4l-0.1-0.2
					c0.5-0.2,1-0.5,1.3-0.7c0.5-0.3,0.8-0.6,0.9-0.9C89.4,8.3,89.6,8.4,89.8,8.5z M89.2,2h1.9c0,0,0.1-0.1,0.3-0.4
					c0.2-0.3,0.4-0.4,0.4-0.4c0.1,0,0.3,0.1,0.5,0.4c0.2,0.3,0.4,0.4,0.4,0.5c0,0.1-0.1,0.2-0.2,0.2h-1.7C90.6,2.7,90.4,3,90,3.3
					h0.8C91,3.2,91.1,3.1,91.2,3c0.1-0.1,0.2-0.2,0.3-0.2c0.1,0,0.3,0.1,0.6,0.3c0.3,0.3,0.5,0.4,0.5,0.5c0,0.1-0.1,0.2-0.2,0.3
					c-0.1,0.1-0.2,0.2-0.2,0.3v1.8l0.1,1.9c0,0.1-0.2,0.2-0.5,0.3c-0.2,0-0.3,0-0.3,0c-0.2,0-0.3-0.1-0.3-0.3V7.8h-2.1V8
					c0,0.1-0.2,0.2-0.5,0.3c-0.1,0-0.2,0-0.3,0c-0.2,0-0.3-0.1-0.3-0.3c0-0.3,0-0.6,0-1V4.2c0-0.5,0-0.9-0.1-1.3
					c0.4,0.1,0.8,0.3,1.2,0.4h0.3c0-0.3,0.1-0.7,0.1-1.1h-0.4c-0.5,0-0.9,0-1.1,0l-0.2-0.4C88.2,2,88.6,2,89.2,2z M91.2,4.6v-1h-2.1
					v1H91.2z M91.2,6.1V4.9h-2.1v1.2H91.2z M91.2,7.5V6.3h-2.1v1.2H91.2z M91.7,8.5c0.2,0.1,0.5,0.2,0.7,0.3
					c0.2,0.1,0.3,0.3,0.3,0.5c0,0.1-0.1,0.3-0.2,0.5c-0.1,0.1-0.2,0.2-0.4,0.2c-0.1,0-0.2-0.1-0.3-0.2c-0.4-0.5-0.8-0.9-1.3-1.2
					l0-0.2C90.7,8.3,91.2,8.4,91.7,8.5z"/>
				<path class="st1" d="M96.8,3.7c0.2,0.2,0.3,0.4,0.3,0.5c0,0.1,0,0.2-0.1,0.2h-1.1v3.1c0.4-0.1,0.8-0.2,1.2-0.3l0,0.1
					c-0.7,0.6-1.5,1.1-2.3,1.4c-0.1,0-0.1,0.1-0.1,0.1c0,0,0,0.1,0,0.1C94.5,9,94.5,9,94.4,9c-0.1,0-0.3-0.2-0.4-0.6
					c0-0.1-0.1-0.3-0.2-0.6c0.4,0,0.7-0.1,1.1-0.1V4.3h-0.1c-0.2,0-0.4,0-0.7,0L93.8,4c0.4,0,0.7,0.1,0.9,0.1h0.1V2.9
					c0-0.5,0-1-0.1-1.4c0.3,0,0.6,0.1,1,0.2c0.3,0.1,0.5,0.1,0.5,0.2c0,0.1-0.1,0.2-0.3,0.3c-0.1,0-0.2,0.1-0.2,0.2v1.8h0.1
					C96,4,96.1,3.8,96.1,3.7c0.1-0.2,0.2-0.4,0.2-0.4C96.4,3.3,96.6,3.4,96.8,3.7z M100.8,3.1c0.1-0.1,0.1-0.2,0.2-0.2
					c0.1,0,0.3,0.1,0.6,0.3c0.4,0.2,0.5,0.4,0.5,0.5c0,0.1-0.1,0.1-0.2,0.3c-0.1,0.1-0.2,0.2-0.2,0.3c0,1.8-0.1,2.8-0.2,3
					c-0.1,0.3-0.2,0.4-0.5,0.5c-0.2,0.1-0.3,0.2-0.5,0.2c-0.1,0-0.2-0.1-0.2-0.4c0-0.3-0.2-0.5-0.5-0.6v0.8c0,0.1-0.2,0.2-0.5,0.3
					c-0.1,0-0.2,0-0.3,0c-0.2,0-0.3-0.1-0.3-0.3C99,7.2,99,6.7,99,6.2V4.3l-0.8,0.3v3.9c0,0.2,0.1,0.3,0.2,0.3
					c0.3,0,0.8,0.1,1.4,0.1c0.4,0,0.7,0,1-0.1c0.2,0,0.3-0.1,0.4-0.2c0.1-0.1,0.1-0.2,0.2-0.4c0.1-0.3,0.2-0.6,0.3-1.1l0.2,0
					c0,0.5,0,0.8,0,0.9c0,0.3,0.1,0.5,0.2,0.6c0.2,0.2,0.2,0.3,0.2,0.4c0,0.2-0.1,0.3-0.4,0.4c-0.2,0.1-0.4,0.1-0.6,0.2
					c-0.4,0.1-0.9,0.1-1.6,0.1c-1,0-1.7,0-2-0.1c-0.3-0.1-0.5-0.2-0.5-0.3c-0.1-0.1-0.1-0.3-0.1-0.6V4.9c-0.3,0.1-0.5,0.2-0.7,0.3
					l-0.3-0.3c0.3,0,0.6-0.1,1-0.2V2.9c0-0.4,0-0.7-0.1-1.1c0.3,0,0.6,0.1,1,0.1c0.4,0.1,0.5,0.1,0.5,0.2c0,0.1-0.1,0.2-0.3,0.3
					c-0.1,0-0.2,0.1-0.2,0.2v1.6L99,4V3c0-0.6,0-1.2-0.1-1.7c0.3,0,0.6,0.1,1.1,0.2c0.3,0,0.5,0.1,0.5,0.2c0,0.1-0.1,0.2-0.3,0.2
					C100,2,100,2,100,2.2v1.5l0.6-0.2C100.7,3.3,100.8,3.2,100.8,3.1z M100,6.7c0.2,0,0.3,0,0.4,0c0.1,0,0.2-0.1,0.3-0.3
					c0-0.3,0-1.2,0-2.8L100,4V6.7z"/>
				<path class="st1" d="M108.2,1.4c0.2,0,0.4,0.1,0.4,0.2c0,0-0.1,0.1-0.2,0.2c-0.2,0.1-0.2,0.2-0.2,0.3v0.4h2c0,0,0.1-0.1,0.3-0.4
					c0.2-0.3,0.3-0.4,0.4-0.4c0.1,0,0.3,0.1,0.6,0.4c0.3,0.3,0.4,0.4,0.4,0.5c0,0.1-0.1,0.2-0.2,0.2H110c0.1,0,0.1,0.1,0.2,0.1
					c0.3,0.2,0.5,0.3,0.5,0.4c0,0.1-0.1,0.1-0.3,0.1l-0.3,0c-0.3,0.2-0.6,0.3-0.9,0.5c0.4,0.1,0.6,0.3,0.8,0.4
					c0.1,0.1,0.2,0.2,0.2,0.3c0,0.2,0,0.3-0.1,0.3c0,0-0.1,0.1-0.1,0.1h0.4c0,0,0.1-0.1,0.3-0.3c0.2-0.3,0.4-0.4,0.4-0.4
					c0.1,0,0.3,0.2,0.6,0.5c0.2,0.2,0.3,0.3,0.3,0.3c0,0.1-0.1,0.2-0.2,0.2h-6.7v1c0,0.6,0,1.2-0.1,1.7c-0.1,0.4-0.3,0.8-0.5,1.2
					c-0.2,0.3-0.5,0.6-0.9,0.9l-0.1-0.1c0.3-0.5,0.4-1,0.5-1.4c0.1-0.5,0.2-1.3,0.2-2.4c0-0.8,0-1.4-0.1-1.7
					c0.5,0.2,0.9,0.3,1.2,0.4h4.2c-0.1,0-0.2-0.1-0.3-0.2c-0.3-0.2-0.6-0.4-0.9-0.5c0,0-0.1,0-0.1,0c-0.6,0.2-1.6,0.4-2.8,0.6l0-0.2
					c0.9-0.3,1.7-0.6,2.2-0.8c-0.5-0.2-1.1-0.4-1.9-0.6l0-0.1c1,0.1,1.9,0.3,2.5,0.4c0.4-0.2,0.8-0.5,1.1-0.7h-4c-0.5,0-0.9,0-1.1,0
					l-0.2-0.4c0.3,0.1,0.7,0.1,1.3,0.1h1.9V2.1c0-0.3,0-0.5-0.1-0.8C107.5,1.3,107.8,1.4,108.2,1.4z M107,5.6
					c0.3,0.1,0.4,0.2,0.4,0.3c0,0.1-0.1,0.1-0.2,0.2c-0.2,0-0.2,0.1-0.3,0.1c-0.1,0.2-0.2,0.3-0.3,0.5h1.3V6.1c0-0.3,0-0.5-0.1-0.8
					c0.4,0,0.8,0.1,1.2,0.2c0.2,0,0.4,0.1,0.4,0.2c0,0-0.1,0.1-0.2,0.2c-0.2,0.1-0.2,0.2-0.2,0.3v0.6h0.8c0,0,0.1-0.1,0.3-0.3
					c0.2-0.3,0.4-0.4,0.4-0.4c0.1,0,0.3,0.2,0.6,0.5c0.2,0.2,0.3,0.3,0.3,0.4c0,0.1-0.1,0.1-0.2,0.1h-2.2V8h0.7c0,0,0.1-0.1,0.3-0.3
					c0.2-0.2,0.3-0.4,0.3-0.4c0.1,0,0.2,0.1,0.5,0.3c0.2,0.2,0.3,0.4,0.3,0.4c0,0.1-0.1,0.2-0.2,0.2h-2v1.2h1.2c0,0,0.1-0.1,0.3-0.4
					c0.2-0.3,0.3-0.4,0.4-0.4c0.1,0,0.3,0.1,0.6,0.4c0.3,0.3,0.4,0.4,0.4,0.5c0,0.1-0.1,0.1-0.2,0.1h-5.5c-0.5,0-0.9,0-1.1,0
					l-0.2-0.4c0.3,0,0.7,0.1,1.3,0.1h1.8V8.2h-0.7c-0.5,0-0.9,0-1.1,0l-0.2-0.4c0.3,0.1,0.7,0.1,1.3,0.1h0.7V6.9h-1.4
					c-0.1,0.1-0.1,0.2-0.2,0.2c-0.2,0.3-0.5,0.5-0.9,0.8l-0.1-0.1c0.2-0.4,0.4-0.8,0.6-1.1c0.1-0.4,0.2-0.8,0.3-1.3
					C106.4,5.4,106.7,5.5,107,5.6z"/>
			</g>
		</g>
		<g>
			<g>
				<polyline class="st1" points="7,5.7 8.1,4.1 12.5,4.1 10.9,1.7 7,1.7 4.2,5.7 7,9.7 10.9,9.7 12.5,7.3 8.1,7.3 7,5.7 				"/>
				<polyline class="st1" points="10.2,5.7 9.2,4.3 8.2,5.7 9.2,7.1 10.2,5.7 				"/>
				<polyline class="st1" points="3.8,5.7 6.6,1.7 3.8,1.7 1,5.7 3.8,9.7 6.6,9.7 3.8,5.7 				"/>
				<polyline class="st1" points="14,5.7 11.3,1.7 14.1,1.7 16.8,5.7 14.1,9.7 11.3,9.7 14,5.7 				"/>
				<polyline class="st1" points="9.5,4.3 11,4.3 12,5.7 11,7.1 9.5,7.1 10.5,5.7 9.5,4.3 				"/>
			</g>
			<g>
				<path class="st1" d="M48.8,7.3v0.3v2.2h0.7V9.4H50h0.2h1.4V6.7h-2.9V7.3z M49.5,8.6V8.3V7H51v2h-1h-0.2h-0.3V8.6z"/>
				<rect x="48.8" y="4.2" class="st1" width="2.9" height="0.4"/>
				<rect x="48.4" y="2.8" class="st1" width="3.6" height="0.4"/>
				<path class="st1" d="M55.8,8.8C55.4,8.5,55,8.1,55,8.1c0.3-0.4,0.5-0.6,0.8-1.2c0.2-0.5,0.4-1,0.5-1.5h-4.4v0.3h3.5
					c0,0-0.2,0.6-0.4,1c-0.2,0.5-0.5,0.9-0.5,0.9c-0.3-0.3-0.5-0.5-0.7-0.7c-0.4-0.5-0.6-0.8-0.6-0.8l-0.9,0c0,0.1,0.4,0.7,0.9,1.2
					C53.6,7.7,54,8,54,8.1c-0.4,0.3-0.7,0.5-1.1,0.8c-0.4,0.2-0.7,0.4-1.1,0.6L52,9.8c0.4-0.1,0.9-0.3,1.3-0.5
					c0.4-0.2,0.8-0.4,1.2-0.7c0.3,0.2,0.7,0.5,1,0.7c0.3,0.2,0.7,0.4,1.1,0.5L57,9.4C57,9.4,56.3,9,55.8,8.8z"/>
				<path class="st1" d="M52.2,5.1c0.5-0.4,0.9-0.8,1.1-1.3c0.2-0.5,0.3-1,0.3-1.6V1.9h1v2c0,0.2,0,0.3,0.1,0.4
					c0,0.1,0.2,0.2,0.3,0.2c0.6,0,1,0,1.3-0.1c0.3,0,0.5-0.4,0.7-1l-0.8-0.3c0,0.2,0,0.3-0.1,0.5c-0.1,0.2-0.1,0.5-0.3,0.5h-0.4
					c-0.1,0-0.1-0.1-0.2-0.1c0-0.1,0-0.2,0-0.2V1.5h-2.3l0,1.2c0,0.9-0.2,1.1-0.4,1.4c-0.2,0.2-0.4,0.4-0.6,0.6L52.2,5.1z"/>
				<rect x="48.8" y="1.5" class="st1" width="2.9" height="0.3"/>
				<rect x="48.8" y="5.4" class="st1" width="2.9" height="0.3"/>
				<path class="st1" d="M33.5,4.6h3V4.2h-3v-1h3.6V2.9h-2.5c0.1-0.1,0.2-0.2,0.3-0.3C35,2.5,35.3,2,35.5,1.8l-0.8-0.5
					c-0.2,0.2-0.3,0.5-0.5,0.8c-0.1,0.2-0.3,0.5-0.4,0.7h-2.1l0.5-0.5C32,2.2,31.9,2,31.6,1.9c-0.2-0.2-0.5-0.3-0.7-0.4l-0.3,0.3
					c0.2,0.2,0.3,0.4,0.5,0.6c0.1,0.1,0.3,0.4,0.5,0.6h-2.5v0.3h3.6v1h-3v0.3h3v1h-3.9v0.3h8.6V5.6h-3.9V4.6z"/>
				<path class="st1" d="M33.7,7.5h3.4V7.2h-3.6l0-1l-0.8,0c0,0,0,0.6,0,0.7c0,0.1,0,0.2-0.1,0.3h-3.5v0.3h3.4
					c-0.4,0.7-1.4,1.6-3.8,1.9v0.5c0,0,2.7,0,4.3-1.9l0.1-0.1l0,0c1.4,1.8,4.3,2,4.3,2V9.5C34.4,8.7,33.8,7.7,33.7,7.5z"/>
				<path class="st1" d="M46.7,9.2h-4.2c-0.4,0-0.7-0.1-1.1-0.2c-0.4-0.1-0.7-0.2-1-0.4c0.2-0.5,0.4-1.1,0.5-1.7
					c0.1-0.6,0.2-1.2,0.2-1.8H40c0.2-0.5,0.4-0.9,0.6-1.4c0.2-0.5,0.4-0.9,0.7-1.4c0-0.1,0-0.2,0-0.3C41.2,2,41.1,2,41,2h-2.3v0.3
					h1.8l-1.5,3.1h1.4c0,0.5-0.1,0.9-0.1,1.4c-0.1,0.5-0.2,0.9-0.3,1.4c-0.1-0.3-0.3-0.7-0.3-1c-0.1-0.3-0.1-0.7-0.1-1H39
					c0,0.4,0.1,0.8,0.2,1.2c0.1,0.4,0.3,0.8,0.5,1.2c-0.2,0.2-0.4,0.3-0.5,0.5c-0.2,0.1-0.4,0.3-0.6,0.5l0.2,0.2
					c0.2-0.1,1-0.7,1.2-0.8c0.3,0.2,0.6,0.3,1,0.4c0.3,0.1,0.7,0.2,1,0.2H47l0,0l0.1-0.4h-0.1H46.7z"/>
				<path class="st1" d="M42.8,2.9h0.9v0.6v0.4h-0.2h-0.2h-2v0.3h2.2h0.2v0.2v0.8h-1.9v0.4h1.9v0.8h-1.8v0.3h1.8v0.9h-2.2v0.4h2.2V9
					h0.7V8.2H46h0.2h0.5V7.8h-0.7h-0.2h-1.5V6.9h0.8h0.2h0.9V6.6h-1.2H45h-0.6V5.7h0h0.2h1.7V4.4V4.2h0.1H47V3.9h-0.6V2.6h-1.1H45
					h-0.6V2.3c0-0.1,0-0.3,0.1-0.4c0-0.2-1-0.2-1-0.2c0,0.1,0.1,0.3,0.1,0.5c0,0.1,0,0.2,0,0.3h-1.1h-0.2h-0.5v0.3h0.7H42.8z
					 M44.3,3.5V3.2V2.9h0.9h0.2h0V3v0.3v0.6h-1.2V3.5z M44.3,5.3v-1h1.2v1.1L44.3,5.3L44.3,5.3L44.3,5.3z"/>
				<path class="st1" d="M26.7,8.8c0,0.1-0.1,0.3-0.1,0.3s-0.2-0.2-0.4-0.6c-0.2-0.3-0.2-0.5-0.2-0.6L27,5.5c-0.1-0.2-0.8-0.4-1-0.5
					c0,0.3-0.4,1.5-0.5,1.8c-0.1-0.3-0.1-0.6-0.2-1c0-0.3-0.1-0.7-0.1-1V4.4h1.8V4.1h-0.6l0.6-0.4c-0.2-0.2-0.4-0.4-0.7-0.5
					c-0.2-0.2-0.4-0.3-0.6-0.4l-0.3,0.3c0.1,0.2,0.3,0.3,0.4,0.5c0.1,0.1,0.3,0.4,0.5,0.6h-1.2c0-0.1,0.1-0.7,0.1-0.7h-0.9V2.7h0.3
					h2.6V2.4h-2.6h-0.3c0-0.1,0-0.3,0-0.4c0-0.2,0.1-0.4,0.1-0.5c0,0-0.9,0-0.9,0.2c0,0.1,0.1,0.3,0.1,0.4v0.3H22h-0.2V2.1
					c0-0.1,0-0.3,0.1-0.4c0-0.2-1-0.2-1-0.2c0,0.1,0.1,0.3,0.1,0.5c0,0.1,0,0.3,0,0.4h-2.3v0.3h2.3v0.7h0.7V3V2.7H22h1.7V3v0.4h0.7
					c0,0.1,0,0.7,0,0.7h-4v1.2h-0.6V4.4c0-0.1,0-0.3,0.1-0.4c0-0.2-1-0.2-1-0.2c0,0.1,0.1,0.3,0.1,0.5c0,0.2,0,0.4,0,0.6v0.7h1.4
					v0.9h-1.6v0.3h0.5c0,0.3-0.1,0.6-0.2,0.8c-0.1,0.2-0.2,0.5-0.3,0.7L19,8.7c0.3-0.3,0.6-0.5,0.7-0.8c0.1-0.3,0.2-0.6,0.3-1h0.4
					c-0.1,0.8-0.2,1.3-0.4,1.7c-0.2,0.4-0.4,0.7-0.8,1.2l0.1,0.1l0.2,0.2c0-0.1,0.1-0.1,0.1-0.2C20.4,9,20.9,8.3,21,7.5
					c0.1-0.8,0.2-1.9,0.1-3.1h3.4c0,0.5,0.1,1.1,0.1,1.7c0.1,0.6,0.2,1.1,0.3,1.7c-0.2,0.3-0.4,0.5-0.6,0.8V8.2h-0.8V7.4h0.8V6.1
					h-0.8V5.5h0.8V5.1h-2.9V9h0.7V8.7h2.2c-0.1,0-0.1,0.1-0.2,0.2c-0.3,0.3-0.6,0.6-1,0.8l0.2,0.2l0,0c0,0,0,0,0.1,0
					c0.3-0.2,0.6-0.4,0.9-0.6c0.3-0.2,0.6-0.5,0.9-0.8c0.1,0.2,0.3,0.5,0.6,0.8c0.1,0.1,0.4,0.5,0.7,0.5c0.3,0,0.6-0.4,0.6-0.4
					c0.2-0.3,0.3-0.5,0.3-0.6l-0.7-0.4C26.7,8.6,26.7,8.6,26.7,8.8z M22.2,5.5h0.6v0.6h-0.6V5.5z M22.2,6.4h1.5v0.6h-1.5V6.4z
					 M22.8,8.2h-0.6V7.4h0.6V8.2z"/>
			</g>
		</g>
	</g>
	<g>
		<path class="st1" d="M116.8,1.7h0.3l0.4,1.2l0.4-1.2h0.3v1.4H118V2.3c0,0,0-0.1,0-0.1c0-0.1,0-0.1,0-0.2l-0.4,1.2h-0.2L117,1.9v0
			c0,0,0,0.1,0,0.2c0,0.1,0,0.1,0,0.2v0.9h-0.2V1.7z"/>
		<path class="st1" d="M118.9,2.1v0.7c0,0.1,0,0.1,0,0.1c0,0.1,0.1,0.1,0.2,0.1c0.1,0,0.2-0.1,0.2-0.2c0-0.1,0-0.1,0-0.2V2.1h0.2
			v1.1h-0.2l0-0.2c0,0-0.1,0.1-0.1,0.1c-0.1,0.1-0.1,0.1-0.2,0.1c-0.1,0-0.2-0.1-0.3-0.2c0-0.1,0-0.1,0-0.2V2.1H118.9z"/>
		<path class="st1" d="M120.1,2.8c0,0.1,0,0.1,0,0.1c0,0.1,0.1,0.1,0.2,0.1c0.1,0,0.1,0,0.2,0s0.1-0.1,0.1-0.1c0,0,0-0.1-0.1-0.1
			c0,0-0.1,0-0.2-0.1l-0.1,0c-0.1,0-0.2,0-0.2-0.1c-0.1,0-0.1-0.1-0.1-0.2c0-0.1,0-0.2,0.1-0.2c0.1-0.1,0.2-0.1,0.3-0.1
			c0.2,0,0.3,0,0.3,0.1c0,0.1,0.1,0.1,0.1,0.2h-0.2c0,0,0-0.1,0-0.1c0,0-0.1-0.1-0.2-0.1c-0.1,0-0.1,0-0.2,0c0,0-0.1,0.1-0.1,0.1
			c0,0,0,0.1,0.1,0.1c0,0,0.1,0,0.1,0l0.1,0c0.1,0,0.2,0.1,0.3,0.1c0.1,0,0.1,0.1,0.1,0.2c0,0.1,0,0.2-0.1,0.2s-0.2,0.1-0.3,0.1
			c-0.2,0-0.3,0-0.3-0.1c-0.1-0.1-0.1-0.2-0.1-0.3H120.1z"/>
		<path class="st1" d="M121.9,2.1c0.1,0,0.1,0.1,0.2,0.1c0,0.1,0.1,0.1,0.1,0.2c0,0,0,0.1,0,0.2h-0.8c0,0.1,0,0.2,0.1,0.3
			c0,0.1,0.1,0.1,0.2,0.1c0.1,0,0.2,0,0.2-0.1c0,0,0.1-0.1,0.1-0.1h0.2c0,0,0,0.1,0,0.1c0,0-0.1,0.1-0.1,0.1
			c-0.1,0.1-0.1,0.1-0.2,0.1c0,0-0.1,0-0.1,0c-0.1,0-0.2,0-0.3-0.1c-0.1-0.1-0.1-0.2-0.1-0.4c0-0.2,0-0.3,0.1-0.4
			c0.1-0.1,0.2-0.2,0.4-0.2C121.7,2.1,121.8,2.1,121.9,2.1z M121.9,2.5c0-0.1,0-0.1,0-0.2c0-0.1-0.1-0.1-0.2-0.1
			c-0.1,0-0.1,0-0.2,0.1c-0.1,0.1-0.1,0.1-0.1,0.2H121.9z"/>
		<path class="st1" d="M122.7,2.1v0.7c0,0.1,0,0.1,0,0.1c0,0.1,0.1,0.1,0.2,0.1c0.1,0,0.2-0.1,0.2-0.2c0-0.1,0-0.1,0-0.2V2.1h0.2
			v1.1h-0.2l0-0.2c0,0-0.1,0.1-0.1,0.1c-0.1,0.1-0.1,0.1-0.2,0.1c-0.1,0-0.2-0.1-0.3-0.2c0-0.1,0-0.1,0-0.2V2.1H122.7z"/>
		<path class="st1" d="M123.9,2.1h0.2v0.1c0-0.1,0.1-0.1,0.1-0.1c0.1,0,0.1-0.1,0.2-0.1c0.1,0,0.2,0,0.2,0.1c0,0,0.1,0.1,0.1,0.1
			c0-0.1,0.1-0.1,0.1-0.1c0.1,0,0.1,0,0.2,0c0.1,0,0.2,0.1,0.3,0.2c0,0.1,0,0.1,0,0.2v0.7h-0.2V2.4c0-0.1,0-0.1-0.1-0.1
			c0,0-0.1,0-0.1,0c-0.1,0-0.1,0-0.2,0.1s-0.1,0.1-0.1,0.2v0.6h-0.2V2.5c0-0.1,0-0.1,0-0.2c0,0-0.1-0.1-0.2-0.1
			c-0.1,0-0.1,0-0.2,0.1c-0.1,0.1-0.1,0.1-0.1,0.3v0.6h-0.2V2.1z"/>
		<path class="st1" d="M125.9,2.8c0,0.1,0,0.1,0,0.1c0,0.1,0.1,0.1,0.2,0.1c0.1,0,0.1,0,0.2,0s0.1-0.1,0.1-0.1c0,0,0-0.1-0.1-0.1
			c0,0-0.1,0-0.2-0.1l-0.1,0c-0.1,0-0.2,0-0.2-0.1c-0.1,0-0.1-0.1-0.1-0.2c0-0.1,0-0.2,0.1-0.2c0.1-0.1,0.2-0.1,0.3-0.1
			c0.2,0,0.3,0,0.3,0.1c0,0.1,0.1,0.1,0.1,0.2h-0.2c0,0,0-0.1,0-0.1c0,0-0.1-0.1-0.2-0.1c-0.1,0-0.1,0-0.2,0c0,0-0.1,0.1-0.1,0.1
			c0,0,0,0.1,0.1,0.1c0,0,0.1,0,0.1,0l0.1,0c0.1,0,0.2,0.1,0.3,0.1c0.1,0,0.1,0.1,0.1,0.2c0,0.1,0,0.2-0.1,0.2s-0.2,0.1-0.3,0.1
			c-0.2,0-0.3,0-0.3-0.1c-0.1-0.1-0.1-0.2-0.1-0.3H125.9z"/>
		<path class="st1" d="M128.9,2.5C128.9,2.5,128.9,2.5,128.9,2.5c0.1-0.1,0.1-0.1,0.1-0.1c0-0.1,0-0.1-0.1-0.1s-0.1,0-0.2,0
			c-0.1,0-0.2,0-0.2,0.1c0,0,0,0.1,0,0.1h-0.2c0-0.1,0-0.2,0.1-0.3c0.1-0.1,0.2-0.1,0.3-0.1c0.1,0,0.2,0,0.3,0.1
			c0.1,0,0.1,0.1,0.1,0.2V3c0,0,0,0,0,0c0,0,0,0,0,0c0,0,0,0,0,0s0,0,0,0v0.1c0,0,0,0-0.1,0c0,0,0,0-0.1,0c-0.1,0-0.1,0-0.1-0.1
			c0,0,0-0.1,0-0.1c0,0-0.1,0.1-0.2,0.1c-0.1,0-0.1,0.1-0.2,0.1c-0.1,0-0.2,0-0.2-0.1s-0.1-0.1-0.1-0.2c0-0.1,0-0.2,0.1-0.2
			c0.1-0.1,0.1-0.1,0.2-0.1L128.9,2.5z M128.5,3c0,0,0.1,0,0.1,0c0.1,0,0.1,0,0.2,0c0.1,0,0.1-0.1,0.1-0.2V2.6c0,0,0,0-0.1,0
			s-0.1,0-0.1,0l-0.1,0c-0.1,0-0.1,0-0.1,0c-0.1,0-0.1,0.1-0.1,0.1C128.4,2.9,128.5,3,128.5,3z"/>
		<path class="st1" d="M129.6,2.1h0.2v0.2c0,0,0-0.1,0.1-0.1c0.1-0.1,0.1-0.1,0.2-0.1c0,0,0,0,0,0c0,0,0,0,0,0v0.2c0,0,0,0,0,0
			c0,0,0,0,0,0c-0.1,0-0.2,0-0.2,0.1c0,0.1-0.1,0.1-0.1,0.2v0.6h-0.2V2.1z"/>
		<path class="st1" d="M131.1,2.1c0.1,0,0.1,0.1,0.2,0.1c0,0.1,0.1,0.1,0.1,0.2c0,0,0,0.1,0,0.2h-0.8c0,0.1,0,0.2,0.1,0.3
			c0,0.1,0.1,0.1,0.2,0.1c0.1,0,0.2,0,0.2-0.1c0,0,0.1-0.1,0.1-0.1h0.2c0,0,0,0.1,0,0.1c0,0-0.1,0.1-0.1,0.1
			c-0.1,0.1-0.1,0.1-0.2,0.1c0,0-0.1,0-0.1,0c-0.1,0-0.2,0-0.3-0.1c-0.1-0.1-0.1-0.2-0.1-0.4c0-0.2,0-0.3,0.1-0.4
			c0.1-0.1,0.2-0.2,0.4-0.2C131,2.1,131.1,2.1,131.1,2.1z M131.2,2.5c0-0.1,0-0.1,0-0.2c0-0.1-0.1-0.1-0.2-0.1c-0.1,0-0.1,0-0.2,0.1
			c-0.1,0.1-0.1,0.1-0.1,0.2H131.2z"/>
		<path class="st1" d="M133.2,1.8c0-0.1,0.1-0.1,0.2-0.1c0,0,0,0,0,0c0,0,0,0,0,0v0.2c0,0,0,0,0,0c0,0,0,0,0,0c-0.1,0-0.1,0-0.1,0
			s0,0.1,0,0.2h0.2v0.1h-0.2v0.9h-0.2V2.2h-0.1V2.1h0.1V1.9C133.2,1.9,133.2,1.8,133.2,1.8z"/>
		<path class="st1" d="M133.9,1.7h0.2v0.2h-0.2V1.7z M133.9,2.1h0.2v1h-0.2V2.1z"/>
		<path class="st1" d="M134.6,2.1h0.2v0.2c0,0,0-0.1,0.1-0.1c0.1-0.1,0.1-0.1,0.2-0.1c0,0,0,0,0,0c0,0,0,0,0,0v0.2c0,0,0,0,0,0
			c0,0,0,0,0,0c-0.1,0-0.2,0-0.2,0.1c0,0.1-0.1,0.1-0.1,0.2v0.6h-0.2V2.1z"/>
		<path class="st1" d="M135.6,2.8c0,0.1,0,0.1,0,0.1c0,0.1,0.1,0.1,0.2,0.1c0.1,0,0.1,0,0.2,0s0.1-0.1,0.1-0.1c0,0,0-0.1-0.1-0.1
			c0,0-0.1,0-0.2-0.1l-0.1,0c-0.1,0-0.2,0-0.2-0.1c-0.1,0-0.1-0.1-0.1-0.2c0-0.1,0-0.2,0.1-0.2c0.1-0.1,0.2-0.1,0.3-0.1
			c0.2,0,0.3,0,0.3,0.1c0,0.1,0.1,0.1,0.1,0.2h-0.2c0,0,0-0.1,0-0.1c0,0-0.1-0.1-0.2-0.1c-0.1,0-0.1,0-0.2,0c0,0-0.1,0.1-0.1,0.1
			c0,0,0,0.1,0.1,0.1c0,0,0.1,0,0.1,0l0.1,0c0.1,0,0.2,0.1,0.3,0.1c0.1,0,0.1,0.1,0.1,0.2c0,0.1,0,0.2-0.1,0.2s-0.2,0.1-0.3,0.1
			c-0.2,0-0.3,0-0.3-0.1c-0.1-0.1-0.1-0.2-0.1-0.3H135.6z"/>
		<path class="st1" d="M136.7,1.8h0.2v0.3h0.2v0.1h-0.2v0.7c0,0,0,0.1,0,0.1c0,0,0,0,0.1,0c0,0,0,0,0,0c0,0,0,0,0,0v0.1
			c0,0,0,0-0.1,0c0,0,0,0-0.1,0c-0.1,0-0.1,0-0.2-0.1c0,0,0-0.1,0-0.2V2.2h-0.1V2.1h0.1V1.8z"/>
		<path class="st1" d="M139.5,2.2c0.1,0.1,0.1,0.2,0.1,0.4c0,0.2,0,0.3-0.1,0.4s-0.2,0.2-0.4,0.2c-0.1,0-0.3,0-0.3-0.1
			c-0.1-0.1-0.1-0.2-0.1-0.4c0-0.2,0-0.3,0.1-0.4c0.1-0.1,0.2-0.2,0.4-0.2C139.3,2.1,139.4,2.1,139.5,2.2z M139.4,2.9
			c0-0.1,0.1-0.2,0.1-0.3c0-0.1,0-0.2,0-0.2c0-0.1-0.1-0.1-0.3-0.1c-0.1,0-0.2,0-0.2,0.1s-0.1,0.2-0.1,0.3c0,0.1,0,0.2,0.1,0.3
			s0.1,0.1,0.2,0.1C139.3,3,139.4,3,139.4,2.9z"/>
		<path class="st1" d="M140.2,1.8c0-0.1,0.1-0.1,0.2-0.1c0,0,0,0,0,0c0,0,0,0,0,0v0.2c0,0,0,0,0,0c0,0,0,0,0,0c-0.1,0-0.1,0-0.1,0
			s0,0.1,0,0.2h0.2v0.1h-0.2v0.9h-0.2V2.2H140V2.1h0.1V1.9C140.1,1.9,140.1,1.8,140.2,1.8z"/>
		<path class="st1" d="M142.8,2.5C142.8,2.5,142.8,2.5,142.8,2.5c0.1-0.1,0.1-0.1,0.1-0.1c0-0.1,0-0.1-0.1-0.1s-0.1,0-0.2,0
			c-0.1,0-0.2,0-0.2,0.1c0,0,0,0.1,0,0.1h-0.2c0-0.1,0-0.2,0.1-0.3c0.1-0.1,0.2-0.1,0.3-0.1c0.1,0,0.2,0,0.3,0.1
			c0.1,0,0.1,0.1,0.1,0.2V3c0,0,0,0,0,0c0,0,0,0,0,0c0,0,0,0,0,0s0,0,0,0v0.1c0,0,0,0-0.1,0c0,0,0,0-0.1,0c-0.1,0-0.1,0-0.1-0.1
			c0,0,0-0.1,0-0.1c0,0-0.1,0.1-0.2,0.1c-0.1,0-0.1,0.1-0.2,0.1c-0.1,0-0.2,0-0.2-0.1s-0.1-0.1-0.1-0.2c0-0.1,0-0.2,0.1-0.2
			c0.1-0.1,0.1-0.1,0.2-0.1L142.8,2.5z M142.4,3c0,0,0.1,0,0.1,0c0.1,0,0.1,0,0.2,0c0.1,0,0.1-0.1,0.1-0.2V2.6c0,0,0,0-0.1,0
			s-0.1,0-0.1,0l-0.1,0c-0.1,0-0.1,0-0.1,0c-0.1,0-0.1,0.1-0.1,0.1C142.3,2.9,142.3,3,142.4,3z"/>
		<path class="st1" d="M143.5,1.7h0.2v1.4h-0.2V1.7z"/>
		<path class="st1" d="M144.2,1.7h0.2v1.4h-0.2V1.7z"/>
		<path class="st1" d="M146.3,2.8c0,0.1,0,0.1,0,0.1c0,0.1,0.1,0.1,0.2,0.1c0.1,0,0.1,0,0.2,0s0.1-0.1,0.1-0.1c0,0,0-0.1-0.1-0.1
			c0,0-0.1,0-0.2-0.1l-0.1,0c-0.1,0-0.2,0-0.2-0.1c-0.1,0-0.1-0.1-0.1-0.2c0-0.1,0-0.2,0.1-0.2c0.1-0.1,0.2-0.1,0.3-0.1
			c0.2,0,0.3,0,0.3,0.1c0,0.1,0.1,0.1,0.1,0.2h-0.2c0,0,0-0.1,0-0.1c0,0-0.1-0.1-0.2-0.1c-0.1,0-0.1,0-0.2,0c0,0-0.1,0.1-0.1,0.1
			c0,0,0,0.1,0.1,0.1c0,0,0.1,0,0.1,0l0.1,0c0.1,0,0.2,0.1,0.3,0.1c0.1,0,0.1,0.1,0.1,0.2c0,0.1,0,0.2-0.1,0.2s-0.2,0.1-0.3,0.1
			c-0.2,0-0.3,0-0.3-0.1c-0.1-0.1-0.1-0.2-0.1-0.3H146.3z"/>
		<path class="st1" d="M147.3,2.1h0.2v0.1c0,0,0.1-0.1,0.1-0.1c0.1,0,0.1-0.1,0.2-0.1c0.1,0,0.2,0,0.3,0.1c0.1,0.1,0.1,0.2,0.1,0.4
			c0,0.2-0.1,0.4-0.2,0.5c-0.1,0.1-0.2,0.1-0.3,0.1c-0.1,0-0.1,0-0.2-0.1c0,0-0.1-0.1-0.1-0.1v0.5h-0.2V2.1z M148,2.9
			c0.1-0.1,0.1-0.2,0.1-0.3c0-0.1,0-0.2,0-0.2c0-0.1-0.1-0.2-0.3-0.2c-0.1,0-0.2,0.1-0.3,0.2c0,0.1,0,0.1,0,0.2c0,0.1,0,0.2,0,0.2
			c0,0.1,0.1,0.2,0.3,0.2C147.9,3,148,3,148,2.9z"/>
		<path class="st1" d="M148.7,1.7h0.2v0.2h-0.2V1.7z M148.7,2.1h0.2v1h-0.2V2.1z"/>
		<path class="st1" d="M149.3,2.1h0.2v0.2c0,0,0-0.1,0.1-0.1c0.1-0.1,0.1-0.1,0.2-0.1c0,0,0,0,0,0c0,0,0,0,0,0v0.2c0,0,0,0,0,0
			c0,0,0,0,0,0c-0.1,0-0.2,0-0.2,0.1c0,0.1-0.1,0.1-0.1,0.2v0.6h-0.2V2.1z"/>
		<path class="st1" d="M150.2,1.7h0.2v0.2h-0.2V1.7z M150.2,2.1h0.2v1h-0.2V2.1z"/>
		<path class="st1" d="M150.9,1.8h0.2v0.3h0.2v0.1h-0.2v0.7c0,0,0,0.1,0,0.1c0,0,0,0,0.1,0c0,0,0,0,0,0c0,0,0,0,0,0v0.1
			c0,0,0,0-0.1,0c0,0,0,0-0.1,0c-0.1,0-0.1,0-0.2-0.1c0,0,0-0.1,0-0.2V2.2h-0.1V2.1h0.1V1.8z"/>
		<path class="st1" d="M151.8,2.1v0.7c0,0.1,0,0.1,0,0.1c0,0.1,0.1,0.1,0.2,0.1c0.1,0,0.2-0.1,0.2-0.2c0-0.1,0-0.1,0-0.2V2.1h0.2
			v1.1h-0.2l0-0.2c0,0-0.1,0.1-0.1,0.1c-0.1,0.1-0.1,0.1-0.2,0.1c-0.1,0-0.2-0.1-0.3-0.2c0-0.1,0-0.1,0-0.2V2.1H151.8z"/>
		<path class="st1" d="M153.5,2.5C153.6,2.5,153.6,2.5,153.5,2.5c0.1-0.1,0.1-0.1,0.1-0.1c0-0.1,0-0.1-0.1-0.1s-0.1,0-0.2,0
			c-0.1,0-0.2,0-0.2,0.1c0,0,0,0.1,0,0.1H153c0-0.1,0-0.2,0.1-0.3c0.1-0.1,0.2-0.1,0.3-0.1c0.1,0,0.2,0,0.3,0.1
			c0.1,0,0.1,0.1,0.1,0.2V3c0,0,0,0,0,0c0,0,0,0,0,0c0,0,0,0,0,0s0,0,0,0v0.1c0,0,0,0-0.1,0c0,0,0,0-0.1,0c-0.1,0-0.1,0-0.1-0.1
			c0,0,0-0.1,0-0.1c0,0-0.1,0.1-0.2,0.1c-0.1,0-0.1,0.1-0.2,0.1c-0.1,0-0.2,0-0.2-0.1s-0.1-0.1-0.1-0.2c0-0.1,0-0.2,0.1-0.2
			c0.1-0.1,0.1-0.1,0.2-0.1L153.5,2.5z M153.1,3c0,0,0.1,0,0.1,0c0.1,0,0.1,0,0.2,0c0.1,0,0.1-0.1,0.1-0.2V2.6c0,0,0,0-0.1,0
			s-0.1,0-0.1,0l-0.1,0c-0.1,0-0.1,0-0.1,0c-0.1,0-0.1,0.1-0.1,0.1C153.1,2.9,153.1,3,153.1,3z"/>
		<path class="st1" d="M154.3,1.7h0.2v1.4h-0.2V1.7z"/>
		<path class="st1" d="M156.3,2.1h0.2v0.1c0-0.1,0.1-0.1,0.1-0.1c0.1,0,0.1-0.1,0.2-0.1c0.1,0,0.2,0,0.2,0.1c0,0,0.1,0.1,0.1,0.1
			c0-0.1,0.1-0.1,0.1-0.1c0.1,0,0.1,0,0.2,0c0.1,0,0.2,0.1,0.3,0.2c0,0.1,0,0.1,0,0.2v0.7h-0.2V2.4c0-0.1,0-0.1-0.1-0.1
			c0,0-0.1,0-0.1,0c-0.1,0-0.1,0-0.2,0.1s-0.1,0.1-0.1,0.2v0.6h-0.2V2.5c0-0.1,0-0.1,0-0.2c0,0-0.1-0.1-0.2-0.1
			c-0.1,0-0.1,0-0.2,0.1c-0.1,0.1-0.1,0.1-0.1,0.3v0.6h-0.2V2.1z"/>
		<path class="st1" d="M158.8,2.1c0.1,0,0.1,0.1,0.2,0.1c0,0.1,0.1,0.1,0.1,0.2c0,0,0,0.1,0,0.2h-0.8c0,0.1,0,0.2,0.1,0.3
			c0,0.1,0.1,0.1,0.2,0.1c0.1,0,0.2,0,0.2-0.1c0,0,0.1-0.1,0.1-0.1h0.2c0,0,0,0.1,0,0.1c0,0-0.1,0.1-0.1,0.1
			c-0.1,0.1-0.1,0.1-0.2,0.1c0,0-0.1,0-0.1,0c-0.1,0-0.2,0-0.3-0.1c-0.1-0.1-0.1-0.2-0.1-0.4c0-0.2,0-0.3,0.1-0.4
			c0.1-0.1,0.2-0.2,0.4-0.2C158.6,2.1,158.7,2.1,158.8,2.1z M158.9,2.5c0-0.1,0-0.1,0-0.2c0-0.1-0.1-0.1-0.2-0.1
			c-0.1,0-0.1,0-0.2,0.1c-0.1,0.1-0.1,0.1-0.1,0.2H158.9z"/>
		<path class="st1" d="M160.1,2.1c0.1,0,0.1,0.1,0.2,0.1c0,0.1,0.1,0.1,0.1,0.2c0,0,0,0.1,0,0.2h-0.8c0,0.1,0,0.2,0.1,0.3
			c0,0.1,0.1,0.1,0.2,0.1c0.1,0,0.2,0,0.2-0.1c0,0,0.1-0.1,0.1-0.1h0.2c0,0,0,0.1,0,0.1c0,0-0.1,0.1-0.1,0.1
			c-0.1,0.1-0.1,0.1-0.2,0.1c0,0-0.1,0-0.1,0c-0.1,0-0.2,0-0.3-0.1c-0.1-0.1-0.1-0.2-0.1-0.4c0-0.2,0-0.3,0.1-0.4
			c0.1-0.1,0.2-0.2,0.4-0.2C160,2.1,160,2.1,160.1,2.1z M160.2,2.5c0-0.1,0-0.1,0-0.2c0-0.1-0.1-0.1-0.2-0.1c-0.1,0-0.1,0-0.2,0.1
			c-0.1,0.1-0.1,0.1-0.1,0.2H160.2z"/>
		<path class="st1" d="M160.8,1.8h0.2v0.3h0.2v0.1H161v0.7c0,0,0,0.1,0,0.1c0,0,0,0,0.1,0c0,0,0,0,0,0c0,0,0,0,0,0v0.1
			c0,0,0,0-0.1,0c0,0,0,0-0.1,0c-0.1,0-0.1,0-0.2-0.1c0,0,0-0.1,0-0.2V2.2h-0.1V2.1h0.1V1.8z"/>
		<path class="st1" d="M161.6,1.7h0.2v0.2h-0.2V1.7z M161.6,2.1h0.2v1h-0.2V2.1z"/>
		<path class="st1" d="M162.2,2.1h0.2v0.1c0-0.1,0.1-0.1,0.2-0.1s0.1,0,0.2,0c0.2,0,0.3,0.1,0.3,0.2c0,0.1,0,0.1,0,0.2v0.7h-0.2V2.5
			c0-0.1,0-0.1,0-0.2c0-0.1-0.1-0.1-0.2-0.1c0,0-0.1,0-0.1,0c0,0-0.1,0-0.1,0.1c0,0,0,0.1-0.1,0.1s0,0.1,0,0.2v0.6h-0.2V2.1z"/>
		<path class="st1" d="M164.1,2.1c0,0,0.1,0.1,0.1,0.1V2.1h0.2v1c0,0.1,0,0.2-0.1,0.3c-0.1,0.1-0.2,0.2-0.4,0.2
			c-0.1,0-0.2,0-0.3-0.1c-0.1-0.1-0.1-0.1-0.1-0.2h0.2c0,0,0,0.1,0.1,0.1c0,0,0.1,0.1,0.2,0.1c0.1,0,0.2,0,0.3-0.1
			c0-0.1,0-0.2,0-0.3c0,0.1-0.1,0.1-0.1,0.1c0,0-0.1,0-0.2,0c-0.1,0-0.2,0-0.3-0.1c-0.1-0.1-0.1-0.2-0.1-0.4c0-0.2,0-0.3,0.1-0.4
			s0.2-0.1,0.3-0.1C164,2.1,164,2.1,164.1,2.1z M164.1,2.3c-0.1-0.1-0.1-0.1-0.2-0.1c-0.1,0-0.2,0.1-0.3,0.2c0,0.1,0,0.1,0,0.2
			c0,0.1,0,0.2,0.1,0.3s0.1,0.1,0.2,0.1c0.1,0,0.2-0.1,0.3-0.2c0-0.1,0-0.1,0-0.2C164.2,2.5,164.2,2.4,164.1,2.3z"/>
		<path class="st1" d="M166.2,2.1h0.2v0.1c0,0,0.1-0.1,0.1-0.1c0.1,0,0.1-0.1,0.2-0.1c0.1,0,0.2,0,0.3,0.1c0.1,0.1,0.1,0.2,0.1,0.4
			c0,0.2-0.1,0.4-0.2,0.5c-0.1,0.1-0.2,0.1-0.3,0.1c-0.1,0-0.1,0-0.2-0.1c0,0-0.1-0.1-0.1-0.1v0.5h-0.2V2.1z M166.8,2.9
			c0.1-0.1,0.1-0.2,0.1-0.3c0-0.1,0-0.2,0-0.2c0-0.1-0.1-0.2-0.3-0.2c-0.1,0-0.2,0.1-0.3,0.2c0,0.1,0,0.1,0,0.2c0,0.1,0,0.2,0,0.2
			c0,0.1,0.1,0.2,0.3,0.2C166.7,3,166.8,3,166.8,2.9z"/>
		<path class="st1" d="M167.5,1.7h0.2v1.4h-0.2V1.7z"/>
		<path class="st1" d="M168.7,2.5C168.8,2.5,168.8,2.5,168.7,2.5c0.1-0.1,0.1-0.1,0.1-0.1c0-0.1,0-0.1-0.1-0.1s-0.1,0-0.2,0
			c-0.1,0-0.2,0-0.2,0.1c0,0,0,0.1,0,0.1h-0.2c0-0.1,0-0.2,0.1-0.3c0.1-0.1,0.2-0.1,0.3-0.1c0.1,0,0.2,0,0.3,0.1
			c0.1,0,0.1,0.1,0.1,0.2V3c0,0,0,0,0,0c0,0,0,0,0,0c0,0,0,0,0,0s0,0,0,0v0.1c0,0,0,0-0.1,0c0,0,0,0-0.1,0c-0.1,0-0.1,0-0.1-0.1
			c0,0,0-0.1,0-0.1c0,0-0.1,0.1-0.2,0.1c-0.1,0-0.1,0.1-0.2,0.1c-0.1,0-0.2,0-0.2-0.1s-0.1-0.1-0.1-0.2c0-0.1,0-0.2,0.1-0.2
			c0.1-0.1,0.1-0.1,0.2-0.1L168.7,2.5z M168.4,3c0,0,0.1,0,0.1,0c0.1,0,0.1,0,0.2,0c0.1,0,0.1-0.1,0.1-0.2V2.6c0,0,0,0-0.1,0
			s-0.1,0-0.1,0l-0.1,0c-0.1,0-0.1,0-0.1,0c-0.1,0-0.1,0.1-0.1,0.1C168.3,2.9,168.3,3,168.4,3z"/>
		<path class="st1" d="M170.2,2.2c0.1,0.1,0.1,0.2,0.1,0.3h-0.2c0-0.1,0-0.1-0.1-0.2s-0.1-0.1-0.2-0.1c-0.1,0-0.2,0.1-0.2,0.2
			c0,0.1,0,0.2,0,0.3c0,0.1,0,0.2,0.1,0.3c0,0.1,0.1,0.1,0.2,0.1c0.1,0,0.1,0,0.2-0.1c0,0,0.1-0.1,0.1-0.2h0.2
			c0,0.1-0.1,0.2-0.1,0.3s-0.2,0.1-0.3,0.1c-0.1,0-0.2-0.1-0.3-0.2c-0.1-0.1-0.1-0.2-0.1-0.4c0-0.2,0-0.3,0.1-0.4
			c0.1-0.1,0.2-0.2,0.3-0.2C170,2.1,170.1,2.1,170.2,2.2z"/>
		<path class="st1" d="M171.3,2.1c0.1,0,0.1,0.1,0.2,0.1c0,0.1,0.1,0.1,0.1,0.2c0,0,0,0.1,0,0.2h-0.8c0,0.1,0,0.2,0.1,0.3
			c0,0.1,0.1,0.1,0.2,0.1c0.1,0,0.2,0,0.2-0.1c0,0,0.1-0.1,0.1-0.1h0.2c0,0,0,0.1,0,0.1c0,0-0.1,0.1-0.1,0.1
			c-0.1,0.1-0.1,0.1-0.2,0.1c0,0-0.1,0-0.1,0c-0.1,0-0.2,0-0.3-0.1c-0.1-0.1-0.1-0.2-0.1-0.4c0-0.2,0-0.3,0.1-0.4
			c0.1-0.1,0.2-0.2,0.4-0.2C171.2,2.1,171.3,2.1,171.3,2.1z M171.4,2.5c0-0.1,0-0.1,0-0.2c0-0.1-0.1-0.1-0.2-0.1
			c-0.1,0-0.1,0-0.2,0.1c-0.1,0.1-0.1,0.1-0.1,0.2H171.4z"/>
		<path class="st1" d="M172.1,2.8c0,0.1,0,0.1,0,0.1c0,0.1,0.1,0.1,0.2,0.1c0.1,0,0.1,0,0.2,0s0.1-0.1,0.1-0.1c0,0,0-0.1-0.1-0.1
			c0,0-0.1,0-0.2-0.1l-0.1,0c-0.1,0-0.2,0-0.2-0.1c-0.1,0-0.1-0.1-0.1-0.2c0-0.1,0-0.2,0.1-0.2c0.1-0.1,0.2-0.1,0.3-0.1
			c0.2,0,0.3,0,0.3,0.1c0,0.1,0.1,0.1,0.1,0.2h-0.2c0,0,0-0.1,0-0.1c0,0-0.1-0.1-0.2-0.1c-0.1,0-0.1,0-0.2,0c0,0-0.1,0.1-0.1,0.1
			c0,0,0,0.1,0.1,0.1c0,0,0.1,0,0.1,0l0.1,0c0.1,0,0.2,0.1,0.3,0.1c0.1,0,0.1,0.1,0.1,0.2c0,0.1,0,0.2-0.1,0.2s-0.2,0.1-0.3,0.1
			c-0.2,0-0.3,0-0.3-0.1C172,3,172,2.9,172,2.8H172.1z"/>
		<path class="st1" d="M173.8,2.5C173.8,2.5,173.9,2.5,173.8,2.5c0.1-0.1,0.1-0.1,0.1-0.1c0-0.1,0-0.1-0.1-0.1s-0.1,0-0.2,0
			c-0.1,0-0.2,0-0.2,0.1c0,0,0,0.1,0,0.1h-0.2c0-0.1,0-0.2,0.1-0.3c0.1-0.1,0.2-0.1,0.3-0.1c0.1,0,0.2,0,0.3,0.1
			c0.1,0,0.1,0.1,0.1,0.2V3c0,0,0,0,0,0c0,0,0,0,0,0c0,0,0,0,0,0s0,0,0,0v0.1c0,0,0,0-0.1,0c0,0,0,0-0.1,0c-0.1,0-0.1,0-0.1-0.1
			c0,0,0-0.1,0-0.1c0,0-0.1,0.1-0.2,0.1c-0.1,0-0.1,0.1-0.2,0.1c-0.1,0-0.2,0-0.2-0.1s-0.1-0.1-0.1-0.2c0-0.1,0-0.2,0.1-0.2
			c0.1-0.1,0.1-0.1,0.2-0.1L173.8,2.5z M173.4,3c0,0,0.1,0,0.1,0c0.1,0,0.1,0,0.2,0c0.1,0,0.1-0.1,0.1-0.2V2.6c0,0,0,0-0.1,0
			s-0.1,0-0.1,0l-0.1,0c-0.1,0-0.1,0-0.1,0c-0.1,0-0.1,0.1-0.1,0.1C173.4,2.9,173.4,3,173.4,3z"/>
		<path class="st1" d="M174.6,2.1h0.2v0.1c0-0.1,0.1-0.1,0.2-0.1s0.1,0,0.2,0c0.2,0,0.3,0.1,0.3,0.2c0,0.1,0,0.1,0,0.2v0.7h-0.2V2.5
			c0-0.1,0-0.1,0-0.2c0-0.1-0.1-0.1-0.2-0.1c0,0-0.1,0-0.1,0c0,0-0.1,0-0.1,0.1c0,0,0,0.1-0.1,0.1s0,0.1,0,0.2v0.6h-0.2V2.1z"/>
		<path class="st1" d="M176.5,2.1c0,0,0.1,0.1,0.1,0.1V1.7h0.2v1.5h-0.2V3c0,0.1-0.1,0.1-0.1,0.1c-0.1,0-0.1,0-0.2,0
			c-0.1,0-0.2,0-0.3-0.1c-0.1-0.1-0.1-0.2-0.1-0.4c0-0.2,0-0.3,0.1-0.4c0.1-0.1,0.2-0.2,0.3-0.2C176.3,2.1,176.4,2.1,176.5,2.1z
			 M176.1,2.9c0,0.1,0.1,0.1,0.2,0.1c0.1,0,0.1,0,0.2-0.1c0.1-0.1,0.1-0.2,0.1-0.3c0-0.1,0-0.2-0.1-0.3c-0.1-0.1-0.1-0.1-0.2-0.1
			c-0.1,0-0.2,0-0.2,0.1C176,2.4,176,2.5,176,2.6C176,2.8,176,2.8,176.1,2.9z"/>
		<path class="st1" d="M178.5,2.1h0.2v0.1c0-0.1,0.1-0.1,0.2-0.1s0.1,0,0.2,0c0.2,0,0.3,0.1,0.3,0.2c0,0.1,0,0.1,0,0.2v0.7h-0.2V2.5
			c0-0.1,0-0.1,0-0.2c0-0.1-0.1-0.1-0.2-0.1c0,0-0.1,0-0.1,0c0,0-0.1,0-0.1,0.1c0,0,0,0.1-0.1,0.1s0,0.1,0,0.2v0.6h-0.2V2.1z"/>
		<path class="st1" d="M180.6,2.2c0.1,0.1,0.1,0.2,0.1,0.4c0,0.2,0,0.3-0.1,0.4s-0.2,0.2-0.4,0.2c-0.1,0-0.3,0-0.3-0.1
			c-0.1-0.1-0.1-0.2-0.1-0.4c0-0.2,0-0.3,0.1-0.4c0.1-0.1,0.2-0.2,0.4-0.2C180.4,2.1,180.5,2.1,180.6,2.2z M180.5,2.9
			c0-0.1,0.1-0.2,0.1-0.3c0-0.1,0-0.2,0-0.2c0-0.1-0.1-0.1-0.3-0.1c-0.1,0-0.2,0-0.2,0.1S180,2.5,180,2.6c0,0.1,0,0.2,0.1,0.3
			s0.1,0.1,0.2,0.1C180.4,3,180.5,3,180.5,2.9z"/>
		<path class="st1" d="M181.2,1.8h0.2v0.3h0.2v0.1h-0.2v0.7c0,0,0,0.1,0,0.1c0,0,0,0,0.1,0c0,0,0,0,0,0c0,0,0,0,0,0v0.1
			c0,0,0,0-0.1,0c0,0,0,0-0.1,0c-0.1,0-0.1,0-0.2-0.1c0,0,0-0.1,0-0.2V2.2h-0.1V2.1h0.1V1.8z"/>
		<path class="st1" d="M183.4,2.8c0,0.1,0,0.1,0,0.1c0,0.1,0.1,0.1,0.2,0.1c0.1,0,0.1,0,0.2,0s0.1-0.1,0.1-0.1c0,0,0-0.1-0.1-0.1
			c0,0-0.1,0-0.2-0.1l-0.1,0c-0.1,0-0.2,0-0.2-0.1c-0.1,0-0.1-0.1-0.1-0.2c0-0.1,0-0.2,0.1-0.2c0.1-0.1,0.2-0.1,0.3-0.1
			c0.2,0,0.3,0,0.3,0.1c0,0.1,0.1,0.1,0.1,0.2h-0.2c0,0,0-0.1,0-0.1c0,0-0.1-0.1-0.2-0.1c-0.1,0-0.1,0-0.2,0c0,0-0.1,0.1-0.1,0.1
			c0,0,0,0.1,0.1,0.1c0,0,0.1,0,0.1,0l0.1,0c0.1,0,0.2,0.1,0.3,0.1c0.1,0,0.1,0.1,0.1,0.2c0,0.1,0,0.2-0.1,0.2s-0.2,0.1-0.3,0.1
			c-0.2,0-0.3,0-0.3-0.1c-0.1-0.1-0.1-0.2-0.1-0.3H183.4z"/>
		<path class="st1" d="M185.3,2.2c0.1,0.1,0.1,0.2,0.1,0.4c0,0.2,0,0.3-0.1,0.4s-0.2,0.2-0.4,0.2c-0.1,0-0.3,0-0.3-0.1
			c-0.1-0.1-0.1-0.2-0.1-0.4c0-0.2,0-0.3,0.1-0.4c0.1-0.1,0.2-0.2,0.4-0.2C185.1,2.1,185.2,2.1,185.3,2.2z M185.2,2.9
			c0-0.1,0.1-0.2,0.1-0.3c0-0.1,0-0.2,0-0.2c0-0.1-0.1-0.1-0.3-0.1c-0.1,0-0.2,0-0.2,0.1s-0.1,0.2-0.1,0.3c0,0.1,0,0.2,0.1,0.3
			s0.1,0.1,0.2,0.1C185,3,185.1,3,185.2,2.9z"/>
		<path class="st1" d="M187.2,1.7h0.2v0.8l0.5-0.4h0.2l-0.4,0.4l0.4,0.7h-0.2l-0.3-0.5l-0.1,0.1v0.4h-0.2V1.7z"/>
		<path class="st1" d="M189,2.1c0.1,0,0.1,0.1,0.2,0.1c0,0.1,0.1,0.1,0.1,0.2c0,0,0,0.1,0,0.2h-0.8c0,0.1,0,0.2,0.1,0.3
			c0,0.1,0.1,0.1,0.2,0.1c0.1,0,0.2,0,0.2-0.1c0,0,0.1-0.1,0.1-0.1h0.2c0,0,0,0.1,0,0.1c0,0-0.1,0.1-0.1,0.1
			c-0.1,0.1-0.1,0.1-0.2,0.1c0,0-0.1,0-0.1,0c-0.1,0-0.2,0-0.3-0.1c-0.1-0.1-0.1-0.2-0.1-0.4c0-0.2,0-0.3,0.1-0.4
			c0.1-0.1,0.2-0.2,0.4-0.2C188.9,2.1,189,2.1,189,2.1z M189.1,2.5c0-0.1,0-0.1,0-0.2c0-0.1-0.1-0.1-0.2-0.1c-0.1,0-0.1,0-0.2,0.1
			c-0.1,0.1-0.1,0.1-0.1,0.2H189.1z"/>
		<path class="st1" d="M190.4,2.1c0.1,0,0.1,0.1,0.2,0.1c0,0.1,0.1,0.1,0.1,0.2c0,0,0,0.1,0,0.2h-0.8c0,0.1,0,0.2,0.1,0.3
			C190,3,190,3,190.1,3c0.1,0,0.2,0,0.2-0.1c0,0,0.1-0.1,0.1-0.1h0.2c0,0,0,0.1,0,0.1c0,0-0.1,0.1-0.1,0.1c-0.1,0.1-0.1,0.1-0.2,0.1
			c0,0-0.1,0-0.1,0c-0.1,0-0.2,0-0.3-0.1c-0.1-0.1-0.1-0.2-0.1-0.4c0-0.2,0-0.3,0.1-0.4c0.1-0.1,0.2-0.2,0.4-0.2
			C190.2,2.1,190.3,2.1,190.4,2.1z M190.4,2.5c0-0.1,0-0.1,0-0.2c0-0.1-0.1-0.1-0.2-0.1c-0.1,0-0.1,0-0.2,0.1
			c-0.1,0.1-0.1,0.1-0.1,0.2H190.4z"/>
		<path class="st1" d="M191,2.1h0.2v0.1c0,0,0.1-0.1,0.1-0.1c0.1,0,0.1-0.1,0.2-0.1c0.1,0,0.2,0,0.3,0.1c0.1,0.1,0.1,0.2,0.1,0.4
			c0,0.2-0.1,0.4-0.2,0.5c-0.1,0.1-0.2,0.1-0.3,0.1c-0.1,0-0.1,0-0.2-0.1c0,0-0.1-0.1-0.1-0.1v0.5H191V2.1z M191.7,2.9
			c0.1-0.1,0.1-0.2,0.1-0.3c0-0.1,0-0.2,0-0.2c0-0.1-0.1-0.2-0.3-0.2c-0.1,0-0.2,0.1-0.3,0.2c0,0.1,0,0.1,0,0.2c0,0.1,0,0.2,0,0.2
			c0,0.1,0.1,0.2,0.3,0.2C191.6,3,191.6,3,191.7,2.9z"/>
		<path class="st1" d="M193,2.1c0.1,0,0.1,0.1,0.2,0.1c0,0.1,0.1,0.1,0.1,0.2c0,0,0,0.1,0,0.2h-0.8c0,0.1,0,0.2,0.1,0.3
			c0,0.1,0.1,0.1,0.2,0.1c0.1,0,0.2,0,0.2-0.1c0,0,0.1-0.1,0.1-0.1h0.2c0,0,0,0.1,0,0.1c0,0-0.1,0.1-0.1,0.1
			c-0.1,0.1-0.1,0.1-0.2,0.1c0,0-0.1,0-0.1,0c-0.1,0-0.2,0-0.3-0.1c-0.1-0.1-0.1-0.2-0.1-0.4c0-0.2,0-0.3,0.1-0.4
			c0.1-0.1,0.2-0.2,0.4-0.2C192.9,2.1,192.9,2.1,193,2.1z M193.1,2.5c0-0.1,0-0.1,0-0.2c0-0.1-0.1-0.1-0.2-0.1c-0.1,0-0.1,0-0.2,0.1
			c-0.1,0.1-0.1,0.1-0.1,0.2H193.1z"/>
		<path class="st1" d="M193.7,2.1h0.2v0.2c0,0,0-0.1,0.1-0.1c0.1-0.1,0.1-0.1,0.2-0.1c0,0,0,0,0,0c0,0,0,0,0,0v0.2c0,0,0,0,0,0
			c0,0,0,0,0,0c-0.1,0-0.2,0-0.2,0.1c0,0.1-0.1,0.1-0.1,0.2v0.6h-0.2V2.1z"/>
		<path class="st1" d="M194.7,2.8c0,0.1,0,0.1,0,0.1c0,0.1,0.1,0.1,0.2,0.1c0.1,0,0.1,0,0.2,0s0.1-0.1,0.1-0.1c0,0,0-0.1-0.1-0.1
			c0,0-0.1,0-0.2-0.1l-0.1,0c-0.1,0-0.2,0-0.2-0.1c-0.1,0-0.1-0.1-0.1-0.2c0-0.1,0-0.2,0.1-0.2c0.1-0.1,0.2-0.1,0.3-0.1
			c0.2,0,0.3,0,0.3,0.1c0,0.1,0.1,0.1,0.1,0.2h-0.2c0,0,0-0.1,0-0.1c0,0-0.1-0.1-0.2-0.1c-0.1,0-0.1,0-0.2,0c0,0-0.1,0.1-0.1,0.1
			c0,0,0,0.1,0.1,0.1c0,0,0.1,0,0.1,0l0.1,0c0.1,0,0.2,0.1,0.3,0.1c0.1,0,0.1,0.1,0.1,0.2c0,0.1,0,0.2-0.1,0.2s-0.2,0.1-0.3,0.1
			c-0.2,0-0.3,0-0.3-0.1c-0.1-0.1-0.1-0.2-0.1-0.3H194.7z"/>
		<path class="st1" d="M197.9,2.2c0.1,0.1,0.1,0.2,0.1,0.4c0,0.2,0,0.3-0.1,0.4s-0.2,0.2-0.4,0.2c-0.1,0-0.3,0-0.3-0.1
			c-0.1-0.1-0.1-0.2-0.1-0.4c0-0.2,0-0.3,0.1-0.4c0.1-0.1,0.2-0.2,0.4-0.2C197.7,2.1,197.8,2.1,197.9,2.2z M197.8,2.9
			c0-0.1,0.1-0.2,0.1-0.3c0-0.1,0-0.2,0-0.2c0-0.1-0.1-0.1-0.3-0.1c-0.1,0-0.2,0-0.2,0.1s-0.1,0.2-0.1,0.3c0,0.1,0,0.2,0.1,0.3
			s0.1,0.1,0.2,0.1C197.6,3,197.7,3,197.8,2.9z"/>
		<path class="st1" d="M198.5,1.8c0-0.1,0.1-0.1,0.2-0.1c0,0,0,0,0,0c0,0,0,0,0,0v0.2c0,0,0,0,0,0c0,0,0,0,0,0c-0.1,0-0.1,0-0.1,0
			s0,0.1,0,0.2h0.2v0.1h-0.2v0.9h-0.2V2.2h-0.1V2.1h0.1V1.9C198.5,1.9,198.5,1.8,198.5,1.8z"/>
		<path class="st1" d="M200.6,2.1l0.3,0.9l0.3-0.9h0.2L201,3.2h-0.2l-0.4-1.1H200.6z"/>
		<path class="st1" d="M202.3,2.5C202.3,2.5,202.4,2.5,202.3,2.5c0.1-0.1,0.1-0.1,0.1-0.1c0-0.1,0-0.1-0.1-0.1s-0.1,0-0.2,0
			c-0.1,0-0.2,0-0.2,0.1c0,0,0,0.1,0,0.1h-0.2c0-0.1,0-0.2,0.1-0.3c0.1-0.1,0.2-0.1,0.3-0.1c0.1,0,0.2,0,0.3,0.1
			c0.1,0,0.1,0.1,0.1,0.2V3c0,0,0,0,0,0c0,0,0,0,0,0c0,0,0,0,0,0s0,0,0,0v0.1c0,0,0,0-0.1,0c0,0,0,0-0.1,0c-0.1,0-0.1,0-0.1-0.1
			c0,0,0-0.1,0-0.1c0,0-0.1,0.1-0.2,0.1c-0.1,0-0.1,0.1-0.2,0.1c-0.1,0-0.2,0-0.2-0.1s-0.1-0.1-0.1-0.2c0-0.1,0-0.2,0.1-0.2
			c0.1-0.1,0.1-0.1,0.2-0.1L202.3,2.5z M201.9,3c0,0,0.1,0,0.1,0c0.1,0,0.1,0,0.2,0c0.1,0,0.1-0.1,0.1-0.2V2.6c0,0,0,0-0.1,0
			s-0.1,0-0.1,0l-0.1,0c-0.1,0-0.1,0-0.1,0c-0.1,0-0.1,0.1-0.1,0.1C201.9,2.9,201.9,3,201.9,3z"/>
		<path class="st1" d="M203.1,1.7h0.2v1.4h-0.2V1.7z"/>
		<path class="st1" d="M203.9,2.1v0.7c0,0.1,0,0.1,0,0.1c0,0.1,0.1,0.1,0.2,0.1c0.1,0,0.2-0.1,0.2-0.2c0-0.1,0-0.1,0-0.2V2.1h0.2
			v1.1h-0.2l0-0.2c0,0-0.1,0.1-0.1,0.1c-0.1,0.1-0.1,0.1-0.2,0.1c-0.1,0-0.2-0.1-0.3-0.2c0-0.1,0-0.1,0-0.2V2.1H203.9z"/>
		<path class="st1" d="M205.7,2.1c0.1,0,0.1,0.1,0.2,0.1c0,0.1,0.1,0.1,0.1,0.2c0,0,0,0.1,0,0.2h-0.8c0,0.1,0,0.2,0.1,0.3
			c0,0.1,0.1,0.1,0.2,0.1c0.1,0,0.2,0,0.2-0.1c0,0,0.1-0.1,0.1-0.1h0.2c0,0,0,0.1,0,0.1c0,0-0.1,0.1-0.1,0.1
			c-0.1,0.1-0.1,0.1-0.2,0.1c0,0-0.1,0-0.1,0c-0.1,0-0.2,0-0.3-0.1C205,3,205,2.8,205,2.7c0-0.2,0-0.3,0.1-0.4
			c0.1-0.1,0.2-0.2,0.4-0.2C205.5,2.1,205.6,2.1,205.7,2.1z M205.7,2.5c0-0.1,0-0.1,0-0.2c0-0.1-0.1-0.1-0.2-0.1
			c-0.1,0-0.1,0-0.2,0.1c-0.1,0.1-0.1,0.1-0.1,0.2H205.7z"/>
		<path class="st1" d="M206.9,2.1c0,0,0.1,0.1,0.1,0.1V1.7h0.2v1.5h-0.2V3c0,0.1-0.1,0.1-0.1,0.1c-0.1,0-0.1,0-0.2,0
			c-0.1,0-0.2,0-0.3-0.1c-0.1-0.1-0.1-0.2-0.1-0.4c0-0.2,0-0.3,0.1-0.4c0.1-0.1,0.2-0.2,0.3-0.2C206.8,2.1,206.9,2.1,206.9,2.1z
			 M206.5,2.9c0,0.1,0.1,0.1,0.2,0.1c0.1,0,0.1,0,0.2-0.1c0.1-0.1,0.1-0.2,0.1-0.3c0-0.1,0-0.2-0.1-0.3c-0.1-0.1-0.1-0.1-0.2-0.1
			c-0.1,0-0.2,0-0.2,0.1c-0.1,0.1-0.1,0.2-0.1,0.3C206.5,2.8,206.5,2.8,206.5,2.9z"/>
		<path class="st1" d="M209.8,2.2c0.1,0.1,0.1,0.2,0.1,0.4c0,0.2,0,0.3-0.1,0.4s-0.2,0.2-0.4,0.2c-0.1,0-0.3,0-0.3-0.1
			c-0.1-0.1-0.1-0.2-0.1-0.4c0-0.2,0-0.3,0.1-0.4c0.1-0.1,0.2-0.2,0.4-0.2C209.6,2.1,209.7,2.1,209.8,2.2z M209.7,2.9
			c0-0.1,0.1-0.2,0.1-0.3c0-0.1,0-0.2,0-0.2c0-0.1-0.1-0.1-0.3-0.1c-0.1,0-0.2,0-0.2,0.1s-0.1,0.2-0.1,0.3c0,0.1,0,0.2,0.1,0.3
			s0.1,0.1,0.2,0.1C209.5,3,209.6,3,209.7,2.9z"/>
		<path class="st1" d="M210.3,1.7h0.2v0.5c0-0.1,0.1-0.1,0.1-0.1c0.1,0,0.1,0,0.2,0c0.1,0,0.2,0,0.3,0.1s0.1,0.2,0.1,0.4
			c0,0.2,0,0.3-0.1,0.4c-0.1,0.1-0.2,0.2-0.3,0.2c-0.1,0-0.1,0-0.2-0.1c0,0-0.1-0.1-0.1-0.1v0.1h-0.2V1.7z M211,2.9
			c0-0.1,0.1-0.2,0.1-0.3c0-0.1,0-0.2-0.1-0.3c0-0.1-0.1-0.1-0.2-0.1c-0.1,0-0.2,0-0.2,0.1c-0.1,0.1-0.1,0.2-0.1,0.3
			c0,0.1,0,0.2,0,0.2c0,0.1,0.1,0.2,0.3,0.2C210.9,3,211,3,211,2.9z"/>
		<path class="st1" d="M211.5,3.4c0.1,0,0.1,0,0.1,0c0,0,0,0,0-0.1V2.1h0.2v1.2c0,0.1,0,0.1,0,0.2c0,0.1-0.1,0.1-0.2,0.1
			c0,0,0,0,0,0c0,0,0,0,0,0V3.4z M211.8,1.9h-0.2V1.7h0.2V1.9z"/>
		<path class="st1" d="M213,2.1c0.1,0,0.1,0.1,0.2,0.1c0,0.1,0.1,0.1,0.1,0.2c0,0,0,0.1,0,0.2h-0.8c0,0.1,0,0.2,0.1,0.3
			c0,0.1,0.1,0.1,0.2,0.1c0.1,0,0.2,0,0.2-0.1c0,0,0.1-0.1,0.1-0.1h0.2c0,0,0,0.1,0,0.1c0,0-0.1,0.1-0.1,0.1
			c-0.1,0.1-0.1,0.1-0.2,0.1c0,0-0.1,0-0.1,0c-0.1,0-0.2,0-0.3-0.1c-0.1-0.1-0.1-0.2-0.1-0.4c0-0.2,0-0.3,0.1-0.4
			c0.1-0.1,0.2-0.2,0.4-0.2C212.8,2.1,212.9,2.1,213,2.1z M213,2.5c0-0.1,0-0.1,0-0.2c0-0.1-0.1-0.1-0.2-0.1c-0.1,0-0.1,0-0.2,0.1
			c-0.1,0.1-0.1,0.1-0.1,0.2H213z"/>
		<path class="st1" d="M214.3,2.2c0.1,0.1,0.1,0.2,0.1,0.3h-0.2c0-0.1,0-0.1-0.1-0.2s-0.1-0.1-0.2-0.1c-0.1,0-0.2,0.1-0.2,0.2
			c0,0.1,0,0.2,0,0.3c0,0.1,0,0.2,0.1,0.3c0,0.1,0.1,0.1,0.2,0.1c0.1,0,0.1,0,0.2-0.1c0,0,0.1-0.1,0.1-0.2h0.2
			c0,0.1-0.1,0.2-0.1,0.3s-0.2,0.1-0.3,0.1c-0.1,0-0.2-0.1-0.3-0.2c-0.1-0.1-0.1-0.2-0.1-0.4c0-0.2,0-0.3,0.1-0.4
			c0.1-0.1,0.2-0.2,0.3-0.2C214.2,2.1,214.3,2.1,214.3,2.2z"/>
		<path class="st1" d="M214.9,1.8h0.2v0.3h0.2v0.1h-0.2v0.7c0,0,0,0.1,0,0.1c0,0,0,0,0.1,0c0,0,0,0,0,0c0,0,0,0,0,0v0.1
			c0,0,0,0-0.1,0c0,0,0,0-0.1,0c-0.1,0-0.1,0-0.2-0.1c0,0,0-0.1,0-0.2V2.2h-0.1V2.1h0.1V1.8z"/>
		<path class="st1" d="M215.7,2.8c0,0.1,0,0.1,0,0.1c0,0.1,0.1,0.1,0.2,0.1c0.1,0,0.1,0,0.2,0s0.1-0.1,0.1-0.1c0,0,0-0.1-0.1-0.1
			c0,0-0.1,0-0.2-0.1l-0.1,0c-0.1,0-0.2,0-0.2-0.1c-0.1,0-0.1-0.1-0.1-0.2c0-0.1,0-0.2,0.1-0.2c0.1-0.1,0.2-0.1,0.3-0.1
			c0.2,0,0.3,0,0.3,0.1c0,0.1,0.1,0.1,0.1,0.2h-0.2c0,0,0-0.1,0-0.1c0,0-0.1-0.1-0.2-0.1c-0.1,0-0.1,0-0.2,0c0,0-0.1,0.1-0.1,0.1
			c0,0,0,0.1,0.1,0.1c0,0,0.1,0,0.1,0l0.1,0c0.1,0,0.2,0.1,0.3,0.1c0.1,0,0.1,0.1,0.1,0.2c0,0.1,0,0.2-0.1,0.2s-0.2,0.1-0.3,0.1
			c-0.2,0-0.3,0-0.3-0.1c-0.1-0.1-0.1-0.2-0.1-0.3H215.7z"/>
		<path class="st1" d="M216.9,2.9h0.2v0.2h-0.2V2.9z"/>
		<path class="st1" d="M217.7,1.7h0.2v1.4h-0.2V1.7z"/>
		<path class="st1" d="M218.4,1.8h0.2v0.3h0.2v0.1h-0.2v0.7c0,0,0,0.1,0,0.1c0,0,0,0,0.1,0c0,0,0,0,0,0c0,0,0,0,0,0v0.1
			c0,0,0,0-0.1,0c0,0,0,0-0.1,0c-0.1,0-0.1,0-0.2-0.1c0,0,0-0.1,0-0.2V2.2h-0.1V2.1h0.1V1.8z"/>
		<path class="st1" d="M220.4,1.7h0.2v0.2h-0.2V1.7z M220.4,2.1h0.2v1h-0.2V2.1z"/>
		<path class="st1" d="M221.2,2.8c0,0.1,0,0.1,0,0.1c0,0.1,0.1,0.1,0.2,0.1c0.1,0,0.1,0,0.2,0s0.1-0.1,0.1-0.1c0,0,0-0.1-0.1-0.1
			c0,0-0.1,0-0.2-0.1l-0.1,0c-0.1,0-0.2,0-0.2-0.1c-0.1,0-0.1-0.1-0.1-0.2c0-0.1,0-0.2,0.1-0.2c0.1-0.1,0.2-0.1,0.3-0.1
			c0.2,0,0.3,0,0.3,0.1c0,0.1,0.1,0.1,0.1,0.2h-0.2c0,0,0-0.1,0-0.1c0,0-0.1-0.1-0.2-0.1c-0.1,0-0.1,0-0.2,0c0,0-0.1,0.1-0.1,0.1
			c0,0,0,0.1,0.1,0.1c0,0,0.1,0,0.1,0l0.1,0c0.1,0,0.2,0.1,0.3,0.1c0.1,0,0.1,0.1,0.1,0.2c0,0.1,0,0.2-0.1,0.2s-0.2,0.1-0.3,0.1
			c-0.2,0-0.3,0-0.3-0.1C221.1,3,221,2.9,221,2.8H221.2z"/>
		<path class="st1" d="M223.7,1.8h0.2v0.3h0.2v0.1h-0.2v0.7c0,0,0,0.1,0,0.1c0,0,0,0,0.1,0c0,0,0,0,0,0c0,0,0,0,0,0v0.1
			c0,0,0,0-0.1,0c0,0,0,0-0.1,0c-0.1,0-0.1,0-0.2-0.1c0,0,0-0.1,0-0.2V2.2h-0.1V2.1h0.1V1.8z"/>
		<path class="st1" d="M224.4,1.7h0.2v0.5c0-0.1,0.1-0.1,0.1-0.1c0.1,0,0.1-0.1,0.2-0.1c0.2,0,0.3,0.1,0.3,0.2c0,0.1,0,0.1,0,0.2
			v0.7h-0.2V2.5c0-0.1,0-0.1,0-0.2c0-0.1-0.1-0.1-0.2-0.1c-0.1,0-0.1,0-0.2,0.1c-0.1,0.1-0.1,0.1-0.1,0.3v0.6h-0.2V1.7z"/>
		<path class="st1" d="M226.4,2.1c0.1,0,0.1,0.1,0.2,0.1c0,0.1,0.1,0.1,0.1,0.2c0,0,0,0.1,0,0.2h-0.8c0,0.1,0,0.2,0.1,0.3
			c0,0.1,0.1,0.1,0.2,0.1c0.1,0,0.2,0,0.2-0.1c0,0,0.1-0.1,0.1-0.1h0.2c0,0,0,0.1,0,0.1c0,0-0.1,0.1-0.1,0.1
			c-0.1,0.1-0.1,0.1-0.2,0.1c0,0-0.1,0-0.1,0c-0.1,0-0.2,0-0.3-0.1c-0.1-0.1-0.1-0.2-0.1-0.4c0-0.2,0-0.3,0.1-0.4
			c0.1-0.1,0.2-0.2,0.4-0.2C226.2,2.1,226.3,2.1,226.4,2.1z M226.5,2.5c0-0.1,0-0.1,0-0.2c0-0.1-0.1-0.1-0.2-0.1
			c-0.1,0-0.1,0-0.2,0.1c-0.1,0.1-0.1,0.1-0.1,0.2H226.5z"/>
		<path class="st1" d="M227.1,2.1h0.2v0.2c0,0,0-0.1,0.1-0.1c0.1-0.1,0.1-0.1,0.2-0.1c0,0,0,0,0,0c0,0,0,0,0,0v0.2c0,0,0,0,0,0
			c0,0,0,0,0,0c-0.1,0-0.2,0-0.2,0.1c0,0.1-0.1,0.1-0.1,0.2v0.6h-0.2V2.1z"/>
		<path class="st1" d="M228.6,2.1c0.1,0,0.1,0.1,0.2,0.1c0,0.1,0.1,0.1,0.1,0.2c0,0,0,0.1,0,0.2h-0.8c0,0.1,0,0.2,0.1,0.3
			c0,0.1,0.1,0.1,0.2,0.1c0.1,0,0.2,0,0.2-0.1c0,0,0.1-0.1,0.1-0.1h0.2c0,0,0,0.1,0,0.1c0,0-0.1,0.1-0.1,0.1
			c-0.1,0.1-0.1,0.1-0.2,0.1c0,0-0.1,0-0.1,0c-0.1,0-0.2,0-0.3-0.1c-0.1-0.1-0.1-0.2-0.1-0.4c0-0.2,0-0.3,0.1-0.4
			c0.1-0.1,0.2-0.2,0.4-0.2C228.4,2.1,228.5,2.1,228.6,2.1z M228.6,2.5c0-0.1,0-0.1,0-0.2c0-0.1-0.1-0.1-0.2-0.1
			c-0.1,0-0.1,0-0.2,0.1c-0.1,0.1-0.1,0.1-0.1,0.2H228.6z"/>
		<path class="st1" d="M116.8,4.7h0.2v0.2h-0.2V4.7z M116.8,5.1h0.2v1h-0.2V5.1z"/>
		<path class="st1" d="M117.5,5.1h0.2v0.1c0-0.1,0.1-0.1,0.1-0.1c0.1,0,0.1-0.1,0.2-0.1c0.1,0,0.2,0,0.2,0.1c0,0,0.1,0.1,0.1,0.1
			c0-0.1,0.1-0.1,0.1-0.1c0.1,0,0.1,0,0.2,0c0.1,0,0.2,0.1,0.3,0.2c0,0.1,0,0.1,0,0.2v0.7h-0.2V5.4c0-0.1,0-0.1-0.1-0.1
			c0,0-0.1,0-0.1,0c-0.1,0-0.1,0-0.2,0.1s-0.1,0.1-0.1,0.2v0.6h-0.2V5.4c0-0.1,0-0.1,0-0.2c0,0-0.1-0.1-0.2-0.1
			c-0.1,0-0.1,0-0.2,0.1c-0.1,0.1-0.1,0.1-0.1,0.3v0.6h-0.2V5.1z"/>
		<path class="st1" d="M119.3,5.1h0.2v0.1c0,0,0.1-0.1,0.1-0.1c0.1,0,0.1-0.1,0.2-0.1c0.1,0,0.2,0,0.3,0.1c0.1,0.1,0.1,0.2,0.1,0.4
			c0,0.2-0.1,0.4-0.2,0.5c-0.1,0.1-0.2,0.1-0.3,0.1c-0.1,0-0.1,0-0.2-0.1c0,0-0.1-0.1-0.1-0.1v0.5h-0.2V5.1z M120,5.9
			c0.1-0.1,0.1-0.2,0.1-0.3c0-0.1,0-0.2,0-0.2c0-0.1-0.1-0.2-0.3-0.2c-0.1,0-0.2,0.1-0.3,0.2c0,0.1,0,0.1,0,0.2c0,0.1,0,0.2,0,0.2
			c0,0.1,0.1,0.2,0.3,0.2C119.9,6,119.9,6,120,5.9z"/>
		<path class="st1" d="M121.4,5.2c0.1,0.1,0.1,0.2,0.1,0.4c0,0.2,0,0.3-0.1,0.4s-0.2,0.2-0.4,0.2c-0.1,0-0.3,0-0.3-0.1
			c-0.1-0.1-0.1-0.2-0.1-0.4c0-0.2,0-0.3,0.1-0.4c0.1-0.1,0.2-0.2,0.4-0.2C121.2,5.1,121.3,5.1,121.4,5.2z M121.3,5.9
			c0-0.1,0.1-0.2,0.1-0.3c0-0.1,0-0.2,0-0.2c0-0.1-0.1-0.1-0.3-0.1c-0.1,0-0.2,0-0.2,0.1s-0.1,0.2-0.1,0.3c0,0.1,0,0.2,0.1,0.3
			S121,6,121.1,6C121.2,6,121.3,6,121.3,5.9z"/>
		<path class="st1" d="M122,5.1h0.2v0.2c0,0,0-0.1,0.1-0.1c0.1-0.1,0.1-0.1,0.2-0.1c0,0,0,0,0,0c0,0,0,0,0,0v0.2c0,0,0,0,0,0
			c0,0,0,0,0,0c-0.1,0-0.2,0-0.2,0.1c0,0.1-0.1,0.1-0.1,0.2v0.6H122V5.1z"/>
		<path class="st1" d="M122.9,4.8h0.2v0.3h0.2v0.1h-0.2v0.7c0,0,0,0.1,0,0.1c0,0,0,0,0.1,0c0,0,0,0,0,0c0,0,0,0,0,0v0.1
			c0,0,0,0-0.1,0c0,0,0,0-0.1,0c-0.1,0-0.1,0-0.2-0.1c0,0,0-0.1,0-0.2V5.2h-0.1V5.1h0.1V4.8z"/>
		<path class="st1" d="M124.2,5.5C124.2,5.5,124.3,5.5,124.2,5.5c0.1-0.1,0.1-0.1,0.1-0.1c0-0.1,0-0.1-0.1-0.1s-0.1,0-0.2,0
			c-0.1,0-0.2,0-0.2,0.1c0,0,0,0.1,0,0.1h-0.2c0-0.1,0-0.2,0.1-0.3c0.1-0.1,0.2-0.1,0.3-0.1c0.1,0,0.2,0,0.3,0.1
			c0.1,0,0.1,0.1,0.1,0.2V6c0,0,0,0,0,0c0,0,0,0,0,0c0,0,0,0,0,0s0,0,0,0v0.1c0,0,0,0-0.1,0c0,0,0,0-0.1,0c-0.1,0-0.1,0-0.1-0.1
			c0,0,0-0.1,0-0.1c0,0-0.1,0.1-0.2,0.1c-0.1,0-0.1,0.1-0.2,0.1c-0.1,0-0.2,0-0.2-0.1s-0.1-0.1-0.1-0.2c0-0.1,0-0.2,0.1-0.2
			c0.1-0.1,0.1-0.1,0.2-0.1L124.2,5.5z M123.8,6c0,0,0.1,0,0.1,0c0.1,0,0.1,0,0.2,0c0.1,0,0.1-0.1,0.1-0.2V5.6c0,0,0,0-0.1,0
			s-0.1,0-0.1,0l-0.1,0c-0.1,0-0.1,0-0.1,0c-0.1,0-0.1,0.1-0.1,0.1C123.8,5.9,123.8,5.9,123.8,6z"/>
		<path class="st1" d="M124.9,5.1h0.2v0.1c0-0.1,0.1-0.1,0.2-0.1s0.1,0,0.2,0c0.2,0,0.3,0.1,0.3,0.2c0,0.1,0,0.1,0,0.2v0.7h-0.2V5.5
			c0-0.1,0-0.1,0-0.2c0-0.1-0.1-0.1-0.2-0.1c0,0-0.1,0-0.1,0c0,0-0.1,0-0.1,0.1c0,0,0,0.1-0.1,0.1s0,0.1,0,0.2v0.6h-0.2V5.1z"/>
		<path class="st1" d="M126.3,4.8h0.2v0.3h0.2v0.1h-0.2v0.7c0,0,0,0.1,0,0.1c0,0,0,0,0.1,0c0,0,0,0,0,0c0,0,0,0,0,0v0.1
			c0,0,0,0-0.1,0c0,0,0,0-0.1,0c-0.1,0-0.1,0-0.2-0.1c0,0,0-0.1,0-0.2V5.2h-0.1V5.1h0.1V4.8z"/>
		<path class="st1" d="M128,4.8h0.2v0.3h0.2v0.1h-0.2v0.7c0,0,0,0.1,0,0.1c0,0,0,0,0.1,0c0,0,0,0,0,0c0,0,0,0,0,0v0.1c0,0,0,0-0.1,0
			c0,0,0,0-0.1,0c-0.1,0-0.1,0-0.2-0.1c0,0,0-0.1,0-0.2V5.2h-0.1V5.1h0.1V4.8z"/>
		<path class="st1" d="M129.5,5.2c0.1,0.1,0.1,0.2,0.1,0.4c0,0.2,0,0.3-0.1,0.4s-0.2,0.2-0.4,0.2c-0.1,0-0.3,0-0.3-0.1
			c-0.1-0.1-0.1-0.2-0.1-0.4c0-0.2,0-0.3,0.1-0.4c0.1-0.1,0.2-0.2,0.4-0.2C129.3,5.1,129.4,5.1,129.5,5.2z M129.4,5.9
			c0-0.1,0.1-0.2,0.1-0.3c0-0.1,0-0.2,0-0.2c0-0.1-0.1-0.1-0.3-0.1c-0.1,0-0.2,0-0.2,0.1s-0.1,0.2-0.1,0.3c0,0.1,0,0.2,0.1,0.3
			S129,6,129.1,6C129.2,6,129.3,6,129.4,5.9z"/>
		<path class="st1" d="M131.6,5.1c0.1,0.1,0.1,0.2,0.1,0.3h-0.2c0-0.1,0-0.1-0.1-0.2s-0.1-0.1-0.2-0.1c-0.1,0-0.2,0.1-0.2,0.2
			c0,0.1,0,0.2,0,0.3c0,0.1,0,0.2,0.1,0.3c0,0.1,0.1,0.1,0.2,0.1c0.1,0,0.1,0,0.2-0.1c0,0,0.1-0.1,0.1-0.2h0.2
			c0,0.1-0.1,0.2-0.1,0.3s-0.2,0.1-0.3,0.1c-0.1,0-0.2-0.1-0.3-0.2c-0.1-0.1-0.1-0.2-0.1-0.4c0-0.2,0-0.3,0.1-0.4
			c0.1-0.1,0.2-0.2,0.3-0.2C131.5,5.1,131.6,5.1,131.6,5.1z"/>
		<path class="st1" d="M132.1,5.1h0.2v0.2c0,0,0-0.1,0.1-0.1c0.1-0.1,0.1-0.1,0.2-0.1c0,0,0,0,0,0c0,0,0,0,0,0v0.2c0,0,0,0,0,0
			c0,0,0,0,0,0c-0.1,0-0.2,0-0.2,0.1c0,0.1-0.1,0.1-0.1,0.2v0.6h-0.2V5.1z"/>
		<path class="st1" d="M133.7,5.1c0.1,0,0.1,0.1,0.2,0.1c0,0.1,0.1,0.1,0.1,0.2c0,0,0,0.1,0,0.2h-0.8c0,0.1,0,0.2,0.1,0.3
			c0,0.1,0.1,0.1,0.2,0.1c0.1,0,0.2,0,0.2-0.1c0,0,0.1-0.1,0.1-0.1h0.2c0,0,0,0.1,0,0.1c0,0-0.1,0.1-0.1,0.1
			c-0.1,0.1-0.1,0.1-0.2,0.1c0,0-0.1,0-0.1,0c-0.1,0-0.2,0-0.3-0.1C133,5.9,133,5.8,133,5.6c0-0.2,0-0.3,0.1-0.4
			c0.1-0.1,0.2-0.2,0.4-0.2C133.5,5.1,133.6,5.1,133.7,5.1z M133.7,5.5c0-0.1,0-0.1,0-0.2c0-0.1-0.1-0.1-0.2-0.1
			c-0.1,0-0.1,0-0.2,0.1c-0.1,0.1-0.1,0.1-0.1,0.2H133.7z"/>
		<path class="st1" d="M134.9,5.5C134.9,5.5,135,5.5,134.9,5.5c0.1-0.1,0.1-0.1,0.1-0.1c0-0.1,0-0.1-0.1-0.1s-0.1,0-0.2,0
			c-0.1,0-0.2,0-0.2,0.1c0,0,0,0.1,0,0.1h-0.2c0-0.1,0-0.2,0.1-0.3c0.1-0.1,0.2-0.1,0.3-0.1c0.1,0,0.2,0,0.3,0.1
			c0.1,0,0.1,0.1,0.1,0.2V6c0,0,0,0,0,0c0,0,0,0,0,0c0,0,0,0,0,0s0,0,0,0v0.1c0,0,0,0-0.1,0c0,0,0,0-0.1,0c-0.1,0-0.1,0-0.1-0.1
			c0,0,0-0.1,0-0.1c0,0-0.1,0.1-0.2,0.1c-0.1,0-0.1,0.1-0.2,0.1c-0.1,0-0.2,0-0.2-0.1s-0.1-0.1-0.1-0.2c0-0.1,0-0.2,0.1-0.2
			c0.1-0.1,0.1-0.1,0.2-0.1L134.9,5.5z M134.5,6c0,0,0.1,0,0.1,0c0.1,0,0.1,0,0.2,0c0.1,0,0.1-0.1,0.1-0.2V5.6c0,0,0,0-0.1,0
			s-0.1,0-0.1,0l-0.1,0c-0.1,0-0.1,0-0.1,0c-0.1,0-0.1,0.1-0.1,0.1C134.5,5.9,134.5,5.9,134.5,6z"/>
		<path class="st1" d="M135.7,4.8h0.2v0.3h0.2v0.1h-0.2v0.7c0,0,0,0.1,0,0.1c0,0,0,0,0.1,0c0,0,0,0,0,0c0,0,0,0,0,0v0.1
			c0,0,0,0-0.1,0c0,0,0,0-0.1,0c-0.1,0-0.1,0-0.2-0.1c0,0,0-0.1,0-0.2V5.2h-0.1V5.1h0.1V4.8z"/>
		<path class="st1" d="M137.1,5.1c0.1,0,0.1,0.1,0.2,0.1c0,0.1,0.1,0.1,0.1,0.2c0,0,0,0.1,0,0.2h-0.8c0,0.1,0,0.2,0.1,0.3
			c0,0.1,0.1,0.1,0.2,0.1c0.1,0,0.2,0,0.2-0.1c0,0,0.1-0.1,0.1-0.1h0.2c0,0,0,0.1,0,0.1c0,0-0.1,0.1-0.1,0.1
			c-0.1,0.1-0.1,0.1-0.2,0.1c0,0-0.1,0-0.1,0c-0.1,0-0.2,0-0.3-0.1c-0.1-0.1-0.1-0.2-0.1-0.4c0-0.2,0-0.3,0.1-0.4
			c0.1-0.1,0.2-0.2,0.4-0.2C136.9,5.1,137,5.1,137.1,5.1z M137.1,5.5c0-0.1,0-0.1,0-0.2c0-0.1-0.1-0.1-0.2-0.1c-0.1,0-0.1,0-0.2,0.1
			c-0.1,0.1-0.1,0.1-0.1,0.2H137.1z"/>
		<path class="st1" d="M139.2,5.5C139.3,5.5,139.3,5.5,139.2,5.5c0.1-0.1,0.1-0.1,0.1-0.1c0-0.1,0-0.1-0.1-0.1s-0.1,0-0.2,0
			c-0.1,0-0.2,0-0.2,0.1c0,0,0,0.1,0,0.1h-0.2c0-0.1,0-0.2,0.1-0.3c0.1-0.1,0.2-0.1,0.3-0.1c0.1,0,0.2,0,0.3,0.1
			c0.1,0,0.1,0.1,0.1,0.2V6c0,0,0,0,0,0c0,0,0,0,0,0c0,0,0,0,0,0s0,0,0,0v0.1c0,0,0,0-0.1,0c0,0,0,0-0.1,0c-0.1,0-0.1,0-0.1-0.1
			c0,0,0-0.1,0-0.1c0,0-0.1,0.1-0.2,0.1c-0.1,0-0.1,0.1-0.2,0.1c-0.1,0-0.2,0-0.2-0.1s-0.1-0.1-0.1-0.2c0-0.1,0-0.2,0.1-0.2
			c0.1-0.1,0.1-0.1,0.2-0.1L139.2,5.5z M138.9,6c0,0,0.1,0,0.1,0c0.1,0,0.1,0,0.2,0c0.1,0,0.1-0.1,0.1-0.2V5.6c0,0,0,0-0.1,0
			s-0.1,0-0.1,0l-0.1,0c-0.1,0-0.1,0-0.1,0c-0.1,0-0.1,0.1-0.1,0.1C138.8,5.9,138.8,5.9,138.9,6z"/>
		<path class="st1" d="M140.9,5.1h0.2v0.1c0-0.1,0.1-0.1,0.1-0.1c0.1,0,0.1-0.1,0.2-0.1c0.1,0,0.2,0,0.2,0.1c0,0,0.1,0.1,0.1,0.1
			c0-0.1,0.1-0.1,0.1-0.1c0.1,0,0.1,0,0.2,0c0.1,0,0.2,0.1,0.3,0.2c0,0.1,0,0.1,0,0.2v0.7h-0.2V5.4c0-0.1,0-0.1-0.1-0.1
			c0,0-0.1,0-0.1,0c-0.1,0-0.1,0-0.2,0.1s-0.1,0.1-0.1,0.2v0.6h-0.2V5.4c0-0.1,0-0.1,0-0.2c0,0-0.1-0.1-0.2-0.1
			c-0.1,0-0.1,0-0.2,0.1c-0.1,0.1-0.1,0.1-0.1,0.3v0.6h-0.2V5.1z"/>
		<path class="st1" d="M143.4,5.1c0.1,0,0.1,0.1,0.2,0.1c0,0.1,0.1,0.1,0.1,0.2c0,0,0,0.1,0,0.2h-0.8c0,0.1,0,0.2,0.1,0.3
			c0,0.1,0.1,0.1,0.2,0.1c0.1,0,0.2,0,0.2-0.1c0,0,0.1-0.1,0.1-0.1h0.2c0,0,0,0.1,0,0.1c0,0-0.1,0.1-0.1,0.1
			c-0.1,0.1-0.1,0.1-0.2,0.1c0,0-0.1,0-0.1,0c-0.1,0-0.2,0-0.3-0.1c-0.1-0.1-0.1-0.2-0.1-0.4c0-0.2,0-0.3,0.1-0.4
			c0.1-0.1,0.2-0.2,0.4-0.2C143.3,5.1,143.4,5.1,143.4,5.1z M143.5,5.5c0-0.1,0-0.1,0-0.2c0-0.1-0.1-0.1-0.2-0.1
			c-0.1,0-0.1,0-0.2,0.1c-0.1,0.1-0.1,0.1-0.1,0.2H143.5z"/>
		<path class="st1" d="M144.7,5.1c0,0,0.1,0.1,0.1,0.1V4.7h0.2v1.5h-0.2V6c0,0.1-0.1,0.1-0.1,0.1c-0.1,0-0.1,0-0.2,0
			c-0.1,0-0.2,0-0.3-0.1c-0.1-0.1-0.1-0.2-0.1-0.4c0-0.2,0-0.3,0.1-0.4c0.1-0.1,0.2-0.2,0.3-0.2C144.6,5.1,144.6,5.1,144.7,5.1z
			 M144.3,5.9c0,0.1,0.1,0.1,0.2,0.1c0.1,0,0.1,0,0.2-0.1c0.1-0.1,0.1-0.2,0.1-0.3c0-0.1,0-0.2-0.1-0.3c-0.1-0.1-0.1-0.1-0.2-0.1
			c-0.1,0-0.2,0-0.2,0.1c-0.1,0.1-0.1,0.2-0.1,0.3C144.2,5.7,144.2,5.8,144.3,5.9z"/>
		<path class="st1" d="M145.4,4.7h0.2v0.2h-0.2V4.7z M145.4,5.1h0.2v1h-0.2V5.1z"/>
		<path class="st1" d="M146.1,4.8h0.2v0.3h0.2v0.1h-0.2v0.7c0,0,0,0.1,0,0.1c0,0,0,0,0.1,0c0,0,0,0,0,0c0,0,0,0,0,0v0.1
			c0,0,0,0-0.1,0c0,0,0,0-0.1,0c-0.1,0-0.1,0-0.2-0.1c0,0,0-0.1,0-0.2V5.2H146V5.1h0.1V4.8z"/>
		<path class="st1" d="M147.4,5.5C147.4,5.5,147.5,5.5,147.4,5.5c0.1-0.1,0.1-0.1,0.1-0.1c0-0.1,0-0.1-0.1-0.1s-0.1,0-0.2,0
			c-0.1,0-0.2,0-0.2,0.1c0,0,0,0.1,0,0.1h-0.2c0-0.1,0-0.2,0.1-0.3c0.1-0.1,0.2-0.1,0.3-0.1c0.1,0,0.2,0,0.3,0.1
			c0.1,0,0.1,0.1,0.1,0.2V6c0,0,0,0,0,0c0,0,0,0,0,0c0,0,0,0,0,0s0,0,0,0v0.1c0,0,0,0-0.1,0c0,0,0,0-0.1,0c-0.1,0-0.1,0-0.1-0.1
			c0,0,0-0.1,0-0.1c0,0-0.1,0.1-0.2,0.1c-0.1,0-0.1,0.1-0.2,0.1c-0.1,0-0.2,0-0.2-0.1s-0.1-0.1-0.1-0.2c0-0.1,0-0.2,0.1-0.2
			c0.1-0.1,0.1-0.1,0.2-0.1L147.4,5.5z M147,6c0,0,0.1,0,0.1,0c0.1,0,0.1,0,0.2,0c0.1,0,0.1-0.1,0.1-0.2V5.6c0,0,0,0-0.1,0
			s-0.1,0-0.1,0l-0.1,0c-0.1,0-0.1,0-0.1,0c-0.1,0-0.1,0.1-0.1,0.1C147,5.9,147,5.9,147,6z"/>
		<path class="st1" d="M148.2,4.8h0.2v0.3h0.2v0.1h-0.2v0.7c0,0,0,0.1,0,0.1c0,0,0,0,0.1,0c0,0,0,0,0,0c0,0,0,0,0,0v0.1
			c0,0,0,0-0.1,0c0,0,0,0-0.1,0c-0.1,0-0.1,0-0.2-0.1c0,0,0-0.1,0-0.2V5.2h-0.1V5.1h0.1V4.8z"/>
		<path class="st1" d="M148.9,4.7h0.2v0.2h-0.2V4.7z M148.9,5.1h0.2v1h-0.2V5.1z"/>
		<path class="st1" d="M149.7,5.1l0.3,0.9l0.3-0.9h0.2L150,6.1h-0.2l-0.4-1.1H149.7z"/>
		<path class="st1" d="M151.4,5.1c0.1,0,0.1,0.1,0.2,0.1c0,0.1,0.1,0.1,0.1,0.2c0,0,0,0.1,0,0.2h-0.8c0,0.1,0,0.2,0.1,0.3
			c0,0.1,0.1,0.1,0.2,0.1c0.1,0,0.2,0,0.2-0.1c0,0,0.1-0.1,0.1-0.1h0.2c0,0,0,0.1,0,0.1c0,0-0.1,0.1-0.1,0.1
			c-0.1,0.1-0.1,0.1-0.2,0.1c0,0-0.1,0-0.1,0c-0.1,0-0.2,0-0.3-0.1c-0.1-0.1-0.1-0.2-0.1-0.4c0-0.2,0-0.3,0.1-0.4
			c0.1-0.1,0.2-0.2,0.4-0.2C151.3,5.1,151.4,5.1,151.4,5.1z M151.5,5.5c0-0.1,0-0.1,0-0.2c0-0.1-0.1-0.1-0.2-0.1
			c-0.1,0-0.1,0-0.2,0.1c-0.1,0.1-0.1,0.1-0.1,0.2H151.5z"/>
		<path class="st1" d="M153.6,5.5C153.6,5.5,153.6,5.5,153.6,5.5c0.1-0.1,0.1-0.1,0.1-0.1c0-0.1,0-0.1-0.1-0.1s-0.1,0-0.2,0
			c-0.1,0-0.2,0-0.2,0.1c0,0,0,0.1,0,0.1H153c0-0.1,0-0.2,0.1-0.3c0.1-0.1,0.2-0.1,0.3-0.1c0.1,0,0.2,0,0.3,0.1
			c0.1,0,0.1,0.1,0.1,0.2V6c0,0,0,0,0,0c0,0,0,0,0,0c0,0,0,0,0,0s0,0,0,0v0.1c0,0,0,0-0.1,0c0,0,0,0-0.1,0c-0.1,0-0.1,0-0.1-0.1
			c0,0,0-0.1,0-0.1c0,0-0.1,0.1-0.2,0.1c-0.1,0-0.1,0.1-0.2,0.1c-0.1,0-0.2,0-0.2-0.1S153,5.9,153,5.9c0-0.1,0-0.2,0.1-0.2
			c0.1-0.1,0.1-0.1,0.2-0.1L153.6,5.5z M153.2,6c0,0,0.1,0,0.1,0c0.1,0,0.1,0,0.2,0c0.1,0,0.1-0.1,0.1-0.2V5.6c0,0,0,0-0.1,0
			s-0.1,0-0.1,0l-0.1,0c-0.1,0-0.1,0-0.1,0c-0.1,0-0.1,0.1-0.1,0.1C153.2,5.9,153.2,5.9,153.2,6z"/>
		<path class="st1" d="M154.4,4.8h0.2v0.3h0.2v0.1h-0.2v0.7c0,0,0,0.1,0,0.1c0,0,0,0,0.1,0c0,0,0,0,0,0c0,0,0,0,0,0v0.1
			c0,0,0,0-0.1,0c0,0,0,0-0.1,0c-0.1,0-0.1,0-0.2-0.1c0,0,0-0.1,0-0.2V5.2h-0.1V5.1h0.1V4.8z"/>
		<path class="st1" d="M155.1,5.1h0.2v0.1c0-0.1,0.1-0.1,0.1-0.1c0.1,0,0.1-0.1,0.2-0.1c0.1,0,0.2,0,0.2,0.1c0,0,0.1,0.1,0.1,0.1
			c0-0.1,0.1-0.1,0.1-0.1c0.1,0,0.1,0,0.2,0c0.1,0,0.2,0.1,0.3,0.2c0,0.1,0,0.1,0,0.2v0.7h-0.2V5.4c0-0.1,0-0.1-0.1-0.1
			c0,0-0.1,0-0.1,0c-0.1,0-0.1,0-0.2,0.1s-0.1,0.1-0.1,0.2v0.6h-0.2V5.4c0-0.1,0-0.1,0-0.2c0,0-0.1-0.1-0.2-0.1
			c-0.1,0-0.1,0-0.2,0.1c-0.1,0.1-0.1,0.1-0.1,0.3v0.6h-0.2V5.1z"/>
		<path class="st1" d="M157.7,5.2c0.1,0.1,0.1,0.2,0.1,0.4c0,0.2,0,0.3-0.1,0.4s-0.2,0.2-0.4,0.2c-0.1,0-0.3,0-0.3-0.1
			c-0.1-0.1-0.1-0.2-0.1-0.4c0-0.2,0-0.3,0.1-0.4c0.1-0.1,0.2-0.2,0.4-0.2C157.5,5.1,157.7,5.1,157.7,5.2z M157.6,5.9
			c0-0.1,0.1-0.2,0.1-0.3c0-0.1,0-0.2,0-0.2c0-0.1-0.1-0.1-0.3-0.1c-0.1,0-0.2,0-0.2,0.1s-0.1,0.2-0.1,0.3c0,0.1,0,0.2,0.1,0.3
			s0.1,0.1,0.2,0.1C157.5,6,157.6,6,157.6,5.9z"/>
		<path class="st1" d="M158.4,5.8c0,0.1,0,0.1,0,0.1c0,0.1,0.1,0.1,0.2,0.1c0.1,0,0.1,0,0.2,0s0.1-0.1,0.1-0.1c0,0,0-0.1-0.1-0.1
			c0,0-0.1,0-0.2-0.1l-0.1,0c-0.1,0-0.2,0-0.2-0.1c-0.1,0-0.1-0.1-0.1-0.2c0-0.1,0-0.2,0.1-0.2c0.1-0.1,0.2-0.1,0.3-0.1
			c0.2,0,0.3,0,0.3,0.1c0,0.1,0.1,0.1,0.1,0.2h-0.2c0,0,0-0.1,0-0.1c0,0-0.1-0.1-0.2-0.1c-0.1,0-0.1,0-0.2,0c0,0-0.1,0.1-0.1,0.1
			c0,0,0,0.1,0.1,0.1c0,0,0.1,0,0.1,0l0.1,0c0.1,0,0.2,0.1,0.3,0.1c0.1,0,0.1,0.1,0.1,0.2c0,0.1,0,0.2-0.1,0.2s-0.2,0.1-0.3,0.1
			c-0.2,0-0.3,0-0.3-0.1c-0.1-0.1-0.1-0.2-0.1-0.3H158.4z"/>
		<path class="st1" d="M159.5,5.1h0.2v0.1c0,0,0.1-0.1,0.1-0.1c0.1,0,0.1-0.1,0.2-0.1c0.1,0,0.2,0,0.3,0.1c0.1,0.1,0.1,0.2,0.1,0.4
			c0,0.2-0.1,0.4-0.2,0.5c-0.1,0.1-0.2,0.1-0.3,0.1c-0.1,0-0.1,0-0.2-0.1c0,0-0.1-0.1-0.1-0.1v0.5h-0.2V5.1z M160.2,5.9
			c0.1-0.1,0.1-0.2,0.1-0.3c0-0.1,0-0.2,0-0.2c0-0.1-0.1-0.2-0.3-0.2c-0.1,0-0.2,0.1-0.3,0.2c0,0.1,0,0.1,0,0.2c0,0.1,0,0.2,0,0.2
			c0,0.1,0.1,0.2,0.3,0.2C160,6,160.1,6,160.2,5.9z"/>
		<path class="st1" d="M160.8,4.7h0.2v0.5c0-0.1,0.1-0.1,0.1-0.1c0.1,0,0.1-0.1,0.2-0.1c0.2,0,0.3,0.1,0.3,0.2c0,0.1,0,0.1,0,0.2
			v0.7h-0.2V5.5c0-0.1,0-0.1,0-0.2c0-0.1-0.1-0.1-0.2-0.1c-0.1,0-0.1,0-0.2,0.1C161,5.3,161,5.4,161,5.6v0.6h-0.2V4.7z"/>
		<path class="st1" d="M162.8,5.1c0.1,0,0.1,0.1,0.2,0.1c0,0.1,0.1,0.1,0.1,0.2c0,0,0,0.1,0,0.2h-0.8c0,0.1,0,0.2,0.1,0.3
			c0,0.1,0.1,0.1,0.2,0.1c0.1,0,0.2,0,0.2-0.1c0,0,0.1-0.1,0.1-0.1h0.2c0,0,0,0.1,0,0.1c0,0-0.1,0.1-0.1,0.1
			c-0.1,0.1-0.1,0.1-0.2,0.1c0,0-0.1,0-0.1,0c-0.1,0-0.2,0-0.3-0.1c-0.1-0.1-0.1-0.2-0.1-0.4c0-0.2,0-0.3,0.1-0.4
			c0.1-0.1,0.2-0.2,0.4-0.2C162.7,5.1,162.7,5.1,162.8,5.1z M162.9,5.5c0-0.1,0-0.1,0-0.2c0-0.1-0.1-0.1-0.2-0.1
			c-0.1,0-0.1,0-0.2,0.1c-0.1,0.1-0.1,0.1-0.1,0.2H162.9z"/>
		<path class="st1" d="M163.5,5.1h0.2v0.2c0,0,0-0.1,0.1-0.1c0.1-0.1,0.1-0.1,0.2-0.1c0,0,0,0,0,0c0,0,0,0,0,0v0.2c0,0,0,0,0,0
			c0,0,0,0,0,0c-0.1,0-0.2,0-0.2,0.1c0,0.1-0.1,0.1-0.1,0.2v0.6h-0.2V5.1z"/>
		<path class="st1" d="M165,5.1c0.1,0,0.1,0.1,0.2,0.1c0,0.1,0.1,0.1,0.1,0.2c0,0,0,0.1,0,0.2h-0.8c0,0.1,0,0.2,0.1,0.3
			c0,0.1,0.1,0.1,0.2,0.1c0.1,0,0.2,0,0.2-0.1c0,0,0.1-0.1,0.1-0.1h0.2c0,0,0,0.1,0,0.1c0,0-0.1,0.1-0.1,0.1
			c-0.1,0.1-0.1,0.1-0.2,0.1c0,0-0.1,0-0.1,0c-0.1,0-0.2,0-0.3-0.1c-0.1-0.1-0.1-0.2-0.1-0.4c0-0.2,0-0.3,0.1-0.4
			c0.1-0.1,0.2-0.2,0.4-0.2C164.9,5.1,164.9,5.1,165,5.1z M165.1,5.5c0-0.1,0-0.1,0-0.2c0-0.1-0.1-0.1-0.2-0.1c-0.1,0-0.1,0-0.2,0.1
			c-0.1,0.1-0.1,0.1-0.1,0.2H165.1z"/>
		<path class="st1" d="M166.6,4.8h0.2v0.3h0.2v0.1h-0.2v0.7c0,0,0,0.1,0,0.1c0,0,0,0,0.1,0c0,0,0,0,0,0c0,0,0,0,0,0v0.1
			c0,0,0,0-0.1,0c0,0,0,0-0.1,0c-0.1,0-0.1,0-0.2-0.1c0,0,0-0.1,0-0.2V5.2h-0.1V5.1h0.1V4.8z"/>
		<path class="st1" d="M167.4,4.7h0.2v0.5c0-0.1,0.1-0.1,0.1-0.1c0.1,0,0.1-0.1,0.2-0.1c0.2,0,0.3,0.1,0.3,0.2c0,0.1,0,0.1,0,0.2
			v0.7H168V5.5c0-0.1,0-0.1,0-0.2c0-0.1-0.1-0.1-0.2-0.1c-0.1,0-0.1,0-0.2,0.1c-0.1,0.1-0.1,0.1-0.1,0.3v0.6h-0.2V4.7z"/>
		<path class="st1" d="M169.2,5.5C169.3,5.5,169.3,5.5,169.2,5.5c0.1-0.1,0.1-0.1,0.1-0.1c0-0.1,0-0.1-0.1-0.1s-0.1,0-0.2,0
			c-0.1,0-0.2,0-0.2,0.1c0,0,0,0.1,0,0.1h-0.2c0-0.1,0-0.2,0.1-0.3c0.1-0.1,0.2-0.1,0.3-0.1c0.1,0,0.2,0,0.3,0.1
			c0.1,0,0.1,0.1,0.1,0.2V6c0,0,0,0,0,0c0,0,0,0,0,0c0,0,0,0,0,0s0,0,0,0v0.1c0,0,0,0-0.1,0c0,0,0,0-0.1,0c-0.1,0-0.1,0-0.1-0.1
			c0,0,0-0.1,0-0.1c0,0-0.1,0.1-0.2,0.1c-0.1,0-0.1,0.1-0.2,0.1c-0.1,0-0.2,0-0.2-0.1s-0.1-0.1-0.1-0.2c0-0.1,0-0.2,0.1-0.2
			c0.1-0.1,0.1-0.1,0.2-0.1L169.2,5.5z M168.9,6c0,0,0.1,0,0.1,0c0.1,0,0.1,0,0.2,0c0.1,0,0.1-0.1,0.1-0.2V5.6c0,0,0,0-0.1,0
			s-0.1,0-0.1,0l-0.1,0c-0.1,0-0.1,0-0.1,0c-0.1,0-0.1,0.1-0.1,0.1C168.8,5.9,168.8,5.9,168.9,6z"/>
		<path class="st1" d="M170,4.8h0.2v0.3h0.2v0.1h-0.2v0.7c0,0,0,0.1,0,0.1c0,0,0,0,0.1,0c0,0,0,0,0,0c0,0,0,0,0,0v0.1c0,0,0,0-0.1,0
			c0,0,0,0-0.1,0c-0.1,0-0.1,0-0.2-0.1c0,0,0-0.1,0-0.2V5.2h-0.1V5.1h0.1V4.8z"/>
		<path class="st1" d="M172.2,5.5C172.3,5.5,172.3,5.5,172.2,5.5c0.1-0.1,0.1-0.1,0.1-0.1c0-0.1,0-0.1-0.1-0.1s-0.1,0-0.2,0
			c-0.1,0-0.2,0-0.2,0.1c0,0,0,0.1,0,0.1h-0.2c0-0.1,0-0.2,0.1-0.3c0.1-0.1,0.2-0.1,0.3-0.1c0.1,0,0.2,0,0.3,0.1
			c0.1,0,0.1,0.1,0.1,0.2V6c0,0,0,0,0,0c0,0,0,0,0,0c0,0,0,0,0,0s0,0,0,0v0.1c0,0,0,0-0.1,0c0,0,0,0-0.1,0c-0.1,0-0.1,0-0.1-0.1
			c0,0,0-0.1,0-0.1c0,0-0.1,0.1-0.2,0.1c-0.1,0-0.1,0.1-0.2,0.1c-0.1,0-0.2,0-0.2-0.1s-0.1-0.1-0.1-0.2c0-0.1,0-0.2,0.1-0.2
			c0.1-0.1,0.1-0.1,0.2-0.1L172.2,5.5z M171.9,6c0,0,0.1,0,0.1,0c0.1,0,0.1,0,0.2,0c0.1,0,0.1-0.1,0.1-0.2V5.6c0,0,0,0-0.1,0
			s-0.1,0-0.1,0l-0.1,0c-0.1,0-0.1,0-0.1,0c-0.1,0-0.1,0.1-0.1,0.1C171.8,5.9,171.8,5.9,171.9,6z"/>
		<path class="st1" d="M173,4.7h0.2v1.4H173V4.7z"/>
		<path class="st1" d="M173.7,4.7h0.2v1.4h-0.2V4.7z"/>
		<path class="st1" d="M175.1,5.2c0.1,0.1,0.1,0.2,0.1,0.4c0,0.2,0,0.3-0.1,0.4s-0.2,0.2-0.4,0.2c-0.1,0-0.3,0-0.3-0.1
			c-0.1-0.1-0.1-0.2-0.1-0.4c0-0.2,0-0.3,0.1-0.4c0.1-0.1,0.2-0.2,0.4-0.2C174.9,5.1,175,5.1,175.1,5.2z M175,5.9
			c0-0.1,0.1-0.2,0.1-0.3c0-0.1,0-0.2,0-0.2c0-0.1-0.1-0.1-0.3-0.1c-0.1,0-0.2,0-0.2,0.1s-0.1,0.2-0.1,0.3c0,0.1,0,0.2,0.1,0.3
			s0.1,0.1,0.2,0.1C174.8,6,174.9,6,175,5.9z"/>
		<path class="st1" d="M175.7,5.1l0.2,0.8l0.2-0.8h0.2l0.2,0.8l0.2-0.8h0.2l-0.3,1.1h-0.2l-0.2-0.8L176,6.1h-0.2l-0.3-1.1H175.7z"/>
		<path class="st1" d="M177.4,5.8c0,0.1,0,0.1,0,0.1c0,0.1,0.1,0.1,0.2,0.1c0.1,0,0.1,0,0.2,0s0.1-0.1,0.1-0.1c0,0,0-0.1-0.1-0.1
			c0,0-0.1,0-0.2-0.1l-0.1,0c-0.1,0-0.2,0-0.2-0.1c-0.1,0-0.1-0.1-0.1-0.2c0-0.1,0-0.2,0.1-0.2c0.1-0.1,0.2-0.1,0.3-0.1
			c0.2,0,0.3,0,0.3,0.1c0,0.1,0.1,0.1,0.1,0.2h-0.2c0,0,0-0.1,0-0.1c0,0-0.1-0.1-0.2-0.1c-0.1,0-0.1,0-0.2,0c0,0-0.1,0.1-0.1,0.1
			c0,0,0,0.1,0.1,0.1c0,0,0.1,0,0.1,0l0.1,0c0.1,0,0.2,0.1,0.3,0.1c0.1,0,0.1,0.1,0.1,0.2c0,0.1,0,0.2-0.1,0.2s-0.2,0.1-0.3,0.1
			c-0.2,0-0.3,0-0.3-0.1c-0.1-0.1-0.1-0.2-0.1-0.3H177.4z"/>
		<path class="st1" d="M179.4,4.8h0.2v0.3h0.2v0.1h-0.2v0.7c0,0,0,0.1,0,0.1c0,0,0,0,0.1,0c0,0,0,0,0,0c0,0,0,0,0,0v0.1
			c0,0,0,0-0.1,0c0,0,0,0-0.1,0c-0.1,0-0.1,0-0.2-0.1c0,0,0-0.1,0-0.2V5.2h-0.1V5.1h0.1V4.8z"/>
		<path class="st1" d="M180.2,4.7h0.2v0.5c0-0.1,0.1-0.1,0.1-0.1c0.1,0,0.1-0.1,0.2-0.1c0.2,0,0.3,0.1,0.3,0.2c0,0.1,0,0.1,0,0.2
			v0.7h-0.2V5.5c0-0.1,0-0.1,0-0.2c0-0.1-0.1-0.1-0.2-0.1c-0.1,0-0.1,0-0.2,0.1c-0.1,0.1-0.1,0.1-0.1,0.3v0.6h-0.2V4.7z"/>
		<path class="st1" d="M182.1,5.1c0.1,0,0.1,0.1,0.2,0.1c0,0.1,0.1,0.1,0.1,0.2c0,0,0,0.1,0,0.2h-0.8c0,0.1,0,0.2,0.1,0.3
			c0,0.1,0.1,0.1,0.2,0.1c0.1,0,0.2,0,0.2-0.1c0,0,0.1-0.1,0.1-0.1h0.2c0,0,0,0.1,0,0.1c0,0-0.1,0.1-0.1,0.1
			c-0.1,0.1-0.1,0.1-0.2,0.1c0,0-0.1,0-0.1,0c-0.1,0-0.2,0-0.3-0.1c-0.1-0.1-0.1-0.2-0.1-0.4c0-0.2,0-0.3,0.1-0.4
			c0.1-0.1,0.2-0.2,0.4-0.2C182,5.1,182.1,5.1,182.1,5.1z M182.2,5.5c0-0.1,0-0.1,0-0.2c0-0.1-0.1-0.1-0.2-0.1c-0.1,0-0.1,0-0.2,0.1
			c-0.1,0.1-0.1,0.1-0.1,0.2H182.2z"/>
		<path class="st1" d="M183.8,5.1l0.3,0.9l0.3-0.9h0.2l-0.4,1.1H184l-0.4-1.1H183.8z"/>
		<path class="st1" d="M184.9,4.7h0.2v0.2h-0.2V4.7z M184.9,5.1h0.2v1h-0.2V5.1z"/>
		<path class="st1" d="M186.2,5.1c0.1,0,0.1,0.1,0.2,0.1c0,0.1,0.1,0.1,0.1,0.2c0,0,0,0.1,0,0.2h-0.8c0,0.1,0,0.2,0.1,0.3
			c0,0.1,0.1,0.1,0.2,0.1c0.1,0,0.2,0,0.2-0.1c0,0,0.1-0.1,0.1-0.1h0.2c0,0,0,0.1,0,0.1c0,0-0.1,0.1-0.1,0.1
			c-0.1,0.1-0.1,0.1-0.2,0.1c0,0-0.1,0-0.1,0c-0.1,0-0.2,0-0.3-0.1c-0.1-0.1-0.1-0.2-0.1-0.4c0-0.2,0-0.3,0.1-0.4
			c0.1-0.1,0.2-0.2,0.4-0.2C186.1,5.1,186.2,5.1,186.2,5.1z M186.3,5.5c0-0.1,0-0.1,0-0.2c0-0.1-0.1-0.1-0.2-0.1
			c-0.1,0-0.1,0-0.2,0.1c-0.1,0.1-0.1,0.1-0.1,0.2H186.3z"/>
		<path class="st1" d="M187,5.1l0.2,0.8l0.2-0.8h0.2l0.2,0.8l0.2-0.8h0.2l-0.3,1.1h-0.2l-0.2-0.8l-0.2,0.8h-0.2l-0.3-1.1H187z"/>
		<path class="st1" d="M189.2,5.1c0.1,0,0.1,0.1,0.2,0.1c0,0.1,0.1,0.1,0.1,0.2c0,0,0,0.1,0,0.2h-0.8c0,0.1,0,0.2,0.1,0.3
			c0,0.1,0.1,0.1,0.2,0.1c0.1,0,0.2,0,0.2-0.1c0,0,0.1-0.1,0.1-0.1h0.2c0,0,0,0.1,0,0.1c0,0-0.1,0.1-0.1,0.1
			c-0.1,0.1-0.1,0.1-0.2,0.1c0,0-0.1,0-0.1,0c-0.1,0-0.2,0-0.3-0.1c-0.1-0.1-0.1-0.2-0.1-0.4c0-0.2,0-0.3,0.1-0.4
			c0.1-0.1,0.2-0.2,0.4-0.2C189.1,5.1,189.1,5.1,189.2,5.1z M189.3,5.5c0-0.1,0-0.1,0-0.2c0-0.1-0.1-0.1-0.2-0.1
			c-0.1,0-0.1,0-0.2,0.1c-0.1,0.1-0.1,0.1-0.1,0.2H189.3z"/>
		<path class="st1" d="M189.9,5.1h0.2v0.2c0,0,0-0.1,0.1-0.1c0.1-0.1,0.1-0.1,0.2-0.1c0,0,0,0,0,0c0,0,0,0,0,0v0.2c0,0,0,0,0,0
			c0,0,0,0,0,0c-0.1,0-0.2,0-0.2,0.1c0,0.1-0.1,0.1-0.1,0.2v0.6h-0.2V5.1z"/>
		<path class="st1" d="M191.7,4.8h0.2v0.3h0.2v0.1h-0.2v0.7c0,0,0,0.1,0,0.1c0,0,0,0,0.1,0c0,0,0,0,0,0c0,0,0,0,0,0v0.1
			c0,0,0,0-0.1,0c0,0,0,0-0.1,0c-0.1,0-0.1,0-0.2-0.1c0,0,0-0.1,0-0.2V5.2h-0.1V5.1h0.1V4.8z"/>
		<path class="st1" d="M193.2,5.2c0.1,0.1,0.1,0.2,0.1,0.4c0,0.2,0,0.3-0.1,0.4s-0.2,0.2-0.4,0.2c-0.1,0-0.3,0-0.3-0.1
			c-0.1-0.1-0.1-0.2-0.1-0.4c0-0.2,0-0.3,0.1-0.4c0.1-0.1,0.2-0.2,0.4-0.2C193,5.1,193.1,5.1,193.2,5.2z M193.1,5.9
			c0-0.1,0.1-0.2,0.1-0.3c0-0.1,0-0.2,0-0.2c0-0.1-0.1-0.1-0.3-0.1c-0.1,0-0.2,0-0.2,0.1s-0.1,0.2-0.1,0.3c0,0.1,0,0.2,0.1,0.3
			s0.1,0.1,0.2,0.1C193,6,193,6,193.1,5.9z"/>
		<path class="st1" d="M194.7,4.8c0-0.1,0.1-0.1,0.2-0.1c0,0,0,0,0,0c0,0,0,0,0,0v0.2c0,0,0,0,0,0c0,0,0,0,0,0c-0.1,0-0.1,0-0.1,0
			s0,0.1,0,0.2h0.2v0.1h-0.2v0.9h-0.2V5.2h-0.1V5.1h0.1V4.9C194.7,4.8,194.7,4.8,194.7,4.8z"/>
		<path class="st1" d="M196.1,5.1c0.1,0,0.1,0.1,0.2,0.1c0,0.1,0.1,0.1,0.1,0.2c0,0,0,0.1,0,0.2h-0.8c0,0.1,0,0.2,0.1,0.3
			c0,0.1,0.1,0.1,0.2,0.1c0.1,0,0.2,0,0.2-0.1c0,0,0.1-0.1,0.1-0.1h0.2c0,0,0,0.1,0,0.1c0,0-0.1,0.1-0.1,0.1
			c-0.1,0.1-0.1,0.1-0.2,0.1c0,0-0.1,0-0.1,0c-0.1,0-0.2,0-0.3-0.1c-0.1-0.1-0.1-0.2-0.1-0.4c0-0.2,0-0.3,0.1-0.4
			c0.1-0.1,0.2-0.2,0.4-0.2C195.9,5.1,196,5.1,196.1,5.1z M196.1,5.5c0-0.1,0-0.1,0-0.2c0-0.1-0.1-0.1-0.2-0.1c-0.1,0-0.1,0-0.2,0.1
			c-0.1,0.1-0.1,0.1-0.1,0.2H196.1z"/>
		<path class="st1" d="M197.4,5.1c0.1,0,0.1,0.1,0.2,0.1c0,0.1,0.1,0.1,0.1,0.2c0,0,0,0.1,0,0.2h-0.8c0,0.1,0,0.2,0.1,0.3
			c0,0.1,0.1,0.1,0.2,0.1c0.1,0,0.2,0,0.2-0.1c0,0,0.1-0.1,0.1-0.1h0.2c0,0,0,0.1,0,0.1c0,0-0.1,0.1-0.1,0.1
			c-0.1,0.1-0.1,0.1-0.2,0.1c0,0-0.1,0-0.1,0c-0.1,0-0.2,0-0.3-0.1c-0.1-0.1-0.1-0.2-0.1-0.4c0-0.2,0-0.3,0.1-0.4
			c0.1-0.1,0.2-0.2,0.4-0.2C197.3,5.1,197.3,5.1,197.4,5.1z M197.5,5.5c0-0.1,0-0.1,0-0.2c0-0.1-0.1-0.1-0.2-0.1
			c-0.1,0-0.1,0-0.2,0.1c-0.1,0.1-0.1,0.1-0.1,0.2H197.5z"/>
		<path class="st1" d="M198.1,4.7h0.2v1.4h-0.2V4.7z"/>
		<path class="st1" d="M199.8,5.1v0.7c0,0.1,0,0.1,0,0.1c0,0.1,0.1,0.1,0.2,0.1c0.1,0,0.2-0.1,0.2-0.2c0-0.1,0-0.1,0-0.2V5.1h0.2
			v1.1h-0.2l0-0.2c0,0-0.1,0.1-0.1,0.1c-0.1,0.1-0.1,0.1-0.2,0.1c-0.1,0-0.2-0.1-0.3-0.2c0-0.1,0-0.1,0-0.2V5.1H199.8z"/>
		<path class="st1" d="M201,5.1h0.2v0.1c0-0.1,0.1-0.1,0.2-0.1s0.1,0,0.2,0c0.2,0,0.3,0.1,0.3,0.2c0,0.1,0,0.1,0,0.2v0.7h-0.2V5.5
			c0-0.1,0-0.1,0-0.2c0-0.1-0.1-0.1-0.2-0.1c0,0-0.1,0-0.1,0c0,0-0.1,0-0.1,0.1c0,0,0,0.1-0.1,0.1s0,0.1,0,0.2v0.6H201V5.1z"/>
		<path class="st1" d="M202.9,5.1c0,0,0.1,0.1,0.1,0.1V4.7h0.2v1.5H203V6c0,0.1-0.1,0.1-0.1,0.1c-0.1,0-0.1,0-0.2,0
			c-0.1,0-0.2,0-0.3-0.1c-0.1-0.1-0.1-0.2-0.1-0.4c0-0.2,0-0.3,0.1-0.4c0.1-0.1,0.2-0.2,0.3-0.2C202.7,5.1,202.8,5.1,202.9,5.1z
			 M202.5,5.9c0,0.1,0.1,0.1,0.2,0.1c0.1,0,0.1,0,0.2-0.1c0.1-0.1,0.1-0.2,0.1-0.3c0-0.1,0-0.2-0.1-0.3c-0.1-0.1-0.1-0.1-0.2-0.1
			c-0.1,0-0.2,0-0.2,0.1c-0.1,0.1-0.1,0.2-0.1,0.3C202.4,5.7,202.4,5.8,202.5,5.9z"/>
		<path class="st1" d="M203.6,4.7h0.2v0.2h-0.2V4.7z M203.6,5.1h0.2v1h-0.2V5.1z"/>
		<path class="st1" d="M204.4,5.8c0,0.1,0,0.1,0,0.1c0,0.1,0.1,0.1,0.2,0.1c0.1,0,0.1,0,0.2,0s0.1-0.1,0.1-0.1c0,0,0-0.1-0.1-0.1
			c0,0-0.1,0-0.2-0.1l-0.1,0c-0.1,0-0.2,0-0.2-0.1c-0.1,0-0.1-0.1-0.1-0.2c0-0.1,0-0.2,0.1-0.2c0.1-0.1,0.2-0.1,0.3-0.1
			c0.2,0,0.3,0,0.3,0.1c0,0.1,0.1,0.1,0.1,0.2h-0.2c0,0,0-0.1,0-0.1c0,0-0.1-0.1-0.2-0.1c-0.1,0-0.1,0-0.2,0c0,0-0.1,0.1-0.1,0.1
			c0,0,0,0.1,0.1,0.1c0,0,0.1,0,0.1,0l0.1,0c0.1,0,0.2,0.1,0.3,0.1c0.1,0,0.1,0.1,0.1,0.2c0,0.1,0,0.2-0.1,0.2s-0.2,0.1-0.3,0.1
			c-0.2,0-0.3,0-0.3-0.1c-0.1-0.1-0.1-0.2-0.1-0.3H204.4z"/>
		<path class="st1" d="M205.6,5.1v0.7c0,0.1,0,0.1,0,0.1c0,0.1,0.1,0.1,0.2,0.1c0.1,0,0.2-0.1,0.2-0.2c0-0.1,0-0.1,0-0.2V5.1h0.2
			v1.1h-0.2l0-0.2c0,0-0.1,0.1-0.1,0.1c-0.1,0.1-0.1,0.1-0.2,0.1c-0.1,0-0.2-0.1-0.3-0.2c0-0.1,0-0.1,0-0.2V5.1H205.6z"/>
		<path class="st1" d="M206.8,5.1h0.2v0.2c0,0,0-0.1,0.1-0.1c0.1-0.1,0.1-0.1,0.2-0.1c0,0,0,0,0,0c0,0,0,0,0,0v0.2c0,0,0,0,0,0
			c0,0,0,0,0,0c-0.1,0-0.2,0-0.2,0.1c0,0.1-0.1,0.1-0.1,0.2v0.6h-0.2V5.1z"/>
		<path class="st1" d="M207.6,4.7h0.2v0.5c0-0.1,0.1-0.1,0.1-0.1c0.1,0,0.1,0,0.2,0c0.1,0,0.2,0,0.3,0.1s0.1,0.2,0.1,0.4
			c0,0.2,0,0.3-0.1,0.4c-0.1,0.1-0.2,0.2-0.3,0.2c-0.1,0-0.1,0-0.2-0.1c0,0-0.1-0.1-0.1-0.1v0.1h-0.2V4.7z M208.3,5.9
			c0-0.1,0.1-0.2,0.1-0.3c0-0.1,0-0.2-0.1-0.3c0-0.1-0.1-0.1-0.2-0.1c-0.1,0-0.2,0-0.2,0.1c-0.1,0.1-0.1,0.2-0.1,0.3
			c0,0.1,0,0.2,0,0.2c0,0.1,0.1,0.2,0.3,0.2C208.2,6,208.3,6,208.3,5.9z"/>
		<path class="st1" d="M209.6,5.1c0.1,0,0.1,0.1,0.2,0.1c0,0.1,0.1,0.1,0.1,0.2c0,0,0,0.1,0,0.2h-0.8c0,0.1,0,0.2,0.1,0.3
			c0,0.1,0.1,0.1,0.2,0.1c0.1,0,0.2,0,0.2-0.1c0,0,0.1-0.1,0.1-0.1h0.2c0,0,0,0.1,0,0.1c0,0-0.1,0.1-0.1,0.1
			c-0.1,0.1-0.1,0.1-0.2,0.1c0,0-0.1,0-0.1,0c-0.1,0-0.2,0-0.3-0.1c-0.1-0.1-0.1-0.2-0.1-0.4c0-0.2,0-0.3,0.1-0.4
			c0.1-0.1,0.2-0.2,0.4-0.2C209.5,5.1,209.6,5.1,209.6,5.1z M209.7,5.5c0-0.1,0-0.1,0-0.2c0-0.1-0.1-0.1-0.2-0.1
			c-0.1,0-0.1,0-0.2,0.1c-0.1,0.1-0.1,0.1-0.1,0.2H209.7z"/>
		<path class="st1" d="M210.9,5.1c0,0,0.1,0.1,0.1,0.1V4.7h0.2v1.5H211V6c0,0.1-0.1,0.1-0.1,0.1c-0.1,0-0.1,0-0.2,0
			c-0.1,0-0.2,0-0.3-0.1c-0.1-0.1-0.1-0.2-0.1-0.4c0-0.2,0-0.3,0.1-0.4c0.1-0.1,0.2-0.2,0.3-0.2C210.8,5.1,210.8,5.1,210.9,5.1z
			 M210.5,5.9c0,0.1,0.1,0.1,0.2,0.1c0.1,0,0.1,0,0.2-0.1c0.1-0.1,0.1-0.2,0.1-0.3c0-0.1,0-0.2-0.1-0.3c-0.1-0.1-0.1-0.1-0.2-0.1
			c-0.1,0-0.2,0-0.2,0.1c-0.1,0.1-0.1,0.2-0.1,0.3C210.4,5.7,210.4,5.8,210.5,5.9z"/>
		<path class="st1" d="M211.7,6.3C211.7,6.3,211.7,6.3,211.7,6.3c0.1-0.1,0.1-0.2,0.1-0.2c0,0,0,0,0,0s0,0,0,0h-0.1V5.9h0.2v0.2
			c0,0.1,0,0.1,0,0.2S211.8,6.4,211.7,6.3L211.7,6.3z"/>
		<path class="st1" d="M212.6,5.1v0.7c0,0.1,0,0.1,0,0.1c0,0.1,0.1,0.1,0.2,0.1c0.1,0,0.2-0.1,0.2-0.2c0-0.1,0-0.1,0-0.2V5.1h0.2
			v1.1h-0.2l0-0.2c0,0-0.1,0.1-0.1,0.1c-0.1,0.1-0.1,0.1-0.2,0.1c-0.1,0-0.2-0.1-0.3-0.2c0-0.1,0-0.1,0-0.2V5.1H212.6z"/>
		<path class="st1" d="M213.7,5.1h0.2v0.1c0-0.1,0.1-0.1,0.2-0.1s0.1,0,0.2,0c0.2,0,0.3,0.1,0.3,0.2c0,0.1,0,0.1,0,0.2v0.7h-0.2V5.5
			c0-0.1,0-0.1,0-0.2c0-0.1-0.1-0.1-0.2-0.1c0,0-0.1,0-0.1,0c0,0-0.1,0-0.1,0.1c0,0,0,0.1-0.1,0.1s0,0.1,0,0.2v0.6h-0.2V5.1z"/>
		<path class="st1" d="M215,4.7h0.2v0.2H215V4.7z M215,5.1h0.2v1H215V5.1z"/>
		<path class="st1" d="M215.7,5.1h0.2v0.1c0-0.1,0.1-0.1,0.2-0.1s0.1,0,0.2,0c0.2,0,0.3,0.1,0.3,0.2c0,0.1,0,0.1,0,0.2v0.7h-0.2V5.5
			c0-0.1,0-0.1,0-0.2c0-0.1-0.1-0.1-0.2-0.1c0,0-0.1,0-0.1,0c0,0-0.1,0-0.1,0.1c0,0,0,0.1-0.1,0.1s0,0.1,0,0.2v0.6h-0.2V5.1z"/>
		<path class="st1" d="M217,4.7h0.2v0.5c0-0.1,0.1-0.1,0.1-0.1c0.1,0,0.1-0.1,0.2-0.1c0.2,0,0.3,0.1,0.3,0.2c0,0.1,0,0.1,0,0.2v0.7
			h-0.2V5.5c0-0.1,0-0.1,0-0.2c0-0.1-0.1-0.1-0.2-0.1c-0.1,0-0.1,0-0.2,0.1c-0.1,0.1-0.1,0.1-0.1,0.3v0.6H217V4.7z"/>
		<path class="st1" d="M218.3,4.7h0.2v0.2h-0.2V4.7z M218.3,5.1h0.2v1h-0.2V5.1z"/>
		<path class="st1" d="M219,4.7h0.2v0.5c0-0.1,0.1-0.1,0.1-0.1c0.1,0,0.1,0,0.2,0c0.1,0,0.2,0,0.3,0.1s0.1,0.2,0.1,0.4
			c0,0.2,0,0.3-0.1,0.4c-0.1,0.1-0.2,0.2-0.3,0.2c-0.1,0-0.1,0-0.2-0.1c0,0-0.1-0.1-0.1-0.1v0.1H219V4.7z M219.7,5.9
			c0-0.1,0.1-0.2,0.1-0.3c0-0.1,0-0.2-0.1-0.3c0-0.1-0.1-0.1-0.2-0.1c-0.1,0-0.2,0-0.2,0.1c-0.1,0.1-0.1,0.2-0.1,0.3
			c0,0.1,0,0.2,0,0.2c0,0.1,0.1,0.2,0.3,0.2C219.5,6,219.6,6,219.7,5.9z"/>
		<path class="st1" d="M220.3,4.7h0.2v0.2h-0.2V4.7z M220.3,5.1h0.2v1h-0.2V5.1z"/>
		<path class="st1" d="M221,4.8h0.2v0.3h0.2v0.1h-0.2v0.7c0,0,0,0.1,0,0.1c0,0,0,0,0.1,0c0,0,0,0,0,0c0,0,0,0,0,0v0.1c0,0,0,0-0.1,0
			c0,0,0,0-0.1,0c-0.1,0-0.1,0-0.2-0.1c0,0,0-0.1,0-0.2V5.2h-0.1V5.1h0.1V4.8z"/>
		<path class="st1" d="M222.4,5.1c0.1,0,0.1,0.1,0.2,0.1c0,0.1,0.1,0.1,0.1,0.2c0,0,0,0.1,0,0.2h-0.8c0,0.1,0,0.2,0.1,0.3
			c0,0.1,0.1,0.1,0.2,0.1c0.1,0,0.2,0,0.2-0.1c0,0,0.1-0.1,0.1-0.1h0.2c0,0,0,0.1,0,0.1c0,0-0.1,0.1-0.1,0.1
			c-0.1,0.1-0.1,0.1-0.2,0.1c0,0-0.1,0-0.1,0c-0.1,0-0.2,0-0.3-0.1c-0.1-0.1-0.1-0.2-0.1-0.4c0-0.2,0-0.3,0.1-0.4
			c0.1-0.1,0.2-0.2,0.4-0.2C222.2,5.1,222.3,5.1,222.4,5.1z M222.4,5.5c0-0.1,0-0.1,0-0.2c0-0.1-0.1-0.1-0.2-0.1
			c-0.1,0-0.1,0-0.2,0.1c-0.1,0.1-0.1,0.1-0.1,0.2H222.4z"/>
		<path class="st1" d="M223.6,5.1c0,0,0.1,0.1,0.1,0.1V4.7h0.2v1.5h-0.2V6c0,0.1-0.1,0.1-0.1,0.1c-0.1,0-0.1,0-0.2,0
			c-0.1,0-0.2,0-0.3-0.1C223,5.9,223,5.8,223,5.6c0-0.2,0-0.3,0.1-0.4c0.1-0.1,0.2-0.2,0.3-0.2C223.5,5.1,223.6,5.1,223.6,5.1z
			 M223.2,5.9c0,0.1,0.1,0.1,0.2,0.1c0.1,0,0.1,0,0.2-0.1c0.1-0.1,0.1-0.2,0.1-0.3c0-0.1,0-0.2-0.1-0.3c-0.1-0.1-0.1-0.1-0.2-0.1
			c-0.1,0-0.2,0-0.2,0.1c-0.1,0.1-0.1,0.2-0.1,0.3C223.2,5.7,223.2,5.8,223.2,5.9z"/>
		<path class="st1" d="M225.8,5.5C225.9,5.5,225.9,5.5,225.8,5.5c0.1-0.1,0.1-0.1,0.1-0.1c0-0.1,0-0.1-0.1-0.1s-0.1,0-0.2,0
			c-0.1,0-0.2,0-0.2,0.1c0,0,0,0.1,0,0.1h-0.2c0-0.1,0-0.2,0.1-0.3c0.1-0.1,0.2-0.1,0.3-0.1c0.1,0,0.2,0,0.3,0.1
			c0.1,0,0.1,0.1,0.1,0.2V6c0,0,0,0,0,0c0,0,0,0,0,0c0,0,0,0,0,0s0,0,0,0v0.1c0,0,0,0-0.1,0c0,0,0,0-0.1,0c-0.1,0-0.1,0-0.1-0.1
			c0,0,0-0.1,0-0.1c0,0-0.1,0.1-0.2,0.1c-0.1,0-0.1,0.1-0.2,0.1c-0.1,0-0.2,0-0.2-0.1s-0.1-0.1-0.1-0.2c0-0.1,0-0.2,0.1-0.2
			c0.1-0.1,0.1-0.1,0.2-0.1L225.8,5.5z M225.5,6c0,0,0.1,0,0.1,0c0.1,0,0.1,0,0.2,0c0.1,0,0.1-0.1,0.1-0.2V5.6c0,0,0,0-0.1,0
			s-0.1,0-0.1,0l-0.1,0c-0.1,0-0.1,0-0.1,0c-0.1,0-0.1,0.1-0.1,0.1C225.4,5.9,225.4,5.9,225.5,6z"/>
		<path class="st1" d="M226.6,5.1h0.2v0.1c0-0.1,0.1-0.1,0.2-0.1s0.1,0,0.2,0c0.2,0,0.3,0.1,0.3,0.2c0,0.1,0,0.1,0,0.2v0.7h-0.2V5.5
			c0-0.1,0-0.1,0-0.2c0-0.1-0.1-0.1-0.2-0.1c0,0-0.1,0-0.1,0c0,0-0.1,0-0.1,0.1c0,0,0,0.1-0.1,0.1s0,0.1,0,0.2v0.6h-0.2V5.1z"/>
		<path class="st1" d="M228.5,5.1c0,0,0.1,0.1,0.1,0.1V4.7h0.2v1.5h-0.2V6c0,0.1-0.1,0.1-0.1,0.1c-0.1,0-0.1,0-0.2,0
			c-0.1,0-0.2,0-0.3-0.1c-0.1-0.1-0.1-0.2-0.1-0.4c0-0.2,0-0.3,0.1-0.4c0.1-0.1,0.2-0.2,0.3-0.2C228.4,5.1,228.5,5.1,228.5,5.1z
			 M228.1,5.9c0,0.1,0.1,0.1,0.2,0.1c0.1,0,0.1,0,0.2-0.1c0.1-0.1,0.1-0.2,0.1-0.3c0-0.1,0-0.2-0.1-0.3c-0.1-0.1-0.1-0.1-0.2-0.1
			c-0.1,0-0.2,0-0.2,0.1c-0.1,0.1-0.1,0.2-0.1,0.3C228,5.7,228.1,5.8,228.1,5.9z"/>
		<path class="st1" d="M116.8,8.1h0.2v0.1c0,0,0.1-0.1,0.1-0.1c0.1,0,0.1-0.1,0.2-0.1c0.1,0,0.2,0,0.3,0.1c0.1,0.1,0.1,0.2,0.1,0.4
			c0,0.2-0.1,0.4-0.2,0.5c-0.1,0.1-0.2,0.1-0.3,0.1c-0.1,0-0.1,0-0.2-0.1c0,0-0.1-0.1-0.1-0.1v0.5h-0.2V8.1z M117.5,8.9
			c0.1-0.1,0.1-0.2,0.1-0.3c0-0.1,0-0.2,0-0.2c0-0.1-0.1-0.2-0.3-0.2c-0.1,0-0.2,0.1-0.3,0.2c0,0.1,0,0.1,0,0.2c0,0.1,0,0.2,0,0.2
			c0,0.1,0.1,0.2,0.3,0.2C117.3,9,117.4,9,117.5,8.9z"/>
		<path class="st1" d="M118.1,8.1h0.2v0.2c0,0,0-0.1,0.1-0.1c0.1-0.1,0.1-0.1,0.2-0.1c0,0,0,0,0,0c0,0,0,0,0,0v0.2c0,0,0,0,0,0
			c0,0,0,0,0,0c-0.1,0-0.2,0-0.2,0.1c0,0.1-0.1,0.1-0.1,0.2v0.6h-0.2V8.1z"/>
		<path class="st1" d="M119.8,8.2c0.1,0.1,0.1,0.2,0.1,0.4c0,0.2,0,0.3-0.1,0.4s-0.2,0.2-0.4,0.2c-0.1,0-0.3,0-0.3-0.1
			c-0.1-0.1-0.1-0.2-0.1-0.4c0-0.2,0-0.3,0.1-0.4c0.1-0.1,0.2-0.2,0.4-0.2C119.6,8,119.7,8.1,119.8,8.2z M119.7,8.9
			c0-0.1,0.1-0.2,0.1-0.3c0-0.1,0-0.2,0-0.2c0-0.1-0.1-0.1-0.3-0.1c-0.1,0-0.2,0-0.2,0.1s-0.1,0.2-0.1,0.3c0,0.1,0,0.2,0.1,0.3
			s0.1,0.1,0.2,0.1C119.5,9,119.6,9,119.7,8.9z"/>
		<path class="st1" d="M120.4,7.8h0.2v0.3h0.2v0.1h-0.2v0.7c0,0,0,0.1,0,0.1c0,0,0,0,0.1,0c0,0,0,0,0,0c0,0,0,0,0,0v0.1
			c0,0,0,0-0.1,0c0,0,0,0-0.1,0c-0.1,0-0.1,0-0.2-0.1c0,0,0-0.1,0-0.2V8.2h-0.1V8.1h0.1V7.8z"/>
		<path class="st1" d="M121.7,8.1c0.1,0,0.1,0.1,0.2,0.1c0,0.1,0.1,0.1,0.1,0.2c0,0,0,0.1,0,0.2h-0.8c0,0.1,0,0.2,0.1,0.3
			c0,0.1,0.1,0.1,0.2,0.1c0.1,0,0.2,0,0.2-0.1c0,0,0.1-0.1,0.1-0.1h0.2c0,0,0,0.1,0,0.1c0,0-0.1,0.1-0.1,0.1
			c-0.1,0.1-0.1,0.1-0.2,0.1c0,0-0.1,0-0.1,0c-0.1,0-0.2,0-0.3-0.1c-0.1-0.1-0.1-0.2-0.1-0.4c0-0.2,0-0.3,0.1-0.4
			c0.1-0.1,0.2-0.2,0.4-0.2C121.6,8,121.7,8.1,121.7,8.1z M121.8,8.5c0-0.1,0-0.1,0-0.2c0-0.1-0.1-0.1-0.2-0.1c-0.1,0-0.1,0-0.2,0.1
			c-0.1,0.1-0.1,0.1-0.1,0.2H121.8z"/>
		<path class="st1" d="M123.1,8.1c0.1,0.1,0.1,0.2,0.1,0.3h-0.2c0-0.1,0-0.1-0.1-0.2s-0.1-0.1-0.2-0.1c-0.1,0-0.2,0.1-0.2,0.2
			c0,0.1,0,0.2,0,0.3c0,0.1,0,0.2,0.1,0.3c0,0.1,0.1,0.1,0.2,0.1c0.1,0,0.1,0,0.2-0.1c0,0,0.1-0.1,0.1-0.2h0.2
			c0,0.1-0.1,0.2-0.1,0.3s-0.2,0.1-0.3,0.1c-0.1,0-0.2-0.1-0.3-0.2c-0.1-0.1-0.1-0.2-0.1-0.4c0-0.2,0-0.3,0.1-0.4
			c0.1-0.1,0.2-0.2,0.3-0.2C122.9,8,123,8.1,123.1,8.1z"/>
		<path class="st1" d="M123.7,7.8h0.2v0.3h0.2v0.1h-0.2v0.7c0,0,0,0.1,0,0.1c0,0,0,0,0.1,0c0,0,0,0,0,0c0,0,0,0,0,0v0.1
			c0,0,0,0-0.1,0c0,0,0,0-0.1,0c-0.1,0-0.1,0-0.2-0.1c0,0,0-0.1,0-0.2V8.2h-0.1V8.1h0.1V7.8z"/>
		<path class="st1" d="M125,8.1c0.1,0,0.1,0.1,0.2,0.1c0,0.1,0.1,0.1,0.1,0.2c0,0,0,0.1,0,0.2h-0.8c0,0.1,0,0.2,0.1,0.3
			c0,0.1,0.1,0.1,0.2,0.1c0.1,0,0.2,0,0.2-0.1c0,0,0.1-0.1,0.1-0.1h0.2c0,0,0,0.1,0,0.1c0,0-0.1,0.1-0.1,0.1
			c-0.1,0.1-0.1,0.1-0.2,0.1c0,0-0.1,0-0.1,0c-0.1,0-0.2,0-0.3-0.1c-0.1-0.1-0.1-0.2-0.1-0.4c0-0.2,0-0.3,0.1-0.4
			c0.1-0.1,0.2-0.2,0.4-0.2C124.9,8,125,8.1,125,8.1z M125.1,8.5c0-0.1,0-0.1,0-0.2c0-0.1-0.1-0.1-0.2-0.1c-0.1,0-0.1,0-0.2,0.1
			c-0.1,0.1-0.1,0.1-0.1,0.2H125.1z"/>
		<path class="st1" d="M126.3,8.1c0,0,0.1,0.1,0.1,0.1V7.7h0.2v1.5h-0.2V9c0,0.1-0.1,0.1-0.1,0.1c-0.1,0-0.1,0-0.2,0
			c-0.1,0-0.2,0-0.3-0.1c-0.1-0.1-0.1-0.2-0.1-0.4c0-0.2,0-0.3,0.1-0.4c0.1-0.1,0.2-0.2,0.3-0.2C126.2,8,126.2,8.1,126.3,8.1z
			 M125.9,8.9c0,0.1,0.1,0.1,0.2,0.1c0.1,0,0.1,0,0.2-0.1c0.1-0.1,0.1-0.2,0.1-0.3c0-0.1,0-0.2-0.1-0.3c-0.1-0.1-0.1-0.1-0.2-0.1
			c-0.1,0-0.2,0-0.2,0.1c-0.1,0.1-0.1,0.2-0.1,0.3C125.8,8.7,125.8,8.8,125.9,8.9z"/>
		<path class="st1" d="M127.1,9.3C127.1,9.3,127.1,9.3,127.1,9.3c0.1-0.1,0.1-0.2,0.1-0.2c0,0,0,0,0,0s0,0,0,0h-0.1V8.9h0.2v0.2
			c0,0.1,0,0.1,0,0.2S127.1,9.4,127.1,9.3L127.1,9.3z"/>
		<path class="st1" d="M127.9,8.8c0,0.1,0,0.1,0,0.1c0,0.1,0.1,0.1,0.2,0.1c0.1,0,0.1,0,0.2,0s0.1-0.1,0.1-0.1c0,0,0-0.1-0.1-0.1
			c0,0-0.1,0-0.2-0.1l-0.1,0c-0.1,0-0.2,0-0.2-0.1c-0.1,0-0.1-0.1-0.1-0.2c0-0.1,0-0.2,0.1-0.2c0.1-0.1,0.2-0.1,0.3-0.1
			c0.2,0,0.3,0,0.3,0.1c0,0.1,0.1,0.1,0.1,0.2h-0.2c0,0,0-0.1,0-0.1c0,0-0.1-0.1-0.2-0.1c-0.1,0-0.1,0-0.2,0c0,0-0.1,0.1-0.1,0.1
			c0,0,0,0.1,0.1,0.1c0,0,0.1,0,0.1,0l0.1,0c0.1,0,0.2,0.1,0.3,0.1c0.1,0,0.1,0.1,0.1,0.2c0,0.1,0,0.2-0.1,0.2s-0.2,0.1-0.3,0.1
			c-0.2,0-0.3,0-0.3-0.1c-0.1-0.1-0.1-0.2-0.1-0.3H127.9z"/>
		<path class="st1" d="M129.8,8.2c0.1,0.1,0.1,0.2,0.1,0.4c0,0.2,0,0.3-0.1,0.4s-0.2,0.2-0.4,0.2c-0.1,0-0.3,0-0.3-0.1
			c-0.1-0.1-0.1-0.2-0.1-0.4c0-0.2,0-0.3,0.1-0.4c0.1-0.1,0.2-0.2,0.4-0.2C129.6,8,129.7,8.1,129.8,8.2z M129.7,8.9
			c0-0.1,0.1-0.2,0.1-0.3c0-0.1,0-0.2,0-0.2c0-0.1-0.1-0.1-0.3-0.1c-0.1,0-0.2,0-0.2,0.1s-0.1,0.2-0.1,0.3c0,0.1,0,0.2,0.1,0.3
			s0.1,0.1,0.2,0.1C129.5,9,129.6,9,129.7,8.9z"/>
		<path class="st1" d="M131.1,7.7h0.2v0.5c0-0.1,0.1-0.1,0.1-0.1c0.1,0,0.1-0.1,0.2-0.1c0.2,0,0.3,0.1,0.3,0.2c0,0.1,0,0.1,0,0.2
			v0.7h-0.2V8.5c0-0.1,0-0.1,0-0.2c0-0.1-0.1-0.1-0.2-0.1c-0.1,0-0.1,0-0.2,0.1c-0.1,0.1-0.1,0.1-0.1,0.3v0.6h-0.2V7.7z"/>
		<path class="st1" d="M133.1,8.1c0.1,0,0.1,0.1,0.2,0.1c0,0.1,0.1,0.1,0.1,0.2c0,0,0,0.1,0,0.2h-0.8c0,0.1,0,0.2,0.1,0.3
			c0,0.1,0.1,0.1,0.2,0.1c0.1,0,0.2,0,0.2-0.1c0,0,0.1-0.1,0.1-0.1h0.2c0,0,0,0.1,0,0.1c0,0-0.1,0.1-0.1,0.1
			c-0.1,0.1-0.1,0.1-0.2,0.1c0,0-0.1,0-0.1,0c-0.1,0-0.2,0-0.3-0.1c-0.1-0.1-0.1-0.2-0.1-0.4c0-0.2,0-0.3,0.1-0.4
			c0.1-0.1,0.2-0.2,0.4-0.2C132.9,8,133,8.1,133.1,8.1z M133.1,8.5c0-0.1,0-0.1,0-0.2c0-0.1-0.1-0.1-0.2-0.1c-0.1,0-0.1,0-0.2,0.1
			c-0.1,0.1-0.1,0.1-0.1,0.2H133.1z"/>
		<path class="st1" d="M135.2,8.1c0.1,0.1,0.1,0.2,0.1,0.3h-0.2c0-0.1,0-0.1-0.1-0.2s-0.1-0.1-0.2-0.1c-0.1,0-0.2,0.1-0.2,0.2
			c0,0.1,0,0.2,0,0.3c0,0.1,0,0.2,0.1,0.3c0,0.1,0.1,0.1,0.2,0.1c0.1,0,0.1,0,0.2-0.1c0,0,0.1-0.1,0.1-0.2h0.2
			c0,0.1-0.1,0.2-0.1,0.3s-0.2,0.1-0.3,0.1c-0.1,0-0.2-0.1-0.3-0.2c-0.1-0.1-0.1-0.2-0.1-0.4c0-0.2,0-0.3,0.1-0.4
			c0.1-0.1,0.2-0.2,0.3-0.2C135,8,135.1,8.1,135.2,8.1z"/>
		<path class="st1" d="M136.3,8.5C136.3,8.5,136.3,8.5,136.3,8.5c0.1-0.1,0.1-0.1,0.1-0.1c0-0.1,0-0.1-0.1-0.1s-0.1,0-0.2,0
			c-0.1,0-0.2,0-0.2,0.1c0,0,0,0.1,0,0.1h-0.2c0-0.1,0-0.2,0.1-0.3c0.1-0.1,0.2-0.1,0.3-0.1c0.1,0,0.2,0,0.3,0.1
			c0.1,0,0.1,0.1,0.1,0.2v0.6c0,0,0,0,0,0c0,0,0,0,0,0c0,0,0,0,0,0s0,0,0,0v0.1c0,0,0,0-0.1,0c0,0,0,0-0.1,0c-0.1,0-0.1,0-0.1-0.1
			c0,0,0-0.1,0-0.1c0,0-0.1,0.1-0.2,0.1c-0.1,0-0.1,0.1-0.2,0.1c-0.1,0-0.2,0-0.2-0.1s-0.1-0.1-0.1-0.2c0-0.1,0-0.2,0.1-0.2
			c0.1-0.1,0.1-0.1,0.2-0.1L136.3,8.5z M135.9,9c0,0,0.1,0,0.1,0c0.1,0,0.1,0,0.2,0c0.1,0,0.1-0.1,0.1-0.2V8.6c0,0,0,0-0.1,0
			s-0.1,0-0.1,0l-0.1,0c-0.1,0-0.1,0-0.1,0c-0.1,0-0.1,0.1-0.1,0.1C135.8,8.9,135.9,8.9,135.9,9z"/>
		<path class="st1" d="M137,8.1h0.2v0.1c0-0.1,0.1-0.1,0.2-0.1s0.1,0,0.2,0c0.2,0,0.3,0.1,0.3,0.2c0,0.1,0,0.1,0,0.2v0.7h-0.2V8.5
			c0-0.1,0-0.1,0-0.2c0-0.1-0.1-0.1-0.2-0.1c0,0-0.1,0-0.1,0c0,0-0.1,0-0.1,0.1c0,0,0,0.1-0.1,0.1s0,0.1,0,0.2v0.6H137V8.1z"/>
		<path class="st1" d="M139.2,7.7c0-0.1,0.1-0.1,0.2-0.1c0,0,0,0,0,0c0,0,0,0,0,0v0.2c0,0,0,0,0,0c0,0,0,0,0,0c-0.1,0-0.1,0-0.1,0
			s0,0.1,0,0.2h0.2v0.1h-0.2v0.9h-0.2V8.2H139V8.1h0.1V7.9C139.2,7.8,139.2,7.8,139.2,7.7z"/>
		<path class="st1" d="M139.9,7.7h0.2v0.2h-0.2V7.7z M139.9,8.1h0.2v1h-0.2V8.1z"/>
		<path class="st1" d="M140.5,8.1h0.2v0.1c0-0.1,0.1-0.1,0.2-0.1s0.1,0,0.2,0c0.2,0,0.3,0.1,0.3,0.2c0,0.1,0,0.1,0,0.2v0.7h-0.2V8.5
			c0-0.1,0-0.1,0-0.2c0-0.1-0.1-0.1-0.2-0.1c0,0-0.1,0-0.1,0c0,0-0.1,0-0.1,0.1c0,0,0,0.1-0.1,0.1s0,0.1,0,0.2v0.6h-0.2V8.1z"/>
		<path class="st1" d="M142.4,8.1c0,0,0.1,0.1,0.1,0.1V7.7h0.2v1.5h-0.2V9c0,0.1-0.1,0.1-0.1,0.1c-0.1,0-0.1,0-0.2,0
			c-0.1,0-0.2,0-0.3-0.1c-0.1-0.1-0.1-0.2-0.1-0.4c0-0.2,0-0.3,0.1-0.4c0.1-0.1,0.2-0.2,0.3-0.2C142.3,8,142.4,8.1,142.4,8.1z
			 M142,8.9c0,0.1,0.1,0.1,0.2,0.1c0.1,0,0.1,0,0.2-0.1c0.1-0.1,0.1-0.2,0.1-0.3c0-0.1,0-0.2-0.1-0.3c-0.1-0.1-0.1-0.1-0.2-0.1
			c-0.1,0-0.2,0-0.2,0.1C142,8.4,142,8.5,142,8.6C142,8.7,142,8.8,142,8.9z"/>
		<path class="st1" d="M143.9,7.7h0.2v0.5c0-0.1,0.1-0.1,0.1-0.1c0.1,0,0.1-0.1,0.2-0.1c0.2,0,0.3,0.1,0.3,0.2c0,0.1,0,0.1,0,0.2
			v0.7h-0.2V8.5c0-0.1,0-0.1,0-0.2c0-0.1-0.1-0.1-0.2-0.1c-0.1,0-0.1,0-0.2,0.1c-0.1,0.1-0.1,0.1-0.1,0.3v0.6h-0.2V7.7z"/>
		<path class="st1" d="M145.3,7.7h0.2v0.2h-0.2V7.7z M145.3,8.1h0.2v1h-0.2V8.1z"/>
		<path class="st1" d="M146,8.8c0,0.1,0,0.1,0,0.1c0,0.1,0.1,0.1,0.2,0.1c0.1,0,0.1,0,0.2,0s0.1-0.1,0.1-0.1c0,0,0-0.1-0.1-0.1
			c0,0-0.1,0-0.2-0.1l-0.1,0c-0.1,0-0.2,0-0.2-0.1c-0.1,0-0.1-0.1-0.1-0.2c0-0.1,0-0.2,0.1-0.2c0.1-0.1,0.2-0.1,0.3-0.1
			c0.2,0,0.3,0,0.3,0.1c0,0.1,0.1,0.1,0.1,0.2h-0.2c0,0,0-0.1,0-0.1c0,0-0.1-0.1-0.2-0.1c-0.1,0-0.1,0-0.2,0c0,0-0.1,0.1-0.1,0.1
			c0,0,0,0.1,0.1,0.1c0,0,0.1,0,0.1,0l0.1,0c0.1,0,0.2,0.1,0.3,0.1c0.1,0,0.1,0.1,0.1,0.2c0,0.1,0,0.2-0.1,0.2s-0.2,0.1-0.3,0.1
			c-0.2,0-0.3,0-0.3-0.1c-0.1-0.1-0.1-0.2-0.1-0.3H146z"/>
		<path class="st1" d="M148.7,8.2c0.1,0.1,0.1,0.2,0.1,0.4c0,0.2,0,0.3-0.1,0.4s-0.2,0.2-0.4,0.2c-0.1,0-0.3,0-0.3-0.1
			c-0.1-0.1-0.1-0.2-0.1-0.4c0-0.2,0-0.3,0.1-0.4c0.1-0.1,0.2-0.2,0.4-0.2C148.4,8,148.6,8.1,148.7,8.2z M148.5,8.9
			c0-0.1,0.1-0.2,0.1-0.3c0-0.1,0-0.2,0-0.2c0-0.1-0.1-0.1-0.3-0.1c-0.1,0-0.2,0-0.2,0.1S148,8.5,148,8.6c0,0.1,0,0.2,0.1,0.3
			s0.1,0.1,0.2,0.1C148.4,9,148.5,9,148.5,8.9z"/>
		<path class="st1" d="M149.3,8.1l0.2,0.8l0.2-0.8h0.2l0.2,0.8l0.2-0.8h0.2l-0.3,1.1H150l-0.2-0.8l-0.2,0.8h-0.2l-0.3-1.1H149.3z"/>
		<path class="st1" d="M150.9,8.1h0.2v0.1c0-0.1,0.1-0.1,0.2-0.1s0.1,0,0.2,0c0.2,0,0.3,0.1,0.3,0.2c0,0.1,0,0.1,0,0.2v0.7h-0.2V8.5
			c0-0.1,0-0.1,0-0.2c0-0.1-0.1-0.1-0.2-0.1c0,0-0.1,0-0.1,0c0,0-0.1,0-0.1,0.1c0,0,0,0.1-0.1,0.1s0,0.1,0,0.2v0.6h-0.2V8.1z"/>
		<path class="st1" d="M153.1,8.1v0.7c0,0.1,0,0.1,0,0.1c0,0.1,0.1,0.1,0.2,0.1c0.1,0,0.2-0.1,0.2-0.2c0-0.1,0-0.1,0-0.2V8.1h0.2
			v1.1h-0.2l0-0.2c0,0-0.1,0.1-0.1,0.1c-0.1,0.1-0.1,0.1-0.2,0.1c-0.1,0-0.2-0.1-0.3-0.2c0-0.1,0-0.1,0-0.2V8.1H153.1z"/>
		<path class="st1" d="M154.3,8.1h0.2v0.1c0-0.1,0.1-0.1,0.2-0.1s0.1,0,0.2,0c0.2,0,0.3,0.1,0.3,0.2c0,0.1,0,0.1,0,0.2v0.7H155V8.5
			c0-0.1,0-0.1,0-0.2c0-0.1-0.1-0.1-0.2-0.1c0,0-0.1,0-0.1,0c0,0-0.1,0-0.1,0.1c0,0,0,0.1-0.1,0.1s0,0.1,0,0.2v0.6h-0.2V8.1z"/>
		<path class="st1" d="M155.6,7.7h0.2v0.2h-0.2V7.7z M155.6,8.1h0.2v1h-0.2V8.1z"/>
		<path class="st1" d="M156.8,8.1c0,0,0.1,0.1,0.1,0.1L156.8,8.1l0.3,0v1.5h-0.2V9c0,0-0.1,0.1-0.1,0.1c-0.1,0-0.1,0-0.2,0
			c-0.1,0-0.2,0-0.3-0.1c-0.1-0.1-0.1-0.2-0.1-0.4c0-0.2,0-0.3,0.1-0.4s0.2-0.2,0.3-0.2C156.7,8,156.8,8.1,156.8,8.1z M156.4,8.8
			c0,0.1,0.1,0.2,0.2,0.2c0.1,0,0.2-0.1,0.3-0.2c0-0.1,0-0.1,0-0.2c0-0.1,0-0.2,0-0.2c0-0.1-0.1-0.2-0.3-0.2c-0.1,0-0.1,0-0.2,0.1
			s-0.1,0.2-0.1,0.3C156.4,8.7,156.4,8.8,156.4,8.8z"/>
		<path class="st1" d="M157.8,8.1v0.7c0,0.1,0,0.1,0,0.1c0,0.1,0.1,0.1,0.2,0.1c0.1,0,0.2-0.1,0.2-0.2c0-0.1,0-0.1,0-0.2V8.1h0.2
			v1.1h-0.2l0-0.2c0,0-0.1,0.1-0.1,0.1c-0.1,0.1-0.1,0.1-0.2,0.1c-0.1,0-0.2-0.1-0.3-0.2c0-0.1,0-0.1,0-0.2V8.1H157.8z"/>
		<path class="st1" d="M159.6,8.1c0.1,0,0.1,0.1,0.2,0.1c0,0.1,0.1,0.1,0.1,0.2c0,0,0,0.1,0,0.2H159c0,0.1,0,0.2,0.1,0.3
			c0,0.1,0.1,0.1,0.2,0.1c0.1,0,0.2,0,0.2-0.1c0,0,0.1-0.1,0.1-0.1h0.2c0,0,0,0.1,0,0.1c0,0-0.1,0.1-0.1,0.1
			c-0.1,0.1-0.1,0.1-0.2,0.1c0,0-0.1,0-0.1,0c-0.1,0-0.2,0-0.3-0.1c-0.1-0.1-0.1-0.2-0.1-0.4c0-0.2,0-0.3,0.1-0.4
			c0.1-0.1,0.2-0.2,0.4-0.2C159.4,8,159.5,8.1,159.6,8.1z M159.6,8.5c0-0.1,0-0.1,0-0.2c0-0.1-0.1-0.1-0.2-0.1c-0.1,0-0.1,0-0.2,0.1
			c-0.1,0.1-0.1,0.1-0.1,0.2H159.6z"/>
		<path class="st1" d="M161,8.1h0.2v0.2c0,0,0-0.1,0.1-0.1c0.1-0.1,0.1-0.1,0.2-0.1c0,0,0,0,0,0c0,0,0,0,0,0v0.2c0,0,0,0,0,0
			c0,0,0,0,0,0c-0.1,0-0.2,0-0.2,0.1c0,0.1-0.1,0.1-0.1,0.2v0.6H161V8.1z"/>
		<path class="st1" d="M162.5,8.1c0.1,0,0.1,0.1,0.2,0.1c0,0.1,0.1,0.1,0.1,0.2c0,0,0,0.1,0,0.2H162c0,0.1,0,0.2,0.1,0.3
			c0,0.1,0.1,0.1,0.2,0.1c0.1,0,0.2,0,0.2-0.1c0,0,0.1-0.1,0.1-0.1h0.2c0,0,0,0.1,0,0.1c0,0-0.1,0.1-0.1,0.1
			c-0.1,0.1-0.1,0.1-0.2,0.1c0,0-0.1,0-0.1,0c-0.1,0-0.2,0-0.3-0.1c-0.1-0.1-0.1-0.2-0.1-0.4c0-0.2,0-0.3,0.1-0.4
			c0.1-0.1,0.2-0.2,0.4-0.2C162.4,8,162.4,8.1,162.5,8.1z M162.6,8.5c0-0.1,0-0.1,0-0.2c0-0.1-0.1-0.1-0.2-0.1c-0.1,0-0.1,0-0.2,0.1
			C162,8.3,162,8.4,162,8.5H162.6z"/>
		<path class="st1" d="M163.2,7.7h0.2v1.4h-0.2V7.7z"/>
		<path class="st1" d="M164.4,8.5C164.4,8.5,164.5,8.5,164.4,8.5c0.1-0.1,0.1-0.1,0.1-0.1c0-0.1,0-0.1-0.1-0.1s-0.1,0-0.2,0
			c-0.1,0-0.2,0-0.2,0.1c0,0,0,0.1,0,0.1h-0.2c0-0.1,0-0.2,0.1-0.3c0.1-0.1,0.2-0.1,0.3-0.1c0.1,0,0.2,0,0.3,0.1
			c0.1,0,0.1,0.1,0.1,0.2v0.6c0,0,0,0,0,0c0,0,0,0,0,0c0,0,0,0,0,0s0,0,0,0v0.1c0,0,0,0-0.1,0c0,0,0,0-0.1,0c-0.1,0-0.1,0-0.1-0.1
			c0,0,0-0.1,0-0.1c0,0-0.1,0.1-0.2,0.1c-0.1,0-0.1,0.1-0.2,0.1c-0.1,0-0.2,0-0.2-0.1s-0.1-0.1-0.1-0.2c0-0.1,0-0.2,0.1-0.2
			c0.1-0.1,0.1-0.1,0.2-0.1L164.4,8.5z M164,9c0,0,0.1,0,0.1,0c0.1,0,0.1,0,0.2,0c0.1,0,0.1-0.1,0.1-0.2V8.6c0,0,0,0-0.1,0
			s-0.1,0-0.1,0l-0.1,0c-0.1,0-0.1,0-0.1,0c-0.1,0-0.1,0.1-0.1,0.1C164,8.9,164,8.9,164,9z"/>
		<path class="st1" d="M165.2,7.8h0.2v0.3h0.2v0.1h-0.2v0.7c0,0,0,0.1,0,0.1c0,0,0,0,0.1,0c0,0,0,0,0,0c0,0,0,0,0,0v0.1
			c0,0,0,0-0.1,0c0,0,0,0-0.1,0c-0.1,0-0.1,0-0.2-0.1c0,0,0-0.1,0-0.2V8.2h-0.1V8.1h0.1V7.8z"/>
		<path class="st1" d="M165.9,7.7h0.2v0.2h-0.2V7.7z M165.9,8.1h0.2v1h-0.2V8.1z"/>
		<path class="st1" d="M167.3,8.2c0.1,0.1,0.1,0.2,0.1,0.4c0,0.2,0,0.3-0.1,0.4s-0.2,0.2-0.4,0.2c-0.1,0-0.3,0-0.3-0.1
			c-0.1-0.1-0.1-0.2-0.1-0.4c0-0.2,0-0.3,0.1-0.4c0.1-0.1,0.2-0.2,0.4-0.2C167.1,8,167.2,8.1,167.3,8.2z M167.2,8.9
			c0-0.1,0.1-0.2,0.1-0.3c0-0.1,0-0.2,0-0.2c0-0.1-0.1-0.1-0.3-0.1c-0.1,0-0.2,0-0.2,0.1s-0.1,0.2-0.1,0.3c0,0.1,0,0.2,0.1,0.3
			S166.9,9,167,9C167.1,9,167.2,9,167.2,8.9z"/>
		<path class="st1" d="M167.9,8.1h0.2v0.1c0-0.1,0.1-0.1,0.2-0.1s0.1,0,0.2,0c0.2,0,0.3,0.1,0.3,0.2c0,0.1,0,0.1,0,0.2v0.7h-0.2V8.5
			c0-0.1,0-0.1,0-0.2c0-0.1-0.1-0.1-0.2-0.1c0,0-0.1,0-0.1,0c0,0-0.1,0-0.1,0.1c0,0,0,0.1-0.1,0.1s0,0.1,0,0.2v0.6h-0.2V8.1z"/>
		<path class="st1" d="M169.3,8.8c0,0.1,0,0.1,0,0.1c0,0.1,0.1,0.1,0.2,0.1c0.1,0,0.1,0,0.2,0s0.1-0.1,0.1-0.1c0,0,0-0.1-0.1-0.1
			c0,0-0.1,0-0.2-0.1l-0.1,0c-0.1,0-0.2,0-0.2-0.1c-0.1,0-0.1-0.1-0.1-0.2c0-0.1,0-0.2,0.1-0.2c0.1-0.1,0.2-0.1,0.3-0.1
			c0.2,0,0.3,0,0.3,0.1c0,0.1,0.1,0.1,0.1,0.2h-0.2c0,0,0-0.1,0-0.1c0,0-0.1-0.1-0.2-0.1c-0.1,0-0.1,0-0.2,0c0,0-0.1,0.1-0.1,0.1
			c0,0,0,0.1,0.1,0.1c0,0,0.1,0,0.1,0l0.1,0c0.1,0,0.2,0.1,0.3,0.1c0.1,0,0.1,0.1,0.1,0.2c0,0.1,0,0.2-0.1,0.2s-0.2,0.1-0.3,0.1
			c-0.2,0-0.3,0-0.3-0.1c-0.1-0.1-0.1-0.2-0.1-0.3H169.3z"/>
		<path class="st1" d="M170.4,7.7h0.2v0.5c0-0.1,0.1-0.1,0.1-0.1c0.1,0,0.1-0.1,0.2-0.1c0.2,0,0.3,0.1,0.3,0.2c0,0.1,0,0.1,0,0.2
			v0.7h-0.2V8.5c0-0.1,0-0.1,0-0.2c0-0.1-0.1-0.1-0.2-0.1c-0.1,0-0.1,0-0.2,0.1c-0.1,0.1-0.1,0.1-0.1,0.3v0.6h-0.2V7.7z"/>
		<path class="st1" d="M171.8,7.7h0.2v0.2h-0.2V7.7z M171.8,8.1h0.2v1h-0.2V8.1z"/>
		<path class="st1" d="M172.4,8.1h0.2v0.1c0,0,0.1-0.1,0.1-0.1c0.1,0,0.1-0.1,0.2-0.1c0.1,0,0.2,0,0.3,0.1c0.1,0.1,0.1,0.2,0.1,0.4
			c0,0.2-0.1,0.4-0.2,0.5c-0.1,0.1-0.2,0.1-0.3,0.1c-0.1,0-0.1,0-0.2-0.1c0,0-0.1-0.1-0.1-0.1v0.5h-0.2V8.1z M173.1,8.9
			c0.1-0.1,0.1-0.2,0.1-0.3c0-0.1,0-0.2,0-0.2c0-0.1-0.1-0.2-0.3-0.2c-0.1,0-0.2,0.1-0.3,0.2c0,0.1,0,0.1,0,0.2c0,0.1,0,0.2,0,0.2
			c0,0.1,0.1,0.2,0.3,0.2C172.9,9,173,9,173.1,8.9z"/>
		<path class="st1" d="M174.6,8.1l0.2,0.8l0.2-0.8h0.2l0.2,0.8l0.2-0.8h0.2l-0.3,1.1h-0.2l-0.2-0.8l-0.2,0.8h-0.2l-0.3-1.1H174.6z"
			/>
		<path class="st1" d="M176.1,7.7h0.2v0.2h-0.2V7.7z M176.1,8.1h0.2v1h-0.2V8.1z"/>
		<path class="st1" d="M176.8,7.8h0.2v0.3h0.2v0.1H177v0.7c0,0,0,0.1,0,0.1c0,0,0,0,0.1,0c0,0,0,0,0,0c0,0,0,0,0,0v0.1
			c0,0,0,0-0.1,0c0,0,0,0-0.1,0c-0.1,0-0.1,0-0.2-0.1c0,0,0-0.1,0-0.2V8.2h-0.1V8.1h0.1V7.8z"/>
		<path class="st1" d="M177.6,7.7h0.2v0.5c0-0.1,0.1-0.1,0.1-0.1c0.1,0,0.1-0.1,0.2-0.1c0.2,0,0.3,0.1,0.3,0.2c0,0.1,0,0.1,0,0.2
			v0.7h-0.2V8.5c0-0.1,0-0.1,0-0.2c0-0.1-0.1-0.1-0.2-0.1c-0.1,0-0.1,0-0.2,0.1c-0.1,0.1-0.1,0.1-0.1,0.3v0.6h-0.2V7.7z"/>
		<path class="st1" d="M180.2,8.5C180.3,8.5,180.3,8.5,180.2,8.5c0.1-0.1,0.1-0.1,0.1-0.1c0-0.1,0-0.1-0.1-0.1s-0.1,0-0.2,0
			c-0.1,0-0.2,0-0.2,0.1c0,0,0,0.1,0,0.1h-0.2c0-0.1,0-0.2,0.1-0.3c0.1-0.1,0.2-0.1,0.3-0.1c0.1,0,0.2,0,0.3,0.1
			c0.1,0,0.1,0.1,0.1,0.2v0.6c0,0,0,0,0,0c0,0,0,0,0,0c0,0,0,0,0,0s0,0,0,0v0.1c0,0,0,0-0.1,0c0,0,0,0-0.1,0c-0.1,0-0.1,0-0.1-0.1
			c0,0,0-0.1,0-0.1c0,0-0.1,0.1-0.2,0.1c-0.1,0-0.1,0.1-0.2,0.1c-0.1,0-0.2,0-0.2-0.1s-0.1-0.1-0.1-0.2c0-0.1,0-0.2,0.1-0.2
			c0.1-0.1,0.1-0.1,0.2-0.1L180.2,8.5z M179.8,9c0,0,0.1,0,0.1,0c0.1,0,0.1,0,0.2,0c0.1,0,0.1-0.1,0.1-0.2V8.6c0,0,0,0-0.1,0
			s-0.1,0-0.1,0l-0.1,0c-0.1,0-0.1,0-0.1,0c-0.1,0-0.1,0.1-0.1,0.1C179.8,8.9,179.8,8.9,179.8,9z"/>
		<path class="st1" d="M181,8.1h0.2v0.2c0,0,0-0.1,0.1-0.1c0.1-0.1,0.1-0.1,0.2-0.1c0,0,0,0,0,0c0,0,0,0,0,0v0.2c0,0,0,0,0,0
			c0,0,0,0,0,0c-0.1,0-0.2,0-0.2,0.1c0,0.1-0.1,0.1-0.1,0.2v0.6H181V8.1z"/>
		<path class="st1" d="M181.9,7.8h0.2v0.3h0.2v0.1h-0.2v0.7c0,0,0,0.1,0,0.1c0,0,0,0,0.1,0c0,0,0,0,0,0c0,0,0,0,0,0v0.1
			c0,0,0,0-0.1,0c0,0,0,0-0.1,0c-0.1,0-0.1,0-0.2-0.1c0,0,0-0.1,0-0.2V8.2h-0.1V8.1h0.1V7.8z"/>
		<path class="st1" d="M182.6,8.9h0.2v0.2h-0.2V8.9z"/>
	</g>
</g>
</svg>
