<?xml version="1.0" encoding="UTF-8"?><svg id="_圖層_2" xmlns="http://www.w3.org/2000/svg" viewBox="0 0 315.75 311.4"><defs><style>.cls-1{fill:#fff;}</style></defs><g id="_圖層_2-2"><g><path class="cls-1" d="M0,3.63c8.41,1.9,16.16,4.48,23.25,7.74H112.28c2.21-2.11,4.15-3.95,5.81-5.53,2.55-2.74,4.43-4.11,5.65-4.11,1.88,0,5.42,1.69,10.63,5.05,6.2,4.42,9.3,7.37,9.3,8.84s-1.5,3.11-4.48,4.9c-2.44,1.79-3.65,3.58-3.65,5.37V108.51l1.5,33.01c0,2-3.27,3.53-9.8,4.58-2.77,.32-4.87,.47-6.31,.47-2.99,0-4.48-1.69-4.48-5.05v-8.21H19.93v7.58c0,2-2.82,3.53-8.47,4.58-2.55,.32-4.38,.47-5.48,.47-3.99,0-5.98-1.69-5.98-5.05,1-12.32,1.49-23.11,1.49-32.38V32.85C1.49,24.85,1,15.11,0,3.63Zm19.93,125.09H116.44V15.64H19.93v113.09Zm14.62-95.24c7.97,1.9,16,4.58,24.09,8.06h15.28c2.44-2.84,4.82-5.26,7.14-7.27,1.66-1.79,3.21-2.69,4.65-2.69s4.71,1.48,9.8,4.42c5.87,3.9,8.8,6.58,8.8,8.06,0,1.58-1,3.16-2.99,4.74-1.55,1.37-2.33,3-2.33,4.9v27.64c0,5.05,.22,12,.66,20.85,0,2.11-2.93,3.69-8.8,4.74-2.55,.32-4.49,.47-5.81,.47-2.99,0-4.49-1.74-4.49-5.21v-6.32h-26.08v8.21c0,2.11-2.77,3.63-8.3,4.58-2.55,.32-4.43,.47-5.65,.47-3.55,0-5.32-1.68-5.32-5.05,.44-5.69,.66-11.32,.66-16.9v-30.48c0-8-.44-15.74-1.33-23.22Zm19.93,58.12h26.08V46.12h-26.08v45.49Z"/><path class="cls-1" d="M165.6,104.09c6.42,1.37,13.23,2.05,20.43,2.05,.55-4.11,.83-8.32,.83-12.64,4.65,.42,9.19,1.05,13.62,1.9,6.42,.95,9.63,2,9.63,3.16,0,1.26-1.05,2.21-3.16,2.84-2.44,.53-3.65,1.21-3.65,2.05-.11,1.05-.28,1.95-.5,2.68h12.62c1.66-1.89,3.1-3.32,4.32-4.26,2.66-2.21,4.71-3.32,6.15-3.32,1.88,0,5.2,1.74,9.97,5.21,4.98,3.79,7.47,6.48,7.47,8.06,0,.84-1,1.84-2.99,3-1.99,1.69-2.99,3.21-2.99,4.58-.33,5.05-1.22,10.21-2.66,15.48-1.22,3.89-2.55,6.48-3.99,7.74-1.44,1.58-4.26,2.79-8.47,3.63-4.1,.63-7.31,.95-9.63,.95-1.22,0-2.16-1.58-2.82-4.74-.78-4.63-5.15-8.79-13.12-12.48l.67-1.74c8.52,1.16,13.84,1.74,15.95,1.74,1.33,0,2.21-.32,2.66-.95,.66-.63,1.27-3.11,1.83-7.42,.55-3.89,.83-7.63,.83-11.21h-16.61c-1.44,6.85-3.65,12.53-6.64,17.06-3.21,4.95-7.47,9-12.79,12.16-5.21,3.26-12.24,6.21-21.09,8.84l-.66-1.9c5.42-3.79,10.19-7.9,14.28-12.32,3.65-4.32,6.15-8.58,7.47-12.79,1.22-3.47,2.1-7.16,2.66-11.06-8.3,0-14.01,.47-17.11,1.42l-2.49-7.74Zm41.86-32.7c7.86,1.16,13.34,2.37,16.44,3.63,2.66,1.26,3.99,2.79,3.99,4.58,0,2.53-1.16,5.05-3.49,7.58-.33,.32-.61,.53-.83,.63h21.59c2.33-5.16,4.15-10.63,5.48-16.43,4.65,1.48,9.19,2.95,13.62,4.42,4.1,1.58,6.15,3.26,6.15,5.05,0,.74-1.05,1.21-3.16,1.42-1.99,.32-3.1,.63-3.32,.95-3.21,1.69-6.76,3.21-10.63,4.58h34.55c.33-.21,2.05-2.21,5.15-6,3.76-4.53,6.03-6.79,6.81-6.79,1.88,0,5.04,2.21,9.47,6.63,4.32,4.32,6.48,6.95,6.48,7.9,0,1.79-.94,2.68-2.82,2.68H184.7c-9.63,0-16.5,.21-20.6,.63l-2.66-6.32c5.42,.84,13.18,1.26,23.25,1.26h30.56c-.56-.74-1.05-1.53-1.5-2.37-1.44-4-4.04-7.84-7.81-11.53l1.5-2.53ZM166.27,13.27c5.31,.74,13.01,1.11,23.09,1.11h38.54c0-4.74-.44-9.53-1.33-14.37,7.86,.63,15.34,1.58,22.42,2.84,4.54,.21,6.81,1.37,6.81,3.47,0,.63-1.33,1.53-3.99,2.69-3.1,1.16-4.65,2.58-4.65,4.26v1.11h37.21c.55-.21,2.43-2.37,5.65-6.48,3.99-4.95,6.31-7.42,6.98-7.42,2.21,0,5.65,2.37,10.3,7.11,4.76,4.74,7.14,7.64,7.14,8.69,0,1.79-1.16,2.68-3.49,2.68h-63.78v13.9h26.08c.33-.21,2.05-2.1,5.15-5.69,3.76-4.32,6.04-6.48,6.81-6.48,1.88,0,4.87,2.11,8.97,6.32,4.21,4.21,6.31,6.74,6.31,7.58,0,1.69-.94,2.53-2.82,2.53h-96.84c-9.75,0-16.61,.26-20.6,.79l-2.82-6.32c5.32,.84,13.12,1.26,23.42,1.26h27.08v-13.9h-38.54c-9.63,0-16.5,.21-20.6,.63l-2.49-6.32Zm107.61,25.27c1.78,0,4.99,1.58,9.65,4.74,5.43,3.26,8.14,5.63,8.14,7.11,0,1.16-.94,2.27-2.82,3.32-1.77,.95-2.77,1.95-2.99,3v13.27c0,2.11-2.99,3.63-8.97,4.58-2.55,.32-4.43,.47-5.65,.47-3.1,0-4.65-1.47-4.65-4.42v-1.26h-62.75v.63c0,1.89-2.55,3.26-7.66,4.11-2.22,.32-3.88,.47-4.99,.47-3.44,0-5.16-1.53-5.16-4.58,.44-2.74,.66-5.84,.66-9.32v-8.84c0-3.58-.22-7.79-.66-12.64,6.43,1.58,13.03,3.9,19.8,6.95h58.73c1.88-2.21,3.55-4.05,4.99-5.53,1.44-1.37,2.88-2.05,4.33-2.05Zm-69.91,11.85v14.69h62.62v-14.69h-62.62Zm42.69,44.86c7.4,1.79,14.8,4.32,22.2,7.58h11.76c2.32-2.42,4.58-4.53,6.79-6.32,1.54-1.58,2.98-2.37,4.31-2.37,1.43,0,4.58,1.42,9.44,4.26,5.64,3.69,8.46,6.27,8.46,7.74,0,1.37-1.11,2.79-3.32,4.26-1.77,1.37-2.66,2.9-2.66,4.58v6.79c0,4.53,.22,10.69,.66,18.48,0,2-2.65,3.47-7.95,4.42-2.32,.32-4.08,.47-5.3,.47-2.98,0-4.47-1.42-4.47-4.26v-5.21h-21.2v5.21c0,2-2.54,3.53-7.62,4.58-2.32,.32-3.98,.47-4.97,.47-3.64,0-5.47-1.69-5.47-5.05,.44-5.05,.66-10.11,.66-15.16v-9c0-7.37-.44-14.53-1.33-21.48Zm18.6,36.01h21.09v-23.85h-21.09v23.85Z"/></g><g><path class="cls-1" d="M14.48,198.91c1.68,.54,3.28,1.09,4.82,1.63,1.5,.58,2.25,1.17,2.25,1.78,0,.27-.36,.44-1.07,.51-.75,.1-1.18,.22-1.29,.36-3.32,3.94-7.16,7.59-11.51,10.95,2.91-.24,5.66-.49,8.25-.76-.36-.95-.84-1.9-1.45-2.85l.43-.41c2.57,1.15,4.32,2.19,5.25,3.11,1.25,1.19,1.87,2.26,1.87,3.21s-.25,1.73-.75,2.34c-.61,.58-1.3,.87-2.09,.87-.68,0-1.18-.14-1.5-.41-.36-.2-.68-1.1-.96-2.7-.07-.61-.18-1.19-.32-1.73-.71,.41-1.43,.76-2.14,1.07v13.14c0,3.33,.07,5.97,.21,7.94,0,.61-.92,1.05-2.76,1.32-.79,.1-1.39,.15-1.78,.15-.97,0-1.46-.49-1.46-1.48,.14-1.83,.21-4.48,.21-7.94v-4.33c-.21,.14-.48,.22-.8,.25-.79,.1-1.23,.25-1.34,.46-.64,2.34-1.39,4.34-2.25,6.01-.79,1.63-1.84,3.29-3.16,4.99l-.64-.61c.5-2.38,.87-4.58,1.12-6.62,.25-2.14,.46-4.68,.64-7.64,1.61,.41,3.16,.83,4.66,1.27,.86,.24,1.45,.48,1.77,.71v-5.35c-1.18,.41-2.38,.76-3.59,1.07-.46,.03-.7,.17-.7,.41-.07,.17-.12,.37-.16,.61-.11,.44-.27,.66-.48,.66-.68,0-1.48-1.12-2.41-3.36-.25-.58-.68-1.56-1.29-2.95,1.68-.07,3.3-.15,4.87-.25,4.08-4.85,7.26-10,9.53-15.43Zm-5.52-7.59c1.71,.54,3.36,1.1,4.93,1.68,1.54,.54,2.3,1.15,2.3,1.83,0,.34-.39,.54-1.18,.61-.82,.1-1.27,.22-1.34,.36-2.04,2.31-4.45,4.43-7.23,6.36,.64,.34,1.16,.66,1.55,.97,1.04,.85,1.55,1.88,1.55,3.11,0,.71-.32,1.43-.96,2.14-.46,.44-1.05,.66-1.77,.66s-1.39-.7-1.93-2.09c-.68-2-1.91-3.94-3.7-5.8l.48-.66c1.29,.37,2.37,.73,3.27,1.07,1.71-3.16,3.05-6.57,4.02-10.23Zm6.64,29.38c2.71,1.6,4.55,3,5.51,4.23,1.29,1.63,1.93,3.07,1.93,4.33,0,1.02-.25,1.85-.75,2.5-.68,.61-1.41,.92-2.2,.92s-1.36-.17-1.71-.51c-.36-.27-.68-1.41-.96-3.41-.29-2.41-1.12-4.89-2.52-7.43l.7-.61Zm5.94,2.04c1.75,.27,4.26,.41,7.55,.41h10.23c.14-.07,.75-.75,1.82-2.04,1.29-1.49,2.05-2.24,2.3-2.24,.64,0,1.68,.73,3.11,2.19,1.46,1.46,2.2,2.34,2.2,2.65,0,.54-.34,.81-1.02,.81h-10.98v11h3.91c.14-.07,.77-.8,1.87-2.19,1.32-1.66,2.12-2.5,2.41-2.5,.71,0,1.84,.8,3.37,2.39,1.57,1.56,2.36,2.55,2.36,2.95,0,.51-.34,.76-1.02,.76H24.81c-3.14,0-5.36,.07-6.64,.2l-.86-2.04c1.71,.27,4.21,.41,7.5,.41h5.73v-11h-1.45c-3.14,0-5.35,.07-6.64,.2l-.91-1.99Zm-2.36-27.29c1.71,.24,4.23,.36,7.55,.36h12.8c.14-.07,.75-.76,1.82-2.09,1.29-1.59,2.04-2.39,2.25-2.39,.68,0,1.77,.76,3.27,2.29,1.54,1.53,2.3,2.46,2.3,2.8,0,.58-.36,.87-1.07,.87H26.74c-3.14,0-5.36,.07-6.64,.2l-.91-2.04Zm.7,13.03c.46,.07,.93,.17,1.39,.31,.71-3.26,1.25-6.77,1.61-10.54,1.86,.64,3.64,1.27,5.36,1.88,1.68,.64,2.52,1.31,2.52,1.99,0,.34-.43,.56-1.29,.66-.89,.1-1.39,.24-1.5,.41-1.5,2.21-3.25,4.23-5.25,6.06,.96,.37,1.91,.81,2.84,1.32,2.21,1.32,3.32,2.92,3.32,4.79,0,1.26-.38,2.33-1.12,3.21-.61,.85-1.45,1.27-2.52,1.27-.86,0-1.54-.8-2.03-2.39-.54-3.09-1.8-5.82-3.8-8.2l.48-.76Zm9-.41c.68,.1,1.36,.25,2.03,.46,.71-3.22,1.23-6.65,1.55-10.29,1.89,.64,3.71,1.27,5.46,1.88,1.68,.64,2.52,1.31,2.52,1.99,0,.34-.45,.56-1.34,.66-.89,.1-1.39,.24-1.5,.41-1.46,2.11-3.2,4.04-5.19,5.8,.86,.31,1.66,.68,2.41,1.12,2.32,1.26,3.48,2.82,3.48,4.68,0,1.26-.38,2.31-1.12,3.16-.61,.88-1.46,1.32-2.57,1.32-.86,0-1.55-.8-2.09-2.39-.61-3.02-1.98-5.7-4.12-8.04l.48-.76Zm8.99-.41c.57,.1,1.12,.2,1.66,.31,.96-2.68,1.68-5.57,2.14-8.66,1.89,.58,3.71,1.19,5.46,1.83,1.68,.61,2.52,1.29,2.52,2.04,0,.34-.45,.54-1.34,.61-.86,.1-1.36,.22-1.5,.36-1.57,1.6-3.41,3.04-5.52,4.33,1,.31,1.98,.7,2.95,1.17,2.46,1.22,3.69,2.73,3.69,4.53,0,1.22-.38,2.27-1.12,3.16-.61,.88-1.46,1.32-2.57,1.32-.96,0-1.73-.78-2.3-2.34-.64-2.95-2.16-5.57-4.55-7.84l.48-.81Z"/><path class="cls-1" d="M90.92,198.04c1.96,.41,4.25,1.15,6.85,2.24h4.93v-1.38c0-2.88-.2-5.48-.59-7.79,1.54,.17,3.55,.46,6.05,.87,1.96,.31,2.95,.65,2.95,1.02,0,.51-.52,.95-1.55,1.32-.68,.24-1.02,.66-1.02,1.27v4.68h5.09v-1.38c0-2.88-.2-5.48-.59-7.79,1.54,.17,3.55,.46,6.05,.87,1.96,.31,2.95,.65,2.95,1.02,0,.51-.52,.95-1.55,1.32-.68,.24-1.02,.66-1.02,1.27v4.68h3.37c.68-.61,1.3-1.2,1.88-1.78,.82-.81,1.43-1.22,1.82-1.22,.61,0,1.7,.59,3.27,1.78,1.79,1.29,2.68,2.12,2.68,2.5,0,.54-.3,1.07-.91,1.58-.64,.48-.98,.95-1.02,1.43v18.99c.32-.78,.7-1.6,1.12-2.44,.54-1.12,1.03-1.68,1.5-1.68,.39,0,.93,.49,1.61,1.48,1.07,1.46,1.61,2.53,1.61,3.21,0,.58-.29,.87-.86,.87h-43.48c-1.68,0-3.41,.07-5.19,.2l-.8-2.04c2.36,.24,4.19,.37,5.52,.41v-15.48c0-4.41-.21-7.76-.64-10.03Zm14.13,32.99c-2.32,1.53-4.82,2.83-7.5,3.92-2.46,.98-6.03,1.85-10.71,2.6l-.43-.81c4.07-1.94,7.09-3.67,9.05-5.19,1.93-1.43,3.7-3.29,5.3-5.6,1.68,.81,3.16,1.53,4.44,2.14,2.36,1.15,3.54,1.93,3.54,2.34s-.59,.61-1.77,.61h-1.93Zm-7.44-19.96h5.09v-9.32h-5.09v9.32Zm0,12.47h5.09v-11h-5.09v11Zm10.92-21.79v9.32h5.09v-9.32h-5.09Zm0,10.79v11h5.09v-11h-5.09Zm7.44,14.46c5.18,.81,9.32,1.77,12.42,2.85,4.43,1.39,6.64,2.88,6.64,4.48,0,1.09-.3,1.93-.91,2.55-.82,.88-1.64,1.32-2.46,1.32-1.11,0-2.21-.54-3.32-1.63-1.32-1.43-3.23-3.04-5.73-4.84-1.25-.95-3.66-2.26-7.23-3.92l.59-.81Zm3.48-25.25v9.32h5.14v-9.32h-5.14Zm0,10.79v11h5.14v-11h-5.14Z"/><path class="cls-1" d="M172.72,195.04c1.75,.27,4.25,.41,7.5,.41h31.7c.14-.07,.77-.8,1.88-2.19,1.36-1.66,2.16-2.5,2.41-2.5,.75,0,1.91,.8,3.48,2.39,1.57,1.56,2.36,2.51,2.36,2.85,0,.58-.38,.87-1.12,.87h-20.78v5.86h7.5c.57-.51,.98-.95,1.23-1.32,1.07-1.02,1.82-1.53,2.25-1.53,.54,0,1.7,.61,3.48,1.83,1.68,1.19,2.52,2,2.52,2.44,0,.37-.43,.85-1.29,1.43-1.04,.64-1.55,1.27-1.55,1.88v14.46c.39-.34,.89-.88,1.5-1.63,1.25-1.39,1.98-2.09,2.2-2.09,.61,0,1.57,.68,2.89,2.04,1.32,1.32,1.98,2.16,1.98,2.49,0,.54-.27,.82-.8,.82h-7.76v9.72c0,1.76-.96,3.11-2.89,4.02-1.57,.75-2.89,1.12-3.96,1.12-.46,0-.88-.7-1.23-2.09-.5-1.7-2.52-3.11-6.05-4.23l.21-1.07c2.93,.71,5.28,1.07,7.07,1.07,.75,0,1.12-.56,1.12-1.68v-6.87h-23.13v13.39c0,.68-.93,1.19-2.79,1.53-.82,.1-1.39,.15-1.71,.15-1.29,0-1.93-.56-1.93-1.68,.25-3.94,.38-7.4,.38-10.39v-3c-3.11,0-5.32,.05-6.64,.15l-.8-2.04c1.71,.27,4.2,.41,7.44,.41v-12.37c0-2.58-.12-5.72-.38-9.42,2.68,.61,5.16,1.43,7.44,2.44h7.76v-5.86h-13.97c-3.11,0-5.3,.07-6.59,.2l-.91-2.04Zm12.69,17.11h8.78v-7.99h-8.78v7.99Zm0,9.93h8.78v-8.55h-8.78v8.55Zm14.72-17.92v7.99h8.41v-7.99h-8.41Zm0,17.92h8.41v-8.55h-8.41v8.55Z"/><path class="cls-1" d="M258.21,196.01c1.71,.27,4.2,.41,7.44,.41h3.7c.11-.07,.66-.7,1.66-1.88,1.21-1.43,1.93-2.14,2.14-2.14,.68,0,1.71,.7,3.11,2.09,1.39,1.43,2.09,2.29,2.09,2.6,0,.51-.3,.76-.91,.76h-6.37v11.61c.29-.31,.61-.66,.96-1.07,1.04-1.19,1.64-1.78,1.82-1.78,.5,0,1.34,.59,2.52,1.78,1.18,1.15,1.77,1.87,1.77,2.14,0,.51-.3,.76-.91,.76h-6.16v11.81c2.36-.54,4.64-1.14,6.85-1.78l.43,.76c-4.53,3.77-9.33,6.47-14.4,8.1-.57,.1-.86,.32-.86,.66-.07,.2-.12,.46-.16,.76-.14,.47-.36,.71-.64,.71-.75,0-1.64-1.26-2.68-3.77-.29-.68-.75-1.8-1.39-3.36,2.43-.24,4.77-.56,7.02-.97v-12.93c-2.46,.03-4.23,.1-5.3,.2l-.91-2.04c1.53,.27,3.6,.42,6.21,.46v-12.07c-2.89,0-4.96,.07-6.21,.2l-.8-2.04Zm20.35-3.21c2.29,.58,4.62,1.39,7.02,2.44h10.76c.79-.92,1.55-1.71,2.3-2.39,.54-.61,1.04-.92,1.5-.92s1.52,.49,3.16,1.48c1.93,1.29,2.89,2.16,2.89,2.6,0,.51-.43,1.02-1.29,1.53-.57,.44-.86,.97-.86,1.58v14.21c0,1.63,.05,3.87,.16,6.72,0,.68-.93,1.17-2.79,1.48-.89,.1-1.54,.15-1.93,.15-.68,0-1.11-.22-1.29-.66v9.62c0,1.12,.27,1.73,.8,1.83,.43,.13,1.14,.2,2.14,.2,.64-.03,1.12-.3,1.45-.81,.39-1.02,.93-3.46,1.61-7.33l1.34,.2,.21,3.87c0,1.29,.52,2.38,1.55,3.26,.93,.78,1.39,1.54,1.39,2.29,0,1.05-.39,1.76-1.18,2.14-1.29,.85-3.41,1.27-6.37,1.27h-3.16c-1.07,0-2.07-.14-3-.41-1.82-.37-2.73-1.73-2.73-4.07v-13.04h-2.41c-.36,3.29-1,5.79-1.93,7.48-.86,1.63-1.91,3.07-3.16,4.33-1.32,1.22-3.03,2.29-5.14,3.21-2.64,1.22-5.66,2.27-9.05,3.16l-.64-1.27c1.82-.65,3.61-1.54,5.36-2.7,1.78-1.12,3.28-2.41,4.5-3.87,1.21-1.39,2.05-2.82,2.52-4.28,.57-1.39,.93-2.95,1.07-4.68-.36,.14-.77,.24-1.23,.31-.75,.1-1.3,.15-1.66,.15-1.14,0-1.71-.54-1.71-1.63,.11-1.76,.16-3.51,.16-5.25v-14.92c0-2.51-.12-4.94-.38-7.28Zm6.21,9.93h13.23v-6.06h-13.23v6.06Zm0,7.59h13.23v-6.16h-13.23v6.16Zm0,8.35h13.23v-6.98h-13.23v6.98Z"/></g><g><path class="cls-1" d="M15.6,263.74c.61,0,1.87,.75,3.8,2.24,1,.85,1.64,1.49,1.93,1.93-.11-1.26-.25-2.29-.43-3.11,1.96,.41,4.25,1.15,6.85,2.24h10.33c.79-.88,1.55-1.63,2.3-2.24,.54-.58,1.04-.87,1.5-.87s1.52,.51,3.16,1.53c1.93,1.26,2.89,2.11,2.89,2.55,0,.51-.43,1.02-1.29,1.53-.57,.44-.86,.95-.86,1.53v8.55c0,1.66,.05,3.92,.16,6.77,0,.65-.93,1.12-2.79,1.43-.89,.1-1.54,.15-1.93,.15-1,0-1.5-.53-1.5-1.58v-.46h-7.07c.71,2.61,1.7,5.08,2.95,7.38,.46,.92,.98,1.77,1.55,2.55,.68-.68,1.34-1.41,1.98-2.19,1.46-1.63,2.68-3.39,3.64-5.29,1.71,1.02,3.3,1.97,4.77,2.85,1.39,.92,2.09,1.61,2.09,2.09,0,.41-.3,.61-.91,.61l-2.95-.2c-1.86,1.12-4.39,2.26-7.6,3.41,.89,1.12,1.84,2.1,2.84,2.95,2.78,2.27,5.87,4.07,9.26,5.4l-.21,1.07c-1.68,.58-2.77,1.38-3.27,2.39-.57,1.26-1.05,1.88-1.45,1.88-.5,0-1.43-.61-2.78-1.83-1.54-1.22-3.18-2.95-4.93-5.19-1.32-1.7-2.54-3.95-3.64-6.77-1.11-2.58-2-6.28-2.68-11.1h-3.8v16.24c2.71-.27,5.28-.59,7.71-.97l.48,.87c-4.39,2.78-9.07,4.79-14.03,6.01-.54,.07-.8,.24-.8,.51-.04,.17-.09,.41-.16,.71-.07,.44-.21,.66-.43,.66-.75,0-1.64-1.21-2.68-3.62-.29-.68-.77-1.78-1.45-3.31,1.82-.1,3.61-.2,5.36-.31v-28c0-2.31-.05-4.31-.16-6.01-.29,.31-.77,.53-1.45,.66-1.29,.31-2.02,.59-2.2,.87-1.96,4.35-3.91,7.83-5.84,10.44,2.5,1.77,4.27,3.38,5.3,4.84,.71,.95,1.29,2.05,1.71,3.31,.5,1.15,.75,2.36,.75,3.62,0,2.17-.41,3.7-1.23,4.58-.82,1.29-1.73,2.24-2.73,2.85-1.04,.61-1.86,.92-2.46,.92-.43,0-.79-.56-1.07-1.68-.32-1.19-1.61-2.27-3.86-3.26v13.7c0,.68-.89,1.19-2.68,1.53-.75,.1-1.29,.15-1.61,.15-1.29,0-1.93-.56-1.93-1.68,.25-3.67,.38-6.91,.38-9.73v-26.73c0-2.44-.12-5.43-.38-8.96,2.36,.58,4.57,1.32,6.64,2.24h2.95c.89-.75,1.62-1.39,2.2-1.93,.68-.48,1.25-.71,1.71-.71Zm-7.28,4.12v26.63c1.43,.27,2.55,.41,3.37,.41s1.46-.22,1.82-.66c.36-.75,.54-1.95,.54-3.62,0-2.04-.25-3.7-.75-4.99-.68-1.63-1.71-3.28-3.11-4.94,.89-3.8,1.61-8.08,2.14-12.83h-4.02Zm19.22,.56v6.92h12.21v-6.92h-12.21Zm0,8.35v7.79h12.21v-7.79h-12.21Z"/><path class="cls-1" d="M65.42,280.09c1.75,.27,4.25,.41,7.5,.41h33.04c.11-.07,.66-.68,1.66-1.83,1.21-1.39,1.95-2.09,2.2-2.09,.61,0,1.57,.68,2.89,2.04,1.36,1.36,2.04,2.17,2.04,2.44,0,.54-.3,.81-.91,.81h-40.91c-3.11,0-5.3,.08-6.59,.25l-.91-2.04Zm6.27,2.85c2.11,.51,4.3,1.26,6.59,2.24h22.54c.71-.78,1.41-1.44,2.09-1.99,.46-.44,.89-.66,1.29-.66,.43,0,1.39,.42,2.89,1.27,1.82,1.15,2.73,1.94,2.73,2.34,0,.51-.34,1.02-1.02,1.53-.46,.44-.7,.97-.7,1.58v1.83c0,1.63,.07,3.87,.21,6.72,0,.34-.23,.63-.7,.87,.57,.37,1.23,.95,1.98,1.73,1.25,1.36,1.87,2.17,1.87,2.44,0,.54-.27,.82-.8,.82h-17.4v4.28h13.07c.14-.03,.71-.63,1.71-1.78,1.25-1.36,1.98-2.04,2.2-2.04,.61,0,1.57,.66,2.89,1.99,1.36,1.36,2.04,2.19,2.04,2.5,0,.51-.29,.76-.86,.76h-41.12c-3.14,0-5.36,.07-6.64,.2l-.91-2.04c1.75,.27,4.27,.41,7.55,.41h14.13v-4.28h-10.55c-3.11,0-5.32,.08-6.64,.25l-.8-2.04c1.71,.27,4.19,.41,7.44,.41h10.55v-4.48h-9.42v.41c0,.64-.93,1.12-2.78,1.43-.79,.14-1.36,.2-1.71,.2-1.14,0-1.71-.54-1.71-1.63,.11-.98,.16-2.09,.16-3.31v-7.49c0-1.29-.05-2.78-.16-4.48Zm.16-19.2c2.14,.54,4.32,1.29,6.53,2.24h21.95c.79-.78,1.52-1.46,2.2-2.04,.57-.51,1.05-.76,1.45-.76,.43,0,1.45,.46,3.05,1.38,1.86,1.19,2.79,2.02,2.79,2.5s-.43,.97-1.29,1.48c-.57,.48-.86,.98-.86,1.53v.41c0,1.63,.07,3.87,.21,6.72,0,.68-.95,1.19-2.84,1.53-.86,.07-1.48,.1-1.88,.1-1.04,0-1.55-.54-1.55-1.63h-23.51v.2c0,.68-.93,1.17-2.79,1.48-.79,.1-1.36,.15-1.71,.15-1.18,0-1.77-.54-1.77-1.63,.14-.95,.21-2.02,.21-3.21v-5.96c0-1.26-.07-2.75-.21-4.48Zm6.05,27.14h9.42v-4.28h-9.42v4.28Zm0,5.45h9.42v-4.07h-9.42v4.07Zm.21-25.46h23.51v-3.41h-23.51v3.41Zm0,4.94h23.51v-3.51h-23.51v3.51Zm15.15,10.79v4.28h8.78v-4.28h-8.78Zm0,5.65v4.07h8.78v-4.07h-8.78Zm0,5.55v4.48h9.91c.11-.07,.62-.68,1.55-1.83,.46-.51,.84-.93,1.12-1.27-.14,.03-.27,.05-.38,.05-.89,.14-1.52,.2-1.88,.2-1.04,0-1.55-.54-1.55-1.63h-8.78Z"/><path class="cls-1" d="M136.92,265.22c2.46,.58,4.93,1.39,7.39,2.44h20.24c.89-1.09,1.71-2.02,2.46-2.8,.61-.75,1.16-1.12,1.66-1.12,.46,0,1.57,.53,3.32,1.58,2.07,1.32,3.11,2.22,3.11,2.7,0,.51-.39,1.02-1.18,1.53-.5,.44-.75,.95-.75,1.53v10.18c0,1.7,.05,4.01,.16,6.92,0,.68-.98,1.17-2.95,1.48-.89,.1-1.54,.15-1.93,.15-1.04,0-1.55-.54-1.55-1.63v-.97h-8.78v7.69h10.92c.18-.07,.91-.85,2.2-2.34,1.53-1.83,2.44-2.75,2.73-2.75,.82,0,2.05,.87,3.69,2.6,1.68,1.7,2.52,2.75,2.52,3.16,0,.51-.34,.76-1.02,.76h-21.04v3.31c0,3.87,.07,6.99,.21,9.37,0,.71-1.12,1.26-3.37,1.63-1,.13-1.73,.2-2.2,.2-1.14,0-1.71-.61-1.71-1.83,.29-2.21,.43-5.33,.43-9.37v-3.31h-13.71c-2.89,0-5.32,.14-7.28,.41l-.8-2.44c3.25,.41,6.25,.61,9,.61h12.8v-7.69h-8.08v.97c0,.68-.91,1.17-2.73,1.48-.82,.1-1.41,.15-1.77,.15-1.18,0-1.77-.54-1.77-1.63,.14-1.83,.21-3.65,.21-5.45v-10.03c0-2.58-.14-5.07-.43-7.48Zm6.48,11.35h23.51v-7.49h-23.51v7.49Zm0,9.16h23.51v-7.69h-23.51v7.69Z"/><path class="cls-1" d="M202,298.77l1.12,.2c0,3.53-.2,5.94-.59,7.23-.39,1.39-1.07,2.36-2.04,2.9-.61,.31-1.23,.46-1.87,.46-1.14,0-2.11-.31-2.89-.92-.68-.54-1.02-1.31-1.02-2.29,0-.51,.68-1.09,2.03-1.73,1.43-.68,2.52-1.44,3.27-2.29,.82-.78,1.48-1.97,1.98-3.56Zm11.35-35.23c2.21,.34,3.98,.66,5.3,.97,1.93,.37,2.89,.8,2.89,1.27,0,.31-.5,.59-1.5,.87-.75,.14-1.18,.34-1.29,.61-1.14,.75-2.64,1.49-4.5,2.24h13.71c.75-.81,1.48-1.51,2.2-2.09,.54-.54,1-.82,1.39-.82,.43,0,1.45,.48,3.05,1.43,1.86,1.19,2.78,2,2.78,2.44,0,.51-.39,1.02-1.18,1.53-.5,.44-.75,.97-.75,1.58v3.21c0,1.63,.07,3.87,.21,6.72,0,.68-.95,1.19-2.84,1.53-.89,.1-1.52,.15-1.87,.15-1.04,0-1.55-.56-1.55-1.68v-.56h-23.13v4.48h27.04s.54-.54,1.5-1.63c1.29-1.53,2.14-2.29,2.57-2.29,.39,0,1.52,.85,3.38,2.54,1.18,1.02,1.77,1.66,1.77,1.94,0,.58-.38,.87-1.12,.87h-35.13v4.07h29.4c.64-.64,1.14-1.09,1.5-1.32,.82-.78,1.45-1.17,1.87-1.17,.64,0,1.8,.58,3.48,1.73,1.82,1.15,2.73,2,2.73,2.55,0,.44-.41,.83-1.23,1.17-1.07,.58-1.64,1.09-1.71,1.53-.86,6.48-2.25,10.52-4.18,12.12-2.14,1.25-3.82,1.88-5.03,1.88-.71,0-1.27-.63-1.66-1.88-.5-1.36-2.75-2.77-6.75-4.23l.21-.97c3.32,.37,5.75,.56,7.28,.56,1.79,0,2.93-1.71,3.43-5.14,.25-1.9,.54-3.72,.86-5.45h-30.2v2.24c0,.68-.91,1.19-2.73,1.53-.82,.1-1.41,.15-1.77,.15-1.29,0-1.93-.56-1.93-1.68,.29-3.94,.43-7.4,.43-10.39v-9.73c0-2.58-.14-5.7-.43-9.37,2.79,.58,5.3,1.39,7.55,2.44h4.93c.61-1.59,.95-3.58,1.02-5.96Zm-7.07,7.33v4.48h23.13v-4.48h-23.13Zm0,5.91v4.68h23.13v-4.68h-23.13Zm1.55,20.83c1.68,.92,3,1.92,3.96,3,.89,1.12,1.34,2.14,1.34,3.06,0,1.56-.3,2.61-.91,3.16-.82,.92-1.73,1.38-2.73,1.38-.57,0-1.02-.25-1.34-.76-.29-.34-.43-1.36-.43-3.06,0-1.8-.27-3.92-.8-6.36l.91-.41Zm8.3-1.07c2.5,1.05,4.21,1.97,5.14,2.75,1.14,1.05,1.71,1.99,1.71,2.8,0,1.29-.3,2.31-.91,3.06-.82,.81-1.71,1.22-2.68,1.22-.61,0-1.04-.17-1.29-.51-.29-.2-.54-1.1-.75-2.7-.21-1.93-.84-3.94-1.87-6.01l.64-.61Zm8.78-.76c2.82,.54,4.78,1.15,5.89,1.83,.93,.61,1.39,1.36,1.39,2.24s-.43,1.83-1.29,2.75c-.61,.58-1.38,.87-2.3,.87-.57,0-1.05-.61-1.45-1.83-.46-1.76-1.36-3.46-2.68-5.09l.43-.76Z"/><path class="cls-1" d="M267.99,263.39c1.96,.51,3.86,1.04,5.68,1.58,1.75,.51,2.62,1.05,2.62,1.63,0,.31-.11,.53-.32,.66,1.57,.14,3.55,.2,5.94,.2h18.63c.11-.07,.66-.71,1.66-1.94,1.21-1.42,1.95-2.14,2.2-2.14,.61,0,1.62,.7,3.05,2.09,1.39,1.43,2.09,2.27,2.09,2.55,0,.54-.3,.82-.91,.82h-10.44v4.73h1.93c.61-.78,1.14-1.42,1.61-1.93,.46-.51,.91-.76,1.34-.76,.61,0,1.66,.53,3.16,1.58,1.78,1.09,2.68,1.85,2.68,2.29,0,.34-.32,.7-.96,1.07-.57,.34-.89,.66-.96,.97v6.31c0,.58-.88,1.02-2.63,1.32-.79,.1-1.34,.15-1.66,.15-.96,0-1.46-.36-1.5-1.07h-20.6c-.46,.3-1.16,.54-2.09,.71-.71,.1-1.23,.15-1.55,.15-1.14,0-1.72-.47-1.72-1.43,.14-.95,.21-1.97,.21-3.05v-4.53c0-1.12-.07-2.46-.21-4.02,2.01,.51,4.13,1.26,6.36,2.24h2.69v-4.73h-2.36c-3.14,0-5.35,.08-6.64,.25l-.59-1.43c-.93,.14-1.45,.32-1.55,.56-1.04,3.12-2.2,5.92-3.48,8.4,.39,.1,.75,.2,1.07,.31,1.18,.34,1.77,.64,1.77,.92,0,.58-.36,1.02-1.07,1.32-.43,.24-.64,.68-.64,1.32v28.87c0,.68-.88,1.19-2.62,1.53-.79,.1-1.36,.15-1.71,.15-1.29,0-1.93-.56-1.93-1.68,.29-3.7,.43-7.42,.43-11.15v-14.26c-1.43,1.9-3.07,3.79-4.93,5.65l-.8-.76c2.39-4.24,4.21-8.16,5.46-11.76,1.32-3.84,2.43-8.4,3.32-13.7Zm20.08,44.81c-5.75,1.59-11.01,2.55-15.8,2.85l-.48-1.07c3.57-.95,6.21-1.95,7.92-3,1.82-.92,3.68-2.29,5.57-4.12,1.61,1.19,2.89,2.09,3.86,2.7,1.46,1.02,2.2,1.75,2.2,2.19s-.29,.66-.86,.66l-2.41-.2Zm-10.66-23.42c2.11,.51,4.3,1.26,6.59,2.24h13.33c.61-.54,1.12-1.04,1.55-1.48,.75-.64,1.3-.97,1.66-.97,.54,0,1.57,.48,3.11,1.43,1.75,1.29,2.62,2.17,2.62,2.65,0,.41-.34,.87-1.02,1.37-.57,.61-.86,1.17-.86,1.68v.15l.43,10.03c0,.64-.96,1.12-2.89,1.43-.86,.1-1.46,.15-1.82,.15-.86,0-1.34-.32-1.45-.97h-15.04v.15c0,.68-.93,1.17-2.79,1.48-.79,.13-1.36,.2-1.71,.2-1.14,0-1.71-.56-1.71-1.68,.14-.95,.21-2.02,.21-3.21v-10.18c0-1.25-.07-2.75-.21-4.48Zm6.85-9.83h-3.27v7.18h3.27v-7.18Zm-.64,16.34h14.94v-2.9h-14.94v2.9Zm0,4.68h14.94v-3.31h-14.94v3.31Zm0,5.04h14.94v-3.62h-14.94v3.62Zm5.94-27.44h3.27v-4.73h-3.27v4.73Zm0,8.55h3.27v-7.18h-3.27v7.18Zm3.91,21.54c3.86,.07,6.96,.34,9.32,.81,2,.34,3.57,.9,4.71,1.68,.93,.58,1.39,1.39,1.39,2.44,0,.85-.25,1.53-.75,2.04-.57,.41-1.27,.61-2.09,.61-.75,0-2.12-.76-4.12-2.29-1.96-1.46-4.93-2.87-8.89-4.23l.43-1.07Zm7.66-21.54v-7.18h-2.95v7.18h2.95Z"/></g></g></svg>