<?xml version="1.0" encoding="UTF-8"?><svg id="_圖層_2" xmlns="http://www.w3.org/2000/svg" viewBox="0 0 380 311.72"><defs><style>.cls-1{fill:#93d4ef;}.cls-2,.cls-3{fill:#fff;}.cls-3{stroke:#fff;stroke-miterlimit:10;stroke-width:1.74px;}</style></defs><g id="_圖層_2-2"><g><g><g><path class="cls-2" d="M58.42,30.65h-14.56c5.06,4.54,10.84,7.98,17.36,10.33l-.14,.81c-2.71,.94-4.25,2.49-4.63,4.67-6.59-3.52-12.26-8.79-17.03-15.81H22.19c-2.03,2.76-4.37,5.38-7.04,7.86,4.64,1.57,7.46,3.76,8.42,6.61,.61,1.81,.35,3.21-.75,4.2-1.09,.93-2.35,.82-3.74-.33-.32-2.81-1.73-5.79-4.18-8.95-.22-.31-.43-.58-.63-.8-3.89,3.34-8.45,6.13-13.67,8.41l-.6-.73c6.77-4.1,12.36-9.52,16.79-16.28H1.53l-.58-1.87H17.94c1.6-2.89,2.78-5.22,3.54-7H7.23l-.5-1.94h15.52c.96-2.49,1.69-4.62,2.15-6.4H4.69l-.5-1.92H24.97c.86-3.44,1.44-6.28,1.77-8.55l8.12,1.8c-.39,1.02-1.22,1.56-2.53,1.6-.34,1.6-.79,3.31-1.33,5.15h17.18l3.35-4.34,5.25,4.4c.34,.31,.64,.58,.91,.81-.26,.66-.88,1.02-1.85,1.06H30.42c-.46,1.64-1.23,3.78-2.28,6.4h18.07l3.14-4.2,5.15,4.41c.25,.26,.47,.48,.69,.66-.17,.67-.72,1.02-1.64,1.07h-17.12c1.53,2.57,3.33,4.91,5.39,7h8.48l3.48-4.6,5.9,5.06c.17,.14,.32,.27,.45,.41-.17,.62-.75,.95-1.72,1ZM26.18,50.4l.38,.87c-4.4,2.92-9.64,6.08-15.71,9.46-.22,.85-.66,1.45-1.34,1.8l-4.11-5.8c2.41-.58,9.33-2.69,20.78-6.33Zm1.7-17.55l7.24,.8c-.3,.97-1.05,1.56-2.23,1.73v24.22c0,2.52-.59,4.23-1.78,5.12-1.14,.81-2.93,1.32-5.4,1.54-.14-1.55-.58-2.65-1.26-3.27-1.09-.89-2.78-1.47-5.06-1.73v-1.07s2.47,.16,7.28,.46c.72-.26,1.11-.67,1.2-1.19v-26.62Zm-4.44-4.07h14.75c-1.25-2.09-2.44-4.43-3.54-7h-7.4c-1.1,2.4-2.37,4.73-3.81,7Zm10.63,22.21l.32-1c9.31,.85,15.45,3.04,18.45,6.6,1.44,1.69,1.8,3.2,1.08,4.53-.68,1.11-1.75,1.42-3.25,.94-.07-.05-.18-.09-.3-.13-2.33-2.89-6.06-5.72-11.15-8.47-1.69-.94-3.39-1.76-5.15-2.47Zm7.36-13.67l6.28,3.53c-.47,.8-1.3,1.09-2.48,.86-3.29,3.2-6.08,5.58-8.36,7.14l-.88-.73c1.73-2.67,3.54-6.28,5.44-10.81Z"/><path class="cls-2" d="M25.04,117.35l2.52-2.67,4.99,4.21c-.45,.49-1.28,.85-2.46,1.06-.56,6.94-1.92,11.23-4.11,12.88-1.57,1.02-3.58,1.53-6.03,1.53,.05-1.42-.27-2.42-.95-3-.71-.71-2.17-1.23-4.37-1.53v-1.13c2.9,.3,5.08,.46,6.52,.46,.89-.04,1.53-.22,1.9-.53,1.12-.97,1.91-4.07,2.42-9.28h-7.66c-1.28,4.9-4.35,8.83-9.18,11.81-2.08,1.29-4.51,2.45-7.29,3.47l-.75-.93c6.82-3.61,10.93-8.21,12.28-13.81,.04-.17,.08-.35,.13-.53H3.67l-.56-2H13.37c.17-1.28,.29-3.09,.38-5.4l6.85,.67c-.25,.9-.9,1.45-1.95,1.67-.22,1.64-.38,2.66-.45,3.06h6.85Zm25.57-8l3.37-4.41,4.75,3.87c.56,.53,1.04,1.01,1.45,1.41-.16,.71-.73,1.08-1.69,1.13H1.46l-.51-2H21.99c-.51-.36-.88-.85-1.14-1.47-.16-1.73-.82-3.16-1.97-4.27-.2-.18-.37-.31-.5-.41l.45-.53c3.92,.18,6.31,1.32,7.16,3.41,.37,1.11,.08,2.09-.89,2.93-.17,.14-.31,.25-.45,.34h10.64c1.31-3.17,2.17-5.45,2.54-6.87l5.97,1.46v-2.13H17.75v1.54c0,.4-.72,.82-2.15,1.27-.81,.27-1.57,.4-2.3,.4h-.75v-15.41l5.51,2.4h25.09l2.59-2.93,5.83,4.6c-.5,.59-1.36,1.01-2.59,1.27v8.14c-.05,.35-.98,.76-2.78,1.2-.51,.08-.96,.16-1.34,.2-.43,.72-1.22,1.09-2.35,1.13-1.47,1.38-3.07,2.63-4.75,3.74h12.84ZM2.55,80.14l-.57-2H27.38v-6.54l7.74,.73c-.13,1.03-.89,1.67-2.29,1.94h-.12v3.88h17.22l3.55-4.67,5.58,4.87c.26,.27,.49,.48,.7,.66-.25,.71-.82,1.09-1.79,1.14h-25.26v5.66h12.79l3.31-4.26,5.31,4.4c.29,.27,.54,.51,.76,.74-.26,.67-.85,1.03-1.78,1.06H7.6l-.56-1.94H27.38v-5.66H2.55Zm15.2,19.74h26.05v-5.8H17.75v5.8Zm31.69,16.34l2.6-2.94,5.58,4.48c-.47,.53-1.33,.95-2.54,1.26v12.08c-.05,.35-.85,.75-2.41,1.19-.67,.17-1.25,.26-1.73,.26h-.87v-3.33h-11.8v3.14c0,.35-.63,.75-1.89,1.19-.78,.27-1.48,.4-2.15,.4h-.7v-20.07l5.06,2.33h10.85Zm-11.17,11.01h11.8v-9h-11.8v9Z"/></g><g><g><rect class="cls-2" x="110.17" y="23.99" width="45.77" height="9.97"/><polygon class="cls-2" points="138.03 128.78 118.73 128.78 111.8 118.82 138.03 118.82 138.03 128.78"/><rect class="cls-2" x="69.01" y="59.77" width="128.08" height="9.95" transform="translate(197.79 -68.31) rotate(90)"/><polygon class="cls-2" points="103.6 97.68 147.31 46.2 160.11 46.2 116.42 97.68 103.6 97.68"/><polygon class="cls-2" points="147.4 75.13 191.1 23.65 203.91 23.65 160.2 75.13 147.4 75.13"/><rect class="cls-2" x="138.27" y="96.96" width="53.66" height="9.98" transform="translate(267.06 -63.15) rotate(90)"/><path class="cls-2" d="M225.68,128.78v-56.72h9.96v46.76c0,5.51-4.47,9.96-9.96,9.96h0Z"/><rect class="cls-2" x="155.94" y="14.02" width="79.71" height="9.97"/><rect class="cls-2" x="165.89" y="118.82" width="59.79" height="9.96"/><polygon class="cls-2" points="235.64 75.13 170.19 75.13 178.49 65.17 235.64 65.17 235.64 75.13"/></g><g><rect class="cls-2" x="251.58" y="13.33" width="127.14" height="9.96"/><rect class="cls-2" x="250.31" y="102.81" width="129.69" height="9.96"/><g><polygon class="cls-2" points="283.25 109.78 267.11 128.78 279.93 128.78 296.06 109.78 283.25 109.78"/><polygon class="cls-2" points="347.07 109.78 363.21 128.78 350.39 128.78 334.26 109.78 347.07 109.78"/></g><rect class="cls-2" x="248.95" y="62.35" width="53.63" height="11.41" transform="translate(343.81 -207.71) rotate(90)"/><path class="cls-2" d="M348.86,94.87V38.15h11.39v45.34c0,6.28-5.11,11.38-11.39,11.38h0Z"/><polygon class="cls-2" points="360.25 41.18 292.49 41.18 300.67 31.22 360.25 31.22 360.25 41.18"/><polygon class="cls-2" points="354.55 59.08 292.49 59.08 300.67 49.11 354.55 49.11 354.55 59.08"/><polygon class="cls-2" points="354.55 76.97 292.49 76.97 300.67 67.01 354.55 67.01 354.55 76.97"/><rect class="cls-2" x="274.59" y="84.9" width="74.26" height="9.96"/><polygon class="cls-2" points="305.09 0 270.06 41.24 281.47 41.24 316.48 0 305.09 0"/></g></g><g><path class="cls-2" d="M85.29,50.99l-.25-19.07h2.11v21.66h-2.56l-11.89-19.1,.24,19.1h-2.1V31.92h2.56l11.89,19.07Z"/><path class="cls-2" d="M71.73,75.61v-6.43c0-1.4,.1-2.45,.3-3.16,.2-.71,.52-1.37,.98-1.99,.71-.94,1.59-1.67,2.63-2.17,1.04-.51,2.18-.76,3.41-.76,2.27,0,4.06,.71,5.37,2.11,1.31,1.41,1.96,3.36,1.96,5.85v6.63c0,1.17-.09,2.14-.28,2.91-.19,.77-.49,1.45-.91,2.03-.68,.96-1.56,1.71-2.63,2.23-1.07,.53-2.24,.79-3.51,.79s-2.37-.25-3.41-.75c-1.03-.5-1.92-1.23-2.66-2.18-.44-.56-.75-1.23-.95-2.03-.2-.8-.3-1.83-.3-3.09Zm2.1,.46c0,1.8,.46,3.19,1.38,4.2,.92,1,2.2,1.5,3.84,1.5s2.9-.5,3.82-1.49c.92-.99,1.38-2.38,1.38-4.15v-7.47c0-1.77-.46-3.15-1.39-4.14-.93-1-2.2-1.5-3.82-1.5s-2.92,.5-3.84,1.51c-.92,1.01-1.38,2.41-1.38,4.22v7.32Z"/><path class="cls-2" d="M76.79,112.87h-2.38l8.57-19.53h-9.48v-2.13h11.94v1.95l-8.66,19.71Z"/></g></g><g><g><path class="cls-3" d="M273.91,200.17l-3.32,8.6h-27.95v-1.22c8.22-7.07,14.01-12.85,17.36-17.33,3.35-4.48,5.03-8.58,5.03-12.29,0-2.83-.92-5.16-2.76-6.99-1.84-1.82-4.04-2.73-6.6-2.73-2.33,0-4.42,.64-6.27,1.93-1.85,1.29-3.22,3.17-4.11,5.65h-1.29c.58-4.06,2.08-7.18,4.49-9.36,2.41-2.17,5.42-3.26,9.03-3.26,3.84,0,7.05,1.16,9.63,3.49,2.57,2.33,3.86,5.07,3.86,8.24,0,2.26-.56,4.53-1.68,6.79-1.72,3.56-4.52,7.33-8.39,11.3-5.8,5.97-9.42,9.58-10.87,10.81h12.37c2.52,0,4.28-.09,5.29-.26,1.01-.18,1.93-.53,2.74-1.07,.81-.54,1.52-1.3,2.13-2.29h1.29Z"/><path class="cls-3" d="M277.99,187.86h18.06v4.98h-18.06v-4.98Z"/><path class="cls-3" d="M302.56,172.59c1.35-3.01,3.06-5.33,5.12-6.97,2.06-1.64,4.63-2.46,7.71-2.46,3.8,0,6.71,1.16,8.73,3.49,1.54,1.74,2.31,3.59,2.31,5.57,0,3.25-2.17,6.61-6.5,10.08,2.91,1.08,5.11,2.61,6.6,4.61,1.49,2,2.24,4.35,2.24,7.05,0,3.87-1.3,7.22-3.91,10.05-3.4,3.69-8.33,5.53-14.78,5.53-3.19,0-5.36-.37-6.52-1.12-1.15-.75-1.73-1.55-1.73-2.4,0-.64,.27-1.2,.82-1.68,.55-.48,1.21-.73,1.97-.73,.58,0,1.18,.09,1.78,.26,.4,.11,1.29,.51,2.69,1.2,1.4,.69,2.36,1.1,2.9,1.23,.86,.24,1.78,.36,2.76,.36,2.38,0,4.44-.87,6.2-2.6,1.76-1.74,2.64-3.79,2.64-6.16,0-1.74-.41-3.43-1.22-5.07-.61-1.23-1.27-2.16-1.99-2.8-1-.88-2.38-1.67-4.12-2.39-1.75-.71-3.53-1.07-5.35-1.07h-1.12v-.99c1.84-.22,3.69-.85,5.54-1.88,1.85-1.03,3.2-2.27,4.04-3.72,.84-1.45,1.26-3.04,1.26-4.78,0-2.26-.75-4.09-2.25-5.49-1.5-1.39-3.37-2.09-5.61-2.09-3.61,0-6.63,1.82-9.05,5.47l-1.15-.53Z"/></g><path class="cls-2" d="M373.5,169.47c-5.8,1.06-11.17,1.73-16.1,1.99-3.88,.13-8.67,.2-14.37,.2v2.64h27.95c.59-.76,1.12-1.4,1.57-1.89,.45-.5,.91-.75,1.36-.75,.59,0,1.66,.53,3.2,1.6,1.78,1.13,2.67,1.93,2.67,2.39,0,.4-.35,.78-1.05,1.15-.59,.33-.94,.68-1.05,1.05v4.84c0,.57-.87,.96-2.62,1.2-.74,.1-1.26,.15-1.57,.15-1.01,0-1.52-.38-1.52-1.15v-.85h-28.95c-.07,4.42-.31,8.36-.73,11.82-.63,3.46-1.75,6.67-3.36,9.62-1.33,2.36-3.17,4.74-5.51,7.13l-1.1-.45c1.82-3.86,3.02-7.5,3.62-10.92,.84-4.19,1.26-10.44,1.26-18.75,0-6.05-.23-10.39-.68-13.02,3.15,.9,5.61,1.8,7.4,2.69,4.47-.43,8.46-.98,11.96-1.65,4.72-.76,9.75-2.16,15.11-4.19,1.61,.96,3.08,1.88,4.4,2.74,1.4,.96,2.1,1.76,2.1,2.39-.14,.3-.63,.45-1.47,.45l-2.52-.45Zm-16.62,13.41c2.34,.2,4.6,.47,6.77,.8,1.36,.07,2.04,.38,2.04,.95,0,.27-.39,.6-1.15,1-.91,.37-1.36,.85-1.36,1.45v1.99h7.34c.18-.06,.77-.75,1.78-2.04,1.26-1.59,1.99-2.39,2.2-2.39,.7,0,1.78,.76,3.25,2.29,1.5,1.5,2.25,2.41,2.25,2.74,0,.5-.37,.75-1.1,.75h-19.56c-.21,2.13-.49,3.94-.84,5.43h11.17c.8-.67,1.35-1.13,1.63-1.4,.87-.66,1.47-1,1.78-1,.52,0,1.56,.58,3.09,1.75,1.54,1.13,2.31,1.94,2.31,2.44,0,.43-.44,.83-1.31,1.2-.77,.33-1.15,.67-1.15,1-1.08,4.42-1.92,7.18-2.52,8.28-.56,.96-1.38,1.7-2.46,2.19-1.01,.47-1.87,.7-2.57,.7-.56,0-1.07-.6-1.52-1.79-.6-1.4-2.82-2.86-6.66-4.39l.21-1.05c3.18,.43,5.47,.65,6.87,.65,.77,0,1.28-.28,1.52-.85,.39-.73,.93-2.86,1.63-6.38h-12.43c-.21,.73-.44,1.35-.68,1.85-.91,2.03-2.03,3.66-3.36,4.89-1.36,1.43-3.13,2.66-5.3,3.69-2.8,1.4-5.96,2.59-9.49,3.59l-.63-1.05c2.1-.83,4.09-1.88,5.98-3.14,1.85-1.13,3.48-2.61,4.88-4.44,1.12-1.46,1.92-3.12,2.41-4.99,.66-2.26,1.07-4.65,1.21-7.18h-2.05c-3.08,0-5.24,.07-6.5,.2l-.89-2c1.71,.3,4.18,.45,7.39,.45h6.29v-1.79c0-1.43-.16-2.89-.47-4.39Zm-13.85-2.2h28.95v-5.04h-28.95v5.04Z"/><g><path class="cls-2" d="M20.56,164.48c2.31,.2,4.51,.48,6.61,.85,1.33,.07,1.99,.4,1.99,1,0,.2-.38,.48-1.15,.85-.91,.37-1.36,.82-1.36,1.35v2.74h11.17c.14-.07,.84-.83,2.1-2.29,1.54-1.76,2.43-2.64,2.67-2.64,.8,0,2.01,.83,3.62,2.49,1.68,1.66,2.52,2.68,2.52,3.04,0,.57-.37,.85-1.1,.85H8.02c-2.87,0-5.26,.12-7.18,.35l-.84-2.34c3.22,.37,6.15,.55,8.81,.55h12.17v-2.54c0-1.39-.14-2.81-.42-4.24ZM2.1,185.67c2.59,.63,5.23,1.55,7.92,2.74h27.95c.53-.47,.94-.86,1.26-1.2,1.01-.93,1.73-1.39,2.15-1.39,.52,0,1.64,.6,3.36,1.79,1.64,1.16,2.46,1.96,2.46,2.39,0,.37-.38,.83-1.15,1.39-1.01,.63-1.52,1.25-1.52,1.85v12.77c0,1.7-.93,2.99-2.78,3.89-1.47,.73-2.73,1.1-3.78,1.1-.35,0-.68-.63-1-1.89-.46-1.46-2.15-2.71-5.09-3.74l.21-.95c2.45,.26,4.4,.4,5.87,.4,.56,0,.84-.55,.84-1.65v-13.32H8.65v19.9c0,.67-.93,1.16-2.78,1.5-.87,.07-1.49,.1-1.84,.1-1.15,0-1.73-.53-1.73-1.6,.14-1.83,.21-3.67,.21-5.53v-10.97c0-2.63-.14-5.15-.42-7.58Zm7.55-11.57c1.96,.5,3.91,1.15,5.87,1.94h15.58c.59-.76,1.12-1.45,1.57-2.04,.42-.5,.86-.75,1.31-.75,.63,0,1.71,.55,3.25,1.65,1.78,1.1,2.67,1.88,2.67,2.34,0,.37-.32,.75-.94,1.15-.56,.37-.89,.72-1,1.05v5.63c0,.53-.87,.93-2.62,1.2-.81,.1-1.4,.15-1.78,.15-.98,0-1.47-.45-1.47-1.35v-.45H15.73v.45c0,.63-.89,1.1-2.68,1.4-.77,.1-1.35,.15-1.73,.15-1.12,0-1.68-.51-1.68-1.55,.17-.96,.26-2.04,.26-3.24v-3.34c0-1.23-.09-2.69-.26-4.39Zm3.2,17.95c1.96,.47,4,1.13,6.14,1.99h8.7c.59-.7,1.08-1.28,1.47-1.75,.42-.43,.86-.65,1.31-.65,.52,0,1.47,.47,2.83,1.4,1.57,1,2.36,1.71,2.36,2.14,0,.33-.23,.65-.68,.95-.45,.27-.72,.55-.79,.85v5.98c0,.6-.84,1.03-2.52,1.3-.73,.1-1.28,.15-1.63,.15-.98,0-1.47-.42-1.47-1.25v-.75h-9.65v1.8c0,.63-.88,1.1-2.62,1.39-.7,.1-1.22,.15-1.57,.15-1.12,0-1.68-.45-1.68-1.35,.11-.97,.16-2.05,.16-3.24v-4.94c0-1.2-.12-2.59-.37-4.19Zm2.88-8.78h16.36v-5.84H15.73v5.84Zm3.2,17.7h9.65v-5.54h-9.65v5.54Z"/><path class="cls-2" d="M57.94,178.04c3.22,.43,6.15,.65,8.81,.65h11.12c.24-2.23,.38-4.57,.42-7.03,0-2.79-.07-5.12-.21-6.98,1.85,.23,3.67,.53,5.45,.9,2.52,.43,3.78,.86,3.78,1.3,0,.47-.38,.9-1.15,1.3-.91,.37-1.36,.73-1.36,1.1-.28,3.49-.61,6.63-1,9.42h11.75c.14-.06,.84-.85,2.1-2.34,1.54-1.79,2.43-2.69,2.67-2.69,.8,0,2.01,.85,3.62,2.54,1.68,1.7,2.52,2.73,2.52,3.09,0,.5-.37,.75-1.1,.75h-19.67c.84,3.32,1.99,6.43,3.46,9.32,1.61,3.23,3.76,6.02,6.45,8.38,3.32,2.79,7.01,5.02,11.07,6.68l-.21,1.15c-1.92,.73-3.18,1.65-3.78,2.74-.63,1.4-1.21,2.09-1.73,2.09-.56,0-1.66-.73-3.3-2.19-1.85-1.46-3.83-3.57-5.93-6.33-1.57-2.06-3.02-4.77-4.35-8.13-1.33-3.19-2.41-7.76-3.25-13.71h-.52c-.84,5.29-1.96,9.28-3.36,11.97-2.1,4.39-5.02,8.1-8.76,11.12-3.18,2.73-7.55,5.29-13.11,7.68l-.42-1.05c4.3-2.69,8.04-5.85,11.22-9.47,2.87-3.09,5.17-7.23,6.92-12.42,.74-2.39,1.28-5,1.63-7.83h-11.75c-2.87,0-5.24,.15-7.13,.45l-.89-2.44Z"/><path class="cls-2" d="M116.77,169.47c1.82,.4,3.48,.75,4.98,1.05,1.15,.3,1.73,.62,1.73,.95,0,.5-.37,.85-1.1,1.05-.66,.2-1,.38-1,.55-.21,1.66-.46,3.13-.73,4.39h3.46v-4.19c0-3.39-.21-6.37-.63-8.93,1.64,.1,3.71,.35,6.19,.75,1.75,.2,2.62,.55,2.62,1.05,0,.53-.49,.96-1.47,1.3-.73,.23-1.1,.67-1.1,1.3v8.73h.89s.38-.35,1.05-1.05c.98-1,1.59-1.5,1.84-1.5,.28,0,1.12,.6,2.52,1.8,.87,.7,1.31,1.15,1.31,1.35,0,.57-.21,.85-.63,.85h-6.98v8.73c2.38-.73,4.62-1.51,6.71-2.34l.26,.4c-2.31,2.03-4.63,3.79-6.98,5.29v18.6c0,.67-.86,1.16-2.57,1.5-.73,.1-1.26,.15-1.57,.15-1.26,0-1.89-.55-1.89-1.65,.28-3.19,.42-6.12,.42-8.78v-6.73c-1.01,.47-1.98,.87-2.88,1.2-.63,.1-.94,.37-.94,.8-.04,.17-.09,.4-.16,.7-.07,.43-.21,.65-.42,.65-.77,0-1.64-1.18-2.62-3.54-.28-.67-.75-1.75-1.42-3.24,2.94-.4,5.75-.9,8.44-1.5v-10.22h-3.78c-.25,.96-.51,1.8-.79,2.49-.84,1.96-2.06,3.86-3.67,5.69l-.42-.45c.35-1.83,.59-3.51,.73-5.04,.17-1.2,.3-2.68,.37-4.44,.1-2.13,.17-4.69,.21-7.68Zm15.31,21.14c1.68,.27,4.13,.4,7.34,.4h11.54v-1.95c0-1-.14-2.74-.42-5.24,2.94,.4,4.84,.73,5.72,1,2.34,.4,3.51,.86,3.51,1.39,0,.5-.51,.92-1.52,1.25-.94,.23-1.42,.61-1.42,1.15v2.39h.63c.1-.03,.54-.55,1.31-1.55,1.01-1.2,1.61-1.79,1.78-1.79,.59,0,1.47,.6,2.62,1.79,1.19,1.2,1.78,1.93,1.78,2.2,0,.5-.26,.75-.79,.75h-7.34v13.37c0,1.99-.68,3.39-2.05,4.19-1.57,.93-3.13,1.4-4.67,1.4-.52,0-.84-.45-.94-1.35-.28-1.49-2.06-2.98-5.35-4.44l.21-.95c2.55,.5,4.42,.75,5.61,.75,.87,0,1.31-.25,1.31-.75v-12.22h-11.54c-3.08,0-5.24,.07-6.5,.2l-.84-1.99Zm1.63-18.75c1.71,.3,4.18,.45,7.39,.45h3.51v-3.59c0-1.43-.12-2.89-.37-4.39,2.31,.17,4.56,.43,6.77,.8,1.36,.07,2.05,.4,2.05,1,0,.23-.42,.53-1.26,.9-.84,.4-1.26,.9-1.26,1.49v3.79h4.2c.14-.07,.72-.75,1.73-2.04,1.26-1.56,1.99-2.35,2.2-2.35,.7,0,1.78,.75,3.25,2.25,1.5,1.49,2.25,2.41,2.25,2.74,0,.5-.37,.75-1.1,.75h-12.53v8.38h2.73c.1-.07,.68-.75,1.73-2.04,1.26-1.56,2.01-2.34,2.25-2.34,.66,0,1.73,.75,3.2,2.24,1.47,1.5,2.2,2.43,2.2,2.79,0,.53-.33,.8-1,.8h-17.41c-3.08,0-5.26,.05-6.55,.15l-.79-2c1.68,.27,4.13,.4,7.34,.4h.37v-8.38h-3.51c-3.11,0-5.28,.07-6.5,.2l-.89-2Zm4.4,22.39c3.08,.77,5.21,1.56,6.4,2.39,1.08,.86,1.62,1.86,1.62,2.99,0,.97-.47,1.91-1.41,2.84-.59,.6-1.4,.9-2.41,.9-.6,0-1.14-.73-1.63-2.19-.6-2.03-1.64-4.02-3.15-5.98l.58-.95Z"/><path class="cls-2" d="M172.98,167.92c1.71,.27,4.16,.4,7.34,.4h32.15c.14-.06,.72-.75,1.73-2.04,1.26-1.56,1.99-2.34,2.2-2.34,.7,0,1.78,.75,3.25,2.24,1.5,1.5,2.25,2.39,2.25,2.69,0,.53-.37,.8-1.1,.8h-38.6v33.51c0,1.36,.87,2.1,2.62,2.2,3.04,.13,6.97,.2,11.8,.2,3.99,0,7.18-.05,9.6-.15,3.56-.1,6.4-.47,8.5-1.1,.87-.37,1.43-.55,1.68-.55,.66,0,1.52,.45,2.57,1.35,.94,1.06,1.42,1.88,1.42,2.44,0,.6-.65,1.08-1.94,1.45-1.57,.33-3.9,.58-6.98,.75-4.3,.27-9.25,.4-14.84,.4-8.01,0-13.13-.18-15.37-.55-1.26-.27-2.29-.6-3.09-1-1.05-.7-1.57-1.84-1.57-3.44v-35.46c-1.15,.07-2.08,.13-2.78,.2l-.84-2Zm12.17,19.35c2.06,.5,4.16,1.23,6.29,2.19h2.52c.59-.76,1.08-1.39,1.47-1.89,.42-.47,.86-.7,1.31-.7,.56,0,1.52,.47,2.88,1.4,1.57,1.03,2.36,1.75,2.36,2.14,0,.3-.28,.61-.84,.95-.49,.3-.79,.58-.89,.85v8.78c0,.6-.81,1.03-2.44,1.3-.71,.1-1.24,.15-1.59,.15-.95,0-1.43-.41-1.43-1.25v-.75h-3.96v1.15c0,.6-.82,1.01-2.45,1.25-.7,.1-1.22,.15-1.57,.15-1.11,0-1.67-.46-1.67-1.39,.17-.86,.26-1.86,.26-2.99v-7.33c0-1.13-.09-2.46-.26-3.99Zm5.72-16.01c2.2,.6,4.46,1.4,6.77,2.39h8.55c.56-.73,1.03-1.35,1.42-1.84,.45-.5,.87-.75,1.26-.75,.59,0,1.59,.52,2.99,1.55,1.64,1.06,2.46,1.83,2.46,2.29,0,.3-.26,.63-.79,1-.49,.33-.77,.67-.84,1v7.13c0,.6-.89,1.03-2.67,1.3-.81,.1-1.38,.15-1.73,.15-1.01,0-1.52-.48-1.52-1.45v-.2h-9.81v.6c0,.67-.93,1.15-2.78,1.45-.73,.1-1.28,.15-1.62,.15-1.12,0-1.68-.53-1.68-1.6,.11-.93,.16-1.98,.16-3.14v-5.64c0-1.23-.05-2.69-.16-4.39Zm0,27.73h3.93v-8.18h-3.93v8.18Zm6.08-16.56h9.81v-7.33h-9.81v7.33Zm6.03,4.64c2.24,.57,4.49,1.36,6.77,2.39h2.94c.56-.83,1.03-1.51,1.42-2.04,.45-.53,.89-.8,1.31-.8,.56,0,1.54,.52,2.94,1.55,1.64,1.06,2.46,1.81,2.46,2.24,0,.33-.3,.68-.89,1.05-.56,.33-.87,.65-.94,.95v8.38c0,.57-.86,1-2.57,1.3-.73,.1-1.28,.15-1.62,.15-1.01,0-1.52-.41-1.52-1.25v-.75h-4.56v.95c0,.6-.81,1.03-2.41,1.3-.73,.1-1.28,.15-1.63,.15-.94,0-1.42-.48-1.42-1.45,.14-1.6,.21-3.19,.21-4.79v-2.74c0-2.29-.16-4.49-.47-6.58Zm5.72,11.72h4.56v-7.98h-4.56v7.98Z"/></g></g><g><path class="cls-1" d="M0,261.87c3.64,.67,7.74,1,12.31,1h15.18c.94-.78,1.71-1.42,2.29-1.92,1.71-1.39,2.97-2.09,3.79-2.09,1,0,2.85,1.14,5.56,3.43,.47,.33,.85,.61,1.15,.84v-.92c0-4.01-.23-8.92-.7-14.72,4.16,.95,8,2.29,11.52,4.02h1.76c.7-2.79,1.26-6.02,1.67-9.7h-3.69c-5.16,0-8.79,.14-10.91,.42l-1.5-3.35c2.87,.45,7.01,.67,12.4,.67h16.8c.23-.11,1.17-1.17,2.82-3.18,2.05-2.34,3.26-3.51,3.61-3.51,1,0,2.64,1.15,4.93,3.43,2.35,2.34,3.52,3.74,3.52,4.18,0,.89-.47,1.34-1.4,1.34h-15.75c-2.29,3.73-4.93,6.97-7.91,9.7h7.04c1.35-1.17,2.55-2.23,3.61-3.18,.88-.73,1.7-1.09,2.46-1.09,.64,0,2.29,.75,4.93,2.26,2.99,1.95,4.49,3.32,4.49,4.1,0,.73-.59,1.48-1.76,2.26-.94,.73-1.41,1.51-1.41,2.34v24.5c0,2.57,.14,6.14,.44,10.71,0,1.06-1.53,1.87-4.57,2.43-1.29,.16-2.23,.25-2.82,.25-1.64,0-2.46-.89-2.46-2.68v-1.34h-17.68v.67c0,1.06-1.44,1.84-4.31,2.34-1.23,.17-2.14,.25-2.73,.25-2.05,0-3.08-.87-3.08-2.6,.47-6.13,.7-11.51,.7-16.14v-8.36h-.44c-1.93,.11-3.2,.33-3.78,.67-4.57,4.46-8.21,7.61-10.91,9.45l-.79-.75c1.17-3.07,2.35-7.2,3.52-12.38h-5.28v34.88c0,4.18-1.33,6.86-4,8.03-2.55,1.34-4.52,2-5.94,2-.7,0-1.29-.95-1.76-2.84-.7-2.73-3.61-5.02-8.71-6.86l.35-1.42c3.57,.73,6.6,1.09,9.06,1.09,1.23,0,1.84-.81,1.84-2.43v-32.45h-1.14c-3.81,0-7.45,.22-10.91,.67l-1.41-4.02Zm2.64-23c3.58,.67,7.68,1,12.31,1h7.65c.94-.72,1.7-1.34,2.29-1.84,1.64-1.23,2.9-1.84,3.78-1.84,1,0,2.9,1.17,5.72,3.51,2.93,2.29,4.4,3.88,4.4,4.77s-1.17,1.42-3.52,1.59c-1.93,.11-3.23,.39-3.87,.84-3.17,2.23-5.89,4.04-8.18,5.43,1.76,1.34,2.64,2.87,2.64,4.6,0,1.45-.7,2.87-2.11,4.27-.88,.89-2.08,1.34-3.61,1.34-1.41,0-2.64-1.17-3.69-3.51-1.29-3.4-3.69-6.66-7.21-9.79l.79-1.42c3.93,.84,7.09,1.73,9.5,2.68,1.17-2.45,2.32-5.21,3.43-8.28H14.95c-3.87,0-7.53,.22-11,.67l-1.32-4.02Zm50.23,65.24c-8.8,3.96-16.86,6.3-24.19,7.03l-.79-1.76c5.39-1.9,9.38-3.88,11.96-5.94,2.82-1.79,5.66-4.49,8.53-8.11,2.64,1.89,4.72,3.4,6.24,4.52,2.34,1.62,3.52,2.82,3.52,3.6,0,.67-.47,1-1.41,1l-3.87-.33Zm-3.17-40.48h17.68v-9.7h-17.68v9.7Zm0,12.63h17.68v-10.37h-17.68v10.37Zm0,13.47h17.68v-11.04h-17.68v11.04Zm11.96,6.69c4.69,.67,8.42,1.48,11.17,2.42,2.7,.95,4.66,1.98,5.89,3.09,1.05,.89,1.58,1.81,1.58,2.76,0,1.56-.56,2.9-1.67,4.01-1.06,1.39-2.35,2.09-3.87,2.09-.82,0-2.41-1.59-4.75-4.77-2.41-2.9-5.54-5.46-9.41-7.69l1.05-1.92Z"/><path class="cls-1" d="M123.44,246.56c2.93,.89,5.75,1.84,8.44,2.84,2.64,1,3.96,2.04,3.96,3.09,0,.5-.68,.81-2.02,.92-1.29,.11-2.02,.28-2.2,.5-5.04,5.74-10.88,11.07-17.5,15.97,4.74-.11,9.22-.28,13.45-.5-.71-1.73-1.58-3.43-2.64-5.1l.61-.67c4.52,2,7.57,3.79,9.15,5.35,2.11,2.18,3.17,4.07,3.17,5.69s-.38,2.84-1.14,3.85c-1,.95-2.14,1.42-3.43,1.42-1.17,0-2.08-.22-2.73-.67-.65-.39-1.17-1.95-1.58-4.68-.12-1.06-.32-2.01-.62-2.84-1.88,.84-3.75,1.65-5.63,2.42v21.58c0,5.41,.11,9.73,.35,12.96,0,1-1.51,1.73-4.53,2.18-1.3,.17-2.28,.25-2.93,.25-1.6,0-2.4-.81-2.4-2.42,.24-3.01,.35-7.33,.35-12.96v-6.27c-1.23,.28-1.97,.56-2.2,.84-1.23,3.85-2.73,7.11-4.49,9.79-1.58,2.62-3.72,5.27-6.42,7.94l-1.06-.92c1.17-4.07,2.08-7.78,2.73-11.13,.58-3.68,1.08-8,1.5-12.96,2.99,.73,5.89,1.48,8.71,2.26,.47,.11,.88,.25,1.23,.42v-8.61c-2,.61-4.02,1.12-6.07,1.5-.88,.11-1.32,.36-1.32,.75-.12,.28-.21,.67-.26,1.17-.18,.78-.44,1.17-.79,1.17-1.23,0-2.7-2.01-4.4-6.02-.47-1.11-1.23-2.93-2.29-5.44,3.64-.05,7.21-.11,10.73-.17,6.07-7.41,10.82-15.25,14.25-23.5Zm-10.82-13.72c2.99,.89,5.86,1.84,8.62,2.84,2.7,.95,4.05,2.01,4.05,3.18,0,.56-.68,.89-2.02,1-1.29,.17-2.02,.36-2.2,.59-3.11,3.96-6.74,7.58-10.91,10.87,.76,.39,1.38,.75,1.85,1.09,1.99,1.56,2.99,3.4,2.99,5.52,0,1.17-.53,2.34-1.58,3.51-.82,.73-1.82,1.09-2.99,1.09-1.47,0-2.73-1.22-3.78-3.68-1.41-3.4-3.9-6.75-7.48-10.04l.71-1c2.93,.73,5.36,1.48,7.3,2.26,2.34-5.46,4.16-11.21,5.45-17.23Zm13.28,49.85c4.34,2.73,7.27,5.16,8.79,7.28,2.11,2.79,3.17,5.24,3.17,7.36,0,1.79-.41,3.15-1.23,4.1-1.12,1.12-2.35,1.67-3.69,1.67-1.17,0-2.02-.33-2.55-1-.65-.45-1.17-2.34-1.58-5.69-.41-4.18-1.7-8.45-3.87-12.8l.97-.92Zm15.83-48.93c3.22,.83,6.27,1.67,9.15,2.51,2.87,.78,4.31,1.65,4.31,2.59,0,.89-.79,1.45-2.38,1.67-1.53,.22-2.37,.53-2.55,.92-1.06,3.18-2.17,5.99-3.34,8.45h17.68c1.17-1.22,2.05-2.23,2.64-3.01,1.29-1.39,2.31-2.09,3.08-2.09,1.17,0,3.28,1.12,6.33,3.35,2.58,1.9,3.87,3.35,3.87,4.35,0,.45-.56,1.09-1.67,1.93-1.12,.89-1.73,1.73-1.85,2.51-.24,7.92-1,17.46-2.29,28.61-1.12,8.92-2.52,14.86-4.22,17.82-1.41,2.28-3.23,4.04-5.45,5.27-2.52,1.45-4.43,2.17-5.72,2.17-.7,0-1.41-1.03-2.11-3.09-1-2.51-4.87-5.05-11.61-7.61l.35-2.09c5.28,.67,9.03,1,11.26,1,1.99,0,3.49-.73,4.49-2.18,.88-1.73,1.73-7.05,2.55-15.97,1.23-10.09,1.85-19.66,1.85-28.69h-20.41c-.65,1.29-1.29,2.45-1.94,3.51-2.35,3.79-5.48,7.67-9.41,11.63l-1.41-1.42c2.46-5.3,4.31-10.23,5.54-14.81,1.29-4.85,2.38-10.62,3.26-17.31Zm.35,29.86c5.51,1.79,9.68,3.65,12.49,5.6,3.4,2.45,5.1,4.68,5.1,6.69,0,2.29-.85,4.1-2.55,5.44-1,.89-2.26,1.34-3.78,1.34-1.23,0-2.32-.36-3.26-1.09-.88-.67-1.64-2.23-2.29-4.68-.88-3.57-3.14-7.78-6.77-12.63l1.06-.67Z"/><path class="cls-1" d="M201.94,234.43c3.68,.89,7.16,2.01,10.44,3.35h11.32c1.23-1.28,2.42-2.4,3.6-3.35,.82-.89,1.58-1.34,2.28-1.34,.76,0,2.43,.78,5,2.34,3.05,1.95,4.57,3.32,4.57,4.1,0,.73-.71,1.48-2.11,2.26-.94,.73-1.41,1.5-1.41,2.34v6.44c0,2.57,.09,6.14,.26,10.71,0,1.06-1.47,1.87-4.4,2.42-1.35,.17-2.35,.25-2.99,.25-1.64,0-2.46-.89-2.46-2.68h-14.34v48.09c0,1-1.39,1.73-4.18,2.18-1.16,.11-1.98,.17-2.44,.17-2.09,0-3.14-.78-3.14-2.34,.41-5.91,.61-11.12,.61-15.64v-44.91c0-3.9-.2-8.7-.61-14.39Zm9.76,14.05h14.34v-8.28h-14.34v8.28Zm0,10.37h14.34v-7.95h-14.34v7.95Zm4.84,8.78c2.81,.45,6.89,.67,12.23,.67h20.56c.18-.11,.92-.97,2.22-2.59,1.76-1.9,2.75-2.84,2.99-2.84,.88,0,2.29,.95,4.22,2.84,1.93,1.95,2.9,3.12,2.9,3.51,0,.95-.47,1.42-1.41,1.42h-8.88v12.38h.7c.18-.11,.97-1.03,2.38-2.76,1.7-2.01,2.7-3.01,2.99-3.01,.88,0,2.31,1,4.31,3.01,2.05,2.01,3.08,3.24,3.08,3.68,0,.95-.5,1.42-1.49,1.42h-11.96v7.03c0,5.41,.12,9.73,.35,12.96,0,1-1.51,1.73-4.52,2.18-1.3,.17-2.28,.25-2.93,.25-1.6,0-2.4-.81-2.4-2.43,.23-3.01,.35-7.33,.35-12.96v-7.03h-8.62c-.06,.56-.12,1.06-.18,1.51-.7,3.79-1.79,6.94-3.25,9.45-1.29,2.23-3.02,4.24-5.19,6.02-2.52,2.18-5.8,4.07-9.85,5.69l-.79-.92c1.94-1.73,3.61-3.6,5.01-5.6,1.35-2.06,2.38-4.32,3.08-6.78,.88-2.45,1.49-4.99,1.85-7.61,.06-.5,.11-1.09,.17-1.76-4.69,0-8.06,.11-10.12,.33l-1.32-3.34c2.76,.45,6.63,.67,11.61,.67,.17-3.12,.26-7.25,.26-12.38-3.11,.06-5.45,.17-7.04,.33l-1.32-3.35Zm25.68,15.39v-12.38h-7.74c-.06,4.85-.23,8.98-.53,12.38h8.27Zm-.62-49.6c3.69,1.06,7.48,2.4,11.35,4.01h12.58c.76-.73,1.37-1.34,1.85-1.84,1.58-1.45,2.7-2.17,3.34-2.17,.94,0,2.79,1,5.54,3.01,2.7,1.95,4.05,3.29,4.05,4.02,0,.61-.7,1.39-2.11,2.34-1.64,1.06-2.46,2.09-2.46,3.09v57.54c0,2.62-1.57,4.63-4.7,6.02-2.44,1.12-4.48,1.67-6.12,1.67-.7,0-1.35-.97-1.94-2.93-.7-2.34-3.58-4.3-8.62-5.85l.27-1.59c4.28,.39,7.71,.59,10.29,.59,1.11,0,1.67-.78,1.67-2.34v-38.06h-14.83v.33c0,1.06-1.41,1.87-4.24,2.42-1.24,.17-2.18,.25-2.83,.25-1.82,0-2.73-.89-2.73-2.68,.23-2.9,.35-5.83,.35-8.78v-7.03c0-4.12-.24-8.14-.71-12.04Zm10.12,14.72h14.86v-8.28h-14.86v8.28Zm0,10.37h14.86v-7.95h-14.86v7.95Z"/><path class="cls-1" d="M301.01,236.19c3.63,.89,7.31,2.12,11.05,3.68h6.14c1.17-1.5,2.28-2.82,3.33-3.93,.82-1,1.55-1.51,2.19-1.51,.7,0,2.28,.73,4.74,2.18,2.93,1.9,4.39,3.18,4.39,3.85,0,.78-.53,1.56-1.58,2.34-.76,.67-1.15,1.45-1.15,2.34v7.36c0,2.4,.12,5.63,.35,9.7,0,1.12-1.44,1.95-4.31,2.51-1.29,.17-2.2,.25-2.73,.25-.24,0-.47-.03-.71-.08v13.13h1.32c.7-1.34,1.4-2.7,2.11-4.1,.94-1.95,1.76-2.93,2.46-2.93,.88,0,2.08,.86,3.61,2.59,2.05,2.79,3.08,4.6,3.08,5.44,0,.61-.44,.92-1.32,.92h-11.26v14.97c3.99-.5,7.86-1.12,11.61-1.84l.35,.92c-8.62,6.02-17.74,10.37-27.36,13.05-1.05,.17-1.58,.5-1.58,1-.12,.33-.24,.81-.35,1.42-.18,.89-.5,1.34-.97,1.34-1.47,0-3.17-2.29-5.1-6.86-.53-1.28-1.41-3.37-2.64-6.27,1.17-.05,2.34-.14,3.52-.25v-19.82c0-1.9-.24-3.88-.7-5.94,3.22,.28,6.36,.67,9.41,1.17,1.94,.11,2.9,.61,2.9,1.5,0,.28-.58,.67-1.76,1.17-1.17,.45-1.76,1.03-1.76,1.76v19.49c1.85-.17,3.61-.36,5.28-.59v-32.95h-2.73v.42c0,1.06-1.35,1.84-4.05,2.34-1.23,.17-2.11,.25-2.64,.25-1.93,0-2.9-.86-2.9-2.59,.23-2.73,.35-5.44,.35-8.11v-8.03c0-3.9-.21-7.67-.62-11.29Zm9.77,24.76h10.2v-18.74h-10.2v18.74Zm30.96-27.85c3.05,.84,5.98,1.67,8.79,2.51,2.76,.78,4.13,1.62,4.13,2.51,0,.95-.76,1.54-2.29,1.76-1.53,.22-2.38,.53-2.55,.92-.76,1.84-1.58,3.54-2.46,5.1h18.91c1.52-1.67,2.55-2.82,3.08-3.43,1.17-1.12,1.94-1.67,2.29-1.67,.76,0,2.26,.78,4.49,2.34,2.58,1.84,3.87,3.21,3.87,4.1,0,.5-.7,1.12-2.11,1.84-.94,.5-1.41,1-1.41,1.51-.06,11.26-.56,20.27-1.5,27.02-1.11,6.13-2.37,10.06-3.78,11.79-1.06,1.28-2.43,2.29-4.13,3.01-1.7,.67-3.14,1-4.31,1-.7,0-1.32-.95-1.85-2.84-.7-2.4-3.69-4.49-8.97-6.27l.35-1.26c4.81,.39,8.06,.59,9.77,.59,1.46,0,2.52-1.2,3.17-3.6,.58-2.12,1.11-5.99,1.58-11.63,.65-7.53,.97-14.28,.97-20.24h-21.73c-1.06,1.79-2.17,3.4-3.34,4.85-1.06,1.34-2.2,2.62-3.43,3.85,2.76,.67,5.19,1.45,7.3,2.34h2.9c1.05-1.34,2.11-2.54,3.17-3.6,.7-.89,1.37-1.34,2.02-1.34s2.11,.64,4.4,1.92c2.76,1.79,4.13,3.04,4.13,3.76,0,.67-.5,1.37-1.49,2.09-.65,.67-.97,1.42-.97,2.26v5.6c0,2.4,.11,5.63,.35,9.7,0,.95-1.44,1.67-4.31,2.18-1.29,.17-2.23,.25-2.82,.25-1.35,0-2.02-.81-2.02-2.43v-.25h-5.98v17.98c0,1.9,1.03,3.04,3.08,3.43,1.35,.39,4.45,.59,9.32,.59,4.28,0,7.15-.48,8.62-1.42,1.47-.39,3.58-4.49,6.33-12.3l2.2,.33v6.78c0,2.57,.71,4.49,2.11,5.77,1.58,1.17,2.37,2.15,2.37,2.93,0,2.18-2.05,3.65-6.16,4.43-4.52,.78-9.68,1.17-15.48,1.17-5.28,0-9.41-.17-12.4-.5-5.86-.45-8.79-3.15-8.79-8.11v-35.8c0-1.95-.06-3.82-.18-5.6-1.41,1.34-2.9,2.62-4.49,3.85l-1.41-1.25c2.93-4.79,5.16-9.2,6.68-13.22,1.53-4.24,2.84-9.34,3.96-15.3Zm4.22,43.83h5.98v-15.31h-5.98v15.31Z"/></g></g></g></svg>