<svg xmlns="http://www.w3.org/2000/svg" viewBox="0 0 536.29 367.82"><defs><style>.cls-1{font-size:22px;fill:#534741;letter-spacing:0.07em;}.cls-1,.cls-15{font-family:NotoSansCJKtc-Medium-B5pc-H, Noto Sans CJK TC;}.cls-2{letter-spacing:0.09em;}.cls-3{letter-spacing:0.07em;}.cls-4{letter-spacing:-0.39em;}.cls-5{letter-spacing:-0.16em;}.cls-6{letter-spacing:0.09em;}.cls-7{letter-spacing:0.06em;}.cls-8{letter-spacing:0.08em;}.cls-9{letter-spacing:-0.17em;}.cls-10{letter-spacing:-0.17em;}.cls-11{letter-spacing:0.06em;}.cls-12{letter-spacing:-0.19em;}.cls-13{font-size:40px;fill:#333;letter-spacing:0.02em;}.cls-13,.cls-14{font-family:NotoSansCJKtc-Bold-B5pc-H, Noto Sans CJK TC;}.cls-14{font-size:19.94px;letter-spacing:0.02em;}.cls-14,.cls-18{fill:#005e3c;}.cls-15{letter-spacing:0.02em;}.cls-16{letter-spacing:-0.23em;}.cls-17{letter-spacing:-0.23em;}</style></defs><g id="圖層_2" data-name="圖層 2"><g id="圖層_3" data-name="圖層 3"><text class="cls-1" transform="translate(-10.58 144.15)">「<tspan class="cls-2" x="23.51" y="0">朗朗城</tspan><tspan class="cls-3" x="95.31" y="0">心</tspan><tspan class="cls-4" x="118.82" y="0">」</tspan><tspan class="cls-2" x="132.17" y="0">近22公頃新莊運動公</tspan><tspan class="cls-5" x="352.56" y="0">園，</tspan><tspan class="cls-6" x="389.43" y="0">步行5分鐘享</tspan><tspan class="cls-7" x="523.55" y="0">受</tspan><tspan class="cls-8"><tspan x="10.58" y="41.2">近萬坪綠地空</tspan><tspan class="cls-9" x="152.92" y="41.2">間，</tspan><tspan x="189.36" y="41.2">2.8公里貴子坑溪改善計</tspan><tspan class="cls-10" x="439.66" y="41.2">畫，</tspan><tspan x="476.11" y="41.2">規劃</tspan><tspan class="cls-11" x="523.55" y="41.2">超</tspan></tspan><tspan class="cls-7"><tspan x="10.58" y="82.4">越中港大</tspan><tspan class="cls-12" x="103.86" y="82.4">排，</tspan><tspan x="139.5" y="82.4">提供您親</tspan><tspan class="cls-12" x="232.78" y="82.4">水、</tspan><tspan x="268.42" y="82.4">遊憩友善環</tspan><tspan class="cls-12" x="385.02" y="82.4">境。</tspan></tspan></text><text class="cls-13" transform="translate(0 35.2)">41公頃綠地<tspan x="0" y="60.49">親水公園環繞</tspan></text><text class="cls-14" transform="translate(17.22 279.88)">22公頃<tspan class="cls-15" x="64.98" y="0" xml:space="preserve"> 新莊運動公園</tspan><tspan x="0" y="33.53">公</tspan><tspan class="cls-16" x="20.34" y="33.53">五、</tspan><tspan x="51.06" y="33.53">公</tspan><tspan class="cls-17" x="71.4" y="33.53">六、</tspan><tspan x="102.11" y="33.53">泰山捷運公園</tspan><tspan x="0" y="67.06">2.8公里 </tspan><tspan class="cls-15" x="76.78" y="67.06">貴子坑溪計畫</tspan></text><rect class="cls-18" y="267.06" width="11.45" height="11.45"/><rect class="cls-18" y="300.55" width="11.45" height="11.45"/><rect class="cls-18" y="334.04" width="11.45" height="11.45"/></g></g></svg>