<svg xmlns="http://www.w3.org/2000/svg" viewBox="0 0 305 288.37"><defs><style>.cls-1{font-size:15px;fill:#534741;letter-spacing:0.08em;}.cls-1,.cls-17{font-family:NotoSansCJKtc-Medium-B5pc-H, Noto Sans CJK TC;}.cls-2{letter-spacing:0.1em;}.cls-3{letter-spacing:-0.38em;}.cls-4{letter-spacing:0.1em;}.cls-5{letter-spacing:-0.15em;}.cls-6{letter-spacing:0.06em;}.cls-7{letter-spacing:0.07em;}.cls-8{letter-spacing:-0.18em;}.cls-9{letter-spacing:0.07em;}.cls-10{letter-spacing:0.09em;}.cls-11{letter-spacing:-0.16em;}.cls-12{letter-spacing:-0.16em;}.cls-13{letter-spacing:0.09em;}.cls-14{letter-spacing:-0.19em;}.cls-15{font-size:25px;fill:#333;letter-spacing:0.02em;}.cls-15,.cls-16{font-family:NotoSansCJKtc-Bold-B5pc-H, Noto Sans CJK TC;}.cls-16{font-size:16.24px;letter-spacing:0.02em;}.cls-16,.cls-20{fill:#005e3c;}.cls-18{letter-spacing:-0.23em;}.cls-19{letter-spacing:0.02em;}</style></defs><g id="圖層_2" data-name="圖層 2"><g id="圖層_3" data-name="圖層 3"><text class="cls-1" transform="translate(-7.21 96.62)">「<tspan class="cls-2" x="16.26" y="0">朗朗城</tspan><tspan x="65.9" y="0">心</tspan><tspan class="cls-3" x="82.17" y="0">」</tspan><tspan class="cls-4" x="91.5" y="0">近22公頃新莊運動公</tspan><tspan class="cls-5" x="244.07" y="0">園，</tspan><tspan class="cls-2" x="269.67" y="0">步行</tspan><tspan class="cls-6" x="302.76" y="0">5</tspan><tspan class="cls-7"><tspan x="7.21" y="26">分鐘享受近萬坪綠地空</tspan><tspan class="cls-8" x="167.23" y="26">間，</tspan><tspan class="cls-9" x="191.73" y="26">2.8公里貴子坑</tspan><tspan class="cls-6" x="296.31" y="26">溪</tspan></tspan><tspan class="cls-10"><tspan x="7.21" y="52">改善計</tspan><tspan class="cls-11" x="56.41" y="52">畫，</tspan><tspan x="81.71" y="52">規劃超越中港大</tspan><tspan class="cls-12" x="196.51" y="52">排，</tspan><tspan class="cls-13" x="221.81" y="52">提供您親</tspan><tspan class="cls-12" x="287.41" y="52">水</tspan><tspan class="cls-14" x="300.06" y="52">、</tspan></tspan><tspan class="cls-6"><tspan x="7.21" y="78">遊憩友善環</tspan><tspan class="cls-14" x="86.71" y="78">境。</tspan></tspan></text><text class="cls-15" transform="translate(0 22)">41公頃綠地<tspan x="0" y="36">親水公園環繞</tspan></text><text class="cls-16" transform="translate(14.29 216.75)">22公頃<tspan class="cls-17" x="52.92" y="0" xml:space="preserve"> 新莊運動公園</tspan><tspan x="0" y="27.31">公</tspan><tspan class="cls-18" x="16.57" y="27.31">五、</tspan><tspan x="41.58" y="27.31">公</tspan><tspan class="cls-18" x="58.15" y="27.31">六、</tspan><tspan class="cls-19" x="83.16" y="27.31">泰山捷運公園</tspan><tspan x="0" y="54.61">2.8公里 </tspan><tspan class="cls-17" x="62.53" y="54.61">貴子坑溪計畫</tspan></text><rect class="cls-20" x="0.27" y="206.31" width="9.32" height="9.32"/><rect class="cls-20" x="0.27" y="233.58" width="9.32" height="9.32"/><rect class="cls-20" x="0.27" y="260.86" width="9.32" height="9.32"/></g></g></svg>