<svg xmlns="http://www.w3.org/2000/svg" width="1339.259" height="108.589" viewBox="0 0 1339.259 108.589">
  <g id="Group_2014" data-name="Group 2014" transform="translate(-289.21 -1917.87)">
    <g id="Group_1001" data-name="Group 1001">
      <path id="Path_1094" data-name="Path 1094" d="M834.79,1923.838v4.1h7.224v8.923c0,2.674-2.725,3.124-6.024.825l.25-.85c3.024.65,3.474.425,3.474-.7v-7.073H834.79v13.072h-2.349v-13.072h-4.824v10.772h-2.3v-11.9h7.123v-4.1h-9.773v-1.25h11a48.346,48.346,0,0,0-3.6-3.4l.4-.824a21.842,21.842,0,0,1,5.3,2.649l-1.225,1.574h9.973v1.25Z" fill="#4d4d4d"/>
      <path id="Path_1095" data-name="Path 1095" d="M851.68,1932.661v1.85h-2.3v-11h8.248v-4.749h2.4v4.749h8.324v10.848h-2.3v-1.7h-6.024v9.473h-2.4v-9.473Zm5.948-7.9H851.68v6.7h5.948Zm8.423,0h-6.024v6.7h6.024Z" fill="#4d4d4d"/>
      <path id="Path_1096" data-name="Path 1096" d="M876.767,1927.687l.9.125a21.765,21.765,0,0,1-1.95,9.673l-2.724-1.5A17.232,17.232,0,0,0,876.767,1927.687Zm3,9.9v-13.4h2.4v12.922c0,1.3.25,1.6,1.649,1.7a19.023,19.023,0,0,0,3.15,0c1.824-.151,2.149-.55,2.124-5.3h.95c1.75,5.7,1.125,7.2-2.274,7.523a24.983,24.983,0,0,1-4.325,0C880.441,1940.809,879.767,1940.659,879.767,1937.585Zm1.124-18.046.475-.875a24.344,24.344,0,0,1,7.623,4.274l-1.974,2.25A36.058,36.058,0,0,0,880.891,1919.539Zm8.823,7.823.825-.5a29.779,29.779,0,0,1,5.074,8.073l-2.775,1.15A50.332,50.332,0,0,0,889.714,1927.362Z" fill="#4d4d4d"/>
      <path id="Path_1097" data-name="Path 1097" d="M909.527,1936.335l.325.85a40.629,40.629,0,0,1-10.972,4.549l-.8-2.524a65.263,65.263,0,0,0,6.923-1.5v-8.673H898.78v-1.25H905v-8.223h2.3v17.5Zm6.224,4.7c-4.6,0-4.949-.55-4.949-3.9v-17.571h2.3v9.248a26.258,26.258,0,0,0,4.673-4.524l1.975,2.025a35.688,35.688,0,0,1-6.648,3.7v7.048c0,1.6.225,1.825,3.1,1.825,2.449,0,2.549-.4,2.524-5.649h.9C921.2,1940.009,920.9,1941.034,915.751,1941.034Z" fill="#4d4d4d"/>
      <path id="Path_1098" data-name="Path 1098" d="M945.462,1939.909c-.749.7-2.249,1.15-4.473,1.25-3.05.125-7.549.1-10.6,0-3.824-.125-5.074-.25-5.074-4.249v-15.421h-1.574v-1.25h20.995v1.25H927.617v15.471c0,1.85.2,2.049,2.724,2.149,3.149.125,7.548.15,10.7,0a4.747,4.747,0,0,0,3.374-1.049Zm-16.32-9.5h6.548v6.848h-6.548Zm2.1,5.773h2.349v-4.7h-2.349Zm9.722-7.7h-9.522v-5.424h9.522Zm-2.149-4.349H933.59v3.274h5.224Zm4.949,13.122h-6.7v-6.848h6.7Zm-2.1-5.774h-2.5v4.7h2.5Z" fill="#4d4d4d"/>
      <path id="Path_1099" data-name="Path 1099" d="M970.925,1939.534v1.375H949.08v-1.375h3.749v-12.822h2.3v12.822h4.649v-17.645H950.33v-1.25H970v1.25h-7.823v7.623h6.8v1.125h-6.8v8.9Z" fill="#4d4d4d"/>
      <path id="Path_1100" data-name="Path 1100" d="M988.514,1922.039v4.249h5.948v15.5h-2.3v-2.025H978.541v2.125h-2.3v-15.6h5.423v-4.249h-7.147v-1.25h21.494v1.25Zm3.648,16.6v-3.675h-3.174c-2.349,0-2.674-.7-2.674-2.7v-4.849h-2.4c-.1,3.5-.8,7.224-4.424,9.748l-.6-.7c2.549-2.649,2.774-6.448,2.774-9.048h-3.124v11.223Zm-5.848-16.6h-2.4v4.249h2.4Zm2.2,5.373v4.049c0,1.1.275,1.45,1.423,1.45h2.225v-5.5Z" fill="#4d4d4d"/>
      <path id="Path_1101" data-name="Path 1101" d="M1000.954,1919.814h8.623v9.1H1003.2v12.947h-2.249Zm6.424,3.874v-2.749H1003.2v2.749Zm0,4.124v-3H1003.2v3Zm6.273,11.247c3.624,1.05,4.525.925,4.525-.749v-9.4h-6.324v-9.1h8.572v19.1c0,3.075-2.623,4.1-7.1,1.025Zm4.525-15.371v-2.749h-4.125v2.749Zm0,4.124v-3h-4.125v3Z" fill="#4d4d4d"/>
      <path id="Path_1102" data-name="Path 1102" d="M1047.286,1930.861l-1.4,2.65a16.3,16.3,0,0,1-6.149-3.749,20.087,20.087,0,0,1-7.248,4.124l-.349-.825a19.118,19.118,0,0,0,2.023-.975h-2.849v5.324c1.175-.35,2.25-.7,3.1-1.025l.325.85a45.971,45.971,0,0,1-9.472,4.024l-.725-2.5c.425-.05.9-.1,1.374-.175v-8.5h1.95v8.148l1.3-.3v-10.3h-3.074v-7.673h7.822v7.673h-2.6v3.324h3.174v.95a15.208,15.208,0,0,0,4.15-3.4,15.018,15.018,0,0,1-1.949-3.524,14.534,14.534,0,0,1-2.1,2.349l-.625-.6c1.624-2.149,2.5-5.123,3.1-8.123l2.423.775a21.674,21.674,0,0,1-.875,2.175h3.275l.45-.4,2.225,1.125a19.724,19.724,0,0,1-3.5,6.123A17.288,17.288,0,0,0,1047.286,1930.861Zm-19.145-4.348h3.774v-5.424h-3.774Zm6.873,6.773h9.4v8.623h-2.1v-1.625h-5.2v1.65h-2.1Zm2.1,5.848h5.2v-4.723h-5.2Zm2.526-11.922a18.36,18.36,0,0,0,2.1-4.523h-3.65c-.25.474-.5.9-.749,1.349A12.623,12.623,0,0,0,1039.639,1927.212Z" fill="#4d4d4d"/>
      <path id="Path_1103" data-name="Path 1103" d="M1058.952,1934.66a4.94,4.94,0,0,0,3.175-4,2.577,2.577,0,0,1-.851.125,1.888,1.888,0,0,1-2-2,1.909,1.909,0,0,1,2.025-2c1.524,0,2.524.925,2.524,2.8a5.745,5.745,0,0,1-4.349,5.773Z" fill="#4d4d4d"/>
      <path id="Path_1104" data-name="Path 1104" d="M1078.865,1937.21v-5.624h-3.3v-1.149h5.5v6.573c1.474,2.049,3.125,2.1,6.4,2.174a73.619,73.619,0,0,0,10.472-.7l-.625,2.524a96.661,96.661,0,0,1-9.972.175c-3.823-.225-5.473-.775-7.248-3.674a22.669,22.669,0,0,1-3.349,4.649l-1.425-1.475A16.179,16.179,0,0,0,1078.865,1937.21Zm-2.773-12.7.5-.75a23.34,23.34,0,0,1,4.523,2.875l-1.625,1.849C1078.666,1927.387,1077.141,1925.613,1076.092,1924.513Zm1.149-4.924.475-.75a20.522,20.522,0,0,1,4.6,2.75l-1.6,1.824A32.986,32.986,0,0,0,1077.241,1919.589Zm5.149,15.146v-1.124h6.2v-1.825h-5v-7.5h5v-1.874h-5.623v-1.125h5.623v-2.6h2.2v2.6h5.824v1.125h-5.824v1.874h5.024v7.5h-5.024v1.825h6.4v1.124h-6.4v3.4h-2.2v-3.4Zm6.2-9.322h-2.9v2.024h2.9Zm0,3.149h-2.9v2.1h2.9Zm5.124-3.149h-2.925v2.024h2.925Zm0,3.149h-2.925v2.1h2.925Z" fill="#4d4d4d"/>
      <path id="Path_1105" data-name="Path 1105" d="M1106.327,1931.986v7.8c0,2.175-1.724,3.149-5.5.725l.25-.825c2.625.625,3.15.475,3.15-.7v-5.973c-1,.45-1.975.875-2.849,1.175l-.85-2.35c1.149-.225,2.424-.5,3.7-.825v-5.3h-3.474v-1.125h3.474v-5.749h2.1v5.749h2.949v1.125h-2.949v4.7a25.909,25.909,0,0,0,2.5-.875l.325.8C1108.326,1930.887,1107.352,1931.436,1106.327,1931.986Zm13.347,1.225a11.212,11.212,0,0,1-2.025,4.374,25.144,25.144,0,0,1,4.5,2.5l-1.574,2.125a32.459,32.459,0,0,0-4.224-3.275c-2.1,1.775-5.075,2.85-9.048,3.2l-.225-.875c3.7-.7,6.048-1.8,7.6-3.3a27.962,27.962,0,0,0-2.875-1.375c-.4.725-.776,1.375-1.074,1.875l-1.826-.9c.65-1.075,1.55-2.7,2.35-4.349h-3.874v-1.125h4.4a23.052,23.052,0,0,0,1.1-2.749l2.075.675c-.225.625-.524,1.324-.875,2.074h8.724v1.125Zm-2.049-9.923h-9v-1.124h6.673a35.4,35.4,0,0,0-3.449-2.75l.375-.75a17.651,17.651,0,0,1,4.7,1.9l-1.15,1.6h6.048v1.124h-4.073l2.273.9a29.741,29.741,0,0,1-2.749,3.874h5.4v1.125h-14.622v-1.125h4.174a32.435,32.435,0,0,0-1.65-4.1l.8-.45a15.9,15.9,0,0,1,2.974,3.774l-1.45.775h3.2A39.048,39.048,0,0,0,1117.625,1923.288Zm-.326,9.923h-3.748l-1.3,2.549a28.387,28.387,0,0,1,3.424,1.05A11,11,0,0,0,1117.3,1933.211Z" fill="#4d4d4d"/>
      <path id="Path_1106" data-name="Path 1106" d="M1147.711,1938.56v1.5h-21.4v-1.5Zm-1.8-17.571v1.4h-17.82v-1.4Zm-1.749,8.148v1.4H1129.84v-1.4Z" fill="#4d4d4d"/>
      <path id="Path_1107" data-name="Path 1107" d="M1173.8,1938.51l-.875,2.549c-3.15.15-6.274.225-9.423.2-5.748-.05-8.248-2.049-9.272-5.1a12.06,12.06,0,0,1-2.6,5.9l-.774-.5c1.25-2.425,1.849-5.649,1.673-11.3l2.151.05a35.907,35.907,0,0,1-.2,4.174,9.17,9.17,0,0,0,1.3,2.224v-8.573h-4.423v-1.1h4.048v-3.349h-3.449v-1.075h3.449v-3.624h2.15v3.624h3.874v1.075h-3.874v3.349H1162v1.1h-4.073v3.649h3.549v1.075h-3.549v5.474a15.128,15.128,0,0,0,5.573.674C1167.649,1939.009,1171.323,1938.76,1173.8,1938.51Zm-11.4-15.122h3.975l-.075-4.349h2c-.026,1.4-.026,2.875.025,4.349h5v1.125h-4.972a34.689,34.689,0,0,0,.8,6.473,26.617,26.617,0,0,0,1.776-4.923l1.974.8a34.938,34.938,0,0,1-3,6.324,4.936,4.936,0,0,0,.326.625c1.3,2.174,1.825,1.549,1.749-1.875h.8c1.424,4.449.05,7.473-2.9,4.7a7.572,7.572,0,0,1-1.324-1.7,16.1,16.1,0,0,1-4.149,3.3l-.474-.7a15.63,15.63,0,0,0,3.9-4.174,29.31,29.31,0,0,1-1.4-8.848H1164.5v8.573a21.534,21.534,0,0,0,2.024-1.15l.5.8a21.751,21.751,0,0,1-5.874,3.974l-1.074-2.125a17.707,17.707,0,0,0,2.324-.649Zm8-.35a21.141,21.141,0,0,0-1.074-3.549l.75-.425a13.662,13.662,0,0,1,2.174,3.125Z" fill="#4d4d4d"/>
      <path id="Path_1108" data-name="Path 1108" d="M1198.585,1923.013h-6.349l1.3.525a21.331,21.331,0,0,1-2.925,3.249h6.574v12.7c0,2.525-2.274,3.424-6.247.975l.3-.85c3.026.7,3.7.55,3.7-.875v-6.573h-3.074c-2.5,0-3.048-.725-3.023-2.4l.024-1.85h-2.049c-.3,3.124-2.549,4.424-5.623,5.224l-.375-.825c2.6-1.125,3.648-1.874,3.8-4.4h-3.949v14.047h-2.249v-15.172h5.724a18.308,18.308,0,0,0-1.574-3.474l.349-.3h-6.273v-1.124h11.172c-1.125-.8-2.9-1.85-4-2.525l.3-.85a24.7,24.7,0,0,1,5.524,1.55l-1.1,1.825h10.048Zm-8.224,16.121v-1.274h-5.248v1.674h-2.048v-6.523h9.472v6.123Zm.577-16.121h-7.149a17.09,17.09,0,0,1,2.649,3.1l-1.3.674h4.348A23.269,23.269,0,0,0,1190.938,1923.013Zm-.452,13.722v-2.6h-5.373v2.6Zm4.449-8.823h-4.074v1.775c0,.5.051.7.8.7h3.273Z" fill="#4d4d4d"/>
      <path id="Path_1109" data-name="Path 1109" d="M1223.1,1919.789v22.245h-2.2v-1.25h-15.321v1.325h-2.2v-22.32Zm-17.521,1.125v12.7a14.947,14.947,0,0,0,3.948-4.349h-3.3v-1.05h3.875a14.244,14.244,0,0,0,.7-1.524h-3.85v-1.05h2.075c-.4-.975-1.149-2.475-1.749-3.624l.674-.475a17.19,17.19,0,0,1,2.775,3.124l-1.5.975h1.974a22.126,22.126,0,0,0,.949-4.449l2.225.425a34.654,34.654,0,0,1-1.15,4.024h2.2l-.5-.375a19.078,19.078,0,0,0,1.774-3.649l1.875.924a16.077,16.077,0,0,1-2.824,3.1h3.6v1.05H1212.8c-.226.549-.45,1.049-.7,1.524h8.172v1.05H1216.1a12.644,12.644,0,0,0,4.8,3.049v-11.4Zm15.321,18.745v-6.623l-.9,1.4a12.28,12.28,0,0,1-3.474-3.025,18.17,18.17,0,0,1-.149,2.924c-.25,1.6-2.15,2.15-4.5.3l.226-.675c2.124.675,2.4.35,2.473-.3a14.263,14.263,0,0,0,.076-1.75h-3.724v3.549c0,1.075.15,1.425,1.25,1.55a17.927,17.927,0,0,0,4.174-.025c1.024-.125,1.173-.5,1.274-2.65h.774c.826,3.075.426,4.1-1.5,4.274a35.459,35.459,0,0,1-4.9.076c-2.324-.1-3-.825-3-2.675v-3.749a17.4,17.4,0,0,1-3.149,2.25l-.275-.425v5.573Zm-9.4-10.4a18.036,18.036,0,0,1-1.074,1.524h5.623a14.511,14.511,0,0,1-.949-1.524Z" fill="#4d4d4d"/>
      <path id="Path_1110" data-name="Path 1110" d="M1233.789,1928.112l1-1.2a76.116,76.116,0,0,1,7.623,5.449l-2.3,2.574C1237.862,1932.286,1235.938,1930.362,1233.789,1928.112Z" fill="#4d4d4d"/>
      <path id="Path_1111" data-name="Path 1111" d="M1256.852,1924.638l2.824.825a31.074,31.074,0,0,1-6.674,11.9l-.749-.625A33.229,33.229,0,0,0,1256.852,1924.638Zm5.773,13.547v-19.321h2.4v20.37c0,2.825-2.249,4.049-7.448,1.05l.276-.9C1262.1,1940.284,1262.625,1940.034,1262.625,1938.185Zm4.725-13.122.824-.575a47.418,47.418,0,0,1,6.9,10.7l-2.924,1.325A74.126,74.126,0,0,0,1267.35,1925.063Z" fill="#4d4d4d"/>
      <path id="Path_1112" data-name="Path 1112" d="M1288.837,1936.335l.325.85a40.655,40.655,0,0,1-10.972,4.549l-.8-2.524a65.316,65.316,0,0,0,6.923-1.5v-8.673h-6.223v-1.25h6.223v-8.223h2.3v17.5Zm6.223,4.7c-4.6,0-4.949-.55-4.949-3.9v-17.571h2.3v9.248a26.259,26.259,0,0,0,4.674-4.524l1.975,2.025a35.7,35.7,0,0,1-6.649,3.7v7.048c0,1.6.226,1.825,3.1,1.825,2.45,0,2.55-.4,2.525-5.649h.9C1300.51,1940.009,1300.209,1941.034,1295.06,1941.034Z" fill="#4d4d4d"/>
      <path id="Path_1113" data-name="Path 1113" d="M1325.022,1923.013h-6.349l1.3.525a21.329,21.329,0,0,1-2.924,3.249h6.573v12.7c0,2.525-2.274,3.424-6.249.975l.3-.85c3.023.7,3.7.55,3.7-.875v-6.573H1318.3c-2.5,0-3.05-.725-3.026-2.4l.026-1.85h-2.049c-.3,3.124-2.55,4.424-5.624,5.224l-.375-.825c2.6-1.125,3.649-1.874,3.8-4.4H1307.1v14.047h-2.25v-15.172h5.723a18.25,18.25,0,0,0-1.575-3.474l.351-.3h-6.275v-1.124h11.173c-1.124-.8-2.9-1.85-4-2.525l.3-.85a24.767,24.767,0,0,1,5.524,1.55l-1.1,1.825h10.047Zm-8.223,16.121v-1.274h-5.249v1.674h-2.05v-6.523h9.473v6.123Zm.574-16.121h-7.148a17.137,17.137,0,0,1,2.65,3.1l-1.3.674h4.35A23.177,23.177,0,0,0,1317.373,1923.013Zm-.449,13.722v-2.6h-5.374v2.6Zm4.449-8.823H1317.3v1.775c0,.5.05.7.8.7h3.275Z" fill="#4d4d4d"/>
      <path id="Path_1114" data-name="Path 1114" d="M1349.534,1919.789v22.245h-2.2v-1.25h-15.321v1.325h-2.2v-22.32Zm-17.52,1.125v12.7a14.992,14.992,0,0,0,3.949-4.349h-3.3v-1.05h3.873a14.249,14.249,0,0,0,.7-1.524h-3.848v-1.05h2.074c-.4-.975-1.15-2.475-1.75-3.624l.676-.475a17.146,17.146,0,0,1,2.773,3.124l-1.5.975h1.975a22.049,22.049,0,0,0,.95-4.449l2.224.425a34.859,34.859,0,0,1-1.149,4.024h2.2l-.5-.375a19.015,19.015,0,0,0,1.775-3.649l1.874.924a16.046,16.046,0,0,1-2.825,3.1h3.6v1.05h-6.549c-.224.549-.449,1.049-.7,1.524h8.173v1.05h-4.174a12.639,12.639,0,0,0,4.8,3.049v-11.4Zm15.321,18.745v-6.623l-.9,1.4a12.254,12.254,0,0,1-3.474-3.025,18.127,18.127,0,0,1-.151,2.924c-.25,1.6-2.148,2.15-4.5.3l.224-.675c2.125.675,2.4.35,2.475-.3a14.775,14.775,0,0,0,.074-1.75h-3.724v3.549c0,1.075.15,1.425,1.249,1.55a17.936,17.936,0,0,0,4.175-.025c1.024-.125,1.175-.5,1.274-2.65h.776c.824,3.075.424,4.1-1.5,4.274a35.455,35.455,0,0,1-4.9.076c-2.325-.1-3-.825-3-2.675v-3.749a17.394,17.394,0,0,1-3.149,2.25l-.275-.425v5.573Zm-9.4-10.4a18.047,18.047,0,0,1-1.076,1.524h5.624a14.513,14.513,0,0,1-.95-1.524Z" fill="#4d4d4d"/>
      <path id="Path_1115" data-name="Path 1115" d="M1362.4,1934.66a4.94,4.94,0,0,0,3.175-4,2.575,2.575,0,0,1-.85.125,1.888,1.888,0,0,1-2-2,1.908,1.908,0,0,1,2.024-2c1.524,0,2.524.925,2.524,2.8a5.744,5.744,0,0,1-4.349,5.773Z" fill="#4d4d4d"/>
      <path id="Path_1116" data-name="Path 1116" d="M1400.934,1940.734h-19.071v1.175h-2.2v-22.12h20.545v1.125h-18.346v18.7h19.071Zm-14.572-12.247-1.674,1.45a29.314,29.314,0,0,0-2.124-3.475l.575-.649A12.587,12.587,0,0,1,1386.362,1928.487Zm-3.7,8.923c1.125-2.2,2.05-4.674,2.825-6.624l.85.325a56.086,56.086,0,0,1-1.7,7.249Zm5.2-13.272-1.6,1.6a25.4,25.4,0,0,0-2.474-3.424l.55-.7A16.008,16.008,0,0,1,1387.861,1924.138Zm.726,14.471v-9.4a13.327,13.327,0,0,1-1.4,1.5l-.651-.549a26.217,26.217,0,0,0,3.475-8.773l2.249.775a31.685,31.685,0,0,1-1.35,3.249h3.374a19.653,19.653,0,0,0-1.4-3.075l.724-.524a12.25,12.25,0,0,1,2.6,2.8l-1.249.8h4.5v1.124h-4.024v2.125h3.349v1.075h-3.349v2.324h3.349v1.075h-3.349v2.624h4.249v1.125h-8.948v1.724Zm4.749-12.072h-2.6v2.125h2.6Zm0,3.2h-2.6v2.324h2.6Zm0,3.4h-2.6v2.624h2.6Z" fill="#4d4d4d"/>
      <path id="Path_1117" data-name="Path 1117" d="M1414.074,1939.309l-2.074,1.175a29.3,29.3,0,0,0-1.975-4.474,12.474,12.474,0,0,1-5.324,5.324l-.55-.725a13.938,13.938,0,0,0,4.5-7.948l2.4.625a9.906,9.906,0,0,1-.55,1.724A16.674,16.674,0,0,1,1414.074,1939.309Zm-7.023-18.595H1405v-1.125h12.1v1.125h-1.825v9.448h-2.149v-2.175a39.225,39.225,0,0,1-7.623,1.825l-.425-2.125c.651-.025,1.3-.025,1.975-.075Zm9.272,11.347.075,10h-2.2v-9.848c-3.5.2-6.773.225-8.4.15l-.1-.9c6-.275,12.3-.974,16.071-2.424l2.174,1.85A42.349,42.349,0,0,1,1416.323,1932.061Zm-7.123-9.9h3.924v-1.45H1409.2Zm0,2.6h3.924v-1.475H1409.2Zm0,1.125v1.574c1.175-.1,2.449-.25,3.924-.475v-1.1Zm7-4.849h6.124l.6-.45,1.924.925a12,12,0,0,1-2.674,4.524,20.117,20.117,0,0,0,3.924,1.3l-1.049,2.225a10.522,10.522,0,0,1-4.275-2.225,13.66,13.66,0,0,1-4.824,2.4l-.325-.8a13.646,13.646,0,0,0,4.024-2.7,10.153,10.153,0,0,1-2.174-4.124H1416.2Zm8.074,19.67a24.307,24.307,0,0,0-2.775-4.474,9.049,9.049,0,0,1-4.174,4.749l-.55-.7c2.174-2,2.9-4.674,3.35-7.948l2.4.55c-.175.825-.375,1.574-.6,2.3a19.319,19.319,0,0,1,4.249,4.049Zm-5.974-18.595a7.075,7.075,0,0,0,2.374,3,10.859,10.859,0,0,0,1.675-3Z" fill="#4d4d4d"/>
      <path id="Path_1118" data-name="Path 1118" d="M1440.136,1937.135l-1.725,2.075a24.424,24.424,0,0,0-2.649-2.85,17.843,17.843,0,0,1-6.073,5.724l-.525-.725a18.05,18.05,0,0,0,5.2-6.2c-.649-.524-1.325-1-1.95-1.449l-.5,1.624-1.973-.55a96.838,96.838,0,0,0,2.524-9.447h-2.9l.024-1.125h3.1c.424-2,.775-3.849.949-5.249l2.176.325c-.176,1.175-.526,2.924-.976,4.924h4.2a25.826,25.826,0,0,1-2.35,10.5A21.878,21.878,0,0,1,1440.136,1937.135Zm-5.174-3.349a26.023,26.023,0,0,0,1.774-8.448h-2.149c-.575,2.449-1.249,5.123-1.9,7.4A22.606,22.606,0,0,1,1434.962,1933.786Zm16.52-3.149h-5.248v8.772c0,2.25-2.324,3.924-6.848.775l.3-.85c3.6.95,4.25.725,4.25-.749v-7.948h-5.1v-1.125h5.1v-4.349l1.149.175a17.166,17.166,0,0,0,2.675-3.7h-9.048v-1.125h9.123l.7-.375,2.375,1.6a17.665,17.665,0,0,1-4.674,3.949v3.824h5.248Z" fill="#4d4d4d"/>
      <path id="Path_1119" data-name="Path 1119" d="M1466.973,1923.838v4.1h7.223v8.923c0,2.674-2.724,3.124-6.023.825l.25-.85c3.024.65,3.474.425,3.474-.7v-7.073h-4.924v13.072h-2.35v-13.072H1459.8v10.772h-2.3v-11.9h7.123v-4.1h-9.771v-1.25h11a48.394,48.394,0,0,0-3.6-3.4l.4-.824a21.824,21.824,0,0,1,5.3,2.649l-1.224,1.574h9.972v1.25Z" fill="#4d4d4d"/>
      <path id="Path_1120" data-name="Path 1120" d="M1481.488,1933.236l-.3-.825c7.074-2.124,11.147-6.373,13.072-9.873h-5.174a22.513,22.513,0,0,1-1.775,1.65,12.5,12.5,0,0,1,3.025,2.225l-1.6,1.474a21.382,21.382,0,0,0-2.2-3.074,20.828,20.828,0,0,1-4.149,2.5l-.476-.725a20.126,20.126,0,0,0,7.449-8.022l2.2.949a19.307,19.307,0,0,1-1.449,1.9h4.373l.625-.375,2.05,1.075A23.4,23.4,0,0,1,1481.488,1933.236Zm20.445-2.625c-3.849,7.174-9.324,10.723-19.92,11.523l-.2-.875c8.8-1.325,13.8-4.549,17.2-10.5h-5.073a23.92,23.92,0,0,1-2.675,2.224,15.114,15.114,0,0,1,3.05,2.449l-1.625,1.5a29.046,29.046,0,0,0-2.275-3.349,22.676,22.676,0,0,1-5.748,2.824l-.375-.8a22.332,22.332,0,0,0,9.947-8.847l2.276.949a17.213,17.213,0,0,1-1.5,1.95h4.248l.625-.375Z" fill="#4d4d4d"/>
      <path id="Path_1121" data-name="Path 1121" d="M1511.949,1928.112l1-1.2a76.341,76.341,0,0,1,7.623,5.449l-2.3,2.574C1516.023,1932.286,1514.1,1930.362,1511.949,1928.112Z" fill="#4d4d4d"/>
      <path id="Path_1122" data-name="Path 1122" d="M1537.486,1931.961v10.048h-2.149v-8.8c-1.2.65-2.5,1.275-3.849,1.874l-1-2.424c1.65-.475,3.3-1,4.849-1.575v-5.123h-2.075a17.768,17.768,0,0,1-1.749,4.449l-.8-.375a41.545,41.545,0,0,0,1.3-9.8l2.2.325a37.854,37.854,0,0,1-.675,4.274h1.8v-6.074h2.149v6.074h2.9v1.125h-2.9v4.274a26.518,26.518,0,0,0,2.525-1.225l.45.8A27.72,27.72,0,0,1,1537.486,1931.961Zm15.246-4.849v1.15h-13.871v-1.15h5.8v-3.649h-4.849v-1.125h4.849v-3.424h2.249v3.424h4.875v1.125h-4.875v3.649Zm-3.048,4.424h3.048v1.125h-3.048v6.973c0,2.275-2.151,3.674-6.349.65l.3-.85c3.2.925,3.8.675,3.8-.575v-6.2h-8.423v-1.125h8.423v-2.774h2.25Zm-6.124,6.8c-.675-1.3-1.8-3.125-2.7-4.5l.675-.6a17.692,17.692,0,0,1,3.9,3.749Z" fill="#4d4d4d"/>
      <path id="Path_1123" data-name="Path 1123" d="M1576.1,1924.713c-.226,7.123-.576,10.9-1.25,13.922-.75,3.374-3.975,4.273-8.5.424l.449-.849c3.949,1.449,5.174,1.9,5.749-1a75.166,75.166,0,0,0,1-11.122h-6.4c-.75,7.348-3.224,13.146-10.672,16.046l-.425-.875c5.674-3.2,7.873-8,8.573-15.171h-6.873v-1.375h7c.125-1.8.15-3.774.15-5.874l2.549.075c0,2-.05,3.949-.175,5.8Z" fill="#4d4d4d"/>
      <path id="Path_1124" data-name="Path 1124" d="M1585.412,1928.062c-.1,7-.65,10.5-3.574,14.122l-.726-.55c1.875-3.474,2-5.149,2-17.3v-4.549h18.271v4.9h-15.971v2.249h16.945v1.125h-9.248a17.632,17.632,0,0,1-2.523,3.324c2.4,0,4.873-.125,7.1-.3-.451-.6-.95-1.174-1.425-1.724l.575-.675a18.226,18.226,0,0,1,4.873,3.849l-1.924,1.6a20.186,20.186,0,0,0-1.474-2.225,73.968,73.968,0,0,1-11.648,1.75l-.7-2.375c1.051.05,2.15.1,3.3.1a16.426,16.426,0,0,0,1.274-3.324Zm17.8,11.972v1.125h-18.82v-1.125h8.048v-2.949l-6.149-.025v-1.125l6.149.025v-2.574h2.249v2.574l6.523-.025v1.125l-6.523.025v2.949Zm-17.8-16.471h13.772v-2.649h-13.772Z" fill="#4d4d4d"/>
      <path id="Path_1125" data-name="Path 1125" d="M1615.272,1934.66a4.94,4.94,0,0,0,3.175-4,2.572,2.572,0,0,1-.85.125,1.888,1.888,0,0,1-2-2,1.908,1.908,0,0,1,2.024-2c1.525,0,2.525.925,2.525,2.8a5.745,5.745,0,0,1-4.35,5.773Z" fill="#4d4d4d"/>
      <path id="Path_1126" data-name="Path 1126" d="M835.315,1975.136a45.812,45.812,0,0,1-11,7.323l-1.549-2.649q1.724-.562,3.374-1.2l-.15-17h2.3l.05,16.1a53.518,53.518,0,0,0,6.424-3.3Zm7.648,8.173a30.8,30.8,0,0,0-3.749-6.174c-1.7,3.225-4.674,5.449-9.572,6.874l-.325-.85c7.6-2.974,9.522-7.8,9.522-16v-5.824h2.35v5.349a24.577,24.577,0,0,1-1.45,9.348,22.893,22.893,0,0,1,5.474,5.648Zm-8.722-12.322a49.168,49.168,0,0,0-3.65-6.823l.7-.6a26.01,26.01,0,0,1,5.324,5.9Z" fill="#4d4d4d"/>
      <path id="Path_1127" data-name="Path 1127" d="M868.2,1984.084a20.536,20.536,0,0,1-7.324-4.224,23.057,23.057,0,0,1-9.3,4.274l-.351-.85a21.828,21.828,0,0,0,8.424-4.724,18.6,18.6,0,0,1-3.949-8.323h-.525c-.975,6.049-3.05,10.148-6.9,13.472l-.624-.65c3.8-4.274,5.423-9.823,5.623-19.42h-4.274v-1.25h14.922a68.573,68.573,0,0,1-1.775,6.723h2.224l.625-.525,2.275.9a20.263,20.263,0,0,1-4.849,8.973,21.454,21.454,0,0,0,7.323,2.974Zm-12.872-14.972h4.6a41.873,41.873,0,0,0,1.349-5.473h-5.5Q855.667,1966.6,855.329,1969.112Zm1.374,1.125a15.088,15.088,0,0,0,4.2,7.023,16.2,16.2,0,0,0,3.5-7.023Z" fill="#4d4d4d"/>
      <path id="Path_1128" data-name="Path 1128" d="M885.29,1965.213v2.75h8.523v13.571c0,2.525-2.149,3.35-6.173.85l.25-.875c3.124.75,3.673.525,3.673-.725v-11.7H876.992v14.872h-2.249v-16h8.223v-2.75h-9.773v-1.124h9.773v-3.25h2.349v3.25h9.9v1.124Zm5.549,12.922h-5.524v5h-2.2v-5h-5.349v-1.125h5.349v-2.449h-5.049v-1.125h3.274a19.119,19.119,0,0,0-2-3.574l.675-.6a15.845,15.845,0,0,1,3.4,3.324l-1.274.85h2.9a22.78,22.78,0,0,0,1.7-4.249l2.3,1.125a26.629,26.629,0,0,1-2.824,3.124h4.3v1.125h-5.2v2.449h5.524Z" fill="#4d4d4d"/>
      <path id="Path_1129" data-name="Path 1129" d="M919.125,1966.063v17.746h-2.2v-2.55h-14.8v2.725H899.98v-17.846h2.149v14h6.249v-19.246h2.349v19.246h6.2v-14.072Z" fill="#4d4d4d"/>
      <path id="Path_1130" data-name="Path 1130" d="M945.138,1971.112l-2.275,1.549c-.5-1-1.1-2.1-1.8-3.249a151.361,151.361,0,0,1-15.7,2.25l-.724-2.75c1.149.05,2.3.075,3.474.075a36.739,36.739,0,0,0,4.7-8.373l2.6,1.25a44.262,44.262,0,0,1-5.824,7.123c4-.025,7.949-.275,10.9-.525-.8-1.224-1.675-2.524-2.675-3.849l.725-.624A38.347,38.347,0,0,1,945.138,1971.112Zm-17.8,2.574h14.821v10.323h-2.349v-1.85H929.691v1.825h-2.349Zm2.349,7.323h10.123v-6.2H929.691Z" fill="#4d4d4d"/>
      <path id="Path_1131" data-name="Path 1131" d="M961.152,1965.213v2.75h8.523v13.571c0,2.525-2.15,3.35-6.173.85l.25-.875c3.123.75,3.674.525,3.674-.725v-11.7H952.854v14.872H950.6v-16h8.224v-2.75h-9.773v-1.124h9.773v-3.25h2.349v3.25h9.9v1.124Zm5.549,12.922h-5.524v5h-2.2v-5h-5.348v-1.125h5.348v-2.449h-5.048v-1.125H957.2a19.119,19.119,0,0,0-2-3.574l.674-.6a15.826,15.826,0,0,1,3.4,3.324l-1.274.85h2.9a22.78,22.78,0,0,0,1.7-4.249l2.3,1.125a26.537,26.537,0,0,1-2.824,3.124h4.3v1.125h-5.2v2.449H966.7Z" fill="#4d4d4d"/>
      <path id="Path_1132" data-name="Path 1132" d="M978.316,1969.837c-.1,7.973-1.275,11.422-3.673,14.222l-.726-.55c1.749-3.024,2.149-5.949,2.149-14.122v-5.948h10.4c-1.3-.725-2.675-1.45-3.9-2.025l.226-.875a22.211,22.211,0,0,1,5.673,1.3l-.774,1.6h8.148v1.125H978.316Zm5.449,10.248,2.274,1.2a24.227,24.227,0,0,1-9,2.875l-.274-.875A16.784,16.784,0,0,0,983.765,1980.085Zm12.221-7.648h-17.32v-1.125h17.32Zm-11.771-7.324v1.5h5.273v-1.5h2.1v1.5h3.724v1.125h-3.724v2.5h-9.473v-2.5h-3.3v-1.125h3.3v-1.5Zm-4.475,14.872v-6.4h14.2v6.4Zm2.151-3.824h3.949v-1.525h-3.949Zm0,2.774h3.949v-1.65h-3.949Zm2.324-11.2v1.449h5.273v-1.449Zm3.674,8.423h3.9v-1.525h-3.9Zm0,2.774h3.9v-1.65h-3.9Zm8.422,3.349-1.075,2.175a58.037,58.037,0,0,0-7.123-3.249l.225-.875A33.446,33.446,0,0,1,996.311,1982.284Z" fill="#4d4d4d"/>
      <path id="Path_1133" data-name="Path 1133" d="M1007.828,1974.186a35.638,35.638,0,0,1-7.574,4.549l-1.074-2.349a27.6,27.6,0,0,0,3.423-1v-7.423h-2.974v-1.125h2.974v-5.849h2.151v5.849h2.849v1.125h-2.849v6.6c.949-.4,1.849-.8,2.6-1.2Zm4.549-2.2a10.558,10.558,0,0,1-1.275,1.9h9.947a51.681,51.681,0,0,1-.625,8.223c-.449,2.225-2.649,3.1-6.248.3l.325-.825c2.849.975,3.55.675,3.749-.2a37.355,37.355,0,0,0,.574-6.373h-1.273c-1.475,4.5-5.749,7.423-9.524,8.773l-.424-.8c2.849-1.4,6.5-4.124,7.8-7.973h-1.524c-1.55,3.124-4.9,5.349-8,6.548l-.4-.825a14.413,14.413,0,0,0,6.223-5.723h-1.6a18.233,18.233,0,0,1-4.649,3.4l-.449-.8a14.156,14.156,0,0,0,5.049-5.623h-3.7v-1.125h15.4v1.125Zm7.048-2.675H1008.6v-7.348h10.822Zm-8.723-6.223v1.974h6.623v-1.974Zm6.623,5.1v-2.05H1010.7v2.05Z" fill="#4d4d4d"/>
      <path id="Path_1134" data-name="Path 1134" d="M1033.664,1976.66a4.937,4.937,0,0,0,3.175-4,2.572,2.572,0,0,1-.85.125,1.889,1.889,0,0,1-2-2,1.91,1.91,0,0,1,2.025-2c1.525,0,2.525.925,2.525,2.8a5.744,5.744,0,0,1-4.349,5.773Z" fill="#4d4d4d"/>
      <path id="Path_1135" data-name="Path 1135" d="M1072.6,1979.435l-1.7,2.924a20.466,20.466,0,0,1-8.522-8.723v10.523h-2.4v-10.423a23.744,23.744,0,0,1-9.547,8.6l-.5-.825a26.235,26.235,0,0,0,8.6-9.222h-7.773v-1.375h9.223v-3.949H1052.5v-1.25h7.473v-4.824h2.4v4.824h7.373v1.25h-7.373v3.949h9.271v1.375h-8.822A20.53,20.53,0,0,0,1072.6,1979.435Z" fill="#4d4d4d"/>
      <path id="Path_1136" data-name="Path 1136" d="M1097.387,1979.71l-1.651,2.749a20.716,20.716,0,0,1-8.172-8.348v9.973h-2.3v-9.073a24.178,24.178,0,0,1-9.323,7.5l-.4-.825a27.094,27.094,0,0,0,8.7-8.5l-1.374.95c-.475-1.225-1.025-2.374-1.5-3.324a13.18,13.18,0,0,1-4.374,5.848l-.6-.674a15.121,15.121,0,0,0,3.574-9.423l2.375.45a24.441,24.441,0,0,1-.55,2.5,18.918,18.918,0,0,1,2.8,3.074,12.065,12.065,0,0,0,.674-1.424v-5.3h-8.823v-1.374h8.823v-3.674h2.3v3.674h8.922v1.374h-8.922v6.249c.325.45.649.874.974,1.249a14.785,14.785,0,0,0,2.4-6.848l2.349.6a19.954,19.954,0,0,1-.925,2.549,22.571,22.571,0,0,1,3.675,3.274l-1.75,1.625a36.776,36.776,0,0,0-2.449-3.824,12.1,12.1,0,0,1-2.625,3.424A20.026,20.026,0,0,0,1097.387,1979.71Z" fill="#4d4d4d"/>
      <path id="Path_1137" data-name="Path 1137" d="M1101.028,1969.087l-.624-.674a24.327,24.327,0,0,0,4.049-7.674l2.225.925A23.859,23.859,0,0,1,1101.028,1969.087Zm4.474,1.45v13.772h-2.149v-10.623a21.625,21.625,0,0,1-2.2,2.4l-.649-.65a30.7,30.7,0,0,0,4.8-10l2.224.75A22.042,22.042,0,0,1,1105.5,1970.537Zm11.3,9.448a47.438,47.438,0,0,1-9.823,2.874l-.674-2.3c1.2-.05,2.648-.175,4.123-.35v-7.074h-3.649v-1.124h3.649v-2.875h-1.775a17.265,17.265,0,0,1-1.624,1.7l-.625-.625a25.6,25.6,0,0,0,4.174-9.423l2.4.675c-.1.325-.25.7-.425,1.125a18.749,18.749,0,0,1,3.8,3.2l-1.725,1.5a29.186,29.186,0,0,0-2.5-3.724,26.5,26.5,0,0,1-2.6,4.449h5.5v1.124h-2.5v2.875h3.6v1.124h-3.6v6.8c1.45-.225,2.875-.475,4.049-.775Zm-6.948-1.125-2.026.5a35.3,35.3,0,0,0-.749-4.849l.85-.3A16.02,16.02,0,0,1,1109.852,1978.86Zm4.348-5.124,2.05.7a17.3,17.3,0,0,1-2.449,4.649l-.776-.375A25.457,25.457,0,0,0,1114.2,1973.736Zm8.873-5.024v1.125h-2.249v11.847c0,2.375-2,3.349-5.7,1.05l.275-.85c2.674.725,3.274.425,3.274-.924v-11.123H1115.6v-1.125Zm-.75-4.8H1116v-1.125h6.323Z" fill="#4d4d4d"/>
      <path id="Path_1138" data-name="Path 1138" d="M1131.615,1973.986v7.8c0,2.175-1.724,3.149-5.5.725l.25-.825c2.624.625,3.15.475,3.15-.7v-5.973c-1,.45-1.975.875-2.85,1.175l-.85-2.35c1.15-.225,2.424-.5,3.7-.825v-5.3h-3.475v-1.125h3.475v-5.749h2.1v5.749h2.95v1.125h-2.95v4.7a26.1,26.1,0,0,0,2.5-.875l.326.8C1133.614,1972.887,1132.64,1973.436,1131.615,1973.986Zm13.346,1.225a11.223,11.223,0,0,1-2.023,4.374,25.157,25.157,0,0,1,4.5,2.5l-1.574,2.125a32.459,32.459,0,0,0-4.224-3.275c-2.1,1.775-5.073,2.85-9.047,3.2l-.225-.875c3.7-.7,6.048-1.8,7.6-3.3a27.865,27.865,0,0,0-2.875-1.375c-.4.725-.774,1.375-1.074,1.875l-1.824-.9c.649-1.075,1.548-2.7,2.349-4.349h-3.875v-1.125h4.4a23.366,23.366,0,0,0,1.1-2.749l2.075.675c-.225.625-.525,1.324-.875,2.074h8.723v1.125Zm-2.049-9.923h-9v-1.124h6.674a35.533,35.533,0,0,0-3.449-2.75l.375-.75a17.65,17.65,0,0,1,4.7,1.9l-1.15,1.6h6.048v1.124h-4.074l2.274.9a29.834,29.834,0,0,1-2.748,3.874h5.4v1.125H1133.34v-1.125h4.174a32.3,32.3,0,0,0-1.651-4.1l.8-.45a15.921,15.921,0,0,1,2.974,3.774l-1.45.775h3.2A38.671,38.671,0,0,0,1142.912,1965.288Zm-.325,9.923h-3.749l-1.3,2.549a28.4,28.4,0,0,1,3.425,1.05A11,11,0,0,0,1142.587,1975.211Z" fill="#4d4d4d"/>
      <path id="Path_1139" data-name="Path 1139" d="M1162.4,1978.335l.326.85a40.622,40.622,0,0,1-10.973,4.549l-.8-2.524a65.336,65.336,0,0,0,6.924-1.5v-8.673h-6.224v-1.25h6.224v-8.223h2.3v17.5Zm6.224,4.7c-4.6,0-4.948-.55-4.948-3.9v-17.571h2.3v9.248a26.256,26.256,0,0,0,4.673-4.524l1.975,2.025a35.69,35.69,0,0,1-6.648,3.7v7.048c0,1.6.224,1.825,3.1,1.825,2.449,0,2.549-.4,2.524-5.649h.9C1174.072,1982.009,1173.773,1983.034,1168.624,1983.034Z" fill="#4d4d4d"/>
      <path id="Path_1140" data-name="Path 1140" d="M1186.938,1964.988l2.5.8c-1.776,10.573-6.424,15.8-12.1,18.571l-.525-.85c6.024-4.049,8.723-9.648,9.723-16.771l-4-.05a23.954,23.954,0,0,1-1.7,3.5,15.892,15.892,0,0,1,3.648,2.8l-1.824,1.925a28.4,28.4,0,0,0-2.524-3.674,14.582,14.582,0,0,1-3.124,3.374l-.6-.7c1.975-2.4,4.1-6.3,5.149-13.3l2.548.525a35.445,35.445,0,0,1-1.149,4.424h3.374Zm10,11c-.9-1.525-2.424-3.749-3.749-5.624v13.722h-2.3v-23.145h2.3v7.723a39.232,39.232,0,0,1,5.849,5.4Z" fill="#4d4d4d"/>
      <path id="Path_1141" data-name="Path 1141" d="M1210.251,1975.561a33.011,33.011,0,0,1-7.573,4.049l-.925-2.45c.95-.15,2-.4,3.05-.674v-6.124h-2.625v-1.125h2.625v-5.748h-2.949v-1.125h7.873v1.125H1206.9v5.748h2.424v1.125H1206.9v5.5a27.919,27.919,0,0,0,2.924-1.1Zm14,6.023-1.35,2.3c-2.924-1.25-5.324-3.474-6.1-8.573h-.475a8.376,8.376,0,0,1-1.724,1.649v3.75a28.6,28.6,0,0,0,2.923-.9l.375.825a26.049,26.049,0,0,1-7.5,3.224l-.8-2.25c.949-.1,1.974-.25,3-.45v-2.924a24.664,24.664,0,0,1-5.025,2.1l-.324-.875a16.6,16.6,0,0,0,6.523-4.149h-3.125l-.024-4.324h11.722v4.324h-4.6a9.6,9.6,0,0,0,1.374,3.124,13.627,13.627,0,0,0,2.375-2.649l1.75,1.4a16.978,16.978,0,0,1-3.475,2.025A10.456,10.456,0,0,0,1224.248,1981.584Zm-14.547-13.146h14.071v1.124H1209.7Zm13.147-1.25h-12.6v-5.4h12.6Zm-8.973-4.274H1212.3v3.149h1.574Zm-1.1,11.322h7.449v-2.174h-7.474Zm4.524-11.322h-1.624v3.149h1.624Zm3.5,0h-1.7v3.149h1.7Z" fill="#4d4d4d"/>
      <path id="Path_1142" data-name="Path 1142" d="M1229.34,1965.113c.375,2.2.324,5.849-.325,7.348l-2.275-.849a13.278,13.278,0,0,0,1.7-6.5Zm1.024-4.249h2.15v23.17h-2.15Zm19.146,20.47-1.825,2.75c-2.275-1.35-5.423-4.324-6.523-10.548h-.025c-.776,4.949-3.2,8.248-7.823,10.673l-.5-.75a13.128,13.128,0,0,0,6.024-9.923h-4.949v-1.124h5.074c.1-1.075.149-2.225.149-3.5v-2.4h-3.848v-1.125h3.848v-4.624l2.3.025v4.6h5.223v7.024h2.425v1.124h-7A11.807,11.807,0,0,0,1249.51,1981.334Zm-15.7-10.522a50.011,50.011,0,0,0-1-5.549l.8-.3a17.647,17.647,0,0,1,2.35,5.324Zm7.473,1.6h3.148v-5.9h-3.023v3.1C1241.412,1970.587,1241.361,1971.537,1241.287,1972.412Z" fill="#4d4d4d"/>
      <path id="Path_1143" data-name="Path 1143" d="M1274.947,1980.485l-.625,2.524a101.526,101.526,0,0,1-10.222.175c-3.825-.225-5.248-.775-7.024-3.674a23.694,23.694,0,0,1-3.574,4.649l-1.424-1.475a17.631,17.631,0,0,0,3.774-3.474v-5.624h-3.524v-1.149h5.723v6.573c1.474,2.049,2.9,2.1,6.174,2.174A77.25,77.25,0,0,0,1274.947,1980.485Zm-18.57-9.748c-.825-1.1-2.35-2.874-3.4-3.974l.5-.75a23.371,23.371,0,0,1,4.524,2.875Zm-2.6-9.223.475-.75a20.523,20.523,0,0,1,4.6,2.75l-1.6,1.824A32.978,32.978,0,0,0,1253.777,1961.514Zm10.773,10.723h-4.174v-5.549h5.048v-1.975h-5.873v-1.124h5.873v-2.725h2.2v2.725h6.224v1.124h-6.224v1.975h5.174v5.549h-5.174v.7a29.737,29.737,0,0,1,6.423,3.649l-1.6,2.075a37.206,37.206,0,0,0-4.823-4.474v5.974h-2.2v-5.974a18,18,0,0,1-6.048,4.949l-.5-.8A19.191,19.191,0,0,0,1264.55,1972.237Zm-2.025-1.125h2.9v-3.3h-2.9Zm5.1,0h3.024v-3.3h-3.024Z" fill="#4d4d4d"/>
      <path id="Path_1144" data-name="Path 1144" d="M1300.26,1980.685l-.75,2.449c-2.675.175-6.9.25-9.923.125-5.124-.2-6.548-1.825-7.6-3.774a19.336,19.336,0,0,1-2.9,4.649l-1.625-1.525a17.914,17.914,0,0,0,3.249-3.474v-5.649h-3.024v-1.124h5.273v6.723c1.375,2.049,4.524,2.149,6.749,2.149A94.677,94.677,0,0,0,1300.26,1980.685Zm-18.9-10.073a43.817,43.817,0,0,0-3.473-4l.475-.775a21.27,21.27,0,0,1,4.6,3Zm-2.648-9,.449-.725a17.908,17.908,0,0,1,4.6,2.775l-1.575,1.774A36.652,36.652,0,0,0,1278.715,1961.614Zm11.7,4.2h-6.449v-1.1h4.624c-.675-1.249-1.5-2.624-2.149-3.6l.625-.65a18.184,18.184,0,0,1,3.724,3.35l-1.224.9h3.7a22.3,22.3,0,0,0,1.225-4.249l2.474.75a17.748,17.748,0,0,1-2.624,3.5h5.123v1.1h-6.623a21.6,21.6,0,0,1-1.674,2.475h6.572v11.647h-2.2v-1.325h-7.273v1.4h-2.2v-11.722h3.9A21.673,21.673,0,0,0,1290.412,1965.813Zm5.123,3.6h-7.273v1.85h7.273Zm0,2.924h-7.273v2.025h7.273Zm0,3.1h-7.273v2.049h7.273Z" fill="#4d4d4d"/>
      <path id="Path_1145" data-name="Path 1145" d="M1311.824,1976.66a4.937,4.937,0,0,0,3.175-4,2.572,2.572,0,0,1-.85.125,1.889,1.889,0,0,1-2-2,1.91,1.91,0,0,1,2.025-2c1.525,0,2.525.925,2.525,2.8a5.745,5.745,0,0,1-4.349,5.773Z" fill="#4d4d4d"/>
      <path id="Path_1146" data-name="Path 1146" d="M1350.334,1981.759v1.125h-22.019v-1.125h3.949v-14.271h5.549c.074-.725.174-1.7.25-2.674h-8.774v-1.125h8.873c.075-1.225.151-2.375.175-2.975l2.5.175c-.074.9-.174,1.85-.275,2.8h8.848v1.125h-8.973l-.325,2.674h6.373v14.271Zm-6.1-13.147h-9.721v2.25h9.721Zm0,3.325h-9.721v2.474h9.721Zm0,3.549h-9.721v2.574h9.721Zm0,3.649h-9.721v2.624h9.721Z" fill="#4d4d4d"/>
      <path id="Path_1147" data-name="Path 1147" d="M1376.272,1980.71l-.9,2.4c-2.674.175-6.9.25-9.922.125-5.124-.2-6.549-1.575-7.6-3.524a17.886,17.886,0,0,1-2.9,4.424l-1.524-1.55a16.558,16.558,0,0,0,3.249-3.224v-5.874h-2.924v-1.124h5.073v6.948c1.375,2.049,4.525,1.949,6.749,1.949A97.186,97.186,0,0,0,1376.272,1980.71Zm-22.446-14.1.475-.775a18.574,18.574,0,0,1,4.6,3l-1.6,1.775A35.672,35.672,0,0,0,1353.826,1966.613Zm.926-4.924.449-.725a17.908,17.908,0,0,1,4.6,2.775l-1.575,1.774A36.652,36.652,0,0,0,1354.752,1961.689Zm11.6,15.921h-6.424v-1.124h6.424v-1.85H1361.6v-1.125h4.749v-1.649H1360.4v-1.125h4.174a32,32,0,0,0-1.6-2.8l.349-.325H1360.2v-1.125h6.123v-2.049h-5.173v-1.125h5.173v-2.525h2.2v2.525h5.348v1.125h-5.348v2.049h6.723v1.125h-4.523l1.3.525a13.223,13.223,0,0,1-2.174,2.6h4.773v1.125h-6.073v1.649h4.974v1.125h-4.974v1.85h6.749v1.124h-6.749v3.025h-2.2Zm2.274-6.873a16.354,16.354,0,0,0,1.024-3.124h-5.5a11.46,11.46,0,0,1,2.451,2.349l-1.076.775Z" fill="#4d4d4d"/>
      <path id="Path_1148" data-name="Path 1148" d="M1391.036,1965.213v2.75h8.523v13.571c0,2.525-2.149,3.35-6.173.85l.25-.875c3.124.75,3.674.525,3.674-.725v-11.7h-14.572v14.872h-2.25v-16h8.224v-2.75h-9.772v-1.124h9.772v-3.25h2.348v3.25h9.9v1.124Zm5.549,12.922h-5.525v5h-2.2v-5h-5.347v-1.125h5.347v-2.449h-5.048v-1.125h3.275a19.068,19.068,0,0,0-2-3.574l.675-.6a15.847,15.847,0,0,1,3.4,3.324l-1.275.85h2.9a22.784,22.784,0,0,0,1.7-4.249l2.3,1.125a26.722,26.722,0,0,1-2.824,3.124h4.3v1.125h-5.2v2.449h5.525Z" fill="#4d4d4d"/>
      <path id="Path_1149" data-name="Path 1149" d="M1410.574,1971.662v12.447h-2.148v-10.873a21.579,21.579,0,0,1-4,6.224l-.625-.575a30.475,30.475,0,0,0,4.2-10.148h-3.748v-1.124h4.174v-3.624c-1.375.25-2.725.425-3.875.524l-.174-.849a24.659,24.659,0,0,0,7.973-3.125l1.774,1.95a28.529,28.529,0,0,1-3.55,1.05v4.074h3.55v1.124h-3.55v1.475a26.71,26.71,0,0,1,3.875,3.349l-1.775,1.65C1412.174,1974.236,1411.35,1972.887,1410.574,1971.662Zm12.4,4.224v7.973h-2.2v-7.473c-2.674.6-5.374,1.2-8.047,1.749l-.375-1.125c2.8-.574,5.623-1.174,8.422-1.8v-14.322h2.2v13.822c1.024-.25,2.075-.475,3.1-.725l.3,1.1C1425.246,1975.361,1424.1,1975.636,1422.972,1975.886Zm-8.273-6.549a18.074,18.074,0,0,1,4.6,3.724l-1.9,1.675a39.391,39.391,0,0,0-3.324-4.749Zm3.274-1.174a45.613,45.613,0,0,0-3.5-4.349l.549-.675a18.573,18.573,0,0,1,4.649,3.349Z" fill="#4d4d4d"/>
      <path id="Path_1150" data-name="Path 1150" d="M1450.334,1961.864v22.07h-2.2v-1.475h-15.347v1.525h-2.2v-22.12Zm-2.2,1.125h-15.347v18.345h15.347Zm-14.472,14.7-.3-.85a17.465,17.465,0,0,0,4.824-2.7h-2.873v-4.074h10.247v4.074h-4.7a10.25,10.25,0,0,1-1.7,1.25v2.549c1-.275,1.925-.55,2.624-.775l.35.825a37.5,37.5,0,0,1-7.223,2.85l-.7-1.775c.824-.125,1.85-.35,2.9-.6v-1.974A26.323,26.323,0,0,1,1433.662,1977.685Zm13.672-8.7h-13.822v-1.124h5.849v-1.45h-4.824v-1.125h4.824v-1.649h2.149v1.649h4.849v1.125h-4.849v1.45h5.824Zm-9.922,4.049h6.048v-1.874h-6.048Zm10.172,2.075a14.69,14.69,0,0,1-2.8,1.849,23.5,23.5,0,0,1,2.9,1.95l-1.475,1.749a42.851,42.851,0,0,0-5.649-4.873l.425-.775a30.9,30.9,0,0,1,2.9,1.425,17.279,17.279,0,0,0,2.1-2.525Z" fill="#4d4d4d"/>
      <path id="Path_1151" data-name="Path 1151" d="M1476.5,1981.909c-.75.7-2.25,1.15-4.474,1.25-3.049.125-7.548.1-10.6,0-3.824-.125-5.073-.25-5.073-4.249v-15.421h-1.576v-1.25h21v1.25H1458.65v15.471c0,1.85.2,2.049,2.725,2.149,3.148.125,7.547.15,10.7,0a4.741,4.741,0,0,0,3.373-1.049Zm-16.321-9.5h6.548v6.848h-6.548Zm2.1,5.773h2.349v-4.7h-2.349Zm9.722-7.7h-9.521v-5.424H1472Zm-2.148-4.349h-5.225v3.274h5.225Zm4.948,13.122h-6.7v-6.848h6.7Zm-2.1-5.774h-2.5v4.7h2.5Z" fill="#4d4d4d"/>
      <path id="Path_1152" data-name="Path 1152" d="M1499.309,1981.759c-.475-2.624-.475-5.723-.526-18.4h-6.947v10.547c0,4.274-1.5,8.323-3.075,10.248l-.725-.5a18.056,18.056,0,0,0,1.425-4.049l-1.225.775a29.045,29.045,0,0,0-1.175-2.85,12.4,12.4,0,0,1-2.924,6l-.625-.575a11.26,11.26,0,0,0,1.724-3.9l-1.048.775a25.575,25.575,0,0,0-1-2.525,11.067,11.067,0,0,1-2.825,5.974l-.625-.525c1.45-2.15,1.9-4.649,2.049-8.148h-1.474v-1.05h1.5c.025-.924.025-1.949.025-3.024h1.7c.026,1.125,0,2.124-.025,3.024h2.474c.051-.975.051-2,.026-3.074h1.649c.024,1.075.024,2.1-.024,3.074h2.074v1.05h-2.175c-.05.625-.149,1.225-.25,1.8a12.319,12.319,0,0,1,2.274,2.7,26.561,26.561,0,0,0,.526-5.374v-11.5h10.447c0,6.4,0,12.147.026,13.9a37.551,37.551,0,0,0,.224,4.5c.35,2.074.4.175.3-3h.8C1503.607,1985.408,1499.908,1985.133,1499.309,1981.759Zm-16.072-16.6h-2.848v-1.049h3.023a31.9,31.9,0,0,0,.151-3.3l1.949.074a24.779,24.779,0,0,1-.2,3.225h2.1a27.348,27.348,0,0,0-1.274-2.725l.65-.45a11.244,11.244,0,0,1,2.224,2.55l-1.124.625h1.773v1.049h-3.773a6.079,6.079,0,0,0,4,2.775l-1.076,1.924a6.83,6.83,0,0,1-3.7-4.649c-.6,2.625-2.023,4.274-4.948,5.574l-.35-.75A6.533,6.533,0,0,0,1483.237,1965.163Zm2.175,13.147a26.1,26.1,0,0,0,.5-3.7h-2.449c-.025.525-.051,1-.1,1.45A10.5,10.5,0,0,1,1485.412,1978.31Zm-1.525-8.5.7-.2a10.974,10.974,0,0,1,1.125,2.775l-1.35.349C1484.237,1971.837,1484.037,1970.562,1483.887,1969.812Zm4.874.35a8.41,8.41,0,0,1,1.174,2.424l-1.3.45c-.151-.8-.375-1.874-.551-2.624Zm8.623,6.948a21.579,21.579,0,0,1,1.675,5.449l-1.625.3c-.075-.825-.151-1.625-.25-2.4a25.586,25.586,0,0,1-5.449,1.674l-.475-2a30.171,30.171,0,0,0,3.15-.175v-3.974h-1.875v-7.049h1.875v-2.5h-1.926v-1.05h5.65v1.05h-2.025v2.5h1.95v7.049h-1.975v3.774a9.766,9.766,0,0,0,.975-.175c-.125-.75-.25-1.525-.424-2.3Zm-2.7-2.124v-5.049h-.85v5.049Zm1.224,0h.85v-5.049h-.85Z" fill="#4d4d4d"/>
      <path id="Path_1153" data-name="Path 1153" d="M1527.82,1980.485l-.625,2.524a101.519,101.519,0,0,1-10.222.175c-3.825-.225-5.248-.775-7.024-3.674a23.689,23.689,0,0,1-3.574,4.649l-1.424-1.475a17.627,17.627,0,0,0,3.774-3.474v-5.624H1505.2v-1.149h5.723v6.573c1.474,2.049,2.9,2.1,6.174,2.174A77.248,77.248,0,0,0,1527.82,1980.485Zm-18.57-9.748c-.825-1.1-2.35-2.874-3.4-3.974l.5-.75a23.372,23.372,0,0,1,4.524,2.875Zm-2.6-9.223.475-.75a20.525,20.525,0,0,1,4.6,2.75l-1.6,1.824A32.978,32.978,0,0,0,1506.65,1961.514Zm10.773,10.723h-4.174v-5.549h5.048v-1.975h-5.873v-1.124h5.873v-2.725h2.2v2.725h6.224v1.124H1520.5v1.975h5.174v5.549H1520.5v.7a29.715,29.715,0,0,1,6.423,3.649l-1.6,2.075a37.135,37.135,0,0,0-4.823-4.474v5.974h-2.2v-5.974a18.006,18.006,0,0,1-6.048,4.949l-.5-.8A19.191,19.191,0,0,0,1517.423,1972.237Zm-2.025-1.125h2.9v-3.3h-2.9Zm5.1,0h3.025v-3.3H1520.5Z" fill="#4d4d4d"/>
      <path id="Path_1154" data-name="Path 1154" d="M1553.107,1980.485l-.625,2.524a96.665,96.665,0,0,1-9.972.175c-3.825-.225-5.474-.6-7.248-3.6a21.732,21.732,0,0,1-3.35,4.649l-1.524-1.55a20.423,20.423,0,0,0,3.6-3.4v-5.7h-3.3v-1.149h5.6v6.648c1.475,2.074,3.074,2.024,6.348,2.1A73.629,73.629,0,0,0,1553.107,1980.485Zm-18.7-10c-.825-1.075-2.5-2.974-3.549-4.1l.5-.75a24.373,24.373,0,0,1,4.674,3Zm-2.6-8.973.474-.75a21.477,21.477,0,0,1,4.8,2.925l-1.6,1.824C1534.412,1964.239,1533.012,1962.689,1531.813,1961.514Zm8.747,18.171-2.149-.025v-12.672h6.748c-1.075-.75-2.425-1.65-3.749-2.424l.3-.875a31.613,31.613,0,0,1,3.925,1.3,15.857,15.857,0,0,0,1.949-1.874l-9.1.075v-1.1l9.372-.075.7-.4,2.3,1.55a15.075,15.075,0,0,1-4.048,2.349l.575.3-.775,1.175h4.848v10.222c0,2.7-2.7,2.775-5,1.075l.225-.85c2.349.575,2.625.3,2.625-.874v-1.7h-3.325v4.624h-2.1v-4.6h-3.325Zm0-11.572v2.224h3.325v-2.224Zm3.325,5.673v-2.374h-3.325v2.374Zm5.424-5.673h-3.325v2.224h3.325Zm0,5.673v-2.374h-3.325v2.374Z" fill="#4d4d4d"/>
      <path id="Path_1155" data-name="Path 1155" d="M1576.92,1966.738c-.176,8.2-.65,13.247-1.15,15.046-.525,1.875-2.649,2.874-6.1-.125l.4-.824c2.975,1.074,3.45.924,3.8-.675a75.545,75.545,0,0,0,.775-12.3h-2.15c-.1,7.2-2.125,13.1-7.6,16.321l-.525-.75a13.247,13.247,0,0,0,2.225-2.2,59.589,59.589,0,0,1-9.948,2.1l-.576-2.374c1.526-.075,3.276-.176,5.025-.325v-2.1h-4.4v-1.125h4.4v-1.724h-4.775v-1.125h4.775v-1.575h-4.275v-4.173h4.275v-1.575h-2.7v-3.074h-2.424v-1.125h2.424v-2.224h2.1v2.224h3.6v-2.224h2.1v2.224h2.6v1.125h-2.6v3.074h-2.924v1.575h4.474v4.173h-4.474v1.575h4.749v1.125h-4.749v1.724h4.2v1.125h-4.2v1.925c1.5-.15,2.95-.325,4.249-.525,1.849-3.025,2.625-6.924,2.625-12.072h-2.825v-1.125h2.825v-5.9h2.349v5.9Zm-15.8,5.124v-1.925h-2.2v1.925Zm2.975-5.749v-1.949h-3.6v1.949Zm-.8,5.749h2.348v-1.925H1563.3Z" fill="#4d4d4d"/>
      <path id="Path_1156" data-name="Path 1156" d="M1589.086,1972.437a3.305,3.305,0,0,1,.924-2.375,3.037,3.037,0,0,1,2.275-1,3.379,3.379,0,0,1,0,6.749A3.31,3.31,0,0,1,1589.086,1972.437Zm5.174,0a2.018,2.018,0,0,0-1.975-2.075,2.087,2.087,0,0,0-1.375,3.549,1.8,1.8,0,0,0,1.375.6A2.018,2.018,0,0,0,1594.26,1972.437Z" fill="#4d4d4d"/>
      <path id="Path_1157" data-name="Path 1157" d="M1610.773,1970.312c0,7.648-1.524,11.447-3.923,13.722l-.7-.575c1.9-2.85,2.325-6.849,2.325-13.3v-6.223h10.347a38.153,38.153,0,0,0-4.2-2.525l.25-.875a21.2,21.2,0,0,1,5.623,1.625l-.949,1.775h8.623v1.124h-17.4Zm4.575.45v13.272h-2.2v-9.373a11.956,11.956,0,0,1-1.95,2.1l-.624-.6a26.078,26.078,0,0,0,3.948-10.673l2.4.625A30.123,30.123,0,0,1,1615.348,1970.762Zm13.121-.65v1.125h-3.4v10.5c0,2.375-2.2,3.475-6.449.3l.326-.85c3.349,1.1,3.873.85,3.873-.275v-9.672h-6.347v-1.125h6.347v-4.124h2.25v4.124Zm-9.172,8.473a34.6,34.6,0,0,0-2.175-5.374l.75-.524a16.3,16.3,0,0,1,3.624,4.823Z" fill="#4d4d4d"/>
      <path id="Path_1158" data-name="Path 1158" d="M841.414,2024.834a8.208,8.208,0,0,1-2.075-3,15.2,15.2,0,0,1-6.023,4.149l-.4-.775a14.945,14.945,0,0,0,5.749-5.3,48.357,48.357,0,0,1-1.325-11.7h-4.824v3.9h4.3a70.48,70.48,0,0,1-.125,7.273c-.3,2.4-2.1,2.65-4.474.825l.275-.725c1.7.4,1.949.45,2.124-.35a56.485,56.485,0,0,0,.151-5.9h-2.25v1.275c0,5.248-1.675,8.722-4.724,11.5l-.625-.6c1.875-2.075,2.774-5.124,3.075-8.248a43.449,43.449,0,0,1-7,4.3l-1-2.425a27.869,27.869,0,0,0,2.949-.825v-7.273h-2.625v-1.124h2.625v-6.349l2.149-.025v6.349l2.525.025v1.124l-2.525-.025v6.549c.8-.325,1.6-.675,2.375-1.05l.525.75c.074-.9.125-1.8.125-2.674v-7.4h6.973v-4.249h2.049v4.249h2.8a20.091,20.091,0,0,0-2.049-3.124l.6-.7a18.571,18.571,0,0,1,3.4,2.55l-1.525,1.274h1.675v1.125h-4.874a56.75,56.75,0,0,0,.675,8.873,31.149,31.149,0,0,0,1.9-6.923l2.224.65a26.169,26.169,0,0,1-3.424,9.1,9.375,9.375,0,0,0,1.1,2.3c1.2,1.774,1.724.724,1.724-2.575h.8C845.963,2024.409,844.113,2027.108,841.414,2024.834Z" fill="#4d4d4d"/>
      <path id="Path_1159" data-name="Path 1159" d="M858.216,2013.212v12.8h-2.15v-4.249a38.3,38.3,0,0,1-7.423,2.324l-.65-2.4c.625,0,1.3-.05,2.025-.1v-8.373h-2.4v-1.125h21.92v1.125Zm7.648-2.8H851.342v-6.449h14.522Zm-9.8,2.8h-3.949v1.824h3.949Zm-3.949,4.824h3.949v-1.925h-3.949Zm3.949,2.724v-1.675h-3.949v2.3C853.567,2021.21,854.992,2020.985,856.066,2020.76Zm-2.574-15.7v1.574h10.222v-1.574Zm10.222,4.249v-1.55H853.492v1.55Zm4.924,16.546a15.394,15.394,0,0,1-4.924-3.149,15.225,15.225,0,0,1-4.948,3.174l-.4-.775a16.715,16.715,0,0,0,4.224-3.624,13.22,13.22,0,0,1-2.6-5.7h-1.274v-1.075h6.6l.5-.424,2.174.924a18.5,18.5,0,0,1-3.049,6.124,18.9,18.9,0,0,0,4.949,2.174Zm-5.123-5.674a16.28,16.28,0,0,0,1.849-4.4h-4.5A10.634,10.634,0,0,0,863.515,2020.185Z" fill="#4d4d4d"/>
      <path id="Path_1160" data-name="Path 1160" d="M881.866,2007.913a24.711,24.711,0,0,1-1.675,3.124h11.473v12.522c0,2.675-2.725,3.15-6.8.875l.25-.875c3.7.75,4.249.475,4.249-.8v-2.675h-9.073v5.924h-2.3v-12.022a20,20,0,0,1-5.149,4.3l-.525-.75a24.13,24.13,0,0,0,7.074-9.623h-6.349v-1.375h6.873a31.549,31.549,0,0,0,1.15-4.048l2.5.5a30.849,30.849,0,0,1-1.1,3.549h11.947v1.375Zm-1.575,7.1h9.073v-2.724h-9.073Zm0,3.949h9.073v-2.824h-9.073Z" fill="#4d4d4d"/>
      <path id="Path_1161" data-name="Path 1161" d="M902.542,2008.913v17.046h-2.1v-13.172a17,17,0,0,1-2.9,3.424l-.649-.625a30.8,30.8,0,0,0,5.173-13.072l2.425.6A30.9,30.9,0,0,1,902.542,2008.913Zm6.474,12.947,2.174,1.35a23.328,23.328,0,0,1-7.723,3.124l-.25-.85A16.438,16.438,0,0,0,909.016,2021.86Zm5.573-16.371v1.624h4.124v4.674h-14v-4.674h4.073v-1.624h-4.3v-1.125h14.721v1.125Zm-8.822,16.071v-8.573h11.772v8.573Zm1.049-10.848h1.974v-2.524h-1.974Zm1.05,4.749h7.523v-1.4h-7.523Zm0,2.475h7.523v-1.475h-7.523Zm0,2.549h7.523v-1.55h-7.523Zm4.724-15h-1.8v1.624h1.8Zm-1.8,5.223h1.8v-2.524h-1.8Zm8.873,13.672-1.225,2.075a49.348,49.348,0,0,0-5.773-3.5l.274-.875A26.823,26.823,0,0,1,919.663,2024.384Zm-5.074-16.2v2.524h2.025v-2.524Z" fill="#4d4d4d"/>
      <path id="Path_1162" data-name="Path 1162" d="M927.567,2009.413v16.546h-2.15v-12.722a20.671,20.671,0,0,1-2.474,2.924l-.65-.625a30.071,30.071,0,0,0,4.774-12.947l2.474.525A31.834,31.834,0,0,1,927.567,2009.413Zm17.046,14.6v1.125H928.592v-1.125h2.274v-14.271h3.849c.125-.85.275-1.825.4-2.8h-5.548v-1.124h5.7c.15-1.05.275-2.1.375-2.975l2.325.25c-.151,1-.3,1.9-.4,2.725h6.1v1.124H937.39c-.125,1-.25,1.925-.4,2.8h5.249v14.271Zm-4.424-13.147h-7.373v2.325h7.373Zm0,3.375h-7.373v2.474h7.373Zm0,3.524h-7.373v2.549h7.373Zm0,3.6h-7.373v2.649h7.373Z" fill="#4d4d4d"/>
      <path id="Path_1163" data-name="Path 1163" d="M952.492,2007.588h4.524v17.421h-2.2v-2.275h-4.3v2.75h-2.2v-17.9h2.974a48.392,48.392,0,0,0,.775-5.023l2.7.574A29.841,29.841,0,0,1,952.492,2007.588Zm2.324,1.125h-4.3v5.524h4.3Zm0,12.9v-6.249h-4.3v6.249Zm13.922-13.972c-.05,8.748-.2,12.947-.6,15.322-.551,3.249-3.475,4.173-8.174.125l.425-.8c4.024,1.624,5.149,1.749,5.473-.275.226-1.45.526-4.774.551-13.247h-5.249a23.666,23.666,0,0,1-3.3,5.823l-.725-.549a36.316,36.316,0,0,0,3.074-11.4l2.625.525a31.754,31.754,0,0,1-1.25,4.474Zm-6.074,11.4a45.042,45.042,0,0,0-2.849-6.448l.725-.575a21.626,21.626,0,0,1,4.4,5.749Z" fill="#4d4d4d"/>
      <path id="Path_1164" data-name="Path 1164" d="M994.788,2023.759l-1.075,2.5c-5.723-.775-8.8-3.2-9.822-6.574-1.05,3.525-3.674,6.124-11.5,6.624l-.15-.9c7-.825,9.572-3.524,9.747-8.748h1.675a11.535,11.535,0,0,0,4.023-3.824l-1.6.025c-1.25,1.775-4.6,3.549-6.848,4.174l-.3-.75c1.5-.65,3.825-1.874,4.924-3.424h-1.574a16.432,16.432,0,0,1-4.148,2.249l-.327-.7a11.6,11.6,0,0,0,4.275-3.55h-3.573v-1.049h16.169v1.049H984.365a8.2,8.2,0,0,1-.9,1h10.072a22.227,22.227,0,0,1-.725,4.674c-.724,1.674-3.1,1.425-5.149-.2l.3-.75c2.274.575,2.724.6,2.949-.175a15.993,15.993,0,0,0,.375-2.574h-1.475c-.95,1.824-3.649,3.6-5.523,4.424v.925C985.19,2021.96,988.715,2023.334,994.788,2023.759Zm-22.1-16.945.4-.7a17.075,17.075,0,0,1,4.148,2.2l-1.25,1.675A32.332,32.332,0,0,0,972.693,2006.814Zm4.3,3.674.725.374a29.139,29.139,0,0,1-3.1,6.449l-1.6-1.325A34.723,34.723,0,0,0,976.992,2010.488Zm-2.149-7.124.425-.65a12.927,12.927,0,0,1,4,2.175l-1.3,1.624A28.726,28.726,0,0,0,974.843,2003.364Zm1.024,14.6.575-.625a18.955,18.955,0,0,1,3.95,3.174l-1.65,1.5A44.65,44.65,0,0,0,975.867,2017.961Zm16.071-9.073H981.092v-5.049h10.846Zm-2.1-4.049h-6.649v1.025h6.649Zm0,1.975h-6.649v1.074h6.649Zm.074,11.072,1.875,1.4a21.368,21.368,0,0,1-4.649,2.475l-.451-.725A18.936,18.936,0,0,0,989.914,2017.886Z" fill="#4d4d4d"/>
      <path id="Path_1165" data-name="Path 1165" d="M1020.038,2010.587l-1.45,2.45a23.1,23.1,0,0,1-9.723-7.748,27.417,27.417,0,0,1-11.322,8.373l-.4-.825a23.886,23.886,0,0,0,10.247-10.347l2.75,1.024q-.337.525-.676.975A22.5,22.5,0,0,0,1020.038,2010.587Zm-10.323,13.247h8.773v1.375h-19.82v-1.375h8.648v-7.548h-7.7v-1.125h7.7v-3.324l-4.048-.025v-1.124l10.6.024v1.125h-4.149v3.324h7.724v1.125h-7.724Zm-3.724-1.824-2.249,1.249a50.6,50.6,0,0,0-2.625-5.673l.7-.575A29.633,29.633,0,0,1,1005.991,2022.01Zm4.8.675a29.7,29.7,0,0,0,3-5.674l2.35,1.375a27.676,27.676,0,0,1-4.7,4.9Z" fill="#4d4d4d"/>
      <path id="Path_1166" data-name="Path 1166" d="M1045.188,2023.109l-1.825,2.85c-2.4-1.1-7.7-5.849-9-14.6-1.3,7.6-6.1,12.7-11.5,14.772l-.45-.85c4.35-2.474,8.248-6.574,9.424-14.4h-8.6v-1.375h8.773c.05-.575.1-1.175.125-1.775.075-1.525.1-3.324.125-4.974l2.549.075c0,1.975-.049,3.774-.149,5.7l-.076.975h9.424v1.375h-8.8A17.81,17.81,0,0,0,1045.188,2023.109Z" fill="#4d4d4d"/>
      <path id="Path_1167" data-name="Path 1167" d="M1070.088,2022.685l-.75,2.449c-2.674.175-6.9.25-9.922.125-5.124-.2-6.549-1.825-7.6-3.774a19.368,19.368,0,0,1-2.9,4.649l-1.625-1.525a17.919,17.919,0,0,0,3.25-3.474v-5.649h-3.024v-1.124h5.273v6.723c1.375,2.049,4.524,2.149,6.749,2.149A94.673,94.673,0,0,0,1070.088,2022.685Zm-18.9-10.073a43.969,43.969,0,0,0-3.473-4l.474-.775a21.252,21.252,0,0,1,4.6,3Zm-2.649-9,.45-.725a17.9,17.9,0,0,1,4.6,2.775l-1.574,1.774A36.559,36.559,0,0,0,1048.543,2003.614Zm11.7,4.2h-6.448v-1.1h4.624c-.676-1.249-1.5-2.624-2.15-3.6l.625-.65a18.133,18.133,0,0,1,3.724,3.35l-1.224.9h3.7a22.377,22.377,0,0,0,1.225-4.249l2.474.75a17.747,17.747,0,0,1-2.625,3.5h5.124v1.1h-6.624a21.337,21.337,0,0,1-1.674,2.475h6.574v11.647h-2.2v-1.325h-7.273v1.4h-2.2v-11.722h3.9A21.458,21.458,0,0,0,1060.24,2007.813Zm5.124,3.6h-7.273v1.85h7.273Zm0,2.924h-7.273v2.025h7.273Zm0,3.1h-7.273v2.049h7.273Z" fill="#4d4d4d"/>
      <path id="Path_1168" data-name="Path 1168" d="M1081.366,2018.66a4.94,4.94,0,0,0,3.175-4,2.578,2.578,0,0,1-.851.125,1.888,1.888,0,0,1-2-2,1.909,1.909,0,0,1,2.025-2c1.524,0,2.524.925,2.524,2.8a5.745,5.745,0,0,1-4.349,5.773Z" fill="#4d4d4d"/>
      <path id="Path_1169" data-name="Path 1169" d="M1100.742,2020.285v1.4h-2.324v-7.773h8.923v-2.1h-7.4v-6h7.4v-3h2.349v3h7.474v6h-7.474v2.1h9.048v7.773h-2.3v-1.4h-6.75v5.874h-2.349v-5.874Zm6.6-5.249h-6.6v4.124h6.6Zm0-8.1h-5.149v3.75h5.149Zm7.573,0h-5.224v3.75h5.224Zm1.526,8.1h-6.75v4.124h6.75Z" fill="#4d4d4d"/>
      <path id="Path_1170" data-name="Path 1170" d="M1144.913,2022.435l-.875,2.649c-3.149.2-6.124.225-9.272.125-5.524-.175-8-2.1-9.074-4.949a11.8,11.8,0,0,1-2.549,5.7l-.774-.5c1.249-2.425,1.849-5.649,1.674-11.3l2.149.049a39.855,39.855,0,0,1-.224,4.425,8.555,8.555,0,0,0,1.848,2.649v-8.973h-4.9v-1.1h4.725v-3.349h-4.125v-1.075h4.125v-3.924h2.2v3.924h3.624v1.075h-3.624v3.349h4.273v1.1h-4.1v3.649h3.649v1.075h-3.649v5.5a15.524,15.524,0,0,0,4.749.525A71.244,71.244,0,0,0,1144.913,2022.435Zm-10.4-4.724v-12.9h8.072v8.848h-2.1v-1.2h-3.824v4.924c0,1.425.1,1.574,1.3,1.7a11.644,11.644,0,0,0,2.8,0c1.325-.15,1.55-.4,1.474-3.924h.826c1.524,4.974.724,5.6-2.025,5.824a20.46,20.46,0,0,1-3.5.025C1135.115,2020.81,1134.516,2020.31,1134.516,2017.711Zm2.149-6.349h3.824v-5.473h-3.824Z" fill="#4d4d4d"/>
      <path id="Path_1171" data-name="Path 1171" d="M1159.791,2007.838v4.1h7.223v8.923c0,2.674-2.725,3.124-6.024.825l.25-.85c3.024.65,3.475.425,3.475-.7v-7.073h-4.924v13.072h-2.35v-13.072h-4.824v10.772h-2.3v-11.9h7.123v-4.1h-9.773v-1.25h11a48.588,48.588,0,0,0-3.6-3.4l.4-.824a21.878,21.878,0,0,1,5.3,2.649l-1.225,1.574h9.973v1.25Z" fill="#4d4d4d"/>
      <path id="Path_1172" data-name="Path 1172" d="M1176.192,2011.687l.9.125a21.768,21.768,0,0,1-1.949,9.673l-2.725-1.5A17.223,17.223,0,0,0,1176.192,2011.687Zm3,9.9v-13.4h2.4v12.922c0,1.3.25,1.6,1.648,1.7a19.034,19.034,0,0,0,3.151,0c1.824-.151,2.148-.55,2.124-5.3h.95c1.749,5.7,1.124,7.2-2.275,7.523a24.983,24.983,0,0,1-4.325,0C1179.867,2024.809,1179.191,2024.659,1179.191,2021.585Zm1.125-18.046.475-.875a24.344,24.344,0,0,1,7.623,4.274l-1.974,2.25A36.055,36.055,0,0,0,1180.316,2003.539Zm8.823,7.823.826-.5a29.8,29.8,0,0,1,5.073,8.073l-2.774,1.15A50.341,50.341,0,0,0,1189.139,2011.362Z" fill="#4d4d4d"/>
      <path id="Path_1173" data-name="Path 1173" d="M1199.193,2010.263h-1.724v-.9h1.924c.2-.975.349-1.925.5-2.874a14.023,14.023,0,0,1-1.8,1.524l-.5-.575a14.812,14.812,0,0,0,2.648-4.873l2,.6c-.2.375-.4.7-.6,1.025h8.547v1.05h-9.248a12.168,12.168,0,0,1-.874,1.05h8.047c-.049.749-.125,1.849-.25,3.024h2.2v.95h-2.274c-.1.7-.176,1.4-.275,2.024h2.224v.95h-2.4l-.075.3c-.424,1.7-2.075,2.049-4.3.85l.2-.7c1.85.3,2.175.225,2.374-.45h-5.2c-.1.325-.175.625-.275.925l-1.825-.35C1198.594,2012.637,1198.918,2011.437,1199.193,2010.263Zm6.848,12.547a27.916,27.916,0,0,1-8.048,3.074l-.274-.85a20.576,20.576,0,0,0,6.548-3.674Zm3.85-2.2v3.649c0,2.05-1.776,2.849-5.424.775l.25-.875c2.724.625,3.023.375,3.023-.5v-2.849c-3.074.275-6.2.475-8.547.55l-.6-1.925c1.474.075,3.049.125,4.648.15a32.791,32.791,0,0,0,5.424-2.4c-2.15.325-4.424.525-6.849.65l-.475-1.8c1.225.125,2.474.2,3.724.25a16.126,16.126,0,0,0,3.3-2.774l1.651,1.175a20.109,20.109,0,0,1-3.2,1.624c1.2,0,2.374-.025,3.474-.1a20.056,20.056,0,0,0,2.374-1.75l1.926,1.1a31.914,31.914,0,0,1-8.8,4c3.274-.05,6.524-.225,9.274-.475-.526-.524-1.051-1-1.526-1.4l.5-.75a23.433,23.433,0,0,1,4.774,3.024l-1.475,1.7a17.749,17.749,0,0,0-1.574-1.85C1214.114,2020.11,1212.04,2020.385,1209.891,2020.61Zm-3.9-10.347h-4.948c-.15.674-.3,1.349-.475,2.024h3.449c-.675-.45-1.55-.925-2.224-1.3l.149-.549a13.464,13.464,0,0,1,3.075.849l-.55,1h1.274C1205.816,2011.712,1205.916,2010.987,1205.991,2010.263Zm-4.774-.925h3.525c-.725-.4-1.676-.875-2.4-1.225l.15-.575a12.321,12.321,0,0,1,3,.725l-.524,1.075h1.1c.075-.75.125-1.5.175-2.1h-4.624C1201.492,2007.913,1201.367,2008.613,1201.217,2009.338Zm8.023-.725a14.578,14.578,0,0,0,2.325-5.849l1.9.475a16.551,16.551,0,0,1-.75,1.95h6v1.05h-1.824a9.733,9.733,0,0,1-2.025,4.7,13.42,13.42,0,0,0,4.3,1.95l-1.024,1.974a11.3,11.3,0,0,1-4.324-2.774,10.722,10.722,0,0,1-3.8,2.35l-.4-.7a10.688,10.688,0,0,0,3.325-2.725,9.73,9.73,0,0,1-1.525-3.6,9.692,9.692,0,0,1-1.624,1.725Zm2.125,12.372a23.748,23.748,0,0,1,7.6,3.049l-1.274,1.875a35.818,35.818,0,0,0-6.649-4.124Zm.85-14.8c-.1.2-.225.375-.325.549a7.571,7.571,0,0,0,1.8,3.175,9.229,9.229,0,0,0,1.2-3.7Z" fill="#4d4d4d"/>
      <path id="Path_1174" data-name="Path 1174" d="M1240.039,2014.062v3.124h3.674v1.125h-9.023v2.249h8.048v1.125h-8.048v4.349h-2.3v-4.349h-7.873v-1.125h7.873v-2.249h-8.8v-1.125h3.648v-3.124h-4.624v-1.125h4.624v-2.824h-3.1v-1.125h19.121v1.125h-3.225v2.824h4.624v1.125Zm-11.223-7.873h-5.8v-1.125h5.8v-2.275h2.2v2.275h5.149v-2.275h2.2v2.275h5.948v1.125h-5.948v2.174h-2.2v-2.174h-5.149v2.174h-2.2Zm.526,3.924v2.824h3.049v-2.824Zm3.049,7.073v-3.124h-3.049v3.124Zm2.3-7.073v2.824h3.25v-2.824Zm3.25,7.073v-3.124h-3.25v3.124Z" fill="#4d4d4d"/>
      <path id="Path_1175" data-name="Path 1175" d="M1256.366,2018.66a4.94,4.94,0,0,0,3.175-4,2.578,2.578,0,0,1-.851.125,1.888,1.888,0,0,1-2-2,1.909,1.909,0,0,1,2.025-2c1.524,0,2.524.925,2.524,2.8a5.745,5.745,0,0,1-4.349,5.773Z" fill="#4d4d4d"/>
      <path id="Path_1176" data-name="Path 1176" d="M1291.814,2025.284a17.406,17.406,0,0,1-4.249.05c-2.45-.2-3.3-.625-3.3-2.55v-5.423h-1.651c-.4,3.349-2.3,7.373-9.771,9.023l-.351-.85c5.4-1.7,7.448-5.2,7.774-8.173h-4.2v-13.522h14.572v13.522h-4.074v4.624c0,1,.375,1.174,1.5,1.249a14.575,14.575,0,0,0,2.75-.024c1.449-.125,1.773-.5,1.724-4.849h.9C1294.488,2023.009,1294.613,2025.034,1291.814,2025.284Zm-13.5-17.371h10.074v-2.949h-10.074Zm0,4.149h10.074v-3.024h-10.074Zm0,4.174h10.074v-3.049h-10.074Z" fill="#4d4d4d"/>
      <path id="Path_1177" data-name="Path 1177" d="M1305.741,2008.388h-8.3v-1.125h4c-.874-1.449-1.949-3.124-2.574-3.974l.625-.65a20.617,20.617,0,0,1,3.974,3.25l-1.625,1.374h3.9Zm-7.4,5.474h6.6v1.049h-6.6Zm6.623-3.3v1.074h-6.6v-1.074Zm-6.574,6.748h6.5v8.2h-1.951v-1.325h-2.6v1.675h-1.95Zm1.95,5.723h2.6v-4.6h-2.6Zm9.548-17.57h-4.524v-1.125h4.424l.424-.45,1.75.675c-.1-.575-.175-1.2-.225-1.825l.875-.1a14.108,14.108,0,0,0,1.124,3.624,20.4,20.4,0,0,0,1.951-2.774l1.548,1.3a19.892,19.892,0,0,1-3.048,2.324,9.445,9.445,0,0,0,1.1,1.6,19.576,19.576,0,0,0,2.3-2.524l1.5,1.349a18.656,18.656,0,0,1-3.148,1.875,14.949,14.949,0,0,0,3.8,2.6l-1.525,2.125a16.3,16.3,0,0,1-2.549-2.175h-7.348a18.008,18.008,0,0,1-2.949,2.125l-.5-.775a12.938,12.938,0,0,0,3.549-3.849,19.124,19.124,0,0,0-2.4-2.375l.4-.724a13.9,13.9,0,0,1,2.824,1.4A13.88,13.88,0,0,0,1309.891,2005.464Zm4.074,18.645h5.248v1.15h-13.9v-1.15h3.624c-.524-1.3-1.075-2.6-1.749-3.924l.725-.575a15.92,15.92,0,0,1,3.274,3.674l-1.325.825h2.8a29.045,29.045,0,0,0,1.725-4.474l2.375,1.1A18.4,18.4,0,0,1,1313.965,2024.109Zm-7.3-9.822h10.248v5.2h-10.248Zm2.05,4.074h6.124v-2.95h-6.124Zm.675-7.524h5.324a14.215,14.215,0,0,1-2.6-5.6A13.15,13.15,0,0,1,1309.391,2010.837Z" fill="#4d4d4d"/>
      <path id="Path_1178" data-name="Path 1178" d="M1343.988,2013.112l-2.274,1.549c-.5-1-1.1-2.1-1.8-3.249a151.437,151.437,0,0,1-15.7,2.25l-.725-2.75c1.15.05,2.3.075,3.474.075a36.709,36.709,0,0,0,4.7-8.373l2.6,1.25a44.272,44.272,0,0,1-5.825,7.123c4-.025,7.95-.275,10.9-.525-.8-1.224-1.676-2.524-2.675-3.849l.725-.624A38.307,38.307,0,0,1,1343.988,2013.112Zm-17.8,2.574h14.822v10.323h-2.35v-1.85h-10.122v1.825h-2.35Zm2.35,7.323h10.122v-6.2h-10.122Z" fill="#4d4d4d"/>
      <path id="Path_1179" data-name="Path 1179" d="M1359.715,2007.213v2.75h8.523v13.571c0,2.525-2.149,3.35-6.173.85l.25-.875c3.125.75,3.673.525,3.673-.725v-11.7h-14.57v14.872h-2.25v-16h8.223v-2.75h-9.773v-1.124h9.773v-3.25h2.349v3.25h9.9v1.124Zm5.549,12.922h-5.524v5h-2.2v-5h-5.349v-1.125h5.349v-2.449h-5.049v-1.125h3.275a19.119,19.119,0,0,0-2-3.574l.673-.6a15.854,15.854,0,0,1,3.4,3.324l-1.275.85h2.9a22.709,22.709,0,0,0,1.7-4.249l2.3,1.125a26.8,26.8,0,0,1-2.824,3.124h4.3v1.125h-5.2v2.449h5.524Z" fill="#4d4d4d"/>
      <path id="Path_1180" data-name="Path 1180" d="M1377.492,2007.588h4.524v17.421h-2.2v-2.275h-4.3v2.75h-2.2v-17.9h2.975a48.652,48.652,0,0,0,.774-5.023l2.7.574A29.835,29.835,0,0,1,1377.492,2007.588Zm2.324,1.125h-4.3v5.524h4.3Zm0,12.9v-6.249h-4.3v6.249Zm13.922-13.972c-.049,8.748-.2,12.947-.6,15.322-.551,3.249-3.475,4.173-8.174.125l.426-.8c4.023,1.624,5.148,1.749,5.472-.275.226-1.45.526-4.774.551-13.247h-5.249a23.61,23.61,0,0,1-3.3,5.823l-.724-.549a36.317,36.317,0,0,0,3.074-11.4l2.625.525a31.746,31.746,0,0,1-1.25,4.474Zm-6.074,11.4a45.035,45.035,0,0,0-2.849-6.448l.725-.575a21.631,21.631,0,0,1,4.4,5.749Z" fill="#4d4d4d"/>
      <path id="Path_1181" data-name="Path 1181" d="M1420.163,2022.609l-.9,2.45c-2.675.175-6.674.25-9.7.125-5.124-.2-6.547-1.4-7.6-3.349a17.883,17.883,0,0,1-2.974,4.4l-1.55-1.5a17.168,17.168,0,0,0,3.35-3.249v-6h-2.975v-1.124h5.123v7.073c1.375,2.049,4.525,1.749,6.749,1.775A82.478,82.478,0,0,0,1420.163,2022.609Zm-22.319-14.121.474-.775a19.333,19.333,0,0,1,4.6,3l-1.6,1.775A35.748,35.748,0,0,0,1397.844,2008.488Zm1.349-4.9.5-.774a17.885,17.885,0,0,1,4.6,2.774l-1.575,1.774A43.653,43.653,0,0,0,1399.193,2003.589Zm7.7,18.471h-2.049v-11.223h1.924v-6.723h9.948v6.723h1.925v9.323c0,2-1.7,3.05-5.074.95l.275-.8c2.424.475,2.648.225,2.648-.725v-7.623h-9.6Zm6.324-2.775v-1.049h-3.1v1.524h-1.8v-6.273h6.749v5.8Zm-4.449-8.448h1.824v-3.749h4.074v-1.849h-5.9Zm4.449,6.274v-2.5h-3.1v2.5Zm1.449-6.274v-2.624h-2.274v2.624Z" fill="#4d4d4d"/>
      <path id="Path_1182" data-name="Path 1182" d="M1429.142,2021.81a92.815,92.815,0,0,0,10.048-.775,43.312,43.312,0,0,0-2.65-3.824l.675-.6a29.275,29.275,0,0,1,6.948,7.423l-2.574,1.65a32.607,32.607,0,0,0-1.85-3.749,99.03,99.03,0,0,1-14.846,2.824l-.825-2.949c1.225.025,2.45.05,3.674.025a25.776,25.776,0,0,0,3.725-7.273h-8.3v-1.125h9.273v-5h-7.473v-1.125h7.473v-4.4h2.4v4.4h7.674v1.125h-7.674v5h9.4v1.125h-9.7A24.553,24.553,0,0,1,1429.142,2021.81Z" fill="#4d4d4d"/>
      <path id="Path_1183" data-name="Path 1183" d="M1455.066,2019.91l2.525,1.35a25.9,25.9,0,0,1-9.947,5.049l-.351-.85A21.823,21.823,0,0,0,1455.066,2019.91Zm14.622-.25h-22.094v-1.125h2.124c-.125-4.8-.3-8.9-.55-13.746l2.024.275a16.81,16.81,0,0,0,2.825-2.475l1.825,1.65a23.532,23.532,0,0,1-4.4,1.875l.076,2.774h3.249v1.05h-3.2c.025,1.124.05,2.274.1,3.4h3.148v1.05h-3.124c.05,1.374.076,2.774.125,4.148h3.2c.325-2.224.524-3.874.75-6.173l2.1.375c-.224,2.2-.424,3.7-.749,5.8h2.025c.2-2.174.4-5.4.549-7.748h-2.174c-.05.35-.125.675-.175,1l-2.05-.275c.426-2.749.85-5.948,1.125-8.7l2.1.249c-.075.9-.2,1.9-.325,2.925h4.024v1.124h-4.174c-.1.85-.225,1.725-.35,2.575h4.224c-.149,2.524-.4,6.4-.649,8.847h3.8l.25-3.924h-2.776v-1.049h2.825l.225-3.374h-2.949v-1.05h3.024l.225-3.649h-3.3v-1.125h5.449l-.875,14.171h2.524Zm.35,4.224-1.649,2.45a44.6,44.6,0,0,0-8.049-5.349l.35-.85A34.213,34.213,0,0,1,1470.038,2023.884Z" fill="#4d4d4d"/>
      <path id="Path_1184" data-name="Path 1184" d="M1495.013,2021.435l-1.7,2.924a20.463,20.463,0,0,1-8.523-8.723v10.523h-2.4v-10.423a23.743,23.743,0,0,1-9.547,8.6l-.5-.825a26.236,26.236,0,0,0,8.6-9.222h-7.773v-1.375h9.223v-3.949h-7.473v-1.25h7.473v-4.824h2.4v4.824h7.373v1.25h-7.373v3.949h9.272v1.375h-8.823A20.531,20.531,0,0,0,1495.013,2021.435Z" fill="#4d4d4d"/>
      <path id="Path_1185" data-name="Path 1185" d="M1519.514,2021.71l-1.651,2.749a20.724,20.724,0,0,1-8.173-8.348v9.973h-2.3v-9.073a24.185,24.185,0,0,1-9.323,7.5l-.4-.825a27.092,27.092,0,0,0,8.7-8.5l-1.374.95c-.475-1.225-1.025-2.374-1.5-3.324a13.18,13.18,0,0,1-4.374,5.848l-.6-.674a15.121,15.121,0,0,0,3.574-9.423l2.375.45a24.7,24.7,0,0,1-.55,2.5,18.913,18.913,0,0,1,2.8,3.074,12.083,12.083,0,0,0,.674-1.424v-5.3h-8.823v-1.374h8.823v-3.674h2.3v3.674h8.923v1.374h-8.923v6.249c.326.45.65.874.975,1.249a14.785,14.785,0,0,0,2.4-6.848l2.349.6a19.936,19.936,0,0,1-.925,2.549,22.571,22.571,0,0,1,3.675,3.274l-1.75,1.625a36.776,36.776,0,0,0-2.449-3.824,12.1,12.1,0,0,1-2.625,3.424A20.027,20.027,0,0,0,1519.514,2021.71Z" fill="#4d4d4d"/>
      <path id="Path_1186" data-name="Path 1186" d="M1530.467,2014.437a3.305,3.305,0,0,1,.924-2.375,3.037,3.037,0,0,1,2.275-1,3.379,3.379,0,0,1,0,6.749A3.31,3.31,0,0,1,1530.467,2014.437Zm5.174,0a2.018,2.018,0,0,0-1.975-2.075,2.087,2.087,0,0,0-1.375,3.549,1.8,1.8,0,0,0,1.375.6A2.018,2.018,0,0,0,1535.641,2014.437Z" fill="#4d4d4d"/>
    </g>
    <g id="Group_1004" data-name="Group 1004">
      <path id="Path_1386" data-name="Path 1386" d="M296.608,1933.672c0,12.238-2.439,18.317-6.278,21.956l-1.12-.92c3.039-4.559,3.719-10.958,3.719-21.276v-9.959h16.557a61.156,61.156,0,0,0-6.718-4.039l.4-1.4a33.861,33.861,0,0,1,9,2.6l-1.52,2.839h13.8v1.8H296.608Zm7.319.72v21.236h-3.519v-15a19.226,19.226,0,0,1-3.119,3.36l-1-.96c3.439-4.759,5.4-11.4,6.318-17.077l3.84,1A48.1,48.1,0,0,1,303.927,1934.392Zm21-1.04v1.8h-5.439v16.8c0,3.8-3.52,5.559-10.319.48l.52-1.36c5.359,1.759,6.2,1.36,6.2-.44v-15.478H305.727v-1.8h10.158v-6.6h3.6v6.6Zm-14.678,13.557a55.5,55.5,0,0,0-3.479-8.6l1.2-.84a26.118,26.118,0,0,1,5.8,7.719Z" fill="#182c80"/>
      <path id="Path_1387" data-name="Path 1387" d="M367.885,1953.708a13.134,13.134,0,0,1-3.32-4.8,24.326,24.326,0,0,1-9.638,6.639l-.64-1.24a23.9,23.9,0,0,0,9.2-8.478c-1.6-5.559-2-12.6-2.119-18.717h-7.719v6.239h6.879a112.8,112.8,0,0,1-.2,11.638c-.48,3.839-3.36,4.239-7.159,1.32l.44-1.16c2.72.64,3.12.72,3.4-.56a90.031,90.031,0,0,0,.241-9.439h-3.6v2.04c0,8.4-2.68,13.958-7.559,18.4l-1-.96c3-3.319,4.44-8.2,4.92-13.2a69.382,69.382,0,0,1-11.2,6.879l-1.6-3.879a44.479,44.479,0,0,0,4.719-1.32v-11.638h-4.2v-1.8h4.2v-10.158l3.44-.04v10.158l4.039.04v1.8l-4.039-.04v10.478c1.279-.52,2.559-1.08,3.8-1.679l.84,1.2c.119-1.439.2-2.879.2-4.279v-11.838h11.159v-6.8h3.279v6.8h4.479a32.209,32.209,0,0,0-3.279-5l.96-1.12a29.763,29.763,0,0,1,5.439,4.079l-2.44,2.04h2.68v1.8h-7.8a90.791,90.791,0,0,0,1.08,14.2,49.866,49.866,0,0,0,3.04-11.078l3.559,1.04c-1.2,5.8-2.92,10.638-5.479,14.558a15.044,15.044,0,0,0,1.759,3.679c1.92,2.839,2.76,1.16,2.76-4.119h1.28C375.164,1953.028,372.2,1957.348,367.885,1953.708Z" fill="#182c80"/>
      <path id="Path_1388" data-name="Path 1388" d="M395.408,1934.272v21.476h-3.439v-18.757a35.284,35.284,0,0,1-5.76,9.8l-1.079-.96a49.848,49.848,0,0,0,6.279-16.478H386.09v-1.8h5.879v-9.159h3.439v9.159h5.319v1.839h-5.319v2.2a28.171,28.171,0,0,1,5.519,6.879l-3.079,1.8C397.168,1938.391,396.248,1936.151,395.408,1934.272Zm22.876,21.756a63.2,63.2,0,0,0-5.759-8.279,33.185,33.185,0,0,1-14.917,8.359l-.56-1.32c8.118-3,14.437-9.078,19.076-18.077l3.6,2.08a45.743,45.743,0,0,1-5.959,7.759,34.125,34.125,0,0,1,7.679,6.678Zm-11.438-29.195h-7.159v-1.8h10.639a63.165,63.165,0,0,0-4.68-5.8l.88-1.16a31.556,31.556,0,0,1,7,4.839l-2.08,2.12h9.679v1.8H410.965a45,45,0,0,1-5.678,7.039c2.079.04,4.039-.04,6.238-.2a41.453,41.453,0,0,0,2.04-4l3.68,1.92c-4.96,8.439-11,13.6-18.278,16.4l-.679-1.279a31.934,31.934,0,0,0,12.118-11.239,63.429,63.429,0,0,1-9.239,1.88l-.88-3.8c1.16.12,2.24.2,3.28.24A47.356,47.356,0,0,0,406.846,1926.833Z" fill="#182c80"/>
      <path id="Path_1389" data-name="Path 1389" d="M439.529,1932.672l1.44.2c-.08,6.679-1.16,11.558-3.12,15.477l-4.359-2.4C436.329,1942.47,438.089,1939.311,439.529,1932.672Zm4.8,15.837v-21.436h3.839v20.676c0,2.08.4,2.56,2.64,2.72a30.239,30.239,0,0,0,5.039,0c2.92-.24,3.44-.88,3.4-8.479h1.519c2.8,9.119,1.8,11.518-3.639,12.038a39.94,39.94,0,0,1-6.919,0C445.408,1953.668,444.328,1953.428,444.328,1948.509Zm1.8-28.875.761-1.4a38.939,38.939,0,0,1,12.2,6.839l-3.159,3.6A57.668,57.668,0,0,0,446.127,1919.634Zm14.118,12.518,1.32-.8a47.631,47.631,0,0,1,8.119,12.918l-4.439,1.84A80.468,80.468,0,0,0,460.245,1932.152Z" fill="#182c80"/>
      <path id="Path_1390" data-name="Path 1390" d="M517.644,1948.269l-2.72,4.68a32.758,32.758,0,0,1-13.637-13.958v16.837h-3.84v-16.677c-3.159,5.6-9.358,10.758-15.278,13.757l-.8-1.319a41.983,41.983,0,0,0,13.757-14.758H482.689v-2.2h14.758v-6.318H485.489v-2h11.958v-7.719h3.84v7.719h11.8v2h-11.8v6.318h14.837v2.2H502.006C505.966,1942.55,512.405,1946.429,517.644,1948.269Z" fill="#182c80"/>
      <path id="Path_1391" data-name="Path 1391" d="M564.844,1948.709l-2.64,4.4a33.15,33.15,0,0,1-13.078-13.357v15.957h-3.679V1941.19a38.709,38.709,0,0,1-14.917,12l-.64-1.32a43.38,43.38,0,0,0,13.917-13.6l-2.2,1.52c-.76-1.96-1.64-3.8-2.4-5.32a21.1,21.1,0,0,1-7,9.359l-.96-1.08c3.8-4.479,5.24-8.958,5.72-15.077l3.8.72a39.155,39.155,0,0,1-.88,4,30,30,0,0,1,4.479,4.919,19.287,19.287,0,0,0,1.08-2.279v-8.479H531.33v-2.2h14.117v-5.879h3.679v5.879H563.4v2.2H549.126v10c.52.72,1.04,1.4,1.56,2a23.637,23.637,0,0,0,3.839-10.958l3.76.96a32.3,32.3,0,0,1-1.48,4.079,35.963,35.963,0,0,1,5.879,5.239l-2.8,2.6a59.049,59.049,0,0,0-3.92-6.119,19.362,19.362,0,0,1-4.2,5.479A32.049,32.049,0,0,0,564.844,1948.709Z" fill="#182c80"/>
      <path id="Path_1392" data-name="Path 1392" d="M594.407,1949.629c-2.68,1.48-12.038,4.4-16,5.159l-1.16-3.839c1.839-.12,4.359-.44,6.918-.8v-12.118H578.41v-1.8h5.758v-4.8h-3.839v-.84c-.68.64-1.439,1.28-2.239,1.92l-.96-1.04a36.467,36.467,0,0,0,7.239-13.518l3.719,1.36-.88,1.8a34.973,34.973,0,0,1,6.639,5.519l-2.72,2.359a53.194,53.194,0,0,0-4.639-6.518,32.847,32.847,0,0,1-5.2,7.158h10.278v1.8h-4.039v4.8h5.639v1.8h-5.639v11.558c2.72-.48,5.159-.96,6.519-1.32Zm-11.4-2.48-3.24.68a64.217,64.217,0,0,0-1-8.118l1.2-.36A34.6,34.6,0,0,1,583.009,1947.149Zm5.079-.439a64.443,64.443,0,0,0,1.48-7.8l3,.84a26.977,26.977,0,0,1-3.239,7.439Zm23.156,0c2.4,6.278,1.44,9.918-4.319,8.678a11.322,11.322,0,0,1-6.239-3.639,40.848,40.848,0,0,1-11.358,3.519l-.48-1.36a35.487,35.487,0,0,0,10.278-4.239,24.06,24.06,0,0,1-2.679-6.479c-1.16.12-2.36.28-3.64.44l-.32-1.8c1.24-.16,2.4-.28,3.56-.44a48.349,48.349,0,0,1-.76-5.8l3-.2a39.06,39.06,0,0,0,.88,5.6l4.239-.6c-1.2-1.48-2.519-3.04-3.759-4.28l.84-1.16a32.638,32.638,0,0,1,5.959,3.44l-1.84,1.8c2.44-.359,4.919-.719,7.679-1.159l.32,1.8c-4.839.76-8.759,1.36-12.958,1.92a21.166,21.166,0,0,0,2.24,5.079,37.42,37.42,0,0,0,5.679-5.519l2.719,2.08a27.763,27.763,0,0,1-6.6,5.679,7.629,7.629,0,0,0,3.2,1.92c3.319.919,3.119-.64,2.919-5.279Zm-17.517-21.557,2.8-.36a27.821,27.821,0,0,1-1.159-6.119l2.959-.2a38.308,38.308,0,0,0,1.2,5.879l5.639-.96a38.487,38.487,0,0,0-3.759-4l.719-1.16a27.56,27.56,0,0,1,5.8,3.2l-1.52,1.759c1.48-.28,3.039-.519,4.719-.8l.36,1.759c-4.2.68-7.639,1.32-11.358,1.92a19.9,19.9,0,0,0,1.72,3.6,23.078,23.078,0,0,0,5.439-4l2.4,2.28a29.24,29.24,0,0,1-6.28,3.719,8.061,8.061,0,0,0,4.239,2.48c2.32.519,2.08-1.04,2.041-4.68h1.439c2.08,5.919,1,8.319-3.6,7.639a11.231,11.231,0,0,1-7-4.359,51.723,51.723,0,0,1-8.559,1.879l-.4-1.4a44.969,44.969,0,0,0,7.639-2.32,27.454,27.454,0,0,1-2.12-4.359c-.96.12-1.959.28-3.039.4Z" fill="#182c80"/>
      <path id="Path_1393" data-name="Path 1393" d="M639.567,1947.309c-2.679,2.4-9.4,5.88-13.4,6.879l-.559-1.36c3.8-1.8,8.238-5.039,10.318-7.678Zm21.357-13.637v1.8H625.93v-1.8h18.117c-1.8-.88-4.12-1.92-5.679-2.64l.279-1.04h-7.038v-9.838h24.116v9.838H640.767a31.756,31.756,0,0,1,6.479,1.48l-1.04,2.2Zm-15.2,10.838v7.279c0,3.759-2.84,5.239-9.959,1.6l.4-1.359c5.439.92,6.039.6,6.039-1.32v-6.2h-9.519v-7.2H654.6v7.2Zm-10.679-20.317h17.237v-2.359H635.048Zm0,4.08h17.237v-2.48H635.048Zm1.08,14.437h15.037v-3.6H636.128Zm11.758,2.88a52.129,52.129,0,0,1,12.678,5.039l-2.12,3.479a86.069,86.069,0,0,0-11.038-7.158Z" fill="#182c80"/>
      <path id="Path_1394" data-name="Path 1394" d="M312.486,1988.633v6.8H322v24.8h-3.679v-3.239h-21.8v3.4h-3.68v-24.956h8.679v-6.8H290.09v-2h34.394v2Zm5.839,26.556v-5.879h-5.079c-3.76,0-4.28-1.12-4.28-4.319v-7.759h-3.839c-.16,5.6-1.28,11.558-7.079,15.6l-.96-1.119c4.08-4.24,4.44-10.319,4.44-14.478h-5v17.957Zm-9.359-26.556h-3.839v6.8h3.839Zm3.52,8.6v6.479c0,1.76.44,2.319,2.28,2.319h3.559v-8.8Z" fill="#182c80"/>
      <path id="Path_1395" data-name="Path 1395" d="M339.929,1985.074h13.8v14.557h-10.2v20.717h-3.6Zm10.278,6.2v-4.4h-6.678v4.4Zm0,6.6v-4.8h-6.678v4.8Zm10.039,18c5.8,1.679,7.239,1.479,7.239-1.2v-15.038H357.366v-14.557h13.718v30.555c0,4.919-4.2,6.559-11.358,1.64Zm7.239-24.6v-4.4h-6.6v4.4Zm0,6.6v-4.8h-6.6v4.8Z" fill="#182c80"/>
      <path id="Path_1396" data-name="Path 1396" d="M421.924,2015.949l-2.92,4.559c-3.839-1.76-12.318-9.359-14.4-23.356-2.079,12.158-9.758,20.317-18.4,23.636l-.719-1.36c6.959-3.959,13.2-10.518,15.077-23.036H386.81v-2.2h14.037c.08-.919.16-1.879.2-2.839.12-2.44.16-5.319.2-7.959l4.08.12c0,3.16-.08,6.039-.241,9.119l-.12,1.559h15.078v2.2H405.966C408.926,2007.87,416.484,2013.549,421.924,2015.949Z" fill="#182c80"/>
      <path id="Path_1397" data-name="Path 1397" d="M469.764,2015.269l-1.2,3.919c-4.279.28-11.038.4-15.878.2-8.2-.32-10.478-2.919-12.157-6.039a30.96,30.96,0,0,1-4.64,7.439l-2.6-2.44a28.672,28.672,0,0,0,5.2-5.559v-9.038H433.65v-1.8h8.438v10.758c2.2,3.28,7.239,3.44,10.8,3.44A151.054,151.054,0,0,0,469.764,2015.269Zm-30.235-16.117a70.256,70.256,0,0,0-5.559-6.4l.759-1.24a33.974,33.974,0,0,1,7.359,4.8Zm-4.239-14.4.719-1.16a28.668,28.668,0,0,1,7.359,4.439l-2.519,2.84A58.449,58.449,0,0,0,435.29,1984.754Zm18.716,6.719H443.688v-1.76h7.4c-1.08-2-2.4-4.2-3.44-5.759l1-1.04a29.016,29.016,0,0,1,5.959,5.359l-1.96,1.44h5.919a35.7,35.7,0,0,0,1.96-6.8l3.959,1.2a28.406,28.406,0,0,1-4.2,5.6h8.2v1.76h-10.6a34.248,34.248,0,0,1-2.68,3.959h10.518v18.637H462.2v-2.119H450.567v2.239h-3.52v-18.757h6.24A34.527,34.527,0,0,0,454.006,1991.473Zm8.2,5.759H450.567v2.959H462.2Zm0,4.679H450.567v3.24H462.2Zm0,4.959H450.567v3.28H462.2Z" fill="#182c80"/>
      <path id="Path_1398" data-name="Path 1398" d="M516.044,1998.912v2.6H482.729v-2.6Z" fill="#182c80"/>
      <path id="Path_1399" data-name="Path 1399" d="M534.529,2016.709l.44-1.32c3.8,1.08,4.239.56,4.239-1.4v-9h-3.879c-.32,6.438-1.32,12-4.64,15.8l-1.119-.88c2.839-5.319,2.519-10.358,2.519-20.6v-14.238h10.4v29.995C542.488,2019.068,539.048,2020.108,534.529,2016.709Zm4.679-13.518v-7.879h-3.759v2.8c0,1.72,0,3.439-.04,5.079Zm-3.759-9.638h3.759v-6.759h-3.759Zm12.637,4.839c0,10.518-.679,16.837-5.6,22.556l-1.12-.88c3.2-5.319,3.279-11.678,3.279-21.4v-12.038l3.439.639a41.323,41.323,0,0,0,12.639-4.239l3.039,3.28a76.937,76.937,0,0,1-15.678,2.519Zm5.12-3.68v20a45.377,45.377,0,0,0,4.479-1.28l.6,1.32a40.337,40.337,0,0,1-10.478,4.679l-1.24-3.519c1.079-.12,2.28-.28,3.519-.52v-22.516l2.96.48a30.329,30.329,0,0,0,8.318-3.92l2.6,2.84a57.461,57.461,0,0,1-6.8,1.839,70.18,70.18,0,0,0,1.24,9.519,31.623,31.623,0,0,0,3.839-5.279l2.64,2.239a34.244,34.244,0,0,1-6.079,4.8,22.672,22.672,0,0,0,7,11.838l-3.2,3.319c-3.8-3.919-6.479-11.638-6.8-26.2C554.886,1994.512,554.006,1994.632,553.206,1994.712Z" fill="#182c80"/>
      <path id="Path_1400" data-name="Path 1400" d="M593.967,2003.191l-2.84,2.2c-1.039-2.04-2-3.88-2.959-5.6v20.636h-3.44v-20.037a45.89,45.89,0,0,1-6.559,11.2l-1.079-.919a60.816,60.816,0,0,0,6.8-16.837h-5.8v-1.8h6.638v-8.519h3.44v8.519h5.359v1.8h-5.359v3.439A35.023,35.023,0,0,1,593.967,2003.191Zm16.837-17.037v33.914h-3.519v-3.319l-9.319.04v3.639l-3.519-.04v-34.234Zm-3.519,1.8-9.319.04v7.319l9.319-.04Zm0,9.119-9.319.04v7.679l9.319-.04Zm0,9.478-9.319.04v8.4l9.319-.04Z" fill="#182c80"/>
      <path id="Path_1401" data-name="Path 1401" d="M631.209,2012.909v-9H625.93v-1.84h8.8v10.518c2.36,3.28,5,3.36,10.238,3.48a117.871,117.871,0,0,0,16.758-1.12l-1,4.039a154.681,154.681,0,0,1-15.957.28c-6.12-.36-8.759-1.24-11.6-5.879a36.266,36.266,0,0,1-5.358,7.439l-2.28-2.36A25.926,25.926,0,0,0,631.209,2012.909Zm-4.44-20.316.8-1.2a37.343,37.343,0,0,1,7.239,4.6l-2.6,2.96C630.889,1997.192,628.449,1994.352,626.769,1992.593Zm1.84-7.879.76-1.2a32.838,32.838,0,0,1,7.359,4.4l-2.56,2.92A52.652,52.652,0,0,0,628.609,1984.714Zm8.239,24.236v-1.8h9.918v-2.919h-8v-12h8v-3h-9v-1.8h9v-4.16h3.52v4.16H659.6v1.8h-9.318v3h8.038v12h-8.038v2.919h10.238v1.8H650.286v5.439h-3.52v-5.439Zm9.918-14.917h-4.639v3.239h4.639Zm0,5.039h-4.639v3.359h4.639Zm8.2-5.039h-4.679v3.239h4.679Zm0,5.039h-4.679v3.359h4.679Z" fill="#182c80"/>
    </g>
    <line id="Line_5" data-name="Line 5" y2="103.882" transform="translate(695.589 1917.87)" fill="none" stroke="#182c80" stroke-miterlimit="10" stroke-width="6"/>
  </g>
</svg>
