<svg xmlns="http://www.w3.org/2000/svg" viewBox="0 0 270 274">
<style type="text/css">
	.st0{fill:#FFFFFF;}
	.st1{fill:#00CBD1;}
	.st2{fill:none;stroke:#9E9F9F;stroke-linecap:round;stroke-linejoin:round;stroke-dasharray:3.5,3.3;}
	.st3{fill:none;stroke:#717071;stroke-width:0.83;stroke-miterlimit:10;}
	.st4{fill:none;stroke:#717071;stroke-width:0.82;stroke-miterlimit:10;}
</style>
<path class="st0" d="M270,133C269.2,54.6,224.6-0.9,134.4,0C28.9,1.1,0.2,86.6,0,128.1c-0.9,48.8,25.5,104.8,80.2,123.6
	c0,0,14.6,7.3-9.7,22.4c21.6-0.3,29.4-16.3,38-15.2C207.1,268.3,275.8,207,270,133z"/>
<path class="st1" d="M118.1,186v1.1h-4.9h0.2c0,0.1-0.1,0.2-0.3,0.2v1.3h3.9v4.3c0,1.2-0.5,1.3-2.7,1.3c-0.1-0.4-0.2-0.8-0.4-1.1
	c0.6-0.1,1.9,0.3,1.9-0.2v-3.1h-2.7v6H112v-6h-2.5v4.5h-1.1v-5.6h3.7v-1.5h-4.9V186h4.9v-1.7l1.5,0.1c0,0.1-0.1,0.2-0.3,0.2v1.4
	H118.1z M118.8,193.2c0.8-1.1,1.2-2.8,1.3-4.4l1.1,0.2c-0.2,1.7-0.5,3.6-1.4,4.8L118.8,193.2z M122.3,187.8l1.5,0.1
	c0,0.1-0.1,0.2-0.3,0.2v5.8c0,0.6,0.1,0.7,0.7,0.7c1.9-0.2,2.9,0.9,2.9-2.5c0.3,0.2,0.7,0.4,1.1,0.5c0,3.7-1.7,3-4.1,3
	c-1.4,0-1.8-0.4-1.8-1.7L122.3,187.8z M126.5,187.5c-1.3-0.9-2.7-1.7-4.1-2.2l0.7-0.9c1.5,0.5,2.8,1.2,4.1,2.1L126.5,187.5z
	 M129.4,193.4c-0.4-1.6-1.2-3.2-2.2-4.6l1-0.5c1,1.4,1.8,2.9,2.3,4.5L129.4,193.4z M137.6,185.1v1.3h-3.8l-0.4,2.4
	c7.7-0.4,4.1,9.3-2.1,6l0.4-1.2c5.1,2.5,6.5-4.9,0.2-3.7l0.7-4.9L137.6,185.1z M147,184.5c0.9,1.7,2.1,3.2,3.7,4.4
	c-0.4,0.3-0.7,0.6-1,1c-0.4-0.3-0.7-0.7-1-1c-0.4,5.4,0.5,7.1-3.7,6.7c0-0.4-0.2-0.8-0.4-1.2c3.2,0.4,2.4-0.1,2.8-4.4h-2.9
	c-0.3,2.3-1,4.6-4.2,5.8c-0.2-0.4-0.4-0.7-0.7-1c2.8-1,3.5-2.8,3.8-4.7h-2.3v-1c-0.4,0.4-0.8,0.7-1.2,1c-0.3-0.3-0.6-0.6-0.9-0.9
	c1.6-1.2,2.9-2.8,3.6-4.7l1.4,0.5c0,0.1-0.1,0.1-0.1,0.1c-0.1,0-0.1,0-0.2,0c-0.6,1.4-1.5,2.7-2.5,3.8c0.5,0,7.2,0,7.5,0
	c-1.1-1.2-2-2.6-2.8-4L147,184.5z M154.3,193.6c0.6-0.1,1.2-0.2,1.8-0.3l0,1c-1.6,0.3-3.3,0.6-4.3,0.8c0,0,0,0.1-0.1,0.1
	c0,0-0.1,0.1-0.1,0.1l-0.3-1.2c0.6-0.1,1.2-0.2,2-0.3v-3.2h-1.8v-1h1.8v-1.1h-1.2v-0.2l-0.2,0.2c-0.2-0.3-0.5-0.5-0.8-0.8
	c0.9-1,1.7-2.1,2.2-3.3l1.3,0.2c0,0.1-0.1,0.2-0.3,0.2l0,0.1c0.7,0.6,1.4,1.2,2,1.8l-0.6,0.9c-0.6-0.7-1.2-1.3-1.9-1.9
	c-0.3,0.6-0.7,1.2-1.1,1.7h2.8v1h-1.3v1.1h1.7v1h-1.7V193.6z M152.1,193.5c-0.1-0.8-0.3-1.5-0.5-2.2l0.8-0.2
	c0.3,0.7,0.4,1.4,0.5,2.2L152.1,193.5z M156.1,191.3c0,0-0.1,0.1-0.1,0.1c0,0-0.1,0-0.2,0c-0.2,0.6-0.4,1.3-0.6,1.9l-0.7-0.3
	c0.2-0.7,0.4-1.4,0.5-2.1L156.1,191.3z M159.7,193.9v0.7h2.8v0.9h-6.9v-0.9h3v-0.7h-2.2V193h2.2v-0.6h-2.1V189h5.4v3.4h-2.2v0.6h2.4
	v0.9H159.7z M161.5,186.5c0,0.1-0.1,0.1-0.3,0.1c-0.1,0.3-0.4,0.6-0.6,1h1.8v0.9h-6.8v-0.9h1.7c-0.1-0.4-0.2-0.8-0.4-1.1l0.6-0.1
	h-1.5v-0.9h2.4v-1.1l1.4,0.1c0,0.1-0.1,0.2-0.3,0.2v0.8h2.5v0.9h-1.4L161.5,186.5z M157.5,189.7v0.6h1.2v-0.7L157.5,189.7z
	 M157.5,191.7h1.2V191h-1.2V191.7z M159.8,187.5c0.2-0.4,0.4-0.8,0.5-1.2H158c0.2,0.4,0.4,0.7,0.5,1.1l-0.5,0.1h2.1L159.8,187.5z
	 M160.9,190.4v-0.6h-1.3v0.6H160.9z M160.9,191.7V191h-1.3v0.7H160.9z"/>
<path class="st1" d="M87.6,225.5c-3.4,0.4-6.7-1.1-6.6-5v-15.5c-0.1-4.2,3.3-5.7,6.8-5.2v2.1c-2.3-0.2-4.8,0-4.7,3.1v15.5
	c-0.2,2.7,2.3,3,4.4,2.8V225.5z M189.5,221v-15.5c0.1-4.2-3.3-5.7-6.8-5.2v2.1c2.3-0.2,4.8,0,4.7,3.1V221c0.2,2.7-2.3,3-4.4,2.8v2.1
	C186.3,226.3,189.6,224.8,189.5,221z M111.9,218v-2.4h-9.5c0.1-0.5,0.2-0.9,0.2-1.4h9v-2.4h-8.8v-1.1h7v-2.3h-7v-1.2h7.9v-2.4h-4.2
	c0.5-0.6,1-1.3,1.5-2l-2.8-0.9c-0.4,1-1,1.9-1.6,2.7l0.5,0.2h-5.6l0.6-0.3c-0.4-1-1-1.9-1.7-2.6l-2.4,1c0.5,0.6,0.9,1.2,1.2,1.9h-4
	v2.4h7.8v1.2h-6.8v2.3h6.8v1.1h-8.8v2.5h8.4c0,0.5-0.1,0.9-0.2,1.4h-8.4v2.4h7.4c-1.1,1.5-3.3,2.4-7.7,3c0.6,0.8,1,1.6,1.4,2.5
	c5.7-0.9,8.2-2.6,9.4-5.1c1.8,3,4.6,4.5,9.3,5.1c0.4-0.9,1-1.8,1.7-2.5c-3.9-0.3-6.6-1.2-8.2-3L111.9,218z M124.6,211.7
	c-0.6-0.4-2.9-1.7-3.9-2.2h3.8v-2.1h-3.5c0-0.3,0-1.2,0-1.5h3v-2.1h-5.7c0.2-0.5,0.3-0.9,0.5-1.4l-2.4-0.5c-0.4,1.7-1.3,3.2-2.5,4.5
	c0.5,0.2,1.2,0.6,1.7,1H114v2.1h3.8c-0.6,1.1-1.7,2.3-4.1,3.2c0.7,0.5,1.2,1.1,1.7,1.8c1.7-0.7,3.1-1.9,4.2-3.3c1,0.7,2,1.4,3,2.2
	L124.6,211.7z M116.2,207.3c0.4-0.5,0.7-1,1.1-1.5h1.2c0,0.4,0,1.1,0,1.5H116.2z M117,223.4h2.7v-0.8h9.5v0.7h2.8v-9.7h-15
	L117,223.4z M129.2,215.9v1.3h-9.5v-1.3H129.2z M119.7,220.5v-1.4h9.5v1.4H119.7z M125.3,203.7v8.7h8.7v-8.7L125.3,203.7z
	 M131.3,210h-3.5v-3.9h3.5V210z M151.1,205.5c0.4-1,0.7-1.9,0.9-2.9l-2.6-0.6c-0.7,2.7-1.8,5.5-3.1,7.4v-3.7h-3.6
	c0.4-1,0.8-2.1,1.2-3.3l-3-0.4c-0.1,1.2-0.3,2.5-0.7,3.7h-2.6v17h2.5v-1.7h6.1v-10.7c0.6,0.4,1.2,0.8,1.8,1.3c0.8-1.1,1.5-2.4,2-3.6
	h4.9c-0.3,8.1-0.5,11.5-1.2,12.3c-1.2,0.8-2.3,0.2-4.4,0.2c0.5,0.8,0.8,1.7,0.9,2.7c9.2,0.9,6.3-4.9,7.3-17.7L151.1,205.5z
	 M143.8,211.8h-3.7v-3.7h3.7V211.8z M140.1,218.7v-4.5h3.7v4.5H140.1z M153.7,216c-1-1.8-2.2-3.5-3.4-5.1l-2.1,1.2
	c1.2,1.7,2.2,3.5,3.2,5.3L153.7,216z M178,210.2c-1,0.9-2.1,1.7-3.2,2.5c-0.4-0.9-0.7-1.7-0.9-2.6h2.6v-2.3h-12.3v2.3h3.4
	c-2.3,1.1-4.7,1.9-7.1,2.4c0.5,0.7,1,1.4,1.4,2.1c1.9-0.5,3.7-1.2,5.5-2c0.2,0.2,0.4,0.4,0.6,0.6c-1.7,1.2-4.8,2.5-7.2,3
	c0.5,0.6,1,1.3,1.4,2.1c2.5-0.9,4.9-2.1,7.1-3.6c0.2,0.3,0.3,0.5,0.4,0.8c-2.3,1.9-6.3,3.9-9.6,4.7c0.6,0.7,1,1.5,1.4,2.3
	c3.2-1.1,6.2-2.7,8.9-4.6c0.3,3.2-1.8,3.4-4.3,3c0.5,0.8,0.7,1.7,0.8,2.6c7,1.3,8.6-6.6,2.8-12.1c0.7-0.4,1.3-0.8,1.9-1.3h0
	c1.3,5.3,3.6,9.6,7.7,11.8c0.5-0.9,1.2-1.7,1.9-2.4c-2.1-1-3.9-2.6-5.1-4.7c1.3-0.8,2.8-1.8,4.2-2.7L178,210.2z M163.4,206.3h13.9
	v2.7h2.8v-5.2h-8.4V202h-2.8v1.8h-8.3v5.1h2.7L163.4,206.3z"/>
<path class="st2" d="M27.6,100.8h214.8"/>
<path class="st2" d="M27.6,172.4h214.8"/>
<path class="st3" d="M123.8,111.5v23.8"/>
<path class="st1" d="M56.2,121.7c2.9,0.6,5.4,2.8,5.4,6.2c0.5,7-11,9.2-16.4,5.9l1.2-3.6c9.9,5.5,15.2-7.1,2.7-6.5v-3.4
	c10.7,0.6,6.7-10.2-1.9-5.1l-1.1-3.4C57.4,105.5,66.9,116.7,56.2,121.7L56.2,121.7z M76.6,124.2c-4.2,4.2-12.7,1.2-12.3-5.6
	c0-4.6,3.4-8.7,8.8-8.7c15.3,1.2,9.5,27.7-6.7,25.3v-3.8c4.9,0.5,9.6-2.5,10.2-7.2L76.6,124.2z M69.4,118.2c-0.3,5.8,7.1,6.1,7.2,1
	C76.8,112.3,69.8,111.1,69.4,118.2z M88.1,122c-7.2-3.7-3.1-12.5,4.5-12c8.3,0,10.5,8.2,3.9,11.7v0.1c8.2,3.3,4.9,14.1-4.2,13.5
	C82.5,135.5,80.6,125.3,88.1,122L88.1,122z M91.8,123.7c-4.2,1.1-4.3,7.7,0.4,8.2C97.3,132.5,97.2,124.9,91.8,123.7z M89.2,116.4
	c0,1.9,1.5,3.2,3.5,3.9c3.3-1,4-7-0.4-7.1C90.1,113.2,89.2,114.8,89.2,116.4L89.2,116.4z M29.6,119c-0.1,1.1-0.4,2.1-0.8,3.1
	c-0.4-0.2-0.7-0.4-1.1-0.5c0.4-0.9,0.6-1.8,0.7-2.8L29.6,119z M31,118v5h-1.3v-4.9l-1.8,0.1l-0.2-1.2c0.3,0,0.7,0,1.1,0
	c0.2-0.2,0.4-0.5,0.5-0.7c-0.5-0.6-1-1.2-1.6-1.7l0.8-0.9l0.3,0.3c0.4-0.7,0.7-1.4,1-2.1l1.3,0.5c-0.5,0.8-1,1.7-1.5,2.5
	c0.1,0.2,0.3,0.3,0.4,0.5c0.4-0.6,0.8-1.3,1.2-2l1.2,0.5c-0.5,0.7-1,1.5-1.6,2.3l1-0.4c0.5,0.8,0.9,1.7,1.1,2.7l-1.1,0.4
	c0-0.2-0.1-0.5-0.2-0.7L31,118z M31.3,116.8c-0.1-0.3-0.3-0.5-0.4-0.8c-0.2,0.3-0.5,0.6-0.7,0.9L31.3,116.8z M32.2,118.7
	c0.3,0.7,0.5,1.4,0.7,2.2l-1.1,0.3c-0.1-0.8-0.3-1.5-0.6-2.2L32.2,118.7z M32.2,122.1c0.6-0.7,1-1.5,1.1-2.4l1.2,0.3
	c-0.1,1.1-0.4,2.1-1.1,2.8L32.2,122.1z M37.1,121.9c0.3,0,0.3-0.1,0.3-0.9c0.4,0.2,0.8,0.4,1.2,0.5c-0.1,1.8-1.2,1.6-2.5,1.6
	c-2.1,0.3-1.3-2.2-1.5-3.4H36c-0.3-0.2-0.7-0.5-1.1-0.7l0.5-0.4H33v-5.7h2.5c0.1-0.4,0.2-0.8,0.3-1.2l1.7,0.3
	c-0.2,0.3-0.3,0.6-0.5,0.9H40v5.7h-3.5c0.5,0.3,1,0.6,1.5,1l-1,0.8c-0.3-0.3-0.6-0.5-0.9-0.7v1.9C35.9,122.1,36.8,121.8,37.1,121.9
	L37.1,121.9z M34.3,117.5h1c-0.1-0.2-0.3-0.3-0.4-0.4c0.5-0.2,1-0.5,1.5-0.8c-0.2-0.1-0.3-0.2-0.5-0.3c-0.2,0.2-0.5,0.5-0.8,0.7
	c-0.2-0.2-0.4-0.4-0.7-0.6c0.2-0.2,0.5-0.3,0.7-0.5c-0.2-0.1-0.4-0.2-0.7-0.3l0.7-0.6c0.2,0.1,0.4,0.1,0.5,0.2
	c0.2-0.3,0.4-0.6,0.5-0.9h-1.8L34.3,117.5z M38.6,113.9h-2.1L37,114l-0.2,0.4c0.3,0,0.7,0,1,0l0.7,0.2c-0.2,0.5-0.4,1-0.8,1.5
	c0.3,0.2,0.6,0.4,0.8,0.5l-0.7,0.7c-0.2-0.2-0.4-0.3-0.7-0.5c-0.3,0.3-0.7,0.6-1.1,0.8h2.7L38.6,113.9z M36.4,115.2
	c0.2,0.1,0.4,0.2,0.6,0.3c0.1-0.2,0.2-0.3,0.3-0.5h-0.8L36.4,115.2z M39.1,119.5c0.6,0.8,1.1,1.7,1.5,2.6l-1.2,0.5
	c-0.3-1-0.8-1.9-1.4-2.7L39.1,119.5z M31.8,124.1c-1.4,1.6-1,8.9-1,10.8h-1.5v-6c-0.3,0.3-0.5,0.7-0.8,1c-0.2-0.5-0.5-1-0.8-1.5
	c1.2-1.4,2.1-3,2.7-4.7L31.8,124.1z M37.8,133.2c0.9,0.3,1.9,0.6,2.8,1l-1.3,0.8c-0.9-0.5-1.9-0.9-2.9-1.2l0.8-0.7h-2.6l0.9,0.6
	c-1.1,0.6-2.2,1-3.4,1.2c-0.2-0.4-0.5-0.7-0.8-1c1-0.2,2-0.5,2.9-0.9h-1.9v-4.5h7.6v4.5L37.8,133.2z M37.5,125.3v0.5h2.3v2.5H32
	v-2.5h2.2v-0.5h-2.4v-1h8.5v1.1L37.5,125.3z M33.3,127.5h0.8v-0.8h-0.8V127.5z M33.6,130h4.6v-0.4h-4.6V130z M33.6,131.2h4.6v-0.4
	h-4.6V131.2z M33.6,132.4h4.6v-0.5h-4.6V132.4z M36.3,125.3h-0.9v0.5h0.9L36.3,125.3z M35.4,127.5h0.9v-0.8h-0.9L35.4,127.5z
	 M37.5,126.7v0.8h0.8v-0.8H37.5z M117.4,112.3v1.2h-2.7v0.5h-1.6v-0.6H110v0.5h-1.6v-0.5h-2.7v-1.2h2.7v-0.6h1.6v0.6h3.2v-0.6h1.6
	v0.6L117.4,112.3z M117.1,121.8c0,1.3-1,1.3-2.2,1.3c-0.1-0.3-0.2-0.7-0.3-1l-0.7,0.2c0-0.2-0.1-0.5-0.2-0.7
	c-1.9,0.1-3.8,0.2-5.2,0.3l-0.1-1.2l2.5-0.1v-0.9h-3v3.3h-1.5v-4.5h4.5v-0.4h-3.7v-3.9h9v3.9h-3.8v0.5h4.8L117.1,121.8z
	 M108.7,115.7h2.2v-0.6h-2.2V115.7z M110.9,117.2v-0.6h-2.2v0.6H110.9z M114.6,115.2h-2.2v0.6h2.2V115.2z M114.6,116.6h-2.2v0.6h2.2
	V116.6z M113.3,120.5c-0.1-0.2-0.2-0.4-0.3-0.5l0.9-0.2h-1.6v0.8L113.3,120.5z M115.4,121.9c0.4,0.2,0.1-2,0.2-2.2h-1.4
	c0.4,0.7,0.7,1.4,0.9,2.2H115.4z M109.6,133.1c2.2,0.4,5.9,0.2,8.3,0.2c-0.3,0.4-0.5,0.9-0.6,1.4c-2.8-0.2-8.7,0.8-10.3-1.6
	c-0.1,0.8-0.3,1.5-0.6,2.2c-0.4-0.3-0.8-0.5-1.3-0.7c0.7-1.3,0.8-3.3,0.8-5.3l1.4,0.1c-0.1,1.1-0.1,2.3,0.8,3v-3.8h-2.7v-1.2h2.4
	v-1.2h-2v-1.2h2v-1.2h1.5v1.2h2.1v1.2h-2v1.2h2.4v1.2h-2.1v1.3h1.9v1.2h-1.9L109.6,133.1z M115.6,125.5h-3.6v-1.3h5.1v4.7h-1.5v-0.4
	h-1.9v2.5c0,0.4,0.1,0.5,0.6,0.5c1.3-0.2,2.2,0.7,2.1-1.6c0.4,0.3,0.9,0.4,1.4,0.5c0,2.8-1.9,2.3-3.7,2.3c-1.5,0-1.9-0.4-1.9-1.8
	v-3.8h0.6h2.8V125.5z M152.1,132.3c-0.9,0.8-1.6,1.7-2.2,2.7c-5.3-2.9-7.9-8.2-9.2-12.9c-1.2,4.6-3.7,9.7-8.6,13
	c-0.6-0.9-1.4-1.8-2.4-2.5c9.3-5.7,9-17.4,9.2-20.7h3.2C142.1,116.6,143.8,127.9,152.1,132.3z M174.2,131.5v3h-21v-3h9v-5.1h-6.3v-3
	h6.3v-4.5h-4.8c-0.6,1.3-1.3,2.6-2.2,3.7c-0.8-0.7-1.6-1.3-2.5-1.8c1.8-2.2,3.3-5.7,4.1-9.2l2.9,0.7c-0.3,1.2-0.7,2.5-1.1,3.6h3.6
	v-4.6h2.9v4.6h7.9v3h-7.9v4.5h7v3h-7v5.2L174.2,131.5z M193.1,117.2c-1.7,2-3.8,3.6-6.2,4.7h7.4v13.2h-2.8v-0.8h-8.6v0.9h-2.7v-11
	c-1,0.3-2.1,0.5-3.1,0.7c-0.5-1-1-1.9-1.7-2.7c3.8-0.5,7.5-1.4,10.5-2.9c-1.1,0.2-2.3,0.3-3.5,0.2c-0.2-0.9-0.6-1.8-1.1-2.6
	c5.2,0.2,3.3,0.6,3.6-5.7h2.8c-0.1,1.3,0.4,6.4-0.4,7.4c1.2-0.7,2.3-1.6,3.1-2.7L193.1,117.2z M183.2,113.3c-1.4,2.3-3.2,4.3-5.4,6
	c-0.7-0.8-1.4-1.5-2.2-2.2c2-1.2,3.7-2.8,4.9-4.8L183.2,113.3z M191.5,124.2h-8.6v1.2h8.6V124.2z M182.9,128.8h8.6v-1.3h-8.6V128.8z
	 M191.5,132.1v-1.2h-8.6v1.2H191.5z M192.2,112.1c1.8,1.4,4,3.4,5,4.9l-2.4,1.7c-0.9-1.5-3-3.6-4.8-5.1L192.2,112.1z M218.9,116.6
	c-1.3,12.7,1.4,19.4-8.2,18.4c-0.1-1.1-0.4-2.2-1-3.2c2.1,0,3.3,0.6,4.5-0.3c0.7-0.8,1.2-4.2,1.5-11.8h-6.5
	c-0.4,5.3-2,11.6-8.6,15.6c-0.6-0.9-1.3-1.8-2.2-2.5c5.8-3.5,7.4-8.6,7.8-13.1h-7v-3.1h7.1v-5.3h3v5.3L218.9,116.6z M224.2,126.7
	c-0.3,2.5-0.7,5.1-1.4,6.7c-0.7-0.4-1.3-0.8-2.1-1.2c0.7-1.5,1-3.8,1.2-6L224.2,126.7z M227,124.7v10.6h-2.4v-10.4l-3.5,0.3
	l-0.2-2.7l1.7-0.1c0.4-0.5,0.7-1,1.1-1.6c-0.8-1.2-1.7-2.4-2.8-3.5l1.3-2l0.5,0.5c0.7-1.4,1.3-2.9,1.7-4.5l2.4,1
	c-0.8,1.7-1.8,3.7-2.6,5.1c0.3,0.4,0.6,0.7,0.8,1.1c0.8-1.4,1.5-2.8,2.1-4.2l2.3,1.1c-1.3,2.2-2.9,4.8-4.4,6.9l2.3-0.1
	c-0.3-0.6-0.5-1.2-0.8-1.7l1.9-0.9c1,1.7,1.9,4,2.2,5.5l-2.1,1.1c-0.1-0.5-0.2-1-0.3-1.5L227,124.7z M229.2,126
	c0.6,1.6,1.1,3.2,1.5,4.9l-2.2,0.8c-0.3-1.7-0.8-3.4-1.4-5L229.2,126z M242.9,131.8v2.7h-13.6v-2.7h2.2v-19.3h10v19.3L242.9,131.8z
	 M234.1,115.2v3.6h4.5v-3.6H234.1z M238.6,121.6h-4.5v3.6h4.5V121.6z M234.1,131.8h4.5V128h-4.5L234.1,131.8z"/>
<path class="st1" d="M34.7,143c-0.6,1.6-1.3,3.2-2.1,4.8v16.1h-2.5v-12.1c-0.5,0.7-1,1.3-1.6,2c-0.4-1-0.9-1.9-1.5-2.8
	c2-2.1,4-5.5,5.2-8.8L34.7,143z M44,152.4c0.6,5.7,2.6,11.9,2.8,4.8c0.6,0.6,1.3,1.1,2.1,1.5c-0.4,3.6-1.1,4.4-2.9,4.4
	c-2.5,0-3.9-4.7-4.5-10.6h-3.8v4.6c1.3-0.2,2.7-0.4,4-0.6l0.2,2.5c-2.6,0.5-5.5,1-7.6,1.3l-0.6-2.6c0.4,0,0.9-0.1,1.4-0.2v-13.2
	c3,1.3,8.3-0.8,10.6-1.4l2,2.1c-1.3,0.4-2.6,0.8-3.9,1.1c0,1.4,0.1,2.7,0.2,4h4.6v2.5H44z M34.3,161h8.9v2.5h-8.9V161z M41.1,149.9
	c-0.1-1.1-0.1-2.3-0.2-3.5c-1.2,0.2-2.3,0.4-3.4,0.5v3H41.1z M58.5,143.5c-1.4,3.7-3.8,7.4-6.1,9.6c-0.8-0.8-1.6-1.5-2.5-2.1
	c2.3-1.9,4.4-5.1,5.6-8.4L58.5,143.5z M64.7,154.4c1.9,2.5,3.6,5.2,5.1,8.1l-2.7,1.6c-0.2-0.6-0.6-1.2-0.9-1.9
	c-5.3,0.4-10.9,0.7-14.8,0.9l-0.4-2.9c0.9,0,2-0.1,3.1-0.1c1.5-3,2.8-6.2,3.8-9.5l3.1,0.8c-1.1,2.9-2.4,5.7-3.9,8.5
	c2.4-0.1,5-0.3,7.5-0.4c-0.8-1.3-1.7-2.6-2.5-3.8L64.7,154.4z M64.4,142.7c1.3,2.8,3.8,6,5.8,8c-0.8,0.7-1.6,1.5-2.2,2.4
	c-2.4-2.9-4.5-6-6.2-9.3L64.4,142.7z M80.4,148.2h-8.7V146h8.7V148.2z M91.4,152.8c-0.6,2.5-1.7,4.8-3.3,6.7c1.4,0.9,3,1.6,4.6,2
	c-0.7,0.7-1.3,1.5-1.7,2.4c-1.8-0.6-3.4-1.4-4.9-2.6c-1.6,1.2-3.3,2.1-5.2,2.6c-0.3-0.8-0.8-1.5-1.3-2.2v0.9h-4.7v0.9h-2.2v-8h6.9
	v5.9c1.6-0.4,3.1-1.1,4.5-2c-1.1-1.2-1.9-2.6-2.6-4.1l2.2-0.7h-3.1v-2.5h0.6c-0.5-0.6-1-1.1-1.7-1.6v0.8h-6.8v-2.2h6.8v1.1
	c2.9-2.1,2-4.9,2.1-7.6h2.5v0h2.5v0h2.5v5.3c-0.1,1,0.2,0.7,0.8,0.7c0.3,0,0.4-0.3,0.4-2.4c0.7,0.4,1.4,0.8,2.2,1
	c-0.2,3.7-1.2,3.8-3.5,3.7c-3,0.5-2.2-3.8-2.3-5.9h-2.5c0,2.3-0.3,5.1-2.7,6.9h7.7l0.5-0.1L91.4,152.8z M79.5,154.5h-6.8v-2.1h6.8
	V154.5z M79.5,145h-6.8v-2.1h6.8V145z M77.3,157.9h-2.4v2.7h2.4V157.9z M83.8,154.7c0.6,1.2,1.3,2.2,2.2,3.2c0.8-0.9,1.5-2,2-3.2
	H83.8z M118.5,144v2.4H99.1V144h8.2v-1.9h2.7v1.9H118.5z M117.8,161.1c0.1,3-2,2.9-4.7,2.9c-0.1-0.7-0.3-1.3-0.6-1.9h-5.7v1.1h-2.3
	v-6.4h8.5v4.6c1-0.1,1.9,0.4,2.1-0.3v-5.3h-12.6v8.3H100v-10.6h17.8L117.8,161.1z M115,147.3v5.2h-12.2v-5.2L115,147.3z
	 M112.3,149.1h-7v1.5h7V149.1z M110.8,158.6h-3.9v1.5h3.9L110.8,158.6z M141.3,156.3h-5.6v7.7H133v-7.6h-5.6l0.3,1.8
	c-2.2,1-4.5,1.9-6.4,2.7l-0.9-2.9c0.7-0.2,1.6-0.5,2.6-0.8v-7h-2.2v-2.6h2.2v-5.1h2.4v5.1h1.9v2.6h-1.9v6.2l2-0.7l0.1,0.5v-2.5h5.6
	v-7.8h-5v-2.6h12.7v2.6h-5v7.8h5.6L141.3,156.3z M130.6,146.8c0.5,1.8,0.9,3.6,1.2,5.4l-2.2,0.6c-0.2-1.8-0.5-3.7-1-5.5L130.6,146.8
	z M136.8,152.1c0.6-1.8,1-3.7,1.2-5.5l2.5,0.5c-0.5,2-1.1,4.2-1.7,5.6L136.8,152.1z M147.4,148.5c-0.7,2-1.8,3.8-3.2,5.4
	c-0.6-0.6-1.3-1.2-2-1.6c1.3-1.2,2.2-2.7,2.8-4.4L147.4,148.5z M150.4,162c-0.5-0.9-1-1.7-1.7-2.5c-1.2,1.8-2.6,3.3-4.3,4.6
	c-0.6-0.8-1.2-1.5-1.9-2.2c1.8-1.1,3.3-2.7,4.5-4.5c-0.9-1-1.9-2-2.8-2.9l1.9-1.6c0.7,0.6,1.4,1.3,2.2,2c0.4-0.8,0.7-1.7,0.9-2.6
	l2.6,0.6c-0.4,1.4-0.9,2.7-1.6,4c0.9,1,1.7,2,2.3,3.2L150.4,162z M154,147.5h-11.3V145h4.3v-2.8h2.6v2.8h4.4V147.5z M161.9,148.9
	c-0.5,3.5-1.2,6.3-2.4,8.7c0.9,1.6,2.2,3,3.8,3.9c-0.7,0.7-1.3,1.5-1.8,2.3c-1.5-1-2.7-2.3-3.6-3.8c-1.3,1.6-2.9,2.9-4.7,3.8
	c-0.4-0.8-0.9-1.7-1.5-2.4c2-0.8,3.7-2.2,4.8-4c-0.6-1.4-1-2.9-1.4-4.4c-0.3,0.5-0.6,1.1-0.9,1.6c-0.6-0.7-1.3-1.4-2-1.9
	c0.2-0.3,0.5-0.7,0.7-1.1l-1.7,1.1c-0.5-1.3-1.3-2.6-2.2-3.8l2-1.2c0.9,1,1.6,2.1,2.2,3.3c1.2-2.4,1.9-5.7,2.4-9l2.6,0.4
	c-0.2,1.3-0.4,2.6-0.7,3.9h5.8v2.6L161.9,148.9z M156.7,149.1c0.3,1.8,0.7,3.6,1.3,5.4c0.6-1.8,1-3.7,1.2-5.6h-2.5L156.7,149.1z
	 M190.9,164.1h-14.1v-2.6c3.6-3.7,9.8-9.3,9.3-12.4c0.2-4.2-5.4-4-7.7-1.9l-1.2-3c4.5-3.5,13.8-2.2,13.4,4.5
	c0.1,4.5-4.3,8.5-7.9,11.9v0.1h8.3L190.9,164.1z M193.7,152.6h9.2v3.3h-9.2V152.6z M214.6,152.5c10.5,3.7,1.8,16.2-9.3,10.6l1-3.2
	c8.3,4.9,12.9-6.3,2.3-5.7v-3c9.1,0.6,5.7-9-1.6-4.5l-0.9-3C215.4,138.4,223.8,148,214.6,152.5L214.6,152.5z M233.2,155.8
	c0,0.4-0.1,0.9-0.2,1.3h7.2c-0.3,5.7-0.5,7.4-5.9,6.9c-0.1-0.8-0.3-1.6-0.7-2.3c2.7,0.1,3.7,0.9,3.9-2.5h-5.1
	c-0.8,2.2-2.5,3.8-5.8,4.9c-0.4-0.8-0.9-1.6-1.5-2.2c4.2-1.2,5-3.2,5.4-6.1h-3.8c-0.3,2.8-1.1,5.8-2.9,7.9c-0.7-0.6-1.4-1.1-2.2-1.5
	c3.6-4.5,2.5-10.4,2.7-15.5h15.9v5.5h-5.8v1.4h7.6v2.2H233.2z M241.7,145.6H223v-2.5h18.7V145.6z M227,152.2c0,0.4,0,0.9,0,1.4h4.9
	v-1.4H227z M227,148.7v1.5h10.7v-1.5H227z"/>
<path class="st4" d="M169.7,141.5v22"/>
<path class="st1" d="M198.7,87.7v1h-14.2v-1c4-0.1,4.3-0.5,4.3-4.1V60.5c0-3.6-0.4-4-4.2-4.1v-1h13.9v1c-3.8,0.1-4.2,0.5-4.2,4.1
	v23.1C194.4,87.2,194.8,87.5,198.7,87.7z M160.5,54h-4.8c0.1,5-4.5,9.3-9.7,9.2v4.6C153.7,67.9,160.6,61.4,160.5,54L160.5,54z
	 M168.6,71.5h3.4c7.4-0.1,11.1-8.8,5.8-13.8c-5.2-5-14.4-1.3-14.3,5.8c0,0,0,1.6,0,1.6h4.8v-1.6c-0.1-3.1,4-4.8,6.3-2.6
	c2.4,2.1,0.6,6.1-2.6,6.1h-20.2v21.7h4.8V71.5h7.1c0.3,8.9,8.4,16.9,18.4,16.9v-4.6C175.2,83.9,169,78.2,168.6,71.5L168.6,71.5z
	 M140.8,84.1h-10.6c-7.8,0-11.6-3.4-11.6-10.5V63.2h4.3v9.5c0.7,9.4,14.7,9.4,15.4,0v-7.5h-4.8v7.5c-0.3,3.4-5.5,3.4-5.7,0v-9.5
	h16.1v-4.6h-5.6v-4.5h-4.8v4.5h-5.7v-4.4h-4.8v4.4h-4.3v-4.4h-4.8v4.4h-5.1v4.6h5.1v11.2c0.3,9,6.1,14.2,16.1,14.3h10.9L140.8,84.1z
	 M93.6,81.5H83.4c-1.5,5-6.5,7.6-11.8,7.2v-4.1c2.9,0.2,5.8-0.4,7.2-3.1h-8.2v-4h1.7V60.2c0.1-3.2,3.1-6,6.5-5.9v4.1
	c-1.2,0-2.2,1-2.2,2.1v1.6h2.2v4.1h-2.2v3.4h2.2v4.1h-2.2v3.8h3.5V62.5c0.4-11,17-11,17.3,0v10.4c0,1.8-1,3.5-2.6,4.5h5.8v-3.8h-2
	v-4.1h2v-3.4h-2v-4.1h2v-1.6c0-1.1-1-2.1-2.2-2.1v-4.1c3.4-0.1,6.4,2.7,6.5,5.9v17.2h1.9v4.1h-8.5c1.4,2.7,4.3,3.4,7.2,3.1v4.1
	C100.2,89.1,95.2,86.5,93.6,81.5L93.6,81.5z M84.3,77.4h4.5c-4.8-2.8-2.6-9.8,3-9.8v4.1c-1.1,0-1.7,1.4-0.9,2.1
	c0.8,0.8,2.2,0.2,2.2-0.9V62.6c-0.2-5.5-8.5-5.5-8.7,0v1.6c2.1-1.6,4.7-2.4,7.4-2.4v4.1c-4,0-7.4,2.9-7.4,6.3V77.4z"/>
</svg>
