<?xml version="1.0" encoding="utf-8"?>
<!-- Generator: Adobe Illustrator 26.5.0, SVG Export Plug-In . SVG Version: 6.00 Build 0)  -->
<svg version="1.1" id="圖層_1" xmlns="http://www.w3.org/2000/svg" xmlns:xlink="http://www.w3.org/1999/xlink" x="0px" y="0px"
	 viewBox="0 0 77 1016" style="enable-background:new 0 0 77 1016;" xml:space="preserve">
<style type="text/css">
	.st0{fill:#C9CACA;}
</style>
<path class="st0" d="M76.5,43.6H51.4v-2c4.8-0.6,8.7-1.8,11.5-3.5c2.9-1.7,5.1-4,6.8-7.1c1.7-3.1,2.5-6.3,2.5-9.5
	c0-3.7-1.1-6.8-3.4-9.2c-2.3-2.4-4.9-3.6-7.7-3.6c-2.2,0-4.2,0.8-6.1,2.3c-2.7,2.2-6.3,7.5-10.7,15.8c-3.6,6.8-6.4,11.4-8.4,13.9
	c-1.9,2.5-4.2,4.4-6.9,5.7c-2.6,1.3-5.4,2-8.3,2c-5.5,0-10.2-2.1-14.2-6.4s-6-9.8-6-16.5c0-2.1,0.2-4.1,0.5-5.9
	c0.2-1.1,0.8-3.4,2-6.9S4.6,7,4.6,6.1c0-0.9-0.3-1.6-0.8-2.1C3.3,3.5,2.2,3.1,0.5,2.8v-2h24.9v2C20.2,3.8,16.3,5,13.7,6.6
	c-2.6,1.6-4.7,4-6.5,7.2C5.5,17,4.7,20.6,4.7,24.4c0,4.5,1.2,8,3.5,10.6c2.4,2.6,5.1,3.9,8.4,3.9c1.8,0,3.6-0.5,5.4-1.5
	c1.8-1,3.5-2.5,5.1-4.6c1.1-1.4,3.4-5.2,6.8-11.4c3.5-6.2,6.3-10.6,8.3-13.3c2.1-2.6,4.4-4.6,6.9-6c2.5-1.4,5.3-2,8.3-2
	c5.2,0,9.7,2,13.5,6c3.8,4,5.7,9.1,5.7,15.3c0,3.9-0.9,7.9-2.8,12.3c-0.9,2-1.3,3.4-1.3,4.2c0,0.9,0.3,1.7,0.8,2.3
	c0.6,0.6,1.7,1.1,3.4,1.4V43.6z M4.1,82.7h-2V51.6h2v2.6c0,3,0.9,5.2,2.6,6.5C7.9,61.6,10.7,62,15,62h47c3.7,0,6.1-0.2,7.3-0.7
	c0.9-0.4,1.7-1.1,2.3-2.2c0.9-1.6,1.3-3.2,1.3-4.9v-2.6h2v31.1h-2v-2.6c0-3-0.9-5.1-2.6-6.5c-1.1-0.9-3.9-1.3-8.3-1.3H15
	c-3.7,0-6.1,0.2-7.3,0.7c-0.9,0.4-1.7,1.1-2.3,2.3c-0.9,1.5-1.3,3.2-1.3,4.9V82.7z M22.3,142.9l-0.4,1.8l-19.7-6.2V82.1h2v2.7
	c0,3.1,1,5.3,3,6.6c1.1,0.8,3.8,1.1,7.9,1.1H62c4.5,0,7.4-0.5,8.5-1.5c1.6-1.4,2.4-3.5,2.4-6.2v-2.7h2V115h-2c0-3.9-0.3-6.6-1.1-8.1
	c-0.8-1.6-1.7-2.6-2.8-3.2c-1.1-0.6-3.9-0.9-8.2-0.9H15.1c-3,0-5,0.3-6.1,0.9c-0.8,0.4-1.3,1.1-1.7,2c-0.4,0.9-0.5,3.7-0.5,8.4v5.3
	c0,5.6,0.4,9.5,1.2,11.7c0.8,2.3,2.3,4.3,4.4,6.2C14.5,139.1,17.8,141,22.3,142.9z M42.5,174.3l-26.6,26.8c-4.4,4.4-7.4,8.1-9,11.3
	c-1.6,3.1-2.5,6.2-2.7,9.3h-2v-34.6h2c0,2.1,0.3,3.6,1,4.5c0.7,0.9,1.5,1.4,2.3,1.4c0.9,0,1.6-0.2,2.3-0.5c0.7-0.3,2-1.5,3.8-3.4
	L38.4,164H15c-3.7,0-6.1,0.2-7.3,0.7c-0.9,0.4-1.7,1.1-2.3,2.3c-0.9,1.5-1.3,3.2-1.3,4.9v2.5h-2v-31h2v2.6c0,3,0.9,5.2,2.6,6.5
	c1.1,0.9,3.9,1.3,8.3,1.3h47c3.7,0,6.1-0.2,7.3-0.7c0.9-0.4,1.6-1.1,2.3-2.2c0.9-1.6,1.3-3.2,1.3-4.9v-2.6h2v31h-2v-2.5
	c0-1.7-0.4-3.3-1.2-4.9c-0.6-1.1-1.4-1.9-2.6-2.3c-1.1-0.4-3.5-0.6-7.1-0.6H39.7c0.7,0.7,2.9,3.2,6.8,7.3
	c9.7,10.6,16.2,17,19.5,19.2c1.4,1,2.7,1.4,3.8,1.4c0.8,0,1.5-0.4,2.2-1.1c0.6-0.8,0.9-2,0.9-3.8v-1.7h2v26.7h-2
	c0-1.6-0.2-3-0.6-4.3c-0.4-1.3-1.2-2.9-2.3-4.7c-1.1-1.9-2.9-4.1-5.4-6.9c-0.7-0.8-4.4-4.4-11-10.9L42.5,174.3z M76.5,265.6H51.4v-2
	c4.8-0.6,8.7-1.8,11.5-3.5c2.9-1.7,5.1-4,6.8-7.1c1.7-3.1,2.5-6.3,2.5-9.5c0-3.7-1.1-6.8-3.4-9.2c-2.3-2.4-4.9-3.6-7.7-3.6
	c-2.2,0-4.2,0.8-6.1,2.3c-2.7,2.2-6.3,7.5-10.7,15.8c-3.6,6.8-6.4,11.4-8.4,13.9c-1.9,2.5-4.2,4.4-6.9,5.7c-2.6,1.3-5.4,2-8.3,2
	c-5.5,0-10.2-2.1-14.2-6.4s-6-9.8-6-16.5c0-2.1,0.2-4.1,0.5-5.9c0.2-1.1,0.8-3.4,2-6.9c1.1-3.5,1.7-5.7,1.7-6.6
	c0-0.9-0.3-1.6-0.8-2.1c-0.5-0.5-1.6-0.9-3.3-1.2v-2h24.9v2c-5.2,0.9-9.1,2.2-11.7,3.8c-2.6,1.6-4.7,4-6.5,7.2
	c-1.7,3.2-2.6,6.8-2.6,10.6c0,4.5,1.2,8,3.5,10.6c2.4,2.6,5.1,3.9,8.4,3.9c1.8,0,3.6-0.5,5.4-1.5c1.8-1,3.5-2.5,5.1-4.6
	c1.1-1.4,3.4-5.2,6.8-11.4c3.5-6.2,6.3-10.6,8.3-13.3c2.1-2.6,4.4-4.6,6.9-6c2.5-1.4,5.3-2,8.3-2c5.2,0,9.7,2,13.5,6
	c3.8,4,5.7,9.1,5.7,15.3c0,3.9-0.9,7.9-2.8,12.3c-0.9,2-1.3,3.4-1.3,4.2c0,0.9,0.3,1.7,0.8,2.3c0.6,0.6,1.7,1.1,3.4,1.4V265.6z
	 M36.2,315.3H15c-4.6,0-7.4,0.5-8.5,1.5c-1.6,1.4-2.4,3.4-2.4,6.2v2.8h-2v-31.1h2v2.7c0,3.1,1,5.3,3,6.6c1.1,0.7,3.7,1.1,7.9,1.1h47
	c4.6,0,7.4-0.5,8.5-1.4c1.6-1.4,2.4-3.5,2.4-6.2v-2.7h2v26.6c0,6.5-0.7,11.6-2,15.4c-1.3,3.8-3.6,6.9-6.8,9.5
	c-3.2,2.6-6.9,3.9-11.3,3.9c-5.9,0-10.8-2-14.5-5.9c-3.7-3.9-5.6-9.4-5.6-16.6c0-1.7,0.1-3.6,0.4-5.7
	C35.3,319.8,35.7,317.6,36.2,315.3z M39.3,315.3c-0.4,1.9-0.6,3.6-0.8,5s-0.3,2.7-0.3,3.8c0,3.7,1.4,6.9,4.3,9.6
	c2.9,2.7,6.6,4,11.2,4c3.1,0,6.1-0.6,8.8-1.9c2.7-1.3,4.7-3.1,6.1-5.5c1.3-2.4,2-5,2-8c0-1.8-0.3-4.2-1-7H39.3z M22.3,411.3
	l-0.4,1.8l-19.7-6.2v-56.3h2v2.7c0,3.1,1,5.3,3,6.6c1.1,0.8,3.8,1.1,7.9,1.1H62c4.5,0,7.4-0.5,8.5-1.5c1.6-1.4,2.4-3.5,2.4-6.2v-2.7
	h2v32.9h-2c0-3.9-0.3-6.6-1.1-8.1c-0.8-1.6-1.7-2.6-2.8-3.2c-1.1-0.6-3.9-0.9-8.2-0.9H15.1c-3,0-5,0.3-6.1,0.9
	c-0.8,0.4-1.3,1.1-1.7,2s-0.5,3.7-0.5,8.4v5.3c0,5.6,0.4,9.5,1.2,11.7c0.8,2.3,2.3,4.3,4.4,6.2C14.5,407.5,17.8,409.4,22.3,411.3z
	 M26.5,460.1V432L15,427.1c-2.8-1.2-4.9-1.8-6.3-1.8c-1.1,0-2.1,0.5-2.9,1.6c-0.8,1.1-1.4,3.3-1.6,6.8h-2v-22.9h2
	c0.5,3,1.2,5,2.1,5.9c1.7,1.8,5.2,3.8,10.5,6.1l59.8,25.6v1.9L16,475.4c-4.9,2-8,3.9-9.5,5.5s-2.3,4-2.4,6.9h-2v-28.7h2
	c0.1,2.9,0.6,4.9,1.4,5.9s1.8,1.5,3,1.5c1.6,0,4.1-0.7,7.5-2.1L26.5,460.1z M30.5,458.6l29.4-12.3l-29.4-12.6V458.6z M76.5,549.8
	l-24.7,1.7v-1.7c7.4-2.2,12.7-5.4,16-9.5c3.3-4.1,4.9-9,4.9-14.8c0-4.8-1.2-9.2-3.7-13.1c-2.4-3.9-6.4-7-11.7-9.2s-12-3.3-20-3.3
	c-6.6,0-12.3,1.1-17.1,3.2c-4.8,2.1-8.5,5.3-11.1,9.5c-2.6,4.2-3.9,9.1-3.9,14.5c0,4.7,1,8.9,3,12.5c2,3.6,6,7.6,12,11.9l-1.1,1.7
	C12.7,549.4,8,545.2,5,540.3S0.5,529.7,0.5,523c0-12,4.5-21.4,13.4-28c6.6-4.9,14.5-7.4,23.5-7.4c7.3,0,13.9,1.6,20,4.9
	c6.1,3.3,10.8,7.7,14.1,13.4c3.3,5.7,5,11.9,5,18.7c0,5.3-1.3,10.4-3.9,15.5c-0.8,1.5-1.2,2.6-1.2,3.2c0,1,0.3,1.8,1,2.5
	c1,0.9,2.3,1.6,4,2V549.8z M70.9,574.3H42.1v16c0,4.1,0.6,6.9,1.9,8.3c1.6,1.9,4.5,2.9,8.7,3.1v2H27.4v-2c3.5-0.5,5.8-1,6.8-1.5
	c1.3-0.6,2.2-1.7,2.9-3.2c0.7-1.5,1.1-3.7,1.1-6.8v-16h-24c-3.2,0-5.2,0.1-5.9,0.4c-0.7,0.3-1.3,0.8-1.7,1.5
	c-0.4,0.7-0.6,2.1-0.6,4.1v12.3c0,4.1,0.3,7.1,0.9,8.9c0.6,1.9,1.7,3.6,3.4,5.4c2.2,2.2,5.6,4.5,10,6.8v2.1l-18.2-6.3v-56h2v2.6
	c0,1.7,0.4,3.3,1.2,4.9c0.6,1.1,1.4,1.9,2.6,2.3c1.1,0.4,3.5,0.6,7,0.6h47.2c4.6,0,7.4-0.5,8.5-1.4c1.4-1.3,2.1-3.4,2.1-6.4v-2.6h2
	v56l-15.9,0.8v-2.1c3.8-0.8,6.4-1.6,7.9-2.5c1.4-0.9,2.5-2.3,3.3-4c0.5-1.4,0.8-3.9,0.8-7.6V574.3z M74.8,696.5l-17,0.8v-2
	c3-0.4,5.1-0.9,6.4-1.6c2.1-1.1,3.6-2.6,4.6-4.4c1-1.8,1.5-4.3,1.5-7.3v-10.2H14.8c-4.5,0-7.3,0.5-8.4,1.4c-1.5,1.4-2.3,3.4-2.3,6.3
	v2.5h-2v-30.8h2v2.6c0,3.1,0.9,5.3,2.8,6.5c1.1,0.8,3.8,1.2,7.8,1.2h55.5v-8.7c0-3.4-0.3-5.8-0.8-7.2c-0.7-1.9-2-3.4-3.9-4.8
	c-1.9-1.3-4.5-2.1-7.8-2.4v-2l17,0.9V696.5z M26.5,735.9v-28.1L15,702.9c-2.8-1.2-4.9-1.8-6.3-1.8c-1.1,0-2.1,0.5-2.9,1.6
	c-0.8,1.1-1.4,3.3-1.6,6.8h-2v-22.9h2c0.5,3,1.2,5,2.1,5.9c1.7,1.8,5.2,3.8,10.5,6.1l59.8,25.6v1.9L16,751.3c-4.9,2-8,3.9-9.5,5.5
	s-2.3,4-2.4,6.9h-2v-28.7h2c0.1,2.9,0.6,4.9,1.4,5.9s1.8,1.5,3,1.5c1.6,0,4.1-0.7,7.5-2.1L26.5,735.9z M30.5,734.4l29.4-12.3
	l-29.4-12.6V734.4z M4.1,793.4h-2v-31.1h2v2.6c0,3,0.9,5.2,2.6,6.5c1.1,0.9,3.9,1.3,8.3,1.3h47c3.7,0,6.1-0.2,7.3-0.7
	c0.9-0.4,1.7-1.1,2.3-2.2c0.9-1.6,1.3-3.2,1.3-4.9v-2.6h2v31.1h-2v-2.6c0-3-0.9-5.1-2.6-6.5c-1.1-0.9-3.9-1.3-8.3-1.3H15
	c-3.7,0-6.1,0.2-7.3,0.7c-0.9,0.4-1.7,1.1-2.3,2.3c-0.9,1.5-1.3,3.2-1.3,4.9V793.4z M74.8,789.1v19.7l-54.5,44.4h41.9
	c4.5,0,7.3-0.5,8.4-1.5c1.5-1.3,2.2-3.4,2.2-6.3V843h2v25.3h-2v-2.6c0-3.1-0.9-5.3-2.8-6.5c-1.1-0.8-3.7-1.2-7.8-1.2H1V856
	l58.5-47.9H14.8c-4.5,0-7.3,0.5-8.4,1.4c-1.5,1.4-2.3,3.4-2.3,6.3v2.6h-2v-25.3h2v2.5c0,3.1,0.9,5.3,2.8,6.6
	c1.1,0.8,3.8,1.2,7.8,1.2h50.5c2.5-2.1,4.1-3.7,4.9-4.8c0.8-1.1,1.5-2.7,2.2-4.8c0.3-1,0.5-2.6,0.5-4.7H74.8z M26.5,914.6v-28.1
	L15,881.5c-2.8-1.2-4.9-1.8-6.3-1.8c-1.1,0-2.1,0.5-2.9,1.6c-0.8,1.1-1.4,3.3-1.6,6.8h-2v-22.9h2c0.5,3,1.2,5,2.1,5.9
	c1.7,1.8,5.2,3.8,10.5,6.1l59.8,25.6v1.9L16,929.9c-4.9,2-8,3.9-9.5,5.5c-1.4,1.7-2.3,4-2.4,6.9h-2v-28.7h2c0.1,2.9,0.6,4.9,1.4,5.9
	s1.8,1.5,3,1.5c1.6,0,4.1-0.7,7.5-2.1L26.5,914.6z M30.5,913.1l29.4-12.3l-29.4-12.6V913.1z M74.8,936.7v19.7l-54.5,44.4h41.9
	c4.5,0,7.3-0.5,8.4-1.5c1.5-1.3,2.2-3.4,2.2-6.3v-2.5h2v25.3h-2v-2.6c0-3.1-0.9-5.3-2.8-6.5c-1.1-0.8-3.7-1.2-7.8-1.2H1v-1.9
	l58.5-47.9H14.8c-4.5,0-7.3,0.5-8.4,1.4c-1.5,1.4-2.3,3.4-2.3,6.3v2.6h-2v-25.3h2v2.5c0,3.1,0.9,5.3,2.8,6.6
	c1.1,0.8,3.8,1.2,7.8,1.2h50.5c2.5-2.1,4.1-3.7,4.9-4.8c0.8-1.1,1.5-2.7,2.2-4.8c0.3-1,0.5-2.6,0.5-4.7H74.8z"/>
</svg>
