<svg viewBox="0 0 1842 150" fill="none" stroke="#FFF" xmlns="http://www.w3.org/2000/svg">
<path d="M18.9,8.8c-2.2-2.1-8.3-3.1-18.4-3.1v-5c24.6,1.3,94.6-5,110.8,9.2c23,19.8,11.1,54-19,58.6
	c9.1,1.7,16.6,4.3,22.5,7.7c19.8,10.7,21.1,41,4.8,56.7c-16.9,21.6-91.7,12-119.1,14v-5c19.1-0.6,22.1-2.9,22.5-18.6
	C21.2,116.4,27.3,10.7,18.9,8.8L18.9,8.8z M50.6,66c12,0.4,29.7,0.3,36.6-8.7c9.3-7.9,8.8-39.9,0-45.5c-6.2-5.8-26.6-9-34.1-3.5
	C47.9,12.3,51.6,59.9,50.6,66z M50.6,125.9c-0.7,22,33.4,18.9,43.1,6.3c9.3-8.6,9.3-46.3-1.5-53C83.4,71,64.1,70.5,50.6,71V125.9z
	 M169.3,9.7c-2.3-2.6-8.5-3.9-18.4-3.9v-5C188,5,277-16,277,39.5c0.3,21.1-16.2,34-36.4,37.9c12,14.6,32.5,59.5,51.6,65.5v5h-35.7
	l-40.9-68.5h-14.2c1.5,9.4-4.2,53.1,4.8,59.5c3.2,2.7,10.5,4,21.9,4v5h-77.1v-5c16.1-0.8,22.5-1.1,22.7-16.2
	C171.9,118,177.9,14,169.3,9.7L169.3,9.7z M201.4,74.5c13,0,31.7,1.8,40.1-9.6c8.5-7.9,9.1-42.6-1.7-50.4c-8-8.5-27.4-12.2-35.7-4.8
	C198.5,16.1,202.5,65.7,201.4,74.5z M366,1.2c0.1-0.2,0.3-0.6,0.4-0.7h5.3l53.9,118.2c3.3,7.8,14.8,23,23.9,23.2v5h-71.2v-5
	c36.8,1.5,15.6-21.1,9-39h-53.9l-8.7,23.6c-6.7,17,5,14.3,25.8,15.5v5h-46.8v-5c7.2-0.6,11.8-7.2,14.7-14.2
	C318.5,127.5,366.1,1.4,366,1.2z M335.2,97.9h49.7l-27.4-59.6L335.2,97.9z M586.4,148.9l-2.8-2.8l-93-114.9
	c1.7,10.6-4.2,99.4,3.9,106c2.8,3.2,9.2,4.8,19.1,4.8v5h-49v-5c19-0.5,19.1-3.3,19.5-19.7c-1.2-6.8,3.3-110.2-3.3-112.7
	c-2-2.7-8.1-4-18.4-4v-5h42.3l78.8,98.1c-1.6-8.4,4.3-85.6-4.2-90.2c-2.1-2-8.3-2.9-18.6-2.9v-5H611v5c-9.7,0-15.3,0.9-16.9,2.8
	c-8.4,1.8-2.3,133.8-4.1,140.5H586.4z M644.4,9c-1.8-2.2-7.2-3.3-16-3.3v-5c61.4,0.4,142.3-13.4,141.4,72.9
	c-0.1,85.9-77.6,73.6-139.7,73.6v-5c15.4-0.5,18.4-2.1,18.8-15.8C647,116.7,653.4,14.2,644.4,9L644.4,9z M677,126.4
	c0,12.2,6,15.5,18,15.8c36.4-2.4,44-29.5,44.6-68.3c-0.6-37.5-9.1-66.4-44.7-68.3c-12,0.5-17.8,3.2-17.9,14.6
	C677,20.2,677,126.4,677,126.4L677,126.4z M1841.1,0.8H773.8V10h1067.4V0.8z"/>
</svg>
