<svg width="797" height="126" viewBox="0 0 797 126" fill="none" xmlns="http://www.w3.org/2000/svg">
<path d="M13.2841 7.75355C11.8095 6.35899 7.71258 5.66505 1 5.66505V2.35547H44.2381C59.4715 2.43554 69.7072 4.48401 74.9451 8.49421C80.1831 12.6712 82.8054 18.3629 82.8054 25.5692C82.8054 32.7756 79.8161 38.8743 73.8375 42.8912C70.6413 44.9396 66.7913 46.4943 62.294 47.5619C68.3526 48.7096 73.3504 50.4311 77.2805 52.7198C84.4068 56.8968 87.9699 63.5293 87.9699 72.6173C87.9699 79.3299 85.4677 85.3085 80.4766 90.5531C74.6649 96.7786 63.7686 99.888 47.8012 99.888H1V96.5718C8.5333 96.4917 12.9572 95.304 14.265 93.0086C15.4127 91.0402 15.9865 88.0976 15.9865 84.1675V15.3736C15.9865 11.8505 15.0857 9.31493 13.2841 7.76023V7.75355ZM34.4094 45.9605H43.0103C50.0499 45.8805 55.3345 43.9521 58.8576 40.1888C61.8869 36.9126 63.4016 32.0416 63.4016 25.5692C63.4016 17.382 61.8869 12.1441 58.8576 9.84873C55.2544 7.06628 50.3835 5.67172 44.2381 5.67172C40.1411 5.67172 37.4388 6.2856 36.1309 7.51334C34.9833 8.66102 34.4094 10.6294 34.4094 13.4119V45.9605ZM34.4094 85.8757C34.4094 89.4788 35.3903 92.0611 37.3587 93.6158C39.5673 95.5842 43.0504 96.5651 47.8012 96.5651C54.2669 96.485 59.3847 94.3164 63.1547 90.0527C66.1841 86.6163 67.6987 80.8379 67.6987 72.7308C67.6987 63.6428 65.8571 57.6241 62.1739 54.6749C57.5832 51.0717 51.1975 49.2701 43.0103 49.2701H34.4094V85.8757Z" stroke="white" stroke-miterlimit="10"/>
<path d="M151.859 1C165.865 1.08007 177.816 5.83092 187.724 15.2459C196.892 24.0069 201.483 35.7573 201.483 50.4969C201.483 65.2366 196.445 77.6408 186.377 87.7164C177.535 96.4774 166.192 100.861 152.353 100.861C138.348 100.781 126.684 96.2706 117.349 87.3494C107.28 77.6075 102.242 65.8171 102.242 51.9715C102.242 37.2319 107.033 24.9077 116.615 14.999C125.53 5.67078 137.287 1 151.859 1ZM122.627 51.9715C122.707 67.285 125.616 79.0354 131.348 87.2226C136.179 94.102 143.178 97.5383 152.353 97.5383C160.954 97.5383 167.747 94.2221 172.745 87.5896C178.309 80.3032 181.099 67.9389 181.099 50.4969C181.099 34.6096 178.476 23.1061 173.238 15.9799C167.587 8.19967 160.467 4.30958 151.866 4.30958C143.025 4.38965 136.099 8.03286 131.108 15.2392C125.456 23.6733 122.634 35.9174 122.634 51.9649L122.627 51.9715Z" stroke="white" stroke-miterlimit="10"/>
<path d="M252.361 89.4388C256.618 93.2088 262.557 95.0904 270.17 95.0904C278.438 95.0904 284.583 92.635 288.593 87.724C293.344 81.9923 295.72 75.6467 295.72 68.6872V15.7406C295.72 12.3843 294.939 9.80203 293.384 8.00044C292.076 6.44574 287.692 5.66505 280.239 5.66505V2.35547H311.807V5.67172C306.569 5.75179 303.453 6.45241 302.472 7.76023C300.831 9.88877 300.017 12.5511 300.017 15.7406V68.8006C300.017 77.8086 297.681 85.1817 293.017 90.9068C287.199 97.7862 278.237 101.223 266.12 101.223C254.003 101.223 243.887 98.6402 237.255 93.4824C230.375 87.9975 226.939 81.0381 226.939 72.604V16.9683C226.939 13.205 226.038 10.1757 224.237 7.88033C223.089 6.4057 219.526 5.67172 213.554 5.67172V2.35547H262.931V5.67172C254.497 5.67172 249.626 6.45241 248.311 8.00711C246.429 10.0556 245.489 13.0449 245.489 16.975V72.6173C245.569 79.8237 247.864 85.4353 252.368 89.4455L252.361 89.4388Z" stroke="white" stroke-miterlimit="10"/>
<path d="M334.801 14.2646C330.704 19.2624 328.662 25.4878 328.662 32.9344H325.346V1.98047H408.872V32.9344H405.556C405.476 24.5804 403.054 17.9078 398.31 12.9168C394.873 9.31359 387.46 7.22509 376.077 6.65125V83.0519C376.077 88.4566 376.938 92.0598 378.659 93.8614C380.461 95.663 385.085 96.5638 392.538 96.5638V99.88H342.421V96.5638C349.954 96.5638 354.458 95.4561 355.933 93.2475C356.993 91.6928 357.527 88.2965 357.527 83.0519V6.65125C345.897 7.47197 338.324 10.0075 334.801 14.2646Z" stroke="white" stroke-miterlimit="10"/>
<path d="M470.8 2.35547V5.67172C463.02 5.67172 458.643 6.16549 457.655 7.14635C456.101 8.70106 455.32 10.9964 455.32 14.0257V82.9331C455.32 88.6648 456.221 92.4348 458.022 94.2364C459.744 95.9579 463.961 96.8187 470.673 96.8187V100.135H422.404V96.8187C429.364 96.8187 433.501 95.8378 434.809 93.8694C436.116 91.9877 436.777 88.3445 436.777 82.9398V14.0191C436.777 10.9097 435.916 8.57428 434.195 7.01958C433.047 6.11878 429.117 5.66505 422.404 5.66505V2.35547H470.8Z" stroke="white" stroke-miterlimit="10"/>
<path d="M533.716 1.36621C547.882 1.36621 559.919 6.19713 569.828 15.859C579.082 24.8669 583.706 36.7841 583.706 51.6038C583.626 66.0965 578.629 78.3006 568.72 88.2093C562.087 94.6817 554.06 98.772 544.645 100.494C545.379 103.85 547.842 107.533 552.012 111.55C556.923 116.301 562.368 118.716 568.346 118.796C571.949 118.716 576.82 117.769 582.966 115.974L584.073 118.676C574.085 122.686 565.851 124.735 559.385 124.815C550.864 124.648 543.131 122.726 536.171 119.043C529.045 115.113 523.48 108.44 519.463 99.0189C512.01 96.8103 505.458 92.9602 499.813 87.4754C489.744 77.8135 484.706 65.9831 484.706 51.9774C484.786 37.4046 489.537 25.1605 498.952 15.2518C507.633 5.99696 519.216 1.37288 533.716 1.37288V1.36621ZM505.097 51.9708C505.177 67.3643 508.087 79.1614 513.818 87.3486C518.809 94.3081 525.896 97.7911 535.07 97.7911C543.424 97.7111 550.097 94.4348 555.088 87.9625C560.573 80.7561 563.315 68.6388 563.315 51.6038C563.235 35.5563 560.573 23.846 555.328 16.4728C549.596 8.61259 542.39 4.68246 533.709 4.68246C525.108 4.76254 518.356 8.41242 513.445 15.6121C507.873 23.886 505.091 36.0034 505.091 51.9708H505.097Z" stroke="white" stroke-miterlimit="10"/>
<path d="M635.319 89.4388C639.576 93.2088 645.514 95.0904 653.128 95.0904C661.395 95.0904 667.54 92.635 671.55 87.724C676.301 81.9923 678.677 75.6467 678.677 68.6872V15.7406C678.677 12.3843 677.896 9.80203 676.341 8.00044C675.033 6.44574 670.65 5.66505 663.196 5.66505V2.35547H694.764V5.67172C689.526 5.75179 686.41 6.45241 685.429 7.76023C683.788 9.88877 682.974 12.5511 682.974 15.7406V68.8006C682.974 77.8086 680.638 85.1817 675.974 90.9068C670.156 97.7862 661.195 101.223 649.077 101.223C636.96 101.223 626.844 98.6402 620.212 93.4824C613.332 87.9975 609.896 81.0381 609.896 72.604V16.9683C609.896 13.205 608.995 10.1757 607.194 7.88033C606.046 6.4057 602.483 5.67172 596.511 5.67172V2.35547H645.888V5.67172C637.454 5.67172 632.583 6.45241 631.268 8.00711C629.387 10.0556 628.446 13.0449 628.446 16.975V72.6173C628.526 79.8237 630.821 85.4353 635.325 89.4455L635.319 89.4388Z" stroke="white" stroke-miterlimit="10"/>
<path d="M718.378 8.00044C716.824 6.44574 712.607 5.66505 705.727 5.66505V2.35547H788.267V30.607H784.95C784.95 24.5483 782.862 18.8967 778.685 13.6588C774.341 8.33407 765.5 5.67172 752.155 5.67172C744.702 5.67172 740.565 6.2856 739.751 7.51334C738.603 9.15479 738.029 11.3634 738.029 14.1459V48.783H747.611C752.769 48.783 756.986 46.4476 760.262 41.7835C762.884 37.9335 764.192 32.5287 764.192 25.5692H767.508V74.6992H764.192C764.112 67.6596 762.924 62.415 760.629 58.9787C757.353 54.3946 753.016 52.0993 747.611 52.0993H738.029V85.8757C738.029 89.5589 739.177 92.308 741.465 94.1029C744.001 95.9045 748.138 96.8053 753.87 96.8053C766.314 96.8854 774.915 94.4299 779.666 89.4388C784.417 84.5278 788.754 77.3615 792.684 67.9466H796L790.102 100.128H707.068V96.812C713.861 96.7319 717.918 95.5442 719.226 93.2488C720.127 91.6141 720.58 88.2111 720.58 83.0532V15.7406C720.58 12.1374 719.846 9.56181 718.372 8.00044H718.378Z" stroke="white" stroke-miterlimit="10"/>
</svg>
