<svg width="346" height="61" viewBox="0 0 346 61" fill="none" xmlns="http://www.w3.org/2000/svg">
<path d="M9.19152 3.11007C8.62834 2.57746 7.06365 2.31243 4.5 2.31243V1.0459H21.0133C26.8312 1.07648 30.7404 1.85882 32.7409 3.39039C34.7413 4.98566 35.7428 7.1594 35.7428 9.91163C35.7428 12.6639 34.6012 14.993 32.3179 16.5272C31.0972 17.3095 29.6268 17.9033 27.9092 18.311C30.2231 18.7493 32.1318 19.4068 33.6328 20.2809C36.3544 21.8762 37.7153 24.4092 37.7153 27.8801C37.7153 30.4437 36.7596 32.7271 34.8535 34.7301C32.6338 37.1077 28.4724 38.2952 22.3742 38.2952H4.5V37.0287C7.37709 36.9981 9.06665 36.5445 9.56613 35.6679C10.0044 34.9161 10.2236 33.7923 10.2236 32.2913V6.02029C10.2236 4.67476 9.87958 3.70638 9.19152 3.11261V3.11007ZM17.2596 17.6994H20.5444C23.233 17.6688 25.2513 16.9323 26.5968 15.4951C27.7537 14.2438 28.3322 12.3835 28.3322 9.91163C28.3322 6.7848 27.7537 4.78434 26.5968 3.9077C25.2207 2.84504 23.3604 2.31243 21.0133 2.31243C19.4487 2.31243 18.4166 2.54688 17.9171 3.01578C17.4788 3.45409 17.2596 4.20586 17.2596 5.26852V17.6994ZM17.2596 32.9462C17.2596 34.3223 17.6342 35.3085 18.386 35.9023C19.2295 36.6541 20.5597 37.0287 22.3742 37.0287C24.8435 36.9981 26.7981 36.1699 28.2379 34.5415C29.3949 33.2291 29.9734 31.0222 29.9734 27.926C29.9734 24.4551 29.27 22.1565 27.8633 21.0301C26.1101 19.654 23.6713 18.9659 20.5444 18.9659H17.2596V32.9462Z" stroke="white" stroke-miterlimit="10"/>
<path d="M47.5265 3.34444C46.9327 2.68696 45.368 2.35822 42.835 2.35822V1.09424H59.8172C65.5714 1.12482 69.6691 2.14161 72.1079 4.14462C74.0141 5.73989 74.9697 8.00793 74.9697 10.9462C74.9697 13.8844 73.8281 16.2646 71.5447 18.0765C70.0132 19.2666 68.056 20.1101 65.681 20.6095L73.563 32.5715C74.3148 33.6036 75.2985 34.7453 76.5191 35.9965C77.3626 36.8706 78.1297 37.3089 78.8177 37.3089V38.5755H69.7176L59.3024 21.1243H55.6914V33.1806C55.722 34.493 56.1297 35.5251 56.9121 36.2768C57.725 36.9649 59.5853 37.3089 62.4955 37.3089V38.5755H42.8401V37.3089C45.4037 37.3089 47.078 36.9165 47.8603 36.1367C48.3598 35.6066 48.6121 34.6204 48.6121 33.1806V6.72356C48.5815 5.25315 48.2196 4.12933 47.5341 3.34699L47.5265 3.34444ZM55.6889 19.8578H60.0975C62.5363 19.8578 64.4756 19.0449 65.9154 17.419C67.0087 16.2315 67.5566 14.0424 67.5566 10.8519C67.526 7.91364 66.8354 5.81634 65.4924 4.5651C63.8971 3.0947 62.0037 2.36077 59.8172 2.36077C58.1276 2.36077 56.986 2.68951 56.3922 3.34699C55.9233 3.87959 55.6889 5.00596 55.6889 6.72356V19.8578Z" stroke="white" stroke-miterlimit="10"/>
<path d="M97.6372 1.18858L97.6831 1.09429L97.729 1H99.0898L112.836 31.1165C113.429 32.4926 114.4 33.8534 115.743 35.1964C116.931 36.4171 117.996 37.0261 118.934 37.0261V38.2926H100.779V37.0261C103.751 37.0261 105.471 36.6031 105.94 35.7596C106.314 34.9772 106.205 33.9146 105.611 32.569L103.078 27.0799H89.3321L87.1278 33.0838C86.534 34.5542 86.4703 35.5404 86.9392 36.0399C87.5636 36.6974 89.8163 37.0261 93.6949 37.0261V38.2926H81.7788V37.0261C82.4669 36.9955 83.1396 36.6821 83.7971 36.0883C84.4852 35.4308 85.0636 34.5389 85.5325 33.4151L97.6372 1.23445V1.18858ZM89.8036 25.8159H102.469L95.4788 10.6175L89.8036 25.8159Z" stroke="white" stroke-miterlimit="10"/>
<path d="M153.798 38.81L153.095 38.1066L129.405 8.83367V32.0543C129.405 33.8993 129.734 35.1658 130.391 35.8539C131.11 36.6668 132.736 37.0746 135.269 37.0746V38.3411H122.79V37.0746C125.384 37.0746 126.888 36.6362 127.293 35.7596C127.604 35.1021 127.762 33.8687 127.762 32.0543V6.30061C127.762 5.17423 127.481 4.19057 126.918 3.34452C126.419 2.65646 124.854 2.31243 122.227 2.31243V1.0459H133.016L153.095 26.0504V5.97187C153.064 4.72063 152.702 3.75225 152.017 3.0642C151.484 2.56472 149.907 2.31243 147.279 2.31243V1.0459H160.085V2.31243C157.613 2.31243 156.176 2.54688 155.768 3.01578C155.08 3.76754 154.736 4.75121 154.736 5.97187V38.81H153.798Z" stroke="white" stroke-miterlimit="10"/>
<path d="M168.586 3.15849C168.117 2.5953 166.756 2.31498 164.503 2.31498V1.0459H181.437C187.941 1.0459 192.9 2.84504 196.307 6.44077C199.12 9.69502 200.53 14.0884 200.53 19.6234C200.53 25.1584 199.169 29.3021 196.447 32.5232C193.162 36.4324 188.175 38.387 181.483 38.387H164.924V37.1204C167.113 37.0898 168.458 36.7764 168.958 36.1826C169.457 35.5583 169.71 34.5262 169.71 33.0864V6.76951C169.71 5.23794 169.335 4.03257 168.583 3.15849H168.586ZM176.888 33.0864C176.888 34.4625 177.187 35.4309 177.78 35.9941C178.532 36.7458 179.766 37.1204 181.486 37.1204C185.145 37.0898 187.958 35.65 189.931 32.8035C191.87 30.2067 192.839 25.8465 192.839 19.7152C192.839 13.5838 191.697 8.91012 189.414 6.1579C187.474 3.59425 184.816 2.31243 181.44 2.31243C179.564 2.34301 178.28 2.75075 177.594 3.53309C177.125 4.0657 176.891 4.89392 176.891 6.02029V33.0889L176.888 33.0864Z" stroke="white" stroke-miterlimit="10"/>
<path d="M345 54.9541H0V59.9541H345V54.9541Z" stroke="white" stroke-miterlimit="10"/>
</svg>
