<svg width="400" height="97" viewBox="0 0 400 97" fill="none" xmlns="http://www.w3.org/2000/svg">
<path d="M262.97 56.761C264.252 55.3091 266.059 53.249 276.413 50.1293C276.413 50.1293 276.937 50.0509 277.248 49.5211C277.559 49.0699 277.617 48.5205 277.481 47.8338V47.6768C277.326 46.7547 277.17 46.1464 276.646 45.8521C276.277 45.6167 275.655 45.6167 274.839 45.8521C274.839 45.8521 274.684 45.7737 274.606 45.4794C274.373 44.4787 272.644 40.6724 269.089 40.9078C269.167 40.9078 268.254 40.7509 267.652 41.3591C267.127 41.8888 267.049 42.7325 267.282 43.949C267.729 45.0085 268.273 47.0686 267.652 47.7553C266.739 48.8933 260.017 53.7002 256.249 53.9357H256.171L256.093 54.0141C256.093 54.0141 255.782 54.2496 255.724 54.7793C255.724 55.3091 256.035 55.9958 256.851 56.604C259.046 58.5072 261.086 58.7426 262.523 57.2907L262.97 56.761Z" fill="#040000"/>
<path d="M276.179 57.8405C276.412 57.3892 276.412 56.9968 276.257 56.5455C275.888 55.7019 274.897 54.7208 274.062 54.4069C273.226 54.1715 272.391 54.4069 271.653 54.7208L270.973 54.9563C269.982 55.2702 268.933 55.486 267.942 55.643L266.505 55.7215L266.427 56.0354C266.427 57.036 266.66 57.5658 267.418 58.174C268.176 58.7822 269.011 59.4689 270.138 59.5474C271.264 59.6259 272.41 59.6259 273.537 59.3905C274.295 59.312 275.732 58.7822 276.179 57.8601V57.8405Z" fill="#040000"/>
<path d="M273.382 61.725L273.226 61.6465H273.149C273.149 61.6465 267.787 62.706 265.67 62.2547L265.145 62.0977L265.301 62.6275C265.301 62.6275 265.903 65.3743 270.74 66.061C270.895 66.061 273.537 66.2965 275.188 65.8256H275.266L275.344 65.7471C275.344 65.7471 276.101 64.9819 275.946 64.0009C275.635 63.1572 274.819 62.3136 273.382 61.7053V61.725Z" fill="#040000"/>
<path d="M275.966 74.1634L276.277 73.7121L277.112 72.1817C277.267 71.809 277.423 71.4166 277.423 71.1223C277.423 70.8868 277.423 70.671 277.267 70.514C277.034 69.8273 276.432 69.2191 275.461 68.7678L274.936 68.4539C274.256 68.0811 273.499 67.6887 272.741 67.7672C271.828 67.9242 271.071 68.4539 270.391 68.9837L269.633 69.5134L267.224 71.1223C266.7 71.495 266.234 71.809 266.389 72.1817C266.467 72.633 266.991 72.7115 267.147 72.79L268.506 72.9469H270.099L270.332 73.0254C270.332 73.0254 270.177 73.3393 269.342 74.0261L269.264 74.1045C269.264 74.1045 268.215 74.8697 267.982 75.0267C267.904 75.0267 267.671 74.8697 267.457 74.4969C267.011 73.4374 266.175 72.5153 265.185 71.7501C264.349 71.0634 263.456 70.5336 262.698 70.6906L262.096 71.0634C261.94 71.2988 261.94 71.5147 261.94 71.7501C261.94 72.3583 262.251 72.9666 262.465 73.4374L263.067 74.3596C263.436 74.8893 263.747 75.4191 264.058 75.9684C264.582 77.3419 264.66 78.7153 264.66 80.1672V81.6191L264.738 82.3843C265.049 83.3849 266.408 84.2089 267.224 84.4444C267.749 84.6013 268.215 84.5229 268.506 84.2874C268.739 84.1305 269.031 83.6792 269.031 82.914V82.8355C269.031 82.0703 268.953 81.2267 268.798 80.4026C268.798 80.4026 268.953 80.0887 269.711 80.0298L271.906 79.6571L272.275 79.5786L272.799 79.5001L273.712 79.3431L274.082 79.2646C274.451 79.2646 274.839 79.1862 275.131 78.9507C275.733 78.5779 275.733 77.8912 275.733 77.3419V76.1254L275.5 75.5957C275.448 75.491 275.422 75.4125 275.422 75.3602C275.577 74.8305 275.791 74.5166 275.947 74.2222L275.966 74.1634Z" fill="#040000"/>
<path d="M277.85 42.4963C278.607 43.6343 279.889 45.6159 279.967 46.0083C280.122 46.5381 280.2 54.0918 280.2 58.9773V59.1342L280.278 59.2127C280.725 59.7425 282.084 61.3513 283.075 61.5083C283.231 61.5868 283.386 61.6652 283.6 61.5083C283.969 61.3513 284.28 60.9001 284.28 58.6045L283.969 45.4786L283.891 45.4001C283.58 44.9488 281.171 40.6716 278.899 40.7501C278.743 40.7501 278.141 40.9071 277.908 41.3583C277.752 41.6722 277.597 41.9665 277.83 42.4963H277.85Z" fill="#040000"/>
<path d="M287.815 45.6955C287.135 46.4607 286.378 47.069 285.542 47.5202C285.018 47.8341 284.416 48.2069 284.105 48.6582C283.658 49.5019 284.474 50.1101 285.018 50.4829L285.173 50.5614C286.455 51.562 287.291 51.405 288.65 51.0911H288.884L291.156 50.7183H291.836C292.594 50.6398 293.429 50.6398 294.031 50.1101C294.789 49.4234 294.634 48.3639 294.401 47.5987L294.323 46.5981C294.401 45.5386 295.08 44.4595 295.605 43.6158L296.052 43.0076C296.499 42.3993 297.042 41.6342 297.042 40.712C297.042 39.7899 296.44 38.9658 295.314 38.2006C294.711 37.8278 294.031 37.3569 293.196 37.1411C293.118 37.1411 291.312 36.5329 290.923 37.455C290.554 38.5145 289.408 39.3582 288.514 40.1234L288.359 40.2019C287.077 41.2025 285.717 42.105 284.357 42.8702L284.124 42.9487V43.1842C284.124 43.4196 284.28 43.6354 284.435 43.7924C285.037 44.2436 286.319 44.0278 287.524 43.7139L287.835 43.6354C288.514 43.4785 288.961 43.4785 289.039 43.5569V43.8709C288.961 44.3221 288.514 45.0088 287.835 45.6955H287.815Z" fill="#040000"/>
<path d="M293.624 52.1111C293.624 52.1111 290.38 53.7984 288.495 54.6225C286.689 55.3876 285.018 55.4661 285.018 55.4661H284.571L284.649 55.7016L284.727 56.3883C285.174 57.1535 287.136 57.9187 287.971 58.0756C289.02 58.3111 290.613 57.9187 290.691 57.8402C292.419 57.3889 294.459 57.2319 295.897 57.075L296.946 56.9965C298.072 56.918 298.675 56.1528 298.83 55.6231C298.985 55.2503 298.908 54.8579 298.675 54.6225L297.839 53.6218L296.79 52.3269C295.955 51.2674 293.702 52.0915 293.624 52.0915V52.1111Z" fill="#040000"/>
<path d="M304.891 76.5186C303.764 75.8319 302.773 75.3806 301.724 74.9097L300.364 74.3015L298.772 73.6933C296.499 72.8496 293.41 71.7901 293.857 69.6515L294.459 67.7483C294.983 66.2964 295.586 64.6287 295.061 63.0983C294.614 61.9604 293.546 61.1167 292.944 60.7243C292.497 60.4104 292.031 60.1945 291.429 60.1161C291.429 60.1161 290.302 60.0376 290.146 60.4888L290.069 60.7243L290.224 60.9597C290.904 61.7249 290.535 63.8635 290.302 65.0015L290.224 65.3743C289.855 67.5129 289.466 67.7483 289.389 67.7483C289.389 67.7483 289.311 67.7483 289.233 67.6698C288.107 66.6104 286.883 65.5312 285.834 64.3148L285.387 63.7066C285.076 63.2553 284.785 62.7844 284.105 62.5686C283.658 62.3332 283.056 62.2547 282.143 62.2547C281.385 62.2547 279.579 63.1768 279.112 64.1578C278.879 64.6091 279.035 65.08 279.346 65.3743C279.792 65.8256 280.336 66.1395 280.861 66.3749L281.172 66.5319L281.774 66.8458C282.901 67.454 283.891 68.3762 284.804 69.8281L286.009 71.7312L286.164 71.9667C286.164 71.9667 286.475 72.4964 286.533 72.5749C285.931 74.1053 282.687 76.0869 277.617 77.9901H277.539C276.412 78.3629 276.257 78.8338 276.257 79.1281V79.285L276.335 79.442L276.49 79.5205C283.056 81.6591 288.651 78.0686 289.855 77.2249C293.021 80.5015 296.343 83.8565 301.336 83.0913C302.851 82.8559 305.26 82.0907 305.784 81.561C306.231 81.1097 306.464 80.266 306.309 79.2654C306.153 78.1274 305.551 76.9698 304.871 76.5186H304.891Z" fill="#040000"/>
<path d="M315.382 51.2664L317.946 53.3265L318.179 53.1696C318.334 53.0126 319.849 51.9531 320.529 50.9525C320.84 51.1879 321.209 51.7177 321.287 52.8557V53.3854C321.287 55.2101 321.054 57.9569 320.976 58.2708C320.898 58.5063 320.529 59.3303 320.529 60.2525C320.529 60.5664 320.607 60.8607 320.685 61.1746C320.762 61.3316 321.734 62.7835 323.035 63.3917C323.113 63.4702 323.56 63.843 324.084 63.7056C324.609 63.5487 324.92 63.0189 325.075 62.0183C325.386 60.2721 325.677 57.7411 325.677 55.524C325.677 53.5424 325.444 51.855 324.687 51.031C323.56 49.6576 322.958 48.8139 322.725 48.4411C322.88 48.2841 323.171 47.7544 323.171 47.7544L327.173 42.1038C327.173 42.1038 327.542 41.4171 327.542 40.4949C327.542 39.5728 327.231 38.5133 326.027 37.4342L325.347 36.8259C323.23 34.9228 321.345 33.3139 320.063 34.4519L319.908 34.6088V34.8443C319.908 34.8443 320.141 38.7291 319.306 40.7107C318.548 42.6139 316.741 45.6747 314.468 47.8133C314.313 47.8917 313.944 48.343 313.944 48.8727C313.944 49.6379 314.391 50.4816 315.382 51.2468V51.2664Z" fill="#040000"/>
<path d="M351.048 63.8639L350.97 63.7854C350.212 63.3341 349.377 62.7848 348.775 62.9417L347.26 63.2557L344.462 63.8639C343.18 64.0993 340.072 64.5506 338.265 63.7854C338.188 63.6285 337.508 62.7259 337.216 62.0981C337.585 62.0196 338.052 61.9411 338.052 61.9411L339.781 61.6272L340.227 61.5487C341.218 61.3917 342.5 61.1759 342.714 60.4107C342.714 60.3323 342.792 60.2538 342.792 60.1753C342.792 59.5671 342.267 59.0373 341.879 58.6449L341.801 58.5664C341.276 57.9582 340.674 57.5069 339.917 57.193L338.926 57.1145C338.693 57.1145 338.168 57.1145 338.09 57.0361V56.8006C338.142 56.696 338.22 56.6437 338.324 56.6437L338.693 56.5652C340.053 56.1924 340.81 55.5645 340.888 54.819V54.662C340.888 53.524 339.004 52.7588 337.935 52.3664V52.131L338.09 52.0525C339.004 51.7386 340.441 51.2088 340.81 50.3063C340.888 50.1494 340.966 49.9335 340.966 49.7766C340.966 49.6196 340.966 49.4038 340.81 49.2468C340.441 48.4032 339.373 47.8734 338.615 47.5595L338.537 47.481C338.693 47.0297 340.732 45.9506 341.412 45.5778L342.403 45.0481C342.928 44.5968 343.161 44.1259 343.161 43.6747C343.161 43.5962 343.161 43.5177 343.083 43.4392C342.85 42.5171 341.49 42.3013 340.286 42.0658L339.839 41.9873C339.314 41.8304 338.79 41.8304 338.401 41.9873C338.479 41.8304 340.072 39.6133 339.004 38.0241C338.09 36.6506 336.362 33.9823 331.525 34.2177H331L331.233 34.7475C331.913 36.3563 332.593 39.0247 332.146 39.6329L331.913 39.9468L332.282 40.1823C332.593 40.4177 335.371 42.1639 336.439 42.2424C337.042 42.3209 337.488 42.2424 337.799 42.2424C337.488 42.3994 337.197 42.5563 336.964 42.6937L336.128 43.1449C333.856 44.2829 331.816 45.1266 329.932 45.8133C328.572 46.2646 327.97 46.343 327.97 46.343L327.445 46.4215L327.678 46.9513C328.358 48.2462 330.767 48.6386 332.282 48.8544L333.273 49.0899L333.351 49.1683V49.2468C333.351 49.4038 333.273 49.6981 333.195 49.8551C332.748 50.3848 330.786 51.15 330.106 51.4639L329.796 51.6209L329.873 51.9937C330.184 52.9158 331.544 53.1316 332.515 53.2886L333.195 53.4456C333.195 53.4456 333.273 53.4456 333.351 53.6025V53.838C333.351 54.2107 333.195 54.6032 333.04 54.7601C332.807 54.9956 332.36 54.9956 331.991 55.074L331.544 55.1525H331.389C330.942 55.231 330.398 55.3095 330.106 55.6823L330.029 56.369C330.262 57.3696 331.758 57.5069 332.593 57.5854H332.904C332.904 57.5854 332.981 57.8209 332.981 57.9582C332.981 58.2721 332.904 58.6449 332.826 58.8019C332.515 59.2531 330.942 59.4101 330.106 59.4886L329.116 59.6455L328.805 59.724C328.436 59.8025 327.814 59.881 327.814 60.5677V60.6462C327.892 61.4899 329.174 62.0981 329.621 62.3335C330.67 62.7848 331.738 63.6285 331.738 64.2367C331.738 64.6095 330.825 64.6879 330.456 64.6879H330.301C329.174 64.6879 327.95 64.7664 326.668 65.0019L323.269 65.7671C321.986 66.081 320.627 66.4538 319.267 66.6107C316.994 66.8462 314.818 66.2968 312.992 65.8455L311.108 65.3943C309.301 65.0803 308.544 65.2373 308.466 65.2373L308.155 65.3158V65.5512C307.844 68.8278 310.35 70.731 311.322 71.4962L311.555 71.6531C312.39 72.3398 313.361 72.0259 313.361 72.0259C317.363 69.5145 329.912 67.7487 332.243 67.4544C332.321 68.3765 332.321 70.6525 332.321 72.4968V74.4C332.243 75.6949 331.796 75.9303 330.359 75.8519H329.601C328.611 75.8519 327.562 75.8519 326.649 75.6164C326.649 75.6164 326.416 75.5379 326.338 75.5379V75.0082C326.338 74.3215 326.105 73.7917 325.891 73.1835L325.736 72.9481C325.289 72.0259 325.211 71.6531 325.211 71.4962V71.5746L324.609 71.1234C324.162 71.7316 323.56 72.2613 322.938 72.8107L322.336 73.3405L321.501 74.1056C320.976 74.7139 320.374 75.2436 319.694 75.5575L318.936 75.793C318.49 75.8715 318.023 75.95 317.577 76.3227C317.577 76.3227 316.295 77.6962 316.741 78.3044C317.577 79.3639 319.772 81.7379 322.705 81.7379C323.754 81.7379 324.376 80.3645 324.823 79.305L325.133 78.6968C325.444 78.0886 325.58 78.167 326.571 78.5398L326.726 78.6183L327.406 78.9322C328.611 79.462 329.893 79.9917 330.728 80.9139L331.408 81.836C331.777 82.3658 332.166 82.8955 332.768 83.3664C333.759 84.0531 334.574 84.2101 335.41 83.8177C337.819 82.6797 338.362 77.2645 338.44 76.6367C338.44 76.6367 338.751 69.3968 338.809 67.7879H344.773C345.375 67.8664 345.9 68.1019 346.502 68.3177L347.551 68.6905C348.386 68.9259 349.358 69.1417 350.504 69.2202C351.708 69.2987 353.301 69.1417 353.748 68.2981C353.981 67.8468 353.903 67.2386 353.515 66.6107C352.835 65.3158 352 64.4721 350.951 63.8639H351.048Z" fill="#040000"/>
<path d="M341.081 73.1641L340.635 73.2426L340.79 73.6153C340.79 73.6153 343.063 78.8736 343.354 79.6388V79.7172L343.432 79.7957C343.879 80.1685 345.102 81.3261 345.472 81.8558L345.549 81.9343C345.705 82.3071 346.151 82.5426 346.598 82.5426C347.2 82.5426 347.958 82.0913 348.405 81.0122C348.852 79.9527 349.765 77.4217 349.396 76.2837C349.085 75.3615 345.394 72.1635 341.081 73.1641Z" fill="#040000"/>
<path d="M210.773 53.3286L211.686 53.564C212.21 53.6425 212.89 53.7995 212.968 54.0938C213.045 54.702 211.608 60.1957 210.17 65.0026L210.85 65.3165C211.006 65.1596 211.375 64.6298 211.608 64.3944C211.919 64.159 212.657 63.9431 212.968 63.7862C214.017 63.5507 215.454 60.8824 217.883 54.7805L218.193 54.0938C218.193 54.0938 218.951 52.2691 219.106 51.9552C220.835 50.4248 221.301 49.5223 221.301 48.8944C221.301 48.659 221.224 48.4431 221.146 48.2077L221.068 48.0507C220.913 47.4425 220.155 46.7558 219.029 45.8337L218.873 45.7552C217.96 44.99 216.154 44.99 215.92 44.99H215.765L212.89 47.2856C211.841 48.2077 207.606 49.8754 207.606 49.9539L207.451 50.0324L207.373 50.1893C207.295 50.3463 207.218 50.6406 207.373 51.033C207.898 52.0925 210.093 53.0931 210.773 53.3286Z" fill="#040000"/>
<path d="M235.016 73.7717C235.016 73.4578 235.093 67.2774 235.093 67.2774C235.093 67.2774 235.326 67.1205 235.851 67.199L238.124 67.4344L241.446 67.6698C242.436 67.6698 242.883 67.2186 243.039 66.9046C243.408 66.2964 243.272 65.2958 242.728 64.4717C242.203 63.7065 241.29 62.8629 240.241 62.9414L237.152 63.3926C237.152 63.3926 235.637 63.6281 235.19 63.7066C235.113 63.3926 234.957 62.8629 234.957 62.4901C234.957 62.2547 235.035 62.1173 235.113 62.0388C235.424 61.8034 236.026 61.8034 236.628 61.7249C237.541 61.6464 238.435 61.568 238.901 60.9597C239.056 60.7243 239.134 60.43 239.134 60.1945C239.134 59.9591 239.056 59.8217 238.978 59.5863C238.454 58.7426 236.783 58.1344 236.103 58.2914C235.657 58.3699 235.113 58.3699 234.821 58.3699V58.2129C234.744 57.9774 234.744 57.6831 234.744 57.4477V57.2123C234.821 57.0553 235.424 56.8983 235.734 56.8395L236.181 56.6825C237.463 56.2312 238.901 55.623 239.056 54.7009V54.5439C239.056 54.3085 238.978 53.9357 238.532 53.6218C237.852 53.0135 236.414 53.092 235.21 53.092H234.685C234.608 52.7192 234.53 51.7971 234.452 51.4047C235.288 51.2477 237.852 51.0319 238.221 51.0319C240.707 50.8749 242.669 51.0319 244.418 51.5616C244.942 51.7186 245.855 51.0319 246.011 50.6395C246.38 49.9528 246.011 49.423 245.7 49.0306C245.098 48.187 243.738 46.7351 242.456 46.7351H240.785C241.096 46.2838 241.387 45.8129 241.465 45.2832V44.9104C241.465 43.9097 240.785 43.0857 240.261 42.399L240.105 42.242C239.192 41.1825 237.988 40.0249 235.87 40.7901C235.424 40.9471 234.957 41.1041 234.433 41.2414C234.433 40.8686 234.355 40.5547 234.355 40.2408C234.355 39.9268 234.355 39.6325 234.433 39.3971L234.802 38.1806C235.035 37.5724 235.249 36.9642 235.249 36.2775C235.249 35.5908 235.016 34.9041 234.2 34.2174C232.005 32.3142 229.071 30.9408 228.916 30.9408C228.683 30.8623 227.478 30.7053 226.798 31.2547C226.565 31.4901 226.429 31.7844 226.429 32.0984V32.2553C226.429 32.2553 227.342 34.5509 227.42 36.9053C227.42 36.9053 227.653 43.1642 227.731 43.6154C227.129 43.8509 226.002 44.2237 225.244 44.0667C224.409 43.8313 223.36 44.3806 222.68 44.9104C222.233 45.2832 221.922 45.6756 221.922 45.9699C221.922 46.5781 222.525 47.9515 227.886 48.03C227.886 48.3439 227.809 48.8737 227.439 49.0895C227.07 49.4034 225.244 49.8547 223.729 50.3059L220.932 51.1496L220.854 51.3066C220.854 51.3066 220.699 51.542 220.699 51.8363C220.699 51.9933 220.699 52.1502 220.776 52.2876C221.087 53.1313 222.058 53.8964 223.729 54.5832L223.807 54.6616H223.962C224.72 54.4262 226.76 53.8964 227.731 53.818C227.731 54.0534 227.809 54.1907 227.809 54.4262C227.809 54.9559 227.731 55.4268 227.575 55.4857C227.206 55.7996 225.303 56.0939 224.254 56.2509L223.574 56.3293L223.496 56.4078C223.496 56.4078 222.894 56.8591 222.894 57.33C222.894 57.33 222.92 57.3823 222.971 57.4869C223.127 58.1737 223.962 58.4091 224.642 58.5464C226.371 58.8604 227.362 58.9977 227.886 58.9977C227.886 59.1547 227.964 59.3116 227.964 59.449C227.964 59.8218 227.886 60.1357 227.731 60.2142L226.293 60.3711C224.254 60.5281 223.341 60.685 223.049 61.1363C222.971 61.2933 222.894 61.4502 222.894 61.666V61.98C223.049 62.5882 223.807 63.1179 224.409 63.4319C225.244 63.8047 227.362 64.1186 228.119 64.1971C228.275 64.5698 228.352 64.9622 228.352 65.2566C228.352 65.4135 228.352 65.492 228.275 65.5705C227.595 65.8844 223.069 66.7084 222.233 66.4926L221.631 66.2572L221.709 66.8654C221.709 66.8654 221.942 67.9249 223.379 68.6116C224.584 69.2198 226.934 69.2983 228.294 69.0629V72.261C227.459 71.947 220.446 69.4357 219.902 69.2002C220.058 68.6705 220.271 67.5129 220.582 66.8262L220.66 66.7477C220.815 66.3749 220.971 65.904 220.971 65.4527C220.971 64.3148 220.135 62.8629 216.969 61.0186L216.813 60.9401L216.658 61.0186C216.134 61.1755 214.929 61.5483 214.929 62.3135V62.392L215.24 63.2357C215.473 63.6869 215.687 64.2363 215.687 64.6876V64.923L215.531 65.6097C215.376 66.3749 215.007 68.3565 214.696 68.592C214.541 68.6705 213.414 68.749 212.501 68.9059C211.063 69.0629 209.412 69.2198 208.655 69.5141L208.499 69.5926L208.421 69.7496C208.266 69.985 208.188 70.3578 208.188 70.6717C208.188 71.2015 208.421 71.7312 209.101 72.0451L210.306 72.5749C210.986 72.8888 212.423 73.497 212.656 73.7913C212.21 74.635 209.412 79.285 205.624 82.1103L205.546 82.1888C205.546 82.1888 205.391 82.4242 205.391 82.6401C205.391 82.7186 205.469 82.8755 205.469 82.954C205.702 83.3268 206.304 83.3268 206.673 83.2679H206.906C208.344 83.111 212.112 82.8167 218.387 74.792C218.62 74.7135 220.349 74.3407 224.739 76.8521C229.654 79.7559 237.58 83.7977 240.299 84.7198H240.455C241.057 84.7198 254.364 84.1901 255.102 76.1654L255.18 75.7141H254.733C247.254 75.4002 236.065 75.0274 235.093 73.7325L235.016 73.7717ZM234.336 46.3819C234.413 45.7737 234.413 45.3224 234.413 45.087C234.86 44.6357 235.462 44.4787 235.929 44.4002C235.618 44.8515 235.016 45.6167 234.336 46.3819Z" fill="#040000"/>
<path d="M398.33 50.2859C398.563 49.3638 398.641 48.4613 398.699 47.5391C398.854 46.2442 398.932 45.1062 399.612 43.8701L399.69 43.7917V43.6347C399.612 42.4182 399.165 41.7315 398.641 41.1233L398.33 40.672C395.979 37.2385 393.648 35.5512 387.976 36.3164C386.091 36.6303 384.207 36.6891 382.226 36.8461C380.186 37.0031 378.146 37.0815 375.951 37.3758C374.514 37.6113 373.309 37.9056 372.105 38.298C370.298 38.8277 368.55 39.2986 366.355 39.2986H366.122L365.811 39.9069V39.9853C365.888 41.2018 366.724 41.8885 367.404 42.4182L367.637 42.5752C370.123 44.6353 372.027 43.7132 374.067 42.7322C374.824 42.3594 375.66 41.967 376.553 41.7315C376.553 41.967 376.631 42.7322 376.631 42.948C376.262 43.2619 375.796 43.4777 375.349 43.7132C374.824 44.0271 374.222 44.3214 373.678 44.7138L373.523 44.8708V45.636L374.436 46.2442C375.116 46.6954 375.796 47.2448 376.845 47.3037L376.922 47.3822C376.922 47.6176 376.845 48.3828 376.845 48.6771C376.534 48.8341 373.367 50.4233 373.367 50.4233L373.523 50.7372C374.203 52.0322 375.407 51.7378 376.398 51.5809C376.398 51.5809 376.631 51.5024 376.922 51.5024C376.476 52.4246 375.873 53.1897 375.038 53.798L374.883 53.8765V54.4847L374.96 54.5632C375.329 55.1714 376.009 55.3283 376.631 55.3283C376.631 55.5638 376.631 56.0151 376.553 56.329L376.242 56.4859C375.873 56.7214 375.407 56.9372 375.193 57.4866C375.038 57.1727 374.883 56.9568 374.747 56.6429L374.222 55.6423L373.62 53.9549C373.387 53.1897 373.173 52.4246 372.629 51.4435L372.474 51.2081H372.396C372.318 51.0511 372.163 50.7568 372.163 50.7568L372.085 50.6784C371.25 49.2265 370.201 49.3049 369.055 49.3049L368.006 49.3834V50.8353L369.21 52.0518C370.123 52.9739 371.017 53.8765 371.561 55.1714C371.872 55.9366 371.93 56.6233 372.085 57.31L372.454 59.2132C372.61 59.6644 372.901 60.0568 373.134 60.2726C373.29 60.4296 373.445 60.6454 373.581 60.8024C373.134 60.8809 370.861 61.4106 370.861 61.4106L370.784 61.5676C370.706 61.7245 370.628 61.9404 370.628 62.0973C370.628 62.4112 370.784 62.784 370.997 63.1568C371.522 63.922 372.668 64.6872 373.562 64.6872C373.406 64.8442 373.251 65.0011 373.193 65.2169C373.037 65.4524 372.882 65.5897 372.746 65.6682C371.308 66.3549 366.549 66.9631 365.422 66.2764C365.111 65.9625 365.267 64.5891 365.267 63.6081L365.345 61.9992L365.189 60.253C364.956 57.8201 364.742 54.3866 365.034 52.7777L365.189 50.4037L365.345 48.1081V48.0296C364.975 45.8125 362.392 43.3796 360.507 43.3796H360.274L360.197 43.6151C360.119 43.772 360.119 43.9879 360.119 44.3018C360.119 44.9885 360.352 46.1265 360.566 47.6568C360.935 49.56 361.401 51.8556 361.401 53.7587C361.401 54.2885 361.323 54.6809 361.323 55.1321C361.323 55.3676 361.401 58.7226 361.401 58.7226L361.246 69.7885L360.935 71.3973C360.488 73.6144 360.099 75.596 360.099 76.734C360.099 77.0479 360.1 77.2638 360.177 77.4207L361.013 80.3245C361.459 81.2467 362.062 81.8549 362.683 82.4631L363.81 83.7581H364.49L364.567 83.6011C365.772 82.1492 366.083 80.9327 366.083 79.5593C366.083 78.9511 366.005 78.3429 366.005 77.7346L365.85 74.615L365.927 73.3986C366.005 72.6334 366.005 72.0252 366.005 71.4954C366.005 70.8872 365.927 70.4359 365.772 70.122C366.374 70.4948 367.132 71.0441 367.132 71.0441C369.094 71.9663 372.046 70.4359 373.853 69.5138C375.057 72.0252 376.417 73.0258 377.777 72.496H377.855L377.933 72.4176C378.535 71.8093 378.768 71.0441 378.768 70.2005C378.768 69.3568 378.535 68.5131 378.243 67.9049C379.001 67.3752 380.808 67.0612 381.876 66.9828C382.109 68.5131 382.323 69.8081 382.323 71.1815C382.323 72.0252 382.245 72.8688 382.09 73.6929C381.934 73.7714 381.721 74.0068 381.565 74.1441H381.332V73.9872H380.885V74.1441C380.516 74.1441 380.128 74.0657 380.128 74.0657C379.292 73.9872 378.457 73.8302 377.641 73.9872L377.272 74.0657L377.35 74.4384C377.505 75.3606 378.107 75.8903 378.632 76.4201C379.001 76.7929 379.312 77.1068 379.545 77.5581C377.272 77.715 375.31 78.0878 373.348 78.4802L373.115 78.5587C372.435 78.7157 371.677 78.6372 370.997 78.6372C369.793 78.5587 368.511 78.4802 367.598 79.4808L367.365 79.7163L367.52 80.0302C368.356 81.0897 369.638 82.0903 370.92 82.5416C371.969 82.9144 372.882 82.6986 373.795 82.5416C374.475 82.3846 375.077 82.2277 375.679 82.3062C375.757 82.3062 380.438 81.9334 380.438 81.9334C383.158 81.4821 386.033 82.1688 388.073 82.6201L388.753 82.777L389.277 82.3258C389.51 82.1688 389.724 81.953 389.957 81.7175V81.796L390.715 83.2479C391.162 84.1701 391.55 85.1511 392.444 85.6808C393.357 86.2106 394.406 86.1321 395.474 85.3669C397.203 84.1505 398.641 81.5606 398.641 79.7163C398.641 79.4808 398.641 79.265 398.563 79.1081C398.116 77.1264 398.116 75.0663 398.116 72.9277C398.116 71.0245 398.116 69.1214 397.747 67.1986C397.669 66.5904 397.592 66.0606 397.592 65.4524C397.592 64.4518 397.669 63.5492 397.825 62.5486C397.98 61.4106 398.058 60.253 398.058 58.9581V58.8011L397.902 54.7594L397.825 53.6214L397.98 52.091L398.291 50.2663L398.33 50.2859ZM374.844 64.3929C375.893 64.079 376.961 63.4707 378.088 62.941C379.525 62.1758 381.041 61.4106 382.614 61.1948C382.614 61.1948 382.692 61.5676 382.692 61.7245C382.536 61.7245 382.323 61.6461 382.09 61.6461H381.779C381.779 61.6461 381.41 63.098 381.332 63.2549C380.497 63.4119 379.661 63.6277 378.768 63.8631C377.33 64.3144 375.893 64.7853 374.844 64.3929ZM381.721 54.1708C381.487 54.3277 381.196 54.4847 380.885 54.5435V54.3866C381.332 54.1511 381.721 53.8568 382.012 53.3859C381.857 53.6999 381.701 54.0727 381.701 54.1511L381.721 54.1708ZM381.487 51.5024C381.332 51.4239 381.177 51.3454 381.118 51.267C381.118 51.0315 381.196 50.3448 381.274 50.0505C381.585 49.972 382.109 49.8151 382.109 49.8151C382.478 49.7366 382.867 49.5796 383.314 49.5796C383.08 50.2663 382.478 52.091 382.401 52.3265C382.245 51.8752 381.798 51.5613 381.487 51.4828V51.5024ZM382.012 58.291C381.701 58.448 381.41 58.6049 381.021 58.6638H380.944C381.021 58.3499 381.021 58.2125 381.021 57.9771C381.332 57.8986 381.623 57.8201 382.012 57.7416V58.2714V58.291ZM376.437 59.8214V59.9783C376.281 60.0568 375.912 60.0568 375.835 60.0568C375.757 59.2132 375.679 58.5264 375.465 57.9182C376.223 58.448 376.456 58.6834 376.456 59.8214H376.437ZM390.249 78.441C389.413 77.146 387.529 76.3024 386.169 76.0669C386.325 75.3017 386.402 74.0853 386.402 72.6334C386.402 70.2593 386.247 67.5125 386.033 66.2961C386.713 65.9233 387.762 66.1391 388.753 66.2961C390.035 66.5315 391.395 66.7473 392.23 65.9821C393.143 64.8442 391.317 62.784 390.715 62.1758L390.559 62.0188H390.113C390.113 62.0188 390.035 62.0188 390.035 62.0973C389.666 62.0188 389.355 61.9404 389.044 61.9404V61.6264H388.889V61.9404C387.976 61.9404 387.16 62.1758 386.538 62.4701H386.461C386.616 61.7834 386.694 61.0967 386.694 60.4885C386.694 59.3505 386.325 58.3499 385.101 57.8986V57.8201C385.178 57.5847 386.091 55.3872 386.091 55.3872C386.849 53.4056 387.684 51.3454 388.889 50.129L389.044 50.0505V49.8151C389.044 48.4416 388.209 46.8328 387.082 46.0087C386.402 45.479 385.567 45.2436 384.887 45.4005C384.285 45.5575 383.45 45.9303 382.692 46.3227C382.692 46.3227 381.779 46.6955 381.643 46.7739H381.565V46.4011C381.721 46.3227 381.934 46.0872 381.934 46.0872C382.847 45.479 384.129 44.6353 384.129 43.6543V43.5758C384.129 43.1246 383.819 42.6537 383.372 42.2809C383.139 41.967 382.77 41.9081 382.459 41.8296C382.226 41.7512 382.012 41.7512 381.934 41.5942L381.701 40.986C381.623 40.672 381.468 40.4562 381.332 40.1423C381.857 40.0638 384.129 39.6126 384.129 39.6126C386.091 39.0828 388.053 39.2986 389.724 40.2993C391.608 41.4372 392.891 43.36 393.434 45.7929C393.668 47.0094 393.804 48.3828 393.804 49.8347C393.804 52.5815 393.434 55.6423 393.046 58.3891C392.968 59.0758 392.891 59.7625 392.891 60.4492V64.7264C392.813 65.8644 392.735 66.865 392.735 67.8461C392.735 68.7682 392.735 69.5922 392.813 70.4359C392.813 71.2796 392.891 72.0448 392.891 72.8688C392.891 74.3207 392.813 75.7726 392.444 77.3619C392.288 77.5188 392.211 77.7346 392.211 77.8916V78.0486C392.055 78.6568 391.686 79.1081 391.22 79.5789C391.064 79.7359 390.851 79.9517 390.695 80.1872V79.8732C390.773 79.422 390.54 78.8726 390.249 78.4213V78.441Z" fill="#040000"/>
<path d="M111.797 71.3392L111.874 71.1822C112.321 68.6708 112.321 67.2189 111.874 66.9835C111.797 66.905 111.564 66.8265 111.272 66.9835C111.272 66.9835 109.912 67.9841 109.155 68.5139C109.155 67.7487 109.077 66.905 109.077 66.1398C109.077 64.9234 109.155 63.8443 109.31 63.55C109.757 62.6278 111.874 61.1759 112.71 60.7246L112.943 60.5677L112.787 60.2538C112.787 60.2538 111.272 57.5854 109.757 57.0557V56.8202C109.757 55.8196 109.835 53.6221 110.592 52.4645C110.592 52.386 110.748 52.0917 110.748 51.5424C110.748 50.5417 110.146 48.7171 106.901 46.6569C106.746 46.5785 103.346 45.0481 101.618 46.0487C101.093 46.3626 100.705 46.8924 100.627 47.6576L100.549 48.1088L100.996 47.9519C100.996 47.9519 101.229 47.8734 101.52 48.1088C101.89 48.4228 102.569 49.3253 102.725 52.4645L102.88 54.9759C102.958 55.8981 103.036 56.9576 103.036 57.8012C103.036 58.331 103.036 58.7234 102.88 58.8607C102.511 59.3905 99.4807 61.5291 97.6741 62.1373C97.5964 62.1373 96.392 62.4512 96.1589 63.1968C96.0812 63.2753 96.0812 63.4322 96.0812 63.5107C96.0812 63.6677 96.1589 63.962 96.3143 64.1974V64.2759L96.392 64.3544C96.5474 64.4329 100.161 66.7284 101.754 67.3367C101.831 67.7094 102.278 69.2398 102.278 70.9272C102.278 71.6139 102.2 72.3006 101.967 72.8303C101.598 73.1442 98.8785 75.4987 95.848 75.9499C95.6926 75.9499 94.7213 76.1069 94.4882 76.8721C94.4882 76.9506 94.4105 77.1075 94.4105 77.186C94.4105 77.6373 94.7213 78.1866 95.2458 78.7164C97.1302 80.6196 98.5677 81.6202 98.5677 81.6202L98.49 81.5417L99.0922 81.8556C99.7721 81.9341 100.53 81.4828 101.501 80.5607L103.852 78.4221C106.649 76.2835 110.048 73.3012 111.777 71.3196L111.797 71.3392Z" fill="#040000"/>
<path d="M151.989 78.2066C151.834 78.1281 141.111 71.9477 138.702 68.6711C138.857 67.906 139.693 63.8642 139.693 61.4313C139.693 61.1174 139.693 60.823 139.615 60.5091C139.304 58.449 137.731 53.4851 137.342 52.7199C137.342 52.406 137.498 48.4427 139.46 47.9914C139.46 47.9914 140.295 47.9129 140.586 47.3047C140.664 47.1478 140.742 46.9319 140.742 46.775C140.742 46.3237 140.509 45.7155 139.984 45.0288C139.906 44.7149 139.304 42.2819 135.225 40.987C135.069 40.987 133.787 40.83 133.34 41.7522C133.263 41.9092 133.185 42.125 133.185 42.3604C133.185 43.2041 133.787 44.2636 134.992 45.7155C135.361 46.4022 136.041 47.6971 136.041 48.1484C136.041 49.2079 135.361 60.8819 134.759 63.4129C133.554 61.4313 131.281 57.3895 131.281 55.8591C131.437 55.4864 133.243 51.9743 134.448 50.7383C134.525 50.6598 135.205 49.8946 135.205 48.8351C135.205 48.5212 135.128 48.2269 134.972 47.9129C134.972 47.9129 133.845 45.2446 130.582 46.618C130.057 46.9908 128.775 47.9129 128.173 48.1484C128.018 47.9129 127.649 47.2262 127.124 44.7933L125.531 37.9263C125.531 37.9263 125.22 35.1009 120.092 33.4332C120.014 33.4332 118.208 32.825 116.925 32.9035C116.615 32.9035 116.168 33.1389 116.012 33.5902C116.012 33.6687 115.935 33.7471 115.935 33.9041C115.935 34.2769 116.168 34.6693 116.692 35.199C117.139 35.5718 117.295 35.8857 117.528 36.337L117.683 36.5725L119.49 40.006C121.452 43.5965 124.404 49.0117 124.56 50.0712V50.3066C124.56 50.5421 124.404 51.1503 123.569 51.994C122.132 53.3674 118.052 57.6446 117.761 58.0174C117.683 58.0958 117.528 58.0958 117.528 58.0174C117.528 58.0174 117.45 57.9389 117.45 57.7819L117.528 56.8598C117.605 56.0161 117.761 55.2509 117.372 54.7212C116.925 54.1914 114.284 52.1313 113.526 52.1313C112.768 52.0528 111.486 52.1313 111.408 52.975V53.1319L111.486 53.2104C111.486 53.2104 117.295 62.9813 111.855 74.2629C111.855 74.4199 111.408 76.2445 108.3 76.323H107.62L108.067 76.8528C108.592 77.5395 110.107 79.3642 110.418 80.1294C110.418 80.1294 110.573 80.8161 111.331 81.0515C112.088 81.3654 113.06 80.973 114.361 80.0509C114.517 79.8939 116.556 77.304 117.081 74.0275C117.236 74.0275 117.45 74.1059 118.13 74.5572L122.578 77.3825C122.578 77.3825 124.307 78.599 126.347 76.3819C128.309 74.2433 130.582 70.9667 131.417 68.2199C131.786 68.8281 132.175 69.5148 132.175 69.9661V70.123C131.942 71.1825 131.262 73.8705 127.785 77.8338L127.26 78.5205L128.095 78.442C128.251 78.442 132.544 77.8338 135.73 74.5572C136.565 75.4009 139.887 78.599 144.491 81.2673C144.569 81.3458 146.764 82.7977 150.921 81.7971C151.601 81.7186 153.951 81.4831 154.165 80.4237C154.087 79.5015 153.407 78.8933 151.97 78.2066H151.989ZM128.193 61.3528H127.435C127.59 60.98 127.746 60.7446 127.882 60.4307C127.959 60.5876 128.115 60.9604 128.193 61.3528ZM126.464 65.473C126.464 66.4737 125.861 68.4553 122.753 71.5749C121.627 71.8104 118.985 72.2616 117.761 71.8889C118.887 70.5154 123.278 65.473 126.289 64.7863C126.289 64.8648 126.444 65.1003 126.444 65.473H126.464ZM117.916 61.4313C118.674 60.8231 124.638 56.0946 125.628 55.2509C125.628 55.4079 125.706 55.6237 125.706 55.9376V56.0161C123.666 59.5281 119.509 63.5699 117.994 64.9433V64.5705C117.994 63.9623 117.994 62.8832 117.916 61.4509V61.4313Z" fill="#040000"/>
<path d="M169.745 62.4116L170.347 61.7249L171.338 60.5084C171.338 60.5084 171.862 59.4489 171.862 58.7622C171.862 58.5268 171.862 58.3894 171.707 58.311C171.552 58.0755 171.396 57.997 171.105 58.0755C170.658 58.154 169.143 58.9977 168.385 59.5274V58.9192C168.385 58.2325 168.463 57.5458 168.754 57.2319C169.201 56.7806 169.881 56.3097 170.483 55.8584L171.318 55.2502C171.765 54.9363 171.998 54.5635 171.998 54.1122C171.998 53.8768 171.921 53.661 171.843 53.4255L171.61 52.8173L170.93 51.3654C170.561 50.7572 170.172 50.6787 169.803 50.6002L169.201 50.3648C169.046 50.2863 168.832 49.6781 168.754 49.3053C168.754 49.1483 168.676 48.9914 168.676 48.854C168.676 48.0888 168.987 47.1667 169.279 46.48L169.434 46.1072L169.589 45.7344C169.745 45.3616 169.9 44.9692 169.9 44.5964C169.9 44.361 169.823 44.0667 169.667 43.7528L168.987 42.7521L168.91 42.5952C167.783 41.1433 166.19 40.0838 164.908 39.2401C164.597 39.1616 162.946 38.6319 162.11 39.3186C161.741 39.6325 161.586 40.0838 161.664 40.692L161.741 41.0059L162.11 40.9275C162.11 40.9275 162.188 40.9274 162.421 41.0059C162.732 41.3199 163.47 42.3793 163.548 46.4996C163.548 46.4996 163.393 51.6793 163.393 52.2287C163.082 52.6015 160.362 55.8192 156.224 56.2705C155.855 56.4274 155.389 56.7217 155.389 57.2711C155.389 58.1932 156.594 59.1743 159.158 60.3319C159.158 60.3319 161.353 61.8622 163.762 59.7236C163.839 59.8021 163.839 59.8806 163.839 60.0964V60.4103C163.839 61.254 163.684 62.7059 163.606 63.0002C163.082 63.4515 158.012 67.6502 156.205 68.5723C156.283 68.5723 154.923 68.8078 154.165 69.3375C153.563 69.7888 152.805 71.3977 152.961 72.6141C153.039 73.2223 153.33 73.7521 153.952 73.9875L154.107 74.066C155.778 74.8312 159.469 76.4989 160.148 77.1268C160.828 77.7546 163.626 81.1685 163.626 81.247C163.626 81.247 164.228 82.1692 165.141 82.0907C165.821 82.0907 166.501 81.5609 167.025 80.5603L167.783 79.2654C168.696 77.735 169.065 77.1268 169.065 75.9888C169.065 74.7723 168.618 65.4527 168.54 64.3148C168.23 64.3932 169.745 62.4901 169.745 62.4901V62.4116ZM163.548 68.0622C163.548 69.2787 163.47 71.8097 163.237 73.1831C163.159 73.9483 162.926 74.1837 162.79 74.2426C162.635 74.3211 162.557 74.2426 162.557 74.2426H162.402C161.353 74.3211 159.838 73.0261 159.313 72.4179C159.313 71.6527 161.353 69.6711 163.548 68.0622Z" fill="#040000"/>
<path d="M199.349 65.3938C196.474 60.3514 195.348 60.0571 194.435 59.8217L194.124 59.7432C193.211 59.4293 186.567 60.0571 184.236 60.2729C184.683 59.7432 185.149 59.2134 185.285 59.0565C186.412 59.6647 187.325 59.8217 188.005 59.5077C188.685 59.1938 188.762 58.4482 188.762 58.4482C188.84 58.2128 189.753 51.2084 189.811 49.4426C189.87 47.6767 191.773 40.4369 191.773 40.3584C192.978 37.69 191.249 36.8464 191.249 36.8464C191.327 36.8464 188.082 33.9426 188.082 33.9426C187.713 33.6287 186.723 33.8641 186.276 34.0211H186.12C184.916 35.0217 177.651 38.985 177.592 39.0635L176.912 39.4362L177.67 39.6717C180.021 40.4369 182.954 39.1419 184.702 38.3767L185.227 38.1413C185.674 37.9059 186.14 37.9059 186.354 37.9843C186.664 38.1413 186.723 38.3571 186.723 38.3571V38.4356C186.8 38.5926 186.8 38.8869 186.8 39.3578C186.8 42.1046 185.751 49.8153 185.363 51.4046C185.285 51.9343 185.13 52.1698 185.13 52.2482C183.77 51.5615 181.963 53.0919 181.575 53.3862C181.575 53.3862 181.523 53.3601 181.419 53.3077C181.419 52.935 181.575 51.6204 181.575 51.6204C181.652 50.9337 182.177 50.8552 183.245 50.7767C184.081 50.6983 185.13 50.6983 185.44 49.7172V49.4033C185.44 49.0305 185.285 48.6381 185.071 48.3438L184.994 48.1084L184.916 47.9514C184.838 47.716 184.761 47.5002 184.391 47.3432C183.945 47.1862 183.401 47.2647 182.954 47.3432C182.507 47.4217 182.119 47.5002 181.827 47.3432C181.672 47.1862 181.594 47.0293 181.983 46.3426C182.138 46.0286 183.032 45.6559 183.576 45.4989L184.022 45.3419L184.333 45.185C185.013 44.9495 185.771 44.5767 185.926 43.6546C186.004 43.1248 185.926 42.2812 185.324 41.8299C184.333 40.9862 183.362 41.3786 182.449 41.6729C181.924 41.8299 181.4 42.0457 180.856 41.9869C180.312 41.928 179.943 41.6141 179.496 41.2217C178.972 40.8489 178.369 40.378 177.612 40.2995H177.534C176.699 40.2211 174.97 40.0641 174.368 40.9078C174.212 41.1432 174.135 41.359 174.135 41.5945C174.135 41.8299 174.135 41.9673 174.212 42.2027L174.659 42.7324C175.184 43.1052 176.174 43.9489 176.932 47.8533C177.087 48.4615 177.087 49.835 177.087 51.2084C177.087 52.8957 177.01 54.6419 176.854 55.2501C176.699 55.7799 174.737 56.702 173.008 57.2318H172.93L172.852 57.3103C172.697 57.4672 172.697 57.6831 172.697 57.84C172.697 57.9185 172.697 58.0755 172.775 58.1539C173.144 59.1546 175.261 59.9786 176.174 60.371C175.65 61.0577 173.901 62.2742 172.406 63.1963C171.415 63.8046 170.521 64.4128 169.997 65.0995C169.628 65.5508 169.472 65.9432 169.472 66.3944V66.6299C169.55 67.1596 169.919 67.6894 170.521 68.2387C172.114 69.3767 173.241 68.6115 174.523 67.8659L174.834 67.6305L176.194 66.7084L178.078 65.4919C178.389 65.3349 178.447 65.2565 178.525 65.2565V65.5704C178.525 65.8058 178.156 66.1786 178 66.4925L177.767 66.728L176.33 68.4153C175.65 69.1805 174.892 70.0242 174.368 70.9267L173.532 71.9862C173.008 72.5944 172.542 73.1242 172.542 73.5951C172.542 73.6735 172.542 73.752 172.619 73.909C172.852 74.3602 173.455 74.3602 173.979 74.3602C175.339 74.2818 177.223 74.1248 178.428 73.4381C179.943 72.5944 180.914 71.221 181.905 69.9261L182.352 69.3178C183.401 67.9444 184.469 66.4925 185.305 64.8837C185.46 64.5698 185.751 64.3539 185.984 64.3539C186.14 64.3539 186.295 64.4324 186.431 64.5894C186.664 64.9033 186.431 65.2761 186.198 65.8058L186.043 66.1197C185.596 67.1204 185.052 68.0229 184.314 69.0235C182.041 72.3001 179.185 75.2039 176.077 77.421C175.32 77.9507 173.513 79.3242 173.668 80.0109C173.668 80.0894 173.824 80.3248 174.193 80.3837C178.505 80.8349 179.321 80.8349 182.799 78.245C182.876 78.1666 183.032 78.1666 183.168 78.1666C183.692 78.245 184.372 79.1672 184.683 79.6969C186.12 82.4438 188.238 82.3653 188.316 82.3653C193.308 81.7571 196.164 77.9311 196.319 77.7938L196.397 77.7153V77.6368C196.708 76.4989 197.834 74.9685 198.961 73.5951L200.321 71.7704C201.681 69.5533 199.408 65.5115 199.33 65.3546L199.349 65.3938ZM191.657 62.1761C194.901 62.7843 196.047 66.6103 196.105 68.8862V68.9647C196.105 71.1818 192.181 74.9096 191.113 75.7533C190.278 76.3615 188.471 76.7539 186.043 76.6754C184.994 76.6754 184.527 76.5185 184.236 76.44C185.227 75.4394 186.956 72.4767 189.151 68.8077L190.666 66.2963C191.579 64.8444 191.793 63.7065 191.793 62.9413C191.793 62.7058 191.715 62.4115 191.637 62.1761H191.657Z" fill="#040000"/>
<path d="M67.602 51.4255C62.4736 44.7154 51.8864 51.2685 51.5173 51.347L51.8281 52.1122C52.0613 52.0337 55.9853 52.8774 59.6762 57.6844C61.1915 59.666 62.3182 61.4907 62.629 64.316C62.8621 67.1413 64.591 70.1236 66.8638 72.1837C69.6612 74.7736 73.7406 75.009 79.4713 71.7324L79.7821 70.9673C71.1764 69.8293 70.7879 65.7875 70.3411 60.5882C70.108 57.6059 69.8166 54.1723 67.6215 51.4255H67.602Z" fill="#E26F11"/>
<path d="M62.5518 74.8531C64.4361 66.6126 52.7222 62.4924 52.4309 62.1785L52.0618 62.8652C52.2172 63.1006 54.1015 66.6126 52.7417 72.5576C52.2172 74.9905 51.4596 77.0506 49.4975 78.9734C47.4578 80.955 46.3311 84.2316 46.098 87.2924C45.9426 91.0987 48.2154 94.5322 54.4123 96.9063L55.1699 96.6708C50.6437 89.1955 53.4993 86.3702 57.2096 82.7797C59.3271 80.6411 61.8136 78.2082 62.5712 74.8531H62.5518Z" fill="#E26F11"/>
<path d="M41.3185 85.604C48.8752 81.8565 44.6404 70.1236 44.7181 69.7312L43.8828 69.8882C43.8828 70.1236 42.2898 73.8515 36.8506 76.5198C34.5777 77.5793 32.538 78.3445 29.8184 78.0502C27.021 77.6774 23.6992 78.8154 21.2904 80.64C18.2016 82.8571 17.0555 86.8989 19.0952 93.2362L19.7751 93.609C22.6502 85.3685 26.6519 85.8198 31.7027 86.428C34.7914 86.6635 38.1909 87.1147 41.2991 85.5843L41.3185 85.604Z" fill="#E26F11"/>
<path d="M19.7174 75.696C27.3518 79.2865 33.7623 68.515 34.0731 68.2992L33.4709 67.7694C33.2378 67.9264 29.3915 68.9859 23.9522 66.4745C21.6794 65.415 19.7951 64.2574 18.3575 61.9814C16.8423 59.5485 13.909 57.7042 11.0339 56.939C7.32359 55.9384 3.55495 57.5473 0 63.1979L0.0777039 63.9631C8.23661 60.9808 10.4317 64.4144 13.1514 68.8485C14.7443 71.3599 16.5509 74.2637 19.7174 75.7156V75.696Z" fill="#E26F11"/>
<path d="M13.6762 52.5636C15.7159 60.7256 28.0319 59.0579 28.401 59.1953L28.4787 58.3516H28.5564C28.3233 58.2731 25.0015 55.9776 23.564 50.1111C22.9618 47.6782 22.651 45.4611 23.4863 42.8712C24.3993 40.1244 23.9331 36.6909 22.7287 33.944C21.2134 30.432 17.6002 28.4504 10.9371 29.2156L10.4126 29.7453C17.8139 34.2383 16.5318 38.1428 14.9388 43.0282C13.8898 45.932 12.7437 49.1301 13.6567 52.5636H13.6762Z" fill="#E26F11"/>
<path d="M27.6433 33.1987C22.5731 39.9873 31.6451 48.5417 31.8005 48.836L32.4804 48.3848C32.4027 48.1493 32.1113 44.1076 35.7245 39.2221C37.2397 37.2405 38.755 35.5532 41.2415 34.6506C43.8834 33.65 46.3117 31.1386 47.6715 28.3918C49.4004 24.9582 48.5845 20.9165 43.9029 16.188L43.1452 16.2665C44.3496 24.9582 40.581 26.3316 35.7439 28.1759C32.9466 29.1766 29.7802 30.393 27.6627 33.2183L27.6433 33.1987Z" fill="#E26F11"/>
<path d="M51.3619 31.9634C43.0475 32.2773 42.1539 44.8539 41.9208 45.1678L42.6784 45.4032C42.8339 45.1678 45.7089 42.421 51.7504 42.2051C54.2369 42.1267 56.432 42.2836 58.7826 43.657C61.2691 45.1089 64.6686 45.4032 67.6214 44.7165C71.3317 43.9513 73.9737 40.7532 74.6536 34.102L74.2068 33.4153C68.3207 39.8311 64.8435 37.771 60.3755 35.1026C57.8113 33.6507 54.8585 31.826 51.3813 31.983L51.3619 31.9634Z" fill="#E26F11"/>
<path d="M47.4387 57.6852C47.4387 61.4327 44.4859 64.3953 40.795 64.3953C37.1041 64.3953 34.1513 61.4131 34.1513 57.6852C34.1513 53.9574 37.1041 50.9751 40.795 50.9751C44.4859 50.9751 47.4387 54.0359 47.4387 57.6852Z" fill="#E26F11"/>
<path d="M110.145 13.4987C107.736 14.8721 105.696 15.8727 104.026 16.481L103.715 15.343C104.919 14.8917 105.91 14.4208 106.59 14.0481V7.18098H104.239V6.043H106.59V0.313899H107.872V6.043H110.145V7.18098H107.872V13.4398C108.552 13.1259 109.31 12.7531 110.145 12.3019V13.5183V13.4987ZM125.394 15.2645C125.025 16.9518 124.637 18.0113 124.268 18.5411C123.899 19.0708 123.432 19.3063 122.908 19.3063C122.461 19.3063 121.917 19.0708 121.393 18.5411C120.868 18.0113 120.266 17.0107 119.722 15.6373C118.129 17.3246 116.692 18.5411 115.409 19.3063L114.496 18.4626C116.303 17.2462 117.974 15.8727 119.333 14.1854C118.809 12.2038 118.498 8.92718 118.343 4.33605H112.593V7.6911H116.983C116.983 9.29996 116.905 10.8107 116.827 12.2626C116.75 13.7145 116.672 14.5582 116.594 14.8525C116.517 15.1468 116.361 15.3822 116.07 15.6177C115.837 15.8531 115.545 15.9905 115.157 16.0689C114.768 16.1474 114.166 16.2259 113.35 16.1474L112.903 15.0094C113.35 15.0879 113.894 15.0879 114.419 15.0879C114.865 15.0879 115.176 14.931 115.254 14.6367C115.409 14.3227 115.487 12.4196 115.623 8.82908H112.534C112.612 12.8708 111.485 16.3829 109.135 19.4436L108.086 18.6784C110.281 16.3044 111.33 13.0278 111.33 8.82908V3.25693H118.284C118.207 2.33478 118.207 1.35377 118.284 0.274658H119.567V3.25693H125.161V4.31643H119.567C119.644 8.06389 119.936 10.8696 120.324 12.7139C121.451 11.0265 122.286 8.96642 122.966 6.45503L124.093 6.9063C123.335 9.73161 122.208 12.243 120.693 14.3816C120.771 14.8329 121.062 15.5981 121.606 16.6772C122.131 17.6778 122.519 18.2075 122.811 18.2075C122.966 18.2075 123.044 18.1291 123.18 18.0506C123.257 17.9721 123.491 17.5993 123.704 16.9126C123.918 16.2259 124.073 15.4607 124.229 14.617L125.355 15.2253L125.394 15.2645ZM124.345 2.29554L123.296 2.90377C122.694 2.13858 122.014 1.45187 121.334 0.922126L122.325 0.313899C123.005 0.765164 123.607 1.45187 124.365 2.29554H124.345Z" fill="#040000"/>
<path d="M149.871 4.11914H139.828V7.55268H148.143V15.6362C148.143 16.0875 147.987 16.4799 147.696 16.7742C147.404 17.0685 147.016 17.2254 146.569 17.2254C146.122 17.3039 145.132 17.3039 143.48 17.2254L142.8 16.0875C143.403 16.0875 143.927 16.166 144.529 16.166C145.578 16.166 146.258 16.0875 146.491 16.009C146.724 15.9305 146.86 15.6951 146.86 15.4792V8.61217H139.751V19.2267H138.468V8.61217H131.436V17.2254H130.076V7.53305H138.391V4.09952H128.347V2.96154H138.702C138.255 2.27484 137.653 1.50965 136.817 0.665976L138.022 0.13623C138.702 0.744457 139.459 1.66661 140.294 2.96154H149.735L149.891 4.09952L149.871 4.11914Z" fill="#040000"/>
<path d="M173.978 13.3614H164.091C163.644 14.6563 162.731 15.7354 161.293 16.638C159.856 17.5601 157.447 18.3842 153.892 19.2278L153.134 18.2272C155.699 17.6974 157.816 17.0107 159.487 16.2455C161.157 15.4804 162.206 14.4993 162.731 13.3418H153.892V12.3411H162.964C163.119 11.9683 163.197 11.3405 163.197 10.6538L164.479 10.7323C164.401 11.4975 164.401 12.0272 164.246 12.3411H173.998V13.3418L173.978 13.3614ZM174.658 10.0063H153.212V8.94682H163.255V6.96518H155.252V5.82721H163.255V3.92404H154.339V2.86455H173.609V3.92404H164.615V5.90569H172.619V6.96518H164.615V8.94682H174.736V10.0063H174.658ZM161.507 1.82468L160.38 2.43291C159.778 1.90316 158.943 1.29493 157.816 0.686708L159.02 0C160.069 0.608227 160.905 1.13797 161.507 1.82468ZM174.503 18.3841L173.668 19.3063C171.103 17.8544 168.151 16.6379 164.751 15.5L165.431 14.5778C168.461 15.5 171.472 16.7949 174.503 18.3841ZM169.666 0.765188C168.986 1.37342 168.073 1.98164 167.024 2.51139L165.819 1.82468C166.81 1.37342 167.704 0.82405 168.539 0.137342L169.666 0.745569V0.765188Z" fill="#040000"/>
<path d="M199.213 15.5588H189.169V17.7759C189.169 18.1487 189.014 18.5411 188.723 18.7766C188.431 19.012 188.043 19.0905 187.674 19.0905H184.721L184.274 18.031H185.711C186.838 18.031 187.44 17.9525 187.674 17.874C187.829 17.7955 187.984 17.6386 187.984 17.3443V15.5196H177.863V14.519H187.984V13.6753C189.577 13.224 190.859 12.7531 191.986 12.3019H182.098V11.3012H194.647V12.3019C192.977 13.0671 191.17 13.7538 189.286 14.362V14.519H199.329L199.251 15.5785L199.213 15.5588ZM198.669 12.6747H197.387V9.92783H179.631V12.6747H178.427V8.9272H179.709L179.631 1.13797C181.224 0.981011 182.798 0.608227 184.235 0.0784808L184.76 0.922151C183.633 1.37342 182.351 1.68734 180.836 1.92278V3.45316H184.76V4.45379H180.836V6.14113H184.76V7.14176H180.913V8.88796H196.027V7.14176H192.103V6.21961H196.027V4.53227H192.103V3.53164H196.104L196.182 1.92278H191.947V1.00063H197.464L197.231 8.9272H198.746L198.669 12.6747ZM191.734 7.71075L190.898 8.39746C190.665 8.16201 189.908 7.63227 188.703 6.7886C187.499 7.55379 186.508 8.00505 185.75 8.31897L185.148 7.39683C185.595 7.23986 186.508 6.7886 187.79 6.10189C187.479 5.86645 187.188 5.65063 186.741 5.41518C186.294 5.17974 186.061 5.0424 185.828 4.88544L186.586 4.19873C187.79 4.96392 188.47 5.3367 188.703 5.49366C189.616 4.88544 190.141 4.43417 190.296 4.27721L191.209 4.80696C191.054 4.96392 190.529 5.41518 189.616 6.18037C189.985 6.49429 190.665 6.94556 191.734 7.71075ZM191.656 3.5905L190.821 4.19873C190.218 3.66898 189.538 3.1981 188.703 2.66835C187.868 3.11962 186.974 3.5905 185.906 4.04177L185.381 3.1981C186.139 2.88417 186.896 2.51139 187.79 2.06012C187.188 1.60886 186.663 1.21645 185.983 0.84367L186.819 0.235442C187.809 0.843669 188.412 1.29494 188.703 1.4519C189.461 0.922151 189.985 0.451265 190.432 0L191.345 0.451265C191.034 0.824049 190.432 1.37342 189.538 2.1386C189.908 2.29557 190.587 2.74683 191.656 3.5905Z" fill="#040000"/>
<path d="M209.78 10.3C210.149 10.3 210.46 10.457 210.771 10.6728C211.082 10.8887 211.14 11.2026 211.14 11.595C211.14 11.9089 210.984 12.2032 210.771 12.4387C210.46 12.6741 210.168 12.8114 209.78 12.8114C209.391 12.8114 209.022 12.6545 208.789 12.4387C208.478 12.2032 208.42 11.9089 208.42 11.595C208.42 11.2222 208.576 10.9868 208.789 10.6728C209.1 10.3589 209.391 10.3 209.78 10.3Z" fill="#040000"/>
<path d="M227.458 9.2407L226.623 10.1629C226.099 9.39766 225.419 8.55399 224.583 7.78881V19.1489H223.457V8.47551C222.699 10.3787 221.941 12.066 221.048 13.4394L220.29 12.3799C221.572 10.5553 222.641 8.10273 223.457 5.19894H220.582V4.06096H223.534V0.254639H224.661V4.06096H227.148V5.12045H224.583V6.25843C225.71 7.25906 226.701 8.24007 227.458 9.2407ZM241.814 18.6976H226.856V17.697H241.814V18.6976ZM241.581 1.82426H234.704C234.102 3.04071 233.345 4.04134 232.587 4.94387H234.937C235.015 6.31729 235.015 7.6907 235.015 8.90716C235.015 12.9489 234.86 15.2445 234.568 15.7742C234.258 16.3825 233.364 16.6179 231.926 16.6179H231.247L230.936 15.5584C231.305 15.5584 231.693 15.6369 231.985 15.6369C232.742 15.6369 233.189 15.4799 233.422 15.2641C233.655 15.0483 233.733 12.6742 233.733 8.24007V5.9445H231.091V5.02235C232.004 4.02172 232.82 2.96223 233.442 1.82426H227.4V0.764764H241.601V1.82426H241.581ZM231.985 14.0477H227.983V7.33754H231.985V14.0477ZM230.78 13.047V8.39703H229.11V13.047H230.78ZM241.814 14.8717L240.824 15.5584C240.299 14.1065 239.775 12.8901 239.153 11.7521C238.318 13.1255 237.346 14.342 236.2 15.4996L235.365 14.7344C236.647 13.5179 237.715 12.1445 238.531 10.6141C237.929 9.47614 237.016 8.10273 235.734 6.33691L236.492 5.80716H235.734V4.74767H241.095C241.018 7.04324 240.571 8.9464 239.891 10.5553C240.649 12.0856 241.329 13.5375 241.775 14.9109L241.814 14.8717ZM239.697 5.80716H236.666C237.424 6.80779 238.182 7.94577 239.017 9.2407C239.386 8.18121 239.619 7.02362 239.697 5.80716Z" fill="#040000"/>
<path d="M256.17 2.06043H250.498C249.818 4.27752 248.769 6.1022 247.467 7.63258C248.75 7.47562 250.789 7.25979 253.664 6.71043C253.431 6.18068 252.907 5.33701 252.149 4.27752L253.276 3.66929C254.325 5.19967 255.238 6.78891 255.84 8.31929L254.713 8.84903C254.48 8.24081 254.344 7.8484 254.189 7.71106C252.907 7.9465 251.916 8.08384 251.469 8.16232V11.5174H255.704V12.5769H251.469V16.1674C253.276 15.7946 254.791 15.4022 255.995 15.0294L256.073 16.1674C252.149 17.168 248.517 17.9136 245.195 18.5414L244.962 17.4819C247.001 17.1091 248.73 16.7952 250.168 16.4813V12.675H245.719V11.6155H250.168V8.49587L245.855 9.02561L245.486 7.96612C247.157 6.59271 248.361 4.68954 249.119 2.15853H245.564V1.02056H256.131V2.08005L256.17 2.06043ZM266.505 18.4629L265.67 19.3851C263.63 17.8547 262.037 16.4028 260.988 14.9509C259.104 16.6971 257.064 18.0705 255.024 19.2281L254.189 18.3845C256.753 16.9326 258.715 15.4807 260.23 13.9503C259.473 12.8123 258.637 11.125 257.822 8.90789C257.297 9.83004 256.909 10.4383 256.695 10.6541L255.782 9.73194C256.151 9.2022 256.695 8.28005 257.375 7.14207C257.064 6.0041 256.773 4.70916 256.539 3.25727L257.744 2.94334C257.899 3.86549 258.055 4.68954 258.268 5.45473C259.259 3.47309 259.939 1.64841 260.23 0.0395508L261.435 0.274993C261.279 1.04018 260.988 2.09967 260.444 3.55157H265.281C264.834 8.12308 263.688 11.5566 261.726 13.9307C263.241 15.7554 264.815 17.2857 266.486 18.4237L266.505 18.4629ZM263.863 4.80727H260.094C259.648 5.65094 259.181 6.55347 258.735 7.39714C259.181 9.37878 260.017 11.2035 261.085 12.9693C262.523 11.0661 263.436 8.39777 263.882 4.80727H263.863Z" fill="#040000"/>
<path d="M291.136 16.4817C290.69 17.3253 290.223 18.012 289.699 18.3848C289.174 18.8361 288.65 19.0715 288.028 19.0715C286.979 19.0715 285.911 18.4633 284.862 17.1684C283.813 15.8734 283.347 13.5779 283.424 10.3013H280.471V19.15H279.189V10.3013H275.032C275.032 14.3431 273.672 17.3253 271.03 19.307L269.904 18.6203C272.546 16.6386 273.828 13.8918 273.75 10.3013H269.671V9.16333H273.75V5.96523C272.39 6.41649 271.264 6.73042 270.273 6.96586L269.671 5.90637C273.148 5.14118 275.479 4.29751 276.839 3.39498L277.752 4.23865C276.994 4.68991 276.081 5.1608 275.11 5.53358V9.28105H279.267V3.4146H280.549V9.28105H284.784V11.714C285.095 11.7924 285.833 12.0279 286.824 12.3222C287.659 11.6355 288.494 10.7918 289.388 9.73231L290.379 10.419C289.699 11.1842 288.941 11.8709 288.028 12.6361C289.466 13.1659 290.437 13.5583 291.059 13.8526L290.534 14.9121C288.572 13.9899 286.61 13.3032 284.784 12.8519C284.939 14.6766 285.386 15.9715 286.144 16.7367C286.901 17.5019 287.504 17.9532 287.95 17.9532C288.261 17.9532 288.63 17.7177 288.999 17.2665C289.369 16.8152 289.757 16.2658 290.048 15.6576L291.097 16.5013L291.136 16.4817ZM290.981 7.39751C289.777 8.8494 288.63 9.61459 287.737 9.61459C286.746 9.61459 285.852 9.08484 284.939 7.92725C284.026 6.76966 283.58 4.80764 283.58 1.90384H270.817V0.765869H284.939C284.862 1.3741 284.862 1.82536 284.862 2.21777V3.06144C285.619 3.2184 286.299 3.37536 286.979 3.59118C287.737 2.74751 288.339 1.90384 288.941 1.00131L289.99 1.68802C289.31 2.61017 288.708 3.37536 288.184 3.90511C289.097 4.14055 289.912 4.43485 290.534 4.67029L290.087 5.67093C288.048 4.90574 286.377 4.45447 285.017 4.21903C285.095 5.43548 285.386 6.43611 286.008 7.27978C286.61 8.12345 287.135 8.49624 287.679 8.49624C288.281 8.49624 289.116 7.88801 290.087 6.67156L291 7.43675L290.981 7.39751Z" fill="#040000"/>
<path d="M300.966 5.12103H298.557V9.08432C299.237 8.77039 299.84 8.39761 300.286 8.08369L300.597 9.22166C300.286 9.37862 299.606 9.75141 298.557 10.3596V17.5406C298.557 18.1489 298.402 18.5413 298.111 18.7571C297.819 18.9729 297.062 19.1299 295.993 19.1299H295.08L294.711 17.9919H296.829C297.198 17.9919 297.353 17.8349 297.353 17.4622V11.0463C296.304 11.5761 295.391 12.047 294.633 12.2628L294.264 11.1248C295.313 10.752 296.382 10.2027 297.353 9.75141V5.10141H294.4V4.04192H297.353V0.235596H298.557V4.04192H300.966V5.10141V5.12103ZM315.691 9.77103H306.172C305.803 10.3008 305.415 10.8305 304.89 11.3014H314.642C314.642 12.7533 314.564 14.2052 314.331 15.5001C314.176 16.8735 313.962 17.7172 313.807 18.0115C313.651 18.3058 313.36 18.6197 312.971 18.8552C312.602 19.0906 311.845 19.1691 310.621 19.1691C310.31 19.1691 309.863 19.1691 309.417 19.0906L308.97 17.9527H310.174C311.534 17.9527 312.292 17.8742 312.447 17.6387C312.602 17.4033 312.816 16.7951 312.971 15.6571C313.127 14.5191 313.282 13.3615 313.282 12.2236H311.767C310.64 14.8134 308.057 17.0305 304.21 18.9337L303.297 18.09C306.852 16.4811 309.183 14.4995 310.33 12.2236H308.057C306.542 13.9698 304.346 15.5001 301.413 16.8735L300.5 15.9514C302.851 15.0292 304.89 13.8128 306.386 12.2039H303.356C302.598 12.8122 301.549 13.4204 300.112 14.1856L299.354 13.2634C301.627 12.2628 303.278 11.0463 304.424 9.51596H301.18V8.45647H315.458V9.75141H315.691V9.77103ZM313.962 7.25964H302.404V0.765342H313.962V7.25964ZM312.661 3.51217V1.82483H303.666V3.43369L312.661 3.51217ZM312.661 6.18052V4.49319H303.666V6.18052H312.661Z" fill="#040000"/>
<path d="M89.2035 6.27979H7.32312V6.84877H89.2035V6.27979Z" fill="#040000"/>
<path d="M400 6.27979H326.57V6.84877H400V6.27979Z" fill="#040000"/>
</svg>
