<svg width="396" height="102" viewBox="0 0 396 102" fill="none" xmlns="http://www.w3.org/2000/svg">
<path d="M50.4211 57.7814L0.41864 25.2314V49.5213L30.2958 69.0042C30.6843 69.2985 31.1699 69.4947 31.6944 69.4947C32.1412 69.4947 32.5298 69.3769 32.8794 69.1611H32.9183L50.4211 57.801V57.7814Z" fill="#933723"/>
<path d="M78.7634 24.8392L41.1547 0.372784C40.805 0.137342 40.3777 0 39.9309 0C39.4258 0 38.9596 0.176582 38.5711 0.451265L0.418457 25.2316L19.1451 37.4158L44.3794 20.9348C44.7874 20.6993 45.7781 20.3069 46.866 21.0525C46.9242 21.0917 46.9631 21.1114 47.0214 21.1506L78.7828 41.8107V24.8392H78.7634Z" fill="#933723"/>
<path d="M47.3516 31.9217C46.9242 31.9217 46.5163 32.0394 46.1666 32.2553H46.1472L28.6444 43.6154L78.6468 76.1653V51.8755L48.7697 32.3926C48.3812 32.0983 47.8955 31.9021 47.371 31.9021" fill="#BA7A1F"/>
<path d="M0.282506 76.5782L37.8912 101.045C38.2409 101.28 38.6682 101.417 39.115 101.417C39.6201 101.417 40.0863 101.241 40.4748 100.966L78.6274 76.1858L59.9008 64.0016L34.6665 80.4826C34.2585 80.7181 33.2678 81.1105 32.1799 80.3649C32.1217 80.3256 32.0828 80.306 32.0245 80.2668L0.263062 59.6067V76.5782H0.282506Z" fill="#BA7A1F"/>
<path d="M99.0452 73.7729L98.2681 74.6754C97.4134 73.9691 96.6169 73.6748 95.6651 73.6748C94.4607 73.6748 93.5476 74.2634 93.5476 75.3817C93.5476 76.402 94.0138 76.8729 96.073 77.5203C97.9379 78.0893 99.4143 78.8153 99.4143 80.9931C99.4143 82.9944 97.9379 84.3874 95.432 84.3874C93.8196 84.3874 92.5569 83.838 91.605 82.9159L92.4015 82.0134C93.2563 82.7197 94.1693 83.171 95.4125 83.171C96.7918 83.171 97.9185 82.4646 97.9185 81.0324C97.9185 79.8355 97.3551 79.3254 95.4125 78.7368C93.1785 78.0501 92.0519 77.2064 92.0519 75.4406C92.0519 73.6748 93.5282 72.4976 95.5873 72.4976C97.1414 72.4976 98.1128 72.9684 99.0258 73.8121L99.0452 73.7729Z" fill="#040000"/>
<path d="M107.689 84.1319H106.504L106.407 82.6996C105.766 83.7591 104.931 84.3281 103.668 84.3281C102.153 84.3281 101.24 83.3471 101.24 81.6401V75.342H102.638V81.4832C102.638 82.7389 103.085 83.2097 104.056 83.2097C105.028 83.2097 105.766 82.5427 106.329 81.6401V75.342H107.709V84.1319H107.689Z" fill="#040000"/>
<path d="M116.994 77.8534V84.1515H115.595V78.0692C115.595 76.7154 115.071 76.2838 114.196 76.2838C113.167 76.2838 112.467 76.9313 111.846 77.9123V84.1711H110.467V75.3813H111.652L111.768 76.7154C112.39 75.8129 113.342 75.1851 114.488 75.1851C116.1 75.1851 116.974 76.2053 116.974 77.873L116.994 77.8534Z" fill="#040000"/>
<path d="M130.845 73.5568L130.088 74.4986C129.349 73.91 128.689 73.6549 127.854 73.6549C126.066 73.6549 124.59 74.8714 124.59 78.3834C124.59 81.8954 126.008 83.0923 127.834 83.0923C128.922 83.0923 129.602 82.641 130.282 82.1309L130.981 83.053C130.34 83.7005 129.291 84.3283 127.776 84.3283C125.056 84.3283 123.075 82.2486 123.075 78.3834C123.075 74.5182 125.192 72.4385 127.756 72.4385C129.155 72.4385 129.952 72.8309 130.845 73.5568Z" fill="#040000"/>
<path d="M139.062 77.8534V84.1515H137.663V78.0692C137.663 76.7154 137.119 76.2838 136.245 76.2838C135.254 76.2838 134.536 76.9312 133.914 77.8926V84.1711H132.535V71.8692L133.914 71.6926V76.6565C134.555 75.7736 135.449 75.185 136.556 75.185C138.149 75.185 139.042 76.2249 139.042 77.873L139.062 77.8534Z" fill="#040000"/>
<path d="M148.153 83.3478L147.823 84.3288C146.988 84.2111 146.425 83.858 146.211 82.975C145.609 83.9168 144.696 84.3288 143.608 84.3288C141.879 84.3288 140.849 83.2497 140.849 81.6605C140.849 79.7966 142.248 78.7763 144.637 78.7763H146.056V78.0896C146.056 76.7947 145.434 76.2845 144.191 76.2845C143.511 76.2845 142.714 76.4611 141.84 76.7751L141.49 75.7352C142.539 75.3232 143.472 75.127 144.443 75.127C146.502 75.127 147.435 76.1864 147.435 78.0111V82.0725C147.435 82.8966 147.707 83.132 148.173 83.3086L148.153 83.3478ZM146.056 81.8567V79.7573H144.812C143.2 79.7573 142.326 80.3852 142.326 81.6212C142.326 82.6807 142.87 83.2693 143.899 83.2693C144.851 83.2693 145.512 82.7985 146.036 81.8371L146.056 81.8567Z" fill="#040000"/>
<path d="M156.74 77.8534V84.1515H155.341V78.0692C155.341 76.7154 154.817 76.2838 153.942 76.2838C152.913 76.2838 152.213 76.9313 151.592 77.9123V84.1711H150.213V75.3813H151.398L151.514 76.7154C152.136 75.8129 153.088 75.1851 154.234 75.1851C155.846 75.1851 156.72 76.2053 156.72 77.873L156.74 77.8534Z" fill="#040000"/>
<path d="M166.317 75.7147C165.637 75.9305 164.821 75.9698 163.811 75.9698C164.821 76.421 165.326 77.1666 165.326 78.2261C165.326 79.9331 164.102 81.1691 162.043 81.1691C161.655 81.1691 161.286 81.1299 160.936 80.9925C160.645 81.1887 160.47 81.5223 160.47 81.8558C160.47 82.2679 160.722 82.621 161.674 82.621H163.053C164.821 82.621 165.967 83.6413 165.967 84.9951C165.967 86.6824 164.627 87.6438 161.966 87.6438C159.304 87.6438 158.255 86.8001 158.255 85.0147H159.518C159.518 86.0742 160.023 86.5451 161.966 86.5451C163.908 86.5451 164.569 86.0153 164.569 85.1128C164.569 84.2103 163.889 83.7982 162.762 83.7982H161.383C159.868 83.7982 159.188 83.0331 159.188 82.1698C159.188 81.5812 159.518 81.0318 160.12 80.6198C159.129 80.09 158.663 79.3248 158.663 78.1869C158.663 76.4014 160.062 75.1457 161.966 75.1457C164.161 75.185 164.918 74.871 165.89 74.4001L166.298 75.6951L166.317 75.7147ZM160.081 78.2065C160.081 79.4229 160.781 80.247 162.004 80.247C163.228 80.247 163.908 79.5014 163.908 78.2065C163.908 76.9115 163.267 76.1856 161.985 76.1856C160.703 76.1856 160.101 77.0293 160.101 78.2065H160.081Z" fill="#040000"/>
<path d="M173.796 80.228H168.201C168.318 82.347 169.328 83.1711 170.63 83.1711C171.504 83.1711 172.145 82.916 172.902 82.4059L173.505 83.2495C172.669 83.9363 171.698 84.3483 170.513 84.3483C168.124 84.3483 166.725 82.6217 166.725 79.8356C166.725 77.0496 168.065 75.166 170.299 75.166C172.533 75.166 173.835 76.8141 173.835 79.4825C173.835 79.7768 173.835 80.0515 173.796 80.2477V80.228ZM172.456 79.0704C172.456 77.285 171.776 76.2647 170.319 76.2647C169.114 76.2647 168.299 77.128 168.182 79.1882H172.436V79.0704H172.456Z" fill="#040000"/>
<path d="M181.488 84.1321H180.07V72.6543H181.488V84.1321Z" fill="#040000"/>
<path d="M190.891 77.8534V84.1515H189.492V78.0692C189.492 76.7154 188.968 76.2838 188.094 76.2838C187.064 76.2838 186.365 76.9313 185.743 77.9123V84.1711H184.364V75.3813H185.549L185.666 76.7154C186.287 75.8129 187.239 75.1851 188.385 75.1851C189.997 75.1851 190.872 76.2053 190.872 77.873L190.891 77.8534Z" fill="#040000"/>
<path d="M197.883 83.7594C197.32 84.1519 196.698 84.3481 195.96 84.3481C194.523 84.3481 193.668 83.5044 193.668 81.8955V76.4607H192.172V75.3816H193.668V73.3607L195.067 73.2234V75.3816H197.165L197.009 76.4607H195.067V81.8367C195.067 82.7588 195.378 83.1905 196.155 83.1905C196.562 83.1905 196.932 83.0727 197.359 82.8373L197.903 83.7791L197.883 83.7594Z" fill="#040000"/>
<path d="M205.324 80.228H199.73C199.846 82.347 200.856 83.1711 202.158 83.1711C203.032 83.1711 203.673 82.916 204.431 82.4059L205.033 83.2495C204.197 83.9363 203.226 84.3483 202.041 84.3483C199.652 84.3483 198.253 82.6217 198.253 79.8356C198.253 77.0496 199.593 75.166 201.827 75.166C204.061 75.166 205.363 76.8141 205.363 79.4825C205.363 79.7768 205.363 80.0515 205.324 80.2477V80.228ZM203.984 79.0704C203.984 77.285 203.304 76.2647 201.847 76.2647C200.643 76.2647 199.827 77.128 199.73 79.1882H203.984V79.0704Z" fill="#040000"/>
<path d="M211.968 75.2447L211.696 76.6181C211.444 76.5592 211.249 76.52 210.939 76.52C209.812 76.52 209.171 77.3048 208.802 79.0314V84.113H207.422V75.3232H208.608L208.743 77.1675C209.21 75.8137 210.006 75.127 211.094 75.127C211.405 75.127 211.696 75.1662 211.968 75.2251V75.2447Z" fill="#040000"/>
<path d="M219.835 77.8534V84.1515H218.437V78.0692C218.437 76.7154 217.912 76.2838 217.038 76.2838C216.008 76.2838 215.309 76.9313 214.687 77.9123V84.1711H213.308V75.3813H214.493L214.61 76.7154C215.231 75.8129 216.183 75.1851 217.329 75.1851C218.942 75.1851 219.816 76.2053 219.816 77.873L219.835 77.8534Z" fill="#040000"/>
<path d="M228.946 83.3478L228.616 84.3288C227.78 84.2111 227.217 83.858 226.984 82.975C226.382 83.9168 225.469 84.3288 224.381 84.3288C222.652 84.3288 221.622 83.2497 221.622 81.6605C221.622 79.7966 223.021 78.7763 225.411 78.7763H226.829V78.0896C226.829 76.7947 226.207 76.2845 224.964 76.2845C224.284 76.2845 223.487 76.4611 222.613 76.7751L222.264 75.7352C223.313 75.3232 224.245 75.127 225.216 75.127C227.275 75.127 228.208 76.1864 228.208 78.0111V82.0725C228.208 82.8966 228.48 83.132 228.946 83.3086V83.3478ZM226.829 81.8567V79.7573H225.585C223.954 79.7573 223.099 80.3852 223.099 81.6212C223.099 82.6807 223.643 83.2693 224.672 83.2693C225.624 83.2693 226.285 82.7985 226.809 81.8371L226.829 81.8567Z" fill="#040000"/>
<path d="M235.084 83.7594C234.521 84.1519 233.899 84.3481 233.161 84.3481C231.724 84.3481 230.869 83.5044 230.869 81.8955V76.4607H229.373V75.3816H230.869V73.3607L232.268 73.2234V75.3816H234.366L234.21 76.4607H232.268V81.8367C232.268 82.7588 232.578 83.1905 233.355 83.1905C233.763 83.1905 234.132 83.0727 234.56 82.8373L235.104 83.7791L235.084 83.7594Z" fill="#040000"/>
<path d="M237.959 72.1829C237.959 72.7323 237.571 73.1443 236.969 73.1443C236.366 73.1443 235.997 72.7323 235.997 72.1829C235.997 71.6335 236.386 71.2019 236.969 71.2019C237.551 71.2019 237.959 71.6139 237.959 72.1829ZM237.668 84.1316H236.289V75.3418H237.668V84.1316Z" fill="#040000"/>
<path d="M247.498 79.7375C247.498 82.4844 246.08 84.3483 243.651 84.3483C241.223 84.3483 239.844 82.5628 239.844 79.7768C239.844 76.9907 241.242 75.166 243.671 75.166C246.099 75.166 247.498 76.9318 247.498 79.7375ZM241.32 79.7571C241.32 82.0723 242.155 83.2103 243.651 83.2103C245.147 83.2103 246.002 82.0723 246.002 79.7375C246.002 77.4027 245.167 76.2844 243.651 76.2844C242.136 76.2844 241.301 77.4223 241.301 79.7571H241.32Z" fill="#040000"/>
<path d="M256.162 77.8534V84.1515H254.763V78.0692C254.763 76.7154 254.239 76.2838 253.364 76.2838C252.335 76.2838 251.636 76.9313 251.014 77.9123V84.1711H249.635V75.3813H250.82L250.936 76.7154C251.558 75.8129 252.51 75.1851 253.656 75.1851C255.268 75.1851 256.142 76.2053 256.142 77.873L256.162 77.8534Z" fill="#040000"/>
<path d="M265.273 83.3478L264.942 84.3288C264.107 84.2111 263.544 83.858 263.311 82.975C262.708 83.9168 261.795 84.3288 260.708 84.3288C258.979 84.3288 257.949 83.2497 257.949 81.6605C257.949 79.7966 259.348 78.7763 261.737 78.7763H263.155V78.0896C263.155 76.7947 262.534 76.2845 261.29 76.2845C260.61 76.2845 259.814 76.4611 258.94 76.7751L258.59 75.7352C259.639 75.3232 260.572 75.127 261.543 75.127C263.602 75.127 264.534 76.1864 264.534 78.0111V82.0725C264.534 82.8966 264.806 83.132 265.273 83.3086V83.3478ZM263.155 81.8567V79.7573H261.912C260.28 79.7573 259.425 80.3852 259.425 81.6212C259.425 82.6807 259.969 83.2693 260.999 83.2693C261.951 83.2693 262.631 82.7985 263.136 81.8371L263.155 81.8567Z" fill="#040000"/>
<path d="M267.215 82.4649V71.8111L268.614 71.6345V82.4256C268.614 82.8965 268.789 83.1516 269.197 83.1516C269.411 83.1516 269.605 83.1124 269.76 83.0535L270.129 84.0345C269.819 84.1915 269.411 84.3092 268.983 84.3092C267.915 84.3092 267.215 83.6617 267.215 82.4453V82.4649Z" fill="#040000"/>
<path d="M277.375 82.8766H282.076L281.901 84.1519H275.937V72.6741H277.355V82.8962L277.375 82.8766Z" fill="#040000"/>
<path d="M285.242 72.1829C285.242 72.7323 284.854 73.1443 284.252 73.1443C283.649 73.1443 283.28 72.7323 283.28 72.1829C283.28 71.6335 283.669 71.2019 284.252 71.2019C284.834 71.2019 285.242 71.6139 285.242 72.1829ZM284.951 84.1316H283.572V75.3418H284.951V84.1316Z" fill="#040000"/>
<path d="M298.724 77.8528V84.1509H297.325V78.0687C297.325 76.7149 296.762 76.2832 296.043 76.2832C295.072 76.2832 294.528 76.9307 293.906 77.9117V84.1705H292.508V78.0883C292.508 76.7345 291.944 76.3028 291.226 76.3028C290.254 76.3028 289.671 76.9503 289.089 77.9313V84.1902H287.709V75.4003H288.894L289.011 76.7345C289.633 75.8319 290.429 75.2041 291.575 75.2041C292.721 75.2041 293.44 75.8123 293.77 76.8326C294.392 75.8516 295.227 75.2041 296.393 75.2041C297.792 75.2041 298.743 76.244 298.743 77.8921L298.724 77.8528Z" fill="#040000"/>
<path d="M303.056 72.1829C303.056 72.7323 302.668 73.1443 302.066 73.1443C301.463 73.1443 301.094 72.7323 301.094 72.1829C301.094 71.6335 301.483 71.2019 302.066 71.2019C302.648 71.2019 303.056 71.6139 303.056 72.1829ZM302.765 84.1316H301.386V75.3418H302.765V84.1316Z" fill="#040000"/>
<path d="M309.875 83.7594C309.311 84.1519 308.69 84.3481 307.952 84.3481C306.514 84.3481 305.659 83.5044 305.659 81.8955V76.4607H304.164V75.3816H305.659V73.3607L307.058 73.2234V75.3816H309.156L309.001 76.4607H307.058V81.8367C307.058 82.7588 307.369 83.1905 308.146 83.1905C308.554 83.1905 308.923 83.0727 309.35 82.8373L309.894 83.7791L309.875 83.7594Z" fill="#040000"/>
<path d="M317.314 80.228H311.72C311.836 82.347 312.847 83.1711 314.148 83.1711C315.022 83.1711 315.663 82.916 316.421 82.4059L317.023 83.2495C316.188 83.9363 315.216 84.3483 314.031 84.3483C311.642 84.3483 310.243 82.6217 310.243 79.8356C310.243 77.0496 311.584 75.166 313.818 75.166C316.052 75.166 317.353 76.8141 317.353 79.4825C317.353 79.7768 317.353 80.0515 317.314 80.2477V80.228ZM315.974 79.0704C315.974 77.285 315.294 76.2647 313.837 76.2647C312.633 76.2647 311.817 77.128 311.7 79.1882H315.955V79.0704H315.974Z" fill="#040000"/>
<path d="M325.959 71.8111V84.1326H324.774L324.619 82.8965C324.075 83.7598 323.201 84.3288 322.093 84.3288C319.976 84.3288 318.81 82.5237 318.81 79.7769C318.81 77.0301 320.073 75.1465 322.21 75.1465C323.259 75.1465 324.016 75.6371 324.58 76.2453V71.6345L325.959 71.8111ZM324.58 81.837V77.4617C324.036 76.7554 323.414 76.2649 322.521 76.2649C321.161 76.2649 320.306 77.4225 320.306 79.7573C320.306 82.0921 321.064 83.2301 322.365 83.2301C323.375 83.2301 323.997 82.7199 324.58 81.837Z" fill="#040000"/>
<path d="M338.547 76.0878L337.868 76.9903C337.304 76.5587 336.741 76.3428 335.983 76.3428C334.565 76.3428 333.652 77.4612 333.652 79.796C333.652 82.1308 334.546 83.1314 335.983 83.1314C336.741 83.1314 337.246 82.896 337.906 82.4447L338.567 83.3473C337.809 83.9751 336.935 84.3283 335.944 84.3283C333.633 84.3283 332.176 82.6409 332.176 79.796C332.176 76.9511 333.613 75.146 335.944 75.146C336.955 75.146 337.77 75.4011 338.567 76.0681L338.547 76.0878Z" fill="#040000"/>
<path d="M346.939 79.7375C346.939 82.4844 345.521 84.3483 343.093 84.3483C340.665 84.3483 339.285 82.5628 339.285 79.7768C339.285 76.9907 340.684 75.166 343.112 75.166C345.54 75.166 346.939 76.9318 346.939 79.7375ZM340.781 79.7571C340.781 82.0723 341.616 83.2103 343.112 83.2103C344.608 83.2103 345.463 82.0723 345.463 79.7375C345.463 77.4027 344.627 76.2844 343.112 76.2844C341.597 76.2844 340.762 77.4223 340.762 79.7571H340.781Z" fill="#040000"/>
<path d="M360.111 77.8528V84.1509H358.712V78.0687C358.712 76.7149 358.149 76.2832 357.43 76.2832C356.459 76.2832 355.915 76.9307 355.293 77.9117V84.1705H353.894V78.0883C353.894 76.7345 353.331 76.3028 352.612 76.3028C351.641 76.3028 351.058 76.9503 350.475 77.9313V84.1902H349.096V75.4003H350.281L350.398 76.7345C351.019 75.8319 351.816 75.2041 352.962 75.2041C354.108 75.2041 354.827 75.8123 355.157 76.8326C355.779 75.8516 356.614 75.2041 357.779 75.2041C359.178 75.2041 360.13 76.244 360.13 77.8921L360.111 77.8528Z" fill="#040000"/>
<path d="M369.862 79.7375C369.862 82.4255 368.677 84.3483 366.482 84.3483C365.491 84.3483 364.714 83.9951 364.131 83.2888V87.4875L362.752 87.6641V75.3622H363.937L364.054 76.5787C364.675 75.6761 365.608 75.166 366.637 75.166C368.91 75.166 369.842 76.9515 369.842 79.7375H369.862ZM368.366 79.7375C368.366 77.4027 367.686 76.2844 366.326 76.2844C365.355 76.2844 364.636 76.9711 364.131 77.697V82.0527C364.617 82.759 365.297 83.1907 366.132 83.1907C367.57 83.1907 368.347 82.092 368.347 79.7375H368.366Z" fill="#040000"/>
<path d="M378.235 83.3478L377.904 84.3288C377.069 84.2111 376.506 83.858 376.273 82.975C375.67 83.9168 374.757 84.3288 373.67 84.3288C371.941 84.3288 370.911 83.2497 370.911 81.6605C370.911 79.7966 372.31 78.7763 374.699 78.7763H376.117V78.0896C376.117 76.7947 375.496 76.2845 374.252 76.2845C373.572 76.2845 372.776 76.4611 371.902 76.7751L371.552 75.7352C372.601 75.3232 373.534 75.127 374.505 75.127C376.564 75.127 377.496 76.1864 377.496 78.0111V82.0725C377.496 82.8966 377.768 83.132 378.235 83.3086V83.3478ZM376.117 81.8567V79.7573H374.874C373.242 79.7573 372.387 80.3852 372.387 81.6212C372.387 82.6807 372.931 83.2693 373.961 83.2693C374.913 83.2693 375.593 82.7985 376.098 81.8371L376.117 81.8567Z" fill="#040000"/>
<path d="M386.801 77.8534V84.1515H385.402V78.0692C385.402 76.7154 384.878 76.2838 383.984 76.2838C382.955 76.2838 382.255 76.9313 381.634 77.9123V84.1711H380.255V75.3813H381.44L381.556 76.7154C382.178 75.8129 383.13 75.1851 384.276 75.1851C385.888 75.1851 386.762 76.2053 386.762 77.873L386.801 77.8534Z" fill="#040000"/>
<path d="M392.804 84.1908C392.182 86.0547 391.211 87.3496 388.88 87.6635L388.705 86.5648C390.473 86.2313 390.958 85.5446 391.463 84.1319H390.997L388.064 75.342H389.54L391.949 83.1116L394.3 75.342H395.737L392.823 84.1711L392.804 84.1908Z" fill="#040000"/>
<path d="M124.298 58.8997H91.5266V54.4655H104.406V26.2124H109.049V36.8466H121.695V41.2807H109.049V54.4655H124.298V58.8997Z" fill="#040000"/>
<path d="M161.829 61.0587C154.059 59.3321 149.338 55.0942 146.755 48.8942H144.443V55.0942C146.23 55.1334 148.309 54.8784 150.135 54.6429L150.29 58.3708L149.921 58.41C149.727 58.4492 149.513 58.4885 149.319 58.5277L148.95 58.567C148.173 58.7239 147.396 58.822 146.599 58.9397L146.191 59.0182L145.628 59.0967C142.695 59.548 139.859 59.96 137.586 60.2151L137.139 56.2321C137.877 56.1537 138.848 56.0359 139.82 55.9378L140.189 55.8986C140.344 55.8594 140.441 55.8594 140.597 55.8201V48.9138H137.955C137.391 52.8575 135.837 57.8214 133.234 61.0587L129.932 58.4689C133.72 53.9562 134.439 46.0689 134.439 41.3404V35.9645H131.35V28.5676H144.734V25.8208H149.086V28.5676H162.548V35.9645H159.692V38.2993H138.46V41.3796C138.46 42.4784 138.46 43.9303 138.382 45.2056H162.49V48.9334H158.877L161.596 51.229C159.809 52.3277 157.497 53.5638 155.827 54.3486C157.828 55.5847 160.819 56.7619 163.034 57.1347L161.81 61.1176L161.829 61.0587ZM158.333 34.4929V32.2759H135.41V34.4929H158.333ZM158.702 43.322H139.878V40.0847H158.702V43.322ZM153.01 52.1511C154.545 51.3663 156.584 49.9341 157.847 48.8746H150.97C151.611 49.9929 152.155 51.2486 153.01 52.1511Z" fill="#040000"/>
<path d="M201.322 59.704H170.629V27.311H201.322V59.704ZM196.971 55.78V31.2547H192.386C193.494 31.8629 194.834 32.7655 195.475 33.4325L193.979 34.9825H195.766V38.1022H189.511C189.706 40.0838 189.667 42.2813 189.919 43.8901C190.619 42.4971 191.182 40.7705 191.629 39.2009L194.931 39.868C194.076 42.9091 192.95 46.1072 191.396 48.4813C191.842 49.5407 192.134 50.3648 192.775 50.5021C193.144 50.6591 193.474 49.0306 193.552 47.7161L196.408 48.4224C195.747 53.4256 193.727 54.9952 191.415 53.9357C190.366 53.6021 189.667 52.6211 188.967 51.4635C187.86 52.5819 186.52 53.8376 185.024 54.799L183.081 51.7971C183.198 51.7186 183.645 51.4635 183.975 51.1888C183.722 51.2281 183.45 51.2673 183.198 51.3066L182.829 51.3851C182.421 51.4243 182.052 51.5028 181.683 51.5813L181.275 51.6205C179.449 51.9148 177.661 52.2287 176.107 52.4838L175.738 49.2857C177.681 49.0699 180.323 48.7167 183.023 48.3439L183.431 48.2654H183.645L184.053 48.187C184.053 48.187 184.169 48.187 184.247 48.1477L185.063 48.03C185.257 48.03 185.471 47.9908 185.665 47.9515L185.743 49.8743C186.384 49.3445 187.005 48.6382 187.569 47.9515C187.005 45.9895 186.559 43.3211 186.267 40.6332L186.228 40.2604C186.151 39.5148 186.073 38.7889 186.015 38.0825H176.166V34.9629H185.762C185.684 33.9819 185.645 32.8243 185.568 31.8041H189.142C189.181 32.8243 189.22 33.9819 189.298 34.9629H192.95C192.211 34.3155 191.046 33.4914 190.113 33.0009L191.862 31.2351H174.786V55.7604H196.951L196.971 55.78ZM184.966 46.8135H177.117V39.7503H184.966V46.8135ZM182.032 44.518V42.0851H179.915V44.518H182.032Z" fill="#040000"/>
<path d="M233.589 31.491V28.4106H238.465L239.203 28.1948L241.554 29.5486C240.66 32.4328 238.834 35.9448 237.241 38.0834C238.62 39.653 240.524 41.203 242.117 41.9094L240.116 45.4802C238.407 44.5385 236.872 43.3809 235.726 42.2037V44.2049H224.051V42.6353C222.943 43.6948 221.603 44.8132 220.321 45.5195C219.874 44.8132 219.35 43.5967 218.65 42.8904C218.942 44.4404 219.253 46.1866 219.253 47.5207C219.253 49.8163 218.767 51.6606 217.834 52.4062C217.349 52.8182 216.727 53.0537 216.047 53.191C215.523 53.2695 214.823 53.3087 214.182 53.2695C214.182 52.3277 213.891 50.8366 213.444 49.8556V60.8233H209.695V27.3512H216.611L217.135 27.1942L219.777 28.705C219.525 29.7252 219.253 30.9613 218.961 32.1974L218.845 32.5701C218.728 33.1391 218.592 33.6689 218.476 34.2182C220.438 32.0404 221.778 28.8815 222.633 25.8796L225.974 26.586C225.78 27.2727 225.527 28.0182 225.275 28.6461H227.664L228.325 28.5284L229.179 28.9012C228.985 28.3322 228.888 27.6651 228.732 27.0569L232.113 26.4094C232.443 28.0967 232.967 29.8233 233.608 31.4518L233.589 31.491ZM214.454 49.6986C214.746 49.6986 215.095 49.5809 215.27 49.4043C215.523 49.0707 215.717 48.0113 215.717 46.9321C215.717 45.1271 215.503 42.341 213.813 39.6727C214.066 38.5739 214.416 37.2005 214.668 35.7682L214.746 35.3562C215.037 33.9239 215.27 32.472 215.484 31.2556H213.405V49.6594C213.813 49.6986 214.182 49.6986 214.454 49.6986ZM218.514 42.4587C219.738 41.8113 220.826 40.7321 221.856 39.5746L222.108 39.3195C222.108 39.3195 222.186 39.2018 222.264 39.1625C221.7 38.5543 220.768 37.8087 220.03 37.2005C219.699 37.4948 219.505 37.8087 219.097 38.0638C218.903 37.7303 218.437 37.0828 217.834 36.6315C217.601 37.5341 217.31 38.5543 217.096 39.2999C217.699 40.3594 218.184 41.517 218.514 42.4587ZM221.001 59.6657C220.263 59.1359 218.883 58.0568 218.029 57.6448C219.525 56.134 220.923 53.5834 221.759 51.484L225.488 52.3866C224.478 54.9764 222.613 58.0568 221.02 59.6853L221.001 59.6657ZM225.139 60.784L224.847 57.0954C225.449 57.0954 226.557 57.1347 227.159 57.1347H227.528C227.936 57.0954 227.897 56.8992 227.897 56.5657V50.1106H220.709V46.5397H239.32V50.1106H231.879V56.6442C231.879 58.41 231.802 59.5283 230.617 60.0973C229.471 60.6663 227.722 60.7644 225.139 60.7644V60.784ZM223.759 37.2005C224.012 36.867 224.323 36.3372 224.498 35.9644C223.934 35.4739 223.079 34.8068 222.341 34.3163C222.089 34.6891 221.739 35.1404 221.487 35.4739C222.264 36.0037 223.196 36.6315 223.759 37.2005ZM225.702 33.6689C225.955 33.0018 226.265 32.1974 226.44 31.5303H223.992C223.837 31.7853 223.701 32.0993 223.546 32.3543C224.245 32.6879 225.1 33.2176 225.702 33.6689ZM234.327 40.6929C232.501 38.3189 230.908 34.8657 229.82 31.5303C228.849 34.9442 227.625 38.3777 225.76 40.6929H234.308H234.327ZM235.182 35.0423C235.784 33.9828 236.483 32.6682 236.891 31.4714H233.589C234.075 32.7467 234.638 33.9436 235.182 35.0423ZM237.94 59.6657C237.241 57.9391 235.143 54.898 233.589 52.9752L236.891 51.2486C238.445 53.0537 240.679 55.9378 241.476 57.6644L237.94 59.6657Z" fill="#040000"/>
<path d="M267.254 60.7443L267.099 56.5259C268.245 56.6044 269.935 56.6436 270.712 56.6436H270.906C271.508 56.6044 271.761 56.3101 271.761 55.8196V53.4455H259.153V60.705H254.88V44.2437C253.462 45.8133 251.674 47.481 249.79 48.7563L247.226 45.1462C250.8 42.7721 254.219 38.4165 256.337 34.3354H248.217V30.1956H258.143C258.707 28.7633 259.153 27.1544 259.251 25.7222L263.719 26.7817C263.388 27.8804 262.98 29.1165 262.572 30.1956H280.172V34.3354H260.863C260.455 35.2772 260.222 36.3563 259.717 37.2981H276.015V55.9373C276.015 57.9974 275.53 59.3905 274.111 60.0379C272.732 60.705 270.459 60.7443 267.273 60.7443H267.254ZM271.741 43.6158V41.1437H259.134V43.6158H271.741ZM271.741 49.8158V47.2652H259.134V49.8158H271.741Z" fill="#040000"/>
<path d="M291.983 60.7843H287.923V27.3515H296.626L297.267 27.1553L300.162 28.8819C299.676 30.3534 299.152 32.0407 298.627 33.7673L298.511 34.1401L298.394 34.5129C297.831 36.2002 297.306 37.8287 296.801 39.1432C299.113 41.8508 299.598 44.735 299.598 46.7755C299.637 49.1103 299.035 50.8761 297.889 51.6609C297.364 52.1122 296.549 52.3673 295.772 52.5242C295.072 52.6419 294.14 52.6027 292.877 52.6027L292.722 48.6983H293.984C294.353 48.6983 294.723 48.5806 295.072 48.404C295.48 48.0704 295.713 47.2071 295.713 46.2261C295.713 44.578 295.072 41.9882 293.033 39.6141C293.363 38.5939 293.693 37.3186 294.082 36.004L294.198 35.6312C294.567 34.0812 294.975 32.5508 295.305 31.2755H292.003V60.804L291.983 60.7843ZM317.645 60.8236C312.245 57.9394 309.311 51.5432 307.757 44.6958H305.115V54.5451C306.164 54.3489 307.233 54.0938 308.321 53.8388L308.651 53.7603C309.137 53.6426 309.622 53.5641 310.108 53.466L310.399 57.4097C309.836 57.5274 309.292 57.6647 308.729 57.7824L308.36 57.9002L307.991 57.9786C307.738 58.0571 307.466 58.0964 307.252 58.1748L306.281 58.4103L305.912 58.4888C305.659 58.5673 305.426 58.6457 305.174 58.685L304.805 58.8027C302.571 59.3324 300.414 59.8622 298.627 60.235L297.17 55.9185C298.258 55.8008 299.618 55.5065 300.958 55.2711V27.43H317.704V44.7546H311.235C311.604 46.0692 312.128 47.5799 312.653 48.7768C313.799 47.6584 315.178 46.0692 315.994 44.9901L319.452 47.5799C317.956 48.973 315.916 50.778 314.401 51.9356C315.819 53.9565 317.975 55.9185 319.899 56.7818L317.665 60.8824L317.645 60.8236ZM313.294 34.1401V31.1774H305.115V34.1401H313.294ZM313.294 40.9091V37.711H305.115V40.9091H313.294Z" fill="#040000"/>
<path d="M328.659 44.5193L325.687 40.9877C328.407 38.9668 331.67 34.6111 332.933 31.4522L337.731 32.9238C335.789 36.8282 332.234 41.7136 328.659 44.5389V44.5193ZM354.146 61.0592C353.816 60.1959 353.214 59.0383 352.651 57.9788C351.543 58.0573 350.417 58.1357 349.27 58.175L348.901 58.2142H348.299C348.144 58.2535 348.008 58.2535 347.891 58.2535L347.483 58.2927L346.065 58.3319L345.871 58.3712H345.463C345.269 58.4104 345.055 58.4104 344.861 58.4104L344.453 58.4497H344.258L343.617 58.4889C343.365 58.4889 343.093 58.4889 342.84 58.5281H342.432C342.063 58.5674 341.655 58.5674 341.247 58.6066H340.878L340.47 58.6459H339.868C339.616 58.6851 339.383 58.6851 339.13 58.6851L338.722 58.7243C338.081 58.7636 337.459 58.8028 336.818 58.8028L336.449 58.8421C336.197 58.8421 335.964 58.8421 335.711 58.8813H335.342C332.622 58.999 330.097 59.0971 328.018 59.1756L327.455 54.5452C328.601 54.506 330.097 54.506 331.554 54.4668H331.962C332.253 54.4668 332.603 54.4275 332.894 54.4275C333.749 52.8579 334.643 50.8566 335.459 48.7965L335.614 48.4237C336.838 45.1864 338.003 41.7725 338.78 39.1434L343.987 40.4972C343.287 42.1453 342.53 43.9896 341.753 45.8731L341.558 46.2066C341.519 46.3244 341.481 46.4617 341.403 46.5794L341.247 46.913C341.247 46.913 341.209 47.0699 341.17 47.1092L341.014 47.482C339.927 49.9149 338.819 52.3282 337.77 54.1725C338.217 54.1725 338.703 54.1725 339.188 54.1332H340.082C340.568 54.094 341.053 54.094 341.539 54.0547H342.432C342.627 54.0155 342.802 54.0155 342.996 54.0155H343.365C343.481 54.0155 343.617 53.9763 343.734 53.9763H344.472C344.666 53.937 344.841 53.937 345.036 53.937H345.405C345.599 53.8978 345.774 53.8978 345.968 53.8978H346.337C346.454 53.8978 346.59 53.8978 346.706 53.8585H347.269C347.522 53.8585 347.794 53.8193 348.008 53.8193H348.61C348.901 53.7801 349.212 53.78 349.542 53.78L350.106 53.7408C348.765 51.7592 347.172 49.3459 345.754 47.6193L349.892 45.6573C353.097 49.444 356.924 55.2319 358.556 58.6655L354.127 61.0788L354.146 61.0592ZM355.856 43.656C352.281 40.4579 348.901 35.6902 346.823 31.5111H335.886V27.2339H349.911C351.737 31.8643 355.856 37.3775 359.255 39.8889L355.875 43.6364L355.856 43.656Z" fill="#040000"/>
<path d="M386.024 60.6463L385.791 55.9179C387.093 56.0356 389.618 56.0356 390.298 55.9964C390.939 55.9964 391.269 55.6628 391.269 55.0546V32.1774H366.268V27.9983H395.737V55.0938C395.737 57.5071 395.213 59.0767 393.698 59.7831C392.279 60.5286 389.715 60.6856 386.044 60.6463H386.024ZM387.85 38.6521H366.637V34.8261H387.85V38.6521ZM385.947 54.8191H368.541V41.4774H385.947V54.8191ZM381.712 51.0521V45.2248H372.776V51.0521H381.712Z" fill="#040000"/>
</svg>
