<svg width="207" height="175" viewBox="0 0 207 175" fill="none" xmlns="http://www.w3.org/2000/svg">
<path d="M42.7852 127.638V127.967H71.4223V127.638H42.7852ZM137.302 127.638V127.967H163.446V127.638H137.302Z" fill="white"/>
<path d="M163.618 128.14H137.128V127.465H163.618V128.14ZM71.5948 128.14H42.6113V127.465H71.6121V128.14H71.5948Z" fill="white"/>
<path d="M107.208 0H109.164V59.1962L130.478 39.4757H133.369L114.48 56.9281L134.304 84.4745H131.88L113.025 58.2786L109.164 61.8625V84.4918H107.208V0Z" fill="white"/>
<path d="M48.4976 96.421H43.667V115.57H45.4849V107.086H48.5149C51.4582 107.086 53.8476 104.697 53.8476 101.754C53.8476 98.8103 51.4582 96.421 48.5149 96.421H48.4976ZM50.9908 104.23C50.3502 104.887 49.4498 105.251 48.4976 105.268C48.4803 105.268 48.2898 105.268 48.2898 105.268H45.4676V98.2562H48.4976C50.4367 98.2562 52.0123 99.8145 52.0123 101.754C52.0123 102.706 51.6487 103.554 50.9908 104.23V104.23Z" fill="white"/>
<path d="M40.2559 72.9954H42.2123C42.2123 78.6744 46.9044 83.2799 52.6699 83.2799C58.4354 83.2799 63.1448 78.6744 63.1448 72.9954C63.1448 68.4246 60.0803 64.3039 55.5613 63.1092C55.5613 63.1092 49.5015 61.5337 49.5015 61.5163C44.4285 60.1659 40.8965 55.5084 40.8965 50.3489C40.8965 43.9601 46.1945 38.7313 52.6872 38.7313C59.1799 38.7313 64.4953 43.9601 64.4953 50.3489H62.5561C62.5561 45.0162 58.1411 40.6704 52.6872 40.6704C47.2334 40.6704 42.8356 45.0162 42.8356 50.3489C42.8356 54.66 45.7963 58.5557 50.0036 59.6638L56.0461 61.2566C61.3788 62.6244 65.084 67.5762 65.084 72.9954C65.084 79.7479 59.5089 85.2191 52.6699 85.2191C45.8309 85.2191 40.2732 79.7479 40.2732 72.9954H40.2559Z" fill="white"/>
<path d="M78.2775 39.4758H76.3037V84.4919H78.2775V39.4758Z" fill="white"/>
<path d="M77.1516 115.553H67.248V96.4039H69.066V113.735H77.1689V115.553H77.1516Z" fill="white"/>
<path d="M93.7221 0H91.7656V84.4918H93.7221V0Z" fill="white"/>
<path d="M98.4664 96.7847L98.0163 95.5208L97.5488 96.7847L90.5713 115.553H92.4585L93.5666 112.419L94.2418 110.48C94.3284 110.238 94.3977 110.064 94.4496 109.926H101.566C101.618 110.064 101.669 110.238 101.756 110.48L102.449 112.419L103.557 115.553H105.444L98.4664 96.7847V96.7847ZM95.0902 108.195C95.6096 106.792 96.8389 103.381 97.6527 101.165C97.7912 100.767 97.9124 100.438 98.0163 100.161C98.1201 100.438 98.224 100.75 98.3799 101.148C99.1936 103.381 100.44 106.792 100.96 108.195H95.1075H95.0902Z" fill="white"/>
<path d="M129.007 114.029C132.47 114.029 135.604 111.917 136.816 108.783C136.816 108.766 136.937 108.385 136.937 108.385H138.859L138.565 109.285C137.127 113.233 133.284 115.882 129.007 115.882C123.415 115.882 118.861 111.45 118.861 105.996C118.861 100.542 123.398 96.1269 129.007 96.1269C133.284 96.1269 137.127 98.7586 138.565 102.706L138.859 103.606H136.92C136.92 103.606 136.816 103.208 136.799 103.208C135.604 100.057 132.47 97.9622 129.007 97.9622C124.419 97.9622 120.679 101.581 120.679 106.013C120.679 110.445 124.419 114.064 129.007 114.064V114.029Z" fill="white"/>
<path d="M162.216 98.2219H154.13V105.078H161.904V106.896H154.13V113.735H162.216V115.553H152.312V96.4039H162.216V98.2219V98.2219Z" fill="white"/>
<path d="M150.512 85.2191C143.673 85.2191 138.098 79.7479 138.098 72.9954H140.037C140.037 78.6744 144.729 83.2799 150.494 83.2799C156.26 83.2799 160.952 78.6744 160.952 72.9954C160.952 68.4246 157.887 64.3039 153.369 63.1092C153.369 63.1092 147.326 61.5337 147.309 61.5163C142.236 60.1659 138.704 55.5084 138.704 50.3489C138.704 43.9601 144.002 38.7313 150.512 38.7313C157.022 38.7313 162.32 43.9601 162.32 50.3489H160.363C160.363 45.0162 155.948 40.6704 150.512 40.6704C145.075 40.6704 140.66 45.0162 140.66 50.3489C140.66 54.66 143.621 58.5557 147.828 59.6638C147.828 59.6638 153.871 61.2566 153.888 61.2566C159.221 62.6244 162.926 67.5762 162.926 72.9954C162.926 79.7479 157.351 85.2191 150.512 85.2191V85.2191Z" fill="white"/>
<path d="M79.3506 123.829C79.3506 123.639 79.1774 123.466 78.9697 123.466H77.7058C77.6192 123.466 76.8228 123.795 76.4765 124.678H76.4072C76.4592 124.279 76.5111 124.158 77.1171 123.067C77.775 123.189 78.4156 123.189 78.9177 123.189C79.4545 123.189 81.8611 123.102 82.4498 123.102C82.7614 123.102 83.0038 123.24 83.0038 123.656C83.0038 123.76 82.8999 124.245 82.4325 124.764C82.3978 124.764 82.3459 124.695 82.3113 124.678C82.4671 124.522 82.571 124.314 82.6402 124.227V124.089C82.6402 123.431 82.2074 123.431 81.9477 123.431H80.9781C80.4414 123.431 80.2509 123.5 80.2509 123.916V130.668C80.2509 131.032 80.424 131.222 80.5972 131.361C80.7184 131.361 80.8915 131.395 80.9608 131.395C81.082 131.395 81.1512 131.378 81.2551 131.326V131.516C81.1512 131.568 81.0647 131.568 80.9088 131.568C80.5452 131.568 80.1124 131.516 79.6969 131.516C79.5237 131.516 78.7619 131.568 78.6234 131.568C78.4329 131.568 78.3637 131.568 78.2425 131.516V131.326C78.381 131.361 78.5368 131.378 78.6753 131.378C78.7792 131.378 78.9177 131.378 79.1082 131.326C79.2986 131.049 79.3506 130.824 79.3506 130.218V123.795V123.829Z" fill="white"/>
<path d="M80.892 131.776C80.7189 131.776 80.5284 131.776 80.3206 131.759C80.1129 131.759 79.8878 131.741 79.68 131.741C79.5935 131.741 79.3337 131.741 79.1087 131.759C78.8836 131.759 78.6758 131.776 78.6066 131.776C78.3988 131.776 78.3122 131.759 78.1737 131.724L78.0352 131.689V131.135L78.243 131.187C78.3642 131.222 78.5027 131.239 78.6412 131.239C78.7278 131.239 78.8316 131.239 78.9702 131.205C79.0914 130.997 79.1433 130.806 79.1433 130.27V123.846C79.1433 123.742 79.0394 123.673 78.9528 123.673H77.6889C77.6889 123.673 76.9444 123.985 76.6155 124.781L76.5635 124.92L76.1826 124.85V124.695C76.2519 124.279 76.3384 124.141 76.9444 123.033L77.0137 122.929H77.1349C77.7928 123.067 78.4161 123.067 78.9182 123.067C79.1779 123.067 79.8878 123.067 80.5977 123.033C81.3595 123.033 82.1386 122.998 82.4329 122.998C82.9004 122.998 83.1601 123.258 83.1601 123.725C83.1601 123.864 83.0389 124.4 82.5368 124.954L82.4502 125.041L82.329 124.972C82.329 124.972 82.2598 124.937 82.2425 124.92L82.0347 124.816L82.1559 124.625C82.2598 124.504 82.3637 124.366 82.4329 124.262V124.227V124.158C82.4329 123.708 82.2252 123.673 81.9135 123.673H80.9439C80.3899 123.673 80.3899 123.742 80.3899 123.985V130.737C80.3899 131.014 80.4938 131.153 80.6323 131.274C80.7362 131.274 80.8747 131.291 80.9266 131.291C81.0305 131.291 81.0651 131.291 81.1344 131.239L81.3941 131.101V131.689L81.2902 131.741C81.1344 131.811 81.0305 131.811 80.8747 131.811L80.892 131.776ZM79.68 131.378C79.8878 131.378 80.0956 131.378 80.3206 131.395C80.1821 131.239 80.0436 131.032 80.0436 130.685V123.933C80.0436 123.569 80.1821 123.396 80.4072 123.327C79.957 123.327 79.5415 123.344 79.2299 123.361C79.3857 123.465 79.5069 123.639 79.5069 123.829V130.252C79.5069 130.841 79.4549 131.118 79.2645 131.395C79.4376 131.395 79.5935 131.395 79.6627 131.395L79.68 131.378ZM82.1559 123.292C82.3983 123.327 82.6753 123.448 82.7619 123.829C82.7792 123.742 82.7965 123.69 82.7965 123.673C82.7965 123.413 82.6926 123.292 82.4156 123.292H82.1559V123.292ZM77.1868 123.292C77.1003 123.465 77.0137 123.587 76.9617 123.708C77.2041 123.5 77.4292 123.379 77.5677 123.344C77.4465 123.344 77.308 123.31 77.1868 123.292Z" fill="white"/>
<path d="M87.8339 123.067C87.8339 123.067 87.8686 122.998 87.9032 122.981H88.0244C88.0244 122.981 88.0936 123.05 88.111 123.102L91.0716 130.72C91.2275 131.136 91.2794 131.188 91.4525 131.361C91.6084 131.43 91.6776 131.43 91.7815 131.43C91.8508 131.43 91.9373 131.43 92.0239 131.43V131.586C92.0239 131.586 91.9027 131.586 91.8508 131.586C91.8161 131.586 90.8812 131.517 90.6734 131.517C90.5176 131.517 89.7904 131.586 89.6519 131.586C89.4614 131.586 89.4441 131.586 89.3056 131.586V131.395C89.548 131.43 89.6 131.43 89.877 131.413C90.0674 131.292 90.1367 131.222 90.1367 131.032C90.1367 130.98 90.1367 130.807 90.0674 130.616L88.9767 127.794H86.3449L85.4793 129.993C85.41 130.149 85.2715 130.616 85.2715 130.876C85.2715 131.153 85.3927 131.291 85.4793 131.378C85.6005 131.43 85.7216 131.43 85.8255 131.43H86.1199V131.586C86.016 131.586 85.9987 131.586 85.8082 131.586C85.6697 131.586 85.0983 131.517 84.9252 131.517C84.6482 131.517 84.25 131.586 84.0768 131.586C83.9037 131.586 83.8864 131.586 83.7998 131.586V131.395C83.9383 131.43 83.9729 131.43 84.2673 131.413C84.4231 131.292 84.7348 131.049 84.9598 130.478L87.8166 123.067H87.8339ZM88.8728 127.517L87.6608 124.453L86.4488 127.517H88.8728V127.517Z" fill="white"/>
<path d="M91.8511 131.776C91.8511 131.776 91.7473 131.776 91.6261 131.776C91.349 131.776 90.8123 131.724 90.6911 131.724C90.6218 131.724 90.3795 131.741 90.1717 131.759C89.9466 131.759 89.7388 131.793 89.6696 131.793C89.4618 131.793 89.4445 131.793 89.306 131.776H89.1502V131.222H89.3579C89.5657 131.274 89.6176 131.274 89.86 131.274C89.9985 131.187 89.9985 131.17 89.9985 131.066C89.9985 130.928 89.9812 130.824 89.9466 130.72L88.8905 128.002H86.5011L85.6874 130.079C85.6181 130.252 85.4796 130.668 85.4796 130.893C85.4796 131.066 85.5316 131.17 85.6181 131.239C85.7047 131.274 85.7913 131.274 85.8605 131.274H86.328V131.741H86.1895C86.0856 131.776 86.0683 131.776 85.8605 131.776C85.7913 131.776 85.6181 131.776 85.445 131.741C85.2545 131.741 85.0641 131.707 84.9775 131.707C84.8217 131.707 84.6312 131.724 84.4754 131.741C84.3369 131.741 84.2157 131.759 84.1465 131.759C83.956 131.759 83.9387 131.759 83.8348 131.741L83.6963 131.707V131.17L83.9041 131.222C84.0426 131.257 84.0599 131.239 84.2677 131.222C84.4408 131.083 84.6832 130.858 84.8563 130.374L87.7131 122.963C87.7131 122.963 87.7824 122.825 87.8689 122.79H87.9555L88.1633 122.773L88.2152 122.825C88.2152 122.825 88.3018 122.911 88.3364 123.015L91.2971 130.633C91.4356 130.997 91.4702 131.049 91.6261 131.205C91.7299 131.239 91.7819 131.239 91.8858 131.239C91.955 131.239 92.007 131.239 92.0589 131.239L92.2667 131.187V131.741H92.0416C92.0416 131.741 91.955 131.741 91.9204 131.741L91.8511 131.776ZM89.1155 127.69L90.2409 130.564C90.2929 130.703 90.3102 130.858 90.3102 131.032C90.3102 131.187 90.2756 131.291 90.2063 131.378C90.4141 131.378 90.5872 131.343 90.6738 131.343C90.7604 131.343 90.9854 131.343 91.2278 131.361C91.1066 131.222 91.0374 131.118 90.9162 130.772L87.9728 123.171L87.6785 123.967L89.1502 127.69H89.1155ZM84.9256 131.361C84.9256 131.361 85.116 131.361 85.2372 131.378C85.168 131.274 85.0987 131.118 85.0987 130.876C85.0987 130.789 85.0987 130.668 85.1333 130.564C84.9775 130.962 84.7698 131.222 84.6139 131.378C84.7178 131.378 84.839 131.361 84.9256 131.361V131.361ZM86.7089 127.344H88.6134L87.6612 124.92L86.7089 127.344V127.344Z" fill="white"/>
<path d="M97.0295 123.292C96.9083 123.292 96.8044 123.292 96.7005 123.292C95.9733 123.292 95.9387 124.002 95.9387 124.401V130.408C95.9387 130.737 95.9387 131.43 96.7178 131.43C96.7871 131.43 96.8737 131.43 96.9429 131.43V131.638H96.3889C96.2504 131.638 95.6271 131.568 95.4885 131.568C95.3847 131.568 94.8479 131.638 94.7614 131.638H94.0515V131.43C94.1381 131.43 94.2593 131.43 94.3805 131.43C95.0384 131.43 95.0384 130.962 95.0384 130.391V124.418C95.0384 123.812 95.0384 123.292 94.3285 123.292C94.2246 123.292 94.1381 123.292 94.0342 123.292V123.102H94.2766C94.6402 123.102 95.1942 123.154 95.5405 123.154C95.7136 123.154 96.5101 123.085 96.6832 123.085C96.8563 123.085 96.891 123.085 97.0295 123.085V123.275V123.292Z" fill="white"/>
<path d="M97.1151 131.776H96.3879C96.3879 131.776 96.0936 131.759 95.9031 131.741C95.73 131.741 95.5568 131.707 95.4876 131.707C95.4357 131.707 95.2798 131.724 95.124 131.741C94.9682 131.741 94.8123 131.776 94.7604 131.776H93.8774V131.187L94.0852 131.222C94.1891 131.222 94.2756 131.239 94.3795 131.222C94.8124 131.222 94.847 131.014 94.847 130.356V124.383C94.847 123.673 94.8124 123.448 94.3102 123.448C94.2237 123.448 94.1371 123.448 94.0505 123.448L93.8428 123.483V122.911L94.241 122.877C94.4314 122.877 94.6565 122.894 94.8989 122.911C95.124 122.911 95.3491 122.946 95.5222 122.946C95.6088 122.946 95.8512 122.946 96.0936 122.911C96.3533 122.911 96.5957 122.877 96.6823 122.877C96.8727 122.877 96.89 122.877 97.0458 122.894H97.2017V123.465L96.9939 123.431C96.89 123.431 96.7861 123.431 96.6996 123.431C96.284 123.431 96.1109 123.69 96.1109 124.366V130.374C96.1109 130.893 96.2148 131.222 96.7169 131.222C96.7688 131.222 96.8381 131.222 96.9073 131.222L97.1151 131.17V131.776V131.776ZM94.9162 123.292C95.1933 123.535 95.1933 123.985 95.1933 124.4V130.374C95.1933 130.754 95.1933 131.187 94.9162 131.412C94.9682 131.412 95.0201 131.412 95.0721 131.412C95.2452 131.412 95.4183 131.378 95.4876 131.378C95.5568 131.378 95.73 131.395 95.9204 131.412C95.9897 131.412 96.0416 131.412 96.1109 131.412C95.7473 131.135 95.7473 130.599 95.7473 130.391V124.383C95.7473 124.158 95.7473 123.586 96.1109 123.292C95.8685 123.292 95.6088 123.327 95.5222 123.327C95.3491 123.327 95.1413 123.309 94.9162 123.292Z" fill="white"/>
<path d="M100.525 123.881L100.214 123.569C99.9712 123.327 99.902 123.275 99.5557 123.275H99.3652V123.102C99.4518 123.102 99.6423 123.102 99.9885 123.102C100.421 123.102 100.785 123.137 100.889 123.206C100.993 123.258 101.131 123.344 101.218 123.448L107.139 130.322V124.695C107.139 123.985 107.053 123.743 106.897 123.552C106.81 123.396 106.516 123.31 106.325 123.31C106.222 123.31 106.1 123.31 105.996 123.31V123.119C105.996 123.119 106.377 123.119 106.602 123.119C106.793 123.119 107.018 123.171 107.364 123.171C107.676 123.171 107.953 123.119 108.195 123.119C108.334 123.119 108.403 123.119 108.524 123.119V123.31C108.524 123.31 108.351 123.31 108.282 123.31C107.676 123.31 107.485 123.587 107.485 124.695V131.534C107.485 131.534 107.485 131.672 107.399 131.707C107.399 131.707 107.33 131.707 107.312 131.707C107.278 131.707 107.191 131.707 107.122 131.672L100.889 124.297V130.028C100.889 130.755 100.975 130.98 101.131 131.17C101.218 131.309 101.529 131.413 101.703 131.413C101.806 131.413 101.928 131.413 102.032 131.413V131.62C102.032 131.62 101.633 131.62 101.426 131.62C101.252 131.62 101.01 131.568 100.664 131.568C100.352 131.568 100.075 131.62 99.8327 131.62C99.6942 131.62 99.6249 131.62 99.5037 131.62V131.413C99.5037 131.413 99.6596 131.413 99.7461 131.413C100.352 131.413 100.543 131.136 100.543 130.028V123.881H100.525Z" fill="white"/>
<path d="M107.278 131.88C107.278 131.88 107.123 131.88 107.019 131.828L106.967 131.776L101.045 124.764V130.027C101.045 130.702 101.115 130.91 101.253 131.049C101.323 131.153 101.565 131.239 101.721 131.239C101.807 131.239 101.911 131.239 101.998 131.239L102.206 131.205V131.759L102.067 131.793C102.067 131.793 101.79 131.811 101.426 131.811C101.357 131.811 101.253 131.811 101.149 131.793C100.924 131.776 100.526 131.759 100.214 131.793C100.076 131.793 99.9547 131.811 99.8335 131.811C99.695 131.811 99.6084 131.811 99.4873 131.793H99.3314V131.205L99.5392 131.257C99.5392 131.257 99.6777 131.274 99.747 131.257C100.145 131.257 100.37 131.205 100.37 130.045V123.985L100.111 123.725C99.9028 123.5 99.8682 123.483 99.5911 123.483H99.2275V122.946H99.4007C99.4007 122.946 99.4699 122.946 99.5219 122.946C99.6258 122.946 99.7816 122.946 100.007 122.946C100.803 122.946 100.959 123.05 100.994 123.084C101.08 123.136 101.253 123.24 101.357 123.361L106.967 129.854V124.712C106.967 124.037 106.898 123.829 106.776 123.69C106.707 123.586 106.482 123.5 106.344 123.5C106.257 123.5 106.136 123.5 106.049 123.5L105.841 123.535V122.98L105.98 122.946C105.98 122.946 106.257 122.929 106.621 122.929C106.707 122.929 106.794 122.929 106.898 122.946C107.123 122.963 107.521 122.98 107.833 122.946C107.971 122.946 108.092 122.929 108.213 122.929C108.352 122.929 108.439 122.929 108.56 122.946H108.716V123.517L108.508 123.483C108.508 123.483 108.369 123.483 108.3 123.483C107.902 123.483 107.677 123.535 107.677 124.695V131.534C107.677 131.672 107.607 131.793 107.486 131.863H107.434C107.434 131.863 107.348 131.914 107.296 131.914L107.278 131.88ZM107.192 131.516C107.192 131.516 107.227 131.516 107.278 131.516V130.72L101.08 123.535C101.08 123.535 100.89 123.379 100.803 123.327C100.751 123.309 100.578 123.257 100.145 123.24C100.197 123.292 100.266 123.344 100.353 123.431L100.717 123.794L107.209 131.499L107.192 131.516ZM100.63 131.378C100.82 131.378 100.976 131.378 101.097 131.395C101.045 131.36 100.994 131.308 100.959 131.257C100.786 131.083 100.717 130.824 100.682 130.322C100.682 130.824 100.578 131.187 100.353 131.378C100.44 131.378 100.526 131.378 100.613 131.378H100.63ZM106.88 123.275C106.88 123.275 106.984 123.361 107.019 123.413C107.192 123.604 107.261 123.863 107.278 124.348C107.296 123.846 107.382 123.483 107.607 123.292C107.348 123.292 107.071 123.292 106.88 123.275V123.275Z" fill="white"/>
<path d="M114.066 123.067C114.066 123.067 114.1 122.998 114.135 122.981H114.273C114.273 122.981 114.343 123.05 114.36 123.102L117.321 130.72C117.494 131.136 117.528 131.188 117.719 131.361C117.875 131.43 117.944 131.43 118.048 131.43C118.134 131.43 118.204 131.43 118.29 131.43V131.586C118.29 131.586 118.169 131.586 118.117 131.586C118.082 131.586 117.148 131.517 116.94 131.517C116.784 131.517 116.057 131.586 115.918 131.586C115.728 131.586 115.71 131.586 115.572 131.586V131.395C115.814 131.43 115.866 131.43 116.143 131.413C116.334 131.292 116.403 131.222 116.403 131.032C116.403 130.98 116.403 130.807 116.334 130.616L115.226 127.794H112.594L111.728 129.993C111.659 130.149 111.521 130.616 111.521 130.876C111.521 131.153 111.642 131.291 111.728 131.378C111.867 131.43 111.971 131.43 112.075 131.43H112.369V131.586C112.265 131.586 112.248 131.586 112.057 131.586C111.936 131.586 111.347 131.517 111.174 131.517C110.897 131.517 110.499 131.586 110.326 131.586C110.153 131.586 110.135 131.586 110.049 131.586V131.395C110.205 131.43 110.222 131.43 110.516 131.413C110.689 131.292 110.984 131.049 111.209 130.478L114.066 123.067V123.067ZM115.104 127.517L113.893 124.453L112.698 127.517H115.122H115.104Z" fill="white"/>
<path d="M118.082 131.776C118.082 131.776 117.978 131.776 117.857 131.776C117.58 131.776 117.043 131.724 116.905 131.724C116.836 131.724 116.611 131.741 116.385 131.759C116.178 131.759 115.953 131.793 115.883 131.793C115.676 131.793 115.658 131.793 115.52 131.776H115.364V131.222H115.554C115.779 131.274 115.831 131.274 116.057 131.274C116.195 131.187 116.195 131.17 116.195 131.066C116.195 130.928 116.195 130.824 116.143 130.72L115.07 128.002H112.68L111.867 130.079C111.797 130.252 111.659 130.668 111.659 130.893C111.659 131.066 111.711 131.17 111.797 131.239C111.884 131.274 111.97 131.274 112.04 131.274H112.507V131.741H112.369C112.265 131.776 112.247 131.776 112.022 131.776C111.953 131.776 111.797 131.776 111.607 131.741C111.416 131.741 111.226 131.707 111.139 131.707C110.984 131.707 110.793 131.724 110.637 131.741C110.499 131.741 110.378 131.759 110.291 131.759C110.118 131.759 110.083 131.759 109.979 131.741L109.841 131.707V131.17L110.049 131.222C110.187 131.257 110.204 131.239 110.429 131.222C110.603 131.083 110.828 130.858 111.018 130.374L113.875 122.963C113.875 122.963 113.944 122.825 114.031 122.79H114.1L114.308 122.773L114.36 122.825C114.36 122.825 114.464 122.911 114.481 123.015L117.442 130.633C117.58 131.014 117.615 131.049 117.771 131.205C117.874 131.239 117.926 131.239 118.03 131.239C118.1 131.239 118.151 131.239 118.203 131.239L118.411 131.187V131.741H118.186C118.186 131.741 118.1 131.741 118.065 131.741L118.082 131.776ZM115.347 127.69L116.472 130.564C116.524 130.703 116.541 130.858 116.541 131.032C116.541 131.187 116.507 131.291 116.437 131.378C116.645 131.378 116.818 131.343 116.905 131.343C116.991 131.343 117.217 131.343 117.459 131.361C117.338 131.222 117.268 131.118 117.13 130.772L114.187 123.171L113.892 123.95L115.364 127.673L115.347 127.69ZM111.157 131.361C111.157 131.361 111.33 131.361 111.468 131.378C111.399 131.274 111.33 131.118 111.33 130.876C111.33 130.789 111.33 130.668 111.364 130.564C111.209 130.962 111.001 131.222 110.845 131.378C110.949 131.378 111.07 131.361 111.157 131.361V131.361ZM112.94 127.344H114.845L113.892 124.92L112.94 127.344Z" fill="white"/>
<path d="M121.13 123.881L120.818 123.569C120.576 123.327 120.506 123.275 120.16 123.275H119.97V123.102C120.074 123.102 120.247 123.102 120.593 123.102C121.026 123.102 121.389 123.137 121.493 123.206C121.597 123.258 121.736 123.344 121.822 123.448L127.744 130.322V124.695C127.744 123.985 127.657 123.743 127.501 123.552C127.415 123.396 127.12 123.31 126.93 123.31C126.826 123.31 126.705 123.31 126.601 123.31V123.119C126.601 123.119 126.999 123.119 127.207 123.119C127.38 123.119 127.605 123.171 127.969 123.171C128.28 123.171 128.557 123.119 128.8 123.119C128.921 123.119 129.008 123.119 129.129 123.119V123.31C129.129 123.31 128.973 123.31 128.886 123.31C128.28 123.31 128.09 123.587 128.09 124.695V131.534C128.09 131.534 128.09 131.672 128.003 131.707C128.003 131.707 127.934 131.707 127.899 131.707C127.865 131.707 127.778 131.707 127.709 131.672L121.493 124.297V130.028C121.493 130.755 121.563 130.98 121.736 131.17C121.84 131.309 122.117 131.413 122.307 131.413C122.411 131.413 122.532 131.413 122.636 131.413V131.62C122.636 131.62 122.255 131.62 122.03 131.62C121.857 131.62 121.632 131.568 121.268 131.568C120.957 131.568 120.68 131.62 120.437 131.62C120.316 131.62 120.229 131.62 120.108 131.62V131.413C120.108 131.413 120.264 131.413 120.351 131.413C120.957 131.413 121.147 131.136 121.147 130.028V123.881H121.13Z" fill="white"/>
<path d="M127.882 131.88C127.882 131.88 127.727 131.88 127.623 131.828L127.571 131.776L121.649 124.764V130.027C121.649 130.702 121.719 130.91 121.84 131.049C121.909 131.153 122.152 131.239 122.307 131.239C122.394 131.239 122.498 131.239 122.567 131.239L122.775 131.205V131.759L122.636 131.793C122.636 131.793 122.359 131.811 121.996 131.811C121.926 131.811 121.823 131.811 121.719 131.793C121.476 131.776 121.095 131.759 120.784 131.793C120.645 131.793 120.524 131.811 120.403 131.811C120.264 131.811 120.178 131.811 120.057 131.793H119.901V131.205L120.109 131.257C120.109 131.257 120.247 131.274 120.316 131.257C120.715 131.257 120.94 131.205 120.94 130.045V123.985L120.68 123.725C120.455 123.5 120.437 123.483 120.16 123.483H119.797V122.946H119.97C119.97 122.946 120.039 122.946 120.091 122.946C120.195 122.946 120.351 122.946 120.576 122.946C121.372 122.946 121.528 123.05 121.563 123.084C121.649 123.136 121.823 123.24 121.926 123.361L127.536 129.854V124.712C127.536 124.037 127.467 123.829 127.346 123.69C127.276 123.586 127.051 123.5 126.913 123.5C126.826 123.5 126.705 123.5 126.619 123.5L126.411 123.535V122.98L126.549 122.946C126.549 122.946 126.826 122.929 127.19 122.929C127.276 122.929 127.363 122.929 127.467 122.946C127.709 122.963 128.09 122.98 128.402 122.946C128.54 122.946 128.662 122.929 128.783 122.929C128.921 122.929 129.008 122.929 129.129 122.946H129.285V123.517L129.077 123.483C129.077 123.483 128.939 123.483 128.869 123.483C128.471 123.483 128.246 123.535 128.246 124.695V131.534C128.246 131.672 128.177 131.793 128.056 131.863H128.004C128.004 131.863 127.917 131.914 127.865 131.914L127.882 131.88ZM127.813 131.516C127.813 131.516 127.848 131.516 127.9 131.516V130.72L121.701 123.535C121.701 123.535 121.511 123.379 121.424 123.327C121.372 123.309 121.199 123.257 120.766 123.24C120.836 123.292 120.888 123.344 120.974 123.431L121.338 123.794L127.831 131.499L127.813 131.516ZM121.251 131.378C121.442 131.378 121.598 131.378 121.719 131.395C121.667 131.36 121.615 131.308 121.58 131.257C121.407 131.083 121.338 130.824 121.321 130.322C121.303 130.824 121.217 131.187 120.992 131.378C121.078 131.378 121.165 131.378 121.269 131.378H121.251ZM127.502 123.275C127.502 123.275 127.605 123.361 127.64 123.413C127.813 123.604 127.882 123.846 127.9 124.348C127.917 123.846 128.004 123.483 128.229 123.292C127.969 123.292 127.692 123.292 127.502 123.275Z" fill="white"/>
<path d="M21.7131 156.553C15.861 157.609 9.52412 158.457 2.65051 159.115C2.13109 159.184 1.83675 159.288 1.7675 159.427C1.6463 159.687 1.50779 159.808 1.33465 159.808C1.10957 159.79 0.953746 159.652 0.867176 159.392C0.607468 158.734 0.399701 157.73 0.226562 156.38C0.226562 156.172 0.330446 156.085 0.520899 156.137C1.61167 156.276 3.37769 156.345 5.80164 156.38C8.46797 152.813 9.9916 149.419 10.4244 146.199C10.4244 146.078 10.4937 146.026 10.6322 146.043C11.7749 146.234 12.8484 146.545 13.8526 146.943C14.2162 147.134 14.4066 147.376 14.372 147.619C14.3201 147.878 14.0777 148.017 13.6621 148.034C13.5236 148.034 13.4197 148.104 13.3332 148.242C11.7057 151.307 9.61069 154.008 7.03092 156.362C12.5714 156.345 17.2807 156.154 21.1591 155.808C19.6354 153.748 17.9733 152.38 16.1553 151.67C16.0341 151.601 15.9822 151.514 16.0168 151.376C16.0515 151.255 16.138 151.203 16.2765 151.203C16.5709 151.255 17.2807 151.445 18.4061 151.757C20.1375 152.293 21.6612 153.107 23.0463 154.215C25.1413 156.051 26.0935 157.609 25.9204 158.907C25.8338 159.479 25.5568 159.877 25.072 160.102C24.5872 160.292 24.1197 160.275 23.7042 160.015C23.3406 159.79 23.0463 159.358 22.8558 158.752C22.5269 157.92 22.1459 157.193 21.7131 156.518V156.553ZM6.8751 171.529V172.62C6.85778 173.209 6.71927 173.59 6.45956 173.797C6.1306 174.074 5.66312 174.213 5.05714 174.213C4.69355 174.213 4.39921 174.109 4.20876 173.919C4.05293 173.763 3.98368 173.52 3.98368 173.209V161.106C3.96636 160.985 3.98368 160.916 4.03562 160.898C4.07025 160.898 4.15682 160.898 4.27801 160.898C5.17833 161.141 6.16523 161.522 7.23869 162.076H18.1118C18.3715 162.11 18.562 162.076 18.7005 161.937C19.0987 161.487 19.3584 161.21 19.4969 161.089C19.6701 160.864 19.8778 160.777 20.1029 160.864C21.211 161.297 22.0767 161.73 22.6481 162.162C23.2714 162.665 23.1848 163.08 22.3537 163.392C22.1979 163.478 22.1113 163.582 22.1113 163.721V173.07C22.1113 173.486 21.9382 173.78 21.5919 173.97C21.2629 174.196 20.8128 174.299 20.276 174.299C19.8778 174.299 19.5835 174.196 19.393 174.005C19.2718 173.867 19.2199 173.676 19.2199 173.416V171.564H6.89241L6.8751 171.529ZM6.8751 170.733H19.2026V162.959C19.1333 162.82 19.0294 162.786 18.9083 162.838H6.96167L6.8751 162.907V170.733V170.733Z" fill="white"/>
<path d="M47.3028 165.798H44.5152L42.6107 166.023C42.4722 166.075 42.4029 166.057 42.3856 165.936C42.299 165.607 42.2298 165.261 42.1432 164.915C42.1432 164.828 42.2125 164.776 42.4202 164.793L44.5325 165.001H47.3201V161.331H43.7188L41.8143 161.556C41.6757 161.625 41.6065 161.59 41.5719 161.469C41.5026 161.14 41.416 160.794 41.3295 160.448C41.3295 160.361 41.3987 160.309 41.5892 160.326L43.7015 160.534H45.1385C44.9481 160.24 44.8442 159.859 44.8442 159.357C44.7403 157.591 44.2209 156.292 43.2686 155.461H40.8966L40.6889 155.496V172.723C40.6889 173.312 40.533 173.693 40.2906 173.9C39.9617 174.177 39.4942 174.316 38.8709 174.316C38.5073 174.316 38.213 174.212 38.0225 174.022C37.8667 173.866 37.7974 173.623 37.7974 173.312V153.816C37.7801 153.695 37.7974 153.643 37.8494 153.609C37.884 153.609 37.9706 153.609 38.0745 153.609C38.8882 153.816 39.8058 154.18 40.7927 154.665H47.4759V150.527H37.5897L35.8583 150.786C35.6678 150.873 35.5466 150.838 35.5293 150.7C35.4081 150.371 35.3215 150.025 35.235 149.644C35.2003 149.505 35.3042 149.471 35.5639 149.523L37.5897 149.73H47.4759V145.713C47.4759 145.713 47.5105 145.627 47.649 145.627C48.7052 145.679 49.6921 145.817 50.6443 146.008C51.0079 146.129 51.1984 146.285 51.1984 146.475C51.1984 146.752 51.0079 146.925 50.6963 146.995C50.4885 147.047 50.3846 147.168 50.4019 147.341V149.713H57.466C57.6738 149.713 57.8469 149.609 57.9681 149.488C58.4183 148.847 58.9204 148.224 59.4744 147.601C59.6302 147.445 59.8034 147.428 59.9938 147.549C61.0154 148.172 61.8464 148.951 62.5217 149.903C62.6602 150.059 62.6948 150.198 62.6429 150.319C62.5736 150.457 62.4005 150.527 62.1408 150.527H50.4193V154.665H56.0116C56.306 154.665 56.5311 154.595 56.6523 154.457C57.0158 153.989 57.3102 153.626 57.5699 153.366C57.7257 153.228 57.8989 153.21 58.0893 153.28C59.284 153.868 60.1497 154.37 60.6691 154.803C61.2751 155.34 61.1019 155.807 60.167 156.188C59.9073 156.327 59.7861 156.552 59.7861 156.864V171.026C59.7514 172.134 59.3705 172.948 58.6434 173.433C57.8815 173.883 57.1197 174.091 56.3233 174.074C56.1675 174.108 56.0809 174.039 56.0636 173.849C55.7692 172.481 54.9209 171.702 53.5184 171.511C53.3107 171.459 53.2414 171.321 53.2587 171.13C53.2934 170.957 53.4492 170.871 53.6916 170.905C55.4057 170.94 56.3925 170.853 56.6176 170.611C56.7908 170.42 56.8773 170.195 56.8773 169.936V155.721C56.8254 155.548 56.7215 155.461 56.583 155.478H50.7829C51.6485 155.548 52.4969 155.686 53.328 155.859C53.7955 155.963 54.0205 156.136 54.0205 156.396C54.0205 156.621 53.8647 156.777 53.5531 156.864C53.3799 156.898 53.2068 157.054 53.0337 157.314C52.3065 158.543 51.4408 159.617 50.4193 160.569H52.7047C52.8086 160.569 53.2934 160.049 54.1764 158.993C54.3322 158.803 54.5053 158.768 54.6958 158.907C55.2152 159.339 55.6654 159.876 56.0463 160.551C56.2194 160.759 56.2714 160.967 56.1848 161.14C56.1155 161.296 55.977 161.365 55.7519 161.365H50.0903V165.036H51.8736C51.9602 165.036 52.4623 164.516 53.3453 163.46C53.5011 163.27 53.6743 163.235 53.8647 163.374C54.4015 163.806 54.8516 164.343 55.2152 165.018C55.3883 165.226 55.4403 165.434 55.371 165.607C55.3191 165.763 55.1633 165.85 54.9209 165.85H50.0903V172.567C50.073 173.035 49.8479 173.364 49.4151 173.537C48.8437 173.779 48.2897 173.745 47.7529 173.45C47.4413 173.294 47.2854 173 47.2854 172.567V165.85L47.3028 165.798ZM47.2335 160.551H49.4843C50.073 158.837 50.4366 157.227 50.5751 155.756C50.5924 155.582 50.6443 155.496 50.7136 155.496H44.394C46.0735 156.327 47.1123 157.435 47.5278 158.785C47.6837 159.391 47.5798 159.98 47.2335 160.569V160.551Z" fill="white"/>
<path d="M74.5897 171.771V172.792C74.5897 173.277 74.4339 173.623 74.1222 173.814C73.7067 174.039 73.2565 174.177 72.7717 174.195C72.4081 174.195 72.0965 174.108 71.8541 173.935C71.7156 173.814 71.6636 173.589 71.6809 173.225V160.084C71.6809 159.911 71.7156 159.824 71.8021 159.859C73.1353 160.171 74.1741 160.586 74.936 161.123H79.4549C79.905 161.175 80.1821 161.123 80.3033 160.915C80.4591 160.621 80.6842 160.292 80.9785 159.945C81.0997 159.807 81.2382 159.79 81.4287 159.859C82.4675 160.223 83.3159 160.655 83.9738 161.14C84.2162 161.331 84.3028 161.538 84.2335 161.729C84.1989 161.937 84.0084 162.11 83.6448 162.231C83.4717 162.317 83.3851 162.439 83.3851 162.612V172.55C83.3851 172.966 83.1774 173.277 82.7618 173.52C82.3117 173.693 81.9135 173.779 81.5672 173.779C81.2209 173.779 80.9439 173.693 80.7534 173.52C80.563 173.381 80.4591 173.104 80.4937 172.706V171.771H74.607H74.5897ZM74.5897 166.178H80.4764V162.04C80.3552 161.885 80.234 161.85 80.0955 161.919H74.7974L74.5897 161.954V166.178ZM74.5897 170.974H80.4764V166.958H74.5897V170.974ZM79.9743 157.227V157.781C79.9743 158.266 79.8185 158.612 79.5068 158.803C79.0913 159.028 78.6411 159.166 78.1563 159.184C77.7927 159.184 77.4811 159.097 77.256 158.924C77.1175 158.803 77.0656 158.578 77.0829 158.214V146.371C77.0829 146.198 77.1175 146.129 77.2041 146.146C78.4334 146.423 79.4029 146.787 80.1128 147.254L80.6669 147.289H89.3757C89.5143 147.289 89.6181 147.237 89.7047 147.116C89.9125 146.822 90.1549 146.579 90.4146 146.389C90.4838 146.337 90.605 146.319 90.7435 146.337C91.6612 146.648 92.5096 147.099 93.2887 147.687C93.8427 148.103 93.7562 148.449 93.0636 148.743C92.8905 148.83 92.8039 148.986 92.8039 149.245V157.625C92.7693 157.972 92.6134 158.249 92.371 158.422C92.0421 158.612 91.5746 158.716 90.9686 158.734C90.5358 158.734 90.2587 158.612 90.1202 158.422C89.9817 158.249 89.9125 157.972 89.9125 157.591V157.245H80.0262L79.9743 157.227ZM79.9743 151.877H89.8605V148.207C89.7913 148.051 89.6701 148.016 89.5316 148.085H80.6495L79.9743 148.172V151.877ZM79.9743 156.448H89.8605V152.674H79.9743V156.448ZM89.0121 171.892V172.446C89.0121 172.931 88.8563 173.277 88.5447 173.468C88.1291 173.71 87.679 173.831 87.1942 173.849C86.8306 173.849 86.519 173.762 86.2766 173.589C86.138 173.468 86.0861 173.243 86.1034 172.879V160.326C86.1034 160.153 86.138 160.084 86.2246 160.101C87.3327 160.378 88.2503 160.725 88.9429 161.123H93.9812C94.4314 161.175 94.7084 161.123 94.8296 160.915C94.9854 160.621 95.2105 160.292 95.5049 159.945C95.6261 159.807 95.7646 159.79 95.9377 159.859C96.9765 160.223 97.8249 160.655 98.4828 161.14C98.7079 161.331 98.8118 161.538 98.7426 161.729C98.7079 161.937 98.5175 162.11 98.1539 162.231C97.9807 162.317 97.8942 162.439 97.8942 162.612V172.55C97.8942 172.966 97.6864 173.277 97.2709 173.52C96.8207 173.693 96.4225 173.779 96.0589 173.779C95.6953 173.779 95.4356 173.693 95.2452 173.52C95.0547 173.381 94.9681 173.104 94.9854 172.706V171.892H88.9775H89.0121ZM89.0121 166.3H95.0201V162.058C94.8989 161.902 94.7777 161.867 94.6392 161.937H89.3411L89.0121 161.989V166.3ZM89.0121 171.113H95.0201V167.096H89.0121V171.113Z" fill="white"/>
<path d="M123.726 150.665H117.597V153.505C117.597 153.938 117.407 154.232 117.043 154.405C116.437 154.63 115.831 154.63 115.225 154.405C114.879 154.215 114.688 153.92 114.688 153.557V150.648H109.737L108.005 150.908C107.815 150.977 107.711 150.96 107.676 150.821C107.555 150.492 107.468 150.146 107.382 149.765C107.33 149.626 107.451 149.592 107.711 149.644L109.737 149.852H114.688L114.723 146.51V146.077C114.723 145.956 114.792 145.904 114.931 145.904C115.745 145.973 116.628 146.112 117.562 146.32C118.082 146.423 118.324 146.597 118.324 146.839C118.065 147.168 117.822 147.48 117.597 147.774V149.852H123.726V146.389C123.744 146.233 123.744 146.094 123.744 145.956C123.744 145.835 123.813 145.783 123.951 145.783C124.765 145.869 125.648 145.991 126.583 146.198C127.085 146.302 127.345 146.475 127.345 146.718C127.085 147.047 126.843 147.358 126.618 147.653V149.852H129.596C129.821 149.834 129.977 149.748 130.098 149.609C130.548 148.969 131.05 148.345 131.587 147.739C131.743 147.583 131.916 147.566 132.106 147.687C133.128 148.311 133.959 149.09 134.634 150.025C134.772 150.181 134.807 150.319 134.755 150.44C134.686 150.579 134.513 150.648 134.253 150.648H126.6V153.609C126.6 154.042 126.41 154.336 126.046 154.526C125.44 154.751 124.834 154.751 124.228 154.526C123.882 154.336 123.709 154.042 123.709 153.678V150.648L123.726 150.665ZM121.372 164.499H121.216C120.835 165.676 120.333 166.75 119.727 167.754C118.376 169.555 116.558 170.957 114.238 171.979C112.126 172.844 110.083 173.381 108.074 173.624C107.936 173.606 107.867 173.554 107.849 173.468C107.849 173.329 107.919 173.26 108.057 173.243C113.373 171.632 116.87 168.724 118.515 164.499H109.84L108.109 164.759C107.919 164.845 107.815 164.811 107.78 164.672C107.659 164.343 107.572 163.997 107.486 163.616C107.451 163.478 107.555 163.443 107.815 163.495L109.84 163.703H112.455V156.085C112.455 155.859 112.507 155.738 112.628 155.756C113.511 156.05 114.463 156.465 115.468 157.019H119.554C119.606 155.288 119.64 153.972 119.64 153.089C119.657 153.003 119.709 152.951 119.796 152.951C120.679 153.003 121.597 153.107 122.549 153.245C122.982 153.366 123.189 153.522 123.189 153.713C123.189 153.92 122.999 154.093 122.635 154.215C122.48 154.249 122.41 154.336 122.428 154.474C122.428 155.34 122.393 156.188 122.341 157.019H125.735C125.89 157.019 126.012 156.933 126.081 156.812C126.323 156.5 126.6 156.223 126.912 155.981C126.999 155.929 127.085 155.929 127.206 155.981C127.968 156.379 128.713 156.864 129.44 157.452C129.474 157.487 129.526 157.539 129.578 157.608C129.648 157.781 129.457 158.145 128.99 158.699V163.72H129.578C129.803 163.72 129.977 163.616 130.046 163.495C130.496 162.889 130.981 162.283 131.517 161.712C131.656 161.556 131.829 161.556 132.02 161.677C132.972 162.266 133.786 163.01 134.426 163.91C134.565 164.066 134.599 164.205 134.547 164.326C134.478 164.464 134.305 164.534 134.045 164.534H122.064C122.48 165.296 123.034 166.005 123.744 166.681C126.41 169.157 129.873 170.438 134.08 170.524C134.34 170.524 134.478 170.576 134.495 170.697C134.547 170.836 134.461 170.94 134.288 171.009C133.318 171.494 132.695 172.412 132.452 173.762C132.366 173.935 132.245 174.022 132.037 174.004C130.773 173.866 129.526 173.502 128.349 172.914C128.245 172.844 128.176 172.81 128.107 172.792C124.505 170.888 122.272 168.118 121.389 164.534L121.372 164.499ZM115.398 157.902V163.703H118.792C119.155 162.248 119.415 160.292 119.519 157.816H115.831L115.398 157.902V157.902ZM126.098 157.816H122.324C122.116 160.448 121.822 162.404 121.475 163.703H126.098V157.816Z" fill="white"/>
<path d="M143.101 153.505C143.015 153.401 142.98 153.297 143.05 153.176C143.101 153.072 143.205 153.037 143.344 153.055C143.379 153.055 143.43 153.055 143.5 153.089C145.82 153.868 147.257 155.046 147.776 156.587C147.967 157.141 147.949 157.712 147.69 158.318C147.482 158.872 147.118 159.184 146.582 159.253C145.422 159.409 144.816 158.785 144.764 157.383C144.66 155.686 144.123 154.405 143.119 153.522L143.101 153.505ZM151.429 153.539C151.568 153.314 151.689 153.193 151.81 153.21C151.984 153.297 152.035 153.453 151.966 153.678L148.036 164.845C147.69 165.953 147.811 167.252 148.382 168.724C148.902 170.074 149.023 171.217 148.711 172.186C148.469 172.914 148.036 173.329 147.361 173.45C146.789 173.554 146.322 173.398 145.958 172.983C145.439 172.325 145.266 171.303 145.456 169.936C145.664 168.724 145.681 167.598 145.508 166.594C145.214 165.953 144.539 165.469 143.482 165.157C143.309 165.053 143.24 164.949 143.309 164.811C143.344 164.707 143.482 164.672 143.725 164.689C144.954 164.724 145.664 164.638 145.837 164.395L151.429 153.557V153.539ZM145.491 146.562C145.37 146.493 145.318 146.371 145.335 146.25C145.37 146.129 145.456 146.077 145.595 146.077C147.897 146.077 149.646 146.908 150.841 148.57C151.135 149.09 151.239 149.661 151.17 150.302C151.066 150.89 150.772 151.271 150.287 151.462C149.196 151.877 148.469 151.41 148.088 150.059C147.586 148.345 146.72 147.168 145.491 146.562ZM155.602 171.528V172.55C155.602 173.104 155.481 173.468 155.221 173.658C154.91 173.935 154.442 174.074 153.836 174.074C153.49 174.074 153.213 173.987 153.057 173.814C152.901 173.658 152.815 173.416 152.815 173.104V152.933C152.815 152.812 152.815 152.743 152.849 152.726C152.884 152.708 152.97 152.708 153.092 152.726C153.975 152.933 154.91 153.314 155.931 153.834H157.576V149.228H154.234L152.503 149.488C152.312 149.557 152.209 149.54 152.174 149.401C152.053 149.072 151.966 148.726 151.88 148.345C151.845 148.207 151.949 148.172 152.209 148.241L154.234 148.449H165.869C166.094 148.432 166.25 148.362 166.337 148.207C166.787 147.601 167.272 147.012 167.808 146.423C167.947 146.267 168.12 146.25 168.311 146.389C169.263 146.977 170.059 147.722 170.717 148.622C170.856 148.778 170.89 148.917 170.838 149.038C170.769 149.176 170.596 149.245 170.336 149.245H163.999V153.851H165.194C165.454 153.886 165.627 153.851 165.748 153.73C166.129 153.297 166.406 153.02 166.544 152.881C166.735 152.674 166.925 152.604 167.133 152.674C168.224 153.072 169.055 153.505 169.592 153.938C170.146 154.388 170.059 154.769 169.332 155.08C169.176 155.167 169.107 155.271 169.107 155.409V172.74C169.09 173.104 168.916 173.398 168.605 173.589C168.293 173.779 167.86 173.883 167.324 173.883C166.96 173.883 166.683 173.797 166.51 173.623C166.389 173.502 166.337 173.312 166.337 173.069V171.546H155.637L155.602 171.528ZM161.558 160.396V154.647H159.965C159.931 158.318 158.459 161.279 155.602 163.495V165.572H166.302V161.815C165.713 162.231 164.882 162.421 163.809 162.421C162.995 162.387 162.372 162.144 161.956 161.711C161.662 161.348 161.523 160.898 161.541 160.361L161.558 160.396ZM156.745 159.894C157.264 158.301 157.541 156.535 157.541 154.647H155.879L155.619 154.699V162.092C156.07 161.417 156.45 160.673 156.762 159.894H156.745ZM155.602 170.732H166.302V166.369H155.602V170.732V170.732ZM161.558 153.851V149.245H160V153.851H161.558ZM165.869 159.945C166.042 160.032 166.198 160.136 166.302 160.274V154.769C166.216 154.63 166.129 154.595 166.008 154.647H163.982V159.842C163.982 160.032 164.017 160.136 164.069 160.136C164.19 160.136 164.294 160.101 164.415 160.084C164.778 159.911 165.038 159.357 165.211 158.422C165.281 158.301 165.367 158.249 165.436 158.249C165.558 158.249 165.61 158.353 165.61 158.474C165.54 159.288 165.61 159.79 165.852 159.963L165.869 159.945Z" fill="white"/>
<path d="M184.983 150.458H192.255V145.852C192.255 145.852 192.289 145.766 192.428 145.766C193.484 145.818 194.471 145.956 195.406 146.146C195.77 146.268 195.96 146.423 195.96 146.614C195.96 146.891 195.77 147.064 195.458 147.151C195.25 147.203 195.146 147.324 195.164 147.497V150.458H200.843C201.05 150.458 201.223 150.371 201.345 150.198C201.829 149.557 202.349 148.917 202.903 148.276C203.076 148.103 203.266 148.068 203.457 148.207C204.513 148.865 205.396 149.679 206.089 150.648C206.227 150.804 206.262 150.942 206.21 151.064C206.141 151.202 205.967 151.271 205.708 151.271H184.844V155.444C184.827 158.612 184.637 161.487 184.256 164.084C183.581 168.447 182.057 171.563 179.72 173.433C179.546 173.554 179.425 173.554 179.339 173.433C179.304 173.347 179.46 172.896 179.841 172.048C181.243 168.706 181.953 163.166 181.953 155.427V149.471C181.953 149.298 182.022 149.211 182.161 149.246C182.975 149.523 183.91 149.921 184.966 150.475L184.983 150.458ZM189.086 172.117V172.671C189.086 173.156 188.931 173.502 188.619 173.693C188.203 173.935 187.753 174.056 187.268 174.074C186.905 174.074 186.593 173.987 186.351 173.814C186.212 173.693 186.16 173.468 186.178 173.104V162.318C186.178 162.144 186.212 162.075 186.299 162.093C187.494 162.387 188.463 162.768 189.225 163.235H192.826V152.778C192.826 152.778 192.861 152.691 192.999 152.691C194.055 152.76 195.06 152.882 195.995 153.072C196.358 153.193 196.549 153.349 196.549 153.539C196.531 153.817 196.358 153.99 196.047 154.076C195.839 154.128 195.735 154.249 195.752 154.423V157.608H199.994C200.219 157.608 200.375 157.504 200.496 157.383C200.946 156.743 201.431 156.119 201.985 155.513C202.141 155.357 202.314 155.34 202.522 155.444C203.543 156.067 204.375 156.846 205.032 157.799C205.171 157.955 205.206 158.093 205.154 158.214C205.084 158.353 204.911 158.422 204.652 158.422H195.735V163.253H199.215C199.475 163.287 199.665 163.253 199.804 163.114C200.202 162.664 200.462 162.387 200.6 162.266C200.773 162.023 200.981 161.954 201.223 162.023C202.332 162.456 203.18 162.889 203.769 163.322C204.392 163.824 204.305 164.239 203.474 164.551C203.318 164.638 203.249 164.742 203.249 164.863V172.81C203.249 173.225 203.076 173.52 202.73 173.727C202.401 173.935 201.951 174.056 201.414 174.056C201.016 174.056 200.739 173.953 200.531 173.762C200.41 173.624 200.358 173.433 200.358 173.173V172.152H189.069L189.086 172.117ZM189.086 171.321H200.375V164.136C200.288 163.997 200.202 163.962 200.081 164.014H189.519L189.069 164.066V171.304L189.086 171.321Z" fill="white"/>
</svg>
