<svg xmlns="http://www.w3.org/2000/svg" viewBox="0 0 541 23">
<path d="M5.3,14.2c0,4.3,0.1,6,0.6,6.6c0.5,0.5,1.7,0.7,4,0.7c2.4,0.1,4-0.3,4.4-2.5c0.1-0.5,0.6-0.6,0.5,0.1
	c0,0.3-0.2,2.1-0.4,2.9c-0.2,0.7-0.3,0.8-1.9,0.8c-2.2,0-3.8,0-5.2-0.1c-2.1,0-2.7-0.1-4.5,0c-0.7-0.1-2,0.4-2.2-0.2
	c0-0.1,0.1-0.2,0.2-0.2c1.1,0,1.6-0.3,1.7-1.7c0.3-2,0.1-8.6,0.2-11.5c0-4.5,0-5.3-0.1-6.3c0-1.5-1-1.7-2.3-1.7
	C-0.1,0.9,0,0.5,0.5,0.5c1.4,0,3.3,0.1,3.4,0.1c0.1,0,2.4-0.1,3.3-0.1C7.8,0.5,7.9,0.9,7.5,1C6.3,1,5.3,1.2,5.4,2.7
	c0,0.9,0,1.7,0,6.3L5.3,14.2L5.3,14.2z M27.1,14.1c0.2,2.9-0.7,7.7,1.2,7.9c0.5,0.1,1.1,0.1,1.4,0.1c0.2,0,0.2,0.1,0.2,0.2
	c0,0.1-0.1,0.2-0.5,0.2c-1.7,0-3.6-0.1-3.8-0.1c-0.2,0-2.1,0.1-3,0.1c-0.3,0-0.5-0.1-0.5-0.2c0-0.1,0.1-0.2,0.2-0.2
	c1.1,0,1.7-0.3,1.7-1.7c0.3-3.2,0.2-15.3,0.1-17.7c0-1.5-0.9-1.7-1.9-1.7c-0.4-0.1-0.3-0.5,0.2-0.5c1,0,2.9,0.1,3.1,0.1
	c0.1,0,2.1-0.1,3-0.1C29.3,0.5,29.3,0.9,29,1c-1,0-1.8,0.3-1.8,1.7c0,0.9,0,1.7,0,6.3L27.1,14.1L27.1,14.1z M41.7,18.6
	c0,3.3,0.7,3.4,2.7,3.5c0.1,0,0.2,0.1,0.2,0.2c0,0.2-0.2,0.2-0.5,0.2c-3.7-0.1-2.6-0.1-6.1,0c-0.5,0.1-0.7-0.4-0.2-0.5
	c0.2,0,0.8,0,1.2-0.2c0.8-0.2,0.9-1,0.9-3.6V1.6c-0.1-2.2,0.7-1.5,1.6-0.6c0.7,0.8,14.5,15.1,16.7,17.5L57.8,3.9
	c0.1-2.8-0.9-2.8-2.6-2.8c-0.2,0-0.2-0.2-0.2-0.3c0-0.2,0.2-0.2,0.6-0.2c3.1,0.1,2.8,0.1,5.7,0C61.8,0.5,62,0.9,61.4,1
	c-0.1,0-0.4,0-0.7,0.1c-1,0.2-1.1,0.8-1.1,2.5l-0.1,17.1c0,3.1-0.1,2.4-2.5,0.3C55.5,19.7,42.8,6.6,41.4,4.9L41.7,18.6L41.7,18.6z
	 M86.2,15.2c0.1-3-0.4-2.9-2.3-3c-0.1,0-0.2-0.1-0.2-0.2c0-0.2,0.1-0.2,0.5-0.2c1.4,0,3.4,0.1,3.6,0.1c0.1,0,2-0.1,2.9-0.1
	c0.5-0.1,0.6,0.4,0.2,0.5c-1,0-1.9,0.3-1.9,1.7c0,1.5,0,4.6,0,6.3c0,1.3,0,1.4-0.4,1.6c-1.9,1-4.7,1.3-6.4,1.3
	c-2.3,0-6.6-0.3-9.9-3.1C66.8,15.5,67.7,5.1,73.6,2c3.9-2.4,9.3-2,12.7-1.4c0.6,0.1,1.7,0.3,2.4,0.3c0.3,0,0.4,0.1,0.4,0.3
	c0,0.4-0.2,1.2-0.2,4.1c0,0.7-0.6,0.9-0.6,0.2c0-0.4-0.2-1.2-0.7-1.9C86,1.2,78.1,0.1,74.4,3.2c-4.6,3.4-3.2,12.7,0.2,15.4
	c2.4,2.2,4.9,3.1,7.7,3.1c1.3-0.1,3.7,0,3.9-1.4C86.2,20.2,86.2,15.2,86.2,15.2L86.2,15.2z M101.4,9c0-4.5,0-5.3-0.1-6.3
	c0-1.5-1-1.7-2.3-1.7c-0.4-0.1-0.3-0.5,0.2-0.5c3.5,0,7.1,0.1,10.7,0.1c0.9-0.1,1.2-0.1,1.8-0.3c0.4,0.3-0.1,0.7-0.1,1.6
	c-0.1,0.4,0.1,2.1-0.4,2.2c-0.4-0.1-0.1-0.9-0.4-1.4c-0.4-1.3-5.4-0.9-6.5-1c-0.1,0-0.2,0.1-0.2,0.3V10c0,0.2,0,0.3,0.2,0.3
	c0.4,0,4.4,0,5-0.1c0.7-0.1,1.2-0.1,1.5-0.4c0.2-0.2,0.3-0.4,0.4-0.4c0.4,0.2-0.1,0.8-0.1,1.9c-0.1,0.6-0.1,1.7-0.1,1.9
	c0,0.2-0.1,0.6-0.3,0.6c-0.1,0-0.2-0.1-0.2-0.3c-0.1-1,0-1.7-1.7-1.8c-0.8-0.1-4.1-0.1-4.6-0.1c-0.2,0-0.2,0.1-0.2,0.2v2.4
	c0,1,0,4.4,0,5c0.1,2,0.6,2.3,3.6,2.3c1.7,0,4.2,0.1,4.4-2.3c0.1-0.7,0.6-0.5,0.5,0c0,0.2-0.2,2.2-0.4,2.8c-0.2,0.8-0.5,0.8-1.7,0.8
	c-3.9,0-5.9-0.2-9-0.1c-0.6-0.1-2,0.4-2.2-0.2c0-0.1,0.1-0.2,0.2-0.2c1.1-0.1,1.6-0.2,1.7-1.7C101.5,18.5,101.4,11.9,101.4,9
	L101.4,9z M123.8,9c0-4.5,0-5.4-0.1-6.3c0-1.5-1-1.7-2.3-1.7c-0.4-0.1-0.3-0.5,0.2-0.5c3.5,0.1,4.1,0.1,7.3,0c1.9,0,4.1,0.2,5.6,1.3
	c3.3,2.5,2.6,7.4-1.6,10.6c3.5,3.9,6.4,9.7,10.7,9.7c0.5,0.2,0.3,0.5-0.4,0.5c-1.5,0-4.3,0.1-5.1-0.6c-2-1-5.9-6.7-7.4-8.5
	c-0.1-0.1-0.2-0.2-0.4-0.2l-3.8-0.1c-0.4,0-0.2,0.7-0.2,0.9c0,2.8,0,5.1,0.1,6.3c0,1.6,1.4,1.6,2.5,1.7c0.4,0.1,0.3,0.5-0.2,0.5
	c-1.7,0-3.6-0.1-3.7-0.1c0,0-2.1,0.1-3,0.1c-0.3,0-0.5-0.1-0.5-0.2c0-0.1,0.1-0.2,0.2-0.2c1.1,0,1.6-0.3,1.7-1.7
	C123.9,18.5,123.7,11.9,123.8,9L123.8,9z M126.4,11.5c0.2,0.9,2.1,0.7,3.5,0.8c2.7,0.1,4-1.7,4.1-5c0.2-4.7-3.7-6.4-7.4-5.6
	c-0.1,0.1-0.2,0.2-0.2,0.3L126.4,11.5L126.4,11.5z M153,14.1c0.2,2.9-0.7,7.7,1.2,7.9c0.5,0.1,1.1,0.1,1.4,0.1
	c0.2,0,0.2,0.1,0.2,0.2c0,0.1-0.1,0.2-0.5,0.2c-1.7,0-3.6-0.1-3.8-0.1c-0.2,0-2.1,0.1-3,0.1c-0.3,0-0.5-0.1-0.5-0.2
	c0-0.1,0.1-0.2,0.2-0.2c1.1,0,1.7-0.3,1.7-1.7c0.3-3.2,0.2-15.3,0.1-17.7c0-1.5-0.9-1.7-1.9-1.7c-0.4-0.1-0.3-0.5,0.2-0.5
	c1,0,2.9,0.1,3.1,0.1c0.1,0,2.1-0.1,3-0.1c0.5-0.1,0.6,0.4,0.2,0.5c-1,0-1.8,0.3-1.8,1.7c0,0.9,0,1.7,0,6.3L153,14.1L153,14.1z
	 M167.6,18.6c0,3.3,0.7,3.4,2.7,3.5c0.1,0,0.2,0.1,0.2,0.2c0,0.2-0.2,0.2-0.6,0.2c-3.7-0.1-2.6-0.1-6.1,0c-0.5,0.1-0.7-0.4-0.2-0.5
	c0.2,0,0.8,0,1.2-0.2c0.8-0.2,0.9-1,0.9-3.6V1.6c-0.1-2.2,0.7-1.5,1.6-0.6c0.7,0.8,14.5,15.1,16.7,17.5l-0.3-14.6
	c0.1-2.8-0.9-2.8-2.6-2.8c-0.2,0-0.2-0.2-0.2-0.3c0-0.2,0.2-0.2,0.6-0.2c3.1,0.1,2.8,0.1,5.7,0c0.6-0.1,0.8,0.4,0.2,0.5
	c-0.1,0-0.4,0-0.7,0.1c-1,0.2-1.1,0.8-1.1,2.5l-0.1,17.1c0,3.1-0.1,2.4-2.5,0.3c-1.6-1.3-14.2-14.5-15.7-16.2L167.6,18.6L167.6,18.6
	z M212.1,15.2c0.1-3-0.4-2.9-2.3-3c-0.1,0-0.2-0.1-0.2-0.2c0-0.2,0.1-0.2,0.5-0.2c1.4,0,3.4,0.1,3.6,0.1c0.1,0,2-0.1,2.9-0.1
	c0.5-0.1,0.6,0.4,0.2,0.5c-1,0-1.9,0.3-1.9,1.7c0,1.5,0,4.6,0,6.3c0,1.3,0,1.4-0.4,1.6c-1.9,1-4.7,1.3-6.4,1.3
	c-2.3,0-6.6-0.3-10-3.1c-5.4-4.3-4.4-14.7,1.4-17.9c3.9-2.4,9.3-2,12.7-1.4c0.6,0.1,1.7,0.3,2.4,0.3c0.3,0,0.4,0.1,0.4,0.3
	c0,0.4-0.2,1.2-0.2,4.1c0,0.7-0.6,0.9-0.6,0.2c0-0.4-0.2-1.2-0.7-1.9c-1.7-2.4-9.5-3.5-13.3-0.4c-4.6,3.4-3.2,12.7,0.2,15.4
	c2.4,2.2,4.9,3.1,7.7,3.1c1.3-0.1,3.7,0,3.9-1.4C212.1,20.2,212.1,15.2,212.1,15.2L212.1,15.2z M242.1,19.9
	c-4.9-4.6-5-11.5-0.3-16.6c2.2-2.7,8.9-3.8,13.6-2.8c1.1,0.2,2.1,0.4,3.1,0.4c0.3,0,0.4,0.1,0.4,0.3c0,0.2-0.1,0.6-0.1,1.7
	c0,1,0,2.6-0.1,3c0,0.4-0.2,0.6-0.3,0.6c-0.2,0-0.2-0.2-0.2-0.6c0-1.1-0.5-2.3-1.3-2.9c-2.4-2.4-11.1-1.9-12.7,0.4
	c-6.2,6.4-1.6,18.4,8.2,18.2c3.2,0.2,5.7-1,6.1-3.8c0.1-0.3,0.1-0.4,0.3-0.4c0.1,0,0.3,0.2,0.3,0.4c0,0.2-0.4,2.7-0.7,3.7
	c-0.2,0.5-0.2,0.6-0.8,0.9C253,23.8,245,22.9,242.1,19.9L242.1,19.9z M288,14.1c0,2.8,0,5.1,0.2,6.3c0,1.7,1.2,1.6,2.4,1.7
	c0.5,0.1,0.3,0.5-0.2,0.5c-3.7-0.1-3.5-0.1-6.7,0c-0.5,0.1-0.7-0.4-0.2-0.5c0.3,0,0.6-0.1,0.9-0.1c0.6-0.1,0.7-0.7,0.8-1.6
	c0.2-1.5,0.1-6.5,0.1-9.1c0-0.1-0.1-0.2-0.2-0.2h-12.6c-0.1,0-0.2,0-0.2,0.2c0,2.6-0.1,7.7,0.1,9.2c0,1.7,1.3,1.6,2.5,1.7
	c0.2,0,0.2,0.1,0.2,0.2c0,0.1-0.1,0.2-0.5,0.2c-3.8-0.1-3.5-0.1-6.8,0c-0.5,0.1-0.7-0.4-0.2-0.5c1.1,0,1.6-0.3,1.7-1.7
	c0.2-1.2,0.2-3.5,0.2-6.3c0-2.3,0-11.2-0.1-11.4c0-1.5-1-1.7-2.3-1.7c-0.1,0-0.2-0.1-0.2-0.2c0-0.2,0.1-0.2,0.5-0.2
	c3.3,0.1,3.4,0.1,6.4,0c0.5-0.1,0.6,0.4,0.2,0.5c-0.2,0-0.4,0-0.8,0.1c-1.7,0.2-0.9,3.4-1.1,8c0,0.1-0.1,0.9,0.2,0.8
	c0,0,12.6,0,12.6,0c0.3,0.1,0.1-0.7,0.2-0.8c0-4.5,0-5.4-0.1-6.3c-0.1-1-0.2-1.5-1.2-1.6c-0.2,0-0.8-0.1-1-0.1
	c-0.4-0.1-0.3-0.5,0.2-0.5c1.3,0,3.3,0.1,3.4,0.1c0.2,0,2.1-0.1,3-0.1c0.5-0.1,0.7,0.4,0.2,0.5c-1,0-1.8,0.3-1.8,1.7
	C288,3.6,288,4.4,288,9L288,14.1L288,14.1z M306.7,1.1c0.6-1.7,0.9-1.4,1.4-0.1c0.5,1.2,5.4,13.3,7.2,17.7c1.1,2.6,1.9,3,2.6,3.2
	c0.5,0.3,1.4,0,1.6,0.4c0,0.2-0.3,0.2-0.7,0.2c-0.4,0-2.7,0-4.8-0.1c-0.6,0-1.1,0-1.1-0.2c0.1-0.3,0.8-0.2,0.5-1
	c0,0-2.7-6.7-2.7-6.7c-0.1-0.1-0.1-0.2-0.3-0.2h-7c-0.1,0-0.2,0.1-0.3,0.2l-1.7,4.7c-0.4,1.1-1,2.8,0.6,2.8c0.2,0,0.6,0,0.6,0.2
	c0,0.2-0.2,0.2-0.4,0.2c-0.7,0-2.4-0.1-2.7-0.1c-0.3,0-1.8,0.1-3.1,0.1c-0.6,0.1-0.8-0.4-0.3-0.5c1.8,0.1,2.8-0.9,3.4-2.7
	C299.6,19.4,306.7,1.1,306.7,1.1L306.7,1.1z M310,13.3c0.1,0,0.1-0.1,0.1-0.2l-3-8c-0.2-0.5-0.3-0.5-0.5,0l-2.8,8
	c0,0.1,0,0.2,0.1,0.2H310L310,13.3z M326.9,9c0-4.5,0-5.4-0.1-6.3c0-1.5-1-1.7-2.3-1.7c-0.4-0.1-0.3-0.5,0.2-0.5
	c3.5,0.1,4.1,0.1,7.3,0c1.9,0,4.1,0.2,5.6,1.3c3.3,2.5,2.6,7.4-1.6,10.6c3.5,3.9,6.4,9.7,10.7,9.7c0.5,0.2,0.3,0.5-0.4,0.5
	c-1.5,0-4.3,0.1-5.1-0.6c-2-1-5.9-6.7-7.4-8.5c-0.1-0.1-0.2-0.2-0.4-0.2l-3.8-0.1c-0.4,0-0.2,0.7-0.2,0.9c0,2.8,0,5.1,0.1,6.3
	c0,1.6,1.4,1.6,2.5,1.7c0.4,0.1,0.3,0.5-0.2,0.5c-1.7,0-3.6-0.1-3.7-0.1c0,0-2.1,0.1-3,0.1c-0.3,0-0.5-0.1-0.5-0.2
	c0-0.1,0.1-0.2,0.2-0.2c1.1,0,1.6-0.3,1.7-1.7C327,18.5,326.9,11.9,326.9,9L326.9,9z M329.5,11.5c0.2,0.9,2.1,0.7,3.5,0.8
	c2.7,0.1,4-1.7,4.1-5c0.2-4.7-3.7-6.4-7.4-5.6c-0.1,0.1-0.2,0.2-0.2,0.3L329.5,11.5L329.5,11.5z M376,18.9c0.1,1,0.3,2.6,1.5,3
	c0.9,0.3,1.7,0.3,2,0.3c0.5,0.1,0.1,0.5-0.4,0.5c-0.7,0-4.1,0-5.1-0.1c-0.7-0.1-0.9-0.2-0.9-0.3c0-0.1,0.1-0.2,0.2-0.2
	c0.2,0,0.2-0.5,0.1-1L372,6.1H372c-0.6,0.8-7.6,16.4-8.3,16.4c-0.3,0-0.5-0.3-1-1.3c-2.2-4-5.6-10.9-7.4-14.7h-0.1
	c0,0.6-1.4,14.6-1.2,14.6c-0.1,0.9,1.5,1,1.9,1c0.1,0,0.2,0.1,0.2,0.2c0,0.2-0.2,0.3-0.5,0.3c-2.7-0.1-2.9-0.1-5.4,0
	c-0.5,0.1-0.7-0.4-0.2-0.5c0.2,0,0.4,0,0.9-0.1c1-0.2,1-1.2,1.2-2.3l2.2-19c0-0.3,0.2-0.5,0.3-0.5c0.2,0,0.5,0.1,0.6,0.4l9.1,18.1
	L373,0.6c0.3-0.7,0.8-0.6,0.9,0.3C374,0.9,376,18.9,376,18.9L376,18.9z M411.6,0.1c16.2-0.3,15.6,22.9-0.2,22.8
	C395.7,22.7,395.7,0.7,411.6,0.1L411.6,0.1z M412.3,21.8c10.9,0.6,11.2-20.6-0.9-20.6C398.8,0.9,400.7,22.3,412.3,21.8L412.3,21.8z
	 M433.3,9c0-4.5,0-5.3-0.1-6.3c0-1.5-1-1.7-2.3-1.7c-0.4-0.1-0.3-0.5,0.2-0.5c1.4,0,3.3,0.1,3.4,0.1c1.4-0.1,7.8,0.2,9.2-0.1
	c1-0.5,0.5,0.4,0.4,1.5c0,0.3-0.1,1.6-0.1,1.9c-0.1,0.4-0.5,0.4-0.5,0c-0.1-1.2-0.5-1.9-2.3-2c0,0-4.9-0.1-4.9-0.1
	c-0.2,0-0.2,0.1-0.2,0.3v8c0,0.2,0,0.3,0.2,0.3c1,0,4.6,0,5.5-0.1c0.7-0.1,1.1-0.2,1.4-0.5c0.2-0.3,0.5-0.5,0.6-0.1
	c-0.2,0.3-0.4,3.1-0.4,3.6c0,0.3-0.1,0.6-0.3,0.6c-0.4-0.1-0.2-1-0.4-1.3c-0.6-1.6-5.2-0.8-6.4-1c-0.2,0-0.2,0.1-0.2,0.3
	c0,2.6,0,7.4,0.1,8.6c0,1.6,1.3,1.6,2.5,1.7c0.4,0.1,0.3,0.5-0.2,0.5c-1.7,0-3.6-0.1-3.8-0.1c-0.2,0-2.1,0.1-3,0.1
	c-0.3,0-0.5-0.1-0.5-0.2c0-0.1,0.1-0.2,0.2-0.2c1.1-0.1,1.6-0.2,1.7-1.7C433.5,18.5,433.3,11.9,433.3,9L433.3,9z M472.4,14.2
	c0,4.3,0.1,6,0.6,6.6c0.5,0.5,1.7,0.7,4,0.7c2.4,0.1,4-0.3,4.4-2.5c0.1-0.5,0.6-0.6,0.5,0.1c0,0.3-0.2,2.1-0.4,2.9
	c-0.2,0.7-0.3,0.8-1.9,0.8c-2.2,0-3.8,0-5.2-0.1c-2.1,0-2.7-0.1-4.5,0c-0.7-0.1-2,0.4-2.2-0.2c0-0.1,0.1-0.2,0.2-0.2
	c1.1,0,1.6-0.3,1.7-1.7c0.3-2,0.1-8.6,0.2-11.5c0-4.5,0-5.3-0.1-6.3c0-1.5-1-1.7-2.3-1.7c-0.4-0.1-0.3-0.5,0.2-0.5
	c1.4,0,3.3,0.1,3.4,0.1c0.1,0,2.4-0.1,3.3-0.1c0.5-0.1,0.7,0.3,0.2,0.5c-1.2,0-2.2,0.2-2.1,1.7c0,0.9,0,1.7,0,6.3L472.4,14.2
	L472.4,14.2z M494.2,14.1c0.2,2.9-0.7,7.7,1.2,7.9c0.5,0.1,1.1,0.1,1.4,0.1c0.2,0,0.2,0.1,0.2,0.2c0,0.1-0.1,0.2-0.5,0.2
	c-1.7,0-3.6-0.1-3.8-0.1c-0.2,0-2.1,0.1-3,0.1c-0.3,0-0.5-0.1-0.5-0.2c0-0.1,0.1-0.2,0.2-0.2c1.1,0,1.7-0.3,1.7-1.7
	c0.3-3.2,0.2-15.3,0.1-17.7c0-1.5-0.9-1.7-1.9-1.7c-0.4-0.1-0.3-0.5,0.2-0.5c1,0,2.9,0.1,3.1,0.1c0.1,0,2.1-0.1,3-0.1
	c0.5-0.1,0.6,0.4,0.2,0.5c-1,0-1.8,0.3-1.8,1.7c0,0.9,0,1.7,0,6.3L494.2,14.1L494.2,14.1z M507.6,9c0-4.5,0-5.3-0.1-6.3
	c0-1.5-1-1.7-2.3-1.7c-0.4-0.1-0.3-0.5,0.2-0.5c1.4,0,3.3,0.1,3.4,0.1c1.4-0.1,7.8,0.2,9.2-0.1c1-0.5,0.5,0.4,0.4,1.5
	c0,0.3-0.1,1.6-0.1,1.9c-0.1,0.4-0.5,0.4-0.5,0c-0.1-1.2-0.5-1.9-2.3-2c0,0-4.9-0.1-4.9-0.1c-0.2,0-0.2,0.1-0.2,0.3v8
	c0,0.2,0,0.3,0.2,0.3c1,0,4.6,0,5.5-0.1c0.7-0.1,1.1-0.2,1.4-0.5c0.2-0.3,0.5-0.5,0.6-0.1c-0.2,0.3-0.4,3.1-0.4,3.6
	c0,0.3-0.1,0.6-0.3,0.6c-0.4-0.1-0.2-1-0.4-1.3c-0.6-1.6-5.2-0.8-6.4-1c-0.2,0-0.2,0.1-0.2,0.3c0,2.6,0,7.4,0.1,8.6
	c0,1.6,1.3,1.6,2.5,1.7c0.4,0.1,0.3,0.5-0.2,0.5c-1.7,0-3.6-0.1-3.8-0.1c-0.2,0-2.1,0.1-3,0.1c-0.3,0-0.5-0.1-0.5-0.2
	c0-0.1,0.1-0.2,0.2-0.2c1.1-0.1,1.6-0.2,1.7-1.7C507.7,18.5,507.6,11.9,507.6,9L507.6,9z M529.3,9c0-4.5,0-5.3-0.1-6.3
	c0-1.5-1-1.7-2.3-1.7c-0.4-0.1-0.3-0.5,0.2-0.5c3.5,0,7.1,0.1,10.7,0.1c0.9-0.1,1.2-0.1,1.8-0.3c0.4,0.3-0.1,0.7-0.1,1.6
	c-0.1,0.4,0.1,2.1-0.4,2.2c-0.4-0.1-0.1-0.9-0.4-1.4c-0.4-1.3-5.4-0.9-6.5-1c-0.1,0-0.2,0.1-0.2,0.3V10c0,0.2,0,0.3,0.2,0.3
	c0.4,0,4.4,0,5-0.1c1.2,0,1.3-0.3,1.9-0.8c0.4,0.2-0.1,0.8-0.1,1.9c-0.1,0.6-0.1,1.7-0.1,1.9c0,0.2-0.1,0.6-0.3,0.6
	c-0.1,0-0.2-0.1-0.2-0.3c-0.1-1,0-1.7-1.7-1.8c-0.8-0.1-4.1-0.1-4.6-0.1c-0.2,0-0.2,0.1-0.2,0.2v2.4c0,1,0,4.4,0,5
	c0.1,2,0.6,2.3,3.6,2.3c1.7,0,4.2,0.1,4.4-2.3c0.1-0.7,0.6-0.5,0.5,0c0,0.2-0.2,2.2-0.4,2.8c-0.2,0.8-0.5,0.8-1.7,0.8
	c-3.9,0-5.9-0.2-9-0.1c-0.6-0.1-2,0.4-2.2-0.2c0-0.1,0.1-0.2,0.2-0.2c1.1-0.1,1.6-0.2,1.7-1.7C529.5,18.5,529.3,11.9,529.3,9
	L529.3,9z"/>
</svg>
