<svg width="404" height="536" viewBox="0 0 404 536" fill="none" xmlns="http://www.w3.org/2000/svg">
<path d="M95.1977 108.188H0V203.455H95.1977V108.188Z" fill="#82BF25"/>
<path d="M198.355 108.188H103.157V203.455H198.355V108.188Z" fill="#FFE000"/>
<path d="M198 215H0V342H198V215Z" fill="#00B3ED"/>
<path d="M198 352H0V536H198V352Z" fill="#82BF25"/>
<path d="M99.1631 100.726H0L49.5955 49.5292L95.1698 2.44039C97.3759 0.176772 100.95 0.176772 103.156 2.44039L148.759 49.5292L198.354 100.726H99.191H99.1631Z" fill="#EE88A5"/>
<path d="M92.3772 156.143C92.3772 180.707 72.4664 200.604 47.9479 200.604C23.4294 200.604 3.51855 180.679 3.51855 156.143C3.51855 131.606 23.4294 111.681 47.9479 111.681C72.4664 111.681 92.3772 131.606 92.3772 156.143Z" fill="#FFE000"/>
<path d="M403.496 352H208.496V536H403.496V352Z" fill="#F4A000"/>
</svg>
