<?xml version="1.0" encoding="utf-8"?>
<!-- Generator: Adobe Illustrator 26.0.2, SVG Export Plug-In . SVG Version: 6.00 Build 0)  -->
<svg version="1.1" id="圖層_1" xmlns="http://www.w3.org/2000/svg" xmlns:xlink="http://www.w3.org/1999/xlink" x="0px" y="0px"
	 viewBox="0 0 710.9 495.5" style="enable-background:new 0 0 710.9 495.5;" xml:space="preserve">
<style type="text/css">
	.st0{fill:#FFFFFF;}
	.st1{fill:none;stroke:#FFFFFF;stroke-width:2.0497;stroke-miterlimit:10;}
	.st2{fill-rule:evenodd;clip-rule:evenodd;fill:#FFFFFF;}
</style>
<g>
	<path class="st0" d="M41.7,38c-0.3,1-1.4,1.6-3.2,1.6c-2.5,6.3-5.4,12.1-8.6,17.5l3.5,1.3c-0.3,0.7-1.1,1.2-2.6,1.6v48.3
		c-0.2,0.7-3.4,2.4-6.4,2.4H23V66.9c-3.3,4-6.8,7.6-10.5,10.6l-1.1-0.7C18.6,66.6,26.1,50.3,30,34.3L41.7,38z M79.8,93.2
		c0,0,5.8,4.5,9.2,7.8c-0.2,0.9-1.1,1.3-2.4,1.3H35.2l-0.7-2.6h40.3L79.8,93.2z M38.4,51h32.9l4.9-6.5c0,0,5.6,4.6,9.1,7.8
		c-0.2,0.9-1.1,1.3-2.4,1.3H39.1L38.4,51z"/>
	<path class="st0" d="M168.9,58.8c-0.6,0.7-1.5,0.8-3,0.9c-2.1,2.1-5.5,4.9-8.2,6.5l-0.5-0.3c7.2,6.3,2,14.5-3.4,10.1
		c-0.2-4.9-3.4-10.6-6.4-14.1l0.7-0.5c3.9,1.1,6.7,2.6,8.6,4.1c0.5-1.9,0.8-4.8,1.2-7.2h-55.2c0.7,4.8-0.8,8.1-2.9,9.5
		c-2,1.5-5.2,1.2-6.1-1.1c-0.8-2.3,0.5-4.2,2.6-5.2c2.2-1.6,4-5.8,3.2-9.8l1.3-0.1c0.7,1.5,1.2,2.9,1.5,4.2h39.4
		c2.6-4.2,5.4-9.8,6.9-14.1l10,3.9c-0.4,1-1.5,1.5-3.2,1.2c-2.6,2.8-6.9,6.2-11.1,9h13l4.1-4.2L168.9,58.8z M156.8,87.4
		c-0.7,0.7-1.6,1-3.8,1.1c-3.5,4.2-7.7,7.8-12.7,10.7c8.3,1.7,17.5,2.6,26.8,3v1.1c-3.5,0.9-5.6,3.5-6.3,7.3
		c-10.9-1.3-20.9-3.4-29.5-6.9c-10,4-22.1,6-35.8,6.8l-0.3-1.3c11.4-1.6,21.7-4.3,30.4-8.2c-3.9-2.1-7.5-4.4-10.5-7.3
		c-4.9,3.3-10.5,5.9-16.1,7.7l-0.7-1.1c4.5-2.6,9.1-6.3,13.1-10.3c-1.9-2.2-3.6-4.7-5.1-7.3l1.1-0.9c1.6,2.3,3.6,4.4,5.9,6.2
		c2.8-3.2,5.2-6.6,6.8-9.6l9.8,3.3c-0.3,0.8-1.3,1.2-2.8,1c-0.6,0.7-1.2,1.5-1.8,2.2h19.6l4.8-4L156.8,87.4z M109.1,61.7
		c2.6,7.9,0.1,13.3-3.2,15.1c-2.2,1.2-5.3,0.9-6.2-1.4c-0.7-2.2,0.7-4,2.6-5.1c2.8-1.2,5.5-4.8,5.4-8.6H109.1z M160.7,41
		c-0.9,0.7-2.6,0.7-4.7-0.3c-14.2,1.6-35.3,2.9-53.7,2.6l-0.2-1.6c17.6-1.2,39.9-4.7,51.8-7.7L160.7,41z M107.6,44.2
		c16.3,3.3,9.7,14.9,3.8,10.1c-0.2-3.4-2.5-7.2-4.6-9.6L107.6,44.2z M123,61.5c-0.2,1-0.9,1.7-2.4,2V71c0,1,0.2,1.2,3.4,1.2h9.1
		c3.8,0,6.9,0,8.1-0.1c1,0,1.5-0.2,2-0.7c0.7-0.8,1.6-2.9,2.6-5.5h0.9l0.2,5.5c2.1,0.7,2.7,1.5,2.7,2.7c0,2.9-2.9,4-17.1,4h-9.7
		c-7.4,0-8.6-1.2-8.6-5.8V60.7L123,61.5z M123.1,87.2c-1.5,1.4-3.1,2.8-4.9,4.1c4.2,2.5,9.1,4.4,14.4,6c4.7-2.9,8.6-6.3,11.6-10.1
		H123.1z M125.3,43.4c16.1,4.2,9.1,15.7,3.2,10.6c-0.2-3.5-2.1-7.6-4-10.1L125.3,43.4z M126.8,59.3c16.8,2.3,11.4,14.5,5.2,10.3
		c-0.6-3.5-3.4-7.4-6-9.7L126.8,59.3z"/>
	<path class="st0" d="M231.9,56.4c3.4,12.8,10.9,24.5,19.6,30.4l-0.2,0.9c-3.5,2.3-5.3,5.5-5.8,9.6c-8-8.9-12.8-24.4-15.1-39.8v50.3
		c0,0.9-3.3,2.8-6.2,2.8h-1.4V72c-5.2,10.1-12.7,18.9-22.6,25.8l-0.9-0.9c10.5-10.5,17.5-25.5,21.1-40.6h-11.1l-0.2-0.7
		c-0.4,0.5-1.1,0.7-2,0.7h-11.9v5.8c19.7,7.2,12.6,20.7,5.8,14.9c-0.5-4.2-3.2-9.3-5.8-13.1v44.1c0,0.8-3.2,2.4-6.1,2.4h-1.5V75.7
		c-3.7,6.9-8.4,13.1-14.2,18.4l-1.2-1c7.2-10,12-23.5,14.6-36.7h-12.8l-0.7-2.4h14.2V34.3l10.5,1.1c-0.2,1.2-0.7,2.1-3,2.4v16.3h2.5
		l4.1-5.6c0,0,4.1,3.4,6.9,6.1l-0.2-0.6h14.2V34.4l10.6,1.2c-0.2,1.2-0.8,2-3,2.3V54h7.4l4.4-5.8c0,0,4.9,4,7.9,6.8
		c-0.2,0.9-1.1,1.3-2.2,1.3H231.9z"/>
	<path class="st0" d="M269.2,44.5h-14.2l-0.7-2.4h14.6l-1-7.9l10.2,0.8c-0.1,0.9-0.7,1.7-2.3,2.2l0.7,4.9h4.4l3.9-5.3
		c0,0,4.6,3.7,7.2,6.3c-0.2,0.9-1,1.3-2.1,1.3h-13.1l0.7,5c-1.1,1.5-3.9,2.1-7.3,2.1L269.2,44.5z M283.7,58.6
		c-0.7,0.7-1.7,0.9-3.6,0.9c-2.4,3.9-6.3,10.5-9.6,14.3c8.1,4.5,11.3,10.1,11.4,15.6c0,6.5-2.7,9.7-10.5,10c0-1.7-0.3-4-1-4.7
		c-0.7-0.7-1.9-1.2-3.7-1.5v-1.2h5.4c1,0,1.5-0.1,2.1-0.4c0.8-0.7,1.4-1.8,1.4-4c0-4.8-2.1-9.2-6.9-13.7c1.4-4.1,3.5-11.1,4.9-16.2
		h-7v50.4c0,0.5-2.2,2.1-5.6,2.1h-1.2V52.3l7.8,3.2h5.5l3.9-3.8L283.7,58.6z M306.8,52.7c-0.2,0.9-1,1.3-3.1,1.6
		c5.7,4.3,14.7,7.5,24.1,8.6l-0.1,1.1c-2.5,0.9-3.7,3.8-4,6.3c-8.7-3.1-16.5-8.6-21-15.3c-5,5.8-15.4,12.9-26.2,16.4l-0.4-0.9
		c8.9-4.7,17.9-13.4,21.5-20.3L306.8,52.7z M319.1,85c0,0,4.5,3.3,7.4,5.8c-0.2,0.9-1.1,1.3-2.2,1.3h-25.7l6.3,2.2
		c-0.3,0.8-1.3,1.6-3.2,1.4c-3.3,2.5-8.3,5.3-13.1,7.3c6.6-0.1,15.7-0.3,25.2-0.7c-1.7-2.9-3.8-5.5-5.9-7.5l0.8-0.7
		c20.7,6,15,20.3,8.1,15.3c-0.3-1.7-1.1-3.5-2-5.4c-7,1.5-17.1,3.5-28.7,5.2c-0.3,0.6-0.8,0.8-1.3,1.1l-3.8-7.7c0,0,1.3-0.2,2-0.5
		c4.1-1.7,9.1-6.9,11.5-10.2h-11.9l-0.7-2.4h33.2L319.1,85z M303.4,81.3c1.6-2.2,3.4-5.5,4.4-8.5h-20.9l-0.7-2.4h22.1l3.8-3.2l6,4.9
		c-0.6,0.7-1.5,0.9-3.3,0.9c-1.8,3-4.9,6-8.4,8.3h4l3.5-4.3c0,0,4,3,6.5,5.3c-0.2,0.9-0.8,1.3-2,1.3h-33.6l-0.7-2.3H303.4z
		 M305.2,60.1c0,0,3.3,2.6,5.4,4.7c-0.2,0.9-0.9,1.3-2.1,1.3H293l-0.7-2.4h9.8L305.2,60.1z M321.8,36.8c0,0,4.5,3.7,7.2,6.3
		c-0.1,0.9-0.9,1.3-2.1,1.3h-15.5l-0.9,5.6c-1.4,1.1-4.4,1.5-7.7,0.8l1.1-6.4h-9.5l-0.7-2.4h10.5l1.3-8l10.1,1.9c-0.2,1-1,1.8-3.2,2
		l-0.7,4.1h6.1L321.8,36.8z"/>
	<path class="st0" d="M349.3,45.7c-4.4,5.9-9.6,10.6-14.9,13.8l-1-0.8c5-5.8,10-15.3,13-25.1l10.5,3.6c-0.4,0.9-1.4,1.6-3.2,1.5
		c-0.9,1.6-1.8,3.1-2.7,4.6h11.5l3.7-4.9c0,0,4.4,3.5,6.9,6c-0.2,0.9-1,1.3-2.1,1.3H349.3z M401,79.9l7.5,6.1
		c-0.6,0.7-1.6,1.1-3.2,1.3c-0.9,9.1-2.7,14.7-6.1,16.8c-2.2,1.4-5.1,2.1-8.8,2.1c0.1-2.1-0.2-4-1.4-5.1c-1.2-1.1-3.8-2-6.8-2.5
		v-1.2c3,0.2,8,0.6,9.5,0.6c1.3,0,2-0.1,2.6-0.6c1.3-1,2.6-5.1,3.2-11.3h-21.2v22.5c-0.1,0.5-2.6,2.1-6.5,2.1h-1.5V91.8
		c-8.1,7.7-19.6,13.3-33,17l-0.7-1.2c11.9-5.1,22.2-13,28.6-21.5h-13.3l-3.1,3.5l-7.4-4.9c0.7-0.6,2-1.2,3.1-1.7
		c1.1-4.5,2.3-11.5,2.7-15.5l8.8,4h14.3v-9.9H341l-0.7-2.4h52.4l3.7-3.9l7.8,5.8c-0.4,0.6-1.6,1.3-3,1.6v12.4
		c-0.1,0.6-3.9,2.2-6.4,2.2h-1.2v-3.5h-17.2v9.9h20.6L401,79.9z M368.3,83.7v-9.9h-16.5c-0.6,3-1.3,6.8-2,9.9H368.3z M353,47.3
		c15.3,2.1,9.5,13.1,3.9,8.8c-0.4-3-2.6-6.3-4.7-8.2L353,47.3z M402.7,38c0,0,4.7,3.6,7.7,6.4c-0.2,0.9-1.1,1.3-2.2,1.3h-26.4
		c-3.5,4.5-7.7,8.1-12,10.7l-1.1-0.7c4.1-5.3,8.1-13.5,10.5-22.1l10.3,4c-0.4,1-1.4,1.6-3.1,1.4c-0.8,1.5-1.8,3-2.7,4.4h14.9
		L402.7,38z M376.3,71.5h17.2v-9.9h-17.2V71.5z M385.3,47.3c16.1,1.3,10.3,12.8,4.3,8.6c-0.5-2.8-2.8-6.2-5-8L385.3,47.3z"/>
	<path class="st0" d="M473.5,68.7l6.1-8.3c0,0,6.9,5.8,11.1,9.7c-0.2,1-1.2,1.3-2.6,1.3h-72.9l-0.8-2.7H473.5z"/>
	<path class="st0" d="M529.7,83.7c-4.9,2.5-11.5,5.7-20.2,9.5v15.1c-0.1,0.6-2.1,2.4-6.4,2.4h-1V96.4l-2.4,1c-0.4,1-1.2,1.7-2,2.1
		l-4.5-9.1c2.1-0.3,5.1-0.9,8.9-1.7V39.8l7.7,3.6c3.9-2.6,7.9-5.9,11.3-8.9l8.8,6.8c-0.6,0.7-1.3,0.8-3,0.4
		c-5.1,1.7-11.8,3.5-17.5,4.6v11.4h6.5l4.1-5.4c0,0,4.7,3.8,7.5,6.4c-0.2,0.9-1,1.3-2.2,1.3h-15.9v12.7h6.7l4.2-5.6
		c0,0,4.8,3.9,7.6,6.7c-0.2,0.9-1,1.3-2.1,1.3h-16.3v11.9c6-1.3,13-2.9,19.9-4.5L529.7,83.7z M566.4,73.9c-0.6,0.7-1.4,1-3.4,1.2
		c-2.9,7-6.9,13.4-12.2,18.7c6,4.4,13.3,7.4,21.4,9.4l-0.2,0.9c-3.3,0.6-5.8,3-6.9,6.7c-7.7-3.1-14.1-7.2-19.1-12.7
		c-7.3,5.7-16.6,10.1-28.6,12.8l-0.6-1.2c10.8-3.9,19.3-9.2,25.8-16.1c-3.7-5.3-6.3-11.9-8.2-19.8h-5.3l-0.7-2.4h26l4.5-4.4
		L566.4,73.9z M525.8,68.9c7-6.4,7.8-14.5,7.8-21.5V36.8l8.5,3.3h9.1l3.8-4l7.3,6c-0.6,0.6-1.6,1-3,1.2v13.8c0,0.9,0.2,1.2,1.2,1.2
		h1.9h2c0.3,0,0.9,0,1.3-0.1c0.4,0,1.1-0.2,1.6-0.3h0.8l0.3,0.2c1.9,0.8,2.6,1.5,2.6,2.9c0,2.9-2.6,4.2-9.5,4.2h-3.5
		c-5.3,0-5.8-1.6-5.8-6V42.5H541v4.9c0,6.7-1.5,16.7-14.3,22.5L525.8,68.9z M536.1,73.9c2.1,6.4,5.6,11.7,10,16
		c3.8-4.8,6.7-10.1,8.6-16H536.1z"/>
	<path class="st0" d="M219.6,157.8c-0.6,0.7-1.7,1.4-3.5,1.7v27.7c-0.1,0.6-4.1,2.1-6.8,2.1h-1.4v-6.8h-20.8v29.1c0,0.9-3.5,3-6.7,3
		h-1.6v-32H158v5.4c0,0.7-3.5,2.6-6.8,2.6H150v-38.4l8.8,3.7h20.1v-17.9l11.3,1.2c-0.2,1.2-0.8,2.1-3,2.4v14.3h20l4-4.4L219.6,157.8
		z M178.9,180.1v-21.9H158v21.9H178.9z M207.9,180.1v-21.9h-20.8v21.9H207.9z"/>
	<path class="st0" d="M292.3,201.3c0,0,5.9,4.4,9.5,7.7c-0.2,0.9-1.1,1.3-2.3,1.3h-73.6l-0.7-2.4h12.3v-42.5l11.4,1.1
		c-0.2,1.1-0.9,1.9-3,2.2v39.2h14.6v-59.5h-30.7L229,146h55.2l5.1-6.5c0,0,5.9,4.4,9.5,7.6c-0.2,0.9-1,1.3-2.2,1.3h-27.7v26.4h12.3
		l5.1-6.4c0,0,5.6,4.4,9.1,7.5c-0.2,0.9-1.2,1.3-2.4,1.3h-24.2v30.7H287L292.3,201.3z"/>
	<path class="st0" d="M368,158.7c-3.2,13.6-9.1,25.1-18.4,34.3c9.4,6.5,20.7,10.9,33,13.6l-0.2,1c-4,0.4-6.9,2.9-8.4,6.8
		c-11.8-3.6-21.8-9-29.9-16.5c-9.5,7.4-22,13-38,16.5l-0.6-1.2c14.7-4.9,25.9-11.5,34.3-19.7c-7.8-8.8-13.5-20.3-16.6-35h-16.4
		l-0.7-2.3h61l5.2-6.8c0,0,5.8,4.5,9.2,7.7c-0.2,0.9-1.1,1.3-2.3,1.3H368z M324.9,158.7c3.7,12.8,10.4,22.7,19.3,30.2
		c7.4-8.6,11.9-18.9,14.2-30.2H324.9z M335.4,138.1c23.1,4.3,17,20.8,8.9,15.3c-1.2-5.1-5.6-11.1-9.6-14.7L335.4,138.1z"/>
	<path class="st0" d="M456.5,158.6c-1.6,12.8-4.7,23.8-10.9,33c4.7,6.3,10.7,11.5,18.5,15.3l-0.2,0.8c-3.6,0.7-5.9,2.7-6.9,6.2
		c-6.7-4.5-11.6-10.4-15.2-17.3c-6.6,7.5-15.7,13.4-28.6,17.7l-0.6-1c12.3-6.2,20.7-14,26.2-23.3c-2.6-6.5-4.3-13.7-5.4-21.4
		c-2.9,5.1-6.1,9.5-9.7,13.3l-1.2-0.7c2.6-5,5-11.1,7.1-17.8c-0.4,0.6-1.1,0.8-2,0.8h-12.8c-2.5,3-5.1,5.8-8.1,8.6h7l3.9-4l7.1,6.3
		c-0.6,0.7-1.6,0.8-3.2,1c-2.4,1.6-5.7,3.7-8.9,5.4l2.2,0.2c-0.2,1.2-1,1.7-2.7,2.1v4c5-0.7,10.4-1.5,15.8-2.3l0.2,1.3
		c-4.4,1.5-9.6,3.1-16.1,5.1v12.9c0,5.6-1.2,8.6-10.5,9.5c-0.2-2.3-0.7-4.1-1.8-5.3c-1.2-1.2-3.1-2.1-7-2.6v-1.2
		c0,0,8.5,0.5,10.1,0.5c1.3,0,1.7-0.3,1.7-1.4v-10.4c-3.8,1.2-7.9,2.3-12.3,3.5c-0.4,1-1.2,1.7-2.1,1.9l-3.5-8.6
		c3.7-0.3,10.1-1.1,17.9-2.1v-8.1l4.4,0.4c1.6-1.9,3-4.1,4.1-6h-9.1c-5.4,4.8-11.6,9.1-18.4,12.7l-0.9-1c4.9-3.4,9.5-7.3,13.7-11.7
		H390l-0.7-2.4h11.4c2.5-2.8,4.9-5.7,7-8.6h-21.4l-0.7-2.4h15v-10.5h-10.9l-0.7-2.4h11.5v-10.8l10.5,0.9c-0.2,1.2-0.9,2-3,2.3v7.6
		h0.8l3.5-4.9c0,0,2.7,2.2,5.1,4.4c1.6-3,3-6.1,4.1-9.1l9.5,4.4c-0.5,0.9-1.3,1.3-3.5,1c-2.8,5.5-6.4,11.4-10.9,17.1h2.7l3.7-4.8
		c0,0,4,3.4,6.5,5.8c2.4-7.7,4.2-16.1,5.2-24.6l11.4,2.8c-0.3,1-1.2,1.8-3.1,1.9c-1.2,4.7-2.6,9.1-4.1,13.3h11.6l4.6-5.8
		c0,0,5.1,4.1,8.2,6.9c-0.2,0.9-1.1,1.3-2.2,1.3H456.5z M409.4,161.9c2.5-3.5,4.7-7,6.6-10.5h-8v10.5H409.4z M438.1,158.6
		c-1.1,2.6-2.1,5.1-3.4,7.4c1.6,7,3.7,13.3,6.8,18.9c3.5-7.9,5.4-16.7,6.3-26.3H438.1z"/>
	<path class="st0" d="M533.3,201.3c0,0,5.9,4.4,9.5,7.7c-0.2,0.9-1.1,1.3-2.3,1.3H467l-0.7-2.4h12.3v-42.5l11.4,1.1
		c-0.2,1.1-0.9,1.9-3,2.2v39.2h14.6v-59.5h-30.7L470,146h55.2l5.1-6.5c0,0,5.9,4.4,9.5,7.6c-0.2,0.9-1,1.3-2.2,1.3h-27.7v26.4h12.3
		l5.1-6.4c0,0,5.6,4.4,9.1,7.5c-0.2,0.9-1.2,1.3-2.4,1.3h-24.2v30.7H528L533.3,201.3z"/>
	<path class="st0" d="M566,168c16.9,8.1,10.5,20.2,4.9,14.9c-0.2-4-2.6-9.1-4.9-12.8V212c0,0.8-3.1,2.6-5.8,2.6h-1.6v-35.2
		c-3.2,6.2-7.2,11.9-12.3,16.7l-1.1-1c6.3-9.6,10.2-22.7,12.3-35.2h-10.4l-0.7-2.4h12.1v-19.8l10.4,1.1c-0.2,1.2-0.8,2-3,2.3v16.4
		h1.6l3.9-5.1c0,0,4.2,3.6,6.9,6.2c-0.2,0.9-1,1.3-2.1,1.3H566V168z M568.8,213.1c18.1-8.1,33.7-19.3,44.7-38.6l9.8,5.5
		c-0.7,0.8-1.6,1.2-3.6,0.7c-4,5.5-8.4,10.3-13.2,14.3c23.2,7.7,17.5,23.1,9.2,17.7c-1.8-5.3-6.8-11.4-11-16.1
		c-10.2,8.2-21.9,13.7-35.3,17.7L568.8,213.1z M575,154.8l-0.7-2.4H611l4.4-6c0,0,5,4.2,8,7.1c-0.2,0.9-1,1.3-2.2,1.3H596l6.4,2.3
		c-0.3,0.8-1.3,1.6-3,1.4c-3.7,4.4-9.7,9.9-15.3,13.7c4.5-0.2,10.4-0.5,16.7-0.8c2.5-3.4,4.8-7,6.8-10.9l9.5,4.9
		c-0.5,0.9-1.4,1.2-3.5,0.8c-10.9,15.6-24.8,25.8-42.1,32.4l-0.7-1.3c10.5-5.8,19.8-13.2,27.7-22.9c-4.4,1.2-9.9,2.8-15.7,4.3
		c-0.6,1-1.3,1.6-2.1,1.8l-3-8.4c0,0,1.6-0.3,2.2-0.7c4.2-3.1,9.5-11.4,11.9-16.6H575z M590.9,137.5c19.8,4.3,12.9,18.3,5.6,12.9
		c-0.7-4.1-3.8-9.2-6.4-12.4L590.9,137.5z"/>
	<path class="st0" d="M638,162.8c5,14.7,2.1,25-1.5,30.1c-2.3,3.6-6.3,4.5-8.6,2.4c-1.7-1.8-1.2-4.5,0.7-6.6
		c4.2-4.1,8.2-14.7,8.1-25.8L638,162.8z M658.4,153.9c-0.1,1.1-0.9,2-2.9,2.2v44c0,2.1,0.9,2.8,5,2.8h10.7c4.4,0,7.8-0.1,9.4-0.2
		c1.3-0.2,2-0.5,2.5-1.5c1-1.7,2.4-6.8,4-13.3h1l0.2,13.9c2.6,1,3.4,1.9,3.4,3.5c0,3.9-4,5.4-21,5.4h-11.1c-9.1,0-11.9-1.6-11.9-8.4
		v-49.5L658.4,153.9z M671.3,161.7c-1.6-7.4-7.3-16.3-12.3-22.3l0.9-0.6C686,149.7,679.8,168.1,671.3,161.7z M696,193.9
		c-0.9-7.7-3.5-20.3-10.5-28.8l0.8-0.7C712.8,181.7,702.8,202.3,696,193.9z"/>
</g>
<line class="st1" x1="122.4" y1="138.7" x2="21.4" y2="214.5"/>
<line class="st1" x1="696.7" y1="38.5" x2="595.7" y2="114.3"/>
<g>
	<g>
		<path class="st0" d="M59.5,464.4v9.8H11.3v-7.5c6.2-6.4,12.3-12.9,17.4-18.1C40.4,436.4,45,428.1,45,418.6S39.7,403,31.2,403
			c-1.6,0-3.5,0.2-5.6,0.6l-2.4,8.8c-1.2,5.6-3.5,7.4-6.6,7.4c-2.5,0-4.5-1.4-5.7-3.6c1.4-11.5,11.9-17.5,23.8-17.5
			c15,0,21.9,8.1,21.9,19.8c0,10-6.3,18.3-24.3,33.8c-3.2,2.9-8,7.4-13.3,12.2H59.5z"/>
		<path class="st0" d="M83.6,411.1c-1,4.8-3,6.7-6.6,6.7c-2.3,0-4.4-0.9-5.4-3.6c1.6-10.6,11-15.4,21.9-15.4
			c14,0,22.2,7.5,22.2,18.1c0,8.6-5.5,15.5-16.8,18.5c13.4,2.2,19.1,9.3,19.1,18.9c0,12.5-10.3,21.5-26.1,21.5
			c-12.5,0-20.9-5.3-22.6-16.5c1.1-2.6,3-3.7,5.6-3.7c3.5,0,5.1,2.1,6.4,7.7l1.9,7.7c2.1,0.5,4.1,0.7,6,0.7c11.2,0,17.2-6.1,17.2-17
			s-5.9-16.8-17.5-16.8h-5.1v-4.6h4.3c10,0,16.4-5.6,16.4-16.1c0-9-5.1-14.1-13.8-14.1c-1.6,0-3.3,0.1-5.2,0.5L83.6,411.1z"/>
		<path class="st0" d="M132.5,473.1c19.6-6.7,28.9-17.2,31.5-33.4c-3.8,3.4-8.9,5.3-15,5.3c-12.7,0-22.5-8.3-22.5-22.5
			c0.1-14.8,10.8-23.8,24.9-23.8c15.6,0,25,11.6,25,30.4c0,22.4-14.2,40.8-43.2,47.3L132.5,473.1z M164.5,435.3
			c0.1-1.9,0.2-3.8,0.2-5.8c0-18.8-5.5-26.5-13.5-26.5c-7.2,0-13.2,5.9-13.2,18.1c0,12.4,6.3,18.4,15.1,18.4
			C157.6,439.5,161.2,438.1,164.5,435.3z"/>
		<path class="st0" d="M234.5,400.3v6.2l-26.7,67.7h-10.6l-1-1l31.9-63.1h-40.8v-9.8H234.5z"/>
		<path class="st0" d="M244.8,429.8h27.5v6.9h-27.5V429.8z"/>
		<path class="st0" d="M328.5,470.9v3.3h-43.1v-3.3l16-2.1c0.1-6.2,0.2-12.6,0.2-18.7v-42.3l-14.6,1.6v-4l24.5-6l1.5,1.1l-0.3,16.4
			v33.2c0,6.1,0.1,12.4,0.2,18.7L328.5,470.9z"/>
		<path class="st0" d="M389,456c0,11.8-9.9,19.8-24.6,19.8c-14.7,0-23.6-6.7-23.6-17.9c0-8.5,5.8-14.5,16.8-19.2
			c-10.1-5.3-14.7-12.2-14.7-20.5c0-12,9.9-19.4,22.3-19.4c13.1,0,20.6,7.5,20.6,17.3c0,6-3.6,12.5-14.4,18
			C383.4,439.8,389,446.1,389,456z M378.4,458.2c0-7-4.2-11.9-17.7-18.1c-6.7,4.6-9.9,8.9-9.9,16.3c0,9.5,5.5,15.3,14.1,15.3
			C373.2,471.7,378.4,466.2,378.4,458.2z M368.2,432.5c6-5,8.2-9.7,8.2-16.1c0-7.6-4.1-13.4-11.4-13.4c-6.4,0-12.2,4.6-12.2,11.9
			C352.8,421.1,355.8,426.7,368.2,432.5z"/>
		<path class="st0" d="M447.6,456c0,11.8-9.9,19.8-24.6,19.8c-14.7,0-23.6-6.7-23.6-17.9c0-8.5,5.8-14.5,16.8-19.2
			c-10.1-5.3-14.7-12.2-14.7-20.5c0-12,9.9-19.4,22.3-19.4c13.1,0,20.6,7.5,20.6,17.3c0,6-3.6,12.5-14.4,18
			C442,439.8,447.6,446.1,447.6,456z M437,458.2c0-7-4.2-11.9-17.7-18.1c-6.7,4.6-9.9,8.9-9.9,16.3c0,9.5,5.5,15.3,14.1,15.3
			C431.8,471.7,437,466.2,437,458.2z M426.8,432.5c6-5,8.2-9.7,8.2-16.1c0-7.6-4.1-13.4-11.4-13.4c-6.4,0-12.2,4.6-12.2,11.9
			C411.4,421.1,414.4,426.7,426.8,432.5z"/>
		<path class="st0" d="M506.3,456c0,11.8-9.9,19.8-24.6,19.8c-14.7,0-23.6-6.7-23.6-17.9c0-8.5,5.8-14.5,16.8-19.2
			c-10.1-5.3-14.7-12.2-14.7-20.5c0-12,9.9-19.4,22.3-19.4c13.1,0,20.6,7.5,20.6,17.3c0,6-3.6,12.5-14.4,18
			C500.7,439.8,506.3,446.1,506.3,456z M495.7,458.2c0-7-4.2-11.9-17.7-18.1c-6.7,4.6-9.9,8.9-9.9,16.3c0,9.5,5.5,15.3,14.1,15.3
			C490.5,471.7,495.7,466.2,495.7,458.2z M485.5,432.5c6-5,8.2-9.7,8.2-16.1c0-7.6-4.1-13.4-11.4-13.4c-6.4,0-12.2,4.6-12.2,11.9
			C470.1,421.1,473.1,426.7,485.5,432.5z"/>
	</g>
</g>
<g>
	<g>
		<path class="st0" d="M382.3,342.8v8.7h-43v-6.7c5.6-5.8,10.9-11.5,15.5-16.1c10.4-10.9,14.6-18.3,14.6-26.8S364.6,288,357,288
			c-1.4,0-3.2,0.2-5,0.6l-2.1,7.9c-1.1,5-3.2,6.6-5.8,6.6c-2.2,0-4-1.2-5.1-3.2c1.2-10.3,10.6-15.6,21.2-15.6
			c13.4,0,19.6,7.2,19.6,17.6c0,8.9-5.7,16.3-21.7,30.2c-2.9,2.6-7.1,6.6-11.9,10.9H382.3z"/>
		<path class="st0" d="M404.1,312.5c0,14.4-1.1,33.2-16.3,45.7l-1.1-0.7c8.8-13.1,9.8-29.6,9.8-45v-24.3l7.2,2.8
			c15.7-1.8,34.8-5.2,45.1-8.2l7.6,7.8c-0.9,0.7-2.6,0.7-5-0.2c-12.4,1.5-31.1,2.5-47.3,2.4v5.6h42.3l3.7-4l8.1,6
			c-0.5,0.7-1.6,1.3-3.2,1.6v11.5c-0.1,0.6-3.9,2.1-6.5,2.1h-1.3v-3.2h-43V312.5z M452.9,318.3c0,0,4.8,3.7,7.8,6.4
			c-0.2,0.9-1.1,1.3-2.2,1.3h-30.7c-0.2,2.8-0.7,5.4-1.3,8.1h17.6l4.1-3.8l7.4,6.1c-0.5,0.7-1.6,1.1-3.2,1.2
			c-0.9,9.5-2.8,15.8-6.2,18c-2.3,1.5-5.3,2.3-9.1,2.3c0-2.1-0.3-4.1-1.5-5.1c-1.2-1.1-4.2-2.1-7.4-2.6V349
			c3.3,0.2,8.7,0.7,10.4,0.7c1.4,0,2.1-0.2,2.8-0.6c1.5-1.1,2.7-5.9,3.4-12.6h-19c-2.7,8.4-9.2,16.2-25.5,22l-0.8-1.2
			c17.5-9.4,19.2-20.4,19.6-31.2h-12.9l-0.7-2.4h26.3c-0.7-0.1-1.4-0.3-2.1-0.8c-0.7-3-3.1-6.5-5-8.6l0.7-0.5
			c13.9,0.9,12.3,9.2,7.7,9.9h15.5L452.9,318.3z M404.1,300.6v9.3h43v-9.3H404.1z"/>
		<path class="st0" d="M472.6,301.7c-1.7,1.8-3.5,3.4-5.2,4.7l-1.1-0.8c4-5.5,8.1-14.2,10.4-23.1l8.9,3.2c-0.3,1-1.4,1.6-3.1,1.6
			c-1,2-2,3.9-3.3,5.8l1.1,0.4h14.7l3.3-4.1c0,0,3.8,2.9,6.2,5.1c-0.2,0.9-0.9,1.3-2,1.3h-10v7h2.4l2.9-3.7c0,0,2.8,2.2,4.8,4.2
			c3.4-5.3,6.4-13,8.1-20.8l9,2.9c-0.2,1-1.2,1.7-3,1.6c-0.9,2-1.9,4-2.9,5.9l1.2,0.5h16.4l3.3-4.1c0,0,3.9,2.9,6.4,5.1
			c-0.2,0.9-1,1.3-2.1,1.3h-11v7h2.9l2.9-3.8c0,0,3.6,2.7,5.7,4.9c-0.2,0.9-0.9,1.3-2,1.3h-9.5v7.3h2.9l3-3.8c0,0,3.5,2.7,5.7,4.9
			c-0.2,0.9-1,1.3-2.1,1.3h-9.5v7.2h4.6l3.4-4.4c0,0,4.1,3.1,6.5,5.5c-0.2,0.9-1,1.3-2.1,1.3h-26.4v0.9c0,0.6-2.2,2.2-5.5,2.2h-1.1
			v-25.8c-1.5,1.6-3,2.9-4.7,4.2l-1.1-0.7H501h-8.6v7.3h2.4l2.9-3.8c0,0,3.3,2.7,5.5,4.8c-0.2,0.9-1,1.3-2,1.3h-8.7v7.2h3.7l3.3-4.2
			c0,0,3.9,2.9,6.3,5.3c-0.2,0.9-1,1.3-2.1,1.3h-24.3v1.3c0,0.5-2.2,2.1-5.5,2.1h-1.1V301.7z M532.8,332.5c-0.7,0.7-1.6,1-3.8,1.1
			c-4.4,4.8-9.7,8.9-15.9,12.2c9.4,2.4,19.7,3.8,30.3,4.2l-0.1,1.1c-3.4,0.9-5.5,3.5-6.4,7.3c-11.9-1.6-22.8-4.2-32-8.7
			c-10.8,4.5-23.5,7.3-37.4,8.6l-0.5-1.3c11.7-2.2,22.8-5.7,32.4-10.3c-6.2-3.8-11.3-8.6-15.2-14.7h-13.9l-0.7-2.4h50.8l5.1-4.3
			L532.8,332.5z M479.2,295.8v7h6.9v-7H479.2z M486.2,305.2h-6.9v7.3h6.9V305.2z M486.2,314.9h-6.9v7.2h6.9V314.9z M484,282.5
			c15.6,2.4,9.8,13.8,4.1,9.4c-0.3-3.1-2.6-6.8-4.8-8.8L484,282.5z M486.4,332.1c4.7,4.9,11.3,8.7,19,11.5
			c5.6-3.3,10.5-7.3,14.2-11.5H486.4z M513.8,295.8v7h7.6v-7H513.8z M521.4,305.2h-7.6v7.3h7.6V305.2z M521.4,314.9h-7.6v7.2h7.6
			V314.9z M519.3,282.5c15.6,2.4,9.7,13.9,4,9.4c-0.2-3-2.5-6.7-4.8-8.8L519.3,282.5z"/>
		<path class="st0" d="M574.7,316c-2.9,1.8-6.4,4.1-10.8,6.7v26.4c0,5.5-1.1,8.6-9.5,9.4c-0.2-2.2-0.6-4.1-1.5-5.2
			c-1.1-1.2-2.7-2-5.9-2.5v-1.2c0,0,6.7,0.5,8.2,0.5c1.3,0,1.6-0.4,1.6-1.5v-21.7c-2,1.1-4,2.2-6.1,3.4c-0.3,1.1-1,1.9-1.9,2.2
			l-3.5-9.1c2.3-0.5,6.4-1.6,11.5-3.1v-16.2h-9.6l-0.7-2.4h10.3v-19l10.2,1.1c-0.2,1.1-1.1,2-3,2.2v15.8h1.1l3.8-5.8
			c0,0,4.1,4.1,6.4,6.9c-0.2,0.9-1,1.3-2.1,1.3h-9.1v14.1c3.3-1,6.9-2.1,10.4-3.2L574.7,316z M601.7,326.2
			c4.8,8.7,13.5,15.7,22,19.1l-0.2,0.7c-3,0.7-5.2,3.1-6.3,6.9c-8-5.5-13.7-14.5-17.1-26.2v29.5c0,0.7-3.3,2.1-6.1,2.1h-1.4v-23.5
			c-5.8,7.6-14,13.8-23.9,18.4l-0.8-1.1c9.5-6.5,16.7-16,20.9-25.9h-16l-0.6-2.4h20.4v-10l10.3,1c-0.2,1.1-0.8,1.9-2.8,2.2v6.9h10.1
			l4.5-5.9c0,0,5,4.1,8.1,6.9c-0.2,0.9-1.1,1.3-2.2,1.3H601.7z M619.6,290.4c-0.8,0.7-2.4,0.8-4.7-0.2c-10.2,2-26.5,3.7-40.4,3.9
			l-0.3-1.4c13-2,29.4-6.2,37.7-9.7L619.6,290.4z M576.5,297.8c17.3,7.4,9.5,20.3,3.3,14.3c0.1-4.6-2.1-10.2-4.2-13.9L576.5,297.8z
			 M590.8,295.3c17.2,7.3,9.5,20.2,3.3,14.2c0-4.7-2-10.1-4.2-13.8L590.8,295.3z M603.9,315.9c2.8-5.2,5.9-13.7,8-21.5l10.2,3.7
			c-0.4,1-1.4,1.6-3.1,1.5c-4,6.6-9.1,12.9-14,17L603.9,315.9z"/>
		<path class="st0" d="M699.7,348c2.3,0.9,2.8,1.8,2.8,3.4c0,3.3-3.1,4.9-16.5,4.9h-8.5c-7.6,0-9.4-1.6-9.4-7.4V317h-9.7
			c-1.6,21-8.6,34.4-32.4,41.5l-0.4-1.1c18.4-9.2,23.2-22.1,23.9-40.5h-22.8l-0.7-2.4h33.8v-31.9l11,1.1c-0.2,1.1-0.9,2-3,2.3v28.6
			h20.3l5-6.1c0,0,5.5,4.2,8.9,7.2c-0.2,0.9-1.1,1.3-2.3,1.3H676v1.2v28.7c0,1.5,0.4,1.9,3.2,1.9h7.4c2.9,0,5.4,0,6.5-0.2
			c1.1-0.1,1.4-0.3,1.9-1.2c0.8-1.7,2-7,3.4-13h0.9L699.7,348z M634.3,287.8c23.8,10.4,16.6,27.9,8.5,21.1c-0.8-6.9-5.1-15-9.4-20.5
			L634.3,287.8z M697,292.2c-0.4,0.9-1.5,1.5-3.3,1.2c-5.4,6.6-11.9,13.1-17.9,17.5l-0.9-0.8c3.3-5.5,7.8-14.7,11.2-22.8L697,292.2z
			"/>
	</g>
</g>
<g>
	<g>
		<path class="st0" d="M257.4,335c3.7-1.2,7.6-2.6,11.5-3.9l0.4,1c-5.3,3.7-13.3,9.1-24.2,15.7c-0.2,1.1-1,2-1.9,2.3l-4.2-9.1
			c2.3-0.6,6.2-1.8,10.9-3.3v-27.3h-9.3l-0.7-2.4h10v-21.5l10.5,1c-0.2,1.1-0.8,2-3,2.2v18.3h1.5l3.8-6c0,0,4.3,4.3,6.7,7.1
			c-0.2,0.9-1,1.3-2.1,1.3h-9.9V335z M308.5,319.2c0,0,5.4,4.2,8.6,7.3c-0.2,0.9-1.1,1.3-2.2,1.3H293v29.7c-0.1,0.5-2.5,2.2-6.4,2.2
			h-1.3v-31.9H263l-0.7-2.4h22.8V293h-19.5l-0.7-2.4h37.4l4.6-5.9c0,0,5.1,4,8.2,6.9c-0.2,0.9-1.1,1.3-2.2,1.3h-20v32.4h10.8
			L308.5,319.2z M270,297.9c17.5,13.4,10,28.3,3.4,21.5c0.1-6.9-2.3-15.1-4.5-21.1L270,297.9z M296.2,321c2.1-6,4.6-15.4,6.1-23.5
			l10.9,3.4c-0.4,1-1.3,1.7-3.1,1.7c-3.7,6.9-8.2,14-12.7,18.9L296.2,321z"/>
	</g>
</g>
<g>
	<path class="st0" d="M50.6,342.2v8.7h-43v-6.7c5.6-5.8,10.9-11.5,15.5-16.1c10.4-10.9,14.6-18.3,14.6-26.8s-4.7-13.9-12.3-13.9
		c-1.4,0-3.2,0.2-5,0.6l-2.1,7.9c-1.1,5-3.2,6.6-5.8,6.6c-2.2,0-4-1.2-5.1-3.2c1.2-10.3,10.6-15.6,21.2-15.6
		c13.4,0,19.6,7.2,19.6,17.6c0,8.9-5.7,16.3-21.7,30.2c-2.9,2.6-7.1,6.6-11.9,10.9H50.6z"/>
	<path class="st0" d="M103,332.1H92.4v18.8h-9.4v-18.8H55.5v-5.6l30.1-42.1h6.9v40.8H103V332.1z M83.1,325.2v-31.5l-22.4,31.5H83.1z
		"/>
	<path class="st0" d="M179.4,342.2v8.7h-43v-6.7c5.6-5.8,10.9-11.5,15.5-16.1c10.4-10.9,14.6-18.3,14.6-26.8s-4.7-13.9-12.3-13.9
		c-1.4,0-3.2,0.2-5,0.6l-2.1,7.9c-1.1,5-3.2,6.6-5.8,6.6c-2.2,0-4-1.2-5.1-3.2c1.2-10.3,10.6-15.6,21.2-15.6
		c13.4,0,19.6,7.2,19.6,17.6c0,8.9-5.7,16.3-21.7,30.2c-2.9,2.6-7.1,6.6-11.9,10.9H179.4z"/>
	<path class="st0" d="M226.6,286.2c-18.8,4.4-28.7,14.8-30.5,30.6c4.2-4.2,9.5-6.5,15.2-6.5c11.2,0,18.6,8.2,18.6,20.2
		c0,13.5-8.7,21.8-21.5,21.8c-14.2,0-22.9-10.5-22.9-28.4c0-20.4,15.2-37.5,40.6-40.4L226.6,286.2z M219.6,331.5
		c0-10.8-4.5-15.8-11.6-15.8c-4.1,0-8.4,1.1-12.2,4.5c-0.1,0.7-0.1,1.5-0.1,2.2c0,17.6,4.9,26.1,12.7,26.1
		C215,348.6,219.6,343.1,219.6,331.5z"/>
</g>
<circle class="st0" cx="119.7" cy="321" r="3.7"/>
<g>
	<path class="st2" d="M550.4,457.9v9.9l-0.5,0.9h9.4l-0.5-0.9v-26.9l0.5-0.9h-29.9l0.5,0.9v26.9l-0.5,0.9h9.4l-0.5-0.9v-9.9
		c0-3.2,2.4-6.1,6.1-6.1C547.8,451.8,550.4,454.6,550.4,457.9L550.4,457.9z"/>
	<g>
		<path class="st0" d="M585.8,443.7V467c0,0.1-0.8,0.7-2,0.7h-0.4v-7.2c-1.5,0.8-3.4,1.9-5.6,3.1c-0.1,0.3-0.4,0.6-0.7,0.7l-1.2-3.1
			c0.4-0.1,1-0.2,1.8-0.3v-17.2h-1.6l-0.2-0.8h8.1l1.5-1.9c0,0,1.8,1.3,2.8,2.3c-0.1,0.3-0.4,0.5-0.8,0.5H585.8z M583.5,443.7h-3.4
			v4.8h3.4V443.7z M583.5,449.3h-3.4v5h3.4V449.3z M580.1,460.4c1-0.2,2.2-0.5,3.4-0.8v-4.4h-3.4V460.4z M591.8,454l3.1,0.3
			c-0.1,0.4-0.3,0.6-1,0.7v3.9c-0.1,3.4-1.2,6.9-6.9,8.9l-0.3-0.4c3.3-1.7,4.5-4,4.9-6.5h-2l-0.8,1.2l-2.4-1.6
			c0.2-0.2,0.5-0.5,0.8-0.7v-5.3l3.3,0.3c-0.1,0.3-0.3,0.6-1.2,0.7v4.5h2.3c0.1-0.4,0.1-0.8,0.1-1.2V454z M600,448.9
			c4.8,2.7,2.8,6.1,1.1,4.6c0-0.4-0.1-0.9-0.2-1.4c-1.3,0.4-3.2,1.1-5,1.6c-0.1,0.1-0.3,0.2-0.4,0.2l-0.7-2c0.3,1.5-0.8,2.5-1.8,1.5
			c0-0.4-0.1-0.8-0.1-1.3c-1.3,0.4-3.1,1.1-5,1.6c-0.1,0.1-0.2,0.1-0.4,0.2l-0.7-2.4c0,0,0.5-0.1,0.7-0.2c1-0.8,2-2.1,3-3.5
			c-0.7,0.2-1.5,0.5-2.3,0.7c-0.1,0.2-0.3,0.3-0.5,0.3l-1-2.3c0,0,0.4-0.1,0.6-0.3c1.2-1.2,2.6-4.3,3.1-5.9l3,1.4
			c-0.1,0.2-0.4,0.5-1,0.4c-1,1.4-2.5,3.1-3.9,4.4c0.8,0,1.8,0,2.8,0c0.7-1.1,1.3-2.2,1.7-3.1l2.6,1.8c-0.1,0.2-0.5,0.4-1.1,0.3
			c-1.3,1.8-3.6,4.3-5.8,6c1.1,0,2.6-0.1,4.1-0.2c-0.3-0.9-0.6-1.8-0.9-2.4l0.4-0.1c1.5,0.9,2.3,1.8,2.6,2.7c0.1,0,0.5-0.1,0.7-0.3
			c0.9-0.8,1.9-2.2,2.8-3.6c-0.8,0.2-1.6,0.5-2.4,0.7c-0.1,0.2-0.3,0.3-0.5,0.4l-1-2.3c0,0,0.4-0.1,0.6-0.2c1.2-1.2,2.5-4.4,2.9-6
			l3,1.4c-0.1,0.3-0.4,0.5-1,0.5c-0.9,1.3-2.4,3.1-3.7,4.4c0.8,0,1.8,0,2.8,0c0.6-1.1,1.2-2.2,1.5-3l2.6,1.8
			c-0.1,0.2-0.5,0.4-1.1,0.3c-1.2,1.8-3.4,4.2-5.4,5.9c1.1-0.1,2.6-0.1,4.1-0.3c-0.3-0.9-0.7-1.8-1.1-2.4L600,448.9z M603.2,455.1
			c-0.1,0.4-0.3,0.6-1,0.7v6c0,0.2-0.9,0.6-1.7,0.6h-0.4v-1.5h-2.3v6.1c0,0.2-1,0.7-1.8,0.7h-0.4v-13.8l3.4,0.3
			c-0.1,0.4-0.3,0.7-1.1,0.8v5h2.3v-5.3L603.2,455.1z"/>
		<path class="st0" d="M630.3,441.1c0,0,1.8,1.4,2.9,2.4c-0.1,0.3-0.3,0.5-0.8,0.5h-6c-0.7,1.1-1.6,2.5-2.4,3.4h4.3l1.3-1.5l2.7,2.1
			c-0.2,0.2-0.5,0.4-1.1,0.5v12.7c0,0.1-0.9,0.7-2.2,0.7h-0.5v-1h-6.9v0.9c0,0.2-0.8,0.8-2.1,0.8H619v-16.3l2.9,1.2h1
			c0.2-1,0.4-2.4,0.4-3.4h-5.1c-0.1,0.1-0.4,0.2-0.6,0.2h-4.8c-0.4,2.6-1,5-1.9,7.2l0.5,0.2h2.5l1.3-1.4l2.8,2.1
			c-0.2,0.2-0.6,0.5-1.2,0.6v11c0,0.2-1.3,0.7-2.1,0.7h-0.4v-1.9h-3.1v2.9c0,0.2-0.8,0.8-2.1,0.8h-0.4v-10.7
			c-0.8,1.2-1.6,2.3-2.5,3.4l-0.4-0.3c2.3-4.1,3.7-9.5,4.3-14.8h-3.8l-0.2-0.8h8l1.6-2c0,0,1.2,0.9,2.2,1.8h10.9L630.3,441.1z
			 M611.1,452.4v9.5h3.1v-9.5H611.1z M614.7,467.4c2.5-1.2,5.4-3.3,7.5-5.8l2.9,2c-0.2,0.3-0.5,0.3-1.1,0.2
			c-2.4,2.1-6.3,3.6-9.1,4.1L614.7,467.4z M621.6,448.2v3.3h6.9v-3.3H621.6z M621.6,455.6h6.9v-3.3h-6.9V455.6z M628.5,460v-3.5
			h-6.9v3.5H628.5z M626.2,462.1c8.9,1,7.6,6.8,4.8,5.4c-0.8-1.8-3.1-3.9-5-5.1L626.2,462.1z"/>
		<path class="st0" d="M642.1,459.2c1.3-0.4,2.7-0.8,4-1.2l0.1,0.4c-1.8,1.2-4.4,2.9-8.1,5c-0.1,0.4-0.3,0.7-0.7,0.8l-1.7-3.3
			c0.8-0.2,2.1-0.5,3.7-0.9v-10h-3.4l-0.2-0.8h3.6v-7.7l3.7,0.4c-0.1,0.4-0.3,0.7-1.1,0.8v6.5h0.9l1.3-2c0,0,1.5,1.4,2.3,2.4
			c-0.1,0.3-0.3,0.5-0.8,0.5h-3.8V459.2z M661.9,464c1,0.3,1.2,0.6,1.2,1.1c0,1.3-1.4,1.7-7.8,1.7h-4.2c-3.2,0-4.3-0.6-4.3-2.9
			v-11.1l-2.6,1.1l-0.6-0.7l3.2-1.4v-7.1l3.6,0.4c-0.1,0.4-0.4,0.7-1,0.8v4.8l3.1-1.4v-8.7l3.6,0.4c-0.1,0.4-0.3,0.7-1.1,0.8v6.4
			l3.4-1.5l0.1,0l1.4-1.4l2.5,2.6c-0.2,0.2-0.6,0.3-1.2,0.4c-0.7,3.4-2,8.4-3.7,11.7l-0.4-0.2c0.7-3.6,1.2-8.6,1.3-12.1l-3.4,1.5
			v11.8c0,0.3-1.1,0.9-2.1,0.9h-0.5v-11.5l-3.1,1.4v11.6c0,0.8,0.3,1.1,1.9,1.1h4.1c1.8,0,3,0,3.6-0.1c0.5,0,0.7-0.1,1-0.4
			c0.3-0.5,0.8-2,1.3-4.1h0.3L661.9,464z"/>
		<path class="st0" d="M689.5,449.3c0,0,2,1.4,3.1,2.4c-0.1,0.3-0.4,0.5-0.8,0.5h-20.5v2.4c0,3.6-0.4,9.4-5.3,13.2l-0.3-0.3
			c2.7-4,2.9-8.9,2.9-12.9v-4.4l3.1,1.2h16.1L689.5,449.3z M667,444.2h12.2l-0.1-0.1c-0.3-1.3-1.3-2.7-2.3-3.5l0.2-0.2
			c4.9,0.1,5.2,2.9,3.9,3.7h7.1l1.6-2c0,0,1.9,1.4,3.1,2.4c-0.1,0.3-0.4,0.5-0.8,0.5h-6.6l2.1,1.3c-0.2,0.3-0.5,0.4-1.1,0.2
			c-0.8,0.5-1.7,1-2.8,1.4c3.8,1.8,2.9,3.8,1.2,3.4c-0.9-0.7-2.4-1.5-4.1-2.3c-2.9,1-6.3,1.7-9.4,2.1l-0.2-0.4
			c2.4-0.6,5.1-1.5,7.4-2.6c-1.7-0.7-3.7-1.3-5.8-1.9l0.1-0.5c3.4,0.3,6.1,0.7,8.1,1.3c1.2-0.6,2.4-1.3,3.3-2h-17.1L667,444.2z
			 M689.5,463.7c0,0,2,1.4,3.1,2.4c-0.1,0.3-0.4,0.5-0.8,0.5h-21.2l-0.2-0.8h9.7v-4h-5.7l-0.2-0.8h5.9v-3.5h-4.5
			c-1,1.5-2.1,2.7-3.4,3.5l-0.4-0.3c1.2-1.8,2.3-4.8,2.9-7.7l3.5,1c-0.1,0.4-0.5,0.6-1.1,0.6c-0.3,0.7-0.7,1.3-1,2h3.9v-3.9l3.7,0.3
			c-0.1,0.4-0.3,0.7-1,0.8v2.8h3l1.6-2c0,0,1.7,1.3,2.9,2.4c-0.1,0.3-0.4,0.5-0.8,0.5h-6.7v3.5h2.6l1.5-1.9c0,0,1.7,1.3,2.8,2.2
			c-0.1,0.3-0.4,0.5-0.8,0.5h-6.2v4h5.1L689.5,463.7z"/>
	</g>
</g>
<g>
	<g>
		<path class="st0" d="M551.6,405.6c3,3.8,5.9,7.4,8.8,11c-1.1,1.7-2.3,3.4-3.4,5.2c-0.2,0.4-0.5,0.8-0.8,1.1
			c-0.1,0.1-0.4,0.3-0.6,0.2c-1.8-0.5-3.7-1-5.5-1.5c0,0-0.1-0.1-0.2-0.2c1.1-0.8,2.3-1.5,3.5-2.4c-0.6-0.8-1.1-1.6-1.7-2.3
			c-1.3-1.6-2.6-3.2-3.8-4.8c-0.2-0.2-0.3-0.7-0.2-0.9C549.1,409.2,550.3,407.5,551.6,405.6z"/>
		<path class="st0" d="M530,417.9c-0.9-0.3-1.8-0.6-2.6-0.8c-0.5-0.1-0.7-0.4-0.7-1c0-2,0-4.1,0-6.1c0-0.2,0.2-0.6,0.4-0.7
			c1.6-0.6,3.3-1.1,5-1.7c-0.2,1.1-0.4,2.2-0.6,3.2c0,0.2,0.1,0.7,0.2,0.7c1.3,0.4,2.5,0.8,3.8,1.2c1.4,0.4,2.7,0.8,4.1,1.2
			c0.6,0.1,0.7,0.4,0.7,0.9c0,1.7,0.1,3.5,0.2,5.2c0,0.3,0,0.8,0.1,1.2L530,417.9z"/>
		<path class="st0" d="M540.2,408.1c0,0.5,0.1,0.8-0.6,1c-1.9,0.5-3.7,1.2-5.5,1.8c-0.7,0.2-0.8,0.1-0.8-0.6
			c-0.1-2.1-0.1-4.3-0.2-6.4c-0.1-1.8-0.1-3.6-0.2-5.4c0-0.6,0.1-0.9,0.8-1.2c2-0.6,4-1.5,6-2.3c0.5-0.2,0.7-0.2,1,0.2
			c1.1,1.4,2.2,2.7,3.5,4.3c-1.6,0-2.9,0-4.4,0c0.1,1.3,0.2,2.5,0.2,3.7L540.2,408.1z"/>
		<path class="st0" d="M558.6,403.5c-1.1,1.7-2.2,3.2-3.4,5c-0.6-1.4-1-2.6-1.5-3.9c-1.8,0.6-3.6,1.1-5.4,1.7
			c-0.8,0.2-1.5,0.5-2.3,0.8c-1.1,0.4-1.5,0.2-2.1-0.6c-1-1.3-2.1-2.6-3.1-3.9c-0.4-0.5,0.2-0.7,0.5-0.8c1.5-0.5,3.1-1,4.7-1.6
			c2-0.7,3.9-1.4,5.9-2.1c0.5-0.2,1.1-0.4,1.6-0.4c0.2,0,0.6,0.1,0.7,0.3C555.6,399.9,557.1,401.7,558.6,403.5z"/>
		<path class="st0" d="M536.7,421.2c0.8,0.4,1.6,0.9,2.4,1.3c0.5,0.3,0.8,0.5,1.2-0.2c1.3-2.1,2.8-4.1,4.1-6.2
			c0.3-0.5,0.7-0.8,1.4-0.5c1.7,0.6,3.4,1,5.1,1.5c0.6,0.2,0.7,0.4,0.3,0.9c-1.8,2.7-3.7,5.4-5.5,8c-0.5,0.7-1,1.5-1.4,2.2
			c-0.3,0.5-0.6,0.6-1.2,0.4c-2-0.6-4-1.1-5.9-1.7c-0.2-0.1-0.5-0.4-0.6-0.6C536.7,424.7,536.7,423,536.7,421.2z"/>
	</g>
	<g>
		<g>
			<path class="st0" d="M601.7,405.4c-0.2,0.2-0.6,0.5-1.2,0.6v9.8c0,0.2-1.5,0.7-2.4,0.7h-0.5v-2.4h-7.4v10.3c0,0.3-1.3,1-2.4,1
				h-0.6v-11.3h-7.4v1.9c0,0.3-1.3,0.9-2.4,0.9H577v-13.6l3.1,1.3h7.1v-6.3l4,0.4c-0.1,0.4-0.3,0.7-1.1,0.8v5.1h7.1l1.4-1.6
				L601.7,405.4z M587.3,413.3v-7.8h-7.4v7.8H587.3z M597.5,413.3v-7.8h-7.4v7.8H597.5z"/>
			<path class="st0" d="M629.2,421.5c0,0,1.9,1.5,3,2.6c-0.1,0.3-0.4,0.5-0.8,0.5h-25.9l-0.2-0.8h12.3v-4.3h-7.9l-0.2-0.8h8.2v-3.7
				h-5.4c-1.6,2-3.5,3.5-5.6,4.5l-0.3-0.3c1.9-1.9,3.9-5,5.1-8.3c-0.4,0.1-0.7,0.1-1.1,0.1h-0.4V399l3.1,1.2h11.8l1.4-1.5l3,2.3
				c-0.2,0.2-0.6,0.5-1.2,0.6v8.2c0,0.2-1.5,0.8-2.4,0.8H625v-1.3h-12.2v0.7c0,0.1-0.1,0.2-0.3,0.3l2.8,1.2
				c-0.1,0.3-0.5,0.6-1.1,0.5c-0.4,0.7-0.8,1.4-1.3,2h4.7v-3.9l4,0.3c-0.1,0.4-0.3,0.7-1,0.8v2.7h5.2l1.6-2.1c0,0,1.8,1.5,2.9,2.5
				c-0.1,0.3-0.4,0.5-0.8,0.5h-8.9v3.7h4.8l1.6-2.1c0,0,1.8,1.4,2.9,2.5c-0.1,0.3-0.4,0.5-0.8,0.5h-8.5v4.3h7L629.2,421.5z
				 M612.8,401.1v3.2H625v-3.2H612.8z M625,408.4v-3.3h-12.2v3.3H625z"/>
			<path class="st0" d="M645.2,410.5c-0.2,0.3-0.5,0.4-1.1,0.4c-0.4,3.1-1.2,6-2.7,8.6c3.1,2,7.5,2.5,13.7,2.5c1.6,0,5.2,0,7,0v0.4
				c-1.1,0.2-1.7,1.2-1.7,2.3h-5.5c-6.7,0-11.2-0.7-14.4-3.7c-1.3,1.7-3.1,3.3-5.5,4.5l-0.2-0.4c2-1.5,3.5-3.3,4.5-5.4
				c-1.3-1.7-2.4-4.1-3.3-7.1l0.4-0.2c0.9,2.6,2.1,4.5,3.5,5.9c1-2.4,1.5-5,1.7-7.7h-2.4l-1,0.9l-2.4-1.7c0.3-0.2,0.7-0.4,1-0.6
				c1.1-2,2.6-5.1,3.4-7.2h-5l-0.3-0.8h5.2l1.3-1.3l2.6,2.4c-0.2,0.3-0.7,0.4-1.3,0.5c-0.8,1.9-2.3,5-3.4,7h1.9l1.4-1.4L645.2,410.5
				z M660.2,403.4c0,0,1.5,1.4,2.3,2.3c-0.1,0.3-0.4,0.5-0.8,0.5h-3.2v4.1c0,0.2-1.3,0.7-2.2,0.7H656v-1h-3.3v3h3.3l1.4-1.9
				c0,0,1.7,1.3,2.7,2.3c-0.1,0.3-0.4,0.5-0.8,0.5h-6.7v3.1h4.3l1.6-2.1c0,0,1.9,1.4,3,2.4c-0.1,0.3-0.4,0.5-0.8,0.5h-8.1v2.9
				c0,0.3-1.1,0.8-2.1,0.8H650v-3.7h-6.4l-0.2-0.8h6.7v-3.1h-5l-0.2-0.8h5.2v-3h-4.7l-0.3-0.8h4.9v-3h-6.9l-0.2-0.8h7.1v-2.9h-4.8
				l-0.3-0.8h5.1v-3.2l3.7,0.4c-0.1,0.4-0.3,0.7-1.1,0.8v2h3l1.3-1.4l2.8,2.1c-0.2,0.2-0.6,0.5-1.2,0.6v2.5h0.4L660.2,403.4z
				 M652.7,405.3h3.3v-2.9h-3.3V405.3z M656,406.2h-3.3v3h3.3V406.2z"/>
			<path class="st0" d="M675,402.1c0,0,1.6,1.2,2.5,2.1c-0.1,0.3-0.3,0.5-0.7,0.5h-11.7l-0.2-0.8h8.8L675,402.1z M680.9,402.7
				c0,2.4-0.5,6.3-5.3,8.6c0.2,0.1,0.4,0.3,0.5,0.5c-0.1,0.3-0.4,0.5-0.8,0.5h-9.1l-0.2-0.8h6.4l1.3-1.7c0,0,0.9,0.8,1.8,1.5
				l-0.2-0.3c2.7-2.5,3-5.6,3-8.2v-3.5l2.9,1.1h3.2l1.3-1.4l2.5,2.1c-0.2,0.2-0.6,0.3-1.1,0.4v5.3c0,0.3,0.1,0.4,0.5,0.4h0.9
				c0.3,0,0.7,0,0.9,0h0.5c0.2,0,0.4-0.1,0.6-0.1h0.3l0.1,0c0.7,0.3,0.9,0.5,0.9,1c0,1-0.9,1.5-3.6,1.5H687c-1.9,0-2.2-0.6-2.2-2.1
				v-6.3h-3.9V402.7z M672.5,407.6l1.3-1.6c0,0,1.5,1.1,2.4,2c-0.1,0.3-0.4,0.5-0.8,0.5h-9.1l-0.2-0.8H672.5z M675.3,423.3
				c0,0.2-1.2,0.8-2,0.8h-0.4v-1.5h-4v1.7c0,0.3-1.1,0.8-2.1,0.8h-0.4v-11l2.6,1.1h3.6l1.3-1.3l2.7,2c-0.2,0.2-0.6,0.4-1.2,0.6
				V423.3z M668.1,398.6c6.8,0.9,4.5,5.9,1.9,4.2c-0.3-1.4-1.3-3-2.2-4L668.1,398.6z M672.9,421.7V416h-4v5.7H672.9z M690.3,412.6
				c-0.2,0.3-0.5,0.4-1.2,0.4c-1,2.5-2.5,4.7-4.4,6.6c2.2,1.4,4.8,2.3,7.6,2.9l0,0.3c-1.2,0.2-2,1-2.4,2.3c-2.8-1-5.1-2.2-7-4
				c-2.4,1.9-5.5,3.3-9.4,4.3l-0.2-0.4c3.4-1.3,6.2-3,8.4-5.2c-1.5-1.9-2.7-4.2-3.4-7.1h-1.5l-0.3-0.8h9.6l1.6-1.5L690.3,412.6z
				 M678.9,412.6c0.9,2.4,2.3,4.3,4.1,5.8c1.4-1.7,2.5-3.7,3.2-5.8H678.9z"/>
		</g>
	</g>
</g>
</svg>
