<?xml version="1.0" encoding="utf-8"?>
<!-- Generator: Adobe Illustrator 26.0.2, SVG Export Plug-In . SVG Version: 6.00 Build 0)  -->
<svg version="1.1" id="圖層_1" xmlns="http://www.w3.org/2000/svg" xmlns:xlink="http://www.w3.org/1999/xlink" x="0px" y="0px"
	 viewBox="0 0 210.1 172" style="enable-background:new 0 0 210.1 172;" xml:space="preserve">
<style type="text/css">
	.st0{fill:#FFFFFF;}
	.st1{fill:none;stroke:#FFFFFF;stroke-width:0.75;stroke-miterlimit:10;}
	.st2{fill-rule:evenodd;clip-rule:evenodd;fill:#FFFFFF;}
</style>
<g>
	<g>
		<g>
			<path class="st0" d="M16.3,4.7c-0.1,0.3-0.4,0.5-0.9,0.5c-0.7,1.8-1.6,3.5-2.5,5l1,0.4c-0.1,0.2-0.3,0.4-0.7,0.4v13.9
				c0,0.2-1,0.7-1.8,0.7h-0.4V13c-0.9,1.2-2,2.2-3,3.1l-0.3-0.2c2.1-2.9,4.2-7.6,5.4-12.2L16.3,4.7z M27.3,20.6c0,0,1.7,1.3,2.7,2.2
				c-0.1,0.3-0.3,0.4-0.7,0.4H14.4l-0.2-0.8h11.6L27.3,20.6z M15.4,8.5h9.5l1.4-1.9c0,0,1.6,1.3,2.6,2.2c-0.1,0.3-0.3,0.4-0.7,0.4
				H15.5L15.4,8.5z"/>
			<path class="st0" d="M52.9,10.7c-0.2,0.2-0.4,0.2-0.9,0.3c-0.6,0.6-1.6,1.4-2.3,1.9l-0.1-0.1c2.1,1.8,0.6,4.2-1,2.9
				c-0.1-1.4-1-3.1-1.8-4l0.2-0.1c1.1,0.3,1.9,0.7,2.5,1.2c0.1-0.5,0.2-1.4,0.3-2.1H33.9c0.2,1.4-0.2,2.3-0.8,2.7
				c-0.6,0.4-1.5,0.4-1.8-0.3c-0.2-0.7,0.1-1.2,0.7-1.5c0.6-0.5,1.2-1.7,0.9-2.8l0.4,0c0.2,0.4,0.3,0.8,0.4,1.2h11.3
				c0.8-1.2,1.5-2.8,2-4l2.9,1.1c-0.1,0.3-0.4,0.4-0.9,0.4c-0.8,0.8-2,1.8-3.2,2.6h3.7l1.2-1.2L52.9,10.7z M49.4,18.9
				c-0.2,0.2-0.5,0.3-1.1,0.3c-1,1.2-2.2,2.2-3.6,3.1c2.4,0.5,5,0.8,7.7,0.9v0.3c-1,0.3-1.6,1-1.8,2.1c-3.1-0.4-6-1-8.5-2
				c-2.9,1.1-6.4,1.7-10.3,2l-0.1-0.4c3.3-0.5,6.3-1.2,8.7-2.4c-1.1-0.6-2.2-1.3-3-2.1c-1.4,0.9-3,1.7-4.6,2.2l-0.2-0.3
				c1.3-0.8,2.6-1.8,3.8-3c-0.5-0.6-1-1.4-1.5-2.1l0.3-0.3c0.5,0.7,1,1.3,1.7,1.8c0.8-0.9,1.5-1.9,2-2.8l2.8,0.9
				c-0.1,0.2-0.4,0.4-0.8,0.3c-0.2,0.2-0.3,0.4-0.5,0.6H46l1.4-1.2L49.4,18.9z M35.7,11.5c0.8,2.3,0,3.8-0.9,4.4
				c-0.6,0.4-1.5,0.3-1.8-0.4c-0.2-0.6,0.2-1.2,0.8-1.5c0.8-0.4,1.6-1.4,1.6-2.5H35.7z M50.5,5.6c-0.3,0.2-0.8,0.2-1.3-0.1
				C45.1,6,39,6.3,33.7,6.2l0-0.5c5.1-0.4,11.5-1.3,14.9-2.2L50.5,5.6z M35.2,6.5c4.7,0.9,2.8,4.3,1.1,2.9c-0.1-1-0.7-2.1-1.3-2.8
				L35.2,6.5z M39.7,11.5c0,0.3-0.3,0.5-0.7,0.6v2.2c0,0.3,0.1,0.3,1,0.3h2.6c1.1,0,2,0,2.3,0c0.3,0,0.4,0,0.6-0.2
				c0.2-0.2,0.5-0.8,0.7-1.6h0.3l0.1,1.6c0.6,0.2,0.8,0.4,0.8,0.8c0,0.8-0.8,1.2-4.9,1.2h-2.8c-2.1,0-2.5-0.4-2.5-1.7v-3.3
				L39.7,11.5z M39.7,18.9c-0.4,0.4-0.9,0.8-1.4,1.2c1.2,0.7,2.6,1.3,4.1,1.7c1.3-0.8,2.5-1.8,3.3-2.9H39.7z M40.3,6.3
				c4.6,1.2,2.6,4.5,0.9,3.1c0-1-0.6-2.2-1.2-2.9L40.3,6.3z M40.8,10.8c4.8,0.7,3.3,4.2,1.5,3c-0.2-1-1-2.1-1.7-2.8L40.8,10.8z"/>
			<path class="st0" d="M71,10c1,3.7,3.1,7.1,5.6,8.7l0,0.3c-1,0.7-1.5,1.6-1.7,2.8c-2.3-2.6-3.7-7-4.4-11.5v14.5
				c0,0.3-0.9,0.8-1.8,0.8h-0.4V14.5c-1.5,2.9-3.6,5.4-6.5,7.4l-0.3-0.3c3-3,5-7.3,6.1-11.7h-3.2l0-0.2C64.3,10,64.1,10,63.9,10
				h-3.4v1.7c5.7,2.1,3.6,6,1.7,4.3c-0.1-1.2-0.9-2.7-1.7-3.8v12.7c0,0.2-0.9,0.7-1.8,0.7h-0.4v-10c-1.1,2-2.4,3.8-4.1,5.3l-0.3-0.3
				c2.1-2.9,3.5-6.7,4.2-10.6h-3.7l-0.2-0.7h4.1V3.7l3,0.3c0,0.4-0.2,0.6-0.9,0.7v4.7h0.7l1.2-1.6c0,0,1.2,1,2,1.8l0-0.2h4.1V3.7
				L71.4,4c-0.1,0.3-0.2,0.6-0.9,0.7v4.6h2.1L74,7.7c0,0,1.4,1.1,2.3,2c-0.1,0.3-0.3,0.4-0.6,0.4H71z"/>
			<path class="st0" d="M81.7,6.6h-4.1l-0.2-0.7h4.2l-0.3-2.3l2.9,0.2c0,0.3-0.2,0.5-0.7,0.6l0.2,1.4h1.3l1.1-1.5
				c0,0,1.3,1.1,2.1,1.8c0,0.3-0.3,0.4-0.6,0.4h-3.8L84.1,8C83.8,8.4,83,8.6,82,8.6L81.7,6.6z M85.9,10.6c-0.2,0.2-0.5,0.3-1,0.3
				c-0.7,1.1-1.8,3-2.8,4.1c2.3,1.3,3.2,2.9,3.3,4.5c0,1.9-0.8,2.8-3,2.9c0-0.5-0.1-1.1-0.3-1.4c-0.2-0.2-0.5-0.3-1.1-0.4v-0.3h1.5
				c0.3,0,0.4,0,0.6-0.1c0.2-0.2,0.4-0.5,0.4-1.1c0-1.4-0.6-2.7-2-3.9c0.4-1.2,1-3.2,1.4-4.7h-2v14.5c0,0.1-0.6,0.6-1.6,0.6H79V8.8
				l2.2,0.9h1.6l1.1-1.1L85.9,10.6z M92.5,8.9c-0.1,0.3-0.3,0.4-0.9,0.4c1.6,1.2,4.2,2.2,6.9,2.5l0,0.3c-0.7,0.3-1.1,1.1-1.2,1.8
				c-2.5-0.9-4.7-2.5-6-4.4c-1.4,1.7-4.4,3.7-7.5,4.7l-0.1-0.3c2.6-1.4,5.1-3.9,6.2-5.8L92.5,8.9z M96.1,18.2c0,0,1.3,0.9,2.1,1.7
				c-0.1,0.3-0.3,0.4-0.6,0.4h-7.4l1.8,0.6c-0.1,0.2-0.4,0.5-0.9,0.4c-0.9,0.7-2.4,1.5-3.8,2.1c1.9,0,4.5-0.1,7.2-0.2
				c-0.5-0.8-1.1-1.6-1.7-2.2l0.2-0.2c5.9,1.7,4.3,5.8,2.3,4.4c-0.1-0.5-0.3-1-0.6-1.5c-2,0.4-4.9,1-8.3,1.5
				c-0.1,0.2-0.2,0.2-0.4,0.3l-1.1-2.2c0,0,0.4-0.1,0.6-0.1c1.2-0.5,2.6-2,3.3-2.9h-3.4l-0.2-0.7h9.5L96.1,18.2z M91.6,17.2
				c0.4-0.6,1-1.6,1.3-2.4h-6l-0.2-0.7H93l1.1-0.9l1.7,1.4c-0.2,0.2-0.4,0.3-0.9,0.3c-0.5,0.9-1.4,1.7-2.4,2.4h1.1l1-1.2
				c0,0,1.2,0.9,1.9,1.5c0,0.3-0.2,0.4-0.6,0.4h-9.7L86,17.2H91.6z M92.1,11.1c0,0,0.9,0.8,1.5,1.3c0,0.3-0.3,0.4-0.6,0.4h-4.5
				l-0.2-0.7h2.8L92.1,11.1z M96.9,4.4c0,0,1.3,1.1,2.1,1.8c0,0.3-0.3,0.4-0.6,0.4h-4.5l-0.3,1.6c-0.4,0.3-1.3,0.4-2.2,0.2l0.3-1.8
				H89l-0.2-0.7h3l0.4-2.3l2.9,0.5c-0.1,0.3-0.3,0.5-0.9,0.6L94,5.9h1.8L96.9,4.4z"/>
			<path class="st0" d="M104.8,6.9c-1.3,1.7-2.8,3.1-4.3,4l-0.3-0.2c1.4-1.7,2.9-4.4,3.7-7.2l3,1c-0.1,0.3-0.4,0.4-0.9,0.4
				c-0.3,0.5-0.5,0.9-0.8,1.3h3.3l1.1-1.4c0,0,1.3,1,2,1.7c-0.1,0.3-0.3,0.4-0.6,0.4H104.8z M119.6,16.8l2.2,1.8
				c-0.2,0.2-0.4,0.3-0.9,0.4c-0.3,2.6-0.8,4.2-1.8,4.8c-0.6,0.4-1.5,0.6-2.5,0.6c0-0.6-0.1-1.2-0.4-1.5s-1.1-0.6-1.9-0.7v-0.4
				c0.9,0.1,2.3,0.2,2.7,0.2c0.4,0,0.6,0,0.7-0.2c0.4-0.3,0.7-1.5,0.9-3.2h-6.1V25c0,0.1-0.7,0.6-1.9,0.6h-0.4v-5.4
				c-2.3,2.2-5.6,3.8-9.5,4.9l-0.2-0.3c3.4-1.5,6.4-3.7,8.2-6.2h-3.8l-0.9,1l-2.1-1.4c0.2-0.2,0.6-0.4,0.9-0.5
				c0.3-1.3,0.7-3.3,0.8-4.5l2.5,1.2h4.1v-2.8h-7.8l-0.2-0.7h15.1l1.1-1.1l2.2,1.7c-0.1,0.2-0.5,0.4-0.9,0.5v3.6
				c0,0.2-1.1,0.6-1.8,0.6h-0.4v-1h-5v2.8h5.9L119.6,16.8z M110.2,17.9V15h-4.7c-0.2,0.9-0.4,2-0.6,2.8H110.2z M105.8,7.4
				c4.4,0.6,2.7,3.8,1.1,2.5c-0.1-0.9-0.7-1.8-1.4-2.4L105.8,7.4z M120.1,4.7c0,0,1.3,1,2.2,1.8c-0.1,0.3-0.3,0.4-0.6,0.4h-7.6
				c-1,1.3-2.2,2.3-3.5,3.1l-0.3-0.2c1.2-1.5,2.3-3.9,3-6.3l3,1.1c-0.1,0.3-0.4,0.4-0.9,0.4c-0.2,0.4-0.5,0.9-0.8,1.3h4.3L120.1,4.7
				z M112.5,14.3h5v-2.8h-5V14.3z M115.1,7.4c4.6,0.4,3,3.7,1.2,2.5c-0.1-0.8-0.8-1.8-1.4-2.3L115.1,7.4z"/>
			<path class="st0" d="M140.5,13.5l1.8-2.4c0,0,2,1.7,3.2,2.8c-0.1,0.3-0.4,0.4-0.7,0.4h-21l-0.2-0.8H140.5z"/>
			<path class="st0" d="M156.7,17.9c-1.4,0.7-3.3,1.6-5.8,2.7V25c0,0.2-0.6,0.7-1.8,0.7h-0.3v-4.1l-0.7,0.3
				c-0.1,0.3-0.3,0.5-0.6,0.6l-1.3-2.6c0.6-0.1,1.5-0.3,2.6-0.5V5.2l2.2,1c1.1-0.8,2.3-1.7,3.2-2.6l2.5,2c-0.2,0.2-0.4,0.2-0.9,0.1
				c-1.5,0.5-3.4,1-5,1.3v3.3h1.9l1.2-1.5c0,0,1.3,1.1,2.2,1.8c-0.1,0.3-0.3,0.4-0.6,0.4h-4.6v3.6h1.9l1.2-1.6c0,0,1.4,1.1,2.2,1.9
				c-0.1,0.3-0.3,0.4-0.6,0.4h-4.7v3.4c1.7-0.4,3.7-0.8,5.7-1.3L156.7,17.9z M167.2,15.1c-0.2,0.2-0.4,0.3-1,0.3
				c-0.8,2-2,3.9-3.5,5.4c1.7,1.3,3.8,2.1,6.2,2.7l0,0.3c-0.9,0.2-1.7,0.9-2,1.9c-2.2-0.9-4-2.1-5.5-3.6c-2.1,1.6-4.8,2.9-8.2,3.7
				l-0.2-0.3c3.1-1.1,5.6-2.7,7.4-4.6c-1.1-1.5-1.8-3.4-2.4-5.7h-1.5l-0.2-0.7h7.5l1.3-1.3L167.2,15.1z M155.5,13.6
				c2-1.8,2.2-4.2,2.2-6.2V4.4l2.4,0.9h2.6l1.1-1.2l2.1,1.7c-0.2,0.2-0.5,0.3-0.9,0.4v4c0,0.3,0,0.3,0.3,0.3h0.5h0.6
				c0.1,0,0.3,0,0.4,0c0.1,0,0.3,0,0.5-0.1h0.2l0.1,0c0.5,0.2,0.7,0.4,0.7,0.8c0,0.8-0.7,1.2-2.7,1.2h-1c-1.5,0-1.7-0.5-1.7-1.7V6
				h-3.1v1.4c0,1.9-0.4,4.8-4.1,6.5L155.5,13.6z M158.5,15c0.6,1.8,1.6,3.4,2.9,4.6c1.1-1.4,1.9-2.9,2.5-4.6H158.5z"/>
			<path class="st0" d="M56.6,39.2c-0.2,0.2-0.5,0.4-1,0.5v8c0,0.2-1.2,0.6-2,0.6h-0.4v-2h-6v8.4c0,0.3-1,0.9-1.9,0.9h-0.5v-9.2h-6
				v1.5c0,0.2-1,0.8-2,0.8h-0.4v-11l2.5,1.1h5.8v-5.1l3.2,0.3c-0.1,0.3-0.2,0.6-0.9,0.7v4.1H53l1.2-1.3L56.6,39.2z M44.9,45.6v-6.3
				h-6v6.3H44.9z M53.2,45.6v-6.3h-6v6.3H53.2z"/>
			<path class="st0" d="M77.5,51.7c0,0,1.7,1.3,2.7,2.2c-0.1,0.3-0.3,0.4-0.7,0.4H58.4l-0.2-0.7h3.5V41.4l3.3,0.3
				c-0.1,0.3-0.3,0.5-0.9,0.6v11.3h4.2V36.5h-8.8l-0.2-0.7h15.9l1.5-1.9c0,0,1.7,1.3,2.7,2.2c-0.1,0.3-0.3,0.4-0.6,0.4h-8v7.6h3.6
				l1.5-1.8c0,0,1.6,1.3,2.6,2.2c-0.1,0.3-0.3,0.4-0.7,0.4h-7v8.8H76L77.5,51.7z"/>
			<path class="st0" d="M99.3,39.4c-0.9,3.9-2.6,7.2-5.3,9.9c2.7,1.9,5.9,3.1,9.5,3.9l-0.1,0.3c-1.1,0.1-2,0.8-2.4,2
				c-3.4-1-6.3-2.6-8.6-4.7c-2.7,2.1-6.3,3.7-10.9,4.8l-0.2-0.3c4.2-1.4,7.5-3.3,9.9-5.7c-2.2-2.5-3.9-5.8-4.8-10.1h-4.7l-0.2-0.7
				H99l1.5-1.9c0,0,1.7,1.3,2.7,2.2c-0.1,0.3-0.3,0.4-0.7,0.4H99.3z M86.9,39.4c1.1,3.7,3,6.5,5.5,8.7c2.1-2.5,3.4-5.4,4.1-8.7H86.9
				z M89.9,33.5c6.7,1.2,4.9,6,2.6,4.4c-0.3-1.5-1.6-3.2-2.8-4.2L89.9,33.5z"/>
			<path class="st0" d="M124.7,39.4c-0.5,3.7-1.3,6.8-3.1,9.5c1.3,1.8,3.1,3.3,5.3,4.4l-0.1,0.2c-1,0.2-1.7,0.8-2,1.8
				c-1.9-1.3-3.3-3-4.4-5c-1.9,2.2-4.5,3.9-8.2,5.1l-0.2-0.3c3.6-1.8,5.9-4,7.5-6.7c-0.7-1.9-1.2-3.9-1.6-6.2
				c-0.8,1.5-1.8,2.7-2.8,3.8l-0.3-0.2c0.7-1.4,1.4-3.2,2-5.1c-0.1,0.2-0.3,0.2-0.6,0.2h-3.7c-0.7,0.9-1.5,1.7-2.3,2.5h2l1.1-1.1
				l2,1.8c-0.2,0.2-0.5,0.2-0.9,0.3c-0.7,0.5-1.6,1.1-2.6,1.6l0.6,0.1c0,0.3-0.3,0.5-0.8,0.6v1.1c1.4-0.2,3-0.4,4.5-0.7l0.1,0.4
				c-1.3,0.4-2.8,0.9-4.6,1.5v3.7c0,1.6-0.3,2.5-3,2.7c-0.1-0.7-0.2-1.2-0.5-1.5c-0.4-0.3-0.9-0.6-2-0.8v-0.3c0,0,2.4,0.1,2.9,0.1
				c0.4,0,0.5-0.1,0.5-0.4v-3c-1.1,0.3-2.3,0.7-3.6,1c-0.1,0.3-0.4,0.5-0.6,0.5l-1-2.5c1.1-0.1,2.9-0.3,5.1-0.6v-2.3l1.3,0.1
				c0.4-0.5,0.9-1.2,1.2-1.7h-2.6c-1.6,1.4-3.3,2.6-5.3,3.6l-0.3-0.3c1.4-1,2.7-2.1,3.9-3.4h-2.4l-0.2-0.7h3.3
				c0.7-0.8,1.4-1.6,2-2.5h-6.2l-0.2-0.7h4.3v-3h-3.1l-0.2-0.7h3.3v-3.1l3,0.3c0,0.4-0.3,0.6-0.9,0.7v2.2h0.2l1-1.4
				c0,0,0.8,0.6,1.5,1.3c0.5-0.9,0.9-1.8,1.2-2.6l2.7,1.3c-0.1,0.3-0.4,0.4-1,0.3c-0.8,1.6-1.8,3.3-3.1,4.9h0.8l1.1-1.4
				c0,0,1.1,1,1.9,1.7c0.7-2.2,1.2-4.6,1.5-7.1l3.3,0.8c-0.1,0.3-0.4,0.5-0.9,0.5c-0.3,1.3-0.7,2.6-1.2,3.8h3.3l1.3-1.7
				c0,0,1.5,1.2,2.4,2c-0.1,0.3-0.3,0.4-0.6,0.4H124.7z M111.2,40.3c0.7-1,1.3-2,1.9-3h-2.3v3H111.2z M119.4,39.4
				c-0.3,0.7-0.6,1.5-1,2.1c0.4,2,1.1,3.8,1.9,5.4c1-2.3,1.6-4.8,1.8-7.6H119.4z"/>
			<path class="st0" d="M146.8,51.7c0,0,1.7,1.3,2.7,2.2c-0.1,0.3-0.3,0.4-0.7,0.4h-21.2l-0.2-0.7h3.5V41.4l3.3,0.3
				c-0.1,0.3-0.3,0.5-0.9,0.6v11.3h4.2V36.5h-8.8l-0.2-0.7h15.9l1.5-1.9c0,0,1.7,1.3,2.7,2.2c-0.1,0.3-0.3,0.4-0.6,0.4h-8v7.6h3.6
				l1.5-1.8c0,0,1.6,1.3,2.6,2.2c-0.1,0.3-0.3,0.4-0.7,0.4h-7v8.8h5.3L146.8,51.7z"/>
			<path class="st0" d="M156.2,42.1c4.9,2.3,3,5.8,1.4,4.3c-0.1-1.1-0.7-2.6-1.4-3.7v12.1c0,0.2-0.9,0.7-1.7,0.7h-0.5V45.4
				c-0.9,1.8-2.1,3.4-3.5,4.8l-0.3-0.3c1.8-2.8,2.9-6.5,3.5-10.1h-3l-0.2-0.7h3.5v-5.7l3,0.3c-0.1,0.4-0.2,0.6-0.9,0.7v4.7h0.5
				l1.1-1.5c0,0,1.2,1,2,1.8c-0.1,0.3-0.3,0.4-0.6,0.4h-3V42.1z M157,55.1c5.2-2.3,9.7-5.5,12.9-11.1l2.8,1.6
				c-0.2,0.2-0.5,0.3-1,0.2c-1.2,1.6-2.4,3-3.8,4.1c6.7,2.2,5,6.7,2.7,5.1c-0.5-1.5-1.9-3.3-3.2-4.6c-2.9,2.4-6.3,4-10.2,5.1
				L157,55.1z M158.8,38.3l-0.2-0.7h10.5l1.3-1.7c0,0,1.4,1.2,2.3,2c0,0.3-0.3,0.4-0.6,0.4h-7.2l1.8,0.7c-0.1,0.2-0.4,0.5-0.9,0.4
				c-1.1,1.3-2.8,2.8-4.4,4c1.3,0,3-0.1,4.8-0.2c0.7-1,1.4-2,2-3.2l2.7,1.4c-0.1,0.3-0.4,0.3-1,0.2c-3.1,4.5-7.1,7.4-12.1,9.3
				l-0.2-0.4c3-1.7,5.7-3.8,8-6.6c-1.3,0.4-2.8,0.8-4.5,1.2c-0.2,0.3-0.4,0.5-0.6,0.5l-0.9-2.4c0,0,0.5-0.1,0.6-0.2
				c1.2-0.9,2.7-3.3,3.4-4.8H158.8z M163.4,33.3c5.7,1.2,3.7,5.3,1.6,3.7c-0.2-1.2-1.1-2.7-1.8-3.6L163.4,33.3z"/>
			<path class="st0" d="M176.9,40.6c1.4,4.2,0.6,7.2-0.4,8.7c-0.7,1-1.8,1.3-2.5,0.7c-0.5-0.5-0.3-1.3,0.2-1.9
				c1.2-1.2,2.4-4.2,2.3-7.4L176.9,40.6z M182.8,38c0,0.3-0.3,0.6-0.8,0.6v12.6c0,0.6,0.3,0.8,1.4,0.8h3.1c1.3,0,2.2,0,2.7,0
				c0.4,0,0.6-0.1,0.7-0.4c0.3-0.5,0.7-2,1.1-3.8h0.3l0.1,4c0.8,0.3,1,0.5,1,1c0,1.1-1.1,1.6-6,1.6h-3.2c-2.6,0-3.4-0.5-3.4-2.4
				V37.7L182.8,38z M186.5,40.3c-0.4-2.1-2.1-4.7-3.5-6.4l0.3-0.2C190.7,36.8,188.9,42.1,186.5,40.3z M193.6,49.6
				c-0.3-2.2-1-5.8-3-8.3l0.2-0.2C198.4,46,195.6,52,193.6,49.6z"/>
		</g>
	</g>
	<line class="st1" x1="29.5" y1="33.7" x2="0.5" y2="55.5"/>
	<line class="st1" x1="204.7" y1="4.9" x2="175.6" y2="26.7"/>
	<g>
		<g>
			<path class="st0" d="M21.5,136.9v4.1H1.2v-3.2c2.6-2.7,5.2-5.4,7.3-7.6c4.9-5.2,6.9-8.6,6.9-12.7s-2.2-6.6-5.8-6.6
				c-0.7,0-1.5,0.1-2.4,0.3l-1,3.7c-0.5,2.4-1.5,3.1-2.8,3.1c-1.1,0-1.9-0.6-2.4-1.5c0.6-4.9,5-7.4,10-7.4c6.3,0,9.2,3.4,9.2,8.3
				c0,4.2-2.7,7.7-10.2,14.2c-1.4,1.2-3.4,3.1-5.6,5.1H21.5z"/>
			<path class="st0" d="M31.7,114.5c-0.4,2-1.3,2.8-2.8,2.8c-1,0-1.8-0.4-2.3-1.5c0.7-4.5,4.6-6.5,9.2-6.5c5.9,0,9.3,3.2,9.3,7.6
				c0,3.6-2.3,6.5-7.1,7.8c5.6,0.9,8.1,3.9,8.1,8c0,5.3-4.3,9.1-11,9.1c-5.3,0-8.8-2.2-9.5-7c0.5-1.1,1.3-1.6,2.4-1.6
				c1.5,0,2.1,0.9,2.7,3.2l0.8,3.2c0.9,0.2,1.7,0.3,2.5,0.3c4.7,0,7.2-2.6,7.2-7.1s-2.5-7.1-7.4-7.1h-2.1v-1.9h1.8
				c4.2,0,6.9-2.4,6.9-6.8c0-3.8-2.1-6-5.8-6c-0.7,0-1.4,0-2.2,0.2L31.7,114.5z"/>
			<path class="st0" d="M52.2,140.6c8.2-2.8,12.2-7.2,13.3-14.1c-1.6,1.4-3.8,2.2-6.3,2.2c-5.3,0-9.5-3.5-9.5-9.5
				c0-6.2,4.6-10,10.5-10c6.6,0,10.5,4.9,10.5,12.8c0,9.4-6,17.2-18.2,19.9L52.2,140.6z M65.7,124.7c0-0.8,0.1-1.6,0.1-2.5
				c0-7.9-2.3-11.2-5.7-11.2c-3,0-5.6,2.5-5.6,7.6c0,5.2,2.7,7.8,6.3,7.8C62.8,126.4,64.3,125.9,65.7,124.7z"/>
			<path class="st0" d="M95.2,109.9v2.6L84,141.1h-4.5l-0.4-0.4L92.5,114H75.3v-4.1H95.2z"/>
			<path class="st0" d="M99.5,122.5h11.6v2.9H99.5V122.5z"/>
			<path class="st0" d="M134.8,139.7v1.4h-18.1v-1.4l6.7-0.9c0-2.6,0.1-5.3,0.1-7.9v-17.8l-6.1,0.7v-1.7l10.3-2.5l0.6,0.5l-0.1,6.9
				v14c0,2.6,0,5.2,0.1,7.9L134.8,139.7z"/>
			<path class="st0" d="M160.2,133.4c0,4.9-4.2,8.3-10.4,8.3c-6.2,0-9.9-2.8-9.9-7.5c0-3.6,2.5-6.1,7.1-8.1
				c-4.2-2.2-6.2-5.1-6.2-8.6c0-5,4.2-8.2,9.4-8.2c5.5,0,8.7,3.2,8.7,7.3c0,2.5-1.5,5.3-6,7.6C157.9,126.6,160.2,129.2,160.2,133.4z
				 M155.8,134.3c0-2.9-1.8-5-7.4-7.6c-2.8,1.9-4.2,3.8-4.2,6.9c0,4,2.3,6.4,6,6.4C153.6,140,155.8,137.7,155.8,134.3z M151.5,123.5
				c2.5-2.1,3.5-4.1,3.5-6.8c0-3.2-1.7-5.6-4.8-5.6c-2.7,0-5.1,1.9-5.1,5C145,118.7,146.3,121,151.5,123.5z"/>
			<path class="st0" d="M184.9,133.4c0,4.9-4.2,8.3-10.4,8.3c-6.2,0-9.9-2.8-9.9-7.5c0-3.6,2.5-6.1,7.1-8.1
				c-4.2-2.2-6.2-5.1-6.2-8.6c0-5,4.2-8.2,9.4-8.2c5.5,0,8.7,3.2,8.7,7.3c0,2.5-1.5,5.3-6,7.6C182.6,126.6,184.9,129.2,184.9,133.4z
				 M180.5,134.3c0-2.9-1.8-5-7.4-7.6c-2.8,1.9-4.2,3.8-4.2,6.9c0,4,2.3,6.4,6,6.4C178.3,140,180.5,137.7,180.5,134.3z M176.2,123.5
				c2.5-2.1,3.5-4.1,3.5-6.8c0-3.2-1.7-5.6-4.8-5.6c-2.7,0-5.1,1.9-5.1,5C169.7,118.7,171,121,176.2,123.5z"/>
			<path class="st0" d="M209.6,133.4c0,4.9-4.2,8.3-10.4,8.3c-6.2,0-9.9-2.8-9.9-7.5c0-3.6,2.5-6.1,7.1-8.1
				c-4.2-2.2-6.2-5.1-6.2-8.6c0-5,4.2-8.2,9.4-8.2c5.5,0,8.7,3.2,8.7,7.3c0,2.5-1.5,5.3-6,7.6C207.3,126.6,209.6,129.2,209.6,133.4z
				 M205.2,134.3c0-2.9-1.8-5-7.4-7.6c-2.8,1.9-4.2,3.8-4.2,6.9c0,4,2.3,6.4,6,6.4C203,140,205.2,137.7,205.2,134.3z M200.9,123.5
				c2.5-2.1,3.5-4.1,3.5-6.8c0-3.2-1.7-5.6-4.8-5.6c-2.7,0-5.1,1.9-5.1,5C194.4,118.7,195.7,121,200.9,123.5z"/>
		</g>
	</g>
	<g>
		<g>
			<path class="st0" d="M113.1,94.6v2.6h-12.7v-2c1.6-1.7,3.2-3.4,4.6-4.8c3.1-3.2,4.3-5.4,4.3-7.9s-1.4-4.1-3.6-4.1
				c-0.4,0-0.9,0.1-1.5,0.2l-0.6,2.3c-0.3,1.5-0.9,1.9-1.7,1.9c-0.7,0-1.2-0.4-1.5-1c0.4-3,3.1-4.6,6.3-4.6c3.9,0,5.8,2.1,5.8,5.2
				c0,2.6-1.7,4.8-6.4,8.9c-0.8,0.8-2.1,1.9-3.5,3.2H113.1z"/>
			<path class="st0" d="M119.5,85.7c0,4.3-0.3,9.8-4.8,13.5l-0.3-0.2c2.6-3.9,2.9-8.7,2.9-13.2v-7.2l2.1,0.8
				c4.6-0.5,10.2-1.5,13.3-2.4l2.2,2.3c-0.3,0.2-0.8,0.2-1.5-0.1c-3.7,0.4-9.2,0.7-13.9,0.7v1.7H132l1.1-1.2l2.4,1.8
				c-0.1,0.2-0.5,0.4-0.9,0.5v3.4c0,0.2-1.2,0.6-1.9,0.6h-0.4v-0.9L119.5,85.7L119.5,85.7z M133.9,87.4c0,0,1.4,1.1,2.3,1.9
				c-0.1,0.3-0.3,0.4-0.6,0.4h-9c-0.1,0.8-0.2,1.6-0.4,2.4h5.2l1.2-1.1l2.2,1.8c-0.1,0.2-0.5,0.3-0.9,0.4c-0.3,2.8-0.8,4.7-1.8,5.3
				c-0.7,0.4-1.6,0.7-2.7,0.7c0-0.6-0.1-1.2-0.4-1.5c-0.4-0.3-1.2-0.6-2.2-0.8v-0.3c1,0.1,2.6,0.2,3.1,0.2c0.4,0,0.6,0,0.8-0.2
				c0.4-0.3,0.8-1.7,1-3.7h-5.6c-0.8,2.5-2.7,4.8-7.5,6.5l-0.2-0.4c5.1-2.8,5.7-6,5.8-9.2h-3.8L120,89h7.7c-0.2,0-0.4-0.1-0.6-0.2
				c-0.2-0.9-0.9-1.9-1.5-2.5l0.2-0.1c4.1,0.3,3.6,2.7,2.3,2.9h4.6L133.9,87.4z M119.5,82.2v2.7h12.7v-2.7H119.5z"/>
			<path class="st0" d="M139.7,82.5c-0.5,0.5-1,1-1.5,1.4l-0.3-0.2c1.2-1.6,2.4-4.2,3.1-6.8l2.6,0.9c-0.1,0.3-0.4,0.5-0.9,0.5
				c-0.3,0.6-0.6,1.2-1,1.7l0.3,0.1h4.3l1-1.2c0,0,1.1,0.9,1.8,1.5c0,0.3-0.3,0.4-0.6,0.4h-3v2.1h0.7l0.9-1.1c0,0,0.8,0.6,1.4,1.2
				c1-1.6,1.9-3.8,2.4-6.1l2.6,0.9c-0.1,0.3-0.4,0.5-0.9,0.5c-0.3,0.6-0.6,1.2-0.9,1.7l0.4,0.1h4.8l1-1.2c0,0,1.2,0.9,1.9,1.5
				c-0.1,0.3-0.3,0.4-0.6,0.4H156v2.1h0.8l0.9-1.1c0,0,1.1,0.8,1.7,1.4c0,0.3-0.3,0.4-0.6,0.4H156v2.2h0.8l0.9-1.1
				c0,0,1,0.8,1.7,1.4c-0.1,0.3-0.3,0.4-0.6,0.4H156v2.1h1.3l1-1.3c0,0,1.2,0.9,1.9,1.6c-0.1,0.3-0.3,0.4-0.6,0.4h-7.8v0.3
				c0,0.2-0.6,0.6-1.6,0.6h-0.3v-7.6c-0.4,0.5-0.9,0.9-1.4,1.2l-0.3-0.2h-0.1h-2.5v2.2h0.7l0.9-1.1c0,0,1,0.8,1.6,1.4
				c-0.1,0.3-0.3,0.4-0.6,0.4h-2.6v2.1h1.1l1-1.3c0,0,1.2,0.9,1.9,1.6c-0.1,0.3-0.3,0.4-0.6,0.4h-7.2v0.4c0,0.1-0.6,0.6-1.6,0.6
				h-0.3V82.5z M157.5,91.6c-0.2,0.2-0.5,0.3-1.1,0.3c-1.3,1.4-2.9,2.6-4.7,3.6c2.8,0.7,5.8,1.1,8.9,1.2l0,0.3c-1,0.3-1.6,1-1.9,2.2
				c-3.5-0.5-6.7-1.3-9.4-2.5c-3.2,1.3-6.9,2.1-11,2.5l-0.1-0.4c3.4-0.6,6.7-1.7,9.5-3c-1.8-1.1-3.3-2.5-4.5-4.3h-4.1l-0.2-0.7h15
				l1.5-1.3L157.5,91.6z M141.7,80.8v2.1h2v-2.1H141.7z M143.7,83.5h-2v2.2h2V83.5z M143.7,86.4h-2v2.1h2V86.4z M143.1,76.9
				c4.6,0.7,2.9,4.1,1.2,2.8c-0.1-0.9-0.8-2-1.4-2.6L143.1,76.9z M143.8,91.4c1.4,1.4,3.3,2.6,5.6,3.4c1.7-1,3.1-2.1,4.2-3.4H143.8z
				 M151.8,80.8v2.1h2.2v-2.1H151.8z M154.1,83.5h-2.2v2.2h2.2V83.5z M154.1,86.4h-2.2v2.1h2.2V86.4z M153.5,76.8
				c4.6,0.7,2.9,4.1,1.2,2.8c-0.1-0.9-0.7-2-1.4-2.6L153.5,76.8z"/>
			<path class="st0" d="M169.8,86.7c-0.8,0.5-1.9,1.2-3.2,2v7.8c0,1.6-0.3,2.5-2.8,2.8c0-0.6-0.2-1.2-0.5-1.5
				c-0.3-0.4-0.8-0.6-1.7-0.7v-0.4c0,0,2,0.1,2.4,0.1c0.4,0,0.5-0.1,0.5-0.4v-6.4c-0.6,0.3-1.2,0.6-1.8,1c-0.1,0.3-0.3,0.6-0.6,0.6
				l-1-2.7c0.7-0.1,1.9-0.5,3.4-0.9v-4.8h-2.8l-0.2-0.7h3v-5.6l3,0.3c-0.1,0.3-0.3,0.6-0.9,0.6v4.6h0.3l1.1-1.7c0,0,1.2,1.2,1.9,2
				c-0.1,0.3-0.3,0.4-0.6,0.4h-2.7v4.2c1-0.3,2-0.6,3.1-0.9L169.8,86.7z M177.8,89.7c1.4,2.6,4,4.6,6.5,5.6l0,0.2
				c-0.9,0.2-1.5,0.9-1.9,2c-2.4-1.6-4-4.3-5.1-7.7v8.7c0,0.2-1,0.6-1.8,0.6h-0.4v-6.9c-1.7,2.2-4.1,4.1-7,5.4l-0.2-0.3
				c2.8-1.9,4.9-4.7,6.2-7.6h-4.7L169,89h6v-3l3,0.3c0,0.3-0.2,0.6-0.8,0.6v2h3l1.3-1.7c0,0,1.5,1.2,2.4,2c-0.1,0.3-0.3,0.4-0.6,0.4
				H177.8z M183,79.2c-0.2,0.2-0.7,0.2-1.4,0c-3,0.6-7.8,1.1-11.9,1.2l-0.1-0.4c3.8-0.6,8.7-1.8,11.1-2.9L183,79.2z M170.3,81.3
				c5.1,2.2,2.8,6,1,4.2c0-1.3-0.6-3-1.3-4.1L170.3,81.3z M174.6,80.6c5.1,2.1,2.8,5.9,1,4.2c0-1.4-0.6-3-1.2-4.1L174.6,80.6z
				 M178.4,86.7c0.8-1.5,1.7-4,2.4-6.3l3,1.1c-0.1,0.3-0.4,0.5-0.9,0.4c-1.2,1.9-2.7,3.8-4.1,5L178.4,86.7z"/>
			<path class="st0" d="M206.6,96.1c0.7,0.3,0.8,0.5,0.8,1c0,1-0.9,1.4-4.9,1.4h-2.5c-2.2,0-2.8-0.5-2.8-2.2V87h-2.9
				c-0.5,6.2-2.5,10.1-9.5,12.2l-0.1-0.3c5.4-2.7,6.8-6.5,7-11.9h-6.7l-0.2-0.7h10v-9.4l3.2,0.3c0,0.3-0.3,0.6-0.9,0.7v8.4h6
				l1.5-1.8c0,0,1.6,1.2,2.6,2.1c-0.1,0.3-0.3,0.4-0.7,0.4h-7v0.4v8.5c0,0.4,0.1,0.6,0.9,0.6h2.2c0.9,0,1.6,0,1.9,0
				c0.3,0,0.4-0.1,0.6-0.4c0.2-0.5,0.6-2.1,1-3.8h0.3L206.6,96.1z M187.4,78.4c7,3.1,4.9,8.2,2.5,6.2c-0.2-2-1.5-4.4-2.8-6
				L187.4,78.4z M205.8,79.7c-0.1,0.3-0.5,0.4-1,0.4c-1.6,1.9-3.5,3.9-5.3,5.1l-0.3-0.2c1-1.6,2.3-4.3,3.3-6.7L205.8,79.7z"/>
		</g>
	</g>
	<g>
		<g>
			<path class="st0" d="M76.3,92.3c1.1-0.4,2.2-0.8,3.4-1.2l0.1,0.3c-1.6,1.1-3.9,2.7-7.1,4.6c-0.1,0.3-0.3,0.6-0.6,0.7L70.8,94
				c0.7-0.2,1.8-0.5,3.2-1v-8h-2.7l-0.2-0.7h2.9V78l3.1,0.3c0,0.3-0.2,0.6-0.9,0.6v5.4h0.4l1.1-1.8c0,0,1.3,1.3,2,2.1
				c0,0.3-0.3,0.4-0.6,0.4h-2.9V92.3z M91.3,87.7c0,0,1.6,1.3,2.5,2.1c0,0.3-0.3,0.4-0.6,0.4h-6.4v8.8c0,0.1-0.7,0.6-1.9,0.6h-0.4
				v-9.4h-6.5l-0.2-0.7h6.7v-9.5h-5.7l-0.2-0.7h11l1.3-1.7c0,0,1.5,1.2,2.4,2c-0.1,0.3-0.3,0.4-0.6,0.4h-5.9v9.5h3.2L91.3,87.7z
				 M80,81.4c5.1,3.9,3,8.3,1,6.3c0-2-0.7-4.4-1.3-6.2L80,81.4z M87.7,88.2c0.6-1.8,1.3-4.5,1.8-6.9l3.2,1c-0.1,0.3-0.4,0.5-0.9,0.5
				c-1.1,2-2.4,4.1-3.8,5.6L87.7,88.2z"/>
		</g>
	</g>
	<g>
		<path class="st0" d="M15.6,94.4V97H3v-2c1.6-1.7,3.2-3.4,4.6-4.8c3.1-3.2,4.3-5.4,4.3-7.9s-1.4-4.1-3.6-4.1
			c-0.4,0-0.9,0.1-1.5,0.2l-0.6,2.3c-0.3,1.5-0.9,1.9-1.7,1.9c-0.7,0-1.2-0.4-1.5-1c0.4-3,3.1-4.6,6.3-4.6c3.9,0,5.8,2.1,5.8,5.2
			c0,2.6-1.7,4.8-6.4,8.9C7.6,92,6.4,93.2,5,94.4H15.6z"/>
		<path class="st0" d="M31.1,91.5H28V97h-2.8v-5.6h-8.1v-1.6l8.9-12.4h2v12h3.1V91.5z M25.2,89.4v-9.3l-6.6,9.3H25.2z"/>
		<path class="st0" d="M53.6,94.4V97H40.9v-2c1.6-1.7,3.2-3.4,4.6-4.8c3.1-3.2,4.3-5.4,4.3-7.9s-1.4-4.1-3.6-4.1
			c-0.4,0-0.9,0.1-1.5,0.2L44,80.8c-0.3,1.5-0.9,1.9-1.7,1.9c-0.7,0-1.2-0.4-1.5-1c0.4-3,3.1-4.6,6.3-4.6c3.9,0,5.8,2.1,5.8,5.2
			c0,2.6-1.7,4.8-6.4,8.9c-0.8,0.8-2.1,1.9-3.5,3.2H53.6z"/>
		<path class="st0" d="M67.5,77.9c-5.6,1.3-8.4,4.4-9,9c1.2-1.2,2.8-1.9,4.5-1.9c3.3,0,5.5,2.4,5.5,6c0,4-2.6,6.4-6.3,6.4
			c-4.2,0-6.8-3.1-6.8-8.4c0-6,4.5-11,12-11.9L67.5,77.9z M65.4,91.3c0-3.2-1.3-4.6-3.4-4.6c-1.2,0-2.5,0.3-3.6,1.3
			c0,0.2,0,0.4,0,0.7c0,5.2,1.4,7.7,3.7,7.7C64.1,96.3,65.4,94.7,65.4,91.3z"/>
	</g>
	<circle class="st0" cx="36.5" cy="87.9" r="1.1"/>
	<path class="st2" d="M127.7,162.7v4.4l-0.2,0.4h4.2l-0.2-0.4v-12l0.2-0.4h-13.3l0.2,0.4v12l-0.2,0.4h4.2l-0.2-0.4v-4.4
		c0-1.4,1.1-2.7,2.7-2.7C126.6,160,127.7,161.3,127.7,162.7L127.7,162.7z"/>
	<g>
		<path class="st0" d="M141.5,156.3v9.7c0,0.1-0.3,0.3-0.8,0.3h-0.2v-3c-0.6,0.3-1.4,0.8-2.3,1.3c0,0.1-0.2,0.3-0.3,0.3l-0.5-1.3
			c0.2,0,0.4-0.1,0.7-0.1v-7.1h-0.7l-0.1-0.3h3.4l0.6-0.8c0,0,0.7,0.5,1.2,0.9c0,0.1-0.2,0.2-0.3,0.2H141.5z M140.6,156.3h-1.4v2
			h1.4V156.3z M140.6,158.6h-1.4v2.1h1.4V158.6z M139.2,163.2c0.4-0.1,0.9-0.2,1.4-0.3V161h-1.4V163.2z M144,160.5l1.3,0.1
			c0,0.2-0.1,0.3-0.4,0.3v1.6c0,1.4-0.5,2.8-2.9,3.7l-0.1-0.2c1.4-0.7,1.9-1.7,2-2.7h-0.8l-0.3,0.5l-1-0.7c0.1-0.1,0.2-0.2,0.3-0.3
			v-2.2l1.3,0.1c0,0.1-0.1,0.3-0.5,0.3v1.9h0.9c0-0.2,0-0.3,0-0.5V160.5z M147.4,158.4c2,1.1,1.2,2.5,0.5,1.9c0-0.2,0-0.4-0.1-0.6
			c-0.5,0.2-1.3,0.4-2.1,0.7c-0.1,0-0.1,0.1-0.2,0.1l-0.3-0.8c0.1,0.6-0.3,1-0.8,0.6c0-0.2,0-0.3-0.1-0.5c-0.5,0.2-1.3,0.4-2.1,0.7
			c0,0-0.1,0.1-0.1,0.1l-0.3-1c0,0,0.2,0,0.3-0.1c0.4-0.3,0.8-0.9,1.2-1.4c-0.3,0.1-0.6,0.2-0.9,0.3c-0.1,0.1-0.1,0.1-0.2,0.1
			l-0.4-1c0,0,0.2,0,0.3-0.1c0.5-0.5,1.1-1.8,1.3-2.4l1.2,0.6c0,0.1-0.2,0.2-0.4,0.2c-0.4,0.6-1,1.3-1.6,1.8c0.3,0,0.7,0,1.1,0
			c0.3-0.5,0.5-0.9,0.7-1.3l1.1,0.8c0,0.1-0.2,0.2-0.4,0.1c-0.5,0.7-1.5,1.8-2.4,2.5c0.5,0,1.1-0.1,1.7-0.1c-0.1-0.4-0.3-0.7-0.4-1
			l0.2-0.1c0.6,0.4,0.9,0.8,1.1,1.1c0,0,0.2,0,0.3-0.1c0.4-0.3,0.8-0.9,1.2-1.5c-0.3,0.1-0.7,0.2-1,0.3c-0.1,0.1-0.1,0.1-0.2,0.2
			l-0.4-1c0,0,0.2,0,0.2-0.1c0.5-0.5,1-1.8,1.2-2.5l1.2,0.6c0,0.1-0.2,0.2-0.4,0.2c-0.4,0.6-1,1.3-1.5,1.8c0.3,0,0.7,0,1.2,0
			c0.3-0.5,0.5-0.9,0.6-1.2l1.1,0.7c-0.1,0.1-0.2,0.2-0.4,0.1c-0.5,0.7-1.4,1.7-2.2,2.5c0.5,0,1.1-0.1,1.7-0.1
			c-0.1-0.4-0.3-0.7-0.4-1L147.4,158.4z M148.7,161c0,0.2-0.1,0.3-0.4,0.3v2.5c0,0.1-0.4,0.3-0.7,0.3h-0.2v-0.6h-1v2.5
			c0,0.1-0.4,0.3-0.8,0.3h-0.2v-5.7l1.4,0.1c0,0.2-0.1,0.3-0.4,0.3v2.1h1v-2.2L148.7,161z"/>
		<path class="st0" d="M159.9,155.2c0,0,0.7,0.6,1.2,1c0,0.1-0.1,0.2-0.3,0.2h-2.5c-0.3,0.5-0.7,1-1,1.4h1.8l0.6-0.6l1.1,0.9
			c-0.1,0.1-0.2,0.2-0.5,0.2v5.2c0,0.1-0.4,0.3-0.9,0.3h-0.2v-0.4h-2.9v0.4c0,0.1-0.3,0.3-0.9,0.3h-0.2v-6.7l1.2,0.5h0.4
			c0.1-0.4,0.1-1,0.2-1.4h-2.1c-0.1,0.1-0.2,0.1-0.3,0.1h-2c-0.2,1.1-0.4,2.1-0.8,3l0.2,0.1h1l0.5-0.6l1.1,0.9
			c-0.1,0.1-0.3,0.2-0.5,0.3v4.6c0,0.1-0.5,0.3-0.9,0.3h-0.2v-0.8H152v1.2c0,0.1-0.3,0.3-0.9,0.3H151v-4.4c-0.3,0.5-0.7,1-1,1.4
			l-0.2-0.1c1-1.7,1.5-3.9,1.8-6.1h-1.6l-0.1-0.3h3.3l0.7-0.8c0,0,0.5,0.4,0.9,0.7h4.5L159.9,155.2z M152,159.9v3.9h1.3v-3.9H152z
			 M153.5,166.1c1-0.5,2.2-1.4,3.1-2.4l1.2,0.8c-0.1,0.1-0.2,0.1-0.5,0.1c-1,0.9-2.6,1.5-3.8,1.7L153.5,166.1z M156.3,158.2v1.3h2.9
			v-1.3H156.3z M156.3,161.2h2.9v-1.4h-2.9V161.2z M159.1,163v-1.4h-2.9v1.4H159.1z M158.2,163.9c3.7,0.4,3.2,2.8,2,2.2
			c-0.3-0.7-1.3-1.6-2.1-2.1L158.2,163.9z"/>
		<path class="st0" d="M164.8,162.7c0.5-0.2,1.1-0.3,1.7-0.5l0,0.2c-0.7,0.5-1.8,1.2-3.4,2.1c0,0.2-0.1,0.3-0.3,0.3l-0.7-1.4
			c0.3-0.1,0.9-0.2,1.5-0.4v-4.1h-1.4l-0.1-0.3h1.5v-3.2l1.5,0.2c0,0.2-0.1,0.3-0.4,0.3v2.7h0.4l0.5-0.8c0,0,0.6,0.6,1,1
			c0,0.1-0.1,0.2-0.3,0.2h-1.6V162.7z M172.9,164.7c0.4,0.1,0.5,0.3,0.5,0.5c0,0.5-0.6,0.7-3.2,0.7h-1.7c-1.3,0-1.8-0.2-1.8-1.2V160
			l-1.1,0.5l-0.2-0.3l1.3-0.6v-3l1.5,0.2c0,0.2-0.1,0.3-0.4,0.3v2l1.3-0.6V155l1.5,0.2c0,0.2-0.1,0.3-0.4,0.3v2.7l1.4-0.6l0,0
			l0.6-0.6l1,1.1c-0.1,0.1-0.2,0.1-0.5,0.2c-0.3,1.4-0.8,3.5-1.5,4.8l-0.2-0.1c0.3-1.5,0.5-3.6,0.6-5l-1.4,0.6v4.9
			c0,0.1-0.5,0.4-0.9,0.4h-0.2V159l-1.3,0.6v4.8c0,0.3,0.1,0.5,0.8,0.5h1.7c0.7,0,1.3,0,1.5,0c0.2,0,0.3-0.1,0.4-0.2
			c0.1-0.2,0.3-0.8,0.5-1.7h0.1L172.9,164.7z"/>
		<path class="st0" d="M184.3,158.6c0,0,0.8,0.6,1.3,1c0,0.1-0.2,0.2-0.3,0.2h-8.5v1c0,1.5-0.2,3.9-2.2,5.4l-0.1-0.1
			c1.1-1.6,1.2-3.7,1.2-5.3v-1.8l1.3,0.5h6.6L184.3,158.6z M175,156.5h5l0,0c-0.1-0.5-0.6-1.1-1-1.4l0.1-0.1c2,0,2.1,1.2,1.6,1.5
			h2.9l0.7-0.8c0,0,0.8,0.6,1.3,1c0,0.1-0.2,0.2-0.3,0.2h-2.7l0.9,0.6c-0.1,0.1-0.2,0.2-0.5,0.1c-0.3,0.2-0.7,0.4-1.1,0.6
			c1.6,0.7,1.2,1.6,0.5,1.4c-0.4-0.3-1-0.6-1.7-0.9c-1.2,0.4-2.6,0.7-3.9,0.9l-0.1-0.2c1-0.2,2.1-0.6,3.1-1.1
			c-0.7-0.3-1.5-0.6-2.4-0.8l0-0.2c1.4,0.1,2.5,0.3,3.3,0.5c0.5-0.3,1-0.5,1.4-0.8h-7L175,156.5z M184.3,164.6c0,0,0.8,0.6,1.3,1
			c0,0.1-0.2,0.2-0.3,0.2h-8.8l-0.1-0.3h4v-1.7h-2.3l-0.1-0.3h2.4V162h-1.8c-0.4,0.6-0.9,1.1-1.4,1.4l-0.2-0.1c0.5-0.8,1-2,1.2-3.2
			l1.4,0.4c-0.1,0.1-0.2,0.3-0.4,0.2c-0.1,0.3-0.3,0.6-0.4,0.8h1.6V160l1.5,0.1c0,0.2-0.1,0.3-0.4,0.3v1.2h1.3l0.7-0.8
			c0,0,0.7,0.5,1.2,1c0,0.1-0.2,0.2-0.3,0.2h-2.8v1.4h1.1l0.6-0.8c0,0,0.7,0.5,1.1,0.9c0,0.1-0.1,0.2-0.3,0.2h-2.5v1.7h2.1
			L184.3,164.6z"/>
	</g>
	<g>
		<path class="st0" d="M39.1,158.3c1.3,1.7,2.6,3.2,3.9,4.8c-0.5,0.8-1,1.5-1.5,2.3c-0.1,0.2-0.2,0.3-0.3,0.5
			c-0.1,0.1-0.2,0.1-0.3,0.1c-0.8-0.2-1.6-0.4-2.4-0.7c0,0,0,0-0.1-0.1c0.5-0.3,1-0.7,1.6-1.1c-0.3-0.3-0.5-0.7-0.8-1
			c-0.6-0.7-1.1-1.4-1.7-2.1c-0.1-0.1-0.1-0.3-0.1-0.4C37.9,159.9,38.5,159.1,39.1,158.3z"/>
		<path class="st0" d="M29.5,163.7c-0.4-0.1-0.8-0.3-1.2-0.4c-0.2-0.1-0.3-0.2-0.3-0.4c0-0.9,0-1.8,0-2.7c0-0.1,0.1-0.3,0.2-0.3
			c0.7-0.3,1.5-0.5,2.2-0.8c-0.1,0.5-0.2,0.9-0.3,1.4c0,0.1,0,0.3,0.1,0.3c0.6,0.2,1.1,0.3,1.7,0.5c0.6,0.2,1.2,0.4,1.8,0.5
			c0.2,0.1,0.3,0.2,0.3,0.4c0,0.8,0,1.5,0.1,2.3c0,0.1,0,0.4,0.1,0.5L29.5,163.7z"/>
		<path class="st0" d="M34,159.4c0,0.2,0,0.4-0.3,0.4c-0.8,0.2-1.6,0.5-2.4,0.8c-0.3,0.1-0.4,0-0.4-0.2c0-0.9-0.1-1.9-0.1-2.8
			c0-0.8,0-1.6-0.1-2.4c0-0.3,0-0.4,0.4-0.5c0.9-0.3,1.8-0.7,2.6-1c0.2-0.1,0.3-0.1,0.5,0.1c0.5,0.6,1,1.2,1.5,1.9c-0.7,0-1.3,0-2,0
			c0,0.6,0.1,1.1,0.1,1.6L34,159.4z"/>
		<path class="st0" d="M42.1,157.4c-0.5,0.7-1,1.4-1.5,2.2c-0.2-0.6-0.5-1.2-0.7-1.7c-0.8,0.3-1.6,0.5-2.4,0.8
			c-0.3,0.1-0.7,0.2-1,0.4c-0.5,0.2-0.7,0.1-0.9-0.3c-0.4-0.6-0.9-1.1-1.4-1.7c-0.2-0.2,0.1-0.3,0.2-0.4c0.7-0.2,1.4-0.4,2.1-0.7
			c0.9-0.3,1.7-0.6,2.6-0.9c0.2-0.1,0.5-0.2,0.7-0.2c0.1,0,0.3,0.1,0.3,0.2C40.8,155.8,41.4,156.6,42.1,157.4z"/>
		<path class="st0" d="M32.5,165.1c0.3,0.2,0.7,0.4,1,0.6c0.2,0.1,0.4,0.2,0.5-0.1c0.6-0.9,1.2-1.8,1.8-2.7c0.2-0.2,0.3-0.3,0.6-0.2
			c0.7,0.3,1.5,0.5,2.3,0.7c0.3,0.1,0.3,0.2,0.2,0.4c-0.8,1.2-1.6,2.4-2.4,3.5c-0.2,0.3-0.4,0.7-0.6,1c-0.1,0.2-0.3,0.3-0.5,0.2
			c-0.9-0.3-1.7-0.5-2.6-0.8c-0.1,0-0.2-0.2-0.2-0.2C32.5,166.7,32.5,165.9,32.5,165.1z"/>
	</g>
	<g>
		<g>
			<path class="st0" d="M60,158.3c-0.1,0.1-0.3,0.2-0.5,0.3v4c0,0.1-0.6,0.3-1,0.3h-0.2v-1h-3v4.2c0,0.1-0.5,0.4-1,0.4H54v-4.7h-3
				v0.8c0,0.1-0.5,0.4-1,0.4h-0.2v-5.6l1.3,0.5H54v-2.6l1.6,0.2c0,0.2-0.1,0.3-0.4,0.3v2.1h2.9l0.6-0.7L60,158.3z M54,161.6v-3.2h-3
				v3.2H54z M58.2,161.6v-3.2h-3v3.2H58.2z"/>
			<path class="st0" d="M71.3,165c0,0,0.8,0.6,1.2,1.1c0,0.1-0.2,0.2-0.3,0.2H61.5l-0.1-0.3h5.1v-1.8h-3.3l-0.1-0.3h3.4v-1.5h-2.2
				c-0.7,0.8-1.5,1.4-2.3,1.9l-0.1-0.1c0.8-0.8,1.6-2,2.1-3.4c-0.1,0-0.3,0.1-0.4,0.1h-0.2v-4.9l1.3,0.5h4.9l0.6-0.6l1.2,0.9
				c-0.1,0.1-0.3,0.2-0.5,0.3v3.4c0,0.1-0.6,0.3-1,0.3h-0.2v-0.5h-5v0.3c0,0,0,0.1-0.1,0.1l1.2,0.5c-0.1,0.1-0.2,0.2-0.5,0.2
				c-0.2,0.3-0.3,0.6-0.5,0.8h2v-1.6l1.6,0.1c0,0.2-0.1,0.3-0.4,0.3v1.1h2.1l0.7-0.9c0,0,0.8,0.6,1.2,1c0,0.1-0.2,0.2-0.3,0.2h-3.7
				v1.5h2l0.7-0.9c0,0,0.7,0.6,1.2,1c0,0.1-0.2,0.2-0.3,0.2h-3.5v1.8h2.9L71.3,165z M64.5,156.5v1.3h5v-1.3H64.5z M69.6,159.6v-1.4
				h-5v1.4H69.6z"/>
			<path class="st0" d="M77.9,160.4c-0.1,0.1-0.2,0.2-0.5,0.2c-0.2,1.3-0.5,2.5-1.1,3.6c1.3,0.8,3.1,1,5.6,1c0.7,0,2.1,0,2.9,0v0.2
				c-0.5,0.1-0.7,0.5-0.7,0.9h-2.3c-2.8,0-4.6-0.3-5.9-1.5c-0.5,0.7-1.3,1.3-2.3,1.8l-0.1-0.2c0.8-0.6,1.4-1.4,1.9-2.2
				c-0.6-0.7-1-1.7-1.3-2.9l0.2-0.1c0.4,1.1,0.9,1.9,1.4,2.4c0.4-1,0.6-2.1,0.7-3.2h-1l-0.4,0.4l-1-0.7c0.1-0.1,0.3-0.2,0.4-0.2
				c0.5-0.8,1.1-2.1,1.4-3h-2.1l-0.1-0.3h2.2l0.5-0.6l1.1,1c-0.1,0.1-0.3,0.2-0.6,0.2c-0.3,0.8-1,2.1-1.4,2.9h0.8l0.6-0.6
				L77.9,160.4z M84.1,157.5c0,0,0.6,0.6,1,1c0,0.1-0.2,0.2-0.3,0.2h-1.3v1.7c0,0.1-0.5,0.3-0.9,0.3h-0.2v-0.4H81v1.2h1.4l0.6-0.8
				c0,0,0.7,0.6,1.1,1c0,0.1-0.2,0.2-0.3,0.2H81v1.3h1.8l0.7-0.9c0,0,0.8,0.6,1.3,1c0,0.1-0.2,0.2-0.3,0.2H81v1.2
				c0,0.1-0.5,0.3-0.9,0.3h-0.2v-1.5h-2.7l-0.1-0.3h2.8v-1.3h-2.1l-0.1-0.3h2.2v-1.2H78l-0.1-0.3h2v-1.2H77l-0.1-0.3h3v-1.2h-2
				l-0.1-0.3h2.1v-1.3l1.5,0.2c0,0.2-0.1,0.3-0.4,0.3v0.8h1.3l0.5-0.6l1.1,0.9c-0.1,0.1-0.3,0.2-0.5,0.2v1h0.2L84.1,157.5z
				 M81,158.3h1.4v-1.2H81V158.3z M82.4,158.6H81v1.2h1.4V158.6z"/>
			<path class="st0" d="M90.2,157c0,0,0.7,0.5,1,0.9c0,0.1-0.1,0.2-0.3,0.2h-4.8l-0.1-0.3h3.6L90.2,157z M92.7,157.2
				c0,1-0.2,2.6-2.2,3.5c0.1,0.1,0.2,0.1,0.2,0.2c0,0.1-0.1,0.2-0.3,0.2h-3.8l-0.1-0.3h2.7l0.5-0.7c0,0,0.4,0.3,0.7,0.6l-0.1-0.1
				c1.1-1,1.3-2.3,1.3-3.4v-1.4l1.2,0.5h1.3l0.6-0.6l1,0.9c-0.1,0.1-0.2,0.1-0.4,0.2v2.2c0,0.1,0,0.2,0.2,0.2h0.4c0.1,0,0.3,0,0.4,0
				h0.2c0.1,0,0.2,0,0.3,0h0.1l0,0c0.3,0.1,0.4,0.2,0.4,0.4c0,0.4-0.4,0.6-1.5,0.6h-0.6c-0.8,0-0.9-0.2-0.9-0.9v-2.6h-1.6V157.2z
				 M89.2,159.2l0.5-0.7c0,0,0.6,0.5,1,0.8c0,0.1-0.1,0.2-0.3,0.2h-3.8l-0.1-0.3H89.2z M90.3,165.7c0,0.1-0.5,0.3-0.8,0.3h-0.2v-0.6
				h-1.6v0.7c0,0.1-0.4,0.3-0.9,0.3h-0.1v-4.6l1.1,0.5h1.5l0.5-0.6l1.1,0.8c-0.1,0.1-0.3,0.2-0.5,0.2V165.7z M87.4,155.5
				c2.8,0.4,1.9,2.5,0.8,1.7c-0.1-0.6-0.5-1.3-0.9-1.6L87.4,155.5z M89.3,165.1v-2.4h-1.6v2.4H89.3z M96.5,161.3
				c-0.1,0.1-0.2,0.2-0.5,0.2c-0.4,1-1,1.9-1.8,2.7c0.9,0.6,2,0.9,3.2,1.2l0,0.1c-0.5,0.1-0.8,0.4-1,1c-1.2-0.4-2.1-0.9-2.9-1.7
				c-1,0.8-2.3,1.4-3.9,1.8l-0.1-0.2c1.4-0.5,2.6-1.3,3.5-2.2c-0.6-0.8-1.1-1.7-1.4-2.9h-0.6l-0.1-0.3h3.9l0.7-0.6L96.5,161.3z
				 M91.8,161.3c0.4,1,1,1.8,1.7,2.4c0.6-0.7,1-1.5,1.3-2.4H91.8z"/>
		</g>
	</g>
</g>
</svg>
