<svg width="154" height="308.8" viewBox="0 0 154 308.8" fill="#A92D41" xmlns="http://www.w3.org/2000/svg">
<path d="M115.3,221.8c5,0.2,8.7-1.6,8.1-8.2c-1.2-14.4,4.1-30,5-40.9c-2.5,3-8.4,7.4-12.9,9.9c17.6-15.4,20-47-0.8-60.9c2.8,0.8,5.4,1.9,7.8,3.3c-2.9-7.1-12.3-15.9-14.6-20.3c-1.4,1.8-2.1,4-2.1,6.4c-3.2-15.8,17.8-9.8-4.7-25.3l6,2.2c11.9-39.4,8.8-51.9,15-64.8c2.5-5.1,9.3-3.9,9.7-7.8c0.6-5.8-9.9,8.2-14.9-6.5c-1.5-4.5-3.1-9.6-4.7-8.8c-2.5,1.1,1.9,9.5,0.8,10.7c-1.9,2.1-9.4-6.8-10.6-5.5c-2.2,2.3,8.4,8.6,7.6,10.6c-0.6,1.6-9.1-2.9-9.7-0.8c-0.5,1.7,8.7,3.4,8.5,4.8c-0.2,1.2-8.1,0.9-8,2c0,1,2.6,1,5.2,1.2c6.1,0.7,6.5,7.4,6.2,13.8c-0.4-3-1-5.3-1.6-7.1c-0.9,9.9-6.7,19.2-9.8,26.5c2.7-2.8,5.3-5.8,7.8-9c-6.7,11-13.6,19.8-17.9,33.1c-4.8,14.9-12.6,9.2-12.4,5.3c-2.2,1.9-3.9,4.7-5.1,8.1c-0.3-9.4,17.4-19.3,8.4-24.1c-3.8-2-1.9-5.4-3.7-6.1c-1-0.5-3.9,0.3-5.7-0.3c-0.7-2.6-0.2-5.3-0.7-5.8c-0.9-0.9-3.3,1.4-9.4,0.8c-7.2-0.8-6.3-7.1-14-10.5c1.8-0.5,4.8-0.3,6.9,0.4c-1.4-1.1-3.9-2.1-5.9-2.2c2-0.9,5.1-1.3,8.1-0.7c-14.4-10-45.3,7-41.3,33c-1.6-7.3-0.9-14.9,1.8-21.7C7.3,65.7,6,78.4,10.7,91.4C6.9,91.9,3.1,91,0,88.9c2.1,3.6,5.9,5.9,10.1,6c-2.6,1.7-3.3,5.3-1.6,8c0.4-2.3,2.2-4.3,4.3-5.3c7.7,17.4,24.9,20.9,37.9,15c-6.7-0.5-13.1-3.5-17.8-8.6c20.9,15.2,36.4-4,39.3,4.8c2.7-1,5.9-3.4,7.5-6.1c-2.6,9.4-11.2,4.7-20.5,30.3c-2.8,7.6-6.9,17.2-13.6,19c-4,1.1-6.3,1.7-6.3,2.3c0,2,7.9,0.1,8.2,0.8c0.2,0.5-8.4,7-7.4,7.8c1.6,1.3,9.5-5,10.6-4.3c0.6,0.4-6.7,9.2-5.1,9.9c1.8,0.8,7.5-7.9,8.9-7.4c0.4,0.2-2.8,9-0.9,9.6c2.2,0.6,2.9-7.7,6-8.3c3.3-0.6,4.7,5.1,8.8,3.7c0.8-0.3-9.9-10.5-6-23.4c-0.4,2.6-0.2,5.2,0.5,7.6c1.3-5.1,5.5-9.7,8.7-13.9l-1.6-4.2c0.8,1.1,5.1,7.3,6,5.7c2-3.6,7.9-6.1,12.8-2.5c-2-0.7-4.1-0.8-6.1-0.2c12.2,11.4,1.8,27.6-2.8,42.5c2.5-2.2,5.4-4,8.6-5.3c-13.8,13.1-17.5,24.4-8.3,45.1c1.2,2.7,1.8,0.4,19.9,2.6c-5,0.4-10,0.8-13.8,1.3c-9.3,13.3-13.8,29-22.4,27c-12.2-2.9-2.3,20.8,8.9,30.5c-27.9,1-53.2,12.1-72.5,29.7c44.6-19.5,109-19.5,153.6,0c-10.6-9.7-23.1-17.4-36.8-22.6c0.4-2.2-11.3-5.2-12.9-17C102.5,255.5,113.5,235.7,115.3,221.8z M75.4,260.2c5.7-12.8,20.8-23.2,29.7-33.5c-2.6,4.5-6.4,9.1-10.3,13.7c-0.3,23.3-2.4,21.2-8.9,24.4c-5.4,2.6,6.3,13.1,10.8,15.5c-6-1-12.2-1.6-18.5-1.7C76.5,275.1,72.5,268.5,75.4,260.2z"/>
</svg>
