<svg width="45" height="45" viewBox="0 0 45 45" fill="none" xmlns="http://www.w3.org/2000/svg">
<path d="M31.2013 43.49C30.7913 43.49 30.7913 43.49 30.7913 43.09C30.7913 37.96 30.7913 32.83 30.7913 27.69C30.7913 27.29 30.7913 27.29 31.2013 27.29C32.7613 27.29 34.3213 27.29 35.8713 27.29C36.1413 27.29 36.2613 27.24 36.3013 26.93C36.5313 25.01 36.7813 23.09 37.0513 21.18C37.0913 20.9 37.0113 20.82 36.7413 20.82C34.8913 20.82 33.0313 20.82 31.1813 20.82C30.8913 20.82 30.7913 20.74 30.7913 20.44C30.8113 19.03 30.8113 17.61 30.8213 16.2C30.8213 15.84 30.9113 15.49 31.0413 15.16C31.4513 14.18 32.2913 13.89 33.2413 13.81C34.4513 13.71 35.6613 13.78 36.8713 13.77C37.3113 13.77 37.3113 13.77 37.3113 13.33C37.3113 11.7 37.3113 10.07 37.3113 8.43999C37.3113 7.98999 37.3113 7.98999 36.8813 7.94999C35.1913 7.79999 33.4913 7.68999 31.7913 7.75999C29.6813 7.84999 27.7913 8.49999 26.2913 10.05C25.1413 11.24 24.5513 12.7 24.2813 14.32C24.1713 15 24.1413 15.68 24.1413 16.37C24.1413 17.73 24.1413 19.1 24.1413 20.46C24.1413 20.75 24.0513 20.82 23.7713 20.82C22.1913 20.81 20.6113 20.82 19.0413 20.81C18.7313 20.81 18.6313 20.9 18.6413 21.21C18.6513 23.11 18.6513 25 18.6413 26.9C18.6413 27.19 18.7313 27.29 19.0213 27.29C20.5913 27.28 22.1613 27.29 23.7213 27.29C23.9946 27.29 24.1313 27.4233 24.1313 27.69C24.1313 32.83 24.1313 37.97 24.1313 43.12C24.1313 43.41 24.0613 43.5 23.7513 43.5" stroke="#C6A93E" stroke-width="1.49" stroke-miterlimit="10"/>
<path d="M23.9009 43.5H1.71094V0.75H44.0609V43.5H31.201" stroke="#C6A93E" stroke-width="1.49" stroke-miterlimit="10"/>
</svg>
