<svg width="48" height="30" viewBox="0 0 48 30" fill="none" xmlns="http://www.w3.org/2000/svg">
<path d="M19.0446 14.6786C19.0446 10.2702 20.975 6.33848 24.0118 3.64582C21.4694 1.38207 18.1501 0 14.5012 0C6.47376 0.0238289 0 6.57677 0 14.6786C0 22.7804 6.47376 29.3333 14.4777 29.3333C18.1265 29.3333 21.4458 27.9513 23.9882 25.6875C20.9514 22.9949 19.0211 19.0631 19.0211 14.6548L19.0446 14.6786Z" fill="white"/>
<path d="M33.5223 0.0240479C29.8734 0.0240479 26.5541 1.40612 24.0117 3.66986C27.0485 6.3387 28.9789 10.2943 28.9789 14.7026C28.9789 19.111 27.0485 23.0427 24.0117 25.7354C26.5541 27.9753 29.897 29.3812 33.5223 29.3812C41.5262 29.3812 47.9999 22.8044 47.9999 14.7265C47.9999 6.64847 41.5026 0.0240479 33.5223 0.0240479Z" fill="#5D5D5D"/>
</svg>
