<svg width="94" height="23" viewBox="0 0 94 23" fill="none" xmlns="http://www.w3.org/2000/svg">
<g clip-path="url(#clip0_313_4062)">
<path d="M75.0101 6.72001C75.0801 7.08001 75.1101 7.41001 75.1101 7.70001C75.1101 8.27001 74.7901 8.75001 74.2401 8.75001C73.9501 8.75001 73.8301 8.59001 73.8301 8.44001C73.8301 8.25001 73.9901 8.18001 74.1401 8.08001C74.4701 7.86001 74.7201 7.46001 74.7101 6.74001C74.7101 6.61001 74.7301 6.55001 74.8301 6.53001C74.9301 6.51001 74.9901 6.58001 75.0201 6.71001L75.0101 6.72001ZM76.2601 3.28001C75.9301 3.47001 75.4801 3.66001 74.9901 3.79001C74.9901 3.95001 74.9401 4.09001 74.8101 4.09001C74.6001 4.09001 74.2101 3.71001 74.1101 2.99001C74.3001 3.09001 74.5201 3.18001 74.8201 3.20001C75.0701 2.66001 75.4601 1.57001 75.4501 0.220009C76.1501 0.410009 76.6001 0.700009 76.6001 0.870009C76.6001 1.00001 76.4401 1.04001 76.1501 1.02001C75.8901 1.90001 75.4701 2.71001 75.0801 3.19001C75.6501 3.19001 76.0601 3.11001 76.3301 3.05001C76.4501 2.70001 76.5401 2.33001 76.5901 1.92001C77.2001 2.13001 77.6301 2.45001 77.6301 2.62001C77.6301 2.75001 77.4801 2.81001 77.1601 2.76001C76.6101 3.98001 75.7201 4.91001 75.1901 5.35001C75.9301 5.33001 76.5501 5.21001 76.9301 5.10001C76.8501 4.91001 76.7101 4.70001 76.5101 4.48001C76.4301 4.39001 76.3801 4.33001 76.4701 4.25001C76.5301 4.19001 76.6201 4.23001 76.7301 4.31001C77.2701 4.68001 77.8101 5.15001 77.8101 5.53001C77.8101 5.83001 77.5701 6.09001 77.3201 6.09001C77.1301 6.09001 77.1101 6.00001 77.1001 5.88001C77.1001 5.77001 77.1001 5.57001 77.0101 5.31001C76.4801 5.59001 75.7601 5.81001 74.9401 5.97001C74.9601 6.11001 74.9201 6.27001 74.7901 6.27001C74.5901 6.27001 74.1101 5.94001 74.0201 5.12001C74.2201 5.24001 74.5601 5.35001 74.8401 5.36001C75.2201 5.03001 75.8401 4.30001 76.2501 3.28001H76.2601ZM75.8201 6.46001C76.2401 6.95001 76.5501 7.41001 76.5501 7.82001C76.5501 8.11001 76.3201 8.42001 75.9501 8.42001C75.7501 8.42001 75.7001 8.28001 75.7201 8.15001C75.7601 7.94001 75.9101 7.43001 75.5301 6.59001C75.4801 6.47001 75.4601 6.41001 75.5501 6.35001C75.6301 6.30001 75.7101 6.35001 75.8101 6.45001L75.8201 6.46001ZM77.8401 7.40001C77.8401 7.65001 77.6401 7.94001 77.3301 7.94001C77.1601 7.94001 77.1401 7.83001 77.1301 7.72001C77.1101 7.51001 77.1001 7.01001 76.6101 6.39001C76.5501 6.32001 76.4901 6.25001 76.5701 6.17001C76.6401 6.10001 76.7301 6.15001 76.8301 6.22001C77.4501 6.68001 77.8301 7.07001 77.8301 7.40001H77.8401ZM82.9801 2.25001C82.9801 2.37001 82.9001 2.45001 82.6801 2.45001H80.4301V4.05001H81.1701C81.2901 3.84001 81.4401 3.61001 81.6101 3.42001C81.9601 3.57001 82.5601 3.94001 82.5601 4.15001C82.5601 4.27001 82.4701 4.34001 82.2701 4.34001H78.6201C78.2201 4.34001 77.8501 4.25001 77.7701 3.89001C78.4201 4.00001 79.0301 4.05001 79.7401 4.05001V2.45001H78.4201C77.9701 2.45001 77.6501 2.38001 77.5101 2.00001C78.2701 2.13001 79.0101 2.16001 79.7401 2.16001V0.0400085C80.3601 0.100009 80.8401 0.230009 80.8401 0.420009C80.8401 0.560009 80.6401 0.630009 80.4201 0.650008V2.18001H81.5501C81.6801 1.94001 81.8301 1.72001 82.0101 1.53001C82.3601 1.68001 82.9701 2.06001 82.9701 2.27001L82.9801 2.25001ZM82.2501 5.86001C82.2501 5.99001 82.1001 6.08001 81.8801 6.11001V6.98001C81.8801 7.52001 81.8801 8.03001 81.8801 8.58001C81.8801 8.73001 81.6701 8.94001 81.3801 8.94001C81.2101 8.94001 81.1801 8.87001 81.1801 8.74001V8.14001H79.1801V8.60001C79.1801 8.73001 79.0101 8.97001 78.6801 8.97001C78.5101 8.97001 78.4801 8.90001 78.4801 8.77001C78.4801 8.14001 78.5001 7.49001 78.5001 6.86001V5.14001C78.7601 5.26001 79.0201 5.43001 79.2201 5.60001H81.1201C81.1901 5.47001 81.2601 5.35001 81.3701 5.21001C81.7201 5.36001 82.2201 5.67001 82.2201 5.87001L82.2501 5.86001ZM79.2001 7.84001H81.2001V5.87001H79.2001V7.84001Z" fill="white"/>
<path d="M86.5403 4.37C86.5403 5.8 86.5603 7.32 86.5703 8.62C86.5703 8.82 86.3603 9.04 86.1103 9.04C85.9403 9.04 85.8903 8.97 85.8903 8.85C85.8903 7.51 85.9203 5.91 85.9203 4.37V4.11C85.5303 5.29 84.9703 6.43 84.4503 7.08C84.3703 7.18 84.3003 7.18 84.2503 7.14C84.2003 7.1 84.1903 7.04 84.2503 6.92C84.7203 6.12 85.4003 4.61 85.7003 2.76H85.0903C84.7803 2.76 84.4303 2.72 84.3303 2.33C84.8603 2.43 85.4203 2.47 85.9203 2.47V0C86.5403 0.04 86.8903 0.18 86.8903 0.34C86.8903 0.47 86.7703 0.53 86.5303 0.55V2.48H86.7603C86.8403 2.32 86.9503 2.15 87.0803 1.98C87.3903 2.13 87.8303 2.42 87.8303 2.58C87.8303 2.7 87.7203 2.76 87.5503 2.76H86.5303V3.64C87.1603 3.98 87.6903 4.38 87.6903 4.74C87.6903 4.98 87.5003 5.26 87.2403 5.26C87.0803 5.26 87.0303 5.15 87.0303 5.04C87.0303 4.8 86.9203 4.37 86.5203 3.95V4.37H86.5403ZM93.6603 6.87C93.6603 7 93.5603 7.05 93.4003 7.05H92.4103V8.06C92.4103 8.5 92.1403 8.79 91.3003 9C91.2103 8.77 90.6303 8.65 90.0103 8.49C89.8503 8.45 89.8003 8.41 89.8203 8.3C89.8403 8.19 89.9503 8.2 90.0603 8.21C90.3503 8.24 90.8103 8.28 91.1203 8.28C91.6403 8.28 91.7503 8.09 91.7503 7.79V7.04H88.7503V8.65C88.7503 8.8 88.5703 9.03 88.2803 9.03C88.1003 9.03 88.0703 8.95 88.0703 8.85C88.0903 8.31 88.1103 7.61 88.1103 7.05H87.7103C87.3803 7.05 87.0903 6.96 86.9603 6.63C87.3003 6.7 87.8203 6.75 88.1103 6.76V4.02C88.3703 4.13 88.6203 4.3 88.8103 4.47H89.9103V3.71H88.0603C87.7303 3.71 87.3403 3.67 87.2203 3.28C87.6803 3.38 88.4403 3.42 89.0503 3.42V2.61H88.4303C88.1303 2.61 87.8103 2.53 87.6803 2.18C88.0703 2.28 88.5903 2.32 89.0603 2.32V1.54H88.1803C87.8603 1.54 87.5403 1.5 87.4103 1.1C87.9903 1.2 88.6503 1.24 89.0703 1.25V0.01C89.7303 0.05 90.1003 0.2 90.1003 0.35C90.1003 0.48 89.9703 0.54 89.7003 0.56V1.25H90.8403V0.01C91.5103 0.05 91.8703 0.2 91.8703 0.35C91.8703 0.48 91.7403 0.54 91.4703 0.56V1.25H92.0703C92.1703 1.08 92.2903 0.91 92.4303 0.75C92.7203 0.86 93.2403 1.2 93.2403 1.37C93.2403 1.48 93.1603 1.53 93.0003 1.53H91.4603V2.31H91.7103C91.8003 2.15 91.9103 2 92.0503 1.84C92.3703 1.98 92.8203 2.28 92.8203 2.43C92.8203 2.54 92.7403 2.59 92.5603 2.59H91.4603V3.4H92.2703C92.3703 3.23 92.5103 3.05 92.6603 2.88C92.9503 3 93.4803 3.34 93.4803 3.51C93.4803 3.62 93.3903 3.68 93.2103 3.68H90.5503V4.44H91.6903C91.7703 4.3 91.8503 4.17 91.9603 4.04C92.3103 4.19 92.7603 4.5 92.7603 4.66C92.7603 4.79 92.6103 4.87 92.4003 4.9V6.72H92.4703C92.5703 6.52 92.6903 6.33 92.8203 6.17C93.1403 6.3 93.6503 6.64 93.6503 6.82L93.6603 6.87ZM89.9203 4.76H88.7503V5.59H89.9203V4.76ZM88.7503 5.88V6.76H89.9203V5.88H88.7503ZM90.8203 1.54H89.6803V2.32H90.8203V1.54ZM90.8203 2.61H89.6803V3.42H90.8203V2.61ZM91.7503 4.76H90.5503V5.59H91.7503V4.76ZM90.5503 6.76H91.7503V5.88H90.5503V6.76Z" fill="white"/>
<path d="M82.9401 21.59C82.9401 21.73 82.8301 21.82 82.5901 21.82H74.7901C74.3801 21.82 73.9501 21.72 73.8701 21.36C75.2901 21.51 76.7001 21.53 78.0201 21.53V15.67H75.3901C75.0301 15.67 74.6301 15.6 74.4901 15.21C75.8501 15.35 76.9801 15.38 78.4001 15.38H80.5901C80.7501 15.11 80.9201 14.86 81.1301 14.62C81.5301 14.79 82.2701 15.22 82.2701 15.46C82.2701 15.59 82.1701 15.67 81.9601 15.67H78.7101V21.53H81.2101C81.3801 21.24 81.5701 20.96 81.7701 20.73C82.1501 20.89 82.9501 21.34 82.9501 21.59H82.9401Z" fill="white"/>
<path d="M86.8199 18.73C86.8199 19.99 86.8399 21.21 86.8499 22.42C86.8499 22.57 86.6699 22.84 86.3399 22.84C86.1499 22.84 86.1199 22.75 86.1199 22.63C86.1199 21.35 86.1499 20.03 86.1499 18.75V18.17C85.6999 19.46 84.8999 20.43 84.4399 20.89C84.3399 20.99 84.2499 21.01 84.1799 20.94C84.1299 20.89 84.1199 20.83 84.2199 20.7C84.6099 20.18 85.4799 18.87 85.8799 16.9H85.0699C84.7199 16.9 84.4699 16.81 84.3799 16.47C84.9499 16.56 85.5399 16.61 86.1599 16.61V15.05C85.6399 15.13 85.1399 15.17 84.7599 15.17C84.6099 15.17 84.5099 15.15 84.5199 15.02C84.5299 14.9 84.6399 14.9 84.7599 14.88C85.5199 14.75 86.7099 14.51 87.2599 13.9C87.7099 14.07 88.1799 14.43 88.1799 14.64C88.1799 14.73 88.1099 14.79 87.9999 14.79C87.8599 14.79 87.7399 14.75 87.6099 14.68C87.3699 14.77 87.0999 14.85 86.8199 14.92V16.61H87.0899C87.1999 16.41 87.3199 16.23 87.4699 16.02C87.8099 16.2 88.2999 16.54 88.2999 16.71C88.2999 16.84 88.1899 16.9 88.0099 16.9H86.8199V17.75C87.7199 18.24 88.1799 18.63 88.1799 19.02C88.1799 19.27 87.9799 19.59 87.6899 19.59C87.5299 19.59 87.5099 19.52 87.4899 19.39C87.4599 19.2 87.4399 18.71 86.8199 18.05V18.72V18.73ZM93.5499 22.09C93.5499 22.21 93.4599 22.28 93.2499 22.28H88.2899C87.9299 22.28 87.5999 22.17 87.4799 21.83C88.3199 21.94 89.1699 21.99 90.2199 21.99V20.34H89.1399C88.7899 20.34 88.4599 20.29 88.3399 19.9C88.9199 19.99 89.4499 20.04 90.2199 20.05V18.6C89.4799 18.66 88.7599 18.68 88.4199 18.68C88.2899 18.68 88.2199 18.64 88.2199 18.54C88.2199 18.45 88.2799 18.41 88.4199 18.4C89.6399 18.31 91.4599 18.07 92.0599 17.54C92.4999 17.73 92.9099 18.06 92.9099 18.22C92.9099 18.44 92.5999 18.42 92.2799 18.28C91.9599 18.39 91.4599 18.47 90.9099 18.53V20.05H91.4699C91.5899 19.84 91.7399 19.63 91.8899 19.46C92.2599 19.62 92.7999 19.95 92.7999 20.13C92.7999 20.25 92.6999 20.33 92.4799 20.33H90.9099V21.98H92.1299C92.2699 21.75 92.4199 21.53 92.5899 21.35C92.9899 21.53 93.5599 21.88 93.5599 22.08L93.5499 22.09ZM88.7899 17.29C88.7899 16.74 88.8099 16.24 88.8099 15.67V14.2C89.0499 14.3 89.3199 14.45 89.5199 14.62H91.5999C91.6599 14.49 91.7299 14.38 91.8199 14.26C92.1999 14.41 92.6499 14.7 92.6499 14.88C92.6499 15 92.5199 15.07 92.3199 15.1V15.68C92.3199 16.15 92.3199 16.59 92.3399 17.02C92.3399 17.17 92.1399 17.39 91.8399 17.39C91.6699 17.39 91.6399 17.32 91.6399 17.2V16.89H89.4599V17.11C89.4599 17.25 89.2499 17.46 88.9799 17.46C88.7999 17.46 88.7699 17.38 88.7699 17.28L88.7899 17.29ZM91.6599 14.91H89.4799V16.62H91.6599V14.91Z" fill="white"/>
<path d="M4.25977 2.57H3.67977C3.56977 1.73 3.03977 1.24 2.22977 1.24C1.52977 1.24 0.879766 1.6 0.879766 2.33C0.879766 3.06 1.31977 3.35 2.36977 3.62C3.68977 3.96 4.34977 4.46 4.34977 5.47C4.34977 6.48 3.45977 7.18 2.28977 7.18C1.03977 7.18 0.149766 6.55 0.00976562 5.37H0.599766C0.749766 6.25 1.42977 6.74 2.30977 6.74C3.11977 6.74 3.76977 6.28 3.76977 5.57C3.76977 4.78 3.30977 4.44 2.15977 4.16C0.989766 3.86 0.299766 3.45 0.299766 2.46C0.299766 1.47 1.20977 0.809998 2.28977 0.809998C3.51977 0.809998 4.15977 1.58 4.26977 2.58L4.25977 2.57Z" fill="#C6A93E"/>
<path d="M8.32978 1.37001V7.05001H7.77979V1.37001H5.52979V0.920013H10.5798V1.37001H8.32978Z" fill="#C6A93E"/>
<path d="M16.24 7.06001H15.63C15.48 6.67001 15.37 6.29001 15.28 5.49001C15.2 4.84001 14.93 4.33001 14.28 4.30001C14.12 4.30001 13.94 4.30001 13.8 4.30001H12.55V7.08001H12V0.920013H13.81C14.12 0.920013 14.36 0.920013 14.65 0.960013C15.56 1.08001 16.16 1.57001 16.16 2.55001C16.16 3.36001 15.64 3.85001 15 4.01001C15.52 4.22001 15.78 4.78001 15.84 5.42001C15.93 6.27001 16.04 6.71001 16.25 7.06001H16.24ZM13.8 3.82001C14.07 3.82001 14.22 3.82001 14.42 3.80001C15.1 3.75001 15.54 3.31001 15.54 2.59001C15.54 1.87001 15.16 1.51001 14.49 1.42001C14.28 1.39001 14.08 1.38001 13.79 1.38001H12.54V3.82001H13.8Z" fill="#C6A93E"/>
<path d="M22.1696 4.86001C22.1696 5.04001 22.1696 5.22001 22.1396 5.43001C22.0696 6.43001 21.3796 7.18001 19.9896 7.18001C18.5996 7.18001 17.9096 6.42001 17.8296 5.43001C17.8096 5.22001 17.8096 5.04001 17.8096 4.86001V0.920013H18.3596V4.83001C18.3596 5.03001 18.3596 5.20001 18.3796 5.37001C18.4496 6.14001 18.9596 6.73001 19.9896 6.73001C21.0196 6.73001 21.5196 6.14001 21.5896 5.37001C21.6096 5.20001 21.6196 5.02001 21.6196 4.83001V0.920013H22.1696V4.86001Z" fill="#C6A93E"/>
<path d="M29.03 2.83001V2.92001H28.49L28.47 2.83001C28.28 1.90001 27.67 1.24001 26.58 1.24001C25.32 1.24001 24.37 2.32001 24.37 3.99001C24.37 5.66001 25.28 6.74001 26.52 6.74001C27.66 6.74001 28.26 6.05001 28.45 5.11001L28.47 5.02001H29.02V5.11001C28.85 6.24001 28.05 7.18001 26.48 7.18001C24.8 7.18001 23.75 5.88001 23.75 4.01001C23.75 2.14001 24.92 0.790009 26.61 0.790009C28.09 0.790009 28.88 1.66001 29.04 2.83001H29.03Z" fill="#C6A93E"/>
<path d="M32.9899 1.37001V7.05001H32.4399V1.37001H30.1899V0.920013H35.2399V1.37001H32.9899Z" fill="#C6A93E"/>
<path d="M40.9596 4.86001C40.9596 5.04001 40.9596 5.22001 40.9296 5.43001C40.8596 6.43001 40.1696 7.18001 38.7796 7.18001C37.3896 7.18001 36.6996 6.42001 36.6196 5.43001C36.5996 5.22001 36.5996 5.04001 36.5996 4.86001V0.920013H37.1496V4.83001C37.1496 5.03001 37.1496 5.20001 37.1696 5.37001C37.2396 6.14001 37.7496 6.73001 38.7796 6.73001C39.8096 6.73001 40.3096 6.14001 40.3796 5.37001C40.3996 5.20001 40.4096 5.02001 40.4096 4.83001V0.920013H40.9596V4.86001Z" fill="#C6A93E"/>
<path d="M47.22 7.06001H46.61C46.46 6.67001 46.35 6.29001 46.26 5.49001C46.18 4.84001 45.91 4.33001 45.26 4.30001C45.1 4.30001 44.92 4.30001 44.78 4.30001H43.53V7.08001H42.98V0.920013H44.79C45.1 0.920013 45.34 0.920013 45.63 0.960013C46.54 1.08001 47.14 1.57001 47.14 2.55001C47.14 3.36001 46.62 3.85001 45.98 4.01001C46.5 4.22001 46.76 4.78001 46.82 5.42001C46.91 6.27001 47.02 6.71001 47.23 7.06001H47.22ZM44.78 3.82001C45.05 3.82001 45.2 3.82001 45.4 3.80001C46.08 3.75001 46.52 3.31001 46.52 2.59001C46.52 1.87001 46.14 1.51001 45.47 1.42001C45.26 1.39001 45.06 1.38001 44.77 1.38001H43.52V3.82001H44.78Z" fill="#C6A93E"/>
<path d="M52.8296 7.06001H48.8496V0.920013H52.7396V1.37001H49.3996V3.75001H52.4996V4.21001H49.3996V6.59001H52.8196V7.04001L52.8296 7.06001Z" fill="#C6A93E"/>
<path d="M4.43996 21.35H0.459961V15.21H4.34996V15.66H1.00996V18.04H4.10996V18.5H1.00996V20.88H4.42996V21.33L4.43996 21.35Z" fill="#C6A93E"/>
<path d="M9.83988 21.35L6.64988 15.75C6.66988 16.51 6.67988 17.42 6.67988 18.19V21.36H6.12988V15.22H6.96988L10.1699 20.82C10.1499 20.05 10.1399 19.15 10.1399 18.38V15.21H10.6799V21.35H9.83988Z" fill="#C6A93E"/>
<path d="M17.5998 18.48V21.35H17.0998V20.09L16.8598 20.64C16.4498 21.21 15.7998 21.48 15.0598 21.48C13.3698 21.48 12.3198 20.18 12.3198 18.31C12.3198 16.44 13.4998 15.09 15.1998 15.09C16.6798 15.09 17.4698 15.96 17.6398 17.13V17.22H17.0998L17.0798 17.13C16.8898 16.2 16.2798 15.54 15.1898 15.54C13.8998 15.54 12.9398 16.62 12.9398 18.29C12.9398 19.96 13.8498 21.04 15.0998 21.04C16.0798 21.04 17.0498 20.33 17.0498 18.94H15.3798V18.49H17.5998V18.48Z" fill="#C6A93E"/>
<path d="M19.5698 21.35V15.21H20.1198V21.35H19.5698Z" fill="#C6A93E"/>
<path d="M25.92 21.35L22.73 15.75C22.75 16.51 22.76 17.42 22.76 18.19V21.36H22.21V15.22H23.05L26.25 20.82C26.23 20.05 26.22 19.15 26.22 18.38V15.21H26.76V21.35H25.92Z" fill="#C6A93E"/>
<path d="M32.8296 21.35H28.8496V15.21H32.7396V15.66H29.3996V18.04H32.4996V18.5H29.3996V20.88H32.8196V21.33L32.8296 21.35Z" fill="#C6A93E"/>
<path d="M38.48 21.35H34.5V15.21H38.39V15.66H35.05V18.04H38.15V18.5H35.05V20.88H38.47V21.33L38.48 21.35Z" fill="#C6A93E"/>
<path d="M44.4099 21.35H43.7999C43.6499 20.96 43.5399 20.58 43.4499 19.78C43.3699 19.13 43.0999 18.62 42.4499 18.59C42.2899 18.59 42.1099 18.59 41.9699 18.59H40.7199V21.37H40.1699V15.23H41.9799C42.2899 15.23 42.5299 15.23 42.8199 15.27C43.7299 15.39 44.3299 15.88 44.3299 16.86C44.3299 17.67 43.8099 18.16 43.1699 18.32C43.6899 18.53 43.9499 19.09 44.0099 19.73C44.0999 20.58 44.2099 21.02 44.4199 21.37L44.4099 21.35ZM41.9699 18.11C42.2399 18.11 42.3899 18.11 42.5899 18.09C43.2699 18.04 43.7099 17.6 43.7099 16.88C43.7099 16.16 43.3299 15.8 42.6599 15.71C42.4499 15.68 42.2499 15.67 41.9599 15.67H40.7099V18.11H41.9699Z" fill="#C6A93E"/>
<path d="M46.0396 21.35V15.21H46.5896V21.35H46.0396Z" fill="#C6A93E"/>
<path d="M52.3897 21.35L49.1997 15.75C49.2197 16.51 49.2297 17.42 49.2297 18.19V21.36H48.6797V15.22H49.5197L52.7197 20.82C52.6997 20.05 52.6897 19.15 52.6897 18.38V15.21H53.2297V21.35H52.3897Z" fill="#C6A93E"/>
<path d="M60.1496 18.48V21.35H59.6496V20.09L59.4096 20.64C58.9996 21.21 58.3496 21.48 57.6096 21.48C55.9196 21.48 54.8696 20.18 54.8696 18.31C54.8696 16.44 56.0496 15.09 57.7496 15.09C59.2296 15.09 60.0196 15.96 60.1896 17.13V17.22H59.6496L59.6296 17.13C59.4396 16.2 58.8296 15.54 57.7396 15.54C56.4496 15.54 55.4896 16.62 55.4896 18.29C55.4896 19.96 56.3996 21.04 57.6496 21.04C58.6296 21.04 59.5996 20.33 59.5996 18.94H57.9296V18.49H60.1496V18.48Z" fill="#C6A93E"/>
</g>
<defs>
<clipPath id="clip0_313_4062">
<rect width="93.66" height="22.84" fill="white"/>
</clipPath>
</defs>
</svg>
