<svg xmlns="http://www.w3.org/2000/svg" viewBox="0 0 709.24 297.19"><defs><style>.cls-1{fill:#bf191f;fill-rule:evenodd;}.cls-2{fill:#b0272d;}</style></defs><g id="圖層_2" data-name="圖層 2"><g id="圖層_1-2" data-name="圖層 1"><path class="cls-1" d="M547,284.45v10.49l-.49,1h10l-.49-1V266.31l.49-1H524.73l.49,1v28.62l-.49,1h10l-.49-1V284.45a6.41,6.41,0,1,1,12.82,0Z"/><path d="M590,279.65a42.45,42.45,0,0,0,4.74-1.5c0,.1,0,.21,0,.31.09.66.32,1.54,1.31,1.54a1.52,1.52,0,0,0,1.47-1.66c0-1.39-1.24-2.72-3.5-3.77a.33.33,0,0,0-.41.09.3.3,0,0,0,0,.36,7,7,0,0,1,.83,1.82c-1.11.12-2.25.2-3.39.24a27,27,0,0,0,4.47-4.89c.74,0,1.25-.07,1.25-.65s-.8-1-3.07-1.83l-.17-.07-.06.18a25.49,25.49,0,0,1-1,2.42,26.3,26.3,0,0,1-3.15,4.92c-.39,0-.79,0-1.22,0h-.25l.06.24,0,.06a5.66,5.66,0,0,0-3-2.68.32.32,0,0,0-.43.44,6,6,0,0,1,.69,1.67c-1,.15-2,.25-3,.32a26,26,0,0,0,4.3-4.81c.73,0,1.25-.08,1.25-.69s-.58-.8-3.06-1.83l-.19-.07-.06.19a23.35,23.35,0,0,1-1,2.42q-.37.75-.78,1.47a1.94,1.94,0,0,0,.12-.7,2.43,2.43,0,0,0-1-1.89,21.56,21.56,0,0,0,2.72-2.77c.74-.1,1.22-.22,1.22-.73s-.73-.84-3.26-1.65l-.2-.07,0,.21a15.84,15.84,0,0,1-.59,2.17c-.25.7-.56,1.44-.91,2.19a9.09,9.09,0,0,0-1.83-.65.33.33,0,0,0-.34.13.37.37,0,0,0,.05.42,6.45,6.45,0,0,1,1.59,3c.26.79.54,1.22,1.24,1.22a1.3,1.3,0,0,0,1-.46,28.06,28.06,0,0,1-2.13,3h-.64c-.22,0-.59,0-1,0l-.25,0,.06.25c.7,2.64.82,3.12,1.34,3.12s.61-.28.69-.82a39.86,39.86,0,0,0,5-1.68v0l0,.31c.1.73.33,1.48,1.25,1.48a1.51,1.51,0,0,0,1.4-1.69c0-.12,0-.24,0-.36.43,1.62.65,2.26.94,2.47l-.26,0-.23,0,0,.22c.12,1.38.15,2.33.15,5.35,0,3.49,0,5.71-.07,7,0,.53,0,.9,0,1.14,0,.84.41,1.22,1.34,1.22s1.81-.15,1.81-1.31c0-.38,0-1,0-1.85,0-1.06,0-2.47-.07-4.18h1.95v1c0,.77.37,1.09,1.22,1.09,1.14,0,1.63-.42,1.63-1.4,0-.19,0-.5,0-.94,0-.92,0-2.32,0-4v-.82c.54-.24.79-.42.79-.77,0-.65-.75-.8-3.49-1l-.22,0,.05.69c.07.91.09,1.21.09,1.64v3.46h-2v-4.47c.58-.28.84-.57.84-.93,0-.6-.35-.73-3-1C589.86,280.3,590,279.91,590,279.65Z"/><path d="M589.09,273.44c.23.72.53,1.2,1.24,1.2a1.4,1.4,0,0,0,1.35-1.56,2.48,2.48,0,0,0-1.2-2,21.15,21.15,0,0,0,2.8-2.64c.78-.11,1.22-.21,1.22-.74s-.66-.8-3.23-1.64l-.19-.07-.05.2a15,15,0,0,1-.74,2.45,17.06,17.06,0,0,1-.85,1.84,9,9,0,0,0-1.74-.54.35.35,0,0,0-.39.2.3.3,0,0,0,.08.37A5.92,5.92,0,0,1,589.09,273.44Z"/><path d="M578,277.78V269h1.57c.15,0,.59,0,.59-.5,0-.3-.26-.57-.86-1.06-1.24-.91-1.58-1.16-1.93-1.16s-.68.26-1.84,1.63H570a6.93,6.93,0,0,1-1.84-.25l-.31-.07.48,1.63.17,0a7.36,7.36,0,0,1,1.38-.18v18.28l-.17,0-1.44.23-.21,0,.07.2c.92,2.86,1.22,3.58,1.8,3.58s.79-.62.86-1.19a19.56,19.56,0,0,0,4.2-2.8c0,2.69-.07,4.45-.1,5.53,0,.45,0,.77,0,1a1.23,1.23,0,0,0,1.38,1.41c1.15,0,1.78-.54,1.78-1.53s0-2.7,0-4.82C578,285.61,578,281.45,578,277.78Zm-3,3.1v5a22.81,22.81,0,0,1-2.21.76v-5.75Zm0-5.68v4.59H572.8V275.2Zm0-6.17v5.08H572.8V269Z"/><path d="M584.33,280.39l-.22,0,0,.22c.06.74.06,1.09.06,2a41.66,41.66,0,0,1-.17,4.24h-1.75V283c.47-.21.72-.41.72-.77,0-.65-.74-.8-3.49-1l-.21,0v.22c.09,1.19.13,2.31.13,3.53,0,1.51,0,2.57-.08,3.2,0,.25,0,.43,0,.53,0,.76.44,1.15,1.29,1.15,1.11,0,1.65-.43,1.65-1.31v-.54h1.61a8.44,8.44,0,0,1-1,3.05,9.36,9.36,0,0,1-3.75,3.71.33.33,0,0,0-.08.41.37.37,0,0,0,.33.23h.07c3.4-.93,5.69-2.7,6.8-5.24a13.68,13.68,0,0,0,.92-5.18c0-.75.06-1.62.09-2.66.46-.18.85-.41.85-.89C588.1,280.72,587.63,280.64,584.33,280.39Z"/><path d="M630.89,267.63c-1.56-1.23-1.86-1.45-2.21-1.45s-.58.15-2.25,2H617a12.12,12.12,0,0,1-2.38-.25l-.3-.06.48,1.61.15,0a15,15,0,0,1,2.14-.18h3.69a21.7,21.7,0,0,1-.76,3.89h-1.13a23.39,23.39,0,0,0-3.19-1.47l-.38-.16,0,.29c.16,2.25.19,3.49.19,5.6,0,5.69-.08,8.17-.13,9.66,0,.59,0,1,0,1.41,0,1.08.82,1.22,1.63,1.22,1,0,1.63-.41,1.76-1.22h8c0,.89.46,1.25,1.4,1.25,1.4,0,2-.48,2-1.63,0-.42,0-1.12,0-2.07,0-2-.1-5.06-.1-9V275c.61-.34.94-.63.94-1.11s-.26-.62-.79-1c-1.2-.95-1.52-1.17-1.9-1.17s-.56.17-1.74,1.44h-4.8a17.64,17.64,0,0,0,2.89-3.89h6.66c.15,0,.59,0,.59-.5C631.87,268.48,631.62,268.22,630.89,267.63Zm-4.15,11.18v3.52h-8v-3.52Zm0,4.61v4h-8v-4Zm-8-5.7v-3.46h8v3.46Z"/><path d="M623.82,289.45a.38.38,0,0,0-.24.69,9.27,9.27,0,0,1,3.88,3.29c1.17,1.68,1.28,1.81,2.19,1.81a1.78,1.78,0,0,0,1.75-1.88C631.4,291.33,629.06,290.12,623.82,289.45Z"/><path d="M613.25,290.41c0-.34,0-.91,0-1.69,0-1.67-.1-4.2-.1-7.43V279.6c.48-.3.76-.56.76-.94s-.21-.57-.66-1c-1-.86-1.24-1.08-1.63-1.08s-.62.24-1.58,1.32h-2.33l-.12-.09,0,0a24.33,24.33,0,0,0,2.17-7.6H614c.14,0,.59,0,.59-.5,0-.29-.26-.59-.81-1.11-1.28-1.15-1.59-1.39-2-1.39s-.6.14-1.91,1.91H605.2a11.41,11.41,0,0,1-2.38-.25l-.3-.06.48,1.61.15,0a14.07,14.07,0,0,1,2.08-.18h1.12a27.73,27.73,0,0,1-4.4,13.62.34.34,0,0,0,.07.45.38.38,0,0,0,.51.08,25.25,25.25,0,0,0,2.1-2.14c0,.55,0,1,0,1.35,0,3.12-.07,5.1-.11,6.55,0,.9,0,1.62,0,2.32,0,1,.33,1.31,1.37,1.31s1.72-.45,1.72-1.47v-2.13h2.61v.53c0,.89.4,1.29,1.29,1.29C612.66,292,613.25,291.44,613.25,290.41ZM610.15,279v10h-2.61V279Z"/><path d="M619,289l-.15-.08-.09.15a8,8,0,0,1-1.69,1.93,23.54,23.54,0,0,1-5.71,3.57.31.31,0,0,0-.16.41.42.42,0,0,0,.35.33h.05a19.08,19.08,0,0,0,9.34-3.22,1.86,1.86,0,0,0,1.44-.21.41.41,0,0,0,.17-.33C622.56,291,621.76,290.47,619,289Z"/><path d="M666.63,291.13v-3.69h-1l-1.32,4a1.47,1.47,0,0,1-1.11.68,21.88,21.88,0,0,1-4.93.32,32.17,32.17,0,0,1-5.41-.29c-.83-.11-1.23-.46-1.23-1v-12l3.4-1.1v6.59l-.13,3.43a1,1,0,0,0,1.08,1,2.6,2.6,0,0,0,1.21-.28,1.12,1.12,0,0,0,.71-1V277.07l4.51-1.45c-.31,4.71-.5,7.35-.62,7.84s-.2.67-.36.77a.83.83,0,0,1-.52.19l-2.43-.52-.19,1.06,1.62.82c.26.16.43.78.52,1.86l0,.16h.17a4,4,0,0,0,2.33-.56,2.61,2.61,0,0,0,1.26-1.51c.15-.67.44-3.47,1-9.66,1.46-.57,1.65-.92,1.65-1.16s-.2-.52-.6-.79l-2.64-1.7-1.84,2-3.87,1.23v-6.89l.42-.26a.79.79,0,0,0,.49-.71c0-.27-.16-.62-.93-.76l-3.22-.5.13.3a13.9,13.9,0,0,1,.24,3.73v6l-3.4,1.07v-5.37l.66-.38c.52-.21.6-.54.6-.72s-.15-.57-.84-.66l-3.47-.42,0,.25a15.86,15.86,0,0,1,.13,2.47v5.72l-1.24.4-2.25.11.8,2.19,2-.94.7-.22v11.46a3.12,3.12,0,0,0,.79,2.28,3.9,3.9,0,0,0,2.44,1.06,40.33,40.33,0,0,0,6.41.35c3,0,4.89-.12,6-.22a6.32,6.32,0,0,0,2.37-.7,1.24,1.24,0,0,0,.81-1.13,1.62,1.62,0,0,0-.5-1.21A.94.94,0,0,1,666.63,291.13Z"/><path d="M647,284.44a17.59,17.59,0,0,1-3,1.53l-.72.29V277h4c.21,0,.57-.09.57-.69a1,1,0,0,0-.43-.7l-2.16-1.54-1.57,1.7h-.38v-6.21c.58-.19,1.26-.5,1.26-1,0-.29-.18-.66-1-.76l-3.15-.45,0,.23c0,.38,0,.71.07,1s.06.71.06.89v6.35a18.62,18.62,0,0,1-3.55-.38l-.33-.07.79,2,.14,0c1.1-.14,2-.22,3-.25v10.28h-.07a18.83,18.83,0,0,1-3.4.76l-.21,0,.85,3.52c.14.56.4.71.63.75s.59-.13.81-.76l.33-.8c.61-.26,1.34-.63,2.23-1.1a26.2,26.2,0,0,0,3.43-2.24,20.93,20.93,0,0,0,2.24-1.94l.07-.07-.19-1.14Z"/><path d="M698.27,290.8l-.13-.1-1.89,2.11h-6.52v-3.88h8.19a.59.59,0,0,0,.64-.65,1,1,0,0,0-.44-.79l-2.43-1.78-1.73,2h-4.23v-3.26h8.78a.62.62,0,0,0,.67-.68,1.09,1.09,0,0,0-.44-.77l-2.43-1.77-1.76,2h-4.82v-2.11c1-.33,1.21-.77,1.21-1.09s-.34-.66-1-.77l-3.1-.4,0,.22c0,.39,0,.72.07,1s.05.64.05.8v2.36h-4.71l.24-.42.65-1.16c.86-.14,1.27-.4,1.27-.78a.86.86,0,0,0-.64-.83l-2.92-1-.05.18a37,37,0,0,1-1.73,4.85,25,25,0,0,1-2.24,4.06l-.11.16.87.51.1-.09a26.94,26.94,0,0,0,2.85-2.91l.14-.21c.26-.35.53-.73.83-1.17H687v3.26h-2.73a22.11,22.11,0,0,1-4-.37l-.34-.06.81,1.9.14,0a23.43,23.43,0,0,1,3.35-.25H687v3.88h-6.6a21.26,21.26,0,0,1-4-.37l-.33-.06.81,1.9.14,0a19.73,19.73,0,0,1,3.35-.25h20.11a.59.59,0,0,0,.65-.65,1.09,1.09,0,0,0-.45-.82Z"/><path d="M674.82,270.52a30.73,30.73,0,0,1,3.36-.21h13.4a21.36,21.36,0,0,1-2,1.55l-.69.43a.55.55,0,0,1-.13-.05c-2-.52-4.27-1-7.27-1.46h-.1l-.74.79.3.07a48.13,48.13,0,0,1,5.67,1.89c-.44.21-.82.38-1.2.53a25.34,25.34,0,0,1-3.79,1.26c-.51.13-1.69.4-3.71.8l-.2,0,.36,1.05.15,0a48.88,48.88,0,0,0,6.56-1.18,28.71,28.71,0,0,0,4.35-1.37,34.09,34.09,0,0,1,3.13,1.69,3.68,3.68,0,0,0,1.43.65c1.15,0,1.39-.71,1.39-1.3,0-.74-.54-1.35-1.59-1.81-.42-.18-.9-.37-1.42-.57.53-.27,1.12-.58,1.68-.94.75,0,1.58-.13,1.58-.68a.88.88,0,0,0-.63-.81l-1.08-.55h5.77a.6.6,0,0,0,.65-.68,1.09,1.09,0,0,0-.48-.8L697,267l-1.85,2.11h-6.52v-.89c1-.34,1.21-.78,1.21-1.09s-.35-.66-1-.77l-3.11-.4v.22c0,.39,0,.72.07,1s.05.64.05.79v1.15h-7.68a22.29,22.29,0,0,1-4-.33l-.33-.07.8,1.87Z"/><path d="M677,278.52h23.3c.49,0,.78-.24.78-.65a1.24,1.24,0,0,0-.48-.86L698,275.08l-2,2.24h-19.3l-2.63-1.63,0,.37a22.35,22.35,0,0,1,.12,2.28v1.45a44,44,0,0,1-.79,9.63,21.52,21.52,0,0,1-1.72,4.7l-.07.11.7.74.13-.15a17.29,17.29,0,0,0,3.23-5.67,28,28,0,0,0,1.31-9.36Z"/><path d="M11.87,271.61a3.77,3.77,0,0,0-.89-2A2.9,2.9,0,0,0,8.92,269h-1c-.38,0-.56.2-.56.58v2.79H8.3a1.15,1.15,0,0,0,1-.5,2,2,0,0,0,.29-1.18h.49v3.87H9.58a2.12,2.12,0,0,0-.29-1.17,1.16,1.16,0,0,0-1-.51H7.38v3a.63.63,0,0,0,.43.65,2.11,2.11,0,0,0,.79.1v.47H4.82v-.47a2.21,2.21,0,0,0,.8-.1.62.62,0,0,0,.42-.65v-6.14Q6,269,4.87,269v-.46h7.28l.19,3.11Z"/><path d="M18.92,276.91a1.36,1.36,0,0,1-.65.21,1,1,0,0,1-1.07-.82,2.53,2.53,0,0,1-2,.95,2.29,2.29,0,0,1-1.37-.39,1.4,1.4,0,0,1-.61-1.23q0-1.83,3.82-2.23v-1.2c0-.55-.36-.83-1.06-.83s-1,.21-1,.6a.47.47,0,0,0,.14.26.86.86,0,0,1,.14.46.75.75,0,0,1-.27.59.87.87,0,0,1-.62.23.72.72,0,0,1-.61-.28.93.93,0,0,1-.23-.67,1.37,1.37,0,0,1,.86-1.27,3.32,3.32,0,0,1,1.6-.39c1.53,0,2.29.61,2.29,1.83v3.48c0,.19.07.28.22.28a.56.56,0,0,0,.29-.13.52.52,0,0,1,.21-.11.19.19,0,0,1,.21.21C19.27,276.64,19.14,276.79,18.92,276.91Zm-3.37-2.56a1.4,1.4,0,0,0-.88,1.19c0,.79.27,1.18.84,1.18a1.55,1.55,0,0,0,1-.47,1.32,1.32,0,0,0,.52-1v-1.43A5.35,5.35,0,0,0,15.55,274.35Z"/><path d="M24.28,276.71a2.17,2.17,0,0,1-1.51.54,2.5,2.5,0,0,1-1.81-.76l-.35.67h-.44v-2.53h.45c.4,1.44,1.14,2.15,2.19,2.15a1,1,0,0,0,.69-.28.86.86,0,0,0,.31-.65,1,1,0,0,0-.35-.76,2.49,2.49,0,0,0-.81-.36,6.93,6.93,0,0,1-1.6-.6,1.56,1.56,0,0,1-.8-1.43,1.71,1.71,0,0,1,.55-1.3,1.91,1.91,0,0,1,1.33-.5,2.56,2.56,0,0,1,1.62.53l.31-.47h.46v2.26H24a3.53,3.53,0,0,0-.62-1.32,1.65,1.65,0,0,0-1.27-.53.85.85,0,0,0-.85.85c0,.47.29.77.89.94s.86.25,1,.28a6.79,6.79,0,0,1,.91.38,1.61,1.61,0,0,1,.79,1.43A1.89,1.89,0,0,1,24.28,276.71Z"/><path d="M29.42,277.07v-.47H30a.36.36,0,0,0,.41-.41v-3.47a1.72,1.72,0,0,0-.25-.93,1,1,0,0,0-.81-.42,1.25,1.25,0,0,0-1.08.81,2.83,2.83,0,0,0-.36,1.42v2.59c0,.28.14.41.42.41h.58v.47H25.69v-.47h.58a.36.36,0,0,0,.41-.41v-6.72c0-.26-.07-.43-.18-.48a2.29,2.29,0,0,0-.61,0v-.49l2-.15v3.48a1.75,1.75,0,0,1,1.57-.87c1.47,0,2.22.83,2.22,2.48v2.79c0,.28.12.41.38.41h.6v.47Z"/><path d="M33.46,277.07v-.47h.74c.22,0,.34-.13.34-.39v-4a.57.57,0,0,0-.2-.51,1.4,1.4,0,0,0-.61-.1v-.45l2.07-.2v5.31c0,.26.12.39.35.39h.73v.47Zm2.19-7.19a.87.87,0,0,1-1.24,0,.82.82,0,0,1-.27-.64.85.85,0,0,1,.27-.65.83.83,0,0,1,.62-.27.9.9,0,0,1,.62.27.93.93,0,0,1,.27.65A.89.89,0,0,1,35.65,269.88Z"/><path d="M42.61,276.26a2.56,2.56,0,0,1-2,1,2.51,2.51,0,0,1-2.06-1,3.27,3.27,0,0,1-.76-2.17,3.36,3.36,0,0,1,.76-2.19,2.52,2.52,0,0,1,2.06-1,2.57,2.57,0,0,1,2,1,3.36,3.36,0,0,1,.77,2.19A3.27,3.27,0,0,1,42.61,276.26Zm-1-3.85c-.25-.69-.61-1-1.08-1s-.85.35-1.09,1a5,5,0,0,0-.26,1.69,4.44,4.44,0,0,0,.28,1.67c.23.68.59,1,1.07,1s.84-.34,1.09-1a5,5,0,0,0,.26-1.67A5,5,0,0,0,41.64,272.41Z"/><path d="M48.29,277.07v-.47a2.14,2.14,0,0,0,.55-.05.39.39,0,0,0,.28-.43V273c0-1.11-.35-1.67-1-1.67-.41,0-.8.29-1.13.88a2.88,2.88,0,0,0-.46,1.46v2.44a.36.36,0,0,0,.3.4,2,2,0,0,0,.54.05v.47H44.21v-.47h.61a.35.35,0,0,0,.4-.38v-4.13a.73.73,0,0,0-.07-.38.31.31,0,0,0-.3-.13h-.42v-.48L46.5,271v1.08a2.06,2.06,0,0,1,1.77-1.13,1.89,1.89,0,0,1,2.13,2.14v3.11c0,.29.13.43.41.43h.61v.47Z"/><path d="M56.35,277.07v-.47h.73c.22,0,.35-.13.35-.39v-4a.55.55,0,0,0-.21-.51,1.37,1.37,0,0,0-.61-.1v-.45l2.08-.2v5.31c0,.26.11.39.34.39h.74v.47Zm2.19-7.19a.82.82,0,0,1-.63.26.8.8,0,0,1-.62-.26.84.84,0,0,1-.26-.64.88.88,0,0,1,.26-.65.85.85,0,0,1,.62-.27.9.9,0,0,1,.63.27,1,1,0,0,1,.26.65A.93.93,0,0,1,58.54,269.88Z"/><path d="M64.81,276.71a2.17,2.17,0,0,1-1.51.54,2.5,2.5,0,0,1-1.81-.76l-.35.67H60.7v-2.53h.45c.4,1.44,1.14,2.15,2.19,2.15a1.06,1.06,0,0,0,.7-.28.88.88,0,0,0,.3-.65,1,1,0,0,0-.35-.76,2.49,2.49,0,0,0-.81-.36,6.93,6.93,0,0,1-1.6-.6,1.56,1.56,0,0,1-.8-1.43,1.71,1.71,0,0,1,.55-1.3,1.91,1.91,0,0,1,1.33-.5,2.56,2.56,0,0,1,1.62.53l.31-.47h.46v2.26h-.47A3.68,3.68,0,0,0,64,271.9a1.65,1.65,0,0,0-1.27-.53.84.84,0,0,0-.6.25.87.87,0,0,0-.25.6c0,.47.29.77.89.94s.86.25,1,.28a6.79,6.79,0,0,1,.91.38,1.61,1.61,0,0,1,.79,1.43A1.89,1.89,0,0,1,64.81,276.71Z"/><path d="M74.45,277.07v-.47a2.18,2.18,0,0,0,.56-.05c.18-.05.27-.19.27-.43V273c0-1.11-.34-1.67-1-1.67-.42,0-.81.29-1.14.88a3,3,0,0,0-.45,1.46v2.44a.36.36,0,0,0,.3.4,1.89,1.89,0,0,0,.54.05v.47H70.38v-.47H71a.35.35,0,0,0,.4-.38v-4.13a.85.85,0,0,0-.07-.38.31.31,0,0,0-.3-.13H70.6v-.48l2.07-.13v1.08a2.06,2.06,0,0,1,1.77-1.13,1.89,1.89,0,0,1,2.13,2.14v3.11c0,.29.13.43.4.43h.61v.47Z"/><path d="M83.27,276.26a2.53,2.53,0,0,1-2,1,2.5,2.5,0,0,1-2-1,3.27,3.27,0,0,1-.76-2.17,3.36,3.36,0,0,1,.76-2.19,2.51,2.51,0,0,1,2-1,2.54,2.54,0,0,1,2,1,3.32,3.32,0,0,1,.78,2.19A3.23,3.23,0,0,1,83.27,276.26Zm-1-3.85c-.24-.69-.6-1-1.08-1s-.84.35-1.08,1a5,5,0,0,0-.26,1.69,4.44,4.44,0,0,0,.28,1.67c.23.68.59,1,1.06,1s.85-.34,1.1-1a5,5,0,0,0,.26-1.67A4.78,4.78,0,0,0,82.3,272.41Z"/><path d="M87.51,277.25a1.58,1.58,0,0,1-1.23-.47,1.78,1.78,0,0,1-.44-1.31v-3.93h-1.1v-.46a1.51,1.51,0,0,0,1.4-.82,3.35,3.35,0,0,0,.39-1.69h.54v2.51h1.79v.46H87.07v4.13c0,.72.22,1.08.69,1.08s.64-.24.83-.71a3.52,3.52,0,0,0,.2-1.25h.47C89.26,276.43,88.68,277.25,87.51,277.25Z"/><path d="M98.22,276.71a2.17,2.17,0,0,1-1.51.54,2.5,2.5,0,0,1-1.81-.76l-.35.67h-.44v-2.53h.45c.41,1.44,1.14,2.15,2.19,2.15a1.06,1.06,0,0,0,.7-.28.88.88,0,0,0,.3-.65.94.94,0,0,0-.35-.76,2.49,2.49,0,0,0-.81-.36,6.93,6.93,0,0,1-1.6-.6,1.56,1.56,0,0,1-.8-1.43,1.71,1.71,0,0,1,.55-1.3,1.91,1.91,0,0,1,1.33-.5,2.61,2.61,0,0,1,1.63.53L98,271h.46v2.26H98a3.68,3.68,0,0,0-.63-1.32,1.64,1.64,0,0,0-1.27-.53.84.84,0,0,0-.6.25.87.87,0,0,0-.25.6c0,.47.29.77.89.94s.86.25,1,.28a6.79,6.79,0,0,1,.91.38,1.61,1.61,0,0,1,.79,1.43A1.89,1.89,0,0,1,98.22,276.71Z"/><path d="M104.57,276.26a2.56,2.56,0,0,1-2,1,2.51,2.51,0,0,1-2.06-1,3.27,3.27,0,0,1-.76-2.17,3.36,3.36,0,0,1,.76-2.19,2.52,2.52,0,0,1,2.06-1,2.57,2.57,0,0,1,2,1,3.36,3.36,0,0,1,.77,2.19A3.27,3.27,0,0,1,104.57,276.26Zm-1-3.85c-.25-.69-.61-1-1.08-1s-.85.35-1.09,1a5,5,0,0,0-.26,1.69,4.44,4.44,0,0,0,.28,1.67c.23.68.59,1,1.07,1s.84-.34,1.09-1a5,5,0,0,0,.26-1.67A5,5,0,0,0,103.6,272.41Z"/><path d="M113.43,277.07v-.47h.33c.34,0,.52-.12.52-.39v-3c0-1.1-.34-1.65-1-1.65a1.08,1.08,0,0,0-.93.5,1.85,1.85,0,0,0-.36,1.12v3.06c0,.27.16.39.51.39h.33v.47h-3v-.47c.56,0,.85-.16.85-.49v-2.92a2.94,2.94,0,0,0-.17-1c-.15-.4-.38-.61-.69-.61a1.19,1.19,0,0,0-.94.53,1.76,1.76,0,0,0-.42,1.08v3c0,.33.28.49.85.49v.47h-3.19v-.47h.65c.27,0,.4-.16.4-.49v-4a.88.88,0,0,0-.06-.38.35.35,0,0,0-.32-.13h-.42v-.48l2.09-.13v.79a1.87,1.87,0,0,1,1.55-.84,1.76,1.76,0,0,1,1.71,1.05,2,2,0,0,1,1.79-1.05c1.33,0,2,.77,2,2.3v3c0,.25.13.38.41.38h.64v.47Z"/><path d="M121.82,276.78a2.5,2.5,0,0,1-1.58.47,2.55,2.55,0,0,1-2.07-1,3.29,3.29,0,0,1-.72-2.2,3.42,3.42,0,0,1,.72-2.22,2.51,2.51,0,0,1,2.06-1,2.26,2.26,0,0,1,1.94,1,4,4,0,0,1,.61,2.22h-3.89a3.68,3.68,0,0,0,.32,1.62,1.28,1.28,0,0,0,1.23.86,2.17,2.17,0,0,0,2-1.43l.4.22A3.57,3.57,0,0,1,121.82,276.78Zm-.7-4.69a1,1,0,0,0-.93-.72,1.11,1.11,0,0,0-1,.83,3.62,3.62,0,0,0-.28,1.44h2c.26,0,.4-.06.4-.23A3.47,3.47,0,0,0,121.12,272.09Z"/><path d="M126.26,277.25a1.6,1.6,0,0,1-1.24-.47,1.82,1.82,0,0,1-.44-1.31v-3.93h-1.09v-.46a1.5,1.5,0,0,0,1.39-.82,3.35,3.35,0,0,0,.39-1.69h.54v2.51h1.79v.46h-1.79v4.13c0,.72.22,1.08.7,1.08s.63-.24.83-.71a3.78,3.78,0,0,0,.19-1.25H128Q128,277.25,126.26,277.25Z"/><path d="M132.35,277.07v-.47h.6a.36.36,0,0,0,.4-.41v-3.47a1.64,1.64,0,0,0-.25-.93.93.93,0,0,0-.81-.42,1.25,1.25,0,0,0-1.08.81,2.83,2.83,0,0,0-.36,1.42v2.59c0,.28.14.41.42.41h.58v.47h-3.23v-.47h.59a.36.36,0,0,0,.4-.41v-6.72c0-.26-.07-.43-.18-.48a2.29,2.29,0,0,0-.61,0v-.49l2-.15v3.48a1.75,1.75,0,0,1,1.57-.87c1.47,0,2.22.83,2.22,2.48v2.79c0,.28.12.41.38.41h.6v.47Z"/><path d="M136.39,277.07v-.47h.74c.22,0,.34-.13.34-.39v-4c0-.25-.06-.43-.2-.51a1.37,1.37,0,0,0-.61-.1v-.45l2.08-.2v5.31c0,.26.11.39.34.39h.74v.47Zm2.19-7.19a.87.87,0,0,1-1.24,0,.85.85,0,0,1-.27-.64.89.89,0,0,1,.27-.65.83.83,0,0,1,.62-.27.88.88,0,0,1,.62.27.93.93,0,0,1,.27.65A.89.89,0,0,1,138.58,269.88Z"/><path d="M144.75,277.07v-.47a2,2,0,0,0,.55-.05.39.39,0,0,0,.28-.43V273c0-1.11-.35-1.67-1-1.67-.41,0-.8.29-1.13.88a2.88,2.88,0,0,0-.46,1.46v2.44a.37.37,0,0,0,.31.4,1.89,1.89,0,0,0,.54.05v.47h-3.14v-.47h.61c.27,0,.41-.13.41-.38v-4.13a.85.85,0,0,0-.07-.38.34.34,0,0,0-.31-.13h-.41v-.48L143,271v1.08a2.08,2.08,0,0,1,1.77-1.13,1.9,1.9,0,0,1,2.14,2.14v3.11c0,.29.12.43.4.43h.61v.47Z"/><path d="M155.08,271.93a.57.57,0,0,1-1-.2c-.11-.27-.18-.41-.21-.41s-.18.08-.35.23a2,2,0,0,1,.46,1.29,1.69,1.69,0,0,1-.76,1.44,2.69,2.69,0,0,1-1.61.49c-1,0-1.45.16-1.45.47,0,.15.11.22.33.22h1.33a4.66,4.66,0,0,1,1.79.25,1.44,1.44,0,0,1,.84,1.44,1.75,1.75,0,0,1-1,1.63,4.28,4.28,0,0,1-2,.41,5.57,5.57,0,0,1-1.78-.21,1.34,1.34,0,0,1-.95-1.33c0-.53.33-.92,1-1.15a1,1,0,0,1-.75-1c0-.58.35-.94,1.07-1.09a1.57,1.57,0,0,1-.68-.67,1.7,1.7,0,0,1-.26-.93,1.68,1.68,0,0,1,.78-1.48,3.25,3.25,0,0,1,3.21-.09,1.64,1.64,0,0,1,1.23-.7.88.88,0,0,1,.61.24.79.79,0,0,1,.24.58A.84.84,0,0,1,155.08,271.93ZM152,276.65c-.5,0-.93,0-1.3,0a1,1,0,0,0-.58,1c0,.69.54,1,1.62,1s1.64-.42,1.64-1.25C153.33,276.93,152.86,276.65,152,276.65Zm-.35-5.29c-.74,0-1.12.51-1.12,1.52a1.75,1.75,0,0,0,.25,1,1,1,0,0,0,.87.44.94.94,0,0,0,.86-.46,1.7,1.7,0,0,0,.25-1C152.71,271.87,152.34,271.36,151.6,271.36Z"/><path d="M162.87,277.25a1.6,1.6,0,0,1-1.24-.47,1.82,1.82,0,0,1-.44-1.31v-3.93h-1.1v-.46a1.51,1.51,0,0,0,1.4-.82,3.35,3.35,0,0,0,.39-1.69h.54v2.51h1.79v.46h-1.79v4.13c0,.72.22,1.08.7,1.08s.63-.24.83-.71a3.78,3.78,0,0,0,.19-1.25h.47Q164.61,277.25,162.87,277.25Z"/><path d="M169,277.07v-.47h.6a.36.36,0,0,0,.4-.41v-3.47a1.64,1.64,0,0,0-.25-.93,1,1,0,0,0-.81-.42,1.25,1.25,0,0,0-1.08.81,2.83,2.83,0,0,0-.36,1.42v2.59c0,.28.14.41.42.41h.58v.47h-3.23v-.47h.59a.36.36,0,0,0,.4-.41v-6.72c0-.26-.07-.43-.18-.48a2.29,2.29,0,0,0-.61,0v-.49l2-.15v3.48a1.75,1.75,0,0,1,1.57-.87c1.47,0,2.22.83,2.22,2.48v2.79c0,.28.12.41.38.41h.6v.47Z"/><path d="M178.67,276.91a1.36,1.36,0,0,1-.65.21,1,1,0,0,1-1.07-.82,2.53,2.53,0,0,1-2,.95,2.29,2.29,0,0,1-1.37-.39,1.4,1.4,0,0,1-.61-1.23q0-1.83,3.82-2.23v-1.2c0-.55-.36-.83-1.06-.83s-1,.21-1,.6a.47.47,0,0,0,.14.26.86.86,0,0,1,.14.46.75.75,0,0,1-.27.59.89.89,0,0,1-.62.23.72.72,0,0,1-.61-.28.93.93,0,0,1-.23-.67,1.37,1.37,0,0,1,.86-1.27,3.32,3.32,0,0,1,1.6-.39c1.53,0,2.29.61,2.29,1.83v3.48c0,.19.07.28.22.28a.56.56,0,0,0,.29-.13.52.52,0,0,1,.21-.11.19.19,0,0,1,.21.21C179,276.64,178.89,276.79,178.67,276.91Zm-3.37-2.56a1.4,1.4,0,0,0-.88,1.19c0,.79.27,1.18.84,1.18a1.55,1.55,0,0,0,1-.47,1.32,1.32,0,0,0,.52-1v-1.43A5.35,5.35,0,0,0,175.3,274.35Z"/><path d="M182.48,277.25a1.56,1.56,0,0,1-1.23-.47,1.79,1.79,0,0,1-.45-1.31v-3.93h-1.09v-.46a1.51,1.51,0,0,0,1.4-.82,3.35,3.35,0,0,0,.39-1.69H182v2.51h1.78v.46H182v4.13c0,.72.22,1.08.69,1.08s.64-.24.83-.71a3.78,3.78,0,0,0,.19-1.25h.47Q184.22,277.25,182.48,277.25Z"/><path d="M193.38,276.78a2.52,2.52,0,0,1-1.58.47,2.57,2.57,0,0,1-2.08-1,3.35,3.35,0,0,1-.72-2.2,3.48,3.48,0,0,1,.72-2.22,2.54,2.54,0,0,1,2.07-1,2.26,2.26,0,0,1,1.94,1,4.09,4.09,0,0,1,.61,2.22h-3.9a3.68,3.68,0,0,0,.32,1.62,1.3,1.3,0,0,0,1.24.86,2.19,2.19,0,0,0,1.95-1.43l.4.22A3.57,3.57,0,0,1,193.38,276.78Zm-.71-4.69a1,1,0,0,0-.92-.72c-.45,0-.79.28-1,.83a3.63,3.63,0,0,0-.27,1.44h2c.26,0,.4-.06.4-.23A3.28,3.28,0,0,0,192.67,272.09Z"/><path d="M198.71,277.07v-.47h.53c.14,0,.22,0,.22-.1a.44.44,0,0,0-.07-.2l-1.3-1.6-1.27,1.6a.38.38,0,0,0-.12.21c0,.06.06.09.2.09h.62v.47h-2.4v-.47h.38c.22,0,.57-.28,1-.86l1.2-1.5-1.6-2c-.35-.42-.61-.62-.81-.62h-.22v-.54h2.76v.54c-.29,0-.43.05-.43.13a.44.44,0,0,0,.14.32l1,1.11,1-1.22a.33.33,0,0,0,.09-.22c0-.08-.06-.14-.17-.14H199v-.52h2.42v.52h-.25c-.31,0-.74.31-1.29.89l-1,1.16,1.85,2.32a1.25,1.25,0,0,0,.91.61H202v.47Z"/><path d="M202.77,277.07v-.47h.73c.23,0,.35-.13.35-.39v-4a.55.55,0,0,0-.21-.51,1.34,1.34,0,0,0-.61-.1v-.45l2.08-.2v5.31c0,.26.11.39.35.39h.73v.47Zm2.19-7.19a.88.88,0,0,1-1.25,0,.84.84,0,0,1-.26-.64.88.88,0,0,1,.26-.65.87.87,0,0,1,.63-.27.9.9,0,0,1,.62.27.92.92,0,0,1,.26.65A.88.88,0,0,1,205,269.88Z"/><path d="M211.23,276.71a2.17,2.17,0,0,1-1.51.54,2.51,2.51,0,0,1-1.81-.76l-.35.67h-.44v-2.53h.46c.4,1.44,1.13,2.15,2.19,2.15a1,1,0,0,0,.69-.28.88.88,0,0,0,.3-.65,1,1,0,0,0-.34-.76,2.67,2.67,0,0,0-.82-.36,6.8,6.8,0,0,1-1.59-.6,1.57,1.57,0,0,1-.81-1.43,1.68,1.68,0,0,1,.56-1.3,1.89,1.89,0,0,1,1.33-.5,2.6,2.6,0,0,1,1.62.53l.3-.47h.46v2.26H211a3.87,3.87,0,0,0-.62-1.32,1.66,1.66,0,0,0-1.28-.53.84.84,0,0,0-.84.85c0,.47.29.77.88.94s.86.25,1,.28a7.66,7.66,0,0,1,.92.38,1.63,1.63,0,0,1,.79,1.43A1.9,1.9,0,0,1,211.23,276.71Z"/><path d="M215.35,277.25a1.56,1.56,0,0,1-1.23-.47,1.79,1.79,0,0,1-.45-1.31v-3.93h-1.09v-.46a1.51,1.51,0,0,0,1.4-.82,3.36,3.36,0,0,0,.38-1.69h.54v2.51h1.79v.46H214.9v4.13c0,.72.23,1.08.7,1.08s.63-.24.83-.71a3.78,3.78,0,0,0,.19-1.25h.47Q217.09,277.25,215.35,277.25Z"/><path d="M222,276.71a2.17,2.17,0,0,1-1.51.54,2.54,2.54,0,0,1-1.82-.76l-.34.67h-.45v-2.53h.46c.4,1.44,1.14,2.15,2.19,2.15a1,1,0,0,0,.69-.28.86.86,0,0,0,.31-.65,1,1,0,0,0-.35-.76,2.46,2.46,0,0,0-.82-.36,6.8,6.8,0,0,1-1.59-.6,1.56,1.56,0,0,1-.8-1.43,1.71,1.71,0,0,1,.55-1.3,1.89,1.89,0,0,1,1.33-.5,2.56,2.56,0,0,1,1.62.53l.31-.47h.45v2.26h-.47a3.69,3.69,0,0,0-.62-1.32,1.66,1.66,0,0,0-1.28-.53.85.85,0,0,0-.84.85c0,.47.29.77.89.94s.86.25,1,.28a7.41,7.41,0,0,1,.91.38,1.61,1.61,0,0,1,.79,1.43A1.89,1.89,0,0,1,222,276.71Z"/><path d="M227.55,277.07v-.47h.74c.22,0,.34-.13.34-.39v-4a.55.55,0,0,0-.21-.51,1.34,1.34,0,0,0-.61-.1v-.45l2.08-.2v5.31c0,.26.11.39.35.39H231v.47Zm2.19-7.19a.8.8,0,0,1-.62.26.82.82,0,0,1-.63-.26.84.84,0,0,1-.26-.64.88.88,0,0,1,.26-.65.87.87,0,0,1,.63-.27.9.9,0,0,1,.62.27.92.92,0,0,1,.26.65A.88.88,0,0,1,229.74,269.88Z"/><path d="M235.91,277.07v-.47a2.14,2.14,0,0,0,.55-.05.39.39,0,0,0,.28-.43V273c0-1.11-.35-1.67-1-1.67-.42,0-.8.29-1.13.88a2.88,2.88,0,0,0-.46,1.46v2.44a.36.36,0,0,0,.3.4,2,2,0,0,0,.54.05v.47h-3.13v-.47h.61a.35.35,0,0,0,.4-.38v-4.13a.73.73,0,0,0-.07-.38.31.31,0,0,0-.3-.13h-.42v-.48l2.07-.13v1.08a2.06,2.06,0,0,1,1.77-1.13,1.89,1.89,0,0,1,2.13,2.14v3.11c0,.29.13.43.41.43H239v.47Z"/><path d="M244.59,276.22a3.57,3.57,0,0,1-.64-2.16,3.66,3.66,0,0,1,.63-2.15,2.27,2.27,0,0,1,1.94-1,1.83,1.83,0,0,1,1.66,1v-2.43A.45.45,0,0,0,248,269a1.61,1.61,0,0,0-.58-.07v-.49l2.05-.15v7.94c0,.24.06.39.19.44a1.22,1.22,0,0,0,.57.07v.49h-2v-1a1.73,1.73,0,0,1-1.64,1A2.22,2.22,0,0,1,244.59,276.22Zm3.27-3.86c-.26-.65-.64-1-1.11-1s-.84.35-1.09,1a5.33,5.33,0,0,0,0,3.35c.23.69.59,1,1.09,1s.87-.35,1.12-1a5.37,5.37,0,0,0,.27-1.73A4.76,4.76,0,0,0,247.86,272.36Z"/><path d="M255.49,272.59a1,1,0,0,1-.52-.26,1.06,1.06,0,0,0-.59-.26c-.47,0-.81.33-1,1a5.55,5.55,0,0,0-.27,1.87v1.3a.33.33,0,0,0,.37.38h.71v.47h-3.4v-.47h.7a.34.34,0,0,0,.38-.38v-4a.6.6,0,0,0-.16-.5,1.31,1.31,0,0,0-.65-.12v-.48l2-.13v1.48a3.15,3.15,0,0,1,.79-1.08,1.79,1.79,0,0,1,1.19-.51,1.38,1.38,0,0,1,.86.26.8.8,0,0,1,.32.65A.66.66,0,0,1,255.49,272.59Z"/><path d="M261.16,276.78a2.54,2.54,0,0,1-1.58.47,2.57,2.57,0,0,1-2.08-1,3.29,3.29,0,0,1-.72-2.2,3.42,3.42,0,0,1,.72-2.22,2.52,2.52,0,0,1,2.06-1,2.25,2.25,0,0,1,1.94,1,4,4,0,0,1,.61,2.22h-3.89a3.68,3.68,0,0,0,.32,1.62,1.29,1.29,0,0,0,1.23.86,2.19,2.19,0,0,0,2-1.43l.4.22A3.79,3.79,0,0,1,261.16,276.78Zm-.71-4.69a1,1,0,0,0-.93-.72,1.11,1.11,0,0,0-1,.83,3.62,3.62,0,0,0-.28,1.44h2c.27,0,.41-.06.41-.23A3.46,3.46,0,0,0,260.45,272.09Z"/><path d="M267.14,276.71a2.17,2.17,0,0,1-1.51.54,2.5,2.5,0,0,1-1.81-.76l-.35.67H263v-2.53h.45c.4,1.44,1.14,2.15,2.19,2.15a1.06,1.06,0,0,0,.7-.28.88.88,0,0,0,.3-.65,1,1,0,0,0-.35-.76,2.49,2.49,0,0,0-.81-.36,6.93,6.93,0,0,1-1.6-.6,1.56,1.56,0,0,1-.8-1.43,1.71,1.71,0,0,1,.55-1.3,1.91,1.91,0,0,1,1.33-.5,2.56,2.56,0,0,1,1.62.53l.31-.47h.46v2.26h-.47a3.68,3.68,0,0,0-.63-1.32,1.65,1.65,0,0,0-1.27-.53.84.84,0,0,0-.6.25.87.87,0,0,0-.25.6c0,.47.29.77.89.94s.86.25,1,.28a6.79,6.79,0,0,1,.91.38,1.61,1.61,0,0,1,.79,1.43A1.89,1.89,0,0,1,267.14,276.71Z"/><path d="M272.81,276.71a2.18,2.18,0,0,1-1.51.54,2.52,2.52,0,0,1-1.82-.76l-.35.67h-.44v-2.53h.46c.4,1.44,1.13,2.15,2.19,2.15a1,1,0,0,0,.69-.28.88.88,0,0,0,.3-.65,1,1,0,0,0-.34-.76,2.67,2.67,0,0,0-.82-.36,6.8,6.8,0,0,1-1.59-.6,1.57,1.57,0,0,1-.81-1.43,1.68,1.68,0,0,1,.56-1.3,1.89,1.89,0,0,1,1.33-.5,2.6,2.6,0,0,1,1.62.53l.3-.47H273v2.26h-.47a3.87,3.87,0,0,0-.62-1.32,1.66,1.66,0,0,0-1.28-.53.82.82,0,0,0-.59.25.83.83,0,0,0-.25.6c0,.47.29.77.88.94s.86.25,1,.28a7,7,0,0,1,.92.38,1.63,1.63,0,0,1,.79,1.43A1.93,1.93,0,0,1,272.81,276.71Z"/><path d="M278.67,276.78a2.8,2.8,0,0,1-3.66-.49,3.29,3.29,0,0,1-.72-2.2,3.42,3.42,0,0,1,.72-2.22,2.51,2.51,0,0,1,2.06-1,2.26,2.26,0,0,1,1.94,1,4,4,0,0,1,.61,2.22h-3.89a3.68,3.68,0,0,0,.32,1.62,1.29,1.29,0,0,0,1.23.86,2.17,2.17,0,0,0,2-1.43l.4.22A3.67,3.67,0,0,1,278.67,276.78Zm-.71-4.69a1,1,0,0,0-.93-.72,1.11,1.11,0,0,0-1,.83,3.62,3.62,0,0,0-.28,1.44h2.05c.27,0,.4-.06.4-.23A3.47,3.47,0,0,0,278,272.09Z"/><path d="M284.65,276.71a2.17,2.17,0,0,1-1.51.54,2.54,2.54,0,0,1-1.82-.76l-.34.67h-.45v-2.53H281c.4,1.44,1.14,2.15,2.19,2.15a1,1,0,0,0,.69-.28.86.86,0,0,0,.31-.65,1,1,0,0,0-.35-.76,2.46,2.46,0,0,0-.82-.36,6.8,6.8,0,0,1-1.59-.6,1.56,1.56,0,0,1-.8-1.43,1.71,1.71,0,0,1,.55-1.3,1.89,1.89,0,0,1,1.33-.5,2.58,2.58,0,0,1,1.62.53l.31-.47h.45v2.26h-.47a3.69,3.69,0,0,0-.62-1.32,1.66,1.66,0,0,0-1.28-.53.85.85,0,0,0-.84.85c0,.47.29.77.89.94s.86.25,1,.28a7.41,7.41,0,0,1,.91.38,1.61,1.61,0,0,1,.79,1.43A1.89,1.89,0,0,1,284.65,276.71Z"/><path d="M295.08,276.26a2.53,2.53,0,0,1-2.05,1,2.5,2.5,0,0,1-2-1,3.27,3.27,0,0,1-.76-2.17,3.36,3.36,0,0,1,.76-2.19,2.51,2.51,0,0,1,2-1,2.54,2.54,0,0,1,2.05,1,3.37,3.37,0,0,1,.78,2.19A3.28,3.28,0,0,1,295.08,276.26Zm-1-3.85c-.25-.69-.61-1-1.08-1s-.85.35-1.08,1a5,5,0,0,0-.26,1.69,4.65,4.65,0,0,0,.27,1.67c.24.68.6,1,1.07,1s.84-.34,1.09-1a5,5,0,0,0,.27-1.67A5,5,0,0,0,294.11,272.41Z"/><path d="M300.76,277.07v-.47a2,2,0,0,0,.55-.05.39.39,0,0,0,.28-.43V273c0-1.11-.35-1.67-1-1.67-.41,0-.8.29-1.13.88a2.88,2.88,0,0,0-.46,1.46v2.44a.37.37,0,0,0,.31.4,1.89,1.89,0,0,0,.54.05v.47h-3.13v-.47h.6c.27,0,.41-.13.41-.38v-4.13a.85.85,0,0,0-.07-.38.34.34,0,0,0-.31-.13h-.41v-.48L299,271v1.08a2.08,2.08,0,0,1,1.78-1.13,1.89,1.89,0,0,1,2.13,2.14v3.11c0,.29.12.43.4.43h.61v.47Z"/><path d="M304.72,277.07v-.47h.7c.24,0,.37-.13.37-.41v-6.72a.45.45,0,0,0-.43-.52H305v-.49l2.07-.15v7.88c0,.28.11.41.34.41h.71v.47Z"/><path d="M314.89,271.55c-.34,0-.59.25-.77.74l-1.35,3.79c-.75,2.05-1.61,3.09-2.58,3.09s-1.33-.34-1.33-1c0-.39.19-.57.6-.57.19,0,.36.12.5.4s.29.4.48.4c.48,0,1-.58,1.43-1.74L310,272.15c-.17-.39-.41-.6-.71-.6H309v-.47h3v.47h-.57c-.19,0-.27.09-.27.22a.72.72,0,0,0,.1.32l1.26,3,1-2.69a2,2,0,0,0,.11-.58c0-.15-.13-.24-.38-.24h-.52v-.47h2.45v.47Z"/><path d="M318.31,277a1,1,0,0,1-1.71-.71,1,1,0,0,1,.29-.72,1,1,0,0,1,1.42,0,1,1,0,0,1,.29.72A1,1,0,0,1,318.31,277Z"/><path d="M331.3,271.61a3.77,3.77,0,0,0-.88-2,3,3,0,0,0-2.07-.63h-1c-.38,0-.56.2-.56.58v2.79h.92a1.17,1.17,0,0,0,1-.5,2.12,2.12,0,0,0,.29-1.18h.48v3.87H329a2.2,2.2,0,0,0-.29-1.17,1.18,1.18,0,0,0-1-.51h-.92v3a.63.63,0,0,0,.43.65,2.15,2.15,0,0,0,.79.1v.47h-3.78v-.47a2.21,2.21,0,0,0,.8-.1.62.62,0,0,0,.42-.65v-6.14c0-.5-.39-.75-1.16-.75v-.46h7.27l.19,3.11Z"/><path d="M338.35,276.91a1.36,1.36,0,0,1-.65.21,1,1,0,0,1-1.07-.82,2.52,2.52,0,0,1-2,.95,2.29,2.29,0,0,1-1.37-.39,1.43,1.43,0,0,1-.61-1.23q0-1.83,3.83-2.23v-1.2c0-.55-.37-.83-1.07-.83s-1,.21-1,.6a.47.47,0,0,0,.14.26.86.86,0,0,1,.14.46.78.78,0,0,1-.26.59.91.91,0,0,1-.63.23.72.72,0,0,1-.61-.28.93.93,0,0,1-.23-.67,1.37,1.37,0,0,1,.86-1.27,3.32,3.32,0,0,1,1.6-.39c1.53,0,2.29.61,2.29,1.83v3.48c0,.19.07.28.22.28a.52.52,0,0,0,.29-.13.52.52,0,0,1,.21-.11.19.19,0,0,1,.21.21C338.7,276.64,338.57,276.79,338.35,276.91ZM335,274.35a1.39,1.39,0,0,0-.89,1.19c0,.79.28,1.18.84,1.18a1.53,1.53,0,0,0,1-.47,1.3,1.3,0,0,0,.53-1v-1.43A5.14,5.14,0,0,0,335,274.35Z"/><path d="M343.71,276.71a2.17,2.17,0,0,1-1.51.54,2.5,2.5,0,0,1-1.81-.76l-.35.67h-.44v-2.53h.45c.41,1.44,1.14,2.15,2.19,2.15a1.06,1.06,0,0,0,.7-.28.88.88,0,0,0,.3-.65.94.94,0,0,0-.35-.76,2.49,2.49,0,0,0-.81-.36,6.93,6.93,0,0,1-1.6-.6,1.56,1.56,0,0,1-.8-1.43,1.71,1.71,0,0,1,.55-1.3,1.91,1.91,0,0,1,1.33-.5,2.61,2.61,0,0,1,1.63.53l.3-.47H344v2.26h-.47a3.68,3.68,0,0,0-.63-1.32,1.64,1.64,0,0,0-1.27-.53.84.84,0,0,0-.6.25.87.87,0,0,0-.25.6c0,.47.29.77.89.94s.86.25,1,.28a6.79,6.79,0,0,1,.91.38,1.61,1.61,0,0,1,.79,1.43A1.89,1.89,0,0,1,343.71,276.71Z"/><path d="M348.85,277.07v-.47h.6a.36.36,0,0,0,.4-.41v-3.47a1.64,1.64,0,0,0-.25-.93.93.93,0,0,0-.81-.42,1.25,1.25,0,0,0-1.08.81,2.83,2.83,0,0,0-.36,1.42v2.59c0,.28.14.41.42.41h.58v.47h-3.23v-.47h.59a.36.36,0,0,0,.4-.41v-6.72c0-.26-.07-.43-.18-.48a2.29,2.29,0,0,0-.61,0v-.49l2-.15v3.48a1.75,1.75,0,0,1,1.57-.87c1.47,0,2.22.83,2.22,2.48v2.79c0,.28.12.41.38.41h.6v.47Z"/><path d="M352.89,277.07v-.47h.74c.22,0,.34-.13.34-.39v-4c0-.25-.06-.43-.2-.51a1.37,1.37,0,0,0-.61-.1v-.45l2.08-.2v5.31c0,.26.11.39.34.39h.74v.47Zm2.19-7.19a.87.87,0,0,1-1.24,0,.85.85,0,0,1-.27-.64.89.89,0,0,1,.27-.65.83.83,0,0,1,.62-.27.88.88,0,0,1,.62.27.93.93,0,0,1,.27.65A.89.89,0,0,1,355.08,269.88Z"/><path d="M362,276.26a2.56,2.56,0,0,1-2.05,1,2.5,2.5,0,0,1-2.05-1,3.22,3.22,0,0,1-.77-2.17,3.31,3.31,0,0,1,.77-2.19,2.51,2.51,0,0,1,2.05-1,2.57,2.57,0,0,1,2.05,1,3.36,3.36,0,0,1,.77,2.19A3.27,3.27,0,0,1,362,276.26Zm-1-3.85c-.25-.69-.61-1-1.08-1s-.85.35-1.08,1a5,5,0,0,0-.27,1.69,4.64,4.64,0,0,0,.28,1.67c.24.68.6,1,1.07,1s.84-.34,1.09-1a5,5,0,0,0,.26-1.67A5,5,0,0,0,361.07,272.41Z"/><path d="M367.72,277.07v-.47a2.14,2.14,0,0,0,.55-.05.39.39,0,0,0,.28-.43V273c0-1.11-.35-1.67-1-1.67-.41,0-.8.29-1.13.88a2.88,2.88,0,0,0-.46,1.46v2.44a.37.37,0,0,0,.3.4,2,2,0,0,0,.54.05v.47h-3.13v-.47h.61c.27,0,.4-.13.4-.38v-4.13a.73.73,0,0,0-.07-.38.31.31,0,0,0-.3-.13h-.41v-.48l2.06-.13v1.08a2.08,2.08,0,0,1,1.77-1.13,1.9,1.9,0,0,1,2.14,2.14v3.11c0,.29.12.43.4.43h.61v.47Z"/><path d="M375.78,277.07v-.47h.73c.22,0,.35-.13.35-.39v-4a.55.55,0,0,0-.21-.51,1.34,1.34,0,0,0-.61-.1v-.45l2.08-.2v5.31c0,.26.11.39.35.39h.73v.47Zm2.19-7.19a.82.82,0,0,1-.63.26.8.8,0,0,1-.62-.26.84.84,0,0,1-.26-.64.88.88,0,0,1,.26-.65.85.85,0,0,1,.62-.27.9.9,0,0,1,.63.27,1,1,0,0,1,.26.65A.93.93,0,0,1,378,269.88Z"/><path d="M384.24,276.71a2.17,2.17,0,0,1-1.51.54,2.5,2.5,0,0,1-1.81-.76l-.35.67h-.44v-2.53h.45c.41,1.44,1.14,2.15,2.19,2.15a1,1,0,0,0,.7-.28.88.88,0,0,0,.3-.65.94.94,0,0,0-.35-.76,2.49,2.49,0,0,0-.81-.36,6.93,6.93,0,0,1-1.6-.6,1.56,1.56,0,0,1-.8-1.43,1.71,1.71,0,0,1,.55-1.3,1.91,1.91,0,0,1,1.33-.5,2.61,2.61,0,0,1,1.63.53l.3-.47h.46v2.26H384a3.68,3.68,0,0,0-.63-1.32,1.65,1.65,0,0,0-1.27-.53.84.84,0,0,0-.6.25.87.87,0,0,0-.25.6c0,.47.29.77.89.94s.86.25,1,.28a6.79,6.79,0,0,1,.91.38,1.61,1.61,0,0,1,.79,1.43A1.89,1.89,0,0,1,384.24,276.71Z"/><path d="M389.82,277.07v-.47h.74c.22,0,.34-.13.34-.39v-4c0-.25-.06-.43-.2-.51a1.37,1.37,0,0,0-.61-.1v-.45l2.08-.2v5.31c0,.26.11.39.34.39h.74v.47Zm2.19-7.19a.87.87,0,0,1-1.24,0,.85.85,0,0,1-.27-.64.89.89,0,0,1,.27-.65.83.83,0,0,1,.62-.27.9.9,0,0,1,.62.27.93.93,0,0,1,.27.65A.89.89,0,0,1,392,269.88Z"/><path d="M398.18,277.07v-.47a2.08,2.08,0,0,0,.55-.05.39.39,0,0,0,.28-.43V273c0-1.11-.35-1.67-1-1.67-.41,0-.8.29-1.13.88a2.88,2.88,0,0,0-.46,1.46v2.44a.37.37,0,0,0,.31.4,1.89,1.89,0,0,0,.54.05v.47H394.1v-.47h.61c.27,0,.41-.13.41-.38v-4.13a.85.85,0,0,0-.07-.38.34.34,0,0,0-.31-.13h-.41v-.48l2.06-.13v1.08a2.08,2.08,0,0,1,1.77-1.13,1.9,1.9,0,0,1,2.14,2.14v3.11c0,.29.12.43.4.43h.61v.47Z"/><path d="M408.86,277.25a1.6,1.6,0,0,1-1.24-.47,1.82,1.82,0,0,1-.44-1.31v-3.93h-1.09v-.46a1.51,1.51,0,0,0,1.4-.82,3.36,3.36,0,0,0,.38-1.69h.54v2.51h1.79v.46h-1.79v4.13c0,.72.23,1.08.7,1.08s.63-.24.83-.71a3.78,3.78,0,0,0,.19-1.25h.47Q410.6,277.25,408.86,277.25Z"/><path d="M415,277.07v-.47h.6a.36.36,0,0,0,.4-.41v-3.47a1.64,1.64,0,0,0-.25-.93.93.93,0,0,0-.8-.42,1.23,1.23,0,0,0-1.08.81,2.83,2.83,0,0,0-.36,1.42v2.59a.36.36,0,0,0,.41.41h.58v.47h-3.22v-.47h.58a.36.36,0,0,0,.4-.41v-6.72c0-.26-.07-.43-.18-.48a2.24,2.24,0,0,0-.61,0v-.49l2-.15v3.48a1.73,1.73,0,0,1,1.56-.87c1.47,0,2.22.83,2.22,2.48v2.79c0,.28.12.41.39.41h.59v.47Z"/><path d="M423.36,276.78a2.52,2.52,0,0,1-1.58.47,2.57,2.57,0,0,1-2.08-1,3.35,3.35,0,0,1-.72-2.2,3.48,3.48,0,0,1,.72-2.22,2.53,2.53,0,0,1,2.07-1,2.26,2.26,0,0,1,1.94,1,4.18,4.18,0,0,1,.61,2.22h-3.9a3.68,3.68,0,0,0,.32,1.62,1.29,1.29,0,0,0,1.23.86,2.19,2.19,0,0,0,2-1.43l.4.22A3.57,3.57,0,0,1,423.36,276.78Zm-.71-4.69a1,1,0,0,0-.92-.72c-.45,0-.79.28-1,.83a3.63,3.63,0,0,0-.27,1.44h2.05c.26,0,.4-.06.4-.23A3.28,3.28,0,0,0,422.65,272.09Z"/><path d="M433.43,276.71a2.17,2.17,0,0,1-1.51.54,2.5,2.5,0,0,1-1.81-.76l-.35.67h-.44v-2.53h.45c.41,1.44,1.14,2.15,2.19,2.15a1.06,1.06,0,0,0,.7-.28.88.88,0,0,0,.3-.65.94.94,0,0,0-.35-.76,2.49,2.49,0,0,0-.81-.36,6.93,6.93,0,0,1-1.6-.6,1.56,1.56,0,0,1-.8-1.43,1.71,1.71,0,0,1,.55-1.3,1.91,1.91,0,0,1,1.33-.5,2.61,2.61,0,0,1,1.63.53l.3-.47h.46v2.26h-.47a3.68,3.68,0,0,0-.63-1.32,1.65,1.65,0,0,0-1.27-.53.84.84,0,0,0-.6.25.87.87,0,0,0-.25.6c0,.47.29.77.89.94s.86.25,1,.28a6.79,6.79,0,0,1,.91.38,1.61,1.61,0,0,1,.79,1.43A1.89,1.89,0,0,1,433.43,276.71Z"/><path d="M438.47,277.07v-.47c.47,0,.71-.09.71-.25A.93.93,0,0,0,439,276L437.86,274l-.81.83v1.2a.46.46,0,0,0,.26.48,2.22,2.22,0,0,0,.66.06v.47h-3.15v-.47h.56c.24,0,.36-.13.36-.41v-6.72c0-.24-.05-.41-.16-.48a2.4,2.4,0,0,0-.61,0v-.49l2.08-.15v5.75l1.88-1.91a.63.63,0,0,0,.25-.46c0-.11-.1-.17-.29-.17h-.49v-.45h2.89v.45a2.22,2.22,0,0,0-1.11.25,5.83,5.83,0,0,0-.82.74l-.61.62,1.52,2.48a1.78,1.78,0,0,0,1.61,1v.47Z"/><path d="M448.57,271.55c-.33,0-.58.25-.76.74l-1.36,3.79c-.75,2.05-1.61,3.09-2.57,3.09s-1.34-.34-1.34-1c0-.39.2-.57.6-.57.19,0,.36.12.5.4s.29.4.48.4c.49,0,1-.58,1.43-1.74l-1.91-4.49c-.17-.39-.4-.6-.71-.6h-.25v-.47h3v.47h-.57c-.19,0-.28.09-.28.22a.72.72,0,0,0,.1.32l1.26,3,1-2.69a1.7,1.7,0,0,0,.11-.58c0-.15-.12-.24-.37-.24h-.53v-.47h2.45v.47Z"/><path d="M450.92,278.7l-.24-.25a1.84,1.84,0,0,0,.73-1.22s-.07-.05-.19-.05a1,1,0,0,1-.74-.29.89.89,0,0,1-.23-.65.91.91,0,0,1,.3-.71,1,1,0,0,1,.72-.28,1,1,0,0,1,.76.33,1.26,1.26,0,0,1,.29.84A2.82,2.82,0,0,1,450.92,278.7Z"/><path d="M457.88,277.07v-.47h.73c.22,0,.35-.13.35-.39v-4a.55.55,0,0,0-.21-.51,1.34,1.34,0,0,0-.61-.1v-.45l2.08-.2v5.31c0,.26.11.39.35.39h.73v.47Zm2.19-7.19a.88.88,0,0,1-1.25,0,.84.84,0,0,1-.26-.64.88.88,0,0,1,.26-.65.86.86,0,0,1,.62-.27.9.9,0,0,1,.63.27,1,1,0,0,1,.26.65A.93.93,0,0,1,460.07,269.88Z"/><path d="M466.23,277.07v-.47a2.18,2.18,0,0,0,.56-.05c.18-.05.27-.19.27-.43V273c0-1.11-.34-1.67-1-1.67-.42,0-.81.29-1.14.88a3,3,0,0,0-.45,1.46v2.44a.36.36,0,0,0,.3.4,1.89,1.89,0,0,0,.54.05v.47h-3.13v-.47h.61a.35.35,0,0,0,.4-.38v-4.13a.85.85,0,0,0-.07-.38.31.31,0,0,0-.3-.13h-.42v-.48l2.07-.13v1.08a2.06,2.06,0,0,1,1.77-1.13,1.89,1.89,0,0,1,2.13,2.14v3.11c0,.29.13.43.4.43h.61v.47Z"/><path d="M7.38,295.25a1.53,1.53,0,0,1-1.23-.47,1.77,1.77,0,0,1-.44-1.3v-3.93H4.61v-.46a1.51,1.51,0,0,0,1.4-.82,3.38,3.38,0,0,0,.39-1.69h.54v2.51H8.72v.46H6.94v4.12c0,.72.22,1.09.69,1.09s.64-.24.83-.71a3.56,3.56,0,0,0,.2-1.25h.47C9.13,294.44,8.54,295.25,7.38,295.25Z"/><path d="M13.48,295.07v-.47h.59a.35.35,0,0,0,.4-.4v-3.48a1.64,1.64,0,0,0-.25-.93.94.94,0,0,0-.8-.41,1.26,1.26,0,0,0-1.08.8,2.89,2.89,0,0,0-.36,1.43v2.59c0,.28.14.4.41.4H13v.47H9.75v-.47h.58a.35.35,0,0,0,.4-.4v-6.72c0-.26-.07-.43-.18-.48a2,2,0,0,0-.61-.05v-.48l2-.15v3.47a1.74,1.74,0,0,1,1.56-.87c1.47,0,2.22.83,2.22,2.48v2.8c0,.28.13.4.39.4h.6v.47Z"/><path d="M21.88,294.78a2.44,2.44,0,0,1-1.58.47,2.54,2.54,0,0,1-2.07-.95,3.3,3.3,0,0,1-.72-2.21,3.4,3.4,0,0,1,.72-2.21,2.51,2.51,0,0,1,2.06-1,2.24,2.24,0,0,1,1.94,1,4,4,0,0,1,.61,2.22H19a3.83,3.83,0,0,0,.31,1.62,1.3,1.3,0,0,0,1.24.86,2.17,2.17,0,0,0,1.95-1.43l.4.22A3.52,3.52,0,0,1,21.88,294.78Zm-.7-4.68a1,1,0,0,0-.93-.72,1.11,1.11,0,0,0-1,.83,3.62,3.62,0,0,0-.28,1.44H21c.26,0,.4-.07.4-.23A3.43,3.43,0,0,0,21.18,290.1Z"/><path d="M32.48,294.71a2.17,2.17,0,0,1-1.51.54,2.54,2.54,0,0,1-1.82-.76l-.34.68h-.44v-2.53h.45c.4,1.44,1.14,2.14,2.19,2.14a1,1,0,0,0,.69-.27.88.88,0,0,0,.31-.66,1,1,0,0,0-.35-.76,2.68,2.68,0,0,0-.82-.36,6.92,6.92,0,0,1-1.59-.59,1.59,1.59,0,0,1-.8-1.43,1.68,1.68,0,0,1,.55-1.3,1.87,1.87,0,0,1,1.33-.5,2.62,2.62,0,0,1,1.62.52l.31-.47h.45v2.26h-.47a3.63,3.63,0,0,0-.62-1.31,1.65,1.65,0,0,0-1.27-.53.85.85,0,0,0-.85.84c0,.48.29.78.89.95s.86.25,1,.27a6.63,6.63,0,0,1,.91.39,1.6,1.6,0,0,1,.79,1.43A1.87,1.87,0,0,1,32.48,294.71Z"/><path d="M36.59,295.25a1.54,1.54,0,0,1-1.23-.47,1.77,1.77,0,0,1-.44-1.3v-3.93h-1.1v-.46a1.51,1.51,0,0,0,1.4-.82,3.38,3.38,0,0,0,.39-1.69h.54v2.51h1.79v.46H36.15v4.12c0,.72.22,1.09.69,1.09s.64-.24.83-.71a3.56,3.56,0,0,0,.2-1.25h.47C38.34,294.44,37.76,295.25,36.59,295.25Z"/><path d="M43.49,290.6a1,1,0,0,1-.53-.26,1,1,0,0,0-.58-.27c-.47,0-.81.33-1,1a5.51,5.51,0,0,0-.27,1.87v1.3a.32.32,0,0,0,.37.37h.71v.47h-3.4v-.47h.7a.33.33,0,0,0,.38-.37v-4a.6.6,0,0,0-.16-.5,1.19,1.19,0,0,0-.65-.13v-.47l2-.14v1.49a3.28,3.28,0,0,1,.79-1.09,1.79,1.79,0,0,1,1.19-.51,1.4,1.4,0,0,1,.86.27.81.81,0,0,1,.32.65A.66.66,0,0,1,43.49,290.6Z"/><path d="M49.16,294.78a2.48,2.48,0,0,1-1.58.47,2.56,2.56,0,0,1-2.08-.95,3.3,3.3,0,0,1-.72-2.21,3.4,3.4,0,0,1,.72-2.21,2.51,2.51,0,0,1,2.06-1,2.24,2.24,0,0,1,1.94,1,4,4,0,0,1,.61,2.22H46.22a3.68,3.68,0,0,0,.32,1.62,1.29,1.29,0,0,0,1.23.86,2.17,2.17,0,0,0,1.95-1.43l.41.22A3.74,3.74,0,0,1,49.16,294.78Zm-.71-4.68a1,1,0,0,0-.93-.72,1.11,1.11,0,0,0-1,.83,3.62,3.62,0,0,0-.28,1.44h2.05c.27,0,.41-.07.41-.23A3.42,3.42,0,0,0,48.45,290.1Z"/><path d="M55.33,294.78a2.44,2.44,0,0,1-1.58.47,2.54,2.54,0,0,1-2.07-.95,3.3,3.3,0,0,1-.72-2.21,3.4,3.4,0,0,1,.72-2.21,2.51,2.51,0,0,1,2.06-1,2.24,2.24,0,0,1,1.94,1,4,4,0,0,1,.61,2.22H52.4a3.83,3.83,0,0,0,.31,1.62,1.3,1.3,0,0,0,1.24.86,2.17,2.17,0,0,0,1.95-1.43l.4.22A3.52,3.52,0,0,1,55.33,294.78Zm-.7-4.68a1,1,0,0,0-.93-.72,1.11,1.11,0,0,0-1,.83,3.62,3.62,0,0,0-.28,1.44h2.05c.26,0,.4-.07.4-.23A3.43,3.43,0,0,0,54.63,290.1Z"/><path d="M59.77,295.25a1.56,1.56,0,0,1-1.24-.47,1.81,1.81,0,0,1-.44-1.3v-3.93H57v-.46a1.5,1.5,0,0,0,1.39-.82,3.38,3.38,0,0,0,.39-1.69h.54v2.51h1.79v.46H59.32v4.12c0,.72.22,1.09.7,1.09s.63-.24.83-.71A3.82,3.82,0,0,0,61,292.8h.47C61.51,294.44,60.93,295.25,59.77,295.25Z"/><path d="M63.5,296.71l-.24-.25a1.84,1.84,0,0,0,.73-1.22s-.07-.06-.19-.06a.92.92,0,0,1-.74-.29.86.86,0,0,1-.23-.65.9.9,0,0,1,.3-.7,1,1,0,0,1,.72-.28,1,1,0,0,1,.76.33,1.24,1.24,0,0,1,.29.83A2.84,2.84,0,0,1,63.5,296.71Z"/><path d="M75.58,288.05a.66.66,0,0,1-.58.28.79.79,0,0,1-.75-.75.7.7,0,0,1,.13-.33.65.65,0,0,0,.12-.3c0-.11-.12-.18-.34-.18-.64,0-1,.52-1,1.54v.75h1.58v.51H73.16v4.6c0,.29.12.43.37.43h.72v.47H70.83v-.47h.74c.23,0,.36-.14.36-.43v-4.58H70.86v-.53h1.08c.08-1.83.82-2.74,2.22-2.74a2.51,2.51,0,0,1,1.06.22.92.92,0,0,1,.59.86A1,1,0,0,1,75.58,288.05Z"/><path d="M82.18,294.92a1.36,1.36,0,0,1-.65.21,1,1,0,0,1-1.07-.82,2.52,2.52,0,0,1-2,.94,2.26,2.26,0,0,1-1.37-.38,1.42,1.42,0,0,1-.61-1.24c0-1.22,1.27-1.95,3.82-2.23v-1.19c0-.55-.36-.83-1.07-.83s-1,.21-1,.6a.47.47,0,0,0,.14.26.84.84,0,0,1,.14.46.77.77,0,0,1-.27.59.94.94,0,0,1-.62.22.7.7,0,0,1-.61-.27.89.89,0,0,1-.24-.67,1.39,1.39,0,0,1,.86-1.27,3.36,3.36,0,0,1,1.61-.39c1.52,0,2.29.61,2.29,1.83v3.47c0,.2.07.28.22.28a.53.53,0,0,0,.29-.12c.1-.07.16-.11.21-.11a.18.18,0,0,1,.2.2A.55.55,0,0,1,82.18,294.92Zm-3.37-2.56a1.39,1.39,0,0,0-.89,1.19c0,.79.28,1.18.85,1.18a1.56,1.56,0,0,0,1-.47,1.32,1.32,0,0,0,.53-1v-1.43A5.25,5.25,0,0,0,78.81,292.36Z"/><path d="M87.54,294.71a2.17,2.17,0,0,1-1.51.54,2.52,2.52,0,0,1-1.82-.76l-.34.68h-.45v-2.53h.46c.4,1.44,1.14,2.14,2.19,2.14a1,1,0,0,0,.69-.27.88.88,0,0,0,.31-.66,1,1,0,0,0-.35-.76,2.8,2.8,0,0,0-.82-.36,6.92,6.92,0,0,1-1.59-.59,1.59,1.59,0,0,1-.8-1.43,1.68,1.68,0,0,1,.55-1.3,1.85,1.85,0,0,1,1.33-.5,2.66,2.66,0,0,1,1.62.52l.31-.47h.45v2.26H87.3a3.81,3.81,0,0,0-.62-1.31,1.66,1.66,0,0,0-1.28-.53.78.78,0,0,0-.59.25.79.79,0,0,0-.25.59c0,.48.29.78.89.95s.85.25,1,.27a7.23,7.23,0,0,1,.91.39,1.6,1.6,0,0,1,.79,1.43A1.87,1.87,0,0,1,87.54,294.71Z"/><path d="M92.68,295.07v-.47h.59c.27,0,.4-.12.4-.4v-3.48a1.64,1.64,0,0,0-.25-.93.94.94,0,0,0-.8-.41,1.26,1.26,0,0,0-1.08.8,2.89,2.89,0,0,0-.36,1.43v2.59c0,.28.14.4.42.4h.58v.47H89v-.47h.58a.35.35,0,0,0,.4-.4v-6.72c0-.26-.07-.43-.18-.48a2,2,0,0,0-.61-.05v-.48l2-.15v3.47a1.75,1.75,0,0,1,1.57-.87c1.46,0,2.21.83,2.21,2.48v2.8c0,.28.13.4.39.4H96v.47Z"/><path d="M96.72,295.07v-.47h.73c.23,0,.35-.12.35-.39v-4a.55.55,0,0,0-.21-.51,1.34,1.34,0,0,0-.61-.1v-.46l2.08-.19v5.3c0,.27.11.39.35.39h.73v.47Zm2.19-7.19a.89.89,0,0,1-1.51-.63.89.89,0,0,1,.89-.92.93.93,0,0,1,.62.26,1,1,0,0,1,.26.66A.86.86,0,0,1,98.91,287.88Z"/><path d="M105.86,294.27a2.52,2.52,0,0,1-2,1,2.5,2.5,0,0,1-2-1,3.27,3.27,0,0,1-.76-2.18,3.33,3.33,0,0,1,.76-2.18,2.51,2.51,0,0,1,2-1,2.54,2.54,0,0,1,2,1,3.29,3.29,0,0,1,.78,2.18A3.24,3.24,0,0,1,105.86,294.27Zm-1-3.85c-.25-.69-.61-1-1.08-1s-.84.35-1.08,1a5,5,0,0,0-.26,1.69,4.53,4.53,0,0,0,.28,1.68c.23.68.59,1,1.06,1s.85-.33,1.1-1a5.29,5.29,0,0,0,.26-1.68A5,5,0,0,0,104.89,290.42Z"/><path d="M111.54,295.07v-.47a2.33,2.33,0,0,0,.56,0c.18-.05.27-.19.27-.43V291c0-1.11-.34-1.66-1-1.66-.42,0-.81.29-1.14.87a3,3,0,0,0-.46,1.47v2.44a.37.37,0,0,0,.31.4,2,2,0,0,0,.54,0v.47h-3.13v-.47h.61c.26,0,.4-.12.4-.37V290.1a.9.9,0,0,0-.07-.39.33.33,0,0,0-.3-.12h-.42v-.49l2.06-.12v1.08a2.1,2.1,0,0,1,1.78-1.14,1.9,1.9,0,0,1,2.13,2.15v3.1c0,.29.13.43.4.43h.61v.47Z"/><path d="M123.77,295.07v-.47h.6a.35.35,0,0,0,.4-.4v-3.48a1.64,1.64,0,0,0-.25-.93.94.94,0,0,0-.8-.41,1.24,1.24,0,0,0-1.08.8,2.89,2.89,0,0,0-.36,1.43v2.59c0,.28.13.4.41.4h.58v.47H120v-.47h.59a.35.35,0,0,0,.4-.4v-6.72c0-.26-.07-.43-.18-.48a2.11,2.11,0,0,0-.61-.05v-.48l2-.15v3.47a1.73,1.73,0,0,1,1.56-.87c1.47,0,2.22.83,2.22,2.48v2.8c0,.28.12.4.39.4H127v.47Z"/><path d="M133.48,294.92a1.36,1.36,0,0,1-.65.21,1,1,0,0,1-1.07-.82,2.52,2.52,0,0,1-2,.94,2.28,2.28,0,0,1-1.37-.38,1.44,1.44,0,0,1-.61-1.24c0-1.22,1.28-1.95,3.82-2.23v-1.19c0-.55-.35-.83-1.06-.83s-1,.21-1,.6a.47.47,0,0,0,.14.26.84.84,0,0,1,.14.46.79.79,0,0,1-.26.59,1,1,0,0,1-.63.22.71.71,0,0,1-.61-.27.93.93,0,0,1-.23-.67,1.37,1.37,0,0,1,.86-1.27,3.32,3.32,0,0,1,1.6-.39c1.53,0,2.29.61,2.29,1.83v3.47c0,.2.07.28.22.28a.5.5,0,0,0,.29-.12.52.52,0,0,1,.21-.11.18.18,0,0,1,.21.2A.56.56,0,0,1,133.48,294.92Zm-3.36-2.56a1.39,1.39,0,0,0-.89,1.19c0,.79.28,1.18.84,1.18a1.58,1.58,0,0,0,1-.47,1.3,1.3,0,0,0,.52-1v-1.43A5.18,5.18,0,0,0,130.12,292.36Z"/><path d="M138.84,294.71a2.17,2.17,0,0,1-1.51.54,2.5,2.5,0,0,1-1.81-.76l-.35.68h-.44v-2.53h.45c.41,1.44,1.14,2.14,2.19,2.14a1,1,0,0,0,.7-.27.91.91,0,0,0,.3-.66,1,1,0,0,0-.35-.76,2.72,2.72,0,0,0-.81-.36,7.05,7.05,0,0,1-1.6-.59,1.59,1.59,0,0,1-.8-1.43,1.68,1.68,0,0,1,.55-1.3,1.87,1.87,0,0,1,1.33-.5,2.67,2.67,0,0,1,1.63.52l.3-.47h.46v2.26h-.47a3.62,3.62,0,0,0-.63-1.31,1.65,1.65,0,0,0-1.27-.53.8.8,0,0,0-.6.25.83.83,0,0,0-.25.59c0,.48.29.78.89.95s.86.25,1,.27a6.63,6.63,0,0,1,.91.39,1.6,1.6,0,0,1,.79,1.43A1.87,1.87,0,0,1,138.84,294.71Z"/><path d="M147.57,295.25a1.56,1.56,0,0,1-1.24-.47,1.81,1.81,0,0,1-.44-1.3v-3.93H144.8v-.46a1.51,1.51,0,0,0,1.4-.82,3.38,3.38,0,0,0,.38-1.69h.54v2.51h1.79v.46h-1.79v4.12c0,.72.23,1.09.7,1.09s.63-.24.83-.71a3.82,3.82,0,0,0,.19-1.25h.47C149.31,294.44,148.73,295.25,147.57,295.25Z"/><path d="M154.87,294.27a2.55,2.55,0,0,1-2.05,1,2.5,2.5,0,0,1-2-1,3.23,3.23,0,0,1-.77-2.18,3.29,3.29,0,0,1,.77-2.18,2.51,2.51,0,0,1,2-1,2.57,2.57,0,0,1,2.05,1,3.34,3.34,0,0,1,.77,2.18A3.28,3.28,0,0,1,154.87,294.27Zm-1-3.85c-.25-.69-.61-1-1.08-1s-.85.35-1.08,1a5,5,0,0,0-.27,1.69,4.74,4.74,0,0,0,.28,1.68c.24.68.6,1,1.07,1s.84-.33,1.09-1a5.43,5.43,0,0,0,0-3.35Z"/><path d="M161.72,294.23a3.6,3.6,0,0,1-.63-2.16,3.66,3.66,0,0,1,.62-2.15,2.25,2.25,0,0,1,1.94-1,1.84,1.84,0,0,1,1.66,1v-2.42a.46.46,0,0,0-.21-.45,1.57,1.57,0,0,0-.58-.07v-.48l2-.15v7.94c0,.23.06.38.2.44a1.15,1.15,0,0,0,.56.07v.48h-2v-.95a1.72,1.72,0,0,1-1.64.95A2.21,2.21,0,0,1,161.72,294.23Zm3.27-3.87c-.26-.65-.63-1-1.11-1s-.84.35-1.09,1a5.56,5.56,0,0,0,0,3.36c.24.69.6,1,1.09,1s.88-.34,1.13-1a5.67,5.67,0,0,0,.26-1.73A4.8,4.8,0,0,0,165,290.36Z"/><path d="M173,294.27a2.55,2.55,0,0,1-2.05,1,2.48,2.48,0,0,1-2-1,3.23,3.23,0,0,1-.77-2.18,3.29,3.29,0,0,1,.77-2.18,2.5,2.5,0,0,1,2-1,2.57,2.57,0,0,1,2.05,1,3.34,3.34,0,0,1,.77,2.18A3.28,3.28,0,0,1,173,294.27Zm-1-3.85c-.25-.69-.61-1-1.08-1s-.85.35-1.08,1a5,5,0,0,0-.27,1.69,4.74,4.74,0,0,0,.28,1.68c.23.68.59,1,1.07,1s.84-.33,1.09-1a5.43,5.43,0,0,0,0-3.35Z"/><path d="M187.68,289.73a2.13,2.13,0,0,0-.32.67l-1.63,4.67H185l-1.26-3.47-1.24,3.47h-.66l-1.77-4.82a2.43,2.43,0,0,0-.27-.55,1,1,0,0,0-.63-.14v-.46h2.71v.46q-.6,0-.6.21a1,1,0,0,0,.07.34l1.18,3.2.9-2.55-.27-.74a.62.62,0,0,0-.61-.46v-.46H185v.46c-.43,0-.64.07-.64.18a.66.66,0,0,0,.07.33l1.23,3.38,1.11-3.16a1.69,1.69,0,0,0,.11-.44c0-.19-.18-.29-.51-.29h-.29v-.46h2.26v.46A1,1,0,0,0,187.68,289.73Z"/><path d="M189.15,295.07v-.47h.73c.22,0,.35-.12.35-.39v-4a.55.55,0,0,0-.21-.51,1.34,1.34,0,0,0-.61-.1v-.46l2.08-.19v5.3c0,.27.11.39.35.39h.73v.47Zm2.19-7.19a.83.83,0,0,1-.63.27.81.81,0,0,1-.62-.27.82.82,0,0,1-.26-.63.9.9,0,0,1,.26-.66.88.88,0,0,1,.62-.26.94.94,0,0,1,.63.26,1,1,0,0,1,.26.66A.9.9,0,0,1,191.34,287.88Z"/><path d="M196.06,295.25a1.53,1.53,0,0,1-1.23-.47,1.78,1.78,0,0,1-.45-1.3v-3.93h-1.09v-.46a1.51,1.51,0,0,0,1.4-.82,3.38,3.38,0,0,0,.39-1.69h.54v2.51h1.78v.46h-1.78v4.12c0,.72.22,1.09.69,1.09s.64-.24.83-.71a3.56,3.56,0,0,0,.2-1.25h.47C197.81,294.44,197.22,295.25,196.06,295.25Z"/><path d="M202.16,295.07v-.47h.59a.35.35,0,0,0,.4-.4v-3.48a1.64,1.64,0,0,0-.25-.93.94.94,0,0,0-.8-.41,1.26,1.26,0,0,0-1.08.8,2.89,2.89,0,0,0-.36,1.43v2.59c0,.28.14.4.41.4h.59v.47h-3.23v-.47H199a.35.35,0,0,0,.4-.4v-6.72c0-.26-.07-.43-.18-.48a2,2,0,0,0-.61-.05v-.48l2-.15v3.47a1.74,1.74,0,0,1,1.56-.87c1.47,0,2.22.83,2.22,2.48v2.8c0,.28.13.4.39.4h.59v.47Z"/><path d="M210.81,295.07v-.47h.74c.22,0,.34-.12.34-.39v-4a.55.55,0,0,0-.21-.51,1.34,1.34,0,0,0-.61-.1v-.46l2.08-.19v5.3c0,.27.11.39.35.39h.73v.47Zm2.19-7.19a.81.81,0,0,1-.62.27.83.83,0,0,1-.63-.27.82.82,0,0,1-.26-.63.89.89,0,0,1,.89-.92.93.93,0,0,1,.62.26,1,1,0,0,1,.26.66A.86.86,0,0,1,213,287.88Z"/><path d="M215.73,294.23a3.61,3.61,0,0,1-.64-2.16,3.73,3.73,0,0,1,.62-2.15,2.28,2.28,0,0,1,1.94-1,1.84,1.84,0,0,1,1.67,1v-2.42a.46.46,0,0,0-.21-.45,1.61,1.61,0,0,0-.58-.07v-.48l2.05-.15v7.94c0,.23,0,.38.19.44a1.22,1.22,0,0,0,.57.07v.48h-2v-.95a1.7,1.7,0,0,1-1.63.95A2.21,2.21,0,0,1,215.73,294.23Zm3.27-3.87c-.26-.65-.64-1-1.11-1s-.85.35-1.09,1a5.36,5.36,0,0,0,0,3.36c.23.69.59,1,1.09,1s.87-.34,1.12-1a5.37,5.37,0,0,0,.27-1.73A4.8,4.8,0,0,0,219,290.36Z"/><path d="M226.55,294.78a2.46,2.46,0,0,1-1.58.47,2.56,2.56,0,0,1-2.08-.95,3.36,3.36,0,0,1-.72-2.21,3.45,3.45,0,0,1,.72-2.21,2.52,2.52,0,0,1,2.06-1,2.23,2.23,0,0,1,1.94,1,4,4,0,0,1,.61,2.22h-3.89a3.68,3.68,0,0,0,.32,1.62,1.29,1.29,0,0,0,1.23.86,2.19,2.19,0,0,0,2-1.43l.4.22A3.74,3.74,0,0,1,226.55,294.78Zm-.71-4.68a1,1,0,0,0-.93-.72,1.11,1.11,0,0,0-1,.83,3.62,3.62,0,0,0-.28,1.44h2c.27,0,.41-.07.41-.23A3.42,3.42,0,0,0,225.84,290.1Z"/><path d="M234,294.92a1.36,1.36,0,0,1-.65.21,1,1,0,0,1-1.07-.82,2.52,2.52,0,0,1-2,.94,2.26,2.26,0,0,1-1.37-.38,1.42,1.42,0,0,1-.61-1.24c0-1.22,1.27-1.95,3.82-2.23v-1.19c0-.55-.36-.83-1.07-.83s-.95.21-.95.6a.47.47,0,0,0,.14.26.84.84,0,0,1,.14.46.77.77,0,0,1-.27.59.94.94,0,0,1-.62.22.71.71,0,0,1-.61-.27.89.89,0,0,1-.24-.67,1.39,1.39,0,0,1,.86-1.27,3.36,3.36,0,0,1,1.61-.39c1.52,0,2.29.61,2.29,1.83v3.47c0,.2.07.28.22.28a.53.53,0,0,0,.29-.12c.1-.07.16-.11.21-.11a.18.18,0,0,1,.2.2A.55.55,0,0,1,234,294.92Zm-3.37-2.56a1.41,1.41,0,0,0-.89,1.19c0,.79.28,1.18.85,1.18a1.56,1.56,0,0,0,1-.47,1.32,1.32,0,0,0,.53-1v-1.43A5.35,5.35,0,0,0,230.66,292.36Z"/><path d="M239.39,294.71a2.17,2.17,0,0,1-1.51.54,2.52,2.52,0,0,1-1.82-.76l-.34.68h-.45v-2.53h.46c.4,1.44,1.14,2.14,2.19,2.14a1,1,0,0,0,.69-.27.88.88,0,0,0,.31-.66,1,1,0,0,0-.35-.76,2.8,2.8,0,0,0-.82-.36,6.92,6.92,0,0,1-1.59-.59,1.59,1.59,0,0,1-.8-1.43,1.68,1.68,0,0,1,.55-1.3,1.85,1.85,0,0,1,1.33-.5,2.66,2.66,0,0,1,1.62.52l.31-.47h.45v2.26h-.47a3.81,3.81,0,0,0-.62-1.31,1.66,1.66,0,0,0-1.28-.53.85.85,0,0,0-.84.84c0,.48.29.78.89.95s.86.25,1,.27a7.23,7.23,0,0,1,.91.39,1.6,1.6,0,0,1,.79,1.43A1.87,1.87,0,0,1,239.39,294.71Z"/><path d="M242.17,296.71l-.25-.25a1.82,1.82,0,0,0,.74-1.22s-.07-.06-.2-.06a.88.88,0,0,1-.73-.29.83.83,0,0,1-.24-.65.91.91,0,0,1,.31-.7,1,1,0,0,1,.72-.28,1,1,0,0,1,.76.33,1.29,1.29,0,0,1,.29.83A2.84,2.84,0,0,1,242.17,296.71Z"/><path d="M252.27,295.25a1.53,1.53,0,0,1-1.23-.47,1.78,1.78,0,0,1-.45-1.3v-3.93H249.5v-.46a1.51,1.51,0,0,0,1.4-.82,3.38,3.38,0,0,0,.39-1.69h.54v2.51h1.78v.46h-1.78v4.12c0,.72.22,1.09.69,1.09s.64-.24.83-.71a3.82,3.82,0,0,0,.19-1.25H254C254,294.44,253.43,295.25,252.27,295.25Z"/><path d="M258.36,295.07v-.47h.6a.35.35,0,0,0,.4-.4v-3.48a1.64,1.64,0,0,0-.25-.93.94.94,0,0,0-.8-.41,1.24,1.24,0,0,0-1.08.8,2.89,2.89,0,0,0-.36,1.43v2.59c0,.28.14.4.41.4h.58v.47h-3.22v-.47h.58a.35.35,0,0,0,.4-.4v-6.72c0-.26-.07-.43-.18-.48a2.06,2.06,0,0,0-.61-.05v-.48l2-.15v3.47a1.73,1.73,0,0,1,1.56-.87c1.47,0,2.22.83,2.22,2.48v2.8c0,.28.12.4.39.4h.59v.47Z"/><path d="M266.77,294.78a2.46,2.46,0,0,1-1.58.47,2.56,2.56,0,0,1-2.08-.95,3.36,3.36,0,0,1-.72-2.21,3.45,3.45,0,0,1,.72-2.21,2.54,2.54,0,0,1,2.07-1,2.24,2.24,0,0,1,1.94,1,4.09,4.09,0,0,1,.61,2.22h-3.9a3.83,3.83,0,0,0,.32,1.62,1.3,1.3,0,0,0,1.24.86,2.19,2.19,0,0,0,1.95-1.43l.4.22A3.52,3.52,0,0,1,266.77,294.78Zm-.71-4.68a1,1,0,0,0-.92-.72c-.45,0-.79.28-1,.83a3.81,3.81,0,0,0-.27,1.44h2c.26,0,.4-.07.4-.23A3.24,3.24,0,0,0,266.06,290.1Z"/><path d="M281.62,289.73a2.13,2.13,0,0,0-.32.67l-1.63,4.67H279l-1.26-3.47-1.24,3.47h-.66L274,290.25a2.15,2.15,0,0,0-.26-.55,1.06,1.06,0,0,0-.64-.14v-.46h2.72v.46q-.6,0-.6.21a1,1,0,0,0,.07.34l1.18,3.2.9-2.55-.28-.74a.6.6,0,0,0-.61-.46v-.46H279v.46c-.43,0-.63.07-.63.18a.66.66,0,0,0,.07.33l1.23,3.38,1.11-3.16a1.69,1.69,0,0,0,.11-.44c0-.19-.18-.29-.51-.29h-.29v-.46h2.25v.46A1,1,0,0,0,281.62,289.73Z"/><path d="M288.75,294.92a1.33,1.33,0,0,1-.65.21,1,1,0,0,1-1.06-.82,2.54,2.54,0,0,1-2,.94,2.28,2.28,0,0,1-1.37-.38,1.44,1.44,0,0,1-.61-1.24c0-1.22,1.28-1.95,3.83-2.23v-1.19c0-.55-.36-.83-1.07-.83s-1,.21-1,.6a.55.55,0,0,0,.14.26.76.76,0,0,1,.14.46.79.79,0,0,1-.26.59,1,1,0,0,1-.63.22.71.71,0,0,1-.61-.27.93.93,0,0,1-.23-.67,1.39,1.39,0,0,1,.86-1.27,3.36,3.36,0,0,1,1.61-.39q2.28,0,2.28,1.83v3.47c0,.2.07.28.22.28a.5.5,0,0,0,.29-.12.52.52,0,0,1,.21-.11.18.18,0,0,1,.21.2A.56.56,0,0,1,288.75,294.92Zm-3.36-2.56a1.39,1.39,0,0,0-.89,1.19c0,.79.28,1.18.84,1.18a1.58,1.58,0,0,0,1-.47,1.32,1.32,0,0,0,.53-1v-1.43A5.14,5.14,0,0,0,285.39,292.36Z"/><path d="M295.89,289.56c-.34,0-.59.25-.77.73l-1.35,3.8c-.75,2.05-1.61,3.09-2.58,3.09s-1.33-.35-1.33-1c0-.38.19-.56.6-.56.19,0,.36.12.5.4s.29.4.48.4c.48,0,1-.58,1.43-1.75L291,290.16c-.17-.39-.41-.6-.71-.6H290v-.47h3v.47h-.57c-.19,0-.27.08-.27.22a.75.75,0,0,0,.1.32l1.26,3,1-2.68a2,2,0,0,0,.11-.59c0-.15-.13-.23-.38-.23h-.52v-.47h2.45v.47Z"/><path d="M310,289.73a1.92,1.92,0,0,0-.32.67L308,295.07h-.72l-1.26-3.47-1.23,3.47h-.66l-1.78-4.82a2.58,2.58,0,0,0-.26-.55,1.06,1.06,0,0,0-.64-.14v-.46h2.72v.46c-.41,0-.6.07-.6.21a1,1,0,0,0,.07.34l1.18,3.2.9-2.55-.28-.74a.61.61,0,0,0-.61-.46v-.46h2.48v.46c-.43,0-.64.07-.64.18a.78.78,0,0,0,.07.33l1.24,3.38,1.11-3.16a2.25,2.25,0,0,0,.11-.44c0-.19-.18-.29-.52-.29h-.29v-.46h2.26v.46A1,1,0,0,0,310,289.73Z"/><path d="M315.82,294.78a2.46,2.46,0,0,1-1.58.47,2.56,2.56,0,0,1-2.08-.95,3.36,3.36,0,0,1-.72-2.21,3.45,3.45,0,0,1,.72-2.21,2.52,2.52,0,0,1,2.06-1,2.26,2.26,0,0,1,1.95,1,4.09,4.09,0,0,1,.6,2.22h-3.89a3.68,3.68,0,0,0,.32,1.62,1.29,1.29,0,0,0,1.23.86,2.19,2.19,0,0,0,2-1.43l.4.22A3.63,3.63,0,0,1,315.82,294.78Zm-.71-4.68a1,1,0,0,0-.93-.72,1.11,1.11,0,0,0-1,.83,3.62,3.62,0,0,0-.28,1.44H315c.26,0,.4-.07.4-.23A3.42,3.42,0,0,0,315.11,290.1Z"/><path d="M322.23,295.07v-.47h.71c.23,0,.36-.12.36-.4v-6.72a.46.46,0,0,0-.43-.53h-.38v-.48l2.07-.15v7.88c0,.28.11.4.34.4h.71v.47Z"/><path d="M326.46,295.07v-.47h.73c.22,0,.35-.12.35-.39v-4a.55.55,0,0,0-.21-.51,1.37,1.37,0,0,0-.61-.1v-.46l2.08-.19v5.3c0,.27.11.39.34.39h.74v.47Zm2.18-7.19a.85.85,0,0,1-1.24,0,.83.83,0,0,1-.27-.63.91.91,0,0,1,.27-.66.86.86,0,0,1,.62-.26.91.91,0,0,1,.62.26,1,1,0,0,1,.27.66A.87.87,0,0,1,328.64,287.88Z"/><path d="M336.37,289.92a3.23,3.23,0,0,0-.41.82l-1.64,4.33h-.74l-2-4.94a1,1,0,0,0-.33-.47,1.35,1.35,0,0,0-.61-.11v-.46h2.82v.46a3.16,3.16,0,0,0-.43,0,.25.25,0,0,0-.18.27,1.13,1.13,0,0,0,.11.33l1.33,3.37,1.17-3.08a2.4,2.4,0,0,0,.14-.64c0-.18-.2-.27-.59-.27h-.2v-.46h2.35v.46A1,1,0,0,0,336.37,289.92Z"/><path d="M342.33,294.78a2.46,2.46,0,0,1-1.58.47,2.56,2.56,0,0,1-2.08-.95,3.36,3.36,0,0,1-.72-2.21,3.45,3.45,0,0,1,.72-2.21,2.53,2.53,0,0,1,2.07-1,2.24,2.24,0,0,1,1.94,1,4.18,4.18,0,0,1,.61,2.22h-3.9a3.68,3.68,0,0,0,.32,1.62,1.29,1.29,0,0,0,1.23.86,2.19,2.19,0,0,0,2-1.43l.4.22A3.52,3.52,0,0,1,342.33,294.78Zm-.71-4.68a1,1,0,0,0-.92-.72c-.45,0-.79.28-1,.83a3.63,3.63,0,0,0-.27,1.44h2c.26,0,.4-.07.4-.23A3.24,3.24,0,0,0,341.62,290.1Z"/><path d="M345.43,296.71l-.25-.25a1.82,1.82,0,0,0,.74-1.22s-.07-.06-.2-.06a.88.88,0,0,1-.73-.29.83.83,0,0,1-.24-.65.91.91,0,0,1,.31-.7,1,1,0,0,1,.72-.28,1,1,0,0,1,.76.33,1.29,1.29,0,0,1,.29.83A2.84,2.84,0,0,1,345.43,296.71Z"/><path d="M361.33,289.73a2,2,0,0,0-.31.67l-1.64,4.67h-.72l-1.26-3.47-1.23,3.47h-.67l-1.77-4.82a2.05,2.05,0,0,0-.27-.55,1,1,0,0,0-.63-.14v-.46h2.71v.46c-.4,0-.59.07-.59.21a.79.79,0,0,0,.07.34l1.17,3.2.9-2.55-.27-.74a.61.61,0,0,0-.61-.46v-.46h2.48v.46c-.43,0-.64.07-.64.18a.78.78,0,0,0,.07.33l1.23,3.38,1.11-3.16a1.69,1.69,0,0,0,.11-.44c0-.19-.18-.29-.51-.29h-.29v-.46H362v.46A1,1,0,0,0,361.33,289.73Z"/><path d="M366.44,295.07v-.47h.6a.35.35,0,0,0,.4-.4v-3.48a1.64,1.64,0,0,0-.25-.93.94.94,0,0,0-.8-.41,1.26,1.26,0,0,0-1.08.8,2.89,2.89,0,0,0-.36,1.43v2.59c0,.28.14.4.41.4H366v.47h-3.23v-.47h.58a.35.35,0,0,0,.4-.4v-6.72c0-.26-.07-.43-.18-.48a2,2,0,0,0-.61-.05v-.48l2-.15v3.47a1.73,1.73,0,0,1,1.56-.87c1.47,0,2.22.83,2.22,2.48v2.8c0,.28.13.4.39.4h.59v.47Z"/><path d="M376.15,294.92a1.3,1.3,0,0,1-.65.21,1,1,0,0,1-1.06-.82,2.53,2.53,0,0,1-2,.94,2.3,2.3,0,0,1-1.38-.38,1.44,1.44,0,0,1-.61-1.24c0-1.22,1.28-1.95,3.83-2.23v-1.19c0-.55-.36-.83-1.07-.83s-1,.21-1,.6a.51.51,0,0,0,.13.26.81.81,0,0,1-.12,1.05.94.94,0,0,1-.62.22.69.69,0,0,1-.61-.27.89.89,0,0,1-.24-.67,1.39,1.39,0,0,1,.86-1.27,3.36,3.36,0,0,1,1.61-.39q2.28,0,2.28,1.83v3.47c0,.2.07.28.22.28a.55.55,0,0,0,.3-.12.44.44,0,0,1,.2-.11.18.18,0,0,1,.21.2A.54.54,0,0,1,376.15,294.92Zm-3.36-2.56a1.39,1.39,0,0,0-.89,1.19c0,.79.28,1.18.85,1.18a1.56,1.56,0,0,0,1-.47,1.32,1.32,0,0,0,.53-1v-1.43A5.14,5.14,0,0,0,372.79,292.36Z"/><path d="M380,295.25a1.54,1.54,0,0,1-1.23-.47,1.77,1.77,0,0,1-.44-1.3v-3.93h-1.1v-.46a1.51,1.51,0,0,0,1.4-.82,3.38,3.38,0,0,0,.39-1.69h.54v2.51h1.79v.46h-1.79v4.12c0,.72.22,1.09.69,1.09s.64-.24.83-.71a3.56,3.56,0,0,0,.2-1.25h.47C381.71,294.44,381.13,295.25,380,295.25Z"/><path d="M387,295.07v-.47h.73c.22,0,.35-.12.35-.39v-4a.55.55,0,0,0-.21-.51,1.37,1.37,0,0,0-.61-.1v-.46l2.08-.19v5.3c0,.27.11.39.34.39h.74v.47Zm2.18-7.19a.85.85,0,0,1-1.24,0,.82.82,0,0,1-.26-.63.9.9,0,0,1,.26-.66.86.86,0,0,1,.62-.26.9.9,0,0,1,.62.26,1,1,0,0,1,.27.66A.87.87,0,0,1,389.21,287.88Z"/><path d="M395.49,294.71a2.17,2.17,0,0,1-1.51.54,2.5,2.5,0,0,1-1.81-.76l-.35.68h-.44v-2.53h.45c.4,1.44,1.14,2.14,2.19,2.14a1,1,0,0,0,.69-.27.88.88,0,0,0,.31-.66,1,1,0,0,0-.35-.76,2.72,2.72,0,0,0-.81-.36,7.05,7.05,0,0,1-1.6-.59,1.59,1.59,0,0,1-.8-1.43,1.68,1.68,0,0,1,.55-1.3,1.87,1.87,0,0,1,1.33-.5,2.62,2.62,0,0,1,1.62.52l.31-.47h.46v2.26h-.48a3.47,3.47,0,0,0-.62-1.31,1.65,1.65,0,0,0-1.27-.53.85.85,0,0,0-.85.84c0,.48.29.78.89.95s.86.25,1,.27a6.63,6.63,0,0,1,.91.39,1.6,1.6,0,0,1,.79,1.43A1.87,1.87,0,0,1,395.49,294.71Z"/><path d="M405.24,295.07v-.47h.6a.35.35,0,0,0,.4-.4v-3.48a1.64,1.64,0,0,0-.25-.93.94.94,0,0,0-.8-.41,1.24,1.24,0,0,0-1.08.8,2.89,2.89,0,0,0-.36,1.43v2.59c0,.28.13.4.41.4h.58v.47h-3.23v-.47h.59a.35.35,0,0,0,.4-.4v-6.72c0-.26-.07-.43-.18-.48a2.11,2.11,0,0,0-.61-.05v-.48l2-.15v3.47a1.73,1.73,0,0,1,1.56-.87c1.47,0,2.22.83,2.22,2.48v2.8c0,.28.12.4.39.4h.59v.47Z"/><path d="M415,294.92a1.36,1.36,0,0,1-.65.21,1,1,0,0,1-1.07-.82,2.52,2.52,0,0,1-2,.94,2.28,2.28,0,0,1-1.37-.38,1.42,1.42,0,0,1-.61-1.24c0-1.22,1.28-1.95,3.82-2.23v-1.19c0-.55-.36-.83-1.06-.83s-1,.21-1,.6a.47.47,0,0,0,.14.26.84.84,0,0,1,.14.46.79.79,0,0,1-.26.59,1,1,0,0,1-.63.22.71.71,0,0,1-.61-.27.93.93,0,0,1-.23-.67,1.37,1.37,0,0,1,.86-1.27,3.32,3.32,0,0,1,1.6-.39c1.53,0,2.29.61,2.29,1.83v3.47c0,.2.07.28.22.28a.53.53,0,0,0,.29-.12.52.52,0,0,1,.21-.11.18.18,0,0,1,.21.2A.56.56,0,0,1,415,294.92Zm-3.37-2.56a1.4,1.4,0,0,0-.88,1.19c0,.79.28,1.18.84,1.18a1.58,1.58,0,0,0,1-.47,1.3,1.3,0,0,0,.52-1v-1.43A5.35,5.35,0,0,0,411.58,292.36Z"/><path d="M421.88,294.12a2.28,2.28,0,0,1-1.94,1,1.78,1.78,0,0,1-1.44-.53v1.76c0,.26.12.4.38.4h.73v.47h-3.48v-.47h.72a.36.36,0,0,0,.39-.4v-6.08a.5.5,0,0,0-.48-.57h-.4v-.48l2.14-.16v.56a1.54,1.54,0,0,1,1.44-.68,2.34,2.34,0,0,1,1.94,1,3.59,3.59,0,0,1,.63,2.12A3.55,3.55,0,0,1,421.88,294.12Zm-1.07-3.77c-.25-.64-.61-1-1.09-1s-.89.35-1.14,1a5.1,5.1,0,0,0-.26,1.72,4,4,0,0,0,.27,1.58,1.21,1.21,0,0,0,1.13.9c.47,0,.83-.32,1.08-1a5,5,0,0,0,.26-1.63A4.85,4.85,0,0,0,420.81,290.35Z"/><path d="M429.09,294.12a2.26,2.26,0,0,1-1.94,1,1.8,1.8,0,0,1-1.44-.53v1.76a.35.35,0,0,0,.39.4h.72v.47h-3.48v-.47h.72a.36.36,0,0,0,.39-.4v-6.08c0-.35-.16-.54-.47-.57h-.4v-.48l2.13-.16v.56a1.55,1.55,0,0,1,1.44-.68,2.31,2.31,0,0,1,1.94,1,3.53,3.53,0,0,1,.64,2.12A3.49,3.49,0,0,1,429.09,294.12ZM428,290.35c-.25-.64-.61-1-1.1-1s-.88.35-1.13,1a5.09,5.09,0,0,0-.27,1.72,4,4,0,0,0,.28,1.58,1.2,1.2,0,0,0,1.12.9c.47,0,.83-.32,1.08-1a4.76,4.76,0,0,0,.27-1.63A5.11,5.11,0,0,0,428,290.35Z"/><path d="M434.94,294.78a2.46,2.46,0,0,1-1.58.47,2.56,2.56,0,0,1-2.08-.95,3.36,3.36,0,0,1-.72-2.21,3.45,3.45,0,0,1,.72-2.21,2.53,2.53,0,0,1,2.07-1,2.25,2.25,0,0,1,1.94,1,4.18,4.18,0,0,1,.61,2.22H432a3.68,3.68,0,0,0,.32,1.62,1.29,1.29,0,0,0,1.23.86,2.19,2.19,0,0,0,2-1.43l.4.22A3.63,3.63,0,0,1,434.94,294.78Zm-.71-4.68a1,1,0,0,0-.93-.72,1.11,1.11,0,0,0-1,.83,3.63,3.63,0,0,0-.27,1.44h2.05c.26,0,.4-.07.4-.23A3.42,3.42,0,0,0,434.23,290.1Z"/><path d="M440.81,295.07v-.47a2.33,2.33,0,0,0,.56,0c.18-.05.27-.19.27-.43V291c0-1.11-.34-1.66-1-1.66-.42,0-.81.29-1.14.87a3,3,0,0,0-.45,1.47v2.44a.36.36,0,0,0,.3.4,2,2,0,0,0,.54,0v.47h-3.13v-.47h.61c.26,0,.4-.12.4-.37V290.1a.9.9,0,0,0-.07-.39.33.33,0,0,0-.3-.12H437v-.49L439,289v1.08a2.08,2.08,0,0,1,1.77-1.14,1.9,1.9,0,0,1,2.13,2.15v3.1c0,.29.13.43.4.43h.61v.47Z"/><path d="M444.79,295.07v-.47h.73c.22,0,.35-.12.35-.39v-4a.55.55,0,0,0-.21-.51,1.37,1.37,0,0,0-.61-.1v-.46l2.08-.19v5.3c0,.27.11.39.34.39h.74v.47Zm2.18-7.19a.85.85,0,0,1-1.24,0,.83.83,0,0,1-.27-.63.91.91,0,0,1,.27-.66.86.86,0,0,1,.62-.26.91.91,0,0,1,.62.26,1,1,0,0,1,.27.66A.87.87,0,0,1,447,287.88Z"/><path d="M453.14,295.07v-.47a2.18,2.18,0,0,0,.55,0,.39.39,0,0,0,.28-.43V291c0-1.11-.35-1.66-1-1.66-.42,0-.81.29-1.14.87a2.91,2.91,0,0,0-.46,1.47v2.44a.37.37,0,0,0,.31.4,2,2,0,0,0,.54,0v.47h-3.13v-.47h.61c.26,0,.4-.12.4-.37V290.1a.9.9,0,0,0-.07-.39.35.35,0,0,0-.31-.12h-.41v-.49l2.06-.12v1.08a2.09,2.09,0,0,1,1.78-1.14,1.9,1.9,0,0,1,2.13,2.15v3.1c0,.29.12.43.4.43h.61v.47Z"/><path d="M463.47,289.93a.56.56,0,0,1-1-.19q-.17-.42-.21-.42a1,1,0,0,0-.35.24,2,2,0,0,1,.46,1.29,1.69,1.69,0,0,1-.76,1.44,2.69,2.69,0,0,1-1.61.48c-1,0-1.45.17-1.45.47s.11.23.33.23h1.33a4.66,4.66,0,0,1,1.79.25,1.44,1.44,0,0,1,.84,1.44,1.75,1.75,0,0,1-1,1.63,4.38,4.38,0,0,1-2,.4,5.94,5.94,0,0,1-1.78-.2,1.35,1.35,0,0,1-.95-1.33c0-.53.33-.92,1-1.15a1.06,1.06,0,0,1-.74-1c0-.58.34-.94,1.06-1.09a1.68,1.68,0,0,1-.68-.67,1.72,1.72,0,0,1-.26-.93,1.67,1.67,0,0,1,.78-1.48,2.81,2.81,0,0,1,1.66-.47,2.85,2.85,0,0,1,1.55.37,1.66,1.66,0,0,1,1.23-.69.84.84,0,0,1,.61.24.75.75,0,0,1,.24.58A.83.83,0,0,1,463.47,289.93Zm-3.13,4.73c-.5,0-.93,0-1.3,0a1,1,0,0,0-.58,1c0,.7.54,1,1.62,1s1.65-.41,1.65-1.24C461.73,294.94,461.26,294.66,460.34,294.66Zm-.34-5.29c-.75,0-1.13.51-1.13,1.52a1.8,1.8,0,0,0,.25,1,1,1,0,0,0,1.73,0,1.7,1.7,0,0,0,.25-1C461.1,289.88,460.73,289.37,460,289.37Z"/><path d="M466.91,295a1,1,0,0,1-1.42,0,1,1,0,0,1-.29-.7,1,1,0,0,1,.29-.72,1,1,0,0,1,1.42,0,1,1,0,0,1,.29.72A1,1,0,0,1,466.91,295Z"/><path d="M21.78,112.89v1.54h-20v-1.54l7.42-1c.05-2.89.1-5.83.1-8.68V83.64l-6.75.72V82.53L14,79.74l.68.53-.15,7.61v15.37c0,2.85.05,5.74.1,8.68Z"/><path d="M50,109.9v4.53H27.66V111c2.89-3,5.69-6,8.05-8.38,5.4-5.69,7.56-9.49,7.56-13.93s-2.45-7.23-6.4-7.23a14.11,14.11,0,0,0-2.61.29l-1.11,4.1c-.57,2.6-1.63,3.42-3,3.42a3,3,0,0,1-2.65-1.69c.62-5.34,5.49-8.09,11-8.09,6.94,0,10.17,3.76,10.17,9.15,0,4.63-2.94,8.49-11.28,15.67-1.49,1.34-3.71,3.42-6.16,5.63Z"/><path d="M54.31,99.45H67v3.18H54.31Z"/><path d="M94.11,109.9v4.53H71.8V111c2.89-3,5.69-6,8-8.38,5.4-5.69,7.56-9.49,7.56-13.93S85,81.42,81,81.42a14.11,14.11,0,0,0-2.6.29l-1.11,4.1c-.57,2.6-1.63,3.42-3,3.42a3,3,0,0,1-2.65-1.69c.62-5.34,5.49-8.09,11-8.09,6.94,0,10.17,3.76,10.17,9.15,0,4.63-2.94,8.49-11.28,15.67-1.49,1.34-3.71,3.42-6.16,5.63Z"/><path d="M121.1,106c0,5.45-4.58,9.16-11.42,9.16s-10.94-3.09-10.94-8.29c0-4,2.7-6.7,7.8-8.92-4.67-2.45-6.79-5.64-6.79-9.49,0-5.54,4.58-9,10.31-9,6.07,0,9.54,3.47,9.54,8,0,2.79-1.68,5.78-6.65,8.33C118.5,98.48,121.1,101.42,121.1,106Zm-4.92,1c0-3.23-1.93-5.49-8.19-8.38-3.08,2.12-4.58,4.14-4.58,7.56,0,4.39,2.56,7.09,6.56,7.09A5.88,5.88,0,0,0,116.18,107Zm-4.72-11.9c2.79-2.31,3.81-4.48,3.81-7.47,0-3.52-1.88-6.22-5.3-6.22a5.43,5.43,0,0,0-5.64,5.5C104.33,89.81,105.73,92.41,111.46,95.11Z"/><path d="M133.54,105.93c1.81-.6,3.74-1.29,5.68-1.93l.2.48c-2.62,1.82-6.57,4.51-12,7.74a1.59,1.59,0,0,1-.92,1.13l-2.1-4.52c1.13-.28,3.07-.88,5.4-1.65V93.73h-4.59l-.32-1.17h4.91V82l5.2.49c-.08.52-.41,1-1.49,1.09v9h.72l1.9-3s2.13,2.13,3.3,3.5c-.08.45-.48.65-1.05.65h-4.87Zm25.21-7.81s2.66,2.09,4.23,3.58c-.08.45-.52.65-1.08.65H151.1V117c0,.24-1.25,1.09-3.18,1.09h-.65V102.35h-11l-.32-1.17h11.27v-16h-9.62L137.32,84h18.45l2.26-2.9s2.54,2,4,3.42c-.12.45-.53.65-1.09.65H151.1v16h5.32Zm-19-10.52c8.62,6.61,5,14,1.69,10.6a31.85,31.85,0,0,0-2.21-10.39ZM152.71,99a89.32,89.32,0,0,0,3-11.6l5.4,1.69a1.45,1.45,0,0,1-1.53.85,47.62,47.62,0,0,1-6.28,9.35Z"/><path d="M174.67,96.35v20.3c0,.4-1.41,1.13-2.66,1.13h-.68V100.17h-.08a90.4,90.4,0,0,1-5.72,11.08l-.65-.24c1-3.43,2.34-8.82,3.39-13.21l3.06,1.08V96.35h-5.84l-.33-1.17h6.17V80.35l4.83.53c-.12.56-.44,1-1.49,1.12V95.18h1.05l1.89-2.46s2.06,1.73,3.34,3c-.08.44-.48.65-1,.65Zm-8.5-12.49c7.37,5.76,4.31,11.84,1.61,9a26.21,26.21,0,0,0-2.17-8.82Zm9.43,14.62c8,5.8,4.79,12.25,1.93,9.35a27.48,27.48,0,0,0-2.46-9.15Zm23.48-6.28s2.34,1.81,3.79,3.14c-.12.44-.53.64-1.09.64H181.2l-.33-1.17H189V91h-5.52l-.32-1.17H189v-3.5h-7.13l-.28-1a1.57,1.57,0,0,1-1.25.36,75.15,75.15,0,0,1-4.47,7.61l-.69-.32c.65-2.41,1.57-6.28,2.3-9.54L181.8,85l-.12.24H189V80.35l5,.49c-.09.52-.41.88-1.33,1v3.31H196L198,82.61s2.34,1.81,3.75,3.1c-.12.44-.52.65-1.09.65H192.6v3.5h2.57l1.9-2.34s2.17,1.66,3.5,2.86c-.12.45-.52.65-1.08.65H192.6v3.78h4.47Zm-2,4.71,3.91,2.9a3.28,3.28,0,0,1-1.7.81V113.1c0,2.54-.52,4-4.67,4.43a4.09,4.09,0,0,0-.76-2.49,4.63,4.63,0,0,0-2.9-1.21v-.61s3.3.25,4,.25.81-.25.81-.77v-3.46h-9.59a10.67,10.67,0,0,1-6.52,8.82l-.41-.44c3.27-3.11,3.55-7.13,3.55-11.32v-9L187,98.8h8.46Zm-1.29,11.16V104.6h-9.43v1.66c0,.56,0,1.2,0,1.81Zm-9.43-8.1v3.47h9.43V100Z"/><path d="M219.71,98.72l3.95,3a2.81,2.81,0,0,1-1.65.81v13.13c0,.32-1.86,1.17-3.14,1.17h-.57v-3.14h-7v2.66c0,.36-1.57,1.16-3.14,1.16h-.56V99.17l3.9,1.57h6.41Zm-1.41,13.82V101.9h-7v10.64Zm-.48-15.63c0,.32-1.69,1.21-3.31,1.21H214V81.44L218,83.09h12.24l1.94-2,4,3.06a2.8,2.8,0,0,1-1.65.85V96.71c0,.28-1.9,1.13-3.23,1.13h-.64V94.69H217.82Zm0-12.65v9.31h12.85V84.26Zm24.85,17.48a3,3,0,0,1-1.65.85V116c0,.29-1.93,1-3.18,1h-.61v-3.38H229.9v2.74c0,.36-1.53,1.17-3.1,1.17h-.56V99.17l3.86,1.57h6.73l1.89-2Zm-5.44,10.8V101.9H229.9v10.64Z"/><path d="M251.06,87.4c.16,2.74-.85,4.55-2.1,5.44-1.09.81-2.94.65-3.46-.68a2.21,2.21,0,0,1,1.37-2.78A6,6,0,0,0,249.73,84h.64a13.1,13.1,0,0,1,.6,2.21h12.49a3.05,3.05,0,0,1-.44-.32,8.31,8.31,0,0,0-2.14-5.4l.33-.24c6.64.93,6.8,4.64,5.11,6H277.8L280,84l3.83,3.75c-.29.32-.73.4-1.53.44a32.12,32.12,0,0,1-5.12,5l-.44-.24c.44-1.53,1-3.78,1.32-5.56ZM281,112.58c1.28.44,1.65.89,1.65,1.69,0,1.73-1.78,2.42-10.48,2.42h-5.76c-4.43,0-5.72-.73-5.72-3.87v-9.18H247l-.37-1.17h14.06V95.22c-3.78.44-7.65.76-11.4.88l-.12-.64c8-1.21,17.85-3.83,22.84-6L275.83,93c-.4.37-1.21.41-2.34,0-2.53.61-5.68,1.21-9,1.69v7.78h9.95L277,99.29s2.82,2.17,4.55,3.7c-.08.45-.52.65-1.13.65H264.47v8.26c0,.92.32,1.2,2.38,1.2h5.56c2.25,0,4.06,0,4.91-.08a1.33,1.33,0,0,0,1.17-.68,33.81,33.81,0,0,0,1.85-5.92h.48Z"/><path d="M306.57,119.27H305V79h1.61Z"/><path d="M324.58,104.4c1.53,5.16-.28,8.58-2.22,9.83-1.21.89-2.86.81-3.42-.4a2.15,2.15,0,0,1,1.25-2.66,8.31,8.31,0,0,0,3.74-6.77Zm2.13-8.09v2c0,.36-1.69,1.17-3.22,1.17H323V85L327,86.68h7.89V80.47l5.32.49c-.08.56-.4,1-1.49,1.13v4.59h7.93l1.9-2.06,4,3a3,3,0,0,1-1.7.85v9.39a6.09,6.09,0,0,1-3.18,1h-.64V96.31h-8.34v4.55c0,.44-1.73,1.33-3.18,1.33h-.65V96.31Zm0-8.46v7.29h8.22V87.85Zm20.19,24.77c1.24.36,1.57.85,1.57,1.53,0,1.73-1.78,2.3-9.83,2.3h-5.56c-4.23,0-5.2-.65-5.2-3.39V102.83l5.08.44c-.08.53-.45.89-1.25,1v8c0,.64.2.8,2,.8H339c2.09,0,3.87,0,4.55,0s.85-.16,1.09-.6a27.29,27.29,0,0,0,1.69-4.84h.48Zm-11.48-10.23c9.94,2.78,6.88,10.11,3.5,7.45-.24-2.5-2.14-5.4-3.87-7.17Zm3.34-14.54v7.29h8.34V87.85Zm8.38,16.27c11.44,3.95,8.13,12.45,4.31,9.35-.33-3.15-2.5-6.77-4.72-9.07Z"/><path d="M391.49,103.27s2.58,2,4.11,3.43c-.12.44-.52.64-1.09.64h-14.7v5.76c0,2.78-.64,4.31-5.4,4.72a4.08,4.08,0,0,0-1-2.58,6.75,6.75,0,0,0-3.67-1.29v-.6s4.55.32,5.4.32c.68,0,.84-.2.84-.73v-5.6H360.56l-.33-1.17H376v-3.74l3.55.32a42.56,42.56,0,0,0,4.31-3.62H373.28a80.81,80.81,0,0,1-15.06,6l-.28-.61a85,85,0,0,0,11-5.43h-2.61L366,98h4.88c1.93-1.17,3.74-2.42,5.48-3.71H358.78l-.32-1.17h14V87.4H362.13l-.33-1.17h10.64v-5.8l5.15.49c-.08.52-.4.88-1.28,1v4.27h3.86l2.26-2.82s1.81,1.41,3.3,2.7a47.49,47.49,0,0,0,3.63-4.19l4.31,3.39c-.36.36-.81.48-1.73.08a61.54,61.54,0,0,1-8.83,7.69h6.09l2.29-2.94s2.58,2,4.15,3.47c-.12.44-.52.64-1.09.64H381.42a66.56,66.56,0,0,1-6,3.71h9l2.14-2.06,3.58,3.43a2.5,2.5,0,0,1-1.69.44,37,37,0,0,1-7.29,3.18c-.08.57-.52.85-1.37,1v2.25h9.43ZM377.88,93.08a71.31,71.31,0,0,0,6.56-5.68h-8.13v5.68Z"/><path d="M399,87.48l-.32-1.16h14.22l2.21-3s2.62,2.06,4.15,3.51c-.08.44-.52.64-1.09.64Zm20.22,18.74c-2.29.68-5.2,1.49-8.78,2.41v5c0,2.58-.56,4-4.87,4.35a3.7,3.7,0,0,0-.73-2.3,5.42,5.42,0,0,0-2.9-1.17v-.56s3.38.28,4.07.28.72-.2.72-.68v-4l-5.23,1.25a1.46,1.46,0,0,1-1,.88l-1.77-4c1.73-.13,4.55-.41,8-.77v-3.42l2.7.24c.81-.85,1.69-1.86,2.38-2.74H401.12l-.36-1.17h11.48l2-1.93,3.5,3.18a2.51,2.51,0,0,1-1.61.4c-1.33.69-3.26,1.65-5.08,2.42l.73.08c-.08.6-.48.89-1.37,1v1.53c2.78-.28,5.72-.65,8.74-1ZM412,97.8V97h-7.29v.73c0,.28-1.61,1-3,1h-.52v-10L405,90.22h6.69l1.73-1.93,3.87,2.9a3.24,3.24,0,0,1-1.69.85v4.87a5.5,5.5,0,0,1-2.95.89Zm0-2V91.39h-7.29v4.43Zm-6.48-15.75c9.06,1.77,5.43,8.22,2.17,5.56a11.33,11.33,0,0,0-2.58-5.32Zm27.35,10.8c-.89,6.2-2.58,11.68-5.72,16.27a23.48,23.48,0,0,0,9.42,7.41l-.12.37a4.1,4.1,0,0,0-3.34,3,22.44,22.44,0,0,1-7.86-8.34A31.09,31.09,0,0,1,413,117.9l-.37-.53A30.67,30.67,0,0,0,424,106.66,49.69,49.69,0,0,1,420.9,94a27,27,0,0,1-3.62,4.87l-.45-.4c2.7-5.16,4.07-12.85,4.48-18l5.6,1.7c-.17.48-.53.76-1.53.76A66,66,0,0,1,423,89.7h7l2.29-3.06s2.58,2.09,4.07,3.58c-.08.45-.52.65-1,.65Zm-10.4,0a17.92,17.92,0,0,1-1,2,37.94,37.94,0,0,0,3.74,11.36,38.58,38.58,0,0,0,3.51-13.33Z"/><path d="M438.63,102a65.82,65.82,0,0,0,10-21.6l5.72,1.86c-.16.48-.68.84-1.61.76a51,51,0,0,1-4.23,8.5l1.77.65c-.12.36-.48.6-1.24.76v23.65c-.05.32-1.66,1.21-3.15,1.21h-.72V96.35a36.31,36.31,0,0,1-6,6Zm36.42,10.63c1.25.48,1.65.93,1.65,1.65,0,1.77-1.93,2.38-9.95,2.38h-5.16c-4.27,0-5.76-.85-5.76-4.15V81.2l5.12.56c-.08.53-.44,1-1.45,1.13V94.77h10L471.58,92s2.42,2,3.87,3.35c-.12.44-.52.64-1.09.64H459.5v15.63c0,1.21.48,1.61,2.58,1.61H467a39,39,0,0,0,4.39-.12,1.4,1.4,0,0,0,1.21-.56A26.73,26.73,0,0,0,474.4,107h.49Z"/><path d="M495.48,93.93c-.17.48-.61.84-1.58.84-1.08,3.83-2.94,9.51-4.87,14.39l6.32-1.54.13.53c-3,1.57-7.34,3.83-13.46,6.56a1.48,1.48,0,0,1-1,1.05L479,111.37c1.69-.28,5-1.05,8.82-1.93.93-5.36,1.89-12.13,2.46-17Zm-16.12-2.86L479,89.9h12.25l2.09-3.06s2.46,2.13,3.83,3.58c-.12.45-.53.65-1.09.65ZM481.42,93c8.86,9.59,3.74,17.36,1.53,13.66.08-3.22-.24-9.23-2.1-13.42ZM484,80.51c9.26,3.91,5.47,10.8,2.13,7.78a21.77,21.77,0,0,0-2.58-7.57Zm28.64,6.81a50.32,50.32,0,0,1,3.82,3.35c-.08.44-.44.64-1,.64h-8.91v8.38h3l1.9-2.18,3.66,2.86a2.24,2.24,0,0,1-1.57.77v15.31c0,.24-1.29,1-3.14,1h-.68v-2.86h-10v2.18c0,.32-1.13,1-3,1H496V98l4.15,1.65h2.7V80.39l5.19.49c-.08.56-.44,1-1.49,1.12v8.14h4Zm-13,13.54v12.57h10V100.86Z"/><path d="M529.76,119.27h-1.61V79h1.61Z"/><path d="M567.55,81.52l3.87,3a3.2,3.2,0,0,1-1.7.81v15.27a5.49,5.49,0,0,1-3.06,1h-.56V99.17H558v11.27c2.18-.84,4.76-2,7.5-3.1a32,32,0,0,0-2.95-5.19l.49-.2c11.24,6.56,7.77,15.38,4.15,11.92a16.87,16.87,0,0,0-1.25-5.52c-2.3,1.73-5.48,4.19-9.19,6.61a2.87,2.87,0,0,1-1.12,1.29l-2.38-4.35c1-.65,1.17-.93,1.17-1.9V81.84l4.11,1.7h7.13Zm-1.45,9.19v-6H558v6Zm0,7.33V91.87H558V98Zm22.6-13.46a3,3,0,0,1-1.65.81v20.66c0,2.7-.53,4.31-4.88,4.76a4.64,4.64,0,0,0-.76-2.74c-.53-.65-1.37-1-3-1.37v-.57s3.42.25,4.19.25.84-.25.84-.81V84.78h-6.73v31.75c0,.48-1.33,1.45-3,1.45h-.64V81.88l3.78,1.74H583l1.73-2.06Z"/><path d="M606.14,81.12c-.12.56-.4,1-1.49,1.13v34.16c0,.44-1.57,1.37-2.9,1.37H601V101h-2.74c-.2,6.44-1,12.37-6.12,16.55l-.53-.6c3-4.51,3.1-10.11,3.14-16h-2.86l-.32-1.17H601V94.21h-3.79l-1.09,1.45-3.74-2a5.25,5.25,0,0,1,1.17-1V82.21l5,.52c-.08.44-.44.77-1.61,1V93H601V80.59Zm8.26,10.43c-1.33,1-3.46,2.38-6.24,4.07a1.3,1.3,0,0,1-.85,1l-1.93-3.55c1.69-.32,5.4-1.17,8.9-2Zm11.93,6.33s2.25,2.09,3.5,3.5c-.08.44-.48.65-1.05.65h-5.47v11c0,2.66-.61,4.31-5.52,4.76a4,4,0,0,0-1.09-2.58c-.73-.61-1.85-1.09-4.15-1.37v-.57s5.12.37,6.08.37c.77,0,1-.24,1-.85V102H605.82l-.32-1.17h14.14V95l5.07.48c-.08.6-.48.93-1.4,1v4.31h1.08Zm-20.55-7a29.52,29.52,0,0,0,7.41-10.48l5.32,1.45c-.16.41-.48.61-1.53.49-.52.72-1.17,1.45-1.81,2.17h8.3l2-1.89,3.75,3.14a2.91,2.91,0,0,1-1.9.52c-4.43,6.57-10.95,11.24-21.27,13.86l-.36-.6a39.61,39.61,0,0,0,11.92-7.17,2.06,2.06,0,0,1-1.49-.2,13.81,13.81,0,0,0-4.23-4.52,27.44,27.44,0,0,1-5.72,3.67Zm3.06,12.48c9.67,2.58,6.61,9.51,3.27,6.93a13.87,13.87,0,0,0-3.67-6.64Zm5.24-17.68c-.48.44-.93.89-1.41,1.29,5.08.72,6.37,3.14,5.84,4.51a28.73,28.73,0,0,0,4.59-5.8Z"/><path d="M648,84.86c-.12.49-.64.81-1.57.73-3.34,7.41-8.06,12.65-13.69,16l-.45-.4c4.11-4.11,8.14-11,10.19-18.41Zm8.3,17.57c13.82,7.73,10.47,18.29,6,14.46a21.76,21.76,0,0,0-1.33-5c-5.47,1.45-13,3.1-22.07,4.63a2.52,2.52,0,0,1-1.25,1.09l-1.77-5.12a4.11,4.11,0,0,0,1.45-.6c3.38-3.43,8.21-12.49,9.75-17.57l5.72,2.34a1.43,1.43,0,0,1-1.58.68A73.12,73.12,0,0,1,639,112.7c5-.24,13.21-.93,21.51-1.81a38.51,38.51,0,0,0-4.75-8.18Zm3.18-19.66c-.48.6-1.69.89-3.26,1a21.91,21.91,0,0,0,13.13,13.85l-.08.41a5.61,5.61,0,0,0-3.46,3.62c-5.92-3.94-9.27-10.15-10.68-18.16h-4.43l-.36-1.17H654l1.5-2.26Z"/><path d="M678.18,94.33v22.12c0,.48-1.33,1.41-3.06,1.41h-.65V81.6l3.91,1.73h6.36l1.7-1.85,3.7,2.78a2.61,2.61,0,0,1-1.49.73V95c0,.32-1.77,1.12-3,1.12h-.56V94.33Zm0-9.83v3.71h6.93V84.5Zm6.93,8.66V89.34h-6.93v3.82Zm11.24,13.3v8.7c0,.2-1.09.84-2.74.84H693v-9.54h-4.43c-.4,3.5-2,7.37-7.69,9.91l-.41-.49a12.58,12.58,0,0,0,4.92-9.42h-5l-.32-1.13h5.36c0-.44,0-.93,0-1.37V99.57h-4.19L681,98.4H696L698,95.9s2.17,1.73,3.5,3c-.08.45-.48.65-1.05.65h-4.06v5.76H697l1.85-2.5s2.1,1.73,3.39,3c-.12.45-.53.65-1.09.65ZM693,105.33V99.57h-4.27V104c0,.44,0,.89,0,1.37Zm16.24-21a3.37,3.37,0,0,1-1.7.85v28c0,2.74-.52,4.27-4.83,4.72a4.92,4.92,0,0,0-.68-2.66,4.35,4.35,0,0,0-2.82-1.33v-.57s3.14.21,3.78.21.81-.25.81-.77V94.33h-7.21v.44c0,.33-1.57,1.13-3.06,1.13H693V81.76l3.75,1.57h6.65l1.77-2.13Zm-12.65.2v3.71h7.21V84.5Zm7.21,8.66V89.34h-7.21v3.82Z"/><path d="M48.66,217.19v8.18H5.3v-6.55c5.78-5.78,11.37-11.85,16-16.66C32,191,36.42,182.79,36.42,174.31c0-8.67-5-14.35-12.91-14.35a26.57,26.57,0,0,0-5.68.67l-2.12,7.71c-1.25,4.82-3.09,6.65-5.78,6.65a5.62,5.62,0,0,1-5.11-3.18c1.45-10.79,10.69-16,21.2-16,13.58,0,19.65,7.42,19.65,18,0,9.06-4.91,16.28-21.1,31.6-3,2.89-7.51,7.23-12.33,11.76Z"/><path d="M101.17,157.26v5.11l-24.76,63H67.93l-1-1,28.33-59h-37v-8.19Z"/><path d="M154.06,157.26v5.11l-24.76,63h-8.48l-1-1,28.32-59h-37v-8.19Z"/><path d="M207.34,217.19v8.18H164v-6.55c5.78-5.78,11.37-11.85,16-16.66,10.69-11.18,15.13-19.37,15.13-27.85,0-8.67-5-14.35-12.91-14.35a26.58,26.58,0,0,0-5.69.67l-2.12,7.71c-1.25,4.82-3.08,6.65-5.78,6.65a5.63,5.63,0,0,1-5.11-3.18c1.45-10.79,10.7-16,21.2-16,13.59,0,19.65,7.42,19.65,18,0,9.06-4.91,16.28-21.09,31.6-3,2.89-7.52,7.23-12.34,11.76Z"/><path d="M215.92,195.8h24.57V202H215.92Z"/><path d="M290.2,158.51c-20.14,4.82-30.06,15.42-31.7,31.89a22.12,22.12,0,0,1,15.71-6.84c11.46,0,19.17,8.09,19.17,20.72,0,14.35-8.86,22.44-21.58,22.44-14.07,0-22.84-10.88-22.84-29.48,0-20.81,14.55-38.44,40.66-41.43Zm-32,37.29c0,18.11,5.21,26.88,13.88,26.88,7.22,0,12.23-5.69,12.23-17.25,0-11.17-5-16.09-12.52-16.09a20.08,20.08,0,0,0-13.59,4.92Z"/><path d="M343.1,158.51C323,163.33,313,173.93,311.4,190.4a22.1,22.1,0,0,1,15.7-6.84c11.47,0,19.17,8.09,19.17,20.72,0,14.35-8.86,22.44-21.58,22.44-14.06,0-22.83-10.88-22.83-29.48,0-20.81,14.55-38.44,40.66-41.43Zm-32,37.29c0,18.11,5.2,26.88,13.87,26.88,7.23,0,12.24-5.69,12.24-17.25,0-11.17-5-16.09-12.53-16.09a20.06,20.06,0,0,0-13.58,4.92Z"/><path d="M398.5,208.8c0,10.7-9.16,17.92-21.59,17.92-12.91,0-21.67-5.87-21.67-16.76,0-7.8,5.39-13.2,15.32-18-9.16-4.91-13.11-11.27-13.11-18.59,0-10.89,8.77-17.54,19.75-17.54,11.18,0,18.12,6.75,18.12,16.19,0,5.2-3,11.37-12.72,16.76C393.39,194.06,398.5,199.55,398.5,208.8ZM390,209.86c0-6.26-3.95-10.4-16.19-16.28-6.84,4.34-10.21,8.19-10.21,15.32,0,8.38,5.49,13.87,13.58,13.87C384.91,222.77,390,217.38,390,209.86Zm-10.6-22.64c6.07-4.72,8.38-9,8.38-14.93,0-6.84-3.95-12.33-10.79-12.33-6.17,0-11.56,4.24-11.56,11.08C365.45,176.72,368.34,181.92,379.42,187.22Z"/><path d="M451.39,208.8c0,10.7-9.15,17.92-21.58,17.92-12.91,0-21.68-5.87-21.68-16.76,0-7.8,5.4-13.2,15.32-18-9.15-4.91-13.1-11.27-13.1-18.59,0-10.89,8.76-17.54,19.75-17.54,11.17,0,18.11,6.75,18.11,16.19,0,5.2-3,11.37-12.72,16.76C446.28,194.06,451.39,199.55,451.39,208.8Zm-8.48,1.06c0-6.26-4-10.4-16.18-16.28-6.85,4.34-10.22,8.19-10.22,15.32,0,8.38,5.49,13.87,13.59,13.87C437.8,222.77,442.91,217.38,442.91,209.86Zm-10.6-22.64c6.07-4.72,8.39-9,8.39-14.93,0-6.84-3.95-12.33-10.8-12.33-6.16,0-11.56,4.24-11.56,11.08C418.34,176.72,421.23,181.92,432.31,187.22Z"/><path d="M42.43,5S46,7.72,48.3,9.68c-.16.58-.74.85-1.48.85H21.16a71.11,71.11,0,0,1-4.34,6.93l1.38.47H34.76L37.3,15l5.6,4.29a4.09,4.09,0,0,1-2.48,1.22V43c0,3.6-.8,5.77-7.09,6.35-.16-1.64-.48-2.91-1.27-3.65S30,44.28,27.4,43.91v-.79s5.61.37,6.77.37c1,0,1.17-.32,1.17-1.12V35.71H16.82c-.9,4.92-3,10-8.36,13.81L7.94,49c4-6.14,4.28-13.86,4.28-21V23A45.23,45.23,0,0,1,.48,32L0,31.42C6.93,26,12.11,18.25,15.5,10.53H1.11L.74,9H16.19a63.69,63.69,0,0,0,3-9l7.36,2.22c-.27.58-.69.95-2.12.95C23.7,5.08,22.85,7,21.9,9H39.2ZM35.34,34.17V27.51h-18V28A49,49,0,0,1,17,34.17Zm-18-14.7V26h18v-6.5Z"/><path class="cls-2" d="M79,15.82C80.88,26,86.86,36.93,102.1,44l-.11.64a5.25,5.25,0,0,0-4.87,4.65c-13-8-17.24-21-18.83-31.63A39,39,0,0,1,72.74,34c13.38,5.4,8.51,15.13,3.59,10.85C75.91,41.69,74,37.93,72,35c-3.8,5.45-9.68,10.37-18.88,14.55l-.64-.85c15.29-9.52,19.47-20.84,20.64-32.9H53.85l-.42-1.54H73.26c.32-4.55.32-9.2.32-13.91l7.51.79c-.1.74-.58,1.27-1.9,1.49-.11,3.86-.16,7.82-.53,11.63H91.41l3.38-4.23s3.76,2.86,6.14,4.92c-.16.58-.74.85-1.53.85Z"/><path class="cls-2" d="M148.7,23.91s3.75,2.75,6,4.76c-.1.58-.68.85-1.48.85H132.51V47.93c0,.37-1.59,1.48-4.23,1.48h-.9V29.52H106L105.53,28h21.85V6H108.49L108,4.5h35.13L146.42.58s3.76,2.7,6,4.6c-.1.59-.69.85-1.43.85H132.51V28h12.85ZM113.2,9.15c13.81,8,8.78,18.94,3.86,14.23-.26-4.6-2.43-10-4.5-13.91Zm23.28,15.56a110.3,110.3,0,0,0,6.08-15.66l7,2.59c-.21.58-.9,1.06-2.06.95a56.36,56.36,0,0,1-10.32,12.59Z"/><path class="cls-2" d="M158.53,13.6c13,1,9.84,10.42,5,7.56-.8-2.59-3.28-5.45-5.45-7.09ZM175.46,9c-2.22,6.83-6.45,19.47-7.2,22.28a24,24,0,0,0-.79,5c.05,2.64,1.91,4.71,1.75,9.15-.11,2.49-1.48,4-3.81,4-1.17,0-2.12-.85-2.44-2.64.9-5.4.59-9.9-.63-10.69a4.93,4.93,0,0,0-2.65-.85V34.17h2.39c.68,0,.89-.05,1.48-1.05,1.11-2,1.11-2,11.05-24.39ZM162.82,1.32c13.43,1.06,10.42,10.74,5.34,8-.85-2.75-3.55-5.82-5.82-7.61Zm39.62,29.31s3.33,2.75,5.4,4.6c-.16.58-.69.85-1.43.85h-14V48c0,.32-1.64,1.38-4.28,1.38h-.9V36.08H173.18l-.42-1.53h14.5V24.6H176l-.42-1.53h11.64V13.65h-12l-.43-1.54h16.51A100.7,100.7,0,0,0,195.51.16l7.35,2.17c-.21.58-.84,1.06-2,1a67,67,0,0,1-8.14,8.78H199l3-3.7s3.33,2.59,5.34,4.39c-.16.58-.68.85-1.42.85H192.44v9.42h5.45l2.8-3.81s3.28,2.64,5.19,4.49a1.28,1.28,0,0,1-1.38.85H192.44v9.95h7ZM178.58.53c13.17,4,8.68,13.49,4,9.79-.48-3.23-2.59-7-4.55-9.47Z"/><path d="M227,23.28c-.21.53-.69.84-1.64,1V47.82c-.11.37-2.22,1.48-4.13,1.48h-1V27.72A44.85,44.85,0,0,1,211.43,34l-.53-.58c6.88-5.5,11.95-13.22,15.39-21.05H212.86l-.48-1.54h14.55A67,67,0,0,0,230.37.11L238,2.17c-.21.63-.68,1-2.06,1.06a65,65,0,0,1-3.17,7.56h17.83l3.27-4s3.6,2.75,5.82,4.71c-.1.58-.68.85-1.42.85H232a57.69,57.69,0,0,1-6.88,10.26Zm27.77,17.56s3.44,2.65,5.67,4.55c-.16.58-.69.85-1.49.85H226.88l-.43-1.54h12.86V28.57H229.2L228.78,27h10.53V14.65l6.77.69c-.05.69-.48,1.17-1.69,1.38V27h4.23l3-3.7s3.33,2.54,5.29,4.39c-.11.58-.69.85-1.37.85H244.39V44.7h7.19Z"/><path d="M290,21.16V47.82c0,.53-1.85,1.48-3.49,1.48h-.9V26.19h-.1A116.4,116.4,0,0,1,278,40.73l-.84-.31c1.27-4.5,3.07-11.59,4.44-17.35l4,1.42V21.16H278l-.42-1.53h8.09V.16L292,.85c-.16.74-.58,1.32-2,1.48v17.3h1.38l2.48-3.23s2.7,2.27,4.39,3.91c-.1.59-.63.85-1.37.85ZM278.87,4.76c9.68,7.57,5.66,15.55,2.12,11.85,0-3.7-1.54-8.36-2.86-11.58ZM291.25,24c10.47,7.62,6.29,16.09,2.54,12.28-.11-3.81-1.75-8.63-3.23-12Zm30.84-8.25s3.07,2.38,5,4.13c-.16.58-.68.84-1.43.84h-27l-.42-1.53h10.63v-5h-7.25l-.42-1.54h7.67V8h-9.36l-.37-1.32a2,2,0,0,1-1.64.47,101.71,101.71,0,0,1-5.87,10l-.9-.42c.84-3.17,2.06-8.25,3-12.54l5.72,2c-.06.11-.11.21-.16.32h9.57V.16l6.51.63c-.11.69-.53,1.17-1.75,1.38V6.51H318l2.69-3.39s3.07,2.38,4.92,4.07c-.15.59-.68.85-1.42.85H313.57v4.6H317l2.49-3.06s2.85,2.16,4.6,3.75c-.16.58-.69.85-1.43.85h-9.05v5h5.88ZM319.5,21.9l5.13,3.81a4.13,4.13,0,0,1-2.22,1.06v16.4c0,3.33-.69,5.24-6.14,5.82a5.37,5.37,0,0,0-1-3.28c-.69-.74-1.75-1.27-3.81-1.59v-.79s4.33.31,5.29.31,1.06-.31,1.06-1V38.09h-12.6c-.58,4.28-2.43,8.62-8.57,11.59l-.52-.59c4.28-4.07,4.65-9.36,4.65-14.86V22.38l5.4,2h11.11Zm-1.69,14.66V32H305.43v2.16c0,.75,0,1.59-.06,2.39ZM305.43,25.92v4.55h12.38V25.92Z"/><path d="M347.74,30.42c14.66,2.64,11.27,12.48,6.35,9.31-.9-3-3.81-6.3-6.35-8.41V48c0,.53-2.11,1.43-3.91,1.43h-.95V34.28A39.48,39.48,0,0,1,330.6,45.55l-.58-.74c5.08-4.55,8.78-11.16,10.9-17.67h-9.37l-.42-1.48h11.75V19l6.71.69c-.1.69-.53,1.17-1.85,1.38v4.55H352l2.76-3.55s3.06,2.49,5,4.18c-.11.58-.69.85-1.38.85H347.74ZM359,5.34c-.53.48-1.59.53-3.12-.1A125.36,125.36,0,0,1,331.5,8.31l-.16-.8C339.28,6,348.85,3,353.77.42ZM332.56,9.89c10.58,4.18,6,12.17,2.22,8.68.11-2.86-1.37-6.24-2.8-8.36Zm8.31-1.37c10.36,4.18,5.76,12.11,2,8.67a15.42,15.42,0,0,0-2.6-8.41ZM349,19.26A60.66,60.66,0,0,0,353.56,8l6.3,2.7a2,2,0,0,1-2.07.79,34,34,0,0,1-8.09,8.25Zm31.43,12.85c-.32.58-.9.74-2.17.58-6.25,8.52-14.13,13.65-24.13,16.77l-.37-.84a43.65,43.65,0,0,0,19.89-19.95Zm-22.91-2.43a48,48,0,0,0,15.39-15.82l6.41,3.76c-.32.53-.85.68-2,.47A51.79,51.79,0,0,1,358,30.47Zm.16-14.13A55.58,55.58,0,0,0,372.5.9l6.19,3.86c-.42.53-.9.64-2.06.42a61.89,61.89,0,0,1-18.47,11.17Z"/><path d="M411.43,30.74c4.82,5.76,13.6,10.21,21.48,12l-.11.59c-2,.42-3.54,2.06-4.18,4.55A35.73,35.73,0,0,1,410.37,31V47.77c0,.58-2.17,1.64-4.07,1.64h-1.06V35.6c-5.34,5.45-12.8,9.74-21.42,12.59l-.48-.74a51.93,51.93,0,0,0,19.15-16.71h-6.35v1.53c0,.48-2.27,1.59-4.34,1.59h-.74V12l5.45,2.27h8.73V9.05H385l-.48-1.54h20.74V.26l7.09.75c-.16.74-.53,1.26-2,1.48v5h11.85l3.28-4.23s3.76,2.91,6,4.92c-.16.58-.69.85-1.43.85H410.37v5.23h8.73l2.54-2.8,5.4,4.13a4,4,0,0,1-2.17,1.11v15c-.05.42-2.59,1.59-4.39,1.59h-.85V30.74ZM396.14,15.82v5.87h9.1V15.82Zm0,13.38h9.1v-6h-9.1Zm14.23-13.38v5.87h9.26V15.82Zm9.26,13.38v-6h-9.26v6Z"/><path d="M481,42.85c2.44.42,3.07,1.11,3.07,2,0,2.54-3.33,3-20.95,3H450.89c-8.15,0-11.37-1-11.37-6.4V5.4h-2l-.43-1.54H474.8L477.71.21s3.18,2.54,5.19,4.34c-.16.58-.69.85-1.43.85H444.12V40.84c0,2.33,1.21,3.12,6.24,3.12h13.23c5.18,0,9.62-.1,11.26-.21a26.51,26.51,0,0,0,2.76-.32,9.87,9.87,0,0,0,2.54-.69h.63ZM457.66,41V38.46h-5.82v2.27c0,.37-1.85,1.33-3.59,1.33h-.64V24.49l4.44,1.86h5.14l2.11-2.17,4.34,3.33a2.83,2.83,0,0,1-1.75.85V39.78c-.05.37-2.11,1.22-3.54,1.22Zm0-4.07v-9h-5.82v9.05Zm12.27-16.25H457.77v1.59c0,.43-2.12,1.43-4.08,1.43H453V7.78l5,2.06h11.38l2.38-2.54,4.92,3.76a3.74,3.74,0,0,1-2,1v9.58c-.05.37-2.49,1.32-4,1.32h-.8Zm0-1.53V11.37H457.77v7.78Zm5.61,21.64V38.46h-6V40c0,.43-1.9,1.27-3.59,1.27h-.64V24.49l4.5,1.86h5.24l2.11-2.28,4.55,3.49a3.49,3.49,0,0,1-1.85.9V39.57c-.05.32-2.22,1.22-3.65,1.22Zm0-3.86v-9h-6v9.05Z"/><path d="M532.83,41.58s3.28,2.49,5.4,4.34c-.16.58-.69.85-1.43.85H489.87l-.47-1.54h27.72a78,78,0,0,0,2.48-10l7.15,1.33c-.16.68-.74,1.16-2,1.16a49.72,49.72,0,0,1-6.35,7.51h11.37ZM491.41,18.73,491,17.19h37.61l2.91-3.49s3.17,2.38,5.19,4.18c-.16.58-.69.85-1.43.85Zm7.25-4.5-5.51-3a7.14,7.14,0,0,1,2-1.49V2.27L502,3c-.11.74-.58,1.27-2,1.48v5.82h11.11V.21L518,.85c-.11.74-.53,1.27-1.91,1.48v8h12.17v-8l7,.63c-.1.74-.58,1.27-2,1.48V12.7c0,.37-2.17,1.16-4.07,1.16h-.9v-2H500.35ZM525.05,36V33.91H502.2v1.8c0,.37-1.48,1.16-3.86,1.16h-.85V21.32l5.29,2.17h22.11l2.33-2.7,4.71,3.6a2.91,2.91,0,0,1-1.9.9v9.63c0,.21-1.7,1-4.13,1Zm-22.37-.37c11.69,4.08,6.4,12.49,2.27,8.57a17.33,17.33,0,0,0-2.8-8.3Zm22.37-3.22V25H502.2v7.36Z"/><path d="M585.14,41.16s3.87,3,6.19,5c-.15.59-.74.85-1.53.85H542.5l-.42-1.53h8.52V13.17l7.3.69c-.11.74-.58,1.27-2,1.48V45.5h9.37V1.11l7.3.74c-.16.74-.53,1.27-1.91,1.48V20.9h8.1l3.28-4.18s3.8,2.8,6.08,4.86c-.16.59-.74.85-1.48.85h-16V45.5h11.11Z"/><path d="M614.76,32.69c-3.75,2.23-9.31,5.61-16.87,9.53a2,2,0,0,1-1.17,1.37l-2.32-5.82c1.53-.37,4.23-1.06,7.56-2V21.64H596l-.43-1.54H602V6.77h-6.35l-.42-1.53h12.27l2.86-3.81s3.23,2.64,5.18,4.5c-.15.58-.68.84-1.42.84h-7.25V20.1H608l2.44-3.65s2.64,2.59,4.23,4.34a1.28,1.28,0,0,1-1.38.85h-6.45V34.33c2.49-.74,5.13-1.53,7.72-2.32Zm28.62,10.69c1.27.58,1.49,1.16,1.49,2.12,0,2-1.75,3-7.68,3h-3.38c-4,0-4.66-1.11-4.66-4.34V30.58h-2.91c-1.37,10.74-7.08,16.24-20.68,18.83l-.21-.74c10.21-3.49,14.12-8.36,15.29-16.45a6.21,6.21,0,0,1-3.92,1.32H616V1.75l5.13,2.16h13.65l2.59-2.8,5.35,4.13a3.86,3.86,0,0,1-2.28,1.16V31.32c-.1.37-2.54,1.43-4.28,1.43h-.8V30.58h-1.16V43c0,.63.11.84,1.06.84h2.38c1,0,1.85,0,2.27,0s.64-.11.85-.63a61.19,61.19,0,0,0,1.85-6.83h.64ZM620.85,5.45v6.66h14.49V5.45Zm14.49,15V13.65H620.85v6.82Zm0,8.57V22H620.85v7Z"/><path d="M663.59,23.28c-.21.53-.69.84-1.64,1V47.82c-.11.37-2.22,1.48-4.13,1.48h-1V27.72A44.92,44.92,0,0,1,648,34l-.53-.58c6.88-5.5,12-13.22,15.4-21.05H649.46L649,10.79h14.54A65,65,0,0,0,667,.11l7.62,2.06c-.21.63-.69,1-2.06,1.06a65.11,65.11,0,0,1-3.18,7.56h17.83l3.28-4s3.6,2.75,5.82,4.71c-.11.58-.69.85-1.43.85H668.61a57.09,57.09,0,0,1-6.87,10.26Zm27.77,17.56s3.44,2.65,5.66,4.55c-.16.58-.69.85-1.48.85H663.48l-.42-1.54h12.85V28.57h-10.1L665.39,27h10.52V14.65l6.77.69c0,.69-.47,1.17-1.69,1.38V27h4.23l3-3.7s3.33,2.54,5.29,4.39c-.11.58-.69.85-1.38.85H681V44.7h7.2Z"/></g></g></svg>