<svg width="18" height="72" viewBox="0 0 18 72" fill="none" xmlns="http://www.w3.org/2000/svg">
<path d="M2.67994 15.5043C2.74994 15.834 2.63994 16.2335 2.36994 16.2335C1.89994 16.2335 0.89994 15.4544 0.64994 14.0558C1.20994 14.2756 1.89994 14.2956 2.56994 14.1657V5.9044C1.78994 6.70356 1.07994 7.26294 0.62994 7.61257C0.40994 7.7724 0.20994 7.77245 0.11994 7.66257C0.0299395 7.5327 0.0699395 7.39282 0.29994 7.19303C1.67994 6.01426 3.97994 3.11732 4.34994 0.290283C5.36994 0.560001 6.26994 1.08942 6.26994 1.44904C6.26994 1.69878 5.90994 1.78869 5.41994 1.69878C5.36994 1.82865 5.30994 1.94852 5.23994 2.07839C7.15994 2.80762 8.55994 3.61676 8.55994 4.36597C8.55994 4.8155 8.17994 5.25505 7.75994 5.25505C7.48994 5.25505 7.41994 5.01532 7.33994 4.83551C7.15994 4.366 6.37994 3.29714 5.03994 2.47799C4.85994 2.83762 4.67994 3.16727 4.47994 3.47695C4.49994 3.47695 4.49994 3.49689 4.51994 3.49689C5.34994 3.89647 6.12994 4.4359 6.12994 4.92538C6.12994 5.26503 5.81994 5.65466 5.41994 5.65466C5.10994 5.65466 5.05994 5.47482 5.03994 5.31499C4.99994 4.91541 4.90994 4.336 4.27994 3.80656C3.87994 4.40593 3.44994 4.92542 3.04994 5.40492C3.31994 5.55476 3.58994 5.73455 3.84994 5.94433H6.23994C6.36994 5.70459 6.48994 5.50478 6.65994 5.30499C7.25994 5.55473 8.05994 6.08418 8.05994 6.37388C8.05994 6.59365 7.87994 6.70354 7.47994 6.75349V8.15204C7.47994 9.06109 7.49994 9.93015 7.51994 10.7992C7.51994 11.039 7.20994 11.4686 6.71994 11.4686C6.38994 11.4686 6.33994 11.3387 6.33994 11.1289V10.7293H3.77994V13.916C4.59994 13.6962 5.40994 13.3866 6.07994 13.0869C5.94994 12.7073 5.69994 12.2378 5.24994 11.7083C5.13994 11.5785 5.02994 11.4586 5.17994 11.3087C5.28994 11.1988 5.41994 11.2588 5.61994 11.3986C6.66994 12.1578 7.55994 12.917 7.55994 13.5963C7.55994 14.0358 7.15994 14.5553 6.64994 14.5553C6.31994 14.5553 6.28994 14.3355 6.26994 14.1058C6.24994 13.9759 6.24994 13.8161 6.21994 13.5963C5.30994 14.1757 3.87994 14.9549 2.69994 15.5143L2.67994 15.5043ZM6.32994 6.46381H3.76994V8.06211H6.32994V6.46381ZM3.76994 10.2199H6.32994V8.57159H3.76994V10.2199ZM17.4699 15.804C17.4699 15.9538 17.3599 16.0438 17.1099 16.0737C15.9999 16.2336 15.4399 16.2735 15.2599 16.5432C14.6399 16.2136 13.6999 15.4544 12.6699 13.6762C11.4499 15.1647 9.83994 16.3235 7.92994 16.8829C7.61994 16.9728 7.45994 16.9728 7.39994 16.793C7.34994 16.6131 7.50994 16.5233 7.73994 16.4333C9.44994 15.784 11.0599 14.5454 12.1899 12.7173C11.5399 11.2688 11.0799 9.36075 10.9199 6.68355H10.4499C10.2899 10.9291 9.28994 14.3355 6.50994 16.6831C6.26994 16.8829 6.10994 16.8429 6.01994 16.733C5.90994 16.6032 5.96994 16.4633 6.14994 16.2835C8.34994 14.1657 9.17994 10.4996 9.28994 6.47381C9.32994 4.87548 9.24994 3.24717 9.06994 1.70878C9.55994 1.90857 10.0999 2.24823 10.4699 2.53793C11.9599 2.42804 14.0099 1.82864 14.8599 0.759762C15.7699 1.15934 16.5999 1.8786 16.5999 2.26819C16.5999 2.50794 16.3999 2.6078 16.1999 2.6078C15.8899 2.6078 15.6399 2.51793 15.2899 2.38806C13.5999 2.94748 11.1399 3.03736 10.4299 3.05734C10.4699 4.07628 10.4799 5.14517 10.4699 6.13414H13.8299C13.9799 5.86442 14.1599 5.59469 14.3399 5.37492C15.0799 5.6846 16.0499 6.31397 16.0499 6.71355C16.0499 7.02322 15.7199 7.16307 15.2499 7.20303C15.0099 9.34079 14.3599 11.2588 13.2899 12.8371C14.4099 14.5054 16.2699 15.3046 17.1499 15.5243C17.3899 15.5743 17.4799 15.6842 17.4799 15.7741L17.4699 15.804ZM11.4099 6.68355C11.6299 8.91122 12.0599 10.5795 12.6799 11.8282C13.4099 10.3597 13.8399 8.66148 13.9299 6.68355H11.4099Z" fill="white"/>
<path d="M4.20001 21.8476C4.24001 22.7867 4.24001 23.5159 4.22001 24.345C4.11001 28.6405 3.31001 31.9071 0.740009 34.7442C0.560009 34.944 0.360009 34.9839 0.210009 34.854C0.0600085 34.7242 0.140009 34.6143 0.300009 34.4145C2.42001 31.8072 2.93001 28.2509 2.97001 24.4649C2.99001 23.0364 2.92001 21.7478 2.79001 20.4591C3.32001 20.6589 3.97001 20.9986 4.44001 21.3082H13.4C13.62 20.9286 13.89 20.5091 14.22 20.1295C14.84 20.3992 16.03 21.0884 16.03 21.468C16.03 21.7078 15.83 21.8277 15.47 21.8277H4.20001V21.8476ZM16.1 25.6037C16.1 25.8435 15.88 25.9633 15.5 25.9633H10.15V28.8303H12.64C12.77 28.5906 12.93 28.3809 13.11 28.1411C13.67 28.3809 14.69 29.0102 14.69 29.3698C14.69 29.6395 14.4 29.7494 13.98 29.8393V31.2878C13.98 32.1369 14 33.4655 14.02 34.2746C14.02 34.5643 13.68 34.944 13.1 34.944C12.77 34.944 12.74 34.8341 12.74 34.6043V33.3556H6.79001V34.2946C6.79001 34.5344 6.43001 34.944 5.83001 34.944C5.52001 34.944 5.47001 34.7941 5.47001 34.6043C5.49001 33.4955 5.54001 31.8272 5.54001 30.8183V27.9912C5.99001 28.211 6.50001 28.5307 6.88001 28.8204H8.91001V22.4071C10.09 22.477 10.92 22.7367 10.92 23.0564C10.92 23.3261 10.61 23.456 10.16 23.4959V25.4339H13.59C13.81 25.0343 14.08 24.6347 14.41 24.2751C15.1 24.5648 16.12 25.2141 16.12 25.5937L16.1 25.6037ZM12.72 29.3598H6.77001V32.8361H12.72V29.3598ZM7.28001 18.4112C7.35001 18.2814 7.48001 18.3014 7.68001 18.3713C9.31001 18.9507 10.27 19.6599 10.27 20.2393C10.27 20.6889 9.94001 21.2183 9.36001 21.2183C8.98001 21.2183 8.98001 21.0385 8.94001 20.8188C8.87001 20.3792 8.49001 19.59 7.40001 18.7209C7.29001 18.631 7.18001 18.5611 7.27001 18.4112H7.28001Z" fill="white"/>
<path d="M16.8501 51.6664C16.8501 51.9162 16.6501 52.066 16.2501 52.066H2.14008C1.47008 52.066 0.720078 51.8662 0.580078 51.2169C3.19008 51.4866 5.77008 51.5466 8.22008 51.5466V46.7416H4.26008C3.48008 46.7416 2.84008 46.5218 2.66008 45.9225C4.66008 46.1622 6.45008 46.2121 8.21008 46.2121V42.1364H4.53008C3.55008 43.6548 2.44008 44.8535 1.46008 45.6327C1.26008 45.7926 1.06008 45.8126 0.930078 45.6827C0.820078 45.5728 0.840078 45.4629 1.06008 45.2631C2.57008 43.8346 4.20008 41.3272 4.56008 38.3404C5.72008 38.67 6.52008 39.2095 6.52008 39.5191C6.52008 39.7689 6.23008 39.8988 5.72008 39.8488C5.45008 40.4682 5.16008 41.0675 4.83008 41.607H8.20008V37.0417C9.45008 37.1117 10.2301 37.3814 10.2301 37.6911C10.2301 37.9408 9.99008 38.0907 9.45008 38.1306V41.607H12.7501C13.0201 41.1375 13.3301 40.7179 13.6701 40.3183C14.2501 40.558 15.5801 41.3472 15.5801 41.7668C15.5801 42.0165 15.3401 42.1265 14.9601 42.1265H9.44008V46.2021H11.9801C12.2301 45.7626 12.5101 45.373 12.8501 44.9834C13.4501 45.2332 14.7001 45.9424 14.7001 46.362C14.7001 46.6117 14.4801 46.7216 14.1001 46.7216H9.44008V51.5266H13.8301C14.1201 51.0371 14.4501 50.5676 14.8101 50.148C15.4601 50.4377 16.8201 51.2369 16.8201 51.6564L16.8501 51.6664Z" fill="white"/>
<path d="M17.0101 60.5771C17.0101 60.7968 16.8501 60.9367 16.4501 60.9367H11.7501V64.2033H13.4401C13.5501 63.9835 13.6901 63.7537 13.8901 63.514C14.3801 63.7338 15.4501 64.3631 15.4501 64.7127C15.4501 64.9625 15.1801 65.1123 14.7801 65.1822V67.0703C14.7801 68.269 14.7801 69.188 14.8001 70.4367C14.8001 70.7064 14.4401 71.0861 13.9301 71.0861C13.6001 71.0861 13.5301 70.9562 13.5301 70.7264V69.4078H8.69007V70.4267C8.69007 70.6665 8.36007 71.0961 7.76007 71.0961C7.47007 71.0961 7.40007 70.9662 7.40007 70.7364C7.42007 69.3978 7.44007 68.239 7.44007 66.7506V63.3841C7.89007 63.6039 8.38007 63.9136 8.78007 64.2133H10.5001V60.9467H7.00007C6.40007 60.9467 5.80007 60.8368 5.58007 60.3673C4.51007 62.5949 3.44007 65.0024 3.44007 66.6706C3.44007 69.168 4.00007 69.9672 4.00007 70.4567C4.00007 70.7464 3.78007 70.9462 3.38007 70.9462C2.64007 70.9462 2.09007 70.2769 2.09007 69.3678C2.09007 68.7185 2.29007 67.4299 2.38007 66.8305C2.49007 66.1612 2.40007 65.7416 1.87007 65.362C1.40007 65.0224 0.760071 64.6328 0.330071 64.3631C0.150071 64.2532 0.0200711 64.1433 0.0900711 63.9835C0.160071 63.8236 0.330071 63.8536 0.530071 63.9136C1.15007 64.0934 1.93007 64.3531 2.69007 64.6029C3.56007 62.8447 4.90007 60.2574 6.05007 58.1296C6.18007 57.9098 6.25007 57.8399 6.45007 57.8899C6.67007 57.9398 6.65007 58.1596 6.54007 58.3793C6.27007 58.9388 5.96007 59.5581 5.67007 60.1774C7.32007 60.3573 8.88007 60.4172 10.5001 60.4172V57.1506C9.19007 57.3305 7.89007 57.4203 6.91007 57.4403C6.67007 57.4403 6.49007 57.4004 6.49007 57.2006C6.49007 57.0208 6.65007 56.9608 6.89007 56.9508C8.43007 56.821 11.8401 56.4414 13.4801 54.8331C14.1001 55.0329 15.2601 55.7721 15.2601 56.1916C15.2601 56.3515 15.1301 56.4614 14.9201 56.4614C14.6701 56.4614 14.4101 56.3914 14.2101 56.3015C13.5001 56.5712 12.6501 56.791 11.7601 56.9508V60.4172H14.4801C14.7201 60.0177 14.9901 59.6181 15.3001 59.2784C15.8601 59.5282 17.0201 60.1875 17.0201 60.5871L17.0101 60.5771ZM0.550071 58.3294C0.660071 58.1796 0.800071 58.2395 0.930071 58.2895C2.45007 58.9987 3.76007 59.8678 3.76007 60.6071C3.76007 61.0766 3.38007 61.546 2.87007 61.546C2.58007 61.546 2.51007 61.3862 2.47007 61.1864C2.42007 60.8967 2.32007 59.9177 0.690071 58.6291C0.530071 58.4992 0.450071 58.4293 0.550071 58.3194V58.3294ZM2.00007 54.9429C2.07007 54.8331 2.18007 54.8331 2.33007 54.903C3.93007 55.6422 5.29007 56.5013 5.29007 57.2206C5.29007 57.73 4.86007 58.0897 4.44007 58.0897C4.15007 58.0897 4.08007 57.8899 4.00007 57.6701C3.89007 57.3305 3.64007 56.3614 2.15007 55.2426C1.97007 55.0928 1.93007 55.0428 2.01007 54.9329L2.00007 54.9429ZM13.5201 64.7327H8.68007V68.8784H13.5201V64.7327Z" fill="white"/>
</svg>
