<svg width="170" height="123" viewBox="0 0 170 123" fill="none" xmlns="http://www.w3.org/2000/svg">
<path d="M7.81 3.59C7.81 5.6 6.48 6.72 4.83 6.94C4.3 7.01 3.84 7.01 3.25 7.01H1.05V11.98H0V0.239998H3.25C3.85 0.239998 4.31 0.239998 4.83 0.309998C6.6 0.549998 7.81 1.6 7.81 3.59ZM6.67 3.59C6.67 2.09 5.82 1.4 4.75 1.23C4.36 1.16 3.9 1.15 3.34 1.15H1.05V6.12H3.33C3.89 6.12 4.35 6.1 4.74 6.04C5.81 5.87 6.66 5.16 6.66 3.61L6.67 3.59Z" fill="#C6A93E"/>
<path d="M19.5101 11.98H18.3401C18.0501 11.23 17.8501 10.5 17.6801 8.97C17.5301 7.73 17.0201 6.76 15.7601 6.69C15.4501 6.67 15.1101 6.67 14.8401 6.67H12.4401V11.98H11.3901V0.239998H14.8401C15.4401 0.239998 15.9001 0.239998 16.4401 0.309998C18.1801 0.529998 19.3301 1.48 19.3301 3.36C19.3301 4.91 18.3401 5.84 17.1201 6.15C18.1201 6.56 18.6201 7.63 18.7401 8.86C18.9101 10.48 19.1101 11.33 19.5201 11.99L19.5101 11.98ZM14.8501 5.79C15.3601 5.79 15.6501 5.79 16.0401 5.76C17.3301 5.66 18.1801 4.82 18.1801 3.45C18.1801 2.08 17.4501 1.39 16.1701 1.2C15.7601 1.15 15.3901 1.13 14.8301 1.13H12.4301V5.79H14.8501Z" fill="#C6A93E"/>
<path d="M30.9101 11.98H23.3101V0.239998H30.7401V1.11H24.3601V5.67H30.3001V6.55H24.3601V11.11H30.9101V11.98Z" fill="#C6A93E"/>
<path d="M46.11 11.98H45.06V5.65C45.06 4.17 45.06 2.54 45.09 1.18C44.63 2.54 44.04 4.19 43.49 5.64L41.11 11.99H39.78L37.38 5.63C36.85 4.2 36.26 2.55 35.81 1.21C35.84 2.57 35.84 4.2 35.84 5.67V12H34.79V0.239998H36.51L40.47 11.09L44.43 0.239998H46.11V11.98Z" fill="#C6A93E"/>
<path d="M50.77 11.98V0.239998H51.82V11.98H50.77Z" fill="#C6A93E"/>
<path d="M64.7201 7.78C64.7201 8.12 64.7001 8.46 64.6701 8.87C64.5301 10.78 63.2201 12.22 60.5501 12.22C57.8801 12.22 56.5701 10.77 56.4201 8.87C56.3901 8.46 56.3901 8.12 56.3901 7.78V0.239998H57.4401V7.73C57.4401 8.1 57.4401 8.44 57.4701 8.77C57.6101 10.25 58.5801 11.37 60.5501 11.37C62.5201 11.37 63.4801 10.25 63.6101 8.77C63.6401 8.45 63.6601 8.11 63.6601 7.73V0.239998H64.7101V7.78H64.7201Z" fill="#C6A93E"/>
<path d="M80.57 11.98H79.52V5.65C79.52 4.17 79.52 2.54 79.55 1.18C79.09 2.54 78.5 4.19 77.95 5.64L75.57 11.99H74.24L71.84 5.63C71.31 4.2 70.72 2.55 70.27 1.21C70.3 2.57 70.3 4.2 70.3 5.67V12H69.25V0.239998H70.97L74.93 11.09L78.88 0.239998H80.56V11.98H80.57Z" fill="#C6A93E"/>
<path d="M102.83 3.39H101.72C101.52 1.79 100.5 0.85 98.9499 0.85C97.6099 0.85 96.3599 1.55 96.3599 2.94C96.3599 4.33 97.1899 4.9 99.1999 5.41C101.72 6.06 102.98 7.01 102.98 8.95C102.98 10.89 101.28 12.22 99.0299 12.22C96.6499 12.22 94.9299 11.01 94.6699 8.75H95.7899C96.0799 10.43 97.3699 11.37 99.0599 11.37C100.61 11.37 101.85 10.49 101.85 9.12C101.85 7.61 100.97 6.96 98.7699 6.41C96.5399 5.83 95.2099 5.05 95.2099 3.16C95.2099 1.27 96.9499 0 99.0199 0C101.37 0 102.59 1.48 102.81 3.39H102.83Z" fill="#C6A93E"/>
<path d="M114.67 11.98H107.07V0.239998H114.5V1.11H108.12V5.67H114.06V6.55H108.12V11.11H114.67V11.98Z" fill="#C6A93E"/>
<path d="M126.69 11.98H125.52C125.23 11.23 125.03 10.5 124.86 8.97C124.71 7.73 124.2 6.76 122.94 6.69C122.63 6.67 122.29 6.67 122.02 6.67H119.62V11.98H118.57V0.239998H122.02C122.62 0.239998 123.08 0.239998 123.62 0.309998C125.36 0.529998 126.51 1.48 126.51 3.36C126.51 4.91 125.52 5.84 124.3 6.15C125.3 6.56 125.8 7.63 125.92 8.86C126.09 10.48 126.29 11.33 126.7 11.99L126.69 11.98ZM122.03 5.79C122.54 5.79 122.83 5.79 123.22 5.76C124.51 5.66 125.36 4.82 125.36 3.45C125.36 2.08 124.63 1.39 123.35 1.2C122.94 1.15 122.57 1.13 122.01 1.13H119.61V5.79H122.03Z" fill="#C6A93E"/>
<path d="M133.54 11.98L129.31 0.239998H130.45L134.28 11.16L138.18 0.239998H139.32L134.96 11.98H133.55H133.54Z" fill="#C6A93E"/>
<path d="M142.51 11.98V0.239998H143.56V11.98H142.51Z" fill="#C6A93E"/>
<path d="M157.48 3.9L157.5 4.07H156.45L156.42 3.9C156.06 2.11 154.89 0.85 152.8 0.85C150.38 0.85 148.56 2.91 148.56 6.11C148.56 9.31 150.3 11.37 152.68 11.37C154.86 11.37 156.01 10.06 156.37 8.26L156.4 8.09H157.45L157.43 8.26C157.12 10.42 155.59 12.22 152.6 12.22C149.38 12.22 147.38 9.74 147.38 6.16C147.38 2.58 149.63 0 152.84 0C155.66 0 157.18 1.67 157.48 3.9Z" fill="#C6A93E"/>
<path d="M169.28 11.98H161.68V0.239998H169.11V1.11H162.73V5.67H168.67V6.55H162.73V11.11H169.28V11.98Z" fill="#C6A93E"/>
<path d="M57.7599 70.56C57.7599 70.83 57.5299 70.99 56.8899 71.03C56.3799 71.48 55.8199 72 55.3599 72.35C55.1699 72.49 54.9899 72.58 54.8199 72.43C54.6999 72.33 54.7399 72.18 54.7999 72.02C54.9699 71.59 55.1699 71.15 55.3399 70.64H48.9699V75.32C48.9699 75.53 48.6199 76.06 47.9999 76.06C47.6299 76.06 47.5499 75.87 47.5499 75.63V70.64H41.6999C41.4499 72.29 40.6899 73.2 39.6999 73.2C39.1799 73.2 38.8999 72.93 38.8999 72.58C38.8999 72.21 39.2699 72.06 39.6199 71.86C40.3999 71.43 41.0199 70.89 41.1499 69.39C41.1699 69.2 41.1899 69.02 41.4399 69.02C41.6899 69.02 41.7899 69.21 41.7899 69.43C41.7899 69.64 41.7899 69.84 41.7699 70.05H47.5599V68.13H42.5099C41.7899 68.13 40.9199 67.99 40.6799 67.18C43.2999 67.45 45.6699 67.53 48.2199 67.53H52.9999C53.2499 67.12 53.5099 66.68 53.8699 66.31C54.5299 66.56 55.8499 67.28 55.8499 67.73C55.8499 68 55.5999 68.12 55.2299 68.12H48.9799V70.04H55.2499C55.4099 69.73 55.5999 69.44 55.8299 69.17C56.7199 69.52 57.7699 70.14 57.7699 70.55L57.7599 70.56ZM57.4699 79.57C57.4699 79.84 57.2399 79.98 56.7899 79.98L48.0499 80.02C47.2899 81.05 46.4799 82 45.7199 82.78C48.3399 82.74 50.4999 82.51 52.0899 82.22C51.6799 81.83 51.1799 81.44 50.5899 81.07C50.3599 80.93 50.1799 80.82 50.2999 80.57C50.3999 80.34 50.6899 80.41 50.9399 80.51C53.8499 81.66 55.4499 82.82 55.4499 83.81C55.4499 84.41 54.9099 85.05 54.3199 85.05C53.9499 85.05 53.8499 84.78 53.7199 84.53C53.5599 84.18 53.2299 83.48 52.5199 82.7C50.2899 83.36 46.7899 83.96 43.0999 84.14C43.1199 84.41 43.0599 84.8 42.7299 84.8C42.0899 84.8 41.1399 83.91 40.8699 82.12C41.9199 82.57 43.6699 82.76 44.8499 82.78C45.2999 81.85 45.6299 80.97 45.9599 80.02L41.2599 80.04C40.3899 80.04 39.4099 79.96 39.0799 79.07C42.0499 79.4 45.2199 79.44 48.4199 79.44H54.5399C54.8099 78.99 55.0999 78.51 55.4699 78.1C56.1899 78.39 57.4699 79.13 57.4699 79.56V79.57ZM42.7299 75.1C42.1099 75.1 41.5599 74.91 41.4099 74.3C42.4599 74.44 43.6799 74.51 44.6099 74.51C44.8199 74.16 45.0199 73.81 45.3299 73.5C45.9099 73.75 46.9199 74.37 46.9199 74.74C46.9199 74.97 46.7499 75.11 46.3399 75.11H42.7299V75.1ZM42.6299 72.87C42.0499 72.87 41.6199 72.6 41.5199 72.07C42.5899 72.21 43.6799 72.28 44.6699 72.28C44.8799 71.93 45.0799 71.6 45.3499 71.29C45.9099 71.52 46.9199 72.14 46.9199 72.51C46.9199 72.76 46.7299 72.88 46.3599 72.88H42.6299V72.87ZM48.0299 77.05H51.8199C52.0699 76.64 52.3399 76.25 52.6499 75.88C53.3299 76.17 54.4599 76.85 54.4599 77.24C54.4599 77.51 54.2499 77.65 53.7799 77.65H43.6199C42.7999 77.65 41.8499 77.49 41.6199 76.7C43.6199 76.95 45.7799 77.05 48.0299 77.05ZM50.6099 72.87C50.0699 72.87 49.5599 72.66 49.4099 72.07C50.3199 72.19 51.3499 72.28 52.2099 72.28C52.3999 71.95 52.6399 71.6 52.9299 71.29C53.4699 71.54 54.4799 72.09 54.4799 72.51C54.4799 72.74 54.3099 72.88 53.9399 72.88H50.5999L50.6099 72.87ZM50.6299 75.1C50.0699 75.1 49.5399 74.87 49.4099 74.3C50.4199 74.44 51.4299 74.51 52.3199 74.51C52.5299 74.16 52.7699 73.81 53.0399 73.5C53.5999 73.73 54.6699 74.37 54.6699 74.74C54.6699 74.97 54.4899 75.11 54.0899 75.11H50.6299V75.1Z" fill="black"/>
<path d="M79.8899 74.37C79.8899 74.6 79.7499 74.74 79.3299 74.74H74.0499C73.4699 75.75 73.0399 76.41 72.3999 77.23H77.0399C77.1799 76.96 77.3499 76.69 77.5799 76.45C78.2999 76.78 79.1299 77.4 79.1299 77.71C79.1299 78 78.8599 78.12 78.5099 78.16V82.9C78.5099 83.85 77.9499 84.55 76.2199 84.98C75.9699 84.46 75.0499 84.24 74.0999 83.95C73.8899 83.89 73.7099 83.85 73.7299 83.58C73.7499 83.33 73.9799 83.37 74.2199 83.39C74.6699 83.43 75.4199 83.51 75.9899 83.51C76.8299 83.51 77.1399 83.16 77.1399 82.54V77.82H75.4699V79.74C75.4699 80.65 75.4899 81.55 75.5099 82.32C75.5099 82.67 75.1199 83.06 74.5799 83.06C74.2499 83.06 74.1899 82.92 74.1899 82.67C74.2099 81.78 74.2299 80.65 74.2299 79.72V77.82H72.6999V79.72C72.6999 81.04 72.7199 82.3 72.7399 83.29C72.7399 83.64 72.3699 84.05 71.8299 84.05C71.4999 84.05 71.4199 83.89 71.4199 83.64C71.4399 82.38 71.4599 81.06 71.4599 79.7V77.82H69.8099V84.03C69.8099 84.42 69.2899 84.81 68.8399 84.81C68.5299 84.81 68.4299 84.69 68.4299 84.42C68.4499 82.89 68.4899 81.33 68.4899 79.56V76.32C69.0099 76.57 69.4599 76.86 69.9099 77.23H71.8299C72.0999 76.32 72.2399 75.66 72.3899 74.74H69.5699C68.9699 74.74 68.1499 74.66 67.7599 74.18C67.6199 74.22 67.4299 74.22 67.1999 74.2C66.6999 76.45 65.7799 79.17 65.0399 80.61C66.1299 80.36 67.1399 80.03 67.8199 79.76C68.0299 79.68 68.2099 79.7 68.2899 79.88C68.3699 80.07 68.2499 80.19 67.9999 80.31C66.8699 80.89 64.8499 81.67 62.8099 82.27C62.8499 82.64 62.7499 82.99 62.3999 82.99C61.8999 82.99 60.9599 82.14 60.6899 80.76C61.4499 81.01 62.3599 80.99 63.3499 80.88C63.6999 80.84 64.0699 80.8 64.4199 80.71C64.9399 79.41 65.9699 75.99 65.7399 72.67C66.7899 72.9 67.8599 73.37 67.9899 73.76C69.5599 73.99 71.4899 74.11 73.5799 74.11H77.0399C77.3299 73.66 77.6199 73.26 77.9899 72.87C78.6499 73.18 79.8899 73.9 79.8899 74.33V74.37ZM62.4899 72.08C61.8099 72.08 61.1499 71.94 60.9599 71.21C62.0299 71.4 63.3699 71.46 64.7499 71.46H65.8199C66.0299 71.07 66.2499 70.7 66.5799 70.31C67.2799 70.62 68.3099 71.32 68.3099 71.69C68.3099 71.94 68.0799 72.08 67.6699 72.08H62.4699H62.4899ZM62.9399 78.84C63.0599 78.04 63.3099 76.1 62.0499 73.56C61.9499 73.35 61.8599 73.15 62.0499 73.04C62.2399 72.94 62.3799 73.06 62.5399 73.31C63.7399 75.1 64.5199 76.77 64.5199 77.93C64.5199 78.69 63.9999 79.39 63.4099 79.39C62.9799 79.39 62.8899 79.12 62.9399 78.83V78.84ZM62.9799 66.9C62.7899 66.67 62.7099 66.49 62.9199 66.34C63.0599 66.24 63.2299 66.3 63.4799 66.51C64.6499 67.5 65.7499 68.65 65.7499 69.52C65.7499 70.12 65.3199 70.76 64.6599 70.76C64.2299 70.76 64.1199 70.47 64.1199 70.14C64.1199 69.56 64.0999 68.26 62.9899 66.9H62.9799ZM69.0799 72.61C69.0999 71.54 69.1199 70.49 69.1199 69.44V67.42C70.5399 67.5 71.2899 67.81 71.2899 68.14C71.2899 68.41 71.0199 68.53 70.4899 68.59V71.15H72.8199V66.08C74.1399 66.16 74.9599 66.43 74.9599 66.78C74.9599 67.05 74.6499 67.19 74.1799 67.23V71.15H76.5099V67.42C77.8899 67.5 78.6799 67.83 78.6799 68.12C78.6799 68.39 78.4299 68.51 77.8999 68.57V69.64C77.8999 70.49 77.9199 71.27 77.9199 72.09C77.9199 72.38 77.6099 72.81 76.9099 72.81C76.5799 72.81 76.5199 72.64 76.5199 72.46V71.74H70.4999V72.26C70.4999 72.53 70.1499 72.96 69.4699 72.96C69.1399 72.96 69.0999 72.79 69.0999 72.61H69.0799Z" fill="black"/>
<path d="M87.1499 69.42C85.9999 70.97 84.7599 72.12 83.4999 73.03C83.2099 73.24 82.8599 73.3 82.7199 73.11C82.5499 72.9 82.7799 72.74 83.0099 72.55C84.1199 71.58 86.4899 69.09 87.0899 66.08C88.5899 66.43 89.3599 66.95 89.3599 67.25C89.3599 67.5 89.0899 67.68 88.3499 67.62C88.0999 68.03 87.8299 68.44 87.5899 68.82H90.2699C90.4999 68.45 90.7399 68.04 91.0699 67.67C91.7099 67.92 92.8999 68.64 92.8999 69.01C92.8999 69.22 92.7599 69.42 92.2599 69.42H88.2999C89.7199 69.94 90.5299 70.55 90.5299 71.05C90.5299 71.59 90.0799 72.02 89.5799 72.02C89.2299 72.02 89.1699 71.85 89.1099 71.59C89.0099 71.2 88.8599 70.35 87.6699 69.43H87.1499V69.42ZM101.33 73.38C101.33 73.69 101.04 73.87 100.34 73.9C99.8699 74.46 99.3099 75.03 98.8999 75.45C98.6899 75.66 98.5099 75.72 98.3599 75.64C98.2199 75.56 98.2199 75.41 98.3199 75.17C98.5099 74.72 98.7299 74.06 98.9199 73.46H86.1599C86.1599 74.99 85.6199 76.16 84.5099 76.16C84.0399 76.16 83.7299 75.93 83.7299 75.52C83.7299 75.15 84.0599 74.94 84.3699 74.7C84.9899 74.21 85.3799 73.38 85.3799 71.98C85.3799 71.73 85.3999 71.55 85.6299 71.53C85.8599 71.51 85.9799 71.65 86.0199 71.92L86.1399 72.87H92.3399L92.2799 72.6C92.2199 72.23 92.0499 71.45 91.0799 70.62C90.8899 70.45 90.9099 70.31 90.9999 70.21C91.0799 70.09 91.2299 70.07 91.4699 70.17C91.7399 70.29 91.9899 70.4 92.2099 70.52C93.2399 69.57 94.4199 67.98 94.5999 66.09C95.7999 66.38 96.7899 67.02 96.7899 67.31C96.7899 67.6 96.4799 67.74 95.8599 67.68C95.6099 68.09 95.3199 68.5 95.0199 68.86H98.3599C98.6099 68.45 98.8599 67.99 99.2099 67.62C99.9099 67.91 101.21 68.65 101.21 69.04C101.21 69.25 101.02 69.45 100.55 69.45H95.9299C97.3099 69.84 98.3399 70.48 98.3399 71.1C98.3399 71.57 97.9099 71.99 97.3699 71.99C97.0399 71.99 96.9599 71.8 96.8499 71.52C96.6599 70.98 96.1699 70.1 95.0599 69.46H94.4799C93.8999 70.04 93.3299 70.51 92.8099 70.86C93.4699 71.27 93.8399 71.66 93.8399 72.14C93.8399 72.43 93.6799 72.7 93.4099 72.88H98.8099C98.9799 72.59 99.1999 72.26 99.4299 71.99C100.28 72.34 101.33 72.98 101.33 73.41V73.38ZM98.5499 80.74C98.5499 80.99 98.3599 81.11 97.9099 81.17V82.04C97.9099 82.66 97.9299 83.46 97.9499 84.14C97.9499 84.41 97.4999 84.9 96.9599 84.9C96.5499 84.9 96.4899 84.76 96.4899 84.51V83.75H88.9699V84.33C88.9699 84.54 88.5599 85.05 87.9199 85.05C87.5699 85.05 87.4899 84.91 87.4899 84.66C87.5299 82.85 87.5499 80.7 87.5499 79.03V74.25C88.0199 74.46 88.6199 74.79 89.0799 75.14H95.3499C95.4899 74.87 95.6999 74.58 95.8899 74.36C96.5499 74.65 97.4999 75.31 97.4999 75.64C97.4999 75.89 97.3099 76.01 96.8599 76.07V76.83C96.8599 77.35 96.8799 77.92 96.8999 78.4C96.8999 78.67 96.4699 79.16 95.9299 79.16C95.5199 79.16 95.4599 79.02 95.4599 78.77V78.44H88.9899V80.25H96.4099C96.5499 79.98 96.7599 79.71 96.9499 79.49C97.6499 79.78 98.5799 80.42 98.5799 80.75L98.5499 80.74ZM95.4399 75.73H88.9699V77.83H95.4399V75.73ZM88.9699 83.15H96.4899V80.84H88.9699V83.15Z" fill="black"/>
<path d="M124.02 82.27C124.02 82.46 123.81 82.52 123.57 82.56C122.15 82.79 121.45 82.83 121.28 83.18C120.15 82.62 118.31 80.75 116.66 77.18C116.23 77.35 115.84 77.47 115.49 77.59C116.01 78.7 116.19 79.67 116.19 80.66C116.19 82.99 115.1 84.35 112.77 84.8C112.58 84.22 111.06 83.85 109.74 83.46C109.47 83.38 109.35 83.32 109.39 83.05C109.43 82.82 109.7 82.82 109.88 82.86C110.35 82.94 111.3 83.15 112.19 83.15C114.05 83.15 114.77 82.12 114.77 80.53C114.77 80.16 114.75 79.77 114.69 79.35C111.87 81.58 107.99 82.81 105.1 83.25C104.85 83.29 104.6 83.27 104.58 83.02C104.56 82.77 104.75 82.69 105.01 82.65C107.5 82.18 111.46 80.84 114.35 77.76C114.25 77.37 114.12 76.96 113.96 76.58C111.59 78.58 108.58 79.49 106.31 79.96C105.98 80.02 105.79 80 105.75 79.77C105.71 79.56 105.85 79.46 106.14 79.4C107.34 79.11 110.86 78.08 113.38 75.36C113.19 75.05 113.01 74.76 112.82 74.49C110.51 76.04 107.67 76.72 106.64 76.88C106.39 76.92 106.21 76.92 106.17 76.72C106.13 76.52 106.25 76.45 106.54 76.39C107.61 76.12 110.87 75.22 113.03 72.78H110.1C109.23 72.78 108.49 72.59 108.24 71.85C110.12 72.1 111.87 72.18 113.81 72.18H116.31C116.56 71.77 116.85 71.36 117.18 70.98C117.9 71.29 119.1 71.99 119.1 72.38C119.1 72.63 118.91 72.77 118.5 72.77H114.75C114.36 73.26 113.86 73.72 113.35 74.11C114.22 75.26 114.85 76.23 115.29 77.12C116.51 76.58 118.38 75.24 119.02 73.55C120.03 73.94 120.98 74.52 120.98 74.93C120.98 75.18 120.61 75.24 120.09 75.18C119.2 75.94 118.19 76.48 117.25 76.89C119.56 80.99 123.06 81.75 123.58 81.9C123.81 81.96 124.03 82.02 124.03 82.23L124.02 82.27ZM105.4 72.27C105.4 72 105.67 71.75 105.85 71.55C106.47 70.87 106.78 69.8 106.61 68.5C106.59 68.29 106.61 68.13 106.84 68.09C107.07 68.05 107.17 68.21 107.25 68.42C107.35 68.73 107.46 69.04 107.52 69.35H113.7C113.68 69.29 113.68 69.23 113.66 69.14C113.6 68.81 113.31 67.8 111.68 66.48C111.49 66.34 111.35 66.27 111.45 66.09C111.53 65.95 111.74 65.97 111.92 66.03C113.92 66.75 115.26 67.6 115.26 68.4C115.26 68.75 115.09 69.12 114.81 69.35H119.94C120.13 69 120.33 68.71 120.58 68.4C121.53 68.79 122.66 69.51 122.66 69.9C122.66 70.19 122.33 70.31 121.77 70.37C121.23 70.95 120.64 71.46 120.12 71.9C119.95 72.02 119.75 72.19 119.54 72.04C119.37 71.92 119.44 71.75 119.52 71.57C119.73 71.05 119.93 70.54 120.14 69.94H107.63C107.71 70.41 107.75 70.85 107.75 71.22C107.75 72.09 107.11 72.85 106.18 72.85C105.68 72.85 105.38 72.62 105.38 72.27H105.4Z" fill="black"/>
<path d="M28.9199 109.68C28.9199 110.44 28.4299 111.33 27.5899 111.33C27.1499 111.33 27.0999 111.03 26.9199 110.66C26.7199 110.19 26.3999 109.25 25.2699 107.97C22.3799 108.88 17.4799 109.82 11.4099 110.12C11.4599 110.66 11.2899 111.03 10.9399 111.03C10.2299 111.03 8.69988 109.97 8.37988 107.38C9.33988 107.95 11.1699 108.34 13.1099 108.42C14.5199 106.64 16.2399 103.44 16.8599 99.79C18.5599 100.23 19.9199 100.97 19.9199 101.44C19.9199 101.83 19.3799 101.98 18.4399 101.91C17.1799 104.79 15.4299 107.06 13.9799 108.42C18.8899 108.4 22.4599 107.98 24.7299 107.41C24.0399 106.72 23.0999 105.96 21.8499 105.14C21.4999 104.92 21.3099 104.77 21.4799 104.5C21.6299 104.25 21.8699 104.3 22.2199 104.48C26.0399 106.3 28.9299 108.3 28.9299 109.68H28.9199ZM26.0899 113.58C26.0899 113.93 25.7199 114.12 25.0999 114.22V116.78C25.0999 118.28 25.1199 119.99 25.1499 121.27C25.1499 121.62 24.7299 122.23 23.8699 122.23C23.4299 122.23 23.3999 122.01 23.3999 121.76V120.3H13.9799V121.29C13.9799 121.64 13.5099 122.23 12.7199 122.23C12.2499 122.23 12.2299 122.01 12.2299 121.74C12.2599 120.06 12.2799 118.36 12.2799 116.51V111.78C12.8999 112.08 13.5899 112.52 14.0999 112.91H23.2699C23.4699 112.59 23.6899 112.27 23.9599 111.95C24.7699 112.32 26.0799 113.11 26.0799 113.58H26.0899ZM13.9799 119.6H23.3999V113.63H13.9799V119.6Z" fill="black"/>
<path d="M56.1398 103.64C56.1398 104.01 55.7698 104.18 55.1998 104.18H45.4598V107.39H51.7498C51.8998 107.09 52.0898 106.75 52.3698 106.45C53.1798 106.79 54.4898 107.63 54.4898 108.1C54.4898 108.42 54.1898 108.62 53.5798 108.69V119.61C53.5798 120.92 52.6198 121.76 50.5198 122.3C50.1298 121.58 48.3298 121.24 47.2698 120.94C46.9498 120.84 46.6498 120.84 46.7298 120.45C46.7998 120.1 47.1198 120.15 47.4198 120.18C47.9898 120.23 48.9998 120.35 50.0098 120.35C51.3898 120.35 51.8798 119.91 51.8798 118.99V108.09H38.1498V113.69C38.1498 116.5 38.1498 118.97 38.1698 121.36C38.1698 121.71 37.7298 122.3 36.9598 122.3C36.5198 122.3 36.3698 122.1 36.3698 121.73C36.4198 119.24 36.4398 116.72 36.4398 113.69V106.27C37.0298 106.54 37.6498 106.94 38.2398 107.38H43.7598V104.17H36.1898C35.0298 104.17 33.8498 103.95 33.5498 102.94C37.2698 103.36 40.6298 103.46 43.7598 103.46V99.76C45.5598 99.93 46.4698 100.3 46.4698 100.72C46.4698 101.02 46.1498 101.26 45.4598 101.29V103.46H52.1198C52.4398 102.84 52.8098 102.23 53.3298 101.64C54.3698 102.06 56.1398 103.07 56.1398 103.64ZM45.3598 116.73C45.3598 117.94 45.4098 119.54 45.4298 120.8C45.4298 121.22 44.8598 121.76 44.1998 121.76C43.8098 121.76 43.6798 121.59 43.6798 121.29C43.7098 119.69 43.7298 118.23 43.7298 116.73H40.8698C39.9598 116.73 38.8698 116.63 38.4798 115.57C40.3598 115.84 42.0798 115.96 43.7298 115.99V113.15H41.5798C40.5698 113.15 39.5798 113.03 39.1398 111.99C40.8398 112.24 42.7398 112.41 44.3398 112.41H44.8798C45.7898 111.42 46.6098 109.75 46.6598 108.27C47.9698 108.57 48.9298 109.28 48.9298 109.63C48.9298 109.88 48.6398 110.05 47.9698 109.98C47.3998 110.89 46.4398 111.78 45.5998 112.42L47.5698 112.44C47.8198 112.02 48.0598 111.58 48.4298 111.18C49.0998 111.5 50.3498 112.29 50.3498 112.71C50.3498 113.03 50.0498 113.15 49.6398 113.15H45.3498V115.99L47.9398 116.01C48.1898 115.54 48.4598 115.1 48.8298 114.65C49.6198 115 50.9298 115.83 50.9298 116.28C50.9298 116.58 50.6298 116.72 50.1698 116.72H45.3598V116.73ZM41.0198 108.96C40.8198 108.79 40.6498 108.71 40.8198 108.49C40.9698 108.29 41.2098 108.42 41.4598 108.54C42.9398 109.28 44.0198 110.14 44.0198 110.81C44.0198 111.35 43.4998 111.97 43.0098 111.97C42.6198 111.97 42.4898 111.72 42.4398 111.38C42.3698 110.86 42.1398 109.95 41.0098 108.96H41.0198Z" fill="black"/>
<path d="M70.6197 112.72C70.6197 112.99 70.3697 113.19 69.7797 113.26V116.44C69.7797 117.92 69.7997 119.62 69.8297 121.2C69.8297 121.57 69.3397 122.09 68.6697 122.09C68.2297 122.09 68.1497 121.97 68.1497 121.62V120.39H63.1397V121.3C63.1397 121.69 62.6497 122.21 61.9297 122.21C61.4597 122.21 61.4097 121.99 61.4097 121.72C61.4297 119.8 61.4597 117.82 61.4597 116.2V110.95C62.0997 111.25 62.6897 111.62 63.2597 112.06H68.0197C68.1897 111.79 68.4097 111.47 68.6397 111.2C69.5997 111.62 70.6097 112.28 70.6097 112.73L70.6197 112.72ZM68.1497 112.77H63.1397V115.73H68.1497V112.77ZM63.1397 119.67H68.1497V116.44H63.1397V119.67ZM65.2097 109.86C65.2297 108.18 65.2597 106.7 65.2597 105.08V100.37C65.8997 100.62 66.5197 101.04 67.0797 101.48H75.0697C75.2697 101.16 75.4597 100.84 75.7097 100.57C76.6997 101.01 77.7597 101.7 77.7597 102.17C77.7597 102.44 77.5097 102.66 76.8997 102.74V105.35C76.8997 106.76 76.9197 108.01 76.9497 109.42C76.9497 109.81 76.4297 110.36 75.7397 110.36C75.2697 110.36 75.1997 110.21 75.1997 109.87V109.03H66.9597V109.45C66.9597 109.84 66.4397 110.36 65.7297 110.36C65.2597 110.36 65.2097 110.14 65.2097 109.87V109.86ZM75.1997 102.19H66.9597V104.8H75.1997V102.19ZM66.9597 108.31H75.1997V105.52H66.9597V108.31ZM80.6697 113.27V116.45C80.6697 117.93 80.6897 119.75 80.7197 121.33C80.7197 121.7 80.2297 122.22 79.5597 122.22C79.1197 122.22 79.0397 122.1 79.0397 121.75V120.39H73.9397V121.3C73.9397 121.69 73.4497 122.21 72.7297 122.21C72.2597 122.21 72.2097 121.99 72.2097 121.72C72.2397 119.8 72.2597 117.82 72.2597 116.2V110.95C72.8997 111.25 73.4897 111.62 74.0597 112.06H78.9197C79.0897 111.79 79.3097 111.47 79.5397 111.2C80.4997 111.62 81.5097 112.28 81.5097 112.73C81.5097 113 81.2597 113.2 80.6697 113.27ZM79.0397 112.78H73.9397V115.74H79.0397V112.78ZM73.9397 119.68H79.0397V116.45H73.9397V119.68Z" fill="black"/>
<path d="M108.99 120.9C108.99 121.2 108.82 121.25 108.42 121.29C106.6 121.54 105.12 121.66 104.92 122.05C102.87 121.48 99.7197 118.84 97.6997 114.48H97.4497C96.3697 119.51 91.6597 121.56 86.0297 122.25C85.6597 122.3 85.3897 122.25 85.3597 121.93C85.3297 121.66 85.6797 121.54 85.9297 121.51C90.4697 120.89 94.7597 118.58 95.6697 114.48H88.4697C87.5097 114.48 86.3497 114.41 86.0297 113.3C87.6797 113.52 89.5297 113.67 90.9597 113.67V107.63C91.5997 107.95 92.2697 108.32 92.7797 108.74H96.1597C96.1397 107.75 96.0897 106.64 95.9097 105.51C97.4597 105.66 98.8197 106.15 98.8197 106.62C98.8197 106.97 98.4297 107.09 97.9097 107.14C97.9097 107.68 97.9097 108.22 97.9297 108.74H101.21C101.38 108.42 101.55 108.12 101.8 107.8C102.76 108.19 103.94 108.96 103.94 109.45C103.94 109.77 103.62 109.99 103.03 110.09V113.76H104.46C104.78 113.17 105.15 112.58 105.62 112.06C106.7 112.55 108.23 113.42 108.23 113.96C108.23 114.31 107.96 114.48 107.37 114.48H98.5397C101.38 119.56 107.74 120.45 108.4 120.52C108.77 120.57 108.97 120.62 108.97 120.89L108.99 120.9ZM89.1597 104.26C88.1997 104.26 86.8697 104.24 86.5197 103.13C88.6197 103.4 90.7597 103.55 92.8297 103.55V99.78C94.5297 99.88 95.6397 100.27 95.6397 100.72C95.6397 101.04 95.3197 101.26 94.5297 101.31V103.55H99.5297V99.78C101.21 99.9 102.34 100.27 102.34 100.72C102.34 101.04 102.02 101.26 101.23 101.31V103.55H103.79C104.11 102.93 104.48 102.34 104.95 101.8C106.18 102.32 107.64 103.28 107.64 103.77C107.64 104.09 107.37 104.26 106.78 104.26H101.23C101.23 104.8 101.25 105.39 101.28 105.94C101.28 106.31 100.76 106.8 100.02 106.8C99.5797 106.8 99.4797 106.6 99.4797 106.31C99.4997 105.67 99.5297 104.98 99.5297 104.26H94.5297C94.5297 104.93 94.5497 105.54 94.5497 106.06C94.5497 106.36 94.1297 106.92 93.3197 106.92C92.8797 106.92 92.7797 106.72 92.7797 106.43C92.7997 105.74 92.8297 105 92.8297 104.26H89.1597ZM92.6597 109.46V113.68L95.8397 113.7C96.0597 112.44 96.1597 111.01 96.1597 109.46H92.6597ZM101.34 109.46H97.9397C97.9197 111.04 97.7897 112.49 97.5997 113.73L101.35 113.75V109.46H101.34Z" fill="black"/>
<path d="M117.33 121.32C117.33 121.74 116.96 122.06 116.44 122.06C115.55 122.06 114.74 121.17 114.74 119.91C114.74 118.97 115.01 117.05 115.11 116.26C115.23 115.35 114.99 114.76 114.32 114.16C113.8 113.69 113.04 113.22 112.32 112.85C112.07 112.73 111.88 112.58 111.97 112.36C112.07 112.14 112.29 112.21 112.56 112.29C113.42 112.54 114.41 112.83 115.42 113.23C116.7 110.2 118.45 106.45 119.73 103.91C119.88 103.59 120 103.42 120.22 103.52C120.52 103.64 120.49 103.84 120.34 104.16C118.98 107.22 116.54 112.35 116.52 116.07C116.49 119.47 117.31 120.71 117.31 121.32H117.33ZM112.52 104.97C112.69 104.8 112.84 104.87 113.06 104.99C115.16 106.07 116.64 107.14 116.64 107.97C116.64 108.61 116.12 109.18 115.48 109.18C115.06 109.18 114.99 108.88 114.91 108.61C114.81 108.19 114.69 106.91 112.74 105.45C112.52 105.28 112.37 105.1 112.52 104.96V104.97ZM114.22 100.41C114.37 100.24 114.59 100.31 114.86 100.46C117.15 101.72 118.36 102.75 118.36 103.59C118.36 104.18 117.87 104.82 117.2 104.82C116.76 104.82 116.68 104.52 116.61 104.25C116.49 103.73 116.31 102.3 114.44 100.9C114.19 100.7 114.07 100.58 114.22 100.41ZM134.51 102.48C134.51 102.75 134.26 102.95 133.7 102.95H128.62V106.72H130.52C130.69 106.35 130.87 106.05 131.14 105.76C132.05 106.1 133.24 106.89 133.24 107.36C133.24 107.71 132.87 107.85 132.33 107.93V113.13C132.33 115.45 132.38 118.88 132.4 121.22C132.4 121.61 131.86 122.26 131.14 122.26C130.67 122.26 130.65 122.06 130.65 121.74V119.84H121.87V121.29C121.87 121.76 121.28 122.28 120.66 122.28C120.32 122.28 120.17 122.11 120.17 121.79C120.22 119.64 120.24 116.34 120.24 113.09V105.72C120.78 105.94 121.42 106.31 121.99 106.73H124.14V102.96H121.21C120.2 102.96 118.94 102.81 118.62 101.83C121.13 102.17 124 102.25 126.39 102.25H131.1C131.4 101.68 131.77 101.19 132.16 100.75C133.12 101.12 134.53 102.01 134.53 102.5L134.51 102.48ZM121.86 107.44V115.63H130.64V113.39C130.15 113.44 129.6 113.46 129.09 113.46C127.49 113.46 127.17 112.94 127.17 111.76V107.45H125.62C125.59 110.48 124.56 112.92 122.59 114.35C122.39 114.5 122.24 114.57 122.07 114.45C121.92 114.33 122.02 114.2 122.19 114.01C123.6 112.48 124.11 110.53 124.14 107.45H121.87L121.86 107.44ZM121.86 119.13H130.64V116.34H121.86V119.13ZM127.16 106.73V102.96H125.61V106.73H127.16ZM130.64 107.45H128.62V111.76C128.62 112.11 128.77 112.25 129.19 112.25C129.41 112.25 129.68 112.23 129.93 112.15C130.1 112.1 130.25 112.03 130.37 112.03C130.47 112.03 130.57 112.05 130.64 112.1V107.44V107.45Z" fill="black"/>
<path d="M143.32 104.48C143.37 105.76 143.37 106.75 143.35 107.88C143.2 113.72 142.12 118.16 138.62 122.03C138.37 122.3 138.1 122.35 137.9 122.18C137.7 122.01 137.8 121.86 138.02 121.59C140.9 118.04 141.6 113.21 141.64 108.05C141.66 106.1 141.57 104.35 141.39 102.6C142.1 102.87 142.99 103.34 143.63 103.76H155.81C156.11 103.24 156.48 102.68 156.92 102.16C157.76 102.53 159.39 103.47 159.39 103.99C159.39 104.31 159.12 104.48 158.63 104.48H143.32ZM159.5 109.58C159.5 109.9 159.2 110.07 158.69 110.07H151.42V113.97H154.8C154.97 113.65 155.19 113.35 155.44 113.03C156.2 113.35 157.59 114.21 157.59 114.71C157.59 115.08 157.2 115.23 156.63 115.35V117.32C156.63 118.48 156.65 120.28 156.68 121.39C156.68 121.78 156.21 122.3 155.42 122.3C154.98 122.3 154.93 122.15 154.93 121.83V120.13H146.84V121.41C146.84 121.73 146.35 122.3 145.53 122.3C145.11 122.3 145.04 122.1 145.04 121.83C145.07 120.33 145.14 118.06 145.14 116.68V112.83C145.76 113.13 146.45 113.57 146.96 113.96H149.72V105.23C151.32 105.33 152.46 105.67 152.46 106.12C152.46 106.49 152.04 106.66 151.42 106.71V109.35H156.08C156.38 108.81 156.75 108.27 157.19 107.77C158.13 108.16 159.51 109.05 159.51 109.57L159.5 109.58ZM154.91 114.68H146.82V119.41H154.91V114.68ZM147.51 99.79C147.61 99.62 147.78 99.64 148.05 99.74C150.27 100.53 151.58 101.49 151.58 102.28C151.58 102.9 151.14 103.61 150.35 103.61C149.83 103.61 149.83 103.36 149.78 103.07C149.68 102.48 149.16 101.39 147.68 100.21C147.53 100.09 147.38 99.99 147.51 99.79Z" fill="black"/>
</svg>
