<svg width="18" height="71" viewBox="0 0 18 71" fill="none" xmlns="http://www.w3.org/2000/svg">
<path d="M17.3201 11.0599C17.1401 12.1987 16.8101 14.1367 16.8101 14.6661C16.8101 14.9558 16.9501 15.1756 17.2601 15.3354C17.1101 15.785 16.6301 16.2645 16.0601 16.2645C15.3901 16.2645 14.1701 15.3554 13.4501 12.9879C12.9601 11.3896 12.8301 9.16188 12.8501 5.86534C12.8501 4.63662 12.9401 3.17817 13.0301 1.69972H4.17006C4.24006 3.03831 4.28006 4.32695 4.26006 5.55566C4.19006 9.92109 3.41006 13.4074 0.89006 16.2645C0.64006 16.5541 0.45006 16.5741 0.27006 16.3943C0.13006 16.2445 0.20006 16.1046 0.36006 15.8848C2.23006 13.2776 2.97006 9.67137 3.01006 5.66556C3.03006 3.90741 2.90006 2.07931 2.70006 0.251221C3.21006 0.451011 3.90006 0.790649 4.41006 1.18024H12.7401C12.8901 0.930502 13.0701 0.670794 13.2501 0.451024C14.1001 0.74072 15.1001 1.36005 15.1001 1.76962C15.1001 2.05932 14.7401 2.1692 14.3701 2.23913C14.2601 3.52778 14.1901 4.73653 14.1701 5.84537C14.0601 10.9001 14.7301 14.0168 15.5301 14.0168C16.2201 14.0168 16.5601 11.9889 16.7801 10.92C16.8201 10.7003 16.9601 10.5904 17.1201 10.6304C17.2701 10.6703 17.3701 10.7902 17.3201 11.0699V11.0599ZM13.0701 14.6461C13.0701 15.2455 12.6201 15.7849 12.0501 15.7849C11.7601 15.7849 11.6501 15.6051 11.6301 15.3454C11.6101 15.0157 11.6101 14.5163 11.3601 13.877C10.0201 14.3665 7.86006 14.806 5.32006 14.9858C5.36006 15.2355 5.28006 15.5252 5.05006 15.5252C4.61006 15.5252 3.93006 14.8759 3.73006 13.4974C4.38006 13.7371 5.18006 13.9169 6.36006 13.9169C6.87006 13.9169 7.34006 13.8969 7.78006 13.877V10.5404H6.38006V10.7402C6.38006 10.96 6.04006 11.3596 5.53006 11.3596C5.22006 11.3596 5.17006 11.2297 5.17006 11.0199C5.19006 10.1708 5.21006 9.24181 5.21006 8.43266V6.0052C5.66006 6.205 6.12006 6.47469 6.48006 6.76439H7.79006V4.58668C6.70006 4.63662 5.65006 4.63663 4.83006 4.62664C4.54006 4.60666 4.45006 4.49676 4.45006 4.35691C4.45006 4.17709 4.60006 4.10717 4.85006 4.10717C6.57006 4.06721 9.66006 3.81749 11.0401 2.74861C11.6901 3.19813 12.3601 3.9074 12.3601 4.25704C12.3601 4.65662 11.6901 4.52673 11.3301 4.23704C10.6401 4.3669 9.84006 4.47679 8.99006 4.52674V6.77439H10.3101C10.4001 6.59458 10.5101 6.39478 10.6501 6.23494C11.2501 6.47469 12.1001 6.97419 12.1001 7.28386C12.1001 7.52361 11.8801 7.61352 11.5701 7.66347V8.80226C11.5701 9.45158 11.5901 10.051 11.6101 10.6903C11.6101 10.96 11.2701 11.3296 10.7901 11.3296C10.4601 11.3296 10.3901 11.1798 10.3901 10.99V10.5704H8.97006V13.837C9.88006 13.7671 10.5801 13.6372 11.1801 13.5073C10.9601 13.0578 10.6201 12.5783 10.0701 12.0589C9.94006 11.949 9.82006 11.8191 9.96006 11.6593C10.1001 11.5094 10.2501 11.5893 10.4101 11.6992C11.8601 12.6782 13.0601 13.7671 13.0601 14.6761L13.0701 14.6461ZM6.38006 10.021H7.78006V7.28386H6.38006V10.021ZM10.3901 7.28386H8.97006V10.021H10.3901V7.28386Z" fill="white"/>
<path d="M4.77994 27.0432C4.77994 29.4008 4.81994 31.8282 4.82994 33.926C4.82994 34.1957 4.48994 34.6353 3.91994 34.6353C3.64994 34.6353 3.53994 34.5454 3.53994 34.2757C3.57994 31.9181 3.58994 29.5106 3.58994 27.0832V25.9644C2.75994 28.232 1.57994 29.9502 0.68994 30.9891C0.48994 31.2089 0.30994 31.2588 0.15994 31.1489C0.0199404 31.039 0.0699404 30.9092 0.20994 30.6994C0.93994 29.6505 2.63994 26.7136 3.27994 23.2472H1.89994C1.35994 23.2472 0.57994 23.1973 0.40994 22.4281C1.45994 22.6079 2.54994 22.7178 3.58994 22.7178V18.1326C4.63994 18.2424 5.41994 18.4722 5.41994 18.8019C5.41994 19.0216 5.19994 19.1615 4.76994 19.2015V22.7178H5.54994C5.70994 22.4081 5.90994 22.0784 6.17994 21.7588C6.77994 22.0485 7.60994 22.5879 7.60994 22.9176C7.60994 23.1174 7.42994 23.2472 7.07994 23.2472H4.75994V24.386C6.15994 25.0553 6.93994 25.8045 6.93994 26.4738C6.93994 26.8734 6.59994 27.3629 6.15994 27.3629C5.88994 27.3629 5.79994 27.2031 5.77994 27.0033C5.72994 26.5138 5.55994 25.7146 4.75994 24.9354V27.0532L4.77994 27.0432ZM17.5899 26.8834C17.5899 27.0632 17.4999 27.1032 17.2999 27.1331C16.0999 27.3529 15.4699 27.4228 15.2699 27.7625C14.3999 27.6127 12.7699 26.8934 11.5499 25.6447C9.87994 27.0233 7.87994 27.8424 5.99994 28.3119C5.70994 28.3818 5.50994 28.3519 5.46994 28.182C5.42994 28.0022 5.55994 27.9323 5.84994 27.8524C7.15994 27.5227 9.27994 26.6237 10.9499 25.0054C10.4199 24.2661 9.89994 23.3371 9.47994 22.1983C8.73994 23.3371 7.91994 24.2661 7.15994 24.9354C6.97994 25.0953 6.81994 25.2251 6.66994 25.0953C6.52994 24.9654 6.57994 24.8455 6.77994 24.6258C8.09994 23.1973 9.44994 20.7498 9.76994 18.0127C10.6399 18.1925 11.7099 18.7219 11.7099 19.1016C11.7099 19.3413 11.3699 19.4312 10.9499 19.3713C10.7099 19.9307 10.4799 20.4601 10.2099 20.9496H13.0899C13.2199 20.7099 13.3799 20.4601 13.5799 20.2204C14.4299 20.56 15.2099 21.1494 15.2099 21.4891C15.2099 21.7388 14.9399 21.8487 14.4499 21.8886C13.8899 23.1773 13.0899 24.1862 12.1999 25.0453C14.0499 26.4239 16.5899 26.6037 17.3199 26.6736C17.4799 26.6936 17.5899 26.7435 17.5899 26.8734V26.8834ZM15.0999 28.7814C15.0999 29.0212 14.8599 29.161 14.4499 29.231V31.6384C14.4499 32.3077 14.4499 33.1069 14.4699 33.9061C14.4699 34.1258 14.1099 34.5254 13.5399 34.5254C13.2499 34.5254 13.1999 34.3756 13.1999 34.1858V32.8771H9.65994V33.966C9.65994 34.1858 9.27994 34.5853 8.74994 34.5853C8.43994 34.5853 8.36994 34.4355 8.36994 34.2457C8.38994 33.2667 8.40994 32.3477 8.40994 31.3487V27.5827C8.85994 27.7625 9.36994 28.0322 9.74994 28.3119H13.1099C13.2199 28.1121 13.3799 27.8624 13.5399 27.6626C14.0799 27.8824 15.0999 28.4617 15.0999 28.8014V28.7814ZM9.65994 32.3477H13.1999V28.8114H9.65994V32.3477ZM9.92994 21.4391C9.87994 21.529 9.83994 21.6189 9.78994 21.6888C10.2099 22.7977 10.8599 23.7167 11.5099 24.406C12.1999 23.5869 12.7999 22.538 13.1599 21.4291H9.92994V21.4391Z" fill="white"/>
<path d="M17.1599 51.2478C15.8899 51.7573 15.1799 52.0071 15.0699 52.3167C14.3099 52.4266 13.0599 52.4965 12.1699 52.4965C8.97992 52.4965 5.83992 52.1869 3.67992 49.8093C2.71992 51.3178 1.49992 52.3067 0.809922 52.7463C0.589922 52.8961 0.449922 52.8961 0.319922 52.7463C0.229922 52.6364 0.279922 52.5065 0.479922 52.3467C1.12992 51.8073 3.41992 49.4697 3.74992 45.8535H2.34992C2.27992 46.0033 2.19992 46.1632 2.10992 46.303C1.96992 46.5728 1.61992 46.7725 1.16992 46.7725C0.899922 46.7725 0.789922 46.6427 0.949922 46.323C1.74992 44.8046 2.48992 43.2063 3.10992 41.598H1.74992C1.25992 41.598 0.629922 41.4881 0.499922 40.8587C1.23992 40.9686 2.05992 41.0585 2.99992 41.0785C3.12992 40.8587 3.26992 40.639 3.42992 40.4492C4.18992 40.7389 4.85992 41.2283 4.85992 41.518C4.85992 41.7678 4.61992 41.8977 4.20992 41.9376C3.69992 43.1364 3.17992 44.2752 2.62992 45.3441H3.65992C3.76992 45.1443 3.90992 44.9045 4.09992 44.6947C4.74992 44.9444 5.61992 45.4939 5.61992 45.8535C5.61992 46.0733 5.37992 46.2131 4.96992 46.2731C4.94992 46.4229 4.92992 46.5628 4.89992 46.7126C5.96992 46.8924 7.18992 46.9823 8.23992 47.0223V45.2242H7.05992C6.43992 45.2242 5.73992 45.0943 5.54992 44.395C6.34992 44.5549 7.30992 44.6448 8.23992 44.7047V42.7068C9.46992 42.7967 10.1599 43.1064 10.1599 43.3961C10.1599 43.6358 9.93992 43.7957 9.41992 43.8456V44.7147H11.5399V42.7068C12.7199 42.7767 13.4599 43.0664 13.4599 43.3761C13.4599 43.6159 13.2399 43.7557 12.7199 43.7957V44.7247H13.3699C13.5699 44.3251 13.7499 44.0953 14.0199 43.7257C14.6699 44.0154 15.5999 44.5249 15.5999 44.8845C15.5999 45.1043 15.3999 45.2242 15.0599 45.2242H12.7199V47.0223H14.0499C14.2699 46.5827 14.5399 46.1732 14.8699 45.7336C15.5599 46.0633 16.6099 46.7526 16.6099 47.1621C16.6099 47.3819 16.4299 47.5218 16.0699 47.5218H6.43992C5.83992 47.5218 5.18992 47.4119 4.83992 47.0323C4.63992 47.8814 4.32992 48.6406 3.96992 49.3199C4.30992 49.6495 4.70992 49.9193 5.12992 50.149C6.32992 49.8393 7.95992 49.19 8.91992 47.6816C9.54992 47.9913 10.4099 48.6206 10.4099 48.9103C10.4099 49.1101 9.98992 49.2 9.53992 49.0402C8.44992 49.8393 7.03992 50.2689 5.85992 50.4887C7.94992 51.3178 10.4699 51.2878 12.3699 51.2878C13.9799 51.2878 15.8299 51.0181 16.9799 50.7783C17.1599 50.7384 17.3199 50.7284 17.3999 50.9282C17.4799 51.128 17.3499 51.1779 17.1599 51.2578V51.2478ZM1.04992 36.5632C1.17992 36.4134 1.31992 36.4534 1.53992 36.5632C3.05992 37.3824 4.16992 38.2515 4.16992 39.0307C4.16992 39.5601 3.71992 40.0795 3.14992 40.0795C2.81992 40.0795 2.76992 39.8997 2.72992 39.68C2.65992 39.1905 2.39992 38.1216 1.14992 36.9628C0.989922 36.813 0.909922 36.7131 1.03992 36.5632H1.04992ZM5.88992 41.0186V36.5033C6.30992 36.6831 6.77992 36.9528 7.11992 37.2325H8.54992C8.61992 37.0527 8.78992 36.813 8.94992 36.6332C9.56992 36.9229 10.3099 37.4823 10.3099 37.8119C10.3099 38.0617 10.0399 38.2115 9.72992 38.2814C9.72992 38.661 9.74992 39.3903 9.76992 39.7699C9.76992 40.0096 9.40992 40.4392 8.93992 40.4392C8.68992 40.4392 8.60992 40.3093 8.60992 40.0995V39.8498H7.02992V40.8687C7.02992 41.3382 7.26992 41.508 7.91992 41.508C9.22992 41.508 9.83992 41.3083 10.3899 39.5101C10.4399 39.3103 10.5499 39.2604 10.6399 39.2704C10.7499 39.2904 10.8399 39.3803 10.7899 39.63C10.6799 40.1395 10.5499 40.8088 10.5499 41.0086C10.5499 41.2783 10.6199 41.4581 10.8599 41.6079C10.3299 42.2273 9.20992 42.4371 7.97992 42.4371C6.14992 42.4371 5.88992 41.9076 5.88992 41.0186ZM8.60992 37.742H7.02992V39.3403H8.60992V37.742ZM11.5499 45.2142H9.42992V47.0123H11.5499V45.2142ZM11.1499 41.0286V36.5133C11.5699 36.6931 12.0799 36.9828 12.3799 37.2425H13.8699C13.9599 37.0427 14.1199 36.803 14.2499 36.6431C14.8799 36.9328 15.6499 37.4922 15.6499 37.8219C15.6499 38.0716 15.3599 38.2215 15.0699 38.2914C15.0699 38.671 15.0899 39.4003 15.1099 39.7799C15.1099 40.0196 14.7299 40.4492 14.2599 40.4492C14.0099 40.4492 13.9499 40.3193 13.9499 40.1095V39.8598H12.2999V40.8787C12.2999 41.3482 12.5499 41.518 13.3299 41.518C14.6699 41.518 15.3399 41.1584 15.9099 39.3403C15.9799 39.1206 16.0899 39.0906 16.1799 39.1006C16.2899 39.1206 16.3599 39.1905 16.3299 39.4302C16.2599 39.8098 16.0799 40.7688 16.0799 41.0286C16.0799 41.2983 16.1499 41.5181 16.4099 41.6279C15.8099 42.2972 14.5399 42.4571 13.3999 42.4571C11.4399 42.4571 11.1699 41.9276 11.1699 41.0385L11.1499 41.0286ZM16.0799 50.0491C16.0799 50.4887 15.7699 50.7783 15.4999 50.7783C15.2799 50.7783 15.1399 50.6685 14.9899 50.5086C14.2999 49.7095 13.0099 49.0801 11.4199 48.4608C11.2199 48.3909 11.1799 48.281 11.2199 48.1711C11.2599 48.0612 11.4199 48.0112 11.5999 48.0412C12.9799 48.3109 14.2299 48.6006 15.0499 48.9702C15.7399 49.2799 16.0799 49.6195 16.0799 50.0591V50.0491ZM13.9399 37.742H12.2899V39.3403H13.9399V37.742Z" fill="white"/>
<path d="M13.09 58.4503V58.4903C13.09 58.9997 13.11 59.6091 13.13 60.1386C13.13 60.3783 12.75 60.7579 12.21 60.7579C11.9 60.7579 11.85 60.628 11.85 60.4183V60.3284H8.89005V61.7069H11.76C11.96 61.3773 12.18 61.0776 12.45 60.7779C12.96 60.9577 14.05 61.597 14.05 61.9167C14.05 62.1364 13.87 62.2263 13.58 62.2263H8.90005V63.585H14.11C14.36 63.1454 14.62 62.7658 14.93 62.4061C15.58 62.6759 16.82 63.4051 16.82 63.7847C16.82 64.0045 16.64 64.1144 16.28 64.1144H2.37005C1.72005 64.1144 0.880049 63.9146 0.660049 63.2253C3.04005 63.535 5.32005 63.585 7.59005 63.585H7.63005V62.2263H3.96005C3.33005 62.2263 2.58005 62.0666 2.40005 61.3973C4.23005 61.647 5.96005 61.7069 7.63005 61.7069V60.3284H4.46005C3.79005 60.3284 3.17005 60.0786 2.99005 59.4992C4.46005 59.719 6.15005 59.8089 7.62005 59.8089H7.64005V58.4703H2.08005C1.37005 58.4703 0.520049 58.3205 0.300049 57.6012C2.57005 57.9109 5.25005 57.9409 7.56005 57.9409H7.63005V56.6222H4.47005C3.82005 56.6222 3.11005 56.4924 2.93005 55.8031C4.51005 56.0029 6.10005 56.0928 7.59005 56.0928H7.63005V54.2647C8.77005 54.3346 9.63005 54.6243 9.63005 54.974C9.63005 55.1937 9.41005 55.3536 8.89005 55.4135V56.1028H11.76C11.89 55.863 12.01 55.6632 12.2 55.4535C12.85 55.7232 13.78 56.2726 13.78 56.5923C13.78 56.842 13.51 56.9719 13.11 57.0418V57.9509H14.53C14.77 57.5513 15 57.1917 15.29 56.862C15.83 57.1017 17 57.771 17 58.1506C17 58.3904 16.8 58.4803 16.47 58.4803H13.11L13.09 58.4503ZM13.96 65.9924C13.96 66.2621 13.67 66.372 13.31 66.442V67.6907C13.31 68.3999 13.35 69.5387 13.36 70.3778C13.36 70.5776 13.03 70.9772 12.42 70.9772C12.09 70.9772 12.06 70.8473 12.06 70.6475V69.8284H5.00005V70.4078C5.00005 70.6076 4.64005 70.9672 4.06005 70.9672C3.75005 70.9672 3.70005 70.8374 3.70005 70.6276C3.72005 69.6686 3.75005 68.3999 3.75005 67.361V64.6239C4.20005 64.8037 4.71005 65.0934 5.09005 65.3831H11.97C12.1 65.1633 12.21 65.0035 12.37 64.8037C13.04 65.0934 13.97 65.6528 13.97 65.9824L13.96 65.9924ZM12.05 65.9225H4.99005V67.321H12.05V65.9225ZM4.99005 69.309L12.05 69.289V67.8605L4.99005 67.8405V69.309ZM8.87005 56.6023V57.9209H11.83V56.6023H8.87005ZM11.83 59.7889V58.4503H8.87005V59.7889H11.83Z" fill="white"/>
</svg>
