<svg xmlns="http://www.w3.org/2000/svg" width="782.112" height="64.191" viewBox="0 0 782.112 64.191">
  <g id="Group_3055" data-name="Group 3055" transform="translate(-3302.711 -5732.962)">
    <path id="Path_5776" data-name="Path 5776" d="M3302.711,5796.51v-60.329h4.323v56.282h35.774v4.047Z" fill="#fff"/>
    <path id="Path_5777" data-name="Path 5777" d="M3357.795,5796.51v-60.329h4.414v60.329Z" fill="#fff"/>
    <path id="Path_5778" data-name="Path 5778" d="M3405.89,5796.51h-5.7l-23.542-60.329h4.6l21.8,55.731,21.7-55.731h4.69Z" fill="#fff"/>
    <path id="Path_5779" data-name="Path 5779" d="M3436.327,5796.51v-60.329h37.889v4.047h-33.567v23.543h29.8v3.954h-29.8v24.738h33.567v4.047Z" fill="#fff"/>
    <path id="Path_5780" data-name="Path 5780" d="M3592.2,5793.291l-7.449-17.933h-32.1l-7.449,17.933h-4.69l25.2-60.329h5.886l25.2,60.329Zm-23.543-56.1-14.346,34.211H3583Z" fill="#fff"/>
    <path id="Path_5781" data-name="Path 5781" d="M3707.241,5796.51l-15.266-28.05h-22.808v28.05h-4.23v-60.329h26.21c6.345,0,11.311,1.471,14.99,4.23q5.517,4.277,5.518,11.864c0,8-5.058,13.243-14.99,15.725l15.542,28.51Zm-3.955-52.788c-2.759-2.3-6.8-3.494-12.139-3.494h-21.98v24.186h21.98q7.725,0,12.139-3.586a11.4,11.4,0,0,0,0-17.106Z" fill="#fff"/>
    <path id="Path_5782" data-name="Path 5782" d="M3727.194,5796.51v-60.329h4.414v60.329Z" fill="#fff"/>
    <path id="Path_5783" data-name="Path 5783" d="M3791.015,5750.16c-3.219-6.99-8.828-10.577-16.737-10.577-5.7,0-10.668,2.483-14.807,7.45q-6.621,8-6.621,20.416c0,8.093,2.023,14.438,6.254,19.22a17.588,17.588,0,0,0,13.794,6.438c7.909,0,13.611-4.046,17.289-12.232l4.231,1.748c-4.322,9.748-11.5,14.53-21.52,14.53a21.708,21.708,0,0,1-17.289-7.908c-4.874-5.518-7.265-12.784-7.265-21.8,0-9.2,2.483-16.83,7.541-22.9,4.966-5.978,11.128-9.013,18.393-9.013,10.116,0,17.1,4.414,20.968,13.059Z" fill="#fff"/>
    <path id="Path_5784" data-name="Path 5784" d="M3845.73,5796.51v-28.234h-37.889v28.234h-4.322v-60.329h4.322v28.049h37.889v-28.049h4.323v60.329Z" fill="#fff"/>
    <path id="Path_5785" data-name="Path 5785" d="M3922.33,5796.51v-60.329h4.322v56.282h35.774v4.047Z" fill="#fff"/>
    <path id="Path_5786" data-name="Path 5786" d="M3977.413,5796.51v-60.329h4.415v60.329Z" fill="#fff"/>
    <path id="Path_5787" data-name="Path 5787" d="M4004.632,5740.228v23.543h29.061v3.954h-29.061V5796.6h-4.23v-60.421h37.338v4.047Z" fill="#fff"/>
    <path id="Path_5788" data-name="Path 5788" d="M4046.934,5796.51v-60.329h37.889v4.047h-33.567v23.543h29.8v3.954h-29.8v24.738h33.567v4.047Z" fill="#fff"/>
  </g>
</svg>
