<svg xmlns="http://www.w3.org/2000/svg" viewBox="0 0 309.48 137.69"><defs><style>.cls-1{fill:#534741;}.cls-2{font-size:20px;fill:#333;font-family:NotoSansCJKtc-Bold-B5pc-H, Noto Sans CJK TC;letter-spacing:0.02em;}</style></defs><g id="圖層_2" data-name="圖層 2"><g id="圖層_3" data-name="圖層 3"><path class="cls-1" d="M2.48,45.67H7.31V47H3.87v8.35H2.48Z"/><path class="cls-1" d="M15.57,58.45c-.09-.32-.24-.66-.4-1.07-3.35,1.46-3.89,1.74-4.23,2a4.35,4.35,0,0,0-.74-1A1.77,1.77,0,0,0,10.83,57v-9.5h2.48a10.58,10.58,0,0,0-.62-1.32l1.37-.28a9.46,9.46,0,0,1,.79,1.6h2v6.29H12.23v3.39l2.38-1c-.3-.57-.6-1.13-.9-1.61l1.2-.51a21.77,21.77,0,0,1,1.94,3.75Zm-3.34-9.72V50h3.22V48.73Zm3.22,3.78V51.19H12.23v1.32Zm7.79,5.28c0,.75-.15,1.17-.6,1.39a5.42,5.42,0,0,1-2.27.27,6,6,0,0,0-.43-1.38c.72,0,1.44,0,1.63,0s.32-.08.32-.3v-3H19.07a10.29,10.29,0,0,1-1.55,4.78,4.86,4.86,0,0,0-1.15-.75c1.39-2,1.51-4.83,1.51-7V46.51h5.36Zm-1.35-4.26V51.19H19.22v.64c0,.53,0,1.1,0,1.7Zm-2.67-5.76v2.17h2.67V47.77Z"/><path class="cls-1" d="M32.57,58.45a10.25,10.25,0,0,0-.41-1.07c-3.34,1.46-3.88,1.74-4.23,2a4.32,4.32,0,0,0-.73-1A1.77,1.77,0,0,0,27.83,57v-9.5H30.3a10.52,10.52,0,0,0-.61-1.32l1.36-.28a10.38,10.38,0,0,1,.8,1.6h2v6.29H29.22v3.39l2.39-1c-.3-.57-.6-1.13-.9-1.61l1.2-.51a21,21,0,0,1,1.93,3.75Zm-3.35-9.72V50h3.23V48.73Zm3.23,3.78V51.19H29.22v1.32Zm7.78,5.28c0,.75-.15,1.17-.6,1.39a5.37,5.37,0,0,1-2.26.27,6,6,0,0,0-.44-1.38c.72,0,1.44,0,1.64,0s.31-.08.31-.3v-3H36.06a10.39,10.39,0,0,1-1.54,4.78,4.72,4.72,0,0,0-1.16-.75c1.4-2,1.52-4.83,1.52-7V46.51h5.35Zm-1.35-4.26V51.19H36.21v.64c0,.53,0,1.1,0,1.7Zm-2.67-5.76v2.17h2.67V47.77Z"/><path class="cls-1" d="M57.58,51.07a17.21,17.21,0,0,1-2.06,5.07c.32,1.24.68,2,1.08,2,.24,0,.39-.72.44-2.36a3.16,3.16,0,0,0,1,.72c-.18,2.27-.55,2.93-1.62,2.93-.79,0-1.38-.74-1.84-2a11.44,11.44,0,0,1-2.33,2.12,6.7,6.7,0,0,0-1-1,9.79,9.79,0,0,0,2.88-2.67,40.93,40.93,0,0,1-.7-6.66H50.21V51.1H53s0,.34,0,.49c0,3.39-.1,4.67-.37,5.06a1.07,1.07,0,0,1-.8.43,6.57,6.57,0,0,1-1.3,0A3.16,3.16,0,0,0,50.14,56a7.8,7.8,0,0,0,1,.06.37.37,0,0,0,.36-.18c.15-.21.21-1.11.24-3.6H50.21v.51c0,2.14-.27,5-1.87,6.87a4.54,4.54,0,0,0-1-.87A6.12,6.12,0,0,0,48.62,56c-1.41.59-2.88,1.17-4.06,1.65l-.45-1.38c.48-.15,1-.34,1.66-.57v-5H44.32V49.4h1.45V46h1.29V49.4h1.32v1.29H47.06v4.55l1.32-.48L48.64,56a15.33,15.33,0,0,0,.28-3.24V48h4.5c0-.74,0-1.49,0-2.22H54.7c0,.75,0,1.48,0,2.22h1.64a12.62,12.62,0,0,0-1.47-1.61l1-.58a8.31,8.31,0,0,1,1.63,1.71l-.73.48h1v1.26h-3c.08,1.84.23,3.52.42,4.92a15.34,15.34,0,0,0,1.16-3.35Z"/><path class="cls-1" d="M63.8,51.26a32.75,32.75,0,0,1-1.23,6l-1.39-.59A25.69,25.69,0,0,0,62.44,51ZM66.38,50v7.16c0,.7.17.82,1,.82h2.54c.85,0,1-.49,1.09-3a4.17,4.17,0,0,0,1.31.6c-.17,2.82-.57,3.68-2.31,3.68H67.19c-1.75,0-2.25-.48-2.25-2.13V50Zm.12-3.79a27.09,27.09,0,0,1,4.1,3.21l-1,1.06a26.39,26.39,0,0,0-4-3.34ZM73,50.57a27.09,27.09,0,0,1,2,5.58l-1.4.59a27.09,27.09,0,0,0-1.87-5.66Z"/><path class="cls-1" d="M82.51,59.71H77.68V58.42h3.43V50.06h1.4Z"/><path class="cls-1" d="M91,52.84a18.82,18.82,0,0,1-1,3.91c.31.17.66.44,1.24.78a8.26,8.26,0,0,0,4.22.72,56.16,56.16,0,0,0,6.12-.34,6,6,0,0,0-.39,1.38c-1.17.07-4,.18-5.78.18a8.52,8.52,0,0,1-4.41-.81c-.61-.35-1.17-.84-1.5-.84s-.75,1-1.08,1.86l-.91-1.25A7.58,7.58,0,0,1,88.74,57a16.51,16.51,0,0,0,.87-3.06H88c.33-.9.72-2.15,1-3.33H87.7v-1.2h2.9c-.29,1.06-.66,2.28-1,3.33h.59l.19,0Zm-1.82-4.11c-.16-.66-.49-1.73-.7-2.51l1.12-.33c.26.78.57,1.79.75,2.43Zm4.44,6A3.91,3.91,0,0,1,92,57.14a3.18,3.18,0,0,0-.72-.84c1-.7,1.32-1.87,1.42-3.28H91.21V52h2.16a5,5,0,0,0-.37-.63l.63-.24h-2V47h1.58c.1-.4.19-.85.25-1.18l1.41.12c-.13.37-.3.72-.45,1.06h1.71v3.78a15.07,15.07,0,0,0,1.44-4.92l1.19.18c-.12.69-.26,1.37-.41,2h2.82v1.18h-.55a18.14,18.14,0,0,1-1,4.26,33.24,33.24,0,0,1,1.61,2.93l-1,.51c-.27-.63-.68-1.41-1.14-2.24a8.07,8.07,0,0,1-2.63,2.85,10.06,10.06,0,0,0-.75-.82,1,1,0,0,1-.66.25A6.09,6.09,0,0,1,94,57a3.09,3.09,0,0,0-.24-.95,5.57,5.57,0,0,0,.81,0,.32.32,0,0,0,.3-.11A3.86,3.86,0,0,0,95,54.68Zm-.81-6H95V47.9H92.77Zm0,1.62H95v-.76H92.77Zm1.41.9a7.52,7.52,0,0,1,.53.87h2v1H93.84c0,.22,0,.46-.08.67h2.45l0,.44a8.41,8.41,0,0,1-.29,2.35,6.63,6.63,0,0,0,2.49-2.95c-.4-.71-.85-1.4-1.26-2-.09.17-.19.33-.3.5a6.75,6.75,0,0,0-1-.74l.06-.12ZM98,49.25a11.58,11.58,0,0,1-.87,2.16l.85-.36c.27.38.56.8.83,1.23a16.25,16.25,0,0,0,.6-3Z"/><path class="cls-1" d="M109.86,49.39h-5.18V48.28h5.18Zm-.42,1.92H105V50.23h4.4Zm-4.38.94h4.39v1.08h-4.39Zm4.36,6.48h-3.15v.63h-1.18v-5h4.33Zm-3.15-3.3v2.18h2V55.43Zm.81-7.2a14.86,14.86,0,0,0-.72-2l1.17-.34a14.23,14.23,0,0,1,.8,2Zm10.49,10c0,.62-.14,1-.57,1.13a5.28,5.28,0,0,1-2,.19,4.26,4.26,0,0,0-.39-1.12,13.75,13.75,0,0,0,1.43,0c.19,0,.25-.06.25-.22v-1h-4.39a5,5,0,0,1-1.08,2.5,4.9,4.9,0,0,0-1-.9,5.74,5.74,0,0,0,1-3.72V52.4h6.78Zm.79-7.63v1H110v-1h3.42v-.84h-2.86v-1h2.86V48h-3.22V47h3.22V45.82h1.35V47h3.44v1h-3.44v.77h3.15v1h-3.15v.84Zm-2.1,5.68v-.93h-4.21c0,.29,0,.62,0,.93Zm-4.21-2.8v.91h4.21v-.91Z"/><path class="cls-1" d="M129,53.51a9.37,9.37,0,0,1-.15,1h6v1.19h-6.33c-.7,2-2.29,3.21-6.25,3.85a4.28,4.28,0,0,0-.71-1.26c3.29-.45,4.71-1.29,5.39-2.59h-4.79V54.5h5.21c.06-.31.12-.63.16-1h-5.7V52.28h5.87V51.22H123.2V50h4.53V49h-5.37V47.78h3a9.36,9.36,0,0,0-1-1.56l1.21-.48a6.64,6.64,0,0,1,1.23,1.82l-.49.22H130a15.2,15.2,0,0,0,1.17-2l1.48.41c-.34.55-.75,1.15-1.11,1.63h3.06V49h-5.41v1h4.69v1.19h-4.69v1.06h6v1.23Zm5.54,6.12a39.5,39.5,0,0,0-6-2.89l.61-1.05a40.9,40.9,0,0,1,6.06,2.71Z"/><path class="cls-1" d="M151.73,46.46V59.62h-1.38V59h-9.81v.66h-1.32V46.46ZM150.35,57.7v-10h-9.81v10Zm-1.11-6.41a11.4,11.4,0,0,1-1.61,3.56c.26.64.59,1,1,1.12.18.06.31-.55.4-1.48a5.84,5.84,0,0,0,.89.66c-.21,1.71-.84,2.29-1.71,2a2.32,2.32,0,0,1-1.37-1.25,8.85,8.85,0,0,1-1.78,1.5,6.82,6.82,0,0,0-.78-.85,9.16,9.16,0,0,0,1.15-.81c-1.47.24-3,.52-4.18.73l-.15-1.05c1.09-.15,2.73-.4,4.35-.66l0,.93a6.67,6.67,0,0,0,.9-.94,21.11,21.11,0,0,1-.74-4.19h-4.39v-1h4.3L145.44,48h1.16c0,.48,0,1,.07,1.44h2.12a5.44,5.44,0,0,0-1.49-1l.65-.64a6.12,6.12,0,0,1,1.53,1l-.66.69h.91v1h-3a28,28,0,0,0,.44,2.94,10.26,10.26,0,0,0,.93-2.38Zm-4.23,0v2.88h-3.32V51.31Zm-1,.79h-1.41v1.29H144Z"/><path class="cls-1" d="M156.42,47.35h2l2,5.58c.26.73.48,1.48.74,2.23h.07c.26-.75.47-1.5.72-2.23l2-5.58h2v11h-1.62V52.93c0-1,.13-2.42.22-3.42h-.06l-.88,2.55-1.92,5.26h-1.08l-1.94-5.26-.87-2.55h-.06c.08,1,.21,2.43.21,3.42v5.46h-1.56Z"/><path class="cls-1" d="M170.62,55.33V50.14h1.72v5c0,1.42.41,2,1.38,2,.77,0,1.29-.36,2-1.23V50.14h1.73v8.25H176l-.14-1.25h0a3.46,3.46,0,0,1-2.7,1.44C171.38,58.58,170.62,57.43,170.62,55.33Z"/><path class="cls-1" d="M181.15,57.44l.81-1.11a3.62,3.62,0,0,0,2.34,1c1,0,1.45-.48,1.45-1.11s-.93-1.08-1.83-1.43c-1.09-.42-2.35-1-2.35-2.4s1.11-2.41,2.92-2.41a4.4,4.4,0,0,1,2.69,1L186.37,52a3.1,3.1,0,0,0-1.85-.72c-.9,0-1.32.45-1.32,1s.86,1,1.76,1.3c1.15.44,2.43,1,2.43,2.51,0,1.38-1.1,2.5-3.14,2.5A5,5,0,0,1,181.15,57.44Z"/><path class="cls-1" d="M190.63,54.28c0-2.69,1.83-4.35,3.76-4.35,2.19,0,3.36,1.57,3.36,3.91a4.91,4.91,0,0,1-.07.87h-5.36a2.49,2.49,0,0,0,2.55,2.52,3.5,3.5,0,0,0,2-.61l.6,1.09a5,5,0,0,1-2.79.87A4,4,0,0,1,190.63,54.28Zm5.64-.75c0-1.43-.65-2.25-1.85-2.25a2.23,2.23,0,0,0-2.11,2.25Z"/><path class="cls-1" d="M206.43,53.92,205.15,55a28,28,0,0,0-3.28-3.33l1.23-1.06A28.07,28.07,0,0,1,206.43,53.92Z"/><path class="cls-1" d="M223,55.81a8,8,0,0,1-1.91,1.74,2.23,2.23,0,0,0,1.59.73c.39,0,.5-.31.57-1.27a3.18,3.18,0,0,0,1,.54c-.21,1.62-.64,2-1.69,2a3.54,3.54,0,0,1-2.67-1.31,18.79,18.79,0,0,1-3.2,1.29,6,6,0,0,0-.72-1.11,14.69,14.69,0,0,0,3.23-1.12,9,9,0,0,1-.86-2h-3.22v.81l2.47-.18v1c-.82.08-1.66.15-2.47.21v1.13c0,.67-.15,1-.65,1.12a8.07,8.07,0,0,1-2.34.18,5.5,5.5,0,0,0-.4-1.09c.75,0,1.54,0,1.74,0s.3-.06.3-.27v-1l-3,.24-.12-1.08c.85,0,1.93-.1,3.12-.19v-.9h-3.06V54.26h3.06v-.84c-.87.09-1.74.15-2.55.18a3.75,3.75,0,0,0-.3-.87A34.71,34.71,0,0,0,216.6,52l.82.84a22.58,22.58,0,0,1-2.26.41v1h3a16.21,16.21,0,0,1-.27-2.07h1.35a11,11,0,0,0,.27,2.07h3a11.18,11.18,0,0,0-2.41-1.38l.78-.81a9.65,9.65,0,0,1,2.46,1.32l-.8.87h1.58v1.07h-4.29a6.25,6.25,0,0,0,.61,1.33,5.59,5.59,0,0,0,1.41-1.26ZM224,52H210.76V50.89h5.88v-.77h-4.42v-1h4.42v-.77h-5.22V47.3h2.88a6.22,6.22,0,0,0-.72-1.09l1.22-.41a5.28,5.28,0,0,1,1,1.47l-.08,0H219a13.23,13.23,0,0,0,.8-1.53l1.51.33c-.3.44-.58.86-.85,1.2h2.86v1.05h-5.29v.77h4.5v1h-4.5v.77H224Z"/><path class="cls-1" d="M235.48,51.4a10.59,10.59,0,0,0,5.75,6.84,5.51,5.51,0,0,0-1,1.3c-2.8-1.3-4.62-3.73-5.79-6.91a10.34,10.34,0,0,1-5.79,6.91,4.83,4.83,0,0,0-1.06-1.17,9.33,9.33,0,0,0,5.62-7h-5.32V50h5.58a38.89,38.89,0,0,0,.18-4.14h1.51a36.74,36.74,0,0,1-.21,4.14H241V51.4Z"/><path class="cls-1" d="M249.09,50.24H252v1.29h-2.91V52c.74.63,2.34,2.17,2.76,2.58l-.79,1.18c-.42-.52-1.25-1.45-2-2.2v6H247.7V53.62a15.36,15.36,0,0,1-2.58,4,8.67,8.67,0,0,0-.74-1.37,14.26,14.26,0,0,0,3.05-4.71H244.7V50.24h3V48c-.92.18-1.83.32-2.69.42a5.17,5.17,0,0,0-.43-1.08,27.81,27.81,0,0,0,6.1-1.48l1,1.06a16.42,16.42,0,0,1-2.6.78Zm5.33,5.6H253V47.59h1.38ZM257.58,46V57.74c0,.89-.21,1.29-.73,1.52a8.49,8.49,0,0,1-2.79.27,5.49,5.49,0,0,0-.5-1.44c1,0,1.95,0,2.25,0s.39-.1.39-.39V46Z"/><path class="cls-1" d="M267.42,55.24h-3.84l-.94,3.15h-1.77l3.66-11h2l3.66,11h-1.85ZM267,53.87l-.43-1.48c-.38-1.2-.71-2.43-1.05-3.68h-.06c-.32,1.26-.66,2.48-1,3.68L264,53.87Z"/><path class="cls-1" d="M272.71,49.43a2.37,2.37,0,0,0,1.35-1.8.78.78,0,0,1-.38.11,1,1,0,0,1-1-1,1,1,0,0,1,1.08-1,1.37,1.37,0,0,1,1.25,1.5,3.24,3.24,0,0,1-1.95,2.91Z"/><path class="cls-1" d="M283.15,47.35H286c3.39,0,5.33,1.87,5.33,5.47s-1.94,5.57-5.24,5.57h-3ZM285.89,57c2.37,0,3.65-1.39,3.65-4.14s-1.28-4.06-3.65-4.06h-1V57Z"/><path class="cls-1" d="M294.89,54.28c0-2.69,1.83-4.35,3.77-4.35,2.19,0,3.36,1.57,3.36,3.91a4,4,0,0,1-.08.87h-5.35a2.48,2.48,0,0,0,2.55,2.52,3.49,3.49,0,0,0,2-.61l.6,1.09a5,5,0,0,1-2.79.87A4,4,0,0,1,294.89,54.28Zm5.64-.75c0-1.43-.64-2.25-1.84-2.25a2.24,2.24,0,0,0-2.12,2.25Z"/><path class="cls-1" d="M305.35,53.51h4v1.28h-4Z"/><path class="cls-1" d="M.44,83.44l.81-1.11a3.62,3.62,0,0,0,2.34,1c1,0,1.45-.48,1.45-1.11s-.93-1.08-1.83-1.43c-1.09-.42-2.35-1-2.35-2.4S2,75.93,3.78,75.93a4.4,4.4,0,0,1,2.69,1L5.66,78a3.1,3.1,0,0,0-1.85-.72c-.9,0-1.32.45-1.32,1s.86,1,1.76,1.3c1.15.44,2.43,1,2.43,2.51,0,1.38-1.1,2.5-3.14,2.5A5,5,0,0,1,.44,83.44Z"/><path class="cls-1" d="M9.91,73.57a1,1,0,0,1,1.1-1,1,1,0,1,1,0,2A1,1,0,0,1,9.91,73.57Zm.24,2.57h1.71v8.25H10.15Z"/><path class="cls-1" d="M15.51,85.92a2.16,2.16,0,0,1,1.2-1.8V84A1.51,1.51,0,0,1,16,82.68a2,2,0,0,1,.91-1.53v-.06a2.86,2.86,0,0,1-1.08-2.19,3,3,0,0,1,3.2-3,3.48,3.48,0,0,1,1.2.21h2.92v1.29H21.54a2.24,2.24,0,0,1,.54,1.51A2.83,2.83,0,0,1,19,81.78a2.8,2.8,0,0,1-1.16-.26,1.09,1.09,0,0,0-.45.87c0,.5.33.81,1.38.81h1.52c1.95,0,3,.6,3,2,0,1.59-1.68,2.88-4.32,2.88C17,88.09,15.51,87.36,15.51,85.92Zm6.07-.44c0-.69-.54-.9-1.54-.9H18.79a5,5,0,0,1-1.11-.12,1.49,1.49,0,0,0-.7,1.2c0,.81.84,1.29,2.2,1.29S21.58,86.25,21.58,85.48Zm-1-6.58a1.57,1.57,0,1,0-3.12,0,1.57,1.57,0,1,0,3.12,0Z"/><path class="cls-1" d="M26.42,76.14h1.41L28,77.28h0a3.93,3.93,0,0,1,2.73-1.35c1.76,0,2.54,1.17,2.54,3.27v5.19H31.55v-5c0-1.43-.42-2-1.39-2a2.82,2.82,0,0,0-2,1.13v5.85H26.42Z"/><path class="cls-1" d="M42.58,75.42H36.85V74.31H39.5a12.63,12.63,0,0,0-1.08-2l1.1-.55a14,14,0,0,1,1.11,2l-1.1.62h3ZM42,77a3.13,3.13,0,0,0,1.8-3V72.33h4.74V75.7c0,.42,0,.57.22.57h.77a2.57,2.57,0,0,0,.67-.09c0,.36.06.86.11,1.17a2.26,2.26,0,0,1-.78.09h-.89c-1.15,0-1.39-.49-1.39-1.78v-2H45V74a4.35,4.35,0,0,1-2.22,4A5.89,5.89,0,0,0,42,77v.36H37.49V76.3H42Zm7.83,1.68A9.64,9.64,0,0,1,47.26,83a10.86,10.86,0,0,0,3.33,1.29,5.42,5.42,0,0,0-.87,1.26,10.64,10.64,0,0,1-3.59-1.64,12.26,12.26,0,0,1-3.6,1.68A5.66,5.66,0,0,0,42,84.49v.21H38.69v.68h-1.2V80.31H42v4A10.64,10.64,0,0,0,45.05,83a10.26,10.26,0,0,1-2.13-3.08l.81-.28H42.38V78.31h6.3l.24,0ZM37.49,78.3H42v1.08H37.49Zm3.26,3.13H38.69v2.15h2.06Zm3.42-1.81a7.61,7.61,0,0,0,2,2.53A7.81,7.81,0,0,0,48,79.62Z"/><path class="cls-1" d="M60,75.42H53.77V74.31h2.77a12.63,12.63,0,0,0-1.08-2l1.1-.55a13.15,13.15,0,0,1,1.12,2l-1.11.62H60Zm-5.55,2V76.3h4.92v1.1Zm4.88,2H54.41V78.28h4.88Zm.06,5.34H55.7v.68H54.5V80.31h4.85ZM55.7,81.43v2.15h2.43V81.43Zm11.39-3.19H64.15v7.33H62.71V78.24H59.93V76.87h2.78V72.09h1.44v4.78h2.94Z"/><path class="cls-1" d="M77.63,77.49V79.3h5v1.26h-5v3.35h5.74v1.27H70.5V83.91h5.64V80.56h-5V79.3h5V77.49H73v-.78a17.59,17.59,0,0,1-2.18,1,5,5,0,0,0-.93-1.29,12.8,12.8,0,0,0,6.93-4.71l1.31.58c-.14.2-.26.39-.39.57A16.12,16.12,0,0,0,84,76.39a5.68,5.68,0,0,0-1,1.22,15.44,15.44,0,0,1-2.24-1v.92Zm-4.16,3.22a11.8,11.8,0,0,1,1.41,2.6l-1.21.52a12.8,12.8,0,0,0-1.34-2.67Zm6.65-4.51a17,17,0,0,1-3.18-2.43,13.77,13.77,0,0,1-3,2.43Zm-1.35,7.2a13.68,13.68,0,0,0,1.45-2.69l1.35.5c-.57.94-1.23,2-1.74,2.64Z"/><path class="cls-1" d="M95.27,82.44c1.77.63,4,1.47,5.22,2l-.66,1.11c-1.31-.64-4-1.72-5.85-2.43l.46-.7h-.58c-.65,1.24-2.3,2.52-6.42,3.19a7,7,0,0,0-.8-1.14c3.14-.48,4.71-1.26,5.49-2H86.76V81.28h6a2.93,2.93,0,0,0,0-.49v-1H94.2v1a2.42,2.42,0,0,1,0,.46H97a10,10,0,0,0-1.1-.87l.48-.46h-.54a3.47,3.47,0,0,0-.37-1,12.25,12.25,0,0,0,1.35,0c.16,0,.22,0,.22-.21V77.5H94a5.66,5.66,0,0,1,1.32,1.13l-.9.73A6.91,6.91,0,0,0,92.9,78l.6-.47H91.86v-.94h.47a3,3,0,0,0-.51-.78,15.13,15.13,0,0,0,4-.93,11,11,0,0,0-1.34-1.28,18.82,18.82,0,0,1-1.84.63,3.37,3.37,0,0,0-.72-.79,10.14,10.14,0,0,0,4-1.67l1.17.27c-.22.18-.43.36-.69.54h2.45l.22,0,.74.39c-1.26,2.22-4,3.19-7,3.66h4.3v-1H98.4v1h1.8v.94H98.4v1.25c0,.6-.12.87-.54,1a2.93,2.93,0,0,1-1,.15,9.05,9.05,0,0,1,1.25,1l-.33.34h2.67v1.16Zm-6.23-5a4,4,0,0,1-1.23,3,7.47,7.47,0,0,0-1.08-.63,3,3,0,0,0,1.07-2.4v0h-1V76.3h3.26v-1h-2.6V72.18h1.17v2h1.43V71.85h1.26v8.44H90.08V77.4H89ZM94.73,75l-2.33.23-.12-.78c.69,0,1.49-.09,2.43-.15Zm.79-1.6a8.57,8.57,0,0,1,1.16,1.08,6.32,6.32,0,0,0,1.41-1.08Z"/><path class="cls-1" d="M109.17,75.42h-5.73V74.31h2.66a14.45,14.45,0,0,0-1.08-2l1.09-.55a13,13,0,0,1,1.11,2l-1.09.62h3ZM108.54,77a3.13,3.13,0,0,0,1.8-3V72.33h4.74V75.7c0,.42,0,.57.23.57h.76a2.65,2.65,0,0,0,.68-.09c0,.36.06.86.1,1.17a2.23,2.23,0,0,1-.78.09h-.88c-1.16,0-1.4-.49-1.4-1.78v-2h-2.17V74a4.37,4.37,0,0,1-2.22,4,7,7,0,0,0-.84-1v.36h-4.47V76.3h4.45Zm7.83,1.68A9.55,9.55,0,0,1,113.85,83a11,11,0,0,0,3.33,1.29,6.11,6.11,0,0,0-.87,1.26,10.59,10.59,0,0,1-3.58-1.64,12.5,12.5,0,0,1-3.6,1.68,6.29,6.29,0,0,0-.57-1.08v.21h-3.27v.68h-1.2V80.31h4.47v4A10.64,10.64,0,0,0,111.65,83a10.26,10.26,0,0,1-2.13-3.08l.81-.28H109V78.31h6.3l.24,0Zm-12.28-.34h4.48v1.08h-4.48Zm3.25,3.13h-2v2.15h2Zm3.42-1.81a7.78,7.78,0,0,0,2,2.53,8,8,0,0,0,1.89-2.53Z"/><path class="cls-1" d="M126.55,75.42h-6.19V74.31h2.77a12.63,12.63,0,0,0-1.08-2l1.1-.55a13.15,13.15,0,0,1,1.12,2l-1.11.62h3.39Zm-5.55,2V76.3h4.92v1.1Zm4.88,2H121V78.28h4.88Zm.06,5.34h-3.65v.68h-1.2V80.31h4.85Zm-3.65-3.27v2.15h2.43V81.43Zm11.39-3.19h-2.94v7.33H129.3V78.24h-2.78V76.87h2.78V72.09h1.44v4.78h2.94Z"/><path class="cls-1" d="M138.49,79.5H142v4.6h-3.47v1h-1.24V74h1.24a15,15,0,0,0,.54-2.23l1.53.18c-.25.69-.54,1.44-.82,2h2.08V78.3h-3.33Zm2.09-4.29h-2.09v1.9h2.09Zm-2.09,5.49v2.22h2.22V80.7ZM147,73.81v1.62h2.94V82c0,.58-.09,1-.46,1.17a4,4,0,0,1-1.68.21,4.73,4.73,0,0,0-.36-1.2c.46,0,.88,0,1,0s.19,0,.19-.2V76.68H147v8.86h-1.3V76.68h-1.52v6.63h-1.27V75.43h2.79V73.81h-3.32V72.54h8v1.27Z"/><path class="cls-1" d="M160.15,74.49s0,.49,0,.69c-.27,6.4-.5,8.65-1,9.36a1.47,1.47,0,0,1-1.06.66,9.77,9.77,0,0,1-1.67,0,3.67,3.67,0,0,0-.4-1.43c.58,0,1.11.06,1.38.06a.57.57,0,0,0,.52-.27c.38-.45.63-2.43.84-7.74h-1.83c-.18,3.75-.72,7.37-2.55,9.69a4.4,4.4,0,0,0-1.11-1c1.68-2,2.15-5.31,2.28-8.7h-1.92V74.49h2c0-.89,0-1.79,0-2.64H157c0,.85,0,1.75,0,2.64Zm6.26-.9V85.2H165v-1h-2.51v1.08h-1.38V73.59ZM165,82.9v-8h-2.51v8Z"/><path class="cls-1" d="M177.73,72.67c0,2.72.34,8.28,6.06,11.66a7,7,0,0,0-1.13,1.18,12.7,12.7,0,0,1-5.74-7.87,13.24,13.24,0,0,1-5.76,7.9,11,11,0,0,0-1.29-1.12c3.22-1.67,5-4.62,5.91-8.69l.76.14a18,18,0,0,1-.19-1.79h-3.57V72.67Z"/><path class="cls-1" d="M191.11,77a18.19,18.19,0,0,1-1.25,5.31c1.43,1.33,3.41,1.63,5.78,1.63h4.72a4.89,4.89,0,0,0-.51,1.27h-4.24c-2.66,0-4.76-.34-6.32-1.75a7,7,0,0,1-1.75,2,5.29,5.29,0,0,0-1-.93,5.9,5.9,0,0,0,1.86-2.13,10.3,10.3,0,0,1-1.32-2.86l1-.39a9,9,0,0,0,.85,2,15,15,0,0,0,.75-3.13h-2.4c.63-1.1,1.43-2.72,2.07-4.19h-2.44V72.69h4.38c-.6,1.32-1.35,2.89-2,4.18h.75l.26,0Zm3.48-2.91h-2.72V73h2.72V71.86h1.3V73h3.26v2h.93v1.09h-.93v2h-3.26v.93h3.48v1h-3.48v1h4v1.12h-4v1.28h-1.3V82.24h-3.51V81.12h3.51v-1h-2.91v-1h2.91v-.93h-2.81V77h2.81v-.92H191V75h3.62Zm1.3,0V75h2v-.9Zm2,2h-2V77h2Z"/><path class="cls-1" d="M205.7,73.72a9.86,9.86,0,0,1-1.51,1.62,9.14,9.14,0,0,0-.93-.94,7.9,7.9,0,0,0,2.23-2.73l1.23.39c-.09.19-.19.39-.3.58H210v1.08H207.4a11.38,11.38,0,0,1,1.11,1.2l-.95.75a11.2,11.2,0,0,0-1.26-1.48l.63-.47Zm2.84,9a9.15,9.15,0,0,1-4.19,2.6,5.6,5.6,0,0,0-.93-1.14,8.63,8.63,0,0,0,4-1.89ZM210.77,81h6v1.11h-6v3.45h-1.33V82.09h-6V81h6v-.79a7.6,7.6,0,0,0-.74-.62,4.1,4.1,0,0,0,1.79-1.08c-.48-.22-1-.45-1.37-.63l.51-.81c.39.15.84.35,1.29.54a2.72,2.72,0,0,0,.05-.49v-.47h-1.59v-1h5.41v3c0,.26,0,.41.06.47a.32.32,0,0,0,.2.06h.33a.57.57,0,0,0,.24,0,.56.56,0,0,0,.13-.31,10,10,0,0,0,.06-1.1,3.31,3.31,0,0,0,.95.5,6.57,6.57,0,0,1-.18,1.41.91.91,0,0,1-.45.51,1.65,1.65,0,0,1-.72.13h-.71a1.44,1.44,0,0,1-.9-.28c-.24-.21-.31-.5-.31-1.35v-2h-1.37v.5a3.56,3.56,0,0,1-.12,1c.53.24,1,.48,1.34.67l-.51.93c-.32-.19-.77-.42-1.26-.67a3.64,3.64,0,0,1-1.26,1h.46Zm-7.24-1.84,2.14-.27v-2.1h-2v-1h5.14v1H207V78.7l1.9-.27.05,1.07c-1.85.28-3.77.55-5.21.76Zm13.39-6.48v1.08H214a7.48,7.48,0,0,1,1,1.09l-1,.72a10.56,10.56,0,0,0-1.23-1.41l.61-.4h-1.51a8.32,8.32,0,0,1-1.37,1.59,7.23,7.23,0,0,0-1-.84,6.61,6.61,0,0,0,2-2.81l1.27.33c-.09.23-.18.42-.28.65Zm-4.29,9.55a26.92,26.92,0,0,1,4,2l-1,1a23.14,23.14,0,0,0-3.9-2.14Z"/><path class="cls-1" d="M232.89,72.4V85.53h-1.33v-.71h-9.63v.77h-1.28V72.4Zm-1.33,11.33V73.48h-9.63V83.73Zm-.42-2.31h-2v1.2c0,.49-.12.66-.48.76a6.87,6.87,0,0,1-1.8.12,3,3,0,0,0-.3-.75c.51,0,1,0,1.2,0s.21-.06.21-.2V81.42h-5.57v-.81h5.57v-.5h1.17v.5h2Zm-1.67-2.7A10.07,10.07,0,0,1,230.91,80l-.75.57a6.43,6.43,0,0,0-.58-.63c-2.55.07-5.12.15-7,.19l-.06-.81,3.55,0v-.61H223v-3h3.07v-.54h-3.58v-.82h3.58v-.62h1.16v.62h3.66v.82h-3.66v.54h3.19v3ZM225,83.26a6.93,6.93,0,0,0-1.18-1.39l.88-.45A7.1,7.1,0,0,1,226,82.75Zm-.9-6.37h2v-.56h-2Zm2,1.18V77.5h-2v.57Zm1.16-1.74v.56h2.07v-.56Zm2.07,1.74V77.5h-2.07v.57Zm-.5,1.23-.27-.22.56-.36h-1.86v.61Z"/><path class="cls-1" d="M241.56,72.93c-.42,1.24-.94,2.8-1.41,4A4.59,4.59,0,0,1,241.38,80a2.13,2.13,0,0,1-.61,1.8,2.23,2.23,0,0,1-.81.29,6.44,6.44,0,0,1-1,0,3,3,0,0,0-.32-1.2,5.22,5.22,0,0,0,.77,0,.77.77,0,0,0,.45-.14c.21-.15.28-.49.28-.94a4.17,4.17,0,0,0-1.23-2.81c.39-1,.78-2.34,1.05-3.34h-1.6V85.59h-1.23V72.45h3.31l.2,0ZM250,77c-.57.42-1.25.87-1.89,1.26a11.85,11.85,0,0,0,2.44,4.34,4.69,4.69,0,0,0-.9.93,14.82,14.82,0,0,1-2.52-4.68l-.18.09c.75,2.43.42,5-.45,5.79a2,2,0,0,1-1.59.66l-1.18,0a3.27,3.27,0,0,0-.35-1.25c.5.05,1,.06,1.28.06a.9.9,0,0,0,.84-.37,3.88,3.88,0,0,0,.55-2.57,16.33,16.33,0,0,1-4.05,2.4,3.75,3.75,0,0,0-.82-1,12.66,12.66,0,0,0,4.72-2.75,7.47,7.47,0,0,0-.28-1,20,20,0,0,1-3.14,2,5.73,5.73,0,0,0-.75-1,13.36,13.36,0,0,0,3.48-2,8.3,8.3,0,0,0-.64-1,15.48,15.48,0,0,1-2.63,1.59,5.77,5.77,0,0,0-.82-1,11.5,11.5,0,0,0,3.37-2h-3V74.23h2.69a9.59,9.59,0,0,0-1.59-1.69l1-.66a8.77,8.77,0,0,1,1.79,1.84l-.75.51,1.53,0a13.31,13.31,0,0,0,1.5-2.42l1.33.41a20.16,20.16,0,0,1-1.38,2h2.57v1.2h-4.07a6.05,6.05,0,0,1-.67.67,6.88,6.88,0,0,1,1.12,1.79,20,20,0,0,0,2.55-1.85Z"/><path class="cls-1" d="M254.67,80.77c1.16-.43,1.83-1.12,1.91-2h-.21a1.17,1.17,0,0,1-1.26-1.2,1.18,1.18,0,0,1,1.27-1.2c.95,0,1.44.74,1.44,1.88a3.66,3.66,0,0,1-2.76,3.51Z"/><path class="cls-1" d="M269.2,83.7c-2.37.42-4.89.82-6.69,1.12l-.22-1.41c.79-.1,1.77-.25,2.86-.42V80.86h-2.44V79.6h2.44V78h1.4V79.6h2.34v1.26h-2.34v1.92c.85-.12,1.74-.27,2.58-.4ZM268,78a5.21,5.21,0,0,0-.28-.61c-3.84.33-4.41.39-4.79.55-.07-.27-.3-.93-.43-1.26a1.6,1.6,0,0,0,.69-.64A16.71,16.71,0,0,0,264.28,74h-1.81V72.69h6.69V74h-3.35a17.58,17.58,0,0,1-1.47,2.46l2.73-.19c-.24-.44-.51-.86-.75-1.23l1.07-.5a27.37,27.37,0,0,1,1.71,2.9Zm7.76-3.21a17.06,17.06,0,0,1-2.52,7.28,8.82,8.82,0,0,0,2.88,2.44,4.5,4.5,0,0,0-1,1.11,9.69,9.69,0,0,1-2.73-2.46,10.94,10.94,0,0,1-3.15,2.51,5.77,5.77,0,0,0-.92-1.28,8.76,8.76,0,0,0,3.2-2.49,14.76,14.76,0,0,1-1.19-2.46,11.59,11.59,0,0,1-.61,1,7.59,7.59,0,0,0-.78-1.3,12.22,12.22,0,0,0,.78-1.49,29.88,29.88,0,0,1-.77-3l1.05-.21c.11.47.21,1,.33,1.41a30.08,30.08,0,0,0,.83-4l1.3.21c-.13.82-.3,1.63-.46,2.46h2.58l.24,0Zm-4.07,1.08a19,19,0,0,1-.67,2.09,16.06,16.06,0,0,0,1.33,2.83,14.35,14.35,0,0,0,1.88-4.92Z"/><path class="cls-1" d="M292,75s0,.5,0,.69c-.33,6.08-.62,8.3-1.28,9.06a1.81,1.81,0,0,1-1.38.69,17,17,0,0,1-2.38,0,3.55,3.55,0,0,0-.5-1.44c1,.09,1.91.09,2.28.09a.84.84,0,0,0,.69-.22c.51-.48.83-2.54,1.08-7.44h-4.69a10.87,10.87,0,0,1-5.51,9.24,5.77,5.77,0,0,0-1.08-1.13,9.6,9.6,0,0,0,5.1-8.11h-4.65V75h4.73V71.83h1.47V75Z"/><path class="cls-1" d="M300.72,83.47a27.59,27.59,0,0,0-1.79-2.5,8.18,8.18,0,0,1-2.37,4.38,4.58,4.58,0,0,0-1-1,7.85,7.85,0,0,0,2.4-5.48h-2.25V77.64H298c0-.33,0-.63,0-.93V75.43h-2V74.19h2V72h1.31v2.22h2v1.24h-2v1.28c0,.3,0,.6,0,.93h2.3v1.27h-2.37c0,.21,0,.41-.06.62.58.6,2.13,2.46,2.49,2.92Zm7.27.6c.24,0,.32-.13.34-1.12a3.27,3.27,0,0,0,1.15.51c-.14,1.47-.48,1.84-1.34,1.84H307c-1.12,0-1.39-.37-1.39-1.62V80.76h-.87c-.25,2.22-1,3.87-3.55,4.81a3.93,3.93,0,0,0-.78-1,3.91,3.91,0,0,0,3-3.76h-1.29V72.37h6.46v8.39h-1.69v2.92c0,.36,0,.39.31.39Zm-4.57-9.25h3.82v-1.2h-3.82Zm0,2.34h3.82V75.94h-3.82Zm0,2.35h3.82V78.28h-3.82Z"/><path class="cls-1" d="M8.33,100.13h.85v.9H8.33v1.51H5.48v.56h3v.82h-3v.59H9.1v.93H.74v-.93H4.2v-.59H1.43v-.82H4.2v-.56H1.5v-.82H4.2V101H.65v-.9H4.2v-.62H1.55V98.7H4.2v-.9H5.48v.9H8.33Zm-7.68,10c2.08-.06,5.38-.19,8.52-.34l-.05,1.06c-3,.15-6.25.32-8.38.41ZM8.34,106v3.34H1.55V106ZM2.67,107.3H4.34v-.6H2.67Zm0,1.32H4.34V108H2.67Zm2.81-8.49H7.12v-.62H5.48Zm1.64.9H5.48v.69H7.12Zm.07,5.67H5.54v.6H7.19Zm0,1.29H5.54v.63H7.19Zm3.76-.11H9.68V99.6H11Zm2.86-9.78v11.79c0,.78-.16,1.17-.64,1.41a6.56,6.56,0,0,1-2.4.26,5.74,5.74,0,0,0-.44-1.37c.83,0,1.59,0,1.84,0s.33-.08.33-.32V98.1Z"/><path class="cls-1" d="M22.36,105.92,21.09,107a28.81,28.81,0,0,0-3.29-3.33L19,102.62A27.34,27.34,0,0,1,22.36,105.92Z"/><path class="cls-1" d="M28.64,108.36a9.3,9.3,0,0,1-1.9,3.23,9,9,0,0,0-1.11-.8A6.6,6.6,0,0,0,27.34,108Zm2.79-.55h-5V98.37h5Zm-1.35-8.3H27.74v1.65h2.34Zm0,2.73H27.74v1.68h2.34Zm0,2.73H27.74v1.71h2.34Zm.36,3a12,12,0,0,1,1.49,2.39l-1.16.58a12.74,12.74,0,0,0-1.44-2.47Zm5.63-5.68v2.62h2.79v6.56H37.49v-.6H33.65v.66h-1.3v-6.62H34.7V97.82h1.37V101h3.46v1.28Zm1.42,3.88H33.65v3.44h3.84Z"/><path class="cls-1" d="M44.76,103.26a32.75,32.75,0,0,1-1.23,6l-1.39-.59A25.69,25.69,0,0,0,43.4,103ZM47.34,102v7.16c0,.7.17.82,1,.82h2.54c.85,0,1-.49,1.09-3a4.17,4.17,0,0,0,1.31.6c-.17,2.82-.57,3.68-2.31,3.68H48.15c-1.75,0-2.25-.48-2.25-2.13V102Zm.12-3.79a27.09,27.09,0,0,1,4.1,3.21l-1,1.06a26.39,26.39,0,0,0-4-3.34Zm6.5,4.36a27.09,27.09,0,0,1,2,5.58l-1.4.59a27.09,27.09,0,0,0-1.87-5.66Z"/><path class="cls-1" d="M64.21,101.42H58.48v-1.11h2.66a14.45,14.45,0,0,0-1.08-2l1.09-.55a13,13,0,0,1,1.11,2l-1.09.62h3ZM63.58,103a3.13,3.13,0,0,0,1.8-3V98.33h4.74v3.37c0,.42,0,.57.23.57h.76a2.65,2.65,0,0,0,.68-.09c0,.36.06.86.1,1.17a2.23,2.23,0,0,1-.78.09h-.88c-1.16,0-1.4-.49-1.4-1.78v-2H66.66V100a4.37,4.37,0,0,1-2.22,4,7,7,0,0,0-.84-1v.36H59.13v-1.1h4.45Zm7.83,1.68A9.55,9.55,0,0,1,68.89,109a11,11,0,0,0,3.33,1.29,6.11,6.11,0,0,0-.87,1.26,10.59,10.59,0,0,1-3.58-1.64,12.5,12.5,0,0,1-3.6,1.68,6.29,6.29,0,0,0-.57-1.08v.21H60.33v.68h-1.2v-5.07H63.6v4A10.64,10.64,0,0,0,66.69,109a10.26,10.26,0,0,1-2.13-3.08l.81-.28H64v-1.31h6.3l.24,0Zm-12.28-.34h4.48v1.08H59.13Zm3.25,3.13H60.33v2.15h2.05Zm3.42-1.81a7.78,7.78,0,0,0,2,2.53,8,8,0,0,0,1.89-2.53Z"/><path class="cls-1" d="M77.54,106.61V103.1a9.5,9.5,0,0,1-2,2.68,6.11,6.11,0,0,0-.91-1,9.36,9.36,0,0,0,2.73-3.61H75V100h2.59V97.85h1.32V100h2.25v1.19H78.86v.72c.57.34,2.06,1.42,2.45,1.71l-.75,1.14c-.36-.38-1.08-1-1.7-1.56v3.4Zm-2.79,3.54a10.26,10.26,0,0,0,1.37-3.08l1.23.5A12.94,12.94,0,0,1,76,110.78ZM83.3,110c.71,0,.81-.21.9-1.71a3.8,3.8,0,0,0,1.26.51c-.19,2-.58,2.45-2,2.45H80.48c-1.8,0-2.26-.38-2.26-1.7v-2.23H79.6v2.22c0,.4.15.46,1,.46Zm-2.08-3.82c.67.63,1.59,1.51,2,2l-1,.86a26.21,26.21,0,0,0-2-2.16Zm6.43.24H81.73V98.58h5.92Zm-1.33-6.72H83v1.14h3.32Zm0,2.2H83v1.17h3.32Zm0,2.22H83v1.19h3.32Zm.28,2.72c.62.93,1.44,2.2,1.83,3l-1.29.66a34.72,34.72,0,0,0-1.75-3.06Z"/><path class="cls-1" d="M102.89,99.87a11.91,11.91,0,0,1-3.57,3.53,20.71,20.71,0,0,0,5.62,1.83,6.52,6.52,0,0,0-.9,1.29A20,20,0,0,1,98,104.21a24.3,24.3,0,0,1-6.42,2.38,5.38,5.38,0,0,0-.69-1.24,24.33,24.33,0,0,0,5.83-2,14.92,14.92,0,0,1-2.19-1.91,16,16,0,0,1-2.23,1.73,9.39,9.39,0,0,0-1.05-1A12.68,12.68,0,0,0,96,97.67l1.32.46a12.75,12.75,0,0,1-.8,1.17h5.17l.25-.07Zm-9.43,6.29h8.92v5.4H100.9V111h-6v.63H93.46Zm1.41,1.26v2.32h6v-2.32Zm.55-6.84A12.06,12.06,0,0,0,98,102.65a11.77,11.77,0,0,0,2.63-2.13H95.47Z"/><path class="cls-1" d="M112.29,107.1a18.3,18.3,0,0,0-1.17-1.74v6.18h-1.35v-6.06a14.39,14.39,0,0,1-1.92,3.5,7.16,7.16,0,0,0-.67-1.29,15.43,15.43,0,0,0,2.41-4.4h-2.13V102h2.31v-2c-.69.15-1.38.26-2,.35a4.07,4.07,0,0,0-.41-1.08A22.19,22.19,0,0,0,112,98l1,1.06a17.87,17.87,0,0,1-1.86.59V102h1.76v1.32h-1.76V104a26.59,26.59,0,0,1,2,2Zm8.87,3.06v1.13h-9v-1.13h4v-1H113v-1.08h3.12v-.9h-3v-4.86h3v-.84h-3.54V100.4h3.54v-.84c-1,.06-2,.1-3,.12a3.58,3.58,0,0,0-.32-1A53.66,53.66,0,0,0,120,98l.83,1a24.87,24.87,0,0,1-3.32.46v1h3.35v1.11h-3.35v.84h3.08v4.86h-3.08v.9h3.12v1.08h-3.12v1Zm-6.75-5.82h1.75v-1h-1.75Zm1.75,1.88v-1h-1.75v1Zm1.35-2.88v1h1.8v-1Zm1.8,1.87h-1.8v1h1.8Z"/><path class="cls-1" d="M128.4,98.19a25.6,25.6,0,0,1-1.49,3v10.42h-1.32v-8.41a15.67,15.67,0,0,1-1.45,1.71,9.81,9.81,0,0,0-.77-1.41,16.25,16.25,0,0,0,3.72-5.76Zm4.78,8a6.19,6.19,0,0,1-.91,2.75,14.83,14.83,0,0,0,5.32,1.44,6.07,6.07,0,0,0-.82,1.26,14.63,14.63,0,0,1-5.31-1.71,7.94,7.94,0,0,1-3.24,1.72,5.65,5.65,0,0,0-.86-1.15,7.17,7.17,0,0,0,3-1.35,8.3,8.3,0,0,1-2-2.36l1.14-.36a6.37,6.37,0,0,0,1.68,1.8,5,5,0,0,0,.67-2h-3.48v-4.21h3.57v-1.29H128V99.36h3.94V97.88h1.38v1.48h4.14v1.28h-4.14v1.29H137v4.21ZM131.89,105v-1.91H129.6V105Zm1.38-1.91V105h2.37v-1.91Z"/><path class="cls-1" d="M152.68,109.82c0,.81-.2,1.23-.74,1.44a8.43,8.43,0,0,1-2.8.24,5.7,5.7,0,0,0-.47-1.35c1,0,2,0,2.24,0s.37-.09.37-.38v-2.68h-3.63v4.29h-1.39v-4.29h-3.45a8.54,8.54,0,0,1-1.88,4.54,4.55,4.55,0,0,0-1.09-.91c1.63-1.82,1.78-4.47,1.78-6.59V98.82h11.06Zm-6.42-4v-2.22H143v.6c0,.51,0,1.06-.06,1.62ZM143,100.16v2.11h3.26v-2.11Zm8.28,0h-3.63v2.11h3.63Zm0,5.64v-2.22h-3.63v2.22Z"/><path class="cls-1" d="M156.14,104.55a17.42,17.42,0,0,0,.73-3.85l1.08.15a21.46,21.46,0,0,1-.7,4.08Zm4.38-1.92a19.86,19.86,0,0,0-.83-2.13v11H158.4V97.79h1.29v2.44l.83-.36a16.61,16.61,0,0,1,1,2.25Zm8.58,7.52c0,.66-.12,1-.59,1.18a5.87,5.87,0,0,1-2.2.23,4.31,4.31,0,0,0-.41-1.19c.69,0,1.43,0,1.61,0s.28-.08.28-.26v-.84h-4.9a5.5,5.5,0,0,1-1,2.43,4.8,4.8,0,0,0-1-1,5.93,5.93,0,0,0,.91-3.7v-2.72h7.34Zm.88-7.58v1h-9.1v-1h3.79v-.87h-3v-1h3V100h-3.43v-1h3.43V97.8h1.38v1.11h3.45v1h-3.45v.78h3v1h-3v.87Zm-2.19,5.72v-.93h-4.71c0,.28,0,.61-.06.93Zm-4.71-2.94v1h4.71v-1Z"/><path class="cls-1" d="M177.4,107.91c-1.53.63-3.16,1.29-4.45,1.79l-.47-1.43c.51-.16,1.13-.36,1.8-.6v-5h-1.56V101.4h1.56V98h1.37v3.4H177v1.32h-1.36v4.46l1.47-.54Zm7,2.37a1.6,1.6,0,0,0,.43,0,.44.44,0,0,0,.21-.32,8,8,0,0,0,.08-1.2,3.46,3.46,0,0,0,1.09.59,5.82,5.82,0,0,1-.19,1.42,1,1,0,0,1-.59.51,2.9,2.9,0,0,1-.91.14h-1a1.85,1.85,0,0,1-1.07-.32c-.27-.21-.37-.48-.37-1.32v-2h-1.22c-.27,2.07-1,3.24-3.79,3.93a3.24,3.24,0,0,0-.72-1.09c2.38-.47,3-1.28,3.18-2.84h-1.41v-4.35h6.93v4.35h-1.68v2.12c0,.21,0,.34.1.39a.52.52,0,0,0,.33.07Zm1.42-7.57h-8.35v-1.17h2c-.11-.38-.26-.86-.41-1.25l1.13-.25a8.19,8.19,0,0,1,.51,1.42l-.29.08h2.12c.18-.47.42-1,.54-1.47l1.27.25c-.21.42-.39.84-.58,1.22h2.08Zm-.39-2.75h-7.53V98.81H181a8.57,8.57,0,0,0-.33-.86L182,97.7a7.75,7.75,0,0,1,.48,1.11h3Zm-6,5.12h4.32v-.8h-4.32Zm0,1.71h4.32V106h-4.32Z"/><path class="cls-1" d="M190.4,106.77c1.16-.43,1.83-1.12,1.91-2h-.21a1.17,1.17,0,0,1-1.26-1.2,1.18,1.18,0,0,1,1.27-1.2c.95,0,1.44.74,1.44,1.88a3.66,3.66,0,0,1-2.76,3.51Z"/><path class="cls-1" d="M211.1,105.81s0,.38,0,.56c-.26,3-.53,4.24-1,4.71a1.42,1.42,0,0,1-1,.45,15,15,0,0,1-1.82,0,2.81,2.81,0,0,0-.36-1.24,15,15,0,0,0,1.56.07.7.7,0,0,0,.53-.16c.28-.26.51-1.14.7-3.2h-8.89a16.22,16.22,0,0,1-2.39,1.53,7.67,7.67,0,0,0-.73-1.18,14.82,14.82,0,0,0,6-5.73h-5.07v-1.25h2.76a11.39,11.39,0,0,0-1.05-2l1.18-.47a8.91,8.91,0,0,1,1.2,2.19l-.78.33h2.43a18,18,0,0,0,1.05-2.59l1.4.39c-.27.75-.57,1.48-.9,2.2h3c-.17.89-.35,1.92-.54,2.72h1.71c-.14.88-.33,1.92-.51,2.71Zm-12.88,4.94a5.37,5.37,0,0,0,1.69-3l1.19.39a6.16,6.16,0,0,1-1.79,3.36Zm4.8-2.66a10.38,10.38,0,0,1,.42,2.73l-1.23.17a11,11,0,0,0-.32-2.75Zm.48-3.79a19.44,19.44,0,0,1-1.37,1.51h6.15c.11-.45.21-1,.3-1.51Zm1.72,3.54a10.89,10.89,0,0,1,.8,2.4l-1.13.3a12.83,12.83,0,0,0-.73-2.45Zm0-6.21c-.27.51-.57,1-.88,1.47h2.73c.1-.44.21-.95.3-1.47Zm2.07,8.19a8.44,8.44,0,0,0-1-2l1-.33a8.13,8.13,0,0,1,1.07,2Z"/><path class="cls-1" d="M216.12,101.87a12.88,12.88,0,0,1-1.27,1.21A7.34,7.34,0,0,0,214,102a12.74,12.74,0,0,0,3.53-4.21l1.23.42a17.54,17.54,0,0,1-1.26,2v6.18h-1.34Zm-2,8.49a15.75,15.75,0,0,0,1.47-3.23l1.23.51a26.8,26.8,0,0,1-1.39,3.35Zm8.78-.33c.76,0,.9-.21,1-1.7a3.33,3.33,0,0,0,1.27.51c-.18,2-.6,2.46-2.16,2.46h-3.27c-1.92,0-2.41-.39-2.41-1.75V107.1h1.39v2.42c0,.43.18.51,1.11.51Zm-2.31-9.72a11.14,11.14,0,0,1-1.5,1.9,6.76,6.76,0,0,0-1-.87,8.25,8.25,0,0,0,2.28-3.52l1.28.31c-.12.35-.24.66-.39,1h5.17l.21,0,1,.24c-.38.88-.83,1.92-1.19,2.56l-1.18-.25c.18-.35.4-.84.6-1.32Zm1,2a10.19,10.19,0,0,1-2.1,3.11,9.7,9.7,0,0,0-1-.83,6.86,6.86,0,0,0,1.86-2.62Zm0,6.81a11.52,11.52,0,0,0-2-2.59l1.08-.59a11.76,11.76,0,0,1,2.1,2.51Zm2.21-2.77h-1.34v-5.55h1.34Zm1.77-4.41a12.94,12.94,0,0,1,1.83,2.88l-1.17.61a15.92,15.92,0,0,0-1.79-3Zm.37,4.92a14,14,0,0,1,1.64,3.39l-1.34.52a13.76,13.76,0,0,0-1.53-3.43Z"/><path class="cls-1" d="M244,108.11H230.49v-1.29h1.42L231.64,99a21.91,21.91,0,0,0,2.79-1.11l.65,1.13a22.54,22.54,0,0,1-2.15.7l0,1.61h1.86v1.15H233l.06,1.58h1.82v1.17h-1.79l.06,1.59h8.16c0-.47.06-1,.09-1.55h-1.77v-1.15h1.83c0-.53,0-1.07.05-1.61h-1.77v-1.15h1.8c0-.54,0-1.1,0-1.62h-2V98.52h3.25c0,2.64-.09,6.08-.22,8.3H244Zm-8.1,1a26.26,26.26,0,0,1-4.52,2.47,8.73,8.73,0,0,0-.79-1.05,17,17,0,0,0,4.15-2.31Zm1.06-5.58a7.46,7.46,0,0,1-.85,2.7,7.54,7.54,0,0,0-.92-.57,5.06,5.06,0,0,0,.69-2.3Zm.89-.71h-2.33V97.92h1.2v1.23h2.4v1.16h-2.4v1.38H239v3.86c0,.52-.11.76-.45.91a4.33,4.33,0,0,1-1.64.17,2.87,2.87,0,0,0-.33-.9c.48,0,.92,0,1,0s.2,0,.2-.17Zm4.86,8.72a31.39,31.39,0,0,0-4.17-2.4l.78-1a38,38,0,0,1,4.3,2.34Z"/><path class="cls-1" d="M258.89,104.06c-.64.52-1.38,1-2.11,1.56a6.81,6.81,0,0,0,3.75,4.2,5,5,0,0,0-.92,1.12,7.91,7.91,0,0,1-3.93-4.62l-.6.36c.48,1.86.12,3.65-.69,4.28a2,2,0,0,1-1.62.6c-.34,0-.79,0-1.24,0a3.31,3.31,0,0,0-.38-1.31c.53,0,1,.08,1.34.08a1.07,1.07,0,0,0,.9-.33,2.77,2.77,0,0,0,.52-2.13,22.1,22.1,0,0,1-6.24,3.06,4.91,4.91,0,0,0-.73-1.16,17.62,17.62,0,0,0,6.73-3.19,6.53,6.53,0,0,0-.31-.84,25.07,25.07,0,0,1-5.48,2.53,6.91,6.91,0,0,0-.7-1.09,18.58,18.58,0,0,0,5.62-2.36,6.1,6.1,0,0,0-.58-.72,20.38,20.38,0,0,1-4.23,1.68,7.14,7.14,0,0,0-.74-1.11,16.71,16.71,0,0,0,5.09-1.92h-3.05v-1.2h8.49v1.2h-3.55a9.3,9.3,0,0,1-1,.74,6.29,6.29,0,0,1,1.44,2.08,24.15,24.15,0,0,0,3.06-2.4Zm-10.24-1.79H247.3V99.08h5.49a8.1,8.1,0,0,0-.47-1l1.46-.42a9.15,9.15,0,0,1,.7,1.4h5.42v3.19h-1.43v-1.93h-9.82Z"/><path class="cls-1" d="M270.59,97.85c0,.57,0,1.35-.11,2.23.21,1.88,1.13,7.86,6.36,10.19a4.28,4.28,0,0,0-1,1.18c-3.52-1.66-5.16-5-5.95-7.65a12,12,0,0,1-5.73,7.73,4.27,4.27,0,0,0-1.16-1.11c6.14-3.18,6-10.17,6-12.57Z"/><path class="cls-1" d="M281.65,107l-.09.59h5.63v3.91H286v-.51h-3.23v.54h-1.18v-3.76a9.62,9.62,0,0,1-1.14,3.28,5.81,5.81,0,0,0-1.2-.58,11.83,11.83,0,0,0,1.31-6.09v-1.89h6.31V107Zm3.15-8.61a3.22,3.22,0,0,1-.25.39c1.14.68,2.46,1.49,3.16,2l-.72,1.17c-.72-.59-2.07-1.47-3.22-2.21a13,13,0,0,1-1.26,1.2h2.87v.87h-3.11v-.66a15.4,15.4,0,0,1-2.29,1.52,8.64,8.64,0,0,0-.75-1.31,10.44,10.44,0,0,0,4.3-3.48Zm.77,7.61v-.84H281.8c0,.27,0,.55,0,.84Zm-3.75-2.51v.8h3.75v-.8Zm.91,5.09v1.35H286v-1.35Zm6.89-.87h-1.31V99.41h1.31Zm2.79-9.8v12c0,.81-.18,1.21-.66,1.42a6.07,6.07,0,0,1-2.46.29,6,6,0,0,0-.45-1.4c.85,0,1.63,0,1.87,0s.35-.08.35-.35V97.86Z"/><path class="cls-1" d="M299.89,104.82a17.89,17.89,0,0,1-1.45,4c.24.16.52.37.9.61a8,8,0,0,0,4.14.72,55.06,55.06,0,0,0,6-.34,5.3,5.3,0,0,0-.41,1.44c-1.17.07-3.88.16-5.65.16a8.32,8.32,0,0,1-4.32-.79c-.6-.35-1.14-.87-1.46-.87s-.85,1-1.24,1.89l-.95-1.31a5.8,5.8,0,0,1,1.79-1.71,14.33,14.33,0,0,0,1.05-2.8h-2c.37-.87.82-2.07,1.23-3.21h-1.8v-1.26h3.49c-.34,1-.79,2.23-1.18,3.25h1.06l.21-.06Zm-2.49-4c-.18-.64-.55-1.66-.79-2.44l1.27-.36c.27.76.63,1.74.83,2.37Zm4.26,0a9,9,0,0,1-1.08,1.45,5.83,5.83,0,0,0-1.17-.67A9,9,0,0,0,301.56,98l1.3.3a10.62,10.62,0,0,1-.54,1.31h1.44V97.8h1.38v1.79h3.42v1.2h-3.42v1.62h4.07v1.18h-9.57v-1.18h4.12v-1.62Zm5.07,8.4v-.45h-4.57v.49h-1.34V104.6h7.31v4.59Zm0-1.64v-1.84h-4.57v1.84Z"/><path class="cls-1" d="M13.69,131.68a8.48,8.48,0,0,1-2,3.45,7.89,7.89,0,0,0,2.75,1.21,5.69,5.69,0,0,0-.84,1.11A8.63,8.63,0,0,1,10.73,136a10.82,10.82,0,0,1-2.84,1.53,4,4,0,0,0-.73-1.08v1.12H5.85v-1.38l-4.95.57-.12-1.23,1.37-.12V130.6H.92v-1.13H14.05v1.13H7.16v5.8a8.4,8.4,0,0,0,2.61-1.3,8.23,8.23,0,0,1-1.59-2.52l.36-.11H7.67v-1.09h4.94l.23,0ZM4,128.87H2.69v-4.59h9.67v4.59H11v-3.58H4Zm-.63,1.73v.84H5.85v-.84Zm0,2.68H5.85v-.84H3.39Zm0,2c.78-.07,1.62-.16,2.46-.27v-.72H3.39Zm6.9-9.28v.87H4.59V126Zm-5.7,1.59h5.72v.87H4.59Zm4.82,4.87a7,7,0,0,0,1.28,1.83A6.51,6.51,0,0,0,12,132.47Z"/><path class="cls-1" d="M18.12,133.64a18.46,18.46,0,0,1-.7,3.62,5.42,5.42,0,0,0-1-.39,14.64,14.64,0,0,0,.65-3.42Zm-1.29-4.2a.15.15,0,0,0,0,.06,7.44,7.44,0,0,0-.39-1.15c.25-.08.51-.38.82-.81a18.83,18.83,0,0,0,1.88-3.72l1.18.48a24.77,24.77,0,0,1-2.17,3.82l1.39-.1A20.42,20.42,0,0,0,20.62,126l1.09.66a26.54,26.54,0,0,1-3.26,4.81l2.24-.3c-.17-.46-.35-.94-.54-1.38l.94-.33a11.93,11.93,0,0,1,1,2.82l-1,.41c0-.17-.06-.33-.1-.53-3.27.5-3.74.62-4,.78-.06-.25-.27-.85-.39-1.17a2.77,2.77,0,0,0,1.09-1,15.36,15.36,0,0,0,1.17-1.59,7.42,7.42,0,0,0-2,.34Zm2.84,3.93a30.67,30.67,0,0,1,.42,3.14l-1.07.27a29.52,29.52,0,0,0-.34-3.18Zm1.59-.39a23.07,23.07,0,0,1,.88,2.84l-1,.34a21.83,21.83,0,0,0-.82-2.89Zm8.65-8.44V137.2H28.57v-.78H23.94v.9H22.67V124.54Zm-6,1.41v4h1.62v-4Zm0,9.16h1.62v-3.87H23.94ZM28.57,126H26.82v4h1.75Zm0,9.16v-3.87H26.82v3.87Z"/><path class="cls-1" d="M33.9,133.54a19.51,19.51,0,0,1-.67,3.49,6.76,6.76,0,0,0-1-.33,14.59,14.59,0,0,0,.64-3.33Zm7.62,1.78c-1.6.5-3.31,1-4.62,1.37l-.33-1.28c.55-.12,1.26-.28,2-.48v-2.31H36.93v-.13l-.87.3a6.86,6.86,0,0,0-.13-.69c-2.48.49-2.9.63-3.15.79a8.93,8.93,0,0,0-.38-1.14c.3,0,.57-.45,1-1,.17-.25.54-.82,1-1.57a5.26,5.26,0,0,0-1.62.31,9.77,9.77,0,0,0-.41-1.17c.24-.06.44-.37.68-.82a19.59,19.59,0,0,0,1.33-3.71l1.2.47a21.76,21.76,0,0,1-1.65,3.88l1-.09a20.08,20.08,0,0,0,.84-2l1.1.56a28.69,28.69,0,0,1-2.66,4.71l1.52-.29c-.13-.42-.26-.85-.4-1.24l.88-.23a19.76,19.76,0,0,1,.76,2.57v-.75H38.6V130h1.13v1.41h1.46v1.18H39.73v2l1.65-.41Zm-6.37-1.95a26.41,26.41,0,0,1,.37,2.84l-1,.24a26,26,0,0,0-.32-2.87Zm1.3-.37a17.46,17.46,0,0,1,.63,2l-.91.31a16.76,16.76,0,0,0-.59-2Zm3.93-3.08-.17-.63a12.67,12.67,0,0,0-3,.71,8.17,8.17,0,0,0-.42-1.19c.21-.06.39-.33.58-.69a14.33,14.33,0,0,0,.84-2.26h-1.4V124.7h4.94v1.16H39.5a17.12,17.12,0,0,1-1.34,2.79l1.76-.29c-.17-.43-.35-.85-.52-1.24l.93-.33a13.28,13.28,0,0,1,1.05,2.74Zm5.49-3.06a22.53,22.53,0,0,1-1.68,7,8.9,8.9,0,0,0,2.07,2.73,3.83,3.83,0,0,0-.9.94,9.11,9.11,0,0,1-1.8-2.47,8.93,8.93,0,0,1-2.18,2.59,3.75,3.75,0,0,0-.82-1,7.91,7.91,0,0,0,2.38-2.93,21.71,21.71,0,0,1-.71-2.11c-.14.28-.29.57-.46.84a5.59,5.59,0,0,0-.54-1.31,7.08,7.08,0,0,0,.56-1.21c-.21-.95-.41-1.91-.56-2.91l.83-.14c.07.44.15.89.24,1.31a31.13,31.13,0,0,0,.66-4.17l1.09.15c-.1.84-.22,1.68-.37,2.5H45l.21,0Zm-2.4,1a23.54,23.54,0,0,1-.69,2.45c.22.76.48,1.5.75,2.2a20.06,20.06,0,0,0,1.12-4.65Z"/><path class="cls-1" d="M52.59,130h2.34v1.16H52.59v1.36h2.1v4.59H53.37v-.42H50.46v.72H49.2v-4.89h2.09v-1.36H48.83V130h2.46v-1.27H49.85v-1.07c-.32.26-.63.5-1,.72a6.94,6.94,0,0,0-.63-1.29,10.07,10.07,0,0,0,3.34-3.31l1.17.43a4.91,4.91,0,0,1-.25.44A15.53,15.53,0,0,1,55.31,127l-.8,1.08a17.49,17.49,0,0,0-2.68-2.49,14,14,0,0,1-1.88,2h4v1.16H52.59Zm.78,3.68H50.46v1.87h2.91ZM62,129.34A31.65,31.65,0,0,1,61,132.56l-1.13-.27c.2-.48.41-1.18.62-1.87H59v5.67c0,.67-.1,1.06-.55,1.26a5.38,5.38,0,0,1-2.07.22,5.77,5.77,0,0,0-.39-1.29c.63,0,1.27,0,1.45,0s.26-.06.26-.24v-5.65H55.13v-1.26h3.45A14.38,14.38,0,0,0,55.83,127l.92-.78c.46.27,1,.61,1.44.94a9.32,9.32,0,0,0,1.35-1.51h-4v-1.23H60.5l.28-.08.84.6a13.63,13.63,0,0,1-2.55,2.93,6.93,6.93,0,0,1,.9.9l-.45.36H60.9l.21,0Z"/><path class="cls-1" d="M68.12,130.85A18.49,18.49,0,0,1,67,134.77c.27.16.58.39,1,.67a8.16,8.16,0,0,0,4.19.72,55.35,55.35,0,0,0,6-.34,5.14,5.14,0,0,0-.42,1.44c-1.16.07-3.9.16-5.64.16a8.48,8.48,0,0,1-4.37-.79c-.6-.35-1.14-.86-1.47-.86s-.84,1-1.26,1.88l-.94-1.29a6.24,6.24,0,0,1,1.66-1.65,13.7,13.7,0,0,0,.89-2.82h-2c.39-.89.85-2.09,1.26-3.27H64.32v-1.26h3.35c-.35,1.06-.8,2.29-1.2,3.33h.82l.23-.05Zm-2-4.12c-.22-.66-.67-1.71-1-2.51l1.2-.39c.35.77.8,1.77,1,2.4Zm4.47-.68H68.25V125h4a5.42,5.42,0,0,0-.54-.86l1.09-.43a7.24,7.24,0,0,1,.86,1.29h4.1v1.09H75.73l.19,0c-.23.45-.45.9-.67,1.27h2.1v6.41c0,.61-.1.94-.52,1.14a4.74,4.74,0,0,1-1.92.22,5.55,5.55,0,0,0-.39-1.17c.58,0,1.14,0,1.32,0s.24-.07.24-.24v-5.29H73.5v.91h2v.9h-2v.95H75v2.65H72v.51H71v-3.16h1.46v-.95h-2v-.9h2v-.91H70v6.58H68.73v-7.68h1.91a5,5,0,0,0-.5-1.21Zm3.38,1.32a12.28,12.28,0,0,0,.6-1.32H71.4a4.69,4.69,0,0,1,.51,1.26l-.24.06Zm.09,4.68H72v1h2Z"/><path class="cls-1" d="M93.45,126.13s0,.48,0,.66c-.21,6.76-.4,9.09-1,9.84a1.65,1.65,0,0,1-1.3.7,15.31,15.31,0,0,1-2.26,0,3.37,3.37,0,0,0-.45-1.35c1,.08,1.82.09,2.2.09a.66.66,0,0,0,.63-.25c.48-.5.68-2.76.87-8.42H88.59a15.09,15.09,0,0,1-1.36,2.52,7.81,7.81,0,0,0-1.1-.78V136H82.07v1.14H80.79v-11h1.68a17.61,17.61,0,0,0,.53-2.43l1.51.26c-.25.75-.54,1.54-.78,2.17h2.4V129a14.35,14.35,0,0,0,2.24-5.27l1.34.32a20,20,0,0,1-.61,2Zm-11.38,1.29v2.85h2.79v-2.85Zm2.79,7.38v-3.32H82.07v3.32Zm5-1.17a23.74,23.74,0,0,0-2.19-3.47l1.09-.61A26.44,26.44,0,0,1,91,132.89Z"/><path class="cls-1" d="M109.59,135.76v1.35H96.27v-1.35h5.94v-3.45H97.94V131h4.27v-3H98.88a13,13,0,0,1-1.48,2.33,8.58,8.58,0,0,0-1.28-.84A13,13,0,0,0,98.84,124l1.44.33c-.23.76-.5,1.53-.78,2.25h2.71v-2.79h1.44v2.79h5.22V128h-5.22v3h4.66v1.34h-4.66v3.45Z"/><path class="cls-1" d="M114.72,130.7c-.62-.42-1.86-1.14-2.76-1.6l.77-1c.85.42,2.12,1.08,2.76,1.49Zm-2.46,5.75a44.66,44.66,0,0,0,2.82-4.74l1,.93c-.76,1.54-1.77,3.34-2.65,4.74Zm3.17-9.8c-.62-.43-1.86-1.15-2.75-1.65l.78-1c.87.42,2.14,1.1,2.79,1.52Zm6.24,2.84v2.22h3.08v5.77h-1.32v-.55h-5v.63h-1.28v-5.85h3.15v-2.22h-4.16v-1.34h4.16V126c-1,.17-2.13.29-3.11.36a5.26,5.26,0,0,0-.41-1.17,34.54,34.54,0,0,0,7.12-1.36l1.1,1.08a20.6,20.6,0,0,1-3.37.87v2.35h4v1.34Zm1.76,3.48h-5v2.7h5Z"/><path class="cls-1" d="M135.78,129.77l-.28.26a22.16,22.16,0,0,0,6.23,1.84,5.54,5.54,0,0,0-1,.95c-.74-.15-1.52-.33-2.3-.57v2.95c.32-.21.6-.4.83-.57l1,.54c-.57.35-1.19.69-1.77,1a11.77,11.77,0,0,1,1.77.75l-.65.77a21.3,21.3,0,0,0-4.8-1.7c0,.26-.06.59-.07.77-3.5.64-3.95.73-4.23.88a2.74,2.74,0,0,0-.39-.94.82.82,0,0,0,.58-.83v-3.55c-.75.21-1.51.4-2.28.54a3.57,3.57,0,0,0-.54-1,14.46,14.46,0,0,0,6.41-2.26,7.21,7.21,0,0,0-1.88.54v0a2.55,2.55,0,0,0-.33-.87.7.7,0,0,0,.47-.76v-1.17a7.06,7.06,0,0,1-3.95,3.63A7.28,7.28,0,0,0,128,130a6.41,6.41,0,0,0,2.94-1.95,12.5,12.5,0,0,0-2.44.35,6.89,6.89,0,0,0-.35-.84,2.2,2.2,0,0,0,.87-.45,9.13,9.13,0,0,0,.83-.68,5.2,5.2,0,0,0-1.34.21,7.51,7.51,0,0,0-.33-.87,1.15,1.15,0,0,0,.59-.36,8.24,8.24,0,0,0,1.32-1.66l.88.48a10.65,10.65,0,0,1-1.33,1.51l1-.06a10.29,10.29,0,0,0,.76-.87l.89.54a15.33,15.33,0,0,1-2.28,2.06l1.42-.12c.09-.21.18-.44.26-.65l.93.15v-2.23H134a5.84,5.84,0,0,0-.31-.66l1.11-.26a5.27,5.27,0,0,1,.46.92h1.58v3.16H136a6.65,6.65,0,0,1,1.39,1.61l-.85.43a6.84,6.84,0,0,0-.44-.66l-1.11.27Zm2.57,2.45a22,22,0,0,1-2.21-.8V132h-3.22v-.45c-.6.26-1.25.5-1.91.71Zm-1.22.73H132v.44h5.11Zm0,1.61v-.51H132v.51ZM132,136.3l2.77-.45.47-.57H132Zm3.94-5c-.51-.23-1-.44-1.41-.68a11.11,11.11,0,0,1-1.29.68Zm-2.23-6.08v.53h2v-.53Zm0,1.76h2v-.54h-2Zm1.77,1.38a2.53,2.53,0,0,0-.42-.39l.57-.29h-1.92v1Zm-.08,6.87c.65.13,1.34.33,2,.52.3-.15.6-.33.9-.52Zm2-4.91v-6.13h3.06l.16,0,.81.39c-.33.71-.75,1.41-1.14,2.07a2.49,2.49,0,0,1,1.16,1.71,1.22,1.22,0,0,1-.57,1.1,2.26,2.26,0,0,1-.68.22,6.6,6.6,0,0,1-1.09,0,2.2,2.2,0,0,0-.32-.93c.38,0,.69,0,.95,0a.76.76,0,0,0,.36-.09.41.41,0,0,0,.25-.46c0-.38-.34-.81-1.18-1.41.28-.57.55-1.13.78-1.64h-1.43v5.19Z"/><path class="cls-1" d="M153.92,133.93a6.47,6.47,0,0,1-1.59,1.54c1.79.41,3.43.84,4.66,1.23l-1.17.87a44.4,44.4,0,0,0-4.83-1.35,20.12,20.12,0,0,1-6.39,1.37,3.37,3.37,0,0,0-.54-1.13,24.31,24.31,0,0,0,4.79-.7c-1-.2-2-.39-3-.57.37-.36.79-.8,1.18-1.26H144v-1.1h4a15.47,15.47,0,0,0,.92-1.35l1.33.38a11.26,11.26,0,0,1-.67,1h3.54a6.56,6.56,0,0,0,.36-.7l1.29.37c0,.11-.11.23-.15.33h2.56v1.1Zm-8.37-6.08h-1.34V125H150a6.73,6.73,0,0,0-.47-.93l1.38-.27a7.72,7.72,0,0,1,.65,1.2H157v2.86h-1.4v-1.72H145.55Zm9.16,3.63h-8.25V127h8.25Zm-1.36-3.55h-5.57v.87h5.57Zm0,1.74h-5.57v.9h5.57Zm-4.68,4.26c-.21.24-.42.46-.6.69.84.15,1.69.31,2.52.48a6.34,6.34,0,0,0,1.66-1.17Z"/><path class="cls-1" d="M162.8,128.36a2.34,2.34,0,1,1-2.34,2.34A2.34,2.34,0,0,1,162.8,128.36Zm0,3.78a1.44,1.44,0,1,0-1.44-1.44A1.44,1.44,0,0,0,162.8,132.14Z"/><text class="cls-2" transform="translate(0 17.6)">貼心設想極致禮遇　打造生活饗宴</text></g></g></svg>