<svg viewBox="0 0 464 336" fill="#000" xmlns="http://www.w3.org/2000/svg" xmlns:xlink="http://www.w3.org/1999/xlink">
<path d="M116.1,63.9c-7.6,3-14.9,5-20.9,6.2L94,64.7c28.1-9,49.3-25.9,60-45.3l-22.3,0c-8.1,9.1-18.9,16.7-32.7,22.5
	l-2.1-4.8c15.1-9.5,25.7-22.9,33-37.1l11.9,6c-1.5,2.5-3.2,4.9-4.9,7.2h17.6l4.1-2.6l11.2,7.4c-7.6,15.2-19.3,26.4-31.7,34.6h20.6
	l0,0v6.1H128v22.5h30.7v6.1h0H128v7.2h-11.9 M127.1,45.5C124.3,40.2,117,29.2,114,25c5.1-4.1,18.6,8.5,21.9,12 M214.1,94.6h-11V2.7
	h11 M219.1,59.8c-1.3-4-7.2-19-9.1-23.8c-5.5,17.9-13.1,31.9-17.4,37.7l-3.4-3.1c4.9-9.5,12.4-30.8,11.7-44.6
	c9.8,2.9,22.9,21.2,26.5,28.3 M243.1,29.8c-4.5,7.8-16.7,23.7-26.1,23.2c5.9-5.1,13.1-20.8,15.6-28.4 M262.6,47.2
	c-8.2,31.5-26,41.7-44.5,47.8l-1.5-4.6c19.4-9.4,31-24,35.2-47.6 M267.1,94.9c-16.8-7.5-30.4-20.8-35.8-48.3l4-1.9
	c7.2,20.3,20.6,32,38.3,37.2 M265,52c-4.7-8.6-9.6-16.5-14.7-23.4l2.9-3.5c6.8,4.3,14.6,11.5,20.7,18.8 M221.8,23v-6h48.7v6 M247,20
	c-3.3-4.4-9.4-11.9-12.5-15.4l2.5-3.9c5.6,2.5,12.2,6.6,17.4,11.2 M298.4,46c-4.5-6.6-9-12.5-13-17.3l2.5-4.3
	c5.4,2.5,13.1,7,18.5,11.5 M285.7,85.4c5.1-9.7,11-22.9,15.9-36.4l4.4,1.7c-1.9,14.4-5,31.7-7.7,41.5 M309.6,13.4l-7.7,9.9
	c-4.6-6.4-9.2-11.9-13.3-16.6l2.5-4.2C296.1,4.6,303.4,8.7,309.6,13.4z M347,32.5c-1.7-4.1-4.7-10.4-6.5-13.5l3.3-3
	c3.8,3.1,7.1,6.4,10.7,11.2 M309.4,7.5h55v6.2h-43.8v70h45.5v6.2l0,0h-45.5v4.6h-11.2 M325.6,46.1c-1.4,1.9-2.7,3.6-4.2,5.3L318,48
	c5.4-6.7,9.8-22.4,12.4-33.9l9.8,3.5c-1.5,4.1-3.3,8.3-5.2,12.3h27.3v5.8h-9.7v33.9h10.6v6.3h-28v5.8h-9.6 M343,35.7h-7.8v20.2H361
	v5.7c0,0-25.8,0-25.8,0v8h7.8 M408,60.9c-0.6,2.7-1.5,5.3-2.5,7.8c4.2,4.3,8.9,10.6,11.5,15.3l-9.2,6.1c-1.7-5.5-3.6-10.2-5.6-15
	c-4.8,8.1-11.5,14.2-17.9,17.6l-2.6-4.2c7.2-7.3,12.6-17.6,15-30.7 M427.3,94.7H416V56.6c-11.2,0.6-21.7,0.6-28.4,0.2l-0.6-5
	c21.4-0.9,43.8-3.7,57.6-9.7l9,9.2c-6.6,2.1-16.2,3.6-26.3,4.5 M450.3,59.4c-0.7,3.4-1.6,6.6-2.7,9.6c5.4,4.1,11.1,9.7,14.5,14.7
	l-8.4,7.2l0,0c-2.7-5.9-5.8-11.2-8.8-15.9c-3.9,7.6-9.1,13.4-15,16.6l-2.9-4.1c6.5-7.2,10.1-17.4,12.1-30.9 M411.6,11.4h-10.8v14.3
	h10.8 M400.8,31.1v5.2l10.8-1.1v-4.1 M422.1,47.1h-10.5V41c-8.8,3.3-18.3,5.2-26,6.3l-2-10.3c2.3,0,4.6,0,6.9-0.1V11.4h-6V5.5h42.9
	V10h18.8l2.8-1.9l9.1,5.2c-5.6,15.7-15.9,27.2-33.6,32l-1.5-4.7c12.8-6.3,20-14.2,23.5-24.6h-12.2c6.1,12.3,16.4,16.5,27.1,19.8
	L457,46.6c-18.3-7.4-23.6-18.8-27.6-30.6l-3.9,0v-4.6h-3.4 M95.7,213H83.2v-71.9L69.1,145v-12.8l16.2-5.6h10.4 M117.5,212.7v-8.2
	c28.5-24,39.3-48.1,34-62.1c-4.1-10.9-21.8-10.5-31.9,0.5v-12.4c15.9-8.9,40.3-8.4,46,9c8.1,25.3-15.3,46.5-30.3,62.6h33.5v10.6
	 M241.6,215.4h-12.1v-74.5H213c-4.9,8.7-11.2,16.7-17.5,21.7l-3.2-3.7c7.1-10.6,12.4-25.2,15.2-38.5l13,4c-1.1,3.2-2.4,6.6-4,9.9
	h53.3v6.6h-28.2 M190.4,188v-6.7h14.1v-20.5H216v20.5h55.3l0,0v6.7 M410.5,203.9c0,10.9-10,14-23.5,5.9l1-4.6
	c9.9,1.5,11.8,0.6,11.8-4.3v-24.4l6,1.1c2.1-2.9,4-6.4,5.2-9h-25.9v-5.8h27.2l2.5-1.6l8.2,6c-2.6,3.8-7.7,9.1-12.4,12.6 M381,188
	c19.6-2.2,33.2-5.1,44.1-8.3l1.5,4.6c-10.1,5.1-22.6,10.1-43.1,14.8 M381.3,155.6v-6H396v-26.7h10.6v26.7h19.9v6 M415.3,134.3
	c1.3-3.2,2.4-6.6,3.4-10.2l10.1,4.3c-9.1,24.6-24.9,44.3-46.6,56.3l-2.3-4c14.1-10.8,25.6-24,33-40.6h-28.4v-5.8 M456,215
	c-10-8.2-20.3-20.6-23.5-51.7c-2.1,4.2-4.4,7.9-6.8,10.9l-3.4-2.7c5.9-12.2,9.1-31.4,10.6-49.2l11.8,2.1c-1.8,10.2-4.3,20.1-8,29.3
	c2.5,26,13,39.9,27.1,49.1l0,0 M456.6,148.9c-1.6,33.4-15.6,56.1-41,65.6l-2-4.5c21.5-11.6,30.7-31.6,32.1-61.1 M0,254.6v-5.8h79.7
	l0,0v5.8 M30,261.8H18.7v-19.3H30 M61.1,261.8H49.8v-19.3h11.3 M45.7,284.6L45.7,284.6h33.9v5.7H0.2v-5.7H34v-26.7h11.7 M5.7,270.2
	v-5.6H74v5.6 M68.3,294.3v29.3c0,9.6-7,14.7-24.4,7.2l0.7-4.7c12.3,1.6,12.1,0.3,12.1-5.7H23.1v14H11.4v-40.1 M56.6,304.7v-4.6H23.1
	v4.6 M56.6,315v-4.8H23.1v4.8 M156.8,269.3h-11.2v-26.8h11.2 M125.3,269.3H114v-26.8h11.3 M95.2,258.9v-6.5h80.2v6.4 M141,283.6
	c0,33.5-15.7,47-44.6,51.8l-1.3-5c20.7-8.1,34.5-14.6,34.5-47.8v-20H141 M172.1,335.2c-28.1-6.6-38.8-32.8-32.4-36.2
	c6.7,12.9,19.6,21,37.7,22.8l0,0 M96.9,305.1v-6.3h10.3v-24.3h45.2v6.2l-34.1,0v18.1l56,0v0v6.3 M202,267.6v-5.5h57.5v5.5
	 M251.5,244.2c-2.3,3-9.9,11.1-17.5,13.8c2.8-4.3,6.2-14.5,7.1-17.8 M221,255.3c-2.6-2.7-8.5-8.6-11.1-10.8l1.9-4
	c4.3,1.2,10.5,4,15.1,7.2 M242.7,306.2v-13h-24.6v13 M263.9,252.3v5.9h-27.5v13.3h33v5.9h-25c8.2,6.5,20.1,9.8,28.5,11.5l-5.1,11.6
	c-12.5-3.8-23.7-13.6-29.4-23.1l-14.2,0c-8,10.4-18.6,18.9-33.6,24.2l-1.6-4.7c9.3-4.7,17.7-11.9,22.9-19.5h-19.2v-5.9H225
	l-0.1-13.3h-27.3v-5.9 M232.4,291c-1.9-2.5-7.5-8.5-9.6-10.5l2.4-3.6c4.2,1.2,9.3,4.1,13.1,6.8L232.4,291z M263.5,335.8
	c-9.4-6.9-20.3-13.4-33-19.7l1.2-4.3c5.5,1.1,11.9,2.8,17.3,4.7c2.3-2.3,5.6-7.6,7.2-11.4l8.7,6.7c-3.2,2.9-6.5,5.2-9.7,7
	c5.4,2.2,10.3,4.5,14,6.5 M207.3,287.5l46.1,0v24.4l-35.2,0v9.4c6.1-0.5,11.7-1.3,16.8-2.2l1.1,4.7c-10.2,4.8-27.1,8.7-38.1,10
	l-2.4-11.4c3.9,0,7.9-0.1,11.7-0.3 M340.3,242.4c0,50.8,5.1,71.8,16.2,78.1c2.9,1.6,3.5-1.1,3.5-16.7h4.9c4,20.6,3.3,36-12.1,29.1
	c-16.7-7.4-23.9-31.9-23.9-90.5 M366.1,260.9v6.7h-62V280h21.5c-0.1,14.5-0.4,22.7-1,29.6c-0.9,9.4-10.4,12.6-21.7,4.5l1.1-4.9
	c8.6,1.9,9.6,1.1,9.9-2.9c0.4-4.8,0.5-10.6,0.6-20.1h-10.4c-0.1,27.3-5.7,40-16,49.3l-3.5-3.6c5.6-10,7.7-17.6,7.7-46.6v-24.4
	 M354,262c-3.4-5.4-7.8-12.3-10.9-16.6l3.4-3.8c5.6,3.4,11.6,8.3,16.1,13.2 M424.8,334.1h-10.2l-0.1-91.1H425 M399.8,334.6h-10.6
	v-39.8c-2.4,2.7-4.6,5.1-6.5,6.8l-3-3.5c7.1-9.8,14.1-25,18-39.7l9.7,4c-2.3,6.4-4.7,12.4-7.6,17.2 M403,246.3
	c-4.7,10.9-12.4,21.9-19.8,28.2l-3-3.4c6-8.7,10.1-19.8,12.4-29.1 M411.8,277.8c0.1,27.8-0.5,37-7.4,47.9l-3.7-2.3
	c3.5-9.7,3.2-18.5,3-45.6 M430.9,263.8c-1.1-5.2-2.9-12-4.4-16.6l3.6-2.1c3.8,4.1,7.2,10.2,9.1,14.9 M427.5,277.9h8.4v26.8
	c0,2.7,3,3.6,6.3,0.9l2.7,7c-3.3,3.2-8.3,3.3-12.7,2.6c-4.3-0.7-4.7-4.5-4.7-7.7 M456.1,323.3c0,12.1-9.2,15-23.1,6.6l1.1-4.9
	c9.6,1.8,11.3,1.3,11.3-4.7v-40.9h-7.5v-6h24.3v6h-6.1 M438.6,254v-6.2h22.1v6.2 M289.2,125.4h73.6v89.2h-11v-4.5h-51.6v4.7h-11
	 M300.1,203.9h51.6l0.1-72.3h-51.7 M341.9,146.6c-1.5-4-4.3-9.8-5.7-12.8l3.3-2.4c2.8,2.4,6.8,7,9,10.7 M334.6,133.8
	c0.4,23.1,1,46.5,6.7,53.6c3.2,4,3.4-1.2,3.6-11.2h4.2c3.1,20.4,0,28.7-10.6,22.2c-8.7-5.4-12.8-28.6-12.8-64.6 M348.8,157.2
	c-6.9,28.5-19.5,38.1-32.9,45l-2-4.2c14.6-8.9,23.7-23.4,27-43.7 M301.5,150.8v-6h48.6v6 M300.2,186.7c9-1.6,18.9-4.6,26-7.3
	l1.5,4.1c-6.9,5.1-16.5,10.3-24.6,12.9"/>
<defs>
  <linearGradient id="grad" gradientUnits="userSpaceOnUse">
    <stop stop-color="#FFE679"/>
    <stop offset="0.02" stop-color="#FDE276"/>
    <stop offset="0.33" stop-color="#E0B64E"/>
    <stop offset="0.61" stop-color="#CC9631"/>
    <stop offset="0.84" stop-color="#BF8320"/>
    <stop offset="1" stop-color="#BB7C1A"/>
  </linearGradient>
</defs>
<path fill="url(#paint0)" d="M158.7,95h11.9V52h-11.9"/>
<path fill="url(#paint1)" d="M361,48.2v-5.7h-35.4v5.7"/>
<path fill="url(#paint2)" d="M422.1,21.1v-5.2h-21.3v5.2"/>
<path fill="url(#paint3)" d="M223.4,30.4v-6h-32.2v6"/>
<path fill="url(#paint4)" d="M131.6,166l6.6-6.6l-6.6-6.6l-6.6,6.6"/>
<path fill="url(#paint5)" d="M265,160.8v-6.3h-60.5v6.3"/>
<path fill="url(#paint6)" d="M303.8,156.1h20.5v22.2h-20.5 M311.4,172.9h5.5v-11.3h-5.5"/>
<path fill="url(#paint7)" d="M461.1,148.9v-6.1H433v6.1"/>
<path fill="url(#paint8)" d="M69.7,280.1v-5.6H10.1v5.6"/>
<path fill="url(#paint9)" d="M152.4,298.8h11.2v-24.3h-11.2"/>
<path fill="url(#paint10)" d="M253.4,302.1V297H218v5.1"/>
<path fill="url(#paint11)" d="M362.9,277.2c-10.9,38.3-37.5,53.1-52.6,56.5l-1.8-5.2c23.4-10,36.3-31.3,43.2-55.6"/>
<path fill="url(#paint12)" d="M439.3,271.6v-6.1h-38.5v6.1"/>

<linearGradient id="paint0" x1="158.66" y1="0" x2="170.56" y2="0" xlink:href="#grad"/>
<linearGradient id="paint1" x1="325.59" y1="0" x2="361.02" y2="0" xlink:href="#grad"/>
<linearGradient id="paint2" x1="400.83" y1="0" x2="422.09" y2="0" xlink:href="#grad"/>
<linearGradient id="paint3" x1="191.19" y1="0" x2="223.36" y2="0" xlink:href="#grad"/>
<linearGradient id="paint4" x1="125" y1="0" x2="138.2" y2="0" xlink:href="#grad"/>
<linearGradient id="paint5" x1="218" y1="174.36" x2="251.42" y2="140.95" xlink:href="#grad"/>
<linearGradient id="paint6" x1="303.36" y1="177.89" x2="324.73" y2="156.52" xlink:href="#grad"/>
<linearGradient id="paint7" x1="438.46" y1="154.41" x2="455.57" y2="137.3" xlink:href="#grad"/>
<linearGradient id="paint8" x1="23.59" y1="293.6" x2="56.1901" y2="261" xlink:href="#grad"/>
<linearGradient id="paint9" x1="149.1" y1="295.52" x2="166.84" y2="277.78" xlink:href="#grad"/>
<linearGradient id="paint10" x1="225.65" y1="309.67" x2="245.87" y2="289.44" xlink:href="#grad"/>
<linearGradient id="paint11" x1="308.5" y1="0" x2="362.84" y2="0" xlink:href="#grad"/>
<linearGradient id="paint12" x1="400.74" y1="0" x2="439.26" y2="0" xlink:href="#grad"/>
<linearGradient id="light1" gradientUnits="userSpaceOnUse" x1="0" y1="50" x2="100" y2="0">
	<stop  offset="0" style="stop-color:#FFF0"/>
	<stop  offset="0.5" style="stop-color:#FFFF"/>
	<stop  offset="1" style="stop-color:#FFF0"/>
<animate attributeName="x1" from="-400" to="1400" dur="4s" repeatCount="indefinite" />
<animate attributeName="x2" from="-300" to="1500" dur="4s" repeatCount="indefinite" />
</linearGradient>
<path style="fill:url(#light1);stroke:url(#light1);" d="M158.7,95h11.9V52h-11.9 M325.6,48.2H361v-5.7h-35.4 M400.8,21.1h21.3v-5.2h-21.3 M223.4,30.4v-6h-32.2v6 M131.6,152.8l-6.6,6.6
	l6.6,6.6l6.6-6.6L131.6,152.8z M265,160.8v-6.3h-60.5v6.3 M324.3,178.3h-20.5v-22.2h20.5V178.3z M316.9,161.6h-5.5v11.3h5.5V161.6z
	 M461.1,148.9v-6.1H433v6.1 M69.7,280.1v-5.6H10.1v5.6 M163.6,298.8v-24.3h-11.2v24.3 M218,302.1h35.4V297H218 M362.9,277.2
	c-10.9,38.3-37.5,53.1-52.6,56.5l-1.8-5.2c23.4-10,36.3-31.3,43.2-55.6 M439.3,271.6v-6.1h-38.5v6.1"/>
</svg>
