<svg viewBox="0 0 464 336" fill="#000" xmlns="http://www.w3.org/2000/svg" xmlns:xlink="http://www.w3.org/1999/xlink">
<path d="M158.7,87.3h-30.7v7.2h-11.9V63.9c-7.6,3-14.9,5-20.9,6.2L94,64.7c28.1-9,49.3-25.9,60-45.3h-22.3c-2.5,2.7-5.1,5.2-7.8,7.5
	c4.2,2.8,8.7,6.6,12,10.1l-8.8,8.5c-2.8-5.3-5.8-10-8.8-14.2c-6.4,4.6-13,8.2-19.3,10.6l-2.1-4.8C112,27.6,122.6,14.2,129.9,0
	l11.9,6c-1.5,2.5-3.2,4.9-4.9,7.2h17.6l4.1-2.6l11.2,7.4c-7.6,15.2-19.3,26.4-31.7,34.6h20.6l0,0v6.1h-30.7v22.5h30.7V87.3z
	 M214.1,94.6h-11l0-91.9h11 M210,36c-5.5,17.9-13.1,31.9-17.4,37.7l-3.4-3.1c4.9-9.5,12.4-30.8,11.7-44.6
	c7.6,1.3,18.7,16.4,21.4,20.1c4.1-6,7.8-13.9,10.3-21.5l10.5,5.2c-4.5,7.8-12,16.1-17.9,20.6c0.8,1.4,1.5,2.7,2.2,3.9l-8.3,5.5
	C217.8,55.8,211.9,40.8,210,36z M262.6,47.2c-2.3,8.8-5.7,16.9-10.2,23.6h0c5.7,4.8,12.6,8.1,21.2,11.1l-6.5,13
	c-8.6-3.6-15.8-9.1-21.4-15.9c-7.2,7.4-16.4,12.8-27.6,16l-1.5-4.6c10.3-5.3,18-11.5,23.7-19.2c-4.4-7.4-7.4-15.7-9-24.6l4-1.9
	c2.9,7.7,6.2,13.7,9.9,18.6c3-5.9,5.2-12.7,6.6-20.5L262.6,47.2z M250.3,28.6l2.9-3.5c6.8,4.3,14.6,11.5,20.7,18.8L265,52
	C260.3,43.4,255.4,35.5,250.3,28.6z M270.5,17v6h-48.7v-6H270.5z M247,20c-3.3-4.4-9.4-11.9-12.5-15.4l2.5-3.9
	c5.6,2.5,12.2,6.6,17.4,11.2L247,20z M287.9,24.4c5.4,2.5,13.1,7,18.5,11.5l-8,10.1c-4.5-6.6-9-12.5-13-17.3L287.9,24.4z M301.6,49
	l4.4,1.7c-1.9,14.4-5,31.7-7.7,41.5l-12.6-6.8C290.8,75.7,296.7,62.5,301.6,49z M309.6,13.4l-7.7,9.9c-4.6-6.4-9.2-11.9-13.3-16.6
	l2.5-4.2C296.1,4.6,303.4,8.7,309.6,13.4z M347,32.5c-1.7-4.1-4.7-10.4-6.5-13.5l3.3-3c3.8,3.1,7.1,6.4,10.7,11.2L347,32.5z
	 M320.6,83.7h45.5v6.2l0,0h-45.5v4.6h-11.2l0-87h55v6.2h-43.8V83.7z M318,48c5.4-6.7,9.8-22.4,12.4-33.9l9.8,3.5
	c-1.5,4.1-3.3,8.3-5.2,12.3h27.3v5.8h-9.7v33.9h10.6v6.3h-28v5.8h-9.6V46.1c-1.4,1.9-2.7,3.6-4.2,5.3L318,48z M335.2,61.6v8h7.8
	V35.7h-7.8v20.2H361v5.7H335.2z M417,84l-9.2,6.1c-1.7-5.5-3.6-10.2-5.6-15c-4.8,8.1-11.5,14.2-17.9,17.6l-2.6-4.2
	c7.2-7.3,12.6-17.6,15-30.7l11.3,3.1c-0.6,2.7-1.5,5.3-2.5,7.8C409.7,73,414.4,79.3,417,84z M427.3,94.7H416l0-38.1
	c-11.2,0.6-21.7,0.6-28.4,0.2l-0.6-5c21.4-0.9,43.8-3.7,57.6-9.7l9,9.2c-6.6,2.1-16.2,3.6-26.3,4.5L427.3,94.7z M427,87.5
	c6.5-7.2,10.1-17.4,12.1-30.9l11.2,2.8c-0.7,3.4-1.6,6.6-2.7,9.6c5.4,4.1,11.1,9.7,14.5,14.7l-8.4,7.2h0c-2.7-5.9-5.8-11.2-8.8-15.9
	c-3.9,7.6-9.1,13.4-15,16.6L427,87.5z M390.5,36.9V11.4h-6V5.5h42.9V10h18.8l2.8-1.9l9.1,5.2c-2.2,6.5-5.4,12.4-9.6,17.4
	c4.1,2.3,8.5,3.8,12.9,5.1L457,46.6c-4.9-1.9-10.4-5-15.3-9.5c-4.7,3.6-10.5,6.5-17.2,8.2l-1.5-4.7c5.5-2.6,10-5.7,13.6-9.2
	c-3.2-4.3-5.7-9.3-7.2-15.4h-3.9v-4.6h-3.4v35.7h-10.5V41c-8.8,3.3-18.3,5.2-26,6.3l-2-10.3C385.9,37,388.2,37,390.5,36.9z
	 M411.6,11.4h-10.8v14.3h10.8V11.4z M400.8,36.3c3.5-0.3,7-0.6,10.8-1.1v-4.1h-10.8V36.3z M434.3,16c1.9,4,4.4,7.2,7.2,9.7
	c2.1-3,3.8-6.3,5-9.7H434.3z M83.2,141.1L69.1,145v-12.8l16.2-5.6h10.4V213H83.2V141.1z M135.3,202.1h33.5v10.6h-51.3v-8.2
	c28.5-24,39.3-48.1,34-62.1c-4.1-10.9-21.8-10.5-31.9,0.5v-12.4c15.9-8.9,40.3-8.4,46,9C173.7,164.8,150.3,186,135.3,202.1z
	 M241.6,215.4h-12.1v-74.5H213c-4.9,8.7-11.2,16.7-17.5,21.7l-3.2-3.7c7.1-10.6,12.4-25.2,15.2-38.5l13,4c-1.1,3.2-2.4,6.6-4,9.9
	h53.3v6.6h-28.2 M190.4,188v-6.7h14.1v-20.5H216v20.5h55.3h0v6.7 M362.9,125.4v89.2h-11v-4.5h-51.6v4.7h-11v-89.4H362.9z
	 M351.9,131.6h-12c2.8,2.4,6.5,6.8,8.7,10.5l-4,2.7h5.6v6H335c0.3,7.5,0.8,14.1,1.5,19.7c1.8-4.8,3.3-10.1,4.4-16.2l7.9,2.9
	c-2.1,9.1-5.4,17.6-10,24.9c1.2,3.3,2.5,5.6,4.1,6.5c1.5,0.9,1.9-2.4,2.1-12.4h4.2c3.1,20.4-0.3,25.6-6.4,24.2
	c-4.4-1.1-7.7-4.8-10.2-10.2c-4.6,5-10.2,9.1-16.7,12l-2-4.2c6.9-4.6,12.1-9.5,16.2-15.3c-2.5-9-3.5-20.4-3.9-31.9h-24.6v-6h24.4
	c-0.1-3.7-0.2-7.4-0.2-11h8.9c0,3.8,0,7.5,0.1,11h6.3c-1.5-4-3.5-8-4.8-11l3-2.2h-39.1v72.3h51.6L351.9,131.6L351.9,131.6z
	 M303.2,196.4l-2.9-9.7c9-1.6,18.9-4.6,26-7.3l1.5,4.1C320.9,188.6,311.3,193.8,303.2,196.4z M410.5,191.3v12.6
	c0,10.9-10,14-23.5,5.9l1-4.6c9.9,1.5,11.8,0.6,11.8-4.3v-6c-6.2,1.9-12,3.4-16.3,4.2L381,188c5.4-0.5,12-1.5,18.8-2.7v-8.8l6,1.1
	c2.1-2.9,4-6.4,5.2-9h-7.5c-6.8,6.8-14.1,12.2-21.3,16.1l-2.3-4c4.4-3.3,9.1-7.3,13.7-12.1h-8.5v-5.8h13.6c1.9-2.2,3.7-4.6,5.4-7.2
	h-22.8v-6H396v-9.5h-11.5v-5.8H396v-11.4h10.6v11.4h8.7c1.3-3.2,2.4-6.6,3.4-10.2l10.1,4.3c-2.7,7.7-6.2,14.8-10.2,21.2h7.9v6h-12
	c-1.8,2.5-3.7,4.9-5.6,7.2h3.4l2.5-1.6l8.2,6c-2.6,3.8-7.7,9.1-12.4,12.6v3.5c5.2-1.1,10.2-2.4,14.5-3.6l1.5,4.6
	C422,186.8,416.4,189.2,410.5,191.3L410.5,191.3z M406.6,149.6h1.4c1.7-3,3.4-6.1,4.9-9.5h-6.3V149.6z M436.7,153.7
	c1,8.8,2.6,16,4.9,22c2.5-8,3.8-16.9,4.1-26.8h10.9c-0.6,13.8-3.3,26.8-9.3,38c4.5,6.5,10,11.4,16.5,15.9h0L456,215
	c-6-4.7-11.1-10.9-15-18.5c-6.1,7.5-14.4,13.7-25.4,18l-2-4.5c10.9-6.3,18.4-14,23.4-23.2c-2.3-7-3.8-14.8-4.5-23.5
	c-2.1,4.2-4.4,7.9-6.8,10.9l-3.4-2.7c5.9-12.2,9.1-31.4,10.6-49.2l11.8,2.1C442.9,134.6,440.4,144.5,436.7,153.7z M0,254.6v-5.8
	h79.7h0v5.8 M30,261.8H18.7l0-19.3H30 M61.1,261.8H49.8l0-19.3h11.3 M45.7,284.6L45.7,284.6h33.9v5.7H0.2v-5.7H34v-26.7h11.7
	 M5.7,270.2v-5.6h68.3v5.6 M11.4,294.3h56.9v29.3c0,9.6-7,14.7-24.4,7.2l0.7-4.7c12.3,1.6,12.1,0.3,12.1-5.7H23.1v14H11.4V294.3z
	 M23.1,300.1v4.6h33.5v-4.6H23.1z M56.6,315v-4.8H23.1v4.8H56.6z M156.8,269.3h-11.2v-26.8h11.2 M125.3,269.3H114v-26.8h11.3
	 M95.2,258.9v-6.5h80.2v6.4 M128.1,298.8c1-5.1,1.4-11,1.4-17.6v-0.5h-11.2v18.1H128.1L128.1,298.8z M174.3,298.8v6.3h-30.5
	c7.5,10.1,18.3,14.4,33.6,16.7h0l-5.3,13.4c-12.5-2.4-28.8-13.1-34.1-29.8c-5.1,16-17.6,26.1-41.6,30l-1.3-5
	c18.2-6,27.2-13.6,31.3-25.3H96.9v-6.3h10.3v-24.3h22.4v-11.9H141v11.9h11.4v6.2H141v2.8c0,5.5-0.4,10.6-1.3,15.3H174.3z
	 M255.2,318.8c5.4,2.2,10.3,4.5,14,6.5l-5.7,10.5c-9.4-6.9-20.3-13.4-33-19.7l1.2-4.2h-13.5v9.4c6.1-0.5,11.7-1.3,16.8-2.2l1.1,4.7
	c-10.2,4.8-27.1,8.7-38.1,10l-2.4-11.4c3.9,0,7.9-0.1,11.7-0.3v-28.8c-5.4,3.6-11.3,6.6-16.7,8.3l-1.6-4.7
	c9.3-4.7,17.7-11.9,22.9-19.5h-19.2v-5.9h32.3v-3.9H202v-5.5h22.9v-3.9h-27.3v-5.9H218c-2.6-2.7-5.5-5.6-8.1-7.8l1.9-4
	c4.3,1.2,10.5,4,15.1,7.2l-3.4,4.6h13.2c1.9-4.2,3.5-8.8,4.4-12.1l10.4,4c-2.3,3-5.3,5.9-8.1,8.1h20.5v5.9h-27.5v3.9h23.1v5.5h-23.1
	v3.9h33v5.9h-25c8.2,6.5,20.1,9.8,28.5,11.5l-5.1,11.6c-4-1-9.3-3.7-14.4-7.3v17.1c0.9-1.5,1.9-3.2,2.8-5.2l8.7,6.7
	C261.7,314.7,258.4,317,255.2,318.8z M229.4,287.5c-2.3-2.6-4.5-5-6.6-7l2-3.1h-0.6c-2.4,3.5-5.6,6.9-9.3,10.1H229.4z M242.7,293.2
	h-24.6v13h24.6V293.2z M226.9,277.4c3.8,1.4,7.6,3.6,11.4,6.3l-2.9,3.8h11.3c-3.4-3.1-6.3-6.6-8.3-10.1H226.9z M232.2,311.9
	c5.5,1.1,11.4,2.7,16.8,4.6c1.2-1.4,2.4-2.9,3.4-4.6H232.2z M352.8,332.9c-16.7-7.4-23.9-31.9-23.9-90.5h11.4
	c0,50.8,5.1,71.8,16.2,78.1c2.9,1.6,3.5-1.1,3.5-16.7h4.9C368.9,324.4,368.2,339.8,352.8,332.9z M304.1,267.6V280h21.5
	c-0.1,14.5-0.4,22.7-1,29.6c-0.9,9.4-10.4,12.6-21.7,4.5l1.1-4.9c8.6,1.9,9.6,1.1,9.9-2.9c0.4-4.8,0.5-10.6,0.6-20.1h-10.4
	c-0.1,27.3-5.7,40-16,49.3l-3.5-3.6c5.6-10,7.7-17.6,7.7-46.6v-24.4h73.8v6.7 M354,262c-3.4-5.4-7.8-12.3-10.9-16.6l3.4-3.8
	c5.6,3.4,11.6,8.3,16.1,13.2L354,262z M414.5,243H425l-0.2,91.1h-10.2L414.5,243z M399.8,279.6v55h-10.6v-39.8
	c-2.4,2.7-4.6,5.1-6.5,6.8l-3-3.5c7.1-9.8,14.1-25,18-39.7l9.7,4C405.1,268.8,402.7,274.8,399.8,279.6z M383.2,274.5l-3-3.4
	c6-8.7,10.1-19.8,12.4-29.1l10.4,4.3C398.3,257.2,390.6,268.2,383.2,274.5z M411.8,277.8c0.1,27.8-0.5,37-7.4,47.9l-3.7-2.3
	c3.5-9.7,3.2-18.5,3-45.6H411.8z M430.9,263.8c-1.1-5.2-2.9-12-4.4-16.6l3.6-2.1c3.8,4.1,7.2,10.2,9.1,14.9L430.9,263.8z
	 M427.5,307.5v-29.6h8.4v26.8c0,2.7,3,3.6,6.3,0.9l2.7,7c-3.3,3.2-8.3,3.3-12.7,2.6C427.9,314.5,427.5,310.7,427.5,307.5z
	 M462.2,273.4v6h-6.1v43.9c0,12.1-9.2,15-23.1,6.6l1.1-4.9c9.6,1.8,11.3,1.3,11.3-4.7v-40.9h-7.5v-6H462.2z M460.7,254h-22.1v-6.2
	h22.1V254z"/>
<defs>
  <linearGradient id="grad" gradientUnits="userSpaceOnUse">
    <stop stop-color="#FFE679"/>
    <stop offset="0.02" stop-color="#FDE276"/>
    <stop offset="0.33" stop-color="#E0B64E"/>
    <stop offset="0.61" stop-color="#CC9631"/>
    <stop offset="0.84" stop-color="#BF8320"/>
    <stop offset="1" stop-color="#BB7C1A"/>
  </linearGradient>
</defs>
<path fill="url(#paint0)" d="M170.6,52h-11.9v43h11.9V52z"/>
<path fill="url(#paint1)" d="M361,42.5h-35.4v5.7H361V42.5z"/>
<path fill="url(#paint2)" d="M422.1,15.9h-21.3v5.2h21.3V15.9z"/>
<path fill="url(#paint3)" d="M223.4,24.4h-32.2v6h32.2V24.4z"/>
<path fill="url(#paint4)" d="M131.6,152.8l-6.6,6.6l6.6,6.6l6.6-6.6L131.6,152.8z"/>
<path fill="url(#paint5)" d="M265,154.5h-60.5v6.3H265V154.5z"/>
<path fill="url(#paint6)" d="M324.3,178.3h-20.5v-22.2h20.5V178.3zM316.9,161.6h-5.5v11.3h5.5V161.6z"/>
<path fill="url(#paint7)" d="M461.1,142.8H433v6.1h28.1V142.8z"/>
<path fill="url(#paint8)" d="M69.7,274.5H10.1v5.6h59.6V274.5z"/>
<path fill="url(#paint9)" d="M163.6,274.5h-11.2v24.3h11.2V274.5z"/>
<path fill="url(#paint10)" d="M253.4,297h-35.4v5.1h35.4V297z"/>
<path fill="url(#paint11)" d="M310.3,333.7l-1.8-5.2c23.4-10,36.3-31.3,43.2-55.6l11.2,4.3C352,315.5,325.4,330.3,310.3,333.7z"/>
<path fill="url(#paint12)" d="M439.3,265.5h-38.5v6.1h38.5V265.5z"/>

<linearGradient id="paint0" x1="158.66" y1="0" x2="170.56" y2="0" xlink:href="#grad"/>
<linearGradient id="paint1" x1="325.59" y1="0" x2="361.02" y2="0" xlink:href="#grad"/>
<linearGradient id="paint2" x1="400.83" y1="0" x2="422.09" y2="0" xlink:href="#grad"/>
<linearGradient id="paint3" x1="191.19" y1="0" x2="223.36" y2="0" xlink:href="#grad"/>
<linearGradient id="paint4" x1="125" y1="0" x2="138.2" y2="0" xlink:href="#grad"/>
<linearGradient id="paint5" x1="218" y1="174.36" x2="251.42" y2="140.95" xlink:href="#grad"/>
<linearGradient id="paint6" x1="303.36" y1="177.89" x2="324.73" y2="156.52" xlink:href="#grad"/>
<linearGradient id="paint7" x1="438.46" y1="154.41" x2="455.57" y2="137.3" xlink:href="#grad"/>
<linearGradient id="paint8" x1="23.59" y1="293.6" x2="56.1901" y2="261" xlink:href="#grad"/>
<linearGradient id="paint9" x1="149.1" y1="295.52" x2="166.84" y2="277.78" xlink:href="#grad"/>
<linearGradient id="paint10" x1="225.65" y1="309.67" x2="245.87" y2="289.44" xlink:href="#grad"/>
<linearGradient id="paint11" x1="308.5" y1="0" x2="362.84" y2="0" xlink:href="#grad"/>
<linearGradient id="paint12" x1="400.74" y1="0" x2="439.26" y2="0" xlink:href="#grad"/>
<linearGradient id="light1" gradientUnits="userSpaceOnUse" x1="0" y1="50" x2="100" y2="0">
	<stop  offset="0" style="stop-color:#FFF0"/>
	<stop  offset="0.5" style="stop-color:#FFFF"/>
	<stop  offset="1" style="stop-color:#FFF0"/>
<animate attributeName="x1" from="-400" to="1400" dur="4s" repeatCount="indefinite" />
<animate attributeName="x2" from="-300" to="1500" dur="4s" repeatCount="indefinite" />
</linearGradient>
<path style="fill:url(#light1);stroke:url(#light1);" d="M170.6,52h-11.9v43h11.9V52z M361,42.5h-35.4v5.7H361V42.5z M422.1,15.9h-21.3v5.2h21.3V15.9z M223.4,24.4h-32.2v6h32.2
	V24.4z M131.6,152.8l-6.6,6.6l6.6,6.6l6.6-6.6L131.6,152.8z M265,154.5h-60.5v6.3H265V154.5z M324.3,178.3h-20.5v-22.2h20.5V178.3z
	 M316.9,161.6h-5.5v11.3h5.5V161.6z M461.1,142.8H433v6.1h28.1V142.8z M69.7,274.5H10.1v5.6h59.6V274.5z M163.6,274.5h-11.2v24.3
	h11.2V274.5z M253.4,297h-35.4v5.1h35.4V297z M310.3,333.7l-1.8-5.2c23.4-10,36.3-31.3,43.2-55.6l11.2,4.3
	C352,315.5,325.4,330.3,310.3,333.7z M439.3,265.5h-38.5v6.1h38.5V265.5z"/>
</svg>
