<svg viewBox="0 0 366 95" fill="#000" xmlns="http://www.w3.org/2000/svg" xmlns:xlink="http://www.w3.org/1999/xlink">
<path d="M2.8,33.4L0,29.3C7.2,20.6,11.7,11,15.2,0l10.5,4.9C20.9,15,12.5,26.9,2.8,33.4L2.8,33.4z M29.1,64l4.6,0.9
	c-0.1,9.3-1.3,19.2-3.8,25.5l-9.2-5.1v8.4H9.8V56c-2.2,2.1-4.5,4.1-6.8,5.8l-2.8-4.1c8.5-10.4,14.3-23.6,18.1-36.8l10.4,4.8
	c-1.9,5.2-4.6,10.9-8,16.3v42.1C24.5,78.9,27.2,72.3,29.1,64L29.1,64z M81.7,56.7H49.6c5.3,2.9,9.8,7.1,13.6,11.4l-7.1,7.5
	c-3.2-5.8-6.6-11-9.9-15.5l2.5-3.4H25v-6.2h56.7L81.7,56.7L81.7,56.7z M58.1,23H77v23.6H29.2V23h17.5V1.6h11.4V23z M67.9,70.8
	c4.5,15.9,1.2,20.4-6,20.9c-5.2,0.4-9.6,0.4-15.1,0.1c-8.1-0.5-10.5-2.1-10.5-10.4V62h10.2v15.3c0,3.1,0.7,4.2,3.7,4.4
	c2.8,0.3,6.9,0.3,10.1,0c2.7-0.3,3.4-1.6,3.2-10.9H67.9L67.9,70.8z M43.2,29.1h-4.7v11.5h4.7V29.1z M50.7,40.6h4.6V29.1h-4.6V40.6z
	 M62.9,40.6h4.7V29.1h-4.7V40.6z M84.1,83L75,87.5c-1.6-7.2-4.4-16.1-7-23.1l4.1-2.4C77,68,81.8,76.8,84.1,83L84.1,83z M173.9,4.8
	V94h-11v-4.5h-51.6v4.7h-11V4.8H173.9z M162.9,11h-12c2.8,2.4,6.5,6.8,8.7,10.5l-4,2.7h5.6v6H146c0.3,7.5,0.8,14.1,1.5,19.7
	c1.8-4.8,3.3-10.1,4.4-16.2l7.9,2.9c-2.1,9.1-5.4,17.6-10,24.9c1.2,3.3,2.4,5.6,4.1,6.5c1.5,0.9,1.9-2.4,2.1-12.4h4.2
	c3.1,20.4-0.3,25.6-6.4,24.2c-4.4-1.1-7.7-4.8-10.2-10.2c-4.6,5-10.2,9.1-16.7,12l-2-4.2c6.9-4.6,12.1-9.5,16.2-15.3
	c-2.4-9-3.4-20.4-3.9-31.9h-24.6v-6h24.4c-0.1-3.7-0.2-7.4-0.2-11h8.9c0,3.8,0,7.5,0.1,11h6.3c-1.5-4-3.4-8-4.8-11l3-2.2h-39.1v72.3
	h51.6L162.9,11L162.9,11z M114.2,75.8l-2.9-9.7c9-1.6,18.9-4.6,26-7.3l1.5,4.1C131.9,68,122.3,73.2,114.2,75.8z M227.5,45.2h40.9
	v39.4c0,10.5-9.5,13.1-21.6,6.3l0.9-4.8c8.8,1.2,10,0.9,10-4.7v-6.2h-19.5v19h-10.6V45.2z M228.7,27.7v-6h39.4v6 M226.8,15.6l0-6
	h44.3v6 M254.1,33.8h18.5v6h-47.7v-6h17.8h0l0-32.6h11.4 M204.4,30l-8.1,2.3c-0.7-7.9-1.9-15.9-3.2-22.4l4.1-1.5
	C200.1,13.8,202.9,22.3,204.4,30z M204.4,1.6H215v27c1.4-5.6,3-14.6,3.7-20.9l8.7,2.5c-2,7.3-5.9,16.4-9,21.6l-3.4-1.7v5.4h8.9v6.2
	H215v4.4c4.5,4.3,9.5,10.2,12.6,15.6l-7.5,5.7c-1.5-3.6-3.4-7.7-5.1-11.6v38.4h-10.6V63.9c-2.4,6.4-5.6,12.8-9.6,18l-3.5-3.2
	c4.6-9.2,8.7-21.9,11.5-37h-9v-6.2h10.6V1.6z M257.7,51.3h-19.5l0,18.1h19.5L257.7,51.3z M291,48.8h34v45h-11.1V86h-11.4v8.1H291
	L291,48.8L291,48.8z M313.9,79.9v-25h-11.4v25H313.9z M303.1,5.3h49.2v34.2h-49.2V5.3z M340,33.4v-22h-24.6v22H340z M331,48.8H365
	v45h-11.5V86H342v8.2H331V48.8z M353.6,79.9v-25H342v25H353.6z"/>
<defs>
  <linearGradient id="grad" gradientUnits="userSpaceOnUse">
    <stop stop-color="#FFE679"/>
    <stop offset="0.02" stop-color="#FDE276"/>
    <stop offset="0.33" stop-color="#E0B64E"/>
    <stop offset="0.61" stop-color="#CC9631"/>
    <stop offset="0.84" stop-color="#BF8320"/>
    <stop offset="1" stop-color="#BB7C1A"/>
  </linearGradient>
</defs>
<linearGradient id="paint0" x1="25.8" y1="0" x2="80.2" y2="0" xlink:href="#grad"/>
<linearGradient id="paint1" x1="114.8" y1="0" x2="135.3" y2="0" xlink:href="#grad"/>
<linearGradient id="paint2" x1="238.2" y1="0" x2="268.4" y2="0" xlink:href="#grad"/>
<linearGradient id="paint3" x1="318.5" y1="0" x2="336.9" y2="0" xlink:href="#grad"/>
<path fill="url(#paint0)" d="M80.2,10.9H25.8v6.2h54.4V10.9z"/>
<path fill="url(#paint1)" d="M135.3,57.7h-20.5V35.5h20.5V57.7zM127.8,41h-5.5v11.3h5.5V41z"/>
<path fill="url(#paint2)" d="M268.4,57.2h-30.3V63h30.3V57.2z"/>
<path fill="url(#paint3)" d="M327.7,13.2l-9.2,9.2l9.2,9.2l9.2-9.2L327.7,13.2z"/>
<linearGradient id="light1" gradientUnits="userSpaceOnUse" x1="0" y1="50" x2="100" y2="0">
	<stop  offset="0" style="stop-color:#FFF0"/>
	<stop  offset="0.5" style="stop-color:#FFFF"/>
	<stop  offset="1" style="stop-color:#FFF0"/>
<animate attributeName="x1" from="-400" to="1400" dur="4s" repeatCount="indefinite" />
<animate attributeName="x2" from="-300" to="1500" dur="4s" repeatCount="indefinite" />
</linearGradient>
<path style="fill:url(#light1);stroke:url(#light1);" d="M80.2,10.9H25.8v6.2h54.4V10.9z M135.3,57.7h-20.5V35.5h20.5V57.7z M127.8,41h-5.5v11.3h5.5V41z M268.4,57.2h-30.3V63h30.3
	V57.2z M327.7,13.2l-9.2,9.2l9.2,9.2l9.2-9.2L327.7,13.2z"/>
</svg>
