<svg viewBox="0 0 367 95" fill="#000" xmlns="http://www.w3.org/2000/svg" xmlns:xlink="http://www.w3.org/1999/xlink">
<path d="M29,7.4c-3,8.6-7.7,19.5-11.7,28.2h3.4l2.1-2l9.4,3.2c-2.3,21.6-9.1,44.6-29.7,56.9L0,89.6
	c8.7-7.4,19.5-23.6,21.1-48h-6.7L12,46.3l-9.4-2.5c4.7-9,9.5-20.6,12.9-30.4H2.2v-6 M79.1,90c-44.6,3.1-66.6-1-74.3-40.4L9.4,48
	C19.6,81.9,39,81.1,82.5,76.7 M78.7,11c-12.2,4.2-27.2,7.1-47.1,7.4l-0.5-5.2C45,11.6,63.2,5.4,71,0.7 M29,72.2V66h6.3V30h9.4v36
	h34.9v6.2 M62,41.2v-6.1h15.3v6.1 M117.2,93.7h-11.4V47c-2.5,3.5-5.2,6.7-8,9.4l-3.3-3.6c7.7-12.9,13.5-31,16.6-52.8l12.4,3
	c-1.5,8-3.7,15.5-6.3,22.4 M133.9,64v7.4H123V18.8h50.4l0,0v51.8h-11.1V64 M153.8,93.8h-11.6V1.6h11.6 M162.3,58V24.8h-28.4V58
	 M216,93.7h-10.8V56.5c-3.5,3.5-7.4,6.5-11.6,9.2l-2.4-4.3c13-11.7,19.2-25,22.1-35.7h-20v-6.1h20.6l2.4-2l9.1,4.9
	c-2.1,7-5,13.6-8.6,19.6c4.3,3.2,10.5,9.4,12.1,12.2l-7.4,6.8c-1.7-3.8-3.5-7.4-5.5-11 M266.5,59.7h-7.7v18.5
	c0.1,2.6,0.5,3.3,3.6,3.3c3.5,0,4-1.4,4.1-14.2h4.4c3.9,17.5,3.5,24.5-9.4,24.5l0,0c-12.1,0-13.3-2.5-13.3-10.3V59.7h-3.1
	c-1.2,18.9-9.3,28.4-25.8,34.5l-1.9-4.4c12.4-7.4,16.5-17.1,17.2-30.1h-6.9V6h38.8 M207.2,20.7c-1.9-4.9-5.2-12.7-7.7-17.2l3.4-3
	c4.4,3.4,9.8,9,13,13.6 M255.6,12.1h-17.4v41.4h17.4 M353.4,44.5v31h-12v2.8c0,3.8,0.6,4.2,10.7,4.2c7.9,0,8.8-0.1,8.2-13.1h4.4
	c4.9,21.6,1.6,22.8-13.3,22.8c-17.9,0-20.6-1.2-20.6-10c0,0,0-6.7,0-6.7h-5.5C321,86.8,310,93.2,289.1,94.4l-0.9-4.8
	c15.1-2.5,22.3-7.4,25.5-14.1h-12.5v-31 M342.3,61.7v-12h-30v12 M312.3,66.3v4.1h30v-4.1 M338,22.6c-5,5.6-13.2,11.2-20.2,13.1l0,0
	l-1.5-4c5.2-2.5,13.3-9,16.2-13.5 M334.4,36.1c-5.7-5.4-12.2-10.9-16-13.3l1.5-3.5c6.4,2.4,13.8,7.1,19,10.8 M334.4,20.2
	c-3.4-4-7.8-7.9-16.2-14.5l1.8-3.3c6.3,2.6,12.8,7.1,19.2,12.1 M338.5,5.2c-4.8,6-10.8,11.2-20.4,14.2l-1.2-3.6
	c7.5-3.8,12-9.2,16-14.9 M299.8,40.7v10.8l0,0h-10.2V34.7h6.9l-1.1-28.4l7.5,0.9c3-1.4,6.2-3.4,9.1-6.1l6.4,5.9
	c-4,2-8.6,3.1-12.9,3.7l0.2,4.2h9.9v5.3H306l0.1,4.2h9.9v5.3h-9.7l0.1,5h42.4l0.2-4.9h-9.4v-5.3h9.6l0.2-3.9h-9.5v-5.3h9.7l0.1-4.1
	h-10.1V5.7h9.5l1.7-2.1l9,2.6l-1.5,28.5h6.7v16.8h-10V40.7"/>
<defs>
  <linearGradient id="grad" gradientUnits="userSpaceOnUse">
    <stop stop-color="#FFE679"/>
    <stop offset="0.02" stop-color="#FDE276"/>
    <stop offset="0.33" stop-color="#E0B64E"/>
    <stop offset="0.61" stop-color="#CC9631"/>
    <stop offset="0.84" stop-color="#BF8320"/>
    <stop offset="1" stop-color="#BB7C1A"/>
  </linearGradient>
</defs>
<linearGradient id="paint0" x1="51.9" y1="0" x2="62.5" y2="0" xlink:href="#grad"/>
<linearGradient id="paint1" x1="133.8" y1="0" x2="173.4" y2="0" xlink:href="#grad"/>
<linearGradient id="paint3" x1="312.3" y1="0" x2="353.4" y2="0" xlink:href="#grad"/>
<linearGradient id="paint4" x1="238.12" y1="0" x2="266.3" y2="0" xlink:href="#grad"/>
<path fill="url(#paint0)" d="M62.5,72.3V12.7H51.9v59.6"/>
<path fill="url(#paint1)" d="M133.9,43.6h39.5v-5.9h-39.5"/>
<path fill="url(#paint3)" d="M312.3,57.9h41.1v-4.6h-41.1"/>
<path fill="url(#paint4)" d="M238.1,27.9h28.2V22h-28.2 M238.1,43.6h28.2v-5.9h-28.2"/>
<linearGradient id="light1" gradientUnits="userSpaceOnUse" x1="0" y1="50" x2="100" y2="0">
	<stop  offset="0" style="stop-color:#FFF0"/>
	<stop  offset="0.5" style="stop-color:#FFFF"/>
	<stop  offset="1" style="stop-color:#FFF0"/>
<animate attributeName="x1" from="-400" to="1400" dur="4s" repeatCount="indefinite" />
<animate attributeName="x2" from="-300" to="1500" dur="4s" repeatCount="indefinite" />
</linearGradient>
<path style="fill:url(#light1);stroke:url(#light1);" d="M62.5,72.3V12.7H51.9v59.6 M133.9,43.6h39.5v-5.9h-39.5 M312.3,57.9h41.1v-4.6h-41.1 M238.1,27.9h28.2V22h-28.2 M238.1,43.6h28.2v-5.9h-28.2"/>
</svg>
