<svg xmlns="http://www.w3.org/2000/svg" xmlns:xlink="http://www.w3.org/1999/xlink" viewBox="0 0 1920 889">
<defs>
    <filter id="f1" x="0" y="0" width="200%" height="200%">
      <feOffset result="offOut" in="SourceGraphic" dx="-10" dy="15" />
      <feColorMatrix result="matrixOut" in="offOut" type="matrix"
      values=".6 0 0 .2 0    
             0 .6 0 0 .2   
             .1 0 .6 0 0   
             0 0 0 .8 0" />
      <feGaussianBlur result="blurOut" in="matrixOut" stdDeviation="20" />
      <feBlend in="SourceGraphic" in2="blurOut" mode="normal" />
    </filter>
<linearGradient id="r1" gradientUnits="userSpaceOnUse" x1="2046.5635" y1="958.3674" x2="-206.0718" y2="-213.2794" gradientTransform="matrix(1 0 0 -1 0 890)">
	<stop  offset="0" style="stop-color:#C59757"/>
	<stop  offset="0.13" style="stop-color:#E2C377"/>
	<stop  offset="0.21" style="stop-color:#FAF0C9"/>
	<stop  offset="0.35" style="stop-color:#FAF0C9"/>
	<stop  offset="0.53" style="stop-color:#E2C377"/>
	<stop  offset="0.57" style="stop-color:#E7CD8A"/>
	<stop  offset="0.66" style="stop-color:#F1E0AC"/>
	<stop  offset="0.73" style="stop-color:#F7EBC1"/>
	<stop  offset="0.78" style="stop-color:#FAF0C9"/>
	<stop  offset="1" style="stop-color:#E2C377"/>
</linearGradient>
	<linearGradient id="light1" gradientUnits="userSpaceOnUse" x1="-230" y1="1072" x2="470" y2="780">
		<stop  offset="0" style="stop-color:#FFF0"/>
		<stop  offset="0.5" style="stop-color:#FFFF"/>
		<stop  offset="1" style="stop-color:#FFF0"/>
		<animate
		attributeName="x1" from="-1000" to="3000"
		dur="4s" repeatCount="indefinite" />
		<animate
		attributeName="x2" from="-300" to="3700"
		dur="4s" repeatCount="indefinite" />
	</linearGradient>
<path id="p00" fill="none" d="M2237.5,413.3c-144.3,67.7-285.8,141-443.8,191.9c-177.9,57.3-369.1,81.4-522.8,65.9
	c-107-10.8-194.1-39.7-281.6-67c-87.5-27.4-178.4-53.9-290.1-59.6C416,529.9,180.1,673.7-63.1,795.4
	c-92.5,46.2-173.8,74.3-254.8,92.6 M2227.8,387.5c-82.5,35.2-165.1,74.5-248.2,112c-67.9,30.6-136,60.3-207,85
	c-99,34.4-202.5,57.3-301.7,69c-73,8.7-143.9,11-208.7,6c-23.2-1.8-45.6-4.4-67.3-7.8c-77.7-12.1-146-33.6-213.5-54.7
	c-7.9-2.5-15.8-4.9-23.7-7.4c-78.8-24.4-160.6-47.3-259.2-53.6C424,518.8,188.6,653.8-53.3,771.2c-91.2,44.5-171.9,72.2-252.1,91.1
	 M2218.1,361.8c-85.5,33.1-172.1,72.7-257.5,111.7c-69.6,31.8-138.1,63.7-209.3,90.2c-95.5,35.6-195.7,59.5-292.4,73.3
	c-71.2,10.2-141.1,14.3-205.5,10.9c-23.1-1.2-45.5-3.3-67.2-6.2c-77.8-10.3-146.2-30.9-212.8-51.9c-7.8-2.4-15.5-4.9-23.3-7.3
	c-77.3-24.2-156.6-47.7-252.4-55C432,507.7,196.7,633.5-43.5,747c-90.1,42.5-170.1,70-249.4,89.6 M2208.4,336
	c-88.6,31.1-179.2,70.9-266.8,111.4c-71.4,33-140.1,67.1-211.6,95.5c-92,36.7-188.9,61.8-283.2,77.6
	c-69.4,11.6-138.2,17.5-202.4,15.8c-23-0.6-45.4-2.2-67.1-4.5c-77.9-8.6-146.4-28.3-212.2-49c-7.7-2.4-15.3-4.8-23-7.3
	c-75.9-24.1-152.4-48.2-245.6-56.4c-256.1-23-491.5,94.4-730.3,203.7c-88.9,40.7-168.2,67.9-246.7,88.1 M2198.7,310.2
	c-91.7,29-186.2,69.1-276.1,111.1c-73.2,34.1-142.2,70.3-213.8,100.8c-88.5,37.6-182.1,64-273.9,81.8
	c-67.6,13.1-135.4,20.8-199.2,20.7c-22.9,0-45.2-1-67-2.9c-78-6.8-146.6-25.7-211.6-46.2c-7.6-2.4-15.1-4.8-22.6-7.2
	c-74.5-23.9-148.4-48.5-238.7-57.9c-247.2-25.5-482.4,83-719.8,188.2c-87.7,38.9-166.4,65.8-244,86.6 M2189,284.4
	c-94.7,27-193.3,67.4-285.3,110.8c-75,35.3-144.2,73.5-216.1,106.1c-85,38.5-175.3,66.2-264.7,86.1c-65.7,14.6-132.6,24.1-196,25.6
	c-22.8,0.6-45.1,0.1-66.9-1.3c-78.1-5-146.7-23.1-210.9-43.3c-7.5-2.4-14.9-4.8-22.3-7.2c-73-23.7-144.3-48.9-231.9-59.3
	c-238.2-28.2-473.1,71.3-709.1,172.4c-86.4,37-164.5,63.7-241.3,85.1 M2179.3,258.7c-97.8,24.9-200.3,65.6-294.6,110.5
	c-76.7,36.5-146.3,76.7-218.3,111.3c-81.6,39.2-168.5,68.5-255.4,90.4c-63.9,16.1-129.8,27.4-192.8,30.5
	c-22.7,1.2-44.9,1.3-66.8,0.4c-78.2-3.3-146.9-20.5-210.2-40.5c-7.4-2.3-14.7-4.7-22-7.1c-71.6-23.6-140.3-49.3-225.1-60.7
	c-229.3-31-463.9,59.7-698.5,156.7C-89.6,685.4-167,711.8-243,733.8 M2169.6,232.9c-100.8,22.8-207.4,63.8-303.9,110.2
	c-78.5,37.7-148.4,79.7-220.6,116.6c-78.2,39.9-161.7,70.7-246.2,94.7c-62.1,17.6-127,30.6-189.7,35.4c-22.6,1.7-44.8,2.4-66.7,2
	c-78.2-1.5-147.1-17.9-209.6-37.7c-7.3-2.3-14.5-4.6-21.6-7c-70.2-23.4-136.2-49.6-218.2-62.1C472.9,451.4,238.7,533.2,5.4,626
	c-83.9,33.4-160.8,59.5-235.9,82.2 M2159.9,207.1c-103.9,20.8-214.4,62-313.2,109.9c-80.3,38.9-150.5,82.7-222.9,121.9
	c-75,40.5-154.9,73-236.9,98.9c-60.3,19.1-124.2,33.9-186.5,40.3c-22.4,2.3-44.7,3.6-66.6,3.7c-78.3,0.3-147.3-15.3-209-34.8
	c-7.2-2.3-14.2-4.6-21.2-7c-68.7-23.2-132.2-50-211.4-63.5C481,440.3,247.1,513.2,15.1,601.8c-82.7,31.6-158.9,57.4-233.2,80.7
	 M2150.2,181.4c-106.9,18.7-221.5,60.3-322.4,109.6c-82,40.1-152.8,85.7-225.1,127.1c-71.8,41.1-148.1,75.2-227.7,103.2
	c-58.5,20.5-121.3,37.2-183.3,45.2c-22.3,2.9-44.5,4.7-66.5,5.3c-78.4,2-147.5-12.6-208.3-32c-7.1-2.2-14-4.6-20.9-6.9
	c-67.3-23-128.2-50.3-204.6-64.9C489,429.2,255.6,493.2,25,577.6c-81.4,29.8-157.1,55.3-230.6,79.2 M2140.5,155.6
	c-110,16.6-228.6,58.5-331.7,109.3c-83.8,41.3-155.2,88.6-227.4,132.4c-68.7,41.7-141.3,77.5-218.4,107.5
	c-56.7,22-118.5,40.5-180.1,50.1c-22.2,3.5-44.4,5.9-66.4,6.9c-78.5,3.8-147.7-10-207.7-29.1c-7-2.2-13.8-4.5-20.6-6.9
	c-65.9-22.9-124.2-50.6-197.8-66.4C497,418.1,264.2,473.2,34.7,553.3c-80.1,28-155.2,53.2-227.9,77.7 M2130.9,129.8
	c-113.1,14.6-235.6,56.7-341,109c-85.6,42.5-157.7,91.5-229.7,137.7c-65.7,42.2-134.5,79.7-209.2,111.7
	c-54.9,23.5-115.7,43.8-177,55c-22.1,4.1-44.2,7-66.3,8.6c-78.6,5.6-147.9-7.4-207-26.3c-6.9-2.2-13.6-4.5-20.2-6.8
	c-64.5-22.7-120.2-51-190.9-67.8C505,407,272.7,453.4,44.5,529.2c-78.8,26.2-153.4,51-225.2,76.2 M2121.1,104.1
	c-116.1,12.5-242.6,54.9-350.2,108.7c-87.3,43.7-160.3,94.4-231.9,142.9c-62.8,42.7-127.7,82-199.9,116
	c-53.1,25-112.9,47-173.8,59.9c-22,4.7-44.1,8.2-66.2,10.2c-78.7,7.3-148.1-4.8-206.4-23.4c-6.8-2.2-13.4-4.4-19.9-6.7
	c-63-22.5-116.2-51.3-184.1-69.2c-175.8-46.4-407.5-9-634.5,62.5c-77.5,24.4-151.5,48.9-222.5,74.7 M2111.5,78.3
	c-119.2,10.5-249.7,53.1-359.5,108.4c-89.1,44.8-163.1,97.2-234.2,148.2c-60.1,43.2-120.9,84.2-190.6,120.3
	c-51.3,26.5-110.1,50.3-170.6,64.8c-21.9,5.2-44,9.3-66.1,11.9c-78.8,9.1-148.3-2.2-205.7-20.6c-6.7-2.1-13.2-4.4-19.5-6.7
	C803.6,482.2,753,453,687.9,434c-167.1-49-398.1-20.4-623.8,46.8c-76.2,22.7-149.6,46.8-219.8,73.2 M2101.8,52.5
	c-122.2,8.4-256.8,51.4-368.8,108.1c-90.9,46-166.1,100.1-236.4,153.5c-57.5,43.7-114.1,86.4-181.4,124.5
	c-49.5,28-107.2,53.6-167.4,69.7c-21.8,5.8-43.8,10.4-66,13.5c-78.9,10.9-148.5,0.4-205.1-17.8c-6.6-2.1-13-4.3-19.2-6.6
	c-60.1-22.2-108.3-51.9-170.4-72C528.7,374,298.4,393.9,73.8,456.6C-1.1,477.5-74,501.3-143.3,528.3 M2092.1,26.8
	c-125.3,6.3-263.8,49.6-378.1,107.8c-92.7,47.2-169.3,102.9-238.7,158.8c-55,44.2-107.2,88.7-172.1,128.8
	c-47.7,29.5-104.4,56.9-164.2,74.6c-21.7,6.4-43.7,11.6-65.9,15.1c-79,12.6-148.7,3-204.4-14.9c-6.5-2.1-12.7-4.3-18.8-6.5
	c-58.7-22-104.5-52.1-163.6-73.5c-150-53.7-379.3-42.8-602.5,15.4C10,451.6-62.3,475-130.8,502.6 M2082.4,1
	C1954,5.3,1811.5,48.8,1695,108.5c-94.4,48.4-172.6,105.8-241,164c-52.5,44.8-100.4,90.9-162.9,133.1
	c-62.4,42.2-143.3,81-226.9,96.2c-88.2,16.1-165,3.3-222.2-18.6c-57.3-21.9-100.5-52.4-156.8-74.9
	c-187.1-74.7-528.5-46.3-803.6,68.4"/>

<g id="p01">
	
		<linearGradient id="p01_1" gradientUnits="userSpaceOnUse" x1="-29.3858" y1="417.3342" x2="1814.6257" y2="417.3342" gradientTransform="matrix(0.9986 5.233653e-02 5.233653e-02 -0.9986 13.0761 933.6902)">
		<stop  offset="4.278075e-02" style="stop-color:#E3C477"/>
		<stop  offset="0.1788" style="stop-color:#A67219"/>
		<stop  offset="0.2895" style="stop-color:#E3C477"/>
		<stop  offset="0.3893" style="stop-color:#FBF1CA"/>
		<stop  offset="0.4686" style="stop-color:#E3C477"/>
		<stop  offset="0.5544" style="stop-color:#A67219"/>
		<stop  offset="0.694" style="stop-color:#E3C477"/>
		<stop  offset="0.8128" style="stop-color:#FBF1CA"/>
		<stop  offset="0.9412" style="stop-color:#E3C477"/>
	</linearGradient>
	<path style="fill:url(#p01_1);" d="M1846,632.3
		c-233.3-55.7-357-150.6-687.2-142.1c-419.4,10.9-496.2,129.2-734,168.3c-124.7,20.5-270.9,3.2-395-26.4L0,621.7
		c123.8,33.4,268.7,43.5,394.9,27.4c208.2-26.6,292.4-192.5,736.1-207.8c337.6-11.7,452.3,117.6,685.2,180.6L1846,632.3z"/>
	
		<linearGradient id="p01_2" gradientUnits="userSpaceOnUse" x1="-29.3855" y1="400.9467" x2="1814.626" y2="400.9467" gradientTransform="matrix(0.9986 5.233653e-02 5.233653e-02 -0.9986 13.0761 933.6902)">
		<stop  offset="0.1471" style="stop-color:#E3C477"/>
		<stop  offset="0.4583" style="stop-color:#FBF1CA"/>
		<stop  offset="0.5856" style="stop-color:#E3C477"/>
		<stop  offset="0.7861" style="stop-color:#FBF1CA"/>
		<stop  offset="0.9445" style="stop-color:#E3C477"/>
	</linearGradient>
	<path style="opacity:0.7;fill:url(#p01_2);" d="M1158.8,475.3
		c-429.4,11.8-505.9,140.8-734,180.6c-65.5,11.4-136.9,12.9-207.8,7.3c71,6.4,142.4,6,207.8-4.7c237.8-39.1,314.7-157.4,734-168.3
		c330.2-8.6,453.9,86.4,687.2,142.1l-1.8-0.6C1602.7,570.1,1478.2,466.5,1158.8,475.3z"/>
</g>
<g id="l_1" filter="url(#f1)">
<use xlink:href="#p01" x="-200" />
<use xlink:href="#p01" x="1615" />
<use xlink:href="#p01" x="3430" />
</g>
</defs>
<use xlink:href="#p00" stroke="url(#r1)" />
<use xlink:href="#p00" stroke="url(#light1)" />
<use xlink:href="#l_1" x="-200" y="20" transform="rotate(-3, 908, 300)">
	<animate
      attributeName="x" from="-1815" to="0"
      dur="10s" repeatCount="indefinite" />
</use>
</svg>
