<svg xmlns="http://www.w3.org/2000/svg" viewBox="0 0 289.24 89.38"><defs><style>.cls-1{fill:#231815;}</style></defs><g id="圖層_2" data-name="圖層 2"><g id="圖層_1-2" data-name="圖層 1"><path class="cls-1" d="M2.77,12.72V1.8L6.25.17l.27.52L3.39,2.16v10.2l3.13,1.47-.27.52Z"/><path class="cls-1" d="M15,4.66c.54,2.91,2.32,5.9,6.58,7.74v.18A1.89,1.89,0,0,0,20,14.28c-3.44-2.18-4.62-5.81-5.07-8.87a11.12,11.12,0,0,1-1.55,4.46c4.14,1.44,2.34,4.6.71,3.13a6.67,6.67,0,0,0-.95-2.79,12.32,12.32,0,0,1-5.55,4.11l-.15-.22a11.44,11.44,0,0,0,5.67-9.44H7.8l-.13-.42h5.44c.09-1.29.07-2.61.07-3.95l2.51.25c0,.21-.17.36-.54.42,0,1.11-.06,2.2-.15,3.28h3.24l1.09-1.38s1.23.93,2,1.56c0,.17-.21.24-.43.24Z"/><path class="cls-1" d="M34.63,6.87s1.19.87,1.91,1.48c0,.17-.21.24-.44.24H30.34v5.19c0,.12-.57.51-1.5.51h-.33V8.59H22.57l-.12-.42h6.06V1.9H23.25l-.14-.43H33L34,.19s1.17.87,1.9,1.47c0,.17-.21.24-.43.24H30.34V8.17h3.24ZM24.51,2.74c4.35,2.12,2.59,5.63.94,4.05a10.73,10.73,0,0,0-1.11-4Zm6.78,4.55a34.2,34.2,0,0,0,1.57-4.61l2.33.86c-.06.16-.24.3-.59.27a14.54,14.54,0,0,1-3.15,3.57Z"/><path class="cls-1" d="M37.5,4c4.06.16,2.91,3.24,1.33,2.26a4.91,4.91,0,0,0-1.44-2.16Zm5-1.46c-.63,1.95-1.79,5.55-2,6.41a6.54,6.54,0,0,0-.24,1.48c0,.78.65,1.29.59,2.61a1.22,1.22,0,0,1-1.28,1.25c-.36,0-.7-.21-.81-.78.26-1.55.18-2.88-.16-3.12a1.34,1.34,0,0,0-.78-.24V9.88h.69c.22,0,.28,0,.43-.31.36-.6.36-.6,3.33-7.07ZM38.7.53c4.18.16,3.12,3.29,1.45,2.38A6.17,6.17,0,0,0,38.58.63ZM49.89,8.77s1.06.89,1.69,1.49c0,.16-.19.24-.4.24H47.34v3.31c0,.11-.56.47-1.47.47h-.33V10.5H41.73l-.12-.44h3.93V7.24h-3l-.12-.43h3.12V4.12H42.28l-.12-.42h4.58A29,29,0,0,0,47.83.18l2.4.69c-.06.16-.21.3-.55.28A22.67,22.67,0,0,1,47.13,3.7h1.69l.93-1.18s1,.82,1.67,1.36c-.05.17-.2.24-.42.24H47.34V6.81h1.21l.89-1.22s1,.84,1.6,1.41c0,.17-.19.24-.4.24h-3.3v2.82h1.6ZM43.11.3c4.14,1,2.58,4.11,1,2.85A6.18,6.18,0,0,0,43,.39Z"/><path class="cls-1" d="M57.93,6.6c-.11.16-.24.21-.57.25A12,12,0,0,1,56,11.14c1.63.89,3.87,1.08,7,1.08h3.54v.18a1.44,1.44,0,0,0-1.06,1.47H62.85c-3.48,0-5.84-.36-7.49-1.82a7.93,7.93,0,0,1-2.94,2.24l-.1-.18a7.18,7.18,0,0,0,2.29-2.85A10.77,10.77,0,0,1,53,7.51l.17-.09a7.27,7.27,0,0,0,1.84,3,15.2,15.2,0,0,0,.75-3.76h-.9l-.52.54-1.47-1a1.56,1.56,0,0,1,.54-.31,38.67,38.67,0,0,0,1.69-3.72H52.57l-.13-.44h2.61L55.8,1l1.5,1.34a1,1,0,0,1-.65.24c-.4.93-1.17,2.55-1.71,3.6h.66l.83-.85ZM65.5,2.67s.83.82,1.25,1.35a.37.37,0,0,1-.39.24H64.68V6.33a2.5,2.5,0,0,1-1.37.4h-.25V6.22H61.72V7.75h1.43L64,6.64s1,.75,1.54,1.29c0,.17-.18.24-.4.24H61.72V9.73h1.8l.95-1.18s1.08.79,1.74,1.38a.4.4,0,0,1-.42.24H61.72v1.39c0,.14-.69.45-1.35.45H60V10.17H57l-.12-.44H60V8.17H57.67l-.12-.42H60V6.22H57.85l-.13-.43H60V4.26h-3.3l-.12-.44H60V2.31H57.7l-.13-.42H60V.24l2.24.21c0,.22-.15.37-.56.44v1h1.19l.75-.81,1.6,1.2a1.15,1.15,0,0,1-.58.3V3.82h.1ZM61.72,3.82h1.34V2.31H61.72Zm1.34.44H61.72V5.79h1.34Z"/><path class="cls-1" d="M72.64,2.16s.86.67,1.38,1.17c0,.16-.19.24-.4.24H67.56l-.12-.44h4.45Zm3.27.33a4.5,4.5,0,0,1-2.79,4.42l.29.27c0,.17-.2.24-.41.24H68.17L68.05,7h3.3l.72-.92.84.68a5.82,5.82,0,0,0,1.43-4.26V.63l1.84.67h1.28l.79-.85,1.46,1.2a.91.91,0,0,1-.54.22V4.35c0,.15,0,.21.24.21h.78l.31,0,.35-.06H81l.06,0c.36.18.5.33.5.63,0,.6-.51.93-2,.93h-.72c-1.13,0-1.26-.32-1.26-1.29v-3h-1.7ZM71.35,5.05l.72-.94s.81.66,1.32,1.14c0,.16-.19.24-.4.24h-4.8l-.12-.44Zm.12,8.49v-.81H69.78v.9c0,.15-.66.5-1.31.5h-.22V8.31L69.84,9h1.5l.72-.76,1.53,1.14a1.11,1.11,0,0,1-.57.28v3.48a2.17,2.17,0,0,1-1.29.45ZM69,.43c4,.2,2.54,3.2.95,2.15a4.28,4.28,0,0,0-1-2Zm2.43,11.88V9.37H69.78v2.94Zm9.2-4.68c-.11.15-.27.2-.63.23a10.19,10.19,0,0,1-2.21,3.34,12.69,12.69,0,0,0,3.75,1.29v.17a1.93,1.93,0,0,0-1.43,1.48,9.53,9.53,0,0,1-3.4-2,13,13,0,0,1-4.95,2.13l-.09-.19A11.66,11.66,0,0,0,76,11.28a9.55,9.55,0,0,1-1.61-3.71h-.72l-.13-.43h4.62l1-.92Zm-6-.06a6.41,6.41,0,0,0,2,2.87,9.59,9.59,0,0,0,1.5-2.87Z"/><path class="cls-1" d="M82.42,13.83l3.14-1.49V2.17L82.42.69l.27-.52L86.17,1.8V12.72l-3.48,1.63Z"/><path class="cls-1" d="M96.85,9.12l1.64,1.21a1,1,0,0,1-.59.32v3a2.9,2.9,0,0,1-1.38.38h-.27v-.92H93.58v.68c0,.1-.48.45-1.29.45H92V11.62a6.23,6.23,0,0,1-2,2.22l-.15-.15c1.38-2,1.5-4.62,1.5-6.69V4.72a11.07,11.07,0,0,1-1.51.92l-.12-.14A14.2,14.2,0,0,0,93.13.15l2.43.5C95.5.82,95.37.91,95,1c5.13.93,3.34,4,2,3a5.9,5.9,0,0,0-2.13-2.82,13.49,13.49,0,0,1-2,2.42h1.8l.75-1s.87.66,1.4,1.14a.38.38,0,0,1-.41.24H92.68l-.06-.23c-.28.26-.58.51-.88.74l1.5.55H96l.76-.84L98.37,5.4a1.22,1.22,0,0,1-.62.33v3a2.81,2.81,0,0,1-1.36.39h-.27V8.65H92.89c0,.3-.07.6-.13.92l1,.39H96.1Zm-.73-.89V7.06H93c0,.36,0,.75,0,1.17ZM93,5.44v1.2h3.14V5.44Zm3.27,7.25V10.38H93.58v2.31Zm4.32-2.1c0,.16-.66.46-1.23.46h-.28V1.45l2,.2c0,.19-.15.33-.51.39ZM104,.67c0,.23-.2.38-.56.42V12.3c0,1.17-.24,1.83-2.11,2a2.1,2.1,0,0,0-.35-1.19,1.93,1.93,0,0,0-1.27-.55v-.21s1.48.09,1.8.09.31-.08.31-.27V.45Z"/><path class="cls-1" d="M117.13,11.47s1.23.92,2,1.55c0,.16-.21.24-.44.24H105l-.12-.42h7.61a79.24,79.24,0,0,0,2-8l2.58.68a.54.54,0,0,1-.59.31,44.26,44.26,0,0,1-3.51,7h3.14Zm-11.5-7.42-.14-.44h10.13l1-1.33s1.2.9,1.92,1.53c0,.16-.21.24-.42.24Zm2.05.93c4.73,4,3.36,8.58,1.41,6.7A21.36,21.36,0,0,0,107.49,5ZM110.23.22c4.49.86,3,4.17,1.26,2.93A7.08,7.08,0,0,0,110.11.3Z"/><path class="cls-1" d="M126.91,6.31a1,1,0,0,1-.63.29c-.12,4.63-.39,6.28-1.15,7a2.51,2.51,0,0,1-1.76.6,1.9,1.9,0,0,0-.22-1.12,1.72,1.72,0,0,0-1-.53v-.21c.39,0,1,.08,1.33.08a.61.61,0,0,0,.47-.17c.4-.37.6-2.1.72-5.89h-1.34c-.27,3.07-1,6-3.45,8l-.13-.14c1.78-3,1.93-6.85,1.81-10.47h-1.51l-.12-.42H125l.88-1.18s1,.81,1.62,1.36c0,.17-.21.24-.42.24h-3.66q0,1.08-.09,2.16h1.16L125.4,5ZM122,.26c4.11.75,2.55,3.83,1,2.62A5.12,5.12,0,0,0,121.9.34Zm12.19,5.3,0,.21A2.13,2.13,0,0,0,133,7.27a13.06,13.06,0,0,1-2.31-5.59,13.85,13.85,0,0,1-4.14,5.82l-.15-.12A18.31,18.31,0,0,0,129,.18l2.42.55c-.05.21-.2.32-.6.36A8.35,8.35,0,0,0,134.23,5.56Zm-7,4.34c6.92.87,6.26,5,4.13,4.14a14.24,14.24,0,0,0-4.23-4Zm1.26-3.83c4.37.09,3.53,3.24,1.83,2.46a8,8,0,0,0-2-2.35Z"/><path class="cls-1" d="M142.17,12.49V13h-6.44v-.47l2.22-.27c0-.93.05-1.86.05-2.79V3.34l-1.95.2V3l3.78-.9.21.17L140,4.66V9.43c0,.93,0,1.86,0,2.79Z"/><path class="cls-1" d="M144.7,12.82c2.7-.91,4.07-2.4,4.47-4.74a3.16,3.16,0,0,1-2.1.69,3.09,3.09,0,0,1-3.28-3.28A3.43,3.43,0,0,1,147.51,2c2.41,0,3.82,1.68,3.82,4.47,0,3.33-2.38,5.93-6.51,6.78Zm4.55-5.28a10.9,10.9,0,0,0,.06-1.17c0-2.76-.74-3.81-1.8-3.81s-1.74.86-1.74,2.69.81,2.79,2,2.79A2.21,2.21,0,0,0,149.25,7.54Z"/><path class="cls-1" d="M159.58,2.4c-2.92.69-4.56,2.44-4.9,4.93a3.42,3.42,0,0,1,2.44-1c1.89,0,3,1.33,3,3.3a3.4,3.4,0,0,1-3.66,3.54c-2.38,0-3.9-1.68-3.9-4.55,0-3.39,2.7-6.19,6.9-6.63Zm-1.41,7.39c0-1.72-.63-2.59-1.75-2.59a2.52,2.52,0,0,0-1.8.67,4.18,4.18,0,0,0,0,.5c0,2.92.74,4.27,1.92,4.27C157.47,12.64,158.17,11.77,158.17,9.79Z"/><path class="cls-1" d="M168.58,2.26v1L164.76,13h-1.85l-.15-.15,4.86-9h-6V2.26Z"/><path class="cls-1" d="M182.17,8.73s1.16.88,1.89,1.5c0,.16-.21.24-.43.24H179v3.3c0,.12-.55.51-1.54.51h-.36V10.47h-6.95L170,10h2.55V5.19l2.07.78h2.45V3h-2.78a13.23,13.23,0,0,1-4.17,3.68L170,6.55A19.86,19.86,0,0,0,173.61,0l2.47.94c-.07.18-.28.3-.63.27a12.88,12.88,0,0,1-.87,1.38h6.21l1-1.29s1.14.84,1.89,1.47c-.05.17-.21.24-.44.24H179V6h1.5l1-1.22s1.11.83,1.77,1.4c-.05.16-.21.24-.44.24H179V10h2.16ZM177.06,10V6.39h-2.64V10Z"/><path class="cls-1" d="M187,9a3,3,0,0,0,1.61-2c-.84-.33-1.49-.72-1.49-1.47a1.13,1.13,0,0,1,1.19-1.14c.72,0,1.27.54,1.27,1.53a3.9,3.9,0,0,1-2.32,3.6Z"/><path class="cls-1" d="M9.16,34.87v-.44H7.51A14,14,0,0,1,6.37,35.6H10l.8-.85L12.48,36a.88.88,0,0,1-.56.3v2.43a2.58,2.58,0,0,1-1.45.46h-.29v-.73H3.58v.33c0,.15-.78.51-1.45.51H1.89V34.9l1.8.7H5.56c.08-.36.17-.81.23-1.17h-1v.2a2.19,2.19,0,0,1-1.47.49H3V31.34l1.81.71H9l.77-.81,1.39,1.05c.11-.41.23-.92.32-1.35H2.41a2.13,2.13,0,0,1-.87,2,.93.93,0,0,1-1.36-.39A1,1,0,0,1,.79,31.4,2.19,2.19,0,0,0,1.9,30.05a8.89,8.89,0,0,1-1.27.44l-.15-.21c2.64-1.19,2.61-2.81,2.64-5l2,.16c0,.18-.15.33-.47.38a13.66,13.66,0,0,1-.13,1.36,12.57,12.57,0,0,0,1.24-1.45l1.38,1.15a.53.53,0,0,1-.64.06,11.45,11.45,0,0,1-2.15.83,2.64,2.64,0,0,1-.1.3c3.19.13,2.67,2.53,1.29,2A6,6,0,0,0,4,28.54a4,4,0,0,1-1.74,1.38,4.07,4.07,0,0,1,.14.58H6.75l-.14-.18c2.57-1.23,2.52-2.86,2.54-5.05l2.07.16c0,.2-.17.34-.48.38a10.9,10.9,0,0,1-.15,1.47,13.25,13.25,0,0,0,1.2-1.43L13.17,27a.58.58,0,0,1-.66.06,12.21,12.21,0,0,1-2.1.83l-.14.31c1.89.06,2.46,1,2.33,1.55L14,31.12c-.12.12-.27.15-.59.18a12,12,0,0,1-2,1.15,1,1,0,0,1-.48.23v1.78a2.76,2.76,0,0,1-1.42.41ZM.78,26.18C4,26.47,3,28.81,1.72,28A4.2,4.2,0,0,0,.64,26.27ZM3.58,36v2h6.6V36Zm5.58-2V32.47H4.74V34ZM6.85,26.26c3.21.33,2.13,2.65.89,1.83a4.13,4.13,0,0,0-1-1.73Zm4.59,4.24.26-.25-.14-.05A6.32,6.32,0,0,0,10,28.67,5.46,5.46,0,0,1,6.82,30.5Z"/><path class="cls-1" d="M20.79,32.75c-.1.14-.24.18-.57.2a7.78,7.78,0,0,1-2.29,3.12,1.38,1.38,0,0,1,.22.13c1.19,1,3,1.19,6.27,1.19,1.76,0,3.2,0,5-.12v.18a1.64,1.64,0,0,0-1.2,1.47H23.82c-3.24,0-4.57-.6-5.85-2.16-.21-.29-.39-.26-.51,0-.25.47-.64,1.28-1,2a.26.26,0,0,1-.12.31L15.18,37.4c.6-.33,1.49-.94,2-1.23a10.9,10.9,0,0,0,1.32-3.34h-.88l-.54.49-1.38-1a2.4,2.4,0,0,1,.6-.29c.49-.69,1.12-1.72,1.53-2.44H15.53l-.14-.44h2.52l.75-.75,1.47,1.35a1.2,1.2,0,0,1-.81.24c-.37.63-1,1.65-1.51,2.37h.64l.84-.84ZM16,25.46c4.28.2,3,3.45,1.32,2.4a5.09,5.09,0,0,0-1.44-2.31Zm6.09,2.75a7,7,0,0,1-1.69,2l-.21-.1a16,16,0,0,0,1-4.33l2.18.59c-.06.2-.23.32-.56.32a8.33,8.33,0,0,1-.51,1.09h1.35V25.21l2.22.2c0,.2-.15.36-.54.41v1.95H26l.87-1.11s1,.75,1.59,1.31c0,.16-.21.24-.42.24H25.32v2.23h1.16l.91-1.17s1.05.8,1.67,1.37c0,.16-.2.24-.42.24H20.06l-.12-.44h3.7V28.21Zm4.08,8.5v-1H22.62v.69c0,.15-.75.51-1.47.51h-.24V31.55l1.79.71H26l.77-.86,1.63,1.25a1.15,1.15,0,0,1-.58.3v3.31a2.31,2.31,0,0,1-1.4.45Zm0-1.41V32.68H22.62V35.3Z"/><path class="cls-1" d="M40.91,32.33c2.64.35,3,1.32,2.56,1.86.33.27.78.66,1.13,1a.38.38,0,0,1-.41.24H40.94V37.3c0,1.17-.26,1.81-2.21,2a1.81,1.81,0,0,0-.36-1.15A2.16,2.16,0,0,0,37,37.57v-.21s1.66.1,2,.1.31-.07.31-.25v-1.8H30.68L30.56,35H39.3V33.83l2.15.18c0,.23-.18.33-.51.39V35h1.27l.35-.46a.86.86,0,0,1-.51-.29,3.82,3.82,0,0,0-.81-.9c-2,.32-4.74.65-8.64,1.07a.71.71,0,0,1-.44.31l-.84-1.77c1.11,0,3,0,5.34,0V31.91H34.35V32c0,.14-.72.47-1.39.47h-.23V27.55l1.73.67h2.2V27.14H31l-.14-.42h5.82V25.21l2.22.2c0,.2-.16.36-.55.41v.9H41.7l.89-1.17s1,.8,1.6,1.35c0,.17-.21.24-.42.24H38.33v1.08h2.29l.77-.82L43,28.6a1.15,1.15,0,0,1-.6.31v3a2.23,2.23,0,0,1-1.37.45Zm-7.8,3.36c4.42,0,3.42,3.29,1.71,2.4A5.26,5.26,0,0,0,33,35.8Zm1.24-7v1.22h2.31V28.64Zm2.31,2.85V30.28H34.35v1.21Zm1.67-2.85v1.22h2.44V28.64Zm2.44,1.64H38.33v1.21h2.44ZM40.71,33a4.94,4.94,0,0,0-1.08-.53l.06-.19a8.73,8.73,0,0,1,1.08.09v-.41H38.33V33Z"/><path class="cls-1" d="M45.72,38.62a13.63,13.63,0,0,0,4.17-3.57l1.89,1.3c-.12.15-.28.2-.64.12a11.36,11.36,0,0,1-5.36,2.33ZM58.08,27.14s1,.71,1.64,1.25c0,.16-.2.24-.42.24H54.69l2,.55c0,.18-.23.29-.56.27a12,12,0,0,1-1.63,1.29H56.4l.92-1.08s1,.72,1.66,1.26c0,.17-.21.24-.4.24H53.63v1.35h1.92l.85-1s1,.69,1.61,1.21c0,.17-.2.24-.42.24h-4v1.46h3.3l.94-1.13s1.05.75,1.68,1.32c0,.17-.19.24-.39.24H53.63v4.07a2,2,0,0,1-1.46.42h-.31V34.82H46.19l-.12-.43h5.79V32.93H47.64l-.12-.42h4.34V31.16h-5l-.12-.42h3.86a1.17,1.17,0,0,1-.47-.24,3,3,0,0,0-.69-1.74l.14-.09c2.62.35,2.31,1.86,1.44,2.07h2.74a14.23,14.23,0,0,0,.72-2.11H46.07L46,28.19H49a1,1,0,0,1-.48-.24,3.77,3.77,0,0,0-1-2.22l.14-.08c2.94.49,2.64,2.35,1.69,2.54h1.38v-3l2,.19c0,.17-.13.31-.46.37v2.41h1v-3l2,.19c0,.17-.13.31-.48.37v2.41h.44a19.83,19.83,0,0,0,1-2.65l2.11.66c-.07.18-.25.3-.58.25a13.4,13.4,0,0,1-2.16,1.74h1.51Zm-4,8.49c8,1,5,4.2,3.54,2.87A10.29,10.29,0,0,0,54,35.83Z"/><path class="cls-1" d="M65.88,37.1a15.85,15.85,0,0,0,3.41.26c1.3,0,4.5,0,5.91,0v.18a1.39,1.39,0,0,0-1,1.4h-5c-3.26,0-5.09-.57-6.18-2.94a8.43,8.43,0,0,1-2,3.76l-.18-.13a17.79,17.79,0,0,0,1.26-7.34l2,.38c-.06.21-.21.34-.55.37a21,21,0,0,1-.38,2.36,3.79,3.79,0,0,0,1.07,1.11V31.33l2.07.22c0,.18-.14.32-.47.36v1.85h.36L67,32.62s.89.79,1.38,1.33c0,.17-.18.24-.39.24H65.88Zm-2-6.45V28.28H61.73l-.12-.43h2.26V25.24l2.16.19c0,.2-.13.34-.48.38v2h.11l.82-1.08S67.4,27.52,68,28c0,.17-.18.24-.39.24h-2v2.37h.51l.86-1.14s.94.78,1.53,1.32c0,.17-.2.24-.41.24H61.22l-.12-.42Zm6.54,5.45c-1.45,0-1.83-.33-1.83-1.52V26.15l1.83.69h1.8L73,26l1.68,1.28a1,1,0,0,1-.64.33v3.81a3,3,0,0,1-1.38.39h-.29v-.84H70.22v3.25c0,.29.09.38.57.38H72l1,0a.37.37,0,0,0,.36-.24,14.4,14.4,0,0,0,.69-2.25h.17l.06,2.37c.45.18.57.38.57.66,0,.71-.69,1-3.05,1Zm-.19-8.82v3.24h2.14V27.28Z"/><path class="cls-1" d="M89.35,31.57c-.11.12-.24.19-.57.09a26.47,26.47,0,0,1-3.45,1.17,7.86,7.86,0,0,0,5,3.81l0,.16a2,2,0,0,0-1.43,1.5A8.26,8.26,0,0,1,85,32.92c-.32.09-.63.16-1,.22,1.16,2.12,1,4.53.24,5.51a2.68,2.68,0,0,1-2.2.64,1.69,1.69,0,0,0-.36-1.09,3.11,3.11,0,0,0-1.26-.56l0-.18c.62.06,1.62.12,2,.12.21,0,.36,0,.44-.16a3.63,3.63,0,0,0,.36-1.71,20.54,20.54,0,0,1-6.62,2.64l-.1-.23A15,15,0,0,0,83,33.59c0-.12-.06-.24-.1-.37A21.43,21.43,0,0,1,77,35.78l-.09-.19a15.59,15.59,0,0,0,5.22-4.07L82,31.34a19,19,0,0,1-4.87,1.91L77,33.07a15.87,15.87,0,0,0,4.58-3.21h-2.9l-.12-.42h7.19l.93-1.17,1.12.9c.06-.42.12-1,.17-1.47H78.68a2.19,2.19,0,0,1-.81,2.11.94.94,0,0,1-1.38-.37,1,1,0,0,1,.59-1.16,2.18,2.18,0,0,0,1.08-1.86h.21a6.39,6.39,0,0,1,.24.84h4.48a1.11,1.11,0,0,1-.27-.13,2.84,2.84,0,0,0-1-1.79l.11-.08c3-.17,2.94,1.61,2,2h4l.89-.9,1.56,1.49c-.11.13-.27.16-.57.18A9.79,9.79,0,0,1,88,29.3l.38.32c0,.16-.2.24-.41.24H84a10.22,10.22,0,0,1-1.7,1.29,6.76,6.76,0,0,1,1.52,1.66,23.79,23.79,0,0,0,3.67-2.71Z"/><path class="cls-1" d="M93.56,34a3,3,0,0,0,1.61-2c-.84-.33-1.49-.72-1.49-1.47a1.13,1.13,0,0,1,1.19-1.14c.72,0,1.27.54,1.27,1.53a3.9,3.9,0,0,1-2.32,3.6Z"/><path class="cls-1" d="M111.49,26.86s1.17.87,1.9,1.48c0,.17-.22.24-.43.24h-5.57a15.25,15.25,0,0,1-1.81,1.79H109l.85-1,1.76,1.36a1.15,1.15,0,0,1-.63.32v7.57a2.73,2.73,0,0,1-1.53.5h-.3v-1h-5.63v.5c0,.21-.75.63-1.54.63h-.29V29.59l2,.78H105c0-.51.06-1.2.09-1.79H99.47l-.12-.42h8a18,18,0,0,0,1-2.94l2.45.59c-.06.18-.23.31-.57.3a20.09,20.09,0,0,1-2.36,2.05h2.64Zm-8.94-1.59c4.18.67,2.65,3.75,1.06,2.59a6.3,6.3,0,0,0-1.18-2.52Zm1,5.52v2h5.63v-2Zm0,4.39h5.63v-2h-5.63Zm5.63,2.51V35.62h-5.63v2.07Z"/><path class="cls-1" d="M121.53,34.12l1.63,1.21a1,1,0,0,1-.58.32v3a3,3,0,0,1-1.38.38h-.28v-.92h-2.67v.68c0,.1-.47.45-1.28.45h-.27V36.62a6.43,6.43,0,0,1-2,2.22l-.15-.15c1.38-2,1.5-4.62,1.5-6.69V29.72a11.82,11.82,0,0,1-1.52.92l-.12-.14a14.23,14.23,0,0,0,3.38-5.35l2.43.5c-.07.17-.2.26-.59.32,5.13.93,3.35,4,2,3a5.9,5.9,0,0,0-2.13-2.82,13.08,13.08,0,0,1-2,2.42h1.81l.75-1s.86.66,1.39,1.14c0,.16-.2.24-.41.24h-3.68l-.07-.23c-.28.26-.58.51-.88.74l1.5.55h2.73l.77-.84L123,30.4a1.17,1.17,0,0,1-.62.33v3a2.81,2.81,0,0,1-1.36.39h-.27v-.45h-3.22c0,.3-.08.6-.14.92l1,.39h2.33Zm-.74-.89V32.06h-3.13c0,.36,0,.75,0,1.17Zm-3.13-2.79v1.2h3.13v-1.2Zm3.26,7.25V35.38h-2.67v2.31Zm4.33-2.1c0,.16-.67.46-1.24.46h-.28v-9.6l2,.2c0,.19-.14.33-.5.39Zm3.37-9.92c0,.23-.2.38-.55.42V37.3c0,1.17-.24,1.83-2.12,2a2.1,2.1,0,0,0-.34-1.19,2,2,0,0,0-1.28-.55v-.21s1.49.09,1.8.09.32-.08.32-.27V25.45Z"/><path class="cls-1" d="M143.86,26.63a1,1,0,0,1-.61.33v11.7a2.13,2.13,0,0,1-1.41.54h-.26V38.12h-9.36v.56c0,.21-.66.61-1.35.61h-.27V25.51l1.76.73h9.07l.81-.9Zm-2.28,11.06v-11h-9.36v11Zm-4.65-3.57c-.67.43-1.72,1.06-3.19,1.84a.59.59,0,0,1-.38.36l-.85-1.72c.79-.08,2.59-.35,4.39-.66Zm4.44-3.47c-.07.18-.27.29-.61.24A11.77,11.77,0,0,1,139.14,34a4.44,4.44,0,0,0,.81,1.17c.16.2.24.18.36,0a10.79,10.79,0,0,0,.61-1.49l.17,0-.24,2.06c.4.67.48,1,.27,1.26-.53.54-1.5,0-2-.47a7.38,7.38,0,0,1-1-1.39,10.17,10.17,0,0,1-3.43,2.13l-.14-.18a10.48,10.48,0,0,0,3.09-3,14.1,14.1,0,0,1-.78-3.3.75.75,0,0,1-.42.19v2.22a1.56,1.56,0,0,1-1,.41h-.2v-.47h-.91v.36a1.49,1.49,0,0,1-1,.38h-.18v-4l1.26.53h.75l.57-.59,1.18.89c-.06-.45-.09-.92-.12-1.38h-4.06l-.12-.44h4.15c0-.64,0-1.32-.06-2l2,.34a.52.52,0,0,1-.53.38c0,.42,0,.85,0,1.27h1.18l.33-.43-.06,0a3.59,3.59,0,0,0-.93-1.43l.14-.1c2,.09,2.16,1.08,1.71,1.5.25.21.57.46.79.69,0,.16-.19.24-.4.24h-2.73a15.08,15.08,0,0,0,.4,3.09,12.27,12.27,0,0,0,.9-2.58Zm-6.15,2V30.85h-.91v1.84Z"/><path class="cls-1" d="M158.71,29.39a1.15,1.15,0,0,1-.61.3v7.53c0,1.22-.3,1.92-2.43,2.12a2,2,0,0,0-.45-1.26,2.45,2.45,0,0,0-1.55-.63v-.21s1.83.12,2.3.12c.27,0,.36-.12.36-.33V33.92a2.15,2.15,0,0,0-1,1.26,8,8,0,0,1-2.94-4.51,7.7,7.7,0,0,1-4.27,4.57l-.05,0v3.46c0,.21-.73.63-1.47.63h-.28V28.22l1.89.75H152a24.64,24.64,0,0,1-.3-2.49H149.2l-.13-.43h2.23l.56-.84,1.5,1.06a2,2,0,0,1-1.28.39,12,12,0,0,0,.56,2.31h3.54l.81-.91ZM148,34.94a9.31,9.31,0,0,0,3-5.53h-3Zm4.76-5.53a7.49,7.49,0,0,0,3.54,4.11V29.41Z"/><path class="cls-1" d="M174.28,33c-.12.16-.36.21-.78.24-2.4,3.57-6.18,5.46-12.61,6l-.08-.21A22.45,22.45,0,0,0,168,36.19a1.18,1.18,0,0,1-.9-.09,4.57,4.57,0,0,0-1.45-1.86,19.13,19.13,0,0,1-4,1.44l-.09-.17a18.28,18.28,0,0,0,5.8-4.24,22.36,22.36,0,0,1-6.75,1.83l-.09-.2c4.1-1.2,7.23-2.92,9.17-5.46h-3.11c-.45.3-.91.59-1.42.87,2.7.11,2.08,2.45.64,1.89a4.44,4.44,0,0,0-1.41-1.5A17.05,17.05,0,0,1,161.08,30l-.1-.15a15.32,15.32,0,0,0,5.5-4.63l2.64.65c-.07.19-.28.3-.78.3-.33.3-.69.6-1.09.9h2.67l1-.93,1.78,1.52a1.25,1.25,0,0,1-.79.22,12.21,12.21,0,0,1-3.12,2.7l2.05.48c-.07.2-.28.32-.79.32-.39.36-.83.7-1.29,1.06h2.74l1-.94Zm-6.13-.17c-.53.36-1.1.71-1.7,1,2.15.21,2.45,1.53,1.92,2.11a11.32,11.32,0,0,0,3-3.15Z"/><path class="cls-1" d="M181.47,33.64c-.91.72-2.32,1.78-4.38,3.12a.65.65,0,0,1-.34.43l-1.13-1.9c.44-.12,1.16-.33,2-.6V28h-1.8l-.12-.42h3.36l.93-1.23s1,.84,1.67,1.41c0,.16-.21.24-.44.24h-1.77v6.09c.63-.21,1.28-.42,1.93-.65Zm-2.26,5.47a12.43,12.43,0,0,0,4.3-3.09l1.8,1.16c-.07.12-.26.15-.49.06a13.74,13.74,0,0,1-5.51,2.07Zm9-13.85s1.08.83,1.75,1.42c0,.16-.2.24-.42.24h-3.35a15.28,15.28,0,0,1-1.43,1.62h2.07l.81-.86,1.61,1.23a.83.83,0,0,1-.53.27v6.6a2.62,2.62,0,0,1-1.45.45h-.3v-.57h-3.42v.24c0,.18-.73.57-1.48.57h-.26V27.8l1.81.74h.59c0-.45.06-1.08.09-1.62h-3.33l-.1-.44h6.4ZM183.51,29v1.78h3.42V29Zm0,4h3.42V31.18h-3.42Zm3.42,2.25V33.41h-3.42v1.83Zm-1.44,1c5.16.13,4.43,3.72,2.55,2.94a9.4,9.4,0,0,0-2.66-2.82Z"/><path class="cls-1" d="M196.46,31.6c-.11.16-.24.21-.57.25a12,12,0,0,1-1.35,4.29c1.63.89,3.87,1.08,7,1.08h3.54v.18A1.44,1.44,0,0,0,204,38.86h-2.61c-3.48,0-5.84-.36-7.49-1.82A7.93,7.93,0,0,1,191,39.28l-.1-.18a7.18,7.18,0,0,0,2.29-2.85,10.77,10.77,0,0,1-1.65-3.74l.17-.09a7.27,7.27,0,0,0,1.84,3,15.2,15.2,0,0,0,.75-3.76h-.9l-.52.54-1.47-1a1.56,1.56,0,0,1,.54-.31,38.67,38.67,0,0,0,1.69-3.72H191.1l-.13-.44h2.61l.75-.74,1.5,1.34a1,1,0,0,1-.65.24c-.4.93-1.17,2.55-1.71,3.6h.66l.83-.85ZM204,27.67s.83.82,1.25,1.35a.37.37,0,0,1-.39.24h-1.68v2.07a2.5,2.5,0,0,1-1.37.4h-.25v-.51h-1.34v1.53h1.43l.84-1.11s1,.75,1.54,1.29c0,.17-.18.24-.4.24h-3.41v1.56h1.8l.95-1.18s1.08.79,1.74,1.38a.4.4,0,0,1-.42.24h-4.07v1.39c0,.14-.69.45-1.35.45h-.33V35.17h-3.06l-.12-.44h3.18V33.17H196.2l-.12-.42h2.49V31.22h-2.19l-.13-.43h2.32V29.26h-3.3l-.12-.44h3.42V27.31h-2.34l-.13-.42h2.47V25.24l2.24.21c0,.22-.15.37-.56.44v1h1.19l.75-.81,1.6,1.2a1.15,1.15,0,0,1-.58.3v1.24h.1Zm-3.78,1.15h1.34V27.31h-1.34Zm1.34.44h-1.34v1.53h1.34Z"/><path class="cls-1" d="M209.66,27.05a8.92,8.92,0,0,1-3.35,2.22l-.16-.16a10,10,0,0,0,2.56-4l2.22.87c-.07.18-.27.3-.6.27-.1.15-.21.29-.31.42h1.59l.75-1s.85.71,1.36,1.2c0,.17-.18.24-.39.24ZM206.3,38.74A11.59,11.59,0,0,0,210,35.39L212,36.61c-.07.13-.22.21-.57.13a11.84,11.84,0,0,1-5,2.18Zm3.91-8.87v2.4l2.15-.28v.21c-1,.46-2.52,1.08-4.66,1.84a.6.6,0,0,1-.41.36l-.73-1.72c.43,0,1.17-.11,2-.21v-2.6H207l-.12-.43h3.34l.54-.68-.12-.06a2.72,2.72,0,0,0-.88-1.29l.12-.1c2.34-.21,2.25,1.24,1.45,1.48.3.24.69.57,1,.84-.05.17-.18.24-.39.24Zm8.16,3.66s1.1.89,1.74,1.47c0,.17-.21.24-.4.24h-5.54v3.59a2.46,2.46,0,0,1-1.54.43h-.32v-4h-5.46l-.12-.43h5.58V33.59l2.42.21c0,.2-.15.36-.56.42v.59h3.23ZM219.72,32c.32.15.39.3.39.55,0,.51-.48.83-1.57.83H218c-.93,0-1-.3-1-1.13v-2.5h-1.71v.63a2.8,2.8,0,0,1-.12.82c1.5.65,1.3,2,.3,1.79a5.92,5.92,0,0,0-.93-.75,6.29,6.29,0,0,1-3.26,1.48l-.1-.18a4,4,0,0,0,2.32-1.9,7.61,7.61,0,0,0-1.26-.57l.11-.18a8.07,8.07,0,0,1,1.38,0c0-.16,0-.33,0-.49v-.63H212.6l-.14-.42h4.35l.68-.72,1.27,1.05a.8.8,0,0,1-.49.22v2c0,.15,0,.2.18.2h.45a.19.19,0,0,0,.19-.11,5.82,5.82,0,0,0,.41-1.06h.18Zm-.94-6.45s.94.72,1.5,1.24c-.05.17-.18.24-.39.24h-4.47a7.32,7.32,0,0,1-2.49,1.82l-.18-.14a10,10,0,0,0,1.75-3.66l2.18.89a.56.56,0,0,1-.62.25l-.28.41H218ZM214.85,35.8c5.74,0,5.44,3.66,3.55,3.09a12.44,12.44,0,0,0-3.66-3Zm.78-8.43c3-.09,1.69,2.11.48,1.26a1.89,1.89,0,0,0-.6-1.17Z"/><path class="cls-1" d="M223,35.08c.6,1.57.48,2.77,0,3.37a.88.88,0,0,1-1.42-.12,1,1,0,0,1,.42-1.23,2.82,2.82,0,0,0,.75-2Zm3.26-8.78a.44.44,0,0,1-.49.21,17.09,17.09,0,0,1-3,3c.66,0,1.49,0,2.36,0a10.13,10.13,0,0,0,.93-1.68L228,29.15a.56.56,0,0,1-.6.17,21.76,21.76,0,0,1-4.26,3.75c.84,0,1.93-.12,3.08-.21a8.33,8.33,0,0,0-.56-1.4l.16-.07c3.23,1.41,1.8,3.82.63,2.73a6.54,6.54,0,0,0-.11-.83c-.91.38-2.18.86-3.59,1.32a.94.94,0,0,1-.42.36l-.69-1.86a2.53,2.53,0,0,0,.55-.19,12.08,12.08,0,0,0,2.48-2.64c-.56.22-1.2.46-1.89.7a.91.91,0,0,1-.42.39l-.77-1.83a1.81,1.81,0,0,0,.47-.16,11.89,11.89,0,0,0,2.19-4.16Zm-1.95,8.54c2.63,1.93.88,4.2-.15,2.89a7.53,7.53,0,0,0-.05-2.85Zm1.62-.3c3.19,1.26,1.74,3.75.55,2.61a5.62,5.62,0,0,0-.71-2.54ZM235,37c.49.18.63.37.63.67,0,.74-.74,1-3.56,1h-1.8c-1.63,0-2.07-.3-2.07-1.51V30.31l1.88.73h2.76V26.92h-5l-.14-.44h4.94l.84-.94,1.78,1.38a1.33,1.33,0,0,1-.75.37v5.1a2.62,2.62,0,0,1-1.42.42h-.27V31.46h-3V36.8c0,.29.11.36.69.36h3.06a.5.5,0,0,0,.45-.23,10.14,10.14,0,0,0,.69-2H235Z"/><path class="cls-1" d="M242.27,35.65c-.91.64-2.29,1.54-4.26,2.65a.54.54,0,0,1-.34.41L236.81,37l2.07-.54V32.15H237l-.12-.43h2v-2.1h-1.17a11.22,11.22,0,0,1-.91.82l-.15-.1a18.29,18.29,0,0,0,1.93-5.27l2.3.56c0,.19-.2.3-.6.34,3.91.92,2.05,3.27.89,2.24a6.49,6.49,0,0,0-1-1.91,13.73,13.73,0,0,1-2,2.9h1.93l.75-1s.89.69,1.41,1.19c0,.16-.18.24-.39.24h-1.44v2.1h.21l.77-1.1s.82.77,1.31,1.29c0,.17-.17.24-.38.24h-1.91V36c.6-.16,1.23-.34,1.85-.54Zm-5-3c2.43,2,1.05,4.08.12,3a8,8,0,0,0-.33-2.93Zm3.35,2.82c.14-.76.28-1.92.35-2.91l1.76.56a.5.5,0,0,1-.54.28,9.07,9.07,0,0,1-1.33,2.18Zm4.69-.73c-.4.54-1.06,1.39-2,2.44a.55.55,0,0,1-.27.45L241.94,36c.57-.21,1.95-.81,3.3-1.42Zm4.23-5.25s.94.82,1.48,1.38c0,.16-.19.24-.42.24H247v6.19c0,1-.24,1.7-1.95,1.85a1.82,1.82,0,0,0-.24-1,1.4,1.4,0,0,0-1-.48v-.21s1.13.07,1.38.07.29-.07.29-.25V31.12h-2.95l-.1-.42h4.08l.36-1.14h-2.21l-.63.7-1.52-1.05a2.25,2.25,0,0,1,.6-.33,34.29,34.29,0,0,0,1.2-3.59l2.11.34c0,.19-.19.38-.6.38-.09.23-.18.5-.27.8h2l.72-.76,1.48,1.23c-.1.13-.25.16-.55.19l-1,3.23h.6Zm-6.69,2.28c3.45.79,2,3.24.78,2.19a3.94,3.94,0,0,0-.93-2.1Zm4.09-2.66.62-1.89h-2.22c-.22.66-.48,1.35-.69,1.89Zm.52,5.58c4.22.54,3.21,3.78,1.78,2.75a8.49,8.49,0,0,0-1.89-2.61Zm-.1-.64c.48-.74,1.15-2,1.49-2.66l1.7,1.2c-.08.14-.21.18-.54.11-.58.42-1.78,1.06-2.51,1.5Z"/><path class="cls-1" d="M254.05,34a3,3,0,0,0,1.6-2c-.84-.33-1.48-.72-1.48-1.47a1.12,1.12,0,0,1,1.18-1.14c.72,0,1.28.54,1.28,1.53a3.91,3.91,0,0,1-2.33,3.6Z"/><path class="cls-1" d="M269.54,31.48a7.41,7.41,0,0,0,4.52,2.05l0,.21a2.17,2.17,0,0,0-1.23,1.52,7.55,7.55,0,0,1-3.67-3.78h-4a12.14,12.14,0,0,1-5.32,4l-.12-.15a12.67,12.67,0,0,0,3.73-3.87h-3.34l-.14-.42h3.72a15.75,15.75,0,0,0,.77-1.61h-3.14l-.12-.43h3.44c.18-.48.34-1,.48-1.46h-4.46l-.12-.43h4.68c.18-.66.3-1.32.41-1.94l2.52.51c-.06.23-.24.36-.6.36-.09.36-.18.71-.29,1.07h3.71l.93-1.14s1.05.78,1.69,1.33c0,.17-.19.24-.4.24H267.1c-.17.5-.35,1-.56,1.46h3.69l.89-1.08s1,.73,1.59,1.27c0,.17-.2.24-.41.24h-5.95a12.18,12.18,0,0,1-.92,1.61h5.75l1-1.22s1.1.83,1.77,1.4c0,.16-.19.24-.42.24Zm1.1,3.28s1.09.81,1.75,1.4c0,.16-.21.24-.42.24h-4.21v2.43c0,.15-.81.48-1.5.48h-.33V36.4h-4.29l-.12-.42h4.41V34.33h-2.42l-.12-.42h2.54v-2l2.32.21c0,.18-.13.32-.49.38v1.38h.48l.79-1.08s.9.73,1.44,1.26c0,.16-.19.24-.39.24h-2.32V36h1.9Z"/><path class="cls-1" d="M280.85,29.51c-.07.14-.22.23-.58.18a19.22,19.22,0,0,1-1.35,1.44l.63.24a.64.64,0,0,1-.47.29v7.18a2.29,2.29,0,0,1-1.44.47h-.33V32.56A18.28,18.28,0,0,1,275,34.12L274.9,34a23.46,23.46,0,0,0,3.82-5.65Zm-.28-3c-.09.15-.24.22-.57.16a17.71,17.71,0,0,1-4.61,3l-.13-.16a18,18,0,0,0,3.3-4.27Zm7,2.46s1.07.84,1.7,1.42c-.05.17-.21.24-.42.24h-2.18V37c0,1.2-.34,2-2.58,2.19a1.67,1.67,0,0,0-.48-1.26,3.31,3.31,0,0,0-1.77-.62v-.19s2.22.13,2.66.13c.27,0,.37-.1.37-.3V30.62h-4.33l-.12-.43h6.21Zm-6.19-1.8-.12-.42h4.93l.92-1.2s1,.82,1.63,1.38c0,.16-.21.24-.42.24Z"/><path class="cls-1" d="M1.69,50.19H6.52v.59H2.31v9H1.69Z"/><path class="cls-1" d="M21.58,62c.55.2.73.41.73.72,0,.81-.81,1.14-4,1.14h-2c-1.79,0-2.42-.31-2.42-1.77V56.45c-.52.34-1.23.76-2.1,1.24v4.59c0,1.19-.24,1.85-2.07,2a2.5,2.5,0,0,0-.27-1.2,1.52,1.52,0,0,0-1.09-.54v-.21s1.23.08,1.48.08.3-.06.3-.26V58.59l-1,.53a.64.64,0,0,1-.4.39L8,57.41c.45-.06,1.21-.2,2.14-.38V54H8.21l-.12-.44h2V50.19l2.21.23c0,.21-.19.36-.56.42v2.74h.11l.78-1.17s.72.71,1.21,1.23V51.06l1.88.72h3.91l.74-.94,1.7,1.27a.93.93,0,0,1-.59.29V58c0,.14-.56.47-1.41.47h-.29v-1.1H15.53v4.25c0,.43.2.57,1,.57h1.93c.74,0,1.34,0,1.64,0a.72.72,0,0,0,.54-.24,9.82,9.82,0,0,0,.75-2h.16Zm-7.73-5.65V53.94a.47.47,0,0,1-.28.08H11.75V56.7c.68-.13,1.38-.28,2.08-.43Zm1.68-4.13v4.74h1.35V52.2Zm2.94,0v4.74h1.32V52.2Z"/><path class="cls-1" d="M37.32,54.36c-.11.15-.27.2-.62.2a5.27,5.27,0,0,1-1.26,1.23,21.18,21.18,0,0,0,2.37.18v.16a1.55,1.55,0,0,0-1,1.34l-.18,0c.16.12.33.25.46.37,0,.17-.19.24-.42.24H34.9v4.07h.26l.82-1s1,.69,1.56,1.18c0,.17-.18.24-.39.24H34.9v1.38c0,.09-.52.39-1.39.39h-.32V62.55H24.37l-.13-.43h2.58V58.05H25.24l-.07-.22a4.66,4.66,0,0,1-1.34.82l-.13-.18a4.17,4.17,0,0,0,1.15-3.28V53.57l1.62.61H29l.66-.69,1.41,1a.93.93,0,0,1-.51.25v1.59a2,2,0,0,1-1.19.42h-.24v-.45h-3a3.19,3.19,0,0,1-.72,1.28h9.34l.47-.56A6.2,6.2,0,0,1,34,56.6a14.35,14.35,0,0,1-4.05.93l-.08-.24A11.1,11.1,0,0,0,33.21,56,4.63,4.63,0,0,1,32,54.38h-.53L31.29,54h3.82l.42-.39c-.84,0-.93-.32-.93-1V51.47H33.12v0c0,.69-.27,1.93-2.22,2.56l-.12-.18a2.89,2.89,0,0,0,.93-2.37V50.42l1.63.61h1.13l.72-.73,1.3,1.08a.87.87,0,0,1-.51.21v.69c0,.13,0,.18.17.18h.51a1.06,1.06,0,0,0,.25,0,1.08,1.08,0,0,0,.3,0h.2c.33.15.45.24.45.5,0,.49-.41.64-1.46.66ZM24.18,51.48h2.7V50.15l2,.18c0,.2-.15.33-.51.39v.76h.91L30,50.6s.79.61,1.27,1.08c0,.16-.18.24-.39.24H28.41v1H29l.67-.87s.78.6,1.26,1.06c0,.17-.18.24-.37.24H24.79l-.12-.43h2.21v-1h-2.6Zm2.07,3.12v.59a5,5,0,0,1-.06.72h.9V54.6Zm2.05,0v1.31h.84V54.6Zm4.89,3.45H28.47v1.07h4.72Zm0,1.49H28.47v1.05h4.72Zm0,2.58V61H28.47v1.1Zm-.9-7.74A4.06,4.06,0,0,0,34,55.46a5.29,5.29,0,0,0,1-1.08Z"/><path class="cls-1" d="M49.43,56.51A8.49,8.49,0,0,0,53.64,58l0,.21A2.49,2.49,0,0,0,52.4,60a7.25,7.25,0,0,1-2.07-1.54H43a13.21,13.21,0,0,1-3.5,1.46l-.07-.17a9,9,0,0,0,3.45-3.22h-3.2l-.12-.42h1.74l-.18-5.28,1.35.25A12.58,12.58,0,0,0,44,50.18l.9,1a9.68,9.68,0,0,0,.08-1l1.74.35a.5.5,0,0,1-.56.32c0,.2,0,.41-.06.62h1l.52-.7s.6.5,1,.88a.34.34,0,0,1-.37.24H46c0,.27-.06.55-.08.79H47l.6-.6,1.1.87-.08-.24h1.46l.06-1.21H48.45l-.13-.42H50l.65-.75,1.48,1.14c-.1.13-.24.18-.52.22l-.2,4.38L52.22,55s.9.78,1.39,1.31c0,.16-.18.24-.39.24Zm-.69,3.84.66-.74s.78.51,1.27.92a.36.36,0,0,1-.39.24h-.67l1.54,1.12a.79.79,0,0,1-.51.27v1.59a3,3,0,0,1-1.41.39h-.3v-.63H44v.26c0,.15-.77.49-1.44.49h-.24V60.83l1.8.69H48.8l.7-.75H42.63l-.12-.42Zm0-1.16.68-.75s.76.53,1.27.93c0,.17-.19.24-.39.24H42.69l-.12-.42ZM43.56,52s.47.42.81.78a2,2,0,0,1,.38-.23c0-.31.09-.72.12-1.11a.56.56,0,0,1-.29-.1,19.05,19.05,0,0,1-1.95.16l0,1.2h.37ZM49,56.09l0,0v0H50L50,54.72H48.71l-.14-.42H50l.06-1.17H48.81l0-.07a1,1,0,0,1-.48.16c0,1.65-.07,2.16-.46,2.45a2,2,0,0,1-1.16.27.75.75,0,0,0-.18-.6,1.27,1.27,0,0,0-.63-.27v-.23c.27,0,.69,0,.89,0a.38.38,0,0,0,.3-.09,5,5,0,0,0,.13-1.7H46l-.48.54.78.21a.5.5,0,0,1-.53.32,4.6,4.6,0,0,1-.9,1.81l-.25-.07a10.12,10.12,0,0,0,.19-2.46l.63.16-1-.64c0,.12-.16.16-.33.16H42.69l0,1.19h.59l.49-.72s.59.52.93.9c0,.16-.15.24-.34.24H42.74l0,1.35Zm.38,1.15a6.24,6.24,0,0,1-.45-.73H45.15A7.09,7.09,0,0,1,43.61,58h2.62a2.66,2.66,0,0,0-.6-1.35l.14-.09c1.92.1,2,1,1.57,1.44H48.5l.73-.86Zm-.44,5.84V62H44v1.13Z"/><path class="cls-1" d="M60.59,56.6c-.1.16-.24.21-.57.25a11.84,11.84,0,0,1-1.35,4.29c1.64.89,3.87,1.08,7,1.08h3.54v.18a1.46,1.46,0,0,0-1.07,1.47H65.51C62,63.86,59.68,63.5,58,62a8,8,0,0,1-2.94,2.24L55,64.1a7.29,7.29,0,0,0,2.3-2.85,10.77,10.77,0,0,1-1.65-3.74l.16-.09a7.17,7.17,0,0,0,1.85,3,15.2,15.2,0,0,0,.75-3.76h-.9l-.53.54-1.47-1a1.66,1.66,0,0,1,.54-.31c.54-1,1.29-2.67,1.7-3.72H55.24l-.14-.44h2.61l.75-.74L60,52.35a1,1,0,0,1-.64.24c-.41.93-1.17,2.55-1.71,3.6h.66l.82-.85Zm7.58-3.93s.82.82,1.24,1.35a.36.36,0,0,1-.39.24H67.34v2.07a2.43,2.43,0,0,1-1.36.4h-.26v-.51H64.39v1.53h1.42l.84-1.11s1,.75,1.55,1.29c0,.17-.18.24-.41.24h-3.4v1.56h1.8l.94-1.18s1.08.79,1.74,1.38c0,.16-.21.24-.42.24H64.39v1.39c0,.14-.69.45-1.35.45h-.33V60.17H59.65l-.12-.44h3.18V58.17H60.34l-.12-.42h2.49V56.22H60.52l-.14-.43h2.33V54.26h-3.3l-.12-.44h3.42V52.31H60.37l-.14-.42h2.48V50.24l2.23.21c0,.22-.15.37-.55.44v1h1.18l.75-.81,1.61,1.2a1.14,1.14,0,0,1-.59.3v1.24h.11Zm-3.78,1.15h1.33V52.31H64.39Zm1.33.44H64.39v1.53h1.33Z"/><path class="cls-1" d="M74.19,52.05a8.92,8.92,0,0,1-3.35,2.22l-.16-.16a10,10,0,0,0,2.56-4l2.22.87c-.07.18-.27.3-.6.27-.1.15-.21.29-.31.42h1.59l.75-1s.85.71,1.36,1.2c0,.17-.18.24-.39.24ZM70.83,63.74a11.59,11.59,0,0,0,3.73-3.35l1.92,1.22c-.07.13-.22.21-.57.13a11.84,11.84,0,0,1-5,2.18Zm3.91-8.87v2.4L76.89,57v.21c-1,.46-2.52,1.08-4.66,1.84a.6.6,0,0,1-.41.36l-.73-1.72c.43,0,1.17-.11,2-.21v-2.6H71.49l-.12-.43h3.34l.54-.68a1.33,1.33,0,0,1-.12-.06,2.72,2.72,0,0,0-.88-1.29l.12-.1c2.34-.21,2.25,1.24,1.45,1.48.3.24.69.57,1,.84,0,.17-.18.24-.39.24Zm8.16,3.66s1.1.89,1.74,1.47c0,.17-.21.24-.4.24H78.7v3.59a2.46,2.46,0,0,1-1.54.43h-.32v-4H71.38l-.12-.43h5.58V58.59l2.42.21c0,.2-.15.36-.56.42v.59h3.23ZM84.25,57c.32.15.39.3.39.55,0,.51-.48.83-1.57.83h-.56c-.93,0-1-.3-1-1.13v-2.5H79.77v.63a2.8,2.8,0,0,1-.12.82c1.5.65,1.3,2,.3,1.79a5.92,5.92,0,0,0-.93-.75,6.29,6.29,0,0,1-3.26,1.48l-.1-.18A4,4,0,0,0,78,56.66a7.61,7.61,0,0,0-1.26-.57l.11-.18a8.07,8.07,0,0,1,1.38,0c0-.16,0-.33,0-.49v-.63H77.13L77,54.35h4.35l.68-.72,1.27,1a.8.8,0,0,1-.49.22v2c0,.15,0,.2.18.2h.45a.19.19,0,0,0,.19-.11A5.82,5.82,0,0,0,84,55.94h.18Zm-.94-6.45s.94.72,1.5,1.24c0,.17-.18.24-.39.24H80a7.32,7.32,0,0,1-2.49,1.82l-.18-.14A10,10,0,0,0,79,50.07l2.18.89a.56.56,0,0,1-.62.25l-.28.41h2.17ZM79.38,60.8c5.74,0,5.44,3.66,3.55,3.09a12.44,12.44,0,0,0-3.66-3Zm.78-8.43c3-.09,1.69,2.11.48,1.26a1.89,1.89,0,0,0-.6-1.17Z"/><path class="cls-1" d="M91.13,56.88c0,.15-.19.24-.46.3v6.59a2.25,2.25,0,0,1-1.46.49h-.34V58.41A13.33,13.33,0,0,1,86.48,60l-.13-.17a15.79,15.79,0,0,0,4.24-6.13H86.86l-.12-.44h4a20.62,20.62,0,0,0,.93-3.09l2.54.66c0,.18-.18.3-.59.32-.24.67-.54,1.39-.88,2.11h4.6l1-1.33s1.19.91,1.91,1.53c0,.16-.2.24-.42.24H92.54a15,15,0,0,1-2,3Zm7.54,4.77s1.13.86,1.83,1.46c0,.16-.21.24-.43.24H91l-.12-.44h3.38V58.32H91.55l-.12-.42h2.84V54.38l2.27.21c0,.19-.13.33-.47.39V57.9h.84l.94-1.18s1.05.81,1.69,1.36c0,.17-.21.24-.42.24H96.07v4.59h1.62Z"/><path class="cls-1" d="M107.59,56.6c-.1.16-.24.21-.57.25a11.84,11.84,0,0,1-1.35,4.29c1.64.89,3.87,1.08,7,1.08h3.54v.18a1.46,1.46,0,0,0-1.07,1.47h-2.61c-3.48,0-5.83-.36-7.48-1.82a8,8,0,0,1-2.94,2.24L102,64.1a7.29,7.29,0,0,0,2.3-2.85,10.77,10.77,0,0,1-1.65-3.74l.16-.09a7.17,7.17,0,0,0,1.85,3,15.2,15.2,0,0,0,.75-3.76h-.9l-.53.54-1.47-1a1.66,1.66,0,0,1,.54-.31c.54-1,1.29-2.67,1.7-3.72h-2.49l-.14-.44h2.61l.75-.74,1.5,1.34a1,1,0,0,1-.64.24c-.41.93-1.17,2.55-1.71,3.6h.66l.82-.85Zm7.58-3.93s.82.82,1.24,1.35a.36.36,0,0,1-.39.24h-1.68v2.07a2.43,2.43,0,0,1-1.36.4h-.26v-.51h-1.33v1.53h1.42l.84-1.11s1,.75,1.55,1.29c0,.17-.18.24-.41.24h-3.4v1.56h1.8l.94-1.18s1.08.79,1.74,1.38c0,.16-.21.24-.42.24h-4.06v1.39c0,.14-.69.45-1.35.45h-.33V60.17h-3.06l-.12-.44h3.18V58.17h-2.37l-.12-.42h2.49V56.22h-2.19l-.14-.43h2.33V54.26h-3.3l-.12-.44h3.42V52.31h-2.34l-.14-.42h2.48V50.24l2.23.21c0,.22-.15.37-.55.44v1h1.18l.75-.81,1.61,1.2a1.14,1.14,0,0,1-.59.3v1.24h.11Zm-3.78,1.15h1.33V52.31h-1.33Zm1.33.44h-1.33v1.53h1.33Z"/><path class="cls-1" d="M121.19,52.05a8.92,8.92,0,0,1-3.35,2.22l-.16-.16a10,10,0,0,0,2.56-4l2.22.87c-.07.18-.27.3-.6.27-.1.15-.21.29-.31.42h1.59l.75-1s.85.71,1.36,1.2c0,.17-.18.24-.39.24Zm-3.36,11.69a11.59,11.59,0,0,0,3.73-3.35l1.92,1.22c-.07.13-.22.21-.57.13a11.84,11.84,0,0,1-5,2.18Zm3.91-8.87v2.4l2.15-.28v.21c-1,.46-2.52,1.08-4.66,1.84a.6.6,0,0,1-.41.36l-.73-1.72c.43,0,1.17-.11,2-.21v-2.6h-1.65l-.12-.43h3.34l.54-.68a1.33,1.33,0,0,1-.12-.06,2.72,2.72,0,0,0-.88-1.29l.12-.1c2.34-.21,2.25,1.24,1.45,1.48.3.24.69.57,1,.84,0,.17-.18.24-.39.24Zm8.16,3.66s1.1.89,1.74,1.47c0,.17-.21.24-.4.24H125.7v3.59a2.46,2.46,0,0,1-1.54.43h-.32v-4h-5.46l-.12-.43h5.58V58.59l2.42.21c0,.2-.15.36-.56.42v.59h3.23ZM131.25,57c.32.15.39.3.39.55,0,.51-.48.83-1.57.83h-.56c-.93,0-1-.3-1-1.13v-2.5h-1.71v.63a2.8,2.8,0,0,1-.12.82c1.5.65,1.3,2,.3,1.79a5.92,5.92,0,0,0-.93-.75,6.29,6.29,0,0,1-3.26,1.48l-.1-.18a4,4,0,0,0,2.32-1.9,7.61,7.61,0,0,0-1.26-.57l.11-.18a8.07,8.07,0,0,1,1.38,0c0-.16,0-.33,0-.49v-.63h-1.11l-.14-.42h4.35l.68-.72,1.27,1a.8.8,0,0,1-.49.22v2c0,.15,0,.2.18.2h.45a.19.19,0,0,0,.19-.11,5.82,5.82,0,0,0,.41-1.06h.18Zm-.94-6.45s.94.72,1.5,1.24c-.05.17-.18.24-.39.24H127a7.32,7.32,0,0,1-2.49,1.82l-.18-.14A10,10,0,0,0,126,50.07l2.18.89a.56.56,0,0,1-.62.25l-.28.41h2.17ZM126.38,60.8c5.74,0,5.44,3.66,3.55,3.09a12.44,12.44,0,0,0-3.66-3Zm.78-8.43c3-.09,1.69,2.11.48,1.26a1.89,1.89,0,0,0-.6-1.17Z"/><path class="cls-1" d="M145.57,61.67s1.21.94,2,1.57c0,.17-.21.24-.43.24H133.55l-.12-.42H139V50.42l2.49.24c0,.21-.15.36-.55.42v5h2.46l1.08-1.38s1.2.92,1.92,1.56c0,.17-.2.24-.41.24H141v6.54h3.52Z"/><path class="cls-1" d="M153.91,64.32h-4.83v-.58h4.22v-9h.61Z"/><path class="cls-1" d="M164.08,53.49a1.07,1.07,0,0,1-.63.32v8.94a2.34,2.34,0,0,1-1.4.49h-.25V62.06h-2.28v1.11c0,.19-.63.57-1.35.57h-.27V52.4l1.68.7h.09c.1-.82.24-2,.31-2.83l2.43.58c-.06.26-.27.36-.61.36-.39.53-1,1.31-1.46,1.89h1.31l.79-.9Zm-4.56,0v3.72h2.28V53.54Zm2.28,8.1v-4h-2.28v4Zm9.6-8.15a1,1,0,0,1-.66.29c-.11,6-.32,8.79-1.14,9.67a2.75,2.75,0,0,1-2.19.81,1.68,1.68,0,0,0-.33-1.23,3.21,3.21,0,0,0-1.59-.66v-.21c.72.06,1.76.14,2.15.14a.69.69,0,0,0,.55-.2c.56-.51.71-3.49.81-8.61h-2.79a11.37,11.37,0,0,1-2.53,3.15l-.2-.12a22.13,22.13,0,0,0,2-6.26l2.37.68c-.06.2-.24.3-.59.3a13.81,13.81,0,0,1-.84,1.82h2.39l.94-1Zm-6.63,2.63c4.38,1.29,2.74,4.53,1.15,3.19a6.54,6.54,0,0,0-1.27-3.1Z"/><path class="cls-1" d="M185.62,62s1.08.93,1.7,1.54c0,.17-.2.24-.41.24H177l-.12-.43h4.55V60.65h-3.08l-.12-.42h3.2V57.86H180v.42c0,.18-.72.57-1.44.57h-.27V56.21a.38.38,0,0,1-.35.15h-1.68v3.7l2.06-.61.06.16c-.95.71-2.43,1.71-4.5,3a.64.64,0,0,1-.36.42l-.8-2c.39-.07,1-.25,1.82-.46v-4.2H173l-.12-.42h1.62V52.22H173l-.12-.44h3.21l.9-1.23s.72.6,1.29,1.13v-1l1.8.72h4.36l.83-.9,1.65,1.31a1,1,0,0,1-.6.31V58a2.27,2.27,0,0,1-1.44.53h-.29v-.66h-1.48v2.37h1.11l.9-1.25s1,.84,1.57,1.43c0,.16-.19.24-.42.24h-3.16v2.67h1.57ZM177,54.75s.81.78,1.25,1.32V52.22h-2v3.72h.05Zm3-2.92v2.58h1.41V51.83Zm1.41,5.59V54.84H180v2.58Zm1.71-5.59v2.58h1.48V51.83Zm1.48,5.59V54.84h-1.48v2.58Z"/><path class="cls-1" d="M196.91,50.81c-.06.2-.23.3-.74.34a12.61,12.61,0,0,0,6.62,2.34l0,.23a2.2,2.2,0,0,0-1.17,1.78A9.83,9.83,0,0,1,196,51.32a14.08,14.08,0,0,1-7.28,4.47l-.06-.17a12.91,12.91,0,0,0,5.75-5.56ZM191,59.33c.73,1.86.16,3.18-.56,3.63a.92.92,0,0,1-1.38-.32,1,1,0,0,1,.57-1.14,2.54,2.54,0,0,0,1.16-2.16Zm.12-3.39h6.78l.93-.78,1.59,1.09c-.09.15-.23.18-.54.21A7.33,7.33,0,0,1,197.13,59l-.13-.18a10.5,10.5,0,0,0,1-2.47h-6.72Zm8,6.31c.52.18.66.36.66.68,0,.75-.74,1-3.69,1h-1.91c-1.71,0-2.1-.29-2.1-1.44V59l2.24.18c0,.19-.17.33-.47.37v2.61c0,.23.08.29.63.29h1.8c.63,0,1.22,0,1.47,0a.47.47,0,0,0,.44-.21A11.05,11.05,0,0,0,199,60.5h.15Zm-2.24-9.07s.86.72,1.37,1.23a.38.38,0,0,1-.41.24H193.1l-.12-.44h3.19Zm-2,5.25c3.87.84,2.46,3.78,1,2.64a4.91,4.91,0,0,0-1.14-2.55Zm4.41.78c4.53,1,3.12,4.45,1.47,3.19a5.78,5.78,0,0,0-1.6-3.09Z"/><path class="cls-1" d="M206.26,59a3,3,0,0,0,1.6-2c-.84-.33-1.48-.72-1.48-1.47a1.12,1.12,0,0,1,1.18-1.14c.72,0,1.28.54,1.28,1.53a3.91,3.91,0,0,1-2.33,3.6Z"/><path class="cls-1" d="M225.74,60.47a.9.9,0,0,1-.59.25c-.18,1.52-.57,2.66-1.27,3.08a3.71,3.71,0,0,1-2,.43,1.28,1.28,0,0,0-.4-1.09,4.7,4.7,0,0,0-1.94-.63l0-.2c.91.08,2.41.18,2.74.18a.86.86,0,0,0,.54-.12,3.57,3.57,0,0,0,.62-1.93h-3.66c-.83,1.78-2.72,3.15-7.11,3.84l-.09-.2c3.16-.87,4.62-2.16,5.26-3.64h-4.42l-.14-.42H218a6.22,6.22,0,0,0,.27-1.49l.36.06V57.14h-2.48v1.63c0,.17-.76.54-1.47.54h-.25V53l1.84.71h3a6.52,6.52,0,0,0-2.89-1.41l0-.2a10.33,10.33,0,0,1,4,.47c.54-.33,1.12-.71,1.6-1H213.8l-.14-.43h8.81l1-.9L225,51.72a.9.9,0,0,1-.65.18c-.87.32-2.22.71-3.42,1a.52.52,0,0,1-.09.8h2l.78-.87,1.71,1.27a.94.94,0,0,1-.6.32v3.42c0,1-.25,1.57-2.11,1.72a1.82,1.82,0,0,0-.26-1,1.59,1.59,0,0,0-1.05-.48v-.2s1.11.09,1.41.09.27-.1.27-.28v-.57h-2.68v1.23a2,2,0,0,1-1.05.31l1.45.23c0,.22-.22.36-.55.36a6.49,6.49,0,0,1-.23.75h3.4l.88-.81Zm-9.59-6.32v1.08h2.48V54.15Zm2.48,2.57v-1h-2.48v1Zm1.68-2.57v1.08H223V54.15ZM223,56.72v-1h-2.68v1Z"/><path class="cls-1" d="M235.07,56.31a1,1,0,0,1-.63.29c-.12,4.63-.39,6.28-1.15,7a2.51,2.51,0,0,1-1.76.6,1.9,1.9,0,0,0-.22-1.12,1.72,1.72,0,0,0-1-.53v-.21c.39,0,1.05.08,1.33.08a.61.61,0,0,0,.47-.17c.4-.37.6-2.1.72-5.89H231.5c-.27,3.07-1.05,6-3.45,8l-.13-.14c1.78-3,1.93-6.85,1.81-10.47h-1.51l-.12-.42h5.1l.88-1.18s1,.81,1.62,1.36c0,.17-.21.24-.42.24h-3.66q0,1.08-.09,2.16h1.16l.87-.87Zm-4.87-6.05c4.11.75,2.55,3.83,1,2.62a5.12,5.12,0,0,0-1.13-2.54Zm12.19,5.3,0,.21a2.13,2.13,0,0,0-1.24,1.5,13.06,13.06,0,0,1-2.31-5.59,13.85,13.85,0,0,1-4.14,5.82l-.15-.12a18.31,18.31,0,0,0,2.68-7.2l2.42.55c-.05.21-.2.32-.6.36A8.35,8.35,0,0,0,242.39,55.56Zm-7,4.34c6.92.87,6.26,5.05,4.13,4.14a14.24,14.24,0,0,0-4.23-4Zm1.26-3.83c4.37.09,3.53,3.24,1.83,2.46a8,8,0,0,0-2-2.35Z"/><path class="cls-1" d="M247.68,61.37c.76-.17,1.56-.35,2.32-.54l.05.19a45.76,45.76,0,0,1-5.18,2.57.6.6,0,0,1-.37.39l-.8-1.86.65-.11v-5l1.59.16c0,.14-.08.23-.32.27v4.31l.6-.12V55.34h-.36v.25c0,.11-.45.44-1.18.44h-.26V50.61l1.64.72h1.63l.69-.73,1.47,1.09a.89.89,0,0,1-.55.27v3.48a2.2,2.2,0,0,1-1.22.36h-.24v-.46h-.16v2.79h.18l.69-1.1s.78.77,1.2,1.29a.36.36,0,0,1-.38.24h-1.69Zm-1.82-6.48h2V51.75h-2ZM254.34,53a6.8,6.8,0,0,0,3.79,2.27v.16a1.7,1.7,0,0,0-1.19,1.46A6.43,6.43,0,0,1,254,53h-1a10.66,10.66,0,0,1-2,2.7h2.14l.77-1s.85.69,1.38,1.19c0,.16-.2.24-.41.24h-3.84l-.1-.38a9.19,9.19,0,0,1-1.73,1.35l-.18-.13a14.13,14.13,0,0,0,2.21-4h-1.56l-.12-.43h1.83a17.4,17.4,0,0,0,.61-2.39l2.33.68a.51.51,0,0,1-.59.3,14.25,14.25,0,0,1-.58,1.41h2l.94-1.2s1.08.81,1.74,1.39c0,.17-.19.24-.42.24ZM255.57,59l1.47,1.2a.93.93,0,0,1-.59.24c-.19,1.86-.57,3-1.26,3.45a3.27,3.27,0,0,1-1.78.42,1.3,1.3,0,0,0-.32-1,2.9,2.9,0,0,0-1.39-.54v-.21c.64.06,1.69.12,2,.12s.38,0,.48-.1c.3-.2.54-1.07.69-2.36H252l-.64.71-1.59-1a2.06,2.06,0,0,1,.66-.36c.21-.45.42-1,.55-1.37h-1.18l-.12-.43h4.84l.84-1s1,.69,1.55,1.21c-.05.17-.2.24-.41.24h-3.7c-.2.45-.47,1.1-.71,1.61h2.63Z"/><path class="cls-1" d="M268,56.55c1.22,1.19,3.5,1.8,5.51,2l0,.18a1.87,1.87,0,0,0-1.26,1.61,10,10,0,0,1-2.79-1.53v5a2.23,2.23,0,0,1-1.38.46h-.34V58.14l1.05.11a6.32,6.32,0,0,1-1.16-1.7h-1.32a7.2,7.2,0,0,1-1.75,1.73l1.15.12c0,.18-.13.33-.48.37V60c0,1.72-.84,3.49-5.26,4.3l-.09-.16c3.09-1.07,3.63-2.66,3.63-4.17V58.92a15.7,15.7,0,0,1-4,1.38l-.11-.21a9.89,9.89,0,0,0,4.73-3.54h-1v.24c0,.18-.75.56-1.48.56h-.26V50.41l1.86.73h6.47l.81-.9,1.71,1.3a1,1,0,0,1-.6.32v4.89a2.75,2.75,0,0,1-1.47.43h-.3v-.63Zm-4.89-5v2h2.45v-2Zm0,4.55h2.45V54h-2.45Zm4.16-4.55v2h2.58v-2Zm2.58,4.55V54h-2.58v2.12Z"/><path class="cls-1" d="M283.87,52.1a16.33,16.33,0,0,1-1.35,2.58l.93.34c-.05.14-.18.24-.47.29V63.9a2.64,2.64,0,0,1-1.47.39h-.33V56.52a19.51,19.51,0,0,1-6.06,5l-.12-.12a20.53,20.53,0,0,0,6.51-9.28h-6.18l-.12-.42H286l1.08-1.38s1.23.93,2,1.56c0,.16-.21.24-.43.24Zm-.27,3.79c6.79,1.47,6,5.52,4,4.53A15.63,15.63,0,0,0,283.46,56Z"/><path class="cls-1" d="M12.72,84.51c-.09.13-.24.21-.59.13A24.91,24.91,0,0,1,9.1,86,11.16,11.16,0,0,0,14,87.48l0,.16a2.05,2.05,0,0,0-1.41,1.64c-3.13-.89-5-2.28-5.86-6H4.41v3.63l2.92-.71,0,.18a41.7,41.7,0,0,1-3.92,2.49,1.19,1.19,0,0,1-.48.47l-1-2c.59-.32.68-.48.68-.78v-3.3H.13L0,82.84H11.41l.92-1.23S13.38,82.45,14,83a.39.39,0,0,1-.41.24H10.93ZM3.93,81.72c0,.18-.77.57-1.49.57H2.19V75.46l1.86.74H9.93l.81-.9,1.71,1.3a1,1,0,0,1-.6.32v4.62a3,3,0,0,1-1.47.42h-.3v-.62H3.93Zm0-5.09v1.91h2.2V76.63Zm2.2,4.29V79H3.93v2ZM7,83.28a5.55,5.55,0,0,0,1.69,2.38,19.16,19.16,0,0,0,2-2.38Zm.84-6.65v1.91h2.22V76.63Zm2.22,4.29V79H7.86v2Z"/><path class="cls-1" d="M21.85,84.12l1.64,1.21a1,1,0,0,1-.59.32v3a2.9,2.9,0,0,1-1.38.38h-.27v-.92H18.58v.68c0,.1-.48.45-1.29.45H17V86.62a6.23,6.23,0,0,1-2,2.22l-.15-.15c1.38-2,1.5-4.62,1.5-6.69V79.72a11.07,11.07,0,0,1-1.51.92l-.12-.14a14.2,14.2,0,0,0,3.37-5.35l2.43.5c-.06.17-.19.26-.58.32,5.13.93,3.34,4,2,3a5.9,5.9,0,0,0-2.13-2.82,13.49,13.49,0,0,1-2,2.42h1.8l.75-1s.87.66,1.4,1.14a.38.38,0,0,1-.41.24H17.68l-.06-.23c-.28.26-.58.51-.88.74l1.5.55H21l.76-.84,1.64,1.22a1.22,1.22,0,0,1-.62.33v3a2.81,2.81,0,0,1-1.36.39h-.27v-.45H17.89c0,.3-.07.6-.13.92l1,.39H21.1Zm-.73-.89V82.06H18c0,.36,0,.75,0,1.17ZM18,80.44v1.2h3.14v-1.2Zm3.27,7.25V85.38H18.58v2.31Zm4.32-2.1c0,.16-.66.46-1.23.46h-.28v-9.6l2,.2c0,.19-.15.33-.51.39ZM29,75.67c-.05.23-.2.38-.56.42V87.3c0,1.17-.24,1.83-2.11,2a2.1,2.1,0,0,0-.35-1.19,1.93,1.93,0,0,0-1.27-.55v-.21s1.48.09,1.8.09.31-.08.31-.27V75.45Z"/><path class="cls-1" d="M42.45,79.23s1.08.88,1.71,1.5c0,.16-.2.24-.41.24H42.46v7.84c0,.11-.52.47-1.42.47h-.3V81H39.3v.54c0,2.68-.26,5.8-3.6,7.77l-.17-.17c1.86-2.16,2.07-4.9,2.07-7.63v-.42a.47.47,0,0,1-.33.1H34.42V83h.71l.78-1.07s.87.74,1.38,1.25a.36.36,0,0,1-.39.24H34.42v5.52c0,.09-.51.37-1.38.37h-.3V84.91h0a10.43,10.43,0,0,1-2.58,3.32L30,88.06a13.3,13.3,0,0,0,1.33-4.23l1.44.63V83.37H30.31L30.19,83h2.55V81.16H30l-.12-.43h4a21.3,21.3,0,0,0,.67-2.82H31.42c3.06,1.36,1.5,3.64.38,2.49a6.38,6.38,0,0,0-.62-2.46l.09,0h-1l-.12-.44h3.15a1.35,1.35,0,0,1-.36-.21,4.26,4.26,0,0,0-.79-2l.12-.08c2.71.39,2.58,1.93,1.75,2.29h1l.77-1.06s.9.73,1.44,1.26a.38.38,0,0,1-.41.24h-1.9l1.8.55c-.06.18-.24.3-.56.27a16.66,16.66,0,0,1-1.75,2h1l.83-1.11s.84.7,1.39,1.23V76.44l1.76.55A15.4,15.4,0,0,0,42,75.21l1.84,1.47c-.16.15-.46.18-.91,0a22.45,22.45,0,0,1-3.66.78v3h2.19ZM34.63,84c3.35,1.41,1.86,4,.65,2.83a6,6,0,0,0-.8-2.76Z"/><path class="cls-1" d="M46.93,84a3,3,0,0,0,1.61-2c-.84-.33-1.49-.72-1.49-1.47a1.13,1.13,0,0,1,1.19-1.14c.72,0,1.27.54,1.27,1.53a3.9,3.9,0,0,1-2.32,3.6Z"/><path class="cls-1" d="M59.14,82l1.59,1.33a.93.93,0,0,1-.63.27c-.25,2.79-.78,4.64-1.63,5.27a3.48,3.48,0,0,1-2.15.55A1.47,1.47,0,0,0,56,88.21a4.21,4.21,0,0,0-1.79-.64v-.21c.87.07,2.19.16,2.55.16a.81.81,0,0,0,.57-.15c.47-.34.86-1.92,1.07-4.11H54.9l-.6.74-1.56-.93a2.76,2.76,0,0,1,.52-.35c.2-1.06.41-2.8.47-3.75l1.93.72h2.49V76.8H53l-.13-.44H58l.8-.83,1.63,1.22a1,1,0,0,1-.55.29v3.39a3,3,0,0,1-1.44.4h-.29v-.72H55.27c-.09.81-.27,1.92-.4,2.73h3.36Zm6.33-6.36c0,.21-.15.37-.55.43v12.6c0,.21-.78.65-1.47.65H63.1V75.38Z"/><path class="cls-1" d="M68.58,80.11a8.17,8.17,0,0,1-1,.77l-.15-.11a16.12,16.12,0,0,0,2.46-5.59l2.27.72c-.06.19-.21.3-.62.33l-.19.39c3.76,1,2.82,3.69,1.38,2.82A8,8,0,0,0,71.13,77a13.09,13.09,0,0,1-2.48,3H71.1l.73-1s.83.69,1.34,1.18c0,.17-.2.24-.41.24H68.68Zm5.41,3c-.12.14-.3.17-.6.2a12.09,12.09,0,0,1-2.17,2.83c2,1.56,1,3.56-.35,2.64a9.24,9.24,0,0,0-2.19-3.66l.14-.1a7.25,7.25,0,0,1,2,.88A17.61,17.61,0,0,0,71.71,83H68.13L68,82.53h3.62l.87-.89Zm5.81-7.9s1,.81,1.69,1.39c0,.17-.19.24-.42.24H78.12a11.91,11.91,0,0,1-1.46,1.65h2.13l.77-.82,1.54,1.2a1,1,0,0,1-.52.27v6.63a2.36,2.36,0,0,1-1.37.45h-.28v-.57H76v.24s0,.1-.13.18l1.75.94c-.07.14-.22.17-.48.11A10.12,10.12,0,0,1,73,89.23L72.84,89a9.65,9.65,0,0,0,2.82-2.88,2.43,2.43,0,0,1-1,.25h-.26V77.77l1.68.69h.17c0-.43.06-1.09.07-1.65H73.77l-.12-.43h5.23ZM76,78.9v1.78h2.93V78.9Zm0,4h2.93V81.12H76Zm2.93,2.27V83.37H76V85.2Zm-1,1c4.69.54,3.79,3.77,2.1,2.88a8.57,8.57,0,0,0-2.22-2.76Z"/><path class="cls-1" d="M91.3,77.46c6.09,1.56,5.06,5.62,3.14,4.45a7.5,7.5,0,0,0-.84-1.6c-2.21.45-5.42,1-9.32,1.54a.86.86,0,0,1-.45.32l-.6-2a2.3,2.3,0,0,0,.6-.18,14,14,0,0,0,4.49-4.78l2.44,1c-.06.17-.25.29-.6.26a22.77,22.77,0,0,1-5.25,3.75c2,0,5.15-.12,8.42-.24a14.57,14.57,0,0,0-2.16-2.36Zm1.79,4.66,1.84,1.43a1.21,1.21,0,0,1-.69.36v4.83a3.35,3.35,0,0,1-1.56.42h-.3V87.9H86.65v.76c0,.18-.82.6-1.59.6h-.27V82.35l2,.76H92.2Zm-.71,5.36V83.55H86.65v3.93Z"/><path class="cls-1" d="M97.39,78.87c3.65.7,2.18,3.34.81,2.25a4.35,4.35,0,0,0-1-2.15Zm3.3.25c-.31,1.52-.91,4.28-1,4.94a6,6,0,0,0-.12,1.3c0,.78.58,1.4.52,2.73a1.13,1.13,0,0,1-1.12,1.2c-.32,0-.62-.24-.71-.79.27-1.56.2-3-.1-3.21a1.38,1.38,0,0,0-.74-.24v-.3H98c.2,0,.24,0,.41-.3.24-.5.24-.5,2-5.37Zm-2.44-3.78c3.82.74,2.31,3.48.88,2.34a5.25,5.25,0,0,0-1-2.23Zm5,3.53c2,1.09,1,2.58.26,1.83a2.3,2.3,0,0,0,0-.45c-.54.22-1.29.51-2,.78a.61.61,0,0,1-.28.24L100.57,80a1.81,1.81,0,0,0,.36-.12,6.06,6.06,0,0,0,1.2-1.38l-.67.27a.73.73,0,0,1-.33.31l-.6-1.39a1.76,1.76,0,0,0,.34-.12,6.57,6.57,0,0,0,1.38-2.44l1.56.7c-.06.12-.22.24-.54.21a12.43,12.43,0,0,1-1.84,1.77c.33,0,.73,0,1.15,0a7.58,7.58,0,0,0,.53-1l1.41.88a.53.53,0,0,1-.57.17A14.24,14.24,0,0,1,101.71,80c.48,0,1-.08,1.62-.14a5.9,5.9,0,0,0-.31-.9Zm8.31,7.84a.79.79,0,0,1-.58.24,2.79,2.79,0,0,1-1.19,2.1,3.89,3.89,0,0,1-1.81.32,1.16,1.16,0,0,0-.32-1,2.84,2.84,0,0,0-1.42-.54v-.2c.66.06,1.72.12,2,.12a1,1,0,0,0,.48-.07,1.74,1.74,0,0,0,.48-1h-5.94l-.58.66-1.55-.93a3.17,3.17,0,0,1,.59-.36,18.59,18.59,0,0,0,.54-2l1.83.82h4.74v-1h-7.14l-.14-.43c-.46.51-1.33,0-.73-.81a1.62,1.62,0,0,0,.52-1.26h.23c.39,1.12.25,1.77,0,2.07h7.14l.45-.48-.12-.14A4.67,4.67,0,0,0,109,81l.21,0c.94.76.91,1.53.6,1.84l1.23.92a1,1,0,0,1-.54.27v1.21a3,3,0,0,1-1.38.36h-.3v-.31H103.6c-.1.33-.22.69-.33,1h5.85l.86-.78Zm-9.16-5.61c1.57,1.35.42,2.66-.2,1.85a4.93,4.93,0,0,0,0-1.8Zm.85-.27c1.91,1.11,1,2.52.24,1.82a4.13,4.13,0,0,0-.43-1.73Zm.75-3.49-.12-.44h2.42l.57-.7s.63.51,1,.9a.36.36,0,0,1-.39.24Zm3.32.4a1.25,1.25,0,0,0,.34-.1,6.44,6.44,0,0,0,1.52-2.45l1.54.71a.48.48,0,0,1-.54.21,11.63,11.63,0,0,1-1.92,1.75l1.26,0a7.47,7.47,0,0,0,.53-.94l1.41.9a.52.52,0,0,1-.57.16A15.55,15.55,0,0,1,108.49,80c.5,0,1.13-.09,1.77-.15a3.65,3.65,0,0,0-.39-.84l.18-.08c2.22,1,1.2,2.57.41,1.83,0-.16,0-.34-.09-.52-.57.21-1.4.52-2.19.79a.92.92,0,0,1-.27.23l-.29-.65a.55.55,0,0,1-.33.17v1.81c0,.12-.51.33-.82.33h-.17v-.43h-.87v.27a.91.91,0,0,1-.79.33h-.15V79.89l1.12.49h.6l.47-.46.93.7-.26-.55a1.31,1.31,0,0,0,.36-.12,6.45,6.45,0,0,0,1.34-1.46c-.29.11-.56.23-.84.33a.66.66,0,0,1-.33.33l-.35-.81c0,.12-.18.18-.36.18h-2.73l-.12-.43h1.74l.53-.63s.52.42.9.76Zm-.68.8s.57.46,1,.82c0,.17-.17.24-.38.24h-2.73l-.12-.43h1.76Zm-1.9-3.39c2.49.45,1.41,2.26.45,1.51a2.53,2.53,0,0,0-.62-1.4Zm1.6,6.94V80.82h-.87v1.27Zm2-1c1.07,3-1.74,2.4-.76,1.13a1.42,1.42,0,0,0,.55-1.13Zm1.76-.39c1.92,1.08.94,2.52.24,1.82a4.22,4.22,0,0,0-.45-1.74Z"/><path class="cls-1" d="M124.56,86.74s1.21.93,2,1.56c0,.17-.21.24-.43.24H112.56l-.12-.43h6v-4.5h-4.12l-.12-.44h4.24V79.33H115.8A11.79,11.79,0,0,1,112.47,83l-.17-.14a20.41,20.41,0,0,0,2.79-7.14l2.52.75c0,.18-.24.32-.58.32a15.85,15.85,0,0,1-1,2.11h2.41V75.29l2.49.24c0,.22-.15.37-.55.43v3h2.37l1-1.27s1.16.84,1.89,1.45c0,.17-.21.24-.45.24h-4.84v3.84h1.87l1-1.3s1.2.88,1.92,1.5c0,.16-.19.24-.4.24h-4.44v4.5h3.09Z"/><path class="cls-1" d="M127.48,78.76c4,.18,2.9,3.24,1.32,2.28a4.69,4.69,0,0,0-1.44-2.16Zm4.71-.36c-.61,1.71-1.72,4.92-1.93,5.67a5.81,5.81,0,0,0-.26,1.41c0,.78.65,1.29.6,2.6a1.22,1.22,0,0,1-1.29,1.24.85.85,0,0,1-.82-.76c.28-1.58.22-2.91-.14-3.15a1.54,1.54,0,0,0-.79-.26v-.27h.7c.23,0,.3,0,.48-.31.35-.56.35-.56,3.23-6.24Zm-3.58-2.92c4.18.18,3.12,3.3,1.45,2.4a6.09,6.09,0,0,0-1.57-2.28ZM140,78.87s1.06.88,1.69,1.48c0,.17-.21.24-.42.24h-3.9v2.88h1.26l.83-.9,1.69,1.31a1.08,1.08,0,0,1-.61.31v4.49a2.55,2.55,0,0,1-1.46.49h-.3V87.94h-4.54v.77c0,.16-.75.54-1.49.54h-.22v-6.5l1.8.72h1.26V80.59h-3.8l-.12-.43h3.92V77.61c-1.22.12-2.49.21-3.66.24l0-.23a39.37,39.37,0,0,0,7.41-2.28L141,77a1.06,1.06,0,0,1-1,0c-.75.15-1.68.3-2.69.42v2.75H139Zm-5.76,5v3.6h4.54v-3.6Z"/><path class="cls-1" d="M154.48,83.22s1.13.84,1.79,1.42c0,.17-.2.24-.41.24H150c-.5,2.09-1.86,3.54-7.31,4.43l-.09-.24c3.78-1.14,5-2.45,5.43-4.19h-4.81l-.12-.43h5a15,15,0,0,0,.15-1.76l2.49.18c0,.21-.18.38-.52.42-.05.41-.09.78-.15,1.16h3.4Zm-6-1.11V80.32h-4.13l-.12-.43h4.25v-1.7H143.5l-.13-.43h3.79a1.59,1.59,0,0,1-.49-.24,4.08,4.08,0,0,0-1-2.13l.12-.09c3.17.27,2.9,2.19,1.86,2.46h2.78a20.53,20.53,0,0,0,.82-2.52l2.36.53c-.06.19-.23.31-.57.29a17,17,0,0,1-2.13,1.7h2.34l1-1.2s1.09.81,1.74,1.39c-.05.17-.2.24-.42.24h-5.18v1.7h2.06l.9-1.11s1,.75,1.66,1.3c0,.17-.21.24-.42.24h-4.2v1.79h3.21l1-1.25s1.11.84,1.74,1.44c0,.17-.2.24-.39.24h-13l-.12-.43Zm2.08,3.27c6.66.55,6.33,4.42,4.29,3.76a15.87,15.87,0,0,0-4.41-3.61Z"/><path class="cls-1" d="M159.51,81.34a1.59,1.59,0,0,1-.8,1.86c-1.14.48-1.9-1-.64-1.62a1.74,1.74,0,0,0,.81-1.63l.18,0a7.22,7.22,0,0,1,.37,1h.21l-.15-5,1.37.27a12.29,12.29,0,0,0,1.18-1l1.2.92,0,0a6.59,6.59,0,0,1,1.15.15,4.56,4.56,0,0,0,.54-.9l1.38.71c-.06.13-.21.16-.48.1a3.58,3.58,0,0,1-.51.53c.75.6.41,1.39-.3,1.15a4.6,4.6,0,0,0-.49-.54,8.91,8.91,0,0,1-1.58.84l0,0c0,.12-.18.16-.34.16H161.1l0,1.16h.35l.55-.74s.63.53,1,.93c0,.17-.18.24-.37.24h-1.55l.05,1.11h6.45l0-1.11h-1.23l-.12-.43h1.38l0-1.16h-1.25l-.13-.42h1.41l.06-1.17h-1.49l-.12-.43h1.47l.66-.78,1.58,1.2a.75.75,0,0,1-.53.21l-.19,3.94L170,80l1.56,1.5c-.12.12-.27.15-.57.17-.57.34-1.53.84-2.16,1.12l-.13-.1c.12-.35.3-.92.43-1.37Zm10,2.61s1.05.87,1.66,1.46c0,.16-.19.24-.42.24h-5.34v1.56c0,1.23-.27,1.9-2.29,2.08a2.16,2.16,0,0,0-.38-1.23,2.07,2.07,0,0,0-1.38-.58v-.21s1.7.1,2,.1.3-.06.3-.25V85.65H157.9l-.12-.44h5.87V84l1.33.12c.38-.33.77-.7,1.08-1h-5.35l-.14-.44h5.73l.95-.9,1.62,1.43a.93.93,0,0,1-.62.18c-.66.25-1.53.58-2.38.84,0,.22-.18.33-.5.37v.63h3.15ZM162,77.11s.51.39.88.75A8.25,8.25,0,0,0,164,76.77a8.17,8.17,0,0,0-.72-.48.74.74,0,0,1-.38,0,13.93,13.93,0,0,1-1.86.39l0,1.15h.38Zm4.59,1.5c-.08.15-.24.18-.48.12a4.21,4.21,0,0,1-.59.62c.77.69.36,1.56-.4,1.24a3.73,3.73,0,0,0-.45-.63,8.17,8.17,0,0,1-1.85.86l-.12-.23a7.07,7.07,0,0,0,1.41-1.17,9.56,9.56,0,0,0-.91-.67l.15-.15a5,5,0,0,1,1.27.24,4.92,4.92,0,0,0,.57-.89Z"/><path class="cls-1" d="M181.21,77.1a16.33,16.33,0,0,1-1.35,2.58l.93.34c0,.14-.18.24-.46.29V88.9a2.67,2.67,0,0,1-1.47.39h-.33V81.52a19.62,19.62,0,0,1-6.06,5l-.12-.12a20.61,20.61,0,0,0,6.51-9.28h-6.18l-.12-.42h10.81l1.08-1.38s1.23.93,2,1.56c0,.16-.21.24-.44.24Zm-.27,3.79c6.8,1.47,6.05,5.52,4,4.53A15.77,15.77,0,0,0,180.81,81Z"/><path class="cls-1" d="M200.1,79.23s1,.81,1.57,1.36c0,.17-.19.24-.4.24h-1.14v8a1.56,1.56,0,0,1-1.28.45h-.27V80.83h-1.26V82c0,2.56-.18,5.49-3,7.38l-.18-.17a6.49,6.49,0,0,0,.78-1.35H189.4l-.48.75-1.47-.93a2.58,2.58,0,0,1,.45-.39V75.6l1.8.19c0,.17-.13.27-.4.32v1.41l.18-.08a5.69,5.69,0,0,0,1.05-2.1l1.44.71a.49.49,0,0,1-.53.22,12.77,12.77,0,0,1-1.33,1.32h1.06c.14-.28.26-.54.35-.73l.94.6.09,0a5.62,5.62,0,0,0,1.11-2.11l1.43.75c-.06.13-.24.24-.54.19a11.29,11.29,0,0,1-1.35,1.32h1a7.28,7.28,0,0,0,.49-1l1.13.75v-1l1.51.48a20.52,20.52,0,0,0,2.45-1.66l1.8,1.51c-.18.17-.5.18-.93,0a25.49,25.49,0,0,1-3.32.62v3h1.89Zm-10.8-1.41v2a2.79,2.79,0,0,0,.34-.12,5.92,5.92,0,0,0,1.25-1.61l-.89.39a.84.84,0,0,1-.28.26Zm3,.06A14.68,14.68,0,0,1,190.18,80c.33,0,.75,0,1.17,0a2.41,2.41,0,0,0-.27-.67l.2-.09c1.95,1,.88,2.47.18,1.74a2.67,2.67,0,0,0,0-.56c-.34.17-.84.38-1.26.56a.61.61,0,0,1-.3.28l-.58-1.33v1.42h4.78l.53-.66a2.37,2.37,0,0,0-.08-.57c-.34.17-.87.39-1.32.59a.7.7,0,0,1-.3.25l-.58-1.3a2.11,2.11,0,0,0,.36-.11,5.59,5.59,0,0,0,1.17-1.39l-.74.31a.62.62,0,0,1-.33.33l-.37-.84Zm2,8.76.82.72a16.11,16.11,0,0,0,.68-5.43V81.6a.46.46,0,0,1-.32.1h-1.81l1.21.65a.53.53,0,0,1-.55.21,10.61,10.61,0,0,1-1.25,1.27l.89,0a7.9,7.9,0,0,0,.46-.93l1.32.86a.48.48,0,0,1-.55.16,15.55,15.55,0,0,1-2,1.94l1.18-.06a3.32,3.32,0,0,0-.25-.77l.21-.09c1.74,1.11.72,2.45.1,1.73a2.17,2.17,0,0,0,0-.51c-.34.16-.85.4-1.33.61a.88.88,0,0,1-.36.41l-.59-1.35a1.83,1.83,0,0,0,.38-.11,6.56,6.56,0,0,0,1-1.23l-.66.33a.74.74,0,0,1-.3.29l-.5-1.11a14.79,14.79,0,0,1-2,2l1.16,0a3,3,0,0,0-.24-.72l.19-.09c1.74,1.09.72,2.4.09,1.69a1.93,1.93,0,0,0,0-.48c-.36.18-.87.39-1.29.59a.62.62,0,0,1-.25.22l-.54-1.2v1.46h4.41Zm-5-2.93a.53.53,0,0,0,.19-.06,4.69,4.69,0,0,0,1.11-2h-1.3Zm0,2.18.31-.11a5.64,5.64,0,0,0,1.14-1.41c-.22.12-.49.26-.75.38a.63.63,0,0,1-.25.24l-.45-1Zm3.24-2.28a6.05,6.05,0,0,0,1-1.91h-2.88l1.34.71a.53.53,0,0,1-.56.21,9.75,9.75,0,0,1-1.23,1.15h.93a7.74,7.74,0,0,0,.41-.81Zm1.87-3.92a3,3,0,0,0-.36-.69,9.41,9.41,0,0,1-.84.72Zm1.4-2.1a.89.89,0,0,1-.41,0A15.86,15.86,0,0,1,194.1,79l.15-.06c1.56.71,1.39,1.74.9,1.89l.66.59Z"/><path class="cls-1" d="M207.81,82.9a1.85,1.85,0,0,1-.39.08A8.3,8.3,0,0,1,205.11,86a.73.73,0,0,1,.31.15c1.19,1,3,1.18,6.21,1.17,1.76,0,3.2,0,4.94-.11v.18a1.63,1.63,0,0,0-1.22,1.47h-4.3c-3.21,0-4.53-.61-5.81-2.17-.22-.27-.39-.24-.52,0a18.26,18.26,0,0,0-1,2,.25.25,0,0,1-.12.3l-1.2-1.69c.55-.3,1.3-.8,1.81-1.11a10.34,10.34,0,0,0,1.41-3.45h-.81l-.55.51-1.38-1a2.26,2.26,0,0,1,.58-.3,28.11,28.11,0,0,0,1.44-2.46h-2.14l-.14-.44H205l.77-.76,1.45,1.32a25.69,25.69,0,0,0,1.43-4.52L211,76c0,.19-.24.33-.58.31a17.12,17.12,0,0,1-.86,1.65l.15.06h2.18a1,1,0,0,1-.42-.25,5.13,5.13,0,0,0-.8-2.49l.15-.07c2.64.82,2.43,2.5,1.62,2.81h1.08l.9-1.09s1,.75,1.62,1.29c0,.16-.21.24-.42.24h-2.89v2h.66l.87-1.08s1,.73,1.56,1.27c0,.17-.18.24-.41.24h-2.68v2h.66l.87-1.08s1,.73,1.56,1.27c0,.17-.18.24-.41.24h-2.68v2.24h1l.92-1.17s1.06.79,1.71,1.36c0,.17-.21.24-.42.24h-6.42v.32c0,.12-.53.51-1.41.51h-.3Zm-4.61-7.44c4.26.2,3,3.45,1.31,2.4a5.07,5.07,0,0,0-1.43-2.31Zm2.36,7,.9-.87,1.35,1.09V80.25a12.18,12.18,0,0,1-1.07,1l-.18-.12c.2-.36.39-.78.59-1.23a1.58,1.58,0,0,1-.72.15c-.38.63-1,1.65-1.44,2.37Zm4-4v2h1.53v-2Zm1.53,2.47h-1.53v2h1.53Zm0,2.46h-1.53v2.24h1.53Z"/><path class="cls-1" d="M217.35,83.35a24.42,24.42,0,0,0,3.55-8.16l2.52.82c-.06.17-.25.31-.61.29a18.75,18.75,0,0,1-1.56,3.14l.67.25c0,.14-.18.23-.46.29v8.79a2.16,2.16,0,0,1-1.44.51h-.33V81.52a14,14,0,0,1-2.16,2ZM231,87c.54.21.7.4.7.73,0,.78-.78,1.07-3.78,1.07h-1.81c-1.73,0-2.34-.33-2.34-1.74V75.49l2.2.24c0,.2-.15.36-.54.42v4.46h3.41l.84-1.2s1,.82,1.54,1.38c0,.16-.18.24-.4.24H225.4v5.61c0,.45.21.58.9.58H228c.66,0,1.18,0,1.45,0A.67.67,0,0,0,230,87a11.27,11.27,0,0,0,.76-2h.17Z"/><path class="cls-1" d="M233.61,82.26a2.12,2.12,0,1,1,2.13,2.13A2.13,2.13,0,0,1,233.61,82.26Zm.54,0a1.58,1.58,0,1,0,1.59-1.58A1.59,1.59,0,0,0,234.15,82.26Z"/></g></g></svg>