<svg xmlns="http://www.w3.org/2000/svg" viewBox="0 0 800.14 56.1"><defs><style>.cls-1{fill:#231815;}</style></defs><g id="圖層_2" data-name="圖層 2"><g id="圖層_1-2" data-name="圖層 1"><path class="cls-1" d="M4.36,18.66v-16L9.46.24l.4.77L5.26,3.17v15l4.6,2.16-.4.77Z"/><path class="cls-1" d="M22.33,6.84c.79,4.27,3.41,8.65,9.66,11.36l0,.26A2.78,2.78,0,0,0,29.55,21c-5-3.19-6.78-8.52-7.44-13a16.37,16.37,0,0,1-2.26,6.54c6.07,2.11,3.43,6.75,1,4.6A9.62,9.62,0,0,0,19.49,15c-1.6,2.29-4.16,4.34-8.14,6l-.22-.33c6.21-4.05,7.88-8.75,8.32-13.84H11.73l-.2-.61h8c.13-1.9.11-3.83.11-5.81L23.3.79c0,.31-.24.53-.79.62-.05,1.63-.09,3.23-.22,4.82H27l1.61-2s1.8,1.37,2.86,2.29c-.07.24-.31.35-.64.35Z"/><path class="cls-1" d="M51.09,10.08s1.74,1.27,2.79,2.18c-.06.24-.31.35-.64.35H44.79v7.61c0,.18-.83.75-2.2.75h-.48V12.61H33.4L33.22,12h8.89V2.79H34.39l-.2-.63H48.62L50.18.29S51.9,1.56,53,2.44c-.07.24-.31.35-.64.35H44.79V12h4.76ZM36.23,4C42.62,7.13,40,12.28,37.62,10A16.07,16.07,0,0,0,36,4.11Zm10,6.66a51.14,51.14,0,0,0,2.31-6.75L51.9,5.19c-.09.24-.35.44-.86.4a21.65,21.65,0,0,1-4.62,5.24Z"/><path class="cls-1" d="M55.29,5.9c6,.24,4.26,4.75,2,3.32a7.21,7.21,0,0,0-2.11-3.17Zm7.35-2.14c-.93,2.86-2.62,8.14-2.93,9.4a8.36,8.36,0,0,0-.35,2.18c0,1.14.94,1.89.85,3.82A1.78,1.78,0,0,1,58.34,21a1.2,1.2,0,0,1-1.18-1.14c.37-2.27.26-4.23-.25-4.58a2,2,0,0,0-1.14-.35V14.5h1c.33,0,.42,0,.64-.46.53-.88.53-.88,4.89-10.37Zm-5.59-3c6.14.24,4.57,4.84,2.13,3.5A9.11,9.11,0,0,0,56.87.92Zm16.41,12.1S75,14.17,76,15.05c-.07.24-.29.35-.6.35H69.72v4.86c0,.16-.81.69-2.16.69h-.48V15.4H61.49l-.18-.64h5.77V10.63h-4.4L62.5,10h4.58V6.05H62.31l-.18-.62h6.71A43.82,43.82,0,0,0,70.45.26l3.52,1c-.09.24-.31.44-.82.41a32.11,32.11,0,0,1-3.74,3.74H71.9L73.26,3.7s1.52,1.21,2.45,2c-.07.24-.29.35-.62.35H69.72V10H71.5l1.3-1.78s1.47,1.23,2.36,2.07c-.07.24-.29.35-.6.35H69.72v4.13h2.35ZM63.52.44C69.59,2,67.3,6.47,65,4.62a9.17,9.17,0,0,0-1.69-4Z"/><path class="cls-1" d="M85.25,9.68c-.15.24-.35.31-.83.38a17.81,17.81,0,0,1-2,6.29c2.39,1.3,5.67,1.58,10.23,1.58,1.14,0,3.8,0,5.19,0v.26a2.13,2.13,0,0,0-1.56,2.16H92.47c-5.11,0-8.56-.53-11-2.66A11.74,11.74,0,0,1,77.18,21L77,20.68a10.55,10.55,0,0,0,3.37-4.18A15.55,15.55,0,0,1,78,11l.24-.13a10.55,10.55,0,0,0,2.71,4.36A22.9,22.9,0,0,0,82,9.73H80.7l-.77.79L77.77,9.13a2.61,2.61,0,0,1,.79-.46,59.49,59.49,0,0,0,2.49-5.46H77.4l-.2-.64H81l1.1-1.1,2.2,2a1.55,1.55,0,0,1-1,.36c-.59,1.36-1.71,3.74-2.51,5.28h1l1.21-1.26ZM96.36,3.92s1.21,1.21,1.83,2a.53.53,0,0,1-.57.35H95.15v3a3.65,3.65,0,0,1-2,.59h-.37V9.13h-2v2.25h2.09l1.23-1.63s1.43,1.1,2.27,1.89c-.07.24-.27.35-.6.35h-5v2.29h2.64l1.38-1.74s1.59,1.17,2.56,2c-.07.24-.31.35-.62.35h-6v2c0,.2-1,.66-2,.66h-.49v-2.7H83.87l-.18-.64h4.66V12H84.88l-.18-.61h3.65V9.13H85.14l-.2-.64h3.41V6.25H83.51l-.17-.64h5V3.39H84.92l-.2-.62h3.63V.35l3.28.31c0,.33-.22.55-.81.64V2.77h1.74l1.1-1.19L96,3.34a1.53,1.53,0,0,1-.86.44V5.61h.16ZM90.82,5.61h2V3.39h-2Zm2,.64h-2V8.49h2Z"/><path class="cls-1" d="M106.83,3.17s1.26,1,2,1.71c0,.25-.29.36-.6.36H99.37L99.2,4.6h6.53Zm4.8.48a6.6,6.6,0,0,1-4.09,6.49c.13.14.28.27.42.4-.07.24-.29.35-.6.35h-7.08l-.18-.64h4.84L106,8.91l1.23,1a8.51,8.51,0,0,0,2.09-6.25V.92l2.71,1h1.87L115.06.66l2.14,1.76a1.43,1.43,0,0,1-.8.33V6.38c0,.22.07.31.36.31h1.14l.46,0,.51-.09h.2l.09,0c.52.26.72.48.72.93,0,.88-.75,1.36-2.86,1.36H116c-1.65,0-1.84-.46-1.84-1.89V2.53h-2.49Zm-6.69,3.77L106,6s1.19,1,1.93,1.67c-.06.24-.28.35-.59.35h-7l-.18-.63Zm.18,12.45V18.68h-2.49V20c0,.22-1,.73-1.91.73h-.33V12.19l2.33,1h2.2L106,12l2.24,1.68a1.52,1.52,0,0,1-.84.41v5.11a3.17,3.17,0,0,1-1.89.66ZM101.55.64c5.81.28,3.72,4.68,1.39,3.14a6.32,6.32,0,0,0-1.54-3Zm3.57,17.42V13.75h-2.49v4.31ZM118.6,11.2c-.15.22-.39.29-.92.33a14.92,14.92,0,0,1-3.23,4.91,18.7,18.7,0,0,0,5.5,1.89l0,.24a2.84,2.84,0,0,0-2.1,2.18,14.15,14.15,0,0,1-5-2.95,19.12,19.12,0,0,1-7.26,3.13l-.13-.29a17.08,17.08,0,0,0,6.29-4.09,13.78,13.78,0,0,1-2.35-5.44h-1.06l-.2-.64h6.78l1.41-1.34Zm-8.82-.09a9.39,9.39,0,0,0,3,4.2,13.94,13.94,0,0,0,2.2-4.2Z"/><path class="cls-1" d="M121.18,20.29l4.59-2.18V3.19L121.18,1l.39-.77,5.11,2.4v16l-5.11,2.4Z"/><path class="cls-1" d="M142.34,13.38l2.4,1.78a1.32,1.32,0,0,1-.86.46V20a4.2,4.2,0,0,1-2,.55h-.4V19.25h-3.92v1c0,.16-.7.66-1.89.66h-.39V17.05a9.44,9.44,0,0,1-2.91,3.26l-.22-.22c2-3,2.2-6.78,2.2-9.81V6.93a16.16,16.16,0,0,1-2.22,1.34l-.18-.19A20.88,20.88,0,0,0,136.88.22l3.57.73c-.09.26-.29.39-.86.48,7.53,1.36,4.91,5.85,2.91,4.36a8.58,8.58,0,0,0-3.13-4.14,19.69,19.69,0,0,1-2.93,3.54h2.64l1.11-1.41s1.27,1,2,1.68c-.06.24-.28.35-.59.35h-5.42l-.08-.33c-.42.37-.86.75-1.3,1.08l2.2.81h4l1.13-1.23,2.39,1.78a1.66,1.66,0,0,1-.9.49v4.37a4,4,0,0,1-2,.58h-.4V12.7h-4.73a13.16,13.16,0,0,1-.2,1.34l1.5.57h3.41Zm-1.08-1.3V10.36h-4.59c0,.53,0,1.1-.07,1.72ZM136.67,8V9.75h4.59V8Zm4.79,10.62V15.23h-3.92v3.38Zm6.34-3.08c0,.25-1,.69-1.81.69h-.41V2.13l3,.29c-.05.29-.22.48-.75.57ZM152.75,1c-.07.33-.29.55-.81.62V18c0,1.72-.36,2.69-3.11,2.95a3,3,0,0,0-.5-1.74,2.89,2.89,0,0,0-1.87-.81v-.31s2.17.13,2.64.13.46-.11.46-.39V.66Z"/><path class="cls-1" d="M172.09,16.83s1.8,1.34,2.88,2.27c-.07.24-.31.35-.64.35h-20l-.18-.62h11.16a113.52,113.52,0,0,0,2.86-11.77l3.78,1a.78.78,0,0,1-.86.47,65.8,65.8,0,0,1-5.14,10.31h4.59ZM155.21,5.94,155,5.3h14.85l1.52-2s1.76,1.32,2.82,2.25c-.07.24-.31.35-.62.35Zm3,1.36c6.94,5.84,4.93,12.59,2.07,9.84a31.39,31.39,0,0,0-2.35-9.75Zm3.75-7c6.57,1.25,4.33,6.12,1.84,4.29a10.5,10.5,0,0,0-2-4.18Z"/><path class="cls-1" d="M186.43,9.26a1.52,1.52,0,0,1-.92.42c-.18,6.8-.58,9.22-1.7,10.23a3.64,3.64,0,0,1-2.57.88,2.85,2.85,0,0,0-.33-1.65,2.52,2.52,0,0,0-1.46-.77v-.31c.58.05,1.55.11,2,.11a.87.87,0,0,0,.69-.24c.59-.55.88-3.08,1.05-8.64h-2C180.8,13.8,179.65,18,176.13,21l-.2-.19c2.62-4.43,2.84-10.06,2.67-15.36h-2.23l-.17-.62h7.48L185,3.12s1.49,1.19,2.37,2c-.06.24-.3.35-.61.35h-5.37c0,1-.07,2.11-.13,3.17h1.69l1.28-1.28ZM179.28.37c6,1.1,3.74,5.64,1.45,3.85A7.4,7.4,0,0,0,179.08.51Zm17.89,7.79,0,.31a3.11,3.11,0,0,0-1.82,2.2,18.93,18.93,0,0,1-3.39-8.21A20.22,20.22,0,0,1,185.84,11l-.22-.17A26.87,26.87,0,0,0,189.55.26l3.55.82c-.07.31-.29.46-.88.53A12.24,12.24,0,0,0,197.17,8.16Zm-10.26,6.36c10.15,1.28,9.18,7.42,6.05,6.07a20.74,20.74,0,0,0-6.2-5.87Zm1.85-5.61c6.41.13,5.17,4.75,2.69,3.61a11.83,11.83,0,0,0-2.86-3.45Z"/><path class="cls-1" d="M208.8,18.33V19h-9.44v-.68l3.26-.4c0-1.36.07-2.73.07-4.09V4.91l-2.86.28V4.38l5.54-1.32.31.24-.09,3.54v7c0,1.36,0,2.73.07,4.09Z"/><path class="cls-1" d="M212.52,18.81c4-1.34,6-3.52,6.56-6.95a4.67,4.67,0,0,1-3.08,1,4.54,4.54,0,0,1-4.82-4.82c0-3.23,2.46-5.08,5.46-5.08,3.54,0,5.61,2.46,5.61,6.56,0,4.88-3.5,8.69-9.55,9.94Zm6.67-7.74a15.82,15.82,0,0,0,.09-1.72c0-4-1.08-5.59-2.64-5.59-1.39,0-2.56,1.26-2.56,3.94s1.19,4.09,3,4.09A3.25,3.25,0,0,0,219.19,11.07Z"/><path class="cls-1" d="M234.35,3.52c-4.29,1-6.69,3.59-7.2,7.24a5,5,0,0,1,3.59-1.43c2.77,0,4.44,2,4.44,4.84,0,3.1-2.11,5.19-5.37,5.19-3.5,0-5.72-2.46-5.72-6.66,0-5,4-9.09,10.12-9.73Zm-2.07,10.85c0-2.53-.93-3.81-2.58-3.81a3.71,3.71,0,0,0-2.64,1c0,.24,0,.49,0,.73,0,4.29,1.08,6.27,2.82,6.27C231.24,18.55,232.28,17.27,232.28,14.37Z"/><path class="cls-1" d="M247.55,3.32V4.8L241.94,19h-2.71l-.22-.22,7.13-13.14h-8.83V3.32Z"/><path class="cls-1" d="M267.48,12.81s1.69,1.29,2.77,2.2c-.06.24-.31.35-.64.35h-6.84V20.2c0,.18-.81.75-2.27.75H260V15.36H249.79l-.18-.64h3.74V7.61l3,1.15H260V4.42h-4.07a19.47,19.47,0,0,1-6.12,5.39l-.22-.19A29.44,29.44,0,0,0,254.92,0l3.63,1.39c-.11.26-.42.44-.93.39a19.83,19.83,0,0,1-1.27,2h9.11L267,1.91s1.68,1.24,2.78,2.16c-.07.24-.31.35-.64.35h-6.34V8.76H265L266.4,7S268,8.19,269,9c-.07.24-.31.35-.64.35h-5.59v5.35h3.17ZM260,14.72V9.37H256.1v5.35Z"/><path class="cls-1" d="M274.52,13.2a4.36,4.36,0,0,0,2.35-3c-1.23-.48-2.18-1.06-2.18-2.16a1.67,1.67,0,0,1,1.74-1.67c1.06,0,1.87.79,1.87,2.25a5.73,5.73,0,0,1-3.41,5.28Z"/><path class="cls-1" d="M296.12,14.48v-.64H293.7c-.5.57-1.12,1.21-1.67,1.72h5.37l1.16-1.26L301,16.11a1.33,1.33,0,0,1-.82.44v3.56a3.75,3.75,0,0,1-2.13.68h-.42V19.71h-9.68v.49c0,.22-1.15.75-2.14.75h-.35V14.52l2.64,1h2.75c.11-.53.24-1.19.33-1.72h-1.54v.29a3.18,3.18,0,0,1-2.15.72h-.36V9.31l2.67,1H296l1.12-1.19,2.05,1.54c.15-.59.33-1.34.46-2H286.22A3.14,3.14,0,0,1,285,11.66a1.37,1.37,0,0,1-2-.57,1.39,1.39,0,0,1,.9-1.69,3.26,3.26,0,0,0,1.63-2,12.36,12.36,0,0,1-1.87.63l-.22-.3c3.88-1.74,3.83-4.12,3.88-7.27l2.86.25c-.05.26-.22.48-.69.55a17.42,17.42,0,0,1-.19,2,17.9,17.9,0,0,0,1.82-2.14l2,1.7a.84.84,0,0,1-.95.09A18.32,18.32,0,0,1,289,4.14a2.28,2.28,0,0,1-.15.44c4.69.19,3.92,3.72,1.89,3a8.77,8.77,0,0,0-2.22-2.36,6,6,0,0,1-2.55,2,6.31,6.31,0,0,1,.2.86h6.42l-.2-.27c3.76-1.8,3.7-4.2,3.72-7.41l3,.24c-.05.28-.24.48-.71.55a14.07,14.07,0,0,1-.22,2.15A17,17,0,0,0,300,1.25L302,3a.89.89,0,0,1-1,.09A18.71,18.71,0,0,1,298,4.27c-.07.15-.13.31-.2.46,2.77.09,3.61,1.41,3.41,2.27l2.07,2a1.3,1.3,0,0,1-.86.26,17.81,17.81,0,0,1-3,1.7,1.51,1.51,0,0,1-.7.33v2.61a4.18,4.18,0,0,1-2.1.6ZM283.82,1.74c4.78.42,3.24,3.85,1.39,2.66a6.19,6.19,0,0,0-1.59-2.53Zm4.12,14.43v2.91h9.68V16.17Zm8.18-3V11h-6.49v2.26ZM292.73,1.85c4.71.48,3.13,3.89,1.3,2.68A6,6,0,0,0,292.54,2Zm6.74,6.23.37-.38-.2-.06a9.26,9.26,0,0,0-2.29-2.25c-.77,1.08-2.15,2-4.66,2.69Z"/><path class="cls-1" d="M312.78,11.38c-.16.19-.36.26-.84.28a11.33,11.33,0,0,1-3.37,4.58,1.53,1.53,0,0,1,.33.2c1.74,1.43,4.4,1.73,9.2,1.73,2.58,0,4.69,0,7.28-.17v.26a2.44,2.44,0,0,0-1.76,2.16h-6.4c-4.75,0-6.71-.88-8.58-3.17-.31-.42-.57-.37-.75,0-.37.68-.94,1.87-1.43,3a.39.39,0,0,1-.17.47l-1.74-2.51c.88-.49,2.18-1.39,2.95-1.81a16,16,0,0,0,1.93-4.9h-1.3l-.79.72-2-1.43a3.8,3.8,0,0,1,.88-.42c.72-1,1.65-2.53,2.24-3.58h-3.39l-.2-.64h3.7l1.1-1.1,2.16,2a1.81,1.81,0,0,1-1.19.35c-.55.93-1.5,2.42-2.22,3.48h.94l1.24-1.23ZM305.69.68c6.27.29,4.42,5.06,1.94,3.52A7.48,7.48,0,0,0,305.52.81Zm8.93,4a10.3,10.3,0,0,1-2.48,2.93l-.31-.16a23.75,23.75,0,0,0,1.52-6.36l3.19.88c-.09.29-.33.46-.82.46A14.71,14.71,0,0,1,315,4.07h2V.31l3.25.28c0,.31-.22.53-.79.62V4.07h.93l1.27-1.63s1.43,1.1,2.33,1.92c-.06.24-.3.35-.61.35h-3.92V8h1.7l1.34-1.72s1.54,1.17,2.44,2c-.07.25-.29.36-.62.36H311.7L311.52,8H317V4.71Zm6,12.47V15.73h-5.15v1c0,.22-1.1.75-2.16.75H313V9.62l2.62,1h4.82l1.12-1.25,2.4,1.82a1.59,1.59,0,0,1-.86.44v4.86a3.36,3.36,0,0,1-2,.66Zm0-2.06V11.27h-5.15v3.85Z"/><path class="cls-1" d="M341.88,10.76c3.88.51,4.36,1.94,3.77,2.73.48.39,1.14,1,1.65,1.43-.07.24-.29.35-.6.35h-4.77V18c0,1.72-.38,2.67-3.24,2.93a2.67,2.67,0,0,0-.53-1.7,3.2,3.2,0,0,0-2-.83v-.31s2.44.15,2.91.15.46-.11.46-.37V15.27H326.88l-.18-.64h12.83V13l3.15.26c-.05.33-.27.49-.75.58v.83h1.87l.5-.68a1.28,1.28,0,0,1-.74-.42,5.41,5.41,0,0,0-1.19-1.32c-2.95.46-7,.95-12.68,1.56a1,1,0,0,1-.63.47l-1.24-2.6c1.63,0,4.43,0,7.84,0V10.14h-3.39v.18c0,.2-1.06.68-2,.68h-.33V3.74l2.53,1h3.24V3.15h-8.34l-.2-.62h8.54V.31l3.25.28c0,.31-.24.53-.81.62V2.53h4.95l1.3-1.72s1.47,1.17,2.35,2c-.06.25-.31.36-.61.36h-8V4.73h3.36l1.13-1.21L345,5.28a1.66,1.66,0,0,1-.88.46V10.1a3.24,3.24,0,0,1-2,.66Zm-11.44,4.93c6.49,0,5,4.82,2.51,3.52a7.63,7.63,0,0,0-2.68-3.37Zm1.83-10.34V7.13h3.39V5.35Zm3.39,4.18V7.75h-3.39V9.53Zm2.44-4.18V7.13h3.59V5.35Zm3.59,2.4H338.1V9.53h3.59Zm-.09,3.91a7.85,7.85,0,0,0-1.59-.77l.09-.28a15,15,0,0,1,1.59.13v-.6H338.1v1.54Z"/><path class="cls-1" d="M348.55,20a20.11,20.11,0,0,0,6.11-5.24l2.78,1.92c-.18.22-.42.28-.95.17a16.55,16.55,0,0,1-7.86,3.41ZM366.68,3.15s1.49,1,2.4,1.82c-.07.24-.29.35-.62.35H361.7l2.89.82c-.07.26-.33.42-.82.39a17.33,17.33,0,0,1-2.4,1.9h2.84l1.35-1.59S367.05,7.9,368,8.69a.56.56,0,0,1-.6.35h-7.26v2H363l1.25-1.51s1.46,1,2.36,1.78c-.07.24-.29.35-.62.35h-5.81v2.13H365l1.39-1.65s1.54,1.1,2.46,1.94c0,.24-.28.35-.57.35h-8.12v6A2.94,2.94,0,0,1,358,21h-.46V14.41h-8.32l-.18-.64h8.5V11.64h-6.19l-.17-.62h6.36V9h-7.29l-.17-.61h5.65a1.84,1.84,0,0,1-.68-.35,4.61,4.61,0,0,0-1-2.56l.2-.13c3.85.51,3.38,2.73,2.11,3h4a22,22,0,0,0,1.06-3.11H349.05l-.17-.63h4.49a1.71,1.71,0,0,1-.71-.36,5.45,5.45,0,0,0-1.47-3.25l.2-.13c4.31.72,3.87,3.45,2.48,3.74h2V.33l2.94.26c0,.27-.19.47-.68.55V4.69h1.52V.33l3,.26c0,.27-.2.47-.7.55V4.69h.64a27.11,27.11,0,0,0,1.45-3.9l3.1,1c-.11.26-.37.44-.86.37a19.26,19.26,0,0,1-3.17,2.56h2.23ZM360.8,15.6c11.77,1.52,7.33,6.16,5.2,4.2a15.24,15.24,0,0,0-5.33-3.91Z"/><path class="cls-1" d="M377.72,17.76a23.72,23.72,0,0,0,5,.37c1.92,0,6.61,0,8.67-.07v.27A2,2,0,0,0,390,20.38h-7.32c-4.78,0-7.46-.84-9.07-4.32a12.23,12.23,0,0,1-2.95,5.53l-.26-.2c1.45-2.95,1.89-7.42,1.85-10.76l3,.55c-.09.31-.31.5-.82.55a27.4,27.4,0,0,1-.55,3.45,5.45,5.45,0,0,0,1.57,1.63V9.29l3,.33c0,.26-.2.46-.68.52v2.71h.53l1.14-1.67s1.3,1.16,2,2c-.07.24-.27.35-.58.35h-3.12Zm-3-9.46V4.82h-3.15l-.17-.64h3.32V.35l3.17.29c0,.28-.2.48-.7.55v3h.15L378.6,2.6s1.34,1.1,2.16,1.87c-.05.24-.27.35-.58.35h-2.94V8.3H378l1.26-1.68s1.38,1.15,2.24,1.94c-.06.24-.28.35-.59.35h-10l-.18-.61Zm9.59,8c-2.13,0-2.68-.48-2.68-2.22V1.69l2.68,1H387l1.14-1.28,2.46,1.87a1.45,1.45,0,0,1-.94.48V9.37a4.18,4.18,0,0,1-2,.58h-.41V8.71h-3.15v4.78c0,.42.13.55.84.55h1.78l1.54,0a.58.58,0,0,0,.53-.36,22.61,22.61,0,0,0,1-3.3H390l.09,3.48c.66.26.83.55.83,1,0,1-1,1.47-4.46,1.47Zm-.28-12.94V8.1h3.15V3.34Z"/><path class="cls-1" d="M411.73,9.64c-.15.17-.35.28-.83.13a38.42,38.42,0,0,1-5.06,1.72c1.43,3,4.33,4.64,7.39,5.58l0,.25a2.87,2.87,0,0,0-2.09,2.2,12.15,12.15,0,0,1-5.75-7.9q-.69.2-1.38.33c1.69,3.1,1.51,6.64.35,8.07-.57.71-1.67,1-3.24.95a2.42,2.42,0,0,0-.52-1.61,4.69,4.69,0,0,0-1.85-.81l0-.27c.9.09,2.37.18,2.9.18.31,0,.53,0,.64-.24a5.27,5.27,0,0,0,.53-2.51,29.7,29.7,0,0,1-9.71,3.87l-.15-.33a22,22,0,0,0,9.48-6.64c0-.18-.09-.35-.15-.55a31.39,31.39,0,0,1-8.61,3.76l-.13-.29a23,23,0,0,0,7.66-6L401,9.31a27.53,27.53,0,0,1-7.15,2.79l-.15-.26a23.42,23.42,0,0,0,6.71-4.71h-4.25L396,6.51H406.5l1.36-1.71s.84.66,1.65,1.32c.09-.62.18-1.46.24-2.16H396.09a3.22,3.22,0,0,1-1.19,3.1,1.36,1.36,0,0,1-2-.55,1.4,1.4,0,0,1,.85-1.69,3.23,3.23,0,0,0,1.59-2.73h.31A8.61,8.61,0,0,1,396,3.32h6.58a1.5,1.5,0,0,1-.4-.2A4.18,4.18,0,0,0,400.62.51l.16-.14c4.44-.24,4.31,2.38,2.92,2.95h5.86L410.85,2l2.29,2.18c-.15.2-.39.24-.83.26a14,14,0,0,1-2.58,1.87c.2.16.38.31.55.47,0,.24-.28.35-.59.35h-5.75A14.17,14.17,0,0,1,401.46,9a10.14,10.14,0,0,1,2.22,2.44,34.77,34.77,0,0,0,5.39-4Z"/><path class="cls-1" d="M417.52,13.2a4.36,4.36,0,0,0,2.35-3c-1.23-.48-2.18-1.06-2.18-2.16a1.67,1.67,0,0,1,1.74-1.67c1.06,0,1.87.79,1.87,2.25a5.73,5.73,0,0,1-3.41,5.28Z"/><path class="cls-1" d="M443.41,2.73s1.72,1.27,2.8,2.18c-.07.24-.33.35-.64.35h-8.16a24.33,24.33,0,0,1-2.67,2.62h5.06l1.26-1.41,2.57,2a1.55,1.55,0,0,1-.92.46V20a4,4,0,0,1-2.25.73H440V19.25h-8.25V20c0,.31-1.1.92-2.26.92h-.42V6.73L432,7.88h2c0-.75.09-1.76.13-2.62h-8.25l-.18-.62h11.66A27.41,27.41,0,0,0,438.68.33l3.59.86c-.09.26-.33.46-.84.44a28.16,28.16,0,0,1-3.45,3h3.87ZM430.3.4c6.14,1,3.89,5.5,1.56,3.8A9,9,0,0,0,430.12.51Zm1.47,8.09v2.86H440V8.49Zm0,6.45H440V12h-8.25ZM440,18.61v-3h-8.25v3Z"/><path class="cls-1" d="M457.73,13.38l2.4,1.78a1.32,1.32,0,0,1-.86.46V20a4.2,4.2,0,0,1-2,.55h-.4V19.25h-3.91v1c0,.16-.71.66-1.89.66h-.4V17.05a9.34,9.34,0,0,1-2.91,3.26l-.22-.22c2-3,2.21-6.78,2.21-9.81V6.93a16.89,16.89,0,0,1-2.23,1.34l-.17-.19A21,21,0,0,0,452.28.22l3.56.73c-.09.26-.28.39-.86.48,7.53,1.36,4.91,5.85,2.91,4.36a8.52,8.52,0,0,0-3.13-4.14,19.2,19.2,0,0,1-2.92,3.54h2.64l1.1-1.41s1.27,1,2,1.68c-.06.24-.28.35-.59.35h-5.41l-.09-.33c-.42.37-.86.75-1.3,1.08l2.2.81h4l1.12-1.23L460,7.92a1.74,1.74,0,0,1-.91.49v4.37a4,4,0,0,1-2,.58h-.39V12.7h-4.73c-.05.44-.11.88-.2,1.34l1.49.57h3.41Zm-1.07-1.3V10.36h-4.6c0,.53,0,1.1-.07,1.72ZM452.06,8V9.75h4.6V8Zm4.79,10.62V15.23h-3.91v3.38Zm6.34-3.08c0,.25-1,.69-1.8.69H461V2.13l3,.29c0,.29-.22.48-.75.57ZM468.14,1c-.06.33-.28.55-.81.62V18c0,1.72-.35,2.69-3.1,2.95a3.13,3.13,0,0,0-.51-1.74,2.86,2.86,0,0,0-1.87-.81v-.31s2.18.13,2.64.13.46-.11.46-.39V.66Z"/><path class="cls-1" d="M490.1,2.4a1.65,1.65,0,0,1-.9.48V20a3.18,3.18,0,0,1-2.07.8h-.38V19.25H473v.82c0,.31-1,.9-2,.9h-.39V.75l2.57,1.08h13.31L487.72.51Zm-3.35,16.21V2.46H473V18.61Zm-6.82-5.23c-1,.64-2.53,1.56-4.68,2.7a.85.85,0,0,1-.55.53l-1.26-2.53c1.17-.11,3.81-.5,6.45-1Zm6.52-5.08c-.12.26-.4.41-.91.35a17.29,17.29,0,0,1-2.37,4.49,6.93,6.93,0,0,0,1.18,1.71c.25.29.36.27.53-.06a16,16,0,0,0,.91-2.18l.24,0-.35,3c.59,1,.7,1.51.39,1.84-.77.8-2.2.07-2.9-.68a10.32,10.32,0,0,1-1.48-2,14.91,14.91,0,0,1-5,3.12l-.19-.26A15.58,15.58,0,0,0,481,13.29a20.53,20.53,0,0,1-1.15-4.84,1.08,1.08,0,0,1-.61.29V12a2.31,2.31,0,0,1-1.52.6h-.29V11.9h-1.34v.53a2.2,2.2,0,0,1-1.49.55h-.27V7.2l1.85.77h1.1l.84-.86,1.73,1.3c-.08-.66-.13-1.35-.17-2h-6l-.18-.64h6.09c0-.94-.06-1.93-.08-2.92l2.92.5c-.06.27-.26.51-.77.55,0,.62,0,1.26,0,1.87h1.74l.49-.64-.09,0A5.19,5.19,0,0,0,482.48,3l.2-.15c2.93.13,3.17,1.58,2.51,2.2.37.3.84.68,1.17,1-.07.24-.29.35-.6.35h-4a22.15,22.15,0,0,0,.59,4.53,18.31,18.31,0,0,0,1.32-3.78Zm-9,3V8.58h-1.34v2.71Z"/><path class="cls-1" d="M511.48,6.45a1.82,1.82,0,0,1-.9.44v11c0,1.78-.44,2.82-3.56,3.1a2.83,2.83,0,0,0-.67-1.84,3.57,3.57,0,0,0-2.26-.93V18s2.68.18,3.37.18c.39,0,.52-.18.52-.48V13.09a3.18,3.18,0,0,0-1.52,1.85,11.8,11.8,0,0,1-4.31-6.62A11.3,11.3,0,0,1,495.88,15l-.06-.07V20c0,.31-1.08.93-2.16.93h-.42V4.73L496,5.83h5.59c-.2-1.12-.33-2.35-.44-3.65h-3.63l-.2-.64h3.28l.82-1.23,2.2,1.56a2.94,2.94,0,0,1-1.87.57,18.06,18.06,0,0,0,.81,3.39h5.19L509,4.49Zm-15.66,8.14a13.69,13.69,0,0,0,4.35-8.12h-4.35Zm7-8.12a11,11,0,0,0,5.19,6v-6Z"/><path class="cls-1" d="M533.92,11.71c-.17.24-.53.3-1.14.35-3.52,5.23-9.07,8-18.51,8.87l-.11-.31a33.42,33.42,0,0,0,10.61-4.21,1.66,1.66,0,0,1-1.32-.13,6.74,6.74,0,0,0-2.14-2.73,27.54,27.54,0,0,1-5.81,2.12l-.13-.25a26.72,26.72,0,0,0,8.52-6.22,32.64,32.64,0,0,1-9.9,2.68l-.14-.28c6-1.76,10.61-4.3,13.45-8h-4.56c-.66.44-1.34.85-2.09,1.27,4,.16,3.06,3.59,1,2.78a6.45,6.45,0,0,0-2.07-2.21,25.07,25.07,0,0,1-5,1.83L514.4,7a22.37,22.37,0,0,0,8.08-6.8l3.87,1c-.11.26-.42.44-1.14.44A20.71,20.71,0,0,1,523.6,3h3.92L529,1.61l2.62,2.22a1.86,1.86,0,0,1-1.17.33,17.77,17.77,0,0,1-4.57,4l3,.7c-.11.29-.42.47-1.17.47-.57.52-1.21,1-1.89,1.56h4l1.45-1.39Zm-9-.25A28.18,28.18,0,0,1,522.44,13c3.14.31,3.58,2.25,2.81,3.1a16.65,16.65,0,0,0,4.43-4.62Z"/><path class="cls-1" d="M544.06,12.67c-1.34,1.06-3.41,2.62-6.42,4.58a1,1,0,0,1-.51.64l-1.65-2.8c.64-.17,1.69-.48,3-.88V4.44h-2.64l-.17-.61h4.93L542,2s1.52,1.24,2.44,2.07c-.06.24-.31.35-.64.35h-2.59v8.94l2.84-1Zm-3.32,8a18.49,18.49,0,0,0,6.31-4.54l2.64,1.7c-.11.17-.37.22-.72.08a20.13,20.13,0,0,1-8.08,3ZM553.9.37s1.58,1.24,2.55,2.09c0,.25-.29.36-.62.36h-4.9a23.38,23.38,0,0,1-2.09,2.37h3l1.19-1.25,2.36,1.8a1.26,1.26,0,0,1-.77.4v9.68a4,4,0,0,1-2.14.66h-.44v-.84h-5V16c0,.26-1.07.83-2.17.83h-.38V4.11l2.66,1.08H548c.05-.66.09-1.58.13-2.37h-4.88l-.15-.64h9.39Zm-6.85,5.44V8.43h5V5.81Zm0,5.92h5V9.07h-5Zm5,3.3V12.34h-5V15ZM550,16.46c7.57.2,6.49,5.46,3.74,4.31a14,14,0,0,0-3.9-4.14Z"/><path class="cls-1" d="M565.64,9.68c-.15.24-.35.31-.83.38a17.61,17.61,0,0,1-2,6.29c2.4,1.3,5.67,1.58,10.23,1.58,1.14,0,3.81,0,5.19,0v.26a2.14,2.14,0,0,0-1.56,2.16h-3.83c-5.1,0-8.56-.53-11-2.66A11.66,11.66,0,0,1,557.57,21l-.16-.27a10.38,10.38,0,0,0,3.37-4.18A15.73,15.73,0,0,1,558.36,11l.24-.13a10.76,10.76,0,0,0,2.71,4.36,22.43,22.43,0,0,0,1.1-5.52h-1.32l-.77.79-2.16-1.39a2.67,2.67,0,0,1,.8-.46,56.84,56.84,0,0,0,2.48-5.46h-3.65l-.2-.64h3.83l1.1-1.1,2.2,2a1.55,1.55,0,0,1-1,.36c-.59,1.36-1.71,3.74-2.5,5.28h1l1.21-1.26Zm11.12-5.76s1.21,1.21,1.82,2c-.06.24-.28.35-.57.35h-2.46v3a3.73,3.73,0,0,1-2,.59h-.37V9.13h-2v2.25h2.09l1.23-1.63s1.43,1.1,2.27,1.89c-.07.24-.26.35-.59.35h-5v2.29h2.64l1.39-1.74s1.58,1.17,2.55,2c-.07.24-.31.35-.62.35h-6v2c0,.2-1,.66-2,.66h-.48v-2.7h-4.49l-.18-.64h4.67V12h-3.48l-.18-.61h3.66V9.13h-3.22l-.19-.64h3.41V6.25h-4.84l-.18-.64h5V3.39h-3.44l-.19-.62h3.63V.35L572,.66c0,.33-.22.55-.81.64V2.77H573l1.1-1.19,2.35,1.76a1.53,1.53,0,0,1-.85.44V5.61h.15Zm-5.55,1.69h2V3.39h-2Zm2,.64h-2V8.49h2Z"/><path class="cls-1" d="M584.61,3a13.07,13.07,0,0,1-4.91,3.26L579.46,6A14.6,14.6,0,0,0,583.22.11l3.26,1.28a.78.78,0,0,1-.88.39l-.46.62h2.33l1.1-1.5s1.25,1,2,1.76c-.07.24-.26.35-.57.35Zm-4.93,17.15a17.09,17.09,0,0,0,5.48-4.91L588,17c-.11.2-.33.31-.83.2a17.42,17.42,0,0,1-7.29,3.19Zm5.74-13v3.52c1-.13,2.07-.26,3.15-.42l0,.31c-1.5.68-3.7,1.59-6.84,2.71a.94.94,0,0,1-.6.53l-1.08-2.53c.64,0,1.72-.16,3-.31V7.15h-2.42l-.18-.64h4.91l.79-1a1.51,1.51,0,0,1-.18-.09,4,4,0,0,0-1.29-1.89l.17-.15c3.43-.31,3.3,1.82,2.14,2.18.44.35,1,.83,1.43,1.23-.07.24-.27.35-.58.35Zm12,5.37s1.61,1.3,2.55,2.16c-.06.24-.3.35-.59.35h-8.12v5.26a3.62,3.62,0,0,1-2.27.64h-.46V15h-8l-.17-.64h8.18V12.61l3.54.31c0,.28-.22.52-.81.61v.86H596Zm2-2.22c.46.22.57.44.57.81,0,.75-.7,1.21-2.31,1.21h-.81c-1.36,0-1.52-.44-1.52-1.65V7h-2.51v.92a4.15,4.15,0,0,1-.17,1.21c2.2.95,1.91,2.86.44,2.62a8.4,8.4,0,0,0-1.37-1.1,9.14,9.14,0,0,1-4.77,2.18l-.16-.27a5.88,5.88,0,0,0,3.41-2.79,12.22,12.22,0,0,0-1.84-.84l.15-.26a11.47,11.47,0,0,1,2,0,6,6,0,0,0,0-.73V7h-1.63l-.2-.62h6.38l1-1.06L598,6.86a1.15,1.15,0,0,1-.72.34v2.94c0,.22,0,.29.26.29h.66a.29.29,0,0,0,.29-.15A9.36,9.36,0,0,0,599,8.71h.27ZM598,.84s1.38,1,2.2,1.82c-.07.24-.27.35-.58.35h-6.55a10.82,10.82,0,0,1-3.66,2.67l-.26-.2A14.85,14.85,0,0,0,591.71.11l3.19,1.3a.79.79,0,0,1-.9.37c-.13.2-.28.4-.42.6h3.2Zm-5.77,15c8.43.07,8,5.37,5.22,4.54A18.38,18.38,0,0,0,592.07,16Zm1.14-12.36c4.38-.14,2.49,3.1.71,1.84a2.78,2.78,0,0,0-.88-1.71Z"/><path class="cls-1" d="M603.81,14.79c.88,2.31.71,4.07.05,4.95a1.31,1.31,0,0,1-2.09-.18,1.43,1.43,0,0,1,.61-1.8,4.1,4.1,0,0,0,1.1-3Zm4.78-12.88a.65.65,0,0,1-.73.31,24.1,24.1,0,0,1-4.36,4.47c1,0,2.18,0,3.46,0a15.06,15.06,0,0,0,1.36-2.47l2.78,1.89a.82.82,0,0,1-.88.25,31.46,31.46,0,0,1-6.25,5.5c1.23-.07,2.84-.18,4.51-.31a11.08,11.08,0,0,0-.82-2l.25-.11c4.73,2.07,2.64,5.61.92,4a7.88,7.88,0,0,0-.18-1.21c-1.32.55-3.19,1.25-5.25,1.93a1.38,1.38,0,0,1-.62.53l-1-2.73a3.65,3.65,0,0,0,.81-.28,17.86,17.86,0,0,0,3.63-3.87c-.81.33-1.76.68-2.77,1a1.38,1.38,0,0,1-.62.57L601.7,6.67a2.78,2.78,0,0,0,.68-.24A17.35,17.35,0,0,0,605.6.33Zm-2.86,12.52c3.85,2.84,1.3,6.16-.22,4.25a11.65,11.65,0,0,0-.07-4.18ZM608.1,14c4.69,1.85,2.56,5.5.82,3.83a8.24,8.24,0,0,0-1.06-3.72Zm13.29,3.61c.73.27.93.55.93,1,0,1.08-1.08,1.45-5.22,1.45h-2.64c-2.4,0-3-.44-3-2.22v-10l2.75,1.08h4.05v-6h-7.31l-.2-.64H618L619.19.79l2.62,2a2,2,0,0,1-1.1.55v7.48a3.91,3.91,0,0,1-2.09.61h-.39v-2h-4.34v7.84c0,.41.15.52,1,.52h2.45c.9,0,1.69,0,2,0a.73.73,0,0,0,.66-.33,15.08,15.08,0,0,0,1-2.86h.25Z"/><path class="cls-1" d="M631.64,15.62a73.22,73.22,0,0,1-6.24,3.9.81.81,0,0,1-.51.59l-1.26-2.51c.62-.15,1.72-.44,3-.79V10.5h-2.79l-.18-.64h3V6.78H625A16.35,16.35,0,0,1,623.61,8l-.22-.16A26.68,26.68,0,0,0,626.23.11l3.37.81c-.07.29-.29.44-.88.51,5.74,1.34,3,4.8,1.32,3.28a10,10,0,0,0-1.54-2.8,19.77,19.77,0,0,1-3,4.25h2.84l1.1-1.47s1.3,1,2.07,1.74c-.07.24-.27.35-.58.35h-2.11V9.86h.31l1.12-1.61s1.21,1.12,1.94,1.89a.51.51,0,0,1-.57.36h-2.8v5.67c.88-.24,1.81-.5,2.71-.79Zm-7.35-4.38c3.57,2.89,1.54,6,.18,4.38a12,12,0,0,0-.48-4.29Zm4.91,4.14a41.1,41.1,0,0,0,.53-4.27l2.57.82a.71.71,0,0,1-.79.41,13,13,0,0,1-2,3.19Zm6.89-1.08c-.6.79-1.56,2.05-2.91,3.59a.8.8,0,0,1-.39.66l-1.63-2.38C632,15.86,634,15,636,14.08Zm6.2-7.7s1.39,1.21,2.18,2c-.06.24-.28.35-.61.35h-5.31v9.08c0,1.52-.35,2.49-2.86,2.71a2.7,2.7,0,0,0-.35-1.5,2.08,2.08,0,0,0-1.54-.7v-.31s1.65.11,2,.11.42-.11.42-.37V9h-4.31l-.15-.62h6l.53-1.67h-3.24l-.92,1-2.24-1.54a3.82,3.82,0,0,1,.88-.48A48.6,48.6,0,0,0,634.53.42l3.1.5c-.07.29-.29.55-.88.55-.13.36-.27.75-.4,1.19h3l1-1.12,2.18,1.8c-.15.2-.37.25-.81.29l-1.54,4.73h.88ZM632.48,10c5.06,1.16,3,4.75,1.14,3.21a5.8,5.8,0,0,0-1.36-3.08Zm6-3.9.9-2.77h-3.26c-.33,1-.7,2-1,2.77Zm.74,8.19c6.21.79,4.71,5.54,2.62,4a12.78,12.78,0,0,0-2.77-3.83Zm-.13-1c.71-1.08,1.68-2.9,2.18-3.89l2.49,1.76c-.11.19-.31.26-.79.15-.84.62-2.6,1.56-3.68,2.2Z"/><path class="cls-1" d="M648.52,13.2a4.36,4.36,0,0,0,2.35-3c-1.23-.48-2.18-1.06-2.18-2.16a1.67,1.67,0,0,1,1.74-1.67c1.06,0,1.87.79,1.87,2.25a5.73,5.73,0,0,1-3.41,5.28Z"/><path class="cls-1" d="M14.46,44.51c1.45,1.76,4.29,2.68,6.62,3l0,.31a3.16,3.16,0,0,0-1.81,2.22,11.07,11.07,0,0,1-5.39-5.54H8A17.77,17.77,0,0,1,.18,50.4L0,50.18a18.52,18.52,0,0,0,5.48-5.67H.57l-.2-.62H5.83A20.29,20.29,0,0,0,7,41.53H2.35l-.17-.63h5c.26-.71.5-1.43.7-2.14H1.39l-.18-.64H8.08c.26-1,.44-1.93.59-2.83l3.7.74c-.09.33-.36.53-.88.53-.14.53-.27,1-.42,1.56H16.5l1.37-1.67s1.54,1.15,2.48,2c-.06.24-.28.35-.59.35H10.87c-.24.73-.51,1.43-.81,2.14h5.41l1.3-1.59s1.45,1.08,2.33,1.87c-.07.25-.29.35-.6.35H9.77a20.23,20.23,0,0,1-1.34,2.36h8.42l1.43-1.78s1.61,1.21,2.6,2c-.06.25-.28.36-.61.36Zm1.6,4.81s1.61,1.19,2.58,2c-.07.24-.31.35-.62.35H11.84v3.57c0,.22-1.19.7-2.2.7H9.15V51.72H2.86l-.18-.61H9.15V48.69H5.61l-.17-.62H9.15V45.19l3.41.31c0,.26-.19.46-.72.55v2h.7l1.17-1.58s1.32,1.07,2.11,1.84c0,.25-.29.36-.57.36H11.84v2.42h2.79Z"/><path class="cls-1" d="M30.65,41.62c-.11.2-.33.33-.86.27a28.45,28.45,0,0,1-2,2.11l.92.35c-.08.18-.28.33-.68.42V55.31a3.41,3.41,0,0,1-2.11.68h-.49v-9.9a25.31,25.31,0,0,1-3.34,2.29l-.2-.24a34.13,34.13,0,0,0,5.61-8.3Zm-.42-4.42c-.13.22-.35.33-.84.24a26.26,26.26,0,0,1-6.75,4.45l-.2-.24a25.92,25.92,0,0,0,4.84-6.28Zm10.23,3.61S42,42,43,42.9c-.07.24-.31.35-.62.35H39.14V52.6c0,1.76-.51,3-3.78,3.21A2.52,2.52,0,0,0,34.65,54a4.88,4.88,0,0,0-2.59-.91v-.28s3.25.2,3.89.2c.4,0,.55-.16.55-.44V43.25H30.14L30,42.61h9.1Zm-9.09-2.64-.17-.62h7.24l1.34-1.76s1.49,1.21,2.4,2c-.07.24-.31.35-.62.35Z"/><path class="cls-1" d="M46.77,35.29h7.09v.85H47.68V49.37h-.91Z"/><path class="cls-1" d="M75,52.58c.81.29,1.08.59,1.08,1.06,0,1.18-1.19,1.67-5.9,1.67h-3c-2.62,0-3.54-.46-3.54-2.6V44.46c-.77.51-1.81,1.12-3.09,1.83V53c0,1.74-.35,2.71-3,2.95a3.63,3.63,0,0,0-.4-1.76,2.14,2.14,0,0,0-1.6-.79v-.31s1.8.11,2.17.11.44-.09.44-.38V47.61l-1.49.77A1,1,0,0,1,56,49L55,45.87c.66-.09,1.78-.29,3.14-.55V40.9H55.35l-.17-.64h2.94v-5l3.24.33c0,.3-.26.52-.82.61v4h.16l1.14-1.72s1.06,1,1.79,1.81V36.56l2.75,1.06h5.74l1.08-1.39,2.51,1.87a1.39,1.39,0,0,1-.88.42v8.21c0,.2-.82.68-2.07.68h-.42V45.8H66.09V52c0,.64.29.84,1.41.84h2.84c1.07,0,2,0,2.39,0a1,1,0,0,0,.8-.35,14.75,14.75,0,0,0,1.1-2.9h.24ZM63.63,44.29v-3.5a.87.87,0,0,1-.42.11H60.54v3.94l3.06-.64Zm2.46-6.06v7h2v-7Zm4.31,0v7h1.94v-7Z"/><path class="cls-1" d="M97.07,41.4c-.16.22-.4.29-.9.29a8.11,8.11,0,0,1-1.85,1.8,26.29,26.29,0,0,0,3.47.27V44a2.29,2.29,0,0,0-1.43,2l-.26-.05c.24.18.48.38.68.55-.07.25-.28.36-.61.36H93.52v6h.38l1.21-1.45s1.41,1,2.29,1.73c-.05.25-.27.36-.57.36H93.52v2c0,.13-.77.57-2,.57H91V53.42H78.08l-.2-.64h3.79v-6H79.35l-.11-.33a7,7,0,0,1-1.95,1.21l-.2-.27a6.14,6.14,0,0,0,1.69-4.82V40.24l2.38.9h3.72l1-1,2.06,1.52a1.41,1.41,0,0,1-.74.37v2.33a2.87,2.87,0,0,1-1.74.62h-.35v-.66H80.61a4.69,4.69,0,0,1-1.06,1.87H93.26l.68-.82a8.47,8.47,0,0,1-1.71-.68,20.9,20.9,0,0,1-5.94,1.37l-.11-.36A16.08,16.08,0,0,0,91,43.87a7,7,0,0,1-1.85-2.44h-.77l-.2-.62h5.61l.62-.57c-1.23-.05-1.37-.47-1.37-1.52V37.16H90.91v0c0,1-.4,2.84-3.26,3.76l-.18-.26a4.25,4.25,0,0,0,1.37-3.48v-1.6l2.4.9h1.65l1-1.08L95.86,37a1.19,1.19,0,0,1-.75.31v1c0,.2,0,.27.24.27h.75a2.3,2.3,0,0,0,.37,0,1.82,1.82,0,0,0,.44-.07h.2l.09,0c.48.22.66.35.66.73,0,.72-.59.94-2.13,1ZM77.79,37.18h4v-2l3,.26c0,.29-.22.49-.75.58v1.12h1.34l1-1.3s1.17.9,1.87,1.58c0,.25-.26.36-.57.36H84v1.49h.83l1-1.27s1.15.88,1.85,1.56c0,.24-.26.35-.55.35H78.69l-.17-.64h3.23V37.82H78Zm3,4.57v.86a6.06,6.06,0,0,1-.09,1.06h1.32V41.75Zm3,0v1.92h1.24V41.75ZM91,46.82H84.08v1.56H91ZM91,49H84.08v1.54H91Zm0,3.79V51.17H84.08v1.61ZM89.7,41.43A5.75,5.75,0,0,0,92.25,43a7.72,7.72,0,0,0,1.45-1.58Z"/><path class="cls-1" d="M113.85,44.55A12.5,12.5,0,0,0,120,46.73L120,47a3.65,3.65,0,0,0-1.78,2.59,10.75,10.75,0,0,1-3-2.26.44.44,0,0,1-.17,0H104.35a19.7,19.7,0,0,1-5.13,2.13l-.11-.24a13.27,13.27,0,0,0,5.06-4.73H99.48l-.17-.62h2.55l-.26-7.74,2,.37a21.92,21.92,0,0,0,2.29-1.3l1.32,1.54c.06-.59.11-1.16.11-1.54l2.55.51a.72.72,0,0,1-.82.48c0,.29,0,.6-.08.91h1.38l.77-1s.88.75,1.41,1.3a.5.5,0,0,1-.55.35h-3.08c0,.4-.09.82-.11,1.17h1.58l.88-.88,1.61,1.27-.11-.35h2.13L115,37.2h-2.53l-.2-.62h2.53l1-1.1,2.18,1.68c-.15.19-.35.26-.77.33l-.29,6.42,1.12-1.63s1.33,1.15,2,1.92c0,.24-.26.35-.57.35Zm-1,5.63,1-1.08s1.14.75,1.87,1.35a.53.53,0,0,1-.57.35h-1l2.26,1.65a1.23,1.23,0,0,1-.75.39v2.34a4.48,4.48,0,0,1-2.06.57h-.44v-.93h-7.24v.38c0,.22-1.12.73-2.12.73h-.35v-5l2.64,1h6.87l1-1.1H103.88l-.17-.62Zm.07-1.69,1-1.1s1.12.77,1.87,1.36a.54.54,0,0,1-.58.35H104l-.17-.61ZM105.25,38s.68.61,1.19,1.14a3.2,3.2,0,0,1,.55-.33c.06-.46.13-1,.17-1.63a.71.71,0,0,1-.41-.15,25.24,25.24,0,0,1-2.87.24L104,39h.55Zm8,6,0,0,0,0h1.38l.09-2H112.8l-.2-.62h2.15l.09-1.71H113l0-.11a1.46,1.46,0,0,1-.71.24c0,2.42-.11,3.17-.68,3.59a2.8,2.8,0,0,1-1.69.39,1.14,1.14,0,0,0-.27-.88,2.08,2.08,0,0,0-.92-.39v-.33c.39,0,1,.06,1.3.06a.55.55,0,0,0,.44-.13,7.65,7.65,0,0,0,.19-2.49h-1.73l-.71.8,1.15.3a.73.73,0,0,1-.77.47,7.22,7.22,0,0,1-1.32,2.66l-.38-.11a14.77,14.77,0,0,0,.29-3.61l.92.24-1.49-.94c-.07.17-.25.24-.49.24H104l0,1.74h.86l.72-1.06s.86.77,1.37,1.32c0,.24-.22.35-.51.35H104l.06,2Zm.55,1.7a12,12,0,0,1-.66-1.08h-5.52a9.91,9.91,0,0,1-2.27,2.2h3.86a4.14,4.14,0,0,0-.88-2l.19-.13c2.82.15,3,1.49,2.31,2.11h1.7l1.08-1.25Zm-.63,8.56V52.54h-7.24v1.65Z"/><path class="cls-1" d="M129.25,44.68c-.15.24-.35.31-.83.38a17.81,17.81,0,0,1-2,6.29c2.39,1.3,5.67,1.58,10.23,1.58,1.14,0,3.8,0,5.19,0v.26a2.13,2.13,0,0,0-1.56,2.16h-3.83c-5.11,0-8.56-.53-11-2.66A11.74,11.74,0,0,1,121.18,56l-.16-.27a10.55,10.55,0,0,0,3.37-4.18A15.55,15.55,0,0,1,122,46l.24-.13a10.55,10.55,0,0,0,2.71,4.36,22.9,22.9,0,0,0,1.1-5.52H124.7l-.77.79-2.16-1.39a2.61,2.61,0,0,1,.79-.46,59.49,59.49,0,0,0,2.49-5.46H121.4l-.2-.64H125l1.1-1.1,2.2,2a1.55,1.55,0,0,1-1,.36c-.59,1.36-1.71,3.74-2.51,5.28h1l1.21-1.26Zm11.11-5.76s1.21,1.21,1.83,2a.53.53,0,0,1-.57.35h-2.47v3a3.65,3.65,0,0,1-2,.59h-.37v-.75h-2v2.25h2.09l1.23-1.63s1.43,1.1,2.27,1.89c-.07.24-.27.35-.6.35h-5v2.29h2.64l1.38-1.74s1.59,1.17,2.56,2c-.07.24-.31.35-.62.35h-6v2c0,.2-1,.66-2,.66h-.49v-2.7h-4.48l-.18-.64h4.66V47h-3.47l-.18-.61h3.65V44.13h-3.21l-.2-.64h3.41V41.25h-4.84l-.17-.64h5V38.39h-3.43l-.2-.62h3.63V35.35l3.28.31c0,.33-.22.55-.81.64v1.47h1.74l1.1-1.19L140,38.34a1.53,1.53,0,0,1-.86.44v1.83h.16Zm-5.54,1.69h2V38.39h-2Zm2,.64h-2v2.24h2Z"/><path class="cls-1" d="M148.21,38a13.11,13.11,0,0,1-4.9,3.26l-.24-.24a14.7,14.7,0,0,0,3.76-5.92l3.25,1.28c-.1.26-.39.44-.87.39-.16.22-.31.42-.47.62h2.34l1.1-1.5s1.25,1,2,1.76a.52.52,0,0,1-.57.35Zm-4.92,17.15a17.09,17.09,0,0,0,5.48-4.91L151.58,52c-.11.2-.33.31-.83.2a17.48,17.48,0,0,1-7.29,3.19Zm5.74-13v3.52c1-.13,2.07-.26,3.15-.42l0,.31c-1.5.68-3.7,1.59-6.85,2.71a1,1,0,0,1-.59.53l-1.08-2.53c.64-.05,1.72-.16,3-.31V42.15h-2.42l-.17-.64H149l.8-1a1.51,1.51,0,0,1-.18-.09,3.94,3.94,0,0,0-1.3-1.89l.18-.15c3.43-.31,3.3,1.82,2.13,2.18.44.35,1,.83,1.43,1.23-.06.24-.26.35-.57.35Zm12,5.37s1.6,1.3,2.55,2.16A.55.55,0,0,1,163,50h-8.12v5.26a3.62,3.62,0,0,1-2.27.64h-.46V50h-8l-.18-.64h8.19V47.61l3.54.31c0,.28-.22.52-.81.61v.86h4.73Zm2-2.22c.46.22.57.44.57.81,0,.75-.7,1.21-2.31,1.21h-.81c-1.37,0-1.52-.44-1.52-1.65V42H156.4v.92a3.86,3.86,0,0,1-.18,1.21c2.2.95,1.92,2.86.44,2.62a8.28,8.28,0,0,0-1.36-1.1,9.19,9.19,0,0,1-4.77,2.18l-.16-.27a5.91,5.91,0,0,0,3.41-2.79,12.31,12.31,0,0,0-1.85-.84l.16-.26a11.47,11.47,0,0,1,2,0c0-.24,0-.49,0-.73V42h-1.63l-.2-.62h6.38l1-1.06,1.87,1.54a1.16,1.16,0,0,1-.73.34v2.94c0,.22,0,.29.27.29h.66a.27.27,0,0,0,.28-.15,8.35,8.35,0,0,0,.6-1.57h.26Zm-1.39-9.46s1.39,1,2.2,1.82c-.06.24-.26.35-.57.35h-6.56A10.69,10.69,0,0,1,153,40.68l-.26-.2a14.85,14.85,0,0,0,2.57-5.37l3.19,1.3a.8.8,0,0,1-.9.37c-.13.2-.29.4-.42.6h3.19Zm-5.76,15c8.43.07,8,5.37,5.21,4.54A18.12,18.12,0,0,0,155.67,51ZM157,38.48c4.38-.14,2.49,3.1.71,1.84a2.83,2.83,0,0,0-.88-1.71Z"/><path class="cls-1" d="M172.08,45.1c-.06.22-.28.35-.68.44V55.2a3.19,3.19,0,0,1-2.13.73h-.51V47.34a18.66,18.66,0,0,1-3.5,2.36l-.19-.24a23.27,23.27,0,0,0,6.22-9h-5.48l-.17-.64h5.92a32.32,32.32,0,0,0,1.36-4.53l3.72,1c-.07.27-.26.44-.86.47a31.26,31.26,0,0,1-1.3,3.1h6.76l1.54-2s1.74,1.34,2.79,2.24c-.06.25-.28.36-.61.36H174.15a21.16,21.16,0,0,1-2.88,4.35Zm11.07,7s1.65,1.25,2.69,2.13c-.07.24-.31.35-.64.35H171.91l-.18-.64h5V47.21h-4l-.17-.61h4.15V41.43l3.35.3c0,.29-.2.49-.71.57v4.3h1.24l1.38-1.74s1.54,1.19,2.49,2c-.07.24-.31.35-.62.35h-4.49v6.73h2.38Z"/><path class="cls-1" d="M195.25,44.68c-.15.24-.35.31-.83.38a17.81,17.81,0,0,1-2,6.29c2.39,1.3,5.67,1.58,10.23,1.58,1.14,0,3.8,0,5.19,0v.26a2.13,2.13,0,0,0-1.56,2.16h-3.83c-5.11,0-8.56-.53-11-2.66A11.74,11.74,0,0,1,187.18,56l-.16-.27a10.55,10.55,0,0,0,3.37-4.18A15.55,15.55,0,0,1,188,46l.24-.13a10.55,10.55,0,0,0,2.71,4.36,22.9,22.9,0,0,0,1.1-5.52H190.7l-.77.79-2.16-1.39a2.61,2.61,0,0,1,.79-.46,59.49,59.49,0,0,0,2.49-5.46H187.4l-.2-.64H191l1.1-1.1,2.2,2a1.55,1.55,0,0,1-1,.36c-.59,1.36-1.71,3.74-2.51,5.28h1l1.21-1.26Zm11.11-5.76s1.21,1.21,1.83,2a.53.53,0,0,1-.57.35h-2.47v3a3.65,3.65,0,0,1-2,.59h-.37v-.75h-2v2.25h2.09l1.23-1.63s1.43,1.1,2.27,1.89c-.07.24-.27.35-.6.35h-5v2.29h2.64l1.38-1.74s1.59,1.17,2.56,2c-.07.24-.31.35-.62.35h-6v2c0,.2-1,.66-2,.66h-.49v-2.7h-4.48l-.18-.64h4.66V47h-3.47l-.18-.61h3.65V44.13h-3.21l-.2-.64h3.41V41.25h-4.84l-.17-.64h5V38.39h-3.43l-.2-.62h3.63V35.35l3.28.31c0,.33-.22.55-.81.64v1.47h1.74l1.1-1.19L206,38.34a1.53,1.53,0,0,1-.86.44v1.83h.16Zm-5.54,1.69h2V38.39h-2Zm2,.64h-2v2.24h2Z"/><path class="cls-1" d="M214.21,38a13.11,13.11,0,0,1-4.9,3.26l-.24-.24a14.7,14.7,0,0,0,3.76-5.92l3.25,1.28c-.1.26-.39.44-.87.39-.16.22-.31.42-.47.62h2.34l1.1-1.5s1.25,1,2,1.76a.52.52,0,0,1-.57.35Zm-4.92,17.15a17.09,17.09,0,0,0,5.48-4.91L217.58,52c-.11.2-.33.31-.83.2a17.48,17.48,0,0,1-7.29,3.19Zm5.74-13v3.52c1-.13,2.07-.26,3.15-.42l0,.31c-1.5.68-3.7,1.59-6.85,2.71a1,1,0,0,1-.59.53l-1.08-2.53c.64-.05,1.72-.16,3-.31V42.15h-2.42l-.17-.64H215l.8-1a1.51,1.51,0,0,1-.18-.09,3.94,3.94,0,0,0-1.3-1.89l.18-.15c3.43-.31,3.3,1.82,2.13,2.18.44.35,1,.83,1.43,1.23-.06.24-.26.35-.57.35Zm12,5.37s1.6,1.3,2.55,2.16A.55.55,0,0,1,229,50h-8.12v5.26a3.62,3.62,0,0,1-2.27.64h-.46V50h-8l-.18-.64h8.19V47.61l3.54.31c0,.28-.22.52-.81.61v.86h4.73Zm2-2.22c.46.22.57.44.57.81,0,.75-.7,1.21-2.31,1.21h-.81c-1.37,0-1.52-.44-1.52-1.65V42H222.4v.92a3.86,3.86,0,0,1-.18,1.21c2.2.95,1.92,2.86.44,2.62a8.28,8.28,0,0,0-1.36-1.1,9.19,9.19,0,0,1-4.77,2.18l-.16-.27a5.91,5.91,0,0,0,3.41-2.79,12.31,12.31,0,0,0-1.85-.84l.16-.26a11.47,11.47,0,0,1,2,0c0-.24,0-.49,0-.73V42h-1.63l-.2-.62h6.38l1-1.06,1.87,1.54a1.16,1.16,0,0,1-.73.34v2.94c0,.22,0,.29.27.29h.66a.27.27,0,0,0,.28-.15,8.35,8.35,0,0,0,.6-1.57h.26Zm-1.39-9.46s1.39,1,2.2,1.82c-.06.24-.26.35-.57.35h-6.56A10.69,10.69,0,0,1,219,40.68l-.26-.2a14.85,14.85,0,0,0,2.57-5.37l3.19,1.3a.8.8,0,0,1-.9.37c-.13.2-.29.4-.42.6h3.19Zm-5.76,15c8.43.07,8,5.37,5.21,4.54A18.12,18.12,0,0,0,221.67,51ZM223,38.48c4.38-.14,2.49,3.1.71,1.84a2.83,2.83,0,0,0-.88-1.71Z"/><path class="cls-1" d="M249,52.12s1.78,1.38,2.88,2.31c-.06.24-.31.35-.64.35H231.37l-.17-.62h8.18V35.62L243,36c-.07.31-.22.53-.82.61V44h3.61l1.58-2s1.76,1.34,2.82,2.29c-.06.24-.29.35-.59.35h-7.42v9.59h5.17Z"/><path class="cls-1" d="M260.26,56h-7.08v-.85h6.18V41.93h.9Z"/><path class="cls-1" d="M274.19,40.13a1.68,1.68,0,0,1-.93.46V53.7a3.33,3.33,0,0,1-2,.73h-.38V52.69H267.5v1.63c0,.28-.93.84-2,.84h-.4V38.52l2.47,1h.13c.15-1.21.35-2.92.46-4.15l3.57.85c-.09.38-.4.53-.91.53-.57.77-1.43,1.92-2.13,2.77h1.91l1.17-1.32Zm-6.69.06v5.46h3.34V40.19Zm3.34,11.88V46.29H267.5v5.78Zm14.09-11.94a1.52,1.52,0,0,1-1,.41c-.16,8.87-.46,12.9-1.68,14.2a4,4,0,0,1-3.21,1.19,2.46,2.46,0,0,0-.48-1.81,4.58,4.58,0,0,0-2.33-1l0-.31c1.05.09,2.57.2,3.14.2a1.09,1.09,0,0,0,.82-.28c.81-.75,1-5.13,1.19-12.63h-4.1a16.86,16.86,0,0,1-3.71,4.62l-.29-.18a32.61,32.61,0,0,0,3-9.2l3.48,1c-.09.28-.36.44-.86.44a25,25,0,0,1-1.23,2.66h3.49l1.39-1.43ZM275.2,44c6.42,1.89,4,6.64,1.69,4.68A9.7,9.7,0,0,0,275,44.11Z"/><path class="cls-1" d="M304.81,52.56s1.59,1.36,2.49,2.26c0,.25-.29.36-.59.36H292.14l-.18-.64h6.67V50.62h-4.51l-.18-.61h4.69V46.53h-2.07v.62c0,.26-1.05.83-2.11.83h-.4V44.11a.52.52,0,0,1-.5.22h-2.47v5.43l3-.9.09.24c-1.39,1-3.57,2.51-6.61,4.34a.85.85,0,0,1-.52.61l-1.17-2.88c.57-.11,1.52-.37,2.66-.68V44.33h-2.2l-.17-.62h2.37V38.26h-2.24l-.18-.64h4.71l1.32-1.81s1.06.88,1.89,1.65V36l2.64,1.06h6.41l1.21-1.32,2.42,1.91a1.47,1.47,0,0,1-.88.46v8.63a3.33,3.33,0,0,1-2.12.77h-.41v-1h-2.18V50h1.63l1.32-1.83s1.45,1.23,2.31,2.09c0,.24-.29.35-.62.35h-4.64v3.92h2.31ZM292.23,42a25.79,25.79,0,0,1,1.82,1.93V38.26h-3v5.45h.07Zm4.33-4.3v3.79h2.07V37.68Zm2.07,8.21V42.11h-2.07v3.78Zm2.51-8.21v3.79h2.18V37.68Zm2.18,8.21V42.11h-2.18v3.78Z"/><path class="cls-1" d="M320.39,36.19c-.09.28-.33.44-1.08.5,2.16,1.81,5.81,3.06,9.7,3.44l0,.33a3.22,3.22,0,0,0-1.72,2.62A14.53,14.53,0,0,1,319,36.94a20.62,20.62,0,0,1-10.67,6.55l-.09-.24c3.83-1.91,7.15-5.28,8.43-8.16Zm-8.67,12.5c1.08,2.72.24,4.66-.82,5.32a1.35,1.35,0,0,1-2-.46,1.39,1.39,0,0,1,.84-1.67,3.76,3.76,0,0,0,1.69-3.17Zm.17-5h9.95l1.36-1.14,2.34,1.61c-.14.22-.33.26-.8.3a10.82,10.82,0,0,1-4,3.74l-.2-.26a15.07,15.07,0,0,0,1.41-3.63h-9.86ZM323.69,53c.77.26,1,.52,1,1,0,1.1-1.08,1.41-5.42,1.41h-2.79c-2.51,0-3.08-.42-3.08-2.12v-5.1l3.28.26c0,.29-.24.49-.68.55V52.8c0,.33.11.42.92.42h2.64c.92,0,1.78,0,2.16,0s.48-.09.63-.31a15.94,15.94,0,0,0,1.08-2.49h.22Zm-3.28-13.32s1.25,1.06,2,1.81c-.06.24-.28.35-.59.35h-7l-.18-.64h4.69Zm-3,7.71c5.67,1.23,3.61,5.54,1.47,3.87a7.26,7.26,0,0,0-1.67-3.74Zm6.47,1.14C330.53,50,328.46,55,326,53.2a8.38,8.38,0,0,0-2.35-4.54Z"/><path class="cls-1" d="M333.13,48.2a4.38,4.38,0,0,0,2.35-3c-1.23-.48-2.18-1.06-2.18-2.16A1.66,1.66,0,0,1,335,41.38c1.06,0,1.87.79,1.87,2.25a5.73,5.73,0,0,1-3.41,5.28Z"/><path class="cls-1" d="M360.71,50.36a1.27,1.27,0,0,1-.85.37c-.27,2.22-.84,3.9-1.87,4.51a5.34,5.34,0,0,1-3,.64,1.89,1.89,0,0,0-.6-1.61,7.1,7.1,0,0,0-2.84-.92l0-.29c1.34.11,3.54.27,4,.27a1.26,1.26,0,0,0,.79-.18c.4-.26.71-1.41.91-2.84H352c-1.21,2.62-4,4.62-10.43,5.64l-.13-.29c4.64-1.28,6.77-3.17,7.72-5.35h-6.49l-.2-.61h6.93a9.42,9.42,0,0,0,.4-2.18l.53.09V45.47h-3.64v2.4c0,.24-1.12.79-2.15.79h-.38V39.42l2.71,1h4.4A9.52,9.52,0,0,0,347,38.39l.07-.29c3.1-.06,4.93.24,5.92.68.79-.48,1.65-1,2.35-1.51H343.2l-.2-.64h12.92l1.45-1.32,2.33,2.22a1.39,1.39,0,0,1-1,.26c-1.27.47-3.25,1-5,1.5a.76.76,0,0,1-.13,1.17h2.88l1.14-1.28,2.51,1.87a1.28,1.28,0,0,1-.88.46v5c0,1.47-.37,2.31-3.1,2.53a2.54,2.54,0,0,0-.38-1.47,2.4,2.4,0,0,0-1.54-.71V46.6s1.63.13,2.07.13.4-.16.4-.42v-.84h-3.94v1.81a2.87,2.87,0,0,1-1.54.46l2.13.33c-.06.33-.33.53-.81.53a10,10,0,0,1-.33,1.1h5l1.28-1.19Zm-14.06-9.27v1.59h3.64V41.09Zm3.64,3.77V43.32h-3.64v1.54Zm2.46-3.77v1.59h3.94V41.09Zm3.94,3.77V43.32h-3.94v1.54Z"/><path class="cls-1" d="M373.43,44.26a1.52,1.52,0,0,1-.92.42c-.18,6.8-.58,9.22-1.7,10.23a3.64,3.64,0,0,1-2.57.88,2.85,2.85,0,0,0-.33-1.65,2.52,2.52,0,0,0-1.46-.77v-.31c.58,0,1.55.11,2,.11a.87.87,0,0,0,.69-.24c.59-.55.88-3.08,1-8.64h-2C367.8,48.8,366.65,53,363.13,56l-.2-.19c2.62-4.43,2.84-10.06,2.67-15.36h-2.23l-.17-.62h7.48l1.3-1.74s1.49,1.19,2.37,2c-.06.24-.3.35-.61.35h-5.37c0,1.05-.07,2.11-.13,3.17h1.69l1.28-1.28Zm-7.15-8.89c6,1.1,3.74,5.64,1.45,3.85a7.4,7.4,0,0,0-1.65-3.71Zm17.89,7.79-.05.31a3.11,3.11,0,0,0-1.82,2.2,18.93,18.93,0,0,1-3.39-8.21A20.22,20.22,0,0,1,372.84,46l-.22-.17a26.87,26.87,0,0,0,3.93-10.57l3.55.82c-.07.31-.29.46-.88.53A12.24,12.24,0,0,0,384.17,43.16Zm-10.26,6.36c10.15,1.28,9.18,7.42,6,6.07a20.74,20.74,0,0,0-6.2-5.87Zm1.85-5.61c6.41.13,5.17,4.75,2.69,3.61a11.83,11.83,0,0,0-2.86-3.45Z"/><path class="cls-1" d="M390.94,51.68c1.12-.24,2.29-.51,3.41-.79l.07.28a67.33,67.33,0,0,1-7.59,3.76.87.87,0,0,1-.55.58l-1.17-2.73.95-.16V45.34l2.33.24c0,.2-.11.33-.46.4v6.31l.88-.17V42.83h-.53v.38c0,.15-.66.64-1.74.64h-.37v-8L388.56,37H391l1-1.08,2.15,1.61a1.39,1.39,0,0,1-.81.39V43a3.27,3.27,0,0,1-1.78.53h-.36v-.69h-.24v4.1h.27l1-1.61s1.14,1.12,1.76,1.89a.52.52,0,0,1-.55.35h-2.49Zm-2.66-9.51h2.9v-4.6h-2.9Zm12.43-2.7a10,10,0,0,0,5.57,3.32l0,.24a2.48,2.48,0,0,0-1.74,2.14,9.38,9.38,0,0,1-4.29-5.7h-1.48a15.9,15.9,0,0,1-2.88,4H399L400.14,42s1.25,1,2,1.73c0,.25-.28.36-.59.36h-5.63l-.16-.55a14.32,14.32,0,0,1-2.53,2l-.26-.2a20.74,20.74,0,0,0,3.23-5.83h-2.29l-.17-.64h2.68a23.9,23.9,0,0,0,.9-3.5l3.41,1c-.08.29-.37.48-.85.44a21.16,21.16,0,0,1-.86,2.07H402l1.38-1.76s1.59,1.19,2.56,2c-.07.25-.29.36-.62.36Zm1.8,8.67,2.16,1.76a1.41,1.41,0,0,1-.86.35c-.28,2.73-.83,4.4-1.85,5.06a4.77,4.77,0,0,1-2.61.62,1.91,1.91,0,0,0-.47-1.5,4.23,4.23,0,0,0-2-.79v-.31c.94.09,2.48.17,2.92.17a1,1,0,0,0,.71-.15c.44-.29.79-1.56,1-3.45h-4.14l-.94,1-2.33-1.5a3.47,3.47,0,0,1,1-.52c.31-.66.62-1.46.82-2h-1.74l-.18-.63H401l1.23-1.5s1.41,1,2.27,1.78c-.07.24-.29.35-.6.35h-5.43c-.29.66-.68,1.61-1,2.36h3.85Z"/><path class="cls-1" d="M419.81,44.62c1.78,1.73,5.12,2.64,8.07,3l0,.26A2.74,2.74,0,0,0,426,50.23,14.4,14.4,0,0,1,421.92,48v7.31a3.29,3.29,0,0,1-2,.68h-.5V47l1.54.15a9.41,9.41,0,0,1-1.7-2.48H417.3a10.53,10.53,0,0,1-2.58,2.53l1.7.17c0,.27-.2.49-.71.55V49.7c-.06,2.53-1.23,5.12-7.72,6.31l-.13-.24c4.53-1.56,5.32-3.89,5.32-6.12V48.09a23.06,23.06,0,0,1-5.85,2l-.15-.31a14.49,14.49,0,0,0,6.93-5.19h-1.48V45c0,.26-1.1.81-2.18.81h-.37V35.59l2.73,1.08h9.48l1.19-1.32L426,37.27a1.56,1.56,0,0,1-.88.46V44.9a3.94,3.94,0,0,1-2.16.64h-.44v-.92Zm-7.18-7.31v2.95h3.59V37.31Zm0,6.67h3.59V40.87h-3.59Zm6.1-6.67v2.95h3.78V37.31ZM422.51,44V40.87h-3.78V44Z"/><path class="cls-1" d="M442.07,38.08a24,24,0,0,1-2,3.78l1.36.51c-.06.2-.26.35-.68.42V55.4a4,4,0,0,1-2.15.57h-.49V44.57a28.69,28.69,0,0,1-8.89,7.31l-.17-.18a30.23,30.23,0,0,0,9.55-13.62h-9.07l-.18-.62h15.87l1.58-2s1.81,1.36,2.89,2.29c-.07.24-.31.35-.64.35Zm-.4,5.57c10,2.15,8.87,8.09,5.92,6.64a23,23,0,0,0-6.11-6.44Z"/><path class="cls-1" d="M469.94,49c-.13.2-.35.31-.85.2a39,39,0,0,1-4.45,1.91,16.32,16.32,0,0,0,7.24,2.25l0,.24a3,3,0,0,0-2.07,2.4c-4.6-1.3-7.39-3.35-8.6-8.8h-3.43v5.32l4.29-1,.06.26a60.27,60.27,0,0,1-5.74,3.65,1.87,1.87,0,0,1-.7.68l-1.55-2.9c.86-.46,1-.7,1-1.14V47.15h-3.63l-.19-.64H468l1.34-1.81s1.54,1.24,2.42,2.09c-.06.25-.3.36-.59.36h-3.87Zm-12.89-4.09c0,.26-1.12.83-2.18.83h-.37v-10l2.73,1.08h8.62L467,35.44l2.51,1.91a1.41,1.41,0,0,1-.88.47v6.77a4.24,4.24,0,0,1-2.16.62h-.44v-.9h-9Zm0-7.46v2.79h3.24V37.4Zm3.24,6.29V40.83h-3.24v2.86Zm1.29,3.46a8.18,8.18,0,0,0,2.49,3.49,28.58,28.58,0,0,0,3-3.49Zm1.24-9.75v2.79h3.25V37.4Zm3.25,6.29V40.83h-3.25v2.86Z"/><path class="cls-1" d="M483.34,48.38l2.4,1.78a1.32,1.32,0,0,1-.86.46V55a4.2,4.2,0,0,1-2,.55h-.4V54.25h-3.92v1c0,.16-.7.66-1.89.66h-.39V52.05a9.44,9.44,0,0,1-2.91,3.26l-.22-.22c2-3,2.2-6.78,2.2-9.81V41.93a16.16,16.16,0,0,1-2.22,1.34l-.18-.19a20.88,20.88,0,0,0,4.95-7.86l3.57.73c-.09.26-.29.39-.86.48,7.53,1.36,4.91,5.85,2.91,4.36a8.58,8.58,0,0,0-3.13-4.14,19.69,19.69,0,0,1-2.93,3.54h2.64l1.11-1.41s1.27,1,2,1.68c-.06.24-.28.35-.59.35h-5.42l-.08-.33c-.42.37-.86.75-1.3,1.08l2.2.81h4l1.13-1.23,2.39,1.78a1.66,1.66,0,0,1-.9.49v4.37a4,4,0,0,1-2,.58h-.4V47.7h-4.73a13.16,13.16,0,0,1-.2,1.34l1.5.57h3.41Zm-1.08-1.3V45.36h-4.59c0,.53,0,1.1-.07,1.72ZM477.67,43v1.76h4.59V43Zm4.79,10.62V50.23h-3.92v3.38Zm6.34-3.08c0,.25-1,.69-1.81.69h-.41V37.13l3,.29c-.05.29-.22.48-.75.57ZM493.75,36c-.07.33-.29.55-.81.62V53c0,1.72-.36,2.69-3.11,3a3,3,0,0,0-.5-1.74,2.89,2.89,0,0,0-1.87-.81v-.31s2.17.13,2.64.13.46-.11.46-.39V35.66Z"/><path class="cls-1" d="M513.55,41.2s1.58,1.3,2.51,2.21c0,.24-.29.35-.6.35h-1.89v11.5c0,.16-.77.69-2.09.69H511V43.76h-2.11v.79c0,3.94-.38,8.51-5.28,11.4l-.24-.24c2.72-3.17,3-7.2,3-11.2v-.62A.66.66,0,0,1,506,44h-4.18v2.62h1L504,45.1s1.27,1.08,2,1.83c-.07.24-.26.35-.57.35h-3.63v8.1c0,.13-.75.55-2,.55h-.44V49.54h-.06a15.1,15.1,0,0,1-3.79,4.87l-.22-.25a19.08,19.08,0,0,0,2-6.2l2.11.92v-1.6h-3.56l-.18-.62h3.74V44h-4l-.18-.63h5.9a32.24,32.24,0,0,0,1-4.14h-4.66c4.49,2,2.2,5.35.55,3.65a9.33,9.33,0,0,0-.91-3.61l.14,0h-1.5l-.18-.64h4.62a2.38,2.38,0,0,1-.52-.31,6.42,6.42,0,0,0-1.17-3l.18-.11c4,.58,3.78,2.84,2.57,3.37h1.41l1.12-1.56s1.32,1.08,2.11,1.85c-.06.24-.28.35-.59.35h-2.79l2.64.81c-.09.27-.36.44-.82.4a24.8,24.8,0,0,1-2.57,2.93h1.52l1.21-1.63s1.23,1,2,1.8V37.11l2.58.82a22.56,22.56,0,0,0,3.91-2.62l2.71,2.15c-.24.22-.68.27-1.34.07a32.59,32.59,0,0,1-5.37,1.14v4.45h3.21Zm-11.47,7c4.91,2.06,2.73,5.87.95,4.15a8.65,8.65,0,0,0-1.16-4Z"/><path class="cls-1" d="M520.13,48.2a4.38,4.38,0,0,0,2.35-3c-1.23-.48-2.18-1.06-2.18-2.16A1.66,1.66,0,0,1,522,41.38c1.06,0,1.87.79,1.87,2.25a5.73,5.73,0,0,1-3.41,5.28Z"/><path class="cls-1" d="M538,45.21l2.34,2a1.44,1.44,0,0,1-.93.39c-.37,4.1-1.14,6.8-2.4,7.73a5,5,0,0,1-3.14.81,2.17,2.17,0,0,0-.55-1.72,6.42,6.42,0,0,0-2.62-.94v-.31c1.27.11,3.21.24,3.74.24a1.19,1.19,0,0,0,.84-.22c.68-.5,1.25-2.81,1.56-6h-5.06l-.88,1.08-2.29-1.36a3.67,3.67,0,0,1,.77-.51c.28-1.56.59-4.11.68-5.5l2.84,1.06h3.65V37.64h-7.52l-.2-.64h7.5l1.17-1.23,2.4,1.8a1.56,1.56,0,0,1-.82.42v5a4.28,4.28,0,0,1-2.11.59h-.42V42.5h-4.22c-.14,1.19-.4,2.82-.6,4h4.93Zm9.29-9.33c-.07.31-.22.55-.82.64V55c0,.31-1.14,1-2.15,1h-.51V35.55Z"/><path class="cls-1" d="M551.87,42.5a12,12,0,0,1-1.47,1.13l-.22-.16a23.65,23.65,0,0,0,3.6-8.21l3.33,1.06c-.09.29-.31.44-.9.48-.09.18-.18.38-.29.58,5.52,1.45,4.14,5.41,2,4.13A11.49,11.49,0,0,0,555.61,38,19.21,19.21,0,0,1,552,42.42h3.59l1.08-1.48s1.21,1,2,1.74c-.06.24-.28.35-.59.35h-6Zm7.94,4.36c-.17.2-.44.24-.88.29a17.41,17.41,0,0,1-3.19,4.15c2.93,2.29,1.46,5.22-.5,3.88A13.53,13.53,0,0,0,552,49.81l.2-.16a10.52,10.52,0,0,1,3,1.3,26.09,26.09,0,0,0,1.26-4.29h-5.26l-.2-.61h5.3l1.28-1.3Zm8.52-11.6s1.54,1.19,2.49,2.05c-.07.24-.29.35-.62.35h-4.34a17.53,17.53,0,0,1-2.13,2.42h3.12L568,38.87l2.26,1.76a1.41,1.41,0,0,1-.77.4v9.72a3.41,3.41,0,0,1-2,.66h-.42v-.83h-4.29v.35c0,.07-.06.15-.2.26l2.58,1.39c-.11.2-.33.24-.71.15a14.74,14.74,0,0,1-6.13,3.15l-.18-.29a14,14,0,0,0,4.14-4.22,3.42,3.42,0,0,1-1.5.37h-.37V39.07l2.46,1h.24c0-.64.09-1.6.11-2.42h-3.72l-.17-.64H567Zm-5.57,5.46v2.62h4.29V40.72Zm0,5.92h4.29V44h-4.29ZM567.05,50V47.28h-4.29V50Zm-1.49,1.43c6.88.79,5.56,5.53,3.08,4.23a12.39,12.39,0,0,0-3.26-4Z"/><path class="cls-1" d="M585.2,38.61c8.94,2.29,7.42,8.25,4.6,6.53a10.87,10.87,0,0,0-1.23-2.35c-3.24.66-7.94,1.45-13.67,2.27a1.27,1.27,0,0,1-.66.46l-.88-3a3.49,3.49,0,0,0,.88-.27,20.49,20.49,0,0,0,6.58-7l3.59,1.43c-.09.25-.37.42-.88.38a33.18,33.18,0,0,1-7.7,5.5c2.95,0,7.55-.18,12.34-.35A20.83,20.83,0,0,0,585,38.76Zm2.62,6.84,2.71,2.09a1.75,1.75,0,0,1-1,.53v7.09a5,5,0,0,1-2.28.61h-.44V53.92h-8.41V55c0,.27-1.21.89-2.33.89h-.4V45.78l2.89,1.12h8Zm-1,7.86V47.54h-8.41v5.77Z"/><path class="cls-1" d="M594.13,40.68c5.35,1,3.19,4.9,1.19,3.3a6.47,6.47,0,0,0-1.41-3.15Zm4.84.37c-.46,2.22-1.34,6.27-1.52,7.24a10.09,10.09,0,0,0-.17,1.91c0,1.15.86,2,.77,4A1.67,1.67,0,0,1,596.4,56c-.46,0-.9-.35-1-1.17.4-2.29.29-4.38-.15-4.71a2.1,2.1,0,0,0-1.08-.35V49.3h.93c.28,0,.35,0,.59-.44.35-.72.35-.72,3-7.88Zm-3.58-5.54c5.61,1.07,3.38,5.1,1.29,3.43a7.69,7.69,0,0,0-1.45-3.28Zm7.28,5.17c3,1.6,1.45,3.78.37,2.68a3.68,3.68,0,0,0-.06-.66c-.79.33-1.9.75-3,1.15a.91.91,0,0,1-.42.35l-.81-1.81a3.57,3.57,0,0,0,.53-.17,8.71,8.71,0,0,0,1.75-2l-1,.4a1.11,1.11,0,0,1-.49.46l-.88-2a2.6,2.6,0,0,0,.51-.17,9.59,9.59,0,0,0,2-3.59l2.29,1a.74.74,0,0,1-.79.3,17.69,17.69,0,0,1-2.71,2.6c.49,0,1.08,0,1.7,0a13.29,13.29,0,0,0,.77-1.43l2.06,1.3a.77.77,0,0,1-.83.24,20.34,20.34,0,0,1-3.28,3c.7,0,1.52-.1,2.38-.19a7.49,7.49,0,0,0-.47-1.32Zm12.19,11.5a1.23,1.23,0,0,1-.86.36c-.33,1.58-.81,2.59-1.74,3.08a5.83,5.83,0,0,1-2.66.46,1.76,1.76,0,0,0-.46-1.41,4.3,4.3,0,0,0-2.09-.79v-.29c1,.09,2.53.18,3,.18a1.41,1.41,0,0,0,.7-.11,2.55,2.55,0,0,0,.71-1.52h-8.72l-.85,1-2.27-1.37a4.54,4.54,0,0,1,.86-.52,26.23,26.23,0,0,0,.79-3l2.68,1.21h7V47.87H600.4l-.19-.64c-.69.75-2,0-1.08-1.18a2.39,2.39,0,0,0,.77-1.85h.33c.57,1.65.37,2.59,0,3h10.47l.66-.7a1.8,1.8,0,0,1-.18-.2,6.8,6.8,0,0,0,0-2.51l.31-.06c1.38,1.12,1.34,2.24.88,2.7l1.8,1.35a1.33,1.33,0,0,1-.79.39V50a4.3,4.3,0,0,1-2,.53h-.44v-.46h-7.64c-.15.48-.33,1-.48,1.47h8.58l1.25-1.14ZM601.42,44c2.31,2,.61,3.89-.29,2.7a7.07,7.07,0,0,0,0-2.64Zm1.25-.4c2.79,1.63,1.39,3.7.35,2.66a6.1,6.1,0,0,0-.64-2.53Zm1.1-5.13-.18-.64h3.55l.83-1s.93.75,1.54,1.32c-.06.24-.26.35-.57.35Zm4.86.6a2,2,0,0,0,.51-.16,9.34,9.34,0,0,0,2.22-3.58l2.27,1a.72.72,0,0,1-.8.31A17.5,17.5,0,0,1,610,39.2l1.85,0a12.26,12.26,0,0,0,.77-1.39l2.07,1.32a.75.75,0,0,1-.84.24,21.74,21.74,0,0,1-3.46,3.06c.73,0,1.65-.13,2.6-.22a6.13,6.13,0,0,0-.57-1.23l.26-.11c3.26,1.43,1.76,3.76.6,2.69a7.28,7.28,0,0,0-.13-.77c-.84.3-2,.77-3.22,1.16a1.14,1.14,0,0,1-.39.33l-.42-.94a.9.9,0,0,1-.49.24V46.2c0,.18-.74.48-1.21.48h-.24v-.63h-1.27v.39a1.35,1.35,0,0,1-1.17.49h-.22V42.17l1.65.73h.88l.68-.68,1.37,1-.38-.81a1.77,1.77,0,0,0,.53-.18,9.36,9.36,0,0,0,2-2.13c-.42.15-.82.33-1.23.48a1,1,0,0,1-.49.48l-.5-1.18a.53.53,0,0,1-.53.26h-4l-.17-.64h2.55l.77-.92s.77.61,1.32,1.12Zm-1,1.16s.84.68,1.39,1.21c0,.25-.24.35-.55.35h-4l-.17-.63h2.57Zm-2.79-5c3.65.66,2.07,3.32.66,2.22a3.86,3.86,0,0,0-.9-2.07Zm2.35,10.19V43.54h-1.27v1.87Zm3-1.41c1.57,4.33-2.55,3.52-1.12,1.65a2.08,2.08,0,0,0,.82-1.65Zm2.58-.57c2.82,1.58,1.39,3.69.35,2.66a6,6,0,0,0-.66-2.55Z"/><path class="cls-1" d="M634,52.23s1.78,1.36,2.88,2.29c-.07.24-.31.35-.64.35H616.37l-.17-.64H625v-6.6h-6l-.18-.64H625V41.36h-3.89a17.42,17.42,0,0,1-4.89,5.39l-.24-.2a30.38,30.38,0,0,0,4.09-10.47l3.7,1.1c-.07.26-.35.46-.86.46a22.21,22.21,0,0,1-1.45,3.1H625V35.42l3.65.35c-.06.33-.22.55-.81.64v4.33h3.48l1.51-1.87s1.7,1.23,2.78,2.14c-.07.24-.31.35-.66.35h-7.11V47h2.75l1.54-1.91s1.76,1.3,2.82,2.2c-.07.24-.29.35-.6.35h-6.51v6.6h4.53Z"/><path class="cls-1" d="M638.26,40.52c6,.27,4.25,4.76,1.94,3.35a7,7,0,0,0-2.11-3.17Zm6.91-.53c-.9,2.51-2.53,7.22-2.84,8.32a9.26,9.26,0,0,0-.37,2.07c0,1.14.95,1.89.88,3.81A1.78,1.78,0,0,1,641,56c-.53,0-1-.33-1.21-1.12.42-2.31.33-4.27-.2-4.62a2.25,2.25,0,0,0-1.17-.37v-.4h1c.33,0,.44,0,.7-.46.51-.82.51-.82,4.73-9.16Zm-5.26-4.29c6.14.27,4.58,4.84,2.14,3.52a9,9,0,0,0-2.31-3.34Zm16.64,5s1.56,1.3,2.49,2.18c-.07.24-.31.35-.62.35H652.7v4.22h1.85l1.21-1.32L658.24,48a1.67,1.67,0,0,1-.9.46v6.58a3.71,3.71,0,0,1-2.13.72h-.44V54H648.1v1.12c0,.24-1.1.79-2.18.79h-.33V46.38l2.64,1h1.85V43.21h-5.57l-.17-.64h5.74V38.83c-1.78.17-3.65.31-5.37.35l0-.33a58.42,58.42,0,0,0,10.87-3.34L658.09,38a1.58,1.58,0,0,1-1.45,0c-1.1.22-2.47.44-3.94.61v4h2.44Zm-8.45,7.39v5.28h6.67V48.07Z"/><path class="cls-1" d="M677.87,47.06s1.65,1.23,2.62,2.09c0,.24-.29.35-.6.35h-8.6c-.73,3.06-2.73,5.19-10.72,6.49l-.13-.35c5.54-1.67,7.33-3.59,8-6.14h-7.07l-.17-.64h7.37a24,24,0,0,0,.22-2.57l3.65.26c0,.31-.26.55-.77.62-.07.59-.13,1.14-.22,1.69h5ZM669,45.43V42.81h-6l-.18-.64H669V39.69h-7.24l-.2-.64h5.57a2.56,2.56,0,0,1-.73-.35,6,6,0,0,0-1.47-3.13l.17-.13c4.65.4,4.25,3.21,2.73,3.61h4.07a28,28,0,0,0,1.21-3.7l3.46.77c-.09.29-.33.46-.84.44a25,25,0,0,1-3.12,2.49H676l1.41-1.76s1.6,1.19,2.55,2c-.06.25-.29.36-.62.36h-7.59v2.48h3l1.32-1.63s1.52,1.11,2.44,1.92c-.07.24-.31.35-.62.35h-6.16v2.62h4.71l1.43-1.83s1.63,1.24,2.56,2.12c0,.24-.29.35-.58.35H660.77l-.18-.64Zm3.06,4.8c9.77.81,9.28,6.49,6.29,5.52a23.3,23.3,0,0,0-6.47-5.3Z"/><path class="cls-1" d="M685.23,44.31A2.32,2.32,0,0,1,684.07,47c-1.67.7-2.8-1.41-1-2.38a2.54,2.54,0,0,0,1.19-2.4l.26,0a8.49,8.49,0,0,1,.55,1.45h.31l-.22-7.41,2,.39A16.76,16.76,0,0,0,689,35.29l1.76,1.34.07-.07a8.38,8.38,0,0,1,1.69.22,7.88,7.88,0,0,0,.8-1.32l2,1c-.09.19-.31.24-.7.15a6.72,6.72,0,0,1-.75.77c1.1.88.59,2-.44,1.69a6.36,6.36,0,0,0-.73-.79,12,12,0,0,1-2.31,1.23l0-.06c-.07.17-.27.24-.51.24h-2.24l.06,1.7h.51l.81-1.08s.93.77,1.5,1.36a.5.5,0,0,1-.55.35h-2.27l.07,1.63h9.46l.07-1.63h-1.81l-.17-.63h2l.07-1.7h-1.83l-.2-.62h2.07l.09-1.71h-2.18l-.18-.64h2.16l1-1.14,2.31,1.76a1.11,1.11,0,0,1-.77.3l-.29,5.79,1.12-1.1,2.29,2.2c-.17.18-.39.22-.83.24a33.91,33.91,0,0,1-3.17,1.65l-.2-.15c.18-.51.44-1.34.64-2Zm14.61,3.83s1.54,1.27,2.45,2.13c-.07.24-.29.35-.62.35h-7.83v2.29c0,1.8-.4,2.8-3.37,3.06a3.09,3.09,0,0,0-.55-1.81,3,3,0,0,0-2-.85V53s2.48.15,3,.15c.33,0,.44-.09.44-.37V50.62h-8.43L682.7,50h8.61V48.22l2,.18c.55-.48,1.12-1,1.58-1.52H687l-.2-.64h8.4l1.39-1.32L699,47a1.23,1.23,0,0,1-.9.27c-1,.37-2.24.86-3.5,1.23,0,.33-.26.48-.72.55V50h4.62Zm-11-10s.75.57,1.3,1.1a11.81,11.81,0,0,0,1.65-1.6c-.36-.27-.73-.51-1.06-.71a1,1,0,0,1-.55,0,17.91,17.91,0,0,1-2.73.57l0,1.69h.56Zm6.73,2.2c-.11.22-.35.27-.7.18a6.5,6.5,0,0,1-.86.9c1.12,1,.53,2.29-.6,1.83a4.23,4.23,0,0,0-.66-.93,11.63,11.63,0,0,1-2.7,1.26l-.18-.33A10.81,10.81,0,0,0,692,41.49a12.08,12.08,0,0,0-1.34-1l.22-.22a8.43,8.43,0,0,1,1.87.35,7.25,7.25,0,0,0,.83-1.3Z"/><path class="cls-1" d="M717.07,38.08a24,24,0,0,1-2,3.78l1.36.51c-.06.2-.26.35-.68.42V55.4a4,4,0,0,1-2.15.57h-.49V44.57a28.69,28.69,0,0,1-8.89,7.31l-.17-.18a30.23,30.23,0,0,0,9.55-13.62h-9.07l-.18-.62h15.87l1.58-2s1.81,1.36,2.89,2.29c-.07.24-.31.35-.64.35Zm-.4,5.57c10,2.15,8.87,8.09,5.92,6.64a23,23,0,0,0-6.11-6.44Z"/><path class="cls-1" d="M744.77,41.2s1.45,1.19,2.31,2a.54.54,0,0,1-.59.35h-1.68V55.33a2.28,2.28,0,0,1-1.87.66h-.39V43.56H740.7v1.65c0,3.76-.27,8-4.36,10.82l-.26-.24a9.71,9.71,0,0,0,1.14-2h-8.14l-.7,1.1-2.16-1.36a3.19,3.19,0,0,1,.66-.57V35.88l2.64.29c0,.24-.2.39-.59.46V38.7a1.12,1.12,0,0,1,.26-.11,8.35,8.35,0,0,0,1.54-3.08l2.11,1c-.08.2-.33.37-.77.33a18,18,0,0,1-2,1.94h1.57c.2-.42.37-.8.5-1.08l1.39.88.13-.07a8.45,8.45,0,0,0,1.63-3.1l2.09,1.1c-.09.2-.35.35-.79.29a17.32,17.32,0,0,1-2,1.93c.46,0,1,0,1.45,0a12.92,12.92,0,0,0,.73-1.39l1.65,1.1v-1.4l2.22.7a28.4,28.4,0,0,0,3.58-2.44l2.65,2.22c-.27.24-.73.26-1.37,0a38.72,38.72,0,0,1-4.86.91v4.44h2.77Zm-15.84-2.06v2.94a2.46,2.46,0,0,0,.5-.17,8.37,8.37,0,0,0,1.83-2.36l-1.3.58a1.11,1.11,0,0,1-.42.37Zm4.44.08a20.33,20.33,0,0,1-3.15,3c.49,0,1.11,0,1.72,0a3.47,3.47,0,0,0-.4-1l.29-.13c2.86,1.52,1.3,3.63.27,2.55a3.18,3.18,0,0,0,0-.81c-.5.24-1.23.55-1.85.81a1,1,0,0,1-.44.42l-.85-2v2.09h7l.77-1a4.12,4.12,0,0,0-.11-.83c-.51.24-1.28.57-1.94.85a1.18,1.18,0,0,1-.44.38l-.86-1.92a3,3,0,0,0,.53-.15,8.3,8.3,0,0,0,1.72-2c-.33.13-.73.31-1.08.46a.93.93,0,0,1-.49.49l-.55-1.23Zm2.91,12.85,1.21,1.06a23.56,23.56,0,0,0,1-8v-.49a.64.64,0,0,1-.47.16h-2.66l1.78.94a.79.79,0,0,1-.81.31A15.21,15.21,0,0,1,734.49,48l1.3,0a11.46,11.46,0,0,0,.68-1.37l1.94,1.26a.72.72,0,0,1-.81.24,22.6,22.6,0,0,1-2.86,2.84l1.73-.09a4.2,4.2,0,0,0-.37-1.12l.31-.14c2.55,1.63,1.05,3.59.15,2.53a4.57,4.57,0,0,0,0-.74c-.5.24-1.25.59-2,.9a1.19,1.19,0,0,1-.52.59l-.86-2a2.3,2.3,0,0,0,.55-.15,9.51,9.51,0,0,0,1.49-1.81l-1,.49a1.08,1.08,0,0,1-.44.42l-.73-1.63a21.55,21.55,0,0,1-2.91,2.9c.49,0,1.08,0,1.7,0a4.86,4.86,0,0,0-.35-1.06l.28-.13c2.56,1.61,1.06,3.52.13,2.49a2.81,2.81,0,0,0,0-.71c-.52.27-1.27.57-1.89.86a1,1,0,0,1-.37.33L728.93,51v2.13h6.47Zm-7.35-4.29a1.15,1.15,0,0,0,.28-.08,7.16,7.16,0,0,0,1.63-2.86h-1.91Zm0,3.19.46-.15a8.74,8.74,0,0,0,1.67-2.07c-.33.18-.73.38-1.1.55a.87.87,0,0,1-.37.35l-.66-1.47Zm4.75-3.34a8.91,8.91,0,0,0,1.43-2.79h-4.23l2,1a.76.76,0,0,1-.81.31,14.73,14.73,0,0,1-1.81,1.69c.42,0,.88,0,1.37,0a11.76,11.76,0,0,0,.59-1.19Zm2.75-5.74a4.64,4.64,0,0,0-.53-1,15.31,15.31,0,0,1-1.23,1.06C735.18,41.93,735.79,41.91,736.43,41.89Zm2.05-3.08a1.43,1.43,0,0,1-.6,0,22.81,22.81,0,0,1-1.91,2l.22-.09c2.29,1,2,2.56,1.32,2.78.31.26.68.59,1,.85Z"/><path class="cls-1" d="M756.08,46.6a3.33,3.33,0,0,1-.58.11,11.68,11.68,0,0,1-3.39,4.48,1.41,1.41,0,0,1,.47.22c1.73,1.41,4.35,1.74,9.11,1.72,2.57,0,4.68,0,7.24-.15v.26a2.39,2.39,0,0,0-1.79,2.16h-6.31c-4.71,0-6.65-.91-8.52-3.19-.33-.4-.57-.36-.77,0a29.81,29.81,0,0,0-1.45,3,.35.35,0,0,1-.18.44l-1.76-2.49c.82-.44,1.92-1.16,2.67-1.62a15.38,15.38,0,0,0,2.06-5.06H751.7l-.82.74-2-1.4a3.65,3.65,0,0,1,.86-.44c.68-1,1.56-2.53,2.11-3.61h-3.15l-.2-.64H752L753.08,40,755.22,42a38.53,38.53,0,0,0,2.09-6.62l3.45,1.08c-.06.28-.35.48-.86.46a26.24,26.24,0,0,1-1.25,2.42l.22.09h3.19a1.71,1.71,0,0,1-.62-.38,7.68,7.68,0,0,0-1.16-3.65l.22-.11c3.87,1.21,3.56,3.68,2.37,4.14h1.59l1.32-1.61s1.45,1.1,2.38,1.89c-.07.25-.31.36-.62.36h-4.25v3h1l1.28-1.58s1.43,1.07,2.29,1.87c-.05.24-.27.35-.6.35h-3.94v3h1L765.54,45s1.43,1.08,2.29,1.87c-.05.25-.27.36-.6.36h-3.94v3.27h1.48l1.34-1.71s1.56,1.16,2.51,2c0,.24-.31.35-.62.35h-9.42v.46c0,.18-.77.75-2.06.75h-.44Zm-6.76-10.92c6.25.29,4.4,5.06,1.91,3.52a7.36,7.36,0,0,0-2.09-3.39Zm3.45,10.19,1.33-1.28,2,1.61V42.7a16.14,16.14,0,0,1-1.57,1.45l-.26-.17c.29-.53.57-1.15.86-1.81a2.33,2.33,0,0,1-1.06.22c-.55.93-1.45,2.42-2.11,3.48ZM758.58,40v3h2.25V40Zm2.25,3.63h-2.25v3h2.25Zm0,3.61h-2.25v3.27h2.25Z"/><path class="cls-1" d="M770.07,47.26a35.86,35.86,0,0,0,5.21-12l3.7,1.18c-.09.27-.38.47-.9.44a26.66,26.66,0,0,1-2.29,4.6l1,.38c-.07.19-.27.33-.68.41V55.2A3.14,3.14,0,0,1,774,56h-.48V44.57a20.14,20.14,0,0,1-3.17,2.86Zm20,5.39c.79.3,1,.59,1,1.07,0,1.15-1.14,1.57-5.54,1.57h-2.67c-2.53,0-3.43-.49-3.43-2.56v-17l3.23.35c0,.28-.22.53-.79.61v6.54h5l1.23-1.76s1.43,1.21,2.27,2c-.07.25-.27.36-.6.36h-7.9v8.22c0,.66.31.86,1.32.86h2.53c1,0,1.74,0,2.14,0a1,1,0,0,0,.72-.33,15.08,15.08,0,0,0,1.13-3H790Z"/><path class="cls-1" d="M793.92,45.65A3.11,3.11,0,1,1,797,48.77,3.11,3.11,0,0,1,793.92,45.65Zm.79,0A2.32,2.32,0,1,0,797,43.34,2.33,2.33,0,0,0,794.71,45.65Z"/></g></g></svg>