<svg xmlns="http://www.w3.org/2000/svg" viewBox="0 0 190.66 55.68"><defs><style>.cls-1{fill:#231815;}</style></defs><g id="圖層_2" data-name="圖層 2"><g id="圖層_1-2" data-name="圖層 1"><path class="cls-1" d="M19.49,11.81s1.9,1.42,3.07,2.42c-.07.27-.33.39-.67.39H12.7v6.93c0,.32-1.27,1-2.4,1H9.72v-8H.26L.05,14H9.72V9.19H1.8l-.22-.67H9.72V.07l3.87.39c-.08.33-.24.57-.89.67V8.52h4.2l1.58-2s1.83,1.37,2.95,2.31c-.07.26-.33.38-.69.38h-8V14h5.06ZM2.81,1.18C10.18,3.67,7.63,9.26,4.92,7A13.64,13.64,0,0,0,2.59,1.3ZM20.57,2.4c-.12.26-.43.46-1,.41a23.52,23.52,0,0,1-5.07,4.85l-.29-.22A45,45,0,0,0,16.85.86Z"/><path class="cls-1" d="M44.26,5.3s1.63,1.37,2.59,2.31c-.05.26-.31.38-.65.38H42.39V15.7c0,.24-1.23.81-2.31.81h-.53V14.69H36.29v1.56c0,.26-1.2.84-2.28.84H33.5V8H30.38V20.07H41.59l1.64-2.21s1.84,1.49,2.92,2.52c-.07.26-.33.38-.69.38H30.55l-.86,1.42-2.86-1.66a3.5,3.5,0,0,1,.72-.72V8H24.19L24,7.32h3.57V.67l3.7.39c-.05.33-.26.57-.87.67V7.32H33.5V.19l3.68.34c-.07.33-.24.6-.89.69v6.1h3.26V.55l3.72.36c0,.34-.21.58-.88.67V7.32h.38ZM39.55,8H36.29v6h3.26Z"/><path class="cls-1" d="M50.45,15.84c1,2.52.77,4.44,0,5.4a1.43,1.43,0,0,1-2.28-.19,1.56,1.56,0,0,1,.67-2,4.51,4.51,0,0,0,1.2-3.24Zm5.21-14a.72.72,0,0,1-.79.34A26.91,26.91,0,0,1,50.11,7c1.06,0,2.38,0,3.77,0A16.38,16.38,0,0,0,55.37,4.3l3,2.06a.9.9,0,0,1-1,.26,34.25,34.25,0,0,1-6.81,6c1.34-.07,3.09-.19,4.92-.33a11.51,11.51,0,0,0-.89-2.23l.26-.12c5.16,2.25,2.88,6.12,1,4.37A8.07,8.07,0,0,0,55.73,13c-1.44.6-3.48,1.36-5.74,2.11a1.42,1.42,0,0,1-.67.57l-1.1-3a4.25,4.25,0,0,0,.88-.31,19.55,19.55,0,0,0,4-4.23c-.88.36-1.92.74-3,1.13a1.45,1.45,0,0,1-.67.62L48.14,7a3.3,3.3,0,0,0,.75-.26A18.69,18.69,0,0,0,52.39.07ZM52.54,15.46c4.2,3.09,1.41,6.72-.24,4.63a12.6,12.6,0,0,0-.08-4.56ZM55.13,15c5.11,2,2.78,6,.89,4.17a9.1,9.1,0,0,0-1.15-4Zm14.5,3.93c.79.29,1,.6,1,1.08,0,1.18-1.17,1.59-5.68,1.59H62.07c-2.62,0-3.32-.48-3.32-2.43V8.21l3,1.17h4.42V2.78h-8L58,2.09h7.89L67.23.58l2.85,2.2a2.07,2.07,0,0,1-1.2.6v8.16a4.12,4.12,0,0,1-2.28.68h-.43V10.06H61.44V18.6c0,.46.17.58,1.11.58h2.66c1,0,1.85,0,2.23,0a.78.78,0,0,0,.72-.36,16.79,16.79,0,0,0,1.11-3.12h.26Z"/><path class="cls-1" d="M84.17,7.18c.86,4.65,3.72,9.43,10.54,12.38l0,.29A3,3,0,0,0,92,22.56c-5.49-3.48-7.39-9.29-8.11-14.18a17.87,17.87,0,0,1-2.47,7.13c6.62,2.3,3.74,7.36,1.12,5a10.43,10.43,0,0,0-1.51-4.46c-1.75,2.49-4.53,4.73-8.88,6.57L72,22.27c6.77-4.41,8.59-9.55,9.08-15.09H72.6l-.22-.68H81.1c.14-2.06.12-4.17.12-6.33l4,.41c0,.33-.27.57-.87.67,0,1.77-.09,3.53-.24,5.25h5.19l1.75-2.2s2,1.48,3.12,2.49c-.07.27-.34.39-.7.39Z"/><path class="cls-1" d="M115.54,10.7s1.89,1.4,3,2.38c-.08.27-.34.39-.7.39h-9.22v8.3c0,.19-.91.82-2.4.82h-.52V13.47H96.24l-.19-.68h9.7v-10H97.32l-.22-.7h15.75l1.7-2s1.88,1.4,3,2.36c-.07.26-.33.38-.69.38h-8.24v10h5.19ZM99.34,4.1c7,3.39,4.15,9,1.51,6.48A17.13,17.13,0,0,0,99.07,4.2Zm10.85,7.28A57.6,57.6,0,0,0,112.71,4l3.72,1.37c-.1.26-.39.48-.94.43a23.58,23.58,0,0,1-5,5.71Z"/><path class="cls-1" d="M120.12,6.14c6.5.27,4.66,5.19,2.14,3.63A8,8,0,0,0,120,6.31Zm8-2.32c-1,3.12-2.86,8.88-3.2,10.25a10.12,10.12,0,0,0-.38,2.37c0,1.25,1,2.07.94,4.18a2,2,0,0,1-2,2c-.58,0-1.13-.34-1.3-1.25.41-2.47.29-4.61-.26-5a2.21,2.21,0,0,0-1.25-.38v-.46h1.1c.36,0,.46,0,.7-.5.57-1,.57-1,5.33-11.31ZM122,.55c6.7.27,5,5.28,2.33,3.82A10,10,0,0,0,121.85.72ZM140,13.75s1.7,1.42,2.71,2.38c-.07.26-.31.38-.65.38h-6.14v5.31c0,.17-.89.74-2.36.74H133v-6h-6.1l-.19-.69H133V11.3h-4.81l-.19-.69h5V6.31h-5.21l-.2-.67h7.33A48,48,0,0,0,136.66,0l3.84,1.1c-.1.27-.34.48-.89.46a35.61,35.61,0,0,1-4.08,4.08h2.71l1.49-1.9s1.66,1.32,2.66,2.19c-.07.26-.31.38-.67.38h-5.85v4.3h1.94l1.42-1.95s1.6,1.35,2.56,2.26c-.07.26-.31.38-.64.38h-5.28v4.52h2.56ZM129.1.19c6.62,1.66,4.13,6.58,1.63,4.56A10.07,10.07,0,0,0,128.88.34Z"/><path class="cls-1" d="M152.81,10.27c-.17.27-.39.34-.91.41a19.18,19.18,0,0,1-2.16,6.87c2.61,1.41,6.19,1.72,11.16,1.72,1.25,0,4.15,0,5.66,0v.29a2.32,2.32,0,0,0-1.7,2.35h-4.18c-5.57,0-9.34-.58-12-2.9A12.67,12.67,0,0,1,144,22.56l-.17-.29a11.39,11.39,0,0,0,3.67-4.56,17.31,17.31,0,0,1-2.64-6l.27-.15a11.66,11.66,0,0,0,3,4.76,24.53,24.53,0,0,0,1.2-6h-1.44l-.84.86-2.35-1.51a2.75,2.75,0,0,1,.86-.5,59.83,59.83,0,0,0,2.71-5.95h-4l-.22-.7h4.18l1.2-1.2,2.4,2.16a1.58,1.58,0,0,1-1,.38c-.65,1.49-1.87,4.08-2.74,5.76h1.06l1.32-1.36ZM164.93,4s1.32,1.32,2,2.16a.57.57,0,0,1-.62.39h-2.69V9.84a3.93,3.93,0,0,1-2.18.65H161V9.67h-2.14v2.45h2.28l1.35-1.78s1.56,1.2,2.47,2.07c-.07.26-.29.38-.65.38h-5.45v2.5h2.88l1.51-1.9s1.73,1.28,2.79,2.21c-.07.27-.34.39-.67.39h-6.51v2.23c0,.21-1.1.72-2.16.72h-.53V16H151.3l-.2-.7h5.09v-2.5H152.4l-.19-.67h4V9.67h-3.5L152.47,9h3.72V6.53h-5.28l-.19-.7h5.47V3.41h-3.74l-.22-.67h4V.1l3.58.33c-.05.36-.24.6-.89.7V2.74h1.9l1.2-1.3,2.57,1.92a1.81,1.81,0,0,1-.94.48v2h.17Zm-6.05,1.85H161V3.41h-2.14Zm2.14.7h-2.14V9H161Z"/><path class="cls-1" d="M176.35,3.17s1.37,1.08,2.21,1.87c-.05.26-.31.38-.65.38h-9.69l-.2-.69h7.13Zm5.24.53a7.23,7.23,0,0,1-4.47,7.08l.46.43c-.08.26-.31.38-.65.38H169.2L169,10.9h5.28l1.15-1.47,1.35,1.08a9.31,9.31,0,0,0,2.28-6.81v-3l3,1.08h2L185.33.43l2.33,1.92a1.45,1.45,0,0,1-.87.36v4c0,.24.08.34.39.34h1.25l.5,0,.55-.09h.22l.09,0c.58.29.8.53.8,1,0,1-.82,1.49-3.12,1.49h-1.16c-1.8,0-2-.51-2-2.07V2.47h-2.71Zm-7.3,4.1,1.15-1.51s1.3,1,2.11,1.82c-.07.27-.31.39-.64.39h-7.69L169,7.8Zm.19,13.59v-1.3h-2.71v1.44c0,.24-1.06.79-2.09.79h-.36V13l2.54,1h2.4l1.16-1.22,2.45,1.82a1.74,1.74,0,0,1-.92.46v5.57a3.41,3.41,0,0,1-2.06.72Zm-3.89-21c6.34.31,4.06,5.11,1.51,3.43A6.76,6.76,0,0,0,170.42.55Zm3.89,19V14.71h-2.71v4.71Zm14.71-7.49c-.16.24-.43.31-1,.36a16.14,16.14,0,0,1-3.53,5.35,20.35,20.35,0,0,0,6,2.07l0,.26a3.09,3.09,0,0,0-2.28,2.38,15.41,15.41,0,0,1-5.44-3.22A20.78,20.78,0,0,1,175,22.54l-.15-.31a18.71,18.71,0,0,0,6.87-4.47,15,15,0,0,1-2.57-5.93H178l-.22-.69h7.39l1.54-1.47Zm-9.62-.1a10.25,10.25,0,0,0,3.26,4.59,15.36,15.36,0,0,0,2.4-4.59Z"/><path class="cls-1" d="M13.08,46.78c2.14,2.57,6,4.41,9.55,5.18l0,.27a3.22,3.22,0,0,0-2.28,2.59A14.48,14.48,0,0,1,12.65,47v7.77c0,.27-1.2.84-2.3.84h-.6V49.68A25.18,25.18,0,0,1,.17,55L0,54.65a21.88,21.88,0,0,0,8.42-7.87H6.29v.6c0,.26-1.27.91-2.45.91H3.41V38.18l3.07,1.18H9.75V37.08h-9l-.19-.67h9.2V33.05l3.79.38c0,.34-.24.58-.89.67v2.31h4.7L19,34.22s1.88,1.47,3,2.48c-.07.26-.34.38-.7.38H12.65v2.28h3.26l1.35-1.46L20.07,40a1.56,1.56,0,0,1-.94.5v6.58a4.15,4.15,0,0,1-2.47.84h-.51V46.78ZM6.29,40v2.69H9.75V40Zm0,6.08H9.75V43.42H6.29ZM12.65,40v2.69h3.5V40Zm3.5,6.08V43.42h-3.5v2.69Z"/><path class="cls-1" d="M44.38,52.23c1.34.24,1.65.62,1.65,1.1,0,1.32-1.6,1.56-9.69,1.56H31c-3.89,0-5.61-.41-5.61-3.14V35.45h-.84l-.22-.67h17l1.44-1.92s1.61,1.32,2.59,2.2c-.07.27-.33.39-.67.39H28V51.39c0,1.08.65,1.41,2.74,1.41h5.8c2.07,0,3.92,0,4.64-.12.45,0,1-.09,1.41-.14A9.29,9.29,0,0,0,44,52.2h.26Zm-10.73-.65V50.4h-2v1a2.74,2.74,0,0,1-2,.72h-.34V44l2.4,1h1.68l1.08-1.13,2.26,1.71a1.32,1.32,0,0,1-.79.38v5a3.47,3.47,0,0,1-1.95.63Zm5.42-9.29H34.3V43c0,.24-1.2.82-2.28.82h-.39V36.34l2.79,1.08h4.44l1.22-1.32L42.65,38a1.59,1.59,0,0,1-.86.46v4.22a4.49,4.49,0,0,1-2.24.65h-.48Zm-5.42,7.42V45.65h-2v4.06Zm5.42-8.12V38.11H34.3v3.48Zm2.64,9.89V50.4H39.65V51c0,.21-1,.72-2,.72h-.34V44l2.43,1H41.5l1.1-1.15,2.31,1.75a1.45,1.45,0,0,1-.8.39v4.92a3.9,3.9,0,0,1-2,.62Zm0-1.77V45.65H39.65v4.06Z"/><path class="cls-1" d="M64.06,47.14c6,.93,4.44,5.16,2.25,3.84a6.14,6.14,0,0,0-.74-1.54c-1.25.24-2.74.51-4.44.79V52.9c0,1.68-.43,2.57-3.36,2.78a2.55,2.55,0,0,0-.41-1.56,2.8,2.8,0,0,0-1.7-.72v-.31s1.82.12,2.28.12.43-.14.43-.36V50.67L55,51.19l2.33,1c-.12.24-.31.36-.84.31a20.09,20.09,0,0,1-7.11,2.93l-.24-.29A20.89,20.89,0,0,0,54,51.34l-1.61.19a1,1,0,0,1-.48.46l-1.19-2.5a7,7,0,0,0,.95-.14,31,31,0,0,0,5-1.66c-1,.17-2,.31-3.12.46a.92.92,0,0,1-.41.4l-1-1.89a3.75,3.75,0,0,0,.58-.15,12.67,12.67,0,0,0,3.19-1.41,8.7,8.7,0,0,1-1.42.09,1.07,1.07,0,0,0-.28-.86,2.4,2.4,0,0,0-1.3-.51v-.36c.58,0,1.46.1,1.87.1a.82.82,0,0,0,.65-.19.94.94,0,0,0,.14-.19H51.91l-.89,1-2.18-1.44a5.31,5.31,0,0,1,1-.52c.12-.53.26-1.11.41-1.78H48.6l-.19-.7h1.94c.19-1,.39-2,.51-2.83a14.46,14.46,0,0,1-2.28,1.42l-.22-.22a16.71,16.71,0,0,0,2.86-5.06l3.43.74c-.07.27-.27.36-.89.34a10.07,10.07,0,0,1-1,1.17h4.67l1.23-1.51s1.39,1.06,2.26,1.83c0,.26-.29.38-.63.38H52l-.34.31,1.9.82h2.74l1.05-1.06,2,1.66a1.45,1.45,0,0,1-.94.36c0,.6-.07,1.15-.09,1.65h.24l.89-1.44s1,1,1.63,1.76c-.05.26-.27.38-.58.38H58.23a18.09,18.09,0,0,1-.29,2h.14L59,41.35s1,.82,1.6,1.44c0,.27-.28.39-.6.39H57.77a3.77,3.77,0,0,1-.43,1,10.54,10.54,0,0,0,.91-.7l1.78,2a.89.89,0,0,1-1-.07,32,32,0,0,1-4.18,1.41l4-.07a31.67,31.67,0,0,0,4.68-2.62L65.93,46c-.14.22-.55.34-1.1.12a63.39,63.39,0,0,1-10.49,3.38c2.83-.12,6.77-.31,10.89-.57a12.19,12.19,0,0,0-1.41-1.61Zm-8.19-4.66a10.78,10.78,0,0,0,.36-2H52.37c-.17.72-.31,1.42-.48,2Zm-3-4.68c-.1.58-.24,1.25-.39,1.94H56.3c.08-.57.12-1.22.17-1.94Zm-.15,2.86a2.69,2.69,0,0,1,2.43.45.81.81,0,1,1-1.27,1,2.9,2.9,0,0,0-1.28-1.18Zm.43-2.57a2.68,2.68,0,0,1,2.36.33.78.78,0,1,1-1.16,1,3.18,3.18,0,0,0-1.29-1.08Zm15.37-1A9.63,9.63,0,0,1,66,41.33a15.13,15.13,0,0,0,4.44,1.29l0,.27a2.55,2.55,0,0,0-1.56,2.33,9.61,9.61,0,0,1-4.39-2.62,15.7,15.7,0,0,1-4.65,2.09l-.15-.29a12.26,12.26,0,0,0,3.91-2.95,14,14,0,0,1-1.65-3.58A11,11,0,0,1,60.55,39l-.33-.21a20.32,20.32,0,0,0,1.56-5.74l3.29.87a.86.86,0,0,1-.89.5,12.54,12.54,0,0,1-1.11,2h3.46l1.37-1.85s1.53,1.25,2.45,2.14a.59.59,0,0,1-.63.38Zm-6,0a3.36,3.36,0,0,1-.34.41,7.93,7.93,0,0,0,2.14,2.83,10,10,0,0,0,1.27-3.24Zm.19,14.35c8.19-.31,7,4.68,4.59,3.77a14,14,0,0,0-4.68-3.45Z"/><path class="cls-1" d="M76.34,36.53H72.17l-.19-.7h4.29L76,33.19l3.53.24c0,.27-.19.53-.67.67L79,35.83h.75L81.07,34s1.47,1.25,2.33,2.11c-.05.27-.31.39-.65.39H79.13l.21,1.61c-.38.52-1.41.76-2.71.72Zm15.37,9.55s1.46,1.13,2.37,2c-.07.26-.31.38-.67.38H84.55v2.64H89l1.48-1.85s1.71,1.25,2.72,2.14c-.08.26-.34.38-.68.38H84.55v3.12c0,.17-.84.72-2.28.72h-.5V51.72H74l-.19-.67h8V48.41H72.94l-.22-.67h9V44.23a1,1,0,0,1-.31.05H78.34v2.28c0,.19-.94.55-1.71.55h-.41V44.28H72.65l-.19-.7h3.76V40.85l2.84.26c0,.27-.19.48-.72.55v1.92h.55L80,42.05s1,.79,1.73,1.51V40.1H73.54l-.17-.67H89.59L91,37.8s1.54,1.1,2.47,1.92c-.07.26-.33.38-.67.38H84.55v7.64h5.84Zm.6-12s1.44,1.25,2.32,2.11c-.07.27-.31.39-.64.39H89l-.29,1.82a3.7,3.7,0,0,1-2.76.34l.34-2.16H84.05l-.19-.7h2.57l.4-2.64,3.48.58c0,.31-.26.57-.93.62l-.22,1.44H91ZM92.23,42s1.35,1.15,2.12,1.95c0,.26-.29.38-.6.38H89.5v2.07c0,.16-.94.52-1.71.52h-.4V44.28H85.23l-.2-.7h2.36V40.85l2.83.26c0,.27-.19.48-.72.55v1.92h1.56Z"/><path class="cls-1" d="M106.92,38.3a1.74,1.74,0,0,1-1,.51v14.3a3.62,3.62,0,0,1-2.23.8h-.41V52H99.62v1.78c0,.31-1,.91-2.16.91H97V36.55l2.69,1.13h.14c.17-1.32.39-3.19.51-4.54l3.89.94c-.1.41-.43.58-1,.58-.62.84-1.56,2.08-2.33,3H103l1.27-1.44Zm-7.3.08v5.95h3.65V38.38Zm3.65,13V45H99.62v6.31Zm15.36-13a1.56,1.56,0,0,1-1,.46c-.17,9.67-.51,14.07-1.83,15.48a4.4,4.4,0,0,1-3.5,1.3,2.65,2.65,0,0,0-.53-2,5,5,0,0,0-2.54-1.06l0-.33c1.15.09,2.81.21,3.43.21a1.13,1.13,0,0,0,.89-.31c.89-.81,1.13-5.59,1.3-13.78h-4.47a18.31,18.31,0,0,1-4,5l-.31-.19a35.93,35.93,0,0,0,3.24-10l3.79,1.1c-.1.32-.39.48-.94.48a25.15,25.15,0,0,1-1.34,2.91h3.81l1.52-1.56ZM108,42.5c7,2.07,4.39,7.25,1.84,5.12a10.57,10.57,0,0,0-2-5Z"/><path class="cls-1" d="M123.94,41.42V54.55c0,.36-1,1-2.21,1h-.46V33.7l2.79,1.2h3.14l1.18-1.3,2.49,1.9A1.59,1.59,0,0,1,130,36v5.86a3.54,3.54,0,0,1-2.09.74h-.46V41.42Zm0-5.83V37.8h3.5V35.59Zm3.5,5.16V38.47h-3.5v2.28Zm7.08,8v5.13a2.6,2.6,0,0,1-1.92.56h-.43V48.7H130c-.27,2.11-1.2,4.41-4.73,5.93l-.24-.27a7.59,7.59,0,0,0,2.69-5.66H124.9l-.19-.7h3V44.54h-2.3l-.19-.67H134l1.24-1.63s1.44,1.13,2.28,1.94c0,.24-.28.36-.62.36h-2.33V48h.07l1.2-1.63s1.35,1.13,2.14,1.94c-.07.27-.31.39-.65.39Zm-2.35-.7V44.54h-2.11v2.72a6.27,6.27,0,0,1,0,.74Zm10.06-12.46a1.61,1.61,0,0,1-1,.48V52.37c0,1.9-.38,3-3.29,3.22a4.32,4.32,0,0,0-.43-2,2.37,2.37,0,0,0-1.68-.91v-.31s1.8.09,2.23.09.46-.14.46-.45V41.42h-3.65v.17c0,.24-1.13.79-2.21.79h-.38V33.82L135,34.9h3.31l1.25-1.47Zm-7.35.05V37.8h3.65V35.59Zm3.65,5.16V38.47h-3.65v2.28Z"/><path class="cls-1" d="M155.09,47.31l2.62,1.94a1.52,1.52,0,0,1-.94.5v4.83a4.76,4.76,0,0,1-2.21.6h-.43V53.71h-4.27v1.08c0,.17-.77.72-2.07.72h-.43v-4.2a10.14,10.14,0,0,1-3.17,3.56l-.24-.24c2.21-3.29,2.4-7.4,2.4-10.71V40.27a20.53,20.53,0,0,1-2.42,1.47l-.19-.22a22.69,22.69,0,0,0,5.4-8.57l3.89.79c-.1.29-.32.44-.94.53,8.21,1.49,5.35,6.39,3.17,4.75a9.39,9.39,0,0,0-3.41-4.51,22.37,22.37,0,0,1-3.19,3.87h2.88l1.2-1.54s1.39,1.06,2.23,1.82c-.07.27-.31.39-.65.39h-5.9l-.1-.36c-.46.41-.94.81-1.42,1.17l2.4.89h4.37l1.23-1.34,2.61,1.94a1.84,1.84,0,0,1-1,.53v4.78a4.55,4.55,0,0,1-2.18.62h-.44v-.72h-5.16c0,.48-.12,1-.21,1.47l1.63.62h3.72Zm-1.18-1.42V44h-5c0,.57,0,1.2-.07,1.87Zm-5-4.47v1.92h5V41.42ZM154.13,53v-3.7h-4.27V53ZM161,49.66c0,.26-1,.74-2,.74h-.45V35l3.24.31c-.05.31-.24.53-.82.63Zm5.4-15.87c-.07.36-.31.6-.89.67V52.39c0,1.88-.38,2.93-3.38,3.22a3.38,3.38,0,0,0-.55-1.9,3.13,3.13,0,0,0-2-.88v-.34s2.37.14,2.88.14.5-.12.5-.43V33.43Z"/><path class="cls-1" d="M187.71,39.38s1.7,1.32,2.73,2.24c-.07.26-.31.38-.67.38H182a50.31,50.31,0,0,1-4.49,2.91h6.09l1.32-1.42,2.74,2.06a1.75,1.75,0,0,1-1,.51v8.69a4.65,4.65,0,0,1-2.38.72h-.46V53.74h-7.51v.93c0,.29-1.18.92-2.35.92h-.43V46.9a39.65,39.65,0,0,1-5.55,2l-.17-.34a45.91,45.91,0,0,0,5.72-3V43.75l1.75.7c1.13-.79,2.23-1.61,3.26-2.45H168.43l-.19-.67h8V37.58h-5.67l-.19-.67h5.86V33l3.6.32c-.05.31-.22.52-.79.62v2.95h1.24L181.78,35S183,36,184,36.77a29.88,29.88,0,0,0,2.43-3.12l3.07,2.23c-.19.22-.48.31-1.06.14a35.26,35.26,0,0,1-5.57,5.31h3.36ZM176.28,45.6v3.27h7.51V45.6ZM183.79,53V49.56h-7.51V53Zm-4.72-11.71h.24a49,49,0,0,0,3.93-3.75h-4.17Z"/></g></g></svg>