<svg xmlns="http://www.w3.org/2000/svg" viewBox="0 0 591.66 34.23"><defs><style>.cls-1{fill:#231815;}</style></defs><g id="圖層_2" data-name="圖層 2"><g id="圖層_1-2" data-name="圖層 1"><path class="cls-1" d="M29.16,17.93s2.84,2.12,4.6,3.63c-.1.4-.5.58-1,.58H19v10.4c0,.47-1.91,1.55-3.6,1.55h-.86v-12H.32l-.32-1H14.51V14H2.63L2.3,13H14.51V.32L20.3.9c-.11.5-.36.86-1.33,1V13h6.3l2.37-3s2.74,2,4.43,3.46c-.11.39-.5.57-1,.57H19v7.13h7.59ZM4.14,2c11.05,3.74,7.24,12.13,3.17,8.75A20.67,20.67,0,0,0,3.82,2.16ZM30.78,3.82c-.18.39-.65.68-1.48.61a35.2,35.2,0,0,1-7.59,7.27l-.44-.33A68.43,68.43,0,0,0,25.2,1.51Z"/><path class="cls-1" d="M66.31,8.17s2.45,2.05,3.89,3.46c-.08.39-.47.57-1,.57H63.5V23.76C63.5,24.12,61.67,25,60,25h-.79V22.25H54.36v2.33c0,.4-1.8,1.26-3.42,1.26h-.76V12.2H45.5V30.31H62.31L64.76,27s2.77,2.23,4.39,3.78c-.11.39-.5.57-1,.57H45.75l-1.29,2.13L40.18,31a5,5,0,0,1,1.08-1.08V12.2h-5l-.33-1h5.37v-10l5.54.58c-.07.5-.4.86-1.3,1v8.38h4.68V.5L55.69,1c-.11.5-.36.9-1.33,1v9.14h4.89V1l5.58.54c-.07.51-.32.87-1.33,1v8.6h.58Zm-7.06,4H54.36v9h4.89Z"/><path class="cls-1" d="M75.6,24c1.44,3.78,1.15,6.66.07,8.1a2.13,2.13,0,0,1-3.42-.29,2.33,2.33,0,0,1,1-3A6.73,6.73,0,0,0,75.06,24Zm7.81-21a1.07,1.07,0,0,1-1.19.5,39.76,39.76,0,0,1-7.12,7.31c1.58,0,3.56,0,5.65,0a25.33,25.33,0,0,0,2.23-4l4.53,3.09a1.36,1.36,0,0,1-1.44.4,51.16,51.16,0,0,1-10.22,9c2-.11,4.65-.29,7.38-.5A18,18,0,0,0,81.9,15.3l.39-.18c7.74,3.38,4.32,9.18,1.52,6.55a15,15,0,0,0-.29-2c-2.16.9-5.22,2-8.6,3.17a2.24,2.24,0,0,1-1,.86l-1.66-4.46a5.93,5.93,0,0,0,1.33-.47,28.82,28.82,0,0,0,5.94-6.34c-1.33.54-2.88,1.12-4.53,1.7a2.26,2.26,0,0,1-1,.93l-1.84-4.39a4.49,4.49,0,0,0,1.12-.4c1.91-1.8,4.5-7.09,5.26-10ZM78.73,23.4c6.3,4.64,2.13,10.08-.36,6.94a18.74,18.74,0,0,0-.11-6.83Zm3.89-.72c7.67,3,4.17,9,1.33,6.26a13.33,13.33,0,0,0-1.73-6.08Zm21.74,5.9c1.19.43,1.51.9,1.51,1.62,0,1.76-1.76,2.38-8.53,2.38H93c-3.92,0-5-.72-5-3.64V12.53l4.5,1.76h6.63V4.39h-12l-.33-1H98.75l2-2.27L105,4.39a3.11,3.11,0,0,1-1.8.9V17.53c0,.29-2.08,1-3.41,1h-.65V15.3H92.09V28.11c0,.69.25.87,1.65.87h4c1.47,0,2.77,0,3.34,0a1.19,1.19,0,0,0,1.08-.54,25.34,25.34,0,0,0,1.66-4.68h.4Z"/><path class="cls-1" d="M126.18,11c1.29,7,5.58,14.14,15.8,18.57l0,.43a4.57,4.57,0,0,0-4,4.07c-8.24-5.22-11.08-13.93-12.16-21.27a26.64,26.64,0,0,1-3.71,10.69c9.93,3.45,5.62,11.05,1.69,7.52a15.68,15.68,0,0,0-2.27-6.69c-2.62,3.74-6.8,7.09-13.31,9.86l-.36-.54C118,27,120.74,19.29,121.46,11H108.83l-.33-1h13.07c.22-3.09.18-6.26.18-9.5l6,.61c-.07.5-.39.86-1.29,1-.08,2.66-.15,5.29-.36,7.88h7.77l2.63-3.31s3,2.23,4.68,3.74c-.11.4-.51.58-1.05.58Z"/><path class="cls-1" d="M173.23,16.27s2.84,2.09,4.57,3.56c-.11.4-.5.58-1,.58H162.93V32.86c0,.29-1.36,1.23-3.6,1.23h-.79V20.41H144.29l-.29-1h14.54v-15H145.91l-.33-1.05H169.2L171.75.25s2.81,2.09,4.57,3.53c-.1.4-.5.58-1,.58H162.93v15h7.78Zm-24.3-9.9c10.44,5.08,6.23,13.5,2.27,9.72a26.06,26.06,0,0,0-2.66-9.57ZM165.2,17.28a82.6,82.6,0,0,0,3.78-11l5.58,2c-.14.4-.58.72-1.4.65a35.36,35.36,0,0,1-7.56,8.56Z"/><path class="cls-1" d="M180.11,9.43c9.75.4,7,7.78,3.2,5.44a11.88,11.88,0,0,0-3.45-5.19Zm12-3.49c-1.51,4.68-4.28,13.32-4.79,15.37a14.53,14.53,0,0,0-.57,3.56c0,1.87,1.55,3.1,1.4,6.27a2.91,2.91,0,0,1-3.06,3c-.86,0-1.69-.5-1.94-1.87.61-3.71.43-6.91-.4-7.49a3.32,3.32,0,0,0-1.87-.57v-.68h1.66c.54,0,.68,0,1-.76.86-1.44.86-1.44,8-16.95ZM183,1c10,.4,7.48,7.92,3.49,5.73A14.89,14.89,0,0,0,182.7,1.3Zm26.85,19.8s2.56,2.13,4.07,3.57c-.11.39-.47.57-1,.57h-9.22v8c0,.25-1.33,1.11-3.53,1.11h-.79V25h-9.14l-.29-1h9.43V17.17h-7.2l-.28-1h7.48V9.68h-7.81l-.29-1h11A70.75,70.75,0,0,0,204.91.22l5.76,1.65c-.15.4-.51.72-1.33.69a55.08,55.08,0,0,1-6.12,6.12h4.07l2.23-2.85s2.48,2,4,3.28c-.11.39-.47.57-1,.57h-8.78v6.45h2.92l2.12-2.92s2.41,2,3.85,3.38c-.11.4-.47.58-1,.58h-7.92v6.77h3.85ZM193.57.5C203.5,3,199.76,10.37,196,7.34A15.11,15.11,0,0,0,193.25.72Z"/><path class="cls-1" d="M229.14,15.62c-.25.4-.58.51-1.37.61a28.68,28.68,0,0,1-3.24,10.3c3.93,2.12,9.29,2.59,16.74,2.59,1.87,0,6.23,0,8.49,0v.44c-1.65.36-2.44,1.83-2.55,3.52H241c-8.36,0-14-.86-18-4.35a18.92,18.92,0,0,1-7,5.36l-.25-.43a17.17,17.17,0,0,0,5.5-6.84,25.89,25.89,0,0,1-4-9l.4-.22a17.33,17.33,0,0,0,4.43,7.13,36.61,36.61,0,0,0,1.8-9h-2.16L220.43,17l-3.53-2.27a4,4,0,0,1,1.3-.75A96.47,96.47,0,0,0,222.26,5h-6L216,4h6.27L224,2.2l3.6,3.24a2.49,2.49,0,0,1-1.55.57c-1,2.23-2.81,6.12-4.1,8.64h1.58l2-2.05Zm18.18-9.43s2,2,3,3.24a.85.85,0,0,1-.93.58h-4v5c0,.29-2,1-3.28,1h-.61V14.72h-3.2v3.67h3.42l2-2.66s2.34,1.8,3.71,3.1c-.11.39-.43.57-1,.57h-8.17v3.75h4.31l2.27-2.85s2.59,1.91,4.18,3.31c-.11.4-.51.58-1,.58h-9.75v3.35c0,.32-1.66,1.08-3.24,1.08h-.8V24.19h-7.34l-.29-1h7.63V19.4h-5.68l-.29-1h6V14.72H229l-.33-1h5.58V10h-7.92L226,9h8.2V5.33H228.6l-.33-1h5.94v-4l5.37.5c-.08.54-.36.9-1.33,1V4.32h2.84l1.8-1.94,3.85,2.88a2.74,2.74,0,0,1-1.4.72V9h.25ZM238.25,9h3.2V5.33h-3.2Zm3.2,1h-3.2v3.67h3.2Z"/><path class="cls-1" d="M264.46,5s2.05,1.62,3.31,2.81c-.08.39-.47.57-1,.57H252.25l-.29-1h10.7Zm7.84.79a10.81,10.81,0,0,1-6.69,10.62l.68.65c-.11.39-.47.57-1,.57H253.73l-.29-1h7.92l1.73-2.2s1,.79,2,1.62c3-3.13,3.42-7,3.42-10.22V1.3L273,2.92H276L277.92.86l3.49,2.88a2.11,2.11,0,0,1-1.3.54v5.94c0,.36.11.51.58.51h1.87c.22,0,.58,0,.76,0s.57-.11.82-.14h.33l.14,0c.87.43,1.19.79,1.19,1.51,0,1.44-1.22,2.24-4.68,2.24h-1.73c-2.7,0-3-.76-3-3.1V3.92H272.3Zm-10.94,6.15,1.73-2.26s1.94,1.58,3.16,2.73c-.1.4-.46.58-1,.58H253.76l-.28-1.05Zm.29,20.38V30.34h-4.07V32.5c0,.36-1.58,1.19-3.13,1.19h-.54v-14l3.81,1.54h3.6l1.73-1.83,3.67,2.73a2.47,2.47,0,0,1-1.37.69v8.35c0,.29-1.83,1.08-3.09,1.08ZM255.82.83c9.5.47,6.08,7.66,2.26,5.15A10.27,10.27,0,0,0,255.56,1Zm5.83,28.51V22.28h-4.07v7.06Zm22.06-11.23c-.25.36-.65.46-1.51.54a24.15,24.15,0,0,1-5.29,8,30.48,30.48,0,0,0,9,3.1l0,.39a4.63,4.63,0,0,0-3.42,3.57,23.24,23.24,0,0,1-8.17-4.83A31.1,31.1,0,0,1,262.4,34l-.21-.47a27.82,27.82,0,0,0,10.29-6.7A22.71,22.71,0,0,1,268.63,18H266.9l-.32-1h11.09l2.3-2.2ZM269.28,18a15.41,15.41,0,0,0,4.89,6.88,23,23,0,0,0,3.6-6.88Z"/><path class="cls-1" d="M325.62,20.88c3.2,3.85,9.07,6.62,14.32,7.77l-.07.4a4.87,4.87,0,0,0-3.42,3.89A21.75,21.75,0,0,1,325,21.13V32.79c0,.4-1.8,1.26-3.46,1.26h-.9V25.23a37.69,37.69,0,0,1-14.36,7.92l-.25-.47a33,33,0,0,0,12.63-11.8h-3.2v.9c0,.39-1.91,1.37-3.67,1.37h-.65V8l4.61,1.76h4.89V6.34H307.12l-.29-1h13.78v-5l5.69.57c-.07.51-.36.87-1.33,1V5.33h7l2.52-3.28s2.81,2.2,4.54,3.71c-.11.4-.5.58-1,.58H325V9.75h4.89l2-2.19,4.21,3.17a2.31,2.31,0,0,1-1.4.75v9.87c0,.32-2.2,1.26-3.71,1.26h-.76V20.88ZM315.43,10.76v4h5.18v-4Zm0,9.11h5.18v-4h-5.18ZM325,10.76v4h5.25v-4Zm5.25,9.11v-4H325v4Z"/><path class="cls-1" d="M372.56,29.05c2,.36,2.48.93,2.48,1.65,0,2-2.41,2.34-14.54,2.34h-7.95c-5.84,0-8.43-.61-8.43-4.71V3.89h-1.26l-.32-1H368L370.15,0s2.41,2,3.89,3.31c-.11.4-.51.58-1,.58H348v23.9c0,1.62,1,2.12,4.1,2.12h8.72c3.09,0,5.86-.07,6.94-.18.69,0,1.55-.14,2.13-.21A15.48,15.48,0,0,0,372,29h.39Zm-16.09-1V26.31h-3v1.51c0,.29-1.51,1.08-3,1.08H350V16.7l3.6,1.44h2.52l1.62-1.69L361.15,19a1.94,1.94,0,0,1-1.19.57v7.56a5.19,5.19,0,0,1-2.91.94Zm8.13-13.93h-7.16v1c0,.36-1.8,1.23-3.42,1.23h-.57V5.22l4.17,1.62h6.66l1.84-2L370,7.78a2.48,2.48,0,0,1-1.3.68v6.33c0,.26-2.09,1-3.35,1h-.72Zm-8.13,11.12V19.19h-3v6.08ZM364.6,13.1V7.88h-7.16V13.1Zm4,14.83V26.31h-3.09v.94c0,.32-1.55,1.08-3,1.08H362V16.7l3.63,1.44h2.63l1.66-1.73L373.35,19a2.12,2.12,0,0,1-1.19.58V27a5.84,5.84,0,0,1-3,.93Zm0-2.66V19.19h-3.09v6.08Z"/><path class="cls-1" d="M402.08,21.42c9,1.4,6.66,7.74,3.38,5.76a9.49,9.49,0,0,0-1.11-2.31c-1.87.36-4.1.76-6.66,1.19v4c0,2.52-.65,3.85-5,4.17a3.91,3.91,0,0,0-.61-2.34,4.24,4.24,0,0,0-2.56-1.08v-.47s2.74.18,3.42.18.65-.21.65-.54V26.71c-1.62.25-3.31.5-5.11.79L391.93,29c-.18.36-.47.54-1.26.46-2.27,1.77-6.88,3.6-10.65,4.4l-.36-.44a32.3,32.3,0,0,0,7.27-5.68l-2.42.28a1.45,1.45,0,0,1-.72.69L382,25a10.41,10.41,0,0,0,1.43-.22A47.15,47.15,0,0,0,391,22.25c-1.48.25-3.06.46-4.68.68a1.48,1.48,0,0,1-.61.61l-1.44-2.84a7.06,7.06,0,0,0,.86-.22,19.21,19.21,0,0,0,4.79-2.12,12.4,12.4,0,0,1-2.13.14,1.55,1.55,0,0,0-.43-1.29,3.6,3.6,0,0,0-1.94-.76v-.54c.86.07,2.19.14,2.81.14a1.24,1.24,0,0,0,1-.28,2.43,2.43,0,0,0,.21-.29h-5.5L382.54,17l-3.28-2.16A7.39,7.39,0,0,1,380.7,14c.18-.79.39-1.66.61-2.67H378.9l-.29-1h2.92c.29-1.48.57-3,.75-4.25a19.89,19.89,0,0,1-3.42,2.13l-.32-.33A24.62,24.62,0,0,0,382.82.29L388,1.4c-.11.4-.4.54-1.33.51a13.31,13.31,0,0,1-1.59,1.76h7l1.84-2.27S396,3,397.29,4.14c-.07.4-.43.58-.93.58H383.94l-.51.46,2.85,1.23h4.1L392,4.82l3,2.49a2.15,2.15,0,0,1-1.4.54c0,.9-.11,1.72-.15,2.48h.36l1.33-2.16s1.59,1.55,2.45,2.63c-.07.39-.39.57-.86.57h-3.39a23.17,23.17,0,0,1-.43,3.06h.22l1.29-1.69s1.48,1.23,2.42,2.16c-.08.4-.44.58-.91.58h-3.27A5.2,5.2,0,0,1,392,17c.54-.36,1-.75,1.37-1l2.66,3a1.31,1.31,0,0,1-1.51-.11,46.09,46.09,0,0,1-6.26,2.12l6-.1a46.66,46.66,0,0,0,7-3.93l3.64,2.85c-.22.32-.83.5-1.66.18A94.86,94.86,0,0,1,387.5,25c4.25-.18,10.15-.47,16.34-.86a17.92,17.92,0,0,0-2.12-2.41Zm-12.27-7a18.92,18.92,0,0,0,.54-3.06h-5.8c-.25,1.08-.47,2.13-.72,3.06Zm-4.47-7c-.14.86-.36,1.87-.57,2.91h5.68c.11-.86.18-1.84.26-2.91Zm-.21,4.28c1.54-.25,2.91-.11,3.63.68a1.21,1.21,0,1,1-1.91,1.48,4.33,4.33,0,0,0-1.9-1.77Zm.64-3.85c1.48-.29,2.81-.22,3.53.5a1.16,1.16,0,1,1-1.73,1.55,4.86,4.86,0,0,0-1.94-1.62Zm23-1.51A14.35,14.35,0,0,1,405,12.71a22.82,22.82,0,0,0,6.66,1.94l-.08.4a3.82,3.82,0,0,0-2.34,3.49,14.35,14.35,0,0,1-6.58-3.93,23.6,23.6,0,0,1-7,3.14l-.21-.44a18.39,18.39,0,0,0,5.86-4.42,21.24,21.24,0,0,1-2.48-5.37,17.61,17.61,0,0,1-2,1.73l-.51-.32A29.78,29.78,0,0,0,398.66.32l4.93,1.3a1.25,1.25,0,0,1-1.33.76,19.19,19.19,0,0,1-1.66,3h5.19l2-2.77s2.3,1.87,3.67,3.2a.86.86,0,0,1-.93.58Zm-9,0a4.23,4.23,0,0,1-.51.61,11.76,11.76,0,0,0,3.21,4.24,15,15,0,0,0,1.91-4.85Zm.29,21.52c12.27-.47,10.54,7,6.87,5.65a20.94,20.94,0,0,0-7-5.18Z"/><path class="cls-1" d="M420.51,5.51h-6.26l-.29-1h6.45l-.47-4,5.29.36c0,.4-.29.8-1,1l.33,2.59h1.11l1.95-2.7s2.19,1.88,3.49,3.17c-.07.4-.47.58-1,.58h-5.44L425,7.92c-.57.79-2.12,1.15-4.06,1.08Zm23,14.32s2.2,1.7,3.57,2.92c-.11.4-.47.57-1,.57H432.83v4h6.58l2.23-2.77s2.56,1.87,4.07,3.21c-.11.39-.5.57-1,.57H432.83V33c0,.25-1.26,1.08-3.42,1.08h-.76V28.29H417l-.29-1h12v-4H415.4l-.32-1h13.57V17.06a1.66,1.66,0,0,1-.47.07H423.5v3.42c0,.29-1.4.83-2.55.83h-.62V17.13H415l-.29-1h5.65V12l4.25.39c-.07.4-.29.72-1.08.83v2.88h.83l1.73-2.3s1.44,1.18,2.59,2.26V10.87H416.3l-.25-1h24.33l2.06-2.44s2.3,1.65,3.7,2.87c-.1.4-.5.58-1,.58H432.83V22.32h8.74Zm.9-18.07s2.16,1.88,3.49,3.17c-.11.4-.46.58-1,.58h-7.41l-.44,2.73a5.57,5.57,0,0,1-4.13.51l.5-3.24h-3.42l-.29-1h3.85l.62-4,5.21.87c-.07.47-.39.86-1.4.93l-.32,2.16h2.73Zm-.11,11.88s2,1.73,3.17,2.92c-.07.39-.43.57-.9.57h-6.37v3.1c0,.25-1.4.79-2.56.79h-.61V17.13h-3.24l-.29-1h3.53V12l4.25.39c-.07.4-.29.72-1.08.83v2.88h2.34Z"/><path class="cls-1" d="M466.38,8.17a2.63,2.63,0,0,1-1.51.76V30.38c0,.29-1.95,1.19-3.35,1.19h-.61V28.72h-5.48v2.67c0,.47-1.51,1.37-3.23,1.37h-.65V5.54l4,1.7h.21c.26-2,.58-4.79.76-6.81l5.83,1.41c-.14.61-.65.86-1.47.86C460,4,458.57,5.83,457.42,7.24h3.13l1.9-2.16Zm-10.95.11v8.93h5.48V8.28Zm5.48,19.44V18.25h-5.48v9.47Zm23-19.55a2.36,2.36,0,0,1-1.58.68c-.25,14.51-.76,21.1-2.74,23.22a6.58,6.58,0,0,1-5.25,2,4,4,0,0,0-.79-3,7.48,7.48,0,0,0-3.82-1.58l0-.5c1.72.14,4.21.32,5.14.32a1.72,1.72,0,0,0,1.34-.47c1.33-1.22,1.69-8.38,1.94-20.66h-6.7a27.18,27.18,0,0,1-6.08,7.56l-.47-.29a53.37,53.37,0,0,0,4.86-15l5.69,1.65c-.14.47-.58.72-1.4.72a38,38,0,0,1-2,4.36h5.72l2.27-2.34ZM468,14.47c10.51,3.1,6.59,10.87,2.77,7.67a15.85,15.85,0,0,0-3.05-7.45Z"/><path class="cls-1" d="M491.9,12.85V32.54c0,.54-1.51,1.55-3.31,1.55h-.68V1.26l4.17,1.8h4.72l1.76-1.94L502.31,4a2.4,2.4,0,0,1-1.34.68v8.79c0,.28-1.87,1.11-3.13,1.11h-.68V12.85Zm0-8.75V7.42h5.26V4.1Zm5.26,7.74V8.42H491.9v3.42Zm10.62,11.92v7.7c0,.18-1.08.83-2.88.83h-.65V23.76H501c-.39,3.16-1.8,6.62-7.09,8.89l-.36-.4a11.32,11.32,0,0,0,4-8.49h-4.21l-.29-1.05h4.58V17.53h-3.46l-.29-1h13l1.88-2.45s2.15,1.7,3.41,2.92c-.07.36-.43.54-.93.54h-3.49v5.18h.1l1.8-2.44s2,1.69,3.21,2.91c-.11.4-.47.58-1,.58Zm-3.53-1.05V17.53h-3.17V21.6c0,.36,0,.72,0,1.11ZM519.33,4a2.44,2.44,0,0,1-1.47.72V29.26c0,2.85-.58,4.43-4.94,4.83a6.61,6.61,0,0,0-.64-2.92,3.56,3.56,0,0,0-2.52-1.37v-.46s2.7.14,3.34.14.69-.22.69-.68V12.85h-5.47v.25c0,.36-1.7,1.19-3.32,1.19h-.57V1.44l4,1.62h5L515.3.86Zm-11,.07V7.42h5.47V4.1Zm5.47,7.74V8.42h-5.47v3.42Z"/><path class="cls-1" d="M538.63,21.67l3.92,2.91a2.23,2.23,0,0,1-1.4.76v7.24a7.16,7.16,0,0,1-3.31.9h-.65v-2.2h-6.41V32.9c0,.25-1.15,1.08-3.09,1.08H527v-6.3A15.37,15.37,0,0,1,522.29,33l-.36-.36c3.31-4.93,3.6-11.09,3.6-16.06V11.12a28.62,28.62,0,0,1-3.64,2.2L521.6,13A33.92,33.92,0,0,0,529.7.14l5.83,1.19c-.14.43-.46.65-1.4.79,12.31,2.24,8,9.58,4.75,7.13a13.94,13.94,0,0,0-5.11-6.77A32.11,32.11,0,0,1,529,8.28h4.32L535.1,6s2.09,1.58,3.35,2.73c-.11.4-.47.58-1,.58h-8.86l-.14-.54c-.69.61-1.4,1.22-2.12,1.76L530,11.84h6.56l1.83-2,3.92,2.91a2.72,2.72,0,0,1-1.47.79V20.7a6.92,6.92,0,0,1-3.28.93h-.64V20.55h-7.74c-.08.72-.18,1.44-.33,2.2l2.45.94h5.58Zm-1.76-2.12V16.74h-7.53c0,.86,0,1.8-.11,2.81Zm-7.53-6.7v2.88h7.53V12.85Zm7.85,17.39V24.69h-6.41v5.55Zm10.37-5c0,.39-1.59,1.11-3,1.11h-.68v-23l4.86.46c-.07.47-.36.8-1.22.94Zm8.1-23.8c-.11.54-.47.9-1.34,1V29.3c0,2.81-.57,4.39-5.07,4.82a5,5,0,0,0-.83-2.84A4.67,4.67,0,0,0,545.36,30v-.51s3.56.22,4.32.22c.58,0,.76-.18.76-.65V.86Z"/><path class="cls-1" d="M587.55,9.79s2.56,2,4.11,3.35c-.11.39-.47.57-1,.57H578.91a70.24,70.24,0,0,1-6.73,4.36h9.14l2-2.12L587.41,19a2.57,2.57,0,0,1-1.48.76v13c0,.25-2.12,1.08-3.56,1.08h-.69V31.32H570.42v1.4c0,.43-1.77,1.37-3.53,1.37h-.65v-13a59.75,59.75,0,0,1-8.31,3.06l-.25-.51a68.58,68.58,0,0,0,8.56-4.53V16.34l2.63,1.05c1.69-1.19,3.35-2.42,4.9-3.68H558.65l-.29-1h12V7.09h-8.49l-.29-1h8.78V.25l5.4.47c-.07.47-.32.79-1.19.94V6.08h1.87l2.2-2.84s1.8,1.4,3.28,2.63a45.11,45.11,0,0,0,3.63-4.68l4.61,3.35c-.29.32-.72.46-1.58.21a54.88,54.88,0,0,1-8.35,8h5Zm-17.13,9.32V24h11.26v-4.9Zm11.26,11.16V25.05H570.42v5.22Zm-7.09-17.56H575a76.33,76.33,0,0,0,5.91-5.62h-6.27Z"/></g></g></svg>