<svg width="302" height="111" viewBox="0 0 302 111" fill="none" xmlns="http://www.w3.org/2000/svg">
<path d="M5.4601 97.248V101.7C5.4601 104.493 5.3551 107.517 3.8221 109.89L3.9901 110.037C7.9171 107.874 8.2741 104.43 8.2741 101.7V97.416H8.6941L6.3421 96.66L5.4601 97.248ZM15.8551 97.416H6.3631V98.004H15.8551V97.416ZM14.0701 97.416H14.3011V106.467C14.3011 106.74 14.2171 106.887 13.8601 106.887C13.3771 106.887 11.1301 106.761 11.1301 106.761V107.034C12.2431 107.244 12.6841 107.559 13.0411 107.979C13.3981 108.399 13.5031 109.05 13.5871 109.953C16.6741 109.68 17.0941 108.63 17.0941 106.824V98.529C17.5771 98.445 17.8711 98.235 18.0391 98.025L15.3511 95.967L14.0701 97.416ZM16.1281 103.59H6.6151V104.178H16.1281V103.59ZM16.1281 100.461H6.6151V101.049H16.1281V100.461ZM11.6341 91.053L7.8541 90.024C6.9511 94.245 4.7041 99.705 0.7771 103.107L0.9871 103.296C6.3001 100.608 9.2821 95.652 10.8151 91.494C11.3611 91.452 11.5291 91.284 11.6341 91.053ZM17.3251 91.851L15.7501 93.804H0.9871L1.1551 94.392H19.5511C19.8661 94.392 20.1181 94.287 20.1811 94.056C19.0891 93.153 17.3251 91.851 17.3251 91.851Z" fill="white"/>
<path d="M38.2201 96.597L36.3721 99.18H21.6721L21.8611 99.852H40.8241C41.1811 99.852 41.4331 99.768 41.4961 99.537C40.2781 98.382 38.2201 96.597 38.2201 96.597Z" fill="white"/>
<path d="M49.8121 94.476L49.9591 95.064H61.9921C62.3071 95.064 62.5171 94.959 62.5801 94.728C61.7191 93.93 60.2701 92.838 60.2701 92.838L58.9891 94.476H49.8121ZM50.4001 105.606L50.5681 106.194H61.4671C61.7611 106.194 61.9921 106.089 62.0341 105.858C61.1941 105.102 59.8081 104.01 59.8081 104.01L58.5691 105.606H50.4001ZM49.3081 108.588L49.4761 109.176H62.2651C62.5381 109.176 62.7691 109.071 62.8321 108.84C61.9711 108.063 60.5221 106.887 60.5221 106.887L59.2411 108.588H49.3081ZM59.3041 90.15C57.2881 91.032 53.3191 92.208 50.2531 92.796L50.3161 93.09C53.6971 93.153 57.8761 92.922 60.4171 92.544C61.0891 92.817 61.5931 92.775 61.8451 92.565L59.3041 90.15ZM52.1011 99.621V100.23H59.9551V99.621H52.1011ZM52.1011 102.645V103.233H60.0391V102.645H52.1011ZM54.7471 92.124V108.861H57.2251V92.124H54.7471ZM50.7991 104.619H51.1351C52.1431 104.619 53.1931 104.094 53.1931 103.863V97.353H59.7031V96.765H53.2981L50.7991 95.757V104.619ZM58.9891 96.765V104.241H59.3881C60.2281 104.241 61.4461 103.8 61.4671 103.653V97.71C61.8661 97.626 62.0971 97.458 62.2231 97.311L59.9131 95.547L58.7791 96.765H58.9891ZM42.5461 96.765L42.7141 97.353H50.6311C50.9251 97.353 51.1351 97.248 51.1981 97.017C50.4841 96.261 49.2241 95.148 49.2241 95.148L48.1321 96.765H42.5461ZM45.2761 96.786C44.7931 99.978 43.8061 103.569 42.2521 106.068L42.4831 106.299C45.2131 103.926 47.1241 100.818 47.9641 97.122V96.786H45.2761ZM45.4861 93.132V109.953H45.9271C47.1451 109.953 47.9641 109.386 47.9641 109.218V92.145L45.4861 93.132ZM47.9641 98.97L47.7541 99.054C48.2371 100.02 48.7411 101.343 48.7831 102.519C50.6101 104.199 52.8781 100.65 47.9641 98.97ZM48.3631 90.36C47.1031 91.431 44.4991 93.006 42.3781 93.888L42.4411 94.119C45.0661 93.93 48.0271 93.447 49.8751 92.901C50.5681 93.132 51.0511 93.069 51.3031 92.838L48.3631 90.36Z" fill="white"/>
<path d="M74.8651 91.053C75.4111 90.969 75.5581 90.78 75.6211 90.486L72.0721 90.15V106.467C72.0721 106.74 71.9461 106.866 71.5681 106.866C71.0431 106.866 68.4181 106.698 68.4181 106.698V106.971C69.6571 107.181 70.1611 107.496 70.5811 107.916C70.9801 108.357 71.1271 109.008 71.2111 109.911C74.4451 109.638 74.8651 108.588 74.8651 106.656V91.053ZM63.9031 96.345L64.0921 96.954H69.7831V96.345H63.9031ZM68.6911 96.345C68.1451 100.503 66.5281 104.934 63.3781 107.685L63.5461 107.916C68.2921 105.543 70.4551 101.49 71.4211 97.353C71.9041 97.311 72.0931 97.227 72.2401 96.996L69.8251 94.938L68.4601 96.345H68.6911ZM74.8651 93.363L74.7181 93.447C75.5581 101.259 77.5741 104.913 80.9971 107.853C81.3961 106.572 82.2361 105.585 83.3911 105.375L83.4961 105.144C79.8421 103.422 76.0831 100.314 74.8651 93.363ZM79.9681 93.615C79.2331 95.19 77.5951 97.857 76.1881 99.6L76.3771 99.81C78.5821 98.697 80.8081 97.08 82.2781 95.904C82.8031 95.967 83.0131 95.862 83.1181 95.652L79.9681 93.615Z" fill="white"/>
<path d="M86.6881 101.091C86.6881 103.926 86.4991 107.16 84.5461 109.659L84.6931 109.827C89.1031 107.601 89.5021 103.842 89.5021 101.091V97.353H89.9011L86.6881 96.261V101.091ZM101.766 95.547L100.443 97.353H88.0111V97.962H103.572C103.866 97.962 104.097 97.857 104.16 97.626C103.278 96.786 101.766 95.547 101.766 95.547ZM97.4821 109.323V100.041H94.6261V109.932H95.1511C96.6211 109.932 97.4821 109.449 97.4821 109.323ZM101.724 102.225L100.401 104.031H89.5441L89.7121 104.619H103.53C103.824 104.619 104.034 104.514 104.097 104.283C103.215 103.443 101.724 102.225 101.724 102.225ZM100.569 98.298L99.3091 100.041H90.4681L90.6361 100.65H102.312C102.606 100.65 102.837 100.545 102.9 100.314C102.039 99.495 100.569 98.298 100.569 98.298ZM89.1241 92.019H87.0871V95.022L87.5071 94.245C87.1291 94.392 86.5831 94.833 86.2891 95.19L89.0611 96.576L89.9011 95.4H89.7751V92.418L89.1241 92.019ZM90.5521 91.305L87.0871 90.969V92.565H89.7751V91.914C90.3421 91.83 90.5101 91.62 90.5521 91.305ZM103.047 91.284L99.4981 90.99V96.303H99.9601C101.073 96.303 102.27 95.946 102.27 95.778V91.872C102.837 91.788 103.005 91.578 103.047 91.284ZM96.7471 90.381L93.2611 90.108V95.106H95.9911V90.99C96.5581 90.885 96.7051 90.675 96.7471 90.381ZM100.233 94.791H88.2841V95.4H100.233V94.791Z" fill="white"/>
<path d="M113.673 90.108L113.547 90.234C114.051 90.717 114.597 91.62 114.702 92.481C117.096 93.993 119.301 89.604 113.673 90.108ZM121.758 98.445H121.989C121.821 99.096 121.464 100.251 121.212 100.923L121.401 101.049C122.346 100.692 123.732 100.02 124.551 99.537C124.992 99.516 125.202 99.474 125.37 99.285L123.081 97.122L121.758 98.445ZM108.465 97.29L108.192 97.311C108.297 98.256 107.562 99.054 106.869 99.369C106.134 99.642 105.609 100.209 105.798 101.07C106.029 101.952 106.974 102.267 107.751 101.952C108.864 101.469 109.578 99.726 108.465 97.29ZM122.934 98.445H108.486V99.033H122.934V98.445ZM118.356 94.329H118.545V97.941H119.049C119.889 97.941 121.275 97.5 121.296 97.332V95.253C121.653 95.169 121.863 95.022 121.968 94.896L119.532 93.09L118.356 94.329ZM112.371 97.416V94.917H119.763V94.329H112.497L109.662 93.258V98.193H110.019C111.111 98.193 112.371 97.626 112.371 97.416ZM119.616 96.639H111.153V97.248H119.616V96.639ZM122.409 90.57L121.002 92.481H106.071L106.239 93.09H124.446C124.761 93.09 124.971 92.985 125.034 92.754C124.068 91.872 122.409 90.57 122.409 90.57ZM123.585 102.981L121.086 100.944C120.078 101.826 118.041 103.212 116.403 104.031L116.592 104.262C118.713 104.052 121.191 103.569 122.787 103.086C123.249 103.233 123.459 103.17 123.585 102.981ZM117.999 103.338L117.768 103.485C118.65 106.53 120.435 108.126 123.123 109.302C123.396 107.979 124.047 107.097 125.034 106.782V106.551C122.199 106.236 119.259 105.417 117.999 103.338ZM117.054 105.228L115.584 103.38C113.526 105.417 109.431 107.559 105.756 108.63L105.882 108.945C109.893 108.357 114.324 106.866 117.054 105.228ZM115.689 103.359L114.387 101.868C112.623 103.443 109.179 105.081 106.155 105.858L106.26 106.194C109.578 105.774 113.358 104.64 115.689 103.359ZM113.946 101.196L113.778 101.385C115.437 103.317 115.479 106.656 114.975 107.496C114.891 107.643 114.744 107.664 114.513 107.664C114.093 107.664 112.854 107.601 112.182 107.538V107.79C112.854 107.958 113.463 108.231 113.694 108.462C113.988 108.798 114.135 109.218 114.156 109.932C115.605 109.932 116.655 109.743 117.117 109.092C118.272 107.559 117.831 103.212 113.946 101.196ZM116.823 100.734V100.398H113.295C111.825 101.532 109.452 102.666 106.827 103.359L106.953 103.611C110.817 103.212 114.639 102.267 116.823 100.734ZM118.713 98.844L117.453 100.398H109.473L109.641 101.007H120.477C120.792 101.007 120.981 100.902 121.044 100.671C120.162 99.894 118.713 98.844 118.713 98.844Z" fill="white"/>
<path d="M134.652 96.681L134.526 96.807C134.988 97.164 135.534 97.878 135.681 98.55C137.823 99.621 139.314 95.736 134.652 96.681ZM138.915 105.165L138.831 105.417C140.826 106.635 142.191 108.336 142.653 109.323C145.257 110.772 147.462 105.228 138.915 105.165ZM134.316 105.984L131.124 104.556C130.389 106.047 128.772 108.042 127.008 109.239L127.134 109.47C129.675 108.924 132.174 107.643 133.539 106.299C134.043 106.32 134.232 106.194 134.316 105.984ZM137.907 106.971V103.527H135.156V106.929C135.156 107.118 135.072 107.244 134.778 107.244C134.358 107.244 132.573 107.139 132.573 107.139V107.391C133.56 107.559 133.959 107.853 134.211 108.189C134.505 108.567 134.568 109.155 134.61 109.953C137.487 109.722 137.907 108.693 137.907 106.971ZM143.997 96.828L142.674 98.508H126.735L126.903 99.117H145.782C146.097 99.117 146.328 99.012 146.37 98.781C145.488 97.962 143.997 96.828 143.997 96.828ZM133.245 104.199V101.07H141.12V100.482H133.392L130.494 99.369V104.997H130.872C131.985 104.997 133.245 104.43 133.245 104.199ZM139.566 100.482H139.776V104.745H140.259C141.12 104.745 142.548 104.346 142.569 104.199V101.511C143.01 101.427 143.262 101.238 143.409 101.091L140.784 99.138L139.566 100.482ZM141.099 103.422H131.502V104.01H141.099V103.422ZM132.72 97.059V92.019H141.498V91.431H132.867L130.011 90.318V97.878H130.389C131.502 97.878 132.72 97.311 132.72 97.059ZM140.154 91.431H140.364V97.395H140.847C141.708 97.395 143.115 96.954 143.136 96.828V92.46C143.556 92.376 143.829 92.166 143.955 91.998L141.393 90.087L140.154 91.431ZM141.54 95.925H131.439V96.513H141.54V95.925ZM141.54 93.657H131.439V94.266H141.54V93.657Z" fill="white"/>
<path d="M155.694 103.359C158.109 102.708 159.6 100.86 159.6 98.172C159.6 97.5 159.537 97.08 159.264 96.408C158.781 95.988 158.298 95.841 157.626 95.841C156.471 95.841 155.589 96.702 155.589 97.794C155.589 98.865 156.513 99.684 158.487 100.377L158.214 99.642C157.836 101.217 156.975 101.973 155.421 102.708L155.694 103.359Z" fill="white"/>
<path d="M180.516 92.838H178.5V101.637C178.5 102.12 178.416 102.33 177.807 102.792L179.55 105.438C180.096 105.102 180.684 104.115 180.285 102.561L179.172 103.527L181.188 102.624V93.237L180.516 92.838ZM181.818 92.271L178.5 91.956V93.573H181.188V92.796C181.629 92.712 181.776 92.544 181.818 92.271ZM178.437 102.666L179.823 105.039C182.28 103.485 184.212 101.952 185.22 101.133L185.157 100.902C182.385 101.7 179.634 102.414 178.437 102.666ZM175.161 102.645H170.94V103.233H175.161V102.645ZM173.859 92.796H174.069V105.06H174.51C175.476 105.06 176.715 104.43 176.736 104.22V93.804C177.177 93.72 177.471 93.552 177.597 93.384L175.119 91.431L173.859 92.796ZM171.927 105.48V93.384H174.909V92.796H171.99L169.386 91.725V106.383H169.785C170.898 106.383 171.927 105.774 171.927 105.48ZM187.488 90.612L183.96 90.276V109.911H184.506C185.556 109.911 186.711 109.344 186.711 109.113V91.221C187.299 91.137 187.446 90.927 187.488 90.612Z" fill="white"/>
<path d="M202.587 90.108V103.485H203.469V90.948H209.412V90.108H202.587Z" fill="white"/>
<path d="M213.591 107.853V92.691H216.531V92.103H213.675L211.218 91.032V108.735H211.617C212.688 108.735 213.591 108.147 213.591 107.853ZM216.678 105.438H212.457V106.026H216.678V105.438ZM216.678 96.408H212.436V96.996H216.678V96.408ZM216.657 100.86H212.415V101.469H216.657V100.86ZM215.355 92.103H215.565V107.769H215.943C216.804 107.769 217.917 107.223 217.938 107.055V93.048C218.337 92.964 218.61 92.796 218.736 92.649L216.51 90.864L215.355 92.103ZM221.382 92.334H219.513V106.215C219.513 106.782 219.366 107.013 218.547 107.433L219.765 110.058C220.332 109.806 221.025 109.008 220.794 107.454L219.723 108.273L222.012 107.496V92.712L221.382 92.334ZM219.513 90.591V92.985C221.235 92.985 222.012 92.985 222.012 92.985V91.725H222.285L219.513 90.591ZM227.556 91.725H221.256V92.313H227.556V91.725ZM219.324 107.181L220.143 109.701C222.159 108.399 223.944 107.034 224.784 106.362L224.742 106.131C222.516 106.614 220.248 107.055 219.324 107.181ZM230.349 102.225L227.829 100.398C227.367 101.259 226.17 103.065 225.288 104.052L225.393 104.22C226.968 103.758 228.774 102.834 229.593 102.33C229.971 102.435 230.202 102.414 230.349 102.225ZM223.818 99.306L223.545 99.39C224.259 104.451 225.624 107.664 228.606 109.659C228.921 108.357 229.677 107.538 230.601 107.265L230.643 107.034C227.451 105.921 224.868 103.086 223.818 99.306ZM226.254 91.725H226.464V100.566H226.863C227.724 100.566 228.921 100.02 228.942 99.81V92.733C229.362 92.628 229.656 92.46 229.782 92.292L227.409 90.465L226.254 91.725ZM227.43 95.358H221.13V95.946H227.43V95.358ZM227.409 99.159H221.109V99.747H227.409V99.159Z" fill="white"/>
<path d="M236.439 101.637V102.225H246.456V101.637H236.439ZM236.439 98.235V98.823H246.456V98.235H236.439ZM236.439 94.875V95.463H246.456V94.875H236.439ZM245.301 91.557V103.296H245.742C246.708 103.296 248.031 102.729 248.052 102.582V92.607C248.493 92.502 248.766 92.334 248.913 92.145L246.351 90.15L245.091 91.557H245.301ZM234.906 103.464H235.326C236.481 103.464 237.636 102.855 237.636 102.54V92.145H246.792V91.557H237.783L234.906 90.423V103.464ZM242.004 101.637V107.265C242.004 109.029 242.508 109.491 244.755 109.491H246.897C250.467 109.491 251.391 108.945 251.391 107.895C251.391 107.37 251.244 107.055 250.53 106.803L250.467 103.884H250.257C249.774 105.249 249.438 106.278 249.186 106.677C249.039 106.908 248.934 106.971 248.64 106.992C248.346 107.013 247.779 107.013 247.191 107.013H245.364C244.755 107.013 244.671 106.908 244.671 106.635V102.351C244.671 102.162 244.671 101.868 244.671 101.637H242.004ZM237.636 101.952C237.468 105.648 236.082 108.021 231.672 109.638L231.735 109.89C237.783 108.903 240.282 106.446 240.639 101.952H237.636Z" fill="white"/>
<path d="M255.402 90.318L255.255 90.423C255.969 91.305 256.683 92.67 256.83 93.951C259.245 95.757 261.618 91.032 255.402 90.318ZM269.325 101.868C269.094 104.976 268.632 106.782 268.107 107.181C267.918 107.307 267.75 107.349 267.414 107.349C267.015 107.349 265.923 107.307 265.251 107.223V107.496C266.028 107.685 266.532 107.937 266.847 108.315C267.12 108.651 267.183 109.281 267.183 109.974C268.296 109.974 269.136 109.764 269.829 109.302C270.942 108.525 271.53 106.677 271.845 102.897C272.286 102.834 272.538 102.687 272.706 102.54L270.417 100.65L269.115 101.868H269.325ZM256.347 103.695C256.431 105.123 255.57 106.32 254.73 106.761C254.037 107.097 253.533 107.727 253.785 108.546C254.1 109.386 255.108 109.638 255.927 109.176C257.082 108.525 257.901 106.53 256.599 103.695H256.347ZM258.888 103.695L258.636 103.758C258.846 104.976 258.825 106.509 258.405 107.874C260.085 110.205 263.277 106.572 258.888 103.695ZM261.471 103.506L261.282 103.611C261.849 104.535 262.395 105.9 262.395 107.118C264.39 108.903 266.763 104.913 261.471 103.506ZM264.39 103.128L264.222 103.275C264.957 103.863 265.713 104.976 265.923 105.942C268.044 107.202 269.619 103.128 264.39 103.128ZM256.473 101.868L255.906 102.477H270.039V101.868H256.473ZM259.539 98.34L259.119 98.928H268.233V98.34H259.539ZM253.974 94.896L254.142 95.505H267.015V94.896H253.974ZM265.398 94.896L264.516 98.529H267.015L267.666 95.82C268.065 95.799 268.254 95.715 268.401 95.526L266.154 93.846L265.188 94.896H265.398ZM267.372 98.34L266.658 102.057H269.031L269.556 99.243C269.934 99.18 270.123 99.117 270.27 98.949L268.107 97.311L267.162 98.34H267.372ZM261.24 89.982C260.085 95.085 257.25 101.7 252.357 105.795L252.546 106.005C258.867 102.519 262.122 96.471 263.886 91.431C264.453 91.431 264.642 91.263 264.726 91.011L261.24 89.982Z" fill="white"/>
<path d="M280.623 99.621H281.064C282.366 99.621 283.143 99.075 283.143 98.886V91.662H283.416L280.623 90.591V99.621ZM274.512 90.969L274.344 91.095C275.121 91.746 275.898 92.901 276.066 93.951C278.355 95.4 280.161 90.948 274.512 90.969ZM282.618 99.684L282.366 99.747C282.492 100.419 282.513 101.406 282.24 102.267C283.5 104.073 286.419 101.616 282.618 99.684ZM284.739 99.432L284.529 99.558C284.886 100.125 285.222 101.07 285.18 101.889C286.734 103.38 288.981 100.419 284.739 99.432ZM287.175 99.264L286.986 99.411C287.469 99.789 287.952 100.524 287.994 101.217C289.695 102.33 291.249 99.18 287.175 99.264ZM274.806 98.991C274.575 98.991 273.798 98.991 273.798 98.991V99.369C274.218 99.411 274.491 99.495 274.785 99.663C275.226 99.894 275.289 101.07 275.016 102.624C275.184 103.149 275.646 103.464 276.129 103.464C277.305 103.464 277.914 102.897 277.935 102.12C277.998 100.86 277.2 100.377 277.179 99.621C277.179 99.222 277.347 98.634 277.536 98.151C277.788 97.458 279.321 94.329 280.035 92.796L279.741 92.712C276.045 98.025 276.045 98.025 275.541 98.634C275.247 98.991 275.163 98.991 274.806 98.991ZM282.03 98.34V98.928H291.333V98.34H282.03ZM290.304 98.34C290.199 100.566 289.968 101.679 289.674 101.931C289.548 102.036 289.401 102.057 289.128 102.057C288.771 102.057 287.931 102.036 287.427 101.994V102.267C288.036 102.414 288.456 102.561 288.687 102.855C288.918 103.149 288.981 103.506 288.981 104.073C289.968 104.073 290.682 103.989 291.249 103.611C292.047 103.065 292.362 101.973 292.509 99.264C292.908 99.222 293.16 99.096 293.307 98.928L291.249 97.248L290.094 98.34H290.304ZM281.967 91.662V92.25H292.089C292.383 92.25 292.593 92.145 292.656 91.914C291.816 91.158 290.43 90.129 290.43 90.129L289.191 91.662H281.967ZM281.988 93.867V94.455H291.438C291.732 94.455 291.942 94.35 292.005 94.119C291.207 93.405 289.926 92.46 289.926 92.46L288.792 93.867H281.988ZM281.988 96.072V96.66H291.438C291.732 96.66 291.942 96.555 292.005 96.324C291.207 95.631 289.926 94.665 289.926 94.665L288.792 96.072H281.988ZM285.201 91.662V98.613H287.7V91.662H285.201ZM280.77 99.726C280.812 100.335 280.182 100.86 279.594 101.049C278.964 101.259 278.46 101.763 278.607 102.498C278.775 103.275 279.615 103.548 280.287 103.317C281.253 102.981 281.883 101.637 281.085 99.705L280.77 99.726ZM288.288 104.304L288.12 104.409C289.128 105.522 290.346 107.181 290.808 108.672C293.454 110.289 295.26 105.228 288.288 104.304ZM278.964 104.367V107.538C278.964 109.155 279.426 109.554 281.736 109.554H284.214C288.078 109.554 289.044 109.134 289.044 108.084C289.044 107.643 288.876 107.37 288.162 107.118L288.099 105.249H287.868C287.469 106.173 287.154 106.803 286.944 107.076C286.776 107.244 286.629 107.286 286.314 107.307C286.02 107.328 285.285 107.328 284.508 107.328H282.219C281.526 107.328 281.463 107.265 281.463 107.013V105.123C281.883 105.06 282.072 104.871 282.114 104.619L278.964 104.367ZM277.263 104.283C277.053 105.249 275.856 106.005 274.953 106.278C274.218 106.593 273.672 107.223 273.882 108.084C274.134 109.029 275.289 109.323 276.087 108.945C277.263 108.399 278.187 106.74 277.536 104.304L277.263 104.283ZM281.778 103.464L281.61 103.59C282.513 104.262 283.647 105.417 284.172 106.446C286.65 107.37 287.616 102.834 281.778 103.464Z" fill="white"/>
<path d="M301.392 109.953V96.576H300.51V109.113H294.567V109.953H301.392Z" fill="white"/>
<path d="M88.6572 16.5845V62.8622H82.0141V28.7566C79.9553 31.6982 77.6312 34.4403 74.9074 36.9153L73.0468 34.8427C79.7572 25.6798 84.2744 9.69713 86.0679 0L93.507 1.73786C92.3786 6.2855 90.8504 11.435 88.6572 16.5845ZM133.097 38.7885V42.1325H115.028V62.8622H108.053V42.1325H90.716V38.7885H108.053V28.2224H93.2382V24.8785H108.053V0.868931H115.028V24.8785H130.374V28.2224H115.028V38.7885H133.097ZM99.2199 23.2083C97.8898 18.3259 95.8311 11.9727 93.7051 6.48849L96.1636 5.14948C99.8849 9.4977 103.935 16.0503 105.796 20.3985L99.2199 23.2083ZM119.213 22.8735L117.02 21.2674C119.079 16.9869 121.672 9.76479 123.133 4.54764L130.108 7.62451C127.851 12.1722 123.398 18.6606 119.213 22.8735Z" fill="white"/>
<path d="M182.656 4.41232V54.6358C182.656 62.7945 175.815 65.469 163.261 58.9164L164.056 56.1066C174.75 57.8445 175.617 57.2426 175.617 52.3602V37.7807H151.768C150.438 48.8168 146.851 57.175 138.283 63.5281L136.422 61.3202C145.057 51.4877 145.39 38.3149 145.39 23.6036V4.41232H182.656ZM175.613 22.7382H152.429V24.209C152.429 27.7524 152.362 31.164 152.097 34.3085H175.613V22.7382ZM152.429 7.89161V19.2589H175.613V7.89161H152.429Z" fill="white"/>
<path d="M200.789 29.0237C198.199 25.1456 195.408 21.8016 192.883 18.9242L194.542 16.6521C198.129 18.4577 202.448 21.2674 205.437 24.1413L200.785 29.0237H200.789ZM202.649 33.7067L205.44 34.508C204.047 44.0057 201.984 55.2376 200.393 60.7895L193.151 57.7803C196.208 51.4948 199.862 41.8654 202.649 33.7067ZM203.113 11.8374C200.255 8.29401 197.265 5.14948 194.676 2.47502L196.137 0.267085C199.391 1.60609 204.174 4.14522 207.563 6.81968L203.113 11.8338V11.8374ZM204.772 32.4353C206.632 30.1633 208.224 27.3535 209.155 24.4761L211.146 25.0103C210.948 28.2865 210.085 31.7658 208.886 34.5721L204.768 32.4318L204.772 32.4353ZM208.557 11.3709C209.752 8.02692 210.683 4.01346 211.348 0.6695L216.396 2.14027C214.737 5.75132 213.007 8.95996 211.415 11.3032C212.413 11.2356 213.474 11.1679 214.471 11.0361C215.267 9.43003 215.999 7.8275 216.597 6.2214L220.382 8.02692V6.28906H229.017C227.156 4.68296 225.43 3.47928 223.637 2.2756L224.5 0.135321C226.958 0.737162 229.947 1.74142 233.004 3.47928L231.21 6.28906H237.655V9.16294H220.584C218.058 13.1764 215.005 16.8551 212.614 19.3266C214.21 19.1272 215.738 18.8601 217.329 18.4577L216.332 16.3174L218.058 15.3808C219.986 17.1863 221.514 19.4619 222.575 21.5986L218.989 23.2047C218.723 22.3358 218.458 21.4669 218.125 20.5979C214.737 22.3358 210.952 23.6748 207.365 24.4084L206.035 19.8608L209.491 19.6613C210.552 18.1229 211.684 16.3174 212.812 14.3765C210.753 15.046 208.893 15.5125 207.297 15.7796L206.367 11.2997C207.099 11.2997 207.828 11.3673 208.56 11.3673L208.557 11.3709ZM216.993 47.3496H250.673C250.273 50.8289 249.612 54.1052 248.681 57.1144C246.623 64.4718 239.247 64.6036 229.417 58.5175L230.347 55.9748C239.912 58.5816 241.373 58.3822 242.371 55.5083C242.77 54.3046 243.234 52.2997 243.499 50.5582H215.731C215.133 52.029 214.535 53.4998 213.937 54.8388L207.761 53.4357C209.689 49.6252 212.345 42.8696 213.474 38.8562L218.921 40.9964H241.575V37.6525H210.552V34.4439H247.818V44.0733H218.256L216.993 47.3496ZM214.202 24.2766C215.465 26.8834 216.396 29.8926 216.993 32.2359L212.742 33.0372C212.742 30.2274 212.543 27.4853 212.211 24.7432L214.202 24.2766ZM218.585 31.6982C217.92 29.0914 217.057 26.4134 216.06 23.8742L217.853 23.0053C219.714 25.0103 221.44 27.6206 222.636 30.028L218.582 31.6982H218.585ZM235.526 14.2448H222.572V11.435H235.526V14.2448ZM235.526 19.3942H222.572V16.5845H235.526V19.3942ZM235.657 31.9653H222.77V21.734H235.657V31.9653ZM231.405 24.4084H226.887V29.2908H231.405V24.4084ZM235.989 32.3C237.517 30.0244 238.713 27.35 239.509 24.5437L241.568 24.9461C241.37 28.2901 240.97 31.0999 239.841 34.0414L235.989 32.3036V32.3ZM238.579 11.1002C239.774 7.75627 240.772 3.67871 241.302 0.199422L246.219 1.60253C244.956 4.61174 242.898 8.48988 241.302 11.1002C242.3 11.0326 243.294 11.0326 244.426 10.9008C245.222 9.16294 245.954 7.42152 246.619 5.68366L251.334 7.82394C248.876 12.1722 245.487 16.4527 242.898 19.2589C244.557 19.0595 246.085 18.8565 247.68 18.5218C247.217 17.5852 246.817 16.6486 246.35 15.8473L248.013 14.9107C250.004 16.7162 252.13 19.8608 253.195 22.2005L249.675 23.9383C249.41 22.9341 249.01 21.7304 248.48 20.5267C245.024 22.3322 240.973 23.4042 237.386 24.3372L236.191 19.6542C237.454 19.6542 238.582 19.5866 239.71 19.5189C240.839 17.9805 241.971 15.9755 243.032 13.8352C241.041 14.5047 239.311 14.8395 237.585 15.1066L236.654 11.029C237.319 11.0967 237.984 11.0967 238.582 11.0967L238.579 11.1002ZM243.163 33.0372C243.096 30.4304 242.965 27.4853 242.565 24.6114L244.493 24.0772C245.823 26.7517 246.817 29.8285 247.284 32.1006L243.167 33.0372H243.163ZM252.862 29.8285L249.141 31.7694C248.345 29.2944 247.213 26.3528 246.018 23.8778L247.613 23.0089C249.541 24.8144 251.532 27.3571 252.859 29.8285H252.862Z" fill="white"/>
<path d="M46.6473 10.5696V8.93855H33.0036V10.5696H46.6473Z" fill="#BC976C"/>
<path d="M63.5277 10.5732V8.94218H49.884V10.5732H63.5277Z" fill="#BC976C"/>
<path d="M46.6437 14.0667V12.4357H33.0001V14.0667H46.6437Z" fill="#BC976C"/>
<path d="M63.5242 14.0667V12.4357H49.8805V14.0667H63.5242Z" fill="#BC976C"/>
<path d="M46.6437 17.5603V15.9292H33.0001V17.5603H46.6437Z" fill="#BC976C"/>
<path d="M63.5242 17.5603V15.9292H49.8805V17.5603H63.5242Z" fill="#BC976C"/>
<path d="M46.6437 21.0538V19.4227H33.0001V21.0538H46.6437Z" fill="#BC976C"/>
<path d="M63.5242 21.0538V19.4227H49.8805V21.0538H63.5242Z" fill="#BC976C"/>
<path d="M46.6437 24.5473V22.9163H33.0001V24.5473H46.6437Z" fill="#BC976C"/>
<path d="M63.5242 24.5473V22.9163H49.8805V24.5473H63.5242Z" fill="#BC976C"/>
<path d="M46.6437 28.0408V26.4098H33.0001V28.0408H46.6437Z" fill="#BC976C"/>
<path d="M63.5242 28.0408V26.4098H49.8805V28.0408H63.5242Z" fill="#BC976C"/>
<path d="M46.6473 31.5343V29.9033H33.0036V31.5343H46.6473Z" fill="#BC976C"/>
<path d="M63.5242 31.5343V29.9033H49.8805V31.5343H63.5242Z" fill="#BC976C"/>
<path d="M46.6473 35.0279V33.3968H33.0036V35.0279H46.6473Z" fill="#BC976C"/>
<path d="M63.5242 35.0279V33.3968H49.8805V35.0279H63.5242Z" fill="#BC976C"/>
<path d="M46.6473 38.5214V36.8904H33.0036V38.5214H46.6473Z" fill="#BC976C"/>
<path d="M63.5242 38.5249V36.8939H49.8805V38.5249H63.5242Z" fill="#BC976C"/>
<path d="M46.6473 42.015V40.3839H33.0036V42.015H46.6473Z" fill="#BC976C"/>
<path d="M63.5242 42.0185V40.3875H49.8805V42.0185H63.5242Z" fill="#BC976C"/>
<path d="M46.6473 45.5085V43.8775H33.0036V45.5085H46.6473Z" fill="#BC976C"/>
<path d="M63.5277 45.5121V43.881H49.884V45.5121H63.5277Z" fill="#BC976C"/>
<path d="M46.6437 49.0056V47.3745H33.0001V49.0056H46.6437Z" fill="#BC976C"/>
<path d="M63.5242 49.0056V47.3745H49.8805V49.0056H63.5242Z" fill="#BC976C"/>
<path d="M46.6437 52.4991V50.8681H33.0001V52.4991H46.6437Z" fill="#BC976C"/>
<path d="M63.5242 52.4991V50.8681H49.8805V52.4991H63.5242Z" fill="#BC976C"/>
<path d="M46.6437 55.9926V54.3616H33.0001V55.9926H46.6437Z" fill="#BC976C"/>
<path d="M63.5242 55.9926V54.3616H49.8805V55.9926H63.5242Z" fill="#BC976C"/>
<path d="M46.6437 59.4861V57.8551H33.0001V59.4861H46.6437Z" fill="#BC976C"/>
<path d="M63.5242 59.4861V57.8551H49.8805V59.4861H63.5242Z" fill="#BC976C"/>
<path d="M63.5878 62.9797V61.3486H33.0001V62.9797H63.5878Z" fill="#BC976C"/>
<path d="M60.6907 4.49423V2.8632H35.9043V4.49423H60.6907Z" fill="#BC976C"/>
<path d="M57.1852 7.57467V5.94365H39.2294V7.57467H57.1852Z" fill="#BC976C"/>
<path d="M35.8972 7.57468H37.5173V2.86322H35.8972V7.57468Z" fill="#BC976C"/>
<path d="M59.067 7.57468H60.6872V2.86322H59.067V7.57468Z" fill="#BC976C"/>
</svg>
