<svg xmlns="http://www.w3.org/2000/svg" xmlns:xlink="http://www.w3.org/1999/xlink" width="345.001" height="96.98" viewBox="0 0 345.001 96.98">
  <defs>
    <clipPath id="clip-path">
      <path id="Path_226" data-name="Path 226" d="M8765.881,3046.034s1.7,12.744-7.719,22.16c-12.21,12.21-28.587,14.146-32.33,17.889,3.743-3.743,5.679-20.12,17.889-32.33C8753.136,3044.338,8765.881,3046.034,8765.881,3046.034Z" fill="none" stroke="#000" stroke-miterlimit="10" stroke-width="0.27"/>
    </clipPath>
    <clipPath id="clip-path-2">
      <circle id="Ellipse_20" data-name="Ellipse 20" cx="11.128" cy="11.128" r="11.128" transform="matrix(0.528, -0.849, 0.849, 0.528, 8702.426, 3079.417)" fill="none" stroke="#000" stroke-miterlimit="10" stroke-width="0.27"/>
    </clipPath>
  </defs>
  <g id="Group_1268" data-name="Group 1268" transform="translate(-30 -3045.744)">
    <text id="琅琅書聲一起長大" transform="translate(31.34 3088.081)" font-size="20" font-family="NotoSansHant-Bold, Noto Sans T Chinese" font-weight="700"><tspan x="0" y="0">琅琅書聲一起長大</tspan></text>
    <text id="明星學區人文風範_安心便利上學路_" data-name="明星學區人文風範，安心便利上學路！" transform="translate(30 3103.724)" font-size="13" font-family="NotoSansHant-Regular, Noto Sans T Chinese" letter-spacing="0.025em"><tspan x="0" y="11">明星學區人文風範，安心便利上學路！</tspan></text>
    <g id="Group_358" data-name="Group 358" transform="translate(-8512)">
      <g id="Group_352" data-name="Group 352">
        <g id="Group_351" data-name="Group 351" clip-path="url(#clip-path)">
          <g id="Group_350" data-name="Group 350">
            <g id="Group_348" data-name="Group 348">
              <rect id="Rectangle_166" data-name="Rectangle 166" width="107.646" height="107.645" transform="translate(8692.033 3012.236)" fill="none" stroke="#000" stroke-miterlimit="10" stroke-width="0.27"/>
              <line id="Line_44" data-name="Line 44" x2="107.646" transform="translate(8692.033 3022.022)" fill="none" stroke="#000" stroke-miterlimit="10" stroke-width="0.27"/>
              <line id="Line_45" data-name="Line 45" x2="107.646" transform="translate(8692.033 3031.808)" fill="none" stroke="#000" stroke-miterlimit="10" stroke-width="0.27"/>
              <line id="Line_46" data-name="Line 46" x2="107.646" transform="translate(8692.033 3041.594)" fill="none" stroke="#000" stroke-miterlimit="10" stroke-width="0.27"/>
              <line id="Line_47" data-name="Line 47" x2="107.646" transform="translate(8692.033 3051.38)" fill="none" stroke="#000" stroke-miterlimit="10" stroke-width="0.27"/>
              <line id="Line_48" data-name="Line 48" x2="107.646" transform="translate(8692.033 3061.166)" fill="none" stroke="#000" stroke-miterlimit="10" stroke-width="0.27"/>
              <line id="Line_49" data-name="Line 49" x2="107.646" transform="translate(8692.033 3070.952)" fill="none" stroke="#000" stroke-miterlimit="10" stroke-width="0.27"/>
              <line id="Line_50" data-name="Line 50" x2="107.646" transform="translate(8692.033 3080.738)" fill="none" stroke="#000" stroke-miterlimit="10" stroke-width="0.27"/>
              <line id="Line_51" data-name="Line 51" x2="107.646" transform="translate(8692.033 3090.523)" fill="none" stroke="#000" stroke-miterlimit="10" stroke-width="0.27"/>
              <line id="Line_52" data-name="Line 52" x2="107.646" transform="translate(8692.033 3100.309)" fill="none" stroke="#000" stroke-miterlimit="10" stroke-width="0.27"/>
              <line id="Line_53" data-name="Line 53" x2="107.646" transform="translate(8692.033 3110.095)" fill="none" stroke="#000" stroke-miterlimit="10" stroke-width="0.27"/>
              <line id="Line_54" data-name="Line 54" y1="107.645" transform="translate(8789.894 3012.236)" fill="none" stroke="#000" stroke-miterlimit="10" stroke-width="0.27"/>
              <line id="Line_55" data-name="Line 55" y1="107.645" transform="translate(8780.107 3012.236)" fill="none" stroke="#000" stroke-miterlimit="10" stroke-width="0.27"/>
              <line id="Line_56" data-name="Line 56" y1="107.645" transform="translate(8770.321 3012.236)" fill="none" stroke="#000" stroke-miterlimit="10" stroke-width="0.27"/>
              <line id="Line_57" data-name="Line 57" y1="107.645" transform="translate(8760.535 3012.236)" fill="none" stroke="#000" stroke-miterlimit="10" stroke-width="0.27"/>
              <line id="Line_58" data-name="Line 58" y1="107.645" transform="translate(8750.749 3012.236)" fill="none" stroke="#000" stroke-miterlimit="10" stroke-width="0.27"/>
              <line id="Line_59" data-name="Line 59" y1="107.645" transform="translate(8740.963 3012.236)" fill="none" stroke="#000" stroke-miterlimit="10" stroke-width="0.27"/>
              <line id="Line_60" data-name="Line 60" y1="107.645" transform="translate(8731.178 3012.236)" fill="none" stroke="#000" stroke-miterlimit="10" stroke-width="0.27"/>
              <line id="Line_61" data-name="Line 61" y1="107.645" transform="translate(8721.392 3012.236)" fill="none" stroke="#000" stroke-miterlimit="10" stroke-width="0.27"/>
              <line id="Line_62" data-name="Line 62" y1="107.645" transform="translate(8711.605 3012.236)" fill="none" stroke="#000" stroke-miterlimit="10" stroke-width="0.27"/>
              <line id="Line_63" data-name="Line 63" y1="107.645" transform="translate(8701.819 3012.236)" fill="none" stroke="#000" stroke-miterlimit="10" stroke-width="0.27"/>
            </g>
            <line id="Line_64" data-name="Line 64" y1="41.323" x2="41.323" transform="translate(8725.194 3045.397)" fill="none" stroke="#000" stroke-miterlimit="10" stroke-width="0.27"/>
            <g id="Group_349" data-name="Group 349">
              <path id="Path_222" data-name="Path 222" d="M8731.832,3081.392a.925.925,0,1,0-1.309,0A.926.926,0,0,0,8731.832,3081.392Z" fill="none" stroke="#000" stroke-miterlimit="10" stroke-width="0.27"/>
              <path id="Path_223" data-name="Path 223" d="M8741.617,3071.606a.925.925,0,1,0-1.309,0A.926.926,0,0,0,8741.617,3071.606Z" fill="none" stroke="#000" stroke-miterlimit="10" stroke-width="0.27"/>
              <path id="Path_224" data-name="Path 224" d="M8751.4,3061.82a.925.925,0,1,0-1.31,0A.927.927,0,0,0,8751.4,3061.82Z" fill="none" stroke="#000" stroke-miterlimit="10" stroke-width="0.27"/>
              <path id="Path_225" data-name="Path 225" d="M8761.189,3052.034a.925.925,0,1,0-1.309,0A.924.924,0,0,0,8761.189,3052.034Z" fill="none" stroke="#000" stroke-miterlimit="10" stroke-width="0.27"/>
            </g>
          </g>
        </g>
        <path id="Path_227" data-name="Path 227" d="M8765.881,3046.034s1.7,12.744-7.719,22.16c-12.21,12.21-28.587,14.146-32.33,17.889,3.743-3.743,5.679-20.12,17.889-32.33C8753.136,3044.338,8765.881,3046.034,8765.881,3046.034Z" fill="none" stroke="#000" stroke-miterlimit="10" stroke-width="0.27"/>
      </g>
      <g id="Group_357" data-name="Group 357">
        <g id="Group_356" data-name="Group 356" clip-path="url(#clip-path-2)">
          <g id="Group_355" data-name="Group 355">
            <g id="Group_353" data-name="Group 353">
              <rect id="Rectangle_167" data-name="Rectangle 167" width="107.646" height="107.645" transform="translate(8663.929 3022.021)" fill="none" stroke="#000" stroke-miterlimit="10" stroke-width="0.27"/>
              <line id="Line_65" data-name="Line 65" x2="107.646" transform="translate(8663.929 3031.807)" fill="none" stroke="#000" stroke-miterlimit="10" stroke-width="0.27"/>
              <line id="Line_66" data-name="Line 66" x2="107.646" transform="translate(8663.929 3041.593)" fill="none" stroke="#000" stroke-miterlimit="10" stroke-width="0.27"/>
              <line id="Line_67" data-name="Line 67" x2="107.646" transform="translate(8663.929 3051.379)" fill="none" stroke="#000" stroke-miterlimit="10" stroke-width="0.27"/>
              <line id="Line_68" data-name="Line 68" x2="107.646" transform="translate(8663.929 3061.165)" fill="none" stroke="#000" stroke-miterlimit="10" stroke-width="0.27"/>
              <line id="Line_69" data-name="Line 69" x2="107.646" transform="translate(8663.929 3070.951)" fill="none" stroke="#000" stroke-miterlimit="10" stroke-width="0.27"/>
              <line id="Line_70" data-name="Line 70" x2="107.646" transform="translate(8663.929 3080.737)" fill="none" stroke="#000" stroke-miterlimit="10" stroke-width="0.27"/>
              <line id="Line_71" data-name="Line 71" x2="107.646" transform="translate(8663.929 3090.523)" fill="none" stroke="#000" stroke-miterlimit="10" stroke-width="0.27"/>
              <line id="Line_72" data-name="Line 72" x2="107.646" transform="translate(8663.929 3100.309)" fill="none" stroke="#000" stroke-miterlimit="10" stroke-width="0.27"/>
              <line id="Line_73" data-name="Line 73" x2="107.646" transform="translate(8663.929 3110.094)" fill="none" stroke="#000" stroke-miterlimit="10" stroke-width="0.27"/>
              <line id="Line_74" data-name="Line 74" x2="107.646" transform="translate(8663.929 3119.881)" fill="none" stroke="#000" stroke-miterlimit="10" stroke-width="0.27"/>
              <line id="Line_75" data-name="Line 75" y1="107.645" transform="translate(8761.788 3022.021)" fill="none" stroke="#000" stroke-miterlimit="10" stroke-width="0.27"/>
              <line id="Line_76" data-name="Line 76" y1="107.645" transform="translate(8752.003 3022.021)" fill="none" stroke="#000" stroke-miterlimit="10" stroke-width="0.27"/>
              <line id="Line_77" data-name="Line 77" y1="107.645" transform="translate(8742.217 3022.021)" fill="none" stroke="#000" stroke-miterlimit="10" stroke-width="0.27"/>
              <line id="Line_78" data-name="Line 78" y1="107.645" transform="translate(8732.431 3022.021)" fill="none" stroke="#000" stroke-miterlimit="10" stroke-width="0.27"/>
              <line id="Line_79" data-name="Line 79" y1="107.645" transform="translate(8722.645 3022.021)" fill="none" stroke="#000" stroke-miterlimit="10" stroke-width="0.27"/>
              <line id="Line_80" data-name="Line 80" y1="107.645" transform="translate(8712.858 3022.021)" fill="none" stroke="#000" stroke-miterlimit="10" stroke-width="0.27"/>
              <line id="Line_81" data-name="Line 81" y1="107.645" transform="translate(8703.072 3022.021)" fill="none" stroke="#000" stroke-miterlimit="10" stroke-width="0.27"/>
              <line id="Line_82" data-name="Line 82" y1="107.645" transform="translate(8693.287 3022.021)" fill="none" stroke="#000" stroke-miterlimit="10" stroke-width="0.27"/>
              <line id="Line_83" data-name="Line 83" y1="107.645" transform="translate(8683.501 3022.021)" fill="none" stroke="#000" stroke-miterlimit="10" stroke-width="0.27"/>
              <line id="Line_84" data-name="Line 84" y1="107.645" transform="translate(8673.715 3022.021)" fill="none" stroke="#000" stroke-miterlimit="10" stroke-width="0.27"/>
            </g>
            <line id="Line_85" data-name="Line 85" y1="41.323" x2="41.323" transform="translate(8697.09 3055.182)" fill="none" stroke="#000" stroke-miterlimit="10" stroke-width="0.27"/>
            <g id="Group_354" data-name="Group 354">
              <path id="Path_228" data-name="Path 228" d="M8703.727,3091.177a.925.925,0,1,0-1.308,0A.924.924,0,0,0,8703.727,3091.177Z" fill="none" stroke="#000" stroke-miterlimit="10" stroke-width="0.27"/>
              <path id="Path_229" data-name="Path 229" d="M8713.513,3081.391a.925.925,0,1,0-1.309,0A.925.925,0,0,0,8713.513,3081.391Z" fill="none" stroke="#000" stroke-miterlimit="10" stroke-width="0.27"/>
              <path id="Path_230" data-name="Path 230" d="M8723.3,3071.6a.925.925,0,1,0-1.308,0A.924.924,0,0,0,8723.3,3071.6Z" fill="none" stroke="#000" stroke-miterlimit="10" stroke-width="0.27"/>
              <path id="Path_231" data-name="Path 231" d="M8733.085,3061.819a.925.925,0,1,0-1.309,0A.925.925,0,0,0,8733.085,3061.819Z" fill="none" stroke="#000" stroke-miterlimit="10" stroke-width="0.27"/>
            </g>
          </g>
        </g>
        <circle id="Ellipse_21" data-name="Ellipse 21" cx="11.128" cy="11.128" r="11.128" transform="matrix(0.528, -0.849, 0.849, 0.528, 8702.426, 3079.417)" fill="none" stroke="#000" stroke-miterlimit="10" stroke-width="0.27"/>
      </g>
    </g>
    <line id="Line_86" data-name="Line 86" x1="125.49" transform="translate(249.511 3081.649)" fill="none" stroke="#000" stroke-miterlimit="10" stroke-width="0.393"/>
  </g>
</svg>
