<svg xmlns="http://www.w3.org/2000/svg" xmlns:xlink="http://www.w3.org/1999/xlink" width="148.508" height="699.969" viewBox="0 0 148.508 699.969">
  <defs>
    <clipPath id="clip-path">
      <path id="Path_384" data-name="Path 384" d="M499.719,4544.22s3.14,23.591-14.289,41.019c-22.6,22.6-52.916,26.186-59.845,33.115,6.929-6.929,10.512-37.243,33.114-59.845C476.128,4541.08,499.719,4544.22,499.719,4544.22Z" fill="none" stroke="#000" stroke-miterlimit="10" stroke-width="0.5"/>
    </clipPath>
    <clipPath id="clip-path-2">
      <circle id="Ellipse_42" data-name="Ellipse 42" cx="20.599" cy="20.599" r="20.599" transform="matrix(0.528, -0.849, 0.849, 0.528, 382.258, 4606.014)" fill="none" stroke="#000" stroke-miterlimit="10" stroke-width="0.5"/>
    </clipPath>
  </defs>
  <g id="Group_1254" data-name="Group 1254" transform="translate(-351.744 -4320)">
    <g id="Group_1253" data-name="Group 1253">
      <g id="Group_535" data-name="Group 535">
        <g id="Group_529" data-name="Group 529">
          <g id="Group_528" data-name="Group 528" clip-path="url(#clip-path)">
            <g id="Group_527" data-name="Group 527">
              <g id="Group_525" data-name="Group 525">
                <rect id="Rectangle_248" data-name="Rectangle 248" width="199.26" height="199.258" transform="translate(363.022 4481.658)" fill="none" stroke="#000" stroke-miterlimit="10" stroke-width="0.5"/>
                <line id="Line_270" data-name="Line 270" x2="199.26" transform="translate(363.022 4499.772)" fill="none" stroke="#000" stroke-miterlimit="10" stroke-width="0.5"/>
                <line id="Line_271" data-name="Line 271" x2="199.26" transform="translate(363.022 4517.887)" fill="none" stroke="#000" stroke-miterlimit="10" stroke-width="0.5"/>
                <line id="Line_272" data-name="Line 272" x2="199.26" transform="translate(363.022 4536.001)" fill="none" stroke="#000" stroke-miterlimit="10" stroke-width="0.5"/>
                <line id="Line_273" data-name="Line 273" x2="199.26" transform="translate(363.022 4554.116)" fill="none" stroke="#000" stroke-miterlimit="10" stroke-width="0.5"/>
                <line id="Line_274" data-name="Line 274" x2="199.26" transform="translate(363.022 4572.23)" fill="none" stroke="#000" stroke-miterlimit="10" stroke-width="0.5"/>
                <line id="Line_275" data-name="Line 275" x2="199.26" transform="translate(363.022 4590.344)" fill="none" stroke="#000" stroke-miterlimit="10" stroke-width="0.5"/>
                <line id="Line_276" data-name="Line 276" x2="199.26" transform="translate(363.022 4608.458)" fill="none" stroke="#000" stroke-miterlimit="10" stroke-width="0.5"/>
                <line id="Line_277" data-name="Line 277" x2="199.26" transform="translate(363.022 4626.573)" fill="none" stroke="#000" stroke-miterlimit="10" stroke-width="0.5"/>
                <line id="Line_278" data-name="Line 278" x2="199.26" transform="translate(363.022 4644.688)" fill="none" stroke="#000" stroke-miterlimit="10" stroke-width="0.5"/>
                <line id="Line_279" data-name="Line 279" x2="199.26" transform="translate(363.022 4662.802)" fill="none" stroke="#000" stroke-miterlimit="10" stroke-width="0.5"/>
                <line id="Line_280" data-name="Line 280" y1="199.258" transform="translate(544.167 4481.658)" fill="none" stroke="#000" stroke-miterlimit="10" stroke-width="0.5"/>
                <line id="Line_281" data-name="Line 281" y1="199.258" transform="translate(526.052 4481.658)" fill="none" stroke="#000" stroke-miterlimit="10" stroke-width="0.5"/>
                <line id="Line_282" data-name="Line 282" y1="199.258" transform="translate(507.938 4481.658)" fill="none" stroke="#000" stroke-miterlimit="10" stroke-width="0.5"/>
                <line id="Line_283" data-name="Line 283" y1="199.258" transform="translate(489.823 4481.658)" fill="none" stroke="#000" stroke-miterlimit="10" stroke-width="0.5"/>
                <line id="Line_284" data-name="Line 284" y1="199.258" transform="translate(471.709 4481.658)" fill="none" stroke="#000" stroke-miterlimit="10" stroke-width="0.5"/>
                <line id="Line_285" data-name="Line 285" y1="199.258" transform="translate(453.594 4481.658)" fill="none" stroke="#000" stroke-miterlimit="10" stroke-width="0.5"/>
                <line id="Line_286" data-name="Line 286" y1="199.258" transform="translate(435.48 4481.658)" fill="none" stroke="#000" stroke-miterlimit="10" stroke-width="0.5"/>
                <line id="Line_287" data-name="Line 287" y1="199.258" transform="translate(417.365 4481.658)" fill="none" stroke="#000" stroke-miterlimit="10" stroke-width="0.5"/>
                <line id="Line_288" data-name="Line 288" y1="199.258" transform="translate(399.251 4481.658)" fill="none" stroke="#000" stroke-miterlimit="10" stroke-width="0.5"/>
                <line id="Line_289" data-name="Line 289" y1="199.258" transform="translate(381.136 4481.658)" fill="none" stroke="#000" stroke-miterlimit="10" stroke-width="0.5"/>
              </g>
              <line id="Line_290" data-name="Line 290" y1="76.492" x2="76.492" transform="translate(424.406 4543.042)" fill="none" stroke="#000" stroke-miterlimit="10" stroke-width="0.5"/>
              <g id="Group_526" data-name="Group 526">
                <path id="Path_380" data-name="Path 380" d="M436.691,4609.669a1.713,1.713,0,1,0-2.422,0A1.712,1.712,0,0,0,436.691,4609.669Z" fill="none" stroke="#000" stroke-miterlimit="10" stroke-width="0.5"/>
                <path id="Path_381" data-name="Path 381" d="M454.8,4591.555a1.713,1.713,0,1,0-2.422,0A1.713,1.713,0,0,0,454.8,4591.555Z" fill="none" stroke="#000" stroke-miterlimit="10" stroke-width="0.5"/>
                <path id="Path_382" data-name="Path 382" d="M472.92,4573.441a1.713,1.713,0,1,0-2.422,0A1.712,1.712,0,0,0,472.92,4573.441Z" fill="none" stroke="#000" stroke-miterlimit="10" stroke-width="0.5"/>
                <path id="Path_383" data-name="Path 383" d="M491.034,4555.327a1.713,1.713,0,1,0-2.422,0A1.713,1.713,0,0,0,491.034,4555.327Z" fill="none" stroke="#000" stroke-miterlimit="10" stroke-width="0.5"/>
              </g>
            </g>
          </g>
          <path id="Path_385" data-name="Path 385" d="M499.719,4544.22s3.14,23.591-14.289,41.019c-22.6,22.6-52.916,26.186-59.845,33.115,6.929-6.929,10.512-37.243,33.114-59.845C476.128,4541.08,499.719,4544.22,499.719,4544.22Z" fill="none" stroke="#000" stroke-miterlimit="10" stroke-width="0.5"/>
        </g>
        <g id="Group_534" data-name="Group 534">
          <g id="Group_533" data-name="Group 533" clip-path="url(#clip-path-2)">
            <g id="Group_532" data-name="Group 532">
              <g id="Group_530" data-name="Group 530">
                <rect id="Rectangle_249" data-name="Rectangle 249" width="199.26" height="199.258" transform="translate(310.998 4499.771)" fill="none" stroke="#000" stroke-miterlimit="10" stroke-width="0.5"/>
                <line id="Line_291" data-name="Line 291" x2="199.26" transform="translate(310.998 4517.885)" fill="none" stroke="#000" stroke-miterlimit="10" stroke-width="0.5"/>
                <line id="Line_292" data-name="Line 292" x2="199.26" transform="translate(310.998 4536)" fill="none" stroke="#000" stroke-miterlimit="10" stroke-width="0.5"/>
                <line id="Line_293" data-name="Line 293" x2="199.26" transform="translate(310.998 4554.114)" fill="none" stroke="#000" stroke-miterlimit="10" stroke-width="0.5"/>
                <line id="Line_294" data-name="Line 294" x2="199.26" transform="translate(310.998 4572.229)" fill="none" stroke="#000" stroke-miterlimit="10" stroke-width="0.5"/>
                <line id="Line_295" data-name="Line 295" x2="199.26" transform="translate(310.998 4590.343)" fill="none" stroke="#000" stroke-miterlimit="10" stroke-width="0.5"/>
                <line id="Line_296" data-name="Line 296" x2="199.26" transform="translate(310.998 4608.458)" fill="none" stroke="#000" stroke-miterlimit="10" stroke-width="0.5"/>
                <line id="Line_297" data-name="Line 297" x2="199.259" transform="translate(310.998 4626.572)" fill="none" stroke="#000" stroke-miterlimit="10" stroke-width="0.5"/>
                <line id="Line_298" data-name="Line 298" x2="199.26" transform="translate(310.998 4644.686)" fill="none" stroke="#000" stroke-miterlimit="10" stroke-width="0.5"/>
                <line id="Line_299" data-name="Line 299" x2="199.259" transform="translate(310.998 4662.801)" fill="none" stroke="#000" stroke-miterlimit="10" stroke-width="0.5"/>
                <line id="Line_300" data-name="Line 300" x2="199.26" transform="translate(310.998 4680.915)" fill="none" stroke="#000" stroke-miterlimit="10" stroke-width="0.5"/>
                <line id="Line_301" data-name="Line 301" y1="199.258" transform="translate(492.143 4499.771)" fill="none" stroke="#000" stroke-miterlimit="10" stroke-width="0.5"/>
                <line id="Line_302" data-name="Line 302" y1="199.258" transform="translate(474.029 4499.771)" fill="none" stroke="#000" stroke-miterlimit="10" stroke-width="0.5"/>
                <line id="Line_303" data-name="Line 303" y1="199.258" transform="translate(455.914 4499.771)" fill="none" stroke="#000" stroke-miterlimit="10" stroke-width="0.5"/>
                <line id="Line_304" data-name="Line 304" y1="199.258" transform="translate(437.8 4499.771)" fill="none" stroke="#000" stroke-miterlimit="10" stroke-width="0.5"/>
                <line id="Line_305" data-name="Line 305" y1="199.258" transform="translate(419.685 4499.771)" fill="none" stroke="#000" stroke-miterlimit="10" stroke-width="0.5"/>
                <line id="Line_306" data-name="Line 306" y1="199.258" transform="translate(401.571 4499.771)" fill="none" stroke="#000" stroke-miterlimit="10" stroke-width="0.5"/>
                <line id="Line_307" data-name="Line 307" y1="199.258" transform="translate(383.456 4499.771)" fill="none" stroke="#000" stroke-miterlimit="10" stroke-width="0.5"/>
                <line id="Line_308" data-name="Line 308" y1="199.258" transform="translate(365.342 4499.771)" fill="none" stroke="#000" stroke-miterlimit="10" stroke-width="0.5"/>
                <line id="Line_309" data-name="Line 309" y1="199.258" transform="translate(347.227 4499.771)" fill="none" stroke="#000" stroke-miterlimit="10" stroke-width="0.5"/>
                <line id="Line_310" data-name="Line 310" y1="199.258" transform="translate(329.113 4499.771)" fill="none" stroke="#000" stroke-miterlimit="10" stroke-width="0.5"/>
              </g>
              <line id="Line_311" data-name="Line 311" y1="76.492" x2="76.491" transform="translate(372.382 4561.154)" fill="none" stroke="#000" stroke-miterlimit="10" stroke-width="0.5"/>
              <g id="Group_531" data-name="Group 531">
                <path id="Path_386" data-name="Path 386" d="M384.668,4627.783a1.713,1.713,0,1,0-2.422,0A1.714,1.714,0,0,0,384.668,4627.783Z" fill="none" stroke="#000" stroke-miterlimit="10" stroke-width="0.5"/>
                <path id="Path_387" data-name="Path 387" d="M402.782,4609.668a1.713,1.713,0,1,0-2.423,0A1.712,1.712,0,0,0,402.782,4609.668Z" fill="none" stroke="#000" stroke-miterlimit="10" stroke-width="0.5"/>
                <path id="Path_388" data-name="Path 388" d="M420.9,4591.554a1.713,1.713,0,1,0-2.422,0A1.713,1.713,0,0,0,420.9,4591.554Z" fill="none" stroke="#000" stroke-miterlimit="10" stroke-width="0.5"/>
                <path id="Path_389" data-name="Path 389" d="M439.011,4573.44a1.713,1.713,0,1,0-2.423,0A1.712,1.712,0,0,0,439.011,4573.44Z" fill="none" stroke="#000" stroke-miterlimit="10" stroke-width="0.5"/>
              </g>
            </g>
          </g>
          <circle id="Ellipse_43" data-name="Ellipse 43" cx="20.599" cy="20.599" r="20.599" transform="matrix(0.528, -0.849, 0.849, 0.528, 382.258, 4606.014)" fill="none" stroke="#000" stroke-miterlimit="10" stroke-width="0.5"/>
        </g>
      </g>
      <g id="Group_749" data-name="Group 749">
        <g id="Group_748" data-name="Group 748">
          <g id="Group_747" data-name="Group 747">
            <path id="Path_545" data-name="Path 545" d="M404.291,4673.936c-5.281,1.872-10.945,3.7-15.458,5.136l-1.3-5.376c1.681-.48,3.7-1.008,5.953-1.68v-11.041h-4.848v-5.233h4.848v-8.5h-5.521v-5.185h16.178v5.185h-5.569v8.5h4.657v5.233h-4.657v9.457c1.632-.48,3.265-1.009,4.8-1.536Zm27.746-4.033a52.583,52.583,0,0,1-5.9,3.937A20.443,20.443,0,0,0,433,4678.4a23.647,23.647,0,0,0-3.792,4.657c-6.721-3.313-11.377-9.6-14.3-17.282h-3.216v10.9l6.336-1.776a23.613,23.613,0,0,0,.672,4.8c-9.5,2.976-11.233,3.744-12.337,4.561a15.073,15.073,0,0,0-2.88-4.033,6.558,6.558,0,0,0,2.736-5.136v-30.819h9.361a43.1,43.1,0,0,0-1.68-3.984l5.04-1.392a35.757,35.757,0,0,1,2.448,5.376h8.257v21.506H420.42a32.733,32.733,0,0,0,2.5,4.416,49.118,49.118,0,0,0,5.472-4.032Zm-20.353-20.737v3.264h12.433v-3.264Zm0,11.712h12.433v-3.648H411.684Z"/>
            <path id="Path_546" data-name="Path 546" d="M404.291,4721.936c-5.281,1.872-10.945,3.7-15.458,5.136l-1.3-5.376c1.681-.48,3.7-1.008,5.953-1.68v-11.041h-4.848v-5.233h4.848v-8.5h-5.521v-5.185h16.178v5.185h-5.569v8.5h4.657v5.233h-4.657v9.457c1.632-.48,3.265-1.009,4.8-1.536Zm27.746-4.033a52.583,52.583,0,0,1-5.9,3.937A20.443,20.443,0,0,0,433,4726.4a23.647,23.647,0,0,0-3.792,4.657c-6.721-3.313-11.377-9.6-14.3-17.282h-3.216v10.9l6.336-1.776a23.613,23.613,0,0,0,.672,4.8c-9.5,2.976-11.233,3.744-12.337,4.561a15.073,15.073,0,0,0-2.88-4.033,6.558,6.558,0,0,0,2.736-5.136v-30.819h9.361a43.1,43.1,0,0,0-1.68-3.984l5.04-1.392a35.757,35.757,0,0,1,2.448,5.376h8.257v21.506H420.42a32.733,32.733,0,0,0,2.5,4.416,49.118,49.118,0,0,0,5.472-4.032Zm-20.353-20.737v3.264h12.433v-3.264Zm0,11.712h12.433v-3.648H411.684Z"/>
            <path id="Path_547" data-name="Path 547" d="M412.884,4752.271v1.68h15.361v3.456H412.884v1.729h18.865v3.984h-43.06v-3.984h18.482v-1.729H392.05v-3.456h15.121v-1.68H393.106v-3.313h14.065v-1.823H388.738V4743.2h18.433v-1.776H393.634v-3.312h13.537v-3.025h5.713v3.025h13.393v5.088h5.472v3.937h-5.472v5.136Zm-18.194,12.337h31.827v15.554h-5.761v-1.393H400.21v1.44h-5.52Zm5.52,3.648v1.728h20.546v-1.728Zm20.546,6.913V4773.3H400.21v1.872Zm-7.872-31.971h7.728v-1.776h-7.728Zm0,5.76h7.728v-1.823h-7.728Z"/>
            <path id="Path_548" data-name="Path 548" d="M424.933,4820.577h6.528v3.936h-6.528v3.6h-5.665v-3.6H388.881v-3.936H395.7v-11.665h-5.376v-3.936h.24c-.864-.529-1.873-1.1-2.449-1.393a8.9,8.9,0,0,0,2.785-7.056V4793.6h18.1v7.92h-14.4a10.642,10.642,0,0,1-1.728,3.457h18.481a14.012,14.012,0,0,0-2.064-3.6,38.976,38.976,0,0,0,6.577-1.248,15.344,15.344,0,0,1-3.408-3.648l1.536-.433h-2.737v-3.024a12.571,12.571,0,0,0-2.016-1.968c3.649-1.248,4.177-2.736,4.177-4.368v-2.353h13.105v3.937c0,.864.048,1.3.768,1.3h1.632a10.635,10.635,0,0,0,2.448-.288c.1,1.152.144,2.256.288,3.409a8.576,8.576,0,0,1-2.64.287h-1.968l2.64.961a14.6,14.6,0,0,1-4.848,6.24,36.315,36.315,0,0,0,6.96,1.152,16.223,16.223,0,0,0-2.592,3.649h1.1v3.936h-5.376Zm-27.747-32.451h-8.161v-2.88h8.161v-2.064h5.137v2.064H410.2v2.88h-7.872v1.392h6.624v2.832h-18.53v-2.832h6.769Zm-1.968,8.208v.289c0,.672-.048,1.392-.1,2.16h2.688v-2.449Zm6,12.578v1.632h18.049v-1.632Zm0,6.672h18.049v-1.68H401.219Zm18.049,4.993v-1.632H401.219v1.632Zm-14.641-24.243H401.8v2.449h2.832Zm23.522,8.642a31.618,31.618,0,0,1-7.777-2.209,38.038,38.038,0,0,1-7.584,2.209Zm-10.465-16.946a7.073,7.073,0,0,1-2.928,4.992h11.137l.288-.048h-.144c-3.5,0-4.081-1.584-4.081-4.7v-.24Zm-.672,8.016a9.564,9.564,0,0,0,3.072,2.305,11.457,11.457,0,0,0,3.072-2.305Z"/>
            <path id="Path_549" data-name="Path 549" d="M432.373,4850.1v6.193H388.209V4850.1Z"/>
            <path id="Path_550" data-name="Path 550" d="M402.9,4916.337c2.544.864,5.76,1.056,9.6,1.056,3.648.048,16.369.048,20.689-.192a19.545,19.545,0,0,0-2.16,5.664H412.5c-8.881,0-14.594-1.2-18.386-6.576a34.272,34.272,0,0,1-2.208,8.448,50,50,0,0,0-4.8-2.448c2.353-4.848,2.833-12.865,2.929-21.074l5.232.385c-.048,2.111-.144,4.224-.24,6.192a15.34,15.34,0,0,0,2.64,5.088v-14.449h-9.312v-4.992h8.112v-4.465H389.7v-4.944h6.768v-4.656h5.377v4.656h6.384v4.944h-6.384v4.465h7.536v4.992H402.9v5.185h6.1v4.944h-6.1Zm15.6-1.152c-5.376,0-7.1-1.633-7.1-7.729V4881.1h18.529v18.241H416.916v8.113c0,2.208.288,2.592,2.3,2.592h6.193c1.824,0,2.16-1.1,2.448-6.193a16.135,16.135,0,0,0,4.992,2.209c-.624,6.816-2.16,9.121-6.96,9.121Zm-1.584-29.091v8.3h7.537v-8.3Z"/>
            <path id="Path_551" data-name="Path 551" d="M430.453,4957.664a74.857,74.857,0,0,1-8.449,5.28,32.669,32.669,0,0,0,10.945,3.936,21.229,21.229,0,0,0-3.6,5.089c-10.7-2.448-17.138-8.017-21.218-16.85h-6.864V4965.3l10.513-2.112a33.947,33.947,0,0,0-.481,5.088c-11.473,2.544-14.113,3.168-15.409,3.745l-.288.24a26.057,26.057,0,0,0-2.4-5.665,4.249,4.249,0,0,0,2.448-3.7v-7.777h-7.008v-5.04h7.968v-21.218H426.9v4.656H402.467v2.641h23.09v4.416h-23.09v2.5h23.09v4.416h-23.09v2.593h29.474v5.04h-5.184Zm-16.321-2.545a21.087,21.087,0,0,0,3.888,4.849,64.833,64.833,0,0,0,7.057-4.849Z"/>
            <path id="Path_552" data-name="Path 552" d="M414.66,4994c3.168,9.361,8.976,16.9,17.953,20.546a22.979,22.979,0,0,0-4.224,5.376c-8.689-4.08-14.257-11.088-18-20.354a33.039,33.039,0,0,1-17.953,20.4,16.891,16.891,0,0,0-4.273-4.848c10.993-4.9,15.554-12.865,17.426-21.122H389.073v-5.9h17.474c.48-4.513.432-8.881.48-12.818h6.241c-.048,3.937-.1,8.353-.577,12.818h18.866v5.9Z"/>
          </g>
        </g>
      </g>
      <g id="Group_752" data-name="Group 752">
        <g id="Group_751" data-name="Group 751">
          <g id="Group_750" data-name="Group 750">
            <path id="Path_553" data-name="Path 553" d="M460.3,4655.935v1.84h-1.4v-13.683h6.061v11.843Zm0-10.482v3.78h3.261v-3.78Zm3.261,9.1v-3.961H460.3v3.961Zm12,4.62c0,.941-.22,1.381-.84,1.641a11.89,11.89,0,0,1-3.461.28,5.079,5.079,0,0,0-.52-1.46c1.261.04,2.521.02,2.881.02.34-.02.48-.14.48-.481v-4.421h-5.6a10.422,10.422,0,0,1-3.561,6.482,4.719,4.719,0,0,0-1.1-.98c3.18-2.6,3.521-6.381,3.521-9.463v-7.081h8.2Zm-1.46-5.781v-3.5h-5.281v.9a23.491,23.491,0,0,1-.12,2.6Zm-5.281-8.282v3.421h5.281v-3.421Z"/>
            <path id="Path_554" data-name="Path 554" d="M475.925,4679.295v1.321H458.582v-1.321H466.5v-2.16h-5.581v-1.2H466.5v-1.881h-4.9a18.657,18.657,0,0,1-2.061,2.221,6.733,6.733,0,0,0-1.26-.941,12.648,12.648,0,0,0,3.66-4.58l1.461.4a18.189,18.189,0,0,1-.9,1.62h4v-1.6h1.521v1.6h6.641v1.28h-6.641v1.881h5.821v1.2h-5.821v2.16Zm-2.04-8.561H460.642v-7.062h13.243Zm-1.5-5.861H462.1v1.74h10.282Zm0,2.88H462.1v1.78h10.282Z"/>
            <path id="Path_555" data-name="Path 555" d="M476.146,4697.235h-8v2.3c0,.78-.16,1.12-.78,1.34a11.964,11.964,0,0,1-3.221.2,5.619,5.619,0,0,0-.52-1.261c1.24.04,2.36.04,2.66.04.341-.02.421-.08.421-.359v-2.261h-8.342v-1.26H466.7v-.86a18.7,18.7,0,0,0,3.18-1.521h-7.821v-1.12h9.4l.3-.08.9.74a20.047,20.047,0,0,1-4.521,2.481v.36h8Zm-15.924-3.641H458.8v-3.62h1.6l-.4-5.942a37.428,37.428,0,0,0,3.861-.98l.68.92a21.993,21.993,0,0,1-3.1.78l.08.98h2.9v1.021h-2.84l.079,1.08H464.5v1.021h-2.781l.08,1.12h10.963c.04-.361.08-.721.12-1.12h-2.9v-1.021h2.981l.1-1.08H470.1v-1.021h3.021l.06-1.08H470v-1.02h4.621c-.1,1.981-.28,4.561-.44,6.342h1.56v3.62h-1.46v-2.48H460.222Zm8.562-3.781a11.028,11.028,0,0,0-1.44-1.16,14.29,14.29,0,0,1-2,1.3,5.164,5.164,0,0,0-.82-.781,12.012,12.012,0,0,0,1.9-1.1,14.692,14.692,0,0,0-1.44-.78l.74-.66c.5.22,1.021.52,1.541.8a7.165,7.165,0,0,0,1-1.06l1.04.34a11.374,11.374,0,0,1-1.16,1.28,9,9,0,0,1,1.44,1.1Zm-.04-3.56a10.016,10.016,0,0,0-1.38-1.021,13.889,13.889,0,0,1-1.861,1.2,6.339,6.339,0,0,0-.84-.721,11.959,11.959,0,0,0,1.78-1.02,13.308,13.308,0,0,0-1.4-.72l.72-.66c.48.2.981.46,1.5.74a8.481,8.481,0,0,0,.94-.98l1.04.28a10.267,10.267,0,0,1-1.1,1.22c.54.341,1.02.66,1.38.941Z"/>
            <path id="Path_556" data-name="Path 556" d="M472.665,4718.815a22.513,22.513,0,0,0,3.32-.22c.06.42.161,1.1.241,1.421a19.6,19.6,0,0,1-3.581.179h-8.8c-3.061,0-4.541-.96-4.541-3.881v-11.2h-.82v-1.34h16.763v1.34H460.762v11.3c0,1.7.78,2.4,2.921,2.4Zm-10.322-6.621h5.2v5.121h-5.2Zm1.24,4.04h2.66v-2.96h-2.66Zm8.342-5.4H464.5v-4.42h7.422Zm-1.461-3.36H465.9v2.28h4.561Zm3.8,9.842h-5.381v-5.121h5.381Zm-1.32-4.041h-2.781v2.96h2.781Z"/>
            <path id="Path_557" data-name="Path 557" d="M468.044,4722.932c-.02.72-.04,1.72-.14,2.9.3,2.38,1.5,10.742,8.562,13.883a4.53,4.53,0,0,0-1.081,1.26c-5-2.341-7.141-7.282-8.1-11-.921,4-3.041,8.482-7.922,11.082a4.745,4.745,0,0,0-1.2-1.16c8.3-4.2,8.181-13.923,8.241-16.964Z"/>
            <path id="Path_558" data-name="Path 558" d="M473.105,4747.833a21.116,21.116,0,0,1-4.681,7.742,19.663,19.663,0,0,0,8.082,4.061,6.882,6.882,0,0,0-1.021,1.38,20.224,20.224,0,0,1-8.2-4.381,23,23,0,0,1-8.322,4.461,8.282,8.282,0,0,0-.92-1.38,21.532,21.532,0,0,0,8.161-4.141,22.56,22.56,0,0,1-4.8-7.742h-3.08v-1.46h17.924v1.46Zm-10.162,0a20.216,20.216,0,0,0,4.361,6.7,18.357,18.357,0,0,0,4.12-6.7Zm4.241-1.5a15.661,15.661,0,0,0-1.481-3.141l1.541-.44a16.419,16.419,0,0,1,1.56,3.061Z"/>
            <path id="Path_559" data-name="Path 559" d="M474.025,4763.952c-.02,7.442.02,15.6,1.18,15.6.24,0,.36-1.321.4-3.061a5.278,5.278,0,0,0,.9,1.04c-.14,2.561-.441,3.581-1.461,3.581-2.42,0-2.38-7.062-2.46-15.783H461.8v5.041c0,3.22-.34,7.781-2.6,10.782a5.036,5.036,0,0,0-1.181-.84c2.141-2.841,2.361-6.882,2.361-9.942v-6.422Zm-3.641,11.783a15.283,15.283,0,0,1,2.361,4.381l-1.2.44a8.739,8.739,0,0,0-.6-1.52c-3.32.239-6.741.46-9.1.64l-.1-1.341c1.241-.06,2.881-.16,4.661-.28v-2.8h-3.46v-5.442h3.46v-1.92h-3.74v-1.24H471.6v1.24h-3.88v1.92h3.54v5.442h-3.54v2.72l2.6-.16a17.29,17.29,0,0,0-1.08-1.68Zm-3.981-1.661v-3.06h-2.26v3.06Zm1.321-3.06v3.06H470v-3.06Z"/>
            <path id="Path_560" data-name="Path 560" d="M463.963,4797.335h3.961v1.16h-3.961v2.621h-1.28V4798.5h-4.421v-1.16h4.421v-1.021h-3.3v-5.44h3.3v-.981h-4.021v-1.14h4.021v-1.16h1.18a20.071,20.071,0,0,0-1.62-1.541l.74-.58h-1.661a13.249,13.249,0,0,1-2.06,2.6,9.925,9.925,0,0,0-1.04-.98,12.137,12.137,0,0,0,3-4.361l1.32.36c-.159.4-.339.78-.54,1.18h5.122v1.2h-3.761a13.881,13.881,0,0,1,1.9,1.761l-.96.86a2.823,2.823,0,0,0-.34-.4v1.06h3.8v1.14h-3.8v.981H467.2v5.44h-3.241Zm-3.361-4.241h2.081v-1.24H460.6Zm2.081,2.22v-1.26H460.6v1.26Zm1.28-3.46v1.24h1.96v-1.24Zm1.96,2.2h-1.96v1.26h1.96Zm3.721-8.582a10.7,10.7,0,0,1-1.84,2.441,9.019,9.019,0,0,0-1.14-.86,9.909,9.909,0,0,0,2.7-4.321l1.38.32c-.14.42-.3.82-.48,1.24h6.022v1.18h-4.321a18.784,18.784,0,0,1,1.92,1.721l-1,.88a18.337,18.337,0,0,0-1.981-1.9l.861-.7Zm4.441,13.783c.78,0,.9-.44,1-2.64a4.341,4.341,0,0,0,1.321.58c-.18,2.66-.621,3.421-2.221,3.421h-3.3c-1.76,0-2.3-.461-2.3-2.261v-9.922h6.381v5.941c0,.74-.16,1.161-.7,1.4a8.424,8.424,0,0,1-2.841.261,5.657,5.657,0,0,0-.5-1.381c1.081.02,1.981.02,2.261,0s.36-.08.36-.32v-4.6h-3.561v8.622c0,.76.16.9,1.04.9Z"/>
            <path id="Path_561" data-name="Path 561" d="M465.163,4809.774c1.541-.64,2.42-1.58,2.521-2.94a1.944,1.944,0,0,1-.34.02,1.375,1.375,0,0,1-1.5-1.42,1.407,1.407,0,0,1,1.521-1.441c1.1,0,1.7.9,1.7,2.3a4.765,4.765,0,0,1-3.461,4.541Z"/>
            <path id="Path_562" data-name="Path 562" d="M471.825,4822.294a11.99,11.99,0,0,1-2.341,4.4,43.26,43.26,0,0,1,6.141,3.12l-1.12,1.3a41.049,41.049,0,0,0-6.2-3.261c-2.021,1.7-4.821,2.681-8.562,3.321a6.317,6.317,0,0,0-.94-1.481c3.441-.44,6.021-1.2,7.882-2.54-1.861-.78-3.8-1.481-5.542-2.041.58-.78,1.221-1.76,1.861-2.82h-4.341v-1.42h5.121a30.112,30.112,0,0,0,1.66-3.481l1.661.3a30.158,30.158,0,0,1-1.5,3.181h4.861q.21-.932.36-1.981l1.741.16c-.1.64-.22,1.26-.36,1.821h3.66v1.42Zm-11.183-3.121h-1.48v-4H466.6c-.281-.64-.641-1.42-.981-2.04l1.581-.4c.42.76.94,1.74,1.24,2.44h6.881v4h-1.54v-2.62H460.642Zm4.181,3.121c-.46.78-.9,1.5-1.34,2.14,1.44.461,2.96,1.041,4.461,1.621a10.17,10.17,0,0,0,2.16-3.761Z"/>
            <path id="Path_563" data-name="Path 563" d="M461.442,4840.173a40.245,40.245,0,0,1-1.76,7.842l-1.48-.62a31.408,31.408,0,0,0,1.8-7.5Zm3.241-1.78v9.862c0,.92.24,1.1,1.38,1.1h3.821c1.241,0,1.42-.7,1.58-4.141a4.737,4.737,0,0,0,1.4.661c-.22,3.78-.68,4.88-2.9,4.88h-4.021c-2.16,0-2.76-.54-2.76-2.52v-9.842Zm.42-4.841a36.495,36.495,0,0,1,5.381,4.421l-1.06,1.1a37.57,37.57,0,0,0-5.3-4.541Zm8.7,5.821a35.957,35.957,0,0,1,2.681,7.5l-1.461.58a36.035,36.035,0,0,0-2.6-7.542Z"/>
            <path id="Path_564" data-name="Path 564" d="M463.823,4853.352a31.818,31.818,0,0,1-1.9,4.421V4871.1H460.5v-10.9a20.452,20.452,0,0,1-1.6,2.141,9.951,9.951,0,0,0-.86-1.46,22.956,22.956,0,0,0,4.381-7.942Zm6.721,11.2a7.205,7.205,0,0,1-1.5,3.54,23.883,23.883,0,0,0,7.521,1.541,5.786,5.786,0,0,0-.879,1.38,22.515,22.515,0,0,1-7.7-1.9,12.763,12.763,0,0,1-4.441,2.081,7.367,7.367,0,0,0-.9-1.22,11.721,11.721,0,0,0,4.041-1.621,9.161,9.161,0,0,1-2.861-2.82l1.26-.48a7.807,7.807,0,0,0,2.681,2.4,5.514,5.514,0,0,0,1.34-2.9h-4.741v-7.542h4.881v-1.66h-5.4v-1.341h12.262v1.341h-5.4v1.66h4.721v7.542Zm-4.781-4.322h3.481v-2.06h-3.481Zm3.461,3.161c.02-.34.02-.72.02-1.06v-1h-3.481v2.06Zm4.741-2.06H470.7v1a9.39,9.39,0,0,1-.04,1.06h3.3Zm-3.261-3.161v2.06h3.261v-2.06Z"/>
            <path id="Path_565" data-name="Path 565" d="M464.063,4878.854h4.1v1.379h-4.1v.541c.96.9,3.261,3.2,3.861,3.8l-.881,1.22c-.6-.76-1.94-2.221-2.98-3.341v8.642h-1.48v-8.582a21.671,21.671,0,0,1-3.781,5.861,10.985,10.985,0,0,0-.821-1.4,19.939,19.939,0,0,0,4.3-6.742h-3.9v-1.379h4.2v-3.4c-1.3.259-2.6.46-3.841.64a4.23,4.23,0,0,0-.46-1.18,39.109,39.109,0,0,0,8.261-1.941l1.1,1.14a28.75,28.75,0,0,1-3.581,1.06Zm7.122,7.341h-1.461v-10.963h1.461Zm4.24-13.1v15.964c0,1.02-.28,1.46-.9,1.7a11.25,11.25,0,0,1-3.561.3,7.509,7.509,0,0,0-.54-1.5c1.381.04,2.641.02,3.021.02.36-.02.52-.12.52-.52v-15.964Z"/>
            <path id="Path_566" data-name="Path 566" d="M476.166,4908.695v1.481H458.342v-1.481H465.8v-15.523h1.561v6.121H474.8v1.481h-7.441v7.921Z"/>
            <path id="Path_567" data-name="Path 567" d="M476.146,4927.235h-8v2.3c0,.78-.16,1.12-.78,1.34a11.964,11.964,0,0,1-3.221.2,5.619,5.619,0,0,0-.52-1.261c1.24.04,2.36.04,2.66.04.341-.02.421-.08.421-.359v-2.261h-8.342v-1.26H466.7v-.86a18.7,18.7,0,0,0,3.18-1.521h-7.821v-1.12h9.4l.3-.08.9.74a20.047,20.047,0,0,1-4.521,2.481v.36h8Zm-15.924-3.641H458.8v-3.62h1.6l-.4-5.942a37.428,37.428,0,0,0,3.861-.98l.68.92a21.993,21.993,0,0,1-3.1.78l.08.98h2.9v1.021h-2.84l.079,1.08H464.5v1.021h-2.781l.08,1.12h10.963c.04-.361.08-.721.12-1.12h-2.9v-1.021h2.981l.1-1.08H470.1v-1.021h3.021l.06-1.08H470v-1.02h4.621c-.1,1.981-.28,4.561-.44,6.342h1.56v3.62h-1.46v-2.48H460.222Zm8.562-3.781a11.028,11.028,0,0,0-1.44-1.16,14.29,14.29,0,0,1-2,1.3,5.164,5.164,0,0,0-.82-.781,12.012,12.012,0,0,0,1.9-1.1,14.692,14.692,0,0,0-1.44-.78l.74-.66c.5.22,1.021.52,1.541.8a7.165,7.165,0,0,0,1-1.06l1.04.34a11.374,11.374,0,0,1-1.16,1.28,9,9,0,0,1,1.44,1.1Zm-.04-3.56a10.016,10.016,0,0,0-1.38-1.021,13.889,13.889,0,0,1-1.861,1.2,6.339,6.339,0,0,0-.84-.721,11.959,11.959,0,0,0,1.78-1.02,13.308,13.308,0,0,0-1.4-.72l.72-.66c.48.2.981.46,1.5.74a8.481,8.481,0,0,0,.94-.98l1.04.28a10.267,10.267,0,0,1-1.1,1.22c.54.341,1.02.66,1.38.941Z"/>
            <path id="Path_568" data-name="Path 568" d="M474.985,4935.252a15.209,15.209,0,0,1-2.921,5.322,13.4,13.4,0,0,0,4.561,2.94,6.123,6.123,0,0,0-.919,1.22c-.2-.1-.421-.179-.641-.279v6.581h-1.42v-.66h-5v.72h-1.38v-6.661c-.4.2-.8.379-1.2.56a4.436,4.436,0,0,0-.72-1h-2.1v3.581c.86-.2,1.74-.4,2.62-.62l.14,1.34c-2.72.661-5.561,1.341-7.661,1.861l-.28-1.441,1.02-.22v-6.821h1.26v6.561l1.54-.36v-8.082h-2.8v-6.1h6.461v5.3a14.542,14.542,0,0,0,3.621-6.141l1.42.34c-.2.58-.42,1.161-.64,1.7H473.8l.26-.06Zm-14.583,3.241h3.761v-3.5H460.4Zm5.321,5.141a14.008,14.008,0,0,0,4.521-3.12,18.329,18.329,0,0,1-1.84-2.741,14.387,14.387,0,0,1-1.821,2.3,8.292,8.292,0,0,0-1.04-.881v.6h-2.3v2.881h2.48Zm8.4.281a15.106,15.106,0,0,1-2.96-2.361,15.986,15.986,0,0,1-3,2.361Zm-.48,5.141v-3.841h-5v3.841Zm-4.321-12.863-.2.38a16.17,16.17,0,0,0,1.98,3,12.886,12.886,0,0,0,2.041-3.38Z"/>
            <path id="Path_569" data-name="Path 569" d="M465.643,4966.415a1.6,1.6,0,1,1,1.6,1.581A1.535,1.535,0,0,1,465.643,4966.415Zm.461-11.122-.061-2.36h2.4l-.04,2.36-.5,7.762h-1.321Z"/>
          </g>
        </g>
      </g>
      <line id="Line_480" data-name="Line 480" y2="579.425" transform="translate(352.244 4320)" fill="none" stroke="#000" stroke-miterlimit="10" stroke-width="1"/>
    </g>
  </g>
</svg>
