<svg width="543" height="67" viewBox="0 0 543 67" fill="#FADAA3" xmlns="http://www.w3.org/2000/svg">
<path d="M10.4,5.3v52.5c-0.6,6.1,5.1,5,9.4,5.1v1.4H0V63c4.3,0,9.4,0.7,8.8-5.1V2.4H0V1h19.4l35.2,47V7.3
	c0.9-5.9-5-4.9-9.1-4.9V1H65v1.4c-4.1,0-9.8-0.9-8.9,4.9V65h-1.2 M73.4,2.4H65V1h26.9v1.4h-7.7l15.5,34.9l11.5-25.2
	c4.6-9.9,2.6-9.6-5.3-9.6V1h19v1.4c-5.5,0-7.4-0.6-9.7,5c0,0-15,32.4-15,32.4V63h9.8v1.4H80.9V63h9.8V41.2 M205.3,2.4h-8.8V1h0h28.1
	v1.4h-9.8v48.1c0,19.1,36.9,19.8,36.9-4.6V8.6c0-4.9-1.6-6.1-5.6-6.1h-5.2V1h21.5v1.4h-4.2c-4,0-5,1.6-5,7.2V49
	c0,22.3-47.9,22.4-47.9,1 M271.3,2.4h-8.4V1h27.2v1.4h-9.4V32l17.5-16.4c14.1-13.3,12-13.2,0.9-13.2V1h24.3v1.4
	c-8.5,0-10.2,1.4-16.2,7.1l-18.2,17l26.8,33.3c2.2,4,6.4,3.2,10.1,3.2v1.4h-28.7V63h8.6L282,33.2l-1.2,0.9V63h9.4v1.4H263V63h8.4
	 M423.4,2.4c-16.3-0.3-22.7,1.5-22.1,17.2h-1.5V1h56.7v18.7H455c0.6-15.7-5.9-17.5-22.1-17.2V63h9.5v1.4h-28.5V63h9.5 M516.3,52.4
	L532.2,9c2.8-6.1,0-6.9-5.7-6.6V1H543v1.4c-4.9-0.3-7.4,1.7-8.9,6l-21.4,58.1h-1.2L489,2.4h-5.6V1h37.7v1.4c-4.3-0.1-8.3-0.3-9.8,5
	l-21.9,59.1h-1.2L465.3,2.4l0,0h-6.6V1h21.5v1.4h-4.9l17.6,49.9l16.4-43.9c0.8-3.5,2.4-5.7-2.9-6h-7.7"/>
<path stroke="#FADAA3" stroke-width="1.33" d="M139.8,12.8l41.3,41.3 M163.5,30.4l17.6-17.6 M139.8,54.1l17-17 M343.8,12.8l41.3,41.3 M367.6,30.4l17.6-17.6 M343.8,54.1l17-17"/>
</svg>
