<svg width="426" height="69" viewBox="0 0 426 69" fill="none" xmlns="http://www.w3.org/2000/svg">
<path d="M0.986328 28.7569L4.17819 24.3513C6.17582 26.4781 8.80316 27.8888 11.2568 27.8888C14.1446 27.8888 15.6863 26.4564 15.6863 24.2211C15.6863 21.8555 13.9926 21.1177 11.5173 19.9023L7.80435 18.0793C4.98162 16.7338 2.15887 14.1512 2.15887 9.4852C2.15887 4.25493 6.15411 0.23999 11.7779 0.23999C15.0132 0.23999 18.2485 1.71575 20.5067 4.34174L17.6839 8.35667C15.9251 6.66389 14.0795 5.73069 11.7779 5.73069C9.32426 5.73069 7.76088 6.98942 7.76088 9.09455C7.76088 11.3733 9.75853 12.198 12.1253 13.2831L15.7731 15.0627C19.1604 16.6687 21.3752 19.121 21.3752 23.7436C21.3752 28.9739 17.5753 33.4229 11.1482 33.4229C7.43518 33.4229 3.7005 31.7301 0.986328 28.7569V28.7569Z" fill="white"/>
<path d="M24.415 0.847656H29.9737V32.8152H24.415V0.847656Z" fill="white"/>
<path d="M47.9957 24.6117H38.963L37.0087 32.8152H31.3633L40.2657 0.825928H46.8014L55.7473 32.8152H49.9282L47.974 24.6117H47.9957ZM46.8014 19.6419L45.9763 16.1478C45.1078 12.8273 44.3696 9.13793 43.5444 5.68726H43.3924C42.6759 9.18134 41.8508 12.8273 41.0257 16.1478L40.2006 19.6419H46.8232H46.8014Z" fill="white"/>
<path d="M55.335 16.7121C55.335 6.29495 60.4159 0.23999 67.7767 0.23999C75.1376 0.23999 80.2185 6.33835 80.2185 16.7121C80.2185 27.0858 75.1376 33.4446 67.7767 33.4446C60.4159 33.4446 55.335 27.0858 55.335 16.7121V16.7121ZM74.5513 16.7121C74.5513 9.83243 71.924 5.73069 67.7767 5.73069C63.6295 5.73069 61.0022 9.83243 61.0022 16.7121C61.0022 23.5917 63.6295 27.9105 67.7767 27.9105C71.924 27.9105 74.5513 23.5483 74.5513 16.7121Z" fill="white"/>
<path d="M82.4329 16.9725C82.4329 6.42516 88.3823 0.23999 95.7866 0.23999C99.8035 0.23999 102.583 2.23661 104.407 4.34174L101.432 8.40008C100.086 6.88091 98.5007 5.73069 95.982 5.73069C91.357 5.73069 88.1218 9.87584 88.1218 16.7555C88.1218 23.6351 90.9011 27.9105 96.3511 27.9105C97.6974 27.9105 99.0653 27.4765 99.847 26.6952V20.3798H94.918V15.1495H104.798V29.5816C102.909 31.7084 99.6515 33.4229 95.7648 33.4229C88.1652 33.4229 82.4111 27.6284 82.4111 16.9508L82.4329 16.9725Z" fill="white"/>
<path d="M121.647 24.6117H112.614L110.66 32.8152H105.015L113.917 0.825928H120.453L129.399 32.8152H123.58L121.625 24.6117H121.647ZM120.453 19.6419L119.628 16.1478C118.759 12.8273 117.999 9.13793 117.174 5.68726H117.022C116.306 9.18134 115.48 12.8273 114.655 16.1478L113.83 19.6419H120.453V19.6419Z" fill="white"/>
<path d="M130.832 0.847656H136.521L144.599 17.884L147.378 24.8071H147.573C147.269 21.4866 146.857 17.2546 146.857 13.6086V0.847656H152.111V32.8152H146.466L138.41 15.6921L135.588 8.81242H135.392C135.653 12.2631 136.065 16.2997 136.065 19.9674V32.7935H130.811V0.847656H130.832Z" fill="white"/>
<path d="M155.738 16.9725C155.738 6.42516 161.687 0.23999 169.091 0.23999C173.108 0.23999 175.888 2.23661 177.711 4.34174L174.737 8.40008C173.391 6.88091 171.805 5.73069 169.287 5.73069C164.662 5.73069 161.426 9.87584 161.426 16.7555C161.426 23.6351 164.206 27.9105 169.656 27.9105C171.002 27.9105 172.37 27.4765 173.152 26.6952V20.3798H168.223V15.1495H178.102V29.5816C176.213 31.7084 172.956 33.4229 169.07 33.4229C161.47 33.4229 155.716 27.6284 155.716 16.9508L155.738 16.9725Z" fill="white"/>
<path d="M195.538 0.847656H212.692V6.16473H201.118V14.4984H210.998V19.8589H201.118V32.8152H195.56V0.847656H195.538Z" fill="white"/>
<path d="M213.82 16.7121C213.82 6.29495 218.901 0.23999 226.262 0.23999C233.623 0.23999 238.704 6.33835 238.704 16.7121C238.704 27.0858 233.623 33.4446 226.262 33.4446C218.901 33.4446 213.82 27.0858 213.82 16.7121V16.7121ZM233.037 16.7121C233.037 9.83243 230.409 5.73069 226.262 5.73069C222.115 5.73069 219.487 9.83243 219.487 16.7121C219.487 23.5917 222.115 27.9105 226.262 27.9105C230.409 27.9105 233.037 23.5483 233.037 16.7121Z" fill="white"/>
<path d="M257.443 32.8152L251.732 20.7053H247.867V32.8152H242.309V0.847656H252.014C257.834 0.847656 262.459 3.19151 262.459 10.5269C262.459 15.3231 260.352 18.2964 257.161 19.7287L263.675 32.8152H257.464H257.443ZM247.845 15.6487H251.45C255.033 15.6487 256.987 13.9125 256.987 10.5052C256.987 7.09794 255.033 5.8826 251.45 5.8826H247.845V15.6704V15.6487Z" fill="white"/>
<path d="M266.062 0.847656H283.129V6.16473H271.621V13.5652H281.392V18.9257H271.621V27.4765H283.542V32.8369H266.062V0.847656Z" fill="white"/>
<path d="M285.475 28.7569L288.666 24.3513C290.664 26.4781 293.291 27.8888 295.745 27.8888C298.633 27.8888 300.175 26.4564 300.175 24.2211C300.175 21.8555 298.481 21.1177 296.006 19.9023L292.293 18.0793C289.47 16.7338 286.647 14.1512 286.647 9.4852C286.647 4.25493 290.642 0.23999 296.266 0.23999C299.501 0.23999 302.737 1.71575 304.995 4.34174L302.172 8.35667C300.413 6.66389 298.568 5.73069 296.266 5.73069C293.834 5.73069 292.249 6.98942 292.249 9.09455C292.249 11.3733 294.247 12.198 296.614 13.2831L300.261 15.0627C303.649 16.6687 305.863 19.121 305.863 23.7436C305.863 28.9739 302.064 33.4229 295.636 33.4229C291.923 33.4229 288.189 31.7301 285.475 28.7569V28.7569Z" fill="white"/>
<path d="M313.572 6.16473H305.755V0.847656H327.034V6.16473H319.13V32.8152H313.572V6.16473Z" fill="white"/>
<path d="M336.327 0.847656H345.468C351.635 0.847656 356.369 3.30002 356.369 10.8741C356.369 18.4483 351.592 21.4649 345.62 21.4649H341.907V32.8369H336.349V0.847656H336.327ZM345.23 16.4082C349.073 16.4082 350.919 14.5418 350.919 10.8741C350.919 7.20645 348.899 5.90431 345.056 5.90431H341.886V16.4082H345.23V16.4082Z" fill="white"/>
<path d="M370.482 24.6117H361.449L359.495 32.8152H353.85L362.774 0.825928H369.31L378.255 32.8152H372.436L370.482 24.6117ZM369.288 19.6419L368.463 16.1478C367.594 12.8273 366.834 9.13793 366.009 5.68726H365.857C365.141 9.18134 364.315 12.8273 363.49 16.1478L362.665 19.6419H369.288V19.6419Z" fill="white"/>
<path d="M394.801 32.8152L389.091 20.7053H385.226V32.8152H379.667V0.847656H389.373C395.192 0.847656 399.817 3.19151 399.817 10.5269C399.817 15.3231 397.711 18.2964 394.519 19.7287L401.033 32.8152H394.823H394.801ZM385.204 15.6487H388.808C392.391 15.6487 394.345 13.9125 394.345 10.5052C394.345 7.09794 392.391 5.8826 388.808 5.8826H385.204V15.6704V15.6487Z" fill="white"/>
<path d="M403.422 0.847656H408.98V14.7155H409.089L418.296 0.847656H424.419L415.929 13.4133L425.939 32.8152H419.815L412.628 18.47L408.98 23.8305V32.8152H403.422V0.847656Z" fill="white"/>
<path d="M106.622 44.1005V44.2307C103.734 46.6613 101.389 51.0669 101.389 56.4491C101.389 61.8313 103.734 66.2369 106.622 68.6675V68.7978H98.5879V44.1005H106.622V44.1005Z" fill="white"/>
<path d="M131.505 46.9869V49.0703H108.489V46.9869H118.977C118.738 46.2707 118.477 45.4895 118.239 44.8167L120.714 44.2307C121.061 45.0771 121.474 46.1405 121.734 46.9652H131.505V46.9869ZM130.789 66.1501C130.789 67.322 130.507 67.7561 129.682 68.0816C128.856 68.3637 127.64 68.4071 125.882 68.3637C125.751 67.8212 125.404 67.0616 125.122 66.5407C126.229 66.5841 127.554 66.5841 127.836 66.5624C128.183 66.5624 128.314 66.4539 128.314 66.1501V59.0534H111.725V68.5808H109.314V57.0134H130.789V66.1501ZM128.096 50.3508V55.7547H112.246V50.3508H128.096ZM116.567 65.9114V67.1267H114.287V60.3339H125.491V65.9114H116.567ZM125.513 52.0653H114.678V54.0185H125.513V52.0653ZM116.567 62.1135V64.1535H123.319V62.1135H116.567Z" fill="white"/>
<path d="M140.191 50.915C139.366 55.9716 138.085 60.3121 136 63.4806C135.588 63.1334 134.524 62.3955 133.938 62.0917C135.913 59.3789 137.108 55.4507 137.846 50.9367H134.936V48.5928H138.215C138.389 47.2256 138.541 45.7932 138.628 44.3608L140.973 44.5779C140.842 45.9451 140.69 47.2907 140.517 48.5928H145.771V50.9367H140.169L140.191 50.915ZM144.316 58.7278C145.185 61.3321 146.119 64.6743 146.488 66.9096L144.512 67.6258C144.425 67.0398 144.295 66.4321 144.164 65.7594C138.91 66.7143 138.063 66.9313 137.564 67.2351C137.455 66.7794 137.086 65.6943 136.804 65.1517C137.303 64.9998 137.694 64.2185 138.237 63.09C138.801 62.0049 140.43 57.6427 141.19 53.7146L143.513 54.2571C142.579 57.7946 141.211 61.5057 139.8 64.4789L143.73 63.8279C143.361 62.287 142.905 60.7244 142.514 59.3355L144.338 58.7278H144.316ZM158.343 67.2568H149.376V68.559H147.204V53.1286C146.661 54.0618 146.075 54.9299 145.467 55.6461C145.207 55.1686 144.49 54.1703 144.034 53.7146C145.988 51.4358 147.66 47.9634 148.659 44.5128L150.744 45.077C150.288 46.5094 149.767 47.9634 149.159 49.3307H158.061V51.5009H154.804V54.6478H157.974V56.7312H154.804V59.8563H157.996V61.9398H154.804V65.1083H158.343V67.3219V67.2568ZM149.376 51.4575V54.6044H152.589V51.4575H149.376ZM152.589 56.6878H149.376V59.8129H152.589V56.6878ZM149.376 65.0649H152.589V61.8963H149.376V65.0649ZM153.566 44.7081C154.261 45.88 155.021 47.4426 155.347 48.4626L153.154 49.2873C152.872 48.2239 152.133 46.6396 151.482 45.4026L153.566 44.7081Z" fill="white"/>
<path d="M167.919 68.7978H159.885V68.6675C162.773 66.2369 165.118 61.8313 165.118 56.4491C165.118 51.0669 162.773 46.6613 159.885 44.2307V44.1005H167.919V68.7978V68.7978Z" fill="white"/>
<path d="M180.794 51.2622C179.926 55.1253 178.449 59.8998 176.148 62.8296C175.54 62.3739 174.454 61.7662 173.803 61.5275C176.017 58.793 177.429 54.2355 178.037 50.7631L180.816 51.2622H180.794ZM187.526 44.7081V65.3254C187.526 66.9531 187.113 67.6692 186.071 68.1033C185.007 68.4939 183.335 68.5807 180.816 68.559C180.664 67.8645 180.23 66.7143 179.839 65.9981C181.641 66.085 183.552 66.085 184.117 66.0416C184.659 66.0198 184.855 65.8462 184.855 65.3254V44.7081H187.526V44.7081ZM193.54 50.5461C195.777 54.2138 197.948 59.01 198.599 62.2219L195.929 63.2853C195.364 60.1602 193.28 55.2555 191.152 51.4576L193.519 50.5678L193.54 50.5461Z" fill="white"/>
<path d="M204.592 56.3188C203.637 55.5593 201.769 54.3873 200.314 53.6712L201.682 51.935C203.115 52.5426 205.026 53.606 206.047 54.3439L204.592 56.3188V56.3188ZM212.756 62.9381V65.1083C212.756 66.0415 213.017 66.2151 214.602 66.2151H219.965C221.268 66.2151 221.463 65.8028 221.637 63.3721C222.136 63.7193 223.027 64.0232 223.613 64.1534C223.287 67.3436 222.657 68.19 220.139 68.19H214.493C211.475 68.19 210.628 67.6041 210.628 65.13V58.8797C209.781 59.9431 208.804 60.8546 207.849 61.5708C207.523 61.0934 206.915 60.3989 206.459 59.9865C205.482 62.5691 204.245 65.4772 203.137 67.8428L200.944 66.4538C202.008 64.5006 203.485 61.3104 204.57 58.4457L206.264 59.6827C208.066 58.4891 209.89 56.3622 210.954 54.192H206.568V51.9784H211.019V49.3741H207.632V47.1821H211.019V44.3608H213.386V47.1821H217.881V44.3608H220.291V47.1821H223.982V49.3741H220.291V51.9784H224.72V54.192H220.291C221.376 56.1669 223.135 58.0767 224.937 59.0967C224.395 59.5525 223.591 60.4206 223.222 61.0066C222.245 60.3772 221.29 59.4657 220.443 58.4457V62.9381H212.756V62.9381ZM205.808 49.3524C204.939 48.5277 203.137 47.3558 201.769 46.5528L203.246 44.86C204.592 45.5545 206.416 46.6613 207.306 47.4426L205.808 49.3524ZM213.408 54.2137C213.038 55.0818 212.561 55.9933 212.061 56.818H219.27C218.749 55.9933 218.271 55.0818 217.881 54.2137H213.429H213.408ZM218.467 58.641H212.734V61.1151H218.467V58.641ZM213.364 52.0001H217.859V49.3958H213.364V52.0001Z" fill="white"/>
<path d="M236.62 64.1317C236.099 63.6543 235.122 62.873 234.166 62.0917V68.3203H231.843V62.6343C230.649 64.262 229.237 65.7811 227.761 66.736C227.544 66.0849 227.066 65.1083 226.74 64.5007C228.564 63.4807 230.453 61.6143 231.669 59.7262H227.63V57.5776H231.865V54.9082H234.188V57.5776H238.205V59.7262H234.188V59.9215C235.252 60.5291 237.814 62.3521 238.465 62.873L236.642 64.1317H236.62ZM237.684 49.8733C235.274 52.521 231.799 54.6478 228.369 55.8414C228.021 55.2338 227.305 54.3657 226.827 53.8882C230.041 52.9984 233.319 51.2188 235.512 49.1137H227.978V46.9435H237.662V44.2958H240.094V46.9435H249.865V49.1137H242.2C245.023 50.481 249.279 52.6078 250.408 53.2806L249.604 55.581C247.65 54.3223 242.786 51.4576 240.072 50.0035V55.9065H237.64V49.8516L237.684 49.8733ZM245.783 59.7913C247.238 61.7445 249.474 63.7411 251.385 64.8262C250.842 65.3037 250.039 66.1501 249.648 66.7577C248.302 65.6943 246.738 64.0883 245.479 62.3304V68.559H243.156V62.4607C241.679 64.2837 239.855 65.8462 238.118 66.8662C237.792 66.302 237.119 65.5207 236.62 65.0866C238.921 64.0015 241.332 61.9398 242.808 59.7913H239.117V57.6644H243.177V54.9299H245.501V57.6644H250.408V59.7913H245.805H245.783Z" fill="white"/>
<path d="M263.11 59.4874C262.546 58.5542 261.482 57.0134 260.526 55.7112V68.5156H258.116V56.7095C257.052 59.5091 255.706 62.2002 254.251 63.893C253.99 63.1768 253.383 62.1568 252.948 61.5492C254.881 59.3789 256.748 55.6461 257.703 52.2171H253.643V49.895H258.116V44.3175H260.526V49.895H264.109V52.2171H260.526V52.738C261.373 53.541 264.065 56.6444 264.673 57.3823L263.11 59.4874V59.4874ZM272.686 52.1954C273.858 56.1019 275.726 60.0517 277.745 62.3087C277.159 62.7428 276.312 63.5675 275.878 64.2402C274.444 62.3738 273.163 59.5525 272.099 56.5359V68.5156H269.646V56.6878C268.3 59.8998 266.541 62.8947 264.63 64.7828C264.348 64.0666 263.675 63.1551 263.197 62.5475C265.672 60.2036 267.974 56.167 269.19 52.1954H265.086V49.8733H269.624V44.2958H272.078V49.8733H276.92V52.1954H272.664H272.686Z" fill="white"/>
<path d="M289.449 45.9018C287.581 50.1988 284.585 54.5393 281.675 57.187C281.263 56.6878 280.134 55.6678 279.504 55.147C282.392 52.7814 285.128 48.9184 286.734 45.0337L289.427 45.8801L289.449 45.9018ZM296.875 58.2287C298.981 61.0717 301.478 64.7828 302.715 67.1484L300.24 68.4939C299.871 67.7343 299.415 66.8879 298.85 65.933C285.627 66.9096 284.042 67.0182 282.869 67.4739C282.761 66.9096 282.261 65.5424 281.892 64.8262C282.674 64.6092 283.391 63.8279 284.433 62.6126C285.518 61.4407 288.862 56.8615 290.99 52.4559L293.835 53.6278C291.663 57.4908 289.036 61.3104 286.387 64.3488L297.461 63.6977C296.484 62.1568 295.463 60.6377 294.53 59.3138L296.896 58.2504L296.875 58.2287ZM297.374 45.012C298.59 48.9618 301.13 52.8248 304.257 54.778C303.671 55.3206 302.802 56.4491 302.346 57.2087C299.372 54.9733 296.94 51.2622 295.485 47.5294H290.882V45.012H297.352H297.374Z" fill="white"/>
<path d="M329.228 45.446V68.5591H326.817V67.539H309.49V68.5591H307.188V45.446H329.206H329.228ZM326.817 65.3254V47.6597H309.49V65.3254H326.817ZM319.131 61.9181C319.087 62.3305 319.087 63.0467 319.152 63.4156C314.462 64.6743 313.746 64.8697 313.312 65.1518C313.203 64.7394 312.942 64.045 312.704 63.7628C313.094 63.6109 313.659 63.3071 313.659 62.3305V60.833C312.812 61.1586 311.965 61.4407 311.14 61.6794C310.923 61.3105 310.293 60.5943 309.946 60.2471C311.813 59.8347 313.941 59.1402 315.526 58.3372H312.139V54.5176H324.277V58.3372H318.284C317.481 58.9666 316.525 59.5309 315.461 60.03V62.7428L319.109 61.8964L319.131 61.9181ZM325.688 53.6278H310.641V52.1738H317.003V50.8065H312.031V49.3742H317.003V48.072H319.218V49.3742H324.451V50.8065H319.218V52.1738H325.688V53.6278ZM314.224 57.187H322.149V55.7113H314.224V57.187ZM325.797 59.7479C324.95 60.3556 324.038 60.9198 323.148 61.3539C324.212 62.0918 325.189 62.8079 325.884 63.4156L324.277 64.3922C322.822 63.0901 319.891 61.0066 317.546 59.6394L319.044 58.7713C319.891 59.2704 320.868 59.8564 321.78 60.4641C322.67 59.9432 323.625 59.2922 324.233 58.793L325.775 59.7479H325.797Z" fill="white"/>
</svg>
