<svg width="417" height="446" viewBox="0 0 417 446" fill="none" xmlns="http://www.w3.org/2000/svg">
<path d="M307.494 113.982H206.504V215.046H307.494V113.982Z" fill="#82BF25"/>
<path d="M416.927 113.982H315.938V215.046H416.927V113.982Z" fill="#FFE000"/>
<path d="M416.92 226.533H206.504V445.902H416.92V226.533Z" fill="#00B3ED"/>
<path d="M311.7 106.066H206.504L259.117 51.7547L307.464 1.801C309.804 -0.600334 313.596 -0.600334 315.937 1.801L364.313 51.7547L416.926 106.066H311.73H311.7Z" fill="#EE88A5"/>
<path d="M304.501 164.855C304.501 190.913 283.379 212.022 257.369 212.022C231.359 212.022 210.236 190.884 210.236 164.855C210.236 138.825 231.359 117.688 257.369 117.688C283.379 117.688 304.501 138.825 304.501 164.855Z" fill="#FFE000"/>
<path d="M195 305H0V446H195V305Z" fill="#F4A000"/>
</svg>
