<?xml version="1.0" encoding="utf-8"?>
<!-- Generator: Adobe Illustrator 26.0.2, SVG Export Plug-In . SVG Version: 6.00 Build 0)  -->
<svg version="1.1" id="圖層_1" xmlns="http://www.w3.org/2000/svg" xmlns:xlink="http://www.w3.org/1999/xlink" x="0px" y="0px"
	 viewBox="0 0 1920 2170" style="enable-background:new 0 0 1920 2170;" xml:space="preserve">
<style type="text/css">
	.st0{fill:url(#SVGID_1_);}
</style>
<g>
	<linearGradient id="SVGID_1_" gradientUnits="userSpaceOnUse" x1="46.7979" y1="130.6116" x2="2220.5852" y2="2387.1223">
		<stop  offset="0" style="stop-color:#163E46"/>
		<stop  offset="1" style="stop-color:#0C7049"/>
	</linearGradient>
	<path class="st0" d="M1,0c639.7,0,1279.3,0,1919,0c0,701.7,0,1403.4,0,2105c-22.5,4-44.9,8.2-67.5,12c-19.9,3.3-39.8,6.3-59.8,9.2
		c-27.9,4-55.8,8.1-83.7,11.6c-25.1,3.1-50.3,5.8-75.4,8.3c-34.1,3.4-68.3,6.7-102.5,9.6c-21.8,1.8-43.6,3-65.4,4
		c-24.5,1.2-49.1,2.9-73.7,2.9c-50.9,0-101.8-0.5-152.7-1.7c-25.5-0.6-51-3-76.4-4.8c-26.3-1.9-52.6-3.9-78.9-6
		c-32.4-2.6-64.7-5.4-97-7.9c-19.2-1.5-38.4-2.8-57.5-4.2c-20.7-1.6-41.3-3.2-62-4.9c-10.1-0.8-20.2-1.5-30.2-2.4
		c-21.6-1.8-43.3-3.8-64.9-5.5c-14.2-1.2-28.4-2-42.6-3.1c-18.5-1.5-36.9-3.4-55.3-4.8c-12.2-1-24.4-1.4-36.6-2.2
		c-23.7-1.6-47.3-3.4-71-4.9c-15.7-1-31.5-1.5-47.2-2.2c-24.7-1-49.5-2.9-74.2-2.8c-33.6,0.1-67.1,1.7-100.6,2.9
		c-12.2,0.4-24.3,1-36.4,2.4c-34.2,3.7-68.4,7.5-102.5,11.9c-24.5,3.1-48.9,6.8-73.2,11.1c-35.8,6.2-71.6,13.1-107.3,19.9
		c-7.9,1.5-15.7,3.4-24.2,5.2c0-3.7,0-6.6,0-9.6c0-342.1,0-684.3,0-1026.4c0-332.1,0-664.3,0-996.4C1.1,83.9,1,42,1,0z"/>
</g>
<g>
	<defs>
		<path id="SVGID_00000037661443033606342630000017267088289385167031_" d="M0.5,3.7c639.7,0,1279.3,0,1919,0
			c0,701.7,0,1403.4,0,2105c-22.5,4-44.9,8.2-67.5,12c-19.9,3.3-39.8,6.3-59.8,9.2c-27.9,4-55.8,8.1-83.7,11.6
			c-25.1,3.1-50.3,5.8-75.4,8.3c-34.1,3.4-68.3,6.7-102.5,9.6c-21.8,1.8-43.6,3-65.4,4c-24.5,1.2-49.1,2.9-73.7,2.9
			c-50.9,0-101.8-0.5-152.7-1.7c-25.5-0.6-51-3-76.4-4.8c-26.3-1.9-52.6-3.9-78.9-6c-32.4-2.6-64.7-5.4-97-7.9
			c-19.2-1.5-38.4-2.8-57.5-4.2c-20.7-1.6-41.3-3.2-62-4.9c-10.1-0.8-20.2-1.5-30.2-2.4c-21.6-1.8-43.3-3.8-64.9-5.5
			c-14.2-1.2-28.4-2-42.6-3.1c-18.5-1.5-36.9-3.4-55.3-4.8c-12.2-1-24.4-1.4-36.6-2.2c-23.7-1.6-47.3-3.4-71-4.9
			c-15.7-1-31.5-1.5-47.2-2.2c-24.7-1-49.5-2.9-74.2-2.8c-33.6,0.1-67.1,1.7-100.6,2.9c-12.2,0.4-24.3,1-36.4,2.4
			c-34.2,3.7-68.4,7.5-102.5,11.9c-24.5,3.1-48.9,6.8-73.2,11.1c-35.8,6.2-71.6,13.1-107.3,19.9c-7.9,1.5-15.7,3.4-24.2,5.2
			c0-3.7,0-6.6,0-9.6c0-342.1,0-684.3,0-1026.4c0-332.1,0-664.3,0-996.4C0.6,87.6,0.5,45.7,0.5,3.7z"/>
	</defs>
	<clipPath id="SVGID_00000146474070300842316090000008670330720843458195_">
		<use xlink:href="#SVGID_00000037661443033606342630000017267088289385167031_"  style="overflow:visible;"/>
	</clipPath>
	<g style="clip-path:url(#SVGID_00000146474070300842316090000008670330720843458195_);">
		<image style="overflow:visible;" width="300" height="300" xlink:href="point.png"  transform="matrix(1 0 0 1 -90 -69.0213)">
		</image>
	</g>
	<g style="clip-path:url(#SVGID_00000146474070300842316090000008670330720843458195_);">
		<image style="overflow:visible;" width="300" height="300" xlink:href="point.png"  transform="matrix(1 0 0 1 210 -69.0213)">
		</image>
	</g>
	<g style="clip-path:url(#SVGID_00000146474070300842316090000008670330720843458195_);">
		<image style="overflow:visible;" width="300" height="300" xlink:href="point.png"  transform="matrix(1 0 0 1 510 -69.0213)">
		</image>
	</g>
	<g style="clip-path:url(#SVGID_00000146474070300842316090000008670330720843458195_);">
		<image style="overflow:visible;" width="300" height="300" xlink:href="point.png"  transform="matrix(1 0 0 1 810 -69.0213)">
		</image>
	</g>
	<g style="clip-path:url(#SVGID_00000146474070300842316090000008670330720843458195_);">
		<image style="overflow:visible;" width="300" height="300" xlink:href="point.png"  transform="matrix(1 0 0 1 1110 -69.0213)">
		</image>
	</g>
	<g style="clip-path:url(#SVGID_00000146474070300842316090000008670330720843458195_);">
		<image style="overflow:visible;" width="300" height="300" xlink:href="point.png"  transform="matrix(1 0 0 1 1410 -69.0213)">
		</image>
	</g>
	<g style="clip-path:url(#SVGID_00000146474070300842316090000008670330720843458195_);">
		<image style="overflow:visible;" width="300" height="300" xlink:href="point.png"  transform="matrix(1 0 0 1 1710 -69.0213)">
		</image>
	</g>
	<g style="clip-path:url(#SVGID_00000146474070300842316090000008670330720843458195_);">
		<image style="overflow:visible;" width="300" height="300" xlink:href="point.png"  transform="matrix(1 0 0 1 -90 230.9787)">
		</image>
	</g>
	<g style="clip-path:url(#SVGID_00000146474070300842316090000008670330720843458195_);">
		<image style="overflow:visible;" width="300" height="300" xlink:href="point.png"  transform="matrix(1 0 0 1 210 230.9787)">
		</image>
	</g>
	<g style="clip-path:url(#SVGID_00000146474070300842316090000008670330720843458195_);">
		<image style="overflow:visible;" width="300" height="300" xlink:href="point.png"  transform="matrix(1 0 0 1 510 230.9787)">
		</image>
	</g>
	<g style="clip-path:url(#SVGID_00000146474070300842316090000008670330720843458195_);">
		<image style="overflow:visible;" width="300" height="300" xlink:href="point.png"  transform="matrix(1 0 0 1 810 230.9787)">
		</image>
	</g>
	<g style="clip-path:url(#SVGID_00000146474070300842316090000008670330720843458195_);">
		<image style="overflow:visible;" width="300" height="300" xlink:href="point.png"  transform="matrix(1 0 0 1 1110 230.9787)">
		</image>
	</g>
	<g style="clip-path:url(#SVGID_00000146474070300842316090000008670330720843458195_);">
		<image style="overflow:visible;" width="300" height="300" xlink:href="point.png"  transform="matrix(1 0 0 1 1410 230.9787)">
		</image>
	</g>
	<g style="clip-path:url(#SVGID_00000146474070300842316090000008670330720843458195_);">
		<image style="overflow:visible;" width="300" height="300" xlink:href="point.png"  transform="matrix(1 0 0 1 1710 230.9787)">
		</image>
	</g>
	<g style="clip-path:url(#SVGID_00000146474070300842316090000008670330720843458195_);">
		<image style="overflow:visible;" width="300" height="300" xlink:href="point.png"  transform="matrix(1 0 0 1 -90 530.9787)">
		</image>
	</g>
	<g style="clip-path:url(#SVGID_00000146474070300842316090000008670330720843458195_);">
		<image style="overflow:visible;" width="300" height="300" xlink:href="point.png"  transform="matrix(1 0 0 1 210 530.9787)">
		</image>
	</g>
	<g style="clip-path:url(#SVGID_00000146474070300842316090000008670330720843458195_);">
		<image style="overflow:visible;" width="300" height="300" xlink:href="point.png"  transform="matrix(1 0 0 1 510 530.9787)">
		</image>
	</g>
	<g style="clip-path:url(#SVGID_00000146474070300842316090000008670330720843458195_);">
		<image style="overflow:visible;" width="300" height="300" xlink:href="point.png"  transform="matrix(1 0 0 1 810 530.9787)">
		</image>
	</g>
	<g style="clip-path:url(#SVGID_00000146474070300842316090000008670330720843458195_);">
		<image style="overflow:visible;" width="300" height="300" xlink:href="point.png"  transform="matrix(1 0 0 1 1110 530.9787)">
		</image>
	</g>
	<g style="clip-path:url(#SVGID_00000146474070300842316090000008670330720843458195_);">
		<image style="overflow:visible;" width="300" height="300" xlink:href="point.png"  transform="matrix(1 0 0 1 1410 530.9787)">
		</image>
	</g>
	<g style="clip-path:url(#SVGID_00000146474070300842316090000008670330720843458195_);">
		<image style="overflow:visible;" width="300" height="300" xlink:href="point.png"  transform="matrix(1 0 0 1 1710 530.9787)">
		</image>
	</g>
	<g style="clip-path:url(#SVGID_00000146474070300842316090000008670330720843458195_);">
		<image style="overflow:visible;" width="300" height="300" xlink:href="point.png"  transform="matrix(1 0 0 1 -90 830.9787)">
		</image>
	</g>
	<g style="clip-path:url(#SVGID_00000146474070300842316090000008670330720843458195_);">
		<image style="overflow:visible;" width="300" height="300" xlink:href="point.png"  transform="matrix(1 0 0 1 210 830.9787)">
		</image>
	</g>
	<g style="clip-path:url(#SVGID_00000146474070300842316090000008670330720843458195_);">
		<image style="overflow:visible;" width="300" height="300" xlink:href="point.png"  transform="matrix(1 0 0 1 510 830.9787)">
		</image>
	</g>
	<g style="clip-path:url(#SVGID_00000146474070300842316090000008670330720843458195_);">
		<image style="overflow:visible;" width="300" height="300" xlink:href="point.png"  transform="matrix(1 0 0 1 810 830.9787)">
		</image>
	</g>
	<g style="clip-path:url(#SVGID_00000146474070300842316090000008670330720843458195_);">
		<image style="overflow:visible;" width="300" height="300" xlink:href="point.png"  transform="matrix(1 0 0 1 1110 830.9787)">
		</image>
	</g>
	<g style="clip-path:url(#SVGID_00000146474070300842316090000008670330720843458195_);">
		<image style="overflow:visible;" width="300" height="300" xlink:href="point.png"  transform="matrix(1 0 0 1 1410 830.9787)">
		</image>
	</g>
	<g style="clip-path:url(#SVGID_00000146474070300842316090000008670330720843458195_);">
		<image style="overflow:visible;" width="300" height="300" xlink:href="point.png"  transform="matrix(1 0 0 1 1710 830.9787)">
		</image>
	</g>
	<g style="clip-path:url(#SVGID_00000146474070300842316090000008670330720843458195_);">
		<image style="overflow:visible;" width="300" height="300" xlink:href="point.png"  transform="matrix(1 0 0 1 -90 1130.9788)">
		</image>
	</g>
	<g style="clip-path:url(#SVGID_00000146474070300842316090000008670330720843458195_);">
		<image style="overflow:visible;" width="300" height="300" xlink:href="point.png"  transform="matrix(1 0 0 1 210 1130.9788)">
		</image>
	</g>
	<g style="clip-path:url(#SVGID_00000146474070300842316090000008670330720843458195_);">
		<image style="overflow:visible;" width="300" height="300" xlink:href="point.png"  transform="matrix(1 0 0 1 510 1130.9788)">
		</image>
	</g>
	<g style="clip-path:url(#SVGID_00000146474070300842316090000008670330720843458195_);">
		<image style="overflow:visible;" width="300" height="300" xlink:href="point.png"  transform="matrix(1 0 0 1 810 1130.9788)">
		</image>
	</g>
	<g style="clip-path:url(#SVGID_00000146474070300842316090000008670330720843458195_);">
		<image style="overflow:visible;" width="300" height="300" xlink:href="point.png"  transform="matrix(1 0 0 1 1110 1130.9788)">
		</image>
	</g>
	<g style="clip-path:url(#SVGID_00000146474070300842316090000008670330720843458195_);">
		<image style="overflow:visible;" width="300" height="300" xlink:href="point.png"  transform="matrix(1 0 0 1 1410 1130.9788)">
		</image>
	</g>
	<g style="clip-path:url(#SVGID_00000146474070300842316090000008670330720843458195_);">
		<image style="overflow:visible;" width="300" height="300" xlink:href="point.png"  transform="matrix(1 0 0 1 1710 1130.9788)">
		</image>
	</g>
	<g style="clip-path:url(#SVGID_00000146474070300842316090000008670330720843458195_);">
		<image style="overflow:visible;" width="300" height="300" xlink:href="point.png"  transform="matrix(1 0 0 1 -90 1430.9788)">
		</image>
	</g>
	<g style="clip-path:url(#SVGID_00000146474070300842316090000008670330720843458195_);">
		<image style="overflow:visible;" width="300" height="300" xlink:href="point.png"  transform="matrix(1 0 0 1 210 1430.9788)">
		</image>
	</g>
	<g style="clip-path:url(#SVGID_00000146474070300842316090000008670330720843458195_);">
		<image style="overflow:visible;" width="300" height="300" xlink:href="point.png"  transform="matrix(1 0 0 1 510 1430.9788)">
		</image>
	</g>
	<g style="clip-path:url(#SVGID_00000146474070300842316090000008670330720843458195_);">
		<image style="overflow:visible;" width="300" height="300" xlink:href="point.png"  transform="matrix(1 0 0 1 810 1430.9788)">
		</image>
	</g>
	<g style="clip-path:url(#SVGID_00000146474070300842316090000008670330720843458195_);">
		<image style="overflow:visible;" width="300" height="300" xlink:href="point.png"  transform="matrix(1 0 0 1 1110 1430.9788)">
		</image>
	</g>
	<g style="clip-path:url(#SVGID_00000146474070300842316090000008670330720843458195_);">
		<image style="overflow:visible;" width="300" height="300" xlink:href="point.png"  transform="matrix(1 0 0 1 1410 1430.9788)">
		</image>
	</g>
	<g style="clip-path:url(#SVGID_00000146474070300842316090000008670330720843458195_);">
		<image style="overflow:visible;" width="300" height="300" xlink:href="point.png"  transform="matrix(1 0 0 1 1710 1430.9788)">
		</image>
	</g>
	<g style="clip-path:url(#SVGID_00000146474070300842316090000008670330720843458195_);">
		<image style="overflow:visible;" width="300" height="300" xlink:href="point.png"  transform="matrix(1 0 0 1 -90 1730.9788)">
		</image>
	</g>
	<g style="clip-path:url(#SVGID_00000146474070300842316090000008670330720843458195_);">
		<image style="overflow:visible;" width="300" height="300" xlink:href="point.png"  transform="matrix(1 0 0 1 210 1730.9788)">
		</image>
	</g>
	<g style="clip-path:url(#SVGID_00000146474070300842316090000008670330720843458195_);">
		<image style="overflow:visible;" width="300" height="300" xlink:href="point.png"  transform="matrix(1 0 0 1 510 1730.9788)">
		</image>
	</g>
	<g style="clip-path:url(#SVGID_00000146474070300842316090000008670330720843458195_);">
		<image style="overflow:visible;" width="300" height="300" xlink:href="point.png"  transform="matrix(1 0 0 1 810 1730.9788)">
		</image>
	</g>
	<g style="clip-path:url(#SVGID_00000146474070300842316090000008670330720843458195_);">
		<image style="overflow:visible;" width="300" height="300" xlink:href="point.png"  transform="matrix(1 0 0 1 1110 1730.9788)">
		</image>
	</g>
	<g style="clip-path:url(#SVGID_00000146474070300842316090000008670330720843458195_);">
		<image style="overflow:visible;" width="300" height="300" xlink:href="point.png"  transform="matrix(1 0 0 1 1410 1730.9788)">
		</image>
	</g>
	<g style="clip-path:url(#SVGID_00000146474070300842316090000008670330720843458195_);">
		<image style="overflow:visible;" width="300" height="300" xlink:href="point.png"  transform="matrix(1 0 0 1 1710 1730.9788)">
		</image>
	</g>
	<g style="clip-path:url(#SVGID_00000146474070300842316090000008670330720843458195_);">
		<image style="overflow:visible;" width="300" height="300" xlink:href="point.png"  transform="matrix(1 0 0 1 -90 2030.9788)">
		</image>
	</g>
	<g style="clip-path:url(#SVGID_00000146474070300842316090000008670330720843458195_);">
		<image style="overflow:visible;" width="300" height="300" xlink:href="point.png"  transform="matrix(1 0 0 1 210 2030.9788)">
		</image>
	</g>
	<g style="clip-path:url(#SVGID_00000146474070300842316090000008670330720843458195_);">
		<image style="overflow:visible;" width="300" height="300" xlink:href="point.png"  transform="matrix(1 0 0 1 510 2030.9788)">
		</image>
	</g>
	<g style="clip-path:url(#SVGID_00000146474070300842316090000008670330720843458195_);">
		<image style="overflow:visible;" width="300" height="300" xlink:href="point.png"  transform="matrix(1 0 0 1 810 2030.9788)">
		</image>
	</g>
	<g style="clip-path:url(#SVGID_00000146474070300842316090000008670330720843458195_);">
		<image style="overflow:visible;" width="300" height="300" xlink:href="point.png"  transform="matrix(1 0 0 1 1110 2030.9788)">
		</image>
	</g>
	<g style="clip-path:url(#SVGID_00000146474070300842316090000008670330720843458195_);">
		<image style="overflow:visible;" width="300" height="300" xlink:href="point.png"  transform="matrix(1 0 0 1 1410 2030.9788)">
		</image>
	</g>
	<g style="clip-path:url(#SVGID_00000146474070300842316090000008670330720843458195_);">
		<image style="overflow:visible;" width="300" height="300" xlink:href="point.png"  transform="matrix(1 0 0 1 1710 2030.9788)">
		</image>
	</g>
</g>
<image style="overflow:visible;" width="1920" height="2170" xlink:href="bg2.png"  transform="matrix(1 0 0 1 5285.1064 1216.3405)">
</image>
</svg>
