<svg xmlns="http://www.w3.org/2000/svg" width="99.156" height="101.076" viewBox="0 0 99.156 101.076"><g transform="translate(-3023.844 -4759.672)"><path d="M3064.1,4788.613a5.689,5.689,0,0,0-3.778-.456v22.326h6.742v-17.922s.155-2.5-2.964-3.948" fill="#846134"/><path d="M3061.706,4772.805c-8.7-1.431-11.617,6.782-8.455,10.926,2.45,3.154,5.829,2.488,9.178,2.867,3.062.324,5.932,2.078,5.932,5.451,0,5.516.058,16.834.058,18.434h2.223v-25.677s.483-10.446-8.936-12" fill="#846134"/><path d="M3082.707,4767.585c0-6.769-7.071-7.894-9.191-7.913h-.145c-2.168.019-9.24,1.144-9.24,7.913,0,6.067,8.058,6.373,8.058,15.124v27.774h2.442v-27.774c0-8.751,8.076-9.057,8.076-15.124" fill="#846134"/><path d="M3085.138,4772.805c-9.388,1.555-8.931,12-8.931,12v25.677h2.228c0-1.6.038-12.918.038-18.434,0-3.373,2.89-5.127,5.957-5.451,3.351-.379,6.712.287,9.152-2.867,3.184-4.144.256-12.357-8.444-10.926" fill="#846134"/><path d="M3082.767,4788.613c-3.1,1.444-2.983,3.948-2.983,3.948v17.922h6.757v-22.326a5.68,5.68,0,0,0-3.774.456" fill="#846134"/><path d="M3056.282,4817.076v8.455h-8.373v-8.455h-2.983v19.84h2.983v-8.6h8.373v8.6h2.972v-19.84Z" fill="#846134"/><path d="M3072.324,4817.076v12.031a7.24,7.24,0,0,1-.978,4.224,3.321,3.321,0,0,1-2.9,1.25,3.888,3.888,0,0,1-2.047-.536,3.418,3.418,0,0,1-1.362-1.479,3.745,3.745,0,0,1-.34-1.077,13.038,13.038,0,0,1-.11-1.995v-12.418h-2.971v12.483c0,2.6.566,4.564,1.686,5.825,1.137,1.283,2.914,1.934,5.28,1.934a6.279,6.279,0,0,0,5.038-1.981,8.791,8.791,0,0,0,1.646-5.778v-12.483Z" fill="#846134"/><path d="M3090.53,4817.076l.215,15.341-10.03-15.341h-3.135v19.84h2.952l-.2-15.365,10.034,15.365h3.134v-19.84Z" fill="#846134"/><path d="M3106.985,4819.916v-2.84H3096.19v19.84h2.942v-8.531h7.853v-2.854h-7.853v-5.615Z" fill="#846134"/><path d="M3120.057,4817.076v12.031a7.256,7.256,0,0,1-.977,4.224,3.327,3.327,0,0,1-2.9,1.25,3.885,3.885,0,0,1-2.046-.536,3.448,3.448,0,0,1-1.364-1.479,3.776,3.776,0,0,1-.34-1.077,13.362,13.362,0,0,1-.109-1.995v-12.418h-2.97v12.483c0,2.6.564,4.564,1.684,5.825,1.138,1.283,2.914,1.934,5.282,1.934a6.272,6.272,0,0,0,5.036-1.981,8.773,8.773,0,0,0,1.645-5.778v-12.483Z" fill="#846134"/><path d="M3039.33,4832.217a7.026,7.026,0,0,1-1.986,1.537,7.256,7.256,0,0,1-3.34.762,6.718,6.718,0,0,1-5.084-2.191,7.583,7.583,0,0,1-2.1-5.419,7.173,7.173,0,0,1,2.115-5.2,6.748,6.748,0,0,1,5.073-2.178,6.738,6.738,0,0,1,5.265,2.247h3.634a10.358,10.358,0,0,0-12.726-4.345,9.871,9.871,0,0,0-3.209,2.142,10.4,10.4,0,0,0-2.328,3.359,10.015,10.015,0,0,0-.8,3.948,10.178,10.178,0,0,0,2.944,7.429,10.1,10.1,0,0,0,16.078-2.092Z" fill="#846134"/><text transform="translate(3036.461 4856.748)" fill="#846134" font-size="14.859" font-family="NotoSansTC-Medium, Noto Sans TC" font-weight="500" letter-spacing="0.29em"><tspan x="0" y="0">春福機構</tspan></text></g></svg>