<svg xmlns="http://www.w3.org/2000/svg" width="308.077" height="115.16" viewBox="0 0 308.077 115.16"><g transform="translate(-800.134 -4874.047)"><text transform="translate(1037.211 4960.535)" fill="#fff" font-size="34.123" font-family="NotoSerifCJKtc-Bold, Noto Serif CJK TC" font-weight="700" letter-spacing="0.04em"><tspan x="-70.293" y="0">不斷超越</tspan></text><g transform="translate(-2119)"><path d="M2936.38,4927.372c1.7,2.062,4.957,3.092,7.72,3.428l-.052.36a3.87,3.87,0,0,0-2.169,2.783,11.571,11.571,0,0,1-3.77-2.757h-.051v8.479a4.683,4.683,0,0,1-2.66.851h-.567v-1.624h-6.48v.8c0,.233-.955.928-2.557.928h-.594v-9.381a21.453,21.453,0,0,1-5.653,3.2l-.207-.233a19.732,19.732,0,0,0,6.454-6.829h-5.809l-.206-.748h6.428a25.1,25.1,0,0,0,1.162-2.706h-5.215l-.18-.747h5.653c.284-.851.517-1.727.724-2.6H2921.1l-.207-.747h7.616a33.333,33.333,0,0,0,.516-3.427l4.389.748c-.077.385-.387.643-1.007.643-.129.7-.257,1.366-.438,2.036h6.041l1.652-2.061s1.833,1.391,3,2.4c-.077.284-.361.412-.749.412h-10.12a19.058,19.058,0,0,1-.826,2.6h5.706l1.549-1.933s1.756,1.34,2.814,2.268c-.078.283-.336.412-.7.412h-9.656a22.192,22.192,0,0,1-1.4,2.706h9.579l1.73-2.139s1.936,1.444,3.1,2.474c-.052.284-.336.413-.724.413Zm.206,1.8a16.928,16.928,0,0,1-.929-1.8h-6.868a15.9,15.9,0,0,1-1.781,2.191l1.678.618h5.964l1.369-1.444Zm-8.235,4.871h6.48V4930.9h-6.48Zm6.48,4.123v-3.376h-6.48v3.376Z" fill="#fff"/><path d="M2926.956,4958.583a9.706,9.706,0,0,0-1.136-3.195v11.056a2.747,2.747,0,0,1-2.349.928h-.491v-10.077a24.8,24.8,0,0,1-3.615,2.552l-.231-.233a26.333,26.333,0,0,0,6.479-10.051h-5.653l-.232-.748h5.808l1.627-1.545,2.659,2.551c-.232.232-.516.309-1.162.386a22.132,22.132,0,0,1-2.84,4.253C2931.062,4956.548,2928.893,4960.284,2926.956,4958.583Zm-4.621-15.309c6.79,1.263,3.821,6.083,1.316,3.97a9.041,9.041,0,0,0-1.523-3.841Zm6.842,2.835-.207-.747h10.353l1.549-2.036s1.808,1.392,2.892,2.371c-.077.283-.362.412-.723.412Zm11.72,8.557,2.841,2.165a1.839,1.839,0,0,1-1.085.541v9.149a4.652,4.652,0,0,1-2.349.722h-.491v-1.6h-7.745v.876c0,.284-1.162.9-2.349.9h-.413v-12.447l2.917,1.185h7.306Zm-2.168-.283v-.954h-5.37v.49c0,.231-1.239.824-2.376.824h-.386v-7.4l2.865,1.133h5.009l1.342-1.443,2.867,2.14a1.76,1.76,0,0,1-1.059.541v4.02a5.107,5.107,0,0,1-2.4.645Zm-6.661,2.5v3.505h2.685v-3.505Zm0,8.014h2.685v-3.788h-2.685Zm6.661-12.19v-3.478h-5.37v3.478Zm-1.5,4.176v3.505h2.582v-3.505Zm2.582,8.014v-3.788h-2.582v3.788Z" fill="#fff"/><text transform="translate(3052.927 4960.535)" fill="#fff" font-size="34.123" font-family="NotoSerifCJKtc-Bold, Noto Serif CJK TC" font-weight="700" letter-spacing="0.04em"><tspan x="-17.061" y="0">年</tspan></text><ellipse cx="45.838" cy="32.074" rx="45.838" ry="32.074" transform="translate(2941.881 4949.322) rotate(-51.556)" fill="#946134"/><text transform="translate(2949.061 4960.047)" fill="#fff" font-size="74.197" font-family="NotoSansTC-Regular, Noto Sans TC"><tspan x="0" y="0">40</tspan></text></g></g></svg>