<svg xmlns="http://www.w3.org/2000/svg" width="300.699" height="236.065" viewBox="0 0 300.699 236.065">
  <g id="Group_1866" data-name="Group 1866" transform="translate(-3083.407 -3063.464)">
    <g id="Group_16" data-name="Group 16">
      <path id="Path_110" data-name="Path 110" d="M3095.962,3159.513c-1.05-.089-1.726-1-2.16-2.369a9.449,9.449,0,0,1-3.1,2.19l-.269-.45a7.991,7.991,0,0,0,1.979-1.425h-3.059v.945H3088.3v-7.2h4.5v.645h-1.635v1.23h1.395v2.49h-1.395v1.245h1.83a8.586,8.586,0,0,0,.54-.765,31.87,31.87,0,0,1-.48-5.685h-5.31v3.165c0,2.685-.345,4.74-2.175,6.12l-.4-.375c1.11-1.38,1.32-2.13,1.35-4.59h-1.065a4.577,4.577,0,0,1-1.574,4.035l-.375-.36a5.083,5.083,0,0,0,.914-3.675h-.734v-.675h2.834v-1.56h-1.3v.735h-1.035v-3.645h1.035v2.235h1.3v-2.085h6.525v-1.17l1.14.03v1.14h1.2a17.663,17.663,0,0,0-.99-1.665l.39-.36a8.513,8.513,0,0,1,1.68,1.515l-.66.51h1.019v.675h-2.639c.03,1.26.091,2.64.24,3.9a13.078,13.078,0,0,0,.646-2.835l1.214.3a11.277,11.277,0,0,1-1.6,4.29,3.6,3.6,0,0,0,.84,1.965c.585.5.585-.675.57-1.86h.525C3097.162,3158.059,3096.861,3159.589,3095.962,3159.513Zm-8.5-11.969h-3.644v-.675h3.644v-1.23h1.29v1.23h2.625v-1.23h1.29v1.23h3.975v.675h-3.975v1.065h-1.29v-1.065h-2.625v1.275h-1.29Zm1.891,5.535h.914v-1.23h-.914Zm0,1.845h2.279v-1.2h-2.279Zm.914.645h-.914v1.245h.914Z" fill="#4d4d4d"/>
      <path id="Path_111" data-name="Path 111" d="M3112.174,3157.894l-.779,1.619a7.5,7.5,0,0,1-5.835-4.274c-.87,2.4-3.045,3.794-6.81,4.365l-.166-.51c3.226-.811,4.756-2.115,5.431-3.855h-4.92v-.675h5.13a8.181,8.181,0,0,0,.224-1.53l1.531.12a6.92,6.92,0,0,1-.226,1.41h5.79v.675h-5.37C3107.795,3157.414,3110.524,3157.744,3112.174,3157.894Zm-.449-5.145h-12.766v-.675h5.58v-1.47h-4.109v-.675h4.109V3148.5h-5.055v-.675h3.721a21.629,21.629,0,0,0-1.875-1.965l.285-.465a14.709,14.709,0,0,1,2.969,1.65l-.705.78h2.235a9.687,9.687,0,0,0,1.215-2.52l1.486.72a10.371,10.371,0,0,1-1.815,1.8h4.184v.675h-5.235v1.425h4.3v.675h-4.3v1.47h5.776Z" fill="#4d4d4d"/>
      <path id="Path_112" data-name="Path 112" d="M3127.127,3157.564l-.511,1.59c-2.655.18-5.939.21-7.694-.33a5.73,5.73,0,0,1-2.6-1.59,8.642,8.642,0,0,1-2.429,2.415l-.331-.435a8.158,8.158,0,0,0,2.116-2.79,8.714,8.714,0,0,1-1.2-3.27l.525-.15a8.026,8.026,0,0,0,1.065,2.52,16.35,16.35,0,0,0,.869-3.975h-1.3a8.114,8.114,0,0,1-.645,1.035l-1.065-.45a35.072,35.072,0,0,0,2.4-4.875h-2.474v-.645h4.14a39.727,39.727,0,0,1-1.98,4.26h.9l.24-.24,1.185.45a13.893,13.893,0,0,1-1.515,5.325,5.091,5.091,0,0,0,1.68,1.02C3120.451,3158.164,3124.217,3157.908,3127.127,3157.564Zm-5.686-8.13h-3.285v-.645h3.285v-1.2h-2.58v-.675h2.58v-1.335h1.29v1.335h2.925v1.875h1.215v.645h-1.215v2.025h-2.925v1.185h3.06v.675h-3.06v1.4h3.75v.675h-3.75v1.98h-1.29v-1.98h-3.3v-.675h3.3v-1.4h-2.759v-.675h2.759v-1.185h-2.654v-.675h2.654Zm1.29-.645h1.741v-1.2h-1.741Zm0,1.995h1.741v-1.35h-1.741Z" fill="#4d4d4d"/>
      <path id="Path_113" data-name="Path 113" d="M3134.773,3148.924H3128.8v-.675h2.729c-.42-.885-.975-1.89-1.3-2.46l.406-.345a11.287,11.287,0,0,1,2.129,2.31l-.75.5h2.775Zm-.809,1.455v.585h-4.545v-.585Zm0,2.655h-4.545v-.585h4.545Zm.091,5.34h-3.3v1.02h-1.289v-4.845h4.59Zm-1.261-3.165h-2.04v2.505h2.04Zm8.685,4.26a8.712,8.712,0,0,1-3.661-2.085,10.953,10.953,0,0,1-4.048,2.25l-.226-.5a10.13,10.13,0,0,0,3.569-2.519,8.716,8.716,0,0,1-1.754-3.6h-.9v-.675h4.56l.375-.255,1.379.57a11.257,11.257,0,0,1-2.115,3.87,10.979,10.979,0,0,0,3.66,1.365Zm-6.06-11.655v-1.32h4.155v3.03c0,.465.074.66.615.66a1.342,1.342,0,0,0,1.125-.42l.57,1.035a2.579,2.579,0,0,1-1.92.585c-1.38,0-1.71-.375-1.71-1.65v-2.565h-1.484v.69c0,2.475-.872,3.405-2.641,4.23l-.27-.465C3135.134,3150.634,3135.419,3150.244,3135.419,3147.814Zm2.325,8.01a8.518,8.518,0,0,0,1.305-2.8h-3.12A6.341,6.341,0,0,0,3137.744,3155.824Z" fill="#4d4d4d"/>
      <path id="Path_114" data-name="Path 114" d="M3156.581,3158.164c-.24,1.8-1.934,1.59-3.556.494l.166-.524c1.664.42,2.07.48,2.175-.66.09-1.005.18-3.225.194-6.03h-4.949a9.347,9.347,0,0,1-1.515,1.56h2.145v-1.26h1.26V3153h2.37v2.565h-2.37v1.26c.3-.045.6-.075.886-.12-.121-.225-.256-.465-.391-.675l.375-.285a7.828,7.828,0,0,1,1.665,1.65l-.976.645c-.119-.27-.269-.555-.419-.855a24.942,24.942,0,0,1-5.01,1.155l-.33-1.29c1.035,0,2.009-.045,2.94-.12v-1.365h-2.34v-2.415a7.444,7.444,0,0,1-.7.48l-.18-.24c.015.15.015.3.015.45a14.913,14.913,0,0,1-.33,4.02c-.54,1.845-2.04,2.205-3.66.615l.226-.5c1.634.63,1.889.45,2.174-.735a16.016,16.016,0,0,0,.315-4.02c0-.135-.015-.27-.015-.405a10.012,10.012,0,0,1-2.684,3.075l-.346-.42a14.334,14.334,0,0,0,2.791-5.025,6.936,6.936,0,0,0-.315-1.11,9.225,9.225,0,0,1-2.085,1.83l-.315-.45a9.78,9.78,0,0,0,1.9-2.43,12.556,12.556,0,0,0-1.56-2.055l.346-.405a8.054,8.054,0,0,1,1.665,1.575c.284-.585.54-1.215.795-1.89l1.274.6a15.848,15.848,0,0,1-1.35,2.355,10.657,10.657,0,0,1,1.155,4.6,9.554,9.554,0,0,0,2.2-3.345h-1.545v-3.48h7.785v3.48h-4.8a10.114,10.114,0,0,1-.569,1.035h5.76A69.454,69.454,0,0,1,3156.581,3158.164Zm-6.675-9.1h1v-2.13h-1Zm.165,5.865h1.17v-1.275h-1.17Zm1.98-5.865h1.006v-2.13h-1.006Zm.45,5.865h1.2v-1.275h-1.2Zm1.694-5.865h1.035v-2.13H3154.2Z" fill="#4d4d4d"/>
      <path id="Path_115" data-name="Path 115" d="M3172.254,3158.269v.675h-8.415v-.675h3.645v-1.455h-2.82v-.675h2.82v-1.26h-2.714v-4.62h2.714v-1.17h-3.121l-.013-.45-.766.645a16.673,16.673,0,0,0-1.5-2.2,12.7,12.7,0,0,1-1.859,2.655h3.629v.675H3162.4v1.68h1.965v.675H3162.4v4.335a15.761,15.761,0,0,0,1.952-.375l.134.51a23.343,23.343,0,0,1-5.144,1.605l-.361-1.38c.586-.03,1.365-.1,2.16-.2v-4.5h-1.994v-.675h1.994v-1.68H3159.9v-.33c-.241.24-.5.465-.766.69l-.345-.405a11.97,11.97,0,0,0,2.489-4.905l1.366.45c-.09.21-.18.42-.285.63a10.473,10.473,0,0,1,2.19,1.875h2.94v-1.08c-.871.1-1.83.18-2.865.24l-.1-.525a17.239,17.239,0,0,0,5.88-1.665l1.065,1.185a26.007,26.007,0,0,1-2.686.585v1.26h3.391v.675h-3.391v1.17h2.791v4.62h-2.791v1.26h2.9v.675h-2.9v1.455Zm-11.34-1.935-1.17.225a23.5,23.5,0,0,0-.33-3l.526-.15A11.817,11.817,0,0,1,3160.914,3156.334Zm1.725-.075a17.519,17.519,0,0,0,.509-2.91l1.17.315a11.6,11.6,0,0,1-1.214,2.775Zm4.845-5.325H3166v1.26h1.485Zm0,1.935H3166v1.335h1.485Zm1.289-1.935v1.26h1.561v-1.26Zm1.561,1.935h-1.561v1.335h1.561Z" fill="#4d4d4d"/>
      <path id="Path_116" data-name="Path 116" d="M3176.151,3146.269h9.18v12.915h-1.41v-1.651h-6.359v1.666h-1.411Zm7.77,5.145v-4.4h-6.359v4.4Zm0,5.37v-4.695h-6.359v4.695Z" fill="#4d4d4d"/>
      <path id="Path_117" data-name="Path 117" d="M3199.564,3158.539c-1.71-1.5-2.5-4.89-2.775-8.745h-7.471v-.825h7.411c-.061-1.11-.076-2.235-.061-3.36l1.41.03c-.029,1.125-.029,2.25.016,3.33h3.974v.825h-3.945c.211,3.225.825,5.97,2.115,7.305,1.02,1.05.975.225.991-2.175h.539C3202.924,3158.434,3201.828,3160.533,3199.564,3158.539Zm-2.5-2.955.179.51a35.213,35.213,0,0,1-7.259,2.31l-.51-1.575c.945-.06,2-.18,3.045-.33v-3.645h-2.776v-.75h6.826v.75h-2.67v3.42C3195.064,3156.064,3196.174,3155.824,3197.059,3155.584Zm3.4-6.915c-.555-.825-1.455-2.025-1.949-2.61l.359-.42a12.519,12.519,0,0,1,2.67,2Z" fill="#4d4d4d"/>
      <path id="Path_118" data-name="Path 118" d="M3217.681,3157.894l-.781,1.619a7.5,7.5,0,0,1-5.834-4.274c-.871,2.4-3.044,3.794-6.81,4.365l-.165-.51c3.225-.811,4.755-2.115,5.431-3.855h-4.92v-.675h5.128a8,8,0,0,0,.225-1.53l1.531.12a6.989,6.989,0,0,1-.225,1.41h5.79v.675h-5.37C3213.3,3157.414,3216.03,3157.744,3217.681,3157.894Zm-.451-5.145h-12.764v-.675h5.58v-1.47h-4.111v-.675h4.111V3148.5h-5.055v-.675h3.72a21.463,21.463,0,0,0-1.875-1.965l.285-.465a14.723,14.723,0,0,1,2.97,1.65l-.705.78h2.235a9.718,9.718,0,0,0,1.215-2.52l1.484.72a10.266,10.266,0,0,1-1.814,1.8h4.184v.675h-5.235v1.425h4.306v.675h-4.306v1.47h5.775Z" fill="#4d4d4d"/>
      <path id="Path_119" data-name="Path 119" d="M3232.332,3156.3h-5.443v1.725c0,1.35-1.186,2.129-3.84.57l.135-.51c2.173.48,2.354.255,2.354-.63V3156.3h-6.09v-.675h6.09v-1.08l1,.15a10.275,10.275,0,0,0,1.545-1.125h-6.345v-.675h6.691l.4-.18,1.215.975a11.708,11.708,0,0,1-3.164,1.47v.465h5.443Zm-11.443-2.145h-1.321v-2.67h1.321c-.045-1.71-.106-3.435-.2-5.145l1.185.255a5.671,5.671,0,0,0,1.636-1.17l.779.84a8.891,8.891,0,0,1-2.385.81c0,.27.016.54.03.81h2v.675h-1.965c.014.39.014.795.029,1.185h2.04v.675h-2.024c.014.36.029.7.029,1.065h2.221l-.181-.39a5.374,5.374,0,0,0,1.335-1.035c-.3-.255-.615-.495-.96-.735l.226-.42c.434.2.839.375,1.229.585a8.225,8.225,0,0,0,.691-1.02l.929.66a10.113,10.113,0,0,1-.81.855,8.9,8.9,0,0,1,.961.75l-.691.75h2.685c.03-.345.045-.675.06-1.02H3227.7v-.675h2.071c.015-.36.045-.735.06-1.095H3227.8v-.675h2.04l.045-1.155H3227.7v-.675h2.071l.285-.285,1.095.27c-.1,1.74-.2,3.555-.33,5.31h1.365v2.625h-1.32v-1.95h-9.974Zm4.559-7.14a11.868,11.868,0,0,0-.945-.855l.226-.435a12.118,12.118,0,0,1,1.169.675c.2-.315.375-.63.525-.93l1,.555a6.572,6.572,0,0,1-.75.93c.315.24.6.48.885.735l-.795.81a10.988,10.988,0,0,0-.75-.9,8.956,8.956,0,0,1-1.545,1.065l-.27-.375A7.7,7.7,0,0,0,3225.448,3147.019Zm-.945,4.47h2.31a11.235,11.235,0,0,0-.795-.885A6.16,6.16,0,0,1,3224.5,3151.489Z" fill="#4d4d4d"/>
      <path id="Path_120" data-name="Path 120" d="M3237.295,3148.444h2.715V3158.9h-1.32v-1.366h-2.58v1.651h-1.319v-10.74h1.784a29.517,29.517,0,0,0,.466-3.015l1.619.345A17.833,17.833,0,0,1,3237.295,3148.444Zm1.4.675h-2.58v3.315h2.58Zm0,7.74v-3.75h-2.58v3.75Zm8.355-8.385a70.79,70.79,0,0,1-.36,9.195c-.33,1.949-2.085,2.505-4.905.075l.255-.48c2.415.975,3.09,1.05,3.285-.165a60.428,60.428,0,0,0,.33-7.95h-3.15a14.23,14.23,0,0,1-1.979,3.5l-.435-.33a21.806,21.806,0,0,0,1.844-6.84l1.576.315a19.219,19.219,0,0,1-.75,2.685Zm-3.645,6.84a27.04,27.04,0,0,0-1.71-3.87l.435-.345a12.988,12.988,0,0,1,2.641,3.45Z" fill="#4d4d4d"/>
      <path id="Path_121" data-name="Path 121" d="M3249.158,3152.059a7.971,7.971,0,0,0,1.02-3.9h.54a10.349,10.349,0,0,1-.2,4.41Zm2.07-6.48h1.32v13.934h-1.32Zm1.53,2.49.48-.18a13.468,13.468,0,0,1,1.44,3.15l-1.276.39A32.733,32.733,0,0,0,3252.758,3148.069Zm4.695,5.535h-3.9v-.675h3.9v-5.79h-3.4v-.675h8.22v.675h-3.406v5.79h3.855v.675h-3.855v5.88h-1.409Zm-3.031-5.25.5-.225a15.622,15.622,0,0,1,2.01,3.705l-1.321.48A35.838,35.838,0,0,0,3254.422,3148.354Zm4.8,3.795a20.785,20.785,0,0,0,1.334-4.2l1.41.57a19.793,19.793,0,0,1-2.265,3.87Z" fill="#4d4d4d"/>
      <path id="Path_122" data-name="Path 122" d="M3273.44,3150.019a6.873,6.873,0,0,1-4.665,5.745l-.24-.48a6.366,6.366,0,0,0,3.584-5.265h-1.5a9.6,9.6,0,0,1-5.654,5.985l-.255-.48a9.26,9.26,0,0,0,4.95-7.44h-1.935c-.12.285-.255.555-.39.825a9.692,9.692,0,0,1,1.71,1.2l-.885.9a13.769,13.769,0,0,0-1.14-1.545,9.63,9.63,0,0,1-.84,1.245,8.669,8.669,0,0,1,1.755,1.35l-.93.9a13.138,13.138,0,0,0-1.185-1.785,15.018,15.018,0,0,1-1.065,1.14l-.39-.375a12.955,12.955,0,0,0,2.595-6.435l1.44.33a11.9,11.9,0,0,1-.435,1.59h1.575l.284-.27,1.306.495a14.605,14.605,0,0,1-.315,1.71l1.4.015a31.454,31.454,0,0,0,.149-3.81l1.381.06a25.4,25.4,0,0,1-.2,3.75l3.72.015v.645h-3.285a6.71,6.71,0,0,0,3.569,4.29l-1.154,1.5a8.169,8.169,0,0,1-2.911-5.8Zm-6.661,5.76.511.2a8.941,8.941,0,0,1-1.59,3.644l-1.2-.989A8.063,8.063,0,0,0,3266.779,3155.779Zm2.491.165a15.438,15.438,0,0,1,1.545,3.12l-1.425.42c-.135-.9-.39-2.31-.615-3.345Zm2.91-.2a16.234,16.234,0,0,1,2.13,3.014l-1.4.69c-.239-.869-.75-2.324-1.184-3.434Zm3.2-6.87a19.9,19.9,0,0,0-.961-2.67l.451-.3a10.976,10.976,0,0,1,1.74,2.37Zm2.49,9.75-1.365.824a24.732,24.732,0,0,0-1.6-3.464l.42-.3A14.582,14.582,0,0,1,3277.865,3158.629Z" fill="#4d4d4d"/>
      <path id="Path_123" data-name="Path 123" d="M3281.268,3155.149a12.606,12.606,0,0,1-.571,4.17l-1.38-.585a9.941,9.941,0,0,0,1.41-3.675Zm2.519-3.72a9.664,9.664,0,0,1,1.516,2.535l-1.17.45c-.091-.36-.166-.69-.271-1.02a30.624,30.624,0,0,1-4.02,1.335l-.4-1.335c.344-.015.719-.045,1.109-.075a25.147,25.147,0,0,0,1.98-2.985,23.153,23.153,0,0,1-2.58.66l-.269-1.215c.3,0,.6,0,.885-.015a22.66,22.66,0,0,0,1.5-4.275l1.394.435a19.617,19.617,0,0,1-2.25,3.825c.585-.03,1.17-.075,1.7-.12.286-.555.585-1.155.885-1.845l1.26.675a24.776,24.776,0,0,1-3.72,4.77c.825-.1,1.636-.255,2.37-.39-.12-.39-.24-.765-.39-1.14Zm-1.425,3.405a23.1,23.1,0,0,1,1.2,3.36l-1.321.3c-.1-.944-.21-2.429-.39-3.524Zm1.275-.435a13.233,13.233,0,0,1,1.635,2.64l-1.155.57c-.269-.915-.6-2.07-.945-2.94Zm8.715-7.62v12.495h-1.321v-1.32h-4.319v1.47h-1.29v-12.645Zm-4.14.675h-1.5v4.365h1.5Zm0,5.04h-1.5v4.785h1.5Zm2.819-5.04h-1.559v4.365h1.559Zm0,5.04h-1.559v4.785h1.559Z" fill="#4d4d4d"/>
      <path id="Path_124" data-name="Path 124" d="M3306.149,3158.959c-1.514-1.815-1.739-6.255-1.754-10.38h-5.34v9.225c0,1.14-1.3,1.334-2.821.375l.166-.525c1.26.254,1.455.24,1.455-.375v-3.525h-1.2c-.164,2.73-.763,4.725-1.694,5.864l-.465-.3c.87-1.92.976-3.975.976-7.815v-5.055h3.584v1.455h5.34v-2.325h1.2v2.325h2.22v.675h-2.22c.014,3.51.12,7.245.989,8.88.42.78.42.225.36-2.19h.54C3308.444,3158.584,3307.56,3160.638,3306.149,3158.959Zm-8.294-8.67h-1.14v1.695c0,.375,0,.75-.015,1.11l1.155-.015Zm0-3.165h-1.14v2.5h1.14Zm3.135,9.795,1.065.765a10.863,10.863,0,0,1-3.27,1.934l-.24-.464A9.346,9.346,0,0,0,3300.99,3156.919Zm-1.59-6.285,4.709.015v.585l-4.709-.015Zm.27,6.1v-4.755h4.38v4.755Zm4.154-7.44v.57h-4.049v-.57Zm-2.984,4.095h2.04v-.81h-2.04Zm0,1.3h2.04v-.765h-2.04Zm0,1.44h2.04v-.9h-2.04Zm1.68.675a10.062,10.062,0,0,1,2.759,1.74l-.839.959a18.745,18.745,0,0,0-2.19-2.294Zm4.23-9.015a22,22,0,0,0-.885-2.085l.45-.255a6.493,6.493,0,0,1,1.455,1.77Z" fill="#4d4d4d"/>
      <path id="Path_125" data-name="Path 125" d="M3314.982,3155.089a2.963,2.963,0,0,0,1.905-2.4,1.556,1.556,0,0,1-.51.075,1.133,1.133,0,0,1-1.2-1.2,1.146,1.146,0,0,1,1.215-1.2c.914,0,1.514.555,1.514,1.68a3.448,3.448,0,0,1-2.61,3.465Z" fill="#4d4d4d"/>
      <path id="Path_126" data-name="Path 126" d="M3338.139,3157.339l-.555,1.575a28.8,28.8,0,0,1-3.24.059c-3.315-.074-4.965-.614-6.164-3.044a9.264,9.264,0,0,1-2.821,3.645l-.375-.42a12.079,12.079,0,0,0,2.641-6.8l1.5.21a12.741,12.741,0,0,1-.69,2.73,3.849,3.849,0,0,0,2.5,1.98v-6.2h-3.946v-.675h8.9v.675h-3.57v2.625h4.185v.675h-4.185v3.135c.525.045,1.111.075,1.771.075A29.635,29.635,0,0,0,3338.139,3157.339Zm-11.579-6.81h-1.32v-2.94h6.3a27.909,27.909,0,0,0-2.279-1.7l.209-.51a13.01,13.01,0,0,1,3.315,1.26l-.614.945h5.369v2.925h-1.32v-2.25h-9.659Z" fill="#4d4d4d"/>
      <path id="Path_127" data-name="Path 127" d="M3342.082,3155.629l1.4.78a13.127,13.127,0,0,1-3.36,3.165l-.36-.405A13.174,13.174,0,0,0,3342.082,3155.629Zm5.145-.21h-7.321v-.675h1.426v-6.285h-1.26v-.675h1.26v-2.145h1.289v2.145h2.041v-2.145h1.289v2.145h1.215v.675h-1.215v6.285h1.276Zm-2.565-6.96h-2.041V3150h2.041Zm0,2.19h-2.041v1.65h2.041Zm0,2.3h-2.041v1.8h2.041Zm1.994,4.56-1.035.9a21.9,21.9,0,0,0-1.739-2.385l.36-.405A11.261,11.261,0,0,1,3346.656,3157.5Zm5.715-11.19v11.775c0,1.35-1.215,1.95-3.734.42l.165-.51c2.054.48,2.249.36,2.249-.42V3153.9h-2.114a7.318,7.318,0,0,1-2.76,5.685l-.375-.405c1.845-1.92,1.905-4.485,1.905-8.265v-4.6Zm-1.32,6.915v-2.865h-2.025v.315c0,.885,0,1.74-.045,2.55Zm-2.025-6.24v2.7h2.025v-2.7Z" fill="#4d4d4d"/>
      <path id="Path_128" data-name="Path 128" d="M3362.238,3157.729c2.491,0,4.606-.15,6.09-.3l-.524,1.47c-1.89.1-3.675.134-5.566.12-3.284-.03-4.739-1.335-5.369-3.165a7.176,7.176,0,0,1-1.575,3.659l-.465-.3c.75-1.455,1.111-3.39,1-6.78l1.29.03a23.586,23.586,0,0,1-.1,2.385,4.969,4.969,0,0,0,1.41,2.04v-5.64h-3.106v-.66h3.09V3148.5h-2.654v-.645h2.654v-2.295h1.32v2.295h2.549v.645h-2.549v2.085h3.164v.66h-3.089v2.5h2.655v.645h-2.655v3.12A10.3,10.3,0,0,0,3362.238,3157.729Zm2.431-.69h-1.351v-11.43h1.351v3.975a12.822,12.822,0,0,1,3.765,2.475l-1.065,1.215a15.969,15.969,0,0,0-2.7-2.85Z" fill="#4d4d4d"/>
      <path id="Path_129" data-name="Path 129" d="M3372.092,3146.269h9.18v12.915h-1.411v-1.651H3373.5v1.666h-1.41Zm7.769,5.145v-4.4H3373.5v4.4Zm0,5.37v-4.695H3373.5v4.695Z" fill="#4d4d4d"/>
      <path id="Path_130" data-name="Path 130" d="M3091.477,3174.839h-1.6v12.66h-1.35v-3.78a21.4,21.4,0,0,1-4.559,1.965l-.5-1.5c.541-.06,1.035-.12,1.5-.21v-9.135h-1.424v-.675h7.934Zm-5.19,2.235h2.235v-2.235h-2.235Zm0,3.09h2.235v-2.415h-2.235Zm2.235,2.91v-2.235h-2.235v2.88C3087.008,3183.539,3087.713,3183.329,3088.522,3183.074Zm8.655,2.8-1.08,1.275a10.03,10.03,0,0,1-2.611-2.775,11.278,11.278,0,0,1-3.134,2.835l-.3-.42a13.11,13.11,0,0,0,2.834-3.495,17,17,0,0,1-1.5-7.065h-1.05v-.675h4.306l.3-.285,1.366.375a18.756,18.756,0,0,1-2.084,7.6A12.342,12.342,0,0,0,3097.177,3185.879Zm-3.72-3.75a17.089,17.089,0,0,0,1.3-5.9h-2.834A14.276,14.276,0,0,0,3093.457,3182.129Z" fill="#4d4d4d"/>
      <path id="Path_131" data-name="Path 131" d="M3100.265,3183.059a12.66,12.66,0,0,1-.45,4.289l-1.47-.6a10.133,10.133,0,0,0,1.4-3.75Zm-.585-2.025a14.549,14.549,0,0,0,2.1-2.865,21.492,21.492,0,0,1-2.744.69l-.27-1.365c.33.03.66.045.989.06a18.848,18.848,0,0,0,1.365-4.095l1.365.45a18.213,18.213,0,0,1-2.1,3.66c.585,0,1.17-.03,1.769-.075.27-.54.54-1.14.781-1.77l1.335.57a15.9,15.9,0,0,1-3.811,4.71c.795-.045,1.621-.15,2.416-.27-.136-.39-.285-.78-.435-1.125l.45-.225a10.476,10.476,0,0,1,1.62,2.49l-1.141.525c-.09-.33-.195-.735-.33-1.14a23.966,23.966,0,0,1-3.989,1.23l-.375-1.47C3099,3181.034,3099.334,3181.034,3099.68,3181.034Zm1.8,1.845a24.715,24.715,0,0,1,1.035,3.525l-1.38.24c0-.915-.061-2.415-.135-3.675Zm2.955,2.475-1.216.5c-.209-.99-.525-2.22-.795-3.2l.451-.18A16.1,16.1,0,0,1,3104.435,3185.354Zm7.529.96v.675h-8.279v-.675h3.524v-3.18h-2.879v-.675h7.079v.675h-2.88v3.18Zm-.255-10.995h-7.694v-.675h7.694Zm-6.854,3.345a10.917,10.917,0,0,1,1.844,2.64l-1.38.615a11.749,11.749,0,0,0-1.184-3.24,14.039,14.039,0,0,0,1.08-3l1.41.555A13.344,13.344,0,0,1,3104.855,3178.664Zm2.909,3.255a15.163,15.163,0,0,0-1.26-3.24,16.109,16.109,0,0,0,1.125-2.985l1.35.57a11.644,11.644,0,0,1-1.77,2.4,10.475,10.475,0,0,1,1.95,2.64Zm2.445-.015a16.473,16.473,0,0,0-1.425-3.225,14.475,14.475,0,0,0,1.185-2.985l1.365.6a13.028,13.028,0,0,1-1.83,2.37,9.755,9.755,0,0,1,2.07,2.61Z" fill="#4d4d4d"/>
      <path id="Path_132" data-name="Path 132" d="M3119.041,3183.089a2.967,2.967,0,0,0,1.906-2.4,1.556,1.556,0,0,1-.51.075,1.134,1.134,0,0,1-1.2-1.2,1.145,1.145,0,0,1,1.215-1.2c.916,0,1.516.555,1.516,1.68a3.447,3.447,0,0,1-2.611,3.465Z" fill="#4d4d4d"/>
      <path id="Path_133" data-name="Path 133" d="M3132.3,3184.034h2.445v.675H3132.3v2.82h-1.26v-2.82h-2.37v-.675h2.37v-1.44h-2v-4.965h2v-1.155H3128.8v-.675h2.234v-2.235h1.26v2.235h2.221v.675H3132.3v1.155h1.995v4.965H3132.3Zm-1.215-5.73h-.869v1.4h.869Zm0,2.025h-.869v1.59h.869Zm1.155-.63h.885v-1.4h-.885Zm.885,2.22v-1.59h-.885v1.59Zm7.079,1.125h1.8v.675h-1.8v2.445c0,1.515-1.409,1.829-3.119.405l.21-.5c1.455.465,1.649.36,1.649-.24v-2.115H3134.5v-.675h4.439v-1.02h1.26Zm-2.789-1.86v-.915H3135v-3.825h2.415v-.8H3134.7v-.675h2.715v-1.455h1.289v1.455h3.24v.675h-3.24v.8h2.521v3.825h-1.05a6.559,6.559,0,0,1,1.9,1.29l-.795.87c-.224-.285-.479-.585-.75-.9a48.027,48.027,0,0,1-5.683.825l-.256-1.155C3135.359,3181.229,3136.363,3181.229,3137.414,3181.184Zm.151,4.11-.931.915a19.8,19.8,0,0,0-1.441-1.98l.33-.405A9.96,9.96,0,0,1,3137.565,3185.294Zm-1.426-7.32h1.275v-.855h-1.275Zm1.275,1.62v-.975h-1.275v.975Zm1.289-1.62h1.381v-.855H3138.7Zm0,1.62h1.381v-.975H3138.7Zm0,1.545,1.381-.09q-.27-.293-.586-.585l.136-.2h-.931Z" fill="#4d4d4d"/>
      <path id="Path_134" data-name="Path 134" d="M3148.871,3176.7H3144v-.675h2.325a20.252,20.252,0,0,0-1.44-2.2l.36-.39a11.938,11.938,0,0,1,2.386,1.95l-.766.645h2.01Zm-4.38,3.21h4.005v.63h-4.005Zm.015-1.965h4.006v.645h-4.006Zm.031,3.975h3.93v5.3h-1.2v-.99h-1.53v1.155h-1.2Zm1.2,3.614h1.53v-2.939h-1.53Zm11.459-1.364v.675h-3.734v2.595h-1.29v-2.595h-3.555v-.675h3.555v-1.08h-2.909v-.675h2.01a11.623,11.623,0,0,0-.871-1.71l.165-.135H3148.9v-.675h3.316v-.945h-2.776v-.675h2.776v-.855H3149.2v-3.255h7.4v3.255h-3.119v.855h2.789v.675h-2.789v.945h3.343v.675h-2.34l.795.315a8.572,8.572,0,0,1-1.154,1.53h2.265v.675h-2.925v1.08Zm-5.849-9.33h-.975v1.9h.975Zm2.07,7.575a9.461,9.461,0,0,0,.525-1.845h-2.894a12.021,12.021,0,0,1,1.424,1.47l-.616.375Zm-1.035-5.67h.99v-1.9h-.99Zm2.025,0h1.02v-1.9h-1.02Z" fill="#4d4d4d"/>
      <path id="Path_135" data-name="Path 135" d="M3167.079,3181h-.931v6.509h-1.2v-2.144a21.3,21.3,0,0,1-3.735,1.035l-.374-1.245,1.064-.045V3181h-.81c-.074,3.825-1.05,5.6-1.92,6.555l-.435-.3c.855-1.755,1.066-2.865,1.066-6.75v-3.1h12.224v.675h-10.935v2.295h2.385v-1.005H3161.6v-.6h5v.6h-1.862v1.005h2.341Zm-1.74-4.275h-4.71v-2.535h4.71Zm-1.17-1.905h-2.31v1.3h2.31Zm-1.125,7.08h1.905v-.9h-1.905Zm0,1.515h1.905v-.945h-1.905Zm1.905,1.365v-.795h-1.905v1.02C3163.674,3184.949,3164.3,3184.874,3164.949,3184.784Zm5.834-8.055h-4.619v-2.535h4.619Zm1.486,9.54-.84,1.365a5.683,5.683,0,0,1-2.37-1.89,7.163,7.163,0,0,1-2.505,1.89l-.271-.45a7.111,7.111,0,0,0,2.266-2.28,9.263,9.263,0,0,1-.9-2.85,7.856,7.856,0,0,1-.929,1.32l-.42-.3a14.394,14.394,0,0,0,1.5-4.845l1.3.315a11.425,11.425,0,0,1-.571,1.71h3.346v.615h-.885a8.933,8.933,0,0,1-1.26,3.96A6.475,6.475,0,0,0,3172.269,3186.269Zm-2.715-11.445h-2.22v1.3h2.22Zm-.525,9.12a10.655,10.655,0,0,0,.69-3.06h-1.47c-.059.15-.136.3-.21.45A7.565,7.565,0,0,0,3169.029,3183.944Z" fill="#4d4d4d"/>
      <path id="Path_136" data-name="Path 136" d="M3179.166,3176.7h-5.205v-.675h2.4a17.814,17.814,0,0,0-1.455-2.25l.361-.39a11.927,11.927,0,0,1,2.384,1.95l-.825.69h2.34Zm-4.8,1.3h4.261v.645h-4.261Zm0,4.155h4.2v5.055h-1.23v-1.005h-1.74v1.23h-1.23Zm.075-2.175h4.186v.63h-4.186Zm1.155,5.535h1.74v-2.685h-1.74Zm11.67.795v.675h-8.43v-.675h3.57v-1.3h-2.7v-.675h2.7v-1.155h-3.06v-.675h3.06v-1.05h-2.849v-2.775h2.849v-1.08h-1.679v-1.83h-1.741v-.675h1.741v-1.56h1.259v1.56h2.13v-1.56h1.26v1.56h1.739v.675h-1.739v1.83h-1.68v1.08h2.79v2.775h-2.79v1.05h3.06v.675h-3.06v1.155h2.7v.675h-2.7v1.3Zm-4.86-6.99h-1.59v1.485h1.59Zm1.71-2.4v-1.155h-2.13v1.155Zm-.42,2.4v1.485h1.531v-1.485Z" fill="#4d4d4d"/>
      <path id="Path_137" data-name="Path 137" d="M3192.078,3176.444h2.715V3186.9h-1.319v-1.366h-2.58v1.651h-1.32v-10.74h1.784a29.45,29.45,0,0,0,.466-3.015l1.619.345A17.743,17.743,0,0,1,3192.078,3176.444Zm1.4.675h-2.58v3.315h2.58Zm0,7.74v-3.75h-2.58v3.75Zm8.354-8.385a71.06,71.06,0,0,1-.359,9.195c-.33,1.949-2.086,2.505-4.905.075l.254-.48c2.415.975,3.09,1.05,3.286-.165a60.854,60.854,0,0,0,.33-7.95h-3.151a14.191,14.191,0,0,1-1.979,3.5l-.435-.33a21.774,21.774,0,0,0,1.844-6.84l1.576.315a19.219,19.219,0,0,1-.75,2.685Zm-3.644,6.84a27.1,27.1,0,0,0-1.71-3.87l.434-.345a12.968,12.968,0,0,1,2.641,3.45Z" fill="#4d4d4d"/>
      <path id="Path_138" data-name="Path 138" d="M3217.306,3186.614h-10.74v.87h-1.381v-13.02h11.76v.675h-10.379v10.8h10.74Zm-4.56-1.185v-5.4h-2.94c-.21,2.985-1.021,4.365-2.355,5.61l-.42-.36c1.215-1.7,1.455-3.435,1.44-6.735v-1.86l1.245.36a14.945,14.945,0,0,0,4.965-1.53l1.335,1.185a34.715,34.715,0,0,1-6.165.855v1.425a2.986,2.986,0,0,1-.015.375h6.914v.675h-2.685v5.4Z" fill="#4d4d4d"/>
      <path id="Path_139" data-name="Path 139" d="M3221.443,3178.9l.54.075a13.049,13.049,0,0,1-1.17,5.8l-1.635-.9A10.345,10.345,0,0,0,3221.443,3178.9Zm1.8,5.94v-8.04h1.441v7.755c0,.78.149.96.989,1.02a11.372,11.372,0,0,0,1.89,0c1.095-.09,1.291-.33,1.275-3.18h.57c1.05,3.42.675,4.32-1.365,4.515a15.115,15.115,0,0,1-2.595,0C3223.648,3186.779,3223.243,3186.689,3223.243,3184.844Zm.675-10.83.285-.525a14.585,14.585,0,0,1,4.574,2.565l-1.184,1.35A21.626,21.626,0,0,0,3223.918,3174.014Zm5.295,4.7.5-.3a17.848,17.848,0,0,1,3.045,4.845l-1.665.69A30.261,30.261,0,0,0,3229.213,3178.709Z" fill="#4d4d4d"/>
      <path id="Path_140" data-name="Path 140" d="M3236.44,3182.309l.54.135a8.6,8.6,0,0,1-1.545,4.23l-1.23-.99A6.712,6.712,0,0,0,3236.44,3182.309Zm9.419-1.455H3236.2v-6.72h9.658Zm-5.5-6.045h-2.8v2.175h2.8Zm0,2.85h-2.8v2.52h2.8Zm-2.79,7.92v-3.8h1.351v3.135c0,.51-.031.87,1.424.915a23,23,0,0,0,3.12-.045c.69-.1.765-.36.78-2.115h.54c.795,2.5.375,3.18-1.065,3.33a33.473,33.473,0,0,1-3.48.045C3238.346,3186.973,3237.565,3186.614,3237.565,3185.579Zm2.445-3.975.33-.435a13.325,13.325,0,0,1,2.85,2.07l-1.155,1.095A20.692,20.692,0,0,0,3240.01,3181.6Zm4.5-6.795h-2.834v2.175h2.834Zm0,2.85h-2.834v2.52h2.834Zm.345,5.01.42-.33a12.121,12.121,0,0,1,2.55,3.045l-1.229.765A22.242,22.242,0,0,0,3244.855,3182.669Z" fill="#4d4d4d"/>
      <path id="Path_141" data-name="Path 141" d="M3251.078,3183.149a12.861,12.861,0,0,1-.5,4.23l-1.364-.63a9.408,9.408,0,0,0,1.335-3.66Zm-.631-2.1a14.489,14.489,0,0,0,2.026-2.82,23.294,23.294,0,0,1-2.58.585l-.27-1.3c.3.03.6.045.9.06a18.373,18.373,0,0,0,1.365-4.065l1.305.45a18.751,18.751,0,0,1-2.041,3.645c.541,0,1.1-.015,1.68-.06q.427-.855.811-1.845l1.3.585a15.96,15.96,0,0,1-3.734,4.74c.734-.045,1.515-.12,2.25-.21-.15-.42-.3-.825-.45-1.185l.405-.225a9.771,9.771,0,0,1,1.664,2.49l-1.154.525c-.075-.315-.18-.675-.285-1.05a21.349,21.349,0,0,1-3.825,1.05l-.345-1.38C3249.787,3181.049,3250.117,3181.049,3250.447,3181.049Zm1.816,1.875a25.377,25.377,0,0,1,.989,3.555l-1.35.2c.031-.945-.059-2.445-.134-3.66Zm1.29-.405a14.169,14.169,0,0,1,1.59,3l-1.215.494c-.21-.989-.571-2.369-.84-3.3Zm9.149,3.72h-6.03v1.214h-1.289v-8.774a8.727,8.727,0,0,1-.961,1.155l-.389-.33a16.528,16.528,0,0,0,2.2-6.075l1.47.405a15.707,15.707,0,0,1-1.064,2.7h2.5a27.133,27.133,0,0,0-.839-2.775l.45-.24a11.087,11.087,0,0,1,1.709,2.595l-1,.42h3.09v.675h-2.58v2.1h2.189v.675h-2.189v2.3h2.189v.675h-2.189v2.61h2.729Zm-6.03-9.03v2.1h2.041v-2.1Zm2.041,2.775h-2.041v2.3h2.041Zm-2.041,5.58h2.041v-2.61h-2.041Z" fill="#4d4d4d"/>
      <path id="Path_142" data-name="Path 142" d="M3269.765,3183.089a2.967,2.967,0,0,0,1.905-2.4,1.556,1.556,0,0,1-.51.075,1.134,1.134,0,0,1-1.2-1.2,1.146,1.146,0,0,1,1.215-1.2c.915,0,1.515.555,1.515,1.68a3.448,3.448,0,0,1-2.61,3.465Z" fill="#4d4d4d"/>
      <path id="Path_143" data-name="Path 143" d="M3292.922,3185.339l-.555,1.575a28.8,28.8,0,0,1-3.24.059c-3.314-.074-4.965-.614-6.164-3.044a9.261,9.261,0,0,1-2.82,3.645l-.375-.42a12.079,12.079,0,0,0,2.639-6.8l1.5.21a12.684,12.684,0,0,1-.69,2.73,3.851,3.851,0,0,0,2.506,1.98v-6.2h-3.946v-.675h8.9v.675h-3.57v2.625h4.185v.675H3287.1v3.135c.525.045,1.11.075,1.77.075A29.648,29.648,0,0,0,3292.922,3185.339Zm-11.58-6.81h-1.32v-2.94h6.3a27.92,27.92,0,0,0-2.28-1.7l.21-.51a13,13,0,0,1,3.314,1.26l-.614.945h5.37v2.925H3291v-2.25h-9.66Z" fill="#4d4d4d"/>
      <path id="Path_144" data-name="Path 144" d="M3305.85,3187.484a4.353,4.353,0,0,1-2.3-1.635,10.988,10.988,0,0,1-3.66,1.38l-.2-.51a11.956,11.956,0,0,0,3.316-1.755,10.174,10.174,0,0,1-.72-2.535h-2.82v1.02c.84-.1,1.59-.225,2.16-.33l.135.51a17.624,17.624,0,0,1-2.295.675v1.8c0,1.74-1.965,1.635-3.645.525l.165-.525c1.755.389,2.22.375,2.22-.375v-1.14c-1.155.24-2.34.45-3.225.555l-.285-1.275a34.467,34.467,0,0,0,3.51-.255v-1.185h-3.449v-.675h3.449v-.87c-.84.12-1.725.21-2.61.27l-.1-.54a15.462,15.462,0,0,0,4.425-1.29h-4.65v-.675h5.34v-.975h-4.17v-.645h4.17v-.885h-4.845v-.675h3.48c-.315-.54-.705-1.14-1.141-1.74l.375-.375a8.372,8.372,0,0,1,1.981,1.56l-.69.555h2.594a18,18,0,0,0,.571-2.085l1.455.54a10.555,10.555,0,0,1-1.3,1.545h3.66v.675h-4.785v.885h4.154v.645h-4.154v.975h5.295v.675h-6.93l1.185.87a20.546,20.546,0,0,1-2.04.48v1.08h2.73c-.075-.7-.1-1.425-.12-2.145h1.2c.03.6.03,1.35.09,2.145h2.115A15.874,15.874,0,0,0,3304,3180l.329-.42a11.551,11.551,0,0,1,2.146,1.32l-.81.855h2.024v.675h-4.229a6.219,6.219,0,0,0,.465,1.725,12.876,12.876,0,0,0,1.29-1.53l1.17.75a14.291,14.291,0,0,1-1.816,1.77,3.231,3.231,0,0,0,1.021.795c1.08.554,1.364.15,1.364-2.16l.541.015C3308.039,3186.509,3307.77,3188.084,3305.85,3187.484Z" fill="#4d4d4d"/>
      <path id="Path_145" data-name="Path 145" d="M3317.352,3173.459h3.375v1.065h-2.235v8.565h-1.14Z" fill="#4d4d4d"/>
      <path id="Path_146" data-name="Path 146" d="M3329.049,3183.239v4.26h-1.319v-3.855a9.9,9.9,0,0,1-2.8,2.82l-.33-.42a11.551,11.551,0,0,0,2.819-4.065h-2.4v-.645h2.715v-1.47h1.319v1.47h2.52v.645h-2.52v.48a11.26,11.26,0,0,1,2.416,1.875l-.961.93C3330.024,3184.5,3329.515,3183.854,3329.049,3183.239Zm2.775-3.675H3324.8v-.675h1.965a23.592,23.592,0,0,0-.946-2.34l.45-.3a10.436,10.436,0,0,1,1.7,2.19l-.87.45h1.755a15.33,15.33,0,0,0,.6-2.67l1.35.435a13.151,13.151,0,0,1-1.365,2.235h2.384Zm-.359-3.42h-6.436v-.66h3.135a21.27,21.27,0,0,0-1.664-1.62l.27-.45a10.314,10.314,0,0,1,2.5,1.26l-.614.81h2.805Zm6.584,3.045H3336.5v8.25h-1.32v-8.25h-1.709v.6c0,3.87-.781,6.285-2.641,7.875l-.4-.36c1.425-1.755,1.7-3.855,1.7-7.02v-5.55l1.244.33a9.4,9.4,0,0,0,3.061-1.5l1.289,1.095a17.129,17.129,0,0,1-4.244.945v2.91h4.574Z" fill="#4d4d4d"/>
      <path id="Path_147" data-name="Path 147" d="M3341.947,3174.269h9.18v12.915h-1.41v-1.651h-6.36v1.666h-1.41Zm7.77,5.145v-4.4h-6.36v4.4Zm0,5.37v-4.695h-6.36v4.695Z" fill="#4d4d4d"/>
      <path id="Path_148" data-name="Path 148" d="M3368.358,3183.344l-1.094,1.56a13.073,13.073,0,0,1-5.071-6.945v5.235h2.941v.675h-2.941v3.644h-1.439v-3.644h-2.865v-.675h2.865v-5.235a13.885,13.885,0,0,1-5.715,7.23l-.314-.465a15.4,15.4,0,0,0,4.784-7.29h-4.245v-.825h5.49v-3.045h1.439v3.045h5.67v.825h-5.234A12.752,12.752,0,0,0,3368.358,3183.344Z" fill="#4d4d4d"/>
      <path id="Path_149" data-name="Path 149" d="M3383.355,3185.564l-.509,1.59c-2.655.18-5.94.21-7.7-.33a5.713,5.713,0,0,1-2.594-1.59,8.671,8.671,0,0,1-2.43,2.415l-.33-.435a8.171,8.171,0,0,0,2.114-2.79,8.714,8.714,0,0,1-1.2-3.27l.525-.15a8.026,8.026,0,0,0,1.065,2.52,16.445,16.445,0,0,0,.871-3.975h-1.306a8.032,8.032,0,0,1-.645,1.035l-1.065-.45a35.174,35.174,0,0,0,2.4-4.875h-2.475v-.645h4.139a39.349,39.349,0,0,1-1.98,4.26h.9l.24-.24,1.185.45a13.876,13.876,0,0,1-1.515,5.325,5.091,5.091,0,0,0,1.68,1.02C3376.682,3186.164,3380.445,3185.908,3383.355,3185.564Zm-5.684-8.13h-3.284v-.645h3.284v-1.2h-2.579v-.675h2.579v-1.335h1.29v1.335h2.925v1.875h1.216v.645h-1.216v2.025h-2.925v1.185h3.061v.675h-3.061v1.4h3.75v.675h-3.75v1.98h-1.29v-1.98h-3.3v-.675h3.3v-1.4h-2.76v-.675h2.76v-1.185h-2.655v-.675h2.655Zm1.29-.645h1.74v-1.2h-1.74Zm0,1.995h1.74v-1.35h-1.74Z" fill="#4d4d4d"/>
      <path id="Path_150" data-name="Path 150" d="M3083.723,3205.839l-.316-.42a8.442,8.442,0,0,0,2.46-4l1.44.406a6.642,6.642,0,0,1-.674,1.17h3.84v.674h-2.566a9,9,0,0,1,1.111,1.35l-1.111.405a10.535,10.535,0,0,0-.69-1.755h-1.095A10.794,10.794,0,0,1,3083.723,3205.839Zm13.379,7.71-.8,1.485a9.2,9.2,0,0,1-5.414-3.54v4.035H3089.6v-3.99c-1.065,1.575-3.735,2.91-5.985,3.435l-.179-.48a10.994,10.994,0,0,0,4.934-3.165h-4.5v-.675h5.729v-1.275a7.056,7.056,0,0,1-1.26.63l-.254-.48a3.8,3.8,0,0,0,1.334-1.185,25.982,25.982,0,0,1-5.145,1.425l-.344-1.245c.854-.045,1.589-.1,2.28-.18v-1.995h-2.086v-.675h5.43v.675h-2.084v1.83c.629-.1,1.274-.225,1.979-.39l.09.33a6.292,6.292,0,0,0,.3-2.595h4.8v2.25c0,.555.209.645.7.645.645,0,.66-.135.645-1.665h.539c.646,2.355.256,2.73-1.215,2.745-1.5.015-1.919-.3-1.919-1.575V3206.2H3091.1a3.407,3.407,0,0,1-1.379,3.089h1.17v1.365h5.759v.675h-5.22A10.518,10.518,0,0,0,3097.1,3213.549Zm-7.485-8.61a9.093,9.093,0,0,0,2-3.57l1.38.465a8.894,8.894,0,0,1-.689,1.14h4.529v.675h-2.91a6.077,6.077,0,0,1,1.1,1.185l-1.1.45a12.442,12.442,0,0,0-.765-1.635h-1.38a10.345,10.345,0,0,1-1.815,1.68Zm1.755,1.74.45-.18a8.677,8.677,0,0,1,1.11,2.37l-1.08.285A19.3,19.3,0,0,0,3091.372,3206.679Z" fill="#4d4d4d"/>
      <path id="Path_151" data-name="Path 151" d="M3112.174,3213.894l-.779,1.62a7.5,7.5,0,0,1-5.835-4.275c-.87,2.4-3.045,3.795-6.81,4.365l-.166-.51c3.226-.81,4.756-2.115,5.431-3.855h-4.92v-.675h5.13a8.181,8.181,0,0,0,.224-1.53l1.531.12a6.92,6.92,0,0,1-.226,1.41h5.79v.675h-5.37C3107.795,3213.414,3110.524,3213.744,3112.174,3213.894Zm-.449-5.145h-12.766v-.675h5.58v-1.47h-4.109v-.675h4.109V3204.5h-5.055v-.675h3.721a21.645,21.645,0,0,0-1.875-1.964l.285-.465a14.615,14.615,0,0,1,2.969,1.65l-.705.779h2.235a9.672,9.672,0,0,0,1.215-2.52l1.486.721a10.331,10.331,0,0,1-1.815,1.8h4.184v.675h-5.235v1.425h4.3v.675h-4.3v1.47h5.776Z" fill="#4d4d4d"/>
      <path id="Path_152" data-name="Path 152" d="M3126.826,3212.3h-5.444v1.725c0,1.35-1.185,2.13-3.84.57l.135-.51c2.175.48,2.354.255,2.354-.63V3212.3h-6.09v-.675h6.09v-1.08l1.006.15a10.237,10.237,0,0,0,1.545-1.125h-6.346v-.675h6.691l.405-.18,1.215.975a11.717,11.717,0,0,1-3.165,1.47v.465h5.444Zm-11.444-2.145h-1.319v-2.67h1.319c-.045-1.71-.1-3.435-.194-5.144l1.183.254a5.659,5.659,0,0,0,1.636-1.17l.78.84a8.841,8.841,0,0,1-2.385.81c0,.27.015.54.03.81h2v.675h-1.965c.015.39.015.795.03,1.185h2.039v.675h-2.024c.015.36.03.7.03,1.065h2.22l-.181-.39a5.381,5.381,0,0,0,1.336-1.035c-.3-.255-.615-.495-.961-.735l.226-.42c.434.2.84.375,1.229.585a7.989,7.989,0,0,0,.691-1.02l.929.66a10.284,10.284,0,0,1-.809.855,8.865,8.865,0,0,1,.96.75l-.691.75h2.686c.029-.345.045-.675.059-1.02h-2.04v-.675h2.071c.014-.36.045-.735.059-1.094H3122.3v-.676h2.039l.045-1.155h-2.19v-.674h2.071l.285-.286,1.095.27c-.1,1.74-.2,3.555-.33,5.31h1.364v2.625h-1.32v-1.95h-9.974Zm4.559-7.14a11.717,11.717,0,0,0-.945-.855l.226-.435a12.061,12.061,0,0,1,1.17.676c.194-.315.375-.631.524-.931l1.006.556a6.641,6.641,0,0,1-.75.929c.314.241.6.48.885.735l-.795.81a10.988,10.988,0,0,0-.75-.9,8.908,8.908,0,0,1-1.545,1.065l-.27-.375A7.648,7.648,0,0,0,3119.941,3203.019Zm-.945,4.47h2.311a11.637,11.637,0,0,0-.795-.885A6.142,6.142,0,0,1,3119,3207.489Z" fill="#4d4d4d"/>
      <path id="Path_153" data-name="Path 153" d="M3131.055,3214.554h2.234v-8.565h1.14v9.63h-3.374Z" fill="#4d4d4d"/>
      <path id="Path_154" data-name="Path 154" d="M3143.951,3213.294l-.24-.495a10.933,10.933,0,0,0,4.141-3.675h-3.93v-.675h3.285v-4.485h-2.58v-.675h2.58v-1.694h1.289v1.694h3.915v-1.694h1.29v1.694h2.731v.675H3153.7v4.485h3.39v.675h-4.319a9.362,9.362,0,0,0,4.619,2.16l-.959,1.5a9.435,9.435,0,0,1-4.336-3.66h-2.625C3148.211,3211.359,3145.241,3212.784,3143.951,3213.294Zm7.2,1.005h5.475v.675h-12.12v-.675h5.325v-1.95h-2.655v-.675h2.655v-1.77h1.32v1.77h2.67v.675h-2.67Zm-2.655-9.36h3.915v-.975H3148.5Zm0,1.74h3.915v-1.065H3148.5Zm0,1.77h3.915v-1.095H3148.5Z" fill="#4d4d4d"/>
      <path id="Path_155" data-name="Path 155" d="M3172.209,3211.689v.675h-5.955v3.18h-1.35v-3.18h-5.91v-.675h5.91v-1.245h1.35v1.245Zm-12.09-1.08-1.109-.9a24.706,24.706,0,0,0,2.489-3.465l.495.27A23.6,23.6,0,0,1,3160.119,3210.609Zm-1.05-6.675.271-.48a11.707,11.707,0,0,1,2.5,1.306l-.81,1.109C3160.434,3205.194,3159.489,3204.309,3159.069,3203.934Zm3.465-.21a25.4,25.4,0,0,0-2.1-1.754l.225-.5a10.891,10.891,0,0,1,2.611,1.11Zm-.195,3.18a14.777,14.777,0,0,0,2.37-5.535l1.41.405a12.843,12.843,0,0,1-.721,1.815h2.792a22.631,22.631,0,0,0-1.577-1.7l.285-.449a10,10,0,0,1,2.371,1.349l-.675.8h3.045v.675h-2.88v1.081h2.34v.644h-2.34v1.17h2.37v.645h-2.37v1.17H3172v.675h-6.779v.555H3163.9v-4.17a8.172,8.172,0,0,1-1.2,1.275Zm5.13-2.64h-2.25v1.081h2.25Zm0,1.725h-2.25v1.17h2.25Zm0,1.815h-2.25v1.17h2.25Z" fill="#4d4d4d"/>
      <path id="Path_156" data-name="Path 156" d="M3179.331,3211.089a2.966,2.966,0,0,0,1.905-2.4,1.555,1.555,0,0,1-.509.075,1.2,1.2,0,1,1,.014-2.4c.915,0,1.515.555,1.515,1.68a3.448,3.448,0,0,1-2.609,3.465Z" fill="#4d4d4d"/>
      <path id="Path_157" data-name="Path 157" d="M3196.773,3210.174a27.506,27.506,0,0,1-6.6,4.4l-.93-1.59q1.035-.338,2.025-.72l-.09-10.2h1.38l.029,9.66a31.991,31.991,0,0,0,3.855-1.98Zm4.59,4.905a18.456,18.456,0,0,0-2.25-3.705c-1.019,1.935-2.8,3.27-5.744,4.125l-.195-.51c4.559-1.785,5.715-4.68,5.715-9.6v-3.495h1.41v3.21a14.728,14.728,0,0,1-.871,5.61,13.717,13.717,0,0,1,3.285,3.39Zm-5.234-7.4a29.519,29.519,0,0,0-2.19-4.095l.419-.36a15.609,15.609,0,0,1,3.2,3.54Z" fill="#4d4d4d"/>
      <path id="Path_158" data-name="Path 158" d="M3206.176,3207.7a27.718,27.718,0,0,0-2.1-2.459l.285-.451a13.246,13.246,0,0,1,2.775,1.8Zm.21.84.525.135a54.057,54.057,0,0,1-1.229,6.24l-1.471-.6A43,43,0,0,0,3206.386,3208.539Zm.136-4.17a19.057,19.057,0,0,0-1.741-2.43l.33-.405a9.918,9.918,0,0,1,2.459,1.86Zm11.324,8.745-.9,1.425a9.529,9.529,0,0,1-3.974-3.945v4.89h-1.35v-4.59a11.474,11.474,0,0,1-4.349,3.63l-.271-.465a11.656,11.656,0,0,0,4.034-4.215H3207.5v-.675h4.125v-1.8h1.35v1.8h4.244v.675h-4.049A9.491,9.491,0,0,0,3217.846,3213.114Zm-7.141-9.825h-1.229v2.34h-1.291v-3.014h8.595v2.939h-1.29v-2.265h-1.184v2.58c0,.525.014.765.915.765a2.1,2.1,0,0,0,1.559-.45l.585,1.035a3.276,3.276,0,0,1-2.205.57c-2.055,0-2.115-.6-2.115-1.815v-2.685H3212c-.045,3.45-1.155,4.59-4.019,5.28l-.2-.51C3210.376,3207.219,3210.691,3205.614,3210.705,3203.289Z" fill="#4d4d4d"/>
      <path id="Path_159" data-name="Path 159" d="M3221.368,3210.309l.54.135a8.6,8.6,0,0,1-1.545,4.23l-1.23-.99A6.712,6.712,0,0,0,3221.368,3210.309Zm9.419-1.455h-9.658v-6.719h9.658Zm-5.5-6.045h-2.8v2.175h2.8Zm0,2.85h-2.8v2.52h2.8Zm-2.79,7.92v-3.8h1.351v3.135c0,.51-.031.87,1.424.915a23.006,23.006,0,0,0,3.12-.045c.69-.1.764-.36.78-2.115h.54c.795,2.5.375,3.18-1.065,3.33a33.473,33.473,0,0,1-3.48.045C3223.273,3214.974,3222.493,3214.614,3222.493,3213.579Zm2.445-3.975.33-.435a13.32,13.32,0,0,1,2.849,2.07l-1.154,1.095A20.692,20.692,0,0,0,3224.938,3209.6Zm4.5-6.795H3226.6v2.175h2.834Zm0,2.85H3226.6v2.52h2.834Zm.345,5.01.42-.33a12.121,12.121,0,0,1,2.55,3.045l-1.23.765A22.235,22.235,0,0,0,3229.783,3210.669Z" fill="#4d4d4d"/>
      <path id="Path_160" data-name="Path 160" d="M3236.306,3212.379l.524.15a7.123,7.123,0,0,1-1.215,3.24l-1.289-.84A6.062,6.062,0,0,0,3236.306,3212.379Zm5.46-8.835h-7.4v-.63h3.645c-.451-.33-1.051-.779-1.531-1.094l.2-.466a9.2,9.2,0,0,1,2.34.825l-.451.735h3.2Zm-3.09,7.47c0,1.125-1.351,1.65-3.045.405l.149-.465c1.515.39,1.681.24,1.681-.24v-.8c-1.11.2-2.131.36-2.7.405l-.316-1.155c.721,0,1.83-.045,3.016-.135v-1.02l1.094.21a5.588,5.588,0,0,0,.8-.675h-4.559v-.6h4.8l.315-.165,1,.615a6.572,6.572,0,0,1-2.234,1.32v.21c.974-.09,1.92-.2,2.639-.3l.09.5c-.75.18-1.725.375-2.729.57Zm-3.241-4.83v-2.025h5.055v2.025Zm1.081-.54h2.82v-.944h-2.82Zm2.594,6.72a13.32,13.32,0,0,1,1.411,2.94l-1.5.39a32,32,0,0,0-.451-3.2Zm3.646-8.175v-2.625h1.26v2.625h2.174c-.09,3.465.044,5.985.6,6.465.255.225.3-.66.21-2.205h.525c.765,2.91.165,4.005-.945,3.585-1.5-.57-1.59-3.66-1.59-7.169H3244a11.727,11.727,0,0,1-.375,2.819,12.536,12.536,0,0,1,1.32,1.14l-.96,1.125c-.21-.3-.5-.66-.809-1.035a7.127,7.127,0,0,1-3.646,3.375l-.285-.45a6.5,6.5,0,0,0,3.09-3.87c-.495-.54-1-1.035-1.4-1.41l.271-.435a14.765,14.765,0,0,1,1.349.795,13.415,13.415,0,0,0,.18-2.054h-1.455v-.676Zm-.436,8.085a12.892,12.892,0,0,1,1.68,2.865l-1.455.465a31.089,31.089,0,0,0-.75-3.15Zm5.385,2.73-1.41.705a28.434,28.434,0,0,0-1.35-3.2l.45-.27A9.933,9.933,0,0,1,3247.705,3215Z" fill="#4d4d4d"/>
      <path id="Path_161" data-name="Path 161" d="M3251.828,3208.014c-.015,4.365-.885,6.27-1.92,7.5l-.435-.315c.509-.96,1.064-2.235,1.064-7.2v-4.4l1.306.285h3.149v-2.279h1.291v.795h4.59v.659h-4.59v.825h4.6l.36-.225,1.2.931a8.611,8.611,0,0,1-2.31,1.394l-.284-.36a12.891,12.891,0,0,0,.9-1.065h-4.92v.75c1.26-.09,2.476-.18,3.631-.285l.074.66c-1.229.12-2.43.21-3.66.3a.913.913,0,0,0,.886.48c1.094.03,1.95.03,3.045,0,.825-.03.989-.12,1.3-.39l.48.78c-.36.375-.69.465-1.664.5-1.215.03-2.191.03-3.406,0s-1.815-.42-1.905-1.275l-2.459.135-.076-.66c.871-.045,1.711-.09,2.521-.15v-.84h-2.76Zm1.11,3.9.48.165a7.568,7.568,0,0,1-1.275,3.27l-1.095-.84A6.442,6.442,0,0,0,3252.938,3211.914Zm7.994-.465h-8.325v-3.54h8.325Zm-4.844-2.91h-2.221v.825h2.221Zm0,1.425h-2.221v.855h2.221Zm3.66,2.415c.75,1.86.4,2.6-.721,2.7a26.533,26.533,0,0,1-2.685.075c-1.754-.03-2.249-.27-2.249-1.32v-1.965h1.26v1.44c0,.435.12.735,1.11.75a15.7,15.7,0,0,0,2.055-.03c.629-.06.764-.255.7-1.65Zm-3.6-.3.2-.435a7.859,7.859,0,0,1,2.31,1.095l-.719.99A15.707,15.707,0,0,0,3256.147,3212.079Zm3.525-3.54H3257.3v.825h2.369Zm0,1.425H3257.3v.855h2.369Zm3.18,4.26-1.17.81a17.432,17.432,0,0,0-1.514-2.82l.435-.36A10.18,10.18,0,0,1,3262.852,3214.224Z" fill="#4d4d4d"/>
      <path id="Path_162" data-name="Path 162" d="M3267.44,3204.444h2.714V3214.9h-1.319v-1.365h-2.58v1.65h-1.32v-10.74h1.785a29.565,29.565,0,0,0,.465-3.015l1.62.345A17.926,17.926,0,0,1,3267.44,3204.444Zm1.4.675h-2.58v3.315h2.58Zm0,7.74v-3.75h-2.58v3.75Zm8.355-8.385a71.222,71.222,0,0,1-.36,9.195c-.33,1.95-2.086,2.505-4.905.075l.255-.48c2.415.975,3.09,1.05,3.285-.165a60.628,60.628,0,0,0,.33-7.95h-3.15a14.2,14.2,0,0,1-1.98,3.5l-.435-.33a21.747,21.747,0,0,0,1.844-6.84l1.576.315a19.049,19.049,0,0,1-.75,2.685Zm-3.645,6.84a27.04,27.04,0,0,0-1.71-3.87l.435-.345a12.958,12.958,0,0,1,2.64,3.45Z" fill="#4d4d4d"/>
      <path id="Path_163" data-name="Path 163" d="M3282.768,3210.849a8.5,8.5,0,0,1-2.911,4.3l-.345-.39a10.15,10.15,0,0,0,2.416-5.9h-2.205v-.675H3282q.092-1.193.09-2.385v-.375h-2.1v-.674h2.1v-3.181h1.291v3.181h1.754v.674h-1.754v.6q0,1.08-.091,2.16h2.115v.675H3283.2a2.5,2.5,0,0,0,2.715,3.57l-1.034,1.095A15,15,0,0,0,3282.768,3210.849Zm8.25,4.3c-1.846,0-2.011-.36-2.011-1.53v-3.33h-.48c-.33,3.09-1.679,4.545-4.455,5.31l-.21-.51a4.926,4.926,0,0,0,3.361-4.8h-1.516v-8.115h6.15v8.115h-1.56v3.045c0,.495.12.615.795.615.765,0,.885-.15.87-2.3h.54C3293.147,3214.4,3293.117,3215.154,3291.018,3215.154Zm-4.08-10.575h3.659v-1.725h-3.659Zm0,2.43h3.659v-1.755h-3.659Zm0,2.61h3.659v-1.935h-3.659Z" fill="#4d4d4d"/>
      <path id="Path_164" data-name="Path 164" d="M3303.029,3213.459l.076.525a68.94,68.94,0,0,1-8.28,1.23l-.225-1.4C3296.984,3213.849,3300.285,3213.7,3303.029,3213.459Zm-.014-4.515h-8.385v-.675h3.479v-.735h-2.834v-.63h2.834v-.765h-2.579v-.63h2.579v-.825h-3.479v-.674h3.479v-.8h-2.534v-.63h2.534v-1.065h1.291v1.065h2.655v1.426h1.335v.674h-1.335v1.455H3299.4v.765h3.06v.63h-3.06v.735h3.615Zm-7.635,4v-3.315h6.78v3.315Zm1.261-1.98h1.529v-.705h-1.529Zm0,1.35h1.529v-.75h-1.529Zm2.729-1.35h1.53v-.705h-1.53Zm0,1.35h1.53v-.75h-1.53Zm.03-8.309h1.4v-.8h-1.4Zm0,1.5h1.4v-.825h-1.4Zm7.8-3.87v12.12c0,1.89-1.425,2.16-3.809.825l.149-.525c2.056.435,2.34.375,2.34-.48v-11.94Zm-2.324,10.32h-1.17v-9.045h1.17Z" fill="#4d4d4d"/>
      <path id="Path_165" data-name="Path 165" d="M3322.752,3209.5a23.2,23.2,0,0,1-.689,5.07c-.571,1.38-2.282,1.17-4.17-.285l.209-.495c2.009.645,2.52.645,2.759-.225a24.156,24.156,0,0,0,.452-3.39h-8.1a12.792,12.792,0,0,1-3.436,3.405l-.33-.435a17.983,17.983,0,0,0,4.89-7.935h-4.02v-.675h4.23a24.942,24.942,0,0,0,.69-3.149l1.515.315q-.315,1.416-.765,2.834h3.63c-.165.825-.3,1.666-.495,2.505h1.905c-.121.825-.255,1.635-.42,2.46Zm-10,1.815.525.135a10.442,10.442,0,0,1-1.094,3.765l-1.336-.885A8.306,8.306,0,0,0,3312.747,3211.314Zm-.03-6.885a19.677,19.677,0,0,0-1.56-2.535l.375-.389a9.129,9.129,0,0,1,2.355,1.994Zm.961,5.07h5.638c.106-.6.2-1.185.271-1.785h-4.905A18.757,18.757,0,0,1,3313.678,3209.5Zm1.139,1.785a15.474,15.474,0,0,1,.99,3.21l-1.455.2a27.489,27.489,0,0,0-.06-3.3Zm.93-6.075c-.225.616-.465,1.23-.735,1.83h2.82c.12-.615.21-1.23.3-1.83Zm2.385,8.19-1.305.435a25.521,25.521,0,0,0-.615-2.865l.5-.21A11.355,11.355,0,0,1,3318.132,3213.4Zm2.325-.735-1.215.6a15.212,15.212,0,0,0-1.006-2.535l.452-.315A8.1,8.1,0,0,1,3320.457,3212.664Z" fill="#4d4d4d"/>
      <path id="Path_166" data-name="Path 166" d="M3326.35,3211.059a12.648,12.648,0,0,1-.451,4.29l-1.469-.6a10.1,10.1,0,0,0,1.394-3.75Zm-.585-2.025a14.549,14.549,0,0,0,2.1-2.865,21.543,21.543,0,0,1-2.745.69l-.269-1.365c.33.03.66.045.99.06a18.927,18.927,0,0,0,1.365-4.095l1.364.45a18.151,18.151,0,0,1-2.1,3.66c.585,0,1.17-.03,1.769-.075.271-.54.54-1.14.781-1.77l1.335.57a15.913,15.913,0,0,1-3.81,4.71c.8-.045,1.619-.15,2.414-.27-.135-.39-.285-.78-.435-1.125l.451-.225a10.411,10.411,0,0,1,1.619,2.49l-1.139.525c-.091-.33-.2-.735-.33-1.14a24,24,0,0,1-3.99,1.23l-.375-1.47C3325.09,3209.034,3325.42,3209.034,3325.765,3209.034Zm1.8,1.845a24.623,24.623,0,0,1,1.035,3.525l-1.38.24c0-.915-.06-2.415-.136-3.675Zm2.955,2.475-1.215.5c-.211-.99-.526-2.22-.795-3.2l.449-.18A16.109,16.109,0,0,1,3330.52,3213.354Zm7.529.96v.675h-8.279v-.675h3.525v-3.18h-2.881v-.675h7.08v.675h-2.88v3.18Zm-.255-10.994H3330.1v-.676h7.694Zm-6.854,3.344a10.91,10.91,0,0,1,1.844,2.64l-1.38.615a11.716,11.716,0,0,0-1.185-3.24,13.9,13.9,0,0,0,1.08-3l1.41.555A13.34,13.34,0,0,1,3330.94,3206.664Zm2.91,3.255a15.345,15.345,0,0,0-1.26-3.24,16.294,16.294,0,0,0,1.125-2.985l1.35.57a11.643,11.643,0,0,1-1.77,2.4,10.5,10.5,0,0,1,1.949,2.64Zm2.444-.015a16.473,16.473,0,0,0-1.425-3.225,14.523,14.523,0,0,0,1.186-2.985l1.364.6a13.078,13.078,0,0,1-1.829,2.37,9.775,9.775,0,0,1,2.069,2.61Z" fill="#4d4d4d"/>
      <path id="Path_167" data-name="Path 167" d="M3343.822,3207.159l.6-.72a45.777,45.777,0,0,1,4.574,3.27l-1.379,1.545C3346.267,3209.664,3345.111,3208.509,3343.822,3207.159Z" fill="#4d4d4d"/>
      <path id="Path_168" data-name="Path 168" d="M3368.269,3213.414v.825h-13.485v-.825h3.691c.4-2.025.718-3.765,1-5.55h-2.76v-.72h2.881c.179-1.14.343-2.31.509-3.6h-4.08v-.75h10.994v.75h-5.474c-.165,1.29-.33,2.46-.51,3.6h4.77v6.27Zm-8.355,0h4.515v-5.55h-3.51C3360.634,3209.649,3360.318,3211.389,3359.914,3213.414Z" fill="#4d4d4d"/>
      <path id="Path_169" data-name="Path 169" d="M3369.8,3211.134c1.229-1.635,1.379-3.36,1.3-6.255v-1.619h6.628c-.059-.571-.119-1.156-.149-1.77h1.274c.045.629.091,1.214.151,1.77h2.115c-.48-.511-1.064-1.065-1.5-1.44l.285-.48a9.82,9.82,0,0,1,2.295,1.184l-.6.736h1.545v.674h-4.066a12.686,12.686,0,0,0,.81,3.27,12.392,12.392,0,0,0,1.05-2.58l1.275.525a12.448,12.448,0,0,1-1.725,3.1,3.7,3.7,0,0,0,1.215,1.065c.555.3.63.06.63-1.92h.54c.854,3.045.03,3.78-1.17,3.435a3.885,3.885,0,0,1-2.085-1.575,9.558,9.558,0,0,1-2.04,1.575l-.315-.435a9.609,9.609,0,0,0,1.86-1.95,14.149,14.149,0,0,1-1.3-4.515h-5.34v1.141c-.014,3.764-.84,5.159-2.294,6.449Zm2.4-.09.525.075a5.7,5.7,0,0,1-1.709,3.87l-1.066-1.08A4.76,4.76,0,0,0,3372.2,3211.044Zm5.37-5.28h-4.8v-.675h4.8Zm-.24,3.96h-4.394v-2.9h4.394Zm2.49,2.04c.885,2.52.254,3.075-1.006,3.21a25.827,25.827,0,0,1-3.253.045c-1.635-.075-2.2-.18-2.2-1.47v-2.925h1.289v2.355c0,.63.15.78,1.02.84a17.069,17.069,0,0,0,2.835-.045c.7-.09.824-.3.779-2.01Zm-3.675-4.26H3374.1v1.545h2.039Zm-.375,2.97a9.3,9.3,0,0,1,2.55,1.68l-.974.99a22.781,22.781,0,0,0-1.875-2.265Zm7.544,3.555-1.378.75a20.224,20.224,0,0,0-1.5-3.435l.42-.33A10.676,10.676,0,0,1,3383.31,3214.029Z" fill="#4d4d4d"/>
      <path id="Path_170" data-name="Path 170" d="M3089.782,3231.32h-3.854v-.75h4.934c0,5.729,2.43,9.119,6.255,11.219l-1.23,1.665c-2.295-1.59-4.41-3.825-5.19-8.535a12.988,12.988,0,0,1-6.96,8.535l-.3-.48C3087.037,3240.739,3089.422,3236.629,3089.782,3231.32Z" fill="#4d4d4d"/>
      <path id="Path_171" data-name="Path 171" d="M3100.865,3234.9l.539.075a13.035,13.035,0,0,1-1.17,5.8l-1.634-.9A10.363,10.363,0,0,0,3100.865,3234.9Zm1.8,5.94v-8.04h1.441v7.755c0,.78.149.96.989,1.02a11.372,11.372,0,0,0,1.89,0c1.1-.09,1.29-.33,1.276-3.18h.569c1.05,3.42.675,4.32-1.364,4.515a15.006,15.006,0,0,1-2.6,0C3103.069,3242.779,3102.664,3242.689,3102.664,3240.844Zm.676-10.83.285-.524a14.593,14.593,0,0,1,4.574,2.564l-1.185,1.35A21.583,21.583,0,0,0,3103.34,3230.014Zm5.295,4.7.494-.3a17.855,17.855,0,0,1,3.045,4.845l-1.664.69A30.363,30.363,0,0,0,3108.635,3234.709Z" fill="#4d4d4d"/>
      <path id="Path_172" data-name="Path 172" d="M3116.717,3232.444h2.715V3242.9h-1.321v-1.365h-2.58v1.65h-1.319v-10.74H3116a29.223,29.223,0,0,0,.465-3.015l1.62.345A17.926,17.926,0,0,1,3116.717,3232.444Zm1.394.675h-2.58v3.315h2.58Zm0,7.74v-3.75h-2.58v3.75Zm8.356-8.385a70.931,70.931,0,0,1-.361,9.195c-.33,1.95-2.084,2.505-4.905.075l.256-.48c2.414.975,3.09,1.05,3.285-.165a60.357,60.357,0,0,0,.329-7.95h-3.149a14.21,14.21,0,0,1-1.981,3.5l-.434-.33a21.835,21.835,0,0,0,1.845-6.84l1.575.315a19.183,19.183,0,0,1-.75,2.685Zm-3.645,6.84a27.1,27.1,0,0,0-1.711-3.87l.436-.345a12.963,12.963,0,0,1,2.64,3.45Z" fill="#4d4d4d"/>
      <path id="Path_173" data-name="Path 173" d="M3130.544,3239.149a12.6,12.6,0,0,1-.569,4.17l-1.381-.585a9.946,9.946,0,0,0,1.41-3.675Zm2.521-3.72a9.634,9.634,0,0,1,1.514,2.535l-1.17.45c-.091-.36-.165-.69-.27-1.02a30.553,30.553,0,0,1-4.02,1.335l-.4-1.335c.344-.015.719-.045,1.109-.075a25.265,25.265,0,0,0,1.981-2.985,23.259,23.259,0,0,1-2.58.66l-.271-1.215c.3,0,.6,0,.886-.015a22.665,22.665,0,0,0,1.5-4.274l1.395.435a19.589,19.589,0,0,1-2.25,3.824c.585-.029,1.17-.075,1.7-.12.284-.554.584-1.155.885-1.845l1.259.675a24.777,24.777,0,0,1-3.72,4.77c.826-.1,1.635-.255,2.371-.39-.121-.39-.241-.765-.391-1.14Zm-1.426,3.405a22.974,22.974,0,0,1,1.2,3.36l-1.319.3c-.106-.945-.211-2.43-.391-3.525Zm1.275-.435a13.211,13.211,0,0,1,1.635,2.64l-1.154.57c-.271-.915-.6-2.07-.946-2.94Zm8.715-7.619v12.494h-1.32v-1.32h-4.321v1.47H3134.7V3230.78Zm-4.141.674h-1.5v4.365h1.5Zm0,5.04h-1.5v4.785h1.5Zm2.821-5.04h-1.56v4.365h1.56Zm0,5.04h-1.56v4.785h1.56Z" fill="#4d4d4d"/>
      <path id="Path_174" data-name="Path 174" d="M3144.057,3234.409l-.346-.405a12.682,12.682,0,0,0,2.445-4.575l1.38.42a8.837,8.837,0,0,1-.659,1.29h3.989v.675h-2.535a7.159,7.159,0,0,1,1.08,1.8l-1.26.36a19.127,19.127,0,0,0-.51-2.16h-1.2A10.846,10.846,0,0,1,3144.057,3234.409Zm7,7.47-1.214.75c-.15-.375-.42-.93-.719-1.515a25.275,25.275,0,0,1-4.815,1.815l-.525-1.47q.652-.067,1.35-.18v-7.065h5.279v4.38h-3.99v2.46c.795-.15,1.6-.33,2.4-.54-.24-.435-.48-.87-.689-1.185l.42-.36A12.756,12.756,0,0,1,3151.06,3241.879Zm-4.634-5.85h2.73v-1.14h-2.73Zm0,1.89h2.73V3236.7h-2.73Zm10.71-6.78v.675h-2.85a7.737,7.737,0,0,1,1.125,1.62l-1.261.45a13.1,13.1,0,0,0-.644-2.07h-1.335a9.831,9.831,0,0,1-2.01,2.13l-.36-.375a11.418,11.418,0,0,0,2.07-4.11l1.4.45a9.6,9.6,0,0,1-.645,1.23Zm-.975,3.045.03,6.54c0,1.185-1.634,1.41-3.166.285l.136-.51c1.455.345,1.739.3,1.739-.405v-5.235h-2.159v8.685h-1.29v-9.36Z" fill="#4d4d4d"/>
      <path id="Path_175" data-name="Path 175" d="M3172.029,3237.5a23.017,23.017,0,0,1-.69,5.07c-.57,1.38-2.28,1.17-4.17-.285l.21-.495c2.01.645,2.519.645,2.76-.225a24.448,24.448,0,0,0,.45-3.39h-8.1a12.8,12.8,0,0,1-3.434,3.405l-.33-.435a17.992,17.992,0,0,0,4.889-7.935h-4.02v-.675h4.23a24.857,24.857,0,0,0,.69-3.149l1.515.315q-.316,1.416-.765,2.834h3.63c-.165.825-.3,1.666-.5,2.505h1.906c-.12.825-.255,1.635-.42,2.46Zm-10.006,1.815.526.135a10.443,10.443,0,0,1-1.095,3.765l-1.335-.885A8.3,8.3,0,0,0,3162.023,3239.314Zm-.029-6.885a19.568,19.568,0,0,0-1.56-2.535l.375-.389a9.129,9.129,0,0,1,2.355,1.994Zm.96,5.07h5.64c.1-.6.2-1.185.269-1.785h-4.9A18.659,18.659,0,0,1,3162.954,3237.5Zm1.14,1.785a15.474,15.474,0,0,1,.99,3.21l-1.455.2a27.5,27.5,0,0,0-.061-3.3Zm.929-6.075c-.224.616-.464,1.23-.734,1.83h2.82c.12-.615.209-1.23.3-1.83Zm2.385,8.19-1.3.435a25.106,25.106,0,0,0-.616-2.865l.5-.21A11.344,11.344,0,0,1,3167.408,3241.4Zm2.326-.735-1.214.6a15.211,15.211,0,0,0-1.006-2.535l.45-.315A8.044,8.044,0,0,1,3169.734,3240.664Z" fill="#4d4d4d"/>
      <path id="Path_176" data-name="Path 176" d="M3175.627,3239.284a12.377,12.377,0,0,1-.5,4.155l-1.364-.615a9.326,9.326,0,0,0,1.364-3.6Zm-.811-1.95a13.763,13.763,0,0,0,1.951-2.97,17.083,17.083,0,0,1-2.4.57l-.269-1.365c.315.03.614.06.915.075a18.6,18.6,0,0,0,1.365-4.065l1.364.451a18.049,18.049,0,0,1-2.1,3.644c.479.015.944,0,1.454-.03.256-.54.51-1.14.75-1.785l1.32.57a16,16,0,0,1-3.555,4.755c.735-.15,1.5-.33,2.221-.51-.121-.345-.256-.675-.391-.99l.391-.225a9.794,9.794,0,0,1,1.68,2.325l-1.125.525c-.09-.36-.226-.735-.361-1.14a27.653,27.653,0,0,1-3.54,1.59l-.554-1.3C3174.217,3237.424,3174.517,3237.379,3174.816,3237.334Zm1.92,1.665a30.407,30.407,0,0,1,1.065,3.48l-1.334.255c0-.945-.106-2.415-.226-3.63Zm10.574,2.19h-3.389v2.385H3182.6v-2.385h-1.965c-.077.3-.166.6-.256.855l-1.244-.165c.09-.255.179-.57.269-.9l-1.154.525a19.271,19.271,0,0,0-.766-2.76l.451-.21a13.377,13.377,0,0,1,1.485,2.385c.18-.66.359-1.38.465-1.89l1.26.24c-.09.375-.2.81-.316,1.245h1.771v-1.74h-3.586v-.675h3.586v-.93h-2.776v-2.595h6.345v2.595h-2.25v.93h3.12v.675h-3.12v1.74h3.389Zm-5.833-9.525h-1.891v-.674h2.04c.12-.511.226-1.02.33-1.5l1.274.225c-.089.4-.179.839-.284,1.275h2.82v2.219h1.44v.675h-8.175v-.675h2.085Zm-.391,4.83h3.825v-1.26h-3.825Zm1.71-4.83c-.12.525-.255,1.05-.39,1.545h2.071v-1.545Z" fill="#4d4d4d"/>
      <path id="Path_177" data-name="Path 177" d="M3194.4,3239.089a2.967,2.967,0,0,0,1.906-2.4,1.562,1.562,0,0,1-.51.075,1.2,1.2,0,1,1,.015-2.4c.915,0,1.514.555,1.514,1.68a3.447,3.447,0,0,1-2.609,3.465Z" fill="#4d4d4d"/>
      <path id="Path_178" data-name="Path 178" d="M3216.631,3243.454a8.029,8.029,0,0,0-12.151.015l-.194-.495a13.755,13.755,0,0,0,5.88-3.135,14.248,14.248,0,0,1-2.4-3.78l.464-.285a17.7,17.7,0,0,0,2.7,3.21,12.99,12.99,0,0,0,1.934-3.48l1.471.69a15.7,15.7,0,0,1-2.385,3.585,13.9,13.9,0,0,0,5.534,1.95Zm-12-5.76-.27-.465a13.547,13.547,0,0,0,3.75-4.245l1.365.841A14.011,14.011,0,0,1,3204.631,3237.694Zm12.42-4.92H3204.48v-.824h6.241c-.661-.676-1.68-1.59-2.311-2.116l.271-.48a13.988,13.988,0,0,1,3.344,1.68l-.7.916h5.731Zm-4.516.33a18.509,18.509,0,0,1,4.725,2.985l-1.139,1.215a26.476,26.476,0,0,0-3.871-3.72Z" fill="#4d4d4d"/>
      <path id="Path_179" data-name="Path 179" d="M3220.738,3239.149a11.751,11.751,0,0,1-.42,4.185l-1.365-.585a8.778,8.778,0,0,0,1.276-3.66Zm-.54-1.935a16.887,16.887,0,0,0,1.545-2.79,13.517,13.517,0,0,1-1.934.57l-.33-1.23c.24.015.464.03.689.03a19.633,19.633,0,0,0,1.2-4.289l1.364.449a23.287,23.287,0,0,1-1.994,3.855c.436-.015.856-.03,1.3-.075.24-.585.48-1.2.721-1.875l1.244.57a21.524,21.524,0,0,1-3.15,4.77,16.786,16.786,0,0,0,1.874-.18c-.134-.39-.284-.795-.419-1.155l.435-.225a8.849,8.849,0,0,1,1.516,2.415l-1.1.51c-.074-.315-.165-.66-.27-1a17.151,17.151,0,0,1-3.315,1.035l-.345-1.38Zm1.5,1.755a25.933,25.933,0,0,1,.976,3.6l-1.306.21c.015-.945-.03-2.505-.12-3.72Zm1.05-.39a17.636,17.636,0,0,1,1.529,3.135l-1.17.39c-.179-.99-.509-2.385-.794-3.345Zm7.74,4.3a4.423,4.423,0,0,1-.795-1.53,9.292,9.292,0,0,1-3.675,2.22l-.225-.45a9.559,9.559,0,0,0,3.585-2.94,29.168,29.168,0,0,1-.495-4.755h-5.43v-.675h1.485a18.35,18.35,0,0,0-.57-2.25l.465-.21a9.176,9.176,0,0,1,1.215,2.19l-.75.27h1.306a16.816,16.816,0,0,0,.464-2.52l1.185.315a13.652,13.652,0,0,1-1.035,2.2h1.636c-.061-1.755-.045-3.554-.032-5.144l1.276.029c0,1.456-.045,3.3-.015,5.115h2.46v.675H3230.1c.045,1.065.1,2.115.21,3.045a19.936,19.936,0,0,0,.84-2.34l1.2.555a14.4,14.4,0,0,1-1.725,3.54,5.8,5.8,0,0,0,.42,1.14c.765,1.44.645-.03.6-1.86h.525C3233.2,3242.869,3232.107,3244.729,3230.488,3242.884Zm-1.875-10.815h-4.756v-.66h2.25a16.689,16.689,0,0,0-1.244-1.589l.315-.42a8.8,8.8,0,0,1,2.025,1.394l-.631.615h2.041Zm-3.1,9.135v1.035h-1.17v-6h4.019v4.965Zm0-2.835h1.68v-1.455h-1.68Zm0,.63v1.53h1.68V3239Zm5.625-4.905a29.214,29.214,0,0,0-.645-2.85l.48-.225a12.792,12.792,0,0,1,1.364,2.67Z" fill="#4d4d4d"/>
      <path id="Path_180" data-name="Path 180" d="M3247.54,3241.924v.825h-12.779v-.825h5.729v-3.81h-4.335v-.75h4.335v-3.27h-3.074a11.034,11.034,0,0,1-2.371,3.1l-.4-.345a15.457,15.457,0,0,0,2.535-6.63l1.529.435a14.49,14.49,0,0,1-.945,2.715h2.73v-3.75h1.41v3.75h4.635v.72H3241.9v3.27h4.275v.75H3241.9v3.81Z" fill="#4d4d4d"/>
      <path id="Path_181" data-name="Path 181" d="M3251.482,3235.849a28.622,28.622,0,0,0-2.294-2.715l.315-.465a14.878,14.878,0,0,1,3.015,2.01Zm.721.675.51.165a58.273,58.273,0,0,1-1.561,6.5l-1.574-.72A58.58,58.58,0,0,0,3252.2,3236.524Zm-.15-3.929c-.615-.826-1.516-1.891-2.16-2.6l.345-.449a14.051,14.051,0,0,1,2.865,1.949Zm6.479,2.339v2.595h3.226v5.9h-1.351v-1.05h-5.085v1.125h-1.349v-5.97h3.15v-2.595h-4.051v-.675h4.051v-2.37c-1.365.2-2.641.331-3.405.375l-.1-.555a26.881,26.881,0,0,0,6.959-2.025l1.35,1.215a26.241,26.241,0,0,1-3.39.765v2.595h4.215v.675Zm-3.21,3.27v3.48h5.085v-3.48Z" fill="#4d4d4d"/>
      <path id="Path_182" data-name="Path 182" d="M3269.42,3232.729h-4.755v-.675h2.22a13.928,13.928,0,0,0-1.455-2.22l.36-.389a12.318,12.318,0,0,1,2.444,1.98l-.809.629h1.995Zm-4.365,5.55h3.99v5.07h-1.2v-1.02h-1.59v1.155h-1.2Zm3.885-3.51h-3.825v-.63h3.825Zm-3.825,1.365h3.825v.645h-3.825Zm1.14,5.565h1.59v-2.79h-1.59Zm5.13-5.325a13.82,13.82,0,0,1-2.265,1.11l-.24-.495a11.863,11.863,0,0,0,2.34-1.44v-4.365h1.17v3.3a13.612,13.612,0,0,0,2.759-4.454l1.17.54a14.915,14.915,0,0,1-3.825,4.994.767.767,0,0,0,.615.3,9.17,9.17,0,0,0,1.441.015c.585-.03.809-.24.795-1.755l.51-.03c.434,1.665.66,2.775-1.05,2.85-.69.03-1.471.03-2.145,0C3271.925,3236.914,3271.55,3236.749,3271.385,3236.374Zm-2.295-1.32a10.383,10.383,0,0,0,1.109-2.985l.511.075a14.383,14.383,0,0,1-.45,3.375Zm7.934,7.26h.8v.675h-8.474v-.675h.78v-4.545h6.9Zm-5.7,0h.84v-3.87h-.84Zm.2-12.449.224-.48a12.715,12.715,0,0,1,2.58,1.214l-.795,1.05A14.411,14.411,0,0,0,3271.52,3229.865Zm2.46,8.579h-.885v3.87h.885Zm1.815,0h-.885v3.87h.885Zm.524-6.15a10.337,10.337,0,0,1,1.546,2.745l-1.2.42a19.2,19.2,0,0,0-.8-2.94Z" fill="#4d4d4d"/>
      <path id="Path_183" data-name="Path 183" d="M3284.6,3238.159a23.458,23.458,0,0,1-4.726,2.7l-.614-1.425c.465-.1,1.184-.3,2.01-.57v-5.13h-1.756v-.675h1.756v-3.464h1.289v3.464h1.621v.675h-1.621v4.7c.631-.225,1.246-.48,1.815-.75Zm6.269,4.965c-2.054-.015-2.445-.225-2.445-1.485v-2.2h-.6c-.435,2.04-2.1,3.66-5.58,4.26l-.15-.525c2.58-.78,4.006-1.995,4.394-3.735h-1.769v-3.9h7.035v3.9h-2.07v1.725c0,.69.09.8,1.215.81s1.169-.24,1.214-2.07h.51C3293.057,3242.239,3293.312,3243.139,3290.867,3243.124Zm-5.28-11.16h-1.23v-.675h3.991c-.66-.449-1.5-.989-2.116-1.38l.165-.509a15.655,15.655,0,0,1,2.91.96l-.539.929h3.478v.675h-2.069l.886.39a10.777,10.777,0,0,1-1.5,1.68h3.119v.675h-8.715l-.015-.675h2.58a18.848,18.848,0,0,0-1.11-1.89Zm.39,5.145h4.515v-.9h-4.515Zm0,1.65h4.515v-.975h-4.515Zm3.7-6.795h-3.66a7.545,7.545,0,0,1,1.589,1.5l-.779.57h1.995A11.5,11.5,0,0,0,3289.682,3231.964Z" fill="#4d4d4d"/>
      <path id="Path_184" data-name="Path 184" d="M3299.37,3236.554a1.982,1.982,0,0,1,.555-1.425,1.823,1.823,0,0,1,1.365-.6,2.028,2.028,0,0,1,0,4.05A1.987,1.987,0,0,1,3299.37,3236.554Zm3.1,0a1.212,1.212,0,0,0-1.185-1.245,1.253,1.253,0,0,0-.825,2.13,1.08,1.08,0,0,0,.825.36A1.212,1.212,0,0,0,3302.475,3236.554Z" fill="#4d4d4d"/>
      <path id="Path_185" data-name="Path 185" d="M3316.992,3242.284h5.9v.675h-13.155v-.675h5.88v-2.055h-4.335v-.675h4.335v-1.62h1.38v1.62h4.289v.675h-4.289Zm-5.025-3.825h-1.32v-8.25h5.97v.676h-2.085v1.544h1.816v2.82h-1.816v1.785h1.906v.675h-4.471Zm0-6.03h1.3v-1.544h-1.3Zm0,2.145h3.09v-1.47h-3.09Zm0,.675v1.785h1.3v-1.785Zm6.9.03a11.261,11.261,0,0,1-1.3-4.32h-.661v-.645h3.525l.315-.27,1.334.48a12.336,12.336,0,0,1-1.92,4.77,8.172,8.172,0,0,0,2.851,1.8l-.885,1.44a8.579,8.579,0,0,1-2.7-2.4,9.791,9.791,0,0,1-2.385,1.7l-.285-.45A7.828,7.828,0,0,0,3318.867,3235.279Zm.555-.9a11.9,11.9,0,0,0,1.1-3.42H3318.1A8.85,8.85,0,0,0,3319.422,3234.379Z" fill="#4d4d4d"/>
      <path id="Path_186" data-name="Path 186" d="M3328.18,3237.214v4.92c0,1.3-1.231,1.89-3.36.435l.15-.5c1.575.375,1.889.285,1.889-.42V3237.8c-.674.285-1.29.54-1.74.69l-.494-1.455c.555-.09,1.379-.255,2.234-.45v-2.925h-2.039v-.675h2.039v-3.4h1.321v3.4h1.785v.675h-1.785v2.58c.615-.18,1.2-.36,1.7-.555l.225.51C3329.574,3236.524,3328.885,3236.869,3328.18,3237.214Zm9.809,0v.675h-2.16v4.215c0,1.3-1.229,2.1-3.8.24l.21-.525c1.936.585,2.235.48,2.235-.3v-3.63h-5.354v-.675h5.354v-1.74h1.35v1.74Zm-5.295-4.74h-2.879v-.629h2.879v-2.235h1.351v2.235h3.029v.629h-3.029v2.04h3.764v.675h-8.549v-.675h3.434Zm.09,7.92-1.17.855a21.977,21.977,0,0,0-1.44-2.64l.391-.36A9.759,9.759,0,0,1,3332.784,3240.394Z" fill="#4d4d4d"/>
      <path id="Path_187" data-name="Path 187" d="M3342.217,3234.484c0,3.81-.106,6.825-2.25,9.09l-.345-.315c1.14-1.98,1.275-4.4,1.275-8.9v-3h6.375a19.554,19.554,0,0,0-2.356-1.4l.15-.525a13.321,13.321,0,0,1,3.436.974l-.555.946h4.844v.674h-10.574Zm10.949,7.08-.644,1.515a24.182,24.182,0,0,1-4.35-.1,6.325,6.325,0,0,1-3.78-1.515,6.99,6.99,0,0,1-2.745,2.13l-.27-.42a7.134,7.134,0,0,0,2.369-2.49,7.525,7.525,0,0,1-1.019-2.7l.495-.15a6.626,6.626,0,0,0,.944,2.01,12.53,12.53,0,0,0,.781-2.85l-.705-.015c-.09.225-.166.4-.24.57l-1.141-.285a28.881,28.881,0,0,0,1.321-3.539h-1.5v-.706h3.029c-.254.706-.749,2.13-1.2,3.3h.5l.194-.18,1.141.465a11.153,11.153,0,0,1-1.4,4.05,6.1,6.1,0,0,0,3.254,1.035A26.2,26.2,0,0,0,3353.166,3241.564Zm-4.2-1.755v-2.73h-2.16v-.66h2.16v-2.19a20.226,20.226,0,0,1-2.311.21l-.09-.495a15.367,15.367,0,0,0,4.77-1.619l.961,1.154a16.138,16.138,0,0,1-2.07.525v2.415h2.264v.66h-2.264v2.73h2.474v.69h-6.164v-.69Z" fill="#4d4d4d"/>
      <path id="Path_188" data-name="Path 188" d="M3367.443,3230.209v13.245h-1.32v-.885h-9.209v.915h-1.32v-13.275Zm-1.32.676h-9.209v11.009h9.209Zm-8.683,8.819-.18-.51a10.521,10.521,0,0,0,2.894-1.62h-1.724v-2.445h6.148v2.445h-2.819a6.115,6.115,0,0,1-1.021.75v1.53c.6-.165,1.157-.33,1.577-.465l.208.5a22.494,22.494,0,0,1-4.333,1.71l-.42-1.065c.494-.075,1.109-.21,1.739-.36v-1.185A15.825,15.825,0,0,1,3357.44,3239.7Zm8.2-5.22h-8.294v-.675h3.509v-.87h-2.895v-.675h2.895v-.99h1.289v.99h2.911v.675h-2.911v.87h3.5Zm-5.954,2.43h3.628v-1.125h-3.628Zm6.1,1.245a8.783,8.783,0,0,1-1.681,1.11,13.991,13.991,0,0,1,1.741,1.17l-.885,1.05a25.755,25.755,0,0,0-3.39-2.925l.255-.465a18.649,18.649,0,0,1,1.74.855,10.371,10.371,0,0,0,1.26-1.515Z" fill="#4d4d4d"/>
      <path id="Path_189" data-name="Path 189" d="M3376.156,3235.339h-6.21v-.675h2.491v-1.125h-1.831v-.674h1.831v-1.081h-2.265v-.675h2.265v-1.5h1.29v1.5h2.189v.675h-2.189v1.081h1.785v.674h-1.785v1.125h2.429Zm-5.594.9h4.95v6.09c0,1.095-1.021,1.65-2.941.555l.12-.525c1.38.27,1.561.135,1.561-.45v-1.38h-2.431v2.97h-1.274Zm1.259.675v1.125h2.431v-1.125Zm2.431,2.94v-1.14h-2.431v1.14Zm1.933-8.64-.1-.525a15.687,15.687,0,0,0,5.43-1.244l1.245,1.094A30.285,30.285,0,0,1,3376.185,3231.214Zm7.411,5.19v.675h-1.065v3.015h-1.23v-.825h-1.321v3.06c0,1.095-1.2,1.68-3.329.4l.15-.51c1.679.36,1.86.225,1.86-.465v-2.49h-2.13v-.675h2.13v-1.515h-2.55v-.675h2.55v-1.365h-2.04v-.675h5.91v2.04Zm-7.125-4.68.405-.21a10.018,10.018,0,0,1,1.38,2.325l-1.109.42A16.173,16.173,0,0,0,3376.471,3231.724Zm1.845-.18.435-.179a10.573,10.573,0,0,1,1.261,2.384l-1.08.36A20.934,20.934,0,0,0,3378.316,3231.544Zm1.664,4.86h1.321v-1.365h-1.321Zm1.321,2.19v-1.515h-1.321v1.515Zm-.869-4.65a16.371,16.371,0,0,0,.824-2.82l1.26.465a13.4,13.4,0,0,1-1.664,2.565Z" fill="#4d4d4d"/>
      <path id="Path_190" data-name="Path 190" d="M3085.793,3262.9l.539.075a13.052,13.052,0,0,1-1.17,5.8l-1.635-.9A10.354,10.354,0,0,0,3085.793,3262.9Zm1.8,5.94v-8.04h1.44v7.755c0,.78.15.96.99,1.02a11.375,11.375,0,0,0,1.89,0c1.095-.09,1.29-.33,1.276-3.18h.569c1.05,3.42.675,4.32-1.364,4.515a15,15,0,0,1-2.6,0C3088,3270.779,3087.592,3270.689,3087.592,3268.844Zm.676-10.83.285-.524a14.6,14.6,0,0,1,4.574,2.564l-1.186,1.35A21.614,21.614,0,0,0,3088.268,3258.014Zm5.295,4.7.494-.3a17.855,17.855,0,0,1,3.045,4.845l-1.664.69A30.363,30.363,0,0,0,3093.563,3262.709Z" fill="#4d4d4d"/>
      <path id="Path_191" data-name="Path 191" d="M3102.664,3263.159l.6-.72a45.885,45.885,0,0,1,4.575,3.27l-1.381,1.545C3105.109,3265.664,3103.955,3264.509,3102.664,3263.159Z" fill="#4d4d4d"/>
      <path id="Path_192" data-name="Path 192" d="M3117.587,3259.214h-3.81v-.63h3.81V3257.5h1.35v1.079h2.82V3257.5h1.349v1.079h3.945v.63h-3.945v.8h-1.349v-.8h-2.82v.7h-1.35Zm-3.81,9.045h13.2v.63h-3.705a9.749,9.749,0,0,1,2.625,1.785l-.93.99c-.285-.375-.66-.84-1.066-1.29a61.917,61.917,0,0,1-8.069.87l-.346-1.335c.5.045,1.231.075,2.071.09a9.684,9.684,0,0,0,.57-1.11h-4.35Zm2.28-5.43h-1.875v-.6h2.775v-.6h-2.16v-.57h2.16v-.87h1.17v.87h2.189v.57h-2.189v.6h2.595v.6h-1.62v.165c0,.285.1.36.615.36a1.118,1.118,0,0,0,.795-.345l.465.6a1.728,1.728,0,0,1-1.366.5c-1.184,0-1.469-.225-1.469-.945v-.33h-.99c-.24,1.08-1.53,1.74-3.134,1.935l-.136-.42C3114.826,3264.134,3115.816,3263.714,3116.057,3262.829Zm.855,3.1v-.765h-1.846v-.57h1.846v-.945h1.2v.945h2.01v.57h-2.01v.675c1.1-.1,2.026-.225,2.506-.315l.1.45a31.532,31.532,0,0,1-6.12,1.11l-.255-1.05C3115.156,3266.039,3116.042,3265.994,3116.912,3265.934Zm7.56,1.635h-7.68v-.6h7.68Zm-1.771,1.56.18-.24h-3.225a12.332,12.332,0,0,1-1.319,1.125c1.739.03,3.749.015,5.189-.06C3123.242,3269.654,3122.972,3269.369,3122.7,3269.129Zm.571-6.885a9.016,9.016,0,0,1-.255,1.74,7.28,7.28,0,0,1,1.38,1.215l-.78.855a14.335,14.335,0,0,0-.945-1.14,4.258,4.258,0,0,1-2,1.905l-.271-.36a3.579,3.579,0,0,0,1.516-2.31c-.33-.315-.676-.63-1.051-.945l.24-.375c.316.165.631.345.915.51.031-.315.046-.69.06-1.1h-1.215v-.585h1.231c.015-.405.015-.855.015-1.365l1.185.015c.014.495.014.931,0,1.35h2c-.061,2.265.1,3.63.689,4.005.436.285.36-.96.315-1.8h.525c.825,2.88-.224,3.51-1.139,3.045-1.23-.63-1.486-2.145-1.486-4.665Z" fill="#4d4d4d"/>
      <path id="Path_193" data-name="Path 193" d="M3138.523,3261.884h-2.684v9.615h-1.29v-9.615h-2.026a12.842,12.842,0,0,1-.854,1.545v8.07h-1.26v-6.36a9.9,9.9,0,0,1-1.469,1.425l-.361-.39a15.984,15.984,0,0,0,3.135-6.12l1.29.541c-.061.209-.12.4-.195.614h1.74v-3.585h1.29v3.585h2.684Zm-9.494.435-.375-.39a12.737,12.737,0,0,0,2.31-4.47l1.32.511A11.467,11.467,0,0,1,3129.029,3262.319Zm3.645.6h1.2c0,4.02-.165,5.55-1.335,6.99l-.45-.3C3132.914,3268.049,3132.674,3266.7,3132.674,3262.919Zm4.32-2.175a24.177,24.177,0,0,0-.735-2.384l.45-.256a7.15,7.15,0,0,1,1.439,2.16Zm1.08,7.725c-1.455,0-1.575-.21-1.575-1.62v-3.885h1.17v3.855c0,.465-.015.7.51.69a1,1,0,0,0,.78-.3l.375.84A1.74,1.74,0,0,1,3138.074,3268.469Zm4.08-6.15v.675h-1.215v7.11c0,1.335-1.246,2.1-3.315.33l.21-.51c1.455.525,1.845.555,1.845-.165v-6.765h-1.545v-.675Zm-.256-3.03h-3.629v-.674h3.629Z" fill="#4d4d4d"/>
      <path id="Path_194" data-name="Path 194" d="M3145.256,3260.144a10.822,10.822,0,0,1-.194,4.41l-1.366-.51a9.751,9.751,0,0,0,1.021-3.9Zm.511-2.52h1.29v13.89h-1.29Zm1.934,5.73a23.118,23.118,0,0,0-.494-3.255l.494-.165a11.7,11.7,0,0,1,1.186,3.12Zm8.22,7.665a9.755,9.755,0,0,1-1.739.03c-1.186-.1-1.545-.39-1.545-1.7v-3.87h-.586c-.09,2.91-.93,5.01-4.215,6.09l-.24-.465c2.461-1.3,3.1-2.895,3.15-5.625h-1.769v-4.695h1.724a18.337,18.337,0,0,0-1.365-2.94l.42-.315a13.956,13.956,0,0,1,2.28,2.73l-.885.525h1.665a16.538,16.538,0,0,0,.946-3.315l1.529.556a15.287,15.287,0,0,1-1.725,2.759h2.206v4.695h-1.846v3.585c0,.6.165.75.57.795a3.534,3.534,0,0,0,1.125-.03c.449-.09.585-.315.449-2.595h.526C3157.631,3270.239,3157.121,3270.9,3155.921,3271.019Zm-5.655-6.21h4.214v-3.345h-4.214Z" fill="#4d4d4d"/>
      <path id="Path_195" data-name="Path 195" d="M3161.154,3262.9l.54.075a13.034,13.034,0,0,1-1.171,5.8l-1.634-.9A10.343,10.343,0,0,0,3161.154,3262.9Zm1.8,5.94v-8.04h1.441v7.755c0,.78.149.96.989,1.02a11.361,11.361,0,0,0,1.889,0c1.1-.09,1.292-.33,1.276-3.18h.57c1.05,3.42.675,4.32-1.365,4.515a14.992,14.992,0,0,1-2.595,0C3163.359,3270.779,3162.954,3270.689,3162.954,3268.844Zm.675-10.83.285-.524a14.585,14.585,0,0,1,4.574,2.564l-1.184,1.35A21.617,21.617,0,0,0,3163.629,3258.014Zm5.3,4.7.495-.3a17.855,17.855,0,0,1,3.045,4.845l-1.665.69A30.281,30.281,0,0,0,3168.924,3262.709Z" fill="#4d4d4d"/>
      <path id="Path_196" data-name="Path 196" d="M3178.026,3263.159l.6-.72a45.862,45.862,0,0,1,4.574,3.27l-1.38,1.545C3180.471,3265.664,3179.316,3264.509,3178.026,3263.159Z" fill="#4d4d4d"/>
      <path id="Path_197" data-name="Path 197" d="M3196.338,3262.649v.855h4.711v.645h-4.711v.945h5.76v.675h-12.674v-.675h5.535v-.945h-4.62v-.645h4.62v-.855h-4.215v-.675h4.215v-.99h-5.715v-.675h5.715v-.884h-4.035v-.676h4.035v-1.259h1.379v1.259h4.11v1.56h1.83v.675h-1.83v1.665Zm-5.129,4.02h9.059v4.77h-1.32v-.735h-6.419v.78h-1.32Zm1.32,1.665h6.419v-1h-6.419Zm0,1.71h6.419v-1.065h-6.419Zm3.809-9.735h2.82v-.884h-2.82Zm0,1.665h2.82v-.99h-2.82Z" fill="#4d4d4d"/>
      <path id="Path_198" data-name="Path 198" d="M3217.635,3264.284l-.659,1.38a10.035,10.035,0,0,1-5.521-4.05V3265h-1.319v-3.36c-.855,1.62-2.97,3.27-5.925,4.215l-.195-.51a10.423,10.423,0,0,0,4.919-3.93h-4.394v-.675h5.595v-1.35c-1.7.12-3.375.15-4.6.12l-.075-.524c4.515-.241,6.78-.69,8.864-1.561l1.336,1.11a20.665,20.665,0,0,1-4.2.75v1.455h5.655v.675h-5.085A11.369,11.369,0,0,0,3217.635,3264.284Zm-11.084,1.08h8.5v6.12h-1.29v-1h-5.925v1.02h-1.29Zm1.29,2.22h5.925v-1.545h-5.925Zm0,2.22h5.925v-1.545h-5.925Z" fill="#4d4d4d"/>
      <path id="Path_199" data-name="Path 199" d="M3226.6,3269.189l.164.51a26.041,26.041,0,0,1-6.27,1.6l-.39-1.455c.66,0,1.335-.03,2.01-.075l.015-4.785a12.868,12.868,0,0,1-2.9,1.41l-.2-.495a10.36,10.36,0,0,0,4.035-3.225h-3.51V3262h5.625v-.72h-4.035v-.63h4.035v-.749h-4.755v-.676h3.615c-.39-.449-.946-1.05-1.334-1.455l.254-.405a8.25,8.25,0,0,1,2.175,1.2l-.554.659h2.353a9.248,9.248,0,0,0,.75-1.9l1.381.54a10.843,10.843,0,0,1-1.426,1.364h3.691v.676h-4.829v.749h4.093v.63h-4.093v.72h5.789v.675h-4.545c1.41,1.425,4.035,1.965,5.04,2.16l-.81,1.395a8.159,8.159,0,0,1-2.595-1.245v2.9h-5.985v1.785A30.992,30.992,0,0,0,3226.6,3269.189Zm-3.781-4.68h3.165c-.375-.42-.78-.855-1.17-1.215l.255-.45a8.516,8.516,0,0,1,1.965,1.02l-.511.645h2.221a6.526,6.526,0,0,1-1.6-1.83h-2.475A8.87,8.87,0,0,1,3222.823,3264.509Zm5.281.66h-4.7v.705h4.7Zm0,1.305h-4.7v.75h4.7Zm1.364,2.685a20.143,20.143,0,0,1,2.715,1.11l-.826,1.35a34.963,34.963,0,0,0-5.429-3.015l.165-.465c.886.225,1.8.5,2.684.78a6.62,6.62,0,0,0,1.276-1.695l1.2.825A11.489,11.489,0,0,1,3229.468,3269.159Z" fill="#4d4d4d"/>
      <path id="Path_200" data-name="Path 200" d="M3236.516,3262.9l.54.075a13.061,13.061,0,0,1-1.171,5.8l-1.635-.9A10.345,10.345,0,0,0,3236.516,3262.9Zm1.8,5.94v-8.04h1.441v7.755c0,.78.149.96.989,1.02a11.372,11.372,0,0,0,1.89,0c1.095-.09,1.291-.33,1.275-3.18h.57c1.05,3.42.675,4.32-1.365,4.515a14.981,14.981,0,0,1-2.594,0C3238.721,3270.779,3238.315,3270.689,3238.315,3268.844Zm.675-10.83.285-.524a14.6,14.6,0,0,1,4.575,2.564l-1.185,1.35A21.626,21.626,0,0,0,3238.99,3258.014Zm5.295,4.7.5-.3a17.848,17.848,0,0,1,3.045,4.845l-1.665.69A30.281,30.281,0,0,0,3244.285,3262.709Z" fill="#4d4d4d"/>
      <path id="Path_201" data-name="Path 201" d="M3254.692,3267.089a2.966,2.966,0,0,0,1.906-2.4,1.56,1.56,0,0,1-.51.075,1.134,1.134,0,0,1-1.2-1.2,1.145,1.145,0,0,1,1.215-1.2c.915,0,1.514.555,1.514,1.68a3.447,3.447,0,0,1-2.609,3.465Z" fill="#4d4d4d"/>
      <path id="Path_202" data-name="Path 202" d="M3268.355,3265.2v5c0,1.53-1.621,1.65-3.735.495l.135-.51c2.04.405,2.25.225,2.25-.45v-3.93c-.795.33-1.515.6-2.055.765l-.57-1.44c.705-.12,1.649-.345,2.625-.6v-3.21h-2.34v-.675H3267v-3.06h1.35v3.06h2.19v.675h-2.19v2.82a22.852,22.852,0,0,0,2.205-.795l.21.51A17.179,17.179,0,0,1,3268.355,3265.2Zm9.45-5.85h-2.865v10.695c0,1.38-1.44,2.235-4.17.285l.179-.525c2.356.675,2.58.45,2.58-.315v-10.14h-3.705v-.674h7.981Z" fill="#4d4d4d"/>
      <path id="Path_203" data-name="Path 203" d="M3293.057,3269.429l-.375,1.515a60.349,60.349,0,0,1-6.135.06c-2.3-.135-3.285-.465-4.35-2.2a13.629,13.629,0,0,1-2.009,2.79l-.856-.885a9.752,9.752,0,0,0,2.131-2.085v-3.375h-1.981v-.69h3.3v3.945c.885,1.23,1.875,1.26,3.84,1.3A46.538,46.538,0,0,0,3293.057,3269.429Zm-11.219-6.045c-.5-.66-1.41-1.725-2.041-2.385l.3-.45a14.045,14.045,0,0,1,2.715,1.725Zm-1.141-5.34.285-.449a12.339,12.339,0,0,1,2.76,1.649l-.96,1.1A19.823,19.823,0,0,0,3280.7,3258.044Zm3.72,4.38-.42-.315a11.867,11.867,0,0,0,1.215-4.26l1.41.286a9.025,9.025,0,0,1-.585,1.8h1.41v-2.384h1.38v2.384h2.925v.675h-2.925v2.1h3.72v.675h-8.9v-.675h3.795v-2.1h-1.74A7.477,7.477,0,0,1,3284.417,3262.424Zm5.835,6.48v-.915h-4.2v.945h-1.321v-4.44h6.84v4.41Zm0-1.59v-2.145h-4.2v2.145Z" fill="#4d4d4d"/>
      <path id="Path_204" data-name="Path 204" d="M3307.725,3259.334v2.835H3306.4v-2.159h-10.349v2.159h-1.321v-2.835h6.661c-.765-.494-1.8-1.08-2.37-1.4l.18-.48a14.355,14.355,0,0,1,3.36.93l-.555.945Zm-11.834,6.72h10.738v5.37h-1.319v-.765h-8.1v.81h-1.319Zm9.779-4.44H3296.8v-.675h8.865Zm-8.475,3.54V3262.5h8.084v2.655Zm.015,2.835h3.39v-1.26h-3.39Zm0,1.995h3.39v-1.32h-3.39Zm1.245-5.5h5.565v-1.3h-5.565Zm3.435,3.51h3.42v-1.26h-3.42Zm0,1.995h3.42v-1.32h-3.42Z" fill="#4d4d4d"/>
      <path id="Path_205" data-name="Path 205" d="M3309.762,3262.574l-.315-.374a11.081,11.081,0,0,0,2.491-4.755l1.349.435c-.074.164-.15.344-.255.539a8.877,8.877,0,0,1,2.13,2.176l-1.05.719a12.988,12.988,0,0,0-1.335-2.385c-.179.3-.36.615-.57.945a6.645,6.645,0,0,1,1.3,1.515l-1,.585a11.752,11.752,0,0,0-.646-1.605A10.48,10.48,0,0,1,3309.762,3262.574Zm3.855,6.645a13.166,13.166,0,0,1-3.465,1.7l-.5-1.38c.255-.03.54-.06.84-.1V3262.2h3.915v4.379H3311.7v2.61a14.015,14.015,0,0,0,1.71-.54c-.18-.42-.36-.84-.54-1.17l.436-.27a10.726,10.726,0,0,1,1.888,2.505l-1.169.675C3313.917,3270.059,3313.782,3269.654,3313.617,3269.219Zm-1.92-6.36v1.11h1.545v-1.125Zm1.545,3.075v-1.32H3311.7v1.32Zm8.28,5.235c-2.206.06-2.549-.075-2.549-1.4v-2.64h-.931c-.135,2.025-1.229,3.69-3.96,4.5l-.24-.48a4.409,4.409,0,0,0,2.955-4.02h-1.92v-.675h7.965v.675h-2.61v2.235c0,.66.045.735,1.036.69.749-.03.9-.285.869-2.025h.54C3323.531,3270.794,3322.662,3271.139,3321.522,3271.169Zm-5.37-6.435v-1.08h-1.23v-.675h1.23v-1.17h1.2v1.17h1.155v.675h-1.155v.9c.464-.09.916-.2,1.336-.315l.149.45a17.513,17.513,0,0,1-3.795,1.38l-.345-1.215C3315.178,3264.839,3315.672,3264.794,3316.152,3264.734Zm6.39-3.255h-7.229v-.675h2.8v-1.2H3315.7v-.675h2.415v-1.26h1.26v1.26h2.46v.675h-2.46v1.2h3.165Zm.255,4.2h-4.1V3265h1.425v-1.335l-1.141-.015v-.675l1.141.015v-1.155h1.2v1.155l1.2-.015v.675l-1.2.015V3265h1.471Z" fill="#4d4d4d"/>
      <path id="Path_206" data-name="Path 206" d="M3327.73,3260.444h2.714V3270.9h-1.319v-1.365h-2.58v1.65h-1.32v-10.74h1.785a29.565,29.565,0,0,0,.465-3.015l1.619.345A18.012,18.012,0,0,1,3327.73,3260.444Zm1.4.675h-2.58v3.315h2.58Zm0,7.74v-3.75h-2.58v3.75Zm8.354-8.385a71.01,71.01,0,0,1-.36,9.195c-.33,1.95-2.085,2.505-4.9.075l.254-.48c2.416.975,3.09,1.05,3.285-.165a60.4,60.4,0,0,0,.33-7.95h-3.15a14.2,14.2,0,0,1-1.979,3.5l-.435-.33a21.747,21.747,0,0,0,1.844-6.84l1.576.315a19.049,19.049,0,0,1-.75,2.685Zm-3.645,6.84a27.066,27.066,0,0,0-1.709-3.87l.434-.345a12.963,12.963,0,0,1,2.64,3.45Z" fill="#4d4d4d"/>
      <path id="Path_207" data-name="Path 207" d="M3353.047,3269.924v.825h-12.779v-.825H3346v-3.81h-4.334v-.75H3346v-3.27h-3.074a11.058,11.058,0,0,1-2.37,3.1l-.405-.345a15.454,15.454,0,0,0,2.535-6.63l1.53.435a14.612,14.612,0,0,1-.945,2.715H3346v-3.75h1.41v3.75h4.635v.72h-4.635v3.27h4.276v.75h-4.276v3.81Z" fill="#4d4d4d"/>
      <path id="Path_208" data-name="Path 208" d="M3356.989,3263.849a28.85,28.85,0,0,0-2.295-2.715l.316-.465a14.846,14.846,0,0,1,3.013,2.01Zm.72.675.51.165a58.06,58.06,0,0,1-1.56,6.5l-1.575-.72A58.2,58.2,0,0,0,3357.709,3264.524Zm-.15-3.929c-.616-.826-1.515-1.891-2.161-2.6l.346-.449a14.018,14.018,0,0,1,2.865,1.949Zm6.48,2.339v2.595h3.225v5.9h-1.35v-1.05h-5.085v1.125h-1.35v-5.97h3.15v-2.595h-4.05v-.675h4.05v-2.37c-1.365.2-2.641.331-3.4.375l-.106-.555a26.881,26.881,0,0,0,6.959-2.025l1.351,1.215a26.265,26.265,0,0,1-3.39.765v2.595h4.215v.675Zm-3.21,3.27v3.48h5.085v-3.48Z" fill="#4d4d4d"/>
      <path id="Path_209" data-name="Path 209" d="M3382.546,3260.595h-3.194l.914.4a10.717,10.717,0,0,1-1.289,1.335l3.224-.015v3.66h-9.359v-3.63l2.7-.015c-.359-.54-.84-1.245-1.215-1.739h-2.04v1.244c0,5.295-.315,7.14-1.86,9.69l-.449-.3c1.184-2.595.929-5.31.929-9.735v-3.3h11.64Zm-1.319-1.755h-8.941v1.11h8.941Zm-7.59,7.829h7.8v4.83h-1.288v-.795h-5.221v.795h-1.289Zm.494-1.32h1.26c-.2-.69-.42-1.41-.706-2.145l.436-.255a10.908,10.908,0,0,1,1.41,1.95l-1.019.45h1.423v-2.4h-2.8Zm.795,2.985h5.221v-.99h-5.221Zm0,1.7h5.221v-1.065h-5.221Zm3.915-9.434h-3.555a7.626,7.626,0,0,1,1.425,1.2l-.66.54h2.1A9.922,9.922,0,0,0,3378.841,3260.595Zm2.07,2.354h-2.745v2.4h.465a11.426,11.426,0,0,0,.66-2.31l1.275.54a10.891,10.891,0,0,1-1.275,1.77h1.62Z" fill="#4d4d4d"/>
      <path id="Path_210" data-name="Path 210" d="M3084.547,3297.534l-1.035-1.335a28.041,28.041,0,0,0,4.77-3.495l.375.39A23.354,23.354,0,0,1,3084.547,3297.534Zm1.815-6.7a37.644,37.644,0,0,0-2.565-3.18l.346-.42a15.653,15.653,0,0,1,3.33,2.5Zm10.815,7.05-.976,1.545c-1.978-1.005-3.584-3.1-4.154-6.45-.54,2.715-2.25,5.265-6.27,6.555l-.224-.48a7.98,7.98,0,0,0,5.219-7.86v-1.245h1.47c-.015.6,0,1.215-.03,1.83C3093.172,3295.524,3094.882,3296.874,3097.177,3297.879Zm-9.749-6.03c1.215-1.605,1.784-3.39,2.1-6.464l1.635.254a19.805,19.805,0,0,1-.8,2.82h4.35l.465-.285,1.455.885a13.111,13.111,0,0,1-2.821,3.3l-.389-.3a10.426,10.426,0,0,0,1.3-2.925h-4.65a8.63,8.63,0,0,1-2.25,3.09Z" fill="#4d4d4d"/>
      <path id="Path_211" data-name="Path 211" d="M3103.357,3292.554a1.982,1.982,0,0,1,.555-1.425,1.824,1.824,0,0,1,1.365-.6,2.028,2.028,0,0,1,0,4.05A1.987,1.987,0,0,1,3103.357,3292.554Zm3.1,0a1.21,1.21,0,0,0-1.185-1.245,1.253,1.253,0,0,0-.825,2.13,1.082,1.082,0,0,0,.825.36A1.21,1.21,0,0,0,3106.462,3292.554Z" fill="#4d4d4d"/>
    </g>
    <g id="Group_18" data-name="Group 18">
      <g id="Group_17" data-name="Group 17">
        <path id="Path_212" data-name="Path 212" d="M3194.5,3078.2v6.166h-1.911v-5.581a14.3,14.3,0,0,1-4.061,4.083l-.477-.608a16.727,16.727,0,0,0,4.082-5.885h-3.474v-.933h3.93v-2.128h1.911v2.128h3.647v.933H3194.5v.7a16.284,16.284,0,0,1,3.5,2.714l-1.39,1.347C3195.914,3080.022,3195.176,3079.089,3194.5,3078.2Zm4.017-5.32h-10.163v-.977h2.845a34.369,34.369,0,0,0-1.368-3.388l.651-.434a15.1,15.1,0,0,1,2.455,3.17l-1.26.652h2.541a22.081,22.081,0,0,0,.868-3.866l1.954.63a19,19,0,0,1-1.976,3.236h3.453Zm-.522-4.951h-9.314v-.956h4.538a30.846,30.846,0,0,0-2.41-2.344l.39-.652a14.958,14.958,0,0,1,3.626,1.824l-.889,1.172H3198Zm9.532,4.408h-2.236v11.942h-1.911v-11.942h-2.475v.868c0,5.6-1.129,9.1-3.821,11.4l-.587-.521c2.063-2.541,2.454-5.581,2.454-10.162v-8.034l1.8.478a13.579,13.579,0,0,0,4.429-2.172l1.868,1.585a24.788,24.788,0,0,1-6.145,1.368v4.213h6.622Z" fill="#182c80"/>
        <path id="Path_213" data-name="Path 213" d="M3217.4,3065.214h13.288v18.695h-2.041v-2.389h-9.206v2.41H3217.4Zm11.247,7.447V3066.3h-9.206v6.361Zm0,7.774v-6.8h-9.206v6.8Z" fill="#182c80"/>
        <path id="Path_214" data-name="Path 214" d="M3259.866,3078.35l-1.585,2.259a18.932,18.932,0,0,1-7.34-10.054v7.578h4.256v.977h-4.256v5.277h-2.084v-5.277h-4.147v-.977h4.147v-7.578a20.1,20.1,0,0,1-8.272,10.466l-.456-.673a22.279,22.279,0,0,0,6.927-10.553h-6.146V3068.6h7.947v-4.408h2.084v4.408h8.208v1.194h-7.578A18.448,18.448,0,0,0,3259.866,3078.35Z" fill="#182c80"/>
        <path id="Path_215" data-name="Path 215" d="M3285.807,3081.564l-.739,2.3c-3.843.26-8.6.3-11.139-.478a8.275,8.275,0,0,1-3.756-2.3,12.539,12.539,0,0,1-3.518,3.5l-.477-.63a11.821,11.821,0,0,0,3.061-4.038,12.613,12.613,0,0,1-1.737-4.734l.76-.217a11.606,11.606,0,0,0,1.542,3.648,23.825,23.825,0,0,0,1.26-5.754h-1.89a11.689,11.689,0,0,1-.934,1.5l-1.542-.652a50.814,50.814,0,0,0,3.475-7.056h-3.583v-.934h5.993a57.356,57.356,0,0,1-2.866,6.167h1.3l.347-.347,1.715.651a20.116,20.116,0,0,1-2.192,7.708,7.362,7.362,0,0,0,2.431,1.476C3276.144,3082.432,3281.594,3082.063,3285.807,3081.564Zm-8.23-11.769h-4.755v-.933h4.755v-1.738h-3.734v-.977h3.734v-1.932h1.867v1.932h4.235v2.715h1.759v.933h-1.759v2.931h-4.235v1.716h4.43v.977h-4.43v2.019h5.429v.977h-5.429v2.867h-1.867v-2.867H3272.8v-.977h4.777v-2.019h-3.995v-.977h3.995v-1.716h-3.844v-.977h3.844Zm1.867-.933h2.519v-1.738h-2.519Zm0,2.887h2.519v-1.954h-2.519Z" fill="#182c80"/>
        <path id="Path_216" data-name="Path 216" d="M3292.66,3070.382l-.455-.608a12.236,12.236,0,0,0,3.561-5.8l2.084.586a9.424,9.424,0,0,1-.977,1.694h5.559v.977h-3.713a12.952,12.952,0,0,1,1.606,1.954l-1.606.587a15.46,15.46,0,0,0-1-2.541h-1.585A15.678,15.678,0,0,1,3292.66,3070.382Zm19.369,11.16-1.151,2.15a13.329,13.329,0,0,1-7.839-5.125v5.841h-1.867v-5.775c-1.541,2.279-5.406,4.212-8.663,4.972l-.261-.7c3.192-1.194,5.429-2.519,7.144-4.582h-6.514v-.977h8.294v-1.845a10.24,10.24,0,0,1-1.823.912l-.369-.7a5.483,5.483,0,0,0,1.932-1.715,37.685,37.685,0,0,1-7.448,2.063l-.5-1.8c1.237-.065,2.3-.152,3.3-.26v-2.888h-3.018v-.977h7.86v.977h-3.018v2.649c.912-.152,1.846-.326,2.866-.565l.13.478a9.1,9.1,0,0,0,.435-3.756h6.948v3.256c0,.8.3.934,1.02.934.934,0,.955-.2.934-2.41h.782c.934,3.409.369,3.952-1.759,3.973-2.172.022-2.779-.434-2.779-2.279v-2.5h-3.322c0,2.236-.7,3.539-2,4.473h1.693v1.975h8.338v.977h-7.556C3306.253,3080.435,3308.989,3081.064,3312.029,3081.542Zm-10.835-12.463a13.171,13.171,0,0,0,2.888-5.168l2,.673a12.781,12.781,0,0,1-1,1.65h6.557v.977h-4.212a8.764,8.764,0,0,1,1.585,1.716l-1.585.651a17.769,17.769,0,0,0-1.108-2.367h-2a15.111,15.111,0,0,1-2.627,2.432Zm2.54,2.518.652-.26a12.516,12.516,0,0,1,1.606,3.43l-1.562.413A28.16,28.16,0,0,0,3303.734,3071.6Z" fill="#182c80"/>
        <path id="Path_217" data-name="Path 217" d="M3338.077,3082.041l-1.13,2.346c-2.084-.326-6.622-1.716-8.446-6.188-1.259,3.474-4.407,5.493-9.857,6.318l-.24-.738c4.669-1.173,6.883-3.062,7.861-5.58h-7.122v-.978h7.425a11.856,11.856,0,0,0,.327-2.214l2.214.173a10.021,10.021,0,0,1-.326,2.041h8.382v.978h-7.773C3331.736,3081.346,3335.689,3081.825,3338.077,3082.041Zm-.651-7.447h-18.479v-.977h8.077v-2.128h-5.949v-.977h5.949v-2.063h-7.317v-.977h5.385a31,31,0,0,0-2.714-2.844l.413-.674a21.3,21.3,0,0,1,4.3,2.389l-1.021,1.129h3.236a14.072,14.072,0,0,0,1.759-3.648l2.149,1.043a14.907,14.907,0,0,1-2.627,2.6h6.058v.977h-7.579v2.063h6.233v.977h-6.233v2.128h8.361Z" fill="#182c80"/>
        <path id="Path_218" data-name="Path 218" d="M3363.518,3079.74h-7.882v2.5c0,1.954-1.716,3.083-5.559.825l.2-.738c3.149.7,3.41.369,3.41-.912v-1.672h-8.816v-.977h8.816V3077.2l1.455.217a14.854,14.854,0,0,0,2.236-1.629h-9.185v-.977h9.684l.586-.26,1.759,1.411a16.951,16.951,0,0,1-4.581,2.128v.673h7.882Zm-16.568-3.1h-1.91v-3.865h1.91c-.065-2.475-.151-4.972-.282-7.447l1.716.369a8.178,8.178,0,0,0,2.366-1.694l1.129,1.216a12.907,12.907,0,0,1-3.452,1.173c0,.39.021.781.044,1.172h2.887v.977h-2.844c.021.564.021,1.151.043,1.715h2.953v.977h-2.931c.022.521.043,1.021.043,1.542h3.214l-.261-.565a7.789,7.789,0,0,0,1.933-1.5c-.435-.369-.891-.716-1.39-1.064l.325-.608c.63.283,1.217.543,1.782.847a11.751,11.751,0,0,0,1-1.476l1.346.955a14.925,14.925,0,0,1-1.172,1.237,12.841,12.841,0,0,1,1.389,1.086l-1,1.086h3.886c.044-.5.065-.977.087-1.477h-2.952v-.977h3c.021-.521.065-1.064.087-1.585h-2.932v-.977h2.953l.066-1.672h-3.17v-.977h3l.412-.412,1.585.39c-.152,2.519-.282,5.146-.478,7.687h1.977v3.8h-1.911v-2.823h-14.44Zm6.6-10.335a17.346,17.346,0,0,0-1.367-1.238l.325-.63a17.736,17.736,0,0,1,1.693.977c.282-.456.543-.912.761-1.346l1.454.8a9.505,9.505,0,0,1-1.085,1.346c.456.347.868.7,1.28,1.064l-1.15,1.172a15.64,15.64,0,0,0-1.086-1.3,12.891,12.891,0,0,1-2.236,1.542l-.391-.543A11.185,11.185,0,0,0,3353.551,3066.3Zm-1.367,6.47h3.343a16.312,16.312,0,0,0-1.151-1.281A8.929,8.929,0,0,1,3352.184,3072.77Z" fill="#182c80"/>
        <path id="Path_219" data-name="Path 219" d="M3137.954,3109.3l-2.15-1.389c1.607-1.78,2.5-3.453,3.192-7.079l.781.109A16.7,16.7,0,0,1,3137.954,3109.3Zm12.876-3.6c1.628,5.32,1.021,6.6-1.759,6.774a32.33,32.33,0,0,1-4.1,0c-2.041-.129-3.083-.3-3.387-1.845a24.869,24.869,0,0,1-4.886,2.54l-.347-.716a30.23,30.23,0,0,0,5.146-3.474v-11.53h2.041v9.532c2.519-2.823,4.712-6.8,6.3-12.984l2.192.695c-2.344,7.208-5.189,11.572-8.489,14.439v.13c0,1.172.521,1.325,1.738,1.412a23.452,23.452,0,0,0,3.256,0c1.5-.131,1.694-.5,1.52-4.973Zm-9.25-11.942.391-.717a23.681,23.681,0,0,1,6.166,3.452l-1.715,1.977A31.984,31.984,0,0,0,3141.58,3093.758Zm14.048,13.5-2.149.913a33.861,33.861,0,0,0-2.714-7.427l.673-.412A22.319,22.319,0,0,1,3155.628,3107.263Z" fill="#182c80"/>
        <path id="Path_220" data-name="Path 220" d="M3170.343,3105.287a21.615,21.615,0,0,1-7.882,7.709l-.435-.673a23.827,23.827,0,0,0,6.406-8.143Zm-7.687,1.086-.456-.63a24.009,24.009,0,0,0,5.69-7.295l1.823,1.064A21.507,21.507,0,0,1,3162.656,3106.373Zm.13-6.1-.477-.608a22.511,22.511,0,0,0,4.756-6.34l1.758.977A21.1,21.1,0,0,1,3162.786,3100.272Zm10.792,8.772,1.78,1.346a24.279,24.279,0,0,1-7.794,3.257l-.3-.738A17.685,17.685,0,0,0,3173.578,3109.044Zm1.26-13.506h-4.907v-.977H3181.5v.977h-4.429a28.968,28.968,0,0,1-1.65,2.584h4.842v10.661h-9.315v-10.661h3.474C3174.6,3097.341,3174.751,3096.277,3174.838,3095.538Zm3.517,3.561h-5.494v2.172h5.494Zm0,3.149h-5.494v2.258h5.494Zm0,3.235h-5.494v2.323h5.494Zm3.648,6.21-1.281,1.867a49.08,49.08,0,0,0-4.95-3.8l.325-.717A24.928,24.928,0,0,1,3182,3111.693Z" fill="#182c80"/>
        <path id="Path_221" data-name="Path 221" d="M3207.291,3112.084h-15.547v1.259h-2V3094.5h17.024v.977h-15.026v15.634h15.547Zm-6.6-1.716v-7.816h-4.256c-.3,4.32-1.476,6.318-3.409,8.121l-.608-.522c1.759-2.453,2.106-4.972,2.085-9.749v-2.692l1.8.521a21.626,21.626,0,0,0,7.187-2.215l1.933,1.715a50.2,50.2,0,0,1-8.925,1.238v2.063a4.517,4.517,0,0,1-.021.543h10.009v.977H3202.6v7.816Z" fill="#182c80"/>
        <path id="Path_222" data-name="Path 222" d="M3217.511,3100.923l.781.109a18.919,18.919,0,0,1-1.693,8.4l-2.368-1.3A14.972,14.972,0,0,0,3217.511,3100.923Zm2.6,8.6v-11.639h2.084v11.226c0,1.129.218,1.39,1.434,1.477a16.4,16.4,0,0,0,2.735,0c1.586-.131,1.868-.478,1.846-4.6h.825c1.52,4.951.978,6.254-1.975,6.536a21.726,21.726,0,0,1-3.757,0C3220.7,3112.323,3220.116,3112.192,3220.116,3109.522Zm.977-15.677.413-.76a21.121,21.121,0,0,1,6.622,3.713l-1.715,1.954A31.317,31.317,0,0,0,3221.093,3093.845Zm7.665,6.8.717-.434a25.853,25.853,0,0,1,4.408,7.013l-2.41,1A43.779,43.779,0,0,0,3228.758,3100.641Z" fill="#182c80"/>
        <path id="Path_223" data-name="Path 223" d="M3248.054,3106.981a4.292,4.292,0,0,0,2.758-3.474,2.26,2.26,0,0,1-.739.109,1.641,1.641,0,0,1-1.737-1.737,1.659,1.659,0,0,1,1.759-1.738c1.325,0,2.193.8,2.193,2.433a4.99,4.99,0,0,1-3.778,5.015Z" fill="#182c80"/>
        <path id="Path_224" data-name="Path 224" d="M3285.545,3098.361v1.194h-5.667v11.313c0,2.475-2.02,3.452-6.362,1.151l.195-.782c3.865.716,4.082.326,4.082-1.042v-9.858c-1.606,4.386-6.535,9.054-11.1,11.182l-.369-.694a25.01,25.01,0,0,0,9.6-11.27h-8.707v-1.194h10.574v-5.146h2.085v5.146Z" fill="#182c80"/>
        <path id="Path_225" data-name="Path 225" d="M3299.825,3095.712a16.909,16.909,0,0,1,2.888,4.473l-1.824.782c-.152-.587-.369-1.238-.608-1.911a46.2,46.2,0,0,1-7.253,1.759l-.52-2.085c.63.022,1.3,0,2.019-.022a28.129,28.129,0,0,0,1.563-5.732l2.28.717a26.271,26.271,0,0,1-2.866,4.95c1.5-.087,3.083-.26,4.473-.434-.26-.7-.565-1.411-.869-2.128Zm-6.036,5.863h7.9v9.814c0,1.824-1.8,2.649-4.864.76l.218-.76c2.519.543,2.692.391,2.692-.8v-2.194h-4v4.93h-1.954Zm1.933.977v1.91h4.016v-1.91Zm4.016,4.885v-2.019h-4.016v2.019Zm8.121,5.407c-4,0-4.82-.2-4.82-2.519v-7.057h1.954v4.147a17.959,17.959,0,0,0,4.191-3.148l1.714,1.585a27.08,27.08,0,0,1-5.905,2.453v1.542c0,1.042.565,1.281,2.757,1.26,2.323-.022,2.41-.434,2.476-3.192h.782C3311.855,3111.454,3312.05,3112.844,3307.859,3112.844Zm-4.8-13.137v-6.448h1.955v4.147a15.474,15.474,0,0,0,3.842-2.932l1.759,1.52a22.373,22.373,0,0,1-5.6,2.367v1.237c0,1.086.434,1.238,2.453,1.217,2.367-.022,2.388-.369,2.41-2.8l.782-.021c1,4.039.325,4.538-3.344,4.516C3303.95,3102.487,3303.06,3102.53,3303.06,3099.707Z" fill="#182c80"/>
        <path id="Path_226" data-name="Path 226" d="M3336.427,3113.387c-1.521-.131-2.5-1.455-3.127-3.431a13.686,13.686,0,0,1-4.5,3.17l-.391-.652a11.528,11.528,0,0,0,2.866-2.062h-4.429v1.368h-1.52v-10.423h6.514v.934h-2.366v1.781h2.019v3.6h-2.019v1.8h2.648a12.863,12.863,0,0,0,.782-1.107,45.991,45.991,0,0,1-.695-8.23h-7.687v4.582c0,3.887-.5,6.861-3.148,8.859l-.586-.543c1.606-2,1.911-3.083,1.954-6.644h-1.542a6.625,6.625,0,0,1-2.279,5.841l-.543-.521c1.411-1.868,1.324-3.279,1.324-5.32h-1.063v-.977h4.1v-2.259h-1.889v1.064h-1.5v-5.276h1.5v3.235h1.889v-3.018h9.445v-1.693l1.651.043v1.65h1.737a25.4,25.4,0,0,0-1.433-2.41l.564-.521a12.326,12.326,0,0,1,2.432,2.193l-.955.738h1.476v.977h-3.821c.043,1.825.13,3.822.347,5.646a18.824,18.824,0,0,0,.934-4.1l1.759.434a16.306,16.306,0,0,1-2.323,6.21,5.2,5.2,0,0,0,1.215,2.845c.847.716.847-.977.826-2.693h.759C3338.163,3111.281,3337.73,3113.5,3336.427,3113.387Zm-12.312-17.328h-5.276v-.977h5.276v-1.78h1.867v1.78h3.8v-1.78h1.867v1.78h5.754v.977h-5.754v1.542h-1.867v-1.542h-3.8v1.846h-1.867Zm2.736,8.013h1.325v-1.781h-1.325Zm0,2.67h3.3V3105h-3.3Zm1.325.934h-1.325v1.8h1.325Z" fill="#182c80"/>
        <path id="Path_227" data-name="Path 227" d="M3364.125,3111.041l-1.13,2.346c-2.084-.326-6.622-1.716-8.446-6.188-1.259,3.474-4.407,5.493-9.858,6.318l-.239-.738c4.669-1.173,6.883-3.062,7.861-5.58h-7.123v-.978h7.426a11.837,11.837,0,0,0,.326-2.214l2.215.173a10.038,10.038,0,0,1-.326,2.041h8.382v.978h-7.773C3357.784,3110.346,3361.736,3110.825,3364.125,3111.041Zm-.652-7.447H3345v-.977h8.077v-2.128h-5.949v-.977h5.949v-2.063h-7.317v-.977h5.385a31,31,0,0,0-2.714-2.844l.413-.674a21.3,21.3,0,0,1,4.3,2.389l-1.021,1.129h3.236a14.076,14.076,0,0,0,1.758-3.648l2.15,1.043a14.907,14.907,0,0,1-2.627,2.6h6.057v.977h-7.578v2.063h6.233v.977h-6.233v2.128h8.36Z" fill="#182c80"/>
      </g>
      <line id="Line_2" data-name="Line 2" y2="50.202" transform="translate(3382.606 3063.464)" fill="none" stroke="#182c80" stroke-miterlimit="10" stroke-width="3"/>
    </g>
  </g>
</svg>
