<?xml version="1.0" encoding="utf-8"?>
<!-- Generator: Adobe Illustrator 26.0.2, SVG Export Plug-In . SVG Version: 6.00 Build 0)  -->
<svg version="1.1" id="圖層_1" xmlns="http://www.w3.org/2000/svg" xmlns:xlink="http://www.w3.org/1999/xlink" x="0px" y="0px"
	 viewBox="0 0 450.4 662.2" style="enable-background:new 0 0 450.4 662.2;" xml:space="preserve">
<style type="text/css">
	.st0{fill:#C59D62;}
	.st1{fill:#1F4B4C;}
	.st2{fill:url(#SVGID_1_);}
	.st3{fill:url(#SVGID_00000075155077011868167730000014609434455412438403_);}
	.st4{fill:url(#SVGID_00000011733854921449785450000012415542308341749159_);}
	.st5{fill:url(#SVGID_00000167384753829225626390000015500664246238690698_);}
	.st6{fill:#FFFFFF;}
	.st7{fill:#717071;}
	.st8{fill:#717071;stroke:#717071;stroke-width:2.1228;stroke-miterlimit:10;}
</style>
<g>
	<g>
		<g>
			<path class="st0" d="M22.2,198.5H6.3v-2.4c0-1.1,0.1-1.9,0.2-2.5c0.2-0.6,0.4-1.2,0.8-1.6c0.4-0.5,0.9-0.8,1.5-1.1
				c0.6-0.3,1.2-0.4,1.8-0.4c1.1,0,2.1,0.4,2.9,1.3c0.3-0.8,0.8-1.5,1.5-2c0.7-0.5,1.5-0.7,2.5-0.7c1.2,0,2.3,0.4,3.1,1.3
				c0.5,0.5,0.9,1.1,1.1,1.8c0.2,0.7,0.3,1.6,0.3,2.7V198.5z M13.1,196.1v-0.7c0-0.9-0.2-1.5-0.6-2c-0.4-0.4-1-0.6-1.7-0.6
				c-0.7,0-1.3,0.2-1.7,0.6c-0.4,0.4-0.6,1-0.6,1.8v0.8H13.1z M19.9,196.1v-1.5c0-1.1-0.2-1.9-0.6-2.4c-0.5-0.5-1-0.8-1.7-0.8
				c-0.7,0-1.3,0.3-1.7,0.8c-0.5,0.5-0.7,1.4-0.7,2.7v1.2H19.9z"/>
			<path class="st0" d="M14.2,174.4c-2.2,0-4.1-0.8-5.7-2.4C6.8,170.3,6,168.3,6,166c0-2.3,0.8-4.2,2.4-5.8c1.6-1.6,3.6-2.4,5.8-2.4
				c2.3,0,4.2,0.8,5.8,2.4c1.6,1.6,2.4,3.6,2.4,5.9c0,2-0.7,3.9-2.1,5.5C18.8,173.5,16.7,174.4,14.2,174.4z M14.2,171.9
				c1.8,0,3.2-0.6,4.3-1.8c1.1-1.2,1.7-2.5,1.7-4c0-1.7-0.6-3.1-1.7-4.2c-1.2-1.1-2.6-1.7-4.2-1.7c-1.7,0-3.1,0.6-4.3,1.7
				c-1.2,1.1-1.7,2.5-1.7,4.2c0,1.7,0.6,3,1.7,4.2C11.1,171.4,12.5,171.9,14.2,171.9z"/>
			<path class="st0" d="M6.3,139.6h9.5c1.4,0,2.4-0.2,3-0.7c0.9-0.7,1.4-1.6,1.4-2.8c0-1.2-0.4-2.2-1.4-2.8c-0.6-0.4-1.6-0.7-3-0.7
				l-9.5,0v-2.4h10.2c1.7,0,3,0.5,4.1,1.6c1.2,1.2,1.8,2.6,1.8,4.3c0,1.7-0.6,3.1-1.8,4.3c-1.1,1-2.5,1.6-4.1,1.6H6.3V139.6z"/>
			<path class="st0" d="M9.9,108l13.4,2l-0.4,2.4l-13.4-2L9,114l-2.2-0.3l1.4-9.6l2.2,0.3L9.9,108z"/>
			<path class="st0" d="M13.9,85l14.8,5.7l-0.9,2.2l-14.8-5.7L13.9,85z"/>
			<path class="st0" d="M45.1,63.7l-1.8,2.4l-1.8,0.3c-0.1,1.6-0.6,3-1.6,4.3c-1.2,1.7-2.9,2.8-5,3.3c-2.3,0.5-4.4,0.1-6.4-1.4
				c-1.9-1.4-3.1-3.2-3.4-5.5c-0.3-2.2,0.2-4.2,1.5-6c1.2-1.6,2.8-2.7,4.8-3.2c2.4-0.6,4.7-0.1,6.8,1.4c1.7,1.2,2.7,2.9,3.1,5
				L45.1,63.7z M36,65.2l3.2-0.5c-0.3-1.4-1-2.6-2.3-3.5c-1.4-1-2.9-1.4-4.5-1.1c-1.6,0.2-2.9,1-3.9,2.4c-1,1.4-1.4,2.8-1.1,4.4
				c0.3,1.6,1.1,2.9,2.6,3.9c1.4,1,2.8,1.4,4.4,1.1c1.6-0.3,2.8-1.1,3.7-2.3c0.6-0.8,1-1.7,1.1-2.7l-5.1,0.9L36,65.2z"/>
			<path class="st0" d="M47.8,39.4l5.7,7.7c0.8,1.1,1.6,1.8,2.3,2c1.1,0.3,2.1,0.1,3.1-0.6c1-0.7,1.4-1.6,1.4-2.8
				c0-0.8-0.4-1.7-1.2-2.8l-5.7-7.7l1.9-1.4l6.1,8.2c1,1.3,1.4,2.8,1.2,4.2c-0.2,1.7-1,3-2.4,4c-1.4,1-2.9,1.4-4.5,1.1
				c-1.5-0.3-2.7-1-3.7-2.4l-6.1-8.2L47.8,39.4z"/>
			<path class="st0" d="M81.9,23.4l-5.9,2.3l1.4,3.6l5.8-2.2l0.8,2.1l-5.8,2.2l1.9,4.9l5.9-2.3l0.8,2.1l-8.2,3.1l-5.7-14.8l8.2-3.1
				L81.9,23.4z"/>
			<path class="st0" d="M129.4,28.8l-6.7-0.7l-2.2,3.6l-2.6-0.3l9.6-15.9l5.7,17.6l-2.6-0.3L129.4,28.8z M128.6,26.5l-1.7-5.6
				l-3,5.1L128.6,26.5z"/>
			<path class="st0" d="M151,31.9l-2.4,6l-2.2-0.9l5.9-14.7l2.5,1c1.2,0.5,2.1,1,2.7,1.4c0.6,0.4,1,1,1.3,1.6c0.5,1.2,0.5,2.4,0,3.6
				c-0.5,1.3-1.4,2.2-2.6,2.7c-1.2,0.4-2.6,0.3-4.1-0.3L151,31.9z M151.9,29.9l0.8,0.3c2,0.8,3.4,0.4,4-1.1c0.6-1.5-0.1-2.7-2.2-3.5
				l-0.7-0.3L151.9,29.9z"/>
			<path class="st0" d="M175.9,49.2l-5.4-4.1l-3.7,2l-2.1-1.5l16.3-8.8l-4,18l-2.1-1.6L175.9,49.2z M176.5,46.8l1.3-5.7l-5.2,2.8
				L176.5,46.8z"/>
			<path class="st0" d="M195.2,65l-2.4,8l-1.8-2.3l2.4-7.5l-0.3-0.3l-5.1,3.9l-1.5-1.9l12.6-9.6l1.7,2.2c1.3,1.7,1.9,3.1,1.8,4.3
				c-0.1,1.3-0.7,2.5-1.8,3.3c-0.9,0.7-1.8,1-2.9,1C196.9,66,196,65.7,195.2,65z M194.8,61.5l0.5,0.6c1.4,1.8,2.8,2.2,4.1,1.1
				c1.3-1,1.3-2.4-0.1-4.1l-0.5-0.7L194.8,61.5z"/>
			<path class="st0" d="M213.9,83.9l-12.5,5.4l-1-2.2l12.5-5.4l-1.4-3.3l2.1-0.9l3.8,8.9l-2.1,0.9L213.9,83.9z"/>
			<path class="st0" d="M206.8,105.4l17.3,1.3l-11.6,6.8l12.9,4.2l-16.6,5l-0.3-2.4l9.3-2.6l-10.8-3.5l9.7-5.7l-9.7-0.6L206.8,105.4
				z"/>
			<path class="st0" d="M222.1,147.1v-6.4h-3.8v6.2H216l0-6.2h-5.3v6.3h-2.2v-8.7h15.8v8.7H222.1z"/>
			<path class="st0" d="M208.5,162.9l16.9,0l-12.1,11.6h11v2.4h-16.8l12-11.6h-11.1V162.9z"/>
			<path class="st0" d="M222.1,197.7h-13.6v-2.4h13.6v-3.6h2.3v9.7h-2.3V197.7z"/>
		</g>
		<g>
			<path class="st0" d="M202.3,316.5l8.8,3.7l-0.5,1.3c-0.3,0.6-0.5,1-0.7,1.3c-0.2,0.3-0.5,0.5-0.8,0.7c-0.3,0.1-0.7,0.2-1.1,0.2
				c-0.4,0-0.8-0.1-1.1-0.2c-0.6-0.3-1.1-0.7-1.3-1.4c-0.3,0.4-0.8,0.7-1.3,0.8c-0.5,0.1-1,0.1-1.5-0.2c-0.7-0.3-1.2-0.8-1.4-1.5
				c-0.2-0.4-0.2-0.8-0.2-1.2c0.1-0.4,0.2-1,0.5-1.6L202.3,316.5z M203,318.3l-0.3,0.8c-0.2,0.6-0.3,1.1-0.2,1.5
				c0.1,0.4,0.4,0.7,0.8,0.8c0.4,0.2,0.8,0.2,1.1,0c0.4-0.2,0.7-0.6,1-1.3l0.3-0.7L203,318.3z M206.8,319.9l-0.2,0.4
				c-0.2,0.5-0.2,0.9-0.1,1.2c0.1,0.3,0.4,0.6,0.8,0.7c0.4,0.2,0.8,0.2,1.1,0c0.3-0.1,0.6-0.4,0.7-0.9l0.2-0.5L206.8,319.9z"/>
			<path class="st0" d="M201.6,329.7c1.1,0.7,1.9,1.7,2.2,3.1c0.3,1.3,0.1,2.6-0.6,3.8c-0.7,1.2-1.7,1.9-3.1,2.2
				c-1.3,0.3-2.6,0.1-3.7-0.6c-1.2-0.7-1.9-1.7-2.2-3.1c-0.3-1.3-0.1-2.6,0.6-3.8c0.6-1,1.6-1.8,2.8-2.2
				C199,328.7,200.3,328.9,201.6,329.7z M200.9,330.9c-0.9-0.5-1.8-0.7-2.8-0.4c-0.9,0.3-1.7,0.8-2.1,1.5c-0.5,0.9-0.7,1.8-0.4,2.7
				c0.2,0.9,0.8,1.7,1.6,2.2c0.9,0.5,1.8,0.7,2.7,0.5c0.9-0.2,1.7-0.8,2.2-1.6c0.5-0.9,0.7-1.7,0.4-2.7
				C202.3,332.1,201.7,331.4,200.9,330.9z"/>
			<path class="st0" d="M194.5,348.4l-4.3-3.7c-0.6-0.5-1.2-0.8-1.6-0.9c-0.7-0.1-1.2,0.2-1.7,0.7c-0.5,0.6-0.6,1.2-0.5,1.8
				c0.1,0.4,0.5,0.9,1.1,1.5l4.3,3.7l-0.9,1.1l-4.6-4c-0.8-0.7-1.2-1.4-1.3-2.3c-0.1-1,0.2-1.9,0.9-2.7c0.7-0.8,1.5-1.2,2.5-1.3
				c0.9-0.1,1.7,0.3,2.5,0.9l4.6,4L194.5,348.4z"/>
			<path class="st0" d="M182,359.3l-5.4-6.1l1.1-1l5.4,6.1l1.6-1.5l0.9,1l-4.3,3.9l-0.9-1L182,359.3z"/>
			<path class="st0" d="M174.4,367.1l-5.5-7.7l1.2-0.8l5.5,7.7L174.4,367.1z"/>
			<path class="st0" d="M154.1,367.8l1.6-0.8l1,0.3c0.5-0.8,1.1-1.5,2-1.9c1.1-0.6,2.3-0.7,3.6-0.4c1.4,0.3,2.4,1.1,3.1,2.4
				c0.7,1.3,0.8,2.6,0.3,3.9c-0.4,1.3-1.2,2.2-2.4,2.9c-1.1,0.6-2.2,0.7-3.4,0.4c-1.5-0.3-2.6-1.2-3.3-2.6c-0.6-1.1-0.7-2.3-0.3-3.5
				L154.1,367.8z M159.4,369.4l-1.9-0.6c-0.2,0.8-0.1,1.7,0.3,2.5c0.5,0.9,1.2,1.5,2.1,1.8c0.9,0.3,1.8,0.2,2.7-0.3
				c0.9-0.5,1.5-1.2,1.7-2.1c0.3-0.9,0.2-1.8-0.3-2.8c-0.5-0.9-1.2-1.5-2.1-1.7c-0.9-0.3-1.8-0.2-2.6,0.3c-0.5,0.3-1,0.7-1.3,1.2
				l3,0.9L159.4,369.4z"/>
			<path class="st0" d="M149.9,379.9l-1.8-5.4c-0.3-0.8-0.6-1.3-1-1.6c-0.5-0.4-1.2-0.5-1.9-0.2c-0.7,0.2-1.1,0.7-1.3,1.3
				c-0.1,0.4-0.1,1,0.2,1.8l1.8,5.4l-1.4,0.5l-2-5.8c-0.3-0.9-0.3-1.8,0.1-2.6c0.4-0.9,1.1-1.5,2.1-1.9c1-0.3,1.9-0.3,2.8,0.2
				c0.8,0.4,1.4,1.1,1.7,2l2,5.8L149.9,379.9z"/>
			<path class="st0" d="M130.7,383.4l3.7-0.7l-0.4-2.2l-3.6,0.7l-0.2-1.3l3.6-0.7l-0.6-3.1l-3.8,0.7l-0.2-1.3l5.2-1l1.7,9.4
				l-5.2,0.9L130.7,383.4z"/>
			<path class="st0" d="M107.9,378.4l4.1,0.2l1.2-2.2l1.5,0.1l-5.3,9.8l-4-10.3l1.6,0.1L107.9,378.4z M108.4,379.8l1.2,3.3l1.7-3.1
				L108.4,379.8z"/>
			<path class="st0" d="M97.2,378.5l0.8-3.8l1.4,0.3l-1.9,9.3L96,384c-0.8-0.2-1.4-0.3-1.7-0.5c-0.4-0.2-0.7-0.5-0.9-0.8
				c-0.4-0.6-0.6-1.3-0.4-2.1c0.2-0.9,0.6-1.5,1.3-1.9c0.7-0.4,1.5-0.5,2.5-0.3L97.2,378.5z M97,379.8l-0.5-0.1
				c-1.3-0.3-2,0.1-2.2,1.1c-0.2,1,0.4,1.6,1.7,1.8l0.5,0.1L97,379.8z"/>
			<path class="st0" d="M82.6,372.9l3.8,1.3l1.8-1.8l1.5,0.5l-7.7,8l-1-11l1.5,0.5L82.6,372.9z M82.7,374.3l0.3,3.5l2.4-2.6
				L82.7,374.3z"/>
			<path class="st0" d="M70.5,369.4l-0.8-4.9l1.6,0.8L72,370l0.2,0.1l1.8-3.5l1.3,0.7l-4.4,8.4l-1.5-0.8c-1.1-0.6-1.8-1.2-2.1-1.9
				c-0.3-0.8-0.3-1.5,0.1-2.3c0.3-0.6,0.7-1,1.3-1.3C69.3,369.3,69.9,369.2,70.5,369.4z M71.6,371.2l-0.4-0.2
				c-1.2-0.6-2-0.5-2.5,0.5c-0.5,0.9-0.1,1.6,1.1,2.2l0.4,0.2L71.6,371.2z"/>
			<path class="st0" d="M57.7,366.4l4.6-6.7l1.2,0.8l-4.6,6.7l1.8,1.2l-0.8,1.1l-4.8-3.3l0.8-1.1L57.7,366.4z"/>
			<path class="st0" d="M55.8,354.9l-8.4,6.1l2.6-7.6l-7.5,3.1l5.6-8.7l1.1,1l-3.2,4.8l6.3-2.6l-2.2,6.4l4.7-3.5L55.8,354.9z"/>
			<path class="st0" d="M33.9,343.5l2.4,3l1.8-1.4l-2.3-2.9l1.1-0.8l2.3,2.9l2.5-2l-2.4-3l1.1-0.8l3.2,4.1l-7.5,5.9l-3.2-4.1
				L33.9,343.5z"/>
			<path class="st0" d="M36.4,332.7l-8.8,5l2.9-9.6l-5.7,3.3l-0.7-1.2l8.8-5l-2.8,9.6l5.8-3.3L36.4,332.7z"/>
			<path class="st0" d="M20.7,319.5l7.6-3l0.5,1.3l-7.6,3l0.8,2l-1.2,0.5l-2.1-5.4l1.3-0.5L20.7,319.5z"/>
		</g>
		<g>
			<path class="st0" d="M67.9,280.3c0-15.4,0-30.7,0-46.1c-0.7,0.6-1.3,1.3-2,2c5.2,0,11.1,0.5,14.3-4.5c1.8-2.8,1.2-7.1,1.2-10.2
				c0-5.9-0.8-13,4.5-17c3.1-2.3,4.2-1.8,7.7-1.8c5.7,0,11.4,0,17.1,0c5.9,0,11.6-0.4,16.7-3.6c6.1-3.7,9-10.7,9-17.6
				c0-7.4,0-14.8,0-22.2c-0.6,0.7-1.3,1.3-1.9,1.9c14.9,0,29.8,0,44.7,0c-0.6-0.8-1.3-1.6-1.9-2.5c-1.3,7.9-7.3,14.1-15.1,15.8
				c-1.1,0.2-1.9,1.9-1.2,2.9c3.4,4.6,5.6,10.3,6.7,15.8c2.8,13.9-4.4,25.9-14.9,34.3c-1,0.8-0.6,2.5,0.4,3.1
				c7.7,4.7,15.4,9.3,23.1,14c-0.1-1-0.3-2-0.4-3.1c-6.4,7.9-12.7,15.8-19.1,23.7c-1.6,1.9,1.2,4.7,2.8,2.8
				c6.3-7.9,12.7-15.8,19.1-23.7c0.8-1,0.8-2.4-0.4-3.1c-7.7-4.7-15.4-9.3-23.1-14c0.1,1,0.3,2,0.4,3.1
				c11.1-8.8,18.4-21.4,16.3-35.8c-0.9-6.6-3.4-13.6-7.5-19c-0.4,0.9-0.8,1.9-1.2,2.9c9-1.9,16.3-9.3,17.8-18.5
				c0.2-1.2-0.5-2.5-1.9-2.5c-14.9,0-29.8,0-44.7,0c-1.1,0-2,0.9-2,2c0,7.8,0.2,15.6,0,23.4c-0.1,3.5-1.4,7.1-3.5,9.8
				c-4.2,5.3-11,6.2-17.3,6.2c-5.4,0-10.7,0-16.1,0c-2.9,0-5.9-0.4-8.6,0.7c-11.3,4.4-9.6,17.7-9.6,27.5c0,6-7.2,5.2-11.5,5.2
				c-1.1,0-1.9,0.9-1.9,2c0,15.4,0,30.7,0,46.1C64,282.9,67.9,282.9,67.9,280.3L67.9,280.3z"/>
		</g>
		<g>
			<path class="st0" d="M72.2,236.1c13.5,0,27,0,40.5,0c11,0,25.7-1.7,25.8-15.9c-1.3,0-2.6,0-3.9,0c0,20,0,40.1,0,60.1
				c0,2.5,3.9,2.5,3.9,0c0-20,0-40.1,0-60.1c0-2.5-3.9-2.5-3.9,0c-0.1,12.8-15.5,12-24.7,12c-12.6,0-25.2,0-37.7,0
				C69.7,232.2,69.7,236.1,72.2,236.1L72.2,236.1z"/>
		</g>
		<g>
			<path class="st0" d="M92.6,234.2c0,15.4,0,30.8,0,46.2c0,2.5,3.9,2.5,3.9,0c0-15.4,0-30.8,0-46.2
				C96.5,231.7,92.6,231.7,92.6,234.2L92.6,234.2z"/>
		</g>
		<g>
			<path class="st0" d="M134.4,157.5c-6.8,0-13.5,0-20.3,0c-2.5,0-2.5,3.9,0,3.9c6.8,0,13.5,0,20.3,0
				C136.9,161.4,136.9,157.5,134.4,157.5L134.4,157.5z"/>
		</g>
		<g>
			<path class="st0" d="M114.1,157.5c-11.5-0.2-21.4-6.6-26.4-16.8c-5.3-10.8-2.6-24,5.5-32.5c8.1-8.7,20.9-10.9,31.8-6.8
				c11.1,4.2,18.1,15.4,18.3,27c0,2.5,3.9,2.5,3.9,0c-0.2-13.1-7.7-24.8-19.7-30.2c-12.2-5.5-26.6-2.6-36.3,6.5
				c-9.9,9.2-12.5,24.2-7.4,36.6c5.1,12.3,17.3,20,30.4,20.2C116.6,161.4,116.6,157.5,114.1,157.5L114.1,157.5z"/>
		</g>
		<g>
			<path class="st0" d="M130.1,103.3c11.8-2.2,21.1-11.5,21.6-23.7c0.1-2.5-3.8-2.5-3.9,0c-0.5,10.5-8.7,18-18.7,19.9
				C126.6,100,127.7,103.7,130.1,103.3L130.1,103.3z"/>
		</g>
		<g>
			<path class="st0" d="M87.6,115.9c-0.7-10.1-8.9-16.3-18.7-15.7c-2.5,0.2-2.5,4.1,0,3.9c5.2-0.3,10,1,12.8,5.6
				c1.1,1.8,1.9,4.5,2,6.2C83.9,118.4,87.8,118.4,87.6,115.9L87.6,115.9z"/>
		</g>
		<g>
			<path class="st0" d="M96.4,152c-1.9-6.7,0.9-13.9,5.8-18.6c1.8-1.8-1-4.5-2.8-2.8c-5.8,5.7-9,14.3-6.8,22.4
				C93.3,155.4,97.1,154.4,96.4,152L96.4,152z"/>
		</g>
		<g>
			<path class="st0" d="M61.5,329.6c36.2,0,72.4,0,108.6,0c0.3,0,0.6,0,0.9,0c2.5,0,2.5-3.9,0-3.9c-36.2,0-72.4,0-108.6,0
				c-0.3,0-0.6,0-0.9,0C59,325.6,59,329.6,61.5,329.6L61.5,329.6z"/>
		</g>
		<g>
			<path class="st0" d="M47.4,318.4c39,0,77.9,0,116.9,0c6.9,0,13.9,0,20.8,0c2.5,0,2.5-3.9,0-3.9c-38.9,0-77.9,0-116.9,0
				c-6.9,0-13.9,0-20.8,0C44.9,314.5,44.9,318.4,47.4,318.4L47.4,318.4z"/>
		</g>
		<g>
			<path class="st0" d="M42.3,282.3c39,0,92.9,0,131.9,0c6.9,0,13.9,0,20.8,0c2.5,0,2.5-3.9,0-3.9c-39,0-92.9,0-131.9,0
				c-6.9,0-13.8,0-20.8,0C39.8,278.4,39.8,282.3,42.3,282.3L42.3,282.3z"/>
		</g>
		<g>
			<path class="st0" d="M78.5,341.3c25.2,0,50.3,0,75.5,0c2.5,0,2.5-3.9,0-3.9c-25.2,0-50.3,0-75.5,0C76,337.3,76,341.3,78.5,341.3
				L78.5,341.3z"/>
		</g>
		<g>
			<path class="st0" d="M98.4,350.9c11.9,0,23.8,0,35.6,0c2.5,0,2.5-3.9,0-3.9c-11.9,0-23.8,0-35.6,0
				C95.9,347,95.9,350.9,98.4,350.9L98.4,350.9z"/>
		</g>
		<path class="st0" d="M65.9,315.8c0,0-12.7-5.3-8.4-21.2C57.5,294.6,68.8,300.1,65.9,315.8z"/>
		<path class="st0" d="M115,316.5c0,0,12.3-27.2,46.1-21.9C161.1,294.5,149,318.3,115,316.5z"/>
		<path class="st0" d="M161.9,316.5c0,0,7.6-17,28.7-13.7C190.6,302.8,183.1,317.6,161.9,316.5z"/>
		<path class="st0" d="M221.9,277.6c0,2.4-1.9,4.3-4.3,4.3c-2.4,0-4.3-1.9-4.3-4.3c0-2.4,1.9-4.3,4.3-4.3
			C220,273.3,221.9,275.2,221.9,277.6z"/>
		<path class="st0" d="M19.5,277.6c0,2.4-1.9,4.3-4.3,4.3c-2.4,0-4.3-1.9-4.3-4.3c0-2.4,1.9-4.3,4.3-4.3
			C17.6,273.3,19.5,275.2,19.5,277.6z"/>
		<path class="st0" d="M116.9,87.2c0,0-4.8-16.5,12.2-21.2C129.1,65.9,133.5,83.2,116.9,87.2z"/>
		<path class="st0" d="M145.9,112.9c0,0,15.3-7.7,23.1,8.1C169,121,152.8,128.5,145.9,112.9z"/>
		<path class="st0" d="M109.2,103.6c0,0,17.1,1.6,15.2,19.1C124.5,122.8,106.8,120.6,109.2,103.6z"/>
		<path class="st0" d="M55.5,112.9c0,0,15.3-7.7,23.1,8.1C78.5,121,62.4,128.5,55.5,112.9z"/>
		<path class="st0" d="M36.5,156.5c0,0,12.6,4.1,8.3,17C44.8,173.5,31.8,168.8,36.5,156.5z"/>
		<path class="st0" d="M67,134.5c0,0-0.3,13.3-13.9,12.9C53.1,147.3,53.8,133.5,67,134.5z"/>
		<path class="st0" d="M38.1,102.5c0,0,12.6,4.3,8,17.2C46.1,119.6,33.2,114.7,38.1,102.5z"/>
		<path class="st0" d="M90.6,60.6c0,0,12.6,4.3,8,17.2C98.6,77.7,85.7,72.9,90.6,60.6z"/>
		<path class="st0" d="M118.3,48.5c0,0,0.7,13.3-12.9,13.9C105.4,62.4,105,48.6,118.3,48.5z"/>
		<path class="st0" d="M199.8,206.1c0,0,0.7,13.3-12.9,13.9C186.9,220,186.6,206.2,199.8,206.1z"/>
		<path class="st0" d="M172.5,131.7c0,0,12.5,4.6,7.6,17.3C180.1,149.1,167.3,143.9,172.5,131.7z"/>
		<path class="st0" d="M197.9,104.3c0,0,4,12.7-9,16.7C188.9,121,185.1,107.7,197.9,104.3z"/>
		<path class="st0" d="M173.4,74.3c0,0,4,12.7-9,16.7C164.4,90.9,160.6,77.6,173.4,74.3z"/>
		<path class="st0" d="M64.1,194.4c0,0,4,12.7-9,16.7C55.1,211.1,51.3,197.8,64.1,194.4z"/>
		<path class="st0" d="M83,160.4c0,0,4,12.7-9,16.7C74,177,70.2,163.8,83,160.4z"/>
		<path class="st0" d="M78,73.5c0,0,11.8,12.5-1.1,24.4C76.9,97.9,65,84.6,78,73.5z"/>
		<g>
			<path class="st0" d="M84.2,236.1c13.5-1.1,24.2-11,24.6-24.8c0.1-2.5-3.8-2.5-3.9,0c-0.3,11.7-9.7,20-20.7,20.9
				C81.7,232.4,81.7,236.3,84.2,236.1L84.2,236.1z"/>
		</g>
		<polygon class="st0" points="104.9,211.3 104.9,202.8 108.8,202.8 108.8,210.9 107.5,213.1 		"/>
		<g>
			<path class="st0" d="M71.3,234.2c0-32.4,0-64.8,0-97.2c0-1.2-1.9-1.2-1.9,0c0,32.4,0,64.8,0,97.2
				C69.3,235.4,71.3,235.4,71.3,234.2L71.3,234.2z"/>
		</g>
		<g>
			<path class="st0" d="M51,280.3c0-36.7,0-73.5,0-110.2c0-24.1,0-48.2,0-72.2c0-1.3-2-1.3-2,0c0,36.7,0,73.5,0,110.2
				c0,24.1,0,48.2,0,72.2C49.1,281.6,51,281.6,51,280.3L51,280.3z"/>
		</g>
		<g>
			<path class="st0" d="M186.1,280.3c0-35.5,0-70.9,0-106.4c0-30.5,0-61.1,0-91.6c0-1.3-1.9-1.3-1.9,0c0,35.5,0,70.9,0,106.4
				c0,30.5,0,61.1,0,91.6C184.1,281.6,186.1,281.6,186.1,280.3L186.1,280.3z"/>
		</g>
		<g>
			<path class="st0" d="M162.1,159.4c0-31.2,0-62.3,0-93.5c0-1.3-2-1.3-2,0c0,31.2,0,62.3,0,93.5
				C160.1,160.7,162.1,160.7,162.1,159.4L162.1,159.4z"/>
		</g>
		<g>
			<path class="st0" d="M103.8,100.1c0-17.2,0-34.5,0-51.7c0-1.3-2-1.3-2,0c0,17.2,0,34.5,0,51.7
				C101.8,101.4,103.8,101.4,103.8,100.1L103.8,100.1z"/>
		</g>
	</g>
	<g>
		<g>
			<polygon class="st1" points="354.7,67.3 354.7,60.6 390.6,60.6 390.6,47.2 354.7,47.2 354.7,40.7 403.3,40.7 403.3,25.9 
				354.7,25.9 354.7,12.7 338.7,12.7 338.7,25.9 290.2,25.9 290.2,40.7 338.7,40.7 338.7,47.2 303,47.2 303,60.6 338.7,60.6 
				338.7,67.3 287.8,67.3 287.8,82.1 405.7,82.1 405.7,67.3 			"/>
			<path class="st1" d="M374.6,89.5h-66.5v0l-4.2,0c0.1,0.4,10.1,43.1-12.1,105.9l18.2,0.2c6.6-19.1,10.3-35.7,12.3-49.8h52.3v49.5
				h19.3V89.5h-8.3H374.6z M324,110.9c-0.2-2.7-0.4-5.1-0.6-7.3h51.2v7.3H324z M323.8,131.7c0.2-2.3,0.3-4.5,0.4-6.6h50.4v6.6H323.8
				z"/>
		</g>
		<g>
			<polygon class="st1" points="354.7,265.6 354.7,258.9 390.6,258.9 390.6,245.5 354.7,245.5 354.7,239 403.3,239 403.3,224.2 
				354.7,224.2 354.7,211 338.7,211 338.7,224.2 290.2,224.2 290.2,239 338.7,239 338.7,245.5 303,245.5 303,258.9 338.7,258.9 
				338.7,265.6 287.8,265.6 287.8,280.4 405.7,280.4 405.7,265.6 			"/>
			<path class="st1" d="M374.6,287.8h-66.5v0l-4.2,0c0.1,0.4,10.1,43.1-12.1,105.9l18.2,0.2c6.6-19.1,10.3-35.7,12.3-49.8h52.3v49.5
				h19.3V287.8h-8.3H374.6z M324,309.2c-0.2-2.7-0.4-5.1-0.6-7.3h51.2v7.3H324z M323.8,330c0.2-2.3,0.3-4.5,0.4-6.6h50.4v6.6H323.8z
				"/>
		</g>
		<g>
			<g>
				<linearGradient id="SVGID_1_" gradientUnits="userSpaceOnUse" x1="286.5541" y1="47.3854" x2="406.9418" y2="47.3854">
					<stop  offset="5.618000e-03" style="stop-color:#EECA7E"/>
					<stop  offset="0.1854" style="stop-color:#F2D98A"/>
					<stop  offset="0.4101" style="stop-color:#F7F1E3"/>
					<stop  offset="0.7303" style="stop-color:#C58803"/>
					<stop  offset="0.8897" style="stop-color:#E2B65E"/>
					<stop  offset="0.9494" style="stop-color:#EDC882"/>
				</linearGradient>
				<path class="st2" d="M354.7,12.7v13.2h48.6v14.8h-48.6v6.4h35.9v13.5h-35.9v6.6h50.9v14.8H287.8V67.3h50.9v-6.6H303V47.2h35.7
					v-6.4h-48.6V25.9h48.6V12.7H354.7 M356,11.4h-1.3h-16h-1.3v1.3v11.9h-47.3h-1.3v1.3v14.8V42h1.3h47.3v3.9H303h-1.3v1.3v13.5v1.3
					h1.3h34.4V66h-49.6h-1.3v1.3v14.8v1.3h1.3h117.8h1.3v-1.3V67.3V66h-1.3H356v-4.1h34.6h1.3v-1.3V47.2v-1.3h-1.3H356V42h47.3h1.3
					v-1.3V25.9v-1.3h-1.3H356V12.7V11.4L356,11.4z"/>
			</g>
			<g>
				
					<linearGradient id="SVGID_00000044139734822100393300000011365637123983551873_" gradientUnits="userSpaceOnUse" x1="289.9956" y1="142.5411" x2="395.1253" y2="142.5411">
					<stop  offset="5.618000e-03" style="stop-color:#EECA7E"/>
					<stop  offset="0.1854" style="stop-color:#F2D98A"/>
					<stop  offset="0.4101" style="stop-color:#F7F1E3"/>
					<stop  offset="0.7303" style="stop-color:#C58803"/>
					<stop  offset="0.8897" style="stop-color:#E2B65E"/>
					<stop  offset="0.9494" style="stop-color:#EDC882"/>
				</linearGradient>
				<path style="fill:url(#SVGID_00000044139734822100393300000011365637123983551873_);" d="M393.8,89.5v105.8h-19.3v-49.5h-52.3
					c-2,14.1-5.7,30.7-12.3,49.8l-18.2-0.2c22.2-62.8,12.2-105.5,12.1-105.9l4.2,0v0h66.5h10.9H393.8 M324,110.9h50.6v-7.3h-51.2
					C323.6,105.8,323.8,108.2,324,110.9 M323.8,131.7h50.8V125h-50.4C324,127.2,323.9,129.4,323.8,131.7 M302.2,88.2l0.4,1.6
					c0.1,0.4,10,42.6-12,105.2l-0.6,1.7l1.8,0l18.2,0.2l0.9,0l0.3-0.9c5.8-16.9,9.9-33.4,12.2-48.9h49.9v48.3v1.3h1.3h19.3h1.3v-1.3
					V89.5v-1.3h-1.3h-8.3h-10.9h-66.5h-1.3v0l-3,0L302.2,88.2L302.2,88.2z M324.8,104.9h48.5v4.8h-48.1
					C325,108,324.9,106.4,324.8,104.9L324.8,104.9z M325.3,126.3h47.9v4.1h-48.2C325.2,129,325.3,127.6,325.3,126.3L325.3,126.3z"/>
			</g>
		</g>
		<g>
			<g>
				
					<linearGradient id="SVGID_00000178889356474464998670000000062756873888733062_" gradientUnits="userSpaceOnUse" x1="286.5541" y1="245.6874" x2="406.9418" y2="245.6874">
					<stop  offset="5.618000e-03" style="stop-color:#EECA7E"/>
					<stop  offset="0.1854" style="stop-color:#F2D98A"/>
					<stop  offset="0.4101" style="stop-color:#F7F1E3"/>
					<stop  offset="0.7303" style="stop-color:#C58803"/>
					<stop  offset="0.8897" style="stop-color:#E2B65E"/>
					<stop  offset="0.9494" style="stop-color:#EDC882"/>
				</linearGradient>
				<path style="fill:url(#SVGID_00000178889356474464998670000000062756873888733062_);" d="M354.7,211v13.2h48.6V239h-48.6v6.4
					h35.9v13.5h-35.9v6.6h50.9v14.8H287.8v-14.8h50.9v-6.6H303v-13.5h35.7V239h-48.6v-14.8h48.6V211H354.7 M356,209.7h-1.3h-16h-1.3
					v1.3v11.9h-47.3h-1.3v1.3V239v1.3h1.3h47.3v3.9H303h-1.3v1.3v13.5v1.3h1.3h34.4v4.1h-49.6h-1.3v1.3v14.8v1.3h1.3h117.8h1.3v-1.3
					v-14.8v-1.3h-1.3H356v-4.1h34.6h1.3v-1.3v-13.5v-1.3h-1.3H356v-3.9h47.3h1.3V239v-14.8v-1.3h-1.3H356V211V209.7L356,209.7z"/>
			</g>
			<g>
				
					<linearGradient id="SVGID_00000082368998763168949510000011613349585649812917_" gradientUnits="userSpaceOnUse" x1="289.9955" y1="340.843" x2="395.1253" y2="340.843">
					<stop  offset="5.618000e-03" style="stop-color:#EECA7E"/>
					<stop  offset="0.1854" style="stop-color:#F2D98A"/>
					<stop  offset="0.4101" style="stop-color:#F7F1E3"/>
					<stop  offset="0.7303" style="stop-color:#C58803"/>
					<stop  offset="0.8897" style="stop-color:#E2B65E"/>
					<stop  offset="0.9494" style="stop-color:#EDC882"/>
				</linearGradient>
				<path style="fill:url(#SVGID_00000082368998763168949510000011613349585649812917_);" d="M393.8,287.8v105.8h-19.3v-49.5h-52.3
					c-2,14.1-5.7,30.7-12.3,49.8l-18.2-0.2c22.2-62.8,12.2-105.5,12.1-105.9l4.2,0v0h66.5h10.9H393.8 M324,309.2h50.6v-7.3h-51.2
					C323.6,304.1,323.8,306.5,324,309.2 M323.8,330h50.8v-6.6h-50.4C324,325.5,323.9,327.7,323.8,330 M302.2,286.5l0.4,1.6
					c0.1,0.4,10,42.6-12,105.2L290,395l1.8,0l18.2,0.2l0.9,0l0.3-0.9c5.8-16.9,9.9-33.4,12.2-48.9h49.9v48.3v1.3h1.3h19.3h1.3v-1.3
					V287.8v-1.3h-1.3h-8.3h-10.9h-66.5h-1.3v0l-3,0L302.2,286.5L302.2,286.5z M324.8,303.2h48.5v4.8h-48.1
					C325,306.3,324.9,304.7,324.8,303.2L324.8,303.2z M325.3,324.6h47.9v4.1h-48.2C325.2,327.3,325.3,325.9,325.3,324.6L325.3,324.6
					z"/>
			</g>
		</g>
	</g>
	<rect x="1.3" y="511.2" class="st0" width="447.9" height="57.3"/>
	<g>
		<path class="st6" d="M40.2,539.5c-0.6,1.2-1.2,2.4-1.9,3.4h2.4v-2.6H46v2.6h7.7v10c0,2.3-0.3,3.7-1.6,4.6
			c-1.3,0.8-2.9,0.9-4.9,0.9c-0.2-1.3-0.7-3.1-1.2-4.4v7.8h-5.3v-13.6h-2.2v9.8h-5.4v-8.8c-0.5,0.4-0.9,0.8-1.4,1.2
			c-0.7-1.1-2.5-3.2-3.7-4.3l-1.2,2.3c-0.3-0.8-0.7-1.8-1.2-2.9v16.2h-5.1v-14.3c-0.9,2.9-1.9,5.5-3.1,7.5c-0.5-1.7-1.7-4.1-2.5-5.6
			c1.6-2.6,3.2-6.7,4.2-10.4h-3.6v-5.8h5v-4.2c-1.1,0.2-2.2,0.4-3.3,0.5c-0.2-1.4-0.9-3.4-1.6-4.7c3.9-0.8,8.2-2.1,11.2-3.5l3,5.2
			c-1.4,0.5-2.8,1-4.3,1.4v5.4h3.7v5.8h-3.7v0.5c0.8,0.7,3.4,3.5,4,4.2l-1.2,2.1c2.2-1.6,4.1-3.7,5.6-6.2h-3.6v-5.2h6.2
			c0.2-0.6,0.4-1.1,0.6-1.7c-1.2,0.4-2.4,0.8-3.6,1.2c-0.9-1.2-2.7-3.6-3.8-4.6c2.5-0.5,5.1-1.2,7.5-2c-1.9-0.7-3.7-1.3-5.5-1.8
			l3.7-3.9c2.7,0.7,5.6,1.8,8.4,2.9c1.9-1,3.5-2.1,4.7-3.3l5.1,2.4c-1.2,1.2-2.6,2.3-4.2,3.3c1.7,0.9,3.3,1.8,4.7,2.6l-3.7,4.4
			c-1.8-1.2-4.1-2.6-6.7-3.9c-1.4,0.7-2.9,1.3-4.4,1.9l3.5,0.8c-0.2,0.6-0.3,1.2-0.5,1.7h12.3v5.2H40.2z M46,548.2v5
			c0.7,0,1.5,0,1.7,0c0.4,0,0.5-0.1,0.5-0.5v-4.6H46z"/>
		<path class="st6" d="M74.6,531.8c-0.4,0.9-0.8,1.7-1.2,2.5h18.8v21c0,2.9-0.5,4.5-2.3,5.5c-1.8,0.9-4.2,1-7.5,1
			c-0.2-1.7-1-4.4-1.8-6c1.8,0.1,4.2,0.1,4.8,0.1c0.7,0,0.9-0.2,0.9-0.8v-1.5H72c-0.7,3.3-2.2,6.3-4.8,8.5c-0.8-1.3-3.1-3.9-4.3-4.8
			c3.6-3.1,3.9-7.6,3.9-11.6v-2c-1.3,1.4-2.7,2.6-4.2,3.7c-0.9-1.4-2.8-3.6-4-4.8c3.9-2.6,7-6.5,9.3-10.8h-8.2V526h10.8
			c0.6-1.7,1.1-3.4,1.5-5l6.2,1.5c-0.4,1.2-0.7,2.4-1.2,3.6h19.7v5.8H74.6z M86.3,548.5v-1.8H72.8c0,0.6,0,1.2-0.1,1.8H86.3z
			 M86.3,539.8H72.8v1.8h13.5V539.8z"/>
		<path class="st6" d="M123.8,551.6c-1.2,1.7-3,3-6.1,4c2,0.3,4.3,0.3,6.8,0.3c4.6,0,12.3-0.5,16.9-1.2c-0.6,1.5-1.5,4.4-1.6,5.9
			c-3.7,0.2-10.8,0.5-15.5,0.5c-5.5,0-8.9-0.5-11.9-2.2c-1.7-1-3.1-2.4-4-2.4c-0.9,0-2.4,2.9-3.5,5.3l-3.6-5.5
			c1.2-1.4,2.5-2.6,3.7-3.5c0.9-2.1,1.6-4.7,2.2-7.3h-4.9c0.9-2.5,2-5.9,2.9-9.3h-3.3v-5.4h10.6c-0.8,3-1.8,6.3-2.7,9.3h0.4l0.8-0.2
			l2.3,0.8c-0.7,4-1.7,8-3,11.3c0.7,0.4,1.5,1.1,2.6,1.8c0.8,0.5,1.6,0.9,2.6,1.2c-0.6-1.1-1.4-2.3-2.1-3c4.8-0.9,6.3-2.2,7-4.4
			h-7.3v-3.3h10.7l-0.6-1.4l4.8-1.1c0.4,0.7,0.8,1.6,1.2,2.5h10.8v3.3h-14.6c0,0.3-0.1,0.5-0.2,0.7h11c0,0,0,1-0.2,1.6
			c-0.3,2.3-0.7,3.6-1.6,4.3c-0.8,0.7-1.9,0.9-2.9,0.9c-1,0.1-2.8,0.1-4.7,0c0-0.9-0.5-2.4-0.9-3.3c1.4,0.2,2.7,0.2,3.3,0.2
			c0.5,0,0.8,0,1.1-0.3c0.1-0.1,0.2-0.2,0.2-0.3H123.8z M106.9,530.3c-0.5-2-1.7-5.2-2.5-7.6l4.9-1.5c0.8,2.4,2,5.4,2.6,7.3
			L106.9,530.3z M126.5,539.1c-1.3,3.1-3.9,4.5-10.5,5.4c-0.4-1-1.3-2.2-2.1-3c4.5-0.4,6.3-1.1,7.2-2.4h-2.8v1.6h-5.1v-4.5h10.6
			c-0.1-0.3-0.2-0.7-0.2-1h-7.8v-11.9h6.5c0.4-0.9,0.8-1.7,1-2.4l6.2,0.4c-0.5,0.7-1,1.4-1.6,2h9.6v11.9h-7.8c0.1,0.3,0.2,0.6,0.3,1
			h10v4.2h-5.4v-1.3h-1.6v1.1c0,0.6,0,1,1,1h1.7c0.8,0,2.7-0.1,3.3-0.3c0.1,1.2,0,1.5,0.3,2.8c-0.7,0.2-2.2,0.3-3.3,0.3h-4.4
			c-3,0-3.3-1.8-3.3-3.8v-1H126.5z M121.2,526.6h10.4v-1h-10.4V526.6z M121.2,529.8h10.4v-1h-10.4V529.8z M121.2,533h10.4v-1h-10.4
			V533z"/>
		<path class="st6" d="M152.6,538.6v23.2h-5.9v-39.2H163v16H152.6z M152.6,527v1.5h4.9V527H152.6z M157.4,534.2v-1.7h-4.9v1.7H157.4
			z M182.1,554.7c0,3.2-0.6,4.9-2.4,6c-1.9,1-4.3,1.2-7.9,1.2c-0.1-1.1-0.5-2.6-0.9-4h-9.3v2.2h-5.4v-19.1h16.2v14.7
			c1.2,0,2.3,0,2.7,0c0.7,0,1-0.3,1-1v-15.8h-10.7v-16.2h16.8V554.7z M161.5,545.3v1.8h5.2v-1.8H161.5z M166.8,553.3v-1.8h-5.2v1.8
			H166.8z M171,527v1.5h5.1V527H171z M176.1,534.4v-1.8H171v1.8H176.1z"/>
		<path class="st6" d="M187.7,553.8l3.4-4.8c1.9,1.8,4,3.1,6.4,3.1c2.8,0,4.7-1.2,4.7-3.6c0-2.7-1.4-4.4-7.8-4.4v-5.4
			c5.2,0,6.9-1.7,6.9-4.2c0-2.2-1.2-3.4-3.5-3.4c-2.1,0-3.6,1-5.5,2.7l-3.7-4.7c2.8-2.5,5.9-3.9,9.5-3.9c6.3,0,10.5,3.1,10.5,8.8
			c0,3.2-1.6,5.7-4.9,7v0.2c3.4,1.1,5.9,3.6,5.9,7.8c0,6-5.2,9.3-11.3,9.3C193.4,558.3,189.9,556.5,187.7,553.8z"/>
		<path class="st6" d="M236.8,547.7c-0.1,0.6-0.2,1.1-0.2,1.7h12.7c0,0,0,1.4-0.1,2.1c-0.3,4.9-0.9,7.5-1.9,8.6
			c-1,1.1-2.2,1.4-3.7,1.5c-1.2,0.2-3.3,0.2-5.5,0.1c-0.1-1.6-0.7-3.7-1.6-5.1c1.8,0.2,3.5,0.2,4.3,0.2c0.6,0,1-0.1,1.4-0.4
			c0.3-0.3,0.5-1.1,0.7-2.4h-7.9c-1.7,3.3-4.7,6-10.4,7.8c-0.5-1.2-1.6-3-2.6-4.2c-0.8,1.8-1.9,3.5-3.2,4.9
			c-0.8-1.2-3.2-3.8-4.3-4.6c4.6-5.2,4.9-13.1,4.9-19.2v-14.3h0c9.5-0.5,20.1-1.6,26.6-3.2l4.5,4.6c-7.3,1.7-16.6,2.7-25.2,3.2v0.8
			H251v10.9h-10.7c0.3,0.7,0.6,1.5,0.8,2.3h12v4.8H236.8z M224.9,547.7c-0.5,3-1.2,6.1-2.4,8.9c6.2-1.9,7.7-4.9,8.4-8.9H224.9z
			 M234.6,542.9c-0.2-0.6-0.3-1.1-0.5-1.6l3.9-0.7h-12.5c0,0.7,0,1.5-0.1,2.3H234.6z M225.5,534.4v1.5h19.6v-1.5H225.5z"/>
		<path class="st6" d="M269.8,553.3c7.7-7.2,12.8-13,12.8-17.7c0-2.9-1.6-4.5-4-4.5c-2.1,0-3.7,1.5-5.2,3.1l-4-4.1
			c3-3.3,5.8-4.9,10.2-4.9c5.9,0,10,3.9,10,10c0,5.5-4.5,11.5-9.2,16.5c1.5-0.2,3.6-0.4,5-0.4h5.6v6.4h-21.3V553.3z"/>
		<path class="st6" d="M300.9,549.9c1,1.2,2.9,2.2,4.7,2.2c3.1,0,5.6-2.3,5.9-9.3c-1.5,2.1-4.1,3.2-5.8,3.2c-5.1,0-9-3.2-9-10
			c0-6.8,4.6-10.8,10.1-10.8c5.8,0,11.4,4.6,11.4,16.2c0,11.6-5.8,16.9-12.1,16.9c-4.1,0-7.1-1.8-9-3.8L300.9,549.9z M311.3,537.7
			c-0.6-5.3-2.6-6.8-4.4-6.8c-1.9,0-3.6,1.4-3.6,5.1c0,3.4,1.6,4.7,3.7,4.7C308.5,540.7,310.1,539.9,311.3,537.7z"/>
		<path class="st6" d="M323.9,538.6h10.6v4.9h-10.6V538.6z"/>
		<path class="st6" d="M339.1,553.8l3.4-4.8c1.9,1.8,4,3.1,6.4,3.1c2.8,0,4.7-1.2,4.7-3.6c0-2.7-1.4-4.4-7.8-4.4v-5.4
			c5.2,0,6.9-1.7,6.9-4.2c0-2.2-1.2-3.4-3.5-3.4c-2.1,0-3.6,1-5.5,2.7l-3.7-4.7c2.8-2.5,5.9-3.9,9.5-3.9c6.3,0,10.5,3.1,10.5,8.8
			c0,3.2-1.6,5.7-4.9,7v0.2c3.4,1.1,5.9,3.6,5.9,7.8c0,6-5.2,9.3-11.3,9.3C344.8,558.3,341.3,556.5,339.1,553.8z"/>
		<path class="st6" d="M368.3,551.5h6.5v-18.1h-5.6v-4.7c3.3-0.6,5.4-1.5,7.6-2.9h5.4v25.7h5.5v6.2h-19.4V551.5z"/>
		<path class="st6" d="M432.2,548.4h-9.9v13.3h-6v-13.3h-9.8l0.5,3.2c-4.1,1.7-8.5,3.4-12.1,4.8l-2.1-6.4c1.3-0.3,2.8-0.8,4.6-1.3
			v-12.1h-3.7v-5.9h3.7v-9.1h5.4v9.1h3.2v5.9h-3.2v10.4l3.3-1l0.3,1.7v-5.3h9.9v-13.6h-8.9v-5.9h23.8v5.9h-8.9v13.6h9.9V548.4z
			 M412.6,530.2c0.9,3,1.7,6.9,2,9.5l-5,1.3c-0.2-2.6-0.9-6.6-1.8-9.7L412.6,530.2z M423.7,539.7c0.8-2.7,1.6-6.8,1.9-9.9l5.6,1.2
			c-1,3.6-2.1,7.4-3,9.9L423.7,539.7z"/>
	</g>
	<g>
		<g>
			<path class="st7" d="M3.6,446.2h32.3v6.9H3.6V446.2z M4.5,472.8h31v25.3h-7.9v-1.4H12.1v1.7H4.5V472.8z M33.7,455.2v15.4H6.4
				v-15.4H33.7z M12.1,479.1v2.6h4.1v-2.6H12.1z M16.2,490.4v-2.8h-4.1v2.8H16.2z M25.8,461.4H13.8v3h11.9V461.4z M27.7,479.1h-4.1
				v2.6h4.1V479.1z M27.7,490.4v-2.8h-4.1v2.8H27.7z M44.7,483.8h-7.2v-32.8h7.2V483.8z M55.4,445.1v43.6c0,4.4-0.7,6.7-3.3,8
				c-2.5,1.4-6.3,1.7-11.2,1.7c-0.3-2.4-1.5-6.2-2.6-8.6c3.2,0.2,6.5,0.2,7.6,0.2c1,0,1.4-0.3,1.4-1.3v-43.6H55.4z"/>
			<path class="st7" d="M135.5,450.5c-1.8,5.6-4.1,12.1-6.1,17c4.2,5.1,4.9,9.6,4.9,13.1c0,4.7-1,7.6-3.4,9.2
				c-1.1,0.9-2.6,1.4-4.2,1.6c-1.3,0.2-3,0.2-4.8,0.1c-0.1-2.1-0.8-5.5-2-7.7v14.5h-8.2v-46.9c-1.3,3-2.6,6-4.2,8.7h2.8v7.2h-7.5
				c-0.9,1.2-1.9,2.4-2.9,3.5h8.8v26.6h-7.9v-2h-7.3v2.8h-7.5v-16.1c-0.6,0.4-1.3,0.7-1.9,1.1c-0.9-1.8-3.2-5.3-4.7-7
				c4.9-2.2,9.2-5.3,13-8.9H81v-7.2h9.2v-3.5h-6.8v-7.1h6.8v-5.3h7.7v5.3h5.2v2.6c0.8-1.8,1.5-3.6,2.2-5.5l6.4,1.8V447h16.5l1.2-0.3
				L135.5,450.5z M100.7,477.5h-7.3v2.5h7.3V477.5z M100.7,489v-2.8h-7.3v2.8H100.7z M98.5,460.2c0.7-1.1,1.5-2.3,2.2-3.5h-2.9v3.5
				H98.5z M119.9,483.5c1.1,0.1,2,0.1,2.8,0.1c0.8,0,1.6-0.1,2.2-0.5c0.9-0.5,1.3-1.7,1.3-3.6c0-2.9-1-7-4.9-11.1
				c1.3-3.8,2.9-9.3,4-13.7h-5.4V483.5z"/>
			<path class="st7" d="M170.7,464.9c-0.7,7.9-2,18-3.7,24.7l-8.6-3.4c1.8-6.2,3.4-14.6,4-22.9L170.7,464.9z M182.3,460.5v25.8
				c0,2.8,0.3,3.2,2.9,3.2h6.6c2.6,0,3-1.7,3.4-10.2c1.9,1.4,5.6,2.9,7.8,3.5c-0.9,10.9-3,14.4-10.5,14.4H184
				c-8.2,0-10.5-2.6-10.5-10.9v-25.8H182.3z M180.8,444.1c5.2,3.1,12.7,8,16.2,11.5l-6.2,6.6c-3.2-3.6-10.4-8.9-15.7-12.4
				L180.8,444.1z M206,461.3c3.2,6.8,6.1,15.4,7.3,21.4l-8.5,3.6c-0.9-5.9-3.7-15-6.6-21.8L206,461.3z"/>
			<path class="st7" d="M241,461.4c-0.5,0.6-1,1.1-1.6,1.6c-0.7-1.4-2.6-4.6-3.8-6c3.4-3.1,6.4-7.9,8-13l6.3,1.7
				c-0.5,1.3-0.9,2.6-1.5,3.8h3.2c-0.4-1.3-0.9-2.5-1.3-3.7l6.9-1.8c0.7,1.7,1.7,3.8,2.2,5.5h3.4v4.8c2.3-3,4.2-6.7,5.5-10.3
				l6.4,1.8c-0.5,1.3-1,2.5-1.5,3.7h3.2c-0.4-1.2-0.8-2.4-1.3-3.5l6.9-1.8c0.7,1.6,1.6,3.7,2.2,5.3h4.5v5.1H282v1.5h5.1v4.7H282v1.5
				h5.1v4.7H282v1.5h7.2v5.1h-23.5v-12c-0.5,0.6-1,1.1-1.5,1.6c-0.5-0.9-1.5-2.3-2.5-3.6v1.2h-4.4v1.5h4.4v4.7h-4.4v1.5h5.9v5.1H241
				V461.4z M284.2,478.5c-2.5,4.1-5.9,7.5-9.9,10.1c4.7,0.8,9.8,1.4,15.2,1.7c-1.8,2-4,5.6-5.1,7.9c-8-0.7-15.2-2-21.4-4.2
				c-6.9,2.3-14.8,3.7-23,4.5c-0.6-2.2-2.1-5.5-3.4-7.5c5.6-0.3,11-1,16-2c-2.5-1.6-4.7-3.3-6.8-5.3l3.5-1.6h-9.4v-6.7H277l1.5-0.3
				L284.2,478.5z M247.9,454.6v1.5h2.8v-1.5H247.9z M250.7,460.8h-2.8v1.5h2.8V460.8z M250.7,467h-2.8v1.5h2.8V467z M255.7,482.1
				c2.1,1.4,4.7,2.6,7.7,3.7c2.5-1.1,4.8-2.3,6.7-3.7H255.7z M261.3,456.1c0.5-0.5,0.9-1,1.3-1.5h-5.2v1.5H261.3z M275.4,454.6h-2.8
				v1.5h2.8V454.6z M275.4,460.8h-2.8v1.5h2.8V460.8z M275.4,467h-2.8v1.5h2.8V467z"/>
			<path class="st7" d="M332.1,475.4c-1.7,0.5-3.3,1-5.1,1.4v13c0,3.6-0.6,5.7-2.5,7c-2,1.3-4.6,1.6-8.4,1.6
				c-0.2-2.1-1.1-5.5-2.1-7.8c1.8,0.1,3.7,0.1,4.4,0.1c0.7,0,0.9-0.2,0.9-0.9V479l-4.7,1.3l-1.7-8c1.8-0.3,4-0.9,6.4-1.4V462h-5.4
				v-7.6h5.4v-10.5h7.6v10.5h4.6v7.6h-4.6v7l4-1L332.1,475.4z M352.9,490.5c1.5,0.2,3,0.2,4.5,0.2c2,0,8.3,0,10.9-0.1
				c-1,1.7-2,5.1-2.2,7.1h-9.2c-7.5,0-13.8-1.3-18.4-6c-1.2,2.7-2.8,5.1-4.6,6.9c-1.3-1.3-4.5-3.6-6.3-4.5c3.9-3.4,5.9-9.2,6.5-15.6
				l7.6,1c-0.2,1.8-0.6,3.5-1,5.2c1.2,1.7,2.7,3,4.4,3.9v-10.7H335v-6.1h10.2v-1.8h-13.7v-6.4h13.7v-1.7H335v-6.1h10.2v-1.6h-12.6
				v-6.4h12.6v-3.9h7.7v3.9H367v6.4h-14.1v1.6H365v7.8h3.3v6.4H365v7.9h-12.1v2.4h12.3v6.4h-12.3V490.5z M352.9,463.6h4.4v-1.7h-4.4
				V463.6z M352.9,471.8h4.4v-1.8h-4.4V471.8z"/>
			<path class="st7" d="M408.4,471.7c-0.9,4.6-2.2,9.6-4,14c0.8,0.5,1.7,1.1,2.9,1.8c3.8,2.4,9.4,2.7,16.1,2.7
				c6.2,0,17.1-0.6,23.4-1.7c-0.9,2.2-2.3,6.3-2.4,8.5c-5,0.3-14.8,0.7-21.4,0.7c-7.7,0-12.5-0.6-16.6-2.9c-2.4-1.4-4.4-3.2-5.6-3.2
				c-1.4,0-3.4,4.1-4.8,7.2l-5.5-8c2-2.2,4.2-4,6.3-5.1c1.1-2.6,2.1-5.8,2.8-8.8h-7.1c1.3-3.4,2.6-7.8,3.8-12.2h-4.6v-7.4h14.5
				c-1.1,4-2.4,8.4-3.6,12.5l0.9-0.2L408.4,471.7z M397.9,456.2c-0.7-2.7-2.3-7-3.3-10.2l7.3-2.3c1.1,3.2,2.6,7.1,3.5,9.8
				L397.9,456.2z M412.2,457.6h-5.1v-12.1h37.3v12.1h-6.6v2.5h-7.8v1.3h11.6v17.2h-11.6v1.3h14.1v5.9h-14.1v3.3H422v-3.3h-14.1v-5.9
				H422v-1.3h-11.6v-17.2H422v-1.3h-9.8V457.6z M414.8,451.6v2.9h7.2v-1.8h8.1v1.8h6.4v-2.9H414.8z M417.5,467.7h4.5v-1.4h-4.5
				V467.7z M422,473.7v-1.4h-4.5v1.4H422z M430.1,466.3v1.4h4.2v-1.4H430.1z M434.3,472.3h-4.2v1.4h4.2V472.3z"/>
		</g>
	</g>
	<g>
		<path class="st8" d="M4.7,643.2c18.9-15.1,28.6-26.4,28.6-35.9c0-6.3-3.7-10.6-10.9-10.6c-5,0-9.2,2.9-12.6,6.5l-5.6-5
			c5.5-5.4,11.1-8.7,19.5-8.7c11.7,0,19.3,6.9,19.3,17.4c0,11.2-9.8,22.8-23.4,34.5c3.3-0.3,7.3-0.6,10.4-0.6h16v7.7H4.7V643.2z"/>
		<path class="st8" d="M57.5,643.2C76.3,628.1,86,616.9,86,607.4c0-6.3-3.7-10.6-10.9-10.6c-5,0-9.2,2.9-12.6,6.5l-5.6-5
			c5.5-5.4,11.1-8.7,19.5-8.7c11.7,0,19.3,6.9,19.3,17.4c0,11.2-9.8,22.8-23.4,34.5c3.3-0.3,7.3-0.6,10.4-0.6h16v7.7H57.5V643.2z"/>
		<path class="st8" d="M140.7,598.2h-30.1v-7.6h41.2v5.5c-15,17-17.4,29.8-18.4,52.4h-10.2C124.2,627.3,128.3,613.8,140.7,598.2z"/>
		<path class="st8" d="M198.3,601.2c-2.3-2.5-6.3-4.3-10-4.3c-8.2,0-14.9,5.6-15.4,22.1c3.7-4.2,9.3-6.7,13.9-6.7
			c10.8,0,18,6,18,18.3c0,11.5-8.7,19-19.1,19c-12.2,0-22.1-9.2-22.1-28.9c0-22.3,11.6-31.2,24.1-31.2c7.1,0,12.3,2.8,16,6.2
			L198.3,601.2z M195.6,630.6c0-7.5-3.6-11.7-10.5-11.7c-3.7,0-8.1,1.8-11.9,6.8c1,11.5,5.6,16.9,12.5,16.9
			C191.2,642.6,195.6,638.1,195.6,630.6z"/>
		<path class="st8" d="M215.9,616.7h22.9v6.7h-22.9V616.7z"/>
		<path class="st8" d="M280.3,598.2h-30.1v-7.6h41.2v5.5c-15,17-17.4,29.8-18.4,52.4h-10.2C263.9,627.3,268,613.8,280.3,598.2z"/>
		<path class="st8" d="M302.6,643.2c18.9-15.1,28.6-26.4,28.6-35.9c0-6.3-3.7-10.6-10.9-10.6c-5,0-9.2,2.9-12.6,6.5l-5.6-5
			c5.5-5.4,11.1-8.7,19.5-8.7c11.7,0,19.3,6.9,19.3,17.4c0,11.2-9.8,22.8-23.4,34.5c3.3-0.3,7.3-0.6,10.4-0.6h16v7.7h-41.3V643.2z"
			/>
		<path class="st8" d="M385.8,598.2h-30.1v-7.6h41.2v5.5c-15,17-17.4,29.8-18.4,52.4h-10.2C369.4,627.3,373.5,613.8,385.8,598.2z"/>
		<path class="st8" d="M408,643.2c18.9-15.1,28.6-26.4,28.6-35.9c0-6.3-3.7-10.6-10.9-10.6c-5,0-9.2,2.9-12.6,6.5l-5.6-5
			c5.5-5.4,11.1-8.7,19.5-8.7c11.7,0,19.3,6.9,19.3,17.4c0,11.2-9.8,22.8-23.4,34.5c3.3-0.3,7.3-0.6,10.4-0.6h16v7.7H408V643.2z"/>
	</g>
</g>
</svg>
