<svg xmlns="http://www.w3.org/2000/svg" width="1714.823" height="1132.562" viewBox="0 0 1714.823 1132.562"><g transform="translate(-200.204 77.647)"><g transform="translate(-83 9.562)"><path d="M1920,916.414s-359.154-92.1-784.715,62.642S418.117,967,418.117,967" fill="none" stroke="#c69c6d" stroke-miterlimit="10" stroke-width="1" opacity="0.4"/><path d="M1915.119,910.135s-363.257-91.77-793.926,63.378S395.67,962.124,395.67,962.124" fill="none" stroke="#c69c6d" stroke-miterlimit="10" stroke-width="1" opacity="0.4"/><path d="M1910.239,903.856s-367.361-91.441-803.139,64.115-733.876-10.723-733.876-10.723" fill="none" stroke="#c69c6d" stroke-miterlimit="10" stroke-width="1" opacity="0.4"/><path d="M1905.358,897.578s-371.464-91.114-812.35,64.85-742.23-10.056-742.23-10.056" fill="none" stroke="#c69c6d" stroke-miterlimit="10" stroke-width="1" opacity="0.4"/><path d="M1900.477,891.3s-375.567-90.785-821.561,65.586S328.332,947.5,328.332,947.5" fill="none" stroke="#c69c6d" stroke-miterlimit="10" stroke-width="1" opacity="0.4"/><path d="M1895.6,885.02s-379.672-90.457-830.774,66.322-758.938-8.722-758.938-8.722" fill="none" stroke="#c69c6d" stroke-miterlimit="10" stroke-width="1" opacity="0.4"/><path d="M1890.716,878.742s-383.775-90.129-839.985,67.057-767.292-8.055-767.292-8.055" fill="none" stroke="#c69c6d" stroke-miterlimit="10" stroke-width="1" opacity="0.4"/></g><g transform="translate(-83 9.562)"><circle cx="118" cy="118" r="118" transform="translate(1723.367 -70.485)" fill="#133a3b" opacity="0.1"/><circle cx="43.5" cy="43.5" r="43.5" transform="translate(1716.367 107.515)" fill="#133a3b" opacity="0.1"/></g><path d="M389.925,1035.14s348.247-143.316,802.386-64.392S1914.726,846.56,1914.726,846.56" fill="none" stroke="#c69c6d" stroke-miterlimit="10" stroke-width="1" opacity="0.5"/><g transform="translate(-83 9.562)"><path d="M481.681,1.348s345.516-77.9,747.544,81.746,685.133,8.525,685.133,8.525" fill="none" stroke="#c69c6d" stroke-miterlimit="10" stroke-width="1" opacity="0.4"/><path d="M487.712-77.325S836.879-136.76,1229.856,44.023s683.712,44.918,683.712,44.918" fill="none" stroke="#c69c6d" stroke-miterlimit="10" stroke-width="1" opacity="0.4"/></g></g></svg>