<svg xmlns="http://www.w3.org/2000/svg" width="136.23" height="43.718" viewBox="0 0 136.23 43.718">
  <g id="Group_897" data-name="Group 897" transform="translate(-666.223 -8414.279)">
    <path id="Path_653" data-name="Path 653" d="M708.591,8417.119v4.282h-21.6a56.27,56.27,0,0,1-5.54,11.547h23.791v24.3h-4.516v-2.235H682.379v2.235h-4.563v-19.275a57.39,57.39,0,0,1-8.846,8.613l-2.747-4.424a46.185,46.185,0,0,0,15.969-20.765H667.433v-4.282Zm-7.868,33.615v-13.5H682.379v13.5Z" fill="#fff"/>
    <path id="Path_654" data-name="Path 654" d="M732.383,8417.164a19.406,19.406,0,0,0-1.49-2.142l4.515-.743c.467.838.885,1.814,1.351,2.885h17.692v3.259H714.6v-3.259Zm22.114,20.394h-4.236v-5.169H718.834v5.31H714.6v-8.1h39.9Zm-5.353,16.2c0,2.376-1.63,3.585-4.843,3.585h-5.54l-.931-3.351c1.955.092,3.725.185,5.354.185a1.637,1.637,0,0,0,1.816-1.86v-.279c-6.8.93-14.014,1.721-21.6,2.374l-.559-2.095A14.635,14.635,0,0,1,717.9,8458l-3.026-2.7c3.213-2.05,4.842-4.658,4.935-7.777V8441.7h29.332Zm-.233-32.079v6.565H720.138v-6.565Zm-2,12.061v6.61H722.233v-6.61ZM745,8449.569v-4.89H723.956v1.072c4,.187,6.983.326,8.985.466,2.048.092,4.609.232,7.776.464l-1.118,2.608c-2.793-.232-5.633-.419-8.52-.606-2.328-.092-4.7-.185-7.217-.231a12.242,12.242,0,0,1-.558,2.654C730.707,8450.779,737.923,8450.268,745,8449.569Zm-.326-25.421h-20.3v1.584h20.3Zm-1.956,12.059h-16.3v1.676h16.3Z" fill="#fff"/>
    <path id="Path_655" data-name="Path 655" d="M775.123,8455.9h-3.864v-2.1h-3.678v2.653H763.67v-17.225q-.907,1.746-1.955,3.351l-2.375-3.817a48.634,48.634,0,0,0,5.913-17.319h-4.47v-4.05H775.03v4.05H769.4a64.246,64.246,0,0,1-2.281,9.684h8.007Zm-3.864-6V8435h-3.678v14.9Zm15.271-32.453V8415.4h4.284v2.047H800.87v3.539H790.814v1.723h8.612v14.106h-.185c1.3,1.863,2.374,3.492,3.212,4.936l-3.166,2.235c-.372-.7-.745-1.351-1.117-2l-1.257.094v2.605h5.121v3.865h-5.121v4.795c0,2.887-1.4,4.331-4.144,4.331h-4.7l-.884-4.1a31.628,31.628,0,0,0,4.1.278q1.4,0,1.4-1.535v-3.772H776.567v-3.865h16.108V8442.4c-4.189.28-9.311.561-15.457.793l-.558-3.726c3.585-.093,6.89-.231,9.87-.326v-2.328h-8.381v-14.106h8.381v-1.723H776.8v-3.539Zm.326,34.733-2.235,3.4a28.618,28.618,0,0,0-6.751-3.957l2.049-3.027A36.043,36.043,0,0,1,786.856,8452.177Zm-.326-23.932v-2.187h-4.516v2.188Zm0,2.979h-4.516v2.234h4.516Zm4.284-2.979h4.749v-2.187h-4.749Zm4.749,2.979h-4.749v2.234h4.749Zm-.838,5.587h-3.911v2.1c1.861-.14,3.538-.279,5.121-.372C795.515,8437.883,795.1,8437.324,794.725,8436.812Z" fill="#fff"/>
  </g>
</svg>
