<svg xmlns="http://www.w3.org/2000/svg" width="153.187" height="34.676" viewBox="0 0 153.187 34.676">
  <g id="Group_902" data-name="Group 902" transform="translate(-659.964 -8158.137)">
    <path id="Path_704" data-name="Path 704" d="M669.261,8163.07h4.173v22.393s-.66,1.9-1.989,1.9h-5.03v3.8H688.43v-3.8h-4.745s-2.375-.187-2.375-2.182v-22.2h4.275s5.6.094,5.6,8.063a26.162,26.162,0,0,0,3.888,0v-11.48H659.964v11.576h3.7s-.1-8.065,5.6-8.065" fill="#fff"/>
    <path id="Path_705" data-name="Path 705" d="M716.132,8192.578c12.529,0,19.17-7.875,19.17-16.225s-3.8-18.216-18.977-18.216c-12.62,0-18.882,8.823-18.882,16.226,0,10.246,6.166,18.215,18.689,18.215m-.093-30.739c11.1,0,10.344,11.763,10.344,14.607s-.477,12.24-10.156,12.24-9.958-10.151-9.958-14.8,2.278-12.048,9.77-12.048" fill="#fff"/>
    <path id="Path_706" data-name="Path 706" d="M747.259,8163.306h4.171V8185.7s-.663,1.9-1.988,1.9h-5.035v3.795h22.015V8187.6h-4.744s-2.371-.189-2.371-2.184v-22.2h4.268s5.6.093,5.6,8.062a26.162,26.162,0,0,0,3.888,0V8159.8H737.957v11.575h3.7s-.1-8.067,5.6-8.067" fill="#fff"/>
    <path id="Path_707" data-name="Path 707" d="M793.983,8192.813c12.527,0,19.168-7.876,19.168-16.225s-3.793-18.217-18.972-18.217c-12.623,0-18.887,8.825-18.887,16.229,0,10.247,6.17,18.212,18.691,18.212m-.092-30.738c11.1,0,10.344,11.764,10.344,14.609s-.475,12.239-10.155,12.239-9.962-10.151-9.962-14.8,2.28-12.05,9.773-12.05" fill="#fff"/>
  </g>
</svg>
