<svg xmlns="http://www.w3.org/2000/svg" width="135.392" height="42.928" viewBox="0 0 135.392 42.928">
  <g id="Group_896" data-name="Group 896" transform="translate(-894.785 -8275.022)">
    <path id="Path_650" data-name="Path 650" d="M936.921,8294.112v4.376H894.785v-4.376Z" fill="#fff"/>
    <path id="Path_651" data-name="Path 651" d="M963.692,8301.795v2.281h15.876v3.631H963.692v2.281h18.437v3.911H963.692v4.051h-4.237V8313.9H942.694v-3.911h16.761v-2.281h-14.34v-3.631h14.34v-2.281H946.512v-3.539h12.943v-2.281H941.67v-3.725h17.785v-2.235H946.466v-3.585h12.989v-1.955h4.237v1.955h13.967v5.82h5.495v3.725h-5.495v5.82Zm-18.158-15.971-3.631-2.281a24.256,24.256,0,0,0,6.006-8.521l4.143.885c-.279.7-.6,1.4-.931,2.095h10.616v3.725h-4.889a30.5,30.5,0,0,1,1.676,2.654l-3.725,1.4a35.266,35.266,0,0,0-2.374-4.053h-3.492A28.779,28.779,0,0,1,945.534,8285.824Zm19.927-.464-3.631-2.282a21.948,21.948,0,0,0,4.7-7.961l4.19.883c-.279.653-.512,1.351-.744,2h12.943v3.725h-7.683a29.8,29.8,0,0,1,1.63,2.7l-3.678,1.4a38.95,38.95,0,0,0-2.328-4.1h-2.794A30.079,30.079,0,0,1,965.461,8285.36Zm-1.769,6.89h9.824v-2.235h-9.824Zm0,6.006h9.824v-2.281h-9.824Z" fill="#fff"/>
    <path id="Path_652" data-name="Path 652" d="M991.488,8287.734l-3.725-2.374a30.915,30.915,0,0,0,6.286-10.338l4.236.933c-.326.885-.652,1.722-.977,2.56h11.639v4h-5.727a29.73,29.73,0,0,1,1.863,3.584l-3.958,1.49a36.09,36.09,0,0,0-2.421-5.074h-3.4A35.9,35.9,0,0,1,991.488,8287.734Zm3.026,3.864v-5.4h4.1v5.4h4.517v4.143h-4.517v5.5c1.4-.326,2.7-.653,4-1.025v4.237c-1.3.372-2.607.7-4,1.069v7.729c0,2.888-1.35,4.377-4.051,4.377h-4.7l-.931-4a33.989,33.989,0,0,0,4.237.28c.885,0,1.35-.56,1.35-1.677v-5.865c-1.769.324-3.632.6-5.54.884l-.513-4.19c2.142-.278,4.144-.6,6.053-.977v-6.333h-5.4V8291.6Zm33.988-4.144v3.91h-19.927v21.511h20.858v3.91h-24.955v-29.331Zm-16.482-.7-3.725-2.421a26.144,26.144,0,0,0,5.262-9.266l4.282.931c-.279.885-.6,1.723-.931,2.515h13.269v4h-6.471a26.579,26.579,0,0,1,2.1,3.213l-3.957,1.488a45.1,45.1,0,0,0-2.84-4.7h-4.051A34.278,34.278,0,0,1,1012.02,8286.756Zm9.311,19.6,1.537.14c.791,0,1.21-.513,1.21-1.443v-5.96h-3.072v12.663h-3.632v-12.663H1014.3v10.662h-3.678v-14.247h6.751v-2.979h3.632v2.979h6.844v10.662c0,2.281-1.257,3.446-3.725,3.446h-1.956Z" fill="#fff"/>
  </g>
</svg>
