<svg xmlns="http://www.w3.org/2000/svg" width="158" height="97.516" viewBox="0 0 158 97.516">
  <g id="Group_1260" data-name="Group 1260" transform="translate(-1329.586 -8256.398)">
    <path id="Path_640" data-name="Path 640" d="M1426.97,8292.354,1416.8,8256.4h-22.83v9.636c-2.976-5.775-10.159-9.238-20.18-9.238-11.774,0-22.269,5.525-22.831,18.5h15.062c.48-4.006,3.365-6,7.29-6,3.282,0,6.565,1.356,6.565,5.046,0,5.28-5.525,5.76-9.93,5.76v9.857c4,0,10.41.561,10.41,6.249,0,3.283-2.564,6.566-7.447,6.566-5.2,0-8.009-3.131-8.009-8.329h-15.7c0,13.854,9.69,20.817,22.826,20.817,10.228,0,17.95-3.11,21.943-9.129v7.936h16.984v-19.542c0-4.649-.644-12.417-1.2-17.464h.163l10.49,37.006h13.136l10.49-37.006h.162a178,178,0,0,0-1.2,19.381v17.625h16.979V8256.4h-22.825Zm-33-5.213a13.038,13.038,0,0,0-5.042-3.432,11.207,11.207,0,0,0,5.042-4.608Z" fill="#fff"/>
    <text id="_淨水濾心_" data-name="(淨水濾心）" transform="translate(1408.586 8347.914)" fill="#fff" font-size="29.11" font-family="NotoSansHant-Bold, Noto Sans T Chinese" font-weight="700"><tspan x="-78.278" y="0">(淨水濾心）</tspan></text>
  </g>
</svg>
