<svg xmlns="http://www.w3.org/2000/svg" xmlns:xlink="http://www.w3.org/1999/xlink" width="1143.447" height="489" viewBox="0 0 1143.447 489">
  <defs>
    <linearGradient id="linear-gradient" x1="0.083" y1="-0.217" x2="0.527" y2="0.547" gradientUnits="objectBoundingBox">
      <stop offset="0" stop-color="#faed00"/>
      <stop offset="1" stop-color="#146a31"/>
    </linearGradient>
    <linearGradient id="linear-gradient-2" x1="-0.338" y1="0.81" x2="0.679" y2="0.434" xlink:href="#linear-gradient"/>
    <linearGradient id="linear-gradient-3" x1="0.975" y1="-0.227" x2="0.066" y2="1.164" xlink:href="#linear-gradient"/>
    <linearGradient id="linear-gradient-4" x1="0.207" y1="0.101" x2="0.592" y2="0.625" xlink:href="#linear-gradient"/>
    <linearGradient id="linear-gradient-5" x1="1.101" y1="0.339" x2="0.251" y2="0.567" xlink:href="#linear-gradient"/>
    <linearGradient id="linear-gradient-6" x1="0.197" y1="1.127" x2="0.583" y2="0.329" xlink:href="#linear-gradient"/>
    <linearGradient id="linear-gradient-7" x1="1.421" y1="0.445" x2="-0.11" y2="0.536" xlink:href="#linear-gradient"/>
  </defs>
  <g id="Group_1259" data-name="Group 1259" transform="translate(-388.276 -8059)">
    <path id="Path_638" data-name="Path 638" d="M1243.629,8319.179H1114.1l-64.766,112.178,64.766,112.177h129.531l64.766-112.177Z" fill="url(#linear-gradient)"/>
    <path id="Path_637" data-name="Path 637" d="M1243.629,8059H1114.1l-64.766,112.177,64.766,112.177h129.531l64.766-112.177Z" fill="url(#linear-gradient-2)"/>
    <path id="Path_636" data-name="Path 636" d="M1027,8184.064H897.468L832.7,8296.242l64.766,112.177H1027l64.766-112.177Z" fill="url(#linear-gradient-3)"/>
    <path id="Path_635" data-name="Path 635" d="M799.2,8323.646H669.672l-64.766,112.177L669.672,8548H799.2l64.766-112.178Z" fill="url(#linear-gradient-4)"/>
    <path id="Path_633" data-name="Path 633" d="M582.573,8188.531H453.042l-64.766,112.177,64.766,112.178H582.573l64.766-112.178Z" fill="url(#linear-gradient-5)"/>
    <path id="Path_634" data-name="Path 634" d="M799.2,8063.467H669.672l-64.766,112.177,64.766,112.177H799.2l64.766-112.177Z" fill="url(#linear-gradient-6)"/>
    <path id="Path_639" data-name="Path 639" d="M1466.958,8190.765H1337.427l-64.766,112.177,64.766,112.178h129.531l64.766-112.178Z" fill="url(#linear-gradient-7)"/>
  </g>
</svg>
