<svg xmlns="http://www.w3.org/2000/svg" viewBox="0 0 1210.75 80.63"><defs><style>.cls-1{fill:none;stroke:#005e3c;stroke-miterlimit:10;stroke-width:3px;}.cls-2{font-size:22px;fill:#534741;font-family:NotoSansCJKtc-Medium-B5pc-H, Noto Sans CJK TC;letter-spacing:0.06em;}.cls-3{letter-spacing:-0.19em;}.cls-4{letter-spacing:0.04em;}.cls-5{letter-spacing:0.04em;}.cls-6{letter-spacing:-0.21em;}.cls-7{letter-spacing:-0.21em;}.cls-8{fill:#005e3c;}</style></defs><g id="圖層_2" data-name="圖層 2"><g id="圖層_3" data-name="圖層 3"><polyline class="cls-1" points="1209.25 0 1209.25 79.13 0 79.13"/><text class="cls-2" transform="translate(525.86 24.36)">結合當代藝術幾何造型與色<tspan class="cls-3" x="279.42" y="0">塊，</tspan><tspan x="314.99" y="0">利用大範圍低彩度空間底</tspan><tspan class="cls-3" x="571.13" y="0">色，</tspan><tspan x="606.7" y="0">朱</tspan><tspan class="cls-4" x="629.98" y="0">紅</tspan><tspan class="cls-5"><tspan x="0" y="33.2">色主色在黑</tspan><tspan class="cls-6" x="114.4" y="33.2">色、</tspan><tspan x="149.16" y="33.2">古銅金點綴</tspan><tspan class="cls-7" x="263.56" y="33.2">下，</tspan><tspan x="298.32" y="33.2">賦予空間有若精品飯店高級質</tspan><tspan class="cls-6" x="595.76" y="33.2">感。</tspan></tspan></text><path class="cls-8" d="M118.51,50.53c1.34,5.7-.84,9.39-3.24,10.86-1.61,1-3.74.67-4.41-1s.4-2.76,1.69-3.47a9.18,9.18,0,0,0,5.3-6.32c-1.25.36-2.58.67-4,1a1.77,1.77,0,0,1-1.2,1l-2.27-5.38c1.92,0,4.72-.13,8-.36v-4.4h-6l-.36-1.25h6.37V37.14l4.09.35a4.36,4.36,0,0,1-.4-2.4V31.48H120c-1.29,4-3.78,6.68-9.57,8.19l-.49-.62c3.34-1.6,4.63-4.36,5.12-7.57h-4.4l-.36-1.24h7.92V26H112l-.35-1.24h6.58V20.31l5.79.49c-.09.53-.36.89-1.25,1v2.9h1.87l2.14-2.58s2.49,1.78,4,3.11a1.05,1.05,0,0,1-1.15.71h-6.86v4.28h2.81l2.27-3s2.53,2.05,4.05,3.52c-.09.49-.54.71-1.16.71H126.3v3c0,.45.09.63.54.63h.75a3.94,3.94,0,0,0,.81-.05,5,5,0,0,0,.75,0,2.81,2.81,0,0,0,.85-.18h.4l.22.09c1,.36,1.38.76,1.38,1.42,0,1.43-1.2,2-5,2h-1.69a7.43,7.43,0,0,1-1.56-.14,1.1,1.1,0,0,1-.71.27v2.76h2l2.13-2.54s2.36,1.78,3.79,3.07c-.09.49-.54.72-1.11.72H123v4.14c2.63-.23,5.47-.49,8.23-.81l0,.63a135.7,135.7,0,0,1-13,4.09Zm5.08.76c10.1,5.25,4.54,13.44.67,9.12a22.54,22.54,0,0,0-1.12-8.9Zm27.77-4.45a3.93,3.93,0,0,1,.54,3.38c-.85,1.92-3.12,1.38-4.5.4-4.41-3.38-4.76-10.9-4.76-21.32h-2.49a48.87,48.87,0,0,1-.94,8c5.92,4.85,3.25,10.33-.53,7.84a16.75,16.75,0,0,0-1.16-2.85A19.18,19.18,0,0,1,128.8,51l-.54-.62A20.89,20.89,0,0,0,134.8,38c-1.15-1.56-2.35-3-3.42-4.18l.44-.32a30.2,30.2,0,0,1,3.39,1.38c.17-1.73.26-3.6.31-5.56h-4.1l-.4-1.24h4.54v-7.3l6.23.57c-.09.63-.49,1-1.47,1.16,0,1.91-.09,3.78-.13,5.57h1.87l2.18-2.72L148.83,29a2.35,2.35,0,0,1-1.61.71c-.13,7.52.09,13.71,2.09,15.94.27.31.49.31.72-.18a27.39,27.39,0,0,0,1.29-3.7l.44.09Zm-18.74,4.27c11.44,4.36,6.77,13.22,2.54,9.35a18.85,18.85,0,0,0-2.94-9.08Zm8.73-.49c14,3.92,9.61,14.65,4.49,10.68-.4-3.65-2.62-7.7-4.89-10.41Z"/><path class="cls-8" d="M158.13,28.77c1.91,4.94,1.6,8.85.4,10.81a2.44,2.44,0,0,1-3.88.36,2.59,2.59,0,0,1,.8-3.34,12.73,12.73,0,0,0,2-7.83Zm7.21-.49c8.27,4,4.4,10.28,1.33,7.3a15.79,15.79,0,0,0-1.74-6.86V60.59c0,.49-2,1.47-4,1.47h-1V20.31l6.59.67c-.09.62-.4,1.07-1.65,1.24V28.5Zm23.72,9.88,5,3.74a3,3,0,0,1-1.82.93V56c0,3.3-.71,5.17-6.14,5.61a6.46,6.46,0,0,0-.89-3.38,4.82,4.82,0,0,0-3.25-1.56V56s3.69.26,4.54.26c.62,0,.84-.31.84-.84V52.14H176.69c-.45,3.69-2.14,7.52-7.88,10l-.36-.44c3.25-3.43,3.47-7.92,3.47-12.55V38.69l5.7,2.05h9.26ZM192,32.82s3,2.36,4.8,4c-.08.49-.53.72-1.2.72H169.21l-.36-1.3h10.33V32.11h-7.3l-.36-1.3h7.66V26.9h-8.81L170,25.65h9.17V20.27l6.54.57c-.09.58-.4,1-1.47,1.16v3.65h3.87l2.63-3.43s3,2.32,4.81,4c-.14.49-.58.71-1.2.71H184.25v3.91h2.94l2.45-3.11s2.8,2.14,4.49,3.69c-.13.49-.58.72-1.2.72h-8.68v4.13h5Zm-4.68,18V47.06h-10.5v2.09c0,.58,0,1.12,0,1.69ZM176.82,42v3.82h10.5V42Z"/><path class="cls-8" d="M199.29,30.81c12,.54,8.59,9.62,3.92,6.77a14.11,14.11,0,0,0-4.27-6.41Zm14-1.06c-1.83,5.07-5.12,14.6-5.74,16.82a17.86,17.86,0,0,0-.76,4.19c.09,2.31,1.91,3.82,1.78,7.7a3.61,3.61,0,0,1-3.83,3.69c-1.07,0-2-.67-2.44-2.27.84-4.67.66-8.64-.41-9.35a4.58,4.58,0,0,0-2.35-.75V49h2.09c.67,0,.89,0,1.42-.93,1-1.65,1-1.65,9.57-18.52Zm-10.64-8.68c12.42.53,9.26,9.79,4.32,7.12a18.15,18.15,0,0,0-4.67-6.77Zm33.65,10.06s3.16,2.62,5,4.4c-.13.49-.62.71-1.25.71H228.49v8.55h3.74l2.45-2.67,5,3.87a3.32,3.32,0,0,1-1.83.94V60.24c0,.35-2.53,1.46-4.31,1.46h-.9V58.05H219.19v2.27c0,.49-2.23,1.61-4.41,1.61h-.67V42.65l5.35,2.14h3.73V36.24H211.93L211.58,35h11.61V27.39c-3.6.35-7.38.62-10.86.71l-.08-.67a117.18,117.18,0,0,0,22-6.76l5.17,5c-.54.4-1.56.45-2.94-.09-2.23.45-5,.89-8,1.25V35h4.94Zm-17.09,15V56.76h13.48V46.08Z"/><path class="cls-8" d="M243.58,31.22c11.17,1.46,6.63,9.48,2.4,6.23a12.14,12.14,0,0,0-2.76-5.92Zm24.61,17.84a2.62,2.62,0,0,1-1.69.72c-.22,7-.8,9.79-2.45,11A6.5,6.5,0,0,1,260,62a4.25,4.25,0,0,0-.63-2.67,4.56,4.56,0,0,0-2.49-1.16l0-.66c1,0,2.68.17,3.39.17a1.43,1.43,0,0,0,1.07-.31c.62-.58,1-3,1.15-8.14H258.8l-1.74,2-3.91-2.72a8.66,8.66,0,0,1,1.82-1c.31-2,.58-5.08.67-6.77l4.45,1.91h3v-4.8h-5.78l-.18-.63a28.36,28.36,0,0,1-4.63,2c-.67,3.12-1.25,5.83-1.43,6.9a25.14,25.14,0,0,0-.4,4.14c.09,2.4,1.87,4.14,1.69,8.15A3.46,3.46,0,0,1,248.87,62c-1,0-2-.63-2.27-2.27.76-4.63.63-8.91-.4-9.62a4,4,0,0,0-2.18-.71v-.85h1.87c.58,0,.8,0,1.2-.93.76-1.56.76-1.56,6.9-19l.76.18c-.58,2.58-1.38,6.18-2.09,9.52a25.06,25.06,0,0,0,7.47-7,2.55,2.55,0,0,1-2.18-.45,10.27,10.27,0,0,0-2.44-4.54l.4-.26c3.78.31,5.34,1.64,5.6,2.89a26,26,0,0,0,1.92-4.58H255l-.4-1.3h8.73l2.58-2.49,4.31,3.7c-.26.44-.66.58-1.69.62A23.52,23.52,0,0,1,258.22,36.6h4.5l1.82-1.87,3.78,2.81a1.87,1.87,0,0,1-1.29.71v6c0,.27-2,1-3.29,1h-.67v-1.3h-4c-.14,1.25-.32,2.72-.49,4h3.51l2.14-2ZM246.34,20.62c11.7,1.56,7,9.88,2.58,6.5A13.93,13.93,0,0,0,246,20.89ZM278.56,46l4,3.29c-.27.45-.71.54-1.69.62a18.74,18.74,0,0,1-2.67,4.54c6.09,3.57,4.58,8.64,1,7.13a18.56,18.56,0,0,0-3.65-4.37,26.43,26.43,0,0,1-8.64,4.77l-.35-.63a20.89,20.89,0,0,0,6.81-6A36.66,36.66,0,0,0,268.64,52l.35-.44a33.31,33.31,0,0,1,5.88,1.33,20.13,20.13,0,0,0,1.51-3.47h-6.9l-.4-1.29h7.17Zm5-18c-.22.35-.58.44-1.42.13-1.07.53-2.9,1.2-4.54,1.87A27.66,27.66,0,0,0,286,34l-.08.49c-1.83.44-3.21,2-3.79,4.36-.53-.27-1-.58-1.51-.85a6.19,6.19,0,0,1-1,.23v3.51c0,.4.08.54.31.54H281a5.4,5.4,0,0,0,.8-.14h.4l.13.05c.93.4,1.25.67,1.25,1.42,0,1.47-1.16,2-4,2h-1.07c-2.45,0-2.72-.89-2.72-3V37.85h-2.4V39c0,2.45-.62,6.19-5.61,8.28l-.4-.53c2.09-2.4,2.18-5.25,2.18-7.75V34.82l4.54,1.78h1.29l1.47-1.51c-3.56-3.43-5.92-8.19-7.43-14.33l.58-.27a21.77,21.77,0,0,0,3.07,5.21c1.11-1.47,2.45-3.52,3.2-4.72l3.87,3.2c-.22.31-.62.45-1.51.18a52.09,52.09,0,0,1-4.9,2.05,23.14,23.14,0,0,0,2.76,2.67c1.21-1.38,2.59-3.12,3.43-4.32Z"/><path class="cls-8" d="M290.58,41.85a3.67,3.67,0,1,1,7.34,0,3.67,3.67,0,0,1-7.34,0Z"/><path class="cls-8" d="M340.16,24.76s2.67,2,4.36,3.56c-.09.49-.58.71-1.2.71h-5.43v5.52a4.78,4.78,0,0,1-2.63.94l3.92,2.94a3,3,0,0,1-1.6.84V53.65c-.05.31-2.67,1.29-4.36,1.29h-.9V53.07h-16v1.2c0,.49-2.22,1.65-4.36,1.65h-.76V35.09l5.48,2.18h15.22l1.6-1.69H333V29h-3.25c-.45,2.63-2.23,5.75-8.28,7.53L321.2,36a9.24,9.24,0,0,0,4.14-7.52,1.13,1.13,0,0,1-1.16.57h-4.5v5.66c0,.22-1.42,1-3.82,1H315V29h-3.38c-.31,2.94-1.78,6.68-7.84,8.82l-.35-.58c3.43-2.94,3.74-6.68,3.74-9.71V22.22l5,1.47a68.42,68.42,0,0,0,7.61-3.47l4.05,4.14c-.54.4-1.38.36-2.54-.13-2.4.35-6.14.75-9.61.89v2.62h7.16l2.32-2.8s2.53,1.91,4.14,3.34a11.24,11.24,0,0,0,0-1.16V22.18l4.67,1.29a74.89,74.89,0,0,0,8-3.25l4.09,4.18c-.53.45-1.47.41-2.54-.13-2.49.36-6.18.67-9.65.85v2.62h7.74ZM304.33,61.44c5.61-1.65,11.84-4.94,14.78-7.57l5.47,4c-.45.44-1.29.58-2.63.22-4.14,1.91-11.08,3.47-17.44,4Zm12-22.92V42h16V38.52Zm0,4.76v3.6h16v-3.6Zm16,8.59v-3.7h-16v3.7ZM326,55.16c24.92.22,15.62,9.53,10.9,6a30.92,30.92,0,0,0-11-5.43Z"/><path class="cls-8" d="M388,56.36c1.33,2.85,1.6,4.45.76,5-2.27,1.74-5.7-.53-7.26-2.62a35.2,35.2,0,0,1-6-12.51,33,33,0,0,1-6.32,2.8l-.4-.53a26.09,26.09,0,0,0,6-4.94,91.26,91.26,0,0,1-1.73-16.07H355.2v8.24c0,7.56-.27,18.56-7.34,25.81l-.54-.36c3.12-7.7,3.21-17.4,3.21-25.45V24.27l5.43,2h17c0-2-.09-4-.09-6l6.46.67-.27-.36.45-.22c7.87,1.56,3.87,6.68,1.06,4.09a7.1,7.1,0,0,0-1-3.16c-.18.41-.62.76-1.56.9,0,1.33,0,2.71,0,4.09h4.94L385.2,23s2.58,2.23,4.09,3.79c-.08.49-.53.71-1.15.71H378a87.49,87.49,0,0,0,.71,10.73,31.42,31.42,0,0,0,3.3-8l6.32,2.53a1.71,1.71,0,0,1-1.87.8,28.43,28.43,0,0,1-6.81,9.62A25,25,0,0,0,384.75,54c.58.76.85.76,1.3,0,.62-1.16,1.73-3.43,2.49-5.35l.49.09Zm-32-6.85c1.6,4.27,1.24,7.61,0,9.08-.85,1-2.81,1.11-3.48-.13a2.43,2.43,0,0,1,1.12-3.12,8.32,8.32,0,0,0,1.64-5.83Zm12.86-20.92s2.76,2.14,4.49,3.69c-.13.49-.57.72-1.2.72H356.4l-.35-1.3h10.32Zm-7.17,17c0,.35-2,1.38-3.87,1.38h-.67V34.11L361.88,36h4.62l2.1-2.23,4.49,3.3a2.58,2.58,0,0,1-1.56.8v6.76c0,.27-2.35,1.12-3.82,1.12h-.8V43.9h-5.26Zm9.4,11.08c1,.45,1.2.93,1.2,1.65,0,1.64-1.47,2.49-6.81,2.49h-3.25c-3.43,0-4-.8-4-3.38V47.77l5.2.49c-.09.58-.49,1-1.33,1.12v7c0,.54.13.67,1.16.67h2.53a20.71,20.71,0,0,0,2.27-.09.74.74,0,0,0,.8-.44,30.52,30.52,0,0,0,1.52-4.81h.53Zm-9.4-19.41v5.43h5.26V37.22Zm1.92,9c8.5,3.91,4.23,10.28,1.24,7.16a13.12,13.12,0,0,0-1.78-6.9Zm7.83,2.62c9,5,5.07,11.93,1.83,8.72,0-2.8-1.21-6.18-2.32-8.54Z"/><path class="cls-8" d="M403.89,34.78c-.18.4-.53.71-1.38.84V60.55c-.09.4-2.23,1.47-4.27,1.47h-1V38.65a35.41,35.41,0,0,1-5.25,5l-.58-.36c3.74-5.56,7.43-14.38,9.3-23.1l7.16,2.18a1.6,1.6,0,0,1-1.77.94A58,58,0,0,1,401,33.71Zm25.19,20.11s3.39,2.63,5.43,4.46c-.13.49-.62.71-1.29.71H404l-.35-1.25h11.57v-14h-9.17l-.35-1.29h9.52V32H405.09l-.36-1.24H425.3l2.89-3.7s3.21,2.54,5.16,4.23c-.13.49-.57.71-1.24.71H420.85V43.5h4.32l2.67-3.43s3,2.32,4.89,4c-.13.49-.62.71-1.24.71H420.85v14h5.25ZM412,20.62c13.88,1.16,10.85,11.17,5.69,8.41a23.18,23.18,0,0,0-6.05-8.1Z"/><path class="cls-8" d="M473,35.76s3.2,2.62,5.12,4.36c-.13.49-.62.71-1.29.71h-13.4v6.1h4.05l2.4-2.63,5,3.83a3.27,3.27,0,0,1-1.82.93V60.19c-.05.36-2.54,1.43-4.27,1.43h-.89v-2.9H453.25v1.52c0,.49-2.23,1.6-4.28,1.6h-.71v-17l5.3,2.09h4.72v-6.1H446.66c-.58,7.39-2.63,15.53-9.66,21.36l-.44-.31c4.58-8.32,5-18.74,5-27.77V20.8l6.14,2.49H468l2.41-2.67,5.16,3.87a3,3,0,0,1-1.78.94v8.63a9.7,9.7,0,0,1-4.41,1.21h-.93V32.73H446.88v1.38c0,1.73,0,3.56-.13,5.47h11.53V33.44l6.63.54c-.09.57-.4,1-1.47,1.15v4.45h6.77ZM446.88,24.54v6.9h21.59v-6.9Zm6.37,23.68v9.26h14.69V48.22Z"/><path class="cls-8" d="M51,58.4v2.43H28.57V58.4l6.73-.76L30.93,44.19H14.36l-4.1,13.38,6.8.83v2.43H.83V58.4l6-.83L22.61,9.16h6L45.22,57.78ZM30.1,41.62,22.47,17.83,15.12,41.62Z"/><path class="cls-8" d="M83.43,53.48v7.35H50.14V55.42c4-4.37,8-8.6,11.44-12.06,7.84-8.19,11-13.25,11-20,0-6.38-3.33-10.54-9-10.54a13.44,13.44,0,0,0-3.26.42l-1.66,6.38C57.91,23.66,56,24.84,54,24.84a4.42,4.42,0,0,1-4.09-2.64c.83-7.76,8.12-11.93,16.65-11.93,10.47,0,15.25,5.55,15.25,13.39,0,6.86-5,12.69-17.47,22.33-2.22,1.73-5.48,4.58-8.88,7.49Z"/><line class="cls-1" x1="104.14" y1="23.32" x2="89.6" y2="62.81"/></g></g></svg>