<?xml version="1.0" encoding="utf-8"?>
<!-- Generator: Adobe Illustrator 26.0.2, SVG Export Plug-In . SVG Version: 6.00 Build 0)  -->
<svg version="1.1" id="圖層_1" xmlns="http://www.w3.org/2000/svg" xmlns:xlink="http://www.w3.org/1999/xlink" x="0px" y="0px"
	 viewBox="0 0 27.2 153.1" style="enable-background:new 0 0 27.2 153.1;" xml:space="preserve">
<style type="text/css">
	.st0{fill:#FFFFFF;}
</style>
<g id="圖層_2_00000158717820993731187830000015152959888795426728_">
	<g id="Layer_1">
		<path class="st0" d="M4.6,19.1c0.5,1.5,0.8,3.1,0.9,4.8c-0.1,1.7-0.9,2.9-1.9,2.9c-0.8,0-1.4-0.6-1.4-1.3c0-0.2,0-0.3,0.1-0.5
			c0.4-1.4,1.5-3.4,1.3-5.2c-0.1-1.1-1.3-1.3-2.9-1.4c-0.4,0-0.5-0.6,0-0.6c1.9-0.1,2.2-0.6,2.9-1.8c1.8-3.7,3.5-7.5,4.9-11.4
			C8.5,4,9.1,4.2,8.9,4.8C6.5,12.8,4.2,17.5,4.6,19.1z M0.4,7.5C0.1,7.1,0.3,6.8,0.8,7c1.3,0.5,2.5,1.2,3.5,2.1
			c1.4,1.6-0.4,3.8-1.6,2C1.8,10,1,8.4,0.4,7.5z M2.7,0.9C2.4,0.5,2.6,0.2,3.1,0.4c1.3,0.3,2.6,1,3.7,1.9c1.6,1.6-0.2,3.8-1.6,2
			C4.2,3,3.3,1.7,2.7,0.9z M27,21.6c-2.2,1-2.4,1.1-3.1,0.3c-2.8-3.3-4.9-7.2-6.1-11.3v14.8c0,1.4-1.2,1.9-2.5,1.6V10.8
			c-1.5,5-4.6,9.4-8.7,12.6c-0.4,0.3-0.7-0.2-0.4-0.5c3.6-4.3,6.3-9.4,7.8-14.8H9.8C9.3,8,9.1,7.6,8.6,6.3h6.8V0l1.9,0.4
			c0.4,0.1,0.5,0.3,0.5,0.5v5.4h5.7c0.5,0,0.9-0.4,1.4-0.9c0.7,0.7,1.2,1,1.2,1.6c0,0.7-0.6,1-1.6,1h-6.2c1.9,5.3,4.9,10.3,8.6,13.2
			C27.2,21.4,27.3,21.5,27,21.6z"/>
		<path class="st0" d="M7.2,54.5v-1.6H4.9v1.8c0,1.2-1.1,1.7-2.2,1.5V44.7c-0.6,1-1.3,1.9-2.1,2.8c-0.4,0.4-0.7,0-0.5-0.4
			c1.1-2,1.9-4,2.5-6.2C3.2,39,3.6,37,3.8,35H1.5c-0.4,0-0.6-0.4-1.1-1.5h7.4c0.5,0,0.7-0.3,1.2-0.8c0.6,0.5,1.1,0.9,1.1,1.3
			c0,0.6-0.6,0.9-1.5,0.9H6c-0.3,1.9-0.7,3.7-1.4,5.5l-0.3,0.8h1.7c0.4,0,0.8-0.2,1-0.6l1.8,0.5c1.1,0.3,0.4,1.1,0.4,1.6v10.6
			C9.3,54.3,8.2,54.6,7.2,54.5z M7.2,51.4v-8.7H4.9v8.7H7.2z M17.1,54.8c-2.5,1.6-5.2,2.8-8,3.5c-0.6,0.2-0.6-0.4-0.3-0.5
			c2.5-1.3,4.8-2.9,6.9-4.8l1.1,0.9C17.4,54.3,17.4,54.5,17.1,54.8z M27.2,40.8c0,0.7-0.5,1-1.5,1H10.4c-0.4,0-0.6-0.3-1.1-1.5h15.6
			c0.6,0,0.8-0.3,1.4-0.8C26.8,40,27.2,40.3,27.2,40.8L27.2,40.8z M10.6,34H14v-2.6l1.6,0.3c0.5,0.1,0.7,0.3,0.7,0.5V34h3.5v-2.5
			l1.6,0.3c0.5,0.1,0.7,0.3,0.7,0.5V34h2c0.5,0,0.8-0.3,1.3-0.8c0.6,0.6,1.1,0.9,1.1,1.3c0,0.7-0.5,0.9-1.5,0.9H22v2.9
			c0,1-1.1,1.4-2.3,1.3v-1h-3.5c-0.2,0.9-1.2,1.2-2.2,1.1v-4.2h-2.2C11.3,35.5,11.1,35.1,10.6,34z M22.7,53.5v-1.3h-8.8v0.3
			c0,0.8-1,1.3-2.3,1.2V42.3l1.7,0.3c0.4,0.1,0.6,0.2,0.6,0.4h7.6c0.5,0,1-0.3,1.2-0.7l1.8,0.6c1.3,0.4,0.5,1.1,0.5,1.6v7.8
			C24.9,53.2,23.9,53.7,22.7,53.5z M17.1,44.5h-3.3v2.4h3.3V44.5z M13.8,50.8h3.3v-2.5h-3.3V50.8z M16.3,35.5v1.7h3.5v-1.7
			L16.3,35.5z M19.4,44.5v2.4h3.3v-2.5L19.4,44.5z M22.7,50.8v-2.5h-3.3v2.4L22.7,50.8z M24.6,57.8c-1.4-1.2-2.6-2.4-4.6-3.8
			c-0.3-0.2-0.2-0.7,0.3-0.5c3.2,1,4.3,1.6,5.5,2.4C27.5,57.1,26.6,59.5,24.6,57.8L24.6,57.8z"/>
		<path class="st0" d="M4.8,82.2c0.4,1.5,0.6,3,0.6,4.5c-0.1,1.7-0.8,2.9-1.9,2.9c-0.7,0-1.3-0.5-1.4-1.2c0-0.2,0-0.4,0.1-0.7
			c0.4-1.4,1.4-3.5,1.4-5c0-1-1.1-1.5-3-1.6c-0.4,0-0.5-0.6,0-0.6c1.7-0.1,2.2-0.3,2.7-1.2c1.3-2.2,3.1-7.3,4.3-10.5
			c0.2-0.5,0.8-0.4,0.6,0.2C5.9,77.1,4.3,80.3,4.8,82.2z M0.4,70.2c-0.2-0.4,0-0.7,0.4-0.5c1.2,0.4,2.3,1.1,3.2,2
			c1.5,1.7-0.3,4-1.5,2.1C1.6,72.5,1,71.2,0.4,70.2z M2.7,63.9c-0.2-0.4-0.1-0.8,0.4-0.5c1.2,0.4,2.3,1,3.3,1.9c1.4,1.5-0.2,4-1.5,2
			C4,66,3.2,64.7,2.7,63.9z M27,82.2c0,0.6-0.6,1-1.5,1h-8.8c-0.4,1.2-1.1,2.3-2,3.3c-2,2.1-5,3.2-8.3,3.6c-0.4,0-0.6-0.5-0.2-0.6
			c2.9-1,5.2-2.2,6.6-4c0.6-0.7,1-1.4,1.4-2.2H7.1c-0.4,0-0.6-0.4-1.1-1.6h8.8c0.2-0.7,0.4-1.4,0.5-2.3c-2,0.3-4,0.5-5.5,0.7
			C9.1,80.1,9,80,8,78.1c1.6,0,3.2-0.1,4.8-0.1c2.6-1.8,5-3.8,7.2-6.1l1,0.9c0.7,0.6,0.8,0.8,0.4,1.1c-2.1,1.4-4.3,2.7-6.5,3.9
			c2.4-0.1,4.7-0.3,6.4-0.5c-0.4-0.4-0.8-0.9-1.1-1.3s0-0.6,0.3-0.5c2.5,0.9,3.5,1.3,4.2,2c1.4,1.4-0.1,3.4-1.5,1.9
			c-0.3-0.4-0.7-0.8-1.1-1.2c-1.8,0.3-4.1,0.7-6.3,1l1.2,0.4c0.5,0.2,0.6,0.3,0.5,0.8s-0.2,0.7-0.3,1.1h7.4c0.4,0,0.8-0.3,1.3-0.8
			C26.6,81.4,27,81.7,27,82.2z M9,65.7c5.2-0.8,11.1-1.7,14.2-2.8l1,1.3c0.5,0.6,0.3,0.8-0.3,1c-4.9,0.8-9.9,1.2-14.8,1.2
			C8.7,66.3,8.6,65.7,9,65.7z M16.9,72c-0.4,0.3-2,1.3-3.4,2.1c0.2,0.1,0.4,0.3,0.6,0.4c1.5,1.3-0.2,3.2-1.6,1.9c-1-1-2-2-2.9-3.1
			c-0.4-0.4-0.1-0.7,0.4-0.5c0.9,0.3,1.7,0.6,2.4,0.8c1.1-1.1,2.1-2.3,3-3.6l1.4,1.2C17.3,71.6,17.3,71.7,16.9,72z M11.7,70.4
			c-0.5-1-1-2.1-1.4-3c-0.1-0.3,0-0.6,0.5-0.4c1.1,0.4,2.1,1.1,2.9,2.1C14.4,70.7,12.6,72,11.7,70.4L11.7,70.4z M16.6,69.5
			c-0.4-0.8-0.9-2.2-1.2-2.8c-0.1-0.4,0.1-0.6,0.5-0.4c1,0.5,2,1.1,2.7,2C19.5,69.8,17.6,71.3,16.6,69.5L16.6,69.5z M24,89.2
			c-2.3-1.7-3.9-2.8-6.2-4.8c-0.4-0.3-0.2-0.7,0.4-0.5c2.4,0.8,4.8,1.8,7,3.1C27.1,88.4,26.2,90.8,24,89.2z M24.1,66.8
			c0.7,0.5,0.8,0.7,0.5,1c-1.3,1.2-2.7,2.4-4.2,3.4c-0.4,0.2-0.8,0-0.5-0.4c1.1-1.6,2.1-3.3,2.9-5.1L24.1,66.8z"/>
		<path class="st0" d="M27,119.9c-0.7,0.2-1.4,0.6-1.9,0.8c-0.7,0.4-1.6,0.2-2.2-0.4c-2.5-2-4.6-4.4-6.2-7.2c-1.2-2.1-2-4.3-2.4-6.6
			c-0.6,3.3-2.1,6.3-4.2,8.8c-2.4,3-5.8,5.1-9.5,6c-0.4,0.1-0.7-0.3-0.3-0.5c3.2-1.7,6.1-4.1,8.2-7c2-2.9,3.2-6.3,3.5-9.8l0.1-0.5
			H2.3c-0.5,0-0.7-0.3-1.3-1.7h11.2c0.1-2.3,0.2-5.1,0.1-7.5l2,0.4c0.7,0.2,0.9,0.4,0.8,1c0,1.5-0.1,3.8-0.2,6.1h8.7
			c0.6,0,0.9-0.2,1.5-0.9c0.6,0.7,1.1,1.1,1.1,1.5c0,0.7-0.6,1-1.6,1h-9.7c0.7,3.2,2,6.2,3.9,8.8c2.1,3,4.8,5.4,8.1,7.1
			C27.2,119.6,27.3,119.8,27,119.9z"/>
		<path class="st0" d="M26.9,137c0,0.7-0.5,1-1.6,1H1.9c-0.5,0-0.7-0.3-1.2-1.5h12.8l-0.1-0.1c-0.5-0.8-0.7-1.4-1.1-1.9l0,0H8.1
			c-0.4,0.9-1.4,1.3-2.4,1v-9.1l2,0.4c0.2,0,0.4,0.2,0.5,0.4h10c0.5,0,1-0.3,1.3-0.7l0,0l0,0l2,0.6c1.3,0.4,0.4,1.1,0.4,1.7v5.4
			c0,1.1-1.1,1.6-2.4,1.3v-0.9H14c0.4,0.2,0.8,0.4,1.1,0.8c0.3,0.4,0.3,0.9,0.1,1.4h9.1c0.6,0,0.9-0.2,1.4-0.8
			C26.5,136.3,26.9,136.6,26.9,137z M10,147.8c-2.7,1.9-5.6,3.4-8.8,4.4c-0.5,0.1-0.7-0.3-0.2-0.6c2.7-1.6,5.3-3.6,7.6-5.8l1.3,1.1
			C10.4,147.3,10.4,147.5,10,147.8z M15.2,144.5v6.8c0,1.4-1.4,2.3-2.4,1.4c-0.9-0.8-1.9-1.3-3-1.7c-0.3-0.1-0.3-0.5,0.1-0.4
			c0.7,0,2.6,0.1,2.8,0s0.1-0.1,0.1-0.2v-5.8H8.8c-0.1,1.1-1.3,1.4-2.4,1.2v-7.2l1.9,0.4c0.3,0.1,0.5,0.2,0.5,0.3h8.6
			c0.5,0,1-0.2,1.3-0.6l2,0.6c1.2,0.4,0.5,1,0.5,1.6v3.4c0,1-1.2,1.6-2.4,1.3v-1.1L15.2,144.5z M8.2,128.5v1.5h11.4v-1.6L8.2,128.5z
			 M19.5,133v-1.6H8.2v1.5L19.5,133z M8.9,140.8v2.2h9.9v-2.2L8.9,140.8z M23,151.6c-1.7-1.6-4.2-3.7-5.5-4.7
			c-0.3-0.2-0.1-0.6,0.3-0.5c1.9,0.6,5.4,2,6.8,3.4C26.4,151.4,25,153.4,23,151.6z"/>
	</g>
</g>
</svg>
