<svg xmlns="http://www.w3.org/2000/svg" width="454" height="117.905" viewBox="0 0 454 117.905">
  <g id="Group_387" data-name="Group 387" transform="translate(-900 -618.938)">
    <g id="Group_383" data-name="Group 383">
      <path id="Path_254" data-name="Path 254" d="M982.66,652.716c.488-.1.352-.317.67-.464l.689-.116c.334-.238.36-.961.625-1.275.237-.1.342.065.817.116l-.025-.463c.13-.2.711-.292.9-.464l.419-.811c.063-.2.016-.114.1-.232a1.3,1.3,0,0,0,.495.58l.123.115c.182-.249.464-.248.669-.463.5-.524.56-1.307,1.179-1.738l-.007-.116h.7a1.777,1.777,0,0,0,.528-.927l.586.115c.316-.5.815-.608.85-1.39a1.066,1.066,0,0,1,.611.579c.727-.056,2.749-1.58,2.769-2.318.279.1.194.044.361.232,1.122-.215.744-.965,1.313-1.39.234-.175.57-.073.8-.232l.54-.7c.371-.272.878-.307,1.243-.579.09-.067.133-.417.206-.464h.927a2.794,2.794,0,0,0,.844-1.506c.3.17.134-.029.251.348,2.466-.223,3.28-3.555,4.836-4.752a5.838,5.838,0,0,0-.747-3.013,8.857,8.857,0,0,0-2.645-1.738l-.934-.116c-.539-.2-1.113-.8-1.68-1.043-1.536-.653-5.929-2.05-8.312-1.507-1.027.234-2.343.25-3.444.58a8.919,8.919,0,0,1-2.634.579c-.328-1.909-2.577-6.34-3.862-6.953-.428-.2-.723-.008-1.056-.232-.19-.128-.331-.591-.5-.695h-1.738c-.659-.188-1.655-1.439-2.485-.927-.309.119-.246.166-.444.347.026.544.666,1.159.469,2.2-.6,3.181-1.381,6.383-2.151,9.271-.483,1.812-.347,3.614-1.353,4.868-.477.593-1.613.714-2.376,1.043a31.934,31.934,0,0,0-4.726,2.549.982.982,0,0,0,.753,1.043c-.011.269,0,.327-.09.464-.236.545-1.049.548-1.455.927a1.594,1.594,0,0,1-.94-.232c.084-.666.61-.893,1.094-1.159l-.012-.232a5.65,5.65,0,0,0-2.357,1.391,1.594,1.594,0,0,1-.94-.232c-.258-.9-.507-2.583-.766-3.361q-.018-1.391-.038-2.781c-1.182-4.3-1.405-9.3-4.138-11.937-.158-.168-.683.125-.914.232-.4,1.194.691,2.351.308,3.477-.128.376-.611.609-.386,1.391.12.417.636,1.146.553,1.622-.054.312-.486.821-.515,1.159l.4.927c-.715,1.519.332,3.017-.078,4.867-.3,1.372-.273,3.364-.541,4.868l.038,2.781c-.167.809-.735,1.343-.928,2.086-1.7.031-1.908.743-2.942,1.275a9.856,9.856,0,0,0-1.919.927c-.57.469-.855,1.354-1.526,1.738-.769.441-1.832.3-2.749.58a33.909,33.909,0,0,0-3.535,1.043c-.855.368-1.758,1.325-3.425.927-1.239-.3-2.236-1.074-3.432-1.275.11,2.725-.735,3.605.553,5.8.176.3.254.734.515.927.727.534,2.239.493,2.846,1.159a1.422,1.422,0,0,0,1-.7c.248.313.45.857.644,1.159a9.778,9.778,0,0,0,3.432-.811c.758-.514.731-1.631,1.745-1.97.119-.088.1-.073.341-.116.076-.953.871-1.428,1.4-1.97a5.184,5.184,0,0,0,1.771.579c-.284-2.189.7-2.017,1.558-3.245.119-.169.154-.583.309-.7l.921-.116a5.093,5.093,0,0,0,1.436-1.275,5.515,5.515,0,0,1,1.2.812,5.052,5.052,0,0,1,.07,3.36l.109,1.97a5.719,5.719,0,0,0-.315.58l.128,2.318c-.133.807-.158,1.582-.328,2.433-.2,1-.767,3.3.012,4.4l.051.927c-.2.509-.956.666-1.455.927-.893.468-2.676,2.334-4.455,1.159-.448-.015-.494,0-.709-.231-.213-.21.286-.5.187-.812-.4-1.261.088-1.007.355-1.97l-.09-1.622c.1-.445.4-.966.5-1.391.176-.721-.35-1.15-.212-1.738s1.083-1.616.438-2.55c-.061-.413-.029-.386-.264-.579l-.122-.116c-.592,1.117-.564,2.549-.941,3.94-.5,1.844-1.362,3.711-2.016,5.447a17.7,17.7,0,0,1-.985,3.129c-.476.763-1.551,1.034-2.228,1.622h-1.391a9.982,9.982,0,0,0-1.474,2.666l.225,1.97c-.163.576-1,.9-1.192,1.506-.334,1.058.138,2.525-.148,3.593-.114.424-.556.719-.754,1.043-.383.629-.44,1.344-.818,1.97-.4.66-1.087,1.229-1.519,1.854-.666.963-1.126,2.029-1.8,3.013l-1.32,1.275a41.922,41.922,0,0,1-3.368,4.056,1.923,1.923,0,0,1-.953-.463c-.077-1.677.461-2.552.715-3.825l-.07-1.274c.027-.091.313-.19.334-.232l.117-2.086c.079-.267.474-.655.528-.927l-.187-1.275c.091-.409.415-.936.5-1.391.243-1.256-.462-4.567.143-5.794.238-.483.765-.451,1.114-.811.32-.331.257-.984.5-1.391.4-.66,1.288-.781,1.533-1.622.555-.85-.021-3.642-.457-4.057-.141-1.232-2.169-2.045-3.476-2.086a26.113,26.113,0,0,0-.058-3.129,2.617,2.617,0,0,1-.3-1.274,15.112,15.112,0,0,0,.361-1.855,3.071,3.071,0,0,0-.412-1.159c.089-.934.218-2.463.387-3.476.332-2-.722-4.407-.36-6.49.194-1.118.335-2.764.6-3.824.234-.938-.064-1.821.2-2.666.253-.808.735-1.751,1.018-2.549.268-.755.043-1.95.431-2.666-.162-1.369-1.788-1.737-2.9-2.086l-.818-.116c-.135-.1-.138-.46-.264-.579-.635-.6-3.488-2.042-4.848-1.738-.761.169-1.724.589-2.4.7-.539.085-.639-.433-1.178-.348A6.141,6.141,0,0,0,917,636.839l-.29,1.043c-.177.278-.546.132-.792.347-.222.194-.241.676-.412.928a5.087,5.087,0,0,1-1.333,1.043c-.571.341-1.489.28-2.054.579-.522.276-1.68,1.276-2.505.811-.6.065-.644.331-.888.7a2.2,2.2,0,0,1-1.063-.348c-2.121.053-.939-.795-1.725-1.854l-.129-.232a11.307,11.307,0,0,0-1.358.579c-.244,1.734,1.377,2.881,1.184,4.636a17.947,17.947,0,0,1-.9,2.549c-.61,2.47.813,3.761,1.905,5.1.147.18.177.479.38.579h.695c.349.133,1.148.579,1.417.464,2.043.053,1.095-.568,2.15-.928.77-.261,1.11.177,1.236-.7a1.241,1.241,0,0,1,.6.348c.115-.11.194-.384.322-.464.278-.172.674-.036.914-.232.281-.228.21-.823.522-1.043l1.14-.347a20.228,20.228,0,0,1,1.783-1.275c.447.56,1.82,1.6,1.436,2.9-.072.241-.3.373-.3.811q.121,1.16.244,2.318c-.051.22-.328.348-.328.348-.1.295.36,2.325.4,3.013.057,1.033.528,3.089.437,3.708l-.573,2.2c-.215,1.291.693,1.914-.059,3.129-.778,1.257-2.726,1.883-3.9,2.782a19.68,19.68,0,0,0-4.675,5.562c-.2.46-.056.881-.277,1.275-.3.538-1.123,1.031-1.3,1.623q.042,1.8.084,3.592c-.391,2.362.268,7.932,1.228,9.619.344.6,1,1.2,1.378,1.854.583,1.018.9,2.447,1.795,3.129a10.665,10.665,0,0,1-2.215,3.94c.041.269.041.327.142.464.272.116.729-.154,1.043,0,.582-.046.628-.143.656-.7.408.227.373.805.644,1.159.083.968-.061,1.277-.6,1.622l.006.116-.354-.116a2.635,2.635,0,0,1-.277-.811,1.151,1.151,0,0,0-.792.347,1.191,1.191,0,0,1-.534-1.274c-.845.173-.81.8-1.2,1.39-.838,1.279-1.576,2.694-2.447,3.941l-1.532,1.622a24.715,24.715,0,0,1-2.363,3.361c-.307.317-.824.481-1.114.811-.318.361-.368.857-.747,1.159-.221.176-.532.225-.67.463l-.071.812c-.173.519-.7.99-.837,1.622-.295,1.312.239,2.578.225,4.056a7.043,7.043,0,0,1-.277,1.275c-.264,1.446.407,2.832.566,3.94.468.216.843.335,1.152-.116a3.885,3.885,0,0,1,.29,1.043c.2.075.114.023.238.116a3.991,3.991,0,0,0,3.123-2.2c.2.075.114.023.238.116,1.08-.083,1.165-.755,1.539-1.506.238-.479,1.279-.687,1.68-1.043l.419-.811a10.394,10.394,0,0,1,1.784-1.275c.692-.55,1.144-1.531,1.854-2.086a16.213,16.213,0,0,1,1.687-.927c.618-.382,1.019-1.393,1.636-1.855.427-.32,1.276-.608,1.564-1.043.145-.217.054-.715.181-.927.337-.219.976-.047,1.377-.232a6.519,6.519,0,0,0,2.319-2.086c.285.108.189.127.476.232.741-.828,1.235-.626,2.254-1.159.831-.435,1.05-1.551,1.738-2.086l.908-.347c.4-.508.249-1.392.586-1.97.237-.406.86-.538,1.108-.928l.193-.7.444-.348c.152-.392-.12-.977.045-1.274l-.006-.116h.232l.148.579c.779-.109.806-.716,1.333-1.043.594-.368,1.29-.4,1.809-.811.678-.543.94-1.643,1.616-2.2l-.006-.116c.224-.051.152.051.238.116.441-.254.579-.856.857-1.275.656-.988,2.218-3.621,3.251-4.056.032-.29-.18-.753-.057-1.043.065-.155.716-.486.882-.811.253-.5-.086-.816.161-1.275.557-1.034,1.56-1.961,2.151-3.013.386-.688.373-1.639.8-2.318-.068-.69-.08-.851.528-.927.129-.859-.237-1.176-.785-1.622a2.318,2.318,0,0,1,.277-1.275,1.666,1.666,0,0,1,1.326.927c.707-.461.589-1.736,1.385-2.2.286-.167.883.1,1.043,0,.144-.091.142-.579.309-.7l1.146-.232c.225-.093.379-.48.547-.579h.7c.419-.155.839-.654,1.23-.812a11.023,11.023,0,0,0,2.717-1.158c.36-.154.3-.1.315-.58l.367.348c.745-.083.454-.4.895-.58.529-.221,1.088.055,1.494-.231l.206-.464h1.043c.47-.213.519-.7,1.23-.811l-.026-.464a9.652,9.652,0,0,1,1.384-.116l-.025-.463h.811c.495-.49,1-.708,1.069-1.623h.116a1.417,1.417,0,0,0,.251.348l.006.116a.812.812,0,0,0,.554-.464,1.722,1.722,0,0,1,.47.116.741.741,0,0,1-.451.232l.013.232a1.686,1.686,0,0,0,1.146-.232c.464-.212.2-.525.412-.927l-.006-.116c.473.228.768.754,1.217,1.043a9.562,9.562,0,0,1,.3,3.361c-.114.395-.6.858-.741,1.275-.179.543.19,1.018-.148,1.506-.543.86-1.818.626-2.717,1.159l-.432.579c-.957.717-2.063,1.149-3.026,1.855l-.876.927c-.921.619-2.089.727-2.691,1.622a8.717,8.717,0,0,0-.857,3.361c-.177,1.107.533,2.32.051,3.013.168.663.562.574.979.927a10.3,10.3,0,0,0,2.079-.116c.239-.088.26-.49.432-.579h1.506c1.345-.3,3.418-.186,4.353-.927.593.094.678.324,1.075.579l.013.232a19.111,19.111,0,0,1-1.964,2.2c-1.334,1-3.724,1.971-4.2,3.708-.272,1,.351,2.276.515,3.013.126.565-.261,1.107-.032,1.507.2.5.506.5.856.811l1.487-.347.329-.348c.681-.218.83.461,1.371-.348a2.587,2.587,0,0,1,.818.116c.255,2.516-1.642,3.015-3.13,4.172l-1.3,1.623c-.565.44-1.253.687-1.79,1.158-.264.233-.346.719-.644.928-.487.34-1.313.254-1.822.579-.562.36-.795,1.145-1.307,1.507-.753.532-1.482.759-2.247,1.274-.3.2-.421.747-.638,1.043l-.669.464a6.823,6.823,0,0,1-.966,1.391c.049,2.019.54,2.1,1.461,3.36,2.615.575,6.385-1.77,7.585-3.245.091.021.073-.035.244.232,1.233-.058.506-.445,1-.811h.7l.534-.811c.3.147.258.12.373.463a12.22,12.22,0,0,1-1.037,2.2,32.836,32.836,0,0,1-3.934,6.374l.026.464a2.046,2.046,0,0,0,.895-.58c.082.1.176.364.257.464l.032.579a1.427,1.427,0,0,1-.36-.231c-.289.146-.245.12-.322.463-.261-.148-.129-.213-.264-.579a8.168,8.168,0,0,0-1.546,1.39c-.16.257-.046.517-.186.812a50.767,50.767,0,0,1-3.607,6.026h-.232a3.791,3.791,0,0,1-.656-1.391h-.232a1.528,1.528,0,0,1,.167.927l.039.7a1.159,1.159,0,0,1-.373-.464c-.279.171-.138-.028-.213.348h-.116c-.252-.7-.507-.39-.869-1.043h-.232c.475,1.271-.56,3.723-.354,4.056a1.571,1.571,0,0,0,.161.811,1.2,1.2,0,0,0,.708.232c.044-.533.191-.483.3-.927a1.851,1.851,0,0,1,.367.347c.29.153.221-.347.335-.231l.013.231c.8-.085.473-.411.76-.927l.1-.232a4.513,4.513,0,0,1,.559,1.739c.426-.109.3-.21.676-.348a3.1,3.1,0,0,1,.393.811,2.034,2.034,0,0,0,.689-.116c.064-.2.016-.113.1-.231l-.006-.116a1.49,1.49,0,0,0-.58,0l.11-.116c.285-.418.91-.334,1.236-.7h.116a1.282,1.282,0,0,1-.535.811c.13.251.194.153.483.347.185.1.689-.137.908-.347.468-.349.354-.94.509-1.275.146-.1.345.026.566-.232h.116a5.97,5.97,0,0,1-.174,1.043h.232c1.718-1.984,2.711-4.683,4.379-6.721.676-.827.465-1.45,1.5-2.2-.059-.238-.041-.224-.135-.348.109-.775,1.706-3.307,2.473-3.477a3.252,3.252,0,0,1,.181-.927c.171-.33.323-.118.56-.347.434-.422.838-1.371,1.294-1.739s1.009-.433,1.339-.927c.676-1.011.817-2.523,1.791-3.245q-.272-1.738-.541-3.476c.273-1.627,1.354-2.71,1.237-4.868.115.162.165.649.277.811.164.26.315.246.6.348a17.132,17.132,0,0,1,1.184-1.622l-.006-.116c.372-.26,1.052-.011,1.378-.232l1.2-1.275c.092-.043,1.2-.086,1.268-.116a11.152,11.152,0,0,0,1.327-1.159l-.007-.115c.053-.229.129.231.129.231a3.638,3.638,0,0,0,2.44-1.97c.366.07.283.02.477.232.639-.127.9-.515,1.468-.7l.071-.812,1.384-.115a7.724,7.724,0,0,1,1.539-1.507h.7l.548-.579.586.115a3.37,3.37,0,0,0,1.172-1.854,1.467,1.467,0,0,0,.914-.232l-.026-.463c.945-.1.518-.674.979-1.159l.109-.116a1.65,1.65,0,0,1,.258.464,1.586,1.586,0,0,0,.457-.116c-.074-1.238-.215-1.793.554-2.55l-.077-1.39c-.421-.919-4.013-1.81-5.112-2.318a6.5,6.5,0,0,1,1.333-3.129c-.115-1.249-2.348-1.991-3.566-1.623-2.03.614-3.331,2.018-5.3,2.666-1.328.437-2.791.1-3.181-.927-.131-.2-.139-.263-.025-.464l-.045-.811h.116l.141.463c1.056-.525,1.415-2.15,2.273-2.9.16-.09.2.015.47.116a1.706,1.706,0,0,0,.535-.811,1.541,1.541,0,0,0,.47.116,1.741,1.741,0,0,1,.084-.58c.24.047.225.029.354.116.277-.179.155-.43.309-.7.124-.157.061.037.354.116.373.06.581-.494,1-.7.527-.25,1.249-.276,1.584-.7.241-.3.1-.769.3-.927s.724.016.92-.116c.273-.183.24-.525.419-.811a2.313,2.313,0,0,1,1.339-.927,1.851,1.851,0,0,0-.07-1.275c-.135-.265-.213-.251-.374-.464-.552.029-1.194-.234-1.5.116a2.612,2.612,0,0,1-1.094-.927c-1.278.04-1.816.759-2.717,1.159-1.525.676-3.448,1-4.276,2.318a4.294,4.294,0,0,1-.708-.232,1.879,1.879,0,0,0-.167-.927c-.131-2.283,1.019-2.394,1.642-3.824.27.026.328.022.47.116.937-.217.942-1.19,1.4-1.855.063-.2.016-.113.1-.231l.141.463c.84-.191.864-.851,1.919-.927a1.267,1.267,0,0,0-.27-.7,1.23,1.23,0,0,1,.077-.7c.148,0,.055-.077.238.116.245-.106.163-.1.335-.232.157-.084.145-.037.354.116.8-.034.886-.626.973-1.274.267-.027.325-.023.457-.116.424.1.358.07.489.463,1.142-.125,1.23-1.079,1.758-1.738.272-.1.487.165.83.348a2.319,2.319,0,0,1,.883-.812c.266-.119.115.008.47.116l.412-.927c.215-.048.429-.2.566-.232l1.282.116a12.056,12.056,0,0,0,3.11-2.434c.082.1.176.364.257.464.124.094.031.043.238.116a6.717,6.717,0,0,1,.174-1.043l-.013-.232h.232l.27.7c1.455-.024,1.161-.875,1.913-1.043l1.056.232c.6-.183.977-.92,1.442-1.159.818-.419,1.035.247,1.829-.463l.856.811c.38-.11.505-.352.785-.464.767-.3,1.784-.048,2.408-.463.393-.261.253-.658.522-1.043.2-.293,1.046-.621,1.346-.811-.121-2.379-1.409-2.479-3.187-3.129-.319-.117-.644-.593-.966-.7-.542-.172-2.272.224-3.129,0-1.291-.337-2.6-1.614-4.352-1.159a10.983,10.983,0,0,0-3.161,1.507c-.3.2-.667.668-1,.811-.493.214-.933.059-1.378.232a19.788,19.788,0,0,1-2.151.927h-1.39c-.217.118-.247.582-.541.7l-1.732.116-.657.7c-.861.449-1.953-.247-2.9,0a4.05,4.05,0,0,0-1.133.463l-.1.348a4.339,4.339,0,0,1-1.848.116,1.886,1.886,0,0,1-.476-.232c-.024-1.084.483-.655.992-.927.14-.239.041-.646.18-.927.3-.609,2.609-2.387,3.232-2.318a3.9,3.9,0,0,1,.174-1.043c.157-.011.162-.029.361.232a.953.953,0,0,0,.856-1.275C982.515,652.383,982.495,652.421,982.66,652.716Zm-68.547,40.793a4.03,4.03,0,0,0-1.23-1.275c-.053-1.559.517-2.326.612-3.593a7.578,7.578,0,0,0,1.919-.927,3.965,3.965,0,0,0,1.217,1.043c.126,2.541-1.439,3.141-2.286,4.752Zm11.041,6.837c-1.966,1.406-3.563,3.549-5.525,4.867-.908.61-2.036.9-2.685,1.739a2.01,2.01,0,0,1-1.532-.464c-.119-2.077.769-2.787,1.275-4.172l.174-1.043,1-.811.193-.695a9.808,9.808,0,0,1,2.035-.928c.174-.09.285.009.476.232a2.811,2.811,0,0,0,1.32-1.275c.272.157.276.406.386.7,2.111-.265,3.219-.463,4.063-1.97.183.137.214.469.38.579.485.32.511-.056.728.58C927.9,698.672,925.794,699.888,925.154,700.346Zm27.435,32.913c-.193.3-.494.151-.779.579h-.232a30.967,30.967,0,0,0,2.338-3.824C954.1,730.328,952.936,732.959,952.589,733.259Zm1.436-3.361.1-.232S954.218,729.736,954.025,729.9Zm16.488-87.265c-.437,1.748-.575,3.632-1.462,4.983l-1.539,1.507c-.344.543-.392,1.168-.715,1.738-.4.7-1.281,1.275-1.629,1.97l.025.464c-.287.557-.963.9-1.185,1.622-.554,1.811.745,3.005,1.378,3.941.39.577.443,1.227.8,1.854a2.133,2.133,0,0,1,.56,1.738,5.453,5.453,0,0,1-2.209,1.97l-1.964.116c-.281.078-.48.327-.682.232h-.348c.073-.446.19-1.066.264-1.507l-.128-2.317a25.928,25.928,0,0,0,.188-7.07,1.3,1.3,0,0,1-.593-.231c.137-.279.221-.274.561-.348a40.788,40.788,0,0,1,.444-4.52c.191-1.05-.3-2.071.078-2.781.493-.933,1.61-1.143,2.331-1.854.076-.116.126-.463.2-.58.093-.149.442.187.6.348.93-.116.889-.928,1.43-1.391,1.042-.89,2.5-1.469,3.091-2.781a3.007,3.007,0,0,1,1.191.579C971.247,641.593,970.722,641.795,970.513,642.633Zm7.512,56.091c.928-.951,2.389-1.762,3.084-2.9l.3-.927c.137-.2.555-.238.669-.463.191-.375.055-.755.29-1.043.086-.16.32.145.592.231l.207-.463c.714.572,1.851,1.284,2.208,2.2a.99.99,0,0,1,.064,1.159c-.225.684-1,.887-1.552,1.274a23.418,23.418,0,0,1-4.256,2.666c-.571.24-1.771.581-2.311.116C977.145,700.4,977.784,698.97,978.025,698.724Zm1.582-34.188c.674.1.858.4,1.313.7-.429,2.353-2.928,4.329-4.308,5.91-2.087.036-1.323-1.516-2.124-2.781.013-.953.667-1.445,1.043-2.086h.812l-.02-.348C977.382,665.434,978.746,665.233,979.607,664.536Zm2.159-15.413c-1.009.771-2.86,1.5-3.7,2.318a1.033,1.033,0,0,1-.586-.116,2.241,2.241,0,0,1-.6-.348,10.03,10.03,0,0,1,1-2.9c.217-.3.708-.349,1.011-.579a4.769,4.769,0,0,0,.863-1.159,11.659,11.659,0,0,0,.715-1.739l.167-1.159c.258-.335.863-.438,1.114-.811.935-1.387,1.122-2.98,1.707-4.751a6.842,6.842,0,0,1,.515-1.159l.663-.58-.057-1.043c.076-.27.454-.556.534-.811l.052-1.159c.271-.767,1.181-.984,1.4-1.854.08-.125.066-.107.1-.348.917-.012,4.135-.48,4.7-.927a17.671,17.671,0,0,1,4.848,1.739c.216,3.579-1.8,3.941-3.149,5.91a33.531,33.531,0,0,1-7.122,7.417C984.446,646.249,983.287,647.96,981.766,649.123Z" fill="#fff" fill-rule="evenodd"/>
      <path id="Path_255" data-name="Path 255" d="M972.995,710.428c.324.056.343.14.58,0h.231l-.045-.811-.7-.116A2.672,2.672,0,0,0,972.995,710.428Z" fill="#fff" fill-rule="evenodd"/>
      <path id="Path_256" data-name="Path 256" d="M981.621,717.613a2.013,2.013,0,0,0-3.5-.347l-1.513-.116c-.119.038-.4.409-.553.463-.551.2-1.5-.06-1.958.232-.273.153-.084-.054-.218.232-.087.119-.042.029-.1.232.266.23.588.453.85.7.271-.152.261-.236.316-.579h.116c.328.511.691,1.129,1.017,1.622l.573-.116c.588.6,1.209,1.706,1.97,2.086.823.413,1.524.028,1.8,1.043h.116a1.429,1.429,0,0,0,.09-.463c.725.264.428.645.875,1.159a18.779,18.779,0,0,0,2.286,1.506l.624.811c.443.255.892.194,1.3.464.471.311.412.829.766,1.275.4.5,1.3.181,1.79.927.268-.1.189-.044.335-.232a1.3,1.3,0,0,1,.592.232c-.114.268-.1.21-.328.348.689.814,2.009,1.1,2.878,1.738h.231c-.086-.2-.029-.114-.128-.232l-.039-.7h.232a10.04,10.04,0,0,0,.779,1.506c1.462.545,4.279.235,5.5,1.043.172-.326.265-.558.657-.7.16-.09.2.014.47.116l.657-.7h.463c.021-.013.906-1.761.941-1.855.419-1.127-.284-2.718-.547-3.592l-.077-1.391a15.954,15.954,0,0,0-1.95-3.824c-.391-.5-1.176-.7-1.571-1.159l-.155-.7c-.426-.716-1.138-.728-1.261-1.854-.542-.259-1.035-.731-1.558-.927a3.133,3.133,0,0,0-2.073.232c-.407.1-.484-.274-.715-.348a6.048,6.048,0,0,0-1.848.116c-.968-.011-1.408-.656-2.356-.7-.863.728-1.2.063-2.073.232a5.772,5.772,0,0,0-2.479,1.274c-.409.866.477,2.684.18,3.245a1.963,1.963,0,0,1-.316.58c-.27-.027-.328-.023-.47-.116C981.309,719.929,982.023,718.663,981.621,717.613Z" fill="#fff" fill-rule="evenodd"/>
      <path id="Path_257" data-name="Path 257" d="M975.08,716.686c-.1-.588-.257-.569-.515-.927h-.811c-.114.094-.026.043-.225.116-.064.2-.017.114-.1.232.028.962.194.96.656,1.391.73.028.905-.009,1.011-.58h.116C975.248,716.691,975.15,716.769,975.08,716.686Z" fill="#fff" fill-rule="evenodd"/>
      <path id="Path_258" data-name="Path 258" d="M966.014,724.567h.116c-.059-.238-.041-.223-.135-.348Z" fill="#fff" fill-rule="evenodd"/>
    </g>
    <g id="Group_384" data-name="Group 384">
      <path id="Path_259" data-name="Path 259" d="M1105.868,699.834a5.744,5.744,0,0,0-1.023-.1,1.6,1.6,0,0,0-.511.1c.129.311.034.236.409.307-.526.322-2.019.1-2.762.1-1.9-.005-4.51-.434-6.446,0-.477.107-1.1-.1-1.433.1h-.613v-.1a1.2,1.2,0,0,0,.307-.2l.1-.1-.1-.1a7.525,7.525,0,0,0-2.149.409c-.183.161-.148.089-.2.41h-1.125a1.3,1.3,0,0,0,.1-.41c-.357.026-.431.036-.614.205-.34.142-.206.03-.2.307-.435-.144-.22-.008-.2-.409a3.811,3.811,0,0,0-1.637.613c-.733-.236-.974.107-1.739.307l-.921-.1a7.065,7.065,0,0,0-1.432.307c-.615.168-2.813.357-3.377,0l-.307-.1c.017-.842.206-2.527-.1-3.07l-.1-.1v.1h-.205c.057-.43-.076-.295.307-.307-.023-2.343.194-4.911-.307-7.059l-.1-1.535h-.205a.758.758,0,0,1,0-1.023c-.115-.429.033-.2-.409-.205.245-.715.234-1.763.511-2.353-.213-.065-.183-.016-.307-.1-.253-.327.287-1.74.307-2.353l.1-2.865c-.04-.16-.293-.728-.307-.819-.036-.232.176-.292.2-.409l-.1-1.944c-.2-.814-.312-2.276-.409-3.069-.048-.389.2-1.234.1-1.535a7.152,7.152,0,0,1-.2-2.353,2.428,2.428,0,0,0,.1-.921c-.545-2.248-.04-4.481-.307-6.446a2.4,2.4,0,0,1,.2-.818,1.316,1.316,0,0,0-.1-.614,20.845,20.845,0,0,1,0-2.149c-.027-.832.369-1.518.205-2.148-.16-.614-.62-.937-.716-1.739-.877-.338-1.487-.97-2.354-1.228-1.054-.315-4.224,1.032-4.911,1.33a24.713,24.713,0,0,0-7.571,4.706c-.756.743-1.4,1.6-2.148,2.353-.853.852-3.053,2.121-3.581,3.07a2.332,2.332,0,0,0-.614,0,4.885,4.885,0,0,1,1.125-2.558c-.172-.111-.268-.078-.614-.1.066-.364.157-.383-.1-.614.077-.279.015-.171.205-.205a2.555,2.555,0,0,0,.614-1.228l-.1-.409.819-.818c-.322-.486.364-.99.511-1.33v-.614a16.475,16.475,0,0,1,1.433-2.149h.307c.205-.856,1.063-1.342,1.227-2.148l.819-.1a3.116,3.116,0,0,1,2.149-1.739c.04-.21.025-.2.1-.307.17-.307.513-.418.716-.716h.409c.229-1.516,2.269-1.875,3.377-2.558.32-.2.68-.693,1.023-.819.585-.214.849.026,1.228-.306.275.169.1-.017.1.306a14.851,14.851,0,0,0,3.069-1.023c.325-.157.737-.606.921-.614.234-.134.159-.22.307-.409a2.93,2.93,0,0,1,1.637-.511c1.371-.881,3.363-1.446,4.6-2.456.058-.047.233.223.409.1a4.3,4.3,0,0,0,1.126-1.943l-.205-1.535c.089-.217.519-.438.614-.716a5.385,5.385,0,0,0-.512-3.479,8.042,8.042,0,0,1-.2-1.125,6.528,6.528,0,0,0-3.683-3.172,3.91,3.91,0,0,0-2.558.511c-1.246.536-2.369.7-3.581,1.228a9.1,9.1,0,0,1-2.353,1.126c-.019-.836-.388-1.064-.614-1.637l-.2-1.33c-.026-.045-.273-.122-.307-.205-.2-.49-.067-.885-.307-1.33l-.409-.409c-1.408-3.155-1.535-7.664-5.73-7.674a3.771,3.771,0,0,0-4.5,3.069c-.212.687.094,1.559,0,2.047-.156.806-.253,1.178.1,1.637-.326.328.45,3.8.512,3.99.211.656-.56,1.792-.614,2.455a1.623,1.623,0,0,0-.512.1,3.559,3.559,0,0,1-.1,1.228c-.21.04-.2.025-.307.1-.415.215-.288.761-.614,1.023-.155.124-.4-.057-.512.1l-.307,1.126c-.173.171-.487.079-.613.307v.409c-.185.437-.58.624-.717,1.125a1.431,1.431,0,0,1-.409-.1c-.214.455-.566.8-.716,1.228h-.409c-.024.237-.021.288-.1.409-.306.5-3.1,1.393-3.99,1.432l-.2.614a8.087,8.087,0,0,1-1.535-.511h-.2v.307a3.477,3.477,0,0,0,.819.1c-1,.638-2.8-.859-4.195-.512-1.326.33-3.067.3-4.2.921a13.393,13.393,0,0,0-1.535,1.433,3.463,3.463,0,0,0,.717,2.148c.584,1.022,2.827,1.172,4.194,1.535,1.057.281,2.2.607,3.172.921l1.432.2c.823.383,1.519.957,2.354,1.33a4.809,4.809,0,0,1-.205,2.456,3.381,3.381,0,0,0,.1,1.228l-.307,2.148c-.068.215-.35.529-.409.716a1.564,1.564,0,0,0,.1.717c.035.326-.165.274-.2.409-.143.493.153.944,0,1.535s-.371,1.13-.512,1.739c-.178.772.092,1.808-.2,2.455l-.307.1c-.072.161.177.512.1.818-.056.23-.254.707-.307.921-.07.282.126.705.1.819-.02.095-.29.36-.307.409l.1.307c-.188.782-.324,2.032-.409,2.353v.205c-.083.2-.1-.205-.1-.205-.319.186-.32.594-.614.818.019.411.023.566.307.717-.15.254.025.12-.307.2v.41c.249-.135.072.047.2-.205h.1c-.128.484-.262.568.1.921-.026.578.065.407-.41.409.148.281.4.488.2.818a8.824,8.824,0,0,0,.1,2.354c.564-.1.548-.363.512-1.023a9.066,9.066,0,0,1,0,3.581c.06.429-.019.307.307.306-.014.308-.076.285,0,.41-.109.646-.229.208-.409.511l.1,1.228a2.8,2.8,0,0,1-.2-1.739,19.016,19.016,0,0,0,.1-2.558h-.512c-.518,2.662-.115,5.638-.1,8.39-.156-.248.007-.664-.1-1.024-.243-.8.084-2.323-.307-2.967v-.2h-.2c0,3.047.113,5.04.1,7.469h-.307l-.1.92c.031.16.288.435.307.614l-.2,1.33.409.307c-.138.164-.062.119-.307.205.48,2.632,1.095,7.617-.511,9.413.1.082.025.037.2.1-.168.663-.852.858-1.432,1.125-1.462.675-3.548,1.188-4.809,2.149h-.1v.1a5.24,5.24,0,0,0,2.66-1.023h.716c-.135.249.048.072-.2.205v.2h.307v.307c-.362-.042-.471-.039-.614-.307-.541.145-.535.63-.921.921v.205a2.352,2.352,0,0,0,1.023-.409l.1.1c-.723.691-1.1.367-1.943.818-.351.187-.551.661-.921.819l-1.023.1c-.161.067-.507.344-.717.41l-.716.1-.1.307-.512-.1c-.053.02-.2.3-.2.307-.335.15-.892-.188-1.228-.1-.2.051-.352.357-.512.409-.307.1-.622-.227-1.023,0-.208.118-.362.285-.511.307l-.921-.1c-.508.194-1.129.268-1.433.409-.088-.029-.314-.209-.511-.1v.205c-.052.025-.409.1-.409.1-.62.172-1.113,0-1.535.307h-.2c.486.292,2.174-.026,2.865-.205,1.128-.291,2.244-.089,3.376-.409a43.135,43.135,0,0,0,4.3-1.535c.691-.272,1.469-.039,2.046-.409.077.11.064.1.1.307a41.329,41.329,0,0,0,6.037-2.456l1.023-.1c.809-.215,1.577-.334,2.455-.614a8.381,8.381,0,0,1,2.353-.818v-.307c.306-.15,2.032-1.1,2.558-.819v.205c.209.146.175-.01.512,0,.111-1.852,2.094-1.414,3.581-1.944a5.619,5.619,0,0,1,2.046-.716c.654.022,1.457.677,1.944.511.224.559.243,1.494.409,1.842.1.214.526.563.614.818l-.1.41c.233.508,1.134.945,1.023,1.534-.082.268-.127.243-.205.512l-.1-.1c-.255-.151-.12.025-.205-.307h-.2l-.2.511c.195.137.087.136.409.205v.1a3.857,3.857,0,0,0-1.33.512c-.349-.087-.26-.051-.409-.307h-.205v.511a22.185,22.185,0,0,0-3.683.921,7.362,7.362,0,0,1-1.841.2c-.155.007-.706.36-.921.409l-.614-.1c-.2.046-.7.371-.921.409-.458.077-.866-.209-1.33-.1a12.85,12.85,0,0,1-1.637.307,1.3,1.3,0,0,0-.1.409,9.577,9.577,0,0,0-3.07.511h-.2c.519.288-.789.629-.921.717-.078-.11-.064-.1-.1-.307a3.481,3.481,0,0,0-1.331.409c-.389.146-.192.125-.307.409-.366-.043-.267.054-.306-.2a11.449,11.449,0,0,0-3.786,1.125c-.72.324-2.369.317-3.172.614-.147.054-.392.364-.511.409-.067.026-.3-.162-.512-.1-1.855.523-4.308.344-6.855.307v.307h-.307l.1-.1c-.181-.387-1.363-.109-2.047-.307a21.073,21.073,0,0,1-4.3-1.534.72.72,0,0,1,.307-.512,4.039,4.039,0,0,0-1.33-.818c-.977-.668-1.99.386-2.66.614-.382.13-.618-.151-1.023.1a4.893,4.893,0,0,0-1.023,1.125c-.117.139-.052-.032-.307-.1a.88.88,0,0,1,.1-.512v-.2l-.716.716v.1c-.058.2-.1-.2-.1-.2-.125.142-.155.285-.306.409.012,2.144,1.142,2.526,2.046,3.683-.836-.434-1.817-2-2.353-2.148.136-.2.135-.087.2-.41h-.307a2.378,2.378,0,0,0-.2-.716v-.1c-.121.188-.089.73-.205.921-.083.117-.407-.2-.409-.205h-.1c.064,3.53,5.437,4.831,8.39,5.627l2.251.1c.42.116.916.476,1.33.614,1.061.352,2.318.472,3.376.716l.921-.1c2.653.385,4.956-.74,6.753-1.534,1.029-.455,2.111-.468,3.172-.819,2.576-.851,5.572-1.8,8.082-2.66,2.317-.789,4.974-.912,7.265-1.739.481-.174,1.142-.61,1.637-.819,1.068-.45,2.227-.455,3.376-.818a26.866,26.866,0,0,0,2.66-1.228c.533-.239,1.795-1.14,2.456-.716.569.354.466,1.368.716,1.739l.511.307a5.281,5.281,0,0,0,2.66,2.66,7.511,7.511,0,0,0,6.139.1c.576-.24,1.212-.042,1.637-.409.2-.175.236-.495.409-.716.111-.141.388-.167.512-.307h.1c.161-.24.036-.6.2-.818.139-.182.5-.182.614-.41.416-.821-.113-1.478,0-2.046.034-.173.28-.681.2-.921l-.306-.307c-.089-.407.209-.327.1-.614.123-.892,3.241-1.171,4.2-1.432,3.471-.952,7.5-2.344,11.868-1.944a.851.851,0,0,1-.512.1v.307a39.092,39.092,0,0,1,4.6.717l1.023.1c.643.275,1.327,1.317,2.557.921.812-.262.837-1.06,1.331-1.637.065-.077.89-.525,1.023-.614A3.887,3.887,0,0,0,1105.868,699.834Zm-48.291-36.628h.1c.045.2-.044.132-.1.205v.2h-.1A1.46,1.46,0,0,1,1057.577,663.206Zm-.41-.205h.1v.205h-.1Zm-.1.307h.1c.046.2-.044.132-.1.205v.1h-.1Zm-8.594,8.083v.1h-.1l.1-.511A.3.3,0,0,1,1048.471,671.391Zm-.307,15.552v.307c-.078-.11-.064-.095-.1-.307Zm0,2.967h.1v.2h-.1Zm.205,7.059c.082.12.082.171.1.41C1048.388,697.258,1048.389,697.207,1048.369,696.969Zm.1-1.227h-.1v-.205h.1Zm-.1-1.331v.1h-.1l.1-.921A.855.855,0,0,1,1048.369,694.411Zm1.534-19.439v.307c-.077-.11-.064-.095-.1-.307Zm-.921,6.855h.1v.2h-.1Zm.1,1.023a.856.856,0,0,1-.1-.511A.856.856,0,0,1,1049.085,682.85Zm-.512-.409.1.1.1.1h-.1v.2h-.1Zm.409,4.4h-.1v-.2h.1Zm-.1-.307h-.1a17.534,17.534,0,0,1-.1-3.478l.613,1.33c-.018.165-.272.443-.2.716.027.108.257.042.2.307C1049.221,685.752,1048.917,685.931,1048.88,686.533Zm.307,6.139c-.083-.12-.082-.171-.1-.409C1049.167,692.383,1049.167,692.434,1049.187,692.672Zm.1.205v.2h-.1v-.2Zm.1,1.33v.2h-.2a1.563,1.563,0,0,1,.2-.92A.69.69,0,0,1,1049.392,694.207Zm.409-12.38c-.078-.11-.064-.1-.1-.307h.1Zm0-4.5c-.088.131-.188-.076-.307-.2-.083-.106-.038-.026-.1-.2a1.466,1.466,0,0,0,.409-.614A.9.9,0,0,1,1049.8,677.325Zm.614-.307a1.87,1.87,0,0,1,.1.921C1050.3,677.629,1050.391,677.375,1050.415,677.018Zm0,7.469c.176.066.1.02.2.1C1050.443,684.523,1050.519,684.569,1050.415,684.487Zm7.059-5.627h.1v.205h-.1Zm-.1.307h.1v.2h-.1Zm-.307,1.33v.205h-.1V680.5Zm-.307-14.529.2.1-.1.1v.1h-.2Zm.2,14.836c.2.437-.32,1.38-.409,1.944h-.1A8.753,8.753,0,0,1,1056.963,680.8Zm-.716,3.172h-.1l.2-1.126C1056.563,683.2,1056.313,683.566,1056.247,683.976Zm-.307-6.549.2.1v.2C1055.89,677.584,1056.024,677.76,1055.94,677.427Zm.1,7.572h-.1l.1-.819C1056.208,684.442,1056.089,684.664,1056.042,685Zm-.409-18.621v-.1h.1l-.1,1.024h.307l.1-.512h.2l-.2.921c-.311-.13-.3-.244-.716-.307A4.949,4.949,0,0,1,1055.633,666.378Zm-.307,1.637.2.1v.205c-.082.1-.037.025-.1.2h-.2Zm.307,12.891h-.1v.205h-.1l.1-.307Zm-.512-11.152a1.937,1.937,0,0,1-.2,1.739v.205h-.1A4.417,4.417,0,0,1,1055.121,669.754Zm-.409,2.762c-.078-.11-.064-.094-.1-.306h.1Zm0-.716h.1v.205h-.1Zm6.548,16.268a10.972,10.972,0,0,1-1.33,2.456l-.614.409-.205.921-.511.1c-.38.3-.26.723-.819.921-.152.065-.044.127-.2,0-.061-.1-.009-.2,0-.512a1.731,1.731,0,0,0-.614,1.433,2.769,2.769,0,0,0-1.126.613h-.511l.1-.1a2.35,2.35,0,0,1,.921-.921c-.023-.237-.02-.288-.1-.409-.062-.318-.1-.307-.1-.307-.231-.138-.223-.358-.307-.614a3.217,3.217,0,0,0-.511.1h-.512q.155-1.023.307-2.047a6.343,6.343,0,0,1,.409-1.432l.307-.1a10.492,10.492,0,0,0,.1-2.149c.257-1.111.712-2.422,1.023-3.479.444-1.51.553-3.661,1.228-4.6.063-.08,0-.025.1,0a.9.9,0,0,1,.307.614h.409c.129.978,1,1.825,1.433,2.558-.287.593.478,1.7.613,2.251l-.1.818.409.1c.465.565-.091,1.427-.2,1.944Zm-16.37,22.918c.177.066.1.02.2.1C1044.918,711.022,1044.994,711.068,1044.89,710.986Zm28.443-24.862v.307c-.078-.11-.064-.1-.1-.307Zm.1.614v.205h-.1v-.205Zm-8.287-25.067s.076.062-.1.2Zm-.593.562.286-.357c.094.206-.127.24-.286.357l-.123.154A.33.33,0,0,1,1064.555,662.233Zm-.43.359h.1c-.071.125-.385.707-.614.614Zm-.921.921.1-.1c.083.1.038.025.1.2C1063.409,663.615,1063.007,663.592,1063.2,663.513Zm-.512.818v.1h-.1l.512-.716h.1Zm6.139,10.641a7.136,7.136,0,0,0-.409-1.842c-.095-.243-.431-.571-.512-.818v-1.023c-.094-.242-.42-.633-.511-.921-.155-.489-.026-.749-.205-1.228-.165-.442-.6-.636-.818-1.023h-.307c-.059-.812-.613-1.13-.921-1.739a10.749,10.749,0,0,1-1.637-.614c.034-.365.006-.341.2-.512-.207-.115-.184-.053-.41,0a10.773,10.773,0,0,0,1.023-1.33h.41v-.409c.361-.168.9-.307,1.125-.614.206-.279.217-.741.512-.921,1.519-.927,2.726-2.618,4.5-3.171.106-.083.026-.038.205-.1.494,1.5.024,4-.1,5.525a13.087,13.087,0,0,0,.2,3.07v2.25c.313,1.435-.052,3.374.307,4.809.033.133.287.522.307.614.2.882-.405,2.44.1,3.274v.819h-.1c-.1-.2-1.09-1.708-1.228-1.842h-.306l-.1-.716-.511-.512-.307-.818C1069.191,674.924,1069.216,674.987,1068.831,674.972Zm3.683,25.783v.2a7.076,7.076,0,0,1-2.557-2.455c-.259-.5-.174-.861-.512-1.228.059-.9.563-.785.819-1.33.06-.129.2-1.023.2-1.023-.019-.1-.249-.045-.2-.307s.379-1.05.409-1.33c.035-.328-.2-.836-.1-1.125.372-1.077,1.252-2.039,1.433-3.377h.2c.02,2.91.743,6.575.306,9C1072.393,698.465,1072.943,700.084,1072.514,700.755Zm.819-6.037v.2a1.17,1.17,0,0,1-.2-.818A.758.758,0,0,1,1073.333,694.718Zm-.2-.818v-1.023l.2.2v.819Zm.307,5.218h-.1v-.2h.1Zm0-3.172h-.2v-.716l.2.1Zm-.2-6.241a10.235,10.235,0,0,0,0,2.353c-.755-1.046-.285-4.675-.307-5.934.353.467-.061,1.175.2,1.637v.1c.325-.174.049-.131.2-.307v-.2h.1a1.623,1.623,0,0,0,.1.818v1.74c-.083-.106-.038-.025-.1-.2Zm.409,2.046a2.746,2.746,0,0,1-.1-1.227A2.746,2.746,0,0,1,1073.64,691.751Zm18.007,8.7c.177.066.1.02.205.1C1091.675,700.484,1091.751,700.53,1091.647,700.448Zm11.459.307h-.1v-.205h.1Z" fill="#fff" fill-rule="evenodd"/>
      <path id="Path_260" data-name="Path 260" d="M1072.821,648.268h.1c-.11-.077-.095-.064-.307-.1v.2C1072.793,648.3,1072.717,648.351,1072.821,648.268Z" fill="#fff" fill-rule="evenodd"/>
      <path id="Path_261" data-name="Path 261" d="M1059.93,661.978l.1-.1v-.409h-.2a1.458,1.458,0,0,0-.1.511Z" fill="#fff" fill-rule="evenodd"/>
      <path id="Path_262" data-name="Path 262" d="M1065.557,664.843a1.36,1.36,0,0,0-.2.409l.409-.1C1065.672,664.908,1065.723,664.981,1065.557,664.843Z" fill="#fff" fill-rule="evenodd"/>
      <path id="Path_263" data-name="Path 263" d="M1065.148,665.559l.1-.1h-.2C1064.949,665.565,1065.077,665.573,1065.148,665.559Z" fill="#fff" fill-rule="evenodd"/>
      <path id="Path_264" data-name="Path 264" d="M1047.755,681.213V680.6h-.2c-.105.083-.025.038-.205.1a2.03,2.03,0,0,0,.205.409v.1Z" fill="#fff" fill-rule="evenodd"/>
      <path id="Path_265" data-name="Path 265" d="M1044.071,702.6a.977.977,0,0,1-.511.306v.307c.345-.134.331-.3.716-.409C1044.141,702.553,1044.324,702.729,1044.071,702.6Z" fill="#fff" fill-rule="evenodd"/>
      <path id="Path_266" data-name="Path 266" d="M1042.434,703.722c-.135-.249.048-.072-.2-.2a.7.7,0,0,1-.409.2c.04.21.025.2.1.307l.1.1C1042.162,703.874,1042.132,703.835,1042.434,703.722Z" fill="#fff" fill-rule="evenodd"/>
      <path id="Path_267" data-name="Path 267" d="M1042.639,708.326l-.205.205h-.1v.1c.237-.023.289-.02.409-.1h.1C1042.709,708.282,1042.891,708.458,1042.639,708.326Z" fill="#fff" fill-rule="evenodd"/>
      <path id="Path_268" data-name="Path 268" d="M1040.8,709.042l-.1.307.1-.1C1040.978,709.152,1040.912,709.212,1040.8,709.042Z" fill="#fff" fill-rule="evenodd"/>
      <path id="Path_269" data-name="Path 269" d="M1041.309,710.782v.2a6.224,6.224,0,0,0,1.33-.511h.2v-.1h-.512A2.556,2.556,0,0,1,1041.309,710.782Z" fill="#fff" fill-rule="evenodd"/>
      <path id="Path_270" data-name="Path 270" d="M1105.766,725.412l-.1-1.023-.512-.511v-.512a8.725,8.725,0,0,0-1.534-2.046c-.388-.459-.532-1.092-.921-1.535-.179-.138-.173-.007-.307-.1-.26-.193-.123-.228-.307-.512l-1.228-1.023-.1-.614-1.023-.716h-.512c-.145-.1-.158-.5-.307-.614-.2-.154-.77-.353-.921-.511-.1-.107.025-.322-.1-.41-.221-.153-.5-.061-.716-.2-.307-.207-.589-.753-.921-.921l-.921-.1c-.28-.124-.514-.5-.818-.614a15.578,15.578,0,0,1-1.74-.41l-.2-.307a11.832,11.832,0,0,0-2.558-.1,3.9,3.9,0,0,0-.819-.2c-.293.049-.582.452-.818.511-.1.024-.284-.2-.512-.1l-.307.409-1.227-.1a6.168,6.168,0,0,0-2.763,1.227c-.836,1.1-.038,3.132.512,3.991s.831,2.271,1.637,2.864l.921.205.307.512.818.307c.248.172.225.469.409.716.149.2.4.158.614.307a8,8,0,0,1,1.433,1.534c.19.264.217.556.409.819l.307.1c.356.546.085,1.692.511,2.251a3.51,3.51,0,0,0,2.354,1.432c.2.782,2.53,1.982,3.171,2.558.078.11.064.095.1.307.577.071.73.35,1.023.1.161.173.227.57.409.716a4.263,4.263,0,0,0,2.046.716c.09-.024.4-.279.512-.307l1.432.1c.612-.731,1.67-1.093,2.251-1.841.275-.354.194-.8.409-1.228l.41-.409-.1-.307c.086-.289.618-.77.716-1.023l-.1-.614A3.668,3.668,0,0,0,1105.766,725.412Z" fill="#fff" fill-rule="evenodd"/>
      <path id="Path_271" data-name="Path 271" d="M1043.867,726.538a2.573,2.573,0,0,0-.1-.819c-.868.117-1.2.953-1.841,1.33a6.383,6.383,0,0,1-3.581.819l.2-.2c-.106-.082-.026-.038-.2-.1-.149-.062-2.709.368-3.07.409h-.92a1.772,1.772,0,0,1-1.126.205,10.1,10.1,0,0,1-2.046-1.023l-.1-.2a1.653,1.653,0,0,0,.92-.819,6.808,6.808,0,0,0,1.228,0c.005-.682-.213-.973-.716-1.125-.5-.33-3.066.011-3.581.307-1.508-.678-2.789,1.484-3.069,2.455a3.724,3.724,0,0,0,.511,2.456,4.092,4.092,0,0,0,1.126,1.023l1.023,1.126a16.22,16.22,0,0,0,5.218,2.864,5.952,5.952,0,0,0,2.967-.2h3.069a24.609,24.609,0,0,0,2.967-1.33l.717-.1c.125-.08.765-1.122.92-1.33C1045.437,730.6,1042.693,728.062,1043.867,726.538Z" fill="#fff" fill-rule="evenodd"/>
    </g>
    <g id="Group_385" data-name="Group 385">
      <path id="Path_272" data-name="Path 272" d="M1266.769,662.62v.984a6.564,6.564,0,0,0,2.482,1.969c.423.148,1.458-.675,1.747-.8,1.069-.484,1.43-1.368,2.3-1.969.251-.174.536-.106.828-.269l.827-.806c.449-.185.88-.069,1.287-.268.457-.223,2.535-.593,3.218-.179.623-.036.479-.294.827-.448.6-.266,2.021.13,2.666-.089,2.23-.758,4.8-2.495,6.987-.985-.136,1.189-1.419,1.177-1.93,1.969-.192.3-.122.533-.276.9-.142.333-.551.531-.736.8-.342.509-.384,1.1-.735,1.611l-.644.537c-.192.277-.176.618-.367.9l-.46.359c-.311.535-.331,1.029-.644,1.521-.1.157-.4.352-.459.537.03.179.061.358.092.537-.069.257-.441.5-.552.716v.358l-.459.269c-.451.69-.6,2.353-.92,3.222-.66,1.774-1.624,3.471-2.206,5.192-.557,1.645-.429,3.515-.919,5.192-.826,2.821-1.088,6.092-1.839,9.04v6c0,3.216-.672,7.18.184,9.936a12.212,12.212,0,0,0,1.287,3.043,31.464,31.464,0,0,1,2.758,2.6c.272.368.335.919.643,1.253.322.544,1.453.445,2.115.716.122.12.245.239.367.358a13.713,13.713,0,0,0,3.034.09,15.267,15.267,0,0,0,2.3-2.238h3.586c.468.191,1.165.841,1.838.448,1.033-.117,1.242-1.084,1.931-1.522.657-.418,1.55-.49,2.023-1.074.639.055.724.35,1.1.626a6.167,6.167,0,0,1-.828,4.028c-.526.2-1.261-.029-1.563.09-.616.242-.813,1.113-1.47,1.343-.566.333-1.478-.116-2.207,0-1.789.284-5.176-.475-6.711.447.037.184.023.173.092.269a3.679,3.679,0,0,0,2.023,1.432l1.47-.09.46.448h1.839c.229.094.365.513.551.626.209.128,1.67.248,2.023.358,1.359.428,2.9.9,4.229,1.254h1.655c.227.1.437.451.735.537a9.37,9.37,0,0,0,4.321-.9c.685-.254.631-1.228,1.011-1.791l.919-.716c.407-.66.423-1.381.828-2.058.65-1.087,1.393-1.3,1.93-2.775a16.4,16.4,0,0,0,.46-4.923v-1.97a18.054,18.054,0,0,0,0-4.117c-.016-.76.28-1.965.184-2.417-.119-.559-.243-1.422-.368-1.969v-2.685a19.276,19.276,0,0,1-.368-3.044,24.328,24.328,0,0,1,.368-6v-1.343c0-1.676-.322-3.178,0-4.565a4.338,4.338,0,0,0-.184-1.879V677.21c.711-3.036-.084-6.887-.827-9.309-.284-.927-.347-2.394-.827-3.133a7.833,7.833,0,0,0-2.758-1.88c-.812-.141-2.272.4-3.218.09-.2-.067-.43-.382-.644-.448-.8-.246-1.377.449-2.114,0-.2-.082-.134-.078-.276-.179a2.307,2.307,0,0,1,.644-1.343h.184c.5-.535.663-1.288,1.287-1.7a22.3,22.3,0,0,1,3.861-1.7,14.819,14.819,0,0,1,2.022-.9c1.206-.313,2.029.422,2.666.626h1.563a9.376,9.376,0,0,0,1.379-1.253c3.13.045,5.192.274,5.976-2.058a4.853,4.853,0,0,0,0-1.7l-.276-.179c-.354-.641-.514-1.574-1.1-1.969-1.135-.761-2.757-.906-3.953-1.612a7.861,7.861,0,0,0-1.2-.716l-1.012.09c-.3-.092-.585-.444-.919-.537l-3.769.089c-1.724.454-3.69,1.247-5.332,1.791h-.828c-.969.24-1.92.561-2.85.8-.31.082-.533-.131-.735-.089-.329.067-.576.434-.827.537h-.736c-.458.127-.81.286-1.379.447a24.772,24.772,0,0,0-2.482.537c-.722.295-1.967,1.068-3.126.806a7.3,7.3,0,0,1-1.195-.537c-.463-.184-.785-.1-1.1-.358a3.177,3.177,0,0,1,.735-1.343c.2-.124.534.005.828-.089.459-.148.968-.662,1.379-.806h.827l.46-.448h.459c1.64-.7,3.274-1.839,4.873-2.595h.46c.078-.036,1.336-.752,1.379-.806.576-.723.746-1.675,1.562-2.148.348-.2.5.132.92,0,.452-.143.967-.722,1.379-.895h2.206c.151-.049.337-.287.46-.358.528-.31,1.145-.38,1.655-.716l.735-.717h1.195a11.888,11.888,0,0,0,1.471-.9c.718-.424,1.535-.453,2.206-.9a18.631,18.631,0,0,0,2.391-2.416,12.077,12.077,0,0,0,1.654-1.433c.136-.195.053-.409.184-.626l.552-.448c.26-.352.3-.794.551-1.163a10.988,10.988,0,0,0,1.563-2.686c.481-1.527-.211-3.7.644-4.833.214-.53.923-.4,1.1-.9.233-.642-1.331-2.914-1.747-3.044-.344-.206-.635.1-1.011,0-.136-.037-.352-.315-.46-.358h-.735c-.57-.185-1.143-.79-1.655-.984-.413-.157-.544.186-.919,0l-.46-.448c-1.269-.507-1.58.906-2.758.537-.3-.094-.583-.446-.919-.537-.61-.164-.957.216-1.563,0-.416-.148-.4-.433-1.1-.448-.682.42-2.09-.165-2.942.09-.514.154-1.113.561-1.655.716a12.094,12.094,0,0,0-2.758.716,26.221,26.221,0,0,0-5.056,3.849c-.619.6-1.775,2.146-2.574,2.417-.611.345-1.669-.225-2.115-.448-1.188-.6-2.483-1.379-3.677-1.969-.377-.186-.833.021-1.287-.179l-.46-.447c-.666-.226-2.779.374-3.677.089-.45-.143-1.454-.912-2.206-.448-.973,0-1.617.511-1.379,1.612.019.09.191.49.092.716-.083.189-.559.436-.552.716a3.8,3.8,0,0,1-.184,2.148,23.429,23.429,0,0,1-2.666,4.207c-.723,1.069-1.443,2.174-2.114,3.222-.365.57-.4,1.162-.736,1.791-.086.163-.393.351-.459.537v5.818a9.689,9.689,0,0,1,1.1,1.611,8.156,8.156,0,0,0,2.758,1.7h2.666c.433.094.458-.319.827-.448h1.379l.368-.358c1.462-.563,3.612-.541,4.137-1.969h.092v-1.79l1.195-1.074.276-.806.643-.537c.136-.2.053-.409.184-.627.293-.486.976-.657,1.195-1.253a3.237,3.237,0,0,0-.092-1.79c.19-.854,1.407-.58,1.839-1.164q.091-.312.184-.626l.368-.358q-.047-.359-.092-.716a18.749,18.749,0,0,1,1.654-2.6c1.323-1.239,4.123-1.474,5.976-2.238.906-.373,1.688-1.141,2.758-1.074.5.031,1.008-.233,1.379,0,.21.092.2.154.368.268-.073.554-.372.534-.552.9a11.687,11.687,0,0,1-.551,1.432l-.552.447c-.571.833-.707,1.871-1.287,2.686q-.461.357-.919.716l-.276.8-2.391,2.238a7.41,7.41,0,0,0-.919.985c-.383.572-.377,1.383-.919,1.79-5.6,4.2-10.709,8.807-16.64,12.71a16.39,16.39,0,0,1-2.022.985h-3.4c-.769.254-1.17,1.006-1.747,1.432a9.712,9.712,0,0,0-2.574,3.223l-.827.716v.9c-.212.589-.833,1.088-1.011,1.79A3.837,3.837,0,0,1,1266.769,662.62Zm23.9,12.352h3.4c1.59-.459,4.019-.479,4.873-1.7a5.3,5.3,0,0,1,2.482.448c1.211.948.549,3.873,1.011,5.549v1.612c1.033,3.751,1.1,8.3,1.1,13.158,0,2.41.16,5.028-.368,6.982v1.79a4.1,4.1,0,0,1-.183,1.163c-.388,1.432.394,3.232-.368,4.207a5.14,5.14,0,0,1-3.4.806c-1.053-.266-2.387-.609-3.4-.9h-1.655a9.883,9.883,0,0,0-2.114-.179h-1.2a4.22,4.22,0,0,1-1.746-1.164,4.367,4.367,0,0,1,2.022-3.491,26.9,26.9,0,0,1,2.207-1.969c.8-.478,1.945-.472,2.758-.985l1.93-1.879c.241-.269,1.376-2.249,1.195-2.775-.078-.229-.423-.488-.551-.716-.165-.295-.269-.647-.552-.806l-.551-.089c-.194-.087-.352-.381-.552-.448-.613-.2-1.112.267-1.747,0a18.991,18.991,0,0,1-1.93-1.163c.014-1.769,2.167-3.4,3.217-4.3a1.848,1.848,0,0,0-.459-1.522c.27-1.368,1.7-1.657,2.114-2.775h.092V682.58c-.133-.23-.682-.13-.919-.268a17.839,17.839,0,0,0-3.31-1.7,9.429,9.429,0,0,0-2.574.627c-.254.111-.547.455-.827.537a2.249,2.249,0,0,1-1.839-.627,4,4,0,0,1-.276-2.954v-1.432A3.421,3.421,0,0,1,1290.672,674.972Z" fill="#fff"/>
      <path id="Path_273" data-name="Path 273" d="M1233.379,655.46c.1.111.2.214.287.3a3.841,3.841,0,0,1,.627.9c.123.216.261.462.441.727l2.125,2.145.111.092a2.245,2.245,0,0,0,.711.3,1.154,1.154,0,0,1,.257.089,4.635,4.635,0,0,1,.482.414,4.012,4.012,0,0,0,1.335.931l.095.034.982.082.527.528,2.4-.134.212-.235a12.523,12.523,0,0,0,2.549-3.879,2.485,2.485,0,0,1,.184-.251,2.367,2.367,0,0,0,.42-.679l.043-.122v-2.774l-.042-.122a7.161,7.161,0,0,0-1.755-2.422l-.68-.275a3.134,3.134,0,0,1-.106-.347,3.373,3.373,0,0,0-.327-.864,4.743,4.743,0,0,0-.763-.926,4.049,4.049,0,0,1-.431-.48,13.116,13.116,0,0,1-1.218-3.056v-1.064l-.029-.1a4.607,4.607,0,0,0-.508-1.063l-.227-.383-.336-.068a2.737,2.737,0,0,0-.509-.035c-.1,0-.272,0-.366-.012l-.048-.052a1.55,1.55,0,0,0-.636-.459l-.139-.045-1.513.094a1.274,1.274,0,0,1-.376-.387,2.6,2.6,0,0,0-2.435-1.151h-.036l-.32,0-.224.229a.92.92,0,0,1-.724.349l-.577.011-.149.557a5.4,5.4,0,0,1-.495,1.113,7.823,7.823,0,0,0-.452.95l-.03.083-.087.693-.077.087a1.822,1.822,0,0,0-.4.615l-.054.163.088.706c-.069.1-.171.236-.241.327a3.788,3.788,0,0,0-.437.654l-.055.118-.1,1c-.035.085-.086.194-.14.308a3.428,3.428,0,0,0-.418,2.518c.184.581,1.424,3.086,2.313,3.546l.166.086h.451A6.945,6.945,0,0,1,1233.379,655.46Z" fill="#fff"/>
      <path id="Path_274" data-name="Path 274" d="M1353.885,728.589a1.568,1.568,0,0,0-1.313-1.166,1.71,1.71,0,0,1-.329-.108c-.349-.187-.729-.406-1.11-.624-.444-.255-.9-.518-1.316-.735l-.135-.07-1.035-.094-.066-.06a1.8,1.8,0,0,0-.618-.4l-.119-.039h-2.532c-1.531-.387-5.8.444-6.476.58h-1.85l-.087.021a12.156,12.156,0,0,1-1.323.181,13.619,13.619,0,0,0-1.474.2,9.865,9.865,0,0,1-2.47.078,10.857,10.857,0,0,0-2.856.116,26.69,26.69,0,0,1-4.287.474,27.984,27.984,0,0,0-4.336.474h-1.368l-.169.02a31.194,31.194,0,0,1-6.6.561h-4.161l-.169.019a18.036,18.036,0,0,1-3.893.19c-.428-.008-.851-.015-1.26-.015h-1.839l-.169.019a1.872,1.872,0,0,1-.528.08c-.017,0-.077-.033-.122-.054a4.25,4.25,0,0,0-.485-.2l-.134-.045-2.462.1c-.529-.112-1.079-.177-1.612-.239a14.527,14.527,0,0,1-1.479-.222,14.521,14.521,0,0,0-1.971-.284,11.006,11.006,0,0,1-1.846-.283l-2.2-.764-2.411-.414c-1.158-.311-2.4-.535-3.6-.752-1.123-.2-2.284-.413-3.338-.69l-2.773-.306c-1.3-.31-2.679-.505-4.015-.694s-2.6-.368-3.777-.65a13.552,13.552,0,0,0-2.616-.282,10.811,10.811,0,0,1-2.482-.29,5.218,5.218,0,0,1-.616-.251,6.178,6.178,0,0,0-.837-.33,7.627,7.627,0,0,0-2.019-.224,5.809,5.809,0,0,1-1.552-.16c-.542-.16-1.111-.35-1.713-.55-.731-.244-1.478-.492-2.222-.7a5.1,5.1,0,0,0,1.035-1.034,3.755,3.755,0,0,1,.775-.786l.3-.2.043-.359a4.441,4.441,0,0,0-2.077-4.526l-.994-1.092-.087-.055a1.485,1.485,0,0,0-.647-.209l-.014,0-1.734-1.823-2.325-2.233a1.9,1.9,0,0,1-.067-.213,2.159,2.159,0,0,0-.323-.739l-.057-.08-.48-.4a1.416,1.416,0,0,0-.223-.663l-.058-.086-.6-.51-.29-.871-.688-.588a5.566,5.566,0,0,1,.009-1.452c.006-.036.377-3.284-.307-4.7a2.076,2.076,0,0,1,.581-.513,3.76,3.76,0,0,0,.835-.735c.1-.134.678-1.329.678-1.329a9.749,9.749,0,0,0,.1-4.191l-.038-.35a7.357,7.357,0,0,1,.043-1.055c.03-.372.06-.756.058-1.1l0-.328-.24-.225a17.9,17.9,0,0,1-3.451-5.262l-.1-1.143-1.361-1.816-.1-.069a3.486,3.486,0,0,0-1.1-.487,3.447,3.447,0,0,1-.531-.19l-.421-.421-.15-.058a4.084,4.084,0,0,0-1.981.022,4.519,4.519,0,0,1-1.568.088.34.34,0,0,1-.156-.113c-.379-.4-.775-.527-1.7-.532l-.278,0-.215.177a4.1,4.1,0,0,1-.547.331c-.119.065-.232.126-.327.183l-.528.317.2.584a2.283,2.283,0,0,0,.928,1.161,2.027,2.027,0,0,1,.282.233l.4,1.084.1.109a1.506,1.506,0,0,0,.509.354v.048a2.261,2.261,0,0,0,.116.794,1.783,1.783,0,0,0,.387.586c.025.028.052.055.075.083l.092.923.051.113a1.981,1.981,0,0,0,.293.44c.042.052.108.135.138.183a5.228,5.228,0,0,1-.075.977,5.456,5.456,0,0,0-.011,2.054,16.057,16.057,0,0,1-.19,6.666q-.1.357-.2.708a19.658,19.658,0,0,0-.988,5.885v1.744l.026.1c1.016,3.844,2.241,5.641,5.243,7.695a7.99,7.99,0,0,1,.932.8,9.505,9.505,0,0,0,1.1.938,10.5,10.5,0,0,0,1.178.67c1.708.878,2.728,1.514,2.2,3.432a2.2,2.2,0,0,1-.946,1.131,6.035,6.035,0,0,0-.813.723h-.2c-1.993-.016-3.872-.033-5.167.8l-.368.238.107,2.484a8.812,8.812,0,0,1-2.449,2.6l-.225.146-.351,1.055.421.333a3.4,3.4,0,0,1,1.011,1.17,10.548,10.548,0,0,0,.586.9,2.294,2.294,0,0,0,.565.517,1.476,1.476,0,0,1,.218.172l.23.306h.384a8.205,8.205,0,0,0,3.4-.734c.23-.092.468-.187.724-.278a1.705,1.705,0,0,1,.366.007,1.871,1.871,0,0,0,1.063-.133,1.518,1.518,0,0,0,.876-1.022c.016-.048.038-.112.044-.132.261-.156,1.338-.717,1.719-.9h.927l.484-.483h2.9l.114-.037a2.387,2.387,0,0,0,.592-.319c.06-.04.141-.095.2-.128h4.41c1.763.381,3.685.615,5.545.841a52.191,52.191,0,0,1,6.061.974,8.767,8.767,0,0,0,1.85.216,7.274,7.274,0,0,1,1.534.171c.523.133,1.066.248,1.591.36.808.172,1.645.349,2.433.6a2.129,2.129,0,0,1,.354.194,2.717,2.717,0,0,0,.885.406l.151.03.309-.062c.206.207.525.6.733.856a4.89,4.89,0,0,0,1.34,1.343l.156.074h.812c.193.074.415.183.648.3a7.835,7.835,0,0,0,1.313.544l.1.028h.777c.488.13,1.042.251,1.579.369.556.122,1.131.248,1.612.379l.1.027h.726a1.3,1.3,0,0,0,.45.332,2.026,2.026,0,0,0,1.155.051,1.144,1.144,0,0,1,.47-.026c.332.093.686.228,1.061.37s.772.294,1.161.4a4.024,4.024,0,0,0,1.2.124,2.994,2.994,0,0,1,.839.072c.779.209,1.883.569,2.476.763a4.529,4.529,0,0,0,1.757.131,3.368,3.368,0,0,1,1.25.064,25.062,25.062,0,0,0,2.491.583c.66.131,1.283.255,1.8.394l.1.027h1.057a16.283,16.283,0,0,0,4.2.538,12.08,12.08,0,0,0,2.658-.267,7,7,0,0,1,2.277.1,21.92,21.92,0,0,0,5.876-.2,25.728,25.728,0,0,0,3.027-1.061c.691-.276,1.346-.538,2.023-.752h1.923l.1-.028a8.5,8.5,0,0,0,1.33-.552c.234-.113.458-.22.635-.291h5.483l.142.036a4.014,4.014,0,0,0,1.981.132c.727-.191,1.434-.329,2.118-.463a24.285,24.285,0,0,0,2.957-.711c.287-.094.595-.215.922-.343a8.39,8.39,0,0,1,1.885-.587c.046.012.143.052.216.082a2.318,2.318,0,0,0,1.578.184c.158-.042.529-.1.856-.153.229-.036.455-.073.634-.106l1.1.1.143-.043c.556-.169,1.222-.3,1.927-.446a15.3,15.3,0,0,0,3.1-.847l.344-.156.111-.478a2.784,2.784,0,0,1,.192-.627l.382-.283Z" fill="#fff"/>
    </g>
    <g id="Group_386" data-name="Group 386">
      <path id="Path_275" data-name="Path 275" d="M1220.378,706c-.72.22-1.58-.027-2.213.167-.536.164-1.151.012-1.629.159-.768.234-1.784.012-2.524.239l-1.274.017a12.867,12.867,0,0,0-3.214.249l-.956.013a12.92,12.92,0,0,1-1.69.092,22.138,22.138,0,0,0-3.312.318l-6.37.089a19.261,19.261,0,0,1-4.749-.138c-.583-.15-1.3.091-1.813-.042l-1.858.026c-1.17-.309-2.569-.2-3.674-.492a5.2,5.2,0,0,0-2.054.164,2.856,2.856,0,0,1-.653-.127l-1.7.024a18.86,18.86,0,0,1-5.205-.4c-.842-.236-1.606-.048-2.376-.306-.713-.239-1.606-.639-2.289-.919l-.318,0c-.19-.078-.425-.325-.633-.4l-.371.005c-.123-.044-.281-.223-.4-.266l-.69.009c-.131-.045-.31-.218-.457-.265l-.584.008-.374-.47a.776.776,0,0,0-.691.01c-.744,0-.5-.354-.913-.531l-1,.082c-.2-.079-.34-.452-.542-.536l-.629.077-.244-.268c-.4-.224-.921.005-1.352-.185a10.948,10.948,0,0,0-1.056-.393c-.782-.237-1.445-.191-2.233-.444-3.4-1.092-6.929-1.727-10.19-2.982-.968-.373-1.9-.443-2.812-.844-.457-.2-1.029-.252-1.543-.454-.571-.224-1.262-.52-1.84-.721-.36-.126-.942.158-1.274.018-.227-.1-.313-.457-.5-.605-.211-.17-1.491-.6-1.792-.314-.94,0-1.068-1.1-1.761-1.4a.232.232,0,0,0-.319,0,.95.95,0,0,1-.6-.127,1.286,1.286,0,0,1,.013-.34l.674-.145c.058-.053.048-.23.127-.273.16-.089.351.031.47-.075.267-.237.344-.79.684-.96s1.094-.471,1.169-.9a6.533,6.533,0,0,1,.309.811c.71-.015.944-.366,1.422-.563.409-.169.862-.138,1.173-.424.173-.16.332-.458.511-.618.819-.731,1.652-1.293,2.413-2.072.213-.217.54-.784.737-.961l.47-.074c.1-.058.094-.269.172-.342.141-.135.336-.024.514-.143l.578-.959c.264-.192.959.256,1.343.117.35-.127.429-.723.684-.961a3.287,3.287,0,0,1,.65-.348,6.343,6.343,0,0,1,.87-.284l.743-.01a12.281,12.281,0,0,0,2.481-1.054,22.314,22.314,0,0,0,2.723-2.143l2.228-1.39a8.433,8.433,0,0,1,1.01-.9c.92-.569,1.839-1.128,2.727-1.668a5.592,5.592,0,0,0,.854-.42c.965-.824,1.646-2.195,2.619-3.025.57-.486,1.3-.68,1.888-1.113a57.189,57.189,0,0,1,5.355-3.267l.871-.283c.759-.353,1.585-.773,2.305-1.187l1.422-.563c.084-.051.2-.23.286-.276.378-.2.793-.109,1.128-.355.093-.069.046-.271.119-.342a3.057,3.057,0,0,1,.756-.35c.708-.329,1.411-.456,2.08-.844.244-.142.536-.441.785-.554l1.38-.02a2.638,2.638,0,0,0,.7-.349l.307-.548.417-.073c.075-.046.07-.225.127-.274l.719-.214c.3-.136.695-.371,1.005-.489.531-.2,1.354.109,1.752-.024.2-.068.407-.334.642-.417l2.017-.028c.111-.048.309-.23.446-.278l.8-.011a6.224,6.224,0,0,0,.6-.28,5.182,5.182,0,0,0,2.059-2.814c.186-.518-.134-1.237-.074-1.968a4.767,4.767,0,0,0-.183-2.443l-.787-.8c-.153-.224-.154-.558-.309-.811l-.359-.334-.233-1.967-.236-.2-.309-.811-1.153-1.206-.187-.677-.725-.737-.126-.609-2.07-2.213-.195-.744c-.229-.049-.585.148-.849.012-.176-.091-.253-.372-.481-.469a8.251,8.251,0,0,0-1.8.025l-.36.549c-.242.135-.485-.161-.69.009-.41.214-.286.6-.4,1.093l-.586.891.019.611-.638.892a6.273,6.273,0,0,0,.157.88l-.757,1.233-.47.075c-.182.123-.289.706-.695.417-.685.035-1.117.065-1.436-.455l-1.479.088-.379-.062c-.177.079-.346.372-.687.485l-2.177.03c-.04-.01-.211-.118-.326-.063l-.36.548-.372.005-.315.48-.47.075c-.1.074-.142.277-.278.343l-.735.078-.181.274a1.642,1.642,0,0,1-1.2.153c-.344-.086-.82.13-1.009.014-.679.028-.458.347-.785.555l-.8.011c-.081.052-.061.266-.119.341-.115.148-.282.047-.462.142s-.215.4-.368.481l-.8.011-.315.48c-.257.12-.5-.153-.645-.059-.216.079-.133.155-.225.343-.5.536-1.752.4-2.284.914-.272-.063-.326-.245-.526-.4-.14-1.28-.266-2.694-.43-4.069a4.85,4.85,0,0,0-.307-1.694c.084-.5.437-.69.484-1.3a4.21,4.21,0,0,0-.352-1.625l-.193-1.627-.428-.47-.125-.609-.3-.268-.125-.609a6.218,6.218,0,0,0-.415-.81c-.282-.438-.786-.648-1.129-1a15.087,15.087,0,0,0-.994-1.208,6.492,6.492,0,0,1-.816-.6l-1.406-1.543c-.217-.165-.461-.163-.677-.33-.563-.435-1-1.473-1.642-1.743-.479-.343-.879.228-1.381.019l-.366-.4-.547-.128c-.29-.209-.436-.66-.787-.8l-.008-.068-1.115.016-.315.479c-.212.108-.336-.02-.462.143-.047.126.012.484-.033.611-.14.337-.686-.015-.993.15-.157.085-.274.455-.519.551-.63.246-1.776-.374-2.042-.176-.32.172-.247.743-.4,1.093a5.67,5.67,0,0,1-1.1,1.442,5.056,5.056,0,0,0-.389.752c.2,1.254,1.056,1.071,1.4,1.95.132.338-.058.485.1.814l.3.267.223.541.367.4.093.338.726.737c.13.2.155.412.285.608a7.175,7.175,0,0,0,1.153,1.206,7.311,7.311,0,0,1,.888,1.21,4.076,4.076,0,0,0,.884.735l.559.671.387.131.558.671.388.131c.329.246.669.687,1.015.936.323.232.588.2.951.4.254.136.473.408.8.464.164.665.505.648.6,1.486a4.512,4.512,0,0,1,2.377,1.664c.139.281.014.857.243,1.152a3.455,3.455,0,0,0,2.017-.029.737.737,0,0,1,.494.129c0,.59-.28.258-.581.484l-.082.205a1.13,1.13,0,0,1-1.045.15c-.365-.083-.327.4-.573.552l-.7-.059c-.159.078-.144.371-.262.48-.23.211-.511-.126-.8.011-.181.087-.23.466-.413.549-.39.177-1.567-.325-1.858.026a.617.617,0,0,0,.011.543,3.908,3.908,0,0,1-1.924.366,6.653,6.653,0,0,0-.7-.058c-.234.073-.228.446-.413.549l-.319.005c-.469.225-1.071.55-1.557.769-.325.146-.638.059-.984.217a22.651,22.651,0,0,1-2.268,1.051c-.237.074-.685-.232-.964-.055-.143.091-.173.4-.368.481l-.911-.055c-.2.09-.258.449-.413.549l-1.017-.054c-.2.092-.229.457-.413.549l-3.618-.017-.36.548c-.435.227-1.135-.236-1.495-.047l-.217.411-.506.21c-.116.116-.96-.33-1.172-.459a3.272,3.272,0,0,0-2.585.172c-.134.133-.117.35-.2.546l-.278.344a6.252,6.252,0,0,0,.423,3.118l.088.746a21.978,21.978,0,0,0,3.166,6.069,10.983,10.983,0,0,0,1.3,1.951c-.028.161-.007.112-.082.2.125.6.535.609.757,1.008l.179.609c.182.288.4.162.677.33.445.27.709,1.067,1.215,1.274.314.228.672-.223,1.061-.015l.375.47a5.764,5.764,0,0,0,1.433-.02c.5-.091.111-.461.267-.887l.557-.687a.628.628,0,0,0-.383-.538c.044-.546,1.273-1.307.882-1.982l-.153-1.288.323-.412a10.153,10.153,0,0,1,.9-1.371c.887-.982,1.183-2.7,2.183-3.562.388-.336.745-.545,1.116-.9l.5-.754c.323-.238.591-.058.679-.553a.361.361,0,0,1,.236.2c.465-.032.337-.294.581-.484l.47-.074.847-1.37.515-.143.029-.2.766-1.166c.38,0,.673.127.894-.08l.27-.412.645.059c.313-.165.333-.782.684-.96.211-.2.728-.022,1.062-.015l.63-.96.515-.143c.089-.108.071-.354.217-.41.313-.121,1,.24,1.389.048l.27-.411.605-.28.225-.343.7.058c.154-.1.112-.375.315-.479.281-.245.765.212,1.115-.016l.209-.478c.217-.166.433.162.7.058.233-.092.3-.528.512-.618.238-.1.724.237,1.016.053l.316-.48.371-.005.172-.342.6-.28.172-.342c.392-.327.706.394,1.059-.49a5.214,5.214,0,0,0,1.38-.019.437.437,0,0,0,.3-.14,3.168,3.168,0,0,1-.035-.747c.408-.219,1.106.149,1.486-.021.176-.078.189-.39.316-.48l.523-.075.262-.479.7.058c.052-.019.1-.107.2-.138a2.922,2.922,0,0,0-.011-.544,6.935,6.935,0,0,0,.968-.353l1.282.05c.253-.118.29-.592.5-.754l.878-.216c.486-.186,1.1-.379,1.581-.565,1.068-.411,1.824-.056,2.061-1.455.337.014.33.129.518.332l.032.271c-.2.284-.664,1.3-.954,1.372l-.547-.128c-.392.156-.146.552-.891.556a4.213,4.213,0,0,1,.072.61l-.585.891c-.082.205.039.419-.026.68l-.188.206-.2,1.022c-.281.69-.947,1.084-1.224,1.783-.225,0-.507-.039-.568.143l.048.407c-.031.072-1.026.995-1.145,1.1-1.6,1.446-3.371,2.733-4.985,4.145-.628.548-1.346.842-1.963,1.385-1.151,1.016-2.3,2.1-3.46,3.1-.688.6-1.479.919-2.159,1.524-.9.8-1.763,1.749-2.675,2.551-1.2,1.058-2.526,1.86-3.688,2.972-.539.515-1.061,1.153-1.612,1.652-.388.352-.8.592-1.162.967-.159.163-.29.472-.458.618-.106.092-.285-.018-.417.074l-.487.822c-.269.285-.587.427-.875.691l-.226.343-.469.074-.263.479c-.1.111-.235.1-.347.209-.268.26-.434.662-.745.893a3.145,3.145,0,0,1-.6.348l-.371.005c-.157.135.061.652-.063.816-.219.291-.518-.128-.841.08l-.172.342-.56.212c-.288.265-.532,1.158-.848,1.37l-.425.006-.262.479-.7-.058a17.564,17.564,0,0,1-1.629,2.4c-.271.241-.7-.161-1.062.014l-.27.412c-.195.179-.5.129-.65.348-.168.246-.171.549-.451.686-.128.128-.364.055-.485-.061-.64.174-.666,1.124-1.1,1.509-.117.105-.314-.018-.469.075l-.406.617-.732.553-.667,1.1c-.325.3-.527.049-.732.554l-2.654.037c-.175-.093-.2-.368-.428-.47a.233.233,0,0,0-.319.005.731.731,0,0,1-.746-.465c-.339-.01-.648.066-1.054.082a4.663,4.663,0,0,0-.908-.938c-.367-.263-1.35-.049-1.813-.042h-4.786c-.215.082-.365.332-.527.482-.139,2.524.827,4.414,1.474,6.16l.258,2.17.329,2.78c.049.144.223.348.269.472l.233,1.966c.123.361.425.891.57,1.215.125.282.056.524.194.744a8.469,8.469,0,0,0,.933,1.142c.072.065.181.04.229.133a5.03,5.03,0,0,1,.125.609,1.858,1.858,0,0,1,1.288,1,1.876,1.876,0,0,0,.629-.077c.448.1,1.028.944,1.931.585a9.275,9.275,0,0,0,.785-.555l.53-.007c.271-.109.629-.432.892-.556a8.888,8.888,0,0,1,1.127-.355l.372-.005c.086-.046.073-.219.127-.274.233-.239.549-.052.878-.216l.18-.274c.352-.218.947-.063,1.356-.223.386-.15,1.071-.459,1.467-.632l.85-.011c.13-.048.29-.232.392-.278a14.226,14.226,0,0,1,1.471-.156l.069.135c.2.054.488-.224.658-.281l1.911-.027c1.041.285,2.183.541,3.183.839l1.9.313c4.2,1.4,8.329,2.471,12.4,4.106.874.351,1.755.911,2.6,1.322,1.851.895,3.663,1.412,5.484,2.3,2.208,1.078,4.468,2.276,6.673,3.371.948.471,1.848.719,2.8,1.184,1.306.638,2.687,1.292,4.1,1.844.411.161,1.44.562,1.8.382l.27-.411c.336-.259.552-.064.679-.553l1.221-.017c.164.1.264.457.489.537.116.041.23-.065.257-.072a.672.672,0,0,1,.326.064l.895-.081,3.185-.044.645.059c.22-.091.2-.443.36-.549l1.7-.023c.838-.014.505-.295.9-.488l1.017.053.315-.48c.116-.1.322.024.47-.074s.184-.488.413-.549a7.851,7.851,0,0,1,.911.055l3.132-.044c.311,0,1.439-.141,1.584-.09.211.075.352.454.542.536l2.23-.031a6.244,6.244,0,0,0,1.336-.834,4.513,4.513,0,0,1,.541-.822c.456-.435,1.122-.81,1.248-1.58.086-.271-.264-.933-.161-1.356.033-.133.238-.163.287-.276l.025-.679.271-.412-.02-.61c.018-.067.18-.091.2-.139l-.129-1.085a3.214,3.214,0,0,1,.164-.41c.6-.208,1.678-.057,2.128-.437.4-.334.259-1.234.824-1.574.267-.16.73.06,1.054-.082.092-.041.231-.235.339-.277.332-.128.661.042.886-.148.419-.354.845-.711,1.252-1.1.209-.2.317-.572.609-.688l1.221-.017c.218-.085.4-.349.581-.483a7.548,7.548,0,0,1,1.051-.558l.682-.078c.093-.041.231-.233.339-.276l.425-.006c.149-.068.3-.324.429-.414l.515-.143.487-.822c.213-.184.489.074.7.059.074-.006.363-.4.422-.482h.053l-.008-.068A9.546,9.546,0,0,0,1220.378,706Z" fill="#fff" fill-rule="evenodd"/>
    </g>
  </g>
</svg>
