<svg xmlns="http://www.w3.org/2000/svg" viewBox="0 0 536.24 431.41"><defs><style>.cls-1{font-size:19.94px;letter-spacing:0.06em;}.cls-1,.cls-7{fill:#005e3c;}.cls-1,.cls-19{font-family:NotoSansCJKtc-Bold-B5pc-H, Noto Sans CJK TC;}.cls-2,.cls-4{letter-spacing:-0.19em;}.cls-3,.cls-4,.cls-5,.cls-6{font-family:NotoSansCJKtc-Regular-B5pc-H, Noto Sans CJK TC;}.cls-5{letter-spacing:0.06em;}.cls-6{letter-spacing:-0.19em;}.cls-8{font-size:22px;fill:#534741;font-family:NotoSansCJKtc-Medium-B5pc-H, Noto Sans CJK TC;letter-spacing:0.08em;}.cls-9{letter-spacing:0.1em;}.cls-10{letter-spacing:-0.38em;}.cls-11{letter-spacing:-0.15em;}.cls-12{letter-spacing:-0.19em;}.cls-13{letter-spacing:0.07em;}.cls-14{letter-spacing:-0.18em;}.cls-15{letter-spacing:0.07em;}.cls-16{letter-spacing:0.06em;}.cls-17{letter-spacing:-0.19em;}.cls-18{letter-spacing:0.06em;}.cls-19{font-size:40px;fill:#333;letter-spacing:0.02em;}</style></defs><g id="圖層_2" data-name="圖層 2"><g id="圖層_3" data-name="圖層 3"><text class="cls-1" transform="translate(17.89 276.39)">幼兒<tspan class="cls-2" x="42.28" y="0">園：</tspan><tspan class="cls-3" x="74.59" y="0">夢不落雙語幼兒</tspan><tspan class="cls-4" x="222.58" y="0">園、</tspan><tspan class="cls-3" x="254.89" y="0">非營利幼兒園</tspan><tspan x="0" y="33.53">國</tspan><tspan class="cls-2" x="21.14" y="33.53">小：</tspan><tspan class="cls-5" x="53.45" y="33.53">中港國</tspan><tspan class="cls-6" x="116.87" y="33.53">小、</tspan><tspan class="cls-3" x="149.18" y="33.53">榮富國</tspan><tspan class="cls-6" x="212.61" y="33.53">小、</tspan><tspan class="cls-3" x="244.92" y="33.53">文小預定地</tspan><tspan x="0" y="67.06">國</tspan><tspan class="cls-2" x="21.14" y="67.06">中：</tspan><tspan class="cls-5" x="53.45" y="67.06">新泰國</tspan><tspan class="cls-6" x="116.87" y="67.06">中、</tspan><tspan class="cls-3" x="149.18" y="67.06">中平國</tspan><tspan class="cls-6" x="212.61" y="67.06">中、</tspan><tspan class="cls-3" x="244.92" y="67.06">文中預定地</tspan><tspan x="0" y="100.59">高</tspan><tspan class="cls-2" x="21.14" y="100.59">中：</tspan><tspan class="cls-5" x="53.45" y="100.59">新莊高中</tspan><tspan x="0" y="134.12">大</tspan><tspan class="cls-2" x="21.14" y="134.12">學：</tspan><tspan class="cls-5" x="53.45" y="134.12">輔仁大學</tspan></text><rect class="cls-7" x="0.68" y="263.57" width="11.45" height="11.45"/><rect class="cls-7" x="0.68" y="296.97" width="11.45" height="11.45"/><rect class="cls-7" x="0.68" y="330.36" width="11.45" height="11.45"/><rect class="cls-7" x="0.68" y="363.75" width="11.45" height="11.45"/><rect class="cls-7" x="0.68" y="397.15" width="11.45" height="11.45"/><text class="cls-8" transform="translate(-10.58 145.96)">「<tspan class="cls-9" x="23.8" y="0">朗朗城</tspan><tspan x="96.44" y="0">心</tspan><tspan class="cls-10" x="120.23" y="0">」</tspan><tspan class="cls-9" x="133.87" y="0">坐落文教核</tspan><tspan class="cls-11" x="254.94" y="0">心，</tspan><tspan class="cls-9" x="292.36" y="0">下樓就是非營利幼兒</tspan><tspan class="cls-11" x="510.29" y="0">園</tspan><tspan class="cls-12" x="529" y="0">，</tspan><tspan class="cls-13"><tspan x="10.58" y="41.2">周邊還有文</tspan><tspan class="cls-14" x="128.66" y="41.2">中、</tspan><tspan x="164.89" y="41.2">小預定</tspan><tspan class="cls-14" x="235.74" y="41.2">地、</tspan><tspan class="cls-15" x="271.98" y="41.2">新莊高</tspan><tspan class="cls-14" x="342.82" y="41.2">中、</tspan><tspan x="379.06" y="41.2">輔仁大學…等</tspan><tspan class="cls-16" x="523.5" y="41.2">人</tspan></tspan><tspan class="cls-16"><tspan x="10.58" y="82.4">文學</tspan><tspan class="cls-17" x="57.22" y="82.4">區，</tspan><tspan class="cls-18" x="92.86" y="82.4">教育資源一次為孩子準備齊</tspan><tspan class="cls-17" x="372.7" y="82.4">全。</tspan></tspan></text><text class="cls-19" transform="translate(0 35.2)">在地學習<tspan x="0" y="60.49">從幼兒園到大學一應俱全</tspan></text></g></g></svg>