<svg xmlns="http://www.w3.org/2000/svg" viewBox="0 0 309.78 255.94"><defs><style>.cls-1{font-size:15.44px;font-family:NotoSansCJKtc-Bold-B5pc-H, Noto Sans CJK TC;letter-spacing:0.06em;}.cls-1,.cls-5{fill:#005e3c;}.cls-2,.cls-4{letter-spacing:-0.19em;}.cls-3,.cls-4{font-family:NotoSansCJKtc-Regular-B5pc-H, Noto Sans CJK TC;}.cls-6{font-size:15px;fill:#534741;font-family:NotoSansCJKtc-Medium-B5pc-H, Noto Sans CJK TC;letter-spacing:0.09em;}.cls-7{letter-spacing:0.11em;}.cls-8{letter-spacing:0.09em;}.cls-9{letter-spacing:-0.37em;}.cls-10{letter-spacing:-0.14em;}.cls-11{letter-spacing:0.06em;}.cls-12{letter-spacing:0.08em;}.cls-13{letter-spacing:-0.17em;}.cls-14{letter-spacing:-0.17em;}.cls-15{letter-spacing:0.08em;}.cls-16{letter-spacing:-0.19em;}.cls-17{letter-spacing:0.11em;}.cls-18{letter-spacing:-0.14em;}.cls-19{letter-spacing:0.11em;}</style></defs><g id="圖層_2" data-name="圖層 2"><g id="圖層_3" data-name="圖層 3"><text class="cls-1" transform="translate(13.33 135.91)">幼兒<tspan class="cls-2" x="32.74" y="0">園：</tspan><tspan class="cls-3" x="57.75" y="0">夢不落雙語幼兒</tspan><tspan class="cls-4" x="172.33" y="0">園、</tspan><tspan class="cls-3" x="197.34" y="0">非營利幼兒園</tspan><tspan x="0" y="25.96">國</tspan><tspan class="cls-2" x="16.37" y="25.96">小：</tspan><tspan class="cls-3" x="41.38" y="25.96">中港國</tspan><tspan class="cls-4" x="90.49" y="25.96">小、</tspan><tspan class="cls-3" x="115.5" y="25.96">榮富國</tspan><tspan class="cls-4" x="164.61" y="25.96">小、</tspan><tspan class="cls-3" x="189.62" y="25.96">文小預定地</tspan><tspan x="0" y="51.92">國</tspan><tspan class="cls-2" x="16.37" y="51.92">中：</tspan><tspan class="cls-3" x="41.38" y="51.92">新泰國</tspan><tspan class="cls-4" x="90.49" y="51.92">中、</tspan><tspan class="cls-3" x="115.5" y="51.92">中平國</tspan><tspan class="cls-4" x="164.61" y="51.92">中、</tspan><tspan class="cls-3" x="189.62" y="51.92">文中預定地</tspan><tspan x="0" y="77.88">高</tspan><tspan class="cls-2" x="16.37" y="77.88">中：</tspan><tspan class="cls-3" x="41.38" y="77.88">新莊高中</tspan><tspan x="0" y="103.84">大</tspan><tspan class="cls-2" x="16.37" y="103.84">學：</tspan><tspan class="cls-3" x="41.38" y="103.84">輔仁大學</tspan></text><rect class="cls-5" y="125.99" width="8.86" height="8.86"/><rect class="cls-5" y="151.84" width="8.86" height="8.86"/><rect class="cls-5" y="177.7" width="8.86" height="8.86"/><rect class="cls-5" y="203.55" width="8.86" height="8.86"/><rect class="cls-5" y="229.41" width="8.86" height="8.86"/><text class="cls-6" transform="translate(-7.21 13.2)">「<tspan class="cls-7" x="16.37" y="0">朗朗城</tspan><tspan class="cls-8" x="66.32" y="0">心</tspan><tspan class="cls-9" x="82.69" y="0">」</tspan><tspan class="cls-7" x="92.13" y="0">坐落文教核</tspan><tspan class="cls-10" x="175.38" y="0">心，</tspan><tspan class="cls-7" x="201.19" y="0">下樓就是非營</tspan><tspan class="cls-11" x="301.1" y="0">利</tspan><tspan class="cls-12"><tspan x="7.21" y="26">幼兒</tspan><tspan class="cls-13" x="39.6" y="26">園，</tspan><tspan x="64.49" y="26">周邊還有文</tspan><tspan class="cls-14" x="145.46" y="26">中、</tspan><tspan x="170.35" y="26">小預定</tspan><tspan class="cls-13" x="218.93" y="26">地、</tspan><tspan class="cls-15" x="243.82" y="26">新莊高</tspan><tspan class="cls-13" x="292.4" y="26">中</tspan><tspan class="cls-16" x="304.85" y="26">、</tspan></tspan><tspan class="cls-17"><tspan x="7.21" y="52">輔仁大學…等人文學</tspan><tspan class="cls-18" x="158.84" y="52">區，</tspan><tspan class="cls-19" x="184.62" y="52">教育資源一次為</tspan><tspan class="cls-11" x="301.1" y="52">孩</tspan></tspan><tspan class="cls-11"><tspan x="7.21" y="78">子準備齊</tspan><tspan class="cls-16" x="70.81" y="78">全。</tspan></tspan></text></g></g></svg>