<svg xmlns="http://www.w3.org/2000/svg" viewBox="0 0 166.17 24.48"><defs><style>.cls-1{fill:#fff;}</style></defs><g id="圖層_2" data-name="圖層 2"><g id="圖層_1-2" data-name="圖層 1"><path class="cls-1" d="M22.7,17.56a.5.5,0,0,1-.06-.24.36.36,0,0,0,0-.09h0l0-.14c0-.05,0-.1,0-.15s0,0,0-.06a.07.07,0,0,0,0,.05h0l0-.05s0,0,0-.06h.06a.09.09,0,0,0,0,.09.28.28,0,0,1,0-.09,0,0,0,0,0,0,0h0a.43.43,0,0,0,0,.07h0a2.14,2.14,0,0,0,0-.44c0-.11,0-.22-.05-.33a1.37,1.37,0,0,0,0,.23l0-.18a.23.23,0,0,1-.05.05l-.34.33a.34.34,0,0,0-.09.14c0,.12-.09.25-.12.37a.2.2,0,0,1-.12.16.46.46,0,0,0-.25.28.34.34,0,0,1-.23.17.19.19,0,0,0-.1,0,.26.26,0,0,1-.21,0,.13.13,0,0,0-.1,0c-.05.05-.08.09-.15.08s0,.11,0,.13,0,.06,0,.09l-.14.05a1,1,0,0,0-.06.16.27.27,0,0,1-.22.21s-.07,0-.09,0-.08,0-.12,0l-.12-.06a0,0,0,0,0-.06,0c-.06.05-.12,0-.18,0a.36.36,0,0,0-.22-.07s-.07,0-.11-.06l-.1.06a2.53,2.53,0,0,0-.12-.23h-.06a.11.11,0,0,1-.09-.06L19.08,18a.24.24,0,0,1-.09-.08s-.06-.06-.08-.11,0-.06-.05-.09,0-.11.05-.18a.8.8,0,0,1-.13-.13.06.06,0,0,1,0-.1l.12,0s0,0-.07-.06a.17.17,0,0,0,0-.05.23.23,0,0,0,0-.16.29.29,0,0,1,0-.13l.06-.12s0-.07,0-.11l.09-.19s.09,0,.1,0,.15-.06.16-.15,0-.05.06-.07.06,0,.08-.07.1,0,.16,0a.24.24,0,0,1,.14-.12c.07,0,.09-.1.15-.15l.08,0a.08.08,0,0,0,0,0,.28.28,0,0,1,.18-.17c.05,0,.1,0,.13-.1s0,0,0,0a3.23,3.23,0,0,0,.29-.25l.17-.15,0,0,.35-.38.08-.08a1.5,1.5,0,0,0,.27-.29l.1-.09a1.31,1.31,0,0,0,.25-.22.35.35,0,0,0,.1-.08c.11-.11.25-.18.3-.35s0,0,0-.06a.19.19,0,0,0,0-.13.62.62,0,0,1,0-.19c0-.2,0-.4,0-.61s0-.2,0-.3a.47.47,0,0,0,0-.23l-.08,0s-.07,0-.11,0a.12.12,0,0,0-.13.05.22.22,0,0,1-.12.09.16.16,0,0,1-.15,0,.23.23,0,0,0-.2,0,1.62,1.62,0,0,1-.22,0l-.25,0H20.9a.28.28,0,0,0-.2,0h-.13l-.15,0s0-.07-.1-.07,0,0-.05,0,0,0,0,0-.13,0-.16-.08-.11,0-.16-.09V11.7l-.08,0a.1.1,0,0,1-.07-.08.12.12,0,0,0-.1-.09c-.07,0-.07-.05,0-.14l-.09-.09-.06-.11a2.2,2.2,0,0,1,.2-.23.42.42,0,0,1-.05-.22.07.07,0,0,1,0,0,.13.13,0,0,0,.1-.13c0-.07,0-.11.1-.12s.08-.06.13-.09,0-.11.05-.17h.06a.15.15,0,0,0,.2,0,.31.31,0,0,1,.21,0s0,0,0-.06h.24A.21.21,0,0,0,21,10s0,0,0,0,.09-.06.12-.1.06-.07.11-.07l.06,0a.11.11,0,0,1,.09-.06.12.12,0,0,0,.08-.06.09.09,0,0,1,.11,0c.08,0,.1,0,.14-.09a.3.3,0,0,1,0-.12l.05,0,.09-.07.08,0,.1-.12c.06,0,.09-.11.16-.14a.08.08,0,0,0,0,0c0-.08,0-.11.08-.15a.09.09,0,0,0,0-.13l0,0,0,0v0a.68.68,0,0,0,0-.14s0-.05,0-.06a.14.14,0,0,0,0-.14.12.12,0,0,1,0-.08.17.17,0,0,0,0-.14V8s0-.08,0-.12,0-.14,0-.2a1.42,1.42,0,0,1,0-.2.3.3,0,0,0,0-.16s0-.1,0-.14,0-.1,0-.15,0-.12,0-.19a.13.13,0,0,0,0-.16.19.19,0,0,1,0-.19.44.44,0,0,0,0-.1s0,0,0,0,0-.1,0-.15,0-.09.06-.12,0,0,0-.05-.06-.12-.06-.19a.42.42,0,0,1,0-.15l.09,0s0-.06,0-.09,0-.09.06-.11a.37.37,0,0,0,.09-.16.35.35,0,0,1-.05-.08v0a.61.61,0,0,1,.07-.14.15.15,0,0,0,0-.16.17.17,0,0,1,0-.17s0-.06,0-.1l.16-.11a.18.18,0,0,1,.09,0c.05,0,.1-.06.16,0l.05,0,.1,0a.08.08,0,0,1,.08,0,.48.48,0,0,1,.14.09c.07,0,.07-.07.08-.11h.17a.09.09,0,0,1,.08.08.12.12,0,0,0,0,.1c.06,0,.09.14.17.15a.19.19,0,0,1,.15.12.5.5,0,0,0,.11.17s.06.06,0,.12a.12.12,0,0,0,.08.14.09.09,0,0,1,.06.1l-.11.07a.11.11,0,0,0-.08.09,1,1,0,0,1-.12.25l.11.15a.33.33,0,0,1,0,.12s0,0,0,.07l0,.06a.2.2,0,0,1,0,.17.12.12,0,0,0,0,.11.73.73,0,0,1,.05.09s0,0,0,0,.13.09.19.15,0,0,.06,0,0,.2,0,.3a.23.23,0,0,1-.06.18.24.24,0,0,0,0,.19.47.47,0,0,1,0,.26.07.07,0,0,0,0,.1,1,1,0,0,0,.3.12l.3.11c.06,0,.15.06.15.15s.09.14.13.21a.16.16,0,0,1,0,.09c0,.06-.07.09-.12.13l-.13.11c.09.08.19.07.28.1v.12h0s.05,0,0,.05-.07.12-.15.14,0,.06-.1,0-.06.09-.11.14h-.05c-.05,0-.09,0-.07.06A.43.43,0,0,1,25,9.7a1.19,1.19,0,0,0-.13.25c-.07.05-.08.14-.13.2l-.11.08a.27.27,0,0,0-.15.34s0,0,0,0a.16.16,0,0,1-.06.17s0,0,0,0a3.09,3.09,0,0,1,0,.43c0,.12,0,.25,0,.37s0,.08,0,.12a1.55,1.55,0,0,1,0,.17.36.36,0,0,0,.21-.19.54.54,0,0,1,.09-.12h.07a.27.27,0,0,0,.15,0l.56-.38a.33.33,0,0,1,.14,0s.09,0,.15-.06.1.07.09.19h0a.74.74,0,0,0,.39-.18,1.81,1.81,0,0,1,.18-.21.27.27,0,0,0,.07-.13l0,0a1.43,1.43,0,0,1,.32-.33.06.06,0,0,1,.07,0,.11.11,0,0,0,.06,0l.15-.2a.08.08,0,0,0,0,0c0-.09,0-.16.05-.24s0,0,0,0,0,0,0,.06l.06,0,.08,0,0,0a.14.14,0,0,1,.1-.11.29.29,0,0,0,.19-.21.4.4,0,0,1,.12-.21L28,9.18a.09.09,0,0,0,0-.12c0-.07,0-.14,0-.21s0,0,0-.08l-.17-.06-.16.08a.22.22,0,0,1-.13-.19.36.36,0,0,0-.08-.2.61.61,0,0,1-.07-.1V8.17c0-.1,0-.2,0-.29s0,0,0-.06,0-.21,0-.33-.05-.06,0-.1,0-.08,0-.13a.41.41,0,0,0,0-.11.61.61,0,0,0,0-.24s0,0,0,0a.61.61,0,0,0,0-.3,1.41,1.41,0,0,1,0-.29c0-.1,0-.21,0-.31a.11.11,0,0,0,0-.08.21.21,0,0,0-.06-.08.51.51,0,0,0,.07-.15.17.17,0,0,0,0-.2s0,0,0,0l0,0s0-.07,0-.11a.17.17,0,0,0,0-.1c-.05-.08,0-.17,0-.25a.07.07,0,0,1,0-.06.94.94,0,0,1,.06-.15l-.05-.1s-.11,0-.13-.11a.89.89,0,0,0,.05-.13L27.3,4.3a.48.48,0,0,0,0-.24.14.14,0,0,1,.08-.14.39.39,0,0,0,.15-.11l0,.09s0,0,.06,0l0-.07s.05-.05.08-.06A1.81,1.81,0,0,0,28,3.59.27.27,0,0,0,28,3.47h.06a.39.39,0,0,0,.23-.07.44.44,0,0,1,.48,0,.5.5,0,0,0,.13.05.39.39,0,0,1,.23.21c.12.24.24.48.37.7a1,1,0,0,1,0,.18c0,.12,0,.24,0,.35a1.09,1.09,0,0,1-.05.26.54.54,0,0,0,0,.31.15.15,0,0,0,.18,0,.41.41,0,0,1,.29-.08.92.92,0,0,0,.3-.07,2.48,2.48,0,0,1,0-.27.36.36,0,0,0,0-.1.53.53,0,0,0,0-.12c0-.15,0-.3,0-.45a2.31,2.31,0,0,1,0-.37c0-.12,0-.24,0-.35a.25.25,0,0,0,0-.17s0-.05,0-.07a.45.45,0,0,0,0-.11c0-.07-.07-.08-.14,0a.15.15,0,0,1-.07,0,1.05,1.05,0,0,0-.41.14.85.85,0,0,1-.42.06s0,0,0,0a.35.35,0,0,0-.16-.08A.14.14,0,0,1,29,3.2.25.25,0,0,1,29,3a.07.07,0,0,0,0-.09c0-.07,0-.17-.07-.23s0,0,0,0a.39.39,0,0,1,.3-.17.74.74,0,0,0,.24-.11l.11-.05.37-.19a.56.56,0,0,0,.17-.09c.05-.05.12-.05.18-.09a.42.42,0,0,1,.15,0,.11.11,0,0,1,.09,0,.15.15,0,0,0,.11,0h0a.48.48,0,0,0,.27,0,.58.58,0,0,1,.16.05l.2,0a1,1,0,0,1,.38.14.41.41,0,0,1,.12.14c0,.06.05.11.07.17a1.17,1.17,0,0,0,.05.11s0,.07.06.08,0,0,0,.06,0,0,.05,0a.14.14,0,0,1,0,.06.69.69,0,0,0,0,.35.66.66,0,0,1,0,.14.33.33,0,0,0,0,.22,2,2,0,0,1-.08.22.37.37,0,0,0,0,.35.12.12,0,0,1,0,.13c-.09.07-.09.16-.11.26a1.23,1.23,0,0,1,0,.2l0,.13a.49.49,0,0,0,0,.11.13.13,0,0,1,0,.06,2.65,2.65,0,0,0-.09.62s0,0,0,0a.44.44,0,0,1,0,.1c0,.11,0,.23,0,.35a1.16,1.16,0,0,1,0,.18,1.11,1.11,0,0,1,0,.17,2.73,2.73,0,0,1,0,.4.06.06,0,0,0,0,.08.4.4,0,0,1,0,.19,1.89,1.89,0,0,1-.05.23.3.3,0,0,0,0,.16.23.23,0,0,1,0,.14.25.25,0,0,0,0,.17s0,0,0,0a1,1,0,0,1,0,.29c0,.05,0,.1,0,.14a.43.43,0,0,0-.05.25.26.26,0,0,1-.07.24l.08.09a.15.15,0,0,0,0,.07l0,0h.14L31.85,9l.33-.12a1.31,1.31,0,0,1,.28-.09l.48-.13a.72.72,0,0,1,.25,0l.12.11a1.51,1.51,0,0,1,.17-.1l.13-.06a.28.28,0,0,0,.1-.09,2,2,0,0,1,.13-.18c.06,0,.06.06.07.09s.09.16.11.24a.22.22,0,0,0,.07.06.84.84,0,0,1,.29.38l0,.08a.28.28,0,0,1,0,.13,1.2,1.2,0,0,0,0,.19.57.57,0,0,1-.08.29.73.73,0,0,1-.29.23L34,9.94s0,0,0,0a.34.34,0,0,0,0-.35,2.25,2.25,0,0,0-.12-.21l0,0s0,0,0,.07a.2.2,0,0,1,0,.17,1.19,1.19,0,0,0-.08.16l-.07.09,0,.06a.25.25,0,0,1-.08.14l-.11.12a5.1,5.1,0,0,0-.46.47.35.35,0,0,1-.2.12.35.35,0,0,0-.15.07,5,5,0,0,0-.66.44.33.33,0,0,0-.11.09.05.05,0,0,1,0,0c-.09,0-.14.09-.22.12s0,0,0,.06-.06.08-.07.12l-.13,0h0l.07.09a.21.21,0,0,0,.13,0,.2.2,0,0,1,.13,0,.32.32,0,0,0,.21,0l.08,0a2.61,2.61,0,0,0,.67-.11h.07l.45,0h.52l.4.05h0c.09,0,.18,0,.27,0l.19,0a3.21,3.21,0,0,1,.53.15.25.25,0,0,1,.14.13.31.31,0,0,1,.05.1.21.21,0,0,0,.18.14,1.8,1.8,0,0,1,.21.08s0,.05,0,.08.09.11.17.13,0,.08,0,.09-.05,0,0,.09a.15.15,0,0,1,0,.06l.06,0s.08,0,.12.06a.27.27,0,0,0,.07.08.43.43,0,0,1,.14.2.18.18,0,0,0,.06.09,2.61,2.61,0,0,1,.24.23,1.37,1.37,0,0,0,.18.16.57.57,0,0,1,.2.29l0,.06c.07.08.07.18.12.27s0,0,0,.05a.3.3,0,0,1,0,.08c0,.07,0,.13,0,.22l-.1,0s0,0,0,.06a.11.11,0,0,1,0,0c0,.06,0,.06-.06.12a.53.53,0,0,1-.08-.26c-.06,0-.12-.06-.18,0s-.08,0-.11,0l0,0,0,0a.33.33,0,0,0-.22.11.59.59,0,0,0-.13.48c0,.06,0,.12,0,.16h0a.08.08,0,0,0,0,.11l.14-.15a.44.44,0,0,1,.18-.15.22.22,0,0,0,.06-.07s0,0,.05,0a.88.88,0,0,1,0,.43s0,0,0,0,.09-.05.13.06a3.41,3.41,0,0,0-.17.33s0,.05,0,.06,0,.06,0,.06,0,0,0,0,0,.07,0,.08,0,0,0,0a2.55,2.55,0,0,0-.13.39.15.15,0,0,1,0,.07,2.5,2.5,0,0,0-.16.41h0s0,0,0,.05a.1.1,0,0,1,.05,0,.08.08,0,0,1-.09.09s-.07,0-.09.08a.56.56,0,0,1-.16.25.2.2,0,0,0-.06.11c0,.06,0,.12-.1.15l0,0c0,.08,0,.11-.07.16a2,2,0,0,0-.16.24h0a.45.45,0,0,1,0,.2l.09-.08a1,1,0,0,0,0,.1c-.06.08-.06.08-.18,0a.17.17,0,0,1-.08.06c-.06,0-.09.06-.12.12a2.2,2.2,0,0,1-.24.38.61.61,0,0,0-.07.14c-.09.14-.16.28-.24.42a1,1,0,0,1-.23.31l0,0a2.48,2.48,0,0,1-.27.39A.16.16,0,0,1,34,20s-.09,0-.08.12,0,.05,0,.06-.1.12-.14.18-.14.13-.18.22-.06,0-.09,0a.5.5,0,0,1,0,.12h0c.07,0,.16-.06.21-.13v0s0-.06,0-.06l0,0a1.27,1.27,0,0,0,.12-.1.09.09,0,0,1,0,.08.14.14,0,0,0,0,.12,1,1,0,0,1-.23.26s0,0,0,0,0,0,0,0h0l0,0h0a.06.06,0,0,1,0,0l-.09.11a.21.21,0,0,1,0,.06c-.12.06-.19.17-.31.24s-.07.08-.13.07,0,0,0,0-.1.11-.14.18l-.16,0c-.07,0-.08,0,0,.12v0l-.13.07-.08.06s0,0,0,.08-.17.17-.3.21,0,0,0,0l-.12.08s0-.05,0-.06,0,0-.05.05h.07c0,.06,0,.11-.1.11a.21.21,0,0,0-.1.06l-.15.13s0,0,0,0-.14.06-.21.1a.41.41,0,0,1-.21.1c-.06,0-.08,0-.09-.06v-.08l-.12,0a.15.15,0,0,0-.17.08c0,.05-.09.05-.11,0s-.09-.12-.07-.2,0-.07-.06-.09l-.1,0s0,.08,0,.13a.25.25,0,0,1-.07-.26s0,0,0,0,.08.07.14.08c.07-.18,0-.27-.07-.33s.05,0,.09,0,.11,0,.08-.08a.15.15,0,0,0-.08-.11s-.08,0-.08-.08.07,0,.11,0h.14a1.34,1.34,0,0,0-.2-.21c0-.05,0-.1,0-.15s.06-.11.11-.06.12,0,.17.08a.08.08,0,0,0,.07,0,.36.36,0,0,0,.11-.19l-.19,0c.05,0,.11,0,.15-.09a.15.15,0,0,0,0-.07l.1-.15a.07.07,0,0,1,.08,0l.05,0s0,0,.06,0,.11,0,.15.06c.05-.09,0-.2.15-.22s.05.09.06.17l.06,0c0-.05.07-.06.11-.07a.09.09,0,0,0,.11,0c0-.05,0-.09,0-.15l0,0c0-.05,0,0-.06,0s-.06,0-.08.05,0,0,0,0,0,0,0,0a.64.64,0,0,0,0-.07,1.67,1.67,0,0,1,.31-.34.81.81,0,0,1,.24-.17.31.31,0,0,0,.09-.07.2.2,0,0,1,.25,0h0l.09-.1s.08.05.14,0a.39.39,0,0,0,.17-.11s0-.08,0-.13a.58.58,0,0,0,0-.14h0s0,0-.06,0,0-.05,0-.07.07,0,.08-.07.26-.29.34-.47c0,0,0,0,0-.05a.67.67,0,0,0,.19-.28,1,1,0,0,1,.21-.28l0-.06.26-.4a.09.09,0,0,0,0-.05,1.6,1.6,0,0,1,.2-.34,1.18,1.18,0,0,0,.1-.19s0-.06,0-.07a.53.53,0,0,0,.12-.25.24.24,0,0,1,0-.08,2.45,2.45,0,0,0,.23-.64c.06-.21.11-.43.17-.64a4.54,4.54,0,0,0,.16-.75,2,2,0,0,0,0-.35,1.27,1.27,0,0,1,0-.2v-.08c0-.13,0-.26,0-.39a.36.36,0,0,0,0-.23c0-.05,0-.1,0-.15s0,0,0-.08a.28.28,0,0,1,0-.23,1,1,0,0,1-.08-.14.74.74,0,0,0-.36-.34,2.8,2.8,0,0,0-.46-.16.14.14,0,0,1-.09,0c-.06-.05-.13,0-.18-.05a.51.51,0,0,0-.16-.09.85.85,0,0,0-.24-.05,2.9,2.9,0,0,0-.59,0,2.43,2.43,0,0,1-.38,0h-.18l-.26,0a1,1,0,0,0-.18.06.71.71,0,0,1-.18.08l-.57.15-.07,0c-.11,0-.19,0-.29.09l-.1,0-.17,0-.13.07a.11.11,0,0,0-.08.07c-.05.09-.13.11-.2.16a.32.32,0,0,1-.22.07.1.1,0,0,0-.07,0s0,0-.05,0h0s0,.07-.07,0-.14,0-.22,0a.42.42,0,0,1-.25,0,.14.14,0,0,0-.14,0c-.07.05-.15.08-.19.17l-.05,0a6.65,6.65,0,0,0-.33.21l-.3.18-.27.18-.06.05s0,.06,0,.08h0a.23.23,0,0,0-.19.06,1.76,1.76,0,0,0-.41.28l-.27.2a1.12,1.12,0,0,1-.22.16c-.05,0-.12,0-.16.06h.1s0,0,0,.05l-.13.09a.15.15,0,0,1-.07,0,.09.09,0,0,0-.11.09.48.48,0,0,0-.26.06s-.08,0-.14,0l-.08.09.07,0-.1.07a0,0,0,0,0,0,.06s0,.05,0,.06-.07,0-.08.09l.05,0,.07,0-.12.06c-.08-.07-.1-.08-.21,0a.31.31,0,0,0,0,.09l.06,0a.16.16,0,0,0,0,.07.25.25,0,0,0,0,.07l0,0s-.07,0-.08,0a.2.2,0,0,1-.15.12,1.31,1.31,0,0,0-.05.15.53.53,0,0,1-.34-.23.93.93,0,0,1,0-.44h0s.06,0,0-.08a.38.38,0,0,0,0-.1c.1,0,.17-.15.27-.19a.28.28,0,0,0,.1-.09.88.88,0,0,0,.12-.26.41.41,0,0,1,.13-.24.13.13,0,0,0,0-.08c.09-.16.19-.32.28-.49l0,0c.08,0,.1-.09.15-.15a.16.16,0,0,1,0-.07l.05-.07s.13,0,.16-.11.1-.07.14-.11a.29.29,0,0,0,.12.1s.05,0,.08-.06l0,0h0l0,0a.06.06,0,0,1,0-.06l.13,0a.42.42,0,0,0,.21.08.17.17,0,0,1,.14.08c-.05.07-.06.09-.13.08a.16.16,0,0,0-.14.05l-.06,0,0,0,.08.13c-.06,0-.11,0-.16,0a.59.59,0,0,0-.37,0,.1.1,0,0,0-.07,0,.11.11,0,0,0,0,.06c-.06-.06-.06-.06-.1,0l.1,0a.05.05,0,0,1,.07-.05c0,.09-.11.08-.12.16a.1.1,0,0,1,0,.07s0,.06,0,.1l-.18.13v.1s-.06,0,0,.09l.06,0s0-.05,0-.06.14-.1.23-.1l0,0a.79.79,0,0,1,.23-.16l0,0s.06-.13.14-.14h0c0-.11.16-.12.19-.21l0,0a.32.32,0,0,0,.24-.11.6.6,0,0,1,.13-.09,3,3,0,0,0,.52-.3.12.12,0,0,0,0-.05.85.85,0,0,1,.19-.14s0,0,0,0h-.28L28,13l.25,0a.44.44,0,0,0,.34-.12h0a3.57,3.57,0,0,0,.38-.25v0l-.12,0v0a.41.41,0,0,1,.19,0h.06a.74.74,0,0,0,.17-.12s.07,0,0-.1l.09-.09s.05,0,.07.05.19-.07.2-.2a.1.1,0,0,0,0-.13s0,0,0,0a.44.44,0,0,0,0,.2c.07,0,.1,0,.14-.05a.28.28,0,0,1,.08-.11,1.12,1.12,0,0,1,.42-.25l.06,0a.45.45,0,0,0,.18-.18.11.11,0,0,0,.16,0l.07-.08a.8.8,0,0,1,.32-.25.14.14,0,0,0,.08-.06.56.56,0,0,0,.05-.08s0-.06,0-.09,0,0,0,0l.14-.08a.1.1,0,0,1,.14,0h0s0,0,0,0v0h.06c.08,0,.11-.1.16-.15a4.25,4.25,0,0,1,.59-.43.93.93,0,0,1,.31-.13,1.17,1.17,0,0,0,.35-.14.64.64,0,0,1,.14-.08.36.36,0,0,0,.16-.11s0,0,.06,0a.21.21,0,0,0,.12-.07.1.1,0,0,0-.05-.1.57.57,0,0,0-.22-.11.13.13,0,0,1-.13-.11.56.56,0,0,1,0-.08.34.34,0,0,1-.09.14l-.08,0-.08.14c0,.08,0,.08,0,.17a.45.45,0,0,0-.07.07.25.25,0,0,0-.19,0c0,.12-.07.13-.19.11h0c-.06,0-.11,0-.13,0a.13.13,0,0,1-.14.08h-.06S32,10,32,10s0,0-.06,0l.14.1c-.15,0-.28-.08-.4,0l-.21.28h0a.12.12,0,0,0-.12,0,.2.2,0,0,1-.12.06c-.07,0-.15-.08-.23,0a.24.24,0,0,0,0,.07c.06,0,.07.1.1.15s0,.1-.05.11H31v-.08l-.08,0a.46.46,0,0,1-.07-.07c-.06.09-.06.12,0,.25a.16.16,0,0,1-.11.12h0s0,0,0,0a.16.16,0,0,1,0-.08l-.05-.05,0,0c-.06,0-.09,0-.11.06l.07,0-.06.05h-.11a.1.1,0,0,0-.08.16s.06,0,.09.09-.07,0-.1,0-.1,0-.14.06h0l-.06,0s-.05,0-.08,0l-.05,0-.11,0-.1,0,.06.11a1.5,1.5,0,0,0,0,.2.38.38,0,0,1-.05.21l-.07-.07a.14.14,0,0,0,0-.07,2,2,0,0,0,0-.25h0a1.12,1.12,0,0,1-.05.13l0,0s-.07.05-.08.1l-.06,0h-.08a.23.23,0,0,0,.05.26h0s0,0,0,0l-.1-.08s0-.06,0-.08a.27.27,0,0,0-.07-.08s0,0,0,0,0,.13-.13.14-.05,0-.08,0L29,12s0,0,0,.06,0,0-.06,0L29,12a.13.13,0,0,1,.16.05l.06.07H29s0,0,0,0-.08,0-.11,0a.5.5,0,0,1-.28.12h0v-.12a.29.29,0,0,0-.15.16l.08,0h0l-.1,0a0,0,0,0,0,0,0c0,.06,0,.07-.08.09a.13.13,0,0,0-.1.08s0,.06-.09.07,0,0,0,.08a0,0,0,0,1,0,0h0c-.07,0-.15,0-.22,0s.08.1.05.18h-.06a.14.14,0,0,0-.11,0l0,0a.08.08,0,0,0,0,0h0c-.12,0-.2.1-.3.15l0,0a1.34,1.34,0,0,0-.24.12.37.37,0,0,1-.16.05c-.07,0-.14,0-.19,0h-.06l-.08,0h0v.08h-.18a.5.5,0,0,1,.13-.12,2.92,2.92,0,0,0,.28-.21l.17-.13s.05,0,.1,0a.08.08,0,0,0,.12,0l.06-.1h0s0,0,0,0h0s0,0,0,0l0-.07.14-.1c.07-.05.12-.13.21-.16l.07-.07a.53.53,0,0,1,.23-.19l.05,0a1.2,1.2,0,0,1,.34-.25l.35-.22.23-.17.16-.13c.07,0,.12-.06.17-.1l.07,0a.19.19,0,0,0,0-.08h0c.09-.05.2-.06.27-.16a.09.09,0,0,1,.06,0l.42-.28a2.71,2.71,0,0,1,.35-.24.14.14,0,0,0,.06-.13c.05,0,.08,0,.12,0s-.05-.06-.08,0,0,0,0,0a.54.54,0,0,0-.12.09c-.13.08-.25.15-.37.24s-.23.18-.37.27-.06.06-.09,0-.1,0-.13.07a.42.42,0,0,1-.12.08s0,0,0,.05-.06,0-.09,0a.12.12,0,0,1-.12,0s0,0,0,0A5.24,5.24,0,0,1,29.7,11a1.45,1.45,0,0,0,.29-.19l.5-.35.28-.19s0,.06,0,.08a.15.15,0,0,1,0,.07c.08.06.11,0,.16,0s0-.1.08-.13l-.09-.07h-.05l-.25.11a1.83,1.83,0,0,0-.28.14l-.07,0a.67.67,0,0,0-.18.07l-.68.35A3.41,3.41,0,0,1,29,11c-.09,0-.18.1-.28.14-.26.12-.48.3-.73.44s-.25.17-.39.23l-.44.22a.82.82,0,0,1-.26.1l-.27.08c-.05,0-.09-.05-.07-.12h-.16a.2.2,0,0,1,.1-.12,1.27,1.27,0,0,0,.19-.13c.11-.13.27-.18.39-.29l.23-.17.24-.16.13-.09a.8.8,0,0,1,.19-.13A.09.09,0,0,0,28,11s0,0,0-.08l-.2.06s-.06,0-.08.05a.27.27,0,0,1-.16.08.25.25,0,0,0-.17.12c0,.06-.08.13-.16.15l0,0s-.05,0-.06,0l-.08.07-.07,0s-.05,0-.06,0a1.34,1.34,0,0,1-.31.22.43.43,0,0,0-.1.09.17.17,0,0,1-.12.08l0,0c-.09.1-.24.16-.31.3l-.07.08-.14-.11-.08,0a.34.34,0,0,1-.09-.08.17.17,0,0,1,0-.21,2.26,2.26,0,0,1,.11-.22l-.11-.07s0-.06,0-.1a.75.75,0,0,0-.35.31l0,0a.84.84,0,0,0-.06.14c0,.05,0,.09-.06.13s0,.11-.08.13l0-.08s0-.05,0-.08,0,0,0-.06.08-.05.08-.12-.13,0-.19,0l-.16.12c0,.05,0,.09.05.11s.05.07.06.11-.06,0-.06,0a.13.13,0,0,0-.1-.09s0,0,0,.06a.19.19,0,0,1,0,.16,1.62,1.62,0,0,1-.1.18.19.19,0,0,1,.05.1.08.08,0,0,1,0,.07c-.05,0-.06.1-.1.15s0,0,0,0a.18.18,0,0,0-.07-.05c0-.1.07-.14.1-.21s0,0-.11.06a.17.17,0,0,1,0-.11s.05-.09,0-.15-.06,0-.07,0a.09.09,0,0,0,0,.06,1.29,1.29,0,0,0-.09.16.27.27,0,0,0,0,.17V13s0,.05,0,.05,0,0-.05,0,0,0,0,0-.08.05-.1.09-.08.08-.05.15a1.51,1.51,0,0,1,0,.3.14.14,0,0,1,0,.06.12.12,0,0,0,0,.1s-.07,0-.12,0l.05.06.07-.06.14-.12,0,0c.09,0,.1-.07.15-.12a.5.5,0,0,1,.08-.07c.07-.05.13-.09.12-.19a.09.09,0,0,1,.06-.07c.06,0,.09,0,.13,0h.05s0,0,0,0v0a.11.11,0,0,0,.1,0l.44-.32.17-.13.18-.11h.06a1.25,1.25,0,0,0,.17-.16s.08,0,.11,0,0,.14-.14.14-.05,0,0,0a.11.11,0,0,0,0,.05,3.08,3.08,0,0,1-.27.24l-.58.46a2.58,2.58,0,0,0-.34.32l-.24.22a1.28,1.28,0,0,0-.28.29.41.41,0,0,1-.09.1.21.21,0,0,0-.08.16s0,0,0,.05a.26.26,0,0,0,0,.15l0,0a.21.21,0,0,1,0,.2.24.24,0,0,0,0,.22,2.7,2.7,0,0,0,0,.28s0,.08,0,.12.09,0,.1.06,0,.24.05.36v0a.24.24,0,0,0,0,.22.14.14,0,0,1,0,.11l0,0h0a2.54,2.54,0,0,0,0,.29A3.47,3.47,0,0,1,24,17a.49.49,0,0,1,0,.12s0,0,0,0,0-.06,0-.09v.08c0,.06,0,.12,0,.18s0,0,0,0,0,.09,0,.14,0,.26.07.39a1.34,1.34,0,0,0,.07.27.65.65,0,0,1,0,.2v.14a.09.09,0,0,1,0,.11.06.06,0,0,0,0,0,.31.31,0,0,1,.09.26v.06l.08,0a.22.22,0,0,1,0,.14c0,.05,0,.08,0,.12s.06.1.06.16,0,.05.07.08h.05a1,1,0,0,1,0-.15.35.35,0,0,1,.05.08.74.74,0,0,0,.11.24.55.55,0,0,1,.13.29.65.65,0,0,0,0,.21.15.15,0,0,1,0,.16.6.6,0,0,1-.24.28.29.29,0,0,1-.17.06l-.22,0a.29.29,0,0,0-.1,0,1,1,0,0,1-.24-.08.52.52,0,0,1-.17-.13c0-.05-.09-.08-.13-.06a.18.18,0,0,1-.21-.05.07.07,0,0,0-.08,0c-.06,0-.08,0-.11-.05a1.59,1.59,0,0,1-.15-.21s0-.06-.09-.06a0,0,0,0,1,0-.05.09.09,0,0,0-.13-.07h0a.76.76,0,0,0,0-.15.59.59,0,0,1-.27-.33.51.51,0,0,1-.07-.17c0-.06-.08-.1-.13-.16a.3.3,0,0,0,0-.18v0c0-.06-.13-.07-.11-.17s-.11-.1-.16-.15a.34.34,0,0,0-.06-.06h.06c.05-.17.05-.17-.05-.3s.09-.08.11-.14a.29.29,0,0,1,.14,0,.46.46,0,0,0,.25.08.08.08,0,0,1,.08,0s0,0,.05,0a.81.81,0,0,0,0-.15h0l0-.05a.13.13,0,0,0,0-.06c0-.12,0-.12.1-.19a1.7,1.7,0,0,0,0-.22s0,0,0,.05,0,0-.08.06v-.06s0,0,0-.07Zm7.39-7.21,0,0,0,0h.08l0-.05a.25.25,0,0,0,.16-.08.29.29,0,0,0-.16.09s0,0,0,0S30.11,10.31,30.09,10.35Zm2.6,11.14a.14.14,0,0,0-.11.05.38.38,0,0,1-.13.09l-.18.12s0,.05,0,.08-.1,0-.13,0-.06.05-.1.07-.07,0-.08.1.08,0,.09,0a.1.1,0,0,1,.1-.07c.11,0,.19-.07.3-.08s0,0,0-.07-.07,0-.08,0a.77.77,0,0,1,.24-.12s.1,0,.11-.09a.16.16,0,0,0,.13-.14C32.74,21.4,32.74,21.4,32.69,21.49ZM29.76,7s-.05,0-.05,0a.08.08,0,0,1,0-.08c.05,0,0-.08,0-.14s0,0-.06.06-.06,0-.09,0a.16.16,0,0,0-.12.13,1.13,1.13,0,0,0,0,.18.19.19,0,0,1-.18.14H29.2a.16.16,0,0,1-.11.1s0,0,0,0a1.45,1.45,0,0,0,0,.36c.08,0,.06,0,.23-.11,0,.06,0,.11,0,.17h.11a.4.4,0,0,0,.3-.38.08.08,0,0,1,0,0,.07.07,0,0,0,0-.06,1.53,1.53,0,0,1,0-.3s0-.06,0-.09l0,0h0V7Zm-.07,2.57s0,0-.05,0a.42.42,0,0,0-.13.07.36.36,0,0,0,0,.07H29.4l0,0a.38.38,0,0,0,0-.1l.08,0c0-.09.08-.13.14-.18s0-.07,0-.09.17-.17.26-.24S29.93,9,30,9l.05,0,0,0-.08,0s0,0,0-.06a1.61,1.61,0,0,1,0-.22.2.2,0,0,0-.05-.18l-.11,0a.66.66,0,0,0,.08-.13c-.09,0-.15.1-.24.13h0s0,0-.08,0-.1.06-.09.14a.29.29,0,0,0-.13.2,1.09,1.09,0,0,0,.08.15c0,.08,0,.12-.05.16s-.05.09-.08.13-.1.07-.08.14h0a0,0,0,0,1,0,0l.13,0c-.05.07-.12.1-.14.15s-.09.08-.14.1-.06,0-.08,0a.24.24,0,0,1-.11-.06.18.18,0,0,0-.1,0s-.06,0-.1,0-.05,0-.09,0,0-.06,0,0l.05-.09v0h-.05s0,0,0,0l-.26.25a1.06,1.06,0,0,1-.15.15l-.22.16s0,0-.05.05a.2.2,0,0,1-.09.09.53.53,0,0,0-.12.1s0,0,0,.06a2.26,2.26,0,0,0,0,.26c0,.05,0,.06-.07.08s.07-.14,0-.22-.12.05-.12.1a.25.25,0,0,0,.1.21l.13-.06c.17-.07.34-.13.49-.21l.2-.12a3.22,3.22,0,0,0,.5-.23l.3-.17a.53.53,0,0,1,.17-.08.42.42,0,0,0,.22-.08.84.84,0,0,1,.3-.11l.1,0a1.54,1.54,0,0,1,.34-.12l.05,0a.9.9,0,0,1,.28-.11.16.16,0,0,0,.13-.07h-.14l-.09-.14s-.05-.07-.09-.07a.39.39,0,0,0-.16.1s-.08.11-.16.09a.1.1,0,0,0-.08,0c0,.05-.08.05-.1.08s-.13.06-.15.14ZM33.53,9c.09.07.2,0,.31.07-.06-.1,0-.21-.06-.31l-.21.09C33.52,9,33.52,9,33.53,9Zm-7.84,6a.18.18,0,0,0,.14-.06.12.12,0,0,1,.06-.08.25.25,0,0,0,.08-.16s0-.07,0-.1a.26.26,0,0,1,0-.1.15.15,0,0,0-.12.09l-.21.32A.22.22,0,0,0,25.69,15ZM31,12.35a.2.2,0,0,0,0,.13s-.06.08,0,.13.11,0,.1-.08a.2.2,0,0,1,.08-.15l.05-.05s0,0,0-.06Zm-.81-4a.73.73,0,0,0,0-.29l0,0,0,0,0,0-.06,0,0,0,0,0h.12C30.1,8.23,30.11,8.29,30.2,8.3ZM33,21.36s.06-.05.08-.08.07,0,.1-.07,0,0,0,0-.19,0-.29,0S32.9,21.33,33,21.36ZM27.29,10.61c-.05.07-.1.12-.13.17v.05l.05,0a.09.09,0,0,0,.09-.08.41.41,0,0,0,0-.11Zm2.5-4.11-.14.1a.08.08,0,0,0,0,.09,0,0,0,0,0,.06,0,.21.21,0,0,0,.06-.1S29.79,6.55,29.79,6.5Zm-7.3,8.26s-.07.06-.08.11,0,.06,0,.07,0,.09-.08.14h.05a.72.72,0,0,0,.15-.27ZM31.64,21c.1,0,.14,0,.17-.09s0-.05-.07,0a.1.1,0,0,0-.08.05S31.65,20.94,31.64,21ZM23,18.23A.53.53,0,0,0,22.9,18l0,0a1,1,0,0,0,0,.1C22.9,18.07,22.87,18.17,23,18.23ZM33.43,9.49a.23.23,0,0,0,.14.07l.06-.07c-.07,0-.07,0-.08-.06A.16.16,0,0,0,33.43,9.49Zm-2.2,2.34H31l0,0C31.06,11.88,31.14,11.91,31.23,11.83Zm-.55-3.44a1,1,0,0,0,0-.15s0,0,0-.06h-.05A.25.25,0,0,0,30.68,8.39Zm-1.62,3.43,0,0a.32.32,0,0,0-.19,0C28.89,11.86,28.89,11.86,29.06,11.82ZM32.92,9c-.05,0-.08,0-.11,0h0A.08.08,0,0,0,32.92,9ZM22.76,17.14s0,.05,0,.1S22.75,17.17,22.76,17.14Zm8.47,4.54a.1.1,0,0,0,0-.1C31.17,21.64,31.17,21.64,31.23,21.68ZM29.1,11.75s0,.05,0,0,0,0,0,0Zm-.85.57s0-.05-.06,0,0,0,0,.07Zm3.46,9-.13,0A.1.1,0,0,0,31.71,21.32Zm-4.14-8.59s.05,0,.07,0Zm-.67.89,0,0h0v0A0,0,0,0,0,26.9,13.62Zm.24-.54s0,0,0,0,0,0,0,0,0,0,0,0Zm3-2v0l.05,0h0Zm-5.77,2.34.06,0a0,0,0,0,1,0,0h0Zm8.85,7.82,0,0s0,0,0,0,0,0,0,0S33.19,21.28,33.18,21.28ZM22.69,17.15v0h0a.06.06,0,0,0,0,0Zm0-.12h0v0h0Zm6.87-4,0,0h0v0Zm2.22,8.21v0h0a0,0,0,0,0,0,0Zm-5.76-6.57v0h0l0,0Zm5.44-8s0,0,0,0h0Zm-.22,2v0l0,0v0ZM28.6,10.62l0,0v0s0,0,0,0Zm.75,1h0l0,0h0Zm-5,.16h0a0,0,0,0,1,0,0h0Zm.74-2.14h0Zm1.7,4.1h0l0,0h0ZM32,20.53a0,0,0,0,0,0,0s0,0,0,0h0Zm-5.56-7v0ZM33.54,21h0Zm-6.39-6.42h0ZM28.83,12h0ZM23.1,17v0h0Zm8,4.71h0a0,0,0,0,0,0,0h0Zm-4.4-6.8h0Zm-.06.06h0Zm2.75-3.39h0l0,0h0Zm-3.28,2.71h0v0h0Zm2.25-3.56h0v0h0Z"/><path class="cls-1" d="M29.86,20.83s.06,0,.08,0,0-.05,0-.09a.52.52,0,0,0,0-.11.28.28,0,0,1,0-.09.05.05,0,0,1,.07-.05l.22.05a.41.41,0,0,0,0,.08.3.3,0,0,0,0,.08.46.46,0,0,0,0,.09.22.22,0,0,0-.05-.08s0,0,0,.06a.64.64,0,0,0,0,.07.1.1,0,0,0,.06.09l.05.06c.05,0,.06,0,.13,0s.06.07.09.11-.08,0-.12,0l0,.05,0-.08h-.11a.09.09,0,0,0,0,.05l.15,0v0a.18.18,0,0,1,0,.25.16.16,0,0,0,0,.09s0,.08,0,.09a.09.09,0,0,1-.1,0c-.06-.1-.17-.16-.19-.27a.16.16,0,0,0-.08,0l-.08,0a.34.34,0,0,0,.2.26l.26.14s.06,0,.06.05h0l-.21-.06-.1,0a.21.21,0,0,1-.13-.09.16.16,0,0,0-.07-.07h-.06c0,.05.07.08.07.13s0,0,.06,0a.27.27,0,0,1,.17.13.35.35,0,0,1-.05.08c-.05,0-.11,0-.18,0l0,.06s0,0,0,0-.05,0-.08,0h-.1c0,.08.14.12.12.23a.31.31,0,0,1-.18-.07.43.43,0,0,1,0,0,.19.19,0,0,0-.12-.21l-.34-.2L29,21.64h.08l.22.09.11,0,0-.06-.11,0a.16.16,0,0,1-.11-.05s0-.05-.07-.05-.15-.11-.22-.2c.16,0,.25.15.38.15a.06.06,0,0,0,0-.08l-.17-.15,0-.05.21.05v-.07a.37.37,0,0,1,0-.11s0,0,0,0,0-.07,0-.09l.07-.08.08,0s.06,0,.06-.07h.06v0a.13.13,0,0,0-.11,0,.16.16,0,0,1-.12-.08l-.11-.12-.12.05a.05.05,0,0,1,0-.06.1.1,0,0,0-.08-.1.49.49,0,0,0-.23.22c0,.06-.09.08-.12.14s-.08.06-.11.09h-.06l.18-.19-.06-.09c.1,0,.11,0,.08-.09s.07,0,.11,0,0,0,0,0,0,0,0,0l-.09,0c0,.06,0,.07-.08.09a.58.58,0,0,1-.17.21c0,.07-.11.12-.16.18a.08.08,0,0,0,0,.09s0,0-.06,0a.3.3,0,0,0-.08.08c0,.05-.07.1-.14.11a.12.12,0,0,0-.06.06,1.3,1.3,0,0,1-.15.18s-.08.07-.08.15c.09-.09.2-.15.28-.23s0,0,0,0a.75.75,0,0,0,.13-.11l.18-.22a1.18,1.18,0,0,1,.19-.11s0,.05,0,.07a.56.56,0,0,0-.16.21l0,0a.53.53,0,0,0-.21.21c-.13.06-.2.2-.31.3s-.33.31-.48.48l-.08.09a7.8,7.8,0,0,0-.57.58,1.35,1.35,0,0,0-.16.19l-.34.4s0,0,0,0-.1,0-.12,0l-.09-.09v-.14l.1,0a.19.19,0,0,1,.08,0s0,0,0,.06l.22-.24,0-.05c.08,0,.09-.11.14-.18s-.09.08-.15.08.06-.1,0-.12c.05-.07.13-.11.14-.2s.05,0,.06,0a1.27,1.27,0,0,0,.13-.19c-.05,0-.09,0-.09,0s-.09.06-.11.12v.09a.15.15,0,0,0-.09,0c-.05,0-.07.07-.13.07s0,0,0,0l-.3.28s0,0,0,0,0,.09,0,.12,0,0,0-.05l-.08,0c-.08,0-.08,0-.13-.06s.07,0,.09,0l-.09,0s0,0,0,0,0-.14-.05-.19.07,0,.07-.1,0-.06,0-.1l-.07,0a.09.09,0,0,1,0-.11l.13-.23a2.49,2.49,0,0,1,.2-.32c.14-.19.3-.36.44-.53l.28-.32c.14-.16.28-.33.44-.48s.37-.38.55-.59.34-.34.5-.52a2,2,0,0,0,.19-.22,2.42,2.42,0,0,1,.32-.32,1.07,1.07,0,0,0,.14-.16,7.82,7.82,0,0,1,.72-.69.73.73,0,0,0,.18-.17.55.55,0,0,1,.19-.18l.19.17a1.17,1.17,0,0,1,.05-.11H30s0,0,0,.05,0,.05,0,.08.07.05.09,0l.24-.25v0a.37.37,0,0,0-.18,0s-.06,0-.07-.05l0-.09a.38.38,0,0,1,0-.1.07.07,0,0,1,0,0s0-.05.05-.05,0,0,.06,0a.28.28,0,0,1,0,.09l0,.05a.67.67,0,0,0,.15-.14l.13-.16,0-.08s0,0-.05-.06v0l.13-.07a1.25,1.25,0,0,0,.08-.12.33.33,0,0,0,0-.06s0,0,0,0,.1-.12.15-.16a4,4,0,0,0,.35-.37l.2-.21a1.43,1.43,0,0,0,.29-.36.78.78,0,0,1,.1-.15,1.89,1.89,0,0,0,.19-.44s-.08,0-.08-.06-.07-.05-.09-.07a.14.14,0,0,0-.14,0l-.15,0s-.06,0,0,.05a.09.09,0,0,1,0,.06,1,1,0,0,1-.61.25c0,.05-.08.07,0,.14h0l-.25,0a.36.36,0,0,0-.08.2.24.24,0,0,1-.1.19.53.53,0,0,1,0,.12l-.07,0a.62.62,0,0,0-.3.23c0,.05-.11.09-.12.17a.05.05,0,0,1-.08,0h0a.2.2,0,0,0-.25,0s0,0,0,.05,0,0,0,0l.06,0s0,.08,0,.11,0,0,.06.05l0,0-.15.08-.06,0-.23.05s-.05,0-.07-.05l.2,0c.06,0,.08-.05.09-.11s-.08.06-.14.06a.55.55,0,0,0-.15.08s0,.06-.05.06-.05,0-.07.05L29,17a.21.21,0,0,0,.1.14l-.11,0s-.06-.09-.13-.06,0,0-.05,0-.09,0-.13,0a.13.13,0,0,0-.1.1s0,0,0,0-.1.07-.14.12l0,0h0a.26.26,0,0,1-.07.15s0,.07,0,.11l-.05,0-.08.07-.05-.06c0,.06,0,.1,0,.14H28s0,.09-.08.1,0,0,0,0,0,0,.06,0a.17.17,0,0,0,.06-.06.2.2,0,0,0,.2,0h0a0,0,0,0,0,0,0,1,1,0,0,0-.24.35l-.12.17-.35.47a.16.16,0,0,0-.17.12.43.43,0,0,1,0,.07l0,0s0-.08,0-.11-.07,0-.1.06H27L26.9,19l-.07,0h-.14s-.07-.06-.12,0a.07.07,0,0,1-.05,0c0-.05-.08,0-.13,0v-.14h-.14a.37.37,0,0,0-.12-.23v-.26l-.17-.2a.34.34,0,0,1,.06-.12,1.3,1.3,0,0,0,.16-.31c0-.07.06-.11.13-.15a.26.26,0,0,1,.16-.29A.24.24,0,0,0,26.6,17v0c0-.06,0-.07.09-.07s.12,0,.15-.11,0,0,0,0,0-.11.09-.14l.11-.06a.21.21,0,0,0,0-.06c0-.06.09,0,.12,0a.08.08,0,0,0,0,0,.07.07,0,0,1,.05-.07h.13s0-.1.05-.12l.11-.07a.16.16,0,0,0,.08-.1.32.32,0,0,1,.15-.27c0-.06.09-.08.06-.15s0,0,0-.06.1,0,.15,0a.42.42,0,0,1,0-.1c0-.06.08-.12.17-.11a.14.14,0,0,1,0-.09l.07,0a.06.06,0,0,0,0-.1s-.05-.05,0-.1.08-.06.14,0,.08,0,.12-.05,0-.07,0-.12a.42.42,0,0,0,.32-.13l.05,0,0-.05,0,0c.09,0,.12-.05.15-.12l0,0a.15.15,0,0,0,.11-.06h.17a.14.14,0,0,1,.11.07.34.34,0,0,1,.36.12.36.36,0,0,0,.14.1.51.51,0,0,0,.07.15s0,.1,0,.15l.34.25a1.26,1.26,0,0,0,.1.33,1,1,0,0,0,.18-.07s0,0,0-.06,0-.05,0-.05,0,0,0,0h.07l.42-.2,0,0c0-.08.06-.09.11-.1a1.61,1.61,0,0,1,.37-.07c.07,0,.13,0,.19,0s.07,0,.07-.08,0-.13,0-.2,0-.1.09-.13l.1,0,.31-.13,0,0c.13-.17.35-.2.52-.31h.06c.11,0,.16,0,.18.13v0a.49.49,0,0,0,.24.05.24.24,0,0,1,.07.32.31.31,0,0,0,0,.2.56.56,0,0,1-.3.19,1.65,1.65,0,0,0-.41.18,1.62,1.62,0,0,1-.4.19h-.07c0-.06-.08,0-.14,0l-.05,0a.22.22,0,0,0,0,.13.45.45,0,0,1,0,.23v0c0,.06,0,.1,0,.12a.24.24,0,0,0-.14.17c0,.08-.05.18-.17.22,0,0,.06,0,.06,0l.37-.22.09-.08a.57.57,0,0,1,.22-.16c.05,0,.05,0,.07.12a1.43,1.43,0,0,0,.23-.26s.09,0,.12,0l.12-.14h.07c.08-.05,0-.17.11-.23h.12a.5.5,0,0,1-.07.27.57.57,0,0,1-.12.23.38.38,0,0,0-.12.18c-.08.1-.13.23-.25.29l0,.05-.14.17-.13,0a.15.15,0,0,0-.12.1.34.34,0,0,1-.14.21,1.83,1.83,0,0,1-.13.16s-.08.12-.15.15,0,0-.06.06l-.06.07c-.05.06-.11.1-.17.17a.28.28,0,0,1-.18.14l0,0,0,0a.15.15,0,0,0-.13.06l-.08.07a.67.67,0,0,0-.21.2.23.23,0,0,1-.11.11.61.61,0,0,0-.16.16l-.09.11c-.05.05-.09.11-.14.17l-.1.1-.16.15-.15.13v0s-.1,0-.13.1-.08,0-.11.06,0,.06,0,.08-.14.17-.22.25-.05,0-.06.06a2.47,2.47,0,0,1-.28.28l-.13.12s-.05.05,0,.1a.39.39,0,0,1,.1-.08.35.35,0,0,0,.05.08l-.11.07a.23.23,0,0,0,.07.07.75.75,0,0,1,.15.09.55.55,0,0,0,.33.15l0,0s0,0,0,0a.36.36,0,0,0,0,.11l-.1.06v.06h0s0,0,0-.06a.25.25,0,0,1,.08.18.17.17,0,0,0,0,.05h0a.3.3,0,0,0,0,.33l0,.06,0,0c0-.09,0-.15,0-.23h0C29.87,21,29.89,20.9,29.86,20.83ZM27.72,18.3s.07,0,.09,0l0-.09a.14.14,0,0,0,.1-.07.13.13,0,0,0,0-.06s0-.05-.05,0a.13.13,0,0,0,0,.06.35.35,0,0,0,0,.11l0,0-.07.08h0v0h0Zm-1.11,3.85h.05a1.34,1.34,0,0,1,.11-.14l0,0c-.1,0-.11,0-.14.16s0,.06-.06.08-.05,0-.05.06.05,0,.06,0S26.65,22.22,26.61,22.15Zm.31-.28s.06,0,.09,0l.09-.1s0,0,0-.05a.3.3,0,0,0-.18.17s-.06,0-.1.08S26.91,21.91,26.92,21.87Zm-.34.79,0,0h0a.15.15,0,0,0,.05-.06s0,0,0,0a.43.43,0,0,0,0-.11l-.07-.07a.32.32,0,0,0-.06.21Zm.19-.17.05,0s0-.06.07-.08.29-.29.44-.43a0,0,0,0,0,0-.06c-.07,0-.12.1-.2.09s0,0-.07,0a.52.52,0,0,0-.16.17.25.25,0,0,0-.26.14s.05.1.12.09v.08s0,0,0,0S26.77,22.53,26.77,22.49Zm2-6.31a.26.26,0,0,0,.21,0l.13-.06.14,0a.83.83,0,0,0,.3-.14l0,0a.5.5,0,0,0,0-.13.29.29,0,0,0-.22-.06.55.55,0,0,1-.19.18l0,0s0,0,0,0a.51.51,0,0,0-.25.18s0,0,0,0l-.12,0s0,0,0,.06S28.79,16.26,28.8,16.18Zm1.11,1.95a.41.41,0,0,1-.27,0h-.07s-.05,0,0,.07a.24.24,0,0,1,.2,0C29.81,18.29,29.88,18.26,29.91,18.13Zm2.63-2.94,0-.06-.19,0h0a.06.06,0,0,0,0,.08c.05,0,.08,0,.13,0Zm-3.35,5.34s0-.05,0-.06,0-.06,0-.1,0-.06-.05-.06,0,0,0,.06S29.16,20.46,29.19,20.53ZM33,14.47a.24.24,0,0,0-.17,0C32.87,14.52,32.92,14.52,33,14.47Zm-3.18,7.39-.15-.05A.12.12,0,0,0,29.78,21.86Zm-2.51-.35c.06,0,.06,0,.08-.09Zm1.56-1.09,0,0s0,0,0,.05,0,0,0,0h0S28.81,20.44,28.83,20.42ZM27.2,21.59h0s0,0,0,0,0,0,0,0S27.19,21.61,27.2,21.59Zm4.68-5.25h0v0ZM28,18l0,0a0,0,0,0,1,0,0s0,0,0,0Zm1.92,1.22s0,0,0,0h0Zm-.4,1.32h0a0,0,0,0,1,0,0ZM29,17v0Zm-2.54,5.78h0Z"/><path class="cls-1" d="M30.75,15.92c0-.05,0-.11.05-.16l0-.06a.38.38,0,0,1,.1-.12h0a.55.55,0,0,0,0,.18.64.64,0,0,0,.36-.17.06.06,0,0,0,0-.07h0l0,0-.09.05h0a.06.06,0,0,1,0-.08.29.29,0,0,1,.18-.1s0,0,0,.08a0,0,0,0,0,0,0h.06l0,0v0l-.11.06-.39.16-.08,0s-.08.06-.13.05Z"/><path class="cls-1" d="M24.25,17.31s0,0,0,0a.74.74,0,0,1,0,.14l.06.49a.75.75,0,0,0,0,.2c0,.06.05.12.07.19a.28.28,0,0,0,.09.3s0,.09,0,.13a.16.16,0,0,0,0,.12s0,.1.05.15l0,0a0,0,0,0,1-.06,0,.23.23,0,0,1,0-.15.52.52,0,0,0-.06-.3c0-.12,0-.23-.07-.35s0-.08,0-.13c0-.27-.07-.55-.12-.83a.1.1,0,0,0,0,0Z"/><path class="cls-1" d="M25.54,12.46a2,2,0,0,1-.38.27s0-.05,0-.06a.77.77,0,0,0,0-.15,3.15,3.15,0,0,1,.27-.19s0,0,.06,0,0,0,0,.05Z"/><path class="cls-1" d="M28.34,11.86a1,1,0,0,1-.33.3s-.05,0-.08.06a.41.41,0,0,1-.12.11s-.07.05-.13,0,0,0,0,0l.06-.06c.16-.12.32-.25.49-.36,0,0,.06,0,.09,0Z"/><path class="cls-1" d="M30.28,22.42s0,0-.07,0l0,.21-.07,0c0-.05,0-.11,0-.16L30,22.37l.09,0s0-.05,0-.07L30,22.28s0,0,0-.06,0,0,0,.05a.38.38,0,0,0,.18.12s0,0,0,0Z"/><path class="cls-1" d="M33.94,10.05a.28.28,0,0,1-.13.11l-.27.14-.16.07h0s0,0,0,0A2.22,2.22,0,0,1,33.94,10.05Z"/><path class="cls-1" d="M30.49,18.87c0-.05,0-.08,0-.09s.11-.15.21-.17a.34.34,0,0,1-.16.19s0,0,0,0Z"/><path class="cls-1" d="M30.77,20.75l.09.12c-.11,0-.14,0-.11.14s-.07,0-.06-.07,0-.06,0-.08,0,0,0,0A.34.34,0,0,0,30.77,20.75Z"/><path class="cls-1" d="M27.29,14.7a.19.19,0,0,1-.13.12.09.09,0,0,0-.07,0s-.06,0-.09,0a.23.23,0,0,1,.18-.11.31.31,0,0,0,.12-.05Z"/><path class="cls-1" d="M31.05,18.19c0,.14-.1.13-.11.23a.35.35,0,0,1-.06-.09Z"/><path class="cls-1" d="M30,22l.13.1s0,.05-.08,0H30s0-.05,0-.07Z"/><path class="cls-1" d="M28.37,17.66a.19.19,0,0,1,0,.07s0,0,0,.06a.1.1,0,0,1,0,.05s0,0,0,0-.05,0-.08,0h0s0,0,0,0a.7.7,0,0,1,.2-.18Z"/><path class="cls-1" d="M33.57,15.1a.1.1,0,0,1,0,.12s-.07,0-.13,0A.17.17,0,0,1,33.57,15.1Z"/><path class="cls-1" d="M30,19.43l-.06,0a.84.84,0,0,1-.24.14,0,0,0,0,0,0,0,.51.51,0,0,0,.16-.13.11.11,0,0,1,.14,0Z"/><path class="cls-1" d="M29.36,17c-.08.08-.08.08-.15.06S29.26,16.93,29.36,17Z"/><path class="cls-1" d="M24.22,16.71l0,0,0,.29s0,0,0,.06,0-.25-.05-.38Z"/><path class="cls-1" d="M26.35,12.15l0,.08a.42.42,0,0,0-.06.08,0,0,0,0,1-.06,0s0-.05,0-.07a.45.45,0,0,1,.09-.1s0,0,.06,0Z"/><path class="cls-1" d="M29.89,17.65a.61.61,0,0,1,0,.13l-.05,0s0,0,0,0a.06.06,0,0,1,0-.06Z"/><path class="cls-1" d="M31.3,17.88a.61.61,0,0,1,.14-.1s0,.08,0,.1A.12.12,0,0,1,31.3,17.88Z"/><path class="cls-1" d="M28.86,17.18a.54.54,0,0,1-.22.15s0,0,0,0A1.05,1.05,0,0,1,28.86,17.18Z"/><path class="cls-1" d="M24.33,14.28c0-.08,0-.08.12-.14s0,0,0,0S24.39,14.28,24.33,14.28Z"/><path class="cls-1" d="M36.33,16.52a.54.54,0,0,1-.07.13s0,.05-.09,0h0c.05,0,.06-.07.09-.11s0,0,.07,0Z"/><path class="cls-1" d="M31.32,18c-.05,0-.08.11-.18.08C31.2,18,31.23,18,31.32,18Z"/><path class="cls-1" d="M24.52,14.11s0-.06,0-.07l.12-.08s0,0,0,.06Z"/><path class="cls-1" d="M30.2,19v0h.2a.42.42,0,0,1,0,.06Z"/><path class="cls-1" d="M36.78,15a1.56,1.56,0,0,0,.06-.15s0,0,0,.05S36.85,15,36.78,15Z"/><path class="cls-1" d="M27.38,12.59v0s-.07,0-.11,0S27.3,12.62,27.38,12.59Z"/><path class="cls-1" d="M29,20.94c-.08-.05-.09-.06-.06-.09s0,0,0,0,0,0,0,0Z"/><path class="cls-1" d="M27.3,14.7c0-.06.06-.09.14-.13-.08.11-.08.11-.15.13Z"/><path class="cls-1" d="M27.58,12.48a.11.11,0,0,1-.12,0C27.51,12.48,27.51,12.48,27.58,12.48Z"/><path class="cls-1" d="M24.93,13.78s0-.1,0-.11h0C25,13.73,25,13.75,24.93,13.78Z"/><path class="cls-1" d="M30.77,18.5l.07-.06s0,0,0,0S30.84,18.52,30.77,18.5Z"/><path class="cls-1" d="M32,11.62h-.07s0,0,0,0,0,0,0,0H32Z"/><path class="cls-1" d="M30.38,20.65c.06,0,.06,0,.1,0S30.42,20.7,30.38,20.65Z"/><path class="cls-1" d="M30.42,20.88h.11C30.49,20.92,30.49,20.92,30.42,20.88Z"/><path class="cls-1" d="M36,12.56s0,0,0-.09S36,12.52,36,12.56Z"/><path class="cls-1" d="M29.85,16.58s0,.06,0,.08,0,.07-.1,0l.1-.12Z"/><path class="cls-1" d="M29,11.48l0,0,0,0,0,0Z"/><path class="cls-1" d="M30.73,15.11s0,0,0,0h0s0,0,0,0Z"/><path class="cls-1" d="M26.71,15.08h-.05v0h.06Z"/><path class="cls-1" d="M28.35,11.86c0-.06,0-.06.08,0a.08.08,0,0,1-.09,0Z"/><path class="cls-1" d="M32.9,19.85l0,0s0,0,0,0,0,0,0,0S32.87,19.84,32.9,19.85Z"/><path class="cls-1" d="M22.54,16.73v.05h0v-.05Z"/><path class="cls-1" d="M30.27,22.15s.05,0,.05.05S30.28,22.17,30.27,22.15Z"/><path class="cls-1" d="M24.11,13.39s0,0,0,0v0h0a.13.13,0,0,1,0,.06Z"/><path class="cls-1" d="M35.05,13.42l0,0,0,0,0,0Z"/><path class="cls-1" d="M28.37,13.89l.05,0S28.41,13.89,28.37,13.89Z"/><path class="cls-1" d="M30.27,22.1a0,0,0,0,0,0,0,0,0,0,0,1,.06,0v0h-.07Z"/><path class="cls-1" d="M30.68,21.05h.07v0h-.07Z"/><path class="cls-1" d="M24.11,13.22a0,0,0,0,0,0,0l0,0h0A.13.13,0,0,1,24.11,13.22Z"/><path class="cls-1" d="M36.15,15v-.1a.08.08,0,0,1,0,.1Z"/><path class="cls-1" d="M25,12.3l-.05,0v0s0,0,0,0h0Z"/><path class="cls-1" d="M31.71,11.57l0,0,0,0s0,0,0,0Z"/><path class="cls-1" d="M22.66,16.6h0a0,0,0,0,0,0,0h0S22.67,16.6,22.66,16.6Z"/><path class="cls-1" d="M28.79,13.62l0,0s0,0,0,0h-.05Z"/><path class="cls-1" d="M29.48,16.94h0l0,0h0S29.48,16.93,29.48,16.94Z"/><path class="cls-1" d="M25.73,23.25l0,0a.1.1,0,0,0,0,0s0,0,0,0S25.72,23.28,25.73,23.25Z"/><path class="cls-1" d="M29.06,20.82h0a0,0,0,0,1,0,0h0S29.05,20.82,29.06,20.82Z"/><path class="cls-1" d="M24.17,13.25h0Z"/><path class="cls-1" d="M29.39,13.22v0l0,0v0Z"/><path class="cls-1" d="M28.65,13.72h0Z"/><path class="cls-1" d="M23.93,14.42v0h0v0Z"/><path class="cls-1" d="M24.22,16.54h0v0h0Z"/><path class="cls-1" d="M24.25,17.31v0a0,0,0,0,0,0,0v0s0,0,0,0Z"/><path class="cls-1" d="M35.92,17.28a0,0,0,0,0,0,0s0,0,0,0l0,0S35.93,17.27,35.92,17.28Z"/><path class="cls-1" d="M35.82,17.5h0a0,0,0,0,1,0,0h0Z"/><path class="cls-1" d="M28.38,17.67s0,0,0,0h0v0h0Z"/><path class="cls-1" d="M35.67,17.74h0l0,0h0Z"/><path class="cls-1" d="M35.23,18.62h0v0a0,0,0,0,1,0,0A0,0,0,0,0,35.23,18.62Z"/><path class="cls-1" d="M30,19.43l0,0v0s0,0,0,0a.06.06,0,0,1,0,0Z"/><path class="cls-1" d="M31,22.77h0a0,0,0,0,0,0,0h0Z"/><path class="cls-1" d="M26.13,23.07h0Z"/><path class="cls-1" d="M26.35,12.16l0,0h0Z"/><path class="cls-1" d="M27.68,12.4s0,0,0,0h0s0,0,0,0Z"/><path class="cls-1" d="M31.16,15.58h0s0,0,0,0l0,0Z"/><path class="cls-1" d="M30.75,15.92a0,0,0,0,1,0,0h0Z"/><path class="cls-1" d="M36.32,16.53v0h0Z"/><path class="cls-1" d="M35.11,13h0Z"/><polygon class="cls-1" points="25.08 12.51 25.09 12.5 25.09 12.51 25.08 12.51"/><path class="cls-1" d="M24.22,16.71v0h0s0,0,0,0Z"/><path class="cls-1" d="M22.08,12.15h0v0h0Z"/><path class="cls-1" d="M29.14,17h0s0,0,0,0a0,0,0,0,0,0,0Z"/><path class="cls-1" d="M22.6,17.23v0h0v0Z"/><path class="cls-1" d="M28.38,17.41h0Z"/><polygon class="cls-1" points="31.3 14.89 31.3 14.9 31.29 14.89 31.3 14.89"/><path class="cls-1" d="M35.8,17.63v0h0a0,0,0,0,1,0,0Z"/><polygon class="cls-1" points="31.88 11.46 31.88 11.46 31.89 11.46 31.88 11.46"/><path class="cls-1" d="M30.28,22.42h0v0Z"/><path class="cls-1" d="M22.69,17.84h0a0,0,0,0,1,0,0h0A0,0,0,0,1,22.69,17.84Z"/><path class="cls-1" d="M22.72,18h0v0Z"/><path class="cls-1" d="M22,18.42s0,0,0,0h0v0Z"/><path class="cls-1" d="M22.07,18.43H22l.08,0Z"/><path class="cls-1" d="M27.23,13.5l-.09,0v0s.06-.06.09-.09.08,0,.13,0a.49.49,0,0,0,0,.11l-.13.07Z"/><path class="cls-1" d="M31.43,10.38h.08l.09,0a.27.27,0,0,1-.09.15l-.05-.06-.05-.05,0-.07Z"/><path class="cls-1" d="M33.23,9.72a.05.05,0,0,1,0,0l-.17,0a0,0,0,0,1,0,0s0,0,0,0h.2A0,0,0,0,0,33.23,9.72Z"/><path class="cls-1" d="M32.4,10.05c0,.11,0,.11-.16.1S32.27,10.08,32.4,10.05Z"/><path class="cls-1" d="M30.15,11.31s0,.09,0,.14h0s0-.08,0-.12l.09,0Z"/><path class="cls-1" d="M28.79,12.24h.06l0,0v0h-.07Z"/><path class="cls-1" d="M28.8,12.33l.06,0v0l0,0Z"/><path class="cls-1" d="M27.22,13.51s.05,0,.08,0,0,.05-.07,0Z"/><path class="cls-1" d="M27.56,13.15c0,.08,0,.08-.1.06Z"/><path class="cls-1" d="M32,10.26c-.06,0-.08,0-.06-.1a.12.12,0,0,1,.05.1Z"/><path class="cls-1" d="M28,12.75h0c0,.05,0,.05-.09,0s0,0,.06,0Z"/><path class="cls-1" d="M32,10.26l.08,0-.06,0a.05.05,0,0,1,0-.08Z"/><path class="cls-1" d="M28.47,12.49l0,0C28.52,12.5,28.49,12.49,28.47,12.49Z"/><path class="cls-1" d="M27.68,13v.05s0,0,0,0a.25.25,0,0,0,0-.07Z"/><path class="cls-1" d="M26.94,13.73h0Z"/><path class="cls-1" d="M27.33,13.59h0Z"/><path class="cls-1" d="M28.68,12.33v0Z"/><path class="cls-1" d="M28.68,12.33h0Z"/><path class="cls-1" d="M27.63,10.47c.05,0,.05-.11.12-.14a1.67,1.67,0,0,0,.12-.13s.06,0,.11,0a.82.82,0,0,1-.17.2l-.14.11s0,0,0,0Z"/><path class="cls-1" d="M28.15,9.84a.13.13,0,0,0,0,.06l0,0a.45.45,0,0,1-.17.19s-.05,0-.06,0,0,0,0-.06l0,0a.13.13,0,0,0,.14-.15S28.11,9.85,28.15,9.84Z"/><path class="cls-1" d="M28.5,9.58s0,0,.05,0,0,0,0,0a1.46,1.46,0,0,0-.23.21s0,0,0-.06.09-.08.08-.15Z"/><path class="cls-1" d="M29.32,9.36l0,0h0l.06,0h0l0,.06Z"/><path class="cls-1" d="M29.69,9.58l.11-.05c0,.08-.07,0-.11.05Z"/><path class="cls-1" d="M29.6,8.73v0h0s0,0,0,0Z"/><path class="cls-1" d="M29.61,9.07h0l0,0h0Z"/><path class="cls-1" d="M29.16,9.73Z"/><polygon class="cls-1" points="29.57 8.67 29.57 8.68 29.56 8.68 29.57 8.67"/><path class="cls-1" d="M27.6,10.57h0a0,0,0,0,0,0,0h0Z"/><path class="cls-1" d="M27.64,10.47l0,0h0s0,0,0,0Z"/><path class="cls-1" d="M32.69,21.48l0,.07S32.67,21.53,32.69,21.48Z"/><path class="cls-1" d="M11.31,9.17,11.46,9a.82.82,0,0,0,.23-.29.19.19,0,0,0-.1.06l-.09.09L11.39,9,11.3,9l-.1.08s0,.06-.1.06,0,0,0,0a5.66,5.66,0,0,0,.44-.4,2.43,2.43,0,0,0,.38-.41s0-.06.07-.07A1.39,1.39,0,0,0,12.26,8s0,0,0-.07.12-.22.3-.24.2.09.28.16h0a.35.35,0,0,1,.25.14.32.32,0,0,0,.17.1c.11,0,.23.06.34.11l.28.15.1.07c.06,0,.13.09.19.15a.17.17,0,0,0,0,.07c0,.06,0,.11,0,.16s0,.1-.06.16L14.1,9,14,9.08c-.12.1-.23.2-.36.29a.4.4,0,0,1-.13.07,1.61,1.61,0,0,0-.48.27.67.67,0,0,1-.2.12l0,0c0,.08-.13.11-.19.16h0s-.05.05-.09,0-.08,0-.12,0a.21.21,0,0,0,0,.06l-.12,0s0,0,0,0-.08,0-.12.05l.12-.05a1.86,1.86,0,0,1,.33,0,.61.61,0,0,0,.18-.05,1.35,1.35,0,0,1,.33-.09,2.22,2.22,0,0,0,.37-.09l.69-.16.15,0a.33.33,0,0,0,0-.06.86.86,0,0,0,.28,0H15l.08,0a.09.09,0,0,0,.1,0,.28.28,0,0,1,.18,0c.07,0,.07,0,.1-.08s0,0,0,0l.12,0,0,0c0,.09.13.09.2.14a.12.12,0,0,0,.14,0s0,0,.06.05.14.1.16.19.16.11.26.08l.29.27,0,.07.14.17a1.05,1.05,0,0,1-.05.19l0,0c.07.1,0,.13-.08.18a1.41,1.41,0,0,1-.18.14.36.36,0,0,1,0,.1l-.12.11a.39.39,0,0,1-.1.08c-.05,0-.1,0-.13.07l-.06,0-.39.06a.4.4,0,0,0-.23-.12.22.22,0,0,1-.14-.1h-.17a.08.08,0,0,1,0,0,.17.17,0,0,0-.1-.13s-.09-.07-.16,0h0c-.09-.07-.2,0-.29,0l-.19,0a.2.2,0,0,1-.15-.06l-.07,0c-.05,0-.1,0-.14,0a2.06,2.06,0,0,1-.26,0c-.05,0-.11,0-.17,0s-.09,0-.14,0l-.07,0c-.08,0-.14.07-.22.08l-.22.06a0,0,0,0,0,0,.05l-.08,0s0-.07-.07-.05l-.13.05-.06,0c-.07,0,0-.06,0-.08a.09.09,0,0,0,.09,0s.05,0,.05,0h0l0,.05s-.07,0-.1,0a.44.44,0,0,0-.23.06s0,0,0,.06h0s-.06,0-.06,0h-.1v-.05h0a1.51,1.51,0,0,0-.29.13,1,1,0,0,1-.22.08c-.13,0-.13,0-.19.14v0l-.29.1a.19.19,0,0,0-.14.16.18.18,0,0,0,.19,0,.44.44,0,0,1,.2-.08s.08-.05.16,0,0,0,0,0a2,2,0,0,1-.34.14.31.31,0,0,0-.2.14c0,.07-.15.08-.23.07a.16.16,0,0,0-.1,0s-.07.06-.12.07a.17.17,0,0,0-.1,0l-.17.09a.49.49,0,0,0-.23.14.17.17,0,0,0-.19,0,2.85,2.85,0,0,1-.31.12,1.47,1.47,0,0,0-.22.1.39.39,0,0,1-.18.06l-.09,0c-.07.05-.16.07-.22.12s0,0-.06,0l-.08,0H8.54l0,.06-.25,0L8.14,13c-.1,0-.17.08-.28.05s0-.05,0-.06L8,12.94l.07,0a4.68,4.68,0,0,1,.45-.2s.09,0,.15,0,.19-.08.31-.11a1.74,1.74,0,0,0,.27-.14.19.19,0,0,1,.08,0,.23.23,0,0,0,.11,0,.24.24,0,0,1,.08-.06l.1,0a.15.15,0,0,0,.12-.12l0,0s0,0,0,0a.14.14,0,0,0,0-.06l0,0,0,0H9.7l-1,.38a2.84,2.84,0,0,1-.47.15c-.13,0-.25.06-.38.09h-.1l.08-.08a.38.38,0,0,0-.17.05,1.22,1.22,0,0,1-.24.1,1.54,1.54,0,0,1-.3,0H7.05s-.09,0-.14,0a.75.75,0,0,0-.32.13s0,.1.08.14-.15,0-.16.12l.06.06c0,.07,0,.07.1,0l.15,0c.08,0,.08,0,.12-.12h.17l-.15.1a.25.25,0,0,0,.13,0c.07,0,.13-.06.19-.07a.35.35,0,0,0,.15-.07.17.17,0,0,0,.1-.14s0,0,.06,0h0s0,.06,0,.09.05,0,.11,0,0,.06,0,.08a.32.32,0,0,1-.13.1.26.26,0,0,0-.13.06h0c0-.05-.09,0-.13,0l-.06,0a.74.74,0,0,0-.3.13h0a0,0,0,0,0,0,0h0a1.72,1.72,0,0,1-.44.19.71.71,0,0,0-.15.08.08.08,0,0,0,0,.09c0,.06,0,.1,0,.15H6.15a.12.12,0,0,0-.16,0,.07.07,0,0,0,0,0c0,.06,0,.1,0,.13s0,0,0,0-.06.08-.11.11-.12,0-.13.07,0,.06-.08.06l-.14.05s-.06,0-.1,0-.14,0-.16.11-.2,0-.3,0a.17.17,0,0,1-.1,0,.34.34,0,0,1-.12-.06.33.33,0,0,0-.18-.08l-.12-.2,0,0s0,0,0-.06A.71.71,0,0,1,4.24,14a.43.43,0,0,0,0-.14c.07-.06.15-.12.16-.21s.17-.09.24-.14l.13-.12A.32.32,0,0,1,5,13.27l0-.06a.37.37,0,0,1,.13-.12A.28.28,0,0,1,5.3,13l0,0L5.48,13a.59.59,0,0,0,0-.08l.06-.09a.43.43,0,0,0,.31-.14h.3a.87.87,0,0,0,.39-.07,2.62,2.62,0,0,1,.48-.13,3.09,3.09,0,0,0,.54-.17L8.29,12l.42-.16s0,0,0,0-.1,0-.14,0l.29-.18.15-.07.2-.07.05-.06L9,11.34s0-.06,0-.07-.06,0-.11,0v-.06l0,0-.06-.06a.2.2,0,0,1,0-.08l-.09,0-.27.09a.45.45,0,0,0-.12.06.46.46,0,0,1-.14.07s-.09,0-.11.07l0,0c-.1,0-.12.08-.2.09a.54.54,0,0,0-.2.1.85.85,0,0,1-.31.06.28.28,0,0,1-.23-.09s0,0-.05,0a.31.31,0,0,1-.15-.15.3.3,0,0,1,0-.16.86.86,0,0,0,0-.22c0,.1,0,.2-.05.3l-.07,0a1.27,1.27,0,0,1-.27-.3.51.51,0,0,1-.11-.44,1.62,1.62,0,0,0,0-.22.27.27,0,0,1,0-.13s0-.08.05-.11a.19.19,0,0,1,.16-.11.38.38,0,0,1,.23,0h.09a.47.47,0,0,1,.36-.18h0a1.7,1.7,0,0,0,.39,0h0a.7.7,0,0,1,.16-.1A.2.2,0,0,0,8,9.45a.45.45,0,0,1,0-.11.31.31,0,0,1,0-.08c0-.11,0-.17-.17-.19a.09.09,0,0,0-.07,0l-.11.05s0,0,0,0-.15.07-.23.11l-.09,0a2.64,2.64,0,0,0-.28,0s0,0,0,0a.09.09,0,0,1-.06,0,.23.23,0,0,0-.21,0s0-.09-.09-.11A.23.23,0,0,1,6.45,9l0,0c-.07,0-.07-.07-.09-.11a.59.59,0,0,0-.06-.14c0-.05,0-.11,0-.16l-.08-.13c0-.06,0-.13,0-.19a.08.08,0,0,0,0,0l-.07,0a.36.36,0,0,1,0-.2.23.23,0,0,0,0-.23l.08-.14-.11-.16a.17.17,0,0,1,.14-.14l-.05,0a.08.08,0,0,1,.06-.1S6.3,7,6.34,7s0-.12.11-.13a.88.88,0,0,1,.15-.12.34.34,0,0,0,.06-.12.13.13,0,0,1,.12,0l0,0A.17.17,0,0,1,7,6.75c0,.06.08.06.17,0h.06a.11.11,0,0,1,.1.09c.06,0,.11-.05.16,0l0,0c0-.06.09,0,.11-.09a.24.24,0,0,0,.2.09.14.14,0,0,0,.13-.13H8a.14.14,0,0,1,0-.06c0-.06,0-.13.06-.2a.53.53,0,0,0,0-.18.14.14,0,0,0,.08-.12c0-.12,0-.25,0-.38a.55.55,0,0,0-.05-.13s.06,0,0-.11a.2.2,0,0,1,0-.11.49.49,0,0,1,0-.12s0-.1,0-.16,0,0,0,0a.26.26,0,0,0,0-.15s0-.09,0-.14a.27.27,0,0,1,0-.23,0,0,0,0,0,0,0,.9.9,0,0,0,0-.16.16.16,0,0,1,0-.09c.05-.08.05-.09,0-.17s.09-.15,0-.23l.06-.11a.15.15,0,0,0,0-.06c-.06-.1,0-.18,0-.26s.07-.07.06-.12,0-.09,0-.13,0,0,0,0,0-.08,0-.13,0-.06,0-.06.09-.09.12-.15-.05-.08-.05-.12a.28.28,0,0,1,0-.15s0-.1,0-.14a.27.27,0,0,0,0-.13s0,0,0-.06a.2.2,0,0,0,0-.24.9.9,0,0,1-.14-.2s0,0,0-.06a.84.84,0,0,1,.05-.17,0,0,0,0,1,0,0c.09-.06.14-.16.26-.18a.57.57,0,0,1,.1-.19c.06-.06.12-.13.22-.12L9.2,1c.06,0,.12,0,.15,0l.06,0A.41.41,0,0,0,9.6.9a.09.09,0,0,1,.11,0s0,0,.07,0h.11c.08.09.22.11.33.16a.44.44,0,0,1,.23.19s0,.06.06.07,0,0,.05,0,.13.19.25.24l0,.05c.06.08.12.17.19.25a1.19,1.19,0,0,1,.18.33.13.13,0,0,0,0,.06,2.5,2.5,0,0,1,.19.52s0,0,0,.06,0,.13,0,.2a1.09,1.09,0,0,1,0,.18,4.87,4.87,0,0,1,0,.54,1.65,1.65,0,0,1-.11.36l-.15.32c-.1.21-.08.19.05.34l.2.22a1,1,0,0,0,.19.17,1.11,1.11,0,0,0,.19.09s.09,0,.13,0a1,1,0,0,0,.14,0l0,.07a.32.32,0,0,0,.21-.1c.06,0,.09,0,.12.08s0,0,.1,0l0,.05.06,0,.14-.07a.5.5,0,0,0,.12.13c.05,0,.12,0,.16,0s.12,0,.16,0l.19.19c.08,0,.1.07.16.1l0,0c0,.09.11.1.16.17l.06,0c.08,0,.09,0,.09.09a1.06,1.06,0,0,0,.09.39s.05.08.08.12,0,0-.06.08l0,.09.07.07c0,.1,0,.2-.05.3l-.07,0s-.08,0-.12,0a.71.71,0,0,1-.14,0l0,.08h0l-.07,0a.11.11,0,0,0-.09,0c-.06,0-.11,0-.15,0s-.05.11-.15.1l0-.07-.09,0c-.05,0-.11,0-.16,0h-.06a.53.53,0,0,0-.41,0h0a.52.52,0,0,0-.3.11L12,7.4l-.51.22a1.67,1.67,0,0,0-.47.31.15.15,0,0,1-.11.06c-.06,0-.14.07-.18.13l-.15.16,0,.06,0,.12a1.29,1.29,0,0,1-.12.38.11.11,0,0,0,0,.05,1.35,1.35,0,0,1-.06.34,1.87,1.87,0,0,0,0,.41s0,.08,0,.13a.5.5,0,0,1,0,.12l0,.12a.18.18,0,0,0,0,.13.19.19,0,0,1,0,.08,1.07,1.07,0,0,0,.06.29.49.49,0,0,1,0,.12s0,.1,0,.15l.07,0,.23-.11.13-.07h0v.09a1.36,1.36,0,0,0,.3-.13c0-.05,0-.08-.05-.11s0-.07,0-.1a.42.42,0,0,1,.26-.12.24.24,0,0,0,.18-.09c-.05-.11,0-.19.11-.27-.09,0-.16,0-.24,0s0-.09,0-.14l-.19.06.09-.11-.08,0s0,0,0,0l.06-.07a2.11,2.11,0,0,0,.23-.19.27.27,0,0,0,.08-.07l-.08,0,.08-.1c0-.06-.1,0-.13,0a1.75,1.75,0,0,1-.36.19l0-.05,0,0,0,0a.08.08,0,0,0,0,0ZM12.5,11s0,0,0,0,0,0,0,0,.07,0,.1,0l0,0h0l0,0S12.54,11,12.5,11ZM11.09,4.78a.61.61,0,0,0-.14.31,1.84,1.84,0,0,0,0,.62h0l0,0,.11-.1a.26.26,0,0,1,.21-.08h.11s0,0,0,0l0,0c0-.08-.07-.12-.11-.18s0,0,0,0l.1.08a.14.14,0,0,0,0-.13C11.3,5,11.21,4.92,11.09,4.78ZM8.05,11l0-.19c0-.07,0-.09-.11-.09a.8.8,0,0,1-.27,0H7.58c-.06.08-.07.08-.06.13a.33.33,0,0,0,.12.21A.31.31,0,0,0,8.05,11ZM10.22,12a.25.25,0,0,0-.17.08C10.12,12.12,10.12,12.12,10.22,12Zm2.6-1A.35.35,0,0,0,13,11,.19.19,0,0,0,12.82,11.07Zm-.73-.43c.05,0,.05,0,.09,0Zm.68.33s0,0,0,0,0,0,0,0v0Zm.29-.1h0Zm-.09,0h0Zm.6,0Z"/><path class="cls-1" d="M9.86,21.42l.9.46c.2.09.41.16.61.24a.62.62,0,0,0,.18,0c.09,0,.16,0,.16-.09s0-.15,0-.23a.41.41,0,0,0,0-.22.49.49,0,0,1,0-.18.17.17,0,0,0,0-.07.28.28,0,0,1,0-.18l-.08-.05a.22.22,0,0,0,0-.23s0,0,0,0a.14.14,0,0,0,0-.17s.08,0,0-.08a.2.2,0,0,1,0-.07.48.48,0,0,0,0-.29.71.71,0,0,0,0-.14.28.28,0,0,1,0-.13.92.92,0,0,0,0-.33l-.29-.06-.09,0s0,0,0,0a.39.39,0,0,0-.18-.06l0,0a1.51,1.51,0,0,0-.46-.13.15.15,0,0,0-.13,0,.41.41,0,0,1-.16,0l-.08-.07s0,0-.06,0a.19.19,0,0,1-.18-.13.11.11,0,0,1,0-.06l-.11,0c-.06-.07-.11-.15-.06-.24a.35.35,0,0,0-.05-.08.43.43,0,0,1,0-.05.5.5,0,0,0-.06-.28.2.2,0,0,1,0-.21.55.55,0,0,1,.09-.3.19.19,0,0,0,0-.13h.1c.07-.07,0-.17.11-.23a.46.46,0,0,1,.1-.24.19.19,0,0,1-.06-.19c-.08,0-.09.07-.14.09H9.78a.27.27,0,0,1-.21.14c-.05,0-.09.06-.11.1a.15.15,0,0,1-.06.09.14.14,0,0,0-.06.11,2,2,0,0,0-.05.24s0,0,0,0a.36.36,0,0,1,0,.2.16.16,0,0,0,.06.12.27.27,0,0,1,.06.12.06.06,0,0,1,0,.06.09.09,0,0,0,0,.11.25.25,0,0,1,0,.09,0,0,0,0,1,0,0c-.07.05,0,.12-.07.17s0,.17,0,.25-.05.15-.07.22H9.33a.19.19,0,0,1-.05.14s0,.05,0,.07,0,.08-.16,0,0-.06,0-.08a.59.59,0,0,0,.12-.35v-.07s0-.06-.07-.09L9,19A.43.43,0,0,1,9,19a.15.15,0,0,0-.16.07v.32s0,0,0,0a.44.44,0,0,1,0-.16,1.94,1.94,0,0,1,0,.24v.17a.28.28,0,0,1-.07.16s0,.06,0,.09h.06a1.06,1.06,0,0,1,0,.19.14.14,0,0,1,0,.09c-.08.05-.07.13-.07.21h0a.54.54,0,0,1,0,.31c0,.1,0,.2,0,.29a2.66,2.66,0,0,0,0,.28l0,.38a1.07,1.07,0,0,0,0,.25s0,0,0,0,0,.11,0,.16l0,.08.08,0c.05,0,.08,0,.07.07s0,.08,0,.11a.24.24,0,0,1,.1.27.21.21,0,0,0,.1.24s0,.05.05.08a.06.06,0,0,1,0,.08h0a.22.22,0,0,1-.16.16s0,.08,0,.12a.26.26,0,0,0-.09.17c-.08,0-.17,0-.26.08a.47.47,0,0,1-.27.06.24.24,0,0,1-.22,0l-.14,0-.15-.23-.07,0s0,0,0,0,0-.09-.08-.12a.59.59,0,0,1-.2-.3.16.16,0,0,0,0-.1.27.27,0,0,1-.09-.12s0-.07-.08-.11l0-.07a.19.19,0,0,0-.07-.14s0-.08-.07-.1,0,0,0,0a1,1,0,0,0-.14-.22.29.29,0,0,1-.07-.2.36.36,0,0,0-.07-.24.19.19,0,0,1,0-.18.25.25,0,0,0,0-.12c0-.17,0-.32,0-.48a3.21,3.21,0,0,1,0-.62c0-.33,0-.65.09-1s.07-.58.1-.87,0-.41,0-.61v-.44c0-.23,0-.47,0-.7s0-.24,0-.35A.16.16,0,0,1,7,16a.21.21,0,0,0,0-.1c0-.07,0-.14,0-.22l.11.2s0,0,0,.06,0,.16,0,.25a.34.34,0,0,0,0,.1.58.58,0,0,0,0-.18c0-.05,0-.1,0-.13s0,0,0-.06a2.26,2.26,0,0,0,0-.26,1.64,1.64,0,0,1,0-.38c0-.1,0-.18-.1-.23s-.07-.1-.07-.16a2,2,0,0,1,0-.34l0-.05a.32.32,0,0,0,0-.19c0-.1,0-.11.11-.13l.12,0h.11l.26,0c0-.05,0-.08.11-.1a2,2,0,0,1,.41-.13.58.58,0,0,1,.41,0c.06,0,.08.08.12.11a.06.06,0,0,0,.06,0s0,0,0,0,0,0,0-.08.12,0,.13-.08l0,0a1.41,1.41,0,0,0,.23-.18,2,2,0,0,1,.3-.21,1.36,1.36,0,0,1,.21-.1.46.46,0,0,0,.21-.18A1.63,1.63,0,0,1,10.1,13l.05-.05.16-.16a.15.15,0,0,1,.09-.06,2.74,2.74,0,0,0,.51-.27,2,2,0,0,0,.24-.16,1.34,1.34,0,0,0,.3-.21c.09,0,.13-.1.22-.09s0,0,.05,0a.06.06,0,0,1,.08,0l.11-.15.06,0a.28.28,0,0,0,.12,0c.05,0,.06.06.12.06h.14a.45.45,0,0,1,.22.08.18.18,0,0,0,.16,0,.15.15,0,0,1,.17,0H13a.08.08,0,0,1,0,0,.08.08,0,0,0,.08.05.32.32,0,0,1,.2.13l.06.08a.38.38,0,0,1,.1.35.1.1,0,0,1,0,.08,1.14,1.14,0,0,0-.19.19s0,0,.06,0a.35.35,0,0,0,.11,0c.1,0,.12.06.12.14a.32.32,0,0,1,0,.14l-.07.14,0,0a.25.25,0,0,0-.2-.07l-.33,0s0,.05-.07.08l0,.08-.23,0-.09.16h0s0,.07-.05.11,0,.06,0,.1,0,.09.07.09a.59.59,0,0,0,.29-.1s0,0,0,0,0,0,.06,0l.09,0L13,14s0,.06.07,0,.05,0,.09,0,0-.09.07-.12,0,0,.07,0a.32.32,0,0,0,0-.09c0-.05.09-.05.09-.1l0-.12c.06,0,.07,0,.07.06v.09a.28.28,0,0,0,0,.09.41.41,0,0,1-.05.19.58.58,0,0,0,0,.14.6.6,0,0,1-.06.22.79.79,0,0,0-.05.22.64.64,0,0,1,0,.17.73.73,0,0,0-.07.29c0,.11,0,.23,0,.34a.28.28,0,0,0,0,.15.63.63,0,0,1,.1.3l-.13.11v.25a.16.16,0,0,0,0,.09.28.28,0,0,1,.06.25.92.92,0,0,0,0,.29s0,0,0,.06,0,0,0,.06,0,0,0,.05.08,0,.07.09a.62.62,0,0,0,0,.27c0,.12,0,.24,0,.37a.23.23,0,0,1-.05.24,1.35,1.35,0,0,1,0,.18.49.49,0,0,1,0,.17,1.28,1.28,0,0,0,0,.39.55.55,0,0,1,0,.18,3.18,3.18,0,0,0,0,.62c0,.25,0,.49,0,.73v.17a.76.76,0,0,0,0,.15,1.08,1.08,0,0,0,0,.18,2.9,2.9,0,0,1,0,.51c0,.13,0,.27,0,.4a3.86,3.86,0,0,1,0,.68c0,.14,0,.27,0,.41l0,.27v.05c.08.05,0,.11,0,.17s0,.25-.07.37A1.4,1.4,0,0,1,13,24a2.39,2.39,0,0,1-.12.22,1.12,1.12,0,0,1-.21.17s-.05.06-.1.05a.23.23,0,0,1-.06-.18.43.43,0,0,1,0-.25c0-.06-.06-.08-.13-.08s-.12,0-.25-.08l-.12,0c0-.07-.05-.14-.08-.22l-.1,0a.35.35,0,0,1-.31-.16,1.64,1.64,0,0,0-.31-.28,2.8,2.8,0,0,1-.41-.35,1.39,1.39,0,0,0,.06-.13l-.06-.12-.06-.11h.09a0,0,0,0,0,0,0l0-.13.21.06a.42.42,0,0,0-.32-.24.23.23,0,0,1-.19-.15h.05l.19.08.05,0h0s0,0-.05,0-.08-.09-.2-.07a.17.17,0,0,0-.08-.13l-.32-.19-.06-.05-.23-.16s0,0,0-.06Zm-1.31-.55a.07.07,0,0,0,0,.1s0,.05.08,0a2.44,2.44,0,0,1,0-.27h0s.08-.08,0-.14,0,0,0,0,0,0,0,0,0-.06,0-.08,0,.05-.06,0a1,1,0,0,0-.05.18s0,0,0,0,0-.13,0-.18,0-.1,0-.16a.18.18,0,0,0,0,.16s0,0-.06,0-.06.31-.09.47a.19.19,0,0,0,0,.14A1.12,1.12,0,0,0,8.46,21a.69.69,0,0,0,0-.13s0-.09,0-.12l0,0s0,0,.06,0,0,.1,0,.13Zm-.34-.14s0,0,0,0a.58.58,0,0,1-.12.25l0,0,0,.05,0,0s0,.06,0,.11a4.07,4.07,0,0,0,.07-.42v0h0S8.21,20.72,8.21,20.73Zm1.21-6.15a.36.36,0,0,0,0,.23s0,.06,0,.08a.14.14,0,0,0,0,.19.26.26,0,0,1,0,.29l-.07.05s0,.08,0,.12,0,.08,0,.1-.06,0-.1.07v.23l.12-.06a.72.72,0,0,1,.2-.09l.19,0a1.17,1.17,0,0,1,.32,0,.61.61,0,0,0,.19,0l.23-.05a1.63,1.63,0,0,1,.54,0l.06,0,.08.06c.09,0,.17,0,.25,0a.2.2,0,0,1,.11.16s0,0,0,.07h0l0,0c0-.06.08-.12,0-.2s0-.09,0-.14a.67.67,0,0,0-.07-.18s0-.07,0-.11a.2.2,0,0,0,0-.11c0-.13,0-.26,0-.4a.59.59,0,0,0,0-.13s-.06-.07-.1-.1l0,0c0-.06-.1-.12-.1-.19a1.27,1.27,0,0,0,0-.2.55.55,0,0,1,0-.18.17.17,0,0,0,0-.1.11.11,0,0,1,0-.05s0,0,0,0,0,0,0,0-.11,0-.16,0,0,.07-.07.09-.07.06-.11.09A.56.56,0,0,1,11,14c-.1.08-.11.19-.19.26a.24.24,0,0,1-.11.15.09.09,0,0,0,0,.06s0,.06-.07.09l-.06.08c0,.05-.08,0-.11,0l-.05,0-.06,0a1.29,1.29,0,0,1-.39,0l-.41-.13Zm-.89,1.49a.32.32,0,0,0,.15-.18.5.5,0,0,1,.05-.13.51.51,0,0,0,.11-.22s0,0,0,0A.21.21,0,0,0,9,15.33l.09,0a.17.17,0,0,0,0-.12.14.14,0,0,1,0-.11.65.65,0,0,0,0-.19c-.05,0-.1,0-.14,0a.5.5,0,0,1-.12,0c-.11,0-.22,0-.27.14a.57.57,0,0,0-.09.38,1.09,1.09,0,0,1,0,.18.19.19,0,0,0,0,.08l.08,0c0,.08,0,.15-.05.22S8.53,16,8.53,16.07ZM11.69,18l0-.08v-.13a1.2,1.2,0,0,0,0-.38s0-.06,0-.08a.6.6,0,0,0-.41.27s0,0,0,0,0,.1-.12.09l0,0a.44.44,0,0,1-.08.11A.11.11,0,0,0,11,18a.22.22,0,0,0,.18,0,.39.39,0,0,0,0-.06l.23-.06v.07l.14.07C11.59,18,11.63,18,11.69,18Zm-3.4-1.77c-.08,0-.09-.05-.15-.12s0-.07-.08-.07c-.06.18,0,.32.12.52A3.19,3.19,0,0,1,8.29,16.23ZM9,14.32a.67.67,0,0,0-.19-.22c-.06.05-.07.07,0,.09l.18.14Zm-.53,7,.09-.1-.09,0Zm.07,0a.13.13,0,0,0,0,0h0a0,0,0,0,1,0,0A.13.13,0,0,0,8.56,21.28Zm.86-6.08h0s0,0,0,0h0a0,0,0,0,0,0-.06Zm-.58,4.29v0h0l0,0S8.84,19.5,8.84,19.49Zm-.3,2h0s0,0,0,0S8.54,21.45,8.54,21.44Z"/><path class="cls-1" d="M4.19,15.1l-.09.11s.07,0,.07,0a.42.42,0,0,1,.22-.13l.05,0s0-.06,0-.07.13-.12.23-.14,0,0,0,.09l.08,0,.11-.09a.47.47,0,0,1,.1.2.53.53,0,0,1,0,.22s0,0,0,.07,0,.05.07.07a.23.23,0,0,1-.1.16c-.07.05-.11.12-.19.16a.05.05,0,0,0,0,0,.66.66,0,0,1-.18.23c-.05,0-.08.1-.13.15a2,2,0,0,0-.2.21,1.86,1.86,0,0,1-.19.22s-.06,0-.06.08-.05.08-.1.11-.13.12-.19.18a.6.6,0,0,0-.08.08,1.06,1.06,0,0,1-.15.15.78.78,0,0,0-.22.26.16.16,0,0,1-.08.08s0,0-.06.05a.27.27,0,0,0-.1.19A.33.33,0,0,1,3,18a1.82,1.82,0,0,0-.15.23l-.15.08-.13.1a1.6,1.6,0,0,0,0,.21c0,.06,0,.13,0,.19a.46.46,0,0,0,0,.26c0,.08,0,.16-.07.23l-.12.11-.1.06-.12,0a.24.24,0,0,0-.13.08s0,.08,0,.11,0,0,0,0a.28.28,0,0,0-.15.13.15.15,0,0,1-.1.09c-.06,0-.12.05-.19,0a.27.27,0,0,0-.26,0H1a.67.67,0,0,1-.34-.12l0-.08c0-.08-.09-.1-.13-.16a1.45,1.45,0,0,1-.1-.18c-.11,0-.12-.11-.19-.17S.23,19.07.22,19s0-.1,0-.15,0-.07,0-.09a.23.23,0,0,1-.09-.18A.6.6,0,0,0,0,18.4a.17.17,0,0,1,0-.1c.06-.07.07-.16.15-.23a0,0,0,0,0,0,0c0-.05,0-.1.06-.13a1.42,1.42,0,0,0,.12-.13c0-.05.09-.06.13-.11s.05,0,.09,0,0-.07.09-.05l.08-.05s.08,0,.1-.07l0,0c.09,0,.1-.1.17-.13a.11.11,0,0,0,0-.06c0-.06,0-.11,0-.16A.15.15,0,0,1,1.26,17s0,0,.06-.05a.21.21,0,0,0,.25,0,.36.36,0,0,0,.12-.08c.1-.07.19-.15.29-.21a1.4,1.4,0,0,0,.17-.09.81.81,0,0,0,.12-.14l.09-.06.32-.24A.7.7,0,0,1,3,16c.05,0,.09,0,.1-.06H3.05s.05-.06.08-.07a.27.27,0,0,1,.13,0,.18.18,0,0,1,.15-.17s0,0,0-.05,0-.07.08-.06.16-.06.19-.13a.09.09,0,0,1,.06-.06A1.06,1.06,0,0,0,4,15.31.18.18,0,0,0,4,15.26s-.08,0-.11,0,0,0,0,0,.14-.13.26-.12Z"/><path class="cls-1" d="M1.85,8.49c-.07,0-.11,0-.13-.06s0-.06-.09-.07l-.06,0a.14.14,0,0,0,0-.06l0,0c-.08,0-.17-.07-.17-.16l0,0c-.07,0-.1-.06-.13-.12a1.54,1.54,0,0,0-.13-.12s-.05,0-.08-.06A.13.13,0,0,1,1,7.7s0-.06,0-.1L.86,7.51c0-.07,0-.13.06-.2l-.06,0a.38.38,0,0,0,0-.1C.9,7.06,1,7,1,6.88s0,0,0,0,.06-.11.11-.14a.35.35,0,0,0,.16-.26v0l.09,0s0-.07,0-.09a.17.17,0,0,0,.11-.08s0,0,.05,0,.06-.06.1-.06,0,0,.06-.07a.49.49,0,0,0,.44-.15s0,0,.06,0,.16-.06.25-.08a.39.39,0,0,1,.26,0h.12a1.12,1.12,0,0,1,.63,0A.74.74,0,0,1,3.81,6,1.1,1.1,0,0,1,4,6.3a.29.29,0,0,1,0,.09.76.76,0,0,0,.06.16c-.11.08-.06.17,0,.26a.13.13,0,0,0,0,.13A.21.21,0,0,1,4,7.11a.05.05,0,0,0,0,0,.6.6,0,0,1-.1.25l0,.09a1.33,1.33,0,0,0-.05.34c0,.12,0,.24,0,.36a1.69,1.69,0,0,1,0,.23s0,.06,0,.08,0,.14,0,.21a.23.23,0,0,0,0,.14s0,0,0,0a.33.33,0,0,1-.08.28.2.2,0,0,1-.22.07h0a.44.44,0,0,0-.28,0C3,9.11,3,9.11,2.93,9.09a.15.15,0,0,0-.07-.16l-.11,0a.87.87,0,0,1-.1-.08.09.09,0,0,0-.1,0l-.06,0c-.07,0,0-.08,0-.11a.65.65,0,0,1-.21-.07.12.12,0,0,0-.1,0h0C2,8.66,1.87,8.61,1.85,8.49Zm1.6-1.64s0-.11.11-.14.09-.08.11-.14,0-.12.06-.17,0-.05,0-.06l-.12-.1a.23.23,0,0,0-.19.06c-.07.06-.12.15-.23.19h0L3,6.62a.38.38,0,0,0-.11.11s0,0,0,0,0,0,0,0l.12,0A.44.44,0,0,1,3.45,6.85Zm-.25.42s0-.08,0-.12A.2.2,0,0,0,3.14,7a.9.9,0,0,0-.22-.06.1.1,0,0,0-.09,0A.07.07,0,0,0,2.78,7a.16.16,0,0,1,0,.17l0,0,0,.06c0,.08.08.13.13.18s.09,0,.13,0h0s.08,0,.1,0,.06-.11.1-.17Z"/><path class="cls-1" d="M2.13,10.83a.49.49,0,0,0,.23.14l.55.22a.27.27,0,0,1,.12.09l.17.25,0,.06a.93.93,0,0,0,.12.33.13.13,0,0,1,0,.06.22.22,0,0,0,.08.21.23.23,0,0,1,.06.19s0,.08,0,.12a.3.3,0,0,1,0,.1s0,.07-.06.08,0,.17,0,.25l.07.09-.13,0c-.07.1,0,.16.06.25a.36.36,0,0,1-.14.24H3.15l-.09,0a.61.61,0,0,1-.37.17.24.24,0,0,0-.17-.09.12.12,0,0,0-.08,0,.12.12,0,0,1-.16,0h0L2,13.67c-.06,0-.1-.07-.15-.11l-.09,0-.06,0c0-.08-.1-.11-.16-.16l.05-.12a0,0,0,0,0,0-.06c-.07,0-.09,0-.12-.08L1.37,13v-.12a.18.18,0,0,0-.09-.21l-.12-.09h0s0-.06,0-.09,0-.08,0-.12-.13.1-.21,0,0-.13-.05-.2,0,0,0,0,0,0,0-.08a.17.17,0,0,1,0-.24.53.53,0,0,0,0-.12.34.34,0,0,0,0-.1.58.58,0,0,0,0-.14s0,0,0-.06a.17.17,0,0,0,0-.17.09.09,0,0,1,0-.11L1,11.08a1.06,1.06,0,0,0,.17-.2l0,0,.14-.08s0,0,.05,0a.22.22,0,0,0,.2-.11l.1.07.1.07h.1A.29.29,0,0,0,2.13,10.83Z"/><path class="cls-1" d="M9.68,21.13s0,0,0,0a1.31,1.31,0,0,1-.21-.27.54.54,0,0,1-.07-.13h.09a.19.19,0,0,0,.09.16s.06.08.09.11a.11.11,0,0,1,0,.16Z"/><path class="cls-1" d="M11.57,11.59l0-.06s0,0,.05,0l.21-.06c.06,0,.11-.06.18-.08h0s0,0,0,0l-.15.07Z"/><path class="cls-1" d="M9.22,19.71s0,.09,0,.13a1,1,0,0,0,0,.17h0a1.06,1.06,0,0,1,0-.25s0,0,0-.05Z"/><path class="cls-1" d="M9.87,21.42h0a1,1,0,0,1-.17-.18l0,0a.33.33,0,0,0,.09.11.31.31,0,0,0,.09.07s0,0,0,.05Z"/><path class="cls-1" d="M9.68,21.13s.08,0,.12,0a.34.34,0,0,1,.1.13l-.06,0-.11-.09-.05,0Z"/><path class="cls-1" d="M12.28,11.27h0c.05,0,.09-.09.17,0a.15.15,0,0,1-.12.08A0,0,0,0,1,12.28,11.27Z"/><path class="cls-1" d="M7.74,12.85a.17.17,0,0,1-.16.11h0c0-.07.06-.13.15-.11Z"/><path class="cls-1" d="M9.22,20.12a1.42,1.42,0,0,1,0,.16h0c0-.05,0-.1-.07-.16Z"/><path class="cls-1" d="M11.3,9.24l0,0h0c0-.06.06-.08.09-.11Z"/><path class="cls-1" d="M12.25,4.36l0,0s0,0,0,0,0,0,0,0,0,0,0,0Z"/><path class="cls-1" d="M9.31,19.84V20A.09.09,0,0,1,9.31,19.84Z"/><path class="cls-1" d="M12.7,13.73s0,0,0,0,0,0,0,0,0,0,0,0S12.71,13.72,12.7,13.73Z"/><path class="cls-1" d="M7.11,15.43l0,0v0s0,0,0,0Z"/><path class="cls-1" d="M12,11.32v0s0,0,0,0a0,0,0,0,1,0,0Z"/><path class="cls-1" d="M9.3,20.47s0,0,0,0v0s0,0,0,0S9.3,20.49,9.3,20.47Z"/><path class="cls-1" d="M4.2,15.11s0,0,0,0h0l0,0h0Z"/><path class="cls-1" d="M10.09,21.36a.17.17,0,0,1,0,.05h0l0,0Z"/><path class="cls-1" d="M11,10.58l.07-.05v0l-.06,0Z"/><path class="cls-1" d="M12.46,13.7l0,0s.05,0,0,0l-.08,0Z"/><path class="cls-1" d="M12.45,11.32v0l0,0h0Z"/><path class="cls-1" d="M12.14,11.3h0Z"/><path class="cls-1" d="M7.58,13h0l0,0h0v0Z"/><path class="cls-1" d="M7.58,13v0h0v0h0Z"/><path class="cls-1" d="M12.19,3.67h0Z"/><path class="cls-1" d="M12.84,13.65v0h0l0,0Z"/><path class="cls-1" d="M12.87,13.59s0,.05,0,.06h0s0-.05,0-.05Z"/><path class="cls-1" d="M8.51,11.85h0Z"/><polygon class="cls-1" points="9.34 19.7 9.32 19.7 9.33 19.69 9.34 19.7"/><path class="cls-1" d="M11.88,11.53h0Z"/><path class="cls-1" d="M11.77,11.38v0h0Z"/><path class="cls-1" d="M12.87,13.6h0l0,0v0s0,0,0,0Z"/><path class="cls-1" d="M6.88,13.49h0v0Z"/><polygon class="cls-1" points="9.5 21.06 9.49 21.07 9.48 21.06 9.49 21.05 9.5 21.06"/><path class="cls-1" d="M10.32,21.93l0,0h0s0,0,0,0Z"/><path class="cls-1" d="M10.32,21.93s0,0,0,0h0s0,0,0,0Z"/><path class="cls-1" d="M10.37,22a.08.08,0,0,1,.08,0h0l-.08,0Z"/><path class="cls-1" d="M10.54,22h-.09s.06,0,.09,0Z"/><path class="cls-1" d="M7.2,13s-.09,0-.13,0Z"/><path class="cls-1" d="M7.2,13.21h0a0,0,0,0,1,0,0S7.2,13.2,7.2,13.21Z"/><path class="cls-1" d="M7.2,13.12s0,0,0,0h0Z"/><path class="cls-1" d="M11.3,5.2l-.07-.07S11.29,5.14,11.3,5.2Z"/><path class="cls-1" d="M11.2,5.06a0,0,0,0,0,0,0s0,0,0,0Z"/><path class="cls-1" d="M8.55,20.87h0v0l0,0Z"/><path class="cls-1" d="M60.92,1.44v20H58.87v-1H44.28v1h-2v-20ZM58.87,18.52V3.35H44.28V18.52ZM57.22,8.78a17.33,17.33,0,0,1-2.39,5.4c.38,1,.87,1.6,1.45,1.72.27.09.47-.85.61-2.26a7.35,7.35,0,0,0,1.31,1c-.31,2.6-1.25,3.49-2.54,3a3.45,3.45,0,0,1-2-1.9A13.53,13.53,0,0,1,51,18a9.32,9.32,0,0,0-1.16-1.31,11.68,11.68,0,0,0,1.72-1.23c-2.19.37-4.44.8-6.22,1.12L45.08,15c1.63-.23,4.06-.61,6.47-1l.05,1.41A10.7,10.7,0,0,0,52.94,14a33,33,0,0,1-1.1-6.36H45.31V6h6.4c-.05-.73-.09-1.46-.13-2.19h1.71c0,.73.07,1.48.12,2.19h3.14a8.08,8.08,0,0,0-2.21-1.57l1-1A9,9,0,0,1,57.58,5l-1,1H58V7.6H53.54a42.23,42.23,0,0,0,.65,4.47,15.7,15.7,0,0,0,1.38-3.63Zm-6.29,0v4.38H46V8.8ZM49.48,10h-2.1v2h2.1Z"/><path class="cls-1" d="M70.32,2c-.6,1.89-1.34,4.15-2,6a7.67,7.67,0,0,1,1.74,4.81,3.44,3.44,0,0,1-.9,2.79A2.63,2.63,0,0,1,68,16a6.43,6.43,0,0,1-1.4,0,4.49,4.49,0,0,0-.45-1.75,10.42,10.42,0,0,0,1.09,0,1.18,1.18,0,0,0,.63-.2,2.05,2.05,0,0,0,.42-1.51,6.87,6.87,0,0,0-1.71-4.4c.53-1.53,1.07-3.42,1.45-4.93h-2.3v18H64v-20h4.78L69,1.28Zm2.59,6a11.12,11.12,0,0,0,.78-1.23,21.89,21.89,0,0,0-1.76-1.6A14.69,14.69,0,0,1,70.41,7a8.63,8.63,0,0,0-1.29-1.07A12.2,12.2,0,0,0,72.53.46l1.61.36c-.16.46-.34.89-.52,1.33h2l.29-.07L77,2.46l-.11.48L78,2.67v-1h3.86l.35-.09,1.16.69a17.66,17.66,0,0,1-2.83,5.22,10,10,0,0,0,3.26,3.19,5,5,0,0,0-1.21,1.48A10.9,10.9,0,0,1,80,9.72v1.34H73.33v-1a12.06,12.06,0,0,1-2.32,2,5.75,5.75,0,0,0-1.07-1.3,9.82,9.82,0,0,0,2.75-2.49c-1,.19-1.92.35-2.86.48l-.22-1.34c.94-.09,2-.23,3.26-.37Zm1.38,8.25a27.51,27.51,0,0,1-3.05,4.15,14.27,14.27,0,0,0-1.65-1.09,18.35,18.35,0,0,0,2.83-3.69Zm3.44-1.61v6.66h-2V14.67H71.21V12.93H82.26v1.74ZM72.91,3.58l-.27.48c.58.41,1.21,1,1.74,1.41a16.29,16.29,0,0,0,.69-1.89Zm6.83,5.8a19.84,19.84,0,0,1-2.88-6.21,17.48,17.48,0,0,1-3,6.21ZM78.51,3.12a19.34,19.34,0,0,0,1.12,2.79A18.05,18.05,0,0,0,81.1,3.12Zm2.1,12.32c1,1.16,2.45,2.8,3.12,3.76l-1.58,1.07a47.26,47.26,0,0,0-3.06-3.9Z"/><path class="cls-1" d="M105.2,6.77V8.32h-3.84l-.18,1.92H88.42l.25-1.92H85.14V6.77h3.73L89.09,5h12.58l-.17,1.82Zm-6.83,11.5c2.28.59,4.6,1.32,6.12,1.84l-1.41,1.35c-1.56-.61-4.19-1.5-6.74-2.21l.87-1H92.68l1.32.91a25.43,25.43,0,0,1-7.36,2.26A15,15,0,0,0,85.52,20a27.58,27.58,0,0,0,6.38-1.71H88.09V11.06h14.23v7.21ZM87.71,6.11H85.83V2.35h8.35A15.89,15.89,0,0,0,93.35.8L95.14.27a10.37,10.37,0,0,1,1.2,2.08h8.15V6.11h-2V4H87.71Zm2.39,7h10.12v-.87H90.1Zm0,2h10.12v-.9H90.1Zm0,2h10.12v-.92H90.1Zm.31-8H94c0-.32.09-.64.12-1H90.52Zm.38-3L90.68,7h3.61l.07-.87Zm8.61,3,.09-1H95.9c-.05.34-.09.66-.12,1Zm.24-3H96.1L96,7h3.57Z"/><path class="cls-1" d="M115,17.77a18.9,18.9,0,0,1-6.65,2.94,8.33,8.33,0,0,0-1.25-1.55A18.48,18.48,0,0,0,113.48,17Zm11.67-3.47v1.78h-8.79v5.29h-2V16.08h-8.66V14.3h8.66V12.93h-6.58V11.34h6.58V10h-7.68V8.3h4.49a12.88,12.88,0,0,0-1-2L113,6h-5.69V4.33h3.32A16.76,16.76,0,0,0,109,1.25l1.81-.63a15.92,15.92,0,0,1,1.79,3.26l-1.18.45h2.49V.41h2V4.33H118V.41h2V4.33h2.43L121.56,4A20.33,20.33,0,0,0,123.12.66l2.14.57a34.32,34.32,0,0,1-1.85,3.1h3.19V6h-5.84l1.74.46c-.49.68-1,1.3-1.45,1.82h4.72V10h-7.89v1.37h6.85v1.59h-6.85V14.3ZM113.7,6a8.68,8.68,0,0,1,1,2l-1,.27h6.09l-.8-.25a18.21,18.21,0,0,0,1.25-2Zm6.74,10.88c2,.73,4.69,1.82,6.18,2.55l-1.38,1.24c-1.38-.71-4.11-1.92-6.14-2.72Z"/><path class="cls-1" d="M132.34,10.9A15.33,15.33,0,0,1,136.76,0l1.69.82a14.44,14.44,0,0,0,0,20.16l-1.69.82A15.33,15.33,0,0,1,132.34,10.9Z"/><path class="cls-1" d="M146.87,18.86c0,1-.18,1.6-.76,1.94a5.86,5.86,0,0,1-2.81.39,8.19,8.19,0,0,0-.54-2c.85,0,1.63,0,1.88,0s.35-.12.35-.41V13.37l-2.25,1.41-.65-1.48a25.93,25.93,0,0,1-1.49,8.09,6.36,6.36,0,0,0-1.7-1c1.36-3.16,1.45-7.68,1.45-11V1.25h6.52ZM142.2,9.38c0,1,0,2.18-.06,3.37.78-.32,1.78-.75,2.85-1.21V8.94l-.84.73a25,25,0,0,0-2-2.35Zm0-6.19v3.2l.7-.5A22.13,22.13,0,0,1,145,8V3.19Zm16.56,7.6a14.32,14.32,0,0,1-3.91,6.7,14.19,14.19,0,0,0,4.65,2,7,7,0,0,0-1.34,1.83,14.56,14.56,0,0,1-5-2.49,18.08,18.08,0,0,1-5.08,2.44A7.61,7.61,0,0,0,147,19.48a16.28,16.28,0,0,0,4.66-2,16.73,16.73,0,0,1-3.16-4.93l.73-.23h-1.4v-2h9.23l.36-.07Zm-6.94-7a6.49,6.49,0,0,1-3.41,6.09,7.33,7.33,0,0,0-1.34-1.49,4.79,4.79,0,0,0,2.85-4.63V1.3H157V6.41c0,.64,0,.87.32.87h1.07a3.83,3.83,0,0,0,1-.14l.16,1.71A3.56,3.56,0,0,1,158.4,9h-1.29c-1.72,0-2.1-.72-2.1-2.59V3.26h-3.19Zm-1.36,8.52a11.68,11.68,0,0,0,2.77,3.9,11.68,11.68,0,0,0,2.85-3.9Z"/><path class="cls-1" d="M166.17,10.9a15.33,15.33,0,0,1-4.42,10.9L160.06,21a14.44,14.44,0,0,0,0-20.16L161.75,0A15.33,15.33,0,0,1,166.17,10.9Z"/></g></g></svg>