<svg xmlns="http://www.w3.org/2000/svg" viewBox="0 0 274.82 30.92"><defs><style>.cls-1{fill:#fff;}</style></defs><g id="圖層_2" data-name="圖層 2"><g id="圖層_1-2" data-name="圖層 1"><path class="cls-1" d="M22.34,21.72a7.72,7.72,0,0,1-2.83,6.44c-1.89,1.49-4.67,2.23-8.32,2.23H0V.52H10.64a16,16,0,0,1,4.27.53,9.74,9.74,0,0,1,3.23,1.5,6.58,6.58,0,0,1,2,2.39,7,7,0,0,1,.7,3.19c0,2.89-1.44,5-4.31,6.4a8.22,8.22,0,0,1,2.52,1.07,7.37,7.37,0,0,1,1.81,1.65A7.22,7.22,0,0,1,22,19.33,7.81,7.81,0,0,1,22.34,21.72ZM4,13h6.66a8.73,8.73,0,0,0,4.82-1A3.89,3.89,0,0,0,17,8.49a4.85,4.85,0,0,0-.36-1.93,3.12,3.12,0,0,0-1.14-1.39,6.12,6.12,0,0,0-2.09-.83,15.13,15.13,0,0,0-3.18-.29H4ZM4,26.84h7.21q7.08,0,7.08-5.12a6.57,6.57,0,0,0-.36-2.28,3.5,3.5,0,0,0-1.26-1.6,6.16,6.16,0,0,0-2.34-1,17.55,17.55,0,0,0-3.64-.31H4Z"/><path class="cls-1" d="M66.29,30.39H61.82L58.37,21.3H45.85l-3.32,9.09H38.35L49.85.52h4.26Zm-9.1-12.23L51.94,4.31l-5,13.85Z"/><path class="cls-1" d="M108.4,30.39h-4.28l-2.8-8a8.51,8.51,0,0,0-1-1.93A7.46,7.46,0,0,0,98.8,19a6.64,6.64,0,0,0-1.88-1,6.53,6.53,0,0,0-2.16-.36H87.44V30.39H83.5V.52H96.72a30.1,30.1,0,0,1,3.15.16,12.91,12.91,0,0,1,2.52.5,5.78,5.78,0,0,1,2,1.08A7.25,7.25,0,0,1,106,4a9,9,0,0,1,1,2.27,9.25,9.25,0,0,1,.37,2.58,8.42,8.42,0,0,1-.47,2.84,7.47,7.47,0,0,1-1.34,2.33,7.36,7.36,0,0,1-2.1,1.71,12.11,12.11,0,0,1-2.78,1.09c2.09.69,3.66,2.5,4.73,5.41Zm-21-16.33h8.84a16.26,16.26,0,0,0,3.18-.27,5.78,5.78,0,0,0,2.19-.89,3.67,3.67,0,0,0,1.24-1.61,6.56,6.56,0,0,0,.39-2.4c0-3.4-2.14-5.1-6.4-5.1H87.44Z"/><path class="cls-1" d="M140.09,30.92a14.72,14.72,0,0,1-5.74-1.09A12.15,12.15,0,0,1,130,26.74a14.09,14.09,0,0,1-2.8-4.88,19.83,19.83,0,0,1-1-6.41,19.57,19.57,0,0,1,1-6.42A13.84,13.84,0,0,1,130,4.17a12.4,12.4,0,0,1,4.39-3.09A15.42,15.42,0,0,1,144.61.69a12.2,12.2,0,0,1,3.74,2,10.5,10.5,0,0,1,2.65,3,9.41,9.41,0,0,1,1.24,3.91h-4.08A6.13,6.13,0,0,0,147.39,7a6.34,6.34,0,0,0-1.7-1.95,7.7,7.7,0,0,0-2.48-1.24,10.56,10.56,0,0,0-3.1-.43,9.84,9.84,0,0,0-4.06.8A8.41,8.41,0,0,0,133,6.52a10.76,10.76,0,0,0-2,3.78,17.54,17.54,0,0,0-.69,5.15,17.49,17.49,0,0,0,.68,5.14,10.76,10.76,0,0,0,1.94,3.79A8.26,8.26,0,0,0,136,26.72a10,10,0,0,0,4.05.8,9,9,0,0,0,5.68-1.7,6.68,6.68,0,0,0,2.45-4.91h4.08a11.12,11.12,0,0,1-1.2,4.27,9.91,9.91,0,0,1-2.59,3.14,11.33,11.33,0,0,1-3.72,1.93A15.62,15.62,0,0,1,140.09,30.92Z"/><path class="cls-1" d="M190.12,30.39H171.64V.52h4V26.84h14.53Z"/><path class="cls-1" d="M233.31,30.39h-4.47l-3.45-9.09H212.87l-3.32,9.09h-4.18L216.87.52h4.26Zm-9.1-12.23L219,4.31l-5,13.85Z"/><path class="cls-1" d="M274.82.52,263.06,17.75V30.39h-3.95V17.75L247.38.52h4.81l8.93,13.75L270,.52Z"/></g></g></svg>