<svg xmlns="http://www.w3.org/2000/svg" viewBox="0 0 1317.54 196.85"><defs><style>.cls-1{fill:#fff;}</style></defs><g id="圖層_2" data-name="圖層 2"><g id="圖層_1-2" data-name="圖層 1"><path class="cls-1" d="M1317.54,192.55H1194V163.76l76-93.69c17.26-21.18,3.94-38.3-14.24-38.3-12.72,0-26.35,6.52-26.35,22.82h-33.31c0-30.42,18.47-54.59,59.66-54.59,42.4,0,81.17,39.92,44.22,85.55l-63,75.22h80.56Z"/><path class="cls-1" d="M340.13,166.7c6.09,0,7.31-3.4,8.12-26,6.09,4.59,19.09,9.38,27.21,11.38-3,33.15-10.76,41.94-32.49,41.94H320.43c-26.6,0-32.9-8.79-32.9-34.75v-32H268c-3.86,33.16-14,56.92-69.25,69.5-2.84-8-10.76-20.57-17.06-27,45.49-8,51.58-21.37,54.42-42.54H211.58V60.65h52.19V48.27h-72.9V22.11h72.9V6.53h30.06V22.11h75.34V48.27H293.83V60.65h56.05v66.7H317.79v31.56c0,7.19,1,7.79,7.31,7.79ZM240,101.79h79.4V86H240Z"/><path class="cls-1" d="M446.55,141.53c-2.85-4.79-6.7-10.58-10.76-16.57v71.29h-26.4v-65.5a119.55,119.55,0,0,1-13.61,11.58c-1.42-8.58-7.11-25-10.36-30.75,15.64-10,30.26-27.16,39.81-45.93H389.89v-26h24.37a142.39,142.39,0,0,0-12.18-18.77L423.8,7.33c6.91,7.59,14,18,17.26,25.36l-10.35,7h8.73l5.08-1,14.82,10.59a205.62,205.62,0,0,1-19.7,42.94c4.67,4.19,10.77,10.58,15.84,15.77V89.41H576.31v20.17H456.9c3.46,3.4,6.1,6.39,7.52,7.79Zm132,31v21H454.06v-21h29c-1.42-4.4-3-8.79-4.67-12.58l10.56-3.2H468.48V114.77h95.24v41.94H542.8l14.22,3.8c-2.85,4.19-5.89,8.18-8.53,12ZM570,84H462.18V21.71H489.4v-15h22.33v15h7.92v-15h22.54v15H570ZM485.54,45.08h8.12v-7h-8.12Zm0,22.36h8.12v-7h-8.12Zm6.9,72.5h46.3v-8.59h-46.3ZM502,156.71c2.23,5.19,4.46,11.19,6.09,15.78h16c2-5,4.26-10.79,5.89-15.78ZM519.65,45.08v-7h-7.92v7Zm-7.92,15.37v7h7.92v-7Zm33.92-22.37h-7.92v7h7.92Zm0,22.37h-7.92v7h7.92Z"/><path class="cls-1" d="M118.39,164.9c19.7,0,23.56-4,27-28,7.51,4.19,21.12,9.39,29.85,11-4.87,34.35-16.45,45.74-53.41,45.74H55.44c-43,0-55.44-9-55.44-46.53v-129H154.13V121.16H123.26V111H30.66v36.15c0,16,2.24,17.77,24.58,17.77ZM30.66,46.67v36H61.73V46.67Zm92.6,0H91.38v36h31.88Z"/><path class="cls-1" d="M607.58,192.9V11.29h51.74q29.41,0,38.35,2.73,13.71,4.08,23,17.77t9.26,35.37q0,16.73-5.34,28.12T711,113.18a44.14,44.14,0,0,1-16.72,8.61q-11.55,2.59-33.45,2.6h-21V192.9ZM639.82,42V93.55h17.65q19.06,0,25.49-2.85A21.8,21.8,0,0,0,693,81.78a26.81,26.81,0,0,0,3.65-14.12q0-9.91-5.12-16.35a21.7,21.7,0,0,0-13-8.06Q672.83,42,655.4,42Z"/><path class="cls-1" d="M872.68,192.9H837.6l-13.94-41.26H759.82L746.64,192.9h-34.2l62.2-181.61h34.1Zm-59.37-71.85-22-67.39-21.56,67.39Z"/><path class="cls-1" d="M878.74,192.9V11.29H946.6q25.6,0,37.21,4.9t18.57,17.4q7,12.51,7,28.62,0,20.43-10.57,33.75t-31.59,16.79A77.05,77.05,0,0,1,984.46,128q6.81,8.3,18.35,29.48l19.5,35.43H983.75l-23.31-39.52q-12.42-21.18-17-26.7a25,25,0,0,0-9.7-7.55q-5.12-2.05-16.23-2H911V192.9ZM911,88.1h23.86q23.2,0,29-2.23a17.8,17.8,0,0,0,9-7.68q3.27-5.46,3.27-13.63,0-9.16-4.31-14.8a19.13,19.13,0,0,0-12.14-7.13Q955.75,42,936.15,42H911Z"/><path class="cls-1" d="M1029,192.9V11.29h32.25V91.94l65.14-80.65h43.36L1109.64,82,1173,192.9h-41.72l-43.91-85.23L1061.27,138V192.9Z"/></g></g></svg>