<svg xmlns="http://www.w3.org/2000/svg" viewBox="0 0 239.04 142.41"><defs><style>.cls-1{fill:#fff;}</style></defs><g id="圖層_2" data-name="圖層 2"><g id="圖層_1-2" data-name="圖層 1"><path class="cls-1" d="M136.64,53.93c2.05,0,2.46-1.15,2.74-8.74,2.05,1.54,6.42,3.16,9.16,3.83-1,11.16-3.62,14.12-10.94,14.12H130c-9,0-11.08-3-11.08-11.7V40.68h-6.56c-1.3,11.16-4.72,19.16-23.32,23.4A30.34,30.34,0,0,0,83.31,55c15.32-2.69,17.37-7.19,18.33-14.32H93.36V18.22h17.57V14.05H86.39V5.24h24.54V0h10.12V5.24h25.37v8.81H121.05v4.17h18.87V40.68h-10.8V51.3c0,2.42.34,2.63,2.46,2.63ZM102.93,32.07h26.74V26.76H102.93Z"/><path class="cls-1" d="M172.47,45.45c-.95-1.61-2.25-3.56-3.62-5.58v24H160V41.82a39.69,39.69,0,0,1-4.58,3.9,44.86,44.86,0,0,0-3.49-10.35c5.27-3.36,10.19-9.15,13.4-15.47H153.4V11.16h8.2a47.08,47.08,0,0,0-4.1-6.32L164.81.27a36.31,36.31,0,0,1,5.82,8.54l-3.49,2.35h2.94l1.71-.33,5,3.56a69.84,69.84,0,0,1-6.63,14.46c1.57,1.41,3.62,3.56,5.33,5.31V27.9h40.68v6.8H176c1.16,1.14,2,2.15,2.53,2.62Zm44.45,10.43v7.06H175V55.88h9.78c-.48-1.48-1-3-1.57-4.24l3.55-1.08h-6.9V36.44h32.06V50.56h-7l4.79,1.28c-1,1.41-2,2.76-2.87,4ZM214,26.09h-36.3v-21h9.16v-5h7.52v5h2.67v-5h7.59v5H214ZM185.6,13h2.74V10.62H185.6Zm0,7.53h2.74V18.15H185.6Zm2.33,24.41h15.58V42H187.93Zm3.21,5.64c.75,1.75,1.5,3.77,2.05,5.32h5.4c.69-1.68,1.44-3.63,2-5.32Zm6-37.58V10.62h-2.67V13Zm-2.67,5.17v2.36h2.67V18.15Zm11.42-7.53h-2.67V13h2.67Zm0,7.53h-2.67v2.36h2.67Z"/><path class="cls-1" d="M62,53.32c6.64,0,7.94-1.34,9.1-9.41a40.08,40.08,0,0,0,10,3.7C79.49,59.17,75.59,63,63.15,63H40.79c-14.5,0-18.67-3-18.67-15.66V3.9H74V38.6H63.63V35.17H32.45V47.34c0,5.38.75,6,8.27,6ZM32.45,13.52v12.1H42.91V13.52Zm31.18,0H52.89v12.1H63.63Z"/><path class="cls-1" d="M239,142.29H197.43V132.6L223,101.05c5.81-7.13,1.32-12.89-4.79-12.89-4.29,0-8.88,2.19-8.88,7.68H198.15c0-10.24,6.22-18.38,20.09-18.38,14.27,0,27.33,13.44,14.88,28.81l-21.21,25.32H239Z"/><path class="cls-1" d="M0,142.41V81.26H17.42q9.9,0,12.91.92a14.22,14.22,0,0,1,7.74,6q3.12,4.6,3.12,11.91a22.17,22.17,0,0,1-1.8,9.46,16.41,16.41,0,0,1-4.56,6,14.94,14.94,0,0,1-5.63,2.9,55.1,55.1,0,0,1-11.26.87H10.86v23.07Zm10.86-50.8V109H16.8q6.42,0,8.58-1a7.37,7.37,0,0,0,3.39-3A9.07,9.07,0,0,0,30,100.24a8.55,8.55,0,0,0-1.72-5.5A7.3,7.3,0,0,0,23.91,92a45.59,45.59,0,0,0-7.81-.42Z"/><path class="cls-1" d="M89.26,142.41H77.45l-4.7-13.89H51.26l-4.44,13.89H35.31L56.25,81.26H67.73Zm-20-24.19L61.86,95.53,54.6,118.22Z"/><path class="cls-1" d="M91.3,142.41V81.26h22.85q8.61,0,12.52,1.65a12.86,12.86,0,0,1,6.26,5.86,19.52,19.52,0,0,1,2.34,9.64,17.73,17.73,0,0,1-3.55,11.36q-3.56,4.49-10.64,5.65a26,26,0,0,1,5.81,5.13,70.74,70.74,0,0,1,6.18,9.93l6.57,11.93h-13l-7.85-13.31a85.39,85.39,0,0,0-5.73-9,8.31,8.31,0,0,0-3.26-2.55,15.81,15.81,0,0,0-5.46-.69h-2.21v25.53Zm10.85-35.29h8q7.82,0,9.75-.75a6,6,0,0,0,3-2.58,8.86,8.86,0,0,0,1.1-4.59,7.94,7.94,0,0,0-1.45-5,6.41,6.41,0,0,0-4.09-2.4q-1.32-.21-7.92-.21h-8.48Z"/><path class="cls-1" d="M141.9,142.41V81.26h10.86v27.16l21.93-27.16h14.6L169,105.08l21.35,37.33h-14l-14.78-28.7-8.8,10.22v18.48Z"/></g></g></svg>