<svg xmlns="http://www.w3.org/2000/svg" viewBox="0 0 1045.29 113.21"><defs><style>.cls-1,.cls-2{fill:#fff;}.cls-1{stroke:#fff;stroke-miterlimit:10;stroke-width:4.38px;}</style></defs><g id="圖層_2" data-name="圖層 2"><g id="圖層_1-2" data-name="圖層 1"><path class="cls-1" d="M650.48,90.67H604.33V83.38L630.7,58.05q7.83-7.48,10.35-11.83a17.64,17.64,0,0,0,2.53-9A16.49,16.49,0,0,0,639,25.36a15.4,15.4,0,0,0-11.63-4.78,14.78,14.78,0,0,0-11.6,4.88q-4.35,4.89-4.34,13c0,.28,0,.64,0,1.09s0,.79,0,1h-7.21V39.44q0-11.37,6.62-18.5t17-7.13a21.46,21.46,0,0,1,16.08,6.9,23.66,23.66,0,0,1,6.61,17,23.89,23.89,0,0,1-2.78,11.19,43.09,43.09,0,0,1-8.82,11L614,83.38h36.49Z"/><path class="cls-1" d="M661.69,64.2V41.87a44.19,44.19,0,0,1,1-11,21.08,21.08,0,0,1,3.37-6.9,25.09,25.09,0,0,1,9-7.55,26.23,26.23,0,0,1,11.73-2.63q11.7,0,18.45,7.34T712,41.46V64.51a44.33,44.33,0,0,1-1,10.11,20.55,20.55,0,0,1-3.12,7,23.84,23.84,0,0,1-9.05,7.76,26.83,26.83,0,0,1-12.06,2.73,26.16,26.16,0,0,1-11.7-2.61A25.88,25.88,0,0,1,666,82a18.52,18.52,0,0,1-3.27-7A46.38,46.38,0,0,1,661.69,64.2Zm7.2,1.6q0,9.36,4.76,14.58t13.18,5.22q8.38,0,13.14-5.17T704.72,66V40.07q0-9.21-4.78-14.4t-13.11-5.19q-8.43,0-13.18,5.24t-4.76,14.66Z"/><path class="cls-1" d="M744.49,90.67h-9.15l17.38-27.29c-1.6.37-3.07.66-4.4.85a25.67,25.67,0,0,1-3.62.28A21.86,21.86,0,0,1,728,57.38q-6.62-7.14-6.62-17.94,0-11.1,7.16-18.37t18.19-7.26a24.43,24.43,0,0,1,18,7.16,23.87,23.87,0,0,1,7.18,17.6q0,9-9.2,23.36l-1.33,2.12ZM746.23,58a17.12,17.12,0,0,0,12.85-5.38,18.3,18.3,0,0,0,5.19-13.23A18.53,18.53,0,0,0,759,25.93a17.22,17.22,0,0,0-12.85-5.45,16.05,16.05,0,0,0-12.24,5.27Q729,31,729,39.24a19,19,0,0,0,4.89,13.44A16.15,16.15,0,0,0,746.23,58Z"/><path class="cls-1" d="M804.32,50.4v6.88h-24V50.4Z"/><path class="cls-1" d="M814.88,64.2V41.87a44.19,44.19,0,0,1,1-11,21.08,21.08,0,0,1,3.37-6.9,25,25,0,0,1,9-7.55A26.23,26.23,0,0,1,840,13.81q11.7,0,18.45,7.34t6.74,20.31V64.51a43.76,43.76,0,0,1-1,10.11,20.53,20.53,0,0,1-3.11,7,23.91,23.91,0,0,1-9,7.76A26.83,26.83,0,0,1,840,92.16a26.16,26.16,0,0,1-11.7-2.61A25.79,25.79,0,0,1,819.17,82a18.52,18.52,0,0,1-3.27-7A46.38,46.38,0,0,1,814.88,64.2Zm7.2,1.6q0,9.36,4.75,14.58T840,85.6q8.38,0,13.13-5.17T857.91,66V40.07q0-9.21-4.78-14.4T840,20.48q-8.43,0-13.19,5.24t-4.75,14.66Z"/><path class="cls-1" d="M887.3,48.64a17.87,17.87,0,0,1-5.95-6.38,17.47,17.47,0,0,1-2-8.45,19.06,19.06,0,0,1,6-14,19.55,19.55,0,0,1,14.33-5.92,20.33,20.33,0,0,1,14.69,5.74,18.3,18.3,0,0,1,6,13.64,18.62,18.62,0,0,1-2,8.92A17.51,17.51,0,0,1,912,48.64a23.71,23.71,0,0,1,8.74,8,20.81,20.81,0,0,1,2.86,11q0,10.65-6.77,17.54t-17.51,6.9a22.19,22.19,0,0,1-16.53-7,23.42,23.42,0,0,1-6.77-17,22,22,0,0,1,2.63-11.06A26.12,26.12,0,0,1,887.3,48.64Zm-3.88,20.42A16.31,16.31,0,0,0,888.05,81a15.11,15.11,0,0,0,11.26,4.73,16.17,16.17,0,0,0,12-4.8,16.64,16.64,0,0,0,4.73-12.15q0-7.55-4.45-12.15T899.88,52q-7.62,0-12,4.58T883.42,69.06Zm3.27-36.39a12,12,0,0,0,12.62,12.56q6.71,0,10.28-3.17c2.38-2.13,3.57-5.18,3.57-9.18a11.53,11.53,0,0,0-3.7-8.86A13.4,13.4,0,0,0,900,20.58,13.56,13.56,0,0,0,890.5,24,11.19,11.19,0,0,0,886.69,32.67Z"/><path class="cls-1" d="M947.06,48.64a17.78,17.78,0,0,1-5.95-6.38,17.47,17.47,0,0,1-2-8.45,19.05,19.05,0,0,1,5.95-14,19.59,19.59,0,0,1,14.34-5.92,20.34,20.34,0,0,1,14.69,5.74A18.29,18.29,0,0,1,980,33.29a18.5,18.5,0,0,1-2,8.92,17.44,17.44,0,0,1-6.26,6.43,23.71,23.71,0,0,1,8.74,8,20.72,20.72,0,0,1,2.86,11q0,10.65-6.77,17.54t-17.5,6.9a22.16,22.16,0,0,1-16.53-7,23.38,23.38,0,0,1-6.77-17,21.89,21.89,0,0,1,2.63-11.06A26,26,0,0,1,947.06,48.64Zm-3.88,20.42A16.34,16.34,0,0,0,947.8,81a15.14,15.14,0,0,0,11.27,4.73,16.16,16.16,0,0,0,12-4.8,16.6,16.6,0,0,0,4.73-12.15q0-7.55-4.44-12.15T959.63,52q-7.62,0-12,4.58T943.18,69.06Zm3.27-36.39a12.2,12.2,0,0,0,3.5,9.07,12.33,12.33,0,0,0,9.12,3.49q6.69,0,10.27-3.17c2.39-2.13,3.58-5.18,3.58-9.18A11.53,11.53,0,0,0,969.21,24a13.4,13.4,0,0,0-9.48-3.44A13.56,13.56,0,0,0,950.25,24,11.22,11.22,0,0,0,946.45,32.67Z"/><path class="cls-1" d="M1006.82,48.64a17.81,17.81,0,0,1-6-6.38,17.59,17.59,0,0,1-2-8.45,19.06,19.06,0,0,1,6-14,19.57,19.57,0,0,1,14.33-5.92,20.31,20.31,0,0,1,14.69,5.74,18.3,18.3,0,0,1,6,13.64,18.5,18.5,0,0,1-2,8.92,17.51,17.51,0,0,1-6.26,6.43,23.71,23.71,0,0,1,8.74,8,20.72,20.72,0,0,1,2.86,11q0,10.65-6.77,17.54t-17.5,6.9a22.2,22.2,0,0,1-16.54-7,23.42,23.42,0,0,1-6.77-17,22,22,0,0,1,2.63-11.06A26.16,26.16,0,0,1,1006.82,48.64Zm-3.89,20.42A16.31,16.31,0,0,0,1007.56,81a15.14,15.14,0,0,0,11.27,4.73,16.16,16.16,0,0,0,12-4.8,16.64,16.64,0,0,0,4.73-12.15q0-7.55-4.45-12.15T1019.39,52q-7.62,0-12,4.58T1002.93,69.06Zm3.27-36.39a12.24,12.24,0,0,0,3.5,9.07,12.37,12.37,0,0,0,9.13,3.49q6.69,0,10.27-3.17c2.38-2.13,3.57-5.18,3.57-9.18A11.53,11.53,0,0,0,1029,24a13.4,13.4,0,0,0-9.48-3.44A13.56,13.56,0,0,0,1010,24,11.19,11.19,0,0,0,1006.2,32.67Z"/><path class="cls-2" d="M279,55.31,259,30.46h13l9,12c1.81,2.37,3.43,4.67,5.64,7.74h.51c1.91-3.07,3.32-5.37,5-7.74l8.76-12h12.29L293.25,55.73,314.6,81.84h-13l-9.77-12.78c-1.91-2.58-3.83-5.23-6.14-8.37h-.41c-2.11,3.14-3.93,5.79-5.74,8.37l-9.47,12.78H257.7Z"/><path class="cls-2" d="M394.06,24.46V96.53h-8.22V90.28H341.17v6.63h-7.8V24.46H354A111.91,111.91,0,0,0,358.1,9.6l10,1.8c-1.67,4.45-3.52,9.09-5.28,13.06Zm-52.89,8.81V52.68h44.67V33.27Zm44.67,48.2V61.39H341.17V81.47Z"/><path class="cls-2" d="M454.48,54.39c5.87,16.57,16.94,28.88,33.53,34a34.29,34.29,0,0,0-5.28,8.15c-16.09-6.06-26.82-18-33.61-35-4.19,13.26-13.5,26.23-33.53,35.13a31.09,31.09,0,0,0-5.11-7.48c20.45-8.9,28.66-22.06,31.85-34.75H412.91v-9h30.93a90.11,90.11,0,0,0,.42-9.18V25.88H415.92V16.79h65.81v9.09H452.39V36.3c0,2.84-.08,6-.34,9.09h33.11v9Z"/><path class="cls-2" d="M535.45,50.88a108.3,108.3,0,0,1-10.23,24.43c.75,6.44,1.67,10.14,2.93,10.23,1,0,1.85-4.16,2.18-10.79a18.87,18.87,0,0,0,4.45,4.54C533.1,91.6,530.25,94.73,528,94.73c-3.53-.1-5.79-4.45-7.38-12.22A63.16,63.16,0,0,1,514.32,90,35.21,35.21,0,0,0,511,86.2v2c0,4-.67,6.06-2.77,7.39S503.26,97,498.9,97a33.42,33.42,0,0,0-2.1-7.48c2.77.09,5.45.09,6.37.09s1.09-.28,1.09-1.42V68c-2.34,1.23-4.61,2.28-6.79,3.32l-2.34-8.15c2.51-.94,5.7-2.17,9.13-3.59V43.88h-8V36.11h8V23.52c-2.09.66-4.1,1.32-6,1.8a28.84,28.84,0,0,0-2.35-6.44c5.87-1.9,12.32-4.64,16.18-7.29l5.36,5.77V11.3h6.37c-.08,8.81-.16,17.14-.08,24.81H535v7.77H523.79c.09,6.91.26,13.16.51,18.56a108.91,108.91,0,0,0,5.45-15.53ZM511,36.11h6.62c-.08-5.68-.17-11.74-.17-18a60.87,60.87,0,0,1-6.45,3Zm0,47.54a62,62,0,0,0,8.21-11.18c-.83-7.76-1.25-17.51-1.5-28.59H511V56.66l5.11-2.18,1.26,7.2L511,64.8Zm18.78-50.19a69.18,69.18,0,0,0-4.62-16.67l5.37-1.89c2.26,5.21,4.44,11.93,5,16.19ZM532.09,91c2.6-4.35,3.86-11.74,4.28-18.46l5.19,1.51c-.67,7.2-1.67,15.25-4.69,20.08ZM544.5,57.89v4.74H572s-.08,1.89-.17,2.93c-.92,19.13-1.76,26.23-3.6,28.79a6.08,6.08,0,0,1-4.53,2.46,46.1,46.1,0,0,1-7.37.1,16.44,16.44,0,0,0-1.51-6.06c2.6.18,4.94.28,6,.28a2.33,2.33,0,0,0,2.18-.95c.67-.94,1.26-3.5,1.77-8.71L561.1,83a52.6,52.6,0,0,0-3.86-10l3.69-1.33a57,57,0,0,1,3.94,9.09c.25-3,.42-6.81.67-11.55H537.62V18.59h10.15c.75-2.93,1.34-6.15,1.76-8.61l7.71,1.23c-.84,2.55-1.76,5.11-2.68,7.38h13.07V46.91H544.5v4.64H573v6.34Zm3.35,17a93,93,0,0,1,1.26,15.25l-4.61.85a90.57,90.57,0,0,0-1.09-15.34Zm-3.35-50V30h16.34V24.84Zm16.34,15.82V35.45H544.5v5.21Zm-6.28,33a65.5,65.5,0,0,1,3.1,12.59l-4.36,1.24a65.76,65.76,0,0,0-2.77-12.79Z"/><path class="cls-2" d="M211.1,76.7c1.12.24,1.49-.2,1.28-1.5C211.66,75.2,211.17,75.74,211.1,76.7Zm24,18.11a14.33,14.33,0,0,0,.42-1.37.66.66,0,0,0-.23-.61.54.54,0,0,1-.24-.27l0,0C235.05,93.72,235.07,94.84,235.08,94.81ZM207.2,87.49c-.11,0-.4.22-.35.3s.19.34.39.62c.17-.27.35-.42.33-.53A.62.62,0,0,0,207.2,87.49Zm41.27-24.42c-.48-.57-1-1.13-1.54-1.68a2.73,2.73,0,0,0-1.72-1,.39.39,0,0,1-.27-.13c-.8-.85-1.24-1-2.17-.5a5.1,5.1,0,0,1-3.22.41c-.45-.06-.52.22-.47.55a1.6,1.6,0,0,0,.24.44c.39.43.25.77-.21,1s-1.15.59-1.77.87c-.46-.69-.26-1.47-.41-2.21-.43-2.23.57-3.44,2.28-4.53a3.29,3.29,0,0,0,1.38-1.93c.27-.15.58-.18.7-.34a7.31,7.31,0,0,0,1-1.79c.11-.35-.13-.8-.22-1.2h-.29c-.35.64-.73,1.3-1.07,1.94-.38-.29-.66-.48-1-.7s-.24-.31.05-.52c.63-.52,1.28-1.08,1.91-1.66a.76.76,0,0,0-.16-1.22,2.3,2.3,0,0,0-1.44-.28,5.32,5.32,0,0,1-1.83.23c-.45-.07-.55-.28-.52-.68s.14-1,.14-1.53.09-.88.73-.48c.12.06.35,0,.4-.06s0-.26,0-.39-.27-.37-.22-.47a4.94,4.94,0,0,1,.58-1.12c.79-1.26.57-2-.76-2.7a.59.59,0,0,1-.39-.79,1.7,1.7,0,0,0-.58-1.87,10.42,10.42,0,0,1-.87-1c-.18-.18-.39-.44-.57-.44-.4,0-1.32,1-1.43,1.4-.06.19-.11.49-.24.54-1,.37-1.12,1.31-1.29,2.07a2.59,2.59,0,0,0,.22,1.82A4,4,0,0,1,234,45.4c-.07,1.27,0,2.52-.08,3.76a1,1,0,0,1-.39.72c-.93.53-1.94,1-2.83,1.55a27,27,0,0,0-4.22,3.3c-1.11,1.15-2.17,2.32-3.29,3.45-1.31,1.29-2.66,2.55-4,3.78a4.53,4.53,0,0,1-.84.52v-.84s0-.12,0-.19c0-.88-.2-1.75-.18-2.6a3.59,3.59,0,0,0-.54-2.43c-.31-.47-.75-1.05-.08-1.7a2.22,2.22,0,0,0,.52-1.28,3.47,3.47,0,0,1,1.09-2c.61-.82,1.34-1.6,2-2.4.32-.4.56-.87.84-1.3a.45.45,0,0,1,.66-.21.46.46,0,0,0,.66-.53,6,6,0,0,1,.35-2.59,6.78,6.78,0,0,1,2.74-3.6,12.33,12.33,0,0,1,2.18-1.16c1-.43,2-.87,3-1.27a9.27,9.27,0,0,0,1.54-.48,12,12,0,0,0,1.54-1.34,4.63,4.63,0,0,0,.58-.59,3,3,0,0,0,.49-.71c.23-.5.37-1,.6-1.56s.66-1,.57-1.44a3.31,3.31,0,0,0-.94-1.89,2.41,2.41,0,0,0-2.82-.28c-.58.34-1.11.81-1.69,1.21a5,5,0,0,0-.35-.4,10.37,10.37,0,0,0-.57.91c-.21.43-.49.38-.75.19s-.61-.42-.29-.84a1.33,1.33,0,0,0,.14-.57,6.6,6.6,0,0,0-1.14,1.09.56.56,0,0,0,0,.32c.35,1-.43,1.48-.94,2.13a1.38,1.38,0,0,0-.34.61c0,.74,0,1.46,0,2.18a2.25,2.25,0,0,1-.74,1.8c-1,1-2,2.09-3,3.1a.8.8,0,0,1-.73.27,1,1,0,0,1-.36-.67c-.07-.65,0-1.33,0-2a2.14,2.14,0,0,1,1.09-2.16c.6-.36,1.14-.75,1.75-1.19a3.39,3.39,0,0,0-.5-.35c.06-.51.24-1,.06-1.2s-.65-.14-1.09-.2a3.71,3.71,0,0,1-.14-3c.23-.69.28-1.47.54-2.14a3.69,3.69,0,0,1,1.76-2.39c.9-.4,1.7-.92,2.57-1.31a5.35,5.35,0,0,1,2.28-.66,7.56,7.56,0,0,0,3.84-1,1.5,1.5,0,0,0,.52-.43c.37-.44.27-.77-.29-.87-.33-.1-.72-.13-1-.22s-.3-.22-.45-.34a1.06,1.06,0,0,1,.36-.34,9.31,9.31,0,0,1,1.05-.51c-.34-.6.06-1,.42-1.41s.34-.47,0-.55a9.64,9.64,0,0,0-1.87-.32c-.81-.06-1.66,0-2.49,0-.48,0-1-.13-1.41-.18-.29,0-.57,0-.92,0,.41,1.15.32,1.36-.68,1.66a1.36,1.36,0,0,0-.37.13,8.32,8.32,0,0,1-1.14.49.64.64,0,0,1-.44-.42,6.52,6.52,0,0,1,.1-1.33c0-.44.24-.61.65-.75a4.22,4.22,0,0,0,1.2-.64c.3-.17.62-.56.83-.51.55.15.5-.19.58-.49a1.42,1.42,0,0,1,.25-.54c.64-.49,1.31-.94,2-1.43a.59.59,0,0,0,.21-.29c-.21-.57.19-.84.48-1.2a.54.54,0,0,0,.12-.46c-.16-.42.07-.64.36-.9a1.34,1.34,0,0,0,.35-.86,2.47,2.47,0,0,0-.44-.89c-.27-.35-.25-.56.23-.66.16,0,.41-.34.36-.47a2.41,2.41,0,0,0-1.5-1.84,3.56,3.56,0,0,0-3.09.5c-.32.18-.47.17-.61-.09a6,6,0,0,0-2.1-2.08c-.08-.06-.11-.24-.16-.39.15,0,.3-.17.42-.13.61.22,1.22.49,1.84.74a3.64,3.64,0,0,1,.44.14,8,8,0,0,1,0-1.48c.14-.6,0-1-.58-1.24a12.61,12.61,0,0,0-2.1-.51c-.45-.06-.76-.07-.81-.65a6.05,6.05,0,0,0-.4-1s.11-.12.09-.14a4.41,4.41,0,0,0-.62-.86c-.12-.1-.45,0-.64.11a10,10,0,0,0-1,.7c.27.24.56.58.92.85s.77.55,1.21.86a7,7,0,0,1-1.52,1.09,2.56,2.56,0,0,0-1.46,1.53,1.42,1.42,0,0,1-.54.62c-.62.35-1.52.31-1.68,1.33-.66-.75-.73-1.18-.23-1.95-.21-.09-.44-.21-.66-.32a4.32,4.32,0,0,0-.13.76c0,.29.13.59.17.89.12.63.29,1.28.41,1.93a.88.88,0,0,0,.21-.45,3,3,0,0,1,.09-.47c1.05.07,1.09.05,1.43.9a8.89,8.89,0,0,1,.33,1.58c.05.19,0,.4.06.58a2.2,2.2,0,0,1-1.11,2.77c-1.38.74-2.77,1.54-4.16,2.23a19.27,19.27,0,0,1-2.41.93.76.76,0,0,1-1-.52,2.59,2.59,0,0,0-1-1.62.5.5,0,0,1-.15-.38.66.66,0,0,1,.35-.23,8.47,8.47,0,0,1,.88,0,1.73,1.73,0,0,0-1.17-.95c-.41-.09-.83-.38-1.24-.48s-1-.28-1.3-.08a2.05,2.05,0,0,0-1,1.93c.05.31-.1.39-.42.46a5.06,5.06,0,0,0-1.62.78,1.58,1.58,0,0,0-.52,1.12,6.27,6.27,0,0,0,2.46,5.24,1,1,0,0,0,.54.19,4.71,4.71,0,0,1,3.6,1.28,1.19,1.19,0,0,0,1.79-.23.68.68,0,0,1,.9-.31c.62.19,1,0,1.09-.68a6.42,6.42,0,0,0,0-2,1.93,1.93,0,0,1,.95-2.35,6.26,6.26,0,0,1,3.36-1.63,1.06,1.06,0,0,1,1.27.84,2.56,2.56,0,0,1-.87,2.23,7.48,7.48,0,0,0-1.22,2,15.56,15.56,0,0,1-1.11,2.24,16.62,16.62,0,0,1-2.33,2.41c-1.16,1-2.42,1.83-3.6,2.76a.38.38,0,0,1,0-.2c-.39-.07-.88-.34-1.14-.19a2,2,0,0,0-.79,1.1A2.79,2.79,0,0,1,207.93,31a30.06,30.06,0,0,0-2.78,1.23,17.32,17.32,0,0,0-1.39,1.08c-1.07.73-1.19,1.33-.29,2.23S205.19,38,207,37.44c.1,0,.26.09.39.1.9,0,1.87.21,2.65-.49a13,13,0,0,0,.94-1,9.06,9.06,0,0,1,1.34-1c.44-.25.95-.4,1.38-.62a5.39,5.39,0,0,0,.45-.4.33.33,0,0,0-.11-.09l-1.27.62v-.87a5.67,5.67,0,0,1-.82.74.88.88,0,0,1-.56.12c-.09,0-.16-.2-.23-.26-1,.44-2,.9-3,1.26-.75.29-1,.1-1.24-.77a2,2,0,0,0,1.83-.9,1.06,1.06,0,0,1,.63-.4c.51,0,.67-.26.71-.76a.69.69,0,0,1,1-.59,1,1,0,0,0,.55-.05,7.8,7.8,0,0,1,.93-.33c.13,0,.31.1.51.16-.1.15-.13.31-.2.43s-.43.45-.62.7c.1.07.19.16.31.25a6.68,6.68,0,0,1,.62-.87,9.51,9.51,0,0,1,3.53-2.79A15,15,0,0,0,219.16,28c.11-.08.29-.05.45-.08a1.26,1.26,0,0,1,.08.47,2.22,2.22,0,0,1-1.25,1.81c-.2.12-.56.4-.52.49.3.75-.33.56-.7.65.11-.17.2-.37.37-.71-1.17.47-2.19.84-3.18,1.25a1.09,1.09,0,0,0,0,.17c.78-.09,1.53-.22,2.47-.34l-.94.81a.25.25,0,0,0,.11.12c.68-.44,1.38-.86,2.07-1.27.17-.08.33-.09.51-.17a1.88,1.88,0,0,1,.1.54c-.24,1.16-.49,2.32-.75,3.5-.16.71-.32,1.44-.53,2.13,0,.16-.3.2-.46.31-.29-.84-1.51-.51-1.76-1.37,0-.07-.25-.11-.36-.09-.75.14-1.5.27-2.25.46-.52.16-.58.59-.38,1.09a1.1,1.1,0,0,1,0,.8,4.1,4.1,0,0,1-1.79,2c-.35.23-.37.48-.39.88a2.61,2.61,0,0,0,.42,1.91c.07.09,0,.25,0,.37.18,1.17.17,2.48,1.71,2.85a.69.69,0,0,1,.38.32c.34.5.79.36,1.13.11a20.84,20.84,0,0,1,2.11-1.75,13.51,13.51,0,0,0,2-1.69c.3.78.58,1.46.86,2.13a.73.73,0,0,1-.28,1c-.65.45-1.27,1-1.93,1.45a11.92,11.92,0,0,0-2.75,3,3.12,3.12,0,0,1-1,1.14,6.82,6.82,0,0,0-3.19,2.82c-.61,1.11-1.39,2.14-2.08,3.21-.53.83-1,1.7-1.51,2.47-.65,1-1.39,1.84-2.07,2.78a.86.86,0,0,1-1,.38c-1-.25-2-.49-3-.65-.68-.13-1.37-.09-2-.28a4.26,4.26,0,0,0-2.77-.22c-.14.07-.62-.2-.6-.26a17.9,17.9,0,0,1,.37-2.94,2.62,2.62,0,0,0,0-2.14,10.77,10.77,0,0,1-.83-1.71c-.19-.51-.21-1.06-.37-1.6-.24-.78-.15-.88.57-1.29a27.62,27.62,0,0,0,3.05-1.79c.54-.34.45-.66.07-1.21a1.41,1.41,0,0,1-.16-1,17.43,17.43,0,0,1,1.26-2.52,2.45,2.45,0,0,1,.77-.68c.2-.16.51-.23.69-.45a7.61,7.61,0,0,1,2.46-2.12c.53-.23.51-.49,0-.88a10.46,10.46,0,0,1-1.8-1.5c-.45-.49-.62-1.2-1.18-1.68-.75-.6-1.41-1.31-2.2-1.87a3.34,3.34,0,0,0-2.45-.52c-.56.1-1.11.23-1.68.37s-.8,0-.73-.56a16,16,0,0,0,.4-2.11c0-1.45,1-2.28,1.78-3.25a.73.73,0,0,1,.44-.24,5.26,5.26,0,0,0,2.35-1.19c1-.94,1.17-2.82.2-3.62a12.88,12.88,0,0,0-2.67-2,4.16,4.16,0,0,0-2.63-.25c-.85.18-1.31-.15-1.33-1,0-.16-.05-.28-.06-.43-.16-1.16-.32-2.32-.45-3.48a8.4,8.4,0,0,1,0-1.11h-.12c0,.23-.1.49-.15.76a1.8,1.8,0,0,1-.22-2.62c.1.44.18.81.27,1.19.08-.29,0-.58.06-.77.14-.42,0-.64-.33-.92a1.94,1.94,0,0,1-.73-1c-.12-.91-.14-1-1-1.15a1.25,1.25,0,0,1-.46-.09,2.29,2.29,0,0,0-2.28.06c-.69.32-1.23.84-1.9,1.2-1,.6-1.3,1.68-1.83,2.64a7.29,7.29,0,0,1-.73,1.45,4.41,4.41,0,0,0-.89,2.22,21.65,21.65,0,0,0-.19,3.34,4.74,4.74,0,0,0,.31,1.41,12.83,12.83,0,0,0,.57,1.79.55.55,0,0,0,.43.31A11.31,11.31,0,0,0,183.3,27c.63-.21,1.36-.09,1.87-.67.11-.11.53-.16.61-.06a1.31,1.31,0,0,1,.24.8c0,.13-.15.29-.28.39-1.06.76-2.07,1.57-3.15,2.29a9.78,9.78,0,0,1-1.69.82c-.44.2-.77.12-.86-.41-.07-.36-.11-.75-.18-1.26a4.07,4.07,0,0,1-.37.53,8.4,8.4,0,0,1-1.12,1.46,13.65,13.65,0,0,1-1.94,1.24c-.64.4-.7.78-.58,1.54A6,6,0,0,0,177.13,36c.17.24.94.49,1,.38.4-.46.72-.22,1.12-.11a.85.85,0,0,0,.61-.17,14.47,14.47,0,0,0,2.19-1.29c.49-.42,1.23-.77,1.26-1.63,0-.08.22-.21.35-.26s.18.18.25.29a1.14,1.14,0,0,1,.08.33c1.41-.33,1.82.38,1.73,1.7a5,5,0,0,0,.45-.7c.1-.1.26-.25.38-.25s.33.2.33.3c0,.58,0,1.15,0,1.72,0,.29.08.57.08.86a4.05,4.05,0,0,1-.11,1.69c-.26.48-.88.74-1.34,1.1-.75.63-1.4.3-2.1-.19a7.79,7.79,0,0,0-2.11-1c-.84-.25-1.11-.43-1.14-1.31a3.82,3.82,0,0,0-.07-.54c-.48.31-.9.54-1.33.79a16.83,16.83,0,0,0-1.82.84,6.54,6.54,0,0,0-2.41,3.39,26.68,26.68,0,0,1-1.78,3.73c-1.38,2.21-3,4.28-4.33,6.44A31.8,31.8,0,0,0,167,55.34a10.26,10.26,0,0,1-.67,1.27,1.67,1.67,0,0,0-.34,1.64,5.6,5.6,0,0,1,.14,1.31c0,.14-.05.35,0,.46a1.78,1.78,0,0,1,.07,1.72c-.36,1.39-.77,2.8-1.16,4.16s-.8,2.95-1.27,4.42-1.18,3.18-1.79,4.81c-.41,1.24-.84,2.5-1.22,3.75a19,19,0,0,0-.7,3c-.14,1.41-.09,2.82-.13,4.25a.67.67,0,0,0,0,.24,3,3,0,0,0,2,1.65.83.83,0,0,0,1.12-.64,2.94,2.94,0,0,1,.6-.85,1.81,1.81,0,0,0,.66-1.49,20.31,20.31,0,0,1,1.4-9.81c.28-.68.46-1.4.68-2.13.42-1.16.87-2.31,1.24-3.48.16-.54,0-1.22.31-1.67a8.4,8.4,0,0,0,1.07-3.82,15.25,15.25,0,0,1,.57-2.61,5.52,5.52,0,0,1,.51-.92c.19-.37.29-.79.51-1.16.3-.56.71-1.1,1.06-1.64a3,3,0,0,1,.51-.92c.84-.91,1.68-1.79,2.59-2.64a22.35,22.35,0,0,1,2.34-2,10.25,10.25,0,0,1,1.72-1,.51.51,0,0,1,.52.23,13.08,13.08,0,0,1,.77,2,.89.89,0,0,1-.29.78c-.58.5-1.24.93-1.86,1.38-.86.62-1.77,1.19-2.6,1.88s-1.34,1.38-2,2.08a.61.61,0,0,0-.2.29c0,.45,1.18,1.46,1.62,1.27s.72,0,1,.38c1.24,1.66,2.05,1.57,3.62.92a1.52,1.52,0,0,0,1-1.3.53.53,0,0,1,.25-.42A15.2,15.2,0,0,1,183.43,59,15.32,15.32,0,0,0,186,57.43c.3-.2.62-.41.93-.59.65-.36,1.32-.71,2-1.12.43-.27.74-.22.76.29a14.45,14.45,0,0,1,0,2.71c-.12,1.2-.42,2.42-.49,3.61a32.9,32.9,0,0,0,.22,3.43c0,.31.08.63-.42.6s-1.1-.4-1-.73.27-.79.38-1.15a5.75,5.75,0,0,0,.18-.8.75.75,0,0,0-.25-.07c-.17.43-.4.89-.6,1.35-.26.64-.53.67-1.08.28s-1.18-.88-1.72-.81a5.39,5.39,0,0,0-3.14.94.58.58,0,0,1-.63,0c-.39-.3-.68-.73-1.09-1a4.39,4.39,0,0,0-4.74-.7c-.6.29-1.26.55-1.79.81a2.26,2.26,0,0,1,.18.9c-.21.9-.48,1.75-.76,2.62a.59.59,0,0,0,0,.37,15.32,15.32,0,0,0,.55,2.22c.57,1.41.84,3,1.83,4.26A16.49,16.49,0,0,0,179.14,79c.42.23.68.27.94-.21a.61.61,0,0,1,.36-.2c.52,0,1,.09,1.51.16a3.56,3.56,0,0,0,1.2.09c.32-.07.86-.58.8-.69-.39-.78.32-1.25.53-1.85,0-.2.47-.49.62-.44.6.2.85-.18.92-.59a6.81,6.81,0,0,0,.33-2c0-1.4.17-1.43,1.63-1.85a1.22,1.22,0,0,1,.45-.08.73.73,0,0,1,.92.47c.38.81.76,1.62,1.21,2.38A6.42,6.42,0,0,0,192.21,76c.08,0,.16-.11.24-.15-.25-.6-.47-1.18-.75-2,.38.18.56.25.75.35.89.56,1.77,1.12,2.68,1.67.12.08.36,0,.52.06a1.39,1.39,0,0,0-.07-.46c-.17-.34-.37-.67-.54-1s-.17-.63.25-.89c.61-.37,1.14-.85,1.74-1.24a.45.45,0,0,1,.33-.1c1,.2,1.15.12,1.54-.82a11,11,0,0,1,.92-1.67,18.68,18.68,0,0,1,1.37-1.46c.17-.23.39-.43.65-.72.16.24.27.39.38.57.63.88.29,1.76,0,2.63a3.2,3.2,0,0,0-.15,1.23c0,.36.25.47.63.4a3.2,3.2,0,0,1,1.34,0,3.39,3.39,0,0,0,3-1.12,8.12,8.12,0,0,0,.89-1.89c.24-.82,1.35-1.14,1.2-2.15,0,0,.1-.11.15-.13.76-.2.85-1,1.26-1.5.62-.76,1.2-1.52,1.8-2.21a9.21,9.21,0,0,1,1.17-1.24c.09-.1.3-.1.48-.15a1.25,1.25,0,0,1,0,.51c-.59,1.51-1.17,3-1.8,4.51a12.88,12.88,0,0,1-1.29,2.47c-.79,1.15-1.72,2.14-2.53,3.27a12.62,12.62,0,0,1-4.71,3.63,18.8,18.8,0,0,1-2.75,1c-.19.06-.47.25-.51.44-.1.89-.16,1.79-.19,2.68,0,.19.23.54.36.54.71.08.75.6.94,1.11a1.3,1.3,0,0,0,.3.55c.43.48.76.47,1.06-.12a8.8,8.8,0,0,0,.38-.81.49.49,0,0,1,.73-.36,2.17,2.17,0,0,0,2.7-1.06c.42-.59.7-.54,1,.09s.82,1.28,1.22,1.9c.09,0,.16-.06.25-.06.18-.5.35-1,.55-1.57a1.8,1.8,0,0,1,.38.34c.3.57.66.09,1,0,.1,0,.15-.39.16-.58,0-.46-.13-1,0-1.31.29-.57,0-1.12.23-1.66,0-.09-.07-.2-.09-.29-1.22.57-.55,2.08-1.51,3a2.69,2.69,0,0,1-.09-.74,15.31,15.31,0,0,1,.24-1.59,6.45,6.45,0,0,1,1.06-2.83c1-1.07,2.07-2,3-3.07a17.84,17.84,0,0,0,1.92-2.38,18.08,18.08,0,0,1,2.9-3.76,2.47,2.47,0,0,0,.37-.59c-.28.1-.57.24-1,.44.44-1.1,1.38-1.47,2-2.15.14.26.14.26-.3.82-.24.3-.44.59-.66.88a3.39,3.39,0,0,0,.66-.33,13.9,13.9,0,0,0,1.08-1c.71-.71,1.44-1.41,2.14-2.14S224.43,60.54,225,60c.14-.13.4-.13.57-.21a1.68,1.68,0,0,1,0,.6c-.72,1.66-1.51,3.27-2.14,5a26.79,26.79,0,0,0-.87,3.45,1.7,1.7,0,0,0,.12.7,1.42,1.42,0,0,1-.63,1.86,1.35,1.35,0,0,1-.67.07,5.33,5.33,0,0,1-.56,0,6,6,0,0,1-.85,0c-.34-.09-.86.37-.76.72a4.72,4.72,0,0,0,2.35,3.46,16.69,16.69,0,0,0,2.65.84c.39.12.92.32,1.24.18.88-.44,1.84-.26,2.79-.64,1.39-.58,2.89-1,4.33-1.59a.79.79,0,0,1,.64,0c.14.1.16.42.16.62,0,1.17-.13,2.33-.16,3.51-.06,1.77-.06-1.41-.15.36-.06,1.43-.28,2.86-.34,4.28-.27,4-.53,3.17-.78,7.25,0,.79,0,1.6-.08,2.43-.19,2.9-.45,5.83-.5,8.75-.05,3.35-.48,6.68-.84,10a3,3,0,0,0,.26,1.29c.18.42.47.49.74,0,.42-.62.82-1.25,1.24-1.85.1-.16.3-.23.53-.38v2.13h.17c.16-.93.3-1.88.44-2.91a.93.93,0,0,1-.28-.32c-.16-.6-.43-.86-1-.5a2,2,0,0,1,.59-2c-.06.45-.11.77-.16,1.3.27-.15.49-.23.54-.37a17.34,17.34,0,0,0,.5-2.31c.22-2.45.4-4.88.57-7.33.07-.81,0-.82-.78-.77a1,1,0,0,1-.39,0,1.29,1.29,0,0,1-.4-.21s0-.3.1-.3a.74.74,0,0,1,.45,0c.45.25.72.12.9-.34a13.91,13.91,0,0,0,.53-1.37,1,1,0,0,0,.07-.49c-.06-.64-.14-1.3-.16-1.94,0-.09.06-.23.09-.33v0h0a.33.33,0,0,0,.05-.15c0-.2.19-.45.14-.63s0-.69,0-1c-.07.43-.14.85-.19,1.26a.35.35,0,0,0,0,.13c0-1,0-2,0-2a.7.7,0,0,1,.25.59,8.11,8.11,0,0,1,.23-1c.19-.74-.23-1.56.26-2.28.15-.23,0-.61.09-.93a4.19,4.19,0,0,1,.09-.57c0-.11.15-.24.15-.33,0-.67,0-1.34.05-2,.09-1.7.21-3.39.32-5.11.09-.82.32-1.65.35-2.45,0-1.07,0,2.75.32,1.72a.6.6,0,0,0,0-.3c.13-1.75.21-3.51.43-5.27a1.82,1.82,0,0,1,.91-1.43,9,9,0,0,0,2-1.38,4.07,4.07,0,0,1,2.32-1.06,1.85,1.85,0,0,0,1.16-.68,6.51,6.51,0,0,1,2.87-2.24,9,9,0,0,1,1.23-.64A1,1,0,0,0,248.47,63.07ZM237.88,52.36c.09,0,.34.25.55.39-.24.22-.47.47-.81.81-.2-.32-.39-.54-.35-.61A1.81,1.81,0,0,1,237.88,52.36Zm-12-36c.37-.66.75-1.31,1.17-1.95a1,1,0,0,1,.39-.29c0,.17.19.38.16.48-.27.48-.55.92-.84,1.35s-.51.64-.75,1l-.15,0A1.54,1.54,0,0,1,225.87,16.38Zm5.73,5.93a.61.61,0,0,1,.41.48c0,.17-.25.39-.42.46a.92.92,0,0,1-1.25-.44c-.13-.26-.45-.45-.83-.78A20.49,20.49,0,0,1,231.6,22.31Zm-6.68,3.14a5.36,5.36,0,0,1,2.2-2.61,1.63,1.63,0,0,1,2.48.33,1.77,1.77,0,0,0,.46.31c.13.1.19.19.33.31a2,2,0,0,1-.33.28c-1.48.69-3,1.4-4.49,2.07a2.56,2.56,0,0,1-.79.11A3.53,3.53,0,0,1,224.92,25.45Zm-4.2-5.12c-.09-.45-.17-.9-.28-1.42A.87.87,0,0,1,220.72,20.33Zm-2.29,4.34c-.33.29-.66.6-1,.87a.83.83,0,0,1-.37.11c0-.12,0-.33.07-.41.54-.51,1.11-1,1.65-1.45s.83-.72,1.25-1.05c.1-.11.29-.23.33-.21a.75.75,0,0,1,.21.28,1,1,0,0,1-.84,1.1A2.28,2.28,0,0,0,218.43,24.67ZM186.87,49a2.18,2.18,0,0,0-.27.58c-.07.19,0,.56-.15.58-.34.13-.82.32-1.09.19-.77-.37-.77-.75-.19-1.37a2.3,2.3,0,0,0,.57-.9c.13-.62.65-.64,1.08-.69s.49.45.67.94C187.27,48.59,187.05,48.82,186.87,49Zm-5.62,24.72c-.25.59-.62.57-1.12.14A4.77,4.77,0,0,1,178.2,70a2.85,2.85,0,0,1,.54-1.45,7.9,7.9,0,0,1,1.5-1.4c.13-.11.51-.14.58,0a6.26,6.26,0,0,1,1.39,3.41C182,71.41,181.65,72.61,181.25,73.76ZM192,47c-.22-.35-.47-.61-.49-.81a2.65,2.65,0,0,1,1.84-2.62c.5-.15.95-.45,1.44-.65a1.43,1.43,0,0,1,.5,0c0,.19.08.38,0,.51A28.91,28.91,0,0,1,193.56,46,6.15,6.15,0,0,1,192,47Zm1.14,13.86v2H193a3.07,3.07,0,0,1-.14-.83,33.06,33.06,0,0,1,.24-3.3,5.93,5.93,0,0,0,.46-2.07c0-.07.15-.2.24-.26s.22.09.22.15a5.81,5.81,0,0,1,.24,1.53,19.32,19.32,0,0,1-.35,2.3C193.81,60.79,193.74,61.16,193.1,60.86ZM197,68.12c-.77,1-1.55,2.08-2.37,3.13a1.81,1.81,0,0,0-.28-.12c-.84-1.82,0-3.7-.25-5.67a5.86,5.86,0,0,1,.72.3c.67.46,1.33.94,2,1.4A.64.64,0,0,1,197,68.12Zm36.5-2.66c-.15.9-1.16.85-1.68,1.38h-.26c0-.27-.19-.61-.07-.81.55-1,1.14-1.86,1.75-2.79,0-.05.11-.07.22-.09A4.13,4.13,0,0,1,233.54,65.46Zm2.76-19c0,.18-.32.28-.55.41l-.2-.12-.3,1.51-.17,0a1.32,1.32,0,0,1-.14-.39,9.7,9.7,0,0,0,0-1.7,6.85,6.85,0,0,0-.34-1.35c-.16-.69.07-1,.75-1.11a.69.69,0,0,1,.79.45A3.27,3.27,0,0,1,236.3,46.49ZM215.77,23.63c-.48.44-.88.79-1.36,1.26A1.43,1.43,0,0,0,215.77,23.63ZM214.18,25c-.59.13-.8.63-1.13,1a.46.46,0,0,1,.12.12c.39-.3.78-.63,1.15-.95C214.27,25.16,214.25,25.11,214.18,25Zm-2.6,25.55a.56.56,0,0,0-.64-.64c-.48,0-.65.25-.69.92.16.09.4.38.67.38S211.56,51,211.58,50.57Z"/><path class="cls-2" d="M15.2,52.44a4.93,4.93,0,0,0-1.8-.55.47.47,0,0,0-.39.16c-.46.45-.88.94-1.35,1.39a.33.33,0,0,1-.32.09c-.11-.06-.24-.22-.23-.32a5.32,5.32,0,0,1,.2-1.84,2.62,2.62,0,0,0-.59-2.52,5.3,5.3,0,0,0-.51-.64c-.17-.19-.4-.47-.59-.48-.74-.11-1.53-.36-2.21.21-.09.08-.39,0-.47-.14a5,5,0,0,1-.28-.73,3.76,3.76,0,0,0-.3-.56l-.3.11c.12.49.22,1,.37,1.43a1.8,1.8,0,0,1-.18,1.65,3,3,0,0,0-.41,1.44c0,.51.3,1,.26,1.54-.23,1.63-.53,3.24-.79,4.84-.2,1.27-.38,2.56-.47,3.83-.06.54.29,1.12.15,1.58a2,2,0,0,0,0,1.5,13.35,13.35,0,0,1,.52,1.93c.12.37.36.57.77.26a2.3,2.3,0,0,1,1-.43c.56-.1,1.14,0,1.71-.1s1.29-.06,1.56-.41c.47-.64.77-.31,1.16,0a1.16,1.16,0,0,0,.46.22,6.28,6.28,0,0,0,3.25,0,4.59,4.59,0,0,1,.85-.21,2.68,2.68,0,0,0,2.42-2.55,1.65,1.65,0,0,0-.23-.88A12.09,12.09,0,0,0,17.37,61c.28-.6.48-1.1.7-1.57s.12-.78.36-1c.72-.55.16-1.1.08-1.65,0-.12-.13-.22-.16-.34C18,54.65,16.59,53.48,15.2,52.44ZM7.7,38.28c-.26-.22-.42-.38-.61-.54-.81-.63-1.61-1.23-2.41-1.87a.38.38,0,0,1-.13-.21A4.4,4.4,0,0,0,3.41,34c-.26-.32-.87-.75-.17-1.27.15-.07.1-.36.17-.54a1.38,1.38,0,0,1,.2-.59c.64-.59,1.3-1.13,2-1.68.23-.2.51-.23.66.15a4.11,4.11,0,0,0,2.37,2.34.64.64,0,0,1,.46.81,4,4,0,0,0,.14,2.87c.1.15-.14.49-.23.76s-.18.41-.11.56a11.33,11.33,0,0,0,.88,2,2.07,2.07,0,0,0,.81.67,5.29,5.29,0,0,0,1,.24A2.42,2.42,0,0,0,14,40a2,2,0,0,0,.62-1.59,2.87,2.87,0,0,1,0-1.48,6.31,6.31,0,0,1,1.45-2.39c.11-.09.31-.23.32-.34A30.78,30.78,0,0,0,16.81,31a1.1,1.1,0,0,0-.4-.81,3.38,3.38,0,0,1-1.28-2.53,3.47,3.47,0,0,0-.18-1.3,22.82,22.82,0,0,0-1.34-2.08,3.79,3.79,0,0,0-2.33-.57,2.54,2.54,0,0,1-2.46.05,3.31,3.31,0,0,0-2.57.36,16,16,0,0,0-2.06,1.41,4.36,4.36,0,0,0-1.11.69c-.45.52-.75,1.14-1.14,1.69-.56.84-1.17,1.64-1.72,2.48a1.31,1.31,0,0,0-.21.83,5.38,5.38,0,0,0,1,3.25c.06.08,0,.23.06.39.26.81.46,1.66.76,2.46A1.2,1.2,0,0,0,3.29,38a.82.82,0,0,1,.6.06A4.77,4.77,0,0,0,7.7,38.28ZM22,71c-1.06,1-2.05,2-3,3-2.27,2.33-4.52,4.66-6.81,7-.5.54-.82.51-1.21-.1-.67-1-1.36-2.08-1.95-3.16s-1.15-2.39-1.74-3.56a1.43,1.43,0,0,0-1.39-1,9.73,9.73,0,0,0,0,1.09c.16,1,.43,2,.54,3,.14,1.16.59,2.37,0,3.52a3.32,3.32,0,0,0-.33,1.53,5.13,5.13,0,0,1-.26,2.62,25.67,25.67,0,0,0-1.08,2.59,25.63,25.63,0,0,0-1,2.55,1.27,1.27,0,0,0,.34,1c.2.3.61.43.86.7.68.71,1.29,1.46,1.91,2.18a1.11,1.11,0,0,1,.79.08,12,12,0,0,1,1.49,1.19.68.68,0,0,0,.87.17,7.46,7.46,0,0,1,1.65-.08s.08.08.13.1a2.47,2.47,0,0,0,.54.11,3.41,3.41,0,0,0,.78.11c.3,0,.66.06.82-.11a4,4,0,0,1,2-.74.72.72,0,0,0,.44-.35.89.89,0,0,1,1.17-.52,1.72,1.72,0,0,0,2.12-1.2c.18-.66.41-1.31.57-2a.81.81,0,0,0-.14-.72,8.64,8.64,0,0,1-1.22-1.49c-.52-.73-.64-1.17-.12-1.85a1.57,1.57,0,0,0,.28-.58,13.72,13.72,0,0,1,.61-1.66c.29-.52.59-1.05.2-1.65a.48.48,0,0,1,0-.39c.28-.82.54-1.65.76-2.4-.15-.34-.3-.63-.49-1-1,1-1.9,2-2.84,3a.45.45,0,0,1-.12-.12c.47-.86,1-1.71,1.44-2.59l-.24-.14c-1,1-1.89,2.08-2.89,3.22.15.37.27.83.47,1.34-.22.24-.45.76-.79.83s-.72-.44-1-.67a.75.75,0,0,1-.16-1.13c.51-.64,1-1.3,1.54-1.89.81-.81,1.72-1.56,2.51-2.38C19.6,76.7,21.2,75,22.82,73.17c.11-.12.24-.29.23-.41A2.19,2.19,0,0,1,23.73,71a.78.78,0,0,0,0-1.1A10.27,10.27,0,0,0,22,71Zm37.15,31.38a6.7,6.7,0,0,1-1-1,1,1,0,0,1,.13-.16,4.92,4.92,0,0,0,.58-.13l-.54-1c-.36-.67-.71-1.38-1.08-2-.74-1.37-.3-2.83-.44-4.27a14.57,14.57,0,0,1,.29-2.7c0-.24.07-.48.11-.69.1-.84.17-1.7.29-2.57.11-.67.4-1.34,0-2a2,2,0,0,1-.1-.88c-.06-.6,0-1.19-.06-1.76,0-1-.14-2-.14-3,0-1.88,0-3.77,0-5.68,0-1-.31-1.93-.35-2.92-.09-2.33-.15-4.67-.2-7a8.7,8.7,0,0,1,.18-1.23c.41.06.77.15,1,.21.16-.35.39-.62.37-.9A4.23,4.23,0,0,0,57.84,61a4.57,4.57,0,0,1-.52-2.72c.14-1-.49-1.62-1.32-2.08a4.69,4.69,0,0,1-.75-.73c-.45-.45-.85-.94-1.35-1.37-.31-.26-.6-.41-.43-.92.05-.16-.21-.54-.39-.6a9.19,9.19,0,0,0-2.16-.52,5.51,5.51,0,0,0-2.32.23,27.17,27.17,0,0,0-3.14,1.76c-.38.22-.76.44-1.14.68a14.41,14.41,0,0,0-3,2.95,5.67,5.67,0,0,1-2,1.25c-.76.42-1.77.49-2.24,1.4a4.43,4.43,0,0,0-.69,1.2c-.12.78-.4,1.66.29,2.37,0,0,0,.1,0,.13-.06,1,.34,2.05-.35,3a.88.88,0,0,0,0,.23c0,.47-.09.93-.07,1.39a8.55,8.55,0,0,0,.27,1.41A9.83,9.83,0,0,1,36.91,72c0,1.05-.36,2.13-.43,3.18-.14,1.55-.2,3.07-.3,4.6-.06,1-.21,1.9-.28,2.86a18.31,18.31,0,0,0-.14,1.83c0,.86.11,1.75.14,2.61,0,.62,0,1.21,0,1.85a2.05,2.05,0,0,1-.56,1.77c-.21.18-.21.66-.21,1,.06,1.28.12,2.58.19,3.89A9.72,9.72,0,0,0,35.51,97c.17.93.45,1.85.63,2.8.09.34,0,.8.1,1.1.45,1.05,1,2,1.45,3.07a7.31,7.31,0,0,1,.29.78,3.78,3.78,0,0,0,1.35,1.78,15.08,15.08,0,0,1,2.55,1.73c.66.64,1.28,1.68,2.54,1.21,0,0,.13,0,.19.07a3.12,3.12,0,0,0,3,.18c.7-.18.88-.53.81-1.23,0-.25,0-.52-.07-.78-.23-.86-.43-1.71-.68-2.56a.71.71,0,0,0-.35-.42c-.52-.2-.55-.61-.65-1,0-.22-.14-.4-.16-.63-.07-.77-.78-1.45-.37-2.3a1.7,1.7,0,0,0-.41-2,.5.5,0,0,1-.06-.35,1.44,1.44,0,0,0-.9-1.38c-.6-.06-.87-.46-1.11-1-.12-.28-.25-.58-.4-.86a16.68,16.68,0,0,1-1-2.16c-.25-1-.19-2.13-.52-3.1a9.37,9.37,0,0,1-.43-3,10.71,10.71,0,0,1,.51-2.71c.06-.42.39-.79.48-1.19a18.17,18.17,0,0,0,.3-2.2c0-.32.35-.66,0-1,0,0,.16-.35.29-.52a4.9,4.9,0,0,0,.42-.73c.12-.46.1-.93.21-1.38.19-.74.43-1.5.68-2.22a8.75,8.75,0,0,1,.85-1.56c.26-.37.66-.24.69.23.07.75.9,1.36.48,2.24,0,0,.09.13.27.35.15-.4.35-.67.31-.94-.07-1.12.3-2.28-.33-3.41.77.32,1.49.57,2.18.85a.41.41,0,0,1,.19.46,14.33,14.33,0,0,0-.22,1.68c.19,1.91-.56,3.7-.8,5.53a1.89,1.89,0,0,0,.4,1.92c-.39.07-.74.2-.78.11a2.62,2.62,0,0,1-.34-1c0-.42,0-.86,0-1.29a.79.79,0,0,0-.45-.48c-.64-.14-.84-.39-.73-1.06.05-.29.06-.63.09-.91a1.67,1.67,0,0,1-.31,0c-.13.49-.26,1-.34,1.45-.08.33,0,.7-.08,1a1.86,1.86,0,0,0,.66,2,1,1,0,0,1,.5,1.08,8.66,8.66,0,0,0-.21,2.38,3.3,3.3,0,0,0,.65,1.94,10.41,10.41,0,0,1,1.6,3.15c.13.3.11.75.32,1a20,20,0,0,0,2.08,1.74c.8.56,1.06,1.07.7,1.93a1.6,1.6,0,0,0-.08,1.27c.09.23-.07.57-.16.87s-.25.52-.2.75c.09.7,0,.89-.72,1a5.48,5.48,0,0,1-3-.69c-.25-.1-.47-.16-.84-.27a6.18,6.18,0,0,1,.88,1.46,4.87,4.87,0,0,1,0,1.43.32.32,0,0,1,.2.07c.14-.63,1-.93.69-1.82.33.07.61.16,1.08.28-.33.27-.5.43-.67.58.6.53,1.17,1.06,1.72,1.61.2.18.29.6.49.66.82.28.92,1,1,1.62a3,3,0,0,0,2.16,2.37c.14,0,.29.21.35.38a2.15,2.15,0,0,0,2.81.89c.59-.29,1.11-.73,1.69-1.06a1.53,1.53,0,0,0,.85-1.42.88.88,0,0,1,.08-.31A2.38,2.38,0,0,0,59.13,102.34ZM48.81,70.51c-.31-.67-.59-1.34-.88-2a.12.12,0,0,0,0-.1l.53.27c.17.11.31.24.47.34s.6.15.63.3a8.59,8.59,0,0,1,.16,1.6s-.34.18-.4.13A1.41,1.41,0,0,1,48.81,70.51Zm1.68,11.23c-1.15-.27-1.22-.44-.82-2C50.45,79.77,50.89,80.8,50.49,81.74Zm.8-15.27a5.53,5.53,0,0,1-.66,1.07c-.22.27-.66.11-.78-.23a2.09,2.09,0,0,0-1.62-1.66,3,3,0,0,1-1.3-.52c-.61-.46-1,0-1.56.11s-1,.17-1.46.27c.09-.88.16-1.52.24-2.25a20.71,20.71,0,0,0,4-3.16c.1-.11.42-.22.46-.17.61.5,1.51.6,1.85,1.46.08.26.48.36.59.6A6,6,0,0,1,51.29,66.47Zm-4,11.12V76.15H47c0,.49,0,1,.07,1.44Zm23-42.17c0-.12-.22-.17-.33-.23a8.65,8.65,0,0,1-2.41-1,2.63,2.63,0,0,0-.67-.21c-1.35-.34-2.59.3-3.85.6-1.5.33-2.92.91-4.38,1.33-.54.16-1.15.21-1.74.34a.55.55,0,0,0-.1-.22c1.36-.9,2.08-2.46,3.53-3.27.95-.52,1.81-1.26,2.74-1.86.43-.29.89-.55,1.32-.86.12-.07.27-.28.24-.39A3.32,3.32,0,0,0,64,28.21,4.75,4.75,0,0,0,60.15,27,7.93,7.93,0,0,1,58,27c-.65-.13-.91.1-1,.59a3.9,3.9,0,0,1-1.31,2,10.25,10.25,0,0,0-1.42,1.54c-.21.27-.13.73-.32,1a22.38,22.38,0,0,1-1.58,2.2c-.79.89-1.64,1.68-2.39,2.58-.54.62-1,1.34-1.54,2-.14.18-.43.22-.65.34-.08-.19-.21-.38-.17-.52a12.77,12.77,0,0,1,.61-1.77c.27-.58.88-1.13.85-1.71a1.67,1.67,0,0,1,.6-1.23,1.7,1.7,0,0,1,1.52-.71c0,.27-.08.46-.08.65a1.34,1.34,0,0,0,.12.06c.41-.46,1.18-.53,1.5-1.4l-1.12.35-.16-.11a.88.88,0,0,0,.35-1.41c-.13-.2-.29-.42-.44-.61s-.49-.45-.56-.71c-.26-.77-.66-1.53-.14-2.35a4.2,4.2,0,0,0,.12-.75A3.81,3.81,0,0,1,51.48,25a2.23,2.23,0,0,0,.45-1.45,1.22,1.22,0,0,1,.6-1.28c.26-.18.41-.41.73-.67l-.77.15a.77.77,0,0,1,.89-.69A2.49,2.49,0,0,0,54.83,21a2.69,2.69,0,0,1,1.62-.38,8.43,8.43,0,0,0,3.6-.54c.76-.32,1.52-1.13,2.48-.46l.13-.08c0-.07.06-.17,0-.24-.29-1.73-.58-3.45-.84-5.17,0-.06-.07-.1-.11-.17a6.47,6.47,0,0,1-1.1-1.73,4.31,4.31,0,0,0-1.5-1.94,4.39,4.39,0,0,0-3.77-1c-.49.07-1,.17-1.48.28-.31.06-.6.17-.91.23-.5.07-1,.12-1.5.14-.05,0-.11-.1-.2-.14a6,6,0,0,1-.66-.58c-.45-.4-.81-.85-1.22-1.27s-.6-.59-.94-.86a5.37,5.37,0,0,1-1-.79,1.53,1.53,0,0,1-.33-1.13c.07-.78-.58-1.18-1.19-1.54a3.93,3.93,0,0,0-3.49.18,1.48,1.48,0,0,0-.24.26c0,.09-.13.25-.18.25-.75,0-.72.65-1,1.09-.05.09-.06.2-.13.27-.74.71-.45,1.68-.58,2.52A3.94,3.94,0,0,0,40.9,10,8.18,8.18,0,0,1,41,12.94a4.85,4.85,0,0,1-.65,2c-.21.36-.75.53-1.15.78s-1.1.65-1.68,1a6.74,6.74,0,0,0-1.8,1,19.83,19.83,0,0,1-2.06,1.25c-.87.68-1.82,1.28-2.75,1.91a11.54,11.54,0,0,1-2.4,1.5,6.26,6.26,0,0,0-3.26,2.11c-.57.82-1.13,1.51-2.29,1.44-.16,0-.53.36-.52.48.07.33.22.71.71.68a3.32,3.32,0,0,1,.89,0,.81.81,0,0,1,.51.21c.46.64.89,1.3,1.33,2,.07.11,0,.3,0,.44a3.93,3.93,0,0,0,1,2.7A9.58,9.58,0,0,0,29.13,34a1.14,1.14,0,0,0,1.38-.07,5.52,5.52,0,0,0,.91-1,15.66,15.66,0,0,1,1-1.75c.63-.7.68-1.83,1.71-2.21,0,0,.1-.08.08-.11-.14-.59.45-.64.73-.92a7.49,7.49,0,0,1,1.45-1.12,13.16,13.16,0,0,1,1.93-.72,2.2,2.2,0,0,1,.53-.06,1.68,1.68,0,0,0-.07.73,3.25,3.25,0,0,1,.42,2.12.84.84,0,0,0,0,.52c.32.65-.06,1-.53,1.39a15.88,15.88,0,0,1-5.08,2.47c-.42.08-.74.32-.46.89a2.44,2.44,0,0,1-.6,2,1.13,1.13,0,0,0-.45,1.36,16.32,16.32,0,0,0,1.79,3.83c.82,1.29,3.22,1.71,4.18.72.26-.28.62-.79.83-.74s.63.52.93.8a1.46,1.46,0,0,0,.16.19c.52.6.41.88-.29,1.2a2.24,2.24,0,0,0-.89.65,1.35,1.35,0,0,1-1.26.59c-.24,0-.7.1-.71.2-.09.71-.66.81-1.13,1.09l-1.82,1.15c-.36-.17-.66,0-.83.5a1.31,1.31,0,0,1-.27.35c-1.36,1-2.71,2-4,3a48.79,48.79,0,0,0-3.64,3.25c-.53.51-.86,1.23-1.4,1.71s-1.28.63-1.83,1a3.17,3.17,0,0,0-1.37,2.32,8.12,8.12,0,0,0,.34,2.24A3.54,3.54,0,0,0,23,64.07a8.32,8.32,0,0,1,.8.31c.32.21.56.35.93.08a1.43,1.43,0,0,1,.78-.26c.84,0,1-.13,1.06-1,.07-.33.16-.91.36-1,.94-.22.94-1,1-1.65a2.37,2.37,0,0,1,.92-1.88,2.6,2.6,0,0,0,.38-.43A14,14,0,0,1,31,56.37a62.09,62.09,0,0,1,9.17-6.09,6.5,6.5,0,0,0,1.26-1.1,3,3,0,0,1,.53-.45c1.28-.56,2.56-1.08,3.87-1.61l1.76-.78a5.41,5.41,0,0,0,1-.32c.73-.55,1.42-1.14,2.17-1.7a11.27,11.27,0,0,1,4.52-2.39l0,0c.33-.09.65-.19,1-.27a13.58,13.58,0,0,0,2.06-.46,22.18,22.18,0,0,1,5-1.26c1.4-.21,2.93.12,4.27-.71.76-.51,1.87-.27,2.43-1.27A4.33,4.33,0,0,0,70.23,35.42ZM36.46,46.72a.4.4,0,0,1,.09.21c-1,.65-2,1.3-3.06,2C33.61,48.29,35.78,46.78,36.46,46.72ZM36.33,48c-.49.32-1,.61-1.44.9-.07-.08-.1-.16-.18-.25.48-.32.94-.66,1.41-1C36.18,47.74,36.26,47.83,36.33,48Zm-8.92,5.36c.68-1.08,5.14-4.4,5.85-4.32A51.62,51.62,0,0,1,27.41,53.31Zm4.47-2.44s0,0-.05,0l-.09,0c-.45.46-.9.93-1.4,1.36a1.3,1.3,0,0,1-.71.27,8.58,8.58,0,0,1,2.11-1.63.31.31,0,0,1,.09-.07h.05c.57-.49,1.13-1,1.69-1.47a1.21,1.21,0,0,1,.18.23A3.53,3.53,0,0,1,31.88,50.87Zm2.88-.5a3.9,3.9,0,0,0-.19-.35c1-.49,2-1,3-1.52a.81.81,0,0,0,.15.27A31.68,31.68,0,0,0,34.76,50.37Zm2-2.75c.14-.69.43-.84.91-.65a.29.29,0,0,0,.1.19C37.48,47.29,37.19,47.43,36.78,47.62Zm.33-1.45c.45-.23.91-.49,1.36-.73,0,.08.08.21.12.27C38.11,45.86,37.86,46.57,37.11,46.17Zm3.48,1a1.84,1.84,0,0,1-.17-.38c.56-.23,1.14-.49,1.71-.71a.55.55,0,0,1,.1.22C41.68,46.58,41.11,46.86,40.59,47.16ZM56.82,30a.83.83,0,0,1,.18.56,14.45,14.45,0,0,1-1.55,1.15c-.07,0-.32-.18-.43-.24C55,30.75,56.33,29.79,56.82,30Zm4.87,9.64c-1.83.55-3.64,1.16-5.52,1.67-.4.13-.81.13-1,.58-1.34-.34-2.34.76-3.65.83.08-.59.29-.92.81-1a5.18,5.18,0,0,0,.7-.36c.08,0,.19-.14.26-.13a8.64,8.64,0,0,0,2.56-.62.93.93,0,0,0,.39-.21,1.86,1.86,0,0,1,1.42-.65c1-.1,2-.5,3-.68s1.94-.15,2.92-.22c0,.09,0,.18,0,.26C63,39.31,62.33,39.46,61.69,39.67Zm6.94-1.21c-.26,0-.51-.1-.78-.14A1,1,0,0,1,68,38c.32,0,.71-.15.91.37C68.8,38.41,68.71,38.48,68.63,38.46Z"/><path class="cls-2" d="M123.52,86.3c-.11-.22-.21-.43-.34-.65-.37-.58-.9-1-.86-1.85,0-.31-.13-.89-.3-.91-.75-.13-.71-.76-1-1.24s-.29-.75-.47-1.11a.94.94,0,0,0-.2-.33c-.34-.38-.68-.76-1.12-1.29-.35.08-.75-.65-1.41-.36,0,0-.12-.13-.19-.14-.28-.11-.65-.36-.9-.29a11.22,11.22,0,0,0-3.07,1.16c-.44.33-1.21.21-1.39,1,0,0,0,0-.07,0-1.27-.15-.57,1.31-1.27,1.59a1.39,1.39,0,0,1,.11.37c0,.3,0,.59,0,.91a5.54,5.54,0,0,0,0,.72,2.5,2.5,0,0,0,.14.46c.11.27.15.59.34.76.38.32.44.63.15,1-.66.8-.82,2-1.87,2.45-.07,0-.09.18-.14.28a3.45,3.45,0,0,1-.63.88,4.12,4.12,0,0,1-1.47.72,1.69,1.69,0,0,1-1-.24,4.1,4.1,0,0,0-2.22-.72,15.24,15.24,0,0,0-2.52-.16,5.92,5.92,0,0,0-3,1.2.89.89,0,0,0-.25.26c-.33.51-.62,1-1,1.51-.17.3-.39,2.19-.14,2.38.6.51.23,1.12.33,1.67.13.93-.19,1.91.64,2.67a5.56,5.56,0,0,1,.83,1.41,6.4,6.4,0,0,0,1.56,1.93c.88.57,1.49,1.45,2.55,1.79.67.2.87.36,1.24-.29a2.09,2.09,0,0,1,1.52-1.13,9.55,9.55,0,0,1,1.41-.1c.41,0,.58-.16.37-.57a.71.71,0,0,1-.14-.34c-.13-1-.29-2-.37-3a.76.76,0,0,1,.43-.56,1.33,1.33,0,0,1,1.79.54c.47.61,1,1.2,1.47,1.78a2.69,2.69,0,0,0,.27.2c.5.36,1,.66,1.49,1a5.8,5.8,0,0,0,3.32,1.48c.47,0,.94.12,1.41.13a1.06,1.06,0,0,0,.31,0c.5,0,.81-.38,1.21-.5.62-.25.66-.68.82-1.16.25-.88.54-1.73.87-2.58.22-.46.6-.84.81-1.31.29-.73.46-1.48.78-2.2a3.82,3.82,0,0,0-.1-3.27,5.75,5.75,0,0,1-.3-1.56c0-.15.18-.43.28-.43.64,0,1.24.07,1.86.13a.86.86,0,0,0,.52-.13c.55-.7.4-1.39-.35-2.29A11.94,11.94,0,0,1,123.52,86.3Zm-5,12.47c-.43-.22-.93-.34-.58-1,.07-.1-.1-.33-.1-.53a1.52,1.52,0,0,1,.53-1.29c.14-.07.23-.24.38-.31a2.39,2.39,0,0,1,.57-.2c0,.18,0,.36,0,.56,0,0-.06.12-.13.3.16.08.33.16.55.29C119.27,97.38,118.89,98.06,118.47,98.77Zm-22.39-1c-.19,0-.37.3-.55.47.18.18.34.36.62.68.18-.32.39-.52.38-.68S96.21,97.71,96.08,97.75Zm53.33-11.84a8.5,8.5,0,0,0-2-2.35,7.18,7.18,0,0,0-3.31-1.26,8.79,8.79,0,0,0-1.36.23,1.94,1.94,0,0,0-1.85,1.78c0,.53-.25.6-.76.47A1.36,1.36,0,0,0,139,85a4.19,4.19,0,0,0-1,1.34c-.23.45-.38,1,.17,1.35a.68.68,0,0,1,.15.39c0,.38-.19.81,0,1.08.47,1-.46,1.89,0,2.79a.47.47,0,0,1,0,.12c-.19.69-.35,1.42-.55,2.1a1.57,1.57,0,0,0,.18,1.55,7.56,7.56,0,0,0,3.51,2.48,12.74,12.74,0,0,0,1.95.65,6.37,6.37,0,0,0,1.58.14c.81,0,.56-.83.87-1.2.13-.14.09-.35.19-.5s.35-.45.56-.45c1,0,1-1,1.46-1.43s.22-1,.34-1.44c.29-1.16.6-2.33.91-3.46.2-.78.44-1.55.62-2.16A9.13,9.13,0,0,0,149.41,85.91Zm-37-22.73.07.19c.51-.2,1-.4,1.51-.64a1.38,1.38,0,0,1-.08-.27C113.44,62.69,112.93,63,112.44,63.18ZM139.61,40.3a6.36,6.36,0,0,0-.62-.19,2.58,2.58,0,0,0-.33-.1,1.62,1.62,0,0,1,.68-.3c1-.24,1-.24,1.61.66.26.43.65.53.92.13a5.31,5.31,0,0,0,.74-1.62c.09-.42.17-.49.5-.21a.82.82,0,0,0,.28.1A1.7,1.7,0,0,0,142.1,38a1.47,1.47,0,0,1-1.69-1c-.1-.22-.21-.41-.34-.64-.35.32-.63.76-.94.83a26.33,26.33,0,0,1-3,.4c-1.15.1-2.27.15-3.41.36s-2.27.57-3.4.83c-.65.18-1.35.29-2,.42-1.2.33-2.41.67-3.63,1-.42.09-.87.15-1.51.26.23-.37.39-.59.51-.82a5.07,5.07,0,0,0,.63-1.51,4.73,4.73,0,0,1,1.4-3.8,1.25,1.25,0,0,0,.47-1.34,1.35,1.35,0,0,1,.1-.61c.61-1.35,1.18-2.74,1.83-4.07A19.53,19.53,0,0,0,128.85,24a34,34,0,0,1,1.08-3.33,4.63,4.63,0,0,0,.3-1.45c0-.85-.14-1.7-.14-2.54a6.48,6.48,0,0,0-1.91-4.34,4.79,4.79,0,0,0-1-.82,17.1,17.1,0,0,0-1.92-1.15c-.51-.21-1.12-.19-1.55-.52A4.15,4.15,0,0,0,121.37,9c-.38,0-.79,0-1.19-.06a12.83,12.83,0,0,0-4.78.68c-1.9.62-3.7,1.51-5.58,2.27-1.6.66-3.18,1.3-4.78,1.94-.74.31-1.44.6-2.19.88-.6.23-1.18.43-1.78.71-.06,0-.12.15-.14.25a4.56,4.56,0,0,0-.26,1.06c0,.64-.42.81-.89.85a4.66,4.66,0,0,1-1.33-.13c-.48-.07-.86,0-1.07.51-.09.24-.41.54-.62.51a2.37,2.37,0,0,0-1.83,1q-1.47,1.41-2.82,2.85c-.32.29-.54.68-.83,1a3.78,3.78,0,0,0-.62,1.84c.1.62.14,1.23.2,1.88a9.33,9.33,0,0,0,.08,2.47c.56,1.43,1.11,2.87,1.72,4.31.19.45.48,1,1.23.85.1,0,.26.16.35.29a3.61,3.61,0,0,1,.36.74c.38.79.77,1.59,1.86,1.53.18,0,.38.17.57.28.5.32,1,.62,1.51.94a16.66,16.66,0,0,1,1.58,1.13,9.6,9.6,0,0,1,1.1,1.2c.61.73,1.21,1.44,1.78,2.18a.53.53,0,0,1,.12.25c.3.74.7,1.08,1.34,1s1.25-.11,1.25-1a.3.3,0,0,1,.19-.23c.69-.26.82-.92,1.09-1.46.42-.78,1.94-1.11,2.37-.43a12.77,12.77,0,0,1,.81,2.65c-.42-.36-.71-.57-1.14-.92,0,.36.07.61.07.84s-.12.4-.17.61l-.2-.07c0-.31,0-.6-.06-.89h-.15a2,2,0,0,1-.2.57c-.08.21-.18.53-.37.6-1.69.57-3.43,1.14-5.15,1.69q-2.34.7-4.7,1.38c-.48.14-.94.24-1.4.37-.66.22-1.31.45-1.92.68-.42.1-.85.2-.5.79,0,0,0,.22-.09.29a6,6,0,0,1-.94,1,1.09,1.09,0,0,1-.76,0,.78.78,0,0,1-.1-.63c.54-.62,0-1-.28-1.54-.21.69-.42,1.39-.62,2.15a1.67,1.67,0,0,0-1.8-.22,3.71,3.71,0,0,1-1.43.31c-.43,0-.85-.25-1.28-.25a1.4,1.4,0,0,0-1,.39,7.05,7.05,0,0,0-.88,1.86,1.36,1.36,0,0,0,1.46,1.84c.11,0,.21.11.33.18-.11.11-.2.29-.28.27a9.54,9.54,0,0,1-1.3-.33c-.29-.1-.61-.31-.92-.43l-.19.11a25.84,25.84,0,0,0,.59,3.39c.13.46.72.82,1.16,1.29.09-.18.13-.39.21-.56.42-.89.27-2.16,1.59-2.52a2.61,2.61,0,0,1,1-.06c1.43.25,2.2-1.11,3.38-1.48.94-.31,1.41-1.49,2.43-1.87a2.59,2.59,0,0,1,1.13-.32,1.88,1.88,0,0,0,.54-.1c1-.37,2-.78,3.11-1.11,2.16-.64,4.35-1.2,6.51-1.83,1.32-.39,2.62-.91,4-1.33a19.63,19.63,0,0,1,3.39-1,37.87,37.87,0,0,0,5.51-1.59c.73-.2,1.43-.51,2.18-.7,1.05-.29,2.14-.51,3.2-.75,1.89-.42,3.76-.87,5.67-1.27,2.79-.52,5.58-1,8.35-1.52A9,9,0,0,0,139.61,40.3ZM95.23,34.79a3.91,3.91,0,0,1-1.11-.67,3.19,3.19,0,0,1-.43-1.43c-.07-.79-.07-1.59-.07-2.4,0-.39,0-.71-.39-.92-.12-.05-.19-.24-.28-.4a.77.77,0,0,0,.12-.13,6.45,6.45,0,0,1,1.37.82,2.56,2.56,0,0,1,.42,1.27c.07.48,0,1,0,1.46a1.68,1.68,0,0,0,.19.68C95.68,33.83,95.68,33.83,95.23,34.79Zm8.9-8.7c-1,.59-1.76.15-1.92-1a4,4,0,0,0-.6-1.56,2.09,2.09,0,0,1,1.19-2.88c.08,0,.1,0,.18,0l3.61-1.77c1.39-.64,2.69-1.53,4.34-1.5a11.78,11.78,0,0,0,3.81-1.17,4.31,4.31,0,0,1,3.45,0c.31.16.49.72.59,1.13.19.62.24,1.25.33,1.64,0,1.1-.26,1.4-1.13,1.57a.91.91,0,0,0-.29.1,6.23,6.23,0,0,1-3.25,1.2,19.85,19.85,0,0,0-2.54.7c-.23.08-.38.42-.63.49a17.67,17.67,0,0,1-1.78.59,16.81,16.81,0,0,0-4.82,2.07C104.47,25.83,104.3,26,104.13,26.09ZM114,32.71c-.74-.12-1,.42-1.29.9a.81.81,0,0,1-.38.29c-.56.37-1.16.68-1.66,1.08a2.88,2.88,0,0,1-2.41.65,9.3,9.3,0,0,0-2.41,0,1.93,1.93,0,0,1-1.31-.36c.14-.55.25-1,.4-1.42.05-.12.21-.34.27-.33.76.21,1-.55,1.46-.8a13.14,13.14,0,0,0,1.5-1,2,2,0,0,0,.56-.68,4.54,4.54,0,0,1,2.78-1.58,6.69,6.69,0,0,1,1.13-.42,3.62,3.62,0,0,1,.84-.12c.1,0,.26.08.34,0a12.46,12.46,0,0,1,1.3-.89,4.88,4.88,0,0,1,1.7-.6c.81-.09,1,.82.66,1.61-.09.23-.35.42-.51.63s-.31.69-.56.82c-.69.34-.64,1.4-1.56,1.47-.13,0-.23.14-.35.24S114.16,32.72,114,32.71Zm3.58,8.65a4.58,4.58,0,0,1-1.62,0,2.15,2.15,0,0,1-1-1.16,3.41,3.41,0,0,1-.19-1.65c0-.26.39-.54.65-.74a1,1,0,0,1,.67-.13c.26,0,.63.1.72.26a9.71,9.71,0,0,0,2.25,2.87c.07,0,.1.1.24.28C118.7,41.16,118.16,41.31,117.6,41.36Zm9.75,14.36a.79.79,0,0,1-.13-.41c.08-.46-.2-.66-.51-.86a4.39,4.39,0,0,0-2.22-.77c-.59-.1-.84-.32-.81-1a1.61,1.61,0,0,0-.31-1,4.56,4.56,0,0,0-1.1-1,1.43,1.43,0,0,0-.81-.07,8.81,8.81,0,0,1-1.22.33,11.2,11.2,0,0,0-4.57,1c-.6.26-1.23.47-1.83.69s-1.46.62-2.17.9L108.16,55a2.85,2.85,0,0,1-1.64.07,3.05,3.05,0,0,0-3,1.24.94.94,0,0,1-1.54.18c-.49-.4-.87-.93-1.52-.79a12.48,12.48,0,0,0-.43-1.44c-.07-.18-.39-.42-.57-.36a.9.9,0,0,0-.5.53c-.08.69,0,1.35-.09,2s.36,1.45-.64,1.73c-.1,0-.18.3-.18.44,0,.38-.23.49-.47.42-.53-.18-.83.12-1.23.34a1.4,1.4,0,0,1-.76.27c-.93.06-1.26.35-1.31,1.29a1.4,1.4,0,0,1-.11.35,2.52,2.52,0,0,0,.78,2.06,2.18,2.18,0,0,1,.46,1c.09.3,0,.65.09,1a13.92,13.92,0,0,0,.35,1.49A17.26,17.26,0,0,0,96.76,70a35.68,35.68,0,0,0,2.7,4.76,7.1,7.1,0,0,0,2.28,2.67c.16,0,.22.3.3.47a4.68,4.68,0,0,0,.72,1.34c.95,1,2.47.69,3.57,1.41,0,0,0,0,0,0,1.34-.07,2.65-.14,4-.28.2,0,.42-.24.63-.38s.37-.27.55-.42A5.69,5.69,0,0,0,113,78.24a4.49,4.49,0,0,1,1.59-1.4,12.34,12.34,0,0,1,2.08-1,7.5,7.5,0,0,0,.91-.42c1.1-.67,1.87-.71,2.74.54.22.31.43.65.86.22,0-.08.23,0,.37,0a5.16,5.16,0,0,1,.66.23c0-.35.06-.59.09-.87l1.33.43a2.87,2.87,0,0,0,.18-.4,21.19,21.19,0,0,1,.83-2.91,19.37,19.37,0,0,0,1.12-3.09c.37-1.47,1-2.86,1.34-4.3a29.52,29.52,0,0,0,.6-3.2c.08-.5.21-1,.26-1.53a9.09,9.09,0,0,0,.19-2.25A5.46,5.46,0,0,0,127.35,55.72Zm-9.92,12.64a4.85,4.85,0,0,0-.8,2.06c-.27.81-.94,1-1.54,1.25-.22.09-.43.18-.65.25s-.24.09-.29.06c-.45-.35-.91-.67-1.36-1-.06,0-.06-.19,0-.29s.15-.39.25-.73a2.35,2.35,0,0,0,.47-.15c-.14-.33-.28-.65-.42-1,.5-.23.92-.63,1.6-.46.35.09.78-.21,1.28-.36.28.29.72.1,1.18,0,.15,0,.3,0,.44,0C117.54,68.05,117.54,68.25,117.43,68.36ZM120,59.77a.9.9,0,0,0-1.17.39,2.35,2.35,0,0,1-1.09.51c-.61.21-1.22.38-1.8.55.32.81.37.81,1,.32.26-.16.45-.54.88-.26.07.07.32-.17.67-.18a1.53,1.53,0,0,1-.21.51,1.47,1.47,0,0,1-.62.29,28.1,28.1,0,0,0-4.46,1.66l-2.42.94a1.39,1.39,0,0,0-.4.21.87.87,0,0,0,.05.19l6-2.22s0,.08.09.1c-.12.16-.18.39-.32.42a9.22,9.22,0,0,1-2.69,1.27,1.36,1.36,0,0,0-.49.11c-.64.8-1.64.6-2.48.84-.65.2-.59-.46-.88-.72s-.29-.44-.49-.57c-.5-.31-.53-.57,0-.89.32-.19.52-.49.83-.65a6.33,6.33,0,0,1,1.09-.36c.15,0,.45,0,.52-.11.44-.8,1.27-1,2-1.36,1.26-.56,2.51-1.13,3.8-1.67a13.39,13.39,0,0,1,1.75-.63c.74-.25,1-.05,1,.72C120.06,59.35,120,59.54,120,59.77Zm1-6.22a6.76,6.76,0,0,0-3.28.78c-2.22.86-4.39,1.85-6.64,2.64a16.6,16.6,0,0,1-3,.6c-.08-1.29,0-1.36,1.08-1.83a3.55,3.55,0,0,1,1.44-.27,6.55,6.55,0,0,0,1.89-.68,4.61,4.61,0,0,1,1.15-.46,1.88,1.88,0,0,0,1.48-.75c.07-.13.33-.13.47-.24s.41-.22.47-.39c.15-.4.32-.4.55-.15s.35.2.61,0,.6-.2.92-.24c.13,0,.34.07.41,0a2.68,2.68,0,0,1,2.19-.66c.07,0,.16,0,.25,0,.75-.05.92.09.94.77A1.09,1.09,0,0,1,121,53.55Zm2.25-.21a2.32,2.32,0,0,1-.64-.45c0-.07.08-.31.11-.49l.75.62C123.43,53.12,123.34,53.24,123.27,53.34Z"/></g></g></svg>