<svg width="863" height="1080" viewBox="0 0 863 1080" fill="none" stroke="#DCDCDD" xmlns="http://www.w3.org/2000/svg">
<path d="M10,163.7c0,0,416.2,154,416.2,368.5c0,0,5.4,232.6-425.3,380.6"/>
<path d="M10,83.4c0,0,394.3,170.1,419.1,432c0,0,57.8,240-419.1,477.2"/>
<path d="M126.9-24c0,0,309.6,276,306.1,539.4c0,0,54.8,236.7-308.2,588.6"/>
<path d="M434-21.2V1104"/>
<path d="M852.8,163.7c0,0-416.2,154-416.2,368.5c0,0-5.4,232.6,425.3,380.6"/>
<path d="M852.8,83.4c0,0-394.3,170.1-419.1,432c0,0-57.8,240,419.1,477.2"/>
<path d="M735.9-24c0,0-309.6,276-306.1,539.4c0,0-54.8,236.7,308.2,588.6"/>
</svg>
