<svg width="863" height="1080" viewBox="0 0 863 1080" fill="none" xmlns="http://www.w3.org/2000/svg">
<path d="M10.031 163.657C10.031 163.657 426.221 317.665 426.221 532.146C426.221 532.146 431.625 764.721 0.873047 912.748" stroke="#DCDCDD" stroke-miterlimit="10"/>
<path d="M10.0317 83.4446C10.0317 83.4446 404.378 253.507 429.13 515.412C429.13 515.412 486.923 755.433 10.0317 992.629" stroke="#DCDCDD" stroke-miterlimit="10"/>
<path d="M126.939 -24C126.939 -24 436.575 251.996 433.048 515.397C433.048 515.397 487.892 752.08 124.876 1104" stroke="#DCDCDD" stroke-miterlimit="10"/>
<path d="M434.038 -21.2209V1104" stroke="#DCDCDD" stroke-miterlimit="10"/>
<path d="M852.847 163.657C852.847 163.657 436.658 317.665 436.658 532.146C436.658 532.146 431.254 764.721 862.005 912.748" stroke="#DCDCDD" stroke-miterlimit="10"/>
<path d="M852.846 83.4446C852.846 83.4446 458.5 253.507 433.748 515.412C433.748 515.412 375.955 755.433 852.846 992.629" stroke="#DCDCDD" stroke-miterlimit="10"/>
<path d="M735.918 -24C735.918 -24 426.303 251.996 429.83 515.397C429.83 515.397 374.986 752.08 738.002 1104" stroke="#DCDCDD" stroke-miterlimit="10"/>
</svg>
