<?xml version="1.0" encoding="utf-8"?>
<!-- Generator: Adobe Illustrator 26.5.0, SVG Export Plug-In . SVG Version: 6.00 Build 0)  -->
<svg version="1.1" id="圖層_1" xmlns="http://www.w3.org/2000/svg" xmlns:xlink="http://www.w3.org/1999/xlink" x="0px" y="0px"
	 viewBox="0 0 136 53" style="enable-background:new 0 0 136 53;" xml:space="preserve">
<style type="text/css">
	.st0{fill:#FFFFFF;}
</style>
<path class="st0" d="M0,11.3V1.1h0.8v9.5h4.6v0.7L0,11.3L0,11.3z M9.9,11.5c-3.4,0.1-4.5-4.6-2.5-6.8c2.3-2.5,5.8-0.2,5.1,3H7.3
	c-0.1,2.6,2.7,4,4.7,2.5l0.3,0.6C11.5,11.3,10.7,11.5,9.9,11.5L9.9,11.5z M7.3,7.1h4.6C12.1,3.3,7.4,3.7,7.3,7.1L7.3,7.1z M16,11.5
	c-2.3,0.2-3-2.9-1-3.9c0.7-0.4,1.9-0.7,3.6-0.9c0.2-2.8-2.5-2.7-4.1-1.4l-0.4-0.6c6.1-3.5,5.3,2.8,5.2,6.7h-0.7l-0.1-0.9h0
	C17.7,11.1,16.8,11.5,16,11.5L16,11.5z M16.2,10.8c1,0,1.6-0.5,2.4-1.2V7.2c-2,0.4-3.7,0.3-4,2.2C14.6,10.4,15.3,10.8,16.2,10.8z
	 M22,11.3V3.8h0.7l0.1,1.4h0c0.5-1.1,1.7-2,2.9-1.4l-0.2,0.7c-3.6-1-2.6,4.9-2.7,6.8L22,11.3L22,11.3z M27,11.3V3.8h0.7L27.8,5h0
	c1.7-2,5-1.8,4.8,1.6c0,0,0,4.8,0,4.8h-0.8c-0.1-2.9,0.9-10-4-5.6v5.6H27z M38.6,11.3V4.5h-1V3.9l1-0.1c-0.2-2.2,0.3-4.7,3-3.6
	l-0.2,0.6c-2.1-1-2.1,1.4-2,3h1.7v0.7h-1.7v6.8H38.6z M42.6,11.3V3.8h0.7l0.1,1.4h0c0.5-1.1,1.7-2,2.9-1.4l-0.2,0.7
	c-3.6-1-2.6,4.9-2.7,6.8L42.6,11.3L42.6,11.3z M50.2,11.5c-4.5,0.1-4.5-7.9,0-7.8C54.7,3.6,54.7,11.6,50.2,11.5z M48.4,9.9
	c2.9,3.1,5.8-2.2,3.6-4.6C49.2,2.2,46.3,7.5,48.4,9.9z M55.8,11.3V3.8h0.7L56.6,5h0C58,3.3,60.4,3.1,61,5.2c1.9-2.4,4.8-2,4.8,1.4
	c0,0,0,4.8,0,4.8H65c0-2.6,0.9-10.1-3.8-5.6v5.6h-0.8c0-2.6,0.9-10.1-3.8-5.6v5.6L55.8,11.3L55.8,11.3z M71.4,14.7
	c-0.3,0-0.6-0.1-0.8-0.1l0.2-0.7c1.4,0.6,2.3-0.9,2.7-2.4l-3.1-7.6h0.9c0.5,1.4,2.1,5.4,2.5,6.7h0.1c0.4-1.4,1.7-5.2,2.2-6.7h0.8
	l-2.9,8.3C73.4,13.8,72.5,14.7,71.4,14.7z M81.3,11.5c-3.4,0.1-4.5-4.6-2.5-6.8c2.3-2.5,5.8-0.2,5.1,3h-5.3c-0.1,2.6,2.7,4,4.7,2.5
	l0.3,0.6C82.9,11.3,82.1,11.5,81.3,11.5L81.3,11.5z M78.6,7.1h4.6C83.5,3.3,78.7,3.7,78.6,7.1L78.6,7.1z M87.8,11.5
	c-1,0-1.9-0.3-2.7-1l0.4-0.6c1.4,1.7,5.6,0.8,3.5-1.5c-0.5-0.4-2.4-0.9-2.8-1.3c-2.6-2.4,1.9-4.7,3.9-2.6L89.6,5
	c-1.3-1.5-4.7-0.3-2.9,1.5c0.5,0.4,2.5,0.9,2.9,1.4C91.3,9.3,89.8,11.7,87.8,11.5L87.8,11.5z M94.1,11.5c-3.1,0.2-1.6-5.2-1.9-7H91
	V3.9l1.2-0.1l0.1-2.2H93v2.2h2.1v0.7H93v4.7c-0.1,1.4,1,1.9,2.1,1.3l0.2,0.6C94.8,11.4,94.4,11.5,94.1,11.5L94.1,11.5z M99.6,11.5
	c-3.4,0.1-4.5-4.6-2.5-6.8c2.3-2.5,5.8-0.2,5.1,3h-5.3c-0.1,2.6,2.7,4,4.7,2.5l0.3,0.6C101.2,11.3,100.4,11.5,99.6,11.5L99.6,11.5z
	 M96.9,7.1h4.6C101.8,3.3,97,3.7,96.9,7.1L96.9,7.1z M104.3,11.3V3.8h0.7l0.1,1.4h0c0.5-1.1,1.7-2,2.9-1.4l-0.2,0.7
	c-3.6-1-2.6,4.9-2.7,6.8L104.3,11.3L104.3,11.3z M111.6,11.5c-5.8-0.2-2.5-11.2,2.4-6.9C114,3.7,114,1.1,114,0.2h0.8v11.1h-0.7
	l-0.1-0.9h0C113.2,11.1,112.5,11.5,111.6,11.5z M111.7,10.8c0.7,0,1.5-0.4,2.2-1.2V5.3C110,1.4,107.1,10.4,111.7,10.8z M119.2,11.5
	c-2.3,0.2-3-2.9-1-3.9c0.7-0.4,1.9-0.7,3.6-0.9c0.2-2.8-2.5-2.7-4.1-1.4l-0.4-0.6c6.1-3.5,5.3,2.8,5.2,6.7H122l-0.1-0.9h0
	C120.9,11.1,120.1,11.5,119.2,11.5L119.2,11.5z M119.4,10.8c1,0,1.6-0.5,2.4-1.2V7.2c-2,0.4-3.7,0.3-4,2.2
	C117.9,10.4,118.5,10.8,119.4,10.8z M125.1,14.7c-0.3,0-0.6-0.1-0.8-0.1l0.2-0.7c1.4,0.6,2.3-0.9,2.7-2.4l-3-7.6h0.9
	c0.5,1.4,2.1,5.4,2.5,6.7h0.1c0.4-1.4,1.7-5.2,2.2-6.7h0.8l-2.9,8.3C127.1,13.8,126.2,14.7,125.1,14.7z M131.4,13.8l-0.2-0.5
	c0.8-0.4,1.2-1.1,1.2-1.9c-1,0.2-1.2-1.4-0.1-1.4C134,10.5,132.7,13.3,131.4,13.8L131.4,13.8z M51.8,30.3c-0.7,0-1-0.4-1-1.3V19h0.8
	v10.1c0,0.5,0.2,0.6,0.6,0.5l0.1,0.6C52.1,30.3,52,30.3,51.8,30.3L51.8,30.3z M54.9,20.9c-0.9,0-0.9-1.4,0-1.3
	C55.8,19.6,55.8,20.9,54.9,20.9z M54.5,30.1v-7.5h0.8v7.5H54.5z M59.7,30.1l-2.8-7.5h0.9c0.5,1.4,1.9,5.5,2.4,6.7h0.1
	c0.6-1.7,1.8-5.1,2.4-6.7h0.8l-2.7,7.5H59.7z M67.8,30.3c-3.4,0.1-4.5-4.6-2.5-6.8c2.3-2.5,5.8-0.2,5.1,3h-5.3
	c-0.1,2.6,2.7,4,4.7,2.4l0.3,0.6C69.4,30.1,68.6,30.3,67.8,30.3L67.8,30.3z M65.2,25.9h4.6C70,22.1,65.3,22.5,65.2,25.9L65.2,25.9z
	 M75.7,30.1v-6.8h-1v-0.6l1-0.1c-0.2-2.2,0.3-4.7,3-3.6l-0.2,0.6c-2.1-1-2.1,1.4-2,3h1.7v0.7h-1.7v6.8H75.7z M82.4,30.3
	c-4.5,0.1-4.5-7.9,0-7.8C86.8,22.4,86.9,30.4,82.4,30.3z M80.6,28.7c2.9,3.1,5.8-2.2,3.6-4.6C81.3,21,78.4,26.3,80.6,28.7z
	 M87.9,30.1v-7.5h0.7l0.1,1.4h0c0.5-1.1,1.7-2,2.9-1.4l-0.2,0.7c-3.6-1-2.6,4.9-2.7,6.8L87.9,30.1L87.9,30.1z M98.2,30.3
	c-3.1,0.2-1.6-5.2-1.9-7h-1.2v-0.6l1.2-0.1l0.1-2.2h0.7v2.2h2.1v0.7h-2.1V28c-0.1,1.4,1,1.9,2.2,1.3l0.2,0.6
	C98.9,30.2,98.5,30.3,98.2,30.3L98.2,30.3z M103.6,30.3c-4.5,0.1-4.5-7.9,0-7.8C108,22.4,108.1,30.4,103.6,30.3z M101.8,28.7
	c2.9,3.1,5.8-2.2,3.6-4.6C102.5,21,99.6,26.3,101.8,28.7z M111.6,30.3c-5.8-0.2-2.5-11.2,2.4-6.9c-0.1-0.9-0.1-3.5-0.1-4.4h0.8v11.1
	h-0.7l-0.1-0.9h0C113.2,29.9,112.5,30.3,111.6,30.3z M111.7,29.6c0.7,0,1.5-0.4,2.2-1.2v-4.3C110,20.2,107.1,29.2,111.7,29.6z
	 M119.2,30.3c-2.3,0.2-3-2.9-1-3.9c0.7-0.4,1.9-0.7,3.6-0.9c0.2-2.8-2.5-2.7-4.1-1.4l-0.4-0.6c6.1-3.5,5.3,2.8,5.2,6.7H122l-0.1-1h0
	C120.9,29.9,120.1,30.3,119.2,30.3L119.2,30.3z M119.4,29.6c1,0,1.6-0.5,2.4-1.2V26c-2,0.4-3.7,0.3-4,2.2
	C117.9,29.2,118.5,29.6,119.4,29.6z M125.1,33.5c-0.3,0-0.6-0.1-0.8-0.2l0.2-0.7c1.4,0.6,2.3-0.9,2.7-2.4l-3-7.6h0.9
	c0.5,1.4,2.1,5.4,2.5,6.7h0.1c0.4-1.4,1.7-5.2,2.2-6.7h0.8l-2.9,8.3C127.1,32.6,126.2,33.5,125.1,33.5z M131.4,32.6l-0.2-0.5
	c0.8-0.4,1.2-1,1.2-1.9c-1,0.2-1.2-1.4-0.1-1.4C134,29.3,132.7,32.1,131.4,32.6L131.4,32.6z M16.1,48.9V37.8h0.8v4.8
	c1.7-2.1,5-1.8,4.8,1.5c0,0,0,4.8,0,4.8h-0.8c-0.1-2.9,0.9-10-4-5.6v5.6L16.1,48.9L16.1,48.9z M27.1,49.1c-4.5,0.1-4.5-7.9,0-7.8
	C31.6,41.2,31.6,49.2,27.1,49.1z M25.3,47.5c2.9,3.1,5.8-2.2,3.6-4.6C26.1,39.8,23.1,45.1,25.3,47.5z M32.7,52.2V41.5h0.7l0.1,0.9h0
	c7.3-5.5,7.1,10.7,0,5.8c0,0.9,0,3.2,0,4.1H32.7z M35.6,48.4c4.6-0.6,2.3-9.7-2.1-5.2v4.3C34.2,48.1,34.9,48.4,35.6,48.4z M44,49.1
	c-3.4,0.1-4.5-4.6-2.5-6.8c2.3-2.5,5.8-0.2,5.1,3h-5.3c-0.1,2.6,2.7,4,4.7,2.5l0.3,0.6C45.6,48.9,44.8,49.1,44,49.1L44,49.1z
	 M41.3,44.7h4.6C46.2,40.9,41.4,41.3,41.3,44.7L41.3,44.7z M51.9,48.9v-6.8h-1v-0.6l1-0.1c-0.2-2.2,0.3-4.7,3-3.6l-0.2,0.6
	c-2.1-1-2.1,1.4-2,3h1.7v0.7h-1.7v6.8H51.9z M58.5,49.1c-4.5,0.1-4.5-7.9,0-7.8C63,41.2,63,49.2,58.5,49.1z M56.7,47.5
	c2.9,3.1,5.8-2.2,3.6-4.6C57.5,39.8,54.6,45.1,56.7,47.5z M64.1,48.9v-7.5h0.7l0.1,1.4h0c0.5-1.1,1.7-2,2.9-1.4l-0.2,0.7
	c-3.6-1-2.6,4.9-2.7,6.8L64.1,48.9L64.1,48.9z M74.3,49.1c-3.1,0.2-1.6-5.2-1.9-7h-1.2v-0.6l1.2-0.1l0.1-2.2h0.7v2.2h2.1v0.7h-2.1
	v4.7c-0.1,1.4,1,1.9,2.2,1.3l0.2,0.6C75.1,49,74.7,49.1,74.3,49.1L74.3,49.1z M79.7,49.1c-4.5,0.1-4.5-7.9,0-7.8
	C84.2,41.2,84.2,49.2,79.7,49.1z M77.9,47.5c2.9,3.1,5.8-2.2,3.6-4.6C78.7,39.8,75.8,45.1,77.9,47.5z M85.3,48.9v-7.5H86l0.1,1.1h0
	c1.4-1.7,3.8-1.9,4.4,0.2c1.9-2.4,4.8-2,4.8,1.4c0,0,0,4.8,0,4.8h-0.8c0-2.6,0.9-10.1-3.8-5.6v5.6h-0.8c0-2.6,0.9-10.1-3.8-5.6v5.6
	L85.3,48.9L85.3,48.9z M100.7,49.1c-4.5,0.1-4.5-7.9,0-7.8C105.2,41.2,105.2,49.2,100.7,49.1z M98.9,47.5c2.9,3.1,5.8-2.2,3.6-4.6
	C99.7,39.8,96.7,45.1,98.9,47.5z M106.3,48.9v-7.5h0.7l0.1,1.4h0c0.5-1.1,1.7-2,2.9-1.4l-0.2,0.7c-3.6-1-2.6,4.9-2.7,6.8L106.3,48.9
	L106.3,48.9z M111.3,48.9v-7.5h0.7l0.1,1.4h0c0.5-1.1,1.7-2,2.9-1.4l-0.2,0.7c-3.6-1-2.6,4.9-2.7,6.8L111.3,48.9L111.3,48.9z
	 M118.9,49.1c-4.5,0.1-4.5-7.9,0-7.8C123.4,41.2,123.4,49.2,118.9,49.1z M117.1,47.5c2.9,3.1,5.8-2.2,3.6-4.6
	C117.9,39.8,115,45.1,117.1,47.5z M125.6,48.9l-2.2-7.5h0.9c0.4,1.4,1.5,5.4,1.8,6.7h0.1c0.3-1.2,1.5-5.4,1.9-6.7h0.9
	c0.4,1.3,1.5,5.5,1.9,6.7h0.1c0.3-1.3,1.4-5.4,1.8-6.7h0.8l-2.1,7.5h-1c-0.4-1.5-1.4-5.2-1.8-6.6h-0.1c-0.4,1.7-1.4,5-1.8,6.6
	C126.6,48.9,125.7,48.9,125.6,48.9z M135.2,49.1c-0.9,0-0.9-1.5,0-1.5C136.2,47.5,136.2,49.1,135.2,49.1z"/>
</svg>
