<svg viewBox="0 0 1839 155" fill="none" stroke="#FFF" xmlns="http://www.w3.org/2000/svg">
<path d="M5.5,49.8h-5V3.5h125.2v46.4h-5c-1.6-28-12.2-38.2-44.2-39.4v114.5c0.5,19,4.3,19.6,24.7,20.2v5H26.1v-5
	c20.4-0.9,22.4-1.7,22.6-20.2V10.4C31.3,11.7,5.5,14.7,5.5,49.8z M147.8,9.1v-5h66.6c41.9,0,59.5,13.4,59.5,38.7
	c0,19.9-13.4,33.1-36.4,37.9c32.7,49.5,40.9,63.6,51.6,65.5v5h-35.7l-40.9-68.5h-14.2v47.3c0.4,15.8,12.4,16.2,26.7,16.2v5h-77.1v-5
	c15.4,0,22.6-2.5,22.6-16.2V26.3C170.2,12.5,165.9,9.1,147.8,9.1z M198.2,77.8h17.3c30.9,0,29.3-28.2,29.3-35.3
	c-0.1-14.2-5.8-33.3-30.4-33.3c-14.6,0-16.2,5-16.2,17.1V77.8z M368.5,3.8L422.5,122c3.3,7.8,14.8,23,23.9,23.2v5h-71.2v-5
	c15,0,26-1.5,19-17.5l-9.9-21.5h-53.9l-8.7,23.6c-5.6,13.8,0.4,15.5,25.8,15.5v5h-46.8v-5c7.2-0.6,11.8-7.2,14.7-14.2L363.2,3.8
	H368.5z M332.1,101.2h49.7l-27.4-59.6L332.1,101.2z M460.1,8.6v-5h122.8V46h-5c-1.7-26.3-16.7-37.9-49-37.4
	c-17.5,0.5-20-0.2-20.8,12.9v51.4h14.5c19.5-0.2,24.5-16.1,24.7-34.6h5v73.8h-5c-0.1-18.9-5.3-33.9-24.7-34.2h-14.5v50.8
	c0,14.7,15.1,15.8,32,16.6v5h-77.9v-5c19-0.8,19.7-3.8,19.7-20.6V23.5C482,10.2,475.5,8.6,460.1,8.6z M603.5,8.6v-5h122.8V46h-5
	c-1.7-26.3-16.7-37.9-49-37.4c-17.5,0.5-20-0.2-20.8,12.9v51.4h14.5c19.5-0.2,24.5-16.1,24.7-34.6h5v73.8h-5
	c-0.1-18.9-5.3-33.9-24.7-34.2h-14.5v50.8c0,14.7,15.1,15.8,32,16.6v5h-77.9v-5c19-0.8,19.7-3.8,19.7-20.6V23.5
	C625.4,10.2,618.9,8.6,603.5,8.6z M818.4,4v5c-18.3,0.8-22-1.6-23.2,12.5v103.3c0.5,18.7,3.5,20.3,23,20.8v5h-72.3v-5
	c20-0.4,20.9-2.8,21.5-20.8V21.5c-1.1-13.4-5.2-12-21.5-12.5V4H818.4z M838.1,78.2C836.6,3.1,906-4.3,936.6,6.8
	c14.4,5.2,18.6,9.7,24.7-6.3h5V53h-5c-5.4-24.9-27.6-44.7-48.6-45.1c-38,1.8-44.2,35.3-44.2,70.3c0,67.8,54.1,82.1,97.9,38.7l4.2,4
	c-17.1,21.1-31.5,30.8-56.3,31.3C866.7,151.9,839.1,127.2,838.1,78.2z M1837.9,145H983v9.2h854.9V145z"/>
</svg>
