<svg width="346" height="72" viewBox="0 0 346 72" fill="none" xmlns="http://www.w3.org/2000/svg">
<path d="M5.03907 9.00612C2.85559 11.6697 1.76741 14.9876 1.76741 18.9562H0V2.4628H44.5159V18.9598H42.7485C42.7058 14.5075 41.4149 10.9513 38.8865 8.29133C37.0551 6.37101 33.1042 5.25793 27.0374 4.95211V45.67C27.0374 48.5505 27.4962 50.4708 28.4136 51.431C29.3738 52.3912 31.8382 52.8712 35.8104 52.8712V54.6387H9.10019V52.8712C13.1151 52.8712 15.5155 52.2809 16.3014 51.1038C16.8668 50.2753 17.1513 48.4652 17.1513 45.67V4.94855C10.9529 5.38596 6.91671 6.73729 5.03907 9.00612Z" stroke="white" stroke-miterlimit="10"/>
<path d="M58.9292 5.86602C58.1006 4.94853 55.9171 4.48979 52.3823 4.48979V2.72238H76.0805C84.1103 2.76506 89.8286 4.18396 93.2318 6.97909C95.8918 9.20525 97.2254 12.3702 97.2254 16.4705C97.2254 20.5707 95.6322 23.8922 92.4459 26.4206C90.3087 28.0813 87.5776 29.2584 84.2632 29.9554L95.2624 46.648C96.3115 48.0882 97.6841 49.6814 99.3875 51.4274C100.565 52.6472 101.635 53.2588 102.595 53.2588V55.0263H89.8962L75.3622 30.6737H70.3231V47.4979C70.3658 49.3293 70.9348 50.7695 72.0265 51.8186C73.1609 52.7788 75.7569 53.2588 79.818 53.2588V55.0263H52.3894V53.2588C55.9669 53.2588 58.3033 52.7112 59.3951 51.623C60.0921 50.8833 60.4441 49.5071 60.4441 47.4979V10.5779C60.4014 8.52602 59.8965 6.95776 58.9399 5.86602H58.9292ZM70.3196 28.9099H76.4717C79.8749 28.9099 82.5812 27.7755 84.5904 25.5066C86.116 23.8495 86.8805 20.7947 86.8805 16.3424C86.8379 12.2422 85.8742 9.31549 84.0001 7.56942C81.7739 5.51752 79.1317 4.49334 76.0805 4.49334C73.7228 4.49334 72.1296 4.95209 71.301 5.86958C70.6467 6.61281 70.3196 8.18463 70.3196 10.5815V28.9099Z" stroke="white" stroke-miterlimit="10"/>
<path d="M128.857 2.85395L128.921 2.72237L128.985 2.59079H130.884L150.066 44.6174C150.894 46.5377 152.249 48.4367 154.123 50.3108C155.781 52.0142 157.267 52.8641 158.576 52.8641V54.6315H133.242V52.8641C137.388 52.8641 139.789 52.2738 140.443 51.0967C140.966 50.005 140.813 48.522 139.984 46.6444L136.449 38.9844H117.267L114.191 47.3627C113.363 49.4146 113.274 50.7909 113.928 51.4879C114.8 52.4054 117.943 52.8641 123.356 52.8641V54.6315H106.727V52.8641C107.687 52.8214 108.626 52.384 109.544 51.5554C110.504 50.638 111.311 49.3933 111.965 47.825L128.857 2.91796V2.85395ZM117.925 37.2206H135.599L125.845 16.0117L117.925 37.2206Z" stroke="white" stroke-miterlimit="10"/>
<path d="M170.044 5.53885C169.216 4.71027 167.011 4.2942 163.434 4.2942V2.52679H207.096V17.5835H205.329C205.286 14.3546 204.194 11.3425 202.057 8.55091C199.742 5.71311 195.03 4.2942 187.918 4.2942C184.034 4.2942 181.872 4.62137 181.438 5.2757C180.827 6.19319 180.521 7.39161 180.521 8.87452V27.1389H185.692C188.835 27.1389 191.125 25.9405 192.566 23.5401C193.832 21.4455 194.465 18.5437 194.465 14.8346H196.232V41.0861H194.465C194.465 37.2455 193.81 34.3223 192.502 32.3131C191.019 30.0443 188.746 28.9099 185.695 28.9099H180.524V46.9787C180.524 48.9417 181.374 50.4068 183.078 51.3634C184.867 52.3663 187.811 52.8677 191.915 52.8677V54.6351H164.223V52.8677C167.758 52.825 169.852 52.192 170.507 50.9687C170.987 50.0974 171.225 48.2838 171.225 45.5349V9.59642C171.225 7.71878 170.834 6.36744 170.048 5.53885H170.044Z" stroke="white" stroke-miterlimit="10"/>
<path d="M221.054 5.53885C220.225 4.71027 218.02 4.2942 214.443 4.2942V2.52679H258.105V17.5835H256.338C256.295 14.3546 255.203 11.3425 253.066 8.55091C250.751 5.71311 246.039 4.2942 238.927 4.2942C235.044 4.2942 232.882 4.62137 232.448 5.2757C231.836 6.19319 231.53 7.39161 231.53 8.87452V27.1389H236.701C239.844 27.1389 242.135 25.9405 243.575 23.5401C244.841 21.4455 245.474 18.5437 245.474 14.8346H247.241V41.0861H245.474C245.474 37.2455 244.82 34.3223 243.511 32.3131C242.028 30.0443 239.756 28.9099 236.704 28.9099H231.534V46.9787C231.534 48.9417 232.384 50.4068 234.087 51.3634C235.876 52.3663 238.82 52.8677 242.924 52.8677V54.6351H215.232V52.8677C218.767 52.825 220.862 52.192 221.516 50.9687C221.996 50.0974 222.234 48.2838 222.234 45.5349V9.59642C222.234 7.71878 221.843 6.36744 221.057 5.53885H221.054Z" stroke="white" stroke-miterlimit="10"/>
<path d="M290.85 2.65839V4.42579C286.704 4.42579 284.371 4.68895 283.845 5.2117C283.016 6.04029 282.6 7.2636 282.6 8.87809V45.6025C282.6 48.6572 283.08 50.6664 284.04 51.6266C284.958 52.5441 287.205 53.0028 290.783 53.0028V54.7702H265.058V53.0028C268.767 53.0028 270.972 52.4801 271.669 51.431C272.366 50.4282 272.718 48.4865 272.718 45.606V8.87809C272.718 7.22093 272.259 5.97628 271.341 5.14769C270.73 4.66761 268.635 4.42579 265.058 4.42579V2.65839H290.85Z" stroke="white" stroke-miterlimit="10"/>
<path d="M297.87 29.0379C297.913 20.4391 300.249 13.7642 304.876 9.00611C309.719 4.51113 316.224 2.26365 324.385 2.26365C327.962 2.26365 330.8 2.72239 332.895 3.63988C335.469 4.86319 337.301 5.44996 338.393 5.40728C339.612 5.40728 340.704 4.07728 341.664 1.41373H343.432V20.0693H341.664C340.356 15.2685 338.368 11.691 335.708 9.33328C331.693 5.75579 327.916 3.98838 324.381 4.03105C318.969 4.07373 314.954 6.21453 312.337 10.4464C309.89 14.5501 308.67 20.745 308.67 29.0379C308.713 36.1964 310.132 41.6729 312.923 45.4673C315.804 49.5711 319.797 51.6195 324.904 51.6195C328.048 51.5768 331.145 50.8336 334.2 49.3933C337.212 48.042 340.309 45.8372 343.496 42.7824L345 44.2227C341.682 48.4118 338.521 51.2496 335.509 52.7325C332.322 54.5213 328.809 55.3925 324.968 55.3499C316.284 55.3499 309.563 53.0348 304.805 48.4118C300.178 44.1338 297.867 37.6758 297.867 29.0344L297.87 29.0379Z" stroke="white" stroke-miterlimit="10"/>
<path d="M345 66H0V71H345V66Z" stroke="white" stroke-miterlimit="10"/>
</svg>
