<?xml version="1.0" encoding="utf-8"?>
<!-- Generator: Adobe Illustrator 26.5.0, SVG Export Plug-In . SVG Version: 6.00 Build 0)  -->
<svg version="1.1" id="圖層_1" xmlns="http://www.w3.org/2000/svg" xmlns:xlink="http://www.w3.org/1999/xlink" x="0px" y="0px"
	 viewBox="0 0 311 194" style="enable-background:new 0 0 311 194;" xml:space="preserve">
<style type="text/css">
	.st0{opacity:0.25;fill:url(#SVGID_1_);enable-background:new    ;}
	.st1{opacity:0.25;fill:url(#SVGID_00000079443962443030805160000002795177177606906294_);enable-background:new    ;}
	.st2{opacity:0.25;fill:url(#SVGID_00000071548774136294108610000008800965587225254020_);enable-background:new    ;}
	.st3{opacity:0.25;fill:url(#SVGID_00000168075350511994566440000009905837811832860564_);enable-background:new    ;}
	.st4{opacity:0.25;fill:url(#SVGID_00000099656489365140213890000015282384963169883562_);enable-background:new    ;}
	.st5{fill:none;stroke:#EFD79B;stroke-linecap:round;stroke-miterlimit:10;}
	.st6{fill:#FFFFFF;}
</style>
<radialGradient id="SVGID_1_" cx="5.8718" cy="128.4363" r="1" gradientTransform="matrix(46.7826 0 0 -46.647 -16.0356 6043.521)" gradientUnits="userSpaceOnUse">
	<stop  offset="0.61" style="stop-color:#000000;stop-opacity:0"/>
	<stop  offset="0.8474" style="stop-color:#000000;stop-opacity:0.32"/>
	<stop  offset="1" style="stop-color:#000000"/>
</radialGradient>
<path class="st0" d="M258.7,99c25.8,0,46.8-20.9,46.8-46.6S284.5,5.7,258.7,5.7c-25.8,0-46.8,20.9-46.8,46.6S232.8,99,258.7,99z"/>
<radialGradient id="SVGID_00000058590596649263305780000013808471565433568160_" cx="155.5005" cy="52.3521" r="46.7148" gradientUnits="userSpaceOnUse">
	<stop  offset="0.61" style="stop-color:#000000;stop-opacity:0"/>
	<stop  offset="0.8474" style="stop-color:#000000;stop-opacity:0.32"/>
	<stop  offset="1" style="stop-color:#000000"/>
</radialGradient>
<path style="opacity:0.25;fill:url(#SVGID_00000058590596649263305780000013808471565433568160_);enable-background:new    ;" d="
	M155.5,99c25.8,0,46.8-20.9,46.8-46.6S181.3,5.7,155.5,5.7c-25.8,0-46.8,20.9-46.8,46.6S129.7,99,155.5,99z"/>
<radialGradient id="SVGID_00000067933618633055634810000013294756722910975675_" cx="52.3392" cy="52.3521" r="46.7148" gradientUnits="userSpaceOnUse">
	<stop  offset="0.61" style="stop-color:#000000;stop-opacity:0"/>
	<stop  offset="0.8474" style="stop-color:#000000;stop-opacity:0.32"/>
	<stop  offset="1" style="stop-color:#000000"/>
</radialGradient>
<path style="opacity:0.25;fill:url(#SVGID_00000067933618633055634810000013294756722910975675_);enable-background:new    ;" d="
	M52.3,99c25.8,0,46.8-20.9,46.8-46.6S78.2,5.7,52.3,5.7S5.6,26.6,5.6,52.4S26.5,99,52.3,99z"/>
<radialGradient id="SVGID_00000131365401916792738930000003168592680940008108_" cx="207.0775" cy="141.9101" r="46.7148" gradientUnits="userSpaceOnUse">
	<stop  offset="0.61" style="stop-color:#000000;stop-opacity:0"/>
	<stop  offset="0.8474" style="stop-color:#000000;stop-opacity:0.32"/>
	<stop  offset="1" style="stop-color:#000000"/>
</radialGradient>
<path style="opacity:0.25;fill:url(#SVGID_00000131365401916792738930000003168592680940008108_);enable-background:new    ;" d="
	M207.1,188.6c25.8,0,46.8-20.9,46.8-46.6c0-25.8-20.9-46.6-46.8-46.6c-25.8,0-46.8,20.9-46.8,46.6
	C160.3,167.7,181.2,188.6,207.1,188.6z"/>
<radialGradient id="SVGID_00000164490133120212734630000011550345517799838602_" cx="103.9164" cy="141.9101" r="46.7148" gradientUnits="userSpaceOnUse">
	<stop  offset="0.61" style="stop-color:#000000;stop-opacity:0"/>
	<stop  offset="0.8474" style="stop-color:#000000;stop-opacity:0.32"/>
	<stop  offset="1" style="stop-color:#000000"/>
</radialGradient>
<path style="opacity:0.25;fill:url(#SVGID_00000164490133120212734630000011550345517799838602_);enable-background:new    ;" d="
	M103.9,188.6c25.8,0,46.8-20.9,46.8-46.6c0-25.8-20.9-46.6-46.8-46.6c-25.8,0-46.8,20.9-46.8,46.6
	C57.1,167.7,78.1,188.6,103.9,188.6z"/>
<path class="st5" d="M103.9,52.4c0,28.4-23.1,51.4-51.6,51.4S0.8,80.8,0.8,52.4C0.8,24,23.8,0.9,52.3,0.9c21.4,0,39.7,13,47.5,31.4
	 M207.1,52.4c0,28.4,23.1,51.4,51.6,51.4s51.6-23,51.6-51.4c0-28.4-23.1-51.4-51.6-51.4c-21.4,0-39.7,13-47.5,31.4 M103.9,52.4
	c0-28.4,23.1-51.4,51.6-51.4s51.6,23,51.6,51.4c0,28.4-23.1,51.4-51.6,51.4C136,103.8,119,93,110.2,77 M155.5,141.9
	c0,28.4,23.1,51.4,51.6,51.4s51.6-23,51.6-51.4c0-28.4-23.1-51.4-51.6-51.4c-21.4,0-39.7,13-47.5,31.4 M155.5,141.9
	c0-28.4-23.1-51.4-51.6-51.4c-28.5,0-51.6,23-51.6,51.4c0,28.4,23.1,51.4,51.6,51.4c19.5,0,36.5-10.8,45.3-26.8"/>
<path class="st6" d="M143.1,46.7V35.4h10.8v11.3h-0.9v-0.6H144v0.6H143.1z M144,45.2h8.9v-8.9H144V45.2z M144.7,43.9l-0.1-0.7
	c0.6-0.1,1.8-0.3,3.5-0.6c0.2,0,0.3-0.1,0.4-0.1l0,0.7c-0.3,0.1-0.7,0.1-1.3,0.2C146.1,43.7,145.2,43.9,144.7,43.9z M151.1,44.6
	c-0.5-0.1-1-0.5-1.3-1.3c-0.5,0.6-1.1,1.1-1.7,1.5c-0.2-0.2-0.4-0.4-0.6-0.6c0.8-0.4,1.4-1,2-1.7c-0.3-0.9-0.5-2.1-0.7-3.8h-4V38
	h3.9c-0.1-0.6-0.1-1.1-0.1-1.4h0.8c0,0.3,0,0.8,0.1,1.4h2.8v0.7h-2.8c0.1,1.2,0.3,2.2,0.5,3c0.4-0.7,0.7-1.5,1-2.4l0.8,0.2
	c-0.3,1.2-0.8,2.2-1.4,3.2c0.3,0.7,0.6,1.1,1,1.2c0.2,0,0.3-0.4,0.4-1.3c0.2,0.2,0.4,0.3,0.6,0.4C152.2,44.3,151.8,44.8,151.1,44.6
	L151.1,44.6z M145.2,42v-2.5h2.9V42H145.2z M145.9,41.4h1.5v-1.3h-1.5V41.4z M151.5,37.8c-0.4-0.4-0.8-0.7-1.4-0.9l0.5-0.5
	c0.6,0.3,1.1,0.6,1.4,0.9L151.5,37.8L151.5,37.8z M157.2,43.2c-0.2-0.3-0.4-0.5-0.7-0.7c0.9-0.5,1.8-1.1,2.5-1.8h-2.3v-0.8h3
	c0.3-0.4,0.6-0.8,0.8-1.2h-2.4v-0.8h2.8c0.2-0.3,0.3-0.7,0.4-1.1h-3.9V36h4.2c0.1-0.4,0.2-0.8,0.2-1.2l1,0.1
	c-0.1,0.4-0.1,0.8-0.2,1.1h5.1v0.8h-5.3c-0.1,0.3-0.2,0.6-0.4,1.1h5.2v0.8h-2.8c0.2,0.4,0.5,0.8,0.8,1.2h3.1v0.8H166
	c0.8,0.7,1.6,1.3,2.5,1.6c-0.3,0.3-0.5,0.5-0.6,0.8c-1.1-0.5-2.2-1.3-3.1-2.4h-4.5C159.4,41.7,158.4,42.5,157.2,43.2L157.2,43.2z
	 M157.8,46.1l-0.4-0.8c0.9-0.3,2.2-0.7,3.9-1.3l0.2,0.8c-0.1,0-0.3,0.1-0.5,0.2C159.4,45.5,158.4,45.9,157.8,46.1L157.8,46.1z
	 M160.6,43.7c-0.3-0.5-0.9-1-1.7-1.5l0.6-0.6c0.8,0.6,1.4,1,1.7,1.5L160.6,43.7z M160.6,46.6c0-0.2-0.1-0.5-0.3-0.8
	c0.7,0,1.2,0,1.4,0c0.1,0,0.2,0,0.2,0c0,0,0.1-0.1,0.1-0.2V41h0.9v4.7c0,0.2,0,0.4-0.1,0.6c-0.1,0.1-0.2,0.2-0.4,0.3
	C162.2,46.6,161.6,46.6,160.6,46.6L160.6,46.6z M160.9,39.9h3.3c-0.2-0.4-0.5-0.7-0.7-1.2h-1.9C161.4,39.1,161.1,39.4,160.9,39.9z
	 M167.1,46.4c-1.1-0.7-2.4-1.3-3.8-1.9l0.5-0.7c1.2,0.5,2.4,1.1,3.8,1.8L167.1,46.4z M164.3,43.5l-0.6-0.5c0.6-0.5,1.2-1,1.7-1.5
	l0.7,0.5C165.6,42.6,165,43.1,164.3,43.5L164.3,43.5z M129,63.4v-0.9h4.9v-3.2h-4.3v-0.8h4.3v-1.7h-2.7V56c-0.7,0.5-1.4,1-2.1,1.3
	c-0.1-0.2-0.3-0.5-0.6-0.8c1.1-0.6,2.1-1.3,3.1-2.1c1-0.8,1.7-1.7,2.2-2.5h1c0.7,0.9,1.5,1.8,2.6,2.6c1,0.8,2,1.4,3.1,1.9
	c-0.2,0.3-0.5,0.5-0.6,0.9c-0.7-0.4-1.4-0.8-2.2-1.3v0.8h-2.8v1.7h4.4v0.8h-4.4v3.2h5.1v0.9L129,63.4L129,63.4z M131.8,62.4
	c-0.1-0.3-0.2-0.7-0.5-1.2c-0.2-0.4-0.5-0.8-0.7-1.2l0.8-0.3c0.3,0.4,0.5,0.8,0.8,1.2c0.2,0.4,0.4,0.8,0.5,1.1L131.8,62.4
	L131.8,62.4z M131.4,55.9h6.2c-1.4-1-2.4-2-3.2-3C133.7,53.9,132.7,54.9,131.4,55.9z M136.7,62.4L136,62c0.5-0.7,1-1.5,1.4-2.4
	l0.9,0.4C137.7,61,137.2,61.8,136.7,62.4L136.7,62.4z M142.8,53.4v-0.8h6.1v0.8H142.8z M143,63.8v-6.3h5.7v5.4c0,0.2,0,0.4-0.1,0.5
	c-0.1,0.1-0.2,0.2-0.3,0.3c-0.2,0.1-0.7,0.1-1.4,0.1c0-0.2-0.1-0.5-0.2-0.7c0.6,0,0.9,0,1.1,0c0.1,0,0.2-0.1,0.2-0.2V60H147
	c-0.3,0-0.5-0.1-0.6-0.1c-0.1-0.1-0.2-0.3-0.2-0.6v-1h-0.8v0.1c0,0.4-0.1,0.8-0.2,1.1c-0.2,0.4-0.5,0.8-0.9,1
	c-0.1-0.2-0.3-0.3-0.5-0.5c0.7-0.3,1-0.9,1-1.7v-0.1h-1.1v5.6H143L143,63.8z M143.5,56.7v-2.6h4.7v2.6H143.5z M145.5,63.4v-2.3h-1.1
	v-0.7h3.1v0.7h-1.2v2.3H145.5z M144.4,56.1h3v-1.3h-3V56.1z M147.1,59.4h0.6c0.1,0,0.2,0,0.2-0.1v-1.1h-1.1v1c0,0.1,0,0.1,0,0.2
	S147,59.4,147.1,59.4z M153.7,63.8c0-0.3-0.1-0.6-0.2-1c-1.7,0.3-3.1,0.6-4.3,0.8l-0.2-0.9c0.7-0.1,1.4-0.2,2.2-0.3v-2.9h-1.9v-4.9
	h1.9v-2.5h0.8v2.5h2v4.9h-2v2.8l1.2-0.2c-0.2-0.6-0.4-1.2-0.7-1.7l0.7-0.2c0.3,0.6,0.5,1.2,0.7,1.8c0.2,0.7,0.4,1.2,0.4,1.7
	L153.7,63.8L153.7,63.8z M150.1,58.6h1.1v-3.2h-1.1V58.6z M152,58.6h1.2v-3.2H152V58.6z M162,63.8V61c-0.6,0.5-1.4,1.1-2.3,1.6
	c-0.9,0.5-1.7,0.8-2.6,1.1c-0.2-0.3-0.4-0.6-0.6-0.8c0.8-0.2,1.7-0.5,2.5-0.9c0.9-0.4,1.6-0.8,2.2-1.3h-4.4v-0.8h5.2V59h-3.7v-3.8
	c-0.4,0.5-0.8,0.9-1.2,1.2c-0.2-0.2-0.4-0.5-0.7-0.6c0.7-0.5,1.3-1.2,1.9-1.9c0.5-0.6,0.9-1.3,1.2-1.9l1,0.2
	c-0.2,0.4-0.5,0.9-0.8,1.4h2.5c0.3-0.6,0.5-1.1,0.7-1.5l1.1,0.2c-0.3,0.6-0.6,1-0.8,1.4h4.3v0.8h-4.2v0.9h3.7v0.7h-3.7v0.9h3.8v0.7
	h-3.8v0.9h4.7V59h-5v0.8h5.3v0.8h-4.5c0.6,0.5,1.3,0.9,2.2,1.3c0.8,0.4,1.7,0.7,2.5,0.9c-0.2,0.2-0.5,0.5-0.6,0.8
	c-0.9-0.2-1.7-0.6-2.6-1.1c-0.9-0.5-1.7-1-2.3-1.5v2.8H162L162,63.8z M159.2,55.2h3v-0.9h-3V55.2z M159.2,56.7h3v-0.9h-3V56.7z
	 M159.2,58.3h3v-0.9h-3V58.3z M171.3,63.8V52.6h10.4v11.2h-0.9v-0.6h-8.6v0.7L171.3,63.8L171.3,63.8z M172.2,62.4h8.6v-9h-8.6V62.4z
	 M176.6,62.1c0-0.2-0.1-0.3-0.2-0.5c0.6,0,1,0,1.1,0c0.1,0,0.2-0.1,0.2-0.2v-1.2h-5.1v-0.6h5.1v-0.5h0.8v0.5h1.9v0.6h-1.9v1.2
	c0,0.2,0,0.3-0.1,0.4c-0.1,0.1-0.1,0.1-0.3,0.2C178,62.1,177.4,62.1,176.6,62.1L176.6,62.1z M179.6,59.5c-0.1-0.1-0.3-0.3-0.5-0.6
	c-2.1,0.1-4.1,0.1-6.2,0.2l0-0.6c0.5,0,1.5,0,2.9,0h0.3v-0.6h-2.8v-2.6h2.8v-0.5h-3.3v-0.6h3.3v-0.6h0.8v0.6h3.3v0.6h-3.3v0.5h2.9
	v2.6h-1c0.6,0.4,1.1,0.9,1.4,1.3L179.6,59.5L179.6,59.5z M175.1,61.9c-0.2-0.3-0.6-0.8-1.1-1.2l0.6-0.3c0.5,0.4,0.9,0.8,1.2,1.2
	L175.1,61.9L175.1,61.9z M174.1,56.3h2v-0.6h-2V56.3z M174.1,57.4h2v-0.6h-2V57.4z M176.9,56.3h2.1v-0.6h-2.1V56.3z M176.9,57.4h2.1
	v-0.6h-2.1V57.4z M176.9,58.5l1.6,0c-0.1-0.1-0.2-0.1-0.3-0.2l0.5-0.3h-1.8V58.5z M248.2,46.7V35.4H259v11.3H258v-0.6h-8.9v0.6
	H248.2z M249.1,45.2h8.9v-8.9h-8.9V45.2z M249.8,43.9l-0.1-0.7c0.6-0.1,1.8-0.3,3.5-0.6c0.2,0,0.3-0.1,0.4-0.1l0,0.7
	c-0.3,0.1-0.7,0.1-1.3,0.2C251.1,43.7,250.3,43.9,249.8,43.9z M256.2,44.6c-0.5-0.1-1-0.5-1.3-1.3c-0.5,0.6-1.1,1.1-1.7,1.5
	c-0.2-0.2-0.4-0.4-0.6-0.6c0.8-0.4,1.4-1,2-1.7c-0.3-0.9-0.5-2.1-0.7-3.8h-4V38h3.9c-0.1-0.6-0.1-1.1-0.1-1.4h0.8
	c0,0.3,0,0.8,0.1,1.4h2.8v0.7h-2.8c0.1,1.2,0.3,2.2,0.5,3c0.4-0.7,0.7-1.5,1-2.4l0.8,0.2c-0.3,1.2-0.8,2.2-1.4,3.2
	c0.3,0.7,0.6,1.1,1,1.2c0.2,0,0.3-0.4,0.4-1.3c0.2,0.2,0.4,0.3,0.6,0.4C257.3,44.3,256.9,44.8,256.2,44.6L256.2,44.6z M250.3,42
	v-2.5h2.9V42H250.3z M250.9,41.4h1.5v-1.3h-1.5V41.4z M256.6,37.8c-0.4-0.4-0.8-0.7-1.4-0.9l0.5-0.5c0.6,0.3,1.1,0.6,1.4,0.9
	L256.6,37.8L256.6,37.8z M262.3,43.2c-0.2-0.3-0.4-0.5-0.7-0.7c0.9-0.5,1.8-1.1,2.5-1.8h-2.3v-0.8h3c0.3-0.4,0.6-0.8,0.8-1.2h-2.4
	v-0.8h2.8c0.2-0.3,0.3-0.7,0.4-1.1h-3.9V36h4.2c0.1-0.4,0.2-0.8,0.2-1.2l1,0.1c-0.1,0.4-0.1,0.8-0.2,1.1h5.1v0.8h-5.3
	c-0.1,0.3-0.2,0.6-0.4,1.1h5.2v0.8h-2.8c0.2,0.4,0.5,0.8,0.8,1.2h3.1v0.8h-2.3c0.8,0.7,1.6,1.3,2.5,1.6c-0.3,0.3-0.5,0.5-0.6,0.8
	c-1.1-0.5-2.2-1.3-3.1-2.4h-4.5C264.5,41.7,263.5,42.5,262.3,43.2L262.3,43.2z M262.9,46.1l-0.4-0.8c0.9-0.3,2.2-0.7,3.9-1.3
	l0.2,0.8c-0.1,0-0.3,0.1-0.5,0.2C264.5,45.5,263.5,45.9,262.9,46.1L262.9,46.1z M265.6,43.7c-0.3-0.5-0.9-1-1.7-1.5l0.6-0.6
	c0.8,0.6,1.4,1,1.7,1.5L265.6,43.7z M265.7,46.6c0-0.2-0.1-0.5-0.3-0.8c0.7,0,1.2,0,1.4,0c0.1,0,0.2,0,0.2,0c0,0,0.1-0.1,0.1-0.2V41
	h0.9v4.7c0,0.2,0,0.4-0.1,0.6c-0.1,0.1-0.2,0.2-0.4,0.3C267.3,46.6,266.7,46.6,265.7,46.6L265.7,46.6z M265.9,39.9h3.3
	c-0.2-0.4-0.5-0.7-0.7-1.2h-1.9C266.5,39.1,266.2,39.4,265.9,39.9z M272.1,46.4c-1.1-0.7-2.4-1.3-3.8-1.9l0.5-0.7
	c1.2,0.5,2.4,1.1,3.8,1.8L272.1,46.4z M269.4,43.5l-0.6-0.5c0.6-0.5,1.2-1,1.7-1.5l0.7,0.5C270.6,42.6,270,43.1,269.4,43.5
	L269.4,43.5z M233.9,61.7l-0.4-1c0.5-0.2,1.1-0.4,1.8-0.7V56h-1.7v-0.9h1.7v-2.9h0.9v2.9h1.5V56h-1.5v3.7c0.1,0,0.2-0.1,0.3-0.1
	c0.5-0.2,0.9-0.4,1.2-0.5l0.2,0.9c-0.7,0.3-1.8,0.8-3.3,1.5C234.3,61.6,234.1,61.7,233.9,61.7L233.9,61.7z M240.5,63.5
	c-0.7,0-1.2-0.1-1.5-0.4c-0.3-0.2-0.4-0.7-0.4-1.4v-4.1l-1,0.4l-0.4-0.8l1.4-0.6v-3.5h0.9v3.1l1.7-0.7V52h0.9v3.2l1.7-0.7l0.2-0.2
	l0.2-0.1l0.7,0.3l-0.1,0.2c0,2.8,0,4.4-0.1,4.8c-0.1,0.5-0.3,0.8-0.7,0.9c-0.2,0.1-0.6,0.1-1.2,0.1c-0.1-0.4-0.1-0.7-0.2-0.8
	c0.2,0,0.5,0,0.9,0c0.2,0,0.3-0.1,0.4-0.3c0.1-0.3,0.1-1.6,0.1-3.8l-1.8,0.8v4.8h-0.9v-4.4l-1.7,0.7v4.5c0,0.3,0.1,0.6,0.2,0.7
	c0.1,0.1,0.4,0.2,0.8,0.2h3.1c0.4,0,0.6-0.1,0.7-0.4c0.1-0.2,0.2-0.7,0.2-1.5c0.3,0.2,0.6,0.3,0.9,0.4c-0.1,0.9-0.2,1.5-0.5,1.8
	c-0.2,0.3-0.7,0.5-1.4,0.5H240.5L240.5,63.5z M248.3,63.9c-0.2-0.2-0.4-0.4-0.8-0.6c0.8-1.1,1.2-2.8,1.2-5v-2.1l1.5,0l0,0
	c-0.1-0.3-0.2-0.4-0.3-0.5c1.1-0.2,2.1-0.4,3-0.7c-0.8-0.3-1.7-0.5-2.4-0.7l0.5-0.4h-2.5v-0.8h4.5V52h0.9v1.1h4.7v0.8h-2.2l0.2,0.1
	c-0.5,0.3-1.1,0.7-1.8,1c0.8,0.3,1.5,0.5,2.2,0.8l-0.5,0.5h2.7V57h-9.7v1.3C249.7,60.7,249.2,62.6,248.3,63.9L248.3,63.9z
	 M250.1,63.5v-0.8h4.1v-1.6h-2.9v-0.8h2.9v-1.3h-2.5c-0.3,0.5-0.6,0.9-0.9,1.2c-0.2-0.2-0.5-0.4-0.7-0.5c0.7-0.7,1.2-1.5,1.6-2.6
	l0.9,0.2c-0.1,0.3-0.2,0.6-0.4,0.9h2v-1h0.9v1h3.4v0.8h-3.4v1.3h3.1v0.8h-3.1v1.6h4.1v0.8H250.1L250.1,63.5z M250.7,56.2h5.7
	c-0.8-0.3-1.6-0.6-2.4-0.9C252.9,55.7,251.8,56,250.7,56.2L250.7,56.2z M254,54.6c0.6-0.2,1.2-0.5,1.7-0.8h-4.3
	C252,54,252.9,54.3,254,54.6L254,54.6z M267.1,63.8V61c-0.6,0.5-1.4,1.1-2.3,1.6c-0.9,0.5-1.7,0.8-2.6,1.1c-0.2-0.3-0.4-0.6-0.6-0.8
	c0.8-0.2,1.7-0.5,2.5-0.9c0.9-0.4,1.6-0.8,2.2-1.3h-4.4v-0.8h5.2V59h-3.7v-3.8c-0.4,0.5-0.8,0.9-1.2,1.2c-0.2-0.2-0.4-0.5-0.7-0.6
	c0.7-0.5,1.3-1.2,1.9-1.9c0.5-0.6,0.9-1.3,1.2-1.9l1,0.2c-0.2,0.4-0.5,0.9-0.8,1.4h2.5c0.3-0.6,0.5-1.1,0.7-1.5l1.1,0.2
	c-0.3,0.6-0.6,1-0.8,1.4h4.3v0.8h-4.2v0.9h3.7v0.7h-3.7v0.9h3.8v0.7h-3.8v0.9h4.7V59h-5v0.8h5.3v0.8h-4.5c0.6,0.5,1.3,0.9,2.2,1.3
	c0.8,0.4,1.7,0.7,2.5,0.9c-0.2,0.2-0.5,0.5-0.6,0.8c-0.9-0.2-1.7-0.6-2.6-1.1c-0.9-0.5-1.7-1-2.3-1.5v2.8H267.1L267.1,63.8z
	 M264.3,55.2h3v-0.9h-3V55.2z M264.3,56.7h3v-0.9h-3V56.7z M264.3,58.3h3v-0.9h-3V58.3z M276.4,63.8V52.6h10.4v11.2h-0.9v-0.6h-8.6
	v0.7L276.4,63.8L276.4,63.8z M277.3,62.4h8.6v-9h-8.6V62.4z M281.7,62.1c0-0.2-0.1-0.3-0.2-0.5c0.6,0,1,0,1.1,0
	c0.1,0,0.2-0.1,0.2-0.2v-1.2h-5.1v-0.6h5.1v-0.5h0.8v0.5h1.9v0.6h-1.9v1.2c0,0.2,0,0.3-0.1,0.4c-0.1,0.1-0.1,0.1-0.3,0.2
	C283,62.1,282.5,62.1,281.7,62.1L281.7,62.1z M284.6,59.5c-0.1-0.1-0.3-0.3-0.5-0.6c-2,0.1-4.1,0.1-6.2,0.2l0-0.6c0.5,0,1.5,0,2.9,0
	h0.3v-0.6h-2.8v-2.6h2.8v-0.5h-3.3v-0.6h3.3v-0.6h0.8v0.6h3.3v0.6H282v0.5h2.9v2.6h-1c0.6,0.4,1.1,0.9,1.4,1.3L284.6,59.5
	L284.6,59.5z M280.2,61.9c-0.2-0.3-0.6-0.8-1.1-1.2l0.6-0.3c0.5,0.4,0.9,0.8,1.2,1.2L280.2,61.9L280.2,61.9z M279.2,56.3h2v-0.6h-2
	V56.3z M279.2,57.4h2v-0.6h-2V57.4z M282,56.3h2.1v-0.6H282V56.3z M282,57.4h2.1v-0.6H282V57.4z M282,58.5l1.6,0
	c-0.1-0.1-0.2-0.1-0.3-0.2l0.5-0.3H282V58.5z M39.2,46.7V35.4H50v11.3H49v-0.6h-8.9v0.6H39.2z M40.1,45.2H49v-8.9h-8.9V45.2z
	 M40.8,43.9l-0.1-0.7c0.6-0.1,1.8-0.3,3.5-0.6c0.2,0,0.3-0.1,0.4-0.1l0,0.7c-0.3,0.1-0.7,0.1-1.3,0.2C42.2,43.7,41.3,43.9,40.8,43.9
	z M47.2,44.6c-0.5-0.1-1-0.5-1.3-1.3c-0.5,0.6-1.1,1.1-1.7,1.5c-0.2-0.2-0.4-0.4-0.6-0.6c0.8-0.4,1.4-1,2-1.7
	c-0.3-0.9-0.5-2.1-0.7-3.8h-4V38h3.9c-0.1-0.6-0.1-1.1-0.1-1.4h0.8c0,0.3,0,0.8,0.1,1.4h2.8v0.7h-2.8c0.1,1.2,0.3,2.2,0.5,3
	c0.4-0.7,0.7-1.5,1-2.4l0.8,0.2c-0.3,1.2-0.8,2.2-1.4,3.2c0.3,0.7,0.6,1.1,1,1.2c0.2,0,0.3-0.4,0.4-1.3c0.2,0.2,0.4,0.3,0.6,0.4
	C48.3,44.3,47.9,44.8,47.2,44.6L47.2,44.6z M41.3,42v-2.5h2.9V42H41.3z M42,41.4h1.5v-1.3H42V41.4z M47.6,37.8
	c-0.4-0.4-0.8-0.7-1.4-0.9l0.5-0.5c0.6,0.3,1.1,0.6,1.4,0.9L47.6,37.8L47.6,37.8z M53.3,43.2c-0.2-0.3-0.4-0.5-0.7-0.7
	c0.9-0.5,1.8-1.1,2.5-1.8h-2.3v-0.8h3c0.3-0.4,0.6-0.8,0.8-1.2h-2.4v-0.8H57c0.2-0.3,0.3-0.7,0.4-1.1h-3.9V36h4.2
	c0.1-0.4,0.2-0.8,0.2-1.2l1,0.1c-0.1,0.4-0.2,0.8-0.2,1.1h5.1v0.8h-5.3c-0.1,0.3-0.2,0.6-0.4,1.1h5.2v0.8h-2.8
	c0.2,0.4,0.5,0.8,0.8,1.2h3.1v0.8h-2.3c0.8,0.7,1.6,1.3,2.5,1.6c-0.3,0.3-0.5,0.5-0.6,0.8c-1.1-0.5-2.2-1.3-3.1-2.4h-4.5
	C55.5,41.7,54.5,42.5,53.3,43.2L53.3,43.2z M53.9,46.1l-0.4-0.8c0.9-0.3,2.2-0.7,3.9-1.3l0.2,0.8c-0.1,0-0.3,0.1-0.5,0.2
	C55.5,45.5,54.5,45.9,53.9,46.1L53.9,46.1z M56.6,43.7c-0.3-0.5-0.9-1-1.7-1.5l0.6-0.6c0.8,0.6,1.4,1,1.7,1.5L56.6,43.7z M56.7,46.6
	c0-0.2-0.1-0.5-0.3-0.8c0.7,0,1.2,0,1.4,0c0.1,0,0.2,0,0.2,0c0,0,0.1-0.1,0.1-0.2V41H59v4.7c0,0.2,0,0.4-0.1,0.6
	c-0.1,0.1-0.2,0.2-0.4,0.3C58.3,46.6,57.7,46.6,56.7,46.6L56.7,46.6z M57,39.9h3.3c-0.2-0.4-0.5-0.7-0.7-1.2h-1.9
	C57.5,39.1,57.2,39.4,57,39.9z M63.2,46.4c-1.1-0.7-2.4-1.3-3.8-1.9l0.5-0.7c1.2,0.5,2.4,1.1,3.8,1.8L63.2,46.4z M60.4,43.5L59.8,43
	c0.6-0.5,1.2-1,1.7-1.5l0.7,0.5C61.6,42.6,61,43.1,60.4,43.5L60.4,43.5z M25.4,58.2c-0.3-0.3-0.6-0.5-0.8-0.7c0.6-0.4,1.2-1,1.7-1.7
	c0.5-0.7,0.9-1.3,1.2-1.9l1,0.3c-0.4,0.8-0.8,1.5-1.3,2.2C26.6,57.1,26,57.7,25.4,58.2z M35.3,63.9c-0.2-0.3-0.4-0.7-0.6-1.1
	c-2.9,0.1-6,0.3-9.2,0.4l-0.1-1c0.3,0,0.8,0,1.4-0.1c0.2,0,0.3,0,0.4,0c0.4-0.8,0.9-1.7,1.3-2.8c0.5-1,0.8-2,1.1-2.9l1.1,0.3
	c-0.8,2.1-1.7,3.8-2.5,5.3c1.3-0.1,3.3-0.1,5.8-0.2c-0.6-0.9-1.2-1.7-1.9-2.4l0.9-0.4c0.6,0.7,1.2,1.4,1.8,2.2
	c0.6,0.8,1.1,1.5,1.4,2.1L35.3,63.9L35.3,63.9z M35.8,58c-0.6-0.5-1.2-1.2-1.8-2c-0.6-0.8-1.1-1.6-1.5-2.5h-4.1v-0.9h4.7
	c0.4,0.9,0.9,1.8,1.5,2.7c0.6,0.9,1.3,1.6,2,2.1C36.3,57.5,36,57.7,35.8,58L35.8,58z M38.9,63.4v-0.9h1.8v-2.8
	c-0.5,0.4-1,0.8-1.5,1.1c-0.2-0.2-0.4-0.5-0.7-0.7c0.6-0.3,1.2-0.7,1.7-1.2c0.5-0.5,1-1,1.3-1.6l0.9,0.3c-0.4,0.7-0.9,1.3-1.5,1.9
	h7.5c-0.7-0.6-1.2-1.2-1.6-1.9h-4.2v-0.9h4.7c0.3,0.6,0.8,1.2,1.4,1.8c0.6,0.6,1.2,1,1.9,1.3c-0.3,0.2-0.5,0.5-0.7,0.8
	c-0.4-0.2-0.9-0.6-1.4-1v2.8h1.7v0.9L38.9,63.4L38.9,63.4z M39.5,56.5c-0.3-0.3-0.5-0.5-0.8-0.7c0.6-0.3,1.1-0.7,1.6-1.2
	c0.5-0.5,0.9-1,1.2-1.5l0.9,0.3c-0.3,0.6-0.8,1.2-1.3,1.8C40.7,55.7,40.1,56.1,39.5,56.5z M41.6,62.6h1.5v-2.1h-1.5V62.6z M42,55.6
	v-0.8h5.3v0.8H42z M49.7,56.4c-0.6-0.3-1.1-0.8-1.6-1.3c-0.5-0.5-1-1.1-1.4-1.7h-3.9v-0.9h4.4c0.3,0.6,0.8,1.2,1.4,1.8
	c0.6,0.6,1.2,1,1.8,1.3C50.1,55.9,49.9,56.1,49.7,56.4z M43.9,62.6h1.5v-2.1h-1.5V62.6z M46.2,62.6h1.5v-2.1h-1.5V62.6z M58.1,63.8
	V61c-0.6,0.5-1.4,1.1-2.3,1.6c-0.9,0.5-1.7,0.8-2.6,1.1c-0.2-0.3-0.4-0.6-0.6-0.8c0.8-0.2,1.7-0.5,2.5-0.9c0.9-0.4,1.6-0.8,2.2-1.3
	h-4.4v-0.8h5.2V59h-3.7v-3.8c-0.4,0.5-0.8,0.9-1.2,1.2c-0.2-0.2-0.4-0.5-0.7-0.6c0.7-0.5,1.3-1.2,1.9-1.9c0.5-0.6,0.9-1.3,1.2-1.9
	l1,0.2c-0.2,0.4-0.5,0.9-0.8,1.4h2.5c0.3-0.6,0.5-1.1,0.7-1.5l1.1,0.2c-0.3,0.6-0.6,1-0.8,1.4h4.3v0.8h-4.2v0.9H63v0.7h-3.7v0.9H63
	v0.7h-3.8v0.9H64V59h-5v0.8h5.3v0.8h-4.5c0.6,0.5,1.3,0.9,2.2,1.3c0.8,0.4,1.7,0.7,2.5,0.9c-0.2,0.2-0.5,0.5-0.6,0.8
	c-0.9-0.2-1.7-0.6-2.6-1.1c-0.9-0.5-1.7-1-2.3-1.5v2.8H58.1L58.1,63.8z M55.3,55.2h3v-0.9h-3V55.2z M55.3,56.7h3v-0.9h-3V56.7z
	 M55.3,58.3h3v-0.9h-3V58.3z M67.4,63.8V52.6h10.4v11.2h-0.9v-0.6h-8.6v0.7L67.4,63.8L67.4,63.8z M68.3,62.4h8.6v-9h-8.6V62.4z
	 M72.7,62.1c0-0.2-0.1-0.3-0.2-0.5c0.6,0,1,0,1.1,0c0.1,0,0.2-0.1,0.2-0.2v-1.2h-5.1v-0.6h5.1v-0.5h0.8v0.5h1.9v0.6h-1.9v1.2
	c0,0.2,0,0.3-0.1,0.4c-0.1,0.1-0.2,0.1-0.3,0.2C74.1,62.1,73.5,62.1,72.7,62.1L72.7,62.1z M75.7,59.5c-0.1-0.1-0.3-0.3-0.5-0.6
	c-2,0.1-4.1,0.1-6.2,0.2l0-0.6c0.5,0,1.5,0,2.9,0h0.3v-0.6h-2.8v-2.6h2.8v-0.5h-3.3v-0.6h3.3v-0.6H73v0.6h3.3v0.6H73v0.5h2.9v2.6h-1
	c0.6,0.4,1.1,0.9,1.4,1.3L75.7,59.5L75.7,59.5z M71.2,61.9c-0.2-0.3-0.6-0.8-1.1-1.2l0.6-0.3c0.5,0.4,0.9,0.8,1.2,1.2L71.2,61.9
	L71.2,61.9z M70.2,56.3h2v-0.6h-2V56.3z M70.2,57.4h2v-0.6h-2V57.4z M73,56.3H75v-0.6H73V56.3z M73,57.4H75v-0.6H73V57.4z M73,58.5
	l1.6,0c-0.1-0.1-0.2-0.1-0.3-0.2l0.5-0.3H73V58.5z M194.7,136.2V125h10.8v11.3h-0.9v-0.6h-8.9v0.6H194.7z M195.6,134.7h8.9v-8.9
	h-8.9V134.7z M196.3,133.5l-0.1-0.7c0.6-0.1,1.8-0.3,3.5-0.6c0.2,0,0.3-0.1,0.4-0.1l0,0.7c-0.3,0.1-0.7,0.1-1.3,0.2
	C197.6,133.3,196.8,133.4,196.3,133.5z M202.7,134.1c-0.5-0.1-1-0.5-1.3-1.3c-0.5,0.6-1.1,1.1-1.7,1.5c-0.2-0.2-0.4-0.4-0.6-0.6
	c0.8-0.4,1.4-1,2-1.7c-0.3-0.9-0.5-2.1-0.7-3.8h-4v-0.7h3.9c-0.1-0.6-0.1-1.1-0.1-1.4h0.8c0,0.3,0,0.8,0.1,1.4h2.8v0.7h-2.8
	c0.1,1.2,0.3,2.2,0.5,3c0.4-0.7,0.7-1.5,1-2.4l0.8,0.2c-0.3,1.2-0.8,2.2-1.4,3.2c0.3,0.7,0.6,1.1,1,1.2c0.2,0,0.3-0.4,0.4-1.3
	c0.2,0.2,0.4,0.3,0.6,0.4C203.8,133.8,203.4,134.4,202.7,134.1L202.7,134.1z M196.8,131.6v-2.5h2.9v2.5H196.8z M197.5,131h1.5v-1.3
	h-1.5V131z M203.1,127.4c-0.4-0.4-0.8-0.7-1.4-0.9l0.5-0.5c0.6,0.3,1.1,0.6,1.4,0.9L203.1,127.4z M208.8,132.7
	c-0.2-0.3-0.4-0.5-0.7-0.7c0.9-0.5,1.8-1.1,2.5-1.8h-2.3v-0.8h3c0.3-0.4,0.6-0.8,0.8-1.2h-2.4v-0.8h2.8c0.2-0.3,0.3-0.7,0.4-1.1H209
	v-0.8h4.2c0.1-0.4,0.2-0.8,0.2-1.2l1,0.1c-0.1,0.4-0.1,0.8-0.2,1.1h5.1v0.8h-5.3c-0.1,0.3-0.2,0.6-0.4,1.1h5.2v0.8H216
	c0.2,0.4,0.5,0.8,0.8,1.2h3.1v0.8h-2.3c0.8,0.7,1.6,1.3,2.5,1.6c-0.3,0.3-0.5,0.5-0.6,0.8c-1.1-0.5-2.2-1.3-3.1-2.4h-4.5
	C211,131.2,210,132.1,208.8,132.7L208.8,132.7z M209.4,135.7l-0.4-0.8c0.9-0.3,2.2-0.7,3.9-1.3l0.2,0.8c-0.1,0-0.3,0.1-0.5,0.2
	C211,135.1,210,135.5,209.4,135.7L209.4,135.7z M212.1,133.2c-0.3-0.5-0.9-1-1.7-1.5l0.6-0.6c0.8,0.6,1.4,1,1.7,1.5L212.1,133.2z
	 M212.2,136.2c0-0.2-0.1-0.5-0.3-0.8c0.7,0,1.2,0,1.4,0c0.1,0,0.2,0,0.2,0c0,0,0.1-0.1,0.1-0.2v-4.7h0.9v4.7c0,0.2,0,0.4-0.1,0.6
	c-0.1,0.1-0.2,0.2-0.4,0.3C213.8,136.2,213.2,136.2,212.2,136.2L212.2,136.2z M212.4,129.4h3.3c-0.2-0.4-0.5-0.7-0.7-1.2h-1.9
	C213,128.6,212.7,129,212.4,129.4z M218.6,135.9c-1.1-0.7-2.4-1.3-3.8-1.9l0.5-0.7c1.2,0.5,2.4,1.1,3.8,1.8L218.6,135.9z M215.9,133
	l-0.6-0.5c0.6-0.5,1.2-1,1.7-1.5l0.7,0.5C217.1,132.1,216.5,132.6,215.9,133L215.9,133z M186.2,153.4c-0.2-0.3-0.4-0.6-0.5-0.7
	l0.1,0h-3.9v0.6h-0.8v-3.9c-0.2,0.3-0.4,0.5-0.6,0.8c-0.2-0.3-0.3-0.5-0.5-0.6c0.7-0.7,1.3-1.7,1.7-2.9h-1v-2.4h2.5v2.4h-1.1
	l0.5,0.1c-0.2,0.4-0.3,0.7-0.4,0.9h1.4c0.2-0.5,0.3-0.9,0.4-1.1h-0.2v-2.4h2.6v2.4h-2.3l0.7,0.2c-0.2,0.4-0.3,0.7-0.4,0.9h2.1v0.7
	H184v0.8h2v0.6h-2v0.8h2v0.6h-2v0.8h2.3v0.4c0.5-0.3,0.8-0.7,1-1.2c0.2-0.4,0.3-1.1,0.3-1.9h-0.8V142h4.6v7.2h-1.2v2.8
	c0,0.1,0,0.2,0,0.3c0,0,0.1,0.1,0.2,0.1h0.6c0.1,0,0.2-0.1,0.2-0.3c0-0.2,0.1-0.7,0.1-1.4c0.1,0.1,0.3,0.2,0.7,0.3c0,0,0,0,0.1,0
	c0,0.9-0.1,1.4-0.2,1.7c-0.1,0.3-0.4,0.4-0.7,0.4h-0.8c-0.4,0-0.6-0.1-0.8-0.2c-0.1-0.2-0.2-0.5-0.2-0.9v-2.8h-0.9
	c-0.1,1.1-0.3,2-0.6,2.6C187.6,152.5,187,153,186.2,153.4L186.2,153.4z M181.7,144v-0.8h-1.4v-0.7h1.4v-0.8h0.8v0.8h1.7v-0.8h0.8
	v0.8h1.3v0.7H185v0.8h-0.8v-0.8h-1.7v0.8H181.7z M181.3,146h1.1v-1.1h-1.1V146z M181.9,149.1h1.4v-0.8h-1.4V149.1z M181.9,150.5h1.4
	v-0.8h-1.4V150.5z M181.9,151.9h1.4v-0.8h-1.4V151.9z M184.3,146h1.2v-1.1h-1.2V146z M187.7,144.2h2.9v-1.3h-2.9V144.2z
	 M187.7,146.3h2.9V145h-2.9V146.3z M187.7,148.4h2.9V147h-2.9V148.4z M194.7,153.4c-0.1-0.3-0.3-0.6-0.6-0.8c1.4-0.4,2.4-1.1,2.9-2
	c0.4-0.7,0.7-1.7,0.8-3.2h-3.5v-0.9h5.2v-4.9h1v4.9h5.3v0.9h-3.7v4.6c0,0.2,0,0.4,0.1,0.4c0.1,0.1,0.2,0.1,0.5,0.1h1.7
	c0.2,0,0.4-0.1,0.5-0.4c0.1-0.3,0.1-0.9,0.2-1.8c0.2,0.2,0.5,0.3,0.9,0.4c-0.1,1.1-0.2,1.7-0.4,2.1c-0.2,0.4-0.6,0.5-1.1,0.5h-1.9
	c-0.6,0-1-0.1-1.2-0.3c-0.2-0.2-0.3-0.6-0.3-1.1v-4.6h-2.4c-0.1,1.6-0.5,2.8-0.9,3.6C197.2,152.1,196.2,152.9,194.7,153.4
	L194.7,153.4z M196.9,145.7c-0.1-0.4-0.3-0.9-0.6-1.5c-0.3-0.6-0.6-1.2-0.9-1.7l0.9-0.3c0.3,0.5,0.7,1.1,0.9,1.6
	c0.3,0.6,0.5,1.1,0.6,1.5L196.9,145.7L196.9,145.7z M203.1,145.7l-0.8-0.3c0.3-0.4,0.6-1,0.9-1.6c0.3-0.6,0.6-1.2,0.7-1.7l1,0.4
	C204.2,143.8,203.6,144.9,203.1,145.7L203.1,145.7z M211.8,153.4c-0.1-0.2-0.2-0.5-0.3-0.8c0.4,0,1,0,1.6,0h0.2c0.1,0,0.2,0,0.3-0.1
	c0,0,0.1-0.1,0.1-0.2v-0.9h-4.2v-0.7h4.2v-1h-5.3v-0.8h5.3V148h-4.1v-0.7h4.1v-0.9h-3.7v-2.3h3.7v-0.8h-5.1v-0.8h5.1v-1h1v1h5.2v0.8
	h-5.2v0.8h3.9v2.3h-3.9v0.9h4.1v1.6h1.3v0.8h-1.3v2.3h-1v-0.6h-3.1v0.9c0,0.3,0,0.5-0.1,0.6c-0.1,0.1-0.2,0.2-0.4,0.3
	C213.7,153.3,212.9,153.4,211.8,153.4L211.8,153.4z M210.8,145.7h2.8v-0.9h-2.8V145.7z M214.5,145.7h2.9v-0.9h-2.9V145.7z
	 M214.5,148.9h3.1V148h-3.1V148.9z M214.5,150.7h3.1v-1h-3.1V150.7z M227.6,153.4v-2.8c-0.6,0.5-1.4,1-2.2,1.5
	c-0.8,0.4-1.7,0.8-2.6,1c-0.1-0.3-0.4-0.5-0.6-0.8c0.8-0.2,1.6-0.5,2.5-0.8c0.8-0.4,1.6-0.8,2.1-1.2h-4.2v-0.8h5.1v-1h-3.9v-0.7h3.9
	v-0.9h-4.6V146h2.8c-0.1-0.4-0.3-0.8-0.6-1.3l0.5-0.1h-3.2v-0.8h2.1c-0.2-0.5-0.5-1.1-1-1.9l0.8-0.3c0.5,0.7,0.9,1.3,1.1,1.9
	l-0.7,0.2h1.6v-2.3h0.9v2.3h1.5v-2.3h0.9v2.3h1.6l-0.5-0.2c0.4-0.6,0.7-1.3,1-2l1,0.3c-0.5,0.8-0.8,1.4-1.1,1.9h2v0.8h-2.6
	c-0.3,0.6-0.6,1-0.8,1.4h2.9v0.8h-4.7v0.9h4.1v0.7h-4.1v1h5.2v0.8h-4.3c0.6,0.5,1.3,0.9,2.1,1.2c0.8,0.4,1.6,0.6,2.5,0.8
	c-0.3,0.3-0.5,0.6-0.6,0.9c-0.9-0.2-1.8-0.6-2.6-1.1c-0.9-0.5-1.7-1-2.3-1.6v2.8L227.6,153.4L227.6,153.4z M226.4,146h3l-0.1,0
	c0.2-0.4,0.5-0.9,0.7-1.3h-3.8c0.3,0.4,0.5,0.9,0.6,1.3L226.4,146L226.4,146z M91.5,136.2V125h10.8v11.3h-0.9v-0.6h-8.9v0.6H91.5z
	 M92.4,134.7h8.9v-8.9h-8.9V134.7z M93.2,133.5l-0.1-0.7c0.6-0.1,1.8-0.3,3.5-0.6c0.2,0,0.3-0.1,0.4-0.1l0,0.7
	c-0.3,0.1-0.7,0.1-1.3,0.2C94.5,133.3,93.6,133.4,93.2,133.5z M99.5,134.1c-0.5-0.1-1-0.5-1.3-1.3c-0.5,0.6-1.1,1.1-1.7,1.5
	c-0.2-0.2-0.4-0.4-0.6-0.6c0.8-0.4,1.4-1,2-1.7c-0.3-0.9-0.5-2.1-0.7-3.8h-4v-0.7h3.9c-0.1-0.6-0.1-1.1-0.1-1.4h0.8
	c0,0.3,0,0.8,0.1,1.4h2.8v0.7h-2.8c0.1,1.2,0.3,2.2,0.5,3c0.4-0.7,0.7-1.5,1-2.4l0.8,0.2c-0.3,1.2-0.8,2.2-1.4,3.2
	c0.3,0.7,0.6,1.1,1,1.2c0.2,0,0.3-0.4,0.4-1.3c0.2,0.2,0.4,0.3,0.6,0.4C100.6,133.8,100.2,134.4,99.5,134.1L99.5,134.1z M93.6,131.6
	v-2.5h2.9v2.5H93.6z M94.3,131h1.5v-1.3h-1.5V131z M99.9,127.4c-0.4-0.4-0.8-0.7-1.4-0.9L99,126c0.6,0.3,1.1,0.6,1.4,0.9L99.9,127.4
	L99.9,127.4z M105.7,132.7c-0.2-0.3-0.4-0.5-0.7-0.7c0.9-0.5,1.8-1.1,2.5-1.8h-2.3v-0.8h3c0.3-0.4,0.6-0.8,0.8-1.2h-2.4v-0.8h2.8
	c0.2-0.3,0.3-0.7,0.4-1.1h-3.9v-0.8h4.2c0.1-0.4,0.2-0.8,0.2-1.2l1,0.1c-0.1,0.4-0.1,0.8-0.2,1.1h5.1v0.8h-5.3
	c-0.1,0.3-0.2,0.6-0.4,1.1h5.2v0.8h-2.8c0.2,0.4,0.5,0.8,0.8,1.2h3.1v0.8h-2.3c0.8,0.7,1.6,1.3,2.5,1.6c-0.3,0.3-0.5,0.5-0.6,0.8
	c-1.1-0.5-2.2-1.3-3.1-2.4h-4.5C107.8,131.2,106.8,132.1,105.7,132.7L105.7,132.7z M106.2,135.7l-0.4-0.8c0.9-0.3,2.2-0.7,3.9-1.3
	l0.2,0.8c-0.1,0-0.3,0.1-0.5,0.2C107.8,135.1,106.8,135.5,106.2,135.7L106.2,135.7z M109,133.2c-0.3-0.5-0.9-1-1.7-1.5l0.6-0.6
	c0.8,0.6,1.4,1,1.7,1.5L109,133.2z M109.1,136.2c0-0.2-0.1-0.5-0.3-0.8c0.7,0,1.2,0,1.4,0c0.1,0,0.2,0,0.2,0c0,0,0.1-0.1,0.1-0.2
	v-4.7h0.9v4.7c0,0.2,0,0.4-0.1,0.6c-0.1,0.1-0.2,0.2-0.4,0.3C110.6,136.2,110,136.2,109.1,136.2L109.1,136.2z M109.3,129.4h3.3
	c-0.2-0.4-0.5-0.7-0.7-1.2H110C109.8,128.6,109.6,129,109.3,129.4z M115.5,135.9c-1.1-0.7-2.4-1.3-3.8-1.9l0.5-0.7
	c1.2,0.5,2.4,1.1,3.8,1.8L115.5,135.9z M112.8,133l-0.6-0.5c0.6-0.5,1.2-1,1.7-1.5l0.7,0.5C114,132.1,113.4,132.6,112.8,133
	L112.8,133z M77.3,146.1l-0.3-0.8c0.5-0.1,1.4-0.3,2.7-0.6c0.5-0.1,0.9-0.2,1.2-0.3l0.1,0.7C80.1,145.3,78.9,145.6,77.3,146.1
	C77.4,146.1,77.3,146.1,77.3,146.1L77.3,146.1z M77.9,153.4c0,0-0.1-0.1-0.1-0.1c-0.3-0.3-0.5-0.5-0.6-0.6c1.7-0.3,2.9-0.8,3.8-1.2
	l0.9,0.4C80.8,152.4,79.5,153,77.9,153.4L77.9,153.4z M77.4,143.3v-0.8h3.4v0.8H77.4z M78.8,151.3v-5.2h8.4v5.2H78.8z M79.7,147.6
	h6.5v-0.9h-6.5V147.6z M79.7,149.1h6.5v-0.9h-6.5V149.1z M79.7,150.7h6.5v-0.9h-6.5V150.7z M88.3,146.3c-1.9-0.3-3.1-1-3.6-2.1
	c-0.3,0.5-0.6,0.9-1.2,1.2c-0.5,0.3-1.2,0.6-2.2,0.7c-0.1-0.2-0.2-0.4-0.5-0.7c1-0.2,1.8-0.5,2.3-0.8c0.5-0.3,0.8-0.8,0.9-1.4h-1.4
	c-0.3,0.4-0.7,0.8-1.2,1.1c-0.2-0.2-0.5-0.4-0.7-0.5c0.9-0.6,1.6-1.4,2-2.3l0.9,0.1c-0.1,0.3-0.3,0.5-0.4,0.8h4.4l0.2,0l0.6,0.2
	c-0.4,0.8-0.9,1.4-1.3,1.8l-0.8-0.3c0.3-0.3,0.5-0.6,0.8-1h-2.1c0.2,0.6,0.5,1,0.9,1.4c0.6,0.5,1.5,0.8,2.7,0.9
	C88.6,145.8,88.4,146,88.3,146.3L88.3,146.3z M87.6,153.4c-0.8-0.4-2-0.9-3.6-1.4l0.8-0.5c1.7,0.5,3,1,3.9,1.4L87.6,153.4
	L87.6,153.4z M91,144.5v-0.8h4.8v0.8H91z M91.6,153.2v-4.3h3.8v3.7h-2.9v0.6H91.6z M91.6,146.2v-0.8h3.8v0.8H91.6z M91.6,147.9v-0.8
	h3.8v0.8H91.6z M91.6,142.8V142h3.7v0.8H91.6z M92.4,151.8h2.1v-2.2h-2.1V151.8z M97.4,153.1v-5.2h-1.7V147h1.7v-3.2h0.9v3.2h1.7
	v0.9h-1.7v5.2H97.4z M101.9,153.3c-0.6-0.2-1.1-1.2-1.3-3.1c-0.1-1.2-0.2-3.5-0.2-6.8v-0.2h-4.5v-0.9h5.5c0,3.5,0,5.8,0.1,7
	c0.1,2,0.4,3,0.8,3.1c0,0,0.1-0.2,0.1-0.6c0.1-0.4,0.1-0.9,0.1-1.4c0.2,0.3,0.4,0.5,0.6,0.7c-0.1,1-0.2,1.7-0.4,2
	C102.5,153.4,102.2,153.5,101.9,153.3L101.9,153.3z M110.4,153.3v-2.8c-0.6,0.5-1.4,1.1-2.3,1.6c-0.9,0.5-1.7,0.8-2.6,1.1
	c-0.2-0.3-0.4-0.6-0.6-0.8c0.8-0.2,1.7-0.5,2.5-0.9c0.9-0.4,1.6-0.8,2.2-1.3h-4.4v-0.8h5.2v-0.8h-3.7v-3.8c-0.4,0.5-0.8,0.9-1.2,1.2
	c-0.2-0.2-0.4-0.5-0.7-0.6c0.7-0.5,1.3-1.2,1.9-1.9c0.5-0.6,0.9-1.3,1.2-1.9l1,0.2c-0.2,0.4-0.5,0.9-0.8,1.4h2.5
	c0.3-0.6,0.5-1.1,0.7-1.5l1.1,0.2c-0.3,0.6-0.6,1-0.8,1.4h4.3v0.8h-4.2v0.9h3.7v0.7h-3.7v0.9h3.8v0.7h-3.8v0.9h4.7v0.8h-5v0.8h5.3
	v0.8h-4.5c0.6,0.5,1.3,0.9,2.2,1.3c0.8,0.4,1.7,0.7,2.5,0.9c-0.2,0.2-0.5,0.5-0.6,0.8c-0.9-0.2-1.7-0.6-2.6-1.1
	c-0.9-0.5-1.7-1-2.3-1.5v2.8H110.4z M107.6,144.7h3v-0.9h-3V144.7z M107.6,146.3h3v-0.9h-3V146.3z M107.6,147.8h3v-0.9h-3V147.8z
	 M119.7,153.4v-11.2h10.4v11.2h-0.9v-0.6h-8.6v0.7L119.7,153.4L119.7,153.4z M120.6,151.9h8.6v-9h-8.6V151.9z M125,151.7
	c0-0.2-0.1-0.3-0.2-0.5c0.6,0,1,0,1.1,0c0.1,0,0.2-0.1,0.2-0.2v-1.2h-5.1v-0.6h5.1v-0.5h0.8v0.5h1.9v0.6h-1.9v1.2
	c0,0.2,0,0.3-0.1,0.4c-0.1,0.1-0.2,0.1-0.3,0.2C126.4,151.7,125.9,151.7,125,151.7L125,151.7z M128,149.1c-0.1-0.1-0.3-0.3-0.5-0.6
	c-2.1,0.1-4.1,0.1-6.2,0.2l0-0.6c0.5,0,1.5,0,2.9,0h0.3v-0.6h-2.8v-2.6h2.8v-0.5h-3.3v-0.6h3.3v-0.6h0.8v0.6h3.3v0.6h-3.3v0.5h2.9
	v2.6h-1c0.6,0.4,1.1,0.9,1.4,1.3L128,149.1L128,149.1z M123.6,151.4c-0.2-0.3-0.6-0.8-1.1-1.2l0.6-0.3c0.5,0.4,0.9,0.8,1.2,1.2
	L123.6,151.4L123.6,151.4z M122.5,145.9h2v-0.6h-2V145.9z M122.5,146.9h2v-0.6h-2V146.9z M125.3,145.9h2.1v-0.6h-2.1V145.9z
	 M125.3,146.9h2.1v-0.6h-2.1V146.9z M125.3,148.1l1.6,0c-0.1-0.1-0.2-0.1-0.3-0.2l0.5-0.3h-1.8V148.1z"/>
</svg>
