<svg width="22" height="568" viewBox="0 0 22 568" fill="none" xmlns="http://www.w3.org/2000/svg">
<path d="M14.9803 547.437C16.306 548.006 17.4549 548.78 18.4271 549.753C19.3993 550.726 20.1505 551.871 20.6719 553.162C21.1934 554.462 21.4585 555.839 21.4585 557.303C21.4585 558.74 21.2022 560.109 20.6808 561.4C20.1682 562.691 19.4346 563.819 18.489 564.783C17.5433 565.747 16.412 566.514 15.104 567.073C13.7872 567.633 12.3466 567.908 10.7646 567.908C9.09424 567.908 7.58295 567.615 6.25726 567.03C4.92273 566.445 3.79147 565.653 2.87233 564.654C1.94435 563.656 1.23731 562.493 0.742386 561.159C0.247462 559.825 -4.15044e-07 558.413 -4.79765e-07 556.932C-5.50131e-07 555.323 0.291651 553.876 0.874955 552.594C1.45826 551.311 2.24484 550.226 3.22585 549.34C4.20686 548.453 5.34695 547.764 6.62845 547.291C7.90995 546.818 9.25332 546.585 10.6586 546.585C12.214 546.585 13.6546 546.869 14.9803 547.437ZM7.09686 550.554C5.88606 550.846 4.79016 551.294 3.80915 551.888C2.82814 552.491 2.02389 553.231 1.41407 554.126C0.804252 555.013 0.494924 556.072 0.494924 557.285C0.494924 558.516 0.804252 559.584 1.41407 560.488C2.02389 561.392 2.8193 562.132 3.79147 562.709C4.76365 563.285 5.86839 563.716 7.1057 563.991C8.34301 564.267 9.598 564.405 10.8618 564.405C12.1875 564.405 13.4602 564.25 14.6887 563.948C15.9171 563.647 16.9954 563.191 17.9322 562.597C18.869 562.003 19.6202 561.254 20.177 560.35C20.7426 559.446 21.0254 558.404 21.0254 557.208C21.0254 556.011 20.7161 554.978 20.0886 554.092C19.4611 553.214 18.6657 552.473 17.6759 551.888C16.6949 551.303 15.5901 550.863 14.3616 550.562C13.1332 550.27 11.9047 550.123 10.6851 550.123C9.50078 550.106 8.29882 550.261 7.09686 550.554Z" fill="#3E3A39"/>
<path d="M21.317 437.903C21.1403 438.076 21.0077 438.196 20.9193 438.274C20.8309 438.351 20.7249 438.437 20.61 438.532C20.4951 438.627 20.3272 438.747 20.0974 438.885C19.8764 439.031 19.5406 439.246 19.0899 439.556C18.5419 439.918 18.0558 440.236 17.6139 440.512C17.1809 440.787 16.7478 441.063 16.3148 441.347C15.8905 441.631 15.4575 441.941 15.0156 442.268C14.5737 442.604 14.0876 442.991 13.5396 443.447C13.0889 443.826 12.6735 444.239 12.2847 444.687C11.8958 445.135 11.6572 445.599 11.5599 446.099C11.4804 446.46 11.4451 446.736 11.4451 446.925C11.4451 447.097 11.4362 447.313 11.4185 447.579C12.6824 447.579 13.7871 447.579 14.7151 447.579C15.6519 447.579 16.4385 447.571 17.0837 447.554C17.7111 447.536 18.2414 447.519 18.6922 447.493C19.1429 447.476 19.5141 447.373 19.8057 447.183C20.062 447.028 20.3183 446.736 20.5835 446.305C20.8486 445.866 20.9989 445.264 21.0342 444.48L21.3259 444.48L21.3259 453.579L21.0342 453.579C20.9547 453.106 20.8398 452.65 20.6807 452.211C20.5216 451.772 20.2918 451.436 19.9825 451.186C19.8676 451.092 19.6908 451.014 19.4611 450.963C19.2313 450.902 18.9661 450.868 18.6745 450.833C18.3828 450.808 18.0735 450.782 17.7377 450.764C17.4018 450.747 17.0837 450.739 16.7743 450.739C16.5004 450.739 16.1292 450.73 15.6696 450.721C15.2012 450.713 14.6886 450.704 14.1318 450.696C13.575 450.687 13.0094 450.678 12.4261 450.678C11.8251 450.678 11.2595 450.678 10.7292 450.678L5.01987 450.678C4.66636 450.678 4.31284 450.687 3.95048 450.696C3.58813 450.704 3.25229 450.721 2.92528 450.756C2.60712 450.782 2.31546 450.833 2.05033 450.902C1.78519 450.971 1.59959 451.057 1.47586 451.169C1.16653 451.453 0.954422 451.772 0.848367 452.125C0.742312 452.478 0.645095 452.908 0.574391 453.416L0.291577 453.416C0.291577 453.261 0.291577 452.874 0.291577 452.245C0.291577 451.6 0.282739 450.868 0.273901 450.059C0.265063 449.241 0.256225 448.423 0.256225 447.614C0.256225 446.796 0.256225 446.133 0.256225 445.625C0.256225 444.351 0.291577 443.224 0.371118 442.242C0.45066 441.252 0.715798 440.357 1.15769 439.539C1.60843 438.704 2.21825 438.033 2.98715 437.516C3.75605 437.008 4.72822 436.75 5.89483 436.75C6.6107 436.75 7.26471 436.879 7.83917 437.137C8.41364 437.396 8.9174 437.731 9.3593 438.162C9.8012 438.592 10.1724 439.083 10.4817 439.651C10.791 440.219 11.0562 440.822 11.2683 441.442L11.3567 441.442C11.5334 441.123 11.7809 440.805 12.1167 440.503C12.4526 440.202 12.8149 439.909 13.2303 439.625C13.9727 439.134 14.7681 438.592 15.6254 438.015C16.4827 437.439 17.2427 436.922 17.9056 436.466C18.9219 435.769 19.6555 435.08 20.1239 434.417C20.5923 433.754 20.8928 432.98 21.0254 432.084L21.317 432.084L21.317 437.903V437.903ZM3.12855 440.718C2.36849 441.192 1.76751 441.881 1.31678 442.793C1.10467 443.249 0.945584 443.723 0.848367 444.231C0.75115 444.73 0.698122 445.264 0.698122 445.806C0.698122 446.202 0.70696 446.529 0.724636 446.77C0.742312 447.02 0.759988 447.209 0.786502 447.338C0.901395 447.356 1.00745 447.373 1.09583 447.399C1.18421 447.416 1.2991 447.433 1.43167 447.442C1.57308 447.45 1.75867 447.459 2.00614 447.468C2.2536 447.476 2.59828 447.493 3.04018 447.511C3.7207 447.528 4.4896 447.545 5.34688 447.554C6.20416 447.562 7.03492 447.571 7.83034 447.571C8.62575 447.571 9.33279 447.571 9.93377 447.571C10.5171 447.571 10.8883 447.571 11.0473 447.571C11.0473 446.796 11.012 446.073 10.9413 445.393C10.8706 444.721 10.7292 444.067 10.5171 443.447C10.3226 442.836 10.0575 442.32 9.73049 441.881C9.39465 441.442 9.02346 441.089 8.60807 440.813C8.19269 440.538 7.73312 440.331 7.24703 440.202C6.76095 440.064 6.25718 440.004 5.72691 440.004C4.7459 440.013 3.87978 440.245 3.12855 440.718Z" fill="#3E3A39"/>
<path d="M5.78001 223.984C5.42649 224.139 5.06414 224.32 4.68411 224.526C4.30407 224.733 3.95056 224.948 3.61472 225.163C3.28771 225.379 2.97838 225.594 2.69557 225.8C2.41276 226.007 2.20065 226.188 2.06808 226.343C1.67921 226.739 1.42291 227.169 1.29034 227.634C1.16661 228.099 1.08707 228.693 1.06939 229.416C1.06939 229.777 1.06055 230.087 1.05171 230.354C1.04288 230.621 1.03404 230.888 1.03404 231.155C1.03404 231.405 1.03404 231.68 1.03404 231.981C1.03404 232.265 1.03404 232.618 1.03404 233.032C1.52012 233.032 2.18297 233.031 3.02257 233.049C3.86218 233.057 4.73713 233.066 5.64744 233.066C6.56659 233.066 7.46806 233.066 8.36069 233.066C9.23564 233.066 9.97803 233.066 10.579 233.066L17.0572 233.066C17.6228 233.066 18.162 233.049 18.6834 233.023C19.196 232.997 19.5672 232.902 19.7793 232.756C20.2035 232.472 20.4952 232.067 20.6543 231.542C20.8133 231.026 20.9282 230.552 21.0078 230.131L21.2994 230.131L21.2994 239.376L21.0078 239.376C20.9459 238.885 20.8487 238.412 20.7161 237.956C20.5836 237.499 20.2566 237.052 19.7528 236.621C19.6556 236.527 19.4965 236.458 19.2667 236.406C19.0458 236.363 18.7895 236.32 18.5066 236.294C18.2238 236.268 17.9145 236.242 17.5875 236.234C17.2605 236.225 16.9335 236.217 16.6242 236.217C16.3502 236.217 15.9878 236.208 15.5459 236.199C15.0952 236.191 14.6003 236.182 14.0612 236.174C13.5132 236.165 12.9476 236.156 12.3643 236.156C11.781 236.156 11.2242 236.156 10.7027 236.156L1.05171 236.156C1.05171 236.552 1.05171 236.905 1.05171 237.207C1.05171 237.491 1.05171 237.766 1.05171 238.033C1.05171 238.283 1.05171 238.541 1.06939 238.816C1.07823 239.092 1.08707 239.41 1.08707 239.772C1.10474 240.495 1.19312 241.08 1.3522 241.554C1.51129 242.019 1.78526 242.449 2.17413 242.845C2.31554 243 2.51881 243.172 2.78395 243.37C3.04909 243.568 3.35842 243.775 3.67658 243.999C3.99475 244.214 4.33943 244.42 4.71062 244.627C5.08181 244.825 5.43533 244.98 5.78885 245.092L5.70047 245.35L0.150245 244.498C0.247462 244.059 0.327004 243.663 0.380031 243.293C0.433059 242.923 0.477248 242.389 0.494924 241.683C0.5126 240.96 0.530276 240.314 0.539114 239.746C0.547952 239.178 0.55679 238.627 0.55679 238.093C0.55679 237.56 0.55679 237.026 0.55679 236.475C0.55679 235.907 0.55679 235.27 0.55679 234.572C0.556789 233.875 0.556789 233.247 0.556789 232.696C0.556789 232.128 0.547951 231.577 0.539114 231.043C0.530276 230.509 0.521438 229.958 0.5126 229.39C0.503762 228.822 0.494924 228.176 0.494924 227.453C0.477248 226.825 0.42422 226.308 0.335841 225.904C0.247461 225.499 0.132568 225.077 -9.05343e-07 224.638L5.69163 223.726L5.78001 223.984Z" fill="#3E3A39"/>
<path d="M14.9803 111.782C16.306 112.35 17.4549 113.125 18.4271 114.097C19.3993 115.07 20.1505 116.215 20.6719 117.506C21.1934 118.806 21.4585 120.184 21.4585 121.647C21.4585 123.085 21.2022 124.453 20.6808 125.745C20.1682 127.036 19.4346 128.164 18.489 129.128C17.5433 130.092 16.412 130.858 15.104 131.418C13.7872 131.977 12.3466 132.253 10.7646 132.253C9.09424 132.253 7.58295 131.96 6.25726 131.374C4.92273 130.789 3.79147 129.997 2.87233 128.999C1.94435 128 1.23731 126.838 0.742386 125.504C0.247462 124.169 -4.15044e-07 122.757 -4.79765e-07 121.277C-5.50131e-07 119.667 0.291651 118.221 0.874955 116.938C1.45826 115.655 2.24484 114.571 3.22585 113.684C4.20686 112.798 5.34695 112.109 6.62845 111.635C7.90995 111.162 9.25332 110.929 10.6586 110.929C12.214 110.929 13.6546 111.214 14.9803 111.782ZM7.09686 114.898C5.88606 115.191 4.79016 115.638 3.80915 116.232C2.82814 116.835 2.02389 117.575 1.41407 118.47C0.804252 119.357 0.494924 120.416 0.494924 121.63C0.494924 122.861 0.804252 123.928 1.41407 124.832C2.02389 125.736 2.8193 126.476 3.79147 127.053C4.76365 127.63 5.86839 128.06 7.1057 128.336C8.34301 128.611 9.598 128.749 10.8618 128.749C12.1875 128.749 13.4602 128.594 14.6887 128.293C15.9171 127.991 16.9954 127.535 17.9322 126.941C18.869 126.347 19.6202 125.598 20.177 124.694C20.7426 123.79 21.0254 122.749 21.0254 121.552C21.0254 120.356 20.7161 119.323 20.0886 118.436C19.4611 117.558 18.6657 116.818 17.6759 116.232C16.6949 115.647 15.5901 115.208 14.3616 114.907C13.1332 114.614 11.9047 114.468 10.6851 114.468C9.50078 114.459 8.29882 114.605 7.09686 114.898Z" fill="#3E3A39"/>
<path d="M8.32533 1.33558C8.90864 1.5594 9.42124 1.86063 9.87197 2.23079C10.3227 2.60095 10.7027 3.03137 11.0297 3.52205C11.3479 4.01273 11.613 4.52063 11.8075 5.02853C12.0019 5.56225 12.1522 6.1305 12.2494 6.73309C12.3466 7.34428 12.4173 7.95549 12.4703 8.56669C12.5234 9.18649 12.541 9.78906 12.541 10.3744C12.541 10.9426 12.541 11.4591 12.541 11.9068C13.1685 11.9068 13.6988 11.9068 14.1495 11.9068C14.5738 11.9068 14.9538 11.9068 15.2896 11.9068C15.6166 11.9068 15.926 11.9067 16.2088 11.8895C16.4916 11.8809 16.8009 11.8723 17.1279 11.8723C17.7466 11.8551 18.2857 11.8378 18.7364 11.812C19.1872 11.7948 19.5584 11.6915 19.8412 11.5021C20.0975 11.3471 20.3449 11.0544 20.6012 10.624C20.8575 10.185 20.9989 9.58239 21.0431 8.79902L21.3348 8.79902L21.3348 17.8982L21.0431 17.8982C20.9636 17.4247 20.8487 16.9685 20.6896 16.5381C20.5305 16.0991 20.3007 15.7633 19.9914 15.5136C19.8765 15.419 19.6998 15.3415 19.47 15.2898C19.2402 15.2296 18.975 15.1951 18.6834 15.1607C18.3917 15.1348 18.0824 15.1091 17.7466 15.0918C17.4107 15.0746 17.0926 15.066 16.7832 15.066C16.5093 15.066 16.1381 15.0574 15.6785 15.0488C15.2101 15.0401 14.6975 15.0316 14.1407 15.023C13.5839 15.0144 13.0183 15.0058 12.435 15.0058C11.834 15.0058 11.2684 15.0058 10.7381 15.0058L5.01995 15.0058C4.66643 15.0058 4.31291 15.0144 3.95056 15.023C3.5882 15.0316 3.25236 15.0488 2.92536 15.0832C2.60719 15.109 2.31554 15.1607 2.0504 15.2296C1.78526 15.2985 1.59967 15.3845 1.47593 15.4964C1.16661 15.7805 0.954496 16.1421 0.848441 16.5897C0.742385 17.0373 0.645168 17.5108 0.574465 18.0273L0.291651 18.0273C0.291651 17.9154 0.291651 17.683 0.291651 17.3472C0.291651 16.9857 0.282813 16.5639 0.273975 16.0818C0.265137 15.5998 0.256299 15.0746 0.256299 14.5064C0.256299 13.9383 0.256299 13.3787 0.238623 12.8106C0.229785 12.251 0.220947 11.726 0.220947 11.2353C0.220947 10.7274 0.220947 10.297 0.220947 9.95263C0.220947 8.70441 0.282812 7.59393 0.406543 6.62117C0.530274 5.64842 0.839602 4.7445 1.32569 3.89226C1.7941 3.05724 2.45694 2.36854 3.31422 1.8176C4.1715 1.26666 5.18787 0.991225 6.35447 0.991224C7.08802 0.999833 7.73319 1.11176 8.32533 1.33558ZM3.20817 4.9081C2.33321 5.46765 1.67037 6.19931 1.21963 7.11181C1.00752 7.56805 0.857278 8.05018 0.777737 8.56669C0.698195 9.07458 0.662844 9.60829 0.662844 10.1592C0.662844 10.5552 0.68052 10.8651 0.707033 11.0803C0.733547 11.2955 0.760061 11.4763 0.777737 11.6054C0.89263 11.6226 0.998685 11.6485 1.08706 11.6743C1.17544 11.7001 1.29034 11.7259 1.42291 11.7431C1.56431 11.7604 1.74991 11.7776 1.99737 11.8035C2.24483 11.8207 2.58951 11.8378 3.03141 11.8551C3.71193 11.8723 4.5427 11.8895 5.51487 11.8981C6.48704 11.9068 7.44154 11.9153 8.37836 11.9153C9.31518 11.9153 10.1283 11.9153 10.8265 11.9153C11.5247 11.9153 11.9577 11.9153 12.108 11.9153C12.108 11.1405 12.0815 10.4089 12.0373 9.7288C11.9931 9.04874 11.8605 8.41164 11.6396 7.82627C11.2153 6.61248 10.5083 5.68278 9.51846 5.03714C8.53744 4.39151 7.4327 4.073 6.20423 4.07301C5.09065 4.0644 4.08312 4.34855 3.20817 4.9081Z" fill="#3E3A39"/>
</svg>
