<svg width="34" height="931" viewBox="0 0 34 931" fill="none" xmlns="http://www.w3.org/2000/svg">
<path d="M23.7356 896.916C25.8361 897.847 27.6566 899.118 29.1969 900.712C30.7373 902.307 31.9276 904.185 32.7538 906.302C33.58 908.433 34.0001 910.691 34.0001 913.091C34.0001 915.448 33.594 917.692 32.7678 919.809C31.9556 921.926 30.7933 923.775 29.295 925.356C27.7966 926.936 26.0042 928.193 23.9317 929.11C21.8452 930.027 19.5627 930.479 17.0561 930.479C14.4094 930.479 12.0149 929.999 9.91436 929.039C7.79985 928.08 6.00743 926.781 4.55108 925.144C3.08073 923.507 1.96047 921.601 1.17628 919.414C0.392093 917.226 -6.80489e-07 914.911 -7.86603e-07 912.484C-9.01971e-07 909.844 0.462109 907.473 1.38633 905.37C2.31055 903.267 3.55684 901.489 5.11121 900.035C6.66558 898.581 8.47201 897.452 10.5025 896.676C12.533 895.9 14.6615 895.519 16.888 895.519C19.3526 895.519 21.6351 895.984 23.7356 896.916ZM11.2447 902.025C9.32622 902.505 7.5898 903.239 6.03543 904.213C4.48106 905.201 3.20676 906.415 2.24053 907.882C1.2743 909.336 0.784186 911.072 0.784186 913.062C0.784186 915.081 1.2743 916.831 2.24053 918.313C3.20676 919.795 4.46706 921.009 6.00743 921.954C7.54779 922.9 9.29821 923.605 11.2587 924.057C13.2191 924.509 15.2076 924.735 17.2101 924.735C19.3106 924.735 21.3271 924.481 23.2735 923.987C25.22 923.493 26.9284 922.745 28.4128 921.771C29.8971 920.797 31.0874 919.569 31.9696 918.087C32.8658 916.605 33.3139 914.897 33.3139 912.935C33.3139 910.973 32.8238 909.28 31.8296 907.826C30.8353 906.386 29.575 905.173 28.0067 904.213C26.4523 903.253 24.7019 902.533 22.7554 902.039C20.8089 901.559 18.8625 901.319 16.93 901.319C15.0536 901.291 13.1491 901.545 11.2447 902.025Z" fill="#3E3A39"/>
<path d="M33.7759 717.329C33.4959 717.611 33.2858 717.809 33.1458 717.936C33.0058 718.063 32.8377 718.204 32.6557 718.359C32.4736 718.515 32.2076 718.712 31.8435 718.938C31.4934 719.178 30.9613 719.531 30.2471 720.039C29.3789 720.632 28.6087 721.154 27.9085 721.606C27.2224 722.057 26.5362 722.509 25.8501 722.975C25.1779 723.44 24.4917 723.948 23.7916 724.485C23.0914 725.035 22.3212 725.67 21.453 726.418C20.7388 727.039 20.0807 727.717 19.4645 728.451C18.8484 729.185 18.4703 729.947 18.3163 730.766C18.1902 731.358 18.1342 731.81 18.1342 732.121C18.1342 732.403 18.1202 732.756 18.0922 733.193C20.0947 733.193 21.8451 733.193 23.3155 733.193C24.7998 733.193 26.0461 733.179 27.0683 733.151C28.0626 733.123 28.9028 733.094 29.617 733.052C30.3311 733.024 30.9193 732.854 31.3814 732.544C31.7875 732.29 32.1936 731.81 32.6137 731.104C33.0338 730.384 33.2718 729.396 33.3278 728.112L33.7899 728.112L33.7899 743.031L33.3278 743.031C33.2018 742.254 33.0198 741.506 32.7677 740.786C32.5156 740.067 32.1516 739.516 31.6614 739.107C31.4794 738.952 31.1993 738.825 30.8352 738.74C30.4712 738.641 30.0511 738.585 29.5889 738.528C29.1268 738.486 28.6367 738.444 28.1046 738.415C27.5725 738.387 27.0683 738.373 26.5782 738.373C26.1441 738.373 25.556 738.359 24.8278 738.345C24.0856 738.331 23.2734 738.317 22.3912 738.302C21.509 738.288 20.6128 738.274 19.6886 738.274C18.7364 738.274 17.8402 738.274 17 738.274L7.9538 738.274C7.39367 738.274 6.83353 738.288 6.2594 738.302C5.68526 738.317 5.15313 738.345 4.63501 738.401C4.13089 738.444 3.66878 738.528 3.24868 738.641C2.82858 738.754 2.53451 738.895 2.33847 739.079C1.84835 739.544 1.51227 740.067 1.34423 740.645C1.17619 741.224 1.02215 741.93 0.910126 742.762L0.462019 742.762C0.462019 742.508 0.462019 741.873 0.462019 740.843C0.462019 739.784 0.448016 738.585 0.434012 737.258C0.420009 735.917 0.406005 734.576 0.406005 733.25C0.406005 731.909 0.406005 730.822 0.406005 729.989C0.406005 727.9 0.462018 726.051 0.588048 724.442C0.714078 722.819 1.13418 721.352 1.83434 720.011C2.54851 718.642 3.51474 717.541 4.73303 716.694C5.95132 715.861 7.49169 715.438 9.34013 715.438C10.4744 715.438 11.5106 715.649 12.4209 716.073C13.3311 716.496 14.1293 717.047 14.8294 717.752C15.5296 718.458 16.1177 719.263 16.6079 720.194C17.098 721.126 17.5181 722.114 17.8542 723.13L17.9942 723.13C18.2743 722.608 18.6663 722.085 19.1985 721.591C19.7306 721.097 20.3047 720.618 20.9629 720.152C22.1392 719.347 23.3995 718.458 24.7578 717.512C26.1161 716.567 27.3204 715.72 28.3707 714.972C29.981 713.829 31.1433 712.7 31.8855 711.613C32.6277 710.526 33.1038 709.256 33.3138 707.788L33.7759 707.788L33.7759 717.329V717.329ZM4.95709 721.944C3.7528 722.721 2.80057 723.85 2.0864 725.346C1.75032 726.094 1.49826 726.87 1.34423 727.703C1.19019 728.521 1.10617 729.396 1.10617 730.286C1.10617 730.935 1.12018 731.471 1.14818 731.866C1.17619 732.276 1.2042 732.586 1.24621 732.798C1.42825 732.826 1.59629 732.854 1.73632 732.897C1.87636 732.925 2.0584 732.953 2.26845 732.967C2.4925 732.981 2.78657 732.996 3.17866 733.01C3.57076 733.024 4.11689 733.052 4.81705 733.08C5.89531 733.108 7.1136 733.137 8.47192 733.151C9.83025 733.165 11.1466 733.179 12.4069 733.179C13.6672 733.179 14.7874 733.179 15.7397 733.179C16.6639 733.179 17.252 733.179 17.5041 733.179C17.5041 731.909 17.4481 730.723 17.336 729.608C17.224 728.507 17 727.435 16.6639 726.418C16.3558 725.416 15.9357 724.569 15.4176 723.85C14.8854 723.13 14.2973 722.551 13.6392 722.1C12.981 721.648 12.2528 721.309 11.4826 721.097C10.7125 720.872 9.91427 720.773 9.07407 720.773C7.5197 720.787 6.14737 721.168 4.95709 721.944Z" fill="#3E3A39"/>
<path d="M9.15818 366.596C8.59804 366.85 8.02391 367.146 7.42176 367.485C6.81962 367.824 6.25949 368.176 5.72736 368.529C5.20924 368.882 4.71912 369.235 4.27101 369.574C3.82291 369.912 3.48683 370.209 3.27678 370.463C2.66063 371.112 2.25453 371.818 2.04449 372.58C1.84844 373.342 1.72241 374.316 1.6944 375.502C1.6944 376.094 1.6804 376.602 1.6664 377.04C1.65239 377.477 1.63839 377.915 1.63839 378.353C1.63839 378.762 1.63839 379.213 1.63839 379.707C1.63839 380.173 1.63839 380.752 1.63839 381.43C2.40857 381.43 3.45882 381.429 4.78914 381.458C6.11945 381.472 7.50578 381.486 8.94813 381.486C10.4045 381.486 11.8328 381.486 13.2471 381.486C14.6335 381.486 15.8098 381.486 16.762 381.486L27.0264 381.486C27.9226 381.486 28.7768 381.458 29.603 381.415C30.4152 381.373 31.0034 381.218 31.3395 380.978C32.0116 380.512 32.4737 379.849 32.7258 378.988C32.9778 378.141 33.1599 377.365 33.2859 376.673L33.748 376.673L33.748 391.832L33.2859 391.832C33.1879 391.027 33.0339 390.251 32.8238 389.503C32.6138 388.755 32.0956 388.021 31.2974 387.315C31.1434 387.16 30.8913 387.047 30.5273 386.962C30.1772 386.892 29.7711 386.821 29.323 386.779C28.8749 386.736 28.3847 386.694 27.8666 386.68C27.3485 386.666 26.8304 386.652 26.3403 386.652C25.9062 386.652 25.332 386.637 24.6319 386.623C23.9177 386.609 23.1335 386.595 22.2793 386.581C21.4111 386.567 20.5149 386.553 19.5907 386.553C18.6664 386.553 17.7842 386.553 16.958 386.553L1.6664 386.553C1.6664 387.202 1.6664 387.781 1.6664 388.275C1.6664 388.741 1.6664 389.192 1.6664 389.63C1.6664 390.039 1.6664 390.462 1.6944 390.914C1.70841 391.366 1.72241 391.888 1.72241 392.481C1.75042 393.666 1.89045 394.626 2.14251 395.402C2.39457 396.164 2.82867 396.87 3.44482 397.519C3.66887 397.773 3.99095 398.056 4.41105 398.38C4.83115 398.705 5.32127 399.044 5.82539 399.411C6.32951 399.764 6.87564 400.102 7.46377 400.441C8.05191 400.766 8.61205 401.02 9.17218 401.203L9.03215 401.627L0.238057 400.229C0.392093 399.509 0.518123 398.86 0.602143 398.253C0.686163 397.646 0.75618 396.771 0.784186 395.614C0.812193 394.428 0.840199 393.37 0.854203 392.438C0.868206 391.507 0.882209 390.604 0.882209 389.729C0.882209 388.853 0.882209 387.978 0.882209 387.075C0.882209 386.144 0.882209 385.099 0.882209 383.956C0.882209 382.813 0.882209 381.782 0.882209 380.879C0.882209 379.948 0.868206 379.044 0.854202 378.169C0.840199 377.294 0.826195 376.391 0.812192 375.459C0.798189 374.528 0.784185 373.469 0.784185 372.283C0.756179 371.253 0.672158 370.406 0.532125 369.743C0.392092 369.08 0.210049 368.388 -1.48436e-06 367.668L9.01814 366.172L9.15818 366.596Z" fill="#3E3A39"/>
<path d="M23.7356 182.633C25.8361 183.565 27.6566 184.835 29.1969 186.43C30.7373 188.025 31.9276 189.902 32.7538 192.019C33.58 194.15 34.0001 196.409 34.0001 198.808C34.0001 201.165 33.594 203.409 32.7678 205.526C31.9556 207.644 30.7933 209.492 29.295 211.073C27.7966 212.654 26.0042 213.91 23.9317 214.828C21.8452 215.745 19.5627 216.197 17.0561 216.197C14.4094 216.197 12.0149 215.717 9.91436 214.757C7.79985 213.797 6.00743 212.499 4.55108 210.861C3.08073 209.224 1.96047 207.319 1.17628 205.131C0.392093 202.944 -6.80489e-07 200.629 -7.86603e-07 198.201C-9.01971e-07 195.562 0.462109 193.191 1.38633 191.088C2.31055 188.985 3.55684 187.206 5.11121 185.753C6.66558 184.299 8.47201 183.17 10.5025 182.394C12.533 181.617 14.6615 181.236 16.888 181.236C19.3526 181.236 21.6351 181.702 23.7356 182.633ZM11.2447 187.743C9.32622 188.222 7.5898 188.956 6.03543 189.93C4.48106 190.918 3.20676 192.132 2.24053 193.6C1.2743 195.054 0.784186 196.79 0.784186 198.78C0.784186 200.798 1.2743 202.548 2.24053 204.03C3.20676 205.512 4.46706 206.726 6.00743 207.672C7.54779 208.617 9.29821 209.323 11.2587 209.775C13.2191 210.226 15.2076 210.452 17.2101 210.452C19.3106 210.452 21.3271 210.198 23.2735 209.704C25.22 209.21 26.9284 208.462 28.4128 207.488C29.8971 206.514 31.0874 205.286 31.9696 203.804C32.8658 202.322 33.3139 200.615 33.3139 198.653C33.3139 196.691 32.8238 194.997 31.8296 193.544C30.8353 192.104 29.575 190.89 28.0067 189.93C26.4523 188.971 24.7019 188.251 22.7554 187.757C20.8089 187.277 18.8625 187.037 16.93 187.037C15.0536 187.023 13.1491 187.263 11.2447 187.743Z" fill="#3E3A39"/>
<path d="M13.1912 1.55049C14.1154 1.91745 14.9276 2.41133 15.6417 3.01823C16.3559 3.62513 16.958 4.33084 17.4762 5.13533C17.9803 5.93983 18.4004 6.77256 18.7085 7.60529C19.0165 8.48036 19.2546 9.41203 19.4086 10.4C19.5627 11.4021 19.6747 12.4042 19.7587 13.4063C19.8427 14.4225 19.8707 15.4105 19.8707 16.3702C19.8707 17.3017 19.8707 18.1486 19.8707 18.8826C20.865 18.8826 21.7052 18.8826 22.4193 18.8826C23.0915 18.8826 23.6936 18.8826 24.2258 18.8826C24.7439 18.8826 25.234 18.8825 25.6821 18.8543C26.1302 18.8402 26.6203 18.826 27.1385 18.826C28.1187 18.7978 28.9729 18.7695 29.6871 18.7271C30.4012 18.6989 30.9894 18.5296 31.4375 18.2191C31.8436 17.965 32.2357 17.4851 32.6418 16.7794C33.0479 16.0596 33.2719 15.0716 33.3419 13.7872L33.8041 13.7872L33.8041 28.7059L33.3419 28.7059C33.2159 27.9296 33.0339 27.1816 32.7818 26.4759C32.5298 25.7561 32.1657 25.2056 31.6755 24.7962C31.4935 24.641 31.2134 24.514 30.8494 24.4293C30.4853 24.3305 30.0652 24.274 29.6031 24.2175C29.1409 24.1752 28.6508 24.1329 28.1187 24.1047C27.5866 24.0764 27.0825 24.0623 26.5923 24.0623C26.1582 24.0623 25.5701 24.0481 24.8419 24.034C24.0997 24.0199 23.2876 24.0059 22.4053 23.9918C21.5231 23.9777 20.6269 23.9636 19.7027 23.9636C18.7505 23.9636 17.8543 23.9636 17.0141 23.9636L7.95391 23.9636C7.39377 23.9636 6.83364 23.9777 6.2595 23.9918C5.68537 24.0059 5.15324 24.0341 4.63512 24.0905C4.131 24.1329 3.66889 24.2176 3.24879 24.3305C2.82869 24.4435 2.53462 24.5845 2.33857 24.768C1.84845 25.2338 1.51237 25.8266 1.34433 26.5605C1.17629 27.2944 1.02226 28.0708 0.910231 28.9176L0.462124 28.9176C0.462124 28.7341 0.462124 28.353 0.462124 27.8025C0.462124 27.2098 0.448121 26.5182 0.434118 25.7278C0.420114 24.9374 0.406111 24.0764 0.406111 23.1448C0.406111 22.2133 0.406111 21.2959 0.378104 20.3644C0.364101 19.447 0.350097 18.5861 0.350097 17.7816C0.350097 16.9489 0.350097 16.2432 0.350097 15.6786C0.350097 13.6321 0.44812 11.8114 0.644167 10.2165C0.840213 8.62164 1.33033 7.1396 2.10051 5.74231C2.84269 4.37325 3.89294 3.24408 5.25126 2.34079C6.60959 1.43749 8.21997 0.985895 10.0684 0.985895C11.2307 1.00001 12.2529 1.18353 13.1912 1.55049ZM5.08322 7.40784C3.69689 8.32526 2.64664 9.52486 1.93247 11.0209C1.59639 11.769 1.35834 12.5595 1.23231 13.4063C1.10628 14.239 1.05026 15.1141 1.05026 16.0174C1.05026 16.6666 1.07827 17.1746 1.12028 17.5275C1.16229 17.8803 1.2043 18.1767 1.23231 18.3884C1.41435 18.4167 1.58239 18.4591 1.72242 18.5014C1.86246 18.5438 2.0445 18.5861 2.25455 18.6143C2.4786 18.6425 2.77267 18.6708 3.16477 18.7132C3.55686 18.7414 4.10299 18.7696 4.80316 18.7978C5.88141 18.826 7.19773 18.8543 8.73809 18.8684C10.2785 18.8825 11.7908 18.8965 13.2752 18.8965C14.7595 18.8965 16.0478 18.8965 17.1541 18.8965C18.2604 18.8965 18.9465 18.8965 19.1846 18.8965C19.1846 17.6262 19.1426 16.4267 19.0725 15.3117C19.0025 14.1967 18.7925 13.1521 18.4424 12.1923C17.7702 10.2023 16.65 8.67797 15.0816 7.61942C13.5272 6.56086 11.7768 6.03865 9.83035 6.03865C8.06593 6.02454 6.46955 6.49043 5.08322 7.40784Z" fill="#3E3A39"/>
</svg>
