<svg viewBox="0 0 1960 234" fill="none" stroke="#3DC82A" stroke-width="30" stroke-linecap="round" xmlns="http://www.w3.org/2000/svg" xmlns:xlink="http://www.w3.org/1999/xlink">
<style type="text/css">

@keyframes an1 {
  to { stroke-dashoffset: -4000;}
}
.an1 {
 stroke-dasharray: 4000;
 stroke-dashoffset: 4000;
 animation: an1 6s .6s linear infinite;
}
.an2 {
 stroke-dasharray: 4000;
 stroke-dashoffset: 4000;
 animation: an1 6s linear infinite;
}
</style>
<clipPath id="mask0">
	<path d="M686.7,22.2c-68.5-28.5-172.1,90-172.1,145c0,56.7,76.9,87.3,243.8,19.9c203.7-82.3,367.7-121.7,551.9-121.2c200.4,0.6,469.6,51.1,625,108c1.5,0.5,0.7,2.9-0.8,2.4c-145.4-40.2-427.1-83.7-628.9-83.7c-179.2,0-345.5,36.9-548.2,109.5c-194.8,69.8-251.2,10.5-251.2-33.5c0-61.6,110.5-197.2,189.9-161.9L686.7,22.2z"/>
</clipPath>
<path class="an1" clip-path="url(#mask0)" d="M691.4,14.3c-80.8-37.5-229.1,139.4-165.5,190.9c123.9,100.2,346.1-126,755.4-126c240.3,0,513.6,47,654.1,97.1"/>
<clipPath id="mask1">
	<path d="M696,6.6C796.1,55.8,584.8,307,8.4,123.2c-1.6-0.5-0.9-2.9,0.8-2.5c556.1,141.6,746-63.6,677.5-98.5L696,6.6z"/>
</clipPath>
<path class="an2" clip-path="url(#mask1)" d="M-5.2,117.4C577,289,778.6,54.8,691.4,14.3"/>
</svg>
