<?xml version="1.0" encoding="utf-8"?>
<!-- Generator: Adobe Illustrator 26.5.0, SVG Export Plug-In . SVG Version: 6.00 Build 0)  -->
<svg version="1.1" xmlns="http://www.w3.org/2000/svg" xmlns:xlink="http://www.w3.org/1999/xlink" x="0px" y="0px"
	 viewBox="0 0 410 310" style="enable-background:new 0 0 410 310;" xml:space="preserve">
<style type="text/css">
	.st0{opacity:0.3;fill:url(#SVGID_1_);}
	.st1{opacity:0.3;}
	.st2{opacity:0.3;fill:url(#SVGID_00000095322839721600672300000012857212703523410320_);}
	.st3{fill:url(#SVGID_00000139977511949715230610000001693641021200457620_);}
	.st4{fill:url(#SVGID_00000040551776817802847410000017176884828565088703_);}
</style>
<g id="圖層_1">
	
		<linearGradient id="SVGID_1_" gradientUnits="userSpaceOnUse" x1="149.378" y1="-659.5649" x2="268.9037" y2="-452.5399" gradientTransform="matrix(1 0 0 -1 0 -456)">
		<stop  offset="3.000000e-02" style="stop-color:#95804E"/>
		<stop  offset="0.29" style="stop-color:#EFD3AD"/>
		<stop  offset="0.57" style="stop-color:#BB9362"/>
		<stop  offset="0.78" style="stop-color:#E7D1B4"/>
		<stop  offset="1" style="stop-color:#A1805D"/>
	</linearGradient>
	<path class="st0" d="M194.9,39.6c-12.1-11.1-32.3-13.9-47.8-7.2c-19.4-13.9-13.5-36.1,10-29.8c2.5,0.3,2.2-1.7-1.8-2
		c-24.7-4.7-28.5,18.3-10.3,32.9c-31.3,19.2,1.1,66.2,30.6,64.1c20.6,0.1,23.8-20,6.6-31.8c-9-7.4-28.8-15.7-32-1.6
		c-1,5.7,9.9,9,10.2,3.2c0.3-4.2-8.4-6-7.7-0.8c0.1,0.1,0.1,0.2,0.1,0.3c-2.9-4.1,2.3-9,7.3-8.4c10.7-0.9,32,13.8,31.6,25.1
		c-1,13.8-18,10.9-27.9,6.6c-22.6-7.6-44.4-41.1-17.1-55.1c17.4,16.2,50.4,20.8,56.7,42.3c-3,12.2-4.5,15-3,22.7
		c-1.5,7.7,0,10.5,3,22.7c-6.2,21.5-39.4,26.2-56.7,42.3c-33.4-18.8,5.6-59.6,32.7-58.7c17,0.5,14.7,17.8,1.4,26.6
		c-7.1,7.3-32.2,15-28.1,0.3c0,0.2,0,0.2-0.1,0.3c-0.7,5.3,7.9,3.5,7.6-0.8c-0.3-5.8-11.2-2.4-10.2,3.2c3.2,14.1,23,5.8,32-1.6
		c17.2-11.8,14-31.9-6.6-31.9c-29.5-2.1-62,44.9-30.6,64.1c-18.3,14.6-14.4,37.6,10.3,32.9c4-0.3,4.3-2.3,1.8-2
		c-23.5,6.3-29.4-16-10-29.8c24.8,11.3,60.6-4.6,60.1-33.6c0-3.2-0.5-7.5-1.6-13c1.1-4.8,1.6-9.4,1.6-13.8c-0.6-9.9,1-18.1-1.6-28.1
		C209.1,63.3,207.1,50.4,194.9,39.6L194.9,39.6z M185.9,161.5c-12.2,6.1-24.4,8.6-36.7,4.5c20.3-13,47.7-14.3,55.1-40.4
		C208,140.8,202.9,153,185.9,161.5L185.9,161.5z M169.1,43.7c-7.8-2.9-14.5-6.1-19.8-9.7c24.1-8.6,64.7,12.4,55.1,40.4
		C197.1,55.8,189,51.4,169.1,43.7L169.1,43.7z M203.9,102.7c0,0-0.5,0-0.7-2.7c0.3-3.7,1-3.6,1.7,0
		C204.5,102.6,203.9,102.7,203.9,102.7z M203.2,104.3c0.7,0.3,1.5,0.1,2-0.4c0.2,4,0.1,9.1-0.5,12.9
		C203.9,111.7,203.4,107.5,203.2,104.3L203.2,104.3z M205.2,96.1c-0.6-0.6-1.3-0.7-2-0.4c0.2-3.2,0.7-7.3,1.6-12.4
		C205.3,87,205.4,92.1,205.2,96.1L205.2,96.1z M285.9,145.4c1.2-25.4-32.5-53.7-56.1-39c-17.3,14.6,13.6,37.9,28.6,37
		c9.7,1.3,14.2-12.5,3.5-13.7c-3.3,0-4,1.7-4,3c-0.3,4.2,8.4,6,7.6,0.8c-0.1-0.1-0.1-0.1-0.1-0.3c2.9,4.1-2.3,9-7.3,8.4
		c-10.7,0.9-32-13.8-31.6-25.1c1-13.8,18-10.9,27.9-6.6c22.6,7.6,44.4,41.1,17.1,55.1c-17.4-16.2-50.4-20.8-56.7-42.3
		c3-12.3,4.5-14.9,3-22.7c1.5-7.7,0-10.4-3-22.7c6.2-21.5,39.4-26.2,56.7-42.3c27.2,14.1,5.5,47.6-17.1,55.1
		c-21.9,10.8-40.5-4.6-17.1-23.1c7.1-7.3,32.2-15,28.1-0.2c0-0.1,0-0.2,0.1-0.3c0.7-5.3-7.9-3.4-7.6,0.8c0,1.4,0.7,3,4,3
		c16.6-4.8-0.9-25.2-25.8-4.6c-17.2,11.8-14,31.9,6.6,31.8c29.5,2.1,62-44.9,30.6-64.1C291.6,18.8,287.7-4.2,263,0.5
		c-4,0.3-4.3,2.3-1.8,2c23.5-6.3,29.4,16,10,29.8C246.4,21,210.7,37,211.2,66c0,3.2,0.5,7.5,1.6,13c-1.5,6.8-2.3,13.9-1.1,20.3
		c-1.1,6.2-0.6,14.7,1.1,21.6c-1.1,5.5-1.6,9.9-1.6,13c-0.5,29,35.3,45,60.1,33.6c19.4,13.9,13.5,36.1-10,29.8
		c-2.5-0.3-2.2,1.7,1.8,2c24.7,4.7,28.5-18.3,10.3-32.9C281.7,161.8,285.9,154.6,285.9,145.4L285.9,145.4z M232.4,38.5
		c12.2-6.1,24.4-8.6,36.7-4.5c-20.3,13-47.7,14.3-55.1,40.4C210.4,59.2,215.4,46.9,232.4,38.5L232.4,38.5z M214.5,97.3
		c0,0,0.5,0,0.7,2.7c-0.3,3.7-1,3.6-1.7,0C213.9,97.3,214.4,97.3,214.5,97.3z M215.2,95.7c-0.7-0.3-1.5-0.1-2,0.4
		c-0.2-4-0.1-9.1,0.5-12.9C214.5,88.3,215,92.5,215.2,95.7L215.2,95.7z M213.2,102.9c0.7,1,1.4,1.2,2,1.2c-0.2,3.2-0.7,7.4-1.6,12.6
		C213,112.8,212.9,107.1,213.2,102.9z M249.3,156.3c7.8,2.9,14.5,6.1,19.8,9.7c-24.1,8.6-64.7-12.4-55.1-40.4
		C221.3,144.2,229.4,148.5,249.3,156.3L249.3,156.3z"/>
	<path class="st1" d="M1,225.3c15.5,1.1,10.3,12.5,4.3,8.5c-0.6-2.9-2.8-6.1-4.7-8.1L1,225.3z M18.2,222.6
		c-2.8,10.9-6.6,20.9-7.2,28.5c0.7,3.3,5.9,15.3-2.6,15.6c-7.6-1.2,2.7-17-6.7-16.8v-1.2c1.5-0.3,3.6,0.8,4.4-1.2
		c0.8-1.5,4.6-9.9,11.2-25.2L18.2,222.6L18.2,222.6z M5.5,211.6c16.3,1.5,10.9,13.5,4.6,9.2c-0.7-3.1-3-6.6-5-8.8L5.5,211.6z
		 M41.8,259c2.8,0.1,2.3,0,2.3-5.5H27.2c-0.6,5-2.8,10.1-10.5,13.5l-0.5-0.5c5.4-6,4.6-11.4,4.6-30.8l7.7,2.7h15.1l3-3.5l0,0l6.8,5
		c-0.4,0.5-1.2,1-2.5,1.2v17.5c0,4.4-1,6.9-8.3,7.5c-0.4-4.3-0.9-5.8-5.6-6.6v-0.8L41.8,259z M20.8,226.8l-0.5-1.7H44l3.4-4.3l6,5
		c0,0.6-1.1,0.9-1.9,0.9 M38.3,232.3h8.4l3.6-4.6l6.5,5.4c-0.1,0.7-0.8,0.9-1.6,0.9H17.1l-0.5-1.7h14.9v-21.4l8.7,0.8
		c-0.1,0.8-0.5,1.3-2,1.5 M18.8,219.8l-0.5-1.7h26.8l3.6-4.6l6.5,5.3c-0.2,0.6-0.9,0.9-1.7,0.9 M44.1,251.7v-5H27.4
		c0,1.4,0,3.6-0.1,5C27.4,251.7,44.1,251.7,44.1,251.7z M27.4,240v5.1h16.7V240H27.4z M114.1,230.1l6.3,5.2
		c-0.2,0.7-0.8,0.9-1.7,0.9H66.1l-0.5-1.7h45L114.1,230.1z M91,235.8c0.4-1.8-1.8-5.1-3.5-6.1l0.4-0.4C98.6,227.5,97.9,235,91,235.8
		z M76.2,253.1v-15.7l7.4,2.8H102l3.2-3.5l6.9,5.2c-0.4,0.4-1.2,0.9-2.4,1.2v7.8c-0.2,0.6-5.1,1.8-7.1,1.5v-2.1h-6.2v8
		c0,4,0,7.8-8.7,8.4c-0.3-4.4-0.8-5.6-5.7-6.5v-0.8c7.1,0.6,7.4,0.5,7.4-0.6v-8.5h-6.2C83.2,252.2,78.3,253.3,76.2,253.1z
		 M78.4,251.9l8,3.8c-0.2,0.6-0.7,1-2.1,0.8c-3.7,3.7-10.7,7.4-17.7,8.9l-0.4-0.7C70.8,261.8,76.3,256,78.4,251.9 M81.7,230.6
		c0,0.7-4.4,2.3-6.9,2v-20.9l7.3,2.9h21.6l3.2-3.5l6.8,5c-0.4,0.5-1.2,1.1-2.4,1.3v12.5c0,0.6-5,1.8-7,1.5V229H81.7V230.6z
		 M81.7,216.3v4.6h22.6v-4.6H81.7z M104.3,227.3v-4.7H81.7v4.7H104.3z M83.2,248.6h19.4V242H83.2V248.6z M99.8,253.5
		c23.3,0.7,18,15.2,11.2,11.5c-1.4-2.8-5.6-7.4-11.4-10.7L99.8,253.5L99.8,253.5z M154.7,256.5c-1.3,1.2-6.2,5.2-8.7,7.5l-2.4-5.2
		c1.7-0.8,2-1.2,2-2.3v-7.7c-0.5,0.7-3.1,0.3-3.9,0.4v7.7c0.9-0.3,1.8-0.6,2.8-0.9l0.2,0.8c-1.1,0.9-5,5.4-6.7,7l-2.4-5.2
		c1.7-0.9,2-1.2,2-2.2v-16.3l5.8,0.7c-0.1,0.6-0.5,1.1-1.7,1.2v5.6h0.1l1.4-2.5c0,0,1.5,1.6,2.4,2.9v-7.7l5.8,0.6
		c-0.1,0.7-0.5,1.1-1.5,1.3v5.3l1.5-2.6c0,0,1.8,2,2.8,3.5c-0.2,1.4-3.3,0.7-4.3,0.9v7.7c1.5-0.4,3.2-0.8,4.8-1.3L154.7,256.5
		L154.7,256.5z M138.4,211.3c12.9-0.1,8.1,9.6,2.8,6.2c-0.4-2.1-2-4.5-3.3-5.9L138.4,211.3z M144.5,220.1h-2.3l-0.1,16.6h2.3
		 M136.3,227.8v8.9h2.2v-16.6h-2.2v6.1l13.6-0.1l2.1-2.3l4.5,3.4c-0.3,0.4-0.9,0.7-1.8,0.9v10.3c-0.1,0.6-3,1.5-4.4,1.3v-1.3h-14
		c0,8.9-0.2,19.7-7,27.2l-0.8-0.5c3-8.6,2.8-13.1,2.8-49l5.9,2.3h11.1l3-3.9c0,0,3.4,2.6,5.6,4.6c-0.2,0.8-1.1,0.9-2.7,0.9h-6
		l-0.1,16.7h2.1v-8.9 M166.5,211.4l8.1,0.8c-0.1,0.8-0.6,1.4-2.2,1.7v22.7c0,0.7-4,1.9-5.9,1.6L166.5,211.4z M165.7,228.7
		c-2.7,2.5-6.5,5.6-10.2,7.5l-0.6-0.5c1.9-2.6,4.1-7.1,5.2-10.4C169.7,228.6,169.1,229.5,165.7,228.7z M184.4,223.8
		c-0.4,0.5-0.7,0.9-2,0.9l-26.6-0.1l-0.5-1.7l21.1,0.2l2.9-3.4L184.4,223.8z M157.1,213c12.5,2.8,6.5,11.6,2,7.6
		c-0.1-2.5-1.2-5.5-2.6-7.2L157.1,213z M159.7,253.4c-0.5-1.8-2.3-4.6-4.4-5.2C164.6,246.1,165.4,255.6,159.7,253.4z M163.5,243.3
		h-3.1c-2,5.1-5.7,8.9-7,10.2l-0.9-0.5c2.5-4.6,4.6-11.3,5.5-18.1l6.5,1.6c-0.2,0.7-0.8,1.3-2.1,1.3c-0.4,1.2-0.8,2.5-1.2,3.7h1.9
		l2.5-2.6l3.4,2.8h6.2V236l6.7,0.6c-0.1,0.7-0.5,1.1-1.6,1.3v3.7l1.7-2.4c0,0,2.2,1.9,3.5,3.4c-0.3,1.6-4.1,0.7-5.2,0.9v10.7
		c-0.1,0.1,1.5-2.2,1.5-2.2s2.3,2.1,3.7,3.6c-0.3,1.7-4.3,0.7-5.4,0.9v8.6c0,0.8-3.4,1.8-5.1,1.5v-10.2h-3.3l-1.3,1.4l-4.5-2.5
		c0.4-0.4,0.8-0.7,1.4-1c0.6-3.2,1.4-7.9,1.8-10.8c-0.4,0.1-0.7,0.2-1.2,0.2c-1.6,8.9-5.2,17.6-14.6,22.9l-0.5-0.9
		C159.5,260.2,162.4,252.9,163.5,243.3z M175.1,254.8v-11.2h-1.4c-0.4,3-1.2,7.8-1.9,11.2H175.1z M173.8,226.8
		c13.9,0.1,11.9,11.4,6.6,8.5c-1.5-2.4-4-5.7-7.1-7.8L173.8,226.8L173.8,226.8z M174.1,220.9c0.8-2,1.9-5.3,2.8-8.4l7.1,2.9
		c-0.3,0.7-1.1,1.1-2.3,1c-2.1,1.8-4.6,3.7-6.7,5L174.1,220.9L174.1,220.9z M205.6,234.2c6.1,0,6.1,9.4,0,9.4
		S199.5,234.2,205.6,234.2z M282.3,241.8c-0.5,0.5-1,0.6-2.2,0.7c-2.1,1.8-5.6,4.3-8.1,5.7l-0.6-0.4c0.6-1.8,1.4-4.5,1.8-6.6h-24.1
		l6.9,1.6c-0.2,0.7-1,1.1-2.9,1.1c-0.7,0.8-1.5,1.5-2.4,2.3h10.9l3.5-3.4l6.6,5.4c-0.5,0.5-1.4,0.8-2.9,0.8
		c-7.8,10.1-19.4,15.6-39.1,17.5l-0.4-0.8c8.2-2,15.2-4.6,20.9-8.1c-0.8,0.2-1.8,0.2-2.9-0.4c-0.8-2-2.6-4.1-4.4-5.6
		c-3.8,2.1-8.1,4-12.6,5.2l-0.4-0.6c7-3.8,13.2-10.1,16.1-15.1h-11.5c1.8,13.1-14.6,8.5-5.8,1.7c1.8-1.1,3.9-3.9,3.6-6.7h0.8
		c0.5,1.2,0.8,2.3,1.1,3.4h38.5l3.4-3.5C276.3,236.1,282.3,241.8,282.3,241.8z M226.8,216.5h18.1v-5.8l7.6,0.7
		c-0.1,0.6-0.5,1.1-1.8,1.4v8.9c0,0.6-4,1.5-5.8,1.3v-4.9h-17.6L226.8,216.5L226.8,216.5z M270.2,221.2l6.4,4.8
		c-0.4,0.4-1.1,0.9-2.3,1.1v8.2c-0.1,0.7-4.6,2.2-6.6,1.8V235h-27.4c0.8,2.3-3.2,3.1-6.4,3.1v-16.4l6.8,2.7H267L270.2,221.2
		L270.2,221.2z M240.3,233.3h5.2v-7.2h-5.2V233.3z M248.7,247.9c-1.1,0.8-2.2,1.6-3.4,2.4c7.1,0.6,8.1,4.6,6.5,6.5
		c3.7-2.4,6.8-5.3,9.2-8.8C261,247.9,248.7,247.9,248.7,247.9z M251.3,226.1v7.2h5.3v-7.2H251.3z M263.4,221.3c0,0.6-4,1.5-5.8,1.3
		v-11.9l7.6,0.7c-0.1,0.6-0.5,1.1-1.8,1.3v3.7h9.3l3.4-4.7c0,0,4,3.2,6.2,5.4c-0.3,1-2.7,0.9-4.8,0.9h-14.1L263.4,221.3L263.4,221.3
		z M262.4,226.1v7.2h5.2v-7.2H262.4z M315.7,218c-0.3,0.7-1.1,1.2-2.5,1.1c-5.2,11.3-12.6,18.9-21.5,23.7l-0.6-0.5
		c6-6.3,12-16.7,15-27.9L315.7,218z M326.1,243.6c22.9,10.3,16.6,28.2,8.5,21.5c-0.3-2.4-0.9-4.9-1.8-7.4c-7.8,2.3-18.5,5-31.6,7.4
		c-0.6,0.8-1.3,1.4-2.1,1.6l-3-9.1c7.3-2.6,13.4-17.9,16.3-25.9l10.1,3.9c-0.3,0.6-1,1.2-2.3,1.1c-4,6.7-11.9,15.7-18.8,21.3
		c7.5-0.2,19-1,30.6-2c-1.8-4.3-4.2-8.6-6.7-12L326.1,243.6L326.1,243.6z M331.7,214.7c-0.8,0.9-2.9,1.4-5.3,1.6
		c2.7,8.5,9.8,15.9,19.8,19.4l-0.1,0.7c-3,1.1-5.5,3.9-6.3,6.8c-8.4-5.9-13-15.2-14.9-27.4H318l-0.5-1.7h5.8l2.3-3.7L331.7,214.7z
		 M409.5,216.9c-0.4,0.5-1.2,1-2.4,1.3v45.9c0,0.7-4.6,2.6-7,2.3v-4.5h-35.5c0.8,3.5-2.5,5-6.9,4.9v-54.4l7.5,3.1h34.3l3.4-3.8
		L409.5,216.9z M400,217h-35.5v43.1h9.7l-3-4.6c3-1.7,1.9-3,2.1-5.4c-2.5,1.1-5.2,2-7.9,2.7l-0.5-1c4.8-2.1,9-5,11.9-8.2H375
		c0.3,1-3.6,2-5.7,1.8v-13.1l5.9,2.4h14.1l2.6-2.7l5.5,4c-0.3,0.4-0.9,0.7-1.7,0.9v5.7c0,1.9-4.4,2.4-5.8,2.3v-1.2h-6.1
		c-1.4,1.4-3,2.6-4.8,3.7v6.2l7.3-2.1l0.2,0.8c-2,1.6-7.9,4.8-11.9,8H400V217z M399.1,247.1c-0.4,0.5-0.9,0.6-1.9,0.2
		c-1.2,0.5-3.1,1.2-4.9,1.8c9.6,4.9,6.4,11,2.5,8.9c-1.7-2.8-6.5-7.5-12.7-11.3l0.4-0.8c3,0.7,5.5,1.4,7.5,2.3l4.6-5L399.1,247.1z
		 M368.4,225.1l-0.5-1.7h21.4l2.9-3.4c0,0,3.3,2.4,5.3,4.2c0,0.6-1.6,0.9-3.3,0.9 M385.2,229.4h5.9l3.2-3.6l0,0c0,0,3.4,2.6,5.5,4.4
		c0,0.8-3.1,0.9-7,0.9h-27l-0.5-1.7h13.8v-11.2l7.9,0.7c-0.1,0.7-0.5,1.2-1.7,1.4 M389.7,236.5h-14.8v5.5h14.8V236.5z M92.8,283.9
		c8.3-0.5,19.4,0.6,19.4,12.5c0,11.6-9.7,13.6-19.4,12.8 M95.9,306.3L95.9,306.3c9.5,0,13.2-3.8,13.2-9.8s-3.6-9.8-13.2-9.8
		 M277.4,283.9c10-0.6,12.7,1.4,13.7,5.8c0.9,4.2-2,8.1-5.9,8.4l8,11h-3.8l-7.5-10.7h-1.3v10.7h-3.2 M280.6,295.9
		c6.1,0,7.7-1.6,7.7-4.6c0-2.6-1.3-4.6-7.7-4.6 M140.3,283.9h13.6v2.9h-10.4v7.1h10.1v2.9h-10.1v9.6h10.4v2.9h-13.6 M259.8,282.8
		l12.1,26.4h-3.4l-2.9-6.4H254l-2.9,6.4h-3.4 M255.3,300h9l-4.5-10.2 M118.7,283.9c10-0.6,12.7,1.4,13.7,5.8c0.9,4.2-2,8.1-5.9,8.4
		l8,11h-3.8l-7.5-10.7h-1.3v10.7h-3.2 M121.9,295.9c6.1,0,7.7-1.6,7.7-4.6c0-2.6-1.3-4.6-7.7-4.6 M170.6,282.8l12.1,26.4h-3.4
		l-2.9-6.4h-11.6l-2.9,6.4h-3.4 M166.1,300h9l-4.5-10.2 M191.3,282.8l8.7,20l8.7-20l5.2,26.4h-3.3l-3-16.7l-7.6,17.3l-7.6-17.3
		l-3,16.7h-3.3 M233.1,283.9c2,0,13.8-1.7,13.8,6.9c0,7.4-5.7,7.8-10.7,7.8v10.6H233 M236.3,295.8c10.3,1.3,10.7-10.3,0-9.1
		 M299,283.9h3.2v11l10.8-11h4.1l-11.4,11.4l11.6,13.9H313l-9.5-11.8l-1.3,1.2v10.6H299"/>
	
		<linearGradient id="SVGID_00000162330637324685717160000014189470276101244600_" gradientUnits="userSpaceOnUse" x1="102.6585" y1="-5.6669" x2="135.7763" y2="-63.0288">
		<stop  offset="3.000000e-02" style="stop-color:#95804E"/>
		<stop  offset="0.29" style="stop-color:#EFD3AD"/>
		<stop  offset="0.57" style="stop-color:#BB9362"/>
		<stop  offset="0.78" style="stop-color:#E7D1B4"/>
		<stop  offset="1" style="stop-color:#A1805D"/>
	</linearGradient>
	
		<rect x="86.9" y="-53.9" style="opacity:0.3;fill:url(#SVGID_00000162330637324685717160000014189470276101244600_);" width="64.7" height="39.1"/>
</g>
<g id="圖層_1_拷貝" class="st1">
	
		<linearGradient id="SVGID_00000139276633395160478790000003054871890975033987_" gradientUnits="userSpaceOnUse" x1="149.5363" y1="-659.0538" x2="268.5656" y2="-452.8887" gradientTransform="matrix(1 0 0 -1 0 -456)">
		<stop  offset="3.000000e-02" style="stop-color:#95804E"/>
		<stop  offset="0.29" style="stop-color:#EFD3AD"/>
		<stop  offset="0.57" style="stop-color:#BB9362"/>
		<stop  offset="0.78" style="stop-color:#E7D1B4"/>
		<stop  offset="1" style="stop-color:#A1805D"/>
	</linearGradient>
	<path style="fill:url(#SVGID_00000139276633395160478790000003054871890975033987_);" d="M204.9,83.2c4.3-18.7,2.6-34.7-11.7-44.9
		c-40.9-29.1-89.7,12.8-40.7,51.4c27.6,21.7,57.4-2.7,29.7-23.9c-25.4-19.4-36.9-3.5-30,2.9c4.4,4.1,10.2,0.3,7.6-3.2
		c-2-2.7-8.1-3.4-7.1,1.3c-4-7.1,9.5-15.3,28.8,0.8c23.1,19.2,2.8,33.6-19.7,21.8c-50-26.3-26-74.7,23.7-51.3
		c16,7.5,24.5,22.3,17.6,40.4c-9.5,24.8,4.7,37.2,3.8,12.9c-0.7-20.1-7.3-36.9-37.9-47.8C120,26.3,132-4.7,157.1,2.6
		c2.4,0.7,2.1-1.2-1.8-2C128.9-4.7,118,27.2,175.1,52c21.3,9.3,30.8,19.3,30.2,40.7C204.8,111,200.7,101.6,204.9,83.2z M205.3,107.2
		c0.5,21.4-8.9,31.4-30.2,40.7c-57.1,24.9-46.1,56.8-19.8,51.4c3.9-0.8,4.2-2.7,1.8-2c-25.1,7.3-37.1-23.7,12-41.1
		c30.6-10.8,37.2-27.7,37.9-47.8c0.9-24.3-13.3-12-3.8,12.9c6.9,18.1-1.7,32.9-17.6,40.4c-49.7,23.4-73.7-25-23.7-51.3
		c22.5-11.8,42.8,2.6,19.7,21.8c-19.3,16-32.8,7.9-28.8,0.8c-1,4.7,5.1,4.1,7.1,1.3c2.5-3.5-3.3-7.2-7.6-3.2
		c-6.9,6.4,4.6,22.3,30,2.9c27.7-21.2-2.1-45.6-29.7-23.9c-49,38.6-0.2,80.5,40.7,51.4c14.3-10.2,16-26.2,11.7-44.9
		C200.7,98.3,204.8,89,205.3,107.2z M212.8,92.7c-0.5-21.4,8.9-31.4,30.2-40.7c57.1-24.9,46.1-56.7,19.8-51.4
		c-3.9,0.8-4.2,2.7-1.8,2c25.1-7.3,37.1,23.7-12,41.1c-30.6,10.8-37.2,27.7-37.9,47.8c-0.9,24.3,13.3,12,3.8-12.9
		c-6.9-18.1,1.7-32.9,17.6-40.4c49.7-23.4,73.7,25,23.7,51.3c-22.5,11.8-42.8-2.6-19.7-21.8c19.3-16,32.8-7.9,28.8-0.8
		c1-4.7-5.1-4.1-7.1-1.3c-2.5,3.5,3.3,7.2,7.6,3.2c6.9-6.4-4.6-22.3-30-2.9c-27.7,21.2,2.1,45.6,29.7,23.9
		c49-38.6,0.2-80.5-40.7-51.4c-14.3,10.2-16,26.2-11.7,44.9C217.4,101.6,213.3,111,212.8,92.7z M213.2,116.7
		c-4.3,18.7-2.6,34.7,11.7,44.9c40.9,29.1,89.7-12.8,40.7-51.4c-27.6-21.7-57.4,2.7-29.7,23.9c25.4,19.4,36.9,3.5,30-2.9
		c-4.4-4.1-10.2-0.3-7.6,3.2c2,2.7,8.1,3.4,7.1-1.3c4,7.1-9.5,15.3-28.8-0.8c-23.1-19.2-2.8-33.6,19.7-21.8
		c50,26.3,26,74.7-23.7,51.3c-16-7.5-24.5-22.3-17.6-40.4c9.5-24.8-4.7-37.2-3.8-12.9c0.7,20.1,7.3,36.9,37.9,47.8
		c49.1,17.4,37.1,48.4,12,41.1c-2.4-0.7-2.1,1.2,1.8,2c26.4,5.3,37.3-26.6-19.8-51.4c-21.3-9.3-30.8-19.3-30.2-40.7
		C213.3,89,217.4,98.3,213.2,116.7z"/>
	<path d="M1,225.3c15.5,1.1,10.3,12.5,4.3,8.5c-0.6-2.9-2.8-6.1-4.7-8.1 M17.3,222.3l0.9,0.3l0,0c-2.8,10.9-6.6,20.9-7.2,28.5
		c0.7,3.3,5.9,15.3-2.6,15.6c-7.6-1.2,2.7-17-6.7-16.8v-1.2c1.5-0.3,3.6,0.8,4.4-1.2 M5.5,211.6c16.3,1.5,10.9,13.5,4.6,9.2
		c-0.7-3.1-3-6.6-5-8.8 M50.9,258.6c0,4.4-1,6.9-8.3,7.5c-0.4-4.3-0.9-5.8-5.6-6.6v-0.8l4.8,0.3c2.8,0.1,2.3,0,2.3-5.5H27.2
		c-0.6,5-2.8,10.1-10.5,13.5l-0.5-0.5c5.4-6,4.6-11.4,4.6-30.8l7.7,2.7h15.1l3-3.5l0,0l6.8,5c-0.4,0.5-1.2,1-2.5,1.2 M20.8,226.8
		l-0.5-1.7H44l3.4-4.3l6,5c0,0.6-1.1,0.9-1.9,0.9 M38.3,232.3h8.4l3.6-4.6l6.5,5.4c-0.1,0.7-0.8,0.9-1.6,0.9H17.1l-0.5-1.7h14.9
		v-21.4l8.7,0.8c-0.1,0.8-0.5,1.3-2,1.5 M18.8,219.8l-0.5-1.7h26.8l3.6-4.6l6.5,5.3c-0.2,0.6-0.9,0.9-1.7,0.9 M44.1,251.7v-5H27.4
		c0,1.4,0,3.6-0.1,5 M44.1,245.1V240H27.4v5.1 M66.1,236.2l-0.5-1.7h45l3.5-4.4l6.3,5.2c-0.2,0.7-0.8,0.9-1.7,0.9 M87.9,229.3
		c10.7-1.8,10,5.7,3.1,6.5c0.4-1.8-1.8-5.1-3.5-6.1 M102,240.2l3.2-3.5l6.9,5.2c-0.4,0.4-1.2,0.9-2.4,1.2v7.8
		c-0.2,0.6-5.1,1.8-7.1,1.5v-2.1h-6.2v8c0,4,0,7.8-8.7,8.4c-0.3-4.4-0.8-5.6-5.7-6.5v-0.8c7.1,0.6,7.4,0.5,7.4-0.6v-8.5h-6.2
		c0,1.9-4.9,3-7,2.8v-15.7l7.4,2.8 M86.4,255.7c-0.2,0.6-0.7,1-2.1,0.8c-3.7,3.7-10.7,7.4-17.7,8.9l-0.4-0.7
		c4.6-2.9,10.1-8.7,12.2-12.8 M78.4,251.9 M81.7,229v1.6c0,0.7-4.4,2.3-6.9,2v-20.9l7.3,2.9h21.6l3.2-3.5l6.8,5
		c-0.4,0.5-1.2,1.1-2.4,1.3v12.5c0,0.6-5,1.8-7,1.5V229 M104.3,220.9v-4.6H81.7v4.6 M104.3,227.3v-4.7H81.7v4.7 M102.6,248.6V242
		H83.2v6.6 M99.8,253.5L99.8,253.5c23.3,0.7,18,15.2,11.2,11.5c-1.4-2.8-5.6-7.4-11.4-10.7 M143.2,245.1l2.6,3.1c0,1.1-1.4,1-5,1
		 M137.6,240.1l5.8,0.7c-0.1,0.6-0.5,1.1-1.7,1.2l0,14.9l2.8-0.9l0.2,0.8l-6.7,7l-2.4-5.2c1.7-0.9,2-1.2,2-2.2 M151.4,244.9l2.8,3.5
		c-0.3,1.2-1.7,0.8-5.4,0.8 M145.6,240.3l5.8,0.6c-0.1,0.7-0.5,1.1-1.5,1.3V257l4.8-1.3l0,0.8l0,0L146,264l-2.4-5.2
		c1.7-0.8,2-1.2,2-2.3 M138.4,211.3c12.9-0.1,8.1,9.6,2.8,6.2c-0.4-2.1-2-4.5-3.3-5.9 M144.5,220.1h-2.3l-0.1,16.6h2.3 M136.3,227.8
		v8.9h2.2v-16.6h-2.2v6.1l13.6-0.1l2.1-2.3l4.5,3.4c-0.3,0.4-0.9,0.7-1.8,0.9v10.3c-0.1,0.6-3,1.5-4.4,1.3v-1.3h-14
		c0,8.9-0.2,19.7-7,27.2l-0.8-0.5c3-8.6,2.8-13.1,2.8-49l5.9,2.3h11.1l3-3.9l5.6,4.6c-0.2,0.8-1.1,0.9-2.7,0.9h-6l-0.1,16.7h2.1
		v-8.9 M166.5,211.4l8.1,0.8c-0.1,0.8-0.6,1.4-2.2,1.7v22.7c0,0.7-4,1.9-5.9,1.6 M154.9,235.7c1.9-2.6,4.1-7.1,5.2-10.4
		c9.6,3.3,9,4.2,5.6,3.4c-2.7,2.5-6.5,5.6-10.2,7.5 M155.8,224.6l-0.5-1.7l21.1,0.2l2.9-3.4l5.1,4.1c-0.4,0.5-0.7,0.9-2,0.9
		 M157.1,213c12.5,2.8,6.5,11.6,2,7.6c-0.1-2.5-1.2-5.5-2.6-7.2 M159.7,253.4c-0.5-1.8-2.3-4.6-4.4-5.2
		C164.6,246.1,165.4,255.6,159.7,253.4z M163.5,243.3h-3.1c-2,5.1-5.7,8.9-7,10.2l-0.9-0.5c2.5-4.6,4.6-11.3,5.5-18.1l6.5,1.6
		c-0.2,0.7-0.8,1.3-2.1,1.3c-0.4,1.2-0.8,2.5-1.2,3.7h1.9l2.5-2.6l3.4,2.8h6.2V236l6.7,0.6c-0.1,0.7-0.5,1.1-1.6,1.3v3.7l1.7-2.4
		c0,0,2.2,1.9,3.5,3.4c-0.3,1.6-4.1,0.7-5.2,0.9v10.7c-0.1,0.1,1.5-2.2,1.5-2.2s2.3,2.1,3.7,3.6c-0.3,1.7-4.3,0.7-5.4,0.9v8.6
		c0,0.8-3.4,1.8-5.1,1.5v-10.2h-3.3l-1.3,1.4l-4.5-2.5c0.4-0.4,0.8-0.7,1.4-1c0.6-3.2,1.4-7.9,1.8-10.8c-0.4,0.1-0.7,0.2-1.2,0.2
		c-1.6,8.9-5.2,17.6-14.6,22.9l-0.5-0.9C159.5,260.2,162.4,252.9,163.5,243.3z M175.1,254.8v-11.2h-1.4c-0.4,3-1.2,7.8-1.9,11.2
		H175.1z M173.8,226.8c13.9,0.1,11.9,11.4,6.6,8.5c-1.5-2.4-4-5.7-7.1-7.8 M184,215.4c-0.3,0.7-1.1,1.1-2.3,1
		c-2.1,1.8-4.6,3.7-6.7,5l-0.9-0.5c0.8-2,1.9-5.3,2.8-8.4 M205.6,234.2c6.1,0,6.1,9.4,0,9.4S199.5,234.2,205.6,234.2z M282.3,241.8
		c-0.5,0.5-1,0.6-2.2,0.7c-2.1,1.8-5.6,4.3-8.1,5.7l-0.6-0.4c0.6-1.8,1.4-4.5,1.8-6.6h-24.1l6.9,1.6c-0.2,0.7-1,1.1-2.9,1.1
		c-0.7,0.8-1.5,1.5-2.4,2.3h10.9l3.5-3.4l6.6,5.4c-0.5,0.5-1.4,0.8-2.9,0.8c-7.8,10.1-19.4,15.6-39.1,17.5l-0.4-0.8
		c8.2-2,15.2-4.6,20.9-8.1c-0.8,0.2-1.8,0.2-2.9-0.4c-0.8-2-2.6-4.1-4.4-5.6c-3.8,2.1-8.1,4-12.6,5.2l-0.4-0.6
		c7-3.8,13.2-10.1,16.1-15.1h-11.5c1.8,13.1-14.6,8.5-5.8,1.7c1.8-1.1,3.9-3.9,3.6-6.7h0.8c0.5,1.2,0.8,2.3,1.1,3.4h38.5l3.4-3.5
		C276.3,236.1,282.3,241.8,282.3,241.8z M226.8,216.5h18.1v-5.8l7.6,0.7c-0.1,0.6-0.5,1.1-1.8,1.4v8.9c0,0.6-4,1.5-5.8,1.3v-4.9
		h-17.6L226.8,216.5L226.8,216.5z M270.2,221.2l6.4,4.8c-0.4,0.4-1.1,0.9-2.3,1.1v8.2c-0.1,0.7-4.6,2.2-6.6,1.8V235h-27.4
		c0.8,2.3-3.2,3.1-6.4,3.1v-16.4l6.8,2.7H267L270.2,221.2L270.2,221.2z M240.3,233.3h5.2v-7.2h-5.2V233.3z M248.7,247.9
		c-1.1,0.8-2.2,1.6-3.4,2.4c7.1,0.6,8.1,4.6,6.5,6.5c3.7-2.4,6.8-5.3,9.2-8.8C261,247.9,248.7,247.9,248.7,247.9z M251.3,226.1v7.2
		h5.3v-7.2H251.3z M263.4,221.3c0,0.6-4,1.5-5.8,1.3v-11.9l7.6,0.7c-0.1,0.6-0.5,1.1-1.8,1.3v3.7h9.3l3.4-4.7c0,0,4,3.2,6.2,5.4
		c-0.3,1-2.7,0.9-4.8,0.9h-14.1L263.4,221.3L263.4,221.3z M262.4,226.1v7.2h5.2v-7.2H262.4z M315.7,218c-0.3,0.7-1.1,1.2-2.5,1.1
		c-5.2,11.3-12.6,18.9-21.5,23.7l-0.6-0.5c6-6.3,12-16.7,15-27.9L315.7,218z M326.1,243.6c22.9,10.3,16.6,28.2,8.5,21.5
		c-0.3-2.4-0.9-4.9-1.8-7.4c-7.8,2.3-18.5,5-31.6,7.4c-0.6,0.8-1.3,1.4-2.1,1.6l-3-9.1c7.3-2.6,13.4-17.9,16.3-25.9l10.1,3.9
		c-0.3,0.6-1,1.2-2.3,1.1c-4,6.7-11.9,15.7-18.8,21.3c7.5-0.2,19-1,30.6-2c-1.8-4.3-4.2-8.6-6.7-12L326.1,243.6L326.1,243.6z
		 M331.7,214.7c-0.8,0.9-2.9,1.4-5.3,1.6c2.7,8.5,9.8,15.9,19.8,19.4l-0.1,0.7c-3,1.1-5.5,3.9-6.3,6.8c-8.4-5.9-13-15.2-14.9-27.4
		H318l-0.5-1.7h5.8l2.3-3.7L331.7,214.7z M409.5,216.9c-0.4,0.5-1.2,1-2.4,1.3v45.9c0,0.7-4.6,2.6-7,2.3v-4.5h-35.5
		c0.8,3.5-2.5,5-6.9,4.9v-54.4l7.5,3.1h34.3l3.4-3.8L409.5,216.9z M400,217h-35.5v43.1h9.7l-3-4.6c3-1.7,1.9-3,2.1-5.4
		c-2.5,1.1-5.2,2-7.9,2.7l-0.5-1c4.8-2.1,9-5,11.9-8.2H375c0.3,1-3.6,2-5.7,1.8v-13.1l5.9,2.4h14.1l2.6-2.7l5.5,4
		c-0.3,0.4-0.9,0.7-1.7,0.9v5.7c0,1.9-4.4,2.4-5.8,2.3v-1.2h-6.1c-1.4,1.4-3,2.6-4.8,3.7v6.2l7.3-2.1l0.2,0.8c-2,1.6-7.9,4.8-11.9,8
		H400V217z M399.1,247.1c-0.4,0.5-0.9,0.6-1.9,0.2c-1.2,0.5-3.1,1.2-4.9,1.8c9.6,4.9,6.4,11,2.5,8.9c-1.7-2.8-6.5-7.5-12.7-11.3
		l0.4-0.8c3,0.7,5.5,1.4,7.5,2.3l4.6-5L399.1,247.1z M368.4,225.1l-0.5-1.7h21.4l2.9-3.4c0,0,3.3,2.4,5.3,4.2c0,0.6-1.6,0.9-3.3,0.9
		 M385.2,229.4h5.9l3.2-3.6l0,0c0,0,3.4,2.6,5.5,4.4c0,0.8-3.1,0.9-7,0.9h-27l-0.5-1.7h13.8v-11.2l7.9,0.7c-0.1,0.7-0.5,1.2-1.7,1.4
		 M389.7,236.5h-14.8v5.5h14.8V236.5z M92.8,283.9c8.3-0.5,19.4,0.6,19.4,12.5c0,11.6-9.7,13.6-19.4,12.8 M95.9,306.3L95.9,306.3
		c9.5,0,13.2-3.8,13.2-9.8s-3.6-9.8-13.2-9.8 M277.4,283.9c10-0.6,12.7,1.4,13.7,5.8c0.9,4.2-2,8.1-5.9,8.4l8,11h-3.8l-7.5-10.7
		h-1.3v10.7h-3.2 M280.6,295.9c6.1,0,7.7-1.6,7.7-4.6c0-2.6-1.3-4.6-7.7-4.6 M140.3,283.9h13.6v2.9h-10.4v7.1h10.1v2.9h-10.1v9.6
		h10.4v2.9h-13.6 M259.8,282.8l12.1,26.4h-3.4l-2.9-6.4H254l-2.9,6.4h-3.4 M255.3,300h9l-4.5-10.2 M118.7,283.9
		c10-0.6,12.7,1.4,13.7,5.8c0.9,4.2-2,8.1-5.9,8.4l8,11h-3.8l-7.5-10.7h-1.3v10.7h-3.2 M121.9,295.9c6.1,0,7.7-1.6,7.7-4.6
		c0-2.6-1.3-4.6-7.7-4.6 M170.6,282.8l12.1,26.4h-3.4l-2.9-6.4h-11.6l-2.9,6.4h-3.4 M166.1,300h9l-4.5-10.2 M191.3,282.8l8.7,20
		l8.7-20l5.2,26.4h-3.3l-3-16.7l-7.6,17.3l-7.6-17.3l-3,16.7h-3.3 M233.1,283.9c2,0,13.8-1.7,13.8,6.9c0,7.4-5.7,7.8-10.7,7.8v10.6
		H233 M236.3,295.8c10.3,1.3,10.7-10.3,0-9.1 M299,283.9h3.2v11l10.8-11h4.1l-11.4,11.4l11.6,13.9H313l-9.5-11.8l-1.3,1.2v10.6H299"
		/>
	
		<linearGradient id="SVGID_00000003070743936071889380000005614099480310571449_" gradientUnits="userSpaceOnUse" x1="102.6585" y1="-5.6669" x2="135.7763" y2="-63.0288">
		<stop  offset="3.000000e-02" style="stop-color:#95804E"/>
		<stop  offset="0.29" style="stop-color:#EFD3AD"/>
		<stop  offset="0.57" style="stop-color:#BB9362"/>
		<stop  offset="0.78" style="stop-color:#E7D1B4"/>
		<stop  offset="1" style="stop-color:#A1805D"/>
	</linearGradient>
	
		<rect x="86.9" y="-53.9" style="fill:url(#SVGID_00000003070743936071889380000005614099480310571449_);" width="64.7" height="39.1"/>
</g>
</svg>
