<?xml version="1.0" encoding="UTF-8"?>
<svg id="_圖層_2" data-name="圖層_2" xmlns="http://www.w3.org/2000/svg" xmlns:xlink="http://www.w3.org/1999/xlink" viewBox="0 0 273.34 220.5">
  <defs>
    <style>
      .cls-1 {
        fill: #fff;
      }

      .cls-2 {
        fill: #b71c25;
      }

      .cls-3 {
        fill: #3e3a39;
      }

      .cls-4 {
        fill: url(#_未命名漸層_3);
      }
    </style>
    <linearGradient id="_未命名漸層_3" data-name="未命名漸層 3" x1="1.69" y1="147.23" x2="273.34" y2="147.23" gradientUnits="userSpaceOnUse">
      <stop offset="0" stop-color="#d71718"/>
      <stop offset="1" stop-color="#7a181d"/>
    </linearGradient>
  </defs>
  <g id="_圖層_1-2" data-name="圖層_1">
    <g>
      <path class="cls-3" d="M13.48,25.7c1.61-.39,1.67-.39,4.23-1.22-.06-.22-.11-.39-.11-.45,0-.17.06-.39.22-.67,2.23-5.45,3.89-10.57,5.51-16.47h-3.45c-1,0-1.78.11-2.95.33l-.28-1.89c1.28.28,2.11.39,3.12.39h3.45c1.22-1.45,1.61-1.89,2.89-3.28,2.06,1.39,2.67,1.84,4.51,3.34.39.28.5.5.5.72,0,.45-.56.83-2.17,1.39-2.56,7.79-2.84,8.51-4.51,13.13h2.06c1.11-1.22,1.45-1.61,2.67-2.78,1.56,1.39,2.06,1.78,3.67,3.17l.56.5h4.78v-10.9c-3.12.61-4.67.89-8.62,1.28l-.22-.61c4.78-1.67,7.68-2.95,11.52-5.17,3.06-1.78,4.23-2.61,5.9-4.12,4.67,3.17,6.18,4.39,6.18,4.95,0,.28-.28.5-.72.5-.17,0-1.11-.11-1.89-.28-2.84,1.06-4.01,1.45-6.45,2.11v12.24h2.56c1.45-1.89,1.89-2.39,3.34-4.23,2.17,1.84,2.78,2.45,4.84,4.51.17.22.28.39.28.56s-.22.33-.61.33h-10.4v15.47h1.39c1.45-1.84,1.89-2.34,3.39-4.12,2.17,1.84,2.78,2.45,4.78,4.45.17.17.28.33.28.5,0,.22-.28.33-.67.33h-18.41c-.95,0-1.72.11-3.06.33l-.33-1.95c1.39.33,2.23.45,3.39.45h3.56v-15.47h-4.9c-.5.45-.67.5-1.17.67-1.67,8.34-3.06,12.24-5.84,16.8,1.61,1.56,3.34,2.5,5.9,3.28,2.5.72,5.95,1.06,11.02,1.06s7.68-.17,11.4-.67l.11.67c-2.06,1.17-3,2.67-3.34,5.12-.06.72-.22.89-.78.95-.39.06-2.06.06-3.56.06-12.46,0-17.91-2-22.31-8.18-2.95,3.95-6.29,6.84-11.35,9.9l-.45-.61c4.45-4.34,7.23-8.18,9.57-13.18-1.06-2.5-1.5-4.34-2.23-9.12-.78,2.17-1.06,2.78-2.45,5.56.06.45.06.83.06,1.11,0,.83-.22,1.28-.61,1.28q-.45,0-2.5-5.23c1.61-.72,2.89-1.61,4.12-2.89.78-.83,1-1.22,1-1.84v-.33c-.06-.22-.06-.39-.06-.56,0-.28.17-.39.39-.39.89,0,1.67.28,1.67.61,0,.11-.06.22-.28.67-.28.67-.39,1-.39,1.28,0,1.28,1.11,4.78,2.34,7.4,1.5-4.12,2.23-7.34,3.06-14.3h-2.61c-.28.72-.56,1.39-.78,2.06-.33.5-.67.61-2,.61-1.95,0-2.89-.11-3.5-.39l.28.56c-2.73,2.11-2.84,2.23-4.51,3.34v18.91c0,2.89-1,4.12-4.01,4.95-.95.28-2.06.45-2.61.45-.5,0-.61-.17-.67-.95-.22-3.06-1.28-4.12-5.12-5.06v-.83c2.67.17,3.45.22,6.01.22.67,0,.78-.17.78-.83v-13.41q-1,.56-2.95,1.45c-.22,1.67-.56,2.39-1.06,2.39q-.56,0-2.39-7.73c1.89-.11,2.73-.22,6.4-1v-11.85h-2.89c-.95,0-1.72.11-2.78.39l-.39-2c1.22.33,2.17.45,3.17.45h2.89v-5.56c0-3.34-.06-4.95-.28-6.9,6.29.61,6.84.67,7.45.89.39.11.61.33.61.61,0,.56-.61.95-2.17,1.45v9.51h.83c1.06-1.39,1.45-1.84,2.61-3.23,1.67,1.56,2.17,2.06,3.67,3.73.17.11.22.28.22.39,0,.17-.22.28-.56.28h-6.79v10.63Z"/>
      <path class="cls-3" d="M56.6,52.07c6.95-5.17,10.63-9.35,14.19-16.19,3.17-6.06,5.06-12.29,5.9-19.97.33-2.95.61-7.01.61-9.51,0-1.11-.06-1.72-.17-3.17,1.95.22,3.5.39,4.45.45,3.95.45,5.06.72,5.06,1.39,0,.45-.5.78-2.34,1.45-.06.83-.06,1.5-.06,1.95,0,3.73.78,8.4,2.23,13.02,2.39,7.62,6.23,13.3,12.02,17.64,3.34,2.5,5.95,3.78,10.57,5.34l-.06.56c-2.84.95-4.06,2.28-5.67,5.9-.22.56-.45.72-.72.72-1.06,0-5.84-4.17-8.4-7.23-3.78-4.62-6.56-10.51-8.46-17.8-1.22-4.78-1.72-8.12-2.17-14.69-.61,9.23-1.78,14.46-4.62,20.42-3.34,7.01-8.46,12.74-14.96,16.69-1.84,1.17-3.45,1.95-7.12,3.62l-.28-.56Z"/>
      <path class="cls-3" d="M111.12,52.07c6.95-5.17,10.63-9.35,14.19-16.19,3.17-6.06,5.06-12.29,5.9-19.97.33-2.95.61-7.01.61-9.51,0-1.11-.06-1.72-.17-3.17,1.95.22,3.5.39,4.45.45,3.95.45,5.06.72,5.06,1.39,0,.45-.5.78-2.34,1.45-.06.83-.06,1.5-.06,1.95,0,3.73.78,8.4,2.23,13.02,2.39,7.62,6.23,13.3,12.02,17.64,3.34,2.5,5.95,3.78,10.57,5.34l-.06.56c-2.84.95-4.06,2.28-5.67,5.9-.22.56-.45.72-.72.72-1.06,0-5.84-4.17-8.4-7.23-3.78-4.62-6.56-10.51-8.46-17.8-1.22-4.78-1.72-8.12-2.17-14.69-.61,9.23-1.78,14.46-4.62,20.42-3.34,7.01-8.46,12.74-14.96,16.69-1.84,1.17-3.45,1.95-7.12,3.62l-.28-.56Z"/>
      <path class="cls-3" d="M205.91,10.46c1.89-2.06,2.45-2.73,4.39-4.73,2.84,2.06,3.67,2.73,6.4,4.95.28.28.39.45.39.56,0,.28-.28.39-.78.39h-28.71c-1.34,2.67-2.5,4.56-4.34,7.07.5.33.61.45,1.06.72h17.64c1.34-1.45,1.72-1.89,3.17-3.34,2.23,1.5,2.89,1.95,4.9,3.45.56.39.72.61.72.89,0,.5-.56.89-2.11,1.61v12.29c0,3.12,0,6.23.06,12.18-.11,3.23-1.17,4.62-4.28,5.45-1,.28-2.73.56-3.5.56-.56,0-.78-.22-.83-1-.06-1.39-.72-2.39-1.95-3.23-1.06-.67-2.17-1-6.23-1.89v-.72q6.23.22,9.35.28c.95,0,1.17-.17,1.17-1.06v-7.9h-18.25v14.41c-.06,1.06-.83,1.34-4.12,1.34-2,0-2.34-.17-2.34-1.17.17-5.95.28-12.02.28-15.24v-11.4c-3.56,3.73-6.45,5.95-11.85,9.01l-.33-.5c6.73-6.62,11.79-13.85,15.24-21.81h-10.01c-1.56,0-2.67.11-4.23.33l-.22-2c1.61.33,2.89.5,4.45.5h10.51c1.56-4.01,2.17-6.12,2.56-9.4,8.4,1.78,9.18,1.95,9.18,2.73,0,.56-.67.83-2.84,1.17-.95,2.61-1.39,3.67-2.23,5.51h17.69ZM202.41,27.48v-6.9h-18.25v6.9h18.25ZM184.16,35.83h18.25v-7.18h-18.25v7.18Z"/>
      <path class="cls-3" d="M244.13,28.43v-2.78c0-1.06-.06-1.95-.22-3.84,1.67.11,3,.22,3.84.28,3.56.28,4.45.5,4.45,1.11,0,.5-.61.89-2.06,1.34v3.89h10.96l3.89-4.28c2.67,2,3.5,2.61,6.12,4.67.22.22.28.33.28.5s-.22.28-.56.28h-22.2c-.33,3.06-.39,3.67-.78,5.45h11.63c1.28-1.39,1.72-1.84,3.06-3.12,2,1.34,2.61,1.72,4.51,3.12.5.39.67.67.67.95,0,.5-.5.89-1.84,1.56-1.11,9.18-2.17,12.07-5.01,13.57-1.45.83-3.89,1.34-6.29,1.34-.56,0-.72-.17-.83-.67-.39-2.78-2.06-3.78-8.73-5.4v-.78c8.68.78,9.35.83,10.85.83s2-.33,2.56-1.61c.67-1.67,1.17-4.78,1.39-8.62h-12.24c-1.06,3.73-2.67,6.45-5.28,8.9-4.01,3.78-8.4,5.84-16.24,7.62l-.22-.67c7.51-3.62,11.63-7.23,14.07-12.35,1.28-2.73,1.95-5.45,2.39-10.12h-10.74c-.45,4.56-1.17,7.45-2.5,10.85-1.95,4.73-4.06,7.45-9.29,12.07l-.45-.39c3.17-5.4,4.23-8.29,5.23-13.85.89-5.06,1.28-11.79,1.28-21.53,0-3.84-.06-5.62-.28-8.96,3.28,1.28,4.34,1.72,7.62,3.34h26.81c1.28-1.45,1.67-1.89,3.06-3.28,2.11,1.39,2.73,1.84,4.67,3.23.5.45.67.67.67.89,0,.39-.39.67-1.84,1.39q0,3.17.17,7.9c0,.61-.11.89-.39,1.06-.5.39-1.78.56-3.89.56-1.67,0-2-.22-2-1.17v-1.56h-28.37c-.11,3.95-.22,5.9-.45,8.29h12.52ZM221.16,3.89c1.78.39,3.12.56,4.78.56h34.1c1.78-1.95,2.34-2.56,4.17-4.45,3,1.95,3.89,2.61,6.68,4.73.28.22.39.39.39.56,0,.22-.22.33-.67.33h-44.67c-1.61,0-2.67.11-4.34.39l-.45-2.11ZM260.43,12.29h-28.21c-.06,3.45-.06,4.67-.11,6.68h28.32v-6.68Z"/>
    </g>
    <g>
      <path class="cls-3" d="M0,112.54c5.01-1.95,8.12-3.56,11.85-6.12,2.56-1.78,3.62-2.67,4.78-4.12,6.79,2.34,8.01,2.89,8.01,3.5s-.5.72-2.78.83c-7.68,4.01-11.68,5.23-21.64,6.45l-.22-.56ZM10.35,77.33c1.78.72,2.67,1.11,5.12,2.39h21.53c1.22-1.22,1.61-1.61,2.78-2.73,2.23,1.34,2.89,1.72,4.9,3.12.45.33.67.61.67.89,0,.45-.45.83-1.84,1.5v3.56c0,5.56.11,11.13.28,15.35,0,.5-.06.67-.17.89-.33.45-1.67.67-3.95.67-1.95,0-2.23-.11-2.23-.89v-1H14.85v1.17c0,.5-.17.72-.5.89-.61.28-1.89.45-3.56.45-1.95,0-2.23-.17-2.28-1.28.22-6.01.28-9.74.28-15.41,0-4.39-.06-6.73-.22-8.9-1,.11-1.56.11-2.34.11-1.61,0-1.95-.17-1.95-1.11.17-3.89.22-5.34.22-9.35,0-2-.06-3.45-.22-6.01,2.89,1.17,3.84,1.61,6.84,3.06h30.1c1.39-1.45,1.84-1.84,3.23-3.17,2,1.34,2.67,1.78,4.62,3.28.5.45.72.72.72.95,0,.5-.5.95-1.95,1.61v2.5c0,1.72.06,3.78.22,6.56,0,.56-.11.83-.45,1.06-.45.28-1.95.5-3.84.5-1.78,0-2-.11-2-1.06v-1.34H10.4v1.28l-.06.45ZM10.4,65.87v8.57h6.4v-8.57h-6.4ZM37.44,86.17v-5.29H14.85v5.29h22.59ZM14.85,87.34v5.45h22.59v-5.45H14.85ZM14.85,93.96v5.95h22.59v-5.95H14.85ZM22.59,74.43h6.62v-8.57h-6.62v8.57ZM29.71,103.03c10.07.95,13.07,1.39,16.02,2.61,2.11.83,3.06,2.23,3.06,4.45,0,1.84-.89,3.23-2,3.23-.72,0-1.22-.28-2.39-1.22-4.56-3.78-8.96-6.29-14.85-8.46l.17-.61ZM34.99,74.43h6.79v-8.57h-6.79v8.57Z"/>
      <path class="cls-3" d="M81.44,71.32c2.34-5.23,3.17-7.51,3.73-10.24,8.62,2.23,9.12,2.39,9.12,3.17,0,.61-.72.95-2,.95h-.61c-3.62,3.06-4.62,3.84-7.84,6.12h9.74c1.84-2.11,2.39-2.78,4.23-4.78,2.89,2.06,3.73,2.67,6.4,4.9.28.33.39.5.39.67,0,.22-.28.39-.72.39h-21.36c-2.78,3.39-4.01,4.73-6.73,7.29h13.24c1.34-1.56,1.78-2,3.23-3.5,2.17,1.5,2.84,1.95,4.78,3.45.56.45.72.72.72,1,0,.56-.45.95-1.89,1.56v9.01c0,9.68.06,12.96.28,19.25-.06,1.39-1,1.78-4.56,1.78-1.61,0-1.89-.17-1.95-1.22v-2.34h-22.03v2.06c-.06.56-.17.78-.39,1-.5.33-1.95.61-3.62.61-2,0-2.39-.28-2.39-1.5.22-7.57.28-12.13.28-20.75,0-6.23-.06-9.29-.28-13.91,3.17,1.45,4.12,1.89,7.01,3.5h4.95c1.11-5.29,1.17-5.79,1.34-7.29h-14.96c-2.39,0-3.73.11-5.34.39l-.39-2.11c1.89.39,3.78.56,5.79.56h10.24q-.67-.45-1.67-3.23c-.95-2.56-1.95-4.12-4.06-6.23l.33-.56c4.06,1.06,5.73,1.67,7.23,2.5,1.89,1.11,2.73,2.23,2.73,3.56,0,1.61-.83,3-2.39,3.95h9.46ZM89.62,88.29v-7.34h-22.03v7.34h22.03ZM67.59,89.46v8.18h22.03v-8.18h-22.03ZM67.59,98.8v8.79h22.03v-8.79h-22.03Z"/>
      <path class="cls-3" d="M106.53,112.65c3.06-5.12,4.62-8.9,5.4-13.24,5.67,2,6.9,2.56,6.9,3.06,0,.45-.5.67-2.06.83-3.5,4.73-5.45,6.68-9.85,9.68l-.39-.33ZM114.93,98.13c0,1-.5,1.17-3.39,1.17-1.72,0-2-.17-2-1.11.11-5.12.17-9.23.17-14.58,0-15.63-.06-18.36-.28-21.64,2.61,1.22,3.39,1.61,5.84,3.06h4.01c1.17-1.34,1.56-1.78,2.78-3,1.78,1.22,2.34,1.61,4.01,2.95.39.33.56.5.56.72,0,.39-.39.72-1.72,1.39,0,18.41.06,26.54.11,30.1,0,.45-.06.67-.22.83-.33.39-1.56.61-3.34.61-1.45,0-1.61-.11-1.67-.72v-1.34h-4.84v1.56ZM119.77,66.2h-4.84v8.51h4.84v-8.51ZM114.93,75.88v9.01h4.84v-9.01h-4.84ZM114.93,86.06v9.35h4.84v-9.35h-4.84ZM119.27,99.64c2.73,1.5,3.73,2.17,4.9,3.28,1.61,1.45,2.11,2.34,2.11,3.67,0,2-1.78,4.23-3.34,4.23-.78,0-1-.39-1.34-2.61-.56-3.39-1.06-4.9-2.78-8.23l.45-.33ZM156.77,95.91c1.5,1.61,1.95,2.11,3.28,3.84.11.11.17.28.17.33,0,.17-.22.28-.45.28h-5.29v.78q0,2.17.06,6.62c-.06,2.5-1.06,3.62-3.84,4.39-.89.28-2.5.5-3.23.5-.61,0-.72-.11-.83-.95-.17-1.11-.61-2.11-1.22-2.67-.83-.78-1.78-1.17-5.34-2.06l.06-.72c4.78.22,5.17.28,8.18.28.67-.06.83-.22.83-.89v-5.28h-15.58v11.24c0,1.17-.56,1.39-3.78,1.39-1.5,0-1.78-.17-1.78-1.06.06-1.89.11-5.73.17-11.57-1.39,0-2,.06-3.06.28l-.28-1.84c1.28.33,1.89.39,3.34.39.06-2.73.06-4.45.06-5.29,0-6.73-.06-8.4-.28-11.52,2.73,1.22,3.56,1.61,6.34,3.06h4.34v-4.56h-9.74c-1.28,0-2.06.06-3.12.33l-.33-1.89c1.28.28,2,.39,3.5.39h3.84v-5.17h-2.23c-1.11,0-1.95.06-3,.28l-.28-1.84c1.11.28,2.06.39,3.28.39h2.23v-4.73h-2.73c-1.17,0-2.28.11-3.39.33l-.33-1.89c1.17.22,2.45.39,3.67.39h2.78v-2.39c0-1.22-.06-2-.28-3.62,1.61.17,2.95.28,3.73.33,3,.22,3.89.45,3.89,1.06,0,.45-.45.72-1.89,1.22v3.39h5.67v-2.39c0-1.17-.06-1.95-.22-3.56,1.5.17,2.67.28,3.39.33,3.34.33,4.23.56,4.23,1.11,0,.5-.56.83-1.95,1.28v3.23h2.28c1.17-1.5,1.5-1.95,2.67-3.34,1.89,1.56,2.45,2,4.17,3.67.22.28.33.39.33.56s-.17.28-.56.28h-8.9v4.73h1.72c1.11-1.45,1.5-1.84,2.73-3.23,1.84,1.56,2.39,2,4.12,3.67.22.17.28.33.28.45,0,.17-.22.28-.5.28h-8.34v5.17h2.56c1.22-1.56,1.61-2,2.84-3.56,2.06,1.67,2.67,2.17,4.56,3.95.22.22.28.33.28.5s-.17.28-.5.28h-15.35v4.56h4.95c1.17-1.28,1.5-1.67,2.67-2.89,1.89,1.28,2.5,1.61,4.23,2.89.45.33.67.56.67.78,0,.45-.45.83-1.78,1.56v11.4c1-1.45,1.28-1.89,2.28-3.28ZM138.63,86.62h-5.06v5.51h5.06v-5.51ZM138.63,93.29h-5.06v5.9h5.06v-5.9ZM138.24,73.38h5.67v-4.73h-5.67v4.73ZM138.24,79.72h5.67v-5.17h-5.67v5.17ZM149.15,86.62h-5.4v5.51h5.4v-5.51ZM149.15,93.29h-5.4v5.9h5.4v-5.9Z"/>
      <path class="cls-3" d="M189.65,82.72c1.5,5.23,2.56,7.51,5.06,10.68,2.23,2.78,5.01,5.17,8.23,7.01,3.28,1.89,6.01,2.84,11.4,4.17l-.11.56c-3,1.17-4.67,2.95-5.62,5.84-.11.5-.28.67-.61.67-.72,0-2.84-1.28-5.29-3.23-5.84-4.62-9.79-10.29-12.07-17.3-.83-2.39-1.22-4.17-1.84-7.9-1.17,8.46-4.28,14.74-9.9,19.92-2.84,2.56-6.18,4.78-9.74,6.4-2,.95-3.56,1.5-6.95,2.5l-.28-.61c5.9-3.23,9.9-6.45,13.18-10.74,4.01-5.12,6.29-10.85,7.18-17.97h-12.29c-1.89,0-3.84.11-5.23.33l-.33-2.06c1.78.39,3.28.56,5.56.56h12.46c.33-3.78.45-6.23.45-13.96h-14.96c-1.84,0-3.45.11-5.01.33l-.33-2c1.89.33,3.56.5,5.45.5h33.99c1.78-2.23,2.39-2.89,4.28-5.06,3.12,2.28,4.01,2.95,7.01,5.4.22.22.33.39.33.5,0,.22-.22.33-.67.33h-23.42c-.17,7.96-.28,10.46-.61,13.96h11.24c1.84-2.17,2.39-2.84,4.28-4.95,3,2.17,3.89,2.89,6.73,5.29.22.22.33.39.33.5,0,.22-.22.33-.67.33h-21.25Z"/>
      <path class="cls-3" d="M248.06,73.16c2.39-4.17,3.73-7.4,4.73-11.02,7.73,2.5,8.51,2.84,8.51,3.5,0,.56-.67.78-2.45.78h-.28c-4.01,3.5-5.51,4.73-8.23,6.73h8.01c1.45-1.5,1.89-1.95,3.39-3.34,2.67,1.84,3.45,2.39,5.84,4.34.56.45.78.78.78,1.11,0,.67-.95.95-3.28,1-3.06,1.78-4.34,2.5-6.9,3.78.22.28.39.67.39.78,0,.45-.56.89-2,1.67,0,5.62,0,6.12.17,10.29-.06.67-.22.95-.78,1.17-.5.22-2.11.39-3.39.39-1.56,0-1.89-.22-1.95-1.11v-1.95h-5.51v8.01h8.12c1.67-1.95,2.17-2.56,3.89-4.34,2.61,1.84,3.39,2.45,6.06,4.56.28.22.39.39.39.56,0,.22-.28.39-.67.39h-17.8v8.85h11.35c1.95-2.23,2.56-2.89,4.45-4.9,2.89,2.17,3.73,2.84,6.45,5.12.22.22.33.39.33.56,0,.22-.28.39-.67.39h-44.84c-1.61,0-3,.11-4.51.33l-.39-1.95c1.67.33,2.95.45,5.01.45h16.58v-8.85h-12.24c-1.61,0-3.06.11-4.28.28l-.39-1.89c1.56.33,2.84.45,4.62.45h12.29v-8.01h-5.45v1.78c-.06.61-.22.83-.56,1.06-.61.28-1.89.45-3.56.45s-2.11-.22-2.11-1.34c.28-5.56.33-7.34.33-10.63,0-2.34-.06-3.62-.22-6.12,3.06,1.22,3.95,1.67,6.73,3.12h15.97c1.39-1.39,1.84-1.78,3.23-3.06,1.95,1.22,2.5,1.61,3.89,2.67.72-1.56,1.11-2.56,1.95-4.9h-34.16v.61c0,2.5-.56,5.01-1.39,6.45-1,1.72-2.56,2.78-4.01,2.78-1.56,0-2.67-1.72-2.67-4.12,0-.56.17-1.17.33-1.5q.33-.5,2-1.39c2.84-1.5,3.95-3.39,4.39-7.18h.72c.33,1.56.45,2.06.56,3.17h14.19v-6.23c0-1.72-.06-2.89-.28-5.17,7.68.56,8.62.78,8.62,1.56,0,.5-.67.89-2.34,1.39v8.46h3ZM225.31,62.53c6.84,1.95,9.74,3.84,9.74,6.34,0,2.11-1.78,4.23-3.5,4.23-.83,0-1.39-.56-1.95-2.17-1.28-3.45-2.28-5.17-4.62-7.96l.33-.45ZM233.43,90.12h17.19v-9.35h-17.19v9.35Z"/>
    </g>
    <g>
      <path class="cls-2" d="M74.68,218.22c.57-.67.74-.87,1.31-1.49.69.67.72.72,1.39,1.49,2.23-2.65,3.42-6.55,3.42-11.26,0-.72-.02-.99-.1-2.06-1.02,1.81-1.51,2.53-2.78,3.87l-.22-.12c1.12-2.8,1.69-4.81,2.23-7.93.27-1.66.32-2.06.32-3.07,2.9.52,3.25.6,3.55.72.15.07.3.2.3.27,0,.05-.07.17-.1.22-.12.12-.3.17-1.02.4-.15.4-.57,1.56-1.29,3.5h3.6c.64-.64.87-.84,1.51-1.39.92.69,1.19.92,2.08,1.71.2.2.27.3.27.42,0,.22-.25.32-1.07.5-1.24,1.81-1.71,2.36-3.4,4.07l-.2-.12c.64-2.21.77-2.83,1.02-4.66h-4.04c-.25.6-.37.87-.69,1.46,2.88.32,3.42.42,3.42.69,0,.2-.22.37-.87.6,0,3.02.47,4.88,1.74,6.94.64,1.02,1.49,1.98,2.38,2.73.47.4.87.64,1.74,1.09l-.07.25c-.87.52-1.21,1.02-1.49,2.16-.15.6-.2.69-.35.69-.25,0-1.21-1.14-1.79-2.11-.89-1.49-1.56-3.35-1.93-5.31-.2-1.14-.32-1.96-.55-4.04-.2,2.28-.35,3.25-.72,4.51-.64,2.16-1.79,3.89-3.62,5.48-1.07.89-1.76,1.34-3.25,2.01l-.15-.2c.84-.69,1.12-.97,1.64-1.49h-7.34v1.24c-.02.2-.07.3-.17.35-.2.1-.72.17-1.26.17-.84,0-.97-.07-1.04-.45q.07-1.21.1-2.65l.02-2.73v-2.38c-.62.52-.97.79-1.93,1.46l-.17-.15c1.51-2.18,2.65-4.41,3.22-6.4.62.2,1.07.35,1.36.45,1.39.4,1.64.52,1.64.72,0,.25-.32.35-1.02.4-.45.62-.6.82-.87,1.14h2.36c.32-.69.55-1.46.79-2.5,2.83.82,2.95.87,2.95,1.12,0,.2-.25.27-.92.32q-.47.25-1.49.82c-.1.05-.25.12-.47.25h2.55c.57-.69.74-.89,1.34-1.54.84.72,1.09.94,1.88,1.69.07.1.12.15.12.2,0,.1-.1.17-.25.17h-4.26v2.13h.89c.57-.67.77-.84,1.31-1.46.79.69,1.02.92,1.71,1.61.1.07.15.15.15.22,0,.1-.1.15-.3.15h-3.77v2.16h.89q.55-.57,1.26-1.34c.79.64,1.02.84,1.74,1.51.07.07.12.12.12.17,0,.1-.1.17-.22.17h-3.79v2.45h.62ZM73.02,200.02v-.89c0-.47,0-.74-.07-1.49.62.05,1.12.1,1.41.12,1.46.12,1.93.25,1.93.5,0,.22-.22.35-.82.55-.02.6-.02.84-.02,1.21h.74c.6-.69.77-.89,1.31-1.54.87.74,1.12.97,1.86,1.69.1.07.15.15.15.2,0,.1-.1.17-.25.17h-3.79l.02,1.29c-.02.25-.1.35-.32.42-.25.07-.99.15-1.46.15-.52,0-.67-.07-.74-.4.02-.74.02-.89.05-1.46h-2.16q0,.4.02,1.26c-.05.3-.1.35-.37.4.57.37.72.47,1.29.87.2.12.3.22.3.32,0,.15-.02.15-.55.5v.97c0,.5,0,.55.05,1.86,0,.22-.05.32-.17.4-.2.12-.69.2-1.19.2s-.62-.05-.62-.3v-.37h-1.49v.37c-.02.22-.07.27-.27.32-.17.05-.84.12-1.14.12-.45,0-.6-.1-.6-.45.05-.92.07-1.24.07-1.86,0-1.09-.02-2.08-.1-3.1.97.45,1.26.6,2.13,1.09h1.24q.35-.35.94-.92c-.32.05-1.09.1-1.34.1-.52,0-.67-.1-.67-.45l.05-1.34h-1.36c-.6,0-.97.02-1.41.12l-.2-.84c.67.12,1.19.2,1.61.2h1.36c.02-.52.02-.55.02-.6,0-.52-.02-.89-.12-1.81,2.85.27,3.32.35,3.32.62,0,.2-.22.35-.79.6-.02.37-.02.64-.02.84v.35h2.16ZM68.14,206.12h1.49v-2.45h-1.49v2.45ZM71.83,212.57v-2.13h-2.26v2.13h2.26ZM71.83,215.25v-2.16h-2.26v2.16h2.26ZM69.58,218.22h2.26v-2.45h-2.26v2.45ZM75.82,203.15c.42-.47.57-.6.99-1.04.6.37.77.5,1.31.92.2.12.3.25.3.37,0,.15-.1.25-.6.55q.02.92.05,1.83c0,.57,0,.62.02,1.17-.02.3-.12.4-.4.45-.32.07-.94.15-1.19.15-.27,0-.37-.07-.4-.3v-.6h-1.54v.32c-.02.2-.07.25-.3.3-.35.05-.77.1-1.14.1-.4,0-.5-.05-.55-.3.05-1.39.07-1.88.07-2.75,0-.72-.02-1.24-.07-2.11.89.4,1.17.52,1.98.94h1.44ZM74.39,206.12h1.54v-2.45h-1.54v2.45Z"/>
      <path class="cls-2" d="M114.08,216.86c-.97.42-1.46,1.09-1.59,2.13-.05.55-.07.57-.5.6-.62.05-3.25.07-5.23.07-4.88,0-6.27-.15-7.71-.74-.97-.42-1.79-1.12-2.36-2.08-.27-.42-.5-.94-.84-1.83-1.46,1.98-1.96,2.6-3.25,4.07.02.25.05.6.05.69,0,.27-.12.45-.3.45-.27,0-.37-.15-2.01-3.47,1.51-.62,2.43-1.04,3.35-1.64v-6.79h-1.79c-.42,0-.64.02-1.14.1l-.25-.79c.42.1,1.04.17,1.36.17h1.71c.55-.69.74-.89,1.36-1.59.97.69,1.24.94,2.06,1.64.12.12.17.22.17.3,0,.1-.12.25-.4.42-.02.05-.2.15-.47.32v5.93c.89,1.88,2.18,2.38,6.2,2.38,3.4,0,8.9-.27,11.55-.6v.27ZM91.62,197.89c3.82,1.61,5.03,2.58,5.03,4.07,0,.97-.99,2.18-1.79,2.18-.35,0-.62-.25-.74-.77-.67-2.38-1.21-3.42-2.7-5.31l.2-.17ZM107.21,208.97q0,5.26.02,6.82c-.02.32-.12.45-.37.55-.25.07-.89.12-1.54.12s-.82-.07-.84-.45c.02-1.04.1-4.41.1-5.65-2.36,1.76-2.68,2.01-5.78,3.94q0,.12-.02.5c0,.32-.15.57-.32.57-.25,0-.47-.45-.94-1.83v-.05c-.12-.32-.35-.97-.57-1.61.77-.12,1.04-.17,1.59-.27v-7.88c0-2.01-.02-3.02-.15-4.98,1.21.6,1.56.77,2.65,1.44,1.44-1.02,2.45-1.93,3.35-3.05.42.22.74.4.94.5.72.4,1.26.69,1.31.72.57.3.84.52.84.72s-.2.32-.52.32c-.2,0-.37-.02-.69-.1-.5.2-.67.27-1.07.42.77.25,1.09.37,2.11.72h2.73c.55-.62.72-.79,1.29-1.39.97.72,1.26.94,2.11,1.66.1.12.15.2.15.27,0,.15-.1.27-.25.37t-.35.2c-.1.05-.12.05-.25.15v5.45q0,2.36.02,3.45v1.24c-.02.87-.3,1.34-.99,1.71-.5.27-1.41.5-1.96.5-.3,0-.32-.07-.37-.6-.05-1.09-.55-1.59-1.88-1.93v-.37c.69.05,1.12.07,2.21.12.25,0,.35-.12.35-.42v-9.89h-2.95l.05,8.03ZM101.14,210.96c1.93-.52,2.11-.57,3.45-1.04v-3.57c0-2.93-.02-5.7-.05-6.45-2.21.69-2.23.69-3.4,1.02v10.04Z"/>
      <path class="cls-2" d="M116.39,208.38c.84.17,1.88.27,3.12.27h14.11c.84-1.09,1.12-1.44,2.03-2.5,1.49,1.14,1.93,1.49,3.35,2.68.1.1.12.15.12.2,0,.1-.1.15-.3.15h-19.31c-1.14,0-2.06.05-2.95.17l-.17-.97Z"/>
      <path class="cls-2" d="M149.81,201.54c.6-.74.79-.99,1.41-1.71,1.02.82,1.31,1.07,2.28,1.88.1.1.12.15.12.22s-.1.12-.22.12h-4.64v3.69h1.07c.62-.77.79-.99,1.41-1.76.99.82,1.29,1.07,2.23,1.96.1.07.12.15.12.2,0,.07-.1.12-.22.12h-4.36v4.29h.84c.64-.82.84-1.07,1.49-1.83.94.84,1.21,1.12,2.06,1.98.07.12.12.17.12.22,0,.1-.1.15-.22.15h-4.29v5.11c1.41.64,2.88.87,5.65.87,3.25,0,7.09-.2,10.24-.55v.22c-.45.3-.62.45-.84.79-.32.45-.55.99-.6,1.49-.07.52-.1.55-.37.57-.45.05-1.81.07-3.84.07-6,0-7.76-.15-9.32-.74-2.63-1.02-4.29-2.98-5.13-6.07-.72,2.73-1.71,4.66-3.62,7.04l-.27-.1c.77-2.21,1.12-3.5,1.44-5.58.25-1.71.47-4.09.47-5.31,0-.35,0-.55-.05-1.07,2.8.35,2.98.37,3.25.5.2.05.3.17.3.3,0,.2-.22.32-.92.6-.15,1.39-.22,1.91-.42,2.9.47,1.14.77,1.59,1.49,2.31v-8.16h-3.2c-.74,0-1.09.02-1.61.15l-.17-.87c.6.15,1.14.2,1.79.2h2.88v-3.69h-2.4c-.67,0-1.02.02-1.39.12l-.17-.84c.55.15.97.2,1.56.2h2.4v-1.59c0-.97-.02-1.39-.12-2.43,3.62.35,3.84.4,3.84.74,0,.25-.25.37-1.09.62v2.65h1.04ZM159.7,199.31c.6-.64.77-.84,1.39-1.44.92.64,1.19.84,2.06,1.54.22.2.32.32.32.42,0,.22-.2.4-.87.77v1.51c0,1.54.02,2.45.07,4.39,0,.6-.37.74-1.81.74-.79,0-.94-.07-.94-.5v-.94h-3.62v6.5c0,.57.12.67.99.67.27,0,.77,0,1.49.02h.27c1.74,0,2.08-.07,2.4-.57.35-.55.74-1.66,1.59-4.56l.25.02-.2,3.94v.35q0,.27.77.6c.3.15.5.5.5.94,0,.62-.35,1.09-.99,1.29-.74.22-2.21.32-4.98.32-4.34,0-4.66-.12-4.69-1.81v-7.19c0-.77-.02-1.36-.07-2.65,1.34.64,1.76.87,3.02,1.61h3.27v-5.45h-5.08c-.57,0-.99.05-1.44.15l-.17-.87c.55.15,1.07.2,1.61.2h4.86Z"/>
      <path class="cls-2" d="M185.06,202.16c.57-.74.77-1.02,1.44-1.88,1.14.87,1.49,1.14,2.6,2.06.05.07.1.17.1.22,0,.07-.1.12-.22.12h-7.66c.15,3.62.45,5.78,1.09,7.69,1.12-2.18,1.74-4.04,1.93-5.75,2.9.84,3.55,1.09,3.55,1.39,0,.25-.25.37-1.09.5-1.09,3-1.83,4.49-3.2,6.42.82,1.31,1.34,1.91,2.95,3.27,1.07-1.69,1.44-2.36,2.55-4.64l.27.07-1.02,4.59c-.07.3-.1.47-.1.62q0,.22.47.72c.22.27.35.6.35.97,0,.82-.62,1.46-1.36,1.46-.94,0-2.21-.82-3.77-2.4-.79-.82-1.44-1.61-2.06-2.58-.84.84-1.56,1.46-2.41,2.13-1.81,1.34-3.1,2.03-5.7,2.95l-.12-.25c3.3-2.13,5.26-3.97,7.17-6.77-1.17-2.55-1.76-5.53-2.08-10.39h-7.39c0,2.33-.02,3.2-.1,4.49h3.35c.55-.67.72-.87,1.29-1.51.87.6,1.14.79,2.01,1.44.2.17.27.3.27.4,0,.17-.15.32-.79.67-.27,4.44-.6,6.45-1.17,7.41-.42.72-1.21,1.17-2.36,1.36-.22.05-.55.07-.74.07-.27,0-.37-.1-.37-.45-.02-1.21-.47-1.69-2.08-2.23l.05-.3c1.83.15,2.36.2,2.75.2.55,0,.72-.17.87-1.02.22-1.19.45-3.62.47-5.53h-3.57c-.15,2.78-.3,3.89-.57,5.16-.45,1.83-1.24,3.67-2.33,5.21-.55.77-.97,1.29-2.01,2.33l-.22-.15c1.07-2.21,1.56-3.67,1.96-5.93.4-2.28.55-4.83.55-9.82,0-1.83-.02-2.48-.1-3.99,1.36.64,1.79.87,3.15,1.66h7.07c-.05-.72-.07-1.07-.07-1.59-.05-1.74-.07-2.11-.2-2.95,3.47.3,3.72.35,3.72.67,0,.22-.2.37-.84.6-.02,1.04-.05,1.66-.05,2.01,0,.3,0,.52.02,1.26h3.77ZM182.53,198.14c1.21.15,1.81.27,2.33.45.84.3,1.24.72,1.24,1.31,0,.82-.64,1.61-1.34,1.61-.15,0-.32-.07-.42-.15-.15-.12-.17-.2-.42-.84-.37-.97-.74-1.51-1.46-2.18l.07-.2Z"/>
      <path class="cls-2" d="M204.23,204.54c-1.21,1.02-1.74,1.41-2.65,2.01,1.64,1.34,2.13,1.88,2.83,3.07,1.04,1.71,1.54,3.64,1.54,5.85,0,1.88-.4,3.2-1.17,3.94-.5.47-1.31.79-2.4.97-.22.02-.5.05-.55.05-.25,0-.3-.07-.32-.47-.07-.57-.2-.92-.4-1.14-.22-.25-.87-.55-1.74-.82l-.69-.2c-.15-.05-.27-.07-.42-.12v-.27c1.07.1,3.5.2,4.17.2.77,0,.89-.12,1.02-.99.07-.52.15-1.51.15-2.11,0-.4,0-.64-.02-1.07-.77.62-2.45,1.69-3.62,2.31-2.23,1.19-4.69,2.08-7.83,2.8l-.12-.22c3.07-1.39,5.08-2.58,7.59-4.44,1.44-1.07,2.21-1.74,3.62-3.15-.12-.5-.17-.64-.32-1.09-2.75,2.06-6.22,3.55-10.66,4.59l-.12-.25c3.05-1.41,4.36-2.18,6.67-3.89,1.26-.92,1.74-1.34,3.02-2.5-.27-.35-.35-.47-.62-.79-2.53,1.51-5.03,2.45-8.48,3.15l-.15-.25c3.55-1.56,5.7-2.95,8.06-5.16h-2.78c-.62,0-.99.02-1.66.15l-.2-.87c.74.15,1.24.2,1.91.2h9.77c.69-.74.89-.97,1.56-1.71.57.35.67.42,1.09.69.22-.5.35-.79.67-1.79h-15.17c.02.2.02.37.02.47,0,2.31-.84,3.77-2.16,3.77-.84,0-1.49-.77-1.49-1.79,0-.27.07-.52.22-.69q.17-.17,1.12-.77c1.04-.64,1.46-1.44,1.64-3.2h.27c.22.79.27,1.04.35,1.69h6.17v-1.51c0-.57-.02-.89-.12-1.61,3.92.35,4.02.37,4.02.69,0,.2-.32.4-1.07.6v1.83h6c.57-.64.74-.84,1.39-1.46,1.21.79,1.59,1.07,2.73,1.98.17.17.27.3.27.4s-.07.2-.15.25q-.27.15-1.46.17-.77.4-1.79.89-.57.27-.92.45c.45.3.67.45,1.31.89.07.07.1.1.1.15,0,.07-.07.12-.2.12h-6.5c.42,1.88.89,3.1,1.91,4.96,1.39-1.51,2.21-2.65,2.88-4.02,2.48,1.19,3.4,1.74,3.4,1.98s-.35.35-1.14.35h-.3c-2.01,1.14-2.55,1.41-4.49,2.23,1.02,1.54,2.18,2.73,3.77,3.82,1.24.84,2.21,1.31,3.72,1.74l-.07.27c-.89.12-1.44.45-2.01,1.19-.2.27-.42.64-.55.94-.07.25-.15.32-.27.32-.17,0-.52-.25-1.09-.72-3.25-2.7-5.48-7.41-6.25-13.07h-.82Z"/>
    </g>
    <rect class="cls-4" x="1.69" y="123.58" width="271.65" height="47.3"/>
    <g>
      <path class="cls-1" d="M41.4,149.28c-1.38-.14-2.64-.19-4.09-.19h-13.5c-1.45,0-2.69.05-4.12.19v-4.14c1.26.14,2.38.19,4.12.19h13.5c1.83,0,3.02-.05,4.09-.19v4.14Z"/>
      <path class="cls-1" d="M47.85,153.9c1.12-.14,2.5-.4,4.33-.81.21-.79.33-1.26.36-1.4l-2.86.81c-.26-3.12-.57-4.98-1.29-7.76l3.12-.79c.64,2.76.81,3.9,1.14,7.31.45-2.07.64-3.07.95-5.28.19-1.52.24-1.83.24-2.26l3.33.67q-.12.52-.52,2.5c-.36,1.9-.5,2.45-1.29,5.4.55-.17.83-.26,1.64-.55l-.02,3.4c-1.76.62-3.81,1.19-7.09,2.05-.67.17-.74.19-1.31.36l-.74-3.64ZM51.14,138.36c0-.71-.02-1.19-.12-1.67h3.71c-.1.48-.12.88-.12,1.64v1.55h1.17c.69,0,1.14-.02,1.57-.1v3.48c-.64-.05-1.36-.1-1.9-.1h-5.19c-.6,0-1.29.05-2.05.12v-3.52c.6.07,1.19.12,1.88.12h1.05v-1.52ZM67.33,146.55c.79,0,1.43-.02,2.21-.12-.1.95-.12,1.74-.12,2.9v5.86c0,1.55.05,2.59.14,3.59h-3.74v-.98h-4.71v.98h-3.69c.1-.83.12-1.64.12-3.33v-6.83c0-.9-.02-1.59-.1-2.17.57.07,1.19.1,2.19.1h1.45v-6.97c0-1.62-.02-2.26-.14-3.14h3.9c-.12.88-.14,1.48-.14,3.12v.24h3.05c1,0,1.76-.05,2.45-.14v3.57c-.67-.1-1.36-.12-2.45-.12h-3.05v3.45h2.62ZM61.11,154.5h4.71v-4.64h-4.71v4.64Z"/>
      <path class="cls-1" d="M95.7,137.43c1.21,0,2-.05,2.93-.14v2.83c-.88-.1-1.59-.12-2.93-.12h-2.4v.76h1.76c.79,0,1.24-.02,1.67-.1v1.64c-.4-.05-.74-.07-1.69-.07h-6.02v.52h4.9c1.29,0,1.83-.02,2.38-.1l2.64,1.31c-.14.17-.24.31-.4.57-.55.79-.86,1.17-1.4,1.71-1-.5-1.74-.76-2.95-1.05.29-.19.38-.26.74-.64h-6.21v.55l3.38-.1c.55,0,1.05-.05,1.43-.1l.05,1.4q-.38-.02-.45-.02c-.24,0-.67,0-.98.02l-3.43.12c0,.38.17.4,2.02.4,3.52,0,3.59-.02,3.62-1.19,1.07.45,1.88.67,3.38.88-.57,1.69-.81,1.74-7.33,1.74-2.43,0-3.83-.12-4.48-.4-.38-.14-.52-.48-.52-1.19v-.14l-1.86.05c-.57.02-1.07.07-1.5.12l-.02-1.48c.24.02.45.05.74.05.1,0,.33,0,.71-.02l1.93-.05v-.64h-4.19v1c0,3.4-.19,6.12-.62,8.26-.4,2.14-.88,3.45-1.86,5.09-.86-1.36-1.55-2.14-2.64-3.09,1.43-2.43,1.76-4.31,1.76-10.07,0-1.4-.02-2.14-.14-3.07.81.05,1.57.07,2.71.07h5.31v-1.33c0-.48-.02-.76-.1-1.17h3.48c-.05.19-.05.26-.07.5h1v-.95h-5.09v.81c0,.57,0,.71.05,1h-3.38c.05-.29.07-.6.07-.9v-.71h-2.21c-1.36,0-2.09.02-2.81.12v-2.83c.86.1,1.62.14,2.81.14h2.21c0-.43-.02-.62-.07-.93h3.67c-.05.31-.07.57-.07.93h4.57c0-.4-.02-.62-.07-.93h3.67c-.05.31-.07.48-.07.93h2.4ZM98.03,156.21c.33,0,.71-.02.98-.1v2.57c-.64-.07-1.69-.12-2.86-.12h-12.97c-1.14,0-2.21.05-2.86.12v-2.57c.33.07.71.1,1.12.1h.26v-1.09c0-.55-.02-.9-.07-1.33.93.05,1.19.05,1.81.05h12.62c.55,0,1.07-.02,1.79-.05-.05.4-.07.76-.07,1.33v1.09h.26ZM96.72,151.9c0,.55.02.98.07,1.45-1.14-.05-1.31-.05-1.69-.05h-10.83q-.43,0-1.69.05c.05-.55.07-.88.07-1.48v-1.81c0-.55-.02-.95-.07-1.36.9.05,1.19.05,1.79.05h10.64c.55,0,1.07-.02,1.79-.05-.05.43-.07.76-.07,1.33v1.86ZM84.99,156.26h1.55v-.69h-1.55v.69ZM86.01,150.47h2.24v-.55h-2.24v.55ZM86.01,152.12h2.24v-.55h-2.24v.55ZM88.87,156.26h1.64v-.69h-1.64v.69ZM91.11,150.47h2.36v-.55h-2.36v.55ZM91.11,152.12h2.36v-.55h-2.36v.55ZM92.84,156.26h1.64v-.69h-1.64v.69Z"/>
      <path class="cls-1" d="M108.32,148.31c-1.38-1.55-2-2.12-3.57-3.24l2.17-2.67c1.59,1.14,2.36,1.74,3.31,2.69.07-.71.1-1.21.1-1.93v-.67l2.24.52c-.02,3.24-.21,4.57-1.02,7.24l-2.31-1.21c.52-1.43.71-2.05.9-3.14l-1.81,2.4ZM110.32,151.02c-.71,3.43-1.29,5.09-2.59,7.76l-2.9-2.45c1.02-1.52,1.83-3.81,2.59-7.31l2.9,2ZM107.51,136.45c1.95,1.26,2.81,1.93,3.9,3.05l-2.48,2.88c-1.31-1.5-2.14-2.24-3.83-3.38l2.4-2.55ZM117.2,142.55c.4,1,.45,1.12.9,2.4v-6.07q-.05-1.02-.1-1.36h3.43c-.07.74-.1,1.14-.1,2.59v3.12l.88-.62c.5,1,.55,1.14,1.05,2.4v-5.45c0-1.29-.05-2.19-.12-2.86h3.71c-.1.79-.14,1.55-.14,2.81v16.12c0,1.38.05,2.29.14,3.09h-3.71c.07-.67.12-1.74.12-3.07v-6.78l-1.07.83c-.36-1.4-.55-2.09-.86-3.02v7.93c0,1.12.05,2.07.12,2.93h-3.5c.1-.93.14-1.81.14-2.93v-5.55l-1.14.9c-.26-1.17-.33-1.45-.64-2.64-.14,2.86-.4,4.76-.93,6.45-.62,2.05-1.4,3.38-3.02,5.14-.9-1.24-1.43-1.79-2.69-2.81,1.24-1.33,1.88-2.33,2.33-3.76.67-2.07.95-4.86.95-9.4v-3.31c0-1.21-.05-2.07-.14-2.95h3.67c-.1.67-.12,1.38-.12,2.86v3.48l.83-.48Z"/>
      <path class="cls-1" d="M165.04,142.31c.38.71.57,1,.98,1.55.93,1.19,1.59,1.88,2.88,2.88-.83,1.05-1.24,1.69-1.95,3.17-.6-.5-.86-.74-1.21-1.05-.62,1.43-1.21,2.48-2.07,3.69,1.52,1.24,3,1.98,5.33,2.67-.76,1.19-1.21,2.14-1.76,3.74-2.64-1.09-4.19-2.07-5.9-3.69-1.62,1.62-3.21,2.64-5.74,3.74-.64-1.4-1.07-2.14-2.05-3.31,2.62-.88,3.88-1.57,5.52-3.07-.88-1.29-1.33-2.12-1.98-3.59-.36.38-.5.55-.98,1-.45-.81-.76-1.29-1.33-1.95-.4.9-.6,1.45-.93,2.62-.5-.67-.76-1.12-1.19-2.07.05,1.33.07,2.02.07,2.5v4.78c0,1.24.02,2.21.14,3.07h-3.78c.1-.74.17-1.86.17-3.07v-3.12c0-.86.02-1.64.05-2.33-.6,1.81-1.05,2.74-1.86,3.83-.45-1.64-.79-2.57-1.48-4,1.4-1.67,2.4-3.86,3-6.47h-.48c-.79,0-1.21.02-1.9.12v-3.52c.57.1,1.12.12,1.9.12h.74v-1.55c0-1.09-.05-1.76-.14-2.48h3.76c-.1.64-.12,1.43-.12,2.48v1.55h.6c.55,0,.83-.02,1.31-.1v3.48c-.45-.07-.79-.1-1.24-.1h-.64c.36,1.02.86,1.83,1.71,2.83,1.33-1.17,2.19-2.43,3.02-4.33-1.12.02-1.71.05-2.45.14v-3.67c.74.1,1.57.14,2.81.14h1.71v-.69c0-.74-.02-1.12-.12-1.67h3.88c-.07.48-.1.88-.1,1.59v.76h2.38c1.24,0,2.05-.05,2.83-.14v3.67c-.88-.1-1.69-.14-2.86-.14h-.55ZM159.88,147.07c.5,1.31.76,1.83,1.45,2.88.64-1.02.9-1.62,1.36-2.98l2.31,1.14c-1.24-1.36-2-2.52-3.02-4.64l2-1.17h-5.47l2.31,1.19c-1.09,2.14-1.79,3.24-2.88,4.57l1.95-1Z"/>
      <path class="cls-1" d="M193.13,158.9v-.79h-14.12v.79h-3.67c.1-.83.14-2.12.14-3.31v-15.92c0-1-.05-1.86-.12-2.79.79.1,1.57.12,2.79.12h15.83c1.21,0,1.98-.02,2.79-.12-.1.88-.12,1.43-.12,2.79v15.92c0,1.45.05,2.64.14,3.31h-3.67ZM193.11,139.95h-14.09v12.28c1.59-.45,2.83-1.02,3.9-1.79h-1.21q-.81,0-1.55.05c.05-.38.05-.62.05-1.24v-1.67c0-.62,0-.86-.05-1.26.43.05.57.05,1.55.05h8.74c.98,0,1.09,0,1.55-.05-.05.4-.05.43-.05,1.26v1.64c0,.83,0,.88.05,1.26h-.02l.95.52q-.12.12-.36.38c-.26.29-.64.64-.93.9.57.21.86.29,1.48.45v-12.81ZM191.13,155.21c-1.52-.69-3.02-1.69-4.05-2.69v1.21c0,.45.02.74.07,1.05h-3.33c.05-.26.07-.64.07-1.07v-1c-1.17.9-1.93,1.38-3.43,2.12-.4-.74-.74-1.24-1.45-2.09v2.48h12.12ZM181.89,143.12c-.93,0-1.29,0-2,.05v-2.14c.6.07.93.1,2.02.1h2.38c-.02-.33-.05-.48-.1-.76h3.48c-.02.24-.05.31-.07.76h2.79c.88,0,1.33-.02,1.88-.1v2.14c-.55-.02-1.02-.05-1.86-.05h-2.81v.69h3.28c.83,0,1.26-.02,1.74-.1v2.17c-.52-.07-1.05-.1-1.64-.1h-9.78c-.69,0-1.02.02-1.74.1v-2.17c.5.07.98.1,1.83.1h3v-.69h-2.4ZM183.61,148.57h4.93v-.71h-4.93v.71ZM188.2,150.45c.45.36.69.52,1.24.83.26-.21.38-.33.83-.83h-2.07ZM193.11,155.21v-2.31c-.67.67-1.05,1.17-1.74,2.31h1.74Z"/>
      <path class="cls-1" d="M209.22,139.07c-.45-.81-.74-1.26-1.19-1.83l3.71-.95c.81,1.19,1,1.55,1.57,2.79h3c.69-1,1.09-1.74,1.62-2.86l3.86,1c-.55.86-.79,1.21-1.29,1.86h2.5c1.07,0,1.95-.05,2.69-.14v3.55c-.76-.1-1.36-.12-2.69-.12h-6.09c-.21.5-.31.67-.5,1.02h4.55c1.09,0,1.64-.02,2.55-.07-.1.93-.12,1.55-.12,2.64v9.57c0,1.48.05,2.4.14,3.33h-3.78v-1.02h-9.88v1.02h-3.78c.1-.88.14-1.9.14-3.33v-9.57c0-1.09-.02-1.83-.12-2.64.93.05,1.55.07,2.64.07h3.67c.21-.43.31-.6.48-1.02h-6.28c-1.26,0-1.93.02-2.69.12v-3.55c.81.1,1.74.14,2.69.14h2.62ZM209.86,146.43v.98h9.88v-.98h-9.88ZM209.86,150.12v.98h9.88v-.98h-9.88ZM209.86,153.81v1h9.88v-1h-9.88Z"/>
      <path class="cls-1" d="M239.55,143.95h-.19c-.31-.05-.52-.05-.86-.05h-.55v2.71c.43-.1.71-.17,1.4-.38l-.02,3.19c-.67.24-.9.33-1.38.45v5.95c0,2.33-.81,3-3.64,3-.38,0-.76-.02-1.5-.07-.17-1.45-.33-2.14-.79-3.4.83.1,1.33.14,1.79.14.5,0,.62-.14.62-.76v-3.88c-1.14.29-1.55.4-1.93.52l-.57-3.67q.67-.02,2.5-.38v-3.43h-.57c-.6,0-1.07.02-1.67.1v-3.52c.57.1,1,.12,1.71.12h.52v-1.59c0-1.26-.02-1.74-.12-2.48h3.76c-.1.71-.12,1.21-.12,2.48v1.59h.55c.38,0,.69-.02,1-.05v-1.12c.4.05.79.07,1.38.07h1.64l.02-.45v-.21c0-.74-.07-1.64-.14-2.31h3.64c-.07.67-.1,1.5-.1,2.29v1.57c0,6.78-.26,10.55-.88,12.76-.45,1.55-1.12,2.9-2.02,4.07-.52.62-.93,1.05-1.88,1.9-1-1.19-1.69-1.83-3.05-2.86,1.88-1.17,2.81-2.14,3.48-3.74-.48.19-1.36.5-2.62.95l-.48-3.55c1.43-.14,2.55-.31,3.74-.6.07-.6.1-.83.12-1.64h-1.38c-.5,0-.83.02-1.31.07v-3.28c.43.05.74.07,1.26.07h1.5l.05-1.74h-1.59c-.52,0-.95.02-1.33.07v1.07ZM250.24,155.57c0,1.38.05,2.38.14,3.31h-3.71c.1-.95.14-1.74.14-3.31v-16.23c0-1.17-.05-2.02-.1-2.81h3.64c-.1.74-.12,1.43-.12,2.52v.45h2.57c.64,0,1-.02,1.45-.1v3.5c-.5-.05-.93-.07-1.38-.07h-2.64v2.14h2.4c.67,0,.86-.02,1.33-.1v3.45c-.43-.05-.81-.07-1.29-.07h-2.45v2.31h2.64c.71,0,1.12-.02,1.59-.1v3.57c-.57-.07-1.05-.1-1.55-.1h-2.69v1.62Z"/>
    </g>
  </g>
</svg>