<?xml version="1.0" encoding="UTF-8"?>
<svg id="_圖層_2" data-name="圖層_2" xmlns="http://www.w3.org/2000/svg" viewBox="0 0 204.35 135.02">
  <defs>
    <style>
      .cls-1 {
        fill: #c30d23;
      }

      .cls-2 {
        fill: #3e3a39;
      }
    </style>
  </defs>
  <g id="_圖層_1-2" data-name="圖層_1">
    <g>
      <path class="cls-1" d="M.54,47.72c.43-1.28.58-2.3.62-3.95l1.08.23c-.14,2.1-.27,2.94-.67,4.22l-1.04-.5ZM2.55,54.83c.08-.52.11-1.14.11-1.86v-10.59c0-.64-.03-1.05-.11-1.58h1.52c-.06.53-.09.94-.09,1.58v10.76c0,.69.03,1.16.09,1.69h-1.52ZM4.9,46.53c-.23-1.01-.44-1.65-.87-2.57l.88-.41c.46.98.73,1.71.96,2.5l-.98.49ZM10.08,48.71c.93,2.12,2.56,3.7,4.75,4.62-.38.55-.53.82-.79,1.43-2.24-1.16-3.93-2.93-4.81-5.07-.43,1.43-1.01,2.47-1.89,3.41-.64.69-1.36,1.23-2.19,1.72-.26-.52-.46-.79-.9-1.22,2.1-1.11,3.35-2.68,3.84-4.89h-1.51c-.67,0-1.29.03-1.72.09v-1.48c.4.05.96.08,1.71.08h1.72c.09-.79.12-1.71.14-2.99h-1.11c-.67,0-1.19.03-1.57.08v-1.46c.43.05.96.08,1.6.08h1.08v-.87c0-.55-.03-.99-.09-1.4h1.54c-.06.44-.09.82-.09,1.39v.88h2.33c.56,0,.99-.02,1.31-.06-.05.34-.06.76-.06,1.33v3.03h.11c.47,0,.93-.03,1.33-.09v1.49c-.49-.06-1.02-.09-1.61-.09h-3.09ZM12,44.41h-2.22c-.02,1.13-.05,1.97-.12,2.99h2.35v-2.99Z"/>
      <path class="cls-1" d="M30.54,49.33c.9,0,1.36-.03,1.78-.09v1.37c-.46-.06-.94-.09-1.78-.09h-3.32c1.45,1.28,3.35,2.18,5.59,2.7-.41.52-.49.64-.82,1.31-1.23-.37-2.21-.79-3.25-1.42-1.05-.62-1.72-1.16-2.47-2.01.03.76.05,1.02.05,1.31v.81c0,.72.03,1.05.11,1.54h-1.57c.08-.44.11-.87.11-1.54v-.79c0-.34.02-.84.05-1.33-.75.84-1.31,1.31-2.33,1.93-1.04.62-1.95,1.05-3.17,1.46-.32-.64-.46-.85-.88-1.25,1.28-.34,2.19-.67,3.09-1.13.87-.46,1.75-1.07,2.3-1.6h-3.18c-.82,0-1.31.03-1.77.09v-1.39c.47.08.98.11,1.78.11h4.11c0-.47-.02-.79-.05-1.04h1.45c-.03.29-.05.52-.05,1.04h4.22ZM22.21,41.38c-.5,1.01-.93,1.75-1.49,2.54.23.29.3.4.49.66.56-.87.76-1.23.99-1.77.06-.12.06-.14.11-.23l1.14.56q-.08.11-.23.35c-.84,1.39-1.45,2.25-2.36,3.32.47-.03.7-.05,1.37-.15-.14-.37-.2-.5-.4-.93l.91-.29c.43.87.62,1.37.84,2.18.02-.34.02-.52.02-.81v-3.35c0-.66,0-.84-.05-1.2.34.03.62.05,1.19.05h.14c.21-.53.34-.93.46-1.57l1.39.2c-.17.46-.29.76-.56,1.37h.49c.52,0,.79-.02,1.14-.05-.03.34-.05.43-.05,1.11l.62-.75.35.35c.46-.67.82-1.43,1.04-2.1l1.19.5q-.06.12-.15.27s-.03.08-.06.14c-.44.84-.78,1.39-1.28,2.04.24.29.29.37.52.66.55-.81.79-1.23,1.11-1.92l1.14.61q-.12.17-.29.43c-.88,1.33-1.68,2.39-2.39,3.23.9-.08,1.08-.09,1.57-.15-.18-.44-.26-.59-.52-1.08l.98-.34c.61,1.17.76,1.51,1.17,2.79l-1.1.4c-.09-.37-.12-.5-.2-.75-.62.12-1.78.27-2.68.37-.32.05-.38.05-.55.11l-.41-1.28c.11.02.18.02.21.02h.11c.61-.7.67-.78,1.19-1.49-.5-.66-1.07-1.29-1.57-1.78v3.17c0,.64.02.94.05,1.25-.34-.03-.67-.05-1.1-.05h-1.98c-.38,0-.72.02-1.02.03l.05.18-1.04.32c-.08-.41-.11-.55-.17-.84-.55.11-1.65.27-2.3.35-.85.09-.91.11-1.25.18l-.26-1.34c.21.02.41.03.52.03h.21c.53-.66.76-.93,1.1-1.42-.56-.78-1.05-1.34-1.78-2.03l.76-.91c.23.24.32.32.47.49.44-.69.82-1.51,1.02-2.18l1.19.5ZM24.74,44.62h1.84v-1.25h-1.84v1.25ZM24.74,46.94h1.84v-1.28h-1.84v1.28Z"/>
      <path class="cls-1" d="M39.44,43.1c-.85,0-1.39.03-1.92.09v-1.54c.47.08,1.01.11,1.89.11h8.58c.88,0,1.4-.03,1.92-.11v1.54c-.53-.06-1.08-.09-1.92-.09h-3.63v3.66h2.89c.75,0,1.25-.03,1.75-.09v1.51c-.49-.06-1.02-.08-1.75-.08h-2.89v4.37h4.22c.88,0,1.4-.03,1.87-.09v1.55c-.52-.08-1.1-.11-1.86-.11h-9.7c-.76,0-1.34.03-1.93.11v-1.55c.52.06,1.01.09,1.93.09h3.96v-4.37h-2.67c-.73,0-1.25.02-1.78.08v-1.51c.43.06.93.09,1.77.09h2.68v-3.66h-3.41Z"/>
      <path class="cls-1" d="M55.14,54.75c.06-.46.09-.94.09-1.92v-9.7c0-.75-.03-1.28-.09-1.86.61.06,1.07.08,1.86.08h9.4c.78,0,1.23-.02,1.81-.08-.06.55-.09,1.1-.09,1.86v9.74c0,.9.03,1.48.09,1.89h-1.43v-.7h-10.21v.7h-1.43ZM56.58,52.93h10.21v-10.41h-10.21v10.41ZM62.09,50.7c-1.39.29-2.47.49-4.02.72-.44.06-.52.08-.79.15l-.21-1.28h.29c1.01,0,3.02-.26,4.74-.62v1.04ZM65.9,46.27q-.11.21-.38.94c-.32.87-.69,1.61-1.19,2.44.34.79.73,1.34.94,1.34.15,0,.26-.41.37-1.37.38.43.58.59.93.78-.17.84-.29,1.17-.56,1.58-.18.26-.41.4-.7.4-.61,0-1.19-.53-1.74-1.63-.62.76-1.19,1.29-2,1.87-.3-.41-.5-.64-.85-.93,1.1-.66,1.71-1.17,2.36-2.07-.4-1.22-.64-2.61-.78-4.48h-3.66c-.66,0-1.01.02-1.43.08v-1.26c.38.05.84.08,1.42.08h3.63c-.03-.61-.06-.9-.09-1.16h1.31c-.05.3-.06.56-.06,1.16h1.6c-.38-.35-.82-.67-1.2-.88l.7-.61c.55.3.82.49,1.31.9l-.58.59c.4-.02.7-.03,1.02-.08v1.26c-.4-.06-.78-.08-1.45-.08h-1.37c.08,1.28.21,2.22.44,3.2.44-.85.75-1.78.82-2.48l1.19.41ZM57.81,47c0-.43-.02-.81-.06-1.11.44.05.64.05,1.1.05h1.86c.49,0,.73-.02,1.1-.05-.03.29-.05.59-.05,1.08v1.23c0,.55.02.81.05,1.11-.35-.02-.62-.03-1.02-.03h-1.93c-.49,0-.76.02-1.1.05.05-.34.06-.67.06-1.16v-1.17ZM58.94,48.29h1.74v-1.37h-1.74v1.37Z"/>
      <path class="cls-1" d="M74.51,50.53c.2.7.38.99.81,1.31.52.38,1.14.58,1.9.58,1.6,0,2.64-.82,2.64-2.12,0-1.37-.99-2.12-2.8-2.12-.58,0-.99.02-1.48.08v-1.61c.37.06.84.09,1.22.09.78,0,1.48-.15,1.86-.41.56-.37.85-.93.85-1.61,0-1.17-.81-1.8-2.3-1.8-.84,0-1.45.26-1.84.76-.21.27-.3.49-.44.99l-1.81-.34c.26-.85.5-1.28.99-1.75.75-.73,1.84-1.11,3.21-1.11,2.41,0,3.96,1.23,3.96,3.14,0,.93-.4,1.75-1.07,2.24-.37.27-.69.4-1.45.58,1.05.14,1.63.4,2.16.98.5.55.73,1.2.73,2.1,0,.82-.34,1.65-.9,2.19-.79.78-2.01,1.19-3.53,1.19-1.68,0-2.88-.44-3.7-1.36-.37-.41-.55-.79-.82-1.61l1.81-.38Z"/>
      <path class="cls-1" d="M97.19,41.68c-.32.78-.66,2.24-.84,3.72-.17,1.22-.27,2.83-.29,4.16v1.37h.03c.14-.67.23-.96.82-2.35l1.05.47c-.78,1.63-1.31,3.44-1.31,4.43,0,.06,0,.18.02.34l-1.57.11c-.02-.26-.03-.35-.08-.67-.29-1.77-.4-2.89-.4-4.49,0-2.03.18-3.67.66-5.94.15-.79.18-.96.21-1.36l1.69.21ZM101.2,47.97c-.76.88-1.1,1.55-1.1,2.22,0,.94.9,1.45,2.62,1.45,1.36,0,2.67-.2,3.58-.56l.14,1.63c-.2.03-.24.03-.58.09-1.16.2-2.12.29-3.14.29-1.83,0-3.02-.41-3.66-1.25-.3-.38-.47-.94-.47-1.49,0-.91.44-1.87,1.37-2.99l1.23.61ZM98.91,43.15c.81.18,1.43.24,2.59.24,1.87,0,3.4-.15,4.27-.43l.08,1.55c-.11,0-.2.02-1.07.12-.94.12-2.12.2-3.23.2-.87,0-1.55-.03-2.22-.12-.21-.02-.26-.03-.43-.05l.02-1.52Z"/>
      <path class="cls-1" d="M111.88,54.07q0-.27-.14-1.23c-.18-1.16-.27-2.61-.27-3.92,0-2.04.2-3.75.75-6.67.11-.56.12-.66.14-.91l1.68.18c-.18.44-.38,1.22-.61,2.27-.34,1.68-.56,3.81-.56,5.36v.2c.02.2.02.34.02.38s0,.18-.02.35v1.08h.03c.17-.81.2-.87.91-2.59l1.05.5c-.84,1.68-1.43,3.63-1.43,4.66,0,.03,0,.12.02.26l-1.55.08ZM123.46,53.05c-.44-.5-.98-.88-2.07-1.54-.12-.06-.17-.09-.26-.15q.02.17.02.5c0,.41-.2.94-.44,1.23-.49.53-1.42.85-2.51.85-1.86,0-3.03-.88-3.03-2.3s1.26-2.33,3.06-2.33c.58,0,1.19.09,1.49.23-.05-.24-.05-.52-.11-2.47-.75.03-1.33.05-1.6.05-.47,0-1.25-.03-2.19-.08-.11-.02-.2-.02-.32-.02h-.2l.03-1.4c.58.14,1.48.21,2.65.21.37,0,.87-.02,1.6-.05-.02-.69-.02-.82-.02-1.1,0-.34,0-.55.02-1.01-.59.03-.94.03-1.45.03-.73,0-1.16-.02-2.29-.08h-.47l.06-1.39c.59.12,1.45.18,2.68.18,1.98,0,4.05-.21,5.27-.55l.03,1.39q-.23.03-.93.14c-.58.09-1.02.15-1.48.18-.02.38-.03.67-.03,1.17,0,.14,0,.26.02.94,1.02-.11,1.98-.29,2.54-.49l.05,1.4c-.18.02-.23.02-.49.08-.61.11-1.57.23-2.1.27.03,1.19.03,1.42.12,2.88,1.02.44,1.74.84,2.51,1.42.23.17.27.18.41.27l-.58,1.49ZM118.29,50.63c-1.01,0-1.68.41-1.68,1.04,0,.58.64.98,1.57.98,1.01,0,1.54-.41,1.54-1.22,0-.12-.02-.56-.02-.56-.59-.18-.91-.23-1.42-.23Z"/>
      <path class="cls-1" d="M134.23,41.71c-.21.38-.27.53-.75,1.74-.98,2.54-1.61,4.07-2.06,5l.05.03q.09-.12.3-.38c.58-.72,1.39-1.16,2.16-1.16.7,0,1.34.34,1.65.87.27.47.34.98.34,2.76.02.99.08,1.34.3,1.58.2.2.5.3.91.3.96,0,1.66-.56,2.15-1.74.29-.67.5-1.54.58-2.32.43.43.58.55,1.4.99-.27,1.25-.62,2.16-1.16,2.94-.7,1.05-1.84,1.65-3.14,1.65-1.17,0-2-.47-2.33-1.36-.17-.43-.21-.88-.21-2,0-1.04-.02-1.37-.11-1.63-.12-.38-.35-.55-.72-.55-.87,0-1.81.79-2.59,2.19-.47.84-1.14,2.61-1.33,3.47l-1.65-.53q.23-.46,2.39-6.37c1.61-4.4,1.93-5.32,2.06-5.96l1.74.46Z"/>
      <path class="cls-1" d="M148.49,41.7c-.53,1.6-.93,4.51-.93,6.7,0,.2.03,1.11.11,2.71.26-.9.56-1.68,1.1-2.79l1.13.55c-.99,1.89-1.65,3.78-1.68,4.78l-1.46.08c-.03-.2-.05-.26-.11-.55-.38-1.6-.56-3.11-.56-4.8s.14-3.08.58-5.79c.09-.53.11-.67.12-1.1l1.71.2ZM149.75,44.64c.64.14,1.42.2,2.67.2.62,0,.99-.02,1.74-.08-.11-2.76-.11-2.93-.2-3.43l1.63-.03c-.03.23-.03.34-.03.5,0,.14,0,.21.03,1.05.02.18.03.76.06,1.77,1.08-.17,1.78-.35,2.35-.61l.08,1.51c-.24.05-.3.05-.82.17-.7.17-.87.2-1.57.27.02.35.02.52.02.7,0,1.51-.09,2.83-.26,3.49-.46,2-1.33,3.09-3.4,4.28-.43-.56-.62-.76-1.22-1.19,1.39-.64,2.3-1.43,2.82-2.44.43-.87.56-1.75.56-3.9,0-.18,0-.32-.02-.81-.5.05-1.46.08-2.19.08-.47,0-.9-.02-1.75-.05-.11-.02-.2-.02-.27-.02h-.23l.02-1.48Z"/>
      <path class="cls-1" d="M167.65,41.71c-.21.38-.27.53-.75,1.74-.98,2.54-1.61,4.07-2.06,5l.05.03q.09-.12.3-.38c.58-.72,1.39-1.16,2.16-1.16.7,0,1.34.34,1.65.87.27.47.34.98.34,2.76.02.99.08,1.34.3,1.58.2.2.5.3.91.3.96,0,1.66-.56,2.15-1.74.29-.67.5-1.54.58-2.32.43.43.58.55,1.4.99-.27,1.25-.62,2.16-1.16,2.94-.7,1.05-1.84,1.65-3.14,1.65-1.17,0-2-.47-2.33-1.36-.17-.43-.21-.88-.21-2,0-1.04-.02-1.37-.11-1.63-.12-.38-.35-.55-.72-.55-.87,0-1.81.79-2.59,2.19-.47.84-1.14,2.61-1.33,3.47l-1.65-.53q.23-.46,2.39-6.37c1.61-4.4,1.93-5.32,2.06-5.96l1.74.46Z"/>
      <path class="cls-1" d="M178.86,43.4c.72.17,1.68.24,3.29.26.29-1.19.43-1.95.44-2.61l1.72.15q-.08.24-.24.91c-.17.73-.23,1.01-.37,1.51,2.82-.09,4.91-.32,5.88-.64l.08,1.54q-.37.03-1.72.18c-1.16.14-3.06.26-4.59.3-.37,1.23-1.04,2.94-1.39,3.5,1.01-.75,2.5-1.16,4.25-1.16,1.19,0,2.24.3,3,.87.64.49,1.01,1.25,1.01,2.12,0,2.16-2.12,3.6-5.32,3.6-1.36,0-2.68-.2-3.85-.56,0-.75,0-.87-.12-1.61,1.29.5,2.56.75,3.88.75,2.29,0,3.78-.85,3.78-2.16,0-1.04-.99-1.63-2.71-1.63-1.13,0-2.39.29-3.38.78-.58.29-.88.53-1.17.91l-1.54-.55c.27-.43.5-.88.76-1.48.52-1.2,1.02-2.56,1.26-3.38-.79,0-1.6-.05-2.41-.11-.2-.02-.35-.02-.46-.02-.02,0-.06,0-.12.02l.03-1.49Z"/>
      <path class="cls-1" d="M203.8,42.19c-.24.18-.49.4-1.89,1.71-.78.73-1.77,1.54-3.58,2.91-.49.38-.61.52-.61.7,0,.24.05.29,1.36,1.29,2.39,1.81,2.71,2.09,4.84,4.04.18.18.26.24.43.4l-1.31,1.33c-.38-.55-.96-1.16-1.98-2.1-1.04-.96-1.65-1.46-3.9-3.21-.94-.73-1.2-1.11-1.2-1.74,0-.43.17-.81.47-1.14.18-.2.2-.21,1.33-1.07,2.24-1.72,3.99-3.34,4.57-4.22l1.48,1.11Z"/>
    </g>
    <g>
      <path class="cls-1" d="M12.58,71.59c-.43-2.05-1.62-3.06-3.55-3.06-2.74,0-4.34,2.16-4.34,5.87s1.66,5.89,4.45,5.89c1.24,0,2.29-.52,2.95-1.42.38-.54.54-.99.67-1.93l4.68.7c-.43,1.91-.92,3.01-1.87,4.12-1.39,1.6-3.58,2.45-6.3,2.45s-5.06-.85-6.66-2.47c-1.66-1.69-2.61-4.32-2.61-7.33s.94-5.65,2.72-7.4c1.55-1.51,3.82-2.34,6.46-2.34,2.9,0,5.17.99,6.64,2.95.72.92,1.1,1.75,1.39,3.08l-4.63.9Z"/>
      <path class="cls-1" d="M38.51,74.33c0,5.94-3.62,9.88-9.09,9.88s-9.07-3.85-9.07-9.81,3.55-9.74,9.09-9.74,9.07,3.78,9.07,9.67ZM33.83,74.38c0-3.64-1.66-5.85-4.39-5.85s-4.43,2.23-4.43,5.85,1.69,5.94,4.43,5.94,4.39-2.25,4.39-5.94Z"/>
      <path class="cls-1" d="M50.3,83.78c-.11-.79-.36-1.62-.97-3.33l-2.07-5.98c-.02-.11-.7-2.2-.76-2.38q-.25-.81-.36-1.12c.14,1.42.22,3.26.22,4.45v4.88c0,1.55.04,2.54.18,3.49h-4.43c.13-1.01.18-1.96.18-3.49v-11.72c0-1.35-.07-2.54-.18-3.51h5.94c.16.97.34,1.69.85,3.17l3.37,9.7,3.35-9.7c.52-1.51.7-2.23.83-3.17h5.96c-.14,1.08-.18,2-.18,3.51v11.72c0,1.71.04,2.59.18,3.49h-4.43c.13-1.03.18-1.89.18-3.49v-4.9c0-.54.07-2.23.11-2.92q.07-1.19.09-1.53c-.49,1.75-.72,2.56-1.01,3.37l-2.18,6.16c-.56,1.6-.85,2.59-.97,3.31h-3.91Z"/>
      <path class="cls-1" d="M71.54,65.07c-.13.92-.18,1.69-.18,3.33v12.06c0,1.55.05,2.38.18,3.33h-4.95c.13-.88.18-1.82.18-3.33v-12.06c0-1.69-.04-2.34-.18-3.33h4.95Z"/>
      <path class="cls-1" d="M86.43,74.27c.65.97,1.08,1.69,1.62,2.68-.09-1.03-.14-2.07-.14-3.33v-5.13c0-1.48-.04-2.38-.18-3.42h4.79c-.14,1.01-.18,1.96-.18,3.42v11.95c0,1.37.07,2.41.18,3.35h-4.93c-.4-.85-.92-1.69-1.69-2.86l-4.16-6.28c-.61-.9-.99-1.57-1.62-2.77.11,1.01.16,2.25.16,3.35v5.04c0,1.55.05,2.54.18,3.51h-4.79c.13-.88.18-1.87.18-3.53v-11.83c0-1.3-.04-2.32-.18-3.35h4.88c.22.61.72,1.51,1.6,2.81l4.27,6.39Z"/>
      <path class="cls-1" d="M107.6,76.94c-1.15,0-1.53.02-2.23.11v-3.98c.83.11,1.37.13,2.95.13h1.8c1.15,0,1.98-.02,2.97-.11-.11.85-.16,1.6-.16,3.06v2.52c0,1.6.02,2.32.16,3.35-1.24.79-1.84,1.08-2.86,1.42-1.46.49-3.1.76-4.77.76-2.86,0-5.08-.79-6.68-2.41-1.71-1.71-2.65-4.39-2.65-7.47,0-5.92,3.58-9.67,9.25-9.67,2.81,0,4.95.88,6.43,2.68.61.7.97,1.37,1.33,2.45l-4.59,1.06c-.25-.81-.52-1.24-1.01-1.62-.59-.47-1.33-.7-2.27-.7-2.88,0-4.45,2.09-4.45,5.87,0,2.09.47,3.71,1.37,4.7.72.79,1.82,1.21,3.24,1.21,1.19,0,2.16-.25,3.26-.81v-2.56h-1.08Z"/>
      <path class="cls-1" d="M129.91,77.69c.09.81.25,1.21.58,1.66.54.67,1.48,1.06,2.63,1.06,1.73,0,2.77-.76,2.77-2.02,0-.7-.36-1.3-.94-1.57-.47-.22-1.03-.38-3.37-.92-2.07-.45-2.79-.72-3.62-1.3-1.42-.99-2.18-2.5-2.18-4.32,0-3.46,2.79-5.65,7.22-5.65,2.86,0,5.04.88,6.25,2.56.56.74.83,1.42,1.12,2.7l-4.77.52c-.27-1.46-1.08-2.07-2.79-2.07-1.37,0-2.38.74-2.38,1.78,0,.63.34,1.1,1.06,1.44q.45.2,3.1.74c1.71.36,2.79.74,3.64,1.28,1.62,1.01,2.43,2.52,2.43,4.59,0,1.69-.54,3.13-1.57,4.14-1.3,1.26-3.28,1.91-5.92,1.91-1.91,0-3.8-.4-5.02-1.1-1.12-.63-1.96-1.6-2.43-2.88-.22-.54-.34-1.06-.49-2.09l4.68-.45Z"/>
      <path class="cls-1" d="M161.92,74.33c0,5.94-3.62,9.88-9.09,9.88s-9.07-3.85-9.07-9.81,3.55-9.74,9.09-9.74,9.07,3.78,9.07,9.67ZM157.24,74.38c0-3.64-1.66-5.85-4.39-5.85s-4.43,2.23-4.43,5.85,1.69,5.94,4.43,5.94,4.39-2.25,4.39-5.94Z"/>
      <path class="cls-1" d="M183.11,74.33c0,5.94-3.62,9.88-9.09,9.88s-9.07-3.85-9.07-9.81,3.55-9.74,9.09-9.74,9.07,3.78,9.07,9.67ZM178.43,74.38c0-3.64-1.66-5.85-4.39-5.85s-4.43,2.23-4.43,5.85,1.69,5.94,4.43,5.94,4.39-2.25,4.39-5.94Z"/>
      <path class="cls-1" d="M197.46,74.27c.65.97,1.08,1.69,1.62,2.68-.09-1.03-.14-2.07-.14-3.33v-5.13c0-1.48-.04-2.38-.18-3.42h4.79c-.14,1.01-.18,1.96-.18,3.42v11.95c0,1.37.07,2.41.18,3.35h-4.93c-.4-.85-.92-1.69-1.69-2.86l-4.16-6.28c-.61-.9-.99-1.57-1.62-2.77.11,1.01.16,2.25.16,3.35v5.04c0,1.55.05,2.54.18,3.51h-4.79c.13-.88.18-1.87.18-3.53v-11.83c0-1.3-.04-2.32-.18-3.35h4.88c.22.61.72,1.51,1.6,2.81l4.27,6.39Z"/>
    </g>
    <g>
      <path class="cls-1" d="M29.64,105.61c.91.96,1.96,2.55,2.41,3.69l-1.39.63c-.14-.49-.34-1.1-.56-1.72-1.26.74-3.22,1.56-4.27,1.87l-.55-1.51c.34-.05.7-.11,1.07-.18v-9.56h5.1v6.02h-3.7v3.27c.71-.16,1.43-.34,2.1-.55-.23-.62-.49-1.21-.7-1.66l.48-.3ZM27.76,101.48h2.32v-1.96h-2.32v1.96ZM27.76,104.16h2.32v-2.02h-2.32v2.02ZM37.05,98.89v8.62c0,1.45-1.74,1.45-3.14.56l.12-.55c1.34.23,1.66.14,1.66-.49v-7.44h-2v11.39h-1.39v-12.09h4.75Z"/>
      <path class="cls-2" d="M54.86,98.3h.64v13.78h-.64v-13.78Z"/>
      <path class="cls-1" d="M77.28,104.9v6.08h-1.32v-5.3h-.99c-.05,2.33-.52,4.02-1.91,5.28l-.43-.37c.77-1.17,1.07-2.74,1.11-4.91h-.97v-.69h3.18v-2.13h-1.23v.74h-1.26v-5.2h1.26v3.76h1.23v-4.01h1.32v6.16c2.66-.81,4.9-2.55,5.68-4.45h-2.47l-.21.22c.52.27,1.04.66,1.55,1.13l-.84.8c-.36-.54-.77-1-1.19-1.44-.23.21-.47.4-.7.59.48.36.92.78,1.33,1.33l-.88.66c-.3-.63-.6-1.13-.93-1.63-.34.25-.69.45-.99.62l-.3-.47c1.07-.8,2.22-2.29,2.98-3.75l1.22.54c-.14.25-.3.48-.48.71h1.87l.48-.21,1.22.66c-1.19,2.85-4.14,4.71-7.34,5.27ZM84.94,104.99v.7h-1.34v3.87c0,1.28-1.29,2.1-4.02.55l.15-.56c2.26.44,2.5.32,2.5-.56v-3.29h-4.68v-.7h4.68v-1.85h1.37v1.85h1.34ZM80.03,108.77c-.47-.77-1.22-1.87-1.73-2.51l.37-.4c.81.47,1.84,1.39,2.42,2.04l-1.06.86Z"/>
      <path class="cls-2" d="M102.2,98.3h.64v13.78h-.64v-13.78Z"/>
      <path class="cls-1" d="M120.25,106l-.34-.47c1.67-1.63,2.87-3.72,3.55-6.56l1.63.62c-.91,2.48-2.68,5.01-4.84,6.41ZM131.5,109.89l-1.59.88c-.23-.62-.54-1.3-.88-2-2.21.75-5.28,1.32-7.57,1.54l-.41-1.74c.55,0,1.15,0,1.76-.01.93-1.55,1.81-3.81,2.29-5.72l1.73.67c-.77,1.77-2,3.69-3.09,5.01,1.76-.07,3.57-.22,4.97-.4-.36-.7-.75-1.41-1.17-2.07l.48-.4c1.43,1.33,2.66,2.85,3.49,4.25ZM127.88,99.63h-2.18v-.71h2.77c.48,2.73,2.17,4.39,4.1,5.41l-1.21,1.66c-1.77-1.32-3.05-3.49-3.49-6.35Z"/>
      <path class="cls-2" d="M149.54,98.3h.64v13.78h-.64v-13.78Z"/>
      <path class="cls-1" d="M172.95,102.83h-3.54v8.07h-1.39v-12.2h4.93v4.13ZM171.65,99.4h-2.24v1h2.24v-1ZM171.65,101.08h-2.24v1.04h2.24v-1.04ZM175.44,106.91v3.36h-1.29v-3.36h-1.28c-.16,1.89-1.11,3.09-2.7,3.7l-.32-.51c1.19-.86,1.62-1.65,1.72-3.2h-1.74v-.69h1.77v-1.69h-1.41v-.7h6.71v.7h-1.45v1.69h1.81v.69h-1.81ZM174.15,106.23v-1.69h-1.25v1.69h1.25ZM178.95,98.7v10.63c0,1.65-1.3,1.91-3.22.85l.14-.55c1.58.33,1.72.14,1.72-.49v-6.31h-3.49v-4.13h4.86ZM177.58,99.4h-2.17v1h2.17v-1ZM177.58,101.08h-2.17v1.04h2.17v-1.04Z"/>
    </g>
    <g>
      <path class="cls-1" d="M25.74,121.1v-.42h2.34v.42h-.95v3.85h-.44v-3.85h-.95Z"/>
      <path class="cls-1" d="M28.98,120.57h.41v1.78c.16-.22.35-.38.54-.49.2-.11.41-.16.64-.16s.45.06.63.18c.18.12.32.28.4.48.09.2.13.52.13.95v1.62h-.41v-1.51c0-.36-.01-.61-.04-.73-.05-.21-.14-.37-.27-.47-.13-.11-.31-.16-.52-.16-.25,0-.47.08-.66.24-.19.16-.32.36-.38.6-.04.15-.06.44-.06.86v1.16h-.41v-4.38Z"/>
      <path class="cls-1" d="M35.62,123.9l.34.18c-.11.22-.24.4-.39.53-.15.14-.31.24-.5.31-.18.07-.39.11-.62.11-.52,0-.92-.17-1.21-.51-.29-.34-.44-.72-.44-1.14,0-.4.12-.76.37-1.07.31-.4.73-.6,1.25-.6s.97.2,1.29.61c.23.29.34.65.35,1.08h-2.84c0,.37.12.67.35.9.23.23.51.35.84.35.16,0,.32-.03.47-.08.15-.06.28-.13.39-.22.11-.09.22-.24.35-.45ZM35.62,123.05c-.05-.22-.13-.39-.24-.52-.1-.13-.24-.23-.41-.31-.17-.08-.35-.12-.54-.12-.31,0-.58.1-.8.3-.16.15-.29.36-.37.65h2.35Z"/>
      <path class="cls-1" d="M37.03,121.79h.41v.46c.12-.18.25-.32.39-.41.14-.09.28-.13.43-.13.11,0,.23.04.36.11l-.21.34c-.09-.04-.16-.06-.21-.06-.14,0-.27.06-.39.17-.13.11-.22.28-.29.52-.05.18-.08.54-.08,1.09v1.07h-.41v-3.16Z"/>
      <path class="cls-1" d="M41.96,123.9l.34.18c-.11.22-.24.4-.39.53-.15.14-.31.24-.5.31-.18.07-.39.11-.62.11-.52,0-.92-.17-1.21-.51-.29-.34-.44-.72-.44-1.14,0-.4.12-.76.37-1.07.31-.4.73-.6,1.25-.6s.97.2,1.29.61c.23.29.34.65.35,1.08h-2.84c0,.37.12.67.35.9.23.23.51.35.84.35.16,0,.32-.03.47-.08.15-.06.28-.13.39-.22.11-.09.22-.24.35-.45ZM41.96,123.05c-.05-.22-.13-.39-.24-.52-.1-.13-.24-.23-.41-.31-.17-.08-.35-.12-.54-.12-.31,0-.58.1-.8.3-.16.15-.29.36-.37.65h2.35Z"/>
      <path class="cls-1" d="M45.46,120.57h.41v4.38h-.41v-4.38Z"/>
      <path class="cls-1" d="M47.21,120.49c.09,0,.17.03.24.1.07.07.1.15.1.24s-.03.17-.1.24c-.07.07-.14.1-.24.1s-.17-.03-.23-.1c-.07-.07-.1-.14-.1-.24s.03-.17.1-.24c.07-.07.14-.1.23-.1ZM47.01,121.79h.41v3.16h-.41v-3.16Z"/>
      <path class="cls-1" d="M48.97,120.62h.41v1.17h.64v.35h-.64v2.81h-.41v-2.81h-.55v-.35h.55v-1.17Z"/>
      <path class="cls-1" d="M51.34,120.62h.41v1.17h.64v.35h-.64v2.81h-.41v-2.81h-.55v-.35h.55v-1.17Z"/>
      <path class="cls-1" d="M53.29,120.57h.41v4.38h-.41v-4.38Z"/>
      <path class="cls-1" d="M57.56,123.9l.34.18c-.11.22-.24.4-.39.53-.15.14-.31.24-.5.31-.18.07-.39.11-.62.11-.52,0-.92-.17-1.21-.51-.29-.34-.44-.72-.44-1.14,0-.4.12-.76.37-1.07.31-.4.73-.6,1.25-.6s.97.2,1.29.61c.23.29.34.65.35,1.08h-2.84c0,.37.12.67.35.9.23.23.51.35.84.35.16,0,.32-.03.47-.08.15-.06.28-.13.39-.22.11-.09.22-.24.35-.45ZM57.56,123.05c-.05-.22-.13-.39-.24-.52-.1-.13-.24-.23-.41-.31-.17-.08-.35-.12-.54-.12-.31,0-.58.1-.8.3-.16.15-.29.36-.37.65h2.35Z"/>
      <path class="cls-1" d="M61.47,120.62h.41v1.17h.64v.35h-.64v2.81h-.41v-2.81h-.55v-.35h.55v-1.17Z"/>
      <path class="cls-1" d="M63.49,120.57h.41v1.78c.16-.22.35-.38.54-.49.2-.11.41-.16.64-.16s.45.06.63.18c.18.12.32.28.4.48.09.2.13.52.13.95v1.62h-.41v-1.51c0-.36-.01-.61-.04-.73-.05-.21-.14-.37-.27-.47-.13-.11-.31-.16-.52-.16-.25,0-.47.08-.66.24-.19.16-.32.36-.38.6-.04.15-.06.44-.06.86v1.16h-.41v-4.38Z"/>
      <path class="cls-1" d="M68.97,121.71c.49,0,.89.18,1.21.53.29.32.44.7.44,1.14s-.15.83-.46,1.16c-.31.33-.7.49-1.18.49s-.88-.16-1.19-.49c-.31-.33-.46-.72-.46-1.16s.15-.82.44-1.14c.32-.35.72-.53,1.21-.53ZM68.96,122.11c-.34,0-.63.12-.87.37-.24.25-.36.55-.36.91,0,.23.06.44.17.64.11.2.26.35.45.46.19.11.4.16.62.16s.43-.05.62-.16c.19-.11.34-.26.45-.46.11-.2.17-.41.17-.64,0-.35-.12-.66-.37-.91-.24-.25-.53-.37-.87-.37Z"/>
      <path class="cls-1" d="M71.67,121.79h.41v1.47c0,.36.02.61.06.74.06.19.17.35.33.46.16.11.36.17.59.17s.42-.05.58-.16c.16-.11.27-.25.33-.43.04-.12.06-.38.06-.77v-1.47h.41v1.55c0,.44-.05.76-.15.98-.1.22-.25.39-.46.52-.2.12-.46.19-.77.19s-.56-.06-.77-.19c-.21-.12-.36-.3-.46-.52-.1-.22-.15-.56-.15-1.01v-1.52Z"/>
      <path class="cls-1" d="M78.41,121.79h.41v2.52c0,.44-.04.77-.12.97-.11.29-.29.51-.55.67-.26.16-.58.24-.95.24-.27,0-.51-.04-.73-.11-.22-.08-.39-.18-.53-.31-.14-.13-.26-.32-.37-.57h.44c.12.21.27.36.46.46.19.1.43.15.71.15s.51-.05.7-.15c.19-.1.33-.23.41-.39.08-.16.12-.41.12-.76v-.16c-.15.19-.34.34-.56.45-.22.1-.46.16-.7.16-.29,0-.56-.07-.82-.22-.26-.14-.45-.34-.59-.58-.14-.24-.21-.51-.21-.8s.07-.56.22-.82c.15-.25.35-.45.6-.6.26-.15.53-.22.81-.22.24,0,.46.05.66.15.2.1.4.26.59.48v-.55ZM77.21,122.1c-.23,0-.44.06-.64.17-.2.11-.35.27-.46.46-.11.2-.17.41-.17.64,0,.35.12.63.35.86.23.23.53.34.9.34s.67-.11.9-.34c.23-.22.34-.52.34-.88,0-.24-.05-.45-.16-.64-.1-.19-.25-.33-.44-.44-.19-.11-.4-.16-.62-.16Z"/>
      <path class="cls-1" d="M80.04,120.57h.41v1.78c.16-.22.35-.38.54-.49.2-.11.41-.16.64-.16s.45.06.63.18c.18.12.32.28.4.48.09.2.13.52.13.95v1.62h-.41v-1.51c0-.36-.01-.61-.04-.73-.05-.21-.14-.37-.27-.47-.13-.11-.31-.16-.52-.16-.25,0-.47.08-.66.24-.19.16-.32.36-.38.6-.04.15-.06.44-.06.86v1.16h-.41v-4.38Z"/>
      <path class="cls-1" d="M84.38,120.62h.41v1.17h.64v.35h-.64v2.81h-.41v-2.81h-.55v-.35h.55v-1.17Z"/>
      <path class="cls-1" d="M87.98,122.14l-.26.27c-.22-.21-.43-.32-.64-.32-.13,0-.24.04-.34.13-.09.09-.14.19-.14.3,0,.1.04.2.12.29.08.09.24.21.49.33.3.16.51.31.62.45.11.15.16.31.16.5,0,.26-.09.48-.27.66-.18.18-.41.27-.68.27-.18,0-.36-.04-.52-.12-.17-.08-.3-.19-.41-.33l.26-.29c.21.23.43.35.66.35.16,0,.3-.05.42-.16.11-.1.17-.23.17-.37,0-.12-.04-.22-.11-.31-.08-.09-.25-.2-.51-.34-.29-.15-.48-.29-.58-.44-.1-.14-.15-.31-.15-.49,0-.24.08-.44.25-.6s.37-.24.62-.24c.29,0,.58.14.88.43Z"/>
      <path class="cls-1" d="M94.21,121.79v3.16h-.4v-.54c-.17.21-.36.36-.57.47-.21.1-.44.16-.69.16-.45,0-.83-.16-1.14-.49-.32-.32-.47-.72-.47-1.18s.16-.84.48-1.17c.32-.32.7-.48,1.15-.48.26,0,.49.06.7.17.21.11.39.28.55.5v-.58h.4ZM92.58,122.1c-.23,0-.43.06-.63.17-.19.11-.34.27-.46.47s-.17.41-.17.64.06.43.17.64c.11.2.27.36.46.47.19.11.4.17.62.17s.43-.06.63-.17c.2-.11.35-.26.46-.46.11-.19.16-.41.16-.65,0-.37-.12-.67-.36-.92-.24-.25-.54-.37-.89-.37Z"/>
      <path class="cls-1" d="M95.32,121.79h.41v.46c.12-.18.25-.32.39-.41.14-.09.28-.13.43-.13.11,0,.23.04.36.11l-.21.34c-.09-.04-.16-.06-.21-.06-.14,0-.27.06-.39.17-.13.11-.22.28-.29.52-.05.18-.08.54-.08,1.09v1.07h-.41v-3.16Z"/>
      <path class="cls-1" d="M100.26,123.9l.34.18c-.11.22-.24.4-.39.53-.15.14-.31.24-.5.31-.18.07-.39.11-.62.11-.52,0-.92-.17-1.21-.51-.29-.34-.44-.72-.44-1.14,0-.4.12-.76.37-1.07.31-.4.73-.6,1.25-.6s.97.2,1.29.61c.23.29.34.65.35,1.08h-2.84c0,.37.12.67.35.9.23.23.51.35.84.35.16,0,.32-.03.47-.08.15-.06.28-.13.39-.22.11-.09.22-.24.35-.45ZM100.26,123.05c-.05-.22-.13-.39-.24-.52-.1-.13-.24-.23-.41-.31-.17-.08-.35-.12-.54-.12-.31,0-.58.1-.8.3-.16.15-.29.36-.37.65h2.35Z"/>
      <path class="cls-1" d="M104.17,120.62h.41v1.17h.64v.35h-.64v2.81h-.41v-2.81h-.55v-.35h.55v-1.17Z"/>
      <path class="cls-1" d="M106.19,120.57h.41v1.78c.16-.22.35-.38.54-.49.2-.11.41-.16.64-.16s.45.06.63.18c.18.12.32.28.4.48.09.2.13.52.13.95v1.62h-.41v-1.51c0-.36-.01-.61-.04-.73-.05-.21-.14-.37-.27-.47-.13-.11-.31-.16-.52-.16-.25,0-.47.08-.66.24-.19.16-.32.36-.38.6-.04.15-.06.44-.06.86v1.16h-.41v-4.38Z"/>
      <path class="cls-1" d="M112.83,123.9l.34.18c-.11.22-.24.4-.39.53-.15.14-.31.24-.5.31-.18.07-.39.11-.62.11-.52,0-.92-.17-1.21-.51-.29-.34-.44-.72-.44-1.14,0-.4.12-.76.37-1.07.31-.4.73-.6,1.25-.6s.97.2,1.29.61c.23.29.34.65.35,1.08h-2.84c0,.37.12.67.35.9.23.23.51.35.84.35.16,0,.32-.03.47-.08.15-.06.28-.13.39-.22.11-.09.22-.24.35-.45ZM112.83,123.05c-.05-.22-.13-.39-.24-.52-.1-.13-.24-.23-.41-.31-.17-.08-.35-.12-.54-.12-.31,0-.58.1-.8.3-.16.15-.29.36-.37.65h2.35Z"/>
      <path class="cls-1" d="M116.24,121.79h.41v.46c.12-.18.25-.32.39-.41.14-.09.28-.13.43-.13.11,0,.23.04.36.11l-.21.34c-.09-.04-.16-.06-.21-.06-.14,0-.27.06-.39.17-.13.11-.22.28-.29.52-.05.18-.08.54-.08,1.09v1.07h-.41v-3.16Z"/>
      <path class="cls-1" d="M118.48,121.79h.41v1.47c0,.36.02.61.06.74.06.19.17.35.33.46.16.11.36.17.59.17s.42-.05.58-.16c.16-.11.27-.25.33-.43.04-.12.06-.38.06-.77v-1.47h.41v1.55c0,.44-.05.76-.15.98-.1.22-.25.39-.46.52-.2.12-.46.19-.77.19s-.56-.06-.77-.19c-.21-.12-.36-.3-.46-.52-.1-.22-.15-.56-.15-1.01v-1.52Z"/>
      <path class="cls-1" d="M124.09,122.14l-.26.27c-.22-.21-.43-.32-.64-.32-.13,0-.24.04-.34.13-.09.09-.14.19-.14.3,0,.1.04.2.12.29.08.09.24.21.49.33.3.16.51.31.62.45.11.15.16.31.16.5,0,.26-.09.48-.27.66-.18.18-.41.27-.68.27-.18,0-.36-.04-.52-.12-.17-.08-.3-.19-.41-.33l.26-.29c.21.23.43.35.66.35.16,0,.3-.05.42-.16.11-.1.17-.23.17-.37,0-.12-.04-.22-.11-.31-.08-.09-.25-.2-.51-.34-.29-.15-.48-.29-.58-.44-.1-.14-.15-.31-.15-.49,0-.24.08-.44.25-.6.16-.16.37-.24.62-.24.29,0,.58.14.88.43Z"/>
      <path class="cls-1" d="M125.52,120.62h.41v1.17h.64v.35h-.64v2.81h-.41v-2.81h-.55v-.35h.55v-1.17Z"/>
      <path class="cls-1" d="M127.48,120.57h.41v4.38h-.41v-4.38Z"/>
      <path class="cls-1" d="M131.74,123.9l.34.18c-.11.22-.24.4-.39.53-.15.14-.31.24-.5.31-.18.07-.39.11-.62.11-.52,0-.92-.17-1.21-.51-.29-.34-.44-.72-.44-1.14,0-.4.12-.76.37-1.07.31-.4.73-.6,1.25-.6s.97.2,1.29.61c.23.29.34.65.35,1.08h-2.84c0,.37.12.67.35.9.23.23.51.35.84.35.16,0,.32-.03.47-.08.15-.06.28-.13.39-.22.11-.09.22-.24.35-.45ZM131.74,123.05c-.05-.22-.13-.39-.24-.52-.1-.13-.24-.23-.41-.31-.17-.08-.35-.12-.54-.12-.31,0-.58.1-.8.3-.16.15-.29.36-.37.65h2.35Z"/>
      <path class="cls-1" d="M136.8,121.71c.49,0,.89.18,1.21.53.29.32.44.7.44,1.14s-.15.83-.46,1.16c-.31.33-.7.49-1.18.49s-.88-.16-1.19-.49c-.31-.33-.46-.72-.46-1.16s.15-.82.44-1.14c.32-.35.72-.53,1.21-.53ZM136.8,122.11c-.34,0-.63.12-.87.37-.24.25-.36.55-.36.91,0,.23.06.44.17.64.11.2.26.35.45.46.19.11.4.16.62.16s.43-.05.62-.16c.19-.11.34-.26.45-.46.11-.2.17-.41.17-.64,0-.35-.12-.66-.37-.91-.24-.25-.53-.37-.87-.37Z"/>
      <path class="cls-1" d="M140.85,120.57v.4c-.15-.06-.28-.1-.38-.1-.08,0-.15.02-.2.05-.05.03-.09.07-.1.11-.01.04-.02.15-.02.33v.43s.66,0,.66,0v.35h-.66v2.81h-.41v-2.81h-.42v-.35h.42v-.49c0-.23.02-.39.06-.48.04-.1.11-.17.21-.23.1-.06.22-.09.36-.09.13,0,.29.03.47.08Z"/>
      <path class="cls-1" d="M143.72,120.57h.41v4.38h-.41v-4.38Z"/>
      <path class="cls-1" d="M147.98,123.9l.34.18c-.11.22-.24.4-.39.53-.15.14-.31.24-.5.31-.18.07-.39.11-.62.11-.52,0-.92-.17-1.21-.51-.29-.34-.44-.72-.44-1.14,0-.4.12-.76.37-1.07.31-.4.73-.6,1.25-.6s.97.2,1.29.61c.23.29.34.65.35,1.08h-2.84c0,.37.12.67.35.9.23.23.51.35.84.35.16,0,.32-.03.47-.08.15-.06.28-.13.39-.22.11-.09.22-.24.35-.45ZM147.98,123.05c-.05-.22-.13-.39-.24-.52-.1-.13-.24-.23-.41-.31-.17-.08-.35-.12-.54-.12-.31,0-.58.1-.8.3-.16.15-.29.36-.37.65h2.35Z"/>
      <path class="cls-1" d="M152.69,121.79v3.16h-.4v-.54c-.17.21-.36.36-.57.47-.21.1-.44.16-.69.16-.45,0-.83-.16-1.14-.49-.32-.32-.47-.72-.47-1.18s.16-.84.48-1.17c.32-.32.7-.48,1.15-.48.26,0,.49.06.7.17.21.11.39.28.55.5v-.58h.4ZM151.06,122.1c-.23,0-.43.06-.63.17-.19.11-.34.27-.46.47s-.17.41-.17.64.06.43.17.64c.11.2.27.36.46.47.19.11.4.17.62.17s.43-.06.63-.17c.2-.11.35-.26.46-.46.11-.19.16-.41.16-.65,0-.37-.12-.67-.36-.92-.24-.25-.54-.37-.89-.37Z"/>
      <path class="cls-1" d="M153.66,121.79h.43l1.06,2.3,1.05-2.3h.44l-1.45,3.16h-.08l-1.45-3.16Z"/>
      <path class="cls-1" d="M160.27,123.9l.34.18c-.11.22-.24.4-.39.53-.15.14-.31.24-.5.31-.18.07-.39.11-.62.11-.52,0-.92-.17-1.21-.51-.29-.34-.44-.72-.44-1.14,0-.4.12-.76.37-1.07.31-.4.73-.6,1.25-.6s.97.2,1.29.61c.23.29.34.65.35,1.08h-2.84c0,.37.12.67.35.9.23.23.51.35.84.35.16,0,.32-.03.47-.08.15-.06.28-.13.39-.22.11-.09.22-.24.35-.45ZM160.27,123.05c-.05-.22-.13-.39-.24-.52-.1-.13-.24-.23-.41-.31-.17-.08-.35-.12-.54-.12-.31,0-.58.1-.8.3-.16.15-.29.36-.37.65h2.35Z"/>
      <path class="cls-1" d="M163.42,122.14l-.26.27c-.22-.21-.43-.32-.64-.32-.13,0-.24.04-.34.13-.09.09-.14.19-.14.3,0,.1.04.2.12.29.08.09.24.21.49.33.3.16.51.31.62.45.11.15.16.31.16.5,0,.26-.09.48-.27.66-.18.18-.41.27-.68.27-.18,0-.36-.04-.52-.12-.17-.08-.3-.19-.41-.33l.26-.29c.21.23.43.35.66.35.16,0,.3-.05.42-.16.11-.1.17-.23.17-.37,0-.12-.04-.22-.11-.31-.08-.09-.25-.2-.51-.34-.29-.15-.48-.29-.58-.44-.1-.14-.15-.31-.15-.49,0-.24.08-.44.25-.6.16-.16.37-.24.62-.24.29,0,.58.14.88.43Z"/>
      <path class="cls-1" d="M166.85,120.62h.41v1.17h.64v.35h-.64v2.81h-.41v-2.81h-.55v-.35h.55v-1.17Z"/>
      <path class="cls-1" d="M168.86,120.57h.41v1.78c.16-.22.35-.38.54-.49.2-.11.41-.16.64-.16s.45.06.63.18c.18.12.32.28.4.48.09.2.13.52.13.95v1.62h-.41v-1.51c0-.36-.01-.61-.04-.73-.05-.21-.14-.37-.27-.47-.13-.11-.31-.16-.52-.16-.25,0-.47.08-.66.24-.19.16-.32.36-.38.6-.04.15-.06.44-.06.86v1.16h-.41v-4.38Z"/>
      <path class="cls-1" d="M175.5,123.9l.34.18c-.11.22-.24.4-.39.53-.15.14-.31.24-.5.31-.18.07-.39.11-.62.11-.52,0-.92-.17-1.21-.51-.29-.34-.44-.72-.44-1.14,0-.4.12-.76.37-1.07.31-.4.73-.6,1.25-.6s.97.2,1.29.61c.23.29.34.65.35,1.08h-2.84c0,.37.12.67.35.9.23.23.51.35.84.35.16,0,.32-.03.47-.08.15-.06.28-.13.39-.22.11-.09.22-.24.35-.45ZM175.5,123.05c-.05-.22-.13-.39-.24-.52-.1-.13-.24-.23-.41-.31-.17-.08-.35-.12-.54-.12-.31,0-.58.1-.8.3-.16.15-.29.36-.37.65h2.35Z"/>
      <path class="cls-1" d="M176.72,121.79h.43l1.09,2.43,1.05-2.43h.43l-1.88,4.31h-.43l.61-1.39-1.3-2.92Z"/>
      <path class="cls-1" d="M46.62,129.41h.41v1.78c.16-.22.35-.38.54-.49.2-.11.41-.16.64-.16s.45.06.63.18c.18.12.32.28.4.48.09.2.13.52.13.95v1.62h-.41v-1.51c0-.36-.01-.61-.04-.73-.05-.21-.14-.37-.27-.47-.13-.11-.31-.16-.52-.16-.25,0-.47.08-.66.24-.19.16-.32.36-.38.6-.04.15-.06.44-.06.86v1.16h-.41v-4.38Z"/>
      <path class="cls-1" d="M53.75,130.63v3.16h-.4v-.54c-.17.21-.36.36-.57.47-.21.1-.44.16-.69.16-.45,0-.83-.16-1.14-.49-.32-.32-.47-.72-.47-1.18s.16-.84.48-1.17c.32-.32.7-.48,1.15-.48.26,0,.49.06.7.17.21.11.39.28.55.5v-.58h.4ZM52.12,130.94c-.23,0-.43.06-.63.17-.19.11-.34.27-.46.47s-.17.41-.17.64.06.43.17.64c.11.2.27.36.46.47.19.11.4.17.62.17s.43-.06.63-.17c.2-.11.35-.26.46-.46.11-.19.16-.41.16-.65,0-.37-.12-.67-.36-.92-.24-.25-.54-.37-.89-.37Z"/>
      <path class="cls-1" d="M54.72,130.63h.43l1.06,2.3,1.05-2.3h.44l-1.45,3.16h-.08l-1.45-3.16Z"/>
      <path class="cls-1" d="M61.32,132.74l.34.18c-.11.22-.24.4-.39.53-.15.14-.31.24-.5.31-.18.07-.39.11-.62.11-.52,0-.92-.17-1.21-.51-.29-.34-.44-.72-.44-1.14,0-.4.12-.76.37-1.07.31-.4.73-.6,1.25-.6s.97.2,1.29.61c.23.29.34.65.35,1.08h-2.84c0,.37.12.67.35.9.23.23.51.35.84.35.16,0,.32-.03.47-.08.15-.06.28-.13.39-.22.11-.09.22-.24.35-.45ZM61.32,131.89c-.05-.22-.13-.39-.24-.52-.1-.13-.24-.23-.41-.31-.17-.08-.35-.12-.54-.12-.31,0-.58.1-.8.3-.16.15-.29.36-.37.65h2.35Z"/>
      <path class="cls-1" d="M65.24,129.46h.41v1.17h.64v.35h-.64v2.81h-.41v-2.81h-.55v-.35h.55v-1.17Z"/>
      <path class="cls-1" d="M67.26,129.41h.41v1.78c.16-.22.35-.38.54-.49.2-.11.41-.16.64-.16s.45.06.63.18c.18.12.32.28.4.48.09.2.13.52.13.95v1.62h-.41v-1.51c0-.36-.01-.61-.04-.73-.05-.21-.14-.37-.27-.47-.13-.11-.31-.16-.52-.16-.25,0-.47.08-.66.24-.19.16-.32.36-.38.6-.04.15-.06.44-.06.86v1.16h-.41v-4.38Z"/>
      <path class="cls-1" d="M73.9,132.74l.34.18c-.11.22-.24.4-.39.53-.15.14-.31.24-.5.31-.18.07-.39.11-.62.11-.52,0-.92-.17-1.21-.51-.29-.34-.44-.72-.44-1.14,0-.4.12-.76.37-1.07.31-.4.73-.6,1.25-.6s.97.2,1.29.61c.23.29.34.65.35,1.08h-2.84c0,.37.12.67.35.9.23.23.51.35.84.35.16,0,.32-.03.47-.08.15-.06.28-.13.39-.22.11-.09.22-.24.35-.45ZM73.9,131.89c-.05-.22-.13-.39-.24-.52-.1-.13-.24-.23-.41-.31-.17-.08-.35-.12-.54-.12-.31,0-.58.1-.8.3-.16.15-.29.36-.37.65h2.35Z"/>
      <path class="cls-1" d="M75.6,129.33c.09,0,.17.03.24.1.07.07.1.15.1.24s-.03.17-.1.24c-.07.07-.14.1-.24.1s-.17-.03-.23-.1c-.07-.07-.1-.14-.1-.24s.03-.17.1-.24c.07-.07.14-.1.23-.1ZM75.4,130.63h.41v3.16h-.41v-3.16Z"/>
      <path class="cls-1" d="M76.85,130.63h.41v.46c.12-.18.25-.32.39-.41.14-.09.28-.13.43-.13.11,0,.23.04.36.11l-.21.34c-.09-.04-.16-.06-.21-.06-.14,0-.27.06-.39.17-.13.11-.22.28-.29.52-.05.18-.08.54-.08,1.09v1.07h-.41v-3.16Z"/>
      <path class="cls-1" d="M80.72,130.63h.42l.97,2.29,1.01-2.29h.07l1.01,2.29.99-2.29h.42l-1.37,3.16h-.08l-1.01-2.26-1.01,2.26h-.08l-1.35-3.16Z"/>
      <path class="cls-1" d="M86.44,129.41h.41v1.78c.16-.22.35-.38.54-.49.2-.11.41-.16.64-.16s.45.06.63.18c.18.12.32.28.4.48.09.2.13.52.13.95v1.62h-.41v-1.51c0-.36-.01-.61-.04-.73-.05-.21-.14-.37-.27-.47-.13-.11-.31-.16-.52-.16-.25,0-.47.08-.66.24-.19.16-.32.36-.38.6-.04.15-.06.44-.06.86v1.16h-.41v-4.38Z"/>
      <path class="cls-1" d="M90.57,129.33c.09,0,.17.03.24.1.07.07.1.15.1.24s-.03.17-.1.24c-.07.07-.14.1-.24.1s-.17-.03-.23-.1c-.07-.07-.1-.14-.1-.24s.03-.17.1-.24c.07-.07.14-.1.23-.1ZM90.36,130.63h.41v3.16h-.41v-3.16Z"/>
      <path class="cls-1" d="M93.56,130.98l-.26.27c-.22-.21-.43-.32-.64-.32-.13,0-.24.04-.34.13-.09.09-.14.19-.14.3,0,.1.04.2.12.29.08.09.24.21.49.33.3.16.51.31.62.45.11.15.16.31.16.5,0,.26-.09.48-.27.66-.18.18-.41.27-.68.27-.18,0-.36-.04-.52-.12s-.3-.19-.41-.33l.26-.29c.21.23.43.35.66.35.16,0,.3-.05.42-.16.11-.1.17-.23.17-.37,0-.12-.04-.22-.11-.31-.08-.09-.25-.2-.51-.34-.29-.15-.48-.29-.58-.44-.1-.14-.15-.31-.15-.49,0-.24.08-.44.25-.6s.37-.24.62-.24c.29,0,.58.14.88.43Z"/>
      <path class="cls-1" d="M94.64,130.63h.41v.58c.16-.22.34-.39.55-.5.21-.11.44-.17.7-.17.45,0,.83.16,1.15.48.32.32.48.71.48,1.17s-.16.86-.47,1.18-.7.49-1.14.49c-.25,0-.48-.05-.69-.16-.21-.1-.4-.26-.57-.47v1.7h-.41v-4.31ZM96.27,130.94c-.35,0-.65.12-.89.37-.24.25-.36.55-.36.92,0,.24.05.46.16.65.11.19.26.34.46.46.2.11.41.17.63.17s.42-.06.62-.17c.19-.11.35-.27.46-.47.11-.2.17-.42.17-.64s-.06-.44-.17-.64c-.11-.2-.26-.36-.46-.47-.19-.11-.4-.17-.63-.17Z"/>
      <path class="cls-1" d="M101.7,132.74l.34.18c-.11.22-.24.4-.39.53-.15.14-.31.24-.5.31-.18.07-.39.11-.62.11-.52,0-.92-.17-1.21-.51-.29-.34-.44-.72-.44-1.14,0-.4.12-.76.37-1.07.31-.4.73-.6,1.25-.6s.97.2,1.29.61c.23.29.34.65.35,1.08h-2.84c0,.37.12.67.35.9.23.23.51.35.84.35.16,0,.32-.03.47-.08.15-.06.28-.13.39-.22.11-.09.22-.24.35-.45ZM101.7,131.89c-.05-.22-.13-.39-.24-.52-.1-.13-.24-.23-.41-.31-.17-.08-.35-.12-.54-.12-.31,0-.58.1-.8.3-.16.15-.29.36-.37.65h2.35Z"/>
      <path class="cls-1" d="M103.11,130.63h.41v.46c.12-.18.25-.32.39-.41.14-.09.28-.13.43-.13.11,0,.23.04.36.11l-.21.34c-.09-.04-.16-.06-.21-.06-.14,0-.27.06-.39.17-.13.11-.22.28-.29.52-.05.18-.08.54-.08,1.09v1.07h-.41v-3.16Z"/>
      <path class="cls-1" d="M108.9,130.55c.49,0,.89.18,1.21.53.29.32.44.7.44,1.14s-.15.83-.46,1.16c-.31.33-.7.49-1.18.49s-.88-.16-1.19-.49c-.31-.33-.46-.72-.46-1.16s.15-.82.44-1.14c.32-.35.72-.53,1.21-.53ZM108.9,130.95c-.34,0-.63.12-.87.37-.24.25-.36.55-.36.91,0,.23.06.44.17.64.11.2.26.35.45.46.19.11.4.16.62.16s.43-.05.62-.16c.19-.11.34-.26.45-.46.11-.2.17-.41.17-.64,0-.35-.12-.66-.37-.91-.24-.25-.53-.37-.87-.37Z"/>
      <path class="cls-1" d="M112.96,129.41v.4c-.15-.06-.28-.1-.38-.1-.08,0-.15.02-.2.05-.05.03-.09.07-.1.11-.01.04-.02.15-.02.33v.43s.66,0,.66,0v.35h-.66v2.81h-.41v-2.81h-.42v-.35h.42v-.49c0-.23.02-.39.06-.48.04-.1.11-.17.21-.23.1-.06.22-.09.36-.09.13,0,.29.03.47.08Z"/>
      <path class="cls-1" d="M115.83,130.63h.41v3.63c0,.27-.05.46-.14.58-.1.12-.23.18-.39.18-.14,0-.29-.03-.46-.1v-.37c.11.06.21.08.29.08.11,0,.19-.05.25-.14.03-.06.05-.18.05-.36v-3.51ZM116.03,129.33c.09,0,.17.03.24.1.06.07.1.15.1.24s-.03.17-.1.24c-.06.07-.14.1-.24.1s-.17-.03-.24-.1-.1-.14-.1-.24.03-.17.1-.24.14-.1.24-.1Z"/>
      <path class="cls-1" d="M118.94,130.55c.49,0,.89.18,1.21.53.29.32.44.7.44,1.14s-.15.83-.46,1.16c-.31.33-.7.49-1.18.49s-.88-.16-1.19-.49c-.31-.33-.46-.72-.46-1.16s.15-.82.44-1.14c.32-.35.72-.53,1.21-.53ZM118.94,130.95c-.34,0-.63.12-.87.37-.24.25-.36.55-.36.91,0,.23.06.44.17.64.11.2.26.35.45.46.19.11.4.16.62.16s.43-.05.62-.16c.19-.11.34-.26.45-.46.11-.2.17-.41.17-.64,0-.35-.12-.66-.37-.91-.24-.25-.53-.37-.87-.37Z"/>
      <path class="cls-1" d="M121.35,130.63h.43l1.09,2.43,1.05-2.43h.43l-1.88,4.31h-.43l.61-1.39-1.3-2.92Z"/>
      <path class="cls-1" d="M127.38,129.33c.09,0,.17.03.24.1.07.07.1.15.1.24s-.03.17-.1.24c-.07.07-.14.1-.24.1s-.17-.03-.23-.1c-.07-.07-.1-.14-.1-.24s.03-.17.1-.24c.07-.07.14-.1.23-.1ZM127.18,130.63h.41v3.16h-.41v-3.16Z"/>
      <path class="cls-1" d="M128.78,130.63h.41v.57c.16-.22.34-.38.54-.49.2-.11.41-.16.64-.16s.45.06.63.18c.18.12.32.28.4.48.09.2.13.52.13.95v1.62h-.41v-1.51c0-.36-.02-.61-.05-.73-.05-.21-.14-.37-.27-.47-.13-.11-.31-.16-.52-.16-.25,0-.47.08-.66.24-.19.16-.32.36-.38.6-.04.16-.06.44-.06.86v1.16h-.41v-3.16Z"/>
      <path class="cls-1" d="M134.76,130.63h.41v.55c.14-.2.29-.35.44-.44.21-.12.42-.19.65-.19.15,0,.3.03.44.09s.25.14.34.24.16.24.23.43c.14-.25.3-.44.51-.56.2-.13.42-.19.65-.19.22,0,.41.06.58.17.17.11.29.26.37.46.08.2.12.49.12.89v1.72h-.42v-1.72c0-.34-.02-.57-.07-.7-.05-.13-.13-.23-.25-.31-.12-.08-.26-.12-.42-.12-.2,0-.38.06-.54.17-.16.12-.28.27-.36.46-.08.19-.11.52-.11.97v1.24h-.41v-1.62c0-.38-.02-.64-.07-.78-.05-.14-.13-.25-.25-.33s-.26-.12-.42-.12c-.19,0-.36.06-.53.17-.16.11-.28.27-.36.46-.08.19-.12.48-.12.88v1.34h-.41v-3.16Z"/>
      <path class="cls-1" d="M140.36,130.63h.43l1.09,2.43,1.05-2.43h.43l-1.88,4.31h-.43l.61-1.39-1.3-2.92Z"/>
      <path class="cls-1" d="M146.24,130.63h.41v.55c.14-.2.29-.35.44-.44.21-.12.42-.19.65-.19.15,0,.3.03.44.09s.25.14.34.24.16.24.23.43c.14-.25.3-.44.51-.56s.42-.19.65-.19c.22,0,.41.06.58.17.17.11.29.26.37.46.08.2.12.49.12.89v1.72h-.42v-1.72c0-.34-.02-.57-.07-.7-.05-.13-.13-.23-.25-.31-.12-.08-.26-.12-.42-.12-.2,0-.38.06-.54.17-.16.12-.28.27-.36.46-.08.19-.11.52-.11.97v1.24h-.41v-1.62c0-.38-.02-.64-.07-.78-.05-.14-.13-.25-.25-.33-.12-.08-.26-.12-.42-.12-.19,0-.36.06-.53.17-.16.11-.28.27-.36.46-.08.19-.12.48-.12.88v1.34h-.41v-3.16Z"/>
      <path class="cls-1" d="M152.31,129.33c.09,0,.17.03.24.1.07.07.1.15.1.24s-.03.17-.1.24c-.07.07-.14.1-.24.1s-.17-.03-.23-.1c-.07-.07-.1-.14-.1-.24s.03-.17.1-.24c.07-.07.14-.1.23-.1ZM152.11,130.63h.41v3.16h-.41v-3.16Z"/>
      <path class="cls-1" d="M153.72,130.63h.41v.57c.16-.22.34-.38.54-.49.2-.11.41-.16.64-.16s.45.06.63.18c.18.12.32.28.4.48.09.2.13.52.13.95v1.62h-.41v-1.51c0-.36-.02-.61-.05-.73-.05-.21-.14-.37-.27-.47-.13-.11-.31-.16-.52-.16-.25,0-.47.08-.66.24-.19.16-.32.36-.38.6-.04.16-.06.44-.06.86v1.16h-.41v-3.16Z"/>
      <path class="cls-1" d="M160.85,129.41v4.38h-.4v-.54c-.17.21-.36.36-.57.47-.21.1-.44.16-.7.16-.45,0-.83-.16-1.14-.49-.32-.32-.47-.72-.47-1.18s.16-.84.48-1.17c.32-.32.7-.48,1.15-.48.26,0,.49.06.7.17.21.11.39.28.55.5v-1.8h.4ZM159.23,130.94c-.23,0-.43.06-.63.17-.19.11-.34.27-.46.47-.11.2-.17.41-.17.64s.06.43.17.64c.11.2.27.36.46.47.19.11.4.17.62.17s.43-.06.63-.17c.2-.11.35-.26.46-.46.11-.19.16-.41.16-.65,0-.37-.12-.67-.36-.92-.24-.25-.54-.37-.89-.37Z"/>
    </g>
    <g>
      <path class="cls-2" d="M6.51,26.48h14.18v3.08H1.56v-2.27c1.87-3.48,4.72-6.69,8.56-9.63,4.55-3.21,6.64-5.79,6.29-7.76-.09-3.03-1.78-4.59-5.08-4.68-2.94,0-4.81,1.74-5.62,5.22l-3.74-1.2C3.3,4.33,6.64,1.87,11.99,1.87c5.44.18,8.34,2.72,8.69,7.62.45,3.21-1.74,6.38-6.55,9.5-3.39,2.32-5.93,4.81-7.62,7.49Z"/>
      <path class="cls-2" d="M43.68,17.65h-18.72v-2.94h18.72v2.94Z"/>
      <path class="cls-2" d="M47.3,23l4.15-.94c.62,3.39,2.54,5.08,5.75,5.08,3.56-.09,5.39-1.83,5.48-5.22,0-3.12-2.19-4.68-6.55-4.68h-2.54v-3.21h2.01c4.1,0,6.2-1.56,6.29-4.68-.09-2.85-1.65-4.32-4.68-4.41-3.03,0-4.81,1.65-5.35,4.95l-4.01-.94c1.16-4.72,4.37-7.09,9.63-7.09,5.44.18,8.34,2.54,8.69,7.09-.09,3.3-1.92,5.44-5.48,6.42,3.92.8,6.02,3.08,6.29,6.82-.27,5.08-3.52,7.71-9.76,7.89-5.44.09-8.74-2.27-9.9-7.09Z"/>
      <path class="cls-2" d="M76.18,13.91v3.34h10.7v-2.67h3.21v2.67h11.5v2.54h-16.18c0,.27-.05.67-.13,1.2,0,.62-.05,1.07-.13,1.34h13.64c-.09.53-.18,1.43-.27,2.67-.09.98-.13,1.69-.13,2.14-.18,3.03-1.87,4.46-5.08,4.28-.98.09-2.76.13-5.35.13-.09-.36-.27-1.07-.54-2.14-.09-.36-.18-.62-.27-.8h4.81c1.96.09,2.94-.53,2.94-1.87.09-.45.13-1.07.13-1.87h-10.3c-.62,2.59-2.9,5.08-6.82,7.49-1.16-1.16-2.05-1.96-2.67-2.41,4.63-2.32,6.82-5.7,6.55-10.16h-5.75c-.27,4.64-1.65,8.69-4.15,12.17-1.07-.89-2.01-1.74-2.81-2.54,1.51-2.23,2.49-4.28,2.94-6.15.45-1.96.67-4.81.67-8.56V2.01c9.27-.27,18.01-.76,26.21-1.47l1.2,2.81c-6.42.53-14.4.98-23.94,1.34v1.74h23.8v7.49h-23.8ZM96.51,8.96h-20.33v2.41h20.33v-2.41Z"/>
      <path class="cls-2" d="M104.13,5.88v-2.81h5.22V0h3.21v3.08h5.08v2.81h-5.08v2.54h4.55v13.37h-4.55v2.54h5.48v2.94h-5.48v4.68h-3.21v-4.68h-5.48v-2.94h5.48v-2.54h-4.55v-13.37h4.55v-2.54h-5.22ZM106.94,11.1v2.81h2.81v-2.81h-2.81ZM106.94,16.18v2.94h2.81v-2.94h-2.81ZM114.96,11.1h-2.94v2.81h2.94v-2.81ZM112.02,16.18v2.94h2.94v-2.94h-2.94ZM118.98,22.33v-3.21h16.18v3.21h-6.55v5.48h7.49v2.94h-18.72v-2.94h7.89v-5.48h-6.29ZM121.78,18.32c-.53-.98-1.69-2.81-3.48-5.48-.27-.36-.45-.62-.53-.8,1.34-1.78,2.63-3.83,3.88-6.15l2.54,1.07c-1.34,2.32-2.45,4.01-3.34,5.08.54.71,1.43,1.96,2.67,3.74.36.53.62.94.8,1.2l-2.54,1.34ZM118.71,4.95V1.74h16.85v3.21h-16.85ZM127.4,18.19c-.89-1.6-2.19-3.65-3.88-6.15,1.78-2.76,3.03-4.81,3.74-6.15l2.54,1.07c-1.34,2.23-2.45,3.92-3.34,5.08l.13.13c1.51,1.96,2.67,3.57,3.48,4.81l-2.67,1.2ZM133.29,18.19c-1.69-2.58-3.12-4.63-4.28-6.15,1.25-1.52,2.58-3.56,4.01-6.15l2.54,1.07c-.62.98-1.52,2.32-2.67,4.01-.36.45-.62.8-.8,1.07,1.25,1.52,2.49,3.12,3.74,4.81l-2.54,1.34Z"/>
      <path class="cls-2" d="M138.77,21.4v-2.67h4.81v-2.27h3.21v2.27h4.28v2.67h-4.28v2.81l1.07-1.07c.27.18.67.49,1.2.94.71.45,1.65,1.12,2.81,2.01l-2.01,2.01c-.18-.18-.49-.45-.94-.8-.98-.71-1.69-1.29-2.14-1.74v6.29h-3.21v-6.69c-1.25,1.96-2.67,3.52-4.28,4.68-.18-.53-.62-1.47-1.34-2.81,2.14-1.43,3.88-3.3,5.22-5.62h-4.41ZM138.37,12.04v-1.87h2.27V1.2h13.64v1.87h-10.43v1.47h10.03v1.34h-10.03v1.47h10.03v1.34h-10.03v1.47h11.1v1.87h-2.94c1.51,1.52,2.58,2.63,3.21,3.34l-2.27,1.34c-.09-.09-.22-.22-.4-.4-.27-.36-.53-.62-.8-.8-1.78.09-4.59.22-8.43.4-1.96.09-3.34.13-4.15.13l-.27-2.14h2.01c.53-.62.98-1.25,1.34-1.87h-3.88ZM145.59,12.04l-1.34,1.74c.62,0,1.6-.04,2.94-.13,1.34,0,2.32-.04,2.94-.13l-1.34-1.2.4-.27h-3.61ZM152.81,25.94c-.09-.09-.27-.27-.54-.53-.62-.71-1.12-1.2-1.47-1.47,2.05-1.43,3.7-3.21,4.95-5.35l2.41,1.07c-1.43,2.5-3.21,4.59-5.35,6.29ZM152.41,31.29l-.4-2.41,2.41-.13c1.25-1.6,2.76-4.01,4.55-7.22l3.08.94c-.36.45-.98,1.34-1.87,2.67-1.25,1.78-2.14,2.94-2.67,3.48,2.14,0,4.23-.09,6.29-.27l-2.01-2.41,2.41-1.07c2.14,2.32,3.79,4.32,4.95,6.02l-2.54,1.34-1.2-1.6c-6.24.36-10.56.58-12.97.67ZM156.56,6.02c-.27-.89-.62-1.74-1.07-2.54,4.01-.8,7.76-1.83,11.23-3.08l1.2,2.41c-4.46,1.43-8.25,2.5-11.37,3.21ZM156.96,15.91c-.36-1.16-.71-2.01-1.07-2.54,4.37-.71,8.6-1.87,12.7-3.48l1.07,2.41c-4.46,1.6-8.69,2.81-12.7,3.61ZM157.09,10.83c-.09-.18-.22-.49-.4-.94-.27-.71-.49-1.2-.67-1.47,3.65-.71,7.44-1.78,11.37-3.21l1.07,2.27c-3.48,1.34-7.27,2.45-11.37,3.34ZM157.09,18.99v-2.27h7.49v.13c1.43,2.59,3.52,4.68,6.29,6.29-.27.36-.67.85-1.2,1.47-.27.45-.49.76-.67.94-2.67-1.69-4.77-3.88-6.29-6.55h-5.62Z"/>
      <path class="cls-2" d="M173.94,32.1c-.27-.71-.71-1.65-1.34-2.81,4.37-.8,8.29-1.56,11.77-2.27l1.6,2.27c-4.46,1.16-8.47,2.09-12.04,2.81ZM174.07,9.49V1.34h28.75v8.16h-28.75ZM175.95,26.48v-15.11h24.87v15.11h-24.87ZM177.42,3.74v3.34h5.08v-3.34h-5.08ZM179.29,13.77v2.14h18.19v-2.14h-18.19ZM179.29,17.79v2.14h18.19v-2.14h-18.19ZM179.29,21.93v2.14h18.19v-2.14h-18.19ZM185.84,3.74v3.34h5.22v-3.34h-5.22ZM202.96,31.96c-4.64-1.07-8.6-1.96-11.9-2.67l1.2-2.27c2.23.36,5.53.94,9.9,1.74.89.18,1.56.31,2.01.4l-1.2,2.81ZM199.48,3.74h-5.22v3.34h5.22v-3.34Z"/>
    </g>
  </g>
</svg>