<svg width="558" height="52" viewBox="0 0 558 52" fill="none" xmlns="http://www.w3.org/2000/svg">
<linearGradient id="SVGID_1_" gradientUnits="userSpaceOnUse" x1="-0.2" y1="3.5" x2="433" y2="37">
	<stop offset="0" style="stop-color:#FFFFFF"/>
	<stop offset="1" style="stop-color:#CDA96D"/>
</linearGradient>
<path fill="url(#SVGID_1_)" d="M5.8,9.4C16.9-5.5,40,1.8,43.1,1.9c3.3,0.1,0.7,1.7,1,11.3c0.1,1.9-1.3,1.8-1.1,0C43.6-0.3,10.2-3.5,6.6,17.1
	C0.5,51.7,40.9,56.2,43.7,40c0.1-1.4,1.1-1.5,1.1,0.4c-1.4,10.1-1.9,9.4-3.1,9.9C5.7,59.7-8.9,29,5.8,9.4z M104.1,24.8
	c-0.5,36.6-52.1,34.9-51.7,1C52.4-7.5,104.1-9.3,104.1,24.8z M97.8,26.8C98.6-4,58.4-6.4,58.7,24.1C58.7,55.6,97.8,58.9,97.8,26.8z
	 M168.3,42.4c0.6,5.8,2.3,7.5,7.3,7.5c1.3,0,1.3,0.9,0,0.9c0,0-12.6,0-12.6,0c-1.9,0,0.5-1,0.4-1.8l-3.5-36
	c-17.8,37.6-17.7,37.7-18.4,37.7c-0.5,0-1.2-0.6-18.6-37l-2.8,30.5c-0.2,3.6-0.6,5.7,3.7,5.7c1.2,0,1.2,0.9,0,0.9h-12.1
	c-1.4,0-1.4-0.9,0-0.9c3.4,0,3.7-1.4,4.2-5.7c5.2-43.8,5-43.9,5.7-44c0.8-0.1,0.6,0,21.2,42.3C162.7,0,162.4,0,163.2,0.2
	C163.9,0.3,163.7,0.3,168.3,42.4z M197.6,1.2c1.4,0,1.4,0.9,0,0.9c-3.1,0-3.7,1.6-3.7,7.7v26.1c0,13-0.3,14,5.5,14
	c1.1,0,1.1,0.9,0,0.9h-15.1c-1,0-1-0.9,0-0.9c3.6,0,4-1.4,4-14c0-9.1,0-20.3,0-26.1c0-5.9-0.4-7.7-3.7-7.7c-1.5,0-1.5-0.9,0-0.9
	C184.6,1.2,197.6,1.2,197.6,1.2z M261.6,1.2c1.6,0,1.6,0.9,0,0.9c-3.3,0-3.5,2-3.5,6c-0.1,42.6,0.1,42.9-0.6,43.1
	c-0.4,0.1-2.1-0.2-39.2-40.8l0.8,31.5l0,0c0.1,5.4,0.5,8,5.2,8c1.6,0,1.6,0.9,0,0.9H211c-1.2,0-1.2-0.9,0-0.9c4.2,0,4.1-2.8,4.1-8.8
	c0-40.6,0-40.6,0.6-40.9c0.6-0.3,0.5-0.2,39.2,41.7l-0.7-33.4c0-5.5-0.9-6.4-5-6.4c-1.7,0-1.7-0.9,0-0.9
	C249.2,1.2,261.6,1.2,261.6,1.2z M556.5,1.2c1.6,0,1.6,0.9,0,0.9c-3.3,0-3.5,2-3.5,6c-0.1,42.6,0.1,42.9-0.6,43.1
	c-0.4,0.1-2.1-0.2-39.2-40.8l0.8,31.5l0,0c0.1,5.4,0.5,8,5.2,8c1.6,0,1.6,0.9,0,0.9h-13.3c-1.2,0-1.2-0.9,0-0.9
	c4.2,0,4.1-2.8,4.1-8.8c0-40.6,0-40.6,0.6-40.9c0.6-0.3,0.5-0.2,39.2,41.7l-0.7-33.4c0-5.5-0.9-6.4-5-6.4c-1.7,0-1.7-0.9,0-0.9
	C544.1,1.2,556.5,1.2,556.5,1.2z M438.6,24.8c-0.5,36.6-52.1,34.9-51.7,1C386.9-7.5,438.6-9.3,438.6,24.8z M432.3,26.8
	c0.8-30.8-39.4-33.2-39.1-2.7C393.2,55.6,432.3,58.9,432.3,26.8z M498.4,24.8c-0.5,36.6-52.1,34.9-51.7,1
	C446.7-7.5,498.4-9.3,498.4,24.8z M492.1,26.8C492.9-4,452.7-6.4,453,24.1C453,55.6,492.1,58.9,492.1,26.8z M309.8,34.1
	c0-5.4-0.4-7-4.7-7c-1.3,0-1.3-0.9,0-0.9c0,0,13.8,0,13.8,0c1.4,0,1.4,0.9,0,0.9c-2.9,0-3.5,1.3-3.5,7c0,14.3,0.3,14-0.9,14.8
	c-24.4,10.4-51.7-6.9-41.1-33.6C282.3-7.2,310.4,2,313.9,2c3.7,0,1-0.2,1.4,9.9c0.1,2.1-0.9,2-1.1,0.4c-1-11.1-27.8-14.8-35.2,0
	c-8.7,17.3,5.5,42.1,28.8,35.5C310.5,47,309.8,46.7,309.8,34.1z M351.8,49.6c-0.9-0.5-0.2-8-0.1-9.1c0.1-1.3,1-1.3,1-0.3
	c0,12.7,19.3,11.6,19.3,0.4c0-12.1-19-14.4-19-28.6c0-10.2,10.5-13.5,19.7-11.2c1.2,0.3,1.8,0.3,2.3,0.3c1.5,0,0.3,1.4,0.4,7.5
	c0,1.9-1,2-1,0.7c0-9.1-17.2-9.6-17.2,0.8c0,10.5,19.5,13.1,19.5,28C376.7,51.8,359.8,54.2,351.8,49.6z"/>
</svg>
