<svg width="572" height="118" viewBox="0 0 572 118" fill="#fff" xmlns="http://www.w3.org/2000/svg">
<path d="M20.5,13.6C3,40.9,3.1,84.7,20.5,112.6h-7.6c-17.2-28.5-17.1-73.1,0-99.1 M59.4,83.4c0.1,22.7-32.3,22.7-32.5,0
	V37c-0.3-24.2,32.1-24.2,32.5,0 M51.6,37.8c0-15.2-17-15.2-16.9,0v44C35,97,51.9,96.7,51.6,81.4 M97.7,20.1v5.8
	c-10,19.9-17.8,44.1-21,73.4h-7.9C71.3,74,79.5,46.5,89.6,27.1h-24v-7 M111.6,13.5c16.2,26.5,17.9,70.7,0,99.1h-7.6
	c17.4-26.3,17.4-71.4,0-99.1 M169.8,77.2c0-14.5-5.2-18.7-15.6-18.7h-4.8v-9.7h4.7c8.8,0,13.2-3.1,13.2-16.1v-8.4
	c0-18.1-21.6-18.6-21.6-0.5v5.1h-10.3l0-5.4c0-30.1,42.7-30.2,42.7-0.3v8.4c0,13.2-4,18.9-10.5,21.5c8.3,2.8,13.3,9.3,13.3,23.8
	v13.9c0,35.9-47.2,34.2-47.2,4.2v-6.2h10.6V95c0,17.9,25.5,18.7,25.5-3.9 M239.1,92c0,34.6-46.2,33.6-46.2,0.1V28.5
	c0-35.5,44.9-38.2,44.9-1.9h-10.7c0-22.2-23.2-21.6-23.2,1.2V50c6.8-13.8,35.2-14.6,35.2,14.9 M228.1,62.8
	c0-16.1-24.2-17.2-24.2,3.7v26.5c0,20.6,24.2,19.6,24.2,0 M291.2,116.1h-10.5l0,0V15.6l-21.2,59.7l40.8,0l-1.1,9.5h-50.8v-8.2
	l28.4-74.2h14.3 M308.6,75.7V65.4h28.9v10.4 M571.2,93.3c0,32.2-47.1,32.3-47.1,0h0V74.8c-0.2-31.1,46.9-31.1,47.1,0 M569.9,34.8
	c0.5,30.5-43.6,30.5-44.1,0V24.3c0-30.5,44.1-32.2,44.1,0 M560.2,72.1c0-16.3-25-16.8-25,0v21.2c0,19,25,19.4,25,0.3 M559,23.8
	c0-17.3-22.4-17.7-22.4,0.1v0v13.9c0,15.5,22.4,17.2,22.4,0 M513.3,93.3c0,32.2-47.1,32.3-47.1,0h0l0-18.6
	c-0.2-31.1,46.9-31.1,47.1,0 M511.9,34.8c0.5,30.5-43.6,30.5-44.1,0l0-10.5c0-30.5,44.1-32.2,44.1,0 M502.3,72.1
	c0-16.3-25-16.8-25,0v21.2c0,19,25,19.4,25,0.3 M501.1,23.8c0-17.3-22.4-17.7-22.4,0.1v0v13.9c0,15.5,22.4,17.2,22.4,0 M395.5,93.3
	c0,32.2-47.1,32.3-47.1,0h0l0-18.6c-0.2-31.1,46.9-31.1,47.1,0 M394.2,34.8c0.5,30.5-43.6,30.5-44.1,0l0-10.5
	c0-30.5,44.1-32.2,44.1,0 M384.5,72.1c0-16.3-25-16.8-25,0v21.2c0,19,25,19.4,25,0.3 M383.3,23.8c0-17.3-22.4-17.7-22.4,0.1v0v13.9
	c0,15.5,22.4,17.2,22.4,0 M454.3,91.6c0,33.9-46.6,33.9-46.6,0V27.3c0-35.8,46.6-35.4,46.6,0l0,0 M443.1,27.3
	c0-21.2-24.3-21.9-24.3,0h0V92c0,20,24.3,20.8,24.3,0"/>
</svg>
