<svg viewBox="0 0 282 56" fill="#B7A999" xmlns="http://www.w3.org/2000/svg">
<path class="st0" d="M9.6,45.5c5-12,12.9-34.5,14.9-39.9C25,4,25.4,2.5,25.6,1.5c0.3,0,1.2,0.1,2.4,0.1c1.4,0,2.1-0.1,2.3-0.1l1,3.8
	c1.8,5.2,11.3,34.6,13.9,41.2c2.3,5.4,2.8,5.8,8.4,6.5c0.2,0.3,0.1,1.2-0.2,1.4c-2.1-0.1-6.9-0.3-9.5-0.3c-3.4,0-8.1,0.1-10.1,0.3
	c-0.1-0.2-0.2-1.1,0-1.4c1.6-0.3,3.1-0.4,4.2-0.9c1.3-0.6,1.3-1.3,1-2.3c-1-3.7-4-12.4-5.6-16.9c-0.1,0-0.5-0.4-0.7-0.4
	c-0.9-0.1-2.7-0.1-7.4-0.1c-5.2,0-6.2,0-7.1,0.1c-0.3,0-0.6,0.3-0.7,0.6c-1.6,4.4-5.1,13.5-5.3,15.8c-0.2,1.5-0.3,2.8,2.5,3.4
	c1,0.3,1.9,0.5,3.7,0.7c0.2,0.2,0,1.2-0.2,1.4c-1.9,0-6-0.3-9.8-0.3s-6.4,0.3-8.1,0.3c-0.3-0.1-0.3-1.2,0-1.4
	C6.1,52.1,7,51.5,9.6,45.5L9.6,45.5z M25.6,9.3c-1.5,4-5.4,15.7-6.7,19.5c0,0.3,0.1,0.4,0.3,0.5c0.8,0.1,2.8,0.1,6.9,0.1
	c2.1,0,5.2,0,5.9-0.1c0.1,0,0.3-0.3,0.2-0.5L25.9,9.2C25.8,9.2,25.6,9.2,25.6,9.3z M56.8,1.3c3.4,0.1,5.8,0.3,9.6,0.3
	c4.6,0,6.7-0.2,12.4-0.2c5.1,0,14.4,1.3,14.4,11.6c0,4.9-3.2,9.2-8.9,11.4c-0.1,0.1-0.1,0.2,0,0.3c7.2,1.5,12.6,5.8,12.6,13.2
	c0,6.8-3.8,11.9-10.2,14.6c-3.9,1.6-8.4,2-12.6,2c-3.9,0-12.4-0.4-18-0.3c-0.2-0.2-0.2-1.3,0.1-1.4c1.7-0.2,3.4-0.3,4.9-0.7
	c1.6-0.4,2.2-1.5,2.4-4.6c0.2-2.7,0.3-7.7,0.3-20s0-17.2-0.2-20.5c-0.2-2.3-0.9-3.2-2.1-3.6c-1.2-0.4-3.3-0.6-4.7-0.8
	C56.5,2.5,56.5,1.4,56.8,1.3L56.8,1.3z M71.1,3.7c-0.4,0.2-0.7,1-0.7,1.4c-0.1,1.9-0.3,12.2-0.3,18.7c0,0.2,0.2,0.5,0.3,0.5
	c0.8,0.1,1.9,0.2,4.4,0.2c5,0,6.6-0.5,7.7-1.2c2.8-1.8,3.8-4.8,3.8-8.3c0-7.4-4-11.6-12.6-11.6C72.6,3.4,71.5,3.5,71.1,3.7L71.1,3.7
	z M89.5,39.9c0-8.9-6-13.5-15.2-13.5c-2.3,0-3.3,0.1-3.7,0.2c-0.1,0.1-0.3,0.2-0.3,0.3c0,5.5,0,17.9,0.3,21.5
	c0.1,0.9,0.6,1.8,1.3,2.3c1.5,1.2,4.9,1.6,6.4,1.6C86.1,52.4,89.5,48.1,89.5,39.9L89.5,39.9z M115.7,47.6
	c-5.1-5.6-7.3-13.1-7.3-20.2c0-6.2,1.8-11.6,4.7-16c4.8-7,14-11.4,22.8-11.4c17.1,0,26,12.6,26,26.8c0,7.1-1.7,12.6-5.1,17.5
	c-5,7.4-13.6,11.3-22.2,11.3C127,55.6,120,52.3,115.7,47.6z M147.3,49.6c5.3-4.6,7.3-12,7.3-20c0-8.8-2.9-18.3-9.9-23.4
	c-3.1-2.4-6.9-3.8-11.5-3.8c-3.2,0-5.9,0.9-8.3,2.1c-6.3,3.9-9,12-9,20.8s3.1,18.9,10.8,24.2c2.9,2.1,6.6,3.3,11.1,3.3
	C141.6,52.9,145,51.7,147.3,49.6z M171.6,1.3c1.3,0,5.5,0.3,9.9,0.3s7.4-0.3,9.3-0.3c0.2,0.2,0.2,1.1,0,1.3
	c-1.7,0.3-2.6,0.4-3.6,0.8c-1.6,0.4-2.1,1.3-2.2,4.7c-0.3,6.7-0.2,21.8,0,26.4c0.3,5.9,1.1,8.8,2.8,11.3c2.7,4.1,7.8,6.3,13.7,6.3
	c7.7,0,14.3-3,15-16.1c0.3-6.5,0.5-17.6,0.2-26.4c-0.1-5.2-1.6-5.9-3.8-6.4c-1.2-0.3-2-0.3-3.6-0.5c-0.2-0.2-0.1-1.1,0.1-1.3
	c1.4,0,4.2,0.2,9,0.2c3.6,0,6.3-0.2,7.8-0.2c0.2,0.2,0.2,1.1,0,1.3c-1.3,0.2-2.4,0.3-3.2,0.6c-2.2,0.7-2.8,1.9-2.9,6.7
	c-0.3,18.5-0.3,23.6-1.3,29.2c-1.8,12.5-10.6,16.3-20,16.3c-12.6,0-19-5.6-20.2-15.5c-0.7-5.3-0.4-25.3-0.6-32.2
	c0-2.3-0.3-4-2.2-4.6c-0.9-0.3-2.9-0.6-4.1-0.8C171.3,2.4,171.4,1.5,171.6,1.3L171.6,1.3z M268.1,54.3c-2.7,0-7.3-0.3-10.7-0.3
	c-5.5,0-9.7,0.3-12.2,0.3c-0.3-0.3-0.3-1.1,0-1.3c2.5-0.3,4.4-0.5,5.5-0.8c2.5-0.4,2.8-2.1,3-6.1c0.2-3.8,0.3-27.8,0.3-41.5
	c0-0.3-0.3-0.6-0.5-0.6c-1.6-0.1-10.2-0.1-12,0.1c-1.5,0.1-2.6,0.9-3.4,2.2c-1.1,1.7-2.2,4.8-3.2,7.5c-0.2,0.2-1.3,0-1.5-0.3
	c0.7-3.5,1.4-9.7,1.6-13.1c0,0,0.3-0.3,0.4-0.2c1.6,0.8,4.6,1.3,6.7,1.3h31.6c3.1,0,4.9-0.2,7.6-1c0.1,0,0.3,0.1,0.3,0.2
	c-0.8,2.6-1.4,8.3-1.7,12.9c-0.1,0.3-1.5,0.3-1.5,0c-0.2-2.2-0.6-5.2-1.3-7c-0.7-1.6-1.6-2.3-3.4-2.5C270.6,4,262.9,4,261.1,4.1
	c-0.3,0.1-0.4,0.5-0.4,0.8c0,12.2,0.2,37.1,0.3,41.5c0.3,4.8,1.2,5.4,3,5.9c1.3,0.3,2.2,0.4,4.2,0.7
	C268.4,53.2,268.4,54.2,268.1,54.3L268.1,54.3z"/>
</svg>
