<?xml version="1.0" encoding="utf-8"?>
<!-- Generator: Adobe Illustrator 26.5.0, SVG Export Plug-In . SVG Version: 6.00 Build 0)  -->
<svg version="1.1" id="圖層_1" xmlns="http://www.w3.org/2000/svg" xmlns:xlink="http://www.w3.org/1999/xlink" x="0px" y="0px"
	 viewBox="0 0 216 205" style="enable-background:new 0 0 216 205;" xml:space="preserve">
<style type="text/css">
	.st0{fill:#FF3EA1;}
	.st1{opacity:0.3;}
</style>
<path class="st0" d="M5.7,6.5c0.5,3,0.4,8-0.5,10.1L2,15.4c1.2-2.1,2.3-5.3,2.4-8.9H5.7z M6.9,0.8h3.3v31.3H6.9V0.8z M11.8,14.4
	c-0.3-2.2-0.8-4.8-1.5-7.6l1.2-0.5c1.4,2.2,2.6,4.5,3.4,7.2L11.8,14.4z M33.1,28.3l-2.6,4c-3.8-2.3-7.4-6.9-8.7-13.4
	c-1.2,6.3-4.3,10.6-10.4,13.5l-0.8-1.2c4.9-3.5,7-7.4,7.8-13.1H12v-1.8h6.6c0.1-1.5,0.2-3,0.2-4.7v-3h-4.9V6.8h4.9V0.7h3.5v6.1h7.1
	v9.5h3.1v1.8h-9.3C24.9,23.3,28.2,26.2,33.1,28.3z M22.1,16.3H26V8.6h-3.7v4C22.2,13.9,22.2,15.2,22.1,16.3z M66.2,27.3l-1.9,3.6
	C60.5,29.6,56,27,53.2,23v9.1h-3.5v-8.6C46.7,27,40.9,30,37,31l-0.5-1.3c4.1-1.6,8.6-4.6,11.2-8.2H37.4v-1.7h12.4v-2.5h3.5v2.5h12.5
	v1.7H54.1C57.3,24.5,61.6,26.3,66.2,27.3L66.2,27.3z M39.3,15c0.9-1.5,2-3.1,2.9-4.9c-1.6,0.7-2.8,1.2-4.1,1.5l-0.7-3.1
	c0.5,0,1.1,0,1.6,0c0.9-2.7,1.7-5.6,2-7.8l3.1,1c-0.9,2.3-2.3,4.9-3.5,6.8c0.9,0,1.7-0.1,2.6-0.2c0.5-1.1,1-2.3,1.5-3.4L47.1,6V4.3
	h3.2c0.1-1.4,0.2-2.8,0.3-3.9l3.3,0.5c-0.4,1-1.2,2.3-1.9,3.4h4v3.9c0.4,0,0.7,0.1,1.1,0.1C58,5.8,58.6,3.2,59,0.8l3.1,1
	c-1,2.3-2.2,4.5-3.6,6.5c0.8,0,1.7-0.1,2.6-0.2C61.5,7,62,6,62.4,4.9l2.8,1.5c-1.8,2.9-3.9,5.8-5.9,8.1c1-0.1,2.1-0.2,3.1-0.4
	c-0.1-0.7-0.3-1.4-0.5-2.2l1.2-0.4c1,1.7,2.1,3.8,2.6,5.5L63,17.7l-0.3-2.3c-1.9,0.9-4.1,1.7-6.1,2.1L56,14.7v2h-8.5l0.2,0.7L45,18
	c-0.1-0.7-0.2-1.5-0.3-2.2c-2,1-4.6,2-6.5,2.4L37.4,15C38,15,38.7,15,39.3,15L39.3,15z M41.1,14.9c1.2-0.1,2.3-0.3,3.4-0.5
	c-0.1-0.8-0.3-1.6-0.4-2.3l1.2-0.4c0.7,1.1,1.4,2.4,1.8,3.8V6.9C45.4,9.6,43.1,12.7,41.1,14.9L41.1,14.9z M49.8,9.3h3.3V6h-3.3V9.3z
	 M49.8,15h3.3v-4h-3.3V15z M56,9.1v5.5h1.7c0.9-1.4,1.8-2.9,2.6-4.6c-1.4,0.6-2.7,1-3.8,1.2L56,9.1z M70.6,28.2h12.9V16.8h-9.7v-1.9
	h9.7v-10H72.2v-2h26.2V5H87.3v10h9.8v1.9h-9.8v11.3h13v2.1H70.6V28.2L70.6,28.2z M133,2v30h-3.4v-1.7h-20.5v1.8h-3.4V2H133L133,2z
	 M129.6,3.7h-20.5v24.9h20.5V3.7z M110.4,25.9l-1-2.9c3.5-0.6,7.6-1.7,10.2-2.7l0.5,1.2C117.6,23.1,113.5,24.9,110.4,25.9
	L110.4,25.9z M119.6,10.3h-9.9V8.6h9.8c0-1.4-0.1-2.7-0.1-4.1h2.9c0,1.4,0,2.7,0.1,4.1h2.9c-0.6-1.4-1.5-2.9-2.1-4l1.1-0.8
	c1.1,0.8,2.7,2.5,3.5,3.7l-1.6,1.1h2.7v1.7h-6.5c0.1,2.8,0.4,5.3,0.8,7.4c0.8-1.8,1.5-3.8,1.9-6l2.7,0.9c-0.8,3.1-2.1,6-3.8,8.4
	c0.5,1.5,1.2,2.4,2,2.8c0.7,0.3,0.8-1.1,0.8-4.7h1.4c1.4,6.8,0,8.6-2.2,8.1c-1.8-0.4-3.2-1.7-4.1-3.7c-1.8,1.8-3.9,3.3-6.5,4.4
	l-0.6-1.2c2.6-1.6,4.7-3.4,6.3-5.5C120.2,18.2,119.8,14.3,119.6,10.3L119.6,10.3z M110.6,19.8v-7.4h8v7.4H110.6z M113.2,18.3h2.7V14
	h-2.7V18.3z M142.2,9.1H142v20.2h-3.2V4.5h4.5c4.4,7.6,7.8,13.7,11.3,20.2h0.2V4.5h3.2v24.8h-4.4C148.5,20,145.1,14.1,142.2,9.1z
	 M162.6,16.7c0-6.7,3.5-12.8,11-12.8s11,5.9,11,12.8s-3.2,13.2-11,13.2C165.8,29.9,162.6,23.3,162.6,16.7z M180.5,16.8
	c0-5.5-2.5-10.5-7.1-10.5c-4.7,0-6.7,4.9-6.7,10.5s2.5,10.5,6.9,10.5C177.9,27.3,180.5,22.4,180.5,16.8L180.5,16.8z M190.1,29.5
	c-1.5,0-2.7-1.2-2.7-2.6c0-1.5,1.2-2.6,2.7-2.6s2.6,1.1,2.6,2.6C192.8,28.3,191.5,29.5,190.1,29.5z M212.9,11.2
	c0,4.5-3.6,8.8-8.7,13.5l-2,1.8v0.2h11.3v2.5h-16.1v-2l2.7-2.3c5.5-4.8,8.7-9.7,8.8-13.3s-1.3-5.3-4.8-5.3c-2.4,0-4.5,1.1-6,2.4v-3
	c1.5-0.8,4.1-1.7,6.7-1.7C210.1,4,212.9,6.6,212.9,11.2L212.9,11.2z M27.8,86.5c-7.1,5.7-16.2,10.6-24.4,14.1l-3-7.5
	c3.2-0.8,6.6-1.8,10-2.9V70.4H2.5v-3.7h7.8v-16H1.7V47h24.2v3.8h-8.1v16h7.5v3.7h-7.5v17.1c2.9-1.1,5.7-2.3,8.3-3.6L27.8,86.5
	L27.8,86.5z M67,103.1v3.8H21.5v-3.8h19.9V91.9H27.5v-3.8h13.9v-9.2H27.3V44.6h36.4v34.3H49.2v9.2h14.1v3.8H49.2v11.3L67,103.1
	L67,103.1z M41.5,48.2h-7v11.3h7V48.2z M41.5,63.1h-7v12.1h7V63.1z M49.1,59.6h7.4V48.2h-7.4V59.6z M49.1,75.2h7.4V63.1h-7.4V75.2z
	 M140.1,93.1h-28v10c0,7.7-8.1,8.7-22.2,3.1l0.7-2.9c12.2,1.3,13.5,0.8,13.5-2.9v-7.2H75.3v-4.1h28.8V84l5.7,1
	c3.2-1.5,6.8-3.7,9.2-5.7H83v-3.8h37.3l3.3-1.1l6.9,5.8c-5.5,3.5-13.1,6-18.5,7.3V89h28v4.1H140.1z M139,53.6H75.7v-4.1h32.8
	c-4-2.1-8.8-4.3-12.3-6l0.8-3c4.9,0.6,12.1,2.1,17.4,4.2l-2.4,4.8h27V53.6L139,53.6z M87.1,71.2v-14h41.2v14H87.1z M94.7,67.5h26.2
	v-6.6H94.7V67.5z M208.8,108.9c-4.8-1.3-8.1-5.3-10.5-11.4c-4.8,5.3-10.6,9.5-17.6,12.2l-1.3-2.7c7.2-3.9,12.8-9.3,17-16
	c-2.1-9-3-20.7-3.3-33.5h-14.2v10.9H191c0.1,8.8,0,16.1-0.3,21.3c-0.4,6.9-6.6,8.5-13.1,3.6l0.8-2.8c4.6,1,5.6,0.6,5.8-1.8
	c0.3-3.9,0.4-9.1,0.4-16.7h-5.8v2.9c0,17.8-4.9,26.8-14.2,34.7l-2.1-2.1c5.4-6.1,8-13.3,8.9-23.7c-6.3,5.1-14.4,10-20.4,13l-3.2-7.5
	c2.4-0.7,5.2-1.6,8.3-2.7V65.3h-7.3v-3.7h7.3V43.1h7.2v18.4h7v3.8h-7v18.8c2.2-0.9,4.5-1.8,6.6-2.8l1.5,2.5c0.2-2.7,0.3-5.5,0.3-8.6
	V53.8H193c-0.1-4.1-0.1-8.3-0.1-12.5h6.9c0,4.1,0,8.3,0.1,12.5h7.3c-1.8-3.1-4.2-6.8-6.5-9.9l2.2-2.1c3.4,2.1,7.3,5.4,10.1,8.4
	l-4.3,3.5h5.6v3.8h-14.4c0.2,8.3,0.7,16.5,1.5,23.4c2.3-5.5,3.9-11.5,5.2-18.1l6.9,2.1c-2.1,9.7-5.5,18.5-10.3,25.9
	c1.4,5.1,3.2,8.6,5.8,9.9c1.8,0.9,2.4-0.2,2.1-10.8h2.9C217.8,106.5,214.2,110.3,208.8,108.9L208.8,108.9z"/>
<path class="st1" d="M3.7,181.1c-2-1.8-2.5-4.1-2.5-6.1c0-1.4,0.5-3.8,2.3-5.6c1.2-1.2,3.1-2.2,6.2-2.2c0.8,0,2,0.1,3,0.2
	c0.8,0.1,1.4,0.3,2.1,0.3c0.2,0,0.3,0.1,0.3,0.2c0,0.2-0.1,0.4-0.1,1.1c0,0.7,0,1.8-0.1,2.1c0,0.3-0.1,0.4-0.2,0.4
	c-0.1,0-0.2-0.1-0.2-0.4c0-0.8-0.3-1.6-0.9-2.1c-0.7-0.6-2.3-1.2-4.1-1.2c-2.7,0-4,0.8-4.7,1.5C3.4,171,3,172.8,3,174.9
	c0,3.9,3,7.5,7.4,7.5c1.5,0,2.7-0.2,3.6-1c0.4-0.4,0.7-1.4,0.8-1.7c0-0.2,0.1-0.3,0.2-0.3c0.1,0,0.1,0.1,0.1,0.3
	c0,0.1-0.2,1.9-0.4,2.6c-0.1,0.4-0.2,0.4-0.5,0.6c-0.8,0.3-2.4,0.5-3.7,0.5C7.3,183.3,5.3,182.6,3.7,181.1L3.7,181.1z M29.6,167.3
	c4.6,0,8,2.9,8,7.7s-3.2,8.4-8.2,8.4c-5.6,0-7.9-4.4-7.9-8C21.6,172,24,167.3,29.6,167.3L29.6,167.3z M30.1,182.6
	c1.8,0,5.7-1.1,5.7-7c0-4.9-3-7.6-6.2-7.6c-3.4,0-6,2.2-6,6.7C23.5,179.5,26.4,182.6,30.1,182.6z M61.8,180.4
	c0.1,0.7,0.2,1.9,1.1,2.2c0.6,0.2,1.1,0.2,1.3,0.2c0.1,0,0.2,0,0.2,0.1s-0.2,0.2-0.4,0.2c-0.4,0-2.7-0.1-3.4-0.1
	c-0.5,0-0.6-0.1-0.6-0.2c0-0.1,0-0.1,0.1-0.1s0.1-0.4,0.1-0.7l-1-10.6h-0.1l-5,10.6c-0.4,0.9-0.5,1.1-0.7,1.1
	c-0.1,0-0.2-0.2-0.6-0.9c-0.5-1-2.3-4.5-2.4-4.7c-0.2-0.4-2.5-5.3-2.7-5.8h-0.1l-0.8,9.5c0,0.3,0,0.7,0,1s0.2,0.6,0.5,0.6
	c0.3,0.1,0.7,0.1,0.8,0.1s0.2,0,0.2,0.1s-0.1,0.2-0.4,0.2c-0.8,0-1.7-0.1-1.9-0.1s-1.2,0.1-1.7,0.1c-0.2,0-0.3,0-0.3-0.2
	c0-0.1,0.1-0.1,0.2-0.1c0.2,0,0.3,0,0.6-0.1c0.7-0.1,0.7-0.9,0.8-1.7l1.5-13.3c0-0.2,0.1-0.4,0.2-0.4s0.2,0.1,0.3,0.3l6.3,12.9
	l6-12.9c0.1-0.2,0.2-0.3,0.3-0.3s0.2,0.2,0.2,0.6L61.8,180.4L61.8,180.4z M73.9,177.1c0,2,0,3.6,0.1,4.4c0.1,0.6,0.2,1,0.8,1.1
	c0.3,0,0.7,0.1,0.9,0.1c0.1,0,0.2,0.1,0.2,0.1c0,0.1-0.1,0.2-0.3,0.2c-1.1,0-2.4-0.1-2.5-0.1s-1.4,0.1-2,0.1c-0.2,0-0.3,0-0.3-0.2
	c0-0.1,0-0.1,0.2-0.1s0.4,0,0.6-0.1c0.4-0.1,0.5-0.5,0.6-1.1c0.1-0.9,0.1-2.5,0.1-4.4v-3.6c0-3.2,0-3.8,0-4.4c0-0.7-0.2-1-0.7-1.1
	c-0.2-0.1-0.5-0.1-0.6-0.1s-0.2,0-0.2-0.1s0.1-0.2,0.3-0.2c0.7,0,2,0.1,2.1,0.1s1.4-0.1,2-0.1c0.2,0,0.3,0,0.3,0.2
	c0,0.1-0.1,0.1-0.2,0.1s-0.3,0-0.5,0.1c-0.6,0.1-0.7,0.4-0.8,1.2c0,0.7,0,1.2,0,4.4L73.9,177.1L73.9,177.1z M85.8,180.3
	c0,1.7,0.2,2.2,0.8,2.4c0.4,0.1,0.8,0.1,1,0.1c0.1,0,0.2,0,0.2,0.1s-0.1,0.2-0.4,0.2c-1.2,0-2-0.1-2.2-0.1s-1,0.1-2,0.1
	c-0.2,0-0.3,0-0.3-0.2c0-0.1,0.1-0.1,0.2-0.1c0.2,0,0.5,0,0.8-0.1c0.5-0.1,0.6-0.7,0.6-2.6v-11.7c0-0.8,0.1-1,0.2-1
	c0.2,0,0.5,0.4,0.7,0.7c0.3,0.3,3.4,3.6,6.5,7c2,2.2,4.3,4.7,4.9,5.3L96.6,170c0-1.3-0.2-1.8-0.8-1.9c-0.4-0.1-0.8-0.1-1-0.1
	c-0.1,0-0.2-0.1-0.2-0.1c0-0.1,0.2-0.1,0.4-0.1c0.9,0,1.9,0.1,2.1,0.1s0.9-0.1,1.7-0.1c0.2,0,0.4,0,0.4,0.1S99.1,168,99,168
	s-0.2,0-0.5,0.1c-0.7,0.1-0.8,0.6-0.8,1.8v12c0,1.4,0,1.5-0.2,1.5s-0.4-0.2-1.5-1.3c-0.2-0.2-3.2-3.2-5.3-5.5
	c-2.4-2.6-4.7-5.1-5.3-5.9L85.8,180.3L85.8,180.3z M118.2,177.8c0-1.7-0.1-1.9-0.9-2.1c-0.2,0-0.5-0.1-0.7-0.1c-0.1,0-0.2,0-0.2-0.1
	s0.1-0.2,0.3-0.2c0.9,0,2.2,0.1,2.3,0.1c0.1,0,1.4-0.1,2-0.1c0.2,0,0.3,0,0.3,0.2c0,0.1-0.1,0.1-0.2,0.1s-0.3,0-0.5,0.1
	c-0.6,0.1-0.7,0.4-0.8,1.2c0,0.7,0,1.3,0,2.1v2.3c0,0.9,0,1-0.3,1.1c-1.3,0.7-3.2,0.9-4.3,0.9c-1.6,0-4.5-0.2-6.7-2.2
	c-1.2-1.1-2.4-3.3-2.4-5.8c0-3.3,1.6-5.6,3.4-6.7c1.8-1.1,3.9-1.3,5.4-1.3c1.3,0,2.7,0.3,3.1,0.3c0.4,0.1,1.1,0.2,1.7,0.2
	c0.2,0,0.2,0.1,0.2,0.2c0,0.3-0.1,0.9-0.1,2.9c0,0.3,0,0.4-0.2,0.4c-0.1,0-0.1-0.1-0.1-0.3c0-0.3-0.1-0.9-0.4-1.4
	c-0.5-0.8-2.2-1.7-4.8-1.7c-1.3,0-2.8,0.1-4.4,1.4c-1.2,0.9-2,2.8-2,5.2c0,2.9,1.5,5,2.2,5.7c1.6,1.6,3.5,2.2,5.4,2.2
	c0.7,0,1.8-0.1,2.3-0.4c0.3-0.1,0.4-0.4,0.4-0.7L118.2,177.8L118.2,177.8z M139.6,182.8c-0.3-0.1-0.3-0.2-0.3-0.8
	c0-1,0.1-1.8,0.1-2.2c0-0.2,0.1-0.3,0.2-0.3c0.1,0,0.1,0.1,0.1,0.2c0,0.2,0,0.5,0.1,0.8c0.3,1.5,1.7,2.1,3,2.1c2,0,2.9-1.4,2.9-2.7
	c0-1.4-0.6-2.2-2.4-3.7l-0.9-0.8c-2.2-1.8-2.7-3.1-2.7-4.4c0-2.2,1.6-3.7,4.2-3.7c0.8,0,1.4,0.1,1.9,0.2c0.4,0.1,0.6,0.1,0.7,0.1
	s0.2,0,0.2,0.1s-0.1,0.8-0.1,2.2c0,0.3,0,0.5-0.1,0.5s-0.1-0.1-0.2-0.3c0-0.2-0.1-0.8-0.3-1c-0.1-0.2-0.7-1.1-2.6-1.1
	c-1.4,0-2.5,0.9-2.5,2.4c0,1.2,0.5,1.9,2.5,3.4l0.6,0.4c2.4,1.9,3,3.2,3,4.8c0,0.8-0.3,2.4-1.7,3.4c-0.9,0.6-2,0.9-3.1,0.9
	C141.4,183.3,140.5,183.2,139.6,182.8L139.6,182.8z M162.5,167.3c4.6,0,8.1,2.9,8.1,7.7s-3.2,8.4-8.2,8.4c-5.6,0-7.9-4.4-7.9-8
	C154.4,172,156.8,167.3,162.5,167.3L162.5,167.3z M162.9,182.6c1.8,0,5.7-1.1,5.7-7c0-4.9-3-7.6-6.2-7.6c-3.4,0-6,2.2-6,6.7
	C156.3,179.5,159.2,182.6,162.9,182.6z M185.3,167.3c4.6,0,8.1,2.9,8.1,7.7s-3.2,8.4-8.2,8.4c-5.6,0-7.9-4.4-7.9-8
	C177.2,172,179.6,167.3,185.3,167.3L185.3,167.3z M185.7,182.6c1.8,0,5.7-1.1,5.7-7c0-4.9-3-7.6-6.2-7.6c-3.4,0-6,2.2-6,6.7
	C179.2,179.5,182,182.6,185.7,182.6z M202.3,180.3c0,1.7,0.2,2.2,0.8,2.4c0.4,0.1,0.8,0.1,1,0.1c0.1,0,0.2,0,0.2,0.1
	s-0.1,0.2-0.4,0.2c-1.2,0-2-0.1-2.2-0.1s-1,0.1-2,0.1c-0.2,0-0.3,0-0.3-0.2c0-0.1,0.1-0.1,0.2-0.1c0.2,0,0.5,0,0.8-0.1
	c0.5-0.1,0.6-0.7,0.6-2.6v-11.7c0-0.8,0.1-1,0.2-1s0.5,0.4,0.7,0.7c0.3,0.3,3.4,3.6,6.5,7c2,2.2,4.3,4.7,4.9,5.3l-0.2-10.4
	c0-1.3-0.2-1.8-0.8-1.9c-0.4-0.1-0.8-0.1-1-0.1c-0.1,0-0.2-0.1-0.2-0.1c0-0.1,0.2-0.1,0.4-0.1c0.9,0,1.9,0.1,2.1,0.1
	c0.2,0,0.9-0.1,1.7-0.1c0.2,0,0.4,0,0.4,0.1s-0.1,0.1-0.2,0.1c-0.1,0-0.2,0-0.5,0.1c-0.7,0.1-0.8,0.6-0.8,1.8v12
	c0,1.4,0,1.5-0.2,1.5s-0.4-0.2-1.5-1.3c-0.2-0.2-3.2-3.2-5.3-5.5c-2.4-2.6-4.7-5.1-5.3-5.9L202.3,180.3L202.3,180.3z M4.4,153
	l-1.8-2.4l1.4-0.4v-23.6h12.4v15.3H7.2v7l5.1-2.3l-1.7-2.8l2.7-1.1c2.2,3.5,3.9,6,4.9,7.7l-2.7,1.3c-0.1-0.2-0.3-0.6-0.6-1
	c-0.6-0.8-1-1.4-1.2-1.9c-0.6,0.2-1.4,0.6-2.7,1.2c-1.9,0.6-3.2,1.2-4,1.6c-0.2,0.1-0.6,0.2-1,0.5C5.8,152.3,5.2,152.6,4.4,153
	L4.4,153z M7.2,129.4v3.6h6.3v-3.6H7.2z M7.2,139.2h6.3v-3.6H7.2V139.2z M19.3,153.9v-26.7h11v18.3c0.2,2.7-1.1,4.1-3.9,4.2
	c-0.4,0-0.9,0-1.4,0.1h-1.3c-0.1-0.5-0.2-1.2-0.4-2.2c-0.1-0.4-0.2-0.7-0.2-1c0.6,0.1,1.4,0.1,2.3,0.1c1.4,0.1,2-0.6,1.9-1.9v-14.7
	h-4.9v23.7L19.3,153.9L19.3,153.9z M48.6,125.2v27.1h-1.1v-27.1C47.5,125.2,48.6,125.2,48.6,125.2z M66.2,137.4v-10.7h2.7v6.6h2.9
	v-8.2h3v28.8h-3v-11.2h-2.1l-0.1,2c0.1,3.6-1,6.5-3.1,8.7c-0.8-0.8-1.6-1.4-2.3-1.9c1.8-1.8,2.8-4.1,2.8-6.9v-1.9h-2.7v-2.9h7.5
	v-3.6h-2.9v1.2L66.2,137.4L66.2,137.4z M77.1,140.2c-0.4-1-0.8-1.9-1.3-2.5c1.5-0.3,2.9-0.7,4.1-1.2c-0.2-0.2-0.6-0.6-1.1-1
	c-0.4-0.5-0.8-0.8-1.1-1.1l2.1-1.3c0.2,0.2,0.4,0.4,0.7,0.6c0.9,0.8,1.5,1.4,1.9,1.8c0.4-0.2,0.9-0.4,1.4-0.6
	c0.2-0.2,0.3-0.2,0.4-0.2c-0.2-0.3-0.7-0.8-1.3-1.3c-0.6-0.6-1.1-1.1-1.4-1.3l2.1-1.3c1,0.8,1.9,1.6,2.9,2.5c1-0.8,2-1.8,3-3h-8.2
	c-1,1-2.5,2.2-4.5,3.6c-0.4-0.9-0.8-1.7-1.3-2.5c2.7-1.8,4.9-3.9,6.5-6.3l3.1,0.5c-0.5,0.7-1,1.4-1.4,2h8.9v2.9
	C89.5,135.3,84.4,138.6,77.1,140.2L77.1,140.2z M75.9,143.8v-2.9h11v-3.5H90v3.5h3.4v2.9H90v6c0.2,2.4-1.1,3.6-3.9,3.6
	c-1.4,0.1-2.8,0.1-4.2,0.1c-0.2-1-0.4-2-0.6-3H85c1.4,0.1,2-0.4,1.9-1.6v-5.2L75.9,143.8L75.9,143.8z M80.8,150.1
	c-1-1.2-2.3-2.6-3.6-4.1l2.3-1.7c1.3,1.1,2.5,2.4,3.7,3.7L80.8,150.1L80.8,150.1z M110.4,125.2v27.1h-1.1v-27.1
	C109.3,125.2,110.4,125.2,110.4,125.2z M127.8,141.9c-0.2-0.4-0.7-1-1.4-1.9c-0.3-0.4-0.6-0.7-0.7-1c3.8-2.8,6.4-6,8-9.6l3.1,1.3
	C134.5,135.2,131.5,138.9,127.8,141.9z M128.4,152.6l-0.8-2.9c0.3,0,0.8,0,1.4-0.1h1.3c3.1-4.3,5.9-8.8,8.2-13.4l3.4,1.6
	c-2.3,3.6-4.8,7.5-7.6,11.6l12.3-0.7c-0.6-0.7-1.4-1.7-2.4-3c-0.7-1-1.3-1.8-1.7-2.3l2.5-1.7c1.4,1.8,3.7,4.5,6.8,8.3
	c0.8,0.9,1.4,1.6,1.8,2l-2.9,1.9l-2.1-2.7c-3.1,0.2-7.8,0.5-14.2,1C131.8,152.4,129.8,152.5,128.4,152.6L128.4,152.6z M153.4,140.8
	c-4.7-3.1-8.1-7.2-10-12.1h-7.5v-2.5h9.9c2,5,5.2,8.8,9.7,11.4c-0.1,0.1-0.2,0.2-0.4,0.5C154.3,139.4,153.8,140.2,153.4,140.8
	L153.4,140.8z M172.1,125.2v27.1H171v-27.1C171,125.2,172.1,125.2,172.1,125.2z M189.1,153.8v-27.5h11.8v10.1H192v17.4H189.1z
	 M192,128.5v2h6.1v-2H192z M192,134.4h6.1v-2H192V134.4z M204.4,151.9v-5.7h-4.5c-0.2,2.3-1.5,4.4-4,6.1c-0.8-0.6-1.6-1.2-2.3-1.7
	c2.2-1.4,3.3-2.8,3.5-4.5h-3.9v-2.4h4.1v-3.1h-2.8v-2.3h15.3v2.3H207v3.1h4.2v2.4H207v5.7L204.4,151.9L204.4,151.9z M200.2,143.5
	v0.4h4.2v-3.1h-4.2V143.5z M208.1,153.6c-0.1-0.2-0.2-0.7-0.2-1.3c-0.2-0.6-0.3-1.1-0.4-1.3h3c1.5,0.1,2.2-0.5,2.2-1.8v-12.7h-8.9
	v-10.1h11.9v23.1c0,2.7-1.4,4-4.1,4.1H208.1L208.1,153.6z M206.6,128.5v2h6.1v-2H206.6z M206.6,132.4v2h6.1v-2H206.6z M52.1,195.9
	c0,0.4,0,0.7,0,0.9c0,0.1,0,0.2,0.2,0.2c0.1,0,0.1,0,0.2,0l0,0c0,0,0,0-0.1,0c-0.2,0-0.5,0-0.5,0s-0.3,0-0.4,0h-0.1l0,0h0.1
	c0.1,0,0.1-0.1,0.1-0.2c0-0.2,0-0.5,0-0.9v-1.7H51c-0.2,0-0.3,0-0.4,0.1c0,0.1-0.1,0.1-0.1,0.1l0,0l0,0l0.1-0.4v-0.1
	c0,0,0.1,0,0.2,0c0.1,0,0.3,0,0.3,0h1.5c0.1,0,0.2,0,0.3,0s0.1,0,0.1,0l0,0c0,0.1,0,0.4,0,0.4v0.1c0,0,0,0,0-0.1l0,0
	c0-0.1-0.1-0.2-0.5-0.2H52L52.1,195.9L52.1,195.9z M55.9,196c0,0.3,0,0.6,0,0.7c0,0.1,0,0.2,0.1,0.2c0,0,0.1,0,0.2,0l0,0
	c0,0,0,0-0.1,0c-0.2,0-0.4,0-0.4,0s-0.2,0-0.3,0h-0.1l0,0h0.1c0.1,0,0.1-0.1,0.1-0.2c0-0.1,0-0.4,0-0.7v-0.3l0,0H54l0,0v0.3
	c0,0.3,0,0.6,0,0.7c0,0.1,0,0.2,0.1,0.2s0.1,0,0.2,0l0,0c0,0,0,0-0.1,0c-0.2,0-0.4,0-0.4,0s-0.2,0-0.3,0h-0.1l0,0h0.1
	c0.1,0,0.1-0.1,0.1-0.2c0-0.1,0-0.4,0-0.7v-0.6c0-0.5,0-0.6,0-0.7c0-0.1,0-0.2-0.1-0.2h-0.1l0,0c0,0,0,0,0.1,0c0.2,0,0.4,0,0.4,0
	s0.2,0,0.3,0h0.1l0,0c0,0,0,0-0.1,0s-0.1,0.1-0.1,0.2c0,0.1,0,0.2,0,0.7v0.1l0,0h1.5l0,0v-0.1c0-0.5,0-0.6,0-0.7
	c0-0.1,0-0.2-0.1-0.2h-0.1l0,0c0,0,0,0,0.1,0c0.2,0,0.4,0,0.4,0s0.2,0,0.3,0h0.1l0,0c0,0,0,0-0.1,0s-0.1,0.1-0.1,0.2
	c0,0.1,0,0.2,0,0.7L55.9,196L55.9,196z M57.1,195.4c0-0.5,0-0.6,0-0.7c0-0.1,0-0.2-0.1-0.2h-0.1l0,0c0,0,0,0,0.1,0
	c0.2,0,0.4,0,0.4,0h0.8c0.1,0,0.1,0,0.2,0l0,0l0,0c0,0,0,0.1,0,0.2v0.2l0,0l0,0v-0.1c0-0.1-0.1-0.1-0.3-0.1c-0.1,0-0.5,0-0.5,0l0,0
	v0.9l0,0c0,0,0.5,0,0.6,0s0.1,0,0.2,0c0,0,0,0,0.1,0l0,0c0,0,0,0.1,0,0.2c0,0.1,0,0.2,0,0.2v0.1l0,0V196c0,0,0-0.1-0.2-0.1
	c-0.1,0-0.5,0-0.5,0l0,0v0.3c0,0.1,0,0.5,0,0.6c0,0.2,0.1,0.3,0.4,0.3c0.1,0,0.3,0,0.3,0c0.1,0,0.1-0.1,0.2-0.2v-0.1c0,0,0,0,0,0.1
	s0,0.3,0,0.3c0,0.1-0.1,0.1-0.2,0.1c-0.3,0-0.5,0-0.6,0s-0.2,0-0.3,0h-0.1c-0.1,0-0.1,0-0.2,0h-0.1l0,0h0.1c0.1,0,0.1-0.1,0.1-0.2
	c0-0.1,0-0.4,0-0.7L57.1,195.4L57.1,195.4z M59.3,195.4c0-0.5,0-0.6,0-0.7c0-0.1,0-0.2-0.1-0.2h-0.1l0,0c0,0,0,0,0.1,0
	c0.2,0,0.4,0,0.4,0s0.3,0,0.4,0c0.2,0,0.5,0,0.7,0.1c0.1,0.1,0.2,0.2,0.2,0.5s-0.1,0.5-0.4,0.8c0.3,0.4,0.5,0.7,0.7,0.9
	s0.3,0.2,0.4,0.2c0.1,0,0.1,0,0.1,0l0,0c0,0,0,0-0.1,0h-0.2c-0.2,0-0.3,0-0.4-0.1c-0.1-0.1-0.3-0.2-0.5-0.5
	c-0.1-0.2-0.3-0.4-0.4-0.5l0,0h-0.4l0,0v0.1c0,0.3,0,0.6,0,0.7c0,0.1,0,0.2,0.1,0.2c0,0,0.1,0,0.2,0l0,0c0,0,0,0-0.1,0
	c-0.2,0-0.4,0-0.4,0s-0.2,0-0.3,0h-0.1l0,0h0.1c0.1,0,0.1-0.1,0.1-0.2c0-0.1,0-0.4,0-0.7V195.4L59.3,195.4z M59.6,195.7
	C59.6,195.8,59.6,195.8,59.6,195.7c0.1,0.1,0.3,0.1,0.4,0.1c0.1,0,0.2,0,0.3-0.1s0.2-0.3,0.2-0.5c0-0.4-0.2-0.7-0.6-0.7
	c-0.1,0-0.2,0-0.3,0l0,0L59.6,195.7L59.6,195.7z M62,195.4c0-0.5,0-0.6,0-0.7c0-0.1,0-0.2-0.1-0.2h-0.1l0,0c0,0,0,0,0.1,0
	c0.2,0,0.4,0,0.4,0h0.8c0.1,0,0.1,0,0.2,0l0,0l0,0c0,0,0,0.1,0,0.2v0.2l0,0l0,0v-0.1c0-0.1-0.1-0.1-0.3-0.1c-0.1,0-0.5,0-0.5,0l0,0
	v0.9l0,0c0,0,0.5,0,0.6,0s0.1,0,0.2,0c0,0,0,0,0.1,0l0,0c0,0,0,0.1,0,0.2c0,0.1,0,0.2,0,0.2v0.1l0,0V196c0,0,0-0.1-0.2-0.1
	c-0.1,0-0.5,0-0.5,0l0,0v0.3c0,0.1,0,0.5,0,0.6c0,0.2,0.1,0.3,0.4,0.3c0.1,0,0.3,0,0.3,0c0.1,0,0.1-0.1,0.2-0.2v-0.1c0,0,0,0,0,0.1
	s0,0.3,0,0.3c0,0.1-0.1,0.1-0.2,0.1c-0.3,0-0.5,0-0.6,0s-0.2,0-0.3,0h-0.1c-0.1,0-0.1,0-0.2,0h-0.1l0,0h0.1c0.1,0,0.1-0.1,0.1-0.2
	c0-0.1,0-0.4,0-0.7v-1H62z M65.7,196.1c0,0.5,0,0.7,0.1,0.8s0.2,0.1,0.5,0.1c0.2,0,0.3,0,0.4-0.1c0-0.1,0.1-0.1,0.1-0.2l0,0
	c0,0,0,0,0,0.1c0,0,0,0.2-0.1,0.3c0,0.1,0,0.1-0.2,0.1c-0.3,0-0.4,0-0.6,0s-0.3,0-0.4,0h-0.1c-0.1,0-0.1,0-0.2,0h-0.1l0,0h0.1
	c0.1,0,0.1-0.1,0.1-0.2c0-0.1,0-0.4,0-0.7v-0.6c0-0.5,0-0.6,0-0.7c0-0.1,0-0.2-0.1-0.2h-0.1l0,0c0,0,0,0,0.1,0c0.2,0,0.4,0,0.4,0
	s0.3,0,0.4,0h0.1l0,0H66c-0.1,0-0.1,0.1-0.1,0.2c0,0.1,0,0.2,0,0.7v0.4H65.7z M67.9,196c0,0.3,0,0.6,0,0.7c0,0.1,0,0.2,0.1,0.2
	s0.1,0,0.2,0l0,0c0,0,0,0-0.1,0c-0.2,0-0.4,0-0.4,0s-0.2,0-0.3,0h-0.1l0,0h0.1c0.1,0,0.1-0.1,0.1-0.2c0-0.1,0-0.4,0-0.7v-0.6
	c0-0.5,0-0.6,0-0.7c0-0.1,0-0.2-0.1-0.2h-0.1l0,0c0,0,0,0,0.1,0s0.3,0,0.4,0c0,0,0.2,0,0.3,0h0.1l0,0c0,0,0,0-0.1,0
	s-0.1,0.1-0.1,0.2c0,0.1,0,0.2,0,0.7L67.9,196L67.9,196z M69.9,196c0,0.3,0,0.6,0,0.7c0,0.1,0,0.2,0.1,0.2c0,0,0.1,0,0.2,0l0,0
	c0,0,0,0-0.1,0c-0.2,0-0.4,0-0.4,0s-0.3,0-0.4,0h-0.1l0,0h0.1c0.1,0,0.1-0.1,0.1-0.2c0-0.1,0-0.4,0-0.7v-1.4h-0.5
	c-0.2,0-0.3,0-0.4,0.1c0,0.1,0,0.1-0.1,0.1l0,0l0,0c0,0,0.1-0.3,0.1-0.4v-0.1c0,0,0.1,0,0.2,0s0.2,0,0.3,0h1.3c0.1,0,0.2,0,0.3,0
	c0.1,0,0.1,0,0.1,0l0,0c0,0.1,0,0.3,0,0.4l0,0c0,0,0,0,0-0.1l0,0c0-0.1-0.1-0.2-0.4-0.2h-0.4L69.9,196L69.9,196z M72.3,196
	c0,0.3,0,0.6,0,0.7c0,0.1,0,0.2,0.1,0.2c0,0,0.1,0,0.2,0l0,0c0,0,0,0-0.1,0c-0.2,0-0.4,0-0.4,0s-0.3,0-0.4,0h-0.1l0,0h0.1
	c0.1,0,0.1-0.1,0.1-0.2c0-0.1,0-0.4,0-0.7v-1.4h-0.5c-0.2,0-0.3,0-0.4,0.1c0,0.1,0,0.1-0.1,0.1l0,0l0,0c0,0,0.1-0.3,0.1-0.4v-0.1
	c0,0,0.1,0,0.2,0s0.2,0,0.3,0h1.3c0.1,0,0.2,0,0.3,0c0.1,0,0.1,0,0.1,0l0,0c0,0.1,0,0.3,0,0.4l0,0c0,0,0,0,0-0.1l0,0
	c0-0.1-0.1-0.2-0.4-0.2h-0.4L72.3,196L72.3,196z M74.3,196.1c0,0.5,0,0.7,0.1,0.8s0.2,0.1,0.5,0.1c0.2,0,0.3,0,0.4-0.1
	c0-0.1,0.1-0.1,0.1-0.2l0,0c0,0,0,0,0,0.1c0,0,0,0.2-0.1,0.3c0,0.1,0,0.1-0.2,0.1c-0.3,0-0.4,0-0.6,0s-0.3,0-0.4,0H74
	c-0.1,0-0.1,0-0.2,0h-0.1l0,0h0.1c0.1,0,0.1-0.1,0.1-0.2c0-0.1,0-0.4,0-0.7v-0.6c0-0.5,0-0.6,0-0.7c0-0.1,0-0.2-0.1-0.2h-0.1l0,0
	c0,0,0,0,0.1,0c0.2,0,0.4,0,0.4,0s0.3,0,0.4,0h0.1l0,0h-0.1c-0.1,0-0.1,0.1-0.1,0.2c0,0.1,0,0.2,0,0.7v0.4H74.3z M76.1,195.4
	c0-0.5,0-0.6,0-0.7c0-0.1,0-0.2-0.1-0.2h-0.1l0,0c0,0,0,0,0.1,0c0.2,0,0.4,0,0.4,0h0.8c0.1,0,0.1,0,0.2,0l0,0l0,0c0,0,0,0.1,0,0.2
	v0.2l0,0l0,0v-0.1c0-0.1-0.1-0.1-0.3-0.1c-0.1,0-0.5,0-0.5,0l0,0v0.9l0,0c0,0,0.5,0,0.6,0s0.1,0,0.2,0c0,0,0,0,0.1,0l0,0
	c0,0,0,0.1,0,0.2c0,0.1,0,0.2,0,0.2v0.1l0,0V196c0,0,0-0.1-0.2-0.1c-0.1,0-0.5,0-0.5,0l0,0v0.3c0,0.1,0,0.5,0,0.6
	c0,0.2,0.1,0.3,0.4,0.3c0.1,0,0.3,0,0.3,0c0.1,0,0.1-0.1,0.2-0.2v-0.1c0,0,0,0,0,0.1s0,0.3,0,0.3c0,0.1-0.1,0.1-0.2,0.1
	c-0.3,0-0.5,0-0.6,0s-0.2,0-0.3,0h-0.1c-0.1,0-0.1,0-0.2,0h-0.1l0,0h0.1c0.1,0,0.1-0.1,0.1-0.2c0-0.1,0-0.4,0-0.7L76.1,195.4
	L76.1,195.4z M80.3,196c0,0.3,0,0.6,0,0.7c0,0.1,0,0.2,0.1,0.2c0,0,0.1,0,0.2,0l0,0c0,0,0,0-0.1,0c-0.2,0-0.4,0-0.4,0s-0.3,0-0.4,0
	h-0.1l0,0h0.1c0.1,0,0.1-0.1,0.1-0.2c0-0.1,0-0.4,0-0.7v-1.4h-0.5c-0.2,0-0.3,0-0.4,0.1c0,0.1,0,0.1-0.1,0.1l0,0l0,0
	c0,0,0.1-0.3,0.1-0.4v-0.1c0,0,0.1,0,0.2,0s0.2,0,0.3,0h1.3c0.1,0,0.2,0,0.3,0c0.1,0,0.1,0,0.1,0l0,0c0,0.1,0,0.3,0,0.4l0,0
	c0,0,0,0,0-0.1l0,0c0-0.1-0.1-0.2-0.4-0.2h-0.4L80.3,196L80.3,196z M84.1,196c0,0.3,0,0.6,0,0.7c0,0.1,0,0.2,0.1,0.2
	c0,0,0.1,0,0.2,0l0,0c0,0,0,0-0.1,0c-0.2,0-0.4,0-0.4,0s-0.2,0-0.3,0h-0.1l0,0h0.1c0.1,0,0.1-0.1,0.1-0.2c0-0.1,0-0.4,0-0.7v-0.3
	l0,0h-1.5l0,0v0.3c0,0.3,0,0.6,0,0.7c0,0.1,0,0.2,0.1,0.2s0.1,0,0.2,0l0,0c0,0,0,0-0.1,0c-0.2,0-0.4,0-0.4,0s-0.2,0-0.3,0h-0.1l0,0
	h0.1c0.1,0,0.1-0.1,0.1-0.2c0-0.1,0-0.4,0-0.7v-0.6c0-0.5,0-0.6,0-0.7c0-0.1,0-0.2-0.1-0.2h-0.1l0,0c0,0,0,0,0.1,0
	c0.2,0,0.4,0,0.4,0s0.2,0,0.3,0h0.1l0,0c0,0,0,0-0.1,0s-0.1,0.1-0.1,0.2c0,0.1,0,0.2,0,0.7v0.1l0,0h1.5l0,0v-0.1c0-0.5,0-0.6,0-0.7
	c0-0.1,0-0.2-0.1-0.2h-0.1l0,0c0,0,0,0,0.1,0c0.2,0,0.4,0,0.4,0s0.2,0,0.3,0h0.1l0,0c0,0,0,0-0.1,0s-0.1,0.1-0.1,0.2
	c0,0.1,0,0.2,0,0.7L84.1,196L84.1,196z M86.3,194.4c0.8,0,1.4,0.5,1.4,1.3s-0.6,1.4-1.4,1.4c-1,0-1.4-0.7-1.4-1.3
	C84.9,195.2,85.3,194.4,86.3,194.4L86.3,194.4z M86.4,196.9c0.3,0,0.9-0.2,0.9-1.1c0-0.8-0.5-1.2-1-1.2c-0.6,0-1,0.4-1,1.1
	C85.3,196.4,85.8,196.9,86.4,196.9z M88.4,195.4c0-0.5,0-0.6,0-0.7c0-0.1,0-0.2-0.1-0.2h-0.1l0,0c0,0,0,0,0.1,0c0.2,0,0.4,0,0.4,0
	s0.3,0,0.4,0h0.1l0,0c0,0,0,0-0.1,0s-0.1,0.1-0.1,0.2c0,0.1,0,0.2,0,0.7v0.5c0,0.5,0.1,0.7,0.3,0.8c0.2,0.2,0.3,0.2,0.5,0.2
	s0.4-0.1,0.5-0.2c0.2-0.2,0.2-0.5,0.2-0.8v-0.4c0-0.5,0-0.6,0-0.7c0-0.1,0-0.2-0.1-0.2h-0.1l0,0c0,0,0,0,0.1,0c0.2,0,0.4,0,0.4,0
	s0.2,0,0.3,0h0.1l0,0c0,0,0,0-0.1,0s-0.1,0.1-0.1,0.2c0,0.1,0,0.2,0,0.7v0.4c0,0.4,0,0.8-0.3,1s-0.5,0.2-0.7,0.2
	c-0.1,0-0.5,0-0.7-0.2S89,196.5,89,196L88.4,195.4L88.4,195.4z M93.1,196.2c0-0.3,0-0.3-0.1-0.3h-0.1l0,0c0,0,0,0,0.1,0
	c0.2,0,0.4,0,0.4,0s0.2,0,0.3,0h0.1l0,0c0,0,0,0-0.1,0s-0.1,0.1-0.1,0.2c0,0.1,0,0.2,0,0.3v0.4c0,0.2,0,0.2,0,0.2
	c-0.2,0.1-0.5,0.1-0.7,0.1c-0.3,0-0.8,0-1.2-0.4c-0.2-0.2-0.4-0.5-0.4-1s0.3-0.9,0.6-1.1c0.3-0.2,0.7-0.2,0.9-0.2
	c0.2,0,0.5,0,0.5,0.1c0.1,0,0.2,0,0.3,0l0,0c0,0,0,0.1,0,0.5c0,0.1,0,0.1,0,0.1s0,0,0-0.1c0,0,0-0.1-0.1-0.2
	c-0.1-0.1-0.4-0.3-0.8-0.3c-0.2,0-0.5,0-0.7,0.2s-0.3,0.5-0.3,0.9c0,0.5,0.2,0.8,0.4,0.9c0.3,0.3,0.6,0.4,0.9,0.4
	c0.1,0,0.3,0,0.4-0.1c0,0,0.1,0,0.1-0.1v-0.5H93.1z M96.6,196c0,0.3,0,0.6,0,0.7c0,0.1,0,0.2,0.1,0.2c0,0,0.1,0,0.2,0l0,0
	c0,0,0,0-0.1,0c-0.2,0-0.4,0-0.4,0s-0.2,0-0.3,0H96l0,0h0.1c0.1,0,0.1-0.1,0.1-0.2c0-0.1,0-0.4,0-0.7v-0.3l0,0h-1.5l0,0v0.3
	c0,0.3,0,0.6,0,0.7c0,0.1,0,0.2,0.1,0.2s0.1,0,0.2,0l0,0c0,0,0,0-0.1,0c-0.2,0-0.4,0-0.4,0s-0.2,0-0.3,0h-0.1l0,0h0.1
	c0.1,0,0.1-0.1,0.1-0.2c0-0.1,0-0.4,0-0.7v-0.6c0-0.5,0-0.6,0-0.7c0-0.1,0-0.2-0.1-0.2h-0.1l0,0c0,0,0,0,0.1,0c0.2,0,0.4,0,0.4,0
	s0.2,0,0.3,0H95l0,0c0,0,0,0-0.1,0s-0.1,0.1-0.1,0.2c0,0.1,0,0.2,0,0.7v0.1l0,0h1.5l0,0v-0.1c0-0.5,0-0.6,0-0.7c0-0.1,0-0.2-0.1-0.2
	h-0.1l0,0c0,0,0,0,0.1,0c0.2,0,0.4,0,0.4,0s0.2,0,0.3,0H97l0,0c0,0,0,0-0.1,0s-0.1,0.1-0.1,0.2c0,0.1,0,0.2,0,0.7L96.6,196L96.6,196
	z M98.6,196c0,0.3,0,0.6,0,0.7c0,0.1,0,0.2,0.1,0.2c0,0,0.1,0,0.2,0l0,0c0,0,0,0-0.1,0c-0.2,0-0.4,0-0.4,0s-0.3,0-0.4,0h-0.1l0,0H98
	c0.1,0,0.1-0.1,0.1-0.2c0-0.1,0-0.4,0-0.7v-1.4h-0.5c-0.2,0-0.3,0-0.4,0.1c0,0.1,0,0.1-0.1,0.1l0,0l0,0c0,0,0.1-0.3,0.1-0.4v-0.1
	c0,0,0.1,0,0.2,0s0.2,0,0.3,0H99c0.1,0,0.2,0,0.3,0c0.1,0,0.1,0,0.1,0l0,0c0,0.1,0,0.3,0,0.4l0,0c0,0,0,0,0-0.1l0,0
	c0-0.1-0.1-0.2-0.4-0.2h-0.4L98.6,196L98.6,196z M99.9,197c0,0-0.1,0-0.1-0.1c0-0.2,0-0.3,0-0.4v-0.1l0,0v0.1
	c0.1,0.2,0.3,0.3,0.6,0.3c0.3,0,0.5-0.2,0.5-0.4c0-0.3-0.1-0.4-0.4-0.6l-0.2-0.1c-0.4-0.3-0.5-0.5-0.5-0.7c0-0.4,0.3-0.6,0.8-0.6
	c0.1,0,0.3,0,0.4,0s0.1,0,0.1,0l0,0c0,0,0,0.1,0,0.4c0,0.1,0,0.1,0,0.1l0,0c0,0,0-0.1-0.1-0.2c0,0-0.1-0.2-0.5-0.2
	c-0.3,0-0.5,0.1-0.5,0.4c0,0.2,0.1,0.3,0.5,0.6l0.1,0.1c0.4,0.3,0.6,0.5,0.6,0.8c0,0.2-0.1,0.4-0.3,0.6c-0.1,0.1-0.4,0.1-0.6,0.1
	C100.2,197.1,100,197,99.9,197L99.9,197z M104.1,194.5c0-0.1,0.1-0.1,0.1-0.1s0,0,0.1,0.1s0.6,1.5,0.8,2c0.1,0.3,0.2,0.3,0.3,0.4
	c0.1,0,0.1,0,0.1,0l0,0c0,0,0,0-0.1,0s-0.3,0-0.6,0c-0.1,0-0.1,0-0.1,0l0,0c0,0,0.1,0,0-0.1l-0.3-0.8l0,0h-0.8l0,0l-0.2,0.5
	c0,0.1-0.1,0.2-0.1,0.2c0,0.1,0.1,0.1,0.1,0.1l0,0l0,0c0,0,0,0-0.1,0s-0.3,0-0.3,0s-0.2,0-0.4,0h-0.1l0,0h0.1c0.2,0,0.2-0.1,0.3-0.3
	L104.1,194.5L104.1,194.5z M104.5,195.9L104.5,195.9l-0.3-0.9c0-0.1,0-0.1-0.1,0l-0.3,0.9l0,0H104.5z M106,195.4c0-0.5,0-0.6,0-0.7
	c0-0.1,0-0.2-0.1-0.2h-0.1l0,0c0,0,0,0,0.1,0c0.2,0,0.4,0,0.4,0s0.3,0,0.4,0c0.2,0,0.5,0,0.7,0.1c0.1,0.1,0.2,0.2,0.2,0.5
	s-0.1,0.5-0.4,0.8c0.3,0.4,0.5,0.7,0.7,0.9s0.3,0.2,0.4,0.2s0.1,0,0.1,0l0,0c0,0,0,0-0.1,0h-0.2c-0.2,0-0.3,0-0.4-0.1
	c-0.2-0.1-0.3-0.2-0.5-0.5c-0.1-0.2-0.3-0.4-0.4-0.5l0,0h-0.4l0,0v0.1c0,0.3,0,0.6,0,0.7c0,0.1,0,0.2,0.1,0.2c0,0,0.1,0,0.2,0l0,0
	c0,0,0,0-0.1,0c-0.2,0-0.4,0-0.4,0s-0.2,0-0.3,0h-0.1l0,0h0.1c0.1,0,0.1-0.1,0.1-0.2c0-0.1,0-0.4,0-0.7L106,195.4L106,195.4z
	 M106.3,195.7C106.3,195.8,106.3,195.8,106.3,195.7c0.1,0.1,0.3,0.1,0.4,0.1s0.2,0,0.3-0.1c0.1-0.1,0.2-0.3,0.2-0.5
	c0-0.4-0.2-0.7-0.6-0.7c-0.1,0-0.2,0-0.3,0l0,0V195.7L106.3,195.7z M108.7,195.4c0-0.5,0-0.6,0-0.7c0-0.1,0-0.2-0.1-0.2h-0.1l0,0
	c0,0,0,0,0.1,0c0.2,0,0.4,0,0.4,0h0.8c0.1,0,0.1,0,0.2,0l0,0l0,0c0,0,0,0.1,0,0.2v0.2l0,0l0,0v-0.1c0-0.1-0.1-0.1-0.3-0.1
	c-0.1,0-0.5,0-0.5,0l0,0v0.9l0,0c0,0,0.5,0,0.6,0s0.1,0,0.2,0c0,0,0,0,0.1,0s0,0,0,0s0,0.1,0,0.2c0,0.1,0,0.2,0,0.2v0.1l0,0V196
	c0,0,0-0.1-0.2-0.1c-0.1,0-0.5,0-0.5,0l0,0v0.3c0,0.1,0,0.5,0,0.6c0,0.2,0.1,0.3,0.4,0.3c0.1,0,0.3,0,0.3,0c0.1,0,0.1-0.1,0.2-0.2
	v-0.1c0,0,0,0,0,0.1s0,0.3,0,0.3c0,0.1-0.1,0.1-0.2,0.1c-0.3,0-0.5,0-0.6,0s-0.2,0-0.3,0c0,0-0.1,0-0.2,0s-0.1,0-0.2,0h-0.1l0,0h0.1
	c0.1,0,0.1-0.1,0.1-0.2c0-0.1,0-0.4,0-0.7L108.7,195.4L108.7,195.4z M112.9,196c0,0.3,0,0.6,0,0.7c0,0.1,0,0.2,0.1,0.2
	c0,0,0.1,0,0.2,0l0,0c0,0,0,0-0.1,0c-0.2,0-0.4,0-0.4,0s-0.3,0-0.4,0h-0.1l0,0h0.1c0.1,0,0.1-0.1,0.1-0.2c0-0.1,0-0.4,0-0.7v-1.4
	h-0.5c-0.2,0-0.3,0-0.4,0.1c0,0.1,0,0.1-0.1,0.1l0,0l0,0c0,0,0.1-0.3,0.1-0.4v-0.1c0,0,0.1,0,0.2,0s0.2,0,0.3,0h1.3
	c0.1,0,0.2,0,0.3,0c0.1,0,0.1,0,0.1,0l0,0c0,0.1,0,0.3,0,0.4l0,0c0,0,0,0,0-0.1l0,0c0-0.1-0.1-0.2-0.4-0.2h-0.4L112.9,196L112.9,196
	z M116.7,196c0,0.3,0,0.6,0,0.7c0,0.1,0,0.2,0.1,0.2c0,0,0.1,0,0.2,0l0,0c0,0,0,0-0.1,0c-0.2,0-0.4,0-0.4,0s-0.2,0-0.3,0h-0.1l0,0
	h0.1c0.1,0,0.1-0.1,0.1-0.2c0-0.1,0-0.4,0-0.7v-0.3l0,0h-1.5l0,0v0.3c0,0.3,0,0.6,0,0.7c0,0.1,0,0.2,0.1,0.2s0.1,0,0.2,0l0,0
	c0,0,0,0-0.1,0c-0.2,0-0.4,0-0.4,0s-0.2,0-0.3,0h-0.1l0,0h0.1c0.1,0,0.1-0.1,0.1-0.2c0-0.1,0-0.4,0-0.7v-0.6c0-0.5,0-0.6,0-0.7
	c0-0.1,0-0.2-0.1-0.2h-0.1l0,0c0,0,0,0,0.1,0c0.2,0,0.4,0,0.4,0s0.2,0,0.3,0h0.1l0,0c0,0,0,0-0.1,0s-0.1,0.1-0.1,0.2
	c0,0.1,0,0.2,0,0.7v0.1l0,0h1.5l0,0v-0.1c0-0.5,0-0.6,0-0.7c0-0.1,0-0.2-0.1-0.2h-0.1l0,0c0,0,0,0,0.1,0c0.2,0,0.4,0,0.4,0
	s0.2,0,0.3,0h0.1l0,0c0,0,0,0-0.1,0s-0.1,0.1-0.1,0.2c0,0.1,0,0.2,0,0.7L116.7,196L116.7,196z M117.9,195.4c0-0.5,0-0.6,0-0.7
	c0-0.1,0-0.2-0.1-0.2h-0.1l0,0c0,0,0,0,0.1,0c0.2,0,0.4,0,0.4,0h0.8c0.1,0,0.1,0,0.2,0l0,0l0,0c0,0,0,0.1,0,0.2v0.2l0,0l0,0v-0.1
	c0-0.1-0.1-0.1-0.3-0.1c-0.1,0-0.5,0-0.5,0l0,0v0.9l0,0c0,0,0.5,0,0.6,0s0.1,0,0.2,0c0,0,0,0,0.1,0s0,0,0,0s0,0.1,0,0.2
	c0,0.1,0,0.2,0,0.2v0.1l0,0V196c0,0,0-0.1-0.2-0.1c-0.1,0-0.5,0-0.5,0l0,0v0.3c0,0.1,0,0.5,0,0.6c0,0.2,0.1,0.3,0.4,0.3
	c0.1,0,0.3,0,0.3,0c0.1,0,0.1-0.1,0.2-0.2v-0.1c0,0,0,0,0,0.1s0,0.3,0,0.3c0,0.1-0.1,0.1-0.2,0.1c-0.3,0-0.5,0-0.6,0s-0.2,0-0.3,0
	c0,0-0.1,0-0.2,0s-0.1,0-0.2,0h-0.1l0,0h0.1c0.1,0,0.1-0.1,0.1-0.2c0-0.1,0-0.4,0-0.7v-1H117.9z M121.4,195.4c0-0.5,0-0.6,0-0.7
	c0-0.1,0-0.2-0.1-0.2h-0.1l0,0c0,0,0,0,0.1,0c0.2,0,0.4,0,0.4,0s0.3,0,0.4,0c0.2,0,0.5,0,0.7,0.1c0.1,0.1,0.2,0.2,0.2,0.5
	s-0.1,0.5-0.4,0.8c0.3,0.4,0.5,0.7,0.7,0.9s0.3,0.2,0.4,0.2s0.1,0,0.1,0l0,0c0,0,0,0-0.1,0h-0.2c-0.2,0-0.3,0-0.4-0.1
	c-0.2-0.1-0.3-0.2-0.5-0.5c-0.1-0.2-0.3-0.4-0.4-0.5l0,0h-0.4l0,0v0.1c0,0.3,0,0.6,0,0.7c0,0.1,0,0.2,0.1,0.2c0,0,0.1,0,0.2,0l0,0
	c0,0,0,0-0.1,0c-0.2,0-0.4,0-0.4,0s-0.2,0-0.3,0h-0.1l0,0h0.1c0.1,0,0.1-0.1,0.1-0.2c0-0.1,0-0.4,0-0.7L121.4,195.4L121.4,195.4z
	 M121.7,195.7C121.7,195.8,121.7,195.8,121.7,195.7c0.1,0.1,0.3,0.1,0.4,0.1s0.2,0,0.3-0.1c0.1-0.1,0.2-0.3,0.2-0.5
	c0-0.4-0.2-0.7-0.6-0.7c-0.1,0-0.2,0-0.3,0l0,0V195.7L121.7,195.7z M123.9,195.4c0-0.5,0-0.6,0-0.7c0-0.1,0-0.2-0.1-0.2h-0.1l0,0
	c0,0,0,0,0.1,0c0.2,0,0.4,0,0.4,0s0.3,0,0.4,0h0.1l0,0c0,0,0,0-0.1,0s-0.1,0.1-0.1,0.2c0,0.1,0,0.2,0,0.7v0.5c0,0.5,0.1,0.7,0.3,0.8
	c0.2,0.2,0.3,0.2,0.5,0.2s0.4-0.1,0.5-0.2c0.2-0.2,0.2-0.5,0.2-0.8v-0.4c0-0.5,0-0.6,0-0.7c0-0.1,0-0.2-0.1-0.2h-0.1l0,0
	c0,0,0,0,0.1,0c0.2,0,0.4,0,0.4,0s0.2,0,0.3,0h0.1l0,0c0,0,0,0-0.1,0s-0.1,0.1-0.1,0.2c0,0.1,0,0.2,0,0.7v0.4c0,0.4,0,0.8-0.3,1
	s-0.5,0.2-0.7,0.2c-0.1,0-0.5,0-0.7-0.2s-0.3-0.4-0.3-0.9L123.9,195.4L123.9,195.4z M126.7,197c0,0-0.1,0-0.1-0.1c0-0.2,0-0.3,0-0.4
	v-0.1l0,0v0.1c0.1,0.2,0.3,0.3,0.6,0.3c0.3,0,0.5-0.2,0.5-0.4c0-0.3-0.1-0.4-0.4-0.6l-0.2-0.1c-0.4-0.3-0.5-0.5-0.5-0.7
	c0-0.4,0.3-0.6,0.8-0.6c0.1,0,0.3,0,0.4,0s0.1,0,0.1,0l0,0c0,0,0,0.1,0,0.4c0,0.1,0,0.1,0,0.1l0,0c0,0,0-0.1-0.1-0.2
	c0,0-0.1-0.2-0.5-0.2c-0.3,0-0.5,0.1-0.5,0.4c0,0.2,0.1,0.3,0.5,0.6l0.1,0.1c0.4,0.3,0.6,0.5,0.6,0.8c0,0.2-0.1,0.4-0.3,0.6
	c-0.1,0.1-0.4,0.1-0.6,0.1C127,197.1,126.8,197,126.7,197L126.7,197z M129.8,196c0,0.3,0,0.6,0,0.7c0,0.1,0,0.2,0.1,0.2
	c0,0,0.1,0,0.2,0l0,0c0,0,0,0-0.1,0c-0.2,0-0.4,0-0.4,0s-0.3,0-0.4,0h-0.1l0,0h0.1c0.1,0,0.1-0.1,0.1-0.2c0-0.1,0-0.4,0-0.7v-1.4
	h-0.5c-0.2,0-0.3,0-0.4,0.1c0,0.1,0,0.1-0.1,0.1l0,0l0,0c0,0,0.1-0.3,0.1-0.4v-0.1c0,0,0.1,0,0.2,0c0.1,0,0.2,0,0.3,0h1.3
	c0.1,0,0.2,0,0.3,0s0.1,0,0.1,0l0,0c0,0.1,0,0.3,0,0.4l0,0c0,0,0,0,0-0.1l0,0c0-0.1-0.1-0.2-0.4-0.2h-0.4L129.8,196L129.8,196z
	 M131.8,196.1c0,0.5,0,0.7,0.1,0.8s0.2,0.1,0.5,0.1c0.2,0,0.3,0,0.4-0.1c0-0.1,0.1-0.1,0.1-0.2l0,0c0,0,0,0,0,0.1c0,0,0,0.2-0.1,0.3
	c0,0.1,0,0.1-0.2,0.1c-0.3,0-0.4,0-0.6,0c-0.2,0-0.3,0-0.4,0h-0.1c-0.1,0-0.1,0-0.2,0h-0.1l0,0h0.1c0.1,0,0.1-0.1,0.1-0.2
	c0-0.1,0-0.4,0-0.7v-0.6c0-0.5,0-0.6,0-0.7c0-0.1,0-0.2-0.1-0.2h-0.1l0,0c0,0,0,0,0.1,0c0.2,0,0.4,0,0.4,0s0.3,0,0.4,0h0.1l0,0h-0.1
	c-0.1,0-0.1,0.1-0.1,0.2c0,0.1,0,0.2,0,0.7v0.4H131.8z M133.6,195.4c0-0.5,0-0.6,0-0.7c0-0.1,0-0.2-0.1-0.2h-0.1l0,0c0,0,0,0,0.1,0
	c0.2,0,0.4,0,0.4,0h0.8c0.1,0,0.1,0,0.2,0l0,0l0,0c0,0,0,0.1,0,0.2v0.2l0,0l0,0v-0.1c0-0.1-0.1-0.1-0.3-0.1c-0.1,0-0.5,0-0.5,0l0,0
	v0.9l0,0c0,0,0.5,0,0.6,0s0.1,0,0.2,0c0,0,0,0,0.1,0l0,0c0,0,0,0.1,0,0.2c0,0.1,0,0.2,0,0.2v0.1l0,0V196c0,0,0-0.1-0.2-0.1
	c-0.1,0-0.5,0-0.5,0l0,0v0.3c0,0.1,0,0.5,0,0.6c0,0.2,0.1,0.3,0.4,0.3c0.1,0,0.3,0,0.3,0c0.1,0,0.1-0.1,0.2-0.2v-0.1c0,0,0,0,0,0.1
	s0,0.3,0,0.3c0,0.1-0.1,0.1-0.2,0.1c-0.3,0-0.5,0-0.6,0s-0.2,0-0.3,0H134c-0.1,0-0.1,0-0.2,0h-0.1l0,0h0.1c0.1,0,0.1-0.1,0.1-0.2
	c0-0.1,0-0.4,0-0.7L133.6,195.4L133.6,195.4z M138,194.4c0.8,0,1.4,0.5,1.4,1.3s-0.6,1.4-1.4,1.4c-1,0-1.4-0.7-1.4-1.3
	C136.6,195.2,137.1,194.4,138,194.4L138,194.4z M138.1,196.9c0.3,0,0.9-0.2,0.9-1.1c0-0.8-0.5-1.2-1-1.2c-0.6,0-1,0.4-1,1.1
	C137,196.4,137.5,196.9,138.1,196.9z M140.2,195.4c0-0.5,0-0.6,0-0.7c0-0.1,0-0.2-0.1-0.2H140l0,0c0,0,0,0,0.1,0c0.2,0,0.4,0,0.4,0
	c0.1,0,0.8,0,0.9,0c0.1,0,0.1,0,0.2,0l0,0l0,0c0,0,0,0.1,0,0.2v0.2l0,0l0,0v-0.1c0,0-0.1-0.1-0.2-0.1h-0.6l0,0v0.9l0,0h0.5
	c0.1,0,0.1,0,0.2,0c0.1,0,0.1,0,0.2-0.1l0,0l0,0c0,0,0,0.1,0,0.2c0,0.1,0,0.2,0,0.2v0.1l0,0v-0.1c0,0-0.1-0.1-0.2-0.1
	c-0.1,0-0.5,0-0.6,0l0,0v0.3c0,0.3,0,0.6,0,0.7c0,0.1,0,0.2,0.1,0.2s0.1,0,0.2,0l0,0c0,0,0,0-0.1,0c-0.2,0-0.4,0-0.4,0s-0.2,0-0.3,0
	h-0.1l0,0h0.1c0.1,0,0.1-0.1,0.1-0.2c0-0.1,0-0.4,0-0.7L140.2,195.4L140.2,195.4z M143.9,196.1c0,0.5,0,0.7,0.1,0.8s0.2,0.1,0.5,0.1
	c0.2,0,0.3,0,0.4-0.1c0-0.1,0.1-0.1,0.1-0.2l0,0c0,0,0,0,0,0.1c0,0,0,0.2-0.1,0.3c0,0.1,0,0.1-0.2,0.1c-0.3,0-0.4,0-0.6,0
	c-0.2,0-0.3,0-0.4,0h-0.1c-0.1,0-0.1,0-0.2,0h-0.1l0,0h0.1c0.1,0,0.1-0.1,0.1-0.2c0-0.1,0-0.4,0-0.7v-0.6c0-0.5,0-0.6,0-0.7
	c0-0.1,0-0.2-0.1-0.2h-0.1l0,0c0,0,0,0,0.1,0c0.2,0,0.4,0,0.4,0s0.3,0,0.4,0h0.1l0,0h-0.1c-0.1,0-0.1,0.1-0.1,0.2c0,0.1,0,0.2,0,0.7
	v0.4H143.9z M145.7,195.4c0-0.5,0-0.6,0-0.7c0-0.1,0-0.2-0.1-0.2h-0.1l0,0c0,0,0,0,0.1,0c0.2,0,0.4,0,0.4,0h0.8c0.1,0,0.1,0,0.2,0
	l0,0l0,0c0,0,0,0.1,0,0.2v0.2l0,0l0,0v-0.1c0-0.1-0.1-0.1-0.3-0.1c-0.1,0-0.5,0-0.5,0l0,0v0.9l0,0c0,0,0.5,0,0.6,0s0.1,0,0.2,0
	c0,0,0,0,0.1,0l0,0c0,0,0,0.1,0,0.2c0,0.1,0,0.2,0,0.2v0.1l0,0V196c0,0,0-0.1-0.2-0.1c-0.1,0-0.5,0-0.5,0l0,0v0.3c0,0.1,0,0.5,0,0.6
	c0,0.2,0.1,0.3,0.4,0.3c0.1,0,0.3,0,0.3,0c0.1,0,0.1-0.1,0.2-0.2v-0.1c0,0,0,0,0,0.1s0,0.3,0,0.3c0,0.1-0.1,0.1-0.2,0.1
	c-0.3,0-0.5,0-0.6,0s-0.2,0-0.3,0c0,0-0.1,0-0.2,0c-0.1,0-0.1,0-0.2,0h-0.1l0,0h0.1c0.1,0,0.1-0.1,0.1-0.2c0-0.1,0-0.4,0-0.7
	L145.7,195.4L145.7,195.4z M148.4,194.5c0-0.1,0.1-0.1,0.1-0.1s0,0,0.1,0.1s0.6,1.5,0.8,2c0.1,0.3,0.2,0.3,0.3,0.4
	c0.1,0,0.1,0,0.1,0l0,0c0,0,0,0-0.1,0s-0.3,0-0.6,0c-0.1,0-0.1,0-0.1,0l0,0c0,0,0.1,0,0-0.1l-0.3-0.8l0,0H148l0,0l-0.2,0.5
	c0,0.1-0.1,0.2-0.1,0.2c0,0.1,0.1,0.1,0.1,0.1l0,0l0,0c0,0,0,0-0.1,0s-0.3,0-0.3,0s-0.2,0-0.4,0h-0.1l0,0h0.1c0.2,0,0.2-0.1,0.3-0.3
	L148.4,194.5L148.4,194.5z M148.8,195.9L148.8,195.9l-0.3-0.9c0-0.1,0-0.1-0.1,0l-0.3,0.9l0,0H148.8z M150.8,196.6
	c0.2-0.5,0.7-1.6,0.7-1.8c0-0.1,0-0.1,0-0.1v-0.1h-0.1l0,0c0,0,0,0,0.1,0s0.3,0,0.3,0s0.2,0,0.3,0h0.1l0,0c0,0-0.1,0-0.2,0
	c0,0-0.1,0.1-0.2,0.3c0,0.1-0.2,0.5-0.4,0.9c-0.2,0.5-0.4,0.9-0.4,1c-0.1,0.2-0.1,0.3-0.2,0.3c0,0-0.1,0-0.1-0.2l-0.9-2.1
	c-0.1-0.2-0.1-0.2-0.2-0.3c-0.1,0-0.1,0-0.1,0l0,0c0,0,0,0,0.1,0c0.2,0,0.4,0,0.4,0s0.2,0,0.3,0s0.1,0,0.1,0l0,0h-0.1c0,0,0,0,0,0.1
	c0,0,0,0.1,0.1,0.3L150.8,196.6L150.8,196.6z M152.7,195.4c0-0.5,0-0.6,0-0.7c0-0.1,0-0.2-0.1-0.2h-0.1l0,0c0,0,0,0,0.1,0
	c0.2,0,0.4,0,0.4,0h0.8c0.1,0,0.1,0,0.2,0l0,0l0,0c0,0,0,0.1,0,0.2v0.2l0,0l0,0v-0.1c0-0.1-0.1-0.1-0.3-0.1c-0.1,0-0.5,0-0.5,0l0,0
	v0.9l0,0c0,0,0.5,0,0.6,0s0.1,0,0.2,0c0,0,0,0,0.1,0l0,0c0,0,0,0.1,0,0.2c0,0.1,0,0.2,0,0.2v0.1l0,0V196c0,0,0-0.1-0.2-0.1
	c-0.1,0-0.5,0-0.5,0l0,0v0.3c0,0.1,0,0.5,0,0.6c0,0.2,0.1,0.3,0.4,0.3c0.1,0,0.3,0,0.3,0c0.1,0,0.1-0.1,0.2-0.2v-0.1c0,0,0,0,0,0.1
	s0,0.3,0,0.3c0,0.1-0.1,0.1-0.2,0.1c-0.3,0-0.5,0-0.6,0s-0.2,0-0.3,0c0,0-0.1,0-0.2,0c-0.1,0-0.1,0-0.2,0h-0.1l0,0h0.1
	c0.1,0,0.1-0.1,0.1-0.2c0-0.1,0-0.4,0-0.7v-1H152.7z M154.6,197c0,0-0.1,0-0.1-0.1c0-0.2,0-0.3,0-0.4v-0.1l0,0v0.1
	c0.1,0.2,0.3,0.3,0.6,0.3s0.5-0.2,0.5-0.4c0-0.3-0.1-0.4-0.4-0.6l-0.2-0.1c-0.4-0.3-0.5-0.5-0.5-0.7c0-0.4,0.3-0.6,0.8-0.6
	c0.1,0,0.3,0,0.4,0c0.1,0,0.1,0,0.1,0l0,0c0,0,0,0.1,0,0.4c0,0.1,0,0.1,0,0.1l0,0c0,0,0-0.1-0.1-0.2c0,0-0.1-0.2-0.5-0.2
	c-0.3,0-0.5,0.1-0.5,0.4c0,0.2,0.1,0.3,0.5,0.6l0.1,0.1c0.4,0.3,0.6,0.5,0.6,0.8c0,0.2-0.1,0.4-0.3,0.6c-0.1,0.1-0.4,0.1-0.6,0.1
	C154.9,197.1,154.7,197,154.6,197L154.6,197z M159,196c0,0.3,0,0.6,0,0.7c0,0.1,0,0.2,0.1,0.2c0,0,0.1,0,0.2,0l0,0c0,0,0,0-0.1,0
	c-0.2,0-0.4,0-0.4,0s-0.3,0-0.4,0h-0.1l0,0h0.1c0.1,0,0.1-0.1,0.1-0.2c0-0.1,0-0.4,0-0.7v-1.4H158c-0.2,0-0.3,0-0.4,0.1
	c0,0.1,0,0.1-0.1,0.1l0,0l0,0c0,0,0.1-0.3,0.1-0.4v-0.1c0,0,0.1,0,0.2,0c0.1,0,0.2,0,0.3,0h1.3c0.1,0,0.2,0,0.3,0s0.1,0,0.1,0l0,0
	c0,0.1,0,0.3,0,0.4l0,0c0,0,0,0,0-0.1l0,0c0-0.1-0.1-0.2-0.4-0.2H159L159,196L159,196z M162.8,196c0,0.3,0,0.6,0,0.7
	c0,0.1,0,0.2,0.1,0.2c0,0,0.1,0,0.2,0l0,0c0,0,0,0-0.1,0c-0.2,0-0.4,0-0.4,0s-0.2,0-0.3,0h-0.1l0,0h0.1c0.1,0,0.1-0.1,0.1-0.2
	c0-0.1,0-0.4,0-0.7v-0.3l0,0H161l0,0v0.3c0,0.3,0,0.6,0,0.7c0,0.1,0,0.2,0.1,0.2s0.1,0,0.2,0l0,0c0,0,0,0-0.1,0c-0.2,0-0.4,0-0.4,0
	s-0.2,0-0.3,0h-0.1l0,0h0.1c0.1,0,0.1-0.1,0.1-0.2c0-0.1,0-0.4,0-0.7v-0.6c0-0.5,0-0.6,0-0.7c0-0.1,0-0.2-0.1-0.2h-0.1l0,0
	c0,0,0,0,0.1,0c0.2,0,0.4,0,0.4,0s0.2,0,0.3,0h0.1l0,0c0,0,0,0-0.1,0s-0.1,0.1-0.1,0.2c0,0.1,0,0.2,0,0.7v0.1l0,0h1.5l0,0v-0.1
	c0-0.5,0-0.6,0-0.7c0-0.1,0-0.2-0.1-0.2h-0.1l0,0c0,0,0,0,0.1,0c0.2,0,0.4,0,0.4,0s0.2,0,0.3,0h0.1l0,0c0,0,0,0-0.1,0
	s-0.1,0.1-0.1,0.2c0,0.1,0,0.2,0,0.7L162.8,196L162.8,196z M163.9,195.4c0-0.5,0-0.6,0-0.7c0-0.1,0-0.2-0.1-0.2h-0.1l0,0
	c0,0,0,0,0.1,0c0.2,0,0.4,0,0.4,0h0.8c0.1,0,0.1,0,0.2,0l0,0l0,0c0,0,0,0.1,0,0.2v0.2l0,0l0,0v-0.1c0-0.1-0.1-0.1-0.3-0.1
	c-0.1,0-0.5,0-0.5,0l0,0v0.9l0,0c0,0,0.5,0,0.6,0s0.1,0,0.2,0c0,0,0,0,0.1,0l0,0c0,0,0,0.1,0,0.2c0,0.1,0,0.2,0,0.2v0.1l0,0V196
	c0,0,0-0.1-0.2-0.1c-0.1,0-0.5,0-0.5,0l0,0v0.3c0,0.1,0,0.5,0,0.6c0,0.2,0.1,0.3,0.4,0.3c0.1,0,0.3,0,0.3,0c0.1,0,0.1-0.1,0.2-0.2
	v-0.1c0,0,0,0,0,0.1s0,0.3,0,0.3c0,0.1-0.1,0.1-0.2,0.1c-0.3,0-0.5,0-0.6,0s-0.2,0-0.3,0h-0.1c-0.1,0-0.1,0-0.2,0H164l0,0h0.1
	c0.1,0,0.1-0.1,0.1-0.2c0-0.1,0-0.4,0-0.7v-1H163.9z M166.6,196.1c0-0.2,0-0.3-0.1-0.3c0-0.1-0.5-0.8-0.6-1
	c-0.1-0.1-0.2-0.2-0.2-0.2c-0.1,0-0.1,0-0.1,0l0,0l0,0c0.1,0,0.3,0,0.3,0s0.2,0,0.3,0l0,0c0,0,0,0-0.1,0c0,0,0,0,0,0.1v0.1l0.6,1.1
	c0.1-0.1,0.5-0.9,0.6-1c0-0.1,0.1-0.1,0.1-0.2c0,0,0-0.1-0.1-0.1h-0.1c0,0,0,0,0.1,0s0.2,0,0.2,0h0.3l0,0l0,0c0,0-0.1,0-0.2,0
	c-0.1,0-0.1,0.1-0.2,0.2c-0.1,0.1-0.6,0.9-0.7,1.1c-0.1,0.1,0,0.2,0,0.3v0.3c0,0.1,0,0.2,0,0.3s0,0.2,0.1,0.2c0,0,0.1,0,0.2,0l0,0
	c0,0,0,0-0.1,0c-0.2,0-0.4,0-0.4,0s-0.2,0-0.3,0h-0.1l0,0h0.1c0.1,0,0.1-0.1,0.1-0.2c0-0.1,0-0.3,0-0.3L166.6,196.1L166.6,196.1z
	 M70.2,202.4c0,0.3,0,0.6,0,0.7c0,0.1,0,0.2,0.1,0.2c0,0,0.1,0,0.2,0l0,0c0,0,0,0-0.1,0c-0.2,0-0.4,0-0.4,0s-0.2,0-0.3,0h-0.1l0,0
	h0.1c0.1,0,0.1-0.1,0.1-0.2c0-0.1,0-0.4,0-0.7v-0.3l0,0h-1.5l0,0v0.3c0,0.3,0,0.6,0,0.7c0,0.1,0,0.2,0.1,0.2s0.1,0,0.2,0l0,0
	c0,0,0,0-0.1,0c-0.2,0-0.4,0-0.4,0s-0.2,0-0.3,0h-0.1l0,0h0.1c0.1,0,0.1-0.1,0.1-0.2c0-0.1,0-0.4,0-0.7v-0.6c0-0.5,0-0.6,0-0.7
	c0-0.1,0-0.2-0.1-0.2h-0.1l0,0c0,0,0,0,0.1,0c0.2,0,0.4,0,0.4,0s0.2,0,0.3,0h0.1l0,0c0,0,0,0-0.1,0s-0.1,0.1-0.1,0.2
	c0,0.1,0,0.2,0,0.7v0.1l0,0h1.5l0,0v-0.1c0-0.5,0-0.6,0-0.7c0-0.1,0-0.2-0.1-0.2h-0.1l0,0c0,0,0,0,0.1,0c0.2,0,0.4,0,0.4,0
	s0.2,0,0.3,0h0.1l0,0c0,0,0,0-0.1,0s-0.1,0.1-0.1,0.2c0,0.1,0,0.2,0,0.7L70.2,202.4L70.2,202.4z M71.9,200.9c0-0.1,0.1-0.1,0.1-0.1
	s0,0,0.1,0.1s0.6,1.5,0.8,2c0.1,0.3,0.2,0.3,0.3,0.4c0.1,0,0.1,0,0.1,0l0,0c0,0,0,0-0.1,0s-0.3,0-0.6,0c-0.1,0-0.1,0-0.1,0l0,0
	c0,0,0.1,0,0-0.1l-0.3-0.8l0,0h-0.8l0,0l-0.2,0.5c0,0.1-0.1,0.2-0.1,0.2c0,0.1,0.1,0.1,0.1,0.1l0,0l0,0c0,0,0,0-0.1,0s-0.3,0-0.3,0
	s-0.2,0-0.4,0h-0.1l0,0h0.1c0.2,0,0.2-0.1,0.3-0.3L71.9,200.9L71.9,200.9z M72.3,202.3L72.3,202.3l-0.3-0.9c0-0.1,0-0.1-0.1,0
	l-0.3,0.9l0,0H72.3z M74.3,202.9c0.2-0.5,0.7-1.6,0.7-1.8c0-0.1,0-0.1,0-0.1v-0.1h-0.1l0,0c0,0,0,0,0.1,0s0.3,0,0.3,0s0.2,0,0.3,0
	h0.1l0,0c0,0-0.1,0-0.2,0c0,0-0.1,0.1-0.2,0.3c0,0.1-0.2,0.5-0.4,0.9c-0.2,0.5-0.4,0.9-0.4,1c-0.1,0.2-0.1,0.3-0.1,0.3
	s-0.1,0-0.1-0.2l-0.9-2.1c-0.1-0.2-0.1-0.2-0.2-0.3c-0.1,0-0.1,0-0.1,0l0,0c0,0,0,0,0.1,0c0.2,0,0.4,0,0.4,0s0.2,0,0.3,0
	c0.1,0,0.1,0,0.1,0l0,0h-0.1c0,0,0,0,0,0.1c0,0,0,0.1,0.1,0.3L74.3,202.9L74.3,202.9z M76.2,201.8c0-0.5,0-0.6,0-0.7
	c0-0.1,0-0.2-0.1-0.2H76l0,0c0,0,0,0,0.1,0c0.2,0,0.4,0,0.4,0h0.8c0.1,0,0.1,0,0.2,0l0,0l0,0c0,0,0,0.1,0,0.2v0.2l0,0l0,0v-0.1
	c0-0.1-0.1-0.1-0.3-0.1c-0.1,0-0.5,0-0.5,0l0,0v0.9l0,0c0,0,0.5,0,0.6,0s0.1,0,0.2,0c0,0,0,0,0.1,0l0,0c0,0,0,0.1,0,0.2
	c0,0.1,0,0.2,0,0.2v0.1l0,0v-0.1c0,0,0-0.1-0.2-0.1c-0.1,0-0.5,0-0.5,0l0,0v0.3c0,0.1,0,0.5,0,0.6c0,0.2,0.1,0.3,0.4,0.3
	c0.1,0,0.3,0,0.3,0c0.1,0,0.1-0.1,0.2-0.2v-0.1c0,0,0,0,0,0.1v0.3c0,0.1-0.1,0.1-0.2,0.1c-0.3,0-0.5,0-0.6,0s-0.2,0-0.3,0h-0.1
	c-0.1,0-0.1,0-0.2,0h-0.1l0,0h0.1c0.1,0,0.1-0.1,0.1-0.2c0-0.1,0-0.4,0-0.7L76.2,201.8L76.2,201.8z M80.4,202.4c0,0.3,0,0.6,0,0.7
	c0,0.1,0,0.2,0.1,0.2c0,0,0.1,0,0.2,0l0,0c0,0,0,0-0.1,0c-0.2,0-0.4,0-0.4,0s-0.3,0-0.4,0h-0.1l0,0h0.1c0.1,0,0.1-0.1,0.1-0.2
	c0-0.1,0-0.4,0-0.7V201h-0.5c-0.2,0-0.3,0-0.4,0.1c0,0.1,0,0.1-0.1,0.1l0,0l0,0c0,0,0.1-0.3,0.1-0.4v-0.1c0,0,0.1,0,0.2,0
	s0.2,0,0.3,0H81c0.1,0,0.2,0,0.3,0c0.1,0,0.1,0,0.1,0l0,0c0,0.1,0,0.3,0,0.4l0,0c0,0,0,0,0-0.1l0,0c0-0.1-0.1-0.2-0.4-0.2h-0.4
	L80.4,202.4L80.4,202.4z M84.2,202.4c0,0.3,0,0.6,0,0.7c0,0.1,0,0.2,0.1,0.2c0,0,0.1,0,0.2,0l0,0c0,0,0,0-0.1,0c-0.2,0-0.4,0-0.4,0
	s-0.2,0-0.3,0h-0.1l0,0h0.1c0.1,0,0.1-0.1,0.1-0.2c0-0.1,0-0.4,0-0.7v-0.3l0,0h-1.5l0,0v0.3c0,0.3,0,0.6,0,0.7c0,0.1,0,0.2,0.1,0.2
	s0.1,0,0.2,0l0,0c0,0,0,0-0.1,0c-0.2,0-0.4,0-0.4,0s-0.2,0-0.3,0h-0.1l0,0h0.1c0.1,0,0.1-0.1,0.1-0.2c0-0.1,0-0.4,0-0.7v-0.6
	c0-0.5,0-0.6,0-0.7c0-0.1,0-0.2-0.1-0.2h-0.1l0,0c0,0,0,0,0.1,0c0.2,0,0.4,0,0.4,0s0.2,0,0.3,0h0.1l0,0c0,0,0,0-0.1,0
	s-0.1,0.1-0.1,0.2c0,0.1,0,0.2,0,0.7v0.1l0,0h1.5l0,0v-0.1c0-0.5,0-0.6,0-0.7c0-0.1,0-0.2-0.1-0.2h-0.1l0,0c0,0,0,0,0.1,0
	c0.2,0,0.4,0,0.4,0s0.2,0,0.3,0h0.1l0,0c0,0,0,0-0.1,0s-0.1,0.1-0.1,0.2c0,0.1,0,0.2,0,0.7L84.2,202.4L84.2,202.4z M85.4,201.8
	c0-0.5,0-0.6,0-0.7c0-0.1,0-0.2-0.1-0.2h-0.1l0,0c0,0,0,0,0.1,0c0.2,0,0.4,0,0.4,0h0.8c0.1,0,0.1,0,0.2,0l0,0l0,0c0,0,0,0.1,0,0.2
	v0.2l0,0l0,0v-0.1c0-0.1-0.1-0.1-0.3-0.1c-0.1,0-0.5,0-0.5,0l0,0v0.9l0,0c0,0,0.5,0,0.6,0s0.1,0,0.2,0c0,0,0,0,0.1,0l0,0
	c0,0,0,0.1,0,0.2c0,0.1,0,0.2,0,0.2v0.1l0,0v-0.1c0,0,0-0.1-0.2-0.1c-0.1,0-0.5,0-0.5,0l0,0v0.3c0,0.1,0,0.5,0,0.6
	c0,0.2,0.1,0.3,0.4,0.3c0.1,0,0.3,0,0.3,0c0.1,0,0.1-0.1,0.2-0.2v-0.1c0,0,0,0,0,0.1v0.3c0,0.1-0.1,0.1-0.2,0.1c-0.3,0-0.5,0-0.6,0
	s-0.2,0-0.3,0h-0.1c-0.1,0-0.1,0-0.2,0h-0.1l0,0h0.1c0.1,0,0.1-0.1,0.1-0.2c0-0.1,0-0.4,0-0.7L85.4,201.8L85.4,201.8z M87.9,202.4
	c0,0.3,0,0.6,0,0.7c0,0.1,0,0.2,0.1,0.2s0.1,0,0.2,0l0,0c0,0,0,0-0.1,0c-0.2,0-0.4,0-0.4,0s-0.2,0-0.3,0h-0.1l0,0h0.1
	c0.1,0,0.1-0.1,0.1-0.2c0-0.1,0-0.4,0-0.7v-0.6c0-0.5,0-0.6,0-0.7c0-0.1,0-0.2-0.1-0.2h-0.1l0,0c0,0,0,0,0.1,0s0.3,0,0.4,0
	c0,0,0.2,0,0.3,0h0.1l0,0c0,0,0,0-0.1,0S88,201,88,201.1c0,0.1,0,0.2,0,0.7L87.9,202.4L87.9,202.4z M89,201.8c0-0.5,0-0.6,0-0.7
	c0-0.1,0-0.2-0.1-0.2h-0.1l0,0c0,0,0,0,0.1,0c0.2,0,0.4,0,0.4,0s0.3,0,0.4,0c0.2,0,0.5,0,0.7,0.1c0.1,0.1,0.2,0.2,0.2,0.5
	s-0.1,0.5-0.4,0.8c0.3,0.4,0.5,0.7,0.7,0.9s0.3,0.2,0.4,0.2s0.1,0,0.1,0l0,0c0,0,0,0-0.1,0h-0.2c-0.2,0-0.3,0-0.4-0.1
	s-0.3-0.2-0.5-0.5c-0.1-0.2-0.3-0.4-0.4-0.5l0,0h-0.4l0,0v0.1c0,0.3,0,0.6,0,0.7c0,0.1,0,0.2,0.1,0.2c0,0,0.1,0,0.2,0l0,0
	c0,0,0,0-0.1,0c-0.2,0-0.4,0-0.4,0s-0.2,0-0.3,0h-0.1l0,0h0.1c0.1,0,0.1-0.1,0.1-0.2c0-0.1,0-0.4,0-0.7L89,201.8L89,201.8z
	 M89.3,202.1L89.3,202.1c0.1,0.1,0.3,0.1,0.4,0.1s0.2,0,0.3-0.1c0.1-0.1,0.2-0.3,0.2-0.5c0-0.4-0.2-0.7-0.6-0.7c-0.1,0-0.2,0-0.3,0
	l0,0V202.1L89.3,202.1z M95.1,202.9L95.1,202.9c0.1-0.3,0.4-1.3,0.5-1.7c0-0.1,0-0.2,0-0.2c0-0.1,0-0.1-0.2-0.1l0,0c0,0,0,0,0.1,0
	c0.2,0,0.3,0,0.4,0c0,0,0.2,0,0.3,0l0,0l0,0h-0.1c-0.1,0-0.2,0.2-0.2,0.4c-0.2,0.4-0.5,1.5-0.6,1.9c-0.1,0.3-0.1,0.3-0.1,0.3
	s-0.1,0-0.1-0.2l-0.7-1.8c-0.1,0.3-0.6,1.5-0.7,1.8c-0.1,0.1-0.1,0.2-0.1,0.2s-0.1,0-0.1-0.3l-0.6-2c-0.1-0.2-0.1-0.2-0.2-0.3
	c0,0-0.1,0-0.2,0l0,0c0,0,0,0,0.1,0c0.2,0,0.4,0,0.4,0s0.2,0,0.4,0h0.1l0,0h-0.1c0,0,0,0,0,0.1s0,0.2,0.1,0.3
	c0.1,0.2,0.4,1.5,0.5,1.6l0,0l0.7-1.9c0.1-0.1,0.1-0.2,0.1-0.2s0.1,0,0.1,0.2L95.1,202.9L95.1,202.9z M98.9,202.4c0,0.3,0,0.6,0,0.7
	c0,0.1,0,0.2,0.1,0.2c0,0,0.1,0,0.2,0l0,0c0,0,0,0-0.1,0c-0.2,0-0.4,0-0.4,0s-0.2,0-0.3,0h-0.1l0,0h0.1c0.1,0,0.1-0.1,0.1-0.2
	c0-0.1,0-0.4,0-0.7v-0.3l0,0H97l0,0v0.3c0,0.3,0,0.6,0,0.7c0,0.1,0,0.2,0.1,0.2s0.1,0,0.2,0l0,0c0,0,0,0-0.1,0c-0.2,0-0.4,0-0.4,0
	s-0.2,0-0.3,0h-0.1l0,0h0.1c0.1,0,0.1-0.1,0.1-0.2c0-0.1,0-0.4,0-0.7v-0.6c0-0.5,0-0.6,0-0.7c0-0.1,0-0.2-0.1-0.2h-0.1l0,0
	c0,0,0,0,0.1,0c0.2,0,0.4,0,0.4,0s0.2,0,0.3,0h0.1l0,0c0,0,0,0-0.1,0s-0.1,0.1-0.1,0.2c0,0.1,0,0.2,0,0.7v0.1l0,0h1.5l0,0v-0.1
	c0-0.5,0-0.6,0-0.7c0-0.1,0-0.2-0.1-0.2h-0.1l0,0c0,0,0,0,0.1,0c0.2,0,0.4,0,0.4,0s0.2,0,0.3,0h0.1l0,0c0,0,0,0-0.1,0
	s-0.1,0.1-0.1,0.2c0,0.1,0,0.2,0,0.7L98.9,202.4L98.9,202.4z M100.4,202.4c0,0.3,0,0.6,0,0.7c0,0.1,0,0.2,0.1,0.2s0.1,0,0.2,0l0,0
	c0,0,0,0-0.1,0c-0.2,0-0.4,0-0.4,0s-0.2,0-0.3,0h-0.1l0,0h0.1c0.1,0,0.1-0.1,0.1-0.2c0-0.1,0-0.4,0-0.7v-0.6c0-0.5,0-0.6,0-0.7
	c0-0.1,0-0.2-0.1-0.2h-0.1l0,0c0,0,0,0,0.1,0s0.3,0,0.4,0c0,0,0.2,0,0.3,0h0.1l0,0c0,0,0,0-0.1,0s-0.1,0.1-0.1,0.2
	c0,0.1,0,0.2,0,0.7L100.4,202.4L100.4,202.4z M101.4,203.3c0,0-0.1,0-0.1-0.1c0-0.2,0-0.3,0-0.4v-0.1l0,0v0.1
	c0.1,0.2,0.3,0.3,0.6,0.3c0.3,0,0.5-0.2,0.5-0.4c0-0.3-0.1-0.4-0.4-0.6l-0.2-0.1c-0.4-0.3-0.5-0.5-0.5-0.7c0-0.4,0.3-0.6,0.8-0.6
	c0.1,0,0.3,0,0.4,0s0.1,0,0.1,0l0,0c0,0,0,0.1,0,0.4c0,0.1,0,0.1,0,0.1l0,0c0,0,0-0.1-0.1-0.2c0,0-0.1-0.2-0.5-0.2
	c-0.3,0-0.5,0.1-0.5,0.4c0,0.2,0.1,0.3,0.5,0.6l0.1,0.1c0.4,0.3,0.6,0.5,0.6,0.8c0,0.2-0.1,0.4-0.3,0.6c-0.1,0.1-0.4,0.1-0.6,0.1
	C101.7,203.4,101.5,203.4,101.4,203.3L101.4,203.3z M103.6,201.8c0-0.5,0-0.6,0-0.7c0-0.1,0-0.2-0.1-0.2h-0.1l0,0c0,0,0,0,0.1,0
	c0.2,0,0.4,0,0.4,0c0.1,0,0.3,0,0.5,0c0.5,0,0.6,0.1,0.7,0.2c0.1,0.1,0.2,0.2,0.2,0.4c0,0.5-0.4,0.8-0.9,0.8h-0.1l0,0c0,0,0,0,0.1,0
	c0.4,0,0.6-0.2,0.6-0.5c0-0.1,0-0.3-0.2-0.5s-0.4-0.2-0.5-0.2s-0.2,0-0.2,0s0,0,0,0.1v1.4c0,0.3,0,0.6,0,0.7c0,0.1,0,0.2,0.1,0.2
	c0,0,0.1,0,0.2,0l0,0c0,0,0,0-0.1,0c-0.2,0-0.4,0-0.4,0s-0.2,0-0.3,0h-0.1l0,0h0.1c0.1,0,0.1-0.1,0.1-0.2c0-0.1,0-0.4,0-0.7
	L103.6,201.8L103.6,201.8z M105.9,201.8c0-0.5,0-0.6,0-0.7c0-0.1,0-0.2-0.1-0.2h-0.1l0,0c0,0,0,0,0.1,0c0.2,0,0.4,0,0.4,0h0.8
	c0.1,0,0.1,0,0.2,0l0,0l0,0c0,0,0,0.1,0,0.2v0.2l0,0l0,0v-0.1c0-0.1-0.1-0.1-0.3-0.1c-0.1,0-0.5,0-0.5,0l0,0v0.9l0,0
	c0,0,0.5,0,0.6,0s0.1,0,0.2,0c0,0,0,0,0.1,0s0,0,0,0s0,0.1,0,0.2c0,0.1,0,0.2,0,0.2v0.1l0,0v-0.1c0,0,0-0.1-0.2-0.1
	c-0.1,0-0.5,0-0.5,0l0,0v0.3c0,0.1,0,0.5,0,0.6c0,0.2,0.1,0.3,0.4,0.3c0.1,0,0.3,0,0.3,0c0.1,0,0.1-0.1,0.2-0.2v-0.1c0,0,0,0,0,0.1
	v0.3c0,0.1-0.1,0.1-0.2,0.1c-0.3,0-0.5,0-0.6,0s-0.2,0-0.3,0c0,0-0.1,0-0.2,0s-0.1,0-0.2,0h-0.1l0,0h0.1c0.1,0,0.1-0.1,0.1-0.2
	c0-0.1,0-0.4,0-0.7v-1H105.9z M108.1,201.8c0-0.5,0-0.6,0-0.7c0-0.1,0-0.2-0.1-0.2h-0.1l0,0c0,0,0,0,0.1,0c0.2,0,0.4,0,0.4,0
	s0.3,0,0.4,0c0.2,0,0.5,0,0.7,0.1c0.1,0.1,0.2,0.2,0.2,0.5s-0.1,0.5-0.4,0.8c0.3,0.4,0.5,0.7,0.7,0.9s0.3,0.2,0.4,0.2s0.1,0,0.1,0
	l0,0c0,0,0,0-0.1,0h-0.2c-0.2,0-0.3,0-0.4-0.1c-0.2-0.1-0.3-0.2-0.5-0.5c-0.1-0.2-0.3-0.4-0.4-0.5l0,0h-0.4l0,0v0.1
	c0,0.3,0,0.6,0,0.7c0,0.1,0,0.2,0.1,0.2c0,0,0.1,0,0.2,0l0,0c0,0,0,0-0.1,0c-0.2,0-0.4,0-0.4,0s-0.2,0-0.3,0h-0.1l0,0h0.1
	c0.1,0,0.1-0.1,0.1-0.2c0-0.1,0-0.4,0-0.7L108.1,201.8L108.1,201.8z M108.4,202.1L108.4,202.1c0.1,0.1,0.3,0.1,0.4,0.1
	s0.2,0,0.3-0.1c0.1-0.1,0.2-0.3,0.2-0.5c0-0.4-0.2-0.7-0.6-0.7c-0.1,0-0.2,0-0.3,0l0,0V202.1L108.4,202.1z M113.1,200.8
	c0.8,0,1.4,0.5,1.4,1.3s-0.6,1.4-1.4,1.4c-1,0-1.4-0.7-1.4-1.3C111.7,201.6,112.1,200.8,113.1,200.8L113.1,200.8z M113.1,203.3
	c0.3,0,0.9-0.2,0.9-1.1c0-0.8-0.5-1.2-1-1.2c-0.6,0-1,0.4-1,1.1C112,202.8,112.5,203.3,113.1,203.3z M115.2,201.8c0-0.5,0-0.6,0-0.7
	c0-0.1,0-0.2-0.1-0.2H115l0,0c0,0,0,0,0.1,0c0.2,0,0.4,0,0.4,0c0.1,0,0.8,0,0.9,0s0.1,0,0.2,0l0,0l0,0c0,0,0,0.1,0,0.2v0.2l0,0l0,0
	v-0.1c0,0-0.1-0.1-0.2-0.1h-0.6l0,0v0.9l0,0h0.5c0.1,0,0.1,0,0.2,0s0.1,0,0.2-0.1l0,0l0,0c0,0,0,0.1,0,0.2c0,0.1,0,0.2,0,0.2v0.1
	l0,0v-0.1c0,0-0.1-0.1-0.2-0.1s-0.5,0-0.6,0l0,0v0.3c0,0.3,0,0.6,0,0.7c0,0.1,0,0.2,0.1,0.2s0.1,0,0.2,0l0,0c0,0,0,0-0.1,0
	c-0.2,0-0.4,0-0.4,0s-0.2,0-0.3,0h-0.1l0,0h0.1c0.1,0,0.1-0.1,0.1-0.2c0-0.1,0-0.4,0-0.7L115.2,201.8L115.2,201.8z M118.9,202.6
	c0,0.5,0,0.8-0.1,1s-0.2,0.3-0.5,0.5l-0.1,0.1l0,0l0,0c0,0,0,0,0-0.1l0.1-0.1c0.2-0.2,0.3-0.4,0.3-1.3v-1c0-0.5,0-0.6,0-0.7
	c0-0.1,0-0.2-0.1-0.2h-0.1l0,0c0,0,0,0,0.1,0c0.2,0,0.4,0,0.4,0s0.2,0,0.3,0h0.1l0,0c0,0,0,0-0.1,0s-0.1,0.1-0.1,0.2
	c0,0.1,0,0.2,0,0.7L118.9,202.6L118.9,202.6z M121,200.8c0.8,0,1.4,0.5,1.4,1.3s-0.6,1.4-1.4,1.4c-1,0-1.4-0.7-1.4-1.3
	C119.6,201.6,120,200.8,121,200.8L121,200.8z M121.1,203.3c0.3,0,0.9-0.2,0.9-1.1c0-0.8-0.5-1.2-1-1.2c-0.6,0-1,0.4-1,1.1
	C120,202.8,120.4,203.3,121.1,203.3z M123.6,202.5c0-0.2,0-0.2-0.1-0.3c0-0.1-0.5-0.8-0.6-1c-0.1-0.1-0.2-0.2-0.2-0.2
	c-0.1,0-0.1,0-0.1,0l0,0l0,0c0.1,0,0.3,0,0.3,0s0.2,0,0.3,0l0,0c0,0,0,0-0.1,0c0,0,0,0,0,0.1v0.1l0.6,1.1c0.1-0.1,0.5-0.9,0.6-1
	c0-0.1,0.1-0.1,0.1-0.2c0,0,0-0.1-0.1-0.1h-0.1c0,0,0,0,0.1,0s0.2,0,0.2,0h0.3l0,0l0,0c0,0-0.1,0-0.2,0s-0.1,0.1-0.2,0.2
	c-0.1,0.1-0.6,0.9-0.7,1.1c-0.1,0.1,0,0.2,0,0.3v0.3c0,0.1,0,0.2,0,0.3s0,0.2,0.1,0.2c0,0,0.1,0,0.2,0l0,0c0,0,0,0-0.1,0
	c-0.2,0-0.4,0-0.4,0s-0.2,0-0.3,0h-0.1l0,0h0.1c0.1,0,0.1-0.1,0.1-0.2c0-0.1,0-0.3,0-0.3L123.6,202.5L123.6,202.5z M127.1,202.4
	c0,0.3,0,0.6,0,0.7c0,0.1,0,0.2,0.1,0.2s0.1,0,0.2,0l0,0c0,0,0,0-0.1,0c-0.2,0-0.4,0-0.4,0s-0.2,0-0.3,0h-0.1l0,0h0.1
	c0.1,0,0.1-0.1,0.1-0.2c0-0.1,0-0.4,0-0.7v-0.6c0-0.5,0-0.6,0-0.7c0-0.1,0-0.2-0.1-0.2h-0.1l0,0c0,0,0,0,0.1,0s0.3,0,0.4,0
	c0,0,0.2,0,0.3,0h0.1l0,0c0,0,0,0-0.1,0s-0.1,0.1-0.1,0.2c0,0.1,0,0.2,0,0.7L127.1,202.4L127.1,202.4z M128.4,202.9
	c0,0.3,0,0.4,0.1,0.4s0.1,0,0.2,0l0,0c0,0,0,0-0.1,0c-0.2,0-0.3,0-0.4,0c0,0-0.2,0-0.3,0h-0.1l0,0h0.1c0.1,0,0.1-0.1,0.1-0.4V201
	c0-0.1,0-0.2,0-0.2l0.1,0.1c0.1,0.1,0.6,0.6,1.1,1.2c0.3,0.4,0.7,0.8,0.8,0.9v-1.7c0-0.2,0-0.3-0.1-0.3s-0.1,0-0.2,0l0,0
	c0,0,0,0,0.1,0c0.2,0,0.3,0,0.4,0c0,0,0.2,0,0.3,0h0.1l0,0c0,0,0,0-0.1,0s-0.1,0.1-0.1,0.3v2c0,0.2,0,0.2,0,0.2s-0.1,0-0.3-0.2
	c0,0-0.5-0.5-0.9-0.9s-0.8-0.8-0.9-1L128.4,202.9L128.4,202.9z M135.4,202.9c0,0.1,0,0.3,0.2,0.3c0.1,0,0.2,0,0.2,0l0,0
	c0,0,0,0-0.1,0s-0.5,0-0.6,0s-0.1,0-0.1,0l0,0v-0.1l-0.2-1.7l0,0l-0.8,1.7c-0.1,0.1-0.1,0.2-0.1,0.2s-0.1,0-0.1-0.2
	c-0.1-0.2-0.3-0.6-0.4-0.8c-0.1-0.2-0.4-0.8-0.4-0.9l0,0l-0.1,1.5c0,0.1,0,0.1,0,0.2c0,0.1,0,0.1,0.1,0.1s0.1,0,0.1,0l0,0
	c0,0,0,0-0.1,0s-0.3,0-0.3,0s-0.2,0-0.3,0h-0.1l0,0h0.1c0.1,0,0.1-0.1,0.1-0.3l0.3-2.2v-0.1c0,0,0.1,0,0.1,0.1l1.1,2.1l1-2.1
	c0,0,0-0.1,0.1-0.1c0,0,0,0,0.1,0.1L135.4,202.9L135.4,202.9z M136.8,202.5c0-0.2,0-0.2-0.1-0.3c0-0.1-0.5-0.8-0.6-1
	c-0.1-0.1-0.2-0.2-0.2-0.2c-0.1,0-0.1,0-0.1,0l0,0l0,0c0.1,0,0.3,0,0.3,0s0.2,0,0.3,0l0,0c0,0,0,0-0.1,0c0,0,0,0,0,0.1v0.1l0.6,1.1
	c0.1-0.1,0.5-0.9,0.6-1c0-0.1,0.1-0.1,0.1-0.2c0,0,0-0.1-0.1-0.1h-0.1c0,0,0,0,0.1,0s0.2,0,0.2,0h0.3l0,0l0,0c0,0-0.1,0-0.2,0
	c-0.1,0-0.1,0.1-0.2,0.2c-0.1,0.1-0.6,0.9-0.7,1.1c-0.1,0.1,0,0.2,0,0.3v0.3c0,0.1,0,0.2,0,0.3s0,0.2,0.1,0.2c0,0,0.1,0,0.2,0l0,0
	c0,0,0,0-0.1,0c-0.2,0-0.4,0-0.4,0s-0.2,0-0.3,0h-0.1l0,0h0.1c0.1,0,0.1-0.1,0.1-0.2c0-0.1,0-0.3,0-0.3L136.8,202.5L136.8,202.5z
	 M142.6,202.9c0,0.1,0,0.3,0.2,0.3c0.1,0,0.2,0,0.2,0l0,0c0,0,0,0-0.1,0s-0.5,0-0.6,0s-0.1,0-0.1,0l0,0v-0.1l-0.2-1.7l0,0l-0.8,1.7
	c-0.1,0.1-0.1,0.2-0.1,0.2s-0.1,0-0.1-0.2c-0.1-0.2-0.3-0.6-0.4-0.8c-0.1-0.2-0.4-0.8-0.4-0.9l0,0l-0.1,1.5c0,0.1,0,0.1,0,0.2
	c0,0.1,0,0.1,0.1,0.1s0.1,0,0.1,0l0,0c0,0,0,0-0.1,0s-0.3,0-0.3,0s-0.2,0-0.3,0h-0.1l0,0h0.1c0.1,0,0.1-0.1,0.1-0.3l0.3-2.2v-0.1
	c0,0,0.1,0,0.1,0.1l1.1,2.1l1-2.1c0,0,0-0.1,0.1-0.1c0,0,0,0,0.1,0.1L142.6,202.9L142.6,202.9z M144,202.4c0,0.3,0,0.6,0,0.7
	c0,0.1,0,0.2,0.1,0.2s0.1,0,0.2,0l0,0c0,0,0,0-0.1,0c-0.2,0-0.4,0-0.4,0s-0.2,0-0.3,0h-0.1l0,0h0.1c0.1,0,0.1-0.1,0.1-0.2
	c0-0.1,0-0.4,0-0.7v-0.6c0-0.5,0-0.6,0-0.7c0-0.1,0-0.2-0.1-0.2h-0.1l0,0c0,0,0,0,0.1,0s0.3,0,0.4,0c0,0,0.2,0,0.3,0h0.1l0,0
	c0,0,0,0-0.1,0s-0.1,0.1-0.1,0.2c0,0.1,0,0.2,0,0.7L144,202.4L144,202.4z M145.3,202.9c0,0.3,0,0.4,0.1,0.4s0.1,0,0.2,0l0,0
	c0,0,0,0-0.1,0c-0.2,0-0.3,0-0.4,0c0,0-0.2,0-0.3,0h-0.1l0,0h0.1c0.1,0,0.1-0.1,0.1-0.4V201c0-0.1,0-0.2,0-0.2l0.1,0.1
	c0.1,0.1,0.6,0.6,1.1,1.2c0.3,0.4,0.7,0.8,0.8,0.9v-1.7c0-0.2,0-0.3-0.1-0.3s-0.1,0-0.2,0l0,0c0,0,0,0,0.1,0c0.2,0,0.3,0,0.4,0
	c0,0,0.2,0,0.3,0h0.1l0,0c0,0,0,0-0.1,0s-0.1,0.1-0.1,0.3v2c0,0.2,0,0.2,0,0.2s-0.1,0-0.3-0.2c0,0-0.5-0.5-0.9-0.9s-0.8-0.8-0.9-1
	L145.3,202.9L145.3,202.9z M148.4,201.8c0-0.5,0-0.6,0-0.7c0-0.1,0-0.2-0.1-0.2h-0.1l0,0c0,0,0,0,0.1,0c0.2,0,0.4,0,0.4,0
	s0.3,0,0.5,0c0.3,0,1,0,1.4,0.4c0.2,0.2,0.3,0.5,0.3,0.9s-0.2,0.7-0.4,0.9c-0.1,0.2-0.5,0.4-1.1,0.4c-0.2,0-0.3,0-0.5,0
	c-0.1,0-0.3,0-0.3,0h-0.1c-0.1,0-0.2,0-0.2,0h-0.1l0,0h0.1c0.1,0,0.1-0.1,0.1-0.2c0-0.1,0-0.4,0-0.7L148.4,201.8L148.4,201.8z
	 M148.7,202.2c0,0.4,0,0.7,0,0.7c0,0.1,0,0.2,0,0.2c0,0.1,0.2,0.1,0.6,0.1c0.3,0,0.6-0.1,0.8-0.3s0.3-0.5,0.3-0.8
	c0-0.4-0.2-0.7-0.3-0.8c-0.3-0.3-0.7-0.4-1.1-0.4c-0.1,0-0.2,0-0.2,0s0,0,0,0.1L148.7,202.2L148.7,202.2z"/>
<path class="st1" d="M3.7,181.1c-2-1.8-2.5-4.1-2.5-6.1c0-1.4,0.5-3.8,2.3-5.6c1.2-1.2,3.1-2.2,6.2-2.2c0.8,0,2,0.1,3,0.2
	c0.8,0.1,1.4,0.3,2.1,0.3c0.2,0,0.3,0.1,0.3,0.2c0,0.2-0.1,0.4-0.1,1.1c0,0.7,0,1.8-0.1,2.1c0,0.3-0.1,0.4-0.2,0.4
	c-0.1,0-0.2-0.1-0.2-0.4c0-0.8-0.3-1.6-0.9-2.1c-0.7-0.6-2.3-1.2-4.1-1.2c-2.7,0-4,0.8-4.7,1.5C3.4,171,3,172.8,3,174.9
	c0,3.9,3,7.5,7.4,7.5c1.5,0,2.7-0.2,3.6-1c0.4-0.4,0.7-1.4,0.8-1.7c0-0.2,0.1-0.3,0.2-0.3c0.1,0,0.1,0.1,0.1,0.3
	c0,0.1-0.2,1.9-0.4,2.6c-0.1,0.4-0.2,0.4-0.5,0.6c-0.8,0.3-2.4,0.5-3.7,0.5C7.3,183.3,5.3,182.6,3.7,181.1L3.7,181.1z M29.6,167.3
	c4.6,0,8,2.9,8,7.7s-3.2,8.4-8.2,8.4c-5.6,0-7.9-4.4-7.9-8C21.6,172,24,167.3,29.6,167.3L29.6,167.3z M30.1,182.6
	c1.8,0,5.7-1.1,5.7-7c0-4.9-3-7.6-6.2-7.6c-3.4,0-6,2.2-6,6.7C23.5,179.5,26.4,182.6,30.1,182.6z M61.8,180.4
	c0.1,0.7,0.2,1.9,1.1,2.2c0.6,0.2,1.1,0.2,1.3,0.2c0.1,0,0.2,0,0.2,0.1s-0.2,0.2-0.4,0.2c-0.4,0-2.7-0.1-3.4-0.1
	c-0.5,0-0.6-0.1-0.6-0.2c0-0.1,0-0.1,0.1-0.1s0.1-0.4,0.1-0.7l-1-10.6h-0.1l-5,10.6c-0.4,0.9-0.5,1.1-0.7,1.1
	c-0.1,0-0.2-0.2-0.6-0.9c-0.5-1-2.3-4.5-2.4-4.7c-0.2-0.4-2.5-5.3-2.7-5.8h-0.1l-0.8,9.5c0,0.3,0,0.7,0,1s0.2,0.6,0.5,0.6
	c0.3,0.1,0.7,0.1,0.8,0.1s0.2,0,0.2,0.1s-0.1,0.2-0.4,0.2c-0.8,0-1.7-0.1-1.9-0.1s-1.2,0.1-1.7,0.1c-0.2,0-0.3,0-0.3-0.2
	c0-0.1,0.1-0.1,0.2-0.1c0.2,0,0.3,0,0.6-0.1c0.7-0.1,0.7-0.9,0.8-1.7l1.5-13.3c0-0.2,0.1-0.4,0.2-0.4s0.2,0.1,0.3,0.3l6.3,12.9
	l6-12.9c0.1-0.2,0.2-0.3,0.3-0.3s0.2,0.2,0.2,0.6L61.8,180.4L61.8,180.4z M73.9,177.1c0,2,0,3.6,0.1,4.4c0.1,0.6,0.2,1,0.8,1.1
	c0.3,0,0.7,0.1,0.9,0.1c0.1,0,0.2,0.1,0.2,0.1c0,0.1-0.1,0.2-0.3,0.2c-1.1,0-2.4-0.1-2.5-0.1s-1.4,0.1-2,0.1c-0.2,0-0.3,0-0.3-0.2
	c0-0.1,0-0.1,0.2-0.1s0.4,0,0.6-0.1c0.4-0.1,0.5-0.5,0.6-1.1c0.1-0.9,0.1-2.5,0.1-4.4v-3.6c0-3.2,0-3.8,0-4.4c0-0.7-0.2-1-0.7-1.1
	c-0.2-0.1-0.5-0.1-0.6-0.1s-0.2,0-0.2-0.1s0.1-0.2,0.3-0.2c0.7,0,2,0.1,2.1,0.1s1.4-0.1,2-0.1c0.2,0,0.3,0,0.3,0.2
	c0,0.1-0.1,0.1-0.2,0.1s-0.3,0-0.5,0.1c-0.6,0.1-0.7,0.4-0.8,1.2c0,0.7,0,1.2,0,4.4L73.9,177.1L73.9,177.1z M85.8,180.3
	c0,1.7,0.2,2.2,0.8,2.4c0.4,0.1,0.8,0.1,1,0.1c0.1,0,0.2,0,0.2,0.1s-0.1,0.2-0.4,0.2c-1.2,0-2-0.1-2.2-0.1s-1,0.1-2,0.1
	c-0.2,0-0.3,0-0.3-0.2c0-0.1,0.1-0.1,0.2-0.1c0.2,0,0.5,0,0.8-0.1c0.5-0.1,0.6-0.7,0.6-2.6v-11.7c0-0.8,0.1-1,0.2-1
	c0.2,0,0.5,0.4,0.7,0.7c0.3,0.3,3.4,3.6,6.5,7c2,2.2,4.3,4.7,4.9,5.3L96.6,170c0-1.3-0.2-1.8-0.8-1.9c-0.4-0.1-0.8-0.1-1-0.1
	c-0.1,0-0.2-0.1-0.2-0.1c0-0.1,0.2-0.1,0.4-0.1c0.9,0,1.9,0.1,2.1,0.1s0.9-0.1,1.7-0.1c0.2,0,0.4,0,0.4,0.1S99.1,168,99,168
	s-0.2,0-0.5,0.1c-0.7,0.1-0.8,0.6-0.8,1.8v12c0,1.4,0,1.5-0.2,1.5s-0.4-0.2-1.5-1.3c-0.2-0.2-3.2-3.2-5.3-5.5
	c-2.4-2.6-4.7-5.1-5.3-5.9L85.8,180.3L85.8,180.3z M118.2,177.8c0-1.7-0.1-1.9-0.9-2.1c-0.2,0-0.5-0.1-0.7-0.1c-0.1,0-0.2,0-0.2-0.1
	s0.1-0.2,0.3-0.2c0.9,0,2.2,0.1,2.3,0.1c0.1,0,1.4-0.1,2-0.1c0.2,0,0.3,0,0.3,0.2c0,0.1-0.1,0.1-0.2,0.1s-0.3,0-0.5,0.1
	c-0.6,0.1-0.7,0.4-0.8,1.2c0,0.7,0,1.3,0,2.1v2.3c0,0.9,0,1-0.3,1.1c-1.3,0.7-3.2,0.9-4.3,0.9c-1.6,0-4.5-0.2-6.7-2.2
	c-1.2-1.1-2.4-3.3-2.4-5.8c0-3.3,1.6-5.6,3.4-6.7c1.8-1.1,3.9-1.3,5.4-1.3c1.3,0,2.7,0.3,3.1,0.3c0.4,0.1,1.1,0.2,1.7,0.2
	c0.2,0,0.2,0.1,0.2,0.2c0,0.3-0.1,0.9-0.1,2.9c0,0.3,0,0.4-0.2,0.4c-0.1,0-0.1-0.1-0.1-0.3c0-0.3-0.1-0.9-0.4-1.4
	c-0.5-0.8-2.2-1.7-4.8-1.7c-1.3,0-2.8,0.1-4.4,1.4c-1.2,0.9-2,2.8-2,5.2c0,2.9,1.5,5,2.2,5.7c1.6,1.6,3.5,2.2,5.4,2.2
	c0.7,0,1.8-0.1,2.3-0.4c0.3-0.1,0.4-0.4,0.4-0.7L118.2,177.8L118.2,177.8z M139.6,182.8c-0.3-0.1-0.3-0.2-0.3-0.8
	c0-1,0.1-1.8,0.1-2.2c0-0.2,0.1-0.3,0.2-0.3c0.1,0,0.1,0.1,0.1,0.2c0,0.2,0,0.5,0.1,0.8c0.3,1.5,1.7,2.1,3,2.1c2,0,2.9-1.4,2.9-2.7
	c0-1.4-0.6-2.2-2.4-3.7l-0.9-0.8c-2.2-1.8-2.7-3.1-2.7-4.4c0-2.2,1.6-3.7,4.2-3.7c0.8,0,1.4,0.1,1.9,0.2c0.4,0.1,0.6,0.1,0.7,0.1
	s0.2,0,0.2,0.1s-0.1,0.8-0.1,2.2c0,0.3,0,0.5-0.1,0.5s-0.1-0.1-0.2-0.3c0-0.2-0.1-0.8-0.3-1c-0.1-0.2-0.7-1.1-2.6-1.1
	c-1.4,0-2.5,0.9-2.5,2.4c0,1.2,0.5,1.9,2.5,3.4l0.6,0.4c2.4,1.9,3,3.2,3,4.8c0,0.8-0.3,2.4-1.7,3.4c-0.9,0.6-2,0.9-3.1,0.9
	C141.4,183.3,140.5,183.2,139.6,182.8L139.6,182.8z M162.5,167.3c4.6,0,8.1,2.9,8.1,7.7s-3.2,8.4-8.2,8.4c-5.6,0-7.9-4.4-7.9-8
	C154.4,172,156.8,167.3,162.5,167.3L162.5,167.3z M162.9,182.6c1.8,0,5.7-1.1,5.7-7c0-4.9-3-7.6-6.2-7.6c-3.4,0-6,2.2-6,6.7
	C156.3,179.5,159.2,182.6,162.9,182.6z M185.3,167.3c4.6,0,8.1,2.9,8.1,7.7s-3.2,8.4-8.2,8.4c-5.6,0-7.9-4.4-7.9-8
	C177.2,172,179.6,167.3,185.3,167.3L185.3,167.3z M185.7,182.6c1.8,0,5.7-1.1,5.7-7c0-4.9-3-7.6-6.2-7.6c-3.4,0-6,2.2-6,6.7
	C179.2,179.5,182,182.6,185.7,182.6z M202.3,180.3c0,1.7,0.2,2.2,0.8,2.4c0.4,0.1,0.8,0.1,1,0.1c0.1,0,0.2,0,0.2,0.1
	s-0.1,0.2-0.4,0.2c-1.2,0-2-0.1-2.2-0.1s-1,0.1-2,0.1c-0.2,0-0.3,0-0.3-0.2c0-0.1,0.1-0.1,0.2-0.1c0.2,0,0.5,0,0.8-0.1
	c0.5-0.1,0.6-0.7,0.6-2.6v-11.7c0-0.8,0.1-1,0.2-1s0.5,0.4,0.7,0.7c0.3,0.3,3.4,3.6,6.5,7c2,2.2,4.3,4.7,4.9,5.3l-0.2-10.4
	c0-1.3-0.2-1.8-0.8-1.9c-0.4-0.1-0.8-0.1-1-0.1c-0.1,0-0.2-0.1-0.2-0.1c0-0.1,0.2-0.1,0.4-0.1c0.9,0,1.9,0.1,2.1,0.1
	c0.2,0,0.9-0.1,1.7-0.1c0.2,0,0.4,0,0.4,0.1s-0.1,0.1-0.2,0.1c-0.1,0-0.2,0-0.5,0.1c-0.7,0.1-0.8,0.6-0.8,1.8v12
	c0,1.4,0,1.5-0.2,1.5s-0.4-0.2-1.5-1.3c-0.2-0.2-3.2-3.2-5.3-5.5c-2.4-2.6-4.7-5.1-5.3-5.9L202.3,180.3L202.3,180.3z M18.2,150.4
	l-2.7,1.3l-1.8-2.9L4.4,153l0,0l-1.8-2.4l1.4-0.4v-23.6h12.4v15.3H7.2v7l5.1-2.3l-1.7-2.8l2.7-1.1L18.2,150.4z M7.2,129.4v3.6h6.3
	v-3.6H7.2z M7.2,139.2h6.3v-3.6H7.2V139.2z M23.1,146.6c4.1,0.6,4.2-0.4,4.2-1.8v-14.7h-4.9v23.7l-3.1,0.1l0,0v-26.7h11v18.3
	c0,4.4-2.8,4.3-6.6,4.3L23.1,146.6z M48.6,125.2v27.1h-1.1v-27.1C47.5,125.2,48.6,125.2,48.6,125.2z M64.2,151.5
	c3.3-3.4,2.8-6.7,2.8-8.8h-2.7v-2.9h7.5v-3.6h-2.9v1.2l-2.7,0l0,0v-10.7h2.7v6.6h2.9v-8.2h3v28.8h-3v-11.2h-2.1
	c0,3.6-0.2,7.4-3.2,10.7L64.2,151.5z M75.5,131.4c2.7-1.8,4.9-3.9,6.5-6.3l3.1,0.5c-0.5,0.7-1,1.4-1.4,2h8.9v2.9
	c-3.1,4.8-8.2,8.1-15.5,9.7l0,0c-0.4-1-0.8-1.9-1.3-2.5c1.5-0.3,2.9-0.7,4.1-1.2l-2.2-2.1l2.1-1.3l2.6,2.4l1.8-0.8l-2.7-2.6l2.1-1.3
	l2.9,2.5c1-0.8,2-1.8,3-3h-8.2c-1,1-2.5,2.2-4.5,3.6L75.5,131.4z M75.9,143.7L75.9,143.7v-2.8h17.5v2.9 M90,149.8
	c0,4.1-2.8,3.7-8.1,3.7c-0.2-1-0.4-2-0.6-3c4.1,0,5.6,0.6,5.6-1.6v-11.5H90 M77.2,146l2.3-1.7l3.7,3.7l-2.4,2.1l0,0L77.2,146z
	 M110.4,125.2v27.1h-1.1v-27.1C109.3,125.2,110.4,125.2,110.4,125.2z M127.8,141.9c-0.2-0.4-0.7-1-1.4-1.9c-0.3-0.4-0.6-0.7-0.7-1
	c3.8-2.8,6.4-6,8-9.6l3.1,1.3C134.5,135.2,131.5,138.9,127.8,141.9z M128.4,152.6l-0.8-2.9c0.3,0,0.8,0,1.4-0.1h1.3
	c3.1-4.3,5.9-8.8,8.2-13.4l3.4,1.6c-2.3,3.6-4.8,7.5-7.6,11.6l12.3-0.7c-0.6-0.7-1.4-1.7-2.4-3c-0.7-1-1.3-1.8-1.7-2.3l2.5-1.7
	c1.4,1.8,3.7,4.5,6.8,8.3c0.8,0.9,1.4,1.6,1.8,2l-2.9,1.9l-2.1-2.7c-3.1,0.2-7.8,0.5-14.2,1C131.8,152.4,129.8,152.5,128.4,152.6
	L128.4,152.6z M153.4,140.8c-4.7-3.1-8.1-7.2-10-12.1h-7.5v-2.5h9.9c2,5,5.2,8.8,9.7,11.4c-0.1,0.1-0.2,0.2-0.4,0.5
	C154.3,139.4,153.8,140.2,153.4,140.8L153.4,140.8z M172.1,125.2v27.1H171v-27.1C171,125.2,172.1,125.2,172.1,125.2z M189.1,153.8
	v-27.5h11.8v10.1H192v17.4H189.1z M192,128.5v2h6.1v-2H192z M192,134.4h6.1v-2H192V134.4z M204.4,151.9v-5.7h-4.5
	c-0.2,2.3-1.5,4.4-4,6.1c-0.8-0.6-1.6-1.2-2.3-1.7c2.2-1.4,3.3-2.8,3.5-4.5h-3.9v-2.4h4.1v-3.1h-2.8v-2.3h15.3v2.3H207v3.1h4.2v2.4
	H207v5.7L204.4,151.9L204.4,151.9z M200.2,143.5v0.4h4.2v-3.1h-4.2V143.5z M208.1,153.6c-0.1-0.2-0.2-0.7-0.2-1.3
	c-0.2-0.6-0.3-1.1-0.4-1.3h3c1.5,0.1,2.2-0.5,2.2-1.8v-12.7h-8.9v-10.1h11.9v23.1c0,2.7-1.4,4-4.1,4.1H208.1L208.1,153.6z
	 M206.6,128.5v2h6.1v-2H206.6z M206.6,132.4v2h6.1v-2H206.6z M52.1,195.9c0,0.4,0,0.7,0,0.9c0,0.1,0,0.2,0.2,0.2c0.1,0,0.1,0,0.2,0
	l0,0c0,0,0,0-0.1,0c-0.2,0-0.5,0-0.5,0s-0.3,0-0.4,0h-0.1l0,0h0.1c0.1,0,0.1-0.1,0.1-0.2c0-0.2,0-0.5,0-0.9v-1.7H51
	c-0.2,0-0.3,0-0.4,0.1c0,0.1-0.1,0.1-0.1,0.1l0,0l0,0l0.1-0.4v-0.1c0,0,0.1,0,0.2,0c0.1,0,0.3,0,0.3,0h1.5c0.1,0,0.2,0,0.3,0
	s0.1,0,0.1,0l0,0c0,0.1,0,0.4,0,0.4v0.1c0,0,0,0,0-0.1l0,0c0-0.1-0.1-0.2-0.5-0.2H52L52.1,195.9L52.1,195.9z M55.9,196
	c0,0.3,0,0.6,0,0.7c0,0.1,0,0.2,0.1,0.2c0,0,0.1,0,0.2,0l0,0c0,0,0,0-0.1,0c-0.2,0-0.4,0-0.4,0s-0.2,0-0.3,0h-0.1l0,0h0.1
	c0.1,0,0.1-0.1,0.1-0.2c0-0.1,0-0.4,0-0.7v-0.3l0,0H54l0,0v0.3c0,0.3,0,0.6,0,0.7c0,0.1,0,0.2,0.1,0.2s0.1,0,0.2,0l0,0
	c0,0,0,0-0.1,0c-0.2,0-0.4,0-0.4,0s-0.2,0-0.3,0h-0.1l0,0h0.1c0.1,0,0.1-0.1,0.1-0.2c0-0.1,0-0.4,0-0.7v-0.6c0-0.5,0-0.6,0-0.7
	c0-0.1,0-0.2-0.1-0.2h-0.1l0,0c0,0,0,0,0.1,0c0.2,0,0.4,0,0.4,0s0.2,0,0.3,0h0.1l0,0c0,0,0,0-0.1,0s-0.1,0.1-0.1,0.2
	c0,0.1,0,0.2,0,0.7v0.1l0,0h1.5l0,0v-0.1c0-0.5,0-0.6,0-0.7c0-0.1,0-0.2-0.1-0.2h-0.1l0,0c0,0,0,0,0.1,0c0.2,0,0.4,0,0.4,0
	s0.2,0,0.3,0h0.1l0,0c0,0,0,0-0.1,0s-0.1,0.1-0.1,0.2c0,0.1,0,0.2,0,0.7L55.9,196L55.9,196z M57.1,195.4c0-0.5,0-0.6,0-0.7
	c0-0.1,0-0.2-0.1-0.2h-0.1l0,0c0,0,0,0,0.1,0c0.2,0,0.4,0,0.4,0h0.8c0.1,0,0.1,0,0.2,0l0,0l0,0c0,0,0,0.1,0,0.2v0.2l0,0l0,0v-0.1
	c0-0.1-0.1-0.1-0.3-0.1c-0.1,0-0.5,0-0.5,0l0,0v0.9l0,0c0,0,0.5,0,0.6,0s0.1,0,0.2,0c0,0,0,0,0.1,0l0,0c0,0,0,0.1,0,0.2
	c0,0.1,0,0.2,0,0.2v0.1l0,0V196c0,0,0-0.1-0.2-0.1c-0.1,0-0.5,0-0.5,0l0,0v0.3c0,0.1,0,0.5,0,0.6c0,0.2,0.1,0.3,0.4,0.3
	c0.1,0,0.3,0,0.3,0c0.1,0,0.1-0.1,0.2-0.2v-0.1c0,0,0,0,0,0.1s0,0.3,0,0.3c0,0.1-0.1,0.1-0.2,0.1c-0.3,0-0.5,0-0.6,0s-0.2,0-0.3,0
	h-0.1c-0.1,0-0.1,0-0.2,0h-0.1l0,0h0.1c0.1,0,0.1-0.1,0.1-0.2c0-0.1,0-0.4,0-0.7L57.1,195.4L57.1,195.4z M59.3,195.4
	c0-0.5,0-0.6,0-0.7c0-0.1,0-0.2-0.1-0.2h-0.1l0,0c0,0,0,0,0.1,0c0.2,0,0.4,0,0.4,0s0.3,0,0.4,0c0.2,0,0.5,0,0.7,0.1
	c0.1,0.1,0.2,0.2,0.2,0.5s-0.1,0.5-0.4,0.8c0.3,0.4,0.5,0.7,0.7,0.9s0.3,0.2,0.4,0.2c0.1,0,0.1,0,0.1,0l0,0c0,0,0,0-0.1,0h-0.2
	c-0.2,0-0.3,0-0.4-0.1c-0.1-0.1-0.3-0.2-0.5-0.5c-0.1-0.2-0.3-0.4-0.4-0.5l0,0h-0.4l0,0v0.1c0,0.3,0,0.6,0,0.7c0,0.1,0,0.2,0.1,0.2
	c0,0,0.1,0,0.2,0l0,0c0,0,0,0-0.1,0c-0.2,0-0.4,0-0.4,0s-0.2,0-0.3,0h-0.1l0,0h0.1c0.1,0,0.1-0.1,0.1-0.2c0-0.1,0-0.4,0-0.7V195.4
	L59.3,195.4z M59.6,195.7C59.6,195.8,59.6,195.8,59.6,195.7c0.1,0.1,0.3,0.1,0.4,0.1c0.1,0,0.2,0,0.3-0.1s0.2-0.3,0.2-0.5
	c0-0.4-0.2-0.7-0.6-0.7c-0.1,0-0.2,0-0.3,0l0,0L59.6,195.7L59.6,195.7z M62,195.4c0-0.5,0-0.6,0-0.7c0-0.1,0-0.2-0.1-0.2h-0.1l0,0
	c0,0,0,0,0.1,0c0.2,0,0.4,0,0.4,0h0.8c0.1,0,0.1,0,0.2,0l0,0l0,0c0,0,0,0.1,0,0.2v0.2l0,0l0,0v-0.1c0-0.1-0.1-0.1-0.3-0.1
	c-0.1,0-0.5,0-0.5,0l0,0v0.9l0,0c0,0,0.5,0,0.6,0s0.1,0,0.2,0c0,0,0,0,0.1,0l0,0c0,0,0,0.1,0,0.2c0,0.1,0,0.2,0,0.2v0.1l0,0V196
	c0,0,0-0.1-0.2-0.1c-0.1,0-0.5,0-0.5,0l0,0v0.3c0,0.1,0,0.5,0,0.6c0,0.2,0.1,0.3,0.4,0.3c0.1,0,0.3,0,0.3,0c0.1,0,0.1-0.1,0.2-0.2
	v-0.1c0,0,0,0,0,0.1s0,0.3,0,0.3c0,0.1-0.1,0.1-0.2,0.1c-0.3,0-0.5,0-0.6,0s-0.2,0-0.3,0h-0.1c-0.1,0-0.1,0-0.2,0h-0.1l0,0h0.1
	c0.1,0,0.1-0.1,0.1-0.2c0-0.1,0-0.4,0-0.7v-1H62z M65.7,196.1c0,0.5,0,0.7,0.1,0.8s0.2,0.1,0.5,0.1c0.2,0,0.3,0,0.4-0.1
	c0-0.1,0.1-0.1,0.1-0.2l0,0c0,0,0,0,0,0.1c0,0,0,0.2-0.1,0.3c0,0.1,0,0.1-0.2,0.1c-0.3,0-0.4,0-0.6,0s-0.3,0-0.4,0h-0.1
	c-0.1,0-0.1,0-0.2,0h-0.1l0,0h0.1c0.1,0,0.1-0.1,0.1-0.2c0-0.1,0-0.4,0-0.7v-0.6c0-0.5,0-0.6,0-0.7c0-0.1,0-0.2-0.1-0.2h-0.1l0,0
	c0,0,0,0,0.1,0c0.2,0,0.4,0,0.4,0s0.3,0,0.4,0h0.1l0,0H66c-0.1,0-0.1,0.1-0.1,0.2c0,0.1,0,0.2,0,0.7v0.4H65.7z M67.9,196
	c0,0.3,0,0.6,0,0.7c0,0.1,0,0.2,0.1,0.2s0.1,0,0.2,0l0,0c0,0,0,0-0.1,0c-0.2,0-0.4,0-0.4,0s-0.2,0-0.3,0h-0.1l0,0h0.1
	c0.1,0,0.1-0.1,0.1-0.2c0-0.1,0-0.4,0-0.7v-0.6c0-0.5,0-0.6,0-0.7c0-0.1,0-0.2-0.1-0.2h-0.1l0,0c0,0,0,0,0.1,0s0.3,0,0.4,0
	c0,0,0.2,0,0.3,0h0.1l0,0c0,0,0,0-0.1,0s-0.1,0.1-0.1,0.2c0,0.1,0,0.2,0,0.7L67.9,196L67.9,196z M69.9,196c0,0.3,0,0.6,0,0.7
	c0,0.1,0,0.2,0.1,0.2c0,0,0.1,0,0.2,0l0,0c0,0,0,0-0.1,0c-0.2,0-0.4,0-0.4,0s-0.3,0-0.4,0h-0.1l0,0h0.1c0.1,0,0.1-0.1,0.1-0.2
	c0-0.1,0-0.4,0-0.7v-1.4h-0.5c-0.2,0-0.3,0-0.4,0.1c0,0.1,0,0.1-0.1,0.1l0,0l0,0c0,0,0.1-0.3,0.1-0.4v-0.1c0,0,0.1,0,0.2,0
	s0.2,0,0.3,0h1.3c0.1,0,0.2,0,0.3,0c0.1,0,0.1,0,0.1,0l0,0c0,0.1,0,0.3,0,0.4l0,0c0,0,0,0,0-0.1l0,0c0-0.1-0.1-0.2-0.4-0.2h-0.4
	L69.9,196L69.9,196z M72.3,196c0,0.3,0,0.6,0,0.7c0,0.1,0,0.2,0.1,0.2c0,0,0.1,0,0.2,0l0,0c0,0,0,0-0.1,0c-0.2,0-0.4,0-0.4,0
	s-0.3,0-0.4,0h-0.1l0,0h0.1c0.1,0,0.1-0.1,0.1-0.2c0-0.1,0-0.4,0-0.7v-1.4h-0.5c-0.2,0-0.3,0-0.4,0.1c0,0.1,0,0.1-0.1,0.1l0,0l0,0
	c0,0,0.1-0.3,0.1-0.4v-0.1c0,0,0.1,0,0.2,0s0.2,0,0.3,0h1.3c0.1,0,0.2,0,0.3,0c0.1,0,0.1,0,0.1,0l0,0c0,0.1,0,0.3,0,0.4l0,0
	c0,0,0,0,0-0.1l0,0c0-0.1-0.1-0.2-0.4-0.2h-0.4L72.3,196L72.3,196z M74.3,196.1c0,0.5,0,0.7,0.1,0.8s0.2,0.1,0.5,0.1
	c0.2,0,0.3,0,0.4-0.1c0-0.1,0.1-0.1,0.1-0.2l0,0c0,0,0,0,0,0.1c0,0,0,0.2-0.1,0.3c0,0.1,0,0.1-0.2,0.1c-0.3,0-0.4,0-0.6,0
	s-0.3,0-0.4,0H74c-0.1,0-0.1,0-0.2,0h-0.1l0,0h0.1c0.1,0,0.1-0.1,0.1-0.2c0-0.1,0-0.4,0-0.7v-0.6c0-0.5,0-0.6,0-0.7
	c0-0.1,0-0.2-0.1-0.2h-0.1l0,0c0,0,0,0,0.1,0c0.2,0,0.4,0,0.4,0s0.3,0,0.4,0h0.1l0,0h-0.1c-0.1,0-0.1,0.1-0.1,0.2c0,0.1,0,0.2,0,0.7
	v0.4H74.3z M76.1,195.4c0-0.5,0-0.6,0-0.7c0-0.1,0-0.2-0.1-0.2h-0.1l0,0c0,0,0,0,0.1,0c0.2,0,0.4,0,0.4,0h0.8c0.1,0,0.1,0,0.2,0l0,0
	l0,0c0,0,0,0.1,0,0.2v0.2l0,0l0,0v-0.1c0-0.1-0.1-0.1-0.3-0.1c-0.1,0-0.5,0-0.5,0l0,0v0.9l0,0c0,0,0.5,0,0.6,0s0.1,0,0.2,0
	c0,0,0,0,0.1,0l0,0c0,0,0,0.1,0,0.2c0,0.1,0,0.2,0,0.2v0.1l0,0V196c0,0,0-0.1-0.2-0.1c-0.1,0-0.5,0-0.5,0l0,0v0.3c0,0.1,0,0.5,0,0.6
	c0,0.2,0.1,0.3,0.4,0.3c0.1,0,0.3,0,0.3,0c0.1,0,0.1-0.1,0.2-0.2v-0.1c0,0,0,0,0,0.1s0,0.3,0,0.3c0,0.1-0.1,0.1-0.2,0.1
	c-0.3,0-0.5,0-0.6,0s-0.2,0-0.3,0h-0.1c-0.1,0-0.1,0-0.2,0h-0.1l0,0h0.1c0.1,0,0.1-0.1,0.1-0.2c0-0.1,0-0.4,0-0.7L76.1,195.4
	L76.1,195.4z M80.3,196c0,0.3,0,0.6,0,0.7c0,0.1,0,0.2,0.1,0.2c0,0,0.1,0,0.2,0l0,0c0,0,0,0-0.1,0c-0.2,0-0.4,0-0.4,0s-0.3,0-0.4,0
	h-0.1l0,0h0.1c0.1,0,0.1-0.1,0.1-0.2c0-0.1,0-0.4,0-0.7v-1.4h-0.5c-0.2,0-0.3,0-0.4,0.1c0,0.1,0,0.1-0.1,0.1l0,0l0,0
	c0,0,0.1-0.3,0.1-0.4v-0.1c0,0,0.1,0,0.2,0s0.2,0,0.3,0h1.3c0.1,0,0.2,0,0.3,0c0.1,0,0.1,0,0.1,0l0,0c0,0.1,0,0.3,0,0.4l0,0
	c0,0,0,0,0-0.1l0,0c0-0.1-0.1-0.2-0.4-0.2h-0.4L80.3,196L80.3,196z M84.1,196c0,0.3,0,0.6,0,0.7c0,0.1,0,0.2,0.1,0.2
	c0,0,0.1,0,0.2,0l0,0c0,0,0,0-0.1,0c-0.2,0-0.4,0-0.4,0s-0.2,0-0.3,0h-0.1l0,0h0.1c0.1,0,0.1-0.1,0.1-0.2c0-0.1,0-0.4,0-0.7v-0.3
	l0,0h-1.5l0,0v0.3c0,0.3,0,0.6,0,0.7c0,0.1,0,0.2,0.1,0.2s0.1,0,0.2,0l0,0c0,0,0,0-0.1,0c-0.2,0-0.4,0-0.4,0s-0.2,0-0.3,0h-0.1l0,0
	h0.1c0.1,0,0.1-0.1,0.1-0.2c0-0.1,0-0.4,0-0.7v-0.6c0-0.5,0-0.6,0-0.7c0-0.1,0-0.2-0.1-0.2h-0.1l0,0c0,0,0,0,0.1,0
	c0.2,0,0.4,0,0.4,0s0.2,0,0.3,0h0.1l0,0c0,0,0,0-0.1,0s-0.1,0.1-0.1,0.2c0,0.1,0,0.2,0,0.7v0.1l0,0h1.5l0,0v-0.1c0-0.5,0-0.6,0-0.7
	c0-0.1,0-0.2-0.1-0.2h-0.1l0,0c0,0,0,0,0.1,0c0.2,0,0.4,0,0.4,0s0.2,0,0.3,0h0.1l0,0c0,0,0,0-0.1,0s-0.1,0.1-0.1,0.2
	c0,0.1,0,0.2,0,0.7L84.1,196L84.1,196z M86.3,194.4c0.8,0,1.4,0.5,1.4,1.3s-0.6,1.4-1.4,1.4c-1,0-1.4-0.7-1.4-1.3
	C84.9,195.2,85.3,194.4,86.3,194.4L86.3,194.4z M86.4,196.9c0.3,0,0.9-0.2,0.9-1.1c0-0.8-0.5-1.2-1-1.2c-0.6,0-1,0.4-1,1.1
	C85.3,196.4,85.8,196.9,86.4,196.9z M88.4,195.4c0-0.5,0-0.6,0-0.7c0-0.1,0-0.2-0.1-0.2h-0.1l0,0c0,0,0,0,0.1,0c0.2,0,0.4,0,0.4,0
	s0.3,0,0.4,0h0.1l0,0c0,0,0,0-0.1,0s-0.1,0.1-0.1,0.2c0,0.1,0,0.2,0,0.7v0.5c0,0.5,0.1,0.7,0.3,0.8c0.2,0.2,0.3,0.2,0.5,0.2
	s0.4-0.1,0.5-0.2c0.2-0.2,0.2-0.5,0.2-0.8v-0.4c0-0.5,0-0.6,0-0.7c0-0.1,0-0.2-0.1-0.2h-0.1l0,0c0,0,0,0,0.1,0c0.2,0,0.4,0,0.4,0
	s0.2,0,0.3,0h0.1l0,0c0,0,0,0-0.1,0s-0.1,0.1-0.1,0.2c0,0.1,0,0.2,0,0.7v0.4c0,0.4,0,0.8-0.3,1s-0.5,0.2-0.7,0.2
	c-0.1,0-0.5,0-0.7-0.2S89,196.5,89,196L88.4,195.4L88.4,195.4z M93.1,196.2c0-0.3,0-0.3-0.1-0.3h-0.1l0,0c0,0,0,0,0.1,0
	c0.2,0,0.4,0,0.4,0s0.2,0,0.3,0h0.1l0,0c0,0,0,0-0.1,0s-0.1,0.1-0.1,0.2c0,0.1,0,0.2,0,0.3v0.4c0,0.2,0,0.2,0,0.2
	c-0.2,0.1-0.5,0.1-0.7,0.1c-0.3,0-0.8,0-1.2-0.4c-0.2-0.2-0.4-0.5-0.4-1s0.3-0.9,0.6-1.1c0.3-0.2,0.7-0.2,0.9-0.2
	c0.2,0,0.5,0,0.5,0.1c0.1,0,0.2,0,0.3,0l0,0c0,0,0,0.1,0,0.5c0,0.1,0,0.1,0,0.1s0,0,0-0.1c0,0,0-0.1-0.1-0.2
	c-0.1-0.1-0.4-0.3-0.8-0.3c-0.2,0-0.5,0-0.7,0.2s-0.3,0.5-0.3,0.9c0,0.5,0.2,0.8,0.4,0.9c0.3,0.3,0.6,0.4,0.9,0.4
	c0.1,0,0.3,0,0.4-0.1c0,0,0.1,0,0.1-0.1v-0.5H93.1z M96.6,196c0,0.3,0,0.6,0,0.7c0,0.1,0,0.2,0.1,0.2c0,0,0.1,0,0.2,0l0,0
	c0,0,0,0-0.1,0c-0.2,0-0.4,0-0.4,0s-0.2,0-0.3,0H96l0,0h0.1c0.1,0,0.1-0.1,0.1-0.2c0-0.1,0-0.4,0-0.7v-0.3l0,0h-1.5l0,0v0.3
	c0,0.3,0,0.6,0,0.7c0,0.1,0,0.2,0.1,0.2s0.1,0,0.2,0l0,0c0,0,0,0-0.1,0c-0.2,0-0.4,0-0.4,0s-0.2,0-0.3,0h-0.1l0,0h0.1
	c0.1,0,0.1-0.1,0.1-0.2c0-0.1,0-0.4,0-0.7v-0.6c0-0.5,0-0.6,0-0.7c0-0.1,0-0.2-0.1-0.2h-0.1l0,0c0,0,0,0,0.1,0c0.2,0,0.4,0,0.4,0
	s0.2,0,0.3,0H95l0,0c0,0,0,0-0.1,0s-0.1,0.1-0.1,0.2c0,0.1,0,0.2,0,0.7v0.1l0,0h1.5l0,0v-0.1c0-0.5,0-0.6,0-0.7c0-0.1,0-0.2-0.1-0.2
	h-0.1l0,0c0,0,0,0,0.1,0c0.2,0,0.4,0,0.4,0s0.2,0,0.3,0H97l0,0c0,0,0,0-0.1,0s-0.1,0.1-0.1,0.2c0,0.1,0,0.2,0,0.7L96.6,196L96.6,196
	z M98.6,196c0,0.3,0,0.6,0,0.7c0,0.1,0,0.2,0.1,0.2c0,0,0.1,0,0.2,0l0,0c0,0,0,0-0.1,0c-0.2,0-0.4,0-0.4,0s-0.3,0-0.4,0h-0.1l0,0H98
	c0.1,0,0.1-0.1,0.1-0.2c0-0.1,0-0.4,0-0.7v-1.4h-0.5c-0.2,0-0.3,0-0.4,0.1c0,0.1,0,0.1-0.1,0.1l0,0l0,0c0,0,0.1-0.3,0.1-0.4v-0.1
	c0,0,0.1,0,0.2,0s0.2,0,0.3,0H99c0.1,0,0.2,0,0.3,0c0.1,0,0.1,0,0.1,0l0,0c0,0.1,0,0.3,0,0.4l0,0c0,0,0,0,0-0.1l0,0
	c0-0.1-0.1-0.2-0.4-0.2h-0.4L98.6,196L98.6,196z M99.9,197c0,0-0.1,0-0.1-0.1c0-0.2,0-0.3,0-0.4v-0.1l0,0v0.1
	c0.1,0.2,0.3,0.3,0.6,0.3c0.3,0,0.5-0.2,0.5-0.4c0-0.3-0.1-0.4-0.4-0.6l-0.2-0.1c-0.4-0.3-0.5-0.5-0.5-0.7c0-0.4,0.3-0.6,0.8-0.6
	c0.1,0,0.3,0,0.4,0s0.1,0,0.1,0l0,0c0,0,0,0.1,0,0.4c0,0.1,0,0.1,0,0.1l0,0c0,0,0-0.1-0.1-0.2c0,0-0.1-0.2-0.5-0.2
	c-0.3,0-0.5,0.1-0.5,0.4c0,0.2,0.1,0.3,0.5,0.6l0.1,0.1c0.4,0.3,0.6,0.5,0.6,0.8c0,0.2-0.1,0.4-0.3,0.6c-0.1,0.1-0.4,0.1-0.6,0.1
	C100.2,197.1,100,197,99.9,197L99.9,197z M104.1,194.5c0-0.1,0.1-0.1,0.1-0.1s0,0,0.1,0.1s0.6,1.5,0.8,2c0.1,0.3,0.2,0.3,0.3,0.4
	c0.1,0,0.1,0,0.1,0l0,0c0,0,0,0-0.1,0s-0.3,0-0.6,0c-0.1,0-0.1,0-0.1,0l0,0c0,0,0.1,0,0-0.1l-0.3-0.8l0,0h-0.8l0,0l-0.2,0.5
	c0,0.1-0.1,0.2-0.1,0.2c0,0.1,0.1,0.1,0.1,0.1l0,0l0,0c0,0,0,0-0.1,0s-0.3,0-0.3,0s-0.2,0-0.4,0h-0.1l0,0h0.1c0.2,0,0.2-0.1,0.3-0.3
	L104.1,194.5L104.1,194.5z M104.5,195.9L104.5,195.9l-0.3-0.9c0-0.1,0-0.1-0.1,0l-0.3,0.9l0,0H104.5z M106,195.4c0-0.5,0-0.6,0-0.7
	c0-0.1,0-0.2-0.1-0.2h-0.1l0,0c0,0,0,0,0.1,0c0.2,0,0.4,0,0.4,0s0.3,0,0.4,0c0.2,0,0.5,0,0.7,0.1c0.1,0.1,0.2,0.2,0.2,0.5
	s-0.1,0.5-0.4,0.8c0.3,0.4,0.5,0.7,0.7,0.9s0.3,0.2,0.4,0.2s0.1,0,0.1,0l0,0c0,0,0,0-0.1,0h-0.2c-0.2,0-0.3,0-0.4-0.1
	c-0.2-0.1-0.3-0.2-0.5-0.5c-0.1-0.2-0.3-0.4-0.4-0.5l0,0h-0.4l0,0v0.1c0,0.3,0,0.6,0,0.7c0,0.1,0,0.2,0.1,0.2c0,0,0.1,0,0.2,0l0,0
	c0,0,0,0-0.1,0c-0.2,0-0.4,0-0.4,0s-0.2,0-0.3,0h-0.1l0,0h0.1c0.1,0,0.1-0.1,0.1-0.2c0-0.1,0-0.4,0-0.7L106,195.4L106,195.4z
	 M106.3,195.7C106.3,195.8,106.3,195.8,106.3,195.7c0.1,0.1,0.3,0.1,0.4,0.1s0.2,0,0.3-0.1c0.1-0.1,0.2-0.3,0.2-0.5
	c0-0.4-0.2-0.7-0.6-0.7c-0.1,0-0.2,0-0.3,0l0,0V195.7L106.3,195.7z M108.7,195.4c0-0.5,0-0.6,0-0.7c0-0.1,0-0.2-0.1-0.2h-0.1l0,0
	c0,0,0,0,0.1,0c0.2,0,0.4,0,0.4,0h0.8c0.1,0,0.1,0,0.2,0l0,0l0,0c0,0,0,0.1,0,0.2v0.2l0,0l0,0v-0.1c0-0.1-0.1-0.1-0.3-0.1
	c-0.1,0-0.5,0-0.5,0l0,0v0.9l0,0c0,0,0.5,0,0.6,0s0.1,0,0.2,0c0,0,0,0,0.1,0s0,0,0,0s0,0.1,0,0.2c0,0.1,0,0.2,0,0.2v0.1l0,0V196
	c0,0,0-0.1-0.2-0.1c-0.1,0-0.5,0-0.5,0l0,0v0.3c0,0.1,0,0.5,0,0.6c0,0.2,0.1,0.3,0.4,0.3c0.1,0,0.3,0,0.3,0c0.1,0,0.1-0.1,0.2-0.2
	v-0.1c0,0,0,0,0,0.1s0,0.3,0,0.3c0,0.1-0.1,0.1-0.2,0.1c-0.3,0-0.5,0-0.6,0s-0.2,0-0.3,0c0,0-0.1,0-0.2,0s-0.1,0-0.2,0h-0.1l0,0h0.1
	c0.1,0,0.1-0.1,0.1-0.2c0-0.1,0-0.4,0-0.7L108.7,195.4L108.7,195.4z M112.9,196c0,0.3,0,0.6,0,0.7c0,0.1,0,0.2,0.1,0.2
	c0,0,0.1,0,0.2,0l0,0c0,0,0,0-0.1,0c-0.2,0-0.4,0-0.4,0s-0.3,0-0.4,0h-0.1l0,0h0.1c0.1,0,0.1-0.1,0.1-0.2c0-0.1,0-0.4,0-0.7v-1.4
	h-0.5c-0.2,0-0.3,0-0.4,0.1c0,0.1,0,0.1-0.1,0.1l0,0l0,0c0,0,0.1-0.3,0.1-0.4v-0.1c0,0,0.1,0,0.2,0s0.2,0,0.3,0h1.3
	c0.1,0,0.2,0,0.3,0c0.1,0,0.1,0,0.1,0l0,0c0,0.1,0,0.3,0,0.4l0,0c0,0,0,0,0-0.1l0,0c0-0.1-0.1-0.2-0.4-0.2h-0.4L112.9,196L112.9,196
	z M116.7,196c0,0.3,0,0.6,0,0.7c0,0.1,0,0.2,0.1,0.2c0,0,0.1,0,0.2,0l0,0c0,0,0,0-0.1,0c-0.2,0-0.4,0-0.4,0s-0.2,0-0.3,0h-0.1l0,0
	h0.1c0.1,0,0.1-0.1,0.1-0.2c0-0.1,0-0.4,0-0.7v-0.3l0,0h-1.5l0,0v0.3c0,0.3,0,0.6,0,0.7c0,0.1,0,0.2,0.1,0.2s0.1,0,0.2,0l0,0
	c0,0,0,0-0.1,0c-0.2,0-0.4,0-0.4,0s-0.2,0-0.3,0h-0.1l0,0h0.1c0.1,0,0.1-0.1,0.1-0.2c0-0.1,0-0.4,0-0.7v-0.6c0-0.5,0-0.6,0-0.7
	c0-0.1,0-0.2-0.1-0.2h-0.1l0,0c0,0,0,0,0.1,0c0.2,0,0.4,0,0.4,0s0.2,0,0.3,0h0.1l0,0c0,0,0,0-0.1,0s-0.1,0.1-0.1,0.2
	c0,0.1,0,0.2,0,0.7v0.1l0,0h1.5l0,0v-0.1c0-0.5,0-0.6,0-0.7c0-0.1,0-0.2-0.1-0.2h-0.1l0,0c0,0,0,0,0.1,0c0.2,0,0.4,0,0.4,0
	s0.2,0,0.3,0h0.1l0,0c0,0,0,0-0.1,0s-0.1,0.1-0.1,0.2c0,0.1,0,0.2,0,0.7L116.7,196L116.7,196z M117.9,195.4c0-0.5,0-0.6,0-0.7
	c0-0.1,0-0.2-0.1-0.2h-0.1l0,0c0,0,0,0,0.1,0c0.2,0,0.4,0,0.4,0h0.8c0.1,0,0.1,0,0.2,0l0,0l0,0c0,0,0,0.1,0,0.2v0.2l0,0l0,0v-0.1
	c0-0.1-0.1-0.1-0.3-0.1c-0.1,0-0.5,0-0.5,0l0,0v0.9l0,0c0,0,0.5,0,0.6,0s0.1,0,0.2,0c0,0,0,0,0.1,0s0,0,0,0s0,0.1,0,0.2
	c0,0.1,0,0.2,0,0.2v0.1l0,0V196c0,0,0-0.1-0.2-0.1c-0.1,0-0.5,0-0.5,0l0,0v0.3c0,0.1,0,0.5,0,0.6c0,0.2,0.1,0.3,0.4,0.3
	c0.1,0,0.3,0,0.3,0c0.1,0,0.1-0.1,0.2-0.2v-0.1c0,0,0,0,0,0.1s0,0.3,0,0.3c0,0.1-0.1,0.1-0.2,0.1c-0.3,0-0.5,0-0.6,0s-0.2,0-0.3,0
	c0,0-0.1,0-0.2,0s-0.1,0-0.2,0h-0.1l0,0h0.1c0.1,0,0.1-0.1,0.1-0.2c0-0.1,0-0.4,0-0.7v-1H117.9z M121.4,195.4c0-0.5,0-0.6,0-0.7
	c0-0.1,0-0.2-0.1-0.2h-0.1l0,0c0,0,0,0,0.1,0c0.2,0,0.4,0,0.4,0s0.3,0,0.4,0c0.2,0,0.5,0,0.7,0.1c0.1,0.1,0.2,0.2,0.2,0.5
	s-0.1,0.5-0.4,0.8c0.3,0.4,0.5,0.7,0.7,0.9s0.3,0.2,0.4,0.2s0.1,0,0.1,0l0,0c0,0,0,0-0.1,0h-0.2c-0.2,0-0.3,0-0.4-0.1
	c-0.2-0.1-0.3-0.2-0.5-0.5c-0.1-0.2-0.3-0.4-0.4-0.5l0,0h-0.4l0,0v0.1c0,0.3,0,0.6,0,0.7c0,0.1,0,0.2,0.1,0.2c0,0,0.1,0,0.2,0l0,0
	c0,0,0,0-0.1,0c-0.2,0-0.4,0-0.4,0s-0.2,0-0.3,0h-0.1l0,0h0.1c0.1,0,0.1-0.1,0.1-0.2c0-0.1,0-0.4,0-0.7L121.4,195.4L121.4,195.4z
	 M121.7,195.7C121.7,195.8,121.7,195.8,121.7,195.7c0.1,0.1,0.3,0.1,0.4,0.1s0.2,0,0.3-0.1c0.1-0.1,0.2-0.3,0.2-0.5
	c0-0.4-0.2-0.7-0.6-0.7c-0.1,0-0.2,0-0.3,0l0,0V195.7L121.7,195.7z M123.9,195.4c0-0.5,0-0.6,0-0.7c0-0.1,0-0.2-0.1-0.2h-0.1l0,0
	c0,0,0,0,0.1,0c0.2,0,0.4,0,0.4,0s0.3,0,0.4,0h0.1l0,0c0,0,0,0-0.1,0s-0.1,0.1-0.1,0.2c0,0.1,0,0.2,0,0.7v0.5c0,0.5,0.1,0.7,0.3,0.8
	c0.2,0.2,0.3,0.2,0.5,0.2s0.4-0.1,0.5-0.2c0.2-0.2,0.2-0.5,0.2-0.8v-0.4c0-0.5,0-0.6,0-0.7c0-0.1,0-0.2-0.1-0.2h-0.1l0,0
	c0,0,0,0,0.1,0c0.2,0,0.4,0,0.4,0s0.2,0,0.3,0h0.1l0,0c0,0,0,0-0.1,0s-0.1,0.1-0.1,0.2c0,0.1,0,0.2,0,0.7v0.4c0,0.4,0,0.8-0.3,1
	s-0.5,0.2-0.7,0.2c-0.1,0-0.5,0-0.7-0.2s-0.3-0.4-0.3-0.9L123.9,195.4L123.9,195.4z M126.7,197c0,0-0.1,0-0.1-0.1c0-0.2,0-0.3,0-0.4
	v-0.1l0,0v0.1c0.1,0.2,0.3,0.3,0.6,0.3c0.3,0,0.5-0.2,0.5-0.4c0-0.3-0.1-0.4-0.4-0.6l-0.2-0.1c-0.4-0.3-0.5-0.5-0.5-0.7
	c0-0.4,0.3-0.6,0.8-0.6c0.1,0,0.3,0,0.4,0s0.1,0,0.1,0l0,0c0,0,0,0.1,0,0.4c0,0.1,0,0.1,0,0.1l0,0c0,0,0-0.1-0.1-0.2
	c0,0-0.1-0.2-0.5-0.2c-0.3,0-0.5,0.1-0.5,0.4c0,0.2,0.1,0.3,0.5,0.6l0.1,0.1c0.4,0.3,0.6,0.5,0.6,0.8c0,0.2-0.1,0.4-0.3,0.6
	c-0.1,0.1-0.4,0.1-0.6,0.1C127,197.1,126.8,197,126.7,197L126.7,197z M129.8,196c0,0.3,0,0.6,0,0.7c0,0.1,0,0.2,0.1,0.2
	c0,0,0.1,0,0.2,0l0,0c0,0,0,0-0.1,0c-0.2,0-0.4,0-0.4,0s-0.3,0-0.4,0h-0.1l0,0h0.1c0.1,0,0.1-0.1,0.1-0.2c0-0.1,0-0.4,0-0.7v-1.4
	h-0.5c-0.2,0-0.3,0-0.4,0.1c0,0.1,0,0.1-0.1,0.1l0,0l0,0c0,0,0.1-0.3,0.1-0.4v-0.1c0,0,0.1,0,0.2,0c0.1,0,0.2,0,0.3,0h1.3
	c0.1,0,0.2,0,0.3,0s0.1,0,0.1,0l0,0c0,0.1,0,0.3,0,0.4l0,0c0,0,0,0,0-0.1l0,0c0-0.1-0.1-0.2-0.4-0.2h-0.4L129.8,196L129.8,196z
	 M131.8,196.1c0,0.5,0,0.7,0.1,0.8s0.2,0.1,0.5,0.1c0.2,0,0.3,0,0.4-0.1c0-0.1,0.1-0.1,0.1-0.2l0,0c0,0,0,0,0,0.1c0,0,0,0.2-0.1,0.3
	c0,0.1,0,0.1-0.2,0.1c-0.3,0-0.4,0-0.6,0c-0.2,0-0.3,0-0.4,0h-0.1c-0.1,0-0.1,0-0.2,0h-0.1l0,0h0.1c0.1,0,0.1-0.1,0.1-0.2
	c0-0.1,0-0.4,0-0.7v-0.6c0-0.5,0-0.6,0-0.7c0-0.1,0-0.2-0.1-0.2h-0.1l0,0c0,0,0,0,0.1,0c0.2,0,0.4,0,0.4,0s0.3,0,0.4,0h0.1l0,0h-0.1
	c-0.1,0-0.1,0.1-0.1,0.2c0,0.1,0,0.2,0,0.7v0.4H131.8z M133.6,195.4c0-0.5,0-0.6,0-0.7c0-0.1,0-0.2-0.1-0.2h-0.1l0,0c0,0,0,0,0.1,0
	c0.2,0,0.4,0,0.4,0h0.8c0.1,0,0.1,0,0.2,0l0,0l0,0c0,0,0,0.1,0,0.2v0.2l0,0l0,0v-0.1c0-0.1-0.1-0.1-0.3-0.1c-0.1,0-0.5,0-0.5,0l0,0
	v0.9l0,0c0,0,0.5,0,0.6,0s0.1,0,0.2,0c0,0,0,0,0.1,0l0,0c0,0,0,0.1,0,0.2c0,0.1,0,0.2,0,0.2v0.1l0,0V196c0,0,0-0.1-0.2-0.1
	c-0.1,0-0.5,0-0.5,0l0,0v0.3c0,0.1,0,0.5,0,0.6c0,0.2,0.1,0.3,0.4,0.3c0.1,0,0.3,0,0.3,0c0.1,0,0.1-0.1,0.2-0.2v-0.1c0,0,0,0,0,0.1
	s0,0.3,0,0.3c0,0.1-0.1,0.1-0.2,0.1c-0.3,0-0.5,0-0.6,0s-0.2,0-0.3,0H134c-0.1,0-0.1,0-0.2,0h-0.1l0,0h0.1c0.1,0,0.1-0.1,0.1-0.2
	c0-0.1,0-0.4,0-0.7L133.6,195.4L133.6,195.4z M138,194.4c0.8,0,1.4,0.5,1.4,1.3s-0.6,1.4-1.4,1.4c-1,0-1.4-0.7-1.4-1.3
	C136.6,195.2,137.1,194.4,138,194.4L138,194.4z M138.1,196.9c0.3,0,0.9-0.2,0.9-1.1c0-0.8-0.5-1.2-1-1.2c-0.6,0-1,0.4-1,1.1
	C137,196.4,137.5,196.9,138.1,196.9z M140.2,195.4c0-0.5,0-0.6,0-0.7c0-0.1,0-0.2-0.1-0.2H140l0,0c0,0,0,0,0.1,0c0.2,0,0.4,0,0.4,0
	c0.1,0,0.8,0,0.9,0c0.1,0,0.1,0,0.2,0l0,0l0,0c0,0,0,0.1,0,0.2v0.2l0,0l0,0v-0.1c0,0-0.1-0.1-0.2-0.1h-0.6l0,0v0.9l0,0h0.5
	c0.1,0,0.1,0,0.2,0c0.1,0,0.1,0,0.2-0.1l0,0l0,0c0,0,0,0.1,0,0.2c0,0.1,0,0.2,0,0.2v0.1l0,0v-0.1c0,0-0.1-0.1-0.2-0.1
	c-0.1,0-0.5,0-0.6,0l0,0v0.3c0,0.3,0,0.6,0,0.7c0,0.1,0,0.2,0.1,0.2s0.1,0,0.2,0l0,0c0,0,0,0-0.1,0c-0.2,0-0.4,0-0.4,0s-0.2,0-0.3,0
	h-0.1l0,0h0.1c0.1,0,0.1-0.1,0.1-0.2c0-0.1,0-0.4,0-0.7L140.2,195.4L140.2,195.4z M143.9,196.1c0,0.5,0,0.7,0.1,0.8s0.2,0.1,0.5,0.1
	c0.2,0,0.3,0,0.4-0.1c0-0.1,0.1-0.1,0.1-0.2l0,0c0,0,0,0,0,0.1c0,0,0,0.2-0.1,0.3c0,0.1,0,0.1-0.2,0.1c-0.3,0-0.4,0-0.6,0
	c-0.2,0-0.3,0-0.4,0h-0.1c-0.1,0-0.1,0-0.2,0h-0.1l0,0h0.1c0.1,0,0.1-0.1,0.1-0.2c0-0.1,0-0.4,0-0.7v-0.6c0-0.5,0-0.6,0-0.7
	c0-0.1,0-0.2-0.1-0.2h-0.1l0,0c0,0,0,0,0.1,0c0.2,0,0.4,0,0.4,0s0.3,0,0.4,0h0.1l0,0h-0.1c-0.1,0-0.1,0.1-0.1,0.2c0,0.1,0,0.2,0,0.7
	v0.4H143.9z M145.7,195.4c0-0.5,0-0.6,0-0.7c0-0.1,0-0.2-0.1-0.2h-0.1l0,0c0,0,0,0,0.1,0c0.2,0,0.4,0,0.4,0h0.8c0.1,0,0.1,0,0.2,0
	l0,0l0,0c0,0,0,0.1,0,0.2v0.2l0,0l0,0v-0.1c0-0.1-0.1-0.1-0.3-0.1c-0.1,0-0.5,0-0.5,0l0,0v0.9l0,0c0,0,0.5,0,0.6,0s0.1,0,0.2,0
	c0,0,0,0,0.1,0l0,0c0,0,0,0.1,0,0.2c0,0.1,0,0.2,0,0.2v0.1l0,0V196c0,0,0-0.1-0.2-0.1c-0.1,0-0.5,0-0.5,0l0,0v0.3c0,0.1,0,0.5,0,0.6
	c0,0.2,0.1,0.3,0.4,0.3c0.1,0,0.3,0,0.3,0c0.1,0,0.1-0.1,0.2-0.2v-0.1c0,0,0,0,0,0.1s0,0.3,0,0.3c0,0.1-0.1,0.1-0.2,0.1
	c-0.3,0-0.5,0-0.6,0s-0.2,0-0.3,0c0,0-0.1,0-0.2,0c-0.1,0-0.1,0-0.2,0h-0.1l0,0h0.1c0.1,0,0.1-0.1,0.1-0.2c0-0.1,0-0.4,0-0.7
	L145.7,195.4L145.7,195.4z M148.4,194.5c0-0.1,0.1-0.1,0.1-0.1s0,0,0.1,0.1s0.6,1.5,0.8,2c0.1,0.3,0.2,0.3,0.3,0.4
	c0.1,0,0.1,0,0.1,0l0,0c0,0,0,0-0.1,0s-0.3,0-0.6,0c-0.1,0-0.1,0-0.1,0l0,0c0,0,0.1,0,0-0.1l-0.3-0.8l0,0H148l0,0l-0.2,0.5
	c0,0.1-0.1,0.2-0.1,0.2c0,0.1,0.1,0.1,0.1,0.1l0,0l0,0c0,0,0,0-0.1,0s-0.3,0-0.3,0s-0.2,0-0.4,0h-0.1l0,0h0.1c0.2,0,0.2-0.1,0.3-0.3
	L148.4,194.5L148.4,194.5z M148.8,195.9L148.8,195.9l-0.3-0.9c0-0.1,0-0.1-0.1,0l-0.3,0.9l0,0H148.8z M150.8,196.6
	c0.2-0.5,0.7-1.6,0.7-1.8c0-0.1,0-0.1,0-0.1v-0.1h-0.1l0,0c0,0,0,0,0.1,0s0.3,0,0.3,0s0.2,0,0.3,0h0.1l0,0c0,0-0.1,0-0.2,0
	c0,0-0.1,0.1-0.2,0.3c0,0.1-0.2,0.5-0.4,0.9c-0.2,0.5-0.4,0.9-0.4,1c-0.1,0.2-0.1,0.3-0.2,0.3c0,0-0.1,0-0.1-0.2l-0.9-2.1
	c-0.1-0.2-0.1-0.2-0.2-0.3c-0.1,0-0.1,0-0.1,0l0,0c0,0,0,0,0.1,0c0.2,0,0.4,0,0.4,0s0.2,0,0.3,0s0.1,0,0.1,0l0,0h-0.1c0,0,0,0,0,0.1
	c0,0,0,0.1,0.1,0.3L150.8,196.6L150.8,196.6z M152.7,195.4c0-0.5,0-0.6,0-0.7c0-0.1,0-0.2-0.1-0.2h-0.1l0,0c0,0,0,0,0.1,0
	c0.2,0,0.4,0,0.4,0h0.8c0.1,0,0.1,0,0.2,0l0,0l0,0c0,0,0,0.1,0,0.2v0.2l0,0l0,0v-0.1c0-0.1-0.1-0.1-0.3-0.1c-0.1,0-0.5,0-0.5,0l0,0
	v0.9l0,0c0,0,0.5,0,0.6,0s0.1,0,0.2,0c0,0,0,0,0.1,0l0,0c0,0,0,0.1,0,0.2c0,0.1,0,0.2,0,0.2v0.1l0,0V196c0,0,0-0.1-0.2-0.1
	c-0.1,0-0.5,0-0.5,0l0,0v0.3c0,0.1,0,0.5,0,0.6c0,0.2,0.1,0.3,0.4,0.3c0.1,0,0.3,0,0.3,0c0.1,0,0.1-0.1,0.2-0.2v-0.1c0,0,0,0,0,0.1
	s0,0.3,0,0.3c0,0.1-0.1,0.1-0.2,0.1c-0.3,0-0.5,0-0.6,0s-0.2,0-0.3,0c0,0-0.1,0-0.2,0c-0.1,0-0.1,0-0.2,0h-0.1l0,0h0.1
	c0.1,0,0.1-0.1,0.1-0.2c0-0.1,0-0.4,0-0.7v-1H152.7z M154.6,197c0,0-0.1,0-0.1-0.1c0-0.2,0-0.3,0-0.4v-0.1l0,0v0.1
	c0.1,0.2,0.3,0.3,0.6,0.3s0.5-0.2,0.5-0.4c0-0.3-0.1-0.4-0.4-0.6l-0.2-0.1c-0.4-0.3-0.5-0.5-0.5-0.7c0-0.4,0.3-0.6,0.8-0.6
	c0.1,0,0.3,0,0.4,0c0.1,0,0.1,0,0.1,0l0,0c0,0,0,0.1,0,0.4c0,0.1,0,0.1,0,0.1l0,0c0,0,0-0.1-0.1-0.2c0,0-0.1-0.2-0.5-0.2
	c-0.3,0-0.5,0.1-0.5,0.4c0,0.2,0.1,0.3,0.5,0.6l0.1,0.1c0.4,0.3,0.6,0.5,0.6,0.8c0,0.2-0.1,0.4-0.3,0.6c-0.1,0.1-0.4,0.1-0.6,0.1
	C154.9,197.1,154.7,197,154.6,197L154.6,197z M159,196c0,0.3,0,0.6,0,0.7c0,0.1,0,0.2,0.1,0.2c0,0,0.1,0,0.2,0l0,0c0,0,0,0-0.1,0
	c-0.2,0-0.4,0-0.4,0s-0.3,0-0.4,0h-0.1l0,0h0.1c0.1,0,0.1-0.1,0.1-0.2c0-0.1,0-0.4,0-0.7v-1.4H158c-0.2,0-0.3,0-0.4,0.1
	c0,0.1,0,0.1-0.1,0.1l0,0l0,0c0,0,0.1-0.3,0.1-0.4v-0.1c0,0,0.1,0,0.2,0c0.1,0,0.2,0,0.3,0h1.3c0.1,0,0.2,0,0.3,0s0.1,0,0.1,0l0,0
	c0,0.1,0,0.3,0,0.4l0,0c0,0,0,0,0-0.1l0,0c0-0.1-0.1-0.2-0.4-0.2H159L159,196L159,196z M162.8,196c0,0.3,0,0.6,0,0.7
	c0,0.1,0,0.2,0.1,0.2c0,0,0.1,0,0.2,0l0,0c0,0,0,0-0.1,0c-0.2,0-0.4,0-0.4,0s-0.2,0-0.3,0h-0.1l0,0h0.1c0.1,0,0.1-0.1,0.1-0.2
	c0-0.1,0-0.4,0-0.7v-0.3l0,0H161l0,0v0.3c0,0.3,0,0.6,0,0.7c0,0.1,0,0.2,0.1,0.2s0.1,0,0.2,0l0,0c0,0,0,0-0.1,0c-0.2,0-0.4,0-0.4,0
	s-0.2,0-0.3,0h-0.1l0,0h0.1c0.1,0,0.1-0.1,0.1-0.2c0-0.1,0-0.4,0-0.7v-0.6c0-0.5,0-0.6,0-0.7c0-0.1,0-0.2-0.1-0.2h-0.1l0,0
	c0,0,0,0,0.1,0c0.2,0,0.4,0,0.4,0s0.2,0,0.3,0h0.1l0,0c0,0,0,0-0.1,0s-0.1,0.1-0.1,0.2c0,0.1,0,0.2,0,0.7v0.1l0,0h1.5l0,0v-0.1
	c0-0.5,0-0.6,0-0.7c0-0.1,0-0.2-0.1-0.2h-0.1l0,0c0,0,0,0,0.1,0c0.2,0,0.4,0,0.4,0s0.2,0,0.3,0h0.1l0,0c0,0,0,0-0.1,0
	s-0.1,0.1-0.1,0.2c0,0.1,0,0.2,0,0.7L162.8,196L162.8,196z M163.9,195.4c0-0.5,0-0.6,0-0.7c0-0.1,0-0.2-0.1-0.2h-0.1l0,0
	c0,0,0,0,0.1,0c0.2,0,0.4,0,0.4,0h0.8c0.1,0,0.1,0,0.2,0l0,0l0,0c0,0,0,0.1,0,0.2v0.2l0,0l0,0v-0.1c0-0.1-0.1-0.1-0.3-0.1
	c-0.1,0-0.5,0-0.5,0l0,0v0.9l0,0c0,0,0.5,0,0.6,0s0.1,0,0.2,0c0,0,0,0,0.1,0l0,0c0,0,0,0.1,0,0.2c0,0.1,0,0.2,0,0.2v0.1l0,0V196
	c0,0,0-0.1-0.2-0.1c-0.1,0-0.5,0-0.5,0l0,0v0.3c0,0.1,0,0.5,0,0.6c0,0.2,0.1,0.3,0.4,0.3c0.1,0,0.3,0,0.3,0c0.1,0,0.1-0.1,0.2-0.2
	v-0.1c0,0,0,0,0,0.1s0,0.3,0,0.3c0,0.1-0.1,0.1-0.2,0.1c-0.3,0-0.5,0-0.6,0s-0.2,0-0.3,0h-0.1c-0.1,0-0.1,0-0.2,0H164l0,0h0.1
	c0.1,0,0.1-0.1,0.1-0.2c0-0.1,0-0.4,0-0.7v-1H163.9z M166.6,196.1c0-0.2,0-0.3-0.1-0.3c0-0.1-0.5-0.8-0.6-1
	c-0.1-0.1-0.2-0.2-0.2-0.2c-0.1,0-0.1,0-0.1,0l0,0l0,0c0.1,0,0.3,0,0.3,0s0.2,0,0.3,0l0,0c0,0,0,0-0.1,0c0,0,0,0,0,0.1v0.1l0.6,1.1
	c0.1-0.1,0.5-0.9,0.6-1c0-0.1,0.1-0.1,0.1-0.2c0,0,0-0.1-0.1-0.1h-0.1c0,0,0,0,0.1,0s0.2,0,0.2,0h0.3l0,0l0,0c0,0-0.1,0-0.2,0
	c-0.1,0-0.1,0.1-0.2,0.2c-0.1,0.1-0.6,0.9-0.7,1.1c-0.1,0.1,0,0.2,0,0.3v0.3c0,0.1,0,0.2,0,0.3s0,0.2,0.1,0.2c0,0,0.1,0,0.2,0l0,0
	c0,0,0,0-0.1,0c-0.2,0-0.4,0-0.4,0s-0.2,0-0.3,0h-0.1l0,0h0.1c0.1,0,0.1-0.1,0.1-0.2c0-0.1,0-0.3,0-0.3L166.6,196.1L166.6,196.1z
	 M70.2,202.4c0,0.3,0,0.6,0,0.7c0,0.1,0,0.2,0.1,0.2c0,0,0.1,0,0.2,0l0,0c0,0,0,0-0.1,0c-0.2,0-0.4,0-0.4,0s-0.2,0-0.3,0h-0.1l0,0
	h0.1c0.1,0,0.1-0.1,0.1-0.2c0-0.1,0-0.4,0-0.7v-0.3l0,0h-1.5l0,0v0.3c0,0.3,0,0.6,0,0.7c0,0.1,0,0.2,0.1,0.2s0.1,0,0.2,0l0,0
	c0,0,0,0-0.1,0c-0.2,0-0.4,0-0.4,0s-0.2,0-0.3,0h-0.1l0,0h0.1c0.1,0,0.1-0.1,0.1-0.2c0-0.1,0-0.4,0-0.7v-0.6c0-0.5,0-0.6,0-0.7
	c0-0.1,0-0.2-0.1-0.2h-0.1l0,0c0,0,0,0,0.1,0c0.2,0,0.4,0,0.4,0s0.2,0,0.3,0h0.1l0,0c0,0,0,0-0.1,0s-0.1,0.1-0.1,0.2
	c0,0.1,0,0.2,0,0.7v0.1l0,0h1.5l0,0v-0.1c0-0.5,0-0.6,0-0.7c0-0.1,0-0.2-0.1-0.2h-0.1l0,0c0,0,0,0,0.1,0c0.2,0,0.4,0,0.4,0
	s0.2,0,0.3,0h0.1l0,0c0,0,0,0-0.1,0s-0.1,0.1-0.1,0.2c0,0.1,0,0.2,0,0.7L70.2,202.4L70.2,202.4z M71.9,200.9c0-0.1,0.1-0.1,0.1-0.1
	s0,0,0.1,0.1s0.6,1.5,0.8,2c0.1,0.3,0.2,0.3,0.3,0.4c0.1,0,0.1,0,0.1,0l0,0c0,0,0,0-0.1,0s-0.3,0-0.6,0c-0.1,0-0.1,0-0.1,0l0,0
	c0,0,0.1,0,0-0.1l-0.3-0.8l0,0h-0.8l0,0l-0.2,0.5c0,0.1-0.1,0.2-0.1,0.2c0,0.1,0.1,0.1,0.1,0.1l0,0l0,0c0,0,0,0-0.1,0s-0.3,0-0.3,0
	s-0.2,0-0.4,0h-0.1l0,0h0.1c0.2,0,0.2-0.1,0.3-0.3L71.9,200.9L71.9,200.9z M72.3,202.3L72.3,202.3l-0.3-0.9c0-0.1,0-0.1-0.1,0
	l-0.3,0.9l0,0H72.3z M74.3,202.9c0.2-0.5,0.7-1.6,0.7-1.8c0-0.1,0-0.1,0-0.1v-0.1h-0.1l0,0c0,0,0,0,0.1,0s0.3,0,0.3,0s0.2,0,0.3,0
	h0.1l0,0c0,0-0.1,0-0.2,0c0,0-0.1,0.1-0.2,0.3c0,0.1-0.2,0.5-0.4,0.9c-0.2,0.5-0.4,0.9-0.4,1c-0.1,0.2-0.1,0.3-0.1,0.3
	s-0.1,0-0.1-0.2l-0.9-2.1c-0.1-0.2-0.1-0.2-0.2-0.3c-0.1,0-0.1,0-0.1,0l0,0c0,0,0,0,0.1,0c0.2,0,0.4,0,0.4,0s0.2,0,0.3,0
	c0.1,0,0.1,0,0.1,0l0,0h-0.1c0,0,0,0,0,0.1c0,0,0,0.1,0.1,0.3L74.3,202.9L74.3,202.9z M76.2,201.8c0-0.5,0-0.6,0-0.7
	c0-0.1,0-0.2-0.1-0.2H76l0,0c0,0,0,0,0.1,0c0.2,0,0.4,0,0.4,0h0.8c0.1,0,0.1,0,0.2,0l0,0l0,0c0,0,0,0.1,0,0.2v0.2l0,0l0,0v-0.1
	c0-0.1-0.1-0.1-0.3-0.1c-0.1,0-0.5,0-0.5,0l0,0v0.9l0,0c0,0,0.5,0,0.6,0s0.1,0,0.2,0c0,0,0,0,0.1,0l0,0c0,0,0,0.1,0,0.2
	c0,0.1,0,0.2,0,0.2v0.1l0,0v-0.1c0,0,0-0.1-0.2-0.1c-0.1,0-0.5,0-0.5,0l0,0v0.3c0,0.1,0,0.5,0,0.6c0,0.2,0.1,0.3,0.4,0.3
	c0.1,0,0.3,0,0.3,0c0.1,0,0.1-0.1,0.2-0.2v-0.1c0,0,0,0,0,0.1v0.3c0,0.1-0.1,0.1-0.2,0.1c-0.3,0-0.5,0-0.6,0s-0.2,0-0.3,0h-0.1
	c-0.1,0-0.1,0-0.2,0h-0.1l0,0h0.1c0.1,0,0.1-0.1,0.1-0.2c0-0.1,0-0.4,0-0.7L76.2,201.8L76.2,201.8z M80.4,202.4c0,0.3,0,0.6,0,0.7
	c0,0.1,0,0.2,0.1,0.2c0,0,0.1,0,0.2,0l0,0c0,0,0,0-0.1,0c-0.2,0-0.4,0-0.4,0s-0.3,0-0.4,0h-0.1l0,0h0.1c0.1,0,0.1-0.1,0.1-0.2
	c0-0.1,0-0.4,0-0.7V201h-0.5c-0.2,0-0.3,0-0.4,0.1c0,0.1,0,0.1-0.1,0.1l0,0l0,0c0,0,0.1-0.3,0.1-0.4v-0.1c0,0,0.1,0,0.2,0
	s0.2,0,0.3,0H81c0.1,0,0.2,0,0.3,0c0.1,0,0.1,0,0.1,0l0,0c0,0.1,0,0.3,0,0.4l0,0c0,0,0,0,0-0.1l0,0c0-0.1-0.1-0.2-0.4-0.2h-0.4
	L80.4,202.4L80.4,202.4z M84.2,202.4c0,0.3,0,0.6,0,0.7c0,0.1,0,0.2,0.1,0.2c0,0,0.1,0,0.2,0l0,0c0,0,0,0-0.1,0c-0.2,0-0.4,0-0.4,0
	s-0.2,0-0.3,0h-0.1l0,0h0.1c0.1,0,0.1-0.1,0.1-0.2c0-0.1,0-0.4,0-0.7v-0.3l0,0h-1.5l0,0v0.3c0,0.3,0,0.6,0,0.7c0,0.1,0,0.2,0.1,0.2
	s0.1,0,0.2,0l0,0c0,0,0,0-0.1,0c-0.2,0-0.4,0-0.4,0s-0.2,0-0.3,0h-0.1l0,0h0.1c0.1,0,0.1-0.1,0.1-0.2c0-0.1,0-0.4,0-0.7v-0.6
	c0-0.5,0-0.6,0-0.7c0-0.1,0-0.2-0.1-0.2h-0.1l0,0c0,0,0,0,0.1,0c0.2,0,0.4,0,0.4,0s0.2,0,0.3,0h0.1l0,0c0,0,0,0-0.1,0
	s-0.1,0.1-0.1,0.2c0,0.1,0,0.2,0,0.7v0.1l0,0h1.5l0,0v-0.1c0-0.5,0-0.6,0-0.7c0-0.1,0-0.2-0.1-0.2h-0.1l0,0c0,0,0,0,0.1,0
	c0.2,0,0.4,0,0.4,0s0.2,0,0.3,0h0.1l0,0c0,0,0,0-0.1,0s-0.1,0.1-0.1,0.2c0,0.1,0,0.2,0,0.7L84.2,202.4L84.2,202.4z M85.4,201.8
	c0-0.5,0-0.6,0-0.7c0-0.1,0-0.2-0.1-0.2h-0.1l0,0c0,0,0,0,0.1,0c0.2,0,0.4,0,0.4,0h0.8c0.1,0,0.1,0,0.2,0l0,0l0,0c0,0,0,0.1,0,0.2
	v0.2l0,0l0,0v-0.1c0-0.1-0.1-0.1-0.3-0.1c-0.1,0-0.5,0-0.5,0l0,0v0.9l0,0c0,0,0.5,0,0.6,0s0.1,0,0.2,0c0,0,0,0,0.1,0l0,0
	c0,0,0,0.1,0,0.2c0,0.1,0,0.2,0,0.2v0.1l0,0v-0.1c0,0,0-0.1-0.2-0.1c-0.1,0-0.5,0-0.5,0l0,0v0.3c0,0.1,0,0.5,0,0.6
	c0,0.2,0.1,0.3,0.4,0.3c0.1,0,0.3,0,0.3,0c0.1,0,0.1-0.1,0.2-0.2v-0.1c0,0,0,0,0,0.1v0.3c0,0.1-0.1,0.1-0.2,0.1c-0.3,0-0.5,0-0.6,0
	s-0.2,0-0.3,0h-0.1c-0.1,0-0.1,0-0.2,0h-0.1l0,0h0.1c0.1,0,0.1-0.1,0.1-0.2c0-0.1,0-0.4,0-0.7L85.4,201.8L85.4,201.8z M87.9,202.4
	c0,0.3,0,0.6,0,0.7c0,0.1,0,0.2,0.1,0.2s0.1,0,0.2,0l0,0c0,0,0,0-0.1,0c-0.2,0-0.4,0-0.4,0s-0.2,0-0.3,0h-0.1l0,0h0.1
	c0.1,0,0.1-0.1,0.1-0.2c0-0.1,0-0.4,0-0.7v-0.6c0-0.5,0-0.6,0-0.7c0-0.1,0-0.2-0.1-0.2h-0.1l0,0c0,0,0,0,0.1,0s0.3,0,0.4,0
	c0,0,0.2,0,0.3,0h0.1l0,0c0,0,0,0-0.1,0S88,201,88,201.1c0,0.1,0,0.2,0,0.7L87.9,202.4L87.9,202.4z M89,201.8c0-0.5,0-0.6,0-0.7
	c0-0.1,0-0.2-0.1-0.2h-0.1l0,0c0,0,0,0,0.1,0c0.2,0,0.4,0,0.4,0s0.3,0,0.4,0c0.2,0,0.5,0,0.7,0.1c0.1,0.1,0.2,0.2,0.2,0.5
	s-0.1,0.5-0.4,0.8c0.3,0.4,0.5,0.7,0.7,0.9s0.3,0.2,0.4,0.2s0.1,0,0.1,0l0,0c0,0,0,0-0.1,0h-0.2c-0.2,0-0.3,0-0.4-0.1
	s-0.3-0.2-0.5-0.5c-0.1-0.2-0.3-0.4-0.4-0.5l0,0h-0.4l0,0v0.1c0,0.3,0,0.6,0,0.7c0,0.1,0,0.2,0.1,0.2c0,0,0.1,0,0.2,0l0,0
	c0,0,0,0-0.1,0c-0.2,0-0.4,0-0.4,0s-0.2,0-0.3,0h-0.1l0,0h0.1c0.1,0,0.1-0.1,0.1-0.2c0-0.1,0-0.4,0-0.7L89,201.8L89,201.8z
	 M89.3,202.1L89.3,202.1c0.1,0.1,0.3,0.1,0.4,0.1s0.2,0,0.3-0.1c0.1-0.1,0.2-0.3,0.2-0.5c0-0.4-0.2-0.7-0.6-0.7c-0.1,0-0.2,0-0.3,0
	l0,0V202.1L89.3,202.1z M95.1,202.9L95.1,202.9c0.1-0.3,0.4-1.3,0.5-1.7c0-0.1,0-0.2,0-0.2c0-0.1,0-0.1-0.2-0.1l0,0c0,0,0,0,0.1,0
	c0.2,0,0.3,0,0.4,0c0,0,0.2,0,0.3,0l0,0l0,0h-0.1c-0.1,0-0.2,0.2-0.2,0.4c-0.2,0.4-0.5,1.5-0.6,1.9c-0.1,0.3-0.1,0.3-0.1,0.3
	s-0.1,0-0.1-0.2l-0.7-1.8c-0.1,0.3-0.6,1.5-0.7,1.8c-0.1,0.1-0.1,0.2-0.1,0.2s-0.1,0-0.1-0.3l-0.6-2c-0.1-0.2-0.1-0.2-0.2-0.3
	c0,0-0.1,0-0.2,0l0,0c0,0,0,0,0.1,0c0.2,0,0.4,0,0.4,0s0.2,0,0.4,0h0.1l0,0h-0.1c0,0,0,0,0,0.1s0,0.2,0.1,0.3
	c0.1,0.2,0.4,1.5,0.5,1.6l0,0l0.7-1.9c0.1-0.1,0.1-0.2,0.1-0.2s0.1,0,0.1,0.2L95.1,202.9L95.1,202.9z M98.9,202.4c0,0.3,0,0.6,0,0.7
	c0,0.1,0,0.2,0.1,0.2c0,0,0.1,0,0.2,0l0,0c0,0,0,0-0.1,0c-0.2,0-0.4,0-0.4,0s-0.2,0-0.3,0h-0.1l0,0h0.1c0.1,0,0.1-0.1,0.1-0.2
	c0-0.1,0-0.4,0-0.7v-0.3l0,0H97l0,0v0.3c0,0.3,0,0.6,0,0.7c0,0.1,0,0.2,0.1,0.2s0.1,0,0.2,0l0,0c0,0,0,0-0.1,0c-0.2,0-0.4,0-0.4,0
	s-0.2,0-0.3,0h-0.1l0,0h0.1c0.1,0,0.1-0.1,0.1-0.2c0-0.1,0-0.4,0-0.7v-0.6c0-0.5,0-0.6,0-0.7c0-0.1,0-0.2-0.1-0.2h-0.1l0,0
	c0,0,0,0,0.1,0c0.2,0,0.4,0,0.4,0s0.2,0,0.3,0h0.1l0,0c0,0,0,0-0.1,0s-0.1,0.1-0.1,0.2c0,0.1,0,0.2,0,0.7v0.1l0,0h1.5l0,0v-0.1
	c0-0.5,0-0.6,0-0.7c0-0.1,0-0.2-0.1-0.2h-0.1l0,0c0,0,0,0,0.1,0c0.2,0,0.4,0,0.4,0s0.2,0,0.3,0h0.1l0,0c0,0,0,0-0.1,0
	s-0.1,0.1-0.1,0.2c0,0.1,0,0.2,0,0.7L98.9,202.4L98.9,202.4z M100.4,202.4c0,0.3,0,0.6,0,0.7c0,0.1,0,0.2,0.1,0.2s0.1,0,0.2,0l0,0
	c0,0,0,0-0.1,0c-0.2,0-0.4,0-0.4,0s-0.2,0-0.3,0h-0.1l0,0h0.1c0.1,0,0.1-0.1,0.1-0.2c0-0.1,0-0.4,0-0.7v-0.6c0-0.5,0-0.6,0-0.7
	c0-0.1,0-0.2-0.1-0.2h-0.1l0,0c0,0,0,0,0.1,0s0.3,0,0.4,0c0,0,0.2,0,0.3,0h0.1l0,0c0,0,0,0-0.1,0s-0.1,0.1-0.1,0.2
	c0,0.1,0,0.2,0,0.7L100.4,202.4L100.4,202.4z M101.4,203.3c0,0-0.1,0-0.1-0.1c0-0.2,0-0.3,0-0.4v-0.1l0,0v0.1
	c0.1,0.2,0.3,0.3,0.6,0.3c0.3,0,0.5-0.2,0.5-0.4c0-0.3-0.1-0.4-0.4-0.6l-0.2-0.1c-0.4-0.3-0.5-0.5-0.5-0.7c0-0.4,0.3-0.6,0.8-0.6
	c0.1,0,0.3,0,0.4,0s0.1,0,0.1,0l0,0c0,0,0,0.1,0,0.4c0,0.1,0,0.1,0,0.1l0,0c0,0,0-0.1-0.1-0.2c0,0-0.1-0.2-0.5-0.2
	c-0.3,0-0.5,0.1-0.5,0.4c0,0.2,0.1,0.3,0.5,0.6l0.1,0.1c0.4,0.3,0.6,0.5,0.6,0.8c0,0.2-0.1,0.4-0.3,0.6c-0.1,0.1-0.4,0.1-0.6,0.1
	C101.7,203.4,101.5,203.4,101.4,203.3L101.4,203.3z M103.6,201.8c0-0.5,0-0.6,0-0.7c0-0.1,0-0.2-0.1-0.2h-0.1l0,0c0,0,0,0,0.1,0
	c0.2,0,0.4,0,0.4,0c0.1,0,0.3,0,0.5,0c0.5,0,0.6,0.1,0.7,0.2c0.1,0.1,0.2,0.2,0.2,0.4c0,0.5-0.4,0.8-0.9,0.8h-0.1l0,0c0,0,0,0,0.1,0
	c0.4,0,0.6-0.2,0.6-0.5c0-0.1,0-0.3-0.2-0.5s-0.4-0.2-0.5-0.2s-0.2,0-0.2,0s0,0,0,0.1v1.4c0,0.3,0,0.6,0,0.7c0,0.1,0,0.2,0.1,0.2
	c0,0,0.1,0,0.2,0l0,0c0,0,0,0-0.1,0c-0.2,0-0.4,0-0.4,0s-0.2,0-0.3,0h-0.1l0,0h0.1c0.1,0,0.1-0.1,0.1-0.2c0-0.1,0-0.4,0-0.7
	L103.6,201.8L103.6,201.8z M105.9,201.8c0-0.5,0-0.6,0-0.7c0-0.1,0-0.2-0.1-0.2h-0.1l0,0c0,0,0,0,0.1,0c0.2,0,0.4,0,0.4,0h0.8
	c0.1,0,0.1,0,0.2,0l0,0l0,0c0,0,0,0.1,0,0.2v0.2l0,0l0,0v-0.1c0-0.1-0.1-0.1-0.3-0.1c-0.1,0-0.5,0-0.5,0l0,0v0.9l0,0
	c0,0,0.5,0,0.6,0s0.1,0,0.2,0c0,0,0,0,0.1,0s0,0,0,0s0,0.1,0,0.2c0,0.1,0,0.2,0,0.2v0.1l0,0v-0.1c0,0,0-0.1-0.2-0.1
	c-0.1,0-0.5,0-0.5,0l0,0v0.3c0,0.1,0,0.5,0,0.6c0,0.2,0.1,0.3,0.4,0.3c0.1,0,0.3,0,0.3,0c0.1,0,0.1-0.1,0.2-0.2v-0.1c0,0,0,0,0,0.1
	v0.3c0,0.1-0.1,0.1-0.2,0.1c-0.3,0-0.5,0-0.6,0s-0.2,0-0.3,0c0,0-0.1,0-0.2,0s-0.1,0-0.2,0h-0.1l0,0h0.1c0.1,0,0.1-0.1,0.1-0.2
	c0-0.1,0-0.4,0-0.7v-1H105.9z M108.1,201.8c0-0.5,0-0.6,0-0.7c0-0.1,0-0.2-0.1-0.2h-0.1l0,0c0,0,0,0,0.1,0c0.2,0,0.4,0,0.4,0
	s0.3,0,0.4,0c0.2,0,0.5,0,0.7,0.1c0.1,0.1,0.2,0.2,0.2,0.5s-0.1,0.5-0.4,0.8c0.3,0.4,0.5,0.7,0.7,0.9s0.3,0.2,0.4,0.2s0.1,0,0.1,0
	l0,0c0,0,0,0-0.1,0h-0.2c-0.2,0-0.3,0-0.4-0.1c-0.2-0.1-0.3-0.2-0.5-0.5c-0.1-0.2-0.3-0.4-0.4-0.5l0,0h-0.4l0,0v0.1
	c0,0.3,0,0.6,0,0.7c0,0.1,0,0.2,0.1,0.2c0,0,0.1,0,0.2,0l0,0c0,0,0,0-0.1,0c-0.2,0-0.4,0-0.4,0s-0.2,0-0.3,0h-0.1l0,0h0.1
	c0.1,0,0.1-0.1,0.1-0.2c0-0.1,0-0.4,0-0.7L108.1,201.8L108.1,201.8z M108.4,202.1L108.4,202.1c0.1,0.1,0.3,0.1,0.4,0.1
	s0.2,0,0.3-0.1c0.1-0.1,0.2-0.3,0.2-0.5c0-0.4-0.2-0.7-0.6-0.7c-0.1,0-0.2,0-0.3,0l0,0V202.1L108.4,202.1z M113.1,200.8
	c0.8,0,1.4,0.5,1.4,1.3s-0.6,1.4-1.4,1.4c-1,0-1.4-0.7-1.4-1.3C111.7,201.6,112.1,200.8,113.1,200.8L113.1,200.8z M113.1,203.3
	c0.3,0,0.9-0.2,0.9-1.1c0-0.8-0.5-1.2-1-1.2c-0.6,0-1,0.4-1,1.1C112,202.8,112.5,203.3,113.1,203.3z M115.2,201.8c0-0.5,0-0.6,0-0.7
	c0-0.1,0-0.2-0.1-0.2H115l0,0c0,0,0,0,0.1,0c0.2,0,0.4,0,0.4,0c0.1,0,0.8,0,0.9,0s0.1,0,0.2,0l0,0l0,0c0,0,0,0.1,0,0.2v0.2l0,0l0,0
	v-0.1c0,0-0.1-0.1-0.2-0.1h-0.6l0,0v0.9l0,0h0.5c0.1,0,0.1,0,0.2,0s0.1,0,0.2-0.1l0,0l0,0c0,0,0,0.1,0,0.2c0,0.1,0,0.2,0,0.2v0.1
	l0,0v-0.1c0,0-0.1-0.1-0.2-0.1s-0.5,0-0.6,0l0,0v0.3c0,0.3,0,0.6,0,0.7c0,0.1,0,0.2,0.1,0.2s0.1,0,0.2,0l0,0c0,0,0,0-0.1,0
	c-0.2,0-0.4,0-0.4,0s-0.2,0-0.3,0h-0.1l0,0h0.1c0.1,0,0.1-0.1,0.1-0.2c0-0.1,0-0.4,0-0.7L115.2,201.8L115.2,201.8z M118.9,202.6
	c0,0.5,0,0.8-0.1,1s-0.2,0.3-0.5,0.5l-0.1,0.1l0,0l0,0c0,0,0,0,0-0.1l0.1-0.1c0.2-0.2,0.3-0.4,0.3-1.3v-1c0-0.5,0-0.6,0-0.7
	c0-0.1,0-0.2-0.1-0.2h-0.1l0,0c0,0,0,0,0.1,0c0.2,0,0.4,0,0.4,0s0.2,0,0.3,0h0.1l0,0c0,0,0,0-0.1,0s-0.1,0.1-0.1,0.2
	c0,0.1,0,0.2,0,0.7L118.9,202.6L118.9,202.6z M121,200.8c0.8,0,1.4,0.5,1.4,1.3s-0.6,1.4-1.4,1.4c-1,0-1.4-0.7-1.4-1.3
	C119.6,201.6,120,200.8,121,200.8L121,200.8z M121.1,203.3c0.3,0,0.9-0.2,0.9-1.1c0-0.8-0.5-1.2-1-1.2c-0.6,0-1,0.4-1,1.1
	C120,202.8,120.4,203.3,121.1,203.3z M123.6,202.5c0-0.2,0-0.2-0.1-0.3c0-0.1-0.5-0.8-0.6-1c-0.1-0.1-0.2-0.2-0.2-0.2
	c-0.1,0-0.1,0-0.1,0l0,0l0,0c0.1,0,0.3,0,0.3,0s0.2,0,0.3,0l0,0c0,0,0,0-0.1,0c0,0,0,0,0,0.1v0.1l0.6,1.1c0.1-0.1,0.5-0.9,0.6-1
	c0-0.1,0.1-0.1,0.1-0.2c0,0,0-0.1-0.1-0.1h-0.1c0,0,0,0,0.1,0s0.2,0,0.2,0h0.3l0,0l0,0c0,0-0.1,0-0.2,0s-0.1,0.1-0.2,0.2
	c-0.1,0.1-0.6,0.9-0.7,1.1c-0.1,0.1,0,0.2,0,0.3v0.3c0,0.1,0,0.2,0,0.3s0,0.2,0.1,0.2c0,0,0.1,0,0.2,0l0,0c0,0,0,0-0.1,0
	c-0.2,0-0.4,0-0.4,0s-0.2,0-0.3,0h-0.1l0,0h0.1c0.1,0,0.1-0.1,0.1-0.2c0-0.1,0-0.3,0-0.3L123.6,202.5L123.6,202.5z M127.1,202.4
	c0,0.3,0,0.6,0,0.7c0,0.1,0,0.2,0.1,0.2s0.1,0,0.2,0l0,0c0,0,0,0-0.1,0c-0.2,0-0.4,0-0.4,0s-0.2,0-0.3,0h-0.1l0,0h0.1
	c0.1,0,0.1-0.1,0.1-0.2c0-0.1,0-0.4,0-0.7v-0.6c0-0.5,0-0.6,0-0.7c0-0.1,0-0.2-0.1-0.2h-0.1l0,0c0,0,0,0,0.1,0s0.3,0,0.4,0
	c0,0,0.2,0,0.3,0h0.1l0,0c0,0,0,0-0.1,0s-0.1,0.1-0.1,0.2c0,0.1,0,0.2,0,0.7L127.1,202.4L127.1,202.4z M128.4,202.9
	c0,0.3,0,0.4,0.1,0.4s0.1,0,0.2,0l0,0c0,0,0,0-0.1,0c-0.2,0-0.3,0-0.4,0c0,0-0.2,0-0.3,0h-0.1l0,0h0.1c0.1,0,0.1-0.1,0.1-0.4V201
	c0-0.1,0-0.2,0-0.2l0.1,0.1c0.1,0.1,0.6,0.6,1.1,1.2c0.3,0.4,0.7,0.8,0.8,0.9v-1.7c0-0.2,0-0.3-0.1-0.3s-0.1,0-0.2,0l0,0
	c0,0,0,0,0.1,0c0.2,0,0.3,0,0.4,0c0,0,0.2,0,0.3,0h0.1l0,0c0,0,0,0-0.1,0s-0.1,0.1-0.1,0.3v2c0,0.2,0,0.2,0,0.2s-0.1,0-0.3-0.2
	c0,0-0.5-0.5-0.9-0.9s-0.8-0.8-0.9-1L128.4,202.9L128.4,202.9z M135.4,202.9c0,0.1,0,0.3,0.2,0.3c0.1,0,0.2,0,0.2,0l0,0
	c0,0,0,0-0.1,0s-0.5,0-0.6,0s-0.1,0-0.1,0l0,0v-0.1l-0.2-1.7l0,0l-0.8,1.7c-0.1,0.1-0.1,0.2-0.1,0.2s-0.1,0-0.1-0.2
	c-0.1-0.2-0.3-0.6-0.4-0.8c-0.1-0.2-0.4-0.8-0.4-0.9l0,0l-0.1,1.5c0,0.1,0,0.1,0,0.2c0,0.1,0,0.1,0.1,0.1s0.1,0,0.1,0l0,0
	c0,0,0,0-0.1,0s-0.3,0-0.3,0s-0.2,0-0.3,0h-0.1l0,0h0.1c0.1,0,0.1-0.1,0.1-0.3l0.3-2.2v-0.1c0,0,0.1,0,0.1,0.1l1.1,2.1l1-2.1
	c0,0,0-0.1,0.1-0.1c0,0,0,0,0.1,0.1L135.4,202.9L135.4,202.9z M136.8,202.5c0-0.2,0-0.2-0.1-0.3c0-0.1-0.5-0.8-0.6-1
	c-0.1-0.1-0.2-0.2-0.2-0.2c-0.1,0-0.1,0-0.1,0l0,0l0,0c0.1,0,0.3,0,0.3,0s0.2,0,0.3,0l0,0c0,0,0,0-0.1,0c0,0,0,0,0,0.1v0.1l0.6,1.1
	c0.1-0.1,0.5-0.9,0.6-1c0-0.1,0.1-0.1,0.1-0.2c0,0,0-0.1-0.1-0.1h-0.1c0,0,0,0,0.1,0s0.2,0,0.2,0h0.3l0,0l0,0c0,0-0.1,0-0.2,0
	c-0.1,0-0.1,0.1-0.2,0.2c-0.1,0.1-0.6,0.9-0.7,1.1c-0.1,0.1,0,0.2,0,0.3v0.3c0,0.1,0,0.2,0,0.3s0,0.2,0.1,0.2c0,0,0.1,0,0.2,0l0,0
	c0,0,0,0-0.1,0c-0.2,0-0.4,0-0.4,0s-0.2,0-0.3,0h-0.1l0,0h0.1c0.1,0,0.1-0.1,0.1-0.2c0-0.1,0-0.3,0-0.3L136.8,202.5L136.8,202.5z
	 M142.6,202.9c0,0.1,0,0.3,0.2,0.3c0.1,0,0.2,0,0.2,0l0,0c0,0,0,0-0.1,0s-0.5,0-0.6,0s-0.1,0-0.1,0l0,0v-0.1l-0.2-1.7l0,0l-0.8,1.7
	c-0.1,0.1-0.1,0.2-0.1,0.2s-0.1,0-0.1-0.2c-0.1-0.2-0.3-0.6-0.4-0.8c-0.1-0.2-0.4-0.8-0.4-0.9l0,0l-0.1,1.5c0,0.1,0,0.1,0,0.2
	c0,0.1,0,0.1,0.1,0.1s0.1,0,0.1,0l0,0c0,0,0,0-0.1,0s-0.3,0-0.3,0s-0.2,0-0.3,0h-0.1l0,0h0.1c0.1,0,0.1-0.1,0.1-0.3l0.3-2.2v-0.1
	c0,0,0.1,0,0.1,0.1l1.1,2.1l1-2.1c0,0,0-0.1,0.1-0.1c0,0,0,0,0.1,0.1L142.6,202.9L142.6,202.9z M144,202.4c0,0.3,0,0.6,0,0.7
	c0,0.1,0,0.2,0.1,0.2s0.1,0,0.2,0l0,0c0,0,0,0-0.1,0c-0.2,0-0.4,0-0.4,0s-0.2,0-0.3,0h-0.1l0,0h0.1c0.1,0,0.1-0.1,0.1-0.2
	c0-0.1,0-0.4,0-0.7v-0.6c0-0.5,0-0.6,0-0.7c0-0.1,0-0.2-0.1-0.2h-0.1l0,0c0,0,0,0,0.1,0s0.3,0,0.4,0c0,0,0.2,0,0.3,0h0.1l0,0
	c0,0,0,0-0.1,0s-0.1,0.1-0.1,0.2c0,0.1,0,0.2,0,0.7L144,202.4L144,202.4z M145.3,202.9c0,0.3,0,0.4,0.1,0.4s0.1,0,0.2,0l0,0
	c0,0,0,0-0.1,0c-0.2,0-0.3,0-0.4,0c0,0-0.2,0-0.3,0h-0.1l0,0h0.1c0.1,0,0.1-0.1,0.1-0.4V201c0-0.1,0-0.2,0-0.2l0.1,0.1
	c0.1,0.1,0.6,0.6,1.1,1.2c0.3,0.4,0.7,0.8,0.8,0.9v-1.7c0-0.2,0-0.3-0.1-0.3s-0.1,0-0.2,0l0,0c0,0,0,0,0.1,0c0.2,0,0.3,0,0.4,0
	c0,0,0.2,0,0.3,0h0.1l0,0c0,0,0,0-0.1,0s-0.1,0.1-0.1,0.3v2c0,0.2,0,0.2,0,0.2s-0.1,0-0.3-0.2c0,0-0.5-0.5-0.9-0.9s-0.8-0.8-0.9-1
	L145.3,202.9L145.3,202.9z M148.4,201.8c0-0.5,0-0.6,0-0.7c0-0.1,0-0.2-0.1-0.2h-0.1l0,0c0,0,0,0,0.1,0c0.2,0,0.4,0,0.4,0
	s0.3,0,0.5,0c0.3,0,1,0,1.4,0.4c0.2,0.2,0.3,0.5,0.3,0.9s-0.2,0.7-0.4,0.9c-0.1,0.2-0.5,0.4-1.1,0.4c-0.2,0-0.3,0-0.5,0
	c-0.1,0-0.3,0-0.3,0h-0.1c-0.1,0-0.2,0-0.2,0h-0.1l0,0h0.1c0.1,0,0.1-0.1,0.1-0.2c0-0.1,0-0.4,0-0.7L148.4,201.8L148.4,201.8z
	 M148.7,202.2c0,0.4,0,0.7,0,0.7c0,0.1,0,0.2,0,0.2c0,0.1,0.2,0.1,0.6,0.1c0.3,0,0.6-0.1,0.8-0.3s0.3-0.5,0.3-0.8
	c0-0.4-0.2-0.7-0.3-0.8c-0.3-0.3-0.7-0.4-1.1-0.4c-0.1,0-0.2,0-0.2,0s0,0,0,0.1L148.7,202.2L148.7,202.2z"/>
</svg>
