<svg viewBox="0 0 1537 119" fill="#FFF" xmlns="http://www.w3.org/2000/svg">
<path d="M1117.7,22.4V39c0,4-2.7,3.5-6.4,3.7c-0.2-0.9-0.7-2.3-1.1-3.1c1.9-0.2,3.9,0.6,4.1-0.6c0,0,0-5.1,0-5.1
	c-1.8,1.2-3.6,2.2-5.3,3.3l-1.2-2.5c-0.4,3-1.1,6.1-2.7,8.5c-0.6-0.7-2.1-1.8-2.9-2.1c3.5-5.5,2.3-12.7,2.5-18.6h-2.2v-6.6h1.8V3.3
	h13.7v12.5h1.8v6.6L1117.7,22.4L1117.7,22.4z M1116.5,18.7h-11.1v2.4h11.1V18.7z M1107.5,15.8h2.3v-7h4.7V6.4h-6.9
	C1107.5,6.4,1107.5,15.8,1107.5,15.8z M1107.9,29.5c0,1.5,0,3.1-0.2,4.7c1.8-0.7,4.1-1.9,6.5-3.1V24h-6.3v3.1l1.7-1.8
	c1.7,1.1,3.6,2.5,4.6,3.5l-1.9,2.1c-0.9-1-2.8-2.6-4.3-3.6L1107.9,29.5L1107.9,29.5z M1114.4,15.8v-4.5h-2.4v4.5H1114.4z M1143,39
	v3.1h-23.3V39h5.9c-0.4-1.2-0.9-2.6-1.4-3.8l3-0.9h-5.1v-8.5h18.4v8.5h-5.2l3.4,0.9c-0.8,1.2-1.4,2.5-2.1,3.7
	C1136.7,39,1143,39,1143,39z M1142.6,24h-22.4V21h22.4L1142.6,24L1142.6,24z M1141.5,19H1121V5.2h5.5V1.9h3.3v3.3h2.7V1.9h3.3v3.3
	h5.8C1141.5,5.2,1141.5,19,1141.5,19z M1124.2,10.7h3V8h-3V10.7z M1124.2,16.1h3v-2.7h-3V16.1z M1125.8,31.7h10.9v-3.1h-10.9V31.7z
	 M1127.3,34.3c0.7,1.5,1.5,3.3,1.9,4.7h3.9c0.7-1.5,1.4-3.4,1.8-4.7H1127.3z M1132.6,10.7V8h-2.8v2.7H1132.6z M1129.8,13.4v2.7h2.8
	v-2.7H1129.8z M1138.3,8h-3.1v2.7h3.1V8z M1138.3,13.4h-3.1v2.7h3.1V13.4z M1177.5,2.9c-0.2,0.3-0.4,0.6-0.7,0.9
	c4.2,3.8,11.7,7.2,18.7,8.7c-0.8,0.8-2,2.2-2.6,3.2c-1.1-0.3-2.2-0.7-3.4-1.1v11.6h-30.3V14.9c-1.1,0.4-2.2,0.8-3.3,1.1
	c-0.4-0.8-1.5-2.5-2.2-3.2c8.1-2.1,16-5.9,20.1-11.2L1177.5,2.9L1177.5,2.9z M1189.3,14.6c-2.4-0.9-4.9-1.9-7.2-3.2v1.3h-15.5v-1.1
	c-2.1,1.2-4.2,2.1-6.5,3C1160.2,14.6,1189.3,14.6,1189.3,14.6z M1161.8,28h25.5v14.7h-4.2v-1.2h-17.2v1.4h-4.1L1161.8,28L1161.8,28z
	 M1167.9,17.6c1,1.5,2,3.6,2.3,4.9l-3,1h5.3v-6.2h-9.7v6.2h4.3c-0.3-1.4-1.2-3.4-2.1-5C1165,18.5,1167.9,17.6,1167.9,17.6z
	 M1165.9,30.9v2.5h17.2v-2.5H1165.9z M1183.1,38.7v-2.5h-17.2v2.5H1183.1z M1179.6,9.8c-1.9-1.2-3.5-2.4-4.9-3.8
	c-1.5,1.3-3.1,2.6-4.9,3.8C1169.7,9.8,1179.6,9.8,1179.6,9.8z M1185.8,17.3h-9.9v6.2h5l-2.8-0.8c0.8-1.4,1.8-3.7,2.2-5.2l3.5,1
	c-1,1.9-2,3.8-2.8,5.1h4.8C1185.8,23.5,1185.8,17.3,1185.8,17.3z M1210.2,28.6c3.4-1.3,5.5-3.4,5.7-6.1c-5.3,1-6-7.3-0.6-7.1
	c8.6,1.4,3.3,14.9-3.9,16.1L1210.2,28.6L1210.2,28.6z M1275.5,38.9V42h-39.3v-3.1h11.4c-0.5-1.3-1.2-2.9-2-4l0.8-0.2h-4.7v-8.5h28.9
	v8.5h-4.6l0.8,0.2c-0.9,1.4-1.7,2.9-2.5,4H1275.5z M1275,24.3h-38.2v-3h38.2V24.3z M1273.2,19.5h-34.5V2.9h3.6v13.6h4.5v-2h-3.4
	v-2.1h3.4v-1.8h-3V8.6h3V6.9h-3.2V4.8h3.2V2.5h2.6v2.3h3.3v2.1h-3.3v1.8h3.1v2.1h-3.1v1.8h3.5v2.1h-3.5v2h4.7V1.8h3.6v14.8h4.6v-2
	h-3.5v-2.1h3.5v-1.8h-3V8.6h3V6.9h-3.3V4.8h3.3V2.5h2.6v2.3h3.3v2.1h-3.3v1.8h3v2.1h-3v1.8h3.5v2.1h-3.5v2h4.6V2.9h3.7V19.5
	L1273.2,19.5z M1245.6,32h20.9v-3.3h-20.9V32z M1249.8,34.6c0.8,1.3,1.6,2.9,1.9,4l-0.7,0.2h9.8l-0.4-0.1c0.7-1.1,1.7-2.7,2.3-4.1
	H1249.8L1249.8,34.6z M1318.2,38.2c4.1,0,4.7-0.8,5.2-5.2c1.1,0.6,2.9,1.3,4.1,1.5c-0.8,6-2.4,7.6-9.2,7.6h-17
	c-8,0-10.3-1.3-10.3-6.9v-18h33.2v13.6h-29.1c0.3,4.5-1.9,7.8,6,7.3C1301.2,38.2,1318.2,38.2,1318.2,38.2z M1321.8,14.3h-28.1V3.5
	h28.1C1321.8,3.5,1321.8,14.3,1321.8,14.3z M1295.2,21v6.3h10.3V21H1295.2z M1317.4,6.7h-19.6v4.4h19.6V6.7L1317.4,6.7z M1320.1,21
	h-10.6v6.3h10.6V21z M1379.3,37.7v4h-37.9v-38h37.4v4h-33v30H1379.3z M1365.5,36.7V23.3h-10.2c-0.3,4.6-1.2,10-4.6,13.7
	c-0.8-0.7-2.5-2-3.5-2.4c5.7-6.5,3.6-15.5,4-22.9c7.3-0.3,15.9-0.9,21.1-2l2.4,3.4c-5.3,1.1-12.7,1.7-19.3,1.9v4.8h22.2v3.7h-8v13.4
	L1365.5,36.7L1365.5,36.7z M1399.2,18.1c-0.7,5.5-2,13.1-3.7,18l-4.2-1.8c1.8-4.6,3.2-11.4,3.8-17L1399.2,18.1L1399.2,18.1z
	 M1406.9,14.4v21.4c0,2.1,0.5,2.5,2.9,2.5h7.6c2.6,0,3-1.5,3.3-8.9c1,0.8,2.8,1.5,3.9,1.8c-0.2,14-6.3,10.6-15.2,11
	c-5.2,0-6.7-1.4-6.7-6.4V14.4H1406.9z M1407.3,3c4.1,2.7,9.6,6.8,12.2,9.6l-3.1,3.2c-2.5-2.8-7.8-7.1-12-10L1407.3,3L1407.3,3z
	 M1426.7,16.1c2.6,5.3,5,12.1,5.9,16.7l-4.2,1.8c-0.8-4.6-3.2-11.6-5.6-16.9C1422.8,17.6,1426.7,16.1,1426.7,16.1z M1467,18.5
	c3.1,9.3,8.7,16.9,17.2,20.4c-1,0.9-2.4,2.6-3.1,3.9c-8.4-3.9-13.8-11.2-17.3-20.7c-2.3,8.1-7.1,15.9-17.3,20.7
	c-0.7-1.1-2-2.6-3.2-3.5c10.7-4.7,15-12.7,16.8-20.8h-15.9v-4.3h16.7c0.5-4.5,0.5-8.8,0.5-12.4h4.5c0,3.6-0.1,7.9-0.6,12.4h18.1v4.3
	L1467,18.5L1467,18.5z M1509.5,3.3c-1.2,3.1-2.7,6.4-4.4,9.4v30.2h-4.2V19.2c-1.2,1.6-2.4,3.1-3.7,4.4c-0.4-1-1.6-3.4-2.3-4.3
	c4.2-4.2,8.2-10.7,10.7-17.3L1509.5,3.3L1509.5,3.3z M1523,13.2v5.7h12.2v3.8H1523v6h12.8v3.9H1523v10.4h-4.2V13.2h-2.5
	c-1.9,3.5-3.9,6.6-6.1,9c-0.7-0.7-2.3-2.2-3.2-2.8c3.9-4.1,7.5-10.6,9.7-17l4,1.1c-0.7,1.9-1.5,3.9-2.3,5.8h18v4L1523,13.2
	L1523,13.2z M1163.1,88.6v1h-5.8v14.6h-1.2V89.7h-5.8v-1H1163.1L1163.1,88.6z M1185.5,88.6v15.6h-1.2v-7.4H1174v7.4h-1.2V88.6h1.2
	v7.2h10.3v-7.2H1185.5z M1205.3,88.6v1h-7.2v6.2h7v1h-7v6.3h7.4v1h-8.6V88.6H1205.3z M1230,88.6c2.1,0.1,6.3-0.4,7.7,1.1
	c2.3,2,1.5,5.8-1.6,6.7c1.4,0.7,4.5,6.4,5.5,7.8h-1.4c-1-1.5-3.6-6.2-4.8-7c-0.8-0.7-3.1-0.5-4.3-0.5v7.5h-1.2V88.6z M1231.2,89.7
	v6.1c2.5,0,6.6,0.4,6.6-3.1C1237.8,89.3,1233.7,89.6,1231.2,89.7L1231.2,89.7z M1259.2,88.6v1h-7.2v6.2h7v1h-7v6.3h7.4v1h-8.6V88.6
	H1259.2z M1275.8,88.5l7.1,15.7h-1.2l-2.4-5.4h-7.5l-2.4,5.4h-1.2l7.1-15.7H1275.8z M1278.8,97.9l-3.3-7.4l-3.3,7.4H1278.8z
	 M1293.9,88.6v14.6h7.6v1h-8.8V88.6H1293.9z M1332.3,95.9l5.8-7.3h1.2v15.6h-1.2V90.4l-5.9,7.3l-5.9-7.3v13.9h-1.2V88.6h1.2
	L1332.3,95.9L1332.3,95.9z M1356.8,88.5l7.1,15.7h-1.2l-2.4-5.4h-7.5l-2.4,5.4h-1.2l7.1-15.7H1356.8z M1359.8,97.9l-3.3-7.4
	l-3.3,7.4H1359.8z M1380.9,89.4v1.3c-3.1-2.6-8.4-0.5-6.2,3.4c0.6,1,4,2,4.9,2.5c5.5,4.1-1.6,10.7-6.5,6.4v-1.4
	c4.8,4.8,10.9-2.2,4.2-4.7C1368.8,94.8,1374.2,85.3,1380.9,89.4L1380.9,89.4z M1403.2,88.6v1h-5.8v14.6h-1.2V89.7h-5.8v-1H1403.2
	L1403.2,88.6z M1421.4,88.6v1h-7.2v6.2h7v1h-7v6.3h7.4v1h-8.6V88.6H1421.4z M1431.9,88.6c2.1,0.1,6.3-0.4,7.7,1.1
	c2.3,2,1.5,5.8-1.6,6.7c1.4,0.7,4.5,6.4,5.5,7.8h-1.4c-1-1.5-3.6-6.2-4.8-7c-0.8-0.7-3.1-0.5-4.3-0.5v7.5h-1.2V88.6z M1433.1,89.7
	v6.1c2.5,0,6.6,0.4,6.6-3.1C1439.7,89.3,1435.6,89.6,1433.1,89.7L1433.1,89.7z M1452.7,88.6c2.1,0.1,6.5-0.5,8,1.1
	c1.7,1.4,1.7,4.7,0,6.1c-1.3,1.4-4.8,1.1-6.8,1.1v7.3h-1.2L1452.7,88.6L1452.7,88.6z M1453.9,89.7V96c2.6,0,6.9,0.4,6.8-3.2
	C1460.8,89.2,1456.4,89.6,1453.9,89.7L1453.9,89.7z M1473.3,88.6v15.6h-1.2V88.6H1473.3z M1493.1,88.6v1h-7.2v6.2h7v1h-7v6.3h7.4v1
	h-8.6V88.6H1493.1z M1516.4,89.8v1.3c-16.1-8.2-16,19.2,0.2,10.7v1.2C1498.9,111.4,1498.5,81.9,1516.4,89.8L1516.4,89.8z
	 M1535.2,88.6v1h-7.2v6.2h7v1h-7v6.3h7.4v1h-8.6V88.6H1535.2z M28.7,39.7h17.7V46H4.1v-6.4h17v-4.7H8.9v-6.2h12.1v-4.6h-9.6v-4.4
	c-2,1.3-4.1,2.5-6.1,3.4c-1-1.8-2.8-4.3-4.4-5.8c5.1-1.9,10.5-5.2,14.9-8.9h-5.1V1.8h18.1c4.1,5.9,11.7,11.9,20.4,14.9
	c-1.5,1.5-3.8,4.6-4.8,6.6c-2.1-1-4.1-2.1-6.1-3.4v4.1h-9.7v4.6H41v6.2H28.7V39.7z M24.9,8.4c-3,3.4-6.7,6.6-10.7,9.4h21
	C31.3,15,27.8,11.7,24.9,8.4L24.9,8.4z M100.8,2.2v45h-7.1v-1.9h-29v1.9h-6.8v-45H100.8L100.8,2.2z M93.7,38.9V8.6h-3.8
	c1.1,0.7,2.2,1.5,2.8,2.2l-1.8,1.8h1.7v4.9h-8c0.2,1.8,0.4,3.6,0.5,5.1c0.6-1.3,1.1-2.8,1.5-4.3l5.4,1.1c-1.2,4.1-2.9,7.8-5.1,11
	c0.4,0.8,0.8,1.3,1.3,1.5c0.5,0.2,0.8-1.7,1-4.4c1,1.1,3.2,2.8,4.3,3.5c-0.8,6.5-3.9,8.3-7.6,6.5c-1.1-0.4-2.1-1.3-2.9-2.5
	c-1.4,1.3-2.8,2.5-4.4,3.5c-0.6-0.9-2.2-2.8-3.4-3.8c-3.4,0.4-6.6,0.8-9.5,1.2l-0.5-5.1c3.5-0.2,8.4-0.7,13.4-1.2l0.1,2
	c0.7-0.6,1.3-1.2,1.9-1.9c-0.9-3.4-1.5-7.5-1.8-12.1h-13v-4.9h12.6c-0.1-1.2-0.2-2.4-0.2-3.6h5.9c0,1.2,0,2.4,0.1,3.6h3.6
	c-0.8-0.6-1.8-1.3-2.6-1.8l2.3-2.2h-23v30.3H93.7L93.7,38.9z M78,28.5H66.9v-9.3H78V28.5z M73.3,22.8h-2v2.1h2V22.8z M157.1,44.1
	h-19.7v3.1h-6.7V22.8c-0.3,0.4-0.6,0.8-1,1.1c-0.7-1.1-1.8-2.8-2.9-4.1v14.8h-8.9v4.1h-6.5V4.3h15.4v12.3c3.5-4.5,6.4-11.2,7.8-16.3
	l7.1,2C141,4.4,140,6.7,139,9h5.5c-0.7-1.9-1.8-4.2-2.8-5.9l6-2.6c1.5,2.2,2.9,5,3.6,7L148.1,9h8.4v6.4h-7.4v3.2h6.1v6.4h-6.1v3h6.1
	v6.4h-6.1v3.2h8L157.1,44.1L157.1,44.1z M120.4,11.3h-2.4v16.3h2.4V11.3z M142.4,15.4h-5v3.2h5V15.4z M142.4,24.9h-5v3h5V24.9z
	 M137.4,37.5h5v-3.2h-5V37.5z M211,19.3v7.9h-46v-7.9H211z M233.4,24.6c-0.4,3.8-1.2,7.1-2.2,10c2.8,4.8,7.9,5.4,15.4,5.5
	c5.3,0,14-0.3,19.9-0.9c-1,1.4-1.9,4.6-2.3,6.6c-5.4,0.3-11.8,0.5-17.8,0.5c-8.5,0-14-0.9-17.7-5.7c-1.6,2.9-3.5,5.1-5.7,6.7
	c-0.9-1.4-3.3-3.8-4.6-4.7c4-2.7,6.7-7.3,8.1-13.5h-2.8c-1.1,0-2.7,0.4-3.1,0.8v-0.1c-0.3-1.4-1.6-4.4-2.2-5.6
	c0.8-0.2,1.7-0.6,2.7-1.6c0.7-0.7,2.4-2.9,3.9-5.1h-5.4v-5.6h9.7l0.8-0.4l4.2,1.9c-1.8,2.7-4.7,7-7.2,10.3h2.2l1.1-0.1L233.4,24.6
	L233.4,24.6z M226.5,11.5c-1.2-2.1-3.9-5.6-6.1-8l5.4-3.2c2.3,2.3,4.9,5.4,6.3,7.4L226.5,11.5z M244.9,9h-11.8V3.3h11.8V0.2h7v3.1
	h12.4V9h-12.4v1.5h10.5v17.4h-10.5v1.7h12.9v5.8h-12.9v3.8h-7v-3.8h-11.7v-5.8h11.7v-1.7h-10.1V10.5h10.1V9z M241.3,16.9h3.6v-1.6
	h-3.6V16.9z M244.9,23v-1.6h-3.6V23H244.9z M251.8,15.3v1.6h3.6v-1.6H251.8z M255.4,21.4h-3.6V23h3.6V21.4z M286.6,31.9
	c-0.1-0.6-0.2-1.3-0.3-2.1c-8.2,1.2-10,1.7-11.1,2.3c-0.3-1.2-1.3-4.1-2-5.7c1.3-0.4,2.3-1.5,3.8-3.4c0.5-0.6,1.5-1.9,2.5-3.6
	c-2.9,0.3-4,0.6-4.7,1c-0.3-1.2-1.3-4-1.9-5.5c0.9-0.3,1.7-1.2,2.6-2.7c0.9-1.4,3.6-6.9,5-12.2l5.8,2.3c-1.4,3.8-3.5,7.9-5.6,11.4
	l2.2-0.2c1.1-2.1,2.2-4.4,3.1-6.7l5.3,3.3c-1.8,3.7-4,7.5-6.5,11l4.2-1.1c1.1,3.4,2.1,7.7,2.5,10.3L286.6,31.9L286.6,31.9z
	 M280.2,34.1c-0.2,4.7-1,9.6-2,12.7c-1.2-0.6-3.8-1.4-5.1-1.8c1.1-3,1.6-7.6,1.8-11.8L280.2,34.1z M285,33.2c0.5,3.7,0.9,8.2,1,11.4
	l-4.9,0.9c0.1-3.1-0.3-7.8-0.7-11.5L285,33.2z M285.3,24.5c-0.2-1-0.5-1.9-0.7-2.8c-0.7,1.1-1.5,2.1-2.3,3.2L285.3,24.5z
	 M289.5,31.8c0.9,2.8,1.9,6.4,2.3,8.7l-4.5,1.5c-0.3-2.4-1.2-6.1-2.1-8.9L289.5,31.8L289.5,31.8z M312,39.6c3,0.9,6,2,8,2.7
	l-2.8,4.9c-2.7-1.1-7.1-2.9-10.9-4.1l1.8-3.5h-6.7l3.2,3.4c-4,1.6-9.1,3.4-12.8,4.5c-0.5-1.4-1.5-3.5-2.4-4.9c2.5-0.7,5.8-1.9,8.5-3
	h-5.8V24.5h25.4v15.1H312L312,39.6z M301.4,6.5h-11.3V2h11.3V0.2h7V2H319v4.4h-10.7v1.1h9.4v4.2h-26V7.6h9.6V6.5L301.4,6.5z
	 M290.2,12.7h29v10.7h-29V12.7z M296,19.2h2.4v-2.3H296V19.2z M298.4,29.1h12.5V28h-12.5V29.1z M298.4,32.6h12.5v-1.1h-12.5V32.6z
	 M298.4,36.2h12.5V35h-12.5V36.2z M305.7,19.2v-2.3h-2.2v2.3H305.7z M313.1,16.9h-2.2v2.3h2.2V16.9z M355.4,35.1v7.3h-27.7
	c0-9.1,12.8-18,18.1-24.5c6.8-9.8-8.6-15.6-9.3-3.9l-7.9-0.8c2-22,39.3-12,22.6,9.8c-2.2,3.1-9.8,8.8-11.5,12
	C339.7,35.1,355.3,35.1,355.4,35.1z M366.2,31.5l7.6-0.9c0.2,5.3,6.4,8.1,10,4.2c4.4-5.5,0-14-7.5-10.9l0.9-6.4
	c5.2,0.7,8.6-4.8,5.3-8.6c-3.3-3-8.4-0.3-8.5,4.3l-7.3-1.2c0.9-10.7,15.3-14.2,22-7c4.8,5,3.6,12.2-3,15.5c8.9,1.6,10.1,13.6,3.8,19
	C382.1,46.8,366.8,42.8,366.2,31.5L366.2,31.5z M450.5,37h-16.4v10.1h-7.4V37h-22v-6.9h7.6V19c-0.6,0.7-1.2,1.4-1.8,2
	c-1.4-1.3-4.4-3.6-6.2-4.7c4.3-3.7,8-10,10-16.3l7.4,1.9c-0.4,1.1-0.8,2.3-1.3,3.5h27.2v6.9h-13.5v5h12.3V24h-12.3v6.1h16.4V37z
	 M416.9,12.2c-1,1.8-2.2,3.5-3.3,5h13.1v-5H416.9L416.9,12.2z M426.7,30.1V24h-7.2v6.1H426.7z M27.5,74.4c-0.4,0.5-0.7,1.1-1.1,1.6
	c4.9,5.8,14,11.6,21.6,14.1c-0.6,0.5-1.3,1.4-1.7,2.1C39,89.5,30.2,83.7,25,77.8c-5.2,6.3-13,11.6-21.1,14.6c-0.4-0.7-1-1.7-1.6-2.2
	c9.2-3.1,18.4-9.4,23.2-16.7L27.5,74.4z M26.1,114.7h20.2v2.2H3.8v-2.2h19.9V101H6v-2.2h17.7v-7.7H12.6v-2.3h24.9v2.3H26.1v7.7h18.2
	v2.2H26.1L26.1,114.7L26.1,114.7z M12.7,103.1c2,2.9,4.1,6.8,4.8,9.2l-2.1,0.9c-0.8-2.4-2.8-6.5-4.7-9.4L12.7,103.1z M31.5,112.4
	c1.8-2.5,4.2-6.7,5.5-9.5l2.3,0.9c-1.8,3.2-4.2,7-6.1,9.4L31.5,112.4z M79.5,107.5c-1.6,4.1-6.7,8.5-21.2,11.1
	c-0.2-0.5-0.8-1.4-1.3-2c12.8-2.2,17.9-5.7,19.9-9.1H57.4v-2.1h20.3c0.2-0.8,0.2-1.5,0.2-2.2v-2.9h2.3v2.9c0,0.7-0.1,1.4-0.2,2.2h11
	c-1.1-1.1-2.9-2.5-4.4-3.6l1.3-1.2c1.6,1.1,3.7,2.6,4.7,3.7l-1,1h9.9v2.1H79.5z M63.7,92.3c0,2.7-0.8,6.9-4.3,9.6
	c-0.5-0.4-1.4-0.9-1.9-1.2c3.3-2.5,4-6.1,4-8.4v-0.9h-4v-2.1h11v-4.5h-8.5v-9.9h2.1v7.8h6.4V74h2.2v27.7h-2.2V91.4h-4.8L63.7,92.3
	L63.7,92.3z M98.7,77.1c-4.4,7.5-15,10.9-25,12.2c-0.2-0.5-0.7-1.2-1.1-1.7c5.1-0.6,10.4-1.8,14.8-3.7c-1.3-1.6-3.4-3.6-5.3-5
	c-2.2,1.1-4.6,2.1-7.4,3c-0.3-0.5-1-1.2-1.5-1.5c6.1-1.7,10.9-4.2,13.6-6.6l2.3,0.5c-0.8,0.7-1.7,1.4-2.7,2.1H97l0.5-0.1L98.7,77.1
	L98.7,77.1z M94,97.9c0,1.4-0.3,1.9-1.3,2.3c-1.2,0.3-3.1,0.3-6.3,0.3c-0.2-0.6-0.4-1.3-0.8-2c2.7,0.1,4.7,0.1,5.4,0
	c0.6,0,0.8-0.2,0.8-0.7v-6.2H73v-1.9h18.7v-3.9H94v3.9h6.6v1.9H94V97.9z M83.3,84.1c-3.3,0.2-6.4,0.4-9,0.6L74,83
	c2.6-0.1,5.7-0.3,9.3-0.5L83.3,84.1L83.3,84.1z M78.9,92.2c2.1,1.2,4.6,3.2,5.8,4.7l-1.6,1.4c-1.2-1.4-3.7-3.5-5.8-4.9L78.9,92.2
	L78.9,92.2z M82.1,108c6.5,2.5,15.1,6.1,19.8,8.5l-1.2,1.9c-4.5-2.3-13.1-6.2-19.7-8.8L82.1,108z M83.7,78.2c2,1.5,4.1,3.4,5.4,5
	c2.6-1.4,4.8-3,6.4-5H83.7z M128.5,84.1h-17.2v-2.1h17.2V84.1z M126.9,115.6h-12.3v2.4h-2.1v-16.4h14.5L126.9,115.6L126.9,115.6z
	 M112.5,88.6h14.7v2.1h-14.7V88.6z M112.5,95.1h14.7v2h-14.7V95.1z M114.6,103.7v9.8h10.2v-9.8H114.6z M119.9,81.1
	c-0.6-1.7-2-4.4-3.3-6.5l2.1-0.8c1.3,2,2.7,4.7,3.4,6.4L119.9,81.1z M127.5,112.7c1.7-2.6,3-7,3.7-10.1l1.9,0.5
	c-0.8,3.4-1.9,7.8-3.7,10.5L127.5,112.7z M143.3,78.1c-0.9,9.2-3.4,16.6-12.3,20.6c-0.3-0.5-1-1.3-1.5-1.7c4.9-2,7.7-5.2,9.4-9
	c-1.9-1.9-4.9-4.6-7.4-6.6l1.3-1.4c2.3,1.8,5,4.2,6.9,5.9c0.8-2.4,1.1-5,1.4-7.7h-10.7v-2.2h23.4c0,0,0,0.9-0.1,1.2
	c-0.5,12.8-1,17-2.2,18.5c-2.2,2-4.9,0.9-8.4,1c0-0.6-0.3-1.5-0.6-2.2c3.4,0.1,5.2,0.8,7.1-0.2c0.8-1,1.3-5.1,1.8-16.1L143.3,78.1
	L143.3,78.1z M145.9,115.5c1.8,0,2.1-0.9,2.2-7c0.5,0.4,1.4,0.7,2,0.9c-0.2,6.6-0.9,8.1-4,8.1h-7c-3.4,0-4.2-0.7-4.2-3.5v-12.7h2.2
	v12.7c0,1.1,0.4,1.4,2.2,1.4H145.9z M140.4,98c2,2.3,4.2,5.2,5.3,7l-1.6,1.2c-1.1-1.9-3.4-5-5.3-7.3L140.4,98L140.4,98z
	 M152.1,100.7c1.7,3.2,3.6,7.5,4.4,10l-2,0.8c-0.8-2.6-2.6-6.9-4.2-10.2L152.1,100.7z M181.9,84.4h-16.2v-2.1h16.2V84.4z
	 M167.5,90.7v-2h12.9v2H167.5z M180.4,97.1h-12.9V95h12.9V97.1z M180.6,115.4h-11.1v2.5h-2v-16.5h13.1L180.6,115.4L180.6,115.4z
	 M169.5,103.5v9.8h9.1v-9.8H169.5z M174.7,81.1c-0.8-1.8-2.4-4.5-3.8-6.4l1.7-1.1c1.5,2,3.2,4.5,3.9,6.2L174.7,81.1L174.7,81.1z
	 M195.1,76.2c-2,8.2-6.7,14.5-11.8,17.7c-0.3-0.5-1-1.3-1.5-1.7c2.3-1.3,4.5-3.5,6.5-6.1c-1.2-1.3-3.2-2.9-4.9-4.1l1.5-1.4
	c1.6,1,3.4,2.4,4.6,3.7c1.2-2,2.2-4.1,2.9-6.4h-7.9v-2.1h8.8l0.4-0.1L195.1,76.2L195.1,76.2z M204.2,107.2c-1.3,2.6-2.8,5.6-4.2,7.9
	h10.2v2.1h-27.8v-2.1h15.3c1.5-2.4,3.2-6.1,4.1-8.6L204.2,107.2z M205.7,105.6h-19.1V94.2h19.1V105.6z M191.6,114.7
	c-0.4-2-1.6-5.1-3.1-7.5l2.2-0.5c1.5,2.3,2.8,5.3,3.1,7.3L191.6,114.7z M203.5,96.3h-14.7v7.3h14.7V96.3z M202.8,88.1v2.1h-13.2
	v-2.1H202.8z M209.9,82.1c-1.6,1.5-3.7,2.8-5.4,3.8c1.8,2.5,4,4.5,6.4,5.9c-0.6,0.4-1.3,1.1-1.7,1.7c-5.6-3.5-10-10.7-12.2-18.6
	l2-0.4c0.4,1.6,1,3.2,1.7,4.8c1.5-1.2,3.3-2.9,4.4-4l1.6,1.3c-1.6,1.6-3.6,3.2-5.2,4.3c0.6,1.2,1.2,2.4,2,3.5
	c1.7-1.1,3.6-2.6,4.8-3.7L209.9,82.1L209.9,82.1z M280.2,95h-20.7v23.5H257V95h-20.5v-2.4H257V73.9h2.5v18.8h20.7V95z M314.7,90.8
	c3.6,11.7,10.4,21.2,20,25.4c-0.6,0.5-1.3,1.5-1.8,2.2c-9.9-4.7-16.7-14.6-20.5-27c-2.1,10.3-7.3,21.1-20.4,27
	c-0.4-0.6-1.1-1.5-1.8-1.9c12.8-5.5,17.9-16,20-25.8h-19.1v-2.4h19.5c0.9-5.6,0.9-10.9,0.9-14.6h2.5c0,3.8-0.1,9-0.9,14.6h21v2.4
	H314.7z M358.2,91.6c-0.8,6.7-2.4,12.3-4.4,16.7c4.9,5.3,12.1,6.6,21.1,6.7c1.5,0,12.3,0,14.3-0.1c-0.4,0.6-0.8,1.6-1,2.2h-13.4
	c-9.5,0-16.9-1.3-22.1-6.8c-1.8,3.5-4.1,6.1-6.7,8.1c-0.3-0.4-1.2-1.3-1.8-1.6c2.7-2,5-4.8,6.9-8.3c-1.9-2.5-3.4-5.6-4.6-9.6
	l1.9-0.8c0.9,3.4,2.2,6.1,3.7,8.2c1.6-3.6,2.8-8,3.5-13h-7.1c-0.5,0.2-1.5,0.8-1.5,1.2c-0.2-0.5-0.7-1.6-1-2.1
	c0.8-0.2,1.9-1.3,2.9-2.8c0.9-1.3,3.9-5.8,6-10.4h-9.4v-2.2h10.4l0.8-0.4l1.6,1.1c-2.5,5-5.1,9.8-7.8,13.4h5.9l0.4-0.1L358.2,91.6
	L358.2,91.6z M371.5,80.4h-9.7v-2h9.7v-4.5h2.3v4.5h11.1v6.6h3.8v2h-3.8v6.7h-11.1v4.6h12.5v2h-12.5v4.8h14.5v2h-14.5v5.9h-2.3v-5.9
	h-12.7v-2h12.7v-4.8h-10.6v-2h10.6v-4.6h-10.1v-2h10.1v-4.7h-13.2v-2h13.2V80.4L371.5,80.4z M373.8,80.4v4.5h8.8v-4.5H373.8z
	 M382.6,86.9h-8.8v4.7h8.8V86.9z M442.6,79.5v2.2h-42.9v-2.2h21c-0.5-1.6-1.3-3.7-2.1-5.2l2.1-0.6c0.9,1.9,1.8,4.2,2.4,5.8
	L442.6,79.5L442.6,79.5z M439.6,115.2c0,1.6-0.4,2.3-1.6,2.7c-1.3,0.3-3.7,0.3-8,0.3c-0.1-0.6-0.5-1.4-0.8-2
	c3.5,0.1,6.4,0.1,7.1,0.1c0.9-0.1,1.2-0.2,1.2-1.1V91.5H426v4.3c0,1.2,0.1,1.5,1,1.5h5.7c0.7,0,1.9,0,2.6-0.1c0,0.5,0.1,1.3,0.2,1.9
	c-0.6,0.2-1.8,0.2-2.8,0.2h-5.9c-2.5,0-3-1-3-3.6v-4.3h-6.9c-0.7,5.6-3.3,8.3-10.1,9.9c-0.2-0.5-0.8-1.3-1.3-1.7
	c6.4-1.3,8.5-3.5,9.2-8.2h-9.5v27h-2.3v-29h22.7c1.5-2,3.3-5,4.3-7.1l2.4,0.6c-1.3,2.1-2.9,4.6-4.3,6.5h11.6V115.2L439.6,115.2z
	 M412.4,82.2c1.2,1.8,2.7,4.1,3.4,5.6l-2,1c-0.7-1.5-2.2-4-3.3-5.8L412.4,82.2z M414.5,112.1v2.5h-2.1v-13.2h17.4v10.7H414.5z
	 M414.5,103.3v6.8h13.2v-6.8H414.5z"/>
</svg>
