<svg enable-background="new 0 0 20 20" viewBox="0 0 20 20" xmlns="http://www.w3.org/2000/svg"><path d="m7.2 5.7c-1.2 0-2.2 1-2.2 2.2v5.5c0 1.2 1 2.2 2.2 2.2h4.3l-3.3-9.9z" fill="#d1cebd"/><path d="m14 13.3v-5.4c0-1.2-1-2.2-2.2-2.2h-3.6l3.3 9.8h.4c1.2 0 2.1-1 2.1-2.2z" fill="#e8e6d9"/><path d="m12.7 7.4h-3.9l.4 1.1h3.5z" fill="#c6c2af"/><path d="m6.4 7.4v1.1h2.8l-.4-1.1z" fill="#afaa94"/><path d="m6.4 10.1v1h3.7l-.4-1z" fill="#afaa94"/><path d="m12.7 10.1h-3l.4 1h2.6z" fill="#c6c2af"/><path d="m12.7 13.8v-1.1h-2.1l.3 1.1z" fill="#c6c2af"/><path d="m10.6 12.7h-4.2v1.1h4.5z" fill="#afaa94"/><path d="m16.1 6.8c0-1.5-1.2-2.8-2.8-2.8-.2 0-.5 0-.7.1l1.8 5.3c1-.5 1.7-1.5 1.7-2.6z" fill="#efda48"/><path d="m12.6 4.1c-1.2.3-2.1 1.4-2.1 2.7 0 1.5 1.2 2.8 2.8 2.8.4 0 .7-.1 1-.2z" fill="#dbc43b"/><path d="m16.6 4.4-3.5 3.5-1.8-1.7" fill="none" stroke="#444" stroke-miterlimit="10" stroke-width=".7698"/></svg>