<svg enable-background="new 0 0 143 48" viewBox="0 0 143 48" xmlns="http://www.w3.org/2000/svg"><g fill="#717071"><path d="m11.14 21.2c-.74.79-1.62 1.48-2.73 2.04-1.48.92-2.77 1.57-3.98 1.94-.56.19-1.02.28-1.29.28-.46 0-.83-.18-1.11-.6-.28-.37-.37-.88-.37-1.57 0-.56.46-1.02 1.29-1.34s1.53-.55 1.99-.74c1.02-.37 2.31-.92 3.88-1.71.56-.28 1.02-.46 1.34-.56.28-.05.51-.09.74-.09.46 0 .74.14.88.42.05.19.09.42.09.65.01.26-.27.68-.73 1.28zm1.16 7.12c-1.29 3.24-2.77 6.01-4.53 8.23-1.11 1.43-2.04 2.4-2.77 2.87-.46.09-.88.14-1.2.14-.88 0-1.39-.56-1.57-1.57 0-.42.05-.74.23-1.02.19-.55.6-1.16 1.34-1.8.83-.74 1.53-1.43 2.08-2.04 1.29-1.53 2.87-3.75 4.72-6.71.65-.6 1.16-.97 1.48-1.06.56.09.88.42.97.97-.01.56-.29 1.2-.75 1.99zm-7.73-18.22c.05-.92.56-1.48 1.57-1.66l6.47 1.62c.74.19 1.15.51 1.15.97-.14 1.11-1.34 1.62-3.56 1.62-1.11 0-2.63-.19-4.62-.65-.68-.23-1.01-.88-1.01-1.9zm24.14-5.13c.37 1.11.56 2.96.6 5.6v.79c1.39-.42 2.91-.83 4.58-1.3 2.41-.74 4.12-1.11 5.18-1.11.28 0 .51.05.79.09.6.37.92.88.92 1.57 0 2.54-2.17 5.97-6.52 10.27-.56.51-1.06.97-1.57 1.39-.56.42-1.02.6-1.34.6-.37 0-.69-.18-.97-.6-.23-.23-.33-.51-.33-.78 0-.37.23-.79.79-1.16 2.22-2.59 4.21-5.23 5.87-7.95-1.25.23-3.79 1.02-7.58 2.36-.18 1.71-.46 3.24-.74 4.63-.56 2.5-1.16 4.76-1.85 6.8-1.39 4.16-3.1 8.05-5.13 11.56-1.57 2.59-2.87 4.39-3.79 5.5-.42.37-.83.6-1.25.6-.46 0-.83-.14-1.06-.42-.28-.28-.37-.56-.37-.92 0-.37.23-.88.74-1.53 3.15-4.67 5.69-9.76 7.72-15.26.79-2.13 1.43-4.39 1.99-6.84.18-.92.32-1.9.46-2.91-.83.32-1.71.65-2.64.97-.55.19-1.02.28-1.39.28-.46 0-.83-.09-1.11-.37-.37-.37-.56-.83-.6-1.48 0-.37.18-.65.65-.92.37-.28.88-.56 1.43-.79 1.06-.37 2.31-.78 3.79-1.25-.05-2.17-.23-3.98-.51-5.46-.09-.19-.14-.56-.14-1.11 0-.79.42-1.3 1.15-1.53.28-.09.65-.14 1.11-.14.43.08.8.35 1.12.82zm-9.34 17.89c-.18 1.11-.37 2.08-.6 3.01-.14.65-.28 1.11-.42 1.39-.32.46-.83.74-1.48.74-.74-.09-1.11-.46-1.11-1.11 0-.37.05-.93.19-1.57.14-1.02.28-2.17.42-3.38.05-.88.09-1.76.09-2.59 0-1.85-.28-3.33-.83-4.44-.37-.56-.51-1.02-.51-1.3 0-.65.19-1.16.56-1.53.19-.19.55-.32 1.06-.37.42 0 .74.14 1.02.37.28.32.56.69.83 1.16.74 1.39 1.11 3.19 1.11 5.36-.01 1.26-.14 2.69-.33 4.26zm22.38 21c-1.57.88-3.61 1.34-6.2 1.43-.83 0-1.62-.09-2.31-.18-3.01-.46-5.04-2.03-6.06-4.81-.46-1.34-.65-2.87-.65-4.53 0-1.34 0-2.68.09-4.02.14-2.22.28-3.74.42-4.62.23-.56.7-.88 1.34-.88.83 0 1.29.46 1.29 1.29-.09 2.5-.18 4.35-.23 5.55v3.01c0 2.31.65 3.93 1.94 4.99 1.11.69 2.5 1.06 4.16 1.06 2.4-.09 4.16-.56 5.27-1.48.46-.65.74-1.43.74-2.36 0-.88-.09-2.04-.18-3.42-.09-.37-.09-.74-.09-1.11.14-.74.65-1.11 1.48-1.11.28.05.51.18.74.46.19.37.32.83.51 1.43.32 1.25.51 2.54.51 3.84.01 2.45-.92 4.26-2.77 5.46z"/><path d="m62.18 31.47c-1.8 2.59-3.93 4.81-6.33 6.61-1.57 1.11-2.87 1.85-3.93 2.22-.46.09-.88.19-1.2.19-.88 0-1.39-.56-1.57-1.57 0-.46.05-.79.23-1.06.23-.37.83-.83 1.85-1.39 1.11-.55 2.08-1.06 2.82-1.57 1.76-1.2 3.89-2.96 6.38-5.32.65-.56 1.16-.88 1.53-.97.56.05.83.32.92.88-.01.54-.24 1.19-.7 1.98zm-1.11-9.71c-.92.74-2.13 1.39-3.51 1.94-1.85.88-3.56 1.48-5.09 1.8-.6.19-1.02.28-1.29.28-.46 0-.83-.18-1.11-.6-.28-.37-.37-.88-.37-1.53 0-.6.46-1.06 1.29-1.39 1.11-.28 1.94-.51 2.5-.69 1.34-.37 2.96-.88 4.85-1.57.79-.28 1.39-.46 1.8-.55.23-.05.46-.09.69-.09.42 0 .74.14.93.42.05.23.09.46.09.69.01.27-.27.68-.78 1.29zm-9.16-10.23c.05-.78.51-1.25 1.34-1.39l9.2 2.4c.74.14 1.11.42 1.11.88-.14.97-1.2 1.43-3.24 1.43-1.8 0-4.35-.55-7.58-1.71-.55-.17-.83-.73-.83-1.61zm13.69 20.07c-.23 0-.46-.09-.7-.32-.42-.42-.6-.88-.6-1.39 0-.28.14-.69.42-1.25.6-1.16.92-2.36.92-3.61 0-.55 0-1.3.05-2.22 0-.28.14-.56.37-.74.32-.32.92-.51 1.8-.51.19 0 .37.09.51.19 3.19-1.11 6.57-2.17 10.17-3.1 5.23-1.43 8.74-2.17 10.54-2.17h.65c.69 0 1.34.14 1.9.42.65.42.97 1.02.97 1.76 0 .92-.56 2.13-1.62 3.61-.78 1.11-1.71 2.27-2.82 3.38-.46.46-.92.69-1.3.69h-.46c-.69 0-1.02-.28-1.02-.74 0-.23.09-.42.28-.6 1.53-2.4 2.68-4.35 3.47-5.74-2.4 0-8.69 1.71-18.96 5.09-.56.19-1.02.28-1.29.28-.09 1.2-.32 2.31-.65 3.38-.42 1.11-.88 2.08-1.43 2.91-.37.45-.78.68-1.2.68zm15.22-19.05c.42-.83.79-1.71 1.16-2.68 0-.09.05-.19.09-.28-3.47.55-7.54 1.29-12.16 2.22-.37 0-.74-.28-1.06-.83-.18-.28-.32-.56-.32-.92 0-.46.28-.78.88-.97 2.17-.51 5.83-1.16 10.91-1.89.83-.09 1.62-.14 2.36-.23.05-.42.09-.79.09-1.16 0-.83-.88-1.25-2.59-1.3-1.85 0-4.39.09-7.63.19-.97 0-1.43-.46-1.43-1.48 0-.83.37-1.34 1.16-1.62 2.04-.19 4.44-.32 7.26-.32 2.77 0 4.72.69 5.83 1.99.42.56.65 1.3.65 2.13 0 .46-.05.88-.09 1.25 1.3-.09 2.27-.14 2.91-.14.28 0 .6.09.88.28.28.28.42.56.42.92 0 .46-.18.79-.46.97-1.25.09-2.68.23-4.26.42-.18.6-.32 1.16-.51 1.67-.19.55-.42 1.06-.6 1.53.09.18.23.32.32.42.09.19.14.37.23.55 0 .51-.19.92-.56 1.2-1.67 1.06-4.39 2.17-8.28 3.37-1.43.37-2.73.56-3.93.65-.55 0-1.02-.19-1.43-.6-.37-.37-.56-.83-.56-1.3 0-.78.28-1.25.92-1.39 1.29-.09 2.68-.28 4.21-.55 1.85-.37 3.51-.83 4.99-1.34.13-.3.32-.53.6-.76zm1.85 19.24c-.83 1.76-1.8 3.56-2.96 5.36-.23.37-.46.65-.65.92.37.28.74.56 1.11.83 3.24 2.26 6.38 3.93 9.43 5.04.55.18 1.16.42 1.71.65.83.37 1.3.79 1.3 1.34-.09.46-.46.79-1.11.93-.37.05-.92.09-1.62.09-.74-.09-1.62-.23-2.54-.51-1.76-.46-3.51-1.2-5.36-2.27-1.67-.92-3.38-1.99-5.04-3.23-.74.92-1.48 1.8-2.22 2.54-1.02 1.11-1.99 1.99-2.91 2.68-.65.42-1.15.65-1.62.65-.37 0-.65-.14-.83-.37-.23-.18-.32-.46-.32-.78 0-.33.23-.7.69-1.16.97-.83 1.94-1.76 2.96-2.82.6-.74 1.25-1.57 1.99-2.5-1.48-1.11-2.96-2.36-4.49-3.75-.37-.37-.56-.74-.65-1.02 0-.56.18-1.02.6-1.43.23-.37.6-.56 1.11-.56.46 0 .78.09 1.02.28.28.18.65.42 1.11.74.97.79 2.04 1.62 3.14 2.54.05.09.09.18.19.18.09-.18.23-.32.32-.46 1.9-3.24 3.15-6.06 3.7-8.46-2.22.74-4.62 1.53-7.17 2.4-.42.28-.74.37-.97.37-.37 0-.65-.14-.92-.51-.28-.28-.37-.65-.37-1.11s.18-.88.56-1.25c.55-.37 1.99-.92 4.3-1.67 2.64-.83 4.26-1.29 4.9-1.29h.65c.6 0 1.16.28 1.67.83.46.46.69 1.11.69 1.99-.02 1.18-.48 2.75-1.4 4.79z"/><path d="m106.28 28.18c-.56 1.34-1.25 2.91-1.99 4.76-.56 1.02-1.02 1.94-1.39 2.73-.42.92-.79 1.53-1.16 1.8-.32.23-.74.32-1.2.32-.65-.05-1.02-.46-1.11-1.25 0-.51.09-.92.37-1.3.23-.51.51-1.06.79-1.66.55-1.2 1.16-2.54 1.8-4.07.42-1.2.88-2.54 1.34-4.02.56-1.76.97-3.42 1.2-4.99.19-1.11.28-2.17.33-3.1-1.02.42-1.99.79-2.91 1.06-.65.23-1.11.37-1.39.42-.69.09-1.29.09-1.8.09-.88 0-1.39-.6-1.53-1.9 0-.51.42-1.02 1.29-1.48.56-.19 1.2-.42 2.04-.65 2.5-.7 4.95-1.48 7.26-2.36 3.38-1.25 6.01-2.36 7.91-3.28.46 0 .79.18.97.56.09.14.14.28.14.46 0 .46-.23.92-.65 1.43-1.02 1.2-3.61 2.64-7.77 4.35-.09.05-.14.05-.14.05.05.28.09.51.09.78 0 .74-.05 1.53-.14 2.27.56.05 1.16.23 1.71.51 1.02.6 1.89 1.29 2.59 2.13.6.6 1.11 1.39 1.57 2.4.46 1.11.69 2.31.69 3.51 0 3.51-.74 6.98-2.17 10.31-1.39 2.96-2.96 5.41-4.72 7.4-.65.51-1.2.79-1.67.79-.6 0-1.16-.19-1.62-.46-.32-.37-.46-.83-.46-1.34 0-.28.19-.65.6-1.06 2.03-1.9 3.65-4.12 4.95-6.66 1.16-2.59 1.76-5.6 1.76-9.06 0-1.2-.51-2.31-1.48-3.42-.65-.69-1.43-1.29-2.36-1.8-.49 2.12-1.09 4.07-1.74 5.73zm-3-21.78c-.88-.28-1.3-.97-1.3-2.08 0-.65.7-1.11 2.08-1.34 1.25.56 2.87.79 4.86.79 1.02 0 1.94-.09 2.77-.28.7.65 1.06 1.06 1.06 1.29 0 1.3-1.43 2.08-4.3 2.27-2.4 0-4.11-.19-5.17-.65zm33.06 12.44-4.62-3.65c-1.43-1.2-2.96-2.59-4.58-4.07-.18-.14-.32-.28-.42-.37-.42.69-.88 1.39-1.34 2.03-1.3 1.99-2.73 4.07-4.26 6.24-.83 1.29-1.8 2.82-2.82 4.49-.51.65-.97.92-1.43.92-.88 0-1.34-.42-1.43-1.3 0-.46.14-.88.51-1.34.51-.83 1.16-1.9 1.94-3.28.92-1.67 2.17-3.79 3.75-6.38 1.2-2.13 2.5-4.35 3.88-6.66.42-.79.83-1.62 1.2-2.5.23-.37.46-.88.69-1.43.46-.14 1.11-.23 1.9-.23.83.23 1.25.74 1.25 1.48 0 .6-.19 1.25-.56 1.94-.28.83-.69 1.76-1.29 2.68-.09.14-.14.23-.19.32.28.28.51.51.79.7 1.39 1.2 3.61 3.05 6.61 5.5 1.57 1.3 2.82 2.31 3.79 3.15.28.28.56.56.83.79.37.46.6.88.65 1.34 0 1.16-.56 1.71-1.62 1.71-.23 0-.42-.05-.6-.14-.55-.27-1.43-.92-2.63-1.94zm-8.74 23.72c-1.57-1.11-3.24-2.31-4.9-3.61-.14-.32-.18-.74-.18-1.2 0-.42.14-.83.51-1.3.18-.28.51-.46.92-.55.28 0 .51.09.74.18.19.09 1.76 1.25 4.67 3.51 1.71 1.29 3.19 2.5 4.39 3.61.37.28.6.65.78 1.11 0 .09.05.23.05.42 0 .32-.19.7-.51 1.11-.28.19-.56.28-.79.28-.28 0-.6-.14-1.02-.37zm-.65-14.24c-1.11-.65-2.27-1.29-3.47-2.04-.18-.32-.23-.69-.23-1.16 0-.46.14-.88.51-1.34.19-.28.51-.46.92-.55.28 0 .51.05.7.14.18.05 1.25.74 3.28 2.08 1.25.74 2.31 1.43 3.14 2.08.32.32.6.7.79 1.16 0 .14.05.28.05.42 0 .32-.19.69-.56 1.06-.28.23-.51.32-.74.32-.28 0-.6-.14-1.02-.42z"/></g></svg>