<svg enable-background="new 0 0 486 48" viewBox="0 0 486 48" xmlns="http://www.w3.org/2000/svg"><g fill="#717071"><path d="m5.85 31.47v8.09c0 1.76-.05 3.19-.05 4.3-.09 2.03-.56 3.05-1.39 3.05s-1.34-1.02-1.43-3.01c-.14-1.3-.19-2.59-.19-3.98-.09-2.87-.19-6.52-.37-10.96-.09-3.04-.18-6.7-.32-10.86-.05-.78-.09-2.36-.09-4.76 0-.51.23-.97.79-1.43.32-.23.69-.37 1.11-.37 1.02 0 1.57.6 1.66 1.71 0 1.02.05 2.31.09 3.88 0 1.67.05 3.24.09 4.67.92.69 1.99 1.02 3.1 1.02.79 0 1.43-.42 1.9-1.29.46-.65.74-1.39.78-2.31 0-.56-1.11-1.39-3.28-2.4-.56-.19-.97-.6-1.2-1.2-.18-.37-.28-.79-.28-1.34 0-.23.23-.74.7-1.57.74-1.25 1.62-2.73 2.64-4.49.51-.88.78-1.43.78-1.71-.37-.2-1.48-.39-3.29-.66-.83-.19-1.2-.79-1.2-1.9.14-1.11.69-1.67 1.67-1.71 1.48.05 3.1.46 4.85 1.2.83.6 1.29 1.29 1.29 2.08-.09 2.04-1.43 4.95-4.11 8.74.46.14.92.28 1.48.46 1.94.83 2.96 2.04 2.96 3.56 0 .74-.05 1.39-.14 1.94-.28 1.57-.79 2.77-1.57 3.7-1.06 1.25-2.4 1.85-3.98 1.85-1.2 0-2.22-.37-3.1-1.11 0 2.04.05 4.31.1 6.81zm25.15 11.88 1.39.37c.51 0 1.43-1.67 2.77-4.95.79-2.17 1.39-3.98 1.8-5.46.65-2.59.97-4.35.97-5.27 0-1.34-.56-2.04-1.57-2.13-.42 0-1.06.05-1.89.09-.05 1.39-.28 2.87-.65 4.49-.83 2.68-1.8 5.04-2.96 7.17-.83 1.39-1.8 3.05-2.91 4.99-.74 1.11-1.43 2.08-1.99 3.01-.65.88-1.25 1.48-1.71 1.85-.23.18-.55.28-.92.28-.6-.09-.92-.42-.97-.97 0-.46.09-.78.37-1.06.37-.56.74-1.2 1.2-1.85.88-1.3 1.8-2.78 2.73-4.35.74-1.3 1.43-2.77 2.13-4.39.83-1.94 1.43-3.79 1.9-5.55.28-1.2.46-2.36.56-3.37-.88.09-1.8.14-2.77.23-.05.83-.19 1.66-.46 2.54-.55 1.71-1.2 3.28-2.03 4.67-.56.97-1.25 2.08-2.04 3.28-.51.74-.97 1.39-1.43 1.94-.46.56-.83.92-1.15 1.2-.23.18-.56.32-.97.32-.56-.09-.83-.42-.88-.97 0-.46.09-.79.32-1.11.19-.37.46-.74.79-1.16.6-.83 1.2-1.76 1.8-2.77.46-.83.97-1.76 1.48-2.82.55-1.2.97-2.36 1.25-3.47.09-.46.19-.92.23-1.39-.55.09-1.06.14-1.57.14-.32.05-.6.05-.83.05-.19.28-.32.51-.51.7-.6.83-1.34 1.85-2.26 2.96-.56.6-1.06 1.15-1.53 1.66-.46.56-.93.92-1.34 1.11-.28.23-.6.32-1.02.32-.6-.05-.93-.42-.97-1.06 0-.46.09-.83.32-1.15.23-.28.56-.6.92-.97.65-.74 1.3-1.53 1.99-2.45.51-.74 1.02-1.57 1.57-2.5.65-1.06 1.11-2.08 1.43-3.05.05-.23.09-.42.14-.6-.37.09-.74.19-1.06.23-.88.23-1.48.37-1.85.42-.69.09-1.29.14-1.8.14-.88 0-1.39-.65-1.53-1.9 0-.55.42-1.06 1.34-1.53.51-.18 1.16-.37 1.99-.6 3.47-.74 6.89-1.53 10.27-2.4 4.76-1.2 8.46-2.27 11.1-3.24.42 0 .74.19.92.46.05.14.09.28.09.46 0 .46-.23.88-.65 1.3-1.39 1.25-4.95 2.73-10.77 4.44-1.53.46-3.01.88-4.39 1.25-.05.79-.23 1.62-.55 2.54 1.11-.09 2.5-.18 4.21-.28 3.93-.19 6.52-.33 7.72-.33 1.25 0 2.22.23 2.91.65.88.6 1.39 1.43 1.57 2.45 0 1.39-.09 2.5-.19 3.42-.32 2.64-.79 5.09-1.43 7.31-.51 1.9-1.06 3.51-1.62 4.9-.7 1.71-1.43 3.1-2.27 4.16-.83 1.02-1.94 1.57-3.42 1.57-1.16-.19-1.99-.56-2.45-1.11-.46-.32-.74-.74-.74-1.25-.02-1.05.58-1.61 1.87-1.61zm-3-29.59c-2.08.69-4.07 1.2-5.97 1.57-.23.19-.42.23-.51.23-.28 0-.56-.14-.83-.51-.18-.28-.28-.69-.28-1.25 0-.37.23-.65.7-.83.14-.05.28-.09.37-.14-.05-.05-.05-.09-.05-.19-.09-1.16-.37-2.54-.83-4.21-.74-2.45-1.39-4.43-1.94-6.01.05-.32.23-.65.51-1.02.32-.37.7-.6 1.06-.6.37 0 .69.05.97.09.28.19.51.37.69.56.83-.28 1.81-.56 2.87-.79 1.48-.28 3.05-.42 4.67-.42 1.34 0 2.54.28 3.56.79.83.37 1.48 1.02 1.85 1.85.28.65.46 1.39.46 2.17-.09 1.11-.37 2.22-.83 3.28-.46.97-1.02 1.9-1.71 2.78-.09.28-.18.51-.37.74-.23.09-.42.19-.6.28-.37.32-.69.51-.97.51-.88.37-1.81.74-2.82 1.12zm3.84-9.07c0-.97-.69-1.48-1.99-1.48-2.13 0-4.39.46-6.89 1.29.09.6.23 1.25.42 1.99.05.28.09.51.14.65 1.53-.42 3.79-.92 6.84-1.48.56-.09 1.06-.14 1.43-.18 0-.28.05-.56.05-.79zm-7.63 7.54h.09c1.99-.46 3.84-.97 5.5-1.53.14-.05.28-.09.42-.14.55-1.11.97-2.13 1.2-3.15-1.57.42-3.56.92-5.92 1.48-.65.19-1.2.32-1.62.42.19 1.2.32 2.08.32 2.59v.33z"/><path d="m75.11 18.47c-.28.28-.51.56-.78.78 4.62-1.2 8.32-2.26 11.14-3.28.46 0 .74.19.92.56.09.19.14.32.14.46 0 .46-.23.97-.65 1.43-2.03 1.57-7.12 3.42-15.35 5.55 0 .28-.05.6-.09.88h.09c.51.05 1.02.37 1.57 1.02.65 1.02 1.02 2.59 1.02 4.67v3.42c0 3.79 1.02 6.47 3.1 8.23 1.48 1.2 3.19 1.85 5.09 1.85 2.04-.09 3.75-.74 5.09-2.04.74-.88 1.16-1.94 1.16-3.14 0-.65-.09-1.53-.18-2.64 0-.28 0-.51.05-.7.18-.51.51-.78.97-.88.92 0 1.57.56 1.85 1.67.14.97.23 2.13.23 3.51-.05 1.39-.42 2.59-1.06 3.61-.92 1.39-2.54 2.5-4.76 3.24-1.29.42-2.82.65-4.58.65-1.94 0-3.56-.37-4.9-1.11-1.76-1.02-3.14-2.68-4.16-4.95-.65-1.76-1.11-3.84-1.29-6.34-.09-1.25-.14-2.73-.14-4.39-.09-.83-.14-1.66-.14-2.54-.05.09-.09.18-.09.28-.74 2.13-2.13 4.85-4.07 8.28-1.16 2.04-2.22 3.84-3.19 5.5-.69 1.11-1.39 2.27-2.04 3.38-.78 1.02-1.39 1.8-1.85 2.31-.46.32-.92.51-1.39.51-.37-.18-.51-.42-.51-.74 0-.28.09-.7.28-1.16.09-.55.37-1.2.83-1.94.56-1.16 1.3-2.54 2.27-4.21 1.39-2.31 2.77-4.85 4.16-7.54.83-1.67 1.57-3.38 2.27-5.13.37-.92.65-1.85.88-2.68-3.33.79-6.52 1.53-9.53 2.22-1.25.28-2.13.42-2.68.46-.65.09-1.25.14-1.8.14-.88 0-1.39-.65-1.53-1.9 0-.51.42-1.02 1.34-1.48.51-.18 1.16-.42 1.99-.65 4.44-.83 8.79-1.76 12.95-2.77.88-.51 1.71-1.11 2.54-1.8 2.04-1.67 3.65-3.61 4.76-5.92.65-1.48 1.02-2.73 1.02-3.65 0-.65-.09-1.2-.28-1.66-.09-.6-.09-1.06-.09-1.34 0-1.16.46-1.85 1.43-2.04h.42c.32.05.6.19.88.42.6.46.92 1.29.97 2.5v1.06c-.03 3.74-1.46 7.07-4.28 10.03zm-10.22.74c-1.02-.09-2.22-.88-3.56-2.36-.56-.69-1.2-1.53-1.94-2.54-.46-.65-.88-1.34-1.2-2.04-.09-.19-.14-.51-.14-.97s.14-.83.46-1.15c.32-.37.79-.6 1.39-.6.28 0 .55.05.78.09.28.18.7.65 1.3 1.34.42.65.88 1.34 1.34 2.17.42.83.83 1.57 1.25 2.17.28.6.65 1.02 1.06 1.29.19.19.42.32.65.42.19.14.32.46.32.92-.05.74-.46 1.16-1.2 1.25h-.51zm4.85-17.25c.28 1.43.46 3.19.6 5.32.09 1.8.14 3.19.14 4.12 0 1.29-.09 2.54-.19 3.65-.09 1.25-.28 2.17-.46 2.77-.28 1.06-.78 1.57-1.53 1.57-.88 0-1.29-.42-1.29-1.25.05-.46.19-1.06.37-1.9.05-1.34.09-2.45.09-3.38 0-1.57-.18-3.65-.55-6.34-.19-.97-.33-1.9-.42-2.77-.28-.74-.37-1.2-.37-1.48 0-.56.23-1.02.79-1.43.37-.19.78-.32 1.29-.32.7.01 1.21.52 1.53 1.44z"/><path d="m136.27 38.63c-.18.92-.46 1.85-.74 2.73 3.05-.37 5.83-.51 8.32-.51 3.61 0 6.33.19 8.23.6 1.06.23 1.62.74 1.62 1.53 0 .93-.51 1.48-1.48 1.67-.65-.09-1.76-.23-3.28-.42-1.34-.14-3.15-.19-5.46-.19-3.84 0-8 .42-12.53 1.25-3.93.74-7.44 1.67-10.5 2.78-.56 0-.92.05-1.16.05-.42 0-.79-.19-1.11-.56s-.51-.79-.56-1.2c0-.88.56-1.48 1.71-1.8 2.22-.83 4.81-1.48 7.72-2.04 1.85-.42 3.61-.69 5.27-.83 0-.19.05-.37.14-.56.28-1.11.51-2.22.69-3.42.14-.92.23-1.76.23-2.59 0-1.25-.14-2.27-.37-3.05-.09-.09-.09-.19-.09-.28-1.39.46-2.64.92-3.84 1.29-.65.19-1.06.28-1.29.32-.74.14-1.34.19-1.85.19-.88-.05-1.39-.7-1.53-1.99 0-.51.46-1.02 1.39-1.48.46-.19 1.16-.37 1.99-.65 2.4-.65 4.81-1.34 7.12-2.13 3.33-1.11 5.87-2.13 7.72-2.96.51 0 .88.23 1.11.65.05.14.09.32.09.51 0 .51-.28 1.02-.74 1.57-.92 1.02-3.19 2.22-6.84 3.51.05.09.09.18.19.23.19.92.32 2.08.32 3.47.02 1.26-.17 2.69-.49 4.31zm-6.94-21.41c-.05.74-.37 1.67-.97 2.87-1.11 2.64-2.96 5.97-5.46 9.99-.69 1.2-1.34 2.04-1.99 2.59-.28.14-.55.18-.92.18-.74-.05-1.11-.46-1.11-1.25 0-.19.09-.51.37-.88.65-1.57 1.89-3.84 3.65-6.8 1.48-2.87 2.73-5.32 3.65-7.31.46-.46.88-.74 1.29-.74.94.01 1.4.47 1.49 1.35zm-4.3-7.12c3.1-1.25 7.68-2.77 13.69-4.53 2.87-.92 4.85-1.43 6.06-1.43.37 0 .65.05.92.14.7.28 1.06.78 1.06 1.53 0 2.13-1.9 4.99-5.64 8.65-.46.46-.88.83-1.34 1.2-.56.42-.97.6-1.34.6-.42 0-.74-.18-.92-.6-.23-.28-.33-.51-.33-.79 0-.37.23-.78.7-1.15 1.57-1.94 2.96-3.98 4.16-6.06-2.08.46-7.4 2.45-15.95 5.87-.51.28-.92.42-1.29.42-.05.83-.14 1.76-.33 2.78-.18.78-.37 1.57-.65 2.31-.18.46-.37.83-.56 1.11-.32.46-.83.7-1.48.7-.74-.05-1.06-.42-1.06-1.16 0-.28.05-.6.18-1.06.19-.83.33-1.67.46-2.59.05-.65.09-1.29.09-1.94 0-1.25-.18-2.27-.51-3.05-.23-.32-.32-.6-.32-.83 0-.7.18-1.2.6-1.57.23-.18.6-.32 1.06-.37.46 0 .83.14 1.11.37.32.28.6.7.83 1.25.05.18.09.32.18.46.21-.07.39-.17.62-.26zm6.11-8.97c.79.23 1.62.51 2.5.83 1.02.37 1.67.65 2.04.88.19.46.32.97.32 1.57-.09.6-.32 1.02-.69 1.2h-.28c-.19 0-.51-.05-.92-.14-1.48-.37-2.68-.65-3.65-.88-1.02-.14-1.94-.32-2.82-.56-.65-.23-.97-.88-.97-1.94.18-.92.83-1.39 1.9-1.48.53.01 1.41.2 2.57.52zm12.48 18.45c1.62 1.11 3.56 2.27 5.83 3.47.79.37 1.66.74 2.59 1.02.28.23.46.55.46.92-.09.65-.42 1.06-1.02 1.29-.19.09-.42.09-.65.09-.46 0-.88-.05-1.3-.14-1.2-.28-2.77-.88-4.72-1.8-.69-.32-2.31-1.25-4.85-2.73-1.71-.88-3.28-1.76-4.67-2.64-.32-.28-.46-.7-.46-1.2 0-.56.23-1.02.7-1.34.28-.19.65-.28 1.16-.28.28.05.6.09.97.19 1.01.33 3 1.39 5.96 3.15z"/><path d="m187.63 30.17c-.97 1.11-3.28 2.4-6.98 3.84v1.34c0 1.99-.09 3.84-.23 5.6-.09 1.94-.32 3.42-.65 4.35-.23 1.02-.74 1.57-1.53 1.57-.88 0-1.29-.42-1.29-1.25.14-.78.32-1.85.56-3.19.09-2.08.18-3.7.18-4.99-.18.23-.42.46-.6.69-1.76 2.17-3.93 4.44-6.61 6.75-.69.56-1.34 1.06-1.9 1.48-.46.37-.88.6-1.29.6-.65-.05-1.02-.42-1.06-1.06 0-.55.19-1.02.6-1.43 2.68-2.03 5.5-4.85 8.46-8.46-.79.32-1.57.6-2.31.83-.65.18-1.06.28-1.34.32-.65.14-1.16.18-1.62.18-.83-.05-1.34-.6-1.43-1.71 0-.51.42-.97 1.25-1.39.42-.19 1.02-.37 1.8-.6 2.04-.55 4.02-1.2 5.97-1.85-.05-1.11-.09-2.27-.09-3.47-.09-1.34-.14-2.64-.19-3.84-.19-.65-.28-1.11-.28-1.34 0-.51.23-.97.74-1.34.32-.23.69-.37 1.15-.37.7 0 1.2.46 1.48 1.34.09 1.9.14 4.21.19 6.89 1.2-1.39 2.08-2.82 2.54-4.35.18-.6.32-1.16.32-1.67v-.79c.23-.6.65-.92 1.29-1.02 1.11 0 1.76.69 1.85 1.99v.51c-.18 1.76-1.43 3.61-3.79 5.55 1.76-.69 3.24-1.34 4.44-1.9.37 0 .69.18.92.46.05.14.09.28.09.46.01.39-.22.81-.64 1.27zm-19.28-10.5c.56-.14 1.2-.28 1.85-.42 3.61-.83 7.03-1.71 10.31-2.73 4.49-1.39 8.46-3.01 11.93-4.76 1.29 0 1.99.37 2.08 1.06-.88 1.48-1.67 3.98-2.4 7.44-.19 1.53-.28 3.19-.28 4.95.19 8.33 3.01 14.06 8.46 17.34.23-.46.51-1.71.88-3.7.05-.93.55-1.43 1.48-1.43.69.09 1.16.46 1.39 1.2 0 1.29-.23 2.77-.6 4.44-.56 2.68-1.34 4.07-2.36 4.07-1.39-.05-3.1-1.02-5.13-2.87-2.4-2.36-4.3-5.36-5.69-9.11-1.11-2.96-1.67-6.33-1.67-10.13 0-1.34.09-2.64.32-3.88.23-2.03.6-3.79 1.06-5.23-5.04 2.4-11.24 4.53-18.64 6.43-1.02.28-1.9.46-2.64.51-.69-.09-1.11-.55-1.29-1.48.01-.77.29-1.33.94-1.7zm6.66 11.7c-.18.19-.42.23-.69.23-.32 0-.6-.05-.79-.14-.23-.09-.46-.33-.74-.6-1.39-1.34-2.27-2.5-2.73-3.51-.05-.09-.05-.19-.05-.28 0-.28.14-.6.32-.88.09-.23.37-.46.79-.65.19-.05.46-.09.74-.09.46.05.88.37 1.25.92.37.7.78 1.39 1.25 2.13.46.92.79 1.53.97 1.85v.32c0 .29-.14.52-.32.7zm12.57-20.9c-.83.74-2.96 1.66-6.29 2.73-1.94.56-3.7 1.06-5.27 1.53-.56.14-.93.23-1.11.23-.6.09-1.16.09-1.67.09-.83 0-1.34-.6-1.43-1.76 0-.46.42-.92 1.25-1.39.51-.18 1.11-.37 1.85-.6 2.04-.37 3.98-.83 5.92-1.29 2.68-.69 4.81-1.29 6.38-1.8.42 0 .74.19.97.46.05.09.09.23.09.42.01.46-.22.92-.69 1.38zm-3.28-4.44c-3.1 1.02-5.6 1.62-7.49 1.8h-.6c-.69 0-1.2-.09-1.48-.37-.6-.37-.88-.97-.88-1.76 0-.55.05-1.2.23-1.99.19-.6.42-1.16.69-1.71.23-.83.74-1.25 1.48-1.34h.28c1.02.19 1.53.74 1.53 1.71-.55 1.06-.78 1.76-.78 2.08.69 0 2.36-.32 4.99-.97 1.39-.32 2.82-.74 4.3-1.29.83-.28 1.43-.42 1.71-.42.6.14.92.51 1.02 1.06 0 .46-.14.88-.42 1.16-1.07.75-2.59 1.39-4.58 2.04zm-.88 28.95c.23.09.46.19.65.28 1.29.7 3.28 2.5 5.96 5.46.65.74 1.02 1.43 1.11 1.99 0 .88-.37 1.34-1.11 1.34-.37 0-.79-.23-1.25-.69-.56-.46-1.3-1.11-2.22-1.9-1.48-1.43-3.1-2.73-4.85-3.93-.19-.23-.23-.46-.23-.74v-.42c.05-.37.23-.74.6-1.06.19-.18.46-.28.79-.37.18-.01.37.04.55.04z"/><path d="m239.17 27.26c2.36-2.36 4.76-4.62 7.26-6.75.09-.09.14-.14.23-.23-.09-2.08-.23-4.12-.37-6.06-.18-1.94-.42-3.84-.78-5.73-.23-.69-.32-1.25-.32-1.67.18-1.06.88-1.62 1.99-1.62.79.09 1.39.6 1.76 1.62.19.74.42 1.57.6 2.5.19 2.26.28 4.99.37 8.23 2.82-2.31 5.78-4.39 8.83-6.33.33-.19.51-.28.6-.28h.05c.1 0 .19-.05.28-.09.46 0 .88.37 1.34 1.06.28.46.46 1.06.46 1.76-.18 1.43-.28 2.91-.28 4.49 0 2.87.37 4.99 1.16 6.38.56.88 1.25 1.85 2.13 2.96.74.92 1.39 1.76 1.94 2.4.56.74.83 1.57.83 2.5 0 .65-.23 1.39-.65 2.13-1.16 1.94-2.41 3.56-3.75 4.95-.6.65-1.06 1.11-1.34 1.29-.46.28-.83.42-1.11.42-.6-.09-.88-.51-.88-1.25 0-.18.23-.51.65-.92 1.66-2.13 2.77-3.65 3.33-4.58.28-.6.46-1.16.46-1.67 0-.6-.42-1.34-1.2-2.27-.74-.74-1.48-1.53-2.13-2.4-.92-1.11-1.62-2.54-2.03-4.3-.42-1.57-.6-3.42-.6-5.55 0-.92 0-1.9.05-2.96-1.99 1.39-4.16 3.05-6.47 4.9-.56.46-1.11.88-1.62 1.34v1.02c0 10.36-.05 17.06-.09 20.12-.09 1.34-.6 2.04-1.53 2.04-1.85 0-3.42-.92-4.72-2.73-.18-.28-.32-.56-.42-.83 0-.97.37-1.48 1.16-1.53.83.23 1.76.65 2.73 1.2 0-2.04-.05-4.16-.09-6.43 0-3.51-.09-6.89-.19-10.13-3.56 3.19-7.35 6.98-11.33 11.38-.28.23-.6.37-.97.37-.56-.19-1.02-.46-1.39-.92-.23-.19-.32-.46-.32-.74 0-.37.14-.97.46-1.8.83-2.5 1.34-4.21 1.48-5.04 0-1.71-.46-2.59-1.34-2.59-.19 0-.51.14-1.02.37-.42.37-.74.51-1.02.51s-.56-.09-.79-.32-.37-.56-.37-.97c0-.51.19-.97.6-1.39.65-.46 1.25-.88 1.9-1.2.83-.37 1.48-.6 1.94-.6 1.25 0 2.17.74 2.82 2.22.28 1.02.46 1.99.51 3.01 0 .83-.05 1.57-.14 2.26.42-.49.88-1 1.34-1.55z"/><path d="m302.88 14.68c1.57 0 2.77.32 3.7.88 1.39.92 2.17 2.77 2.36 5.55l.6 16.65.23 2.82c0 .88-.83 1.34-2.4 1.43-1.29 0-2.78-.42-4.44-1.16-.93.28-2.08.6-3.47.97-.69.09-1.34.14-1.95.18-.05.23-.14.42-.23.6-.37.32-.74.51-1.11.51s-.69-.14-.92-.37c-.23-.28-.37-.74-.46-1.34-.09-1.57-.09-3.75-.09-6.52 0-3.01 0-5.73.09-8.14.05-2.5.14-5.18.23-8.05 0-1.39.05-2.96.05-4.62-.05-.28-.09-.56-.14-.92-.05-.09-.05-.23-.05-.42-.18.09-.32.09-.42.09-.97 0-1.43-.6-1.43-1.85 0-.88.46-1.39 1.39-1.53 1.02 0 4.02-.92 9.11-2.82.88 0 1.39.23 1.48.65 0 .28-.05.51-.05.74-.18.42-.42.7-.78.88-.79.74-1.85 1.39-3.15 1.94-1.06.46-2.08.88-3.05 1.16.28.55.42 1.2.42 1.99 0 .46-.05.97-.05 1.53 1.8-.51 3.33-.78 4.53-.83zm3.46 24.23c0-3.79-.05-7.26-.09-10.4-.46.18-.88.37-1.34.46-2.4.79-4.85 1.48-7.35 2.13 0 1.11-.05 2.4-.05 3.88 0 1.39.05 2.73.05 4.02.37 0 .78-.05 1.16-.14 1.85-.28 3.46-.7 4.85-1.16.18 0 .32-.05.51-.05.46 0 .83.23 1.01.6.09.23.14.46.23.65 0 .09-.05.18-.05.28.38-.13.75-.18 1.07-.27zm-.41-17.94c-.28-2.13-1.53-3.24-3.75-3.24-.46 0-1.29.19-2.45.55-.56.28-1.06.46-1.57.65-.05.46-.1.88-.1 1.3-.28 3.14-.41 5.55-.46 7.21v.6c2.96-.65 5.55-1.34 7.68-2.08.32-.09.6-.14.88-.23-.09-1.71-.14-3.28-.23-4.76zm23.59 2.68c.09-3.42.23-7.68.51-12.76 0-1.43-.14-2.17-.37-2.17-.28 0-1.76.51-4.35 1.43-1.85.6-3.7 1.15-5.59 1.62-1.8.46-3.33.65-4.53.65h-.6c-1.06-.09-1.8-.46-2.17-1.11-.37-.42-.51-1.06-.51-1.9 1.2-2.36 2.17-5.13 3.01-8.37.37-.46.88-.7 1.62-.7.23 0 .5.14.78.32.37.28.6.7.6 1.34 0 .42-.18 1.06-.46 1.99-1.02 2.77-1.57 4.39-1.67 4.76 2.04 0 4.86-.51 8.47-1.57 1.85-.51 3.7-1.16 5.64-1.9.51-.14.88-.23 1.16-.23.56 0 1.06.7 1.57 1.99.37.97.6 2.27.6 3.93 0 1.34-.14 3.42-.33 6.24-.23 4.95-.32 9.2-.32 12.72 0 4.99.05 10.31.18 16.14 0 .56-.37 1.11-1.06 1.62-.46.19-.88.32-1.25.37-1.43-.05-2.91-.65-4.48-1.85-1.25-1.02-2.55-2.45-3.84-4.3-.28-.42-.42-.83-.42-1.25 0-.65.28-.97.93-.97.42 0 .88.19 1.39.65 3.33 2.68 5.32 4.11 5.92 4.3-.32-3.88-.51-9.02-.51-15.58-.02-1.43-.02-3.24.08-5.41zm-6.2 6.01c-.23 0-.6-.09-1.06-.32-.6-.23-1.25-.51-1.94-.88-1.8-.78-3.47-1.71-4.99-2.82-.37-.28-.56-.42-.65-.51-.18-.28-.23-.51-.23-.79s.14-.65.42-1.06c.23-.28.51-.46.88-.56.19-.05.46-.09.74-.09.32.05.65.18.97.42.28.09.56.28.93.46 1.11.74 2.22 1.43 3.37 2.04.74.42 1.39.83 1.95 1.2.46.51.74 1.06.74 1.62 0 .74-.28 1.16-.74 1.29z"/><path d="m350.03 34.75c-.05.09-.05.18-.05.18l5.74 2.27c3.1 1.2 6.1 2.17 9.06 3.05.09-2.13.14-4.39.23-6.84-1.62.6-3.15 1.16-4.58 1.62-.83.23-1.39.37-1.71.46-.65.09-1.2.09-1.67.09-.88 0-1.39-.6-1.48-1.8 0-.46.41-.92 1.29-1.39.46-.19 1.06-.37 1.85-.6 2.17-.56 4.3-1.2 6.38-1.9v-.05l.05-3.01c-1.53.56-3.05 1.11-4.53 1.62-.55.23-1.16.37-1.71.46h-.28c-.74-.37-1.06-.88-1.06-1.57 0-.28.23-.6.65-.88.37-.19.88-.32 1.48-.51 1.99-.6 3.79-1.2 5.46-1.85l.05-2.78v-.72c-.74.28-1.53.55-2.27.83-2.54.97-3.98 1.43-4.3 1.43h-.23c-.18 0-.32-.14-.51-.32-.1-.18-.14-.42-.14-.6 0-.32.14-.6.46-.83 1.43-.93 3.74-2.04 6.98-3.33v-3.74c-1.89.69-3.74 1.39-5.55 2.08-2.08.78-3.42 1.16-4.02 1.16-.56 0-.83-.42-.83-1.25 0-.65.23-1.16.74-1.43 2.08-.83 5.31-1.99 9.66-3.37 0-1.53 0-3.1.09-4.67-1.48.19-2.96.37-4.35.65-1.06 0-1.57-.6-1.57-1.85 0-.65.37-1.11 1.2-1.48 1.43-.28 3.05-.46 4.81-.51 0-.42 0-.83.05-1.25 0-1.2.6-1.8 1.8-1.8.97.05 1.48.7 1.48 1.99-.05.42-.09.79-.09 1.06 1.71.09 3.23.32 4.62.69 2.31.69 3.66 1.85 3.98 3.47 1.39-.37 2.27-.6 2.54-.6.28 0 .65.18 1.06.55.37.46.6.74.6.93 0 .32-.23.6-.69.83-1.25.32-2.5.65-3.74 1.02-.46 1.71-1.25 3.33-2.4 4.9.09.09.23.23.32.32.19.28.33.51.33.7 0 .28-.28.56-.74.78-1.62.7-3.7 1.53-6.2 2.45v.59c0 1.11-.05 2.08-.05 3.01 1.57-.65 2.96-1.25 4.25-1.85 1.16-.55 1.94-.88 2.4-.88.23 0 .42.09.6.18.19.19.33.32.37.51 0 .32-.14.65-.42.92-.92.79-2.31 1.57-4.16 2.4-1.02.46-2.08.88-3.1 1.3 0 1.02-.05 1.94-.05 2.73v.56c4.39-1.43 7.81-2.73 10.22-3.93.37 0 .6.14.78.37.05.14.1.28.1.42 0 .37-.19.79-.56 1.2-1.3 1.48-4.58 3.19-9.94 5.13-.28.09-.55.23-.74.32-.19 3.47-.37 6.2-.65 8.14-.05.19-.1.32-.14.42 1.85.55 3.65 1.06 5.46 1.53 2.82.65 6.43 1.39 10.78 2.13.37.19.55.6.55 1.16-.1.65-.51 1.02-1.3 1.2h-.74c-3.28-.09-7.68-.83-13.13-2.22-4.44-1.11-9.3-2.64-14.57-4.49l-5.92-2.13c-.18.23-.37.46-.5.65-1.11 1.48-2.13 2.59-3.15 3.33-.46.46-1.01.7-1.57.7-.88 0-1.34-.37-1.44-1.02 0-.37.14-.74.42-1.02.37-.51.88-1.02 1.52-1.57.56-.7 1.11-1.43 1.67-2.22-1.43-.55-2.5-1.02-3.19-1.43-.28-.42-.42-.78-.42-1.11 0-.51.14-.93.46-1.2.32-.37.78-.6 1.34-.6.37 0 .74.14 1.11.37.65.18 1.48.42 2.5.78.19-.51.37-1.25.46-2.22 0-.56-.28-.97-.78-1.3-.65-.23-1.06-.46-1.34-.74-.55-.42-.78-1.06-.78-1.9 0-.74.28-1.57.83-2.5.37-.74.83-1.53 1.39-2.31.56-.69.83-1.25.83-1.62 0-.28-.41-.51-1.2-.7-.92-.18-1.48-.37-1.67-.51-.51-.23-.78-.65-.83-1.25 0-.28.18-.7.56-1.16.37-.42.93-.65 1.57-.7 1.71 0 3.05.32 4.02.97.7.55 1.06 1.25 1.06 2.08-.09 1.9-1.11 4.3-3.05 7.21 1.71 1.2 2.59 2.64 2.59 4.25.03 1.18-.24 2.3-.71 3.36zm21-19.05c.41-.09.83-.23 1.25-.37.09-.19.23-.37.37-.56.42-1.34.74-2.5 1.02-3.51-1.76.56-3.56 1.11-5.32 1.71l-.05 3.65c.83-.28 1.76-.55 2.73-.92zm2.82-7.22c.1 0 .19-.05.33-.09v-.37c-.88-.92-2.78-1.48-5.69-1.57-.09 1.25-.09 2.27-.09 3.1v.65c1.79-.56 3.6-1.16 5.45-1.72z"/><path d="m425.9 30.96c-1.62 1.25-5.46 2.68-11.51 4.3v.05c.09 1.25.14 2.5.18 3.7.05.83.09 1.62.09 2.36 0 1.53-.09 2.59-.23 3.19-.37 1.06-.97 1.89-1.8 2.45-.65.37-1.43.56-2.36.56-1.94 0-3.98-.97-6.01-2.87-.42-.32-.74-.65-1.02-.97-.46.92-.92 1.71-1.43 2.27-.33.74-.84 1.11-1.57 1.11-.83-.09-1.29-.56-1.34-1.39 0-.37.09-.7.28-.97.6-.6 1.02-1.48 1.25-2.59 0-.51.05-1.02.05-1.53 0-.55-.09-1.11-.18-1.66 0-.09 0-.19.05-.28-.51.09-.97.19-1.39.28-1.16.23-1.99.37-2.54.46-.65.09-1.25.14-1.81.14-.88-.05-1.39-.65-1.52-1.9 0-.55.42-1.06 1.34-1.53.56-.18 1.2-.42 1.99-.6 4.81-.83 9.48-1.8 13.96-2.91.05 0 .09 0 .14-.05-.05-.28-.09-.51-.14-.74-.09-.37-.18-.74-.23-1.11 0-.32.09-.69.37-1.06.42-.28.79-.46 1.11-.46.93 0 1.53.46 1.8 1.34.14.28.28.74.42 1.3 4.9-1.11 8.79-2.17 11.75-3.1.37 0 .69.19.88.51.05.09.09.23.09.37-.02.45-.25.86-.67 1.33zm-17.24-5.69c-1.39.74-3.19 1.48-5.36 2.13-2.54.83-4.95 1.48-7.26 1.9-.33.14-.56.19-.69.19-.42 0-.74-.19-1.02-.6-.23-.37-.33-.92-.33-1.62 0-.46.28-.83.79-1.06 1.52-.28 2.82-.55 3.93-.83.33-.05.65-.14.97-.23.09-.65.18-1.34.28-2.08.05-.65.09-1.2.09-1.76 0-1.02-.19-1.76-.56-2.26-.46.14-.97.23-1.44.28-.6.09-1.2.14-1.76.14h-.46c-.93-.09-1.34-.6-1.34-1.48v-.83c.14-.55.65-1.02 1.48-1.48.28.05.65.05 1.11.05 1.01 0 2.08-.14 3.28-.46 1.25-.23 2.59-.65 4.07-1.2.23-.09.42-.14.6-.23.42 0 .88.14 1.44.42.6.32.92.65.92.97 0 .37-.14.74-.42 1.15-.37.42-.78.74-1.34 1.02-.92.32-1.89.6-2.96.88.37.74.56 1.48.56 2.31 0 .88-.14 1.85-.32 2.91-.1.37-.14.7-.23.97.93-.28 1.85-.51 2.73-.74 1.11-.37 1.8-.56 2.08-.65s.46-.19.65-.19c.42.09.74.23.97.51.05.23.09.46.09.65-.04.43-.23.85-.55 1.22zm1.24-19.89c-1.57.97-3.23 1.85-4.99 2.64.32.56.74 1.25 1.2 2.04.28.42.46.79.51 1.16 0 .97-.42 1.43-1.16 1.43-.37 0-.83-.23-1.29-.74-.19-.23-.46-.55-.79-.97-.55-.56-1.06-1.06-1.57-1.62-.23.09-.46.18-.65.23-2.08.74-3.61 1.16-4.62 1.16-.84 0-1.39-.42-1.67-1.25 0-.37.18-.79.56-1.25 1.62-2.31 2.78-4.53 3.51-6.75.23-.51.78-.79 1.62-.79.92.09 1.43.65 1.43 1.76-.56 1.53-1.39 3.01-2.4 4.39 2.68-.65 5.59-1.8 8.79-3.42.37-.37.78-.55 1.25-.55.56.09.88.51.88 1.25 0 .36-.23.82-.61 1.28zm-6.1 33.58c.09.42.18.92.18 1.48.97 1.11 2.04 2.03 3.15 2.77 1.06.56 2.03.88 2.87.88.88 0 1.34-.56 1.34-1.66v-1.76c-.09-1.94-.19-3.47-.28-4.53-2.68.65-5.27 1.3-7.68 1.85.19.27.33.6.42.97zm22.06-11.56c-.78-.09-1.48-.28-2.08-.56-.79-.32-1.44-.69-1.89-1.16-.79-.74-1.16-1.62-1.16-2.64 0-2.96.23-5.78.69-8.51-1.2.14-2.36.28-3.47.46v.09c0 .79-.09 1.48-.18 2.03-.37 1.34-.79 2.64-1.25 3.84.09.09.23.19.32.19 1.06.65 1.8 1.16 2.22 1.62.18.37.32.79.32 1.3-.09.55-.28.88-.65 1.02h-.23c-.18 0-.46-.09-.88-.37-.92-.37-1.71-.7-2.36-.97-1.2 2.13-2.5 3.75-3.88 4.95-.46.19-.74.23-.88.23-.56 0-.92-.28-1.2-.79-.14-.18-.18-.42-.18-.69 0-.28.18-.55.6-.83 1.06-1.39 1.94-2.68 2.68-3.98-.65-.28-1.3-.51-1.9-.74-.51-.23-.74-.78-.74-1.71.14-.78.69-1.2 1.62-1.25.56 0 1.39.23 2.54.7.56-1.48.88-2.87 1.06-4.12-1.16.23-2.27.46-3.29.69-.41.14-.74.19-1.01.19-.51 0-.83-.23-.97-.79-.05-.19-.05-.42-.05-.6 0-.51.14-.92.51-1.25 1.76-.65 4.72-1.25 8.92-1.9 2.31-.32 3.88-.51 4.72-.51.69 0 1.06.42 1.11 1.15 0 .83-.19 1.85-.55 3.15-.33 1.29-.56 2.4-.74 3.33-.19 1.11-.28 2.45-.28 4.07.05.28.23.56.56.74.74.6 2.27 1.06 4.67 1.43.32.23.51.51.6.79v.51c-.14.65-.6.97-1.34 1.02-.68 0-1.34-.04-1.98-.13zm-9.57-22.71c2.5-.74 5.04-1.76 7.63-3.05.65-.28 1.16-.42 1.62-.42.65.09.97.65.97 1.76 0 .37-.28.79-.83 1.3-1.71.88-3.47 1.62-5.27 2.26.28.28.51.56.78.74.28.28.51.51.7.78.5.56.78 1.11.78 1.71 0 .74-.28 1.16-.78 1.34h-.28c-.28 0-.65-.14-1.2-.42-.28-.09-.56-.32-.83-.6-.88-.56-1.67-1.25-2.31-2.04-.19-.18-.33-.32-.33-.42-1.39.46-2.63.74-3.79.83-1.11-.19-1.67-.65-1.67-1.48 1.29-2.04 2.17-3.98 2.54-5.78.46-.6.97-.92 1.62-.97.65.09 1.11.51 1.39 1.29 0 1.14-.28 2.15-.74 3.17zm2.73 30.98c.28.09.51.18.74.32 1.25.74 3.19 2.54 5.78 5.5.6.7.97 1.34 1.06 1.94 0 .92-.37 1.43-1.11 1.43-.42 0-.83-.28-1.3-.79-.55-.42-1.34-1.02-2.26-1.85-1.48-1.34-3.05-2.59-4.81-3.75-.19-.23-.28-.51-.28-.78v-.46c.05-.46.28-.83.69-1.16.23-.23.51-.37.88-.46.19.02.42.06.61.06z"/></g></svg>