<svg enable-background="new 0 0 105 32" viewBox="0 0 105 32" xmlns="http://www.w3.org/2000/svg"><path d="m14.4.8c.3.1.4.3.4.8s-.2.8-.5.8h-5v3.4h4.8c.3 0 .5.3.5.8 0 .6-.2.9-.5.9h-4.8v4.4h5.2c.3.1.4.3.4.8 0 .6-.2.8-.5.8h-12.8c-.4 0-.6-.3-.6-.9 0-.4.1-.7.4-.8h1.6v-7.5c0-.4.3-.5.8-.5s.8.2.8.6v7.5h3v-9.5h-5.7c-.4 0-.5-.3-.5-.9 0-.4.1-.7.4-.8h12.6z"/><path d="m18.4 9.1v-.9h-2.4c-.3 0-.5-.3-.5-.8 0-.4.1-.6.4-.7h1.1c0-.3-.2-.5-.3-.7s-.2-.4-.2-.5c-.1-.1-.1-.2-.1-.3h-.5c-.3 0-.5-.3-.5-.8 0-.4.1-.6.4-.7h1.6v-.5c-.1.1-.3.2-.5.2s-.4-.1-.6-.3c-.1-.3-.3-.6-.5-1-.1-.2-.2-.3-.2-.4-.1-.1-.1-.2-.1-.4 0-.4.2-.6.7-.7.2 0 .4.1.6.4.2.4.4.8.6 1.2v-1.6c0-.3.2-.4.7-.5.5 0 .7.2.7.5v3.1h1.1v-3c0-.3.2-.4.6-.5.5 0 .7.2.7.5v1.5c.3-.4.7-.8 1-1.3.1-.1.2-.2.3-.2h.2c.4.1.6.3.6.6s-.2.7-.7 1.3c-.4.5-.7.8-.8.8-.3 0-.5-.1-.7-.3v.7h1.5c.4 0 .6.2.6.7s-.1.8-.4.8h-.8c0 .1 0 .3-.1.3-.2.5-.4.8-.5 1.1h1.4c.3 0 .4.3.4.7 0 .5-.1.8-.4.8h-2.7v.9h2.5c.2 0 .4.3.4.7 0 .5-.1.7-.4.7h-2.4v1.3c.9-.1 1.6-.3 2.2-.5.2-.1.4-.1.5-.2.2 0 .4.1.5.2.1.2.2.4.2.7 0 .1-.1.2-.1.3-.1.1-.2.2-.4.3-1.2.5-3.4.9-6.6 1.2-.2 0-.4 0-.4-.1-.3-.1-.4-.4-.4-.9 0-.2.1-.4.3-.5 1-.1 2-.2 2.8-.3v-1.6h-2.3c-.3 0-.5-.3-.5-.8 0-.4.1-.6.4-.7h2zm1.5-3c.2-.4.4-.7.5-.9h-2.4c.2.4.4.8.5 1.3 0 .1.1.1.1.2h1c.1-.2.2-.4.3-.6zm6.5-2.9v-2.5c0-.3.3-.4.8-.4.4 0 .7.1.7.4v2.5h.8c.3.1.5.4.5.8 0 .5-.2.8-.5.8h-.8v6.5c0 1.4-.2 2.2-.7 2.4-.2.2-.6.3-1.1.3-1.5 0-2.3-.4-2.4-1.1 0-.2 0-.4.1-.7.1-.1.3-.2.5-.3.6.2 1.2.4 1.7.4.3 0 .4-.4.4-1.2v-6.4h-2.5c-.4 0-.5-.3-.5-.8 0-.4.1-.6.5-.7zm-1.6 2.9c.2.4.6 1.4 1.1 3 .1.2.1.5.2 1 0 .5-.3.7-.9.7-.4 0-.6-.2-.7-.6-.3-1.5-.7-2.6-1-3.3-.1-.1-.1-.2-.1-.3 0-.5.3-.8.8-.9.2 0 .5.2.6.4z"/><path d="m92.4 4.2v-3.6c0-.3.2-.5.7-.5s.7.2.7.5v3.6h1c.3.1.4.3.4.8s-.2.8-.5.8h-.9v4.5c.6-.4.9-.5 1-.5.3 0 .4.1.5.1.2.1.3.4.3.7 0 .2-.1.4-.2.4-.3.3-.8.7-1.8 1.3-1.3.8-2.1 1.2-2.4 1.2s-.5-.1-.6-.3-.1-.4-.2-.6c0-.2.1-.4.3-.7.5-.2 1.1-.5 1.7-.9v-5.3h-1.2c-.3 0-.5-.3-.5-.8 0-.4.1-.6.5-.7zm11.2-3.6c.3 0 .4.3.4.7 0 .5-.1.7-.4.7h-3.4v5.8h3.9c.3.1.4.3.4.8s-.1.7-.4.7h-3.8v4.3c0 .4-.2.5-.7.5s-.8-.2-.8-.5v-4.3h-3.3c-.3 0-.5-.3-.5-.8 0-.4.1-.6.4-.7h3.4v-5.8h-3.1c-.5 0-.7-.2-.7-.8 0-.4.1-.6.4-.7h8.2zm-5.8 2.2c.1.1.2.3.2.5-.2 1.4-.7 2.7-1.6 3.7-.1.3-.3.4-.6.4-.6 0-.9-.3-.9-.8 0-.1 0-.3.1-.5.7-.8 1.2-1.8 1.5-3 .1-.3.3-.4.6-.4.4 0 .6 0 .7.1zm4.5.2c.6 1.1 1.1 2.1 1.5 3.1.1.2.2.4.2.5 0 .5-.3.7-.8.8-.3 0-.5-.1-.7-.4-.3-.8-.7-1.6-1.1-2.4-.2-.4-.4-.7-.4-.9-.1-.1-.1-.3-.1-.4 0-.4.3-.7.8-.7.1 0 .3.1.6.4z"/><path d="m9.1 22.1c0 .4-.2.9-.6 1.7v.1c.4 1.3.9 2.4 1.5 3.3.8-.9 1.4-2 1.8-3.2-.1-.1-.2-.3-.2-.4-.3-.5-.5-.8-.6-1-.1-.1-.1-.3-.1-.4 0-.4.3-.7.8-.7.2 0 .4.2.7.4.8 1.2 1.4 2.3 1.9 3.5.1.2.2.4.2.5 0 .5-.3.7-.8.8-.3 0-.5-.1-.7-.4-.1-.2-.2-.4-.3-.7-.4 1-.9 1.9-1.6 2.7.7.7 1.5 1.1 2.3 1.5.6.3 1 .6 1 1 0 .5-.2.8-.7.8-.3 0-.7-.1-1.2-.3-1-.5-1.8-1.1-2.5-1.8-.9.8-1.9 1.5-3.1 2.1-.2.2-.4.3-.6.3-.4 0-.7-.3-.9-.9 0-.2.1-.3.2-.5 1.4-.7 2.5-1.4 3.4-2.2-.6-.8-1.1-1.6-1.4-2.6-.2.4-.4.6-.5.7s-.3.2-.5.2c-.2-.1-.4-.1-.5-.3-.2-.1-.2-.3-.2-.6 0 0 0-.1.1-.2-.1.1-.3.1-.5.1s-.4-.1-.5-.4c-.1-.4-.3-.8-.4-1.2v7.2c0 .4-.3.6-.7.6-.5 0-.8-.2-.8-.5v-6.3c-.4 1-.8 1.7-1.1 2.2-.1.1-.2.1-.4.1-.4 0-.7-.3-.8-.8 0-.2 0-.4.2-.5.9-1.3 1.6-2.6 2-4h-1.7c-.4 0-.5-.3-.5-.8 0-.4.1-.6.5-.7h1.8v-1.8c0-.3.3-.5.8-.5s.7.2.7.5v1.8h1.3c.3.1.5.4.5.8 0 .5-.2.8-.5.8h-1.3c.7 1.1 1.2 2 1.5 2.7 0 .1.1.1.1.2.2-.6.5-1 .8-1.7.5-1.2.7-1.8.8-1.9s.3-.2.6-.2c.5.2.7.5.7.9zm.6-2.6v-.9c0-.3.2-.5.7-.6.5 0 .8.2.8.6v.9h2.9c.3.1.5.4.5.8 0 .5-.2.8-.5.8h-7.2c-.4 0-.5-.3-.5-.8 0-.4.1-.6.5-.7h2.8z"/><path d="m27.3 18.3c.6 0 1 .3 1 .9v11.4c0 .7-.3 1.1-1 1.1h-11c-.7 0-1-.4-1-1v-11.4c0-.6.3-.9 1-.9h11zm-.6 1.9c0-.2-.1-.3-.3-.4h-3.9c0 .1.1.2.1.2v.2h3.1c.2 0 .3.3.3.7s-.1.7-.4.7h-3.1v.4h3.6c.2 0 .3.3.3.6 0 .4-.1.6-.4.6h-8.7c-.3 0-.4-.2-.4-.7 0-.3.1-.5.3-.6h3.9v-.3h-3.1c-.3 0-.4-.2-.4-.7 0-.3.1-.5.3-.6h3.4v-.2c0-.1 0-.2 0-.2h-4.1c-.2 0-.3.1-.3.3v9.8c0 .2.1.3.3.3h9.3c.2 0 .3-.1.3-.4v-9.7zm-3.7 6.4c.2.4.5.7.8 1 0 0 0 0 0-.1.2-.1.6-.3 1.2-.7.3-.2.5-.4.6-.4.2 0 .4.1.5.2.2.2.3.4.3.6 0 .1-.1.3-.2.4-.3.3-.7.5-1.1.8.3.1.5.2.8.3s.5.2.5.4c0 .6-.2 1-.7 1-.3 0-.6-.1-.8-.2-1.6-.7-2.8-1.7-3.4-3.2h-.3v3c0 .3-.2.5-.6.5-.5 0-.7-.1-.7-.5v-1.6c-.5.4-1.1.9-1.8 1.2-.3.1-.5.2-.7.2-.4 0-.5-.3-.5-.9 0-.2.1-.3.2-.5 1-.4 1.8-.9 2.3-1.4h-.9c-.6-.1-.9-.4-.9-.9v-1.4c.1-.4.4-.6.8-.7h6.2c.7.1 1 .4 1 .9v1.1c0 .6-.3.9-1 .9zm-3.9-1.7v.3c0 .1.1.2.2.2h4.8c.2 0 .3 0 .3-.2v-.2c0-.1-.1-.1-.3-.1h-4.8c0-.1-.1 0-.2 0z"/><path d="m31.5 23.3c-.4-.4-.8-.9-1.2-1.5-.3-.3-.4-.4-.4-.6.1-.4.4-.7.8-.8.1 0 .3 0 .4.1.3.3.6.6 1 .9.2-.2.4-.4.6-.7.3-.4.5-.8.5-1 0-.1 0-.1-.1-.1h-3c-.4 0-.5-.3-.5-.8 0-.4.2-.7.5-.7h4.4c.4.1.6.3.7.8 0 .8-.4 1.6-1.2 2.5-.3.4-.6.7-.9.9 0 0 .1.1.1.1.1.1.2.3.2.3v.3h1.2c.8 0 1.1.4 1.1 1.2-.1.9-.4 1.9-1 3.1-.1.2-.2.3-.5.3-.5 0-.8-.3-.8-.8 0 0 0-.1.1-.2.3-.9.5-1.5.6-1.8 0-.2-.1-.3-.2-.3h-.7v5.7c0 .8-.5 1.2-1.6 1.2-.4 0-.9-.1-1.3-.2-.4-.2-.7-.5-.7-.8.1-.5.3-.7.6-.7s.6.1 1 .2c.3 0 .5-.1.5-.4v-5.1h-1.6c-.3 0-.5-.3-.5-.7s.1-.7.4-.7h1.5zm6.3-2.6.3-.8h-2.5c-.3 0-.5-.3-.5-.8 0-.4.1-.6.4-.7h6.8c.2 0 .4.3.4.7 0 .5-.1.7-.4.7h-2.8l-.3.8h2.1c.5 0 .8.3.9.9v6.5c0 .7-.3 1-.9 1h-1s.1.1.1.1c.7.4 1.3.9 1.9 1.4.2.1.3.3.3.5 0 .6-.3.9-.7.9-.2 0-.3-.1-.5-.2-.6-.5-1.1-1-1.7-1.3-.3-.2-.5-.4-.5-.7.1-.3.2-.6.4-.7h-1.6c.1.2.2.4.2.6s-.1.3-.3.4c-.7.6-1.4 1.2-2.4 1.7-.1 0-.3.1-.4.1-.4 0-.7-.3-.8-.8 0-.2.1-.4.2-.5.2-.1.9-.5 1.8-1.1.2-.1.3-.2.4-.3h-.5c-.6 0-.9-.3-.9-1v-6.5c0-.6.3-.9.9-.9zm3.1 2.2v-.5c0-.2-.1-.3-.3-.4h-3.4c-.2 0-.3.1-.3.3v.6zm0 2.3v-.9h-4v.9zm0 1.4h-4v.7c0 .2.1.3.3.3h3.4c.2 0 .3-.1.3-.4z"/><path d="m54.3 22.1c.3.1.4.3.4.8s-.2.8-.5.8h-2.9v2h4.8c.3 0 .4.3.4.7 0 .5-.2.8-.5.8h-4.7v2.8c.4.1.9.2 1.5.2 1 0 2.3-.1 3.9-.2.2 0 .3.2.4.4 0 .1.1.4.1.7 0 .4-.3.7-.9.7-.9 0-1.9 0-3 0-3.2 0-5.4-.9-6.7-2.6-.5.9-1.1 1.7-1.8 2.4-.2.1-.3.2-.5.2-.5 0-.8-.3-1-.8 0-.2.1-.3.2-.5 1.4-1.4 2.3-3.3 2.8-5.8.1-.2.3-.3.5-.4.2 0 .4 0 .6.1s.3.3.3.6c-.1.9-.3 1.8-.5 2.5.7.9 1.5 1.5 2.5 1.9v-5.7h-3.4c-.4 0-.5-.3-.5-.8 0-.4.1-.6.4-.7h8.1zm-3.1-3.5v.8h4.8c.7.1 1.1.5 1.1 1.3-.2 1.5-.4 2.3-.6 2.4-.1.1-.2.2-.4.2-.7-.1-1-.4-1-.8 0-.1.1-.5.4-1.2 0-.2-.1-.3-.3-.3h-9.4c-.2 0-.3.1-.4.2v1.4c0 .4-.3.6-.8.6-.4 0-.7-.1-.8-.4v-2.7c.1-.4.4-.7.8-.7h4.9v-.9c0-.3.3-.5.8-.6.6.1.9.3.9.7z"/><path d="m59.3 21.3v-2.7c0-.4.3-.5.8-.5s.8.2.8.5v2.7h1c.3.1.4.4.4.8 0 .5-.2.8-.5.8h-1v5.4c.5-.3.8-.4.9-.4.3 0 .5.1.5.2.2.1.3.4.3.7 0 .2-.1.4-.2.5-.2.3-.8.6-1.7 1.1-1.2.7-2 1-2.2 1-.3 0-.5-.1-.6-.3s-.1-.4-.2-.6c0-.2.1-.4.3-.7.4-.2.9-.4 1.4-.6v-6.2h-1c-.3 0-.5-.3-.5-.8 0-.4.1-.6.4-.7h1.1zm8.2-2.8v2.4l2.6-1.2c.4 0 .6.2.7.6 0 .5.1 1.8.1 3.9 0 .9-.1 1.6-.1 1.9-.1.5-.2.8-.5 1-.3.3-.8.4-1.7.5-.3 0-.5-.1-.6-.3s-.1-.4-.1-.6c0-.4.1-.6.3-.7.7-.1 1.1-.2 1.1-.5.1-.1.1-1.3.1-3.5 0-.2-.1-.3-.3-.3l-1.6.7v5.6c0 .4-.2.5-.7.6-.5 0-.8-.2-.8-.5v-4.9l-1.5.7v4.8c0 .7.3 1.1.9 1.2.7.1 1.2.2 1.6.2.6 0 1.1 0 1.6-.1.8 0 1.2-.4 1.2-1v-1c.1-.3.3-.4.8-.4s.8.2.8.4v1.4c0 1.3-.6 2-1.9 2.2-.7.1-1.4.1-2.3.1-1.5 0-2.6-.2-3.1-.4-.7-.2-1-.9-1-2.1v-4.5l-.5.3c-.4 0-.7-.3-.7-.9 0-.2.1-.4.2-.5l1-.5v-3.5c0-.2.3-.3.7-.4.5 0 .7.1.8.4v2.8l1.5-.7v-3.1c0-.3.3-.5.8-.5.4-.1.6.1.6.4z"/></svg>