<svg enable-background="new 0 0 1200 628" viewBox="0 0 1200 628" xmlns="http://www.w3.org/2000/svg"><g fill="#fff"><path d="m584.35 160.45h-95.09c-.41 0-.75-.34-.75-.75s.34-.75.75-.75h95.09c.41 0 .75.34.75.75s-.34.75-.75.75z"/><path d="m583.94 201.33h-95.09c-.41 0-.75-.34-.75-.75s.34-.75.75-.75h95.09c.41 0 .75.34.75.75s-.34.75-.75.75z"/><ellipse cx="489.26" cy="159.7" rx="5.94" ry="5.8"/><ellipse cx="488.26" cy="200.58" rx="5.94" ry="5.8"/><ellipse cx="515.41" cy="251.27" rx="5.94" ry="5.8"/><path d="m486.22 287.57h-319.54c-.41 0-.75-.34-.75-.75s.34-.75.75-.75h319.19l29.78-35.13c.14-.17.35-.27.57-.27h.59c.41 0 .75.34.75.75s-.34.75-.75.75h-.25l-29.78 35.13c-.13.17-.34.27-.56.27z"/><ellipse cx="166.27" cy="286.66" rx="5.94" ry="5.8"/><path d="m107.87 560.84c-.41 0-.75-.34-.75-.75v-205.76c0-.41.34-.75.75-.75s.75.34.75.75v205.76c0 .41-.34.75-.75.75z"/><path d="m107.87 307.59c-.41 0-.75-.34-.75-.75v-205.75c0-.41.34-.75.75-.75s.75.34.75.75v205.76c0 .41-.34.74-.75.74z"/><path d="m95.32 323.96-2.64 1.1v-1.52l4.22-1.74v13.18h2.43v1.52h-6.46v-1.52h2.45z"/><path d="m107.7 333.81c.38-.71.65-1.67.82-2.85-.74.77-1.54 1.16-2.41 1.16-1.06 0-1.94-.43-2.59-1.29-.72-.98-1.08-2.17-1.08-3.56 0-1.52.33-2.8.95-3.86.76-1.2 1.76-1.8 3-1.8 1.33 0 2.32.59 2.96 1.76.61 1.06.91 2.69.91 4.91-.02.04-.02.07-.02.13-.02 2.48-.46 4.46-1.26 5.97-.85 1.54-2.09 2.3-3.74 2.32-.8 0-1.44-.19-2-.52l.36-1.28c.57.3 1.14.45 1.63.45 1.02-.02 1.84-.54 2.47-1.54zm1.02-5.84c0-1.65-.21-2.91-.65-3.82-.4-.83-.95-1.24-1.69-1.24-.76 0-1.35.39-1.75 1.19-.44.82-.65 1.87-.65 3.17 0 1.09.23 1.96.66 2.61.42.56.91.83 1.44.83.74 0 1.37-.37 1.9-1.07.39-.52.65-1 .7-1.43.03-.09.03-.17.04-.24z"/><path d="m122.17 337.76h-1.69v-6.82c-2.2 2.47-4.5 4.28-6.88 5.43l-1.14-1.37c3-1.52 5.51-3.47 7.51-5.86h-6.92v-1.58h7.43v-6.84h1.69v6.84h7.53v1.58h-7c1.81 2.39 4.28 4.41 7.43 6.04l-1.31 1.22c-2.6-1.58-4.83-3.41-6.65-5.49zm-6.69-16.2c.99 1.06 2 2.45 3.02 4.21l-1.37.87c-1.1-1.82-2.09-3.19-2.97-4.15zm12.96.76c-.67 1.32-1.62 2.8-2.91 4.43l-1.35-.89c1.31-1.73 2.26-3.19 2.83-4.36z"/><path d="m108.18 311.94 6.43-10.86h-12.86z"/><path d="m108.18 348.07-6.43 10.87h12.86z"/><path d="m118.09 101.84h-20.21c-.41 0-.75-.34-.75-.75s.34-.75.75-.75h20.21c.41 0 .75.34.75.75s-.34.75-.75.75z"/><path d="m593.61 161.04c.5-.22 1.02-.43 1.54-.66l.21.92c-1.47.69-3.04 1.39-4.26 1.93l-.41-1.04c.53-.18 1.21-.46 1.93-.77v-4.31h-1.67v-.99h1.67v-3.18h.98v3.18h1.5v.99h-1.5v3.93zm8.04 3.27c.81 0 .95-.38 1.05-1.99.25.18.64.35.94.39-.17 1.92-.49 2.54-1.95 2.54h-3.45c-1.58 0-2.06-.38-2.06-1.89v-4.4l-1.11.46-.41-.91 1.51-.63v-3.81h.99v3.38l1.88-.78v-3.89h.99v3.47l2.13-.9.8.27-.06.17c-.14 1.98-.38 4.55-.73 6.14l-.85-.25c.24-1.27.42-3.35.53-5.11l-1.82.77v5.14h-.99v-4.72l-1.88.8v4.83c0 .76.18.94 1.09.94h3.4z"/><path d="m611.46 154.84v2.49l.18-.21c1.67.8 3.87 2.06 4.97 2.9l-.73.94c-.95-.78-2.83-1.93-4.43-2.79v7.37h-1.11v-10.7h-5.34v-1.04h12.37v1.04z"/><path d="m630.57 156.25h-2.2l.76.24c-.18.24-.36.48-.55.7h1.97v3.64h-8.7v-3.64h2.03c-.14-.25-.32-.49-.5-.7l.64-.24h-2.87v1.23c0 2.34-.2 5.74-1.57 8.01-.2-.18-.64-.43-.91-.53 1.33-2.19 1.44-5.25 1.44-7.48v-4.06h10.45v2.83zm-1.04-1.99h-8.38v1.15h8.38zm-7.03 7.2h7.52v4.08h-1.04v-.42h-5.48v.45h-1.01v-4.11zm.32-1.29h2.83v-2.33h-2.83zm1.24-2.09c.41.43.83 1.05 1.01 1.46l-.66.38c-.2-.41-.6-1.05-.99-1.51zm-.55 4.08v.8h5.48v-.8zm5.48 2.25v-.81h-5.48v.81zm-1.42-7.23c.22-.31.48-.66.63-.94h-3.96c.24.28.5.64.66.94zm1.98.66h-2.91v2.33h2.91zm-2.31 1.75c.31-.41.73-1.09.95-1.53l.67.35c-.32.56-.71 1.12-1.04 1.5z"/><path d="m594.99 196.39c-.29.57-.67 1.18-1.08 1.77v6.89h-1.02v-5.58c-.49.57-1.04 1.09-1.58 1.54-.13-.22-.39-.63-.57-.84 1.3-1.05 2.61-2.73 3.25-4.15zm-1.92-2.31c-.46.78-.99 1.48-1.51 2.02-.15-.18-.52-.53-.73-.69.88-.8 1.67-2.02 2.14-3.25l.91.24c-.11.28-.22.56-.36.84h3.56v.84h-2.63c.46.41 1.04.95 1.32 1.32l-.7.57c-.28-.39-.88-1.02-1.39-1.48l.55-.41zm9.63 5.74c-.7 1.05-1.64 1.95-2.72 2.7.62.92 1.32 1.46 2.05 1.46.41-.01.56-.52.63-1.92.24.21.6.41.88.49-.18 1.95-.57 2.45-1.58 2.45-1.11 0-2.07-.71-2.86-1.91-1.16.71-2.47 1.3-3.78 1.74-.13-.22-.43-.66-.64-.88 1.42-.39 2.77-.97 3.95-1.67-.41-.83-.74-1.82-.99-2.9l-2.94.27-.1-.97 2.87-.25c-.14-.73-.21-1.51-.25-2.31h1.05c.03.78.11 1.53.22 2.24l4.69-.41.1.92-4.61.41c.22.91.52 1.72.84 2.41.91-.64 1.67-1.39 2.23-2.24zm-3.79-5.74c-.41.7-.87 1.34-1.34 1.82-.17-.17-.58-.48-.79-.62.83-.76 1.53-1.92 1.89-3.12l.97.22c-.1.29-.21.57-.34.87h4.2v.83h-3.04c.52.38 1.11.9 1.41 1.25l-.69.62c-.31-.38-.92-.97-1.46-1.37l.6-.49h-1.41zm1.05 1.96c.79.35 1.84.9 2.41 1.22l-.57.73c-.59-.36-1.63-.94-2.41-1.3z"/><path d="m613.29 195.86c.34 4.72 1.44 8.12 2.83 8.12.38 0 .55-.77.63-2.63.24.24.63.46.92.57-.18 2.42-.57 3.14-1.64 3.14-2.28 0-3.45-4.02-3.81-9.2h-7.22v-1.01h7.16c-.04-.83-.06-1.68-.07-2.54h1.09c0 .87.01 1.71.06 2.54h4.15v1.01zm-4.28 6.93c.98-.21 1.99-.41 3-.63l.08.91c-2.37.57-4.93 1.16-6.71 1.55l-.32-1.02c.78-.15 1.81-.36 2.93-.59v-4.06h-2.49v-1.01h6.14v1.01h-2.62v3.84zm7.07-8.11c-.41-.49-1.27-1.25-1.99-1.75l.7-.57c.71.48 1.6 1.19 2.02 1.67z"/><path d="m628.53 199.82c.78.92 1.97 1.74 3.15 2.16-.24.2-.53.56-.69.8-1.36-.56-2.72-1.72-3.56-2.96h-4.38c-.88 1.3-2.3 2.51-3.66 3.14-.15-.25-.43-.6-.67-.8 1.16-.46 2.37-1.34 3.17-2.34h-3.03v-.88h2.77v-4.47h-2.13v-.87h2.13v-1.34h1.02v1.34h5.08v-1.34h1.05v1.34h2.1v.87h-2.1v4.47h2.7v.88zm-2.86 3.95h4.83v.88h-10.56v-.88h4.69v-1.47h-2.86v-.85h2.86v-1.18h1.04v1.18h2.93v.85h-2.93zm-3.01-9.3v.94h5.08v-.94zm0 2.69h5.08v-.97h-5.08zm0 1.78h5.08v-.99h-5.08z"/><path d="m634.58 203.28v1.12h-.8v-5.2c-.24.45-.49.85-.79 1.22-.06-.24-.28-.78-.45-1.05.98-1.32 1.63-3.29 2-5.42h-1.64v-.97h4.17v.97h-1.6c-.22 1.16-.52 2.3-.88 3.33h2.28v6zm1.56-5.07h-1.55v4.13h1.55zm5.7 5.59c.28.03.6.04.92.04.34 0 2.44 0 2.91-.01-.14.22-.27.64-.31.9h-2.66c-1.93 0-3.19-.39-4.01-2-.29.92-.76 1.74-1.5 2.33l-.73-.66c1.22-.87 1.62-2.49 1.79-4.29l.87.15c-.04.39-.08.78-.15 1.16.39 1.25 1.02 1.88 1.89 2.17v-4.16h-3.54v-.88h7.26l.17-.04.66.22c-.24.7-.55 1.47-.81 1.99l-.78-.31c.13-.27.27-.62.39-.98h-2.37v1.65h3.19v.85h-3.19zm-2.89-8.21c-.41.77-.94 1.5-1.44 2-.11-.21-.34-.55-.5-.7.6-.53 1.26-1.47 1.67-2.38h-1.37v-.83h1.65v-1.41h.85v1.41h1.34v.83h-1.34v.17c.29.31 1.16 1.26 1.37 1.51l-.57.64c-.14-.28-.49-.76-.8-1.19v2.44h-.85v-2.49zm3.94.21c-.41.76-.91 1.47-1.46 1.93-.08-.2-.31-.52-.49-.69.7-.52 1.39-1.54 1.76-2.55h-1.25v-.83h1.43v-1.4h.87v1.4h1.75v.83h-1.5c.49.59 1.47 1.86 1.7 2.23l-.62.7c-.24-.48-.85-1.46-1.32-2.17v2.83h-.87z"/><path d="m449.51 299.83c-.18 1.15-.45 2.17-.8 3.03.9 1.57 2.68 1.79 5.32 1.79 1.47 0 3.5-.06 4.92-.18-.15.22-.29.69-.34.97-1.32.08-3.07.11-4.59.11-2.84 0-4.61-.28-5.7-1.86-.48.91-1.08 1.61-1.76 2.12-.13-.21-.48-.57-.69-.71 1.26-.87 2.17-2.41 2.61-4.57h-1.36c-.35 0-.71.08-.81.2v-.01c-.07-.24-.28-.73-.39-.94.21-.06.43-.15.66-.41.31-.32 1.09-1.43 1.67-2.28h-2.14v-.85h2.73l.21-.08.69.32c-.55.8-1.57 2.27-2.33 3.21h1.47l.18-.03zm-1.28-4.14c-.34-.59-1.06-1.57-1.64-2.27l.8-.43c.6.69 1.3 1.58 1.65 2.16zm5.19-.58h-3.77v-.88h3.77v-1.23h1.01v1.23h3.98v.88h-3.98v1.04h3.25v4.51h-3.25v1.02h4.17v.88h-4.17v1.65h-1.01v-1.65h-3.77v-.88h3.77v-1.02h-3.1v-4.51h3.1zm-2.15 2.91h2.14v-1.09h-2.14zm2.15 1.85v-1.11h-2.14v1.11zm1.01-2.94v1.09h2.24v-1.09zm2.24 1.83h-2.24v1.11h2.24z"/><path d="m461.45 302.07c-.17 1.29-.42 2.7-.73 3.6-.18-.08-.59-.21-.81-.28.35-.91.57-2.26.7-3.46zm2.44-.58c-.03-.22-.07-.52-.14-.81-2.72.42-3.15.5-3.39.64-.04-.21-.2-.66-.31-.91.28-.06.57-.41.97-.94.21-.24.63-.84 1.12-1.61-1.39.17-1.68.21-1.86.31-.06-.18-.21-.63-.31-.87.22-.06.45-.36.71-.78.28-.41 1.19-2.03 1.69-3.56l.9.38c-.56 1.32-1.26 2.69-1.99 3.74l1.37-.11c.36-.6.69-1.25.98-1.89l.83.49c-.83 1.63-1.86 3.26-2.93 4.57l2.02-.25c-.13-.48-.25-.97-.41-1.39l.74-.18c.35.97.69 2.21.79 2.96zm-1.21.38c.17 1.02.34 2.34.38 3.22l-.8.14c-.01-.88-.17-2.21-.34-3.24zm1.18-.33c.31.83.63 1.9.77 2.59l-.73.24c-.13-.71-.45-1.79-.71-2.62zm6.02 2.25c1.04.38 2.13.87 2.84 1.19l-.43.76c-.74-.36-1.91-.91-2.94-1.33l.35-.62h-2.4l.74.63c-1.06.49-2.39 1.04-3.35 1.42-.1-.22-.28-.53-.43-.74.91-.34 2.24-.9 3-1.3h-2.17v-4.1h6.91v4.1h-2.12zm-1.76-9.31h-3.57v-.73h3.57v-.76h1.02v.76h3.42v.73h-3.42v.76h2.86v.7h-6.86v-.7h2.98zm-3.48 2.03h7.8v2.56h-7.8zm.89 1.85h1.58v-1.15h-1.58zm.5 2.55h4.99v-.59h-4.99zm0 1.1h4.99v-.6h-4.99zm0 1.15h4.99v-.64h-4.99zm3.35-4.8v-1.15h-1.46v1.15zm2.14-1.15h-1.33v1.15h1.33z"/><path d="m475.48 298.62c-.18.77-.46 1.54-.92 2.17-.13-.21-.49-.62-.67-.73.85-1.22.95-2.9.95-4.16v-2.42h4.9v3.04h-3.99c-.01.31-.03.63-.07.97h4.2v3.07h-4.4zm11.23 5.84v.92h-12.62v-.92h5.79v-1.61h-4.34v-.91h4.34v-1.11h1.04v1.11h4.48v.91h-4.48v1.61zm-10.95-10.17v1.43h3.03v-1.43zm.57 5.47h2.63v-1.47h-2.63zm6.52-2.47h-2.76v-.84h1.64c-.07-.41-.27-.95-.46-1.39l.76-.2h-1.58v-.84h2.51c-.08-.29-.21-.6-.31-.87l.92-.21c.18.32.35.73.43 1.08h2.35v.84h-4.26c.22.48.45 1.09.52 1.5l-.29.08h1.74c.18-.48.42-1.12.55-1.55l.94.15c-.21.49-.42.99-.62 1.4h1.78v.84h-2.87v1.13h2.56v.84h-2.56v1.58h-.98v-1.58h-2.52v-.84h2.52v-1.12z"/></g></svg>