<svg enable-background="new 0 0 60 60" viewBox="0 0 60 60" xmlns="http://www.w3.org/2000/svg"><path d="m17 49c-2.206 0-4 1.794-4 4s1.794 4 4 4 4-1.794 4-4-1.794-4-4-4zm0 6c-1.103 0-2-.897-2-2s.897-2 2-2 2 .897 2 2-.897 2-2 2z"/><path d="m13 5h4c.552 0 1-.447 1-1s-.448-1-1-1h-4c-.552 0-1 .447-1 1s.448 1 1 1z"/><path d="m20 5h1c.552 0 1-.447 1-1s-.448-1-1-1h-1c-.552 0-1 .447-1 1s.448 1 1 1z"/><path d="m54 47c0-.553-.448-1-1-1s-1 .447-1 1v1c0 .553.448 1 1 1s1-.447 1-1z"/><path d="m54 35c0-.553-.448-1-1-1s-1 .447-1 1v1c0 .553.448 1 1 1s1-.447 1-1z"/><path d="m54 43c0-.553-.448-1-1-1s-1 .447-1 1v1c0 .553.448 1 1 1s1-.447 1-1z"/><path d="m54 39c0-.553-.448-1-1-1s-1 .447-1 1v1c0 .553.448 1 1 1s1-.447 1-1z"/><path d="m54 31c0-.553-.448-1-1-1s-1 .447-1 1v1c0 .553.448 1 1 1s1-.447 1-1z"/><path d="m54 51c0-.553-.448-1-1-1s-1 .447-1 1v1c0 .553.448 1 1 1s1-.447 1-1z"/><path d="m53 54c-.552 0-1 .447-1 1v1c0 .553.448 1 1 1s1-.447 1-1v-1c0-.553-.448-1-1-1z"/><path d="m38.043 58h-.994c-.552 0-1 .447-1 1s.448 1 1 1h.994c.552 0 1-.447 1-1s-.448-1-1-1z"/><path d="m34.069 58h-.792c.002-.003.003-.006.005-.009.124-.19.231-.39.324-.597.023-.051.046-.101.067-.152.019-.046.043-.089.06-.136.014-.038.008-.076.017-.114.151-.441.25-.906.25-1.397v-1.546-.912-2.737-.913-2.737-.912-2.738-.913-2.737-.912-2.738-.913-2.737-.912-2.381c.296-.174.5-.488.5-.856 0-.366-.207-.673-.5-.847v-22.749c0-2.428-1.976-4.405-4.405-4.405h-25.19c-2.429 0-4.405 1.977-4.405 4.405v51.189c0 2.429 1.976 4.406 4.405 4.406h25.189.5c.152 0 .293-.04.422-.101.585-.125 1.124-.369 1.598-.702.096.455.479.803.961.803h.994c.552 0 1-.447 1-1s-.448-1-1-1zm-32.069-50h30v19 1.5 2.737.912 2.737.914 2.737.912 2.737.914 2.737.163h-30zm2.405-6h25.189c1.327 0 2.406 1.079 2.406 2.405v1.595h-30v-1.595c0-1.326 1.079-2.405 2.405-2.405zm25.19 56h-25.19c-1.326 0-2.405-1.079-2.405-2.405v-7.595h30v1.486.913 2.737.912 1.546c0 .309-.064.603-.17.874-.068.173-.153.338-.259.491-.434.628-1.157 1.041-1.976 1.041z"/><path d="m42.018 58h-.994c-.552 0-1 .447-1 1s.448 1 1 1h.994c.552 0 1-.447 1-1s-.448-1-1-1z"/><path d="m45.443 29c.552 0 1-.447 1-1s-.448-1-1-1h-.994c-.552 0-1 .447-1 1s.448 1 1 1z"/><path d="m37.494 29c.552 0 1-.447 1-1s-.448-1-1-1h-.994c-.552 0-1 .447-1 1s.448 1 1 1z"/><path d="m45.992 58h-.994c-.552 0-1 .447-1 1s.448 1 1 1h.994c.552 0 1-.447 1-1s-.448-1-1-1z"/><path d="m41.468 29c.552 0 1-.447 1-1s-.448-1-1-1h-.994c-.552 0-1 .447-1 1s.448 1 1 1z"/><path d="m53.94 58h-.994c-.552 0-1 .447-1 1s.448 1 1 1h.994c.552 0 1-.447 1-1s-.447-1-1-1z"/><path d="m59 41.729c-.552 0-1 .447-1 1v.994c0 .553.448 1 1 1s1-.447 1-1v-.994c0-.553-.448-1-1-1z"/><path d="m59 49.678c-.552 0-1 .447-1 1v.993c0 .553.448 1 1 1s1-.447 1-1v-.993c0-.553-.448-1-1-1z"/><path d="m59 45.703c-.552 0-1 .447-1 1v.993c0 .553.448 1 1 1s1-.447 1-1v-.993c0-.553-.448-1-1-1z"/><path d="m59 37.754c-.552 0-1 .447-1 1v.994c0 .553.448 1 1 1s1-.447 1-1v-.994c0-.553-.448-1-1-1z"/><path d="m59.933 30.636c-.096-.544-.611-.913-1.159-.811-.543.096-.907.614-.811 1.158.024.137.037.279.037.422v.395c0 .553.448 1 1 1s1-.447 1-1v-.395c0-.258-.023-.516-.067-.769z"/><path d="m49.417 29c.552 0 1-.447 1-1s-.448-1-1-1h-.994c-.552 0-1 .447-1 1s.448 1 1 1z"/><path d="m59 33.78c-.552 0-1 .447-1 1v.993c0 .553.448 1 1 1s1-.447 1-1v-.993c0-.552-.448-1-1-1z"/><path d="m53.391 29c.552 0 1-.447 1-1s-.448-1-1-1h-.994c-.552 0-1 .447-1 1s.448 1 1 1z"/><path d="m49.966 58h-.994c-.552 0-1 .447-1 1s.448 1 1 1h.994c.552 0 1-.447 1-1s-.447-1-1-1z"/><path d="m56.788 29.317c.157.09.329.133.498.133.346 0 .683-.18.868-.502.275-.479.11-1.09-.369-1.365-.374-.215-.776-.372-1.196-.469-.536-.123-1.074.213-1.198.751s.212 1.075.751 1.198c.226.052.443.138.646.254z"/><path d="m59 53.651c-.552 0-1 .447-1 1v.993c0 .553.448.976 1 .976s1-.473 1-1.025v-.943c0-.553-.448-1.001-1-1.001z"/><path d="m57.108 57.464c-.182.148-.384.269-.6.357-.511.21-.755.794-.545 1.305.159.387.532.62.925.62.126 0 .255-.024.379-.075.397-.163.768-.384 1.102-.654.429-.349.494-.979.145-1.407-.347-.429-.977-.494-1.406-.146z"/><path d="m51.618 20.923c.122.051.252.077.382.077s.26-.026.382-.077c.123-.051.233-.124.326-.216l5.999-6c.391-.391.391-1.023 0-1.414s-1.023-.391-1.414 0l-4.293 4.293v-2.586c0-7.168-5.832-13-13-13-.552 0-1 .447-1 1s.448 1 1 1c6.065 0 11 4.935 11 11v2.586l-4.293-4.293c-.391-.391-1.023-.391-1.414 0s-.391 1.023 0 1.414l5.999 6c.093.092.203.165.326.216z"/></svg>