<svg xmlns="http://www.w3.org/2000/svg" xmlns:xlink="http://www.w3.org/1999/xlink" viewBox="0 0 557 328.06"><defs><style>.cls-1{fill:none;}.cls-2{clip-path:url(#clip-path);}.cls-3{fill:url(#未命名漸層_51);}</style><clipPath id="clip-path" transform="translate(120 -4.38)"><rect class="cls-1" width="449" height="343"/></clipPath><linearGradient id="未命名漸層_51" x1="1388.19" y1="106.41" x2="2099.22" y2="106.41" gradientTransform="translate(-1540 61.99)" gradientUnits="userSpaceOnUse"><stop offset="0" stop-color="#e3a938" stop-opacity="0.7"/><stop offset="0.5" stop-color="#e1a035" stop-opacity="0.9"/><stop offset="0.78" stop-color="#d66b23"/></linearGradient></defs><g id="圖層_2" data-name="圖層 2"><g id="圖層_1-2" data-name="圖層 1"><g class="cls-2"><path class="cls-3" d="M273,4.38A163.5,163.5,0,0,0,157.22,52.2C114.07,89.79,72.47,90.39,39.8,73.44A107.17,107.17,0,0,0-11.84,60.27,108.16,108.16,0,0,0-120,168.43,108.19,108.19,0,0,0-11.84,276.59,107.37,107.37,0,0,0,40.55,263h0c45-19.28,84.82-6.2,116.16,21.09A164,164,0,1,0,273,4.38Z" transform="translate(120 -4.38)"/></g></g></g></svg>