<?xml version="1.0" encoding="utf-8"?>
<!-- Generator: Adobe Illustrator 24.0.1, SVG Export Plug-In . SVG Version: 6.00 Build 0)  -->
<svg version="1.1" id="圖層_2" xmlns="http://www.w3.org/2000/svg" xmlns:xlink="http://www.w3.org/1999/xlink" x="0px" y="0px"
	 viewBox="0 0 1920 1080" style="enable-background:new 0 0 1920 1080;" xml:space="preserve">
	
<pattern  width="165.3" height="231.9" patternUnits="userSpaceOnUse" id="img_3" viewBox="0 -328.9 165.3 231.9" style="overflow:visible;">
	<g>
		<rect x="0" y="-328.9" class="st0" width="165.3" height="231.9"/>
		
			<image style="overflow:visible;" width="500" height="580" xlink:href="logobg1.jpg"  transform="matrix(0.3306 0 0 0.3998 1.718709e-05 -231.8918)">
		</image>
		
			<image style="overflow:visible;" width="500" height="580" xlink:href="logobg1.jpg"  transform="matrix(0.3306 0 0 0.3998 1.718709e-05 -463.7837)">
		</image>
	</g>
</pattern>
<pattern  width="170" height="184.6" patternUnits="userSpaceOnUse" id="img_2" viewBox="14.7 -299.6 170 184.6" style="overflow:visible;">
	<g>
		<rect x="14.7" y="-299.6" class="st0" width="170" height="184.6"/>
		
			<image style="overflow:visible;" width="500" height="543" xlink:href="logobg2.jpg"  transform="matrix(0.34 0 0 0.34 170 -184.62)">
		</image>
		
			<image style="overflow:visible;" width="500" height="543" xlink:href="logobg2.jpg"  transform="matrix(0.34 0 0 0.34 0 -184.62)">
		</image>
		
			<image style="overflow:visible;" width="500" height="543" xlink:href="logobg2.jpg"  transform="matrix(0.34 0 0 0.34 170 -369.24)">
		</image>
		
			<image style="overflow:visible;" width="500" height="543" xlink:href="logobg2.jpg"  transform="matrix(0.34 0 0 0.34 0 -369.24)">
		</image>
	</g>
</pattern>
<g>
	<defs>
		<path id="SVGID_1_" d="M662.4,204.7c-0.7-1.7-1.9-3.4-3.3-4.6c-4.7-3.9-10.3-5.4-16.1-6.4c-0.7-0.1-2,0.5-2.3,1.1
			c-0.6,1.2-1.3,1.3-2.4,1.3c-6.1,0-12.3,0-18.4,0c-2.2,0-4.3-0.1-6,1.5c-0.2,0.2-0.7,0.3-1,0.3c-3.5,0-7,0-10.5,0
			c5.9-1.3,11.9-2.2,17.7-4c5.5-1.8,10.7-3.3,16.7-2.7c3.5,0.4,6.9-1.4,8-5.3c1.3-4.4,2.5-8.7,3.5-13.1c0.6-2.9,0.9-5.9,1.2-8.8
			c0.2-2,0.2-4.1,0.2-6.2c0-1.7-0.2-3.4-0.2-5.1c0-2.5,0.5-5,0.3-7.4c-0.4-6-1.1-12-1.7-17.9c-0.2-2.4-0.3-4.9-1.9-6.9
			c-3-3.9-8.6-5.3-13.4-3.8c-2,0.6-2.3,1.7-2.2,3.4c0.1,1.5,0,3,0,4.8c-1.1-0.7-2-1-2.5-1.6c-1.8-2.3-4.5-3.1-7.1-3.9
			c-1-0.3-2-0.8-2.9-1.3c-0.5-0.3-1.2-0.8-1.4-1.3c-1.7-4.1-5.1-6.5-8.5-8.9c-1.6-1.1-2.3-0.7-2.5,1.2c-0.2,2.2,0,4.5-0.2,6.7
			c-0.4,5-0.8,5.6-4.7,6.9c-1,0.3-1.8,0.8-2.8,1.2c-1.9,0.8-3.1,0.6-5.4,1.5c-0.3-9.5-3.8-14.7-4.3-22.5c-0.2-2.6-2.1-4.2-4.6-4.8
			c-2.3-0.5-3.8,1.1-5,2.8c-1.9,2.7-2,5.9-2.8,8.9c-1.4,5.6-2.4,11.1-2.3,16.9c0.1,10.8,0,21.7,0,32.5c0,0.9-0.2,1.8-0.2,2.9
			c-0.5-0.2-0.6-0.3-0.8-0.4c-4.4-3.6-9-6.6-14.7-7.4c-0.6-0.1-1.6-1.1-1.6-1.8c-0.1-1.4,0.3-2.9,0.6-4.4c0-0.1,0.4-0.2,0.6-0.2
			c2-0.4,3.9-0.8,5.9-1.1c3-0.5,4.8-2.3,6.3-4.8c1.2-2-0.8-2.6-1.3-3.8c-0.6-1.3-1.8-2.5-3-3.2c-2.3-1.3-4.8-2.2-7.2-3.1
			c-1.2-0.5-1.9-1-2.4-2.3c-1.5-3.3-3.4-6.5-5.2-9.7c-0.4-0.7-1.1-1.1-2-1.8c-0.3,1.1-0.6,1.7-0.8,2.4c-0.6,3-1.3,5.9-1.7,8.9
			c-0.4,2.6-1.7,4.3-3.9,5.4c-2.5,1.3-5,2.6-7.5,3.9c-1.8,0.9-2.4,2.5-1.3,3.8c1.3,1.5,2.8,2.8,5,2.9c0.9,0,1.8,0.6,2.7,1
			c-0.4,0.8-0.6,1.8-1.1,2.5c-2.5,3.6-5.2,6.9-7.6,10.6c-2.3,3.6-1.3,5.7,2.9,6.6c0.7,0.1,1.5,0.3,2,0.7c1.7,1.5,3.6,1.3,5.6,1.1
			c0.6-0.1,1.1-0.2,1.6-0.3c0.1,0.1,0.2,0.3,0.3,0.4c-1,1.4-2,2.7-3.1,4.1c-1.1,1.5-2.4,3-3.4,4.7c-1.2,2.2-0.8,3.4,1.3,4.6
			c3.3,2,6.8,3.3,10.8,3.4c3,0,4.4,1.3,5.1,4c-6.1,1.2-12.2,1.2-18.9,0.4c1.8-2.2,1-3.9,0.2-5.6c-0.6-1.1-1.2-2.3-1.8-3.4
			c-2.4-4.2-4.1-8.6-4.8-13.4c-0.4-2.9-0.7-5.8-1.4-8.6c-2.7-10.5-2.1-20.9,0.6-31.3c0.3-1.3,0.4-2.6,0.4-4c-0.1-1.4-1-2.5-2.4-2.5
			c-0.8,0-1.7,0.8-2.4,1.4c-0.6,0.6-0.8,1.5-1.2,2.2c-4.1,9.2-5.8,18.6-4.4,28.7c1.3,9.6,2.7,19.1,7.3,27.6
			c2.3,4.3,2.9,8.1,0.7,12.4c-0.2,0.4-0.3,1.1,0,1.5c1.1,1.7,2.4,3.1,4.4,3.4c3.1,0.5,6.1,1,9.2,1.2c4.9,0.3,9.8,0.3,14.7,0.4
			c9.5,0.1,18.9,0.1,28.4,0.1c0.7,0,1.4,0.1,2.1,0.1c-0.8,0.5-1.6,0.5-2.3,0.6c-20.5,2.8-40.9,6.8-60.9,12.2
			c-7.7,2.1-15.3,4.6-23,6.6c-1.8,0.5-3,1.1-3.7,2.8c-0.5,1.1-0.3,1.7,0.8,2.1c2.6,1,5.2,1.8,8,1.1c5.7-1.5,11.5-3.2,17.2-4.7
			c12.8-3.4,25.5-7.6,38.7-9.2c4.2-0.5,8.1-2.6,12.3-3.7c10.8-2.7,20.2-3.8,31.3-5.1c2.4-0.3-12.8,5.1-23.5,8.8
			c-8.3,2.9-16.5,6.3-24.7,9.4c-1.4,0.5-2.9,0.9-4.4,1.3c-1.5,0.4-3.2,0.4-4.5,1.2c-1.2,0.8-2,2.4-3,3.7c-0.1,0.1-0.2,0.3-0.2,0.5
			c-0.3,5.2,0.3,10,4.7,13.5c3,2.4,6.1,4.9,10.4,5c-0.7,0.9-1.4,1.5-2.1,2.2c-1.1,1-2.6,1.8-3.2,3.1c-1,2.1-2.5,3.4-4.4,4.6
			c-4.4,2.8-4.6,6-0.9,9.8c0.7,0.7,1.4,1.6,2.2,2.5c-2.6,1.6-5.2,1.8-7.8,2.1c-3.7,0.4-7.4,0.8-11.1,1.6c-2.7,0.5-5.2,1.6-7.8,2.4
			c-2.9,0.9-5.8,1.6-8.7,2.6c-0.7,0.2-1.7,1.5-1.5,1.8c0.9,1.9,1.3,4.4,3.5,5.5c4.2,2,8.6,3.2,13.2,2.2c3-0.7,5.8-2.2,8.8-2.9
			c9.9-2.5,19.9-5,29.8-7.3c1.9-0.5,4-1,5.8-0.5c1.7,0.4,3,0,4.4-0.4c0.9-0.3,1.7-0.8,2.6-1.2c3.1-1.3,6.2-2.2,10.1-1.8
			c-0.9,0.5-1.3,0.7-1.8,1c-0.4,0.3-0.7,0.6-1.1,0.8c5.8-2,11.8-2.1,17.7-2.3c5.9-0.2,11.5,1,17.1,2.7c0,0.2,0,0.3-0.1,0.5
			c-6.6,2.7-13.2,5.4-19.8,8c0,0.2,0.1,0.4,0.1,0.6c1.5,0,3,0,4.9,0c-1.4,0.7-2.6,1.1-3.5,1.9c-1.2,1-2.2-0.2-3.2,0.1
			c-3,0.9-6,1.9-9,2.8c0.7,0.5,1.3,0.8,2,0.8c2.2,0,4.3-0.1,6.5-0.1c6.3,0,12.5,0.7,18.7-1c2.8-0.8,5.8-1.4,8.7-1.6
			c4.7-0.3,9.5-0.1,14.3-0.5c2.7-0.2,5.4-1.1,7.9-2.1c2-0.8,2.4-2.5,1.3-4.3c-0.8-1.4-1.9-2.7-2.9-3.9c-4.5-4.9-10.2-7.9-16.4-9.6
			c-6.4-1.8-13-2.8-19.5-4.1c-0.6-0.1-1.1-0.4-1.4-0.5c2.6-1.9,5.2-3.6,7.6-5.6c3-2.5,3.4-5.5,0.9-8.6c-4.1-5.2-9.2-8.6-16-8.8
			c-0.9,0-1.8-0.3-2.6-0.4c0-0.2,0-0.4-0.1-0.5c0.5-0.4,0.9-0.9,1.4-1.2c1.7-1.2,3.4-2.4,5.2-3.6c2.6-1.8,5.1-3.7,7.9-5.4
			c2.8-1.7,3.3-3.2,1.5-6c-0.6-0.9-1.3-1.8-2.1-2.4c-2.3-1.8-4.6-3.5-6.9-5.1c-4.9-3.4-10-3.3-15.2-0.5c-4.2,2.2-8.4,4.3-12.6,6.5
			c-0.8,0.4-1.4,0.9-2.6,1.7c0.9,0.7,1.4,1.2,2,1.7c0.6,0.5,1.3,1,2.2,1.6c-6.3,5.4-12.3,10.7-18.3,16c-1.1-2.2-2-4-2.8-5.8
			c-1.3-2.6-1-3.8,1.3-5.4c1.4-1,3.1-1.7,4.5-2.7c1.2-0.9,2.3-2,3.3-3.1c1.7-1.7,3.3-3.5,5-5.1c0.4-0.4,1-0.5,1.6-0.7
			c5.5-1.8,11-3.6,16.5-5.5c11-3.7,21.9-7.2,33.8-5.3c5.3,0.8,10.8,0.6,16.2,0.9c3.8,0.2,7.6,0.5,11.2,2.1c0.9,0.4,1.8,0.5,2.8,0.6
			C661.5,210.6,663.7,207.9,662.4,204.7z M618.4,138.1c0.2-1.9,1.2-3,3-3.3c2.3-0.4,4.7-0.7,7.6-1.1c-0.4,5.1-0.8,9.6-1.3,14.6
			c-0.9-0.6-1.5-1-2.1-1.4c-1.8-1.2-3.4-2.6-5.3-3.7C618.4,142,618.2,140.1,618.4,138.1z M617.3,159c2.3-0.7,4.5-1.3,6.6-2
			c1.7-0.6,2.6,0.3,2.6,1.7c0,2.4-0.3,4.8-0.7,7.1c-0.2,1.1-1.2,1.4-2.3,1c-1.7-0.7-3.5-1.2-5.1-2c-0.6-0.3-1.3-1.3-1.4-2
			C616.8,161.6,617.1,160.3,617.3,159z M612.3,179.6c0.3-1.1,0.8-2.2,1-3.3c0.2-1.3,0.5-2.8,1.9-2.9c1.4-0.1,2.8,0.3,4.2,0.7
			c0.4,0.1,0.7,0.6,1.1,0.8c0.5,0.4,1.1,0.7,1.6,1.1c-0.5,0.5-0.8,1.2-1.4,1.5c-2.9,1.7-5.8,3.2-8.7,4.8c-0.1-0.1-0.2-0.2-0.4-0.4
			C612,181.2,612.1,180.4,612.3,179.6z M573.9,186.1c0,1.6-0.5,2.9-2.4,2.8c-3.6-0.1-7.2-0.1-10.8-0.2c-0.4,0-0.7,0-1.4,0
			c0.2-0.6,2.6-1.5,2.5-2.1c-0.2-1.2-0.4-2.4-0.8-3.5c-0.8-2.1,0.4-2,1.9-2.9c0.2-0.1,1.9-0.7,2.4-0.8c0.6-0.2,4.8-1.4,5.2-1.5
			c0.4-4.6-4.1-6.2-5.9-6.3c-1.4,0.2-3.5-0.2-5.2,0.2c-1.4,0.4-1.9,0-2-1.4c-0.1-0.8-0.1-0.6,0-1.4c0.1-1.9,0.7-2.1,2.3-1.2
			c0.3,0.2,0.7,0.4,1,0.3c3.8-1.5,7.6,0,11.5-0.2c0.4,0,1.1,0.9,1.2,1.5c0.4,1.5,0.6,3.1,0.7,4.7C574,178.2,573.9,182.2,573.9,186.1
			z M594.6,129.9c2.9-0.3,5.8-0.2,8.7,0c0.4,0,1.3,1.6,1.1,2.2c-0.5,1.4-1.3,7.4-2.4,8.4c-2.8,2.6-4.1,2.6-8.6,2.9
			c-0.2-0.1-0.3-0.2-0.5-0.3c0-2.6-0.1-4.3-0.1-6.9c0-0.9,0-2.1,0-3.4C592.6,130.2,593.3,130,594.6,129.9z M597.8,177.2
			c-0.6,2.2-0.7,6.9-1.2,7.8c-0.8,1.3-4,2.1-5.8,1.4c-1.9-0.7-1.7-2.3-1.4-3.8c0.6-2.9,1.1-6.4,1.8-9.3c0.3-1.3,1-1.7,2.2-1.2
			c0.8,0.3,1.8,1.1,2.6,1.4C598.1,174.4,598.5,174.9,597.8,177.2z M601.8,158c-0.9,1.2-1.2,4.8-2.3,5.7c-2.2,1.9-4.9,0.4-7.5,1.3
			c0.5-4.2,0.6-5.8,1-9.4c0.2-1.6,1-2,2.5-1.5c1.8,0.6,3.7,1.1,5.6,1.7C602.2,156.1,602.5,157,601.8,158z M594.1,248.8
			c-5.4,4.4-11.6,7.4-17.8,10.4C581.3,254.2,586.7,249.8,594.1,248.8z"/>
	</defs>
	<clipPath id="SVGID_2_">
		<use xlink:href="#SVGID_1_"  style="overflow:visible;"/>
	</clipPath>
	<g class="st0">
		<path class="st1 ld1" d="M583,96.3c2,34-0.9,87.9-0.9,87.9"/>
		<path class="st2 ld2" d="M538,141.9c9-2,16.4-1.7,25.6-3.4c-19.6,3.4-21.6,13.4-26,23.8c9.8-0.7,19.4-1.3,32.4,2.7
			c-16-1-17.5,9.1-27,14c9.2-1.6,14.1-6.2,23.4-6.3"/>
		<path class="st3 ld3" d="M549.6,121.8c3,15.5,5.4,56.6,7.4,61.6"/>
		<path class="st4 ld4" d="M596.4,125.7c12.9-0.7,16.1-3.6,28.8-1.6c-5.5,2.7,3.8,4.7-0.4,5.5C613,132,605.2,146.3,594,149"/>
		<path class="st5 ld5" d="M594,147c12.5,2.6,15.1,0.4,25.4,3.6"/>
		<path class="st4 ld6" d="M620.7,151.7c-13.4,0.4-22.9,17.5-27.5,19c10.1-1.7,17-5.7,28.8,0.2"/>
		<path class="st2 ld7" d="M608.6,111.7c6.4,15.9,0.8,58.3-4.8,70.6"/>
		<path class="st2 ld8" d="M529.3,117.7c-6.1,8.4-12.6,47.5,1.8,69c-5.3,10.4,77.2,7,108.2-4.3"/>
		<path class="st6 ld9" d="M635.3,102.8c4.3,13.5,6.5,67.9-2.9,75.1"/>
		<path class="st7 ld10" d="M496.4,221.9c29.7-6.4,136-46.7,163.9-15.8c-79.5-17.1-93.7,17.4-105.5,22.5"/>
		<path class="st7 ld11" d="M548.8,225.6c-3.7,9.5,9.4,13.3,9.4,13.3"/>
		<path class="st7 ld12" d="M573.9,219.4c23-5.3,32-2.3,39.5,2.3"/>
		<path class="st8 ld13" d="M604.4,222.7c-22.3,12.3-24.6,24.1-39.8,29.4"/>
		<path class="st8 ld14" d="M556.9,257.8c3.8,5.2,10.3,6.3,10.3,6.3"/>
		<path class="st9 ld15" d="M585.2,241.9c26.6-9.7,53.9,1.6,0.8,20.1"/>
		<path class="st10 ld16" d="M520.4,281.4c41.7-8.6,103.3-29.2,127.9-2.4c-14.1-0.5-41.7,4.4-49.7,8.7"/>
	</g>
</g>
<g>
	<defs>
		<path id="SVGID_3_" d="M664.1,399c-3.6-6-6.6-12.5-13.2-15.9c-2-1-4.2-1.8-6.3-2.7c-1.1-0.4-2.4-0.5-3.4-1.1
			c-2.9-1.7-6-2.1-9.4-1.9c-7.1,0.5-14.2,0.3-21.3,0.4c-0.6,0-1.1,0-1.9,0c0.9-0.7,1.6-1.1,2.2-1.6c3.6-3,7.3-5.9,10.7-9.2
			c1.2-1.2,2.2-3,2.5-4.7c0.7-4.3-0.9-8-4.2-10.6c-3.5-2.8-7.3-5.1-11-7.6c-0.7-0.5-1.5-0.9-2.3-1.4c0.1-0.3,0.2-0.5,0.2-0.6
			c0.2-0.2,0.4-0.5,0.6-0.7c2-2.4,4.7-3,7.6-3.6c1.8-0.4,3.8-0.7,5.4-1.6c5.1-2.8,7.4-7.8,9.3-13c0.6-1.7,0.5-3.8,0.2-5.6
			c-1.1-6.3-4.7-11.3-9.1-15.6c-1.4-1.3-3.6-2.1-5.5-2.5c-3.6-0.7-7.3-0.2-10.7,1.1c-4.6,1.8-9.2,3.6-13.7,5.5
			c-0.2,0.1-0.4,0.4-0.6,0.6c-0.9,1-1.6,2.2-2.7,2.9c-3.3,2-6.8,3.9-10.3,5.8c-0.4,0.2-1,0.1-1.5,0.2c0-0.5-0.1-1-0.1-2.1
			c-5,3.1-9.7,6.1-14.5,9.1l0.2,0.4c0.9-0.4,1.8-0.9,2.7-1.3c-0.3,0.7-0.8,1.1-1.4,1.5c-4,2.8-8,5.5-11.9,8.5
			c-3.5,2.7-6.6,5.8-10.1,8.5c-2.3,1.8-5,3-7.5,4.5c0-0.1-0.1-0.1-0.1-0.2c0.4-0.5,0.7-1,1.1-1.5c-0.1-0.1-0.3-0.2-0.4-0.4
			c-2.4,2.7-4.8,5.4-7.2,8.1c-1.2,1.3-1.1,2.4,0,3.7c1.2,1.5,2.1,3.1,3.3,4.7c-2.1,0.6-1.9,1.8-1.5,3.1c0.3,1.3,0.7,2.5,0.7,3.8
			c0.1,2.6,0,5.1,0,7.7c0,5.5,0.9,10.9,2.9,16.1c0.6,1.4,0.8,3,1.1,4.5c0.1,0.5-0.1,1.4-0.5,1.7c-2.2,1.6-4.4,3.3-6.8,4.5
			c-5.5,2.5-11.2,4.6-16.8,7c-2.2,0.9-4.5,1.9-6.5,3.2c-2.8,1.8-5.4,3.8-8,5.9c-0.6,0.5-1.3,1.5-1.2,2.3c0,2.7,1,5,3.7,6.2
			c0.6,0.3,1.2,0.7,1.5,1.2c1,2,2.9,2,4.7,2.2c1.5,0.1,3.1,0.1,4.5,0.4c2.9,0.5,4.2-0.1,5.3-2.8c0.2-0.6,0.6-1.2,1.2-2.3
			c-3.5,0.8-7.8,1.7-7.9,0.8c-0.1-0.9,1.1-1.4,2.8-2.2c7.6-3.8,15.1-7.5,22.8-11.1c2.7-1.3,5.6-2.4,8.4-3.5c0.6-0.2,1.3-0.2,2-0.3
			l0.1,0.4c-8.4,4.9-16.9,9.7-25.3,14.6c0.1,0.2,0.2,0.4,0.3,0.6c0.7-0.2,1.4-0.5,2.1-0.7c1.3-0.4,2.6-0.7,3.9-1.1
			c1.6-0.5,3.4-0.6,4.7-1.5c4.7-3.7,10.4-5.4,15.5-8.5c2.5-1.5,3-1.4,5.1,0.7c3.8,3.8,7.7,7.4,12.5,9.9c0.6,0.3,1.4,0.3,2.1,0.4
			c-0.1-0.8-0.1-1.7-0.4-2.5c-0.2-0.5-0.9-0.8-1.3-1.2c-0.5-0.5-0.9-1.1-1.3-1.7c-0.6-0.9-1.1-1.9-1.7-2.9c-0.5-0.8-1.1-1.5-1.7-2.2
			c2,0.8,2.7,4.1,6,3c-0.5-0.9-0.8-1.6-1.2-2.1c-0.9-1.4-1.7-2.8-2.8-4.1c-3.1-3.9-3.1-3.8,1.4-6c1.3-0.6,2.4-1.5,3.6-2.2
			c-0.1-0.3-0.2-0.6-0.3-0.9c-1.9,0.5-3.7,1-5.6,1.5c0-0.2-0.1-0.4-0.1-0.6c6.3-2.5,13.1-2.7,19.9-4c-0.2,0.5-0.3,0.9-0.5,1.2
			c-1.9,3.8-3.9,7.5-5.7,11.3c-1.6,3.3-2.6,6.7-2.4,10.5c0.2,3.3,0,6.7,0,10c0,0.5,0.1,1.2-0.2,1.4c-1.7,1.2-3.4,2.3-5.2,3.4
			c-0.7,0.4-1.6,0.4-2.3,0.8c-2.4,1.3-4.7,1.4-7.1-0.1c-0.5-0.3-1.1-0.7-1.7-0.9c-4.6-1.2-9.2-2.6-13.8-3.3
			c-6.1-0.9-11.1,1.8-15.2,6.3c-3.3,3.6-5,8.1-6.8,12.5c-0.6,1.5-0.5,3.4-0.2,5.1c0.7,4.2,3,7.4,6.1,10.2c1.4,1.2,3.2,2.1,4.2,3.6
			c2.2,3.2,5.4,5.4,8.9,4.3c3.6-1.1,7.4-1.8,11-3c3.7-1.1,6.7-4.4,10.4-5.7c2.7-0.9,5.4-1.7,8.1-2.8c2.7-1.1,5.3-2.5,8-3.6
			c6-2.5,12-5.1,18.8-5.3c3.7-0.1,5-1.7,5.1-5.5c0-3,1.2-5.3,3-7.4c3.8-4.2,7.7-8.3,11.8-12.6c-3.9,2.3-7.8,4.5-11.6,6.7
			c2.1-2.7,4.5-4.9,7.8-5.8c4.5-1.2,8.9-2.4,13.4-3.6c0.7-0.2,1.4-0.3,2.1-0.5c1.1-0.3,1.6,0.2,1.6,1.2c-0.1,6.4-0.7,12.8-3.3,18.7
			c-2.1,4.7-4.4,9.3-6.7,14c-0.2,0.4-0.7,0.9-1.1,0.9c-2.5-0.2-5.1-0.4-7.2-2.2c-0.5-0.4-1-0.7-1.5-1c-0.1,0.1-0.2,0.2-0.3,0.3
			c1.1,1.5,2.1,3,3.2,4.5c-0.1,0.1-0.2,0.2-0.4,0.3c-2.5-2.7-5-5.5-7.5-8.2c0.7,1.6,1.5,3.1,2.6,4.4c4.8,5.6,9.7,11.1,14.6,16.7
			c1.1,1.2,2.1,2.5,3,3.8c2.5,3.6,5.2,6.9,9.8,8.1c2.1,0.5,3.9,0.4,5.6-0.8c3.1-2.2,6.2-4.5,7.4-8.4c0.4-1.5,1.5-2.7,2.1-4.1
			c1.4-3,3.1-5.9,3.9-9.1c2.8-10.3,3.3-20.8,0.1-31.2c-2.9-9.4-9-15.8-18.2-19.5c-3-1.2-5.4,0.6-8.1,0.8c-0.2,0-0.4,0.3-0.5,0.5
			c-0.7,2.3-2.6,3.3-4.4,4.5c-5.5,3.8-11.2,7.5-16.8,11.2c-1.1,0.7-2.2,1.4-3.4,2.2c-0.4-2.1-0.6-4-1.3-5.8c-0.9-2.3-1-4.7,0-6.8
			c1.6-3.3,1.5-6.6,0.6-9.9c-1.6-5.6-4.5-10.4-10.2-12.8c-0.4-0.2-1-0.7-1-1.1c0-0.3,0.6-0.8,1-1c0.6-0.3,1.2-0.6,1.8-0.7
			c4.9-0.7,9.8-1.7,14.8-2.1c5.2-0.4,10.5-0.1,15.7,0c0.7,0,1.3,0.1,2,0.2c0.1,0.2,0.2,0.3,0.3,0.5c-1.8,2.1-3.3,4.5-5.3,6.3
			c-2.6,2.3-5.7,4.1-8.5,6.2c-0.7,0.5-1.4,1-2.1,1.5c0.1,0.1,0.1,0.2,0.2,0.3c1.1-0.3,2.2-0.6,3.3-0.9c0,0.1,0.1,0.2,0.1,0.3
			c-2.4,1.5-4.8,3-7.2,4.6c0.8,0.1,1.4-0.1,2-0.1c5.1-0.1,10.1-0.1,15.2-0.3c1.5-0.1,3.3-0.3,4.5-1.1c2.2-1.4,4.5-1.6,6.9-1.3v1.4
			c2.8-1,5.4-1.9,7.9-2.9c2-0.8,3.8-1,5.8,0.1c2.7,1.4,5.8,1.5,8.5,0.4c2-0.8,3.7-0.9,5.7-0.3c2.1,0.6,4.1,0.1,5.5-1.5
			C665.5,402.5,665,400.6,664.1,399z M556.5,459.7c-0.1-0.2-0.2-0.4-0.3-0.6c2.2-1.7,4.9-2.1,7.5-2.9c0.1,0.2,0.1,0.3,0.2,0.5
			C561.4,457.6,559,458.7,556.5,459.7z M568.8,445.8c-9,3.3-17.9,6.6-26.9,9.8c-4.4,1.5-5.4,0.7-4.9-4c0.3-3.5,1.7-6.7,4.3-9
			c1.9-1.7,4.3-3,6.7-4c2.2-0.9,4.5-0.6,6.3,1.1c3.3,3.2,7.2,4.8,11.7,4.9c1.2,0,2.3,0.3,3.9,0.4C569.3,445.6,569,445.7,568.8,445.8
			z M570.9,450.6c-0.1-0.1-0.2-0.3-0.2-0.4c1.4-1.1,2.7-2.3,4.5-2.7c0.1,0.2,0.2,0.4,0.4,0.6C574,448.9,572.5,449.7,570.9,450.6z
			 M543.9,388.8c-3.5-3.7-5.5-8.1-6.1-13.1c-0.2-1.7-0.7-3.3-1.2-5c-1-3.6-1-7.2-0.2-10.8c0.2-0.7,1.5-1.5,2.4-1.7
			c2.7-0.6,5.4-0.8,8.2-1.2v1.4c1-0.4,1.9-0.8,2.8-1c1.3-0.3,2.5-0.6,3.9,0.4c1,0.7,2.9,0.3,4.3,0.3c1.3,0,2.6,0,4.1,0
			c-0.2,0.7-0.4,1.1-0.7,2c6.4-2.2,12.4-4.2,18.2-6.2C576.3,361.9,551.5,386.4,543.9,388.8z"/>
	</defs>
	<clipPath id="SVGID_4_">
		<use xlink:href="#SVGID_3_"  style="overflow:visible;"/>
	</clipPath>
	<g class="st11">
		<path class="st12 ld17" d="M613.6,316.2c-12,9.6-55.7,25.7-72.4,25.7"/>
		<path class="st3 ld18" d="M532,361.7c0,28.1,9.3,35.2,28.6,56.2"/>
		<path class="st13 ld19" d="M609.1,351.7c-19.3,27.5-87.4,36.7-108.4,55"/>
		<path class="st14 ld20" d="M506.6,419.7c22.7-21.2,114.5-69.7,149.9-23"/>
		<path class="st14 ld21" d="M650.1,389.8c-3.9,9.7-41.5,9.4-41.5,9.4"/>
		<path class="st6 ld22" d="M582,403.3c0.2,13.5,12.2,34.9-21.1,25.9c0,0-43.5-11.9-37.3,35.5"/>
		<path class="st1 ld23" d="M523.6,464.7c0,0,68.2-8.3,92-45.7"/>
		<path class="st15 ld24" d="M623.8,408.3c13.4,10.2,15.7,56.4,5.6,63c-6.6-6.7-18.7-12-18.7-12"/>
	</g>
</g>
<g id="_x33_">
	<defs>
		<path id="SVGID_5_" d="M737,549.7c-1,0.1-2-0.1-2.7-0.5c1.1-0.4,2.6-0.5,2.2-1.9c0.4-0.5-0.1-1.3-0.7-1l0.3-0.3
			c-0.9-1-2.3-0.6-3.5-0.9c-4.9,0-10.1-1.1-14.7-0.5c-1.4-2-1.4,1.7-2.9-0.2c-0.4,0.2-0.6,0.9-1.2,1.3c-0.7,0.1-1.5-0.1-1.7-0.5
			c0-0.3,0.4-0.3,0.7-0.3l-0.3-0.5c0.6,0,0.6-0.5,0.9-0.9l0.3,0.3l0.2-0.2c-0.2-0.1-0.4-0.3-0.4-0.6l-0.4,0.5
			c-0.7-0.7,0.5-1.4-0.9-1.7l0.4-0.3c-2.7-0.5-5.1-0.2-7.1-2.4c-1.7,0.1-3.4-0.8-4.7-1c0.1-0.1,0.1-0.2,0.3-0.1l-0.3-0.8
			c0.3-0.3-0.1-0.6,0.1-0.8c-0.5-1.5-2.7-0.5-4-1.1c-5.1-4.4-12.2-5.3-17.8-9c-1.8-0.8-3.7-2.2-5.4-1c-0.9-0.3-2.5,0.1-2.7-0.9
			c-2-0.3-4-0.5-5.9-1.1c-3.7-3.3-6.8-7.4-11.4-10.1l-3.6,0.3c-3.2-0.7-6.4,1.3-8.9-0.5c-0.4,0.5-1,0.7-1.7,0.6
			c-0.3-0.1-1.2-0.4-1-1.1c-10.5,1.6-19.2-3.4-28.7-5.1c-7-7.6-15-15.5-24-21.1l-5-0.5c-1.1-0.2-2.3,0.3-3.3-0.1
			c-2.3,0.4-3.9-1.5-6.2-1.5c-1.3,0.2-2.3,0.7-3,1.7c-2.2,0.6-1.9,2.9-2.6,4.7c0.4,0.9-1.6,0.9-0.5,1.4c-0.9,1.1-2.2,1.7-3.5,1.4
			c-2.4,2.4-5.9,2.7-9,2.9c-2.2,1-5.4,1.1-6.4,3.4l-0.1-0.2c-2.9,2.7-6.4,6.3-10.6,7.8c-0.2-0.1-0.1-0.3-0.1-0.5
			c-3-0.7-4.9,2.4-7.3,3.6c-0.6-0.5-1.4,1-2.1,0c0.1-0.1,0-0.3,0.2-0.5c-2.2,0.5-3.8,2.5-5.4,4c-3.5,1.3-4.3,6.9-9,5.5
			c-0.2,0.2-0.5,0.3-0.4,0.6c-1.7-0.2-3.9,0.4-5.7,0.7c-1.1,1.1-2.4,1.3-3.8,1.9c0.4,1.2-1.4,0.5-2.1,0.8c-1.2,1.1-3.3,1.6-4.7,2.1
			c-0.1,0.3-0.6,0.6-0.1,1c-0.2,0.8-1.2,1.4-2.1,1.1c-2.6,2.8-7.7,4.1-8.8,8c-2.4,1.3-2.2,4.1-4.6,4.8l0.5,0.5l-0.7,0.4
			c-0.9,1,0.9,2,0.5,3h-0.5l1.5,0.8c0.1,1.7,2.7,3,2.1,4.8c1.1,2.4,2.7,4.8,3.3,7.2c1.6-0.2,1.8,2.2,3.5,1.4l0.1,0.5
			c0.4,0.5-0.4,1.9,0.5,2.4c0.6,0.1,1-0.1,1.2-0.5c2.2-0.1,2.7,1.5,4.8,1.1c-0.6,0.6-1.2,1.2-1.7,1.6l0.4,0.5c0.5-0.6,1.5,0,1.9-0.9
			h-0.3c-0.4-0.2-0.4-0.5-0.4-0.8c0.7-0.2,1.4-1.7,2.2-0.7c0.1-0.2,0.1-0.5,0.4-0.6c1-0.5,0.8,0.9,1.7,0.6c0.1-0.1,0.4-0.3,0.4-0.5
			c-0.4-0.5,0.7-1.5,1-2.3c0.4-0.7,1.2-0.1,1.6,0.2l0.5-0.7c1.1,0.3,2.1,0.1,3.1,0.2c0.8,0.3,0.3,0.7,0.2,1.3c0.4,0.6,1.2,1,2,0.6
			c1.3,0.4,0.4,1.2,1.4,1.8l2.2-1c1.2-5.8,8.2-6.6,12.3-9.3c2.8,0.2,5.4-2.2,8.3-2.2c0-0.2,0.1-0.4-0.1-0.5c0.1-0.5,0.9-0.9,1.4-0.3
			c1-0.5,2.9,0.4,2.8-0.8c0.2-0.1,0.3,0.2,0.5,0.3c0.6-0.4,1.2-0.4,1.4-1.1l1.2,0.5c0.9-1.5,1.6-2.5,2.2-4c0.6-0.5,0.9-2.2,1.9-2.6
			c0.2-0.4,1.8-1.5,0.9-2.4c0.2-0.7,1.2-0.5,1.6-1.1l-0.2-0.2c1.5-1.3,2.3-4.1,4.6-4.8c0.3-0.5,1.4-0.1,1.1-0.9l-0.5,0.5
			c-0.6,0.4-1.1-0.1-1.6-0.1c-0.2,1.1-1.5,1.5-2.2,1.8c0.9-1.1,2.1-2.1,2.6-3.2c4.3-3.7,8.7-6.7,14.2-7.2c-0.2-0.2-0.5-0.3-0.4-0.7
			L564,523c-0.6-0.5-2.1-0.1-2.4-1.3c0.9-0.5,1.7-0.7,2.1-1.7c2.4-1,5.3-1.8,7.9-2.6c1.2-0.3,2-0.1,2.9-1.1l-0.9-0.5
			c0.5-1.8,1.2-3.8,2.8-5.2c1.4-0.7,2.8,1.3,3.8,0.5c2.6,0.8,4.6,1.5,7.1,2.5c5.6,4.9,12,8.7,16.5,14.8c1,1.5,2.4,2.8,3.7,4
			c1.3,1.6,2.8,3.6,4.3,5c1.2,0.7,2.2,1.9,3.8,1.9l4.3,4.5c3.5-0.1,7.6,2,10.9,2c0.6,1,1.7,0.1,2.4,0.7l-0.2,0.1
			c1.2,0.3,2.7,1.3,4.1,0.9v0.3c0.2,0,0.4,0,0.6,0.2v-0.4c2.1,0.8,4.8,1.9,7.2,1.4c1.5,0.1,3.8,0.1,4.9-0.6c3,0.9,6.2-0.9,9.3,0.1
			c0.4,1.9,1.9,2.9,2.8,4.5c4.4,0.8,4.1,5.4,7.5,7.6c4-0.9,7.9,0.2,12.1,0.3c0.1-0.7,1-0.7,1.4-0.7c-0.3-0.7-1.6-0.5-1.6-1.4
			l-0.5,0.3c0.2-0.4-0.6-0.9,0.2-1.3c1.1-0.3,2,0.5,2.6,0.7l-0.2-0.5c0.3-0.5,0.8-0.5,1.2-0.8c0.6,1.2,2.7,0.8,3.3,1.8
			c2.8,0.3,5.3,1.9,8.1,1.9c-0.3-0.4-0.7-0.6-1.2-0.8c0.3-0.3,0.1-0.8,0.1-1.1c1.1-1.1,1.7,0.7,2.7,0.5l-0.1-0.6
			c1.5-0.7,2.8,0.6,4,1.3c-0.6-0.9-1.8-1.5-1.4-2.8c0.5-0.3,1.2-0.7,1.7-0.3l-0.7-0.5c0.3-0.2,0.3-0.5,0.4-0.7
			c-0.4,0.3-0.7,0-1.2-0.1c-0.6-1.6,1-0.3,1.1-1.6l0.4,0.3c1.2,0.9,1.6-0.8,2.6-1.3c2.6,0.2,0.4-1.8,1.7-2.7
			c0.3-0.4,1.2-1.3,1.9-0.5c0.7-0.9,1.7,0.4,2.5-0.5l-0.4-0.7c0.5-0.5,1-0.9,1.7-0.9c0.7,0.9,3.2,0.8,2.3,1.9c0.8,0,0.9,0.6,1,1.1
			c1.5,0.5,3.3,1.1,5.1,1.3c0.5,1.7,3.3,0.9,4.9,1.1c0.7-1.5,2-0.9,3.5-1.1c-0.6-0.7,0.4-0.7,0.5-1.3l1.1,0.8
			c0.6,0.2,0.8-0.9,1.4-0.3c0.2-0.1,0.3-0.3,0.5-0.3V551l2.6-0.2C735.6,550.5,737.3,551.1,737,549.7z M711.6,542.6l0.3-0.3l0.7,0.6
			L711.6,542.6z"/>
	</defs>
	<clipPath id="SVGID_6_">
		<use xlink:href="#SVGID_5_"  style="overflow:visible;"/>
	</clipPath>
	<path class="st16 ld25" d="M503,546c100-92,141,15,221.5,15.5"/>
</g>
<path id="_x34_" class="st17 op" d="M493.4,96.2c-0.5,1.4-1.1,1.6-2.2,1.6h-16.6v5h7.9v4.4h-7.2v30.9h2.8l0,3.9l0,0
	c-0.2,0.6-0.7,0.9-1.3,0.9h-2.5v4.8h5.8l0.1,0c1.6,0,2.9,0,2.9-2l0-7.6h3.9v7.6c0.1,1.9,1.3,2,2.9,2l0.1,0h6V143h-2.5
	c-0.6,0-1-0.3-1.3-0.9l0,0l0-3.9l0.2,0c2.8-0.1,4-1.4,4-4v-26.8h-8v-4.4h5.6c2,0,3.2-0.4,4.1-1.5c1-1.2,1.6-2.1,1.8-5.2H493.4z
	 M491.3,112.1v4.2H484l0,4.6h7.3v3.8H484v4.6h7.2v1.8c0,1.2-0.7,1.9-1.7,1.9h-9.3v-21H491.3z M468.2,102.8h1.7v-4.9h-18v45.6
	c0,2.9,1.4,4.3,4.1,4.3h13.9v-5.1h-1.7v-4.1l0.2,0c2.2-0.1,3.2-1.3,3.2-4v-27.3h-3.4V102.8z M463.2,107.3h-3.4v31.4h3.4v4h-4.8
	c-0.6,0-1.7-0.6-1.7-1.8v-38.1h6.5V107.3z M467.4,132c0,1.3-0.4,2-1.2,2H464v-22.2h3.4V132z M494.4,174.7v-18.1h-40.9v23.3h35.6
	C492.7,179.9,494.4,178.2,494.4,174.7z M488.3,165.9h-23.8v5h23.8v0.9c0,1.5-0.6,3.3-1.8,3.3h-27.1v-13.4h28.9V165.9z M451.9,183.5
	v22.9h38.9c3.6,0,5.3-1.7,5.3-5.2v-17.7H451.9z M490.2,192.7h-6.4v5h6.4v0.9c0,1.4-0.6,2.9-1.8,2.9H458v-12.9h32.3V192.7z
	 M480,192.7h-17.3v5H480V192.7z"/>
<path id="_x35_" class="st18 op" d="M732.9,361.3c-0.6,0.4-1.6,1.1-2.8,2.1l-4.2,3.2l-4,3.1c1.4,0.1,3.1,0.1,5.3,0.1
	c1.6,0,2.7,0,3.3-0.1c0.6-0.1,1-0.3,1.4-0.7c0.4-0.4,0.6-0.9,0.6-1.5c0-0.3,0.1-0.4,0.2-0.4c0.1,0,0.1,0,0.2,0.1
	c0,0.1,0.1,0.5,0.1,1.4c0,0.9,0.1,1.6,0.1,2.2l0,1.4v0.2c0,0.2-0.1,0.3-0.2,0.3c-0.1,0-0.2-0.1-0.2-0.3c-0.1-0.7-0.3-1.2-0.6-1.5
	c-0.3-0.3-0.8-0.5-1.3-0.5c-0.6-0.1-2.6-0.1-5.9-0.1l-6-0.1c-0.3,0-0.5-0.1-0.5-0.2c0,0,0-0.1,0-0.1c0-0.1,0.4-0.4,1.1-0.9
	c0.7-0.5,1.6-1.2,2.6-2c1-0.8,1.8-1.4,2.5-1.9c1.4-1,2.2-1.6,2.5-1.9c1.2-1,1.9-1.6,2.2-1.7c0.2-0.1,0.3-0.2,0.3-0.3
	c0-0.1-0.1-0.1-0.4-0.1l-1.7,0c-2.2,0-4,0.1-5.3,0.2c-1.3,0.1-2.1,0.2-2.3,0.3c-0.2,0.1-0.5,0.3-0.7,0.6c-0.2,0.3-0.3,0.6-0.3,0.9
	c0,0.4-0.1,0.7-0.3,0.7c-0.1,0-0.2-0.1-0.2-0.4l0-4.9c0-0.2,0.1-0.3,0.2-0.3c0.1,0,0.2,0.1,0.2,0.3c0,0.8,0.2,1.4,0.6,1.7
	c0.4,0.3,1.3,0.4,2.6,0.4l4-0.1c2.3,0,3.7-0.1,4.1-0.2c0.4-0.1,0.9-0.4,1.5-0.8c0.6-0.4,0.9-0.9,1-1.4c0-0.2,0.1-0.3,0.2-0.3
	c0.1,0,0.2,0.1,0.2,0.4L732.9,361.3z M719.7,378.6c-0.5-0.3-0.9-0.7-1.2-1.2c-0.3-0.5-0.4-1-0.4-1.6c0-0.7,0.2-1.2,0.6-1.6
	c0.4-0.4,0.9-0.6,1.6-0.6c0.5,0,1,0.1,1.4,0.4c0.4,0.2,0.7,0.5,0.9,0.8c0.2,0.3,0.4,0.8,0.7,1.6c0.4,1.1,0.7,1.7,1,1.9
	c0.3,0.2,0.6,0.3,1,0.3c0.7,0,1.2-0.1,1.6-0.4c0.4-0.3,0.6-0.7,0.6-1.2c0-0.4-0.1-0.7-0.3-1c-0.2-0.2-0.6-0.4-1.3-0.5
	c-0.7-0.1-1-0.4-1-0.8c0-0.1,0.1-0.3,0.2-0.5c0.2-0.2,0.4-0.3,0.7-0.3c0.6,0,1.1,0.3,1.5,0.8c0.4,0.6,0.6,1.3,0.6,2.3
	c0,0.8-0.1,1.4-0.4,1.9c-0.2,0.5-0.5,0.8-0.8,0.9c-0.3,0.1-0.9,0.2-1.8,0.2l-3-0.1c-1.2,0-2,0.1-2.5,0.2c-0.5,0.1-0.7,0.4-0.7,0.7
	c0,0.1,0,0.2,0,0.3l0,0.2c0,0.2-0.1,0.2-0.2,0.2c-0.3,0-0.4-0.7-0.4-2c0-0.4,0.1-0.6,0.3-0.8C718.7,378.7,719.1,378.6,719.7,378.6z
	 M724.1,378.6c-0.3-0.2-0.6-0.7-1.1-1.4c-0.4-0.7-0.8-1.2-1.2-1.5c-0.4-0.3-0.8-0.5-1.4-0.5c-0.5,0-0.9,0.1-1.2,0.4
	c-0.3,0.3-0.5,0.6-0.5,1c0,0.4,0.1,0.8,0.4,1.1s0.6,0.6,1,0.8c0.4,0.2,1,0.2,1.8,0.2C722.7,378.7,723.4,378.7,724.1,378.6z
	 M726.9,384.8c-1.7-0.1-3.3-0.1-4.9-0.1c-1.2,0-2,0.1-2.4,0.4c-0.4,0.3-0.6,0.6-0.6,1.1c0,0.4,0.1,0.8,0.4,1.2
	c0.1,0.2,0.2,0.3,0.2,0.3c0,0.1-0.1,0.1-0.2,0.1c-0.2,0-0.5-0.2-0.9-0.7c-0.4-0.5-0.6-1.1-0.6-1.8c0-0.7,0.3-1.2,0.8-1.6
	c0.5-0.3,1.3-0.5,2.4-0.5c1.1,0,3,0.1,5.7,0.2c0,0,0-0.4,0.1-1l0-0.6c0-0.1,0.1-0.2,0.2-0.2c0.1,0,0.2,0.1,0.2,0.3
	c0.1,0.3,0.4,0.7,1,1.4c0.5,0.7,1.3,1,2.3,1.1c0.3,0,0.4,0.1,0.4,0.2c0,0.1-0.1,0.2-0.3,0.2c-0.1,0-0.1,0-0.2,0c-0.3,0-0.6,0-1,0
	l-1.8,0l0,2.2c0,0.4,0,0.6-0.1,0.6c-0.3,0-0.6-0.1-0.7-0.2C727.1,387.1,727,386.2,726.9,384.8z M727.7,390.7c-0.5,0-1.9,0.1-4.2,0.1
	c-1.5,0-2.4,0-2.9,0.1c-0.5,0.1-0.9,0.2-1.2,0.5c-0.3,0.3-0.5,0.6-0.5,1c0,0.5,0.3,1,0.8,1.5c0.5,0.5,1,0.8,1.6,0.9
	c0.6,0.1,1.9,0.2,4,0.2c1,0,1.5-0.1,1.7-0.2c0.2-0.1,0.3-0.4,0.3-0.8c0-0.2,0.1-0.2,0.2-0.2c0.1,0,0.1,0,0.2,0.1c0,0,0,0.2,0,0.5v2
	c-0.8,0.1-1.7,0.1-2.8,0.1l-4.2-0.1c-0.9,0-1.4,0.1-1.6,0.2c-0.2,0.1-0.4,0.3-0.4,0.6c0,0.2-0.1,0.3-0.2,0.3c-0.1,0-0.2-0.2-0.2-0.5
	v-1.6c0-0.3,0.1-0.4,0.3-0.4c0.1,0,0.1,0,0.2,0c0.2,0,0.5,0,0.7,0c0.2,0,0.5,0,0.9,0c-0.7-0.5-1.3-1-1.7-1.6
	c-0.4-0.6-0.6-1.1-0.6-1.7c0-0.5,0.1-0.9,0.4-1.3c0.3-0.3,0.6-0.6,1-0.7c0.4-0.1,1.4-0.2,2.9-0.2c1.6,0,2.8-0.1,3.7-0.1
	c0.5,0,0.8,0,0.9-0.1c0.1,0,0.2-0.2,0.2-0.4c0-0.3,0.1-0.4,0.2-0.4c0.1,0,0.2,0.2,0.2,0.5V390.7z M725.4,401.3
	c0.8,0.4,1.5,0.9,1.9,1.4c0.4,0.5,0.6,1,0.6,1.5c0,0.4-0.1,0.7-0.4,1c-0.3,0.3-0.6,0.4-1,0.4c-0.7,0-1.1-0.3-1.1-0.8
	c0-0.3,0.2-0.5,0.6-0.6c0.5-0.2,0.8-0.5,0.8-0.9c0-0.3-0.2-0.7-0.6-1c-0.4-0.4-0.9-0.6-1.4-0.7c-0.5-0.1-1.5-0.2-3.1-0.2
	c-1.5,0-2.3,0.1-2.5,0.2c-0.2,0.1-0.4,0.4-0.4,0.8c0,0.1-0.1,0.2-0.2,0.2c-0.2,0-0.2-0.2-0.2-0.5v-3.2c0-0.2,0.1-0.3,0.2-0.3
	c0.1,0,0.2,0.2,0.2,0.5c0,0.4,0.2,0.7,0.4,0.8c0.3,0.1,1.2,0.2,2.9,0.2c2.5,0,3.9,0,4.4-0.1c0.5-0.1,0.8-0.4,0.8-1
	c0-0.2,0.1-0.4,0.2-0.4c0.1,0,0.1,0,0.2,0.1c0,0,0.1,0.4,0.1,0.9l0.1,1.9C727.4,401.2,726.6,401.3,725.4,401.3z M719.7,411.7
	c-0.5-0.3-0.9-0.7-1.2-1.2c-0.3-0.5-0.4-1-0.4-1.6c0-0.7,0.2-1.2,0.6-1.6c0.4-0.4,0.9-0.6,1.6-0.6c0.5,0,1,0.1,1.4,0.4
	c0.4,0.2,0.7,0.5,0.9,0.8c0.2,0.3,0.4,0.8,0.7,1.6c0.4,1.1,0.7,1.7,1,1.9c0.3,0.2,0.6,0.3,1,0.3c0.7,0,1.2-0.1,1.6-0.4
	c0.4-0.3,0.6-0.7,0.6-1.2c0-0.4-0.1-0.7-0.3-1c-0.2-0.2-0.6-0.4-1.3-0.5c-0.7-0.1-1-0.4-1-0.8c0-0.1,0.1-0.3,0.2-0.5
	c0.2-0.2,0.4-0.3,0.7-0.3c0.6,0,1.1,0.3,1.5,0.8c0.4,0.6,0.6,1.3,0.6,2.3c0,0.8-0.1,1.4-0.4,1.9c-0.2,0.5-0.5,0.8-0.8,0.9
	c-0.3,0.1-0.9,0.2-1.8,0.2l-3-0.1c-1.2,0-2,0.1-2.5,0.2c-0.5,0.1-0.7,0.4-0.7,0.7c0,0.1,0,0.2,0,0.3l0,0.2c0,0.2-0.1,0.2-0.2,0.2
	c-0.3,0-0.4-0.7-0.4-2c0-0.4,0.1-0.6,0.3-0.8C718.7,411.8,719.1,411.8,719.7,411.7z M724.1,411.7c-0.3-0.2-0.6-0.7-1.1-1.4
	c-0.4-0.7-0.8-1.2-1.2-1.5c-0.4-0.3-0.8-0.5-1.4-0.5c-0.5,0-0.9,0.1-1.2,0.4c-0.3,0.3-0.5,0.6-0.5,1c0,0.4,0.1,0.8,0.4,1.1
	c0.3,0.3,0.6,0.6,1,0.8c0.4,0.2,1,0.2,1.8,0.2C722.7,411.8,723.4,411.8,724.1,411.7z M733.7,418.1c-0.9,0-1.9,0-2.8,0l-7,0l-3.4,0
	c-0.6,0-1.1,0.1-1.4,0.2c-0.3,0.2-0.5,0.5-0.5,1.1c0,0.2-0.1,0.3-0.2,0.3c-0.1,0-0.2-0.1-0.2-0.3c0,0,0-0.1,0-0.2
	c0.1-0.7,0.1-1.5,0.1-2.5c0-0.6,0-1.1-0.1-1.4c0-0.1,0-0.1,0-0.2c0-0.2,0.1-0.3,0.2-0.3c0.1,0,0.2,0.1,0.2,0.3c0,0.6,0.2,1,0.6,1.2
	c0.4,0.2,1,0.3,1.9,0.3l6.4,0c2.1,0,3.3,0,3.7-0.1c0.4,0,0.7-0.2,1-0.4c0.3-0.2,0.4-0.6,0.5-1c0-0.3,0.1-0.4,0.2-0.4
	c0.1,0,0.2,0.1,0.2,0.3c0.1,1.2,0.3,2.2,0.5,2.8V418.1z M726.2,432.9c-0.4,1.3-0.9,2.2-1.5,2.8c-0.7,0.6-1.5,0.9-2.4,0.9
	c-1,0-2-0.4-2.8-1.2c-0.9-0.8-1.3-1.9-1.3-3.4c0-0.3,0-0.7,0.1-1.4c0-0.4,0-0.6,0-0.6c0-2.1,0-3.5-0.1-4.2c0-0.2,0.1-0.4,0.2-0.4
	c0.1,0,0.1,0,0.2,0.1c0,0.1,0.1,0.3,0.2,0.8c0.1,0.3,0.2,0.5,0.4,0.6c0.2,0.2,0.6,0.3,1.2,0.4c0.6,0.1,1.6,0.1,2.8,0.1
	c1.2,0,2.2,0,2.9,0c0.7,0,1.3,0,1.7,0c1.2,0,2.2,0,3-0.1c0.8-0.1,1.2-0.2,1.4-0.4c0.2-0.2,0.4-0.5,0.4-1c0-0.2,0.1-0.3,0.2-0.3
	c0.1,0,0.2,0.1,0.2,0.3l0,1.8c0,0.6,0,1.2,0,1.7c0.1,1.2,0.1,1.9,0.1,2.3c0,1.3-0.3,2.2-0.9,3c-0.6,0.7-1.4,1.1-2.5,1.1
	c-0.8,0-1.5-0.2-2.1-0.7C727.1,434.8,726.6,434,726.2,432.9z M725.7,429.4c-0.2-0.1-0.5-0.1-1-0.1l-3.5-0.1c-1.2,0-1.9,0-2.1,0.1
	c-0.1,0.1-0.3,0.3-0.4,0.6c-0.1,0.3-0.1,0.9-0.1,1.6c0,0.6,0.1,1.2,0.3,1.6c0.2,0.4,0.6,0.8,1.2,1.1c0.6,0.3,1.3,0.5,2.1,0.5
	c1.2,0,2.1-0.3,2.7-1c0.6-0.6,0.9-1.6,0.9-2.9C725.8,430.4,725.8,429.9,725.7,429.4z M732.4,429.4c-1.6-0.1-3-0.1-4-0.1l-1.7,0
	c-0.2,0-0.4,0-0.4,0.1c-0.1,0.1-0.1,0.2-0.1,0.5c0,1.3,0.3,2.3,0.8,3.1c0.5,0.8,1.4,1.2,2.6,1.2c1,0,1.8-0.3,2.3-0.9
	c0.5-0.6,0.8-1.3,0.8-2.2C732.8,430.6,732.7,430,732.4,429.4z M719.7,443c-0.5-0.3-0.9-0.7-1.2-1.2c-0.3-0.5-0.4-1-0.4-1.6
	c0-0.7,0.2-1.2,0.6-1.6c0.4-0.4,0.9-0.6,1.6-0.6c0.5,0,1,0.1,1.4,0.4c0.4,0.2,0.7,0.5,0.9,0.8c0.2,0.3,0.4,0.8,0.7,1.6
	c0.4,1.1,0.7,1.7,1,1.9c0.3,0.2,0.6,0.3,1,0.3c0.7,0,1.2-0.1,1.6-0.4c0.4-0.3,0.6-0.7,0.6-1.2c0-0.4-0.1-0.7-0.3-1
	c-0.2-0.2-0.6-0.4-1.3-0.5c-0.7-0.1-1-0.4-1-0.8c0-0.1,0.1-0.3,0.2-0.5c0.2-0.2,0.4-0.3,0.7-0.3c0.6,0,1.1,0.3,1.5,0.8
	c0.4,0.6,0.6,1.3,0.6,2.3c0,0.8-0.1,1.4-0.4,1.9c-0.2,0.5-0.5,0.8-0.8,0.9c-0.3,0.1-0.9,0.2-1.8,0.2l-3-0.1c-1.2,0-2,0.1-2.5,0.2
	c-0.5,0.1-0.7,0.4-0.7,0.7c0,0.1,0,0.2,0,0.3l0,0.2c0,0.2-0.1,0.2-0.2,0.2c-0.3,0-0.4-0.7-0.4-2c0-0.4,0.1-0.6,0.3-0.8
	C718.7,443.1,719.1,443,719.7,443z M724.1,443c-0.3-0.2-0.6-0.7-1.1-1.4c-0.4-0.7-0.8-1.2-1.2-1.5c-0.4-0.3-0.8-0.5-1.4-0.5
	c-0.5,0-0.9,0.1-1.2,0.4c-0.3,0.3-0.5,0.6-0.5,1c0,0.4,0.1,0.8,0.4,1.1c0.3,0.3,0.6,0.6,1,0.8c0.4,0.2,1,0.2,1.8,0.2
	C722.7,443.1,723.4,443,724.1,443z M727.9,449c-0.3,0-0.6,0-0.9,0c-0.2,0-0.6,0-1,0c0.7,0.7,1.2,1.2,1.4,1.5
	c0.2,0.4,0.3,0.8,0.3,1.2c0,1-0.5,1.9-1.4,2.7c-1,0.7-2.1,1.1-3.4,1.1c-1.4,0-2.5-0.4-3.4-1.3c-0.9-0.8-1.3-1.8-1.3-2.9
	c0-0.8,0.3-1.5,0.8-2.3c-0.9-0.1-1.9-0.2-3.1-0.2c-0.7,0-1.2,0-1.5,0.1l-0.4,0c-0.5,0.1-0.8,0.5-0.9,1c0,0.2-0.1,0.3-0.3,0.3l-0.1,0
	l0-0.1c0.1-0.8,0.1-1.5,0.1-2c0-1.2,0-1.9,0-2.2c0-0.2,0.1-0.2,0.2-0.2c0.1,0,0.2,0.1,0.2,0.2c0.1,0.6,0.2,1,0.5,1.2
	c0.2,0.2,1.3,0.3,3.2,0.3c1.9,0,3.1,0.1,3.5,0.1l3.1,0l1.8,0c0.9,0,1.6-0.1,1.8-0.2c0.3-0.1,0.4-0.4,0.5-0.9c0-0.2,0.1-0.2,0.2-0.2
	c0.1,0,0.1,0,0.2,0.1c0,0.1,0.1,0.4,0.1,0.9L727.9,449z M722.9,448.9c-1.4,0-2.3,0-2.6,0.1c-0.4,0.1-0.7,0.3-1.1,0.7
	c-0.3,0.4-0.5,0.9-0.5,1.5c0,0.8,0.4,1.5,1.2,2c0.8,0.5,1.7,0.8,2.9,0.8c1.3,0,2.3-0.3,3.1-0.8c0.8-0.5,1.2-1.1,1.2-1.9
	c0-0.7-0.3-1.3-1-1.7S724.3,448.9,722.9,448.9z M726.9,459.6c-1.7-0.1-3.3-0.1-4.9-0.1c-1.2,0-2,0.1-2.4,0.4
	c-0.4,0.3-0.6,0.6-0.6,1.1c0,0.4,0.1,0.8,0.4,1.2c0.1,0.2,0.2,0.3,0.2,0.3c0,0.1-0.1,0.1-0.2,0.1c-0.2,0-0.5-0.2-0.9-0.7
	c-0.4-0.5-0.6-1.1-0.6-1.8c0-0.7,0.3-1.2,0.8-1.6c0.5-0.3,1.3-0.5,2.4-0.5c1.1,0,3,0.1,5.7,0.2c0,0,0-0.4,0.1-1l0-0.6
	c0-0.1,0.1-0.2,0.2-0.2c0.1,0,0.2,0.1,0.2,0.3c0.1,0.3,0.4,0.7,1,1.4c0.5,0.7,1.3,1,2.3,1.1c0.3,0,0.4,0.1,0.4,0.2
	c0,0.1-0.1,0.2-0.3,0.2c-0.1,0-0.1,0-0.2,0c-0.3,0-0.6,0-1,0l-1.8,0l0,2.2c0,0.4,0,0.6-0.1,0.6c-0.3,0-0.6-0.1-0.7-0.2
	C727.1,461.9,727,461,726.9,459.6z M727.9,466l-2.5,0l-2.4,0h-1.8l-1.4,0c-0.5,0-0.9,0.1-1,0.2c-0.1,0.2-0.2,0.4-0.2,0.7
	c0,0.4-0.1,0.6-0.3,0.6c-0.1,0-0.2-0.1-0.2-0.2c0-0.1,0-0.1,0-0.2c0.1-0.6,0.1-1.2,0.1-1.8c0-0.9,0-1.5-0.1-1.8c0-0.1,0-0.1,0-0.2
	c0-0.2,0.1-0.2,0.2-0.2c0.1,0,0.2,0.2,0.3,0.6c0.1,0.4,0.1,0.6,0.3,0.7c0.1,0.1,0.5,0.2,1.1,0.2l4.7,0.1c1.2,0,2-0.1,2.2-0.3
	c0.2-0.2,0.4-0.5,0.4-1c0-0.2,0.1-0.2,0.2-0.2c0.1,0,0.1,0,0.2,0.1c0,0.1,0.1,0.5,0.1,1.2C727.9,465.2,727.9,465.7,727.9,466z
	 M733.5,464.9c0,0.3-0.1,0.5-0.3,0.7c-0.2,0.2-0.4,0.3-0.7,0.3c-0.3,0-0.5-0.1-0.8-0.2c-0.2-0.2-0.3-0.4-0.3-0.7
	c0-0.3,0.1-0.5,0.3-0.7c0.2-0.2,0.4-0.3,0.7-0.3c0.3,0,0.6,0.1,0.8,0.3C733.4,464.4,733.5,464.6,733.5,464.9z M721.2,474.7
	c-0.9,0-1.6-0.3-2.2-0.9c-0.6-0.6-0.9-1.3-0.9-2.1c0-0.5,0.2-1,0.5-1.7c0.2-0.4,0.3-0.6,0.3-0.6c0-0.1-0.1-0.2-0.2-0.3
	c-0.2-0.1-0.3-0.2-0.3-0.3c0-0.1,0.1-0.1,0.3-0.2c0.2,0,0.7,0,1.5,0c0.7,0,1.1,0,1.3,0c0.3,0,0.4,0.1,0.4,0.2c0,0.1-0.1,0.1-0.2,0.2
	c-0.9,0.3-1.6,0.6-2.2,1.1c-0.6,0.5-0.9,1-0.9,1.7c0,0.5,0.2,0.9,0.5,1.2c0.3,0.4,0.7,0.5,1.3,0.5c0.8,0,1.6-0.6,2.2-1.9
	c0.4-0.9,0.8-1.5,1-1.8c0.2-0.3,0.5-0.5,0.8-0.7c0.3-0.2,0.7-0.3,1.1-0.3c0.8,0,1.4,0.3,1.9,0.8c0.5,0.5,0.8,1.2,0.8,1.9
	c0,0.6-0.2,1.2-0.6,1.8c-0.1,0.1-0.1,0.2-0.1,0.3c0,0.1,0.1,0.1,0.2,0.2c0.1,0.1,0.2,0.1,0.2,0.2c0,0.1,0,0.1-0.1,0.1
	c-0.1,0-0.4,0.1-1,0.1c-0.6,0-1.1,0.1-1.5,0.1c-0.2,0-0.4-0.1-0.4-0.2c0-0.1,0.1-0.2,0.3-0.2c0.2-0.1,0.6-0.2,1.2-0.5
	c0.6-0.3,0.9-0.6,1.1-0.9c0.2-0.3,0.2-0.6,0.2-0.9c0-0.5-0.1-0.9-0.4-1.2c-0.3-0.3-0.6-0.5-1-0.5c-0.3,0-0.5,0.1-0.7,0.2
	c-0.2,0.1-0.4,0.2-0.5,0.4c-0.1,0.1-0.5,0.8-1,1.9c-0.4,0.7-0.7,1.2-0.8,1.4c-0.2,0.2-0.5,0.4-0.8,0.6
	C722,474.6,721.6,474.7,721.2,474.7z M728,478.7c-0.3,0.1-0.6,0.1-0.8,0.1c-0.4,0-0.7,0-1.1,0c0.6,0.5,1.1,1,1.4,1.5
	c0.3,0.5,0.5,1,0.5,1.6c0,0.5-0.1,0.9-0.4,1.3c-0.3,0.4-0.6,0.8-1.2,1.1c0.5,0.5,0.9,1,1.2,1.5c0.3,0.5,0.4,1,0.4,1.5
	c0,0.7-0.2,1.2-0.5,1.6c-0.3,0.4-0.6,0.7-1,0.8c-0.4,0.1-1,0.2-2,0.2l-4.2,0c-0.6,0-1,0.1-1.3,0.2c-0.2,0.1-0.3,0.3-0.3,0.7
	c0,0.2-0.1,0.3-0.2,0.3c-0.1,0-0.2-0.2-0.2-0.6v-3.1c0-0.3,0.1-0.5,0.2-0.5c0.1,0,0.2,0.1,0.2,0.3c0,0.6,0.2,0.9,0.4,1
	c0.3,0.1,1.6,0.2,4.1,0.2c1.2,0,2,0,2.5-0.1c0.5-0.1,0.9-0.3,1.2-0.6c0.3-0.3,0.5-0.6,0.5-1.1c0-0.4-0.1-0.7-0.4-1.1
	c-0.3-0.4-0.6-0.7-1.1-1c-1-0.3-2.7-0.4-5.2-0.4c-0.9,0-1.4,0.1-1.7,0.2c-0.2,0.1-0.3,0.4-0.3,0.8v0.2c0,0.2-0.1,0.3-0.2,0.3
	c-0.1,0-0.2-0.1-0.2-0.4v-3.4c0-0.3,0.1-0.5,0.2-0.5c0.1,0,0.2,0.1,0.2,0.3c0,0.4,0.1,0.7,0.3,0.8c0.2,0.1,0.7,0.2,1.6,0.3
	c0.9,0,1.8,0.1,2.7,0.1c1.6,0,2.7-0.1,3.2-0.4c0.5-0.3,0.8-0.7,0.8-1.2c0-0.5-0.2-0.9-0.6-1.4c-0.4-0.5-1-0.8-1.6-0.9
	c-0.7-0.2-1.9-0.2-3.7-0.2c-1.2,0-2,0.1-2.3,0.2c-0.3,0.1-0.4,0.4-0.4,0.8c0,0.2,0,0.3,0,0.3c0,0-0.1,0.1-0.2,0.1
	c-0.1,0-0.2-0.1-0.2-0.4v-3.1c0-0.4,0.1-0.6,0.2-0.6c0.1,0,0.2,0.1,0.2,0.2c0,0.4,0.1,0.6,0.2,0.7c0.1,0.1,0.5,0.2,1.2,0.3
	c0.7,0.1,1.8,0.1,3.3,0.1c1.5,0,2.5,0,2.8,0c0.3,0,0.6-0.1,0.8-0.3c0.2-0.2,0.3-0.5,0.3-0.9c0-0.2,0.1-0.3,0.2-0.3
	c0.1,0,0.1,0,0.2,0.1c0,0,0.1,0.4,0.1,0.9c0.1,0.6,0.1,1.1,0.1,1.5C728,478.3,728,478.5,728,478.7z M696.6,369.5c0-0.3,0-0.5,0-0.6
	c0-0.3,0-0.7,0-1.4c0-0.7,0-2,0-4.1v-2.6c0-0.1,0-0.4-0.1-1c0-0.6-0.1-1-0.1-1.1c0-0.5,0.1-0.8,0.2-0.8c0.1,0,0.2,0.1,0.2,0.3
	c0,0.7,0.2,1.1,0.5,1.4c0.3,0.3,0.6,0.4,1.1,0.5c0.5,0.1,1.9,0.1,4.1,0.1l4,0c1.3,0,2.2-0.1,2.7-0.2c0.5-0.1,0.9-0.3,1.2-0.6
	c0.3-0.3,0.4-0.7,0.5-1.1c0-0.2,0.1-0.3,0.2-0.3c0.1,0,0.2,0.1,0.2,0.3c0,0,0,0.1,0,0.3c-0.1,1.1-0.1,2.3-0.1,3.8l0,1.8
	c0,0.2-0.1,0.3-0.2,0.3c-0.1,0-0.2-0.1-0.2-0.3c0-0.5-0.1-0.9-0.3-1.2c-0.2-0.3-0.5-0.5-0.7-0.6c-0.3-0.1-0.8-0.2-1.6-0.2l-5.3-0.1
	l-3,0c-0.9,0-1.5,0-1.8,0.1c-0.3,0.1-0.5,0.2-0.7,0.4c-0.2,0.2-0.3,0.6-0.3,1.2c0,0,0,0.7,0.1,1.8c0.1,0.9,0.6,1.8,1.5,2.5
	c0.9,0.7,1.6,1.2,2.3,1.5c0.2,0.1,0.3,0.2,0.3,0.3c0,0.1-0.1,0.2-0.3,0.2c-0.2,0-1-0.1-2.3-0.3C697.6,369.6,696.8,369.5,696.6,369.5
	z M706.4,373.5l-2.5,0l-2.4,0h-1.8l-1.4,0c-0.5,0-0.9,0.1-1,0.2c-0.1,0.2-0.2,0.4-0.2,0.7c0,0.4-0.1,0.6-0.3,0.6
	c-0.1,0-0.2-0.1-0.2-0.2c0-0.1,0-0.1,0-0.2c0.1-0.6,0.1-1.2,0.1-1.8c0-0.9,0-1.5-0.1-1.8c0-0.1,0-0.1,0-0.2c0-0.2,0.1-0.2,0.2-0.2
	c0.1,0,0.2,0.2,0.3,0.6c0.1,0.4,0.1,0.6,0.3,0.7c0.1,0.1,0.5,0.2,1.1,0.2l4.7,0.1c1.2,0,2-0.1,2.2-0.3c0.2-0.2,0.4-0.5,0.4-1
	c0-0.2,0.1-0.2,0.2-0.2c0.1,0,0.1,0,0.2,0.1c0,0.1,0.1,0.5,0.1,1.2C706.3,372.6,706.4,373.2,706.4,373.5z M711.9,372.3
	c0,0.3-0.1,0.5-0.3,0.7c-0.2,0.2-0.4,0.3-0.7,0.3c-0.3,0-0.5-0.1-0.8-0.2c-0.2-0.2-0.3-0.4-0.3-0.7c0-0.3,0.1-0.5,0.3-0.7
	c0.2-0.2,0.4-0.3,0.7-0.3c0.3,0,0.6,0.1,0.8,0.3C711.8,371.8,711.9,372.1,711.9,372.3z M698.7,380.7c3.6,1.5,5.8,2.2,6.5,2.2
	c0.3,0,0.5-0.2,0.6-0.6c0-0.2,0.1-0.3,0.2-0.3c0.1,0,0.2,0.1,0.2,0.3l0,1.5l0,0.9c0,0.2-0.1,0.3-0.2,0.3c-0.1,0-0.2-0.1-0.2-0.2
	c-0.1-0.6-0.3-1-0.8-1.2c-0.5-0.3-1.3-0.6-2.5-1c-2-0.7-3.4-1.2-4.2-1.6c-0.7-0.3-1.2-0.5-1.4-0.6c-0.3-0.1-0.4-0.2-0.4-0.3
	c0-0.1,0.2-0.2,0.5-0.3l2.9-1.2l3.1-1.3c1.1-0.4,1.8-0.7,2.1-0.9c0.3-0.2,0.5-0.3,0.6-0.4c0.1-0.1,0.1-0.3,0.2-0.5
	c0-0.2,0.1-0.2,0.2-0.2c0.1,0,0.2,0.1,0.2,0.3l0,1.8c0,0.8,0,1.3,0,1.4c0,0.2-0.1,0.4-0.2,0.4c-0.1,0-0.2-0.1-0.2-0.4
	c-0.1-0.3-0.3-0.5-0.6-0.5C704.6,378.2,702.4,379,698.7,380.7z M706.4,388.4l-2.5,0l-2.4,0h-1.8l-1.4,0c-0.5,0-0.9,0.1-1,0.2
	c-0.1,0.2-0.2,0.4-0.2,0.7c0,0.4-0.1,0.6-0.3,0.6c-0.1,0-0.2-0.1-0.2-0.2c0-0.1,0-0.1,0-0.2c0.1-0.6,0.1-1.2,0.1-1.8
	c0-0.9,0-1.5-0.1-1.8c0-0.1,0-0.1,0-0.2c0-0.2,0.1-0.2,0.2-0.2c0.1,0,0.2,0.2,0.3,0.6c0.1,0.4,0.1,0.6,0.3,0.7
	c0.1,0.1,0.5,0.2,1.1,0.2l4.7,0.1c1.2,0,2-0.1,2.2-0.3c0.2-0.2,0.4-0.5,0.4-1c0-0.2,0.1-0.2,0.2-0.2c0.1,0,0.1,0,0.2,0.1
	c0,0.1,0.1,0.5,0.1,1.2C706.3,387.6,706.4,388.1,706.4,388.4z M711.9,387.3c0,0.3-0.1,0.5-0.3,0.7c-0.2,0.2-0.4,0.3-0.7,0.3
	c-0.3,0-0.5-0.1-0.8-0.2c-0.2-0.2-0.3-0.4-0.3-0.7c0-0.3,0.1-0.5,0.3-0.7c0.2-0.2,0.4-0.3,0.7-0.3c0.3,0,0.6,0.1,0.8,0.3
	C711.8,386.8,711.9,387,711.9,387.3z M706.3,393.1c-0.4,0.2-1.2,0.3-2.2,0.3c0.7,0.4,1.3,0.9,1.7,1.4c0.4,0.5,0.6,1.1,0.6,1.7
	c0,0.5-0.1,0.9-0.3,1.3c-0.2,0.4-0.5,0.8-1,1c-0.5,0.2-1.3,0.4-2.4,0.4l-3.8-0.1c-0.7,0-1.1,0.1-1.3,0.2c-0.2,0.1-0.3,0.3-0.4,0.7
	c-0.1,0.2-0.2,0.4-0.2,0.4c-0.1,0-0.2-0.1-0.2-0.2c0,0,0-0.1,0-0.1c0.1-0.3,0.1-0.8,0.1-1.4c0-0.5,0-1.1-0.1-1.8
	c0-0.2,0.1-0.4,0.2-0.4c0.1,0,0.1,0.1,0.2,0.2c0.1,0.4,0.2,0.6,0.3,0.7c0.1,0.1,0.2,0.2,0.4,0.2c0.2,0,0.7,0.1,1.6,0.1
	c0.9,0,1.7,0,2.3,0c1.6,0,2.6-0.2,3.2-0.5c0.5-0.4,0.8-0.8,0.8-1.3c0-0.8-0.5-1.4-1.4-2c-1-0.5-2.5-0.8-4.8-0.8
	c-1,0-1.6,0.1-1.9,0.2c-0.3,0.1-0.4,0.4-0.5,0.9c0,0.1-0.1,0.2-0.2,0.2c-0.1,0-0.2-0.1-0.2-0.2l0-0.5c0-0.2,0-0.8,0-1.9l0-0.8
	c0-0.3,0.1-0.4,0.2-0.4c0.1,0,0.2,0.2,0.3,0.5c0.1,0.3,0.2,0.5,0.4,0.6c0.2,0.1,0.7,0.2,1.7,0.2c1,0,2.1,0.1,3.6,0.1
	c1.3,0,2.2-0.1,2.5-0.2c0.3-0.2,0.5-0.4,0.6-0.7c0.1-0.3,0.2-0.4,0.3-0.4c0.1,0,0.2,0.1,0.2,0.3l0,0.8
	C706.3,391.8,706.3,392.3,706.3,393.1z M704.8,408.5c-0.5,0.3-1.1,0.5-1.8,0.5c-1,0-1.8-0.3-2.5-0.9c-0.7-0.6-1.1-1.4-1.2-2.5
	c-0.1-0.7-0.1-1.2-0.2-1.4c-0.1-0.3-0.2-0.5-0.4-0.7c-0.2-0.2-0.4-0.3-0.6-0.3c-0.3,0-0.5,0.2-0.7,0.5c-0.2,0.3-0.2,1-0.3,2
	c-0.1,1.5-0.1,2.5-0.2,3c-0.1,0.5-0.3,0.9-0.8,1.3c-0.4,0.4-1,0.5-1.7,0.5c-1.1,0-2.1-0.5-2.8-1.4c-0.7-0.9-1.1-2.2-1.1-4
	c0-1.3,0.2-2.3,0.6-3c0.4-0.7,0.9-1,1.7-1c1.2,0,2.1,1,2.9,3c0.1-0.8,0.4-1.4,0.6-1.8c0.3-0.3,0.6-0.5,1.1-0.5
	c0.5,0,0.9,0.2,1.3,0.5c0.4,0.4,0.7,0.9,0.9,1.6c0.2-0.6,0.6-1.2,1.1-1.6c0.5-0.4,1.1-0.6,1.9-0.6c1,0,1.9,0.4,2.7,1.1
	c0.8,0.7,1.2,1.6,1.2,2.7c0,1.1-0.4,1.9-1.2,2.6c0.9,0.7,1.3,1.3,1.3,2c0,0.4-0.1,0.8-0.4,1c-0.3,0.2-0.6,0.4-0.9,0.4
	c-0.2,0-0.4-0.1-0.5-0.2c-0.1-0.1-0.2-0.3-0.2-0.5c0-0.3,0.2-0.6,0.7-0.8c0.3-0.1,0.4-0.3,0.4-0.4
	C705.6,409.4,705.3,409,704.8,408.5z M695.6,406.3c0-0.7-0.1-1.4-0.4-2c-0.3-0.6-0.6-1-0.9-1.3c-0.4-0.3-0.8-0.4-1.3-0.4
	c-0.7,0-1.2,0.3-1.5,0.9c-0.3,0.6-0.5,1.3-0.5,2.2c0,1.3,0.3,2.3,0.9,2.9c0.6,0.6,1.2,1,1.9,1c0.6,0,1.1-0.3,1.4-0.8
	C695.5,408.1,695.6,407.3,695.6,406.3z M702.9,403.6c-1.1,0-1.9,0.2-2.4,0.7c-0.5,0.4-0.7,0.9-0.7,1.4c0,0.5,0.2,0.9,0.7,1.2
	c0.5,0.4,1.2,0.5,2.2,0.5c1,0,1.8-0.2,2.4-0.5c0.6-0.4,0.8-0.8,0.8-1.3c0-0.6-0.3-1-0.8-1.4C704.6,403.8,703.8,403.6,702.9,403.6z
	 M704.2,420.7l-2.8,0c-1.9,0-3,0-3.3,0.1c-0.2,0.1-0.5,0.2-0.7,0.3c-0.2,0.2-0.4,0.6-0.4,1.1c0,0.3-0.1,0.5-0.2,0.5
	c-0.2,0-0.2-0.1-0.2-0.3c0-0.1,0-0.3,0.1-0.6c0.1-0.7,0.1-1.3,0.1-1.9c0-0.5,0-1.1-0.1-1.9l0-0.6c0-0.2,0.1-0.3,0.2-0.3
	c0.2,0,0.2,0.2,0.2,0.5c0,0.4,0.1,0.7,0.4,0.9c0.3,0.2,1,0.3,2.1,0.4c1.1,0.1,2.6,0.1,4.4,0.1c1.7,0,3.1,0,4.1-0.1
	c1-0.1,1.6-0.1,1.9-0.2c0.3-0.1,0.5-0.2,0.7-0.4c0.1-0.2,0.2-0.6,0.3-1.1c0-0.2,0.1-0.3,0.2-0.3c0.1,0,0.2,0.1,0.2,0.3
	c0.2,1.7,0.2,4.9,0.2,9.6c0,0.8,0,1.2,0,1.3c0,0.1-0.1,0.1-0.1,0.2c-0.1,0-0.6,0.1-1.6,0.3c-1,0.2-1.5,0.2-1.5,0.2
	c-0.2,0-0.2-0.1-0.2-0.2c0-0.1,0.1-0.2,0.2-0.3c1.8-1,2.8-2.5,2.8-4.6c0-0.7,0-1.3-0.1-1.8c-0.1-0.5-0.2-0.7-0.3-0.8
	c-0.1-0.1-0.6-0.1-1.4-0.1c-0.8,0-2.3,0-4.4,0c0,0.5,0,0.9,0,1.1c0,1,0.2,1.7,0.7,2c0.5,0.4,0.9,0.6,1.4,0.6c0.3,0,0.5,0.1,0.5,0.2
	c0,0.1-0.1,0.2-0.3,0.2c-0.1,0-0.2,0-0.3,0c-0.4-0.1-1.5-0.1-3.3-0.1H702c-0.3,0-0.5-0.1-0.5-0.3c0-0.1,0.1-0.2,0.3-0.2
	c0.7,0,1.2-0.2,1.7-0.6c0.4-0.4,0.6-1.1,0.6-2.2C704.2,421.4,704.2,421.1,704.2,420.7z M701.9,429.8c-0.4,0-0.7,0-0.9,0
	c-1.1,0-2,0.3-2.7,0.8c-0.7,0.6-1.1,1.3-1.1,2.1c0,0.8,0.4,1.6,1.1,2.3c0.2,0.2,0.3,0.3,0.3,0.4c0,0.1-0.1,0.2-0.3,0.2
	c-0.5-0.3-1-0.7-1.3-1.3c-0.4-0.6-0.5-1.3-0.5-2.1c0-1.1,0.4-2.1,1.3-2.9c0.9-0.8,2-1.2,3.4-1.2c1.5,0,2.7,0.4,3.7,1.3
	c1,0.9,1.5,1.8,1.5,2.7c0,0.9-0.4,1.7-1.2,2.5c-0.8,0.7-1.7,1.1-2.7,1.1c-0.2,0-0.3,0-0.4-0.1c-0.1,0-0.1-0.3-0.1-0.8L701.9,429.8z
	 M702.5,429.8c0,0.9-0.1,1.7-0.1,2.6l0,0.5c0,0.4,0.1,0.7,0.3,0.9c0.2,0.2,0.4,0.3,0.9,0.3c0.6,0,1.2-0.2,1.7-0.6
	c0.5-0.4,0.7-0.9,0.7-1.4c0-0.5-0.3-1-0.8-1.5C704.6,430.2,703.7,429.9,702.5,429.8z M698.1,441.7c-0.5-0.3-0.9-0.7-1.2-1.2
	c-0.3-0.5-0.4-1-0.4-1.6c0-0.7,0.2-1.2,0.6-1.6c0.4-0.4,0.9-0.6,1.6-0.6c0.5,0,1,0.1,1.4,0.4c0.4,0.2,0.7,0.5,0.9,0.8
	c0.2,0.3,0.4,0.8,0.7,1.6c0.4,1.1,0.7,1.7,1,1.9c0.3,0.2,0.6,0.3,1,0.3c0.7,0,1.2-0.1,1.6-0.4c0.4-0.3,0.6-0.7,0.6-1.2
	c0-0.4-0.1-0.7-0.3-1c-0.2-0.2-0.6-0.4-1.3-0.5c-0.7-0.1-1-0.4-1-0.8c0-0.1,0.1-0.3,0.2-0.5c0.2-0.2,0.4-0.3,0.7-0.3
	c0.6,0,1.1,0.3,1.5,0.8c0.4,0.6,0.6,1.3,0.6,2.3c0,0.8-0.1,1.4-0.4,1.9c-0.2,0.5-0.5,0.8-0.8,0.9c-0.3,0.1-0.9,0.2-1.8,0.2l-3-0.1
	c-1.2,0-2,0.1-2.5,0.2c-0.5,0.1-0.7,0.4-0.7,0.7c0,0.1,0,0.2,0,0.3l0,0.2c0,0.2-0.1,0.2-0.2,0.2c-0.3,0-0.4-0.7-0.4-2
	c0-0.4,0.1-0.6,0.3-0.8C697.1,441.8,697.5,441.8,698.1,441.7z M702.5,441.7c-0.3-0.2-0.6-0.7-1.1-1.4c-0.4-0.7-0.8-1.2-1.2-1.5
	c-0.4-0.3-0.8-0.5-1.4-0.5c-0.5,0-0.9,0.1-1.2,0.4s-0.5,0.6-0.5,1c0,0.4,0.1,0.8,0.4,1.1c0.3,0.3,0.6,0.6,1,0.8
	c0.4,0.2,1,0.2,1.8,0.2C701.1,441.8,701.8,441.8,702.5,441.7z M699.7,451.7c-0.9,0-1.6-0.3-2.2-0.9c-0.6-0.6-0.9-1.3-0.9-2.1
	c0-0.5,0.2-1,0.5-1.7c0.2-0.4,0.3-0.6,0.3-0.6c0-0.1-0.1-0.2-0.2-0.3c-0.2-0.1-0.3-0.2-0.3-0.3c0-0.1,0.1-0.1,0.3-0.2
	c0.2,0,0.7,0,1.5,0c0.7,0,1.1,0,1.3,0c0.3,0,0.4,0.1,0.4,0.2c0,0.1-0.1,0.1-0.2,0.2c-0.9,0.3-1.6,0.6-2.2,1.1
	c-0.6,0.5-0.9,1-0.9,1.7c0,0.5,0.2,0.9,0.5,1.2c0.3,0.4,0.7,0.5,1.3,0.5c0.8,0,1.6-0.6,2.2-1.9c0.4-0.9,0.8-1.5,1-1.8
	c0.2-0.3,0.5-0.5,0.8-0.7c0.3-0.2,0.7-0.3,1.1-0.3c0.8,0,1.4,0.3,1.9,0.8c0.5,0.5,0.8,1.2,0.8,1.9c0,0.6-0.2,1.2-0.6,1.8
	c-0.1,0.1-0.1,0.2-0.1,0.3c0,0.1,0.1,0.1,0.2,0.2c0.1,0.1,0.2,0.1,0.2,0.2c0,0.1,0,0.1-0.1,0.1c-0.1,0-0.4,0.1-1,0.1
	c-0.6,0-1.1,0.1-1.5,0.1c-0.2,0-0.4-0.1-0.4-0.2c0-0.1,0.1-0.2,0.3-0.2c0.2-0.1,0.6-0.2,1.2-0.5c0.6-0.3,0.9-0.6,1.1-0.9
	c0.2-0.3,0.2-0.6,0.2-0.9c0-0.5-0.1-0.9-0.4-1.2c-0.3-0.3-0.6-0.5-1-0.5c-0.3,0-0.5,0.1-0.7,0.2c-0.2,0.1-0.4,0.2-0.5,0.4
	c-0.1,0.1-0.5,0.8-1,1.9c-0.4,0.7-0.7,1.2-0.8,1.4c-0.2,0.2-0.5,0.4-0.8,0.6C700.4,451.7,700,451.7,699.7,451.7z M705.3,456.2
	c-1.7-0.1-3.3-0.1-4.9-0.1c-1.2,0-2,0.1-2.4,0.4c-0.4,0.3-0.6,0.6-0.6,1.1c0,0.4,0.1,0.8,0.4,1.2c0.1,0.2,0.2,0.3,0.2,0.3
	c0,0.1-0.1,0.1-0.2,0.1c-0.2,0-0.5-0.2-0.9-0.7c-0.4-0.5-0.6-1.1-0.6-1.8c0-0.7,0.3-1.2,0.8-1.6c0.5-0.3,1.3-0.5,2.4-0.5
	c1.1,0,3,0.1,5.7,0.2c0,0,0-0.4,0.1-1l0-0.6c0-0.1,0.1-0.2,0.2-0.2c0.1,0,0.2,0.1,0.2,0.3c0.1,0.3,0.4,0.7,1,1.4
	c0.5,0.7,1.3,1,2.3,1.1c0.3,0,0.4,0.1,0.4,0.2s-0.1,0.2-0.3,0.2c-0.1,0-0.1,0-0.2,0c-0.3,0-0.6,0-1,0l-1.8,0l0,2.2
	c0,0.4,0,0.6-0.1,0.6c-0.3,0-0.6-0.1-0.7-0.2C705.5,458.5,705.4,457.6,705.3,456.2z"/>
<path id="_x36_" class="st19 op" d="M687.2,479.8v1.9h4.9l0,3.1h-4.7c-0.1,0-0.2,0.1-0.2,0.3v18.2c0,0.2,0.1,0.3,0.2,0.3h2v2.4h-6.9
	v-2.8h2.6c0.2,0,0.3-0.1,0.3-0.3v-17.8c0-0.1-0.1-0.2-0.3-0.3h-2.6v-3.2h2.9v-1.9h-10.6c-0.4,0-0.6,0.2-0.6,0.7v26.7
	c0,0.5,0.2,0.7,0.6,0.7h14.6h1.6h0.2v-4.3h3.5v4.3h1.4h0.4h4h0.6h1.2v-26.2v-0.6v-1.3H687.2z M683.4,486.8c0.1,0,0.1,0,0.1,0.1v14.4
	c0,0.1-0.1,0.1-0.1,0.2h-3.8c0,0,0,0-0.1-0.1v-14.4c0,0,0,0,0.1-0.1H683.4z M680.7,506h-4.5c-0.2,0-0.3-0.1-0.3-0.3V482
	c0-0.2,0.1-0.3,0.3-0.3h4.5v3.2H678c-0.1,0-0.2,0.1-0.2,0.3V503c0,0.2,0.1,0.3,0.2,0.3h2.6V506z M688.9,486.8
	C688.9,486.7,688.9,486.7,688.9,486.8l8.1-0.1c0.1,0,0.1,0,0.1,0.1v10.5h-5.1v-1.9h3.8l0-5.9h-7V486.8z M689,501.7
	C688.9,501.7,688.9,501.7,689,501.7l-0.1-10.3h5.1v1.9h-3.8l0,5.9l7,0v2.3c0,0.1,0,0.1-0.1,0.2H689z M700.5,506h-4v-2.4h2.2
	c0.2,0,0.3-0.1,0.3-0.3v-18.2c0-0.1-0.1-0.2-0.3-0.3H694l0-3.1h6.5V506z"/>
</svg>
