<svg xmlns="http://www.w3.org/2000/svg" width="1522.301" height="127.58" viewBox="0 0 1522.301 127.58">
  <g id="Group_523" data-name="Group 523" transform="translate(-165.754 -799.209)" opacity="0.7">
    <path id="Path_373" data-name="Path 373" d="M1687.577,889.425a1.321,1.321,0,0,0,.1-.327,29.263,29.263,0,0,0,.362-4.076c.259-12.927-5.519-17.766-10.616-22.036-3.283-2.75-6.384-5.347-7.418-9.793q-.067-.291-.118-.576v-2.029a1.767,1.767,0,1,0-3.533,0V901.8c-2.77-1.372-6.66-1.311-10.3.19-5.733,2.366-9.05,7.556-7.394,11.569,1.1,2.669,4.13,4.156,7.722,4.156a15,15,0,0,0,5.679-1.169c4.684-1.933,7.9-5.839,7.822-9.493l0-29.186a11.765,11.765,0,0,0,2.346,1.021c9.3,2.56,13.8,8.815,13.021,18.088a26.633,26.633,0,0,1-.561,3.669,1.343,1.343,0,1,0,2.618.6,29.144,29.144,0,0,0,.623-4.046A27.677,27.677,0,0,0,1687.577,889.425Zm-2.289-6.887c-2.144-4.076-5.242-6.655-8.006-8.956a26.85,26.85,0,0,1-5.6-5.67c.2.072.381.133.553.18C1680.2,870.286,1684.686,875.266,1685.288,882.538Z" fill="#fff"/>
    <path id="Path_374" data-name="Path 374" d="M1172,848.615a32.286,32.286,0,0,0-.2-11.043,1.344,1.344,0,0,0,.2-.522c2.281-14.031-4.932-20.971-10.728-26.548-3.3-3.171-6.142-5.909-6.944-9.358-.022-.095-.043-.19-.062-.284l-.019-.059c-.008-.022-.015-.054-.025-.1a1.717,1.717,0,0,0-1.779-1.5,1.768,1.768,0,0,0-1.766,1.766v51.21c-2.771-1.372-6.66-1.311-10.3.191-5.733,2.365-9.05,7.555-7.394,11.568,1.1,2.67,4.13,4.157,7.722,4.156a15.016,15.016,0,0,0,5.679-1.168c4.684-1.933,7.9-5.839,7.822-9.494l0-19.917a11.706,11.706,0,0,0,2.346,1.02c10.42,2.869,14.962,10.8,12.46,21.757a1.343,1.343,0,1,0,2.618.6,29.145,29.145,0,0,0,.251-11.916A1.339,1.339,0,0,0,1172,848.615Zm-16.112-21.229c.238.091.461.166.668.223,8.014,2.207,12.507,7.24,13.069,14.6-2.144-4.087-5.248-6.67-8.016-8.975A26.055,26.055,0,0,1,1155.885,827.386Zm5.722-5.083c-2.451-2.041-4.777-3.977-6.2-6.681a8.268,8.268,0,0,0,1.146.422c8.223,2.264,12.73,7.538,13.1,15.294C1167.532,827.235,1164.524,824.731,1161.607,822.3Z" fill="#fff"/>
    <path id="Path_375" data-name="Path 375" d="M1444.648,868.891l-31.793-14.069-.315-.1a1.663,1.663,0,0,0-1.4.334,1.636,1.636,0,0,0-.613,1.28v41.478c-2.591-1.283-6.227-1.226-9.628.178-5.36,2.212-8.462,7.064-6.914,10.817s7.17,5,12.531,2.793c4.381-1.808,7.388-5.462,7.313-8.88l0-27.275,28.547,12.632V911.9c-2.59-1.283-6.227-1.225-9.628.178a13.09,13.09,0,0,0-6.029,4.787,5.958,5.958,0,0,0,3.995,9.682,10.974,10.974,0,0,0,2.329.242,14.073,14.073,0,0,0,5.321-1.1c4.38-1.808,7.387-5.46,7.314-8.876l0-46.391A1.639,1.639,0,0,0,1444.648,868.891Zm-2.27,7.309v3.563l-28.547-12.632v-3.563Zm-29.7-21.153Z" fill="#fff"/>
    <path id="Path_376" data-name="Path 376" d="M804.577,889.425a1.326,1.326,0,0,0,.1-.327,29.264,29.264,0,0,0,.362-4.076c.259-12.927-5.519-17.766-10.616-22.036-3.283-2.75-6.384-5.347-7.418-9.793-.045-.194-.084-.386-.118-.576v-2.029a1.766,1.766,0,1,0-3.533,0V901.8c-2.77-1.372-6.66-1.311-10.3.19-5.733,2.366-9.05,7.556-7.394,11.569,1.1,2.669,4.13,4.156,7.722,4.156a15,15,0,0,0,5.679-1.169c4.684-1.933,7.9-5.839,7.822-9.493l0-29.186a11.764,11.764,0,0,0,2.346,1.021c9.3,2.56,13.8,8.815,13.021,18.088a26.642,26.642,0,0,1-.561,3.669,1.343,1.343,0,1,0,2.618.6,29.135,29.135,0,0,0,.623-4.046A27.672,27.672,0,0,0,804.577,889.425Zm-2.289-6.887c-2.144-4.076-5.242-6.655-8.006-8.956a26.85,26.85,0,0,1-5.6-5.67c.2.072.381.133.553.18C797.2,870.286,801.686,875.266,802.288,882.538Z" fill="#fff"/>
    <path id="Path_377" data-name="Path 377" d="M561.648,868.891l-31.793-14.069-.315-.1a1.663,1.663,0,0,0-1.4.334,1.636,1.636,0,0,0-.613,1.28v41.478c-2.591-1.283-6.227-1.226-9.628.178-5.36,2.212-8.462,7.064-6.914,10.817s7.17,5,12.531,2.793c4.381-1.808,7.388-5.462,7.313-8.88l0-27.275,28.547,12.632V911.9c-2.59-1.283-6.227-1.225-9.628.178a13.089,13.089,0,0,0-6.029,4.787,5.958,5.958,0,0,0,3.995,9.682,10.972,10.972,0,0,0,2.329.242,14.074,14.074,0,0,0,5.321-1.1c4.38-1.808,7.387-5.46,7.314-8.876l0-46.391A1.64,1.64,0,0,0,561.648,868.891Zm-2.27,7.309v3.563l-28.547-12.632v-3.563Zm-29.7-21.153Z" fill="#fff"/>
    <path id="Path_378" data-name="Path 378" d="M1535.591,807.084a1.758,1.758,0,0,0-1.693-.145q-12.358,5.466-24.719,10.938l-9.247,4.092a1.761,1.761,0,0,0-1.084,1.628v44.287c-2.766-1.37-6.649-1.308-10.28.19a13.987,13.987,0,0,0-6.438,5.11,6.89,6.89,0,0,0-.944,6.439c1.1,2.665,4.124,4.15,7.71,4.15a14.961,14.961,0,0,0,5.668-1.167c4.68-1.931,7.891-5.834,7.809-9.484V842.447l30.482-13.487v23.882c-2.766-1.37-6.649-1.308-10.28.19-5.724,2.362-9.035,7.543-7.382,11.55s7.655,5.343,13.379,2.982c4.678-1.931,7.889-5.832,7.808-9.481q0-24.752,0-49.5A1.755,1.755,0,0,0,1535.591,807.084Zm-2.735,9.2v3.8l-30.481,13.488v-3.8Z" fill="#fff"/>
    <path id="Path_379" data-name="Path 379" d="M220.591,807.084a1.758,1.758,0,0,0-1.693-.145q-12.358,5.466-24.719,10.938l-9.247,4.092a1.761,1.761,0,0,0-1.084,1.628v44.287c-2.766-1.37-6.649-1.308-10.28.19a13.987,13.987,0,0,0-6.438,5.11,6.89,6.89,0,0,0-.944,6.439c1.1,2.665,4.124,4.15,7.71,4.15a14.961,14.961,0,0,0,5.668-1.167c4.68-1.931,7.891-5.834,7.809-9.484V842.447l30.482-13.487v23.882c-2.766-1.37-6.649-1.308-10.28.19-5.724,2.362-9.035,7.543-7.382,11.55s7.655,5.343,13.379,2.982c4.678-1.931,7.889-5.832,7.808-9.481q0-24.752,0-49.5A1.755,1.755,0,0,0,220.591,807.084Zm-2.735,9.2v3.8l-30.481,13.488v-3.8Z" fill="#fff"/>
  </g>
</svg>
