<svg xmlns="http://www.w3.org/2000/svg" width="800.472" height="138.425" viewBox="0 0 800.472 138.425">
  <g id="Group_210" data-name="Group 210" transform="translate(-555.002 -575.908)">
    <text id="_3分鐘A19捷運站" data-name="3分鐘A19捷運站" transform="translate(558.576 627.908)" fill="#146a32" font-size="48.11" font-family="SegoeUI, Segoe UI" letter-spacing="0.1em"><tspan x="0" y="0">3</tspan><tspan y="0" font-family="YuGothicUI-Regular, Yu Gothic UI">分鐘</tspan><tspan y="0">A19</tspan><tspan y="0" font-family="YuGothicUI-Regular, Yu Gothic UI">捷運站</tspan></text>
    <text id="千坪湖畔莊園" transform="translate(1042.474 627.908)" fill="#146a32" font-size="48.11" font-family="YuGothicUI-Regular, Yu Gothic UI" letter-spacing="0.1em"><tspan x="0" y="0">千坪湖畔莊園</tspan></text>
    <path id="Path_133" data-name="Path 133" d="M1016.394,613.655q-5.122.22-10.249.356.529-4.587.9-9.19c1.908-.021,3.815-.046,5.722-.058a5.393,5.393,0,0,0,2.9-1.41c.333-.28,1.285-1.18.3-1.173q-4.356.028-8.711.09.294-3.99.479-7.989c.034-.737-4.04.825-4.093,1.974-.093,2.03-.214,4.058-.35,6.085q-5.916.1-11.829.265.906-4.248,1.705-8.518c.139-.746-1.61.051-1.811.145-.632.3-2.13,1.013-2.282,1.829q-.621,3.335-1.315,6.656c-2.021.062-4.043.124-6.064.2a5.512,5.512,0,0,0-2.9,1.41c-.314.263-1.3,1.209-.3,1.173q4.365-.159,8.73-.284-.975,4.528-2.075,9.029-2.258-.012-4.515-.04a5.319,5.319,0,0,0-2.9,1.411c-.345.29-1.278,1.161-.3,1.173q3.532.043,7.065.045-1.038,4.105-2.181,8.187a1.26,1.26,0,0,0-.541.8l-.033,1.246c-.024.892,3.826-1.044,4.093-1.974q1.181-4.119,2.253-8.266,6.938-.03,13.872-.207-.641,5.454-1.486,10.885c-.094.6,3.9-.767,4.092-1.973q.705-4.5,1.26-9.023,3.681-.115,7.36-.271a5.543,5.543,0,0,0,2.9-1.41C1016.408,614.568,1017.4,613.612,1016.394,613.655Zm-27.634.595q1.141-4.55,2.155-9.129,6.1-.156,12.2-.251-.351,4.626-.855,9.236Q995.51,614.25,988.76,614.25Z" fill="#fff"/>
    <text id="戶戶邊間迎光建築_18-36坪_1-3房" data-name="戶戶邊間迎光建築 | 18-36坪 | 1-3房" transform="translate(555.002 703.333)" fill="#146a32" font-size="44.128" font-family="YuGothicUI-Regular, Yu Gothic UI" letter-spacing="0.1em"><tspan x="0" y="0">戶戶邊間迎光建築</tspan><tspan y="0" xml:space="preserve" font-family="SegoeUI, Segoe UI"> | 18-36</tspan><tspan y="0">坪</tspan><tspan y="0" xml:space="preserve" font-family="SegoeUI, Segoe UI"> | 1-3</tspan><tspan y="0">房</tspan></text>
  </g>
</svg>
