<?xml version="1.0" encoding="utf-8"?>
<!-- Generator: Adobe Illustrator 26.0.2, SVG Export Plug-In . SVG Version: 6.00 Build 0)  -->
<svg version="1.1" id="圖層_1" xmlns="http://www.w3.org/2000/svg" xmlns:xlink="http://www.w3.org/1999/xlink" x="0px" y="0px"
	 viewBox="0 0 276 102.8" style="enable-background:new 0 0 276 102.8;" xml:space="preserve">
<style type="text/css">
	.st0{fill:none;stroke:#000000;stroke-width:0.5705;stroke-miterlimit:10;}
</style>
<g>
	<g>
		<g>
			<path d="M7,16.8C6.5,16.9,5.9,17,5.3,17v1.4h1.2v1.8H5.3v1.1l1.5-0.2l0,2c-1.8,0.2-3.7,0.5-5.2,0.6l-0.2-2.1
				c0.6,0,1.2-0.1,1.9-0.1v-1.2H2.1v-1.8h1.3v-1.2c-0.5,0-0.9,0-1.3,0c-0.1-0.4-0.3-1.1-0.4-1.6c1.5-0.1,3.4-0.3,4.6-0.6L7,16.8z
				 M20.6,23.5c-0.1-0.6-0.3-1.3-0.6-2c-0.3,2.3-0.9,2.9-2.4,2.9h-2.3c-2.1,0-2.6-0.7-2.6-2.8v-2.2c-0.4,1.4-0.9,3.1-1.6,4.3
				l-1.6-1.2v2.2H7.2V14.3c-2,0.2-3.9,0.3-5.5,0.4l-0.2-2.3l1.1,0V5.1H1.6V2.7h9v2.3H9.6v17.2c0.6-1.1,1.2-2.6,1.5-3.9l1.7,0.8v-0.8
				h2c-0.2-0.3-0.4-0.5-0.6-0.8l1.4-0.8h-5.1v-2.5h11.9v2.5H16c1,1,1.9,2.3,2.3,3.3l-1.8,1.1c-0.3-0.7-0.9-1.6-1.5-2.5v2.9
				c0,0.6,0.1,0.7,0.7,0.7h1.7c0.5,0,0.6-0.2,0.7-2c0.4,0.3,1.1,0.7,1.7,0.8c-0.4-0.9-0.9-1.7-1.4-2.4l1.8-0.9
				c1.1,1.4,2.1,3.4,2.4,4.7L20.6,23.5z M5,5.1v1.1h2.2V5.1H5z M5,9.1h2.2V8H5V9.1z M7.2,12.1v-1.2H5v1.4L7.2,12.1z M14.7,7.1
				c0.1-0.4,0.1-0.8,0.2-1.2h-4.2V3.6h4.5c0.1-0.6,0.1-1.2,0.2-1.7l2.3,0.2l-0.2,1.5h4.5v2.3h-4.8c-0.1,0.4-0.1,0.8-0.2,1.2h4.6v6.2
				H11V7.1H14.7z M14.1,9.2h-1.2v2.1h1.2V9.2z M16.8,9.2h-1.2v2.1h1.2V9.2z M18.3,11.2h1.3V9.2h-1.3V11.2z"/>
			<path d="M45.8,21.9c0.8,0,0.9-0.4,1-3.3c0.6,0.5,1.8,1,2.4,1.2c-0.3,3.9-1,4.9-3.2,4.9h-3c-2.7,0-3.3-0.9-3.3-3.7v-4h-2.7
				c-0.5,3.9-1.8,6.5-7.3,7.9c-0.2-0.8-1-2-1.5-2.6c4.6-0.9,5.6-2.6,5.9-5.3h-2.7V2.5h14.7V17h-3.7V21c0,0.8,0.1,0.9,1,0.9H45.8z
				 M34.1,6.6h9.4V5.1h-9.4V6.6z M34.1,10.5h9.4V9h-9.4V10.5z M34.1,14.5h9.4v-1.5h-9.4V14.5z"/>
			<path d="M75.6,9.6v2.2H55.8V9.6h8.5V8.4H58V6.4h6.3V5.2h-7.1V3h7.1V1.8H67V3h7.5v2.2H67v1.1h6.5v2.1H67v1.2H75.6z M72.8,22
				c0,1.4-0.3,2-1.2,2.4c-0.9,0.3-2.3,0.4-4.1,0.4c-0.1-0.7-0.5-1.7-0.8-2.3c1.1,0.1,2.6,0.1,2.9,0c0.4,0,0.5-0.1,0.5-0.5v-1H61
				c-0.3,1.5-0.8,3-1.7,4.1c-0.4-0.6-1.5-1.7-2-2.1c1.3-1.7,1.4-4,1.4-5.8v-4.3h14.2V22z M70.1,19.1V18h-8.8c0,0.4,0,0.7-0.1,1.1
				H70.1z M61.3,15v1.1h8.8V15H61.3z"/>
			<path d="M89.3,14.9l0.6,2.7c-2.4,1.3-5,2.5-7.1,3.5l-0.9-3c0.8-0.3,1.7-0.7,2.8-1.2v-6.6h-2.3V7.6h2.3V2.1h2.5v5.5h2v2.8h-2v5.5
				L89.3,14.9z M97.5,7.7v1.7h4.9v12.5c0,1.2-0.2,2-0.9,2.5c-0.7,0.4-1.5,0.5-2.8,0.5c-0.1-0.8-0.4-2-0.7-2.7c0.6,0,1.3,0,1.5,0
				c0.2,0,0.3-0.1,0.3-0.3v-1.9h-2.3v4.8h-2.6v-4.8h-2.1v4.9h-2.5V9.4h4.7V7.7h-5.6V5h5.6V1.8h2.6V5h2.8c-0.7-0.6-1.5-1.3-2.2-1.9
				l1.6-1.6c0.9,0.7,2.2,1.7,2.8,2.3L101.4,5h1.7v2.7H97.5z M92.7,11.9v1.6h2.1v-1.6H92.7z M94.8,17.4v-1.7h-2.1v1.7H94.8z
				 M97.5,11.9v1.6h2.3v-1.6H97.5z M99.8,17.4v-1.7h-2.3v1.7H99.8z"/>
			<path d="M138.7,14.9c-0.6,2.3-1.5,4.2-2.8,5.7c1.1,0.8,2.4,1.4,3.8,1.7c-0.5,0.5-1.2,1.6-1.6,2.3c-1.5-0.5-2.9-1.2-4-2.2
				c-1.2,1-2.5,1.8-3.9,2.4c-0.3-0.6-0.9-1.6-1.3-2.2v2.2h-2.5v-2.1c-2.6,0.3-5.2,0.6-7.2,0.8L119,21c0.6,0,1.2-0.1,2-0.2v-7.5h-1.8
				v-2.3h19.9v2.3h-10.2v9.1c1.2-0.4,2.4-1.1,3.4-1.9c-0.9-1.1-1.6-2.4-2.2-3.8l0.8-0.2h-1.3v-2.2h7l0.4-0.1L138.7,14.9z
				 M124.4,10.3h-2.6V2.6h14.7v7.7h-2.7V4.6h-9.5V10.3z M123.3,13.4v1h3.1v-1H123.3z M123.3,17.4h3.1v-1h-3.1V17.4z M123.3,20.6
				c1-0.1,2.1-0.2,3.1-0.3v-0.9h-3.1V20.6z M133,7.2h-8V5.5h8V7.2z M125.1,9.8V8.1h7.9v1.7H125.1z M132.5,16.6
				c0.4,0.8,0.9,1.6,1.5,2.3c0.6-0.7,1.1-1.5,1.5-2.3H132.5z"/>
			<path d="M151.2,21v3.9H149V21h-3.5v-2.6h3.5v-1.5h-2.8V8h2.8V6.7h-3.1V4.2h3.1V1.8h2.2v2.3h3.2v2.5h-3.2V8h3v8.9h-2.9v1.5h3.4V21
				H151.2z M148.1,11.5h1.2V10h-1.2V11.5z M148.1,14.9h1.2v-1.5h-1.2V14.9z M152.3,10H151v1.5h1.3V10z M152.3,13.4H151v1.5h1.3V13.4
				z M166.6,21.8v2.5h-12.1v-2.5h4.8v-3.7h-3.7v-2.5h10.4v2.5h-4v3.7H166.6z M156.8,15.3c-0.4-1.3-1.3-3.3-2.3-5
				c0.7-1.5,1.5-3.4,2-4.6l2.2,0.5c-0.6,1.4-1.2,2.8-1.8,4.1c0.9,1.4,1.7,3.1,2.1,4.1L156.8,15.3z M166.3,5.2H155V2.8h11.3V5.2z
				 M162.2,6.2c-0.6,1.4-1.3,2.8-1.9,4c0.9,1.4,1.8,3,2.2,4.1l-2,0.9c-0.4-1.3-1.4-3.2-2.5-5c0.8-1.5,1.6-3.4,2.1-4.6L162.2,6.2z
				 M164.3,15.3c-0.5-1.3-1.5-3.3-2.7-5c0.9-1.5,1.8-3.4,2.2-4.6l2.2,0.5c-0.6,1.4-1.4,2.8-2.1,4c1,1.4,2,3,2.4,4.1L164.3,15.3z"/>
			<path d="M178.8,17.7c0.7,0.6,2.4,2,2.8,2.4l-1.4,1.9c-0.3-0.4-0.8-1.1-1.4-1.8v4.5h-2.4v-4.3c-0.7,1.2-1.5,2.2-2.4,2.9
				c-0.4-0.6-1.1-1.5-1.6-2c1.3-0.9,2.7-2.4,3.6-4.1h-3v-2.2h3.3v-1.8h2.4v1.8h2.7v2.2h-2.7V17.7z M182.3,13.6
				c-0.2-0.3-0.4-0.6-0.7-1c-6.1,0.5-7,0.5-7.6,0.7c-0.1-0.4-0.4-1.2-0.5-1.7c0.3,0,0.5-0.2,0.8-0.4c0.2-0.1,0.5-0.4,0.9-0.8H173
				V8.7h1.8V2.4h8.7V4h-6.3v0.7h5.6V6h-5.6v0.7h5.6V8h-5.6v0.7h6.8v1.6h-1.8c0.7,0.8,1.5,1.7,1.9,2.3L182.3,13.6z M180.1,10.7
				l0.7-0.3h-3.2c-0.4,0.4-0.8,0.7-1.2,1.1l4.1-0.2L180.1,10.7z M186.2,13.9c-0.8,2.2-2.1,4.4-3.6,5.7c-0.4-0.4-1.2-1.3-1.7-1.7
				c1.3-1.1,2.5-2.9,3.1-4.7L186.2,13.9z M190.1,19.1c0.9,1.5,2.2,3.5,2.9,4.7l-2.1,1c-0.2-0.4-0.4-0.8-0.6-1.3
				c-5.9,0.5-6.9,0.6-7.5,0.9c-0.1-0.5-0.5-1.7-0.8-2.3c0.4-0.1,0.8-0.5,1.3-1.1c0.5-0.5,2-2.7,2.9-4.9l2.2,1.2
				c-0.8,1.4-1.8,2.9-2.9,4.1l3.5-0.2c-0.3-0.5-0.6-1-0.9-1.4L190.1,19.1z M193.1,9.2c-1.7,2-4.7,3.1-7.9,3.8
				c-0.3-0.6-0.8-1.4-1.3-1.9c2.8-0.4,5.7-1.3,7.1-2.7L193.1,9.2z M191.9,3.1c-1.7,1.3-4.2,2.4-6.2,3.1c-0.4-0.5-1-1.2-1.5-1.7
				c1.9-0.5,4.4-1.5,5.7-2.5L191.9,3.1z M192.5,6.1c-1.7,1.5-4.3,2.6-6.7,3.3c-0.3-0.5-0.9-1.3-1.4-1.8c2.2-0.4,4.8-1.4,6.1-2.5
				L192.5,6.1z M189.9,12.9c0.7,1.8,2.2,3.6,3.8,4.6c-0.5,0.5-1.2,1.5-1.6,2.1c-1.4-1.1-2.8-2.8-3.7-4.5h-2v-2.2H189.9z"/>
			<path d="M219.9,5.6c0,0,0,1,0,1.3c-0.3,11-0.5,15-1.5,16.3c-0.6,0.9-1.3,1.2-2.2,1.4c-0.9,0.1-2.2,0.1-3.5,0
				c0-0.8-0.4-2.1-0.9-2.9c1.4,0.1,2.8,0.1,3.3,0.1c0.4,0,0.7-0.1,1-0.4c0.7-0.8,0.9-4.5,1.2-13.2h-4.8c-0.6,1.5-1.3,2.8-2,3.9
				c-0.4-0.4-1.1-0.9-1.7-1.4v11.5h-6v1.8h-2.4V5.8h2.5c0.3-1.2,0.6-2.8,0.7-4l2.9,0.4c-0.4,1.2-0.8,2.5-1.2,3.5h3.5v4
				c1.3-2.1,2.4-5.1,3-8l2.5,0.6c-0.2,1.1-0.5,2.1-0.9,3.1H219.9z M206.5,8.3h-3.6v4h3.6V8.3z M206.5,19.7v-4.8h-3.6v4.8H206.5z
				 M213.9,18.4c-0.6-1.5-2-3.9-3.1-5.7l2.1-1.3c1.1,1.7,2.6,4.1,3.3,5.5L213.9,18.4z"/>
			<path d="M234.5,17.7c1.1,1.7,2.4,3.9,3,5.3l-2.2,1.2c-0.2-0.5-0.5-1.1-0.9-1.8c-4.9,1.3-5.8,1.6-6.3,2c-0.2-0.6-0.8-1.8-1.2-2.3
				c0.4-0.3,0.9-1.1,0.9-2.2V9.1c-0.4-0.7-1.1-1.7-1.5-2.1c1.4-1.3,2.7-3.4,3.4-5.4l2.6,0.9c-0.1,0.3-0.2,0.5-0.3,0.8h4.7v2.5h-3.4
				c0.6,0.6,1.2,1.3,1.6,1.8l-1.4,1.3h3.1v8.8h-6.4v3.3l2.9-0.7c-0.3-0.5-0.6-1-0.9-1.5L234.5,17.7z M230.9,5.7
				c-0.7,1.1-1.4,2.1-2.1,3h3.9c-0.5-0.6-1.1-1.3-1.6-1.9l1.3-1.2H230.9z M234.2,10.9h-3.9v1.3h3.9V10.9z M234.2,15.4v-1h-3.9v1
				H234.2z M247.2,5.7h-3.7c0.5,0.5,1.1,1.1,1.4,1.6l-1.6,1.5h3.2V19c0,1.4-0.2,2.1-1.1,2.5c-0.8,0.4-2,0.5-3.6,0.5
				c-0.1-0.8-0.4-2-0.8-2.7c1,0,2.1,0,2.4,0c0.3,0,0.4-0.1,0.4-0.4v-7.5h-3.5v13.4h-2.5V9.6c-0.5-0.6-1.4-1.6-2-2
				c1.3-1.4,2.4-3.7,2.9-6l2.7,0.7c-0.1,0.3-0.2,0.6-0.3,0.9h5.9V5.7z M242.7,8.7c-0.4-0.6-1.1-1.4-1.8-2l1.1-1h-1.7
				c-0.5,1.1-1.1,2.1-1.6,3H242.7z"/>
			<path d="M269.1,12.7c1.4,1.5,3.4,2.7,5.5,3.4c-0.6,0.5-1.3,1.6-1.7,2.3c-1.8-0.7-3.4-1.8-4.8-3.2v1.1h-3v0.1c0,0.4,0,0.8-0.1,1.2
				h6.1v2.3h-4.4c2.1,0.8,4.7,2,6.1,3l-2,2.1c-1.4-1-4.3-2.5-6.5-3.4l1.6-1.6h-1.6c-0.9,1.9-3,3.8-7.6,5c-0.3-0.6-1.1-1.6-1.6-2.1
				c3.2-0.8,5.1-1.8,6.1-2.9h-4.7v-2.1c-0.5,0.3-1,0.6-1.6,0.9c-0.3-0.7-1.2-1.8-1.8-2.2c2.2-1,4-2.2,5.3-3.7h-4.8v-2.3h6.5
				c0.2-0.4,0.4-0.8,0.6-1.2h-4.7V6.9h5.5c0.1-0.4,0.2-0.7,0.3-1.1h-6.6V3.5h7c0.1-0.6,0.1-1.2,0.1-1.7l2.7,0.2c0,0.5-0.1,1-0.2,1.5
				h7.4v2.3h-7.8c-0.1,0.4-0.2,0.8-0.3,1.1h7.2v2.3h-8c-0.2,0.4-0.3,0.8-0.5,1.2H274v2.3H269.1z M262.5,17.6
				c0.1-0.5,0.1-0.9,0.1-1.3h-2.8v-1.1c-0.9,0.9-1.8,1.7-3,2.4H262.5z M261.9,12.7c-0.3,0.5-0.6,0.9-1,1.4h6.2
				c-0.4-0.4-0.7-0.9-1-1.4H261.9z"/>
		</g>
	</g>
	<g>
		<path d="M71.7,48.6l1.2-1.7c0.8,0.8,1.7,1.4,2.8,1.4c1.3,0,2.2-0.7,2.2-1.9c0-1.4-0.7-2.2-3.5-2.2v-2c2.3,0,3.1-0.9,3.1-2.1
			c0-1.1-0.6-1.7-1.7-1.7c-0.9,0-1.6,0.5-2.4,1.2L72,37.8c1.1-1.1,2.3-1.7,3.8-1.7c2.4,0,4.1,1.3,4.1,3.7c0,1.5-0.8,2.6-2.1,3.2v0.1
			c1.4,0.4,2.5,1.6,2.5,3.4c0,2.6-2,4-4.4,4C73.9,50.5,72.5,49.7,71.7,48.6z"/>
		<path d="M94.8,34.6c0.8,2.7,2.5,5.4,4.9,6.8c-0.4,0.5-1.1,1.4-1.4,2.1c-0.4-0.3-0.9-0.7-1.3-1.1c-0.2,5.6-0.4,7.7-1,8.5
			c-0.4,0.6-0.9,0.8-1.6,0.9c-0.6,0.1-1.6,0.1-2.6,0.1c0-0.7-0.3-1.6-0.7-2.3c0.9,0.1,1.8,0.1,2.3,0.1c0.3,0,0.5,0,0.7-0.3
			c0.3-0.4,0.5-2.1,0.7-6h-3.4c-0.4,3.6-1.5,6.8-6,8.7c-0.3-0.6-0.9-1.6-1.4-2.1c3.9-1.4,4.8-3.9,5.1-6.6h-2.9v-1.2
			c-0.4,0.5-0.8,0.9-1.3,1.4c-0.4-0.5-1.2-1.3-1.7-1.7c1.9-1.5,3.5-4,4.2-6.9l2.1,0.6c-0.6,2.1-1.6,4.1-2.7,5.7h8.9
			c-1.1-1.3-2-2.9-2.6-4.5h-2.7v-2.1H94.8z"/>
		<path d="M108.3,48.2l0.1,1.8c-2,0.5-4,1-5.5,1.4l-0.4-2c0.6-0.1,1.5-0.3,2.3-0.5v-4.7h-2.1v-1.9h2.1v-1.4h-1.2v-0.8
			c-0.3,0.3-0.5,0.5-0.8,0.8c-0.1-0.5-0.5-1.7-0.7-2.3c1.2-1,2.4-2.7,3.1-4.4l1.4,0.8c-0.1,0.2-0.2,0.5-0.3,0.7
			c1,0.7,1.9,1.5,2.5,2.1l-0.8,1.8c-0.1-0.1-0.2-0.3-0.4-0.4v1.7h-1.4v1.4h1.9v1.9h-1.9v4.4L108.3,48.2z M104,44.9
			c0.3,1,0.5,2.4,0.6,3.2l-1.2,0.4c-0.1-0.9-0.3-2.2-0.5-3.3L104,44.9z M107.7,39.1c-0.6-0.6-1.3-1.2-2.1-1.8
			c-0.4,0.6-0.8,1.2-1.2,1.8H107.7z M106.5,47.9c0.2-0.8,0.4-2.2,0.5-3.2l1.3,0.4c-0.3,1.1-0.6,2.4-0.8,3.1L106.5,47.9z M114.5,49.9
			h3.9v1.6h-9.8v-1.6h3.9V49h-3.3v-1.5h3.3v-0.7h-3.1v-5.5h8.2v5.5h-3.2v0.7h3.4V49h-3.4V49.9z M118.5,39v1.7h-9.8V39h2.1
			c-0.1-0.4-0.2-0.8-0.4-1.2l1.1-0.2h-2.4v-1.7h3.5c-0.1-0.4-0.3-0.8-0.5-1.1l1.9-0.5c0.3,0.5,0.6,1.1,0.7,1.6h3.3v1.7h-2.4l1.3,0.2
			c-0.2,0.4-0.4,0.8-0.5,1.2H118.5z M111.2,43.4h1.5v-0.8h-1.5V43.4z M111.2,45.5h1.5v-0.8h-1.5V45.5z M112.1,37.6
			c0.2,0.5,0.4,1.1,0.5,1.4h1.9c0.2-0.5,0.3-1,0.4-1.4H112.1z M115.9,42.6h-1.5v0.8h1.5V42.6z M115.9,44.6h-1.5v0.8h1.5V44.6z"/>
		<path d="M128.1,46.7H124l-0.9,3.6h-2.6l4.1-13.9h3l4.1,13.9H129L128.1,46.7z M127.6,44.5l-0.4-1.5c-0.4-1.4-0.7-3-1.1-4.6H126
			c-0.3,1.5-0.7,3.1-1.1,4.6l-0.4,1.5H127.6z"/>
		<path d="M134.7,48h2.7v-8.8h-2.3v-1.7c1.3-0.3,2.1-0.6,2.9-1.2h1.9V48h2.4v2.2h-7.6V48z"/>
		<path d="M147.3,47.3c0.5,0.5,1.2,1,2,1c1.4,0,2.6-1.2,2.7-4.7c-0.6,0.9-1.7,1.5-2.6,1.5c-2.1,0-3.6-1.4-3.6-4.4
			c0-2.9,1.8-4.6,4-4.6c2.4,0,4.5,2.1,4.5,6.9c0,5.3-2.3,7.5-4.9,7.5c-1.6,0-2.7-0.7-3.5-1.6L147.3,47.3z M152,41.7
			c-0.2-2.5-1.1-3.5-2.2-3.5c-0.9,0-1.7,0.8-1.7,2.6c0,1.6,0.7,2.4,1.8,2.4C150.6,43.1,151.4,42.7,152,41.7z"/>
		<path d="M162.9,44.2c-0.5,0.2-1.1,0.4-1.6,0.5v4.8c0,1-0.2,1.6-0.7,2c-0.5,0.4-1.2,0.4-2.4,0.4c-0.1-0.5-0.3-1.5-0.5-2.1
			c0.6,0,1.2,0,1.4,0c0.2,0,0.3-0.1,0.3-0.3v-4.2c-0.6,0.2-1.1,0.4-1.6,0.5l-0.4-2.1c0.6-0.1,1.3-0.3,2.1-0.5v-3.3h-1.8v-2.1h1.8
			v-3.5h1.8v3.5h1.6v2.1h-1.6v2.7l1.4-0.4L162.9,44.2z M168.8,49.7c0.5,0.1,0.9,0.1,1.4,0.1c0.5,0,2.6,0,3.3,0
			c-0.3,0.5-0.5,1.4-0.6,1.9h-2.8c-2.4,0-4.2-0.5-5.5-2.2c-0.4,1-0.9,1.8-1.5,2.5c-0.3-0.3-1.1-0.9-1.5-1.2c1.2-1.2,1.8-3.1,2.1-5.3
			l1.8,0.3c-0.1,0.6-0.2,1.2-0.3,1.8c0.4,0.8,1,1.4,1.7,1.7v-4h-3.2v-1.7h3.2v-1h-4.2v-1.7h4.2V40h-3.2v-1.7h3.2v-0.8H163v-1.8h3.9
			v-1.4h1.9v1.4h4.3v1.8h-4.3v0.8h3.6v2.5h1.1v1.7h-1.1v2.6h-3.6v1.1h3.7V48h-3.7V49.7z M168.8,40.8h1.7V40h-1.7V40.8z M168.8,43.5
			h1.7v-1h-1.7V43.5z"/>
		<path d="M181,43.4c-0.3,1.5-0.7,3.2-1.2,4.6c0.3,0.2,0.6,0.4,1,0.7c1.2,0.8,2.8,0.9,4.8,0.9c2,0,5-0.2,6.9-0.5
			c-0.2,0.6-0.6,1.7-0.6,2.3c-1.4,0.1-4.4,0.2-6.4,0.2c-2.3,0-3.7-0.2-4.9-1c-0.7-0.4-1.3-1.1-1.7-1.1c-0.4,0-1,1.3-1.4,2.4
			l-1.4-2.1c0.6-0.8,1.3-1.4,1.8-1.8c0.4-0.9,0.7-2.1,1-3.2h-2.2c0.4-1.1,0.9-2.6,1.3-4.1h-1.6v-2h4.1c-0.4,1.3-0.8,2.8-1.2,4.1h0.3
			l0.3-0.1L181,43.4z M178.2,38.2c-0.2-0.9-0.7-2.2-0.9-3.3l1.8-0.6c0.3,1,0.8,2.3,1,3.1L178.2,38.2z M182.4,38.7h-1.4v-3.7h10.9
			v3.7H190v0.7h-2.6V40h3.6v5.5h-3.6v0.7h4.4v1.6h-4.4v1.2h-2v-1.2h-4.3v-1.6h4.3v-0.7h-3.5V40h3.5v-0.7h-3.1V38.7z M182.8,36.6v1.2
			h2.6v-0.7h2v0.7h2.5v-1.2H182.8z M183.6,42.2h1.8v-0.8h-1.8V42.2z M185.4,44.2v-0.8h-1.8v0.8H185.4z M187.4,41.4v0.8h1.7v-0.8
			H187.4z M189.1,43.4h-1.7v0.8h1.7V43.4z"/>
		<path d="M201.9,46.5l0.2,2.1c-2.2,0.6-4.6,1.2-6.4,1.7l-0.4-2.2c1-0.2,2.2-0.5,3.5-0.8c0.4-1.9,0.8-4.9,1-7l1.9,0.3
			c-0.3,2.1-0.8,4.5-1.2,6.3L201.9,46.5z M198.8,37.6h3.5v2.1h-6.8v-2.1h2.9c-0.2-0.8-0.6-1.8-1-2.7l1.7-0.5c0.5,0.8,0.9,2,1.1,2.7
			L198.8,37.6z M197.5,40.4c0.4,2,0.7,4.5,0.8,6.2l-1.7,0.4c-0.1-1.7-0.4-4.3-0.7-6.3L197.5,40.4z M207.1,39.9v3.2h3.4v8.7h-2.1V51
			h-4.1v0.9h-2v-8.7h2.7v-8.8h2.1v3.5h4v2.1H207.1z M208.4,45.2h-4.1v3.7h4.1V45.2z"/>
	</g>
	<rect x="36.3" y="73.6" class="st0" width="207.6" height="27.7"/>
	<g>
		<g>
			<path d="M67.7,88.1h-7.3v8.8h-1.8v-8.8h-7.2v-1.8h7.2v-4.4c-1.9,0.3-3.9,0.5-5.7,0.7c-0.1-0.5-0.3-1.2-0.5-1.7
				c4.4-0.4,9.4-1.2,12.3-2.2l1.3,1.6c-1.6,0.5-3.5,0.9-5.6,1.3v4.7h7.3V88.1z"/>
			<path d="M76.7,89.9l0.3,1.7c-1.8,0.9-3.7,1.7-5.2,2.3L71.2,92c0.6-0.2,1.4-0.5,2.2-0.8v-6.3h-1.9v-1.8h1.9v-4.5h1.6v4.5h1.7v1.8
				h-1.7v5.7L76.7,89.9z M88,90h-4.8v6.8h-1.7V90h-4.8v-1.8h4.8v-7h-4.3v-1.8h10.3v1.8h-4.3v7H88V90z M79.1,82.2
				c0.5,1.5,0.9,3.5,1,4.8l-1.4,0.4c-0.1-1.3-0.5-3.3-1-4.8L79.1,82.2z M84.4,87c0.4-1.3,0.9-3.4,1.1-4.9l1.6,0.4
				c-0.5,1.7-1,3.7-1.4,4.9L84.4,87z"/>
			<path d="M94.2,87.3c-0.6-0.6-1.9-1.4-2.9-1.9l0.9-1.3c1,0.4,2.3,1.2,3,1.8L94.2,87.3z M91.6,95.7c0.7-1.6,1.7-4.1,2.4-6.4l1.4,1
				c-0.7,2.1-1.5,4.5-2.3,6.4L91.6,95.7z M94.9,82.1c-0.6-0.7-1.8-1.5-2.8-2.1l0.9-1.3c1,0.5,2.3,1.3,2.9,1.9L94.9,82.1z M97.4,94.2
				v1.5h-1.5v-8.1h2v-3.4h-2.6v-1.7h2.6V79h1.5v3.5h2.3v1.7h-2.3v3.4h1.8v6.6H97.4z M97.4,89.2v3.4h2.4v-3.4H97.4z M107.6,94.8
				c0,0.8-0.2,1.3-0.7,1.6c-0.5,0.3-1.2,0.3-2.4,0.3c-0.1-0.4-0.3-1.1-0.5-1.5c0.8,0,1.5,0,1.7,0c0.2,0,0.3-0.1,0.3-0.4v-5.2
				c-0.6,0.6-1.1,1.2-1.7,1.7l-0.6-1.5c-0.2,2.5-0.7,5.2-2.3,7.1c-0.3-0.3-0.9-0.8-1.3-1c2-2.4,2.1-5.9,2.1-8.8v-8h5.2V94.8z
				 M103.8,87.2c0,0.8,0,1.7-0.1,2.6c0.6-0.4,1.5-1.1,2.3-1.8v-1.7l-0.6,0.6c-0.3-0.6-1-1.5-1.6-2.2V87.2z M103.8,80.8v3.3l0.6-0.5
				c0.5,0.6,1.2,1.3,1.6,1.9v-4.7H103.8z"/>
			<path d="M118.1,93h-4.7v1.7h-1.3V80h6.1V93z M113.4,81.7v4h1.1v-4H113.4z M113.4,91.4h1.1v-4.2h-1.1V91.4z M116.8,81.7h-1.1v4
				h1.1V81.7z M116.8,91.4v-4.2h-1.1v4.2H116.8z M128,90.9h-4.1v5.9h-1.6v-5.9h-3.8v-1.7h3.8v-2.7h-3.3v-1.7h3.3v-6.4h1.6v6.4h3.6
				v1.7h-3.6v2.7h4.1V90.9z M120.1,84.5c-0.1-1.2-0.6-3.2-1.2-4.6l1.4-0.4c0.6,1.4,1.1,3.3,1.2,4.6L120.1,84.5z M127.7,79.8
				c-0.6,1.6-1.2,3.5-1.8,4.7l-1.3-0.4c0.5-1.3,1.1-3.3,1.4-4.7L127.7,79.8z"/>
			<path d="M140.9,82.9c-0.2,0.5-0.4,1.1-0.6,1.6h5.7v12.4h-1.8v-1h-8.8v1h-1.7V84.5h4.8c0.1-0.5,0.3-1.1,0.4-1.6h-7.1v-1.7h4.5
				c-0.4-0.6-0.9-1.5-1.4-2.1l1.5-0.7c0.7,0.7,1.4,1.7,1.7,2.3l-0.8,0.5h4.5c0.5-0.8,1.2-1.9,1.5-2.8l1.9,0.5
				c-0.5,0.8-1,1.6-1.5,2.3h4.3v1.7H140.9z M144.2,86.1h-8.8v1.7h8.8V86.1z M144.2,89.2h-8.8v1.7h8.8V89.2z M144.2,94.2v-1.8h-8.8
				v1.8H144.2z"/>
			<path d="M168.2,80.4v1.7h-13.5v4c0,3.2-0.3,7.8-1.8,10.8c-0.3-0.3-1-0.8-1.4-1c1.5-2.8,1.6-6.9,1.6-9.8v-5.7h6.9
				c-0.2-0.5-0.4-1.1-0.7-1.6l1.6-0.5c0.3,0.7,0.7,1.5,1,2.1H168.2z M165.2,84.2h2.9v1.5h-2.9v3.1h-2.9v1.3h4.8v3.9
				c0,0.9-0.1,1.3-0.7,1.6c-0.5,0.3-1.4,0.3-2.6,0.3c-0.1-0.5-0.3-1.1-0.5-1.6c0.8,0,1.6,0,1.9,0c0.2,0,0.3-0.1,0.3-0.3v-2.3h-3.1
				v5.1h-1.7v-5.1h-3v4.1H156v-5.7h4.6v-1.3h-2.9v-3.1h-2.6v-1.5h2.6v-1.6h1.6v1.6h4.2v-1.6h1.6V84.2z M163.5,85.8h-4.2v1.6h4.2
				V85.8z"/>
			<path d="M177.6,93.9c4-3.9,6-6.7,6-9.2c0-1.6-0.8-2.7-2.3-2.7c-1.1,0-1.9,0.7-2.6,1.6l-1.2-1.3c1.1-1.4,2.3-2.2,4.1-2.2
				c2.5,0,4.1,1.8,4.1,4.4c0,2.9-2.1,5.8-4.9,8.8c0.7-0.1,1.5-0.1,2.2-0.1h3.4v2h-8.7V93.9z"/>
			<path d="M189.9,88.8h4.8v1.7h-4.8V88.8z"/>
			<path d="M197.9,93.5l1-1.5c0.8,0.9,1.8,1.6,3.2,1.6c1.5,0,2.6-0.9,2.6-2.4c0-1.6-0.9-2.7-4-2.7v-1.7c2.6,0,3.5-1.1,3.5-2.6
				c0-1.3-0.8-2.1-2.1-2.1c-1,0-1.9,0.6-2.7,1.4l-1.1-1.4c1.1-1,2.3-1.8,3.9-1.8c2.4,0,4.1,1.4,4.1,3.8c0,1.7-0.9,2.9-2.3,3.5v0.1
				c1.6,0.4,2.8,1.7,2.8,3.7c0,2.7-2,4.2-4.5,4.2C200.2,95.5,198.8,94.6,197.9,93.5z"/>
			<path d="M219.2,89.9c-0.1,0.5-0.1,0.9-0.2,1.3h6.1c0,0,0,0.5,0,0.7c-0.2,2.7-0.5,3.8-0.9,4.3c-0.3,0.4-0.7,0.5-1.3,0.5
				c-0.5,0.1-1.4,0-2.3,0c0-0.5-0.2-1.1-0.5-1.6c0.9,0.1,1.7,0.1,2.1,0.1c0.3,0,0.5,0,0.6-0.2c0.2-0.3,0.4-1,0.6-2.5h-4.8
				c-0.7,1.9-2.1,3.3-4.8,4.2c-0.1-0.4-0.6-1.1-0.9-1.4c3.4-1,4.3-2.9,4.6-5.5h-3.6c-0.3,2.5-0.9,5.2-2.3,7.1
				c-0.2-0.4-0.9-1.1-1.2-1.3c1.9-2.7,2.1-6.5,2.1-9.4v-6.3h0c4.1-0.3,8.9-0.8,11.6-1.5l1.3,1.4c-3,0.7-7.3,1.2-11.2,1.5v0.9h11.6
				v4.6h-11.6c0,0.5,0,1.1-0.1,1.7h5.3c-0.2-0.4-0.4-0.9-0.6-1.2l1.6-0.4c0.3,0.5,0.6,1.1,0.8,1.7h5.7v1.5H219.2z M214.1,83.7v1.6
				h9.9v-1.6H214.1z"/>
		</g>
	</g>
</g>
</svg>
