<?xml version="1.0" encoding="utf-8"?>
<!-- Generator: Adobe Illustrator 26.0.2, SVG Export Plug-In . SVG Version: 6.00 Build 0)  -->
<svg version="1.1" id="圖層_1" xmlns="http://www.w3.org/2000/svg" xmlns:xlink="http://www.w3.org/1999/xlink" x="0px" y="0px"
	 viewBox="0 0 166.1 419.8" style="enable-background:new 0 0 166.1 419.8;" xml:space="preserve">
<style type="text/css">
	.st0{fill:#FFFFFF;}
</style>
<g>
	<g>
		
			<image style="overflow:visible;opacity:0.75;" width="73" height="426" xlink:href="DB80B16E.png"  transform="matrix(1 0 0 1 4.9557 -1.2413)">
		</image>
		<g>
			<g>
				<path class="st0" d="M54.3,16v11.4h2.1l4.1-5.3c0,0,4.6,3.6,7.4,6.1c-0.2,0.7-0.9,1-1.7,1H54.3v12h2.1l4.3-5.7
					c0,0,4.9,3.8,7.8,6.4c-0.2,0.7-0.9,1-1.8,1H54.3v15.6c-0.1,0.5-2.7,2.2-7.2,2.2h-1.6V16h-0.4c-3.1,5.2-6.8,9.3-11.2,12.4v21.6
					c-0.1,0.5-4,2.3-6.9,2.3h-1.3v-5.8h-4.6v6.4c0,0.5-2.5,2.4-6.6,2.4H13V7.2l8.9,3.3h3.2l3.8-4.2l7.5,5.9c-0.4,0.5-1.2,1-2.4,1.3
					v12.1C36.7,19.3,39.1,11,40,2.9l11.5,3.2c-0.2,0.8-1,1.3-2.4,1.3c-1,2.5-2,4.7-3.1,6.9h10.7l4.4-5.7c0,0,4.9,3.8,7.8,6.4
					c-0.2,0.7-0.9,1-1.8,1H54.3z M21.1,12.1V27h4.6V12.1H21.1z M25.7,44.8V28.7h-4.6v16.1H25.7z"/>
				<path class="st0" d="M62.8,70.8c-0.4,0.5-1.1,1-2.3,1.3v44.1c-0.1,0.7-4.6,2.8-8.1,2.8h-1.5v-5.7H29.1v2.9
					c0,1.2-3.8,3.4-7.8,3.4h-1.5V65.1l9.8,3.9h20.6l4.3-4.7L62.8,70.8z M29.1,70.7v19.2h21.8V70.7H29.1z M50.8,111.6V91.6H29.1v20.1
					H50.8z"/>
				<path class="st0" d="M41.1,136.6c-0.2,0.7-0.7,1.1-2.2,1.2c-1.2,2.4-2.7,5.1-4.6,7.9l3.5,1.3c-0.2,0.5-0.7,1-1.9,1.2v29.1
					c-0.1,0.5-3.5,2.1-6.7,2.1h-1.5v-25.2c-0.9,0.9-1.8,1.8-2.8,2.6l-0.6-0.5c3.3-6.7,5.8-16.7,6.7-23h-6.3v14.1
					c0,10.3-0.7,23.8-13.4,32.4l-0.5-0.4c4.9-9.4,5-21.4,5-32V128l10.1,3.4h13.7l-0.2-0.1c-0.6-3.5-2.7-7.2-4.7-9.5l0.4-0.3
					c13.6-0.1,14.3,7.2,10.8,10h11l4.2-5.8c0,0,4.7,3.9,7.5,6.5c-0.2,0.7-0.9,1-1.7,1H32.2L41.1,136.6z M62.5,139.4
					c0,0,3.9,4,5.8,6.6c-0.2,0.7-0.8,1-1.6,1h-6.9v22.5c0,5.7-1.3,8.8-10.7,9.7c-0.2-2.7-0.5-4.7-1.6-6c-1.1-1.3-2.4-2.2-5.8-2.8
					v-0.8c0,0,7.1,0.4,8.4,0.4c1,0,1.3-0.3,1.3-1v-22H38.2l-0.5-1.7h13.7v-11.7l10.6,0.9c-0.1,0.9-0.7,1.5-2.2,1.7v7.9L62.5,139.4z
					 M40,149.6c16.7,5.9,8.3,18.7,1.9,12.3c0.1-4.2-1.1-8.6-2.4-12.1L40,149.6z"/>
				<path class="st0" d="M60.1,187c0,0,5.3,4.1,8.5,6.8c-0.2,0.7-0.9,1-1.8,1H11.2l-0.5-1.7h32.7c1.4-3.7,2.8-8.8,3.6-12.2l11.9,2.9
					c-0.2,0.8-0.9,1.3-2.3,1.3c-2.7,2.3-7.2,5.5-11.2,8.1h10.1L60.1,187z M32.9,197l7.6,5.9c-0.4,0.5-1.2,1-2.4,1.3v25.4
					c0,5.2-1.1,8.1-9.1,8.8c-0.1-2.5-0.2-4.3-0.9-5.5c-0.5-1.1-1.3-2-3.5-2.4v-0.8c0,0,3.2,0.2,4.3,0.2c0.8,0,1-0.4,1-1v-7h-6.5
					c-0.7,6.1-3.2,12.2-11.5,16.5l-0.5-0.4c3.9-6,4-13.9,4-21.7v-18.3l9.5,3.2h4.4L32.9,197z M23.7,181.2
					c19.6,0.4,12.5,15.7,4.4,10.2c-0.6-3.6-2.7-7.4-4.9-9.9L23.7,181.2z M29.8,220.1v-8.2h-6.3v4.3c0,1.3,0,2.6-0.1,3.9H29.8z
					 M23.6,202.8v7.4h6.3v-7.4H23.6z M50.1,224.6c0,0.5-3.5,1.8-6.5,1.8h-1.4v-26.9l10.2,0.9c-0.1,0.8-0.5,1.5-2.2,1.7V224.6z
					 M54.4,197.4l10.5,0.9c-0.1,0.9-0.7,1.5-2.1,1.6v29.3c0,5.5-1.3,8.5-10.5,9.2c-0.2-2.6-0.5-4.4-1.6-5.7c-1-1.2-2.3-2.1-5.7-2.7
					v-0.7c0,0,6.8,0.4,8.1,0.4c0.9,0,1.2-0.2,1.2-1V197.4z"/>
				<path class="st0" d="M45,274.5c5.2,6.3,14.8,10.5,23.5,12.3l-0.1,0.7c-3.3,0.9-5.9,3.8-6.9,8.1c-8.7-4.1-14-10.8-17.5-20.4v19.9
					c0,0.7-3.8,2.5-7.2,2.5h-1.8v-13.9c-6.1,5.2-14.3,9.3-23.8,12.2l-0.4-0.7c9.1-5,16.5-13.2,20.5-20.8h-3v1.2c0,0.9-4,2.8-7.7,2.8
					h-1.3v-26.3l9.5,3.6h6.2v-5.5H12.6l-0.5-1.7h22.7V240l11.3,1.1c-0.1,0.9-0.5,1.5-2.2,1.8v5.8h9.8l4.8-6.3c0,0,5.4,4.2,8.6,7
					c-0.2,0.7-0.9,1-1.8,1H43.9v5.5H50l4-4.4l8.2,6.2c-0.4,0.5-1.1,1-2.3,1.3v15.9c-0.1,0.5-4.5,2.5-7.7,2.5h-1.6v-2.8H45z
					 M28.1,257.5v6.8h6.7v-6.8H28.1z M34.8,272.8V266h-6.7v6.8H34.8z M43.9,257.5v6.8h6.7v-6.8H43.9z M50.6,272.8V266h-6.7v6.8H50.6
					z"/>
				<path class="st0" d="M31.9,300.7l7.2,5.5c-0.3,0.5-1,1-2.1,1.2v18.4c-0.1,0.4-4.1,1.9-6.7,1.9h-1.4V324h-6.5v29.8
					c0,1.1-3.3,3.2-7.2,3.2h-1.5v-56.2l8.9,3.7h5.7L31.9,300.7z M22.4,306.3v7h6.5v-7H22.4z M28.9,322.3V315h-6.5v7.3H28.9z
					 M67.5,306.3c-0.4,0.5-1.2,1-2.4,1.3v39.4c0,5.7-1.5,8.9-11.8,9.8c-0.3-2.8-0.8-4.9-2.1-6.1c-1.5-1.3-3-2.3-7.2-3v-0.7
					c0,0,9.1,0.5,10.8,0.5c1.2,0,1.5-0.5,1.5-1.4V324h-6.7v0.9c0,0.7-3.6,2.6-7.1,2.6h-1.2v-26.2l8.4,3.3h5.8l4-4.4L67.5,306.3z
					 M49.6,306.3v7h6.7v-7H49.6z M56.3,322.3V315h-6.7v7.3H56.3z"/>
				<path class="st0" d="M26.7,384.9c-0.2,0.5-0.7,1-1.9,1.2v27.4c-0.1,0.7-3.3,2.9-6.9,2.9h-1.6v-27.4c-1.9,1.7-4,3.3-6,4.8
					l-0.5-0.5c4-6.5,8.1-16.1,9.9-22.1c-2.7,1.9-5.8,3.8-8.9,5.2l-0.5-0.5c4-5,8-12.6,9.7-17.3l9.5,5.7c-0.3,0.6-0.9,1-2.4,0.8
					c-1.8,1.8-4.2,3.8-6.8,5.7l9.7,5.2c-0.3,0.6-0.9,1-2.4,0.9c-1.5,1.9-3.4,4.2-5.5,6.4L26.7,384.9z M53.5,399.9
					c-4.4,2.7-11,6.2-21.5,10.9c-0.4,0.8-1,1.3-1.8,1.5l-4.7-9.2c1.9-0.2,5-0.5,8.8-1.1v-7.9h-6.7l-0.5-1.7h7.2v-9.1l10.6,0.8
					c-0.1,0.9-0.5,1.5-2.2,1.7v6.6h0.5l3.6-4.9c0,0,4.1,3.3,6.4,5.7c-0.2,0.7-0.8,1-1.6,1h-8.9v6.8c3.4-0.5,7.1-1.1,10.8-1.6
					L53.5,399.9z M61.7,373c0,0,4.6,3.8,7.4,6.4c-0.2,0.7-0.9,1-1.7,1H64v25.7c0,5.6-1.5,9.5-11,10.1c-0.2-2.8-0.6-4.9-1.8-6.1
					c-1.1-1.3-2.5-2.2-6.3-2.9v-0.7c0,0,7.5,0.4,9.1,0.4c1,0,1.3-0.4,1.3-1.1v-25.5h-3.2c0.5,0.5,1.2,1,1.6,1.5
					c-0.2,0.7-0.8,1-1.6,1H26.2l-0.5-1.7h8.7v-9.7h-7l-0.5-1.7h7.5v-9.9l10.3,0.9c-0.1,0.8-0.5,1.3-1.9,1.6v7.5h0.5l3.5-4.7
					c0,0,4,3.2,6.3,5.5c-0.2,0.7-0.8,1-1.6,1h-8.6v9.7h1l3.6-5c0,0,1.3,1.1,2.9,2.5h7.4L61.7,373z M50.5,366.6l-0.5-1.7h6.9l3.9-5.3
					c0,0,4.4,3.6,7,6.1c-0.2,0.7-0.8,1-1.7,1H50.5z"/>
			</g>
		</g>
	</g>
	<g>
		
			<image style="overflow:visible;opacity:0.75;" width="73" height="427" xlink:href="DB80B172.png"  transform="matrix(1 0 0 1 91.9557 -1.2413)">
		</image>
		<g>
			<g>
				<path class="st0" d="M131,8.8c-0.3,0.5-0.9,1-1.8,1c6.3,6.7,17,11.2,26.7,13l-0.1,0.7c-3.4,0.8-6.1,3.7-7.1,8
					c-10-4.1-16.7-11.1-21-21.1c-7.7,11.9-17.8,17.8-29.8,21.5l-0.4-0.5c8.8-5.7,18.1-15.9,22.7-28.2L131,8.8z M139.7,32.3l8,6.3
					c-0.4,0.7-0.9,0.9-2.2,1.1c-3.3,8-10.5,16.5-19.6,22l-0.4-0.5c3.9-6.3,7.5-15.5,9.1-22.9h-28.3l-0.5-1.7h29.2L139.7,32.3z
					 M132.1,21.2c0,0,4.8,4,7.6,6.6c-0.2,0.7-0.9,1-1.7,1h-26.3l-0.5-1.7h16.6L132.1,21.2z"/>
				<path class="st0" d="M149.7,71.4c-0.4,0.5-1.1,1-2.3,1.3v44.1c-0.1,0.7-4.6,2.8-8.1,2.8h-1.5V114H116v2.9c0,1.2-3.8,3.4-7.8,3.4
					h-1.5V65.7l9.8,3.9h20.6l4.3-4.7L149.7,71.4z M116,71.3v19.2h21.8V71.3H116z M137.8,112.3V92.2H116v20.1H137.8z"/>
				<path class="st0" d="M142.8,139.3c2.6,8.6,7.8,15.2,13.6,18.2v0.7c-3.8,2.9-5.6,6.6-6.1,11.4c-5.3-6.6-7.5-18.7-8.6-30.3h-0.2
					v37.4c0,0.9-3.7,3-6.9,3h-1.6v-23.4c-3.7,5.3-8.6,10-14.6,13.8l-0.7-0.6c7.2-7.7,11.7-19.1,13.7-30.2H125l-0.1-0.1
					c-0.2,0.1-0.5,0.1-0.9,0.1H116v3.2c16.2,5.2,7.9,17.7,1.6,11.4c0.2-3.3-0.5-6.8-1.6-9.7v33.1c0,0.7-3.6,2.4-6.8,2.4h-1.7v-23.2
					c-2.6,3.3-5.8,6.4-9.5,9l-0.7-0.6c5-6.7,8.1-16.4,9.7-25.7h-8.2l-0.5-1.7h9.2v-15.4l10.8,1c-0.1,0.9-0.5,1.5-2.2,1.8v12.3
					l3.4-4.9c0,0,3.3,2.9,5.7,5.2h7.9v-15.3l10.8,1c-0.1,0.9-0.5,1.5-2.2,1.8v12.5h3.2l3.9-5.4c0,0,4.4,3.6,6.9,6.1
					c-0.2,0.7-0.8,1-1.7,1H142.8z"/>
				<path class="st0" d="M108.1,189.4h-9.2l-0.5-1.7h9.5l-0.7-6.3l10.6,0.7c0,0.7-0.5,1.3-1.7,1.7l0.5,3.9h1.1l3.6-5.1
					c0,0,4.1,3.5,6.4,5.8c-0.1,0.7-0.8,1-1.6,1h-9.2l0.4,3c-1.2,1.6-4.4,2.3-8.4,2.2L108.1,189.4z M122.4,200.9
					c-0.5,0.5-1.3,0.7-2.7,0.7c-1.9,2.7-5,7.1-7.8,9.8c6.4,2.9,8.9,7.5,8.9,11.6c0,4.9-2.1,7.8-8.6,8c0-1.7-0.2-4.3-0.8-5.2
					c-0.4-0.6-1-1.1-2.1-1.4v12.1c0,0.5-2.2,2.2-6,2.2H102V195l8.1,3h1.9l3.7-3.5L122.4,200.9z M112.2,223.7c0.6,0,0.9-0.1,1.2-0.3
					c0.5-0.4,0.8-1.1,0.8-2.3c0-3.4-1.2-6.6-3.8-9.5c0.8-3.1,1.8-8.2,2.3-11.9h-3.3v23.9H112.2z M139.1,196
					c-0.2,0.7-0.7,1.1-2.6,1.3c4.1,2.7,10.8,4.4,17.8,4.4v0.8c-2.4,1-3.4,4.4-3.6,7.1c-6.3-2.2-11.6-6.4-14.8-11.8
					c-1.5,2-4,4.3-6.9,6.4h5.2l2.6-3.3c0,0,2.9,2.3,4.6,4c-0.1,0.7-0.7,1-1.5,1h-11.2l-0.4-1.2c-3.5,2.4-7.7,4.5-12.1,5.8l-0.2-0.5
					c6.3-3.8,11.9-11.1,14-16.5L139.1,196z M146.7,218.6c1.1,0.8,4.4,3.2,6.6,5c-0.2,0.7-0.9,1-1.7,1h-19.1l5.2,1.6
					c-0.2,0.6-0.9,1.2-2.2,1.1c-2.4,1.7-6,3.4-9.4,4.7c4.5,0,10.4-0.1,16.7-0.2c-0.9-2.1-2.1-4.1-3.3-5.7l0.5-0.4
					c18,3.3,11.1,17.3,4.2,11.8c-0.1-1.2-0.3-2.5-0.7-3.8c-4.9,1.3-11.8,2.9-19.8,4.5c-0.2,0.3-0.5,0.5-0.8,0.6l-3.4-7.1
					c0,0,1-0.2,1.6-0.5c2.2-1,5-4.3,6.4-6.7h-6.1l-0.5-1.7h21.8l3.6-4.3h-24l-0.5-1.7h13.2c0.9-1.6,1.9-4,2.5-6.1H124l-0.5-1.7h14.2
					l3.5-2.9l5.5,4.1c-0.4,0.5-1,0.7-2.2,0.8c-1.5,2.1-4.2,4.3-7.1,5.8h3l3.2-3.9c0,0,3.5,2.7,5.7,4.6c-0.1,0.7-0.7,1-1.6,1H146.7z
					 M128.2,187.7h5.8l1-6.3l10.5,1.6c-0.1,0.7-0.6,1.5-2.4,1.6l-0.5,3h1.9l3.6-5.1c0,0,4.1,3.5,6.4,5.8c-0.1,0.7-0.8,1-1.6,1h-10.5
					l-0.5,3.4c-1.6,1.2-5,1.8-8.7,1.1l0.7-4.5h-5.1L128.2,187.7z"/>
				<path class="st0" d="M115.2,259.2c-0.2,0.5-0.7,1-1.9,1.2v35.4c-0.1,0.7-3.7,2.5-7.2,2.5h-1.6v-31.1c-2.3,2.2-4.8,4.1-7.5,5.8
					l-0.6-0.5c5.2-7.7,10.3-20,12.6-32l12.2,3.8c-0.2,0.8-1,1.3-2.5,1.3c-1.9,4.7-4.1,8.9-6.6,12.5L115.2,259.2z M146.7,283.8
					c0,0,5.4,4.4,8.6,7.4c-0.2,0.7-0.9,1-1.9,1h-38.1l-0.5-1.9h27.1L146.7,283.8z M117.8,253.5h21.8l4.6-6.3c0,0,5.3,4.3,8.4,7.2
					c-0.2,0.7-0.9,1-1.9,1h-32.4L117.8,253.5z"/>
				<path class="st0" d="M156.1,319.5c-0.5,0.5-1.1,0.7-2.3,0.7c-1.6,1.3-4.2,2.9-6.6,4c5,4.8-0.2,11.4-5.4,7.3
					c-0.3-3.8-2.3-8.1-4.5-10.9l0.5-0.3c3.3,0.5,5.8,1.4,7.6,2.5c0.2-1.3,0.2-2.9,0.4-4.2H106c0.9,4-0.2,6.9-2.1,8
					c-1.9,1.2-4.9,0.4-5.7-2c-0.7-2.4,0.8-4.3,2.9-5.2c1.3-1.1,2.7-3.6,2-6.1l0.8-0.1c0.7,1.3,1.2,2.4,1.6,3.6h26.8
					c1.6-3,3.1-6.9,4-10.1c-9.7,0.6-21.5,0.9-31.7,0.4l-0.1-1c12.6-1.2,28.9-4.3,37.4-6.9l6.6,7c-0.7,0.5-2.1,0.5-4.1-0.3
					c-1.9,0.2-3.9,0.4-6,0.5l7.9,2.9c-0.3,0.7-1,1.1-2.4,1c-2.4,1.9-6.2,4.4-9.8,6.3h10.9l4-4L156.1,319.5z M146,340.6
					c-0.5,0.7-1.1,0.9-2.7,1c-1.9,2.3-4.1,4.4-6.5,6.1c5.4,0.6,11.1,0.9,16.7,0.8v0.8c-3.7,1.2-5.7,4.1-6.4,8.3
					c-7.5-0.9-14.4-2.2-20.4-4.5c-7.8,2.9-17.1,4.3-27.4,4.6l-0.2-0.8c8.1-1.4,15.6-3.5,21.8-6.5c-2.4-1.4-4.6-3-6.6-4.9
					c-3.8,2-8,3.6-12,4.4l-0.4-0.7c3.2-1.9,6.3-4.6,9-7.5c-1.3-1.7-2.5-3.6-3.5-5.7l0.6-0.5c1.3,1.7,2.8,3.2,4.6,4.4
					c1.9-2.3,3.6-4.6,4.6-6.7c-3-0.5-3.7-2-3.7-5.5v-8.1l8.8,0.7c-0.1,0.8-0.7,1.3-1.8,1.5v4.4c0,0.7,0.2,0.9,1.9,0.9h5.3
					c1.9,0,3.6,0,4.4-0.1c0.7,0,1.3-0.1,1.6-0.5c0.6-0.6,1.4-2,2.4-4.1h0.6l0.2,4.1c1.9,0.7,2.4,1.5,2.4,2.8c0,2.9-2.7,4.2-12.5,4.2
					h-6.1h-1l8.1,2.2c-0.2,0.6-0.9,1-2,1c-0.4,0.5-0.8,0.9-1.3,1.4h9.5l4.9-4.1L146,340.6z M111.2,320.4c2.6,6.5,0.5,11.1-2.6,12.5
					c-2.1,0.9-5,0.1-5.7-2.4c-0.5-2.4,1-4.1,3-4.9c2-0.7,4.4-2.8,4.4-5.1H111.2z M108.9,308c15.3,1.5,7.8,12.7,1.8,7.7
					c0.1-2.7-1-5.6-2.2-7.4L108.9,308z M122.8,339.8c-1.3,1.2-2.9,2.3-4.6,3.4c2.9,1.3,6.1,2.2,9.5,3c2.5-1.9,4.6-4,6.2-6.4H122.8z
					 M120.5,307.6c15.3,1.9,7.6,13.1,1.6,7.9c0.1-2.7-0.9-5.7-2.1-7.6L120.5,307.6z M123.1,319c15.1-0.4,9.2,11.3,2.9,7.2
					c-0.4-2.6-1.9-5.3-3.4-6.9L123.1,319z"/>
				<path class="st0" d="M152.5,369.9c-0.4,0.7-1,0.8-2.5,1c-1.8,4.1-4.3,7.8-7.4,11.2c3.9,1.8,8.4,3.2,13.6,4.1l-0.1,0.7
					c-3.5,1.3-5,3.9-5.6,8c-0.9-0.3-1.8-0.7-2.6-1.1l3.6,2.7c-0.4,0.5-1,0.9-2.4,1.2V415c0,0.4-2.6,1.7-7.1,1.7h-1.6v-4.4h-8.6v2.9
					c0,0.5-2.5,1.8-6.7,1.8h-1.5v-13.3c-4.8,2.9-11.9,6.7-21.8,11.4c-0.3,0.8-1,1.5-1.7,1.6l-3.5-8.8c0.9-0.1,2-0.3,3.3-0.5v-21.9
					l7.5,0.7c-0.1,0.5-0.4,0.9-1.2,1v19l1.9-0.4v-25.7h-0.4v0.4c0,0.5-2.3,2.1-6.1,2.1h-1.3v-21.9l8.3,3.1h4.9l3.4-3.6l7,5.3
					c-0.3,0.4-1,0.9-2.2,1.2v13.4c-0.1,0.4-3.6,1.7-6,1.8v8.4l3.3-5.3c0,0,3.8,3.8,5.8,6.2l-0.1,0.2c3.8-2.6,7-5.6,9.7-8.9
					c-1.3-2.1-2.5-4.3-3.5-6.7c-2.9,3-6.1,5.4-9.7,7.3l-0.6-0.5c4.3-5.5,8.1-14.1,9.8-23.2l10.6,3.4c-0.3,0.8-1,1.3-2.5,1.3
					c-0.6,1.4-1.3,2.7-2,4h4.8l4.3-4.2L152.5,369.9z M113.9,378.4v-12.9h-6.3v12.9H113.9z M115.5,404.2c2.7-0.5,5.4-1.2,8.1-1.7V394
					c-1.7,0.6-3.5,1.1-5.3,1.6l-0.4-0.7c1.9-0.9,3.7-1.9,5.3-3c-0.1,0-0.2,0-0.4,0h-7.5V404.2z M143.6,391.5c-2.3-1.4-4.3-3-6-4.9
					c-3.3,2.6-7.1,4.7-11.4,6.5l6.3,2.3h7.7L143.6,391.5z M140.4,410.5v-13.4h-8.6v13.4H140.4z M135.3,369.5c-1,1.6-2.1,3.1-3.2,4.5
					c1.3,1.7,2.9,3.3,4.7,4.7c1.9-2.9,3.3-6,4.4-9.2H135.3z"/>
			</g>
		</g>
	</g>
</g>
</svg>
