<?xml version="1.0" encoding="utf-8"?>
<!-- Generator: Adobe Illustrator 26.5.0, SVG Export Plug-In . SVG Version: 6.00 Build 0)  -->
<svg version="1.1" id="圖層_1" xmlns="http://www.w3.org/2000/svg" xmlns:xlink="http://www.w3.org/1999/xlink" x="0px" y="0px"
	 viewBox="0 0 466 56" style="enable-background:new 0 0 466 56;" xml:space="preserve">
<style type="text/css">
	.st0{fill:url(#SVGID_1_);}
</style>
<linearGradient id="SVGID_1_" gradientUnits="userSpaceOnUse" x1="233" y1="-0.101" x2="233" y2="56.1011">
	<stop  offset="0" style="stop-color:#006556"/>
	<stop  offset="1" style="stop-color:#197164;stop-opacity:0.2"/>
	<stop  offset="1" style="stop-color:#006556;stop-opacity:0.2"/>
</linearGradient>
<path class="st0" d="M47.3,14.2h-0.6c-5.2-18-33-13.3-36.4,4C1.8,42.5,24.8,66.6,46.8,47v2C33.6,61.7,9.9,56.5,4.1,39.2
	C-4.5,17.7,17.3-5.6,39.3,2.3c2.2,0.5,7.3,3,7.9-0.6h0.6L47.3,14.2z M106.3,28.7c-0.8,36.4-53.4,36.1-54.1-0.2
	C52.7-7.7,106.2-7.7,106.3,28.7z M100.2,28.8c1.9-34.9-43.7-34.4-41.8-0.2C56.9,62.7,101.7,63.3,100.2,28.8z M164.6,2.5v0.6
	c-4.3,0.2-5.6,2.8-5.5,7.1c0,0,0,45.8,0,45.8h-0.3l-39.3-44.7v32.1c0.2,5.4-0.6,10.5,5.7,10.7v0.6h-12.8v-0.6
	c5.9-0.2,5.4-5.3,5.6-10.7c0,0,0-34.1,0-34.1c-2.7-3.2-4.8-5.9-8.7-6.3V2.5h9.6l38.7,44.3V13c0-5.3,0.2-9.8-5.8-9.9V2.5H164.6z
	 M213.9,2.5v0.6c-9.1,0.6-18.6,46.3-22.6,53h-0.5L173.3,9.3c-1.1-3.7-3.1-6.2-6.9-6.2V2.5h16.8v0.6c-4.5,0-5.6,3-3.9,7.2
	c0,0,13.4,36.7,13.4,36.7h0.1l11.5-34.1c1.7-4.8,2.4-9.8-3.4-9.7V2.5H213.9z M216,3.1V2.5h30.5v8.2h-0.5c0.8-8.8-13.5-6.2-19.3-6.6
	v23.7c5-0.7,16.3,2.6,16.9-5.1h0.5v11.8h-0.5c-0.7-7.8-11.9-4.4-16.9-5.1V48c0.1,3,0.7,5.2,4.4,5.1c6.1,0.1,15.1,1.2,16.6-6.6h0.5
	l-1.8,8.2H216v-0.6c3.1,0.2,5.6-2.1,5.5-5.7c0,0,0-39.4,0-39.4C221.5,5.6,219.9,2.6,216,3.1z M304.2,2.5v0.6
	c-4.3,0.2-5.6,2.8-5.5,7.1c0,0,0,45.8,0,45.8h-0.3l-39.3-44.7v32.1c0.2,5.4-0.6,10.5,5.7,10.7v0.6H252v-0.6
	c5.9-0.2,5.4-5.3,5.6-10.7c0,0,0-34.1,0-34.1c-2.7-3.2-4.8-5.9-8.7-6.3V2.5h9.6l38.7,44.3V13c0-5.3,0.2-9.8-5.8-9.9V2.5H304.2z
	 M324.3,2.5v0.6c-3.4,0.1-5.6,1.9-5.5,5.7c0,0,0,39.6,0,39.6c-0.1,3.6,2.4,5.7,5.5,5.7v0.6H308v-0.6c3.3-0.1,5.6-2,5.5-5.7
	c0,0,0-39.6,0-39.6c0.1-3.9-2.1-5.6-5.5-5.7V2.5H324.3z M328.2,3.1V2.5h30.5v8.2h-0.5c0.8-8.8-13.5-6.2-19.3-6.6v23.7
	c5-0.7,16.3,2.6,16.9-5.1h0.5v11.8h-0.5c-0.7-7.8-11.9-4.4-16.9-5.1V48c0.1,3,0.7,5.2,4.4,5.1c6.1,0.1,15.1,1.2,16.6-6.6h0.5
	l-1.8,8.2h-30.5v-0.6c3.1,0.2,5.6-2.1,5.5-5.7c0,0,0-39.4,0-39.4C333.7,5.6,332.1,2.6,328.2,3.1z M416.4,2.5v0.6
	c-4.3,0.2-5.6,2.8-5.5,7.1c0,0,0,45.8,0,45.8h-0.3l-39.3-44.7v32.1c0.2,5.4-0.6,10.5,5.7,10.7v0.6h-12.8v-0.6
	c5.9-0.2,5.4-5.3,5.6-10.7c0,0,0-34.1,0-34.1c-2.7-3.2-4.8-5.9-8.7-6.3V2.5h9.6l38.7,44.3V13c0-5.3,0.2-9.8-5.8-9.9V2.5H416.4z
	 M463.8,12.7h-0.6c0.1-10.9-12.4-7.6-19.4-8.1v43.9c0,3.7,1.9,5.6,5.6,5.7v0.6h-16.3v-0.6c3.4-0.2,5.5-1.9,5.5-5.7
	c0,0,0-43.9,0-43.9c-7,0.5-19.4-2.8-19.4,8.1h-0.6V-0.1h0.6c1.2,2.3,3.3,2.6,5.7,2.6c4-1,36.5,2.5,38.3-2.6h0.6V12.7z"/>
</svg>
