<?xml version="1.0" encoding="utf-8"?>
<!-- Generator: Adobe Illustrator 26.5.0, SVG Export Plug-In . SVG Version: 6.00 Build 0)  -->
<svg version="1.1" id="圖層_1" xmlns="http://www.w3.org/2000/svg" xmlns:xlink="http://www.w3.org/1999/xlink" x="0px" y="0px"
	 viewBox="0 0 614 424" style="enable-background:new 0 0 614 424;" xml:space="preserve">
<style type="text/css">
	.st0{fill:#E0E0E0;}
	.st1{fill:#866134;}
</style>
<path class="st0" d="M222.3,222.2c12.9,2.6,17.8-13.1,31.1-11.8c3.2,0.1,6.5-3.3,9.8-4.8c3.6-1.6,7.4-2.4,11-4.9
	c3.4-2.3,9.4-0.4,14-1.2c6.6-1.3,13.4-2.7,19.5-5.5c6.3-2.3,9.9-11.3,17.1-11.5c13.5,1.1,27,3.3,40.4,4.9c1.6,0.1,4.2-0.7,4.9-1.9
	c8-11.1,23.3-8.1,35.1-10.4c0.1,0.5,0.3,1,0.4,1.6c-1.4,0.7-2.7,1.3-5,2.5c28.6,23.6,19.6-2.8,42.1,1.9c1,0.4,3.2-2.7,5.1-4.3
	c2.2,0.8,4.4,1.7,7.4,2.9c3.4-9.5,12.2-4,18.3-6.7c6.3-2.8,12.5-7.9,18.8-8.1c15-0.4,18.1-12.8,24.6-21.5
	c15.1-20.2,26.9-42.6,39.7-64.3c5.5-9.4,11.2-18.7,16.7-28.1c3.3-5.7,5-12.9,13.3-13.9c0.7-0.1,1.3-2,1.8-3.1
	c4.2-7.1,8.6-37.7,18.8-33.5c7.4,6.5,5.1,20-0.4,27.7c-4.5,15.8-11.4,32.2-9.3,49c3.1-0.6,5.8-1.1,9-1.7c-0.5,8.7-1,16.5-1.5,24.3
	c13.5,4.3,7.8,4.2-0.7,39.3c-1,4.2-3.1,8.1-4.7,12.2c-0.6,13.3-3.5,26.8-7.4,39.6c-4.7,22.1-11,44-20.4,64.4
	c2.8,16.9-9.4,29.9-11,45.4c1.8,14.4-8.7,12.5-13.8,20.4c-42,22.5-55.1,19.7-97.7,2.3c-4.7-1.3-10.3,1.5-15.5,1.2
	c-9.1-0.5-13.6,3.5-18.4,11.3c-2.8,4.6-10.4,7.4-15.1,12.3c-7.4,5.1-7.5,19.7-20.3,15.4c-4.2-2-7.1-3.1-8.9,3.9
	c-4,7.9-18.1,10.2-26.5,12.9c-11.4,4.6-22.9,7.1-35.1,3.9c-8.1-0.4-15.6,2.3-23.9,0.1c-6-1-14.1-6.2-19.6,3.1
	c-12.7,6.3-11.8-11-27.4,2.3c-10.4,9.2-17.9-6.4-25.7,3.8c-4.4,5.5-9.4,9.5-17.7,9.8c-10.1,3.1-12,17.8-26.1,19.5
	c-7.5,1.9-15.1-1-20.5-6.6c-21.4-13.2-41.6-30.2-56.1-51.3c-6.3-9.7-12.3-19.7-17.9-29.9c-6-12.1-8.1-23.6-22.1-29.7
	c2.9-0.6,5-1.1,7.4-1.7c-3.8-11.9-11.8-25-6.9-38c0.5-3.2-0.7-8.1-2.9-10.9c-1.5-8.2-5.6-14.7-11-21.1c-4.1-4.9,1.1-12.2,7.8-13.9
	c3-0.8,5.6-3.5,7.8-6.2c13-5.1,23.5,3,34.5,8.4"/>
<path class="st1" d="M165.4,194c-1.2,5.2-7.4,2.3-10.8,1.9c-16.8,23.6-40.4,42.2-56.2,67.9c-20.9,30.5-36.1,63.4-45.9,95.6
	c-0.5,3.5-5.6,3.9-7.2,1c-1.5-3.4,0.6-5.1,1.6-9.7c10.9-32.8,29.4-70.1,50.9-99.8C76.8,266.7-22.2,305.3,6.2,247
	c18.6-34.5,52.5-67.8,81.7-95.7c17.4-15.9,38.5-34.4,55.7-44.5c23-12.8,20.4,7,10.5,20.7c-2.2,1.8-12.1,23.9-17.7,18.9
	c-1.8-1.2-2.2-3.7-1-5.4c13.4-18.5,17.5-26.7,18.3-30.3c-36,17.9-138.8,113.6-145,154.3c0.5,5.1,4.6,5.4,12,5
	c47.4-3,95.6-34.8,125-75.4c-13.4-1.3-30.7-4.9-42.2,0.7c-0.6,0.5-0.6,0.9-0.6,1c0.1,2.2-1.8,4.1-4,4c-6-0.5-4.3-8.6-0.4-11.2
	c6.8-5.6,23.9-6.2,52.3-1.7c1.7-5.5,9.6-4.3,8.2,1.5C162.3,189.2,166.2,190.1,165.4,194z M363.2,227.6c-18,5.4-40.7,12.7-60,9.4
	c-14.1-2.9-8.3-11.4-23.4-0.9l0,0c-10,7.6-22.6,6.1-22-6.6c-18.2,9.8-63.2,28.5-79,8.7c-3.1,4.8-3.3,15.9-9.9,17.6
	c-2.8,0-4.7-1.4-4.2-6.5c1.3-6.8,7.6-44.4,19.4-35c18-10.4,25,18.9,5.6,22.8c18.2,5.1,40.6-3.3,57.2-10.9
	c4.9-1.5,13.2-10.4,16.4-3.9c6-3.4,14.2-8.1,20.7-6.7c3.2,1.5,2.3,6.8-1.1,7.2c-4.5,1.1-15.8,4.7-17.2,8.3c2.2,4.4,6.2,0.1,11.1-2.4
	c6.5-4.1,14.5-8.9,21.3-3c7.6,9.2,32.2,1.8,43.7-0.2c6.2-0.4,18.5-7.6,22.9-4.6C366.9,222.8,366.1,226.9,363.2,227.6z M190.2,228.6
	c3.9-2.1,5-7.5,0.4-8.8c-2,0.6-3.8,2.2-7.6,9.3C185.5,228.5,187.9,230.4,190.2,228.6z M583,225.8c-7,4.7-17.4,4.5-25.3,7
	c-7.7,1.6-16.5,3.2-25.9,4.8c-16.7,1.6-38.8,8.2-42.3-11c-13.5,15.3-22,22.6-33.6,20.4c-7.2-3.8-9.8-10.8-5.5-17
	c-12.1,3.9-63.4,23.5-60.3-3.1c-1.8,1.4-5.3,4.6-12,11.9v0c-28.8,33.3-12-33.7,0.2-22.2c1.3,1.7,0.9,4.2-0.7,5.5
	c-2.6,1.9-5.1,8.5-6.3,12.2c8.5-7.9,12.9-16.8,22.3-16.1c2.6,0.7,5.4,2.9,4.4,9.4c-0.8,5-0.2,3.9,6.1,4.9c8.3,0.9,33-6.2,40.2-8.8
	c5.8-1.1,11.2-7.2,14.9-1.7c4.9-3,17.3-10.6,15.9-0.2c-3.2,4-9.5,4.6-13.5,8.2c-5.7,4.6-7.3,5.6-2.9,9.5
	c11.5-0.6,20.4-12.8,29.3-23.4c-1.1-21.4,5.1-48.1,15.5-66.8c7.6-13.6,20.8-24.5,29-13.5c4,23.2-22.5,62.8-36.4,82.6
	c3.7,16.5-0.3,14.5,29,12c15.7-2.1,33.7-5.6,53.5-10.6C582,219.2,584.9,222.8,583,225.8z M521.6,156.6c1.7-5.4,4.9-12.7,3.7-17.2
	c-19.1,4.2-28.5,47.7-29.5,65.7C505.3,191,515.9,172.3,521.6,156.6z M103.1,297c5.6-0.4,9.3-7.9,3.2-10.1c-3.9-1.1-8.7,0-12.7-0.4
	c-0.1,0-0.1,0.5,0,0.4c1.8-0.1,2.7,0.6,2.6,2.5c0,0,0,16.7,0,16.7c0.1,1.9-0.8,2.6-2.6,2.5c-0.5,0.9,1.5,0.3,2.1,0.4
	c3.8-0.4,8.4,1,12-0.7c7.5-3.2,3.4-12.9-4.1-12L103.1,297L103.1,297z M103.9,287.7c3.9,3.9,0.8,10.2-5.1,8.7l1.3,0.2
	C100.6,294.1,98.4,284.7,103.9,287.7z M102.7,308.4c-1.7,0.1-2.6-0.5-2.5-2.2c0,0,0-9,0-9l-1.2,0.4
	C107.9,294.7,111.2,308,102.7,308.4z M134.2,291.2v10.1c0.4,10.1-14.4,8.8-12.9-1.4c0,0,0-10.3,0-10.3c-0.2-2.5,1-2.2,2.7-2.8
	c-2.5-0.5-6.4,0.1-9.3-0.2c-0.1,0-0.1,0.5,0,0.4c5.5-1.3,0.5,15.7,3.7,18.7c4.2,6.8,17.5,4.4,16.9-4.5c0.6-3.5-2-13.8,3.1-14.4
	c-1.9-0.3-5.8-0.3-7.7,0C132.8,287.3,134.3,288.5,134.2,291.2L134.2,291.2z M147.2,306.2v-16.6c-0.2-2.5,1-2.2,2.7-2.8
	c-0.6-0.4-13.8-0.4-7.7,0.4c2.1,0.4,0.5,17.5,1,19c0.2,2.6-1.1,2.1-2.7,2.7c2.4,0.3,7,0.3,9.4,0C148.2,308.3,147,308.8,147.2,306.2
	L147.2,306.2z M159,289.5c-0.2-2.6,1-2.1,2.7-2.7c-2.5-0.5-6.5,0.1-9.3-0.2c-0.1,0-0.1,0.5,0,0.4c1.9-0.1,2.7,0.6,2.6,2.5
	c0,0,0,16.7,0,16.7c0.3,3.6-2.7,1.7-2.6,2.9h17.1c0.8,0.5,1.1-7.4,0.5-6.6c-1.1,4.5-6,6.3-10.2,5.4
	C158.1,307.9,159.4,290.7,159,289.5L159,289.5z M182.7,309.3c18.3-1.5,16.7-28.3-10.6-22.3c1.9-0.1,2.7,0.6,2.6,2.5
	c-0.1,0.5,0.2,18.6-0.2,18.3c-0.3,1.2-1.8,0.5-2.5,1.1C174.9,309.4,179.5,308.9,182.7,309.3L182.7,309.3z M182.4,308.5
	c-2.5-0.1-3.6-0.3-3.7-2.6c0.4-1.3-1-17.9,0.9-18.1C191.9,283.5,194.6,308.4,182.4,308.5L182.4,308.5z M204.7,306.2v-16.6
	c-0.1-1.9,0.6-2.7,2.6-2.6c0.5-0.9-1.4-0.3-2.1-0.4c-2.2,0.3-5.5-0.4-7.2,0.2c1.6,0.6,2.9,0.1,2.7,2.7c0,0,0,16.7,0,16.7
	c0.1,2-0.7,2.6-2.6,2.5c-0.3,0.9,1.4,0.3,2.1,0.4c2.2-0.3,5.4,0.4,7.2-0.2C205.7,308.3,204.5,308.8,204.7,306.2L204.7,306.2z
	 M231.8,309.7l-0.3-6c-0.6-0.8-14.3-16.3-14.4-16.7c-0.6-0.8-1.3-0.3-2.3-0.4c-1.5,0.3-4.1-0.4-5.3,0.2
	C213.2,286.7,228.7,308.5,231.8,309.7L231.8,309.7z M213.4,304.5c0.1,2.7-1.5,3.9-3.5,4.4c1.9,0.3,5.8,0.3,7.7,0
	c-1.9-0.5-3.2-1.8-3.1-4.4c0,0,0-17.1,0-17.1l-1.1-0.1L213.4,304.5L213.4,304.5z M231.8,291.2c-0.1-2.5,1.3-3.9,3.2-4.4
	c-1.8-0.3-5.5-0.3-7.3,0c1.9,0.5,3.2,1.9,3.1,4.4c0,0,0,17.4,0,17.4l1.1,1.1L231.8,291.2L231.8,291.2z M250.1,309.5
	c2.8,0,6.1-0.4,8.7-1.1c0.2-1.2-0.3-2-0.2-3.5c0.1-2.3-0.5-3.9,1.5-4.5c-1.3-0.5-14.4-0.4-6.5,0.5c5.6,9.9-7.6,10.7-10.9,2.1
	c-5.8-12.4,7.3-23.3,15.1-10c0.5,0.1-0.4-5.1-0.3-5.2c-2.3-2.8-8.9-1.8-12.2-0.9C232.1,291,236.2,310.9,250.1,309.5L250.1,309.5z
	 M103.1,332.2c5.6-0.4,9.3-7.9,3.2-10.1c-3.9-1.1-8.7,0-12.7-0.4c-0.1,0-0.1,0.5,0,0.4c1.8-0.1,2.7,0.6,2.6,2.5c0,0,0,16.7,0,16.7
	c0.1,1.9-0.8,2.6-2.6,2.5c-0.5,0.9,1.5,0.3,2.1,0.4c3.8-0.4,8.4,1,12-0.7c7.5-3.2,3.4-12.9-4.1-12L103.1,332.2L103.1,332.2z
	 M103.9,322.9c3.9,3.9,0.8,10.2-5.1,8.7l1.3,0.2C100.6,329.3,98.4,319.9,103.9,322.9z M102.7,343.6c-1.7,0.1-2.6-0.5-2.5-2.2
	c0,0,0-9,0-9l-1.2,0.4C107.9,329.9,111.2,343.2,102.7,343.6z M139.4,343.9c-3.9-1.2-10.4-19-12.9-22.3c-0.8-1.5-8.2,17.3-8.5,17.2
	c-2.4,7.4-10.2,5,1.9,5.4c0.6-0.1,1.8,0.4,2.2-0.1c-1-0.5-2.6-0.4-3.1-1.5c-2.1-2.1,6.8-17,7.2-19.3l-1.8,3.1l7.3,14.5
	c1.3,2.6,0.9,2.5-1.2,3.2c2.5,0.5,6-0.1,8.8,0.2C139.7,344.4,139.7,343.9,139.4,343.9L139.4,343.9z M129.7,333.5l-0.2-1H122l-0.5,1
	H129.7z M145.7,325.4c0-4.4,6-3.9,7.4-0.6c0.8,0.7,1.2,3.9,2,3.4c0-0.2,0.1-5.7-0.1-5.7c-2.3-1.4-6-1.4-8.7-0.5
	c-10.6,5.6,1.4,11,5.4,15.5c2.4,3.5-1,8.3-4.9,5.7c-2.4-1-3.4-5.8-4.9-6.3c0,0,0.1,5.7,0.1,5.7c3.5,4.2,14.2,2.3,13.9-4.3
	C156.3,331.7,146.1,331.6,145.7,325.4L145.7,325.4z M175.5,344.3c0.7,0.6,1.1-6.7,0.5-5.7c-1.1,3.4-3.4,4.7-7,4.7
	c-1.5,0.2-3-0.2-2.8-2.1c0,0,0-16.5,0-16.5c-0.1-1.3,0.8-2,2.1-1.9c5.1-0.2,4.8,1.4,7.1,4.1c-0.2-0.2,0.3-5.4-0.4-5.1
	c0.4,0.3-20.9-0.6-13.7,0.6c1.9,0.4,0.5,17.5,0.9,19c0.2,2.6-1,2.1-2.7,2.7C159.2,344.7,175.4,344.1,175.5,344.3L175.5,344.3z
	 M173.4,336.3c0.7,1.1,0.6-8,0-6.9c-0.2,3.9-6.6,2.5-9.2,2.7v1C167,333.3,173.4,331.9,173.4,336.3L173.4,336.3z"/>
</svg>
