<svg width="421" height="299" viewBox="0 0 421 299" fill="#FADAA399" xmlns="http://www.w3.org/2000/svg">
<path d="M50.5,3.4V1.8H72v1.6c-8.6,0-9.8-0.1-9.8,5.3v63.4h-1.3L12,6.5v57.7c0,5.6,1.8,5.6,10.4,5.6v1.6H0.6v-1.6
	c8.4,0,9.8-0.2,9.8-5.6V3.4H0.6V1.8H22l38.6,51.7V8.7C60.6,3.3,59.4,3.4,50.5,3.4z M349.5,3.4V1.8h21.5v1.6c-8.6,0-9.8-0.1-9.8,5.3
	v63.4h-1.3L310.9,6.5v57.7c0,5.6,1.8,5.6,10.4,5.6v1.6h-21.8v-1.6c8.4,0,9.8-0.2,9.8-5.6V3.4h-9.8V1.8h21.4l38.6,51.7V8.7
	C359.5,3.3,358.3,3.4,349.5,3.4z M110.6,48.9H88.9l-4.2,12.5c-3.2,8.7-1.9,8.5,8.2,8.5v1.6H72v-1.6c7.4,0,7.4-0.1,9.7-5.8l21.9-63.8
	h1.1l24.7,69.7h8.4v1.6H108v-1.6h10L110.6,48.9z M99.6,17.3l-10.1,30h20.6L99.6,17.3z M194.3,1.8v20.5h-1.6
	c0-16.2-3.4-18.9-24.3-18.9v66.5h10.5v1.6h-31.3v-1.6H158V3.4c-20.2,0-24.3,2.7-24.3,18.9h-1.6V1.8H194.3z M63.7,228.8v-1.6h21.5
	v1.6c-8.6,0-9.8-0.1-9.8,5.3v63.4H74L25.1,232v57.7c0,5.6,1.8,5.6,10.4,5.6v1.6H13.7v-1.6c8.4,0,9.8-0.2,9.8-5.6v-60.9h-9.8v-1.6
	h21.4l38.6,51.7v-44.7C73.7,228.8,72.5,228.8,63.7,228.8z M123.8,274.4H102l-4.2,12.5c-3.2,8.7-1.9,8.5,8.2,8.5v1.6H85.1v-1.6
	c7.4,0,7.4-0.1,9.7-5.8l21.9-63.8h1.1l24.7,69.7h8.4v1.6h-29.8v-1.6h10L123.8,274.4z M112.7,242.8l-10.1,30h20.6L112.7,242.8z
	 M207.5,227.2v20.5h-1.6c0-16.2-3.4-18.9-24.3-18.9v66.5H192v1.6h-31.3v-1.6h10.5v-66.5c-20.2,0-24.3,2.7-24.3,18.9h-1.6v-20.5
	H207.5z M207,3.4h-9.3V1.8h28.9v1.6h-9.3v66.5h9.3v1.6h-28.9v-1.6h9.3V3.4z M263.8,0.2c43.2,0,43.2,72.9,0,72.9S220.6,0.2,263.8,0.2
	z M263.8,71.5c28.1,0,28.1-69.7,0-69.7C235.7,1.8,235.7,71.5,263.8,71.5z M209.1,127.7v16.6h-1.3c0-13.2-2.8-15.3-19.7-15.3v54h8.5
	v1.3h-25.4v-1.3h8.5v-54c-16.4,0-19.7,2.2-19.7,15.3h-1.3v-16.6H209.1z M239.5,126.4c35,0,35,59.1,0,59.1S204.4,126.4,239.5,126.4z
	 M239.5,184.2c22.8,0,22.8-56.5,0-56.5S216.6,184.2,239.5,184.2z M377,47c0,16.6,10.1,24.4,22.3,24.4c9.8,0,16.8-6,16.8-14.9
	c0-10.3-5.5-13.4-17.2-15.1c-16-2.5-23.5-5-23.5-21.7c0-11.3,7.6-19.5,19-19.5c10.5,0,14.4,6,17.9,6c2.3,0,2.6-2.5,2.9-3.8h1.6v20.8
	h-1.6C414.3,12,408,1.8,394.4,1.8c-8.6,0-14.7,5.5-14.7,14.7s3.5,10.9,20.3,13.9c14.9,2.6,20.9,7.2,20.9,20.1s-7.3,22.7-22.1,22.7
	c-10.2,0-15.6-5.1-19.3-5.1c-2.4,0-2.5,2.5-2.5,4.2h-1.6V47H377z M302.8,228.8v31.5l0,0c14.7,0,24.1-1.4,24.1-15.5
	C326.9,231.5,319.9,228.8,302.8,228.8z M366.6,228.8v31.9c14.6,0,19.2-0.4,19.2-12.7h1.6v26.3h-1.6c0-11.5-2.5-12.1-19.2-12.1v33.1
	c32.1,0,38.3-0.2,38.3-18.7h1.6v20.3h-67.8c-14.9,0.9-13.6-11.6-15.3-23.2c-0.5-10.9-7.7-11.9-20.6-11.9v33.5h10.4v1.6h-30.9v-1.6
	h10.2v-66.5l0,0l-10.8,0c-8.4,0-10.1,0-10.1,6.8v41.1c0,15.4-11.4,21.8-24.9,21.8c-16.8,0-27.7-3.9-27.7-19.6v-50.1h-9.7v-1.6h30.8
	v1.6h-10.8v51.8c0,11.3,8.7,16.3,17.4,16.3c14.2,0,23.2-6.6,23.2-21.4v-40c0-6.7-1.6-6.7-11.9-6.7v-1.6l55.4,0
	c11.7,0,24.4,2.6,24.4,17.5c0,12.1-14.3,15.3-21.8,16.2c19.3,0.4,19.2,12.7,20.8,28.7c0.7,5.8,2.7,5.7,5.3,5.7h14v-66.5l0,0h-9v-1.6
	h54.2l1.2,16.8H401C398.8,228.8,393.3,228.8,366.6,228.8z"/>
</svg>
