<svg width="76" height="30" viewBox="0 0 76 30" fill="none" xmlns="http://www.w3.org/2000/svg">
<g clip-path="url(#clip0_80_383)">
<path d="M6.29902 25.4686H2.60407C1.40408 25.4686 0.446915 24.5405 0.446915 23.3881V16.4669C0.446915 15.5694 1.04163 14.7739 1.91434 14.4918L7.43566 12.7105C7.93536 12.5439 8.36468 12.204 8.62509 11.7552L14.6004 1.48555C14.9804 0.829459 15.6983 0.424927 16.4795 0.424927H55.9944C57.1768 0.424927 58.1481 1.35637 58.1481 2.50538V23.3881C58.1481 24.5405 57.1768 25.4686 55.9944 25.4686H6.29902Z" fill="white"/>
<path d="M55.9944 25.8935H2.60407C1.16479 25.8935 0 24.7683 0 23.3881V16.4669C0 15.3858 0.714358 14.4272 1.77358 14.0873L7.29138 12.3059C7.69255 12.1768 8.03037 11.9048 8.238 11.5513L14.2133 1.27819C14.6707 0.489518 15.5399 0 16.4795 0H55.9944C57.4232 0 58.5879 1.12521 58.5879 2.50538V23.3881C58.5879 24.7683 57.4232 25.8935 55.9944 25.8935ZM16.4795 0.853258C15.8602 0.853258 15.2901 1.1796 14.9839 1.69632L9.00866 11.966C8.69547 12.5099 8.18169 12.9178 7.56938 13.115L2.05158 14.8963C1.3513 15.1207 0.883271 15.753 0.883271 16.4669V23.3881C0.883271 24.2992 1.65041 25.0436 2.60055 25.0436H55.9944C56.934 25.0436 57.7047 24.2992 57.7047 23.3881V2.50538C57.7047 1.59433 56.934 0.849858 55.9944 0.849858H16.4795V0.853258Z" fill="#444649"/>
<path d="M15.9341 25.4686C15.9341 27.736 14.0268 29.5751 11.6761 29.5751C9.32537 29.5751 7.43214 27.736 7.43214 25.4686C7.43214 23.2012 9.33241 21.3655 11.6761 21.3655C14.0197 21.3655 15.9341 23.2012 15.9341 25.4686Z" fill="white"/>
<path d="M11.6761 30C9.09664 30 6.98875 27.9672 6.98875 25.4686C6.98875 22.97 9.09664 20.9371 11.6761 20.9371C14.2555 20.9371 16.3669 22.9666 16.3669 25.4686C16.3669 27.9706 14.2625 30 11.6761 30ZM11.6761 21.7904C9.57874 21.7904 7.86851 23.4391 7.86851 25.4686C7.86851 27.498 9.57874 29.1468 11.6761 29.1468C13.7734 29.1468 15.4836 27.4912 15.4836 25.4686C15.4836 23.4459 13.7804 21.7904 11.6761 21.7904Z" fill="#444649"/>
<path d="M51.659 25.4686C51.659 27.736 49.7552 29.5751 47.4116 29.5751C45.0679 29.5751 43.1606 27.736 43.1606 25.4686C43.1606 23.2012 45.0644 21.3655 47.4116 21.3655C49.7588 21.3655 51.659 23.2012 51.659 25.4686Z" fill="white"/>
<path d="M47.4081 30C44.8216 30 42.7172 27.9672 42.7172 25.4686C42.7172 22.97 44.8216 20.9371 47.4081 20.9371C49.9945 20.9371 52.0989 22.9666 52.0989 25.4686C52.0989 27.9706 49.9875 30 47.4081 30ZM47.4081 21.7904C45.3072 21.7904 43.597 23.4391 43.597 25.4686C43.597 27.498 45.3072 29.1468 47.4081 29.1468C49.5089 29.1468 51.2156 27.4912 51.2156 25.4686C51.2156 23.4459 49.5054 21.7904 47.4081 21.7904Z" fill="#444649"/>
<path d="M7.43214 12.7105H13.6995C18.3375 12.7105 22.0994 9.07648 22.0994 4.59943V3.41302" fill="white"/>
<path d="M13.6995 13.1388H7.43215C7.18934 13.1388 6.98875 12.9485 6.98875 12.7139C6.98875 12.4793 7.18582 12.289 7.43215 12.289H13.6995C18.0842 12.289 21.656 8.83854 21.656 4.60285V3.41645C21.656 3.17848 21.8601 2.99152 22.0994 2.99152C22.3387 2.99152 22.5392 3.17848 22.5392 3.41645V4.60285C22.5392 9.31106 18.5768 13.1422 13.703 13.1422L13.6995 13.1388Z" fill="#444649"/>
<path d="M31.6887 13.6215V10.715C31.6887 7.24755 34.5989 4.43622 38.1847 4.43622C41.7741 4.43622 44.6879 7.24755 44.6879 10.715V13.6215" fill="white"/>
<path d="M44.6914 14.0498C44.4521 14.0498 44.248 13.8561 44.248 13.6249V10.7184C44.248 7.49233 41.5278 4.86457 38.1847 4.86457C34.8417 4.86457 32.1285 7.49233 32.1285 10.7184V13.6249C32.1285 13.8595 31.928 14.0498 31.6851 14.0498C31.4423 14.0498 31.2417 13.8561 31.2417 13.6249V10.7184C31.2417 7.01981 34.3561 4.01471 38.1812 4.01471C42.0064 4.01471 45.1242 7.02321 45.1242 10.7184V13.6249C45.1242 13.8595 44.9307 14.0498 44.6844 14.0498H44.6914Z" fill="#444649"/>
<path d="M44.6914 15.7088V11.106C45.6838 11.106 46.4966 11.8878 46.4966 12.8533V13.9615C46.4966 14.9269 45.6838 15.7088 44.6914 15.7088Z" fill="white"/>
<path d="M44.6914 16.1371H44.248V10.681H44.6914C45.9266 10.681 46.94 11.6533 46.94 12.8533V13.9615C46.94 15.1615 45.9301 16.1371 44.6914 16.1371V16.1371ZM45.1313 11.6057V15.2091C45.6732 15.0289 46.0568 14.536 46.0568 13.9581V12.8499C46.0568 12.272 45.6767 11.779 45.1313 11.6023V11.6057Z" fill="#444649"/>
<path d="M31.6887 15.7088C30.6893 15.7088 29.8764 14.9269 29.8764 13.9615V12.8533C29.8764 11.8878 30.6893 11.106 31.6887 11.106V15.7088Z" fill="white"/>
<path d="M32.1321 16.1371H31.6887C30.4429 16.1371 29.4365 15.1615 29.4365 13.9615V12.8533C29.4365 11.6533 30.4429 10.681 31.6887 10.681H32.1321V16.1371ZM31.2453 11.6023C30.7033 11.7824 30.3127 12.2754 30.3127 12.8533V13.9615C30.3127 14.5394 30.7033 15.0323 31.2453 15.2159V11.6057V11.6023Z" fill="#444649"/>
<path d="M45.5887 15.7088C45.5887 17.6057 43.9946 19.149 42.0275 19.149H40.722" fill="white"/>
<path d="M42.0275 19.5774H40.7219C40.4791 19.5774 40.2821 19.387 40.2821 19.149C40.2821 18.9111 40.4756 18.7241 40.7219 18.7241H42.0275C43.7518 18.7241 45.1524 17.3711 45.1524 15.7122C45.1524 15.4776 45.3459 15.2839 45.5887 15.2839C45.8315 15.2839 46.0357 15.4776 46.0357 15.7122C46.0357 17.8436 44.241 19.5774 42.0275 19.5774V19.5774Z" fill="#444649"/>
<path d="M41.7213 19.081C41.7213 19.5705 41.3131 19.9649 40.8134 19.9649C40.3137 19.9649 39.8985 19.5671 39.8985 19.081C39.8985 18.5949 40.3067 18.2006 40.8134 18.2006C41.3202 18.2006 41.7213 18.5983 41.7213 19.081V19.081Z" fill="white"/>
<path d="M40.8134 20.3932C40.0604 20.3932 39.4551 19.8085 39.4551 19.081C39.4551 18.3535 40.0639 17.7722 40.8134 17.7722C41.563 17.7722 42.1647 18.3603 42.1647 19.081C42.1647 19.8017 41.5595 20.3932 40.8134 20.3932ZM40.8134 18.6289C40.546 18.6289 40.3384 18.8294 40.3384 19.081C40.3384 19.3326 40.546 19.5365 40.8134 19.5365C41.0809 19.5365 41.2815 19.336 41.2815 19.081C41.2815 18.826 41.0703 18.6289 40.8134 18.6289Z" fill="#444649"/>
<path d="M75.5601 25.8935H61.7762C61.5334 25.8935 61.3328 25.6997 61.3328 25.4686C61.3328 25.2374 61.5298 25.0436 61.7762 25.0436H75.5601C75.8029 25.0436 76.0035 25.2306 76.0035 25.4686C76.0035 25.7065 75.8064 25.8935 75.5601 25.8935V25.8935Z" fill="#444649"/>
<path d="M71.9285 23.1297H61.7726C61.5298 23.1297 61.3293 22.936 61.3293 22.7048C61.3293 22.4737 61.5263 22.2765 61.7726 22.2765H71.9285C72.1713 22.2765 72.3719 22.4669 72.3719 22.7048C72.3719 22.9428 72.1748 23.1297 71.9285 23.1297V23.1297Z" fill="#444649"/>
<path d="M68.2969 20.3932H61.7726C61.5298 20.3932 61.3293 20.2028 61.3293 19.9682C61.3293 19.7337 61.5263 19.5399 61.7726 19.5399H68.2969C68.5467 19.5399 68.7403 19.7337 68.7403 19.9682C68.7403 20.2028 68.5467 20.3932 68.2969 20.3932Z" fill="#444649"/>
</g>
<defs>
<clipPath id="clip0_80_383">
<rect width="76" height="30" fill="white"/>
</clipPath>
</defs>
</svg>
