<svg width="563" height="192" viewBox="0 0 563 192" fill="none" xmlns="http://www.w3.org/2000/svg">
<g clip-path="url(#clip0_3786_19516)">
<path d="M274.056 1.10791H1.11914V88.6717H274.056V1.10791Z" stroke="#004EA2" stroke-width="2" stroke-miterlimit="10"/>
<path d="M561.88 1.10791H354.404V189.596H561.88V1.10791Z" stroke="#004EA2" stroke-width="2" stroke-miterlimit="10"/>
<path d="M64.7676 35.2848V22.312H74.1927V17.6479H77.4725V22.312H86.9983V35.1851H83.7186V33.8667H77.4725V42.0759H74.1927V33.8667H68.0473V35.2848H64.7676ZM68.0473 25.2477V30.9199H74.1927V25.2477H68.0473ZM83.7186 25.2477H77.4725V30.9199H83.7186V25.2477Z" fill="#004EA2"/>
<path d="M90.4684 23.0208V20.5835H95.3824V17.8472H98.4495V20.5835H103.162V23.0208H93.6362C94.4533 24.04 95.2033 25.0481 95.8861 26.0563L93.9384 27.0755H97.2182C97.3525 26.8761 97.5204 26.5991 97.7331 26.2668C98.4831 24.9152 99.0651 23.8738 99.4793 23.1205L102.143 23.9292L100.296 27.0755H103.778V29.6124H89.752V27.0755H93.2332C93.0989 26.8761 92.931 26.5991 92.7183 26.2668C92.4496 25.8569 91.9683 25.1811 91.2855 24.2394L93.5354 23.0208H90.4684ZM91.084 41.6658V31.7395H102.558V41.5661H99.692V40.148H93.8601V41.6658H91.0952H91.084ZM93.8489 34.1657V37.9102H99.6808V34.1657H93.8489ZM104.707 41.9649V19.0658H114.02V21.8022L111.669 28.3938C113.651 30.2882 114.602 32.3156 114.535 34.4759C114.602 37.3784 113.371 38.9072 110.852 39.0402H108.501C108.434 38.7078 108.334 38.2315 108.199 37.6221C108.065 36.9464 107.964 36.47 107.897 36.2041H109.945C111.177 36.2041 111.759 35.5283 111.692 34.1768C111.692 32.5593 110.774 30.7314 108.927 28.704L111.076 21.8132H107.494V41.976H104.729L104.707 41.9649Z" fill="#004EA2"/>
<path d="M116.684 22.0016C116.617 21.0599 116.483 20.1404 116.27 19.2652C118.8 19.1987 121.901 18.9661 125.583 18.5562L126.199 21.1928H125.897C124.945 21.2593 123.848 21.3923 122.617 21.6027V24.9484H125.897V27.6848H122.617V30.4212L123.434 29.5127C123.77 29.7786 124.352 30.2218 125.18 30.8311C125.93 31.4404 126.479 31.8835 126.815 32.1494L124.867 34.2765C123.983 33.4013 123.233 32.7255 122.617 32.2491V41.8762H119.751V32.4485C118.934 34.4094 117.938 36.193 116.785 37.8215L115.867 34.4759C117.233 32.6479 118.431 30.3879 119.449 27.6848H116.069V24.9484H119.751V21.8022C118.867 21.9351 117.837 22.0016 116.684 22.0016ZM125.695 36.6915L125.393 33.8555L134.404 33.0468V17.8472H137.471V32.7476L140.65 32.4485L140.751 35.3843L137.471 35.5837V41.8652H134.404V35.8828L125.695 36.6915ZM130.71 31.7284C129.893 31.0526 128.662 30.0777 127.027 28.7926C126.759 28.5268 126.512 28.3163 126.311 28.1833L128.158 26.2557C128.494 26.5216 129.009 26.8982 129.691 27.3746C130.856 28.2498 131.841 28.9921 132.658 29.6014L130.71 31.7284ZM131.841 25.6464C131.225 25.0371 130.162 24.0954 128.662 22.8103C128.113 22.4004 127.71 22.068 127.43 21.7911L129.177 19.8634C131.091 21.3479 132.658 22.5666 133.889 23.5082L131.841 25.6353V25.6464Z" fill="#004EA2"/>
<path d="M142.385 24.8377V22.1014H145.15V17.8473H148.116V22.1014H150.467V24.8377H148.116V28.9921L150.579 28.4825C150.579 29.4907 150.612 30.4767 150.679 31.4183C149.862 31.5513 149 31.7174 148.116 31.9279V38.719C148.183 40.6134 147.299 41.5883 145.452 41.6548C144.568 41.7212 143.706 41.7545 142.889 41.7545C142.821 41.3446 142.721 40.7353 142.586 39.9265C142.452 39.4502 142.385 39.1511 142.385 39.0181H144.131C144.881 39.0181 145.228 38.6082 145.161 37.7995V32.6259L142.295 33.3349L142.094 30.0889C142.575 30.0224 143.392 29.8895 144.556 29.679C144.825 29.6125 145.038 29.5793 145.172 29.5793V24.8156H142.407L142.385 24.8377ZM151.295 24.029V21.2927H157.026V17.7476H160.093V21.2927H166.541V24.029H160.093V27.1753H165.522V29.9117C164.224 32.8142 162.69 35.052 160.91 36.603C162.545 37.6112 164.56 38.431 166.955 39.0403C166.821 39.3062 166.574 39.7825 166.239 40.4583C165.892 41.0676 165.623 41.544 165.421 41.8763C162.69 40.7907 160.407 39.6828 158.56 38.5307C156.78 39.6163 154.228 40.7907 150.881 42.0758C150.399 41.2006 149.862 40.2811 149.247 39.3394C152.112 38.5307 154.429 37.6112 156.209 36.603C154.642 34.9191 153.243 32.8253 152.011 30.3216L153.243 29.812H151.496V27.1753H157.026V24.029H151.295ZM162.354 29.8009H154.877C155.896 31.7618 157.127 33.4457 158.56 34.8637C160.194 33.4457 161.459 31.7618 162.343 29.8009H162.354Z" fill="#004EA2"/>
<path d="M170.336 41.9653L168.287 39.8383C170.817 37.8109 172.283 34.8419 172.686 30.9201L175.753 31.33C175.619 31.8729 175.451 32.6484 175.238 33.6565C175.171 33.9999 175.104 34.2658 175.037 34.4652C175.988 36.559 177.5 37.8109 179.548 38.2097V30.2H182.727V32.5265H190.921V35.1632H182.727V38.5088H193.171C193.104 38.7747 192.969 39.2179 192.757 39.8272C192.555 40.4365 192.376 40.8685 192.242 41.1455C186.913 41.1455 183.365 41.1123 181.596 41.0458C177.768 40.9129 175.182 39.7607 173.817 37.6004C173 39.0184 171.836 40.4697 170.336 41.9542V41.9653ZM170.85 23.6195V20.9828H179.246V17.7368H182.425V20.9828H190.719V23.6195H182.425V26.8654H192.869V29.6018H168.701V26.8654H179.246V23.6195H170.85Z" fill="#004EA2"/>
<path d="M196.764 42.1755C196.148 41.4332 195.398 40.7574 194.514 40.1481C195.946 37.8549 196.596 34.3098 196.461 29.5018V19.8746H206.704V17.7476H209.771V19.8746H219.297V22.3119H199.125V29.7122C199.26 35.2515 198.476 39.4059 196.775 42.1755H196.764ZM200.547 41.6659L199.014 39.6385L200.648 39.0292V24.6383H203.513V23.0209H206.178V24.6383H209.043V34.6754H203.211V38.2205C203.625 38.0211 204.241 37.7773 205.058 37.5114C205.472 37.3785 205.775 37.2788 205.976 37.2123C205.629 36.6695 205.36 36.171 205.159 35.6946L207.207 34.7862C207.622 35.4619 208.226 36.4812 209.054 37.8216C209.536 38.6304 209.905 39.2729 210.185 39.7493L208.036 40.8682C207.767 40.2589 207.454 39.6496 207.118 39.0403C206.502 39.2397 205.551 39.6163 204.252 40.1592C202.472 40.9014 201.252 41.411 200.569 41.6769L200.547 41.6659ZM203.211 26.8651V28.693H206.793V26.8651H203.211ZM203.211 32.4375H206.793V30.6096H203.211V32.4375ZM210.689 41.965V23.9293H218.681V26.2558L216.733 31.2189C218.3 32.7034 219.05 34.2987 218.983 35.9826C219.05 38.2094 217.987 39.3948 215.804 39.5277H213.957C213.89 39.3948 213.823 39.2286 213.756 39.0181C213.487 38.2094 213.308 37.6665 213.241 37.4007V41.965H210.677H210.689ZM213.252 26.2558V37.2013H213.554C214.304 37.2677 214.853 37.2677 215.188 37.2013C216.073 37.2013 216.521 36.6916 216.521 35.6835C216.588 34.4649 215.804 33.0801 214.17 31.5291L216.118 26.2558H213.252Z" fill="#004EA2"/>
<path d="M37.7791 63.3683V55.7686H48.3236V63.3683H44.6409V69.6498C44.708 71.6772 43.7566 72.6853 41.7753 72.6853C41.2939 72.7518 40.4768 72.785 39.3127 72.785C39.2455 72.3751 39.1112 71.7769 38.8985 70.9571C38.8313 70.6136 38.7642 70.381 38.697 70.248V70.3477C38.1485 70.2148 37.3314 69.9822 36.2344 69.6387C36.9172 68.2872 37.6 66.5368 38.2828 64.3654L40.7455 65.0744C40.1298 66.9024 39.447 68.6195 38.697 70.248H40.6447C41.529 70.3145 41.9432 69.9822 41.876 69.2288V63.3462H37.7791V63.3683ZM36.7605 54.0403V51.5034H41.6745V48.8667H44.4394V51.5034H49.3534V54.0403H36.7605ZM40.4432 58.1947V60.9311H45.5588V58.1947H40.4432ZM46.7901 68.7303C46.6557 68.1875 46.2416 67.2126 45.5588 65.7945C45.3573 65.4622 45.2118 65.1852 45.1446 64.9858L47.3945 64.2768C47.8087 64.9526 48.2453 65.8942 48.7266 67.1128C48.8609 67.4563 48.9617 67.6889 49.0288 67.8219L46.7789 68.7303H46.7901ZM49.1408 57.7848V55.2479H51.4914V52.3121C51.5586 50.8276 51.5922 49.6754 51.5922 48.8667H54.4578L54.2563 55.2479H60.8158V57.7848H54.1555C53.9541 64.0663 52.275 69.2067 49.1408 73.1949C48.3908 72.6521 47.54 72.076 46.5774 71.4667C49.79 68.0213 51.3907 63.457 51.3907 57.7848H49.1408ZM56.8196 72.4748C54.9727 72.4748 54.0548 71.5664 54.0548 69.7384V59.4023H56.8196V68.9297C56.7525 69.672 57.0211 70.0154 57.6368 69.9489H57.939C58.4875 70.0154 58.7898 69.6498 58.8569 68.83C58.9241 68.1542 59.0248 66.8027 59.1591 64.7753C59.2935 64.8418 59.5285 64.9082 59.8755 64.9747C60.6255 65.2406 61.1069 65.4179 61.3083 65.4843C61.2412 67.3123 61.1069 68.7968 60.8942 69.9489C60.6255 71.6993 59.6293 72.5523 57.9278 72.4859H56.7973L56.8196 72.4748ZM58.1517 54.4391C56.9876 53.154 56.0025 52.1459 55.1854 51.4037L57.1331 49.8859C58.633 51.2375 59.6629 52.2567 60.2002 52.9214L58.1517 54.4391Z" fill="#004EA2"/>
<path d="M62.9756 55.7687V53.5419H67.1733C66.3561 52.5338 65.3935 51.5146 64.3077 50.5065L66.4569 49.0884C67.4755 50.0966 68.4717 51.1158 69.4232 52.1239L67.4755 53.5419H70.6545V48.8779H73.5201V53.5419H76.5872V48.8779H79.4528V53.5419H82.5199L80.6729 52.1239C81.1542 51.714 81.8706 51.005 82.8221 49.9969C83.2363 49.587 83.5385 49.2878 83.74 49.0884L85.8892 50.6062C85.475 51.0161 84.9265 51.5146 84.2549 52.1239C83.6392 52.7332 83.1579 53.2096 82.8221 53.5419H87.1205V55.7687H81.2886L81.9042 55.8684C81.3557 56.4777 80.7737 57.1535 80.158 57.8958H85.9899V60.1225H76.4641V61.6403H84.5571V63.7673H76.4641V65.1854H86.9078V67.4121H78.6133C80.4602 68.6307 83.4266 69.5392 87.5235 70.1485C86.975 70.9572 86.5048 71.7659 86.0907 72.5857C81.7923 71.5665 78.5797 70.2593 76.4641 68.6307V73.0843H73.4977V68.6307C71.4493 70.2482 68.2703 71.6662 63.9719 72.8849C63.5577 72.1426 63.0876 71.3006 62.5391 70.3479C66.3673 69.7386 69.3337 68.7637 71.4493 67.4121H63.054V65.1854H73.4977V63.7673H65.3039V61.6403H73.4977V60.1225H63.9719V57.8958H69.8038C69.6695 57.6963 69.4232 57.4194 69.0874 57.087C68.6732 56.5442 68.371 56.1454 68.1695 55.8684L68.6844 55.7687H62.9532H62.9756ZM71.4717 55.7687C71.6731 56.0346 72.0202 56.4777 72.4903 57.087C72.8261 57.4305 73.0724 57.6963 73.2067 57.8958H76.8894C77.5051 57.2864 78.0536 56.5774 78.5237 55.7687H71.4605H71.4717Z" fill="#004EA2"/>
<path d="M89.2926 64.4874L88.5762 61.9504L90.3224 61.751C90.8709 61.1417 91.7216 60.1003 92.8858 58.6047C93.0873 58.3388 93.2552 58.1283 93.4007 57.9954C92.9865 57.7295 92.3037 57.2532 91.3522 56.5774C90.1209 55.7686 89.2366 55.1593 88.6881 54.7494L90.1209 53.0212L90.9381 53.5308C91.8895 52.2457 92.9193 50.6615 94.0051 48.7671L96.77 49.6755C95.4043 51.5699 94.1395 53.2871 92.9865 54.8491L94.8335 56.0678C95.7849 54.7827 96.6804 53.5308 97.4976 52.3233L99.9602 53.841C98.5946 55.6689 96.4789 58.1948 93.6134 61.4408C93.9492 61.4408 94.4977 61.4076 95.2476 61.3411C95.9976 61.3411 96.5461 61.3079 96.8819 61.2414L96.1655 59.5132L98.214 58.6047C99.2998 60.765 100.128 62.5265 100.677 63.878L98.4267 64.6868L97.9117 63.5679L96.0648 63.7673V73.0953H93.5014V63.9778C93.3671 63.9778 93.1208 64.011 92.785 64.0775C91.688 64.2104 90.5351 64.3433 89.3038 64.4874H89.2926ZM91.2403 71.8877L88.7777 71.4778C89.3933 69.8604 89.9082 67.8663 90.3112 65.4955L92.6619 65.9054C92.2477 67.7998 91.7776 69.7939 91.2291 71.8877H91.2403ZM98.7177 71.2784C98.6505 71.0125 98.5162 70.6359 98.3035 70.1595C97.9565 69.0849 97.4528 67.6226 96.77 65.8057L98.8184 65.1964C99.5684 66.8803 100.285 68.675 100.968 70.5694L98.7177 71.2784ZM100.766 59.214C100.565 59.0146 100.184 58.6712 99.6356 58.2059C99.1543 57.796 98.7849 57.4969 98.505 57.2975C100.486 54.8602 102.02 52.0241 103.117 48.7892L106.083 49.3986C105.949 49.8085 105.703 50.3402 105.367 51.016C105.02 51.7583 104.785 52.3011 104.65 52.6335H112.743C112.609 58.9814 112.396 64.1218 112.128 68.0435C112.061 70.9461 110.494 72.3973 107.415 72.3973C106.397 72.4638 105.165 72.4971 103.732 72.4971C103.665 71.8877 103.497 71.0458 103.218 69.9601C103.15 69.8272 103.117 69.7275 103.117 69.661C104.415 69.7275 105.579 69.7607 106.598 69.7607C108.367 69.8272 109.262 69.0517 109.262 67.4342C109.531 63.5125 109.676 59.5242 109.676 55.4695H103.229C102.546 56.7546 101.729 58.0065 100.766 59.214ZM104.964 65.4955C104.079 64.011 102.882 62.2495 101.382 60.2222L103.632 58.7044C105.065 60.5324 106.329 62.2495 107.415 63.878L104.953 65.4955H104.964Z" fill="#004EA2"/>
<path d="M121.642 71.4777V55.5691C119.941 57.0536 117.747 58.3387 115.094 59.4244V56.2781C118.575 54.7936 120.993 52.8328 122.37 50.3955H125.135V71.4777H121.653H121.642Z" fill="#004EA2"/>
<path d="M133.632 68.642H144.277V71.3784H129.322V69.351C130.822 66.7144 133.005 64.3547 135.871 62.2608C139.352 59.8236 140.953 57.907 140.684 56.489C140.617 54.1958 139.352 53.0436 136.9 53.0436C134.785 53.0436 133.419 54.3287 132.804 56.8989L129.524 56.0902C130.475 52.1684 133.139 50.2075 137.516 50.2075C141.814 50.3405 144.109 52.3013 144.378 56.0902C144.714 58.5939 143.046 60.9868 139.363 63.2911C136.632 65.1191 134.718 66.9027 133.632 68.6642V68.642Z" fill="#004EA2"/>
<path d="M154.417 71.3784H150.634C151.451 65.4293 153.947 59.5245 158.111 53.6418H147.152V50.7061H162.107V53.243C157.462 59.3251 154.91 65.3739 154.428 71.3895L154.417 71.3784Z" fill="#004EA2"/>
<path d="M166.194 76.8511L165.176 75.5327C166.956 74.4471 167.84 73.0623 167.84 71.3783H165.691V67.4233H169.788V70.769C169.922 73.4057 168.724 75.433 166.206 76.8511H166.194Z" fill="#004EA2"/>
<path d="M180.634 71.3784H176.85C177.668 65.4293 180.164 59.5245 184.328 53.6418H173.369V50.7061H188.324V53.243C183.679 59.3251 181.115 65.3739 180.645 71.3895L180.634 71.3784Z" fill="#004EA2"/>
<path d="M196.808 71.4777V55.5691C195.107 57.0536 192.913 58.3387 190.26 59.4244V56.2781C193.741 54.7936 196.159 52.8328 197.536 50.3955H200.301V71.4777H196.819H196.808Z" fill="#004EA2"/>
<path d="M208.786 68.642H219.431V71.3784H204.477V69.351C205.977 66.7144 208.159 64.3547 211.036 62.2608C214.517 59.8236 216.118 57.907 215.849 56.489C215.782 54.1958 214.517 53.0436 212.066 53.0436C209.95 53.0436 208.585 54.3287 207.969 56.8989L204.689 56.0902C205.641 52.1684 208.305 50.2075 212.682 50.2075C216.98 50.3405 219.275 52.3013 219.543 56.0902C219.879 58.5939 218.211 60.9868 214.529 63.2911C211.797 65.1191 209.883 66.9027 208.797 68.6642L208.786 68.642Z" fill="#004EA2"/>
<path d="M244.012 72.5968C238.482 69.6942 235.169 65.5398 234.083 60.1336C233.064 65.4069 229.65 69.661 223.841 72.907C223.158 71.8988 222.441 70.9793 221.691 70.1706C228.173 66.8582 231.62 61.8286 232.034 55.0707C232.169 53.3868 232.236 51.3927 232.236 49.0884H235.616V49.7974C235.549 50.9496 235.516 51.8912 235.516 52.6335C235.93 61.1417 239.545 66.8582 246.374 69.7607C245.959 70.1706 245.389 70.8796 244.627 71.8878C244.359 72.2201 244.146 72.4638 244.012 72.5968Z" fill="#004EA2"/>
<path d="M274.056 103.328H1.11914V190.892H274.056V103.328Z" stroke="#004EA2" stroke-width="2" stroke-miterlimit="10"/>
<path d="M63.0332 143.432V120.422H72.2456V122.959H69.895V126.914H71.9434V135.932H69.895V140.186H71.9434V142.413H65.4958V143.421H63.0332V143.432ZM65.4958 122.959V126.914H67.5443V122.959H65.4958ZM69.6935 129.241H65.4958V133.495H69.6935V129.241ZM65.4958 135.932V140.186H67.5443V135.932H65.4958ZM73.8911 127.313C73.6896 127.114 73.309 126.804 72.7606 126.405C72.2792 125.995 71.9098 125.729 71.63 125.596C73.1971 123.846 74.4284 121.674 75.3127 119.115L78.0776 119.625C77.7306 120.367 77.4619 121.043 77.2604 121.652H86.7863V123.979H76.0291C75.8948 124.178 75.7269 124.488 75.5142 124.887C75.2456 125.297 75.0329 125.596 74.8986 125.796H85.0401V132.276H73.9807V127.214L73.8799 127.313H73.8911ZM72.9732 143.432V133.905H78.8052V143.432H76.8575V142.114H75.0105V143.432H72.962H72.9732ZM75.0217 136.132V140.186H76.8687V136.132H75.0217ZM76.5552 127.923V130.149H82.4991V127.923H76.5552ZM80.1372 143.432V133.905H86.1818V143.432H84.1334V142.114H82.1857V143.432H80.1372ZM82.1857 136.132V140.286H84.1334V136.132H82.1857Z" fill="#004EA2"/>
<path d="M92.2157 131.678C91.4657 130.936 90.3352 129.95 88.8352 128.742C88.9695 128.875 88.8016 128.742 88.3203 128.332L90.268 126.305C90.8837 126.782 91.768 127.457 92.9321 128.332C93.5478 128.809 93.9843 129.141 94.2642 129.341L92.2157 131.667V131.678ZM91.6001 143.432L88.6337 142.624C89.1822 140.796 89.9658 137.827 90.9844 133.706C91.3202 133.772 91.8016 133.905 92.4172 134.115C93.1 134.315 93.5814 134.492 93.85 134.625C93.7157 135.101 93.5478 135.81 93.3351 136.752C92.4508 139.932 91.8687 142.158 91.5889 143.443L91.6001 143.432ZM92.8314 124.887C92.4172 124.477 91.768 123.912 90.8837 123.159C90.0665 122.417 89.4173 121.874 88.936 121.541L90.7829 119.514C91.1971 119.857 91.9471 120.422 93.0329 121.242C93.85 121.852 94.4657 122.328 94.8798 122.66L92.8314 124.887ZM95.8985 128.133C95.697 127.867 95.3836 127.491 94.9806 127.014C94.5664 126.538 94.2306 126.205 93.962 126.006C96.1447 124.045 97.779 121.752 98.876 119.115L102.055 119.414C101.921 119.614 101.753 119.924 101.54 120.323C101.339 120.733 101.16 121.032 101.025 121.231H112.7V123.668H99.5924C99.1782 124.278 98.7417 124.887 98.2603 125.496H111.267C111.2 125.84 111.167 126.815 111.167 128.432C111.1 129.717 111.066 130.725 111.066 131.468H113.215V133.905H111.066C110.999 135.19 110.965 136.409 110.965 137.55H112.711V139.876H110.864C110.73 142.236 109.365 143.388 106.768 143.322H102.671C102.604 142.978 102.402 142.48 102.055 141.804C101.988 141.46 101.921 141.228 101.854 141.095H105.85C107.148 141.161 107.865 140.751 107.999 139.876H98.1708L98.0701 140.685H95.1037L96.0216 133.894H94.0739V131.457H96.3238L96.8387 127.202L95.9209 128.111L95.8985 128.133ZM105.939 136.043L104.506 137.561H108.088C108.156 136.819 108.189 135.6 108.189 133.916H98.8648L98.4506 137.561H103.98C103.23 136.885 102.346 136.209 101.316 135.533L102.749 133.916C103.913 134.658 104.965 135.367 105.928 136.043H105.939ZM104.305 131.479C103.891 131.146 103.286 130.67 102.458 130.061C102.044 129.728 101.742 129.485 101.54 129.352L103.074 127.934H99.5924L99.1782 131.479H104.294H104.305ZM106.152 129.961L104.719 131.479H108.301V127.934H103.286C103.768 128.2 104.417 128.643 105.234 129.252C105.648 129.595 105.95 129.828 106.152 129.961Z" fill="#004EA2"/>
<path d="M116.181 123.369V121.142H126.211V119.215H129.278V121.142H138.804V123.369H134.908L135.826 124.178C134.528 124.787 133.229 125.33 131.931 125.795L136.543 126.914C136.341 127.18 136.095 127.59 135.826 128.133C135.759 128.199 135.726 128.266 135.726 128.332H139.106V130.559H119.551V132.786C119.685 137.106 118.801 140.729 116.886 143.632C116.271 143.089 115.454 142.446 114.424 141.704C115.991 139.61 116.707 136.641 116.573 132.786V128.321H119.439C118.89 127.646 118.554 127.103 118.42 126.704C118.756 126.637 119.304 126.571 120.054 126.504C121.968 126.239 123.401 125.995 124.353 125.795C123.804 125.662 123.021 125.463 122.002 125.186C120.905 124.987 120.088 124.821 119.539 124.677L120.357 123.358H116.159L116.181 123.369ZM121.61 137.461C121.476 137.395 121.308 137.262 121.095 137.051C120.412 136.508 119.898 136.109 119.562 135.832C120.86 134.68 121.946 133.096 122.842 131.069L125.405 131.368L124.789 132.487H127.856V130.559H130.823V132.487H138.099V134.714H130.823V136.541H137.27V138.569H130.823V140.596H139.218V142.723H119.662V140.596H127.856V138.569H122.125V136.741L121.61 137.45V137.461ZM133.8 128.343C131.953 127.801 130.151 127.324 128.371 126.925C126.121 127.535 123.625 128.011 120.894 128.343H133.8ZM122.226 123.38C124.274 123.79 126.356 124.289 128.472 124.898C129.356 124.632 130.688 124.189 132.468 123.58C132.67 123.513 132.804 123.447 132.882 123.38H122.237H122.226ZM123.558 134.736C123.356 135.279 122.942 135.888 122.327 136.564H127.856V134.736H123.558Z" fill="#004EA2"/>
<path d="M141.165 126.205V123.978H145.363C144.546 122.959 143.583 121.951 142.497 120.943L144.646 119.525C145.665 120.533 146.661 121.552 147.613 122.56L145.665 123.978H148.844V119.314H151.71V123.978H154.777V119.314H157.642V123.978H160.709L158.862 122.56C159.344 122.151 160.06 121.442 161.012 120.433C161.426 120.023 161.728 119.724 161.929 119.525L164.079 121.043C163.664 121.453 163.127 121.951 162.444 122.56C161.829 123.17 161.347 123.646 161.012 123.978H165.31V126.205H159.478L160.094 126.305C159.545 126.914 158.963 127.59 158.347 128.332H164.179V130.559H154.654V132.077H162.747V134.204H154.654V135.622H165.097V137.849H156.803C158.65 139.067 161.616 139.976 165.713 140.585C165.164 141.394 164.694 142.202 164.28 143.022C159.982 142.014 156.769 140.696 154.654 139.067V143.532H151.687V139.067C149.639 140.685 146.46 142.103 142.161 143.321C141.747 142.579 141.277 141.737 140.729 140.784C144.546 140.175 147.523 139.2 149.639 137.849H141.243V135.622H151.687V134.204H143.493V132.077H151.687V130.559H142.161V128.332H147.993C147.859 128.133 147.613 127.856 147.277 127.524C146.863 126.981 146.56 126.582 146.359 126.305L146.874 126.205H141.143H141.165ZM149.661 126.205C149.863 126.471 150.21 126.914 150.68 127.524C151.016 127.867 151.262 128.133 151.396 128.332H155.079C155.695 127.723 156.243 127.014 156.713 126.205H149.65H149.661Z" fill="#004EA2"/>
<path d="M174.243 126.006C173.359 124.854 172.497 123.779 171.68 122.76C170.997 123.912 170.213 124.987 169.329 126.006H174.556V128.233H172.508V130.36H174.971V132.587H172.508V139.378C173.325 139.311 174.142 139.178 174.971 138.968V139.987C175.172 139.721 175.486 139.378 175.889 138.968C176.37 138.558 176.672 138.259 176.806 138.059V132.786H175.474V130.46H179.258V138.37C180.209 139.921 181.989 140.663 184.586 140.596H192.164C192.097 140.796 191.963 141.272 191.75 142.014C191.683 142.491 191.616 142.823 191.549 143.023H184.071C181.206 143.023 179.157 142.181 177.926 140.486C177.243 141.095 176.426 142.07 175.463 143.421L174.232 141.394C173.549 141.527 172.53 141.693 171.165 141.904C169.452 142.169 168.198 142.38 167.381 142.513L167.079 140.186C167.415 140.12 167.963 140.02 168.713 139.887C169.396 139.821 169.911 139.754 170.247 139.688V132.598H167.281V130.371H170.247V128.244H168.098V127.125C167.963 126.926 167.751 126.582 167.482 126.117C167.135 125.64 166.9 125.308 166.766 125.109C168.613 123.425 169.9 121.464 170.661 119.226L173.325 119.425C173.191 119.835 173.023 120.234 172.81 120.644C173.974 121.863 174.959 122.971 175.777 123.99L174.243 126.017V126.006ZM168.512 138.37C168.445 138.037 168.31 137.528 168.098 136.852C167.684 135.567 167.381 134.625 167.18 134.016L168.713 133.606C168.915 134.282 169.195 135.223 169.53 136.442C169.732 137.051 169.866 137.528 169.945 137.86L168.512 138.37ZM174.243 138.07L172.81 137.561C173.292 136.276 173.728 134.924 174.142 133.506L175.575 133.916C175.374 134.525 175.094 135.401 174.758 136.553C174.489 137.228 174.31 137.738 174.243 138.07ZM178.541 130.16C177.859 129.485 176.728 128.432 175.161 127.014C176.325 128.033 176.213 127.923 174.859 126.715L176.493 125.098C176.907 125.441 177.478 125.94 178.239 126.615C179.124 127.424 179.806 128.033 180.288 128.443L178.541 130.172V130.16ZM178.642 125.098C178.094 124.488 177.243 123.68 176.079 122.66C175.597 122.184 175.228 121.852 174.948 121.652L176.482 120.035C177.646 120.91 178.866 121.996 180.165 123.281V121.253H184.564V119.326H187.026V121.253H191.425V123.48H187.026V124.998H191.022V134.226H187.026V135.744H191.638V137.971H187.026V139.898H184.564V137.971H180.053V135.744H184.564V134.226H180.668V124.998H184.564V123.48H180.265L178.631 125.098H178.642ZM182.638 126.926V128.654H184.586V126.926H182.638ZM182.638 130.471V132.299H184.586V130.471H182.638ZM188.985 126.926H187.037V128.654H188.985V126.926ZM187.037 130.471V132.299H188.985V130.471H187.037Z" fill="#004EA2"/>
<path d="M193.898 123.879V121.652H197.38V119.425H200.044V121.652H201.992V119.326H204.342V121.652H206.805V119.326H209.267V121.652H211.215V119.525H213.779V121.652H217.562V123.879H213.779V125.807C213.779 126.283 214.014 126.516 214.495 126.516H214.909C215.323 126.516 215.592 126.283 215.726 125.807C215.726 125.474 215.793 125.031 215.928 124.488C216.476 124.688 217.058 124.865 217.674 124.998C217.607 125.674 217.506 126.216 217.372 126.615C217.17 127.967 216.353 128.609 214.909 128.543H213.476C211.976 128.543 211.226 127.767 211.226 126.216V123.89H209.279V128.144H202.003V123.89H199.954C200.021 126.261 198.857 128.111 196.473 129.462C195.857 128.92 195.175 128.344 194.425 127.734C196.339 126.793 197.324 125.507 197.391 123.879H193.91H193.898ZM193.999 133.816V129.462H217.349V133.816H214.282V131.789H197.077V133.816H194.01H193.999ZM209.156 141.926C208.954 141.25 208.708 140.541 208.439 139.799H210.902C211.786 139.865 212.2 139.499 212.133 138.68V136.652H207.219V143.543H204.04V136.652H199.327V141.826H196.26V134.326H204.04V131.889H207.219V134.326H215.211V138.99C215.278 140.818 214.26 141.759 212.144 141.826C211.26 141.892 210.264 141.926 209.178 141.926H209.156ZM204.342 123.89V126.216H206.805V123.89H204.342Z" fill="#004EA2"/>
<path d="M40.9139 164.946V157.347H51.4584V164.946H47.7756V171.228C47.8428 173.255 46.8913 174.263 44.91 174.263C44.4287 174.33 43.6116 174.363 42.4474 174.363C42.3803 173.953 42.2459 173.344 42.0333 172.535C41.9661 172.192 41.8989 171.959 41.8318 171.826V171.926C41.2833 171.793 40.4661 171.56 39.3691 171.217C40.052 169.865 40.7348 168.115 41.4176 165.944L43.8802 166.653C43.2646 168.48 42.5817 170.198 41.8318 171.826H43.7795C44.6638 171.893 45.0779 171.56 45.0108 170.818V164.935H40.9139V164.946ZM39.8952 155.618V153.081H44.8093V150.445H47.5741V153.081H52.4882V155.618H39.8952ZM43.578 159.773V162.509H48.6935V159.773H43.578ZM49.9248 170.308C49.7905 169.766 49.3763 168.791 48.6935 167.373C48.492 167.04 48.3465 166.763 48.2794 166.564L50.5293 165.855C50.9435 166.531 51.38 167.472 51.8614 168.691C51.9957 169.034 52.0964 169.267 52.1636 169.4L49.9136 170.308H49.9248ZM52.2755 159.363V156.826H54.6262V153.89C54.6934 152.406 54.7269 151.254 54.7269 150.445H57.5925L57.3911 156.826H63.9506V159.363H57.2903C57.0888 165.644 55.4098 170.785 52.2755 174.762C51.5255 174.219 50.6748 173.643 49.7122 173.034C52.9248 169.588 54.5255 165.024 54.5255 159.352H52.2755V159.363ZM59.9544 174.053C58.1075 174.053 57.1896 173.144 57.1896 171.317V160.98H59.9544V170.508C59.8873 171.25 60.1559 171.594 60.7716 171.516H61.0738C61.6223 171.582 61.9245 171.217 61.9917 170.397C62.0588 169.721 62.1596 168.37 62.2939 166.342C62.4282 166.409 62.6633 166.475 63.0103 166.542C63.7603 166.808 64.2416 166.985 64.4431 167.051C64.3759 168.879 64.2416 170.364 64.0289 171.505C63.7603 173.266 62.764 174.108 61.0626 174.042H59.932L59.9544 174.053ZM61.2865 156.017C60.1223 154.732 59.1373 153.724 58.3201 152.982L60.2678 151.464C61.7678 152.816 62.7976 153.835 63.3349 154.5L61.2865 156.017Z" fill="#004EA2"/>
<path d="M66.1104 157.336V155.109H70.308C69.4909 154.101 68.5282 153.081 67.4424 152.073L69.5916 150.655C70.6103 151.675 71.6065 152.683 72.558 153.691L70.6103 155.109H73.7893V150.445H76.6549V155.109H79.722V150.445H82.5876V155.109H85.6546L83.8077 153.691C84.289 153.281 85.0054 152.572 85.9569 151.564C86.371 151.154 86.6733 150.855 86.8748 150.655L89.024 152.173C88.6098 152.583 88.0613 153.081 87.3897 153.691L85.9569 155.109H90.2553V157.336H84.4233L85.039 157.435C84.4905 158.045 83.9084 158.72 83.2928 159.463H89.1247V161.689H79.5988V163.207H87.6919V165.334H79.5988V166.752H90.0426V168.979H81.748C83.595 170.198 86.5613 171.106 90.6582 171.715C90.1097 172.524 89.6396 173.333 89.2254 174.153C84.9271 173.144 81.7145 171.826 79.5988 170.198V174.662H76.6325V170.198C74.584 171.815 71.405 173.233 67.1066 174.452C66.6925 173.709 66.2223 172.868 65.6738 171.915C69.5021 171.305 72.4684 170.331 74.584 168.979H66.1887V166.752H76.6325V165.334H68.4387V163.207H76.6325V161.689H67.1066V159.463H72.9386C72.8042 159.263 72.558 158.986 72.2222 158.654C71.808 158.111 71.5058 157.712 71.3043 157.435L71.8192 157.336H66.088H66.1104ZM74.6064 157.336C74.8079 157.601 75.1549 158.045 75.6251 158.654C75.9609 158.997 76.2071 159.263 76.3415 159.463H80.0242C80.6398 158.853 81.1883 158.144 81.6585 157.336H74.5952H74.6064Z" fill="#004EA2"/>
<path d="M92.4273 166.054L91.7109 163.517L93.4572 163.318C94.0057 162.709 94.8564 161.667 96.0205 160.172C96.222 159.906 96.3899 159.695 96.5354 159.562C96.1213 159.296 95.4385 158.82 94.487 158.144C93.2557 157.336 92.3714 156.726 91.8229 156.316L93.2557 154.588L94.0728 155.098C95.0243 153.813 96.0541 152.228 97.1399 150.334L99.9047 151.242C98.5391 153.137 97.2742 154.854 96.1213 156.416L97.9682 157.635C98.9197 156.35 99.8152 155.098 100.632 153.89L103.095 155.408C101.729 157.236 99.6137 159.762 96.7481 163.008C97.0839 163.008 97.6324 162.974 98.3824 162.908C99.1324 162.908 99.6809 162.875 100.017 162.808L99.3003 161.08L101.349 160.172C102.435 162.332 103.263 164.093 103.811 165.445L101.561 166.254L101.047 165.135L99.1995 165.334V174.662H96.6362V165.545C96.5019 165.545 96.2556 165.578 95.9198 165.644C94.8228 165.777 93.6698 165.91 92.4385 166.054H92.4273ZM94.375 173.455L91.9124 173.045C92.5281 171.427 93.043 169.433 93.446 167.062L95.7967 167.472C95.3825 169.367 94.9123 171.361 94.3639 173.455H94.375ZM101.852 172.845C101.785 172.579 101.651 172.203 101.438 171.726C101.091 170.641 100.588 169.189 99.9047 167.373L101.953 166.763C102.703 168.458 103.42 170.242 104.102 172.136L101.852 172.845ZM103.901 160.781C103.699 160.582 103.319 160.238 102.77 159.773C102.289 159.363 101.92 159.064 101.64 158.864C103.621 156.427 105.155 153.591 106.252 150.356L109.218 150.965C109.084 151.375 108.837 151.907 108.502 152.583C108.155 153.325 107.919 153.868 107.785 154.2H115.878C115.744 160.548 115.531 165.689 115.263 169.599C115.195 172.502 113.628 173.953 110.55 173.953C109.531 174.02 108.3 174.053 106.867 174.053C106.8 173.444 106.632 172.602 106.352 171.516C106.285 171.383 106.252 171.283 106.252 171.217C107.55 171.283 108.714 171.317 109.733 171.317C111.513 171.383 112.397 170.607 112.397 168.99C112.666 165.068 112.811 161.08 112.811 157.036H106.364C105.681 158.322 104.864 159.573 103.901 160.781ZM108.099 167.062C107.214 165.578 106.017 163.816 104.517 161.789L106.767 160.271C108.199 162.099 109.464 163.816 110.55 165.445L108.087 167.062H108.099Z" fill="#004EA2"/>
<path d="M118.744 167.782L122.225 167.073C122.639 169.577 124.038 170.818 126.423 170.818C128.952 170.619 130.318 169.167 130.519 166.464C130.452 163.562 129.053 162.077 126.322 162.011C124.62 162.011 123.322 162.653 122.426 163.938L119.561 163.839L120.479 152.184H132.87V155.12H123.445L122.829 161.102C124.128 160.017 125.594 159.485 127.228 159.485C131.594 159.684 133.889 161.922 134.09 166.176C133.956 170.774 131.426 173.133 126.512 173.266C122.214 173.266 119.617 171.438 118.732 167.794L118.744 167.782Z" fill="#004EA2"/>
<path d="M136.453 167.782L139.934 167.073C140.348 169.577 141.747 170.818 144.131 170.818C146.661 170.619 148.027 169.167 148.228 166.464C148.161 163.562 146.762 162.077 144.031 162.011C142.329 162.011 141.031 162.653 140.135 163.938L137.27 163.839L138.188 152.184H150.579V155.12H141.154L140.538 161.102C141.837 160.017 143.303 159.485 144.937 159.485C149.303 159.684 151.598 161.922 151.799 166.176C151.665 170.774 149.135 173.133 144.221 173.266C139.923 173.266 137.326 171.438 136.441 167.794L136.453 167.782Z" fill="#004EA2"/>
<path d="M155.806 178.418L154.787 177.1C156.567 176.014 157.451 174.629 157.451 172.945H155.302V168.99H159.399V172.336C159.533 174.973 158.336 177 155.817 178.418H155.806Z" fill="#004EA2"/>
<path d="M177.724 156.837L174.444 157.447C173.963 155.419 172.765 154.444 170.862 154.511C167.862 154.444 166.317 157.048 166.25 162.31C167.269 160.482 169.048 159.574 171.578 159.574C175.675 159.84 177.892 162.044 178.239 166.165C177.97 170.763 175.507 173.156 170.862 173.366C165.399 173.433 162.702 169.954 162.769 162.931C162.903 155.63 165.601 151.919 170.862 151.786C174.612 151.852 176.906 153.547 177.724 156.848V156.837ZM170.761 170.818C173.291 170.685 174.612 169.234 174.757 166.465C174.69 163.695 173.358 162.277 170.761 162.21C168.03 162.343 166.597 163.628 166.463 166.066C166.597 169.101 168.03 170.696 170.761 170.829V170.818Z" fill="#004EA2"/>
<path d="M181.104 168.492L184.384 167.783C184.865 169.877 186.052 170.896 187.966 170.818C190.966 170.885 192.511 168.281 192.578 163.019C191.481 164.781 189.712 165.689 187.25 165.755C183.085 165.556 180.903 163.318 180.701 159.064C180.97 154.4 183.432 151.974 188.078 151.763C193.54 151.63 196.205 155.109 196.07 162.199C196.07 169.633 193.339 173.344 187.876 173.344C184.126 173.344 181.865 171.727 181.115 168.481L181.104 168.492ZM192.466 159.275C192.399 156.173 190.966 154.577 188.167 154.511C185.638 154.644 184.306 156.095 184.171 158.865C184.306 161.501 185.604 162.886 188.067 163.019C190.865 162.886 192.331 161.634 192.466 159.275Z" fill="#004EA2"/>
<path d="M206.289 151.763C211.338 151.83 213.901 155.441 213.968 162.609C214.035 169.843 211.472 173.421 206.289 173.355C201.174 173.222 198.577 169.644 198.51 162.609C198.644 155.585 201.241 151.963 206.289 151.763ZM206.289 170.818C208.886 170.885 210.185 168.181 210.185 162.709C210.252 157.169 208.954 154.433 206.289 154.5C203.625 154.5 202.293 157.236 202.293 162.709C202.293 168.181 203.625 170.818 206.289 170.818Z" fill="#004EA2"/>
<path d="M238.236 174.164C232.707 171.261 229.393 167.107 228.307 161.7C227.289 166.974 223.875 171.228 218.065 174.474C217.382 173.466 216.666 172.546 215.916 171.737C222.397 168.425 225.845 163.395 226.259 156.638C226.393 154.954 226.461 152.96 226.461 150.655H229.841V151.364C229.774 152.516 229.74 153.458 229.74 154.2C230.154 162.709 233.77 168.425 240.598 171.328C240.184 171.737 239.613 172.447 238.852 173.455C238.583 173.787 238.371 174.031 238.236 174.164Z" fill="#004EA2"/>
<path d="M298.973 129.396L339.64 92.4717L298.973 55.5474V129.396Z" fill="white"/>
<path d="M422.014 82.1464L421.6 79.6094H423.033L425.282 76.0643C424.051 75.0562 422.686 74.0038 421.186 72.9181L422.518 70.8907L423.435 71.5C424.387 70.0155 425.282 68.3205 426.1 66.4372L428.562 67.4453C428.294 67.9217 427.913 68.5642 427.432 69.373C426.547 70.924 425.831 72.0761 425.282 72.8184L426.715 73.9373C427.532 72.5857 428.282 71.2674 428.965 69.9823L431.114 71.2009C430.633 71.8767 429.883 73.0288 428.864 74.6463C427.432 76.8731 426.368 78.5016 425.685 79.5097C426.503 79.5097 427.32 79.4433 428.148 79.3103C427.947 78.701 427.734 78.0917 427.532 77.4824L429.379 76.8731C429.514 77.2165 429.715 77.715 429.995 78.3908C430.611 80.0858 431.047 81.2934 431.327 82.0356L429.279 82.6449C429.211 82.3126 429.111 81.9359 428.976 81.526L427.544 81.6257V90.854H425.081V81.8362L422.014 82.1353V82.1464ZM423.447 89.3474C422.697 89.2809 422.014 89.1812 421.398 89.0482C421.812 87.3643 422.115 85.4699 422.316 83.3761L424.264 83.5755C424.062 85.8687 423.783 87.7964 423.447 89.3474ZM429.178 87.6191C429.178 87.5526 429.144 87.4197 429.077 87.2092C428.809 85.6582 428.495 84.4064 428.159 83.4647L429.905 83.0548C430.04 83.5312 430.241 84.207 430.521 85.0822C430.655 85.8244 430.79 86.4005 430.935 86.8104C431.349 85.8687 431.685 84.8495 431.954 83.7749L433.902 84.3842C433.633 85.3924 433.185 86.7107 432.57 88.3392C432.368 88.8156 432.223 89.1812 432.155 89.4581C431.405 89.1147 430.723 88.8488 430.107 88.6494C430.443 88.0401 430.689 87.5305 430.823 87.1317L429.189 87.6413L429.178 87.6191ZM444.636 89.1369C444.368 88.1841 443.954 87.1095 443.405 85.8909C443.405 86.0238 443.372 86.2676 443.304 86.5999C443.103 87.4086 442.924 87.9182 442.789 88.1177C442.521 89.6022 441.491 90.3112 439.722 90.2447H436.756C434.909 90.2447 433.991 89.436 433.991 87.8075V83.1434H436.555V86.7882C436.487 87.597 436.924 87.9736 437.887 87.9072H439.118C440.069 87.9736 440.584 87.6413 440.651 86.899C440.719 86.6331 440.786 86.2232 440.853 85.6804C440.92 85.4145 440.954 85.204 440.954 85.0711L439.006 86.0792C438.804 85.6693 438.491 85.1043 438.088 84.351C437.741 83.8081 437.472 83.3761 437.271 83.0327L439.017 82.3236H431.54V68.7415H435.536L436.051 66.415L439.118 66.6145L438.402 68.7415H445.565V82.3236H439.521C439.722 82.5895 439.969 82.9662 440.237 83.4426C440.651 84.1183 440.954 84.628 441.155 84.9603V85.06C441.838 85.3259 442.588 85.5696 443.405 85.769L442.789 84.1516L444.838 83.5423C445.655 85.2373 446.338 86.8547 446.886 88.4057L444.636 89.1147V89.1369ZM435.211 76.3635C435.077 76.164 434.864 75.9203 434.596 75.6544C434.327 75.3221 434.114 75.0784 433.98 74.9454V80.3184H443.192V70.8907H438.077L439.308 71.0901C439.107 71.5 438.86 71.8988 438.592 72.3088H442.375V74.4358C441.827 75.3886 441.245 76.164 440.629 76.7623L442.577 78.1803L441.345 79.7978C441.144 79.6648 440.831 79.4322 440.428 79.0887C439.879 78.6124 439.443 78.28 439.096 78.0806C438.211 78.7564 437.047 79.3989 435.614 80.0083C435.48 79.8753 435.234 79.5651 434.898 79.0998C434.696 78.7675 434.517 78.5237 434.383 78.3908C434.45 78.3908 434.517 78.3576 434.584 78.2911C436.017 77.7483 436.969 77.283 437.45 76.8731C437.036 76.5407 436.599 76.2305 436.118 75.9646L437.349 74.6463C437.484 74.7128 437.618 74.8125 437.763 74.9454C438.099 75.0784 438.513 75.3553 438.995 75.7541C439.543 75.2113 440.013 74.602 440.428 73.9262H437.361C437.092 74.3361 436.611 74.8679 435.928 75.5437C435.581 75.8871 435.346 76.153 435.211 76.3524V76.3635ZM433.98 70.8907V74.746C435.346 73.5274 436.398 72.2423 437.159 70.8907H433.98Z" fill="#004EA2"/>
<path d="M449.361 81.0388V73.439H459.906V81.0388H456.223V87.3202C456.29 89.3476 455.339 90.3557 453.357 90.3557C452.876 90.4222 452.059 90.4554 450.895 90.4554C450.828 90.0455 450.693 89.4473 450.481 88.6275C450.413 88.284 450.346 88.0514 450.279 87.9184V88.0182C449.731 87.8852 448.913 87.6526 447.816 87.3091C448.499 85.9576 449.182 84.2072 449.865 82.0358L452.327 82.7448C451.712 84.5728 451.029 86.2899 450.279 87.9184H452.227C453.111 87.9849 453.525 87.6526 453.458 86.9103V81.0277H449.361V81.0388ZM448.343 71.7107V69.1738H453.257V66.5371H456.021V69.1738H460.935V71.7107H448.343ZM452.025 75.8651V78.6015H457.141V75.8651H452.025ZM458.372 86.4007C458.238 85.8579 457.824 84.883 457.141 83.4649C456.939 83.1326 456.794 82.8556 456.727 82.6562L458.977 81.9472C459.391 82.623 459.827 83.5646 460.309 84.7833C460.443 85.1267 460.544 85.3593 460.611 85.4923L458.361 86.4007H458.372ZM460.723 75.4552V72.9183H463.073V69.9825C463.141 68.498 463.174 67.3458 463.174 66.5371H466.04L465.838 72.9183H472.398V75.4552H465.738C465.536 81.7367 463.857 86.8771 460.723 90.8653C459.973 90.3225 459.122 89.7464 458.159 89.1371C461.372 85.6917 462.973 81.1274 462.973 75.4552H460.723ZM468.402 90.1452C466.555 90.1452 465.637 89.2368 465.637 87.4088V77.0727H468.402V86.6001C468.335 87.3424 468.603 87.6858 469.219 87.6083H469.521C470.07 87.6747 470.372 87.3091 470.439 86.4893C470.506 85.8135 470.607 84.462 470.741 82.4346C470.876 82.5011 471.111 82.5676 471.458 82.634C472.208 82.8999 472.689 83.0772 472.89 83.1437C472.823 84.9716 472.689 86.4561 472.476 87.5972C472.208 89.3586 471.211 90.2006 469.51 90.1341H468.379L468.402 90.1452ZM469.734 72.1095C468.57 70.8245 467.585 69.8163 466.767 69.0741L468.715 67.5563C470.215 68.9079 471.245 69.9271 471.782 70.5918L469.734 72.1095Z" fill="#004EA2"/>
<path d="M474.546 73.4386V71.2119H478.744C477.926 70.2037 476.964 69.1845 475.878 68.1764L478.027 66.7583C479.046 67.7665 480.042 68.7857 480.994 69.7938L479.046 71.2119H482.225V66.5479H485.09V71.2119H488.158V66.5479H491.023V71.2119H494.09L492.243 69.7938C492.725 69.3839 493.441 68.6749 494.392 67.6668C494.807 67.2569 495.109 66.9578 495.31 66.7583L497.46 68.2761C497.045 68.686 496.508 69.1845 495.825 69.7938C495.21 70.4031 494.728 70.8795 494.392 71.2119H498.691V73.4386H492.859L493.475 73.5383C492.926 74.1476 492.344 74.8234 491.728 75.5657H497.56V77.7924H488.034V79.3102H496.127V81.4372H488.034V82.8553H498.478V85.082H490.184C492.031 86.3007 494.997 87.2091 499.094 87.8184C498.545 88.6271 498.075 89.4359 497.661 90.2557C493.363 89.2475 490.15 87.9292 488.034 86.3007V90.7542H485.068V86.3007C483.02 87.9181 479.841 89.3361 475.542 90.5548C475.128 89.8125 474.658 88.9706 474.109 88.0178C477.926 87.4085 480.904 86.4336 483.02 85.082H474.624V82.8553H485.068V81.4372H476.874V79.3102H485.068V77.7924H475.542V75.5657H481.374C481.24 75.3663 480.994 75.0893 480.658 74.757C480.244 74.2141 479.941 73.8153 479.74 73.5383L480.255 73.4386H474.524H474.546ZM483.042 73.4386C483.243 73.7045 483.59 74.1476 484.061 74.757C484.396 75.1004 484.643 75.3663 484.777 75.5657H488.46C489.075 74.9564 489.624 74.2474 490.094 73.4386H483.031H483.042Z" fill="#004EA2"/>
<path d="M379.523 113.288L378.807 110.751L380.553 110.551C381.101 109.942 381.952 108.901 383.116 107.405C383.318 107.139 383.486 106.929 383.631 106.796C383.217 106.53 382.534 106.053 381.583 105.378C380.351 104.569 379.467 103.96 378.919 103.55L380.351 101.821L381.169 102.331C382.12 101.046 383.15 99.4618 384.236 97.5674L387 98.4758C385.635 100.37 384.37 102.087 383.217 103.649L385.064 104.868C386.015 103.583 386.911 102.331 387.728 101.124L390.191 102.641C388.825 104.469 386.709 106.995 383.844 110.241C384.18 110.241 384.728 110.208 385.478 110.141C386.228 110.141 386.777 110.108 387.112 110.042L386.396 108.313L388.444 107.405C389.53 109.565 390.359 111.327 390.907 112.678L388.657 113.487L388.142 112.368L386.295 112.568V121.896H383.732V112.778C383.598 112.778 383.351 112.811 383.015 112.878C381.919 113.011 380.766 113.144 379.534 113.288H379.523ZM381.471 120.688L379.008 120.278C379.624 118.661 380.139 116.667 380.542 114.296L382.892 114.706C382.478 116.6 382.008 118.594 381.46 120.688H381.471ZM388.948 120.079C388.881 119.813 388.747 119.436 388.534 118.96C388.187 117.885 387.683 116.423 387 114.606L389.049 113.997C389.799 115.681 390.515 117.475 391.198 119.37L388.948 120.079ZM390.997 108.014C390.795 107.815 390.415 107.471 389.866 106.995C389.385 106.585 389.015 106.286 388.735 106.087C390.717 103.649 392.25 100.813 393.347 97.5785L396.314 98.1878C396.179 98.5977 395.933 99.1294 395.597 99.8052C395.25 100.547 395.015 101.09 394.881 101.423H402.974C402.84 107.771 402.627 112.911 402.358 116.833C402.291 119.735 400.724 121.187 397.646 121.187C396.627 121.253 395.396 121.286 393.963 121.286C393.896 120.677 393.728 119.835 393.448 118.749C393.381 118.616 393.347 118.517 393.347 118.45C394.646 118.517 395.81 118.55 396.829 118.55C398.597 118.616 399.493 117.841 399.493 116.223C399.761 112.302 399.907 108.313 399.907 104.27H393.459C392.776 105.555 391.959 106.807 390.997 108.014ZM395.194 114.296C394.31 112.811 393.112 111.05 391.612 109.022L393.862 107.505C395.295 109.333 396.56 111.05 397.646 112.678L395.183 114.296H395.194Z" fill="#004EA2"/>
<path d="M411.873 120.279V104.37C410.171 105.854 407.977 107.14 405.324 108.225V105.079C408.805 103.594 411.223 101.634 412.6 99.1963H415.365V120.279H411.884H411.873Z" fill="#004EA2"/>
<path d="M424.365 109.432V109.333C421.902 108.657 420.648 107.073 420.581 104.569C420.917 101.057 423.312 99.196 427.745 98.9966C432.044 99.196 434.405 101.057 434.808 104.569C434.808 107.073 433.476 108.657 430.812 109.333V109.432C433.745 110.108 435.278 111.87 435.424 114.706C435.357 118.561 432.693 120.511 427.432 120.588C422.518 120.455 419.988 118.495 419.854 114.706C419.988 112.003 421.488 110.252 424.365 109.432ZM427.644 118.151C430.308 118.085 431.708 116.933 431.842 114.706C431.775 112.545 430.342 111.227 427.544 110.751C424.947 111.161 423.615 112.446 423.547 114.606C423.682 116.899 425.047 118.085 427.644 118.151ZM427.745 101.534C425.562 101.6 424.398 102.652 424.264 104.68C424.331 106.574 425.495 107.715 427.745 108.125C429.928 107.715 431.058 106.607 431.126 104.78C430.991 102.752 429.861 101.678 427.745 101.534Z" fill="#004EA2"/>
<path d="M437.686 115.104L441.268 114.395C441.749 116.833 443.148 118.04 445.465 118.04C448.062 117.974 449.394 116.722 449.461 114.296C449.461 112.002 447.827 110.85 444.547 110.85H442.6V108.214H444.133C447.2 108.147 448.779 107.028 448.846 104.868C448.846 102.774 447.715 101.722 445.465 101.722C443.215 101.788 441.917 102.974 441.57 105.267L438.089 104.458C439.04 100.88 441.57 99.0518 445.667 98.9854C449.965 99.1183 452.215 100.946 452.428 104.458C452.428 107.028 451.028 108.646 448.23 109.322V109.421C451.297 109.964 452.943 111.648 453.144 114.484C452.943 118.339 450.346 120.322 445.364 120.466C441.066 120.599 438.503 118.816 437.686 115.093V115.104Z" fill="#004EA2"/>
<path d="M457.14 125.651L456.121 124.333C457.901 123.247 458.785 121.863 458.785 120.179H456.636V116.224H460.733V119.569C460.867 122.206 459.669 124.233 457.151 125.651H457.14Z" fill="#004EA2"/>
<path d="M476.897 113.088H479.662V115.625H476.897V120.289H473.718V115.625H463.375V113.398L473.617 99.207H476.897V113.088ZM466.756 113.088H473.718V105.178C473.718 103.96 473.752 103.184 473.819 102.852C473.819 102.918 473.785 102.952 473.718 102.952C473.718 103.084 473.651 103.251 473.517 103.461L473.416 103.661C473.214 103.926 473.002 104.27 472.8 104.669C472.666 104.802 472.42 105.145 472.084 105.688C471.334 106.696 470.752 107.516 470.338 108.125C470.203 108.258 470.035 108.502 469.823 108.834C469.755 108.967 469.688 109.067 469.621 109.133C468.457 110.751 467.506 112.069 466.756 113.088Z" fill="#004EA2"/>
<path d="M489.905 98.9966C494.953 99.0631 497.516 102.686 497.584 109.842C497.651 117.077 495.087 120.655 489.905 120.588C484.789 120.455 482.192 116.877 482.125 109.842C482.259 102.819 484.856 99.196 489.905 98.9966ZM489.905 118.051C492.502 118.118 493.8 115.415 493.8 109.942C493.867 104.403 492.569 101.666 489.905 101.733C487.241 101.733 485.908 104.469 485.908 109.942C485.908 115.415 487.241 118.051 489.905 118.051Z" fill="#004EA2"/>
<path d="M504.042 117.442H514.687V120.179H499.732V118.151C501.232 115.515 503.415 113.155 506.281 111.061C509.762 108.624 511.363 106.707 511.094 105.289C511.027 102.996 509.762 101.844 507.311 101.844C505.195 101.844 503.829 103.129 503.214 105.699L499.934 104.89C500.885 100.969 503.549 99.0078 507.926 99.0078C512.225 99.1408 514.519 101.102 514.788 104.89C515.124 107.394 513.456 109.787 509.773 112.091C507.042 113.919 505.128 115.703 504.042 117.464V117.442Z" fill="#004EA2"/>
<path d="M539.27 121.397C533.74 118.495 530.426 114.34 529.341 108.934C528.322 114.207 524.908 118.461 519.098 121.707C518.416 120.688 517.699 119.78 516.949 118.971C523.43 115.658 526.878 110.629 527.292 103.871C527.427 102.187 527.494 100.193 527.494 97.8887H530.874V98.5977C530.807 99.7498 530.773 100.692 530.773 101.434C531.188 109.942 534.803 115.658 541.631 118.561C541.217 118.971 540.646 119.68 539.885 120.688C539.617 121.02 539.404 121.264 539.27 121.397Z" fill="#004EA2"/>
</g>
<defs>
<clipPath id="clip0_3786_19516">
<rect width="563" height="192" fill="white"/>
</clipPath>
</defs>
</svg>
