<svg width="963" height="70" viewBox="0 0 963 70" fill="none" xmlns="http://www.w3.org/2000/svg">
<path d="M30.2997 68.5583V70.4181H0.862305V68.5583H3.29747C6.14208 68.5583 8.18934 67.7459 9.48234 66.0999C10.3012 65.0311 10.6891 62.4445 10.6891 58.3615V14.3464C10.6891 10.9047 10.4736 8.61736 10.0426 7.50576C9.69784 6.67206 9.00824 5.94525 7.97384 5.3467C6.48688 4.53437 4.93527 4.14959 3.31902 4.14959H0.862305V2.28979H30.2997V4.14959H27.8215C25.02 4.14959 22.9727 4.96191 21.7012 6.60793C20.8608 7.67678 20.4298 10.2634 20.4298 14.3464V58.3828C20.4298 61.8245 20.6453 64.1119 21.0978 65.2235C21.4426 66.0572 22.1538 66.784 23.2313 67.3825C24.6752 68.1949 26.2268 68.5796 27.843 68.5796H30.3213L30.2997 68.5583Z" fill="white"/>
<path d="M26.2695 2.26831H44.9104L86.9115 53.3805V14.0897C86.9115 9.89987 86.4374 7.29189 85.4892 6.24442C84.2393 4.83354 82.2567 4.1281 79.5629 4.1281H77.1924V2.26831H101.113V4.1281H98.6779C95.7686 4.1281 93.7213 5.00456 92.493 6.73609C91.7387 7.80493 91.3724 10.2633 91.3724 14.0684V71.5082H89.5406L44.2639 16.655V58.6179C44.2639 62.8078 44.7164 65.4157 45.6215 66.4632C46.9145 67.8741 48.8756 68.5795 51.5478 68.5795H53.983V70.4393H30.0839V68.5795H32.4544C35.3852 68.5795 37.4756 67.7031 38.6824 65.9715C39.4151 64.9027 39.803 62.4443 39.803 58.6393V11.2252C37.8204 8.91653 36.2903 7.39877 35.2775 6.65058C34.2431 5.92376 32.7346 5.21833 30.752 4.5984C29.7822 4.29912 28.2952 4.14948 26.2911 4.14948V2.28969L26.2695 2.26831Z" fill="white"/>
<path d="M157.423 2.26831L158.178 18.2582H156.26C155.893 15.4365 155.376 13.4271 154.73 12.23C153.674 10.2847 152.295 8.8524 150.549 7.9332C148.803 7.01399 146.519 6.54369 143.674 6.54369H133.998V58.6179C133.998 62.8078 134.451 65.4157 135.356 66.4632C136.649 67.8741 138.61 68.5795 141.282 68.5795H143.674V70.4393H114.539V68.5795H116.974C119.883 68.5795 121.93 67.7031 123.159 65.9715C123.891 64.9027 124.279 62.4443 124.279 58.6393V6.54369H116.026C112.815 6.54369 110.53 6.77884 109.194 7.24913C107.427 7.89044 105.94 9.10893 104.69 10.926C103.44 12.743 102.708 15.18 102.471 18.2582H100.553L101.372 2.26831H157.467H157.423Z" fill="white"/>
<path d="M177.271 5.98789V32.9228H192.377C196.299 32.9228 198.907 32.3456 200.221 31.1699C201.989 29.6308 202.958 26.9159 203.152 23.0253H205.027V46.7537H203.152C202.678 43.4403 202.204 41.3026 201.73 40.362C201.126 39.1863 200.114 38.267 198.734 37.6044C197.355 36.9417 195.222 36.5997 192.356 36.5997H177.249V59.0668C177.249 62.0809 177.378 63.9194 177.658 64.5607C177.917 65.2234 178.391 65.7364 179.081 66.1212C179.749 66.506 181.042 66.6984 182.938 66.6984H194.597C198.476 66.6984 201.299 66.4205 203.066 65.886C204.812 65.3516 206.514 64.3041 208.13 62.7223C210.221 60.6487 212.376 57.5063 214.574 53.3164H216.599L210.673 70.3966H157.725V68.5368H160.16C161.776 68.5368 163.328 68.152 164.771 67.3824C165.849 66.848 166.582 66.0357 166.97 64.9668C167.358 63.898 167.551 61.6962 167.551 58.3827V14.1325C167.551 9.81437 167.12 7.14225 166.237 6.13753C165.03 4.79079 163.004 4.1281 160.16 4.1281H157.725V2.26831H210.673L211.427 17.1894H209.445C208.734 13.5981 207.958 11.1397 207.096 9.79299C206.234 8.44624 204.962 7.44153 203.26 6.73609C201.902 6.22304 199.532 5.98789 196.105 5.98789H177.249H177.271Z" fill="white"/>
<path d="M283.901 70.4181H265.562L242.309 38.5451C240.585 38.6092 239.184 38.6519 238.107 38.6519C237.676 38.6519 237.202 38.6519 236.685 38.6306C236.167 38.6306 235.65 38.5878 235.111 38.5451V58.3401C235.111 62.6368 235.586 65.2876 236.534 66.3351C237.827 67.8101 239.745 68.5369 242.309 68.5369H245.003V70.3967H215.566V68.5369H218.152C221.061 68.5369 223.13 67.5963 224.379 65.7151C225.091 64.6677 225.435 62.2093 225.435 58.3187V14.3464C225.435 10.0496 224.961 7.39888 224.013 6.35141C222.699 4.8764 220.738 4.14959 218.13 4.14959H215.544V2.28979H240.564C247.869 2.28979 253.235 2.82422 256.705 3.87169C260.174 4.91916 263.105 6.86446 265.519 9.70759C267.932 12.5293 269.139 15.9069 269.139 19.8402C269.139 24.0301 267.76 27.6642 265.001 30.7425C262.243 33.8208 257.976 36.0012 252.201 37.2838L266.381 56.8437C269.613 61.3329 272.415 64.3256 274.742 65.8006C277.069 67.2756 280.108 68.2162 283.858 68.6224V70.4822L283.901 70.4181ZM235.111 35.3813C235.758 35.3813 236.318 35.3813 236.792 35.4026C237.266 35.4026 237.654 35.424 237.956 35.424C244.507 35.424 249.442 34.0131 252.783 31.1914C256.101 28.3696 257.782 24.7997 257.782 20.4388C257.782 16.0779 256.446 12.7217 253.752 10.071C251.059 7.42026 247.503 6.07351 243.085 6.07351C241.124 6.07351 238.473 6.39416 235.133 7.03547V35.3813H235.111Z" fill="white"/>
<path d="M276.424 2.26831H295.065L337.066 53.3805V14.0897C337.066 9.89987 336.592 7.29189 335.643 6.24442C334.394 4.83354 332.411 4.1281 329.717 4.1281H327.347V2.26831H351.267V4.1281H348.832C345.923 4.1281 343.876 5.00456 342.647 6.73609C341.915 7.80493 341.527 10.2633 341.527 14.0684V71.5082H339.695L294.397 16.6336V58.5965C294.397 62.7864 294.849 65.3944 295.754 66.4418C297.047 67.8527 299.008 68.5581 301.681 68.5581H304.116V70.4179H280.195V68.5581H282.587C285.518 68.5581 287.608 67.6817 288.815 65.9502C289.548 64.8813 289.936 62.423 289.936 58.6179V11.2252C287.953 8.91653 286.423 7.39877 285.41 6.65058C284.376 5.92376 282.867 5.21833 280.885 4.5984C279.893 4.29912 278.428 4.14948 276.424 4.14948V2.28969V2.26831Z" fill="white"/>
<path d="M395.012 47.609H368.42L363.765 58.3616C362.623 61.0123 362.041 62.979 362.041 64.283C362.041 65.3304 362.536 66.2283 363.528 67.0192C364.519 67.8102 366.674 68.3232 369.993 68.5584V70.4182H348.356V68.5584C351.223 68.0667 353.076 67.404 353.938 66.5917C355.662 64.9884 357.558 61.7177 359.67 56.8011L383.828 0.708008H385.595L409.516 57.3996C411.434 61.9529 413.179 64.9243 414.752 66.271C416.325 67.6178 418.502 68.3873 421.304 68.5584V70.4182H394.194V68.5584C396.93 68.4301 398.784 67.9812 399.753 67.2116C400.723 66.4421 401.197 65.5015 401.197 64.3899C401.197 62.9149 400.529 60.5848 399.172 57.3996L395.012 47.609V47.609ZM393.59 43.8894L381.931 16.3559L369.971 43.8894H393.59Z" fill="white"/>
<path d="M465.827 2.26831L466.581 18.2582H464.663C464.297 15.4365 463.78 13.4271 463.133 12.23C462.077 10.2847 460.698 8.8524 458.952 7.9332C457.207 7.01399 454.922 6.54369 452.078 6.54369H442.402V58.6179C442.402 62.8078 442.854 65.4157 443.76 66.4632C445.053 67.8741 447.014 68.5795 449.686 68.5795H452.056V70.4393H422.921V68.5795H425.356C428.265 68.5795 430.312 67.7031 431.541 65.9715C432.273 64.9027 432.661 62.4443 432.661 58.6393V6.54369H424.408C421.197 6.54369 418.912 6.77884 417.576 7.24913C415.809 7.89044 414.322 9.10893 413.072 10.926C411.822 12.743 411.09 15.18 410.853 18.2582H408.935L409.753 2.26831H465.848H465.827Z" fill="white"/>
<path d="M495.996 68.5583V70.4181H466.559V68.5583H468.994C471.838 68.5583 473.886 67.7459 475.179 66.0999C475.998 65.0311 476.385 62.4445 476.385 58.3615V14.3464C476.385 10.9047 476.17 8.61736 475.739 7.50576C475.394 6.67206 474.705 5.94525 473.67 5.3467C472.183 4.53437 470.632 4.14959 469.015 4.14959H466.58V2.28979H496.018V4.14959H493.539C490.738 4.14959 488.691 4.96191 487.419 6.60793C486.579 7.67678 486.148 10.2634 486.148 14.3464V58.3828C486.148 61.8245 486.363 64.1119 486.816 65.2235C487.16 66.0572 487.872 66.784 488.949 67.3825C490.393 68.1949 491.945 68.5796 493.561 68.5796H496.039L495.996 68.5583Z" fill="white"/>
<path d="M531.295 0.729248C540.217 0.729248 547.932 4.08543 554.483 10.7978C561.034 17.5101 564.288 25.8899 564.288 35.9584C564.288 46.0269 560.991 54.8984 554.418 61.739C547.824 68.5796 539.85 71.9999 530.498 71.9999C521.145 71.9999 513.085 68.6651 506.663 61.9955C500.22 55.3259 497.009 46.711 497.009 36.1081C497.009 25.5051 500.715 16.4627 508.15 9.62205C514.594 3.70064 522.309 0.729248 531.295 0.729248V0.729248ZM530.325 4.40608C524.183 4.40608 519.248 6.67204 515.542 11.1826C510.909 16.8047 508.603 25.0562 508.603 35.9157C508.603 46.7751 510.995 55.6038 515.8 61.5893C519.486 66.1426 524.356 68.43 530.39 68.43C536.833 68.43 542.178 65.9289 546.38 60.948C550.582 55.9458 552.694 48.0791 552.694 37.3265C552.694 25.6761 550.388 16.9757 545.755 11.2467C542.048 6.69341 536.898 4.40608 530.347 4.40608H530.325Z" fill="white"/>
<path d="M561.726 2.26831H580.367L622.368 53.3805V14.0897C622.368 9.89987 621.894 7.29189 620.945 6.24442C619.695 4.83354 617.713 4.1281 615.019 4.1281H612.627V2.26831H636.548V4.1281H634.112C631.203 4.1281 629.156 5.00456 627.928 6.73609C627.195 7.80493 626.807 10.2633 626.807 14.0684V71.5082H624.975L579.677 16.6336V58.5965C579.677 62.7864 580.129 65.3944 581.035 66.4418C582.328 67.8527 584.289 68.5581 586.961 68.5581H589.396V70.4179H565.475V68.5581H567.846C570.777 68.5581 572.867 67.6817 574.074 65.9502C574.807 64.8813 575.195 62.423 575.195 58.6179V11.2252C573.212 8.91653 571.682 7.39877 570.669 6.65058C569.635 5.92376 568.126 5.21833 566.143 4.5984C565.152 4.29912 563.687 4.14948 561.683 4.14948V2.28969L561.726 2.26831Z" fill="white"/>
<path d="M692.319 51.585L694 51.927L688.116 70.4181H634.909V68.5583H637.495C640.405 68.5583 642.473 67.6177 643.723 65.7365C644.434 64.6677 644.779 62.1879 644.779 58.2973V14.3464C644.779 10.0924 644.305 7.42026 643.357 6.35141C642.042 4.8764 640.081 4.14959 637.474 4.14959H634.888V2.28979H666.006V4.14959C662.364 4.10683 659.8 4.44886 658.334 5.1543C656.869 5.85974 655.856 6.73619 655.317 7.82642C654.778 8.89526 654.498 11.4605 654.498 15.5221V58.3401C654.498 61.1191 654.778 63.0216 655.317 64.0691C655.727 64.7745 656.352 65.2876 657.192 65.6296C658.033 65.9717 660.662 66.1213 665.101 66.1213H670.122C675.38 66.1213 679.087 65.7365 681.22 64.9669C683.354 64.1974 685.293 62.8292 687.039 60.8626C688.806 58.8959 690.552 55.8176 692.319 51.585V51.585Z" fill="white"/>
<path d="M731.567 38.4809V58.34C731.567 62.6368 732.042 65.2875 732.99 66.335C734.283 67.81 736.222 68.5368 738.808 68.5368H741.437V70.3966H712V68.5368H714.586C717.495 68.5368 719.564 67.5962 720.814 65.715C721.482 64.6676 721.827 62.2092 721.827 58.3186V14.2822C721.827 9.98541 721.374 7.33467 720.469 6.2872C719.155 4.81219 717.194 4.08538 714.586 4.08538H712V2.22559H737.171C743.312 2.22559 748.161 2.84552 751.717 4.10676C755.273 5.368 758.247 7.48431 760.682 10.4557C763.117 13.4271 764.324 16.9757 764.324 21.0586C764.324 26.6166 762.47 31.1486 758.785 34.633C755.079 38.1174 749.864 39.849 743.097 39.849C741.437 39.849 739.649 39.7421 737.731 39.5069C735.813 39.2718 733.744 38.9298 731.546 38.4595L731.567 38.4809ZM731.567 35.6163C733.356 35.9584 734.951 36.1935 736.33 36.3645C737.709 36.5355 738.895 36.6211 739.886 36.6211C743.398 36.6211 746.437 35.2743 748.98 32.5808C751.523 29.8873 752.816 26.3815 752.816 22.1061C752.816 19.1561 752.212 16.4199 750.984 13.8974C749.777 11.3749 748.053 9.47236 745.812 8.21112C743.571 6.94988 741.05 6.32995 738.205 6.32995C736.481 6.32995 734.261 6.65061 731.567 7.29191V35.6377V35.6163Z" fill="white"/>
<path d="M800.744 47.566H774.151L769.496 58.3186C768.354 60.9693 767.772 62.936 767.772 64.24C767.772 65.2875 768.268 66.1853 769.259 66.9763C770.25 67.7672 772.405 68.2802 775.724 68.5154V70.3752H754.088V68.5154C756.954 68.0237 758.807 67.361 759.669 66.5487C761.393 64.9455 763.29 61.6748 765.402 56.7581L789.559 0.665039H791.326L815.247 57.3566C817.165 61.9099 818.911 64.8813 820.484 66.2281C822.057 67.5748 824.233 68.3444 827.035 68.5154V70.3752H799.925V68.5154C802.662 68.3871 804.515 67.9382 805.463 67.1687C806.433 66.3991 806.907 65.4585 806.907 64.3469C806.907 62.8719 806.239 60.5418 804.881 57.3566L800.722 47.566H800.744ZM799.322 43.8464L787.663 16.3129L775.703 43.8464H799.322V43.8464Z" fill="white"/>
<path d="M893.128 70.375H874.789L851.537 38.502C849.813 38.5661 848.412 38.6089 847.334 38.6089C846.903 38.6089 846.429 38.6089 845.912 38.5875C845.395 38.5875 844.878 38.5448 844.339 38.502V58.297C844.339 62.5938 844.813 65.2445 845.761 66.292C847.033 67.767 848.972 68.4938 851.537 68.4938H854.23V70.3536H824.793V68.4938H827.379C830.288 68.4938 832.357 67.5532 833.607 65.6721C834.318 64.6246 834.663 62.1663 834.663 58.2757V14.2392C834.663 9.94244 834.189 7.2917 833.241 6.24424C831.926 4.76923 829.965 4.04241 827.357 4.04241H824.771V2.18262H849.791C857.097 2.18262 862.463 2.71704 865.932 3.7645C869.402 4.81197 872.333 6.75728 874.746 9.60041C877.16 12.4222 878.367 15.7997 878.367 19.7331C878.367 23.9229 876.987 27.557 874.229 30.6353C871.471 33.7136 867.204 35.894 861.428 37.1766L875.608 56.7365C878.841 61.2257 881.642 64.2184 883.97 65.6935C886.297 67.1685 889.336 68.109 893.085 68.5152V70.375H893.128ZM844.339 35.3382C844.985 35.3382 845.546 35.3382 846.02 35.3596C846.494 35.3596 846.882 35.381 847.184 35.381C853.735 35.381 858.67 33.9701 862.01 31.1484C865.329 28.3266 867.01 24.7566 867.01 20.3958C867.01 16.0349 865.674 12.6787 862.98 10.0279C860.286 7.37721 856.73 6.03046 852.313 6.03046C850.351 6.03046 847.701 6.35112 844.361 6.99242V35.3382H844.339Z" fill="white"/>
<path d="M918.04 32.5805L943.362 57.5487C947.521 61.6745 951.055 64.4748 954.008 65.9712C956.938 67.4676 959.891 68.3013 962.822 68.5151V70.3749H930.152V68.5151C932.113 68.5151 933.513 68.1944 934.375 67.5317C935.237 66.8691 935.668 66.1422 935.668 65.3513C935.668 64.5604 935.496 63.8335 935.194 63.1922C934.871 62.5509 933.815 61.3752 932.027 59.6223L908.321 36.3428V58.2969C908.321 61.7386 908.537 64.0259 908.968 65.1375C909.313 65.9712 910.024 66.698 911.101 67.2966C912.545 68.1089 914.097 68.4937 915.713 68.4937H918.04V70.3535H888.754V68.4937H891.189C894.034 68.4937 896.081 67.6814 897.374 66.0354C898.193 64.9665 898.581 62.3799 898.581 58.2969V14.2604C898.581 10.8188 898.365 8.51005 897.913 7.37708C897.568 6.56475 896.878 5.85931 895.844 5.26076C894.357 4.44844 892.805 4.06366 891.189 4.06366H888.754V2.20386H918.04V4.06366H915.713C914.118 4.06366 912.588 4.44843 911.101 5.218C910.045 5.75243 909.334 6.56475 908.925 7.6336C908.515 8.70244 908.321 10.9256 908.321 14.2604V35.1243C908.989 34.483 911.317 32.3667 915.261 28.7326C925.281 19.6261 931.358 13.5336 933.449 10.4981C934.354 9.15136 934.806 7.97563 934.806 6.97091C934.806 6.20134 934.462 5.51729 933.751 4.94011C933.039 4.36293 931.833 4.06366 930.152 4.06366H928.578V2.20386H953.814V4.06366C952.327 4.10641 950.969 4.2988 949.762 4.66221C948.555 5.02561 947.068 5.75243 945.301 6.7999C943.534 7.84737 941.379 9.55752 938.815 11.909C938.082 12.5717 934.634 16.0134 928.535 22.2127L918.04 32.5591V32.5805Z" fill="white"/>
</svg>
