<svg version="1.1" width="429" height="601" fill="none" xmlns="http://www.w3.org/2000/svg" xmlns:xlink="http://www.w3.org/1999/xlink" viewBox="0 0 429 601" xml:space="preserve">
<linearGradient id="alter1" x1="-150" y1="1" x2="400" y2="5" gradientUnits="userSpaceOnUse" style="transform: rotate(25deg);">
<stop offset="0" stop-color="#CEAA6D"/>
<stop offset="0.3" stop-color="#FFF"/>
<stop offset="1" stop-color="#CEAA6D"/>
</linearGradient>
<linearGradient id="alter2" x1="0" y1="1" x2="250" y2="5" gradientUnits="userSpaceOnUse" style="transform: rotate(0deg);">
<stop offset="0" stop-color="#FFF"/>
<stop offset="1" stop-color="#CEAA6D"/>
</linearGradient>
<linearGradient id="alter3" x1="-6500" y1="1" x2="-6000" y2="5" gradientUnits="userSpaceOnUse" style="transform: rotate(45deg);">
<stop offset="0" stop-color="#FFF0"/>
<stop offset="0.5" stop-color="#FFF"/>
<stop offset="1" stop-color="#FFF0"/>
	<animate attributeName="x1" from="-6500" to="1000" dur="5s" repeatCount="indefinite" begin="a8.end" />
	<animate attributeName="x2" from="-6000" to="1500" dur="5s" repeatCount="indefinite" begin="a8.end" />
</linearGradient>


<!-- 第四畫 -->
<g fill="#FFF6">
	<rect y="552" width="0" height="4.4" opacity="1">
	<animate begin="line031.end + .7s" attributeName="width" from="0" to="429" dur=".2s" fill="freeze" id="line048" />
	<animate attributeName="opacity" from="1" to="0" dur=".4s" fill="freeze" begin="line048.end" />
	</rect>
	<rect y="540" width="0" height="4.4" opacity="1">
	<animate begin="line031.end + .6s" attributeName="width" from="0" to="429" dur=".2s" fill="freeze" id="line047" />
	<animate attributeName="opacity" from="1" to="0" dur=".4s" fill="freeze" begin="line047.end" />
	</rect>
	<rect y="528" width="0" height="4.4" opacity="1">
	<animate begin="line031.end + .5s" attributeName="width" from="0" to="429" dur=".2s" fill="freeze" id="line046" />
	<animate attributeName="opacity" from="1" to="0" dur=".4s" fill="freeze" begin="line046.end" />
	</rect>
	<rect y="516" width="0" height="4.4" opacity="1">
	<animate begin="line031.end + .4s" attributeName="width" from="0" to="429" dur=".2s" fill="freeze" id="line045" />
	<animate attributeName="opacity" from="1" to="0" dur=".4s" fill="freeze" begin="line045.end" />
	</rect>
	<rect y="504" width="0" height="4.4" opacity="1">
	<animate begin="line031.end + .3s" attributeName="width" from="0" to="429" dur=".2s" fill="freeze" id="line044" />
	<animate attributeName="opacity" from="1" to="0" dur=".4s" fill="freeze" begin="line044.end" />
	</rect>
	<rect y="492" width="0" height="4.4" opacity="1">
	<animate begin="line031.end + .2s" attributeName="width" from="0" to="429" dur=".2s" fill="freeze" id="line043" />
	<animate attributeName="opacity" from="1" to="0" dur=".4s" fill="freeze" begin="line043.end" />
	</rect>
	<rect y="480" width="0" height="4.4" opacity="1">
	<animate begin="line031.end + .1s" attributeName="width" from="0" to="429" dur=".2s" fill="freeze" id="line042" />
	<animate attributeName="opacity" from="1" to="0" dur=".4s" fill="freeze" begin="line042.end" />
	</rect>
	<rect y="468" width="0" height="4.4" opacity="1">
	<animate begin="line031.end" attributeName="width" from="0" to="429" dur=".2s" fill="freeze" id="line041" />
	<animate attributeName="opacity" from="1" to="0" dur=".4s" fill="freeze" begin="line041.end" />
	</rect>
</g>
<g fill="url(#alter2)">
	<rect y="552" width="0" height="4.4">
	<animate begin="line031.end + .9s" attributeName="width" from="0" to="429" dur=".8s" fill="freeze" />
	<animate begin="line031.end + .9s" attributeName="x" from="0" to="0" dur=".8s" fill="freeze" id="line049" />
	<animate begin="line048.end + 8s" attributeName="width" from="429" to="0" dur=".3s" fill="freeze" id="svgend" />
	<animate begin="line048.end + 8s" attributeName="x" from="0" to="429" dur=".3s" fill="freeze" />
	</rect>
	<rect y="540" width="0" height="4.4">
	<animate begin="line031.end + .8s" attributeName="width" from="0" to="429" dur=".8s" fill="freeze" />
	<animate begin="line031.end + .8s" attributeName="x" from="0" to="0" dur=".8s" fill="freeze" />
	<animate begin="line047.end + 8s" attributeName="width" from="429" to="0" dur=".3s" fill="freeze" />
	<animate begin="line047.end + 8s" attributeName="x" from="0" to="429" dur=".3s" fill="freeze" />
	</rect>
	<rect y="528" width="0" height="4.4">
	<animate begin="line031.end + .7s" attributeName="width" from="0" to="429" dur=".8s" fill="freeze" />
	<animate begin="line031.end + .7s" attributeName="x" from="0" to="0" dur=".8s" fill="freeze" />
	<animate begin="line046.end + 8s" attributeName="width" from="429" to="0" dur=".3s" fill="freeze" />
	<animate begin="line046.end + 8s" attributeName="x" from="0" to="429" dur=".3s" fill="freeze" />
	</rect>
	<rect y="516" width="0" height="4.4">
	<animate begin="line031.end + .6s" attributeName="width" from="0" to="429" dur=".8s" fill="freeze" />
	<animate begin="line031.end + .6s" attributeName="x" from="0" to="0" dur=".8s" fill="freeze" />
	<animate begin="line045.end + 8s" attributeName="width" from="429" to="0" dur=".3s" fill="freeze" />
	<animate begin="line045.end + 8s" attributeName="x" from="0" to="429" dur=".3s" fill="freeze" />
	</rect>
	<rect y="504" width="0" height="4.4">
	<animate begin="line031.end + .5s" attributeName="width" from="0" to="429" dur=".8s" fill="freeze" />
	<animate begin="line031.end + .5s" attributeName="x" from="0" to="0" dur=".8s" fill="freeze" />
	<animate begin="line044.end + 8s" attributeName="width" from="429" to="0" dur=".3s" fill="freeze" />
	<animate begin="line044.end + 8s" attributeName="x" from="0" to="429" dur=".3s" fill="freeze" />
	</rect>
	<rect y="492" width="0" height="4.4">
	<animate begin="line031.end + .4s" attributeName="width" from="0" to="429" dur=".8s" fill="freeze" />
	<animate begin="line031.end + .4s" attributeName="x" from="0" to="0" dur=".8s" fill="freeze" />
	<animate begin="line043.end + 8s" attributeName="width" from="429" to="0" dur=".3s" fill="freeze" />
	<animate begin="line043.end + 8s" attributeName="x" from="0" to="429" dur=".3s" fill="freeze" />
	</rect>
	<rect y="480" width="0" height="4.4">
	<animate begin="line031.end + .3s" attributeName="width" from="0" to="429" dur=".8s" fill="freeze" />
	<animate begin="line031.end + .3s" attributeName="x" from="0" to="0" dur=".8s" fill="freeze" />
	<animate begin="line042.end + 8s" attributeName="width" from="429" to="0" dur=".3s" fill="freeze" />
	<animate begin="line042.end + 8s" attributeName="x" from="0" to="429" dur=".3s" fill="freeze" />
	</rect>
	<rect y="468" width="0" height="4.4">
	<animate begin="line031.end + .2s" attributeName="width" from="0" to="429" dur=".8s" fill="freeze" />
	<animate begin="line031.end + .2s" attributeName="x" from="0" to="0" dur=".8s" fill="freeze" />
	<animate begin="line041.end + 8s" attributeName="width" from="429" to="0" dur=".3s" fill="freeze" />
	<animate begin="line041.end + 8s" attributeName="x" from="0" to="429" dur=".3s" fill="freeze" />
	</rect>
</g>

<!-- 第三畫 -->
<defs>
	<rect id="svg661" style="transform: rotate(135deg);" x="64" y="-410.8" width="0" height="79.6">
	<animate begin="line028.end" attributeName="width" from="0" to="346" dur=".2s" fill="freeze" id="line031" />
	</rect>
</defs>
<clipPath id="svg662">
	<use xlink:href="#svg661"  style="overflow:visible;"/>
</clipPath>
<rect y="270" style="clip-path:url(#svg662);" width="429" height="200" fill="#FFF6" opacity="1">
	<animate begin="line031.end" attributeName="opacity" from="1" to="0" dur=".4s" fill="freeze" />
</rect>
<defs>
	<rect id="svg1" style="transform: rotate(135deg);" x="64" y="-410.8" width="0" height="79.6">
<animate begin="line027.end + .2s" attributeName="width" from="0" to="267" dur=".3s" fill="freeze" id="shade1" />
	<animate begin="line027.end + .2s" attributeName="x" from="64" to="64" dur=".3s" fill="freeze" />
	<animate begin="line031.end + 8s" attributeName="width" from="267" to="0" dur=".3s" fill="freeze" />
	<animate begin="line031.end + 8s" attributeName="x" from="64" to="331" dur=".3s" fill="freeze" />
	</rect>
	</defs>
	<clipPath id="svg2">
		<use xlink:href="#svg1"  style="overflow:visible;"/>
	</clipPath>
<rect fill="url(#alter2)" x="0" y="270" style="clip-path:url(#svg2);" width="429" height="200"/>


<!-- 第二畫 -->
<g style="transform: rotate(45deg);" fill="#FFF6">
	<rect x="65" y="60" width="0" height="4.4" opacity="1">
	<animate begin="line01.end + 1.4s" attributeName="width" from="0" to="346" dur=".2s" fill="freeze" id="line028" />
	<animate begin="line028.end" attributeName="opacity" from="1" to="0" dur=".4s" fill="freeze" />
	</rect>
	<rect x="65" y="48" width="0" height="4.4" opacity="1">
	<animate begin="line01.end + 1.2s" attributeName="width" from="0" to="346" dur=".2s" fill="freeze" id="line027" />
	<animate begin="line027.end" attributeName="opacity" from="1" to="0" dur=".4s" fill="freeze" />
	</rect>
	<rect x="65" y="36" width="0" height="4.4" opacity="1">
	<animate begin="line01.end + 1s" attributeName="width" from="0" to="346" dur=".2s" fill="freeze" id="line026" />
	<animate begin="line026.end" attributeName="opacity" from="1" to="0" dur=".4s" fill="freeze" />
	</rect>
	<rect x="65" y="24" width="0" height="4.4" opacity="1">
	<animate begin="line01.end + .8s" attributeName="width" from="0" to="346" dur=".2s" fill="freeze" id="line025" />
	<animate begin="line025.end" attributeName="opacity" from="1" to="0" dur=".4s" fill="freeze" />
	</rect>
	<rect x="65" y="12" width="0" height="4.4" opacity="1">
	<animate begin="line01.end + .6s" attributeName="width" from="0" to="346" dur=".2s" fill="freeze" id="line024" />
	<animate begin="line024.end" attributeName="opacity" from="1" to="0" dur=".4s" fill="freeze" />
	</rect>
	<rect x="65" y="0" width="0" height="4.4" opacity="1">
	<animate begin="line01.end + .4s" attributeName="width" from="0" to="346" dur=".2s" fill="freeze" id="line023" />
	<animate begin="line023.end" attributeName="opacity" from="1" to="0" dur=".4s" fill="freeze" />
	</rect>
	<rect x="65" y="-12" width="0" height="4.4" opacity="1">
	<animate begin="line01.end + .2s" attributeName="width" from="0" to="346" dur=".2s" fill="freeze" id="line022" />
	<animate begin="line022.end" attributeName="opacity" from="1" to="0" dur=".4s" fill="freeze" />
	</rect>
	<rect x="65" y="-24" width="0" height="4.4" opacity="1">
	<animate begin="line01.end" attributeName="width" from="0" to="346" dur=".2s" fill="freeze" id="line021" />
	<animate begin="line021.end" attributeName="opacity" from="1" to="0" dur=".4s" fill="freeze" />
	</rect>
</g>
<g style="transform: rotate(45deg);" fill="url(#alter1)">
	<rect x="65" y="60" width="0" height="4.4">
	<animate begin="line01.end + 1.6s" attributeName="width" from="0" to="346" dur=".2s" fill="freeze" />
	<animate begin="line01.end + 1.6s" attributeName="x" from="65" to="65" dur=".8s" fill="freeze" />
	<animate begin="line028.end + 8s" attributeName="width" from="346" to="0" dur=".3s" fill="freeze" />
	<animate begin="line028.end + 8s" attributeName="x" from="65" to="411" dur=".3s" fill="freeze" />
	</rect>
	<rect x="65" y="48" width="0" height="4.4">
	<animate begin="line01.end + 1.4s" attributeName="width" from="0" to="346" dur=".2s" fill="freeze" />
	<animate begin="line01.end + 1.4s" attributeName="x" from="65" to="65" dur=".8s" fill="freeze" />
	<animate begin="line01.end + .8s" attributeName="x" from="65" to="65" dur=".8s" fill="freeze" />
	<animate begin="line027.end + 8s" attributeName="width" from="346" to="0" dur=".3s" fill="freeze" />
	<animate begin="line027.end + 8s" attributeName="x" from="65" to="411" dur=".3s" fill="freeze" />
	</rect>
	<rect x="65" y="36" width="0" height="4.4">
	<animate begin="line01.end + 1.2s" attributeName="width" from="0" to="346" dur=".3s" fill="freeze" />
	<animate begin="line01.end + 1.2s" attributeName="x" from="65" to="65" dur=".8s" fill="freeze" />
	<animate begin="line026.end + 8s" attributeName="width" from="346" to="0" dur=".3s" fill="freeze" />
	<animate begin="line026.end + 8s" attributeName="x" from="65" to="411" dur=".3s" fill="freeze" />
	</rect>
	<rect x="65" y="24" width="0" height="4.4">
	<animate begin="line01.end + 1s" attributeName="width" from="0" to="346" dur=".4s" fill="freeze" />
	<animate begin="line01.end + 1s" attributeName="x" from="65" to="65" dur=".8s" fill="freeze" />
	<animate begin="line025.end + 8s" attributeName="width" from="346" to="0" dur=".3s" fill="freeze" />
	<animate begin="line025.end + 8s" attributeName="x" from="65" to="411" dur=".3s" fill="freeze" />
	</rect>
	<rect x="65" y="12" width="0" height="4.4">
	<animate begin="line01.end + .8s" attributeName="width" from="0" to="346" dur=".5s" fill="freeze" />
	<animate begin="line01.end + .8s" attributeName="x" from="65" to="65" dur=".8s" fill="freeze" />
	<animate begin="line024.end + 8s" attributeName="width" from="346" to="0" dur=".3s" fill="freeze" />
	<animate begin="line024.end + 8s" attributeName="x" from="65" to="411" dur=".3s" fill="freeze" />
	</rect>
	<rect x="65" y="0" width="0" height="4.4">
	<animate begin="line01.end + .6s" attributeName="width" from="0" to="346" dur=".6s" fill="freeze" />
	<animate begin="line01.end + .6s" attributeName="x" from="65" to="65" dur=".8s" fill="freeze" />
	<animate begin="line023.end + 8s" attributeName="width" from="346" to="0" dur=".3s" fill="freeze" />
	<animate begin="line023.end + 8s" attributeName="x" from="65" to="411" dur=".3s" fill="freeze" />
	</rect>
	<rect x="65" y="-12" width="0" height="4.4">
	<animate begin="line01.end + .4s" attributeName="width" from="0" to="346" dur=".7s" fill="freeze" />
	<animate begin="line01.end + .4s" attributeName="x" from="65" to="65" dur=".8s" fill="freeze" />
	<animate begin="line022.end + 8s" attributeName="width" from="346" to="0" dur=".3s" fill="freeze" />
	<animate begin="line022.end + 8s" attributeName="x" from="65" to="411" dur=".3s" fill="freeze" />
	</rect>
	<rect x="65" y="-24" width="0" height="4.4">
	<animate begin="line01.end + .2s" attributeName="width" from="0" to="346" dur=".8s" fill="freeze" />
	<animate begin="line01.end + .2s" attributeName="x" from="65" to="65" dur=".8s" fill="freeze" />
	<animate begin="line021.end + 8s" attributeName="width" from="346" to="0" dur=".3s" fill="freeze" />
	<animate begin="line021.end + 8s" attributeName="x" from="65" to="411" dur=".3s" fill="freeze" />
	</rect>
</g>
<!-- 第一畫 -->
<rect width="0" height="92" fill="#FFF6" opacity="1">
	<animate begin="line0.end - 1.2s" attributeName="width" from="0" to="429" dur=".2s" fill="freeze" id="line01" />
	<animate begin="line0.end - 1.2s" attributeName="x" from="429" to="0" dur=".2s" fill="freeze" />
	<animate begin="line01.end" attributeName="opacity" from="1" to="0" dur=".4s" fill="freeze" />
</rect>
<rect width="0" height="92" fill="url(#alter1)">
	<animate begin="line0.end - 1s" attributeName="width" from="0" to="429" dur=".3s" fill="freeze" />
	<animate begin="line0.end - 1s" attributeName="x" from="429" to="0" dur=".3s" fill="freeze" />
	<animate begin="line01.end + 8s" attributeName="width" from="429" to="0" dur=".3s" fill="freeze" />
</rect>

<!-- 邊框畫線 -->
<path fill="none" stroke="#CEAA6D99" opacity="1" stroke-width="2"
 stroke-dasharray="2902"
 stroke-dashoffset="2902" d="M0.6,0H429v91.9H127.3l181.2,181.3l-195.4,195H429v89.6H0.6v-89.6l188.1-188.1L0.6,90.8V0">
	<animate begin="1s;svgend.end" id="line0" attributeName="stroke-dashoffset" from="2902" to="0" dur="2s" fill="freeze" />
	<animate attributeName="opacity" from="1" to="0" dur="1s" fill="freeze" begin="line021.end" />
	<animate begin="1s;svgend.end" attributeName="opacity" from="1" to="1" dur="0" fill="freeze" />
 </path>

<!-- 亮亮 -->
<path fill="url(#alter3)" d="M0.6,480.4h427.9v4.4H0.6V480.4z M0.6,497h427.9v-4.4H0.6V497z M0.6,509.1h427.9v-4.4H0.6V509.1z M0.6,521.3h427.9v-4.4H0.6V521.3z M0.6,533.5h427.9v-4.4H0.6V533.5z M0.6,545.7h427.9v-4.4H0.6V545.7z M0.6,557.8h427.9v-4.4H0.6V557.8z M0,91.4l188.7,188.7L0.6,468.2v4.4h427.9v-4.4H113.1l135.2-134.8L6.7,91.9h11l236,236l3.2-3.1L23.9,91.9h11l227.4,227.4l3.2-3.1L41.1,91.9h11L271,310.7l3.1-3.1L58.3,91.9h11l210.2,210.2l3.2-3.1L75.5,91.9h11l201.6,201.6l3.2-3.1L92.9,91.9h11l192.9,192.9l3.1-3L110.1,91.9h11l184.3,184.3l3.1-3L127.3,91.9h301.2V0H0V91.4z">
 </path>

 <!-- 白色字ALL -->
<path fill="#FFF" opacity="0" d="M422.2,108.4c-3.8-0.1-1.1,8.8-6.3,8.8c-4.5,0-4.9-9.5,0.4-10.3l0.4,1.1c-4.6,0.3-4.5,8-0.6,8.2
	c4.1,0.2,1.4-8.9,6.2-8.8c4.5,0.2,4.6,8.8,0,9.5l-0.3-1.1C425.6,115.5,425.6,108.5,422.2,108.4z M422,118.8v1h-9.4v-1H422z
	 M425.5,118.8v1h-1.4v-1H425.5z M422,129.4h-8.9c-5.1,0-4.1-6.5-2.3-7.9l0.5,0.5c-1.6,1.7-1.9,6.5,1.7,6.5h1.7
	c-2.3-0.8-3.3-7.4,2.8-7.4c5.6,0,5.7,5.9,3,7.4h1.6L422,129.4L422,129.4z M416.6,128.5h1.8c4.1,0,4.3-6.5-1-6.5
	C412.2,122.1,412.4,128.5,416.6,128.5z M418.6,144.1h-6v-1h6.6c3.4,0,3-4.8-0.7-5h-5.8v-0.9h6.4c3.8,0,3.1-4.9-0.6-4.9h-5.7v-1h9.4
	v1h-1.9c2.8,0.7,2.7,5.5-0.3,5.7C423.1,138.9,423.5,144.1,418.6,144.1L418.6,144.1z M419.2,146.7l0.3-0.9c3.5,0.3,3.9,7.8,0,7.8
	h-4.9c-0.9,0-1.6,0.1-2,0.5v-1c0.4-0.3,1-0.5,1.7-0.5c-2.2-0.9-3.3-7.1,0.5-7.1c4.1,0,2.2,5.4,4,7.1
	C422.5,153.3,422.2,146.8,419.2,146.7z M416.3,152.7h1.9c-2-2.1,0-6.3-3.5-6.3C412.2,146.4,412.7,152.7,416.3,152.7z M411,166v-0.8
	c3.7-4.6,12.4-4.5,16.1,0v0.8C422.8,161.6,415.2,161.4,411,166z M411.6,185.9c1.8-4,4.6-6.4,8.3-7.1c-3.7-0.5-6.5-2.8-8.5-7h0
	l0.8-0.7c2.1,4.5,5.2,6.9,9.2,7.1v-7h0.9v7.1c1.4,0.1,2.9,0.2,4.4,0.1v0.9c-1.9,0-3.4,0-4.4-0.1v7.2h-0.9v-7.2
	c-4.2,0.7-7.1,3.1-8.9,7.3L411.6,185.9z M412.4,196v3.2c0,1.8,2.2,1.5,3.7,1.5v-10.2c-0.6-0.8-1.1-1.7-1.6-2.7l0.7-0.6
	c0.8,1.9,1.8,3.4,3,4.7v-2.7h4.7c0.1,1.9,0.3,3.5,0.5,4.7l-0.7,0.3c-0.1-1.2-0.2-2.6-0.3-4.2h-1.4v3.9h-0.7V190h-1.4v9.6h1.4v-3.9
	h0.7v3.9h1.4v-4.1h0.7v5h-4.9v-7.5c-0.5-0.5-1-1-1.4-1.4v10.1c-3.3-0.1-5.2,0-5.2-2.5v-2.9L412.4,196z M412.5,188.6
	c0.6,0.5,1.5,0.9,2.7,1.4l-0.3,0.8c-1-0.4-1.9-0.9-2.7-1.4L412.5,188.6z M414.9,192.1l0.2,0.8c-1,0.3-1.8,0.5-2.5,0.6l-0.2-0.8
	C413.2,192.6,414,192.4,414.9,192.1z M415,194.8l0.2,0.7l-2.2,0.9l-0.2-0.8L415,194.8z M413.5,199.2l-0.3-0.8c0.8-0.3,1.4-0.6,2-1v0
	l0.3,0.7L413.5,199.2z M426.6,194.5v0.9h-1.5v6.7h-2.6v-0.8h1.8v-12.8h-1.8v-0.8h2.6v6.8L426.6,194.5L426.6,194.5z M412.4,260.5v3.2
	c0,1.8,2.2,1.5,3.7,1.5V255c-0.6-0.8-1.1-1.7-1.6-2.7l0.7-0.6c0.8,1.9,1.8,3.4,3,4.7v-2.7h4.7c0.1,1.9,0.3,3.5,0.5,4.7l-0.7,0.3
	c-0.1-1.2-0.2-2.6-0.3-4.2h-1.4v3.9h-0.7v-3.9h-1.4v9.6h1.4v-3.9h0.7v3.9h1.4v-4.1h0.7v5h-4.9v-7.5c-0.5-0.5-1-1-1.4-1.4v10.1
	c-3.3-0.1-5.2,0-5.2-2.5v-2.9L412.4,260.5z M412.5,253c0.6,0.5,1.5,0.9,2.7,1.4l-0.3,0.8c-1-0.4-1.9-0.9-2.7-1.4L412.5,253z
	 M414.9,256.5l0.2,0.8c-1,0.3-1.8,0.5-2.5,0.6l-0.2-0.8C413.2,257,414,256.8,414.9,256.5z M415,259.2l0.2,0.7l-2.2,0.9l-0.2-0.8
	L415,259.2z M413.5,263.6l-0.3-0.8c0.8-0.3,1.4-0.6,2-1v0l0.3,0.7L413.5,263.6z M426.6,258.9v0.9h-1.5v6.7h-2.6v-0.8h1.8v-12.8h-1.8
	v-0.8h2.6v6.8L426.6,258.9L426.6,258.9z M424.7,206.7v8.4h-1.2v-6.5l-4.7,4.8l-4.5-5v6.8h-1.2v-8.8h1.2l4.5,5l4.7-4.8L424.7,206.7
	L424.7,206.7z M421.3,227.9h-1.4c-1.5,0-2.6-0.5-3.4-1.6l0.4-0.4c0.8,0.9,1.7,1.4,2.7,1.4v-0.9h1.7V227.9z M426.5,242.9v1h-13.1
	c-1.2,0-1.9-0.6-1.9-2v-2.2l1-0.3v2.1c0,1.1,0.3,1.4,1.2,1.4L426.5,242.9z M422.7,240c-2.8-1-5.5-2.2-8-3.6l0.5-1
	c2.2,1.4,4.8,2.6,7.8,3.6L422.7,240z M422.9,247.1c-1.5,0.8-4,2.1-7.5,3.9l-0.5-1c2.6-1.2,5.1-2.4,7.6-3.7L422.9,247.1z
	 M420.9,279.5h-1.2v-2.1c-2.1,1.7-6.6,1.2-6.6-2.7c0-4.7,7.8-4.4,7.8,0V279.5z M419.6,274.7c0-2.9-5.5-2.8-5.4,0.1
	C414.2,277.8,419.6,277.8,419.6,274.7z M421.3,292.3h-1.4c-1.5,0-2.6-0.5-3.4-1.5l0.4-0.5c0.8,1,1.7,1.4,2.7,1.3v-0.9h1.7V292.3z
	 M417.1,301.8h-0.9v-0.9h7v13.5h-7v-0.9h0.9V301.8z M411.2,308.1v-0.9h15.6v0.9H411.2z M418,313.5h4.5v-11.8H418V313.5z
	 M426.7,323.5v0.9H424v6.8h-0.9v-3c-3.2-0.7-5.7-1.9-7.5-3.9c-1.3,1.7-2.3,4-3,6.9c-0.1-0.1-0.4-0.2-0.7-0.4c-0.1,0-0.2-0.1-0.3-0.1
	c1.1-3.4,2.2-5.7,3.3-7.1c-1-1.2-2.2-3.5-3.4-7c0.3-0.2,0.7-0.4,0.9-0.6c0.9,3,1.9,5.3,3.1,6.9c2.1-2,4.6-3.3,7.6-3.9v-3h0.9v7.4
	L426.7,323.5L426.7,323.5z M416.1,323.7c1.8,2,4.1,3.2,7,3.6v-7.3C420.3,320.6,418,321.8,416.1,323.7z M418.9,334.1v11.4h-7.5v-0.9
	h1V335h-1v-0.9L418.9,334.1L418.9,334.1z M415.2,335h-2.1v9.5h2.1V335z M418.2,335h-2.3v9.5h2.3V335z M423.7,343l-0.5,0.8l-1.7-1.3
	v5h-0.8v-15.4h0.8l0,9.4L423.7,343z M421.5,337.3l1.7-1.4l0.5,0.7L422,338L421.5,337.3z M426.7,339.4v0.9h-1.8v6.5h-0.8v-13.8h0.8
	v6.5L426.7,339.4L426.7,339.4z M411.2,359.1v-0.8h4.6v-3.7h0.7v4.8c0.7,0.6,1.4,1.1,2,1.5l-0.4,0.7c-0.5-0.4-1-0.8-1.6-1.2v2.6h-0.7
	v-3.8H411.2z M414.1,363.8h-0.7v-10h0.7V363.8z M416.9,357.8l-0.4-0.8l1.5-1.2v0l0.5,0.6L416.9,357.8z M416.9,348.9v4h-5.3v-0.8h0.9
	v-2.5h-0.9v-0.8H416.9z M416.1,349.6h-2.9v2.4h2.9V349.6z M419.2,348.7v4.1h-0.7v-4.1H419.2z M420.7,354.9h0.6v7.7h-0.6V354.9z
	 M419.2,359.1v4.6h-0.7v-9.9h0.7v4.5h3.2v0.8H419.2z M421.5,348.7v4.1h-0.7v-4.1H421.5z M426,354.2v9h-3.1v-9H426z M423.8,348.2v5.4
	h-0.8v-5.4H423.8z M425.3,355.1h-1.9v1.9h1.9V355.1z M425.3,357.8h-1.9v1.9h1.9V357.8z M425.3,362.4v-1.9h-1.9v1.9H425.3z
	 M425.2,352.5v-3.3h0.8v3.3H425.2z M415.6,372.8v-1.5h1.7v1.5H415.6z M420.6,372.8v-1.5h1.7v1.5H420.6z M421.4,382.4h-8.3v11.8h8.3
	V382.4z M415.3,383.8l0.6-0.7c2.5,3.6,5.3,2.8,9,2.8v-5.4h0.8v15.4h-0.8v-5.4l-7.1,0c-1,0-0.9,0.8-0.8,3.1l-0.9-0.2
	c0-2.8,0-3.8,1.6-3.8h7.2v-2.8C419,386.8,417.9,387,415.3,383.8z M422.2,395.1h-10.9v-0.9h1v-11.8h-1v-0.9h10.9V395.1z M415.7,396.8
	l0.9-0.5c2.6,1.6,6.1,2.7,7.7,3C422.7,399.5,418.3,398.4,415.7,396.8z M426.7,398.9v0.8l-15.4,0v-0.8L426.7,398.9z M422.7,396.7h0.8
	v5h-0.8V396.7z M419.3,402.1l-0.5-0.6l1.8-1.7l0.5,0.6L419.3,402.1z M417.1,403.1v7.8h-5.8V410h0.9V404h-0.9v-0.9H417.1z M416.3,404
	H413v6.1h3.4V404z M417.6,411.7c0.6-1.9,1.3-3.4,2.1-4.7c-0.9-1.3-1.7-3-2.4-5.1l0.8-0.5c0.6,2.1,1.4,3.7,2.1,4.9
	c0.8-0.8,1.7-1.5,2.8-2.2c-0.7-0.5-1.4-1-2.1-1.7l0.7-0.6c1.5,1.4,3.1,2.5,5,3.4l-0.3,0.8c-0.5-0.3-1-0.5-1.5-0.8v5.7h-0.8
	c-1.5-0.8-2.8-1.9-3.9-3.2c-0.8,1.2-1.4,2.6-1.8,4.3L417.6,411.7z M424,404.7c-1.2,0.6-2.3,1.5-3.1,2.4c0.8,1.1,1.9,2.1,3.4,3l0,0
	v-5.3L424,404.7z M412.6,421.4c-0.3,5-0.2,5.1,4.8,5.2v-11.2h-0.7v-0.9h9.2v12.3l0,0h-0.8v-5.4h-7v6.1c-5.7-0.2-6.8,0.5-6.6-5.9
	L412.6,421.4z M412.7,413c1,0.5,2.1,0.9,3.4,1.4l-0.3,0.8c-1-0.3-2.2-0.8-3.5-1.4L412.7,413z M413.2,418.4l-0.1-0.9v0l2.7-0.8
	l0.2,0.8L413.2,418.4z M416,419.7l0.3,0.8l-2.5,1.2l-0.4-0.8v0L416,419.7z M414.2,424.8l-0.4-0.8l2.4-1.3l0.3,0.7L414.2,424.8z
	 M425.1,420.5v-5.1h-1.9v11h-0.8l0-11h-1.8l0,11h-0.8l0-11h-1.8v5.1H425.1z M427.1,433.1v0.8c-3.7,4.6-12.4,4.6-16.1,0v-0.8
	C415.2,437.7,422.8,437.5,427.1,433.1z M398.7,106.7v9.7h-1.3v-7.5l-5.3,5.5l-5.2-5.7v7.8h-1.3v-10.1h1.3l5.2,5.7l5.3-5.5H398.7z
	 M393.2,125.2h-9.7v-1h8.5c-1.1-0.9-1.9-1.8-2.4-2.4l0.8-0.7c2.5,2.9,5.4,5.3,10.7,7.1v0l-0.1,1C398,128.2,395.1,126.8,393.2,125.2z
	 M397.5,121.9h1v17h-1V121.9z M385.7,132.9v6h-0.8v-12.8h0.8v5.8h10.4v0v1H385.7z M392.4,137.9h-0.9v-10.8h0.9V137.9z M383.3,149.8
	l0.8-0.7c2.9,3.5,5.1,6,12.6,6.4v-3.1l-1-0.4c-5.6,0.7-8.5,2.1-11.2,5.8l-0.8-0.7c2.6-3.2,5.6-5.3,10.6-5.8l-1.8-1l0.7-0.7
	c2.1,1.3,4.8,2.4,8,3.1l0,0l-0.1,1c-1.2-0.3-2.4-0.6-3.5-1v4.9h-0.8v-1.1C390.1,155.8,386.7,154.2,383.3,149.8z M383.3,139.9l1-0.4
	c0.4,3,1.5,6.5,3.7,7.6l0-7.3h0.7h0v10.1H388v-1.6C385.1,146.8,384.1,143,383.3,139.9z M384.8,149l-0.8-0.6l2.2-6.4l-0.6-0.5
	l0.4-0.8l4,3l-0.4,0.9l-2.8-2.1v0L384.8,149z M393,149.2h-3v-8.6h3V149.2z M394.4,140.6h5.1v0v8.6h-5.1V140.6z M396.6,139.7h0.7
	v10.6h-0.7V139.7z M390.8,145.4v2.9h1.5v-6.7h-1.5v2.9l10.2,0v0.9H390.8z M395.1,148.2l3.6,0v-6.7h-3.6V148.2z M385.3,167.7
	c-2.2,0-1.5-2.8-1.7-4.7l1-0.2c0.1,1.8-0.6,4,0.8,4l3.2,0l1.7,3.6v-8.6h0.9v10h-1l-2-4.1H385.3z M387,158h0.9l0,17.9H387L387,158z
	 M399.5,160.8h-1.3v3h-0.7v-3h-1.6v3.1h-0.7v-3.1h-1.5v12.4h1.5v-3h0.7v3h1.6v-2.9h0.7v2.9h1.5v-3.1h0.7v4h-6.7v1.4h-3.2v-1h2.3
	v-15.1h-2.3v-0.9h3.2v1.3h6.4c0.1,1,0.3,2.2,0.7,3.5l-0.7,0.4L399.5,160.8z M397.1,164.9L397.1,164.9l0.5,0.4l-2.7,4.1l-0.6-0.5
	L397.1,164.9z M394.8,164.3c0.7,1.5,1.9,3.3,2.9,4.1l-0.5,0.6c-0.7-0.9-1.9-2.4-3-4.2L394.8,164.3z M398.3,169.5l-0.6-0.5l2.8-4.4
	l0.5,0.4L398.3,169.5z M397.7,164.9l0.6-0.5c0.7,1.3,2,3.6,2.9,4.4l-0.5,0.4C400,168.6,398.6,166.5,397.7,164.9z M389.4,176.5
	c1.6,1.8,3.6,3.4,6.1,4.6l-0.4,0.9c-1-0.5-1.9-1-2.7-1.6h-9v-1h7.6c-0.9-0.7-1.7-1.5-2.5-2.4l0,0L389.4,176.5z M384.7,186.5
	c0,0.8-0.5,3.7,1,3.7h9.3l0,0v1h-9.4c-2.3,0-1.9-2.3-2-4.4L384.7,186.5z M391.9,182h0.9l0,12.3h-0.9L391.9,182z M390.1,183.3
	l0.6,0.8l-3,2.4l-0.6-0.8L390.1,183.3z M395.4,184.9c1.7,1.4,3.6,2.5,5.8,3.2l-0.1,1l-1.8-0.7v5.8h-0.9v-6.2c-1-0.6-2.2-1.4-3.6-2.4
	L395.4,184.9z M399.2,180.3v5.5h-0.9v-5.9c-1.1-0.7-2.3-1.6-3.5-2.6l0.7-0.7c1.5,1.5,3.4,2.7,5.6,3.6l0,0l-0.1,1L399.2,180.3z
	 M396.1,183.6l-0.6-0.7l1.9-1.7l0.6,0.7L396.1,183.6z M397.3,189.3l0.7,0.7l-1.8,1.9l0,0l-0.7-0.7L397.3,189.3z M394.9,211.4
	l1.4,0.4v-7.9h-4.4c-3.4,0-5.3,0-8.3-1.9l0.7-0.9c2.6,2,4.4,1.8,7.6,1.8h5.3v3.9h3.8h0v1h-1.5v4.8h-0.8v-4.8h-1.5v5.2l-2.4-0.5
	L394.9,211.4z M384.4,203.5c1,2.8,3.1,2.6,5.5,2.5v1c-2.7,0.1-4.9,0.3-6.3-2.8L384.4,203.5z M385,196c-0.4,4,0.2,3.8,3.9,4v-2.7
	l-0.7-0.1v-1l3.9,0.5v-1.6h0.9h0v6.7h-0.9v-4.1l-2.5-0.3v3.6c-4.4-0.3-6,0.6-5.7-4.7L385,196z M389.9,209.8h-4.2
	c-0.6,0-0.6,0.1-0.6,1c0,1.1,0.5,1.2,2.2,1.4l-0.3,0.9c-2-0.2-2.9-0.5-2.9-2.1c0-1.4,0-2.1,1.6-2.1h4.2L389.9,209.8z M392.9,207.6
	c-0.7-0.1-1,0.3-1,1.1v1.2c0,1.3,0.7,1.1,2,1.4l-0.3,0.9c-1.3-0.2-2.5-0.5-2.5-2.2v-1.5c0-1.2,0.6-1.8,1.7-1.8l2.8,0v0.9H392.9z
	 M393.5,204.7l0.8-0.1l0.4,6h-0.8L393.5,204.7z M400.1,196.2v5h-4.8v-5H400.1z M399.2,197.1h-3.2v3h3.2V197.1z M389.4,398
	c1.6,1.8,3.6,3.4,6.1,4.6l-0.4,0.9c-1-0.5-1.9-1-2.7-1.6h-9v-1h7.6c-0.9-0.7-1.7-1.5-2.5-2.4l0,0L389.4,398z M384.7,408
	c0,0.8-0.5,3.7,1,3.7h9.3l0,0v1h-9.4c-2.3,0-1.9-2.3-2-4.4L384.7,408z M391.9,403.6h0.9l0,12.3h-0.9L391.9,403.6z M390.1,404.8
	l0.6,0.8l-3,2.4l-0.6-0.8L390.1,404.8z M399.2,410v5.8h-0.9v-6.2c-1-0.6-2.2-1.4-3.6-2.4c0.3-0.3,0.6-0.6,0.7-0.8
	c1.7,1.4,3.6,2.5,5.8,3.2l-0.1,1L399.2,410z M399.2,401.9v5.5h-0.9v-5.9c-1.1-0.7-2.3-1.6-3.5-2.6l0.7-0.7c1.5,1.5,3.4,2.7,5.6,3.6
	l0,0l-0.1,1L399.2,401.9z M396.1,405.1l-0.6-0.7l1.9-1.7l0.6,0.7L396.1,405.1z M397.3,410.8l0.7,0.7l-1.8,1.9l0,0l-0.7-0.7
	L397.3,410.8z M394.9,432.9l1.4,0.4v-7.9h-4.4c-3.4,0-5.3,0-8.3-1.9l0.7-0.9c2.6,2,4.4,1.9,7.6,1.9h5.3v3.9h3.8h0v1h-1.5v4.8h-0.8
	v-4.8h-1.5v5.2l-2.4-0.5L394.9,432.9z M384.4,425c1,2.8,3.1,2.6,5.5,2.5v1c-2.7,0.1-4.9,0.3-6.3-2.8L384.4,425z M385,417.5
	c-0.4,4,0.2,3.8,3.9,4v-2.7l-0.7-0.1v-1l3.9,0.5v-1.6h0.9h0v6.7h-0.9v-4.1l-2.5-0.3v3.6c-4.4-0.3-6,0.6-5.7-4.7L385,417.5z
	 M389.9,431.3h-4.2c-0.6,0-0.6,0.1-0.6,1c0,1.1,0.5,1.2,2.2,1.4l-0.3,0.9c-2-0.2-2.9-0.5-2.9-2.1c0-1.4,0-2.1,1.6-2.1h4.2
	L389.9,431.3z M392.9,429.2c-0.7-0.1-1,0.3-1,1.1v1.2c0,1.3,0.7,1.1,2,1.4l-0.3,0.9c-1.3-0.2-2.5-0.5-2.5-2.2V430
	c0-1.2,0.6-1.8,1.7-1.8l2.8,0v0.9H392.9z M393.5,426.2l0.8-0.1l0.4,6h-0.8L393.5,426.2z M400.1,417.7v5h-4.8v-5H400.1z M399.2,418.7
	h-3.2v3h3.2V418.7z M398,217.1v3.8h-14.2v-1h1.5v-4.7h-1.6v-1H398v1.9l3,0.9l-0.2,1L398,217.1z M398.1,224.5v6.1l-11.3-0.4
	c-3.3-0.1-3-2.6-3-6.1l1-0.3c0.1,3-0.9,5.6,2.8,5.5l9.5,0.2v-5.5c-1.4-0.6-2.5-1.2-3.1-1.6v0l0.5-0.9c1.8,1.1,4,2,6.5,2.8l-0.2,1
	L398.1,224.5z M386.1,215.1v4.7h5.1v-4.7H386.1z M393.1,223.3l0.6,0.7l-3.9,3l-0.6-0.8L393.1,223.3z M397.1,215.1h-5v4.7h5V215.1z
	 M398,346.4v3.8h-14.2v-1h1.5v-4.7h-1.6v-1H398v1.9l3,0.9l-0.2,1L398,346.4z M386.8,359.5c-3.3-0.1-3-2.6-3-6.1l1-0.3
	c0.1,3-0.9,5.6,2.8,5.5l9.5,0.2v-5.5c-1.4-0.6-2.5-1.2-3.1-1.5v0l0.5-0.9c1.8,1.1,4,2,6.5,2.8l-0.2,1c-0.9-0.3-1.8-0.6-2.7-1v6.1
	L386.8,359.5z M386.1,344.4v4.7h5.1v-4.7H386.1z M393.1,352.6l0.6,0.7l-3.9,3l-0.6-0.8L393.1,352.6z M397.1,344.4h-5v4.7h5V344.4z
	 M383.9,249.3c0.1-8.4-0.7-10.8,3.5-13.9c-1.5-0.6-2.8-1.5-4.1-2.8l0.8-0.7c1.8,2.1,4.3,3.2,7.7,3.5l-0.1,1.1
	c-1.2-0.2-2.2-0.4-3.2-0.7c-2.1,1.4-3.3,3-3.5,5h8.5v-8.5h0.9v17.2h-0.9v-7.6h-3.5v6.4h-1v-6.4H385c-0.1,2.5-0.1,5.2,0,7.9
	L383.9,249.3z M401.1,240.7v1h-2.2v7.2h-3.2v-1h2.2v-14h-2.1v-1h3.1v7.8L401.1,240.7L401.1,240.7z M388.7,265.4l-0.6,0.6
	c-2.4-2.4-3.8-5.8-4.4-7.7l0.8-0.5C385.4,260.4,386.7,263.3,388.7,265.4z M389.2,250.4h0.8l0,17.7h-0.8L389.2,250.4z M387.1,268.1
	c-7.3-0.7-2.4-8,5.9-7.5h0v1c-8.2-0.2-10.8,5.4-5.5,5.5L387.1,268.1z M391.5,256h-5.7c-2.3,0-2-2.4-2-3.9l1-0.2
	c0,1.3-0.5,3.2,1.2,3.2l5.5,0c0-1.1-0.1-2.2-0.1-3.4l0.8-0.2c0,2.8,0.1,5.2,0.3,7.3l-0.8,0.2L391.5,256z M387.1,259.5l-0.8-8.9
	l0.8-0.1l0.7,9L387.1,259.5z M392.3,263.5L392.3,263.5l0.6,0.7l-1.7,2.1l-0.7-0.7L392.3,263.5z M398.9,267.8h-0.8v-8.1h-1.5v7h-0.8
	v-7h-1.5v8.4h-0.9v-17.8h0.9v8.4h1.5v-6.9h0.8l0,0v6.9h1.5v-7.9h0.8L398.9,267.8z M401.2,263.5l-0.7,0.6l-1.8-2.7l0.8-0.6
	L401.2,263.5z M399.4,257.5l-0.8-0.6l1.9-2.5l0.7,0.6L399.4,257.5z M383.4,276.8l0.7-0.8c3.3,3.3,6.4,4.2,17,4.1v1
	C389.2,281.3,386.2,279.4,383.4,276.8z M394.9,278h0.9v8.2h-0.9V278z M384.7,270.7c0,0.7-0.5,2.4,0.9,2.4h5.3v-3h4.8v6.9h-4.8v-3
	h-5.3c-2.3,0-1.8-1.8-1.8-3.2L384.7,270.7z M388.1,286.8c-2.9-0.3-4.3-0.3-4.3-2.4c0-1.3,0.2-2.5,1.7-2.5h8.4l0,0v1h-8.1
	c-1,0-1.1,0.6-1.1,1.4c0,1.5,1.7,1.3,3.6,1.5L388.1,286.8z M385.6,269.8l0.4-0.9l3.6,1.9l-0.4,0.9L385.6,269.8z M387.6,277.3
	l-0.5-0.7l2.3-1.6l0.4,0.7L387.6,277.3z M394.8,271.1h-3.1v5h3.1V271.1z M397.9,285.5l-0.7-0.7l2-2.5h0l0.7,0.7L397.9,285.5z
	 M401,273.1v1h-2.4v4h-0.9V269h0.9v4.1L401,273.1L401,273.1z M384.1,304.9c0.1-10.2-0.2-11.4,3.3-13.8c-1.5-0.5-2.8-1.6-4-3.2
	l0.7-0.7c1.4,2.1,3.4,3.3,6.1,3.7l-0.2,1l-1.6-0.4c-1.9,1-3,2.5-3.2,4.6h5.6v-8.5h0.9V305h-0.9V297h-2.4v6.7h-0.8V297h-2.5
	c0,2.1-0.1,4.5-0.1,8.1L384.1,304.9z M400.2,290.2v12.1h-6.5v-12.1H400.2z M396.6,291.1h-2v10.1h2V291.1z M399.4,291.1h-2v10.1h2
	V291.1z M395.7,309.8c-5.6,0-9.7-1.2-12.2-3.3l0.6-1c2.5,2.1,6.1,3.2,11.7,3.2h5.2h0v1H395.7z M386.5,313.7
	c-2.9-0.2-2.7-1.8-2.7-4.3l1.1-0.2c0,1.8-0.5,3.4,1.6,3.5l10.1,0.2l0-6.9h1l0,7.9L386.5,313.7z M398.6,316.3v6.6h-14.7v-1h1.8v-4.5
	h-1.8v-1L398.6,316.3L398.6,316.3z M397.6,317.4h-11v4.5h11V317.4z M395.9,325.8l-1.5,1.7l3.3,2l-0.4,0.9l-6.7-4.2l0.2,3l2-0.9
	l0.3,0.7l-3.5,1.7l-0.4-0.9l0.7-0.3l-0.1-1.8h-6.5v-1h6.4l-0.2-2l1-0.4v0.8l3.1,1.8l2.7-3.2l0.7,0.6l-0.6,0.7l4.4,2.4l-0.4,0.9
	L395.9,325.8z M387,339.5c-1.9-0.5-3.2-0.4-3.2-2.7V335c0-1.3,0.6-1.9,1.8-1.9h3.6v0v1h-3.6c-0.6,0-0.9,0.4-0.9,1.2v1.5
	c0,1.7,1,1.6,2.7,1.8L387,339.5z M384.2,325.1l0.2-0.9l3.9,0.8l-0.1,0.9L384.2,325.1z M384.6,331.2l0.3-0.9l3.6,1.4l-0.2,0.8
	L384.6,331.2z M388.2,339.7l0.4,0.8l-3.2,1.6l-0.4-0.9L388.2,339.7z M386.3,330.3l-0.3-0.8l2.4-0.8l0.3,0.7L386.3,330.3z
	 M389.2,335.2l0.4,0.7l-2.1,1.6l-0.6-0.7L389.2,335.2z M401.2,334.9l-0.2,1l-1.7-0.6v5.9H390v-9.9h9.2h0v3L401.2,334.9z
	 M398.3,332.1h-7.5v8.1h7.5V332.1z M396.8,335.6v3.6H396c-1.9-1-3.5-3.1-4.6-5.7l0.7-0.5c0.5,1.6,1.5,3.8,3.8,5.3v-3.2
	c-0.8-0.7-1.4-1.3-1.8-1.7l0.5-0.6c0.9,1,2,1.9,3.2,2.7l-0.3,0.7L396.8,335.6z M394.6,334.4l0.6,0.5l-2.7,4.2l-0.7-0.5L394.6,334.4z
	 M383.7,361.7l0.8-0.6l2.4,2.5h4.9v-2.3h0.9v3.2h-5.8c-2.3,2.3-2.2,3.3-1.9,14.6l-1-0.4c0.1-8.9-0.7-12.3,2.2-14.7L383.7,361.7z
	 M387.2,366h0.8v12.4h-0.8V366z M389.6,367.2h5.6v9.9h-5.6 M385.6,372.7v-1h13.2v1H385.6z M396.8,368h0.7v8.4h-0.7 M390.5,376.2h1.6
	v-8.1h-1.6V376.2z M392.8,376.2h1.6v-8.1h-1.6V376.2z M396.7,361.2l0.7,0.6l-2.4,3.2l-0.8-0.7v0L396.7,361.2z M400.2,366.3v11.8
	h-2.8v-1h2v-9.9h-2v-0.9H400.2z M400.2,361.7l0.7,0.7l-2.3,3.2l-0.8-0.7h0L400.2,361.7z M383.6,392.8v-1l4.8,0l0,0v1H383.6z
	 M386.4,379.7h0.8l0,17.8h-0.8 M384.2,380.8c1,3.1,1.4,4,4.2,4v1c-3.1,0-4.1-1-5.1-4.3L384.2,380.8z M396.4,381.9v13.3H389v-13.3
	H396.4z M391.2,382.8h-1.5v11.4h1.5V382.8z M393.4,382.8h-1.5v11.4h1.5V382.8z M395.5,382.8h-1.4v11.4h1.4V382.8z M399.5,383.3v5.4
	h-0.8v-5.9c-1-0.6-1.9-1.5-2.8-2.5c0.3-0.2,0.5-0.4,0.7-0.7c1.2,1.6,2.7,2.8,4.5,3.7l-0.2,0.9L399.5,383.3z M397.1,386.3l-0.5-0.7
	l1.5-1.4l0.5,0.7L397.1,386.3z M397.1,394l-0.5-0.7l1.6-1.3l0.5,0.7L397.1,394z M399.5,391.1v6.1h-0.8v-6.6c-0.7-0.4-1.4-1-2.1-1.6
	l0.6-0.8c1.1,1.1,2.4,2,3.9,2.6l-0.1,1L399.5,391.1z M14.9,594.5c0.1,8.4-12.1,7.5-14.7,3.2l1.9-1.5c1.6,3,10.6,3.8,10.5-1.7
	c0-6-12.5-3.1-11.7-11.3c1.1-7.4,10.5-6.8,13.8-3l-1.8,1.6c-1.6-2.4-9.3-3-9.6,1.6C2.3,589.3,14.9,586.2,14.9,594.5z M27.8,600.8
	h-2.3v-23h2.3V600.8z M57.2,583.4c-3.8-6.2-16-4.4-16,6c0,11.8,16.3,12.6,17.5,2.3h-7.3v-2.3h9.5v3.6c-4.2,12.8-22,9.8-22-4
	c0-11.5,14.3-15.2,19.9-7.2L57.2,583.4L57.2,583.4z M94.7,600.8h-2.3l-2.8-17.5l-6.5,15.4h-2.2l-6-15.2l-2.8,17.3h-2.3l3.7-23H75
	l7,17.7l7.5-17.7H91L94.7,600.8z M122,600.8l-2.5-5.6h-12.4l-2.5,5.6h-2.5l10.3-23h1.7l10.3,23H122z M108.1,593h10.4l-5.2-11.5
	L108.1,593z M141.6,587.6h-10.2V586h10.2V587.6z M141.6,592.1h-10.2v-1.6h10.2V592.1z M147.1,582.5h9.5v1.4h-7.2l5.7,5.3l-5.8,5h7.5
	v1.4H147v-1.5l5.6-5l-5.5-5L147.1,582.5z M167.9,599.2h-1.8c-4.8-4.8-4.6-14.5,0-19.4h1.8C163.3,585.1,163.2,593.9,167.9,599.2z
	 M169,595.5c0.6,0,1.9,0.6,1.9-0.7v-14.5h1.7v15c0,2.1-1.9,2.1-3.5,2.1L169,595.5z M169.2,585.4L169.2,585.4v-1.7h5v1.7 M169,589.5
	l5.3-1.3l0.1,1.9l-5.1,1.4L169,589.5z M186.1,597.3c-5.3-0.1-8.6,0.3-10.1-1.7c-0.4,0.7-1.1,1.5-2,2.2l-1.2-1.3
	c1.6-1,2.4-2.5,2.5-4.4l1.7,0.1c-0.1,0.7-0.2,1.2-0.4,1.7c0.6,1.1,1.4,1.7,2.3,1.7v-15.2h1.8v12.5h4.8v1.4h-4.8v1.5h5.8L186.1,597.3
	z M174.6,583.3v-1.5H186v1.5 M183.5,585.9h-8.3v-1.4h10v6.8h-10V590h8.3V585.9z M174.7,588.7v-1.5h11.9v1.5H174.7z M187.4,585.2
	l1.2-1.3l3,2.5l-1.2,1.4L187.4,585.2z M204.5,597.2c-7.9,0-11.9,0.6-14.1-1.9l-2.2,2.2l-0.8-2l2-1.8V590h-1.9v-1.7h3.7v5.4
	c1.5,2.5,5.3,1.8,13.8,1.8L204.5,597.2z M187.9,581.6l1.2-1.2l3.1,2.4l-1.2,1.4h0L187.9,581.6z M193.8,585v-0.9h-1.3h0v-3h11.8v3
	H203v0.9H193.8z M204.6,592.7v1.3h-12.3v-1.3H204.6z M193.2,591.6v-5.5h10.5v5.5H193.2z M199.3,595.5h-1.8v-13h-3.3v1.2h8.3v-1.2
	h-3.3L199.3,595.5z M201.9,588.3v-1.2H195v1.2H201.9z M201.9,590.5v-1.2H195v1.2H201.9z M206.8,589.9v-1.6h10.1v1.6H206.8z
	 M212.6,594.2H211V584h1.6V594.2z M228.6,585.9 M226,585.8l-1.8,0.4l-1.5-2l1.8-0.4L226,585.8z M232.4,588.3
	c-0.3,1.8-1.3,1.7-2.8,1.7c-1.2,0-1.7-0.2-1.7-1.4v-1.2h-1.5c0,1.6-1,2.7-3.3,3.3l0,0l-0.9-1.2c1.9-0.3,2.8-1,2.8-2h-3.4v10.2h-1.9
	v-11.7h8.9l1.6-2.3l1.9,0.5l-1.2,1.8h4.2v9.2c0,2.8-2.1,2.2-4.8,2.3l-0.4-1.7c2.2,0.1,3.3,0.4,3.3-0.9v-7.3h-3.9v0.8
	c0,0.4,0.1,0.6,0.6,0.6c1,0,1.2,0.2,1.4-0.9L232.4,588.3z M218.7,583.6v-1.5h7.7v-1.7h2v1.7h7.5v1.5 M223.8,595.4v-4.8h7v4.8H223.8z
	 M229.3,594v-2h-3.8v2H229.3z M237.9,597.6V581h16v16.6h-1.8v-0.8h-12.4v0.8H237.9z M247.7,584.6l1.2-1.6l1.4,0.4l-1.3,1.7
	L247.7,584.6z M243.9,584.6l-1.2,0.5l-1.4-1.7l1.4-0.4L243.9,584.6z M239.7,595.6h12.4v-13.1h-12.4V595.6z M240.3,591.7l-0.8-1.4
	c3.9-1.5,5-3.6,5.5-7.4h1.4C245.9,588.1,244,589.9,240.3,591.7z M244.9,591.6c1.6,0,2.3,0.3,2.3-0.9h-3.5v1.8c0,0.7,0.3,1,1,0.9h3.3
	c1.4,0,1.3-0.9,1.5-2l1.4,0.5c-0.2,1.5-0.7,2.7-2.6,2.7h-4.1c-1.4,0-2.1-0.6-2-1.9v-3.3h6.4l0,1.7c0,1.7-2.2,1.4-3.4,1.4
	L244.9,591.6z M251.2,591.4L251.2,591.4c-3.3-1.6-4-3.7-4.6-5.4l-5.8,0v-1.2l10.2,0v1.2h-3c0.2,0.9,1.6,3.3,3.9,3.8L251.2,591.4z
	 M240.3,588.2V587l11.2,0v1.2L240.3,588.2z M256.4,589.9v-1.6h10.1v1.6H256.4z M262.3,594.2h-1.6V584h1.6V594.2z M268.1,594.2
	c2.5-2.4,4-5,4.7-8h-4.1v-1.8h6.1v1.7c-0.8,3.9-2.7,7.1-5.7,9.8L268.1,594.2z M283.4,583.1l1.5,1.4l-4.5,3.8
	c1.3,1.9,3.1,3.7,5.4,5.4l-1.2,1.8h0c-3.2-2.4-5.4-5.2-6.7-8.4v7.4c0,3.3-2.3,2.8-5.2,2.8l-0.4-1.9c2.1,0,3.6,0.4,3.6-1.4v-13.8h2v3
	c0.4,1.2,0.9,2.3,1.5,3.3L283.4,583.1z M290.1,594.3L290.1,594.3v-1.6h14v1.6H290.1z M298.1,597.6h-2v-6.9h-4.7v-1.6h11.4v1.6h-4.7
	V597.6z M288.2,597.6l-1.6-1.2c2.3-2.2,1.8-5.7,1.8-10.4h15.6v1.5h-13.7C290.2,591.1,290.9,594.3,288.2,597.6z M288.6,584.5v-3.6
	h1.9v2h4.3v-2.7h1.9v2.7h4.3v-2h2v3.6H288.6z M306,589.9v-1.6h10.1v1.6H306z M311.9,594.2h-1.6V584h1.6V594.2z M317.6,588.7
	c2.3-1.7,3.9-3.6,4.8-5.8l1.9,0.8c-1.4,2.7-3.1,4.9-5.4,6.7l0,0L317.6,588.7z M334.4,596.5l-1.7,1.2l-1.2-1.6l-12.1,0.8h0l-0.5-1.7
	l1.7-0.1c1.9-2.6,3.5-5.3,4.9-8l2,0.9c-1.4,2.2-2.9,4.5-4.6,6.9l7.4-0.4l-2.5-3.2l1.5-1L334.4,596.5z M334.3,589.8
	c-2.8-1.9-4.8-4.3-6-7.2h-4.5V581h5.9c1.2,3,3.1,5.3,5.8,6.9L334.3,589.8z M337.2,597.6v-16.6h15.9v16.6h-1.8v-0.8H339v0.8H337.2z
	 M339,582.5v13h12.3v-13H339z M348.9,592.7l1.9,0.9l-0.8,1.1c-1.2-0.7-2.6-1.4-4.3-2.2l0.7-1l1.4,0.7l1.8-1.5l1,0.9L348.9,592.7z
	 M345.6,590.8c-1,1.2-3.5,2.6-5.6,3.4l-0.8-1.3c1.8-0.5,3.3-1.2,4.5-2.1h-3v-3.1h8.8v3.1H345.6z M344.9,593.8l2.2-0.3l-0.1,1.1
	l-5.2,0.7l-0.2-1.1l1.7-0.2v-2l1.6-1V593.8z M345.9,585.8h4.6v1.1h-10.8v-1.1h4.6v-3.2h1.7V585.8z M340.5,584.8v-1.1h9.2v1.1H340.5z
	 M342.4,588.7v1.1h5.5v-1.1H342.4z M386.8,597.6v-16.6h15.9v16.6h-1.8v-0.8h-12.3v0.8H386.8z M388.6,582.5v13h12.3v-13H388.6z
	 M398.5,592.7l1.9,0.9l-0.8,1.1c-1.2-0.7-2.6-1.4-4.3-2.2l0.7-1l1.4,0.7l1.8-1.5l1,0.9L398.5,592.7z M395.2,590.8
	c-1,1.2-3.5,2.6-5.6,3.4l-0.8-1.3c1.8-0.5,3.3-1.2,4.5-2.1h-3v-3.1h8.8v3.1H395.2z M394.5,593.8l2.2-0.3l-0.1,1.1l-5.2,0.7l-0.2-1.1
	l1.7-0.2v-2l1.6-1V593.8z M395.5,585.8h4.6v1.1h-10.8v-1.1h4.6v-3.2h1.7V585.8z M390.1,584.8v-1.1h9.2v1.1H390.1z M392,588.7v1.1
	h5.5v-1.1H392z M355.6,589.9v-1.6h10.1v1.6H355.6z M361.5,594.2h-1.6V584h1.6V594.2z M367.6,585.5L367.6,585.5v-1.7h5.6v1.7
	L367.6,585.5z M371.5,597.6h-1.8v-17.3h1.8V597.6z M367.3,591c1-1.5,2-3.7,2.5-5.9c0.5,1.1,3.2,3.3,4,4l-1,1.4l-2.5-2.8
	c-0.4,2-1.8,4.9-2.3,5.7L367.3,591z M373.8,597.6l-1.1-1.7c3.2-0.9,6.8-2.6,8.2-7.2l1.7,0.6C381,594.2,377.6,596.2,373.8,597.6z
	 M383.9,597.4c-4.7-1.9-6.8-3.8-8.5-8l1.6-0.7c1.8,4.2,4,5.8,8.1,6.9L383.9,597.4z M373.3,588.5c1.3-1,2.5-2.2,3.7-3.5l1.3,1.2
	c-1.4,1.5-2.7,2.7-3.9,3.7L373.3,588.5z M374,584.5v-1.7h4.4v-2.5h1.8v2.5h4.5v1.7H374L374,584.5z M379.9,586.1l1.2-1.2l3.8,3.3
	l-1.1,1.4v0L379.9,586.1z M408.5,593.7v2.6h-2.7v-2.6H408.5z M414.7,593.7v2.6H412v-2.6H414.7z M420.9,593.7v2.6h-2.7v-2.6H420.9z
	 M423.4,579.8h1.8c4.6,4.9,4.8,14.7,0,19.4h-1.8C428,593.8,427.9,585.3,423.4,579.8z
	">
	<animate begin="5.3s" attributeName="opacity" from="0" to="1" dur=".6s" fill="freeze" />
	</path>
</svg>
