<svg width="1314" height="144" viewBox="0 0 1314 144" fill="none" xmlns="http://www.w3.org/2000/svg">
<path d="M4.368 77.2V79.432H20.016V77.2H4.368ZM4.992 73.336V75.712H21.096V73.336H4.992ZM1.416 81.064V83.536H22.656V81.064H1.416ZM10.584 71.872V82.792H13.584V71.872H10.584ZM6.552 67.96H17.208V69.232H6.552V67.96ZM6.552 64.648H17.208V65.92H6.552V64.648ZM3.744 62.464V71.44H20.208V62.464H3.744ZM4.968 71.2C4.104 73.144 2.52 75.088 0.864 76.336C1.536 76.744 2.712 77.608 3.264 78.136C4.92 76.672 6.72 74.344 7.8 72.016L4.968 71.2ZM28.392 71.008V73.816H43.152V71.008H28.392ZM34.272 64.456V72.4H37.152V64.456H34.272ZM28.464 62.992V65.824H41.736V75.04H44.736V62.992H28.464ZM26.76 62.992V78.712C26.76 82.792 28.152 83.776 32.808 83.776C33.96 83.776 40.008 83.776 41.256 83.776C45.408 83.776 46.584 82.432 47.112 78.424C46.248 78.256 44.928 77.728 44.184 77.296C43.8 80.344 43.368 80.92 40.992 80.92C39.72 80.92 34.032 80.92 32.76 80.92C30.096 80.92 29.76 80.632 29.76 78.736V62.992H26.76ZM54.864 70.72H65.136V73.336H54.864V70.72ZM52.08 68.2V75.88H68.112V68.2H52.08ZM49.56 63.664V66.28H70.512V63.664H49.56ZM58.44 61.6V69.688H61.368V61.6H58.44ZM61.152 74.416V80.32C61.152 83.008 61.848 83.896 64.68 83.896C65.232 83.896 67.176 83.896 67.752 83.896C70.128 83.896 70.896 82.888 71.208 79.048C70.416 78.832 69.144 78.376 68.544 77.896C68.448 80.752 68.304 81.16 67.488 81.16C67.008 81.16 65.472 81.16 65.088 81.16C64.248 81.16 64.104 81.088 64.104 80.272V74.416H61.152ZM55.344 75.448C54.984 78.544 54.264 80.488 48.648 81.544C49.248 82.168 50.04 83.416 50.304 84.208C56.808 82.672 58.008 79.744 58.44 75.448H55.344Z" fill="white"/>
<path d="M309.341 77.6C308.401 79.26 306.801 80.88 305.281 81.94C305.621 82.2 306.181 82.78 306.421 83.08C307.961 81.84 309.681 79.96 310.781 78.1L309.341 77.6ZM319.281 77.78C316.881 82.6 311.961 85.08 304.541 86.08C304.861 86.46 305.161 87.06 305.321 87.5C312.981 86.34 318.061 83.66 320.701 78.46L319.281 77.78ZM304.701 75.32V76.76H322.241V75.32H304.701ZM313.961 71.34V72.76H320.421V71.34H313.961ZM312.941 69.22V76.1H314.541V69.22H312.941ZM307.701 70.76V76.02H309.221V70.76H307.701ZM312.821 76.38V83.08H314.401V76.38H312.821ZM333.221 70.42V71.86H343.041V70.42H333.221ZM339.061 76.38V85.66C339.061 86 338.941 86.08 338.541 86.1C338.181 86.12 336.841 86.12 335.421 86.08C335.641 86.52 335.841 87.14 335.901 87.56C337.861 87.56 339.001 87.54 339.681 87.32C340.361 87.08 340.581 86.62 340.581 85.68V76.38H339.061ZM332.341 75.94V77.36H343.621V75.94H332.341ZM328.341 77.48V87.66H329.841V76.26L329.661 76.18L328.341 77.48ZM330.661 73.48C329.281 75.78 327.081 78.1 325.001 79.58C325.321 79.86 325.841 80.52 326.061 80.82C328.161 79.14 330.521 76.56 332.081 74.02L330.661 73.48ZM329.841 69.2C328.821 70.64 326.881 72.44 325.221 73.56C325.481 73.86 325.881 74.44 326.101 74.76C327.881 73.48 329.941 71.54 331.281 69.78L329.841 69.2ZM361.074 86.448C365.106 86.448 368.53 83.408 368.53 78.544C368.53 73.456 365.682 71.12 361.714 71.12C360.114 71.12 357.906 72.144 356.658 73.904L356.85 77.104C358.034 75.152 359.538 74.448 360.85 74.448C362.866 74.448 364.21 75.728 364.21 78.544C364.21 81.424 362.77 82.896 361.01 82.896C358.674 82.896 356.882 80.624 356.882 74.48C356.882 67.888 359.154 65.68 362.034 65.68C363.378 65.68 364.85 66.448 365.65 67.376L368.178 64.592C366.738 63.088 364.626 61.904 361.746 61.904C356.946 61.904 352.562 65.68 352.562 74.48C352.562 82.832 356.594 86.448 361.074 86.448ZM380.74 76.78V78.24H392.18V76.78H380.74ZM391.68 76.78V77.06C391.42 83 391.12 85.28 390.58 85.82C390.38 86.04 390.14 86.08 389.74 86.08C389.26 86.08 388.02 86.06 386.7 85.94C386.98 86.38 387.18 87 387.2 87.46C388.46 87.52 389.72 87.54 390.38 87.48C391.08 87.42 391.52 87.28 391.92 86.78C392.64 86.02 392.92 83.7 393.2 77.5C393.22 77.3 393.24 76.78 393.24 76.78H391.68ZM384.96 77.18C384.56 80.96 383.76 84.66 378.52 86.4C378.86 86.72 379.3 87.32 379.48 87.7C385.06 85.7 386.1 81.56 386.56 77.18H384.96ZM382.88 69.86C381.92 73 380.08 75.68 377.7 77.34C378.06 77.6 378.7 78.14 378.96 78.44C381.32 76.58 383.32 73.7 384.44 70.24L382.88 69.86ZM386.02 69.56V70.96H390.4V69.56H386.02ZM388.96 69.56V70.4H389.38C390.48 73.62 392.66 76.7 395.32 78.4C395.58 78 396.08 77.38 396.4 77.06C393.84 75.62 391.68 72.7 390.66 69.56H388.96ZM405.96 85.98V87.12H417.28V85.98H405.96ZM406.54 71.1V72.3H416.88V71.1H406.54ZM406.88 83.44V84.56H416.54V83.44H406.88ZM406 74.46V75.66H417.34V74.46H406ZM408.42 79.94H414.96V81.32H408.42V79.94ZM408.42 77.64H414.96V78.98H408.42V77.64ZM407.12 76.62V82.32H416.32V76.62H407.12ZM413.76 72.26C413.52 73.02 413.02 74.16 412.62 74.88L413.8 75.18C414.22 74.5 414.78 73.5 415.22 72.58L413.76 72.26ZM408.24 72.56C408.56 73.22 408.88 74.1 408.98 74.68L410.3 74.34C410.18 73.8 409.86 72.92 409.5 72.3L408.24 72.56ZM411 77.16V81.64H410.94V86.52H412.36V81.64H412.28V77.16H411ZM410.28 69.5C410.74 70.14 411.12 71.08 411.22 71.68L412.68 71.26C412.54 70.66 412.12 69.76 411.66 69.12L410.28 69.5ZM400.12 74.3V75.6H405.08V74.3H400.12ZM399.1 77.8V79.1H405.64V77.8H399.1ZM399.46 80.42C399.78 81.62 400.1 83.14 400.16 84.16L401.14 83.84C401.06 82.86 400.76 81.34 400.4 80.16L399.46 80.42ZM398.88 85.58L399.2 86.92C400.96 86.5 403.4 85.88 405.7 85.3L405.62 84.08C403.12 84.66 400.54 85.24 398.88 85.58ZM404.42 79.92C404.26 81.02 403.88 82.62 403.56 83.6L404.42 83.94C404.76 83 405.14 81.52 405.5 80.3L404.42 79.92ZM401.94 74.88V85.76L403.1 85.56V74.88H401.94ZM402.44 69.1C401.56 71.06 400.08 72.92 398.62 74.08C398.82 74.46 399.14 75.26 399.22 75.6C400.82 74.16 402.5 71.9 403.52 69.62L402.44 69.1ZM401.96 71.16C403.24 72.08 404.68 73.34 405.52 74.3L406.18 73.08C405.32 72.18 403.88 70.96 402.56 70.08L401.96 71.16Z" fill="white"/>
<path d="M459.664 66.592V69.328H470.8V66.592H459.664ZM463.648 61.6V84.136H466.528V61.6H463.648ZM463.6 67.912C462.616 71.68 460.408 75.76 457.864 78.184C458.392 78.88 459.16 79.984 459.472 80.824C462.208 78.112 464.464 73.168 465.688 68.608L463.6 67.912ZM466.72 67.912L464.8 68.44C465.76 72.76 467.416 77.488 469.384 80.2C469.888 79.456 470.848 78.472 471.544 77.992C469.528 75.688 467.68 71.632 466.72 67.912ZM449.128 66.592V69.328H458.92V66.592H449.128ZM452.968 61.6V84.136H455.776V61.6H452.968ZM452.8 68.392C452.056 71.488 450.352 75.16 448.48 77.296C448.936 78.04 449.632 79.24 449.92 80.08C451.984 77.608 453.736 73 454.624 69.04L452.8 68.392ZM455.728 69.688L454.216 71.128C455.104 72.328 456.88 74.872 457.624 76.312L459.424 73.816C458.896 73.168 456.448 70.336 455.728 69.688ZM474.52 63.976V83.68H477.544V66.904H490.336V83.656H493.504V63.976H474.52ZM475.96 78.76V81.736H492.304V78.76H475.96ZM501.28 67.648V69.664H514.672V67.648H501.28ZM510.928 66.352C511.72 66.808 512.68 67.48 513.16 68.008L514.48 66.64C514 66.112 513.016 65.488 512.2 65.104L510.928 66.352ZM511.912 70.336C510.976 74.008 508.912 76.864 505.912 78.568C506.392 78.952 507.184 79.864 507.472 80.296C510.616 78.28 512.944 75.016 514.144 70.768L511.912 70.336ZM501.016 76.816L501.28 78.904C503.2 78.616 505.552 78.256 507.88 77.896L507.808 75.976C505.288 76.312 502.768 76.624 501.016 76.816ZM503.752 72.232H505.36V73.768H503.752V72.232ZM501.904 70.696V75.28H507.28V70.696H501.904ZM507.712 65.584C508.072 72.496 508.792 78.88 511.792 79.84C513.376 80.56 514.672 79.648 515.032 76.672C514.552 76.432 513.688 75.76 513.256 75.304C513.136 76.72 512.944 77.656 512.68 77.584C511.096 77.2 510.28 71.56 510.112 65.584H507.712ZM497.704 62.656V84.232H500.416V65.248H515.416V84.232H518.272V62.656H497.704ZM499.408 80.656V83.224H516.976V80.656H499.408ZM522.088 65.8V77.968H524.992V68.632H538.912V77.848H541.936V65.8H522.088ZM523.6 73.792V76.624H540.592V73.792H523.6ZM530.416 61.624V84.16H533.464V61.624H530.416Z" fill="white"/>
<path d="M757.341 77.6C756.401 79.26 754.801 80.88 753.281 81.94C753.621 82.2 754.181 82.78 754.421 83.08C755.961 81.84 757.681 79.96 758.781 78.1L757.341 77.6ZM767.281 77.78C764.881 82.6 759.961 85.08 752.541 86.08C752.861 86.46 753.161 87.06 753.321 87.5C760.981 86.34 766.061 83.66 768.701 78.46L767.281 77.78ZM752.701 75.32V76.76H770.241V75.32H752.701ZM761.961 71.34V72.76H768.421V71.34H761.961ZM760.941 69.22V76.1H762.541V69.22H760.941ZM755.701 70.76V76.02H757.221V70.76H755.701ZM760.821 76.38V83.08H762.401V76.38H760.821ZM781.221 70.42V71.86H791.041V70.42H781.221ZM787.061 76.38V85.66C787.061 86 786.941 86.08 786.541 86.1C786.181 86.12 784.841 86.12 783.421 86.08C783.641 86.52 783.841 87.14 783.901 87.56C785.861 87.56 787.001 87.54 787.681 87.32C788.361 87.08 788.581 86.62 788.581 85.68V76.38H787.061ZM780.341 75.94V77.36H791.621V75.94H780.341ZM776.341 77.48V87.66H777.841V76.26L777.661 76.18L776.341 77.48ZM778.661 73.48C777.281 75.78 775.081 78.1 773.001 79.58C773.321 79.86 773.841 80.52 774.061 80.82C776.161 79.14 778.521 76.56 780.081 74.02L778.661 73.48ZM777.841 69.2C776.821 70.64 774.881 72.44 773.221 73.56C773.481 73.86 773.881 74.44 774.101 74.76C775.881 73.48 777.941 71.54 779.281 69.78L777.841 69.2ZM807.154 86.448C811.858 86.448 816.242 82.576 816.242 73.616C816.242 65.424 812.21 61.904 807.698 61.904C803.666 61.904 800.274 64.912 800.274 69.808C800.274 74.832 803.09 77.232 807.058 77.232C808.722 77.232 810.866 76.176 812.146 74.416L811.89 71.216C810.738 73.168 809.266 73.904 807.922 73.904C805.906 73.904 804.562 72.56 804.562 69.808C804.562 66.864 806.002 65.424 807.794 65.424C810.098 65.424 811.922 67.568 811.922 73.616C811.922 80.4 809.65 82.64 806.866 82.64C805.458 82.64 804.018 81.904 803.122 80.912L800.626 83.76C802.066 85.232 804.178 86.448 807.154 86.448ZM828.74 76.78V78.24H840.18V76.78H828.74ZM839.68 76.78V77.06C839.42 83 839.12 85.28 838.58 85.82C838.38 86.04 838.14 86.08 837.74 86.08C837.26 86.08 836.02 86.06 834.7 85.94C834.98 86.38 835.18 87 835.2 87.46C836.46 87.52 837.72 87.54 838.38 87.48C839.08 87.42 839.52 87.28 839.92 86.78C840.64 86.02 840.92 83.7 841.2 77.5C841.22 77.3 841.24 76.78 841.24 76.78H839.68ZM832.96 77.18C832.56 80.96 831.76 84.66 826.52 86.4C826.86 86.72 827.3 87.32 827.48 87.7C833.06 85.7 834.1 81.56 834.56 77.18H832.96ZM830.88 69.86C829.92 73 828.08 75.68 825.7 77.34C826.06 77.6 826.7 78.14 826.96 78.44C829.32 76.58 831.32 73.7 832.44 70.24L830.88 69.86ZM834.02 69.56V70.96H838.4V69.56H834.02ZM836.96 69.56V70.4H837.38C838.48 73.62 840.66 76.7 843.32 78.4C843.58 78 844.08 77.38 844.4 77.06C841.84 75.62 839.68 72.7 838.66 69.56H836.96ZM853.96 85.98V87.12H865.28V85.98H853.96ZM854.54 71.1V72.3H864.88V71.1H854.54ZM854.88 83.44V84.56H864.54V83.44H854.88ZM854 74.46V75.66H865.34V74.46H854ZM856.42 79.94H862.96V81.32H856.42V79.94ZM856.42 77.64H862.96V78.98H856.42V77.64ZM855.12 76.62V82.32H864.32V76.62H855.12ZM861.76 72.26C861.52 73.02 861.02 74.16 860.62 74.88L861.8 75.18C862.22 74.5 862.78 73.5 863.22 72.58L861.76 72.26ZM856.24 72.56C856.56 73.22 856.88 74.1 856.98 74.68L858.3 74.34C858.18 73.8 857.86 72.92 857.5 72.3L856.24 72.56ZM859 77.16V81.64H858.94V86.52H860.36V81.64H860.28V77.16H859ZM858.28 69.5C858.74 70.14 859.12 71.08 859.22 71.68L860.68 71.26C860.54 70.66 860.12 69.76 859.66 69.12L858.28 69.5ZM848.12 74.3V75.6H853.08V74.3H848.12ZM847.1 77.8V79.1H853.64V77.8H847.1ZM847.46 80.42C847.78 81.62 848.1 83.14 848.16 84.16L849.14 83.84C849.06 82.86 848.76 81.34 848.4 80.16L847.46 80.42ZM846.88 85.58L847.2 86.92C848.96 86.5 851.4 85.88 853.7 85.3L853.62 84.08C851.12 84.66 848.54 85.24 846.88 85.58ZM852.42 79.92C852.26 81.02 851.88 82.62 851.56 83.6L852.42 83.94C852.76 83 853.14 81.52 853.5 80.3L852.42 79.92ZM849.94 74.88V85.76L851.1 85.56V74.88H849.94ZM850.44 69.1C849.56 71.06 848.08 72.92 846.62 74.08C846.82 74.46 847.14 75.26 847.22 75.6C848.82 74.16 850.5 71.9 851.52 69.62L850.44 69.1ZM849.96 71.16C851.24 72.08 852.68 73.34 853.52 74.3L854.18 73.08C853.32 72.18 851.88 70.96 850.56 70.08L849.96 71.16Z" fill="white"/>
<path d="M901.28 67.648V69.664H914.672V67.648H901.28ZM910.928 66.352C911.72 66.808 912.68 67.48 913.16 68.008L914.48 66.64C914 66.112 913.016 65.488 912.2 65.104L910.928 66.352ZM911.912 70.336C910.976 74.008 908.912 76.864 905.912 78.568C906.392 78.952 907.184 79.864 907.472 80.296C910.616 78.28 912.944 75.016 914.144 70.768L911.912 70.336ZM901.016 76.816L901.28 78.904C903.2 78.616 905.552 78.256 907.88 77.896L907.808 75.976C905.288 76.312 902.768 76.624 901.016 76.816ZM903.752 72.232H905.36V73.768H903.752V72.232ZM901.904 70.696V75.28H907.28V70.696H901.904ZM907.712 65.584C908.072 72.496 908.792 78.88 911.792 79.84C913.376 80.56 914.672 79.648 915.032 76.672C914.552 76.432 913.688 75.76 913.256 75.304C913.136 76.72 912.944 77.656 912.68 77.584C911.096 77.2 910.28 71.56 910.112 65.584H907.712ZM897.704 62.656V84.232H900.416V65.248H915.416V84.232H918.272V62.656H897.704ZM899.408 80.656V83.224H916.976V80.656H899.408ZM927.488 64.48V66.808H942.872V64.48H927.488ZM933.488 65.536C933.344 66.496 933.032 67.816 932.72 68.824L935.072 69.184C935.576 68.32 936.296 67.048 936.8 65.752L933.488 65.536ZM937.664 61.6C937.28 62.584 936.536 63.928 935.912 64.816L938.168 65.536C938.84 64.744 939.632 63.568 940.448 62.368L937.664 61.6ZM929.552 62.584C930.08 63.376 930.728 64.456 930.992 65.128L933.368 64.096C933.056 63.448 932.36 62.416 931.832 61.672L929.552 62.584ZM932.024 73.168H938.168V74.488H932.024V73.168ZM932.024 76.312H938.168V77.632H932.024V76.312ZM932.024 70.048H938.168V71.344H932.024V70.048ZM929.312 68.008V79.672H941V68.008H929.312ZM921.608 62.944C922.712 64.12 924.104 65.8 924.752 66.832L926.96 65.224C926.24 64.264 924.896 62.752 923.744 61.624L921.608 62.944ZM921.008 67.216V69.52H926.096V67.216H921.008ZM925.88 77.656L923.96 78.424C925.736 83.032 928.712 83.776 934.28 83.776C937.088 83.776 940.16 83.704 942.656 83.56C942.8 82.768 943.184 81.472 943.568 80.896C940.856 81.136 936.896 81.304 934.328 81.304C929.984 81.28 927.176 80.896 925.88 77.656ZM925.304 73.048V73.48C924.704 77.704 923 80.704 920.408 82.264C920.936 82.648 921.872 83.632 922.232 84.184C925.04 82.36 927.008 78.808 927.824 73.504L926.432 73L925.976 73.048H925.304ZM921.464 75.664C921.656 75.448 922.352 75.28 922.928 75.28H926.096L926.12 73.048H922.496L921.464 73.6V75.664ZM921.464 75.664C921.464 75.016 923.384 74.08 923.384 74.08C924.752 72.52 926.84 69.544 927.968 67.888L926.216 67.096L925.472 67.408V67.48C924.656 68.8 922.496 71.872 921.776 72.544C921.32 73.048 920.936 73.216 920.528 73.312C920.792 73.84 921.296 75.064 921.464 75.664ZM944.912 71.08V74.224H967.136V71.08H944.912ZM971.864 64.552H975.032V67.384H971.864V64.552ZM969.824 62.512V69.4H977.192V62.512H969.824ZM968.72 70.72V73.192H977.696V70.72H968.72ZM970.784 71.824C970.496 73.528 970.04 75.616 969.632 77.056H972.104C972.44 75.688 972.872 73.6 973.184 71.824H970.784ZM971.456 74.824L970.952 77.056H975.44V74.824H971.456ZM974.432 74.824V75.184C974.216 79.312 973.976 80.92 973.568 81.328C973.376 81.544 973.16 81.592 972.8 81.592C972.416 81.592 971.6 81.568 970.736 81.496C971.144 82.144 971.384 83.128 971.408 83.848C972.44 83.896 973.424 83.872 973.976 83.8C974.696 83.704 975.152 83.512 975.608 82.984C976.256 82.264 976.544 80.344 976.832 75.808C976.856 75.472 976.88 74.824 976.88 74.824H974.432ZM984.368 62.92V65.2H990.464V62.92H984.368ZM979.76 66.256V68.512H989.672V66.256H979.76ZM978.44 66.256V72.472C978.44 75.52 978.296 79.72 976.472 82.648C977.048 82.912 978.152 83.704 978.584 84.16C980.6 80.944 980.936 75.928 980.936 72.472V66.256H978.44ZM981.296 70.096L981.536 72.016L988.088 71.416L987.896 69.52L981.296 70.096ZM988.976 66.256V66.568C988.856 67.936 988.64 69.64 988.448 70.696L990.56 71.2C990.872 70.024 991.232 68.152 991.472 66.544L989.72 66.16L989.312 66.256H988.976ZM982.136 75.472C982.016 78.64 981.728 80.944 979.616 82.336C980.168 82.768 980.84 83.656 981.128 84.256C983.84 82.432 984.368 79.432 984.488 75.472H982.136ZM985.736 75.472V81.016C985.736 82.384 985.832 82.792 986.24 83.2C986.624 83.608 987.248 83.752 987.848 83.752C988.16 83.752 988.76 83.752 989.144 83.752C989.6 83.752 990.128 83.632 990.464 83.44C990.848 83.176 991.088 82.84 991.256 82.336C991.4 81.856 991.52 80.68 991.568 79.552C990.92 79.336 990.032 78.856 989.6 78.448C989.624 79.456 989.576 80.32 989.528 80.68C989.504 80.896 989.408 81.064 989.336 81.136C989.264 81.232 989.096 81.256 988.952 81.256C988.808 81.256 988.64 81.256 988.52 81.256C988.4 81.256 988.256 81.208 988.208 81.112C988.112 81.064 988.112 80.92 988.112 80.776V75.472H985.736ZM983.12 61.624V67.288H985.856V61.624H983.12ZM983.216 68.32V71.728C983.216 73.696 983.648 74.68 985.688 74.68C986.168 74.68 987.728 74.68 988.232 74.68C988.856 74.68 989.6 74.632 990.008 74.488C989.912 73.864 989.864 73.168 989.792 72.448C989.456 72.568 988.592 72.616 988.112 72.616C987.728 72.616 986.528 72.616 986.192 72.616C985.688 72.616 985.64 72.352 985.64 71.776V68.32H983.216Z" fill="white"/>
<path d="M1201.18 71.04V72.42H1217.86V71.04H1201.18ZM1200.56 83.32V84.7H1218.54V83.32H1200.56ZM1208.7 69.22V87.66H1210.24V69.22H1208.7ZM1204.1 78.36H1214.92V80.44H1204.1V78.36ZM1204.1 75.14H1214.92V77.18H1204.1V75.14ZM1202.66 73.88V81.68H1216.42V73.88H1202.66ZM1229.22 70.42V71.86H1239.04V70.42H1229.22ZM1235.06 76.38V85.66C1235.06 86 1234.94 86.08 1234.54 86.1C1234.18 86.12 1232.84 86.12 1231.42 86.08C1231.64 86.52 1231.84 87.14 1231.9 87.56C1233.86 87.56 1235 87.54 1235.68 87.32C1236.36 87.08 1236.58 86.62 1236.58 85.68V76.38H1235.06ZM1228.34 75.94V77.36H1239.62V75.94H1228.34ZM1224.34 77.48V87.66H1225.84V76.26L1225.66 76.18L1224.34 77.48ZM1226.66 73.48C1225.28 75.78 1223.08 78.1 1221 79.58C1221.32 79.86 1221.84 80.52 1222.06 80.82C1224.16 79.14 1226.52 76.56 1228.08 74.02L1226.66 73.48ZM1225.84 69.2C1224.82 70.64 1222.88 72.44 1221.22 73.56C1221.48 73.86 1221.88 74.44 1222.1 74.76C1223.88 73.48 1225.94 71.54 1227.28 69.78L1225.84 69.2ZM1252.91 86H1257.68C1258.1 76.752 1258.8 71.888 1264.31 65.168V62.32H1248.59V66.256H1259.25C1254.71 72.528 1253.36 77.808 1252.91 86ZM1276.74 76.78V78.24H1288.18V76.78H1276.74ZM1287.68 76.78V77.06C1287.42 83 1287.12 85.28 1286.58 85.82C1286.38 86.04 1286.14 86.08 1285.74 86.08C1285.26 86.08 1284.02 86.06 1282.7 85.94C1282.98 86.38 1283.18 87 1283.2 87.46C1284.46 87.52 1285.72 87.54 1286.38 87.48C1287.08 87.42 1287.52 87.28 1287.92 86.78C1288.64 86.02 1288.92 83.7 1289.2 77.5C1289.22 77.3 1289.24 76.78 1289.24 76.78H1287.68ZM1280.96 77.18C1280.56 80.96 1279.76 84.66 1274.52 86.4C1274.86 86.72 1275.3 87.32 1275.48 87.7C1281.06 85.7 1282.1 81.56 1282.56 77.18H1280.96ZM1278.88 69.86C1277.92 73 1276.08 75.68 1273.7 77.34C1274.06 77.6 1274.7 78.14 1274.96 78.44C1277.32 76.58 1279.32 73.7 1280.44 70.24L1278.88 69.86ZM1282.02 69.56V70.96H1286.4V69.56H1282.02ZM1284.96 69.56V70.4H1285.38C1286.48 73.62 1288.66 76.7 1291.32 78.4C1291.58 78 1292.08 77.38 1292.4 77.06C1289.84 75.62 1287.68 72.7 1286.66 69.56H1284.96ZM1301.96 85.98V87.12H1313.28V85.98H1301.96ZM1302.54 71.1V72.3H1312.88V71.1H1302.54ZM1302.88 83.44V84.56H1312.54V83.44H1302.88ZM1302 74.46V75.66H1313.34V74.46H1302ZM1304.42 79.94H1310.96V81.32H1304.42V79.94ZM1304.42 77.64H1310.96V78.98H1304.42V77.64ZM1303.12 76.62V82.32H1312.32V76.62H1303.12ZM1309.76 72.26C1309.52 73.02 1309.02 74.16 1308.62 74.88L1309.8 75.18C1310.22 74.5 1310.78 73.5 1311.22 72.58L1309.76 72.26ZM1304.24 72.56C1304.56 73.22 1304.88 74.1 1304.98 74.68L1306.3 74.34C1306.18 73.8 1305.86 72.92 1305.5 72.3L1304.24 72.56ZM1307 77.16V81.64H1306.94V86.52H1308.36V81.64H1308.28V77.16H1307ZM1306.28 69.5C1306.74 70.14 1307.12 71.08 1307.22 71.68L1308.68 71.26C1308.54 70.66 1308.12 69.76 1307.66 69.12L1306.28 69.5ZM1296.12 74.3V75.6H1301.08V74.3H1296.12ZM1295.1 77.8V79.1H1301.64V77.8H1295.1ZM1295.46 80.42C1295.78 81.62 1296.1 83.14 1296.16 84.16L1297.14 83.84C1297.06 82.86 1296.76 81.34 1296.4 80.16L1295.46 80.42ZM1294.88 85.58L1295.2 86.92C1296.96 86.5 1299.4 85.88 1301.7 85.3L1301.62 84.08C1299.12 84.66 1296.54 85.24 1294.88 85.58ZM1300.42 79.92C1300.26 81.02 1299.88 82.62 1299.56 83.6L1300.42 83.94C1300.76 83 1301.14 81.52 1301.5 80.3L1300.42 79.92ZM1297.94 74.88V85.76L1299.1 85.56V74.88H1297.94ZM1298.44 69.1C1297.56 71.06 1296.08 72.92 1294.62 74.08C1294.82 74.46 1295.14 75.26 1295.22 75.6C1296.82 74.16 1298.5 71.9 1299.52 69.62L1298.44 69.1ZM1297.96 71.16C1299.24 72.08 1300.68 73.34 1301.52 74.3L1302.18 73.08C1301.32 72.18 1299.88 70.96 1298.56 70.08L1297.96 71.16Z" fill="white"/>
<path d="M4.176 23.592V26.088H19.728V23.592H4.176ZM5.352 18.312V20.832H18.576V18.312H5.352ZM1.824 29.016V31.584H22.32V29.016H1.824ZM10.392 19.44V30.456H13.44V19.44H10.392ZM5.232 10.368V13.032H13.296V10.368H5.232ZM10.368 10.368V11.928H11.112C13.512 15.192 17.4 18.6 21.624 20.568C22.032 19.776 22.968 18.552 23.544 17.952C19.464 16.44 15.576 13.416 13.512 10.368H10.368ZM10.824 10.368C8.688 13.392 4.32 16.704 0.504 18.264C1.152 18.864 1.896 19.872 2.28 20.592C6.096 18.672 10.536 15.12 12.912 11.808L10.824 10.368ZM25.056 10.536V13.104H33.192V10.536H25.056ZM27.552 15.648V18H31.704V15.648H27.552ZM27.552 20.52V22.872H31.704V20.52H27.552ZM25.92 11.904V26.976H28.224V11.904H25.92ZM30.048 11.88V32.16H32.448V11.88H30.048ZM24.672 26.352L25.2 28.896C27.192 28.536 29.64 28.08 32.016 27.624L31.848 25.272C29.208 25.704 26.52 26.112 24.672 26.352ZM37.368 17.544C37.776 18.84 38.232 20.592 38.448 21.648L40.152 21.12C39.96 20.136 39.456 18.384 39 17.136L37.368 17.544ZM33.384 16.944C33.384 16.416 34.584 15.6 34.584 15.6V15.528C35.664 14.424 36.936 12.48 37.896 10.584L35.832 9.696C35.232 11.472 34.08 13.104 33.768 13.56C33.408 14.016 33.072 14.28 32.736 14.4C32.976 15.096 33.288 16.368 33.384 16.944ZM33.384 16.944C33.72 16.752 34.32 16.608 37.056 16.392C37.08 15.96 37.248 15.168 37.368 14.64L34.152 14.808L33.384 15.432V16.944ZM33.264 21.432C33.264 20.904 34.488 20.136 34.488 20.136V20.064C36.168 18.504 37.992 16.08 39.528 13.584L37.656 12.576C36.432 14.904 34.632 17.232 34.08 17.808C33.552 18.408 33.096 18.816 32.664 18.936C32.904 19.632 33.168 20.904 33.264 21.432ZM33.264 21.432C33.696 21.168 34.416 21 39.24 20.448C39.168 19.992 39.096 19.224 39.096 18.672L34.056 19.152L33.24 19.8L33.264 21.432ZM44.496 17.4C45 18.72 45.576 20.472 45.864 21.528L47.52 20.88C47.256 19.848 46.608 18.144 46.104 16.872L44.496 17.4ZM40.248 16.8C40.248 16.272 41.448 15.504 41.448 15.504V15.456C42.456 14.4 43.656 12.624 44.544 10.848L42.744 9.912C42.096 11.592 40.968 13.248 40.632 13.656C40.32 14.112 39.96 14.376 39.648 14.448C39.864 15.072 40.128 16.272 40.248 16.8ZM40.248 16.8C40.56 16.608 41.16 16.464 43.872 16.248C43.92 15.816 44.064 15.024 44.208 14.496L41.016 14.664L40.248 15.264V16.8ZM40.584 21.432C40.584 20.88 41.952 20.112 41.952 20.112V20.088C43.416 18.48 45.024 16.032 46.296 13.512L44.472 12.528C43.44 14.928 41.808 17.304 41.304 17.88C40.848 18.528 40.416 18.936 39.984 19.032C40.224 19.704 40.488 20.904 40.584 21.432ZM40.584 21.432C41.016 21.144 41.736 20.976 46.536 20.16C46.44 19.752 46.392 18.984 46.368 18.456L41.352 19.128L40.56 19.776L40.584 21.432ZM37.056 21.696V25.224C37.056 27.048 36.648 28.968 33.456 30.312C33.888 30.696 34.68 31.752 34.944 32.304C38.664 30.624 39.432 27.768 39.432 25.272V21.696H37.056ZM34.224 25.152V27.576H38.616V25.152H34.224ZM40.44 21.696V32.16H42.888V21.696H40.44ZM33.624 21.696V27.576H35.904V21.696H33.624ZM44.088 21.84V28.368H46.392V21.84H44.088ZM41.784 25.104V27.552H45.432V25.104H41.784Z" fill="white"/>
<path d="M306.022 25.6C305.082 27.26 303.482 28.88 301.962 29.94C302.302 30.2 302.862 30.78 303.102 31.08C304.642 29.84 306.362 27.96 307.462 26.1L306.022 25.6ZM315.962 25.78C313.562 30.6 308.642 33.08 301.222 34.08C301.542 34.46 301.842 35.06 302.002 35.5C309.662 34.34 314.742 31.66 317.382 26.46L315.962 25.78ZM301.382 23.32V24.76H318.922V23.32H301.382ZM310.642 19.34V20.76H317.102V19.34H310.642ZM309.622 17.22V24.1H311.222V17.22H309.622ZM304.382 18.76V24.02H305.902V18.76H304.382ZM309.502 24.38V31.08H311.082V24.38H309.502ZM329.902 18.42V19.86H339.722V18.42H329.902ZM335.742 24.38V33.66C335.742 34 335.622 34.08 335.222 34.1C334.862 34.12 333.522 34.12 332.102 34.08C332.322 34.52 332.522 35.14 332.582 35.56C334.542 35.56 335.682 35.54 336.362 35.32C337.042 35.08 337.262 34.62 337.262 33.68V24.38H335.742ZM329.022 23.94V25.36H340.302V23.94H329.022ZM325.022 25.48V35.66H326.522V24.26L326.342 24.18L325.022 25.48ZM327.342 21.48C325.962 23.78 323.762 26.1 321.682 27.58C322.002 27.86 322.522 28.52 322.742 28.82C324.842 27.14 327.202 24.56 328.762 22.02L327.342 21.48ZM326.522 17.2C325.502 18.64 323.562 20.44 321.902 21.56C322.162 21.86 322.562 22.44 322.782 22.76C324.562 21.48 326.622 19.54 327.962 17.78L326.522 17.2ZM358.427 34H362.811V10.32H357.147L348.347 24.656V27.888H365.627V24.272H352.923L356.571 18.384C357.243 17.104 357.883 15.792 358.491 14.512H358.619C358.555 15.92 358.427 18.064 358.427 19.44V34ZM380.74 24.78V26.24H392.18V24.78H380.74ZM391.68 24.78V25.06C391.42 31 391.12 33.28 390.58 33.82C390.38 34.04 390.14 34.08 389.74 34.08C389.26 34.08 388.02 34.06 386.7 33.94C386.98 34.38 387.18 35 387.2 35.46C388.46 35.52 389.72 35.54 390.38 35.48C391.08 35.42 391.52 35.28 391.92 34.78C392.64 34.02 392.92 31.7 393.2 25.5C393.22 25.3 393.24 24.78 393.24 24.78H391.68ZM384.96 25.18C384.56 28.96 383.76 32.66 378.52 34.4C378.86 34.72 379.3 35.32 379.48 35.7C385.06 33.7 386.1 29.56 386.56 25.18H384.96ZM382.88 17.86C381.92 21 380.08 23.68 377.7 25.34C378.06 25.6 378.7 26.14 378.96 26.44C381.32 24.58 383.32 21.7 384.44 18.24L382.88 17.86ZM386.02 17.56V18.96H390.4V17.56H386.02ZM388.96 17.56V18.4H389.38C390.48 21.62 392.66 24.7 395.32 26.4C395.58 26 396.08 25.38 396.4 25.06C393.84 23.62 391.68 20.7 390.66 17.56H388.96ZM405.96 33.98V35.12H417.28V33.98H405.96ZM406.54 19.1V20.3H416.88V19.1H406.54ZM406.88 31.44V32.56H416.54V31.44H406.88ZM406 22.46V23.66H417.34V22.46H406ZM408.42 27.94H414.96V29.32H408.42V27.94ZM408.42 25.64H414.96V26.98H408.42V25.64ZM407.12 24.62V30.32H416.32V24.62H407.12ZM413.76 20.26C413.52 21.02 413.02 22.16 412.62 22.88L413.8 23.18C414.22 22.5 414.78 21.5 415.22 20.58L413.76 20.26ZM408.24 20.56C408.56 21.22 408.88 22.1 408.98 22.68L410.3 22.34C410.18 21.8 409.86 20.92 409.5 20.3L408.24 20.56ZM411 25.16V29.64H410.94V34.52H412.36V29.64H412.28V25.16H411ZM410.28 17.5C410.74 18.14 411.12 19.08 411.22 19.68L412.68 19.26C412.54 18.66 412.12 17.76 411.66 17.12L410.28 17.5ZM400.12 22.3V23.6H405.08V22.3H400.12ZM399.1 25.8V27.1H405.64V25.8H399.1ZM399.46 28.42C399.78 29.62 400.1 31.14 400.16 32.16L401.14 31.84C401.06 30.86 400.76 29.34 400.4 28.16L399.46 28.42ZM398.88 33.58L399.2 34.92C400.96 34.5 403.4 33.88 405.7 33.3L405.62 32.08C403.12 32.66 400.54 33.24 398.88 33.58ZM404.42 27.92C404.26 29.02 403.88 30.62 403.56 31.6L404.42 31.94C404.76 31 405.14 29.52 405.5 28.3L404.42 27.92ZM401.94 22.88V33.76L403.1 33.56V22.88H401.94ZM402.44 17.1C401.56 19.06 400.08 20.92 398.62 22.08C398.82 22.46 399.14 23.26 399.22 23.6C400.82 22.16 402.5 19.9 403.52 17.62L402.44 17.1ZM401.96 19.16C403.24 20.08 404.68 21.34 405.52 22.3L406.18 21.08C405.32 20.18 403.88 18.96 402.56 18.08L401.96 19.16Z" fill="white"/>
<path d="M449.656 115.52V120.992H452.464V118.136H467.488V120.992H470.44V115.52H449.656ZM453.184 119.456V121.904H466.72V119.456H453.184ZM457.048 123.632C460.888 126.824 460.72 131.864 459.592 132.944C459.256 133.424 458.872 133.52 458.296 133.52C457.744 133.52 456.976 133.496 456.112 133.4C456.616 134.192 456.856 135.32 456.904 136.112C457.6 136.136 458.32 136.16 458.848 136.136C460.096 136.136 460.864 135.872 461.704 135.032C463.864 133.208 464.008 126.296 459.256 122.432L457.048 123.632ZM459.616 120.296C457.528 122.312 453.424 123.776 449.608 124.544C450.064 125.096 450.808 126.248 451.072 126.8C455.08 125.72 459.448 123.872 461.992 121.28L459.616 120.296ZM458.632 124.904C456.616 126.368 452.488 127.952 449.416 128.624C449.92 129.224 450.52 130.184 450.832 130.832C453.952 129.848 458.128 127.976 460.456 126.272L458.632 124.904ZM460.048 127.664C457.72 129.752 452.968 131.888 449.08 132.752C449.632 133.4 450.232 134.432 450.568 135.152C454.48 133.928 459.352 131.528 462.04 129.152L460.048 127.664ZM465.808 126.296L463.264 126.872C464.416 130.64 466.408 133.592 469.6 135.128C469.984 134.384 470.848 133.304 471.472 132.776C468.664 131.624 466.744 129.176 465.808 126.296ZM466.576 122.288C464.92 123.92 462.184 125.936 460.12 127.136L461.992 128.792C464.08 127.688 466.792 125.864 468.952 124.184L466.576 122.288ZM457.792 114.224C458.272 115.16 458.728 116.432 458.896 117.248L462.112 116.264C461.92 115.448 461.344 114.248 460.84 113.36L457.792 114.224ZM473.104 126.872V129.248H494.872V126.872H473.104ZM482.632 125.72V136.088H485.536V125.72H482.632ZM483.088 121.4H484.864V123.056H483.088V121.4ZM483.088 117.8H484.864V119.432H483.088V117.8ZM480.64 115.712V125.168H487.408V115.712H480.64ZM482.992 113.456C482.92 114.296 482.656 115.52 482.416 116.384L484.312 116.84C484.672 116.096 485.128 114.968 485.584 113.888L482.992 113.456ZM492.28 121.976C492.664 123.32 493.048 125.048 493.168 126.224L495.088 125.696C494.92 124.568 494.512 122.84 494.104 121.52L492.28 121.976ZM477.808 121.664C478.144 123.032 478.48 124.808 478.576 126.008L480.52 125.528C480.376 124.352 480.016 122.6 479.656 121.256L477.808 121.664ZM473.872 121.136C473.872 120.704 475.168 120.032 475.168 120.032V119.96C476.248 118.64 477.496 116.576 478.312 114.656L476.08 113.888C475.552 115.736 474.496 117.632 474.16 118.112C473.824 118.64 473.488 118.976 473.152 119.072C473.392 119.624 473.752 120.704 473.872 121.136ZM473.872 121.136C474.256 120.944 474.928 120.8 477.976 120.44C478 119.984 478.072 119.192 478.192 118.616L474.784 118.88L473.824 119.528L473.872 121.136ZM473.8 125.864C473.8 125.456 474.952 124.784 474.952 124.784V124.712C476.896 122.888 478.936 120.296 480.424 117.752L478.384 116.624C477.232 119.144 475.216 121.808 474.616 122.48C474.016 123.152 473.56 123.632 473.056 123.728C473.344 124.328 473.704 125.408 473.8 125.864ZM473.8 125.864C474.256 125.624 475.024 125.432 479.512 124.832C479.512 124.4 479.56 123.584 479.656 123.032L474.712 123.584L473.728 124.232L473.8 125.864ZM488.152 121.28C488.152 120.824 489.472 120.128 489.472 120.128V120.08C490.576 118.712 491.872 116.576 492.688 114.56L490.384 113.888C489.808 115.736 488.752 117.68 488.416 118.184C488.08 118.688 487.744 119.072 487.408 119.144C487.672 119.72 488.032 120.8 488.152 121.28ZM488.152 121.28C488.56 121.088 489.28 120.896 492.76 120.512C492.784 120.032 492.856 119.168 492.976 118.568L489.088 118.928L488.08 119.576L488.152 121.28ZM488.32 126.008C488.32 125.576 489.52 124.904 489.52 124.904V124.832C491.512 123.056 493.576 120.44 495.112 117.944L493.024 116.768C491.824 119.288 489.76 121.904 489.136 122.576C488.536 123.272 488.08 123.704 487.576 123.824C487.84 124.424 488.2 125.552 488.32 126.008ZM488.32 126.008C488.8 125.792 489.592 125.624 494.176 125.144C494.176 124.712 494.272 123.872 494.392 123.296L489.304 123.728L488.248 124.376L488.32 126.008ZM479.392 129.944C477.952 131.36 475.144 132.56 472.432 133.088C473.056 133.64 473.92 134.744 474.328 135.464C477.208 134.672 480.064 132.92 481.744 130.832L479.392 129.944ZM486.736 131.48C488.872 132.656 491.728 134.456 493.072 135.656L494.92 133.592C493.456 132.416 490.528 130.736 488.44 129.68L486.736 131.48ZM498.664 114.704C499.336 115.832 500.176 117.368 500.56 118.304L502.864 117.152C502.48 116.24 501.64 114.824 500.944 113.72L498.664 114.704ZM510.856 126.56V134.552H513.424V126.56H510.856ZM509.584 120.224H514.96V121.928H509.584V120.224ZM507.04 118.04V124.112H517.624V118.04H507.04ZM505.816 125.168V136.136H508.48V127.472H515.896V136.112H518.656V125.168H505.816ZM507.352 129.08V131.216H517.336V129.08H507.352ZM507.376 132.872V135.176H517.36V132.872H507.376ZM505.696 114.632V117.056H518.752V114.632H505.696ZM497.176 118.064V120.656H504.352V118.064H497.176ZM503.128 123.68L501.52 125.048C502.336 125.912 503.968 127.712 504.712 128.744L506.392 126.44C505.888 125.96 503.8 124.112 503.128 123.68ZM503.296 118.064V118.592C502.12 122.096 499.264 125.624 496.264 127.424C496.696 127.952 497.392 129.392 497.632 130.16C500.944 127.88 504.28 123.632 505.936 118.976L504.352 117.968L503.872 118.064H503.296ZM500.056 126.272V136.16H502.864V122.888L500.056 126.272Z" fill="white"/>
<path d="M736.925 129.6C735.985 131.26 734.385 132.88 732.865 133.94C733.205 134.2 733.765 134.78 734.005 135.08C735.545 133.84 737.265 131.96 738.365 130.1L736.925 129.6ZM746.865 129.78C744.465 134.6 739.545 137.08 732.125 138.08C732.445 138.46 732.745 139.06 732.905 139.5C740.565 138.34 745.645 135.66 748.285 130.46L746.865 129.78ZM732.285 127.32V128.76H749.825V127.32H732.285ZM741.545 123.34V124.76H748.005V123.34H741.545ZM740.525 121.22V128.1H742.125V121.22H740.525ZM735.285 122.76V128.02H736.805V122.76H735.285ZM740.405 128.38V135.08H741.985V128.38H740.405ZM760.805 122.42V123.86H770.625V122.42H760.805ZM766.645 128.38V137.66C766.645 138 766.525 138.08 766.125 138.1C765.765 138.12 764.425 138.12 763.005 138.08C763.225 138.52 763.425 139.14 763.485 139.56C765.445 139.56 766.585 139.54 767.265 139.32C767.945 139.08 768.165 138.62 768.165 137.68V128.38H766.645ZM759.925 127.94V129.36H771.205V127.94H759.925ZM755.925 129.48V139.66H757.425V128.26L757.245 128.18L755.925 129.48ZM758.245 125.48C756.865 127.78 754.665 130.1 752.585 131.58C752.905 131.86 753.425 132.52 753.645 132.82C755.745 131.14 758.105 128.56 759.665 126.02L758.245 125.48ZM757.425 121.2C756.405 122.64 754.465 124.44 752.805 125.56C753.065 125.86 753.465 126.44 753.685 126.76C755.465 125.48 757.525 123.54 758.865 121.78L757.425 121.2ZM781.169 138H795.441V134.192H790.993V114.32H787.505C785.969 115.248 784.369 115.856 781.969 116.304V119.216H786.289V134.192H781.169V138ZM808.492 138.448C813.292 138.448 816.492 134.256 816.492 126.064C816.492 117.904 813.292 113.904 808.492 113.904C803.66 113.904 800.46 117.904 800.46 126.064C800.46 134.256 803.66 138.448 808.492 138.448ZM808.492 134.768C806.444 134.768 804.908 132.72 804.908 126.064C804.908 119.44 806.444 117.52 808.492 117.52C810.54 117.52 812.044 119.44 812.044 126.064C812.044 132.72 810.54 134.768 808.492 134.768ZM828.74 128.78V130.24H840.18V128.78H828.74ZM839.68 128.78V129.06C839.42 135 839.12 137.28 838.58 137.82C838.38 138.04 838.14 138.08 837.74 138.08C837.26 138.08 836.02 138.06 834.7 137.94C834.98 138.38 835.18 139 835.2 139.46C836.46 139.52 837.72 139.54 838.38 139.48C839.08 139.42 839.52 139.28 839.92 138.78C840.64 138.02 840.92 135.7 841.2 129.5C841.22 129.3 841.24 128.78 841.24 128.78H839.68ZM832.96 129.18C832.56 132.96 831.76 136.66 826.52 138.4C826.86 138.72 827.3 139.32 827.48 139.7C833.06 137.7 834.1 133.56 834.56 129.18H832.96ZM830.88 121.86C829.92 125 828.08 127.68 825.7 129.34C826.06 129.6 826.7 130.14 826.96 130.44C829.32 128.58 831.32 125.7 832.44 122.24L830.88 121.86ZM834.02 121.56V122.96H838.4V121.56H834.02ZM836.96 121.56V122.4H837.38C838.48 125.62 840.66 128.7 843.32 130.4C843.58 130 844.08 129.38 844.4 129.06C841.84 127.62 839.68 124.7 838.66 121.56H836.96ZM853.96 137.98V139.12H865.28V137.98H853.96ZM854.54 123.1V124.3H864.88V123.1H854.54ZM854.88 135.44V136.56H864.54V135.44H854.88ZM854 126.46V127.66H865.34V126.46H854ZM856.42 131.94H862.96V133.32H856.42V131.94ZM856.42 129.64H862.96V130.98H856.42V129.64ZM855.12 128.62V134.32H864.32V128.62H855.12ZM861.76 124.26C861.52 125.02 861.02 126.16 860.62 126.88L861.8 127.18C862.22 126.5 862.78 125.5 863.22 124.58L861.76 124.26ZM856.24 124.56C856.56 125.22 856.88 126.1 856.98 126.68L858.3 126.34C858.18 125.8 857.86 124.92 857.5 124.3L856.24 124.56ZM859 129.16V133.64H858.94V138.52H860.36V133.64H860.28V129.16H859ZM858.28 121.5C858.74 122.14 859.12 123.08 859.22 123.68L860.68 123.26C860.54 122.66 860.12 121.76 859.66 121.12L858.28 121.5ZM848.12 126.3V127.6H853.08V126.3H848.12ZM847.1 129.8V131.1H853.64V129.8H847.1ZM847.46 132.42C847.78 133.62 848.1 135.14 848.16 136.16L849.14 135.84C849.06 134.86 848.76 133.34 848.4 132.16L847.46 132.42ZM846.88 137.58L847.2 138.92C848.96 138.5 851.4 137.88 853.7 137.3L853.62 136.08C851.12 136.66 848.54 137.24 846.88 137.58ZM852.42 131.92C852.26 133.02 851.88 134.62 851.56 135.6L852.42 135.94C852.76 135 853.14 133.52 853.5 132.3L852.42 131.92ZM849.94 126.88V137.76L851.1 137.56V126.88H849.94ZM850.44 121.1C849.56 123.06 848.08 124.92 846.62 126.08C846.82 126.46 847.14 127.26 847.22 127.6C848.82 126.16 850.5 123.9 851.52 121.62L850.44 121.1ZM849.96 123.16C851.24 124.08 852.68 125.34 853.52 126.3L854.18 125.08C853.32 124.18 851.88 122.96 850.56 122.08L849.96 123.16Z" fill="white"/>
<path d="M449.08 10.728V13.392H458.776V10.728H449.08ZM452.152 17.328H455.68V19.56H452.152V17.328ZM449.728 15.072V21.816H458.248V15.072H449.728ZM455.08 22.152C454.96 23.64 454.6 25.728 454.24 27.072L456.448 27.624C456.88 26.4 457.384 24.504 457.888 22.752L455.08 22.152ZM450.016 22.944C450.472 24.312 450.784 26.088 450.808 27.24L453.256 26.616C453.184 25.44 452.824 23.712 452.32 22.368L450.016 22.944ZM448.672 28.416L449.344 31.104C452.08 30.456 455.752 29.616 459.16 28.8L458.92 26.352C455.2 27.144 451.264 27.96 448.672 28.416ZM459.352 10.584V13.008H471.016V10.584H459.352ZM462.568 20.208H467.704V21.744H462.568V20.208ZM462.568 23.712H467.704V25.272H462.568V23.712ZM462.568 16.728H467.704V18.264H462.568V16.728ZM459.928 14.64V27.36H470.464V14.64H459.928ZM463.432 11.928C463.36 13.104 463.096 14.736 462.856 15.888L465.352 16.344C465.76 15.312 466.264 13.8 466.72 12.288L463.432 11.928ZM462.208 27.48C461.2 28.464 459.112 29.736 457.312 30.36C457.936 30.864 458.776 31.68 459.208 32.208C461.056 31.512 463.24 30.192 464.56 28.992L462.208 27.48ZM465.52 29.04C466.864 29.952 468.64 31.32 469.456 32.184L471.76 30.672C470.824 29.808 469 28.512 467.704 27.672L465.52 29.04ZM481.264 10.392V21.72H483.88V10.392H481.264ZM478.168 14.304V16.896H486.616V14.304H478.168ZM488.56 10.416V12.984H493.36V10.416H488.56ZM478.84 20.568V30.504H481.312V20.568H478.84ZM480.136 20.568V23.064H483.664V26.4H480.136V28.872H486.16V20.568H480.136ZM487.336 10.416V20.088C487.336 23.544 487.12 27.888 484.6 30.816C485.2 31.08 486.304 31.824 486.736 32.256C489.448 29.112 489.832 23.904 489.832 20.088V10.416H487.336ZM492.088 10.416V29.136C492.088 29.448 491.968 29.544 491.68 29.568C491.368 29.568 490.48 29.568 489.616 29.52C489.976 30.168 490.36 31.248 490.456 31.92C491.944 31.944 492.952 31.848 493.672 31.44C494.416 31.008 494.656 30.336 494.656 29.16V10.416H492.088ZM473.608 11.928C474.928 12.576 476.584 13.632 477.352 14.4L479.032 12.144C478.192 11.376 476.512 10.44 475.192 9.912L473.608 11.928ZM472.696 18.336C474.04 18.912 475.696 19.92 476.464 20.64L478.096 18.384C477.256 17.64 475.576 16.776 474.256 16.272L472.696 18.336ZM473.056 30.432L475.648 31.92C476.656 29.568 477.688 26.784 478.504 24.192L476.176 22.704C475.24 25.512 473.968 28.56 473.056 30.432ZM489.376 23.04L490.336 25.344C491.368 24.288 492.4 23.208 493.408 22.128L492.616 20.592C491.392 21.576 490.216 22.488 489.376 23.04ZM489.016 16.872C489.856 17.736 490.864 18.984 491.344 19.728L492.856 18.528C492.352 17.784 491.368 16.68 490.48 15.84L489.016 16.872ZM502.984 13.104V20.928H505.288V13.104H502.984ZM500.2 14.832V16.512H507.328V14.832H500.2ZM500.2 17.424V19.128H507.328V17.424H500.2ZM498.832 20.04V21.84H508.024V20.04H498.832ZM500.032 9.648C499.336 11.832 498.064 13.896 496.6 15.264C497.032 15.72 497.728 16.8 497.992 17.304C499.744 15.624 501.304 12.936 502.24 10.248L500.032 9.648ZM513.256 12.912V21.072H515.584V12.912H513.256ZM510.592 14.832V16.536H517.936V14.832H510.592ZM510.592 17.424V19.128H517.936V17.424H510.592ZM509.176 20.064V21.864H518.824V20.064H509.176ZM510.328 9.648C509.584 11.856 508.264 14.04 506.776 15.456C507.232 15.912 508 16.968 508.288 17.448C509.992 15.696 511.624 12.96 512.584 10.296L510.328 9.648ZM500.776 12.12L499.144 13.944H507.784V12.12H500.776ZM498.832 14.424V21H501.256V12.792L498.832 14.424ZM510.904 12.12L509.272 13.944H518.536V12.12H510.904ZM509.176 14.424V21H511.6V12.672L509.176 14.424ZM498.328 22.848V25.176H514.48V22.848H498.328ZM513.496 22.848V23.232C510.952 27.336 504.112 29.112 496.96 29.592C497.416 30.264 497.92 31.44 498.136 32.184C505.888 31.392 513.208 29.328 516.568 23.904L514.624 22.728L514.096 22.848H513.496ZM503.512 24.456L500.92 25.656C504.52 29.424 510.208 31.368 517.12 32.04C517.504 31.224 518.272 29.952 518.896 29.28C512.176 28.824 506.344 27.288 503.512 24.456ZM512.968 10.416C513.376 11.328 513.832 12.528 514.024 13.248L516.496 12.528C516.28 11.784 515.776 10.656 515.344 9.792L512.968 10.416ZM502.624 10.344C503.032 11.256 503.464 12.432 503.68 13.176L506.152 12.456C505.936 11.712 505.432 10.56 505 9.72L502.624 10.344ZM521.824 16.944V19.128H529.216V16.944H521.824ZM521.824 20.208V22.368H529.216V20.208H521.824ZM520.768 13.608V15.888H530.056V13.608H520.768ZM523.024 23.52V25.824H526.888V28.512H523.024V30.816H529.36V23.52H523.024ZM521.752 23.52V31.848H524.2V23.52H521.752ZM523.384 10.584C523.984 11.616 524.728 13.08 525.04 13.992L527.344 12.72C526.984 11.832 526.24 10.512 525.568 9.504L523.384 10.584ZM532.216 28.824V31.296H540.616V28.824H532.216ZM530.272 10.512V12.888H542.656V10.512H530.272ZM529.648 19.632V21.984H543.28V19.632H529.648ZM530.872 23.136V32.184H533.536V25.608H539.152V32.088H541.96V23.136H530.872ZM530.872 14.64V16.968H538.552V20.64H541.216V14.64H530.872ZM533.896 11.472C533.512 14.4 532.864 18.192 532.312 20.544H535.096C535.6 18.312 536.272 14.64 536.704 11.736L533.896 11.472ZM549.28 15.648V17.664H562.672V15.648H549.28ZM558.928 14.352C559.72 14.808 560.68 15.48 561.16 16.008L562.48 14.64C562 14.112 561.016 13.488 560.2 13.104L558.928 14.352ZM559.912 18.336C558.976 22.008 556.912 24.864 553.912 26.568C554.392 26.952 555.184 27.864 555.472 28.296C558.616 26.28 560.944 23.016 562.144 18.768L559.912 18.336ZM549.016 24.816L549.28 26.904C551.2 26.616 553.552 26.256 555.88 25.896L555.808 23.976C553.288 24.312 550.768 24.624 549.016 24.816ZM551.752 20.232H553.36V21.768H551.752V20.232ZM549.904 18.696V23.28H555.28V18.696H549.904ZM555.712 13.584C556.072 20.496 556.792 26.88 559.792 27.84C561.376 28.56 562.672 27.648 563.032 24.672C562.552 24.432 561.688 23.76 561.256 23.304C561.136 24.72 560.944 25.656 560.68 25.584C559.096 25.2 558.28 19.56 558.112 13.584H555.712ZM545.704 10.656V32.232H548.416V13.248H563.416V32.232H566.272V10.656H545.704ZM547.408 28.656V31.224H564.976V28.656H547.408ZM578.488 9.96V28.536C578.488 29.016 578.296 29.184 577.768 29.184C577.264 29.208 575.464 29.232 573.88 29.136C574.336 29.928 574.888 31.296 575.032 32.136C577.384 32.16 579.04 32.064 580.144 31.584C581.248 31.128 581.656 30.336 581.656 28.56V9.96H578.488ZM584.272 16.272C586.168 19.8 587.992 24.336 588.496 27.24L591.64 25.992C591.04 22.992 589.048 18.6 587.08 15.216L584.272 16.272ZM572.2 15.456C571.696 18.6 570.472 22.824 568.528 25.272C569.32 25.584 570.64 26.256 571.336 26.784C573.352 24.12 574.672 19.632 575.488 16.008L572.2 15.456Z" fill="white"/>
<path d="M757.4 25.6C756.46 27.26 754.86 28.88 753.34 29.94C753.68 30.2 754.24 30.78 754.48 31.08C756.02 29.84 757.74 27.96 758.84 26.1L757.4 25.6ZM767.34 25.78C764.94 30.6 760.02 33.08 752.6 34.08C752.92 34.46 753.22 35.06 753.38 35.5C761.04 34.34 766.12 31.66 768.76 26.46L767.34 25.78ZM752.76 23.32V24.76H770.3V23.32H752.76ZM762.02 19.34V20.76H768.48V19.34H762.02ZM761 17.22V24.1H762.6V17.22H761ZM755.76 18.76V24.02H757.28V18.76H755.76ZM760.88 24.38V31.08H762.46V24.38H760.88ZM781.28 18.42V19.86H791.1V18.42H781.28ZM787.12 24.38V33.66C787.12 34 787 34.08 786.6 34.1C786.24 34.12 784.9 34.12 783.48 34.08C783.7 34.52 783.9 35.14 783.96 35.56C785.92 35.56 787.06 35.54 787.74 35.32C788.42 35.08 788.64 34.62 788.64 33.68V24.38H787.12ZM780.4 23.94V25.36H791.68V23.94H780.4ZM776.4 25.48V35.66H777.9V24.26L777.72 24.18L776.4 25.48ZM778.72 21.48C777.34 23.78 775.14 26.1 773.06 27.58C773.38 27.86 773.9 28.52 774.12 28.82C776.22 27.14 778.58 24.56 780.14 22.02L778.72 21.48ZM777.9 17.2C776.88 18.64 774.94 20.44 773.28 21.56C773.54 21.86 773.94 22.44 774.16 22.76C775.94 21.48 778 19.54 779.34 17.78L777.9 17.2ZM807.212 34.448C811.916 34.448 816.3 30.576 816.3 21.616C816.3 13.424 812.268 9.904 807.756 9.904C803.724 9.904 800.332 12.912 800.332 17.808C800.332 22.832 803.148 25.232 807.116 25.232C808.78 25.232 810.924 24.176 812.204 22.416L811.948 19.216C810.796 21.168 809.324 21.904 807.98 21.904C805.964 21.904 804.62 20.56 804.62 17.808C804.62 14.864 806.06 13.424 807.852 13.424C810.156 13.424 811.98 15.568 811.98 21.616C811.98 28.4 809.708 30.64 806.924 30.64C805.516 30.64 804.076 29.904 803.18 28.912L800.684 31.76C802.124 33.232 804.236 34.448 807.212 34.448ZM828.74 24.78V26.24H840.18V24.78H828.74ZM839.68 24.78V25.06C839.42 31 839.12 33.28 838.58 33.82C838.38 34.04 838.14 34.08 837.74 34.08C837.26 34.08 836.02 34.06 834.7 33.94C834.98 34.38 835.18 35 835.2 35.46C836.46 35.52 837.72 35.54 838.38 35.48C839.08 35.42 839.52 35.28 839.92 34.78C840.64 34.02 840.92 31.7 841.2 25.5C841.22 25.3 841.24 24.78 841.24 24.78H839.68ZM832.96 25.18C832.56 28.96 831.76 32.66 826.52 34.4C826.86 34.72 827.3 35.32 827.48 35.7C833.06 33.7 834.1 29.56 834.56 25.18H832.96ZM830.88 17.86C829.92 21 828.08 23.68 825.7 25.34C826.06 25.6 826.7 26.14 826.96 26.44C829.32 24.58 831.32 21.7 832.44 18.24L830.88 17.86ZM834.02 17.56V18.96H838.4V17.56H834.02ZM836.96 17.56V18.4H837.38C838.48 21.62 840.66 24.7 843.32 26.4C843.58 26 844.08 25.38 844.4 25.06C841.84 23.62 839.68 20.7 838.66 17.56H836.96ZM853.96 33.98V35.12H865.28V33.98H853.96ZM854.54 19.1V20.3H864.88V19.1H854.54ZM854.88 31.44V32.56H864.54V31.44H854.88ZM854 22.46V23.66H865.34V22.46H854ZM856.42 27.94H862.96V29.32H856.42V27.94ZM856.42 25.64H862.96V26.98H856.42V25.64ZM855.12 24.62V30.32H864.32V24.62H855.12ZM861.76 20.26C861.52 21.02 861.02 22.16 860.62 22.88L861.8 23.18C862.22 22.5 862.78 21.5 863.22 20.58L861.76 20.26ZM856.24 20.56C856.56 21.22 856.88 22.1 856.98 22.68L858.3 22.34C858.18 21.8 857.86 20.92 857.5 20.3L856.24 20.56ZM859 25.16V29.64H858.94V34.52H860.36V29.64H860.28V25.16H859ZM858.28 17.5C858.74 18.14 859.12 19.08 859.22 19.68L860.68 19.26C860.54 18.66 860.12 17.76 859.66 17.12L858.28 17.5ZM848.12 22.3V23.6H853.08V22.3H848.12ZM847.1 25.8V27.1H853.64V25.8H847.1ZM847.46 28.42C847.78 29.62 848.1 31.14 848.16 32.16L849.14 31.84C849.06 30.86 848.76 29.34 848.4 28.16L847.46 28.42ZM846.88 33.58L847.2 34.92C848.96 34.5 851.4 33.88 853.7 33.3L853.62 32.08C851.12 32.66 848.54 33.24 846.88 33.58ZM852.42 27.92C852.26 29.02 851.88 30.62 851.56 31.6L852.42 31.94C852.76 31 853.14 29.52 853.5 28.3L852.42 27.92ZM849.94 22.88V33.76L851.1 33.56V22.88H849.94ZM850.44 17.1C849.56 19.06 848.08 20.92 846.62 22.08C846.82 22.46 847.14 23.26 847.22 23.6C848.82 22.16 850.5 19.9 851.52 17.62L850.44 17.1ZM849.96 19.16C851.24 20.08 852.68 21.34 853.52 22.3L854.18 21.08C853.32 20.18 851.88 18.96 850.56 18.08L849.96 19.16Z" fill="white"/>
<path d="M11.664 118.592V121.328H22.8V118.592H11.664ZM15.648 113.6V136.136H18.528V113.6H15.648ZM15.6 119.912C14.616 123.68 12.408 127.76 9.864 130.184C10.392 130.88 11.16 131.984 11.472 132.824C14.208 130.112 16.464 125.168 17.688 120.608L15.6 119.912ZM18.72 119.912L16.8 120.44C17.76 124.76 19.416 129.488 21.384 132.2C21.888 131.456 22.848 130.472 23.544 129.992C21.528 127.688 19.68 123.632 18.72 119.912ZM1.128 118.592V121.328H10.92V118.592H1.128ZM4.968 113.6V136.136H7.776V113.6H4.968ZM4.8 120.392C4.056 123.488 2.352 127.16 0.48 129.296C0.936 130.04 1.632 131.24 1.92 132.08C3.984 129.608 5.736 125 6.624 121.04L4.8 120.392ZM7.728 121.688L6.216 123.128C7.104 124.328 8.88 126.872 9.624 128.312L11.424 125.816C10.896 125.168 8.448 122.336 7.728 121.688ZM26.52 115.976V135.68H29.544V118.904H42.336V135.656H45.504V115.976H26.52ZM27.96 130.76V133.736H44.304V130.76H27.96ZM53.28 119.648V121.664H66.672V119.648H53.28ZM62.928 118.352C63.72 118.808 64.68 119.48 65.16 120.008L66.48 118.64C66 118.112 65.016 117.488 64.2 117.104L62.928 118.352ZM63.912 122.336C62.976 126.008 60.912 128.864 57.912 130.568C58.392 130.952 59.184 131.864 59.472 132.296C62.616 130.28 64.944 127.016 66.144 122.768L63.912 122.336ZM53.016 128.816L53.28 130.904C55.2 130.616 57.552 130.256 59.88 129.896L59.808 127.976C57.288 128.312 54.768 128.624 53.016 128.816ZM55.752 124.232H57.36V125.768H55.752V124.232ZM53.904 122.696V127.28H59.28V122.696H53.904ZM59.712 117.584C60.072 124.496 60.792 130.88 63.792 131.84C65.376 132.56 66.672 131.648 67.032 128.672C66.552 128.432 65.688 127.76 65.256 127.304C65.136 128.72 64.944 129.656 64.68 129.584C63.096 129.2 62.28 123.56 62.112 117.584H59.712ZM49.704 114.656V136.232H52.416V117.248H67.416V136.232H70.272V114.656H49.704ZM51.408 132.656V135.224H68.976V132.656H51.408ZM82.896 122.12C83.352 129.464 86.592 135.896 90.792 135.872C92.976 135.872 94.008 135.008 94.416 131C93.648 130.76 92.568 130.184 91.92 129.608C91.776 132.008 91.536 133.016 90.96 133.04C88.872 133.04 86.184 127.88 85.848 122.12H82.896ZM76.224 125.264V127.952H93.888V125.264H76.224ZM76.152 114.728V117.368H89.256V119.888H76.152V122.552H92.184V114.728H76.152ZM74.664 136.304C75.408 135.872 76.608 135.608 83.928 133.808C83.784 133.16 83.64 131.888 83.616 131.096L75.744 132.872L74.448 133.832L74.664 136.304ZM74.664 136.304C74.664 135.2 77.64 133.64 77.64 133.64V114.728H74.616V131.672C74.616 132.752 73.92 133.424 73.368 133.736C73.824 134.312 74.448 135.56 74.664 136.304ZM109.632 117.128V132.632H112.44V117.128H109.632ZM107.28 125.216H114.912V126.176H107.28V125.216ZM107.28 122.624H114.912V123.56H107.28V122.624ZM104.952 120.848V127.928H117.336V120.848H104.952ZM103.656 114.368V119.024H106.296V116.48H115.488V119.024H118.248V114.368H103.656ZM105.624 117.992V119.984H116.448V117.992H105.624ZM103.944 128.936V131.072H118.536V128.936H103.944ZM97.584 114.896C98.592 116.096 99.888 117.776 100.488 118.808L102.744 117.272C102.096 116.288 100.824 114.776 99.744 113.624L97.584 114.896ZM97.008 119.264V121.568H102.024V119.264H97.008ZM101.88 129.656L99.96 130.424C101.736 135.032 104.712 135.752 110.28 135.752C113.088 135.752 116.16 135.704 118.68 135.536C118.824 134.768 119.184 133.472 119.592 132.896C116.856 133.16 112.896 133.304 110.328 133.304C105.984 133.28 103.152 132.896 101.88 129.656ZM100.92 125.048V125.48C100.392 129.68 98.88 132.704 96.504 134.312C97.056 134.696 97.992 135.68 98.376 136.232C100.92 134.336 102.744 130.736 103.44 125.48L102.24 125L101.784 125.048H100.92ZM97.464 127.664C97.656 127.448 98.352 127.28 98.928 127.28H102.024V125.048H98.496L97.464 125.6V127.664ZM97.464 127.664C97.464 127.016 99.384 126.08 99.384 126.08C100.728 124.52 102.768 121.544 103.872 119.888L102.12 119.096L101.4 119.408V119.48C100.584 120.8 98.472 123.872 97.776 124.544C97.32 125.048 96.936 125.216 96.528 125.312C96.792 125.84 97.296 127.064 97.464 127.664ZM121.392 129.152V131.192H132.6V129.152H121.392ZM120.84 117.728V119.816H132.84V117.728H120.84ZM125.616 116.024V133.232H128.208V116.024H125.616ZM120.72 132.968L121.056 135.368C124.176 135.08 128.544 134.648 132.624 134.216L132.6 132.032C128.28 132.416 123.696 132.752 120.72 132.968ZM123.768 125.312H130.104V126.416H123.768V125.312ZM123.768 122.552H130.104V123.632H123.768V122.552ZM121.464 120.752V128.216H132.48V120.752H121.464ZM131.304 113.744C128.664 114.32 124.488 114.752 120.912 114.92C121.176 115.472 121.44 116.384 121.536 116.96C125.136 116.888 129.504 116.528 132.576 115.904L131.304 113.744ZM132.84 119.048V121.688H141.144V119.048H132.84ZM139.992 119.048V119.672C139.8 128.96 139.608 132.344 139.056 133.064C138.84 133.4 138.6 133.472 138.24 133.472C137.76 133.472 136.848 133.472 135.816 133.376C136.272 134.144 136.584 135.32 136.656 136.112C137.784 136.16 138.912 136.16 139.656 136.016C140.448 135.872 141 135.608 141.528 134.792C142.32 133.712 142.512 130.208 142.728 120.32C142.728 119.984 142.752 119.048 142.752 119.048H139.992ZM135.144 114.032C135.12 123.608 135.384 130.328 130.32 134.192C130.968 134.672 131.904 135.656 132.312 136.352C137.856 131.984 137.88 124.28 137.904 114.032H135.144ZM146.088 117.8V129.968H148.992V120.632H162.912V129.848H165.936V117.8H146.088ZM147.6 125.792V128.624H164.592V125.792H147.6ZM154.416 113.624V136.16H157.464V113.624H154.416ZM175.056 120.488V131.672C175.056 134.744 175.92 135.68 179.064 135.68C179.688 135.68 182.4 135.68 183.072 135.68C186.048 135.68 186.84 134.264 187.152 129.704C186.384 129.488 185.112 128.984 184.44 128.48C184.272 132.248 184.08 132.992 182.856 132.992C182.208 132.992 179.976 132.992 179.424 132.992C178.248 132.992 178.056 132.824 178.056 131.672V120.488H175.056ZM170.712 121.904C170.4 125.12 169.704 128.744 168.84 131.288L171.792 132.488C172.608 129.752 173.184 125.576 173.52 122.432L170.712 121.904ZM185.664 122.216C186.936 125.048 188.16 128.864 188.568 131.312L191.472 130.112C190.968 127.616 189.72 123.992 188.352 121.136L185.664 122.216ZM175.872 115.952C178.128 117.464 181.08 119.744 182.4 121.232L184.536 118.976C183.072 117.488 180.024 115.376 177.84 113.984L175.872 115.952Z" fill="white"/>
<path d="M309.4 129.6C308.46 131.26 306.86 132.88 305.34 133.94C305.68 134.2 306.24 134.78 306.48 135.08C308.02 133.84 309.74 131.96 310.84 130.1L309.4 129.6ZM319.34 129.78C316.94 134.6 312.02 137.08 304.6 138.08C304.92 138.46 305.22 139.06 305.38 139.5C313.04 138.34 318.12 135.66 320.76 130.46L319.34 129.78ZM304.76 127.32V128.76H322.3V127.32H304.76ZM314.02 123.34V124.76H320.48V123.34H314.02ZM313 121.22V128.1H314.6V121.22H313ZM307.76 122.76V128.02H309.28V122.76H307.76ZM312.88 128.38V135.08H314.46V128.38H312.88ZM333.28 122.42V123.86H343.1V122.42H333.28ZM339.12 128.38V137.66C339.12 138 339 138.08 338.6 138.1C338.24 138.12 336.9 138.12 335.48 138.08C335.7 138.52 335.9 139.14 335.96 139.56C337.92 139.56 339.06 139.54 339.74 139.32C340.42 139.08 340.64 138.62 340.64 137.68V128.38H339.12ZM332.4 127.94V129.36H343.68V127.94H332.4ZM328.4 129.48V139.66H329.9V128.26L329.72 128.18L328.4 129.48ZM330.72 125.48C329.34 127.78 327.14 130.1 325.06 131.58C325.38 131.86 325.9 132.52 326.12 132.82C328.22 131.14 330.58 128.56 332.14 126.02L330.72 125.48ZM329.9 121.2C328.88 122.64 326.94 124.44 325.28 125.56C325.54 125.86 325.94 126.44 326.16 126.76C327.94 125.48 330 123.54 331.34 121.78L329.9 121.2ZM360.46 138.448C365.228 138.448 368.428 135.728 368.428 132.144C368.428 128.88 366.636 126.992 364.46 125.808V125.648C365.996 124.528 367.5 122.576 367.5 120.208C367.5 116.432 364.812 113.936 360.62 113.936C356.492 113.936 353.452 116.368 353.452 120.176C353.452 122.672 354.796 124.496 356.588 125.808V125.936C354.412 127.088 352.556 129.104 352.556 132.144C352.556 135.856 355.916 138.448 360.46 138.448ZM361.964 124.496C359.468 123.504 357.612 122.384 357.612 120.176C357.612 118.288 358.892 117.232 360.524 117.232C362.476 117.232 363.66 118.576 363.66 120.528C363.66 121.936 363.116 123.28 361.964 124.496ZM360.556 135.12C358.348 135.12 356.588 133.744 356.588 131.6C356.588 129.84 357.484 128.24 358.796 127.216C361.836 128.496 364.044 129.488 364.044 131.952C364.044 134 362.604 135.12 360.556 135.12ZM380.74 128.78V130.24H392.18V128.78H380.74ZM391.68 128.78V129.06C391.42 135 391.12 137.28 390.58 137.82C390.38 138.04 390.14 138.08 389.74 138.08C389.26 138.08 388.02 138.06 386.7 137.94C386.98 138.38 387.18 139 387.2 139.46C388.46 139.52 389.72 139.54 390.38 139.48C391.08 139.42 391.52 139.28 391.92 138.78C392.64 138.02 392.92 135.7 393.2 129.5C393.22 129.3 393.24 128.78 393.24 128.78H391.68ZM384.96 129.18C384.56 132.96 383.76 136.66 378.52 138.4C378.86 138.72 379.3 139.32 379.48 139.7C385.06 137.7 386.1 133.56 386.56 129.18H384.96ZM382.88 121.86C381.92 125 380.08 127.68 377.7 129.34C378.06 129.6 378.7 130.14 378.96 130.44C381.32 128.58 383.32 125.7 384.44 122.24L382.88 121.86ZM386.02 121.56V122.96H390.4V121.56H386.02ZM388.96 121.56V122.4H389.38C390.48 125.62 392.66 128.7 395.32 130.4C395.58 130 396.08 129.38 396.4 129.06C393.84 127.62 391.68 124.7 390.66 121.56H388.96ZM405.96 137.98V139.12H417.28V137.98H405.96ZM406.54 123.1V124.3H416.88V123.1H406.54ZM406.88 135.44V136.56H416.54V135.44H406.88ZM406 126.46V127.66H417.34V126.46H406ZM408.42 131.94H414.96V133.32H408.42V131.94ZM408.42 129.64H414.96V130.98H408.42V129.64ZM407.12 128.62V134.32H416.32V128.62H407.12ZM413.76 124.26C413.52 125.02 413.02 126.16 412.62 126.88L413.8 127.18C414.22 126.5 414.78 125.5 415.22 124.58L413.76 124.26ZM408.24 124.56C408.56 125.22 408.88 126.1 408.98 126.68L410.3 126.34C410.18 125.8 409.86 124.92 409.5 124.3L408.24 124.56ZM411 129.16V133.64H410.94V138.52H412.36V133.64H412.28V129.16H411ZM410.28 121.5C410.74 122.14 411.12 123.08 411.22 123.68L412.68 123.26C412.54 122.66 412.12 121.76 411.66 121.12L410.28 121.5ZM400.12 126.3V127.6H405.08V126.3H400.12ZM399.1 129.8V131.1H405.64V129.8H399.1ZM399.46 132.42C399.78 133.62 400.1 135.14 400.16 136.16L401.14 135.84C401.06 134.86 400.76 133.34 400.4 132.16L399.46 132.42ZM398.88 137.58L399.2 138.92C400.96 138.5 403.4 137.88 405.7 137.3L405.62 136.08C403.12 136.66 400.54 137.24 398.88 137.58ZM404.42 131.92C404.26 133.02 403.88 134.62 403.56 135.6L404.42 135.94C404.76 135 405.14 133.52 405.5 132.3L404.42 131.92ZM401.94 126.88V137.76L403.1 137.56V126.88H401.94ZM402.44 121.1C401.56 123.06 400.08 124.92 398.62 126.08C398.82 126.46 399.14 127.26 399.22 127.6C400.82 126.16 402.5 123.9 403.52 121.62L402.44 121.1ZM401.96 123.16C403.24 124.08 404.68 125.34 405.52 126.3L406.18 125.08C405.32 124.18 403.88 122.96 402.56 122.08L401.96 123.16Z" fill="white"/>
<path d="M898.664 115.808V118.664H917.24V115.808H898.664ZM897.272 132.152V135.008H918.8V132.152H897.272ZM905.336 116.816C904.712 122.408 903.512 129.488 902.48 133.952H905.696C906.608 129.656 907.808 122.552 908.6 116.816H905.336ZM900.008 122.768V125.6H912.872V122.768H900.008ZM911.816 122.768V123.104C911.696 125.648 911.312 130.424 910.88 134.024L913.904 134.24C914.336 130.664 914.768 126.296 914.936 122.84L912.656 122.672L912.152 122.768H911.816ZM929.384 123.584V125.936H943.28V123.584H929.384ZM933.656 119.504H938.888V120.728H933.656V119.504ZM933.656 116.432H938.888V117.632H933.656V116.432ZM930.968 114.44V122.72H941.72V114.44H930.968ZM932.096 127.016L930.992 129.248H940.976V127.016H932.096ZM932.528 124.472C931.544 126.512 929.792 128.456 927.896 129.68C928.448 130.088 929.312 130.976 929.672 131.408C931.64 129.92 933.632 127.592 934.832 125.144L932.528 124.472ZM940.232 127.016V127.4C939.968 131.504 939.656 133.088 939.272 133.52C939.056 133.736 938.888 133.784 938.576 133.784C938.288 133.784 937.736 133.784 937.064 133.712C937.448 134.384 937.664 135.392 937.712 136.136C938.624 136.16 939.464 136.136 939.968 136.064C940.568 135.968 941.024 135.776 941.48 135.248C942.104 134.528 942.488 132.584 942.824 128.048C942.848 127.712 942.896 127.016 942.896 127.016H940.232ZM934.16 127.64C933.08 129.872 930.824 132.416 928.736 133.616C929.336 134.048 930.056 134.792 930.464 135.368C932.552 133.88 934.832 131.12 935.984 128.72L934.16 127.64ZM937.472 127.712C936.656 130.328 934.952 133.208 933.056 134.624C933.728 135.008 934.496 135.704 934.928 136.256C936.776 134.6 938.528 131.456 939.344 128.744L937.472 127.712ZM921.056 118.568V121.256H929.408V118.568H921.056ZM924.128 113.624V136.16H926.792V113.624H924.128ZM924.08 120.416C923.48 123.488 922.064 127.232 920.504 129.32C920.936 130.016 921.56 131.144 921.824 131.936C923.576 129.464 925.016 124.832 925.712 120.992L924.08 120.416ZM926.672 122.312L925.424 123.488C926.096 124.616 927.512 127.28 928.064 128.648L929.624 126.512C929.216 125.84 927.224 122.96 926.672 122.312ZM945.296 115.856V118.28H966.584V115.856H945.296ZM951.368 121.136H960.704V122.432H951.368V121.136ZM948.488 119.192V124.376H963.752V119.192H948.488ZM945.968 125.336V136.16H948.752V127.688H965.216V125.336H945.968ZM963.152 125.336V133.52C963.152 133.832 963.008 133.904 962.672 133.928C962.36 133.928 961.064 133.952 960.104 133.88C960.44 134.456 960.824 135.32 960.968 135.968C962.648 135.992 963.944 135.968 964.832 135.656C965.744 135.32 966.056 134.768 966.056 133.52V125.336H963.152ZM954.008 114.176C954.368 115.232 954.872 116.672 955.064 117.536L958.184 116.672C957.944 115.856 957.392 114.464 956.96 113.456L954.008 114.176ZM952.16 128.552V130.544H958.544V131.936H952.16V133.928H961.088V128.552H952.16ZM950.576 128.552V134.912H953.24V128.552H950.576ZM974.768 120.488V130.4H977.528V122.96H987.56V120.488H974.768ZM980.408 118.136V131.936H983.216V118.136H980.408ZM986.264 120.488V127.568C986.264 127.832 986.168 127.904 985.88 127.904C985.616 127.904 984.728 127.904 983.936 127.88C984.272 128.576 984.632 129.608 984.752 130.352C986.168 130.352 987.248 130.328 988.04 129.92C988.856 129.512 989.048 128.84 989.048 127.64V120.488H986.264ZM990.488 114.68H969.992V135.536H991.136V132.776H972.848V117.44H990.488V114.68ZM999.488 116.48V118.808H1014.87V116.48H999.488ZM1005.49 117.536C1005.34 118.496 1005.03 119.816 1004.72 120.824L1007.07 121.184C1007.58 120.32 1008.3 119.048 1008.8 117.752L1005.49 117.536ZM1009.66 113.6C1009.28 114.584 1008.54 115.928 1007.91 116.816L1010.17 117.536C1010.84 116.744 1011.63 115.568 1012.45 114.368L1009.66 113.6ZM1001.55 114.584C1002.08 115.376 1002.73 116.456 1002.99 117.128L1005.37 116.096C1005.06 115.448 1004.36 114.416 1003.83 113.672L1001.55 114.584ZM1004.02 125.168H1010.17V126.488H1004.02V125.168ZM1004.02 128.312H1010.17V129.632H1004.02V128.312ZM1004.02 122.048H1010.17V123.344H1004.02V122.048ZM1001.31 120.008V131.672H1013V120.008H1001.31ZM993.608 114.944C994.712 116.12 996.104 117.8 996.752 118.832L998.96 117.224C998.24 116.264 996.896 114.752 995.744 113.624L993.608 114.944ZM993.008 119.216V121.52H998.096V119.216H993.008ZM997.88 129.656L995.96 130.424C997.736 135.032 1000.71 135.776 1006.28 135.776C1009.09 135.776 1012.16 135.704 1014.66 135.56C1014.8 134.768 1015.18 133.472 1015.57 132.896C1012.86 133.136 1008.9 133.304 1006.33 133.304C1001.98 133.28 999.176 132.896 997.88 129.656ZM997.304 125.048V125.48C996.704 129.704 995 132.704 992.408 134.264C992.936 134.648 993.872 135.632 994.232 136.184C997.04 134.36 999.008 130.808 999.824 125.504L998.432 125L997.976 125.048H997.304ZM993.464 127.664C993.656 127.448 994.352 127.28 994.928 127.28H998.096L998.12 125.048H994.496L993.464 125.6V127.664ZM993.464 127.664C993.464 127.016 995.384 126.08 995.384 126.08C996.752 124.52 998.84 121.544 999.968 119.888L998.216 119.096L997.472 119.408V119.48C996.656 120.8 994.496 123.872 993.776 124.544C993.32 125.048 992.936 125.216 992.528 125.312C992.792 125.84 993.296 127.064 993.464 127.664Z" fill="white"/>
<path d="M1201.24 123.04V124.42H1217.92V123.04H1201.24ZM1200.62 135.32V136.7H1218.6V135.32H1200.62ZM1208.76 121.22V139.66H1210.3V121.22H1208.76ZM1204.16 130.36H1214.98V132.44H1204.16V130.36ZM1204.16 127.14H1214.98V129.18H1204.16V127.14ZM1202.72 125.88V133.68H1216.48V125.88H1202.72ZM1229.28 122.42V123.86H1239.1V122.42H1229.28ZM1235.12 128.38V137.66C1235.12 138 1235 138.08 1234.6 138.1C1234.24 138.12 1232.9 138.12 1231.48 138.08C1231.7 138.52 1231.9 139.14 1231.96 139.56C1233.92 139.56 1235.06 139.54 1235.74 139.32C1236.42 139.08 1236.64 138.62 1236.64 137.68V128.38H1235.12ZM1228.4 127.94V129.36H1239.68V127.94H1228.4ZM1224.4 129.48V139.66H1225.9V128.26L1225.72 128.18L1224.4 129.48ZM1226.72 125.48C1225.34 127.78 1223.14 130.1 1221.06 131.58C1221.38 131.86 1221.9 132.52 1222.12 132.82C1224.22 131.14 1226.58 128.56 1228.14 126.02L1226.72 125.48ZM1225.9 121.2C1224.88 122.64 1222.94 124.44 1221.28 125.56C1221.54 125.86 1221.94 126.44 1222.16 126.76C1223.94 125.48 1226 123.54 1227.34 121.78L1225.9 121.2ZM1252.97 138H1257.74C1258.16 128.752 1258.86 123.888 1264.36 117.168V114.32H1248.65V118.256H1259.31C1254.76 124.528 1253.42 129.808 1252.97 138ZM1276.74 128.78V130.24H1288.18V128.78H1276.74ZM1287.68 128.78V129.06C1287.42 135 1287.12 137.28 1286.58 137.82C1286.38 138.04 1286.14 138.08 1285.74 138.08C1285.26 138.08 1284.02 138.06 1282.7 137.94C1282.98 138.38 1283.18 139 1283.2 139.46C1284.46 139.52 1285.72 139.54 1286.38 139.48C1287.08 139.42 1287.52 139.28 1287.92 138.78C1288.64 138.02 1288.92 135.7 1289.2 129.5C1289.22 129.3 1289.24 128.78 1289.24 128.78H1287.68ZM1280.96 129.18C1280.56 132.96 1279.76 136.66 1274.52 138.4C1274.86 138.72 1275.3 139.32 1275.48 139.7C1281.06 137.7 1282.1 133.56 1282.56 129.18H1280.96ZM1278.88 121.86C1277.92 125 1276.08 127.68 1273.7 129.34C1274.06 129.6 1274.7 130.14 1274.96 130.44C1277.32 128.58 1279.32 125.7 1280.44 122.24L1278.88 121.86ZM1282.02 121.56V122.96H1286.4V121.56H1282.02ZM1284.96 121.56V122.4H1285.38C1286.48 125.62 1288.66 128.7 1291.32 130.4C1291.58 130 1292.08 129.38 1292.4 129.06C1289.84 127.62 1287.68 124.7 1286.66 121.56H1284.96ZM1301.96 137.98V139.12H1313.28V137.98H1301.96ZM1302.54 123.1V124.3H1312.88V123.1H1302.54ZM1302.88 135.44V136.56H1312.54V135.44H1302.88ZM1302 126.46V127.66H1313.34V126.46H1302ZM1304.42 131.94H1310.96V133.32H1304.42V131.94ZM1304.42 129.64H1310.96V130.98H1304.42V129.64ZM1303.12 128.62V134.32H1312.32V128.62H1303.12ZM1309.76 124.26C1309.52 125.02 1309.02 126.16 1308.62 126.88L1309.8 127.18C1310.22 126.5 1310.78 125.5 1311.22 124.58L1309.76 124.26ZM1304.24 124.56C1304.56 125.22 1304.88 126.1 1304.98 126.68L1306.3 126.34C1306.18 125.8 1305.86 124.92 1305.5 124.3L1304.24 124.56ZM1307 129.16V133.64H1306.94V138.52H1308.36V133.64H1308.28V129.16H1307ZM1306.28 121.5C1306.74 122.14 1307.12 123.08 1307.22 123.68L1308.68 123.26C1308.54 122.66 1308.12 121.76 1307.66 121.12L1306.28 121.5ZM1296.12 126.3V127.6H1301.08V126.3H1296.12ZM1295.1 129.8V131.1H1301.64V129.8H1295.1ZM1295.46 132.42C1295.78 133.62 1296.1 135.14 1296.16 136.16L1297.14 135.84C1297.06 134.86 1296.76 133.34 1296.4 132.16L1295.46 132.42ZM1294.88 137.58L1295.2 138.92C1296.96 138.5 1299.4 137.88 1301.7 137.3L1301.62 136.08C1299.12 136.66 1296.54 137.24 1294.88 137.58ZM1300.42 131.92C1300.26 133.02 1299.88 134.62 1299.56 135.6L1300.42 135.94C1300.76 135 1301.14 133.52 1301.5 132.3L1300.42 131.92ZM1297.94 126.88V137.76L1299.1 137.56V126.88H1297.94ZM1298.44 121.1C1297.56 123.06 1296.08 124.92 1294.62 126.08C1294.82 126.46 1295.14 127.26 1295.22 127.6C1296.82 126.16 1298.5 123.9 1299.52 121.62L1298.44 121.1ZM1297.96 123.16C1299.24 124.08 1300.68 125.34 1301.52 126.3L1302.18 125.08C1301.32 124.18 1299.88 122.96 1298.56 122.08L1297.96 123.16Z" fill="white"/>
<path d="M904.592 11.424V13.68H918.848V11.424H904.592ZM911.624 24.936V27.168H918.032V24.936H911.624ZM904.184 17.952V20.184H919.4V17.952H904.184ZM905.6 14.688V16.848H915.224V21.384H905.6V23.52H917.888V14.688H905.6ZM910.112 9.6V29.208L912.776 30.744V9.6H910.112ZM905.48 23.856C905.144 26.712 904.256 29.184 902.528 30.696C903.152 31.032 904.256 31.824 904.712 32.28C906.536 30.456 907.64 27.6 908.12 24.192L905.48 23.856ZM907.4 25.92L905.408 26.688C907.256 30.936 910.304 31.896 914.624 31.896H918.608C918.704 31.2 919.064 30.024 919.4 29.448C918.392 29.472 915.536 29.472 914.792 29.472C911.504 29.472 908.744 28.896 907.4 25.92ZM896.48 21.696L897.128 24.456C899.24 23.856 901.88 23.088 904.352 22.32L903.968 19.728C901.256 20.496 898.4 21.264 896.48 21.696ZM896.864 14.184V16.824H904.208V14.184H896.864ZM899.408 9.648V29.112C899.408 29.448 899.288 29.52 899 29.52C898.712 29.544 897.872 29.544 897.008 29.496C897.344 30.288 897.68 31.464 897.752 32.184C899.312 32.184 900.344 32.088 901.064 31.632C901.808 31.2 902.048 30.456 902.048 29.112V9.648H899.408ZM933.632 13.128V28.632H936.44V13.128H933.632ZM931.28 21.216H938.912V22.176H931.28V21.216ZM931.28 18.624H938.912V19.56H931.28V18.624ZM928.952 16.848V23.928H941.336V16.848H928.952ZM927.656 10.368V15.024H930.296V12.48H939.488V15.024H942.248V10.368H927.656ZM929.624 13.992V15.984H940.448V13.992H929.624ZM927.944 24.936V27.072H942.536V24.936H927.944ZM921.584 10.896C922.592 12.096 923.888 13.776 924.488 14.808L926.744 13.272C926.096 12.288 924.824 10.776 923.744 9.624L921.584 10.896ZM921.008 15.264V17.568H926.024V15.264H921.008ZM925.88 25.656L923.96 26.424C925.736 31.032 928.712 31.752 934.28 31.752C937.088 31.752 940.16 31.704 942.68 31.536C942.824 30.768 943.184 29.472 943.592 28.896C940.856 29.16 936.896 29.304 934.328 29.304C929.984 29.28 927.152 28.896 925.88 25.656ZM924.92 21.048V21.48C924.392 25.68 922.88 28.704 920.504 30.312C921.056 30.696 921.992 31.68 922.376 32.232C924.92 30.336 926.744 26.736 927.44 21.48L926.24 21L925.784 21.048H924.92ZM921.464 23.664C921.656 23.448 922.352 23.28 922.928 23.28H926.024V21.048H922.496L921.464 21.6V23.664ZM921.464 23.664C921.464 23.016 923.384 22.08 923.384 22.08C924.728 20.52 926.768 17.544 927.872 15.888L926.12 15.096L925.4 15.408V15.48C924.584 16.8 922.472 19.872 921.776 20.544C921.32 21.048 920.936 21.216 920.528 21.312C920.792 21.84 921.296 23.064 921.464 23.664ZM949.341 30H952.942L955.486 20.76C956.014 18.912 956.518 16.872 956.998 14.952H957.094C957.598 16.848 958.102 18.912 958.63 20.76L961.174 30H964.894L959.206 12.24H955.03L949.341 30ZM952.87 25.44H961.318V22.704H952.87V25.44ZM970.933 30.336C974.461 30.336 977.749 27.432 977.749 20.712C977.749 14.568 974.725 11.928 971.341 11.928C968.317 11.928 965.773 14.184 965.773 17.856C965.773 21.624 967.885 23.424 970.861 23.424C972.109 23.424 973.717 22.632 974.677 21.312L974.485 18.912C973.621 20.376 972.517 20.928 971.509 20.928C969.997 20.928 968.989 19.92 968.989 17.856C968.989 15.648 970.069 14.568 971.413 14.568C973.141 14.568 974.509 16.176 974.509 20.712C974.509 25.8 972.805 27.48 970.717 27.48C969.661 27.48 968.581 26.928 967.909 26.184L966.037 28.32C967.117 29.424 968.701 30.336 970.933 30.336ZM996.07 14.592V17.328H1007.21V14.592H996.07ZM1000.05 9.6V32.136H1002.93V9.6H1000.05ZM1000.01 15.912C999.022 19.68 996.814 23.76 994.27 26.184C994.798 26.88 995.566 27.984 995.878 28.824C998.614 26.112 1000.87 21.168 1002.09 16.608L1000.01 15.912ZM1003.13 15.912L1001.21 16.44C1002.17 20.76 1003.82 25.488 1005.79 28.2C1006.29 27.456 1007.25 26.472 1007.95 25.992C1005.93 23.688 1004.09 19.632 1003.13 15.912ZM985.534 14.592V17.328H995.326V14.592H985.534ZM989.374 9.6V32.136H992.182V9.6H989.374ZM989.206 16.392C988.462 19.488 986.758 23.16 984.886 25.296C985.342 26.04 986.038 27.24 986.326 28.08C988.39 25.608 990.142 21 991.03 17.04L989.206 16.392ZM992.134 17.688L990.622 19.128C991.51 20.328 993.286 22.872 994.03 24.312L995.83 21.816C995.302 21.168 992.854 18.336 992.134 17.688ZM1010.93 11.976V31.68H1013.95V14.904H1026.74V31.656H1029.91V11.976H1010.93ZM1012.37 26.76V29.736H1028.71V26.76H1012.37ZM1033.53 13.824V16.464H1043.21V13.824H1033.53ZM1033.34 27.144L1033.97 30C1036.53 29.4 1039.85 28.632 1042.94 27.864L1042.68 25.224C1039.32 25.968 1035.74 26.736 1033.34 27.144ZM1034.35 17.76C1034.78 20.28 1035.21 23.568 1035.29 25.752L1037.64 25.296C1037.49 23.088 1037.06 19.872 1036.56 17.328L1034.35 17.76ZM1039.7 17.136C1039.46 19.968 1038.91 23.88 1038.31 26.304L1040.4 26.76C1041.07 24.432 1041.84 20.664 1042.37 17.592L1039.7 17.136ZM1036.25 10.44C1036.82 11.544 1037.45 13.08 1037.69 14.04L1040.28 13.2C1040.01 12.24 1039.37 10.8 1038.72 9.72L1036.25 10.44ZM1048.65 14.04V16.776H1055.64V14.04H1048.65ZM1044.65 28.32V31.008H1053.24V28.32H1044.65ZM1047.07 9.6V22.104H1050.05V9.6H1047.07ZM1043.37 20.928V32.136H1046.16V23.616H1051.87V32.04H1054.8V20.928H1043.37Z" fill="white"/>
<path d="M1201.24 19.04V20.42H1217.92V19.04H1201.24ZM1200.62 31.32V32.7H1218.6V31.32H1200.62ZM1208.76 17.22V35.66H1210.3V17.22H1208.76ZM1204.16 26.36H1214.98V28.44H1204.16V26.36ZM1204.16 23.14H1214.98V25.18H1204.16V23.14ZM1202.72 21.88V29.68H1216.48V21.88H1202.72ZM1229.28 18.42V19.86H1239.1V18.42H1229.28ZM1235.12 24.38V33.66C1235.12 34 1235 34.08 1234.6 34.1C1234.24 34.12 1232.9 34.12 1231.48 34.08C1231.7 34.52 1231.9 35.14 1231.96 35.56C1233.92 35.56 1235.06 35.54 1235.74 35.32C1236.42 35.08 1236.64 34.62 1236.64 33.68V24.38H1235.12ZM1228.4 23.94V25.36H1239.68V23.94H1228.4ZM1224.4 25.48V35.66H1225.9V24.26L1225.72 24.18L1224.4 25.48ZM1226.72 21.48C1225.34 23.78 1223.14 26.1 1221.06 27.58C1221.38 27.86 1221.9 28.52 1222.12 28.82C1224.22 27.14 1226.58 24.56 1228.14 22.02L1226.72 21.48ZM1225.9 17.2C1224.88 18.64 1222.94 20.44 1221.28 21.56C1221.54 21.86 1221.94 22.44 1222.16 22.76C1223.94 21.48 1226 19.54 1227.34 17.78L1225.9 17.2ZM1252.97 34H1257.74C1258.16 24.752 1258.86 19.888 1264.36 13.168V10.32H1248.65V14.256H1259.31C1254.76 20.528 1253.42 25.808 1252.97 34ZM1276.74 24.78V26.24H1288.18V24.78H1276.74ZM1287.68 24.78V25.06C1287.42 31 1287.12 33.28 1286.58 33.82C1286.38 34.04 1286.14 34.08 1285.74 34.08C1285.26 34.08 1284.02 34.06 1282.7 33.94C1282.98 34.38 1283.18 35 1283.2 35.46C1284.46 35.52 1285.72 35.54 1286.38 35.48C1287.08 35.42 1287.52 35.28 1287.92 34.78C1288.64 34.02 1288.92 31.7 1289.2 25.5C1289.22 25.3 1289.24 24.78 1289.24 24.78H1287.68ZM1280.96 25.18C1280.56 28.96 1279.76 32.66 1274.52 34.4C1274.86 34.72 1275.3 35.32 1275.48 35.7C1281.06 33.7 1282.1 29.56 1282.56 25.18H1280.96ZM1278.88 17.86C1277.92 21 1276.08 23.68 1273.7 25.34C1274.06 25.6 1274.7 26.14 1274.96 26.44C1277.32 24.58 1279.32 21.7 1280.44 18.24L1278.88 17.86ZM1282.02 17.56V18.96H1286.4V17.56H1282.02ZM1284.96 17.56V18.4H1285.38C1286.48 21.62 1288.66 24.7 1291.32 26.4C1291.58 26 1292.08 25.38 1292.4 25.06C1289.84 23.62 1287.68 20.7 1286.66 17.56H1284.96ZM1301.96 33.98V35.12H1313.28V33.98H1301.96ZM1302.54 19.1V20.3H1312.88V19.1H1302.54ZM1302.88 31.44V32.56H1312.54V31.44H1302.88ZM1302 22.46V23.66H1313.34V22.46H1302ZM1304.42 27.94H1310.96V29.32H1304.42V27.94ZM1304.42 25.64H1310.96V26.98H1304.42V25.64ZM1303.12 24.62V30.32H1312.32V24.62H1303.12ZM1309.76 20.26C1309.52 21.02 1309.02 22.16 1308.62 22.88L1309.8 23.18C1310.22 22.5 1310.78 21.5 1311.22 20.58L1309.76 20.26ZM1304.24 20.56C1304.56 21.22 1304.88 22.1 1304.98 22.68L1306.3 22.34C1306.18 21.8 1305.86 20.92 1305.5 20.3L1304.24 20.56ZM1307 25.16V29.64H1306.94V34.52H1308.36V29.64H1308.28V25.16H1307ZM1306.28 17.5C1306.74 18.14 1307.12 19.08 1307.22 19.68L1308.68 19.26C1308.54 18.66 1308.12 17.76 1307.66 17.12L1306.28 17.5ZM1296.12 22.3V23.6H1301.08V22.3H1296.12ZM1295.1 25.8V27.1H1301.64V25.8H1295.1ZM1295.46 28.42C1295.78 29.62 1296.1 31.14 1296.16 32.16L1297.14 31.84C1297.06 30.86 1296.76 29.34 1296.4 28.16L1295.46 28.42ZM1294.88 33.58L1295.2 34.92C1296.96 34.5 1299.4 33.88 1301.7 33.3L1301.62 32.08C1299.12 32.66 1296.54 33.24 1294.88 33.58ZM1300.42 27.92C1300.26 29.02 1299.88 30.62 1299.56 31.6L1300.42 31.94C1300.76 31 1301.14 29.52 1301.5 28.3L1300.42 27.92ZM1297.94 22.88V33.76L1299.1 33.56V22.88H1297.94ZM1298.44 17.1C1297.56 19.06 1296.08 20.92 1294.62 22.08C1294.82 22.46 1295.14 23.26 1295.22 23.6C1296.82 22.16 1298.5 19.9 1299.52 17.62L1298.44 17.1ZM1297.96 19.16C1299.24 20.08 1300.68 21.34 1301.52 22.3L1302.18 21.08C1301.32 20.18 1299.88 18.96 1298.56 18.08L1297.96 19.16Z" fill="white"/>
<path d="M72 30L288 30" stroke="white"/>
<path d="M86 82L288 82" stroke="white"/>
<path d="M562 82L737 82" stroke="white"/>
<path d="M606 30L737 30" stroke="white"/>
<path d="M1075 30L1193 30" stroke="white"/>
<path d="M1006 81L1193 81" stroke="white"/>
<path d="M1028 134L1193 134" stroke="white"/>
<path d="M544 134L737 134" stroke="white"/>
<path d="M205 134L288 134" stroke="white"/>
</svg>
