<svg width="291" height="57" viewBox="0 0 291 57" fill="none" xmlns="http://www.w3.org/2000/svg">
<line x1="0.5" y1="24.9062" x2="290.5" y2="24.9062" stroke="white"/>
<circle cx="145.5" cy="25.4062" r="6" fill="white"/>
<path d="M107.04 6.43025L107.148 6.77825H117.684C117.852 6.77825 117.984 6.71825 118.008 6.58625C117.504 6.14225 116.664 5.49425 116.664 5.49425L115.92 6.43025H107.04ZM110.448 9.53825L110.544 9.88625H116.784C116.952 9.88625 117.084 9.82625 117.108 9.69425C116.628 9.26225 115.824 8.66225 115.824 8.66225L115.116 9.53825H110.448ZM108.936 14.0863L109.032 14.4223H117.708C117.876 14.4223 118.008 14.3623 118.044 14.2423C117.528 13.7862 116.676 13.1622 116.676 13.1622L115.932 14.0863H108.936ZM110.856 3.77825C110.532 7.22225 109.524 11.5062 106.836 14.2303L106.98 14.3383C110.436 11.8302 111.588 7.65425 112.14 4.30625C112.512 4.27025 112.608 4.17425 112.644 4.00625L110.856 3.77825ZM112.716 9.53825V14.2063H113.916V9.53825H112.716ZM120.108 6.51425L120.216 6.86225H130.956C131.136 6.86225 131.256 6.80225 131.292 6.67025C130.776 6.22625 129.924 5.57825 129.924 5.57825L129.18 6.51425H120.108ZM124.368 3.76625C123.888 6.61025 122.652 10.0062 120.072 12.0822L120.192 12.2022C123.42 10.3902 124.872 7.18625 125.604 4.43825C125.94 4.42625 126.036 4.33025 126.084 4.17425L124.368 3.76625ZM122.928 9.63425V14.9143H123.132C123.72 14.9143 124.092 14.6982 124.092 14.6263V9.98225H128.652V14.8303H128.856C129.456 14.8303 129.852 14.6023 129.852 14.5303V10.0662C130.128 10.0182 130.248 9.94625 130.32 9.83825L129.192 8.96225L128.604 9.63425H124.224L122.928 9.11825V9.63425ZM123.552 13.4982V13.8342H129.264V13.4982H123.552ZM138.528 10.3542L138.516 10.5462C139.716 10.6662 140.832 11.0022 141.336 11.2542C142.284 11.3022 142.188 9.47825 138.528 10.3542ZM138.612 12.1302L139.116 13.2822C139.236 13.2582 139.344 13.1502 139.404 12.9942C140.676 12.4422 141.624 11.9862 142.272 11.6742L142.248 11.5062C140.748 11.8062 139.26 12.0582 138.612 12.1302ZM142.356 9.09425H138.432V9.44225H142.356V9.09425ZM137.664 8.97425V10.4742C137.664 11.8782 137.556 13.5103 136.512 14.8303L136.632 14.9623C138.576 13.7262 138.756 11.7822 138.756 10.4742V9.09425H138.936L137.664 8.60225V8.97425ZM139.884 5.44625V7.82225H140.784V5.87825H140.94L139.884 5.44625ZM142.284 5.87825H140.304V6.22625H142.284V5.87825ZM143.088 7.66625H143.22C143.16 8.03825 143.004 8.75825 142.932 9.10625L143.088 9.17825C143.4 8.93825 143.928 8.48225 144.204 8.20625C144.444 8.19425 144.576 8.17025 144.66 8.07425L143.652 7.10225L143.088 7.66625ZM137.28 7.06625L137.112 7.05425C137.04 7.82225 136.74 8.33825 136.332 8.55425C135.408 9.76625 138.24 10.3062 137.28 7.06625ZM137.868 4.00625V7.81025H138.864V4.81025H141.912V7.81025H142.944V4.91825C143.244 4.87025 143.388 4.82225 143.484 4.69025L142.272 3.83825L141.78 4.46225H138.996L137.868 4.00625ZM141.84 9.09425H141.96V13.4022C141.96 13.5702 141.9 13.6422 141.696 13.6422C141.468 13.6422 140.34 13.5582 140.34 13.5582V13.7382C140.868 13.8222 141.132 13.9423 141.312 14.1223C141.468 14.2903 141.528 14.5543 141.552 14.9023C142.872 14.7823 143.028 14.3143 143.028 13.5342V9.61025C143.268 9.56225 143.436 9.47825 143.508 9.38225L142.344 8.50625L141.84 9.09425ZM143.472 7.66625H137.22V8.01425H143.472V7.66625ZM133.908 11.4102C133.776 11.4102 133.38 11.4102 133.38 11.4102V11.6622C133.632 11.6862 133.824 11.7222 133.98 11.8422C134.256 12.0222 134.316 13.0782 134.124 14.3263C134.184 14.7343 134.4 14.9383 134.628 14.9383C135.12 14.9383 135.444 14.5783 135.468 14.0143C135.504 12.9822 135.084 12.4782 135.072 11.8782C135.06 11.5902 135.144 11.1942 135.24 10.8102C135.408 10.1982 136.284 7.45025 136.752 5.98625L136.56 5.92625C134.46 10.7383 134.46 10.7383 134.232 11.1582C134.112 11.4102 134.064 11.4102 133.908 11.4102ZM133.38 6.68225L133.272 6.77825C133.68 7.12625 134.16 7.72625 134.28 8.27825C135.312 8.97425 136.188 6.98225 133.38 6.68225ZM134.1 3.83825L133.992 3.93425C134.448 4.33025 134.988 5.00225 135.144 5.61425C136.224 6.32225 137.112 4.24625 134.1 3.83825ZM146.52 6.05825L146.616 6.40625H152.616C152.784 6.40625 152.904 6.34625 152.94 6.21425C152.508 5.81825 151.812 5.30225 151.812 5.30225L151.2 6.05825H146.52ZM146.7 11.6982L146.796 12.0462H152.28C152.448 12.0462 152.556 11.9862 152.592 11.8542C152.184 11.4942 151.536 10.9902 151.536 10.9902L150.972 11.6982H146.7ZM146.544 13.4022L147.072 14.8063C147.204 14.7823 147.336 14.6863 147.408 14.5303C149.784 13.8822 151.44 13.3422 152.604 12.9342L152.58 12.7542C150.036 13.0662 147.576 13.3422 146.544 13.4022ZM147.492 8.77025V9.11825H151.692V8.77025H147.492ZM147.492 10.2462V10.5822H151.692V10.2462H147.492ZM151.548 3.75425C150.42 4.18625 148.26 4.76225 146.568 5.02625L146.604 5.23025C148.428 5.20625 150.552 5.00225 151.932 4.79825C152.232 4.93025 152.484 4.93025 152.604 4.82225L151.548 3.75425ZM149.064 4.84625V13.6182H149.232C149.736 13.6182 150.072 13.3902 150.072 13.3062V4.64225L149.064 4.84625ZM146.952 7.30625V11.0862H147.12C147.624 11.0862 147.936 10.8942 147.936 10.8223V7.65425H151.248V10.8702H151.428C151.932 10.8702 152.28 10.6662 152.28 10.6062V7.72625C152.532 7.67825 152.652 7.60625 152.724 7.51025L151.704 6.74225L151.212 7.30625H148.068L146.952 6.86225V7.30625ZM152.508 6.75425L152.616 7.10225H156.612V6.75425H152.508ZM153.804 3.92225C153.804 8.98625 154.08 12.3822 151.272 14.7703L151.416 14.9623C155.1 12.8142 154.86 9.40625 154.908 4.41425C155.196 4.36625 155.316 4.25825 155.352 4.07825L153.804 3.92225ZM156.216 6.75425C156.156 10.9542 156.024 13.0182 155.652 13.4022C155.532 13.5103 155.436 13.5462 155.232 13.5462C155.004 13.5462 154.404 13.4982 154.02 13.4622V13.6542C154.416 13.7382 154.764 13.8822 154.92 14.0383C155.064 14.2063 155.1 14.4703 155.1 14.8303C155.64 14.8303 156.132 14.6623 156.48 14.2783C157.044 13.6542 157.212 11.8422 157.284 7.27025C157.548 7.24625 157.704 7.16225 157.776 7.06625L156.684 6.11825L156.084 6.75425H156.216ZM161.808 4.88225H159.696L159.804 5.23025H161.808V4.88225ZM165.3 4.25825L164.844 4.88225H163.488L163.584 5.23025H165.84C166.008 5.23025 166.128 5.17025 166.152 5.03825C165.84 4.70225 165.3 4.25825 165.3 4.25825ZM164.616 3.85025L163.248 3.71825V6.04625H163.428C163.8 6.04625 164.244 5.86625 164.244 5.78225V4.12625C164.496 4.10225 164.592 3.99425 164.616 3.85025ZM162.732 3.86225L161.364 3.73025V6.07025H161.544C161.916 6.07025 162.348 5.90225 162.348 5.81825V4.13825C162.612 4.10225 162.708 4.00625 162.732 3.86225ZM162.612 8.41025L162.492 8.47025C162.66 8.74625 162.864 9.21425 162.888 9.59825C163.644 10.2462 164.652 8.86625 162.612 8.41025ZM164.568 6.50225H164.664V8.60225H164.796C165.048 8.60225 165.456 8.43425 165.468 8.36225V6.92225C165.648 6.89825 165.804 6.81425 165.864 6.74225L164.976 6.07025L164.568 6.50225ZM163.092 6.09425V8.67425H163.224C163.632 8.67425 163.884 8.47025 163.884 8.41025V6.50225H164.04L163.092 6.09425ZM165.048 7.93025H163.452V8.27825H165.048V7.93025ZM165.048 6.50225H163.452V6.85025H165.048V6.50225ZM161.64 6.50225H161.736V8.65025H161.868C162.12 8.65025 162.528 8.48225 162.528 8.41025V6.92225C162.708 6.89825 162.864 6.81425 162.912 6.74225L162.048 6.08225L161.64 6.50225ZM160.164 6.10625V8.79425H160.296C160.704 8.79425 160.956 8.60225 160.956 8.54225V6.50225H161.112L160.164 6.10625ZM162.288 8.92625L160.992 8.50625C160.704 9.76625 160.188 11.0502 159.672 11.8662L159.84 11.9862C160.62 11.3262 161.328 10.2942 161.832 9.15425C162.096 9.16625 162.24 9.05825 162.288 8.92625ZM163.728 9.80225H162.768V13.8582H163.728V9.80225ZM161.604 14.5783V9.69425H161.76L161.268 9.50225L160.62 10.4382V14.8903H160.788C161.292 14.8903 161.604 14.6623 161.604 14.5783ZM164.928 12.9942L164.4 13.6542H160.98V14.0023H165.612C165.78 14.0023 165.888 13.9423 165.924 13.8102C165.54 13.4502 164.928 12.9942 164.928 12.9942ZM164.652 11.7102L164.184 12.2982H160.98V12.6462H165.24C165.396 12.6462 165.516 12.5862 165.528 12.4542C165.192 12.1302 164.652 11.7102 164.652 11.7102ZM164.652 10.3902L164.184 10.9782H160.98V11.3262H165.228C165.396 11.3262 165.504 11.2662 165.528 11.1342C165.192 10.8102 164.652 10.3902 164.652 10.3902ZM164.88 9.07025L164.364 9.69425H161.004V10.0422H165.504C165.672 10.0422 165.792 9.98225 165.816 9.85025C165.444 9.51425 164.88 9.07025 164.88 9.07025ZM162.12 7.93025H160.56V8.27825H162.12V7.93025ZM162.12 6.50225H160.56V6.85025H162.12V6.50225ZM167.808 10.5222H166.764C166.74 12.4782 166.464 13.7262 164.736 14.7583L164.808 14.9383C167.052 14.1343 167.724 12.8262 167.808 10.5222ZM169.26 10.5102H168.252V13.7742C168.252 14.3743 168.36 14.6143 169.116 14.6143H169.632C170.676 14.6143 171.024 14.4343 171.024 14.0623C171.024 13.8822 170.976 13.7742 170.724 13.6422L170.676 12.3462H170.544C170.4 12.8982 170.268 13.4622 170.184 13.6062C170.136 13.7022 170.1 13.7142 170.016 13.7262C169.956 13.7262 169.86 13.7262 169.728 13.7262H169.44C169.284 13.7262 169.26 13.6902 169.26 13.5582V10.8702C169.26 10.7862 169.26 10.6422 169.26 10.5102ZM166.02 3.95825V11.3382H166.188C166.716 11.3382 167.04 11.1222 167.04 11.0382V4.76225H169.092V11.1102H169.272C169.788 11.1102 170.16 10.8942 170.16 10.8342V4.84625C170.424 4.81025 170.556 4.73825 170.64 4.63025L169.572 3.79025L169.044 4.41425H167.184L166.02 3.95825ZM169.716 10.4262H166.476V10.7742H169.716V10.4262ZM169.716 8.48225H166.476V8.83025H169.716V8.48225ZM169.716 6.56225H166.476V6.91025H169.716V6.56225ZM173.028 7.94225L173.124 8.27825H183.72C183.888 8.27825 184.02 8.21825 184.044 8.08625C183.564 7.66625 182.784 7.09025 182.784 7.09025L182.1 7.94225H173.028ZM173.916 6.45425L174.012 6.79025H182.88C183.048 6.79025 183.168 6.73025 183.204 6.59825C182.736 6.19025 181.968 5.61425 181.968 5.61425L181.296 6.45425H173.916ZM176.952 9.26225H177.108L176.256 8.93825L175.824 9.58625V14.9263H176.028C176.592 14.9263 176.952 14.6623 176.952 14.5663V9.26225ZM176.388 10.7022V11.0502H181.812V10.7022H176.388ZM176.4 12.2022V12.5502H181.824V12.2022H176.4ZM176.4 13.7382V14.0863H181.824V13.7382H176.4ZM181.956 3.79025C180.084 4.36625 176.484 5.00225 173.592 5.21825L173.616 5.43425C176.64 5.47025 180.072 5.17025 182.316 4.81025C182.652 4.96625 182.904 4.96625 183.024 4.85825L181.956 3.79025ZM177.408 4.96625C176.808 7.72625 175.32 10.3302 172.896 11.9862L173.028 12.1302C176.1 10.5822 177.876 8.14625 178.644 5.15825V4.96625H177.408ZM176.376 9.26225V9.59825H181.812V9.26225H176.376ZM181.284 9.26225V14.9023H181.464C181.848 14.9023 182.424 14.6623 182.436 14.5783V9.76625C182.64 9.73025 182.796 9.63425 182.868 9.55025L181.728 8.66225L181.176 9.26225H181.284Z" fill="white"/>
<path d="M152.197 41.5896L152.808 39.3053C152.92 38.8069 153.211 38.3672 153.627 38.0697C153.851 37.9273 154.103 37.836 154.366 37.8025C154.63 37.769 154.897 37.794 155.15 37.8757C155.41 37.9308 155.657 38.0396 155.874 38.1953C156.09 38.351 156.272 38.5501 156.407 38.7799C156.542 39.0098 156.628 39.2653 156.659 39.5301C156.69 39.795 156.665 40.0634 156.586 40.3182L154.237 49.1253C153.996 50.0079 153.636 50.8537 153.167 51.6396C149.094 58.6077 139.195 57.0058 136.321 49.5636C135.603 47.7533 134.339 37.5524 134.339 37.5524C134.31 37.2703 134.345 36.9855 134.441 36.7186C134.537 36.4517 134.69 36.2094 134.891 36.0092C135.092 35.8091 135.335 35.6562 135.602 35.5616C135.869 35.4669 136.154 35.4329 136.436 35.462C136.953 35.4583 137.451 35.6491 137.833 35.9965C138.216 36.344 138.453 36.8225 138.498 37.337L139.532 42.4373L143.677 26.9207C143.806 26.4063 144.134 25.964 144.588 25.6911C145.043 25.4183 145.587 25.3374 146.102 25.466C146.616 25.5946 147.058 25.9222 147.331 26.3769C147.604 26.8316 147.685 27.376 147.556 27.8904L144.446 39.5207L145.725 34.7293C145.791 34.4738 145.907 34.234 146.066 34.0234C146.224 33.8128 146.423 33.6357 146.651 33.5022C146.879 33.3687 147.13 33.2815 147.392 33.2455C147.653 33.2095 147.919 33.2255 148.174 33.2926C148.689 33.4277 149.129 33.7613 149.399 34.2205C149.668 34.6797 149.744 35.2268 149.611 35.7421L148.332 40.5408L149.288 36.949C149.356 36.6953 149.473 36.4574 149.633 36.2489C149.793 36.0404 149.992 35.8655 150.219 35.7341C150.447 35.6026 150.698 35.5174 150.958 35.483C151.219 35.4486 151.484 35.4659 151.737 35.5339C151.991 35.6018 152.229 35.719 152.437 35.8788C152.646 36.0387 152.821 36.2381 152.952 36.4656C153.084 36.693 153.169 36.9442 153.203 37.2046C153.238 37.4651 153.22 37.7297 153.153 37.9835L152.808 39.2909L152.197 41.5896Z" fill="#982830" stroke="white" stroke-linecap="round" stroke-linejoin="round"/>
</svg>
