<svg xmlns="http://www.w3.org/2000/svg" viewBox="0 0 1210.75 80.63"><defs><style>.cls-1{fill:none;stroke:#005e3c;stroke-miterlimit:10;stroke-width:3px;}.cls-2{font-size:22px;fill:#534741;font-family:NotoSansCJKtc-Medium-B5pc-H, Noto Sans CJK TC;letter-spacing:0.08em;}.cls-3{letter-spacing:-0.17em;}.cls-4{letter-spacing:-0.17em;}.cls-5{letter-spacing:0.04em;}.cls-6{letter-spacing:0.04em;}.cls-7{letter-spacing:-0.21em;}.cls-8{fill:#005e3c;}</style></defs><g id="圖層_2" data-name="圖層 2"><g id="圖層_3" data-name="圖層 3"><polyline class="cls-1" points="1209.25 0 1209.25 79.13 0 79.13"/><text class="cls-2" transform="translate(525.86 24.36)">以白色為空間主旋<tspan class="cls-3" x="189.42" y="0">律，</tspan><tspan x="225.78" y="0">皮革與金</tspan><tspan class="cls-3" x="320.49" y="0">屬、</tspan><tspan x="356.85" y="0">水磨石與玻璃呼應搭</tspan><tspan class="cls-4" x="569.95" y="0">配，</tspan><tspan x="606.31" y="0">簡</tspan><tspan class="cls-5" x="629.98" y="0">約</tspan><tspan class="cls-6"><tspan x="0" y="33.2">大器空間語</tspan><tspan class="cls-7" x="114.4" y="33.2">彙，</tspan><tspan x="149.16" y="33.2">為優雅時尚畫龍點</tspan><tspan class="cls-7" x="332.2" y="33.2">睛，</tspan><tspan x="366.96" y="33.2">隨處充滿令人驚喜的巧</tspan><tspan class="cls-7" x="595.76" y="33.2">思。</tspan></tspan></text><path class="cls-8" d="M150.43,55.34c1.42.58,1.73,1.2,1.73,2.27,0,2.18-1.91,3.2-9.25,3.2H138.5c-4.54,0-5.61-1-5.61-4.67v-17h-4.72c-.84,11.17-4.76,19-18,22.84l-.22-.49c9.61-5.26,12-12.73,12.24-22.35H110.46l-.36-1.29h18.07V20.27l7.08.62c-.09.62-.45,1.07-1.65,1.25V37.89h10l3-3.78s3.34,2.54,5.39,4.36c-.14.49-.63.71-1.25.71H138.19V54.81c0,.71.26,1,1.6,1h3.65c1.34,0,2.45,0,3.07-.08a1.18,1.18,0,0,0,1.11-.67,55.2,55.2,0,0,0,2.14-6.77h.49ZM114.51,23.16c14.29,5,9.39,16,4.14,11.53-.31-3.88-2.36-8.19-4.54-11.26ZM149.4,26a1.61,1.61,0,0,1-1.82.72,55,55,0,0,1-10.33,9.25l-.49-.35a106.62,106.62,0,0,0,5.52-12.82Z"/><path class="cls-8" d="M195,56.36c1.34,2.85,1.61,4.45.76,5-2.27,1.74-5.7-.53-7.25-2.62a35,35,0,0,1-6-12.51,33.26,33.26,0,0,1-6.32,2.8l-.4-.53a26.52,26.52,0,0,0,6-4.94,90.3,90.3,0,0,1-1.74-16.07H162.26v8.24c0,7.56-.26,18.56-7.34,25.81l-.53-.36c3.11-7.7,3.2-17.4,3.2-25.45V24.27l5.43,2h17c0-2-.09-4-.09-6l6.45.67-.26-.36.44-.22c7.88,1.56,3.87,6.68,1.07,4.09a7.23,7.23,0,0,0-1-3.16c-.18.41-.63.76-1.56.9,0,1.33,0,2.71,0,4.09H190L192.26,23s2.59,2.23,4.1,3.79c-.09.49-.54.71-1.16.71H185.1a83.71,83.71,0,0,0,.71,10.73,31.4,31.4,0,0,0,3.29-8l6.32,2.53c-.26.54-.84.89-1.87.8a28.15,28.15,0,0,1-6.81,9.62A25,25,0,0,0,191.82,54c.58.76.84.76,1.29,0a56.76,56.76,0,0,0,2.49-5.35l.49.09Zm-32-6.85c1.6,4.27,1.25,7.61,0,9.08-.84,1-2.8,1.11-3.47-.13a2.42,2.42,0,0,1,1.11-3.12,8.27,8.27,0,0,0,1.65-5.83Zm12.86-20.92s2.76,2.14,4.5,3.69c-.13.49-.58.72-1.2.72H163.47l-.36-1.3h10.33Zm-7.16,17c0,.35-2,1.38-3.87,1.38h-.67V34.11L168.94,36h4.63l2.09-2.23,4.5,3.3a2.61,2.61,0,0,1-1.56.8v6.76c0,.27-2.36,1.12-3.83,1.12H174V43.9h-5.25Zm9.39,11.08c1,.45,1.2.93,1.2,1.65,0,1.64-1.47,2.49-6.81,2.49h-3.25c-3.42,0-4-.8-4-3.38V47.77l5.21.49c-.09.58-.49,1-1.34,1.12v7c0,.54.14.67,1.16.67h2.54a20.85,20.85,0,0,0,2.27-.09.75.75,0,0,0,.8-.44,29.75,29.75,0,0,0,1.51-4.81H178Zm-9.39-19.41v5.43H174V37.22Zm1.91,9c8.5,3.91,4.23,10.28,1.25,7.16a13.21,13.21,0,0,0-1.78-6.9Zm7.84,2.62c9,5,5.07,11.93,1.82,8.72.05-2.8-1.2-6.18-2.31-8.54Z"/><path class="cls-8" d="M216.34,26.14a3.14,3.14,0,0,1-1.82.94V54.14c-.05.35-2.32,1.38-4,1.38h-.75V52.18h-4.54v4c0,.35-1.47,1.46-3.87,1.46h-.81v-35L205.84,25h3.51l2.27-2.58Zm-11.08.13V37.76h4.54V26.27Zm4.54,24.62V39h-4.54V50.89ZM215,28.32l-.36-1.24h9.62V20.67l6.67.57c0,.63-.4,1.07-1.6,1.25v4.59h3.79l2.62-3.48s3,2.36,4.72,4c-.09.49-.58.71-1.25.71h-9.88v7h2.36l2.76-3.65s3.12,2.45,4.94,4.18c-.13.49-.58.72-1.24.72H217.32L217,35.31h7.26v-7Zm22.52,10.6s2.67,2.35,4.19,4c-.09.49-.58.71-1.21.71h-6V55.87c0,3.56-.81,5.57-6.77,6.1-.13-1.6-.36-2.8-1.07-3.56s-1.73-1.38-4.05-1.74v-.62s4.94.31,5.88.31c.71,0,.93-.22.93-.75v-12H215.05l-.31-1.25h14.64V37.09l6.63.62c-.13.67-.58,1-1.55,1.16v3.47h.71Zm-19.76,5.74c12.24,2.94,7.3,11.88,2.72,8.05a16.54,16.54,0,0,0-3.12-7.79Z"/><path class="cls-8" d="M284.35,34.2a3,3,0,0,1-1.83.89v21c0,3.47-.8,5.47-6.81,6-.18-1.65-.4-2.81-1.11-3.61s-1.69-1.34-4.05-1.69v-.62s4.63.31,5.83.31c.76,0,.94-.31.94-.89V34.24H251.54V60.37c0,.58-2.13,1.78-4.27,1.78h-.8V30.68L252,33h9.7V20.18l6.86.53c-.09.62-.4,1.07-1.61,1.25V33h9.93l2.4-2.67ZM249.1,21.65c13.75,2.8,9.57,13.08,4.45,9.43a19.9,19.9,0,0,0-4.9-9.17Zm23.63,30.71c0,.31-2.36,1.33-4,1.33H268v-3.2h-7.3v2.8c0,.4-2,1.47-4,1.47h-.67V37.89l4.86,2h6.63l2.27-2.49L274.56,41a3,3,0,0,1-1.83.84ZM268,49.2V41.1h-7.3v8.1Zm13-24.88a1.72,1.72,0,0,1-1.87.71,48.17,48.17,0,0,1-9,7l-.49-.4a80.87,80.87,0,0,0,4.45-10.42Z"/><path class="cls-8" d="M290.58,41.85a3.67,3.67,0,1,1,7.34,0,3.67,3.67,0,0,1-7.34,0Z"/><path class="cls-8" d="M313.59,32.73c-.18.4-.58.71-1.43.84V60.64c0,.35-2,1.33-3.83,1.33h-.89V38.38a32,32,0,0,1-4.45,5l-.58-.35a76.64,76.64,0,0,0,7.39-22.84l6.95,1.43a1.6,1.6,0,0,1-1.65,1.06,63.8,63.8,0,0,1-3.74,9.17Zm31.78,5.79c-.32.4-.81.44-1.7.48a36.34,36.34,0,0,1-3.29,2.14c3.83,2.54,1.56,6.63-1.38,4.81a13.33,13.33,0,0,0-4.36-6.19l.44-.36a14.63,14.63,0,0,1,3.7.9c.18-.67.4-1.38.53-2h-21c.18,2.22-.49,3.91-1.51,4.63a2.44,2.44,0,0,1-3.52-.89c-.49-1.29.32-2.41,1.52-3a4.93,4.93,0,0,0,2-4.14h.67a17.24,17.24,0,0,1,.67,2.14h1.33V25l5.39,2h1.56c.08-.85.17-1.83.17-2.72h-10l-.36-1.29h20.48L339.45,20s3.07,2.14,5,3.7c-.14.49-.63.71-1.25.71H331.52a31.34,31.34,0,0,1-3.42,2.72h5.69l2.32-2.41,4.63,3.47a3,3,0,0,1-1.65.8v8h.09l2.27-2.27Zm-4.14,12.19c-.36.4-.8.53-1.87.62a19.33,19.33,0,0,1-4.9,4.81,78.36,78.36,0,0,0,10.28.67l0,.53a4.73,4.73,0,0,0-3,4.36c-5.29-.49-9.39-1.33-12.55-2.71a54.12,54.12,0,0,1-14.33,3.07l-.22-.62a42.81,42.81,0,0,0,11.57-4,17.9,17.9,0,0,1-4.05-3.51,28.06,28.06,0,0,1-6.9,3.87l-.4-.45a28.7,28.7,0,0,0,5.38-6,28.68,28.68,0,0,1-1.73-3l.44-.67a14.51,14.51,0,0,0,2,2.58,22.41,22.41,0,0,0,2-3.87l6.68,1.24c-.14.54-.58.8-1.92.89a7.32,7.32,0,0,1-.58.72H334l2.81-2.59ZM320.75,39.36c1,3.65-.09,6.32-1.51,7.39-1,.71-2.76.71-3.29-.49s.17-2.09,1.24-2.72A6.09,6.09,0,0,0,320,39.32Zm6.37.09c-.09.58-.49.93-1.25,1.07v2.76c0,.44.09.58,1.2.58H333a1.18,1.18,0,0,0,.94-.32A10.81,10.81,0,0,0,335.17,41h.54l.13,2.58c1.11.4,1.38.71,1.38,1.29,0,1.6-1.51,1.87-7.34,1.87h-3.74c-3.56,0-4.1-.76-4.1-3.12V39ZM326,50.53a23.57,23.57,0,0,1-2.23,2.09,20.87,20.87,0,0,0,5.79,2.54,18.82,18.82,0,0,0,4.27-4.63Zm-1.69-22.21v2.05h9.92V28.32Zm9.92,3.34h-9.92v2.05h9.92ZM324.27,37h9.92V35h-9.92Zm3.43,1.47c8.14,1.06,5.11,6.94,2,4.71a10,10,0,0,0-2.44-4.4Z"/><path class="cls-8" d="M385.42,53.65s2.89,2.45,4.63,4.05c-.09.49-.58.71-1.2.71h-16v2.18c0,.36-1.52,1.47-3.92,1.47h-.85v-23a1,1,0,0,1-.89.58c-.71.89-1.47,1.78-2.22,2.58l-.49-.4c.31-.71.66-1.43.93-2.18h-2.67V56.36c0,3.16-.8,5.3-6.14,5.7a5,5,0,0,0-.85-3.07c-.62-.67-1.51-1.2-3.56-1.51v-.67s4,.31,4.85.31c.72,0,.94-.31.94-.89V46.75a38.36,38.36,0,0,1-10,12.06l-.58-.49c3.78-5,6.5-12.15,8-18.69h-1.91l-1.69,2.09-4.41-2.67a6.92,6.92,0,0,1,1.51-1c.76-3.74,1.69-10,2-13.26h-2.76l-.35-1.25H358v0h2.62l2.36-3.12s2.72,2.18,4.37,3.69c-.09.54-.54.72-1.16.72h-3.43V37.58l1.56-2.09s1,.8,2,1.73a81.62,81.62,0,0,0,3.61-16.86l6.81,1.69a11.17,11.17,0,0,0-.71-1.34l.4-.22c10.9,2.89,5.47,10.81,1.51,7a12.48,12.48,0,0,0-1.07-5.21c-.18.4-.58.71-1.51.75a65.34,65.34,0,0,1-2.27,6.28l.35.14h9l2.54-3.3s2.81,2.27,4.45,3.87c-.13.49-.58.72-1.2.72h-6.85v7.79h1l2.35-3.3s2.63,2.32,4.19,3.87c-.13.49-.62.72-1.25.72h-6.27v7.87h1.11l2.36-3.29s2.62,2.27,4.18,3.83c-.13.49-.58.71-1.2.71h-6.45v8.23h1.51ZM358,38.38V24.81h-2.49c-.4,3.47-1.34,9.57-2.1,13.57Zm14.87-7.65v7.79h4V30.73Zm4,9.08h-4v7.87h4Zm-4,17.35h4V48.93h-4Z"/><path class="cls-8" d="M413.55,31.66c-1.2.4-2.45.76-3.83,1.16-.58,5.78-1.69,11.3-4.05,16.15,8.37,5.3,4,10,.53,7.88a22.26,22.26,0,0,0-3-3.78,28.1,28.1,0,0,1-10.86,9l-.49-.45a29.37,29.37,0,0,0,8.77-11.13A50,50,0,0,0,393,44.88c.62-2.14,1.38-5.21,2.05-8.5l-1,.22a1.83,1.83,0,0,1-1.33,1l-1.12-5.39c1.12,0,2.59,0,4.37,0,.89-4.72,1.64-9.35,1.91-12l6.45,1.06c-.13.49-.35,1-1.73,1.12-.45,2.36-1.11,5.83-1.92,9.57,1.25-.05,2.63-.14,4-.23.05-1.64.09-3.29.05-4.94l7,1.21c-.17.71-.71,1.11-1.73,1.2-.05.71-.09,1.42-.14,2.18,1.25-.13,2.41-.22,3.65-.36ZM402,47.11a50.83,50.83,0,0,0,2.49-12.87c-1.42.36-3,.71-4.63,1.12-.75,3.47-1.64,7-2.49,9.88A47.61,47.61,0,0,1,402,47.11ZM429.3,36.56s3.08,2.49,4.9,4.18c-.13.49-.58.71-1.2.71h-9.53V56c0,3.56-.71,5.56-6.49,6.05A7,7,0,0,0,416,58.5c-.67-.8-1.65-1.38-3.78-1.74v-.62s4.36.31,5.29.31c.67,0,.89-.22.89-.75V41.45h-8.32l-.36-1.24h8.68V32.77l3.57.36c1.15-2.23,2.44-5.25,3.29-7.35H411.5l-.4-1.24h14.15l2.85-2.81,4.72,4.32a2.7,2.7,0,0,1-1.82.54,79.59,79.59,0,0,1-7.66,6.63l1.74.18c-.14.62-.54,1-1.61,1.15v5.66h3.16Z"/><path class="cls-8" d="M478.13,28.1c-.31.4-.76.49-1.6.53a25.87,25.87,0,0,1-5,4.23l.17.18c-.08.49-.57.71-1.2.71H456.05l4.14,2c-.22.44-.76.76-1.73.62a60,60,0,0,1-11.13,5.17c4.81,0,11.88-.14,19.27-.36a35,35,0,0,0-3.92-4.14l.4-.31c14.47,2.14,11.84,12.06,6.68,9.39a19,19,0,0,0-2.4-4c-3.25.67-7.52,1.42-12.56,2.23l6.86.53c-.09.67-.4,1.07-1.56,1.25v4.67h5.48l2.8-3.52s3.25,2.36,5.25,4.05c-.13.49-.62.72-1.24.72H460.1v6.58h9.39l3-3.69s3.38,2.49,5.38,4.27c-.13.49-.62.71-1.24.71H437.45l-.4-1.29h17.49V52.14H441.9l-.36-1.25h13V44.48c-2.81.44-5.79.93-9,1.38a3.18,3.18,0,0,1-1.29,1.25L442,41.45a9.87,9.87,0,0,0,1.55-.4c3.21-1.15,7.44-4.76,9.62-7.3h-9.62l-.35-1.29H464l2.72-3.34s2.45,1.78,4.32,3.34c.13-1.38.26-3.29.35-4.81H443.9c.27,3.12-.85,5.3-2.36,6.28a2.75,2.75,0,0,1-4.09-1.07,2.87,2.87,0,0,1,1.69-3.47,6.48,6.48,0,0,0,3.2-5.52H443a16.1,16.1,0,0,1,.71,2.49h13.08a3.52,3.52,0,0,1-.8-.4,8.5,8.5,0,0,0-3.11-5.29l.31-.27c9-.49,8.72,4.81,5.92,6h11.84l2.62-2.67Z"/><path class="cls-8" d="M51,58.4v2.43H28.57V58.4l6.73-.76L30.93,44.19H14.36l-4.1,13.38,6.8.83v2.43H.83V58.4l6-.83L22.61,9.16h6L45.22,57.78ZM30.1,41.62,22.47,17.83,15.12,41.62Z"/><path class="cls-8" d="M81.76,58.68v2.15H52V58.68l10.27-1.25q.19-6.45.2-12.9V16.38l-9,.9V14.71L71,10.55l1,.76-.28,11.17V44.53q0,6.45.21,12.9Z"/><line class="cls-1" x1="104.14" y1="23.32" x2="89.6" y2="62.81"/></g></g></svg>