<svg xmlns="http://www.w3.org/2000/svg" xmlns:xlink="http://www.w3.org/1999/xlink" width="345.001" height="96.976" viewBox="0 0 345.001 96.976">
  <defs>
    <clipPath id="clip-path">
      <path id="Path_236" data-name="Path 236" d="M8765.881,3622.034s1.7,12.744-7.719,22.16c-12.21,12.21-28.587,14.146-32.33,17.889,3.743-3.743,5.679-20.12,17.889-32.33C8753.136,3620.338,8765.881,3622.034,8765.881,3622.034Z" fill="none" stroke="#000" stroke-miterlimit="10" stroke-width="0.27"/>
    </clipPath>
    <clipPath id="clip-path-2">
      <circle id="Ellipse_22" data-name="Ellipse 22" cx="11.128" cy="11.128" r="11.128" transform="matrix(0.528, -0.849, 0.849, 0.528, 8702.426, 3655.417)" fill="none" stroke="#000" stroke-miterlimit="10" stroke-width="0.27"/>
    </clipPath>
  </defs>
  <g id="Group_1270" data-name="Group 1270" transform="translate(-30 -3621.748)">
    <text id="啾啾鳥啼環境好美" transform="translate(31.34 3664.081)" font-size="20" font-family="NotoSansHant-Bold, Noto Sans T Chinese" font-weight="700"><tspan x="0" y="0">啾啾鳥啼環境好美</tspan></text>
    <text id="自然為鄰_公園綠地健康生活_呼吸美好鮮活空氣_" data-name="自然為鄰，公園綠地健康生活，呼吸美好鮮活空氣！" transform="translate(30 3679.724)" font-size="13" font-family="NotoSansHant-Regular, Noto Sans T Chinese" letter-spacing="0.025em"><tspan x="0" y="11">自然為鄰，公園綠地健康生活，呼吸美好鮮活空氣！</tspan></text>
    <g id="Group_379" data-name="Group 379" transform="translate(-8512)">
      <g id="Group_373" data-name="Group 373">
        <g id="Group_372" data-name="Group 372" clip-path="url(#clip-path)">
          <g id="Group_371" data-name="Group 371">
            <g id="Group_369" data-name="Group 369">
              <rect id="Rectangle_175" data-name="Rectangle 175" width="107.646" height="107.645" transform="translate(8692.033 3588.236)" fill="none" stroke="#000" stroke-miterlimit="10" stroke-width="0.27"/>
              <line id="Line_87" data-name="Line 87" x2="107.646" transform="translate(8692.033 3598.022)" fill="none" stroke="#000" stroke-miterlimit="10" stroke-width="0.27"/>
              <line id="Line_88" data-name="Line 88" x2="107.646" transform="translate(8692.033 3607.808)" fill="none" stroke="#000" stroke-miterlimit="10" stroke-width="0.27"/>
              <line id="Line_89" data-name="Line 89" x2="107.646" transform="translate(8692.033 3617.594)" fill="none" stroke="#000" stroke-miterlimit="10" stroke-width="0.27"/>
              <line id="Line_90" data-name="Line 90" x2="107.646" transform="translate(8692.033 3627.38)" fill="none" stroke="#000" stroke-miterlimit="10" stroke-width="0.27"/>
              <line id="Line_91" data-name="Line 91" x2="107.646" transform="translate(8692.033 3637.166)" fill="none" stroke="#000" stroke-miterlimit="10" stroke-width="0.27"/>
              <line id="Line_92" data-name="Line 92" x2="107.646" transform="translate(8692.033 3646.952)" fill="none" stroke="#000" stroke-miterlimit="10" stroke-width="0.27"/>
              <line id="Line_93" data-name="Line 93" x2="107.646" transform="translate(8692.033 3656.738)" fill="none" stroke="#000" stroke-miterlimit="10" stroke-width="0.27"/>
              <line id="Line_94" data-name="Line 94" x2="107.646" transform="translate(8692.033 3666.523)" fill="none" stroke="#000" stroke-miterlimit="10" stroke-width="0.27"/>
              <line id="Line_95" data-name="Line 95" x2="107.646" transform="translate(8692.033 3676.309)" fill="none" stroke="#000" stroke-miterlimit="10" stroke-width="0.27"/>
              <line id="Line_96" data-name="Line 96" x2="107.646" transform="translate(8692.033 3686.095)" fill="none" stroke="#000" stroke-miterlimit="10" stroke-width="0.27"/>
              <line id="Line_97" data-name="Line 97" y1="107.645" transform="translate(8789.894 3588.236)" fill="none" stroke="#000" stroke-miterlimit="10" stroke-width="0.27"/>
              <line id="Line_98" data-name="Line 98" y1="107.645" transform="translate(8780.107 3588.236)" fill="none" stroke="#000" stroke-miterlimit="10" stroke-width="0.27"/>
              <line id="Line_99" data-name="Line 99" y1="107.645" transform="translate(8770.321 3588.236)" fill="none" stroke="#000" stroke-miterlimit="10" stroke-width="0.27"/>
              <line id="Line_100" data-name="Line 100" y1="107.645" transform="translate(8760.535 3588.236)" fill="none" stroke="#000" stroke-miterlimit="10" stroke-width="0.27"/>
              <line id="Line_101" data-name="Line 101" y1="107.645" transform="translate(8750.749 3588.236)" fill="none" stroke="#000" stroke-miterlimit="10" stroke-width="0.27"/>
              <line id="Line_102" data-name="Line 102" y1="107.645" transform="translate(8740.963 3588.236)" fill="none" stroke="#000" stroke-miterlimit="10" stroke-width="0.27"/>
              <line id="Line_103" data-name="Line 103" y1="107.645" transform="translate(8731.178 3588.236)" fill="none" stroke="#000" stroke-miterlimit="10" stroke-width="0.27"/>
              <line id="Line_104" data-name="Line 104" y1="107.645" transform="translate(8721.392 3588.236)" fill="none" stroke="#000" stroke-miterlimit="10" stroke-width="0.27"/>
              <line id="Line_105" data-name="Line 105" y1="107.645" transform="translate(8711.605 3588.236)" fill="none" stroke="#000" stroke-miterlimit="10" stroke-width="0.27"/>
              <line id="Line_106" data-name="Line 106" y1="107.645" transform="translate(8701.819 3588.236)" fill="none" stroke="#000" stroke-miterlimit="10" stroke-width="0.27"/>
            </g>
            <line id="Line_107" data-name="Line 107" y1="41.323" x2="41.323" transform="translate(8725.194 3621.397)" fill="none" stroke="#000" stroke-miterlimit="10" stroke-width="0.27"/>
            <g id="Group_370" data-name="Group 370">
              <path id="Path_232" data-name="Path 232" d="M8731.832,3657.392a.925.925,0,1,0-1.309,0A.926.926,0,0,0,8731.832,3657.392Z" fill="none" stroke="#000" stroke-miterlimit="10" stroke-width="0.27"/>
              <path id="Path_233" data-name="Path 233" d="M8741.617,3647.606a.925.925,0,1,0-1.309,0A.926.926,0,0,0,8741.617,3647.606Z" fill="none" stroke="#000" stroke-miterlimit="10" stroke-width="0.27"/>
              <path id="Path_234" data-name="Path 234" d="M8751.4,3637.82a.925.925,0,1,0-1.31,0A.927.927,0,0,0,8751.4,3637.82Z" fill="none" stroke="#000" stroke-miterlimit="10" stroke-width="0.27"/>
              <path id="Path_235" data-name="Path 235" d="M8761.189,3628.034a.925.925,0,1,0-1.309,0A.924.924,0,0,0,8761.189,3628.034Z" fill="none" stroke="#000" stroke-miterlimit="10" stroke-width="0.27"/>
            </g>
          </g>
        </g>
        <path id="Path_237" data-name="Path 237" d="M8765.881,3622.034s1.7,12.744-7.719,22.16c-12.21,12.21-28.587,14.146-32.33,17.889,3.743-3.743,5.679-20.12,17.889-32.33C8753.136,3620.338,8765.881,3622.034,8765.881,3622.034Z" fill="none" stroke="#000" stroke-miterlimit="10" stroke-width="0.27"/>
      </g>
      <g id="Group_378" data-name="Group 378">
        <g id="Group_377" data-name="Group 377" clip-path="url(#clip-path-2)">
          <g id="Group_376" data-name="Group 376">
            <g id="Group_374" data-name="Group 374">
              <rect id="Rectangle_176" data-name="Rectangle 176" width="107.646" height="107.645" transform="translate(8663.929 3598.021)" fill="none" stroke="#000" stroke-miterlimit="10" stroke-width="0.27"/>
              <line id="Line_108" data-name="Line 108" x2="107.646" transform="translate(8663.929 3607.807)" fill="none" stroke="#000" stroke-miterlimit="10" stroke-width="0.27"/>
              <line id="Line_109" data-name="Line 109" x2="107.646" transform="translate(8663.929 3617.593)" fill="none" stroke="#000" stroke-miterlimit="10" stroke-width="0.27"/>
              <line id="Line_110" data-name="Line 110" x2="107.646" transform="translate(8663.929 3627.379)" fill="none" stroke="#000" stroke-miterlimit="10" stroke-width="0.27"/>
              <line id="Line_111" data-name="Line 111" x2="107.646" transform="translate(8663.929 3637.165)" fill="none" stroke="#000" stroke-miterlimit="10" stroke-width="0.27"/>
              <line id="Line_112" data-name="Line 112" x2="107.646" transform="translate(8663.929 3646.951)" fill="none" stroke="#000" stroke-miterlimit="10" stroke-width="0.27"/>
              <line id="Line_113" data-name="Line 113" x2="107.646" transform="translate(8663.929 3656.737)" fill="none" stroke="#000" stroke-miterlimit="10" stroke-width="0.27"/>
              <line id="Line_114" data-name="Line 114" x2="107.646" transform="translate(8663.929 3666.523)" fill="none" stroke="#000" stroke-miterlimit="10" stroke-width="0.27"/>
              <line id="Line_115" data-name="Line 115" x2="107.646" transform="translate(8663.929 3676.309)" fill="none" stroke="#000" stroke-miterlimit="10" stroke-width="0.27"/>
              <line id="Line_116" data-name="Line 116" x2="107.646" transform="translate(8663.929 3686.094)" fill="none" stroke="#000" stroke-miterlimit="10" stroke-width="0.27"/>
              <line id="Line_117" data-name="Line 117" x2="107.646" transform="translate(8663.929 3695.881)" fill="none" stroke="#000" stroke-miterlimit="10" stroke-width="0.27"/>
              <line id="Line_118" data-name="Line 118" y1="107.645" transform="translate(8761.788 3598.021)" fill="none" stroke="#000" stroke-miterlimit="10" stroke-width="0.27"/>
              <line id="Line_119" data-name="Line 119" y1="107.645" transform="translate(8752.003 3598.021)" fill="none" stroke="#000" stroke-miterlimit="10" stroke-width="0.27"/>
              <line id="Line_120" data-name="Line 120" y1="107.645" transform="translate(8742.217 3598.021)" fill="none" stroke="#000" stroke-miterlimit="10" stroke-width="0.27"/>
              <line id="Line_121" data-name="Line 121" y1="107.645" transform="translate(8732.431 3598.021)" fill="none" stroke="#000" stroke-miterlimit="10" stroke-width="0.27"/>
              <line id="Line_122" data-name="Line 122" y1="107.645" transform="translate(8722.645 3598.021)" fill="none" stroke="#000" stroke-miterlimit="10" stroke-width="0.27"/>
              <line id="Line_123" data-name="Line 123" y1="107.645" transform="translate(8712.858 3598.021)" fill="none" stroke="#000" stroke-miterlimit="10" stroke-width="0.27"/>
              <line id="Line_124" data-name="Line 124" y1="107.645" transform="translate(8703.072 3598.021)" fill="none" stroke="#000" stroke-miterlimit="10" stroke-width="0.27"/>
              <line id="Line_125" data-name="Line 125" y1="107.645" transform="translate(8693.287 3598.021)" fill="none" stroke="#000" stroke-miterlimit="10" stroke-width="0.27"/>
              <line id="Line_126" data-name="Line 126" y1="107.645" transform="translate(8683.501 3598.021)" fill="none" stroke="#000" stroke-miterlimit="10" stroke-width="0.27"/>
              <line id="Line_127" data-name="Line 127" y1="107.645" transform="translate(8673.715 3598.021)" fill="none" stroke="#000" stroke-miterlimit="10" stroke-width="0.27"/>
            </g>
            <line id="Line_128" data-name="Line 128" y1="41.323" x2="41.323" transform="translate(8697.09 3631.182)" fill="none" stroke="#000" stroke-miterlimit="10" stroke-width="0.27"/>
            <g id="Group_375" data-name="Group 375">
              <path id="Path_238" data-name="Path 238" d="M8703.727,3667.177a.925.925,0,1,0-1.308,0A.924.924,0,0,0,8703.727,3667.177Z" fill="none" stroke="#000" stroke-miterlimit="10" stroke-width="0.27"/>
              <path id="Path_239" data-name="Path 239" d="M8713.513,3657.391a.925.925,0,1,0-1.309,0A.925.925,0,0,0,8713.513,3657.391Z" fill="none" stroke="#000" stroke-miterlimit="10" stroke-width="0.27"/>
              <path id="Path_240" data-name="Path 240" d="M8723.3,3647.6a.925.925,0,1,0-1.308,0A.924.924,0,0,0,8723.3,3647.6Z" fill="none" stroke="#000" stroke-miterlimit="10" stroke-width="0.27"/>
              <path id="Path_241" data-name="Path 241" d="M8733.085,3637.819a.925.925,0,1,0-1.309,0A.925.925,0,0,0,8733.085,3637.819Z" fill="none" stroke="#000" stroke-miterlimit="10" stroke-width="0.27"/>
            </g>
          </g>
        </g>
        <circle id="Ellipse_23" data-name="Ellipse 23" cx="11.128" cy="11.128" r="11.128" transform="matrix(0.528, -0.849, 0.849, 0.528, 8702.426, 3655.417)" fill="none" stroke="#000" stroke-miterlimit="10" stroke-width="0.27"/>
      </g>
    </g>
    <line id="Line_129" data-name="Line 129" x1="125.49" transform="translate(249.511 3657.649)" fill="none" stroke="#000" stroke-miterlimit="10" stroke-width="0.393"/>
  </g>
</svg>
