<svg width="180" height="47.8" viewBox="0 0 180 47.8" fill="#fff" xmlns="http://www.w3.org/2000/svg">

<path fill="none" stroke="#FFF" stroke-width="0.5" d="M14,26.3H1.2v17.2H14 M166.1,26.3h12.8v17.2h-12.8"/>
<path d="M6.5,3.5l1.4-0.3l0.6,1.5h5.6v1.1H0.8V4.7h6.1L6.5,3.5z M10.5,15.6c1.2,0,1.9,0.1,1.9-0.2v-3.9H2.7v5.2H1.3
	v-6.4h12.4v5c0,1.5-1.3,1.2-2.8,1.3L10.5,15.6z M12.2,6.6v3H3v-3C3,6.6,12.2,6.6,12.2,6.6z M5.5,15.2v0.7H4.2v-3.7h6.5v3H5.5
	L5.5,15.2z M10.7,7.5H4.4v1.1h6.3C10.7,8.6,10.7,7.5,10.7,7.5z M5.5,13.1v1.1h3.9v-1.1H5.5z M30.6,15.3l-1.1,1.3
	c-2.9-1.3-4.7-3.6-5.9-6.7c-0.8,2.6-2.4,5.1-5.9,6.7l-1.1-1.1c4.7-2,6.3-5.5,6.2-12.2h1.5c0,2.5-0.2,4-0.2,4
	C24.9,8.2,25.1,13,30.6,15.3z M16.9,8.7V7.3h13.4v1.4 M34.4,6.2h3.7v1.3h-3.9l-0.7,2.1l-1-0.4c0.6-1.2,0.9-3.1,1-4.8l1.1,0.2
	L34.4,6.2z M33.1,12.9l-0.4-1.4l5.4-1.1l0.1,1.2L33.1,12.9z M36.7,16.7h-1.4V3.3h1.4 M44.9,15c0,1.7-1.4,1.4-3.1,1.5l-0.5-1.3
	c1.6,0,2.1,0.2,2.1-0.3V9.1h1.4L44.9,15z M38.3,11.5v-1.2h8.1v1.2H38.3z M43,7.6h2.7v1.2h-6.6V7.6h2.5V3.3H43V7.6z M38.6,5.9V4.7
	l7.6,0.1v1.1 M40.3,11.9c0.7,0.7,1.5,1.6,1.9,2.3l-1.1,0.7c-0.4-0.6-1.2-1.6-1.8-2.3L40.3,11.9z M62.5,15.9C62.1,16,59.9,16,53.3,16
	c-2.5,0-3.7-0.7-3.7-3.1V5.1H49V3.9h12.8v1.2H51v8c0,1.2,0.5,1.7,2.1,1.7c6,0,7.5,0,9.2-0.2L62.5,15.9z M52,10h4v3.8h-4V10z
	 M53.1,12.9h1.7V11h-1.7V12.9z M59.4,9.2h-5.8V5.9h5.8V9.2z M58,6.8h-3.1v1.5H58V6.8z M61.1,13.8h-4.2V10h4.2V13.8z M59.9,11h-1.8
	v1.9h1.8V11z M70,7.2c-0.2-0.2-0.7-0.7-1-0.9c0.9-0.8,1.8-1.9,2.2-3.1l1.3,0.3l-0.4,0.7h3.7v1.1h-4.3L70,7.2z M72,5.7l0.8-0.6
	l1.6,1.3l-0.9,0.8L72,5.7z M77.8,5.4l-1.2,1.4L75.5,6c0.8-0.7,1.5-1.7,1.9-2.7l1.3,0.3l-0.3,0.8l4.5-0.1l0,0v1.1H77.8z M78.6,5.9
	l0.9-0.7l1.7,1.3l-1,0.8L78.6,5.9z M75.5,13.1c-1.1,1.6-3.6,2.9-5.3,3.6l-0.9-1.1C71,15,72.8,14.1,74,13h-3.7l0.6-3.4h9.2V8.4h-3.6
	v8.3h-1.4V8.4h-4.8V7.3h11.2v3.4h-9.4l-0.2,1.1h10.2c-0.3,3.8-0.4,4.5-3.8,4.2l-0.4-1.2c2.3,0.2,2.3,0.5,2.7-1.7H75.5z M102.4,15.3
	c2,0.2,2,0.5,2.4-2.9h-3l0.6-2.3H101V8.8h5.5V10h-3.1l-0.3,1.3h2.9c-0.4,4.8-0.3,5.3-3.2,5.1L102.4,15.3z M106.2,7.8h-4.5V3.9h4.5
	V7.8z M105.1,4.9h-2.4v2h2.4V4.9z M108.5,7.2c0,3.3,0.3,6.6-1.5,9.4l-1-0.7c1.6-2.3,1.3-6.5,1.3-9.8h6.9l1.1,0.3l-0.6,2.4l-1.1-0.2
	l0.3-1.4L108.5,7.2z M111.3,9.5c0,0.3,0,0.5,0.4,0.5c0.8,0,2.2,0,2.4-0.1l0.1,1c-0.2,0.1-2,0.1-2.7,0.1c-1.1,0-1.3-0.5-1.3-1.5V3.3
	h1.1v0.9h3.3v1.1h-3.3V9.5z M108.9,9.3l-0.1-0.9L113,8l0.1,0.9L108.9,9.3z M107.7,15.8c1.4-0.8,1.6-2.2,1.7-4.2h1.2
	c-0.1,2.4-0.4,4-2.1,5.1L107.7,15.8z M111.7,14.9v-3.3h1.2v3.3c0,0.3,0.3,0.4,0.6,0.4c0.8,0,0.8-0.1,0.8-1.8l1,0.5
	c-0.1,2-0.3,2.4-2.2,2.4C111.9,16.4,111.7,15.9,111.7,14.9z M116.9,8.9c1.5-1.4,2.8-3.5,3.6-5.6l1.5,0.4c-0.4,1-0.9,2.1-1.5,3v10
	H119V8.9c-0.4,0.5-0.8,1-1.3,1.4L116.9,8.9z M121,9c1.3-1.3,2.6-3.4,3.3-5.5l1.4,0.3c-0.2,0.6-0.5,1.3-0.8,1.9h6.1V7h-4.4v1.8h4.2
	V10h-4.2v2h4.4v1.3h-4.4v3.4h-1.5V7h-0.9c-0.6,1.1-1.3,2.2-2.1,2.9L121,9z M133.8,10.3h5.5v6.3h-1.4v-0.7h-2.8v0.8h-1.3V10.3z
	 M135.1,11.6v3h2.8v-3H135.1z M144.5,8.9H136v-5h8.5V8.9z M143,5.2h-5.7v2.4h5.7V5.2z M146.6,10.3v6.3h-1.4v-0.7h-3v0.8h-1.4v-6.4
	C140.8,10.3,146.6,10.3,146.6,10.3z M145.2,14.6v-3h-3v3H145.2z M149.7,9.1l-0.8-1c1-0.3,1.9-0.7,2.8-1.2l-1.6-1.1l0.8-0.7l1.7,1.1
	c0.5-0.4,0.9-0.8,1.2-1.3h-3.3V3.8h4.3l0.9,0.4C154.5,6.7,151.9,8.5,149.7,9.1z M154.9,11h-3.1l-0.2,1.3h3.3
	c-0.2,4.2-0.3,4.2-3.8,4.1l-0.4-1.1c2.3,0.1,2.7,0.6,2.9-1.9h-3.3l0.6-3.3h2.8V8.7h-2.4V7.6h3.6L154.9,11z M162.5,11
	c-0.3,0.1-1.2,0.1-2,0.1c-1,0-1.2-0.4-1.2-1.4V8.6h-1.8c0,1-0.3,2.2-1.7,3l-1-0.9c1.6-0.9,1.4-1.8,1.4-3.2h4.2v2.2
	c0,0.3,0.1,0.4,0.5,0.4c1,0,1.3,0,1.5-0.1L162.5,11z M156,3.7l1.1-0.3c0.3,0.6,0.6,1.1,1,1.6l1.7-1.5l1,0.7l-2,1.6
	c0.3,0.3,0.6,0.5,1,0.8l1.9-1.6l1.2,0.5l-2,1.5c0.7,0.4,1.5,0.7,2.4,0.9L162.4,9C159.9,8.2,157.6,6.8,156,3.7z M161.9,15.7l-0.7,0.9
	c-0.5-0.4-3.7-2.4-5.5-3.3l0.6-0.7C157.7,13.3,161,15.2,161.9,15.7z M155.8,12.6v-1h5.3l0.7,0.4c-0.7,1.9-2.4,3.7-6.2,4.6l-0.6-1
	c3.4-0.7,4.4-1.9,5.2-3H155.8z M174.8,12.3c0.9-0.6,1.9-1.3,2.5-1.9l1.3,0.8c-0.9,0.7-1.9,1.3-2.8,1.9c1,0.9,2.2,1.5,3.7,1.9
	l-0.9,1.2c-3.1-1-5.2-3.2-6.3-6.3c-0.6,0.6-1.4,1.3-2.2,1.9v2.9l3.5-1l0.2,1.2l-5.3,1.7l-0.6-1.2c0.3-0.1,0.7-0.4,0.7-1v-1.7
	c-0.8,0.4-1.6,0.8-2.4,1l-0.9-1.1c2.7-0.8,6-2.8,7.2-4.8C173,9.3,173.9,11.3,174.8,12.3z M165.8,9.9V8.8h5.7V3.3h1.4v5.5h5.9v1.1
	C178.8,9.9,165.8,9.9,165.8,9.9z M166.2,5.6V4.5h12.1v1.1H166.2z M167,7.7V6.6h10.7v1.1H167z M30.9,43.5H18.3
	c0-4.4,7.2-7.6,9.1-10.4c2.2-2.5,0.9-5.9-2.5-5.8c-2.2,0-3.8,1.4-3.7,3.7l-2.4-0.2c0.2-5.2,7.1-6.6,10.5-3.8
	c2.5,2.2,1.9,5.7-0.5,7.9c-1.4,1.7-6.1,4.8-7.3,6.7h9.4V43.5z M32.5,36.8v-2.2h7.2v2.2H32.5z M41.7,38.7l2.3-0.3
	c0.4,3.5,4.2,4.5,6.6,2.4c3-3.2-0.4-7.3-4.4-6l0.3-1.9c3,0.4,5.9-2.4,3.4-5c-2.1-1.8-5.5-0.5-5.8,2.4l-2.3-0.4c0.6-5,8-6.2,10.7-2.3
	c1.5,2.2,0.5,5-2,5.9c4,0.6,4.6,6,1.7,8.4C49,44.8,42,43.8,41.7,38.7z M66,42.2c3.2,0.3,3.3,0.4,3.7-2.5h-5.3
	c-0.8,1.8-2.3,3.1-5.3,4l-1-1.4c3.8-1,4.8-2.8,5.2-5.3h-4c-0.3,2.4-1,5-2.6,6.8l-1.4-1.3c2.9-3.6,2.3-8.8,2.3-15.2
	c4.6-0.3,9.9-0.8,13-1.4l1.4,1.4c-3.4,0.7-8.3,1.2-12.7,1.4v0.9h13.1V34H59.3v1.6h5.9l-0.7-1.2l1.8-0.4l0.9,1.6h6.4V37H65
	c-0.1,0.5-0.1,0.9-0.2,1.3h6.8c-0.3,5-0.6,5.8-5.1,5.4L66,42.2z M59.3,31v1.6h11.1V31H59.3z M85.3,39.5l-1.1-1.8l1.7-0.8l2.8,5
	L87,42.8L86.2,41L80,43.2l-0.8-1.8c0.4-0.2,0.9-0.6,0.9-1.3V26.9h8.1v9.3H82v4.3L85.3,39.5z M82,28.5v2.2h4.3v-2.2H82z M86.3,34.5
	v-2.3H82v2.3H86.3z M92.4,38.4c2,0,2.4,0.1,2.4-0.3v-9.4h-3.1v15h-1.9V27h6.9l-0.1,11.1l0,0c0,2.3-1.5,1.9-3.7,2L92.4,38.4z
	 M101.4,33.5l3.2-3.4H101v-1.6h5l-1-2l1.8-0.4l1.3,2.4h4.1V30h-5.3l-2.7,3l3.7-0.2l1.2-1.8l1.7,0.4c-1.9,3.5-5,6.3-8.5,8.1l-1.2-1.5
	c2-0.9,3.9-2.2,5.4-3.7l-4.6,0.3L101.4,33.5z M100.9,42.2c3.9-1.6,7.4-4.3,9.4-7.6l1.8,0.5c-0.8,1.4-1.8,2.6-3,3.7
	c1.2,0.9,2.5,2.1,3.3,2.9l-1.4,1.2c-0.7-0.8-2-1.9-3.1-2.9c-1.8,1.5-3.8,2.7-5.8,3.7L100.9,42.2z M115.1,38.8h-1.8V28.1h1.8V38.8z
	 M113.8,41.9c2.3,0,3.2,0.3,3.2-0.5V26.1h1.8v15.4c0,2.5-1.9,1.9-4.4,2.1L113.8,41.9z M129.7,37.5l-1.3-0.4l0.9-2.6h-1.7v7.2
	c0,2.3-1.6,1.9-3.8,2l-0.6-1.7c1.8,0.1,2.5,0.2,2.5-0.3v-7.1h-3.2V33l7.3-0.1l1.5,0.2L129.7,37.5z M123.4,30.6l1-1.2l2,1l1.7-2H123
	v-1.6h6.3l1.5,0.7l-3.1,3.7l1.5,1l-1,1.2L123.4,30.6z M135.3,41.1c-1.1,1-3,2.1-4.6,2.6c-0.3-0.3-0.9-0.9-1.3-1.2
	c1.6-0.5,3.4-1.6,4.3-2.4L135.3,41.1z M135,28.3h-4.1v-1.5h10.3v1.5h-4.1l-0.5,1.6h4V40h-8.9V29.9h3L135,28.3z M138.7,31.2h-5.3v1.6
	h5.3V31.2z M138.7,34.1h-5.3v1.6h5.3V34.1z M138.7,37h-5.3v1.6h5.3V37z M140.1,43.7c-0.7-0.7-2.2-1.8-3.5-2.6l1.5-0.8
	c1.2,0.7,2.7,1.7,3.5,2.4L140.1,43.7z M145.9,38.4l1.6,0.3l-1.3,4.6l-1.6-0.5L145.9,38.4z M148.8,25.8l1.7,0.7l-3.4,4.8l2.2-0.2
	l1.6-2.4l1.6,1l-4.8,5.7l3.1-0.4l-0.6-1.6l1.5-0.4l1.3,4l-1.4,0.5l-0.3-1l-6.1,1.1l-0.6-1.7c0.5-0.1,1-0.5,1.7-1.2l1.8-2l-3,0.5
	l-0.6-1.6c0.4-0.1,0.8-0.4,1.3-1L148.8,25.8z M150.5,42.4l-1.6,0.4l-0.6-4.3l1.5-0.3L150.5,42.4z M150.8,38.2l1.4-0.4l1.3,3.6
	l-1.5,0.5L150.8,38.2z M162.3,37.8c-0.4,6.1-1.7,6.1-5.9,5.7l-0.6-1.8c4.3,0.3,4.4,1.6,4.8-10.7h-5.4c-0.5,1-1,2-1.6,2.7l-1.7-1
	c1.4-1.6,2.5-4.3,3.1-6.9l1.9,0.3c-0.3,1.1-0.6,2.1-1,3.1h6.7L162.3,37.8z M157.8,38.6c-0.6-1.2-2.1-3-3.5-4.2l1.3-0.9
	c1.4,1.2,2.9,2.9,3.6,4.1L157.8,38.6z M90.5,4.3c-0.4,4.5-1.1,9.6-4.2,12.4c-0.2-0.3-0.8-0.7-1.1-0.9c3-2.6,3.6-7.4,3.8-11.5
	L90.5,4.3z M97.4,16.7c-2.6-2.4-3.7-6.8-4.3-11.4h-1.2V3.9h2.5c0.5,4.9,1.8,9.5,4.4,11.8L97.4,16.7z"/>
</svg>
