<svg width="1920" height="1040" viewBox="0 0 1920 1040" fill="none" xmlns="http://www.w3.org/2000/svg">
<path d="M607.428 445.799H310.729V591.978H607.428V445.799Z" fill="#F4A000"/>
<path d="M606.857 604.885H311.301V1039.99H606.857V604.885Z" fill="#EE88A5"/>
<path d="M311.301 151.848V432.893H608L311.301 151.848Z" fill="#00B3ED"/>
<path d="M1312.57 445.799H1609.27V591.978H1312.57V445.799Z" fill="#F4A000"/>
<path d="M1313.14 604.885H1608.7V1039.99H1313.14V604.885Z" fill="#EE88A5"/>
<path d="M1608.7 151.848V432.893H1312L1608.7 151.848Z" fill="#00B3ED"/>
<path d="M298.495 158.02H0V303.028H298.495V158.02Z" fill="#82BF25"/>
<path d="M298.495 315.723H0V595.071H298.495V315.723Z" fill="#FFE000"/>
<path d="M298.495 607.889H0V880.625H298.495V607.889Z" fill="#F4A000"/>
<path d="M149.247 145.283H0L74.6237 70.9736L143.235 2.62721C146.526 -0.658288 151.929 -0.658288 155.26 2.62721L223.871 70.9736L298.495 145.283H149.247Z" fill="#EE88A5"/>
<path d="M298.495 892.916H0V1039.99H298.495V892.916Z" fill="#FFE000"/>
<path d="M1621.51 158.02H1920V303.028H1621.51V158.02Z" fill="#82BF25"/>
<path d="M1621.51 315.723H1920V595.071H1621.51V315.723Z" fill="#FFE000"/>
<path d="M1621.51 607.889H1920V880.625H1621.51V607.889Z" fill="#F4A000"/>
<path d="M1770.75 145.283H1920L1845.38 70.9736L1776.76 2.62721C1773.47 -0.658288 1768.07 -0.658288 1764.74 2.62721L1696.13 70.9736L1621.51 145.283H1770.75Z" fill="#EE88A5"/>
<path d="M1621.51 892.916H1920V1039.99H1621.51V892.916Z" fill="#FFE000"/>
<path d="M613 893H1305V1040H613V893Z" fill="#FFE000"/>
</svg>
