<svg width="23" height="22" viewBox="0 0 23 22" fill="none" xmlns="http://www.w3.org/2000/svg">
<path d="M19.7821 13.9232C18.5531 13.9232 17.3496 13.7358 16.2034 13.3608C15.643 13.1733 14.9552 13.3483 14.6114 13.692L12.3571 15.3668C9.73992 13.9982 8.12884 12.4172 6.74701 9.86755L8.40267 7.71159C8.82932 7.29289 8.9885 6.67423 8.80383 6.09931C8.42175 4.97446 8.23072 3.78712 8.23072 2.58103C8.23072 1.7124 7.51115 1 6.61964 1H2.93261C2.04747 1 1.32153 1.70615 1.32153 2.58103C1.32153 12.5672 9.59983 20.6973 19.7821 20.6973C20.6673 20.6973 21.3932 19.9912 21.3932 19.1163V15.5105C21.3932 14.6419 20.6736 13.9295 19.7821 13.9295V13.9232Z" stroke="#C6A93E" stroke-width="1.49" stroke-miterlimit="10"/>
</svg>
