<svg width="1919" height="56" viewBox="0 0 1919 56" fill="none" xmlns="http://www.w3.org/2000/svg">
<rect width="1920" height="55.6931" fill="#231815"/>
<path d="M933.355 21.0695C936.116 19.7293 937.931 17.6383 938.808 14.8213H940.232C939.486 18.1843 937.198 20.6042 933.362 22.0809V21.0695H933.355ZM933.355 27.2185C936.184 25.8721 937.962 23.7935 938.709 20.9703H940.232C939.753 22.6456 939.088 23.992 938.199 25.0034V38.0149H936.688V26.4181C935.811 27.0882 934.705 27.7025 933.355 28.2299V27.2185ZM956.9 29.9486V30.9538H953.462V35.1855C953.531 36.8608 952.685 37.6736 950.938 37.6054H948.408V36.6002H950.633C951.572 36.6685 952.014 36.1659 951.939 35.0862V30.9538H940.325V29.9486H951.939V27.4295H941.338V26.4181H956.397V27.4295H953.462V29.9486H956.9ZM942.65 24.1906V15.8265H954.979V21.7707C955.041 23.4522 954.171 24.2588 952.349 24.1906H942.644H942.65ZM944.373 32.0583C945.044 33.0014 945.622 34.2424 946.089 35.7874H944.571C944.373 34.7139 943.869 33.4668 943.061 32.0583H944.373ZM944.167 16.8317V19.4563H953.462V16.8317H944.167ZM953.462 21.7707V20.4615H944.167V23.1792H952.051C953.064 23.1792 953.537 22.7138 953.462 21.7645V21.7707Z" fill="white"/>
<path d="M962.005 19.0546V18.0494H966.954V15.127H968.465V18.0494H973.414V19.0546H968.465V23.3918H972.91V24.4032H968.465V25.6193C968.465 26.8292 968.433 27.9337 968.365 28.9451H973.718V29.9565H968.266C967.855 33.3133 965.636 36.0682 961.594 38.2213V37.1168C964.554 35.1623 966.245 32.7797 966.643 29.9565H961.489V28.9451H966.842C966.91 28.0019 966.948 26.9285 966.948 25.7186V24.4094H962.602V23.398H966.948V19.0608H961.999L962.005 19.0546ZM982.112 24.5024C983.598 25.9854 984.337 27.6607 984.337 29.547C984.468 33.0403 982.584 34.79 978.68 34.79V33.5801C981.639 33.7104 983.057 32.3019 982.92 29.3422C982.92 27.6607 982.174 26.0847 980.694 24.6017C982.174 22.3121 982.851 19.824 982.715 17.1373H976.852V38.1158H975.235V16.0329H984.232V17.1435C984.294 19.7061 983.591 22.157 982.105 24.5086L982.112 24.5024Z" fill="white"/>
<path d="M1018.28 22.1871V21.1757C1020.5 19.6307 1021.85 17.7134 1022.33 15.43H1023.84C1023.64 16.3049 1023.38 17.1115 1023.03 17.8499H1028.7V14.7227H1030.31V17.8499H1039.21V19.0598H1030.31V24.0051H1040.62V25.215H1017.18V24.0051H1028.7V19.0598H1022.34C1021.67 20.0712 1020.31 21.1136 1018.29 22.1871H1018.28ZM1020.61 37.2151V28.4415H1037.48V34.2864C1037.62 36.303 1036.51 37.2772 1034.15 37.2151H1020.61ZM1035.87 34.2864V29.5522H1022.12V36.1045H1033.95C1035.29 36.1727 1035.93 35.5708 1035.87 34.2864Z" fill="white"/>
<path d="M1012.48 18.7561H994.185V26.2143C994.185 29.5091 993.843 31.9662 993.166 33.5794C992.631 35.1244 991.388 36.6322 989.429 38.1151V36.9052C991.711 34.9569 992.762 31.8607 992.563 27.629V17.6454H1001.76V14.9277H1003.47V17.6454H1012.47V18.7623L1012.48 18.7561Z" fill="white"/>
<path d="M1000.11 34.6777H1001.71C1000.58 36.6632 998.152 37.2899 994.428 37.8173V36.9238C997.219 36.3281 999.116 35.9993 1000.11 34.6777ZM994.913 26.6734V25.6807H1011.99V26.6734H1004.2V27.8337H1011.18V32.0902C1011.25 33.8834 1010.35 34.2805 1008.49 34.2185H995.584V27.8337H1002.7V26.6734H994.913ZM997.082 28.8327V30.446H1002.7V28.8327H997.082ZM997.082 31.3395V33.2257H1002.7V31.3395H997.082ZM1009.68 28.8327H1004.2V30.446H1009.68V28.8327ZM1009.68 32.0964V31.3457H1004.2V33.2319H1007.59C1008.59 33.2319 1009.68 33.1637 1009.68 32.1027V32.0964ZM1006.79 34.6839C1007.79 36.0055 1009.68 36.3343 1012.48 36.93V37.8235C1008.75 37.2961 1006.32 36.6694 1005.2 34.6839H1006.79Z" fill="white"/>
<path d="M1009.69 20.891V19.3398H1008.26V20.891H998.805V19.3398H997.375V20.891H995.634V21.8652H997.375V24.5395H1006.83C1008.97 24.5395 1009.68 23.6584 1009.68 22.3926V21.8714H1011.71V20.8973H1009.68L1009.69 20.891ZM1008.26 22.4733C1008.26 23.3419 1007.94 23.4723 1006.56 23.4723H998.805V21.8714H1008.26V22.4733Z" fill="white"/>
<path d="M880.825 18.4328C878.668 20.5052 877.592 23.105 877.592 26.2261C877.592 29.6263 878.612 32.344 880.651 34.3668C882.69 36.3896 885.451 37.4009 888.939 37.4009H901.61V15.5352H888.298C885.327 15.5352 882.84 16.4969 880.825 18.4328ZM898.29 34.1372H888.659C886.427 34.1372 884.624 33.4174 883.25 31.9841C881.876 30.5508 881.186 28.6583 881.186 26.3129C881.186 24.1102 881.826 22.3046 883.107 20.9023C884.388 19.5 886.023 18.7927 888.019 18.7927H898.283V34.1372H898.29Z" fill="white"/>
<path d="M925.416 34.3668C927.455 32.344 928.475 29.6263 928.475 26.2261C928.475 23.105 927.393 20.5052 925.236 18.4328C923.221 16.4969 920.734 15.5352 917.762 15.5352H904.451V37.4009H917.128C920.616 37.4009 923.377 36.3896 925.416 34.3668ZM918.042 18.7989C920.038 18.7989 921.673 19.5 922.954 20.9085C923.924 21.9696 924.527 23.2602 924.763 24.7803H907.777V18.7989H918.042ZM907.777 27.9324H924.757C924.508 29.5456 923.862 30.8983 922.817 31.9903C921.443 33.4236 919.64 34.1434 917.408 34.1434H907.777V27.9324Z" fill="white"/>
</svg>
