<svg width="315" height="14" viewBox="0 0 315 14" fill="none" xmlns="http://www.w3.org/2000/svg">
<g style="mix-blend-mode:multiply">
<g style="mix-blend-mode:multiply">
<path d="M13.2022 9.4536C12.8352 10.2932 12.342 11.0062 11.7111 11.6272C11.0802 12.2368 10.3461 12.7083 9.50882 13.0418C8.6715 13.3753 7.77682 13.5364 6.83626 13.5364C5.8957 13.5364 5.02396 13.3753 4.1981 13.0533C3.36078 12.7313 2.63815 12.2713 2.01876 11.6732C1.39937 11.0752 0.906148 10.3622 0.539101 9.5341C0.183524 8.70605 0 7.79749 0 6.79693C0 5.73886 0.194994 4.7958 0.573512 3.95625C0.952029 3.1167 1.46819 2.40365 2.11052 1.81711C2.75286 1.23058 3.50989 0.782049 4.37016 0.47153C5.23043 0.16101 6.13657 0 7.10007 0C8.14386 0 9.07295 0.184012 9.89881 0.552035C10.7247 0.920058 11.4244 1.41459 11.9979 2.03563C12.5714 2.65667 13.0072 3.36971 13.3169 4.17476C13.6266 4.97981 13.7757 5.83087 13.7757 6.71642C13.7757 7.69399 13.5922 8.60254 13.2252 9.4421L13.2022 9.4536ZM11.1949 4.48528C11 3.72624 10.7132 3.03619 10.3347 2.41515C9.94469 1.79411 9.47441 1.28808 8.88943 0.908557C8.31592 0.517533 7.63917 0.333521 6.84773 0.333521C6.05628 0.333521 5.36807 0.529033 4.78309 0.908557C4.1981 1.29958 3.72783 1.79411 3.34931 2.40365C2.97079 3.01319 2.6955 3.71473 2.52345 4.49678C2.3514 5.27883 2.25964 6.06088 2.25964 6.86593C2.25964 7.67099 2.3514 8.49904 2.55786 9.28109C2.75286 10.0516 3.03961 10.7302 3.4296 11.3282C3.81959 11.9148 4.30134 12.3863 4.87485 12.7428C5.45983 13.0993 6.13657 13.2718 6.90508 13.2718C7.67359 13.2718 8.35033 13.0763 8.91237 12.6853C9.47441 12.2943 9.95616 11.7882 10.3347 11.1672C10.7132 10.5462 11 9.85612 11.1835 9.07407C11.3785 8.30352 11.4702 7.53298 11.4702 6.75093C11.4702 5.96888 11.3785 5.24433 11.1835 4.48528H11.1949Z" fill="#3E3A39"/>
</g>
<g style="mix-blend-mode:multiply">
<path d="M44.0354 0.724834C43.7601 0.897345 43.5536 1.16186 43.4045 1.51838C43.3127 1.7024 43.2669 2.04742 43.2439 2.54195C43.221 3.03648 43.198 3.56551 43.1751 4.12905C43.1522 4.65808 43.1292 5.27912 43.1063 5.99217C43.0833 6.70521 43.0833 7.47576 43.0833 8.30381V9.47689C43.0833 9.90242 43.0833 10.3394 43.0833 10.788C43.0833 11.2365 43.0833 11.685 43.0833 12.1221V13.3181C43.0833 13.3181 43.0719 13.4101 43.0375 13.4331C43.003 13.4561 42.9572 13.4791 42.8998 13.4791C42.8081 13.4791 42.6934 13.4216 42.5672 13.2951C41.5234 12.0991 40.5828 10.995 39.7226 9.98292C38.8623 8.98236 38.0479 8.0163 37.2679 7.10774C36.488 6.19918 35.7309 5.30212 34.9854 4.42807C34.2398 3.55401 33.4483 2.65696 32.6225 1.7254V9.48839C32.6225 10.1094 32.634 10.673 32.6684 11.179C32.7028 11.685 32.7716 12.0531 32.8978 12.3061C33.0354 12.5936 33.2419 12.8006 33.5286 12.9386C33.8154 13.0766 34.2054 13.1801 34.7101 13.2376V13.4216H30.1908V13.2376C30.489 13.2031 30.7758 13.1226 31.074 13.0076C31.3722 12.8926 31.6016 12.6971 31.7737 12.4326C31.9457 12.1796 32.0604 11.8 32.1063 11.294C32.1522 10.788 32.1866 10.1899 32.221 9.48839C32.244 8.95936 32.2669 8.33832 32.2784 7.62527C32.2898 6.91223 32.3013 6.14168 32.3013 5.31363V3.07098C32.3013 2.82947 32.3013 2.53045 32.2784 2.17393C32.244 1.8174 32.1522 1.52989 32.026 1.29987C31.8884 1.06986 31.7278 0.897345 31.5443 0.770837C31.3608 0.644329 31.1658 0.552323 30.9478 0.49482C30.7299 0.437316 30.5234 0.402814 30.3284 0.379812V0.195801H34.0563L42.7507 10.3854V4.12905C42.7507 3.63452 42.7507 3.17449 42.7278 2.72596C42.7163 2.27743 42.6589 1.92091 42.5672 1.66789C42.441 1.32287 42.2231 1.04685 41.9134 0.828341C41.6037 0.609827 41.1563 0.460318 40.5599 0.379812V0.195801H45.1136V0.379812C44.6662 0.437316 44.2992 0.563824 44.0239 0.724834H44.0354Z" fill="#3E3A39"/>
</g>
<g style="mix-blend-mode:multiply">
<path d="M73.2435 13.4446H61.4636V13.2606C61.7733 13.2146 62.0715 13.1341 62.3698 13.0191C62.668 12.9041 62.9089 12.7546 63.0809 12.5591C63.1383 12.4901 63.1956 12.3751 63.2415 12.2371C63.2874 12.0991 63.3218 11.938 63.3447 11.754C63.3677 11.57 63.3906 11.3745 63.4136 11.179C63.4365 10.972 63.4365 10.7765 63.4365 10.581C63.4365 10.4084 63.4365 10.1784 63.4365 9.87941C63.4365 9.58039 63.448 9.25837 63.4594 8.91335C63.4594 8.56833 63.4594 8.20031 63.4594 7.83228V2.55345C63.4594 2.33494 63.4594 2.12792 63.4365 1.93241C63.4136 1.7369 63.3906 1.57589 63.3562 1.42638C63.3218 1.27687 63.2644 1.16186 63.1956 1.08136C63.0236 0.874344 62.7942 0.713334 62.5074 0.598326C62.2207 0.483319 61.9224 0.414315 61.6013 0.379812V0.195801H67.4511V0.379812C67.2905 0.402814 67.107 0.437316 66.8776 0.49482C66.6596 0.540823 66.4532 0.621328 66.2582 0.736335C66.0632 0.851342 65.8911 1.00085 65.7535 1.20786C65.6158 1.41488 65.5355 1.67939 65.5241 2.01292C65.5126 2.43844 65.5011 2.82947 65.5011 3.18599C65.5011 3.54251 65.4897 3.88753 65.4782 4.23256C65.4782 4.57758 65.4782 4.9341 65.4782 5.30212V8.64884C65.4782 8.97086 65.4782 9.29288 65.4782 9.6379C65.4782 9.97142 65.4782 10.3509 65.4782 10.765C65.4897 11.156 65.5011 11.5355 65.5241 11.892C65.547 12.2486 65.6044 12.5131 65.7191 12.6856C65.765 12.7431 65.8682 12.8121 66.0173 12.8696C66.1664 12.9271 66.3385 12.9846 66.5449 13.0306C66.7514 13.0766 66.9808 13.1111 67.2217 13.1456C67.4625 13.1801 67.7149 13.1916 67.9558 13.1916C68.0475 13.1916 68.2081 13.1916 68.426 13.1916C68.644 13.1916 68.8734 13.1686 69.1372 13.1571C69.3896 13.1341 69.6534 13.1111 69.9286 13.0766C70.1925 13.0421 70.4333 12.9846 70.6398 12.9271C71.133 12.7891 71.5345 12.6166 71.8557 12.3981C72.1768 12.1796 72.4521 11.9265 72.693 11.639C72.9224 11.3515 73.1174 11.041 73.278 10.696C73.4385 10.3509 73.5877 10.0059 73.7368 9.6379L73.9203 9.6954L73.2435 13.4906V13.4446Z" fill="#3E3A39"/>
</g>
<g style="mix-blend-mode:multiply">
<path d="M180.737 9.4536C180.37 10.2932 179.877 11.0062 179.246 11.6272C178.615 12.2368 177.881 12.7083 177.044 13.0418C176.206 13.3753 175.312 13.5364 174.371 13.5364C173.431 13.5364 172.559 13.3753 171.733 13.0533C170.896 12.7313 170.173 12.2713 169.554 11.6732C168.934 11.0752 168.441 10.3622 168.074 9.5341C167.718 8.70605 167.535 7.79749 167.535 6.79693C167.535 5.73886 167.73 4.7958 168.108 3.95625C168.487 3.1167 169.003 2.40365 169.645 1.81711C170.288 1.23058 171.045 0.782049 171.905 0.47153C172.765 0.16101 173.671 0 174.635 0C175.679 0 176.608 0.184012 177.434 0.552035C178.26 0.920058 178.959 1.41459 179.533 2.03563C180.106 2.65667 180.542 3.36971 180.852 4.17476C181.162 4.97981 181.311 5.83087 181.311 6.71642C181.311 7.69399 181.127 8.60254 180.76 9.4421L180.737 9.4536ZM178.73 4.48528C178.535 3.72624 178.248 3.03619 177.87 2.41515C177.48 1.79411 177.009 1.28808 176.424 0.908557C175.851 0.517533 175.174 0.333521 174.383 0.333521C173.591 0.333521 172.903 0.529033 172.318 0.908557C171.733 1.29958 171.263 1.79411 170.884 2.40365C170.506 3.01319 170.23 3.71473 170.058 4.49678C169.886 5.27883 169.794 6.06088 169.794 6.86593C169.794 7.67099 169.886 8.49904 170.093 9.28109C170.288 10.0516 170.574 10.7302 170.964 11.3282C171.354 11.9148 171.836 12.3863 172.41 12.7428C172.995 13.0993 173.671 13.2718 174.44 13.2718C175.208 13.2718 175.885 13.0763 176.447 12.6853C177.009 12.2943 177.491 11.7882 177.87 11.1672C178.248 10.5462 178.535 9.85612 178.718 9.07407C178.913 8.30352 179.005 7.53298 179.005 6.75093C179.005 5.96888 178.913 5.24433 178.718 4.48528H178.73Z" fill="#3E3A39"/>
</g>
<g style="mix-blend-mode:multiply">
<path d="M210.185 13.4446C210.07 13.3296 209.99 13.2491 209.944 13.1916C209.898 13.1341 209.841 13.0766 209.783 12.9961C209.726 12.9271 209.646 12.8121 209.554 12.6741C209.462 12.5361 209.313 12.3176 209.118 12.0416C208.889 11.6965 208.682 11.386 208.499 11.11C208.327 10.834 208.143 10.558 207.96 10.2934C207.776 10.0289 207.581 9.75291 207.363 9.47689C207.145 9.20087 206.893 8.89035 206.606 8.54533C206.365 8.25781 206.09 8.0048 205.803 7.75178C205.516 7.51026 205.218 7.34925 204.897 7.29175C204.668 7.24575 204.484 7.22275 204.369 7.22275C204.255 7.22275 204.117 7.22275 203.945 7.19974V9.28138C203.945 9.86791 203.945 10.3624 203.968 10.7765C203.979 11.1675 203.991 11.501 204.002 11.7885C204.014 12.0761 204.083 12.3061 204.209 12.4901C204.301 12.6511 204.496 12.8121 204.782 12.9731C205.069 13.1341 205.459 13.2376 205.952 13.2606V13.4446H200.08V13.2606C200.389 13.2146 200.676 13.1341 200.963 13.0421C201.249 12.9386 201.467 12.8006 201.628 12.6051C201.685 12.5361 201.743 12.4211 201.777 12.2716C201.812 12.1221 201.846 11.961 201.857 11.777C201.88 11.593 201.892 11.3975 201.903 11.1905C201.915 10.9835 201.926 10.7765 201.926 10.581C201.926 10.4084 201.926 10.1784 201.926 9.87941C201.926 9.58039 201.938 9.25837 201.949 8.91335C201.949 8.56833 201.949 8.20031 201.949 7.83228V3.17449C201.949 2.95598 201.949 2.72596 201.949 2.50745C201.949 2.27743 201.926 2.07042 201.915 1.86341C201.903 1.65639 201.869 1.47238 201.823 1.31137C201.777 1.15036 201.72 1.02385 201.651 0.954849C201.467 0.759336 201.261 0.621328 201.032 0.563824C200.802 0.49482 200.527 0.437316 200.194 0.391313V0.195801H200.951C201.364 0.195801 201.834 0.195801 202.362 0.195801C202.89 0.195801 203.417 0.195801 203.945 0.195801H205.23C206.044 0.195801 206.778 0.218802 207.409 0.264805C208.04 0.310808 208.625 0.483319 209.152 0.759336C209.692 1.04685 210.127 1.42638 210.46 1.90941C210.793 2.39244 210.953 3.00198 210.953 3.73802C210.953 4.18655 210.873 4.60058 210.701 4.9571C210.54 5.31363 210.311 5.63565 210.036 5.91166C209.76 6.18768 209.439 6.4292 209.072 6.62471C208.705 6.82022 208.315 6.98123 207.914 7.11924V7.17674C208.12 7.29175 208.327 7.44126 208.522 7.65977C208.717 7.86679 208.912 8.0968 209.095 8.36132C209.416 8.83285 209.76 9.32738 210.127 9.86791C210.506 10.4084 210.839 10.8915 211.125 11.3055C211.573 11.938 212.02 12.4096 212.444 12.7086C212.869 13.0076 213.374 13.1916 213.947 13.2836V13.4676H210.185V13.4446ZM208.373 1.97841C208.063 1.49538 207.615 1.11586 207.03 0.839842C206.732 0.701833 206.423 0.609827 206.101 0.540823C205.78 0.483319 205.436 0.448817 205.081 0.448817C204.828 0.448817 204.61 0.448817 204.461 0.471818C204.301 0.483319 204.174 0.49482 204.094 0.50632C204.083 0.575325 204.071 0.644329 204.06 0.701833C204.048 0.759336 204.037 0.828341 204.037 0.908846C204.037 1.00085 204.025 1.11586 204.014 1.26537C204.014 1.41488 204.002 1.63339 203.991 1.92091C203.979 2.34644 203.968 2.82947 203.968 3.37C203.968 3.91054 203.968 4.42807 203.968 4.9341V6.95823C204.473 6.95823 204.931 6.93523 205.367 6.88922C205.803 6.84322 206.216 6.76272 206.629 6.62471C207.019 6.4982 207.352 6.33719 207.638 6.13018C207.925 5.92316 208.155 5.68165 208.327 5.41713C208.499 5.15261 208.636 4.8651 208.717 4.56608C208.808 4.25556 208.843 3.94504 208.843 3.61152C208.843 3.00198 208.694 2.44994 208.384 1.97841H208.373Z" fill="#3E3A39"/>
</g>
<g style="mix-blend-mode:multiply">
<path d="M258.308 3.65723C258.205 3.43872 258.09 3.2087 257.964 2.96719C257.838 2.72567 257.689 2.50716 257.551 2.30015C257.413 2.09313 257.276 1.89762 257.138 1.72511C257 1.5526 256.886 1.41459 256.794 1.33408C256.542 1.09257 256.255 0.931559 255.957 0.851054C255.658 0.770549 255.28 0.724546 254.81 0.713045C254.58 0.713045 254.374 0.713045 254.202 0.713045C254.03 0.713045 253.858 0.713045 253.685 0.713045H252.47C252.47 1.02356 252.47 1.43759 252.47 1.96662C252.47 2.49566 252.47 3.04769 252.47 3.62273V10.8222C252.47 11.1787 252.47 11.5237 252.493 11.8457C252.515 12.1678 252.573 12.3978 252.665 12.5358C252.848 12.8003 253.112 12.9843 253.445 13.0878C253.777 13.1798 254.087 13.2603 254.351 13.3063V13.4904H248.386V13.3063C248.707 13.2718 249.006 13.2143 249.304 13.1223C249.602 13.0418 249.889 12.8348 250.164 12.5128C250.221 12.4553 250.267 12.3518 250.302 12.2138C250.336 12.0758 250.359 11.9148 250.371 11.7307C250.394 11.5582 250.405 11.3627 250.405 11.1557C250.405 10.9487 250.405 10.7417 250.405 10.5462C250.405 10.3737 250.405 10.1436 250.405 9.86762C250.405 9.58011 250.405 9.26959 250.428 8.92457C250.428 8.57954 250.428 8.22302 250.428 7.855V0.678543H249.212C249.051 0.678543 248.879 0.678543 248.707 0.678543C248.535 0.678543 248.329 0.678543 248.088 0.678543C247.618 0.690044 247.239 0.747547 246.941 0.839553C246.643 0.94306 246.367 1.11557 246.104 1.35709C246 1.44909 245.897 1.5756 245.76 1.74811C245.622 1.92062 245.496 2.10463 245.358 2.31165C245.22 2.51866 245.083 2.73717 244.957 2.96719C244.83 3.1972 244.727 3.42722 244.658 3.64573L244.498 3.58823L245.048 0.0920058C245.335 0.149509 245.587 0.207013 245.828 0.241515C246.069 0.276017 246.413 0.299019 246.861 0.31052C247.331 0.32202 247.744 0.333521 248.111 0.333521C248.478 0.333521 248.834 0.333521 249.178 0.333521H252.665C253.032 0.333521 253.387 0.333521 253.731 0.333521C254.075 0.333521 254.431 0.32202 254.798 0.31052C255.165 0.31052 255.578 0.31052 256.048 0.31052C256.45 0.299019 256.782 0.264517 257.046 0.207013C257.31 0.149509 257.585 0.0805051 257.861 0L258.446 3.58823L258.285 3.64573L258.308 3.65723Z" fill="#3E3A39"/>
</g>
<g style="mix-blend-mode:multiply">
<path d="M286.782 9.4536C286.415 10.2932 285.922 11.0062 285.291 11.6272C284.66 12.2368 283.926 12.7083 283.089 13.0418C282.252 13.3753 281.357 13.5364 280.416 13.5364C279.476 13.5364 278.604 13.3753 277.778 13.0533C276.941 12.7313 276.218 12.2713 275.599 11.6732C274.979 11.0752 274.486 10.3622 274.119 9.5341C273.764 8.70605 273.58 7.79749 273.58 6.79693C273.58 5.73886 273.775 4.7958 274.154 3.95625C274.532 3.1167 275.048 2.40365 275.691 1.81711C276.333 1.23058 277.09 0.782049 277.95 0.47153C278.811 0.16101 279.717 0 280.68 0C281.724 0 282.653 0.184012 283.479 0.552035C284.305 0.920058 285.004 1.41459 285.578 2.03563C286.151 2.65667 286.587 3.36971 286.897 4.17476C287.207 4.97981 287.356 5.83087 287.356 6.71642C287.356 7.69399 287.172 8.60254 286.805 9.4421L286.782 9.4536ZM284.775 4.48528C284.58 3.72624 284.293 3.03619 283.915 2.41515C283.525 1.79411 283.055 1.28808 282.47 0.908557C281.896 0.517533 281.219 0.333521 280.428 0.333521C279.636 0.333521 278.948 0.529033 278.363 0.908557C277.778 1.29958 277.308 1.79411 276.929 2.40365C276.551 3.01319 276.276 3.71473 276.104 4.49678C275.931 5.27883 275.84 6.06088 275.84 6.86593C275.84 7.67099 275.932 8.49904 276.138 9.28109C276.333 10.0516 276.62 10.7302 277.01 11.3282C277.4 11.9148 277.881 12.3863 278.455 12.7428C279.04 13.0993 279.717 13.2718 280.485 13.2718C281.254 13.2718 281.93 13.0763 282.492 12.6853C283.055 12.2943 283.536 11.7882 283.915 11.1672C284.293 10.5462 284.58 9.85612 284.764 9.07407C284.959 8.30352 285.05 7.53298 285.05 6.75093C285.05 5.96888 284.959 5.24433 284.764 4.48528H284.775Z" fill="#3E3A39"/>
</g>
<g style="mix-blend-mode:multiply">
<path d="M314.794 5.25612C314.644 5.62414 314.449 5.94617 314.22 6.23368C313.979 6.5212 313.704 6.76272 313.383 6.95823C313.062 7.16524 312.74 7.32625 312.408 7.44126C312.064 7.56777 311.697 7.65977 311.307 7.71728C310.917 7.77478 310.515 7.82078 310.125 7.85529C309.724 7.88979 309.334 7.90129 308.955 7.90129H307.969V9.6264C307.969 9.83341 307.969 10.0289 307.969 10.2014C307.969 10.3739 307.969 10.5695 307.969 10.7765C307.98 11.1675 307.992 11.501 308.003 11.7885C308.015 12.0761 308.083 12.3061 308.21 12.4901C308.301 12.6511 308.496 12.8121 308.783 12.9731C309.07 13.1341 309.46 13.2261 309.953 13.2491V13.4331H304.08V13.2491C304.39 13.2031 304.677 13.1226 304.964 13.0306C305.25 12.9271 305.468 12.7891 305.629 12.5936C305.686 12.5246 305.744 12.4096 305.778 12.2601C305.812 12.1106 305.847 11.9495 305.858 11.7655C305.881 11.5815 305.893 11.386 305.904 11.179C305.916 10.972 305.927 10.765 305.927 10.5695C305.927 10.3969 305.927 10.1669 305.927 9.86791C305.927 9.56889 305.939 9.24687 305.95 8.90185C305.95 8.55683 305.95 8.18881 305.95 7.82078V3.17449C305.95 2.95598 305.95 2.72596 305.95 2.50745C305.95 2.27743 305.927 2.07042 305.916 1.86341C305.904 1.65639 305.87 1.47238 305.824 1.31137C305.778 1.15036 305.721 1.02385 305.652 0.954849C305.468 0.759336 305.227 0.621328 304.941 0.563824C304.654 0.49482 304.344 0.437316 304.012 0.391313V0.195801H304.447C304.677 0.195801 304.952 0.195801 305.262 0.195801C305.571 0.195801 305.916 0.195801 306.283 0.195801C306.65 0.195801 307.017 0.195801 307.372 0.195801C307.728 0.195801 308.072 0.195801 308.393 0.195801H309.219C310.022 0.195801 310.745 0.230303 311.364 0.310808C311.983 0.391313 312.58 0.586826 313.13 0.885844C313.669 1.18486 314.117 1.59889 314.472 2.13942C314.828 2.67996 315 3.3125 315 4.04854C315 4.50857 314.931 4.9111 314.782 5.27912L314.794 5.25612ZM312.488 2.03592C312.132 1.48388 311.651 1.06986 311.066 0.782338C310.767 0.644329 310.458 0.552323 310.125 0.50632C309.793 0.460318 309.448 0.437316 309.093 0.437316C308.841 0.437316 308.634 0.437316 308.496 0.460318C308.359 0.483319 308.244 0.49482 308.152 0.50632C308.141 0.575325 308.129 0.644329 308.106 0.701833C308.084 0.759336 308.072 0.828341 308.061 0.908846C308.049 1.00085 308.038 1.11586 308.026 1.26537C308.015 1.41488 308.003 1.63339 307.992 1.92091C307.98 2.34644 307.969 2.87547 307.969 3.48501C307.969 4.09455 307.969 4.70409 307.969 5.29062V7.64827C308.473 7.64827 308.944 7.63677 309.38 7.60227C309.815 7.56777 310.228 7.48726 310.607 7.34925C311.387 7.08474 311.995 6.63621 312.408 6.01517C312.821 5.39413 313.027 4.70409 313.027 3.92204C313.027 3.20899 312.844 2.57645 312.488 2.02442V2.03592Z" fill="#3E3A39"/>
</g>
<g style="mix-blend-mode:multiply">
<path d="M148.888 3.3815C148.383 2.76046 147.913 2.21993 147.454 1.7829C147.007 1.34587 146.56 1.01235 146.135 0.805339C145.929 0.713333 145.55 0.621328 145.011 0.552323C144.472 0.483319 143.83 0.448817 143.107 0.448817C142.981 0.448817 142.843 0.448817 142.683 0.448817C142.522 0.448817 142.373 0.460318 142.224 0.471818C142.075 0.471818 141.937 0.483319 141.811 0.49482C141.685 0.49482 141.593 0.49482 141.524 0.49482C141.513 0.563824 141.501 0.644329 141.478 0.713334C141.455 0.782338 141.444 0.874344 141.432 0.96635C141.421 1.06986 141.409 1.18486 141.398 1.34587C141.386 1.50688 141.375 1.6909 141.364 1.90941C141.352 2.33494 141.341 2.80647 141.341 3.3125C141.341 3.81853 141.341 4.30156 141.341 4.76159V6.5097H141.673C141.868 6.5097 142.086 6.5097 142.327 6.4867C142.568 6.4637 142.809 6.4637 143.073 6.4407C143.325 6.4177 143.543 6.39469 143.715 6.36019C144.151 6.25668 144.506 6.13018 144.759 5.96917C145.011 5.80816 145.217 5.62414 145.367 5.39413C145.516 5.17562 145.619 4.9341 145.676 4.66958C145.734 4.40507 145.791 4.11755 145.837 3.81853H146.055V9.74141H145.837C145.734 9.35038 145.596 8.93635 145.413 8.49933C145.229 8.0623 145.011 7.72878 144.747 7.49876C144.518 7.29175 144.265 7.13074 144.002 7.02723C143.738 6.92373 143.428 6.85472 143.073 6.83172C142.889 6.82022 142.728 6.80872 142.591 6.80872C142.453 6.80872 142.327 6.80872 142.201 6.80872H141.318V9.08586C141.318 9.43089 141.318 9.74141 141.318 10.0289C141.318 10.3164 141.318 10.5695 141.318 10.7765C141.329 11.1675 141.352 11.5355 141.386 11.892C141.421 12.2371 141.49 12.5016 141.593 12.6741C141.696 12.8466 141.891 12.9731 142.155 13.0651C142.419 13.1571 142.797 13.2146 143.302 13.2376V13.4216H137.429V13.2376C137.739 13.1916 138.014 13.1111 138.278 12.9961C138.542 12.8811 138.76 12.7316 138.932 12.5361C138.989 12.4671 139.047 12.3521 139.081 12.2141C139.115 12.0761 139.15 11.915 139.184 11.731C139.219 11.547 139.242 11.3515 139.253 11.156C139.264 10.949 139.276 10.7535 139.276 10.558C139.276 10.3854 139.276 10.1554 139.276 9.85641C139.276 9.55739 139.287 9.23537 139.299 8.89035C139.299 8.54533 139.299 8.17731 139.299 7.80928V3.17449C139.299 2.95598 139.299 2.72596 139.299 2.49595C139.299 2.26593 139.276 2.04742 139.264 1.8289C139.253 1.61039 139.219 1.43788 139.173 1.26537C139.127 1.09286 139.069 0.97785 139.001 0.908846C138.817 0.713334 138.622 0.586826 138.416 0.529322C138.209 0.471818 137.934 0.425815 137.613 0.368312V0.195801H147.821L149.072 3.2895L148.888 3.3815Z" fill="#3E3A39"/>
</g>
<g style="mix-blend-mode:multiply">
<path d="M102.156 0.437028C101.915 0.563536 101.685 0.724546 101.479 0.920058C101.272 1.11557 101.077 1.34559 100.882 1.6216C100.687 1.89762 100.492 2.19664 100.263 2.54166C100.114 2.77167 99.9075 3.0937 99.6436 3.48472C99.3798 3.87575 99.116 4.30127 98.8407 4.7268C98.5654 5.15233 98.3016 5.56635 98.0378 5.95738C97.7855 6.3484 97.579 6.65892 97.4299 6.87743V10.5807C97.4299 10.9372 97.4299 11.2822 97.4528 11.6157C97.4758 11.9493 97.5331 12.1908 97.6249 12.3288C97.8084 12.5933 98.0493 12.7773 98.336 12.8578C98.6228 12.9383 98.9095 13.0073 99.1848 13.0648V13.2488H93.53V13.0648C93.8512 13.0303 94.1265 12.9728 94.3673 12.8923C94.6082 12.8118 94.8606 12.6163 95.1244 12.3173C95.1817 12.2598 95.2276 12.1563 95.262 12.0068C95.2964 11.8573 95.3194 11.6962 95.3308 11.5122C95.3538 11.3282 95.3652 11.1327 95.3652 10.9257C95.3652 10.7187 95.3652 10.5117 95.3652 10.3162C95.3767 9.97113 95.3882 9.5686 95.3882 9.09707C95.3882 8.62555 95.3882 8.05051 95.3882 7.37197C95.3652 7.33746 95.2849 7.22246 95.1702 7.02694C95.0555 6.83143 94.895 6.58992 94.7229 6.3024C94.5394 6.01488 94.3444 5.69286 94.1379 5.33634C93.92 4.97982 93.7135 4.63479 93.5071 4.30127C93.3006 3.96775 93.1056 3.64573 92.9221 3.35821C92.7386 3.07069 92.5894 2.82918 92.4633 2.64517C92.2339 2.28864 92.0159 1.96662 91.8324 1.66761C91.6489 1.36859 91.4539 1.12707 91.2589 0.908557C91.0639 0.690044 90.8689 0.529033 90.6854 0.414026C90.5019 0.299019 90.2839 0.218514 90.0316 0.207013V0H95.5947V0.184012C95.4111 0.195512 95.2276 0.218514 95.0441 0.241515C94.8605 0.264517 94.6885 0.31052 94.5279 0.356523C94.3673 0.402525 94.2412 0.483031 94.1379 0.575036C94.0462 0.667042 93.9888 0.79355 93.9888 0.95456C93.9888 1.11557 94.0806 1.35709 94.2526 1.67911C94.4247 2.00113 94.6197 2.33465 94.8147 2.66817C94.9523 2.88668 95.1129 3.1512 95.2964 3.47322C95.4799 3.78374 95.6864 4.11726 95.9043 4.46228C96.1223 4.8073 96.3517 5.17533 96.5696 5.54335C96.7875 5.91137 97.0055 6.2564 97.2005 6.58992C97.3611 6.3599 97.5561 6.06088 97.7855 5.69286C98.0149 5.33634 98.2557 4.96831 98.4966 4.58879C98.7375 4.20927 98.9669 3.85274 99.1734 3.50772C99.3798 3.1627 99.5519 2.89818 99.6551 2.70267C99.7125 2.61066 99.7813 2.49566 99.8616 2.35765C99.9304 2.23114 99.9992 2.09313 100.068 1.95512C100.137 1.81711 100.194 1.66761 100.24 1.5181C100.286 1.36859 100.309 1.23058 100.309 1.11557C100.309 0.920058 100.263 0.770549 100.16 0.655541C100.057 0.540534 99.9304 0.460029 99.7813 0.402525C99.6322 0.345022 99.4601 0.299019 99.2766 0.264517C99.0931 0.230015 98.921 0.207013 98.749 0.184012V0H102.993V0.184012C102.649 0.230015 102.362 0.32202 102.11 0.437028H102.156Z" fill="#3E3A39"/>
</g>
</g>
</svg>
