<svg width="173" height="173" viewBox="0 0 173 173" fill="none" xmlns="http://www.w3.org/2000/svg">
<path d="M101.638 64.3649C101.207 64.3649 100.781 64.4497 100.383 64.6145C99.9854 64.7792 99.6239 65.0207 99.3195 65.3252C99.015 65.6296 98.7735 65.9911 98.6088 66.3888C98.444 66.7866 98.3592 67.213 98.3592 67.6435V82.0523L86.28 66.0042C85.979 65.5159 85.5611 65.1102 85.064 64.824C84.5668 64.5378 84.0062 64.38 83.4328 64.3649C82.5632 64.3649 81.7293 64.7103 81.1144 65.3252C80.4996 65.94 80.1541 66.774 80.1541 67.6435V92.147C80.1541 93.0166 80.4996 93.8505 81.1144 94.4654C81.7293 95.0803 82.5632 95.4257 83.4328 95.4257C84.3023 95.4257 85.1362 95.0803 85.7511 94.4654C86.366 93.8505 86.7114 93.0166 86.7114 92.147V77.652L98.7043 94.1315C99.0097 94.5911 99.4683 94.9275 99.9985 95.0806C100.396 95.1697 100.809 95.1697 101.206 95.0806C101.585 95.2182 101.988 95.2739 102.39 95.2442C102.791 95.2144 103.182 95.0999 103.536 94.908L104.399 94.304C105.004 93.6794 105.345 92.8445 105.348 91.9745V67.6435C105.352 67.1741 105.255 66.7093 105.064 66.2806C104.873 65.8518 104.592 65.4691 104.24 65.1582C103.889 64.8474 103.474 64.6157 103.025 64.4788C102.576 64.342 102.103 64.3031 101.638 64.3649ZM62.1216 88.6096H52.9759V67.6435C52.9759 67.213 52.8911 66.7866 52.7264 66.3888C52.5616 65.9911 52.3201 65.6296 52.0156 65.3252C51.7112 65.0207 51.3497 64.7792 50.952 64.6145C50.5542 64.4497 50.1278 64.3649 49.6973 64.3649C49.2667 64.3649 48.8404 64.4497 48.4426 64.6145C48.0448 64.7792 47.6834 65.0207 47.3789 65.3252C47.0745 65.6296 46.833 65.9911 46.6682 66.3888C46.5034 66.7866 46.4186 67.213 46.4186 67.6435V92.147C46.4186 92.5776 46.5034 93.0039 46.6682 93.4017C46.833 93.7995 47.0745 94.1609 47.3789 94.4654C47.6834 94.7698 48.0448 95.0113 48.4426 95.1761C48.8404 95.3409 49.2667 95.4257 49.6973 95.4257H62.1216C62.9993 95.426 63.8423 95.0833 64.471 94.4708C65.0996 93.8583 65.464 93.0244 65.4865 92.147C65.5099 91.6909 65.4402 91.2347 65.2817 90.8063C65.1231 90.3779 64.8789 89.9863 64.5641 89.6553C64.2493 89.3244 63.8704 89.0609 63.4504 88.8812C63.0305 88.7014 62.5784 88.609 62.1216 88.6096ZM71.6987 64.3649C70.821 64.3646 69.9779 64.7072 69.3493 65.3197C68.7207 65.9322 68.3563 66.7661 68.3338 67.6435V92.147C68.3563 93.0244 68.7207 93.8583 69.3493 94.4708C69.9779 95.0833 70.821 95.426 71.6987 95.4257C72.1292 95.4257 72.5556 95.3409 72.9534 95.1761C73.3511 95.0113 73.7126 94.7698 74.017 94.4654C74.3215 94.1609 74.563 93.7995 74.7278 93.4017C74.8925 93.0039 74.9773 92.5776 74.9773 92.147V67.6435C74.9773 67.213 74.8925 66.7866 74.7278 66.3888C74.563 65.9911 74.3215 65.6296 74.017 65.3252C73.7126 65.0207 73.3511 64.7792 72.9534 64.6145C72.5556 64.4497 72.1292 64.3649 71.6987 64.3649ZM137.271 0H35.2885C25.9364 0.0227823 16.9739 3.74798 10.3609 10.3609C3.74798 16.9739 0.0227823 25.9364 0 35.2885V137.271C0.0227823 146.624 3.74798 155.586 10.3609 162.199C16.9739 168.812 25.9364 172.537 35.2885 172.56H137.271C146.624 172.537 155.586 168.812 162.199 162.199C168.812 155.586 172.537 146.624 172.56 137.271V35.2885C172.537 25.9364 168.812 16.9739 162.199 10.3609C155.586 3.74798 146.624 0.0227823 137.271 0ZM139.946 105.952C139.607 106.466 139.232 106.956 138.825 107.419C136.767 109.951 134.454 112.264 131.922 114.321C114.666 130.455 85.676 149.782 81.7934 146.762C77.9108 143.742 87.3154 131.577 77.2206 129.506C76.5044 129.597 75.7798 129.597 75.0636 129.506C45.3833 125.365 23.2956 104.571 23.2956 79.6364C23.2956 51.5954 51.6817 28.9038 86.6251 28.9038C121.569 28.9038 149.955 51.5954 149.955 79.6364C149.655 89.2807 146.131 98.5461 139.946 105.952ZM125.192 64.4512H112.164C111.733 64.4512 111.307 64.536 110.909 64.7007C110.512 64.8655 110.15 65.107 109.846 65.4115C109.541 65.7159 109.3 66.0773 109.135 66.4751C108.97 66.8729 108.885 67.2992 108.885 67.7298V92.2333C108.885 92.6639 108.97 93.0902 109.135 93.488C109.3 93.8858 109.541 94.2472 109.846 94.5517C110.15 94.8561 110.512 95.0976 110.909 95.2624C111.307 95.4272 111.733 95.512 112.164 95.512H124.933C125.803 95.512 126.637 95.1665 127.252 94.5517C127.867 93.9368 128.212 93.1029 128.212 92.2333C128.212 91.3638 127.867 90.5298 127.252 89.915C126.637 89.3001 125.803 88.9547 124.933 88.9547H116.047V83.7779H125.192C126.07 83.7554 126.904 83.391 127.516 82.7623C128.129 82.1337 128.471 81.2906 128.471 80.413C128.471 79.5434 128.125 78.7095 127.511 78.0946C126.896 77.4797 126.062 77.1343 125.192 77.1343H116.047V71.8712H125.192C126.062 71.8712 126.896 71.5258 127.511 70.9109C128.125 70.2961 128.471 69.4621 128.471 68.5926C128.607 68.0967 128.624 67.5758 128.521 67.0721C128.418 66.5683 128.198 66.0958 127.879 65.6927C127.56 65.2896 127.15 64.9672 126.684 64.7515C126.217 64.5358 125.706 64.433 125.192 64.4512Z" fill="white"/>
</svg>
