<svg width="1381" height="1381" viewBox="0 0 1381 1381" fill="none" xmlns="http://www.w3.org/2000/svg">
<path d="M813.103 514.919C809.658 514.919 806.248 515.598 803.065 516.916C799.883 518.234 796.992 520.166 794.556 522.601C792.12 525.037 790.188 527.928 788.87 531.111C787.552 534.293 786.874 537.704 786.874 541.148V656.418L690.24 528.034C687.832 524.127 684.489 520.882 680.512 518.592C676.535 516.302 672.05 515.04 667.462 514.919C660.506 514.919 653.834 517.682 648.915 522.601C643.996 527.52 641.233 534.192 641.233 541.148V737.176C641.233 744.133 643.996 750.804 648.915 755.723C653.834 760.642 660.506 763.405 667.462 763.405C674.419 763.405 681.09 760.642 686.009 755.723C690.928 750.804 693.691 744.133 693.691 737.176V621.216L789.635 753.052C792.077 756.729 795.747 759.42 799.988 760.645C803.17 761.358 806.47 761.358 809.652 760.645C812.679 761.745 815.905 762.191 819.118 761.953C822.33 761.716 825.456 760.799 828.288 759.264L835.19 754.432C840.035 749.435 842.757 742.756 842.783 735.796V541.148C842.816 537.393 842.042 533.675 840.513 530.245C838.985 526.814 836.738 523.752 833.924 521.266C831.11 518.779 827.795 516.926 824.203 515.831C820.611 514.736 816.825 514.425 813.103 514.919ZM496.973 708.877H423.807V541.148C423.807 537.704 423.129 534.293 421.811 531.111C420.493 527.928 418.561 525.037 416.125 522.601C413.689 520.166 410.798 518.234 407.616 516.916C404.433 515.598 401.023 514.919 397.578 514.919C394.134 514.919 390.723 515.598 387.541 516.916C384.359 518.234 381.467 520.166 379.031 522.601C376.596 525.037 374.664 527.928 373.346 531.111C372.028 534.293 371.349 537.704 371.349 541.148V737.176C371.349 740.621 372.028 744.032 373.346 747.214C374.664 750.396 376.596 753.288 379.031 755.723C381.467 758.159 384.359 760.091 387.541 761.409C390.723 762.727 394.134 763.405 397.578 763.405H496.973C503.994 763.408 510.739 760.667 515.768 755.767C520.797 750.867 523.712 744.196 523.892 737.176C524.08 733.527 523.522 729.877 522.253 726.45C520.985 723.023 519.031 719.89 516.513 717.243C513.994 714.595 510.963 712.488 507.604 711.049C504.244 709.611 500.627 708.872 496.973 708.877ZM573.589 514.919C566.568 514.917 559.824 517.658 554.795 522.558C549.766 527.458 546.85 534.129 546.67 541.148V737.176C546.85 744.196 549.766 750.867 554.795 755.767C559.824 760.667 566.568 763.408 573.589 763.405C577.034 763.405 580.445 762.727 583.627 761.409C586.809 760.091 589.701 758.159 592.136 755.723C594.572 753.288 596.504 750.396 597.822 747.214C599.14 744.032 599.819 740.621 599.819 737.176V541.148C599.819 537.704 599.14 534.293 597.822 531.111C596.504 527.928 594.572 525.037 592.136 522.601C589.701 520.166 586.809 518.234 583.627 516.916C580.445 515.598 577.034 514.919 573.589 514.919ZM1098.17 0H282.308C207.491 0.182258 135.791 29.9839 82.8875 82.8875C29.9839 135.791 0.182258 207.491 0 282.308V1098.17C0.182258 1172.99 29.9839 1244.69 82.8875 1297.59C135.791 1350.5 207.491 1380.3 282.308 1380.48H1098.17C1172.99 1380.3 1244.69 1350.5 1297.59 1297.59C1350.5 1244.69 1380.3 1172.99 1380.48 1098.17V282.308C1380.3 207.491 1350.5 135.791 1297.59 82.8875C1244.69 29.9839 1172.99 0.182258 1098.17 0ZM1119.57 847.615C1116.85 851.728 1113.85 855.649 1110.6 859.349C1094.14 879.604 1075.63 898.109 1055.38 914.568C917.329 1043.64 685.408 1198.26 654.348 1174.1C623.287 1149.94 698.523 1052.62 617.765 1036.05C612.035 1036.77 606.238 1036.77 600.509 1036.05C363.066 1002.92 186.365 836.571 186.365 637.092C186.365 412.764 413.454 231.23 693.001 231.23C972.548 231.23 1199.64 412.764 1199.64 637.092C1197.24 714.245 1169.05 788.369 1119.57 847.615ZM1001.54 515.609H897.312C893.868 515.609 890.457 516.288 887.275 517.606C884.092 518.924 881.201 520.856 878.765 523.292C876.33 525.727 874.398 528.619 873.079 531.801C871.761 534.983 871.083 538.394 871.083 541.838V737.867C871.083 741.311 871.761 744.722 873.079 747.904C874.398 751.086 876.33 753.978 878.765 756.413C881.201 758.849 884.092 760.781 887.275 762.099C890.457 763.417 893.868 764.096 897.312 764.096H999.468C1006.42 764.096 1013.1 761.332 1018.01 756.413C1022.93 751.494 1025.7 744.823 1025.7 737.867C1025.7 730.91 1022.93 724.239 1018.01 719.32C1013.1 714.401 1006.42 711.637 999.468 711.637H928.373V670.223H1001.54C1008.56 670.043 1015.23 667.128 1020.13 662.099C1025.03 657.07 1027.77 650.325 1027.77 643.304C1027.77 636.347 1025 629.676 1020.09 624.757C1015.17 619.838 1008.49 617.075 1001.54 617.075H928.373V574.97H1001.54C1008.49 574.97 1015.17 572.207 1020.09 567.288C1025 562.369 1027.77 555.697 1027.77 548.741C1028.85 544.773 1028.99 540.606 1028.17 536.576C1027.34 532.546 1025.59 528.766 1023.03 525.541C1020.48 522.317 1017.2 519.737 1013.47 518.012C1009.74 516.287 1005.65 515.464 1001.54 515.609Z" fill="white"/>
</svg>
