<svg width="21" height="30" viewBox="0 0 21 30" fill="none" xmlns="http://www.w3.org/2000/svg">
<path d="M10.3611 1C5.05667 1 0.745605 5.23067 0.745605 10.4362C0.745605 16.9791 10.3675 28.1463 10.3675 28.1463C10.3675 28.1463 19.9767 16.6541 19.9767 10.4362C19.9767 5.23067 15.6656 1 10.3611 1V1ZM13.2649 13.1983C12.4626 13.9857 11.4118 14.3732 10.3611 14.3732C9.31043 14.3732 8.25973 13.9795 7.45737 13.1983C5.85902 11.6298 5.85902 9.0739 7.45737 7.50537C8.23426 6.74297 9.25949 6.32428 10.3611 6.32428C11.4628 6.32428 12.4881 6.74297 13.2649 7.50537C14.8633 9.0739 14.8633 11.6298 13.2649 13.1983V13.1983Z" stroke="#C6A93E" stroke-width="1.49" stroke-miterlimit="10"/>
</svg>
