<svg viewBox="0 0 393 29" fill="#FFF" xmlns="http://www.w3.org/2000/svg">
<path d="M131.7,2.8v22.3c0,2.5,0.5,2.7,1.9,2.7V28h-6.4v-0.3c1.5-0.2,1.8-0.4,1.8-2.3V2.8h-5.2c-0.9,0-1.4,0.2-1.6,0.4
	s-0.5,1-0.8,2.4h-0.2V1.9h18.5v3.6h-0.2c-0.3-1.3-0.6-2.1-0.8-2.4s-0.8-0.4-1.6-0.4H131.7z M168.7,2.2V1.9h14.9v3.6h-0.2
	c-0.6-2.6-0.6-2.7-2.4-2.7h-7.8v11.7h7.3c1.5,0,1.6-0.3,1.7-0.9h0.2v2.5H182c-0.1-0.6-0.3-0.9-1.5-0.9h-7.5v8.1c0,3.8,1,3.8,3.3,3.8
	h4.2c3.2,0,3.7-0.1,4.1-2.7h0.2V28h-16.2v-0.3c1.1-0.1,1.7-0.2,1.7-1.9V4.8C170.4,2.5,170.1,2.3,168.7,2.2L168.7,2.2z M302.5,2.2
	V1.9h14.9v3.6h-0.2c-0.6-2.6-0.6-2.7-2.4-2.7h-7.8v11.7h7.3c1.5,0,1.6-0.3,1.7-0.9h0.2v2.5h-0.2c-0.1-0.6-0.3-0.9-1.5-0.9h-7.5v8.1
	c0,3.8,1,3.8,3.3,3.8h4.2c3.2,0,3.7-0.1,4.1-2.7h0.2V28h-16.2v-0.3c1.1-0.1,1.7-0.2,1.7-1.9V4.8C304.1,2.5,303.9,2.3,302.5,2.2
	L302.5,2.2z M376.2,2.2V1.9h14.9v3.6h-0.2c-0.6-2.6-0.6-2.7-2.4-2.7h-7.8v11.7h7.3c1.5,0,1.6-0.3,1.7-0.9h0.2v2.5h-0.2
	c-0.1-0.6-0.3-0.9-1.5-0.9h-7.5v8.1c0,3.8,1,3.8,3.3,3.8h4.2c3.2,0,3.7-0.1,4.1-2.7h0.2V28h-16.2v-0.3c1.1-0.1,1.7-0.2,1.7-1.9V4.8
	C377.9,2.5,377.6,2.3,376.2,2.2L376.2,2.2z M222.7,2.2V1.9h15V5l-0.2,0c-0.3-1.6-0.7-2.2-2.7-2.2l-7.6,0v11.5h7.1
	c1.4,0,1.5-0.2,1.6-0.9h0.2v2.5h-0.2c0-0.6-0.3-0.9-1.1-0.9h-7.7v10.4c0,1.8,0.4,2.3,1.8,2.3V28h-6.2v-0.3c1.2,0,1.7-0.3,1.7-1.8
	V4.6C224.4,2.7,224,2.2,222.7,2.2z M240.5,2.2V1.9h15V5l-0.2,0c-0.3-1.6-0.7-2.2-2.7-2.2l-7.6,0v11.5h7.1c1.4,0,1.5-0.2,1.6-0.9h0.2
	v2.5h-0.2c0-0.6-0.3-0.9-1.1-0.9h-7.7v10.4c0,1.8,0.4,2.3,1.8,2.3V28h-6.2v-0.3c1.2,0,1.7-0.3,1.7-1.8V4.6
	C242.2,2.7,241.8,2.2,240.5,2.2z M341.1,1.9h4.6v0.3c-1.2,0.1-1.9,0.2-1.9,2.4v23.8L324.9,6.2v19.3c0,1.8,0.2,2.1,1.7,2.3V28h-4.6
	v-0.3c1.8,0,1.7-0.5,1.8-2.8V7.4c0-4.3-1-5.2-3.3-5.1V1.9h4.5l17.8,20.8V4.3c0-1.9-0.5-2.1-1.7-2.2V1.9z M369.9,3.2l0.9,2.8h-0.2
	c-7.6-8.3-22.8-2.2-18,12.3c4.5,13.7,17.7,9.8,20.6,6l0.2,0.1l-1.7,2.8c-13.5,3.7-19.9-0.7-21.8-7.4C347,8.8,356.2-2.9,369.9,3.2z
	 M200,9.9c0.8,1.8,4,0.9,3-1.5c-0.3-0.7-0.1-2.1,1.2-2.3C200.7,5.7,199.4,8.6,200,9.9z M273.7,21.8c-0.2,2.9-0.4,5.4-4.2,5.4h-2.9
	c-3.3,0-4.5-1.1-4.5-4.3V1.9h-4.5v0.3c1.7,0,1.8,0.6,1.8,2.2v21.4c0,1.6-0.4,2-1.8,2V28h16.4v-6.3H273.7z M296.7,1.9h-4.5v0.3
	c1.6,0,1.8,0.4,1.8,3.2v17.7c-4.3,5.9-13.1,5.1-13.1-4.1v-17h-4.5v0.3c1.4,0,1.7,0.2,1.7,2.2V20c0,9.6,10.9,10.6,15.8,4v4h4.5v-0.3
	c-1.6,0-1.8-0.6-1.8-2.6V1.9z M163.1,1.9h-4.4v0.3c1.5,0,1.6,0.4,1.6,2.7v9.3h-13V1.9h-4.4v0.3c1.5,0.2,1.7,0.3,1.7,2.8v21
	c0,1.3-0.5,1.8-1.7,1.8V28h6.1v-0.3c-1.8,0-1.7-1-1.7-2.7V15h13V25c0,2.6-0.3,2.8-1.6,2.8v0.3h6.1v-0.3c-1.4,0-1.7-0.5-1.7-2.8V1.9z
	 M214.8,25.7c0.6,1.5,0.4,2.1-0.4,2.1V28h5.6v-0.3c-0.9,0-1.6-0.5-2-1.5l0,0l-9.2-24.4h-4.2v0.3c1.4,0,1.8,0.7,2.6,2.8l1,2.9
	c0.1,1.7-0.2,2.2-1.7,3.7c-4.4,4.3-8.2,7.1-7,12.5c1.4,6,11.2,5.9,12.1-6.9L214.8,25.7z M202.1,23.2c-2.2-5.9,3.6-9.4,6.7-13.6
	l1.8,4.9c0.5,4.1,0.7,5.9-1.9,9.1C206.5,26.5,202.8,25.1,202.1,23.2z M0,7.2V2.6h12.7v-2h3.2v2h12.7v4.6H26V4.1H2.7v3.1H0z
	 M1.7,27.5V17.1h25.2v7.3c0.1,2.1-1.2,3.2-3.8,3.1H1.7z M3.4,7.7V6.3H25v1.4H3.4z M4.2,15.1V9.7h20v2.4c0.1,2.1-1.1,3.1-3.7,3H4.2z
	 M7,13.7h12.8c1.2,0.1,1.8-0.4,1.7-1.6v-1.1H7V13.7z M15.6,25.9h6.6h0c1.4,0.1,2.1-0.4,2-1.6V23H4.4v3H13v-7.4H4.4v3h19.9v-3h-8.6
	 M44.6,14.3c1.6-0.5,3-1,4.1-1.9v2.1c-1.1,0.6-2.4,1.1-4.1,1.3v0.6c1.3,0.2,2.7,0.6,4.2,1.4v2v0c-1.3-0.9-2.7-1.6-4.2-2v10.4h-2.5
	V16.9c-1.2,1-2.6,2.1-4.2,3.1v-1.8c3.8-2.9,6.3-6.4,7.5-10.3h-6.6V6.4H48v1.4C47,10.6,45.8,12.8,44.6,14.3z M43.4,5.3
	c-0.3-1.6-0.8-3.1-1.6-4.6H44c1,1.7,1.6,3.2,1.8,4.6H43.4z M69.2,17.7C65,16.2,61.6,13.5,59,9.5c-1.7,3.4-4.9,6.2-9.5,8.2v-1.5
	c3.9-2.2,6.7-5.4,8.3-9.4h2.5c1.8,4.1,4.7,7.2,8.9,9.4L69.2,17.7L69.2,17.7z M49.8,9.4V7.8c2.8-1.7,4.6-3.8,5.4-6.3h2.5
	C56.7,4.9,54,7.6,49.8,9.4L49.8,9.4z M52.3,27.4V16.6h14.3v7c0.1,2.5-1.4,3.8-4.5,3.7H52.3z M54.8,25.7h6.8c1.6,0,2.4-0.7,2.4-2.1
	v-5.2h-9.1V25.7L54.8,25.7z M68.7,9.4c-4.1-1.6-6.8-4.2-8.1-7.9h2.5c1.2,2.7,3,4.8,5.6,6.3V9.4z M84.6,23.6c1.6-0.2,3-0.5,4.2-0.8
	v1.6c-2.6,0.8-6.3,1.3-11.4,1.5V24c1.8,0,3.3-0.1,4.6-0.2V13.2h2.5 M78,18.2v-1.7h10.2v1.7 M77.8,3.8V2.1h10.9v1.7h-4.8
	c-1.1,2.9-2.4,5.1-4,6.6c2.1,0,4.2-0.2,6.2-0.5c-0.4-1.1-0.9-2.2-1.5-3.3h1.8c1.2,1.8,2,4,2.7,6.4H87c-0.1-0.5-0.2-1.1-0.4-1.5
	c-2,0.5-5,0.7-8.9,0.7v-1.8c1.8-2.1,3-4.3,3.6-6.6L77.8,3.8L77.8,3.8z M90.9,8.1V6.7l15.5,0v1.4 M90.1,4L90.1,4l0-1.5h16.9V4
	 M99.3,28.2h-2.5l0-11.3h-3.6v-1.4h4.4c1.7,0,3.9-0.2,5-0.6v1.5c-1,0.2-2.1,0.4-3.3,0.5 M95.3,21c-0.7,2.8-2.8,5.1-6.4,6.9v-1.6
	c2.3-1.4,3.7-3.2,4.1-5.4h-3.2v-1.4h16.6V21h-3.3c0.4,2.4,1.9,4.2,4.5,5.4v1.6c-3.7-1.6-6-3.9-6.8-6.9H95.3z M99.4,12.1l-9.9,0v-1.4
	l18.5,0v1.4h-6c1.2,2.1,3.2,3.8,6.2,5.1v1.5C104.9,17.5,101.1,15.4,99.4,12.1z M89.1,18.7v-1.6c5.9-4.2,7.7-7.4,7.7-14.6v-2h2.5v2
	C99.3,10.1,97.8,13.6,89.1,18.7z"/>
</svg>
