<?xml version="1.0" encoding="utf-8"?>
<!-- Generator: Adobe Illustrator 26.5.0, SVG Export Plug-In . SVG Version: 6.00 Build 0)  -->
<svg version="1.1" id="圖層_1" xmlns="http://www.w3.org/2000/svg" xmlns:xlink="http://www.w3.org/1999/xlink" x="0px" y="0px"
	 viewBox="0 0 678 245" style="enable-background:new 0 0 678 245;" xml:space="preserve">
<style type="text/css">
	.st0{fill:#FFFFFF;}
	.st1{fill:#802320;}
	.st2{fill:#007130;}
	.st3{fill-rule:evenodd;clip-rule:evenodd;fill:#B00005;}
	.st4{fill:#F0E427;}
</style>
<path class="st0" d="M152.3,211.5c0-0.7-0.6-1.2-1.2-1.2l0,0h-6.3v-1.6h-3.7v1.6h-5.9v2.6h5.9v2h-7.6v2.7h7.6v2.4h-5.9v2.6h5.9v2.2
	h-6.7v2.7h6.7v2.4h-7.5v2.7h7.5v2.4c-3.3,0-6.9,0.3-9.9-2.2c0.8-1.6,1.6-3.4,1.9-5.2c0.8-4.8,0.6-6.7,0.6-6.7s-0.1-1.1-1.2-1.1h-2.6
	l3.1-7.2c0,0,1.1-2.8-1.2-2.8c-2.3,0-6.6,0.1-6.7,0.1v2.8h3.5c0,0,0.5-0.1,0.3,0.6c-0.2,0.7-4.1,9-4.1,9h5.1c0,0-0.1,4.1-1,7
	c-0.9-2.2-0.9-4.3-0.9-4.3h-3.4c0,0-0.1,3.3,2.8,7.6c-1.5,2.5-3.6,5-3.6,5h4.3c0,0,0.7-0.9,1.7-2.3c3.2,2.7,6.8,2.6,6.8,2.6h17.2
	V235h-8.9v-2.4h7.9v-2.7h-7.9v-2.4h6.9v-2.7h-6.9v-2.2h7.5v-5h1.7v-2.7h-1.7V211.5z M144.7,212.9h3.5c0.2,0,0.4,0.2,0.4,0.4v1.6
	h-3.9V212.9z M148.6,219.6c0,0.2-0.2,0.4-0.4,0.4h-3.5v-2.4h3.9V219.6z M125.1,209.9L125.1,209.9C125.1,209.9,125,209.9,125.1,209.9
	L125.1,209.9z M116.4,233.8c-0.2,0.3-0.4,0.5-0.7,0.8c-0.3,0.2-0.6,0.3-1,0.3H96.6c-0.4,0-0.7-0.2-0.9-0.5c-0.2-0.3-0.2-0.7-0.3-1.4
	v-2.7H117c0.8,0,1.3-0.5,1.3-1.2v-8.8c0-0.7-0.5-1.2-1.3-1.2H92.1c-0.5,0-0.8,0.3-0.8,1.1v14.6c0,2.3,1.6,3.3,3.9,3.4H116
	c1,0,2-0.6,2.8-1.8c0.5-0.8,0.8-1.9,1-3.4l-3,0C116.7,233.1,116.5,233.6,116.4,233.8z M106.5,221.6h7.6c0.3,0,0.4,0.1,0.4,0.3v4.9
	c0,0.2-0.1,0.3-0.4,0.4h-7.6V221.6z M95.4,222c0-0.2,0.1-0.3,0.4-0.3h7.4v5.7h-7.8l0,0V222z M119.8,232.7L119.8,232.7
	C119.8,232.7,119.8,232.7,119.8,232.7L119.8,232.7z M118.2,211.3c0-1.1-0.9-2-2.1-2H93.3c-1.1,0-2.1,0.9-2.1,2v6.2h26.9V211.3z
	 M114.3,214.6c0,0.1,0,0.1-0.2,0.2H95.5l-0.1-0.2V212c0-0.1,0-0.2,0.1-0.1h18.7l0.2,0.1V214.6z M169.5,211.9h-10.7v-2.7h10.7V211.9z
	 M169.5,220.6h-10.7v-2.7h10.7V220.6z M158.9,222.3h10.7v2.7h-10.7V222.3z M157.7,213.4h12.8v2.7h-12.8V213.4z M168.4,226.6h-8.5
	c-0.9,0-1.6,0.7-1.6,1.6v9.6H170v-9.6C170,227.4,169.3,226.6,168.4,226.6z M166,234.8c0,0.2-0.2,0.4-0.4,0.4h-3
	c-0.2,0-0.4-0.2-0.4-0.4V230c0-0.2,0.2-0.4,0.4-0.4h3c0.2,0,0.4,0.2,0.4,0.4V234.8z M188.1,237.9h-5.5c0,0-1.3-0.7-3.2-2.4
	c-1.7,1.5-2.9,2.3-2.9,2.3H171c0,0,2-1.4,5.2-4.4c0.2-0.2,0.5-0.4,0.7-0.7c-1.4-1.8-2.9-4.1-4.3-7h4c0,0,0.7,1.7,2.8,4.3
	c1.6-2,3.9-5.6,2.2-5.5H172V222c0.3,0,10.4,0,12.6,0c2.3,0,2.2,1.6,2.2,1.6s-0.2,3.7-3.6,7.8c-0.5,0.6-0.9,1.1-1.4,1.6
	C183.6,234.5,185.6,236.2,188.1,237.9z M172,222L172,222C172,222,172,222,172,222L172,222z M176,220.3h-3.6v-9
	c0-2.1,2.2-2.3,2.2-2.3h8c2.4,0,2.3,2,2.3,2v6c0,0.7,0.6,0.5,0.6,0.5v0h1.9v2.8h-6.4c0,0,0-6.6,0-7.7c0-1.1-0.9-0.9-0.9-0.9h-3.5
	c-0.5,0-0.6,0.7-0.6,0.7V220.3z M57.4,220.7v-11.7h3.5v9.9c0,0.3,0.2,0.5,0.5,0.5h2.9v-1.1h-2.2v-2.1h2.2v-1.1h-2.2v-2h2.2v-1.1
	h-2.2v-2h2.2v-1.6h2.3v1.6h2.1v2h-2.1v1.1h2.1v2h-2.1v1.1h2.1v2.1h-2.1v1.1h3.4v-11.1h2.9v11.1h3.6v-1.1H74v-2h2.4v-1.1H74v-2h2.4
	v-1.1H74v-2h2.4v-1.5h2.4v1.5h2.2v2h-2.2v1.1h2.2v2h-2.2v1.1h2.2v2.1h-2.2v1.1h2.8c0.3,0,0.5-0.2,0.5-0.5v-9.9h3.5v11.7
	c0,0.8-0.4,1.2-1.2,1.2H58.6C57.8,221.9,57.4,221.5,57.4,220.7z M74,218.3L74,218.3L74,218.3L74,218.3z M79.4,233.4h4.5v-4.7
	c0-1-0.9-1.8-2-1.8H61.3c-1.1,0-2,0.8-2,1.8v4.7h4.6l1,1.4h-8.2v2.9h29.8v-2.9h-7.9L79.4,233.4z M63.1,230.8v-1.3
	c0-0.1,0-0.1,0.1-0.1h16.6l0.2,0.1v1.3c0,0.1-0.1,0.1-0.2,0.1H63.3L63.1,230.8z M68.5,234.9l-1-1.4H76l-0.9,1.4H68.5z M86,225.7
	H57.3v-2.5H86V225.7z M488.2,24.8c-0.2,2.2-0.6,4-1.2,5.5c2.2,2.6,6.9,1.9,10.3,1.9c-0.2,0.2-0.3,0.7-0.4,1
	c-3.3-0.1-8.2,0.5-10.3-2.1c-0.5,1-1.1,1.8-1.8,2.5c-0.2-0.2-0.5-0.6-0.7-0.7c0.8-0.6,1.4-1.4,1.9-2.5c-0.5-0.8-0.9-1.8-1.3-3.1
	l0.7-0.3c0.3,1,0.6,1.8,1,2.5c0.4-1.1,0.7-2.4,0.9-3.8h-1.9c-0.2,0.1-0.5,0.3-0.5,0.4c-0.1-0.2-0.3-0.6-0.4-0.9
	c0.3-0.1,0.6-0.4,0.9-0.9c0.3-0.4,1-1.7,1.6-3.2h-2.5v-1h2.9l0.3-0.2l0.6,0.4c-0.7,1.6-1.4,3.1-2.1,4.2h1.6L488.2,24.8L488.2,24.8z
	 M491.9,21.3h-2.7v-0.9h2.7v-1.4h0.9v1.4h3.2v2.1h1v0.9h-1v2.2h-3.2v1.3h3.6v0.8h-3.6v1.3h4.1v0.9h-4.1v1.7h-0.9v-1.7h-3.6v-0.9h3.6
	v-1.3h-2.9v-0.8h2.9v-1.3h-2.8v-0.8h2.8v-1.3h-3.7v-0.9h3.7V21.3z M492.8,21.3v1.3h2.3v-1.3H492.8z M495.1,23.4h-2.3v1.3h2.3V23.4z
	 M502.5,26.9c-0.2,1.4-0.5,2.6-0.9,3.6c1.6,2.9,7.4,1.8,10.5,1.8c-0.1,0.2-0.3,0.7-0.3,1c-3.1,0-8.9,0.9-10.5-2
	c-0.5,1-1.2,1.8-1.9,2.4c-0.1-0.2-0.5-0.6-0.6-0.7c1.4-1,2.4-2.8,2.9-5.3c-0.5,0-2.1-0.1-2.4,0.2c-0.1-0.3-0.3-0.7-0.4-1
	c0.2-0.1,0.4-0.2,0.7-0.5c0.3-0.4,1.2-1.7,1.8-2.7h-2.3v-0.9h2.9l0.2-0.1l0.6,0.3c-0.6,0.9-1.7,2.6-2.5,3.7h1.9L502.5,26.9z
	 M501.3,22.1c-0.4-0.7-1.2-1.8-1.8-2.6l0.7-0.5c0.7,0.8,1.4,1.8,1.8,2.4L501.3,22.1z M511.7,25.1h-8.9v-0.9h4.1V22h-2.2
	c-0.3,0.7-0.7,1.2-1.1,1.7c-0.2-0.2-0.6-0.4-0.8-0.5c0.9-1,1.6-2.5,2-4l0.9,0.2c-0.2,0.5-0.4,1.1-0.6,1.6h1.8v-2h0.9v2h3.3V22h-3.3
	v2.2h3.9L511.7,25.1L511.7,25.1z M503.9,30.9v-4.5h6.8v4.5H503.9z M504.8,30.1h4.9v-2.7h-4.9V30.1z M519.9,24.2h-6.3v-0.9h2.8v-1.6
	h-2.2v-0.9h2.2v-1.7h0.9v1.7h2.1v0.9h-2.1v1.6h2.6L519.9,24.2L519.9,24.2z M517.3,30.3v3.3h-0.9v-3.3h-2.8v-0.9h2.8v-1.7h-2.3v-0.9
	h3.4c0.2-0.7,0.6-1.7,0.7-2.4l0.8,0.2c-0.2,0.7-0.5,1.5-0.7,2.1h1.3v0.9h-2.2v1.7h2.6v0.9C519.9,30.3,517.3,30.3,517.3,30.3z
	 M515.3,26.6c-0.1-0.5-0.4-1.4-0.7-2.1l0.7-0.2c0.3,0.6,0.7,1.5,0.7,2L515.3,26.6L515.3,26.6z M525.1,22.2c0,5.5-0.1,10,0.8,10.2
	c0.1,0,0.2-1,0.3-2.3c0.2,0.2,0.4,0.5,0.6,0.7c-0.1,2.3-0.5,2.9-1.2,2.6c-1.5-0.5-1.4-4.7-1.4-10.2h-1.6c0,1.4,0,2.8-0.2,4.3
	c0.7,0.7,1.3,1.4,1.6,2l-0.6,0.8c-0.3-0.5-0.7-1-1.2-1.6c-0.4,1.8-1.1,3.5-2.5,5c-0.2-0.2-0.5-0.5-0.7-0.7c1.4-1.5,2.1-3.3,2.4-5.2
	c-0.5-0.6-1.1-1.1-1.7-1.6l0.5-0.7c0.4,0.3,0.9,0.7,1.3,1.1c0.1-1.2,0.1-2.4,0.1-3.5H520v-1h1.7v-3.1h0.9v3.1L525.1,22.2L525.1,22.2
	z M528.3,33.2c0.7-0.8,1.4-2.1,1.9-3.3l0.9,0.3c-0.5,1.2-1.2,2.6-1.9,3.5L528.3,33.2z M529.9,29.6H529v-9.8h4.1v9h-3.2V29.6
	L529.9,29.6z M529.9,20.7v2.9h2.3v-2.9H529.9z M532.2,27.8v-3.3h-2.3v3.3H532.2z M533.4,30.3c0.2,1,0.3,2.3,0.4,3.1l-0.9,0.2
	c0-0.8-0.1-2.1-0.3-3.2L533.4,30.3z M537.2,20.7c-0.3,1.9-1.1,3.2-3.3,4c-0.1-0.2-0.3-0.6-0.5-0.8c1.9-0.6,2.6-1.6,2.9-3.2h-2.4
	v-0.9h7c0,0,0,0.3,0,0.4c-0.3,2.7,0,3.8-1.4,4c-0.3,0-1,0-1.6,0c0-0.3-0.1-0.6-0.2-0.9c0.6,0.1,1.3,0.1,1.5,0.1c0.2,0,0.3,0,0.4-0.1
	c0.2-0.2,0.3-0.9,0.4-2.5C539.8,20.7,537.2,20.7,537.2,20.7z M540.4,29.3h-6.2V25h6.2V29.3z M539.5,25.9h-4.4v2.6h4.4V25.9z
	 M536.5,30.1c0.4,1,0.8,2.3,0.9,3.1l-0.9,0.2c-0.1-0.8-0.5-2.2-0.9-3.2L536.5,30.1L536.5,30.1z M539.4,29.8c0.7,1,1.5,2.4,1.9,3.4
	l-0.9,0.4c-0.4-0.9-1.2-2.3-1.9-3.4L539.4,29.8z M544.8,22.5c0-1.5,2.1-1.5,2.1,0C546.9,24,544.8,24,544.8,22.5z M544.8,30.3
	c0-1.5,2.1-1.5,2.1,0C546.9,31.8,544.8,31.8,544.8,30.3z M488.8,57.4h-1.3v-8.9c-0.6,0.6-1.8,1.4-2.5,1.7v-1.3
	c1.2-0.6,2.5-1.7,3-2.9h0.8L488.8,57.4L488.8,57.4z M496.1,57.4h-1.3v-8.9c-0.6,0.6-1.8,1.4-2.5,1.7v-1.3c1.2-0.6,2.5-1.7,3-2.9h0.8
	L496.1,57.4L496.1,57.4z M499.6,54.4l1.3-0.2c0.1,0.8,0.4,1.4,0.7,1.7c0.7,0.8,2.1,0.7,2.8-0.2c1.5-1.7,0.1-4.7-2.3-3.8l0.1-1.2
	c1.8,0.2,3.1-1.7,1.8-3.2c-1.2-1.2-3-0.1-3.1,1.6l-1.3-0.2c0.2-3.1,4.2-4.1,5.8-1.5c0.7,1.3,0.4,3.1-1,3.8c0.6,0.2,1.1,0.5,1.4,1
	c0.8,1.2,0.6,3.3-0.5,4.4C503.4,58.7,499.7,57.4,499.6,54.4L499.6,54.4z M520.2,46.9v7.4h-1v-0.9H515v5.2h-1v-5.2h-4.3v1h-0.9v-7.5
	h5.2v-2.9h1v2.9H520.2L520.2,46.9z M514,52.3V48h-4.3v4.4H514z M519.3,52.3V48H515v4.4H519.3z M530.3,44.9c-0.6,1.5-1.3,2.8-2.2,4h2
	v1h-2.7c-0.5,0.6-1,1.1-1.5,1.6h3.5v6.8h-0.9v-0.7h-3.4v1h-0.9v-5.6c-0.4,0.3-0.8,0.6-1.2,0.8c-0.1-0.2-0.4-0.7-0.6-0.9
	c1.4-0.8,2.7-1.8,3.8-3h-3.5v-1h2.9v-2h-2.3V46h2.3v-1.7h0.9V46h1.8v0.9c0.4-0.7,0.7-1.4,1.1-2.2L530.3,44.9z M528.5,52.4h-3.4V54
	h3.4V52.4z M528.5,56.7v-1.8h-3.4v1.8H528.5z M527,48.9c0.5-0.6,0.9-1.3,1.3-2h-1.8v2H527z M535.8,45.4c-0.6,1.5-1.4,3.3-2.1,4.8
	c1.6,1.5,2,2.7,2,3.9c0,0.9-0.2,1.7-0.7,2c-0.3,0.2-0.6,0.3-1,0.4c-0.4,0-0.9,0-1.4,0c0-0.3-0.1-0.7-0.3-1c0.5,0,0.9,0.1,1.3,0
	c0.3,0,0.5-0.1,0.7-0.2c0.3-0.2,0.4-0.7,0.4-1.3c0-1-0.5-2.2-2-3.7c0.7-1.4,1.4-3.1,1.9-4.4h-2.8v12.6h-0.9V45h4.2l0.2,0L535.8,45.4
	L535.8,45.4z M541.5,49.8c-0.2,2.2-0.6,4-1.2,5.5c2.2,2.6,6.9,1.9,10.3,1.9c-0.2,0.2-0.3,0.7-0.4,1c-3.3-0.1-8.2,0.5-10.3-2.1
	c-0.5,1-1.1,1.8-1.8,2.5c-0.2-0.2-0.5-0.6-0.7-0.7c0.8-0.6,1.4-1.4,1.9-2.5c-0.5-0.8-1-1.8-1.3-3.1l0.7-0.3c0.3,1,0.6,1.8,1,2.5
	c0.4-1.1,0.7-2.4,0.9-3.8h-1.9c-0.2,0.1-0.5,0.3-0.5,0.4c-0.1-0.2-0.3-0.6-0.4-0.9c0.3-0.1,0.6-0.4,0.9-0.9c0.3-0.4,1-1.7,1.6-3.2
	h-2.5v-1h2.9l0.3-0.2l0.6,0.4c-0.7,1.6-1.4,3.1-2.1,4.2h1.6L541.5,49.8L541.5,49.8z M545.2,46.3h-2.7v-0.9h2.7v-1.4h0.9v1.4h3.2v2.1
	h1v0.9h-1v2.2h-3.2v1.3h3.6v0.8h-3.6v1.3h4.1v0.9h-4.1v1.7h-0.9v-1.7h-3.6v-0.9h3.6v-1.3h-2.9v-0.8h2.9v-1.3h-2.8v-0.8h2.8v-1.3
	h-3.7v-0.9h3.7V46.3z M546.1,46.3v1.3h2.3v-1.3H546.1z M548.4,48.5h-2.3v1.3h2.3V48.5z M564.8,53.6h-5.7v3.6c0,0.7-0.2,1-0.6,1.1
	c-0.5,0.2-1.2,0.2-2.4,0.2c-0.1-0.3-0.2-0.8-0.4-1c1,0,1.9,0,2.1,0c0.3,0,0.3-0.1,0.3-0.3v-3.6h-5.7v-1h5.7v-1
	c0.9-0.5,1.9-1.2,2.6-2h-6v-1h6.9l0.2-0.1l0.6,0.5c-0.9,1-2.2,2.1-3.5,2.9v0.6h5.7L564.8,53.6L564.8,53.6z M553.6,49h-0.9v-3.2h5.7
	c-0.2-0.5-0.5-1-0.8-1.5l0.9-0.3c0.4,0.6,0.8,1.3,1,1.8h5.1V49h-1v-2.2h-10.1L553.6,49L553.6,49z M569,46.1c-0.4,0.8-0.9,1.5-1.5,2
	c-0.1-0.2-0.5-0.5-0.7-0.7c0.9-0.9,1.7-2.2,2.2-3.5l0.9,0.3c-0.1,0.4-0.3,0.7-0.4,1h3.8v0.9h-2.8c0.5,0.5,1.1,1.1,1.3,1.5l-0.6,0.6
	c-0.3-0.4-0.9-1.1-1.4-1.6l0.5-0.4L569,46.1L569,46.1z M579.1,53.5c0,0,0,0.3,0,0.5c-0.2,2.2-0.4,3.2-0.8,3.6
	c-0.6,0.6-1.6,0.3-2.7,0.4c0-0.3-0.1-0.7-0.3-1C576,57,576.7,57,577,57c0.2,0,0.4,0,0.5-0.1c0.2-0.2,0.4-0.9,0.5-2.4h-4.3v4.2h-0.9
	v-3.8c-1.3,1.6-3.2,3.1-4.9,3.8c-0.1-0.3-0.4-0.6-0.6-0.8c1.7-0.6,3.6-1.9,4.8-3.4h-3.9c0.2-0.9,0.4-2.3,0.5-3.4h4.2v-1.6h-4.7v-0.9
	h10.6V52h-4.9v1.6H579.1L579.1,53.5z M569.4,52c-0.1,0.5-0.1,1.1-0.2,1.6h3.6V52H569.4z M579.9,45.3v0.9h-4.9
	c-0.3,0.6-0.7,1-1.1,1.4c-0.2-0.2-0.5-0.5-0.7-0.6c0.8-0.7,1.5-1.8,1.8-3l0.9,0.2c-0.1,0.4-0.2,0.7-0.4,1H579.9z M573.7,51h4v-1.6
	h-4V51z M577.5,48.3c-0.3-0.4-1-1.1-1.5-1.6l0.6-0.6c0.5,0.4,1.2,1.1,1.5,1.5L577.5,48.3z M581.4,51.8c0-2.2,0.2-3.8,1.5-5.2
	c1.2-1.1,3.6-0.8,4.4,0.8c0.7,1.4,0.9,2.5,0.9,4.4c-0.1,2.1-0.2,3.8-1.5,5.1c-1.2,1.1-3.3,0.8-4.2-0.5
	C581.8,55.4,581.4,53.9,581.4,51.8L581.4,51.8z M582.7,51.8c0.1,2.5,0.1,4.4,2.1,4.7c2-0.3,2-2.1,2.1-4.7c-0.1-2.6-0.1-4.4-2.1-4.7
	C582.9,47.3,582.9,49.4,582.7,51.8L582.7,51.8z M589.7,51.8c0-2.2,0.2-3.8,1.5-5.2c1.2-1.1,3.6-0.8,4.4,0.8c0.7,1.4,0.9,2.5,0.9,4.4
	c-0.1,2.1-0.2,3.8-1.5,5.1c-1.2,1.1-3.3,0.8-4.2-0.5C590.1,55.4,589.7,53.9,589.7,51.8L589.7,51.8z M591.1,51.8
	c0.1,2.5,0.1,4.4,2.1,4.7c2-0.3,2-2.1,2.1-4.7c-0.1-2.6-0.1-4.4-2.1-4.7C591.2,47.3,591.2,49.4,591.1,51.8L591.1,51.8z M602.1,57.4
	v-2.7h-4.5v-1.3l4.7-7.4h1v7.4h1.4v1.3h-1.4v2.7H602.1L602.1,57.4z M602.1,53.4v-5.1l-3.2,5.1H602.1z M613,56v1.3h-6.8
	c0-1,0.4-1.7,1-2.5c1.3-1.8,4.5-3.6,4.5-5.8c0.1-1.8-2.3-2.7-3.4-1.4c-0.4,0.4-0.6,1-0.6,1.7l-1.3-0.1c0.2-2.1,1.3-3.3,3.3-3.3
	c3.3-0.1,4.1,3.8,2.1,5.9c-0.4,0.6-2.9,2.8-3.4,3.4c-0.2,0.3-0.4,0.5-0.5,0.8L613,56L613,56z M614.7,51.8c0-2.2,0.2-3.8,1.5-5.2
	c1.2-1.1,3.6-0.8,4.4,0.8c1.1,1.9,1,5.6,0.5,7.6c-0.5,2.6-3.8,3.6-5.3,1.4C615,55.4,614.7,53.9,614.7,51.8L614.7,51.8z M616,51.8
	c0,1.9,0.2,3.1,0.6,3.7c0.8,1.2,2.2,1.2,3,0c0.4-0.6,0.6-1.9,0.6-3.7c-0.1-2.6-0.1-4.4-2.1-4.7C616.1,47.3,616.1,49.4,616,51.8
	L616,51.8z M627.6,52.9c0,0,0,0.3,0,0.4c-0.2,3.1-0.4,4.3-0.8,4.7c-0.2,0.3-0.4,0.4-0.8,0.4c-0.3,0-0.8,0-1.4,0
	c0-0.3-0.1-0.6-0.2-0.9c0.6,0.1,1.1,0.1,1.3,0.1c0.2,0,0.3,0,0.4-0.2c0.3-0.3,0.4-1.2,0.6-3.7h-2.9c0.2-0.7,0.4-1.7,0.5-2.6H623
	v-0.9h5.2v0.9h-3c-0.1,0.6-0.2,1.2-0.3,1.7H627.6z M627.8,48.9h-4.1v-4.1h4.1V48.9z M627.1,45.6h-2.6v2.5h2.6V45.6z M629.7,51.3
	c0,2.2-0.2,5.2-1.5,7.4c-0.2-0.2-0.5-0.5-0.7-0.6c1.8-3.2,1.2-7.4,1.3-10.8h2.8v-3.2h0.9v1.1h2.9v0.9h-2.9v1.1h2.9l0.2,0l0.6,0.2
	c-0.2,0.9-0.4,2-0.6,2.7l-0.7-0.2c0.1-0.5,0.2-1.1,0.3-1.7h-5.5L629.7,51.3L629.7,51.3z M631.7,53.3c-0.1,2.5-0.5,4.3-2,5.3
	c-0.1-0.2-0.4-0.5-0.6-0.7c1.4-0.9,1.7-2.4,1.7-4.6H631.7z M634.4,51.6c0.2,0,0.7,0,0.8-0.1c0,0.3,0.1,0.6,0.1,0.8
	c-0.5,0.1-2.1,0.1-2.7,0.1c-1.1,0.1-1.1-1-1.1-2l-1.5,0.2l-0.1-0.8l1.6-0.2v-1.4h0.8v1.3l2-0.2l0.1,0.8l-2,0.2
	c0,0.5-0.2,1.3,0.3,1.3C632.7,51.6,634.4,51.6,634.4,51.6L634.4,51.6z M634.8,57.3c0.2,0,0.3,0,0.4-0.1c0.1-0.1,0.2-0.2,0.2-0.4
	c0-0.3,0.1-0.9,0.1-1.6c0.2,0.2,0.5,0.4,0.7,0.4c0,0.7-0.1,1.5-0.1,1.8c-0.1,0.3-0.2,0.5-0.4,0.6c-0.4,0.2-1.1,0.1-1.5,0.1
	c-0.3,0-0.6,0-0.8-0.2c-0.2-0.2-0.3-0.4-0.3-1.1v-3.6h0.8v3.7c0,0.1,0,0.2,0.1,0.3C634.1,57.3,634.7,57.3,634.8,57.3L634.8,57.3z
	 M533.3,242.4c10.8-4.5,15.9-16.9,11.5-27.7c-11.8-25.6-48.9-10.2-39.2,16.2C510.1,241.7,522.5,246.9,533.3,242.4z M598.3,211.3
	c0-0.2-0.2-0.5-0.4-0.5h-4.2c0.2-0.4,0.5-0.8,0.7-1.3l0.2-0.3h2.9v-1.7c0-0.3-0.2-0.5-0.5-0.5h-7.1c-0.2-0.5-0.4-1.1-0.7-1.6
	l-2.7,0.5c0.1,0.3,0.3,0.7,0.4,1.1h-7.8v2.1h3.2c0,0.1,0.1,0.2,0.2,0.3c0.2,0.4,0.3,0.8,0.5,1.3h-4.6v2.1h20L598.3,211.3
	L598.3,211.3z M590.8,210.9h-5.1c-0.1-0.5-0.4-1.1-0.6-1.6h6.4C591.3,209.7,591.1,210.3,590.8,210.9z M591.4,225h-4.8
	c-1,0-1.4-0.1-1.4-0.7v-1.9c0-0.2-0.2-0.5-0.5-0.5h-2.2c0.1,3.1-0.8,5.4,3.8,5.3c0,0,6.1,0,6.1,0c2.1,0,2.6-1.4,2.6-3.9h-2.5
	C592.4,224.9,592.3,225,591.4,225 M596.4,220.9v-6.6c0-0.2-0.2-0.4-0.4-0.5h-15.7v7.1h6.8l-0.8,0.9c1.3,0.8,2.7,2.1,3.5,2.8l1.9-1.7
	c-0.6-0.5-2-1.5-3.1-2.1H596.4z M582.8,215.5h10.8v1h-10.8V215.5z M582.8,218.1h10.8v1h-10.8V218.1z M577.6,226.1h3
	c0.5-1.2,1.1-3.3,1.5-4.2h-2.5C579,223.2,578.1,225.3,577.6,226.1z M596.4,221.4l-1.7,1.1c0.9,1,2.6,3,3.1,3.7l1.9-1.7
	C599.2,223.9,596.9,221.9,596.4,221.4z M568.7,209.9c0-0.3-0.2-0.5-0.5-0.5h-2.1v12.9h2.6V209.9z M572.6,206.4
	c0-0.3-0.2-0.5-0.5-0.5h-2.2v18.2c0,0.4-0.2,0.5-0.5,0.5c-0.4,0-1.6,0-2.7,0l0.8,2.8c1.8,0,3.2-0.1,4-0.6c0.9-0.4,1.1-1.2,1.1-2.7
	L572.6,206.4L572.6,206.4z M564.2,221.3h-8.1c0-0.2,0.1-0.7,0.1-0.9h8v-6.8c0-0.3-0.2-0.5-0.5-0.5H554c-0.1,4,0.3,8.6-2,12.6h2.9
	c0.4-0.9,0.7-2.1,1-3.2v4.5h8.8v-5.3C564.7,221.5,564.5,221.3,564.2,221.3z M556.5,215.8v-0.8h5.2v1h-5.2V215.8z M556.5,217.4h5.3v1
	h-5.3C556.5,218.1,556.5,217.7,556.5,217.4z M562.3,225h-4.2V223h4.2V225z M561,206.3l-1.7-0.9c-0.3-0.2-0.5-0.2-0.8,0.2
	c-1.7,2.1-3.7,4.2-6.5,6.9h3.5c0.4-0.4,1-0.9,1.3-1.3v1.1h5.6v-1.2c0.9,0.7,1.6,1.3,1.8,1.5l1.3-2.3c-1.1-0.8-3.2-2.3-5-3.4
	C560.8,206.7,560.9,206.5,561,206.3 M561.8,210.6h-4.4c0.5-0.6,1.3-1.4,1.8-2C559.5,208.9,560.7,209.7,561.8,210.6z M675.1,212.2
	h-3.7v-5.9c0-0.2-0.2-0.4-0.4-0.5h-2.2v6.4h-4.1c-0.1,4.3,0.6,11-1.4,14.9h2.7c0.3-0.9,0.8-3,0.9-4c0.5-0.2,4.3-1.1,6.1-1.6v2.8
	c0,0.3-0.1,0.4-0.5,0.4c-0.3,0-1.5,0-2.5,0l0.8,2.5c1.7,0,2.8,0,3.6-0.4c0.9-0.4,1.1-1.2,1.1-2.4v-11.7
	C675.5,212.4,675.3,212.2,675.1,212.2 M673.1,219.3c-2.2,0.5-4.3,1-5.9,1.3c0-0.1,0-5.9,0-6.1h5.9V219.3z M663.4,223.6l-2.7,0.4v-6
	h2.7v-2.3h-2.7v-1.9h1.9v-1.7c0.4,0.4,0.7,0.7,0.9,0.9l1.2-2.1c-0.9-0.8-2-2-3.7-3.3c0.1-0.1,0.3-0.5,0.5-0.7l-1.5-0.9
	c-0.4-0.2-0.5-0.3-0.9,0.2c-1.3,1.7-3.1,3.7-5.5,6.2h2.4v1.4h2.5v1.9h-3.2v2.3h3.2v6.3c-1.1,0.2-2.3,0.3-3.2,0.4v2.6
	c2.2-0.5,5.4-1.1,8.2-1.8L663.4,223.6L663.4,223.6z M657.6,211.7c0.7-0.8,1.8-1.9,2.1-2.3c0.4,0.2,1.5,1.3,2.4,2.3
	C662.1,211.7,657.6,211.7,657.6,211.7z M661.1,222.8l1.6,0.5c0.4-1,0.8-2.5,1.3-3.8L662,219C661.8,220.2,661.5,221.7,661.1,222.8
	 M658,223.2c-0.2-1.1-0.5-2.8-0.9-4.1l-1.8,0.5c0.3,1.3,0.7,3,0.8,4.1L658,223.2z M668,210.9c-0.3-1-0.9-2.8-1.7-4l-2.2,1
	c1.1,1.8,1.5,3.5,1.6,3.9L668,210.9L668,210.9z M676,207.8l-2.3-0.8c-0.4,1.4-0.9,2.8-1.6,4l2.3,0.9
	C675.1,210.6,675.6,209.3,676,207.8 M672.9,217.3c-1.1-0.6-3.1-1.3-4.7-1.7l-1,1.6c1.6,0.5,3.6,1.2,4.6,1.9L672.9,217.3z
	 M649.6,213.1H638v2.6h6.1v8.4c0,0.3-0.2,0.4-0.6,0.4c-0.4,0-1.9,0-3.2,0l0.8,2.8c3.2-0.1,5.9,0.4,5.8-3.1c0,0,0-8.5,0-8.5h3.2v-2.2
	C650,213.4,649.8,213.2,649.6,213.1 M649.6,207.8c0-0.3-0.2-0.5-0.5-0.5h-10.8v2.6h11.2L649.6,207.8L649.6,207.8z M636.2,210.7
	c-0.4-0.2-0.6-0.2-0.9,0.2c-1.9,2.7-4.3,5.4-6.6,7.7h3.5v8.6h2.7v-11.5c0.9-1.2,2.4-3.1,3.1-4.3L636.2,210.7L636.2,210.7z
	 M632.3,212.4c1.1-1.3,2.8-3.5,4-5.1l-1.8-0.7l-0.1-0.1c-0.2-0.1-0.4-0.1-0.7,0.3c0,0,0,0.1-0.1,0.1c-1.4,1.9-3.5,4.1-4.9,5.5
	L632.3,212.4L632.3,212.4z M620,218.2c1-0.7,2.3-1.6,3.2-2.3l-1.7-1.5c-0.3-0.3-0.5-0.2-0.7,0c-1.1,1-2.7,2.3-4.2,3.2
	c-0.5-1-1.1-2-2-2.8c0.5-0.3,1-0.8,1.4-1.2h5v-1.8c0-0.2-0.2-0.5-0.4-0.5h-12.4v2.2h4.1c-2.2,1.1-4.9,2.1-7.5,2.7l1.4,2.1
	c2.2-0.6,4.4-1.4,6.4-2.4c0.2,0.2,0.5,0.6,0.6,0.8c-2,1.3-5.8,2.7-8.6,3.3l1.4,2.1c2.6-0.8,6-2.3,8.3-3.8c0.1,0.3,0.3,0.7,0.4,0.9
	c-2.6,2-6.7,3.8-10.4,4.6l1.4,2.3c3.1-0.9,6.8-2.7,9.4-4.5c0,1.1-0.3,2-0.7,2.4c-0.8,0.9-2.1,0.4-3.4,0.4l0.7,2.6
	c1.8,0,3.4,0.3,4.7-1c1.1-1,1.7-3.7,1-6.4c0.3-0.2,0.5-0.3,0.7-0.5c1.1,2.8,2.8,5.1,5.1,6.6l2.3-2C623,222.7,621.3,220.8,620,218.2
	 M607,210h14.8v2.9h2.6v-4.6c0-0.2-0.2-0.4-0.5-0.5h-7.8c-0.2-0.7-0.6-1.6-1-2.2l-2.9,0.8c0.2,0.3,0.4,0.9,0.6,1.4h-8.3v5.1h2.5
	L607,210L607,210z M587.6,233h-5.8v1h2.4v5.9h1.6V234h2.3C588.2,233.5,588.3,232.9,587.6,233 M596,234.5c-0.2-0.3-0.4-0.5-0.6-0.7
	c-0.2-0.2-0.5-0.4-0.8-0.5c-1.2-0.6-2.7-0.6-3.9,0c-0.3,0.1-0.5,0.3-0.8,0.5c-1.2,1.1-1.4,3.1-0.6,4.4c0.5,0.8,1.3,1.4,2.2,1.6
	c0.7,0.2,1.4,0.2,2.1,0c0.3-0.1,0.6-0.2,0.9-0.3C596.4,238.6,597,236.1,596,234.5 M594.6,237.5c-0.2,1.3-1.6,2.3-2.8,1.5
	c-1.4-0.9-1.4-3.4-0.6-4.8c0.7-1.1,2.4-1.1,3.1,0C594.8,235.2,594.9,236.5,594.6,237.5z M602.1,236.2c0.4-0.2,0.7-0.5,0.8-0.9
	c0.3-0.7,0-1.5-0.6-1.9c-0.9-0.7-2.5-0.5-3.6-0.5c-0.5,0-0.8,0.4-0.8,0.8v6h1.5v-3.1h0.3l2.3,3.1h1.8l-2.4-3.3
	C601.7,236.5,601.9,236.4,602.1,236.2z M601.2,235.4c-0.1,0.2-0.2,0.3-0.3,0.4c-0.4,0.3-0.9,0.3-1.4,0.3v-2.5c0.3,0,0.9,0,1.1,0.1
	c0.3,0.1,0.5,0.4,0.6,0.6C601.3,234.6,601.3,235.1,601.2,235.4 M568.5,233.8v6h5v-1.1h-3.4v-1.9h2.9v-1h-2.9V234h3.7v-1h-4.4
	C568.9,232.9,568.5,233.3,568.5,233.8 M565.5,236.2c0.4-0.2,0.7-0.5,0.8-0.9c0.3-0.7,0-1.5-0.6-1.9c-0.9-0.7-2.5-0.5-3.6-0.5
	c-0.5,0-0.8,0.4-0.8,0.8v6h1.5v-3h0.4l2.2,3h1.8l-2.4-3.3C565,236.5,565.3,236.4,565.5,236.2z M564.5,235.4
	c-0.1,0.2-0.2,0.3-0.3,0.4c-0.4,0.3-0.9,0.3-1.4,0.3v-2.5c0.3,0,0.9,0,1.1,0.1c0.3,0.1,0.5,0.4,0.6,0.6
	C564.7,234.6,564.7,235.1,564.5,235.4 M654.7,233h-5.8v1h2.4v5.9h1.6V234h2.3C655.2,233.5,655.4,232.9,654.7,233 M657.9,233h-1.1
	v6.9h1.7v-6.3C658.5,233.2,658.4,233,657.9,233 M643.9,236.8h2.9v-1h-2.9V234h3.6v-1h-4.3c-0.5,0-0.8,0.4-0.8,0.8v6h5.3v-1.1h-3.7
	V236.8L643.9,236.8z M631.5,236.2c0.4-0.2,0.7-0.5,0.8-0.9c0.3-0.7,0-1.5-0.6-1.9c-0.9-0.7-2.5-0.5-3.6-0.5c-0.5,0-0.8,0.4-0.8,0.8
	v6h1.5v-3h0.4l2.2,3h1.8l-2.4-3.3C631.1,236.5,631.3,236.4,631.5,236.2z M630.6,235.4c-0.1,0.2-0.2,0.3-0.3,0.4
	c-0.4,0.3-0.9,0.3-1.4,0.3v-2.5c0.3,0,0.9,0,1.1,0.1c0.3,0.1,0.5,0.4,0.6,0.6C630.7,234.6,630.7,235.1,630.6,235.4 M622.7,232.8
	c-0.2,0-0.7-0.1-0.7,0.2c-0.8,1.7-3.2,6.9-3.2,6.9h1.4l0.9-1.9h2.5l0.9,1.9h1.6c0,0-2.3-5.1-3.1-6.9
	C622.9,232.9,622.9,232.8,622.7,232.8 M621.5,237.1l0.9-1.9l0.8,1.9H621.5z M578.6,232.8c-0.2,0-0.7-0.1-0.7,0.2
	c-0.8,1.7-3.2,6.9-3.2,6.9h1.4l0.9-1.9h2.5l0.9,1.9h1.6c0,0-2.3-5.1-3.1-6.9C578.8,232.9,578.8,232.8,578.6,232.8 M577.4,237.1
	l0.9-1.9l0.8,1.9H577.4z M556.6,234c0.9,0,1.6,0.6,1.9,1c0.1,0.1,0.3,0.2,0.4,0.1l0.6-0.4c-1.4-3.1-7-2.4-7,1.7c0,3.6,5,5,6.9,2
	c0-0.1,0.1-0.2,0.1-0.2l-0.6-0.5c-0.2-0.1-0.3-0.1-0.5,0.1c-1.6,1.6-3.5,0.9-4-0.6C553.9,235.4,555.3,234,556.6,234 M675.3,236.5
	h-2.4v0.6h1.1v1.2c-1.3,1-3.6,0.5-3.6-1.9c0.1-3.1,3.1-3,4.2-1.4l0,0c0.1,0.2,0.3,0.2,0.4,0l0.5-0.5c-0.5-0.7-1.3-1.3-2.1-1.5
	c-0.6-0.2-1.4-0.2-2.1,0c-0.3,0.1-0.7,0.2-0.9,0.3c-0.3,0.2-0.5,0.3-0.8,0.6c-0.2,0.2-0.4,0.5-0.6,0.7c-0.6,1-0.7,2.4-0.2,3.4
	c0.6,1.2,1.8,1.9,3.1,2c1,0.1,2.5,0,3.6-1.2v-1.9C675.6,236.5,675.5,236.4,675.3,236.5 M616,233.3l-2.2,4.3l-2.2-4.4
	c-0.1-0.2-0.2-0.3-0.5-0.3h-1.3v6.9h1.1v-4.5l2.3,4.5h0.6l2.2-4.5v4.5h1.6V233h-1.2C616.2,233,616.1,233.1,616,233.3 M666.9,233h-1
	v4.6l-3.3-4.4c-0.1-0.1-0.2-0.2-0.4-0.2h-1.4v6.9h1.6v-4.7l3.7,4.8h1.4v-6.5C667.5,233.2,667.3,233,666.9,233 M637.4,235.9l3.1-3
	H639l-2.7,2.5v-2c0-0.7-1-0.4-1.6-0.5v6.9h1.6v-2.9l3,2.9h2L637.4,235.9z M219.1,226H209v-2.3h10.1V218h-10.8v-2.3h10.9
	c-0.9-1.1-1.8-1.9-2.5-2.5l1.9-1.6c1,0.8,2.1,2,3.3,3.4l-0.9,0.7h11.1v2.3h-10.6v5.7h10v2.3h-10v6.4h11.6v2.3h-25.8v-2.3h11.6V226z
	 M239.4,235.5l-2-1.3l0.2-0.2c2.5-2.1,4.1-4.8,5-8.1l2.3,0.6l-0.9,2.6c1.4,1.7,3.1,2.9,5.2,3.4V225h-11.3v-2.1h25.1v2.1h-11.4v2.9
	h9.7v2.1h-9.7v2.9l3.2,0.1h8.9l-0.6,2.2h-7.4c-4.7-0.1-10.1-0.5-12.8-4C241.9,232.9,240.7,234.4,239.4,235.5L239.4,235.5z
	 M260.3,221.3h-19.1c-0.2,0-0.3-0.1-0.3-0.3v-8.4c0-0.2,0.1-0.3,0.3-0.3h19.1c0.2,0,0.3,0.1,0.3,0.3v8.4
	C260.7,221.2,260.5,221.3,260.3,221.3z M258.3,215.8v-1.4l-0.1-0.1c-0.1,0.1-15-0.1-15,0.1v1.4C243.2,215.8,258.3,215.8,258.3,215.8
	z M243.2,217.7v1.4l0.1,0.1h14.9l0.1-0.1v-1.4C258.3,217.7,243.2,217.7,243.2,217.7z M268.1,227.5v-2.2h11.8v-10.7h-10.8v-2.2h24
	v2.2h-10.7v10.7H294v2.2h-11.6v7.9h-2.5v-7.9H268.1L268.1,227.5z M271.6,216.2c1.5,1.7,2.9,4,4.2,6.8l-2.2,1.1
	c-1.5-2.9-2.9-5.1-4.1-6.7L271.6,216.2L271.6,216.2z M292.4,217.1c-0.9,2.1-2.3,4.4-4.3,7.1l-2.1-1.1c2-2.8,3.4-5.1,4.2-6.9
	L292.4,217.1L292.4,217.1z M298.4,223.6v-2.2h8.6c0.7-1.2,1.4-2.5,2-4.1l2.3,1.1c-0.4,1.1-0.9,2.1-1.5,3h14.8v2.2h-5.1
	c-0.8,2.9-2.4,5.4-4.7,7.4l9.4,2.7l-1.4,2l-10.4-3c-3.4,1.8-7.8,2.8-13.3,2.8l-0.7-2.2c3.7,0.1,6.5-0.1,8.5-0.6l2.6-0.8l-8-2.4
	l-0.4-1.3c1.8-1.7,3.3-3.3,4.4-4.6L298.4,223.6L298.4,223.6z M310.2,211.8h2.5v2.5h9.9l2.2,1c-0.2,1.4-0.7,3.2-1.5,5.2l-2.3-0.8
	l0.9-2.9c0-0.2-0.1-0.4-0.3-0.4h-20c-0.1,0-0.2,0.1-0.2,0.2v3.4H299v-5.3c0-0.3,0.2-0.4,0.5-0.4h10.8V211.8L310.2,211.8z
	 M312.3,230.3c2.2-1.7,3.7-3.9,4.6-6.7h-8.6c-1,1.5-2.2,2.9-3.7,4.3c-0.2,0.1-0.1,0.2,0.1,0.3L312.3,230.3L312.3,230.3z
	 M359.3,214.6h-1.6v-2.2h12.9v2.2h-1.5v20.9h-2.4v-3.9l-9,1.4l-0.6-2.1l2.2-0.4V214.6L359.3,214.6z M366.7,218v-3.4h-5v3.4H366.7z
	 M366.7,223.7v-3.6h-5v3.6H366.7z M366.7,229.4v-3.5h-5v4.3L366.7,229.4z M374.7,214.5c-0.2,0-0.3,0.1-0.3,0.3v20.7h-2.4v-22.7
	c0-0.3,0.2-0.4,0.4-0.4h9.3l1.5,1.1l-2.9,7.6c-0.1,0.3-0.1,0.6,0.1,0.9c1.3,1.4,2.1,2.7,2.6,3.8c1,2.8,0.8,5.8-1.7,7.2
	c-1.2,0.6-3,0.5-5.3-0.1l0.1-2.4c1.8,0.6,3.1,0.8,3.9,0.6c1-0.4,1.5-1.6,1.2-3.5c-0.2-1.3-1.3-3.1-3.3-5.3c-0.2-0.3-0.2-0.6-0.1-1
	l2.6-6.8L374.7,214.5L374.7,214.5z M390.7,229.2c0,2.3-0.4,4.3-1.3,6.1c-0.7-0.4-1.3-0.7-1.9-0.8c0.8-1.7,1.2-3.5,1-5.4L390.7,229.2
	L390.7,229.2z M399.2,228.1h-10.5c-0.2,0-0.3-0.1-0.3-0.3v-9.9c0-0.2,0.1-0.3,0.3-0.3h4.6c1-1.1,1.8-2,2.3-2.9
	c0.1-0.2,0-0.4-0.1-0.4H392c-0.6,0.9-1.4,1.9-2.5,3l-1.9-1.4c1.8-1.6,3-3.1,3.6-4.5l2.2,0.4l-0.2,0.5h4.3l1.6,0.9
	c-0.8,1.5-1.8,3-2.9,4.3h3c0.2,0,0.3,0.1,0.3,0.3v9.9C399.6,228,399.5,228.1,399.2,228.1L399.2,228.1z M393,219.7h-2.3l-0.1,0.1v2.3
	h2.4V219.7L393,219.7z M393,223.8h-2.4v2.2l0.1,0.1h2.3V223.8z M393.4,229.3c0.3,1.4,0.5,3.3,0.5,5.5h-2c0-1.5-0.1-3.2-0.5-5.3
	L393.4,229.3z M396.3,229.2c0.6,2.1,0.9,3.9,1,5.2l-2,0.2c-0.1-1.1-0.5-2.8-1-5L396.3,229.2z M395.2,222h2.2v-2.3l-0.1-0.1h-2V222
	L395.2,222z M395.2,226.1h2c0.1,0,0.1,0,0.1-0.1v-2.2h-2.2V226.1z M398.9,228.9c0.6,1.2,1.1,2.7,1.5,4.6l-1.8,0.5
	c-0.4-1.9-0.9-3.4-1.5-4.5L398.9,228.9z M400.9,221.6v-2.1h5.2v-4.3l-4.9,0.3l-0.5-2.2c5.1-0.1,9.1-0.5,12-1.3l0.7,2.1
	c-1.4,0.3-2.9,0.6-4.6,0.8l-0.4,0.1v4.5h5.7v2.1h-5c1,2.7,2.8,5.4,5.3,7.9l-2.3,0.9c-1.6-1.8-2.8-3.6-3.7-5.2v10.1h-2.3v-10.1
	c-1.3,2.3-2.6,4.1-3.8,5.3l-2.2-1.1c2.4-2.3,4.2-4.9,5.3-7.7L400.9,221.6L400.9,221.6z M420.5,231.4l-1.4-1.9
	c3.3-0.9,6.3-2.8,7.6-4.9c-0.4-0.4-0.6-0.8-0.6-1.3v-3.9H421c-0.1,0-0.2,0.1-0.2,0.2v2.9h-2.2v-4.7c0-0.3,0.2-0.4,0.4-0.4h5
	c-0.6-0.8-1.1-1.4-1.6-1.8l1.4-1l-3.3,0l-0.2-2.1c9.5,0.2,16.6-0.1,21.5-0.9l0.3,2.1c-1.8,0.4-7.4,0.7-10.9,0.8
	c0.5,0.6,1,1.3,1.5,2.3l-1.2,0.6h4.4c1-0.9,2.1-2,3.1-3.2l1.7,1.4l-1.5,1.6l-0.1,0.2h3.6l2,0.9c0,1.2-0.3,2.6-0.9,4.2l-2.2-0.5
	c0.4-1.4,0.5-2.1,0.4-2.3c0-0.2-0.1-0.3-0.3-0.3h-13.4v2.8c0,0.3,0.1,0.6,0.4,0.8c0.3,0.2,0.5,0.3,0.9,0.3h5.1
	c0.2,0,0.4-0.1,0.7-0.2l0.1-0.3l0.3-1.7l2.2,0.5c-0.3,1.7-0.5,2.7-0.7,2.8c-0.6,0.5-1.1,0.8-1.6,0.8h-6.8c-0.4,0.7-0.7,1.2-0.9,1.4
	h11.6l1.5,1.1c0.2,0.1,0.2,0.2,0,0.3c-1.3,1.5-3.7,3.1-7.2,4.5c3,0.7,6.5,0.9,10.3,0.7l-0.3,2.2c-4.7,0.4-9-0.3-12.8-1.9
	c-3.6,1.2-7.6,1.8-12.1,2l-0.4-2.1c3.7,0,7.1-0.4,10.1-1.2c-1.3-0.9-2.5-1.9-3.7-3C422.9,230.3,421.4,231,420.5,231.4L420.5,231.4z
	 M425.3,221.8c-1.3,1.9-2.8,3.4-4.4,4.5c-0.4-0.8-0.9-1.3-1.3-1.7c1.5-0.9,2.7-2.2,3.6-3.9L425.3,221.8z M430.6,217.4
	c-0.5-0.9-1-1.5-1.4-2l1.5-0.9l-6.2,0.1c0.6,0.6,1.2,1.3,1.8,2.2l-1,0.6L430.6,217.4L430.6,217.4z M431.2,231.5
	c2.8-1.1,4.7-2,5.8-2.6c0-0.1-0.1-0.2-0.4-0.1h-9c0.7,0.7,1.3,1.2,1.7,1.6C429.8,230.7,430.5,231.1,431.2,231.5L431.2,231.5z
	 M431.9,219.7l2.2,1.9l-1.6,1.3c-0.5-0.6-1.2-1.1-2.1-1.8L431.9,219.7z M439.9,220.3c1.5,1.8,2.7,3.4,3.4,4.8l-1.9,0.9
	c-1-1.7-2.1-3.3-3.4-4.7L439.9,220.3z M450.5,224.7l-2.3-0.8c2.7-3.8,4.2-7.9,4.6-12.3l2.4,0.2c-0.4,2.4-0.9,4.6-1.5,6.4v16.9h-2.4
	v-11.7L450.5,224.7L450.5,224.7z M460.2,216.5c-1.1,2.7-2.2,4.8-3.4,6.2l-2.3-0.9c2.5-3.2,4-6.5,4.6-10.1l2.4,0.4l-0.6,2.2h12.5
	l1.6,0.9c-0.2,1.8-0.8,3.6-1.5,5.4l-2.4-0.5c0.5-0.8,0.9-1.4,1.1-1.9c0.4-0.9,0.5-1.4,0.4-1.6l-0.3-0.1h-5.2V233
	c0,1-0.4,1.7-1.3,2.2c-1,0.5-2.8,0.5-5.5-0.2l0.1-2.3l2,0.5c1,0.2,1.7,0.2,2.1-0.1c0.2-0.2,0.3-0.4,0.3-0.7v-15.9L460.2,216.5
	L460.2,216.5z M462.1,221.6c-0.7,3.1-2.1,6.7-4.1,10.8l-2.2-0.7c2.1-4.3,3.4-7.9,4.1-10.7L462.1,221.6L462.1,221.6z M471.1,221.1
	c1.9,4.6,3.2,8.2,3.9,10.9l-2.3,0.5c-0.9-3.5-2.2-7.1-3.8-10.7L471.1,221.1L471.1,221.1z M344.6,224.2c-0.1,2.9-4.4,2.9-4.4,0
	C340.2,221.2,344.5,221.2,344.6,224.2z M51.7,44.7v4.6H3.9v-4.6h13c-0.5-1.4-1.2-3.1-2-4.4l0.6-0.2h-5.3V29.6h35.9v10.6h-5.2
	l0.6,0.2c-0.9,1.6-1.7,3.1-2.5,4.4C39.1,44.7,51.7,44.7,51.7,44.7z M51.2,27.8H4.6v-4.3h46.6L51.2,27.8L51.2,27.8z M48.9,21.7H6.7
	V1.4h5.4v16h4.5v-1.8h-3.2v-3h3.2v-1.7h-3V8h3V6.3h-3.1V3.4h3.1V0.7h3.7v2.7h3.3v2.9h-3.3V8h3.1v2.9h-3.1v1.7h3.5v3h-3.5v1.8h4.6V0
	h5.6v17.4H35v-1.8h-3.4v-3H35v-1.7h-3.1V8H35V6.3h-3.3V3.4H35V0.7h3.8v2.7H42v2.9h-3.2V8h3v2.9h-3v1.7h3.3v3h-3.3v1.8h4.5v-16h5.6
	L48.9,21.7L48.9,21.7z M16.3,36.4h23.6v-3.1H16.3V36.4z M21.3,40.1c0.8,1.5,1.6,3.2,1.9,4.4l-0.4,0.1h10.1c0.7-1.3,1.6-3,2.3-4.5
	C35.2,40.1,21.4,40.1,21.3,40.1z M94.4,43.1c4.8,0,5.7-0.8,6.3-5.8c1.6,1,4.5,1.9,6.4,2.2c-1.2,7.6-3.5,9.7-12.4,9.7H75.8
	C65,49.3,62,47.3,62,39.7v-21h41v17.1H68.5v3.8c0,3.1,1,3.6,7.2,3.6H94.4L94.4,43.1z M99.9,15.6H65.3V1.9h34.6V15.6L99.9,15.6z
	 M68.5,24.3v5.9h10.7v-5.9H68.5z M93.1,6.7H71.6v4.2h21.5V6.7z M96.6,24.3H85.5v5.9h11.1V24.3z M150.5,41.9c2.2,0,4.8-0.2,6.4-0.6
	c0.2,1.8,0.5,4.6,0.8,6.1c-3.6,1-14.5,0.4-18.7,0.5c-8,0-10.9-3.1-10.9-11.6V24.9l-14,2.1l-1.1-6.5l15.1-2.3v-17h6.9v16l25.4-3.9
	l1.1,6.6L135,23.8v13c0,3.8,0.8,5.1,3.8,5.1L150.5,41.9L150.5,41.9z M180,39.7c-1.9,3.9-5.1,8.1-8,10.8c-1.2-1.1-3.7-3-5.1-3.8
	c2.8-2.1,5.6-5.5,7.1-8.7L180,39.7z M193.7,37.5h-26.4v-5.6h4.8V12H168V6.3h4.2V0.6h5.8v5.7h6.7V0.6h5.9v5.7h3.7V12h-3.7v20h3.3
	C193.7,31.9,193.7,37.5,193.7,37.5z M177.9,12v3.1h6.7V12H177.9z M177.9,23.4h6.7V20h-6.7V23.4z M177.9,32h6.7v-3.7h-6.7V32z
	 M215.8,43.2c0.1,7.2-4.5,6.9-11.1,7c-0.2-1.7-1-4.5-1.8-6.1c2.3,0.2,4.9,0.1,5.7,0.1c0.8,0,1.1-0.3,1.1-1.1V32.5h-8.2
	c-0.6,6.3-1.9,13.1-4.8,17.9c-1-1.1-3.7-3.1-5.1-3.6c0.2-0.3,0.4-0.6,0.5-0.9l-4.5,2.5c-1.1-2.1-3.7-5.7-5.8-8.1l4.8-2.6
	c1.9,2.1,4.5,5.1,5.8,7.3c3.1-6.7,3.4-15.8,3.4-22.8V2.4h19.9L215.8,43.2L215.8,43.2z M209.7,26.8v-6.6h-7.7c0,2.2,0,4.2-0.1,6.6
	H209.7z M201.9,8.2v6.3h7.7V8.2L201.9,8.2L201.9,8.2z M32.8,105.8c3.6,10.5,10.1,19,20.1,23c-1.6,1.3-3.7,4.2-4.7,6
	c-9.7-4.6-16-12.4-20.2-22.8c-2.9,9-8.7,17.4-20.1,22.9c-1-1.8-2.9-4.1-4.8-5.4c12.3-5.5,17.4-14.4,19.5-23.7H4.1v-6.6h19.6
	c0.5-5.1,0.5-10,0.5-14.4h7c-0.1,4.4-0.1,9.4-0.6,14.4h21.1v6.6L32.8,105.8L32.8,105.8z M90.2,123.9c-2.1,0.3-4.1,0.5-6.2,0.8
	c0.1,8.4,0.7,10-8.8,9.9c-0.2-1.5-1-3.5-1.6-5c1.8,0.1,3.6,0.1,4.2,0.1c0.6,0,0.8-0.2,0.8-0.6v-3.7l-6.3,0.8l-0.5-3.8
	c-4.3,2-8.7,4.1-12.4,5.9l-1.9-6.3c1.5-0.5,3.3-1.2,5.3-2v-16.2h-4.3v-6.1h4.3v-12h5.6v12h4.1v6.1h-4.1v13.8l4-1.8l1.3,5.1
	c1.5-0.2,3.1-0.3,4.9-0.5v-2.9h0.1l-0.1-0.1c0.9-0.6,1.9-1.3,2.8-2.2h-8.3v-4.7H86l1-0.3l3.3,2.5c-1.8,2-4,4.1-6.3,5.9v1.1l6.1-0.6
	L90.2,123.9z M90.8,95.5H72.4v-5h6.5c-0.4-1.5-1-2.9-1.6-4.2l5.4-1.2c0.9,1.6,1.7,3.7,2.2,5.4h5.9L90.8,95.5L90.8,95.5z
	 M105.5,101.1c-0.8,7.8-2.1,14.5-4.4,20.1c1.8,4,4.1,7.3,7.3,9.4c-1.1,1-2.8,3-3.7,4.5c-2.6-2.2-4.7-4.8-6.5-8.1
	c-1.9,3.2-4.5,5.9-7.5,8.3c-0.6-1.1-2.5-3.2-3.6-4.3c3.9-2.6,6.7-6.1,8.7-10.3c-1-3.3-1.8-7.1-2.5-11c-0.4,0.9-0.9,1.8-1.4,2.6
	c-0.5-1-1.9-2.9-3-4.1v0.3h-15V97.5h15v8.4c2.7-5.4,4.2-13.3,5.1-21.1l5.6,1c-0.5,3.3-1.1,6.7-1.8,10h9.6v5.4H105.5z M84.1,101.4
	h-5.5v3h5.5V101.4z M96.6,101.1c0.4,4.1,1,8.1,1.8,11.7c0.9-3.6,1.4-7.4,1.9-11.7C100.3,101.1,96.6,101.1,96.6,101.1z M160.2,89.2
	v43.5h-6.8v-3.1h-32v3.6h-6.5v-44H160.2z M153.4,123.4v-6c-1.7,0.3-5.6,0.1-7.3,0.2c-5,0-6.1-2.6-6.1-8V95.4h-5.2
	c-0.3,13.1-1.4,21-9.9,25.6c-0.5-1.4-2.2-3.7-3.6-4.9v7.3C121.4,123.4,153.4,123.4,153.4,123.4z M121.4,95.4v20.4
	c6.4-3.7,7-9.6,7.1-20.4H121.4z M153.4,95.4H146v14.3c0,1.8,0.1,2.5,1.1,2.5c1.8,0,4.5,0.1,6.3-0.2
	C153.4,112.1,153.4,95.5,153.4,95.4z M182.9,98c-1.1,2.4-2.4,5-4,7.4V135h-5.9v-21.8c-1.1,1.3-2.2,2.4-3.3,3.4
	c-0.6-1.3-2.4-4.5-3.5-5.9c4.3-3.5,8.4-9.1,10.9-14.6L182.9,98z M181.7,86.9c-2.9,4.7-7.3,9.7-11.5,13c-0.8-1.3-2.4-3.7-3.3-4.8
	c3.5-2.6,7.2-6.9,9-10.3L181.7,86.9L181.7,86.9z M217.5,107.7h-4v20.2c0.3,7.1-4.4,7-10.7,7.1c-0.2-1.6-0.8-3.9-1.5-5.8
	c-7,0.9-14.4,1.7-19.9,2.3l-0.6-5.9c2.3-0.2,5.1-0.4,8.1-0.7v-6.4h-6.7V113h6.7v-5.3h6v5.3h6.6v5.5h-6.6v5.8c2.5-0.3,5-0.5,7.5-0.8
	l0.2,5.1c1.7,0,3.1,0.1,3.7,0c0.7,0,0.9-0.2,0.9-0.8v-20.1h-4.4V102h14.7V107.7z M188.9,96h-6.1v-5.3h6.1v-5.9h6.1v5.9h6.1V96H195
	v5.2h6.9v5.5h-20.1v-5.5h7.1V96z M216.6,93.2h-13.5v-5.6h13.5V93.2z M446.4,42.5c-0.1,0.9-0.3,1.8-0.5,2.6h16c0,0,0,1.3-0.1,2
	c-0.9,8-0.9,11.4-6.4,11.8c-1.4,0.2-3.8,0.2-6.5,0.1c0-1.5-0.7-3.6-1.5-4.9c2.3,0.2,4.4,0.3,5.4,0.3c0.7,0,1.2-0.1,1.7-0.4
	c0.5-0.5,0.9-1.8,1.3-4.4h-11.2c-2,4.2-5.6,7.4-12.7,9.6c-0.5-1.4-2-3.4-3.1-4.5c-0.9,1.9-2,3.6-3.4,5.1c-0.8-1.2-3.1-3.5-4.2-4.3
	c5.3-6.3,5.8-15.5,5.8-22.6v-16c11.3-0.6,24.1-1.9,31.6-3.7l4.5,4.3c-8.5,1.9-19.9,3.1-30.4,3.7v1.5h31v11.8h-13.7
	c0.5,1,1.1,2.3,1.6,3.4h15v4.6H446.4L446.4,42.5z M432,42.5c-0.5,4.1-1.6,8.3-3.4,12c8.8-2.4,10.9-6.5,11.8-12H432z M445.1,37.9
	c-0.3-0.9-0.7-1.7-1.1-2.5l4.8-0.9h-16.2c0,1.1-0.1,2.2-0.1,3.4L445.1,37.9L445.1,37.9z M432.6,27.2v2.9h25.2v-2.9H432.6z
	 M262.4,0.4h-1v136h1V0.4z"/>
<path class="st1" d="M519.4,213.8c6-5.7,13.5-9.6,17.7-8.6c-3.4-2.3-7.5-3.7-11.9-3.7c-11.7,0-21.2,9.5-21.2,21.2
	c0,5,1.7,9.6,4.6,13.2C507,230.4,512.7,220.2,519.4,213.8 M539.9,207.5c1.1,2.6-0.2,6.7-4.9,11.8c-5.6,6-9.8,8.7-12.5,7.1
	c-2.7-1.7,4-10.4,6-11.7c2.1-1.2,1.2,2.5,1.2,2.5s9.1-5.6,6.4-8.7c-1.7-2-10.6,4.4-15.4,10.6c-4.8,6.2-7.4,12.6-4.6,15.6
	c3.5,3.7,11.6-1.2,18.5-6.4c2.5-1.9,2.5-0.6,1.7,0.6c0,0-12.5,15.9-23.7,11.1c3.5,2.6,7.8,4.1,12.5,4.1c11.7,0,21.2-9.5,21.2-21.2
	C546.4,216.8,543.9,211.4,539.9,207.5z"/>
<path class="st2" d="M42.3,221.8c8.8,7.8-1.6,14.7-13.9,16.1v-12.2c-0.9,1-2.1,1.6-3.5,1.9V238c-0.7,0-1.4,0-2.2,0v-10.5
	c-1.4-0.2-2.6-0.9-3.5-1.9v12.1C7,236.5-3.4,229.6,5.4,221.8c-13.9,10,1.5,20.6,18.4,20.3C40.8,242.3,56.1,231.8,42.3,221.8
	L42.3,221.8z"/>
<path class="st3" d="M11.9,233.2H17V208l-5.1,5.2V233.2z M30.5,202.5v30.7h5.1v-35.9L30.5,202.5z M28.2,221.4c0.1,5.8-9,5.8-8.9,0
	C19.2,215.6,28.3,215.6,28.2,221.4z"/>
<g>
	<path class="st4" d="M318.2,100.2c-1.5,1.1-3.1,2.7-4.8,4.9l-5.4-4.2c17.6-23.6,46.4,2.4,19,20.7c0,0-8.9,7.4-8.9,7.4h20.6v6.7
		h-31.3v-6c4.6-4.2,17.7-14.2,21.2-18.9C334.5,103.2,325.7,94.9,318.2,100.2L318.2,100.2z"/>
	<path class="st4" d="M355.6,100.2c-1.5,1.1-3.1,2.7-4.8,4.9l-5.4-4.2c17.6-23.6,46.4,2.4,19,20.7c0,0-8.9,7.4-8.9,7.4h20.6v6.7
		h-31.3v-6c4.6-4.2,17.7-14.2,21.2-18.9C371.8,103.2,363,94.9,355.6,100.2L355.6,100.2z"/>
	<path class="st4" d="M386.1,92.4H412v6.8h-19.4l-0.7,10.2c15.9-6.3,29.7,9.9,17.6,23.2c-7.8,6.8-20.8,4.5-27.6-2.5l4.7-5.5
		c21,18.7,29.8-18.1,2.8-7.8l-4.6-3L386.1,92.4L386.1,92.4z"/>
	<path class="st4" d="M451.7,129c-5,8.9-19.3,9.3-27.1,4c-7.5-5.1-5.7-17,3.1-19.7c-13-6.8-4.1-22.5,8.7-21.5
		c12.8-1,21.7,14.7,8.7,21.5C451.7,115.7,455.1,122.7,451.7,129z M444.8,120.7c-4.7-8.5-24.5-1.9-15.1,7.4
		C434.9,132.4,449,129.2,444.8,120.7z M442.1,99.9c-6.1-5.3-18.7,1.8-11.2,9C436.9,114.3,449.3,107,442.1,99.9L442.1,99.9z"/>
	<path class="st4" d="M459.5,115.8v-3.3h15.8v3.3H459.5z"/>
	<path class="st4" d="M518.8,122.8c-11.7,28.2-44,9.2-35-17.4C495.4,77.2,527.7,96.1,518.8,122.8z M511.5,108
		c-1.5-8.9-13.1-13.4-18.3-5.1c-5.4,8.1-4,25.9,8.1,26.6C511.4,129.3,513.7,116,511.5,108z"/>
	<path class="st4" d="M558.9,122.4c-3,14.3-21,18.3-31.2,8.9l4.2-5.8c9.3,8.6,20.7,2.7,20.4-9.6c-13.6,13.9-35.3-5.2-21-20
		c6.2-5.8,17.8-5.9,23.7,0.3C561,102.3,561.1,114.1,558.9,122.4L558.9,122.4z M551.3,103c-5.8-11.2-23.8-1.3-14.7,8.9
		C542.6,117.5,555.3,111.8,551.3,103z"/>
	<path class="st4" d="M597.8,129c-5,8.9-19.3,9.3-27.1,4c-7.5-5.1-5.7-17,3.1-19.7c-13-6.8-4.1-22.5,8.7-21.5
		c12.8-1,21.7,14.7,8.7,21.5C597.8,115.7,601.2,122.7,597.8,129z M590.9,120.7c-4.7-8.5-24.5-1.9-15.1,7.4
		C581,132.4,595.1,129.2,590.9,120.7z M588.2,99.9c-6.1-5.3-18.7,1.8-11.2,9C583,114.3,595.4,107,588.2,99.9L588.2,99.9z"/>
	<path class="st4" d="M636.2,129c-5,8.9-19.3,9.3-27.1,4c-7.5-5.1-5.7-17,3.1-19.7c-13-6.8-4.1-22.5,8.7-21.5
		c12.8-1,21.7,14.7,8.7,21.5C636.2,115.7,639.6,122.7,636.2,129z M629.3,120.7c-4.7-8.5-24.5-1.9-15.1,7.4
		C619.4,132.4,633.5,129.2,629.3,120.7z M626.6,99.9c-6.1-5.3-18.7,1.8-11.2,9C621.4,114.3,633.8,107,626.6,99.9L626.6,99.9z"/>
	<path class="st4" d="M309.8,17V9.9h30.7V16l-12.9,13.3c12.6,0.3,18.4,15.1,9.2,23.7c-8.5,7.4-23.1,4.3-29.5-4l5.7-5.3
		c15.8,18.5,33.7-9.9,5.8-8.2l-1.3-5.1L329.9,17L309.8,17L309.8,17z"/>
	<path class="st4" d="M349.7,40v-7.9h19.6V40H349.7z"/>
	<path class="st4" d="M408.9,9.6v29.7h6.6V46h-6.6v10.4h-7.8V46h-23.4l-1.5-5.8l25.8-30.5C402,9.6,408.9,9.6,408.9,9.6z M401.1,20.9
		l-15.3,18.4h15.3V20.9z"/>
	<path class="st0" d="M678,0.4h-1v136h1V0.4z"/>
</g>
</svg>
