<svg width="678" height="274" viewBox="0 0 678 274" fill="none" xmlns="http://www.w3.org/2000/svg">
<g clip-path="url(#clip0_4_1096)">
<path d="M488.237 24.7501C488.008 26.9715 487.593 28.7772 487.006 30.2534C488.409 31.8298 490.428 32.2167 492.919 32.2167C493.435 32.2167 496.584 32.2167 497.257 32.2024C497.1 32.446 496.942 32.9046 496.885 33.1913H492.905C490.213 33.1913 488.108 32.7757 486.591 31.1276C486.09 32.1594 485.46 32.9763 484.758 33.5782C484.601 33.3776 484.271 33.005 484.057 32.8617C484.815 32.2597 485.474 31.4142 485.975 30.325C485.46 29.5081 485.03 28.5049 484.658 27.2295L485.374 26.9142C485.632 27.9174 485.961 28.7342 486.39 29.4078C486.777 28.3043 487.078 27.0431 487.264 25.567H485.402C485.188 25.6817 484.887 25.8823 484.887 26.0113C484.83 25.8107 484.629 25.3664 484.5 25.1514C484.758 25.0941 485.088 24.7071 485.374 24.2199C485.632 23.8186 486.39 22.4715 486.977 21.0383H484.429V20.0781H487.35L487.665 19.9205L488.266 20.3648C487.607 21.9269 486.849 23.4317 486.133 24.6068H487.693L488.223 24.7501H488.237ZM491.888 21.3106H489.168V20.4508H491.888V19.075H492.79V20.4508H496.012V22.5861H497.057V23.446H496.012V25.61H492.79V26.9142H496.37V27.7454H492.79V29.0782H496.928V29.9381H492.79V31.6148H491.888V29.9381H488.323V29.0782H491.888V27.7454H488.939V26.9142H491.888V25.61H489.053V24.7645H491.888V23.446H488.194V22.5861H491.888V21.3106ZM492.79 21.3106V22.5861H495.138V21.3106H492.79ZM495.138 23.446H492.79V24.7645H495.138V23.446Z" fill="white"/>
<path d="M502.512 26.8712C502.311 28.2471 501.996 29.4365 501.581 30.4541C502.54 32.1452 504.373 32.4031 507.108 32.4175C508.611 32.4175 510.658 32.3315 512.076 32.2168C511.933 32.4605 511.804 32.9334 511.746 33.2343C510.429 33.3347 508.654 33.3633 507.093 33.3633C504.173 33.3633 502.34 33.0337 501.209 31.271C500.679 32.2741 500.021 33.0767 499.29 33.6499C499.162 33.4063 498.832 33.048 498.646 32.9047C500.035 31.9015 501.066 30.1101 501.524 27.5591H499.935C499.562 27.5591 499.204 27.6738 499.09 27.7885C499.033 27.5305 498.832 27.0432 498.718 26.8139C498.932 26.7566 499.161 26.6419 499.391 26.341C499.734 25.954 500.622 24.6212 501.223 23.6324H498.904V22.7582H501.81L501.982 22.6722L502.626 22.9875C502.039 23.9047 500.937 25.6101 500.121 26.6849H502.025L502.512 26.8712ZM501.252 22.1133C500.851 21.4397 500.063 20.3505 499.433 19.5623L500.135 19.1037C500.794 19.8776 501.581 20.8951 501.982 21.54L501.252 22.1133ZM511.661 25.1228H502.727V24.2056H506.821V22.0416H504.616C504.287 22.7008 503.901 23.2741 503.543 23.7614C503.356 23.6037 502.956 23.3601 502.741 23.2454C503.6 22.2709 504.359 20.7804 504.788 19.29L505.676 19.5193C505.504 20.0639 505.304 20.6085 505.089 21.1101H506.85V19.0894H507.781V21.1101H511.116V22.0273H507.781V24.1913H511.689V25.1085L511.661 25.1228ZM503.886 30.9413V26.4413H510.644V30.9413H503.886ZM504.803 30.0528H509.685V27.3298H504.803V30.0528Z" fill="white"/>
<path d="M519.864 24.1912H513.608V23.274H516.4V21.6689H514.166V20.766H516.4V19.075H517.287V20.766H519.421V21.6689H517.287V23.274H519.85V24.1912H519.864ZM517.316 30.3107V33.5639H516.414V30.3107H513.636V29.3935H516.414V27.6451H514.095V26.7135H517.473C517.717 26.04 518.046 25.0224 518.189 24.3345L519.02 24.5782C518.776 25.2947 518.519 26.0973 518.29 26.7135H519.578V27.6451H517.33V29.3935H519.936V30.3107H517.33H517.316ZM515.34 26.6132C515.24 26.0686 514.925 25.1944 514.624 24.5352L515.312 24.2915C515.641 24.9078 515.97 25.7533 516.056 26.2979L515.34 26.5989V26.6132ZM525.148 22.1848C525.105 27.6881 525.062 32.1451 525.949 32.3744C526.05 32.3887 526.164 31.3712 526.207 30.11C526.365 30.3393 526.637 30.6546 526.794 30.7693C526.694 33.091 526.307 33.6499 525.634 33.4062C524.174 32.9476 524.203 28.6769 524.217 23.188H522.585V23.9189C522.585 25.0511 522.542 26.2979 522.37 27.5018C523.043 28.204 523.63 28.9205 523.988 29.4938L523.401 30.2964C523.114 29.8378 522.699 29.2502 522.17 28.6769C521.797 30.4827 521.053 32.2024 519.693 33.6642C519.521 33.4636 519.163 33.1483 518.948 33.005C520.394 31.5002 521.081 29.6944 521.396 27.8457C520.852 27.2725 520.265 26.7279 519.721 26.2836L520.265 25.5957C520.681 25.911 521.124 26.3123 521.554 26.7135C521.654 25.739 521.683 24.7931 521.683 23.9046V23.188H520.008V22.1992H521.683V19.0893H522.585V22.1992H525.119L525.148 22.1848Z" fill="white"/>
<path d="M528.254 33.2199C528.913 32.403 529.686 31.1132 530.173 29.9523L531.061 30.2246C530.56 31.4141 529.829 32.7899 529.156 33.6785L528.254 33.2199ZM529.901 29.6227H528.999V19.7771H533.108V28.8058H529.901V29.6371V29.6227ZM529.901 20.723V23.6179H532.206V20.723H529.901ZM532.206 27.8313V24.5781H529.901V27.8313H532.206ZM533.423 30.282C533.609 31.2995 533.767 32.5893 533.781 33.3775L532.865 33.5352C532.865 32.7326 532.736 31.4141 532.55 30.3823L533.423 30.282ZM537.174 20.68C536.845 22.6291 536.043 23.9189 533.853 24.6641C533.752 24.4348 533.509 24.0622 533.323 23.8615C535.256 23.274 535.943 22.2134 536.215 20.68H533.767V19.7341H540.811C540.811 19.7341 540.811 20.0208 540.796 20.1641C540.653 22.4857 540.524 23.4316 540.224 23.7756C540.009 24.0192 539.766 24.0908 539.408 24.1338C539.078 24.1482 538.448 24.1625 537.775 24.1052C537.761 23.8472 537.675 23.4889 537.532 23.231C538.176 23.2883 538.806 23.317 539.021 23.317C539.236 23.317 539.365 23.2883 539.465 23.1736C539.637 22.973 539.766 22.2994 539.866 20.68H537.189H537.174ZM540.41 29.2931H534.196V24.9507H540.41V29.2931ZM539.451 25.8536H535.098V28.4046H539.451V25.8536ZM536.516 30.1386C536.902 31.1275 537.289 32.4317 537.432 33.2629L536.53 33.5065C536.387 32.6896 536.014 31.3425 535.628 30.3393L536.516 30.153V30.1386ZM539.379 29.8234C540.081 30.8552 540.925 32.2597 541.298 33.1769L540.41 33.6212C540.052 32.7469 539.236 31.2852 538.534 30.2246L539.379 29.8234Z" fill="white"/>
<path d="M544.848 22.5C544.848 21.7835 545.335 21.3535 545.879 21.3535C546.423 21.3535 546.924 21.7835 546.924 22.5C546.924 23.2166 546.437 23.6322 545.879 23.6322C545.321 23.6322 544.848 23.1879 544.848 22.5ZM544.848 30.3249C544.848 29.6227 545.335 29.1784 545.879 29.1784C546.423 29.1784 546.924 29.6227 546.924 30.3249C546.924 31.0271 546.437 31.4714 545.879 31.4714C545.321 31.4714 544.848 31.0271 544.848 30.3249Z" fill="white"/>
<path d="M488.824 57.3967H487.564V48.4684C487.264 48.7836 486.863 49.1133 486.362 49.4285C485.861 49.7438 485.417 49.9875 485.03 50.1451V48.798C485.746 48.4254 486.362 47.9811 486.891 47.4652C487.421 46.9349 487.793 46.4333 488.023 45.946H488.839V57.3967H488.824Z" fill="white"/>
<path d="M496.069 57.3967H494.809V48.4684C494.508 48.7836 494.107 49.1133 493.606 49.4285C493.105 49.7438 492.661 49.9875 492.275 50.1451V48.798C492.991 48.4254 493.606 47.9811 494.136 47.4652C494.666 46.9349 495.038 46.4333 495.267 45.946H496.083V57.3967H496.069Z" fill="white"/>
<path d="M499.605 54.3873L500.865 54.201C501.008 54.9892 501.266 55.5625 501.61 55.9208C501.953 56.2647 502.383 56.451 502.884 56.451C503.485 56.451 503.986 56.2217 504.387 55.7631C504.803 55.3045 505.003 54.7456 505.003 54.072C505.003 53.3985 504.817 52.8969 504.43 52.4813C504.044 52.0656 503.571 51.8507 502.984 51.8507C502.741 51.8507 502.44 51.908 502.097 52.0083L502.24 50.7758C502.326 50.7758 502.397 50.7902 502.44 50.7902C502.984 50.7902 503.471 50.6325 503.901 50.3172C504.33 50.0019 504.545 49.529 504.545 48.8841C504.545 48.3682 504.387 47.9382 504.072 47.6086C503.757 47.279 503.357 47.107 502.855 47.107C502.354 47.107 501.953 47.279 501.624 47.6229C501.295 47.9669 501.08 48.4828 500.994 49.1707L499.734 48.9271C499.892 47.9812 500.235 47.2647 500.794 46.7487C501.338 46.2328 502.025 45.9749 502.841 45.9749C503.399 45.9749 503.929 46.1038 504.402 46.3761C504.874 46.6484 505.232 47.0067 505.49 47.4653C505.748 47.9239 505.862 48.4112 505.862 48.9414C505.862 49.4717 505.748 49.8873 505.504 50.2886C505.261 50.6898 504.917 51.0195 504.445 51.2488C505.06 51.4064 505.533 51.7217 505.862 52.2233C506.206 52.7106 506.363 53.3268 506.363 54.0577C506.363 55.0609 506.034 55.8921 505.375 56.5943C504.717 57.2822 503.886 57.6405 502.884 57.6405C501.982 57.6405 501.223 57.3396 500.622 56.752C500.021 56.1501 499.677 55.3762 499.591 54.4303L499.605 54.3873Z" fill="white"/>
<path d="M520.237 46.9208V54.3014H519.263V53.3842H514.982V58.5864H513.994V53.3842H509.728V54.3874H508.783V46.9208H514.009V44.0688H514.997V46.9208H520.265H520.237ZM513.98 52.3237V47.9526H509.713V52.3237H513.98ZM519.263 52.3237V47.9526H514.982V52.3237H519.263Z" fill="white"/>
<path d="M530.288 44.8714C529.701 46.3619 528.956 47.709 528.111 48.8985H530.116V49.8587H527.395C526.923 50.4319 526.436 50.9765 525.921 51.4638H529.443V58.2712H528.526V57.5403H525.133V58.5005H524.246V52.9113C523.859 53.2122 523.444 53.4988 523.014 53.7425C522.9 53.5275 522.585 53.0832 522.399 52.8826C523.816 52.1087 525.09 51.0768 526.193 49.873H522.699V48.9128H525.62V46.9064H523.358V45.9606H525.62V44.2122H526.522V45.9606H528.369V46.8348C528.77 46.1326 529.113 45.3873 529.443 44.5991L530.288 44.8714ZM528.512 52.3523H525.119V54.0148H528.512V52.3523ZM528.512 56.6517V54.8603H525.119V56.6517H528.512ZM526.98 48.8985C527.481 48.2822 527.925 47.6087 528.326 46.8921H526.522V48.8985H526.98ZM535.814 45.4303C535.198 46.9351 534.397 48.7408 533.666 50.2313C535.241 51.7218 535.657 52.9686 535.657 54.1151C535.657 55.0609 535.456 55.7918 534.941 56.1358C534.683 56.3364 534.354 56.4511 533.981 56.5084C533.595 56.5514 533.079 56.5514 532.621 56.5227C532.621 56.2218 532.507 55.7775 532.335 55.4766C532.807 55.5195 533.266 55.5339 533.609 55.5052C533.867 55.4909 534.096 55.4192 534.296 55.3189C534.626 55.1183 534.74 54.6167 534.726 54.0291C534.726 53.0116 534.253 51.7934 532.678 50.3746C533.351 48.9845 534.053 47.2647 534.54 45.9892H531.705V58.6008H530.76V44.986H534.998L535.155 44.9431L535.828 45.4303H535.814Z" fill="white"/>
<path d="M541.512 49.7582C541.283 51.9796 540.868 53.7853 540.281 55.2614C541.684 56.8379 543.703 57.2248 546.194 57.2248C546.71 57.2248 549.859 57.2248 550.532 57.2105C550.375 57.4541 550.217 57.9127 550.16 58.1993H546.18C543.488 58.1993 541.383 57.7837 539.866 56.1356C539.365 57.1675 538.735 57.9844 538.033 58.5863C537.876 58.3856 537.546 58.013 537.332 57.8697C538.09 57.2678 538.749 56.4223 539.25 55.3331C538.735 54.5162 538.291 53.513 537.933 52.2375L538.649 51.9222C538.907 52.9254 539.236 53.7423 539.665 54.4159C540.052 53.3124 540.353 52.0512 540.539 50.5751H538.677C538.463 50.6897 538.162 50.8904 538.162 51.0194C538.105 50.8187 537.904 50.3744 537.775 50.1595C538.033 50.1022 538.363 49.7152 538.649 49.2279C538.907 48.8267 539.665 47.4795 540.252 46.0464H537.704V45.0862H540.625L540.94 44.9286L541.541 45.3728C540.882 46.9349 540.124 48.4397 539.408 49.6149H540.968L541.498 49.7582H541.512ZM545.163 46.3187H542.443V45.4588H545.163V44.083H546.065V45.4588H549.287V47.5942H550.332V48.4541H549.287V50.6181H546.065V51.9222H549.645V52.7534H546.065V54.0863H550.203V54.9461H546.065V56.6229H545.163V54.9461H541.598V54.0863H545.163V52.7534H542.214V51.9222H545.163V50.6181H542.328V49.7725H545.163V48.4541H541.469V47.5942H545.163V46.3187ZM546.065 46.3187V47.5942H548.413V46.3187H546.065ZM548.413 48.4541H546.065V49.7725H548.413V48.4541Z" fill="white"/>
<path d="M564.792 53.642H559.123V57.2678C559.123 57.927 558.965 58.228 558.493 58.3999C558.02 58.5863 557.29 58.5863 556.087 58.5863C556.016 58.2853 555.844 57.8267 555.672 57.5401C556.646 57.5687 557.562 57.5687 557.806 57.5544C558.063 57.5544 558.135 57.4684 558.135 57.2534V53.6563H552.465V52.6531H558.135V51.6356C559.023 51.1626 560.025 50.4031 560.784 49.6722H554.813V48.669H561.743L561.958 48.5973L562.602 49.1419C561.714 50.1738 560.368 51.263 559.108 52.0082V52.6531H564.778V53.6563L564.792 53.642ZM553.582 48.9556H552.651V45.7741H558.364C558.163 45.3011 557.877 44.7422 557.591 44.3123L558.507 43.9827C558.879 44.5416 559.28 45.2438 559.495 45.7884H564.621V48.97H563.647V46.7916H553.596V48.97L553.582 48.9556Z" fill="white"/>
<path d="M569.016 46.1181C568.572 46.9207 568.071 47.6372 567.541 48.1675C567.398 47.9955 567.069 47.6372 566.854 47.4653C567.742 46.5911 568.558 45.3012 569.03 43.9541L569.889 44.2121C569.761 44.5703 569.632 44.9 569.46 45.2439H573.283V46.1038H570.448C570.92 46.5624 571.507 47.193 571.794 47.6086L571.164 48.1962C570.877 47.7519 570.276 47.0497 569.775 46.5481L570.319 46.1038H569.016V46.1181ZM579.067 53.5131C579.067 53.5131 579.067 53.8284 579.038 53.9717C578.838 56.2074 578.623 57.1819 578.265 57.5402C578.036 57.8125 577.778 57.8841 577.392 57.9128C577.034 57.9414 576.318 57.9414 575.588 57.8985C575.573 57.5832 575.473 57.1962 575.316 56.9096C576.046 57.0099 576.733 57.0099 576.991 57.0099C577.234 57.0099 577.392 56.9956 577.506 56.8666C577.721 56.6373 577.879 55.9924 578.036 54.4446H573.755V58.6007H572.824V54.8029C571.55 56.451 569.632 57.8698 567.885 58.6293C567.756 58.3571 567.484 57.9988 567.269 57.7838C568.987 57.1389 570.863 55.8777 572.037 54.4303H568.114C568.286 53.4987 568.501 52.1373 568.615 51.0194H572.824V49.4573H568.1V48.5544H578.652V51.951H573.769V53.5131H579.095H579.067ZM569.388 51.951C569.317 52.4812 569.245 53.0401 569.174 53.5131H572.81V51.951H569.388ZM579.854 45.2582V46.1181H574.929C574.614 46.677 574.228 47.1643 573.841 47.5513C573.683 47.3936 573.34 47.0783 573.111 46.935C573.898 46.2184 574.571 45.1149 574.915 43.9828L575.802 44.2121C575.688 44.5847 575.559 44.9143 575.402 45.2582H579.854ZM573.741 51.0338H577.692V49.4717H573.741V51.0338ZM577.492 48.2535C577.163 47.8235 576.533 47.15 576.003 46.677L576.619 46.1181C577.134 46.5624 577.793 47.2216 578.122 47.6372L577.492 48.2535Z" fill="white"/>
<path d="M581.444 51.7647C581.444 50.4176 581.572 49.3284 581.816 48.5115C582.073 47.6946 582.446 47.0497 582.933 46.6055C583.434 46.1612 584.049 45.9319 584.808 45.9319C585.366 45.9319 585.853 46.0609 586.269 46.3045C586.684 46.5481 587.027 46.9064 587.299 47.365C587.571 47.8236 587.786 48.3969 587.944 49.0561C588.101 49.7153 588.173 50.6182 588.173 51.7504C588.173 53.0832 588.044 54.1724 587.8 54.9893C587.557 55.8061 587.185 56.4511 586.684 56.8953C586.183 57.3396 585.567 57.5689 584.808 57.5689C583.806 57.5689 583.033 57.1676 582.46 56.3794C581.773 55.4335 581.444 53.8858 581.444 51.7361V51.7647ZM582.746 51.7647C582.746 53.6421 582.947 54.8889 583.348 55.5052C583.749 56.1214 584.235 56.4367 584.822 56.4367C585.409 56.4367 585.896 56.1214 586.297 55.5052C586.698 54.8889 586.884 53.6421 586.884 51.7647C586.884 49.8873 586.684 48.6405 586.297 48.0243C585.896 47.408 585.409 47.0927 584.808 47.0927C584.207 47.0927 583.763 47.365 583.419 47.9096C582.99 48.6118 582.761 49.8873 582.761 51.7647H582.746Z" fill="white"/>
<path d="M589.748 51.7647C589.748 50.4176 589.876 49.3284 590.12 48.5115C590.378 47.6946 590.75 47.0497 591.237 46.6055C591.738 46.1612 592.353 45.9319 593.112 45.9319C593.671 45.9319 594.157 46.0609 594.573 46.3045C594.988 46.5481 595.331 46.9064 595.603 47.365C595.875 47.8236 596.09 48.3969 596.248 49.0561C596.405 49.7153 596.477 50.6182 596.477 51.7504C596.477 53.0832 596.348 54.1724 596.105 54.9893C595.861 55.8061 595.489 56.4511 594.988 56.8953C594.487 57.3396 593.871 57.5689 593.112 57.5689C592.11 57.5689 591.337 57.1676 590.764 56.3794C590.077 55.4335 589.748 53.8858 589.748 51.7361V51.7647ZM591.051 51.7647C591.051 53.6421 591.251 54.8889 591.652 55.5052C592.053 56.1214 592.539 56.4367 593.127 56.4367C593.714 56.4367 594.2 56.1214 594.601 55.5052C595.002 54.8889 595.203 53.6421 595.203 51.7647C595.203 49.8873 595.002 48.6405 594.601 48.0243C594.2 47.408 593.714 47.0927 593.112 47.0927C592.511 47.0927 592.067 47.365 591.723 47.9096C591.294 48.6118 591.065 49.8873 591.065 51.7647H591.051Z" fill="white"/>
<path d="M602.118 57.3969V54.6596H597.637V53.3698L602.347 45.9749H603.378V53.3698H604.767V54.6596H603.378V57.3969H602.104H602.118ZM602.118 53.3841V48.2392L598.882 53.3841H602.118Z" fill="white"/>
<path d="M613.028 56.0498V57.3969H606.213C606.213 57.053 606.256 56.7377 606.356 56.4224C606.528 55.9065 606.814 55.4049 607.186 54.9033C607.573 54.4017 608.117 53.8284 608.847 53.1692C609.964 52.1517 610.723 51.3491 611.124 50.7472C611.524 50.1596 611.711 49.5864 611.711 49.0704C611.711 48.5115 611.524 48.0529 611.166 47.666C610.809 47.279 610.336 47.0927 609.763 47.0927C609.148 47.0927 608.661 47.2934 608.303 47.6946C607.931 48.0959 607.745 48.6548 607.745 49.3714L606.442 49.2281C606.528 48.1532 606.871 47.3364 607.444 46.7774C608.031 46.2185 608.804 45.9319 609.792 45.9319C610.78 45.9319 611.567 46.2328 612.14 46.8491C612.713 47.451 612.999 48.2106 612.999 49.0991C612.999 49.5577 612.913 50.002 612.741 50.4462C612.57 50.8905 612.298 51.3491 611.897 51.8364C611.51 52.3236 610.851 52.9972 609.949 53.8428C609.191 54.545 608.704 55.0323 608.489 55.2759C608.274 55.5339 608.088 55.7775 607.959 56.0354H613.028V56.0498Z" fill="white"/>
<path d="M614.674 51.7647C614.674 50.4176 614.803 49.3284 615.046 48.5115C615.304 47.6946 615.676 47.0497 616.163 46.6055C616.664 46.1612 617.28 45.9319 618.039 45.9319C618.597 45.9319 619.084 46.0609 619.499 46.3045C619.914 46.5481 620.258 46.9064 620.53 47.365C620.802 47.8236 621.017 48.3969 621.174 49.0561C621.332 49.7153 621.403 50.6182 621.403 51.7504C621.403 53.0832 621.275 54.1724 621.031 54.9893C620.788 55.8061 620.415 56.4511 619.914 56.8953C619.413 57.3396 618.798 57.5689 618.039 57.5689C617.037 57.5689 616.263 57.1676 615.691 56.3794C615.003 55.4335 614.674 53.8858 614.674 51.7361V51.7647ZM615.977 51.7647C615.977 53.6421 616.178 54.8889 616.578 55.5052C616.979 56.1214 617.466 56.4367 618.053 56.4367C618.64 56.4367 619.127 56.1214 619.528 55.5052C619.929 54.8889 620.129 53.6421 620.129 51.7647C620.129 49.8873 619.929 48.6405 619.528 48.0243C619.127 47.408 618.64 47.0927 618.039 47.0927C617.437 47.0927 616.994 47.365 616.65 47.9096C616.22 48.6118 615.991 49.8873 615.991 51.7647H615.977Z" fill="white"/>
<path d="M627.603 52.8824C627.603 52.8824 627.603 53.1834 627.574 53.3124C627.359 56.4223 627.159 57.6118 626.787 58.0274C626.572 58.2997 626.357 58.4 625.985 58.4286C625.684 58.443 625.14 58.443 624.568 58.4C624.568 58.1277 624.482 57.7551 624.338 57.5114C624.911 57.5688 625.441 57.5688 625.656 57.5688C625.856 57.5831 625.985 57.5544 626.099 57.4111C626.357 57.1531 626.529 56.1786 626.715 53.7423H623.78C623.966 53.0544 624.167 52.0512 624.324 51.1627H623.036V50.2168H628.19V51.1627H625.155C625.04 51.7359 624.925 52.3522 624.825 52.8824H627.603ZM627.832 48.8983H623.723V44.7852H627.832V48.8983ZM627.059 45.6021H624.482V48.0958H627.059V45.6021ZM629.693 51.2773C629.693 53.4413 629.493 56.5226 628.218 58.6436C628.061 58.4573 627.717 58.1563 627.503 58.056C628.705 56.064 628.834 53.3267 628.834 51.263V47.2359H631.669V44.083H632.571V45.2295H635.492V46.1181H632.571V47.2359H635.477L635.635 47.2072L636.222 47.3792C636.036 48.3107 635.792 49.3856 635.606 50.0735L634.876 49.8728C635.005 49.4142 635.119 48.7693 635.22 48.1388H629.679V51.2916L629.693 51.2773ZM631.741 53.2694C631.64 55.7917 631.268 57.5401 629.722 58.5719C629.607 58.3426 629.35 58.0274 629.163 57.8697C630.538 57.0098 630.824 55.4764 630.91 53.2694H631.741ZM634.375 51.5639C634.618 51.5639 635.034 51.5496 635.22 51.5066C635.248 51.7646 635.277 52.0655 635.306 52.3092C635.119 52.3665 634.761 52.3952 634.418 52.3952H632.628C631.783 52.3952 631.569 51.9939 631.569 51.0194V50.4174L630.065 50.5894L629.98 49.8299L631.569 49.6435V48.2677H632.399V49.5432L634.361 49.3426L634.432 50.1021L632.399 50.3314V51.048C632.399 51.4636 632.442 51.5926 632.728 51.5926H634.361L634.375 51.5639ZM634.847 57.2821C635.005 57.2821 635.162 57.2678 635.248 57.2248C635.334 57.1675 635.42 57.0385 635.434 56.8665C635.477 56.6086 635.506 55.9923 635.506 55.2614C635.664 55.4334 635.978 55.634 636.222 55.6914C636.222 56.4366 636.15 57.2391 636.079 57.5114C635.993 57.7981 635.864 57.97 635.664 58.099C635.477 58.1993 635.162 58.2423 634.919 58.2423H634.146C633.845 58.2423 633.516 58.1993 633.33 57.9987C633.101 57.8124 633.043 57.5831 633.043 56.8952V53.255H633.874V56.9382C633.874 57.0528 633.874 57.1675 633.988 57.2105C634.06 57.2535 634.175 57.2678 634.303 57.2678H634.847V57.2821Z" fill="white"/>
<path d="M533.325 242.385C544.136 237.902 549.271 225.495 544.792 214.672C540.314 203.85 527.919 198.71 517.107 203.193C506.295 207.676 501.16 220.083 505.639 230.906C510.117 241.728 522.513 246.868 533.325 242.385Z" fill="white"/>
<path d="M598.338 211.325C598.338 211.081 598.152 210.866 597.894 210.866H593.671C593.9 210.479 594.129 210.035 594.415 209.576L594.601 209.247H597.465V207.584C597.465 207.326 597.264 207.126 597.007 207.126H589.934C589.748 206.595 589.519 206.022 589.261 205.549L586.584 206.036C586.727 206.366 586.856 206.753 586.97 207.126H579.138V209.247H582.374C582.417 209.333 582.489 209.462 582.546 209.59C582.703 209.963 582.89 210.422 583.004 210.866H578.365V212.987H598.324V211.31L598.338 211.325ZM590.85 210.866H585.782C585.639 210.379 585.395 209.762 585.137 209.247H591.494C591.337 209.734 591.079 210.336 590.85 210.866Z" fill="white"/>
<path d="M591.423 224.968H586.598C585.553 224.968 585.195 224.897 585.195 224.295V222.346C585.195 222.102 584.994 221.887 584.737 221.887H582.517V224.309C582.517 226.487 583.419 227.147 586.326 227.147H592.439C594.587 227.147 595.031 225.699 595.045 223.291H592.54C592.425 224.911 592.282 224.954 591.437 224.954" fill="white"/>
<path d="M596.377 220.869V214.291C596.377 214.048 596.176 213.847 595.933 213.833H580.27V220.884H587.027L586.269 221.801C587.586 222.618 588.932 223.922 589.776 224.639L591.695 222.947C591.108 222.489 589.705 221.457 588.602 220.869H596.377ZM582.847 215.538H593.656V216.527H582.847V215.538ZM582.847 218.103H593.656V219.135H582.847V218.103Z" fill="white"/>
<path d="M577.578 226.072H580.599C581.143 224.839 581.73 222.818 582.059 221.887H579.582C579.01 223.191 578.065 225.298 577.578 226.072Z" fill="white"/>
<path d="M596.377 221.385L594.658 222.46C595.546 223.492 597.236 225.427 597.765 226.201L599.698 224.495C599.197 223.85 596.949 221.887 596.377 221.385Z" fill="white"/>
<path d="M568.701 209.935C568.701 209.677 568.501 209.476 568.243 209.476H566.124V222.36H568.701V209.935Z" fill="white"/>
<path d="M572.567 206.366C572.567 206.108 572.366 205.907 572.109 205.907H569.932V224.08C569.932 224.466 569.775 224.581 569.403 224.581C569.03 224.581 567.828 224.581 566.654 224.552L567.455 227.304C569.302 227.304 570.62 227.204 571.421 226.745C572.28 226.301 572.552 225.57 572.552 224.094V206.352L572.567 206.366Z" fill="white"/>
<path d="M564.248 221.256H556.145C556.188 221.027 556.216 220.583 556.259 220.353H564.263V213.56C564.263 213.302 564.062 213.102 563.805 213.102H553.997V215.753C553.997 218.462 553.811 222.761 551.993 225.699H554.913C555.314 224.767 555.644 223.592 555.873 222.546V227.032H564.707V221.715C564.707 221.471 564.506 221.256 564.248 221.256ZM556.531 215.753V214.908H561.771V215.896H556.531V215.753ZM556.488 217.43H561.771V218.462H556.445C556.474 218.132 556.488 217.731 556.488 217.43ZM562.301 224.997H558.149V223.048H562.301V224.997Z" fill="white"/>
<path d="M561.041 206.309L559.352 205.406C559.037 205.248 558.879 205.22 558.536 205.635C556.861 207.699 554.885 209.806 551.993 212.543H555.5C555.944 212.142 556.474 211.654 556.818 211.224V212.314H562.43V211.124C563.289 211.798 564.048 212.385 564.277 212.586L565.608 210.293C564.549 209.49 562.358 207.971 560.64 206.925C560.784 206.724 560.912 206.538 561.056 206.323M561.771 210.623H557.376C557.92 210.064 558.65 209.218 559.166 208.659C559.509 208.888 560.655 209.748 561.771 210.623Z" fill="white"/>
<path d="M675.065 212.242H671.414V206.309C671.414 206.065 671.228 205.864 670.984 205.85H668.78V212.242H664.713V219.364C664.713 221.557 664.341 225.312 663.31 227.175H666.016C666.317 226.244 666.818 224.137 666.933 223.134C667.391 222.976 671.214 222.03 673.046 221.557V224.366C673.046 224.667 672.932 224.782 672.588 224.782C672.244 224.81 671.128 224.81 670.068 224.739L670.827 227.275C672.516 227.275 673.605 227.247 674.421 226.831C675.28 226.416 675.509 225.67 675.509 224.409V212.686C675.509 212.442 675.308 212.228 675.065 212.228M673.061 219.279C670.827 219.78 668.765 220.296 667.133 220.611C667.133 220.382 667.133 218.763 667.133 217.215C667.133 215.739 667.133 214.535 667.133 214.535H673.061V219.279Z" fill="white"/>
<path d="M663.382 223.621L660.719 224.051V218.089H663.411V215.753H660.719V213.89H662.595V212.199C663.01 212.614 663.339 212.93 663.482 213.059L664.671 211.009C663.783 210.178 662.623 209.046 660.977 207.699C661.048 207.598 661.32 207.169 661.449 206.997L659.946 206.094C659.588 205.907 659.43 205.836 659.072 206.266C657.755 208 655.98 209.992 653.603 212.485H656.023V213.89H658.514V215.753H655.307V218.089H658.514V224.423C657.426 224.595 656.166 224.753 655.307 224.868V227.447C657.555 226.931 660.69 226.344 663.482 225.67L663.396 223.621H663.382ZM657.583 211.726C658.328 210.923 659.373 209.777 659.688 209.447C660.046 209.677 661.177 210.794 662.122 211.726H657.598H657.583Z" fill="white"/>
<path d="M661.148 222.775L662.766 223.277C663.153 222.303 663.597 220.826 664.055 219.522L661.979 219.006C661.778 220.239 661.463 221.672 661.148 222.79" fill="white"/>
<path d="M657.984 223.191C657.812 222.116 657.44 220.411 657.054 219.121L655.207 219.594C655.536 220.884 655.894 222.589 656.023 223.736L657.984 223.191Z" fill="white"/>
<path d="M668.035 210.881C667.734 209.906 667.119 208.1 666.346 206.839L664.155 207.828C665.229 209.677 665.63 211.353 665.787 211.769L668.035 210.866V210.881Z" fill="white"/>
<path d="M676.039 207.799L673.719 206.982C673.29 208.358 672.817 209.763 672.159 210.952L674.435 211.812C675.065 210.594 675.58 209.318 676.024 207.785" fill="white"/>
<path d="M672.86 217.272C671.801 216.642 669.739 215.925 668.15 215.61L667.119 217.244C668.708 217.702 670.67 218.476 671.686 219.121L672.86 217.272Z" fill="white"/>
<path d="M649.566 213.145H637.969V215.753H644.025V224.151C644.025 224.495 643.867 224.595 643.452 224.595C643.037 224.624 641.519 224.624 640.202 224.552L641.033 227.347C643.08 227.347 644.598 227.304 645.571 226.888C646.588 226.473 646.86 225.713 646.86 224.237V215.767H650.024V213.603C650.024 213.36 649.823 213.159 649.58 213.159" fill="white"/>
<path d="M649.623 207.799C649.623 207.541 649.423 207.341 649.165 207.341H638.398V209.949H649.609V207.799H649.623Z" fill="white"/>
<path d="M636.15 210.723C635.721 210.551 635.549 210.479 635.234 210.923C633.315 213.589 630.91 216.312 628.591 218.648H632.141V227.275H634.89V215.796C635.835 214.563 637.31 212.657 637.997 211.468L636.165 210.708L636.15 210.723Z" fill="white"/>
<path d="M632.299 212.399C633.416 211.138 635.148 208.946 636.279 207.34L634.489 206.595L634.361 206.538C634.146 206.452 633.96 206.423 633.673 206.796C633.645 206.825 633.63 206.853 633.616 206.868C632.17 208.774 630.137 210.938 628.763 212.385H632.299V212.399Z" fill="white"/>
<path d="M619.957 218.204C620.974 217.516 622.219 216.599 623.136 215.882L621.432 214.377C621.088 214.091 620.902 214.205 620.702 214.377C619.585 215.424 617.967 216.642 616.535 217.602C616.077 216.613 615.404 215.638 614.502 214.807C615.004 214.478 615.476 213.99 615.891 213.632H620.917V211.841C620.917 211.597 620.716 211.382 620.473 211.382H608.117V213.632H612.169C609.978 214.736 607.258 215.753 604.652 216.298L606.055 218.447C608.231 217.874 610.465 217.086 612.469 216.025C612.67 216.212 612.956 216.599 613.085 216.871C611.081 218.204 607.315 219.58 604.48 220.182L605.84 222.303C608.475 221.5 611.811 220.01 614.116 218.548C614.259 218.849 614.416 219.207 614.517 219.494C611.897 221.529 607.773 223.334 604.122 224.123L605.554 226.416C608.618 225.498 612.312 223.721 614.946 221.93C614.946 223.033 614.603 223.936 614.259 224.338C613.887 224.782 613.515 224.868 612.97 224.868C612.426 224.868 611.696 224.839 610.894 224.753L611.639 227.361C612.312 227.39 612.999 227.404 613.515 227.39C614.717 227.361 615.447 227.147 616.306 226.358C617.423 225.326 617.996 222.675 617.352 219.909C617.624 219.737 617.81 219.58 618.053 219.422C619.198 222.217 620.902 224.567 623.121 226L625.384 224.008C623.05 222.732 621.26 220.798 619.972 218.204" fill="white"/>
<path d="M607.043 210.035H621.804V212.887H624.424V208.258C624.424 208.014 624.224 207.813 623.966 207.799H616.206C615.977 207.126 615.576 206.237 615.218 205.606L612.312 206.438C612.498 206.782 612.698 207.355 612.87 207.799H604.523V212.887H607.057V210.035H607.043Z" fill="white"/>
<path d="M519.406 213.847C525.448 208.114 532.922 204.245 537.117 205.234C533.724 202.926 529.629 201.579 525.219 201.579C513.508 201.579 504.029 211.081 504.029 222.79C504.029 227.791 505.762 232.392 508.668 236.017C506.964 230.414 512.677 220.239 519.406 213.833" fill="#802320"/>
<path d="M539.894 207.484C541.026 210.049 539.665 214.22 534.984 219.25C529.371 225.283 525.219 227.992 522.513 226.33C519.807 224.667 526.465 215.925 528.541 214.678C530.617 213.431 529.786 217.172 529.786 217.172C529.786 217.172 538.921 211.554 536.229 208.444C534.482 206.438 525.634 212.815 520.852 219.049C516.07 225.283 513.45 231.646 516.285 234.642C519.821 238.382 527.911 233.395 534.769 228.193C537.26 226.33 537.26 227.576 536.43 228.823C536.43 228.823 523.902 244.674 512.734 239.93C516.242 242.481 520.552 244 525.219 244C536.931 244 546.409 234.513 546.409 222.79C546.409 216.771 543.903 211.353 539.894 207.484Z" fill="#802320"/>
<path d="M587.629 232.951H581.816V233.968H584.264V239.83H585.911V233.968H588.216V233.581C588.216 233.194 588.13 232.951 587.614 232.951" fill="white"/>
<path d="M595.961 234.498C595.804 234.24 595.603 233.997 595.374 233.796C595.145 233.581 594.888 233.409 594.616 233.266C594.329 233.123 594.028 233.008 593.714 232.922C593.384 232.836 593.041 232.807 592.683 232.807C592.325 232.807 591.981 232.85 591.652 232.922C591.323 232.994 591.022 233.108 590.75 233.252C590.463 233.395 590.22 233.581 589.991 233.782C589.762 233.997 589.562 234.226 589.404 234.484C589.247 234.742 589.118 235.029 589.032 235.344C588.946 235.659 588.903 235.989 588.903 236.333C588.903 236.677 588.946 237.021 589.032 237.336C589.118 237.651 589.247 237.952 589.404 238.21C589.562 238.483 589.762 238.726 589.991 238.941C590.22 239.156 590.478 239.342 590.75 239.486C591.036 239.643 591.337 239.758 591.652 239.83C591.981 239.916 592.325 239.959 592.683 239.959C593.041 239.959 593.384 239.916 593.714 239.844C594.043 239.758 594.343 239.643 594.616 239.5C594.902 239.357 595.145 239.17 595.374 238.955C595.603 238.741 595.804 238.497 595.961 238.225C596.119 237.952 596.248 237.666 596.334 237.336C596.42 237.021 596.462 236.677 596.462 236.304C596.462 235.96 596.42 235.631 596.334 235.33C596.248 235.014 596.119 234.742 595.961 234.47M594.63 237.508C594.544 237.866 594.415 238.182 594.243 238.44C594.071 238.698 593.857 238.913 593.599 239.056C593.341 239.199 593.055 239.285 592.711 239.285C592.368 239.285 592.081 239.213 591.824 239.056C591.566 238.913 591.351 238.698 591.179 238.44C591.008 238.182 590.879 237.866 590.793 237.508C590.707 237.15 590.664 236.748 590.664 236.333C590.664 235.917 590.707 235.53 590.793 235.172C590.879 234.828 591.008 234.527 591.179 234.269C591.351 234.011 591.566 233.825 591.824 233.682C592.081 233.538 592.382 233.467 592.711 233.467C593.041 233.467 593.341 233.538 593.599 233.682C593.857 233.825 594.071 234.011 594.243 234.269C594.415 234.527 594.544 234.828 594.63 235.172C594.716 235.516 594.759 235.903 594.759 236.333C594.759 236.763 594.716 237.15 594.63 237.508Z" fill="white"/>
<path d="M602.089 236.247C602.29 236.132 602.447 236.003 602.59 235.86C602.733 235.717 602.834 235.559 602.905 235.373C602.977 235.201 603.02 235.014 603.02 234.814C603.02 234.541 602.963 234.298 602.848 234.069C602.733 233.839 602.576 233.639 602.347 233.481C602.118 233.309 601.846 233.18 601.517 233.094C601.187 233.008 600.786 232.951 600.357 232.951H598.753C598.295 232.951 597.909 233.323 597.909 233.796V239.83H599.455V236.72H599.755L602.061 239.83H603.893L601.445 236.534C601.674 236.462 601.889 236.362 602.089 236.247ZM601.159 235.387C601.087 235.545 600.987 235.674 600.858 235.788C600.729 235.889 600.572 235.975 600.4 236.032C600.228 236.089 600.028 236.118 599.827 236.118H599.455V233.61H600.142C600.3 233.61 600.457 233.639 600.586 233.696C600.729 233.753 600.844 233.839 600.944 233.954C601.044 234.069 601.116 234.198 601.173 234.341C601.23 234.498 601.259 234.656 601.259 234.842C601.259 235.043 601.216 235.215 601.144 235.373" fill="white"/>
<path d="M568.544 233.796V239.83H573.54V238.697H570.09V236.82H572.953V235.803H570.09V233.954H573.755V232.936H569.388C568.93 232.936 568.544 233.309 568.544 233.782" fill="white"/>
<path d="M565.465 236.247C565.666 236.132 565.823 236.003 565.966 235.86C566.11 235.717 566.21 235.559 566.281 235.373C566.353 235.201 566.396 235.014 566.396 234.814C566.396 234.541 566.339 234.298 566.224 234.069C566.11 233.839 565.952 233.639 565.723 233.481C565.508 233.309 565.222 233.18 564.893 233.094C564.563 233.008 564.162 232.951 563.733 232.951H562.129C561.671 232.951 561.285 233.323 561.285 233.796V239.83H562.831V236.863H563.232L565.437 239.83H567.269L564.821 236.534C565.05 236.462 565.265 236.362 565.465 236.247ZM564.535 235.387C564.463 235.545 564.363 235.674 564.234 235.788C564.105 235.889 563.948 235.975 563.776 236.032C563.604 236.089 563.404 236.118 563.203 236.118H562.831V233.61H563.518C563.676 233.61 563.833 233.639 563.962 233.696C564.105 233.753 564.22 233.839 564.32 233.954C564.42 234.069 564.492 234.198 564.549 234.341C564.606 234.498 564.635 234.656 564.635 234.842C564.635 235.043 564.592 235.215 564.52 235.373" fill="white"/>
<path d="M654.663 232.951H648.85V233.968H651.298V239.83H652.945V233.968H655.25V233.438C655.25 233.137 655.106 232.965 654.663 232.965" fill="white"/>
<path d="M657.898 232.951H656.81V239.83H658.5V233.495C658.5 233.166 658.385 232.951 657.913 232.951" fill="white"/>
<path d="M643.853 236.82H646.717V235.803H643.853V233.954H647.432V232.936H643.151C642.693 232.936 642.307 233.309 642.307 233.782V239.815H647.576V238.683H643.853V236.806V236.82Z" fill="white"/>
<path d="M631.54 236.247C631.741 236.132 631.898 236.003 632.041 235.86C632.184 235.717 632.285 235.559 632.356 235.373C632.428 235.201 632.471 235.014 632.471 234.814C632.471 234.541 632.413 234.298 632.299 234.069C632.184 233.839 632.027 233.639 631.798 233.481C631.569 233.309 631.297 233.18 630.967 233.094C630.638 233.008 630.237 232.951 629.808 232.951H628.204C627.746 232.951 627.359 233.323 627.359 233.796V239.83H628.906V236.863H629.307L631.511 239.83H633.344L630.896 236.534C631.125 236.462 631.34 236.362 631.54 236.247ZM630.609 235.387C630.538 235.545 630.438 235.674 630.309 235.788C630.18 235.889 630.022 235.975 629.851 236.032C629.679 236.089 629.478 236.118 629.278 236.118H628.906V233.61H629.593C629.75 233.61 629.908 233.639 630.037 233.696C630.18 233.753 630.294 233.839 630.395 233.954C630.495 234.069 630.566 234.198 630.624 234.341C630.681 234.498 630.71 234.656 630.71 234.842C630.71 235.043 630.667 235.215 630.595 235.373" fill="white"/>
<path d="M622.735 232.764H622.248C622.119 232.764 622.048 232.865 622.005 232.979C621.246 234.713 618.783 239.83 618.783 239.83H620.229L621.103 237.952H623.637L624.496 239.83H626.085C626.085 239.83 623.78 234.685 622.993 232.979C622.935 232.865 622.907 232.764 622.749 232.764M621.518 237.092L622.434 235.143L623.265 237.092H621.518Z" fill="white"/>
<path d="M578.609 232.764H578.122C577.993 232.764 577.921 232.865 577.879 232.979C577.12 234.713 574.657 239.83 574.657 239.83H576.103L576.977 237.952H579.511L580.37 239.83H581.959C581.959 239.83 579.654 234.685 578.866 232.979C578.809 232.865 578.781 232.764 578.623 232.764M577.392 237.092L578.308 235.143L579.138 237.092H577.392Z" fill="white"/>
<path d="M556.56 233.997C557.505 233.997 558.178 234.613 558.493 234.971C558.607 235.1 558.751 235.186 558.937 235.057L559.538 234.627C559.166 233.911 558.249 232.678 556.202 232.678C554.155 232.678 552.494 234.312 552.494 236.318C552.494 238.325 554.155 239.959 556.202 239.959C557.534 239.959 558.722 239.342 559.38 238.31C559.423 238.239 559.481 238.153 559.524 238.081L558.937 237.623C558.765 237.479 558.593 237.551 558.478 237.68C556.918 239.271 554.956 238.583 554.455 237.064C553.926 235.444 555.257 233.968 556.603 233.968" fill="white"/>
<path d="M675.294 236.49H672.917V237.078H674.034V238.31C672.703 239.285 670.469 238.783 670.469 236.361C670.469 234.384 671.886 233.839 672.645 233.839C673.605 233.839 674.32 234.513 674.65 234.914L674.664 234.943C674.807 235.115 674.95 235.1 675.108 234.957L675.652 234.427C675.509 234.212 675.337 233.997 675.122 233.796C674.907 233.595 674.678 233.409 674.406 233.252C674.134 233.094 673.848 232.965 673.547 232.879C673.232 232.779 672.917 232.736 672.574 232.736C672.187 232.736 671.829 232.779 671.486 232.85C671.142 232.936 670.827 233.051 670.541 233.194C670.254 233.352 669.997 233.538 669.753 233.753C669.524 233.968 669.324 234.226 669.152 234.498C668.994 234.771 668.866 235.072 668.78 235.401C668.694 235.731 668.651 236.075 668.651 236.447C668.651 236.978 668.751 237.451 668.937 237.881C669.138 238.31 669.41 238.683 669.753 238.984C670.097 239.285 670.512 239.529 670.999 239.686C671.342 239.801 671.7 239.887 672.087 239.916C673.104 239.973 674.621 239.873 675.638 238.755V236.877C675.638 236.548 675.48 236.447 675.265 236.447" fill="white"/>
<path d="M615.977 233.323L613.815 237.651L611.61 233.28C611.51 233.094 611.396 232.965 611.081 232.951H609.806V239.83H610.866V235.301L613.185 239.83H613.829L616.077 235.344V239.83H617.681V232.951H616.521C616.178 232.951 616.077 233.108 615.963 233.323" fill="white"/>
<path d="M666.918 232.951H665.93V237.594L662.595 233.166C662.494 233.051 662.38 232.965 662.165 232.951H660.805V239.83H662.437V235.129L666.117 239.944H667.477V233.424C667.477 233.151 667.334 232.951 666.933 232.951" fill="white"/>
<path d="M637.382 235.932L640.474 232.936H638.999L636.293 235.43V233.409C636.293 233.137 636.165 232.936 635.778 232.936H634.69V239.815H636.293V236.949L639.271 239.815H641.305L637.382 235.932Z" fill="white"/>
<path fill-rule="evenodd" clip-rule="evenodd" d="M11.8691 233.223H16.9661V208.014L11.8691 213.202V233.223ZM30.539 202.54V233.223H35.636V197.352L30.539 202.54Z" fill="#B00005"/>
<path d="M42.2649 221.772C44.3266 223.406 45.515 225.327 45.515 227.39C45.515 232.507 38.1702 236.792 28.3914 237.823V225.67C27.4894 226.631 26.2724 227.319 24.8979 227.562V238.038C24.54 238.038 24.1821 238.038 23.8241 238.038C23.4662 238.038 23.094 238.038 22.7217 238.038V227.562C21.3615 227.319 20.1446 226.659 19.2283 225.685V237.809C9.44948 236.777 2.11897 232.492 2.11897 227.376C2.11897 225.312 3.30732 223.392 5.36902 221.758C2.00443 223.908 0 226.659 0 229.64C0 236.519 10.6665 242.108 23.8098 242.108C36.9532 242.108 47.6196 236.534 47.6196 229.64C47.6196 226.645 45.6009 223.908 42.2506 221.758L42.2649 221.772Z" fill="#007130"/>
<path fill-rule="evenodd" clip-rule="evenodd" d="M28.2482 221.357C28.2482 223.822 26.2438 225.814 23.7812 225.814C21.3186 225.814 19.3141 223.822 19.3141 221.357C19.3141 218.892 21.3043 216.9 23.7812 216.9C26.2581 216.9 28.2482 218.906 28.2482 221.357Z" fill="#B00005"/>
<path d="M144.749 208.602H141.069V236.619H144.749V208.602Z" fill="white"/>
<path d="M151.65 224.796H134.326V227.49H151.65V224.796Z" fill="white"/>
<path d="M152.681 229.869H133.596V232.564H152.681V229.869Z" fill="white"/>
<path d="M153.998 214.893H133.452V217.588H153.998V214.893Z" fill="white"/>
<path d="M151.02 210.25H135.185V212.873H148.242C148.471 212.873 148.643 213.059 148.643 213.274V219.58C148.643 219.809 148.471 219.981 148.242 219.981H135.185V222.546H152.251V211.454C152.251 210.78 151.693 210.236 151.005 210.236L151.02 210.25Z" fill="white"/>
<path d="M125.062 209.92V212.7H128.599C128.599 212.7 129.143 212.586 128.928 213.288C128.699 213.99 124.833 222.331 124.833 222.331H129.902C129.902 222.331 129.787 227.204 128.599 230.185C127.41 233.18 123.745 237.623 123.745 237.623H127.997C127.997 237.623 132.307 232.435 133.066 227.634C133.825 222.818 133.667 220.898 133.667 220.898C133.667 220.898 133.553 219.823 132.464 219.823H129.902L133.009 212.657C133.009 212.657 134.154 209.877 131.806 209.877C129.458 209.877 125.048 209.935 125.048 209.935L125.062 209.92Z" fill="white"/>
<path d="M124.561 225.054H127.94C127.94 225.054 128.055 228.694 130.016 231.532C131.978 234.37 135.571 235 138.148 235H153.626V237.924H136.445C136.445 237.924 131.333 238.096 127.883 233.452C124.447 228.795 124.561 225.054 124.561 225.054Z" fill="white"/>
<path d="M119.765 232.65C119.565 234.183 119.235 235.315 118.777 236.089C117.961 237.322 117.045 237.938 115.999 237.938H95.182C93.8934 237.909 92.8912 237.58 92.1753 236.921C91.6027 236.39 91.3306 235.516 91.3306 234.585V219.995C91.3306 219.193 91.6027 218.92 92.1467 218.92H116.987C117.761 218.92 118.262 219.422 118.262 220.139V228.909C118.262 229.683 117.832 230.156 116.987 230.156H95.3968V232.807C95.4111 233.524 95.497 233.997 95.6545 234.255C95.9122 234.57 96.2129 234.756 96.5708 234.799H114.697C115.083 234.785 115.427 234.685 115.699 234.513C116.042 234.269 116.286 234.026 116.443 233.753C116.529 233.553 116.701 233.08 116.73 232.635L119.779 232.664L119.765 232.65ZM95.3968 227.304H103.185V221.629H95.7404C95.497 221.629 95.3825 221.744 95.3825 221.973V227.29L95.3968 227.304ZM106.521 221.629V227.304H114.11C114.367 227.276 114.496 227.161 114.496 226.932V221.987C114.496 221.744 114.367 221.643 114.11 221.643H106.521V221.629Z" fill="white"/>
<path d="M116.1 209.232H93.3207C92.1897 209.232 91.259 210.135 91.259 211.253V217.502H118.161V211.253C118.161 210.135 117.231 209.232 116.1 209.232ZM114.339 214.65C114.339 214.736 114.296 214.793 114.181 214.807H95.454L95.3252 214.65V212.041C95.2965 211.941 95.3395 211.884 95.454 211.912H114.181L114.339 212.041V214.65Z" fill="white"/>
<path d="M169.547 209.247H158.894V211.941H169.547V209.247Z" fill="white"/>
<path d="M169.547 217.874H158.894V220.568H169.547V217.874Z" fill="white"/>
<path d="M169.547 222.288H158.894V224.968H169.547V222.288Z" fill="white"/>
<path d="M170.563 213.431H157.735V216.126H170.563V213.431Z" fill="white"/>
<path d="M158.279 237.881V228.264C158.279 227.376 159.023 226.645 159.925 226.645H168.387C169.289 226.645 170.033 227.361 170.033 228.264V237.881H158.264H158.279ZM165.967 229.97C165.967 229.755 165.795 229.568 165.552 229.568H162.531C162.302 229.568 162.116 229.755 162.116 229.97V234.799C162.116 235.014 162.302 235.201 162.531 235.201H165.552C165.781 235.201 165.967 235.014 165.967 234.799V229.97Z" fill="white"/>
<path d="M172.596 225.785H176.634C176.634 225.785 178.81 231.603 188.13 237.881H182.618C182.618 237.881 176.92 234.971 172.61 225.785H172.596Z" fill="white"/>
<path d="M172.038 221.973V224.567H181.544C181.544 224.567 182.518 224.481 182.089 225.613C181.673 226.745 180.428 229.568 176.247 233.424C173.054 236.39 171.007 237.795 171.007 237.795H176.533C176.533 237.795 179.998 235.43 183.334 231.346C186.67 227.261 186.899 223.535 186.899 223.535C186.899 223.535 186.956 221.973 184.68 221.973C182.404 221.973 172.023 221.987 172.023 221.987L172.038 221.973Z" fill="white"/>
<path d="M185.568 217.516C185.568 217.516 184.966 217.702 184.966 217.029V211.024C184.966 211.024 185.009 208.974 182.647 208.974H174.644C174.644 208.974 172.424 209.161 172.424 211.253V220.267H176.018V212.371C176.018 212.371 176.09 211.654 176.634 211.654H180.141C180.141 211.654 181.072 211.425 181.072 212.557C181.072 213.689 181.072 220.282 181.072 220.282H187.515V217.501H185.568V217.516Z" fill="white"/>
<path d="M74.0209 218.361V216.298H76.4405V215.237H74.0209V213.188H76.4405V212.099H74.0209V210.049H76.4405V208.545H78.8602V210.049H81.0937V212.099H78.8602V213.174H81.0794V215.223H78.8602V216.283H81.108V218.347H78.8602V219.479H81.6807C81.9957 219.451 82.1532 219.293 82.1532 219.006V209.06H85.6466V220.74C85.6466 221.529 85.2457 221.93 84.4296 221.93H58.5867C57.7706 221.916 57.3698 221.514 57.3698 220.74V209.06H60.8632V219.006C60.8918 219.322 61.0493 219.479 61.3214 219.479H64.2707V218.347H62.0802V216.283H64.2707V215.223H62.0659V213.174H64.2707V212.099H62.0945V210.049H64.2707V208.416H66.5329V210.049H68.6232V212.099H66.5329V213.174H68.6232V215.223H66.5329V216.283H68.6089V218.347H66.5329V219.479H69.9118V208.416H72.8182V219.479H76.4262V218.347H74.0066L74.0209 218.361Z" fill="white"/>
<path d="M79.4042 233.323L78.5452 234.857H86.4913V237.723H56.7398V234.857H64.9007L63.8699 233.323H67.3919L68.4801 234.857H75.1377L76.0683 233.323H79.4042Z" fill="white"/>
<path d="M85.9759 223.22H57.2552V225.713H85.9759V223.22Z" fill="white"/>
<path d="M81.8812 226.86H61.35C60.2476 226.86 59.3456 227.691 59.3456 228.709V233.409H83.8713V228.709C83.8713 227.691 82.9836 226.86 81.8812 226.86ZM80.0199 230.758C80.0199 230.83 79.9626 230.887 79.8624 230.901H63.2685L63.1397 230.758V229.497C63.1254 229.397 63.1683 229.354 63.2685 229.382H79.8624L80.0199 229.497V230.758Z" fill="white"/>
<path d="M219.113 225.957H209.034V223.664H219.113V217.989H208.361V215.696H219.299C218.369 214.592 217.538 213.747 216.808 213.173L218.741 211.611C219.786 212.457 220.874 213.589 222.02 215.037L221.132 215.696H232.242V217.989H221.662V223.664H231.684V225.957H221.662V232.334H233.245V234.627H207.473V232.334H219.113V225.957Z" fill="white"/>
<path d="M239.444 235.516L237.454 234.183L237.697 233.954C240.16 231.833 241.835 229.153 242.708 225.885L245.056 226.473L244.183 229.024C245.586 230.772 247.333 231.919 249.423 232.449V224.954H238.17V222.861H263.268V224.954H251.843V227.806H261.579V229.898H251.843V232.793L255.036 232.893H263.97L263.354 235.086H255.909C253.948 235.014 252.201 234.9 250.655 234.728C247.276 234.355 244.756 233.151 243.066 231.116C241.878 232.893 240.661 234.355 239.43 235.502L239.444 235.516ZM260.319 221.271H241.176C240.976 221.256 240.876 221.156 240.876 220.97V212.6C240.89 212.414 240.99 212.328 241.176 212.328H260.319C260.548 212.328 260.662 212.428 260.662 212.6V220.97C260.662 221.17 260.548 221.271 260.319 221.271ZM258.329 215.753V214.392L258.214 214.32H243.267C243.195 214.32 243.167 214.349 243.181 214.392V215.753H258.314H258.329ZM243.195 217.745V219.178L243.281 219.279H258.228L258.343 219.178V217.745H243.209H243.195Z" fill="white"/>
<path d="M268.122 227.533V225.341H279.876V214.621H269.124V212.428H293.106V214.621H282.411V225.341H293.993V227.533H282.411V235.401H279.862V227.533H268.107H268.122ZM271.558 216.183C273.018 217.931 274.421 220.181 275.782 222.947L273.605 224.008C272.116 221.099 270.728 218.877 269.468 217.344L271.572 216.183H271.558ZM292.433 217.115C291.516 219.193 290.085 221.557 288.152 224.18L286.019 223.076C288.009 220.282 289.412 217.974 290.214 216.14L292.418 217.129L292.433 217.115Z" fill="white"/>
<path d="M298.374 223.592V221.4H306.993C307.695 220.224 308.368 218.863 309.012 217.315L311.274 218.39C310.845 219.451 310.358 220.454 309.814 221.4H324.59V223.592H319.521C318.676 226.516 317.116 228.995 314.825 231.002L324.246 233.667L322.8 235.659L312.448 232.678C309.07 234.527 304.645 235.444 299.148 235.43L298.446 233.237C302.14 233.352 304.975 233.166 306.951 232.678L309.556 231.847L301.524 229.497L301.08 228.193C302.913 226.459 304.359 224.925 305.447 223.578H298.36L298.374 223.592ZM310.244 211.769H312.792V214.234H322.642L324.847 215.237C324.647 216.67 324.131 218.39 323.315 220.411L321.053 219.651L321.984 216.771C322.027 216.541 321.912 216.412 321.655 216.412H301.667C301.524 216.412 301.438 216.484 301.438 216.613V219.995H299.004V214.65C299.019 214.363 299.176 214.22 299.477 214.22H310.244V211.755V211.769ZM312.348 230.328C314.553 228.637 316.085 226.387 316.958 223.592H308.397C307.409 225.054 306.163 226.487 304.674 227.877C304.502 228.021 304.531 228.107 304.731 228.15L312.348 230.314V230.328Z" fill="white"/>
<path d="M359.266 214.621H357.648V212.428H370.548V214.621H369.088V235.487H366.654V231.603L357.691 233.037L357.076 230.916L359.266 230.557V214.607V214.621ZM366.654 217.974V214.621H361.7V217.974H366.654ZM366.654 223.721V220.167H361.7V223.721H366.654ZM366.654 229.368V225.914H361.7V230.199L366.654 229.368ZM374.686 214.463C374.457 214.463 374.342 214.564 374.342 214.764V235.459H371.909V212.743C371.923 212.486 372.066 212.371 372.324 212.371H381.673L383.205 213.503L380.27 221.084C380.127 221.428 380.141 221.715 380.356 221.973C381.63 223.42 382.489 224.681 382.962 225.785C383.763 227.963 383.72 229.855 382.818 231.46C382.432 232.162 381.916 232.664 381.301 232.951C380.055 233.51 378.28 233.467 375.989 232.822L376.046 230.428C377.836 231.045 379.139 231.245 379.969 231.016C381.014 230.615 381.43 229.454 381.2 227.562C380.957 226.272 379.855 224.495 377.893 222.245C377.707 221.973 377.664 221.658 377.75 221.285L380.384 214.478H374.672L374.686 214.463Z" fill="white"/>
<path d="M390.679 229.239C390.679 231.546 390.235 233.567 389.361 235.344C388.66 234.914 388.016 234.642 387.457 234.57C388.273 232.879 388.617 231.073 388.459 229.182L390.664 229.253L390.679 229.239ZM399.24 228.121H388.717C388.517 228.107 388.402 228.006 388.402 227.82V217.931C388.416 217.745 388.517 217.659 388.717 217.659H393.342C394.387 216.584 395.146 215.638 395.632 214.807C395.704 214.578 395.661 214.449 395.489 214.449H391.967C391.394 215.338 390.55 216.326 389.447 217.43L387.543 216.04C389.318 214.478 390.535 212.973 391.18 211.525L393.37 211.955L393.141 212.486H397.451L399.069 213.388C398.224 214.922 397.279 216.341 396.219 217.645H399.24C399.47 217.645 399.57 217.731 399.57 217.917V227.806C399.57 228.006 399.455 228.107 399.24 228.107V228.121ZM392.998 219.651H390.707L390.621 219.723V221.987H392.998V219.637V219.651ZM392.998 223.779H390.621V226.029L390.707 226.129H392.998V223.779ZM393.413 229.253C393.714 230.701 393.886 232.521 393.914 234.728H391.924C391.939 233.266 391.781 231.489 391.452 229.382L393.413 229.253ZM396.262 229.182C396.821 231.317 397.164 233.037 397.293 234.355L395.332 234.527C395.203 233.409 394.859 231.733 394.301 229.483L396.262 229.182ZM395.203 222.002H397.365V219.737L397.25 219.666H395.203V222.016V222.002ZM395.203 226.129H397.25C397.322 226.129 397.365 226.1 397.365 226.029V223.779H395.203V226.129ZM398.925 228.852C399.541 230.041 400.057 231.561 400.472 233.409L398.625 233.868C398.181 231.947 397.68 230.457 397.136 229.382L398.925 228.852ZM400.887 221.615V219.522H406.041V215.209L401.173 215.509L400.672 213.317C405.798 213.231 409.807 212.801 412.684 212.013L413.386 214.105C412.026 214.449 410.48 214.707 408.776 214.908L408.389 214.979V219.522H414.045V221.615H409.005C410.007 224.352 411.797 226.989 414.345 229.511L412.054 230.414C410.494 228.58 409.263 226.846 408.389 225.197V235.287H406.07V225.154C404.767 227.462 403.493 229.239 402.261 230.5L400.099 229.368C402.505 227.018 404.266 224.438 405.354 221.629H400.901L400.887 221.615Z" fill="white"/>
<path d="M420.545 231.36L419.142 229.44L419.986 229.167C423.236 228.078 425.484 226.53 426.758 224.553C426.372 224.137 426.171 223.707 426.171 223.292V219.365H420.989C420.845 219.365 420.759 219.436 420.759 219.565V222.446H418.555V217.76C418.569 217.502 418.712 217.387 418.97 217.387H424.009C423.451 216.613 422.921 216.011 422.435 215.596L423.866 214.592L420.559 214.549L420.359 212.457C429.822 212.629 436.995 212.342 441.906 211.597L442.178 213.69C440.432 213.99 437.568 214.234 433.616 214.42L431.24 214.521C431.741 215.094 432.242 215.854 432.729 216.785L431.526 217.387H435.922C436.967 216.441 437.998 215.381 439.028 214.191L440.704 215.596L439.157 217.229L439.014 217.387H442.651L444.669 218.29C444.627 219.465 444.34 220.87 443.782 222.475L441.62 221.973C442.006 220.612 442.15 219.852 442.035 219.68C442.049 219.479 441.964 219.379 441.749 219.379H428.348V222.202C428.348 222.503 428.462 222.776 428.706 223.005C428.963 223.191 429.25 223.306 429.579 223.335H434.676C434.876 223.32 435.105 223.234 435.349 223.105L435.492 222.847L435.75 221.156L437.912 221.686C437.625 223.435 437.411 224.381 437.239 224.51C436.68 225.054 436.151 225.312 435.65 225.312H428.877C428.462 226.029 428.147 226.516 427.932 226.745H439.572L441.104 227.806C441.276 227.878 441.291 227.978 441.133 228.107C439.83 229.655 437.439 231.159 433.96 232.621C436.995 233.338 440.446 233.567 444.283 233.28L443.968 235.473C439.272 235.831 435.005 235.201 431.211 233.61C427.646 234.771 423.594 235.43 419.07 235.573L418.626 233.424C422.363 233.381 425.713 232.979 428.706 232.234C427.403 231.374 426.157 230.371 424.983 229.239C422.907 230.314 421.432 231.016 420.53 231.36H420.545ZM425.327 221.787C424.024 223.721 422.563 225.212 420.96 226.244C420.545 225.484 420.101 224.925 419.614 224.553C421.074 223.607 422.277 222.303 423.251 220.626L425.327 221.787ZM430.567 217.373C430.066 216.498 429.593 215.825 429.164 215.352L430.653 214.492L424.439 214.564C425.055 215.137 425.656 215.868 426.257 216.756L425.255 217.358H430.567V217.373ZM431.154 231.46C433.917 230.371 435.836 229.497 436.924 228.866C436.938 228.752 436.824 228.709 436.566 228.737H427.532C428.219 229.425 428.806 229.941 429.264 230.3C429.837 230.715 430.481 231.102 431.168 231.46H431.154ZM431.941 219.666L434.146 221.557L432.5 222.847C431.984 222.288 431.268 221.701 430.366 221.056L431.941 219.666ZM439.916 220.325C441.448 222.159 442.593 223.75 443.352 225.112L441.419 226.043C440.446 224.338 439.315 222.776 438.041 221.385L439.916 220.325Z" fill="white"/>
<path d="M450.511 224.725L448.163 223.936C450.826 220.096 452.372 216.011 452.802 211.683L455.236 211.927C454.849 214.377 454.334 216.541 453.718 218.376V235.272H451.284V223.549L450.497 224.71L450.511 224.725ZM460.161 216.527C459.101 219.221 457.956 221.285 456.725 222.761L454.434 221.858C456.911 218.677 458.443 215.309 459.03 211.74L461.435 212.113L460.877 214.334H473.362L474.922 215.237C474.679 217.057 474.163 218.849 473.376 220.611L470.971 220.11C471.515 219.336 471.873 218.72 472.059 218.247C472.445 217.358 472.574 216.814 472.417 216.627L472.13 216.527H466.919V232.965C466.904 233.94 466.475 234.685 465.63 235.186C464.657 235.731 462.81 235.674 460.089 235.029L460.147 232.736L462.108 233.237C463.153 233.438 463.855 233.395 464.227 233.108C464.399 232.951 464.485 232.707 464.485 232.377V216.513H460.147L460.161 216.527ZM462.094 221.572C461.378 224.696 460.018 228.293 458.013 232.363L455.808 231.632C457.884 227.319 459.23 223.75 459.875 220.97L462.108 221.572H462.094ZM471.056 221.099C472.961 225.685 474.249 229.325 474.951 231.991L472.603 232.463C471.672 228.924 470.398 225.341 468.766 221.715L471.056 221.084V221.099Z" fill="white"/>
<path d="M344.562 224.151C344.562 225.37 343.574 226.358 342.343 226.358C341.112 226.358 340.138 225.37 340.138 224.151C340.138 222.933 341.126 221.944 342.343 221.944C343.56 221.944 344.562 222.933 344.562 224.151Z" fill="white"/>
<path d="M51.7001 44.6563V49.2853H3.92297V44.6563H16.9375C16.4507 43.2518 15.7062 41.5894 14.9474 40.2996L15.5916 40.142H10.3228V29.5798H46.2595V40.142H41.0909L41.6779 40.2996C40.8189 41.919 39.9598 43.4238 39.1438 44.6563H51.6858H51.7001ZM51.156 27.8027H4.56726V23.489H51.1704V27.8027H51.156ZM48.8939 21.7119H6.71486V1.44746H12.0982V17.3982H16.5652V15.6211H13.3438V12.6545H16.5652V10.9348H13.6015V8.02552H16.5652V6.30577H13.444V3.39652H16.5652V0.702233H20.2734V3.39652H23.6094V6.30577H20.2734V8.02552H23.3946V10.9348H20.2734V12.6545H23.7239V15.6211H20.2734V17.3982H24.898V0H30.496V17.3982H35.0203V15.6211H31.6271V12.6545H35.0203V10.9348H31.8992V8.02552H35.0203V6.30577H31.7417V3.39652H35.0203V0.702233H38.7858V3.39652H41.9643V6.30577H38.7858V8.02552H41.7495V10.9348H38.7858V12.6545H42.0645V15.6211H38.7858V17.3982H43.3101V1.44746H48.9082V21.7119H48.8939ZM16.2932 36.4158H39.9169V33.3489H16.2932V36.4158ZM21.3472 40.1276C22.149 41.6324 22.9078 43.3092 23.2371 44.5417L22.8649 44.6563H32.93C33.6316 43.3665 34.5479 41.6467 35.1922 40.1276H21.3616H21.3472Z" fill="white"/>
<path d="M94.4232 43.1373C99.2625 43.1373 100.079 42.3347 100.723 37.3761C102.341 38.3506 105.247 39.3108 107.123 39.5831C105.891 47.1787 103.672 49.2711 94.7525 49.2711H75.8106C65.0439 49.2711 61.98 47.3364 61.98 39.6834V18.6881H102.985V35.814H68.4944V39.5831C68.4944 42.65 69.468 43.1373 75.7104 43.1373H94.4375H94.4232ZM99.9067 15.6069H65.2587V1.93481H99.9067V15.6212V15.6069ZM68.4801 24.2773V30.1961H79.1322V24.2773H68.4801ZM93.1203 6.66414H71.6013V10.8632H93.1203V6.66414ZM96.5708 24.2773H85.4891V30.1961H96.5708V24.2773Z" fill="white"/>
<path d="M150.476 41.9046C152.681 41.9046 155.315 41.747 156.876 41.317C157.033 43.0941 157.362 45.9461 157.677 47.4508C156.174 47.9381 153.153 47.9954 150.304 47.9954H138.95C130.933 47.9954 128.083 44.8712 128.083 36.3584V24.8934L114.095 26.9858L113.021 20.5223L128.083 18.2007V1.23242H134.97V17.1832L160.369 13.2994L161.443 19.8631L134.97 23.7899V36.774C134.97 40.5432 135.772 41.8903 138.736 41.8903H150.461L150.476 41.9046Z" fill="white"/>
<path d="M179.955 39.6978C178.065 43.6246 174.901 47.8236 171.995 50.4749C170.806 49.3428 168.33 47.5083 166.883 46.6485C169.675 44.5418 172.482 41.1596 173.985 37.9207L179.955 39.6978ZM193.729 37.5481H167.313V31.9446H172.152V11.9524H167.957V6.34887H172.152V0.64502H177.908V6.34887H184.58V0.64502H190.45V6.34887H194.115V11.9524H190.45V31.9302H193.729V37.5338V37.5481ZM177.908 11.9667V15.091H184.58V11.9667H177.908ZM177.908 23.3888H184.58V19.9923H177.908V23.3888ZM177.908 31.9589H184.58V28.2901H177.908V31.9589ZM215.849 43.209C215.849 46.3905 215.262 48.0529 213.372 49.0848C211.482 50.1023 208.748 50.2743 204.767 50.217C204.553 48.5402 203.751 45.7456 202.935 44.1262C205.254 44.2838 207.831 44.2408 208.59 44.2408C209.392 44.2408 209.664 43.9685 209.664 43.1086V32.5035H201.489C200.902 38.8522 199.556 45.588 196.649 50.4319C195.633 49.2998 192.984 47.365 191.595 46.8204C191.753 46.4908 191.968 46.2329 192.139 45.9032L187.672 48.4399C186.599 46.3332 184.007 42.779 181.917 40.314L186.756 37.6771C188.689 39.8268 191.223 42.7934 192.569 45.0004C195.69 38.2647 195.962 29.1643 195.962 22.1706V2.36477H215.878V43.1946L215.849 43.209ZM209.664 26.7853V20.1642H201.918V22.1563C201.918 23.5608 201.918 25.1229 201.861 26.7853H209.664ZM201.918 8.19761V14.5034H209.664V8.18328H201.918V8.19761Z" fill="white"/>
<path d="M32.7582 105.779C36.3089 116.284 42.8233 124.74 52.8884 128.824C51.2706 130.171 49.1802 133.023 48.1494 134.857C38.4135 130.286 32.1712 122.418 27.9762 112.013C25.0697 121.013 19.2569 129.412 7.84591 134.9C6.82938 133.123 4.93948 130.802 3.0639 129.455C15.3912 123.966 20.5025 115.023 22.5928 105.751H4.08044V99.1296H23.6666C24.2107 94.0706 24.1534 89.1693 24.2107 84.741H31.2119C31.1546 89.155 31.0974 94.1136 30.5676 99.1296H51.7144V105.751H32.7725L32.7582 105.779Z" fill="white"/>
<path d="M90.1709 123.88C88.0663 124.152 86.0332 124.424 83.9285 124.639V129.111C83.9285 131.59 83.5563 132.937 81.8812 133.74C80.2203 134.542 78.0011 134.542 75.0947 134.542C74.8799 133.037 74.1211 131.045 73.4768 129.583C75.2522 129.641 77.0848 129.641 77.6718 129.641C78.2589 129.641 78.4307 129.483 78.4307 128.996V125.284L72.131 126.044L71.5869 122.217C67.3347 124.267 62.9249 126.359 59.2167 128.093L57.2839 121.787C58.7872 121.243 60.5626 120.555 62.5527 119.738V103.572H58.2431V97.4814H62.5527V85.4718H68.1508V97.4814H72.2885V103.572H68.1508V117.416L72.1883 115.639L73.5341 120.698C75.0374 120.54 76.6553 120.368 78.4307 120.211V117.359H78.4879L78.4307 117.302C79.347 116.714 80.3206 115.954 81.2226 115.095H72.8755V110.408H86.0046L86.9781 110.136L90.2568 112.673C88.4815 114.665 86.2193 116.814 83.9142 118.548V119.623L90.0564 118.978L90.1709 123.88ZM90.7579 95.4893H72.3601V90.4734H78.8745C78.5022 89.0116 77.9009 87.5641 77.3139 86.2743L82.6972 85.0848C83.5563 86.7043 84.4153 88.7536 84.9021 90.4734H90.7723V95.4893H90.7579ZM105.548 101.093C104.746 108.846 103.443 115.582 101.138 121.185C102.913 125.227 105.276 128.451 108.397 130.615C107.266 131.59 105.548 133.639 104.689 135.087C102.054 132.937 99.9497 130.243 98.2316 126.947C96.2988 130.128 93.7646 132.865 90.7007 135.244C90.0564 134.169 88.2238 132.02 87.0927 130.988C90.9727 128.351 93.7646 124.897 95.7547 120.641C94.7382 117.302 93.9221 113.59 93.2778 109.649C92.8483 110.566 92.3615 111.426 91.8747 112.228C91.3879 111.254 89.9848 109.376 88.911 108.087V108.359H73.9493V97.4814H88.911V105.88C91.6027 100.434 93.106 92.6231 94.0223 84.7695L99.6204 85.7441C99.1336 89.0833 98.5466 92.4798 97.845 95.7043H107.481V101.093H105.548ZM84.0717 101.422H78.5309V104.432H84.0717V101.422ZM96.6138 101.093C97.0433 105.192 97.5873 109.176 98.4464 112.787C99.3054 109.233 99.8924 105.349 100.336 101.093H96.6281H96.6138Z" fill="white"/>
<path d="M160.169 89.241V132.765H153.382V129.641H121.369V133.195H114.911V89.241H160.169ZM153.382 123.45V117.474C152.58 117.631 151.607 117.631 150.748 117.631H146.066C141.055 117.631 139.981 115.052 139.981 109.606V95.4464H134.755C134.483 108.531 133.352 116.456 124.905 121.028C124.361 119.58 122.7 117.359 121.354 116.126V123.45H153.368H153.382ZM121.369 95.4464V115.854C127.768 112.142 128.37 106.267 128.47 95.4464H121.369ZM153.382 95.4464H145.951V109.778C145.951 111.555 146.066 112.314 147.083 112.314H150.576C151.335 112.314 152.509 112.257 153.382 112.099V95.4607V95.4464Z" fill="white"/>
<path d="M182.919 98.026C181.788 100.448 180.499 102.985 178.939 105.407V135.029H173.069V113.217C171.938 114.507 170.864 115.639 169.79 116.614C169.203 115.324 167.428 112.085 166.297 110.738C170.549 107.241 174.744 101.637 177.221 96.0913L182.919 98.026ZM181.731 86.8763C178.881 91.5626 174.414 96.6215 170.277 99.8604C169.518 98.5706 167.914 96.1916 166.941 95.0738C170.391 92.4941 174.157 88.1804 175.975 84.7839L181.731 86.8906V86.8763ZM217.453 107.714H213.415V127.907C213.415 131.031 212.986 132.751 210.995 133.826C209.105 134.843 206.428 134.958 202.763 134.958C202.548 133.338 201.961 131.031 201.26 129.197C194.215 130.056 186.842 130.873 181.344 131.461L180.7 125.585C183.019 125.427 185.811 125.155 188.818 124.883V118.477H182.146V112.988H188.818V107.657H194.845V112.988H201.46V118.477H194.845V124.295C197.322 124.023 199.856 123.751 202.376 123.493L202.534 128.609C204.209 128.609 205.598 128.666 206.199 128.609C206.901 128.609 207.115 128.451 207.115 127.806V107.714H202.763V102.01H217.453V107.714ZM188.875 95.9766H182.79V90.6454H188.875V84.7266H194.96V90.6454H201.045V95.9766H194.96V101.208H201.847V106.754H181.774V101.208H188.875V95.9766ZM216.593 93.225H203.135V87.6215H216.593V93.225Z" fill="white"/>
<path d="M318.218 100.233C316.715 101.308 315.111 102.942 313.422 105.134L308.039 100.921C309.069 99.4736 310.129 98.1838 311.203 97.0373C312.277 95.8908 313.436 94.9306 314.696 94.1567C315.956 93.3828 317.331 92.7952 318.848 92.3796C320.352 91.964 322.084 91.749 324.017 91.749C326.164 91.749 328.126 92.0643 329.901 92.6806C331.677 93.2968 333.18 94.1853 334.426 95.3462C335.657 96.507 336.63 97.8828 337.303 99.4736C337.991 101.064 338.32 102.827 338.32 104.776C338.32 106.51 338.091 108.058 337.633 109.42C337.175 110.781 336.487 112.099 335.557 113.389C334.626 114.665 333.452 115.969 332.035 117.287C330.603 118.606 328.942 120.053 327.052 121.63L318.132 129.068H338.749V135.76H307.423V129.756L322.342 117.072C323.831 115.84 325.091 114.708 326.121 113.705C327.152 112.687 327.983 111.741 328.627 110.824C329.271 109.921 329.729 109.033 330.016 108.158C330.302 107.298 330.445 106.367 330.445 105.378C330.445 103.228 329.772 101.566 328.427 100.391C327.081 99.2156 325.42 98.628 323.444 98.628C321.468 98.628 319.722 99.1726 318.204 100.233H318.218Z" fill="#F0E427"/>
<path d="M355.558 100.233C354.055 101.308 352.451 102.942 350.762 105.134L345.378 100.921C346.409 99.4736 347.469 98.1838 348.542 97.0373C349.616 95.8908 350.776 94.9306 352.036 94.1567C353.296 93.3828 354.67 92.7952 356.188 92.3796C357.706 91.964 359.424 91.749 361.357 91.749C363.504 91.749 365.466 92.0643 367.241 92.6806C369.016 93.2968 370.52 94.1853 371.765 95.3462C372.997 96.507 373.97 97.8828 374.643 99.4736C375.33 101.064 375.66 102.827 375.66 104.776C375.66 106.51 375.431 108.058 374.972 109.42C374.514 110.781 373.827 112.099 372.896 113.389C371.966 114.665 370.792 115.969 369.374 117.287C367.943 118.606 366.282 120.053 364.392 121.63L355.472 129.068H376.089V135.76H344.763V129.756L359.681 117.072C361.17 115.84 362.43 114.708 363.461 113.705C364.492 112.687 365.322 111.741 365.967 110.824C366.611 109.921 367.069 109.033 367.356 108.158C367.642 107.298 367.785 106.367 367.785 105.378C367.785 103.228 367.112 101.566 365.766 100.391C364.42 99.2156 362.76 98.628 360.784 98.628C358.808 98.628 357.061 99.1726 355.544 100.233H355.558Z" fill="#F0E427"/>
<path d="M386.111 92.3509H412.04V99.101H392.669L391.981 109.262C393.012 108.889 394.057 108.588 395.103 108.359C396.162 108.13 397.408 108.015 398.854 108.015C400.958 108.015 402.934 108.302 404.767 108.846C406.614 109.405 408.217 110.251 409.592 111.383C410.966 112.515 412.04 113.948 412.813 115.654C413.586 117.359 413.973 119.38 413.973 121.701C413.973 124.023 413.586 125.958 412.813 127.778C412.04 129.598 410.952 131.146 409.535 132.421C408.117 133.697 406.413 134.7 404.438 135.402C402.447 136.104 400.257 136.448 397.866 136.448C394.516 136.448 391.552 135.846 388.946 134.643C386.34 133.439 384.007 131.848 381.945 129.885L386.655 124.367C388.388 125.972 390.177 127.248 392.01 128.179C393.843 129.111 395.776 129.569 397.794 129.569C400.4 129.569 402.476 128.881 404.051 127.52C405.626 126.144 406.399 124.31 406.399 121.974C406.399 119.638 405.583 117.961 403.951 116.657C402.319 115.353 400.142 114.693 397.422 114.693C395.847 114.693 394.401 114.88 393.084 115.252C391.767 115.625 390.55 116.084 389.433 116.614L384.851 113.576L386.097 92.3223L386.111 92.3509Z" fill="#F0E427"/>
<path d="M451.742 128.982C450.912 130.558 449.766 131.891 448.277 132.98C446.788 134.069 445.042 134.915 443.009 135.488C440.99 136.061 438.799 136.362 436.451 136.362C434.103 136.362 431.913 136.061 429.894 135.46C427.875 134.858 426.114 134.026 424.625 132.952C423.136 131.877 421.976 130.558 421.16 129.01C420.33 127.463 419.915 125.757 419.915 123.894C419.915 121.214 420.602 119.022 421.962 117.316C423.322 115.625 425.241 114.264 427.718 113.232C425.899 112.286 424.396 111.025 423.193 109.477C421.991 107.929 421.404 105.937 421.404 103.501C421.404 101.853 421.79 100.305 422.549 98.8574C423.308 97.41 424.353 96.1632 425.67 95.1026C426.987 94.0421 428.577 93.2252 430.409 92.6233C432.242 92.0214 434.261 91.7205 436.451 91.7205C438.642 91.7205 440.603 92.0214 442.465 92.6233C444.326 93.2252 445.915 94.0421 447.232 95.1026C448.549 96.1632 449.595 97.41 450.353 98.8574C451.112 100.305 451.499 101.853 451.499 103.501C451.499 105.937 450.898 107.929 449.709 109.477C448.506 111.025 447.003 112.272 445.185 113.232C447.533 114.307 449.423 115.668 450.855 117.316C452.272 118.964 452.988 121.1 452.988 123.708C452.988 125.657 452.573 127.405 451.742 128.982ZM444.841 120.67C444.369 119.838 443.724 119.136 442.923 118.563C442.121 117.99 441.162 117.545 440.045 117.23C438.928 116.915 437.74 116.772 436.451 116.772C435.163 116.772 433.974 116.929 432.858 117.23C431.741 117.545 430.782 117.99 429.98 118.563C429.178 119.136 428.534 119.838 428.061 120.67C427.589 121.501 427.345 122.404 427.345 123.393C427.345 125.256 428.147 126.818 429.765 128.065C431.369 129.326 433.602 129.956 436.451 129.956C439.3 129.956 441.534 129.326 443.137 128.065C444.741 126.803 445.557 125.241 445.557 123.393C445.557 122.404 445.314 121.487 444.841 120.67ZM442.092 99.875C440.689 98.6998 438.814 98.1122 436.451 98.1122C434.089 98.1122 432.213 98.6998 430.81 99.875C429.407 101.05 428.706 102.483 428.706 104.189C428.706 106.138 429.436 107.7 430.91 108.904C432.371 110.108 434.218 110.695 436.451 110.695C438.685 110.695 440.532 110.093 441.992 108.904C443.452 107.7 444.197 106.152 444.197 104.26C444.197 102.526 443.495 101.064 442.092 99.8893V99.875Z" fill="#F0E427"/>
<path d="M459.474 115.768V112.458H475.294V115.768H459.474Z" fill="#F0E427"/>
<path d="M518.762 122.762C517.86 125.514 516.571 127.893 514.925 129.928C513.278 131.948 511.288 133.553 508.955 134.729C506.621 135.904 504.029 136.491 501.18 136.491C498.331 136.491 495.754 135.918 493.435 134.757C491.115 133.596 489.139 132.006 487.493 129.985C485.846 127.964 484.572 125.585 483.684 122.862C482.797 120.139 482.353 117.216 482.353 114.12C482.353 111.025 482.811 108.101 483.713 105.349C484.615 102.598 485.904 100.219 487.55 98.1839C489.197 96.1631 491.187 94.558 493.52 93.3829C495.854 92.2077 498.446 91.6201 501.295 91.6201C504.144 91.6201 506.721 92.1934 509.04 93.3542C511.36 94.515 513.336 96.1058 514.982 98.1265C516.629 100.147 517.903 102.526 518.791 105.249C519.678 107.972 520.122 110.896 520.122 113.991C520.122 117.087 519.664 120.01 518.762 122.762ZM511.489 108.044C510.973 106.138 510.229 104.49 509.255 103.085C508.282 101.681 507.122 100.563 505.762 99.746C504.402 98.9147 502.87 98.4991 501.18 98.4991C499.491 98.4991 497.973 98.9004 496.627 99.703C495.281 100.506 494.136 101.609 493.191 102.985C492.246 104.375 491.502 106.009 490.986 107.915C490.471 109.821 490.213 111.842 490.213 113.991C490.213 116.141 490.471 118.219 490.986 120.096C491.502 121.974 492.246 123.636 493.22 125.055C494.193 126.488 495.353 127.592 496.713 128.409C498.073 129.211 499.605 129.612 501.295 129.612C502.984 129.612 504.502 129.211 505.848 128.409C507.194 127.606 508.339 126.502 509.284 125.098C510.229 123.694 510.959 122.045 511.489 120.168C512.004 118.291 512.262 116.27 512.262 114.12C512.262 111.971 512.004 109.95 511.489 108.044Z" fill="#F0E427"/>
<path d="M558.865 122.418C558.02 125.313 556.803 127.807 555.214 129.885C553.625 131.977 551.678 133.596 549.358 134.743C547.039 135.904 544.447 136.477 541.555 136.477C538.663 136.477 535.943 136.004 533.752 135.03C531.562 134.069 529.543 132.823 527.682 131.318L531.834 125.514C533.48 126.918 535.084 127.95 536.63 128.609C538.176 129.268 539.88 129.598 541.741 129.598C543.345 129.598 544.791 129.268 546.051 128.609C547.311 127.95 548.385 127.004 549.272 125.772C550.16 124.553 550.847 123.092 551.348 121.415C551.849 119.738 552.136 117.904 552.222 115.912C551.148 117.23 549.773 118.334 548.098 119.193C546.423 120.068 544.419 120.498 542.056 120.498C539.694 120.498 537.647 120.182 535.771 119.537C533.895 118.893 532.278 117.961 530.946 116.743C529.6 115.525 528.555 114.063 527.825 112.372C527.08 110.681 526.708 108.775 526.708 106.668C526.708 104.561 527.095 102.526 527.882 100.692C528.67 98.8574 529.772 97.2666 531.189 95.9194C532.607 94.5723 534.311 93.5261 536.301 92.7522C538.277 91.9927 540.467 91.6057 542.858 91.6057C545.578 91.6057 547.884 91.9927 549.759 92.7522C551.635 93.5118 553.338 94.6583 554.87 96.1917C556.474 97.7968 557.763 99.9035 558.708 102.483C559.652 105.063 560.125 108.502 560.125 112.802C560.125 116.313 559.695 119.523 558.851 122.404L558.865 122.418ZM551.305 103.042C550.876 102.068 550.26 101.222 549.473 100.505C548.685 99.7889 547.726 99.2156 546.609 98.8C545.493 98.3844 544.247 98.1838 542.887 98.1838C540.152 98.1838 538.033 98.972 536.516 100.534C534.998 102.111 534.253 104.031 534.253 106.295C534.253 108.56 535.055 110.494 536.644 111.942C538.234 113.389 540.41 114.106 543.144 114.106C544.519 114.106 545.75 113.905 546.838 113.49C547.941 113.074 548.871 112.515 549.63 111.784C550.389 111.053 550.976 110.222 551.377 109.276C551.764 108.33 551.964 107.313 551.964 106.238C551.964 105.077 551.749 104.017 551.305 103.042Z" fill="#F0E427"/>
<path d="M597.837 128.982C597.007 130.558 595.861 131.891 594.372 132.98C592.883 134.069 591.136 134.915 589.103 135.488C587.085 136.061 584.894 136.362 582.546 136.362C580.198 136.362 578.007 136.061 575.989 135.46C573.97 134.858 572.209 134.026 570.72 132.952C569.231 131.877 568.071 130.558 567.255 129.01C566.425 127.463 566.009 125.757 566.009 123.894C566.009 121.214 566.697 119.022 568.057 117.316C569.417 115.625 571.335 114.264 573.812 113.232C571.994 112.286 570.491 111.025 569.288 109.477C568.085 107.929 567.498 105.937 567.498 103.501C567.498 101.853 567.885 100.305 568.644 98.8574C569.403 97.41 570.448 96.1632 571.765 95.1026C573.082 94.0421 574.671 93.2252 576.504 92.6233C578.337 92.0214 580.355 91.7205 582.546 91.7205C584.737 91.7205 586.698 92.0214 588.559 92.6233C590.42 93.2252 592.01 94.0421 593.327 95.1026C594.644 96.1632 595.689 97.41 596.448 98.8574C597.207 100.305 597.594 101.853 597.594 103.501C597.594 105.937 596.992 107.929 595.804 109.477C594.601 111.025 593.098 112.272 591.28 113.232C593.628 114.307 595.518 115.668 596.949 117.316C598.367 118.964 599.083 121.1 599.083 123.708C599.083 125.657 598.667 127.405 597.837 128.982ZM590.936 120.67C590.463 119.838 589.819 119.136 589.017 118.563C588.216 117.99 587.256 117.545 586.14 117.23C585.023 116.915 583.835 116.772 582.546 116.772C581.257 116.772 580.069 116.929 578.952 117.23C577.836 117.545 576.876 117.99 576.074 118.563C575.273 119.136 574.628 119.838 574.156 120.67C573.683 121.501 573.44 122.404 573.44 123.393C573.44 125.256 574.242 126.818 575.86 128.065C577.463 129.326 579.697 129.956 582.546 129.956C585.395 129.956 587.629 129.326 589.232 128.065C590.836 126.803 591.652 125.241 591.652 123.393C591.652 122.404 591.408 121.487 590.936 120.67ZM588.187 99.875C586.784 98.6998 584.908 98.1122 582.546 98.1122C580.184 98.1122 578.308 98.6998 576.905 99.875C575.502 101.05 574.8 102.483 574.8 104.189C574.8 106.138 575.53 107.7 577.005 108.904C578.466 110.108 580.312 110.695 582.546 110.695C584.779 110.695 586.626 110.093 588.087 108.904C589.547 107.7 590.292 106.152 590.292 104.26C590.292 102.526 589.59 101.064 588.187 99.8893V99.875Z" fill="#F0E427"/>
<path d="M636.236 128.982C635.406 130.558 634.26 131.891 632.771 132.98C631.282 134.069 629.536 134.915 627.503 135.488C625.484 136.061 623.293 136.362 620.945 136.362C618.597 136.362 616.407 136.061 614.388 135.46C612.369 134.858 610.608 134.026 609.119 132.952C607.63 131.877 606.47 130.558 605.654 129.01C604.824 127.463 604.409 125.757 604.409 123.894C604.409 121.214 605.096 119.022 606.456 117.316C607.816 115.625 609.735 114.264 612.212 113.232C610.393 112.286 608.89 111.025 607.687 109.477C606.485 107.929 605.898 105.937 605.898 103.501C605.898 101.853 606.284 100.305 607.043 98.8574C607.802 97.41 608.847 96.1632 610.164 95.1026C611.481 94.0421 613.071 93.2252 614.903 92.6233C616.736 92.0214 618.755 91.7205 620.945 91.7205C623.136 91.7205 625.097 92.0214 626.958 92.6233C628.82 93.2252 630.409 94.0421 631.726 95.1026C633.043 96.1632 634.089 97.41 634.847 98.8574C635.606 100.305 635.993 101.853 635.993 103.501C635.993 105.937 635.391 107.929 634.203 109.477C633 111.025 631.497 112.272 629.679 113.232C632.027 114.307 633.917 115.668 635.348 117.316C636.766 118.964 637.482 121.1 637.482 123.708C637.482 125.657 637.067 127.405 636.236 128.982ZM629.335 120.67C628.863 119.838 628.218 119.136 627.417 118.563C626.615 117.99 625.656 117.545 624.539 117.23C623.422 116.915 622.234 116.772 620.945 116.772C619.657 116.772 618.468 116.929 617.352 117.23C616.235 117.545 615.275 117.99 614.474 118.563C613.672 119.136 613.028 119.838 612.555 120.67C612.083 121.501 611.839 122.404 611.839 123.393C611.839 125.256 612.641 126.818 614.259 128.065C615.862 129.326 618.096 129.956 620.945 129.956C623.794 129.956 626.028 129.326 627.631 128.065C629.235 126.803 630.051 125.241 630.051 123.393C630.051 122.404 629.808 121.487 629.335 120.67ZM626.586 99.875C625.183 98.6998 623.308 98.1122 620.945 98.1122C618.583 98.1122 616.707 98.6998 615.304 99.875C613.901 101.05 613.199 102.483 613.199 104.189C613.199 106.138 613.93 107.7 615.404 108.904C616.865 110.108 618.712 110.695 620.945 110.695C623.179 110.695 625.026 110.093 626.486 108.904C627.946 107.7 628.691 106.152 628.691 104.26C628.691 102.526 627.989 101.064 626.586 99.8893V99.875Z" fill="#F0E427"/>
<path d="M309.814 17.04V9.93164H340.525V16.0368L327.582 29.3219C329.357 29.5512 331.061 29.9525 332.722 30.5544C334.383 31.1563 335.843 31.9732 337.103 33.005C338.363 34.0512 339.365 35.341 340.124 36.8888C340.883 38.4366 341.255 40.2997 341.255 42.4637C341.255 44.6277 340.854 46.6198 340.067 48.4112C339.265 50.2026 338.162 51.7504 336.745 53.0545C335.328 54.3587 333.609 55.3762 331.605 56.1071C329.586 56.838 327.396 57.1962 325.005 57.1962C320.939 57.1962 317.445 56.4367 314.553 54.9032C311.661 53.3698 309.213 51.4207 307.223 49.0274L312.935 43.7105C314.61 45.7025 316.414 47.2217 318.347 48.2535C320.266 49.2997 322.542 49.8156 325.148 49.8156C327.453 49.8156 329.357 49.1707 330.889 47.8952C332.421 46.6054 333.18 44.8857 333.18 42.7216C333.18 40.3713 332.221 38.5799 330.331 37.3474C328.427 36.1149 325.821 35.4843 322.499 35.4843H318.719L317.388 30.3681L329.93 17.0256H309.828L309.814 17.04Z" fill="#F0E427"/>
<path d="M349.745 40.013V32.1165H369.374V40.013H349.745Z" fill="#F0E427"/>
<path d="M408.919 9.60205V39.2822H415.548V45.9892H408.919V56.4081H401.087V45.9892H377.664L376.132 40.142L401.932 9.60205H408.89H408.919ZM401.087 20.8951L385.825 39.2822H401.087V20.8951Z" fill="#F0E427"/>
<path d="M446.359 42.5067C446.216 43.4382 446.058 44.2837 445.872 45.115H461.836C461.836 45.115 461.793 46.4478 461.693 47.1357C461.206 53.1978 460.505 56.1644 459.273 57.3969C458.185 58.4861 456.911 58.83 455.279 58.9303C453.904 59.131 451.485 59.131 448.822 59.0306C448.779 57.4972 448.134 55.4765 447.29 54.1437C449.552 54.3873 451.728 54.4446 452.716 54.4446C453.46 54.4446 453.947 54.3443 454.391 54.0004C454.935 53.5131 455.322 52.1803 455.665 49.5577H444.426C442.45 53.7567 438.857 56.9526 431.755 59.131C431.211 57.7552 429.779 55.7201 428.648 54.5879C427.718 56.4653 426.63 58.1421 425.241 59.6756C424.396 58.4861 422.134 56.1787 421.046 55.3905C426.315 49.0704 426.816 39.8984 426.816 32.79V16.7963C438.098 16.1514 450.869 14.9189 458.457 13.1418L462.938 17.4842C454.405 19.4046 443.023 20.5368 432.571 21.1387V22.6722H463.568V34.5098H449.91C450.454 35.5417 451.041 36.7741 451.485 37.9207H466.461V42.5067H446.302H446.359ZM432.013 42.5067C431.469 46.6054 430.438 50.8475 428.663 54.545C437.439 52.1803 439.601 48.0815 440.446 42.5067H432.013ZM445.07 37.9207C444.77 37.0321 444.383 36.2009 443.982 35.4127L448.764 34.5241H432.6C432.557 35.6133 432.5 36.7455 432.457 37.935H445.07V37.9207ZM432.6 27.1722V30.0814H457.827V27.1722H432.6Z" fill="white"/>
<path d="M262.38 0.444336H261.35V136.477H262.38V0.444336Z" fill="white"/>
<path d="M678.014 0.444336H676.983V136.477H678.014V0.444336Z" fill="white"/>
</g>
<defs>
<clipPath id="clip0_4_1096">
<rect width="678" height="274" fill="white"/>
</clipPath>
</defs>
</svg>
