<svg width="520" height="319" viewBox="0 0 520 319" fill="none" xmlns="http://www.w3.org/2000/svg">
<path d="M159.218 9.3877H69.4062V13.541H159.218V9.3877Z" fill="#040000"/>
<path d="M54.2705 2.13672V82.0115H72.4329V12.5134C72.4329 12.5134 73.4462 10.4434 70.4192 8.36003C67.3921 6.27669 54.2705 2.13672 54.2705 2.13672Z" fill="#040000"/>
<path d="M54.2705 144.246V87.1948H72.4329V133.87C72.4329 133.87 73.4462 135.94 70.4192 138.023C67.3921 140.106 54.2705 144.246 54.2705 144.246Z" fill="#040000"/>
<path d="M176.379 78.8999H24V83.0532H176.379V78.8999Z" fill="#040000"/>
<path d="M151.15 32.2104H69.4062V36.3638H151.15V32.2104Z" fill="#040000"/>
<path d="M151.15 55.0352H69.4062V59.1885H151.15V55.0352Z" fill="#040000"/>
<path d="M32.0674 131.797L42.1619 150.467C42.1619 150.467 41.1486 156.69 49.2294 152.537C57.2972 148.384 120.878 127.644 120.878 127.644L119.865 125.574L32.0674 131.797Z" fill="#B64F31"/>
<path d="M148.759 83.8545L165.271 96.5415C165.271 96.5415 167.285 98.6115 161.231 100.695C155.177 102.765 115.825 116.253 115.825 116.253L114.812 112.1L148.759 83.8545Z" fill="#040000"/>
<path d="M98.6758 89.2769H102.716C102.716 89.2769 115.838 127.658 176.379 136.993C176.379 136.993 163.257 143.217 162.257 153.593C162.257 153.593 111.797 144.245 98.6758 89.2769Z" fill="#040000"/>
<path d="M282.664 9.99023H247.859V14.1436H282.664V9.99023Z" fill="#040000"/>
<path d="M325.471 9.99023H290.666V14.1436H325.471V9.99023Z" fill="#040000"/>
<path d="M205.688 0V68.2161H221.2V8.8542C221.2 8.8542 222.057 7.07802 219.472 5.31519C216.886 3.53901 205.688 0 205.688 0Z" fill="#040000"/>
<path d="M270.179 0.894531V59.976H285.691V9.74874C285.691 9.74874 286.548 7.97255 283.963 6.20973C281.378 4.43354 270.179 0.894531 270.179 0.894531Z" fill="#040000"/>
<path d="M255.108 158.987V90.6377L270.62 76.9224V150.133C270.62 150.133 271.478 151.909 268.893 153.672C266.32 155.448 255.108 158.987 255.108 158.987Z" fill="#040000"/>
<path d="M312.844 0.894531V59.976H328.356V9.74874C328.356 9.74874 329.213 7.97255 326.628 6.20973C324.056 4.43354 312.844 0.894531 312.844 0.894531Z" fill="#040000"/>
<path d="M233.724 128.337V76.6411H218.212V127.883C218.212 127.883 217.354 129.66 219.939 131.422C222.525 133.199 233.724 128.337 233.724 128.337Z" fill="#040000"/>
<path d="M249.301 66.5332H180.835V70.6865H249.301V66.5332Z" fill="#040000"/>
<path d="M266.191 29.5283H247.859V33.6816H266.191V29.5283Z" fill="#040000"/>
<path d="M266.191 49.9331H247.859V54.0864H266.191V49.9331Z" fill="#040000"/>
<path d="M308.997 29.5283H290.666V33.6816H308.997V29.5283Z" fill="#040000"/>
<path d="M308.997 49.9331H290.666V54.0864H308.997V49.9331Z" fill="#040000"/>
<path d="M328.213 82.5195H269.543V86.6729H328.213V82.5195Z" fill="#040000"/>
<path d="M327.915 101.616H269.543V105.77H327.915V101.616Z" fill="#040000"/>
<path d="M327.915 121.742H269.543V125.896H327.915V121.742Z" fill="#040000"/>
<path d="M334.826 142.588H269.543V146.742H334.826V142.588Z" fill="#040000"/>
<path d="M183.135 17.4801L185.148 16.4385C185.148 16.4385 200.284 27.8434 202.31 39.2618C204.324 50.6667 202.31 51.7084 199.283 55.8617C196.256 60.0151 188.189 57.9317 189.189 50.6801C190.202 43.4151 186.162 24.7451 183.135 17.4801Z" fill="#040000"/>
<path d="M230.567 15.4116L244.689 20.5933C244.689 20.5933 246.702 21.6349 244.689 25.7749C242.675 29.9282 229.553 54.8215 224.5 58.9748L223.486 57.9332L230.567 15.4116Z" fill="#040000"/>
<path d="M194.476 76.6411H209.313C209.313 76.6411 208.377 109.814 203.116 125.439C197.854 141.078 190.54 153.418 183.771 160.763L181.523 158.452C181.523 158.452 196.165 132.971 194.476 76.6411Z" fill="#B64F31"/>
<path d="M209.495 127.564L216.628 142.615C216.628 142.615 217.563 146.475 222.448 142.615C227.333 138.756 250.991 115.986 250.991 115.986L249.587 114.543L209.495 127.564Z" fill="#040000"/>
<path d="M262.397 60.7104L275.908 66.3595C275.908 66.3595 280.13 68.0956 277.597 71.1405C275.063 74.1854 257.044 100.815 239.012 111.085L237.18 109.642C237.193 109.629 254.511 86.6187 262.397 60.7104Z" fill="#040000"/>
<path d="M291.121 62.3003L306.464 65.0514C306.464 65.0514 309.842 65.9194 307.309 69.3917C304.775 72.8639 293.784 84.2956 293.784 84.2956H288.432C288.445 84.3089 290.978 66.9344 291.121 62.3003Z" fill="#040000"/>
<path d="M300.281 85.751H285.067V144.085H300.281V85.751Z" fill="#040000"/>
<path d="M450.191 9.94922H374.125V14.1025H450.191V9.94922Z" fill="#040000"/>
<path d="M364.238 2.84473V88.9028H381.257V12.5536C381.257 12.5536 382.206 10.6038 379.361 8.6674C376.515 6.73096 364.238 2.84473 364.238 2.84473Z" fill="#040000"/>
<path d="M457.362 2.84473V88.9028H474.381V12.5536C474.381 12.5536 475.33 10.6038 472.485 8.6674C469.652 6.73096 457.362 2.84473 457.362 2.84473Z" fill="#B64F31"/>
<path d="M450.191 41.8008H374.125V45.9541H450.191V41.8008Z" fill="#040000"/>
<path d="M450.191 73.6382H374.125V77.7915H450.191V73.6382Z" fill="#040000"/>
<path d="M483.411 105.677H356.872V109.83H483.411V105.677Z" fill="#040000"/>
<path d="M495.999 142.551H343.36V146.704H495.999V142.551Z" fill="#040000"/>
<path d="M428.223 13.4346H410.203V144.098H428.223V13.4346Z" fill="#040000"/>
<path d="M36.5774 186.465C36.5774 187.138 36.5953 187.697 36.6358 188.137C36.6763 188.577 36.7752 188.935 36.9416 189.21C37.1079 189.485 37.3552 189.682 37.6835 189.81C38.0162 189.938 38.4704 190.025 39.0549 190.076V190.364C38.4569 190.332 37.8588 190.309 37.2608 190.291C36.6628 190.273 36.0648 190.268 35.4667 190.268C34.8687 190.268 34.3112 190.277 33.7446 190.291C33.1781 190.305 32.6115 190.332 32.045 190.364V190.076C32.6115 190.025 33.0522 189.938 33.3669 189.81C33.6817 189.682 33.92 189.48 34.0863 189.21C34.2527 188.939 34.3516 188.582 34.3921 188.137C34.4326 187.697 34.4506 187.138 34.4506 186.465V178.427C34.4506 177.754 34.4326 177.195 34.3921 176.755C34.3516 176.315 34.2482 175.958 34.0863 175.683C33.92 175.412 33.6727 175.211 33.3444 175.082C33.0117 174.954 32.5665 174.867 32 174.817V174.528C32.661 174.56 33.304 174.583 33.9245 174.601C34.545 174.619 35.188 174.624 35.8489 174.624C36.3705 174.624 36.8876 174.615 37.4092 174.601C37.9308 174.587 38.4389 174.56 38.9425 174.528V174.817C38.3894 174.862 37.9578 174.954 37.643 175.082C37.3283 175.211 37.09 175.412 36.9326 175.683C36.7752 175.958 36.6763 176.31 36.6358 176.755C36.5953 177.195 36.5774 177.754 36.5774 178.427V182.496L40.1655 179.513C40.4982 179.238 40.813 178.954 41.1098 178.661C41.4065 178.363 41.6718 178.065 41.9011 177.758C42.1305 177.456 42.3103 177.163 42.4452 176.892C42.5801 176.622 42.6475 176.37 42.6475 176.145C42.6475 175.903 42.5981 175.701 42.4947 175.531C42.3912 175.362 42.2608 175.229 42.0945 175.124C41.9281 175.018 41.7438 174.945 41.5414 174.894C41.3346 174.849 41.1322 174.821 40.9254 174.821V174.528C41.5234 174.56 42.108 174.583 42.6835 174.601C43.2591 174.619 43.8436 174.624 44.4416 174.624C45.0711 174.624 45.6961 174.615 46.3211 174.601C46.9416 174.587 47.5666 174.56 48.1961 174.528V174.817C47.787 174.862 47.4048 174.945 47.0495 175.059C46.6943 175.174 46.3346 175.334 45.9614 175.554C45.5927 175.77 45.197 176.045 44.7788 176.375C44.3607 176.704 43.8796 177.108 43.3265 177.589L40.3993 180.141L45.17 187.29C45.6557 187.995 46.2132 188.623 46.8337 189.168C47.4542 189.714 48.1826 190.021 49.019 190.085V190.373C48.34 190.341 47.6656 190.318 46.9866 190.3C46.3076 190.282 45.6332 190.277 44.9542 190.277C44.3382 190.277 43.7312 190.286 43.1242 190.3C42.5171 190.314 41.9101 190.341 41.2941 190.373V190.085C41.8607 190.053 42.3508 189.934 42.7689 189.723C43.1871 189.517 43.3939 189.145 43.3939 188.614C43.3939 188.389 43.3085 188.151 43.1332 187.89C42.9578 187.633 42.715 187.271 42.4002 186.808L38.8346 181.465L36.5684 183.271V186.469L36.5774 186.465Z" fill="#231815"/>
<path d="M61.6084 190.076C62.175 190.025 62.6156 189.938 62.9304 189.81C63.2451 189.682 63.4835 189.48 63.6498 189.21C63.8162 188.939 63.9151 188.582 63.9556 188.137C63.996 187.697 64.014 187.138 64.014 186.465V178.427C64.014 177.754 63.996 177.195 63.9556 176.755C63.9151 176.315 63.8162 175.958 63.6498 175.683C63.4835 175.412 63.2361 175.211 62.9079 175.082C62.5752 174.954 62.13 174.867 61.5635 174.817V174.528C62.2245 174.56 62.8674 174.583 63.4879 174.601C64.1085 174.619 64.7514 174.624 65.4124 174.624C65.934 174.624 66.4511 174.615 66.9727 174.601C67.4943 174.587 68.0024 174.56 68.506 174.528V174.817C67.9529 174.862 67.5212 174.954 67.2065 175.082C66.8917 175.211 66.6534 175.412 66.4961 175.683C66.3387 175.958 66.2398 176.31 66.1993 176.755C66.1588 177.195 66.1408 177.754 66.1408 178.427V186.465C66.1408 187.138 66.1588 187.697 66.1993 188.137C66.2398 188.577 66.3387 188.935 66.505 189.21C66.6714 189.485 66.9187 189.682 67.247 189.81C67.5797 189.938 68.0338 190.025 68.6184 190.076V190.364C68.0203 190.332 67.4223 190.309 66.8243 190.291C66.2263 190.273 65.6282 190.268 65.0302 190.268C64.4322 190.268 63.8746 190.277 63.3081 190.291C62.7415 190.305 62.175 190.332 61.6084 190.364V190.076V190.076Z" fill="#231815"/>
<path d="M81.8699 174.528C82.423 174.56 82.9446 174.583 83.4392 174.601C83.9338 174.619 84.5138 174.624 85.1748 174.624C85.521 174.624 85.8583 174.615 86.191 174.601C86.5237 174.587 86.861 174.56 87.2072 174.528C87.4095 174.817 87.7513 175.252 88.2234 175.838C88.6955 176.425 89.2351 177.094 89.8421 177.85C90.4491 178.606 91.0966 179.408 91.7891 180.256C92.4815 181.108 93.1515 181.937 93.7945 182.749C94.4419 183.56 95.0355 184.311 95.5795 185.012C96.1236 185.709 96.5508 186.286 96.8655 186.735H96.9105C96.9105 186.254 96.9105 185.777 96.924 185.305C96.933 184.833 96.9375 184.352 96.9375 183.876V181.085C96.9375 180.059 96.9015 179.165 96.8296 178.4C96.7576 177.639 96.6182 177.002 96.4024 176.489C96.1911 175.976 95.8898 175.582 95.5031 175.311C95.1164 175.041 94.6083 174.876 93.9788 174.83V174.528C94.5319 174.56 95.0849 174.583 95.6425 174.601C96.2001 174.619 96.7576 174.624 97.3062 174.624C97.8098 174.624 98.3224 174.615 98.8395 174.601C99.361 174.587 99.8691 174.56 100.373 174.528V174.817C99.379 174.945 98.7001 175.238 98.3314 175.696C97.9627 176.155 97.7783 176.856 97.7783 177.804V190.557H96.906C96.0382 189.177 95.1209 187.839 94.1542 186.538C93.1874 185.237 92.2252 184.004 91.272 182.831C90.3187 181.658 89.397 180.572 88.5112 179.568C87.6209 178.565 86.825 177.671 86.1146 176.883C86.0966 177.3 86.0876 177.708 86.0786 178.111C86.0696 178.514 86.0651 178.922 86.0651 179.339V183.55C86.0651 184.98 86.0921 186.107 86.146 186.932C86.2 187.757 86.3349 188.394 86.5462 188.834C86.7576 189.274 87.0723 189.572 87.4905 189.723C87.9086 189.874 88.4842 189.993 89.2261 190.071V190.36C88.4212 190.328 87.6433 190.305 86.8879 190.286C86.1325 190.268 85.3547 190.264 84.5498 190.264C84.0912 190.264 83.646 190.273 83.2054 190.286C82.7647 190.3 82.3151 190.328 81.8609 190.36V190.071C82.396 189.993 82.8636 189.915 83.2638 189.842C83.664 189.769 83.9967 189.649 84.2575 189.48C84.5183 189.31 84.7162 189.072 84.8466 188.756C84.9815 188.444 85.0534 188.004 85.0714 187.445L85.3547 176.397C84.8511 175.98 84.298 175.65 83.7 175.412C83.102 175.169 82.4859 174.972 81.8564 174.812V174.528H81.8699Z" fill="#231815"/>
<path d="M127.751 179.678C127.449 179.069 127.135 178.473 126.793 177.896C126.456 177.318 126.065 176.805 125.624 176.356C125.183 175.907 124.675 175.545 124.1 175.275C123.524 175 122.854 174.867 122.081 174.867C121.181 174.867 120.386 175.091 119.684 175.54C118.983 175.989 118.385 176.576 117.89 177.295C117.395 178.019 117.018 178.826 116.757 179.724C116.496 180.622 116.366 181.52 116.366 182.418C116.366 183.431 116.496 184.389 116.757 185.296C117.018 186.203 117.395 186.992 117.89 187.665C118.385 188.339 118.983 188.875 119.684 189.278C120.386 189.681 121.181 189.878 122.081 189.878C122.836 189.878 123.578 189.801 124.302 189.649C125.026 189.498 125.705 189.187 126.334 188.724V185.621C126.334 184.531 125.525 183.963 123.902 183.912V183.624C124.5 183.642 125.053 183.66 125.556 183.683C126.06 183.706 126.627 183.72 127.256 183.72C127.836 183.72 128.421 183.711 129.005 183.697C129.585 183.683 130.17 183.656 130.754 183.624V183.912C130.422 183.931 130.116 183.967 129.833 184.031C129.549 184.096 129.311 184.201 129.113 184.343C128.915 184.49 128.758 184.687 128.641 184.934C128.524 185.182 128.466 185.498 128.466 185.883V189.251C127.378 189.622 126.303 189.961 125.242 190.273C124.181 190.584 123.151 190.74 122.162 190.74C121.105 190.74 120.075 190.561 119.068 190.199C118.061 189.837 117.157 189.306 116.366 188.6C115.57 187.894 114.931 187.028 114.455 186.002C113.974 184.975 113.735 183.789 113.735 182.441C113.735 181.268 113.974 180.178 114.455 179.156C114.936 178.139 115.574 177.259 116.366 176.521C117.162 175.783 118.061 175.201 119.068 174.775C120.075 174.349 121.105 174.138 122.162 174.138C122.805 174.138 123.389 174.166 123.911 174.221C124.432 174.276 124.904 174.349 125.327 174.436C125.754 174.523 126.137 174.615 126.483 174.711C126.829 174.807 127.157 174.894 127.476 174.977C127.476 175.233 127.494 175.572 127.535 175.999C127.575 176.425 127.625 176.865 127.688 177.323C127.751 177.781 127.814 178.221 127.877 178.647C127.94 179.073 127.994 179.412 128.043 179.669H127.76L127.751 179.678Z" fill="#231815"/>
<path d="M161.542 182.446C161.542 181.145 161.776 179.986 162.239 178.954C162.702 177.928 163.327 177.057 164.118 176.343C164.905 175.628 165.832 175.082 166.893 174.707C167.954 174.331 169.083 174.143 170.283 174.143C171.484 174.143 172.608 174.331 173.673 174.707C174.735 175.082 175.661 175.628 176.448 176.343C177.235 177.057 177.86 177.928 178.327 178.954C178.79 179.981 179.024 181.145 179.024 182.446C179.024 183.748 178.79 184.912 178.327 185.938C177.864 186.964 177.239 187.835 176.448 188.55C175.661 189.265 174.735 189.81 173.673 190.186C172.612 190.562 171.479 190.749 170.283 190.749C169.087 190.749 167.958 190.562 166.893 190.186C165.832 189.81 164.905 189.265 164.118 188.55C163.332 187.835 162.707 186.964 162.239 185.938C161.776 184.912 161.542 183.748 161.542 182.446V182.446ZM164.047 182.446C164.047 183.427 164.19 184.362 164.474 185.26C164.757 186.158 165.166 186.951 165.701 187.629C166.236 188.312 166.888 188.857 167.662 189.265C168.431 189.673 169.307 189.879 170.283 189.879C171.259 189.879 172.131 189.673 172.904 189.265C173.678 188.857 174.33 188.312 174.865 187.629C175.4 186.946 175.809 186.158 176.092 185.26C176.376 184.362 176.52 183.422 176.52 182.446C176.52 181.47 176.376 180.531 176.092 179.633C175.809 178.735 175.4 177.946 174.865 177.264C174.33 176.581 173.678 176.036 172.904 175.628C172.131 175.22 171.259 175.014 170.283 175.014C169.307 175.014 168.435 175.22 167.662 175.628C166.888 176.036 166.236 176.581 165.701 177.264C165.166 177.946 164.757 178.735 164.474 179.633C164.19 180.531 164.047 181.47 164.047 182.446V182.446Z" fill="#231815"/>
<path d="M197.392 186.873C197.392 187.514 197.423 188.018 197.486 188.376C197.549 188.738 197.68 189.022 197.877 189.232C198.075 189.443 198.363 189.604 198.741 189.714C199.118 189.828 199.631 189.947 200.274 190.076V190.364C199.595 190.332 198.93 190.309 198.269 190.291C197.608 190.273 196.938 190.268 196.263 190.268C195.679 190.268 195.103 190.277 194.528 190.291C193.952 190.305 193.377 190.332 192.792 190.364V190.076C193.359 190.025 193.804 189.938 194.127 189.81C194.451 189.682 194.698 189.48 194.869 189.21C195.04 188.939 195.153 188.582 195.198 188.137C195.247 187.697 195.27 187.138 195.27 186.465V178.427C195.27 177.754 195.247 177.195 195.198 176.755C195.153 176.315 195.04 175.958 194.869 175.683C194.694 175.412 194.447 175.211 194.127 175.082C193.804 174.954 193.359 174.867 192.792 174.817V174.528C193.012 174.546 193.305 174.56 193.664 174.578C194.029 174.597 194.402 174.606 194.784 174.615C195.171 174.624 195.539 174.629 195.895 174.629H201.879C202.684 174.629 203.39 174.615 204.006 174.592C204.622 174.569 205.265 174.546 205.944 174.532C205.913 174.872 205.89 175.201 205.872 175.531C205.854 175.861 205.85 176.187 205.85 176.507C205.85 176.924 205.859 177.337 205.872 177.745C205.886 178.152 205.913 178.565 205.944 178.986H205.566C205.315 178.07 204.986 177.36 204.586 176.856C204.186 176.352 203.714 175.98 203.17 175.747C202.626 175.513 202.01 175.376 201.317 175.325C200.625 175.279 199.869 175.252 199.051 175.252C198.781 175.252 198.516 175.261 198.246 175.275C197.976 175.293 197.693 175.298 197.396 175.298V181.268H199.285C200.229 181.268 200.962 181.067 201.479 180.668C202.001 180.265 202.414 179.61 202.729 178.693H203.012C202.967 179.784 202.94 180.874 202.94 181.965C202.94 182.542 202.94 183.074 202.954 183.564C202.963 184.054 202.981 184.581 203.012 185.14H202.729C202.572 184.549 202.405 184.054 202.234 183.66C202.059 183.266 201.852 182.95 201.609 182.712C201.367 182.469 201.07 182.295 200.724 182.18C200.377 182.07 199.95 181.988 199.447 181.937C199.303 181.924 199.154 181.91 198.997 181.901C198.84 181.892 198.673 181.887 198.502 181.887H197.392V186.868V186.873Z" fill="#231815"/>
<path d="M240.463 190.076C241.03 190.025 241.471 189.938 241.785 189.81C242.1 189.682 242.338 189.48 242.505 189.21C242.671 188.939 242.77 188.582 242.811 188.137C242.851 187.697 242.869 187.138 242.869 186.465V175.298C242.033 175.298 241.336 175.33 240.778 175.394C240.221 175.458 239.735 175.623 239.326 175.889C238.917 176.155 238.557 176.558 238.251 177.103C237.945 177.648 237.64 178.395 237.343 179.339L237.037 179.243L237.37 174.528C238.031 174.56 238.683 174.583 239.33 174.601C239.978 174.619 240.63 174.624 241.291 174.624H246.839C247.469 174.624 248.089 174.615 248.705 174.601C249.321 174.587 249.942 174.56 250.571 174.528L250.9 179.243L250.594 179.339C250.297 178.391 249.991 177.648 249.686 177.103C249.38 176.558 249.02 176.155 248.611 175.889C248.202 175.623 247.712 175.458 247.136 175.394C246.561 175.33 245.85 175.298 245 175.298V186.465C245 187.138 245.018 187.697 245.059 188.137C245.099 188.577 245.198 188.935 245.364 189.21C245.531 189.485 245.778 189.682 246.106 189.81C246.439 189.938 246.893 190.025 247.478 190.076V190.364C246.88 190.332 246.282 190.309 245.684 190.291C245.086 190.273 244.488 190.268 243.89 190.268C243.292 190.268 242.734 190.277 242.168 190.291C241.601 190.305 241.034 190.332 240.468 190.364V190.076H240.463Z" fill="#231815"/>
<path d="M277.63 178.427C277.63 177.754 277.612 177.195 277.572 176.755C277.531 176.315 277.428 175.958 277.266 175.683C277.1 175.412 276.852 175.211 276.524 175.082C276.196 174.954 275.746 174.867 275.18 174.817V174.528C275.841 174.56 276.484 174.583 277.104 174.601C277.725 174.619 278.368 174.624 279.029 174.624C279.55 174.624 280.067 174.615 280.589 174.601C281.111 174.587 281.619 174.56 282.122 174.528V174.817C281.569 174.862 281.138 174.954 280.823 175.082C280.508 175.211 280.27 175.412 280.112 175.683C279.955 175.958 279.856 176.31 279.816 176.755C279.775 177.195 279.757 177.754 279.757 178.427V186.465C279.757 187.138 279.775 187.697 279.816 188.137C279.856 188.577 279.955 188.935 280.121 189.21C280.288 189.485 280.535 189.682 280.863 189.81C281.196 189.938 281.65 190.025 282.235 190.076V190.364C281.637 190.332 281.039 190.309 280.441 190.291C279.843 190.273 279.245 190.268 278.647 190.268C278.049 190.268 277.491 190.277 276.924 190.291C276.358 190.305 275.791 190.332 275.225 190.364V190.076C275.791 190.025 276.232 189.938 276.547 189.81C276.861 189.682 277.1 189.48 277.266 189.21C277.432 188.939 277.536 188.582 277.572 188.137C277.612 187.697 277.63 187.138 277.63 186.465V182.134H268.871V186.465C268.871 187.138 268.889 187.697 268.93 188.137C268.97 188.577 269.069 188.935 269.236 189.21C269.402 189.485 269.649 189.682 269.977 189.81C270.31 189.938 270.764 190.025 271.349 190.076V190.364C270.751 190.332 270.153 190.309 269.555 190.291C268.957 190.273 268.359 190.268 267.761 190.268C267.163 190.268 266.605 190.277 266.039 190.291C265.472 190.305 264.905 190.332 264.339 190.364V190.076C264.905 190.025 265.346 189.938 265.661 189.81C265.976 189.682 266.214 189.48 266.38 189.21C266.547 188.939 266.65 188.582 266.686 188.137C266.727 187.697 266.745 187.138 266.745 186.465V178.427C266.745 177.754 266.727 177.195 266.686 176.755C266.646 176.315 266.542 175.958 266.38 175.683C266.214 175.412 265.967 175.211 265.638 175.082C265.31 174.954 264.86 174.867 264.294 174.817V174.528C264.955 174.56 265.598 174.583 266.218 174.601C266.839 174.619 267.482 174.624 268.143 174.624C268.664 174.624 269.182 174.615 269.703 174.601C270.225 174.587 270.733 174.56 271.236 174.528V174.817C270.683 174.862 270.252 174.954 269.937 175.082C269.622 175.211 269.384 175.412 269.227 175.683C269.069 175.958 268.97 176.31 268.93 176.755C268.889 177.195 268.871 177.754 268.871 178.427V181.365H277.63V178.427V178.427Z" fill="#231815"/>
<path d="M300.324 189.329C300.468 189.361 300.639 189.393 300.846 189.425C301.053 189.457 301.273 189.489 301.507 189.521C301.741 189.553 301.988 189.581 302.24 189.604C302.492 189.627 302.725 189.64 302.95 189.64C303.895 189.64 304.74 189.562 305.491 189.397C306.237 189.237 306.925 188.98 307.546 188.628C308.166 188.275 308.755 187.826 309.304 187.28C309.857 186.735 310.414 186.08 310.981 185.305L311.242 185.521L309.092 190.36C308.823 190.328 308.548 190.305 308.265 190.286C307.982 190.268 307.708 190.264 307.438 190.264H298.557C298.099 190.264 297.645 190.273 297.186 190.286C296.727 190.3 296.273 190.328 295.814 190.36V190.071C296.381 190.021 296.822 189.934 297.136 189.805C297.451 189.677 297.69 189.475 297.847 189.205C298.004 188.935 298.103 188.577 298.144 188.133C298.184 187.693 298.202 187.134 298.202 186.46V178.427C298.202 177.754 298.184 177.195 298.144 176.755C298.103 176.315 298.004 175.958 297.847 175.683C297.69 175.412 297.447 175.211 297.114 175.082C296.781 174.954 296.336 174.867 295.77 174.817V174.528C296.305 174.546 296.813 174.56 297.294 174.578C297.775 174.597 298.27 174.606 298.782 174.615C299.295 174.624 299.834 174.629 300.41 174.629H302.357C303.458 174.629 304.56 174.619 305.662 174.606C306.763 174.592 307.883 174.564 309.016 174.532C308.998 174.711 308.989 174.885 308.98 175.064C308.971 175.243 308.967 175.408 308.967 175.568V176.53C308.967 176.883 308.98 177.241 309.016 177.603C309.047 177.965 309.079 178.359 309.11 178.794L308.805 178.89C308.598 178.12 308.328 177.493 307.991 177.002C307.654 176.512 307.258 176.132 306.808 175.861C306.359 175.591 305.869 175.403 305.333 175.307C304.798 175.211 304.232 175.165 303.634 175.165C302.532 175.165 301.431 175.215 300.329 175.307V181.314C300.644 181.314 300.945 181.305 301.237 181.291C301.529 181.278 301.831 181.268 302.145 181.268C303.234 181.268 304.092 181.048 304.731 180.609C305.369 180.169 305.756 179.362 305.9 178.189H306.183C306.183 178.766 306.174 179.344 306.161 179.921C306.143 180.499 306.138 181.067 306.138 181.63C306.138 182.194 306.147 182.785 306.161 183.363C306.179 183.94 306.183 184.517 306.183 185.095H305.9C305.756 184.421 305.585 183.871 305.378 183.445C305.172 183.019 304.92 182.694 304.609 182.469C304.304 182.244 303.922 182.093 303.463 182.011C303.004 181.933 302.465 181.892 301.835 181.892H300.324V189.329V189.329Z" fill="#231815"/>
<path d="M346.066 186.873C346.066 187.514 346.097 188.018 346.16 188.376C346.223 188.738 346.353 189.022 346.551 189.232C346.749 189.443 347.037 189.604 347.415 189.714C347.792 189.828 348.305 189.947 348.948 190.076V190.364C348.269 190.332 347.603 190.309 346.942 190.291C346.281 190.273 345.612 190.268 344.937 190.268C344.353 190.268 343.777 190.277 343.201 190.291C342.626 190.305 342.046 190.332 341.466 190.364V190.076C342.032 190.025 342.478 189.938 342.801 189.81C343.125 189.682 343.372 189.48 343.543 189.21C343.714 188.939 343.826 188.582 343.876 188.137C343.925 187.697 343.948 187.138 343.948 186.465V178.427C343.948 177.754 343.925 177.195 343.876 176.755C343.831 176.315 343.719 175.958 343.543 175.683C343.368 175.412 343.12 175.211 342.801 175.082C342.478 174.954 342.032 174.867 341.466 174.817V174.528C341.686 174.546 341.978 174.56 342.338 174.578C342.698 174.597 343.076 174.606 343.458 174.615C343.844 174.624 344.213 174.629 344.568 174.629H350.553C351.358 174.629 352.064 174.615 352.68 174.592C353.296 174.569 353.939 174.546 354.618 174.532C354.586 174.872 354.564 175.201 354.546 175.531C354.528 175.861 354.523 176.187 354.523 176.507C354.523 176.924 354.532 177.337 354.546 177.745C354.564 178.152 354.586 178.565 354.618 178.986H354.24C353.988 178.07 353.66 177.36 353.26 176.856C352.86 176.352 352.388 175.98 351.844 175.747C351.3 175.513 350.683 175.376 349.991 175.325C349.299 175.279 348.543 175.252 347.725 175.252C347.455 175.252 347.19 175.261 346.92 175.275C346.65 175.293 346.367 175.298 346.07 175.298V181.268H347.959C348.903 181.268 349.636 181.067 350.153 180.668C350.675 180.265 351.088 179.61 351.403 178.693H351.686C351.637 179.784 351.614 180.874 351.614 181.965C351.614 182.542 351.614 183.074 351.628 183.564C351.637 184.054 351.655 184.581 351.686 185.14H351.403C351.246 184.549 351.079 184.054 350.908 183.66C350.733 183.266 350.526 182.95 350.283 182.712C350.041 182.474 349.744 182.295 349.398 182.18C349.051 182.07 348.624 181.988 348.121 181.937C347.981 181.924 347.828 181.91 347.671 181.901C347.514 181.892 347.347 181.887 347.176 181.887H346.066V186.868V186.873Z" fill="#231815"/>
<path d="M368.382 182.446C368.382 181.145 368.616 179.986 369.079 178.954C369.542 177.928 370.167 177.057 370.954 176.343C371.741 175.628 372.667 175.082 373.728 174.707C374.789 174.331 375.922 174.143 377.118 174.143C378.314 174.143 379.443 174.331 380.509 174.707C381.57 175.082 382.496 175.628 383.283 176.343C384.07 177.057 384.695 177.928 385.158 178.954C385.621 179.981 385.855 181.145 385.855 182.446C385.855 183.748 385.621 184.912 385.158 185.938C384.695 186.964 384.07 187.835 383.283 188.55C382.496 189.265 381.57 189.81 380.509 190.186C379.448 190.562 378.314 190.749 377.118 190.749C375.922 190.749 374.794 190.562 373.728 190.186C372.667 189.81 371.741 189.265 370.954 188.55C370.167 187.835 369.542 186.964 369.079 185.938C368.616 184.912 368.382 183.748 368.382 182.446V182.446ZM370.886 182.446C370.886 183.427 371.03 184.362 371.314 185.26C371.597 186.158 372.006 186.951 372.541 187.629C373.076 188.312 373.728 188.857 374.501 189.265C375.275 189.673 376.147 189.879 377.123 189.879C378.099 189.879 378.971 189.673 379.744 189.265C380.513 188.857 381.17 188.312 381.705 187.629C382.24 186.946 382.649 186.158 382.932 185.26C383.216 184.362 383.359 183.422 383.359 182.446C383.359 181.47 383.22 180.531 382.932 179.633C382.649 178.735 382.24 177.946 381.705 177.264C381.17 176.581 380.518 176.036 379.744 175.628C378.971 175.22 378.099 175.014 377.123 175.014C376.147 175.014 375.275 175.22 374.501 175.628C373.728 176.036 373.076 176.581 372.541 177.264C372.006 177.946 371.597 178.735 371.314 179.633C371.03 180.531 370.886 181.47 370.886 182.446V182.446Z" fill="#231815"/>
<path d="M416.179 190.268H411.93C410.936 189.159 410.019 188.027 409.178 186.863C408.337 185.699 407.587 184.467 406.921 183.17C406.764 183.17 406.561 183.156 406.319 183.12C406.076 183.088 405.824 183.051 405.563 183.01C405.302 182.968 405.051 182.923 404.808 182.868C404.565 182.813 404.363 182.758 404.205 182.712V186.465C404.205 187.138 404.223 187.697 404.264 188.137C404.304 188.577 404.408 188.935 404.569 189.21C404.736 189.484 404.983 189.682 405.311 189.81C405.644 189.938 406.098 190.025 406.683 190.076V190.364C406.085 190.332 405.487 190.309 404.889 190.291C404.291 190.273 403.693 190.268 403.095 190.268C402.497 190.268 401.939 190.277 401.372 190.291C400.806 190.305 400.239 190.332 399.673 190.364V190.076C400.239 190.025 400.68 189.938 400.995 189.81C401.31 189.682 401.548 189.48 401.714 189.21C401.881 188.939 401.98 188.582 402.02 188.137C402.06 187.697 402.078 187.138 402.078 186.465V178.427C402.078 177.754 402.06 177.195 402.02 176.755C401.98 176.315 401.881 175.957 401.714 175.683C401.548 175.412 401.31 175.211 400.995 175.082C400.68 174.954 400.239 174.867 399.673 174.816V174.528C400.176 174.56 400.68 174.583 401.184 174.601C401.687 174.619 402.191 174.624 402.694 174.624C402.915 174.624 403.189 174.61 403.522 174.587C403.855 174.564 404.201 174.537 404.574 174.505C404.943 174.473 405.316 174.445 405.698 174.422C406.076 174.399 406.413 174.386 406.714 174.386C407.393 174.386 408.086 174.473 408.792 174.652C409.502 174.83 410.136 175.11 410.703 175.495C411.269 175.88 411.732 176.37 412.096 176.961C412.456 177.557 412.641 178.262 412.641 179.078C412.641 179.642 412.542 180.137 412.344 180.572C412.146 181.007 411.885 181.383 411.552 181.704C411.22 182.024 410.833 182.29 410.383 182.496C409.934 182.707 409.466 182.858 408.98 182.955C409.201 183.34 409.462 183.775 409.758 184.256C410.055 184.737 410.392 185.228 410.761 185.722C411.13 186.222 411.525 186.712 411.944 187.202C412.362 187.693 412.802 188.133 413.266 188.527C413.729 188.921 414.205 189.251 414.695 189.512C415.181 189.778 415.68 189.934 416.184 189.979V190.268H416.179ZM404.205 181.892C404.916 182.167 405.644 182.299 406.399 182.299C407.627 182.299 408.58 182.011 409.259 181.433C409.934 180.856 410.275 179.917 410.275 178.62C410.275 178.088 410.176 177.612 409.979 177.19C409.781 176.764 409.511 176.397 409.165 176.081C408.819 175.77 408.423 175.527 407.973 175.357C407.524 175.188 407.056 175.105 406.57 175.105C406.175 175.105 405.792 175.123 405.415 175.151C405.037 175.183 404.668 175.256 404.304 175.366C404.273 176.136 404.25 176.915 404.232 177.699C404.214 178.487 404.21 179.335 404.21 180.251V181.887L404.205 181.892Z" fill="#231815"/>
<path d="M433.036 189.329C433.18 189.361 433.351 189.393 433.558 189.425C433.765 189.457 433.985 189.489 434.219 189.521C434.457 189.553 434.7 189.581 434.952 189.604C435.204 189.627 435.437 189.64 435.662 189.64C436.606 189.64 437.452 189.562 438.203 189.397C438.949 189.237 439.637 188.98 440.258 188.628C440.878 188.275 441.467 187.826 442.016 187.28C442.569 186.735 443.126 186.08 443.693 185.305L443.954 185.521L441.804 190.36C441.535 190.328 441.26 190.305 440.977 190.286C440.694 190.268 440.419 190.264 440.15 190.264H431.269C430.811 190.264 430.356 190.273 429.898 190.286C429.439 190.3 428.985 190.328 428.526 190.36V190.071C429.093 190.021 429.534 189.934 429.848 189.805C430.163 189.677 430.401 189.475 430.559 189.205C430.716 188.935 430.815 188.577 430.856 188.133C430.896 187.693 430.914 187.134 430.914 186.46V178.427C430.914 177.754 430.896 177.195 430.856 176.755C430.815 176.315 430.716 175.958 430.559 175.683C430.401 175.412 430.159 175.211 429.826 175.082C429.493 174.954 429.048 174.867 428.481 174.817V174.528C429.017 174.546 429.525 174.56 430.006 174.578C430.487 174.597 430.981 174.606 431.494 174.615C432.007 174.624 432.546 174.629 433.122 174.629H435.069C436.17 174.629 437.272 174.619 438.374 174.606C439.475 174.592 440.595 174.564 441.728 174.532C441.71 174.711 441.701 174.885 441.692 175.064C441.683 175.243 441.678 175.408 441.678 175.568V176.53C441.678 176.883 441.692 177.241 441.728 177.603C441.759 177.965 441.791 178.359 441.822 178.794L441.517 178.89C441.31 178.12 441.04 177.493 440.703 177.002C440.366 176.512 439.97 176.132 439.52 175.861C439.071 175.591 438.58 175.403 438.045 175.307C437.51 175.211 436.944 175.165 436.346 175.165C435.244 175.165 434.142 175.215 433.041 175.307V181.314C433.356 181.314 433.657 181.305 433.949 181.291C434.241 181.278 434.543 181.268 434.857 181.268C435.946 181.268 436.804 181.048 437.443 180.609C438.081 180.169 438.468 179.362 438.612 178.189H438.895C438.895 178.766 438.886 179.344 438.873 179.921C438.855 180.499 438.85 181.067 438.85 181.63C438.85 182.194 438.859 182.785 438.873 183.363C438.891 183.94 438.895 184.517 438.895 185.095H438.612C438.468 184.421 438.297 183.871 438.09 183.445C437.883 183.019 437.632 182.694 437.321 182.469C437.016 182.244 436.633 182.093 436.175 182.011C435.716 181.933 435.177 181.892 434.547 181.892H433.036V189.329V189.329Z" fill="#231815"/>
<path d="M467.182 179.101C466.975 178.588 466.715 178.079 466.391 177.57C466.067 177.066 465.694 176.617 465.267 176.223C464.84 175.829 464.367 175.513 463.85 175.275C463.329 175.032 462.762 174.913 462.151 174.913C461.251 174.913 460.519 175.082 459.943 175.417C459.367 175.756 459.08 176.356 459.08 177.222C459.08 177.735 459.21 178.18 459.471 178.556C459.732 178.931 460.078 179.266 460.51 179.554C460.941 179.843 461.436 180.109 461.984 180.347C462.537 180.59 463.099 180.833 463.671 181.08C464.246 181.328 464.808 181.598 465.357 181.887C465.91 182.176 466.4 182.519 466.832 182.922C467.263 183.326 467.609 183.789 467.87 184.32C468.131 184.852 468.261 185.484 468.261 186.222C468.261 187.01 468.122 187.688 467.834 188.256C467.551 188.825 467.169 189.296 466.688 189.663C466.207 190.034 465.649 190.305 465.01 190.483C464.372 190.657 463.693 190.749 462.969 190.749C462.573 190.749 462.164 190.712 461.742 190.635C461.319 190.557 460.905 190.479 460.514 190.387C460.118 190.295 459.763 190.213 459.439 190.14C459.116 190.066 458.859 190.025 458.671 190.025C458.495 190.025 458.333 190.053 458.176 190.108C458.019 190.163 457.852 190.222 457.681 190.286C457.542 189.374 457.376 188.485 457.187 187.615C456.998 186.744 456.8 185.855 456.598 184.943L456.903 184.774C457.187 185.333 457.528 185.915 457.929 186.524C458.329 187.129 458.783 187.684 459.287 188.188C459.79 188.692 460.343 189.109 460.95 189.443C461.557 189.778 462.214 189.947 462.92 189.947C463.378 189.947 463.819 189.897 464.242 189.791C464.669 189.686 465.042 189.521 465.361 189.296C465.685 189.072 465.941 188.779 466.13 188.421C466.319 188.059 466.413 187.615 466.413 187.088C466.413 186.336 466.184 185.704 465.73 185.2C465.271 184.696 464.705 184.256 464.03 183.88C463.351 183.504 462.618 183.156 461.823 182.835C461.027 182.515 460.289 182.157 459.615 181.754C458.936 181.355 458.369 180.879 457.915 180.338C457.456 179.793 457.232 179.105 457.232 178.271C457.232 177.648 457.349 177.08 457.587 176.567C457.825 176.054 458.14 175.618 458.545 175.256C458.949 174.894 459.412 174.619 459.938 174.427C460.465 174.234 461.027 174.138 461.625 174.138C462.223 174.138 462.731 174.179 463.194 174.257C463.657 174.34 464.111 174.427 464.552 174.523C465.006 174.619 465.456 174.711 465.896 174.798C466.337 174.885 466.809 174.931 467.313 174.931C467.313 175.655 467.326 176.356 467.349 177.039C467.371 177.722 467.425 178.409 467.501 179.096H467.169L467.182 179.101Z" fill="#231815"/>
<path d="M485.554 190.076C486.121 190.025 486.561 189.938 486.876 189.81C487.191 189.682 487.429 189.48 487.596 189.21C487.762 188.939 487.861 188.582 487.901 188.137C487.942 187.697 487.96 187.138 487.96 186.465V175.298C487.123 175.298 486.426 175.33 485.869 175.394C485.311 175.458 484.826 175.623 484.417 175.889C484.007 176.155 483.648 176.558 483.342 177.103C483.036 177.648 482.73 178.395 482.434 179.339L482.128 179.243L482.461 174.528C483.122 174.56 483.774 174.583 484.421 174.601C485.064 174.619 485.721 174.624 486.382 174.624H491.93C492.56 174.624 493.18 174.615 493.796 174.601C494.412 174.587 495.033 174.56 495.662 174.528L495.995 179.243L495.689 179.339C495.388 178.391 495.087 177.648 494.781 177.103C494.475 176.558 494.115 176.155 493.706 175.889C493.297 175.623 492.807 175.458 492.231 175.394C491.656 175.33 490.945 175.298 490.096 175.298V186.465C490.096 187.138 490.114 187.697 490.154 188.137C490.195 188.577 490.298 188.935 490.46 189.21C490.626 189.485 490.873 189.682 491.202 189.81C491.534 189.938 491.989 190.025 492.573 190.076V190.364C491.975 190.332 491.377 190.309 490.779 190.291C490.181 190.273 489.583 190.268 488.985 190.268C488.387 190.268 487.829 190.277 487.263 190.291C486.696 190.305 486.13 190.332 485.563 190.364V190.076H485.554Z" fill="#231815"/>
<g clip-path="url(#clip0_140_375)">
<path d="M299.609 273.401C298.41 264.831 294.502 256.935 288.277 250.71C280.731 243.164 270.692 239 260.007 239C249.321 239 239.269 243.164 231.71 250.71C224.164 258.269 220 268.321 220 279.007C220 289.692 224.164 299.731 231.71 307.29C239.269 314.85 249.308 319.013 259.993 319.013C270.679 319.013 280.718 314.85 288.277 307.29C295.836 299.731 299.987 289.692 299.987 279.007C300 277.107 299.865 275.247 299.609 273.401ZM294.677 294.395C290.689 297.144 285.959 297.656 280.947 298.195C276.096 298.72 271.137 299.246 266.785 301.914C266.798 301.9 266.812 301.887 266.812 301.874C268.523 299.354 270.544 297.05 272.7 294.84C274.128 293.708 277.511 292.967 281.068 292.185C286.458 290.999 292.953 289.571 297.305 286C296.753 288.924 295.863 291.74 294.677 294.395ZM250.332 315.699C248.769 308.449 248.674 302.399 249.645 297.279C255.358 301.604 259.629 306.819 259.966 316.952C256.638 316.938 253.404 316.507 250.332 315.699ZM224.608 292.67C226.966 291.377 234.391 289.342 239.929 290.689C241.196 291.565 242.476 292.401 243.743 293.223C245.144 294.139 246.518 295.042 247.839 295.958C247.65 296.807 247.502 297.669 247.367 298.559C240.913 298.68 235.2 300.054 230.349 302.655C227.964 299.65 226.01 296.295 224.608 292.67ZM222.169 281.85C226.145 281.688 230.079 282.941 233.367 285.434C234.391 286.431 235.456 287.348 236.547 288.21C231.669 288.075 226.468 289.463 223.908 290.73C222.991 287.9 222.399 284.922 222.169 281.85ZM222.062 279.007C222.062 277.525 222.156 276.056 222.318 274.614C224.514 274.883 226.535 276.393 228.206 279.047C228.22 279.074 228.233 279.088 228.247 279.101C228.651 279.748 229.069 280.395 229.513 281.014C227.128 280.125 224.608 279.707 222.075 279.815C222.062 279.532 222.062 279.263 222.062 279.007ZM292.063 258.727C289.463 261.436 284.598 263.659 279.033 266.219C272.148 269.372 264.494 272.876 258.336 278.4C257.595 277.673 256.827 277.026 256.045 276.46C256.503 269.763 263.268 268.186 270.436 266.529C272.188 266.125 273.994 265.707 275.705 265.209C279.626 264.063 282.833 262.487 285.232 260.519C287.159 258.943 288.56 257.11 289.436 255.049C290.366 256.221 291.255 257.447 292.063 258.727ZM297.938 279.007C297.938 280.219 297.884 281.419 297.763 282.605C294.125 287.199 286.646 288.857 280.61 290.177C279.128 290.501 277.753 290.811 276.513 291.134C277.106 290.582 277.699 290.029 278.279 289.477L278.602 289.18C279.707 288.156 280.852 287.078 281.998 285.973C283.83 284.316 286.404 283.238 289.126 282.092C292.387 280.718 295.728 279.317 297.871 276.797C297.925 277.525 297.938 278.252 297.938 279.007ZM269.655 273.064C272.74 271.38 275.907 269.911 278.952 268.51C281.23 273.886 281.081 281.634 279.909 285.138C278.993 286.014 278.09 286.863 277.201 287.685L276.877 287.981C275.745 289.032 274.6 290.097 273.482 291.174C274.465 285.502 273.428 278.198 269.655 273.064ZM290.958 270.908C290.851 268.011 290.015 265.33 289.234 263.43C290.595 262.608 291.807 261.759 292.818 260.856C293.101 264.157 292.495 267.486 290.958 270.908ZM287.428 264.454C288.546 267.27 289.719 271.757 288.169 275.827C286.512 278.239 284.571 280.462 282.577 282.51C283.13 278.212 282.793 272.202 280.839 267.647C283.21 266.556 285.434 265.518 287.428 264.454ZM297.534 273.442C296.133 276.905 292.346 278.508 288.331 280.193C287.859 280.395 287.401 280.583 286.929 280.785C288.007 279.532 289.031 278.212 289.961 276.824C290.851 275.84 291.942 274.991 292.993 274.156C294.435 273.037 295.904 271.879 296.941 270.369C297.184 271.38 297.386 272.404 297.534 273.442ZM292.885 271.623C294.017 269.076 294.677 266.556 294.88 264.063C295.338 265.141 295.755 266.246 296.119 267.378C295.634 269.143 294.408 270.383 292.885 271.623ZM275.112 263.228C273.468 263.713 271.676 264.117 269.965 264.521C266.178 265.397 262.271 266.3 259.293 268.025C256.315 269.75 254.603 272.108 254.105 275.193C253.579 274.883 253.04 274.6 252.501 274.344C253.458 271.676 254.711 269.453 256.193 267.58C256.234 267.54 256.274 267.486 256.301 267.445C262.176 260.142 271.447 258.377 279.235 256.895C282.254 256.315 284.989 255.803 287.172 255.008C285.272 258.687 281.23 261.449 275.112 263.228ZM264.049 259.037C262.244 259.872 260.492 260.883 258.861 262.123C261.408 251.37 267.458 247.341 273.967 245.05C272.228 249.483 268.065 255.426 264.049 259.037ZM258.43 256.679C257.77 258.296 257.217 260.061 256.786 261.975C256.53 259.549 255.816 257.124 255.115 254.752C253.808 250.373 252.582 246.209 254.213 242.301C256.315 244.956 258.888 250.063 258.43 256.679ZM253.135 255.345C254.293 259.239 255.385 262.918 254.496 266.408C254.132 266.866 253.781 267.351 253.445 267.863C252.798 261.772 250.359 253.553 245.144 249.739C243.204 248.325 241.061 247.61 238.717 247.624C242.719 244.902 247.26 242.921 252.151 241.897C250.453 246.33 251.814 250.898 253.135 255.345ZM235.698 250.117C238.824 249.241 241.587 249.672 243.931 251.397C249.281 255.318 251.598 265.249 251.572 271.191C251.221 271.932 250.898 272.714 250.601 273.536C250.574 273.522 250.547 273.509 250.52 273.509C249.496 265.357 244.901 261.692 241.196 258.741C238.016 256.221 235.483 254.2 235.698 250.117ZM256.827 279.815C256.517 280.125 256.22 280.435 255.924 280.745C255.897 280.772 255.883 280.785 255.856 280.812C255.574 281.122 255.291 281.432 255.008 281.756C252.784 284.302 251.033 287.078 249.739 290.07C248.364 286.607 248.216 283.723 248.082 280.907C247.974 278.751 247.866 276.676 247.165 274.6C250.561 275.49 253.862 276.959 256.827 279.815ZM244.713 274.061C245.764 276.244 245.885 278.468 246.006 281.014C246.182 284.356 246.37 288.129 248.688 292.805C248.58 293.142 248.472 293.492 248.364 293.843C247.219 293.061 246.047 292.293 244.848 291.511C243.743 290.784 242.624 290.056 241.519 289.301C239.121 285.057 238.461 281.648 237.827 278.36C237.463 276.46 237.113 274.641 236.439 272.808C237.585 272.997 238.743 273.159 239.929 273.32C241.519 273.536 243.123 273.752 244.713 274.061ZM234.027 272.323C234.984 274.385 235.375 276.406 235.819 278.737C236.278 281.122 236.79 283.736 238.002 286.728C235.024 284.383 232.249 281.675 230.039 278.09C229.796 276.959 229.904 275.611 230.025 274.183C230.12 273.132 230.2 272.067 230.147 271.043C231.359 271.596 232.666 272 234.027 272.323ZM227.869 269.736C228.233 270.935 228.098 272.431 227.977 274.008C227.977 274.035 227.977 274.048 227.977 274.075C227.223 272.31 226.603 270.369 226.104 268.213C226.643 268.779 227.236 269.291 227.869 269.736ZM225.525 273.522C224.501 272.957 223.503 272.687 222.601 272.566C222.897 270.841 223.315 269.143 223.827 267.513C224.258 269.628 224.824 271.636 225.525 273.522ZM260.923 309.473C260.034 306.32 258.592 303.531 256.611 301.052C254.738 298.72 252.528 296.82 250.13 295.069C251.396 290.231 253.674 286.283 256.571 282.982C261.085 288.533 263.039 296.713 262.095 306.172C261.624 307.277 261.233 308.382 260.923 309.473ZM257.986 281.473C260.883 278.549 264.278 276.15 267.849 274.075C272.094 279.68 272.713 288.736 270.571 294.085C268.59 296.16 266.717 298.343 265.114 300.715C264.871 301.078 264.629 301.442 264.4 301.806C264.426 293.627 262.217 286.539 257.986 281.473ZM287.347 252.717C285.245 253.647 282.24 254.227 278.845 254.86C275.678 255.466 272.148 256.126 268.644 257.245C272.053 253.31 275.058 248.432 276.271 244.713C280.435 246.708 284.181 249.43 287.347 252.717ZM272.781 243.272C269.857 244.336 266.758 245.859 263.995 248.432C262.634 249.699 261.462 251.141 260.438 252.758C259.899 247.193 257.541 243.285 255.991 241.264C257.312 241.129 258.646 241.048 260.007 241.048C264.48 241.062 268.792 241.843 272.781 243.272ZM233.677 251.707C234.108 255.736 236.938 257.986 239.902 260.358C243.325 263.08 247.179 266.152 248.324 272.795C245.589 272.013 242.826 271.636 240.226 271.286C233.825 270.41 228.287 269.642 225.376 263.511C227.371 259.051 230.2 255.049 233.677 251.707ZM231.71 304.259C236.116 301.981 241.29 300.769 247.125 300.62C246.734 305.027 247.057 309.824 248.095 315.025C241.721 312.909 236.089 309.15 231.71 304.259ZM262.756 316.844C266.488 311.05 272.996 311.158 278.292 311.239C278.871 311.252 279.424 311.252 279.963 311.252C274.896 314.405 269.035 316.399 262.756 316.844ZM283.224 308.988C281.944 309.231 280.179 309.204 278.332 309.177C273.239 309.096 266.529 308.988 262.122 314.23C262.324 311.858 262.958 309.406 264.009 306.967C268.658 301.591 274.735 300.93 281.162 300.243C285.164 299.812 289.288 299.367 293.02 297.683C290.527 302.076 287.185 305.916 283.224 308.988Z" fill="#B74F32"/>
</g>
<defs>
<clipPath id="clip0_140_375">
<rect width="80" height="80" fill="white" transform="translate(220 239)"/>
</clipPath>
</defs>
</svg>
