<?xml version="1.0" encoding="utf-8"?>
<!-- Generator: Adobe Illustrator 26.3.1, SVG Export Plug-In . SVG Version: 6.00 Build 0)  -->
<svg version="1.1" id="圖層_1" xmlns="http://www.w3.org/2000/svg" xmlns:xlink="http://www.w3.org/1999/xlink" x="0px" y="0px"
	 viewBox="0 0 296 199" style="enable-background:new 0 0 296 199;" xml:space="preserve">
<style type="text/css">
	.st0{fill:#FFFFFF;}
	.st1{fill:none;stroke:#FFFFFF;}
</style>
<g>
	<g>
		<path class="st0" d="M73.7,169.3c4,0,6.6-2.1,6.6-5.1c0-2.9-1.8-4.9-6.6-5.2v0.4c4.3-0.4,6-2.4,6-5s-1.9-4.4-5.6-4.4
			c-2.8,0-5.3,1.2-5.5,4c0.2,0.4,0.7,0.7,1.2,0.7c0.8,0,1.4-0.4,1.7-1.5l0.5-2.5l-1.4,0.7c0.9-0.4,1.8-0.6,2.5-0.6
			c2,0,3.2,1.3,3.2,3.7c0,2.9-1.5,4.2-3.8,4.2h-0.9v0.9h1.1c2.7,0,4.1,1.6,4.1,4.4c0,2.8-1.5,4.3-4.1,4.3c-0.9,0-1.6-0.2-2.3-0.6
			l1.2,0.8l-0.5-2.6c-0.2-1.4-0.8-1.9-1.6-1.9c-0.6,0-1.2,0.3-1.4,1C68.2,167.8,70.2,169.3,73.7,169.3z M88.2,169.3
			c4.2,0,7-2.2,7-5.9s-2.5-5.6-6.5-5.6c-1.5,0-2.9,0.2-4.3,0.9l0.9,0.3l0.6-7.9l-0.6,1.9h9.3v-2.6h-9.8l-0.6,8.7l0.7,0.4
			c0.9-0.3,1.8-0.5,2.8-0.5c2.4,0,4,1.6,4,4.5c0,3.2-1.6,4.9-4.1,4.9c-1,0-1.5-0.2-2.3-0.6l0.8,0.6l-0.5-2.6
			c-0.2-1.3-0.7-1.8-1.6-1.8c-0.6,0-1.2,0.4-1.4,1C82.8,167.8,84.9,169.3,88.2,169.3z M108.9,157.4c-1.1,0-2,0.9-2,2s0.9,2,2,2
			s2-0.9,2-2S110.1,157.4,108.9,157.4z M128.3,169.3c4,0,6.6-2.1,6.6-5.1c0-2.9-1.8-4.9-6.5-5.2v0.4c4.3-0.4,6-2.4,6-5
			s-1.9-4.4-5.6-4.4c-2.8,0-5.3,1.2-5.5,4c0.2,0.4,0.7,0.7,1.2,0.7c0.8,0,1.4-0.4,1.7-1.5l0.6-2.5l-1.4,0.7c0.9-0.4,1.8-0.6,2.5-0.6
			c2,0,3.2,1.3,3.2,3.7c0,2.9-1.6,4.2-3.8,4.2h-1.1v0.9h1.1c2.7,0,4.1,1.6,4.1,4.4c0,2.8-1.5,4.3-4.1,4.3c-0.9,0-1.6-0.2-2.3-0.6
			l1.2,0.8l-0.5-2.6c-0.2-1.4-0.8-1.9-1.6-1.9c-0.6,0-1.2,0.3-1.4,1C122.8,167.8,124.8,169.3,128.3,169.3z M143.4,169.3
			c4.1,0,6.4-2.1,6.4-5.2c0-2.5-1.5-4.2-4.9-5.7c-3.3-1.4-4-3-4-4.7c0-1.8,1.3-2.9,2.8-2.9c1.7,0,2.7,1.4,2.7,3.3
			c0,1.9-0.6,3.2-1.9,4.6l0.3,0.2v0c3.1-1.2,4.3-2.9,4.3-4.6c0-2.4-1.8-4.3-5.3-4.3c-3.3,0-5.8,1.9-5.8,4.9c0,2.4,1.4,4.4,4.3,5.6
			c3.4,1.5,4.4,3,4.4,4.8c0,1.9-1.1,3.1-3.1,3.1c-2.1,0-3.2-1.3-3.2-3.9c0-1.9,0.6-3.1,2.3-4.4l-0.4-0.3v0.1c-3.1,1-4.7,2.6-4.7,4.9
			C137.6,167.5,139.6,169.3,143.4,169.3z M163.6,157.4c-1.1,0-2,0.9-2,2s0.9,2,2,2s2-0.9,2-2S164.8,157.4,163.6,157.4z M179.9,168.9
			h2.8l6.5-16.9v-1.6h-11.6v2.6h10.3v0.5l0.3-1.5l-8.6,16.7L179.9,168.9z M197.6,169.3c4,0,6.6-2.1,6.6-5.1c0-2.9-1.8-4.9-6.6-5.2
			v0.4c4.3-0.4,6-2.4,6-5s-1.9-4.4-5.6-4.4c-2.8,0-5.3,1.2-5.5,4c0.2,0.4,0.7,0.7,1.2,0.7c0.8,0,1.4-0.4,1.6-1.5l0.6-2.5l-1.4,0.7
			c0.9-0.4,1.8-0.6,2.5-0.6c2,0,3.2,1.3,3.2,3.7c0,2.9-1.6,4.2-3.8,4.2h-0.9v0.9h1c2.7,0,4.1,1.6,4.1,4.4c0,2.8-1.5,4.3-4.1,4.3
			c-0.9,0-1.6-0.2-2.4-0.6l1.2,0.8l-0.5-2.6c-0.2-1.4-0.8-1.9-1.6-1.9c-0.6,0-1.2,0.3-1.4,1C192.2,167.8,194.2,169.3,197.6,169.3z
			 M214.2,150l0.2,0.7h14.5c0.4,0,0.6-0.1,0.7-0.4c-1-1-2.8-2.4-2.8-2.4l-1.6,2.1L214.2,150L214.2,150z M213.6,160.7l0.2,0.7h15.9
			c0.3,0,0.6-0.1,0.7-0.4c-1.1-1-3-2.5-3-2.5l-1.6,2.2H213.6z M220.1,150v21.3h0.6c1.5,0,2.4-0.6,2.4-0.8V150H220.1z M215.8,152.2
			l-0.3,0.1c0.7,1.9,1.2,4.3,1.2,6.4C218.9,161.2,221.6,156.1,215.8,152.2z M225.6,152c-0.4,2.5-1.1,5.4-1.6,7.3l0.4,0.2
			c1.5-1.5,3-3.6,4.1-5.8c0.6,0,0.9-0.2,1-0.5L225.6,152z M206.4,155.3l0.2,0.7h8.4c0.3,0,0.6-0.1,0.6-0.4c-0.7-1-2.2-2.4-2.2-2.4
			l-1.2,2.1L206.4,155.3L206.4,155.3z M209.2,148.6v16.6l2.9-0.9v-14.7c0.7-0.1,0.9-0.3,0.9-0.7L209.2,148.6z M206.1,165l1.5,3.3
			c0.3-0.1,0.5-0.4,0.6-0.7c3.4-2.2,5.7-3.9,7.2-5.1l-0.1-0.3C211.6,163.5,207.6,164.7,206.1,165z"/>
		<path class="st0" d="M21.8,184.4l-1.2,2.1h-3.3v0.6h6.1c0.3,0,0.5-0.1,0.6-0.3C23.1,185.8,21.8,184.4,21.8,184.4z M19,180.7
			l-3.1-0.3v15.2c0,1.7,0.6,2.2,2.6,2.2h1.7c3.1,0,4-0.4,4-1.4c0-0.4-0.2-0.7-0.8-1l-0.1-3h-0.2c-0.3,1.2-0.7,2.4-0.9,2.8
			c-0.1,0.2-0.3,0.3-0.5,0.3s-0.7,0-1.2,0h-1.4c-0.6,0-0.8-0.2-0.8-0.6v-13.7C18.8,181.1,19,180.9,19,180.7z M5.6,195.7l1.2,3
			c0.2-0.1,0.5-0.3,0.6-0.5c3.7-1.6,6.2-2.8,7.9-3.8v-0.2C11.1,194.8,7.2,195.5,5.6,195.7z M13.8,180.6l-3-0.3v15.1h0.4
			c0.9,0,1.9-0.5,1.9-0.7v-13.6C13.6,181.1,13.8,180.9,13.8,180.6z M12.4,186.4H5.9l0.2,0.6h6.2C12.3,187,12.3,186.4,12.4,186.4z
			 M33.5,180.2v17H36v-16.1c0.5-0.1,0.7-0.3,0.7-0.6L33.5,180.2z M25.5,187.3l0.2,0.6h17.8c0.3,0,0.5-0.1,0.6-0.3
			c-1-0.8-2.6-2.1-2.6-2.1l-1.4,1.8H25.5z M26.5,197.1l0.2,0.6h15.8c0.3,0,0.5-0.1,0.6-0.3c-1-0.9-2.6-2.1-2.6-2.1l-1.4,1.8H26.5z
			 M59.2,180.4v18.2h0.4c0.9,0,1.8-0.5,1.8-0.8v-16.5c0.5-0.1,0.7-0.3,0.7-0.6L59.2,180.4z M54.5,182l-0.2,0.2
			c0.9,0.8,1.7,2.1,1.9,3.3C58.3,187,60.2,182.8,54.5,182z M54.2,187l-0.2,0.1c0.8,0.8,1.7,2,1.9,3.2C58,191.7,59.8,187.6,54.2,187z
			 M45.5,186.2l0.2,0.6h8.1c0.3,0,0.5-0.1,0.5-0.3c-0.7-0.7-1.9-1.8-1.9-1.8l-1.1,1.5H45.5z M51.5,180c-1.3,1-3.9,2.4-6.1,3.1
			l0.1,0.2c2.6-0.1,5.5-0.6,7.3-1.1c0.6,0.2,1.1,0.2,1.3,0L51.5,180z M48.5,186.3c-0.6,2.9-1.8,6.1-3.4,8.3l0.2,0.2
			c2.7-2.1,4.7-4.9,5.6-8.2v-0.3H48.5z M48.7,182.7v16h0.4c1.1,0,1.9-0.5,1.9-0.7v-16.3L48.7,182.7z M50.8,187.8l-0.2,0.1
			c0.6,0.9,1.3,2.2,1.4,3.4C53.8,192.7,55.7,189.3,50.8,187.8z M52.5,193.3l0.3,0.5l11.3-2.1c0.2,0,0.4-0.2,0.4-0.4
			c-0.7-0.6-1.9-1.6-1.9-1.6l-1,1.9L52.5,193.3z M69.7,180l-0.2,0.1c0.7,0.9,1.4,2.2,1.6,3.3C73.2,185,75.2,180.9,69.7,180z
			 M65.3,183.8l0.2,0.6h18c0.3,0,0.5-0.1,0.6-0.3c-1-0.8-2.5-2-2.5-2l-1.4,1.7H65.3z M73.1,183.8c0,1-0.1,2.5-0.2,3.3h0.4
			c1.1-0.8,2.4-2.2,3.3-3.3H73.1z M77.2,179.9c-0.3,1.3-0.9,3.1-1.5,4.3h0.3c1.3-0.9,2.8-2.2,3.6-3.1c0.5,0,0.7-0.2,0.8-0.4
			L77.2,179.9z M68.6,186.8v11.8H69c1,0,2-0.6,2-0.8v-10.4h8.7v-0.6h-8.5l-2.6-1V186.8z M78.4,186.8v11.7h0.4c0.8,0,2-0.5,2.1-0.7
			v-10.1c0.4-0.1,0.7-0.2,0.8-0.4l-2.3-1.8L78.4,186.8L78.4,186.8z M69.8,196.6v0.6h10v-0.6H69.8z M69.8,193.2v0.6h10v-0.6H69.8z
			 M69.8,190v0.6h10V190H69.8z M90.7,191.8l0.9,2.7c0.2-0.1,0.5-0.3,0.5-0.5c1.6-1.2,2.7-2.3,3.4-2.9l-0.1-0.2
			C93.4,191.2,91.4,191.6,90.7,191.8z M94.4,180.1v9.4c0,4-1,6.8-4.2,9l0.2,0.2c4.7-1.8,6.2-4.9,6.2-9.2V181
			c0.5-0.1,0.7-0.3,0.7-0.6L94.4,180.1z M98.2,180.1v18.6h0.4c0.9,0,1.8-0.6,1.8-0.8V181c0.5-0.1,0.7-0.3,0.7-0.6L98.2,180.1z
			 M91.9,183.9l0.2,0.6h3.8v-0.6H91.9z M91.8,187.8l0.2,0.6h3.6v-0.6H91.8z M99.3,183.9v0.6h4.3c0.3,0,0.5-0.1,0.5-0.3
			c-0.7-0.7-1.9-1.8-1.9-1.8l-1.1,1.6h-1.8V183.9z M99.3,187.9v0.6h4.1c0.3,0,0.5-0.1,0.5-0.3c-0.7-0.7-1.9-1.8-1.9-1.8l-1,1.5H99.3
			z M99.4,192.5v0.6h4.4c0.3,0,0.5-0.1,0.5-0.3c-0.7-0.8-2-1.9-2-1.9l-1.1,1.6L99.4,192.5L99.4,192.5z M85.3,184.7l0.2,0.6H92
			c0.3,0,0.5-0.1,0.5-0.3c-0.6-0.8-1.6-1.9-1.6-1.9l-1,1.7h-4.6V184.7z M87.7,179.9v16c0,0.2-0.1,0.3-0.4,0.3
			c-0.4,0-1.9-0.1-1.9-0.1v0.3c0.8,0.1,1.2,0.4,1.4,0.7c0.2,0.3,0.3,0.9,0.4,1.5c2.4-0.2,2.7-1.1,2.7-2.6v-15.3
			c0.5-0.1,0.7-0.3,0.7-0.6L87.7,179.9z M85.1,189.8l1,2.6c0.2-0.1,0.4-0.3,0.5-0.6c2.5-1.6,4.3-3,5.5-3.9l-0.1-0.2
			C89.1,188.6,86.2,189.5,85.1,189.8z M115.8,181.8l0.2,0.6h17.2c0.3,0,0.5-0.1,0.6-0.3c-1-0.8-2.5-2-2.5-2l-1.4,1.7H115.8z
			 M128.8,186v12.5h0.4c0.8,0,2-0.5,2-0.7v-10.9c0.4-0.1,0.7-0.3,0.8-0.4l-2.3-1.8l-1.1,1.3H128.8z M118.4,186v12.6h0.4
			c1,0,2-0.6,2-0.8v-11.2h9V186H121l-2.5-1C118.5,185,118.5,186,118.4,186z M119.6,196.2v0.6h10.3v-0.6H119.6z M119.6,190.9v0.6
			h10.3v-0.6H119.6z M123.1,181.8c-0.1,1.4-0.3,3.4-0.4,4.5h0.4c1.1-1.1,2.3-2.9,3.2-4.5H123.1z M135.4,193l0.2,0.6h18
			c0.3,0,0.5-0.1,0.6-0.3c-1-0.8-2.5-2-2.5-2l-1.4,1.7H135.4z M144.8,183.1v15.6h0.5c1.3,0,2.1-0.5,2.1-0.7v-14.9L144.8,183.1
			L144.8,183.1z M140.1,187.6v0.6h12.3c0.3,0,0.5-0.1,0.6-0.3c-0.9-0.8-2.4-1.9-2.4-1.9l-1.3,1.6L140.1,187.6L140.1,187.6z
			 M138.8,187.6v5.8h2.5v-5.8h0.3l-2.8-1V187.6z M140.1,179.7c-1.1,3.4-3.1,6.7-4.9,8.7l0.2,0.2c2.8-1.5,5.2-3.9,7.1-7.3
			c0.5,0,0.7-0.1,0.8-0.4L140.1,179.7z M140.1,183.1l-0.3,0.6H153c0.3,0,0.5-0.1,0.6-0.3c-1-0.9-2.5-2-2.5-2l-1.4,1.7H140.1z
			 M155.4,186l0.2,0.6h17.9c0.3,0,0.5-0.1,0.6-0.3c-1-0.9-2.7-2.1-2.7-2.1l-1.5,1.8H155.4z M163.1,180c0,7.4,0.4,13.5-7.7,18.4
			l0.2,0.3c10.2-4,10-10.4,10.2-17.8c0.5-0.1,0.7-0.3,0.7-0.6L163.1,180z M165.6,186.1l-0.3,0.1c0.4,4.1,1.8,9.5,6.8,12.6
			c0.2-1.4,1-2.1,2.2-2.3v-0.2C168.4,193.8,166.1,189.9,165.6,186.1z M180.2,188l-0.2,0.1c0.5,0.9,1.1,2.3,1.1,3.4
			C182.8,193,184.6,189.8,180.2,188z M180.4,198.1v-16.5l-2.1,0.8v16.2h0.4C179.6,198.7,180.4,198.2,180.4,198.1z M180.2,186.7v-0.3
			h-2.3c-0.5,3-1.5,6.3-3,8.6l0.2,0.2C177.8,193,179.4,190.1,180.2,186.7z M183.2,182.1l-2.6-2.1c-1.2,1-3.6,2.4-5.5,3.2l0.1,0.2
			c2.4-0.2,5.1-0.8,6.7-1.3C182.6,182.3,183.1,182.3,183.2,182.1z M181.6,184.8l-1,1.5h-5.2l0.2,0.6h7.4c0.3,0,0.5-0.1,0.5-0.3
			C182.8,185.9,181.6,184.8,181.6,184.8z M188.6,188.1l-2-1.5c-0.8,0.8-1.8,1.7-2.5,2.2l0.1,0.3c0.8-0.1,2.6-0.4,3.6-0.8
			C188.2,188.4,188.4,188.3,188.6,188.1z M186.4,182.8l-0.2,0.1c0.6,0.9,1.3,2.3,1.3,3.5C189.2,187.9,191.1,184.2,186.4,182.8z
			 M194.1,183.6l-2.7-1.3c-0.5,1.9-1.2,4-1.9,5.3l0.3,0.2c1.3-1,2.5-2.4,3.5-3.9C193.6,184,193.9,183.8,194.1,183.6z M183.4,183.2
			l-0.2,0.1c0.5,0.9,1.1,2.2,1.2,3.3C185.9,188.1,187.9,184.8,183.4,183.2z M193.8,181.8l-2.1-2c-2,0.9-5.8,2.2-8.8,2.8l0.1,0.3
			c3.3-0.1,7.2-0.6,9.7-1.1C193.1,182,193.6,181.9,193.8,181.8z M190.9,188.4h0.2v10h0.3c0.7,0,1.8-0.4,1.8-0.6v-8.5
			c0.4-0.1,0.6-0.2,0.8-0.4l-2.1-1.6L190.9,188.4z M186.2,188.5l-2.8-0.7v10.9h0.3c1.2,0,1.8-0.5,1.8-0.6v-9.2
			C185.9,188.8,186.1,188.7,186.2,188.5z M186.9,191l-0.8,1.2h-1.7v0.6h3.5c0.3,0,0.5-0.1,0.5-0.3C187.8,191.8,186.9,191,186.9,191z
			 M191.9,192.1h-3.2l0.2,0.6h3V192.1z M191.9,188.4h-3.3l0.2,0.6h3.1V188.4z M191.9,196.1h-7.2v0.6h7.2V196.1z M202.9,193.3
			l0.2,0.6h10.3c0.3,0,0.5-0.1,0.6-0.3c-0.8-0.8-2.2-1.8-2.2-1.8l-1.2,1.5H202.9z M201.9,197.5l0.2,0.6h11.9c0.3,0,0.5-0.1,0.5-0.3
			c-0.8-0.8-2.2-1.9-2.2-1.9l-1.2,1.6L201.9,197.5L201.9,197.5z M206.9,189.7v8h2.4v-8H206.9z M210.9,187.6c-1.7,1-5.1,2.3-7.8,3
			l0.1,0.3c3-0.1,6.6-0.4,8.8-0.9c0.6,0.2,1.1,0.2,1.3,0L210.9,187.6z M195.2,186.1l0.2,0.6h7.6c0.3,0,0.5-0.1,0.5-0.3
			c-0.7-0.7-1.8-1.7-1.8-1.7l-1,1.4H195.2z M198.1,186.2c-0.5,2.8-1.5,5.9-3,8.1l0.2,0.2c2.5-2.1,4.3-4.8,5.2-8v-0.3H198.1z
			 M198.2,182.6v16.1h0.4c1.1,0,1.8-0.5,1.9-0.7v-16.3L198.2,182.6z M200.4,187.9l-0.2,0.1c0.6,0.9,1.2,2.3,1.3,3.4
			C203.1,192.9,205.1,189.5,200.4,187.9z M200.9,179.9c-1.2,1-3.7,2.4-5.8,3.2l0.1,0.2c2.5-0.2,5.3-0.7,7-1.2c0.6,0.2,1.1,0.2,1.3,0
			L200.9,179.9z M204.9,186.4v0.6h6.4v-0.6H204.9z M203.8,181.6v6.5h0.3c0.9,0,1.9-0.5,1.9-0.7v-5.3h5.6v-0.6h-5.5l-2.3-0.9V181.6z
			 M210.4,181.6v6.2h0.4c0.8,0,1.9-0.5,1.9-0.6v-4.6c0.4-0.1,0.7-0.3,0.8-0.4l-2.2-1.7l-1,1.1H210.4z M222.8,180l-0.1,0.1
			c0.7,0.5,1.3,1.5,1.4,2.4C226.2,183.9,228.1,179.7,222.8,180z M230.8,182.7h0.2c0,0.7-0.2,1.9-0.3,2.6l0.2,0.1
			c0.8-0.4,1.8-1.2,2.4-1.7c0.4,0,0.6-0.1,0.8-0.2l-2.1-2L230.8,182.7z M218.1,181.5h-0.3c0,1.1-0.7,2.1-1.4,2.5
			c-0.6,0.3-1,0.8-0.8,1.5c0.3,0.7,1.2,0.9,1.9,0.5C218.4,185.4,218.9,183.8,218.1,181.5z M231.9,182.7h-14v0.6h14V182.7z
			 M232.8,188.4l-2.4-2c-1.2,1.1-3.6,2.9-5.5,4l0.2,0.2c2.5-0.5,5.3-1.4,7-2.1C232.4,188.6,232.6,188.6,232.8,188.4z M227.1,189.2
			l-0.3,0.1c0.8,4,2.6,6.3,5.4,8c0.3-1.1,1-1.8,1.9-2v-0.2C231.1,194.2,228.1,192.5,227.1,189.2z M226.1,192.8l-1.5-2.2
			c-1.8,2.7-5.4,5.3-9,6.6l0.1,0.3C219.8,196.6,223.8,194.8,226.1,192.8z M224.8,190.1l-1.4-2.1c-1.5,2-4.5,4.4-7.2,5.7l0.1,0.3
			C219.4,193.2,222.8,191.6,224.8,190.1z M222.6,187.3l-0.2,0.2c2.3,2.8,2.4,7.5,1.6,8.7c-0.1,0.2-0.3,0.2-0.6,0.2
			c-0.5,0-1.8-0.1-2.6-0.2v0.2c0.8,0.2,1.4,0.5,1.7,0.7c0.3,0.3,0.4,0.8,0.5,1.5c1.4,0,2.4-0.2,2.9-0.9
			C227.4,196,227.2,190.2,222.6,187.3z M225.9,185.9v-0.3h-3c-1.5,1.7-3.9,3.6-6.6,4.9l0.1,0.2C220.2,189.7,223.9,188,225.9,185.9z
			 M229.2,184l-1.2,1.6h-9.6l0.2,0.6h12.3c0.3,0,0.5-0.1,0.5-0.3C230.6,185,229.2,184,229.2,184z M249.4,192.6l-0.2,0.1
			c1.1,1.5,2.4,3.6,2.9,5.4C254.1,199.8,255.8,195.4,249.4,192.6z M237.9,180l-0.2,0.1c0.6,0.8,1.3,2.1,1.3,3.2
			C240.9,184.8,242.9,181.1,237.9,180z M239.6,184.3h-2.3c0,4.9,0.1,9.9-2.2,14.1l0.3,0.3C239.4,194.9,239.6,189.7,239.6,184.3z
			 M242.1,187.4h-3.5v0.6h3.5V187.4z M240.9,187.4h0.2c-0.1,5.4-0.4,7.8-1,8.4c-0.2,0.1-0.3,0.2-0.6,0.2c-0.4,0-1.2-0.1-1.7-0.1v0.3
			c0.6,0.2,1.1,0.4,1.3,0.7s0.3,0.8,0.3,1.4c0.9,0,1.7-0.3,2.3-0.8c1-0.9,1.3-3.1,1.5-9.2c0.4-0.1,0.7-0.2,0.8-0.3l-2-1.7
			L240.9,187.4z M242.2,182.4l-1.2,1.6h-5.8l0.2,0.6h8.3c0.3,0,0.5-0.1,0.5-0.3C243.6,183.5,242.2,182.4,242.2,182.4z M248.8,180.9
			l-3.1-0.9c-0.5,2.6-1.5,5-2.7,6.6l0.2,0.2c1.9-1.1,3.6-2.9,4.8-5.4C248.4,181.3,248.6,181.1,248.8,180.9z M252.1,181.6l-1.2,1.7
			h-5.2v0.6h8.1c0.3,0,0.5-0.1,0.6-0.3C253.4,182.8,252.1,181.6,252.1,181.6z M251.6,185.7l-1.2,1.6h-4.9v0.6h7.6
			c0.3,0,0.5-0.1,0.6-0.3C253.1,186.8,251.6,185.7,251.6,185.7z M248.6,185.3l-3-0.9c-0.3,2.3-1.2,4.5-2.2,5.9l0.2,0.2
			c1.7-1,3.1-2.5,4.1-4.8C248.1,185.7,248.4,185.6,248.6,185.3z M249.9,187.3h-2.4c-0.1,4.7,0.1,8.2-5.4,11.1l0.2,0.3
			C249.4,196.3,249.6,192.5,249.9,187.3z M252.1,189.5l-1.2,1.6h-7.5l0.2,0.6h10.1c0.3,0,0.5-0.1,0.6-0.3
			C253.4,190.6,252.1,189.5,252.1,189.5z M256.9,180.4l-0.2,0.1c0.6,0.6,1.2,1.7,1.4,2.6C260,184.4,262,180.6,256.9,180.4z
			 M260.5,196.1h-3.2v0.6h3.2V196.1z M259.4,191.5h0.2v6.2h0.3c0.6,0,1.6-0.4,1.6-0.6v-4.8c0.3-0.1,0.6-0.2,0.7-0.3l-1.9-1.4
			L259.4,191.5z M258,198v-5.9h2.4v-0.6h-2.3l-2-0.8v7.9h0.3C257.2,198.6,258,198.1,258,198z M261,182.7l-0.9,1.2h-4.8l0.2,0.6h6.6
			c0.3,0,0.5-0.1,0.5-0.3C262,183.5,261,182.7,261,182.7z M260.4,187.9l-0.8,1.1H256l0.2,0.6h5.2c0.3,0,0.5-0.1,0.5-0.3
			C261.4,188.7,260.4,187.9,260.4,187.9z M260.5,185.3l-0.8,1.1h-3.6l0.2,0.6h5.3c0.3,0,0.5-0.1,0.5-0.3
			C261.4,186.1,260.5,185.3,260.5,185.3z M274,187.4l-2.5-0.8c-1.1,5.6-3.1,9.1-6.7,11.7l0.2,0.3c4.4-2.1,6.8-5.5,8.3-10.9
			C273.8,187.7,274,187.6,274,187.4z M265.8,187.8h0.2c0,3.9-0.1,5.5-0.4,5.9c-0.1,0.1-0.1,0.1-0.2,0.1c-0.2,0-0.8,0-1.1-0.1v0.3
			c0.4,0.1,0.8,0.3,0.9,0.6c0.2,0.2,0.2,0.7,0.2,1c0.6,0,1.1-0.1,1.5-0.5c0.7-0.7,0.8-2.3,0.9-6.5c0.4-0.1,0.6-0.2,0.7-0.3l-1.7-1.5
			L265.8,187.8z M262.8,184.1v4.4c0,3.3-0.1,7-1.7,10l0.2,0.2c3.2-2.8,3.4-7.2,3.4-10.2v-4.2h0.3l-2.3-0.9v0.7H262.8z M270.6,180.5
			l-2.8-0.3c0,7.1,0.3,13.3,3.3,17.1c0.7,0.9,2,1.8,2.9,1c0.3-0.3,0.2-0.9-0.3-2.1l0.4-3.3h-0.2c-0.3,0.8-0.7,1.8-1,2.3
			c-0.2,0.4-0.3,0.4-0.5,0c-2.4-2.9-2.6-8.5-2.5-14.3C270.5,181,270.6,180.7,270.6,180.5z M272.4,182.9l-1.1,1.4H264v0.6h9.9
			c0.3,0,0.5-0.1,0.5-0.3C273.5,183.8,272.4,182.9,272.4,182.9z M270.8,180.7l-0.2,0.1c0.5,0.5,1.1,1.4,1.3,2.2
			C273.5,184.2,275.2,180.8,270.8,180.7z M266.9,187.8h-3v0.6h3V187.8z M292.2,184.4l-1.1,1.5h-5l0.2,0.6h7.4c0.3,0,0.5-0.1,0.6-0.3
			C293.5,185.5,292.2,184.4,292.2,184.4z M291.2,181l-0.2,0.1c0.5,0.7,1,1.9,1,3C293.5,185.5,295.5,182.3,291.2,181z M290.5,186.1
			l-0.3,0.1c0.1,6.3,0.3,9.6,2.1,12.5c0.5-1,1.2-1.6,2.1-1.7v-0.2C292,194.7,290.8,191.6,290.5,186.1z M291.2,180.2l-2.9-0.3
			c0,7.9,0.4,14-2.8,18.5l0.3,0.3c5-4,4.6-10.1,4.7-18C291,180.7,291.1,180.5,291.2,180.2z M285,183.2h0.2c0,0.6-0.2,1.6-0.3,2.2
			l0.3,0.1c0.5-0.3,1.3-1,1.7-1.4c0.4,0,0.6-0.1,0.8-0.2l-1.7-1.7L285,183.2z M282.1,183.9l-2-0.2v2.4c0,0.9,0.2,1.2,1.5,1.2h1.4
			c2.2,0,2.8-0.2,2.8-0.8c0-0.3-0.2-0.4-0.6-0.5h-0.1h-0.2c-0.1,0-0.3,0.1-0.4,0.1s-0.3,0-0.4,0c-0.2,0-0.6,0-1,0H282
			c-0.4,0-0.5-0.1-0.5-0.3v-1.5C282,184.3,282.1,184.1,282.1,183.9z M276.2,183v5.4c0,3.3,0.1,6.9-1.1,9.8l0.3,0.2
			c2.7-2.8,2.8-6.9,2.8-10v-5.2h0.3l-2.3-0.8L276.2,183L276.2,183z M283.5,183.9l-0.6,0.9l-4.6,0.4l0.2,0.5l5.9-0.5
			c0.2,0,0.4-0.2,0.5-0.4C284.4,184.4,283.5,183.9,283.5,183.9z M284.5,180.3l-1,1.2h-2.4v0.6h4.7c0.3,0,0.5-0.1,0.5-0.3
			C285.6,181.1,284.5,180.3,284.5,180.3z M283,180.2l-2.8-0.3v3.6h2.2v-2.8C283,180.6,283,180.4,283,180.2z M286.1,183.2h-8.9v0.6
			h8.9V183.2z M284.1,190.9h-4.2v0.6h4.2V190.9z M279.1,188.5v3.7h0.3c0.8,0,1.3-0.3,1.3-0.4v-2h3v2.1h0.3c0.8,0,1.3-0.3,1.3-0.4
			v-1.6c0.4-0.1,0.6-0.2,0.7-0.3l-1.6-1.2l-0.7,0.8H281L279.1,188.5z M284.9,186.9l-0.8,1h-5.6l0.2,0.6h7.3c0.3,0,0.5-0.1,0.5-0.3
			C285.8,187.6,284.9,186.9,284.9,186.9z M284.2,193.6l-1.6-0.6c-0.2,0.6-0.4,1.6-0.6,2.1h0.4c0.4-0.4,0.7-0.8,1-1.2
			C283.9,193.9,284.1,193.8,284.2,193.6z M282.9,197.4V195h-1.5v2.8h0.3C282.4,197.8,282.9,197.5,282.9,197.4z M283.8,194.2
			l-0.5,0.6H280l0.2,0.6h4.1c0.2,0,0.4-0.1,0.5-0.3C284.2,194.6,283.8,194.2,283.8,194.2z M280.5,193.1l-0.2,0.1
			c0.3,0.3,0.5,0.9,0.6,1.4C281.6,195.4,282.8,193.8,280.5,193.1z M284.4,192.4h0.2v3.7c0,0.2-0.1,0.3-0.3,0.3
			c-0.3,0-1.5-0.1-1.5-0.1v0.3c0.6,0.1,0.9,0.3,1.1,0.5s0.3,0.6,0.3,1.1c1.9-0.2,2.1-0.8,2.1-2v-3.1c0.3-0.1,0.6-0.2,0.7-0.3
			l-1.8-1.3L284.4,192.4z M285,192.4h-5.7v0.6h5.7V192.4z M278.1,191.5v7h0.3c0.9,0,1.4-0.4,1.4-0.5v-5.5h0.3L278.1,191.5z"/>
		<path class="st1" d="M252.8,158.9h43.5"/>
		<path class="st1" d="M1.2,158.9h43.5"/>
	</g>
	<g>
		
			<image style="overflow:visible;opacity:0.5;enable-background:new    ;" width="295" height="119" xlink:href="../s1/5D1F8A34.png"  transform="matrix(1.0034 0 0 1.0034 0.75 0.2265)">
		</image>
		<g>
			<g>
				<g>
					<g>
						<path class="st0" d="M170.4,113.8c-0.3,0.9-1.1,1.8-2.3,1.8c-1.6,0-2.6-0.7-2.6-3.4v-6.9h-1.1v-0.2h1.2v-3.3l1.6-0.2v3.5h2.7
							v0.2h-2.6v6.9c0,2,0.7,2.6,1.8,2.6c0.7,0,1.2-0.5,1.4-1H170.4z"/>
						<path class="st0" d="M180.7,114.6c-0.6,0.6-1.5,1.1-2.5,1.1c-1.5,0-3.4-0.5-3.4-3.3v-5.1c0-1.5,0-1.5-1.3-1.6v-0.2l2.8-0.4
							v7.4c0,1.9,1.2,2.6,2.6,2.6c0.6,0,1.2-0.2,1.6-0.5L180.7,114.6z M184.2,115v0.2l-2.2,0.4c-0.5,0.1-0.5-0.3-0.5-0.3V107
							c0-1.4,0-1.4-1.1-1.5v-0.2l2.6-0.4v8.8C183,114.7,183.2,114.9,184.2,115z"/>
						<path class="st0" d="M197,114.1l0.3,0.1c-0.1,0.7-0.8,1.5-1.8,1.5c0,0-1.8,0.1-1.8-1.9v-3.8c-2.8,0.7-4.2,1.6-4.2,3.1
							c0,1,0.6,1.9,2,1.9c0.5,0,1-0.1,1.3-0.3c0,0.1,0.1,0.2,0.2,0.3c-0.6,0.5-1.5,0.8-2.4,0.8c0,0-2.6,0-2.6-2.3
							c0-2.1,1.9-2.8,5.8-3.7v-1.2c0-2.1-0.9-3.4-2.6-2.9l-0.1-0.2c0.8-0.3,1.5-0.2,1.5-0.2c2.2,0,2.8,1.8,2.8,4.4v4
							c0,0,0,1.3,1,1.3C196.3,114.8,196.9,114.8,197,114.1z M188.8,107.9c-0.2-0.3-0.3-0.7-0.1-1c0.1-0.2,0.4-0.7,1.1-1.2l0.1,0.2
							c-0.3,0.3-0.4,0.5-0.3,0.5c0.2,0,0.4,0.1,0.6,0.3c0.3,0.4,0.3,1-0.2,1.3C189.7,108.4,189.1,108.3,188.8,107.9z M194.9,103.3
							h-0.3l-5.3-3.2l1.5-0.4L194.9,103.3z"/>
						<path class="st0" d="M214.3,113.8c-0.3,0.9-1.1,1.8-2.3,1.8c-1.6,0-2.6-0.7-2.6-3.4v-6.9h-1.1v-0.2h1.2v-3.3l1.6-0.2v3.5h2.7
							v0.2h-2.6v6.9c0,2,0.7,2.6,1.8,2.6c0.7,0,1.2-0.5,1.4-1H214.3z"/>
						<path class="st0" d="M224.6,114.6c0,0-0.6,0.8-2.1,1v-0.3c2.1-0.4,1.4-2.6-0.1-3.6l-2.3-1.4c-2.2-1.5-2.6-2.6-1.9-4.1
							c0,0,0.5-1.1,2.3-1.3v0.3c-1.8,0.4-1.6,2.3,0.2,3.4l2.3,1.4C225,111.3,225.7,113,224.6,114.6z M217.9,111.6h0.3
							c0.1,1.6,0.5,3.4,3,3.7v0.2c-2.3-0.1-3.3-0.8-3.3-0.8V111.6z M224.8,108.4h-0.3c-0.1-1.4-0.6-3-2.8-3.3v-0.2
							c2.1,0.1,3.1,0.7,3.1,0.7V108.4z"/>
						<path class="st0" d="M234.2,115.4v0.3c-3-0.3-4.5-2.6-4.5-5.3c0-2.7,1.5-5,4.5-5.3v0.3c-1.5,0.2-2.7,1.5-2.7,5
							C231.5,113.7,232.7,115.1,234.2,115.4z M237.8,103.3h-0.3l-5.3-3.2l1.5-0.4L237.8,103.3z M235.5,115.6v-0.3
							c1.5-0.2,2.7-1.5,2.7-5c0-3.5-1.2-4.8-2.7-5v-0.3c3,0.3,4.5,2.6,4.5,5.3C240.1,112.9,238.6,115.3,235.5,115.6z"/>
						<path class="st0" d="M244.8,110.3v-1.2h7.3v1.2H244.8z"/>
						<path class="st0" d="M259.8,115.2v0.2h-3.4v-0.2c0.9-0.2,0.9-0.4,0.9-1.5v-12.8c0-0.8-0.2-1.1-1.1-1.2v-0.2l2.7-0.5v14.7
							C258.9,114.9,259,115,259.8,115.2z M266.5,115.2v0.2h-3.4v-0.2c0.9-0.2,0.9-0.4,0.9-1.5v-5c0-1.8-0.9-2.9-2.6-2.9
							c-0.6,0-1.2,0.3-1.6,0.7l-0.2-0.3c0.7-0.7,1.7-1.2,2.7-1.2c1.9,0,3.3,1,3.3,3.6v5.1C265.6,114.9,265.7,115,266.5,115.2z"/>
						<path class="st0" d="M276.8,114.6c-0.6,0.6-1.5,1.1-2.5,1.1c-1.5,0-3.4-0.5-3.4-3.3v-5.1c0-1.5,0-1.5-1.3-1.6v-0.2l2.8-0.4
							v7.4c0,1.9,1.2,2.6,2.6,2.6c0.6,0,1.2-0.2,1.6-0.5L276.8,114.6z M280.4,115v0.2l-2.2,0.4c-0.5,0.1-0.5-0.3-0.5-0.3V107
							c0-1.4,0-1.4-1.1-1.5v-0.2l2.6-0.4v8.8C279.1,114.7,279.3,114.9,280.4,115z"/>
						<path class="st0" d="M292.4,112.7l0.2,0.1c-0.2,1-1.4,2.8-3.9,2.8c-2.8,0-4.8-2.1-4.8-5.2c0-3.1,1.8-5.1,4.1-5.4v0.2
							c-1.2,0.4-2.4,1.9-2.4,4.6h5.7c0-2.8-1.1-4.2-2.1-4.6V105c2.1,0.3,3.6,1.9,3.6,5.1h-7.4c0,3.4,1.5,4.6,3.4,4.7
							C290.5,114.9,292,113.8,292.4,112.7z M289.7,99.7l1.5,0.4l-5.3,3.2h-0.3L289.7,99.7z"/>
					</g>
				</g>
				<g>
					<g>
						<g>
							<path class="st0" d="M32.8,45.9c4.9,12.8,3,21.7-0.1,26.4c-2.1,3.4-5.8,3.8-7.9,1.7c-1.5-2-1-4.5,0.6-6.5
								c3.3-3.3,6.6-12,6.4-21.5L32.8,45.9z"/>
							<path class="st0" d="M59.2,45.4c-1.2-6.5-5.3-14.1-9.3-19.2l0.6-0.4C73.4,34,67.2,52,59.2,45.4z"/>
							<path class="st0" d="M80.8,72.9c-2-6.5-6.3-16.6-13.3-22.7l0.4-0.7C94.7,58.7,88.9,80,80.8,72.9z"/>
							<path class="st0" d="M132.3,30.7c6,9,18,14.1,28.1,17.3l-0.1,1c-3.4,1-5.8,4.8-6.4,8.3c-9.8-5.7-18.6-14.1-22.7-25.7
								c-6.5,11.1-20.7,22.7-33.7,28.5l-0.4-0.8c11.1-8.1,23.5-23.4,26.3-33.7l10.6,3L132.3,30.7z"/>
							<path class="st0" d="M75.8,81.1c0.1,0.7,0.2,1.4,0,2c-0.6,2.3-3,3.6-9.4,4.1c-2,0.2-4.4,0.2-7.4,0.2h-8.5
								c-7.8,0-10.4-1.5-10.4-8.3V37.5l7.8,2.9l0,0v2.5v33.9c0,1.7,0.8,2.3,3.7,2.3h8c2.9,0,5.3-0.1,6.5-0.1
								c1.1-0.1,1.7-0.4,2.2-1.3c0.8-1.5,2.1-5.6,3.5-11h0.8l2.3,10.6L75.8,81.1z"/>
							<g>
								<path class="st0" d="M149.4,81.2l-4.4,6h-10.3v2h20.8c0.9,0,1.6-0.3,1.8-1.1C154.3,85.2,149.4,81.2,149.4,81.2z"/>
								<polygon class="st0" points="122.4,60.6 122.4,58.5 109.6,58.5 110.1,60.6 								"/>
								<path class="st0" d="M132.6,87.3L132.6,87.3V60.6h14.1c0.9,0,1.6-0.3,1.8-1.1c-2.7-2.5-7.2-6.1-7.2-6.1l-3.8,5.2h-12.9v6.5
									l0,0v22.2h-22.4l0.5,2h29.9v-2H132.6z"/>
							</g>
							<path class="st0" d="M232.2,78.7c-4.4-1.3-8.9-4.3-11.4-8.3c0.4-0.8,0.8-1.7,1.1-2.5l0,0l0.9-2l-7.5-2.5
								c-1.4,8.7-4.6,16.3-8.7,21.3V62.9c5.2-0.4,10-0.9,14.1-1.5l4.1-0.7l-5.6-6.2c-9,3-26.3,6.6-39.7,8.3l0.1,1.2
								c6.1,0.1,12.8-0.1,19.2-0.5v27.8h1.4c3.8,0,6.2-1.7,6.2-2.2v-4.1l0.7,0.6c4.9-2.7,9.2-7.1,12.4-13c1.5,6.1,3.8,10.7,7.6,13.8
								c0.1-0.6,3.8-5.5,4.6-6.5l0.7-0.8L232.2,78.7z"/>
							<path class="st0" d="M189.6,72c0.5-0.9,1-1.9,1.5-2.9l0,0l0.9-2l-7.5-3c-1.9,9-6.3,16.5-11.3,21.1l0.7,0.8
								c5.4-2.3,10.3-5.9,14.1-11.3c1.6,2.7,3.1,6,3.4,9C196.9,88.3,202.4,77.5,189.6,72z"/>
							<path class="st0" d="M201.9,24.7l-3.8,5h-24.8l0.5,2h5.4v19.8c-2.6,0.3-4.7,0.6-6.2,0.7l3.7,6.6l2.1-0.8l0,0
								c6.9-2.7,11.9-4.8,15.8-6.6v7.4h1.2c3.6,0,5.8-1.3,5.8-1.7V31.7h5.3c0.9,0,1.6-0.3,1.8-1.1C206.3,28.1,201.9,24.7,201.9,24.7
								z M194.7,49.5c-2.9,0.4-5.7,0.8-8.5,1.2v-5.2h8.5V49.5z M194.7,43.4h-8.5v-4.7h8.5V43.4z M194.7,36.7h-8.5v-5h8.5V36.7z"/>
							<g>
								<path class="st0" d="M215.8,34.8L215.8,34.8h15.3c0.3-0.7,0.7-1.5,0.9-2h-5.3h-3.9h-17.5l0.6,2H215.8z"/>
								<path class="st0" d="M225.1,43.7c1.9-2.3,3.5-4.7,4.8-7.4h-8.1c-0.6,1.5-1.4,3-2.2,4.4c-3.4-1.5-7.8-2.9-13.3-4l-0.4,0.8
									c4,2.4,7.6,5,10.6,7.8c-3.1,4-7.2,7.6-12.1,10.1l0.5,0.9c6-1.7,11-4.4,15.1-7.8c2.7,2.7,4.7,5.1,5.9,7.1
									C231.2,58.4,235.5,50.8,225.1,43.7z"/>
							</g>
						</g>
					</g>
					<g>
						<g>
							<polygon class="st0" points="23.4,6.3 23.7,7.1 35,7.1 35.4,6.7 34.1,5.4 33.2,6.3 29.8,6.3 29.8,4.7 33.9,4.7 34.3,4.3 
								33,3 32,3.9 29.8,3.9 29.8,3.2 30.4,2.9 30.4,2.5 28.5,1.9 28.5,3.9 24.5,3.9 24.9,4.7 28.5,4.7 28.5,6.3 							"/>
							<path class="st0" d="M35.7,16c-2.6,0.3-5,0.5-7.3,0.5s-3.7-0.2-4.3-0.7c-0.7-0.4-1-1.2-1-2.4v-3.1l0.6-0.6V9.3L22.4,8l-1,1
								h-2.5l0.4,0.8h2.3v4.5c-0.8,0.7-1.6,1.2-2.5,1.4h-0.2l1,2.1h0.5l0.3-0.9l1.9-2.1c0.1,0.6,0.3,1.1,0.7,1.6
								c0.5,0.6,1.4,1,2.7,1.2c1.3,0.2,4.2,0.2,8.9,0h0.2v-0.2c0-0.3,0.2-0.7,0.7-1.1l0.4-0.4L35.7,16z"/>
							<path class="st0" d="M21.1,4.2c0.2,0.5,0.4,0.9,0.6,1.2c0.1,0.1,0.3,0.3,0.6,0.3c0.1,0,0.3,0,0.4-0.1C23,5.5,23.3,5.1,23,4.3
								c-0.2-0.6-1.1-1.2-2.6-1.8h-0.1l-0.4,0.4L20.1,3C20.5,3.3,20.9,3.7,21.1,4.2z"/>
							<path class="st0" d="M35.1,12.4V12l-1.3-1l-0.1,0.1c-0.7,0.7-1.5,1.3-2.2,1.7c-0.5-0.2-1-0.3-1.7-0.5v-0.6l0.1-0.1h1.8v0.3
								l1.4-0.3V9.1l0.6-0.6l-1.3-1l-0.9,0.6h-4.6l-1.6-0.6v4.6l1.4-0.3v-0.3h1.5c-0.7,1.4-2,2.5-3.9,3.3L24,14.9l0.4,0.4h0.1
								c1.5-0.3,2.8-1,3.9-2v3.2l1.3-0.4v-3.2c1.1,0.4,2,1.1,2.7,1.9c0.9,1,1.5,1.3,1.9,1c0.2-0.1,0.3-0.3,0.3-0.5
								c0-0.3-0.1-0.6-0.5-0.9c-0.4-0.4-1-0.8-1.7-1.2c0.9-0.3,1.5-0.5,1.9-0.8C34.4,12.4,35.1,12.4,35.1,12.4z M26.6,10.7V8.9h5.1
								v1.8H26.6z"/>
						</g>
						<g>
							<path class="st0" d="M6.9,11.2c0-1.4-0.8-2.8-2.3-3.9c0.9-0.9,1.7-2,2.3-3.1h0.3l0.4-0.4L6.2,2.4L5.4,3.3h-2l-1.6-1v16.1
								l1.3-0.3V4h2.2c-0.2,1.1-0.7,2.2-1.4,3L3.8,7.3l0.1,0.1C5,8.7,5.6,9.9,5.6,10.9S5.3,12.6,4.8,13H3.3v0.5h0.2c0.7,0,1,0.3,1,1
								v0.2h0.2c0.6,0,1.1-0.2,1.6-0.6C6.7,13.6,6.9,12.7,6.9,11.2z"/>
							<path class="st0" d="M15.9,16.2L15,17.1h-2.8v-1.8h3.2l0.4-0.4l-1.3-1.3l-0.9,0.9h-1.3v-1.6H16l0.4-0.4l-1.3-1.3l-0.9,0.9
								h-1.9v-1.3l0.6-0.3v-0.4h1l0.2-0.2c0.5,0.2,1,0.4,1.5,0.6l0.2,0.1v-0.2c0-0.5,0.3-0.9,0.9-1.4l0.5-0.4l-0.6,0.1
								c-1.3,0.2-2.6-0.1-4-0.9c0.8-0.8,1.5-1.7,2-2.8l0.6-0.3V4.2l-1.3-1.3L13,3.8h-2.1C10.9,3.6,11,3.5,11,3.4l0.6-0.3V2.7l-1.9-1
								V2c0,0.9-0.4,1.9-1.3,3.2c-0.8,1.2-1.5,2-2,2.1L6.1,7.5l0.4,0.4h0.1C7.3,7.7,8.3,7,9.5,5.5c0.2,0.8,0.7,1.5,1.2,2.1
								C10.4,8,9.9,8.4,9.1,8.9c-0.8,0.6-1.5,1-2,1.1L7,10.1l0.4,0.4h0.1c0.2,0,0.5-0.1,0.7-0.2v0.2c-0.2,0.9-0.5,1.9-0.9,2.8
								c-0.4,1-0.7,1.6-1.1,2l-0.1,0.1l0.4,0.4l0.1-0.1c0.5-0.4,1-0.8,1.4-1.4c0.4-0.5,0.7-1,0.9-1.5h1.9v1.6H8.1l0.4,0.8h2.3V17
								H6.1l0.4,0.8h10.4l0.4-0.4L15.9,16.2z M9.9,5.1C10,5,10.2,4.8,10.3,4.7h2.5c-0.4,0.9-0.9,1.7-1.4,2.3
								C10.7,6.4,10.2,5.8,9.9,5.1z M11.6,8.5c0.3,0.3,0.7,0.5,1,0.7l-0.1,0.1h-2.2C10.9,9,11.4,8.7,11.6,8.5z M10.8,12.1H9.3
								c0.1-0.2,0.2-0.5,0.2-0.7h0.3V11l-1.6-0.7c0.3-0.1,0.6-0.3,0.9-0.4l0.2,0.2h1.5V12.1z"/>
						</g>
					</g>
				</g>
			</g>
		</g>
	</g>
</g>
</svg>
