<?xml version="1.0" encoding="utf-8"?>
<!-- Generator: Adobe Illustrator 27.1.1, SVG Export Plug-In . SVG Version: 6.00 Build 0)  -->
<svg version="1.1" id="圖層_1" xmlns="http://www.w3.org/2000/svg" xmlns:xlink="http://www.w3.org/1999/xlink" x="0px" y="0px"
	 viewBox="0 0 296 199" style="enable-background:new 0 0 296 199;" xml:space="preserve">
<style type="text/css">
	.st0{fill:#FFFFFF;}
	.st1{fill:#F6D16C;}
	.st2{fill:none;stroke:#FFFFFF;}
</style>
<g>
	<g>
		<g>
			<g>
				
					<rect x="143.6" y="145" transform="matrix(0.6635 -0.7482 0.7482 0.6635 -58.8449 159.6989)" class="st0" width="9.1" height="0.6"/>
				
					<rect x="147.8" y="140.7" transform="matrix(0.7479 -0.6638 0.6638 0.7479 -59.0907 134.9572)" class="st0" width="0.6" height="9.1"/>
			</g>
			<g>
				
					<image style="overflow:visible;opacity:0.5;" width="86" height="23" xlink:href="B9A7825C.png"  transform="matrix(1 0 0 1 55.5 134.5)">
				</image>
				<g>
					<g>
						<g>
							<path class="st0" d="M63.7,144.3c-0.1,0.2-0.3,0.3-0.8,0.3c-0.3,2-0.8,4-1.8,5.7c2.2,1.2,5.1,1.4,9.2,1.4c1,0,3.4,0,4.7,0
								v0.2c-0.9,0.2-1.4,1-1.4,1.9h-3.5c-4.6,0-7.7-0.5-9.9-2.4c-0.9,1.2-2.2,2.2-3.9,3l-0.1-0.2c1.4-1,2.4-2.3,3-3.8
								c-0.9-1.2-1.6-2.8-2.2-4.9l0.2-0.1c0.6,1.7,1.4,3,2.4,3.9c0.6-1.5,0.8-3.2,1-5h-1.2l-0.7,0.7l-1.9-1.3
								c0.2-0.2,0.4-0.3,0.7-0.4c0.7-1.3,1.7-3.5,2.2-4.9h-3.3l-0.2-0.6h3.5l1-1l2,1.8c-0.2,0.2-0.5,0.3-0.9,0.3
								c-0.5,1.2-1.5,3.4-2.3,4.8h0.9l1.1-1.1L63.7,144.3z M73.8,139.1c0,0,1.1,1.1,1.6,1.8c-0.1,0.2-0.3,0.3-0.5,0.3h-2.2v2.7
								c0,0.2-1.1,0.5-1.8,0.5h-0.3v-0.7h-1.8v2h1.9l1.1-1.5c0,0,1.3,1,2,1.7c-0.1,0.2-0.2,0.3-0.5,0.3h-4.5v2.1h2.4l1.3-1.6
								c0,0,1.4,1.1,2.3,1.8c-0.1,0.2-0.3,0.3-0.6,0.3h-5.4v1.8c0,0.2-0.9,0.6-1.8,0.6h-0.4v-2.4h-4.1l-0.2-0.6h4.2v-2.1h-3.1
								l-0.2-0.6h3.3v-2h-2.9l-0.2-0.6h3.1v-2h-4.4l-0.2-0.6h4.5v-2h-3.1l-0.2-0.6h3.3v-2.2l3,0.3c0,0.3-0.2,0.5-0.7,0.6v1.3h1.6
								l1-1.1l2.1,1.6c-0.1,0.1-0.4,0.3-0.8,0.4v1.6h0.1L73.8,139.1z M68.8,140.6h1.8v-2h-1.8V140.6z M70.5,141.2h-1.8v2h1.8V141.2z
								"/>
						</g>
						<g>
							<path class="st0" d="M96,137.7c-0.1,0.2-0.4,0.3-0.8,0.4v15.5c0,0.2-1,0.7-1.9,0.7H93V153H80.6v0.7c0,0.3-0.9,0.8-1.8,0.8
								h-0.4v-18.3l2.3,1h12l1.1-1.2L96,137.7z M93,152.4v-14.6H80.6v14.6H93z M86.9,147.7c-0.9,0.6-2.3,1.4-4.2,2.4
								c-0.1,0.2-0.3,0.4-0.5,0.5l-1.1-2.3c1.1-0.1,3.4-0.5,5.8-0.9L86.9,147.7z M92.7,143.1c-0.1,0.2-0.4,0.4-0.8,0.3
								c-0.6,1.6-1.3,2.9-2.1,4.1c0.3,0.6,0.6,1.1,1.1,1.5c0.2,0.3,0.3,0.2,0.5-0.1c0.2-0.4,0.6-1.3,0.8-2l0.2,0l-0.3,2.7
								c0.5,0.9,0.6,1.4,0.4,1.7c-0.7,0.7-2,0.1-2.6-0.6c-0.5-0.6-1-1.2-1.3-1.8c-1.3,1.3-2.8,2.1-4.5,2.8l-0.2-0.2
								c1.5-1,2.9-2.3,4.1-3.9c-0.5-1.3-0.8-2.8-1-4.4c-0.1,0.1-0.3,0.2-0.6,0.3v2.9c0,0.1-0.8,0.5-1.4,0.5h-0.3v-0.6h-1.2v0.5
								c0,0.1-0.7,0.5-1.4,0.5h-0.2v-5.2l1.7,0.7h1l0.8-0.8l1.6,1.2c-0.1-0.6-0.1-1.2-0.2-1.8h-5.4l-0.2-0.6h5.5
								c0-0.9-0.1-1.7-0.1-2.6l2.6,0.5c-0.1,0.2-0.2,0.5-0.7,0.5c0,0.6,0,1.1,0,1.7H90l0.4-0.6l-0.1,0c-0.2-0.7-0.8-1.5-1.2-1.9
								l0.2-0.1c2.6,0.1,2.9,1.4,2.3,2c0.3,0.3,0.8,0.6,1.1,0.9c-0.1,0.2-0.3,0.3-0.5,0.3h-3.6c0.1,1.4,0.2,2.8,0.5,4.1
								c0.5-1.1,0.9-2.2,1.2-3.4L92.7,143.1z M84.6,145.8v-2.4h-1.2v2.4H84.6z"/>
						</g>
						<g>
							<path class="st0" d="M114.7,150.5c0,0,1.6,1.2,2.6,2.1c-0.1,0.2-0.3,0.3-0.6,0.3H98.8l-0.2-0.6h8v-12.8h-6.5l-0.2-0.6H112
								l1.4-1.8c0,0,1.6,1.2,2.6,2.1c-0.1,0.2-0.3,0.3-0.6,0.3h-6.3v12.8h4.1L114.7,150.5z"/>
						</g>
						<g>
							<path class="st0" d="M136.5,151.7c0,0,1.4,1.1,2.2,1.9c-0.1,0.2-0.3,0.3-0.6,0.3h-11.8l-0.2-0.6h5v-3.6h-3.9l-0.2-0.6h4v-2.7
								c-1.2,0.1-2.4,0.2-3.6,0.2c-0.1,0.9-1,1.4-1.9,0.6c-0.1-0.9-0.5-2-1-2.9v9.5c0,0.1-0.8,0.7-1.9,0.7h-0.4v-7.3
								c-0.8,1.2-1.8,2.2-2.9,3.1l-0.2-0.2c1.4-2.1,2.3-4.9,2.9-7.6h-2.5l-0.2-0.6h2.9v-3c-1,0.1-1.9,0.3-2.9,0.3l-0.1-0.2
								c2-0.8,4.5-2.2,5.7-3.2l2.6,2.2c-0.3,0.2-0.7,0.3-1.3,0.1c-0.5,0.2-1.1,0.3-1.8,0.5v3.4h0.2l1-1.4c0,0,1.1,1,1.8,1.7
								c-0.1,0.2-0.3,0.3-0.5,0.3h-2.5v1.2c2,0.7,2.7,1.7,2.8,2.5c2.4-0.7,5.4-1.8,7.1-2.7h-0.1v-0.9h-4.5v0.5c0,0.2-1,0.7-1.8,0.7
								H128v-7.4l2.3,0.9h4.2l1-1.2l2.2,1.7c-0.1,0.2-0.4,0.3-0.8,0.4v4.6c0,0.1-0.9,0.5-1.6,0.6l2.2,2.1c-0.2,0.2-0.7,0.2-1.3,0
								c-0.8,0.2-1.7,0.3-2.7,0.4v3h1.3l1.2-1.5c0,0,1.3,1.1,2.1,1.8c0,0.2-0.3,0.3-0.5,0.3h-4v3.6h1.8L136.5,151.7z M134.6,142.3
								v-4.2h-4.5v4.2H134.6z"/>
						</g>
					</g>
				</g>
			</g>
			<g>
				
					<image style="overflow:visible;opacity:0.5;" width="86" height="22" xlink:href="B9A7825D.png"  transform="matrix(1 0 0 1 156.5 135.5)">
				</image>
				<g>
					<g>
						<g>
							<path class="st0" d="M162.3,149.2c0.8-0.2,1.6-0.5,2.4-0.8l0.1,0.2c-1.1,0.9-2.7,2.2-5.2,3.8c0,0.3-0.2,0.5-0.5,0.6l-1.3-2.6
								c0.5-0.1,1.3-0.3,2.2-0.6v-5.6h-1.8l-0.2-0.6h1.9v-5.1h-1.9L158,138h3.9l1.1-1.5c0,0,1.3,1,2,1.8c-0.1,0.2-0.3,0.3-0.6,0.3
								h-2.2v5.1l0.9-1.4c0,0,1,1,1.5,1.7c0,0.2-0.2,0.3-0.5,0.3h-1.9V149.2z M171.3,143.8c-0.6,0.7-1.3,1.5-2,2.1h4.1l0.9-1.1
								l2.1,1.5c-0.1,0.2-0.4,0.3-0.8,0.4v5.2c0,1.5-0.2,2.3-2.3,2.5c0-0.7,0-1.2-0.2-1.5c-0.1-0.3-0.3-0.5-0.8-0.6v0.3
								c0,0.1-0.5,0.4-1.4,0.4h-0.3v-6.5h-1.1v6.6c0,0.1-0.5,0.4-1.3,0.4h-0.3v-7H167v7.3c0,0.2-0.9,0.7-1.7,0.7H165v-9.4l2.2,0.9
								h1.2c0.2-0.7,0.3-1.5,0.4-2.1h-4.1l-0.2-0.6h8.9l0.8-1c-0.2,0-0.4,0-0.5,0h-0.3v-0.6h-6l-0.6,0.9l-2-1.1
								c0.1-0.1,0.3-0.3,0.4-0.4v-3.8l2.8,0.3c0,0.2-0.2,0.4-0.8,0.5v3.1h2.1V136l2.7,0.2c0,0.3-0.2,0.4-0.7,0.5v4.3h2.1v-3.9
								l2.8,0.2c0,0.3-0.2,0.5-0.8,0.6v3.8c0,0.1-0.2,0.2-0.5,0.3c0.4,0.3,1.2,0.9,1.7,1.4c-0.1,0.2-0.3,0.3-0.5,0.3H171.3z
								 M172.5,146.5v5.5c0.1,0,0.7,0.1,0.9,0.1c0.2,0,0.3-0.1,0.3-0.3v-5.3H172.5z"/>
						</g>
						<g>
							<path class="st0" d="M194.9,141.4c0,0,1.6,1.2,2.6,2.1c-0.1,0.2-0.3,0.3-0.6,0.3h-7.4v9.1h3l1.4-1.8c0,0,1.6,1.2,2.6,2.1
								c-0.1,0.2-0.3,0.3-0.6,0.3h-15.6l-0.2-0.6h6.8v-9.1h-7.7l-0.2-0.6h7.8v-7l3.3,0.3c0,0.3-0.2,0.5-0.7,0.6v6.1h4L194.9,141.4z"
								/>
						</g>
						<g>
							<path class="st0" d="M200.6,148.4l1.7-0.2c0.1,0.9,0.3,1.6,0.6,2.2c0.3,0.5,0.8,0.9,1.4,1.2c0.6,0.3,1.3,0.5,2,0.5
								c1.1,0,1.9-0.3,2.5-0.8c0.6-0.5,0.9-1.2,0.9-2.1c0-0.5-0.1-0.9-0.3-1.3c-0.2-0.4-0.5-0.7-1-0.9c-0.4-0.2-1.4-0.6-2.9-1
								c-1.3-0.4-2.2-0.8-2.8-1.2c-0.6-0.4-1-0.9-1.3-1.5c-0.3-0.6-0.5-1.3-0.5-2c0-1.4,0.4-2.5,1.3-3.3c0.9-0.9,2.1-1.3,3.6-1.3
								c1,0,1.9,0.2,2.7,0.6c0.8,0.4,1.4,1,1.8,1.7c0.4,0.8,0.7,1.6,0.7,2.7l-1.8,0.2c-0.1-1.1-0.4-1.9-1-2.4
								c-0.6-0.5-1.4-0.8-2.4-0.8c-1,0-1.8,0.2-2.4,0.7c-0.5,0.5-0.8,1.1-0.8,1.8c0,0.7,0.2,1.2,0.6,1.6c0.4,0.4,1.3,0.8,2.7,1.1
								c1.4,0.4,2.3,0.7,2.9,1c0.8,0.4,1.5,1,1.9,1.7c0.4,0.7,0.6,1.5,0.6,2.5c0,1-0.2,1.8-0.7,2.6c-0.5,0.8-1.1,1.4-1.8,1.8
								c-0.8,0.4-1.7,0.6-2.8,0.6c-1.7,0-3.1-0.5-4.1-1.5C201.2,151.5,200.7,150.1,200.6,148.4z"/>
						</g>
						<g>
							<path class="st0" d="M220.7,147.2v-2l5.8,0v6.3c-0.9,0.9-1.8,1.5-2.8,2c-1,0.4-1.9,0.7-2.9,0.7c-1.3,0-2.5-0.3-3.6-1
								c-1.1-0.7-1.9-1.7-2.5-3c-0.6-1.3-0.9-2.8-0.9-4.7c0-1.8,0.3-3.4,0.9-4.8c0.6-1.4,1.4-2.4,2.4-3c1-0.6,2.2-1,3.6-1
								c1,0,1.9,0.2,2.7,0.6c0.8,0.4,1.4,0.9,1.9,1.6c0.5,0.7,0.9,1.6,1.1,2.8l-1.6,0.6c-0.2-0.9-0.5-1.7-0.8-2.1
								c-0.3-0.5-0.8-0.8-1.3-1.1c-0.6-0.3-1.2-0.4-1.9-0.4c-1,0-1.9,0.2-2.6,0.7c-0.7,0.5-1.3,1.2-1.7,2.3c-0.4,1-0.7,2.3-0.7,3.8
								c0,2.3,0.5,3.9,1.4,5.1c0.9,1.1,2.2,1.7,3.7,1.7c0.7,0,1.5-0.2,2.2-0.5c0.8-0.3,1.4-0.8,1.8-1.2v-3.1H220.7z"/>
						</g>
						<g>
							<path class="st0" d="M228.7,148.4l1.7-0.2c0.1,0.9,0.3,1.6,0.6,2.2c0.3,0.5,0.8,0.9,1.4,1.2c0.6,0.3,1.3,0.5,2,0.5
								c1.1,0,1.9-0.3,2.5-0.8c0.6-0.5,0.9-1.2,0.9-2.1c0-0.5-0.1-0.9-0.3-1.3c-0.2-0.4-0.5-0.7-1-0.9c-0.4-0.2-1.4-0.6-2.9-1
								c-1.3-0.4-2.2-0.8-2.8-1.2c-0.6-0.4-1-0.9-1.3-1.5c-0.3-0.6-0.5-1.3-0.5-2c0-1.4,0.4-2.5,1.3-3.3c0.9-0.9,2.1-1.3,3.6-1.3
								c1,0,1.9,0.2,2.7,0.6c0.8,0.4,1.4,1,1.8,1.7c0.4,0.8,0.7,1.6,0.7,2.7l-1.8,0.2c-0.1-1.1-0.4-1.9-1-2.4
								c-0.6-0.5-1.4-0.8-2.4-0.8c-1,0-1.8,0.2-2.4,0.7c-0.5,0.5-0.8,1.1-0.8,1.8c0,0.7,0.2,1.2,0.6,1.6c0.4,0.4,1.3,0.8,2.7,1.1
								c1.4,0.4,2.3,0.7,2.9,1c0.8,0.4,1.5,1,1.9,1.7c0.4,0.7,0.6,1.5,0.6,2.5c0,1-0.2,1.8-0.7,2.6c-0.5,0.8-1.1,1.4-1.8,1.8
								c-0.8,0.4-1.7,0.6-2.8,0.6c-1.7,0-3.1-0.5-4.1-1.5C229.3,151.5,228.7,150.1,228.7,148.4z"/>
						</g>
					</g>
				</g>
			</g>
		</g>
		<g>
			<g>
				
					<image style="overflow:visible;opacity:0.5;" width="147" height="16" xlink:href="B9A7825B.png"  transform="matrix(1 0 0 1 75.1 163.1)">
				</image>
				<g>
					<g>
						<g>
							<path class="st0" d="M81.8,173.3l0.2,0.9c-2,0.9-4.2,1.8-5.9,2.4l-0.5-1c1-0.4,2.5-0.9,4-1.5v-5.7H76v-1h3.6v-3.3h1.1v9.6
								L81.8,173.3z M86.5,175.2c0.6,0,0.7-0.7,0.8-3.4c0.3,0.2,0.7,0.4,1,0.5c-0.1,2.9-0.4,3.9-1.7,3.9h-1.9
								c-1.2,0-1.6-0.4-1.6-1.9v-10.2h1.1v3.3h4v1h-4v5.9c0,0.7,0.1,0.8,0.6,0.8H86.5z"/>
						</g>
						<g>
							<path class="st0" d="M98.6,169.4v5.6h5v1H92.5v-1h4.9v-5.6h-5.7v-1h5.7v-4.4h1.1v4.4h5.8v1H98.6z"/>
						</g>
						<g>
							<path class="st0" d="M112.2,172.3c-0.2-0.5-0.8-1.4-1.3-2.1v6.6h-1v-6.3c-0.6,1.4-1.3,2.8-2.1,3.7c-0.1-0.3-0.4-0.7-0.5-0.9
								c0.9-1,1.9-2.8,2.4-4.5h-2.2v-1h2.4v-2.1c-0.7,0.1-1.3,0.2-1.9,0.3c-0.1-0.2-0.2-0.6-0.3-0.8c1.6-0.3,3.4-0.7,4.5-1.1
								l0.6,0.8c-0.5,0.2-1.2,0.4-1.9,0.6v2.4h2.1v1h-2.1v0.3c0.4,0.5,1.7,2.1,2,2.4L112.2,172.3z M118.6,173.1v3.7h-1v-3.5L113,174
								l-0.2-1l4.8-0.8v-8.4h1v8.2l1.7-0.3l0.2,1L118.6,173.1z M115.9,171.2c-0.5-0.6-1.6-1.5-2.5-2.1l0.7-0.6c0.9,0.6,2,1.4,2.5,2
								L115.9,171.2z M116.2,167.5c-0.4-0.6-1.4-1.4-2.3-2l0.7-0.6c0.9,0.5,1.8,1.3,2.3,1.9L116.2,167.5z"/>
						</g>
						<g>
							<path class="st0" d="M130.4,166.8c-0.2,0.5-0.3,0.9-0.5,1.3h4.5v8.7h-1.1V176h-7.2v0.8h-1v-8.7h3.7c0.1-0.4,0.3-0.9,0.3-1.3
								h-5.7v-1h3.7c-0.3-0.5-0.8-1.1-1.2-1.6l0.9-0.4c0.5,0.5,1.1,1.2,1.3,1.7l-0.6,0.3h3.7c0.5-0.6,1-1.4,1.3-2l1.1,0.3
								c-0.4,0.6-0.8,1.2-1.3,1.7h3.6v1H130.4z M133.4,169h-7.2v1.4h7.2V169z M133.4,171.3h-7.2v1.4h7.2V171.3z M133.4,175.1v-1.5
								h-7.2v1.5H133.4z"/>
						</g>
						<g>
							<path class="st0" d="M142,171.3v4.3c0,0.6-0.1,0.9-0.5,1c-0.3,0.2-0.9,0.2-1.8,0.2c0-0.2-0.2-0.7-0.3-1c0.6,0,1.2,0,1.3,0
								c0.2,0,0.2,0,0.2-0.3v-4l-1.7,0.6l-0.3-1c0.5-0.1,1.2-0.4,2-0.6v-2.9h-1.8v-1h1.8v-2.8h1v2.8h1.5v1H142v2.6
								c0.5-0.1,0.9-0.3,1.4-0.5l0.1,1L142,171.3z M146,163.9h0.9v5.9c0,2.8-0.3,5.3-2.9,7c-0.2-0.2-0.5-0.5-0.7-0.7
								c1.3-0.9,2-1.9,2.4-3.1c-0.8,0.3-1.6,0.6-2.3,0.8l-0.4-0.9c0.8-0.2,1.8-0.5,2.9-0.9c0.1-0.6,0.1-1.2,0.1-1.8h-2.2v-0.9h2.2
								v-2h-2.3v-1h2.3V163.9z M152.1,173.3h-2.7v3.5h-1v-12.9h1v2.4h2.5v1h-2.5v2h2.3v0.9h-2.3v2.1h2.7V173.3z"/>
						</g>
						<g>
							<path class="st0" d="M164.1,174.2c-1.4,0.4-2.9,0.8-4.1,1.1l-0.2-1c0.5-0.1,1.1-0.3,1.8-0.4v-3.7h-1.5v-1h1.5v-3.2h-1.6v-1
								h3.9v1h-1.4v3.2h1.2v1h-1.2v3.5l1.3-0.3L164.1,174.2z M172.9,172.9v0.9h-4.4c-0.5,1.1-1.6,2.2-4,3c-0.1-0.2-0.4-0.6-0.6-0.8
								c2.1-0.6,3.1-1.4,3.6-2.3h-3.2v-0.9h3.5c0.1-0.3,0.1-0.6,0.1-0.9v-0.1H165v-0.8h2.8v-1h-3.3v-0.8h1.9c-0.1-0.4-0.4-1-0.6-1.4
								l0.8-0.2c0.3,0.5,0.5,1.2,0.6,1.6l-0.2,0.1h2.3c0.3-0.5,0.6-1.2,0.7-1.7l1,0.3c-0.2,0.5-0.5,1-0.7,1.4h2v0.8h-3.6v1h3.2v0.8
								h-3.2v0.1c0,0.3,0,0.6-0.1,0.9H172.9z M172.7,167.5h-8.4v-0.9h2.6v-2.8h0.9v2.8h1.3v-2.8h0.9v2.8h2.7V167.5z M165.6,166.5
								c-0.1-0.5-0.5-1.3-0.9-1.9l0.7-0.3c0.4,0.6,0.8,1.4,1,1.9L165.6,166.5z M169,174.1c1.3,0.6,3,1.5,3.8,2.1l-0.6,0.7
								c-0.8-0.6-2.5-1.6-3.8-2.2L169,174.1z M172.4,164.6c-0.4,0.7-0.8,1.4-1.2,1.9l-0.7-0.3c0.3-0.5,0.8-1.4,1-1.9L172.4,164.6z"
								/>
						</g>
						<g>
							<path class="st0" d="M188.2,164.5v12.3h-1v-0.6h-9.7v0.6h-1v-12.3H188.2z M187.1,175.3v-9.8h-9.7v9.8H187.1z M182.7,173.5
								c0,0.2,0,0.5,0,0.7c-2.6,0.7-3,0.8-3.2,1c0-0.2-0.2-0.5-0.3-0.7c0.2-0.1,0.6-0.2,0.6-0.8v-1c-0.5,0.2-1,0.4-1.5,0.5
								c-0.1-0.1-0.4-0.5-0.5-0.6c1.1-0.3,2.4-0.7,3.2-1.1h-2v-2.1h6.6v2.1h-3.4c-0.4,0.3-1,0.6-1.6,0.9v1.7L182.7,173.5z
								 M186.4,168.7h-8.3v-0.7h3.7v-0.9h-2.8v-0.7h2.8v-0.8h1v0.8h2.9v0.7h-2.9v0.9h3.7V168.7z M179.9,170.8h4.7v-1h-4.7V170.8z
								 M186.4,172.1c-0.5,0.3-1,0.7-1.6,0.9c0.6,0.4,1.2,0.9,1.6,1.2l-0.7,0.5c-0.8-0.7-2.5-1.9-3.8-2.7l0.7-0.4
								c0.5,0.3,1.1,0.6,1.6,1c0.5-0.3,1.1-0.7,1.5-1L186.4,172.1z"/>
						</g>
						<g>
							<path class="st0" d="M196.5,164.4c-0.4,1-0.9,1.9-1.5,2.9v9.6h-1.1v-8.1c-0.6,0.8-1.2,1.5-1.9,2.1c-0.1-0.3-0.4-0.8-0.6-1
								c1.6-1.4,3.2-3.5,4.1-5.8L196.5,164.4z M200.3,169.1c0.5,3.8,1.4,6.3,2.9,6.4c0.4,0,0.6-0.8,0.8-2.4c0.2,0.2,0.7,0.5,0.9,0.6
								c-0.3,2.4-0.9,3.2-1.6,3.1c-2.3-0.2-3.5-3.1-4-7.5l-3.4,0.4l-0.1-1l3.4-0.4c-0.1-1.3-0.2-2.7-0.3-4.2h1
								c0,1.4,0.1,2.8,0.3,4.1l4.2-0.5l0.1,1L200.3,169.1z M203.5,167c-0.5-0.6-1.4-1.6-2.3-2.3l0.8-0.5c0.9,0.7,1.9,1.6,2.3,2.3
								L203.5,167z"/>
						</g>
						<g>
							<path class="st0" d="M220.4,166v0.9h-12.6V166h6.3c-0.3-0.5-0.8-1.3-1.3-1.8l1-0.3c0.6,0.6,1.2,1.4,1.4,2l-0.5,0.2H220.4z
								 M209.7,172.4h8.8v4.4h-1.1v-0.6h-6.7v0.6h-1V172.4z M218.3,168.9h-8.5v-0.9h8.5V168.9z M209.8,170.2h8.5v0.9h-8.5V170.2z
								 M210.7,173.3v2h6.7v-2H210.7z"/>
						</g>
					</g>
				</g>
			</g>
		</g>
	</g>
	<g>
		
			<image style="overflow:visible;opacity:0.5;" width="287" height="53" xlink:href="B9A78264.png"  transform="matrix(1 0 0 1 6.1 32.1)">
		</image>
		<g>
			<g>
				<polygon class="st1" points="78.5,44.2 78.5,47.7 65.5,47.7 66.7,50.2 95.6,50.2 96.9,48.9 93.2,45.3 90.7,47.7 82.5,47.7 
					82.5,44.2 92.6,44.2 93.9,43 90.2,39.3 87.8,41.8 82.5,41.8 82.5,40.4 84,39.6 84,38.2 78.5,36.5 78.5,41.8 68.5,41.8 
					69.7,44.2 				"/>
				<path class="st1" d="M80.7,73.4l1.8-0.5v-8.1c2.5,1.1,4.6,2.6,6.4,4.5c2.4,2.6,4.1,3.4,5.3,2.5c0.5-0.4,0.8-0.8,0.8-1.4
					c0.1-0.8-0.4-1.6-1.3-2.5c-1-1-2.3-1.9-3.9-2.7c1.9-0.6,3.3-1.2,4.3-1.8h1.9V62l-3.6-2.7l-0.4,0.4c-0.4,0.4-0.8,0.8-1.2,1.1V55
					l1.7-1.8l-3.7-2.7l-2.4,1.6H74.6l-4.3-1.7v12.3l4-1v-0.6h3.2c-1.9,3.3-5.1,5.9-9.7,7.8l-0.9,0.4l1.5,1.5l0.4-0.1
					c3.7-0.8,7-2.4,9.8-4.8v7.4c-5.5,0-9.2-0.6-10.8-1.7c-1.6-1.1-2.4-3-2.4-5.8v-7.9l1.5-1.4v-1.1l-3.5-3.5l-2.5,2.4h-6.6l1.2,2.5
					h5.8v11.1c-1.9,1.8-4,3-6.1,3.4l-0.8,0.2l2.7,5.9h1.4l0.8-2.5l4.5-5c0.3,1.3,0.9,2.6,1.8,3.6c1.3,1.5,3.7,2.5,7,3.1
					c3.2,0.5,10.9,0.5,22.7,0l0.7,0V76c0-0.8,0.6-1.7,1.7-2.7l1.6-1.5l-2.2,0.3C91.3,72.9,85.8,73.3,80.7,73.4z M86.7,54.6v4.1H74.3
					v-4.1H86.7z M82.5,62.7v-1.3l0.1-0.2h4.1v0.9l3.6-0.9c-1.3,1.1-2.6,2-3.9,2.7C85.3,63.5,83.9,63.1,82.5,62.7z"/>
				<path class="st1" d="M57.2,39.8c1.3,0.8,2.2,1.8,2.6,2.9c0.5,1.3,1,2.3,1.5,3c0.4,0.6,1,1,1.7,1c0.4,0,0.8-0.1,1.2-0.3
					c0.7-0.3,1.8-1.3,1-3.6c-0.5-1.6-2.8-3.2-6.9-4.7L58,38l-0.7,0.6l0,0l0,0l-0.7,0.7L57.2,39.8z"/>
				<path class="st1" d="M38.4,58.1v-1h2.4l0.4-0.4c1.4,0.7,2.7,1.1,3.8,1.5l0.8,0.2v-0.8c0-1.2,0.8-2.3,2.3-3.4l2-1.4l-2.5,0.3
					c-3.3,0.4-6.6-0.3-9.9-2.1c2.1-2,3.7-4.3,4.9-7.1l1.7-0.8v-1.2l-3.5-3.5l-2.4,2.5h-5.1c0.2-0.3,0.3-0.6,0.4-0.8l1.6-0.8v-1.4
					l-5.5-2.7v1c0,2.2-1.1,4.9-3.3,8.1c-2.2,3.2-3.9,5-5.2,5.4l-1,0.3l1.5,1.5l0.4-0.1c1.9-0.5,4.4-2.3,7.4-5.6
					c0.6,1.8,1.6,3.4,2.9,4.9c-0.8,0.7-2.1,1.7-3.9,2.9c-2.1,1.5-3.8,2.5-5,2.9l-0.9,0.3c-0.8-2.6-2.6-5.1-5.4-7.3
					c2.3-2.4,4.2-5,5.7-7.8h0.6l1.2-1.2l-3.7-3.6l-2.4,2.4h-5.1l-4.3-2.6v41.9l3.9-1V65.8h0.5c1.6,0,2.3,0.7,2.3,2.3v0.6h0.6
					c1.5,0,2.9-0.5,4.3-1.6c1.4-1.1,2.1-3.5,2.1-7.5c0-0.9-0.1-1.8-0.4-2.7l1.3,1.3l0.4-0.1c0.5-0.1,1-0.3,1.6-0.5l0,0.1
					c-0.5,2.3-1.2,4.8-2.2,7.3c-1,2.4-1.9,4.1-2.8,5l-0.4,0.5l1.3,1.3l0.4-0.3c1.4-0.9,2.6-2.1,3.6-3.4l1,2.1h5.9v4.3H20.5l1.2,2.4
					h26.9l1.2-1.2l-3.7-3.5l-2.4,2.3h-7v-4.3h8L46,69l-3.6-3.6L40,67.8h-3.2v-3.6h9.6l1.2-1.2l-3.6-3.7l-2.5,2.5h-4.6v-3L38.4,58.1z
					 M13.4,41.7h5.1c-0.6,2.8-1.8,5.3-3.5,7.5l-0.3,0.4l0.3,0.4c2.9,3.3,4.4,6.4,4.4,9c0,2.4-0.7,4.2-2,5.1h-3.9V41.7z M31,44.2
					c0.3-0.3,0.5-0.6,0.8-1H38c-0.9,2.1-2.1,3.9-3.4,5.5C33,47.4,31.8,45.8,31,44.2z M35.1,53c0.7,0.5,1.5,1.1,2.3,1.6l-0.1,0.1
					h-4.9C33.7,54,34.6,53.4,35.1,53z M28.7,56.6l0.2,0.4h3.9v4.7h-3.4c0.2-0.5,0.3-0.9,0.5-1.4h0.9V59L27,57.4
					C27.5,57.2,28.1,56.9,28.7,56.6z M28.4,64.2h4.5v3.6h-6.6C27.1,66.6,27.8,65.4,28.4,64.2z"/>
				<path class="st1" d="M119.8,48.9l-1.1,0.1l0,0.3c0.1,6.1-2,11.5-4.1,13.5c-1.2,1.5-1.4,3.2-0.4,4.6c0.6,0.6,1.4,1,2.2,1
					c0.1,0,0.2,0,0.3,0c1.2-0.1,2.3-0.9,3-2.1c1.3-1.9,3.8-7.5,0.1-17.2L119.8,48.9z"/>
				<path class="st1" d="M136.3,49l0,0.1l0.1,0.1c0.8,0.6,1.6,1,2.4,1c0.4,0,0.8-0.1,1.1-0.3c1.2-0.6,1.8-2,1.7-3.7
					c-0.2-3.2-3.1-7.5-10.4-10.1l-0.2-0.1l-0.8,0.6l0.2,0.3C132.5,39.6,135.4,44.5,136.3,49z"/>
				<path class="st1" d="M142.3,51.3l-0.2-0.1l-0.6,0.9l0.2,0.2c4.9,4.3,7.6,11.5,8.5,14.4l0,0.1l0,0c0.7,0.6,1.5,1,2.2,1
					c0.4,0,0.7-0.1,1-0.2c1.1-0.6,1.8-2.1,1.7-3.9C154.9,59.7,151.4,54.4,142.3,51.3z"/>
				<path class="st1" d="M184.1,39.5l1.2-1.5l-7.6-2.1l-0.1,0.3c-1.7,6.3-9.4,16.1-16.8,21.4l-0.2,0.2l0.5,1l0.3-0.1
					c8.5-3.8,17.2-11.1,21.5-17.8c3.1,8.1,9.6,13.2,14.5,16l0.4,0.2l0.1-0.4c0.4-2,1.8-4.4,4-5l0.2-0.1l0.1-1.1l-0.2-0.1
					C193,47.5,187.2,43.9,184.1,39.5z"/>
				<path class="st1" d="M147.1,69.3l-1.5-7h-1l-0.1,0.2c-1.1,4-1.8,6.1-2.2,6.9c-0.3,0.4-0.5,0.6-1.2,0.7c-0.7,0-2.2,0.1-4.2,0.1
					h-5.1c-2,0-2.1-0.4-2.1-1.2V45.6l0,0l-5.6-2.1v27.2c0,4.3,1.6,5.6,7,5.6h5.4c1.9,0,3.5-0.1,4.8-0.2c4.1-0.3,5.9-1.2,6.3-2.9
					c0.1-0.4,0.1-0.9,0-1.4L147.1,69.3z"/>
				<path class="st1" d="M194.9,71.6l-0.3-0.2l-2.9,4H185v1.9h13.7c0.8,0,1.3-0.4,1.4-1l0-0.2l-0.1-0.1
					C198.2,74.3,195,71.7,194.9,71.6z"/>
				<polygon class="st1" points="177.6,57 168.7,57 169.2,58.9 177.6,58.9 				"/>
				<path class="st1" d="M193,58.9c0.8,0,1.3-0.4,1.4-1l0-0.2l-0.1-0.1c-1.7-1.6-4.6-3.9-4.7-3.9l-0.3-0.2l-2.6,3.5h-8.5v18.4h-14.5
					l0.5,1.9h19.9l0-18.4H193z"/>
				<path class="st1" d="M241.1,64.9c0.2-0.4,0.4-0.9,0.6-1.4l0.7-1.7l-5.5-1.8l-0.1,0.4c-0.8,4.9-2.6,9.5-4.9,12.8V60.4
					c3.2-0.2,6.1-0.6,8.9-0.9l3.2-0.6l-4.2-4.6l-0.2,0.1c-3.1,1-7.6,2.1-12.4,3.1c0.9-0.3,1.6-0.7,1.6-1v-16h3.1
					c0.8,0,1.3-0.4,1.4-1l0-0.2l-0.1-0.1c-1.7-1.6-4.5-3.8-4.6-3.8l-0.2-0.2l-2.6,3.3h-16.2l0.5,1.9h3.4v12.1
					c-0.6,0.1-1.2,0.1-1.8,0.2l-0.1,0c-0.7,0.1-1.3,0.2-1.9,0.2l-0.5,0l2.8,4.9l1.6-0.6c4.5-1.7,7.7-3.1,9.8-4v4.5h1.1
					c0.4,0,0.7,0,1.1-0.1c-4,0.8-8,1.4-11.6,1.9l-0.3,0L214,61l0.3,0c0.9,0,1.8,0,2.7,0c-1.2,5.3-3.9,10.1-7.2,13.1l-0.2,0.2
					l0.8,0.9l0.2-0.1c3.6-1.5,6.6-3.9,8.9-7c1,1.8,1.7,3.7,2,5.2l0,0.1l0.1,0.1c1,0.8,2,1,3,0.6c0.9-0.4,1.5-1.5,1.5-2.7
					c-0.1-2.2-1.9-4.3-4.9-5.6c0.3-0.5,0.6-1,0.8-1.5l0.7-1.7l-4.1-1.6c2.7,0,5.3-0.1,7.9-0.3v17.8h1.2c2.5,0,4.4-1.2,4.4-1.8v-2
					l0.1,0.1l0.2-0.1c3.1-1.7,5.7-4.3,7.7-7.8c1,3.8,2.6,6.4,4.8,8.2l0.4,0.3l0.1-0.5c0.1-0.2,1.1-1.7,2.9-4l0.8-0.8l-0.8-0.3
					C245.3,69.1,242.7,67.2,241.1,64.9z M223.6,51.3l-1.3,0.2c-1.2,0.2-2.4,0.3-3.5,0.5v-2.7h4.8V51.3z M223.6,47.3h-4.8V45h4.8
					V47.3z M223.6,43h-4.8v-2.6h4.8V43z"/>
				<path class="st1" d="M248.5,40.5l-18.2,0l0.6,1.9h6.7l10.1,0l0.1-0.2c0.2-0.4,0.4-0.9,0.6-1.3L248.5,40.5z"/>
				<path class="st1" d="M230.2,55l-0.3,0.1l0.6,1.1l0.3-0.1c3.6-1.1,6.9-2.7,9.6-4.8c1.6,1.5,2.8,3,3.6,4.3l0.1,0.1l0,0
					c1.4,0.8,2.8,0.5,3.5-0.6c1-1.6,0.3-4.6-3.5-7.3c1.2-1.4,2.2-2.9,2.9-4.5l0.2-0.5h-5.9l-0.1,0.2c-0.4,0.9-0.8,1.7-1.3,2.5
					c-2.4-1-5.2-1.9-8.4-2.5l-0.2,0l-0.5,1l0.2,0.1c2.3,1.4,4.6,3,6.6,4.7C235.7,51.4,233.1,53.5,230.2,55z"/>
				<path class="st1" d="M256.9,69.7c-0.1,0.2-0.2,0.3-0.4,0.3c-0.3,0-0.5-0.1-0.5-0.8v-2.3h0.9l0-0.2h-0.9v-1.2l-0.7,0.1v1.1h-0.4
					l0,0.2h0.4v2.3c0,0.9,0.3,1.2,1,1.2c0.5,0,0.8-0.3,0.9-0.7l0,0L256.9,69.7L256.9,69.7z"/>
				<path class="st1" d="M258.4,67.4v1.8c0,0.8,0.4,1.2,1.2,1.2c0.3,0,0.6-0.1,0.9-0.4l0,0l-0.1-0.2l0,0c-0.1,0.1-0.3,0.1-0.5,0.1
					c-0.2,0-0.8-0.1-0.8-0.8v-2.6l-1.1,0.2v0.2l0.1,0C258.4,66.9,258.4,66.9,258.4,67.4z"/>
				<path class="st1" d="M261.4,69.6v-3.1l-1,0.2v0.2l0.1,0c0.3,0,0.3,0,0.3,0.4l0,2.9c0,0,0,0.1,0.1,0.1c0,0,0.1,0,0.1,0
					c0,0,0,0,0.1,0l0.8-0.1V70l-0.1,0C261.4,70,261.4,70,261.4,69.6z"/>
				<path class="st1" d="M266.1,69.8c0,0.2-0.2,0.2-0.2,0.2c-0.3,0-0.3-0.4-0.3-0.4v-1.4c0-0.7-0.1-1.6-1-1.6c0,0-0.3,0-0.6,0.1
					l-0.1,0l0.1,0.2l0,0c0.2-0.1,0.4,0,0.5,0.1c0.2,0.2,0.3,0.5,0.3,0.9v0.4c-1.3,0.3-2,0.6-2,1.3c0,0.2,0.1,0.4,0.2,0.6
					c0.3,0.3,0.7,0.3,0.7,0.3c0.3,0,0.7-0.1,0.9-0.3l0,0l0,0c0,0-0.1-0.1-0.1-0.1l0,0l-0.1,0c-0.1,0.1-0.3,0.1-0.4,0.1
					c-0.5,0-0.6-0.3-0.6-0.6c0-0.4,0.4-0.8,1.3-1v1.2c0,0.2,0.1,0.4,0.2,0.6c0.2,0.2,0.4,0.2,0.5,0.2c0,0,0,0,0,0
					c0.4,0,0.6-0.3,0.7-0.6l0-0.1L266.1,69.8L266.1,69.8z"/>
				<path class="st1" d="M263.3,67.7c0.1,0.1,0.2,0.1,0.3,0.1c0.1,0,0.2,0,0.2-0.1c0.2-0.1,0.2-0.4,0.1-0.5
					c-0.1-0.1-0.1-0.1-0.2-0.1c0,0,0,0,0.1-0.1l0,0l-0.1-0.2l-0.1,0c-0.3,0.2-0.4,0.4-0.4,0.4C263.1,67.5,263.2,67.6,263.3,67.7
					L263.3,67.7z"/>
				<polygon class="st1" points="265.6,66.2 264,64.8 263.3,65 265.3,66.2 				"/>
				<path class="st1" d="M256.9,77.8c-0.1,0.2-0.2,0.3-0.4,0.3c-0.3,0-0.5-0.1-0.5-0.8V75h0.9l0-0.2h-0.9v-1.2l-0.7,0.1v1.1h-0.4
					l0,0.2h0.4v2.3c0,0.9,0.3,1.2,1,1.2c0.5,0,0.8-0.3,0.9-0.7l0,0L256.9,77.8L256.9,77.8z"/>
				<path class="st1" d="M260,76.5l-0.8-0.5c-0.3-0.2-0.5-0.5-0.5-0.7c0-0.2,0.2-0.3,0.4-0.3l0.1,0v-0.2l-0.1,0
					c-0.7,0.1-0.8,0.5-0.8,0.5c-0.3,0.6-0.1,1,0.7,1.5l0.8,0.5c0.3,0.2,0.5,0.6,0.5,0.8c0,0.2-0.2,0.3-0.4,0.3l-0.1,0v0.2l0.1,0
					c0.5-0.1,0.8-0.4,0.8-0.4c0.2-0.2,0.2-0.5,0.2-0.7C260.7,77.1,260.5,76.8,260,76.5z"/>
				<path class="st1" d="M258.4,77.1L258.4,77.1l-0.2-0.1v1.2l0,0c0,0,0.4,0.2,1.2,0.3l0.1,0v-0.2l-0.1,0
					C258.6,78.2,258.4,77.7,258.4,77.1z"/>
				<path class="st1" d="M259.5,74.7V75l0.1,0c0.6,0.1,0.9,0.4,0.9,1.1l0,0.1h0.2V75l0,0C260.7,75,260.3,74.8,259.5,74.7L259.5,74.7
					z"/>
				<path class="st1" d="M262.3,76.6c0,1.1,0.6,1.8,1.6,1.9l0.1,0v-0.2l-0.1,0c-0.6-0.1-0.9-0.7-0.9-1.7c0-1,0.3-1.6,0.9-1.7l0.1,0
					v-0.2l-0.1,0C262.9,74.9,262.3,75.6,262.3,76.6z"/>
				<path class="st1" d="M264.3,74.8L264.3,74.8l-0.1,0.2l0.1,0c0.6,0.1,0.9,0.6,0.9,1.7c0,1-0.3,1.6-0.9,1.7l-0.1,0v0.2l0.1,0
					c1-0.1,1.6-0.8,1.6-1.9C266,75.6,265.3,74.9,264.3,74.8z"/>
				<polygon class="st1" points="265.3,74.3 263.7,73 263,73.2 265,74.3 				"/>
				<rect x="268.7" y="76.2" class="st1" width="2.6" height="0.5"/>
				<path class="st1" d="M277.2,77.8v-1.7c0-1.1-0.7-1.3-1.2-1.3c-0.3,0-0.7,0.2-1,0.4l0,0l0.1,0.2l0.1,0c0.1-0.1,0.3-0.2,0.5-0.2
					c0.7,0,0.8,0.5,0.8,0.9v1.7c0,0.4,0,0.4-0.3,0.5l0,0v0.2h1.3v-0.2l0,0C277.2,78.2,277.2,78.2,277.2,77.8z"/>
				<path class="st1" d="M274.8,77.8v-5.1l-1.1,0.2v0.2l0.1,0c0.3,0,0.3,0.1,0.3,0.3v4.4c0,0.4,0,0.4-0.3,0.5l0,0v0.2h1.3v-0.2l0,0
					C274.9,78.2,274.8,78.2,274.8,77.8z"/>
				<path class="st1" d="M281.8,77.8v-3.1l-1,0.2v0.2l0.1,0c0.3,0,0.3,0,0.3,0.4v2.9c0,0,0,0.1,0.1,0.1c0,0,0.1,0,0.1,0
					c0,0,0,0,0.1,0l0.8-0.1v-0.2l-0.1,0C281.9,78.2,281.8,78.1,281.8,77.8z"/>
				<path class="st1" d="M280.8,78c-0.1,0.1-0.3,0.1-0.5,0.1c-0.2,0-0.8-0.1-0.8-0.8v-2.6l-1.1,0.2v0.2l0.1,0c0.4,0,0.4,0,0.4,0.5
					v1.8c0,0.8,0.4,1.2,1.2,1.2c0.3,0,0.6-0.1,0.9-0.4l0,0L280.8,78L280.8,78z"/>
				<polygon class="st1" points="286.1,73.2 285.4,73 283.8,74.3 284.1,74.3 				"/>
				<path class="st1" d="M286.6,76.6c0-1-0.5-1.7-1.3-1.8l-0.1,0V75l0,0c0.3,0.1,0.7,0.6,0.7,1.5H284c0-0.8,0.4-1.3,0.8-1.4l0,0
					v-0.2l-0.1,0c-0.9,0.1-1.5,0.9-1.5,1.9c0,1.1,0.7,1.9,1.7,1.9c0.9,0,1.4-0.7,1.4-1l0-0.1l-0.2-0.1l0,0.1
					c-0.1,0.4-0.6,0.7-1.1,0.7c-0.7,0-1.1-0.5-1.1-1.5L286.6,76.6L286.6,76.6z"/>
			</g>
		</g>
	</g>
	<path class="st2" d="M252.3,157.6H296"/>
	<path class="st2" d="M0,157.6h43.7"/>
</g>
</svg>
