<svg width="296" height="199" viewBox="0 0 296 199" fill="none" xmlns="http://www.w3.org/2000/svg">
<g clip-path="url(#clip0_443_1288)">
<g style="mix-blend-mode:multiply">
<g style="mix-blend-mode:multiply">
<g style="mix-blend-mode:multiply">
<path d="M171.54 113.86C171.28 114.82 170.4 115.68 169.16 115.68C167.55 115.68 166.52 114.95 166.52 112.2V105.21H165.35L165.3 104.96H166.51V101.62L168.12 101.42V104.97H170.87L170.82 105.22H168.11V112.14C168.11 114.21 168.83 114.82 169.91 114.82C170.59 114.82 171.15 114.32 171.33 113.77L171.52 113.86H171.54Z" fill="#241917"/>
</g>
<g style="mix-blend-mode:multiply">
<path d="M181.94 114.59C181.31 115.2 180.42 115.68 179.4 115.68C177.81 115.68 175.9 115.13 175.9 112.27V107.01C175.9 105.49 175.9 105.44 174.59 105.39V105.16L177.46 104.75V112.19C177.46 114.12 178.72 114.81 180.07 114.81C180.72 114.81 181.31 114.65 181.73 114.33L181.94 114.58V114.59ZM185.49 115.05V115.28L183.23 115.67C182.67 115.76 182.69 115.37 182.69 115.37V106.93C182.69 105.54 182.71 105.45 181.59 105.41V105.18L184.3 104.77V113.67C184.3 114.76 184.51 114.94 185.49 115.06V115.05Z" fill="#241917"/>
</g>
<g style="mix-blend-mode:multiply">
<path d="M198.53 114.09L198.79 114.18C198.65 114.86 198.02 115.68 196.9 115.68C196.9 115.68 195.1 115.77 195.1 113.7V109.79C192.21 110.47 190.81 111.43 190.81 112.93C190.81 113.91 191.44 114.84 192.82 114.84C193.38 114.84 193.82 114.7 194.15 114.5C194.2 114.57 194.29 114.75 194.34 114.84C193.73 115.34 192.85 115.68 191.84 115.68C191.84 115.68 189.2 115.7 189.2 113.34C189.2 111.16 191.16 110.52 195.1 109.52V108.25C195.1 106.11 194.14 104.77 192.42 105.25L192.3 105.02C193.12 104.75 193.89 104.77 193.89 104.77C196.18 104.77 196.78 106.64 196.78 109.32V113.44C196.78 113.44 196.78 114.78 197.81 114.78C197.81 114.78 198.39 114.78 198.53 114.1V114.09ZM190.11 107.88C189.88 107.58 189.83 107.2 189.97 106.88C190.09 106.65 190.37 106.15 191.14 105.63L191.26 105.83C190.93 106.13 190.89 106.33 190.98 106.35C191.21 106.4 191.42 106.49 191.61 106.69C191.94 107.1 191.87 107.69 191.45 108.03C191.03 108.35 190.45 108.28 190.12 107.87L190.11 107.88ZM196.39 103.19H196.04L190.65 99.9603L192.17 99.5303L196.39 103.19Z" fill="#241917"/>
</g>
<g style="mix-blend-mode:multiply">
<path d="M216.03 113.86C215.77 114.82 214.89 115.68 213.65 115.68C212.04 115.68 211.01 114.95 211.01 112.2V105.21H209.84L209.79 104.96H211V101.62L212.61 101.42V104.97H215.36L215.31 105.22H212.6V112.14C212.6 114.21 213.32 114.82 214.4 114.82C215.08 114.82 215.64 114.32 215.82 113.77L216.01 113.86H216.03Z" fill="#241917"/>
</g>
<g style="mix-blend-mode:multiply">
<path d="M226.57 114.59C226.57 114.59 225.96 115.45 224.4 115.64V115.37C226.52 115.01 225.87 112.73 224.26 111.68L221.9 110.29C219.68 108.77 219.19 107.65 219.96 106.13C219.96 106.13 220.47 105.02 222.32 104.79V105.09C220.45 105.45 220.69 107.46 222.51 108.57L224.87 110C227.02 111.3 227.67 113.09 226.57 114.6V114.59ZM219.73 111.63H219.99C220.06 113.29 220.48 115.11 223.07 115.38V115.63C220.74 115.52 219.73 114.83 219.73 114.83V111.62V111.63ZM226.78 108.38H226.52C226.45 106.92 225.94 105.31 223.65 105.04V104.79C225.84 104.9 226.78 105.5 226.78 105.5V108.39V108.38Z" fill="#241917"/>
</g>
<g style="mix-blend-mode:multiply">
<path d="M236.35 115.39V115.66C233.25 115.36 231.71 113.02 231.71 110.22C231.71 107.42 233.25 105.1 236.35 104.8V105.07C234.81 105.32 233.57 106.59 233.57 110.21C233.57 113.83 234.81 115.12 236.35 115.37V115.39ZM239.99 103.19H239.64L234.25 99.9603L235.77 99.5303L239.99 103.19ZM237.68 115.66V115.39C239.22 115.14 240.41 113.84 240.41 110.23C240.41 106.62 239.22 105.34 237.68 105.09V104.82C240.78 105.12 242.3 107.44 242.3 110.24C242.3 113.04 240.78 115.38 237.68 115.68V115.66Z" fill="#241917"/>
</g>
<g style="mix-blend-mode:multiply">
<path d="M247.03 110.311V109.061H254.38V110.311H247.03Z" fill="#241917"/>
</g>
<g style="mix-blend-mode:multiply">
<path d="M262.34 115.23V115.48H258.86V115.23C259.75 114.98 259.79 114.84 259.79 113.68V100.73C259.79 99.9303 259.58 99.6403 258.62 99.5503V99.3003L261.37 98.7803V113.68C261.37 114.93 261.49 115.02 262.33 115.23H262.34ZM269.22 115.25V115.48H265.74V115.25C266.63 115 266.67 114.84 266.67 113.68V108.58C266.67 106.76 265.78 105.64 264.01 105.64C263.38 105.64 262.82 105.94 262.38 106.32L262.17 106.02C262.85 105.29 263.9 104.75 264.9 104.75C266.84 104.75 268.26 105.75 268.26 108.48V113.67C268.26 114.92 268.4 115.04 269.22 115.24V115.25Z" fill="#241917"/>
</g>
<g style="mix-blend-mode:multiply">
<path d="M279.62 114.59C278.99 115.2 278.1 115.68 277.08 115.68C275.49 115.68 273.58 115.13 273.58 112.27V107.01C273.58 105.49 273.58 105.44 272.27 105.39V105.16L275.14 104.75V112.19C275.14 114.12 276.4 114.81 277.75 114.81C278.4 114.81 278.99 114.65 279.41 114.33L279.62 114.58V114.59ZM283.17 115.05V115.28L280.91 115.67C280.35 115.76 280.37 115.37 280.37 115.37V106.93C280.37 105.54 280.39 105.45 279.27 105.41V105.18L281.98 104.77V113.67C281.98 114.76 282.19 114.94 283.17 115.06V115.05Z" fill="#241917"/>
</g>
<g style="mix-blend-mode:multiply">
<path d="M295.44 112.77L295.65 112.84C295.46 113.84 294.2 115.68 291.64 115.68C288.82 115.68 286.76 113.52 286.76 110.33C286.76 107.14 288.56 105.14 290.96 104.82V105.07C289.77 105.46 288.53 107.05 288.53 109.73H294.41C294.41 106.89 293.29 105.48 292.29 105.07V104.82C294.41 105.12 296 106.78 296 110.01H288.53C288.58 113.49 290.09 114.77 292.05 114.86C293.54 114.93 295.08 113.9 295.43 112.77H295.44ZM292.76 99.5303L294.28 99.9603L288.89 103.19H288.54L292.76 99.5303Z" fill="#241917"/>
</g>
</g>
</g>
<path d="M0 0.63L1.41 1.48H3.63L4.48 0.61L5.6 1.71L5.37 1.94H5.06C4.44 3.2 3.61 4.35 2.55 5.39C4.2 6.63 5.03 8 5.03 9.5C5.03 11 4.79 11.94 4.3 12.32C3.81 12.71 3.29 12.9 2.75 12.9C2.75 12.1 2.35 11.7 1.55 11.7V11.53H3C3.65 11.1 3.98 10.32 3.98 9.19C3.98 8.06 3.38 6.8 2.17 5.39C2.96 4.39 3.47 3.24 3.7 1.94H1.06V16.55L0 16.81V0.63ZM6.68 8.8L8.06 9.38V9.54H7.78C7.68 9.91 7.55 10.27 7.4 10.62H9.42V7.92L11.11 8.48V8.69L10.48 8.99V10.63H12.71L13.6 9.74L14.7 10.86L14.47 11.09H10.48V13.06H12.12L12.99 12.21L14.09 13.31L13.86 13.54H10.48V15.79H13.64L14.51 14.95L15.63 16.01L15.4 16.24H4.83L4.6 15.79H9.41V13.54H6.95L6.72 13.07H9.4V11.1H7.17C6.93 11.66 6.61 12.21 6.22 12.75C5.83 13.29 5.36 13.75 4.8 14.14L4.59 13.93C4.95 13.55 5.34 12.84 5.75 11.82C6.16 10.8 6.47 9.8 6.67 8.84L6.68 8.8ZM8.19 0L9.86 0.84V1.07L9.28 1.35C9.2 1.55 9.07 1.8 8.9 2.12H11.5L12.37 1.23L13.52 2.38V2.61L12.91 2.89C12.39 4.12 11.65 5.16 10.7 5.99C12.2 6.86 13.69 7.21 15.16 7.04C14.46 7.54 14.11 8.07 14.11 8.63C12.77 8.25 11.42 7.53 10.07 6.49C9.81 6.7 9.22 7.06 8.29 7.58C7.36 8.1 6.51 8.46 5.73 8.67L5.54 8.48C6.07 8.31 6.77 7.91 7.64 7.28C8.51 6.65 9.1 6.2 9.41 5.92C8.7 5.18 8.22 4.33 7.96 3.39C6.64 4.89 5.58 5.74 4.8 5.94L4.61 5.75C5.17 5.56 5.9 4.8 6.82 3.47C7.73 2.13 8.19 0.99 8.19 0.04V0ZM11.59 2.56H8.61C8.47 2.76 8.31 2.96 8.12 3.15C8.46 4 9.03 4.75 9.85 5.42C10.58 4.61 11.16 3.65 11.59 2.56Z" fill="#241917"/>
<path d="M18.1 8.02977H20.47L21.36 7.13977L22.51 8.28977V8.51977L21.88 9.10977V12.4898C21.88 13.7298 22.25 14.6098 22.99 15.1098C23.73 15.6198 25.27 15.8698 27.63 15.8698C29.99 15.8698 32.51 15.6998 35.22 15.3498C34.7 15.8298 34.44 16.2598 34.44 16.6598C29.59 16.8598 26.52 16.8498 25.21 16.6598C23.9 16.4598 23 16.0698 22.5 15.4898C22 14.9098 21.75 14.2598 21.75 13.5098L19.45 16.0698L19.17 16.9598H18.98L18.11 15.0098C19.07 14.8098 19.98 14.2998 20.83 13.4598V8.48977H18.34L18.11 8.03977L18.1 8.02977ZM19.02 1.52977L19.23 1.33977C20.81 1.92977 21.7 2.51977 21.89 3.09977C22.08 3.67977 21.99 4.05977 21.63 4.23977C21.26 4.41977 20.98 4.35977 20.79 4.06977C20.6 3.77977 20.4 3.37977 20.2 2.86977C20 2.35977 19.6 1.90977 19.02 1.52977ZM23.92 2.85977H27.86V0.759766L29.53 1.29977V1.50977L28.92 1.80977V2.85977H31.48L32.37 1.96977L33.49 3.08977L33.25 3.31977H28.93V5.28977H32.71L33.6 4.43977L34.72 5.51977L34.48 5.75977H22.94L22.71 5.28977H27.87V3.31977H24.16L23.93 2.86977L23.92 2.85977ZM24.5 6.55977L25.93 7.11977H30.85L31.76 6.52977L32.88 7.34977L32.32 7.92977V10.3398L31.24 10.5998V10.3198H29.11L28.94 10.5798V11.4298C29.67 11.6298 30.31 11.8198 30.86 12.0098C31.7 11.5798 32.51 10.9698 33.3 10.1798L34.45 11.0498V11.2398H33.89C33.41 11.5298 32.59 11.8498 31.43 12.1998C32.38 12.5998 33.12 13.0498 33.63 13.5698C34.14 14.0898 34.22 14.4798 33.86 14.7598C33.5 15.0298 32.9 14.7098 32.06 13.7798C31.22 12.8498 30.18 12.1498 28.95 11.6898V15.2098L27.89 15.4898V11.9298C26.69 13.0998 25.25 13.8798 23.55 14.2698L23.36 14.0798C25.48 13.2098 26.91 11.9598 27.67 10.3298H25.61V10.6398L24.53 10.8998V6.54977L24.5 6.55977ZM31.23 7.58977H25.58V9.85977H31.23V7.58977Z" fill="#241917"/>
<path d="M31.68 44.8896C36.67 57.8896 34.74 66.8896 31.61 71.6796C29.48 75.1796 25.69 75.6096 23.63 73.3896C22.1 71.3196 22.57 68.7496 24.23 66.7496C27.62 63.3896 30.95 54.5296 30.82 44.9596L31.69 44.8896H31.68Z" fill="#241917"/>
<path d="M58.43 44.3896C57.17 37.7496 53.04 30.0296 49.05 24.8196L49.65 24.3896C72.87 32.6796 66.55 51.0396 58.43 44.3896Z" fill="#241917"/>
<path d="M80.38 72.3796C78.31 65.7596 73.89 55.5196 66.85 49.3396L67.29 48.6396C94.52 57.9396 88.68 79.5096 80.38 72.3796Z" fill="#241917"/>
<path d="M132.78 29.3993C138.9 38.4693 151.14 43.7593 161.32 47.0393L161.25 48.1093C157.72 49.1093 155.33 53.0393 154.66 56.4693C144.75 50.6793 135.77 42.1093 131.64 30.3293C124.99 41.6193 110.62 53.3993 97.45 59.3293L97.05 58.5393C108.36 50.3993 120.87 34.8193 123.73 24.3193L134.43 27.3493L132.78 29.3893V29.3993Z" fill="#241917"/>
<path d="M75.37 80.6493C75.51 81.3293 75.54 82.0393 75.37 82.7093C74.78 85.0393 72.31 86.3993 65.8 86.9193C63.73 87.0893 61.25 87.1693 58.29 87.1693H49.77C41.85 87.1693 39.26 85.6693 39.26 78.8093V36.3193L47.11 39.3393V76.3193C47.11 78.1093 47.91 78.6793 50.9 78.6793H59.02C62.01 78.6793 64.47 78.6093 65.67 78.5393C66.8 78.3993 67.4 78.1093 67.93 77.2493C68.79 75.7493 70.06 71.5393 71.52 66.1093H72.25L74.6 76.8593L75.36 80.6593L75.37 80.6493Z" fill="#241917"/>
<path d="M150.08 80.6895L145.62 86.8295H135.22V88.8995H156.26C157.19 88.8995 157.92 88.5395 158.06 87.7595C155.13 84.8295 150.08 80.6895 150.08 80.6895Z" fill="#241917"/>
<path d="M122.64 59.6895V57.6895H109.7L110.23 59.6895H122.64Z" fill="#241917"/>
<path d="M133.06 86.8298H133.05V59.6898H147.35C148.28 59.6898 149.01 59.3298 149.15 58.5498C146.42 55.9798 141.83 52.3398 141.83 52.3398L137.91 57.6998H124.8V64.2998V86.8398H102.11L102.64 88.9098H133.06V86.8398V86.8298Z" fill="#241917"/>
<path d="M234.25 78.1299C229.73 76.8399 225.27 73.7699 222.67 69.6999C223.07 68.8399 223.47 67.9899 223.8 67.1299L224.7 65.0699L217.08 62.5599C215.62 71.3499 212.36 79.1299 208.3 84.1999V62.0599C213.63 61.6599 218.49 61.1399 222.68 60.5499L226.91 59.7999L221.14 53.4199C212.03 56.4899 194.4 60.2099 180.76 61.8499L180.89 63.0599C187.14 63.1299 193.86 62.9899 200.45 62.5599V90.8499H201.91C205.84 90.8499 208.3 89.0599 208.3 88.5599V84.3499L209.03 84.9899C214.09 82.1999 218.34 77.8499 221.6 71.7699C223.13 78.0599 225.52 82.6299 229.32 85.7699C229.45 85.1699 233.21 80.1799 234.02 79.1199L234.77 78.3399L234.25 78.1299Z" fill="#241917"/>
<path d="M190.95 71.4091C191.48 70.4791 192.01 69.4791 192.48 68.4791L193.38 66.4091L185.75 63.3291C183.75 72.3991 179.3 80.1191 174.24 84.6891L174.97 85.4791C180.49 83.1191 185.41 79.4791 189.27 73.9791C190.93 76.7691 192.4 80.1191 192.8 83.0491C198.45 87.8391 203.98 76.9091 190.94 71.4091H190.95Z" fill="#241917"/>
<path d="M203.45 23.2695L199.53 28.3395H174.38L174.91 30.4095H180.43V50.6295C177.77 50.9195 175.57 51.1995 174.04 51.3395L177.87 58.1095L180.03 57.2695C187.02 54.5495 192.14 52.3395 196.13 50.5495V57.9795H197.39C201.12 57.9795 203.38 56.6195 203.38 56.2695V30.4095H208.84C209.77 30.4095 210.5 30.0495 210.64 29.2695C207.91 26.7695 203.46 23.2695 203.46 23.2695H203.45ZM196.13 48.4895C193.14 48.9195 190.28 49.3495 187.55 49.6995V44.4095H196.13V48.4795V48.4895ZM196.13 42.3495H187.55V37.5595H196.13V42.3495ZM196.13 35.4895H187.55V30.4195H196.13V35.4895Z" fill="#241917"/>
<path d="M217.58 33.57H233.15C233.47 32.88 233.85 32.07 234.12 31.5L228.66 31.52L224.67 31.5H206.84L207.44 33.57H217.58Z" fill="#241917"/>
<path d="M227.14 42.6202C229.12 40.3102 230.77 37.8302 232.08 35.1602H223.92C223.27 36.6902 222.53 38.1902 221.69 39.6202C218.16 38.0502 213.77 36.6202 208.19 35.4802L207.79 36.3402C211.85 38.7702 215.51 41.4802 218.57 44.2002C215.38 48.3402 211.25 51.8402 206.26 54.4202L206.73 55.3502C212.85 53.5602 217.91 50.8502 222.1 47.4902C224.89 50.2002 226.96 52.7102 228.15 54.6302C233.27 57.5602 237.66 49.7702 227.15 42.6302L227.14 42.6202Z" fill="#241917"/>
</g>
<path d="M72.4036 168.425C76.4286 168.425 78.9786 166.35 78.9786 163.3C78.9786 160.375 77.2036 158.375 72.4286 158.125L72.4286 158.475C76.7036 158.05 78.4286 156.05 78.4286 153.5C78.4286 150.925 76.5536 149.1 72.8536 149.1C70.0286 149.1 67.5536 150.275 67.3536 153.1C67.6036 153.55 68.0536 153.825 68.6036 153.825C69.3786 153.825 70.0286 153.45 70.2536 152.325L70.8036 149.85L69.4036 150.525C70.3536 150.1 71.1536 149.925 71.9286 149.925C73.9286 149.925 75.0786 151.2 75.0786 153.625C75.0786 156.5 73.5286 157.875 71.2536 157.875L70.3286 157.875L70.3286 158.825L71.3786 158.825C74.0786 158.825 75.4786 160.4 75.4786 163.275C75.4786 166.05 74.0036 167.575 71.3536 167.575C70.4036 167.575 69.7786 167.35 69.0036 166.95L70.1786 167.7L69.6536 165.125C69.4286 163.7 68.9036 163.25 68.0286 163.25C67.4536 163.25 66.8786 163.575 66.6286 164.275C66.9536 166.925 68.9286 168.425 72.4036 168.425ZM86.9229 168.425C91.0729 168.425 93.948 166.275 93.948 162.525C93.948 158.85 91.4479 156.925 87.4479 156.925C85.9229 156.925 84.5729 157.15 83.1479 157.8L84.0979 158.1L84.6479 150.225L84.0729 152.15L93.373 152.15L93.373 149.5L83.5729 149.5L82.9729 158.225L83.6979 158.65C84.5729 158.325 85.4479 158.175 86.4479 158.175C88.8479 158.175 90.3979 159.725 90.3979 162.675C90.3979 165.85 88.8229 167.575 86.3479 167.575C85.3479 167.575 84.8229 167.4 84.0229 166.975L84.8729 167.625L84.3479 165.025C84.1979 163.75 83.6729 163.275 82.7979 163.275C82.1729 163.275 81.6229 163.625 81.3729 164.275C81.6479 166.85 83.6729 168.425 86.9229 168.425ZM107.742 156.525C106.617 156.525 105.742 157.4 105.742 158.5C105.742 159.625 106.617 160.5 107.742 160.5C108.842 160.5 109.717 159.625 109.717 158.5C109.717 157.4 108.842 156.525 107.742 156.525ZM127.067 168.425C131.092 168.425 133.642 166.35 133.642 163.3C133.642 160.375 131.867 158.375 127.092 158.125L127.092 158.475C131.367 158.05 133.092 156.05 133.092 153.5C133.092 150.925 131.217 149.1 127.517 149.1C124.692 149.1 122.217 150.275 122.017 153.1C122.267 153.55 122.717 153.825 123.267 153.825C124.042 153.825 124.692 153.45 124.917 152.325L125.467 149.85L124.067 150.525C125.017 150.1 125.817 149.925 126.592 149.925C128.592 149.925 129.742 151.2 129.742 153.625C129.742 156.5 128.192 157.875 125.917 157.875L124.992 157.875L124.992 158.825L126.042 158.825C128.742 158.825 130.142 160.4 130.142 163.275C130.142 166.05 128.667 167.575 126.017 167.575C125.067 167.575 124.442 167.35 123.667 166.95L124.842 167.7L124.317 165.125C124.092 163.7 123.567 163.25 122.692 163.25C122.117 163.25 121.542 163.575 121.292 164.275C121.617 166.925 123.592 168.425 127.067 168.425ZM142.186 168.425C146.261 168.425 148.586 166.375 148.586 163.275C148.586 160.8 147.111 159.025 143.736 157.55C140.411 156.1 139.686 154.525 139.686 152.9C139.686 151.075 141.011 149.95 142.511 149.95C144.236 149.95 145.236 151.375 145.236 153.275C145.236 155.175 144.661 156.525 143.286 157.85L143.586 158.1L143.586 158C146.736 156.8 147.911 155.15 147.911 153.375C147.911 151.025 146.161 149.1 142.586 149.1C139.311 149.1 136.836 151 136.836 153.975C136.836 156.4 138.211 158.35 141.111 159.6C144.511 161.075 145.536 162.6 145.536 164.45C145.536 166.4 144.411 167.575 142.436 167.575C140.386 167.575 139.211 166.275 139.211 163.675C139.211 161.825 139.836 160.625 141.486 159.325L141.086 159L141.086 159.15C138.036 160.175 136.411 161.75 136.411 164.05C136.411 166.6 138.311 168.425 142.186 168.425ZM162.405 156.525C161.28 156.525 160.405 157.4 160.405 158.5C160.405 159.625 161.28 160.5 162.405 160.5C163.505 160.5 164.38 159.625 164.38 158.5C164.38 157.4 163.505 156.525 162.405 156.525ZM178.605 168L181.43 168L187.93 151.15L187.93 149.5L176.355 149.5L176.355 152.15L186.63 152.15L186.63 152.6L186.98 151.15L178.38 167.8L178.605 168ZM196.427 168.425C200.452 168.425 203.002 166.35 203.002 163.3C203.002 160.375 201.227 158.375 196.452 158.125L196.452 158.475C200.727 158.05 202.452 156.05 202.452 153.5C202.452 150.925 200.577 149.1 196.877 149.1C194.052 149.1 191.577 150.275 191.377 153.1C191.627 153.55 192.077 153.825 192.627 153.825C193.402 153.825 194.052 153.45 194.277 152.325L194.827 149.85L193.427 150.525C194.377 150.1 195.177 149.925 195.952 149.925C197.952 149.925 199.102 151.2 199.102 153.625C199.102 156.5 197.552 157.875 195.277 157.875L194.352 157.875L194.352 158.825L195.402 158.825C198.102 158.825 199.502 160.4 199.502 163.275C199.502 166.05 198.027 167.575 195.377 167.575C194.427 167.575 193.802 167.35 193.027 166.95L194.202 167.7L193.677 165.125C193.452 163.7 192.927 163.25 192.052 163.25C191.477 163.25 190.902 163.575 190.652 164.275C190.977 166.925 192.952 168.425 196.427 168.425ZM213.046 149.15L213.246 149.875L227.771 149.875C228.121 149.875 228.396 149.75 228.471 149.475C227.421 148.5 225.671 147.075 225.671 147.075L224.121 149.15L213.046 149.15ZM212.271 159.825L212.471 160.55L228.371 160.55C228.721 160.55 228.996 160.425 229.046 160.15C227.971 159.125 226.096 157.65 226.096 157.65L224.471 159.825L212.271 159.825ZM218.946 149.15L218.946 170.475L219.496 170.475C220.996 170.475 221.871 169.85 221.896 169.65L221.896 149.15L218.946 149.15ZM214.471 151.3L214.146 151.425C214.796 153.3 215.371 155.75 215.296 157.85C217.646 160.325 220.421 155.2 214.471 151.3ZM224.271 151.125C223.846 153.65 223.221 156.55 222.646 158.425L222.996 158.6C224.521 157.15 225.996 155.025 227.146 152.85C227.696 152.85 228.021 152.625 228.121 152.325L224.271 151.125ZM205.196 154.4L205.396 155.125L213.821 155.125C214.146 155.125 214.396 155 214.446 154.725C213.721 153.775 212.271 152.3 212.271 152.3L211.021 154.4L205.196 154.4ZM208.021 147.725L208.021 164.325L210.896 163.425L210.896 148.775C211.571 148.675 211.746 148.425 211.796 148.075L208.021 147.725ZM204.896 164.15L206.396 167.45C206.696 167.35 206.921 167.075 207.021 166.75C210.371 164.575 212.721 162.8 214.221 161.6L214.146 161.325C210.321 162.575 206.421 163.775 204.896 164.15Z" fill="black"/>
<path d="M20.4728 183.48L19.2328 185.54L16.0328 185.54L16.0328 186.1L22.0928 186.1C22.3928 186.1 22.5928 186 22.6528 185.78C21.8928 184.88 20.4728 183.48 20.4728 183.48ZM17.6928 179.78L14.6328 179.44L14.6328 194.68C14.6328 196.4 15.2328 196.88 17.1928 196.88L18.9328 196.88C21.9928 196.88 22.9328 196.44 22.9328 195.44C22.9328 195.02 22.7328 194.74 22.0928 194.46L22.0128 191.5L21.7928 191.5C21.4728 192.72 21.1128 193.94 20.8728 194.32C20.7328 194.52 20.5528 194.58 20.3528 194.6C20.1128 194.6 19.6728 194.62 19.1328 194.62L17.7528 194.62C17.1528 194.62 16.9728 194.46 16.9728 194.02L16.9728 180.32C17.4728 180.24 17.6528 180.04 17.6928 179.78ZM4.27284 194.76L5.45284 197.72C5.69284 197.66 5.91284 197.46 6.03284 197.2C9.75284 195.6 12.2728 194.36 13.8928 193.42L13.8528 193.2C9.87284 193.92 5.87284 194.58 4.27284 194.76ZM12.4928 179.74L9.45284 179.46L9.45284 194.6L9.89284 194.6C10.7728 194.6 11.7728 194.1 11.7728 193.88L11.7728 180.32C12.3128 180.24 12.4528 180.02 12.4928 179.74ZM11.0928 185.52L4.73284 185.52L4.91284 186.08L11.0928 186.08L11.0928 185.52ZM32.1528 179.32L32.1528 196.3L34.7128 196.3L34.7128 180.22C35.2528 180.14 35.4128 179.94 35.4528 179.64L32.1528 179.32ZM24.2128 186.38L24.3728 186.96L42.1528 186.96C42.4528 186.96 42.6928 186.86 42.7528 186.64C41.7728 185.8 40.1528 184.56 40.1528 184.56L38.7128 186.38L24.2128 186.38ZM25.2928 196.18L25.4528 196.74L41.2128 196.74C41.5128 196.74 41.7328 196.64 41.7928 196.42C40.8128 195.56 39.1928 194.34 39.1928 194.34L37.7528 196.18L25.2928 196.18ZM57.9528 179.52L57.9528 197.72L58.3928 197.72C59.2528 197.72 60.2328 197.18 60.2328 196.94L60.2328 180.4C60.7728 180.32 60.9128 180.1 60.9728 179.82L57.9528 179.52ZM53.2928 181.12L53.1328 181.28C53.9928 182.08 54.8328 183.4 55.0128 184.56C57.0728 186.06 58.8928 181.94 53.2928 181.12ZM52.9128 186.08L52.7528 186.22C53.5928 186.98 54.4728 188.26 54.6928 189.4C56.7928 190.84 58.5728 186.68 52.9128 186.08ZM44.2528 185.3L44.4128 185.86L52.4728 185.86C52.7528 185.86 52.9728 185.76 53.0128 185.54C52.3128 184.82 51.0928 183.76 51.0928 183.76L50.0128 185.3L44.2528 185.3ZM50.2328 179.08C48.9328 180.08 46.3128 181.46 44.1328 182.22L44.1928 182.46C46.7728 182.34 49.6928 181.86 51.5128 181.36C52.1528 181.58 52.5928 181.52 52.8128 181.32L50.2328 179.08ZM47.2528 185.38C46.6528 188.28 45.4928 191.5 43.8328 193.72L44.0528 193.94C46.7528 191.84 48.7128 189.04 49.6528 185.7L49.6528 185.38L47.2528 185.38ZM47.4128 181.8L47.4128 197.8L47.8328 197.8C48.9528 197.8 49.6928 197.28 49.7128 197.14L49.7128 180.88L47.4128 181.8ZM49.5528 186.92L49.3728 187.04C49.9528 187.94 50.6728 189.26 50.8128 190.4C52.5528 191.84 54.4128 188.44 49.5528 186.92ZM51.3128 192.42L51.5728 192.94L62.8528 190.8C63.0928 190.76 63.2728 190.6 63.2728 190.4C62.5528 189.76 61.3528 188.84 61.3528 188.84L60.3928 190.7L51.3128 192.42ZM68.3528 179.1L68.1928 179.22C68.8728 180.08 69.5928 181.38 69.7728 182.54C71.8928 184.12 73.9328 179.98 68.3528 179.1ZM64.0928 182.94L64.2528 183.52L82.2528 183.52C82.5328 183.52 82.7728 183.42 82.8128 183.2C81.8528 182.38 80.2728 181.22 80.2728 181.22L78.8528 182.94L64.0928 182.94ZM71.7728 182.94C71.7328 183.92 71.6728 185.42 71.6128 186.24L71.9528 186.24C73.0128 185.48 74.3728 184.08 75.2928 182.94L71.7728 182.94ZM75.9928 179.04C75.6728 180.3 75.0728 182.1 74.5328 183.3L74.8528 183.3C76.1328 182.42 77.6128 181.14 78.4728 180.22C78.9328 180.24 79.1728 180.06 79.2328 179.82L75.9928 179.04ZM67.2728 185.9L67.2728 197.74L67.6528 197.74C68.6928 197.74 69.6928 197.16 69.6928 196.9L69.6928 186.46L78.3728 186.46L78.3728 185.9L69.8528 185.9L67.2728 184.86L67.2728 185.9ZM77.1928 185.9L77.1928 197.62L77.5928 197.62C78.4328 197.62 79.6328 197.12 79.6528 196.96L79.6528 186.84C80.0528 186.76 80.3328 186.6 80.4528 186.44L78.1328 184.62L76.9928 185.9L77.1928 185.9ZM68.4928 195.66L68.4928 196.24L78.4728 196.24L78.4728 195.66L68.4928 195.66ZM68.4928 192.32L68.4928 192.88L78.4728 192.88L78.4728 192.32L68.4928 192.32ZM68.4928 189.08L68.4928 189.64L78.4728 189.64L78.4728 189.08L68.4928 189.08ZM89.3728 190.88L90.2928 193.54C90.5328 193.48 90.7528 193.28 90.8328 193.02C92.3928 191.78 93.5128 190.76 94.2128 190.1L94.1528 189.9C92.1928 190.34 90.1928 190.74 89.3728 190.88ZM93.1728 179.22L93.1728 188.6C93.1728 192.56 92.1728 195.44 88.9928 197.62L89.1528 197.82C93.8728 196.04 95.3528 192.88 95.3928 188.6L95.3928 180.08C95.8928 180 96.0528 179.8 96.0928 179.52L93.1728 179.22ZM96.8528 179.24L96.8528 197.8L97.2728 197.8C98.1328 197.8 99.1128 197.24 99.1128 196.98L99.1128 180.12C99.6328 180.04 99.7928 179.82 99.8328 179.54L96.8528 179.24ZM90.6728 182.96L90.8528 183.52L94.6928 183.52L94.6928 182.96L90.6728 182.96ZM90.6128 186.94L90.7928 187.5L94.3728 187.5L94.3728 186.94L90.6128 186.94ZM98.1328 182.96L98.1328 183.52L102.413 183.52C102.693 183.52 102.893 183.42 102.933 183.2C102.233 182.46 100.993 181.38 100.993 181.38L99.8928 182.96L98.1328 182.96ZM98.1328 187.02L98.1328 187.58L102.193 187.58C102.473 187.58 102.673 187.48 102.733 187.28C102.053 186.54 100.833 185.48 100.833 185.48L99.7928 187.02L98.1328 187.02ZM98.2128 191.6L98.2128 192.16L102.613 192.16C102.913 192.16 103.093 192.06 103.153 191.84C102.433 191.08 101.153 189.96 101.153 189.96L100.013 191.6L98.2128 191.6ZM84.0928 183.76L84.2528 184.34L90.7328 184.34C91.0128 184.34 91.1928 184.24 91.2528 184.02C90.6928 183.26 89.6128 182.1 89.6128 182.1L88.6328 183.76L84.0928 183.76ZM86.3728 179.02L86.3728 195.04C86.3728 195.28 86.2928 195.38 85.9928 195.38C85.6328 195.38 84.0528 195.26 84.0528 195.26L84.0528 195.54C84.8528 195.68 85.2328 195.92 85.4728 196.26C85.7128 196.58 85.7928 197.12 85.8528 197.8C88.2128 197.58 88.5128 196.72 88.5128 195.18L88.5128 179.86C88.9928 179.8 89.1928 179.6 89.2528 179.3L86.3728 179.02ZM83.8128 188.86L84.7728 191.5C84.9928 191.42 85.1928 191.2 85.2528 190.92C87.7528 189.3 89.5528 187.92 90.7128 187.04L90.6328 186.82C87.8328 187.74 84.9128 188.6 83.8128 188.86ZM114.533 180.94L114.693 181.52L131.873 181.52C132.173 181.52 132.373 181.42 132.433 181.2C131.473 180.38 129.893 179.24 129.893 179.24L128.533 180.94L114.533 180.94ZM127.453 185.08L127.453 197.56L127.853 197.56C128.693 197.56 129.873 197.06 129.893 196.9L129.893 186.04C130.293 185.96 130.553 185.78 130.693 185.62L128.393 183.82L127.253 185.08L127.453 185.08ZM117.153 185.08L117.153 197.68L117.533 197.68C118.573 197.68 119.533 197.12 119.533 196.84L119.533 185.64L128.553 185.64L128.553 185.08L119.693 185.08L117.153 184.04L117.153 185.08ZM118.273 195.34L118.273 195.92L128.593 195.92L128.593 195.34L118.273 195.34ZM118.273 190L118.273 190.56L128.593 190.56L128.593 190L118.273 190ZM121.753 180.94C121.693 182.32 121.493 184.36 121.333 185.46L121.773 185.46C122.873 184.4 124.093 182.54 124.953 180.94L121.753 180.94ZM134.093 192.12L134.253 192.7L152.293 192.7C152.573 192.7 152.813 192.6 152.873 192.38C151.893 191.56 150.333 190.38 150.333 190.38L148.933 192.12L134.093 192.12ZM143.513 182.18L143.513 197.78L143.993 197.78C145.313 197.78 146.073 197.26 146.093 197.1L146.093 182.18L143.513 182.18ZM138.873 186.68L138.873 187.26L151.153 187.26C151.453 187.26 151.673 187.16 151.733 186.94C150.813 186.18 149.353 185.08 149.353 185.08L148.053 186.68L138.873 186.68ZM137.513 186.68L137.513 192.48L139.993 192.48L139.993 186.68L140.273 186.68L137.513 185.66L137.513 186.68ZM138.913 178.76C137.813 182.14 135.833 185.48 134.053 187.46L134.253 187.66C137.013 186.12 139.493 183.74 141.393 180.36C141.853 180.4 142.133 180.24 142.233 180L138.913 178.76ZM138.933 182.18L138.653 182.76L151.833 182.76C152.133 182.76 152.353 182.66 152.393 182.44C151.413 181.58 149.873 180.46 149.873 180.46L148.493 182.18L138.933 182.18ZM154.233 185.06L154.393 185.64L172.253 185.64C172.533 185.64 172.773 185.54 172.833 185.32C171.833 184.46 170.173 183.22 170.173 183.22L168.713 185.06L154.233 185.06ZM161.773 179.1C161.753 186.48 162.153 192.64 154.053 197.52L154.233 197.82C164.453 193.82 164.233 187.38 164.413 180C164.893 179.92 165.073 179.72 165.133 179.42L161.773 179.1ZM164.293 185.2L163.993 185.26C164.433 189.4 165.793 194.78 170.793 197.82C171.013 196.44 171.753 195.72 172.973 195.5L172.993 195.26C167.193 192.94 164.893 189.04 164.293 185.2ZM178.973 187.08L178.773 187.18C179.273 188.1 179.853 189.44 179.893 190.56C181.473 192.06 183.433 188.88 178.973 187.08ZM179.073 197.18L179.073 180.72L176.993 181.56L176.993 197.8L177.353 197.8C178.393 197.8 179.073 197.34 179.073 197.18ZM179.033 185.8L179.033 185.48L176.773 185.48C176.253 188.46 175.293 191.74 173.793 194.06L174.013 194.28C176.513 192.06 178.233 189.18 179.033 185.8ZM182.013 181.16L179.433 179.08C178.253 180.06 175.873 181.5 173.913 182.32L173.973 182.56C176.373 182.32 179.073 181.78 180.713 181.22C181.353 181.42 181.773 181.38 182.013 181.16ZM180.273 183.94L179.233 185.42L174.073 185.42L174.233 186L181.613 186C181.893 186 182.093 185.9 182.133 185.68C181.473 184.96 180.273 183.94 180.273 183.94ZM187.333 187.24L185.313 185.7C184.513 186.46 183.493 187.44 182.833 187.94L182.953 188.22C183.713 188.1 185.593 187.8 186.553 187.38C186.953 187.48 187.173 187.44 187.333 187.24ZM185.073 181.88L184.873 181.98C185.513 182.88 186.153 184.3 186.213 185.48C187.993 187 189.913 183.34 185.073 181.88ZM192.753 182.7L190.033 181.44C189.553 183.36 188.833 185.46 188.173 186.78L188.433 186.94C189.753 185.96 190.953 184.54 191.913 183C192.373 183.06 192.633 182.92 192.753 182.7ZM182.053 182.32L181.853 182.42C182.333 183.3 182.933 184.64 183.033 185.74C184.733 187.22 186.693 183.88 182.053 182.32ZM192.513 180.86L190.393 178.86C188.413 179.78 184.573 181.04 181.553 181.68L181.613 181.98C184.933 181.84 188.793 181.34 191.293 180.84C191.873 181.06 192.293 181.04 192.513 180.86ZM189.653 187.54L189.853 187.54L189.853 197.56L190.193 197.56C190.913 197.56 191.953 197.12 191.973 196.96L191.973 188.42C192.333 188.34 192.613 188.2 192.733 188.04L190.653 186.44L189.653 187.54ZM184.973 187.56L182.133 186.88L182.133 197.74L182.453 197.74C183.653 197.74 184.213 197.26 184.233 197.1L184.233 187.96C184.673 187.88 184.913 187.76 184.973 187.56ZM185.593 190.06L184.773 191.3L183.073 191.3L183.073 191.88L186.553 191.88C186.813 191.88 187.013 191.78 187.053 191.56C186.533 190.94 185.593 190.06 185.593 190.06ZM190.713 191.22L187.493 191.22L187.673 191.78L190.713 191.78L190.713 191.22ZM190.553 187.54L187.293 187.54L187.473 188.1L190.553 188.1L190.553 187.54ZM190.693 195.24L183.453 195.24L183.453 195.8L190.693 195.8L190.693 195.24ZM201.633 192.38L201.793 192.96L212.073 192.96C212.353 192.96 212.573 192.86 212.633 192.64C211.813 191.88 210.473 190.84 210.473 190.84L209.273 192.38L201.633 192.38ZM200.613 196.62L200.773 197.18L212.693 197.18C212.973 197.18 213.173 197.08 213.233 196.86C212.413 196.1 211.033 195 211.033 195L209.813 196.62L200.613 196.62ZM205.673 188.82L205.673 196.82L208.033 196.82L208.033 188.82L205.673 188.82ZM209.613 186.68C207.893 187.64 204.513 188.94 201.833 189.64L201.893 189.9C204.933 189.84 208.473 189.46 210.733 189C211.373 189.24 211.813 189.22 212.073 189.02L209.613 186.68ZM194.033 185.18L194.193 185.76L201.793 185.76C202.073 185.76 202.273 185.66 202.313 185.44C201.653 184.74 200.493 183.74 200.493 183.74L199.453 185.18L194.033 185.18ZM196.813 185.26C196.313 188.08 195.313 191.18 193.813 193.36L194.033 193.58C196.573 191.52 198.373 188.82 199.233 185.58L199.233 185.26L196.813 185.26ZM196.953 181.72L196.953 197.8L197.373 197.8C198.493 197.8 199.213 197.28 199.233 197.14L199.233 180.8L196.953 181.72ZM199.153 186.96L198.933 187.08C199.513 188 200.113 189.34 200.193 190.48C201.893 192.04 203.893 188.6 199.153 186.96ZM199.713 179.04C198.493 180.04 195.993 181.46 193.953 182.28L194.013 182.52C196.513 182.32 199.313 181.82 201.033 181.28C201.673 181.48 202.093 181.44 202.333 181.24L199.713 179.04ZM203.733 185.46L203.733 186.02L210.113 186.02L210.113 185.46L203.733 185.46ZM202.473 180.72L202.473 187.24L202.773 187.24C203.693 187.24 204.653 186.76 204.653 186.56L204.653 181.28L210.273 181.28L210.273 180.72L204.753 180.72L202.473 179.8L202.473 180.72ZM209.113 180.72L209.113 186.88L209.493 186.88C210.273 186.88 211.373 186.42 211.393 186.26L211.393 181.66C211.793 181.56 212.073 181.4 212.193 181.24L209.973 179.58L208.933 180.72L209.113 180.72ZM221.533 179.06L221.393 179.18C222.053 179.7 222.673 180.68 222.793 181.58C224.973 182.96 226.793 178.76 221.533 179.06ZM229.493 181.76L229.713 181.76C229.673 182.44 229.553 183.62 229.433 184.36L229.613 184.5C230.393 184.08 231.413 183.34 231.993 182.78C232.393 182.76 232.613 182.7 232.753 182.54L230.673 180.56L229.493 181.76ZM216.853 180.64L216.573 180.64C216.613 181.72 215.833 182.72 215.133 183.1C214.533 183.4 214.113 183.94 214.353 184.64C214.613 185.38 215.573 185.54 216.213 185.14C217.133 184.54 217.733 182.94 216.853 180.64ZM230.593 181.76L216.553 181.76L216.553 182.34L230.593 182.34L230.593 181.76ZM231.473 187.5L229.053 185.52C227.873 186.66 225.493 188.42 223.553 189.5L223.713 189.74C226.193 189.26 228.973 188.38 230.713 187.62C231.153 187.74 231.353 187.68 231.473 187.5ZM225.773 188.34L225.493 188.48C226.333 192.5 228.133 194.8 230.873 196.46C231.193 195.36 231.873 194.66 232.793 194.48L232.813 194.26C229.793 193.3 226.893 191.56 225.773 188.34ZM224.853 191.88L223.373 189.64C221.593 192.32 217.953 194.94 214.393 196.24L214.513 196.54C218.493 195.72 222.493 193.9 224.853 191.88ZM223.533 189.24L222.093 187.14C220.613 189.18 217.633 191.58 214.933 192.86L215.033 193.12C218.153 192.3 221.533 190.72 223.533 189.24ZM221.433 186.42L221.253 186.58C223.573 189.4 223.653 194.06 222.853 195.3C222.733 195.48 222.533 195.52 222.253 195.52C221.773 195.52 220.453 195.44 219.633 195.36L219.633 195.6C220.433 195.8 221.073 196.06 221.333 196.34C221.633 196.66 221.773 197.14 221.793 197.8C223.233 197.8 224.233 197.56 224.733 196.94C226.233 195.1 225.953 189.3 221.433 186.42ZM224.633 184.96L224.633 184.64L221.673 184.64C220.213 186.32 217.733 188.28 215.073 189.5L215.213 189.74C218.993 188.76 222.593 187.12 224.633 184.96ZM227.953 183.08L226.713 184.64L217.153 184.64L217.313 185.2L229.613 185.2C229.893 185.2 230.113 185.1 230.153 184.88C229.333 184.14 227.953 183.08 227.953 183.08ZM248.093 191.74L247.873 191.86C248.973 193.38 250.313 195.5 250.753 197.26C252.893 198.9 254.513 194.5 248.093 191.74ZM236.553 179.08L236.353 179.2C236.993 180 237.613 181.26 237.673 182.38C239.553 183.92 241.593 180.16 236.553 179.08ZM238.373 183.38L236.113 183.38C236.093 188.26 236.253 193.28 233.933 197.46L234.193 197.74C238.173 194.02 238.293 188.8 238.373 183.38ZM240.773 186.52L237.253 186.52L237.253 187.1L240.773 187.1L240.773 186.52ZM239.633 186.52L239.853 186.52C239.713 191.9 239.433 194.36 238.873 194.88C238.713 195.02 238.533 195.08 238.233 195.08C237.873 195.08 237.013 195.02 236.513 194.98L236.493 195.26C237.133 195.42 237.553 195.64 237.793 195.94C238.033 196.22 238.073 196.72 238.073 197.38C239.013 197.38 239.793 197.12 240.393 196.6C241.353 195.7 241.733 193.54 241.893 187.42C242.313 187.36 242.573 187.24 242.733 187.08L240.753 185.4L239.633 186.52ZM240.973 181.48L239.813 183.12L234.053 183.12L234.213 183.68L242.533 183.68C242.813 183.68 243.013 183.58 243.073 183.36C242.313 182.6 240.973 181.48 240.973 181.48ZM247.473 179.98L244.353 179.06C243.873 181.62 242.833 184.08 241.693 185.64L241.913 185.82C243.853 184.72 245.533 182.94 246.693 180.4C247.133 180.4 247.393 180.22 247.473 179.98ZM250.753 180.74L249.513 182.44L244.333 182.44L244.333 183.02L252.453 183.02C252.733 183.02 252.953 182.92 253.013 182.7C252.173 181.9 250.753 180.74 250.753 180.74ZM250.413 184.76L249.233 186.36L244.353 186.36L244.353 186.92L251.993 186.92C252.273 186.92 252.493 186.82 252.553 186.6C251.753 185.86 250.413 184.76 250.413 184.76ZM247.273 184.42L244.293 183.54C243.953 185.82 243.113 188 242.133 189.44L242.373 189.6C244.093 188.64 245.513 187.06 246.493 184.82C246.933 184.82 247.193 184.66 247.273 184.42ZM248.553 186.42L246.113 186.42C246.053 191.08 246.173 194.66 240.733 197.48L240.953 197.78C248.153 195.38 248.393 191.62 248.553 186.42ZM250.873 188.58L249.693 190.16L242.213 190.16L242.373 190.72L252.433 190.72C252.733 190.72 252.933 190.62 252.993 190.4C252.213 189.66 250.873 188.58 250.873 188.58ZM255.573 179.5L255.413 179.6C255.993 180.22 256.613 181.26 256.793 182.18C258.813 183.52 260.653 179.72 255.573 179.5ZM259.173 195.22L255.933 195.22L255.933 195.8L259.173 195.8L259.173 195.22ZM258.133 190.62L258.313 190.62L258.313 196.78L258.633 196.78C259.273 196.78 260.193 196.34 260.213 196.18L260.213 191.42C260.553 191.36 260.793 191.22 260.913 191.08L259.033 189.66L258.133 190.62ZM256.773 197.06L256.773 191.18L259.153 191.18L259.153 190.62L256.853 190.62L254.853 189.8L254.853 197.68L255.153 197.68C255.973 197.68 256.773 197.24 256.773 197.06ZM259.773 181.82L258.893 182.98L254.093 182.98L254.253 183.56L260.893 183.56C261.153 183.56 261.353 183.46 261.413 183.24C260.793 182.64 259.773 181.82 259.773 181.82ZM259.133 187.04L258.293 188.1L254.733 188.1L254.893 188.68L260.113 188.68C260.393 188.68 260.573 188.58 260.633 188.36C260.073 187.8 259.133 187.04 259.133 187.04ZM259.153 184.44L258.313 185.52L254.733 185.52L254.893 186.1L260.153 186.1C260.413 186.1 260.613 186 260.653 185.78C260.093 185.22 259.153 184.44 259.153 184.44ZM272.773 186.48L270.233 185.68C269.113 191.32 267.173 194.82 263.553 197.38L263.713 197.7C268.153 195.56 270.473 192.24 271.993 186.84C272.513 186.84 272.693 186.74 272.773 186.48ZM264.453 186.92L264.653 186.92C264.613 190.82 264.533 192.38 264.233 192.78C264.173 192.86 264.113 192.9 263.993 192.9C263.753 192.9 263.233 192.86 262.873 192.84L262.873 193.12C263.273 193.24 263.633 193.44 263.793 193.68C263.953 193.9 264.033 194.34 264.033 194.7C264.593 194.66 265.093 194.56 265.493 194.22C266.233 193.56 266.313 191.9 266.393 187.74C266.773 187.68 267.013 187.56 267.133 187.42L265.393 185.96L264.453 186.92ZM261.453 183.2L261.453 187.58C261.453 190.84 261.353 194.6 259.733 197.62L259.973 197.8C263.213 194.96 263.393 190.64 263.393 187.58L263.393 183.4L263.733 183.4L261.453 182.54L261.453 183.2ZM269.373 179.56L266.533 179.26C266.553 186.38 266.813 192.52 269.873 196.4C270.533 197.26 271.913 198.16 272.793 197.44C273.133 197.16 273.013 196.54 272.473 195.38L272.873 192.06L272.653 192.02C272.353 192.84 271.933 193.84 271.653 194.36C271.473 194.72 271.393 194.74 271.153 194.4C268.733 191.52 268.533 185.86 268.653 180.14C269.173 180.06 269.353 179.82 269.373 179.56ZM271.053 181.96L269.953 183.4L262.693 183.4L262.693 183.98L272.553 183.98C272.833 183.98 273.033 183.88 273.093 183.66C272.333 182.94 271.053 181.96 271.053 181.96ZM269.453 179.76L269.273 179.88C269.793 180.4 270.393 181.3 270.533 182.08C272.313 183.28 273.993 179.94 269.453 179.76ZM265.573 186.92L262.573 186.92L262.573 187.48L265.573 187.48L265.573 186.92ZM290.953 183.54L289.853 185.02L284.873 185.02L285.033 185.58L292.393 185.58C292.673 185.58 292.893 185.48 292.953 185.26C292.213 184.56 290.953 183.54 290.953 183.54ZM289.973 180.06L289.773 180.18C290.293 180.92 290.753 182.12 290.733 183.14C292.293 184.56 294.273 181.4 289.973 180.06ZM289.193 185.18L288.853 185.28C288.933 191.56 289.193 194.9 290.913 197.8C291.373 196.8 292.153 196.2 293.053 196.14L293.093 195.94C290.813 193.76 289.493 190.66 289.193 185.18ZM289.953 179.3L287.073 179.02C287.073 186.94 287.473 193 284.273 197.52L284.533 197.82C289.533 193.8 289.153 187.68 289.213 179.86C289.693 179.78 289.913 179.6 289.953 179.3ZM283.653 182.26L283.873 182.26C283.833 182.82 283.713 183.88 283.613 184.46L283.873 184.58C284.393 184.24 285.173 183.6 285.613 183.16C285.993 183.14 286.213 183.1 286.373 182.96L284.633 181.28L283.653 182.26ZM280.913 183L278.893 182.78L278.893 185.14C278.893 186.06 279.093 186.38 280.413 186.38L281.773 186.38C283.973 186.38 284.593 186.22 284.593 185.6C284.593 185.34 284.413 185.22 283.973 185.08L283.893 185.06L283.713 185.06C283.593 185.1 283.413 185.14 283.313 185.14C283.233 185.16 283.053 185.16 282.953 185.16C282.773 185.18 282.353 185.18 281.933 185.18L280.813 185.18C280.413 185.18 280.353 185.12 280.353 184.92L280.353 183.44C280.673 183.4 280.873 183.22 280.913 183ZM274.973 182.06L274.973 187.48C274.973 190.74 275.033 194.38 273.913 197.26L274.173 197.44C276.873 194.62 276.933 190.56 276.933 187.48L276.933 182.26L277.253 182.26L274.973 181.42L274.973 182.06ZM282.213 182.96L281.593 183.86L277.033 184.24L277.253 184.78L283.113 184.26C283.353 184.24 283.553 184.1 283.573 183.9C283.053 183.5 282.213 182.96 282.213 182.96ZM283.253 179.36L282.273 180.6L279.853 180.6L279.853 181.18L284.573 181.18C284.853 181.18 285.053 181.08 285.113 180.86C284.413 180.22 283.253 179.36 283.253 179.36ZM281.833 179.28L278.953 179.02L278.953 182.6L281.153 182.6L281.153 179.8C281.653 179.72 281.813 179.54 281.833 179.28ZM284.853 182.26L275.953 182.26L275.953 182.84L284.853 182.84L284.853 182.26ZM282.913 189.96L278.673 189.96L278.673 190.54L282.913 190.54L282.913 189.96ZM277.893 187.6L277.893 191.26L278.153 191.26C278.933 191.26 279.413 190.94 279.413 190.84L279.413 188.88L282.433 188.88L282.433 190.96L282.693 190.96C283.453 190.96 283.993 190.68 283.993 190.6L283.993 188.96C284.393 188.9 284.553 188.8 284.693 188.64L283.113 187.48L282.373 188.32L279.633 188.32L277.893 187.6ZM283.593 186.02L282.753 187L277.173 187L277.333 187.56L284.613 187.56C284.893 187.56 285.073 187.46 285.133 187.24C284.533 186.7 283.593 186.02 283.593 186.02ZM282.973 192.66L281.413 192.06C281.253 192.7 280.993 193.62 280.793 194.2L281.233 194.2C281.613 193.78 281.953 193.36 282.213 192.98C282.613 193.02 282.873 192.88 282.973 192.66ZM281.593 196.48L281.593 194.1L280.073 194.1L280.073 196.86L280.333 196.86C281.113 196.86 281.593 196.56 281.593 196.48ZM282.473 193.3L281.993 193.88L278.693 193.88L278.853 194.44L282.913 194.44C283.153 194.44 283.333 194.34 283.373 194.14C283.013 193.74 282.473 193.3 282.473 193.3ZM279.233 192.2L278.993 192.3C279.253 192.64 279.513 193.24 279.553 193.74C280.433 194.48 281.533 192.88 279.233 192.2ZM283.073 191.54L283.253 191.54L283.253 195.24C283.253 195.46 283.193 195.58 282.933 195.58C282.613 195.58 281.433 195.5 281.433 195.5L281.433 195.78C282.073 195.88 282.373 196.06 282.573 196.28C282.773 196.5 282.833 196.9 282.853 197.36C284.733 197.2 284.973 196.56 284.973 195.38L284.973 192.32C285.293 192.26 285.553 192.12 285.653 192L283.833 190.66L283.073 191.54ZM283.793 191.54L278.113 191.54L278.113 192.1L283.793 192.1L283.793 191.54ZM276.913 190.56L276.913 197.56L277.213 197.56C278.113 197.56 278.653 197.16 278.653 197.04L278.653 191.54L278.913 191.54L276.913 190.56Z" fill="black"/>
<path d="M251.536 158L295.054 158" stroke="black"/>
<path d="M0 158L43.5183 158" stroke="black"/>
<defs>
<clipPath id="clip0_443_1288">
<rect width="296" height="115.68" fill="white"/>
</clipPath>
</defs>
</svg>
