<svg width="876" height="59" viewBox="0 0 876 59" fill="url(#SVGID_1_)" xmlns="http://www.w3.org/2000/svg">
<linearGradient id="SVGID_1_" gradientUnits="userSpaceOnUse" x1="-6.9578" y1="29.4292" x2="882.9287" y2="29.4292">
	<stop  offset="0" style="stop-color:#F3EC88"/>
	<stop  offset="0.1429" style="stop-color:#D19E33"/>
	<stop  offset="0.2857" style="stop-color:#F3EC88"/>
	<stop  offset="0.4286" style="stop-color:#D19E33"/>
	<stop  offset="0.5714" style="stop-color:#F3EC88"/>
	<stop  offset="0.7143" style="stop-color:#D19E33"/>
	<stop  offset="0.8571" style="stop-color:#F3EC88"/>
	<stop  offset="1" style="stop-color:#D19E33"/>
</linearGradient>
<path class="st0" d="M362.7,21l-0.3,0.3c2,1.5,4.3,4.1,4.9,6.4C371.4,30,373.9,21.8,362.7,21z M361,17.6l0.3,1h11.2v-1H361z
	 M360.4,28.5l0.3,1.1h12.9v-1.1H360.4z M365.6,28.5v15.6c0,0.4-0.1,0.7-0.7,0.7c-0.7,0-3.9-0.2-3.9-0.2V45c1.6,0.3,2.4,0.7,2.8,1.4
	c0.5,0.6,0.6,1.6,0.7,2.9c4.5-0.4,5.1-2.4,5.1-5.1V28.5H365.6z M372.2,28.5c-0.2,1.9-0.7,5.5-1.2,7.5l0.4,0.3
	c1.6-1.6,3.7-4.2,4.8-5.9c0.7,0,1.1-0.1,1.4-0.4l-3.8-3.6l-2.1,2.1H372.2z M370.9,17.6c-0.7,1.7-2.5,4.6-3.8,6.3l0.3,0.3
	c2.5-1.1,5.8-3.1,7.6-4.6c0.8-0.1,1.2-0.1,1.5-0.4l-3.8-3.7l-2.3,2.2H370.9z M375.1,17.8l0.3,1.1h19.1c0.5,0,0.9-0.2,1-0.6
	c-1.6-1.4-4.3-3.6-4.3-3.6l-2.4,3.1H375.1z M379.5,28.5v1.1h11.1v-1.1H379.5z M379.5,34.1v1h11.1v-1H379.5z M379.5,39.6v1h11.1v-1
	H379.5z M383.1,17.8c-0.1,1.7-0.2,4.3-0.4,5.7h0.7c1.7-1.3,3.7-3.8,5.1-5.7H383.1z M385.5,41.9l-0.3,0.3c2.1,1.6,4.8,4.4,6,6.8
	C395.5,50.9,397.3,42.7,385.5,41.9z M377,23.1v19.6h0.6c1.8,0,3.6-1,3.6-1.4V24.2h9.2v-1.1h-9.1l-4.4-1.8V23.1z M388.7,23.1v19.1
	h0.7c1.5,0,3.5-0.9,3.6-1.1V24.7c0.6-0.1,1.1-0.4,1.3-0.6l-3.9-3l-1.9,2.1H388.7z M380.8,41.6c-1.7,2.4-5.3,5.5-8.6,7.2l0.3,0.5
	c4.2-0.8,9.3-2.7,11.8-4.6c0.6,0.1,1,0.1,1.2-0.2L380.8,41.6z M433.9,16.2l-5.9-1.6c-1,6-3,12.2-5.1,16.3l0.5,0.3
	c3.8-3.3,6.9-8.1,9-14.1C433.3,17,433.7,16.7,433.9,16.2z M437.5,21.7h0.4c-0.4,13.4-1.3,21-2.9,22.4c-0.4,0.4-0.8,0.5-1.4,0.5
	c-0.9,0-3.3-0.2-4.8-0.3v0.5c1.6,0.3,2.9,0.9,3.5,1.5c0.6,0.6,0.7,1.6,0.7,3c2.3,0,3.9-0.6,5.3-2c2.3-2.3,3.2-9,3.7-23.9
	c0.9-0.1,1.4-0.4,1.7-0.7l-3.8-3.4L437.5,21.7z M439.9,21.7h-11.2l-0.5,1.1h11.7V21.7z M428.2,27.9l-0.4,0.2
	c1.3,2.4,2.7,5.8,2.7,8.7C434.3,40.2,438.3,32.4,428.2,27.9z M425,24.5l-4.8-3.3c-1.6,3.7-6.5,10.3-10,12.5
	c-0.4,0.3-1.4,0.5-1.4,0.5l1.8,4.7c1-0.3,1.7-1.7,2-4.1h-2l0,0.4c4.7-2.6,10.8-7.7,13.2-10.9l-1.1,0.1C424,25.1,424.8,24.9,425,24.5
	z M420.9,17.1l-5.2-2.8c-0.8,3-3.7,8.4-5.8,10.2c-0.3,0.2-1.2,0.4-1.2,0.4l1.9,4.7c0.9-0.4,1.7-1.8,1.9-4.1h-2l0,0.4
	c3.2-2,7.4-6.1,9.4-8.8l-1.2,0.2C420,17.9,420.7,17.6,420.9,17.1z M412.9,39.3l-0.5,0c0,2-1.4,4.2-2.5,5c-1,0.7-1.7,1.9-1.1,3.1
	c0.7,1.3,2.7,1.4,3.6,0.4C413.7,46.3,414.2,43.4,412.9,39.3z M420,38l-0.4,0.2c1.1,1.7,2.2,4.2,2.3,6.4C425,47.3,428.5,40.8,420,38z
	 M416.1,38.7l-0.4,0.1c0.4,2,0.5,4.7,0,7.1C418.3,49.3,422.8,43.6,416.1,38.7z M419.4,29.9l-0.4,0.2c1,1.8,2.2,4.5,2.3,6.8
	C424.3,39.6,427.9,33.4,419.4,29.9z M409.8,34.3l1.4,4c4.9-1.7,9.2-3.4,11.4-4.4l0-0.5C417.3,33.9,412,34.2,409.8,34.3z M409.2,25.1
	l1.6,4c4-1.3,7.5-2.7,9.2-3.5V25C415.7,25.1,411.2,25.1,409.2,25.1z M466.3,27.9v1h15.2v-1H466.3z M465.2,23.7v6.8h0.6
	c1.7,0,3.6-0.9,3.6-1.2v-4.5h12.1v-1h-11.8l-4.4-1.7V23.7z M478.7,23.7v6.3h0.7c1.3,0,3.5-0.7,3.5-1v-3.7c0.6-0.1,1-0.4,1.2-0.7
	l-4-2.9l-1.8,2H478.7z M464.2,34.8v1h19.2v-1H464.2z M464.2,38.3v1.1h19.2v-1.1H464.2z M464.2,41.9v1h19.2v-1H464.2z M481.2,31.2
	v12.6h0.7c1.3,0,3.5-0.8,3.5-1v-10c0.7-0.1,1.1-0.4,1.3-0.7l-4-3l-2,2.1H481.2z M462.7,31.2v13.4h0.6c1.7,0,3.6-0.9,3.6-1.3v-11h16
	v-1h-15.8l-4.5-1.8V31.2z M469.4,42.6c-2.4,2.3-7.4,5-12.2,6.3l0.1,0.5c5.5-0.3,11.2-1.6,14.6-3.4c1.1,0.3,1.8,0.1,2.1-0.3
	L469.4,42.6z M475.6,44.1l-0.1,0.5c4.7,1,8,2.8,9.7,4.1C489.3,51.5,497,43.8,475.6,44.1z M461.2,20.5v1h26.6v-1H461.2z M461.2,18.5
	c0.2,1.8-1,3.6-2.2,4.2c-1.2,0.5-2.1,1.5-1.7,2.9c0.4,1.4,2,1.8,3.3,1.2c1.9-0.9,3.1-4,1.1-8.4L461.2,18.5z M485.3,20.5
	c-0.1,1.2-0.5,3.3-0.9,4.5l0.3,0.3c1.6-0.7,3.9-1.9,5.1-2.8c0.8,0,1.1-0.1,1.4-0.5l-4-3.8l-2.4,2.4H485.3z M471.8,14.6V21h4.3V16
	c0.9-0.1,1.2-0.5,1.3-0.9L471.8,14.6z M463.2,14.8l-0.3,0.2c1.2,1.2,2.4,3.3,2.6,5.1C468.9,22.7,472.4,15.8,463.2,14.8z M480.6,14.8
	c-0.6,1.9-1.6,4.7-2.4,6.4h0.5c2.1-1.2,4.8-3,6.4-4.2c0.8,0,1.3-0.3,1.4-0.7L480.6,14.8z M509.2,16.7v9.9c0,7.5-0.4,15.7-4.6,22.3
	l0.4,0.3c8.1-6.1,8.6-15.6,8.6-22.6v-9.5h0.7l-5.1-1.8V16.7z M532.1,17.1h0.4v8.3h0.7c1.3,0,3.5-0.7,3.5-0.9v-5.7
	c0.7-0.1,1.3-0.5,1.5-0.8l-4.2-3.1L532.1,17.1z M535.2,22.9h-23.7v1h23.7V22.9z M534.8,17.1h-23.5v1h23.5V17.1z M514.3,33.8l1.8,3.8
	c8-1.4,14.4-2.8,18.1-3.8l0-0.6C525.7,33.6,517.8,33.9,514.3,33.8z M527.3,28.2v-0.4h-5.7c-1.1,1.6-4.1,4.7-6.5,5.6
	c-0.4,0.1-1.2,0.3-1.2,0.3l1.9,4.7c1-0.4,1.7-1.9,1.9-4.3h-1.9v0.4C519.4,33.3,524.6,30.6,527.3,28.2z M527.9,30l-0.3,0.3
	c2.4,1.6,5.4,4.4,6.6,6.8C538.7,39.1,540.4,30.5,527.9,30z M535.5,43.7l-2.2,3h-22.5l0.3,1.1h27.5c0.5,0,0.9-0.2,1-0.6
	C538.1,45.8,535.5,43.7,535.5,43.7z M533,38l-2.2,2.7h-17.2l0.3,1H536c0.5,0,0.9-0.2,1-0.6C535.4,39.8,533,38,533,38z M534.4,24.9
	l-2.3,2.7h-18.2l0.3,1h23.2c0.6,0,0.9-0.2,1-0.6C536.9,26.8,534.4,24.9,534.4,24.9z M528.2,36.9l-5.4-0.4v10.8h4.2v-9.4
	C527.8,37.7,528.1,37.4,528.2,36.9z M291.6,29H0v0.9h291.6V29z M875.8,29H604.4v0.9h271.4V29z M559.4,58.4v0.5H341
	c-14.2,0-25.8-11.7-25.8-26.1v-6.7C315.2,11.7,326.7,0,341,0h218.4c14.2,0,25.8,11.7,25.8,26.1v6.7c0,14.4-11.5,26.1-25.8,26.1v-1
	c13.7,0,24.8-11.2,24.8-25.1v-6.7c0-13.9-11.1-25.1-24.8-25.1H341c-13.7,0-24.8,11.2-24.8,25.1v6.7c0,13.9,11.1,25.1,24.8,25.1
	h218.4V58.4z"/>
</svg>
