<?xml version="1.0" encoding="utf-8"?>
<!-- Generator: Adobe Illustrator 28.1.0, SVG Export Plug-In . SVG Version: 6.00 Build 0)  -->
<svg version="1.1" id="_圖層_2" xmlns="http://www.w3.org/2000/svg" xmlns:xlink="http://www.w3.org/1999/xlink" x="0px" y="0px"
	 viewBox="0 0 1177 355.5" style="enable-background:new 0 0 1177 355.5;" xml:space="preserve">
<style type="text/css">
	.st0{fill:#FFFFFF;}
	.st1{fill:#FAD5A2;}
	.st2{fill:none;stroke:#FFFFFF;stroke-miterlimit:10;}
</style>
<g>
	<path class="st0" d="M20.8,174.4H9.4l-3,10.2H0.6L12,150h7.3l11.8,34.6h-7.3L20.8,174.4L20.8,174.4z M15.3,155.1H15
		c-0.8,3.6-3.4,11.6-4.5,15.4h9.2C18.6,166.8,16,158.7,15.3,155.1L15.3,155.1z"/>
	<path class="st0" d="M58.3,159.4c0.2,6.9-7.2,14.4-14.1,20.4v0.3H59v4.2H36.3V181c7.1-5.4,15.9-15.2,15.5-21.2
		c0.9-9-10.2-7.8-14.6-3.4v-4.9C44.3,147.1,59.3,148.6,58.3,159.4L58.3,159.4z"/>
	<path class="st0" d="M98.8,187.3c-1.8-0.9-3.3-2.2-4.6-4.1c-3.5,2.4-7.7,4.1-12.6,5l-0.7-2.1c4.2-1.4,8-3.5,11.3-6.5
		c-1.1-2.4-1.9-5.2-2.5-8.3h-4.2c-0.1,0.8-0.2,1.6-0.3,2.3c2.4,1.4,4.4,3,5.8,4.4l-3.3,3.4c-0.8-1.3-2-3.1-3.1-4.7
		c-1.3,4.6-3.7,8.9-7.9,11.6l-1.5-1.7c3.4-3.7,5-8.2,5.6-15.3h-4.3v-2.8H81c0-1,0.1-2.2,0.1-3.3h4.8c0,1.1,0,2.2-0.1,3.3h3.5
		c-0.2-1.3-0.4-2.7-0.6-4.1l-2.6,0.8c-0.1-0.9-0.3-1.7-0.5-2.6c-2.7,1.4-5.1,2-7,2.4c0.2,0.3,0.5,0.7,0.7,1l-3.4,2
		c-0.4-1.1-0.9-2.4-1.4-3.7v23.9H69v-17.8c-0.8,2.6-2,5.3-3.6,8l-1.9-1.3c2-4.6,3.7-11.6,4.8-19.5h-3.6v-2.8H69V145h5.3v9.9h2.9v2.8
		h-2.9v2.3c1.6,1.6,3,3.3,4,4.9l-1-3.6c0.8,0,1.6,0,2.4-0.1c0.8-1.4,1.6-2.8,2.3-4.1c-1.3,0.5-2.4,0.9-3.6,1.1l-0.9-4.1
		c0.6,0.1,1,0.1,1.6,0.1c0.8-2.8,1.5-6.4,1.9-8.9l4.3,1.2c-1.1,2.6-2.4,5.4-3.9,7.7c0.7-0.1,1.3-0.1,1.9-0.1c0.5-1.3,1-2.5,1.4-3.8
		l3.2,1.4v-6.8h5c0,2.1,0,7,0.1,9.1c0.5,0,1,0.1,1.6,0.1c0.8-2.7,1.5-6.2,1.8-8.7l4.4,1.2c-1.1,2.7-2.4,5.2-3.8,7.4l2.2-0.1
		c0.5-1.2,1-2.4,1.5-3.7l4.1,1.8c-1.8,3.2-4.2,6.5-6.7,9.1c1.1-0.1,2.1-0.2,3.2-0.3c-0.2-0.8-0.4-1.5-0.6-2.2l1.7-0.7
		c1.5,1.9,2.8,4.6,3.5,6.6l-3.6,1.1c-0.1-0.9-0.3-1.8-0.5-2.8c-1,0.5-2.1,0.9-3.1,1.3c1.4,1.2,2.6,2.6,3.4,3.6l-1.7,1.1h5.4v2.8h-11
		c0.3,1.6,0.8,3,1.3,4.3c1.1-1.3,2.1-2.8,3-4.3l4.2,2.7c-1.4,2.2-3.1,4.1-5,5.9c2.6,3,5,5.4,4.8-2.7h2.2
		C107.6,186.3,105.1,190.4,98.8,187.3L98.8,187.3z M88.3,161.9c-0.2-2.8-0.4-5.8-0.4-8.8c-1.6,2.7-3.7,5.6-5.7,7.9l2.8-0.3
		c-0.1-0.7-0.3-1.4-0.5-2l1.7-0.7C87.1,159.3,87.8,160.6,88.3,161.9z M94.1,168.6h4.2c-0.5-1.2-1.2-2.7-1.9-4
		c-0.7,0.2-1.3,0.4-1.8,0.5l-1-4.1h1.8c0.8-1.5,1.6-3,2.3-4.4c-1.2,0.6-2.4,0.9-3.8,1.3L93,154C93,159.3,93.4,164.3,94.1,168.6
		L94.1,168.6z"/>
	<path class="st0" d="M122.8,183.1c0,4.3-3.6,6.7-11,2.7l0.5-2.2c4.4,0.7,4.9,0.3,4.9-1.8v-9.3c-1.4,0.7-2.8,1.3-4.2,1.8l-1.9-5.8
		c2-0.3,4.1-0.8,6.1-1.2v-9.5h-5.3V155h5.3v-10h5.6v10h4.3v2.8h-4.3v8.1c1.3-0.4,2.6-0.8,3.7-1.2l0.9,2c-1.5,1.1-3.1,2.1-4.7,3
		L122.8,183.1L122.8,183.1z M154.2,181.4l-1.4,5.9c-8.1,0.2-17.7,2-22.2-6.9c-1.6,3.3-3.9,6.1-7,8.2L122,187
		c3.7-3.8,5.1-10,5.9-15.7l5.4,1.2c-0.4,1.7-0.9,3.4-1.5,5c1,1.6,2.1,2.6,3.4,3.3v-11H128v-2.7h7.2v-3.2h-9.5v-2.8h9.5V158h-6.8
		v-2.7h6.8v-2.8h-9.9v-2.8h9.9V145h5.7v4.7h12v2.8h-12v2.8h8.6v5.8h4v2.8h-4v6h-8.6v4h11v2.8h-11v5.5
		C145.1,182.3,149.6,182.2,154.2,181.4L154.2,181.4z M140.9,158v3.1h3.2V158H140.9z M144.1,163.8h-3.2v3.2h3.2V163.8z"/>
	<path class="st0" d="M160,180.8h40.7v4.4H160V180.8z M163.5,148.1h33.7v4.3h-33.7V148.1z M166.8,163.4h27.1v4.3h-27.1V163.4z"/>
	<path class="st0" d="M248.2,183.9v3h-41.4v-3h17.6v-3.4h-14.2v-2.9h14.2v-3.1h-12.6v-15.3h12.6v-2.9h-16.7v-3h16.7v-2.7
		c-5,0.2-9.8,0.2-13.4,0.1l-0.3-2.5c9.3-0.4,20.3-1.8,28.7-4.2l4.6,4.7c-3.7,0.8-8.5,1.3-13.5,1.6v3h17.2v3h-17.2v2.9h12.7v15.3
		h-12.7v3.1h14.4v2.9h-14.4v3.4L248.2,183.9L248.2,183.9z M224.4,162.1h-6.7v3.2h6.7V162.1z M224.4,168.2h-6.7v3.4h6.7V168.2z
		 M230.5,162.1v3.2h6.8v-3.2H230.5z M237.3,168.2h-6.8v3.4h6.8V168.2z"/>
	<path class="st0" d="M271.7,175.2l0.9,2.3c-4.3,3.2-11.8,6.5-17.5,8.1l-1.9-6.3c3.3-0.4,6.9-1,10.7-1.9c0.9-5,1.9-12.5,2.3-19.1
		l5.8,0.9c-0.9,6.1-2.9,12.7-4.9,17.4C268.7,176.1,270.2,175.6,271.7,175.2L271.7,175.2z M274.3,157.1h-20.4v-2.9h8.1
		c-0.6-3-1.6-6.3-2.5-9.1l2.3-0.9c2.4,2.6,4.3,5.8,5.6,8.6l-4.3,1.5h11.2L274.3,157.1L274.3,157.1z M255.8,159.1l2.3-0.6
		c2.7,5.4,4.6,12.2,5.2,17l-5.8,0.9C257.3,171.8,256.7,165.2,255.8,159.1L255.8,159.1z M285.6,158.1v9.1h8.5v20.9h-5.8v-3.6h-9.9
		v3.7h-5.8v-21h6.8v-22.4h6.2v10.4h10v2.9L285.6,158.1L285.6,158.1z M278.5,170.1v11.6h9.9v-11.6H278.5z"/>
	<path class="st0" d="M333.5,157.1c-2,11.6-7.7,22.7-17.4,28l-1.4-2.1c7.6-7,10.8-15.4,12.1-23.9h-10.5v-3h10.1l1.6-1.2L333.5,157.1
		L333.5,157.1z M358.2,179.5l-4.8,6.3c-5-3.7-10.2-11-13.5-22.5c-1.2,10.2,5.9,33.3-14.5,22.3l0.6-2.4c6.8,1.1,7.7,0.4,7.7-2.5V145
		h6.2c-0.5,5.4,0.6,11.9,3,16.7c2.6-2.6,5.4-5.8,7.8-9.7l5.5,4.4c-4,3.5-8.4,6.2-11.9,8C347.3,170.5,351.9,175.7,358.2,179.5
		L358.2,179.5z"/>
	<path class="st0" d="M361.7,187.1c3.4-5.1,3.9-10.6,3.9-27.8h37.1v3h-31.3c0,13.6-1.6,20.5-7.8,26.4L361.7,187.1L361.7,187.1z
		 M366.9,146.5h5.9v7.1h7.5v-8.9h6.1v8.9h7.5v-7.1h6v9.9h-33V146.5L366.9,146.5z M383.9,177.1h-12.2v-2.9h12.2v-5.7H374v-2.9h26.7
		v2.9H390v5.7h13.1v2.9H390v11.3h-6.2L383.9,177.1L383.9,177.1z"/>
	<path class="st0" d="M426,181.7c-1-1.7-2.1-3.4-3.1-4.9v11.3h-5.7v-9.6c-2.2,3.1-5,5.7-7.5,7.3l-1.4-1.8c3.1-3.2,5.9-7.1,7.7-12.1
		h-6V169h7.1v-5.3h5.7v5.3h6v2.9h-6v1.4c2.6,1.5,4.9,3.2,6.7,5.1L426,181.7L426,181.7z M422.8,152.8h-11.4v-2.9h15.3v-5.1h6v5.1
		h15.2v2.9h-13.7c4.5,3.2,9.7,5,15.9,6.3l-2.9,5.7c-5.7-1.8-11-5-14.4-9.5v10.1h-6V156c-4,4.4-10.3,7.4-16.8,9.1l-0.8-2.2
		C415.2,160.3,419.9,156.8,422.8,152.8L422.8,152.8z M452.1,180.7l-3.8,4.8c-2.4-2-4.5-4.9-6.2-8.3v11.1h-5.8v-10.6
		c-2.2,3.2-5.8,6.5-8.6,8.1l-1.3-1.8c3.8-3.7,6.1-6.9,8.2-12.1h-4.5V169h6.2v-5.3h5.8v5.3h7.1v2.9h-6.9
		C445.1,176.2,448.7,178.7,452.1,180.7L452.1,180.7z"/>
	<path class="st0" d="M462.4,165.4c-2-2.9-5-6.6-6.9-8.9l1.5-2.1c2.8,1.2,7.1,4,9.7,6.4L462.4,165.4z M464.9,166.6l2.3,0.7
		c-0.9,6.4-2.9,15.6-4.5,20.4l-6.5-3.1C459,179.8,462.2,173,464.9,166.6L464.9,166.6z M464,154.9c-2.1-2.9-4.9-6.3-6.7-8.5l1.6-2
		c2.8,1.2,6.9,3.7,9.5,6L464,154.9z M485.9,161.9v7.4h9.8v18.9h-5.9V185H476v3.2h-5.9v-19h9.7v-7.4h-11.9v-3h11.9v-6.6
		c-3.9,0.4-7.5,0.7-9.9,0.7l-0.5-2.5c5.9-0.9,16.2-3.3,22-6.2l5,4.9c-2.9,0.9-6.6,1.6-10.5,2.2v7.4h12.3v3h-12.3V161.9z M476,172.3
		v9.9h13.8v-9.9H476z"/>
	<path class="st0" d="M8.6,232.1c-0.9,0-1.8,0.1-2.8,0.2v-4.5c17.3-2.9,6.1-19.1-5-9v-5.5c18.9-8.4,29.6,9.6,12.9,15.9v0.3
		c18.9,3.3,10.3,28.2-13.3,20.8L0,245.9C18.2,252.7,22.3,233.7,8.6,232.1L8.6,232.1z"/>
	<path class="st0" d="M27.6,232.1c-0.5-27.4,28.6-27.1,27.8-0.9C57.1,257.7,27,258.5,27.6,232.1z M48,231.3
		c0.6-20.9-13.3-21.3-13,0.5C34.7,253,49,252.6,48,231.3z"/>
	<path class="st0" d="M84.6,227.5v5.6h-19v-5.6H84.6z"/>
	<path class="st0" d="M100.7,251.3c-2.1,0-3.7-0.2-5.4-0.4l-0.5-3.8c21.9,4.9,20-24.5,6.4-14.9l-5.2-0.8l0.7-19.1h19.8v4.6h-13.4
		l-0.4,10.3l0.3,0.1C125.1,220.6,123.2,253.3,100.7,251.3L100.7,251.3z"/>
	<path class="st0" d="M122.4,232.1c-0.5-27.4,28.6-27.1,27.8-0.9C151.9,257.7,121.8,258.5,122.4,232.1z M142.8,231.3
		c0.6-20.9-13.3-21.3-13,0.5C129.4,253,143.8,252.6,142.8,231.3z"/>
	<path class="st0" d="M173,238.6l0.9,2.1c-4.6,3.3-10.7,6.1-16.2,8.2l-1.7-6.2c1.7-0.2,3.7-0.6,5.8-1.1v-15.4h-5.1v-2.9h5.1v-12.6
		h5.9v12.6h4.9v2.9h-4.9v13.9C169.5,239.7,171.3,239.2,173,238.6L173,238.6z M198.9,234.2v3h-11.2V255h-6.3v-17.8h-11.2v-3h11.2
		v-18.4h-9.6v-2.9h25.6v2.9h-9.7v18.4H198.9L198.9,234.2z M175.8,232.4c-0.9-4.6-2.2-9.3-3.4-13.3l2.2-1c2.4,3.2,5.4,8.1,6.8,12.2
		L175.8,232.4z M191.9,217.6l5.8,2.3c-1.7,4.3-5.1,9.6-7.7,12.5l-2.1-1.1C189.6,227.1,191,222,191.9,217.6L191.9,217.6z"/>
	<path class="st0" d="M244.9,222.9c0.3,7.7-8,16-15.7,22.7v0.3h16.4v4.7h-25.2V247c7.9-6.1,17.8-16.9,17.2-23.6
		c1-10-11.4-8.7-16.2-3.8V214C229.3,209.1,246,210.7,244.9,222.9L244.9,222.9z"/>
	<path class="st0" d="M270.3,233.6l-0.2-0.2c-1.4,2.1-5.3,4.1-9.5,3.6c-14.7-1.6-12.2-27,3.3-25.8c22.7,0.6,16,42.3-9.8,40.6
		l-0.7-3.7C265.6,246.7,269.3,239.7,270.3,233.6L270.3,233.6z M270,228.4c3.9-12.9-10.8-20.1-11.8-4.2
		C257.3,231.8,267,235.8,270,228.4z"/>
	<path class="st0" d="M290.3,230.7v-0.3c-11.3-3.4-7.8-19.5,5.5-19.1c13.7-0.3,16.2,15.9,5.2,19.1v0.3c12.9,4.4,10.1,22.4-5.4,21.2
		C280.5,252.7,277.6,234.8,290.3,230.7L290.3,230.7z M295.7,247.4c9.3,0.2,7.9-14.6-0.6-14.7C287.3,234.2,287.3,247.4,295.7,247.4z
		 M301,221.7c0.4-7.8-10.9-8.2-10.8-0.1C290.3,229.9,301.6,230.7,301,221.7z"/>
	<path class="st0" d="M333.3,233.6l-0.2-0.2c-1.4,2.1-5.3,4.1-9.5,3.6c-14.7-1.6-12.2-27,3.3-25.8c22.7,0.6,16,42.3-9.8,40.6
		l-0.7-3.7C328.5,246.7,332.3,239.7,333.3,233.6L333.3,233.6z M333,228.4c3.9-12.9-10.8-20.1-11.8-4.2
		C320.3,231.8,330,235.8,333,228.4z"/>
	<path class="st0" d="M369,227.5v5.6h-19v-5.6H369z"/>
	<path class="st0" d="M395.2,233.6l-0.2-0.2c-1.4,2.1-5.3,4.1-9.5,3.6c-14.7-1.6-12.2-27,3.3-25.8c22.7,0.6,16,42.3-9.8,40.6
		l-0.7-3.7C390.4,246.7,394.2,239.7,395.2,233.6L395.2,233.6z M394.9,228.4c3.9-12.9-10.8-20.1-11.8-4.2
		C382.2,231.8,391.9,235.8,394.9,228.4z"/>
	<path class="st0" d="M421,251.6c-23.5-1.7-15.1-42.8,8.9-40.2l0.6,3.7c-10.9,0.1-15.9,7.6-16.2,14.8l0.3,0.1
		c5.7-9.4,20.8-2.8,19.8,7.7C434.4,245,430.8,251.6,421,251.6z M421,229.9c-8.9-0.7-7.7,18.1,0.2,17.5
		C429.2,248.4,428.8,228.8,421,229.9z"/>
	<path class="st0" d="M447.7,230.7v-0.3c-11.3-3.4-7.8-19.5,5.5-19.1c13.7-0.3,16.2,15.9,5.2,19.1v0.3c12.9,4.4,10.1,22.4-5.4,21.2
		C437.9,252.7,435,234.8,447.7,230.7L447.7,230.7z M453.1,247.4c9.3,0.2,7.9-14.6-0.6-14.7C444.7,234.2,444.6,247.4,453.1,247.4z
		 M458.4,221.7c0.4-7.8-10.9-8.2-10.8-0.1C447.7,229.9,459,230.7,458.4,221.7z"/>
	<path class="st0" d="M480,230.7v-0.3c-11.3-3.4-7.8-19.5,5.5-19.1c13.7-0.3,16.2,15.9,5.2,19.1v0.3c12.9,4.4,10.1,22.4-5.4,21.2
		C470.2,252.7,467.3,234.8,480,230.7z M485.4,247.4c9.3,0.2,7.9-14.6-0.6-14.7C477,234.2,476.9,247.4,485.4,247.4z M490.7,221.7
		c0.4-7.8-10.9-8.2-10.8-0.1C480,229.9,491.3,230.7,490.7,221.7z"/>
</g>
<g>
	<path class="st1" d="M8.5,300.1c-0.4,4.3,2.2,14.6-6.5,9.4l0.3-1.3c2.7,0.4,3,0.2,3-1v-5.5c-0.9,0.4-1.7,0.7-2.5,1l-1.1-3.3
		c1.2-0.2,2.4-0.4,3.6-0.7v-5.4H2v-1.7h3.3v-6.2h3.2v6.2h2.7v1.7H8.5v4.6c0.8-0.2,1.5-0.5,2.2-0.7l0.5,1.2
		C10.4,299,9.5,299.6,8.5,300.1L8.5,300.1z M23,301.5c-0.4,1.6-1.1,3-2,4.2c1.7,0.7,3.3,1.4,4.8,2.3l-2,3.1c-1.5-1.2-3-2.3-4.7-3.3
		c-2.2,1.8-5.4,2.9-9.6,3.2l-0.3-1.3c3.5-0.7,5.9-1.7,7.5-3.2c-0.7-0.4-1.4-0.7-2.2-1.1c-0.4,0.7-0.7,1.2-1,1.7l-2.5-1.2
		c0.7-1.1,1.5-2.6,2.3-4.3H9.6V300H14c0.4-1,0.8-1.9,1.1-2.8H10v-1.6h4.2c-0.6-1.6-1.2-3-1.8-4.2l0.9-0.6h-2.7V289h6.7
		c-1.1-0.9-2.4-1.9-3.4-2.6l0.6-1.2c1.7,0.4,4.3,1.3,5.9,2.1l-1.1,1.7h5.6v1.6h-3.6l2.6,1c-0.9,1.4-1.9,2.7-2.9,3.8h4.5v1.6H15.3
		l2.6,0.8c-0.2,0.6-0.5,1.3-0.8,2h8.6v1.6L23,301.5L23,301.5z M17.1,294.5l-1.5,0.9h3.5c0.6-1.5,1.1-3.2,1.4-4.8h-6.8
		C14.9,291.6,16.2,293.1,17.1,294.5L17.1,294.5z M19.6,301.5h-3.2c-0.4,0.8-0.8,1.6-1.2,2.5c1,0.2,2,0.5,3,0.8
		C18.8,303.8,19.2,302.7,19.6,301.5z"/>
	<path class="st1" d="M34.8,296.5v14.3h-3.3v-10.7c-0.8,0.7-1.7,1.4-2.5,2l-1-1.1c2.5-2.6,4.8-6.4,6.3-10.2l3,1.6
		c-0.3,0.5-0.6,1.1-0.9,1.6H42v-3.2h-4.8v-1.7H42v-3.6h3.4v3.6h5v1.7h-5v3.2h6.1v1.7H36.4V294C36,294.9,35.4,295.7,34.8,296.5
		L34.8,296.5z M29,294.5l-0.8-1.1c2.1-2.1,3.8-5,5.2-8.2l3.1,1.6C34.9,289.4,32,292.7,29,294.5z M52,299v1.7h-3.4
		c0,5.4,1.6,13.9-8,8.9l0.3-1.4c3.9,0.5,4.2,0.4,4.2-1.2v-6.3h-9.4V299h9.4v-2.7h3.5v2.7H52L52,299z M43.1,305.3l-2.6,2
		c-0.8-1.6-2.1-3.7-3.1-5.2l1-1C39.9,302.2,42,304,43.1,305.3L43.1,305.3z"/>
	<path class="st1" d="M77.1,295c-0.5-0.2-1.1-0.4-1.6-0.6v5.9H57v-6.1c-0.8,0.3-1.6,0.6-2.5,0.8l-0.5-1.3c4.6-2,9-5.6,11.1-8.8
		l3.7,1.6c-0.2,0.3-0.5,0.6-0.7,0.9c3.4,2.2,7.3,3.6,10.5,4.3L77.1,295L77.1,295z M58.5,301.5h15.6v9.3h-3.3v-1.3h-8.9v1.3h-3.3
		L58.5,301.5L58.5,301.5z M73.9,293.6c-1.2-0.6-2.4-1.4-3.5-2.2v0.9h-7.8v-0.6c-1.2,0.7-2.5,1.3-3.9,1.9L73.9,293.6L73.9,293.6z
		 M60.4,295.5l0.5-0.4H60v3.5h2.1C61.6,297.6,60.9,296.3,60.4,295.5z M64.8,295.2h-3c0.9,0.7,1.9,1.7,2.6,2.6l-1.3,0.9h1.8
		L64.8,295.2L64.8,295.2z M61.8,303.1v1.6h8.9v-1.6H61.8z M70.7,308v-1.7h-8.9v1.7H70.7z M64.1,290.7h5.4c-0.9-0.7-1.7-1.5-2.4-2.2
		C66.2,289.2,65.2,290,64.1,290.7L64.1,290.7z M67.7,295.2v3.5h1l-0.5-0.4c0.6-1,1.2-1.9,1.7-3.1H67.7z M72.5,295.2h-1.7l1.6,0.9
		c-0.9,1-1.8,2-2.7,2.6h2.8L72.5,295.2L72.5,295.2z"/>
	<path class="st1" d="M95.1,299.6v2.5h7.8v8.6h-3v-2h-4.8v2.1H92V294h-1.2v-2.6l-1.5,1.2c-0.6-1.3-1.4-2.6-2.3-3.9
		c-0.3,0.4-0.5,0.9-0.8,1.3c0.9,0.7,1.7,1.7,2.3,2.6l-1.8,1.2h4v8.5h-5.3v4.3c0.8-0.2,1.6-0.4,2.3-0.6c-0.3-0.8-0.7-1.5-1-2.2
		l1.2-0.7c1.6,1.5,3.2,4,4,5.7l-2.7,1.4c-0.2-0.8-0.5-1.8-0.9-2.7c-2.1,1.4-4.7,2.5-6.7,3l-1-3.2c0.6-0.1,1.2-0.1,1.8-0.2v-12.8
		c-0.5,0.4-0.9,0.8-1.4,1.1l-0.8-1.1c2.3-2.5,3.9-5.5,4.9-9l3.2,1c-0.1,0.3-0.3,0.7-0.4,1c1.2,0.8,2.3,1.8,3.1,2.7v-0.8h6
		c-0.9-0.9-1.9-1.8-3-2.7l0.6-1.2c1.8,0.5,3.6,1.4,5.2,2.5l-1.1,1.4h5.1v4.9h-1.4v5.6L95.1,299.6L95.1,299.6z M85.3,291.2
		c-0.7,0.9-1.4,1.7-2.3,2.4h3.4C86,292.8,85.7,292,85.3,291.2z M87.8,295.3h-2.4v1.8h2.4V295.3z M87.8,298.6h-2.4v2h2.4V298.6z
		 M100.8,293.4v-2.6h-7v2.6H100.8z M99.4,295.1h-4.3v2.9h4.3V295.1z M95.1,303.8v3.4h4.8v-3.4H95.1z"/>
	<path class="st0" d="M113.5,306.5h23.2v2.6h-23.2C113.5,309,113.5,306.5,113.5,306.5z M115.5,287.4h19.2v2.5h-19.2V287.4z
		 M117.4,296.3h15.4v2.5h-15.4V296.3z"/>
	<path class="st0" d="M162.9,308.2v1.8h-23.6v-1.8h10.1v-2h-8.1v-1.7h8.1v-1.8h-7.2v-8.9h7.2v-1.7h-9.5v-1.7h9.5v-1.6
		c-2.9,0.1-5.6,0.1-7.6,0.1l-0.2-1.5c5.3-0.2,11.6-1.1,16.4-2.5l2.6,2.8c-2.1,0.4-4.8,0.7-7.7,0.9v1.8h9.8v1.7h-9.8v1.7h7.2v8.9
		h-7.2v1.8h8.2v1.7h-8.2v2L162.9,308.2L162.9,308.2z M149.3,295.6h-3.8v1.9h3.8V295.6z M149.3,299.1h-3.8v2h3.8V299.1z M152.8,295.6
		v1.9h3.9v-1.9H152.8z M156.7,299.1h-3.9v2h3.9V299.1z"/>
	<path class="st0" d="M187.5,286.6v20.9c0,3.1-2.5,4.4-7.2,1.9l0.4-1.4c3.1,0.4,3.6,0.3,3.6-1.1v-5.8h-3.1c-0.5,3.9-1.8,7.3-5.2,10
		l-1-1c1.1-1.5,1.9-2.9,2.4-4.6h-4.3v5.4h-3.4v-5.4h-5v-1.7h5v-2.2H166v-9.4h3.7V290h-4.5v-1.6h4.5v-2.9h3.4v2.9h4.4v1.6h-4.4v2.2
		h3.7v9.4h-3.7v2.2h4.3v1.5c1.2-3.8,0.8-13.5,0.9-18.6L187.5,286.6L187.5,286.6z M169.1,296h4.7v-2.2h-4.7V296z M173.8,299.9v-2.2
		h-4.7v2.2H173.8z M184.3,299.4v-4.8h-2.8c0,1.6,0,3.3-0.2,4.8H184.3L184.3,299.4z M181.5,288.3v4.7h2.8v-4.7H181.5z"/>
	<path class="st0" d="M205.3,298.1c-0.3,0.5-0.6,1.1-0.9,1.6h9.4c-0.8,6.2,1.1,14.2-7.7,9.6l0.5-1.3c5.6,1.7,3.1-3.4,4.1-6.6h-0.6
		c-1.7,5.4-6.1,8.3-10.1,9.6l-0.5-1.2c3-1.4,6.4-4,7.9-8.4h-0.9c-1.9,3.8-5.3,6-8,7l-0.5-1.2c2.3-1.2,4.7-3.1,6-5.8h-0.7
		c-1.1,1.3-2.3,2.2-3.5,2.9l-0.5-0.8c-0.6,2-2.4,2.7-4.7,1.4v6.1h-3v-24.8c1.1,0.4,3.4,0.9,4.6,0.7l0.6-0.6l3,1.1
		c-1.1,3.5-2.1,5.7-3.2,7.5c2.2,3,3.1,5.2,2.8,7.8c1.3-1.2,2.2-2.6,2.9-4.5h-3.5v-1.6h15.7v1.6L205.3,298.1L205.3,298.1z
		 M196.6,301.3c0-1.7-0.2-3.6-1.3-6.3c0.5-2.1,1-4.5,1.2-6.6h-1.9v14.8C196.2,303.5,196.6,303.3,196.6,301.3L196.6,301.3z
		 M212.2,295.1H201v-8.5h11.2V295.1z M204,288.3v1.8h5.1v-1.8H204z M209.1,293.5v-1.8H204v1.8H209.1z"/>
	<path class="st0" d="M222.3,296.3v14.6h-3.2v-10.6c-0.7,0.7-1.4,1.4-2.1,1.9l-0.9-1.1c2-2.4,3.8-5.9,5.3-10.2l3.1,1.3
		C223.9,293.7,223.1,295.1,222.3,296.3z M217.3,294.6l-0.9-1c1.8-2.2,3.2-5.2,4.1-8.2l3.2,1.4C221.9,290,219.6,292.8,217.3,294.6
		L217.3,294.6z M234.1,306.2c-2.8,1.4-6.7,2.8-10.6,3.7l-0.9-3.3c1.4-0.1,2.7-0.3,4.1-0.5V302h-3.6v-1.6h3.6v-3.2h3.3v3.2h3.4v1.6
		H230v3.6c1.3-0.2,2.6-0.5,3.7-0.8L234.1,306.2L234.1,306.2z M226.7,291.2h-3v-1.6h3v-4h3.3v4h2.9v1.6H230v3.7h3.2v1.6h-9.8v-1.6
		h3.3V291.2z M240.7,295.1H239v12.5c0,3.5-2.9,4.2-7.1,1.9l0.3-1.3c3,0.5,3.4,0.3,3.4-1.4v-11.7h-2.4v-1.6h7.4L240.7,295.1
		L240.7,295.1z M240.2,288.9h-6.7v-1.7h6.7V288.9z"/>
	<path class="st0" d="M255,294c0.1,4-4.1,8.4-8,11.9v0.2h8.4v2.5h-12.9v-1.9c4.1-3.2,9.1-8.9,8.8-12.4c0.5-5.2-5.8-4.6-8.3-2v-2.9
		C247,286.8,255.7,287.7,255,294L255,294z"/>
	<path class="st0" d="M264.3,309c-12.2-1-7.4-22.8,4.5-21l0.3,2c-5.6,0-8.1,4-8.3,7.7h0.1C269.5,288.1,276.9,309.1,264.3,309
		L264.3,309z M264.3,297.7c-4.5-0.4-3.9,9.5,0.1,9.2C268.5,307.4,268.3,297.1,264.3,297.7z"/>
	<path class="st0" d="M282.2,304.3v1.4c0.1,3.1,6.9,1.3,9.1,1.6c1.5-0.1,1.9-0.4,1.9-3.8h1.3c2.8,9.8-5.8,6.2-11.1,6.7
		c-6.2,0.5-4.3-5-4.6-8.8c-1.7,1.3-3.4,2.3-5,2.9l-0.6-1.2c3.4-2.1,5.8-5.1,7.1-7.8H274v-1.7h6v-3.1h-4.5v-1.7h4.5v-3.2h3.3v3.2h4.3
		v-3.2h3.3v3.2h4.5v1.7H291v3.1h6.1v1.7h-7c2.1,2.6,5,4,8,4.8l-1.6,3.5c-1.7-0.6-3.3-1.7-4.7-3.1v3.8H282.2L282.2,304.3z
		 M288.6,299.5h-6.4v3.1h6.4V299.5z M283.9,295.3c-0.4,0.9-1,1.8-1.6,2.6h7.5c-0.5-0.8-1-1.7-1.4-2.6H283.9z M283.3,293.5h4.3v-3.1
		h-4.3V293.5z"/>
	<path class="st0" d="M320.9,288.8v20.7h-3.5v-2.8h-12.7v2.9h-3.5v-20.8L320.9,288.8L320.9,288.8z M317.4,290.6h-12.7v14.2h12.7
		V290.6z"/>
	<path class="st1" d="M26.2,346.1l-1,3.6c-5.7,0.3-14.1,0.8-18.3-3.1c-1.2,1.6-2.6,2.9-4.4,4l-0.8-1.1c1.3-1.1,2.6-2.6,3.6-4.7
		c-1.1-1.6-1.8-3.6-2.3-6.3l1.3-0.4c0.5,1.8,1.2,3.2,2,4.4c0.6-1.8,1.1-3.9,1.3-6.3H5.8c-0.3,0.6-0.6,1.1-0.9,1.5l-2.6-0.9
		c1.4-2.4,2.9-5.8,3.9-8.4h-4v-1.6h7.9c-0.9,2.3-2.3,5.4-3.6,7.9h0.9l0.7-0.5l2.6,1c-0.5,3.8-1.3,6.9-2.6,9.5
		C12,347.6,21.2,346.6,26.2,346.1L26.2,346.1z M15.4,328.8h-4.1v-1.6h4.1V325h3.2v2.2h5v3.5h2v1.6h-2v3.6h-5v1.8h5.1v1.6h-5.1v1.9
		H25v1.6h-6.4v3.1h-3.2v-3.1h-5.3v-1.6h5.4v-1.9h-4.4v-1.6h4.4v-1.8h-4v-1.6h4v-2.1H10v-1.6h5.4V328.8L15.4,328.8z M18.6,330.7h2.1
		v-1.9h-2.1C18.6,328.8,18.6,330.7,18.6,330.7z M18.6,334.4h2.1v-2.1h-2.1V334.4z"/>
	<path class="st1" d="M52.6,346.4l-1.6,3.5c-2.7-0.5-6.7-2.6-9.1-5.7v6.4h-3.4v-6c-2.3,2.5-6.5,4.5-10,5.2l-0.4-1.3
		c3.6-1.3,6.3-2.9,8.3-5.4h-7.5v-1.6h9.7v-1.6c-0.5,0.2-1,0.5-1.6,0.7l-0.6-1.1c0.9-0.6,1.6-1.1,2-1.8c-2.5,1.1-6.3,2.1-8.9,2.5
		l-0.6-2.9c1.3,0,2.6-0.1,3.8-0.2v-3h-3.2v-1.4l-0.7,0.4l-0.7-1.1c2-2,3.2-4.3,4.1-7.2l3.6,1c-0.3,0.6-0.6,1.1-0.9,1.7h5.8v1.6
		c0.8-1.3,1.3-2.7,1.8-4.3l3.6,1c-0.3,0.6-0.6,1.1-1,1.7H52v1.6h-4.6c0.6,0.5,1.2,1.2,1.8,1.9l-2.5,1.1c-0.3-1-0.7-2-1.2-3h-1.8
		c-1.2,1.4-2.5,2.4-3.9,3.1l-0.9-1.1c0.6-0.6,1.1-1.3,1.6-2h-4.1c0.6,0.6,1.3,1.4,1.8,2.2l-2.6,1.1c-0.3-1.1-0.7-2.2-1.1-3.3h-1
		c-1,1.3-2.3,2.5-3.8,3.4h9v1.6h-3.1v2.7c1-0.2,2.1-0.3,3.1-0.5l0.1,0.3c0.3-1.1,0.3-2.4,0.3-4.3h9.3c0.3,0.8-0.8,5.5,0.9,5.1
		c0.8,0,0.9-0.4,0.9-2.7h1.3c1,4,0.5,5.2-2.1,5.2c-3.5,0-4.1-0.4-4.1-3.1v-2.9h-3.2c0,2.6-0.9,4.3-2.5,5.4H42v2.3h9.7v1.6h-8.5
		C45.8,345,49,345.9,52.6,346.4L52.6,346.4z M42.3,334.5l1.1-0.4c0.9,1.5,1.5,2.8,1.9,4.2l-2.3,0.6C42.9,337.6,42.6,336,42.3,334.5z
		"/>
	<path class="st1" d="M68.4,347.8h9.1v1.7H56v-1.7h9v-3h-4.2v-1.4c-2,1.5-4.2,2.6-5.9,3.1l-0.6-1.3c2.3-1.2,5.2-3.6,6.9-6.3H55v-1.7
		h5.3v-7.9h-4.2v-1.7h4.2V325h3.2v2.8h6.1V325h3.2v2.8h4.3v1.7h-4.3v7.9h5.4v1.7h-7c2,1.9,4.5,3.3,7.7,4.2l-1.6,3.2
		c-1.6-0.6-3.3-1.7-4.7-3.2v1.6h-4.3L68.4,347.8L68.4,347.8z M65,340.2h3.5v3h4.2c-1.2-1.2-2.3-2.7-3.2-4.2h-4.6
		c-0.9,1.6-2.3,3-3.8,4.2H65V340.2L65,340.2z M63.6,330.9h6.1v-1.5h-6.1V330.9z M63.6,334.1h6.1v-1.6h-6.1V334.1z M63.6,337.3h6.1
		v-1.6h-6.1V337.3z"/>
	<path class="st1" d="M90.4,340.5l0.7,1.3c-2.4,2.1-5.8,4.1-8.8,5.5l-1.4-3.5c0.9-0.2,2.1-0.5,3.4-1v-9.1h-3V332h3v-6.4h3.3v6.4h2.9
		v1.7h-2.9v7.9C88.5,341.3,89.5,340.9,90.4,340.5L90.4,340.5z M102,349.7c-13.7,1.2-10.4-2.4-10.8-13.2l-2.2,0.8l-0.5-1.6
		c0.9-0.3,1.8-0.7,2.7-1v-7h3.2v5.8c0.6-0.2,1.2-0.4,1.8-0.7V325h3v6.4l1.6-0.7l0.5-0.9l3.2,0.8c-0.5,3-1.6,8.6-2.7,11.1l-1.3-0.3
		c0.3-2.2,0.6-7.1,0.6-8.9c-0.6,0.2-1.3,0.5-1.9,0.8v10.5h-3v-9.3c-0.6,0.2-1.2,0.5-1.8,0.7v9.7c0,1.3,0.5,1.6,1.7,1.7
		c4.9-0.5,7.9,2.8,7.4-5.9h1.4C106.2,347.5,106.1,349.5,102,349.7L102,349.7z"/>
	<path class="st0" d="M114.5,346h23.2v2.6h-23.2V346z M116.4,326.9h19.2v2.5h-19.2C116.5,329.4,116.5,326.9,116.4,326.9z
		 M118.3,335.8h15.4v2.5h-15.4C118.3,338.3,118.3,335.8,118.3,335.8z"/>
	<path class="st0" d="M163.8,347.8v1.8h-23.6v-1.8h10.1v-2h-8.1v-1.7h8.1v-1.8h-7.2v-8.9h7.2v-1.7h-9.5V330h9.5v-1.6
		c-2.9,0.1-5.6,0.1-7.6,0.1l-0.2-1.5c5.3-0.2,11.6-1.1,16.4-2.5l2.6,2.8c-2.1,0.4-4.8,0.7-7.7,0.9v1.8h9.8v1.7h-9.8v1.7h7.2v8.9
		h-7.2v1.8h8.2v1.7h-8.2v2H163.8L163.8,347.8z M150.3,335.1h-3.8v1.9h3.8V335.1z M150.3,338.6h-3.8v2h3.8V338.6z M153.7,335.1v1.9
		h3.9v-1.9H153.7z M157.6,338.6h-3.9v2h3.9V338.6z"/>
	<path class="st0" d="M190.2,335.4h-2.3v14.9h-3.3v-14.9h-2.1c0.1,6.8-1.3,12.4-5,15.2l-1-0.9c1.2-1.6,1.9-3.3,2.2-5.3l-2,2.1
		c-0.7-1.1-1.5-2.1-2.3-3v6.8h-3.2v-5.9c-1,1.4-2.4,3-4.3,4.4l-0.9-1c1.7-1.7,3.5-4.4,4.6-7.1H167v-1.6h4.3v-2.3h3.2v2.3h3.9v1.6
		h-3.9v0.8c1.3,0.7,3,1.9,4.2,3c0.8-3.8,0.4-13.2,0.5-17.5l2.8,0.7c1.9-0.6,3.8-1.5,5.5-2.7l2.6,2.7c-2.2,1-5.2,1.4-7.6,1.5v4.7h7.7
		V335.4L190.2,335.4z M178.7,336.1h-12.1v-1.7h3c-0.5-1.4-1-2.8-1.5-4l1-0.6H167v-1.6h5.1c-0.9-0.8-1.7-1.5-2.6-2.3l0.6-1.2
		c1.4,0.4,3.1,1.1,4.8,2.1l-1.1,1.5h4.5v1.6h-3.4l2.6,1c-0.6,1.1-1.4,2.5-2.3,3.6h3.5V336.1L178.7,336.1z M172.2,333.6l-1.4,0.8h2.7
		c0.5-1.5,0.9-3.2,1.2-4.6h-5.4C170.4,330.8,171.5,332.4,172.2,333.6z"/>
	<path class="st0" d="M204.7,344.3l0.5,1.5c-3.4,2.1-8.2,3.7-12,4.6l-0.9-3.5c2.2-0.3,4.7-0.7,7.1-1.3v-9.5h-6.9v-1.8h6.9v-9h3.3
		v19.6C203.3,344.7,204,344.5,204.7,344.3L204.7,344.3z M213.4,349.4c-3.3-0.1-8.5,1.1-7.9-4.1v-20h3.3v10.1
		c1.7-1.2,3.5-2.8,5.2-4.6l2.5,2.7c-2.1,1.6-5.2,3.2-7.7,4v7.1c0,1.3,0.2,1.6,1.5,1.7c3.9-0.1,4.2,1.2,4.2-5.9h1.4
		C217.1,346.8,217.1,349.2,213.4,349.4L213.4,349.4z"/>
	<path class="st0" d="M242.8,346.5l-2.3,3.9c-3.6-1.8-7.7-6.8-9.2-14.2c-1.6,7.7-6.2,12.5-12.5,14.4l-0.6-1.4
		c5.1-2.9,8.6-7,9.7-15.2h-8.8v-2h9c0.2-2.3,0.2-4.7,0.2-7.2h3.8c0,2.5-0.1,4.8-0.2,7.2h9.9v2h-9.4
		C234.5,340.8,238.2,344.4,242.8,346.5L242.8,346.5z"/>
	<path class="st0" d="M269,346.1l-0.9,3.5c-5.4,0-16.1,1.9-18.5-3.9c-0.8,1.7-2,3.5-3.4,5l-2-2.3c1.3-1,2.6-2.3,3.4-3.4v-6.2h-2.8
		v-1.7h6.2v7.4C254.9,349,264,346.1,269,346.1L269,346.1z M248.9,336c-1.1-1.4-2.6-3.2-3.9-4.5l0.8-1.1c1.6,0.6,3.8,1.9,5.3,3.2
		L248.9,336L248.9,336z M245.9,326.2l0.7-1.1c1.6,0.6,3.7,1.8,5.2,3l-2.1,2.4C248.6,329,247.1,327.5,245.9,326.2z M256.3,329.1
		c-0.8-1.2-1.7-2.4-2.4-3.4l0.8-1c1.6,0.8,3.4,2.2,4.5,3.4l-1.2,1.1h3.2c0.6-1.4,1.1-2.9,1.5-4.5l3.3,1.1c-0.8,1.2-1.8,2.4-2.7,3.4
		h5.2v1.7h-6.9c-0.5,0.8-1,1.5-1.6,2.2h6.7v12.3h-13.1V333h4.3c0.1-0.7,0.2-1.5,0.3-2.2h-6.4v-1.7L256.3,329.1L256.3,329.1z
		 M263.2,334.7h-6.3v1.9h6.3V334.7z M263.2,338.1h-6.3v2h6.3V338.1z M263.2,341.7h-6.3v2h6.3V341.7z"/>
	<path class="st0" d="M270.4,335.1h23v2.8h-23V335.1z"/>
	<path class="st0" d="M300.7,344.9v5.6h-3.4v-4.6c-0.7,0.2-1.3,0.3-1.9,0.5l-0.8-3.5c0.9-0.1,1.9-0.2,2.8-0.3v-15.9l2.7,0.5
		c1.6-0.6,3.3-1.5,4.6-2.4l2.1,2.3c-1.9,0.7-4,1.2-6.1,1.5v2.9h4.6v1.7h-4.6v3.1h4.5v1.7h-4.5v4c1.9-0.3,3.7-0.7,5.5-1.1l0.4,1.4
		C305,343.3,302.9,344.2,300.7,344.9L300.7,344.9z M318.1,350.5c-2.5-0.8-4.6-2-6.3-3.5c-2.3,1.8-5.1,2.9-8,3.4l-0.5-1.3
		c2.7-1,5-2.3,6.8-3.9c-1.4-1.8-2.3-3.9-2.9-6.2H306v-1.7h8l0.9-0.7l3.1,1.5c-0.9,2.8-2.2,5-3.9,6.9c1.6,0.9,3.5,1.6,5.5,2.1
		L318.1,350.5L318.1,350.5z M307.3,329.7v-3.6h8.5v5.7c-0.1,1.5,1.6,1.2,2.5,0.4l1.2,2.2c-0.9,0.8-1.7,1.1-3.8,1.1
		c-4.4,0.6-2.8-5.3-3.1-7.8h-2.3c0.5,4.1-1.1,8-4.4,9.1l-0.7-1.1C306.9,334.2,307.3,333.1,307.3,329.7L307.3,329.7z M308.8,339
		c0.8,1.8,1.8,3.2,3,4.4c1-1.3,1.8-2.7,2.3-4.4H308.8z"/>
	<path class="st0" d="M321.3,346.9c2-1.8,3.1-3.7,3.9-6.1l1.3,0.4c-0.2,2.8-1.1,5.9-2.5,7.9L321.3,346.9L321.3,346.9z M332.1,336
		h-4.7v1.6H324v-9.2h8.1V325h3.5v3.4h8.2v9.2h-3.3V336h-4.8v3.4h-3.5L332.1,336L332.1,336z M332.1,334.4v-4.2h-4.7v4.2H332.1z
		 M327.7,346.8V340h3.4v5c0,1.3,0.2,1.6,1.8,1.7c3.2-0.4,6.6,1.8,6-3.6h1.3c1.9,5.1,0.5,6.5-1.9,6.6
		C335.1,349.5,327.5,351.6,327.7,346.8L327.7,346.8z M332.2,341l0.7-1.1c1.5,0.6,3.4,1.6,5.2,3l-2.1,2.5
		C334.6,343.6,333.3,342.2,332.2,341z M340.4,334.4v-4.2h-4.8v4.2H340.4z M340.4,341.4l1.1-0.8c1.6,1.4,3.5,3.5,4.8,5.5l-2.9,1.8
		C342.4,345.5,341.5,343.5,340.4,341.4L340.4,341.4z"/>
	<path class="st0" d="M362.9,334.4c-0.8,0.8-1.8,1.5-2.7,2.2c0.9,0,3.3,0.1,4.1-0.5l2.7,2.3c-1.5,1.1-3.6,2.3-5.5,3v1.2h9.4v1.7
		h-9.4c0.6,5-1,8.1-8.1,5l0.2-1.4c5.5,0.7,4.2-0.6,4.4-3.6h-9.7v-1.7h9.7v-2.5l2.1,0.3c0.9-0.6,2-1.5,2.6-2.2h-4.9
		c-3.1,2-6.7,3.6-10.5,4.5l-0.4-1.4c2.4-0.8,4.6-1.9,6.7-3.1h-3v-1.6h5.4c0.9-0.7,1.9-1.4,2.7-2.2h-11.3v-1.8h8.6v-2.9h-5.5V328h5.5
		v-3.1h3.5v3.1h4.2v0.9c0.9-1.2,1.8-2.5,2.5-3.7l3,1.7c-1.3,1.9-2.8,3.8-4.6,5.7h6.3v1.8H362.9L362.9,334.4z M359.6,332.6h1.1
		c0.9-0.9,1.8-1.9,2.6-2.9h-3.6v2.9H359.6z"/>
	<path class="st0" d="M396.2,341.3c-0.4-0.1-0.7-0.2-1-0.4v9.5H392v-1.6h-4.6v1.6h-3.1V341c-0.7,0.3-1.3,0.5-2.1,0.7l-0.5-1.4
		c2.6-1.1,4.8-2.6,6.4-4.5c-0.9-1.1-1.7-2.3-2.3-3.6c-0.7,0.8-1.4,1.6-2.1,2.2l-0.8-0.7v1h-2.5v2.9h3v1.7h-3v5.6
		c1-0.3,2-0.5,2.7-0.8l0.6,1.4c-1.9,1.5-7.3,3.8-10.3,4.5l-0.9-3.5l1.4-0.2v-9h2.7v8.5c0.3-0.1,0.6-0.1,1-0.2v-10.9h-3.5V326h8.9
		v7.1c1.5-2.2,2.5-5.3,3.2-8.4l3.2,0.9c-0.2,0.7-0.5,1.4-0.8,2.1h3.1l0.7-0.6l3.1,1.5c-0.9,2.6-2.1,5-3.8,7c1.8,1,3.8,1.7,5.8,2.2
		L396.2,341.3L396.2,341.3z M377,333.1h3.1v-5.4H377V333.1z M393.9,340.4c-1.5-0.7-2.9-1.7-4.1-2.8c-1.2,1.1-2.6,2-4.2,2.8H393.9
		L393.9,340.4z M389.5,334.1c1-1.4,1.7-3,2.2-4.7h-4c-0.3,0.5-0.6,1-0.9,1.4C387.6,332.2,388.5,333.2,389.5,334.1L389.5,334.1z
		 M392,342h-4.6v5h4.6V342z"/>
	<path class="st0" d="M398.4,346h23.2v2.6h-23.2V346z M400.4,326.9h19.2v2.5h-19.2V326.9z M402.3,335.8h15.5v2.5h-15.5V335.8z"/>
	<path class="st0" d="M429.6,344.9v5.6h-3.4v-4.6c-0.7,0.2-1.3,0.3-1.9,0.5l-0.8-3.5c0.9-0.1,1.9-0.2,2.8-0.3v-15.9l2.7,0.5
		c1.6-0.6,3.3-1.5,4.6-2.4l2.1,2.3c-1.9,0.7-4,1.2-6.1,1.5v2.9h4.6v1.7h-4.6v3.1h4.5v1.7h-4.5v4c1.9-0.3,3.7-0.7,5.5-1.1l0.4,1.4
		C433.9,343.3,431.8,344.2,429.6,344.9L429.6,344.9z M447,350.5c-2.5-0.8-4.6-2-6.3-3.5c-2.3,1.8-5.1,2.9-8,3.4l-0.5-1.3
		c2.7-1,5-2.3,6.8-3.9c-1.4-1.8-2.3-3.9-2.9-6.2h-1.3v-1.7h8l0.9-0.7l3.1,1.5c-0.9,2.8-2.2,5-3.9,6.9c1.6,0.9,3.5,1.6,5.5,2.1
		L447,350.5L447,350.5z M436.2,329.7v-3.6h8.5v5.7c-0.1,1.5,1.6,1.2,2.5,0.4l1.2,2.2c-0.9,0.8-1.7,1.1-3.8,1.1
		c-4.4,0.6-2.8-5.3-3.1-7.8h-2.3c0.5,4.1-1.1,8-4.4,9.1l-0.7-1.1C435.8,334.2,436.2,333.1,436.2,329.7L436.2,329.7z M437.8,339
		c0.8,1.8,1.8,3.2,3,4.4c1-1.3,1.8-2.7,2.3-4.4H437.8z"/>
	<path class="st0" d="M474,341.3c-0.4-0.1-0.7-0.2-1-0.4v9.5h-3.1v-1.6h-4.6v1.6h-3.1V341c-0.7,0.3-1.3,0.5-2.1,0.7l-0.5-1.4
		c2.6-1.1,4.8-2.6,6.4-4.5c-0.9-1.1-1.7-2.3-2.3-3.6c-0.7,0.8-1.4,1.6-2.1,2.2l-0.8-0.7v1h-2.5v2.9h3v1.7h-3v5.6
		c1-0.3,2-0.5,2.7-0.8l0.6,1.4c-1.9,1.5-7.3,3.8-10.3,4.5l-0.9-3.5l1.4-0.2v-9h2.7v8.5c0.3-0.1,0.6-0.1,1-0.2v-10.9H452V326h8.9v7.1
		c1.5-2.2,2.5-5.3,3.2-8.4l3.2,0.9c-0.2,0.7-0.5,1.4-0.8,2.1h3.1l0.7-0.6l3.1,1.5c-0.9,2.6-2.1,5-3.8,7c1.8,1,3.8,1.7,5.8,2.2
		L474,341.3L474,341.3z M454.7,333.1h3.1v-5.4h-3.1V333.1z M471.7,340.4c-1.5-0.7-2.9-1.7-4.1-2.8c-1.2,1.1-2.6,2-4.2,2.8H471.7
		L471.7,340.4z M467.3,334.1c1-1.4,1.7-3,2.2-4.7h-4c-0.3,0.5-0.6,1-0.9,1.4C465.4,332.2,466.3,333.2,467.3,334.1L467.3,334.1z
		 M469.8,342h-4.6v5h4.6V342z"/>
	<path class="st0" d="M498,328.3V349h-3.5v-2.8h-12.7v2.9h-3.5v-20.8L498,328.3L498,328.3z M494.5,330.1h-12.7v14.2h12.7V330.1z"/>
</g>
<g>
	<path class="st0" d="M641.7,46.3c-0.1-0.5-0.2-1.1-0.5-1.7c1.6-0.2,2.6,0.5,2.9-0.5v-6.5c-0.8,0.3-2.8,1-3.3,1.1l-0.6-1.9
		c0.8-0.2,2.1-0.6,3.9-1.1v-5.5h-3.6v-1.7h3.6v-4.8h1.8v4.9h2.7v1.7h-2.7v5l2.5-0.8l0.2,1.6c-0.6,0.2-1.5,0.5-2.7,1v7.1
		C645.8,46.5,644.3,46.2,641.7,46.3L641.7,46.3z M648.4,46.3c-0.3-0.8-0.6-1.3-1-1.6c2.5-0.6,4.7-1.5,6.6-2.8
		c-1.5-1.5-2.7-3.4-3.6-5.5l1.3-0.4h-2.2v-1.7H660l0.3-0.1l1.2,0.5c-0.9,2.9-2.4,5.3-4.6,7.2c1.8,1.3,4,2.2,6.5,2.7
		c-0.4,0.4-0.8,1-1.2,1.6c-2.6-0.6-4.8-1.7-6.7-3.2C653.5,44.5,651.2,45.6,648.4,46.3L648.4,46.3z M649.5,33.8
		c-0.2-0.3-0.9-1.1-1.2-1.3c2.8-1.5,3-5,2.9-7.9h8.2c0,0.2-0.1,6.5,0.1,6.5c2.3,0.6,2.4-0.2,2.4-2.8c0.3,0.3,0.8,0.5,1.5,0.7
		c-0.3,2.2,0,3.6-2,3.8c-0.8,0-2.9,0.2-3.4-0.4c-0.8-0.8-0.3-4.9-0.4-6h-4.7C653,29.4,652,32.2,649.5,33.8L649.5,33.8z M655.5,40.8
		c1.6-1.4,2.8-3,3.6-4.8h-6.9C652.9,37.8,654,39.4,655.5,40.8L655.5,40.8z"/>
	<path class="st0" d="M666.9,33.1c-0.3-0.5-0.8-0.9-1.2-1.2c2.1-1.6,2.2-5,2.1-7.6c2.3,0.9,6.1-0.4,7.2-0.6l1.2,1.1
		c-1.7,0.5-4,0.9-6.8,1.1v1.3h7.5v1.4H674v3.1h-1.6v-3.1h-3C668.9,30.4,668.1,31.9,666.9,33.1L666.9,33.1z M667.2,46.4
		c-0.4-0.5-1.2-1.3-1.4-1.4c3.2-0.7,5.6-1.5,7.3-2.4l1.7,0.8C672.8,44.5,670.3,45.5,667.2,46.4L667.2,46.4z M669,42.3V32.2h16.2
		v10.1C685.2,42.3,669,42.3,669,42.3z M670.7,35.1h12.5v-1.7h-12.5V35.1z M670.7,38.1h12.5v-1.7h-12.5V38.1z M670.7,41.1h12.5v-1.8
		h-12.5V41.1z M676.5,32c-0.3-0.5-0.7-0.9-1.1-1.2c2.4-1.4,2.5-4.1,2.4-6.5c2.5,0.8,6.3-0.4,7.7-0.6l1.2,1.2
		c-1.7,0.5-4.2,0.8-7.3,1.1c0,0.3,0,1,0,1.2h8.5v1.4h-3.7v3.2h-1.7v-3.2H679C678.7,30,677.9,31.1,676.5,32L676.5,32z M685.9,46.3
		c-1.6-0.8-3.9-1.7-6.9-2.7l1.5-0.9c3.2,1,5.7,1.9,7.5,2.8L685.9,46.3L685.9,46.3z"/>
	<path class="st0" d="M690.5,40.5v-1.7h2.2l-0.4-13.9l1.5,0.3c1.1-0.6,2.1-1.1,2.7-1.5l1,1.1h8.5v14h3.2c0.1-0.7,0.2-2.5,0.2-3.1
		h-2.7v-1.5h2.7c0-0.6,0.1-1.7,0.1-3.1h-2.8v-1.5h2.8c0-0.6,0-2.5,0.1-3.2h-3v-1.5h4.7c-0.1,5.4-0.2,10-0.4,14h2.2v1.7L690.5,40.5
		L690.5,40.5z M692.1,46.3c-0.6-0.6-1.1-1.1-1.4-1.3c2.2-0.9,5.4-2.6,7-4.1l1.8,1.1C697.5,43.5,694.4,45.3,692.1,46.3L692.1,46.3z
		 M694.3,38.8h3.2V25.3c-1.2,0.6-2.4,1.1-3.5,1.5l0.1,2.8h2.7v1.5h-2.6l0.1,3.1h2.5v1.5h-2.5V38.8L694.3,38.8z M698.9,38.8h5.8V26.3
		h-5.8V38.8L698.9,38.8z M699.7,29.2v-1.3h4.2v1.3H699.7z M699.9,36.5v-5.7h3.7v5.7H699.9z M700.8,35.3h1.8V32h-1.8V35.3z
		 M711.2,46.3c-1.9-1.4-4.3-2.8-7.2-4.1l1.3-1.2c3,1.4,5.5,2.7,7.6,4.1L711.2,46.3L711.2,46.3z"/>
	<path class="st0" d="M716.8,46.3c-0.3-0.4-1-1.1-1.4-1.3c1.4-0.9,2.5-2.2,3.4-3.8c-0.9-1.2-1.7-2.9-2.3-4.9l1.4-0.5
		c0.4,1.5,1,2.7,1.7,3.7c0.6-1.6,1.1-3.5,1.4-5.7h-2.9l-0.5,1l-1.7-0.5c1.2-2.2,2.4-4.7,3.7-7.5h-4v-1.6h4.9l0.3-0.1l1.3,0.4
		c-0.5,1.2-1.6,3.7-3.2,6.8c1,0,3.1-0.2,4,0.2c-0.4,3.4-1,6.3-2,8.6c3.1,3.8,14.5,2.7,17.6,2.8c-0.4,0.5-0.6,1.2-0.8,1.8
		c-5.6-0.2-13.5,1-17.6-3C719.2,44.2,718.1,45.4,716.8,46.3L716.8,46.3z M729.2,43v-2.6h-6.5v-1.5h6.5v-2h-5.4v-1.4h5.4v-1.8h-5.3
		v-1.5h5.3v-1.8h-6.8v-1.5h6.8V27h-5.1v-1.5h5.1v-1.8h1.8v1.8h5.5v3.3h1.9v1.5h-1.9v3.3H731v1.8h5.7v1.4H731v2h6.8v1.5H731V43H729.2
		L729.2,43z M731,28.8h3.7V27H731V28.8z M731,32.1h3.7v-1.8H731V32.1z"/>
	<path class="st0" d="M747.3,30.8c-2.5,0.1-2.5-3.8,0-3.7C749.8,27,749.8,30.9,747.3,30.8z M747.3,43c-2.5,0.1-2.5-3.8,0-3.8
		S749.8,43.1,747.3,43z"/>
	<path class="st0" d="M756.5,44.5v-1.9H778v1.9H756.5z M758,27.8V26h18.7v1.8H758z M759.6,35.9V34h15.1v1.9H759.6z"/>
	<path class="st0" d="M780.9,45.5V44H791v-2.1h-8.2v-1.5h8.2v-1.7h-7.4V31h7.4v-1.5h-9.9V28h9.9v-1.8c-2.4,0.2-4.9,0.3-7.7,0.3
		c0-0.4-0.2-0.9-0.4-1.5c7.4-0.2,12.9-0.6,16.6-1.3l1,1.4c-1.8,0.3-4.4,0.6-7.7,0.9v2h10.1v1.5h-10.1V31h7.8v7.7h-7.8v1.7h8.7v1.5
		h-8.7V44h10.3v1.5H780.9L780.9,45.5z M785.4,34.2h5.6v-1.9h-5.6V34.2z M785.4,37.3h5.6v-1.9h-5.6V37.3z M792.8,34.2h5.9v-1.9h-5.9
		V34.2z M792.8,37.3h5.9v-1.9h-5.9V37.3z"/>
	<path class="st0" d="M811.2,42.4v-8.6h3.7c0.1-0.3,0.2-1.2,0.3-1.4h-9.7v-1.5h9.9c0-0.3,0.1-1.1,0.2-1.3h-8.9v-4.9h19.2v4.9h-8.4
		c-0.1,0.2-0.2,1.1-0.2,1.3h9.6v1.5H817c0,0.3-0.2,1.1-0.3,1.4h8.1v8.6H811.2L811.2,42.4z M806.9,46.3V34.1h1.8v9.6h18.8v1.5h-18.8
		v1L806.9,46.3L806.9,46.3z M808.4,28.2h4V26h-4V28.2z M813,36.3h10V35h-10V36.3z M813,38.7h10v-1.4h-10V38.7z M813,41.3h10v-1.4
		h-10V41.3z M814.1,28.2h4.1V26h-4.1V28.2z M819.9,28.2h4.2V26h-4.2V28.2z"/>
	<path class="st0" d="M840.4,46.3V41c-2.4,2.2-6.1,4-9.3,4.9c-0.3-0.5-0.7-1.1-1.2-1.6c2.9-0.6,6.5-2.1,8.8-3.9h-8.1v-1.6h9.8V37
		h-7.5v-1.4h7.5v-1.8h-8.7v-1.5h5.4c-0.2-0.8-0.6-1.6-1.2-2.5l0.9-0.2h-6.1V28h4c-0.3-0.9-1-2.1-2-3.6l1.6-0.5
		c1,1.3,1.7,2.5,2.1,3.7l-1.3,0.5h3.1v-4.4h1.7V28h3v-4.4h1.7V28h3l-0.9-0.3c0.7-1.1,1.3-2.4,1.9-3.8l1.9,0.5
		c-0.9,1.6-1.6,2.8-2.2,3.6h3.9v1.6h-5c-0.6,1.1-1.1,2-1.5,2.7h5.6v1.5h-9v1.8h7.8V37h-7.8v1.8h10v1.6H844c2.3,1.8,5.9,3.3,8.9,3.9
		c-0.6,0.5-1,1.1-1.2,1.6c-3.3-0.9-7-2.8-9.4-5.1v5.4L840.4,46.3L840.4,46.3z M838.2,32.2h5.9l-0.3-0.1c0.4-0.8,0.9-1.6,1.3-2.6
		h-7.3c0.6,0.8,1,1.6,1.2,2.5L838.2,32.2L838.2,32.2z"/>
	<path class="st0" d="M855.6,42.3l-0.7-1.8c0.9-0.3,2-0.8,3.4-1.3v-7.9h-3.2v-1.8h3.2v-5.7h1.7v5.6h2.9v1.8H860v7.2
		c0.9-0.4,2.3-1,2.8-1.2l0.4,1.6C861.9,39.6,858.1,41.2,855.6,42.3L855.6,42.3z M868.3,45.7c-2.8-0.1-3.6-0.6-3.7-3.3v-7.8l-2,0.8
		l-0.7-1.6l2.7-1.1v-6.8h1.8v6l3.3-1.4v-6.9h1.8v6.2c0.7-0.3,3.6-1.4,4-2l1.3,0.5c-1.1,7.5,2.2,11.5-4,11.5
		c-0.1-0.7-0.3-1.3-0.4-1.6c4.1,0.4,2.1-2.1,2.6-7.9l-3.5,1.5v9.1h-1.8v-8.4l-3.3,1.4c0.2,0.9-0.4,9.4,0.4,9.9
		c0.8,0.7,6.5,0.2,7.6,0.3c2-0.2,1.6-1.3,1.9-3.5c0.5,0.4,1.1,0.6,1.7,0.7C878.3,47.5,872.2,45.4,868.3,45.7L868.3,45.7z"/>
	<path class="st0" d="M881.2,46.5c-0.3-0.4-0.8-0.8-1.4-1.2c2.2-2.6,2.4-9.3,2.3-13.6h2.8c-0.3-0.5-0.5-0.9-0.6-1
		c2.1-0.4,4-0.8,5.8-1.3c-1.6-0.5-3.2-0.9-4.6-1.3l1-0.8h-4.7v-1.5h8.7v-2h1.8v2h9.1v1.5H897l0.4,0.2c-0.9,0.6-2,1.3-3.4,1.8
		c1.5,0.5,2.9,1,4.3,1.6l-0.9,0.9h5.2v1.5H884C884.1,37.9,883.4,43.8,881.2,46.5L881.2,46.5z M884.7,45.8v-1.6h7.9v-3H887v-1.5h5.6
		v-2.5h-4.8c-0.6,0.9-1.2,1.7-1.8,2.3c-0.4-0.4-0.9-0.7-1.4-0.9c1.3-1.3,2.4-2.9,3.1-4.9l1.6,0.3c-0.2,0.6-0.5,1.2-0.7,1.7h3.9v-2
		h1.8v2h6.5v1.5h-6.5v2.5h6v1.5h-6v3h7.9v1.6L884.7,45.8L884.7,45.8z M885.7,31.7h10.9c-1.5-0.6-3-1.2-4.6-1.7
		C890,30.6,887.9,31.2,885.7,31.7L885.7,31.7z M892.1,28.6c1.2-0.4,2.3-0.9,3.2-1.4h-8.2C888.3,27.4,890,27.9,892.1,28.6L892.1,28.6
		z"/>
	<path class="st0" d="M906.4,46.3c-0.4-0.3-0.9-0.6-1.5-0.9c2.6-5.4,1.7-14.7,1.8-21h6.8V44c-0.2,2.5-1.3,2-4.1,2.2
		c-0.1-0.7-0.3-1.3-0.6-1.7c1.7-0.2,2.6,0.5,3-0.5v-6.2h-3.6C908,41.4,907.4,44.2,906.4,46.3L906.4,46.3z M908.4,36.1h3.5v-4.2h-3.5
		C908.4,33.2,908.4,35.2,908.4,36.1z M908.4,30.2h3.5v-4h-3.5V30.2L908.4,30.2z M915,33.8c-0.4-0.5-0.9-0.9-1.3-1.2
		c3-1.7,2.8-5.2,2.7-8.2h7.8c0.2,0.4-0.5,7.1,0.4,6.8c2,0.3,1.6-0.6,1.7-2.8c0.3,0.3,0.8,0.5,1.5,0.7c-0.3,2.1,0,3.5-1.9,3.7
		c-0.8,0-2.7,0.2-3.2-0.5c-0.7-0.8-0.3-5.1-0.4-6.2H918C918.4,29.3,917.5,32.3,915,33.8L915,33.8z M926.8,46.4
		c-2.2-0.7-4.2-1.8-6-3.2c-1.7,1.4-3.7,2.4-6,3.2c-0.3-0.6-0.6-1.2-1.1-1.6c2.1-0.6,4-1.5,5.7-2.8c-1.5-1.6-2.7-3.4-3.6-5.4l1.5-0.5
		h-2.4v-1.7h10l0.3-0.1l1.2,0.5c-0.8,2.8-2.3,5.2-4.3,7.2c1.7,1.3,3.7,2.3,5.9,2.9C927.5,45.2,927.1,45.7,926.8,46.4L926.8,46.4z
		 M920.7,40.7c1.4-1.4,2.5-2.9,3.2-4.7h-6.5C918.3,37.8,919.3,39.3,920.7,40.7L920.7,40.7z"/>
	<path class="st0" d="M932.9,46.2v-14c-0.8,1.1-1.6,2.1-2.5,3.1c-0.4-0.9-0.8-1.5-1-1.8c2.6-2.5,4.9-6.4,6.1-9.9l1.7,0.5
		c-0.7,1.8-1.6,3.6-2.6,5.4v16.7H932.9z M936.7,35c-0.3-0.3-0.7-0.8-1.2-1.2c1.9-1.8,3.7-4.9,4.4-7.5l1.8,0.4
		C940.6,29.7,938.8,32.9,936.7,35z M937.7,46.3c-0.4-0.6-0.8-1.1-1.1-1.4c3.8-2,4.9-5.4,5.3-9.8h-3.4v-1.7H950
		c-0.8,6.2,2,13.8-5.5,12.6c0-0.7-0.2-1.3-0.5-1.8c5.5,1.3,3.5-4.3,4.1-9.1h-4.4C943.2,40.1,941.8,43.9,937.7,46.3L937.7,46.3z
		 M951.7,34.5c-2.5-2-4.2-5.4-4.9-8.6h-5.3v-1.7h6.7c0.6,3.4,2.3,7,4.9,8.8C952.6,33.5,952.1,34,951.7,34.5z"/>
	<path class="st0" d="M959.1,46.3v-12c-1.2,1.6-2.6,2.9-4.2,3.9c-0.3-0.5-0.7-1-1.2-1.4c2.8-1.9,5.1-4.7,6.8-8.3h-6.2v-1.7h7
		c0.4-1.1,0.8-2.2,1.1-3.2l1.8,0.4c-0.3,1.1-0.7,2.2-1,2.8h12.7v1.7h-13.4c-0.6,1.2-1.1,2.2-1.5,2.9h12V44c-0.2,2.9-2,2-5.4,2.3
		c-0.1-0.5-0.3-1.1-0.6-1.8c3.2-0.2,4.6,1.4,4.2-3.1H961v4.9L959.1,46.3L959.1,46.3z M961,35.6h10.4v-2.5H961V35.6z M961,39.8h10.4
		v-2.6H961V39.8z"/>
	<path class="st0" d="M979.3,46.3V24.6h6.1l0.3-0.1l1.2,0.8c-1,2.6-1.9,4.8-2.7,6.6c3.3,2.9,3.9,9.7-1.8,8.7c0-0.7-0.2-1.2-0.5-1.7
		c4.7,1,3.3-4.5,0.6-6.8c0.6-1.3,1.3-3.2,2.2-5.8H981v20H979.3L979.3,46.3z M999.9,46.2c-3.4-1.8-5.8-5.3-7.1-10.6H990v7.7
		c1.5-0.3,3.1-0.6,4.7-0.9l0.1,1.6c-1.4,0.3-6.8,1.5-8.8,2l-0.6-1.8c0.8-0.1,2.3-0.4,2.8-0.5v-19h11.2v11h-5.1
		c0.4,1.4,0.8,2.6,1.4,3.6c1.4-1.1,2.5-2.1,3.3-3l1.4,1c-1.2,1.2-2.5,2.3-4,3.3c1.2,1.9,2.8,3.3,4.6,4.2
		C1000.6,45.1,1000.2,45.6,999.9,46.2L999.9,46.2z M990,29.3h7.5v-3H990V29.3z M990,34h7.5v-3.1H990V34z"/>
	<path class="st0" d="M1004.3,35.5c-0.6-0.6-1.1-1-1.5-1.3c2.2-1.5,4.4-4.5,5.5-7l2,0.6C1009,30.6,1006.7,33.6,1004.3,35.5
		L1004.3,35.5z M1023.2,46.4c-0.3-0.6-0.7-1.3-1.2-2c-5.5,0.3-11.4,0.6-17.7,0.8l-0.2-1.9c0.5,0,2.4-0.1,3.5-0.1
		c1.6-2.9,3.6-7.6,4.7-10.9l2.1,0.5c-1.6,3.9-3.2,7.4-4.8,10.3c2.5-0.1,6.2-0.3,11.2-0.5c-1.2-1.7-2.4-3.2-3.6-4.7l1.7-0.8
		c2,2.2,4.8,5.8,6.1,8.3L1023.2,46.4z M1024.1,35.1c-2.5-2.1-4.9-5.5-6.3-8.6h-7.8v-1.8h9.1c1.3,3.2,4,7.1,6.7,9.1
		C1025.2,34.1,1024.6,34.5,1024.1,35.1L1024.1,35.1z"/>
	<path class="st0" d="M1041.8,46.1c-0.1-0.8-0.3-1.4-0.6-2c2.2-0.2,4,0.8,4.5-0.6V26.9h-17.9v-1.8h19.8v18.4
		C1047.5,46.8,1045.5,45.9,1041.8,46.1z M1028,31.2v-1.7h14.9v1.7H1028z M1029.6,43.6v-9.7h11.6v7.9h-9.8v1.8H1029.6z M1031.4,40.1
		h8v-4.6h-8V40.1z"/>
	<path class="st0" d="M644.3,94.4c-0.3-0.4-1-1.1-1.4-1.3c1.4-0.9,2.5-2.2,3.4-3.8c-0.9-1.2-1.7-2.9-2.3-4.9l1.4-0.5
		c0.4,1.5,1,2.7,1.7,3.7c0.6-1.6,1.1-3.5,1.4-5.7h-2.9l-0.5,1l-1.7-0.5c1.2-2.2,2.4-4.7,3.7-7.5h-4v-1.6h4.9l0.3-0.1l1.3,0.4
		c-0.5,1.2-1.6,3.7-3.2,6.8c1,0,3.1-0.2,4,0.2c-0.4,3.4-1,6.3-2,8.6c3.1,3.8,14.5,2.7,17.6,2.8c-0.4,0.5-0.6,1.2-0.8,1.8
		c-5.6-0.2-13.5,1-17.6-3C646.7,92.3,645.6,93.5,644.3,94.4L644.3,94.4z M656.7,91.1v-2.6h-6.5V87h6.5v-2h-5.4v-1.4h5.4v-1.8h-5.3
		v-1.5h5.3v-1.8h-6.8V77h6.8v-1.8h-5.1v-1.5h5.1v-1.8h1.8v1.8h5.5V77h1.9v1.5H664v3.3h-5.5v1.8h5.7V85h-5.7v2h6.8v1.5h-6.8v2.6
		H656.7z M658.5,76.9h3.7v-1.8h-3.7V76.9z M658.5,80.2h3.7v-1.8h-3.7V80.2z"/>
	<path class="st0" d="M678.9,94.3V89c-2.4,2.1-6.3,4-9.5,4.8c-0.3-0.6-0.7-1.1-1.2-1.5c3-0.6,6.8-2.1,9.1-3.9h-8.5v-1.5h10.1v-1.4
		c-0.4,0.2-0.8,0.3-1.3,0.5c-0.3-0.5-0.7-0.9-1.1-1.2c1.9-0.6,3.2-1.5,4-2.5H678V81h3.1c0.1-0.4,0.1-1.1,0.1-1.6h-2.1V78h8.9
		c0.1,0.6-0.2,5.6,0.1,6c1.9,0.5,1.9-0.4,1.9-2.4c0.3,0.3,0.7,0.5,1.3,0.7c-0.1,2.2,0,3.3-2.1,3.3c-0.7,0-2.1,0.1-2.5-0.4
		c-0.9-1-0.3-4.5-0.4-5.8h-3.5c0,0.5,0,1.1-0.1,1.6h2.6v1.3h-3c-0.4,1.1-1.3,2-2.5,2.7h0.8v1.9h10.2v1.5H682
		c2.4,1.8,6.2,3.2,9.2,3.7c-0.4,0.4-0.8,0.9-1.2,1.6c-3.2-0.8-7.1-2.6-9.5-4.7v5.3L678.9,94.3L678.9,94.3z M669.9,77.6
		c-0.3-0.3-0.8-0.6-1.5-1c1.5-1.3,2.9-3.3,3.6-5.1l1.7,0.4c-0.2,0.5-0.5,1-0.8,1.6h6.5V75c1-1.1,1.7-2.2,2.2-3.5l1.8,0.4
		c-0.2,0.6-0.5,1.1-0.8,1.6h8.2V75h-5.3c0.6,0.8,1,1.4,1.3,2l-1.6,0.5c-0.3-0.6-0.8-1.4-1.6-2.5h-2c-0.7,0.9-1.5,1.7-2.2,2.3
		c-0.3-0.2-0.8-0.5-1.6-0.9c0.5-0.3,1-0.8,1.6-1.4h-4.6c0.5,0.8,0.8,1.4,1,2l-1.5,0.4c-0.2-0.6-0.6-1.4-1.1-2.5H672
		C671.3,76.1,670.6,77,669.9,77.6L669.9,77.6z M668.8,85l-0.2-1.5c0.6-0.1,3.1-0.4,4-0.5v-3.4h-3.5v-1.3h8.6v1.3h-3.4v3.2
		c0.6-0.1,2.7-0.4,3.4-0.5l0.1,1.4C676.2,83.9,670.5,84.8,668.8,85L668.8,85z"/>
	<path class="st0" d="M694.9,94.1c-0.3-0.5-0.7-0.9-1.2-1.3c2.5-1.9,3.9-5.1,4.2-9.6h-4v-1.7h4.1v-4.1h-3.6v-1.6h3.6v-3.9h1.7v3.9
		h3.5v1.6h-3.5v4.1h4v1.7h-4c0,0.3-0.1,0.8-0.1,1.4c1.1,1.1,2.5,2.6,4.3,4.7l-1.3,1.4c-0.6-1-1.7-2.3-3.3-4.2
		C698.5,89.8,697,92.3,694.9,94.1L694.9,94.1z M702.3,94.3c-0.2-0.5-0.6-1-1-1.4c3.4-1.1,4.8-3,5.3-6.6h-2V72.6h10.6v13.8h-3
		c0.1,0.3-0.1,5.8,0.1,5.8c2.8,0.5,2.8,0,2.8-3.2c0.3,0.3,0.8,0.5,1.5,0.7c-0.3,2.4,0.1,4-2.1,4.2c-0.9-0.1-3.2,0.2-3.7-0.5
		c-0.8-0.8-0.3-5.9-0.4-7.1h-2.2C707.7,90.6,706.2,92.9,702.3,94.3L702.3,94.3z M706.2,76.7h7.1v-2.4h-7.1V76.7z M706.2,80.7h7.1
		v-2.4h-7.1V80.7z M706.2,84.7h7.1v-2.5h-7.1V84.7z"/>
	<path class="st0" d="M719,93.8l-0.2-1.5c4.3-0.2,9-0.4,14.3-0.6l-0.1,1.4C728.4,93.3,720.5,93.7,719,93.8L719,93.8z M719,84.1v-1.3
		h6v-1.1h-4.9v-1.2h4.9v-1.1h-4.7v-1.2h4.7v-1.3h-6.2v-1.3h6.2v-1.2h-4.6v-1.2h4.6v-1.6h1.7v1.6h4.9v2.4h1.5v1.3h-1.5v2.5h-4.9v1.1
		h5.2v1.2h-5.2v1.1h6.3v1.3L719,84.1L719,84.1z M720.5,90.7v-5.5h11.1v5.5H720.5z M722,87.4h3.2v-1.2H722V87.4z M722,89.7h3.2v-1.2
		H722V89.7z M726.8,75.6h3.3v-1.2h-3.3V75.6z M726.8,78.3h3.3V77h-3.3V78.3z M726.9,87.4h3.2v-1.2h-3.2V87.4z M726.9,89.7h3.2v-1.2
		h-3.2V89.7z M734.1,88.3V74.6h1.7v13.7C735.8,88.3,734.1,88.3,734.1,88.3z M735.7,94.4c-0.1-0.5-0.2-1.1-0.6-1.8
		c1.9-0.2,3.2,0.6,3.7-0.5v-20h1.7V92C740.4,94.8,738.8,94.2,735.7,94.4z"/>
	<path class="st0" d="M750.3,78.9c-2.5,0.1-2.5-3.8,0-3.7C752.7,75.1,752.7,79,750.3,78.9z M750.3,91.1c-2.5,0.1-2.5-3.8,0-3.8
		C752.7,87.3,752.7,91.2,750.3,91.1z"/>
	<path class="st0" d="M760.2,82.9c-0.4-0.6-0.8-1.1-1.2-1.5c2.9-0.9,6.3-3,8.4-5.1h-7.8v-1.7h10v-2.9h1.8v2.9h10.2v1.7h-8.1
		c2.2,2.1,5.6,4,8.6,4.9c-0.5,0.4-0.9,1-1.2,1.6c-3.4-1.2-7.2-3.7-9.4-6.4v5.2h-1.8v-5.2C767.3,79.1,763.5,81.7,760.2,82.9
		L760.2,82.9z M766.1,94.3c-0.2-0.5-0.4-1.1-0.8-1.7c4.5,0,4.4,1,4.2-3.9h-10.1V87h10.1v-1.3c1.6,0.2,3-1.1,4.2-1.8h-10v-1.6h11.9
		l0,0c0.1,0,0.4-0.1,0.5-0.1l1.2,1c-1.7,1.4-3.7,2.7-6,3.7V87h10.2v1.7h-10.2C771.4,93.2,772,94.7,766.1,94.3L766.1,94.3z"/>
	<path class="st0" d="M785.1,94.4c-0.2-0.4-0.8-1.4-1.2-1.8c4-1.2,7.3-2.8,9.9-4.9c-2.5-2.6-4.5-6-5.9-10h-3.7v-1.8h10.1v-4.2h1.9
		v4.2h10.3v1.8h-3.8c-1.5,4.1-3.5,7.4-6,10c2.8,2.4,6.2,4,10.1,4.9c-0.5,0.5-0.9,1.1-1.3,1.8c-4.1-1-7.5-2.8-10.3-5.3
		C792.6,91.3,789.2,93,785.1,94.4L785.1,94.4z M795.3,86.3c2.3-2.3,4-5.2,5.3-8.7h-10.7C791.2,81.1,793,84,795.3,86.3z"/>
	<path class="st0" d="M810.4,94.4c-0.3-0.3-0.8-0.6-1.4-0.8c2.4-5.4,1.5-14.6,1.7-20.8h6.4v12.7c1.3-0.9,2.5-2,3.3-3.4h-2.7v-1.6
		h3.6c0.4-0.7,0.7-1.5,1-2.4h-2.9V77c-0.2,0.3-0.4,0.5-0.5,0.6c-0.3-0.3-0.8-0.6-1.3-0.9c1.1-1,2.3-2.9,2.8-4.3l1.6,0.4
		c-0.6,1.4-1.3,2.6-2.2,3.8h3c0.3-1.5,0.6-3.1,0.8-4.8l1.7,0.2c-0.2,1.6-0.5,3.2-0.8,4.6h5.7c-0.8-1.2-1.7-2.4-2.8-3.6l1.4-0.8
		c1.4,1.5,2.5,2.9,3.3,4.2l-1.4,0.9l-0.1-0.1v1h-3.1c0.2,0.8,0.5,1.6,0.9,2.4h3.5v1.6h-2.6c0.9,1.4,1.9,2.5,3.1,3.1
		c-0.5,0.4-0.9,0.9-1.2,1.4c-1.5-0.9-2.7-2.4-3.8-4.5h-5c-0.8,1.4-1.7,2.7-2.8,3.7h3.5c0.1-0.7,0.2-1.6,0.3-2.6h1.7
		c-0.1,1-0.1,1.9-0.3,2.6h5.3c-0.5,4.7,0.5,9.7-5.4,8.5c-0.1-0.7-0.2-1.2-0.5-1.6c3.9,0.6,3.6-0.2,4.1-5.3h-3.8
		c-0.7,3.3-2.3,5.5-5.3,7c-0.3-0.5-0.6-1-1-1.3c2.6-1.1,4-2.9,4.7-5.6h-3.3V86c-0.5,0.5-0.9,0.8-1.2,1c-0.3-0.3-0.6-0.7-1.1-1.1v6.4
		c-0.1,2.4-1.3,1.9-3.9,2.1c-0.1-0.5-0.2-1.1-0.5-1.7c1.5-0.2,2.5,0.5,2.8-0.4v-5.9l-0.4,0.5c-0.6-0.7-1.5-1.6-2.8-2.5
		C812.1,88.7,811.5,92.1,810.4,94.4L810.4,94.4z M815.4,84.9v-4.6l-0.4,0.5c-0.6-0.7-1.5-1.4-2.7-2.3c0,1.1,0,4,0,5l0.7-0.7
		C813.8,83.5,814.6,84.2,815.4,84.9z M815.4,79.1v-4.6h-3.1v3.4l0.6-0.7C813.9,77.9,814.7,78.5,815.4,79.1z M823.2,80.5h3.5
		c-0.3-0.7-0.6-1.5-0.8-2.4H824C823.8,78.9,823.5,79.7,823.2,80.5L823.2,80.5z"/>
	<path class="st0" d="M835.4,94.4c-0.3-0.4-1-1.1-1.4-1.3c1.4-0.9,2.5-2.2,3.4-3.8c-0.9-1.2-1.7-2.9-2.3-4.9l1.4-0.5
		c0.4,1.5,1,2.7,1.7,3.7c0.6-1.6,1.1-3.5,1.4-5.7h-2.9l-0.5,1l-1.7-0.5c1.2-2.2,2.4-4.7,3.7-7.5h-4v-1.6h4.9l0.3-0.1l1.3,0.4
		c-0.5,1.2-1.6,3.7-3.2,6.8c1,0,3.1-0.2,4,0.2c-0.4,3.4-1,6.3-2,8.6c3.1,3.8,14.5,2.7,17.6,2.8c-0.4,0.5-0.6,1.2-0.8,1.8
		c-5.6-0.2-13.5,1-17.6-3C837.8,92.3,836.7,93.5,835.4,94.4L835.4,94.4z M847.8,91.1v-2.6h-6.5V87h6.5v-2h-5.4v-1.4h5.4v-1.8h-5.3
		v-1.5h5.3v-1.8H841V77h6.8v-1.8h-5.1v-1.5h5.1v-1.8h1.8v1.8h5.5V77h1.9v1.5h-1.9v3.3h-5.5v1.8h5.7V85h-5.7v2h6.8v1.5h-6.8v2.6
		H847.8z M849.6,76.9h3.7v-1.8h-3.7V76.9z M849.6,80.2h3.7v-1.8h-3.7V80.2z"/>
	<path class="st0" d="M870,94.3V89c-2.4,2.1-6.3,4-9.5,4.8c-0.3-0.6-0.7-1.1-1.2-1.5c3-0.6,6.8-2.1,9.1-3.9h-8.5v-1.5H870v-1.4
		c-0.4,0.2-0.8,0.3-1.3,0.5c-0.3-0.5-0.7-0.9-1.1-1.2c1.9-0.6,3.2-1.5,4-2.5h-2.5V81h3.1c0.1-0.4,0.1-1.1,0.1-1.6h-2.1V78h8.9
		c0.1,0.6-0.2,5.6,0.1,6c1.9,0.5,1.9-0.4,1.9-2.4c0.3,0.3,0.7,0.5,1.3,0.7c-0.1,2.2,0,3.3-2.1,3.3c-0.7,0-2.1,0.1-2.5-0.4
		c-0.9-1-0.3-4.5-0.4-5.8h-3.5c0,0.5,0,1.1-0.1,1.6h2.6v1.3h-3c-0.4,1.1-1.3,2-2.5,2.7h0.8v1.9H882v1.5h-8.8
		c2.4,1.8,6.2,3.2,9.2,3.7c-0.4,0.4-0.8,0.9-1.2,1.6c-3.2-0.8-7.1-2.6-9.5-4.7v5.3L870,94.3L870,94.3z M861,77.6
		c-0.3-0.3-0.8-0.6-1.5-1c1.5-1.3,2.9-3.3,3.6-5.1l1.7,0.4c-0.2,0.5-0.5,1-0.8,1.6h6.5V75c1-1.1,1.7-2.2,2.2-3.5l1.8,0.4
		c-0.2,0.6-0.5,1.1-0.8,1.6h8.2V75h-5.3c0.6,0.8,1,1.4,1.3,2l-1.6,0.5c-0.3-0.6-0.8-1.4-1.6-2.5h-2c-0.7,0.9-1.5,1.7-2.2,2.3
		c-0.3-0.2-0.8-0.5-1.6-0.9c0.5-0.3,1-0.8,1.6-1.4h-4.6c0.5,0.8,0.8,1.4,1,2l-1.5,0.4c-0.2-0.6-0.6-1.4-1.1-2.5h-1.1
		C862.4,76.1,861.7,77,861,77.6L861,77.6z M859.9,85l-0.2-1.5c0.6-0.1,3.1-0.4,4-0.5v-3.4h-3.5v-1.3h8.6v1.3h-3.4v3.2
		c0.6-0.1,2.7-0.4,3.4-0.5l0.1,1.4C867.3,83.9,861.6,84.8,859.9,85L859.9,85z"/>
	<path class="st0" d="M885.4,93.6V75.4h2.1c0.5-1.2,0.8-2.5,1.1-3.7l2,0.3c-0.4,1.1-0.9,2.3-1.4,3.4h3.7v6.8h-5.7v2.3h6v7.4h-6v1.7
		L885.4,93.6L885.4,93.6z M887.1,80.6h4.1V77h-4.1V80.6z M887.1,90.4h4.3v-4.3h-4.3V90.4z M899.5,94.3v-15h-3.1v11.3h-1.7v-13h4.8
		v-3.1h-5.7v-1.7H907v1.7h-5.8v3.1h5v11c-0.1,2.2-1.2,1.8-3.5,1.9c-0.1-0.4-0.2-1-0.5-1.6c0.6-0.1,2,0.4,2.3-0.3v-9.3h-3.3v15H899.5
		L899.5,94.3z"/>
	<path class="st0" d="M916,94.5c-0.1-0.5-0.3-1-0.6-1.6c2.2-0.3,4.6,1.3,4-2.3h-8v-1.4h8v-1.9h-10.2v-1.5h10.2v-1.7h-7.8v-1.4h7.8
		V81h-7.1v-4.4h7.1v-1.4h-9.7v-1.5h9.7v-2h1.8v2h9.9v1.5h-9.9v1.4h7.4V81h-7.4v1.7h7.8v3.1h2.6v1.5H929v4.4h-1.8v-1.1h-6
		C921.7,94.3,920.2,94.6,916,94.5L916,94.5z M914.1,79.7h5.4v-1.8h-5.4V79.7z M921.3,79.7h5.6v-1.8h-5.6V79.7z M921.3,85.8h6v-1.7
		h-6V85.8z M921.3,89.2h6v-1.9h-6V89.2z"/>
	<path class="st0" d="M936.2,94.3c-0.1-0.6-0.3-1.2-0.6-1.7c0.7-0.2,2.4,0.5,2.8-0.3v-8c-1.1,2.8-2.3,4.8-3.6,6.1
		c-0.2-0.4-0.5-1-1-1.7c1.7-1.6,3.2-4.4,4-6.7H934v-1.6h6.7c-1.4-1.2-3.8-2.6-5.5-3.3l1.1-1.2c0.8,0.3,1.6,0.7,2.4,1.1
		c0.9-0.7,1.8-1.5,2.6-2.5h-7v-1.6h8.4l0.3-0.1l1.2,0.8c-1,1.5-2.3,2.9-4.1,4.2c0.9,0.5,1.6,1,2.1,1.5l-0.9,1.1c0.2,0,2,0.1,2.1-0.1
		l1.1,0.4c-0.1,0.3-0.2,0.7-0.4,1.3c1.8-0.5,3.3-1.1,4.5-1.9c-1-0.9-1.9-1.9-2.6-3c-0.7,0.8-1.3,1.4-1.8,1.8c-0.5-0.4-1-0.8-1.5-1.1
		c2-1.5,3.8-3.8,4.7-6.1l1.8,0.5c-0.3,0.6-0.7,1.4-1.1,2.1h8.3v1.6h-1.9c-0.7,1.6-1.7,3-3,4.2c1.6,1,3.4,1.7,5.4,2.2
		c-0.5,0.6-0.9,1.1-1.2,1.6c-2.1-0.6-4-1.5-5.6-2.6c-1.5,1-3.3,1.9-5.4,2.5c-0.1-0.2-0.3-0.5-0.7-1c-0.5,1.7-1,3-1.5,3.9l-1.3-0.6
		c0.5-1,0.9-2.3,1.3-4h-2.4v10.3C940.1,94.6,938.7,94.2,936.2,94.3L936.2,94.3z M943,94.4c-0.3-0.6-0.7-1.1-1.1-1.4
		c3-1.1,4.9-2.9,5.8-5.9h-3.9v-1.5h4.3c0.1-0.7,0.2-1.5,0.3-2.5h1.9c-0.1,0.8-0.2,1.6-0.3,2.5h5.8c-0.4,4.8-0.3,9.9-6,8.7
		c-0.1-0.7-0.2-1.3-0.5-1.7c4,0.6,3.9-0.3,4.5-5.4h-4.2C948.6,90.7,946.5,93,943,94.4L943,94.4z M950,79c1.1-0.9,1.9-2,2.4-3.2h-5.2
		C947.8,77,948.7,78.1,950,79z"/>
	<path class="st0" d="M959.5,94.2c-0.2-0.4-1-1-1.4-1.2c2.7-4.9,1.6-13.6,1.8-19.2l1.2,0.4c3-0.8,5.2-1.5,6.6-2.2l1.5,1.4
		c-1.8,0.8-4.3,1.5-7.5,2.2v2.2h7.4v7.7h-7.5C961.4,89.2,960.7,92.1,959.5,94.2L959.5,94.2z M961.7,83.8h5.6v-4.4h-5.6
		C961.7,80.3,961.8,83.1,961.7,83.8L961.7,83.8z M976.7,94.4V81.8h-4.3c-0.1,5.5-1.5,9.6-4.2,12.5c-0.3-0.4-0.9-1.1-1.4-1.2
		c4.6-4.6,3.7-12.7,3.8-19c3,0.9,7-1.5,8.5-2.1l1.6,1.4c-2,1-4.8,1.9-8.3,2.7v4h8.8v1.8h-2.7v12.5L976.7,94.4L976.7,94.4z"/>
	<path class="st0" d="M641.4,140.4c-0.4-0.3-0.9-0.5-1.4-0.7c0.8-1.4,1.3-3.4,1.6-5.9l1.6,0.3C642.8,136.8,642.2,138.9,641.4,140.4
		L641.4,140.4z M644.4,142.5v-10.3c-1,0.1-3.5,0.2-4.1,0.2l-0.2-1.7c0.3,0,0.9,0,1.6-0.1c0.5-0.6,1.1-1.3,1.7-2.2
		c-0.7-1.1-1.8-2.3-3.3-3.6l0.9-1.2c0.2,0.1,0.4,0.3,0.8,0.6c0.8-1.4,1.6-3,2.2-4.6l1.6,0.6c-1.2,2.3-2.1,4-2.8,5
		c0.6,0.6,1.1,1.2,1.5,1.7c1-1.6,1.9-3.1,2.7-4.5l1.6,0.7c-1.9,3-3.6,5.5-5.2,7.4c1.3,0,3.2-0.1,4-0.2c-0.4-0.8-0.8-1.5-1.2-2.2
		l1.4-0.6c0.9,1.4,2.1,3.6,2.5,5.1l-1.5,0.7c-0.1-0.4-0.3-0.9-0.5-1.4l-2.1,0.2v10.4L644.4,142.5L644.4,142.5z M648.6,139
		c-0.2-1.3-0.8-2.9-1.6-4.8l1.4-0.4c0.9,1.9,1.4,3.4,1.7,4.8L648.6,139L648.6,139z M650.3,130.3v-1.7h5v-3.7h-5.7v-1.7h5.7v-3.5h1.9
		v3.5h5.9v1.7h-5.9v3.7h5.4v1.7H650.3z M651.1,142.4V133h10.7v9.3H660v-1.2h-7.2v1.2L651.1,142.4L651.1,142.4z M652.8,139.5h7.2
		v-4.8h-7.2V139.5z"/>
	<path class="st0" d="M675.1,142.4v-3.9h-2v-1.4h2v-1.9h-1.9V134l-0.1,0.2c-0.4-0.7-1.1-1.8-2.2-3.2v11.5h-1.7V131
		c-1,3.2-2.1,5.5-3.1,7c-0.1-0.3-0.6-1.1-0.9-1.6c1.7-2.3,3.2-6.6,3.9-9.6h-3.4V125h3.5v-5.3h1.7v5.3h3v1.7h-3v2.1
		c0.4,0.4,1.7,1.9,3.2,3.7l-0.8,1.3h1.8v-3.1h4.7v-1.4h-6.6v-1.4h3.7v-1.6h-2.4V125h2.4v-1.6h-3V122h3v-2.1h1.7v2.1h4v-2.1h1.7v2.1
		h3.1v1.4h-3.1v1.6h2.6v1.3h-2.6v1.6h3.8v1.4h-6.8v1.4h5v3.1h1.6v1.4h-1.6v1.9h1.7v1.4h-1.7c0.3,3.3-0.1,4.1-4.1,3.9
		c-0.2-0.5-0.4-1-0.6-1.5c2.7-0.2,3.3,0.9,3-2.4h-7.9v3.9L675.1,142.4L675.1,142.4z M676.8,133.8h3v-1.7h-3V133.8z M676.8,137.1h3
		v-1.9h-3V137.1z M678.7,124.8h4v-1.6h-4V124.8z M678.7,127.8h4v-1.6h-4V127.8z M681.4,133.8h3.3v-1.7h-3.3V133.8z M681.4,137.1h3.3
		v-1.9h-3.3V137.1z"/>
	<path class="st0" d="M694.1,142.2V135c-0.2,0.2-0.3,0.4-0.5,0.7c-0.1-0.1-0.5-0.4-0.6-0.6c-0.3,2.8-0.8,5.1-1.5,7
		c-0.2-0.3-0.9-0.9-1.3-1c2-5.4,1.3-13.8,1.5-19.9c3.1,0.7,6.9-0.6,8.7-0.9l1.3,1.2c-2.1,0.6-4.9,1.1-8.4,1.3v1.3h8.8v5.1h-8.8
		c0,1.5-0.1,3.1-0.2,4.7c0.9-1.3,1.6-2.8,2.1-4.5l1.4,0.3c-0.2,0.6-0.4,1.3-0.7,1.9h2.1c0.4-0.9,0.7-1.7,0.8-2.2l1.5,0.4
		c-0.1,0.3-0.7,1.3-0.9,1.7h2.9v1.3h-3v1.4h2.7v1.2h-2.7v1.4h2.8v1.2h-2.8v1.4h3.1v1.3h-6.9v1.3L694.1,142.2L694.1,142.2z
		 M693.2,127.8h7.1v-2.2h-7.1V127.8z M695.5,134.3h2.4V133h-2.4V134.3z M695.5,136.9h2.4v-1.4h-2.4V136.9z M695.5,139.5h2.4v-1.4
		h-2.4V139.5z M703,142.5c-0.3-0.3-0.7-0.7-1.2-1.1c1.3-0.6,3.1-1.9,4-3l1.5,0.9C706.1,140.6,704.6,141.7,703,142.5L703,142.5z
		 M703.5,137.7v-12.9h3c0.2-0.9,0.3-1.6,0.3-2.3h-4v-1.6H713v1.6h-4.3c-0.1,0.4-0.3,1.5-0.5,2.3h4.2v12.9H703.5L703.5,137.7z
		 M705,128.6h5.8v-2.4H705V128.6z M705,132.4h5.8V130H705V132.4z M705,136.2h5.8v-2.4H705V136.2z M712.1,142.5
		c-0.8-1-1.9-2.1-3.3-3.2l1.3-0.8c1.4,1.1,2.5,2.2,3.3,3.1L712.1,142.5z"/>
	<path class="st0" d="M716.5,142.5v-21.7h8.9v8.7h-7.1v13H716.5z M718.4,124.4h5.4v-2.1h-5.4V124.4z M718.4,128h5.4v-2.3h-5.4V128z
		 M721.9,140.4v-8.7h9.3v7.2h-7.6v1.5H721.9z M723.6,137.4h5.9v-4.1h-5.9V137.4z M731.3,142.4c-0.1-0.6-0.3-1.3-0.6-1.9
		c1.6-0.2,3.9,0.8,4.3-0.6v-10.5h-7.3v-8.7h9.2v19.2C736.7,143.1,734.8,142.2,731.3,142.4L731.3,142.4z M729.5,124.4h5.5v-2.1h-5.5
		V124.4z M729.5,128h5.5v-2.3h-5.5V128z"/>
	<path class="st0" d="M746.6,127c-2.5,0.1-2.5-3.8,0-3.7C749.1,123.2,749.1,127.1,746.6,127z M746.6,139.2c-2.5,0.1-2.5-3.8,0-3.8
		S749.1,139.3,746.6,139.2z"/>
	<path class="st0" d="M766.2,142.4V137c-2.4,2.1-6.3,4-9.5,4.8c-0.3-0.6-0.7-1.1-1.2-1.5c3-0.6,6.8-2.1,9.1-3.9H756v-1.5h10.1v-1.4
		c-0.4,0.2-0.8,0.3-1.3,0.5c-0.3-0.5-0.7-0.9-1.1-1.2c1.9-0.6,3.2-1.5,4-2.5h-2.5V129h3.1c0.1-0.4,0.1-1.1,0.1-1.6h-2.1v-1.3h8.9
		c0.1,0.6-0.2,5.6,0.1,6c1.9,0.5,1.9-0.4,1.9-2.4c0.3,0.3,0.7,0.5,1.3,0.7c-0.1,2.2,0,3.3-2.1,3.3c-0.7,0-2.1,0.1-2.5-0.4
		c-0.9-1-0.3-4.5-0.4-5.8H770c0,0.5,0,1.1-0.1,1.6h2.6v1.3h-3c-0.4,1.1-1.3,2-2.5,2.7h0.8v1.9H778v1.5h-8.8c2.4,1.8,6.2,3.2,9.2,3.7
		c-0.4,0.4-0.8,0.9-1.2,1.6c-3.2-0.8-7.1-2.6-9.5-4.7v5.3L766.2,142.4L766.2,142.4z M757.1,125.7c-0.3-0.3-0.8-0.6-1.5-1
		c1.5-1.3,2.9-3.3,3.6-5.1l1.7,0.4c-0.2,0.5-0.5,1-0.8,1.6h6.5v1.4c1-1.1,1.7-2.2,2.2-3.5l1.8,0.4c-0.2,0.6-0.5,1.1-0.8,1.6h8.2v1.5
		h-5.3c0.6,0.8,1,1.4,1.3,2l-1.6,0.5c-0.3-0.6-0.8-1.4-1.6-2.5h-2c-0.7,0.9-1.5,1.7-2.2,2.3c-0.3-0.2-0.8-0.5-1.6-0.9
		c0.5-0.3,1-0.8,1.6-1.4H762c0.5,0.8,0.8,1.4,1,2l-1.5,0.4c-0.2-0.6-0.6-1.4-1.1-2.5h-1.1C758.5,124.2,757.8,125.1,757.1,125.7
		L757.1,125.7z M756.1,133.1l-0.2-1.5c0.6-0.1,3.1-0.4,4-0.5v-3.4h-3.5v-1.3h8.6v1.3h-3.4v3.2c0.6-0.1,2.7-0.4,3.4-0.5l0.1,1.4
		C763.5,132,757.7,132.9,756.1,133.1L756.1,133.1z"/>
	<path class="st0" d="M781.9,142.2l-0.9-1.8c1.3-0.9,2.4-1.9,3.5-2.8v-4.7h-3.3v-1.7h5v6.3c3.2,4.5,12.7,2.4,17.7,2.6
		c-0.3,0.6-0.5,1.2-0.6,1.8c-6.3-0.2-13.8,1.7-17.8-2.9C784.6,139.9,783.4,140.9,781.9,142.2L781.9,142.2z M785.5,129.2
		c-1-1-2.9-2.3-4.2-3l1.2-1.2c1.4,0.6,3.3,1.8,4.3,2.8L785.5,129.2L785.5,129.2z M786.2,124.3c-0.9-1.1-2.7-2.4-4-3.1l1.2-1.1
		c1.3,0.7,3.2,1.9,4.1,3L786.2,124.3L786.2,124.3z M794.2,139.3v-4.7c-1.6,1.4-3.6,2.6-6,3.5c-0.3-0.6-0.7-1.1-1.1-1.4
		c2.9-1,5.1-2.3,6.6-3.8h-4.4v-5.3h11.8v5.3H796v0.1c0.5,0.8,1.2,1.5,2.1,2.2c1.4-0.9,2.5-1.7,3.5-2.6l1.4,0.9
		c-1.2,0.9-2.4,1.7-3.7,2.4c1.3,0.8,2.6,1.3,4.1,1.7c-0.4,0.4-0.8,0.8-1.1,1.4c-2.5-0.7-4.6-2-6.3-3.8v4L794.2,139.3L794.2,139.3z
		 M787.3,126.3v-1.4h6.9v-1.8h-5.6v-1.4h5.6v-2h1.8v2h5.7v1.4H796v1.8h7.2v1.4H787.3L787.3,126.3z M791.1,131.5h8.3V129h-8.3V131.5z
		"/>
	<path class="st0" d="M806.4,140.5v-1.8h10v-14.3h-8.7v-1.9h19.7v1.9h-8.9v14.3h10.2v1.8H806.4L806.4,140.5z"/>
	<path class="st0" d="M835,142.4v-11c-1.2,2.9-2.4,5-3.6,6.5c-0.1-0.4-0.4-1-0.9-1.7c1.7-1.9,3.4-5.2,4.3-7.8H831v-1.7h4.1v-3.8
		c-0.9,0.2-2.1,0.4-3.6,0.6c-0.1-0.4-0.3-0.9-0.6-1.4c3.6-0.6,6.3-1.2,8-2l1.3,1.4c-0.8,0.3-1.9,0.7-3.2,1v4.2h3.1v1.7H837v1.5
		c0.5,0.4,2.9,2.8,3.4,3.4l-1.1,1.5c-0.4-0.8-1.2-1.8-2.3-3.1v10.7L835,142.4L835,142.4z M839.2,141.8v-1.6h6.2v-3.3h-4.8v-1.6h4.8
		v-3c-1.8,0.2-3.4,0.3-4.9,0.3c-0.1-0.4-0.2-0.8-0.4-1.4c5.1-0.3,8.8-0.8,11.1-1.4l1.2,1.4c-1.2,0.3-3,0.7-5.2,0.9v3.2h5v1.6h-5v3.3
		h6v1.6H839.2L839.2,141.8z M840.8,128.8V121H852v7.8H840.8z M842.6,127.2h7.6v-4.7h-7.6V127.2z"/>
	<path class="st0" d="M855.6,134.4v-1.7h6.4v1.7H855.6z"/>
	<path class="st0" d="M867,142.4c0-0.7-0.2-1.3-0.5-1.7c4.7,0.8,4.1-0.9,4.8-7.2h-4.6l-0.2,1l-1.7-0.2c0.4-2.2,0.8-4.7,1.1-7.6h5.2
		v-4h-6V121h7.7v7.4h-5.4c-0.1,0.7-0.4,2.8-0.4,3.4h6.2C872.5,137.3,873.9,143.7,867,142.4L867,142.4z M886.4,142.5
		c-3.4-1.5-5.8-4.7-7.1-9.5H877v6.8c2.1-0.3,3.7-0.6,4.7-0.8l0.1,1.6c-2.3,0.4-7.2,1.3-8.3,1.5l-0.4-1.8c0.3,0,1.5-0.2,2.1-0.3v-7.1
		h-2.1v-1.7h2v-10.6h11v1.6H877v2h8.3v1.4H877v2.1h8.3v1.4H877v2.1h10.3v1.7h-6.4c0.4,1.2,0.9,2.4,1.5,3.4c1.3-0.9,2.4-1.8,3.3-2.7
		l1.5,0.9c-1.3,1-2.6,2-4.1,2.9c1.2,1.7,2.7,2.9,4.5,3.5C887.2,141.3,886.8,141.8,886.4,142.5L886.4,142.5z"/>
	<path class="st0" d="M891.1,133.8c-0.4-0.4-0.9-0.9-1.4-1.3c3-1.9,4.9-5.2,5.8-9.9h-4.9V121h16.8c-0.3,1.7-0.6,3-0.8,4.1h5.3
		c-0.3,4.9-0.2,9-6,7.8c-0.1-0.6-0.2-1.2-0.5-1.7c3.5,0.4,4.5,0.4,4.7-4.5h-3.7c0,0.3-0.2,0.9-0.3,1.3l-1.7-0.3
		c0.3-1.3,0.7-3,1.1-5.2h-7.9c-0.1,0.6-0.3,1.3-0.5,2.1c1,0.1,5.5-0.2,6.3,0.3c-0.4,1.7-1,3.2-1.9,4.4c1.1,0.7,2,1.4,2.6,2l-1.1,1.1
		c-0.6-0.6-1.4-1.2-2.4-1.9c-1.2,1.2-2.7,2.2-4.5,2.8c-0.3-0.5-0.6-0.9-1.1-1.3c1.7-0.5,3.1-1.3,4.2-2.4c-1-0.6-2-1.1-2.9-1.5l1.1-1
		c0.8,0.3,1.7,0.8,2.8,1.4c0.5-0.7,0.9-1.5,1.2-2.4h-4.8C895.3,129.5,893.5,132,891.1,133.8L891.1,133.8z M890.1,141.7v-1.6h2.8V134
		h16.9v6.1h2.8v1.6L890.1,141.7L890.1,141.7z M894.6,140.1h3.3v-4.6h-3.3V140.1z M899.6,140.1h3.3v-4.6h-3.3V140.1z M904.6,140.1
		h3.4v-4.6h-3.4V140.1z"/>
	<path class="st0" d="M915.7,132.8c-0.3-0.5-0.7-1-1.2-1.3c2.7-1.1,4.4-2.5,5-4.4h-4.8v-1.5h5.1c0.1-0.4,0-1.8,0.1-2.3h-2.1
		c-0.5,0.9-1,1.6-1.6,2.2c-0.5-0.4-1-0.7-1.5-0.9c1.2-1.2,2.2-2.8,2.8-5l1.7,0.3c-0.1,0.4-0.3,1-0.7,1.8h6.8v1.5h-3.7
		c0,0.5,0,1.9-0.1,2.3h4.3v1.5h-4.6c0,0.1-0.1,0.3-0.1,0.4c0.7,0.4,3.9,2.3,4.5,2.8l-1.3,1.3c-0.7-0.6-2-1.6-3.8-2.8
		C919.7,130.4,918.1,131.7,915.7,132.8L915.7,132.8z M918.4,142.5v-10.2h15.2v10.2h-1.9v-0.9h-11.5v0.9H918.4z M920.2,136.1h11.5
		v-2.3h-11.5V136.1z M920.2,140h11.5v-2.5h-11.5V140z M927,130.4v-8.6h8.7v8.6H927z M928.7,128.7h5.1v-5.3h-5.1
		C928.7,123.4,928.7,128.7,928.7,128.7z"/>
	<path class="st0" d="M641.4,179.3l-1.2-0.6c0.9-1.2,1.4-3.2,1.4-6l1.3,0.2C642.9,175.8,642.4,178,641.4,179.3L641.4,179.3z
		 M641.4,190.5c-0.3-0.5-0.7-0.9-1.2-1.2c5.1-5,3.6-14.3,3.8-21.1h1.7v7.8c0.8-1.4,1.4-2.9,1.9-4.5l1.5,0.6c-1,2.2-1.8,3.6-2.3,4.4
		l-1.1-0.5c0,2.2-0.1,4.5-0.3,6c0.6,0.7,1.8,2.1,3.5,4.4l-1.3,1.3c-0.4-0.8-1.3-2-2.6-3.8C644.3,186.5,643.1,188.7,641.4,190.5
		L641.4,190.5z M648,178.5c-0.3-0.5-0.6-0.9-1-1.2c1.5-0.7,2.8-1.8,3.9-3.3c-0.5-0.5-1.2-1.1-2-1.7l0.9-1c0.8,0.5,1.4,1,1.9,1.5
		c0.5-0.8,0.9-1.7,1.2-2.5h-3.8v-1.4h4.5l0.3-0.1l1,0.4c-0.5,2-1.4,3.9-2.6,5.5h6.4c-1.5-1.8-2.7-4-3.5-6.6l1.4-0.4
		c0.3,0.8,0.6,1.7,1.1,2.6c0.9-0.7,1.6-1.4,2.1-2l1.2,1c-0.9,0.8-1.8,1.5-2.7,2.1c0.4,0.6,0.7,1.1,1,1.5c1-0.7,1.8-1.4,2.4-2l1.2,1
		c-1,0.8-2,1.4-2.7,1.9c1.1,1.1,2.3,2,3.5,2.6c-0.4,0.4-0.8,0.9-1.2,1.4c-1.2-0.7-2.4-1.6-3.5-2.8v1.2h-7v-1
		C650.8,176.6,649.5,177.7,648,178.5L648,178.5z M647.8,189.9v-1.6h15v1.6H647.8z M650.1,183.7v-5.6h10.7v5.6H650.1z M652.4,188.3
		c-0.1-1.1-0.6-2.4-1.3-3.7l1.5-0.5c0.7,1.2,1.2,2.4,1.4,3.6L652.4,188.3L652.4,188.3z M651.8,182.3h7.3v-2.8h-7.3V182.3z
		 M658.1,188.3l-1.5-0.4c0.6-1.2,1.1-2.5,1.4-3.8l1.8,0.4C659,186.3,658.5,187.5,658.1,188.3z"/>
	<path class="st0" d="M666.5,190.5c-0.3-0.6-0.7-1.1-1.1-1.6c5.3-1.7,6.6-4.4,7.1-10h-6.6v-1.8h10v-9.4h1.8v9.4h10.2v1.8h-7.1
		c0.1,0.4-0.2,9.7,0.2,9.6c0.4,0.4,3.5,0.1,4.2,0.2c1.7-0.5,0.9-1.8,1.3-4.2c0.4,0.3,0.9,0.6,1.7,0.8c-0.4,3.1,0,4.9-2.8,5.1
		c-1.3-0.1-5,0.3-5.8-0.6c-1.2-1-0.3-9.4-0.6-10.9h-4.6C673.8,185.2,672.3,188.5,666.5,190.5L666.5,190.5z M670.8,175.8
		c-0.5-1.8-1.8-4.5-2.9-6.2l1.7-0.6c1.1,1.7,2.5,4.3,3,6.1L670.8,175.8z M682.5,175.7l-1.5-0.6c1.1-1.7,2.5-4.5,3.1-6.4l1.9,0.7
		C684.7,172.2,683.5,174.3,682.5,175.7L682.5,175.7z"/>
	<path class="st0" d="M690.1,173.4v-1.5h9.4v1.5H690.1z M691.2,190.2v-8.3h7.4v7.2h-5.8v1.1H691.2z M691.2,176.7v-1.5h7.4v1.5H691.2
		z M691.2,180.1v-1.5h7.4v1.5H691.2z M691.4,170.2v-1.5h7.2v1.5H691.4z M692.8,187.6h4.2v-4.2h-4.2V187.6z M700,178.1
		c-0.4-0.5-0.9-0.9-1.3-1.2c3-1.7,2.8-5.3,2.8-8.3h7.8c0.2,0.5-0.5,7,0.5,6.7c2,0.3,1.8-0.5,1.8-2.7c0.4,0.3,0.9,0.5,1.5,0.7
		c-0.2,2.1,0,3.5-1.9,3.6c-0.8,0-2.8,0.2-3.3-0.5c-0.8-0.8-0.3-5.1-0.4-6.2h-4.3C703.4,173.4,702.5,176.5,700,178.1L700,178.1z
		 M699.7,190.5c-0.3-0.6-0.6-1.2-1-1.6c2.2-0.6,4.2-1.5,5.9-2.7c-1.5-1.5-2.6-3.3-3.5-5.4l1.6-0.5c0.7,1.8,1.8,3.4,3.2,4.8
		c1.4-1.4,2.5-3,3.3-4.9h-9.4v-1.7H710l0.3-0.1l1.2,0.5c-0.8,2.9-2.2,5.4-4.2,7.3c1.7,1.3,3.6,2.2,5.7,2.7c-0.4,0.4-0.8,0.9-1.2,1.6
		c-2.3-0.7-4.2-1.7-5.9-3.1C704.2,188.8,702.1,189.8,699.7,190.5L699.7,190.5z"/>
	<path class="st0" d="M715.4,173.4v-1.5h9.8v1.5H715.4z M716.5,190.2v-8.3h7.7v7.2h-6v1.1H716.5z M716.6,176.7v-1.5h7.7v1.5H716.6z
		 M716.6,180.1v-1.5h7.7v1.5H716.6z M716.7,170.2v-1.5h7.6v1.5H716.7z M718.2,187.6h4.4v-4.2h-4.4V187.6z M731,190.5v-12.4h-5.8
		v-1.8h5.8v-8.4h1.8v8.4h5.6v1.8h-5.6v12.4H731L731,190.5z"/>
	<path class="st0" d="M746.4,175.1c-2.5,0.1-2.5-3.8,0-3.7C748.9,171.3,748.9,175.2,746.4,175.1z M746.4,187.3
		c-2.5,0.1-2.5-3.8,0-3.8S748.9,187.4,746.4,187.3z"/>
	<path class="st0" d="M764.2,190.5c-0.1-0.4-0.3-1-0.6-1.6c1.8-0.2,3.1,0.6,3.6-0.4v-6.3h-6v-8.9h5.2c0.3-0.9,0.5-1.7,0.6-2.4h-8
		c0.2,6.2-0.1,16-2.6,19.6c-0.5-0.4-1-0.7-1.6-0.9c3.1-5.3,2.3-13.9,2.4-20.3h20.1v1.7h-8.1c-0.3,1-0.6,1.8-0.8,2.4h6.8v8.9H769v6.3
		C769,191.1,766.4,190.3,764.2,190.5L764.2,190.5z M759.8,189.5c-0.3-0.3-0.8-0.7-1.5-1.1c1.8-1.2,3.7-3.1,4.8-4.9l1.7,0.5
		C763.6,185.9,761.6,188.1,759.8,189.5L759.8,189.5z M763,177h10.3v-2.3H763V177z M763,180.7h10.3v-2.3H763V180.7z M776.1,189.4
		c-1-1.6-3.3-3.8-5-5.1l1.4-0.9c1.7,1.3,4,3.4,5.1,5L776.1,189.4L776.1,189.4z"/>
	<path class="st0" d="M781.2,188.9V181c-0.4,0.8-0.8,1.5-1.3,2.2c-0.4-0.7-0.8-1.2-1.1-1.6c1.7-2.3,2.9-6,3.6-11h-3.1v-1.7h9.5v1.7
		h-4.6c-0.3,2.1-0.7,4-1.2,5.6h5.2v10.5h-5.3v2.1L781.2,188.9L781.2,188.9z M782.8,185.2h3.6V178h-3.6V185.2z M788.5,190.6
		c-0.4-0.4-0.8-0.9-1.3-1.3c2.4-1,4.2-2.1,5.3-3.5l1.7,0.6C792.8,188,790.5,189.6,788.5,190.6L788.5,190.6z M790,185.6V173h3.7
		c0.2-0.8,0.3-1.7,0.5-2.5h-5v-1.7h12.2v1.7h-5.2c-0.1,0.6-0.5,2.1-0.6,2.5h5v12.6H790L790,185.6z M791.7,176.8h7v-2.2h-7V176.8z
		 M791.7,180.4h7v-2.2h-7V180.4z M791.7,184.1h7v-2.3h-7V184.1z M800.4,190.5c-0.9-1.2-2.3-2.5-4.2-3.9l1.4-0.9
		c1.8,1.3,3.2,2.6,4.3,3.8L800.4,190.5z"/>
	<path class="st0" d="M806.1,190.6l-1.8-0.8c1.2-1.4,2.3-3.1,3.3-5.1l1.7,0.5C808.3,187.4,807.2,189.2,806.1,190.6L806.1,190.6z
		 M805.6,184.3v-15.4h7.2V183h-5.5v1.3H805.6z M807.3,174.9h3.7v-4.3h-3.7V174.9z M807.3,181.4h3.7v-4.9h-3.7V181.4z M812.2,190.4
		c0-1.6-0.2-3.2-0.5-5l1.7-0.2c0.4,1.9,0.6,3.5,0.6,4.9L812.2,190.4L812.2,190.4z M814.1,176.6c-0.2-0.5-0.6-1-1-1.4
		c2.8-0.8,4.3-2,4.9-4.8h-4.1v-1.6h12.2c-0.2,4.4-0.1,8-5.3,6.9c-0.1-0.6-0.2-1.1-0.5-1.5c3.2,0.3,3.8,0.5,3.9-3.7h-4.4
		C819.1,173.9,817.5,175.6,814.1,176.6L814.1,176.6z M814.6,183.8V177h10.8v6.8H814.6z M816.3,182.3h7.2v-3.8h-7.2V182.3z
		 M818.5,190.4c-0.3-1.6-0.8-3.3-1.5-5l1.7-0.3c0.8,1.9,1.3,3.5,1.6,4.9L818.5,190.4L818.5,190.4z M825.1,190.6
		c-0.6-1.5-1.7-3.3-3.1-5.3l1.6-0.7c1.5,2,2.6,3.8,3.2,5.2L825.1,190.6L825.1,190.6z"/>
	<path class="st0" d="M829.6,186.4v-17h8.1v14.7h-6.4v2.3H829.6L829.6,186.4z M831.4,175.7h4.7V171h-4.7V175.7z M831.4,182.3h4.7v-5
		h-4.7V182.3z M836.8,190.7c-0.3-0.5-0.8-0.9-1.4-1.3c6.1-4.3,4.4-13.9,4.6-20.6h10.5V188c-0.1,3-2,2.2-5.3,2.4
		c-0.1-0.7-0.4-1.3-0.7-1.8c0.8-0.3,3.8,0.7,4.2-0.6v-5.5h-7.3C840.8,186.1,839.3,188.8,836.8,190.7L836.8,190.7z M841.7,180.9h7.1
		v-4.4h-6.9C841.9,177.9,841.8,179.8,841.7,180.9z M841.8,174.9h6.9v-4.3h-6.9V174.9z"/>
	<path class="st0" d="M854,182.5v-1.7h6.4v1.7H854z"/>
	<path class="st0" d="M863.2,190.6c-0.4-0.5-0.9-0.9-1.3-1.3c2.2-0.5,5.4-1.7,7.2-2.7h-4v-8.1h7.2v-1.3h-10.1v-1.6h22.2v1.6h-10.3
		v1.3h7.7v8.1h-4.5c2.9,0.9,5.4,1.8,7.4,2.7l-1.6,1.2c-1.8-0.9-4.2-1.9-7.2-2.9l1.2-1.1h-7.6l1.5,1
		C868.9,188.7,865.6,190,863.2,190.6L863.2,190.6z M868.1,174.3v-3.1h-4.6v-1.5h4.6v-1.9h1.8v1.9h7v-1.9h1.9v1.9h4.6v1.5h-4.6v3.1
		H868.1z M866.9,181.8h5.5v-2h-5.5V181.8z M866.9,185.2h5.5v-2.1h-5.5V185.2z M869.9,172.9h7v-1.8h-7V172.9z M874.1,181.8h5.8v-2
		h-5.8V181.8z M874.1,185.2h5.8v-2.1h-5.8V185.2z"/>
	<path class="st0" d="M893.9,190.6c-0.2-0.3-0.7-0.7-1.4-1.3c2.7-1.9,4.6-4.9,5.6-9.1h-3.8v-1.6h4.2c0.2-0.8,0.3-1.4,0.3-1.9h-3.6
		v-1c-0.5-0.4-1-0.7-1.3-0.8v10.8h-4.8v2h-1.6v-18h6.4v5.2c1.3-1.4,2.3-3.4,3-5.9c3.3,0.6,7.4-0.8,8.9-1.1l1.4,1.3
		c-2.1,0.7-5.2,1.2-9,1.5c-0.7,1.8-1.4,3.3-2.3,4.6h12.6v1.6h-7.7c-0.1,0.5-0.2,1.1-0.3,1.9h9.1v1.6h-9.4c-0.1,0.5-0.3,1.1-0.5,1.8
		h6.8l0.3-0.1l1.1,0.5c-0.7,1.8-1.9,3.4-3.5,4.8c1.6,0.9,3.4,1.5,5.3,1.8c-0.4,0.4-0.8,0.9-1.1,1.5c-2.1-0.5-4-1.2-5.6-2.3
		c-1.4,1-3.2,1.8-5.1,2.3c-0.3-0.6-0.6-1.1-0.9-1.4c1.7-0.4,3.2-1,4.7-1.9c-1.1-0.9-2-1.9-2.7-3C897.4,186.9,895.9,189,893.9,190.6
		L893.9,190.6z M889.1,176.8h3.1v-5.5h-3.1V176.8z M889.1,184.1h3.1v-5.7h-3.1V184.1z M901.1,174.8c-0.2-1-0.6-2.2-1.4-3.6l1.4-0.5
		c0.8,1.2,1.3,2.4,1.5,3.5L901.1,174.8z M902.6,186.3c1.1-0.8,1.9-1.8,2.6-2.9h-5.5C900.5,184.5,901.4,185.5,902.6,186.3
		L902.6,186.3z M907.4,174.9c-0.6-1.3-2-3-3.1-4.1l1.3-0.8c1.1,1,2.6,2.7,3.2,4L907.4,174.9L907.4,174.9z"/>
	<path class="st0" d="M921.4,190.5v-10.8c-0.8,2.5-1.6,4.4-2.5,5.8c-0.3-0.4-0.6-0.7-0.9-0.9v1.4h-4.4v1.9h-1.5v-18.3h5.9v14.2
		c1.5-2.3,2.7-5.9,3.3-8.8h-2.9v-1.6h2.9V168h1.6v5.4h2.6v1.6h-2.6v2.6c1.2,1.3,2.1,2.4,2.7,3.2l-1.1,1.2c-0.3-0.5-0.8-1.4-1.7-2.5
		v11.1L921.4,190.5L921.4,190.5z M913.7,176.8h2.8v-5.6h-2.8V176.8z M913.7,184.3h2.8v-5.9h-2.8V184.3z M930.3,190.5v-12.9h-2.4
		c0.1,5.1-0.8,10.2-2.6,12.8c-0.2-0.4-0.9-0.9-1.2-1.1c3.2-4.8,2-13.5,2.2-19.3l0.9,0.3c2.3-0.8,4-1.6,5.1-2.3l1.6,1.2
		c-1.5,0.9-3.5,1.7-6,2.4v4.4h6.2v1.6H932v12.9L930.3,190.5L930.3,190.5z"/>
	<path class="st0" d="M641.8,238.2c-0.6-0.6-1-1.1-1.3-1.3c2.7-1,4.7-2,6.1-3.1l1.7,0.7C646.6,235.8,644.4,237.1,641.8,238.2z
		 M640.7,226.7v-1.5h10v-1.5h-7.1v-6.9h16.1v6.9h-7.2v1.5h10v1.5H640.7z M648,238.6c-0.1-0.4-0.3-0.9-0.5-1.5
		c4.4,0.4,3.1-0.2,3.3-3.9h-6.6V228h15.1v5.2h-6.7C652.6,237.3,653.6,239,648,238.6L648,238.6z M645.4,219.6h12.5V218h-12.5V219.6z
		 M645.4,222.4h12.5v-1.6h-12.5V222.4z M646,231.9h11.5v-2.5H646V231.9z M661.3,238.1c-1.6-1.1-4.5-2.6-6.5-3.3l1.2-1
		c2,0.8,5,2.1,6.5,3.2L661.3,238.1L661.3,238.1z"/>
	<path class="st0" d="M676.4,238.6c-0.4-0.6-0.7-1.1-1-1.3l0.2-0.1h-7.4v1.2h-1.5v-7.5c-0.3,0.5-0.7,1-1.2,1.5
		c-0.3-0.5-0.7-0.9-1-1.2c1.4-1.4,2.5-3.3,3.2-5.6h-2V221h4.8v4.6h-2.2l0.9,0.3c-0.3,0.8-0.5,1.4-0.7,1.8h2.7c0.4-1,0.6-1.6,0.7-2
		h-0.3v-4.6h4.9v4.6h-4.4l1.3,0.3c-0.4,0.8-0.6,1.3-0.8,1.7h4v1.3h-4.3v1.4h3.8v1.2h-3.8v1.5h3.8v1.2h-3.8v1.5h4.4v0.8
		c2.1-1.4,2.4-3.2,2.6-6h-1.6v-13.8h8.8v13.8h-2.4c0,0.2-0.1,5.9,0.1,5.9c2.3,0.6,2.1-0.7,2.1-3.1c0.2,0.2,0.8,0.4,1.4,0.6
		c-0.3,2.3,0.2,3.9-1.8,4.1c-0.8,0-2.7,0.2-3-0.4c-0.7-0.8-0.2-6-0.3-7.1h-1.7C680.6,234.7,680,237,676.4,238.6L676.4,238.6z
		 M667.8,220.5v-1.6h-2.7v-1.3h2.7V216h1.6v1.6h3.3V216h1.6v1.6h2.6v1.3h-2.6v1.6h-1.6v-1.6h-3.3v1.6H667.8z M667,224.4h2.1v-2.1
		H667V224.4z M668.1,230.4h2.6V229h-2.6V230.4z M668.1,233.1h2.6v-1.5h-2.6V233.1z M668.1,235.8h2.6v-1.5h-2.6V235.8z M672.8,224.4
		h2.2v-2.1h-2.2V224.4z M679.4,221h5.5v-2.5h-5.5V221z M679.4,225h5.5v-2.5h-5.5V225z M679.4,229h5.5v-2.5h-5.5V229z"/>
	<path class="st0" d="M691.2,238.3c-0.3-0.5-0.7-0.9-1.2-1.3c2.5-1.9,3.9-5.1,4.2-9.6h-4v-1.7h4.1v-4.1h-3.6V220h3.6v-3.9h1.7v3.9
		h3.5v1.6H696v4.1h4v1.7h-4c0,0.3-0.1,0.8-0.1,1.4c1.1,1.1,2.5,2.6,4.3,4.7l-1.3,1.4c-0.6-1-1.7-2.4-3.3-4.2
		C694.8,234,693.4,236.6,691.2,238.3L691.2,238.3z M698.6,238.6c-0.2-0.5-0.6-1-1-1.4c3.4-1.1,4.8-3,5.3-6.6h-2v-13.8h10.6v13.8h-3
		c0.1,0.3-0.1,5.8,0.1,5.8c2.8,0.5,2.8,0,2.8-3.2c0.3,0.3,0.8,0.5,1.5,0.7c-0.3,2.4,0.1,4-2.1,4.2c-0.9-0.1-3.2,0.2-3.7-0.5
		c-0.8-0.8-0.3-5.9-0.4-7.1h-2.2C704.1,234.8,702.6,237.2,698.6,238.6L698.6,238.6z M702.6,221h7.1v-2.4h-7.1V221z M702.6,224.9h7.1
		v-2.4h-7.1V224.9z M702.6,228.9h7.1v-2.5h-7.1V228.9z"/>
	<path class="st0" d="M715.4,238l-0.2-1.5c4.3-0.2,9-0.4,14.3-0.6l-0.1,1.4C724.8,237.5,716.9,238,715.4,238L715.4,238z
		 M715.4,228.4v-1.3h6V226h-4.9v-1.2h4.9v-1.1h-4.7v-1.2h4.7v-1.3h-6.2v-1.3h6.2v-1.2h-4.6v-1.2h4.6v-1.6h1.7v1.6h4.9v2.4h1.5v1.3
		H728v2.5h-4.9v1.1h5.2v1.2h-5.2v1.1h6.3v1.3H715.4L715.4,228.4z M716.9,234.9v-5.5H728v5.5H716.9z M718.4,231.7h3.2v-1.2h-3.2
		V231.7z M718.4,233.9h3.2v-1.2h-3.2V233.9z M723.1,219.9h3.3v-1.2h-3.3V219.9z M723.1,222.5h3.3v-1.3h-3.3V222.5z M723.2,231.7h3.2
		v-1.2h-3.2V231.7z M723.2,233.9h3.2v-1.2h-3.2V233.9z M730.5,232.5v-13.7h1.7v13.7H730.5z M732.1,238.6c-0.1-0.5-0.2-1.1-0.6-1.8
		c1.9-0.2,3.2,0.6,3.7-0.5v-19.9h1.7v19.9C736.8,239,735.1,238.4,732.1,238.6L732.1,238.6z"/>
	<path class="st0" d="M746.6,223.2c-2.5,0.1-2.5-3.8,0-3.7C749.1,219.3,749.1,223.2,746.6,223.2z M746.6,235.4
		c-2.5,0.1-2.5-3.8,0-3.8C749.1,231.5,749.1,235.4,746.6,235.4z"/>
	<path class="st0" d="M758.7,238.6v-14.4h-3.1v-1.7h3.1V216h1.8v6.5h2.9v1.7h-2.9v14.4H758.7z M770.2,238.6c-0.1-0.5-0.3-1-0.5-1.5
		c1.6-0.1,2.8,0.5,3.2-0.4v-4h-10.6v-1.6h10.6v-1.9h1.8v1.9h3.8v1.6h-3.8C774.5,236.6,776,239.1,770.2,238.6L770.2,238.6z
		 M764.3,229.9v-8.4h5.4V220H763v-1.4h6.7v-2.7h1.7v2.7h4.3c-1-0.6-1.9-1.2-2.9-1.6l0.9-1c1.4,0.5,2.5,1.2,3.5,1.8l-0.6,0.8h1.8v1.4
		h-7v1.4h5.7v8.4h-1.7v-1.7h-4.1v1.6h-1.7v-1.6h-3.7v1.7h-1.6V229.9z M768.1,237.1c-0.7-1.1-1.7-2.2-3.2-3.3l1.3-0.9
		c1.5,1.1,2.6,2.2,3.3,3.2L768.1,237.1z M765.9,224.3h3.7v-1.5h-3.7V224.3z M765.9,226.9h3.7v-1.4h-3.7V226.9z M771.3,224.3h4.1
		v-1.5h-4.1V224.3z M771.3,226.9h4.1v-1.4h-4.1V226.9z"/>
	<path class="st0" d="M781.5,238l-1.5-1c1.5-0.9,2.6-2.3,3.4-4.1l1.5,0.6C784.1,235.6,782.9,237.2,781.5,238L781.5,238z M792.7,235
		c-0.8-0.9-2.6-2-3.9-2.6l0.8-0.7h-7.1v-1.3H798v-1.5h-17.5v-1.2H798v-1.5h-15.4V225h17.2v2.8h2.6v1.2h-2.6v2.8h-9.1
		c1.5,0.8,2.6,1.5,3.2,2.2L792.7,235L792.7,235z M785,224.6v-1.2c-0.8,0.1-3.4,0.2-4.2,0.3l-0.1-1.3c0.5,0,3.1-0.2,4.3-0.3v-1.3
		h-3.4v-1.2h3.4v-1.2h-4v-1.2h4v-1.3h1.7v1.3h3.8v1.2h-3.8v1.2h3.5v1.2h-3.5v1.2l4-0.3v1.2l-3.9,0.3v1.3L785,224.6L785,224.6z
		 M789.7,238.3c-4,0.6-3.2-3-3.2-5.5h1.8c0.3,1.3-0.9,4.5,1.5,3.9h4.6c1.4-0.1,1.1-0.7,1.3-2.2c0.3,0.2,0.9,0.4,1.6,0.6
		C797.7,239.7,792.4,238,789.7,238.3L789.7,238.3z M795.7,224.6v-1.3h-4.4v-1.2h4.4v-1.3h-3.5v-1.2h3.5v-1.2h-4.1v-1.2h4.1v-1.3h1.7
		v1.3h4.3v1.2h-4.3v1.2h4v1.2h-4v1.3h4.8v1.2h-4.8v1.3H795.7z M801.3,237.9c-0.8-1.5-2.8-3.3-4.3-4.4l1.4-0.9c1.5,1,3.5,2.8,4.4,4.3
		L801.3,237.9z"/>
	<path class="st0" d="M806.7,238.2c-0.6-0.6-1-1.1-1.3-1.3c2.7-1,4.7-2,6.1-3.1l1.7,0.7C811.5,235.8,809.4,237.1,806.7,238.2z
		 M805.7,226.7v-1.5h10v-1.5h-7.1v-6.9h16.1v6.9h-7.2v1.5h10v1.5H805.7z M813,238.6c-0.1-0.4-0.3-0.9-0.5-1.5
		c4.4,0.4,3.1-0.2,3.3-3.9h-6.6V228h15.1v5.2h-6.7C817.5,237.3,818.5,239,813,238.6L813,238.6z M810.3,219.6h12.5V218h-12.5V219.6z
		 M810.3,222.4h12.5v-1.6h-12.5V222.4z M810.9,231.9h11.5v-2.5h-11.5V231.9z M826.2,238.1c-1.6-1.1-4.5-2.6-6.5-3.3l1.2-1
		c2,0.8,5,2.1,6.5,3.2L826.2,238.1L826.2,238.1z"/>
	<path class="st0" d="M841.4,238.6c-0.4-0.6-0.7-1.1-1-1.3l0.2-0.1h-7.4v1.2h-1.5v-7.5c-0.3,0.5-0.7,1-1.2,1.5
		c-0.3-0.5-0.7-0.9-1-1.2c1.4-1.4,2.5-3.3,3.2-5.6h-2V221h4.8v4.6h-2.2l0.9,0.3c-0.3,0.8-0.5,1.4-0.7,1.8h2.7c0.4-1,0.6-1.6,0.7-2
		h-0.3v-4.6h4.9v4.6H837l1.3,0.3c-0.4,0.8-0.6,1.3-0.8,1.7h4v1.3h-4.3v1.4h3.8v1.2h-3.8v1.5h3.8v1.2h-3.8v1.5h4.4v0.8
		c2.1-1.4,2.4-3.2,2.6-6h-1.6v-13.8h8.8v13.8H849c0,0.2-0.1,5.9,0.1,5.9c2.3,0.6,2.1-0.7,2.1-3.1c0.2,0.2,0.8,0.4,1.4,0.6
		c-0.3,2.3,0.2,3.9-1.8,4.1c-0.8,0-2.7,0.2-3-0.4c-0.7-0.8-0.2-6-0.3-7.1h-1.7C845.5,234.7,844.9,237,841.4,238.6L841.4,238.6z
		 M832.7,220.5v-1.6H830v-1.3h2.7V216h1.6v1.6h3.3V216h1.6v1.6h2.6v1.3h-2.6v1.6h-1.6v-1.6h-3.3v1.6H832.7z M831.9,224.4h2.1v-2.1
		h-2.1V224.4z M833.1,230.4h2.6V229h-2.6V230.4z M833.1,233.1h2.6v-1.5h-2.6V233.1z M833.1,235.8h2.6v-1.5h-2.6V235.8z M837.8,224.4
		h2.2v-2.1h-2.2V224.4z M844.3,221h5.5v-2.5h-5.5V221z M844.3,225h5.5v-2.5h-5.5V225z M844.3,229h5.5v-2.5h-5.5V229z"/>
	<path class="st0" d="M641.5,286.7c-0.3-0.4-1-1.1-1.4-1.3c1.4-0.9,2.5-2.2,3.4-3.8c-0.9-1.2-1.7-2.9-2.3-4.9l1.4-0.5
		c0.4,1.5,1,2.7,1.7,3.7c0.6-1.6,1.1-3.5,1.4-5.7h-2.9l-0.5,1l-1.7-0.5c1.2-2.2,2.4-4.7,3.7-7.5h-4v-1.6h4.9l0.3-0.1l1.3,0.4
		c-0.5,1.2-1.6,3.7-3.2,6.8c1,0,3.1-0.2,4,0.2c-0.4,3.4-1,6.3-2,8.6c3.1,3.8,14.5,2.7,17.6,2.8c-0.4,0.5-0.6,1.2-0.8,1.8
		c-5.6-0.2-13.5,1-17.6-3C643.9,284.6,642.8,285.8,641.5,286.7L641.5,286.7z M653.9,283.4v-2.6h-6.5v-1.5h6.5v-2h-5.4v-1.4h5.4V274
		h-5.3v-1.5h5.3v-1.8h-6.8v-1.5h6.8v-1.8h-5.1v-1.5h5.1v-1.8h1.8v1.8h5.5v3.3h1.9v1.5h-1.9v3.3h-5.5v1.8h5.7v1.4h-5.7v2h6.8v1.5
		h-6.8v2.6L653.9,283.4L653.9,283.4z M655.7,269.2h3.7v-1.8h-3.7V269.2z M655.7,272.5h3.7v-1.8h-3.7V272.5z"/>
	<path class="st0" d="M666.4,286.5l-0.9-1.8c1.3-1,2.5-1.9,3.6-2.8v-4.6h-3.2v-1.7h5.1v6.2c3.1,4.5,12.8,2.5,17.6,2.6
		c-0.3,0.5-0.5,1.1-0.6,1.8c-6.2-0.3-13.3,1.9-17.8-2.9C669.2,284.1,668,285.2,666.4,286.5L666.4,286.5z M670.2,273.4
		c-0.9-1-2.9-2.3-4.3-3l1.2-1.2c1.4,0.7,3.4,1.9,4.3,2.9L670.2,273.4L670.2,273.4z M670.9,268.5c-0.9-1.1-2.7-2.4-4-3.1l1.2-1.1
		c1.9,1.1,3.3,2.1,4.1,3L670.9,268.5L670.9,268.5z M672.2,273.5v-1.6h7v-3.2h-3.8c-0.5,0.8-1.1,1.7-1.9,2.6c-0.5-0.4-1-0.7-1.6-0.9
		c1.6-1.5,2.8-3.5,3.6-6.1l1.7,0.4c-0.3,0.7-0.6,1.5-1,2.4h2.9V264h1.8v3.1h5.9v1.6h-5.9v3.2h7v1.6L672.2,273.5L672.2,273.5z
		 M674.5,283v-7.6h11.8v7.6h-1.8v-0.8h-8.2v0.9h-1.8V283z M676.2,280.5h8.2v-3.6h-8.2V280.5z"/>
	<path class="st0" d="M693.2,286.7c0-0.6-0.2-1.1-0.5-1.6c4.1,0.6,3.7-0.5,4.3-6.1h-3.4c-0.1,0.5-0.3,1-0.4,1.6l-1.6-0.3
		c0.5-1.6,0.9-3.3,1.2-5h-2.1v-1.6h9.3v1.6h-5.5c-0.1,0.6-0.3,1.3-0.5,2.2h4.8C698.2,282.2,699.3,287.9,693.2,286.7L693.2,286.7z
		 M691.9,271.8v-6.9h7.1v6.9H691.9z M693.5,270.2h3.7v-3.8h-3.7V270.2z M699.7,286.8c-0.4-0.4-0.8-0.8-1.4-1c3-4.3,2.3-11.6,2.4-17
		h4.9v-4.9h1.8v1.7h5v1.5h-5v1.7c1.1,0.1,5.3-0.2,6.2,0.2c-0.4,1.9-0.7,3.4-1,4.4l-1.4-0.3c0.2-1,0.4-1.9,0.5-2.7h-9.3
		C702.6,275.6,702.3,283.7,699.7,286.8L699.7,286.8z M702,286.8c-0.3-0.6-0.6-1-1.1-1.3c2.9-1.6,3.2-3.8,3.4-7.4h1.6
		C705.7,282.1,705.4,284.8,702,286.8L702,286.8z M707.9,276.9c-2.2,0.2-2.3-1.1-2.2-2.9l-2.5,0.3L703,273l2.7-0.3v-2.1h1.7v2l3-0.3
		l0.2,1.3l-3.1,0.3c0.1,0.6-0.4,1.9,0.8,1.7c1.3-0.1,3.4,0.7,3-1.6c0.3,0.2,0.7,0.3,1.4,0.5C712.8,277.6,709.9,276.9,707.9,276.9
		L707.9,276.9z M710,286.3c-3.4,0.5-1.6-6.5-2-8.3h1.6c0.1,0.2-0.2,6.6,0.2,6.5c2.5,0.6,2.7-0.3,2.6-3c0.3,0.3,0.8,0.5,1.4,0.8
		C713.9,285.5,712.9,286.7,710,286.3L710,286.3z"/>
	<path class="st0" d="M717.3,285.6v-8.2c-0.4,0.8-0.8,1.5-1.2,2.1c-0.3-0.6-0.6-1.1-1.1-1.6c1.6-2.3,2.8-6,3.5-11h-2.9v-1.7h9.1v1.7
		h-4.4c-0.3,2.3-0.8,4.3-1.2,6h4.7v10.7H719v2H717.3L717.3,285.6z M718.9,281.9h3.2v-7.4h-3.2V281.9z M724.9,285.6l-1.3-0.8
		c0.9-1,1.5-2.8,1.8-5.4l1.4,0.3C726.4,282.6,725.8,284.5,724.9,285.6L724.9,285.6z M732.3,286.7c0-0.6-0.2-1.1-0.4-1.6
		c4.6,0.7,3.5-0.8,4.1-6.9h-10.3V265h11.5v1.6h-4.7v2.3h4.2v1.5h-4.2v2.3h4.2v1.5h-4.2v2.4h5.2C737.1,281.8,738.7,287.9,732.3,286.7
		L732.3,286.7z M727.4,268.9h3.4v-2.3h-3.4V268.9z M727.4,272.7h3.4v-2.3h-3.4V272.7z M727.4,276.6h3.4v-2.4h-3.4V276.6z
		 M728.1,284.8c0.1-1.4-0.1-3-0.4-4.6l1.3-0.2c0.3,1.7,0.5,3.2,0.5,4.6L728.1,284.8z M731.5,283.8c-0.2-1.2-0.5-2.5-1.1-3.8l1.2-0.3
		c0.6,1.3,1,2.5,1.2,3.8L731.5,283.8L731.5,283.8z M734.5,282.4c-0.3-0.8-0.9-1.8-1.7-3l1-0.4c0.7,0.9,1.3,1.9,1.7,2.9L734.5,282.4
		L734.5,282.4z"/>
	<path class="st0" d="M746.8,271.2c-2.5,0.1-2.5-3.8,0-3.7C749.3,267.4,749.3,271.3,746.8,271.2z M746.8,283.4
		c-2.5,0.1-2.5-3.8,0-3.8S749.3,283.5,746.8,283.4z"/>
	<path class="st0" d="M761.1,284.8v-15.7l-3.7,2.5l-1-1.5l5.3-3.5h1.7v18.2H761.1L761.1,284.8z"/>
	<path class="st0" d="M772.9,284.8v-15.7l-3.7,2.5l-1-1.5l5.3-3.5h1.7v18.2H772.9L772.9,284.8z"/>
	<path class="st0" d="M779.5,284.8v-1.3c4.2-4,7.9-6.9,8.4-11.8c0.2-4.2-4.9-4.7-7.1-1.5l-1.3-1.3c10.8-8.7,15.3,5.3,3.5,14.1
		c2.4-0.3,5.8-0.2,8-0.2v2L779.5,284.8L779.5,284.8z"/>
	<path class="st0" d="M793.7,285.9v-1.5h10.1v-2.1h-8.2v-1.5h8.2V279h-7.4v-7.7h7.4v-1.5h-9.9v-1.5h9.9v-1.8
		c-2.4,0.2-4.9,0.3-7.7,0.3c0-0.4-0.2-0.9-0.4-1.5c7.4-0.2,12.9-0.6,16.6-1.3l1,1.4c-1.8,0.3-4.4,0.6-7.7,0.9v1.9h10.1v1.5h-10.1
		v1.5h7.8v7.7h-7.8v1.7h8.7v1.5h-8.7v2.1h10.3v1.5L793.7,285.9L793.7,285.9z M798.1,274.6h5.6v-1.9h-5.6V274.6z M798.1,277.7h5.6
		v-1.9h-5.6V277.7z M805.5,274.6h5.9v-1.9h-5.9V274.6z M805.5,277.7h5.9v-1.9h-5.9V277.7z"/>
	<path class="st0" d="M819.7,286.7c-0.3-0.4-1-1.1-1.4-1.3c1.4-0.9,2.5-2.2,3.4-3.8c-0.9-1.2-1.7-2.9-2.3-4.9l1.4-0.5
		c0.4,1.5,1,2.7,1.7,3.7c0.6-1.6,1.1-3.5,1.4-5.7H821l-0.5,1l-1.7-0.5c1.2-2.2,2.4-4.7,3.7-7.5h-4v-1.6h4.9l0.3-0.1l1.3,0.4
		c-0.5,1.2-1.6,3.7-3.2,6.8c1,0,3.1-0.2,4,0.2c-0.4,3.4-1,6.3-2,8.6c3.1,3.8,14.5,2.7,17.6,2.8c-0.4,0.5-0.6,1.2-0.8,1.8
		c-5.6-0.2-13.5,1-17.6-3C822.1,284.6,821,285.8,819.7,286.7L819.7,286.7z M832.1,283.4v-2.6h-6.5v-1.5h6.5v-2h-5.4v-1.4h5.4V274
		h-5.3v-1.5h5.3v-1.8h-6.8v-1.5h6.8v-1.8H827v-1.5h5.1v-1.8h1.8v1.8h5.5v3.3h1.9v1.5h-1.9v3.3h-5.5v1.8h5.7v1.4h-5.7v2h6.8v1.5h-6.8
		v2.6L832.1,283.4L832.1,283.4z M833.9,269.2h3.7v-1.8h-3.7V269.2z M833.9,272.5h3.7v-1.8h-3.7V272.5z"/>
	<path class="st0" d="M850.2,286.6c-0.2-0.6-0.5-1.2-0.8-1.8c2.2-0.2,3.7,0.6,4.3-0.4v-5.3H844v-1.8h9.7v-1.8h0.9
		c1.3-0.7,2.4-1.6,3.5-2.6H848v-1.7h11.8l0.4-0.1l1.2,0.9c-1.6,1.8-3.5,3.3-5.8,4.6v0.8h9.7v1.8h-9.7
		C855.3,283.8,857.3,287.3,850.2,286.6L850.2,286.6z M844.2,272.5v-5.8h9.4V264h1.9v2.7h9.4v5.8H863v-4.1h-17v4.1H844.2z"/>
	<path class="st0" d="M869.3,270.7c-0.6-0.4-1.1-0.8-1.5-1c1.6-1.5,2.9-3.4,3.7-5.8l1.7,0.4c-0.2,0.5-0.5,1.1-0.8,1.8h6.5v1.5h-4.6
		c0.4,0.9,0.8,1.6,0.9,2.3l-1.6,0.6c-0.2-0.8-0.5-1.7-1.1-2.9h-1C870.9,268.8,870.1,269.8,869.3,270.7L869.3,270.7z M878.4,286.7
		v-5.9c-2.3,2.3-6,4.4-9.2,5.5c-0.3-0.6-0.7-1.1-1.2-1.5c2.9-0.8,6.5-2.6,8.7-4.6h-4.9c-0.1,0.2-0.2,0.6-0.3,0.8l-1.8-0.3
		c0.6-1.9,1.1-3.9,1.5-6h7v-2.5h-8.3v-1.6H888v5.6h-8v2.3h9.5c-0.3,4.9-0.5,7.9-6.1,6.9c0-0.7-0.2-1.2-0.5-1.7
		c2.9,0.2,4.5,0.8,4.6-3.6H880v6.4L878.4,286.7L878.4,286.7z M872.3,278.7h6.1v-2.3h-5.6C872.8,276.8,872.4,278.2,872.3,278.7z
		 M878.7,270.6c-0.5-0.4-1-0.8-1.5-1.1c1.8-1.4,3.3-3.5,4-5.6l1.8,0.4c-0.3,0.6-0.5,1.3-0.8,1.8h8.4v1.5H885
		c0.7,0.9,1.2,1.7,1.4,2.3l-1.6,0.6c-0.3-0.8-0.9-1.8-1.8-3h-1.8C880.5,268.7,879.7,269.7,878.7,270.6L878.7,270.6z M880.2,274.8
		h6.2v-2.5h-6.2V274.8z"/>
	<path class="st0" d="M898.4,285.1c-7.9-0.2-7.9-18.8,0-18.9C906.2,266.4,906.2,284.9,898.4,285.1z M898.4,283.3
		c4.9-0.4,4.9-14.9,0-15.3C893.4,268.4,893.5,282.9,898.4,283.3z"/>
	<path class="st0" d="M912.6,285.1c-7.9-0.2-7.9-18.8,0-18.9C920.5,266.4,920.4,284.9,912.6,285.1z M912.6,283.3
		c4.9-0.4,4.9-14.9,0-15.3C907.7,268.4,907.7,282.9,912.6,283.3z"/>
	<path class="st0" d="M925.7,284.8v-15.7l-3.7,2.5l-1-1.5l5.3-3.5h1.7v18.2H925.7L925.7,284.8z"/>
	<path class="st0" d="M937.9,285.1c-2.3,0-4.2-0.8-5.8-2.4l1.1-1.5c9.2,8.4,12.2-10.9,1.5-5.4l-1.2-0.8l0.6-8.5h8.9v1.9h-6.9
		l-0.4,5.3C944.6,269.1,947.2,285.2,937.9,285.1L937.9,285.1z"/>
	<path class="st0" d="M951.6,285.1c-2.3,0-4.2-0.8-5.8-2.4l1.1-1.5c9.2,8.4,12.2-10.9,1.5-5.4l-1.2-0.8l0.6-8.5h8.9v1.9h-6.9
		l-0.4,5.3C958.3,269.1,960.9,285.2,951.6,285.1L951.6,285.1z"/>
	<path class="st0" d="M962.4,286.7c0-0.6-0.2-1.1-0.5-1.6c4.1,0.6,3.7-0.5,4.3-6.1h-3.4c-0.1,0.5-0.3,1-0.4,1.6l-1.6-0.3
		c0.5-1.6,0.9-3.3,1.2-5h-2.1v-1.6h9.3v1.6h-5.5c-0.1,0.6-0.3,1.3-0.5,2.2h4.8C967.3,282.2,968.4,287.9,962.4,286.7L962.4,286.7z
		 M961,271.8v-6.9h7.1v6.9H961z M962.6,270.2h3.7v-3.8h-3.7V270.2z M968.8,286.8c-0.4-0.4-0.8-0.8-1.4-1c3-4.3,2.3-11.6,2.4-17h4.9
		v-4.9h1.8v1.7h5v1.5h-5v1.7c1.1,0.1,5.3-0.2,6.2,0.2c-0.4,1.9-0.7,3.4-1,4.4l-1.4-0.3c0.2-1,0.4-1.9,0.5-2.7h-9.3
		C971.7,275.6,971.4,283.7,968.8,286.8L968.8,286.8z M971.1,286.8c-0.3-0.6-0.6-1-1.1-1.3c2.9-1.6,3.2-3.8,3.4-7.4h1.6
		C974.8,282.1,974.5,284.8,971.1,286.8L971.1,286.8z M977,276.9c-2.2,0.2-2.3-1.1-2.2-2.9l-2.5,0.3L972,273l2.7-0.3v-2.1h1.7v2
		l3-0.3l0.2,1.3l-3.1,0.3c0.1,0.6-0.4,1.9,0.8,1.7c1.3-0.1,3.4,0.7,3-1.6c0.3,0.2,0.7,0.3,1.4,0.5C981.9,277.6,979,276.9,977,276.9
		L977,276.9z M979.1,286.3c-3.4,0.5-1.6-6.5-2-8.3h1.6c0.1,0.2-0.2,6.6,0.2,6.5c2.5,0.6,2.7-0.3,2.6-3c0.3,0.3,0.8,0.5,1.4,0.8
		C983.1,285.5,982.1,286.7,979.1,286.3L979.1,286.3z"/>
	<path class="st0" d="M641.3,323.4c-0.3-0.5-0.7-1-1.2-1.4c3.8-2.1,8.3-6.2,10.4-10h1.9c2.4,3.7,6.9,7.7,10.9,9.7
		c-0.4,0.5-0.9,1-1.2,1.6c-3.7-2.1-8.2-6-10.5-9.4C649.4,317.3,645.1,321.2,641.3,323.4L641.3,323.4z M641.2,334.1v-1.7h3.1v-9.2
		h1.8v9.2h4.7v-13.6h1.9v5.8h7.1v1.7h-7.1v6.2h9.5v1.7h-21V334.1z"/>
	<path class="st0" d="M665.3,334.2l-0.2-1.5c4.3-0.2,9-0.4,14.3-0.6l-0.1,1.4C674.7,333.7,666.8,334.1,665.3,334.2L665.3,334.2z
		 M665.3,324.5v-1.3h6v-1.1h-4.9v-1.2h4.9v-1.1h-4.7v-1.2h4.7v-1.3h-6.2V316h6.2v-1.2h-4.6v-1.2h4.6V312h1.7v1.6h4.9v2.4h1.5v1.3
		h-1.5v2.5H673v1.1h5.2v1.2H673v1.1h6.3v1.3L665.3,324.5L665.3,324.5z M666.8,331.1v-5.5h11.1v5.5H666.8z M668.3,327.8h3.2v-1.2
		h-3.2V327.8z M668.3,330.1h3.2v-1.2h-3.2V330.1z M673,316h3.3v-1.2H673V316z M673,318.6h3.3v-1.3H673V318.6z M673.1,327.8h3.2v-1.2
		h-3.2V327.8z M673.1,330.1h3.2v-1.2h-3.2V330.1z M680.3,328.7V315h1.7v13.7H680.3z M681.9,334.8c-0.1-0.5-0.2-1.1-0.6-1.8
		c1.9-0.2,3.2,0.6,3.7-0.5v-19.9h1.7v19.9C686.7,335.2,685,334.6,681.9,334.8L681.9,334.8z"/>
	<path class="st0" d="M690.5,334l-0.4-1.7c1.5-0.3,3.3-0.6,4.2-0.8V324h-4v-1.6h4v-2.6h-2.7v-0.9c-0.2,0.2-0.4,0.4-0.8,0.8
		c-0.3-0.5-0.7-0.9-1.2-1.2c1.9-1.6,3.6-4,4.5-6.4h1.6c2,1.8,3.5,3.3,4.4,4.6l-1.2,1.5c-1.1-1.6-2.3-3.1-3.8-4.4
		c-0.9,1.6-1.9,3.1-3,4.4h6.5v1.6h-2.8v2.6h3.6v1.6h-3.6v7.3l4-0.8l0.1,1.6C696.9,332.7,693.7,333.4,690.5,334L690.5,334z
		 M691.9,330.3c-0.1-1.4-0.4-2.9-1-4.6l1.3-0.3c0.6,1.6,0.9,3.1,1.1,4.6L691.9,330.3L691.9,330.3z M697.9,330.1l-1.2-0.4
		c0.5-1.6,0.9-3.1,1.2-4.6l1.5,0.4C698.9,327,698.1,329.6,697.9,330.1L697.9,330.1z M700.9,319.6c-0.3-0.3-0.8-0.6-1.5-1
		c1.3-1.3,2.2-3.1,2.8-5.3l1.7,0.4C703.2,316.1,702.2,318.1,700.9,319.6L700.9,319.6z M707.2,334.8c-0.1-0.5-0.3-1.1-0.6-1.8
		c3.9,0.4,3-0.2,3.1-3.2h-6.9v5H701v-14.9h4.2V312h1.8v7.8h4.5v12.8C711.3,335.2,709.9,334.6,707.2,334.8L707.2,334.8z M702.8,324
		h6.9v-2.6h-6.9V324z M702.8,328.2h6.9v-2.7h-6.9V328.2z M711.3,319.5c-0.6-1.6-2.1-4-3.3-5.4l1.5-0.7c1.2,1.4,2.7,3.7,3.4,5.3
		L711.3,319.5L711.3,319.5z"/>
	<path class="st0" d="M718.6,325.6v-7.1c-0.8,1-1.5,1.8-2.2,2.4c-0.4-0.6-0.9-1.1-1.3-1.4c2.2-1.9,4.2-4.8,5.4-7.5l1.8,0.6
		c-0.3,0.8-0.7,1.5-1.1,2.2h5.2c0.5-1.1,0.9-2,1.1-2.8l1.9,0.5c-0.4,0.9-0.8,1.6-1.1,2.3h7.9v1.4h-8.1v1.7h6.9v1.3h-6.9v1.7h7v1.3
		h-7v1.9h9.2v1.5H718.6L718.6,325.6z M718.6,334.8v-7.6H735v7.6h-1.9v-1h-12.6v1H718.6L718.6,334.8z M720.3,317.9h5.7v-1.7h-5.7
		V317.9z M720.3,320.9h5.7v-1.7h-5.7V320.9z M720.3,324.1h5.7v-1.9h-5.7V324.1z M720.5,332.3h12.6v-3.6h-12.6V332.3z"/>
	<path class="st0" d="M745.9,319.3c-2.5,0.1-2.5-3.8,0-3.7C748.3,315.5,748.3,319.4,745.9,319.3z M745.9,331.5
		c-2.5,0.1-2.5-3.8,0-3.8C748.3,327.7,748.3,331.6,745.9,331.5z"/>
	<path class="st0" d="M755.9,319.9c-0.3-0.5-0.7-0.9-1.2-1.2c2.6-1.5,5-3.9,6.5-6.4h1.7c2.3,1.8,4.1,3.3,5.5,4.7l-1.2,1.4
		c-1.4-1.6-3-3.1-4.8-4.5c-0.9,1.1-1.7,2.1-2.6,2.9h5.8v1.3h-6v-1C758.4,318.1,757.2,319.1,755.9,319.9L755.9,319.9z M758.6,334.7
		v-6.5c-0.5,2.5-1.4,4.4-2.6,6c-0.2-0.3-0.9-1-1.2-1.1c3-3.4,2.6-9.1,2.6-13.6h9.8v6.9h-8.3c-0.1,0.5-0.1,1-0.2,1.5h8.9v6.6H766
		v-0.8h-5.7v1H758.6L758.6,334.7z M759,325h6.5v-1.4H759C759,324.1,759,324.6,759,325z M759,322.3h6.5v-1.4H759V322.3z M760.2,332.3
		h5.7v-2.9h-5.7V332.3z M769.3,328.7V315h1.7v13.7H769.3z M771.2,334.8c-0.1-0.6-0.3-1.2-0.6-1.8c1.7-0.2,3.7,0.7,4.3-0.6v-19.8h1.8
		v19.8C776.5,335.3,774.5,334.6,771.2,334.8L771.2,334.8z"/>
	<path class="st0" d="M781,334.2l-1.4-1c1.6-0.9,2.8-2.4,3.5-4.3l1.6,0.6C783.8,331.7,782.5,333.3,781,334.2z M780.4,319.4v-1.5h5.9
		c-0.2-0.8-0.6-1.6-1-2.5l0.8-0.2h-4.6v-1.5h8.5V312h1.8v1.7h8.5v1.5h-4.4l0.9,0.2c-0.5,1-1,1.8-1.4,2.5h6.2v1.5L780.4,319.4
		L780.4,319.4z M792.3,331.2c-0.9-0.9-2.8-2-4.1-2.6l0.9-0.9h-6v-7.1h15.7v7.1h-9.3c1.7,0.7,3,1.5,3.9,2.3L792.3,331.2L792.3,331.2z
		 M784.9,323.5h12.2V322h-12.2V323.5z M784.9,326.3h12.2v-1.5h-12.2V326.3z M789.1,334.5c-3.9,0.6-3.1-2.9-3.2-5.4h1.8
		c0.3,1.2-0.9,4.4,1.5,3.9h4.4c1.5-0.1,1.1-0.8,1.3-2.5c0.3,0.2,0.8,0.4,1.6,0.6C797,335.9,791.9,334.3,789.1,334.5L789.1,334.5z
		 M787.3,317.9h6.9l-0.6-0.2c0.4-0.8,0.9-1.6,1.2-2.5H787c0.5,0.9,0.9,1.7,1.1,2.5L787.3,317.9L787.3,317.9z M800.8,334
		c-0.9-1.5-2.9-3.4-4.4-4.5l1.4-0.9c1.5,1.1,3.5,3,4.4,4.4L800.8,334L800.8,334z"/>
	<path class="st0" d="M811.6,334.8c-0.1-0.8-0.3-1.3-0.5-1.8c3.6,1,6-1.3,4.9-5c-2.7,2.2-6.9,4.5-10.3,5.6c-0.3-0.7-0.7-1.2-1-1.5
		c3.4-0.9,8.2-3.3,10.7-5.6c-0.2-0.5-0.5-1-0.9-1.6c-2,1.5-5.5,3.3-7.9,4.2c-0.3-0.6-0.6-1.1-1-1.4c2.5-0.7,6.2-2.4,8.1-3.8
		c-0.4-0.4-0.8-0.8-1.1-1.1c-1.8,0.9-3.8,1.7-6.1,2.4c-0.3-0.6-0.7-1.1-1-1.4c3.6-0.9,6.5-2,8.6-3.5h-5.3v-1.6h13.9v1.6h-4.4
		c0.4,1.4,0.9,2.8,1.6,4.2c1.8-1.1,3.3-2.2,4.5-3.3l1.4,1.2c-1.4,1.1-3.1,2.3-5.2,3.5c1.7,2.7,3.8,4.6,6.4,5.6
		c-0.4,0.4-0.9,0.9-1.3,1.6c-4.4-2-7.4-6.2-9.1-12.8h-0.1c-0.8,0.6-1.6,1.2-2.5,1.7C819.1,325.4,820.1,336.5,811.6,334.8
		L811.6,334.8z M805.6,319.2v-4.9h9.3v-2.2h1.8v2.2h9.5v4.9h-1.9V316h-16.9v3.2H805.6z"/>
	<path class="st0" d="M832.9,334.8v-11.1c-1.1,1.1-2,1.9-2.8,2.6c-0.4-0.6-0.9-1.1-1.3-1.5c2.6-1.8,5.3-4.8,7-7.5l1.7,0.6
		c-0.7,1.2-1.6,2.4-2.7,3.8v13.1H832.9L832.9,334.8z M830.1,318.9c-0.5-0.8-0.9-1.2-1.1-1.5c1.9-1.3,4.4-3.6,5.7-5.4l1.8,0.7
		C834.9,314.9,832.3,317.4,830.1,318.9z M842.2,334.7c-0.1-0.6-0.3-1.2-0.6-1.8c2.2-0.2,3.9,0.7,4.5-0.5v-10.3h-8.3v-1.8h13.9v1.8
		H848v10.3C847.9,335.5,845,334.4,842.2,334.7L842.2,334.7z M838.9,315.3v-1.7H851v1.7H838.9z"/>
	<path class="st0" d="M854.6,334l-0.4-1.7c1.5-0.3,3.3-0.6,4.2-0.8V324h-4v-1.6h4v-2.6h-2.7v-0.9c-0.2,0.2-0.4,0.4-0.8,0.8
		c-0.3-0.5-0.7-0.9-1.2-1.2c1.9-1.6,3.6-4,4.5-6.4h1.6c2,1.8,3.5,3.3,4.4,4.6l-1.2,1.5c-1.1-1.6-2.3-3.1-3.8-4.4
		c-0.9,1.6-1.9,3.1-3,4.4h6.5v1.6H860v2.6h3.6v1.6H860v7.3l4-0.8l0.1,1.6C861,332.7,857.8,333.4,854.6,334L854.6,334z M856,330.3
		c-0.1-1.4-0.4-2.9-1-4.6l1.3-0.3c0.6,1.6,0.9,3.1,1.1,4.6L856,330.3L856,330.3z M862.1,330.1l-1.2-0.4c0.5-1.6,0.9-3.1,1.2-4.6
		l1.5,0.4C863,327,862.3,329.6,862.1,330.1L862.1,330.1z M865,319.6c-0.3-0.3-0.8-0.6-1.5-1c1.3-1.3,2.2-3.1,2.8-5.3l1.7,0.4
		C867.4,316.1,866.3,318.1,865,319.6L865,319.6z M871.3,334.8c-0.1-0.5-0.3-1.1-0.6-1.8c3.9,0.4,3-0.2,3.1-3.2h-6.9v5h-1.8v-14.9
		h4.2V312h1.8v7.8h4.5v12.8C875.4,335.2,874,334.6,871.3,334.8L871.3,334.8z M866.9,324h6.9v-2.6h-6.9V324z M866.9,328.2h6.9v-2.7
		h-6.9V328.2z M875.4,319.5c-0.6-1.6-2.1-4-3.3-5.4l1.5-0.7c1.2,1.4,2.7,3.7,3.4,5.3L875.4,319.5L875.4,319.5z"/>
</g>
<g>
	<g>
		<g>
			<rect x="66.7" y="18.4" class="st0" width="7.6" height="60.5"/>
			<path class="st0" d="M76.2,5.7c0.1,7.3-11.4,7.3-11.3,0C64.8-1.7,76.3-1.7,76.2,5.7z"/>
			<polygon class="st0" points="120.7,66.9 100,18.5 91.2,18.5 118.1,81.1 144.9,18.5 141.2,18.5 			"/>
			<polygon class="st0" points="166.3,47.2 186.9,47.2 186.9,44.1 166.3,44.1 166.3,21.4 189.2,21.4 189.2,18.3 158.6,18.3 
				158.6,79 190.3,79 190.3,75.9 166.3,75.9 			"/>
			<path class="st0" d="M236.5,43.2c10.8-12.3,1.1-26-18.7-24.9c-6.9,0-11.1,0-12.6,0.1V79h7.6V21.3c10.8-0.8,21.1,2.1,20.5,12.3
				c0.6,9.4-8.4,12.3-17.4,11.1L237.5,79h8.4L226,47.7C230.4,47.1,233.9,45.6,236.5,43.2L236.5,43.2z"/>
			<path class="st0" d="M304.5,18.3c-7.2,0-12.1,0-15.6,0.1V79h7.5V21.3h6.3c25.2-1.1,21.1,30.2-1.2,27.4v3
				C330.7,55.7,340.1,17.9,304.5,18.3L304.5,18.3z"/>
			<path class="st0" d="M331,78l-0.4,0.9h3.6l20.9-49.2l8.9,21h-13.9v3.1h15.2c0.2,0.5,10.5,24.6,10.8,25.1h8.1l-26.9-62.5L331,78z"
				/>
			<path class="st0" d="M428.2,43.2c10.8-12.3,1.1-26-18.7-24.9c-6.9,0-11.1,0-12.6,0.1V79h7.6V21.3c10.8-0.8,21.1,2.1,20.5,12.3
				c0.6,9.4-8.4,12.3-17.5,11.1L429.2,79h8.4l-19.9-31.3C422,47.1,425.5,45.6,428.2,43.2L428.2,43.2z"/>
			<g>
				<path class="st0" d="M470.3,45.2l25.3-26.9h-4.1c-0.5,0.6-27.3,28.9-27.8,29.4L489.8,79h9.2L470.3,45.2L470.3,45.2z"/>
				<rect x="451.5" y="18.4" class="st0" width="7.6" height="60.6"/>
			</g>
		</g>
		<g>
			<path class="st0" d="M27.8,59.5c-12.7-10.3-12.3-10.7-1.7-25.3c8.8-12-4.7-16-18.5-17.1V79h33.8C39.7,73.1,35.3,65.6,27.8,59.5
				L27.8,59.5z"/>
			<path class="st0" d="M27,0H0v12.1c24.5,1.2,49.5,6,33.7,24.5c-10.8,12.6-16.9,11.9-2,18.2C37,57,42.2,59,46.6,64V0H27L27,0z"/>
		</g>
	</g>
	<g>
		<path class="st0" d="M144.2,103.4l1.1,0.1c0,0.1-0.1,0.2-0.3,0.2c-0.1,3.6,0.7,8.3-1.9,11.2c-0.2-0.2-0.5-0.5-0.7-0.6
			C144.9,111.4,144.1,106.9,144.2,103.4L144.2,103.4z M148.5,104l1.1,0.1c0,0.1-0.1,0.2-0.3,0.2v9.4h-0.9L148.5,104L148.5,104z
			 M153.1,103.4l1.2,0.1c0,0.1-0.1,0.1-0.3,0.2v11.1h-0.9V103.4L153.1,103.4z"/>
		<path class="st0" d="M172.1,107.3c-0.1,0-0.3,0-0.4-0.1c-11.4,3.3-7.9,7.7,0.7,5.9l0.1,0.9c-5.2,1.2-14.3-0.8-5.7-5.9
			c-0.4-0.8-0.6-2.3-0.6-5.2l1.4,0.1c0,0.2-0.1,0.3-0.4,0.3c0,2.3,0.1,3.7,0.4,4.4c1.2-0.6,2.6-1.1,4.1-1.6L172.1,107.3L172.1,107.3
			z"/>
		<path class="st0" d="M184.6,110.4v0.5c0.5,0.3,1.7,1.2,2,1.4L186,113c-0.3-0.3-0.9-0.9-1.5-1.3v3.1h-0.8v-3.6
			c-0.6,1.1-1.4,2.2-2.2,2.8c-0.1-0.2-0.3-0.6-0.4-0.8c0.9-0.6,1.7-1.7,2.3-2.8h-2.1v-0.8h2.4V108l1.1,0.1c0,0.1-0.1,0.1-0.2,0.2
			v1.4h2v0.8L184.6,110.4L184.6,110.4z M186.7,108.5V105c-1.1,1.4-3,2.6-4.8,3.3c-0.1-0.2-0.4-0.5-0.6-0.7c1.6-0.5,3.3-1.5,4.4-2.7
			h-3.9v-0.8h4.8v-1.5l1.1,0.1c0,0.1-0.1,0.2-0.3,0.2v1.2h4.9v0.8h-4c1.1,1.1,2.9,2.1,4.6,2.6c-0.2,0.2-0.4,0.5-0.6,0.7
			c-1.8-0.6-3.7-1.8-4.9-3.2v3.4L186.7,108.5L186.7,108.5z M193.1,110.4h-2.3c0.6,1.2,1.6,2.4,2.6,3c-0.2,0.2-0.5,0.5-0.6,0.7
			c-0.9-0.7-1.8-2-2.5-3.3v3.9h-0.8v-3.8c-0.7,1.3-1.8,2.6-2.8,3.3c-0.1-0.2-0.4-0.5-0.6-0.7c1.1-0.6,2.2-1.8,2.8-3.1h-1.8v-0.8h2.3
			V108l1.1,0.1c0,0.1-0.1,0.1-0.3,0.2v1.4h2.9L193.1,110.4L193.1,110.4z"/>
		<path class="st0" d="M204.4,103.7c0,0.1-0.2,0.2-0.4,0.2c-0.6,3.2-0.9,5.8-0.5,8.4c0.2-0.6,0.8-2,1-2.5l0.6,0.6
			c-0.6,1.8-1.3,2.3-1.1,3.7l-0.9,0.2c-1-3.3-0.5-6.9,0.1-10.8L204.4,103.7L204.4,103.7z M212.7,113.2c-3.5,0.5-8.6-0.8-5-4.8
			l0.8,0.4c-3.3,3.4,1.5,3.9,4.1,3.5L212.7,113.2L212.7,113.2z M206.6,105.2c1.7,0,3.9-0.2,5.7-0.5l0.1,0.9
			c-1.6,0.3-4.2,0.4-5.7,0.5C206.7,106.1,206.6,105.2,206.6,105.2z"/>
		<path class="st0" d="M222.2,103.3h10.9v11.5h-0.9v-0.6H223v0.6h-0.9L222.2,103.3L222.2,103.3z M223,113.3h9.2v-9.2H223V113.3
			L223,113.3z M231.5,109.2v0.8h-1.9v2.7h-0.8V110h-2.4c-0.2,1.1-0.7,2.1-1.9,2.9c-0.1-0.2-0.4-0.4-0.6-0.6c1-0.6,1.5-1.4,1.7-2.3
			h-1.8v-0.8h1.9c0.1-0.6,0-1.4,0-1.9H224v-0.7h1.8v-1.8l1,0.1c0,0.1-0.1,0.1-0.2,0.2v1.5h2.3v-1.8l1,0.1c0,0.1-0.1,0.2-0.2,0.2v1.5
			h1.9v0.7h-1.9v1.9L231.5,109.2L231.5,109.2z M226.6,108.2c0,0.3,0,0.7,0,1h2.3v-1.9h-2.3V108.2z"/>
		<path class="st0" d="M242.4,104.7c1.4,0.1,3.1,0.1,4.6,0c0-0.6,0-1.3,0-1.8l1.3,0.1c0,0.2-0.1,0.2-0.4,0.3c0,0.2,0,1.2,0,1.4
			c1.5-0.1,3-0.2,4.3-0.5l0.1,0.9c-1.3,0.3-2.8,0.4-4.4,0.5c0,0.8,0,1.6,0.1,2.4c1.3-0.1,2.6-0.2,3.7-0.5l0.1,0.8
			c-1.1,0.2-2.5,0.4-3.8,0.5l0.1,2.2c1.2,0.4,2.5,1.1,3.8,2l-0.6,0.8c-1.2-0.9-2.3-1.6-3.2-1.9c0.9,3.2-5.2,3.3-5.2,0.7
			c0-1.8,2.6-2.2,4.2-1.8c0-0.6,0-1.2-0.1-1.9c-2.6,0.3-6-0.5-2.9-2.5l0.6,0.4c-2.4,1.4,0.5,1.4,2.2,1.3l-0.1-2.4
			c-1.4,0.1-3.2,0-4.6,0L242.4,104.7L242.4,104.7z M247.2,111.5c-1.1-0.4-3.4-0.3-3.4,1c-0.1,1.4,3.8,1.8,3.5-0.2L247.2,111.5
			L247.2,111.5z"/>
		<path class="st0" d="M261.7,105.7c1,0,2-0.1,2.4-0.2c0-0.8,0-1.2,0.1-2.4l1.3,0.1c0,0.1-0.1,0.2-0.4,0.3c0,0.6-0.1,1.4-0.1,1.9
			l0.4,0.2c-0.3,0.6-0.4,1.4-0.5,1.9c10.8-8.7,2,9.5,8,4.7c0,0.3,0.1,0.8,0.2,1c-8,4.8,1.7-13.8-8.3-4.6c0,1.9,0,4.2,0,6H264
			c0-0.8,0-4.5,0-5.3c-0.5,0.9-1.3,2.1-2.4,3.1l-0.5-0.8c1.3-1.3,3.1-3.1,2.9-5.1c-0.5,0.1-1.4,0.2-2.4,0.2v-1H261.7z"/>
		<path class="st0" d="M289.4,105.5c-1.1,0.4-2.6,0.6-4,0.7c-0.5,3-1.3,5.9-2.4,8.1l-0.9-0.3c1.1-2.1,1.9-4.8,2.4-7.7
			c-0.3,0-2,0-2.4,0v-0.9c0.6,0,1.7,0,2.5,0c0.1-0.8,0.3-1.7,0.3-2.5l1.3,0.1c0,0.1-0.2,0.2-0.4,0.3c-0.1,0.6-0.2,1.3-0.3,2.1
			c1.3-0.1,2.6-0.3,3.6-0.7L289.4,105.5L289.4,105.5z M292.8,114.2c-2.8,0.4-7.7-0.3-4.9-3.9l0.8,0.3c-2.3,2.7,1.5,2.9,4.1,2.7
			C292.8,113.3,292.8,114.2,292.8,114.2z M287.8,107.9c1.3-0.4,3.2-0.7,4.7-0.7v0.9c-1.5,0-3.2,0.2-4.5,0.6L287.8,107.9L287.8,107.9
			z"/>
		<path class="st0" d="M305.1,110.5c0.5,0.3,1.9,1.4,2.2,1.7l-0.5,0.7c-0.3-0.3-1.1-1.1-1.6-1.6v3.5h-0.9v-3.6c-0.6,1-1.4,2-2.2,2.6
			c-0.1-0.2-0.4-0.5-0.6-0.6c0.9-0.6,1.9-1.8,2.6-3h-2.3v-0.8h2.5V108h-2.7v-0.8h1.6c-0.1-0.6-0.3-1.4-0.6-2l0.7-0.2
			c0.3,0.7,0.5,1.5,0.6,2.1l-0.5,0.1h2.2c-0.2-0.1-0.4-0.1-0.4-0.1c0.3-0.6,0.6-1.5,0.7-2.1l1,0.3c0,0.1-0.1,0.1-0.3,0.1
			c-0.2,0.5-0.5,1.3-0.8,1.8h1.9v0.8c-0.1,0-2.7,0-2.8,0v1.3h2.6v0.8h-2.6L305.1,110.5L305.1,110.5z M307.6,104.2v0.8h-5.8v-0.8h2.4
			v-1.5l1.1,0.1c0,0.1-0.1,0.2-0.2,0.2v1.2L307.6,104.2L307.6,104.2z M313.7,107.2v0.8h-1.5v6.8h-0.9V108h-2c0,2.2-0.1,4.8-2.1,6.8
			c-0.1-0.2-0.4-0.5-0.6-0.6c2.8-2.8,1.7-6.9,1.9-10.3l0.6,0.2c1.4-0.4,2.8-0.9,3.6-1.4l0.9,0.7c0,0-0.1,0.1-0.3,0
			c-1,0.5-2.6,1-4,1.4v2.3L313.7,107.2L313.7,107.2z"/>
		<path class="st0" d="M328.4,113.5h5.5v0.9h-11.8v-0.9h5.4V110h-4v-0.8h4v-3h-3.2c-0.5,0.9-1,1.8-1.6,2.4c-0.2-0.2-0.5-0.4-0.7-0.5
			c1.1-1.1,2-3.1,2.5-5.1l1.1,0.3c0,0.1-0.1,0.1-0.3,0.1c-0.2,0.6-0.4,1.3-0.7,1.9h2.8v-2.6l1.2,0.1c0,0.1-0.1,0.2-0.3,0.2v2.3h4.9
			v0.9h-4.9v3h4.4v0.8h-4.4v3.5H328.4z"/>
		<path class="st0" d="M342.6,106.4c0.8,0.3,1.9,0.9,2.4,1.3l-0.5,0.7c-0.5-0.4-1.6-1-2.4-1.4L342.6,106.4L342.6,106.4z M342.5,114
			c0.7-1,1.6-2.8,2.4-4.3l0.7,0.6c-0.6,1.4-1.5,3-2.1,4.1c0.1,0.1,0.1,0.2,0,0.3L342.5,114L342.5,114z M343.3,102.8
			c0.8,0.4,1.9,1,2.4,1.4l-0.5,0.7c-0.5-0.5-1.5-1.1-2.4-1.5L343.3,102.8L343.3,102.8z M354.2,107.4h-3.9v2.3h3v5h-0.9v-0.5h-4.9
			v0.6h-0.9v-5.1h2.8v-2.3h-3.8v-0.8h3.8v-2.3c-1,0.2-2.1,0.3-3.1,0.4c0-0.2-0.2-0.6-0.3-0.7c2.4-0.3,5.1-0.8,6.6-1.3l0.8,0.7
			c-0.9,0.2-1.9,0.5-3.2,0.8v2.4h3.9L354.2,107.4L354.2,107.4z M352.4,113.4v-2.9h-4.9v2.9H352.4z"/>
	</g>
</g>
<line class="st2" x1="588.1" y1="5" x2="588.1" y2="355.5"/>
</svg>
