<?xml version="1.0" encoding="utf-8"?>
<!-- Generator: Adobe Illustrator 26.5.0, SVG Export Plug-In . SVG Version: 6.00 Build 0)  -->
<svg version="1.1" id="圖層_1" xmlns="http://www.w3.org/2000/svg" xmlns:xlink="http://www.w3.org/1999/xlink" x="0px" y="0px"
	 viewBox="0 0 63 71" style="enable-background:new 0 0 63 71;" xml:space="preserve">
<style type="text/css">
	.st0{fill:#FFFFFF;}
</style>
<path class="st0" d="M57.2,29c-1.6,0-3.1-2-2.9-3.6c-0.3-0.2-0.6-0.4-0.9-0.6c-1.4,2.1-2.8,4.3-4.2,6.4c1.5,0.7,3,3.5,2.7,5.3
	c-1.5-2-4.7-2.9-6.1-0.4c5.3-0.8,9.2,1.9,7.2,7.4c-0.1,0.4-0.3,0.3-0.6,0.2c-4.4-2.5-5.5,2.7-7.9-4.4c-1.5,1.7,0.9,3.5,1.9,4.7
	c0,0.1,0,0.2,0,0.2c-1.9,0.6-3.4-0.4-5.1-0.7c-1.8,0.2-1.9-1.5-2.3-2.7c-5,1.1-10.1,1-15,0.9c-0.5,1.2-1.9,2.3-1.6,3.8
	c0.2,0.6-0.1,1.1-0.5,1.6c-0.7,0.6-1.2,2.1-2.2,1.9c-1.2-0.5-1.1-1.4-1.2-2.5c-0.1,0.4-0.1,0.8-0.2,1.2c-2.3-0.7-2-3.2-1.1-4.9
	c-0.1,0-0.1-0.1-0.2-0.1c-0.3,0.6-0.5,1.2-0.9,1.7c-1-1-0.1-2.7-0.2-4c-0.5-0.1-1-0.3-1.6-0.4c-1.2,3.9-2.1,8.4-5.3,11.3
	c-1.2,1-1.4,1.7-0.9,3.2c2.8,4.3,0.9,12.5,6.7,14c7.3,0.9,23.8,4.5,26.4-4.8c0.2-3.9,1.6-7.4,2.7-11c-5.9,3.8-13.7,4.9-20.3,3.7
	c5.2,0,18.3,0.3,19.9-5.2c-1-2.2-2.8-4.6-2.5-7c4.8,11.9,3.7,5.8,1,18.1c-1,11.8-19,7.8-27.2,6.9c-6.3-1.6-4.2-9.9-7.2-14.5
	C6.7,53.1,7,52.1,8.5,51c3.5-2.9,3.9-7.8,5.5-11.7c-1.3-1.4-2.5-1.9-3.5-1.4c2.6,2.2-4,9.4-6.6,8.6c-1.2,0.6-2.7,0.3-3.3,2
	c-1.1-0.9-0.7-1.9-0.2-3c-0.2-1.2,0.9-1.9,1-2.9c1-0.5,1.2-1.4,1.4-2.4c0.9-1.3,7-7.4,5.2-2.2c2.7-3.5,5.7-0.7,8.4,1.2
	c0.8,0.5,1.9-0.7,2.5,0.7c0.3-0.4,0.6-0.8,1-1.3c-0.8-2.7-2-5.1-3.1-7.5c-0.6,0.7-1.2,1.4-1.8,2c-0.1,0-0.1,0-0.2-0.1
	c0-0.9-0.2-1.5-1.2-1.7c1.8,2.6-0.8,2.4-1.6,4.3c0,0.1-0.3,0.2-0.4,0.3c-2.8-1.9-3.6-3.7-0.9-6c-2.1,0.1-2.2,1.7-2.3,3.5
	c-2-1.9-1.7-4.5,0.6-5.8c0.2-2.2,3-2,4.6-2.7c1.1-2.1-1.8-3.8,0.2-5.6c2.8-2.7,3.5,2.7,5.4-0.3c-0.3-0.5-0.5-1-0.8-1.5
	c-2.1,0.4-4.9,0.4-6.4-1.4c1.2-0.8,2.7-0.6,4-1.4c-1.8-1-3.6,0.5-5.4,0.4c-2.4,0-5.3-1.7-5-4.3c1.7,0.1,3.3,0.9,5,0.7
	c-1.6-1-3.5-0.9-5.3-0.9c-2.8-0.3,0-4.9-3.1-5.6c2.9-2.7,10.4,2.6,11.9,5.3c1.4-1.5-1.1-2.7-2.2-3.3c2-0.2,4.4-1,5.4,1.3
	c1.4-0.5,2.4,0.7,3.7,1c5,2-0.8,3.2-2.9,4.1c2.3,0.8,2.9,2,1.7,3.5c0.2,0.4,0.4,0.9,0.7,1.3c1.8,0.2,3.9,2.7,3,5
	c-0.2,0.6-0.1,1.1,0.1,1.6c2.6,5.2,3.7,10.8,3.6,16.6h1.9c0.5-1.7,1-3.4,1.5-5.1c0,0-0.1-0.1-0.1-0.1c-0.7,1-2.8-1.4-2.6-2.1
	c0.4-1.7-1.9-3.2-0.5-4.8c-2.3-2.8,2.3-10.3,5.1-4.9c2.3-3.3,5.5-0.3,4.7,2.9c4.9-11.6-5.3-6.5,3.8-16c0-0.1,0-0.1-0.1-0.2
	c-3.1,0.1-4.7,3-4.6,5.8c-0.1,0-0.2,0-0.2,0c-2.6-3.1-1.4-6.7-0.4-10.1c2.1-3,5.5,1.9,7,3.5c0.1-2.7,1.8-2.9,3.8-1.4
	c2-4.2-1.2-5.9,0.6-8.2c2.1-1.8,1.9,1.8,2.8,2.9c1.4-3.5,2.1-4.8,4.9-1.4c2.1,1.5,1.3,3.5,1.3,5.5c1.3,1.8,0.7,3.6-0.4,5.2
	c-1.1,1.5-0.6,3.6-1.8,5.2c-1.3-0.9-3.7-1.4-2.8-3.6c0.2-0.4,0.1-0.7-0.2-0.9c-2.9-1.8-0.2-4.8-0.8-7.4c-0.9,1-0.6,2.4-0.9,3.7
	c-0.8-0.9-0.7-1.9-0.9-2.9c-2.1,3.7,3,6.8,0.6,10.6c1.2,1.1,1.2,2.3,0.4,3.7c1.5,1.6-0.5,4.2-1.1,5.8c-1.2-2.2-3.9-1.3-4.9-3.6
	c-1.5,3.8-2.4,7.8-4,11.6c2.5-0.1-0.8-3.9,5.5-4.7c0,0.1,0,0.1,0.1,0.2c-0.3,0.4-0.5,0.7-0.8,1.1c0.8-0.6,1.6-0.9,2.6-0.6
	c2.6-1.4,4.1-4.7,5.7-7.1c0-2.3-0.3-5.6,3.1-5c1.8-4.4,7.2,1.6,6.5,4.5c0,1-0.9,2.1-0.5,3.1c0.5,0.7,0.8,1.4,0.7,2.2
	c0,1.4-1.6,1.6-2.2,2.6c-0.3,0.4-0.5,0.4-0.9,0.1C58,30.9,56.2,30.7,57.2,29c0.5-1.1,1.4-2.7,0.2-3.6C56.6,26.4,57.3,27.9,57.2,29
	L57.2,29z M50.2,3.9c-1.3,0-1.3-1.9-1.7-2.8c-0.2-0.5-0.5-0.5-0.9-0.2c-2.1,2.2,1.6,4.7,1.2,7.3c-0.1-1.8,1.9-3.8,1.8-1
	c-0.3,2.3-1.6,4.8,0.9,6.4c1-1.5-1.7-3.5,0-4.4c1.3,0.3,0.9,4.6,0,5.4c-0.9,1.4,1.1,2.4,2.2,2.9c1.6-2.3,0.6-3-0.3-5.1
	c0.7-0.2,1.1,0.4,1.6,0.8c3.3-4-0.1-5.8-2.9-8.1c0.7-2.2,3.1-0.3,3.6,1.1c0.1,0,0.1,0,0.2,0c0.4-2.2-1.6-3.6-2.9-5
	C51.6-0.7,51,3.1,50.2,3.9L50.2,3.9L50.2,3.9z M36,15.6c-0.8-2.4,5.7-7.3,5.3-4c-2.1,2.6-5.9,5.9-1.7,8.6c0-2.1,0.9-6,3.5-5.7
	c0.4,0.3,0.1,0.7,0,1c-1.4,2.5-3.4,5.5-0.3,7.6c0.1,0,0.1-0.1,0.2-0.1c0.1-1.3-0.1-4.4,1.6-4.4c0.5,0.2,0.5,0.6,0.4,1.1
	c-1.9,6.5-0.6,3.5,3.1,6.7c2.7-4.5,0.1-4.5-1.9-8.1c0.3-1.8,2.5,1.6,3.1,2c0.5-2.6-3.5-2.9-3.1-5.3c0.6-2.2,2.1,0.6,2.8,1.5
	c0.1-8.1-9.8-14.2-3,3.2c-0.1,0-0.2,0.1-0.3,0.1c-1.1-3.1-1.7-6.4-3.4-9.2c-1.4-1.4-4.8-6.3-6.3-3C35.4,10.2,33.8,13,36,15.6z
	 M38.9,40.1c0.1,0,0.1,0,0.2-0.1c0.1-0.7,0.4-2.1,1.2-2.1c-0.9,1.5-1.7,5.3,1,5.3c1.4,0.1,2.8,1.2,4.2,0.9c-3.5-2.3-1.7-8.6,0.4-2.3
	c1.2,2.6,3.4-0.4,6.6,1.3c1.9-5-2.1-7.3-6.7-6.5c-0.3,0-0.5-0.1-0.5-0.6c0.7-2.8,4.2-1.7,6.1-0.8c-0.9-1.2-1.1-3.2-2.7-3.4
	c-1.9,0-3.7-0.4-5.1,1.1c-0.4-0.7-0.2-1,0.1-1.8c-2.1,0.6-4.5,3.3-1.8,4.5c2.8,3.2,8.5,1.8,10.1,6.2C52,42,52,42,52,42
	c-2.2-4.1-7.5-2.8-10.5-6C38.2,34.6,36.5,37.4,38.9,40.1L38.9,40.1z M3.5,4.9c2.3,1.1-0.1,5.1,2.4,5.3c6.2-0.3,7.8,3,0.2,1
	c0.9,3.5,5,3.9,7.9,2.9c4.8-0.6,1.4,1.9-1.2,2.1c1.9,1.9,10.8,0.4,5.6-2.2c-3.3-1.7-7.3-2.6-9.6-5.7c-1-1.3-2.2-2.2-3.7-3
	C6.8,5.5,8,6.8,9,8c1.9,3,5.5,3.5,8.3,5.2c5.7-1.7,8.2-2.1,0.7-4.7c0.2,1.1,0.9,1.9-0.2,2.6c-0.4,0.3-0.9,0.1-0.9-0.4
	C17.9,7.6,16,7,13.3,7.1c1.1,0.8,2.8,2.5,1.3,3.5C12.8,9.3,11,7.2,8.8,6.3C6.9,5.7,5.7,3.8,3.5,4.9L3.5,4.9z M27.5,28.1
	c0.6-0.8,3.2-2.2,2.4-0.2c-1.6,1.2-3.2,2.1-1.7,4.3c0.6-1.3,2.9-0.3,1.3,0.6c-1.6,1.2-0.8,2.1,0.6,3c3.3-1,1.4-3.5,2.5-5.4
	c1.4,0.6,1,2.5,1,3.9c1.9-2.2,2.9-3.1,0.6-5.5c-0.6-1.8,2-0.5,1.9,0.7c0.4-1.6,0.9-3.1,0.5-4.7c-0.9-2.7-4-0.9-4,1.3
	c-0.2,1.5-0.4,3.2-1.1,4.6c-0.1,0-0.1,0-0.2-0.1c0.2-1.9,0.8-3.8,0.9-5.6C30.2,20.3,26.9,25,27.5,28.1L27.5,28.1z M22.3,25
	c2.5,5,3.8,10.7,2.7,16.3c-0.5-5,0.1-10.7-2.7-15.3c-1.8,1.5-2.3,3.7-3.1,5.7c2.2,3.4,2.5,10.2,7.5,9.9c0.4-6.1-0.7-11.8-3.6-17
	C22.8,24.6,22.6,24.8,22.3,25L22.3,25z M18.1,30.1c-3-3,3.3-9-1.9-10.9c-1.9-0.4-3.2,1.9-1.5,3.2c0.4-0.4,0.8-0.9,1.5-0.8
	C14,23,13.8,26,15.2,28.1c0.1-1.1-0.3-2.9,1-3.2c1.2,2.9-2.5,3,1.7,7c1.5-1,1.8-2.1,0.8-3.8c-0.6-2,0.8-1.6,1.1,0.1
	c1.8-2,2.7-3.8,0.5-5.9c1-1.3,2.6,0.3,2.3,1.6c1.7-1.7-1-6.7-3.1-4.3c-1.1,0.7-0.6,1.9-0.8,3C18.4,25,16.6,27.6,18.1,30.1L18.1,30.1
	z M59.1,19c-2.1-2.8-2.6,0.9-4.6,0.7c-2.1,0.1-2,4-0.6,4.9c0.3-1,0.1-2.9,1.5-2.9c0.4,0,0.6,0.7,0.3,1.3c-1.1,2.2-1.2,4.1,1,5.7
	c0.1,0,0.1-0.1,0.2-0.1c0.1-1.1-1.1-3.2,0.5-3.5c0.5-0.1,0.7,0.2,0.8,0.6c0.9,2.3-2.6,4.7,1.3,5.5c5.2-3-0.1-4.5-0.5-7.9
	c1.2-0.3,1.6,1.2,2.2,1.9c0.8-1.7,0.2-5.1-2-5.6C57.7,19.9,57.5,19.1,59.1,19L59.1,19z M5.2,38.3c0,0.1,0.1,0.2,0.1,0.2h1.2
	c0,0.1,0,0.1,0,0.2c-1.3,0-3,0.6-3.3,2c0.1,1.3-1.1,1.5-1.6,2.5c0.6-0.2,1-0.4,1.4-0.5c0,0.1,0.1,0.1,0.1,0.2
	c-1,0.6-2.3,1.1-2.1,2.5c-0.1,0.9-1.1,1.3-0.2,2.1c1.3-1.4,4.4-1.1,4-3.8c0-0.2,0.4-0.4,0.6-0.6c0.7,1.1-0.6,2-0.9,3.1
	c0.1,0,0.1,0.1,0.2,0.1c4.1-0.9,1.6-4.1,3.3-6.2c1.4,1.1-0.7,2.8-0.2,4.4c5-5.3,3.7-9-2.7-3.5c-2,2.1-0.5,3.6-3.9,5.7
	c0.2-1.5,2.7-1.8,2.4-3.6c0-1,0.5-1.8,1.2-2.4c1.6-1.1,3.7-2.3,3.5-4.6C6.9,36.3,6.2,37.6,5.2,38.3L5.2,38.3z M16,43.5
	c0.1-0.5,0.7-0.9,1.3-1.1c0.2,1.8-1.7,3.4,0.5,4.8c0-0.6,0.4-1,0.9-1.3c0.5,1-0.2,2.3,1.1,2.8c1-1.3,3.6-2.8,1.2-4.1
	c-0.2-0.1-0.2-0.5-0.3-0.8c0.5-0.2,1-0.2,1.3,0.3c0.4-0.9,1.8-1.9,1.2-3.1c-1-2-2.6-3.7-3.7-0.7c-0.2,2.2,1.5,5,0.7,6.9
	c-0.7-2.1,0.1-7.1-2.4-7.6C15.9,39.9,15.9,42.1,16,43.5L16,43.5z M9.6,27.1c1.2,0,2.1-0.6,2.9,0.4C11.8,28.1,10.9,28,10,28
	c-2.1,0.1-3.2,2.7-1.7,4.2c0.1-1.6,1.7-3.5,3.1-2.4c-2.2,2.5-2.8,3.4,0.2,5.5c0.8-1.2,3.1-1.5,2-3.2c-1.3-1.8,1.6-1.2,1.7,0.2
	c2.9-2.1-2.1-4.1-1.6-6.9C12.3,25.6,10.9,26,9.6,27.1z M39.3,20.6c-1.2,7.7-4.2,14.5-8.7,20.8c6.7,1.5,8.2-21.7,12.2-26.6
	c-0.1-0.1-0.1-0.1-0.2-0.2C39.8,15.8,40.8,20.5,39.3,20.6z M35.6,37.7c1.7-2.9,8.1-14.3,4.8-16.5C39.2,26.9,37.5,32.3,35.6,37.7z
	 M33.9,41.2c2,0.5,3.1-1.5,3.4-3.1c-0.1-0.9-0.1-1.7,0.7-2.2c2.4-3.3,2.8-7.9,4.4-11.7c0.2-0.5,0.1-0.7-0.3-0.9
	C40.5,29.7,38,35.8,33.9,41.2L33.9,41.2z M18.2,32.4c0.9,2,1.7,3.9,2.3,6c0.4,0,0.8-0.1,1.3-0.1c-1-2.1-2-4.3-3-6.4
	C18.5,32.1,18.3,32.3,18.2,32.4z M9.1,37.7c0,0.1,0.1,0.1,0.1,0.2c3.9-2.6,5.6,3.7,7.3,1.7C14.4,38.3,11.5,35.2,9.1,37.7L9.1,37.7z
	 M32.6,34.3c-1,1.4-0.6,2.9-1.1,4.3c0.1,0,0.1,0,0.2,0.1c0.8-1.4,1.7-2.8,2.5-4.2c0,0-0.1-0.1-0.2-0.1c-0.4,0.4-0.8,0.8-1.4,1
	C32.6,35,32.5,34.8,32.6,34.3L32.6,34.3z M47.7,31.4c2.3-1.5,3.9-4.7,5.2-7.1C51.2,26.7,49.5,29,47.7,31.4L47.7,31.4z M31.4,35.8
	c-0.1,0-0.1,0-0.2,0c-0.5,1.9-1,3.7-1.6,5.6C31.5,40.3,31.1,37.7,31.4,35.8L31.4,35.8z M52.6,5c0.9,0.6,1.8,1.1,2.7,1.6
	C55.2,5.3,53.6,3.5,52.6,5L52.6,5z M36.5,40.9c0,0.1,0,0.1,0.1,0.2c0.7-0.2,1.4-0.4,2.2-0.6c-0.4-0.6-0.8-1-1.2-1.5
	C37.3,39.6,36.9,40.3,36.5,40.9z M46.8,14.5c-0.6,0.9-0.1,1.7,1.6,2.6C48.3,16.3,47.6,15.1,46.8,14.5z M44.5,19
	c-0.1,0-0.2-0.1-0.3-0.1c-1,1.2-0.8,2.6-0.7,4.1C43.8,21.7,44.2,20.4,44.5,19L44.5,19z M46.9,9.4c0.1,0,0.2,0,0.2,0.1
	c0.3-1.3,1.2-2.7,0.8-4c-0.1,0-0.1,0-0.2,0C47.4,6.8,47.1,8.1,46.9,9.4z M20.9,22.3c0.7,0.7,1.1,1.4,1.5,2.3
	C22.7,23.6,22.2,21.6,20.9,22.3z M17.6,8.9c-0.1,0.7-0.3,1.4-0.4,2.1C18.2,10.4,18.3,10,17.6,8.9z M27.9,28.7c1-0.6,1.6-1.1,1.6-1.4
	C28.8,27.3,28.2,27.9,27.9,28.7z M32.9,31.2c-0.1,0-0.1,0-0.2,0c0.1,0.8,0.1,1.5,0.2,2.3C33.4,32.7,33.3,31.9,32.9,31.2L32.9,31.2z
	 M48.5,20.8c0.1-0.1,0.2-0.1,0.3-0.2c-0.6-0.7-1.3-1.5-1.9-2.2c-0.1,0.1-0.1,0.1-0.2,0.2C47.3,19.3,47.9,20,48.5,20.8z M60.6,25.7
	c0,0,0.1-0.1,0.1-0.1c-0.2-0.8-0.4-1.6-1.4-1.9C59.7,24.4,60.2,25,60.6,25.7L60.6,25.7z M19.1,17.4c0.3,0.5,0.5,0.9,0.8,1.4
	c0.6-0.8-0.3-1.1-0.3-1.7C19.4,17.3,19.2,17.3,19.1,17.4z M54.4,24.1c0.1,0,0.1,0,0.2,0.1c0.2-0.7,0.8-1.3,0.6-2L55,22.1
	C54.8,22.8,54.6,23.5,54.4,24.1z M16.3,25.3c-0.1,0-0.2,0-0.2-0.1c-0.6,0.6-0.5,1.4-0.4,2.2C15.9,26.7,16.1,26,16.3,25.3L16.3,25.3z
	 M7.9,40.5c-0.1,0-0.2,0-0.3,0c0,0.5-0.1,1-0.1,1.4C7.8,41.5,8.3,41.1,7.9,40.5z M35.4,29.6c0-0.9-0.2-1.2-0.8-1.2
	C34.8,28.8,35.1,29.2,35.4,29.6z M10.3,27.4c0,0,0,0.1,0,0.1h1.8c0,0,0-0.1,0-0.1C12,27.4,10.3,27.4,10.3,27.4z"/>
<path class="st0" d="M43.5,53.9c-7.2,4.6-16.9,4.6-25,3C26.9,57.5,35.7,58,43.5,53.9z"/>
<path class="st0" d="M12.5,66.8c5.5,0.9,10.9,1.1,16.6,0.7c-5.4,1.3-11.3,0.7-16.6-0.5C12.5,66.9,12.5,66.8,12.5,66.8L12.5,66.8z"/>
<path class="st0" d="M9.7,53.8c3.8,0.9,7.7,1.7,11.4,2.6C20.3,56.9,10.7,54.8,9.7,53.8z"/>
<path class="st0" d="M37.5,63.1c0.2,3.9-4.5,3.9-7.3,3.7C32.9,65.7,36.5,66.8,37.5,63.1L37.5,63.1z"/>
<path class="st0" d="M16.5,56.9c-2.6-1-8.1-0.8-8.5-4c1.8,2.8,5.7,2.9,8.6,3.7C16.6,56.7,16.5,56.8,16.5,56.9z"/>
<path class="st0" d="M31.8,43.5c-2.6,0.1-5.2,0-7.8-0.2c0-0.1,0-0.2,0-0.3c2.6,0.1,5.2,0.1,7.8,0.2C31.8,43.3,31.8,43.4,31.8,43.5
	L31.8,43.5z"/>
<path class="st0" d="M38.9,42.5c-1.9,0.7-4,1-6,1c0-0.1,0-0.1,0-0.2c2-0.3,4-0.7,6-1C38.9,42.3,38.9,42.4,38.9,42.5L38.9,42.5z"/>
<path class="st0" d="M38.7,57.4c-0.2,1.4-0.4,2.6-0.6,3.8C37.7,60.3,37.9,58.6,38.7,57.4z"/>
<path class="st0" d="M46.5,21.6c0.9,1.1,1.4,2.3,1.6,3.7c-0.1,0-0.1,0.1-0.2,0.1c-0.5-1.2-1-2.4-1.5-3.7
	C46.4,21.6,46.5,21.6,46.5,21.6z"/>
<path class="st0" d="M31.1,31.7c-0.3,1.1-0.6,2.1-0.9,3.4c-0.6-1.2,0.2-2.4,0.8-3.5C31,31.7,31.1,31.7,31.1,31.7z"/>
<path class="st0" d="M50.2,3.9c2.5,1.8,4.2,5.4,2.8,8.4c-0.1,0-0.1,0-0.2,0C53.6,8.7,52.2,6.7,50.2,3.9L50.2,3.9L50.2,3.9z"/>
<path class="st0" d="M58.3,24.9c-0.9-1.7-1.4-3.5-2.5-5.1c1.7,1.1,2,3.2,2.6,5C58.4,24.8,58.4,24.8,58.3,24.9L58.3,24.9z"/>
<path class="st0" d="M59.2,30.6c0.3-1.4,0.3-2.3,0.1-3.6C60.2,27.3,60.2,29.6,59.2,30.6L59.2,30.6z"/>
<path class="st0" d="M11.6,34.5c-1.2-1.9,0.2-5.3,2.4-6.3C12.1,29.9,11.1,31.8,11.6,34.5z"/>
</svg>
