<svg width="91" height="51" viewBox="0 0 91 51" fill="none" xmlns="http://www.w3.org/2000/svg">
<g clip-path="url(#clip0_69_9673)">
<path d="M0.196278 25.3677C0.130852 21.8855 0.0654261 18.4216 0 14.9249C0.199913 14.9249 0.316226 14.9249 0.432539 14.9249C1.86465 14.8994 1.84647 14.8994 1.86465 16.3606C1.94461 22.4417 2.03911 28.5227 2.11908 34.6037C2.14089 36.134 2.11908 37.6679 2.11908 39.2417H7.11328C6.1646 36.7046 6.65893 34.2911 7.69848 31.9467C8.15282 30.9253 8.75983 29.9693 9.3414 29.0098C9.46135 28.8098 9.76667 28.6245 9.99929 28.6099C10.7699 28.559 11.5441 28.5627 12.3147 28.6099C12.5618 28.6245 12.9326 28.7771 13.0162 28.9661C13.7904 30.7363 14.6373 32.4883 15.2079 34.3238C15.6623 35.785 15.615 37.3516 14.9571 38.8201C14.9172 38.9073 14.9099 39.0091 14.8954 39.0782H18.2902C17.5015 36.9773 18.1848 35.2471 19.3443 33.6151C19.8169 32.9463 20.5402 32.6773 21.318 32.9063C21.4016 32.9317 21.4925 33.0008 21.5361 33.0771C22.3648 34.5129 23.1027 35.9849 23.1136 37.6933C23.1136 38.1149 23.0155 38.5366 22.9609 38.9655H26.8647C26.3377 37.875 26.0905 36.8101 26.2068 35.7051C26.2977 34.8582 26.3813 33.9931 26.6357 33.1898C27.1664 31.5178 27.8134 29.8785 28.9293 28.4936C29.1292 28.2464 29.4999 28.0429 29.8161 28.0029C30.4195 27.9266 31.0447 27.9448 31.6553 28.0029C31.888 28.0247 32.2333 28.2137 32.2987 28.4027C33.0693 30.6236 33.9271 32.8299 34.4868 35.109C34.7813 36.3084 34.8067 37.6679 34.1743 38.8455H39.3684C39.3974 38.682 39.4265 38.5875 39.4265 38.493C39.3974 32.3683 39.3684 26.2437 39.3284 20.119C39.3138 18.2762 39.2666 16.4333 39.2121 14.5905C39.1975 14.1179 39.3429 13.9435 39.8372 13.9435C41.1858 13.9507 41.1858 13.9289 41.1858 15.252C41.1858 16.9095 41.1858 18.5669 41.1858 20.268C42.8432 20.3807 44.4825 20.0572 46.0927 20.5116C44.497 20.8532 42.8723 20.6424 41.2766 20.766V34.8945C42.0763 33.9713 42.9777 33.8331 43.9337 33.8768C46.5034 33.9931 49.0696 34.1276 51.6394 34.2293C52.6426 34.2693 53.6458 34.2439 54.649 34.2548C54.8598 34.2548 55.0706 34.2911 55.2924 34.3129C54.9216 35.7232 54.918 36.3811 55.6486 36.4066V38.4239H59.9667C59.9776 38.493 59.9885 38.5657 59.9958 38.6347C59.7886 38.6892 59.5814 38.7874 59.3742 38.791C55.5868 38.8855 51.803 38.9546 48.0155 39.0527C45.8492 39.1073 43.6828 39.1981 41.4693 39.2745V41.2591C54.0856 40.9973 66.7019 40.7356 79.3837 40.4703C79.3183 33.7823 79.2492 27.0978 79.1838 20.3625C77.9007 20.3625 76.6976 20.3516 75.4981 20.3625C67.7778 20.4461 60.0612 20.5334 52.3409 20.6242C51.1342 20.6388 49.9274 20.6824 48.717 20.7115C48.5934 20.7115 48.4553 20.7478 48.3535 20.7042C48.2082 20.6424 48.0882 20.5261 47.961 20.4316C48.0918 20.3625 48.2227 20.239 48.3572 20.2353C49.6475 20.1953 50.9379 20.1626 52.2246 20.1517C55.7067 20.1226 59.1852 20.1154 62.6673 20.0754C68.0323 20.0172 73.3936 19.9373 78.7585 19.8682C78.8603 19.8682 78.9621 19.8573 79.1075 19.85V17.7746C66.8037 18.0326 54.4963 18.1962 42.1853 18.3925C42.1853 18.258 42.1817 18.1235 42.1781 17.989C49.9238 17.8654 57.6659 17.7455 65.437 17.6219C64.4811 16.8004 63.5397 16.0335 62.6419 15.212C61.9913 14.6195 62.0131 14.565 62.5328 13.8417C63.2562 12.8312 63.965 11.8026 64.7246 10.8212C64.8918 10.6031 65.2408 10.4577 65.5279 10.4141C66.2331 10.3123 66.9491 10.2905 67.6579 10.2396C67.6615 8.99286 66.1022 7.4517 64.1394 7.75339C63.9795 8.58576 63.9068 9.39632 63.6487 10.1415C63.5106 10.534 63.0853 10.8684 62.7146 11.1229C62.5401 11.2428 62.1294 11.2065 61.944 11.072C61.7914 10.9629 61.715 10.5776 61.7804 10.3705C62.0167 9.61805 62.3257 8.89109 62.6673 7.98965C61.7986 8.60394 61.0099 9.16733 60.1593 9.77071C61.0789 10.8721 60.6064 11.9516 60.3229 13.0239C60.2902 13.1511 60.1448 13.2892 60.0176 13.3401C59.9594 13.3619 59.7959 13.2056 59.7232 13.1002C59.0435 12.0752 59.0398 12.0425 59.3597 10.6431C59.138 10.8393 59.0107 10.9811 58.8581 11.0829C58.1784 11.5227 57.5023 11.9734 56.7972 12.3696C56.4882 12.5441 56.2919 12.6895 56.2847 13.0929C56.281 13.4237 56.172 13.7908 55.9939 14.0634C55.863 14.2633 55.5322 14.4487 55.2996 14.4378C54.9071 14.4196 54.5581 14.2633 54.1147 14.376C53.7476 14.4705 53.5731 14.0162 53.6204 13.6309C53.7258 12.744 54.3037 12.2715 55.0961 12.017C55.3651 11.9298 55.6558 11.9007 55.9393 11.8716C56.8517 11.7808 57.4296 11.5227 58.2692 10.7521C57.5459 10.6249 56.8989 10.534 56.2665 10.385C55.9793 10.3159 55.7176 10.1269 55.445 9.99243C55.6631 9.71982 55.8412 9.28001 56.1102 9.21458C56.5682 9.1019 57.1134 9.13462 57.5677 9.27638C58.0802 9.43631 58.531 9.78525 59.0616 10.0797C59.7086 9.51264 60.3956 8.91289 61.1807 8.22228C60.8245 8.06962 60.5337 7.91696 60.2248 7.82609C59.6795 7.66616 59.1089 7.57892 58.5709 7.39718C57.9203 7.17909 57.8476 6.79744 58.3419 6.31037C58.9017 5.75788 59.5778 5.74334 60.2793 5.97233C61.0062 6.2086 61.5224 6.65568 61.7041 7.42989C61.7332 7.56438 61.7332 7.7025 61.7514 7.90242C62.8672 7.28813 63.994 6.90648 65.2626 7.21907C64.9064 6.55027 64.5429 5.95053 64.2557 5.31443C63.8995 4.52205 63.9977 3.93684 64.4447 3.71875C64.8264 3.53338 65.5715 3.95138 65.9096 4.5802C66.393 5.478 66.4875 6.43395 66.2985 7.47351C66.5311 7.6189 66.7855 7.77883 67.0327 7.93513C67.0691 7.52076 67.04 7.11003 67.1599 6.74655C67.2363 6.51756 67.5161 6.24494 67.7415 6.2086C67.9559 6.17588 68.2794 6.36853 68.4357 6.56117C68.672 6.84832 68.8028 7.21907 68.9846 7.56075C69.2208 7.29177 69.4753 7.05187 69.6643 6.76836C69.7588 6.6266 69.7515 6.40488 69.7624 6.21587C69.7988 5.61249 69.7806 5.00184 69.8751 4.40937C69.9187 4.13676 70.1332 3.82053 70.3622 3.66423C70.6639 3.46432 71.0564 3.40252 71.409 3.28258C71.4962 3.59517 71.678 3.91503 71.6489 4.21672C71.6053 4.70742 71.4235 5.18722 71.2709 5.78332C71.8961 5.39076 72.4958 5.01274 73.1501 4.60565C72.4922 3.80962 72.5103 2.96271 72.7648 2.09399C72.8193 1.90135 72.9174 1.71597 73.0301 1.54877C73.2591 1.2071 73.6117 0.879967 73.9824 1.11623C74.2078 1.25799 74.3132 1.73778 74.3059 2.06128C74.295 2.51927 74.1278 2.96998 73.9933 3.58063C74.4986 2.96271 74.8002 2.4393 74.8584 1.74505C74.8984 1.26162 75.0656 0.763653 75.2946 0.338381C75.4036 0.134831 75.7962 0.000343339 76.0579 0.00397815C76.1924 0.00397815 76.3232 0.378363 76.4468 0.567373C76.7158 0.712766 77.1265 0.800001 77.2501 1.0399C77.3519 1.22891 77.1919 1.69416 76.9957 1.87227C76.7085 2.13398 76.3051 2.33753 75.9234 2.41386C75.3091 2.5338 74.9711 2.86821 74.6985 3.40252C74.4877 3.81326 74.1423 4.15493 73.8298 4.56566C74.3168 4.62382 74.8148 4.64199 75.2873 4.76194C75.5272 4.82373 75.7235 5.06727 75.9379 5.2272C75.7816 5.42711 75.669 5.72153 75.4654 5.8124C74.5167 6.23768 73.5426 6.28493 72.5649 5.86329C72.4449 5.8124 72.2777 5.73607 72.1868 5.77969C71.6089 6.0632 71.0419 6.37943 70.4203 6.71747C71.0128 6.71747 71.5217 6.66295 72.016 6.73928C72.2668 6.77926 72.5903 7.01552 72.6739 7.24088C72.7248 7.38264 72.4449 7.76066 72.2268 7.8697C71.329 8.33132 70.3876 8.32042 69.2826 7.87334C69.17 8.64028 69.0682 9.35271 68.9555 10.1306H70.7075C71.7252 8.15322 73.4845 7.30631 75.6362 7.7752C76.4177 6.83015 77.3991 6.29947 78.6495 6.35035C78.8676 6.36126 79.0966 6.40851 79.2965 6.49575C79.7254 6.69203 79.8199 7.09549 79.431 7.34993C78.8203 7.74976 78.1261 8.026 77.3955 8.39312C78.5077 8.81839 79.6636 9.26184 80.8631 9.71982C81.132 8.77841 81.55 8.12051 82.277 7.70977C82.4842 7.58982 82.7241 7.48078 82.9567 7.46261C83.1821 7.44443 83.5419 7.48805 83.6146 7.62254C83.7091 7.80428 83.6655 8.16049 83.5383 8.34223C83.2148 8.80022 82.815 9.20368 82.4042 9.67257C83.9963 9.45085 85.3048 8.8511 86.1117 7.48078C85.541 7.27723 84.9377 7.15365 84.4397 6.85559C84.1453 6.68112 84.0144 6.23041 83.8109 5.89964C84.1053 5.75425 84.3997 5.60522 84.7777 5.41984C84.7559 5.22356 84.6796 4.88916 84.6832 4.55839C84.6941 3.93684 85.1449 3.62425 85.6683 3.94775C86.1335 4.2349 86.497 4.68561 86.915 5.07454C87.0059 4.9146 87.1222 4.61655 87.3221 4.38392C87.4675 4.21309 87.7546 3.99863 87.9109 4.04589C88.1072 4.10404 88.3035 4.38029 88.3762 4.60201C88.5906 5.26355 88.3144 5.87056 87.8128 6.23041C86.8059 6.961 86.5152 8.22955 85.4902 8.98923C85.6392 9.01103 85.6828 9.02921 85.7191 9.0183C86.2207 8.87291 86.6715 8.89835 86.8677 9.47629C86.995 9.85431 86.5733 10.3668 86.0099 10.5013C85.2357 10.683 84.4688 10.7848 83.909 9.9997C83.8581 9.93064 83.6837 9.89066 83.5892 9.9161C82.4806 10.2505 81.3756 10.1887 80.267 9.9052C80.1979 9.88702 80.1179 9.9161 80.0234 9.92701C80.3142 10.4032 80.6523 10.8248 80.8376 11.3046C80.9612 11.6208 81.0085 12.1479 80.8267 12.3623C80.5178 12.7258 80.0125 12.5477 79.6636 12.2787C78.784 11.599 78.6531 10.6576 78.8385 9.62895C78.8494 9.57443 78.8494 9.51627 78.8603 9.40359C77.7335 8.96015 76.6067 8.51307 75.4836 8.06962C75.4509 8.11687 75.4218 8.16776 75.3891 8.21501C75.9234 8.8402 76.3705 9.49446 76.345 10.3595C76.3341 10.7666 76.3087 11.2537 75.8471 11.2719C75.5199 11.2864 74.9965 11.0284 74.8802 10.7557C74.6185 10.1378 74.5385 9.43994 74.4186 8.7675C74.3822 8.56032 74.4659 8.33496 74.4949 8.11324C72.9647 8.04781 71.4853 9.0801 71.2527 10.2469C71.9869 10.2469 72.6921 10.265 73.3972 10.2396C73.768 10.2287 73.9679 10.3341 74.1351 10.6976C74.713 11.9334 75.3128 13.162 75.9706 14.3542C76.2105 14.7904 76.1306 15.0557 75.818 15.3429C75.062 16.0298 74.3023 16.7132 73.5063 17.4329H79.1511C79.1511 16.2334 79.1511 15.1102 79.1511 13.9907C79.1511 13.2238 79.2456 13.1547 80.0234 13.2892C80.3542 13.3474 80.874 13.2892 80.9794 13.4709C81.1648 13.7872 81.1211 14.2524 81.1248 14.6559C81.172 23.5067 81.2084 32.3538 81.2556 41.2045C81.2665 43.0474 81.3029 44.8902 81.3719 46.7331C81.3937 47.2856 81.1575 47.4709 80.6777 47.4891C80.4523 47.5 80.227 47.4891 80.0016 47.4709C79.5582 47.4382 79.3764 47.2129 79.3837 46.7513C79.4055 45.0102 79.391 43.2691 79.391 41.528C79.391 41.3281 79.391 41.1318 79.391 40.8738C66.7129 41.1609 54.0965 41.4481 41.4475 41.7316C41.4475 43.4036 41.4257 45.0175 41.4656 46.6277C41.4765 47.0093 41.4329 47.1547 41.0404 47.1438C40.5315 47.1256 40.0226 47.1402 39.4483 47.1402V41.2918C30.8811 41.4081 22.383 41.5208 13.8812 41.6298C13.8485 41.6298 13.8158 41.5426 13.6922 41.3717C14.0739 41.3208 14.3756 41.2518 14.6736 41.2445C18.2757 41.1864 21.8814 41.1391 25.4835 41.0846C29.947 41.0155 34.4105 40.9428 38.8704 40.8738C39.0303 40.8738 39.1939 40.8738 39.3974 40.8738V39.2199C27.0137 39.398 14.6627 39.5798 2.21358 39.7615C2.2572 40.3758 2.29355 40.881 2.3299 41.3645H11.9076C11.9185 41.4372 11.933 41.5135 11.9439 41.5862C11.6786 41.6334 11.4169 41.7207 11.1515 41.7279C8.34547 41.7825 5.54305 41.8225 2.73699 41.8697C2.63522 41.8697 2.53708 41.8842 2.34807 41.8988C2.34807 42.2477 2.3408 42.5858 2.34807 42.9238C2.38078 44.2541 2.38805 45.5845 2.47165 46.9148C2.508 47.4746 2.30809 47.7217 1.78831 47.7363C1.50844 47.7436 1.22492 47.6672 0.945044 47.6563C0.574296 47.6418 0.563392 47.4528 0.570661 47.1256C0.596105 45.3918 0.581566 43.6544 0.581566 41.8297M0.210818 27.4431V25.7457V27.4431ZM75.44 14.9031C75.4327 14.6995 75.4799 14.4705 75.4036 14.2997C74.942 13.2819 74.4549 12.2751 73.9715 11.2646C73.7716 10.8502 73.5063 10.6103 72.9792 10.6285C70.7511 10.6976 68.523 10.7267 66.2949 10.763C65.3026 10.7776 65.3098 10.7666 65.2735 11.7844C65.2662 11.948 65.1826 12.1079 65.1317 12.2715C65.059 12.2569 64.9863 12.2424 64.9136 12.2278V11.1592C64.2085 12.1624 63.6197 13.0348 62.9908 13.878C62.6455 14.3397 62.7073 14.6922 63.1253 15.0339C63.9613 15.7209 64.8446 16.3606 65.6115 17.1167C66.1531 17.651 66.731 17.6473 67.3853 17.6255C68.8574 17.5783 70.3295 17.5601 71.8052 17.5274C71.976 17.5238 72.1469 17.5128 72.4158 17.4983C71.3908 16.7059 70.453 15.979 69.4971 15.2375C69.3299 15.9499 69.6425 16.6587 69.2826 17.2693C69.2136 17.2693 69.1445 17.262 69.0791 17.2584V15.1938C68.1268 15.9572 67.3017 16.6187 66.473 17.2802C66.4257 17.2293 66.3821 17.1748 66.3348 17.1239C66.8219 16.1571 67.8942 15.7354 68.5666 14.9031C67.6397 14.6268 66.7419 14.3869 65.866 14.0925C64.87 13.7581 64.0595 14.4996 63.0926 14.4669C63.3543 14.2233 63.6342 14.0016 63.954 13.9217C64.5647 13.7654 65.0554 13.5618 64.95 12.7912C64.95 12.7731 65.0081 12.7476 65.1354 12.6567C65.1862 12.8567 65.2117 13.0275 65.2771 13.1802C65.3425 13.3256 65.4261 13.5364 65.5461 13.5764C66.5275 13.8817 67.5161 14.1543 68.6793 14.4887C67.5707 13.5182 66.6547 12.6168 65.8114 11.6463C65.8878 11.5699 65.9641 11.4936 66.0368 11.4209C67.0073 12.3405 67.9778 13.2638 69.0391 14.2706V11.0393C69.0973 11.0393 69.1591 11.0393 69.2172 11.0356C69.5044 12.0679 69.199 13.1583 69.3953 14.2597C70.7184 13.1293 71.9869 12.0425 73.2555 10.9593C73.3136 11.0102 73.3718 11.0611 73.4263 11.112C73.3354 11.2719 73.2773 11.4682 73.1501 11.5845C72.4267 12.2496 71.6889 12.8966 70.9547 13.5473C70.6057 13.8599 70.2531 14.1688 69.9006 14.4778C70.8129 14.4705 71.6598 14.3651 72.5031 14.2561C73.4009 14.1397 74.2914 14.0925 75.1274 14.5178C75.2691 14.5905 75.3455 14.7904 75.4509 14.9321C74.8984 14.8522 74.3495 14.7722 73.8189 14.6959C73.5644 15.4337 73.3282 16.128 73.0883 16.8222C72.9829 16.7895 72.8811 16.7568 72.7757 16.7277C72.9429 16.0299 73.1101 15.332 73.2918 14.5723C72.1578 14.714 71.0746 14.8485 69.8715 15.0012C70.8165 15.7064 71.6453 16.3315 72.4849 16.9386C72.6412 17.0512 72.9538 17.193 73.0265 17.1276C73.8479 16.4115 74.633 15.6591 75.4291 14.914L75.44 14.9031ZM0.443444 39.2854C0.378018 35.4543 0.312592 31.6922 0.243531 27.8175L0.443444 39.2854ZM11.5877 30.0021C11.6168 30.162 11.6931 30.3292 11.6713 30.4818C11.515 31.6304 11.3151 32.7718 11.1806 33.9204C10.9916 35.527 10.9734 37.1335 11.3115 38.7292C11.3805 39.06 11.5077 39.1727 11.8349 39.1654C12.4891 39.1472 13.147 39.1327 13.7976 39.1654C14.1975 39.1872 14.3792 39.0127 14.521 38.6711C15.0807 37.3335 15.1462 35.9086 14.7572 34.5892C14.2084 32.7282 13.3869 30.9471 12.66 29.1406C12.6091 29.0098 12.391 28.8607 12.2492 28.8644C11.475 28.8753 10.7008 28.9189 9.93023 28.9734C9.84663 28.9807 9.74486 29.1006 9.69761 29.1915C8.62171 31.2706 7.37498 33.2952 7.22595 35.7051C7.1678 36.6465 7.30228 37.6097 7.43314 38.5475C7.46948 38.7983 7.80025 39.1872 8.01834 39.2054C8.98882 39.2781 9.96658 39.2381 10.9698 39.2381C10.2719 36.2794 11.0243 31.456 11.5804 30.0021H11.5877ZM30.5322 38.9219V38.911C31.3936 38.911 32.2551 38.8783 33.1129 38.9219C33.6 38.9473 33.8835 38.751 33.9235 38.3185C34.018 37.2281 34.2724 36.0904 34.0688 35.0508C33.7417 33.3933 33.142 31.7795 32.564 30.1765C31.8807 28.2755 31.8371 28.2901 29.8343 28.3373C29.7943 28.3373 29.7434 28.3228 29.7144 28.3373C29.5872 28.4027 29.4127 28.45 29.3436 28.559C28.3368 30.1729 27.4644 31.8485 26.9846 33.7059C26.5848 35.2435 26.5376 36.7664 27.0755 38.2821C27.2354 38.7292 27.4717 38.9728 28.0169 38.9291C28.8529 38.8674 29.6962 38.911 30.5358 38.911L30.5322 38.9219ZM80.7758 47.0021V13.7436H79.54C79.6418 24.8443 79.7399 35.9123 79.8417 47.0021H80.7758ZM40.8186 46.6422V14.3615H39.5283C39.6482 25.1496 39.7646 35.9014 39.8845 46.6422H40.8223H40.8186ZM1.98823 47.2456C1.81012 36.5702 1.63202 25.902 1.45391 15.1611C1.01774 15.2375 0.726957 15.2883 0.410731 15.3429C0.614279 25.9965 0.817827 36.6065 1.02137 47.242H1.98823V47.2456ZM55.2378 36.5774C53.8566 36.5774 52.4754 36.6065 51.0942 36.5702C50.0146 36.5411 48.9388 36.3993 47.8556 36.3666C46.3908 36.323 44.9259 36.3448 43.4575 36.3157C43.0504 36.3084 42.8505 36.5047 42.7705 36.8573C42.6796 37.2499 42.6033 37.6497 42.5415 38.0495C42.4507 38.6384 42.7015 38.8201 43.2976 38.7983C46.7942 38.6856 50.2909 38.6129 53.7876 38.5184C54.2892 38.5039 54.7871 38.4384 55.2342 38.4021V36.5774H55.2378ZM54.6963 36.3702V34.6001C53.5549 34.6001 52.4536 34.6328 51.3522 34.5928C48.7425 34.4947 46.1327 34.3675 43.5229 34.2366C42.9486 34.2075 42.6288 34.4547 42.5633 35.0108C42.527 35.3052 42.5561 35.6069 42.5561 35.9631C42.9632 35.9159 43.323 35.8359 43.6756 35.8432C45.224 35.8723 46.7761 35.9086 48.3208 35.9777C49.4004 36.0249 50.4763 36.1303 51.5558 36.1958C52.5917 36.2612 53.6313 36.3121 54.689 36.3702H54.6963ZM21.4743 33.2552L21.2817 33.2625C21.0563 33.2625 20.8273 33.2879 20.6092 33.2588C20.1294 33.1898 19.8459 33.4115 19.6569 33.8259C19.3225 34.5637 18.93 35.2834 18.6501 36.0431C18.352 36.8537 18.2539 37.6969 18.5483 38.5511C18.6719 38.911 18.8355 39.0782 19.2426 39.0564C19.8968 39.02 20.5511 39.0418 21.2053 39.0418C22.6702 39.0418 22.801 38.9037 22.7356 37.428C22.7283 37.2644 22.7174 37.0972 22.6702 36.9445C22.2776 35.716 21.8741 34.4874 21.4743 33.2588V33.2552ZM86.4534 6.7102C86.7005 5.42348 86.0972 4.32577 85.1776 4.3294C84.9268 5.16177 85.5338 6.32491 86.4534 6.7102ZM79.3292 6.98645C78.3551 6.53209 77.0502 6.89558 76.3269 7.7752C77.4318 7.91332 78.3914 7.67342 79.3292 6.98645ZM65.855 7.03006C65.9641 5.36169 65.5424 4.44571 64.5502 4.14039C64.5392 5.28172 65.2371 6.0414 65.855 7.03006ZM62.2784 10.7158C63.2089 10.494 63.6996 9.37451 63.4488 8.08052C62.7219 8.84747 62.3729 9.69801 62.2784 10.7158ZM75.6908 11.0174C76.1706 10.2614 75.7744 9.13098 74.862 8.54214C74.8402 9.46902 74.7603 10.3777 75.6908 11.0174ZM61.1952 7.56438C60.9226 6.7829 60.3665 6.43395 59.6359 6.34672C59.2252 6.29947 58.8435 6.3867 58.5855 6.88467C59.4615 7.11366 60.2902 7.32812 61.1952 7.56438ZM71.2672 3.67513C70.3186 3.98046 69.8242 5.18722 70.2568 6.04867C70.911 5.4053 71.2709 4.6529 71.2672 3.67513ZM79.4528 9.94882C79.3946 9.97426 79.3401 10.0033 79.2819 10.0288C79.231 10.8393 79.2928 11.6136 80.0889 12.1006C80.2015 12.1697 80.3869 12.1224 80.5396 12.1297C80.5396 11.9807 80.6014 11.7989 80.5396 11.6935C80.1943 11.101 79.8199 10.5304 79.4528 9.95245V9.94882ZM68.6102 8.57122C68.4139 7.8479 68.4866 7.08822 67.7706 6.63023C67.2762 7.40808 67.5016 7.93877 68.6102 8.57122ZM73.9533 1.6142C73.0774 2.0322 72.8702 3.16626 73.4045 4.0895C73.6008 3.19898 73.7789 2.40659 73.9533 1.6142ZM84.2689 9.74527C85.0503 10.4504 86.2207 10.265 86.4606 9.34544C85.7082 9.48356 85.0285 9.60714 84.2689 9.74527ZM75.4145 5.30353C74.3059 4.97276 73.4445 5.03092 72.8375 5.4671C73.6953 5.71426 74.5167 5.82694 75.4145 5.30353ZM83.3166 7.85517C82.466 7.92786 81.7899 8.5167 81.6409 9.32726C82.4624 9.11644 82.8695 8.49126 83.3166 7.85517ZM60.2466 10.5994C60.1521 10.5922 60.0576 10.5849 59.9594 10.5813C59.785 11.2355 59.3088 11.8789 60.0285 12.7222C60.1121 11.9225 60.1775 11.261 60.2466 10.5994ZM70.0205 7.37537C70.0278 7.4408 70.035 7.50986 70.046 7.57528C70.8492 7.84426 71.6707 7.73158 72.2232 7.13184C71.3799 7.22634 70.7002 7.30267 70.0205 7.37537ZM55.9466 9.86885C56.7717 10.007 57.5168 10.1342 58.3274 10.2723C57.3787 9.50173 56.6663 9.36725 55.9466 9.86885ZM86.9586 6.19042C87.8818 5.69972 88.1363 5.12906 87.7728 4.40937C87.4747 5.06 87.2167 5.62703 86.9586 6.19042ZM67.6906 8.56032C67.9123 9.13462 68.1122 9.6544 68.3194 10.1923C68.4176 10.1742 68.5448 10.1524 68.6357 10.1378C68.6029 9.75617 68.6684 9.38178 68.5193 9.13098C68.3703 8.88382 68.0068 8.76387 67.6906 8.55668V8.56032ZM42.2326 36.174V34.6219C41.4729 35.1271 41.4874 35.7923 42.2326 36.174ZM76.0906 0.265684C75.251 0.749114 75.0438 1.33068 75.4363 1.92316C75.6471 1.38884 75.8398 0.898141 76.0906 0.265684ZM54.1983 14.0053C54.6599 13.5146 55.0525 13.1002 55.485 12.6386C54.5654 12.7876 54.2601 13.1002 54.1983 14.0053ZM85.5883 6.93192C85.6464 6.82288 85.7046 6.7102 85.7628 6.60116C85.2866 6.37216 84.8104 6.14317 84.3343 5.91781C84.2907 6.00505 84.2434 6.09228 84.1998 6.17952C84.6614 6.43032 85.1267 6.68112 85.5883 6.93556V6.93192ZM42.0981 38.522C42.1817 37.8641 42.258 37.2935 42.3307 36.7337C41.7564 37.2644 41.6764 37.7333 42.0981 38.522ZM75.9343 2.05401C76.2651 1.81775 76.5995 1.58149 77.0066 1.2907C76.156 0.956298 76.0252 1.47608 75.9343 2.05401ZM54.9616 13.8635C55.187 13.9362 55.4014 14.0416 55.4305 14.0053C55.6486 13.7254 55.8267 13.4201 56.0193 13.122C55.9648 13.082 55.9103 13.0457 55.8557 13.0057C55.5904 13.2601 55.3214 13.5182 54.9616 13.8635Z" fill="white"/>
<path d="M133.378 19.8642C133.331 17.6361 133.266 15.4079 133.244 13.1761C133.222 10.9262 133.24 8.67625 133.24 6.33907C132.84 6.33907 132.521 6.33907 132.201 6.33907C127.203 6.34634 122.209 6.34634 117.211 6.36452C115.39 6.37179 113.569 6.43358 111.748 6.45175C109.356 6.47356 106.961 6.41904 104.569 6.49537C100.974 6.61168 97.3794 6.80433 93.7846 6.9788C92.9813 7.01878 92.1817 7.11692 91.382 7.18962C91.3566 7.37136 91.3384 7.44769 91.3384 7.52765C91.2911 10.9044 91.2185 14.2811 91.2003 17.6579C91.153 25.8107 91.1021 33.96 91.1058 42.1129C91.1058 44.8317 91.2693 47.5469 91.3638 50.4366C92.4506 50.4366 93.4393 50.4584 94.428 50.4329C97.2049 50.3639 99.9819 50.2548 102.763 50.2039C106.037 50.1458 109.312 50.1203 112.587 50.0949C117.418 50.0586 122.249 50.044 127.079 50.0077C129.06 49.9931 131.041 49.9459 133.073 49.9132C133.16 48.9536 133.298 48.0848 133.309 47.2161C133.349 44.2501 133.353 41.2841 133.357 38.3181C133.357 34.9377 133.338 31.5574 133.335 28.177C133.335 26.2724 133.335 24.3677 133.357 22.4631C133.357 22.2813 133.498 22.0996 133.575 21.9179C133.662 22.0887 133.829 22.2595 133.829 22.4304C133.851 25.8871 133.836 29.3438 133.869 32.8005C133.898 35.7919 134.029 38.7797 134.011 41.7712C133.993 44.4682 133.844 47.1689 133.727 49.8659C133.72 50.0549 133.516 50.3312 133.342 50.3966C133.008 50.5238 132.626 50.5747 132.266 50.5747C128.253 50.5892 124.244 50.5529 120.231 50.6001C116.302 50.6474 112.377 50.811 108.447 50.8473C105.623 50.8764 102.799 50.7383 99.9746 50.7528C97.8883 50.7637 95.8056 50.9164 93.7228 50.9891C93.1122 51.0109 92.4943 50.9782 91.8836 50.9527C91.1748 50.9236 90.855 50.5929 90.8404 49.8732C90.7568 45.2279 90.6514 40.579 90.6005 35.9337C90.5642 32.288 90.5751 28.6386 90.6114 24.9929C90.6623 20.1804 90.7568 15.3716 90.8404 10.5591C90.8586 9.49772 90.9495 8.43272 90.9422 7.37136C90.9422 6.89156 91.0912 6.71346 91.5529 6.68438C92.4506 6.62986 93.3412 6.51354 94.239 6.46993C97.9319 6.28819 101.628 6.06646 105.325 5.96105C109.029 5.85564 112.733 5.87382 116.437 5.8411C120.798 5.80112 125.16 5.76114 129.522 5.73933C130.645 5.73206 131.772 5.79749 132.895 5.82656C133.407 5.8411 133.687 6.10281 133.72 6.61168C133.767 7.32411 133.833 8.04016 133.836 8.75259C133.851 11.6822 133.851 14.6119 133.836 17.5379C133.833 18.3049 133.735 19.0718 133.684 19.8424C133.589 19.846 133.491 19.8533 133.396 19.8569L133.378 19.8642Z" fill="white"/>
<path d="M60.8608 38.3509C66.7347 38.1256 72.6121 37.9511 78.4932 37.9075C78.5041 37.9911 78.515 38.0747 78.5259 38.1583C78.3151 38.2055 78.1043 38.2891 77.8934 38.2928C74.7675 38.38 71.6416 38.4563 68.5121 38.5436C66.1022 38.609 63.6923 38.6926 61.2788 38.758C61.1298 38.7616 60.9772 38.6853 60.8281 38.6453C60.839 38.5472 60.8499 38.4454 60.8608 38.3473V38.3509Z" fill="white"/>
<path d="M9.07978 38.8852C8.07294 37.8893 7.80397 36.668 7.88757 35.3376C7.99661 33.5965 8.97074 31.0195 9.59592 30.7178C9.20336 32.0481 8.70176 33.3857 8.42915 34.7706C8.15291 36.1736 8.36736 37.5803 9.07615 38.8852H9.07978Z" fill="white"/>
<path d="M12.2673 31.8264C13.2124 33.015 13.4632 37.6712 12.6017 38.8888C12.8707 36.5153 12.7944 34.16 12.2673 31.8264Z" fill="white"/>
<path d="M9.67943 37.6022C9.06879 35.6867 9.43226 33.8147 9.93023 31.9465C9.99566 31.9465 10.0611 31.9392 10.1265 31.9355C10.1374 32.0991 10.1701 32.2663 10.152 32.4299C10.0175 33.4985 9.83209 34.5599 9.74849 35.6285C9.70851 36.1447 9.8539 36.6753 9.90842 37.1987C9.92296 37.3332 9.90842 37.4714 9.90842 37.6058C9.83209 37.6058 9.75576 37.6022 9.67943 37.5986V37.6022Z" fill="white"/>
<path d="M13.8522 38.3218C14.2666 36.5698 13.9867 34.8724 13.5178 33.1567C14.4665 33.5457 14.7246 37.3622 13.8522 38.3218Z" fill="white"/>
<path d="M11.6567 38.6345C11.7258 37.0279 11.7949 35.4249 11.8639 33.8184C12.3982 35.4286 12.0638 37.0315 11.9039 38.6345C11.8203 38.6345 11.7403 38.6345 11.6567 38.6345Z" fill="white"/>
<path d="M29.9834 29.62C28.9293 32.426 28.5295 35.283 29.162 38.2272C29.0965 38.2417 29.0348 38.2599 28.9693 38.2744C28.8276 37.8564 28.6168 37.4457 28.5513 37.0168C28.166 34.4506 28.6604 32.008 29.6708 29.649C29.6817 29.6236 29.7363 29.6163 29.7726 29.5981C29.8417 29.6054 29.9144 29.6127 29.9834 29.62Z" fill="white"/>
<path d="M28.4022 31.4119C28.195 32.5532 27.9078 33.6909 27.8024 34.8432C27.7007 35.9845 27.7806 37.1404 27.7806 38.4707C27.6207 38.1908 27.4789 38.0273 27.4208 37.8383C26.9519 36.2717 27.2209 34.7269 27.6171 33.2002C27.7806 32.5751 28.006 31.968 28.2023 31.3538C28.2677 31.3756 28.3331 31.3937 28.3985 31.4156L28.4022 31.4119Z" fill="white"/>
<path d="M31.9534 38.2564C32.4259 35.7157 32.3569 33.2186 31.5063 30.696C32.6041 31.543 33.1275 36.1919 31.9534 38.2564Z" fill="white"/>
<path d="M30.0814 32.1208V37.4786C29.3908 37.0896 29.2018 33.1168 30.0814 32.1208Z" fill="white"/>
<path d="M30.8411 32.2407C31.3209 32.7532 31.4154 37.1913 30.8411 38.1V32.2407Z" fill="white"/>
<path d="M33.1748 37.9984V33.9165C33.8472 35.2577 33.7055 36.6244 33.3711 37.9948C33.3057 37.9948 33.2402 37.9948 33.1748 37.9948V37.9984Z" fill="white"/>
<path d="M19.9768 34.1382C19.726 35.6248 19.0281 37.0678 19.7188 38.6163C19.6352 38.6381 19.5516 38.6599 19.4716 38.6817C19.348 38.4018 19.1481 38.1328 19.1118 37.8421C18.9555 36.5153 19.1881 35.2613 19.9768 34.1382Z" fill="white"/>
<path d="M21.5579 38.4598C21.6015 37.4639 21.6451 36.5443 21.6887 35.5847C22.183 36.1881 22.1176 37.9146 21.5579 38.4598Z" fill="white"/>
<path d="M20.293 36.2607V38.3653C19.8204 37.9364 19.7586 36.7115 20.293 36.2607Z" fill="white"/>
</g>
<defs>
<clipPath id="clip0_69_9673">
<rect width="134" height="51" fill="white"/>
</clipPath>
</defs>
</svg>
