<svg width="63" height="71" viewBox="0 0 63 71" fill="none" xmlns="http://www.w3.org/2000/svg">
<path d="M57.1843 29.0247C56.8913 29.006 56.4705 29.1069 56.324 28.9499C55.5314 28.1088 54.3707 27.5219 54.2655 26.1761C54.2467 25.9219 54.2655 25.6602 54.2655 25.3948C53.9537 25.2041 53.6457 25.0172 53.3527 24.834C51.9402 26.9798 50.5391 29.1107 49.1417 31.2341C50.6818 31.9219 52.1806 34.7631 51.8651 36.5351C50.3851 34.6995 48.6082 34.0678 46.4483 35.1706C46.1778 35.3089 46.0538 35.7239 45.7721 36.1426C46.591 36.1014 47.1658 36.0753 47.7405 36.0454C49.2055 35.9706 50.5353 36.4267 51.82 37.0697C53.0296 37.6753 53.4729 38.7893 53.4616 39.9968C53.4503 41.1819 53.1573 42.3632 52.977 43.5445C52.9169 43.9445 52.7028 43.881 52.4211 43.7202C51.1251 42.9726 49.8141 42.4903 48.3152 43.2604C47.3611 43.7539 46.1628 43.152 45.7045 42.0529C45.4115 41.3426 45.111 40.6323 44.8067 39.9295C44.7278 39.7426 44.6076 39.5744 44.4799 39.3538C43.8263 39.8435 43.984 40.4342 44.108 40.9763C44.3672 42.1053 45.28 42.8006 45.99 43.623C46.1215 43.7763 46.268 43.9184 46.4107 44.0642C46.3994 44.1427 46.3882 44.2212 46.3769 44.3034C45.8097 44.3707 45.2349 44.5202 44.6752 44.4866C43.8037 44.4305 42.936 44.2922 42.1734 43.7614C41.9368 43.5969 41.5461 43.5632 41.2381 43.5931C39.9007 43.7314 39.4725 42.7819 39.2359 41.9296C39.1344 41.5669 39.0368 41.2006 38.9579 40.9165C33.9242 42.0492 28.9018 41.8772 23.9433 41.7688C23.6164 42.337 23.2746 42.9688 22.899 43.5744C22.5158 44.1913 22.1364 44.7745 22.3618 45.5782C22.5308 46.1801 22.219 46.6997 21.8133 47.1521C21.2536 47.7764 20.7202 48.4231 20.1417 49.025C20.0365 49.1334 19.7022 49.1708 19.567 49.0885C18.7518 48.5839 18.1583 47.9408 18.4663 46.8717C18.4889 46.7969 18.4663 46.7072 18.3273 46.6063C18.271 46.9988 18.2184 47.3913 18.1545 47.8362C17.3694 47.7838 17.099 47.0997 16.7045 46.6175C16.2801 46.0978 16.1223 45.481 16.3777 44.8081C16.6106 44.2025 16.8247 43.5894 17.0501 42.98C16.99 42.9539 16.9337 42.9277 16.8736 42.9015C16.6745 43.3277 16.4829 43.7614 16.2688 44.1838C16.1899 44.3371 16.0584 44.4604 15.9495 44.595C15.818 44.4679 15.6339 44.3632 15.5701 44.21C15.4874 44.023 15.4687 43.7913 15.4837 43.5857C15.5588 42.595 15.6565 41.6043 15.7466 40.5837C15.2621 40.4492 14.7512 40.3071 14.1576 40.1389C14.0074 40.651 13.8421 41.2155 13.6806 41.7763C12.8579 44.5913 11.9676 47.3838 10.311 49.8474C9.90908 50.4418 9.39444 50.9876 8.84224 51.4512C7.6552 52.4493 7.43357 53.126 7.95572 54.6026C8.6732 56.64 9.45079 58.6588 10.0669 60.7261C10.4387 61.9709 10.5702 63.2869 10.7806 64.5766C11.145 66.8233 12.5499 68.1393 14.6836 68.5879C16.8698 69.0477 19.0937 69.3916 21.3175 69.601C23.6127 69.814 25.9342 69.9561 28.2331 69.8477C31.475 69.6982 34.7544 69.5598 37.7746 68.1131C37.7934 68.1056 37.8159 68.1019 37.8347 68.0944C39.8895 67.4103 40.8248 65.9374 41.069 63.8364C41.3094 61.7766 41.6513 59.7167 42.1171 57.698C42.3763 56.5653 42.9961 55.5185 43.4206 54.4232C43.6121 53.926 43.7173 53.3989 43.7924 52.868C41.0765 54.9652 37.861 55.612 34.6943 56.3298C32.23 56.8905 29.7132 57.0924 27.1851 56.984C26.0431 56.9354 24.9087 56.8232 23.7667 56.7335C23.6578 56.726 23.5526 56.6625 23.4587 56.5204C24.5142 56.5204 25.5736 56.4643 26.6254 56.5316C28.8755 56.6774 31.0956 56.4643 33.3194 56.1503C35.5395 55.8363 37.6995 55.2942 39.7843 54.5092C40.9488 54.0718 42.0081 53.3353 43.0862 52.6886C43.6347 52.3596 43.661 51.8736 43.3605 51.3016C42.6542 49.9371 41.9368 48.5726 41.3357 47.1595C41.0014 46.367 40.8887 45.4773 40.6896 44.6287C40.6708 44.5539 40.7685 44.453 40.8549 44.2735C40.9413 44.4866 41.0164 44.61 41.0427 44.7408C41.501 46.9016 42.3575 48.8867 43.6159 50.7072C44.4649 51.9297 44.6715 53.3054 43.984 54.6101C42.6918 57.0587 42.35 59.7391 41.8203 62.3784C41.5761 63.5934 41.3169 64.8046 41.0803 66.0233C40.9413 66.7486 40.5281 67.2719 39.9346 67.672C37.8046 69.115 35.4381 69.9411 32.8799 70.158C30.6861 70.3411 28.4886 70.5019 26.2911 70.5318C22.9403 70.5767 19.6158 70.229 16.3214 69.5972C15.7504 69.4888 15.1757 69.3953 14.6047 69.2869C11.8775 68.771 10.5251 66.7972 10.1946 64.3186C9.79263 61.2906 8.76336 58.4681 7.71906 55.6381C7.61388 55.3578 7.48991 55.0849 7.38473 54.8045C6.71984 53.0549 6.98279 52.0979 8.50416 51.0101C9.82644 50.0642 10.45 48.6997 11.1713 47.2979C12.4184 44.8754 12.9668 42.2511 13.8196 39.7164C13.8722 39.5594 13.9736 39.4136 14.0525 39.2678C12.7978 37.851 11.5356 37.3538 10.589 37.8996C11.5394 38.9725 11.453 40.3781 10.4312 41.451C10.0255 41.8772 9.6574 42.3744 9.40947 42.9053C8.89108 44.0081 8.22618 44.9202 6.9903 45.2903C6.93396 45.3053 6.89639 45.3726 6.84756 45.4137C6.0324 46.1315 5.21725 46.8418 3.9964 46.453C2.95585 47.1221 1.19407 46.6212 0.833447 48.3969C0.829691 48.4231 0.762074 48.4343 0.72451 48.453C-0.128209 47.6605 -0.229634 46.7334 0.427748 45.8025C0.499121 45.7016 0.578007 45.5632 0.559225 45.4548C0.356376 44.2922 1.43073 43.5782 1.58474 42.5464C2.56142 42.0417 2.77179 41.1109 3.02723 40.1613C3.12114 39.8136 3.53435 39.5445 3.81984 39.2566C4.4359 38.6398 5.04821 38.0192 5.69432 37.4323C6.27657 36.9014 6.87385 36.3669 7.52372 35.9257C7.74911 35.7725 8.25999 35.7575 8.45157 35.9145C8.63939 36.0678 8.64691 36.5201 8.61685 36.8304C8.58305 37.1744 8.41401 37.5071 8.25999 37.9818C8.85727 37.4958 9.36815 37.0884 9.86776 36.6734C10.5665 36.094 11.3854 35.9444 12.1517 36.3631C13.4665 37.0772 14.7136 37.9145 15.9833 38.7071C16.22 38.8529 16.4566 39.0174 16.6407 39.223C16.8623 39.4734 17.0314 39.4847 17.3469 39.3463C18.1508 38.9875 18.6429 39.1706 19.1763 39.9295C19.5031 39.5108 19.8262 39.0996 20.1605 38.6697C19.706 37.3987 19.2777 36.1014 18.7744 34.8379C18.4964 34.1351 18.3499 33.3425 17.6361 32.8565C17.4972 32.7631 17.5648 32.4042 17.4821 32.1911C17.3469 31.8397 17.1703 31.5032 17.0201 31.178C16.3928 31.8846 15.803 32.5462 15.2132 33.2079C15.1456 33.1818 15.0817 33.1593 15.0141 33.1332C15.0554 32.2621 14.8225 31.5967 13.8008 31.4098C13.9924 31.821 14.1764 32.15 14.3004 32.5014C14.5633 33.2378 14.3304 33.8435 13.6468 34.2435C13.042 34.5986 12.3508 34.8491 12.1968 35.679C12.1742 35.7986 11.9 35.8734 11.8023 35.937C11.299 35.5033 10.8783 35.0584 10.3862 34.7332C8.54173 33.5107 9.10144 31.8434 10.1908 30.707C10.4387 30.449 10.7317 30.2322 10.9346 29.9443C8.87981 30.0864 8.78214 31.6789 8.68071 33.4136C8.00831 32.5126 7.396 31.8808 7.30585 30.9088C7.17813 29.5331 7.78667 28.6097 8.91362 27.9331C9.04134 27.8546 9.23292 27.7238 9.23667 27.6153C9.2517 26.6247 9.92411 26.1536 10.7092 25.862C11.7235 25.4882 12.7753 25.2228 13.8759 24.8901C13.9586 24.4938 14.1351 23.9555 14.1614 23.4134C14.1802 23.0396 14.1051 22.5424 13.8646 22.2994C12.9293 21.3424 13.2974 20.1274 14.1051 19.3349C15.0329 18.4227 16.1448 18.3629 17.114 19.1629C17.1478 19.1891 17.1779 19.219 17.2079 19.2489C18.5452 20.6022 18.3236 20.2807 19.5031 19.0283C19.2364 18.5461 18.9697 18.0601 18.6767 17.5255C17.1365 17.847 15.5738 17.8208 14.0525 17.3348C13.5303 17.1703 13.0495 16.8601 12.5687 16.5834C12.4297 16.5049 12.3545 16.3105 12.2531 16.1685C12.4071 16.0638 12.5461 15.9068 12.7152 15.8619C13.3575 15.6937 14.0187 15.5927 14.6535 15.4058C15.1531 15.2563 15.6264 15.0133 16.2162 14.7703C15.4536 14.2245 14.7887 14.4339 14.1276 14.561C13.0157 14.7703 11.9038 15.118 10.7843 15.1404C9.09768 15.1778 7.65896 14.4189 6.48694 13.2264C5.8258 12.5572 5.79575 11.6862 5.81453 10.8039C7.53124 10.9048 9.07139 11.7497 10.7656 11.5067C9.8039 10.916 8.72579 10.7329 7.64017 10.6469C6.9302 10.5908 6.21271 10.6357 5.49898 10.6431C4.68007 10.6544 4.26686 10.2955 4.20676 9.4693C4.15417 8.74032 4.12787 8.01133 4.08655 7.28609C4.03396 6.38888 3.70715 5.66364 2.82062 5.28606C2.68539 5.22625 2.55767 5.14027 2.42619 5.0655C3.51557 4.02997 5.81077 4.00007 6.90015 4.81503C7.50494 5.26737 8.18862 5.66364 8.89859 5.91037C9.84146 6.23935 10.6566 6.68795 11.3178 7.43563C11.4868 7.62628 11.6896 7.80199 11.915 7.92161C12.9781 8.48237 13.936 9.14032 14.3342 10.3628C14.7399 10.0375 14.8376 9.68986 14.6573 9.18144C14.3304 8.25807 13.6054 7.75339 12.7339 7.40572C12.5161 7.31974 12.3095 7.19637 12.1216 7.01693C13.4965 6.67674 14.8526 6.65805 16.2049 6.91973C16.7534 7.02441 17.0314 7.36834 17.5084 8.30293C18.4137 7.97769 19.1988 8.29171 19.9652 8.79265C20.3333 9.03565 20.7766 9.16649 21.1823 9.34967C21.5917 9.53285 22.0275 9.67491 22.4069 9.90669C23.4286 10.5422 23.3723 11.5703 22.2679 12.0749C21.7307 12.3217 21.1184 12.3964 20.5512 12.5759C19.7736 12.8226 19.0035 13.0955 18.256 13.4357C20.6 14.232 21.186 15.4058 19.9426 16.9012C20.1605 17.3274 20.3859 17.7573 20.6113 18.1947C22.3843 18.389 24.4842 20.8863 23.6089 23.2265C23.3798 23.8396 23.515 24.3368 23.7329 24.8676C24.4541 26.6284 25.2468 28.363 25.8929 30.15C26.7794 32.6098 27.0649 35.1893 27.2001 37.7837C27.264 38.9837 27.3091 40.1875 27.3616 41.4398H29.2474C29.7395 39.765 30.2429 38.0416 30.75 36.322C30.7162 36.2734 30.6824 36.2285 30.6523 36.1799C30.1602 36.737 29.8334 36.5127 29.4728 36.094C29.1648 35.7388 28.6989 35.5183 28.4172 35.1519C28.1806 34.8416 27.9176 34.3481 28.004 34.0341C28.1693 33.4509 27.9664 32.9986 27.8012 32.5126C27.6847 32.1687 27.5081 31.8472 27.3504 31.5182C26.9672 30.7369 26.8395 29.9668 27.4593 29.249C26.5277 28.1312 26.6404 25.4508 27.9965 23.9816C28.1505 23.8134 28.2745 23.6078 28.3684 23.4022C28.8079 22.4153 29.5404 22.1012 30.5734 22.4713C31.4787 22.7928 32.0535 23.477 32.5756 24.2994C33.4171 23.376 34.2848 22.4078 35.6935 23.0358C37.5717 23.8732 37.3276 25.5443 37.275 27.1705C37.4365 26.6135 37.6018 26.0602 37.752 25.4994C38.1465 24.0153 38.5296 22.5274 38.9278 21.0396C39.0631 20.5386 38.9691 20.161 38.5597 19.7835C38.154 19.4096 37.8234 18.9423 37.5304 18.4713C36.9106 17.4769 36.8618 16.4114 37.5304 15.4432C38.2141 14.46 39.0142 13.5553 39.7805 12.6282C40.19 12.1348 40.6333 11.6675 41.0577 11.1889C41.0352 11.1142 41.0127 11.0394 40.9901 10.9684C40.5769 11.0207 40.1149 10.9684 39.7618 11.1403C37.7596 12.1086 36.4899 13.5254 36.5087 15.8806C36.5087 16.1909 36.4485 16.5049 36.4147 16.8152C36.3321 16.8301 36.2495 16.8414 36.1706 16.8563C35.8212 16.2357 35.4794 15.6114 35.1225 14.9946C34.6191 14.1198 34.236 13.1852 34.4539 12.1759C34.8483 10.3441 35.2803 8.51601 35.8137 6.71786C36.0654 5.86551 37.0646 5.57392 38.0601 5.92532C38.4583 6.06738 38.8677 6.26178 39.1908 6.5272C39.8707 7.0917 40.5206 7.69731 41.1329 8.3291C41.7226 8.93845 42.2485 9.60762 42.8158 10.2656C42.8684 10.0039 42.966 9.66743 42.9998 9.32724C43.1163 8.11601 43.845 7.60011 45.002 8.0076C45.5355 8.19452 46.0163 8.53097 46.5835 8.83004C46.8615 7.61133 47.2296 6.40757 47.3724 5.17765C47.4362 4.62811 47.1019 3.99633 46.8427 3.45052C46.3469 2.41126 46.4408 1.50657 47.2259 0.676655C47.9659 -0.108402 48.7134 0.00748725 49.1116 1.02059C49.3069 1.51031 49.3445 2.05985 49.5023 2.56827C49.5962 2.87108 49.7953 3.14024 50.0207 3.56641C50.4151 2.73276 50.7194 2.07481 51.0349 1.42433C51.1852 1.11404 51.3317 0.800021 51.5233 0.519644C51.9778 -0.149524 52.5863 -0.160739 53.1348 0.418708C53.7095 1.02806 54.3181 1.60377 54.9116 2.19443C55.7606 3.04304 56.5494 3.95147 56.4818 5.2412C56.4518 5.82813 56.2038 6.4001 56.0986 6.99076C56.0573 7.23375 56.0461 7.56273 56.1738 7.74217C57.2594 9.27864 57.0716 10.7964 56.1738 12.3217C56.0423 12.5422 55.9146 12.7665 55.7681 12.9796C55.3023 13.6451 54.9379 14.2955 55.0844 15.1927C55.1558 15.6301 54.9003 16.1423 54.7238 16.5946C54.5059 17.1479 54.2091 17.6713 53.965 18.176C53.1836 17.7161 52.3572 17.29 51.6022 16.7666C50.9485 16.318 50.7945 15.4843 51.1514 14.5535C51.3092 14.1385 51.249 13.8581 50.9147 13.6264C49.5098 12.6507 49.2205 11.3759 49.7389 9.7908C50.0056 8.97583 50.1033 8.10479 50.2348 7.25618C50.2836 6.93842 50.2085 6.60571 50.1146 6.27299C49.1905 7.31226 49.5549 8.66929 49.1792 9.98519C48.3603 9.09172 48.5218 8.08236 48.2702 7.12908C48.0147 8.05246 47.7443 8.9721 47.5151 9.90295C47.4851 10.0301 47.6165 10.217 47.7104 10.3478C48.6834 11.6749 49.2506 13.1703 49.4572 14.7853C49.5812 15.7759 49.4196 16.7516 48.8449 17.6937C50.0019 18.7666 50.077 20.019 49.2656 21.4358C50.1634 22.1685 49.938 23.0209 49.5211 23.9517C49.1304 24.8265 48.8825 25.7648 48.5444 26.6658C48.4617 26.8864 48.2702 27.0695 48.1274 27.2677C47.9659 27.1107 47.7668 26.9798 47.6541 26.7966C47.1996 26.0452 46.5234 25.6564 45.6857 25.462C44.6827 25.2303 43.7248 24.9088 43.2703 23.634C43.1013 23.9517 42.9623 24.1387 42.8984 24.3443C42.2786 26.3406 41.7001 28.3518 41.0502 30.3369C40.5131 31.978 39.897 33.593 39.3072 35.2341C39.5476 35.2005 39.8181 35.208 40.0435 35.1145C40.1975 35.051 40.3966 34.8491 40.3966 34.707C40.3703 32.0902 41.2343 31.7201 43.661 30.763C43.9991 30.6285 44.3935 30.6359 44.7654 30.5761C44.7842 30.6397 44.8029 30.707 44.8217 30.7705C44.5625 31.1331 44.3033 31.4995 44.0441 31.8621C44.848 31.2378 45.682 31.0023 46.6661 31.2416C46.8615 31.2902 47.1808 31.1631 47.331 31.0098C49.3445 28.9537 51.0086 26.6321 52.406 24.1312C52.6277 23.7349 52.4511 23.1143 52.4436 22.5947C52.4361 22.2097 52.3572 21.8209 52.3797 21.4396C52.4774 19.9106 53.2851 19.1554 54.8214 19.118C55.0581 19.1106 55.2948 19.118 55.5427 19.118C55.6028 18.9909 55.6779 18.8825 55.7117 18.7629C56.1663 17.1404 58.1985 17.3274 58.9686 18.1685C59.3217 18.5535 59.8063 18.819 60.1519 19.2115C61.2676 20.4751 62.3832 21.7685 62.0489 23.6377C61.8949 24.4938 61.6094 25.3275 61.4178 26.1798C61.3802 26.3406 61.4591 26.5723 61.5643 26.7144C62.0489 27.3723 62.3795 28.0677 62.263 28.9163C62.1654 29.6378 61.8761 30.1724 61.1511 30.5051C60.7229 30.6995 60.3359 31.0883 60.0505 31.4771C59.7462 31.892 59.5058 31.8397 59.1414 31.6117C58.7958 31.3986 58.4277 31.2154 58.0483 31.0659C56.8575 30.5948 56.6771 30.1761 57.1993 29.0023C57.3308 28.7107 57.436 28.4041 57.6012 28.1312C58.0257 27.4434 57.9806 26.6957 57.8792 25.9592C57.8529 25.7761 57.5862 25.6265 57.4322 25.462C57.2932 25.6564 57.0265 25.8546 57.034 26.049C57.0566 27.0396 57.1467 28.0266 57.2143 29.0172L57.1843 29.0247ZM50.2498 3.89539C50.0319 3.86175 49.7089 3.90287 49.6225 3.7795C49.3483 3.38697 49.1266 2.94958 48.9576 2.50098C48.7848 2.0449 48.7435 1.54022 48.5669 1.08788C48.3904 0.624318 48.0523 0.564504 47.6503 0.889742C46.9855 1.42807 46.7525 2.37761 47.1094 3.13276C47.8832 4.76643 48.8299 6.34402 48.8487 8.23938C48.9614 7.78329 49.0102 7.33843 49.1266 6.90478C49.3257 6.1571 49.7803 5.68233 50.1409 5.85803C50.7344 6.14963 50.6893 6.7515 50.6104 7.27114C50.4452 8.38517 50.1897 9.48799 50.0207 10.602C49.9305 11.2076 49.7915 11.8506 50.2761 12.3815C50.6518 12.789 51.0424 13.1815 51.4744 13.6301C51.7637 12.7404 51.7599 12.0189 51.2904 11.3048C51.0762 10.9796 50.9673 10.5646 50.9072 10.1721C50.8358 9.72725 51.0537 9.29733 51.512 9.25621C51.959 9.21509 52.1806 9.6151 52.1957 10.0338C52.222 10.8712 52.2558 11.7161 52.1957 12.5497C52.1431 13.2824 52.1957 14.0413 51.5383 14.6507C51.0725 15.0881 51.4294 16.2582 52.0454 16.6096C52.5939 16.9236 53.1611 17.2002 53.7433 17.5031C53.9312 17.1217 54.104 16.733 54.3106 16.3591C54.8365 15.4021 54.7576 14.5161 54.0589 13.6787C53.8673 13.4469 53.672 13.2114 53.5255 12.9497C53.4466 12.8114 53.4766 12.6133 53.4579 12.4413C53.6494 12.4263 53.8898 12.3292 54.0251 12.4114C54.3857 12.6245 54.705 12.9123 55.0769 13.2002C55.4112 12.6394 55.7906 12.1123 56.0498 11.5329C56.433 10.6805 56.6884 9.76089 56.1775 8.88237C55.8169 8.25807 55.4075 7.61507 54.8703 7.15151C54.1603 6.54216 53.2963 6.11598 52.5187 5.58513C52.3459 5.46924 52.1281 5.22625 52.1468 5.0655C52.222 4.36269 53.1761 3.78698 53.8297 4.11595C54.3406 4.3739 54.7651 4.82624 55.1746 5.24494C55.4112 5.48794 55.5314 5.84308 55.7042 6.14589C55.7718 6.13467 55.8395 6.12346 55.9108 6.10851C55.8808 5.5328 56.016 4.88232 55.7869 4.40381C55.43 3.67109 54.8515 3.03557 54.3143 2.40752C53.9124 1.93649 53.3865 1.57013 52.977 1.10283C52.2933 0.325249 52.0905 0.328987 51.5909 1.27479C51.1326 2.14583 50.6931 3.02809 50.2461 3.90287L50.2573 3.89165L50.2498 3.89539ZM35.9752 15.5591C36.133 13.4282 37.2449 12.0114 38.9165 11.0207C39.4274 10.7179 40.0773 10.5572 40.6746 10.5123C41.3583 10.4562 41.6362 10.9534 41.2493 11.5142C40.7647 12.217 40.1599 12.8413 39.6228 13.5105C39.033 14.2432 38.4207 14.9684 37.8873 15.7423C37.4628 16.3554 37.4064 17.0694 37.6919 17.7722C38.0713 18.7031 38.7175 19.4283 39.5777 20.1274C39.5627 18.6433 39.8782 17.3124 40.5356 16.1086C40.8812 15.4769 41.4371 14.9273 41.9931 14.4525C42.211 14.2656 42.7744 14.2544 43.0412 14.4077C43.4769 14.6582 43.1764 15.0918 43.0186 15.432C42.9209 15.6451 42.7782 15.8395 42.6768 16.0526C42.1546 17.1516 41.5836 18.2358 41.1441 19.3685C40.9526 19.8582 40.8136 20.561 41.0314 20.9685C41.4409 21.7349 42.1246 22.3555 42.6918 23.0358C42.7444 23.0097 42.797 22.9798 42.8496 22.9536C42.8496 22.4227 42.7782 21.8844 42.8646 21.3685C42.9961 20.5984 43.1914 19.8283 43.4506 19.0881C43.5971 18.6732 43.9765 18.3255 44.4686 18.5199C44.9382 18.7068 44.9757 19.1479 44.8555 19.6152C44.555 20.7741 44.2658 21.933 43.9915 23.0957C43.8075 23.8695 43.9652 24.191 44.664 24.5387C44.8743 24.6433 45.0959 24.7368 45.3251 24.7891C46.3581 25.0284 47.3423 25.3424 47.9696 26.3181C48.4016 25.2452 48.7848 24.2508 49.2055 23.2714C49.4196 22.7742 49.3595 22.3592 48.9876 21.9779C48.4768 21.4545 47.9095 20.9685 47.4663 20.3928C46.9366 19.7012 46.5009 18.9386 46.0614 18.1872C45.9975 18.075 46.0726 17.7797 46.1816 17.6974C46.2943 17.6115 46.5422 17.6414 46.7 17.7012C46.8728 17.7685 47.0193 17.918 47.1507 18.0563C47.8307 18.7666 48.4993 19.4844 49.1717 20.1984C49.2018 19.7573 49.1943 19.2713 48.9801 18.9124C48.4693 18.0638 47.8231 17.3274 46.9253 16.8152C46.1966 16.4002 45.9261 15.6899 46.0726 14.8862C46.129 14.5684 46.3731 14.0712 46.5835 14.0413C46.8765 14.0002 47.301 14.2544 47.5226 14.5086C47.9959 15.0469 48.3716 15.6713 48.8599 16.3591C48.8937 16.0526 48.9313 15.8507 48.9351 15.6451C48.9839 13.5217 48.1612 11.7048 46.8127 10.1347C46.268 9.49921 45.5655 8.95714 44.8443 8.52723C44.2432 8.16835 43.5746 8.42255 43.522 8.93845C43.4356 9.80201 43.3041 10.7217 43.5145 11.5366C44.0441 13.5927 44.7579 15.6002 45.3852 17.6339C45.5805 18.2657 45.727 18.9087 45.8961 19.5479C45.8059 19.5741 45.7195 19.6003 45.6294 19.6264C45.3138 18.647 45.002 17.6713 44.6827 16.6918C44.3334 15.6227 44.0028 14.546 43.6159 13.488C43.229 12.4338 42.9961 11.3609 42.2598 10.3889C41.2005 8.99453 39.9007 7.89918 38.6273 6.75524C38.4395 6.58702 38.1878 6.4786 37.9474 6.38888C36.9331 6.01131 36.257 6.32533 35.9752 7.36834C35.6371 8.62443 35.423 9.9179 35.0399 11.159C34.5515 12.7441 34.9685 14.1049 35.964 15.5479L35.9752 15.5591ZM38.9165 40.0716C38.9842 40.0454 39.0555 40.023 39.1232 39.9968C39.157 39.7875 39.1495 39.5632 39.2283 39.3725C39.4425 38.8678 39.6829 38.3781 39.9421 37.8959C39.9759 37.8323 40.19 37.8697 40.3177 37.8585C40.3102 37.9519 40.3365 38.0716 40.2839 38.1314C39.3598 39.2118 39.465 40.5015 39.6453 41.7426C39.7768 42.6585 40.1938 43.2828 41.3395 43.1782C41.7151 43.1445 42.1171 43.3576 42.504 43.466C43.3417 43.7015 44.1719 43.952 45.0133 44.1651C45.1636 44.2025 45.3514 44.0903 45.588 44.0343C45.1636 43.567 44.7541 43.2006 44.4573 42.7632C44.1005 42.2361 43.7323 41.6753 43.5783 41.0735C43.4506 40.5688 43.5483 39.9706 43.691 39.4548C43.7549 39.2267 44.1719 38.9725 44.4348 38.9688C44.6377 38.965 44.9344 39.2828 45.0471 39.5258C45.389 40.2585 45.6782 41.0211 45.9637 41.78C46.2867 42.6361 47.2446 43.2492 47.9208 42.909C48.8937 42.4193 49.8366 42.2174 50.8884 42.6324C51.4143 42.838 51.9816 42.9426 52.5788 43.1034C52.7141 42.3258 52.9357 41.5333 52.977 40.7295C53.0484 39.3837 52.8718 38.0716 51.4444 37.4024C49.9906 36.7183 48.488 36.2323 46.8314 36.5575C46.5196 36.6173 46.1853 36.5986 45.8623 36.5837C45.5204 36.565 45.3439 36.4491 45.3814 36.0192C45.4415 35.3313 45.7871 34.9164 46.3731 34.6323C47.2409 34.2136 48.165 34.1164 49.0778 34.3481C49.8404 34.5425 50.5654 34.8827 51.4594 35.2154C50.8471 34.15 50.325 33.1444 49.7014 32.2061C49.5399 31.9668 49.074 31.8434 48.736 31.821C47.9246 31.7649 47.0944 31.892 46.298 31.7761C45.3927 31.6416 44.7541 31.9145 44.2057 32.5911C44.0779 32.7481 43.8413 32.8229 43.6572 32.9313C43.5671 32.6808 43.398 32.4304 43.4093 32.1836C43.4206 31.892 43.5821 31.6079 43.7323 31.1705C42.9886 31.5556 42.3687 31.8472 41.7827 32.1874C40.9713 32.6584 40.9075 33.5107 40.776 34.3108C40.6633 35.0136 41.1855 35.264 41.7001 35.5145C41.794 35.5594 41.8842 35.6304 41.9593 35.7052C43.5333 37.2603 45.5129 37.9332 47.6241 38.4155C49.2431 38.7856 50.6968 39.537 51.6247 41.0174C51.805 41.3052 51.9402 41.623 52.0942 41.9258C52.0454 41.9557 51.9966 41.9856 51.9515 42.0155C51.8689 41.9595 51.7487 41.9221 51.7148 41.8436C50.8171 39.952 49.1229 39.1669 47.2221 38.7594C45.0772 38.2996 43.1276 37.5183 41.501 35.993C41.2005 35.7126 40.652 35.5669 40.2276 35.5818C39.7092 35.6005 39.1795 35.8098 38.6912 36.0192C37.8422 36.3781 37.4628 37.1631 37.8009 38.023C38.0864 38.7445 38.5371 39.3987 38.9128 40.0828L38.9165 40.0716ZM3.45922 4.92718C4.23681 5.57766 4.58616 6.33281 4.62748 7.23375C4.65378 7.83189 4.6951 8.43377 4.71013 9.03191C4.73266 9.98893 4.94678 10.2319 5.88966 10.2095C7.40352 10.1796 8.90235 10.2656 10.3448 10.7628C10.7242 10.8936 11.329 11.0058 11.2088 11.5366C11.0811 12.0936 10.4726 11.9964 10.0105 12.0151C9.98797 12.0151 9.96918 12.0077 9.94665 12.0039C8.89859 11.7759 7.85429 11.5441 6.80624 11.3198C6.64846 11.2861 6.48318 11.2861 6.10002 11.2488C6.34795 11.8656 6.42308 12.4525 6.75365 12.8002C8.06465 14.1796 9.74004 14.8002 11.6333 14.6881C12.4334 14.6395 13.2148 14.303 14.0149 14.1871C14.6573 14.0937 15.3372 14.0338 15.972 14.1385C16.6031 14.2432 16.7121 14.8002 16.1674 15.1367C15.5438 15.5217 14.8225 15.7647 14.1276 16.0301C13.7858 16.161 13.4101 16.1946 12.8542 16.318C13.3087 16.5386 13.5604 16.703 13.8421 16.789C15.371 17.2638 16.9224 17.3722 18.4851 16.9797C19.4655 16.7329 20.0478 16.1647 20.044 15.4993C20.0403 14.9011 19.4167 14.3628 18.4701 14.1049C18.1733 14.0226 17.8841 13.903 17.6061 13.7684C16.3965 13.1815 15.2433 12.4002 13.9736 12.0301C11.8136 11.402 10.2096 10.0861 8.82722 8.44872C7.92566 7.37955 6.9903 6.40757 5.69056 5.83187C5.53279 5.76084 5.40132 5.64121 5.1609 5.48046C5.36375 5.46551 5.43137 5.44681 5.49147 5.45803C5.5929 5.48046 5.69432 5.52158 5.79199 5.55149C7.13681 5.98888 8.11724 6.88982 8.95869 7.98517C10.0744 9.43939 11.4267 10.6955 13.1434 11.3235C14.5784 11.8469 15.9871 12.374 17.2868 13.174C17.422 13.2563 17.7075 13.3086 17.7977 13.2301C18.7067 12.4488 19.86 12.3254 20.9494 12.0263C21.34 11.9179 21.7495 11.8432 22.1176 11.6824C22.8464 11.3609 22.929 10.8712 22.328 10.3702C22.0575 10.1422 21.7119 10.0001 21.3851 9.84314C20.6939 9.51416 19.999 9.18144 19.2927 8.88611C18.872 8.71041 18.4175 8.60574 17.9817 8.46742C18.0268 8.85247 18.1282 9.05808 18.2297 9.27116C18.6016 10.0525 18.4851 10.6095 17.7826 11.103C17.6136 11.2226 17.3056 11.3048 17.1478 11.2301C16.9938 11.1553 16.8548 10.8488 16.8698 10.6581C16.8999 10.217 17.0088 9.77584 17.1178 9.34219C17.3394 8.46368 16.8022 7.45058 15.9232 7.29731C15.108 7.15525 14.2741 7.14403 13.2711 7.05805C13.7745 7.49918 14.1389 7.78329 14.4619 8.11227C14.9728 8.6319 15.2207 9.2749 15.0705 9.99267C15.0216 10.2319 14.7549 10.5198 14.5258 10.5983C14.3643 10.6506 13.9811 10.4413 13.8947 10.2544C13.504 9.43939 12.8842 8.90107 12.0991 8.49358C11.7235 8.29919 11.3403 8.06367 11.051 7.76086C10.4124 7.0917 9.69121 6.61692 8.79717 6.33281C8.19237 6.14215 7.52372 5.91785 7.08421 5.49915C6.01738 4.47858 4.87541 4.42998 3.46673 4.93092L3.45922 4.92718ZM27.4518 28.0677C28.0115 27.6452 28.5149 27.1854 29.0971 26.8677C29.3188 26.7443 29.8447 26.8265 29.9949 27.0097C30.1339 27.178 30.0701 27.6976 29.901 27.8995C29.578 28.2808 29.1497 28.5985 28.7065 28.8453C27.5532 29.492 27.3053 30.1462 27.8425 31.3275C27.9664 31.6004 28.0979 31.8659 28.2369 32.1537C28.3421 32.0266 28.421 31.9032 28.5224 31.8061C28.8868 31.4472 29.747 31.3986 29.9912 31.7425C30.4006 32.3182 29.8672 32.4864 29.5442 32.7892C29.176 33.1332 28.8379 33.5294 28.5863 33.9631C28.4923 34.1238 28.59 34.5313 28.744 34.6809C29.1648 35.0958 29.6644 35.436 30.1227 35.8024C30.6598 35.5033 31.3172 35.3351 31.6328 34.9164C32.1662 34.2061 32.493 33.3575 32.2901 32.3855C32.1812 31.8696 32.23 31.3201 32.2601 30.7855C32.2676 30.6359 32.4404 30.4341 32.5869 30.3743C32.6846 30.3331 32.9325 30.4677 33.0039 30.5873C33.2443 30.9874 33.5636 31.3986 33.6124 31.8322C33.6951 32.5724 33.5936 33.335 33.5673 34.2323C34.2623 33.35 34.9309 32.5014 35.5958 31.6453C35.855 31.3126 35.7987 30.9836 35.562 30.6546C35.1037 30.0079 34.6492 29.3574 34.2172 28.692C34.112 28.5312 33.9956 28.2546 34.0669 28.135C34.1609 27.9705 34.4576 27.7873 34.6191 27.821C34.9723 27.8995 35.3704 28.0415 35.6033 28.292C35.855 28.5611 35.9377 28.9836 36.133 29.4285C36.2457 29.021 36.3697 28.6883 36.4298 28.3406C36.6401 27.1406 36.9632 25.9405 36.6213 24.7181C36.3283 23.6676 35.1601 23.0171 34.3337 23.4882C33.3607 24.0452 32.6695 24.7779 32.5719 26.0564C32.4667 27.4247 32.0685 28.7742 31.7755 30.1275C31.7342 30.3182 31.5651 30.4827 31.4562 30.6621C31.3999 30.6397 31.3435 30.6135 31.2872 30.5911C31.321 30.3481 31.351 30.1051 31.3923 29.8621C31.6252 28.5163 31.8619 27.1742 32.091 25.8284C32.1399 25.5368 32.2826 25.1891 32.1812 24.9536C31.783 24.019 31.1594 23.2564 30.1489 22.9199C29.5592 22.7218 29.1572 23.0134 28.8717 23.5144C28.6276 23.9405 28.4135 24.3817 28.128 24.7779C27.3879 25.8022 27.3015 26.935 27.4556 28.0677H27.4518ZM22.2566 24.9574C23.4098 27.5032 24.503 30.0752 24.9613 32.8677C25.4233 35.6566 25.4984 38.4342 24.9199 41.2305C24.7171 41.051 24.6119 40.8566 24.6157 40.6585C24.6344 38.7744 24.7359 36.8865 24.6833 35.0024C24.5969 31.7537 23.4587 28.7742 22.1927 25.9293C20.431 27.4471 19.9426 29.664 19.1162 31.6378C20.1041 33.8397 21.0959 36.0603 22.0988 38.2734C22.2829 38.6772 22.512 39.0622 22.7337 39.451C23.0079 39.9295 23.2859 40.408 23.5789 40.8753C23.6728 41.0211 23.8043 41.2305 23.9433 41.2492C24.826 41.3725 25.7126 41.451 26.5841 41.5408C26.9597 35.436 25.8854 29.7612 23.0154 24.5349C22.8351 24.6359 22.5684 24.7817 22.2528 24.9574H22.2566ZM18.0644 30.0752C17.5159 29.5892 17.1553 29.0247 17.1591 28.292C17.1666 26.606 17.7676 25.0471 18.2334 23.462C18.7405 21.7386 17.8052 19.6713 16.126 19.1367C15.7804 19.0246 15.2921 19.0582 14.9766 19.2264C13.519 20.004 13.4064 21.204 14.6347 22.3592C15.0705 21.9966 15.4123 21.4732 16.1561 21.5667C14.9653 22.2396 14.5859 23.3237 14.3906 24.5536C14.1952 25.791 14.4018 26.9013 15.2207 28.0639C15.2207 27.4845 15.1869 27.077 15.2282 26.677C15.2771 26.2359 15.3222 25.7648 15.5137 25.3761C15.6339 25.1331 16.0509 24.8303 16.265 24.8751C16.6745 24.9611 16.697 25.3798 16.5918 25.7761C16.3589 26.6396 16.1486 27.5069 15.9269 28.3742C15.7692 28.9911 15.9382 29.477 16.389 29.9481C16.9675 30.5574 17.4633 31.2416 18.0043 31.9032C19.4543 30.864 19.7924 29.7761 18.8532 28.0864C18.6917 27.7948 18.688 27.3985 18.6917 27.0508C18.6917 26.9125 18.8946 26.677 19.0185 26.6658C19.1613 26.6583 19.3791 26.8191 19.4543 26.9649C19.6459 27.3424 19.7736 27.7499 19.9313 28.1537C20.3784 27.5518 20.8066 26.9611 21.2499 26.3817C22.1664 25.1779 21.9711 23.7349 20.7878 22.8003C20.6188 22.6657 20.4009 22.3181 20.4535 22.2433C20.6113 22.0227 20.8742 21.7872 21.1259 21.7461C21.8359 21.6265 22.6585 22.348 22.7449 23.0919C22.7675 23.305 22.7788 23.5181 22.7975 23.7947C22.9065 23.6788 22.9666 23.6377 22.9891 23.5854C23.6878 22.0115 23.3122 20.4713 21.9674 19.3797C20.8554 18.4788 20.8104 18.4825 19.7285 19.4769C19.6646 19.5367 19.6045 19.6003 19.5369 19.6526C19.0899 19.9928 18.9284 20.4227 18.9772 20.9947C19.0185 21.4807 19.0148 21.9928 18.8908 22.4601C18.5527 23.7536 18.1658 25.0396 17.7488 26.3106C17.3582 27.4995 17.2567 28.6434 17.9517 29.7574C18.0118 29.8509 18.0268 29.9705 18.0644 30.0789V30.0752ZM59.055 18.9573C58.8935 18.7554 58.777 18.5722 58.6268 18.4264C57.9656 17.7909 56.741 17.7348 56.4142 18.4414C55.9935 19.3535 55.3549 19.6601 54.4383 19.6676C54.2918 19.6676 54.149 19.7386 54.0063 19.7872C53.4015 19.9891 52.9808 20.3666 52.9658 21.0321C52.947 21.8022 52.9207 22.5798 53.0146 23.3386C53.0747 23.8209 53.24 24.3517 53.8373 24.5349C53.9725 23.8583 54.0702 23.2041 54.243 22.5648C54.3819 22.0564 54.6487 21.5704 55.2948 21.6452C55.7042 21.6938 55.862 22.2956 55.6441 22.9872C55.3999 23.7611 55.1182 24.5237 54.8327 25.2826C54.6186 25.8508 54.6524 26.4078 55.013 26.8677C55.5014 27.492 56.0724 28.0565 56.6058 28.6471C56.6621 28.6135 56.7185 28.5761 56.7786 28.5425C56.726 28.0752 56.6771 27.6116 56.6208 27.1443C56.572 26.7181 56.4818 26.2957 56.4743 25.8733C56.4668 25.3574 56.8049 25.1181 57.297 25.0546C57.7853 24.991 58.037 25.2863 58.1422 25.6789C58.3788 26.5424 58.4089 27.4097 58.0032 28.2509C57.8266 28.6172 57.6538 28.9873 57.5073 29.3649C57.2895 29.9369 57.5073 30.4079 58.0558 30.6322C58.5479 30.8341 59.0325 31.0509 59.4231 31.2191C59.934 30.8116 60.3622 30.3668 60.8806 30.0939C61.384 29.8285 61.5944 29.4808 61.6808 28.9612C61.816 28.1462 61.4817 27.5256 60.9933 26.9088C60.2796 26.0041 59.6147 25.062 58.9836 24.1013C58.8559 23.9069 58.9686 23.5592 58.9723 23.2788C59.2691 23.2938 59.6973 23.1929 59.8326 23.3461C60.351 23.9368 60.7717 24.6097 61.1849 25.1854C61.5343 23.8097 61.9888 22.2732 60.6553 20.8975C60.4937 20.733 60.3923 20.505 60.2871 20.2956C60.0505 19.8171 59.6861 19.5891 59.1451 19.6339C58.8221 19.6601 58.4953 19.6676 58.1722 19.6451C58.0783 19.6377 57.9318 19.518 57.9205 19.4321C57.9093 19.3461 58.0145 19.1816 58.1008 19.1554C58.3863 19.0694 58.6869 19.032 59.0588 18.961L59.055 18.9573ZM5.19847 38.3332C5.23227 38.4155 5.26984 38.494 5.30365 38.5762H6.49445C6.49821 38.6323 6.50572 38.6847 6.50947 38.7407C5.5065 38.8118 4.53733 38.9987 3.7973 39.7164C3.51932 39.9856 3.17373 40.3893 3.19251 40.7108C3.24135 41.5931 2.74549 42.0305 2.13319 42.4791C1.92658 42.6286 1.8214 42.9165 1.59225 43.2604C2.18202 43.0324 2.57269 42.8828 2.96337 42.7333C2.99342 42.8006 3.02347 42.8679 3.05728 42.9352C2.72295 43.137 2.38863 43.3464 2.05054 43.5371C1.32555 43.9445 0.84096 44.4716 0.934872 45.3875C0.957411 45.6081 0.818421 45.8848 0.671919 46.0754C0.209873 46.6735 0.20236 46.8642 0.732023 47.5072C1.28798 46.7147 2.15197 46.5614 3.01971 46.382C3.31272 46.3221 3.60948 46.1091 3.83487 45.8885C4.44342 45.2903 4.89795 44.6287 4.74018 43.6828C4.71013 43.5146 5.09704 43.2754 5.29238 43.066C5.39005 43.3427 5.6267 43.6604 5.55909 43.8847C5.42761 44.3221 5.11958 44.7072 4.89795 45.1221C4.71764 45.4586 4.55987 45.8062 4.39458 46.1502C4.44717 46.1876 4.49976 46.2287 4.55235 46.2661C5.01816 46.0567 5.51025 45.8885 5.946 45.6268C7.00909 44.995 7.33214 44.1165 7.20442 42.8791C7.12929 42.1613 7.21945 41.4211 7.32839 40.7034C7.36219 40.4753 7.68901 40.2921 7.88434 40.0865C8.06465 40.2772 8.36893 40.4566 8.39147 40.666C8.43279 41.0024 8.38395 41.4249 8.20364 41.7015C7.64769 42.5501 7.70028 43.4959 7.68149 44.4791C8.07217 44.1015 8.46284 43.7053 8.72204 43.2417C9.16154 42.4567 9.51089 41.6342 10.2397 41.0323C10.4876 40.8305 10.6904 40.4716 10.743 40.1576C10.9872 38.6959 10.713 38.0043 9.34561 38.2996C8.6732 38.4454 8.01582 38.8005 7.43357 39.1819C6.59212 39.7351 5.81453 40.3893 5.02943 41.0211C4.43215 41.5034 3.99264 42.0604 3.90624 42.8903C3.8236 43.6828 3.74847 44.5128 3.00844 45.0773C2.34355 45.5894 1.72373 46.1614 1.08137 46.7072C1.04381 46.4904 1.07386 46.2623 1.20158 46.1352C1.55093 45.7876 1.91155 45.4361 2.31725 45.1632C3.0723 44.6586 3.51932 44.0006 3.5043 43.0884C3.48552 42.0679 3.98888 41.3352 4.74769 40.737C5.1008 40.4566 5.46518 40.1837 5.84834 39.952C7.0166 39.2454 7.87307 38.2959 8.21116 36.9538C8.27126 36.7108 8.21491 36.4379 8.21116 36.1762C7.95572 36.236 7.63642 36.2173 7.45611 36.3669C6.67852 36.9986 5.94225 37.679 5.19471 38.3445L5.19847 38.3332ZM16.0321 43.5296C16.1035 43.4137 16.2275 43.0997 16.4529 42.8903C16.682 42.6772 17.0051 42.5651 17.2868 42.4081C17.2981 42.7183 17.3657 43.0399 17.3093 43.3389C17.2492 43.6455 17.0727 43.9296 16.945 44.2249C16.3777 45.5333 16.5843 46.2997 17.7676 47.2343C17.8127 47.01 17.7977 46.7408 17.9179 46.5763C18.1132 46.3109 18.3987 46.1128 18.6466 45.8885C18.733 46.2062 18.9246 46.5427 18.8795 46.8455C18.7405 47.7502 18.9622 48.2511 19.7848 48.6623C20.2957 48.1203 20.7991 47.5894 21.2987 47.0586C22.3205 45.9707 22.2453 45.4287 21.0282 44.5614C20.8479 44.4305 20.8404 44.0604 20.7503 43.8025C21.0095 43.7651 21.2837 43.6567 21.5241 43.709C21.7232 43.7501 21.8847 43.9782 22.0538 44.1165C22.3918 43.6043 22.76 43.0511 23.1243 42.4978C23.4324 42.0342 23.5225 41.5408 23.2145 41.051C22.7712 40.3482 22.3317 39.6454 21.8246 38.9912C21.6706 38.7931 21.3025 38.6772 21.0282 38.6734C20.5662 38.6697 19.4768 39.9146 19.5219 40.3781C19.6083 41.3314 19.7022 42.2922 19.8712 43.2342C20.029 44.1315 20.2957 45.01 20.4986 45.9034C20.6301 46.4829 20.446 47.1595 20.2319 47.324C20.1267 46.4791 20.029 45.5632 19.8863 44.6511C19.7886 44.023 19.6008 43.4099 19.4956 42.7819C19.3867 42.1314 19.3679 41.4623 19.2439 40.8155C19.1124 40.1239 18.4363 39.6192 17.839 39.6828C17.0614 39.7688 16.1073 40.6398 16.0472 41.4099C15.9908 42.1613 16.0359 42.9165 16.0359 43.5371L16.0321 43.5296ZM9.62735 27.0733C10.4763 27.0022 11.1374 26.8938 11.7873 26.9237C12.0277 26.935 12.2531 27.2864 12.4823 27.4808C12.2494 27.6303 12.0352 27.8658 11.7873 27.9069C11.2163 28.0041 10.6228 28.0677 10.0481 28.034C9.05636 27.9742 7.93318 29.0509 7.76038 29.8359C7.58007 30.6584 7.64393 31.4771 8.30882 32.2135C8.3802 31.8771 8.42527 31.6266 8.48913 31.3761C8.75585 30.3257 9.80766 29.4135 10.7317 29.4845C10.9797 29.5032 11.2126 29.6976 11.4492 29.8135C11.3403 30.0079 11.2614 30.2285 11.1149 30.3892C10.7543 30.7855 10.3073 31.1145 10.003 31.5481C9.28551 32.5649 9.3982 33.3799 10.2847 34.1537C10.7843 34.5911 11.2877 35.0285 11.6483 35.3425C12.1066 34.9313 12.4935 34.4491 12.9931 34.1575C14.0074 33.5631 14.1839 33.1892 13.6956 32.1425C13.6054 31.9481 13.504 31.7612 13.3988 31.578C13.1659 31.1743 13.3312 31.0135 13.7407 31.0247C14.5896 31.0472 15.1381 31.4846 15.4123 32.3406C15.7128 32.0229 16.0058 31.7649 16.235 31.4584C16.543 31.0472 16.6294 30.6845 16.1411 30.2434C15.7654 29.9032 15.5776 29.3537 15.3071 28.8976C14.353 27.9929 13.9247 26.8415 13.8571 25.4396C12.2907 25.5705 10.9045 25.9518 9.62735 27.0733ZM39.3035 20.5723C38.1277 28.2434 35.13 35.0622 30.5546 41.3426C31.4938 41.3426 32.2601 41.3538 33.0302 41.3314C33.1691 41.3277 33.3607 41.1931 33.4246 41.0697C33.7176 40.5127 33.9956 39.9445 34.2397 39.3613C36.4711 33.978 38.2554 28.449 39.6791 22.8078C40.3478 20.1685 41.0277 17.5554 42.5716 15.2563C42.6693 15.1105 42.6956 14.9198 42.7557 14.7516C42.6956 14.6993 42.6392 14.6469 42.5791 14.5946C42.2147 14.8899 41.7677 15.1255 41.4972 15.4881C40.5393 16.7815 40.1825 18.3068 40.0172 19.8769C39.9721 20.3106 39.9796 20.6657 39.3072 20.5723H39.3035ZM35.6484 37.7239C35.7198 37.623 35.8062 37.5295 35.8663 37.4248C36.7904 35.7575 37.8948 34.1575 38.5897 32.3967C39.7204 29.5406 40.5844 26.5836 41.5461 23.6639C41.655 23.3312 41.809 22.8751 41.67 22.6284C41.3883 22.1274 40.9225 21.7311 40.4717 21.2227C39.187 26.9013 37.5342 32.3406 35.6522 37.7202L35.6484 37.7239ZM33.9167 41.2043C34.4426 41.2043 34.8821 41.2492 35.3028 41.1856C35.547 41.152 35.8513 41.0024 35.979 40.808C36.4373 40.109 36.8467 39.3762 37.2412 38.6435C37.3276 38.4828 37.3276 38.2473 37.305 38.0566C37.1848 37.1856 37.2261 36.3332 38.0488 35.8211C38.5334 35.522 38.7926 35.1407 38.9579 34.6435C40.1299 31.1444 41.2869 27.6415 42.4852 24.1499C42.6542 23.6601 42.5378 23.4097 42.1847 23.234C41.4409 25.6116 40.761 27.9929 39.9533 30.3294C38.586 34.2696 36.2682 37.7052 33.9167 41.208V41.2043ZM18.1846 32.3705C18.6429 33.4285 19.0974 34.3893 19.4693 35.3762C19.8449 36.3669 20.1417 37.3874 20.4535 38.3407C20.878 38.3108 21.2837 38.2846 21.7833 38.251C20.7878 36.1127 19.8036 34.0005 18.8082 31.8659C18.4889 32.1238 18.2898 32.2846 18.1846 32.3705ZM9.13525 37.7351C9.17281 37.7987 9.21038 37.8622 9.24794 37.922C9.60481 37.7949 9.9767 37.694 10.3148 37.5295C10.9909 37.2043 11.6859 37.0585 12.3282 37.5108C13.3049 38.2024 14.2891 38.9015 15.1719 39.709C15.8556 40.337 15.9532 40.4043 16.558 39.6454C16.1674 39.3463 15.803 39.0024 15.3823 38.7557C14.1727 38.0379 12.9556 37.3239 11.7009 36.6846C11.4117 36.5388 10.9121 36.5874 10.6003 36.737C10.0706 36.9912 9.61608 37.3949 9.13149 37.7351H9.13525ZM32.6132 34.3369C31.5764 35.694 31.9821 37.2529 31.5464 38.6286C31.5989 38.651 31.6515 38.6734 31.7041 38.6996C32.5381 37.294 33.372 35.8921 34.2059 34.4865C34.1571 34.4528 34.1045 34.4192 34.0557 34.3855C33.7664 34.6435 33.4884 34.9126 33.1879 35.1519C33.0527 35.2566 32.8649 35.3014 32.7034 35.3725C32.647 35.1855 32.5719 34.9986 32.5418 34.808C32.523 34.6958 32.5756 34.5687 32.6169 34.3407L32.6132 34.3369ZM47.7443 31.4285C48.1312 31.2266 48.5444 31.1481 48.7172 30.9014C50.1108 28.8976 51.4632 26.8677 52.8117 24.834C52.9056 24.6919 52.8756 24.4676 52.8944 24.3405C51.2115 26.6621 49.5286 28.9761 47.748 31.4285H47.7443ZM31.4449 35.7912C31.3848 35.7799 31.3247 35.7687 31.2646 35.7538C30.75 37.6155 30.2316 39.4772 29.7094 41.3725C29.8109 41.3352 29.9799 41.3239 30.0175 41.2492C30.3969 40.4529 31.1594 39.8697 31.1482 38.8417C31.1369 37.8248 31.3398 36.808 31.4449 35.7874V35.7912ZM52.6314 5.03933C53.5518 5.60009 54.412 6.12346 55.2873 6.65805C55.1933 5.66738 54.4721 4.67297 53.7133 4.47858C53.2475 4.35895 52.9357 4.5683 52.6352 5.04307L52.6314 5.03933ZM36.5087 40.9127C36.5312 40.9651 36.5537 41.0174 36.5763 41.066C37.2825 40.8791 37.9925 40.6884 38.8151 40.4716C38.3831 39.8959 38.0338 39.4286 37.6619 38.9314C37.2524 39.6342 36.8805 40.2735 36.5087 40.9127ZM46.8277 14.475C46.2755 15.4096 46.7225 16.1273 48.3866 17.0432C48.349 16.2806 47.6428 15.0993 46.8277 14.475ZM44.5362 19.0208C44.4273 18.9947 44.3184 18.9648 44.2094 18.9386C43.1726 20.1236 43.383 21.5816 43.4769 23.0134C43.83 21.6825 44.1831 20.3517 44.5362 19.0171V19.0208ZM46.8615 9.44313C46.9441 9.46182 47.0268 9.47678 47.1094 9.49547C47.4174 8.44872 47.7518 7.40946 48.0185 6.3515C48.0823 6.09355 47.9208 5.78327 47.8645 5.49541C47.8081 5.50289 47.7518 5.5141 47.6992 5.52158C47.4212 6.83001 47.1432 8.1347 46.8615 9.44313ZM20.8554 22.2583C21.156 22.6097 21.479 22.9162 21.7119 23.2826C21.9561 23.6714 22.1139 24.1125 22.3167 24.5499C22.5346 23.7835 22.5459 23.0471 21.9636 22.4377C21.6856 22.1498 21.3137 21.948 20.8592 22.2545L20.8554 22.2583ZM17.5798 8.91228C17.4333 9.63753 17.3056 10.273 17.1516 11.0357C18.2071 10.3927 18.271 10.0301 17.5798 8.91228ZM27.9477 28.7107C28.9669 28.125 29.5078 27.6565 29.5704 27.3051C28.8041 27.3462 28.1806 27.8658 27.9477 28.7107ZM32.8611 31.1892C32.7973 31.1967 32.7334 31.2004 32.6695 31.2079C32.7372 31.9668 32.8048 32.7294 32.8686 33.4883C33.3983 32.6846 33.2818 31.9257 32.8574 31.1892H32.8611ZM48.5331 20.7517C48.6158 20.6881 48.6984 20.6283 48.7848 20.5648C48.1537 19.8283 47.5189 19.0919 46.8878 18.3554C46.8202 18.4115 46.7488 18.4676 46.6812 18.5236C47.2972 19.2676 47.9171 20.0078 48.5331 20.7517ZM60.5951 25.7088C60.6402 25.6789 60.6853 25.649 60.7304 25.6191C60.5125 24.8078 60.3209 23.9816 59.3142 23.6938C59.7387 24.3667 60.1669 25.0359 60.5914 25.7088H60.5951ZM19.0749 17.4059C19.3341 17.8732 19.5782 18.3105 19.8712 18.8414C20.5211 18.0601 19.6045 17.7386 19.6196 17.1591C19.3867 17.2638 19.2439 17.3311 19.0749 17.4059ZM54.4383 24.1499C54.5059 24.1686 54.5735 24.1873 54.6411 24.2059C54.8327 23.5181 55.4037 22.9461 55.2685 22.1611L54.9905 22.0826C54.8064 22.7704 54.6224 23.4583 54.4383 24.1461V24.1499ZM16.3214 25.2564C16.2425 25.2377 16.1636 25.2153 16.0847 25.1966C15.5025 25.8134 15.6189 26.5948 15.7053 27.3686C15.9119 26.6621 16.1148 25.9592 16.3214 25.2527V25.2564ZM7.93693 40.509C7.85053 40.5052 7.76789 40.4978 7.68149 40.494C7.63642 40.9763 7.58758 41.4548 7.5425 41.937C7.84302 41.4847 8.27502 41.0623 7.93693 40.509ZM35.4155 29.6004C35.4456 28.7219 35.1789 28.3555 34.5666 28.3892C34.8445 28.7854 35.1112 29.163 35.4155 29.6004ZM10.2847 27.3723C10.2885 27.4172 10.296 27.4621 10.2998 27.5069H12.0503C12.0503 27.4621 12.0503 27.4172 12.0503 27.3723H10.2885H10.2847Z" fill="white"/>
<path d="M43.4544 53.8661C43.3792 53.982 43.3492 54.1016 43.2778 54.1353C42.1847 54.6661 41.1254 55.3241 39.9759 55.6867C37.7145 56.4007 35.4305 57.1222 33.1015 57.5222C31.1895 57.8512 29.1986 57.7578 27.2452 57.7839C26.1032 57.7989 24.9575 57.7204 23.8193 57.6232C22.1251 57.4774 20.4385 57.283 18.7481 57.0998C18.6579 57.0886 18.5715 56.9989 18.4175 56.9054C18.5602 56.8419 18.6504 56.7634 18.733 56.7708C20.9456 56.9241 23.1544 57.0886 25.367 57.2456C26.5502 57.3316 27.7298 57.4774 28.9131 57.4736C31.9182 57.4662 34.8483 56.9428 37.7107 56.0381C39.341 55.5222 41.0089 55.111 42.4551 54.1353C42.6805 53.9857 42.966 53.9185 43.2252 53.825C43.2703 53.81 43.3342 53.8437 43.4544 53.8661Z" fill="white"/>
<path d="M12.5384 66.7523C15.2731 67.0626 18.0003 67.5224 20.7463 67.642C23.5036 67.7616 26.2758 67.5485 29.1233 67.4775C28.6161 67.6383 28.1541 67.8962 27.6845 67.9149C25.2128 68.0271 22.7297 68.2215 20.2617 68.1168C17.9928 68.0233 15.7389 67.5971 13.4813 67.3018C13.1432 67.257 12.8164 67.1186 12.4858 67.0214C12.5046 66.9317 12.5234 66.8383 12.5384 66.7485V66.7523Z" fill="white"/>
<path d="M9.74365 53.8474C13.5715 54.7072 17.4144 55.5708 21.1145 56.4007C20.2993 56.8942 10.6978 54.8343 9.74365 53.8474Z" fill="white"/>
<path d="M37.5076 63.0662C37.6767 64.7448 36.1891 66.427 34.4687 66.6551C33.7437 66.7523 33.0074 66.7635 32.2749 66.7859C31.5799 66.8083 30.885 66.7897 30.1863 66.7897C30.6483 66.3298 31.3057 66.3448 31.9218 66.2887C32.628 66.2214 33.3417 66.2289 34.0442 66.1541C35.3589 66.0196 36.3394 65.3803 36.9179 64.1653C37.0944 63.7915 37.3085 63.4289 37.5039 63.0625L37.5076 63.0662Z" fill="white"/>
<path d="M16.5354 56.8643C15.7278 56.6961 14.9089 56.5802 14.12 56.3484C12.5874 55.8998 11.0698 55.3839 9.54838 54.8979C8.73323 54.6363 8.1923 54.0905 7.89929 53.2979C7.86173 53.1933 7.86924 53.0736 7.9932 52.8755C8.12468 53.0325 8.30123 53.1708 8.38012 53.3503C8.64307 53.9409 9.13141 54.2475 9.69113 54.5204C11.7835 55.5484 14.0073 56.1204 16.295 56.4755C16.3889 56.4905 16.4791 56.554 16.5692 56.5989C16.558 56.6886 16.5467 56.7746 16.5354 56.8643Z" fill="white"/>
<path d="M31.7604 43.5183C29.1459 43.6117 26.5389 43.5183 23.9319 43.3351C23.9319 43.2267 23.9394 43.1145 23.9432 43.0061C26.5539 43.0809 29.1684 43.1556 31.7792 43.2304C31.7716 43.3276 31.7641 43.4211 31.7566 43.5183H31.7604Z" fill="white"/>
<path d="M38.9314 42.5052C36.9856 43.1856 34.9796 43.4622 32.9286 43.4809C32.9173 43.4099 32.906 43.3426 32.8948 43.2716C34.8932 42.9314 36.8917 42.5912 38.8939 42.251C38.9089 42.3332 38.9202 42.4192 38.9352 42.5014L38.9314 42.5052Z" fill="white"/>
<path d="M38.6572 57.3577C38.4356 58.7521 38.2403 59.9783 38.0524 61.1708C37.6993 60.2923 37.921 58.6474 38.6572 57.3577Z" fill="white"/>
<path d="M46.5345 21.5852C47.4436 22.6432 47.8943 23.8955 48.0859 25.2525C48.0258 25.2787 47.9657 25.3049 47.9056 25.331C47.4022 24.1086 46.8989 22.8862 46.3955 21.6674C46.4406 21.6413 46.4894 21.6114 46.5345 21.5852Z" fill="white"/>
<path d="M31.1255 31.7273C30.8287 32.7853 30.5357 33.8433 30.1864 35.0919C30.0549 34.7741 29.8784 34.561 29.9084 34.3778C30.0662 33.3872 30.3554 32.4414 30.9677 31.6414C31.0203 31.6713 31.0729 31.6974 31.1255 31.7273Z" fill="white"/>
<path d="M50.2384 3.91029C50.3961 3.99254 50.5952 4.03366 50.7004 4.16076C51.2414 4.80003 51.771 5.44676 52.2744 6.11593C53.5816 7.85427 53.7995 9.78327 53.2248 11.8356C53.1759 12.0076 53.0745 12.1646 52.9956 12.3291C52.9393 12.3291 52.8829 12.3254 52.8266 12.3216C52.8078 12.1497 52.7364 11.9665 52.774 11.8095C53.3525 9.36457 52.9994 7.19258 51.0686 5.38695C50.6741 5.01685 50.5164 4.39628 50.2459 3.8916L50.2346 3.90282L50.2384 3.91029Z" fill="white"/>
<path d="M58.3336 24.8641C58.0556 24.2846 57.6837 23.7276 57.5184 23.1145C57.2517 22.1238 56.8723 21.2229 56.1962 20.4453C56.0384 20.2659 55.9407 20.0341 55.8806 19.7874C56.7033 20.3705 57.263 21.1556 57.6123 22.0678C57.9467 22.95 58.1833 23.8659 58.4613 24.7706C58.42 24.8042 58.3787 24.8342 58.3336 24.8678V24.8641Z" fill="white"/>
<path d="M59.2088 30.5834C59.314 29.8544 59.4605 29.275 59.4643 28.6993C59.4718 28.1198 59.3366 27.5366 59.2652 26.9497C60.1742 27.2974 60.2118 29.589 59.2051 30.5834H59.2088Z" fill="white"/>
<path d="M11.5919 34.4976C10.3673 32.6247 11.7797 29.1629 13.9998 28.1648C13.8608 28.3667 13.8082 28.4938 13.7106 28.5685C12.4822 29.5181 11.7271 30.7704 11.5055 32.2845C11.4078 32.9462 11.5506 33.6415 11.5919 34.4976Z" fill="white"/>
</svg>
