<svg viewBox="0 0 1845 154" fill="none" stroke="#FFF" xmlns="http://www.w3.org/2000/svg">
<path d="M1844.2,4.6h-38.1v9.2h38.1V4.6z M61.2,5.1c0.1-0.2,0.3-0.6,0.4-0.7h5.3l53.9,118.2c3.3,7.8,14.8,23,23.9,23.2
	v5H73.6v-5c36.8,1.5,15.6-21.1,9-39H28.6L20,130.2c-6.7,17,5,14.3,25.8,15.5v5H-1v-5c7.2-0.6,11.8-7.2,14.7-14.2
	C13.7,131.3,61.3,5.2,61.2,5.1z M30.5,101.7h49.7L52.8,42.1L30.5,101.7z M177.6,13.5c-2.3-2.6-8.5-3.9-18.4-3.9v-5
	c37.1,4.1,126.1-16.9,126.1,38.7c0.3,21.1-16.2,34-36.4,37.9c12,14.6,32.5,59.5,51.6,65.5v5h-35.7l-40.9-68.5h-14.2
	c1.5,9.4-4.2,53.1,4.8,59.5c3.2,2.7,10.5,4,21.9,4v5h-77.1v-5c16.1-0.8,22.5-1.1,22.7-16.2C180.2,121.8,186.2,17.8,177.6,13.5
	L177.6,13.5z M209.6,78.3c13,0,31.7,1.8,40.1-9.6c8.5-7.9,9.1-42.6-1.7-50.4c-8-8.5-27.4-12.2-35.7-4.8
	C206.8,19.9,210.8,69.5,209.6,78.3z M318.1,78.7c-2.7-57.4,47.7-87.2,98.5-71.4c14.1,5.8,18.6,9.7,24.7-6.3h5v52.5h-5
	c-7.9-40.1-59.5-63.2-82.5-27.1c-12.7,19.2-15.3,78.5,1.7,98.5c21.6,30.5,62.9,16.1,86-7.5l4.2,4c-17.1,21.1-31.5,30.8-56.3,31.3
	C346.6,152.4,317.8,127.7,318.1,78.7L318.1,78.7z M609.3,140.9c2.7,3.1,9.5,4.6,20.2,4.6v5h-72.9v-5c9.9,0,16.1-2.1,18.4-6.3
	c4.9-8.3,1.7-51.2,2.6-61.5h-57.4c1.3,11.1-3.5,56.2,4,63.9c2.7,2.6,9.3,3.9,19.7,3.9v5h-73.3v-5c20.4-0.4,21.1-2.9,21.7-21.2
	c-1.6-5.7,4.1-112.4-3.9-112.8c-1.7-1.5-7.6-2.2-17.7-2.2v-5h72.9v5c-11.8,0-18.5,0.7-20.1,2.2c-6.9,4.9-2.2,53.8-3.5,61.3h57.4
	c-1.4-7.2,3.7-57.6-3.7-61.7c-1.8-1.2-7.6-1.8-17.3-1.8v-5h72.9v5c-18.3,1.1-23.2-2.9-24.1,11.8C607.2,32.9,601.3,133.1,609.3,140.9
	L609.3,140.9z M718.7,4.5v5c-11.7,0-18.2,0.7-19.7,2.2c-7.1-0.2-2.1,108.6-3.5,113.6c0.5,18.7,3.5,20.3,23,20.8v5h-72.3v-5
	c20-0.4,20.9-2.8,21.5-20.8c-1.6-5.8,4-113.1-3.9-113.8c-1.7-1.3-7.6-2-17.7-2v-5H718.7z M754.7,22.4c-6.1,7.5-9.2,16.8-9.2,28h-5V4
	h125.2v46.4h-5c-1.6-28-12.2-38.2-44.2-39.4c1.8,11-4.3,124.3,3.9,130.7c2.7,2.7,9.6,4,20.8,4v5h-75.1v-5c11.3,0,18-1.7,20.2-5
	c5.1-5.6,1.3-120.4,2.4-129.8C771.3,12.2,759.9,16,754.7,22.4z M905.1,13c-2.3-2.3-8.7-3.5-19-3.5v-5h123.7v42.3h-5
	c-1.5-26.2-17.1-37.9-49.1-37.4c-11.2,0-17.4,0.9-18.6,2.8c-5.1,5.1-1.6,54.7-2.6,61.9h14.4c17.6-0.5,25.2-16.7,24.8-34.8h5v73.6h-5
	c-0.1-29.5-13.8-35.8-39.2-33.9c1.7,9.5-4.7,57.2,5.1,63c14.1,8.7,50.2,2.9,57.3-7c7.1-7.4,13.6-18.1,19.5-32.2h5l-8.8,48.2H888.1
	v-5c19.2-0.9,20-3.2,20.2-20.6C907,118.5,912,15.5,905.1,13L905.1,13z M1040.8,78.7c-2.7-57.4,47.7-87.2,98.5-71.4
	c14.1,5.8,18.6,9.7,24.7-6.3h5v52.5h-5c-7.9-40.1-59.5-63.2-82.5-27.1c-12.7,19.2-15.3,78.5,1.7,98.5c21.6,30.5,62.9,16.1,86-7.5
	l4.2,4c-17.1,21.1-31.5,30.8-56.3,31.3C1069.3,152.4,1040.5,127.7,1040.8,78.7L1040.8,78.7z M1211.3,22.4c-6.1,7.5-9.2,16.8-9.2,28
	h-5V4h125.2v46.4h-5c-1.6-28-12.2-38.2-44.2-39.4c1.8,11-4.3,124.3,3.9,130.7c2.7,2.7,9.6,4,20.8,4v5h-75.1v-5c11.3,0,18-1.7,20.2-5
	c5.1-5.6,1.3-120.4,2.4-129.8C1227.9,12.2,1216.6,16,1211.3,22.4z M1400.4,135c6.4,5.7,15.3,8.5,26.7,8.5
	c24.2,1.1,38-18.8,38.3-39.6c-1.4-8.1,3.6-86.2-3.5-90.9c-2-2.3-8.5-3.5-19.7-3.5v-5h47.3v5c-14.5-0.1-16.9,3.6-17.7,15.1
	c-2.7,23.6,7.9,94.5-10.5,112.6c-25,28.7-100.7,17.7-99-27.4c-1.6-9.9,4.1-90.6-4-97c-1.7-2.2-7.1-3.3-16-3.3v-5h74v5
	c-20.8,0.5-24.9,0.3-26.1,16.9c0,0,0,83.4,0,83.4C1390.2,120.6,1393.7,129,1400.4,135L1400.4,135z M1526,13.5
	c-2.3-2.6-8.5-3.9-18.4-3.9v-5c37.1,4.1,126.1-16.9,126.1,38.7c0.3,21.1-16.2,34-36.4,37.9c12,14.6,32.5,59.5,51.6,65.5v5h-35.7
	l-40.9-68.5H1558c1.5,9.4-4.2,53.1,4.8,59.5c3.2,2.7,10.5,4,21.9,4v5h-77.1v-5c16.1-0.8,22.5-1.1,22.7-16.2
	C1528.5,121.8,1534.6,17.8,1526,13.5L1526,13.5z M1558,78.3c13,0,31.7,1.8,40.1-9.6c8.5-7.9,9.1-42.6-1.7-50.4
	c-8-8.5-27.4-12.2-35.7-4.8C1555.1,19.9,1559.2,69.5,1558,78.3z M1683.6,13c-2.3-2.3-8.6-3.5-19-3.5v-5h123.7v42.3h-5
	c-1.5-26.2-17.1-37.9-49.1-37.4c-11.2,0-17.4,0.9-18.6,2.8c-5.1,5.1-1.6,54.7-2.6,61.9h14.4c17.6-0.5,25.2-16.7,24.8-34.8h5v73.6h-5
	c-0.1-29.5-13.8-35.8-39.2-33.9c1.7,9.5-4.7,57.2,5.1,63c14.1,8.7,50.2,2.9,57.3-7c7.1-7.4,13.6-18.1,19.5-32.2h5l-8.8,48.2h-124.4
	v-5c19.2-0.9,20-3.2,20.2-20.6C1685.4,118.5,1690.5,15.5,1683.6,13L1683.6,13z"/>
</svg>
