<svg width="448" height="67" viewBox="0 0 448 67" fill="#fff" xmlns="http://www.w3.org/2000/svg">
<path d="M6.7,1.1c9.6-0.3,5.9,12.2-1.9,9c0,5.7-0.4,6,2.4,6v0.7H0.4v-0.7c2-0.2,2.2-0.3,2.2-2.4V4.2c0-2.1-0.3-2.2-2.2-2.4V1.1H6.7z
	 M4.9,9.2c5.8,2.3,7.6-7.3,1.5-7.3C5.1,2.1,4.9,2.1,4.9,3.3C4.9,3.3,4.9,9.2,4.9,9.2L4.9,9.2z M35.5,17c-3.4,0-4-0.5-6.4-4.5
	c-1-1.8-1.3-2.7-3.7-2.5c0,5.6-0.4,6.1,2.2,6.1v0.7H21v-0.7c2-0.2,2.2-0.3,2.2-2.4V4.2c0-2-0.3-2.1-2.2-2.3V1.1
	c2.4,0.2,8.5-0.5,10.3,0.8c2.8,1.8,1.7,6.4-1.5,7.3c1.4,2,3.7,6.8,5.8,7L35.5,17z M26.5,9.1c6.1,0.4,4.8-8.8-0.8-6.9
	c-0.5,0.2-0.3,4.9-0.3,6.9H26.5L26.5,9.1z M178.1,17c-3.4,0-4-0.5-6.4-4.5c-1-1.8-1.3-2.7-3.7-2.5c0,5.6-0.4,6.1,2.2,6.1v0.7h-6.6
	v-0.7c2-0.2,2.2-0.3,2.2-2.4V4.2c0-2-0.3-2.1-2.2-2.3V1.1c2.4,0.2,8.5-0.5,10.3,0.8c2.8,1.8,1.7,6.4-1.5,7.3c1.4,2,3.7,6.8,5.8,7
	L178.1,17z M169.2,9.1c6.1,0.4,4.8-8.8-0.8-6.9c-0.5,0.2-0.3,4.9-0.3,6.9H169.2L169.2,9.1z M51.1,0.8c10.5-0.2,10.2,16.8-0.1,16.4
	C40.6,17.4,40.1,0.7,51.1,0.8z M50.6,1.7c-7-0.5-6.3,15.2,0.7,14.5C58.4,16.9,57.2,0.7,50.6,1.7z M83,1.8c-2.7,0-2.4,1.5-8.1,15.2
	H74C68.9,3.2,69.2,1.8,66.6,1.8V1.1h6.4v0.7c-2.8,0-1.7,0.8,2.3,11.7C79.4,3,80.9,1.9,77.4,1.9V1.1H83L83,1.8L83,1.8z M90.5,16.8
	v-0.7c2-0.2,2.2-0.3,2.2-2.4V4.2c0-2.1-0.2-2.2-2.2-2.4V1.1h6.6v0.7c-2,0.2-2.2,0.3-2.2,2.4v9.5c0,2.1,0.2,2.1,2.2,2.4v0.7H90.5z
	 M224.9,16.8v-0.7c2-0.2,2.2-0.3,2.2-2.4V4.2c0-2.1-0.2-2.2-2.2-2.4V1.1h6.6v0.7c-2,0.2-2.2,0.3-2.2,2.4v9.5c0,2.1,0.2,2.1,2.2,2.4
	v0.7H224.9z M393.5,16.8v-0.7c2-0.2,2.2-0.3,2.2-2.4V4.2c0-2.1-0.2-2.2-2.2-2.4V1.1h6.6v0.7c-2,0.2-2.2,0.3-2.2,2.4v9.5
	c0,2.1,0.2,2.1,2.2,2.4v0.7H393.5z M112.8,1.1c13.3-0.9,11,17-1,15.7c0,0-5.8,0-5.8,0v-0.7c2-0.2,2.2-0.4,2.2-2.3V4.2
	c0-2.1-0.3-2.2-2.2-2.4V1.1H112.8L112.8,1.1z M110.5,13.6c0,1.8,0.7,2.3,2.5,2.3c6.6,0.6,8.5-9.7,3.7-12.8c-1.3-0.9-6.6-2.3-6.2,0.7
	C110.5,3.7,110.5,13.6,110.5,13.6L110.5,13.6z M247.4,1.1c13.3-0.9,11,17-1,15.7c0,0-5.8,0-5.8,0v-0.7c2-0.2,2.2-0.4,2.2-2.3V4.2
	c0-2.1-0.3-2.2-2.2-2.4V1.1H247.4L247.4,1.1z M245,13.6c0,1.8,0.7,2.3,2.5,2.3c6.6,0.6,8.5-9.7,3.7-12.8c-1.3-0.9-6.6-2.3-6.2,0.7
	C245,3.7,245,13.6,245,13.6L245,13.6z M197.2,16.8h-11.9v-0.7c2.2-0.2,2.4-0.4,2.4-2.4V4.3c0-2.1-0.3-2.3-2-2.4V1.1h11l0.2,3.7
	l-0.8,0.1c-0.5-3.1-2.5-2.9-5.3-2.8c-0.8,0-0.8,0.1-0.8,0.8v5.3c4,0,4.8,0.1,4.8-2h0.8v5.1h-0.8c0-2.2-0.8-2-4.8-2
	c0,6.4-0.3,6.6,1.7,6.6c3.8,0,4.3,0.1,5.7-3.1l0.8,0.2L197.2,16.8z M142.4,16.8h-11.9v-0.7c2.2-0.2,2.4-0.4,2.4-2.4V4.3
	c0-2.1-0.3-2.3-2-2.4V1.1h11l0.2,3.7l-0.8,0.1c-0.5-3.1-2.5-2.9-5.3-2.8c-0.8,0-0.8,0.1-0.8,0.8v5.3c4,0,4.8,0.1,4.8-2h0.8v5.1H140
	c0-2.2-0.8-2-4.8-2c0,6.4-0.3,6.6,1.7,6.6c3.8,0,4.3,0.1,5.7-3.1l0.8,0.2L142.4,16.8z M276.9,16.8H265v-0.7c2.2-0.2,2.4-0.4,2.4-2.4
	V4.3c0-2.1-0.3-2.3-2-2.4V1.1h11l0.2,3.7l-0.8,0.1c-0.5-3.1-2.5-2.9-5.3-2.8c-0.8,0-0.8,0.1-0.8,0.8v5.3c4,0,4.8,0.1,4.8-2h0.8v5.1
	h-0.8c0-2.2-0.8-2-4.8-2c0,6.4-0.3,6.6,1.7,6.6c3.8,0,4.3,0.1,5.7-3.1l0.8,0.2L276.9,16.8z M338.4,63.1h-11.9v-0.7
	c2.2-0.2,2.4-0.4,2.4-2.4v-9.5c0-2.1-0.3-2.3-2-2.4v-0.7h11l0.2,3.7l-0.8,0.1c-0.5-3.1-2.5-2.9-5.3-2.8c-0.8,0-0.8,0.1-0.8,0.8v5.3
	c4,0,4.8,0.1,4.8-2h0.8v5.1H336c0-2.2-0.8-2-4.8-2c0,6.4-0.3,6.6,1.7,6.6c3.8,0,4.3,0.1,5.7-3.1l0.8,0.2L338.4,63.1z M206.5,12.7
	l0.8-0.2c0.4,3.8,6.5,5.9,6.8,1.1c0.2-3.8-7.1-3.7-7.1-8.5c0-4.2,5.5-5,8.3-3.8l0.4,3.5c0,0-0.8,0.2-0.8,0.2
	c-0.1-3.4-5.9-4.7-5.9-0.6c0,3.9,7.2,3.4,7.2,8.4c0,4.3-5.3,5.6-9.2,3.8L206.5,12.7z M333.5,12.7l0.8-0.2c0.4,3.8,6.5,5.9,6.8,1.1
	c0.2-3.8-7.1-3.7-7.1-8.5c0-4.2,5.5-5,8.3-3.8l0.4,3.5c0,0-0.8,0.2-0.8,0.2c-0.1-3.4-5.9-4.7-5.9-0.6c0,3.9,7.2,3.4,7.2,8.4
	c0,4.3-5.3,5.6-9.2,3.8L333.5,12.7z M289.3,10.4c0,4.5-0.4,5.7,2.5,5.7v0.7h-5.9v-0.7c2.6,0,2.3-1.2,2.3-5.7c0-6.8,0.6-8.6-2.6-8.6
	V1.1h3.8l10,11.9c0,0,0-4.2,0-5.6c0-4.7,0.3-5.5-2.7-5.5V1.1h6v0.7l0,0c-2.5,0-2.2,1-2.2,5.5c0,0,0,9.7,0,9.7h-1L289.3,4.5V10.4z
	 M311.4,0.6h0.6c0.4,0.6,0.7,0.6,6,0.6c5,0,5.8,0,6.1-0.6h0.6l0.2,4.3L324.1,5h0c-1-3.3-1.2-2.9-5.1-2.9v11.7c0,1.9,0.2,2.2,2.5,2.3
	v0.7h-7.2v-0.7c2.2-0.1,2.4-0.4,2.4-2.3V2.1c-3.1,0-4-0.6-5,2.9H311L311.4,0.6z M200.1,63.2v-0.7c2-0.2,2.2-0.3,2.2-2.4v-9.5
	c0-2.1-0.2-2.2-2.2-2.4v-0.7h6.6v0.7c-2,0.2-2.2,0.3-2.2,2.4v9.5c0,2.1,0.2,2.1,2.2,2.4v0.7H200.1z M291.2,63.2v-0.7
	c2-0.2,2.2-0.3,2.2-2.4v-9.5c0-2.1-0.2-2.2-2.2-2.4v-0.7h6.6v0.7c-2,0.2-2.2,0.3-2.2,2.4v9.5c0,2.1,0.2,2.1,2.2,2.4v0.7H291.2z
	 M215.6,47h0.6c0.4,0.6,0.7,0.6,6,0.6c5,0,5.8,0,6.1-0.6h0.6l0.2,4.3l-0.8,0.1h0c-1-3.3-1.2-2.9-5.1-2.9v11.7c0,1.9,0.2,2.2,2.5,2.3
	v0.7h-7.2v-0.7c2.2-0.1,2.4-0.4,2.4-2.3V48.5c-3.1,0-4-0.6-5,2.9h-0.8L215.6,47z M409,0.6h0.6c0.4,0.6,0.7,0.6,6,0.6
	c5,0,5.8,0,6.1-0.6h0.6l0.2,4.3L421.8,5h0c-1-3.3-1.2-2.9-5.1-2.9v11.7c0,1.9,0.2,2.2,2.5,2.3v0.7H412v-0.7c2.2-0.1,2.4-0.4,2.4-2.3
	V2.1c-3.1,0-4-0.6-5,2.9h-0.8L409,0.6z M385.9,1.8c-3.7,0.1-4.5,10.4-6.6,15.2h-0.9c-1.3-3.7-2.8-8.2-4.1-11.8
	c-1.4,4.1-2.8,8.1-4,11.8h-0.9c-1.6-3.1-2.7-15-6.3-15.2V1.1h6.2v0.7c-4-0.5,1.3,8.9,1.3,11.3c1.3-3.8,2.7-7.9,3.9-11.8h0.9
	c1.4,4,2.7,7.8,4.1,11.8c0.5-3.4,5.5-11.6,0.9-11.3V1.1h5.6L385.9,1.8L385.9,1.8z M447.9,1.8c-2,0.2-2.2,0.3-2.2,2.3v9.6
	c0,2,0.2,2.1,2.2,2.3v0.7h-6.7v-0.7c2-0.2,2.2-0.3,2.2-2.3V9h-7.9v4.8c0,2,0.2,2.1,2.1,2.3v0.7H431v-0.7c1.9-0.2,2.2-0.3,2.2-2.3
	V4.2c0-2-0.2-2.2-2.2-2.3V1.1h6.6v0.7c-2.8,0-2.1,1.4-2.1,6.1h7.9c0-4.1,0.7-6.1-2.2-6.1V1.1h6.7V1.8z M117.6,47.1
	c10.6-0.2,10.1,16.8-0.2,16.4C107,63.7,106.6,47,117.6,47.1z M117.1,48c-7-0.5-6.3,15.2,0.7,14.5C124.8,63.1,123.8,47,117.1,48z
	 M118.8,61.9c2.6,2,5.3,3.7,7.4,4.5L126,67c-4,0.3-6.5-1.9-9.9-4.2L118.8,61.9L118.8,61.9z M150.8,48.2c-2.5,0-2.2,0.7-2.2,9.5
	c0,7.3-12.2,8.4-12.3-0.1c-0.1-7.7,0.5-9.3-2.1-9.3v-0.7h6.6v0.7c-1.9,0.1-2.1,0.3-2.1,2.5c0.1,3.7-1.5,11.4,4.4,11.4
	c5.1,0,4.4-4.8,4.4-8.6c0-4,0.3-5.3-2.5-5.3v-0.7h5.8C150.8,47.4,150.8,48.1,150.8,48.2z M166.3,63.1v-0.7c2.7,0,1.5-1.5,0.1-4.9
	h-5.1c-1.2,3.2-2.5,4.9,0.8,4.9v0.7h-5.6v-0.7c1.5-0.2,1.9-0.4,2.7-2.5l5-12.6l0.8-0.2c5.2,14,4.9,15.3,7.4,15.3v0.7H166.3
	L166.3,63.1z M163.9,50.5c-0.8,2-1.6,4.1-2.3,6h4.4L163.9,50.5z M192.1,59.1c-0.2,0.8-0.9,3.3-1.1,4h-11.4v-0.7
	c2.2-0.2,2.4-0.3,2.4-2.4v-9.5c0-2-0.2-2.2-2.2-2.4v-0.7h6.7v0.7c-1.9,0.2-2.2,0.3-2.2,2.4v9.7c0,2.5,1.7,1.9,3.3,1.9
	c2.3,0,2.8-1.5,3.7-3.3L192.1,59.1L192.1,59.1z M283.2,59.1c-0.2,0.8-0.9,3.3-1.1,4h-11.4v-0.7c2.2-0.2,2.4-0.3,2.4-2.4v-9.5
	c0-2-0.2-2.2-2.2-2.4v-0.7h6.7v0.7c-1.9,0.2-2.2,0.3-2.2,2.4v9.7c0,2.5,1.7,1.9,3.3,1.9c2.3,0,2.8-1.5,3.7-3.3L283.2,59.1
	L283.2,59.1z M252.4,48.2c-2.9,0-5.5,6.1-6.4,8.9c0.3,2.2-1.1,5.6,2.4,5.4v0.7h-7.1v-0.7c3.5,0.2,2-3.3,2.3-5.4
	c-0.6-1.7-3.6-9.1-6.2-8.8v-0.7h6.1v0.7c-3.6-0.1,1.5,5.4,1.9,7.1c0.5-2,5.5-7.2,1.4-7.1v-0.7h5.5V48.2L252.4,48.2z M317.4,51.2
	c-0.6-3.1-2.7-2.9-5.4-2.8c-1.6-0.6-0.5,5.7-0.8,6.3c1.9-0.2,5.1,0.9,5.1-2h0.8v5.1h-0.8c0-3-3.2-1.9-5.1-2.1V60
	c0,2.1,0.2,2.2,2.4,2.4v0.7h-6.9v-0.7c1.9-0.1,2.2-0.3,2.2-2.4v-9.4c0-2.1-0.2-2.2-2.2-2.4v-0.7c1.8,0,10,0,11.2,0
	c0,0.8,0.1,2.5,0.2,3.8L317.4,51.2L317.4,51.2z"/>
</svg>
