<svg width="494" height="156" viewBox="0 0 494 156" fill="none" xmlns="http://www.w3.org/2000/svg">
<path d="M0.799805 2.54648H19.6383L62.0848 54.509V14.5428C62.0848 10.2833 61.6057 7.63189 60.6475 6.567C59.3843 5.13265 57.3807 4.41548 54.6583 4.41548H52.2627V2.54648H76.437V4.43721H73.976C71.0359 4.43721 68.9669 5.32824 67.7255 7.08858C66.985 8.17521 66.593 10.6745 66.593 14.5428V72.9382H64.7418L18.985 17.1508V59.8117C18.985 64.0713 19.4423 66.7227 20.357 67.7876C21.6637 69.2219 23.6456 69.9391 26.3461 69.9391H28.8071V71.8298H4.63284V69.9391H7.02849C9.99038 69.9391 12.1029 69.0481 13.3225 67.2877C14.063 66.2011 14.455 63.7019 14.455 59.8335V11.6307C12.4296 9.28357 10.9051 7.74056 9.88149 6.97992C8.83612 6.24101 7.31161 5.52384 5.30798 4.89359C4.32794 4.58934 2.82522 4.43721 0.799805 4.43721V2.54648Z" fill="#C9CACA"/>
<path d="M120.648 48.6412H93.773L89.0688 59.5727C87.9145 62.2675 87.3265 64.2669 87.3265 65.5926C87.3265 66.6575 87.8274 67.5703 88.8292 68.3744C89.831 69.1785 92.0089 69.7001 95.3628 69.9391V71.8299H73.4971V69.9391C76.3936 69.4175 78.2666 68.7656 79.1377 67.9397C80.88 66.3098 82.7965 62.9847 84.9308 57.9862L109.323 0.960007H111.109L135.283 58.5947C137.221 63.2238 138.985 66.2229 140.575 67.6137C142.165 68.9829 144.365 69.7653 147.196 69.9391V71.8299H119.798V69.9391C122.564 69.8087 124.437 69.3523 125.396 68.57C126.376 67.7876 126.855 66.8314 126.855 65.7013C126.855 64.2017 126.18 61.8329 124.808 58.5947L120.604 48.6412H120.648ZM119.21 44.8598L107.428 16.8682L95.341 44.8598H119.21V44.8598Z" fill="#C9CACA"/>
<path d="M192.213 2.54648L192.976 18.8024H191.037C190.667 15.9337 190.144 13.8909 189.491 12.6738C188.424 10.6962 187.03 9.2401 185.266 8.3056C183.502 7.3711 181.193 6.89299 178.319 6.89299H168.54V59.8117C168.54 64.0713 168.997 66.7227 169.912 67.7876C171.219 69.2219 173.201 69.9391 175.901 69.9391H178.297V71.8298H148.852V69.9391H151.313C154.253 69.9391 156.322 69.0481 157.564 67.2877C158.304 66.2011 158.696 63.7019 158.696 59.8335V6.89299H150.355C147.11 6.89299 144.801 7.13205 143.451 7.61016C141.665 8.26214 140.162 9.50089 138.899 11.3482C137.636 13.1954 136.874 15.6729 136.656 18.8024H134.718L135.545 2.54648H192.235H192.213Z" fill="#C9CACA"/>
<path d="M222.702 69.9391V71.8298H192.952V69.9391H195.413C198.288 69.9391 200.357 69.1133 201.664 67.4399C202.491 66.3532 202.883 63.7236 202.883 59.5727V14.8036C202.883 11.3047 202.665 8.97931 202.208 7.84922C201.86 7.00165 201.163 6.26274 200.117 5.65423C198.615 4.8284 197.047 4.43721 195.413 4.43721H192.952V2.54648H222.702V4.43721H220.197C217.366 4.43721 215.297 5.26305 214.012 6.93645C213.163 8.02308 212.727 10.6527 212.727 14.8036V59.5727C212.727 63.0716 212.945 65.397 213.402 66.5271C213.751 67.3747 214.469 68.1136 215.558 68.7221C217.018 69.5479 218.586 69.9391 220.219 69.9391H222.724H222.702Z" fill="#C9CACA"/>
<path d="M258.376 0.960007C267.393 0.960007 275.189 4.37202 281.81 11.196C288.409 18.0201 291.719 26.5609 291.719 36.7752C291.719 46.9895 288.387 56.0303 281.745 62.9847C275.102 69.9391 267.022 73.4163 257.571 73.4163C248.119 73.4163 239.973 70.026 233.483 63.2455C226.972 56.4649 223.727 47.7067 223.727 36.9274C223.727 26.148 227.472 16.9552 234.986 10.0007C241.498 3.98083 249.295 0.960007 258.376 0.960007V0.960007ZM257.396 4.69801C251.189 4.69801 246.202 7.00166 242.456 11.5872C237.774 17.3029 235.443 25.6916 235.443 36.7318C235.443 47.7719 237.861 56.7475 242.718 62.8326C246.442 67.4616 251.364 69.787 257.462 69.787C263.973 69.787 269.375 67.2443 273.621 62.1806C277.868 57.1169 280.003 49.0976 280.003 38.1661C280.003 26.3002 277.672 17.4767 272.99 11.6524C269.244 7.02339 264.039 4.69801 257.418 4.69801H257.396Z" fill="#C9CACA"/>
<path d="M289.127 2.54648H307.966L350.412 54.509V14.5428C350.412 10.2833 349.933 7.63189 348.975 6.567C347.712 5.13265 345.708 4.41548 342.986 4.41548H340.59V2.54648H364.764V4.43721H362.303C359.363 4.43721 357.294 5.32824 356.053 7.08858C355.312 8.17521 354.92 10.6745 354.92 14.5428V72.9382H353.069L307.291 17.1508V59.8117C307.291 64.0713 307.748 66.7227 308.663 67.7876C309.969 69.2219 311.951 69.9391 314.652 69.9391H317.113V71.8298H292.938V69.9391H295.334C298.296 69.9391 300.409 69.0481 301.628 67.2877C302.369 66.2011 302.761 63.7019 302.761 59.8335V11.6307C300.735 9.28357 299.211 7.74056 298.187 6.97992C297.142 6.24101 295.617 5.52384 293.614 4.89359C292.634 4.58934 291.131 4.43721 289.105 4.43721V2.54648H289.127Z" fill="#C9CACA"/>
<path d="M408.975 48.6412H382.1L377.396 59.5727C376.242 62.2675 375.654 64.2669 375.654 65.5926C375.654 66.6575 376.155 67.5703 377.156 68.3744C378.158 69.1785 380.336 69.7001 383.69 69.9391V71.8299H361.824V69.9391C364.721 69.4175 366.594 68.7656 367.465 67.9397C369.207 66.3098 371.124 62.9847 373.258 57.9862L397.65 0.960007H399.436L423.61 58.5947C425.548 63.2238 427.313 66.2229 428.902 67.6137C430.492 68.9829 432.692 69.7653 435.523 69.9391V71.8299H408.126V69.9391C410.891 69.8087 412.764 69.3523 413.723 68.57C414.703 67.7876 415.182 66.8314 415.182 65.7013C415.182 64.2017 414.507 61.8329 413.135 58.5947L408.931 48.6412H408.975ZM407.538 44.8598L395.755 16.8682L383.668 44.8598H407.538Z" fill="#C9CACA"/>
<path d="M491.581 52.6617L493.28 53.0312L487.334 71.8298H433.563V69.9391H436.176C439.116 69.9391 441.207 68.9829 442.47 67.0704C443.189 65.9838 443.537 63.4628 443.537 59.5075V14.8036C443.537 10.4789 443.058 7.76229 442.1 6.67566C440.772 5.17612 438.79 4.41548 436.154 4.41548H433.541V2.54648H464.989V4.43721C461.309 4.41548 458.717 4.74147 457.236 5.45864C455.755 6.17581 454.732 7.06685 454.187 8.17521C453.643 9.26184 453.36 11.8697 453.36 15.9989V59.5075C453.36 62.3327 453.643 64.2669 454.187 65.3318C454.601 66.049 455.233 66.5706 456.082 66.9183C456.931 67.266 459.588 67.4399 464.075 67.4399H469.149C474.485 67.4399 478.209 67.0487 480.365 66.2663C482.521 65.4839 484.481 64.0931 486.245 62.0937C488.009 60.0943 489.795 56.9648 491.581 52.6617V52.6617Z" fill="#C9CACA"/>
<path d="M66.5496 83.5437L68.3354 105.407H66.5496C64.7419 99.9518 62.4116 95.8443 59.5368 93.0843C55.3989 89.1072 50.1067 87.1078 43.6167 87.1078C34.7745 87.1078 28.045 90.6067 23.4497 97.5829C19.5948 103.472 17.6566 110.492 17.6566 118.642C17.6566 125.248 18.9415 131.268 21.4896 136.723C24.0377 142.178 27.4134 146.177 31.5513 148.698C35.6893 151.241 39.9579 152.501 44.3354 152.501C46.9052 152.501 49.3662 152.175 51.7619 151.523C54.1575 150.871 56.4661 149.915 58.6657 148.654V128.617C58.6657 125.14 58.4044 122.88 57.8817 121.793C57.359 120.728 56.5314 119.902 55.4207 119.337C54.31 118.772 52.3499 118.49 49.5622 118.49V116.555H76.4371V118.49H75.1521C72.4951 118.49 70.6657 119.381 69.6639 121.141C68.9888 122.401 68.6403 124.879 68.6403 128.595V149.806C64.7202 151.914 60.8436 153.479 57.0105 154.457C53.1775 155.435 48.9307 155.935 44.27 155.935C30.8544 155.935 20.662 151.653 13.6928 143.069C8.46597 136.636 5.85254 129.204 5.85254 120.793C5.85254 114.686 7.31171 108.862 10.2518 103.277C13.7364 96.6267 18.5059 91.5195 24.5822 87.9554C29.6784 84.9998 35.6675 83.5002 42.6149 83.5002C45.1412 83.5002 47.4279 83.6958 49.4969 84.1087C51.5659 84.5216 54.4842 85.4127 58.2737 86.8253C60.1902 87.5425 61.4751 87.8902 62.1067 87.8902C62.7383 87.8902 63.3045 87.5859 63.7619 86.9991C64.2192 86.4124 64.5024 85.2388 64.6113 83.5002H66.506L66.5496 83.5437Z" fill="#C9CACA"/>
<path d="M120.648 131.225H93.773L89.0688 142.156C87.9145 144.851 87.3265 146.851 87.3265 148.176C87.3265 149.241 87.8274 150.154 88.8292 150.958C89.831 151.762 92.0089 152.284 95.3628 152.523V154.414H73.4971V152.523C76.3936 152.001 78.2666 151.349 79.1377 150.523C80.88 148.893 82.7965 145.568 84.9308 140.57L109.345 83.5437H111.131L135.305 141.178C137.243 145.807 139.007 148.807 140.597 150.197C142.187 151.567 144.386 152.349 147.218 152.523V154.414H119.82V152.523C122.586 152.392 124.459 151.936 125.417 151.154C126.397 150.371 126.876 149.415 126.876 148.285C126.876 146.785 126.201 144.417 124.829 141.178L120.626 131.225H120.648ZM119.21 127.443L107.428 99.4519L95.341 127.443H119.21V127.443Z" fill="#C9CACA"/>
<path d="M214.013 154.414H195.48L171.981 122.01C170.238 122.075 168.823 122.119 167.734 122.119C167.298 122.119 166.819 122.119 166.296 122.097C165.774 122.075 165.251 122.054 164.707 122.01V142.135C164.707 146.503 165.186 149.198 166.144 150.263C167.451 151.762 169.389 152.501 171.981 152.501H174.703V154.392H144.953V152.501H147.567C150.507 152.501 152.598 151.545 153.861 149.632C154.58 148.567 154.928 146.068 154.928 142.113V97.3656C154.928 92.9973 154.449 90.3025 153.491 89.2376C152.162 87.738 150.18 86.9774 147.545 86.9774H144.932V85.0867H170.217C177.6 85.0867 183.022 85.63 186.529 86.6949C190.035 87.7598 192.997 89.7374 195.436 92.6279C197.875 95.5183 199.095 98.9303 199.095 102.929C199.095 107.189 197.701 110.883 194.914 114.013C192.126 117.142 187.814 119.359 181.977 120.663L196.307 140.548C199.574 145.112 202.405 148.155 204.758 149.632C207.11 151.11 210.18 152.088 213.97 152.501V154.392L214.013 154.414ZM164.707 118.794C165.36 118.794 165.926 118.794 166.405 118.816C166.884 118.816 167.277 118.837 167.581 118.837C174.202 118.837 179.189 117.403 182.565 114.556C185.919 111.687 187.618 108.058 187.618 103.625C187.618 99.1911 186.267 95.7791 183.545 93.0625C180.823 90.346 177.229 88.9985 172.765 88.9985C170.783 88.9985 168.104 89.3245 164.728 89.9765V118.794H164.707Z" fill="#C9CACA"/>
<path d="M209.635 154.414V152.523H212.248C215.188 152.523 217.257 151.588 218.499 149.719C219.239 148.589 219.631 146.068 219.631 142.156V97.4091C219.631 93.0843 219.152 90.3677 218.194 89.2811C216.865 87.7816 214.883 87.0209 212.248 87.0209H209.635V85.1302H237.903C248.27 85.1302 256.176 86.3037 261.577 88.6509C266.978 90.998 271.334 94.9098 274.644 100.408C277.933 105.885 279.588 112.231 279.588 119.424C279.588 129.073 276.648 137.114 270.789 143.591C264.19 150.806 254.172 154.414 240.691 154.414H209.657H209.635ZM229.453 149.415C233.787 150.371 237.424 150.849 240.364 150.849C248.292 150.849 254.847 148.068 260.074 142.526C265.301 136.984 267.914 129.443 267.914 119.946C267.914 110.449 265.301 102.82 260.074 97.3004C254.847 91.7804 248.139 89.0203 239.951 89.0203C236.88 89.0203 233.373 89.5202 229.453 90.4981V149.415V149.415Z" fill="#C9CACA"/>
<path d="M300.255 88.9116V116.295H315.522C319.486 116.295 322.121 115.708 323.449 114.513C325.213 112.948 326.215 110.188 326.411 106.232H328.306V130.356H326.411C325.932 126.987 325.453 124.814 324.974 123.858C324.364 122.662 323.362 121.728 321.947 121.054C320.553 120.38 318.397 120.033 315.5 120.033H300.233V142.874C300.233 145.938 300.364 147.807 300.647 148.459C300.93 149.133 301.388 149.654 302.085 150.045C302.76 150.436 304.066 150.632 305.983 150.632H317.765C321.685 150.632 324.538 150.371 326.324 149.806C328.088 149.263 329.809 148.198 331.442 146.59C333.555 144.482 335.733 141.287 337.954 137.027H340.001L334.012 154.392H280.502V152.501H282.963C284.596 152.501 286.164 152.11 287.624 151.328C288.713 150.784 289.453 149.958 289.845 148.872C290.237 147.785 290.433 145.547 290.433 142.178V97.17C290.433 92.78 289.997 90.0634 289.105 89.042C287.885 87.6729 285.838 86.9992 282.963 86.9992H280.502V85.1084H334.012L334.774 100.278H332.771C332.052 96.6267 331.268 94.1274 330.397 92.7583C329.526 91.3891 328.241 90.346 326.52 89.6505C325.148 89.1507 322.752 88.8899 319.311 88.8899H300.255V88.9116Z" fill="#C9CACA"/>
<path d="M335.777 85.1302H354.615L397.062 137.093V97.1265C397.062 92.8669 396.583 90.2156 395.624 89.1507C394.361 87.7163 392.357 86.9992 389.635 86.9992H387.24V85.1084H411.414V86.9992H408.953C406.013 86.9992 403.944 87.8902 402.702 89.6505C401.962 90.7372 401.57 93.2364 401.57 97.1048V155.5H399.719L353.94 99.7127V142.374C353.94 146.633 354.397 149.285 355.312 150.35C356.619 151.784 358.601 152.501 361.301 152.501H363.762V154.392H339.588V152.501H341.984C344.945 152.501 347.058 151.61 348.278 149.85C349.018 148.763 349.41 146.264 349.41 142.395V94.2144C347.385 91.8672 345.86 90.3242 344.837 89.5636C343.791 88.8247 342.267 88.1075 340.263 87.4773C339.283 87.173 337.78 87.0209 335.755 87.0209V85.1302H335.777Z" fill="#C9CACA"/>
</svg>
