<svg width="200" height="8" viewBox="0 0 200 8" fill="none" xmlns="http://www.w3.org/2000/svg">
<path d="M0.0593734 2.55686C0.0593734 2.21176 0.0519517 1.87451 0.0371084 1.5451C0.0272128 1.21046 0.0148433 0.870588 0 0.52549C0.0643212 0.535948 0.126168 0.546405 0.185542 0.556863C0.244915 0.562092 0.304289 0.564706 0.363662 0.564706C0.423035 0.564706 0.482409 0.562092 0.541782 0.556863C0.601155 0.546405 0.663003 0.535948 0.727324 0.52549C0.71248 0.870588 0.697637 1.21046 0.682794 1.5451C0.672898 1.87451 0.66795 2.21176 0.66795 2.55686V3.90588C0.66795 4.25098 0.672898 4.59085 0.682794 4.92549C0.697637 5.26013 0.71248 5.58954 0.727324 5.91373C0.613525 5.90327 0.492304 5.89804 0.363662 5.89804C0.23502 5.89804 0.113799 5.90327 0 5.91373C0.0148433 5.58954 0.0272128 5.26013 0.0371084 4.92549C0.0519517 4.59085 0.0593734 4.25098 0.0593734 3.90588V2.55686Z" fill="white"/>
<path d="M5.04911 3.7098C5.04911 3.31765 4.97737 3.02222 4.83389 2.82353C4.6904 2.61961 4.49249 2.51765 4.24015 2.51765C3.89381 2.51765 3.639 2.63007 3.47572 2.8549C3.31739 3.07974 3.23823 3.39608 3.23823 3.80392V4.47059C3.23823 4.70588 3.2407 4.95425 3.24565 5.21569C3.25554 5.4719 3.27286 5.70458 3.2976 5.91373C3.1838 5.90327 3.07248 5.89804 2.96362 5.89804C2.85477 5.89804 2.74345 5.90327 2.62965 5.91373C2.65439 5.70458 2.66923 5.4719 2.67418 5.21569C2.68407 4.95425 2.68902 4.70588 2.68902 4.47059V3.6549C2.68902 3.41961 2.68407 3.17386 2.67418 2.91765C2.66923 2.65621 2.65439 2.41307 2.62965 2.18824C2.76819 2.21438 2.87951 2.22745 2.96362 2.22745C3.00321 2.22745 3.04526 2.22484 3.08979 2.21961C3.13927 2.20915 3.19617 2.19869 3.26049 2.18824C3.24565 2.39739 3.23823 2.60654 3.23823 2.81569H3.25307C3.39161 2.59085 3.55736 2.4183 3.75032 2.29804C3.94328 2.17255 4.17336 2.1098 4.44054 2.1098C4.57907 2.1098 4.71761 2.13072 4.85615 2.17255C4.99964 2.21438 5.12828 2.28758 5.24208 2.39216C5.35588 2.4915 5.44741 2.63007 5.51668 2.80784C5.5909 2.98039 5.628 3.20261 5.628 3.47451C5.628 3.69935 5.62306 3.93203 5.61316 4.17255C5.60327 4.40784 5.59832 4.65882 5.59832 4.92549V5.43529C5.59832 5.51895 5.59832 5.60261 5.59832 5.68627C5.60327 5.76471 5.60821 5.84052 5.61316 5.91373C5.51421 5.90327 5.4103 5.89804 5.30145 5.89804C5.19755 5.89804 5.09612 5.90327 4.99716 5.91373C5.00706 5.64183 5.01695 5.36209 5.02685 5.07451C5.04169 4.78693 5.04911 4.4915 5.04911 4.18824V3.7098Z" fill="white"/>
<path d="M8.09693 1.13725C8.08208 1.33595 8.06971 1.53203 8.05982 1.72549C8.05487 1.91373 8.04745 2.10458 8.03755 2.29804C8.09198 2.29804 8.19341 2.29804 8.34184 2.29804C8.49028 2.29281 8.65108 2.28497 8.82425 2.27451C8.8193 2.2902 8.81683 2.31895 8.81683 2.36078V2.52549C8.81683 2.56209 8.8193 2.58824 8.82425 2.60392C8.75993 2.59869 8.69314 2.59608 8.62387 2.59608C8.5546 2.59085 8.48038 2.58824 8.40122 2.58824H8.03755C8.03261 2.60915 8.02518 2.69281 8.01529 2.83922C8.01034 2.98562 8.00539 3.16078 8.00045 3.36471C7.9955 3.5634 7.99055 3.77255 7.9856 3.99216C7.9856 4.21176 7.9856 4.40784 7.9856 4.58039C7.9856 4.7268 7.98808 4.87059 7.99302 5.01176C8.00292 5.15294 8.02766 5.28105 8.06724 5.39608C8.10682 5.50588 8.1662 5.59477 8.24536 5.66274C8.32452 5.73072 8.43832 5.76471 8.58676 5.76471C8.62634 5.76471 8.67829 5.75948 8.74261 5.74902C8.81188 5.73856 8.87125 5.72549 8.92073 5.7098V5.89804C8.83662 5.91373 8.74261 5.93203 8.63871 5.95294C8.53975 5.97908 8.44327 5.99216 8.34926 5.99216C8.03755 5.99216 7.80748 5.91111 7.65905 5.74902C7.51062 5.58693 7.4364 5.34902 7.4364 5.03529C7.4364 4.89412 7.43887 4.74248 7.44382 4.58039C7.44877 4.41307 7.45372 4.23268 7.45866 4.03922C7.46856 3.84052 7.47598 3.62353 7.48093 3.38824C7.48588 3.14771 7.48835 2.88105 7.48835 2.58824H7.25086C7.21127 2.58824 7.16922 2.59085 7.12469 2.59608C7.08016 2.59608 7.03315 2.59869 6.98368 2.60392C6.98862 2.57255 6.9911 2.54379 6.9911 2.51765C6.99605 2.48627 6.99852 2.4549 6.99852 2.42353C6.99852 2.39739 6.99605 2.37124 6.9911 2.3451C6.9911 2.31895 6.98862 2.29281 6.98368 2.26667C7.20633 2.28235 7.3696 2.2902 7.47351 2.2902C7.46856 2.18562 7.46361 2.0549 7.45866 1.89804C7.45866 1.74118 7.45372 1.57908 7.44382 1.41176L8.05982 1.13725H8.09693Z" fill="white"/>
<path d="M11.5652 2.36078C11.3822 2.36078 11.2263 2.40523 11.0977 2.49412C10.974 2.58301 10.8701 2.69542 10.7859 2.83137C10.7068 2.96209 10.6449 3.1085 10.6004 3.27059C10.5608 3.42745 10.5361 3.57647 10.5262 3.71765C10.6796 3.72288 10.8379 3.7281 11.0012 3.73333C11.1694 3.73856 11.3327 3.74118 11.491 3.74118C11.6543 3.74118 11.82 3.73856 11.9883 3.73333C12.1565 3.7281 12.3198 3.72288 12.4781 3.71765C12.4781 3.57647 12.4657 3.42745 12.441 3.27059C12.4212 3.11373 12.3767 2.96732 12.3074 2.83137C12.2431 2.69542 12.1515 2.58301 12.0328 2.49412C11.914 2.40523 11.7582 2.36078 11.5652 2.36078ZM9.85082 4.17255C9.85082 3.52941 9.9943 3.02484 10.2813 2.65882C10.5732 2.29281 10.9962 2.1098 11.5504 2.1098C11.8126 2.1098 12.0377 2.15425 12.2258 2.24314C12.4187 2.3268 12.5795 2.44183 12.7082 2.58824C12.8368 2.72941 12.9308 2.89673 12.9902 3.0902C13.0545 3.28366 13.0867 3.4902 13.0867 3.7098C13.0867 3.76209 13.0842 3.81438 13.0792 3.86667C13.0792 3.91373 13.0768 3.9634 13.0718 4.01569C12.8046 4.01046 12.5399 4.00523 12.2777 4C12.0155 3.99477 11.7508 3.99216 11.4836 3.99216C11.3203 3.99216 11.157 3.99477 10.9938 4C10.8354 4.00523 10.6746 4.01046 10.5113 4.01569C10.5064 4.04183 10.5039 4.08105 10.5039 4.13333V4.23529C10.5039 4.43922 10.5311 4.63007 10.5856 4.80784C10.6449 4.98562 10.7291 5.13987 10.8379 5.27059C10.9468 5.39608 11.0803 5.49804 11.2387 5.57647C11.397 5.64967 11.5801 5.68627 11.7879 5.68627C11.8868 5.68627 11.9883 5.6732 12.0922 5.64706C12.1961 5.61569 12.2975 5.57647 12.3965 5.52941C12.4954 5.47712 12.5869 5.41699 12.6711 5.34902C12.7601 5.28105 12.8368 5.20784 12.9011 5.12941L12.9382 5.15294L12.8937 5.53725C12.7453 5.66274 12.5597 5.76993 12.3371 5.85882C12.1194 5.94771 11.8918 5.99216 11.6543 5.99216C11.3871 5.99216 11.1422 5.95033 10.9195 5.86667C10.7018 5.77778 10.5113 5.65229 10.3481 5.4902C10.1897 5.32288 10.066 5.1268 9.97699 4.90196C9.89288 4.67712 9.85082 4.43399 9.85082 4.17255Z" fill="white"/>
<path d="M16.2335 2.83137C16.2087 2.8 16.1592 2.77124 16.085 2.7451C16.0158 2.71895 15.944 2.70588 15.8698 2.70588C15.751 2.70588 15.6447 2.73464 15.5507 2.79216C15.4567 2.84967 15.3775 2.9281 15.3132 3.02745C15.2488 3.12157 15.1994 3.2366 15.1647 3.37255C15.1301 3.50327 15.1128 3.64444 15.1128 3.79608V4.65882C15.1128 5.00915 15.1128 5.27843 15.1128 5.46667C15.1177 5.64967 15.1276 5.79869 15.1425 5.91373C15.0435 5.90327 14.9446 5.89804 14.8456 5.89804C14.7368 5.89804 14.6328 5.90327 14.5339 5.91373C14.5487 5.73595 14.5562 5.49542 14.5562 5.19216C14.5611 4.88366 14.5636 4.50719 14.5636 4.06275V3.81176C14.5636 3.60784 14.5611 3.37255 14.5562 3.10588C14.5562 2.83922 14.5487 2.53333 14.5339 2.18824C14.5883 2.19869 14.6403 2.20915 14.6897 2.21961C14.7392 2.22484 14.7912 2.22745 14.8456 2.22745C14.8901 2.22745 14.9371 2.22484 14.9866 2.21961C15.0361 2.20915 15.088 2.19869 15.1425 2.18824C15.1227 2.37647 15.1103 2.52549 15.1054 2.63529C15.1054 2.7451 15.1054 2.84967 15.1054 2.94902L15.1202 2.95686C15.4121 2.39216 15.7387 2.1098 16.0999 2.1098C16.1444 2.1098 16.1815 2.11242 16.2112 2.11765C16.2458 2.12288 16.2879 2.13595 16.3374 2.15686C16.3126 2.21961 16.2978 2.31634 16.2928 2.44706C16.2879 2.57255 16.2854 2.68758 16.2854 2.79216L16.2335 2.83137Z" fill="white"/>
<path d="M20.0928 3.7098C20.0928 3.31765 20.021 3.02222 19.8776 2.82353C19.7341 2.61961 19.5362 2.51765 19.2838 2.51765C18.9375 2.51765 18.6827 2.63007 18.5194 2.8549C18.3611 3.07974 18.2819 3.39608 18.2819 3.80392V4.47059C18.2819 4.70588 18.2844 4.95425 18.2893 5.21569C18.2992 5.4719 18.3165 5.70458 18.3413 5.91373C18.2275 5.90327 18.1161 5.89804 18.0073 5.89804C17.8984 5.89804 17.7871 5.90327 17.6733 5.91373C17.6981 5.70458 17.7129 5.4719 17.7178 5.21569C17.7277 4.95425 17.7327 4.70588 17.7327 4.47059V3.6549C17.7327 3.41961 17.7277 3.17386 17.7178 2.91765C17.7129 2.65621 17.6981 2.41307 17.6733 2.18824C17.8119 2.21438 17.9232 2.22745 18.0073 2.22745C18.0469 2.22745 18.0889 2.22484 18.1335 2.21961C18.1829 2.20915 18.2398 2.19869 18.3042 2.18824C18.2893 2.39739 18.2819 2.60654 18.2819 2.81569H18.2967C18.4353 2.59085 18.601 2.4183 18.794 2.29804C18.987 2.17255 19.217 2.1098 19.4842 2.1098C19.6227 2.1098 19.7613 2.13072 19.8998 2.17255C20.0433 2.21438 20.1719 2.28758 20.2857 2.39216C20.3995 2.4915 20.4911 2.63007 20.5603 2.80784C20.6346 2.98039 20.6717 3.20261 20.6717 3.47451C20.6717 3.69935 20.6667 3.93203 20.6568 4.17255C20.6469 4.40784 20.642 4.65882 20.642 4.92549V5.43529C20.642 5.51895 20.642 5.60261 20.642 5.68627C20.6469 5.76471 20.6519 5.84052 20.6568 5.91373C20.5579 5.90327 20.454 5.89804 20.3451 5.89804C20.2412 5.89804 20.1398 5.90327 20.0408 5.91373C20.0507 5.64183 20.0606 5.36209 20.0705 5.07451C20.0854 4.78693 20.0928 4.4915 20.0928 4.18824V3.7098Z" fill="white"/>
<path d="M24.3726 3.96078C24.2885 3.99216 24.1895 4.0183 24.0757 4.03922C23.9669 4.06013 23.8556 4.08366 23.7418 4.1098C23.628 4.13072 23.5142 4.15948 23.4004 4.19608C23.2915 4.23268 23.1925 4.28235 23.1035 4.3451C23.0194 4.40784 22.9501 4.48627 22.8957 4.58039C22.8462 4.67451 22.8215 4.79477 22.8215 4.94118C22.8215 5.18693 22.8883 5.37255 23.0219 5.49804C23.1554 5.62353 23.3039 5.68627 23.4672 5.68627C23.6552 5.68627 23.8259 5.63137 23.9792 5.52157C24.1376 5.41176 24.2588 5.28366 24.3429 5.13725L24.3726 3.96078ZM22.5394 2.56471C22.7621 2.38693 22.9674 2.26667 23.1554 2.20392C23.3435 2.14118 23.5364 2.1098 23.7343 2.1098C23.9125 2.1098 24.0757 2.13856 24.2242 2.19608C24.3726 2.24837 24.4988 2.3268 24.6027 2.43137C24.7066 2.53072 24.7882 2.65359 24.8476 2.8C24.907 2.94118 24.9366 3.09804 24.9366 3.27059C24.9366 3.56863 24.9317 3.86667 24.9218 4.16471C24.9119 4.45752 24.907 4.76863 24.907 5.09804C24.907 5.16078 24.907 5.22876 24.907 5.30196C24.9119 5.36993 24.9243 5.43268 24.9441 5.4902C24.9639 5.54248 24.9911 5.58693 25.0257 5.62353C25.0653 5.66013 25.1222 5.67843 25.1964 5.67843C25.2211 5.67843 25.2459 5.67843 25.2706 5.67843C25.3003 5.6732 25.3275 5.66275 25.3523 5.64706V5.81961C25.2978 5.84575 25.2286 5.86667 25.1444 5.88235C25.0653 5.89804 24.9762 5.90588 24.8773 5.90588C24.7189 5.90588 24.5977 5.86405 24.5136 5.78039C24.4295 5.6915 24.38 5.57908 24.3652 5.44314C24.1871 5.63137 24.0114 5.76993 23.8382 5.85882C23.6651 5.94771 23.4523 5.99216 23.2 5.99216C23.0763 5.99216 22.9551 5.97386 22.8363 5.93725C22.7176 5.90065 22.6112 5.84052 22.5172 5.75686C22.4281 5.6732 22.3539 5.57386 22.2945 5.45882C22.2401 5.33856 22.2129 5.20261 22.2129 5.05098C22.2129 4.73726 22.3044 4.49412 22.4875 4.32157C22.6755 4.14902 22.9328 4.03399 23.2593 3.97647C23.5265 3.92941 23.7343 3.8902 23.8828 3.85882C24.0361 3.82222 24.1475 3.78562 24.2167 3.74902C24.291 3.71242 24.3355 3.67059 24.3503 3.62353C24.3652 3.57124 24.3726 3.50588 24.3726 3.42745C24.3726 3.29673 24.3578 3.17124 24.3281 3.05098C24.2984 2.93072 24.2514 2.82614 24.1871 2.73725C24.1227 2.64837 24.0386 2.57778 23.9347 2.52549C23.8308 2.46797 23.7046 2.43922 23.5562 2.43922C23.3583 2.43922 23.1728 2.48627 22.9996 2.58039C22.8314 2.67451 22.7052 2.80523 22.6211 2.97255H22.5394V2.56471Z" fill="white"/>
<path d="M27.5194 1.13725C27.5045 1.33595 27.4922 1.53203 27.4823 1.72549C27.4773 1.91373 27.4699 2.10458 27.46 2.29804C27.5144 2.29804 27.6159 2.29804 27.7643 2.29804C27.9127 2.29281 28.0735 2.28497 28.2467 2.27451C28.2418 2.2902 28.2393 2.31895 28.2393 2.36078V2.52549C28.2393 2.56209 28.2418 2.58824 28.2467 2.60392C28.1824 2.59869 28.1156 2.59608 28.0463 2.59608C27.9771 2.59085 27.9028 2.58824 27.8237 2.58824H27.46C27.4551 2.60915 27.4476 2.69281 27.4377 2.83922C27.4328 2.98562 27.4278 3.16078 27.4229 3.36471C27.418 3.5634 27.413 3.77255 27.4081 3.99216C27.4081 4.21176 27.4081 4.40784 27.4081 4.58039C27.4081 4.7268 27.4105 4.87059 27.4155 5.01176C27.4254 5.15294 27.4501 5.28105 27.4897 5.39608C27.5293 5.50588 27.5887 5.59477 27.6678 5.66274C27.747 5.73072 27.8608 5.76471 28.0092 5.76471C28.0488 5.76471 28.1007 5.75948 28.1651 5.74902C28.2343 5.73856 28.2937 5.72549 28.3432 5.7098V5.89804C28.2591 5.91373 28.1651 5.93203 28.0612 5.95294C27.9622 5.97908 27.8657 5.99216 27.7717 5.99216C27.46 5.99216 27.2299 5.91111 27.0815 5.74902C26.9331 5.58693 26.8589 5.34902 26.8589 5.03529C26.8589 4.89412 26.8613 4.74248 26.8663 4.58039C26.8712 4.41307 26.8762 4.23268 26.8811 4.03922C26.891 3.84052 26.8984 3.62353 26.9034 3.38824C26.9083 3.14771 26.9108 2.88105 26.9108 2.58824H26.6733C26.6337 2.58824 26.5917 2.59085 26.5471 2.59608C26.5026 2.59608 26.4556 2.59869 26.4061 2.60392C26.4111 2.57255 26.4136 2.54379 26.4136 2.51765C26.4185 2.48627 26.421 2.4549 26.421 2.42353C26.421 2.39739 26.4185 2.37124 26.4136 2.3451C26.4136 2.31895 26.4111 2.29281 26.4061 2.26667C26.6288 2.28235 26.7921 2.2902 26.896 2.2902C26.891 2.18562 26.8861 2.0549 26.8811 1.89804C26.8811 1.74118 26.8762 1.57908 26.8663 1.41176L27.4823 1.13725H27.5194Z" fill="white"/>
<path d="M29.6666 0.82353C29.6666 0.713725 29.7037 0.619608 29.7779 0.541176C29.8522 0.462745 29.9412 0.42353 30.0451 0.42353C30.149 0.42353 30.2381 0.462745 30.3123 0.541176C30.3865 0.619608 30.4236 0.713725 30.4236 0.82353C30.4236 0.933333 30.3865 1.02745 30.3123 1.10588C30.2381 1.18431 30.149 1.22353 30.0451 1.22353C29.9412 1.22353 29.8522 1.18431 29.7779 1.10588C29.7037 1.02745 29.6666 0.933333 29.6666 0.82353ZM29.7705 3.6549C29.7705 3.41961 29.7656 3.17386 29.7557 2.91765C29.7507 2.65621 29.7359 2.41307 29.7112 2.18824C29.8497 2.21438 29.961 2.22745 30.0451 2.22745C30.1292 2.22745 30.2406 2.21438 30.3791 2.18824C30.3544 2.41307 30.337 2.65621 30.3272 2.91765C30.3222 3.17386 30.3197 3.41961 30.3197 3.6549V4.47059C30.3197 4.70588 30.3222 4.95425 30.3272 5.21569C30.337 5.4719 30.3544 5.70458 30.3791 5.91373C30.2653 5.90327 30.154 5.89804 30.0451 5.89804C29.9363 5.89804 29.825 5.90327 29.7112 5.91373C29.7359 5.70458 29.7507 5.4719 29.7557 5.21569C29.7656 4.95425 29.7705 4.70588 29.7705 4.47059V3.6549Z" fill="white"/>
<path d="M32.6599 4.06275C32.6599 4.28235 32.6772 4.49412 32.7119 4.69804C32.7515 4.90196 32.8158 5.08497 32.9049 5.24706C32.9939 5.40392 33.1127 5.52941 33.2611 5.62353C33.4095 5.71765 33.5926 5.76471 33.8103 5.76471C34.028 5.76471 34.2111 5.71765 34.3595 5.62353C34.5079 5.52941 34.6267 5.40392 34.7157 5.24706C34.8048 5.08497 34.8666 4.90196 34.9013 4.69804C34.9409 4.49412 34.9607 4.28235 34.9607 4.06275C34.9607 3.84314 34.9409 3.63137 34.9013 3.42745C34.8666 3.22353 34.8048 3.04314 34.7157 2.88627C34.6267 2.72418 34.5079 2.59608 34.3595 2.50196C34.2111 2.40784 34.028 2.36078 33.8103 2.36078C33.5926 2.36078 33.4095 2.40784 33.2611 2.50196C33.1127 2.59608 32.9939 2.72418 32.9049 2.88627C32.8158 3.04314 32.7515 3.22353 32.7119 3.42745C32.6772 3.63137 32.6599 3.84314 32.6599 4.06275ZM32.0068 4.06275C32.0068 3.70719 32.0588 3.40654 32.1627 3.16078C32.2715 2.9098 32.4125 2.7085 32.5857 2.55686C32.7589 2.4 32.9519 2.28758 33.1646 2.21961C33.3823 2.14641 33.5975 2.1098 33.8103 2.1098C34.028 2.1098 34.2432 2.14641 34.456 2.21961C34.6687 2.28758 34.8617 2.4 35.0349 2.55686C35.208 2.7085 35.3466 2.9098 35.4505 3.16078C35.5593 3.40654 35.6138 3.70719 35.6138 4.06275C35.6138 4.4183 35.5593 4.72157 35.4505 4.97255C35.3466 5.2183 35.208 5.41961 35.0349 5.57647C34.8617 5.7281 34.6687 5.83529 34.456 5.89804C34.2432 5.96078 34.028 5.99216 33.8103 5.99216C33.5975 5.99216 33.3823 5.96078 33.1646 5.89804C32.9519 5.83529 32.7589 5.7281 32.5857 5.57647C32.4125 5.41961 32.2715 5.2183 32.1627 4.97255C32.0588 4.72157 32.0068 4.4183 32.0068 4.06275Z" fill="white"/>
<path d="M39.5225 3.7098C39.5225 3.31765 39.4507 3.02222 39.3073 2.82353C39.1638 2.61961 38.9659 2.51765 38.7135 2.51765C38.3672 2.51765 38.1124 2.63007 37.9491 2.8549C37.7908 3.07974 37.7116 3.39608 37.7116 3.80392V4.47059C37.7116 4.70588 37.7141 4.95425 37.719 5.21569C37.7289 5.4719 37.7462 5.70458 37.771 5.91373C37.6572 5.90327 37.5458 5.89804 37.437 5.89804C37.3281 5.89804 37.2168 5.90327 37.103 5.91373C37.1278 5.70458 37.1426 5.4719 37.1475 5.21569C37.1574 4.95425 37.1624 4.70588 37.1624 4.47059V3.6549C37.1624 3.41961 37.1574 3.17386 37.1475 2.91765C37.1426 2.65621 37.1278 2.41307 37.103 2.18824C37.2416 2.21438 37.3529 2.22745 37.437 2.22745C37.4766 2.22745 37.5186 2.22484 37.5632 2.21961C37.6126 2.20915 37.6695 2.19869 37.7339 2.18824C37.719 2.39739 37.7116 2.60654 37.7116 2.81569H37.7264C37.865 2.59085 38.0307 2.4183 38.2237 2.29804C38.4167 2.17255 38.6467 2.1098 38.9139 2.1098C39.0524 2.1098 39.191 2.13072 39.3295 2.17255C39.473 2.21438 39.6017 2.28758 39.7155 2.39216C39.8292 2.4915 39.9208 2.63007 39.9901 2.80784C40.0643 2.98039 40.1014 3.20261 40.1014 3.47451C40.1014 3.69935 40.0964 3.93203 40.0865 4.17255C40.0766 4.40784 40.0717 4.65882 40.0717 4.92549V5.43529C40.0717 5.51895 40.0717 5.60261 40.0717 5.68627C40.0766 5.76471 40.0816 5.84052 40.0865 5.91373C39.9876 5.90327 39.8837 5.89804 39.7748 5.89804C39.6709 5.89804 39.5695 5.90327 39.4705 5.91373C39.4804 5.64183 39.4903 5.36209 39.5002 5.07451C39.5151 4.78693 39.5225 4.4915 39.5225 4.18824V3.7098Z" fill="white"/>
<path d="M43.8023 3.96078C43.7182 3.99216 43.6192 4.0183 43.5054 4.03922C43.3966 4.06013 43.2853 4.08366 43.1715 4.1098C43.0577 4.13072 42.9439 4.15948 42.8301 4.19608C42.7212 4.23268 42.6223 4.28235 42.5332 4.3451C42.4491 4.40784 42.3798 4.48627 42.3254 4.58039C42.2759 4.67451 42.2512 4.79477 42.2512 4.94118C42.2512 5.18693 42.318 5.37255 42.4515 5.49804C42.5851 5.62353 42.7336 5.68627 42.8969 5.68627C43.0849 5.68627 43.2556 5.63137 43.409 5.52157C43.5673 5.41176 43.6885 5.28366 43.7726 5.13725L43.8023 3.96078ZM41.9691 2.56471C42.1918 2.38693 42.3971 2.26667 42.5851 2.20392C42.7732 2.14118 42.9661 2.1098 43.164 2.1098C43.3422 2.1098 43.5054 2.13856 43.6539 2.19608C43.8023 2.24837 43.9285 2.3268 44.0324 2.43137C44.1363 2.53072 44.2179 2.65359 44.2773 2.8C44.3367 2.94118 44.3663 3.09804 44.3663 3.27059C44.3663 3.56863 44.3614 3.86667 44.3515 4.16471C44.3416 4.45752 44.3367 4.76863 44.3367 5.09804C44.3367 5.16078 44.3367 5.22876 44.3367 5.30196C44.3416 5.36993 44.354 5.43268 44.3738 5.4902C44.3936 5.54248 44.4208 5.58693 44.4554 5.62353C44.495 5.66013 44.5519 5.67843 44.6261 5.67843C44.6508 5.67843 44.6756 5.67843 44.7003 5.67843C44.73 5.6732 44.7572 5.66275 44.782 5.64706V5.81961C44.7275 5.84575 44.6583 5.86667 44.5742 5.88235C44.495 5.89804 44.4059 5.90588 44.307 5.90588C44.1486 5.90588 44.0274 5.86405 43.9433 5.78039C43.8592 5.6915 43.8097 5.57908 43.7949 5.44314C43.6168 5.63137 43.4411 5.76993 43.2679 5.85882C43.0948 5.94771 42.882 5.99216 42.6297 5.99216C42.506 5.99216 42.3848 5.97386 42.266 5.93725C42.1473 5.90065 42.0409 5.84052 41.9469 5.75686C41.8578 5.6732 41.7836 5.57386 41.7242 5.45882C41.6698 5.33856 41.6426 5.20261 41.6426 5.05098C41.6426 4.73726 41.7341 4.49412 41.9172 4.32157C42.1052 4.14902 42.3625 4.03399 42.689 3.97647C42.9562 3.92941 43.164 3.8902 43.3125 3.85882C43.4658 3.82222 43.5772 3.78562 43.6464 3.74902C43.7207 3.71242 43.7652 3.67059 43.78 3.62353C43.7949 3.57124 43.8023 3.50588 43.8023 3.42745C43.8023 3.29673 43.7875 3.17124 43.7578 3.05098C43.7281 2.93072 43.6811 2.82614 43.6168 2.73725C43.5524 2.64837 43.4683 2.57778 43.3644 2.52549C43.2605 2.46797 43.1343 2.43922 42.9859 2.43922C42.788 2.43922 42.6025 2.48627 42.4293 2.58039C42.2611 2.67451 42.1349 2.80523 42.0508 2.97255H41.9691V2.56471Z" fill="white"/>
<path d="M46.4667 2.25882C46.4667 2.08105 46.4642 1.88758 46.4593 1.67843C46.4593 1.46928 46.4568 1.26275 46.4518 1.05882C46.4469 0.854902 46.4395 0.661438 46.4296 0.478431C46.4246 0.290196 46.4172 0.130719 46.4073 0C46.5458 0.0261438 46.6572 0.0392156 46.7413 0.0392156C46.8254 0.0392156 46.9367 0.0261438 47.0753 0C47.0654 0.130719 47.0555 0.290196 47.0456 0.478431C47.0406 0.661438 47.0357 0.854902 47.0307 1.05882C47.0258 1.26275 47.0208 1.46928 47.0159 1.67843C47.0159 1.88758 47.0159 2.08105 47.0159 2.25882V3.67843C47.0159 3.85621 47.0159 4.04967 47.0159 4.25882C47.0208 4.46797 47.0258 4.67451 47.0307 4.87843C47.0357 5.08235 47.0406 5.27582 47.0456 5.45882C47.0555 5.64183 47.0654 5.79346 47.0753 5.91373C46.9615 5.90327 46.8501 5.89804 46.7413 5.89804C46.6324 5.89804 46.5211 5.90327 46.4073 5.91373C46.4172 5.79346 46.4246 5.64183 46.4296 5.45882C46.4395 5.27582 46.4469 5.08235 46.4518 4.87843C46.4568 4.67451 46.4593 4.46797 46.4593 4.25882C46.4642 4.04967 46.4667 3.85621 46.4667 3.67843V2.25882Z" fill="white"/>
<path d="M50.6029 3.84314V4.32941H48.7549V3.84314H50.6029Z" fill="white"/>
<path d="M54.5884 6.7451C54.5884 6.43137 54.5018 6.21176 54.3287 6.08627C54.1555 5.96078 53.8685 5.89804 53.4677 5.89804C53.0967 5.89804 52.8097 5.96078 52.6068 6.08627C52.404 6.21699 52.3025 6.44967 52.3025 6.78431C52.3025 6.96209 52.3298 7.11373 52.3842 7.23922C52.4436 7.36471 52.5202 7.46667 52.6143 7.5451C52.7132 7.62353 52.8295 7.68105 52.9631 7.71765C53.0967 7.75425 53.2401 7.77255 53.3935 7.77255C53.542 7.77255 53.6879 7.75163 53.8314 7.7098C53.9749 7.66797 54.1011 7.60523 54.2099 7.52157C54.3237 7.43791 54.4152 7.33072 54.4845 7.2C54.5538 7.07451 54.5884 6.92288 54.5884 6.7451ZM54.1876 3.34902C54.1876 3.01961 54.1134 2.76863 53.965 2.59608C53.8166 2.42353 53.6211 2.33725 53.3787 2.33725C53.1115 2.33725 52.9037 2.43399 52.7553 2.62745C52.6068 2.81569 52.5326 3.06928 52.5326 3.38824C52.5326 3.71765 52.5994 3.97908 52.733 4.17255C52.8715 4.36078 53.0843 4.4549 53.3713 4.4549C53.5148 4.4549 53.636 4.42614 53.7349 4.36863C53.8388 4.30588 53.9229 4.22484 53.9873 4.12549C54.0565 4.02092 54.106 3.90327 54.1357 3.77255C54.1703 3.6366 54.1876 3.49542 54.1876 3.34902ZM51.9537 3.38824C51.9537 3.16863 51.9908 2.98039 52.0651 2.82353C52.1393 2.66144 52.2407 2.5281 52.3693 2.42353C52.5029 2.31895 52.6538 2.24052 52.8221 2.18824C52.9952 2.13595 53.1783 2.1098 53.3713 2.1098C53.4653 2.1098 53.5543 2.11242 53.6384 2.11765C53.7275 2.12288 53.8388 2.13072 53.9724 2.14118C54.0862 2.15163 54.1876 2.15948 54.2767 2.16471C54.3658 2.16993 54.4375 2.17255 54.4919 2.17255C54.769 2.17255 54.9694 2.15948 55.0931 2.13333C55.0881 2.15948 55.0832 2.18824 55.0783 2.21961C55.0783 2.24575 55.0783 2.2719 55.0783 2.29804C55.0783 2.32418 55.0783 2.35294 55.0783 2.38431C55.0832 2.41046 55.0881 2.4366 55.0931 2.46274C54.9496 2.45229 54.8086 2.44183 54.6701 2.43137C54.5365 2.41569 54.4029 2.40523 54.2693 2.4L54.2544 2.41569C54.4078 2.50458 54.5315 2.64314 54.6255 2.83137C54.7195 3.01438 54.7665 3.20523 54.7665 3.40392C54.7665 3.79608 54.6404 4.10458 54.388 4.32941C54.1406 4.54902 53.8067 4.65882 53.3861 4.65882C53.3168 4.65882 53.2476 4.65621 53.1783 4.65098C53.114 4.64575 53.0472 4.64314 52.9779 4.64314C52.8889 4.64314 52.8047 4.67712 52.7256 4.7451C52.6514 4.81307 52.6143 4.89935 52.6143 5.00392C52.6143 5.13987 52.6439 5.23922 52.7033 5.30196C52.7676 5.36471 52.8839 5.39869 53.0521 5.40392C53.1907 5.40915 53.3267 5.41438 53.4603 5.41961C53.5939 5.41961 53.73 5.42222 53.8685 5.42745C54.0961 5.43268 54.2891 5.46144 54.4474 5.51373C54.6107 5.56601 54.7418 5.6366 54.8408 5.72549C54.9447 5.81438 55.0189 5.91634 55.0634 6.03137C55.1129 6.14641 55.1376 6.2719 55.1376 6.40784C55.1376 6.59085 55.103 6.77647 55.0337 6.96471C54.9694 7.15294 54.8655 7.32288 54.722 7.47451C54.5835 7.62614 54.4029 7.75163 54.1802 7.85098C53.9576 7.95033 53.6904 8 53.3787 8C52.8988 8 52.5202 7.89804 52.2432 7.69412C51.9661 7.49543 51.8276 7.22092 51.8276 6.87059C51.8276 6.73464 51.8498 6.60915 51.8944 6.49412C51.9438 6.37909 52.0057 6.27712 52.0799 6.18824C52.1541 6.09935 52.2382 6.02876 52.3322 5.97647C52.4262 5.92418 52.5227 5.88497 52.6217 5.85882V5.84314C52.4683 5.79608 52.352 5.71765 52.2729 5.60784C52.1937 5.49804 52.1541 5.36732 52.1541 5.21569C52.1541 5.1268 52.169 5.04575 52.1986 4.97255C52.2333 4.89935 52.2753 4.83399 52.3248 4.77647C52.3743 4.71895 52.4312 4.6719 52.4955 4.63529C52.5598 4.59869 52.6217 4.57516 52.681 4.56471V4.54902C52.4534 4.44444 52.2753 4.29804 52.1467 4.1098C52.018 3.91634 51.9537 3.67582 51.9537 3.38824Z" fill="white"/>
<path d="M58.225 2.83137C58.2003 2.8 58.1508 2.77124 58.0766 2.7451C58.0073 2.71895 57.9356 2.70588 57.8614 2.70588C57.7426 2.70588 57.6363 2.73464 57.5422 2.79216C57.4482 2.84967 57.3691 2.9281 57.3048 3.02745C57.2404 3.12157 57.191 3.2366 57.1563 3.37255C57.1217 3.50327 57.1044 3.64444 57.1044 3.79608V4.65882C57.1044 5.00915 57.1044 5.27843 57.1044 5.46667C57.1093 5.64967 57.1192 5.79869 57.1341 5.91373C57.0351 5.90327 56.9361 5.89804 56.8372 5.89804C56.7283 5.89804 56.6244 5.90327 56.5255 5.91373C56.5403 5.73595 56.5477 5.49542 56.5477 5.19216C56.5527 4.88366 56.5552 4.50719 56.5552 4.06275V3.81176C56.5552 3.60784 56.5527 3.37255 56.5477 3.10588C56.5477 2.83922 56.5403 2.53333 56.5255 2.18824C56.5799 2.19869 56.6319 2.20915 56.6813 2.21961C56.7308 2.22484 56.7828 2.22745 56.8372 2.22745C56.8817 2.22745 56.9287 2.22484 56.9782 2.21961C57.0277 2.20915 57.0796 2.19869 57.1341 2.18824C57.1143 2.37647 57.1019 2.52549 57.0969 2.63529C57.0969 2.7451 57.0969 2.84967 57.0969 2.94902L57.1118 2.95686C57.4037 2.39216 57.7303 2.1098 58.0914 2.1098C58.136 2.1098 58.1731 2.11242 58.2028 2.11765C58.2374 2.12288 58.2795 2.13595 58.3289 2.15686C58.3042 2.21961 58.2894 2.31634 58.2844 2.44706C58.2795 2.57255 58.277 2.68758 58.277 2.79216L58.225 2.83137Z" fill="white"/>
<path d="M61.4853 3.96078C61.4012 3.99216 61.3022 4.0183 61.1884 4.03922C61.0796 4.06013 60.9683 4.08366 60.8545 4.1098C60.7407 4.13072 60.6269 4.15948 60.5131 4.19608C60.4042 4.23268 60.3053 4.28235 60.2162 4.3451C60.1321 4.40784 60.0628 4.48627 60.0084 4.58039C59.9589 4.67451 59.9342 4.79477 59.9342 4.94118C59.9342 5.18693 60.001 5.37255 60.1346 5.49804C60.2681 5.62353 60.4166 5.68627 60.5799 5.68627C60.7679 5.68627 60.9386 5.63137 61.092 5.52157C61.2503 5.41176 61.3715 5.28366 61.4556 5.13725L61.4853 3.96078ZM59.6521 2.56471C59.8748 2.38693 60.0801 2.26667 60.2681 2.20392C60.4562 2.14118 60.6491 2.1098 60.847 2.1098C61.0252 2.1098 61.1884 2.13856 61.3369 2.19608C61.4853 2.24837 61.6115 2.3268 61.7154 2.43137C61.8193 2.53072 61.9009 2.65359 61.9603 2.8C62.0197 2.94118 62.0493 3.09804 62.0493 3.27059C62.0493 3.56863 62.0444 3.86667 62.0345 4.16471C62.0246 4.45752 62.0197 4.76863 62.0197 5.09804C62.0197 5.16078 62.0197 5.22876 62.0197 5.30196C62.0246 5.36993 62.037 5.43268 62.0568 5.4902C62.0766 5.54248 62.1038 5.58693 62.1384 5.62353C62.178 5.66013 62.2349 5.67843 62.3091 5.67843C62.3338 5.67843 62.3586 5.67843 62.3833 5.67843C62.413 5.6732 62.4402 5.66275 62.465 5.64706V5.81961C62.4105 5.84575 62.3413 5.86667 62.2572 5.88235C62.178 5.89804 62.0889 5.90588 61.99 5.90588C61.8316 5.90588 61.7104 5.86405 61.6263 5.78039C61.5422 5.6915 61.4927 5.57908 61.4779 5.44314C61.2998 5.63137 61.1241 5.76993 60.9509 5.85882C60.7778 5.94771 60.565 5.99216 60.3127 5.99216C60.189 5.99216 60.0678 5.97386 59.949 5.93725C59.8303 5.90065 59.7239 5.84052 59.6299 5.75686C59.5408 5.6732 59.4666 5.57386 59.4072 5.45882C59.3528 5.33856 59.3256 5.20261 59.3256 5.05098C59.3256 4.73726 59.4171 4.49412 59.6002 4.32157C59.7882 4.14902 60.0455 4.03399 60.3721 3.97647C60.6392 3.92941 60.847 3.8902 60.9955 3.85882C61.1488 3.82222 61.2602 3.78562 61.3294 3.74902C61.4037 3.71242 61.4482 3.67059 61.463 3.62353C61.4779 3.57124 61.4853 3.50588 61.4853 3.42745C61.4853 3.29673 61.4705 3.17124 61.4408 3.05098C61.4111 2.93072 61.3641 2.82614 61.2998 2.73725C61.2354 2.64837 61.1513 2.57778 61.0474 2.52549C60.9435 2.46797 60.8173 2.43922 60.6689 2.43922C60.471 2.43922 60.2855 2.48627 60.1123 2.58039C59.9441 2.67451 59.8179 2.80523 59.7338 2.97255H59.6521V2.56471Z" fill="white"/>
<path d="M64.3575 4.13333C64.3575 4.44706 64.3872 4.70588 64.4465 4.9098C64.5109 5.11373 64.59 5.27843 64.684 5.40392C64.783 5.52418 64.8943 5.60784 65.018 5.6549C65.1417 5.70196 65.2629 5.72549 65.3817 5.72549C65.5746 5.72549 65.7404 5.67582 65.8789 5.57647C66.0175 5.4719 66.1313 5.33856 66.2203 5.17647C66.3143 5.00915 66.3811 4.82091 66.4207 4.61176C66.4652 4.40261 66.4875 4.19346 66.4875 3.98431C66.4875 3.48235 66.396 3.10065 66.2129 2.83922C66.0298 2.57255 65.7602 2.43922 65.4039 2.43922C65.2258 2.43922 65.07 2.48366 64.9364 2.57255C64.8077 2.65621 64.6989 2.77647 64.6098 2.93333C64.5257 3.08497 64.4614 3.26536 64.4169 3.47451C64.3773 3.67843 64.3575 3.89804 64.3575 4.13333ZM66.4652 5.16863C66.4257 5.25229 66.3712 5.34379 66.302 5.44314C66.2376 5.53725 66.1535 5.62614 66.0496 5.7098C65.9507 5.79346 65.8319 5.86144 65.6934 5.91373C65.5548 5.96601 65.394 5.99216 65.211 5.99216C65.023 5.99216 64.8374 5.95817 64.6544 5.8902C64.4762 5.82222 64.3154 5.71242 64.1719 5.56078C64.0334 5.40392 63.9196 5.20523 63.8305 4.96471C63.7464 4.71895 63.7044 4.42614 63.7044 4.08627C63.7044 3.75163 63.7514 3.46144 63.8454 3.21569C63.9394 2.96993 64.0606 2.76601 64.209 2.60392C64.3624 2.4366 64.5331 2.31373 64.7211 2.23529C64.9141 2.15163 65.1071 2.1098 65.3 2.1098C65.8492 2.1098 66.2302 2.37124 66.443 2.89412H66.4578V2.12549C66.4578 1.9268 66.4553 1.7281 66.4504 1.52941C66.4504 1.32549 66.4479 1.13203 66.443 0.949019C66.443 0.766013 66.4405 0.593464 66.4356 0.431373C66.4356 0.269281 66.4331 0.12549 66.4281 0C66.4875 0.0104574 66.5444 0.0209149 66.5988 0.0313726C66.6533 0.0366013 66.7077 0.0392156 66.7621 0.0392156C66.8165 0.0392156 66.8685 0.0366013 66.918 0.0313726C66.9724 0.0209149 67.0318 0.0104574 67.0961 0C67.0812 0.16732 67.0689 0.410457 67.059 0.729412C67.0491 1.04314 67.0392 1.39085 67.0293 1.77255C67.0243 2.15425 67.0194 2.54641 67.0144 2.94902C67.0095 3.35163 67.007 3.72026 67.007 4.0549C67.007 4.41569 67.0095 4.73987 67.0144 5.02745C67.0194 5.31503 67.0243 5.61046 67.0293 5.91373C66.9303 5.90327 66.8338 5.89804 66.7398 5.89804C66.6508 5.89804 66.5568 5.90327 66.4578 5.91373L66.4801 5.16863H66.4652Z" fill="white"/>
<path d="M70.1587 2.36078C69.9757 2.36078 69.8198 2.40523 69.6912 2.49412C69.5675 2.58301 69.4636 2.69542 69.3795 2.83137C69.3003 2.96209 69.2384 3.1085 69.1939 3.27059C69.1543 3.42745 69.1296 3.57647 69.1197 3.71765C69.2731 3.72288 69.4314 3.7281 69.5947 3.73333C69.7629 3.73856 69.9262 3.74118 70.0845 3.74118C70.2478 3.74118 70.4135 3.73856 70.5818 3.73333C70.75 3.7281 70.9133 3.72288 71.0716 3.71765C71.0716 3.57647 71.0592 3.42745 71.0345 3.27059C71.0147 3.11373 70.9702 2.96732 70.9009 2.83137C70.8366 2.69542 70.745 2.58301 70.6263 2.49412C70.5075 2.40523 70.3517 2.36078 70.1587 2.36078ZM68.4443 4.17255C68.4443 3.52941 68.5878 3.02484 68.8748 2.65882C69.1667 2.29281 69.5897 2.1098 70.1439 2.1098C70.4061 2.1098 70.6312 2.15425 70.8193 2.24314C71.0122 2.3268 71.173 2.44183 71.3017 2.58824C71.4303 2.72941 71.5243 2.89673 71.5837 3.0902C71.648 3.28366 71.6802 3.4902 71.6802 3.7098C71.6802 3.76209 71.6777 3.81438 71.6728 3.86667C71.6728 3.91373 71.6703 3.9634 71.6653 4.01569C71.3982 4.01046 71.1334 4.00523 70.8712 4C70.609 3.99477 70.3443 3.99216 70.0771 3.99216C69.9138 3.99216 69.7505 3.99477 69.5873 4C69.4289 4.00523 69.2681 4.01046 69.1049 4.01569C69.0999 4.04183 69.0974 4.08105 69.0974 4.13333V4.23529C69.0974 4.43922 69.1246 4.63007 69.1791 4.80784C69.2384 4.98562 69.3226 5.13987 69.4314 5.27059C69.5403 5.39608 69.6739 5.49804 69.8322 5.57647C69.9905 5.64967 70.1736 5.68627 70.3814 5.68627C70.4803 5.68627 70.5818 5.6732 70.6857 5.64706C70.7896 5.61569 70.891 5.57647 70.99 5.52941C71.0889 5.47712 71.1805 5.41699 71.2646 5.34902C71.3536 5.28105 71.4303 5.20784 71.4946 5.12941L71.5317 5.15294L71.4872 5.53725C71.3388 5.66274 71.1532 5.76993 70.9306 5.85882C70.7129 5.94771 70.4853 5.99216 70.2478 5.99216C69.9806 5.99216 69.7357 5.95033 69.513 5.86667C69.2953 5.77778 69.1049 5.65229 68.9416 5.4902C68.7832 5.32288 68.6596 5.1268 68.5705 4.90196C68.4864 4.67712 68.4443 4.43399 68.4443 4.17255Z" fill="white"/>
<path d="M75.7793 4.47059C75.7793 4.29281 75.7768 4.09935 75.7719 3.8902C75.7719 3.68105 75.7694 3.47451 75.7645 3.27059C75.7595 3.06144 75.7521 2.86275 75.7422 2.67451C75.7373 2.48627 75.7298 2.32418 75.7199 2.18824C75.8585 2.21438 75.9698 2.22745 76.0539 2.22745C76.138 2.22745 76.2494 2.21438 76.3879 2.18824C76.3681 2.32418 76.3533 2.4549 76.3434 2.58039C76.3335 2.70588 76.3285 2.83137 76.3285 2.95686H76.3434C76.378 2.8732 76.4275 2.78431 76.4918 2.6902C76.5561 2.59085 76.6378 2.49935 76.7367 2.41569C76.8406 2.3268 76.9643 2.25359 77.1078 2.19608C77.2513 2.13856 77.4146 2.1098 77.5976 2.1098C77.7856 2.1098 77.9712 2.14902 78.1543 2.22745C78.3373 2.30065 78.4981 2.41569 78.6367 2.57255C78.7801 2.72941 78.894 2.93072 78.9781 3.17647C79.0671 3.41699 79.1116 3.70457 79.1116 4.03922C79.1116 4.37386 79.0646 4.66405 78.9706 4.9098C78.8766 5.15556 78.7529 5.35948 78.5996 5.52157C78.4511 5.68366 78.2804 5.80392 78.0875 5.88235C77.8945 5.95556 77.7015 5.99216 77.5086 5.99216C76.9643 5.99216 76.5759 5.74379 76.3434 5.24706H76.3285V5.74118C76.3285 5.9085 76.3285 6.09412 76.3285 6.29804C76.3335 6.50719 76.3384 6.71373 76.3434 6.91765C76.3483 7.12157 76.3533 7.31503 76.3582 7.49804C76.3681 7.68627 76.378 7.84575 76.3879 7.97647C76.2494 7.95033 76.138 7.93725 76.0539 7.93725C75.9698 7.93725 75.8585 7.95033 75.7199 7.97647C75.7298 7.84575 75.7373 7.68627 75.7422 7.49804C75.7521 7.31503 75.7595 7.12157 75.7645 6.91765C75.7694 6.71373 75.7719 6.50719 75.7719 6.29804C75.7768 6.09412 75.7793 5.9085 75.7793 5.74118V4.47059ZM78.4585 4.03137C78.4585 3.71765 78.4264 3.45882 78.3621 3.2549C78.3027 3.05098 78.2235 2.88889 78.1246 2.76863C78.0306 2.64314 77.9217 2.55686 77.798 2.5098C77.6743 2.46275 77.5531 2.43922 77.4343 2.43922C77.2364 2.43922 77.0657 2.48366 76.9223 2.57255C76.7837 2.66144 76.6699 2.7817 76.5809 2.93333C76.4918 3.07974 76.4275 3.2549 76.3879 3.45882C76.3483 3.65752 76.3285 3.86928 76.3285 4.09412C76.3285 5.1817 76.6897 5.72549 77.4121 5.72549C77.5902 5.72549 77.7436 5.68366 77.8722 5.6C78.0058 5.51111 78.1147 5.39085 78.1988 5.23922C78.2878 5.08235 78.3522 4.90196 78.3917 4.69804C78.4363 4.48889 78.4585 4.26667 78.4585 4.03137Z" fill="white"/>
<path d="M82.3524 2.83137C82.3277 2.8 82.2782 2.77124 82.204 2.7451C82.1347 2.71895 82.063 2.70588 81.9888 2.70588C81.87 2.70588 81.7636 2.73464 81.6696 2.79216C81.5756 2.84967 81.4965 2.9281 81.4321 3.02745C81.3678 3.12157 81.3183 3.2366 81.2837 3.37255C81.2491 3.50327 81.2318 3.64444 81.2318 3.79608V4.65882C81.2318 5.00915 81.2318 5.27843 81.2318 5.46667C81.2367 5.64967 81.2466 5.79869 81.2614 5.91373C81.1625 5.90327 81.0635 5.89804 80.9646 5.89804C80.8557 5.89804 80.7518 5.90327 80.6529 5.91373C80.6677 5.73595 80.6751 5.49542 80.6751 5.19216C80.6801 4.88366 80.6826 4.50719 80.6826 4.06275V3.81176C80.6826 3.60784 80.6801 3.37255 80.6751 3.10588C80.6751 2.83922 80.6677 2.53333 80.6529 2.18824C80.7073 2.19869 80.7592 2.20915 80.8087 2.21961C80.8582 2.22484 80.9101 2.22745 80.9646 2.22745C81.0091 2.22745 81.0561 2.22484 81.1056 2.21961C81.1551 2.20915 81.207 2.19869 81.2614 2.18824C81.2417 2.37647 81.2293 2.52549 81.2243 2.63529C81.2243 2.7451 81.2243 2.84967 81.2243 2.94902L81.2392 2.95686C81.5311 2.39216 81.8577 2.1098 82.2188 2.1098C82.2634 2.1098 82.3005 2.11242 82.3302 2.11765C82.3648 2.12288 82.4069 2.13595 82.4563 2.15686C82.4316 2.21961 82.4167 2.31634 82.4118 2.44706C82.4069 2.57255 82.4044 2.68758 82.4044 2.79216L82.3524 2.83137Z" fill="white"/>
<path d="M85.2024 2.36078C85.0193 2.36078 84.8635 2.40523 84.7348 2.49412C84.6111 2.58301 84.5072 2.69542 84.4231 2.83137C84.344 2.96209 84.2821 3.1085 84.2376 3.27059C84.198 3.42745 84.1733 3.57647 84.1634 3.71765C84.3168 3.72288 84.4751 3.7281 84.6384 3.73333C84.8066 3.73856 84.9699 3.74118 85.1282 3.74118C85.2915 3.74118 85.4572 3.73856 85.6254 3.73333C85.7937 3.7281 85.9569 3.72288 86.1153 3.71765C86.1153 3.57647 86.1029 3.42745 86.0782 3.27059C86.0584 3.11373 86.0138 2.96732 85.9446 2.83137C85.8802 2.69542 85.7887 2.58301 85.67 2.49412C85.5512 2.40523 85.3954 2.36078 85.2024 2.36078ZM83.488 4.17255C83.488 3.52941 83.6315 3.02484 83.9185 2.65882C84.2104 2.29281 84.6334 2.1098 85.1876 2.1098C85.4498 2.1098 85.6749 2.15425 85.8629 2.24314C86.0559 2.3268 86.2167 2.44183 86.3453 2.58824C86.474 2.72941 86.568 2.89673 86.6274 3.0902C86.6917 3.28366 86.7238 3.4902 86.7238 3.7098C86.7238 3.76209 86.7214 3.81438 86.7164 3.86667C86.7164 3.91373 86.714 3.9634 86.709 4.01569C86.4418 4.01046 86.1771 4.00523 85.9149 4C85.6527 3.99477 85.3879 3.99216 85.1208 3.99216C84.9575 3.99216 84.7942 3.99477 84.6309 4C84.4726 4.00523 84.3118 4.01046 84.1485 4.01569C84.1436 4.04183 84.1411 4.08105 84.1411 4.13333V4.23529C84.1411 4.43922 84.1683 4.63007 84.2227 4.80784C84.2821 4.98562 84.3662 5.13987 84.4751 5.27059C84.5839 5.39608 84.7175 5.49804 84.8759 5.57647C85.0342 5.64967 85.2173 5.68627 85.4251 5.68627C85.524 5.68627 85.6254 5.6732 85.7293 5.64706C85.8332 5.61569 85.9347 5.57647 86.0336 5.52941C86.1326 5.47712 86.2241 5.41699 86.3082 5.34902C86.3973 5.28105 86.474 5.20784 86.5383 5.12941L86.5754 5.15294L86.5309 5.53725C86.3825 5.66274 86.1969 5.76993 85.9743 5.85882C85.7566 5.94771 85.529 5.99216 85.2915 5.99216C85.0243 5.99216 84.7794 5.95033 84.5567 5.86667C84.339 5.77778 84.1485 5.65229 83.9853 5.4902C83.8269 5.32288 83.7032 5.1268 83.6142 4.90196C83.5301 4.67712 83.488 4.43399 83.488 4.17255Z" fill="white"/>
<path d="M87.9187 4.06275C87.9187 3.72288 87.9732 3.43007 88.082 3.18431C88.1909 2.93856 88.3319 2.73725 88.5051 2.58039C88.6832 2.4183 88.886 2.30065 89.1136 2.22745C89.3412 2.14902 89.5738 2.1098 89.8113 2.1098C90.0834 2.1098 90.3258 2.14641 90.5386 2.21961C90.7563 2.28758 90.9121 2.36601 91.0061 2.4549C90.9715 2.53333 90.9394 2.61699 90.9097 2.70588C90.8849 2.78954 90.8627 2.87843 90.8429 2.97255H90.7835C90.7489 2.90458 90.7019 2.8366 90.6425 2.76863C90.5831 2.69542 90.5114 2.63007 90.4273 2.57255C90.3481 2.5098 90.259 2.46013 90.1601 2.42353C90.0611 2.3817 89.9523 2.36078 89.8335 2.36078C89.6109 2.36078 89.4179 2.40523 89.2546 2.49412C89.0963 2.57778 88.9652 2.69542 88.8613 2.84706C88.7623 2.99869 88.6881 3.17909 88.6386 3.38824C88.5941 3.59216 88.5718 3.81438 88.5718 4.0549C88.5718 4.59346 88.6807 5.00131 88.8984 5.27843C89.1161 5.55033 89.4352 5.68627 89.8558 5.68627C89.9547 5.68627 90.0562 5.6732 90.1601 5.64706C90.264 5.61569 90.3654 5.57647 90.4644 5.52941C90.5633 5.47712 90.6549 5.41699 90.739 5.34902C90.828 5.28105 90.9047 5.20784 90.969 5.12941L91.0061 5.15294C90.9814 5.27843 90.9666 5.40654 90.9616 5.53725C90.8132 5.66274 90.6276 5.76993 90.405 5.85882C90.1873 5.94771 89.9597 5.99216 89.7222 5.99216C89.5094 5.99216 89.2942 5.96078 89.0765 5.89804C88.8638 5.83007 88.6708 5.72026 88.4976 5.56863C88.3245 5.41176 88.1834 5.21046 88.0746 4.96471C87.9707 4.71895 87.9187 4.4183 87.9187 4.06275Z" fill="white"/>
<path d="M92.6389 0.82353C92.6389 0.713725 92.676 0.619608 92.7503 0.541176C92.8245 0.462745 92.9135 0.42353 93.0174 0.42353C93.1213 0.42353 93.2104 0.462745 93.2846 0.541176C93.3588 0.619608 93.3959 0.713725 93.3959 0.82353C93.3959 0.933333 93.3588 1.02745 93.2846 1.10588C93.2104 1.18431 93.1213 1.22353 93.0174 1.22353C92.9135 1.22353 92.8245 1.18431 92.7503 1.10588C92.676 1.02745 92.6389 0.933333 92.6389 0.82353ZM92.7428 3.6549C92.7428 3.41961 92.7379 3.17386 92.728 2.91765C92.723 2.65621 92.7082 2.41307 92.6835 2.18824C92.822 2.21438 92.9333 2.22745 93.0174 2.22745C93.1015 2.22745 93.2129 2.21438 93.3514 2.18824C93.3267 2.41307 93.3093 2.65621 93.2995 2.91765C93.2945 3.17386 93.292 3.41961 93.292 3.6549V4.47059C93.292 4.70588 93.2945 4.95425 93.2995 5.21569C93.3093 5.4719 93.3267 5.70458 93.3514 5.91373C93.2376 5.90327 93.1263 5.89804 93.0174 5.89804C92.9086 5.89804 92.7973 5.90327 92.6835 5.91373C92.7082 5.70458 92.723 5.4719 92.728 5.21569C92.7379 4.95425 92.7428 4.70588 92.7428 4.47059V3.6549Z" fill="white"/>
<path d="M95.2463 5.18431C95.271 5.2366 95.3082 5.29412 95.3576 5.35686C95.4121 5.41961 95.4739 5.47974 95.5432 5.53725C95.6174 5.58954 95.699 5.63399 95.7881 5.67059C95.8821 5.70719 95.981 5.72549 96.085 5.72549C96.179 5.72549 96.268 5.7098 96.3521 5.67843C96.4412 5.64706 96.5179 5.60261 96.5822 5.5451C96.6515 5.48758 96.7059 5.41438 96.7455 5.32549C96.7851 5.2366 96.8049 5.13464 96.8049 5.01961C96.8049 4.85752 96.7603 4.73464 96.6713 4.65098C96.5872 4.56209 96.4808 4.4915 96.3521 4.43922C96.2235 4.3817 96.0825 4.33203 95.9291 4.2902C95.7757 4.24837 95.6347 4.19085 95.5061 4.11765C95.3774 4.03922 95.2686 3.93725 95.1795 3.81176C95.0954 3.68627 95.0533 3.51373 95.0533 3.29412C95.0533 3.12157 95.0806 2.96471 95.135 2.82353C95.1894 2.67712 95.2686 2.55163 95.3725 2.44706C95.4764 2.34248 95.605 2.26144 95.7584 2.20392C95.9118 2.14118 96.0874 2.1098 96.2853 2.1098C96.4684 2.1098 96.6218 2.13595 96.7455 2.18824C96.8741 2.24052 96.9953 2.28758 97.1091 2.32941C97.0696 2.40784 97.0324 2.50458 96.9978 2.61961C96.9632 2.73464 96.9409 2.82353 96.931 2.88627H96.842C96.8024 2.76078 96.7257 2.64837 96.6119 2.54902C96.4981 2.44967 96.3571 2.4 96.1889 2.4C96.1146 2.4 96.0404 2.41307 95.9662 2.43922C95.892 2.46536 95.8252 2.50458 95.7658 2.55686C95.7065 2.60915 95.657 2.67712 95.6174 2.76078C95.5778 2.84444 95.558 2.94379 95.558 3.05882C95.558 3.22614 95.6001 3.35686 95.6842 3.45098C95.7732 3.53987 95.8821 3.61046 96.0107 3.66274C96.1394 3.71503 96.2804 3.76209 96.4338 3.80392C96.5872 3.84052 96.7282 3.89542 96.8568 3.96863C96.9855 4.0366 97.0918 4.13333 97.1759 4.25882C97.265 4.38431 97.3095 4.55686 97.3095 4.77647C97.3095 4.9281 97.2774 5.07712 97.2131 5.22353C97.1537 5.36993 97.0646 5.50327 96.9459 5.62353C96.8321 5.73856 96.6935 5.83007 96.5303 5.89804C96.367 5.96078 96.1814 5.99216 95.9736 5.99216C95.746 5.99216 95.5555 5.96863 95.4022 5.92157C95.2488 5.87451 95.1201 5.81961 95.0162 5.75686C95.0459 5.68889 95.0756 5.59739 95.1053 5.48235C95.1399 5.36209 95.1572 5.26275 95.1572 5.18431H95.2463Z" fill="white"/>
<path d="M98.925 0.82353C98.925 0.713725 98.9621 0.619608 99.0363 0.541176C99.1106 0.462745 99.1996 0.42353 99.3035 0.42353C99.4074 0.42353 99.4965 0.462745 99.5707 0.541176C99.6449 0.619608 99.682 0.713725 99.682 0.82353C99.682 0.933333 99.6449 1.02745 99.5707 1.10588C99.4965 1.18431 99.4074 1.22353 99.3035 1.22353C99.1996 1.22353 99.1106 1.18431 99.0363 1.10588C98.9621 1.02745 98.925 0.933333 98.925 0.82353ZM99.0289 3.6549C99.0289 3.41961 99.024 3.17386 99.0141 2.91765C99.0091 2.65621 98.9943 2.41307 98.9695 2.18824C99.1081 2.21438 99.2194 2.22745 99.3035 2.22745C99.3876 2.22745 99.499 2.21438 99.6375 2.18824C99.6128 2.41307 99.5954 2.65621 99.5855 2.91765C99.5806 3.17386 99.5781 3.41961 99.5781 3.6549V4.47059C99.5781 4.70588 99.5806 4.95425 99.5855 5.21569C99.5954 5.4719 99.6128 5.70458 99.6375 5.91373C99.5237 5.90327 99.4124 5.89804 99.3035 5.89804C99.1947 5.89804 99.0833 5.90327 98.9695 5.91373C98.9943 5.70458 99.0091 5.4719 99.0141 5.21569C99.024 4.95425 99.0289 4.70588 99.0289 4.47059V3.6549Z" fill="white"/>
<path d="M101.918 4.06275C101.918 4.28235 101.936 4.49412 101.97 4.69804C102.01 4.90196 102.074 5.08497 102.163 5.24706C102.252 5.40392 102.371 5.52941 102.519 5.62353C102.668 5.71765 102.851 5.76471 103.069 5.76471C103.286 5.76471 103.469 5.71765 103.618 5.62353C103.766 5.52941 103.885 5.40392 103.974 5.24706C104.063 5.08497 104.125 4.90196 104.16 4.69804C104.199 4.49412 104.219 4.28235 104.219 4.06275C104.219 3.84314 104.199 3.63137 104.16 3.42745C104.125 3.22353 104.063 3.04314 103.974 2.88627C103.885 2.72418 103.766 2.59608 103.618 2.50196C103.469 2.40784 103.286 2.36078 103.069 2.36078C102.851 2.36078 102.668 2.40784 102.519 2.50196C102.371 2.59608 102.252 2.72418 102.163 2.88627C102.074 3.04314 102.01 3.22353 101.97 3.42745C101.936 3.63137 101.918 3.84314 101.918 4.06275ZM101.265 4.06275C101.265 3.70719 101.317 3.40654 101.421 3.16078C101.53 2.9098 101.671 2.7085 101.844 2.55686C102.017 2.4 102.21 2.28758 102.423 2.21961C102.641 2.14641 102.856 2.1098 103.069 2.1098C103.286 2.1098 103.502 2.14641 103.714 2.21961C103.927 2.28758 104.12 2.4 104.293 2.55686C104.466 2.7085 104.605 2.9098 104.709 3.16078C104.818 3.40654 104.872 3.70719 104.872 4.06275C104.872 4.4183 104.818 4.72157 104.709 4.97255C104.605 5.2183 104.466 5.41961 104.293 5.57647C104.12 5.7281 103.927 5.83529 103.714 5.89804C103.502 5.96078 103.286 5.99216 103.069 5.99216C102.856 5.99216 102.641 5.96078 102.423 5.89804C102.21 5.83529 102.017 5.7281 101.844 5.57647C101.671 5.41961 101.53 5.2183 101.421 4.97255C101.317 4.72157 101.265 4.4183 101.265 4.06275Z" fill="white"/>
<path d="M108.781 3.7098C108.781 3.31765 108.709 3.02222 108.566 2.82353C108.422 2.61961 108.224 2.51765 107.972 2.51765C107.626 2.51765 107.371 2.63007 107.207 2.8549C107.049 3.07974 106.97 3.39608 106.97 3.80392V4.47059C106.97 4.70588 106.972 4.95425 106.977 5.21569C106.987 5.4719 107.005 5.70458 107.029 5.91373C106.916 5.90327 106.804 5.89804 106.695 5.89804C106.587 5.89804 106.475 5.90327 106.361 5.91373C106.386 5.70458 106.401 5.4719 106.406 5.21569C106.416 4.95425 106.421 4.70588 106.421 4.47059V3.6549C106.421 3.41961 106.416 3.17386 106.406 2.91765C106.401 2.65621 106.386 2.41307 106.361 2.18824C106.5 2.21438 106.611 2.22745 106.695 2.22745C106.735 2.22745 106.777 2.22484 106.822 2.21961C106.871 2.20915 106.928 2.19869 106.992 2.18824C106.977 2.39739 106.97 2.60654 106.97 2.81569H106.985C107.123 2.59085 107.289 2.4183 107.482 2.29804C107.675 2.17255 107.905 2.1098 108.172 2.1098C108.311 2.1098 108.449 2.13072 108.588 2.17255C108.731 2.21438 108.86 2.28758 108.974 2.39216C109.088 2.4915 109.179 2.63007 109.248 2.80784C109.323 2.98039 109.36 3.20261 109.36 3.47451C109.36 3.69935 109.355 3.93203 109.345 4.17255C109.335 4.40784 109.33 4.65882 109.33 4.92549V5.43529C109.33 5.51895 109.33 5.60261 109.33 5.68627C109.335 5.76471 109.34 5.84052 109.345 5.91373C109.246 5.90327 109.142 5.89804 109.033 5.89804C108.929 5.89804 108.828 5.90327 108.729 5.91373C108.739 5.64183 108.749 5.36209 108.759 5.07451C108.773 4.78693 108.781 4.4915 108.781 4.18824V3.7098Z" fill="white"/>
<path d="M113.635 4.06275C113.635 3.72288 113.689 3.43007 113.798 3.18431C113.907 2.93856 114.048 2.73725 114.221 2.58039C114.399 2.4183 114.602 2.30065 114.829 2.22745C115.057 2.14902 115.29 2.1098 115.527 2.1098C115.799 2.1098 116.042 2.14641 116.254 2.21961C116.472 2.28758 116.628 2.36601 116.722 2.4549C116.687 2.53333 116.655 2.61699 116.625 2.70588C116.601 2.78954 116.578 2.87843 116.559 2.97255H116.499C116.465 2.90458 116.418 2.8366 116.358 2.76863C116.299 2.69542 116.227 2.63007 116.143 2.57255C116.064 2.5098 115.975 2.46013 115.876 2.42353C115.777 2.3817 115.668 2.36078 115.549 2.36078C115.327 2.36078 115.134 2.40523 114.97 2.49412C114.812 2.57778 114.681 2.69542 114.577 2.84706C114.478 2.99869 114.404 3.17909 114.354 3.38824C114.31 3.59216 114.288 3.81438 114.288 4.0549C114.288 4.59346 114.396 5.00131 114.614 5.27843C114.832 5.55033 115.151 5.68627 115.572 5.68627C115.671 5.68627 115.772 5.6732 115.876 5.64706C115.98 5.61569 116.081 5.57647 116.18 5.52941C116.279 5.47712 116.371 5.41699 116.455 5.34902C116.544 5.28105 116.621 5.20784 116.685 5.12941L116.722 5.15294C116.697 5.27843 116.682 5.40654 116.677 5.53725C116.529 5.66274 116.343 5.76993 116.121 5.85882C115.903 5.94771 115.675 5.99216 115.438 5.99216C115.225 5.99216 115.01 5.96078 114.792 5.89804C114.58 5.83007 114.387 5.72026 114.213 5.56863C114.04 5.41176 113.899 5.21046 113.79 4.96471C113.686 4.71895 113.635 4.4183 113.635 4.06275Z" fill="white"/>
<path d="M118.614 4.06275C118.614 4.28235 118.632 4.49412 118.666 4.69804C118.706 4.90196 118.77 5.08497 118.859 5.24706C118.948 5.40392 119.067 5.52941 119.216 5.62353C119.364 5.71765 119.547 5.76471 119.765 5.76471C119.983 5.76471 120.166 5.71765 120.314 5.62353C120.462 5.52941 120.581 5.40392 120.67 5.24706C120.759 5.08497 120.821 4.90196 120.856 4.69804C120.895 4.49412 120.915 4.28235 120.915 4.06275C120.915 3.84314 120.895 3.63137 120.856 3.42745C120.821 3.22353 120.759 3.04314 120.67 2.88627C120.581 2.72418 120.462 2.59608 120.314 2.50196C120.166 2.40784 119.983 2.36078 119.765 2.36078C119.547 2.36078 119.364 2.40784 119.216 2.50196C119.067 2.59608 118.948 2.72418 118.859 2.88627C118.77 3.04314 118.706 3.22353 118.666 3.42745C118.632 3.63137 118.614 3.84314 118.614 4.06275ZM117.961 4.06275C117.961 3.70719 118.013 3.40654 118.117 3.16078C118.226 2.9098 118.367 2.7085 118.54 2.55686C118.713 2.4 118.906 2.28758 119.119 2.21961C119.337 2.14641 119.552 2.1098 119.765 2.1098C119.983 2.1098 120.198 2.14641 120.411 2.21961C120.623 2.28758 120.816 2.4 120.989 2.55686C121.163 2.7085 121.301 2.9098 121.405 3.16078C121.514 3.40654 121.568 3.70719 121.568 4.06275C121.568 4.4183 121.514 4.72157 121.405 4.97255C121.301 5.2183 121.163 5.41961 120.989 5.57647C120.816 5.7281 120.623 5.83529 120.411 5.89804C120.198 5.96078 119.983 5.99216 119.765 5.99216C119.552 5.99216 119.337 5.96078 119.119 5.89804C118.906 5.83529 118.713 5.7281 118.54 5.57647C118.367 5.41961 118.226 5.2183 118.117 4.97255C118.013 4.72157 117.961 4.4183 117.961 4.06275Z" fill="white"/>
<path d="M125.477 3.7098C125.477 3.31765 125.405 3.02222 125.262 2.82353C125.118 2.61961 124.92 2.51765 124.668 2.51765C124.322 2.51765 124.067 2.63007 123.904 2.8549C123.745 3.07974 123.666 3.39608 123.666 3.80392V4.47059C123.666 4.70588 123.669 4.95425 123.674 5.21569C123.683 5.4719 123.701 5.70458 123.726 5.91373C123.612 5.90327 123.5 5.89804 123.392 5.89804C123.283 5.89804 123.171 5.90327 123.058 5.91373C123.082 5.70458 123.097 5.4719 123.102 5.21569C123.112 4.95425 123.117 4.70588 123.117 4.47059V3.6549C123.117 3.41961 123.112 3.17386 123.102 2.91765C123.097 2.65621 123.082 2.41307 123.058 2.18824C123.196 2.21438 123.307 2.22745 123.392 2.22745C123.431 2.22745 123.473 2.22484 123.518 2.21961C123.567 2.20915 123.624 2.19869 123.688 2.18824C123.674 2.39739 123.666 2.60654 123.666 2.81569H123.681C123.82 2.59085 123.985 2.4183 124.178 2.29804C124.371 2.17255 124.601 2.1098 124.868 2.1098C125.007 2.1098 125.146 2.13072 125.284 2.17255C125.428 2.21438 125.556 2.28758 125.67 2.39216C125.784 2.4915 125.875 2.63007 125.945 2.80784C126.019 2.98039 126.056 3.20261 126.056 3.47451C126.056 3.69935 126.051 3.93203 126.041 4.17255C126.031 4.40784 126.026 4.65882 126.026 4.92549V5.43529C126.026 5.51895 126.026 5.60261 126.026 5.68627C126.031 5.76471 126.036 5.84052 126.041 5.91373C125.942 5.90327 125.838 5.89804 125.729 5.89804C125.625 5.89804 125.524 5.90327 125.425 5.91373C125.435 5.64183 125.445 5.36209 125.455 5.07451C125.47 4.78693 125.477 4.4915 125.477 4.18824V3.7098Z" fill="white"/>
<path d="M127.812 5.18431C127.837 5.2366 127.874 5.29412 127.924 5.35686C127.978 5.41961 128.04 5.47974 128.109 5.53725C128.183 5.58954 128.265 5.63399 128.354 5.67059C128.448 5.70719 128.547 5.72549 128.651 5.72549C128.745 5.72549 128.834 5.7098 128.918 5.67843C129.007 5.64706 129.084 5.60261 129.148 5.5451C129.218 5.48758 129.272 5.41438 129.312 5.32549C129.351 5.2366 129.371 5.13464 129.371 5.01961C129.371 4.85752 129.326 4.73464 129.237 4.65098C129.153 4.56209 129.047 4.4915 128.918 4.43922C128.79 4.3817 128.649 4.33203 128.495 4.2902C128.342 4.24837 128.201 4.19085 128.072 4.11765C127.943 4.03922 127.835 3.93725 127.746 3.81176C127.661 3.68627 127.619 3.51373 127.619 3.29412C127.619 3.12157 127.647 2.96471 127.701 2.82353C127.755 2.67712 127.835 2.55163 127.939 2.44706C128.042 2.34248 128.171 2.26144 128.324 2.20392C128.478 2.14118 128.653 2.1098 128.851 2.1098C129.034 2.1098 129.188 2.13595 129.312 2.18824C129.44 2.24052 129.561 2.28758 129.675 2.32941C129.636 2.40784 129.599 2.50458 129.564 2.61961C129.529 2.73464 129.507 2.82353 129.497 2.88627H129.408C129.368 2.76078 129.292 2.64837 129.178 2.54902C129.064 2.44967 128.923 2.4 128.755 2.4C128.681 2.4 128.606 2.41307 128.532 2.43922C128.458 2.46536 128.391 2.50458 128.332 2.55686C128.273 2.60915 128.223 2.67712 128.183 2.76078C128.144 2.84444 128.124 2.94379 128.124 3.05882C128.124 3.22614 128.166 3.35686 128.25 3.45098C128.339 3.53987 128.448 3.61046 128.577 3.66274C128.705 3.71503 128.846 3.76209 129 3.80392C129.153 3.84052 129.294 3.89542 129.423 3.96863C129.552 4.0366 129.658 4.13333 129.742 4.25882C129.831 4.38431 129.876 4.55686 129.876 4.77647C129.876 4.9281 129.843 5.07712 129.779 5.22353C129.72 5.36993 129.631 5.50327 129.512 5.62353C129.398 5.73856 129.26 5.83007 129.096 5.89804C128.933 5.96078 128.747 5.99216 128.54 5.99216C128.312 5.99216 128.122 5.96863 127.968 5.92157C127.815 5.87451 127.686 5.81961 127.582 5.75686C127.612 5.68889 127.642 5.59739 127.671 5.48235C127.706 5.36209 127.723 5.26275 127.723 5.18431H127.812Z" fill="white"/>
<path d="M132.077 1.13725C132.063 1.33595 132.05 1.53203 132.04 1.72549C132.035 1.91373 132.028 2.10458 132.018 2.29804C132.072 2.29804 132.174 2.29804 132.322 2.29804C132.471 2.29281 132.632 2.28497 132.805 2.27451C132.8 2.2902 132.797 2.31895 132.797 2.36078V2.52549C132.797 2.56209 132.8 2.58824 132.805 2.60392C132.74 2.59869 132.674 2.59608 132.604 2.59608C132.535 2.59085 132.461 2.58824 132.382 2.58824H132.018C132.013 2.60915 132.006 2.69281 131.996 2.83922C131.991 2.98562 131.986 3.16078 131.981 3.36471C131.976 3.5634 131.971 3.77255 131.966 3.99216C131.966 4.21176 131.966 4.40784 131.966 4.58039C131.966 4.7268 131.969 4.87059 131.973 5.01176C131.983 5.15294 132.008 5.28105 132.048 5.39608C132.087 5.50588 132.147 5.59477 132.226 5.66274C132.305 5.73072 132.419 5.76471 132.567 5.76471C132.607 5.76471 132.659 5.75948 132.723 5.74902C132.792 5.73856 132.852 5.72549 132.901 5.7098V5.89804C132.817 5.91373 132.723 5.93203 132.619 5.95294C132.52 5.97908 132.424 5.99216 132.33 5.99216C132.018 5.99216 131.788 5.91111 131.64 5.74902C131.491 5.58693 131.417 5.34902 131.417 5.03529C131.417 4.89412 131.419 4.74248 131.424 4.58039C131.429 4.41307 131.434 4.23268 131.439 4.03922C131.449 3.84052 131.456 3.62353 131.461 3.38824C131.466 3.14771 131.469 2.88105 131.469 2.58824H131.231C131.192 2.58824 131.15 2.59085 131.105 2.59608C131.061 2.59608 131.014 2.59869 130.964 2.60392C130.969 2.57255 130.972 2.54379 130.972 2.51765C130.977 2.48627 130.979 2.4549 130.979 2.42353C130.979 2.39739 130.977 2.37124 130.972 2.3451C130.972 2.31895 130.969 2.29281 130.964 2.26667C131.187 2.28235 131.35 2.2902 131.454 2.2902C131.449 2.18562 131.444 2.0549 131.439 1.89804C131.439 1.74118 131.434 1.57908 131.424 1.41176L132.04 1.13725H132.077Z" fill="white"/>
<path d="M135.835 2.83137C135.81 2.8 135.761 2.77124 135.687 2.7451C135.617 2.71895 135.546 2.70588 135.471 2.70588C135.353 2.70588 135.246 2.73464 135.152 2.79216C135.058 2.84967 134.979 2.9281 134.915 3.02745C134.851 3.12157 134.801 3.2366 134.766 3.37255C134.732 3.50327 134.714 3.64444 134.714 3.79608V4.65882C134.714 5.00915 134.714 5.27843 134.714 5.46667C134.719 5.64967 134.729 5.79869 134.744 5.91373C134.645 5.90327 134.546 5.89804 134.447 5.89804C134.338 5.89804 134.235 5.90327 134.136 5.91373C134.15 5.73595 134.158 5.49542 134.158 5.19216C134.163 4.88366 134.165 4.50719 134.165 4.06275V3.81176C134.165 3.60784 134.163 3.37255 134.158 3.10588C134.158 2.83922 134.15 2.53333 134.136 2.18824C134.19 2.19869 134.242 2.20915 134.291 2.21961C134.341 2.22484 134.393 2.22745 134.447 2.22745C134.492 2.22745 134.539 2.22484 134.588 2.21961C134.638 2.20915 134.69 2.19869 134.744 2.18824C134.724 2.37647 134.712 2.52549 134.707 2.63529C134.707 2.7451 134.707 2.84967 134.707 2.94902L134.722 2.95686C135.014 2.39216 135.34 2.1098 135.702 2.1098C135.746 2.1098 135.783 2.11242 135.813 2.11765C135.848 2.12288 135.89 2.13595 135.939 2.15686C135.914 2.21961 135.899 2.31634 135.895 2.44706C135.89 2.57255 135.887 2.68758 135.887 2.79216L135.835 2.83137Z" fill="white"/>
<path d="M137.275 4.72941C137.275 4.45229 137.277 4.21699 137.282 4.02353C137.292 3.82484 137.297 3.62876 137.297 3.43529C137.297 3.25229 137.295 3.05359 137.29 2.83922C137.29 2.62484 137.287 2.40784 137.282 2.18824C137.406 2.21438 137.51 2.22745 137.594 2.22745C137.673 2.22745 137.775 2.21438 137.898 2.18824C137.874 2.50196 137.854 2.84706 137.839 3.22353C137.829 3.59477 137.824 3.97647 137.824 4.36863C137.824 4.64052 137.846 4.84967 137.891 4.99608C137.936 5.13725 137.99 5.24444 138.054 5.31765C138.124 5.40131 138.21 5.4719 138.314 5.52941C138.423 5.5817 138.549 5.60784 138.693 5.60784C138.9 5.60784 139.074 5.56078 139.212 5.46667C139.351 5.36732 139.452 5.24706 139.516 5.10588C139.551 5.01699 139.578 4.94118 139.598 4.87843C139.618 4.81569 139.633 4.73203 139.643 4.62745C139.657 4.52288 139.665 4.3817 139.665 4.20392C139.67 4.02614 139.672 3.78301 139.672 3.47451V2.81569C139.672 2.70065 139.67 2.59085 139.665 2.48627C139.665 2.3817 139.662 2.28235 139.657 2.18824C139.712 2.19869 139.764 2.20915 139.813 2.21961C139.863 2.22484 139.915 2.22745 139.969 2.22745C140.023 2.22745 140.075 2.22484 140.125 2.21961C140.174 2.20915 140.224 2.19869 140.273 2.18824C140.249 2.59608 140.234 2.99085 140.229 3.37255C140.224 3.74902 140.221 4.14902 140.221 4.57255C140.221 4.80784 140.224 5.03791 140.229 5.26274C140.234 5.48758 140.241 5.70458 140.251 5.91373C140.152 5.90327 140.056 5.89804 139.962 5.89804C139.868 5.89804 139.771 5.90327 139.672 5.91373C139.677 5.86667 139.68 5.81699 139.68 5.76471C139.685 5.71242 139.687 5.65752 139.687 5.6V5.26274H139.672C139.544 5.51373 139.378 5.69935 139.175 5.81961C138.972 5.93464 138.752 5.99216 138.514 5.99216C138.128 5.99216 137.824 5.88497 137.602 5.67059C137.384 5.45098 137.275 5.13725 137.275 4.72941Z" fill="white"/>
<path d="M141.815 4.06275C141.815 3.72288 141.869 3.43007 141.978 3.18431C142.087 2.93856 142.228 2.73725 142.401 2.58039C142.579 2.4183 142.782 2.30065 143.009 2.22745C143.237 2.14902 143.47 2.1098 143.707 2.1098C143.979 2.1098 144.222 2.14641 144.434 2.21961C144.652 2.28758 144.808 2.36601 144.902 2.4549C144.867 2.53333 144.835 2.61699 144.805 2.70588C144.781 2.78954 144.758 2.87843 144.739 2.97255H144.679C144.645 2.90458 144.598 2.8366 144.538 2.76863C144.479 2.69542 144.407 2.63007 144.323 2.57255C144.244 2.5098 144.155 2.46013 144.056 2.42353C143.957 2.3817 143.848 2.36078 143.729 2.36078C143.507 2.36078 143.314 2.40523 143.15 2.49412C142.992 2.57778 142.861 2.69542 142.757 2.84706C142.658 2.99869 142.584 3.17909 142.534 3.38824C142.49 3.59216 142.468 3.81438 142.468 4.0549C142.468 4.59346 142.577 5.00131 142.794 5.27843C143.012 5.55033 143.331 5.68627 143.752 5.68627C143.851 5.68627 143.952 5.6732 144.056 5.64706C144.16 5.61569 144.261 5.57647 144.36 5.52941C144.459 5.47712 144.551 5.41699 144.635 5.34902C144.724 5.28105 144.801 5.20784 144.865 5.12941L144.902 5.15294C144.877 5.27843 144.862 5.40654 144.857 5.53725C144.709 5.66274 144.523 5.76993 144.301 5.85882C144.083 5.94771 143.856 5.99216 143.618 5.99216C143.405 5.99216 143.19 5.96078 142.972 5.89804C142.76 5.83007 142.567 5.72026 142.393 5.56863C142.22 5.41176 142.079 5.21046 141.97 4.96471C141.867 4.71895 141.815 4.4183 141.815 4.06275Z" fill="white"/>
<path d="M147.121 1.13725C147.106 1.33595 147.094 1.53203 147.084 1.72549C147.079 1.91373 147.072 2.10458 147.062 2.29804C147.116 2.29804 147.218 2.29804 147.366 2.29804C147.514 2.29281 147.675 2.28497 147.848 2.27451C147.843 2.2902 147.841 2.31895 147.841 2.36078V2.52549C147.841 2.56209 147.843 2.58824 147.848 2.60392C147.784 2.59869 147.717 2.59608 147.648 2.59608C147.579 2.59085 147.505 2.58824 147.425 2.58824H147.062C147.057 2.60915 147.049 2.69281 147.039 2.83922C147.034 2.98562 147.03 3.16078 147.025 3.36471C147.02 3.5634 147.015 3.77255 147.01 3.99216C147.01 4.21176 147.01 4.40784 147.01 4.58039C147.01 4.7268 147.012 4.87059 147.017 5.01176C147.027 5.15294 147.052 5.28105 147.091 5.39608C147.131 5.50588 147.19 5.59477 147.27 5.66274C147.349 5.73072 147.462 5.76471 147.611 5.76471C147.65 5.76471 147.702 5.75948 147.767 5.74902C147.836 5.73856 147.895 5.72549 147.945 5.7098V5.89804C147.861 5.91373 147.767 5.93203 147.663 5.95294C147.564 5.97908 147.467 5.99216 147.373 5.99216C147.062 5.99216 146.832 5.91111 146.683 5.74902C146.535 5.58693 146.461 5.34902 146.461 5.03529C146.461 4.89412 146.463 4.74248 146.468 4.58039C146.473 4.41307 146.478 4.23268 146.483 4.03922C146.493 3.84052 146.5 3.62353 146.505 3.38824C146.51 3.14771 146.512 2.88105 146.512 2.58824H146.275C146.235 2.58824 146.193 2.59085 146.149 2.59608C146.104 2.59608 146.057 2.59869 146.008 2.60392C146.013 2.57255 146.015 2.54379 146.015 2.51765C146.02 2.48627 146.023 2.4549 146.023 2.42353C146.023 2.39739 146.02 2.37124 146.015 2.3451C146.015 2.31895 146.013 2.29281 146.008 2.26667C146.23 2.28235 146.394 2.2902 146.498 2.2902C146.493 2.18562 146.488 2.0549 146.483 1.89804C146.483 1.74118 146.478 1.57908 146.468 1.41176L147.084 1.13725H147.121Z" fill="white"/>
<path d="M149.268 0.82353C149.268 0.713725 149.305 0.619608 149.38 0.541176C149.454 0.462745 149.543 0.42353 149.647 0.42353C149.751 0.42353 149.84 0.462745 149.914 0.541176C149.988 0.619608 150.025 0.713725 150.025 0.82353C150.025 0.933333 149.988 1.02745 149.914 1.10588C149.84 1.18431 149.751 1.22353 149.647 1.22353C149.543 1.22353 149.454 1.18431 149.38 1.10588C149.305 1.02745 149.268 0.933333 149.268 0.82353ZM149.372 3.6549C149.372 3.41961 149.367 3.17386 149.357 2.91765C149.352 2.65621 149.338 2.41307 149.313 2.18824C149.451 2.21438 149.563 2.22745 149.647 2.22745C149.731 2.22745 149.842 2.21438 149.981 2.18824C149.956 2.41307 149.939 2.65621 149.929 2.91765C149.924 3.17386 149.921 3.41961 149.921 3.6549V4.47059C149.921 4.70588 149.924 4.95425 149.929 5.21569C149.939 5.4719 149.956 5.70458 149.981 5.91373C149.867 5.90327 149.756 5.89804 149.647 5.89804C149.538 5.89804 149.427 5.90327 149.313 5.91373C149.338 5.70458 149.352 5.4719 149.357 5.21569C149.367 4.95425 149.372 4.70588 149.372 4.47059V3.6549Z" fill="white"/>
<path d="M152.262 4.06275C152.262 4.28235 152.279 4.49412 152.314 4.69804C152.353 4.90196 152.417 5.08497 152.507 5.24706C152.596 5.40392 152.714 5.52941 152.863 5.62353C153.011 5.71765 153.194 5.76471 153.412 5.76471C153.63 5.76471 153.813 5.71765 153.961 5.62353C154.11 5.52941 154.228 5.40392 154.317 5.24706C154.406 5.08497 154.468 4.90196 154.503 4.69804C154.543 4.49412 154.562 4.28235 154.562 4.06275C154.562 3.84314 154.543 3.63137 154.503 3.42745C154.468 3.22353 154.406 3.04314 154.317 2.88627C154.228 2.72418 154.11 2.59608 153.961 2.50196C153.813 2.40784 153.63 2.36078 153.412 2.36078C153.194 2.36078 153.011 2.40784 152.863 2.50196C152.714 2.59608 152.596 2.72418 152.507 2.88627C152.417 3.04314 152.353 3.22353 152.314 3.42745C152.279 3.63137 152.262 3.84314 152.262 4.06275ZM151.609 4.06275C151.609 3.70719 151.66 3.40654 151.764 3.16078C151.873 2.9098 152.014 2.7085 152.187 2.55686C152.361 2.4 152.554 2.28758 152.766 2.21961C152.984 2.14641 153.199 2.1098 153.412 2.1098C153.63 2.1098 153.845 2.14641 154.058 2.21961C154.27 2.28758 154.463 2.4 154.637 2.55686C154.81 2.7085 154.948 2.9098 155.052 3.16078C155.161 3.40654 155.215 3.70719 155.215 4.06275C155.215 4.4183 155.161 4.72157 155.052 4.97255C154.948 5.2183 154.81 5.41961 154.637 5.57647C154.463 5.7281 154.27 5.83529 154.058 5.89804C153.845 5.96078 153.63 5.99216 153.412 5.99216C153.199 5.99216 152.984 5.96078 152.766 5.89804C152.554 5.83529 152.361 5.7281 152.187 5.57647C152.014 5.41961 151.873 5.2183 151.764 4.97255C151.66 4.72157 151.609 4.4183 151.609 4.06275Z" fill="white"/>
<path d="M159.124 3.7098C159.124 3.31765 159.052 3.02222 158.909 2.82353C158.765 2.61961 158.568 2.51765 158.315 2.51765C157.969 2.51765 157.714 2.63007 157.551 2.8549C157.392 3.07974 157.313 3.39608 157.313 3.80392V4.47059C157.313 4.70588 157.316 4.95425 157.321 5.21569C157.331 5.4719 157.348 5.70458 157.373 5.91373C157.259 5.90327 157.148 5.89804 157.039 5.89804C156.93 5.89804 156.818 5.90327 156.705 5.91373C156.729 5.70458 156.744 5.4719 156.749 5.21569C156.759 4.95425 156.764 4.70588 156.764 4.47059V3.6549C156.764 3.41961 156.759 3.17386 156.749 2.91765C156.744 2.65621 156.729 2.41307 156.705 2.18824C156.843 2.21438 156.955 2.22745 157.039 2.22745C157.078 2.22745 157.12 2.22484 157.165 2.21961C157.214 2.20915 157.271 2.19869 157.336 2.18824C157.321 2.39739 157.313 2.60654 157.313 2.81569H157.328C157.467 2.59085 157.632 2.4183 157.825 2.29804C158.018 2.17255 158.248 2.1098 158.516 2.1098C158.654 2.1098 158.793 2.13072 158.931 2.17255C159.075 2.21438 159.203 2.28758 159.317 2.39216C159.431 2.4915 159.522 2.63007 159.592 2.80784C159.666 2.98039 159.703 3.20261 159.703 3.47451C159.703 3.69935 159.698 3.93203 159.688 4.17255C159.678 4.40784 159.673 4.65882 159.673 4.92549V5.43529C159.673 5.51895 159.673 5.60261 159.673 5.68627C159.678 5.76471 159.683 5.84052 159.688 5.91373C159.589 5.90327 159.485 5.89804 159.376 5.89804C159.273 5.89804 159.171 5.90327 159.072 5.91373C159.082 5.64183 159.092 5.36209 159.102 5.07451C159.117 4.78693 159.124 4.4915 159.124 4.18824V3.7098Z" fill="white"/>
<path d="M164.245 3.6549C164.245 3.41961 164.24 3.17386 164.23 2.91765C164.225 2.65621 164.21 2.41307 164.186 2.18824C164.324 2.21438 164.435 2.22745 164.52 2.22745C164.559 2.22745 164.601 2.22484 164.646 2.21961C164.695 2.20915 164.752 2.19869 164.816 2.18824C164.802 2.39739 164.794 2.60654 164.794 2.81569H164.809C165.071 2.3451 165.44 2.1098 165.915 2.1098C166.039 2.1098 166.16 2.13072 166.279 2.17255C166.397 2.20915 166.504 2.26144 166.598 2.32941C166.697 2.39739 166.781 2.48105 166.85 2.58039C166.919 2.67451 166.966 2.77647 166.991 2.88627H167.006C167.125 2.63529 167.285 2.44444 167.488 2.31373C167.696 2.17778 167.934 2.1098 168.201 2.1098C168.364 2.1098 168.515 2.13333 168.653 2.18039C168.792 2.22745 168.911 2.30065 169.01 2.4C169.114 2.49935 169.193 2.62745 169.247 2.78431C169.307 2.94118 169.336 3.12941 169.336 3.34902C169.336 3.43791 169.334 3.53464 169.329 3.63922C169.324 3.74379 169.319 3.86667 169.314 4.00784C169.309 4.14379 169.304 4.30065 169.299 4.47843C169.294 4.65098 169.292 4.85229 169.292 5.08235C169.292 5.22353 169.292 5.35948 169.292 5.4902C169.297 5.62091 169.304 5.76209 169.314 5.91373C169.26 5.90327 169.205 5.89804 169.151 5.89804C169.096 5.89804 169.044 5.89804 168.995 5.89804C168.94 5.89804 168.886 5.89804 168.832 5.89804C168.777 5.89804 168.723 5.90327 168.668 5.91373C168.683 5.78301 168.698 5.51895 168.713 5.12157C168.733 4.72418 168.743 4.16993 168.743 3.45882C168.743 3.3281 168.728 3.20523 168.698 3.0902C168.673 2.97516 168.631 2.87582 168.572 2.79216C168.512 2.7085 168.433 2.64314 168.334 2.59608C168.235 2.54379 168.112 2.51765 167.963 2.51765C167.785 2.51765 167.634 2.55425 167.511 2.62745C167.387 2.70065 167.29 2.78693 167.221 2.88627C167.182 2.94379 167.149 3.00131 167.125 3.05882C167.105 3.11634 167.087 3.20523 167.073 3.32549C167.063 3.44052 167.055 3.60523 167.05 3.81961C167.045 4.02876 167.043 4.31895 167.043 4.6902C167.043 4.91503 167.045 5.12157 167.05 5.3098C167.06 5.49281 167.07 5.69412 167.08 5.91373C166.966 5.90327 166.857 5.89804 166.754 5.89804C166.65 5.89804 166.541 5.90327 166.427 5.91373C166.452 5.62614 166.469 5.33333 166.479 5.03529C166.489 4.73725 166.494 4.44444 166.494 4.15686C166.494 3.91111 166.491 3.72026 166.486 3.58431C166.486 3.44314 166.481 3.33333 166.472 3.2549C166.462 3.17124 166.447 3.10327 166.427 3.05098C166.412 2.99869 166.39 2.94118 166.36 2.87843C166.306 2.77908 166.219 2.69542 166.1 2.62745C165.987 2.55425 165.868 2.51765 165.744 2.51765C165.418 2.51765 165.178 2.63007 165.024 2.8549C164.871 3.07974 164.794 3.39608 164.794 3.80392V4.47059C164.794 4.70588 164.797 4.95425 164.802 5.21569C164.812 5.4719 164.829 5.70458 164.854 5.91373C164.74 5.90327 164.628 5.89804 164.52 5.89804C164.411 5.89804 164.299 5.90327 164.186 5.91373C164.21 5.70458 164.225 5.4719 164.23 5.21569C164.24 4.95425 164.245 4.70588 164.245 4.47059V3.6549Z" fill="white"/>
<path d="M172.988 3.96078C172.904 3.99216 172.805 4.0183 172.691 4.03922C172.582 4.06013 172.471 4.08366 172.357 4.1098C172.243 4.13072 172.129 4.15948 172.016 4.19608C171.907 4.23268 171.808 4.28235 171.719 4.3451C171.635 4.40784 171.565 4.48627 171.511 4.58039C171.461 4.67451 171.437 4.79477 171.437 4.94118C171.437 5.18693 171.503 5.37255 171.637 5.49804C171.771 5.62353 171.919 5.68627 172.082 5.68627C172.27 5.68627 172.441 5.63137 172.594 5.52157C172.753 5.41176 172.874 5.28366 172.958 5.13725L172.988 3.96078ZM171.155 2.56471C171.377 2.38693 171.583 2.26667 171.771 2.20392C171.959 2.14118 172.152 2.1098 172.35 2.1098C172.528 2.1098 172.691 2.13856 172.839 2.19608C172.988 2.24837 173.114 2.3268 173.218 2.43137C173.322 2.53072 173.403 2.65359 173.463 2.8C173.522 2.94118 173.552 3.09804 173.552 3.27059C173.552 3.56863 173.547 3.86667 173.537 4.16471C173.527 4.45752 173.522 4.76863 173.522 5.09804C173.522 5.16078 173.522 5.22876 173.522 5.30196C173.527 5.36993 173.539 5.43268 173.559 5.4902C173.579 5.54248 173.606 5.58693 173.641 5.62353C173.68 5.66013 173.737 5.67843 173.812 5.67843C173.836 5.67843 173.861 5.67843 173.886 5.67843C173.915 5.6732 173.943 5.66275 173.967 5.64706V5.81961C173.913 5.84575 173.844 5.86667 173.76 5.88235C173.68 5.89804 173.591 5.90588 173.492 5.90588C173.334 5.90588 173.213 5.86405 173.129 5.78039C173.045 5.6915 172.995 5.57908 172.98 5.44314C172.802 5.63137 172.627 5.76993 172.453 5.85882C172.28 5.94771 172.068 5.99216 171.815 5.99216C171.691 5.99216 171.57 5.97386 171.452 5.93725C171.333 5.90065 171.226 5.84052 171.132 5.75686C171.043 5.6732 170.969 5.57386 170.91 5.45882C170.855 5.33856 170.828 5.20261 170.828 5.05098C170.828 4.73726 170.92 4.49412 171.103 4.32157C171.291 4.14902 171.548 4.03399 171.875 3.97647C172.142 3.92941 172.35 3.8902 172.498 3.85882C172.651 3.82222 172.763 3.78562 172.832 3.74902C172.906 3.71242 172.951 3.67059 172.966 3.62353C172.98 3.57124 172.988 3.50588 172.988 3.42745C172.988 3.29673 172.973 3.17124 172.943 3.05098C172.914 2.93072 172.867 2.82614 172.802 2.73725C172.738 2.64837 172.654 2.57778 172.55 2.52549C172.446 2.46797 172.32 2.43922 172.171 2.43922C171.973 2.43922 171.788 2.48627 171.615 2.58039C171.447 2.67451 171.32 2.80523 171.236 2.97255H171.155V2.56471Z" fill="white"/>
<path d="M176.135 1.13725C176.12 1.33595 176.107 1.53203 176.097 1.72549C176.093 1.91373 176.085 2.10458 176.075 2.29804C176.13 2.29804 176.231 2.29804 176.38 2.29804C176.528 2.29281 176.689 2.28497 176.862 2.27451C176.857 2.2902 176.854 2.31895 176.854 2.36078V2.52549C176.854 2.56209 176.857 2.58824 176.862 2.60392C176.798 2.59869 176.731 2.59608 176.662 2.59608C176.592 2.59085 176.518 2.58824 176.439 2.58824H176.075C176.07 2.60915 176.063 2.69281 176.053 2.83922C176.048 2.98562 176.043 3.16078 176.038 3.36471C176.033 3.5634 176.028 3.77255 176.023 3.99216C176.023 4.21176 176.023 4.40784 176.023 4.58039C176.023 4.7268 176.026 4.87059 176.031 5.01176C176.041 5.15294 176.065 5.28105 176.105 5.39608C176.144 5.50588 176.204 5.59477 176.283 5.66274C176.362 5.73072 176.476 5.76471 176.624 5.76471C176.664 5.76471 176.716 5.75948 176.78 5.74902C176.85 5.73856 176.909 5.72549 176.958 5.7098V5.89804C176.874 5.91373 176.78 5.93203 176.676 5.95294C176.577 5.97908 176.481 5.99216 176.387 5.99216C176.075 5.99216 175.845 5.91111 175.697 5.74902C175.548 5.58693 175.474 5.34902 175.474 5.03529C175.474 4.89412 175.477 4.74248 175.481 4.58039C175.486 4.41307 175.491 4.23268 175.496 4.03922C175.506 3.84052 175.514 3.62353 175.519 3.38824C175.524 3.14771 175.526 2.88105 175.526 2.58824H175.289C175.249 2.58824 175.207 2.59085 175.162 2.59608C175.118 2.59608 175.071 2.59869 175.021 2.60392C175.026 2.57255 175.029 2.54379 175.029 2.51765C175.034 2.48627 175.036 2.4549 175.036 2.42353C175.036 2.39739 175.034 2.37124 175.029 2.3451C175.029 2.31895 175.026 2.29281 175.021 2.26667C175.244 2.28235 175.407 2.2902 175.511 2.2902C175.506 2.18562 175.501 2.0549 175.496 1.89804C175.496 1.74118 175.491 1.57908 175.481 1.41176L176.097 1.13725H176.135Z" fill="white"/>
<path d="M179.603 2.36078C179.42 2.36078 179.264 2.40523 179.135 2.49412C179.012 2.58301 178.908 2.69542 178.824 2.83137C178.744 2.96209 178.683 3.1085 178.638 3.27059C178.598 3.42745 178.574 3.57647 178.564 3.71765C178.717 3.72288 178.876 3.7281 179.039 3.73333C179.207 3.73856 179.37 3.74118 179.529 3.74118C179.692 3.74118 179.858 3.73856 180.026 3.73333C180.194 3.7281 180.357 3.72288 180.516 3.71765C180.516 3.57647 180.503 3.42745 180.479 3.27059C180.459 3.11373 180.414 2.96732 180.345 2.83137C180.281 2.69542 180.189 2.58301 180.07 2.49412C179.952 2.40523 179.796 2.36078 179.603 2.36078ZM177.888 4.17255C177.888 3.52941 178.032 3.02484 178.319 2.65882C178.611 2.29281 179.034 2.1098 179.588 2.1098C179.85 2.1098 180.075 2.15425 180.263 2.24314C180.456 2.3268 180.617 2.44183 180.746 2.58824C180.874 2.72941 180.968 2.89673 181.028 3.0902C181.092 3.28366 181.124 3.4902 181.124 3.7098C181.124 3.76209 181.122 3.81438 181.117 3.86667C181.117 3.91373 181.114 3.9634 181.109 4.01569C180.842 4.01046 180.578 4.00523 180.315 4C180.053 3.99477 179.788 3.99216 179.521 3.99216C179.358 3.99216 179.195 3.99477 179.031 4C178.873 4.00523 178.712 4.01046 178.549 4.01569C178.544 4.04183 178.542 4.08105 178.542 4.13333V4.23529C178.542 4.43922 178.569 4.63007 178.623 4.80784C178.683 4.98562 178.767 5.13987 178.876 5.27059C178.984 5.39608 179.118 5.49804 179.276 5.57647C179.435 5.64967 179.618 5.68627 179.826 5.68627C179.924 5.68627 180.026 5.6732 180.13 5.64706C180.234 5.61569 180.335 5.57647 180.434 5.52941C180.533 5.47712 180.625 5.41699 180.709 5.34902C180.798 5.28105 180.874 5.20784 180.939 5.12941L180.976 5.15294L180.931 5.53725C180.783 5.66274 180.597 5.76993 180.375 5.85882C180.157 5.94771 179.929 5.99216 179.692 5.99216C179.425 5.99216 179.18 5.95033 178.957 5.86667C178.739 5.77778 178.549 5.65229 178.386 5.4902C178.227 5.32288 178.104 5.1268 178.015 4.90196C177.931 4.67712 177.888 4.43399 177.888 4.17255Z" fill="white"/>
<path d="M184.271 2.83137C184.246 2.8 184.197 2.77124 184.123 2.7451C184.053 2.71895 183.982 2.70588 183.907 2.70588C183.789 2.70588 183.682 2.73464 183.588 2.79216C183.494 2.84967 183.415 2.9281 183.351 3.02745C183.286 3.12157 183.237 3.2366 183.202 3.37255C183.168 3.50327 183.15 3.64444 183.15 3.79608V4.65882C183.15 5.00915 183.15 5.27843 183.15 5.46667C183.155 5.64967 183.165 5.79869 183.18 5.91373C183.081 5.90327 182.982 5.89804 182.883 5.89804C182.774 5.89804 182.67 5.90327 182.572 5.91373C182.586 5.73595 182.594 5.49542 182.594 5.19216C182.599 4.88366 182.601 4.50719 182.601 4.06275V3.81176C182.601 3.60784 182.599 3.37255 182.594 3.10588C182.594 2.83922 182.586 2.53333 182.572 2.18824C182.626 2.19869 182.678 2.20915 182.727 2.21961C182.777 2.22484 182.829 2.22745 182.883 2.22745C182.928 2.22745 182.975 2.22484 183.024 2.21961C183.074 2.20915 183.126 2.19869 183.18 2.18824C183.16 2.37647 183.148 2.52549 183.143 2.63529C183.143 2.7451 183.143 2.84967 183.143 2.94902L183.158 2.95686C183.45 2.39216 183.776 2.1098 184.138 2.1098C184.182 2.1098 184.219 2.11242 184.249 2.11765C184.283 2.12288 184.326 2.13595 184.375 2.15686C184.35 2.21961 184.335 2.31634 184.33 2.44706C184.326 2.57255 184.323 2.68758 184.323 2.79216L184.271 2.83137Z" fill="white"/>
<path d="M185.8 0.82353C185.8 0.713725 185.837 0.619608 185.911 0.541176C185.986 0.462745 186.075 0.42353 186.179 0.42353C186.282 0.42353 186.372 0.462745 186.446 0.541176C186.52 0.619608 186.557 0.713725 186.557 0.82353C186.557 0.933333 186.52 1.02745 186.446 1.10588C186.372 1.18431 186.282 1.22353 186.179 1.22353C186.075 1.22353 185.986 1.18431 185.911 1.10588C185.837 1.02745 185.8 0.933333 185.8 0.82353ZM185.904 3.6549C185.904 3.41961 185.899 3.17386 185.889 2.91765C185.884 2.65621 185.869 2.41307 185.845 2.18824C185.983 2.21438 186.094 2.22745 186.179 2.22745C186.263 2.22745 186.374 2.21438 186.513 2.18824C186.488 2.41307 186.47 2.65621 186.461 2.91765C186.456 3.17386 186.453 3.41961 186.453 3.6549V4.47059C186.453 4.70588 186.456 4.95425 186.461 5.21569C186.47 5.4719 186.488 5.70458 186.513 5.91373C186.399 5.90327 186.287 5.89804 186.179 5.89804C186.07 5.89804 185.958 5.90327 185.845 5.91373C185.869 5.70458 185.884 5.4719 185.889 5.21569C185.899 4.95425 185.904 4.70588 185.904 4.47059V3.6549Z" fill="white"/>
<path d="M190.352 3.96078C190.268 3.99216 190.169 4.0183 190.055 4.03922C189.946 4.06013 189.835 4.08366 189.721 4.1098C189.607 4.13072 189.493 4.15948 189.38 4.19608C189.271 4.23268 189.172 4.28235 189.083 4.3451C188.999 4.40784 188.929 4.48627 188.875 4.58039C188.825 4.67451 188.801 4.79477 188.801 4.94118C188.801 5.18693 188.868 5.37255 189.001 5.49804C189.135 5.62353 189.283 5.68627 189.446 5.68627C189.634 5.68627 189.805 5.63137 189.959 5.52157C190.117 5.41176 190.238 5.28366 190.322 5.13725L190.352 3.96078ZM188.519 2.56471C188.741 2.38693 188.947 2.26667 189.135 2.20392C189.323 2.14118 189.516 2.1098 189.714 2.1098C189.892 2.1098 190.055 2.13856 190.203 2.19608C190.352 2.24837 190.478 2.3268 190.582 2.43137C190.686 2.53072 190.768 2.65359 190.827 2.8C190.886 2.94118 190.916 3.09804 190.916 3.27059C190.916 3.56863 190.911 3.86667 190.901 4.16471C190.891 4.45752 190.886 4.76863 190.886 5.09804C190.886 5.16078 190.886 5.22876 190.886 5.30196C190.891 5.36993 190.904 5.43268 190.923 5.4902C190.943 5.54248 190.97 5.58693 191.005 5.62353C191.045 5.66013 191.101 5.67843 191.176 5.67843C191.2 5.67843 191.225 5.67843 191.25 5.67843C191.28 5.6732 191.307 5.66275 191.332 5.64706V5.81961C191.277 5.84575 191.208 5.86667 191.124 5.88235C191.045 5.89804 190.956 5.90588 190.857 5.90588C190.698 5.90588 190.577 5.86405 190.493 5.78039C190.409 5.6915 190.359 5.57908 190.344 5.44314C190.166 5.63137 189.991 5.76993 189.818 5.85882C189.644 5.94771 189.432 5.99216 189.179 5.99216C189.056 5.99216 188.934 5.97386 188.816 5.93725C188.697 5.90065 188.59 5.84052 188.496 5.75686C188.407 5.6732 188.333 5.57386 188.274 5.45882C188.219 5.33856 188.192 5.20261 188.192 5.05098C188.192 4.73726 188.284 4.49412 188.467 4.32157C188.655 4.14902 188.912 4.03399 189.239 3.97647C189.506 3.92941 189.714 3.8902 189.862 3.85882C190.015 3.82222 190.127 3.78562 190.196 3.74902C190.27 3.71242 190.315 3.67059 190.33 3.62353C190.344 3.57124 190.352 3.50588 190.352 3.42745C190.352 3.29673 190.337 3.17124 190.307 3.05098C190.278 2.93072 190.231 2.82614 190.166 2.73725C190.102 2.64837 190.018 2.57778 189.914 2.52549C189.81 2.46797 189.684 2.43922 189.535 2.43922C189.338 2.43922 189.152 2.48627 188.979 2.58039C188.811 2.67451 188.684 2.80523 188.6 2.97255H188.519V2.56471Z" fill="white"/>
<path d="M193.016 2.25882C193.016 2.08105 193.014 1.88758 193.009 1.67843C193.009 1.46928 193.006 1.26275 193.001 1.05882C192.996 0.854902 192.989 0.661438 192.979 0.478431C192.974 0.290196 192.967 0.130719 192.957 0C193.095 0.0261438 193.207 0.0392156 193.291 0.0392156C193.375 0.0392156 193.486 0.0261438 193.625 0C193.615 0.130719 193.605 0.290196 193.595 0.478431C193.59 0.661438 193.585 0.854902 193.58 1.05882C193.575 1.26275 193.57 1.46928 193.565 1.67843C193.565 1.88758 193.565 2.08105 193.565 2.25882V3.67843C193.565 3.85621 193.565 4.04967 193.565 4.25882C193.57 4.46797 193.575 4.67451 193.58 4.87843C193.585 5.08235 193.59 5.27582 193.595 5.45882C193.605 5.64183 193.615 5.79346 193.625 5.91373C193.511 5.90327 193.4 5.89804 193.291 5.89804C193.182 5.89804 193.071 5.90327 192.957 5.91373C192.967 5.79346 192.974 5.64183 192.979 5.45882C192.989 5.27582 192.996 5.08235 193.001 4.87843C193.006 4.67451 193.009 4.46797 193.009 4.25882C193.014 4.04967 193.016 3.85621 193.016 3.67843V2.25882Z" fill="white"/>
<path d="M195.52 5.18431C195.544 5.2366 195.582 5.29412 195.631 5.35686C195.686 5.41961 195.747 5.47974 195.817 5.53725C195.891 5.58954 195.972 5.63399 196.062 5.67059C196.156 5.70719 196.255 5.72549 196.358 5.72549C196.452 5.72549 196.541 5.7098 196.626 5.67843C196.715 5.64706 196.791 5.60261 196.856 5.5451C196.925 5.48758 196.979 5.41438 197.019 5.32549C197.059 5.2366 197.078 5.13464 197.078 5.01961C197.078 4.85752 197.034 4.73464 196.945 4.65098C196.861 4.56209 196.754 4.4915 196.626 4.43922C196.497 4.3817 196.356 4.33203 196.203 4.2902C196.049 4.24837 195.908 4.19085 195.78 4.11765C195.651 4.03922 195.542 3.93725 195.453 3.81176C195.369 3.68627 195.327 3.51373 195.327 3.29412C195.327 3.12157 195.354 2.96471 195.408 2.82353C195.463 2.67712 195.542 2.55163 195.646 2.44706C195.75 2.34248 195.878 2.26144 196.032 2.20392C196.185 2.14118 196.361 2.1098 196.559 2.1098C196.742 2.1098 196.895 2.13595 197.019 2.18824C197.148 2.24052 197.269 2.28758 197.383 2.32941C197.343 2.40784 197.306 2.50458 197.271 2.61961C197.237 2.73464 197.214 2.82353 197.204 2.88627H197.115C197.076 2.76078 196.999 2.64837 196.885 2.54902C196.772 2.44967 196.631 2.4 196.462 2.4C196.388 2.4 196.314 2.41307 196.24 2.43922C196.165 2.46536 196.099 2.50458 196.039 2.55686C195.98 2.60915 195.93 2.67712 195.891 2.76078C195.851 2.84444 195.831 2.94379 195.831 3.05882C195.831 3.22614 195.874 3.35686 195.958 3.45098C196.047 3.53987 196.156 3.61046 196.284 3.66274C196.413 3.71503 196.554 3.76209 196.707 3.80392C196.861 3.84052 197.002 3.89542 197.13 3.96863C197.259 4.0366 197.365 4.13333 197.449 4.25882C197.538 4.38431 197.583 4.55686 197.583 4.77647C197.583 4.9281 197.551 5.07712 197.486 5.22353C197.427 5.36993 197.338 5.50327 197.219 5.62353C197.106 5.73856 196.967 5.83007 196.804 5.89804C196.64 5.96078 196.455 5.99216 196.247 5.99216C196.019 5.99216 195.829 5.96863 195.676 5.92157C195.522 5.87451 195.394 5.81961 195.29 5.75686C195.319 5.68889 195.349 5.59739 195.379 5.48235C195.413 5.36209 195.431 5.26275 195.431 5.18431H195.52Z" fill="white"/>
<path d="M199.154 5.5451C199.154 5.42484 199.196 5.32026 199.28 5.23137C199.364 5.14248 199.463 5.09804 199.577 5.09804C199.691 5.09804 199.79 5.14248 199.874 5.23137C199.958 5.32026 200 5.42484 200 5.5451C200 5.66536 199.958 5.76732 199.874 5.85098C199.79 5.92941 199.691 5.96863 199.577 5.96863C199.463 5.96863 199.364 5.92941 199.28 5.85098C199.196 5.76732 199.154 5.66536 199.154 5.5451Z" fill="white"/>
</svg>
