<?xml version="1.0" encoding="utf-8"?>
<!-- Generator: Adobe Illustrator 26.5.0, SVG Export Plug-In . SVG Version: 6.00 Build 0)  -->
<svg version="1.1" id="圖層_1" xmlns="http://www.w3.org/2000/svg" xmlns:xlink="http://www.w3.org/1999/xlink" x="0px" y="0px"
	 viewBox="0 0 845 80" style="enable-background:new 0 0 845 80;" xml:space="preserve">
<style type="text/css">
	.st0{fill:#FFFFFF;}
	.st1{fill:url(#SVGID_1_);}
</style>
<path class="st0" d="M352.3,17.7h17.3v3.2h-17.3V17.7z M364.9,16.6l2-2c1,0.5,2.2,1.3,2.8,2l-2.1,2.1C367,18,365.8,17.1,364.9,16.6z
	 M365.7,21.5l3.5,0.7c-1.6,5.4-4.6,9.7-8.7,12.4c-0.5-0.7-1.7-2.1-2.5-2.8C361.9,29.6,364.6,26,365.7,21.5z M351.9,29.5
	c2.3-0.2,5.5-0.4,8.7-0.8l0.1,3c-2.9,0.4-6,0.7-8.4,1.1L351.9,29.5z M355.8,24.3v1.4h1.3v-1.4H355.8z M352.9,22h7.2v6h-7.2V22z
	 M360.4,15.4h3.8c0.2,7.3,1,14.3,2.6,14.8c0.3,0.1,0.5-1.1,0.6-2.8c0.7,0.7,2.1,1.8,2.8,2.2c-0.5,4.2-2.6,5.4-4.9,4.2
	C361.5,32.4,360.8,24.2,360.4,15.4z M347.1,11h27.8v29.2h-4.6v-25h-18.8v25h-4.4V11z M349.9,34.7h22.9v4.2h-22.9V34.7z M381.7,10.9
	h7.2V15h-3.3v24.9h-3.9V10.9z M387.6,10.9h0.7l0.6-0.2l2.9,1.6c-0.7,2.8-1.6,6.1-2.3,8.6c1.5,2.5,1.8,4.7,1.8,6.5
	c0,2.2-0.4,3.6-1.4,4.4c-0.5,0.4-1.1,0.6-1.8,0.8c-0.5,0.1-1.2,0.1-1.9,0.1c0-1.1-0.4-2.7-0.9-3.8c0.4,0,0.7,0,1,0s0.5-0.1,0.7-0.3
	c0.3-0.3,0.4-0.9,0.4-1.8c0-1.4-0.2-3.4-1.6-5.6c0.7-2.8,1.5-7.2,1.8-9.2V10.9z M395.9,21.8h9.1v3.6h-9.1V21.8z M393,27.2h15.1v3.7
	H393V27.2z M394.2,11.9h4.6v2.9h-4.6V11.9z M393.1,16.8l1.9-2c1.1,0.8,2.6,1.9,3.3,2.6l-1.9,2.3C395.7,18.9,394.2,17.7,393.1,16.8z
	 M403.7,33.3l3.4-2c1.3,1.5,3.3,3.7,4.2,5.1l-3.6,2.2C406.8,37.3,405,35,403.7,33.3z M398,11.9h0.6l0.6-0.1l2.3,0.9
	c-1.3,6.6-4.5,11.4-8.7,14.1c-0.5-0.8-1.5-2.1-2.2-2.8c3.6-2.1,6.5-6.6,7.5-11.5V11.9z M403,11.3h4.9v3H403V11.3z M394,9.7l3.4,0.8
	c-1.2,3.5-3.2,6.7-5.4,8.8c-0.6-0.6-1.9-1.8-2.7-2.3C391.4,15.2,393.1,12.6,394,9.7z M406.7,11.3h0.8l0.7-0.2l2.5,1.4
	c-0.9,2.8-2.4,5.9-4,7.8c-0.5-0.8-1.7-2-2.4-2.6c1.1-1.5,2-4,2.4-5.8V11.3z M393.3,31.8l4.2,1.3c-1.1,2-2.9,4.4-4.2,5.8
	c-0.9-0.7-2.7-1.8-3.7-2.3C390.9,35.3,392.4,33.4,393.3,31.8z M403.7,12.6c1.2,4.7,3.8,8.9,7.8,10.8c-0.9,0.7-2,2.2-2.6,3.2
	c-4.4-2.6-7.1-7.4-8.6-13.3L403.7,12.6z M398.5,28.7h4.4V40h-4.4V28.7z M390.2,19.4c1.2-0.1,2.6-0.2,4.2-0.4l0.1,2.3
	c-1.4,0.3-2.5,0.5-3.9,0.8L390.2,19.4z M424.1,23.1l3.1-1.2c1.1,2,2,4.6,2.3,6.3l-3.3,1.3C425.9,27.9,425,25.2,424.1,23.1z
	 M420.6,31.6l3.1-0.8c0.4,2,0.7,4.7,0.8,6.4l-3.3,0.9C421.2,36.3,420.9,33.6,420.6,31.6z M416.8,31.1l3.6,0.6
	c-0.2,2.9-0.6,6-1.3,7.9c-0.8-0.4-2.5-0.9-3.4-1.2C416.4,36.5,416.6,33.7,416.8,31.1z M417.1,22.8c-0.2-0.9-0.9-2.9-1.4-4.1
	c0.7-0.2,1.2-0.7,1.9-1.7c0.6-0.9,2.5-4.3,3.6-7.6l4.3,1.7c-1.4,3.3-3.7,6.9-5.8,9.4v0.1C419.6,20.6,417.1,22,417.1,22.8z
	 M417.1,22.7l-0.1-3.2l1.8-1.2l5.5-0.4c-0.2,1.1-0.4,2.8-0.5,3.7C418.9,22.1,417.8,22.4,417.1,22.7z M417.3,30.2
	c-0.2-0.8-0.9-2.9-1.4-4.1c1-0.2,1.6-0.9,2.7-2.1c1.2-1.2,4.6-5.7,6.7-10.1l3.8,2.5c-2.4,4.2-5.9,8.5-9.2,11.6v0.1
	C419.8,28.2,417.3,29.5,417.3,30.2z M417.3,30.2l-0.3-3.3l1.8-1.2l8.1-1.2c-0.2,1.1-0.2,2.7-0.2,3.6
	C419.5,29.4,418.2,29.8,417.3,30.2z M423.9,30.9l3-1c0.6,1.6,1.2,3.7,1.6,5l-3.2,1.2C425.1,34.7,424.5,32.6,423.9,30.9z M428.2,10.9
	h11.3v4.4h-11.3V10.9z M438.3,10.9h0.5l0.7-0.2l3.2,0.4c-0.4,3.4-1.1,7-1.7,10.1l-4.3-0.5c0.6-3.1,1.3-7.2,1.5-9.4V10.9z
	 M432.6,19.8h9.8v4.1h-10.5L432.6,19.8z M441.1,19.8h0.8l0.8-0.2l2.9,1c-1.4,9.3-5,15.6-10.8,19.4c-0.7-1.1-1.9-2.7-2.9-3.5
	c4.9-2.8,8.2-9,9.2-15.9V19.8z M430.6,12.6l4.5,0c-0.1,11.5-0.7,21.2-4.4,27.3c-0.7-0.7-2.9-2.3-4-2.9
	C430.2,31.9,430.7,22.9,430.6,12.6z M436,22.8c1.5,5.9,4.6,10.9,10,13.2c-1,0.9-2.4,2.7-3.1,3.9c-5.8-3-8.8-8.9-10.6-16.4L436,22.8z
	 M454.5,9.6h4V40h-4V9.6z M450.7,20.3h11v4.3h-11V20.3z M452.9,25.4l2.8,1c-0.6,3.6-1.8,8-3.8,10.2c-0.4-1.4-1.2-3.5-1.8-4.9
	C451.4,30.2,452.6,27.6,452.9,25.4z M459.7,25.5c0.7,0.6,2.9,3.4,3.4,4l-2.9,3.3c-0.6-1.6-2-4.3-2.8-5.6L459.7,25.5z M450.5,12.5
	l3.2-0.8c0.5,2.2,1.1,5,1.3,6.8l-3.3,0.9C451.5,17.5,451,14.7,450.5,12.5z M459.6,11.8l3.7,1.2c-0.9,2.3-1.9,4.9-2.7,6.5l-2.8-1
	C458.5,16.6,459.3,13.8,459.6,11.8z M462.8,11.8h17.4v3.2h-17.4V11.8z M463.6,15.9h16v3h-16V15.9z M462.3,19.9h18.5v3.3h-18.5V19.9z
	 M469.1,9.6h4.5v12.1h-4.5V9.6z M475.1,24.2h4.3V36c0,1.8-0.4,2.8-1.6,3.4c-1.2,0.6-2.8,0.6-4.9,0.6c-0.2-1.1-0.7-2.6-1.2-3.6
	c1,0.1,2.4,0.1,2.8,0.1c0.4,0,0.5-0.1,0.5-0.5V24.2z M466,28.5h10.8v2.9H466V28.5z M466,32.5h10.8v2.9H466V32.5z M463.6,24.2h4.2
	v5.7c0,3.3-0.5,7.7-3,10.4c-0.6-0.8-2.4-2.4-3.2-2.9c1.9-2.1,2-5.1,2-7.5V24.2z M466.1,24.2h10.1v3.4h-10.1V24.2z M487.7,12.8h25.8
	v4.9h-25.8V12.8z M485.8,33.3h29.5V38h-29.5V33.3z M497.7,15.5h5.3v19.6h-5.3V15.5z M530.2,16.3h19.6v3.4h-19.6V16.3z M531.4,25.3
	h17v3.2h-17V25.3z M530.2,29.5h19.1V33h-19.1V29.5z M536.8,9.7h4.4v24.9h-4.4V9.7z M531.7,11.8h16.5v12.4h-16.7v-3.5h12.6v-5.5
	h-12.5V11.8z M521.1,11.3h7.2v4h-7.2V11.3z M523.9,20.4h4.4v4h-4.4V20.4z M526.7,20.4h0.8l0.8-0.1l2.6,0.6c-0.8,9.8-3.2,16-7.5,19.2
	c-0.7-0.9-2.4-2.4-3.3-3c4.1-2.7,6.1-7.8,6.7-15.9V20.4z M524.2,25.8c2.5,8.3,8,9.5,15.2,9.6c2.1,0,8.6,0,11.2-0.1
	c-0.6,1-1.4,3-1.6,4.2h-9.7c-9.1,0-15.3-1.9-18.5-12.6L524.2,25.8z M522.2,26.1c-0.3-0.8-1.2-2.6-1.8-3.5c0.7-0.2,1.7-1.2,2.4-2.3
	c0.7-1.1,2.7-5,3.9-8.8v-0.2l1.6-0.6l2.8,1.9c-1.7,4.3-3.9,8.4-5.8,11.3v0.1C525.2,23.9,522.2,25.3,522.2,26.1z M569.5,16.1h15.9
	v4.4h-15.9V16.1z M577.5,9.7h5v24.9c0,2.5-0.5,3.7-1.9,4.4c-1.5,0.8-3.6,0.9-6.4,0.9c-0.2-1.3-0.9-3.4-1.5-4.7
	c1.6,0.1,3.5,0.1,4.1,0.1s0.8-0.2,0.8-0.7V9.7z M577.1,18.3l3.8,2.3c-2.3,5.5-6.8,11.6-11.3,14.9c-0.8-1.2-2.2-2.8-3.4-3.8
	C570.8,28.9,575,23.4,577.1,18.3z M555.5,16.1h13.3v4.4h-13.3V16.1z M560.2,9.6h4.7V40h-4.7V9.6z M560,19.1l3,1.1
	c-1.2,5.3-3.2,11.5-6,14.9c-0.4-1.4-1.6-3.4-2.3-4.7C557.1,27.6,559.1,23,560,19.1z M564.6,21.1c1,0.7,4.4,3.9,5.2,4.7l-2.6,4
	c-1.2-1.9-3.5-4.8-4.8-6.4L564.6,21.1z M610.3,15.4l4.3-2.1c2,2.3,4.1,5.5,5,7.7l-4.6,2.5C614.3,21.3,612.2,17.9,610.3,15.4z
	 M600,31.3c3.3-1,8.4-3,13-4.9l1.1,4.6c-4.2,1.9-8.8,3.8-12.5,5.3L600,31.3z M618.5,29.2l3.6-3.3c2.8,3.1,7,7.4,8.8,10.2l-4,3.9
	C625.3,37.1,621.4,32.6,618.5,29.2z M622.8,11.6L628,12c-1.4,14.3-5.4,23.3-15.5,28c-0.6-1-2.6-3.2-3.7-4.2
	C618.5,32.2,621.8,24.4,622.8,11.6z M603.5,11.7l4.9-0.2l0.8,20.6l-4.9,0.2L603.5,11.7z M652.1,36.4l2.9-3c3.6,1,7.7,2.5,10.1,3.6
	l-3.9,3.1C659.1,38.9,655.5,37.4,652.1,36.4z M635.9,30.5h28.7v3.8h-28.7V30.5z M636.7,11.5h27.1v3.8h-27.1V11.5z M644.7,33.7
	l3.8,2.7c-2.5,1.5-6.5,3-9.7,3.7c-0.8-0.9-2.1-2.3-3.2-3.2C638.9,36.3,642.7,34.9,644.7,33.7z M642.3,20.2h15.3v2.5h-15.3V20.2z
	 M642.3,23.5h15.3V26h-15.3V23.5z M642.3,26.9h15.3v2.5h-15.3V26.9z M640,16.4h20.7v15.4H656V19.2h-11.5v12.6H640V16.4z M648.6,9.5
	l4.9,0.4c-0.5,3-1.2,6-1.7,7.9l-4.4-0.5C648,15.2,648.5,12,648.6,9.5z M678.5,18.9h4.9v14.4c0,1.6,0.2,1.8,1.6,1.8c0.7,0,3,0,3.7,0
	c1.4,0,1.7-0.9,1.9-5.7c1.1,0.8,3.1,1.6,4.4,2c-0.5,6.1-1.7,8-5.9,8c-1,0-3.8,0-4.7,0c-4.6,0-5.8-1.5-5.8-6.1V18.9z M672.3,20.5
	l4.6,0.9c-0.4,4.4-1.1,10-2,13.8l-4.8-1.9C671.1,29.8,672,25.1,672.3,20.5z M692.2,21.2l4.4-1.8c1.8,3.8,3.4,8.6,4.1,11.9l-4.7,2
	C695.4,30,693.9,24.9,692.2,21.2z M679.4,13l3.2-3.2c2.9,1.7,7.1,4.4,9.1,6.4l-3.5,3.7C686.4,17.9,682.4,14.9,679.4,13z M717.5,15.8
	H734v3h-16.4V15.8z M716.2,19.8h18.9V23h-18.9V19.8z M715.6,31.8h19.7v3.3h-19.7V31.8z M719.7,27.8h11.8v2.9h-11.8V27.8z
	 M716.8,11.8h17.7V15h-17.7V11.8z M719.9,9.6h4.3v11.5h-4.3V9.6z M723.4,21.5h4.2v11.7h-4.2V21.5z M726.8,9.6h4.4v11.5h-4.4V9.6z
	 M717.4,23.8h13.8v3.1h-9.6v12.8h-4.2V23.8z M729.5,23.8h4.3v12c0,1.8-0.4,2.8-1.5,3.4c-1.2,0.6-2.8,0.6-4.8,0.6
	c-0.2-1.1-0.7-2.6-1.2-3.6c1,0.1,2.3,0,2.7,0c0.4,0,0.5-0.1,0.5-0.5V23.8z M705.3,16.1H716v4.3h-10.7V16.1z M708.9,9.6h4.2V40h-4.2
	V9.6z M708.8,19.1l2.5,0.9c-0.9,5.1-2.5,11.2-4.8,14.5c-0.4-1.2-1.3-3-2-4.1C706.5,27.7,708.1,22.9,708.8,19.1z M712.9,21.3
	c0.7,1,3.4,5.2,3.9,6.2l-2.4,3.3c-0.8-2.1-2.5-5.9-3.5-7.6L712.9,21.3z M740.8,18.1h11.4v3.1h-11.4V18.1z M744.5,19h4.2v6.5h-4.2V19
	z M740.5,24.9c3-0.3,7.3-0.7,11.5-1.2l0.1,3.5c-3.9,0.5-8,1-11.1,1.3L740.5,24.9z M755.8,18.8h3.8V22c0,2.7-0.7,5.3-4.6,6.8
	c-0.6-0.7-2.2-2-3-2.6c3.4-1.2,3.8-2.7,3.8-4.4V18.8z M761.2,18h4.4v5.7c0,0.5,0,0.8,0,0.9c0,0.1,0.1,0.2,0.2,0.2s0.2,0,0.3,0
	s0.2,0,0.3-0.1c0.1-0.1,0.1-0.2,0.2-0.6c0.1-0.4,0.1-1.2,0.1-2.1c0.7,0.6,2,1.2,2.9,1.6c-0.1,1.2-0.3,2.5-0.5,3.1
	c-0.3,0.6-0.6,1.1-1.2,1.3c-0.5,0.3-1.2,0.4-1.8,0.4c-0.5,0-1.2,0-1.6,0c-0.9,0-1.9-0.3-2.4-0.9c-0.6-0.6-0.9-1.4-0.9-3.6V18z
	 M740.2,29.4h29.4V33h-29.4V29.4z M752.6,27.6h4.5V40h-4.5V27.6z M752.5,23.6L754,21c2.3,1,5.8,2.6,7.6,3.6l-1.6,2.9
	C758.3,26.5,754.9,24.7,752.5,23.6z M753.2,18h9.4v2.9h-9.4V18z M744.4,11.3h10v3.4h-10V11.3z M757.7,11.3h12.1v3.4h-12.1V11.3z
	 M744.3,9.3l4.1,1.3c-1.4,2.7-3.6,5.6-5.8,7.3c-0.6-0.8-2.1-2.5-3-3.2C741.5,13.4,743.3,11.3,744.3,9.3z M757.6,9.3l4.2,1.1
	c-1.2,2.8-3.1,5.8-5,7.5c-0.8-0.7-2.5-2.1-3.4-2.8C755.2,13.8,756.8,11.6,757.6,9.3z M746.3,15.6l2.9-2.2c1,0.9,2.3,2.2,2.8,3.1
	L749,19C748.4,18.1,747.2,16.6,746.3,15.6z M760.2,15.4l3.2-2.1c0.9,0.8,2.1,2,2.6,2.8l-3.4,2.3C762.2,17.6,761.1,16.3,760.2,15.4z
	 M748.1,32.9l3.8,1.4c-2,2.6-5.2,4.6-8.7,5.6c-0.7-1.1-2-2.9-3-3.8C743.3,35.5,746.4,34.4,748.1,32.9z M758.2,35.4l3.2-2.8
	c2.5,1,6.1,2.7,8.1,3.9l-3.5,3.1C764.4,38.4,760.8,36.6,758.2,35.4z M777.9,11.1h4.7v9.5c0,5.7-0.6,14.3-4.2,19.6
	c-0.9-0.8-3-2-4.2-2.4c3.4-4.8,3.6-12,3.6-17.1V11.1z M781.2,11.1h21.4v9.5h-21.4v-4h16.7v-1.4h-16.7V11.1z M781.2,22.8h22.9V27
	h-22.9V22.8z M785.9,35.2h14v4h-14V35.2z M790.6,20.4h4.7v10.2h-4.7V20.4z M783.7,29h18.5V40h-4.6v-7h-9.4v7h-4.4V29z M810.6,12
	h28.2v7.7H834v-3.5h-18.9v3.5h-4.5V12z M815.7,17.2h17.7v3.9h-17.7V17.2z M820.4,23.5l3.6-1.9c6.4,5.1,6.3,14.2,3.4,16.8
	c-1.2,1.3-2.3,1.7-4.1,1.7c-0.7,0-1.6,0-2.5,0c-0.1-1.3-0.4-3.1-1.3-4.4c1.2,0.1,2.1,0.2,2.9,0.2c0.7,0,1.2-0.1,1.6-0.8
	C825.2,33.6,825.4,27.4,820.4,23.5z M823.9,18.6l3.8,1.6c-3.5,3.6-9.4,6-14.9,7.5c-0.4-0.9-1.6-2.8-2.3-3.6
	C815.8,23.1,821.2,21.3,823.9,18.6z M822.4,24.9l2.9,2.2c-3.1,2.2-8.7,4.7-12.9,6c-0.5-1-1.4-2.6-2.3-3.6
	C814.3,28.7,819.7,26.7,822.4,24.9z M824.4,28.5l3.2,2.4c-3.6,3.1-10.1,6.3-15.4,7.9c-0.5-1.2-1.5-2.8-2.4-3.8
	C815,33.8,821.3,31.1,824.4,28.5z M833.2,26.8c1.1,3.6,3.4,6.6,6.9,8.1c-1,0.9-2.4,2.6-3,3.8c-4.2-2.1-6.6-6-8-10.9L833.2,26.8z
	 M833.1,21.2l3.8,3.1c-3,2.3-6.6,4.7-9.4,6.1l-3-2.7C827.3,26.2,830.9,23.5,833.1,21.2z M821.4,10.6l5-1.4c0.7,1.2,1.4,2.8,1.6,4
	l-5.2,1.6C822.6,13.7,822,11.9,821.4,10.6z M347.6,62c-0.4,0-0.9,0-1.4,0c0.2-3.2,0.2-6.5,0-9.6c0.5,0.1,0.9,0.1,1.4,0
	C347.5,55.5,347.5,58.7,347.6,62z M435.1,62c-0.4,0-0.9,0-1.4,0c0.2-3.5,0.2-7,0-10.5c0.5,0.1,0.9,0.1,1.4,0
	C435,54.9,435,58.4,435.1,62z M711.6,62c-0.4,0-0.9,0-1.4,0c0.2-3.5,0.2-7,0-10.5c0.5,0.1,0.9,0.1,1.4,0
	C711.4,54.9,711.4,58.4,711.6,62z M403.6,62c-0.4,0-0.9,0-1.4,0c0.2-2.3,0.2-4.5,0-6.7c0.5,0.1,0.9,0.1,1.4,0
	C403.5,57.4,403.5,59.7,403.6,62z M352.4,56.5c1-1.7,3.6-1.7,4.3,0c0.5,1.1,0,3.1,0.2,5.5c-0.4,0-0.8,0-1.2,0c0-1.3,0.1-2.4,0.1-3.9
	c0-2.8-2.4-2.3-2.9-1.6c-0.5,0.7-0.6,2.2-0.4,5.5c-0.4,0-0.8,0-1.3,0c0.2-2.1,0.2-4.5,0-6.7c0.5,0.1,0.7,0.1,1.2,0
	C352.4,55.8,352.4,56.1,352.4,56.5z M380.7,56.5c1-1.7,3.6-1.7,4.3,0c0.5,1.1,0,3.1,0.2,5.5c-0.4,0-0.8,0-1.2,0
	c0-1.3,0.1-2.4,0.1-3.9c0-2.8-2.4-2.3-2.9-1.6c-0.5,0.7-0.6,2.2-0.4,5.5c-0.4,0-0.8,0-1.3,0c0.2-2.1,0.2-4.5,0-6.7
	c0.5,0.1,0.7,0.1,1.2,0C380.8,55.8,380.7,56.1,380.7,56.5z M417.4,56.5c1-1.7,3.6-1.7,4.3,0c0.5,1.1,0,3.1,0.2,5.5
	c-0.4,0-0.8,0-1.2,0c0-1.3,0.1-2.4,0.1-3.9c0-2.8-2.4-2.3-2.9-1.6c-0.5,0.7-0.6,2.2-0.4,5.5c-0.4,0-0.8,0-1.3,0
	c0.2-2.1,0.2-4.5,0-6.7c0.5,0.1,0.7,0.1,1.2,0C417.4,55.8,417.4,56.1,417.4,56.5z M361.5,53.5c-0.1,0.7-0.1,1.4-0.1,2.1
	c0.4,0,1,0,1.5,0c0,0.1,0,0.5,0,0.6c-0.4,0-1,0-1.5,0c-0.2,4.6-0.4,6.1,1.7,5.6V62c-1.2,0.2-2.4,0.4-2.7-0.8c-0.2-0.9-0.1-2.6,0-5.1
	c-0.3,0-0.7,0-1,0c0-0.2,0-0.4,0-0.6c0.4,0,0.7,0,0.9,0c0-0.5,0-1.1-0.1-1.6C360.4,54,361.5,53.5,361.5,53.5z M398.2,53.5
	c-0.1,0.7-0.1,1.4-0.1,2.1c0.4,0,1,0,1.5,0c0,0.1,0,0.5,0,0.6c-0.4,0-1,0-1.5,0c-0.2,4.6-0.4,6.1,1.7,5.6V62
	c-1.2,0.2-2.4,0.4-2.7-0.8c-0.2-0.9-0.1-2.6,0-5.1c-0.3,0-0.7,0-1,0c0-0.2,0-0.4,0-0.6c0.4,0,0.7,0,0.9,0c0-0.5,0-1.1-0.1-1.6
	C397,54,398.1,53.5,398.2,53.5z M595.4,53.5c-0.1,0.7-0.1,1.4-0.1,2.1c0.4,0,1,0,1.5,0c0,0.1,0,0.5,0,0.6c-0.4,0-1,0-1.5,0
	c-0.2,4.6-0.4,6.1,1.7,5.6V62c-1.2,0.2-2.4,0.4-2.7-0.8c-0.2-0.9-0.1-2.6,0-5.1c-0.3,0-0.7,0-1,0c0-0.2,0-0.4,0-0.6
	c0.4,0,0.7,0,0.9,0c0-0.5,0-1.1-0.1-1.6C594.2,54,595.3,53.5,595.4,53.5z M623.8,53.5c-0.1,0.7-0.1,1.4-0.1,2.1c0.4,0,1,0,1.5,0
	c0,0.1,0,0.5,0,0.6c-0.4,0-1,0-1.5,0c-0.2,4.6-0.4,6.1,1.7,5.6V62c-1.2,0.2-2.4,0.4-2.7-0.8c-0.2-0.9-0.1-2.6,0-5.1
	c-0.3,0-0.7,0-1,0c0-0.2,0-0.4,0-0.6c0.4,0,0.7,0,0.9,0c0-0.5,0-1.1-0.1-1.6C622.6,54,623.7,53.5,623.8,53.5z M678.5,53.5
	c-0.1,0.7-0.1,1.4-0.1,2.1c0.4,0,1,0,1.5,0c0,0.1,0,0.5,0,0.6c-0.4,0-1,0-1.5,0c-0.2,4.6-0.4,6.1,1.7,5.6V62
	c-1.2,0.2-2.4,0.4-2.7-0.8c-0.2-0.9-0.1-2.6,0-5.1c-0.3,0-0.7,0-1,0c0-0.2,0-0.4,0-0.6c0.4,0,0.7,0,0.9,0c0-0.5,0-1.1-0.1-1.6
	C677.3,54,678.4,53.5,678.5,53.5z M368.1,55.7c-1.3,0-1.9,1.3-2,2.4c1.2,0.1,2.5,0.1,3.7,0C369.8,57.1,369.4,55.7,368.1,55.7z
	 M370.6,61.4c-2.4,1.8-5.7,0.5-5.7-2.4c0-5.4,6.8-4.5,6.1-0.3c-1.6,0-3.2-0.1-4.8,0c-0.5,2.8,2.8,4,4.5,2L370.6,61.4z M478.6,55.7
	c-1.3,0-1.9,1.3-2,2.4c1.2,0.1,2.5,0.1,3.7,0C480.3,57.1,479.9,55.7,478.6,55.7z M481.1,61.4c-2.4,1.8-5.7,0.5-5.7-2.4
	c0-5.4,6.8-4.5,6.1-0.3c-1.6,0-3.2-0.1-4.8,0c-0.5,2.8,2.8,4,4.5,2L481.1,61.4z M507,55.7c-1.3,0-1.9,1.3-2,2.4
	c1.2,0.1,2.5,0.1,3.7,0C508.7,57.1,508.3,55.7,507,55.7z M509.5,61.4c-2.4,1.8-5.7,0.5-5.7-2.4c0-5.4,6.8-4.5,6.1-0.3
	c-1.6,0-3.2-0.1-4.8,0c-0.5,2.8,2.8,4,4.5,2L509.5,61.4z M685,55.7c-1.3,0-1.9,1.3-2,2.4c1.2,0.1,2.5,0.1,3.7,0
	C686.8,57.1,686.4,55.7,685,55.7z M687.5,61.4c-2.4,1.8-5.7,0.5-5.7-2.4c0-5.4,6.8-4.5,6.1-0.3c-1.6,0-3.2-0.1-4.8,0
	c-0.5,2.8,2.8,4,4.5,2L687.5,61.4z M374.8,56.8c0.7-1.2,1.3-1.7,2.3-1.4c-0.1,0.5-0.1,0.9-0.1,1.2c-1-0.6-2.8-0.9-2.1,5.5
	c-0.4,0-0.8,0-1.1,0c0.1-2.1,0.1-4.4,0-6.7c0.4,0.1,0.8,0.1,1.1,0C374.8,56,374.8,56.3,374.8,56.8z M454,56.8
	c0.7-1.2,1.3-1.7,2.3-1.4c-0.1,0.5-0.1,0.9-0.1,1.2c-1-0.6-2.8-0.9-2.1,5.5c-0.4,0-0.8,0-1.1,0c0.1-2.1,0.1-4.4,0-6.7
	c0.4,0.1,0.8,0.1,1.1,0C454,56,454,56.3,454,56.8z M499.5,56.8c0.7-1.2,1.3-1.7,2.3-1.4c-0.1,0.5-0.1,0.9-0.1,1.2
	c-1-0.6-2.8-0.9-2.1,5.5c-0.4,0-0.8,0-1.1,0c0.1-2.1,0.1-4.4,0-6.7c0.4,0.1,0.8,0.1,1.1,0C499.5,56,499.5,56.3,499.5,56.8z
	 M691.7,56.8c0.7-1.2,1.3-1.7,2.3-1.4c-0.1,0.5-0.1,0.9-0.1,1.2c-1-0.6-2.8-0.9-2.1,5.5c-0.4,0-0.8,0-1.1,0c0.1-2.1,0.1-4.4,0-6.7
	c0.4,0.1,0.8,0.1,1.1,0C691.6,56,691.6,56.3,691.7,56.8z M600.4,56.8c0.7-1.2,1.3-1.7,2.3-1.4c-0.1,0.5-0.1,0.9-0.1,1.2
	c-1-0.6-2.8-0.9-2.1,5.5c-0.4,0-0.8,0-1.1,0c0.1-2.1,0.1-4.4,0-6.7c0.4,0.1,0.8,0.1,1.1,0C600.4,56,600.4,56.3,600.4,56.8z
	 M392.2,58.6c-1.1,0.4-2.9,0.3-2.9,1.8c0,1.4,1.7,1.8,2.8,0.3L392.2,58.6z M388.8,56.8v-0.7c1.4-1.2,4.5-1.4,4.5,1.6
	c0,3.7-0.3,4.1,0.8,3.9v0.3c-0.7,0.3-1.8,0.3-1.9-0.7c-2.1,2.1-4.9,0.5-3.9-1.5c0.8-1.6,3.9-0.9,3.9-2
	C392.2,55.5,390.1,55.4,388.8,56.8z M462.3,58.6c-1.1,0.4-2.9,0.3-2.9,1.8c0,1.4,1.7,1.8,2.8,0.3L462.3,58.6z M458.8,56.8v-0.7
	c1.4-1.2,4.5-1.4,4.5,1.6c0,3.7-0.3,4.1,0.8,3.9v0.3c-0.7,0.3-1.8,0.3-1.9-0.7c-2.1,2.1-4.9,0.5-3.9-1.5c0.8-1.6,3.9-0.9,3.9-2
	C462.3,55.5,460.1,55.4,458.8,56.8z M672.6,58.6c-1.1,0.4-2.9,0.3-2.9,1.8c0,1.4,1.7,1.8,2.8,0.3L672.6,58.6z M669.1,56.8v-0.7
	c1.4-1.2,4.5-1.4,4.5,1.6c0,3.7-0.3,4.1,0.8,3.9v0.3c-0.7,0.3-1.8,0.3-1.9-0.7c-2.1,2.1-4.9,0.5-3.9-1.5c0.8-1.6,3.9-0.9,3.9-2
	C672.6,55.5,670.5,55.4,669.1,56.8z M705.4,58.6c-1.1,0.4-2.9,0.3-2.9,1.8c0,1.4,1.7,1.8,2.8,0.3L705.4,58.6z M701.9,56.8v-0.7
	c1.4-1.2,4.5-1.4,4.5,1.6c0,3.7-0.3,4.1,0.8,3.9v0.3c-0.7,0.3-1.8,0.3-1.9-0.7c-2.1,2.1-4.9,0.5-3.9-1.5c0.8-1.6,3.9-0.9,3.9-2
	C705.4,55.5,703.2,55.4,701.9,56.8z M428.9,58.6c-1.1,0.4-2.9,0.3-2.9,1.8c0,1.4,1.7,1.8,2.8,0.3L428.9,58.6z M425.5,56.8v-0.7
	c1.4-1.2,4.5-1.4,4.5,1.6c0,3.7-0.3,4.1,0.8,3.9v0.3c-0.7,0.3-1.8,0.3-1.9-0.7c-2.1,2.1-4.9,0.5-3.9-1.5c0.8-1.6,3.9-0.9,3.9-2
	C428.9,55.5,426.8,55.4,425.5,56.8z M402.2,53c0-0.9,1.4-0.9,1.4,0C403.7,53.9,402.2,53.9,402.2,53z M534.3,62c-0.4,0-0.9,0-1.4,0
	c0.2-2.3,0.2-4.5,0-6.7c0.5,0.1,0.9,0.1,1.4,0C534.1,57.4,534.1,59.7,534.3,62z M532.9,53c0-0.9,1.4-0.9,1.4,0
	C534.3,53.9,532.9,53.9,532.9,53z M629.2,62c-0.4,0-0.9,0-1.4,0c0.2-2.3,0.2-4.5,0-6.7c0.5,0.1,0.9,0.1,1.4,0
	C629.1,57.4,629.1,59.7,629.2,62z M627.8,53c0-0.9,1.4-0.9,1.4,0C629.3,53.9,627.8,53.9,627.8,53z M522.4,62c-0.4,0-0.9,0-1.4,0
	c0.2-2.3,0.2-4.5,0-6.7c0.5,0.1,0.9,0.1,1.4,0C522.3,57.4,522.3,59.7,522.4,62z M521,53c0-0.9,1.4-0.9,1.4,0
	C522.5,53.9,521,53.9,521,53z M698.1,62c-0.4,0-0.9,0-1.4,0c0.2-2.3,0.2-4.5,0-6.7c0.5,0.1,0.9,0.1,1.4,0
	C698,57.4,698,59.7,698.1,62z M696.7,53c0-0.9,1.4-0.9,1.4,0C698.2,53.9,696.7,53.9,696.7,53z M407.9,58.7c0,4,4.3,4,4.3,0
	C412.2,54.7,407.9,54.7,407.9,58.7z M406.6,58.7c0-4.6,6.8-4.6,6.8,0C413.5,63.3,406.6,63.3,406.6,58.7z M548.1,56.5
	c1-1.7,3.6-1.6,4.3,0c0.5,1.1,0,3.1,0.2,5.5c-0.4,0-0.8,0-1.2,0c0-1.3,0.1-2.4,0.1-3.9c0-2.8-2.4-2.3-2.9-1.5
	c-0.5,0.7-0.6,2.1-0.4,5.4c-0.4,0-0.8,0-1.3,0c0.2-2.1,0.2-4.5,0-6.6c0.5,0.1,0.7,0.1,1.2,0C548.1,55.8,548.1,56.2,548.1,56.5z
	 M609.7,60.8c-1,1.7-3.6,1.6-4.3,0c-0.5-1.1,0-3.1-0.2-5.5c0.4,0,0.8,0,1.2,0c0,1.3-0.1,2.4-0.1,3.9c0,2.8,2.4,2.3,2.9,1.5
	c0.5-0.7,0.6-2.1,0.4-5.4c0.4,0,0.8,0,1.3,0c-0.2,2.1-0.2,4.5,0,6.6c-0.5-0.1-0.7-0.1-1.2,0C609.7,61.6,609.7,61.2,609.7,60.8z
	 M538.5,58.7c0,4,4.3,4,4.3,0C542.9,54.7,538.5,54.7,538.5,58.7z M537.3,58.7c0-4.6,6.8-4.6,6.8,0C544.1,63.3,537.3,63.3,537.3,58.7
	z M579.5,56.5c1-1.7,3.6-1.7,4.3,0c0.5,1.1,0,3.1,0.2,5.5c-0.4,0-0.8,0-1.2,0c0-1.3,0.1-2.4,0.1-3.9c0-2.8-2.4-2.3-2.9-1.6
	c-0.5,0.7-0.6,2.2-0.4,5.5c-0.4,0-0.8,0-1.3,0c0.2-2.1,0.2-4.5,0-6.7c0.5,0.1,0.7,0.1,1.2,0C579.5,55.8,579.5,56.1,579.5,56.5z
	 M643,56.5c1-1.7,3.6-1.7,4.3,0c0.5,1.1,0,3.1,0.2,5.5c-0.4,0-0.8,0-1.2,0c0-1.3,0.1-2.4,0.1-3.9c0-2.8-2.4-2.3-2.9-1.6
	c-0.5,0.7-0.6,2.2-0.4,5.5c-0.4,0-0.8,0-1.3,0c0.2-2.1,0.2-4.5,0-6.7c0.5,0.1,0.7,0.1,1.2,0C643,55.8,643,56.1,643,56.5z M570,58.7
	c0,4,4.3,4,4.3,0C574.3,54.7,570,54.7,570,58.7z M568.7,58.7c0-4.6,6.8-4.6,6.8,0C575.6,63.3,568.7,63.3,568.7,58.7z M633.5,58.7
	c0,4,4.3,4,4.3,0C637.8,54.7,633.5,54.7,633.5,58.7z M632.2,58.7c0-4.6,6.8-4.6,6.8,0C639.1,63.3,632.2,63.3,632.2,58.7z
	 M441.7,58.4v0.9h-3.5v-0.9H441.7z M449.2,63.5c0-1.3-0.8-1.5-2.1-1.5c-1.2,0-2.2,0.2-2.2,1.6C444.8,66.1,449.3,65.9,449.2,63.5z
	 M448.5,57.5c0-2.5-3.1-2.3-3.1,0.1C445.4,60.2,448.5,60,448.5,57.5z M445.5,61.9c-1.3-0.3-1.1-2.1,0.1-2.3
	c-2.2-0.8-1.8-4.4,1.1-4.4c1.2,0,2.4,0.2,3.4,0c0,0.2,0,0.4,0,0.6c-0.5,0-1.6-0.1-1.6-0.1c1.4,0.7,1.5,4-1.5,4
	c-0.4,0-1.6-0.2-1.6,0.6c0,0.7,0.4,0.8,2.2,0.8c4.1,0,2.8,4.6-0.8,4.6C443.4,65.8,443.3,62.6,445.5,61.9z M467.7,58.9
	c0,4,4,3.6,4-0.3C471.7,54.9,467.7,54.9,467.7,58.9z M471.6,60.7c-1.1,2.3-5.2,2.1-5.2-1.9c0-4.2,4.4-4.4,5.2-2.2l0-5.2
	c0.4,0.1,0.8,0.1,1.3,0c-0.2,3.5-0.2,7-0.1,10.6c-0.4,0-0.7,0-1.1,0L471.6,60.7z M494.2,58.6c0-4-4-3.6-4,0.3
	C490.2,62.6,494.2,62.6,494.2,58.6z M490.2,56.8c1.1-2.3,5.2-2.1,5.2,1.9c0,4.2-4.4,4.4-5.2,2.2l0,5c-0.4-0.1-0.8-0.1-1.3,0
	c0.2-3.5,0.2-6.8,0.1-10.3c0.4,0,0.7,0,1.1,0L490.2,56.8z M512.1,58.7c0-3.3,3.5-4.3,5.8-2.9c-0.1,0.2-0.3,0.9-0.3,1
	c-1.2-1.9-4.2-1.6-4.2,1.9c0,3.3,2.9,3.6,4.6,1.9c0,0-0.1,0.6-0.1,0.8C515.8,63,512.1,62.3,512.1,58.7z M560.6,58.7
	c0-3.3,3.5-4.3,5.8-2.9c-0.1,0.2-0.3,0.9-0.3,1c-1.2-1.9-4.2-1.6-4.2,1.9c0,3.3,2.9,3.6,4.6,1.9c0,0-0.1,0.6-0.1,0.8
	C564.3,63,560.6,62.3,560.6,58.7z M613.8,58.7c0-3.3,3.5-4.3,5.8-2.9c-0.1,0.2-0.3,0.9-0.3,1c-1.2-1.9-4.2-1.6-4.2,1.9
	c0,3.3,2.9,3.6,4.6,1.9c0,0-0.1,0.6-0.1,0.8C617.5,63,613.8,62.3,613.8,58.7z M525.8,60.7c0.6,1.2,3.1,1.5,3.1-0.3
	c0-1.6-3.3-0.8-3.3-3.1c0-2,2.2-2.6,3.9-1.7c-0.1,0.2-0.3,0.8-0.3,1c-0.9-1.4-2.6-0.9-2.6,0.4c0,1.6,3.3,0.6,3.3,2.8
	c0,1.9-1.9,3-4.3,1.9C525.6,61.5,525.8,61,525.8,60.7z M587.2,60.7c0.6,1.2,3.1,1.5,3.1-0.3c0-1.6-3.3-0.8-3.3-3.1
	c0-2,2.2-2.6,3.9-1.7c-0.1,0.2-0.3,0.8-0.3,1c-0.9-1.4-2.6-0.9-2.6,0.4c0,1.6,3.3,0.6,3.3,2.8c0,1.9-1.9,3-4.3,1.9
	C587,61.5,587.2,61,587.2,60.7z M714.9,60.7c0.6,1.2,3.1,1.5,3.1-0.3c0-1.6-3.3-0.8-3.3-3.1c0-2,2.2-2.6,3.9-1.7
	c-0.1,0.2-0.3,0.8-0.3,1c-0.9-1.4-2.6-0.9-2.6,0.4c0,1.6,3.3,0.6,3.3,2.8c0,1.9-1.9,3-4.3,1.9C714.7,61.5,714.9,61,714.9,60.7z
	 M661.3,56.6c0.4-1,1.4-1.4,2.4-1.4c3.2,0,1.6,3.9,2,6.8c-0.4,0-0.8,0-1.2,0c0.3-5,0.3-6.1-1.3-6.1c-1.7,0-2,1-1.7,6.1
	c-0.4,0-0.8,0-1.2,0c0.4-5.1,0.1-6.1-1.3-6.1c-2.1,0-1.9,2.1-1.7,6.1c-0.4,0-0.8,0-1.3,0c0.1-2.3,0.2-4.6,0-6.7
	c0.5,0.1,0.7,0.1,1.2,0c0,0.4,0,0.7,0,1.1C658,54.8,660.7,54.8,661.3,56.6z M721.9,61.4c0-0.2,0.1-0.4,0.2-0.6
	c0.2-0.2,0.3-0.2,0.6-0.2c0.2,0,0.4,0.1,0.6,0.2c0.2,0.2,0.2,0.3,0.2,0.6c0,0.2-0.1,0.4-0.2,0.5c-0.2,0.1-0.3,0.2-0.6,0.2
	c-0.2,0-0.4-0.1-0.6-0.2C722,61.8,721.9,61.6,721.9,61.4z"/>
<linearGradient id="SVGID_1_" gradientUnits="userSpaceOnUse" x1="157.1397" y1="68.3109" x2="157.1397" y2="11.8984">
	<stop  offset="0" style="stop-color:#FFFFFF;stop-opacity:0.4"/>
	<stop  offset="0.6631" style="stop-color:#FFFFFF"/>
</linearGradient>
<path class="st1" d="M0,15.1v-0.6h30.5v8.2H30c0-4.4-2.9-6.6-8.6-6.6H10.7v23.7h9.4c3.7-0.1,7.2-0.7,7.5-5.1h0.5v11.8h-0.5
	c-0.4-4-3.6-5.3-7-5.1c0,0-9.8,0-9.8,0V60c0.1,3,0.7,5.2,4.4,5.1c6.6-0.1,14.5,1.6,16.6-6.6h0.5l-1.8,8.2H0v-0.6
	c3.1,0.2,5.6-2.1,5.5-5.7c0,0,0-39.4,0-39.4C5.5,17.6,3.8,14.6,0,15.1z M36.4,66.2c3.2,0.3,5.6-2.3,5.5-5.7c0,0,0-39.4,0-39.4
	c0.1-3.9-2.1-5.7-5.5-5.9v-0.6h16.4v0.6c-3.4,0.2-5.6,1.9-5.5,5.9c0,0,0,38.1,0,38.1c0,2.3,0.6,3.8,1.7,4.7c1.7,1.6,7.2,1.3,9.9,1.3
	c5.3,0.2,7.7-2.2,9.4-7h0.6l-1.9,8.6H36.4V66.2z M71.9,15.1v-0.6h30.5v8.2h-0.5c0-4.4-2.9-6.6-8.6-6.6H82.6v23.7H92
	c3.7-0.1,7.2-0.7,7.5-5.1h0.5v11.8h-0.5c-0.4-4-3.6-5.3-7-5.1c0,0-9.8,0-9.8,0V60c0.1,3,0.7,5.2,4.4,5.1c6.6-0.1,14.5,1.6,16.6-6.6
	h0.5l-1.8,8.2H71.9v-0.6c3.1,0.2,5.6-2.1,5.5-5.7c0,0,0-39.4,0-39.4C77.4,17.6,75.7,14.6,71.9,15.1z M155,25.3h-0.6
	c-3.3-12.6-21.7-13.4-30.9-6.1c-10.8,8.2-10,30.3-2.5,39.9c4,6.5,17.2,8.7,25.1,6.6c3-0.9,3.5-2.2,3.6-5c0,0,0-9.6,0-9.6
	c0-4.5-1.8-5.3-5.8-6v-0.6h16.6v0.6c-3.9,0.3-5.9,2.3-5.6,6.2c0,0,0,14.5,0,14.5c-55.6,15.5-59-51.9-17.6-53
	c4.6,0.1,6.5,0.6,11.9,1.7c2.4,0.5,4,1,5.1-1.3h0.6V25.3z M187.1,13.8l15.3,44.7c1.6,4.2,2.5,7.3,6.9,7.6v0.6h-16.7v-0.6
	c5.4,0.3,6.3-2,4.6-6.8l-4.6-13.9h-17.7l-4.1,12.8c-1.4,3.9-1.6,8.2,3.3,7.9v0.6h-12v-0.6c4.1-0.5,5.4-3.3,6.8-7.3
	c0,0,14.5-45,14.5-45H187.1z M175.5,43.6h16.3l-8.3-24.8h-0.1L175.5,43.6z M265.7,14.5v0.6c-4.3,0.2-5.6,2.8-5.5,7.1
	c0,0,0,45.8,0,45.8h-0.3l-39.3-44.8v32.1c0.2,5.4-0.6,10.5,5.7,10.7v0.6h-12.8v-0.6c5.9-0.2,5.4-5.3,5.6-10.7c0,0,0-34.1,0-34.1
	c-2.7-3.2-4.8-5.9-8.7-6.3v-0.6h9.6l38.7,44.3V25c0-5.3,0.2-9.8-5.8-9.9v-0.6H265.7z M314.3,24.7h-0.6c-0.4-6.4-3.7-8-9.2-8.1
	c0,0-10.2,0-10.2,0v43.9c0,3.7,1.9,5.6,5.6,5.7v0.6h-16.3v-0.6c3.4-0.2,5.5-1.9,5.5-5.7c0,0,0-43.9,0-43.9h-10.2
	c-5.5,0.2-8.8,1.7-9.2,8.1h-0.6V11.9h0.6c1.2,2.3,3.3,2.6,5.7,2.6c0,0,33.2,0,33.2,0c2.2,0,3.9-0.9,5.1-2.6h0.6V24.7z"/>
</svg>
