<?xml version="1.0" encoding="utf-8"?>
<!-- Generator: Adobe Illustrator 26.5.0, SVG Export Plug-In . SVG Version: 6.00 Build 0)  -->
<svg version="1.1" id="圖層_1" xmlns="http://www.w3.org/2000/svg" xmlns:xlink="http://www.w3.org/1999/xlink" x="0px" y="0px"
	 viewBox="0 0 379 101" style="enable-background:new 0 0 379 101;" xml:space="preserve">
<style type="text/css">
	.st0{fill:#FFFFFF;}
	.st1{fill:url(#SVGID_1_);}
</style>
<path class="st0" d="M57.2,45c-1.6,0-3.1-2-2.9-3.6c-0.3-0.2-0.6-0.4-0.9-0.6c-1.4,2.1-2.8,4.3-4.2,6.4c1.5,0.7,3,3.5,2.7,5.3
	c-1.5-2-4.7-2.9-6.1-0.4c5.3-0.8,9.2,1.9,7.2,7.4c-0.1,0.4-0.3,0.3-0.6,0.2c-4.4-2.5-5.5,2.7-7.9-4.4c-1.5,1.7,0.9,3.5,1.9,4.7
	c0,0.1,0,0.2,0,0.2c-1.9,0.6-3.4-0.4-5.1-0.7c-1.8,0.2-1.9-1.5-2.3-2.7c-5,1.1-10.1,1-15,0.9c-0.5,1.2-1.9,2.3-1.6,3.8
	c0.2,0.6-0.1,1.1-0.5,1.6c-0.7,0.6-1.2,2.1-2.2,1.9c-1.2-0.5-1.1-1.4-1.2-2.5c-0.1,0.4-0.1,0.8-0.2,1.2c-2.3-0.7-2-3.2-1.1-4.9
	c-0.1,0-0.1-0.1-0.2-0.1c-0.3,0.6-0.5,1.2-0.9,1.7c-1-1-0.1-2.7-0.2-4c-0.5-0.1-1-0.3-1.6-0.4c-1.2,3.9-2.1,8.4-5.3,11.3
	c-1.2,1-1.4,1.7-0.9,3.2c2.8,4.3,0.9,12.5,6.7,14c7.3,0.9,23.8,4.5,26.4-4.8c0.2-3.9,1.6-7.4,2.7-11c-5.9,3.8-13.7,4.9-20.3,3.7
	c5.2,0,18.3,0.3,19.9-5.2c-1-2.2-2.8-4.6-2.5-7c4.8,11.9,3.7,5.8,1,18.1c-1,11.8-19,7.8-27.2,6.9c-6.3-1.6-4.2-9.9-7.2-14.5
	C6.7,69.1,7,68.1,8.5,67c3.5-2.9,3.9-7.8,5.5-11.7c-1.3-1.4-2.5-1.9-3.5-1.4c2.6,2.2-4,9.4-6.6,8.6c-1.2,0.6-2.7,0.3-3.3,2
	c-1.1-0.9-0.7-1.9-0.2-3c-0.2-1.2,0.9-1.9,1-2.9c1-0.5,1.2-1.4,1.4-2.4c0.9-1.3,7-7.4,5.2-2.2c2.7-3.5,5.7-0.7,8.4,1.2
	c0.8,0.5,1.9-0.7,2.5,0.7c0.3-0.4,0.6-0.8,1-1.3c-0.8-2.7-2-5.1-3.1-7.5c-0.6,0.7-1.2,1.4-1.8,2c-0.1,0-0.1,0-0.2-0.1
	c0-0.9-0.2-1.5-1.2-1.7c1.8,2.6-0.8,2.4-1.6,4.3c0,0.1-0.3,0.2-0.4,0.3c-2.8-1.9-3.6-3.7-0.9-6c-2.1,0.1-2.2,1.7-2.3,3.5
	c-2-1.9-1.7-4.5,0.6-5.8c0.2-2.2,3-2,4.6-2.7c1.1-2.1-1.8-3.8,0.2-5.6c2.8-2.7,3.5,2.7,5.4-0.3c-0.3-0.5-0.5-1-0.8-1.5
	c-2.1,0.4-4.9,0.4-6.4-1.4c1.2-0.8,2.7-0.6,4-1.4c-1.8-1-3.6,0.5-5.4,0.4c-2.4,0-5.3-1.7-5-4.3c1.7,0.1,3.3,0.9,5,0.7
	c-1.6-1-3.5-0.9-5.3-0.9c-2.8-0.3,0-4.9-3.1-5.6c2.9-2.7,10.4,2.6,11.9,5.3c1.4-1.5-1.1-2.7-2.2-3.3c2-0.2,4.4-1,5.4,1.3
	c1.4-0.5,2.4,0.7,3.7,1c5,2-0.8,3.2-2.9,4.1c2.3,0.8,2.9,2,1.7,3.5c0.2,0.4,0.4,0.9,0.7,1.3c1.8,0.2,3.9,2.7,3,5
	c-0.2,0.6-0.1,1.1,0.1,1.6c2.6,5.2,3.7,10.8,3.6,16.6h1.9c0.5-1.7,1-3.4,1.5-5.1c0,0-0.1-0.1-0.1-0.1c-0.7,1-2.8-1.4-2.6-2.1
	c0.4-1.7-1.9-3.2-0.5-4.8c-2.3-2.8,2.3-10.3,5.1-4.9c2.3-3.3,5.5-0.3,4.7,2.9c4.9-11.6-5.3-6.5,3.8-16c0-0.1,0-0.1-0.1-0.2
	c-3.1,0.1-4.7,3-4.6,5.8c-0.1,0-0.2,0-0.2,0c-2.6-3.1-1.4-6.7-0.4-10.1c2.1-3,5.5,1.9,7,3.5c0.1-2.7,1.8-2.9,3.8-1.4
	c2-4.2-1.2-5.9,0.6-8.2c2.1-1.8,1.9,1.8,2.8,2.9c1.4-3.5,2.1-4.8,4.9-1.4c2.1,1.5,1.3,3.5,1.3,5.5c1.3,1.8,0.7,3.6-0.4,5.2
	c-1.1,1.5-0.6,3.6-1.8,5.2c-1.3-0.9-3.7-1.4-2.8-3.6c0.2-0.4,0.1-0.7-0.2-0.9c-2.9-1.8-0.2-4.8-0.8-7.4c-0.9,1-0.6,2.4-0.9,3.7
	c-0.8-0.9-0.7-1.9-0.9-2.9c-2.1,3.7,3,6.8,0.6,10.6c1.2,1.1,1.2,2.3,0.4,3.7c1.5,1.6-0.5,4.2-1.1,5.8c-1.2-2.2-3.9-1.3-4.9-3.6
	c-1.5,3.8-2.4,7.8-4,11.6c2.5-0.1-0.8-3.9,5.5-4.7c0,0.1,0,0.1,0.1,0.2c-0.3,0.4-0.5,0.7-0.8,1.1c0.8-0.6,1.6-0.9,2.6-0.6
	c2.6-1.4,4.1-4.7,5.7-7.1c0-2.3-0.3-5.6,3.1-5c1.8-4.4,7.2,1.6,6.5,4.5c0,1-0.9,2.1-0.5,3.1c0.5,0.7,0.8,1.4,0.7,2.2
	c0,1.4-1.6,1.6-2.2,2.6c-0.3,0.4-0.5,0.4-0.9,0.1C58,46.9,56.2,46.7,57.2,45c0.5-1.1,1.4-2.7,0.2-3.6C56.6,42.4,57.3,43.9,57.2,45
	L57.2,45z M50.2,19.9c-1.3,0-1.3-1.9-1.7-2.8c-0.2-0.5-0.5-0.5-0.9-0.2c-2.1,2.2,1.6,4.7,1.2,7.3c-0.1-1.8,1.9-3.8,1.8-1
	c-0.3,2.3-1.6,4.8,0.9,6.4c1-1.5-1.7-3.5,0-4.4c1.3,0.3,0.9,4.6,0,5.4c-0.9,1.4,1.1,2.4,2.2,2.9c1.6-2.3,0.6-3-0.3-5.1
	c0.7-0.2,1.1,0.4,1.6,0.8c3.3-4-0.1-5.8-2.9-8.1c0.7-2.2,3.1-0.3,3.6,1.1c0.1,0,0.1,0,0.2,0c0.4-2.2-1.6-3.6-2.9-5
	C51.6,15.3,51,19.1,50.2,19.9L50.2,19.9L50.2,19.9z M36,31.6c-0.8-2.4,5.7-7.3,5.3-4c-2.1,2.6-5.9,5.9-1.7,8.6c0-2.1,0.9-6,3.5-5.7
	c0.4,0.3,0.1,0.7,0,1c-1.4,2.5-3.4,5.5-0.3,7.6c0.1,0,0.1-0.1,0.2-0.1c0.1-1.3-0.1-4.4,1.6-4.4c0.5,0.2,0.5,0.6,0.4,1.1
	c-1.9,6.5-0.6,3.5,3.1,6.7c2.7-4.5,0.1-4.5-1.9-8.1c0.3-1.8,2.5,1.6,3.1,2c0.5-2.6-3.5-2.9-3.1-5.3c0.6-2.2,2.1,0.6,2.8,1.5
	c0.1-8.1-9.8-14.2-3,3.2c-0.1,0-0.2,0.1-0.3,0.1c-1.1-3.1-1.7-6.4-3.4-9.2c-1.4-1.4-4.8-6.3-6.3-3C35.4,26.2,33.8,29,36,31.6z
	 M38.9,56.1c0.1,0,0.1,0,0.2-0.1c0.1-0.7,0.4-2.1,1.2-2.1c-0.9,1.5-1.7,5.3,1,5.3c1.4,0.1,2.8,1.2,4.2,0.9c-3.5-2.3-1.7-8.6,0.4-2.3
	c1.2,2.6,3.4-0.4,6.6,1.3c1.9-5-2.1-7.3-6.7-6.5c-0.3,0-0.5-0.1-0.5-0.6c0.7-2.8,4.2-1.7,6.1-0.8c-0.9-1.2-1.1-3.2-2.7-3.4
	c-1.9,0-3.7-0.4-5.1,1.1c-0.4-0.7-0.2-1,0.1-1.8c-2.1,0.6-4.5,3.3-1.8,4.5c2.8,3.2,8.5,1.8,10.1,6.2C52,58,52,58,52,58
	c-2.2-4.1-7.5-2.8-10.5-6C38.2,50.6,36.5,53.4,38.9,56.1L38.9,56.1z M3.5,20.9c2.3,1.1-0.1,5.1,2.4,5.3c6.2-0.3,7.8,3,0.2,1
	c0.9,3.5,5,3.9,7.9,2.9c4.8-0.6,1.4,1.9-1.2,2.1c1.9,1.9,10.8,0.4,5.6-2.2c-3.3-1.7-7.3-2.6-9.6-5.7c-1-1.3-2.2-2.2-3.7-3
	C6.8,21.5,8,22.8,9,24c1.9,3,5.5,3.5,8.3,5.2c5.7-1.7,8.2-2.1,0.7-4.7c0.2,1.1,0.9,1.9-0.2,2.6c-0.4,0.3-0.9,0.1-0.9-0.4
	c1.1-3.1-0.9-3.7-3.6-3.6c1.1,0.8,2.8,2.5,1.3,3.5c-1.7-1.3-3.5-3.4-5.7-4.3C6.9,21.7,5.7,19.8,3.5,20.9L3.5,20.9z M27.5,44.1
	c0.6-0.8,3.2-2.2,2.4-0.2c-1.6,1.2-3.2,2.1-1.7,4.3c0.6-1.3,2.9-0.3,1.3,0.6c-1.6,1.2-0.8,2.1,0.6,3c3.3-1,1.4-3.5,2.5-5.4
	c1.4,0.6,1,2.5,1,3.9c1.9-2.2,2.9-3.1,0.6-5.5c-0.6-1.8,2-0.5,1.9,0.7c0.4-1.6,0.9-3.1,0.5-4.7c-0.9-2.7-4-0.9-4,1.3
	c-0.2,1.5-0.4,3.2-1.1,4.6c-0.1,0-0.1,0-0.2-0.1c0.2-1.9,0.8-3.8,0.9-5.6C30.2,36.3,26.9,41,27.5,44.1L27.5,44.1z M22.3,41
	c2.5,5,3.8,10.7,2.7,16.3c-0.5-5,0.1-10.7-2.7-15.3c-1.8,1.5-2.3,3.7-3.1,5.7c2.2,3.4,2.5,10.2,7.5,9.9c0.4-6.1-0.7-11.8-3.6-17
	C22.8,40.6,22.6,40.8,22.3,41L22.3,41z M18.1,46.1c-3-3,3.3-9-1.9-10.9c-1.9-0.4-3.2,1.9-1.5,3.2c0.4-0.4,0.8-0.9,1.5-0.8
	C14,39,13.8,42,15.2,44.1c0.1-1.1-0.3-2.9,1-3.2c1.2,2.9-2.5,3,1.7,7c1.5-1,1.8-2.1,0.8-3.8c-0.6-2,0.8-1.6,1.1,0.1
	c1.8-2,2.7-3.8,0.5-5.9c1-1.3,2.6,0.3,2.3,1.6c1.7-1.7-1-6.7-3.1-4.3c-1.1,0.7-0.6,1.9-0.8,3C18.4,41,16.6,43.6,18.1,46.1L18.1,46.1
	z M59.1,35c-2.1-2.8-2.6,0.9-4.6,0.7c-2.1,0.1-2,4-0.6,4.9c0.3-1,0.1-2.9,1.5-2.9c0.4,0,0.6,0.7,0.3,1.3c-1.1,2.2-1.2,4.1,1,5.7
	c0.1,0,0.1-0.1,0.2-0.1c0.1-1.1-1.1-3.2,0.5-3.5c0.5-0.1,0.7,0.2,0.8,0.6c0.9,2.3-2.6,4.7,1.3,5.5c5.2-3-0.1-4.5-0.5-7.9
	c1.2-0.3,1.6,1.2,2.2,1.9c0.8-1.7,0.2-5.1-2-5.6C57.7,35.9,57.5,35.1,59.1,35L59.1,35z M5.2,54.3c0,0.1,0.1,0.2,0.1,0.2h1.2
	c0,0.1,0,0.1,0,0.2c-1.3,0-3,0.6-3.3,2c0.1,1.3-1.1,1.5-1.6,2.5c0.6-0.2,1-0.4,1.4-0.5c0,0.1,0.1,0.1,0.1,0.2
	c-1,0.6-2.3,1.1-2.1,2.5c-0.1,0.9-1.1,1.3-0.2,2.1c1.3-1.4,4.4-1.1,4-3.8c0-0.2,0.4-0.4,0.6-0.6c0.7,1.1-0.6,2-0.9,3.1
	c0.1,0,0.1,0.1,0.2,0.1c4.1-0.9,1.6-4.1,3.3-6.2c1.4,1.1-0.7,2.8-0.2,4.4c5-5.3,3.7-9-2.7-3.5c-2,2.1-0.5,3.6-3.9,5.7
	c0.2-1.5,2.7-1.8,2.4-3.6c0-1,0.5-1.8,1.2-2.4c1.6-1.1,3.7-2.3,3.5-4.6C6.9,52.3,6.2,53.6,5.2,54.3L5.2,54.3z M16,59.5
	c0.1-0.5,0.7-0.9,1.3-1.1c0.2,1.8-1.7,3.4,0.5,4.8c0-0.6,0.4-1,0.9-1.3c0.5,1-0.2,2.3,1.1,2.8c1-1.3,3.6-2.8,1.2-4.1
	c-0.2-0.1-0.2-0.5-0.3-0.8c0.5-0.2,1-0.2,1.3,0.3c0.4-0.9,1.8-1.9,1.2-3.1c-1-2-2.6-3.7-3.7-0.7c-0.2,2.2,1.5,5,0.7,6.9
	c-0.7-2.1,0.1-7.1-2.4-7.6C15.9,55.9,15.9,58.1,16,59.5L16,59.5z M9.6,43.1c1.2,0,2.1-0.6,2.9,0.4C11.8,44.1,10.9,44,10,44
	c-2.1,0.1-3.2,2.7-1.7,4.2c0.1-1.6,1.7-3.5,3.1-2.4c-2.2,2.5-2.8,3.4,0.2,5.5c0.8-1.2,3.1-1.5,2-3.2c-1.3-1.8,1.6-1.2,1.7,0.2
	c2.9-2.1-2.1-4.1-1.6-6.9C12.3,41.6,10.9,42,9.6,43.1z M39.3,36.6c-1.2,7.7-4.2,14.5-8.7,20.8c6.7,1.5,8.2-21.7,12.2-26.6
	c-0.1-0.1-0.1-0.1-0.2-0.2C39.8,31.8,40.8,36.5,39.3,36.6z M35.6,53.7c1.7-2.9,8.1-14.3,4.8-16.5C39.2,42.9,37.5,48.3,35.6,53.7z
	 M33.9,57.2c2,0.5,3.1-1.5,3.4-3.1c-0.1-0.9-0.1-1.7,0.7-2.2c2.4-3.3,2.8-7.9,4.4-11.7c0.2-0.5,0.1-0.7-0.3-0.9
	C40.5,45.7,38,51.8,33.9,57.2L33.9,57.2z M18.2,48.4c0.9,2,1.7,3.9,2.3,6c0.4,0,0.8-0.1,1.3-0.1c-1-2.1-2-4.3-3-6.4
	C18.5,48.1,18.3,48.3,18.2,48.4z M9.1,53.7c0,0.1,0.1,0.1,0.1,0.2c3.9-2.6,5.6,3.7,7.3,1.7C14.4,54.3,11.5,51.2,9.1,53.7L9.1,53.7z
	 M32.6,50.3c-1,1.4-0.6,2.9-1.1,4.3c0.1,0,0.1,0,0.2,0.1c0.8-1.4,1.7-2.8,2.5-4.2c0,0-0.1-0.1-0.2-0.1c-0.4,0.4-0.8,0.8-1.4,1
	C32.6,51,32.5,50.8,32.6,50.3L32.6,50.3z M47.7,47.4c2.3-1.5,3.9-4.7,5.2-7.1C51.2,42.7,49.5,45,47.7,47.4L47.7,47.4z M31.4,51.8
	c-0.1,0-0.1,0-0.2,0c-0.5,1.9-1,3.7-1.6,5.6C31.5,56.3,31.1,53.7,31.4,51.8L31.4,51.8z M52.6,21c0.9,0.6,1.8,1.1,2.7,1.6
	C55.2,21.3,53.6,19.5,52.6,21L52.6,21z M36.5,56.9c0,0.1,0,0.1,0.1,0.2c0.7-0.2,1.4-0.4,2.2-0.6c-0.4-0.6-0.8-1-1.2-1.5
	C37.3,55.6,36.9,56.3,36.5,56.9z M46.8,30.5c-0.6,0.9-0.1,1.7,1.6,2.6C48.3,32.3,47.6,31.1,46.8,30.5z M44.5,35
	c-0.1,0-0.2-0.1-0.3-0.1c-1,1.2-0.8,2.6-0.7,4.1C43.8,37.7,44.2,36.4,44.5,35L44.5,35z M46.9,25.4c0.1,0,0.2,0,0.2,0.1
	c0.3-1.3,1.2-2.7,0.8-4c-0.1,0-0.1,0-0.2,0C47.4,22.8,47.1,24.1,46.9,25.4z M20.9,38.3c0.7,0.7,1.1,1.4,1.5,2.3
	C22.7,39.6,22.2,37.6,20.9,38.3z M17.6,24.9c-0.1,0.7-0.3,1.4-0.4,2.1C18.2,26.4,18.3,26,17.6,24.9z M27.9,44.7
	c1-0.6,1.6-1.1,1.6-1.4C28.8,43.3,28.2,43.9,27.9,44.7z M32.9,47.2c-0.1,0-0.1,0-0.2,0c0.1,0.8,0.1,1.5,0.2,2.3
	C33.4,48.7,33.3,47.9,32.9,47.2L32.9,47.2z M48.5,36.8c0.1-0.1,0.2-0.1,0.3-0.2c-0.6-0.7-1.3-1.5-1.9-2.2c-0.1,0.1-0.1,0.1-0.2,0.2
	C47.3,35.3,47.9,36,48.5,36.8z M60.6,41.7c0,0,0.1-0.1,0.1-0.1c-0.2-0.8-0.4-1.6-1.4-1.9C59.7,40.4,60.2,41,60.6,41.7L60.6,41.7z
	 M19.1,33.4c0.3,0.5,0.5,0.9,0.8,1.4c0.6-0.8-0.3-1.1-0.3-1.7C19.4,33.3,19.2,33.3,19.1,33.4z M54.4,40.1c0.1,0,0.1,0,0.2,0.1
	c0.2-0.7,0.8-1.3,0.6-2L55,38.1C54.8,38.8,54.6,39.5,54.4,40.1z M16.3,41.3c-0.1,0-0.2,0-0.2-0.1c-0.6,0.6-0.5,1.4-0.4,2.2
	C15.9,42.7,16.1,42,16.3,41.3L16.3,41.3z M7.9,56.5c-0.1,0-0.2,0-0.3,0c0,0.5-0.1,1-0.1,1.4C7.8,57.5,8.3,57.1,7.9,56.5z M35.4,45.6
	c0-0.9-0.2-1.2-0.8-1.2C34.8,44.8,35.1,45.2,35.4,45.6z M10.3,43.4c0,0,0,0.1,0,0.1h1.8c0,0,0-0.1,0-0.1
	C12,43.4,10.3,43.4,10.3,43.4z M43.5,69.9c-7.2,4.6-16.9,4.6-25,3C26.9,73.5,35.7,74,43.5,69.9z M12.5,82.8
	c5.5,0.9,10.9,1.1,16.6,0.7c-5.4,1.3-11.3,0.7-16.6-0.5C12.5,82.9,12.5,82.8,12.5,82.8L12.5,82.8z M9.7,69.8
	c3.8,0.9,7.7,1.7,11.4,2.6C20.3,72.9,10.7,70.8,9.7,69.8z M37.5,79.1c0.2,3.9-4.5,3.9-7.3,3.7C32.9,81.7,36.5,82.8,37.5,79.1
	L37.5,79.1z M16.5,72.9c-2.6-1-8.1-0.8-8.5-4c1.8,2.8,5.7,2.9,8.6,3.7C16.6,72.7,16.5,72.8,16.5,72.9z M31.8,59.5
	c-2.6,0.1-5.2,0-7.8-0.2c0-0.1,0-0.2,0-0.3c2.6,0.1,5.2,0.1,7.8,0.2C31.8,59.3,31.8,59.4,31.8,59.5L31.8,59.5z M38.9,58.5
	c-1.9,0.7-4,1-6,1c0-0.1,0-0.1,0-0.2c2-0.3,4-0.7,6-1C38.9,58.3,38.9,58.4,38.9,58.5L38.9,58.5z M38.7,73.4
	c-0.2,1.4-0.4,2.6-0.6,3.8C37.7,76.3,37.9,74.6,38.7,73.4z M46.5,37.6c0.9,1.1,1.4,2.3,1.6,3.7c-0.1,0-0.1,0.1-0.2,0.1
	c-0.5-1.2-1-2.4-1.5-3.7C46.4,37.6,46.5,37.6,46.5,37.6z M31.1,47.7c-0.3,1.1-0.6,2.1-0.9,3.4c-0.6-1.2,0.2-2.4,0.8-3.5
	C31,47.7,31.1,47.7,31.1,47.7z M50.2,19.9c2.5,1.8,4.2,5.4,2.8,8.4c-0.1,0-0.1,0-0.2,0C53.6,24.7,52.2,22.7,50.2,19.9L50.2,19.9
	L50.2,19.9z M58.3,40.9c-0.9-1.7-1.4-3.5-2.5-5.1c1.7,1.1,2,3.2,2.6,5C58.4,40.8,58.4,40.8,58.3,40.9L58.3,40.9z M59.2,46.6
	c0.3-1.4,0.3-2.3,0.1-3.6C60.2,43.3,60.2,45.6,59.2,46.6L59.2,46.6z M11.6,50.5c-1.2-1.9,0.2-5.3,2.4-6.3
	C12.1,45.9,11.1,47.8,11.6,50.5z M245.2,60.4c-0.1-3.5-0.1-6.9-0.2-10.4c1.4,0,2-0.3,1.9,1.4c0.1,7.6,0.3,15.2,0.3,22.9h5
	c-1.3-3.7,0.3-11.5,5.2-10.6c2.4,2.3,4,7.1,2.6,10.5h3.4c-1.4-7.7,5.5-8.6,4.7-0.1h3.9c-1.6-3.5,0-11.6,4.8-11
	c1.9,2.6,3.7,7.5,2.5,10.8h5.2c0.7-8-1.2-17.7,0.5-24.9c2.6-0.4,0.9,4.6,1.4,6.3c1.7,0.1,3.3-0.2,4.9,0.2c-1.6,0.3-3.2,0.1-4.8,0.3
	v14.1c4-2.4,9.5,0,14-0.6c-0.4,1.4-0.4,2.1,0.4,2.1v2h4.3c0,0.1,0,0.1,0,0.2c-6.1,0.5-12.3,0.3-18.5,0.6v2
	c12.6-0.3,25.2-0.5,37.9-0.8c-0.1-6.7-0.1-13.4-0.2-20.1c-10.4-0.2-21,0.7-31.2,0.1c10.2-0.8,20.8-0.2,31.1-0.6v-2.1
	c-12.3,0.3-24.6,0.4-36.9,0.6c0-0.1,0-0.3,0-0.4c7.7-0.1,15.5-0.2,23.3-0.4c-0.8-1.2-4.1-2.2-2.9-3.8c1.3-2,2.4-4,5.1-3.6
	c0-1.2-1.6-2.8-3.5-2.5c0,4-3.9,5.1-1.5,0.2c-0.9,0.6-1.7,1.2-2.5,1.8c0.9,1.1,0.6,2.7-0.1,3.6c-0.9-0.8-1-1.3-0.7-2.7
	c-0.8,1.1-2.6,1.2-3.1,2.4c0,0.6-0.3,1.3-1,1.3c-2.5,0.2-2-1.7-0.2-2.4c1.2-0.2,2.1-0.2,3.2-1.3c-1-0.2-2-0.2-2.8-0.8
	c0.8-1.6,2.5-0.6,3.6,0.1c0.6-0.6,1.3-1.2,2.1-1.9c-7-1.3,0.1-4.4,0.6-0.3c1.1-0.6,2.2-1,3.5-0.7c-3.4-5,2-4.3,1,0.3
	c0.2,0.1,0.5,0.3,0.7,0.5c-0.2-2,1.4-2.3,2-0.4c1.6-1.1-0.1-4.1,2.4-4.3c0.4,0.9,0.1,1.5-0.1,2.5c0.6-0.4,1.2-0.8,1.9-1.2
	c-2.1-2.5,2.2-5.9,0.8-1c1.5-1.5,0.4-5.3,3.3-2.5c0.2,0.7-0.7,1.3-1.3,1.4c-1.1,0.2-1.3,1.4-2.1,2.2c0.8,0.1,1.6,0,2.1,0.7
	c-1.4,2-3.9-0.3-5.5,1.5c4.2-0.4,1.4,2.5-1.1,1.2c-0.1,0.8-0.2,1.5-0.3,2.3h1.8c1-2,2.8-2.8,4.9-2.4c1.8-2.6,6.6-1.1,1.8,0.6
	c1.1,0.4,2.3,0.9,3.5,1.3c0.6-2.9,4.8-3,1.5,0c1.6-0.2,2.9-0.8,3.7-2.2c-1-0.3-1.9-0.5-2.3-1.6c0.3-0.1,0.6-0.3,1-0.5
	c-0.5-2.3,1.2-1.6,2.1-0.3c0.2-0.6,1.1-1.6,1.5-0.5c0.2,0.7-0.1,1.3-0.6,1.6c-1,0.7-1.3,2-2.3,2.8c1.3-0.4,2.1,1,0.5,1.5
	c-0.8,0.2-1.5,0.3-2.1-0.5c-1.3,0-2.6,0.2-3.9-0.1c2.9,4-2.2,2.9-1.2-0.5c-1.1-0.4-2.3-0.9-3.4-1.3c0,0-0.1,0.1-0.1,0.1
	c2.9,3.8-1.5,4.2-0.9-0.1c-1.5-0.1-3,1-3.2,2.1c3.3-0.7,3.4,1.9,4.7,4.1c0.4,1.4-1.7,2-2.5,3.1h5.6c0.3-1.2-0.9-4.4,0.9-4.1
	c1.1-0.1,1.2,0.5,1.1,1.4c-0.6,10.6,1.3,23.1-0.4,32.8c-2.6,0.2-0.8-4.9-1.3-6.6c-12.7,0.3-25.3,0.6-37.9,0.9c0,1.7,0,3.3,0,4.9
	c0,1-1.4,0.3-2,0.5v-5.8c-8.5-0.1-17.6,0.7-25.8,0.1c8.6-0.4,17.1-0.3,25.7-0.5v-1.7c-12.4,0.2-24.7,0.4-37.2,0.5
	c0,0.6,0.1,1.1,0.1,1.6h9.6c0,0.1,0,0.1,0,0.2c-3.2,0.4-6.4,0.1-9.6,0.3c-0.5,1.7,1.5,6.4-1.4,5.8c-1-1.3-0.1-4-0.4-5.8 M245.2,62.4
	v-1.7V62.4z M320.4,49.9c-0.8-5.8-4.7-4-9.1-4.1c-1.3-0.2-0.8,0.6-1.2,1.5c-0.1,0-0.1,0-0.2,0v-1.1c-2.7,3.5-2.7,3.3,0.7,6
	c2,1.2,4.6,0.2,6.8,0.4c-1-0.8-2-1.5-2.9-2.3c-0.2,0.7,0.1,1.4-0.2,2c-0.1,0-0.1,0-0.2,0v-2.1c-1,0.8-1.8,1.4-2.6,2.1
	c0-0.1-0.1-0.1-0.1-0.2c0.5-1,1.6-1.4,2.2-2.2c-1.9-0.7-3.6-1.1-5.5-0.4c0.6-0.8,2-0.4,1.9-1.7c0,0,0.1,0,0.2-0.1
	c0.2,1.6,2.2,1.2,3.5,1.8c-1.1-1-2-1.9-2.9-2.8c0.1-0.1,0.2-0.2,0.2-0.2c1,0.9,1.9,1.8,3,2.8V46c0.1,0,0.1,0,0.2,0
	c0.3,1,0,2.1,0.2,3.2c1.3-1.1,2.6-2.2,3.9-3.3c0.1,0.1,0.1,0.1,0.2,0.2c-0.9,1.3-2.4,2.2-3.5,3.4C316.7,49.7,319.1,48.4,320.4,49.9
	c-0.5-0.1-1.1-0.1-1.6-0.2c-0.3,0.7-0.5,1.4-0.7,2.1c-0.1,0-0.2-0.1-0.3-0.1c0.2-0.7,0.3-1.4,0.5-2.2c-1.1,0.1-2.2,0.3-3.4,0.4
	C317.8,52.3,317.8,52.7,320.4,49.9z M245.4,74.3c-0.1-3.8-0.1-7.6-0.2-11.5L245.4,74.3z M256.6,65c0.3,2.8-1.7,7,0.2,9.2
	c6,0.7,2-7.1,0.8-10c-3.6-1.8-5,3.8-5.4,6.6c-0.2,3.4,0.4,3.8,3.7,3.5C255.3,71.3,256,66.5,256.6,65L256.6,65z M275.5,73.9
	L275.5,73.9c5.8,1.2,3.2-5.5,2-8.7c-0.7-1.9-0.7-1.9-2.7-1.8C272.1,65.6,268.9,75.4,275.5,73.9L275.5,73.9z M325.8,82V48.7h-1.2
	c0.1,11.1,0.2,22.2,0.3,33.3H325.8z M285.8,81.6V49.4h-1.3c0.1,10.8,0.2,21.5,0.4,32.3H285.8L285.8,81.6z M247,82.2
	c-0.2-10.7-0.4-21.3-0.5-32.1c-0.4,0.1-0.7,0.1-1,0.2c0.2,10.7,0.4,21.3,0.6,31.9L247,82.2L247,82.2z M300.2,71.6
	c-2.9,0.8-12.7-2.3-12.7,1.5c0.7,1.8,10.2,0.1,12.7,0.4L300.2,71.6L300.2,71.6z M299.7,71.4v-1.8c-2.6,0.8-12.9-2.3-12.1,1.4
	C291.6,70.6,295.6,71.2,299.7,71.4z M266.5,68.3c-2.4-0.4-3.4,3.4-2.9,5.3c0.1,0.4,0.3,0.5,0.7,0.5
	C269.6,74.8,267.5,71.6,266.5,68.3z M331.5,41.7c0.2-1.3-0.4-2.4-1.3-2.4C329.9,40.2,330.5,41.3,331.5,41.7z M324.3,42
	c-1-0.5-2.3-0.1-3,0.8C322.4,42.9,323.4,42.7,324.3,42z M310.9,42c0.1-1.7-0.3-2.6-1.3-2.9C309.5,40.3,310.2,41,310.9,42z
	 M307.3,45.7c0.9-0.2,1.4-1.3,1.2-2.6C307.7,43.8,307.4,44.7,307.3,45.7z M320.7,46c0.5-0.8,0.1-1.9-0.8-2.5
	C319.8,44.5,319.8,45.4,320.7,46z M306.2,42.6c-0.3-1.1-1.9-1.8-2.6-0.7C304.5,42.1,305.3,42.3,306.2,42.6z M316.3,38.7
	c-0.9,0.3-1.4,1.5-1,2.4C315.9,40.4,316.3,39.7,316.3,38.7z M324.5,44.9c-0.1,0-0.1,0.1-0.2,0.1c-0.1,0.8,0.1,2.2,1.3,2.1
	C325.6,46.3,324.8,45.7,324.5,44.9L324.5,44.9z M313.6,43.6c-0.2-0.7-0.1-1.5-0.8-1.9C312.3,42.4,312.5,42.9,313.6,43.6z M319,36.6
	c-0.9,0.4-1.1,1.6-0.5,2.5C318.6,38.2,318.8,37.4,319,36.6z M329.3,44.7c0.8,0.7,2,0.5,2.2-0.4C330.7,44.5,330,44.6,329.3,44.7z
	 M320.4,40.3c-1.1-0.3-2-0.3-2.6,0.2C318.7,40.7,319.5,40.8,320.4,40.3z M328.3,42.9c-0.9,0.1-1.5,0.7-1.7,1.5
	C327.5,44.1,327.9,43.5,328.3,42.9z M305.2,45.6c-0.1,0-0.2,0-0.3,0c-0.2,0.7-0.7,1.3,0.1,2.1C305.1,46.9,305.2,46.3,305.2,45.6z
	 M315,42.4c0,0.1,0,0.1,0,0.2c0.8,0.3,1.6,0.2,2.2-0.4C316.4,42.2,315.7,42.3,315,42.4z M300.9,44.9c0.8,0.1,1.6,0.3,2.4,0.4
	C302.4,44.5,301.7,44.4,300.9,44.9z M332,41.2c0.9-0.5,1.2-1.1,0.8-1.8C332.5,40.1,332.2,40.6,332,41.2z M312.7,43.6
	c0.2,0.6,0.4,1.1,0.6,1.6c0.1,0,0.2,0,0.3-0.1C313.7,44.3,313.5,43.9,312.7,43.6L312.7,43.6z M287.2,71.2v-1.6
	C286.5,70.1,286.5,70.8,287.2,71.2z M321.1,35.3c-0.8,0.5-1,1.1-0.7,1.7C320.6,36.4,320.8,35.9,321.1,35.3z M299.2,49
	c0.5-0.5,0.9-0.9,1.3-1.4C299.6,47.8,299.3,48.1,299.2,49z M330.6,41.9c0.1-0.1,0.1-0.2,0.2-0.3c-0.5-0.2-1-0.5-1.4-0.7
	c0,0.1-0.1,0.2-0.1,0.3C329.7,41.4,330.1,41.7,330.6,41.9L330.6,41.9z M287.1,73.5c0.1-0.7,0.2-1.2,0.2-1.8
	C286.8,72.3,286.7,72.7,287.1,73.5z M320.9,37.1c0.3-0.2,0.7-0.5,1.1-0.8C321.2,36,321,36.5,320.9,37.1z M300,48.9
	c0.7,0.4,0.7-0.3,1.1-0.7c-0.1,0-0.1-0.1-0.2-0.1C300.6,48.3,300.3,48.5,300,48.9z M378.4,54.9c-0.1-4.5-0.2-8.9-0.1-13.5
	c-14,0.1-27.9-0.3-41.9,0.9c-0.2,14.5-0.5,28.8,0,43.2c13.9-0.3,27.8-0.4,41.7-0.5c0.9-9.3-0.3-18.8,0.5-28c0,3.5,2,29.8-1.3,28.7
	c-12.8,0.1-25.7,0.1-38.5,0.4c-1-0.1-2.9,0.4-2.9-1.1c0.2-14.1-1.4-29.8,0.7-43.2c13.7-1,27.6-1,41.3-0.9c2.2,2.4,0.5,10.4,0.8,14
	C378.6,54.9,378.5,54.8,378.4,54.9z M356.6,61.6c-5.7,0.5-22.9,7.1-7.9-3c-4-6.1,12.3-11.7,5.2-1.7c4.7-0.4,5.5,1.2,9.4-2.6
	c-3.1-0.9,2.8-2.8,3.8-2.3c-0.4,1-1.7,1.4-2.4,2.1c1.5,0.8,1.8,1.3,1.2,2.8c5.6-0.8,7.2,7,3.6,10.4c-9.7,8.3-37,7.1-12.8-5.4
	C356.7,61.8,356.7,61.7,356.6,61.6L356.6,61.6z M359.4,61.6c9.6-1.7,1.1,6.3-1.7,9.1c-1.2-1,5.7-6.1,5.6-8.4
	c-6-2.2-10.5,3.9-13.2,8.4c-1.5-1.5,4.3-5.9,5.4-7.5c-26.7,13.6,22.1,10.9,14.8-3.9c-0.8-1.7-4.1-2.7-5.5-1.4c0-0.2,0-0.3,0-0.5
	C361,58.4,360.8,57.6,359.4,61.6L359.4,61.6z M352.1,58.4c-2.2-0.2-7.9,3.4-8.4,5.3c3.3-0.1,11.6-4.2,13.7-1.8
	c1.8,0.1,2-1.8,2.5-3.2c-1.1,0.2-1.3,0-0.9-1.1c-1.8-0.5-3.5-0.4-5.4,0c1.6,0.4,1.8,0.5,1.8,1c-2.8-1.3-3,0.8-5,1.9
	c0-0.1,0-0.1,0-0.1C350.9,59.7,351.5,59.1,352.1,58.4z M353.6,51.8c-2.9,0.2-4.7,3-5,5c-0.4,2.5,2.9,0.6,4.2,0.4
	C353.9,56,357.4,51.8,353.6,51.8L353.6,51.8z M360,57.3c0.8,1.7,3.4-0.4,4.9-0.2c0.9-0.2,1.2-1.6,0.4-2
	C363.4,53.6,361.7,56.6,360,57.3z M366.3,52.4c0-0.1-0.1-0.1-0.1-0.2c-1.1,0.4-2.3,0.8-3.4,1.2c0,0.1,0,0.2,0.1,0.3
	C364.3,54.2,365.2,53.1,366.3,52.4L366.3,52.4z M338.2,83.6c9-0.2,18.4-1.1,26.8-0.1c-8.3,0.4-16.6-0.1-24.9,0.4
	c-1.1-0.1-2.7,0.4-2.5-1.3c0.1-12.9-0.9-26.5,0.2-39.2c12.7-1.4,25.6-0.9,38.4-1c0.6,0,0.9,0.3,0.9,0.9c-0.3,11.5-0.5,23.1-0.6,34.6
	c0.7,9-0.6,5.5-10.7,5.5c0-0.1,0-0.2,0-0.3c3.4-0.1,6.8,0,10.2,0.2c-0.3-13.5,0.3-27,0.4-40.5c-12.9,0.1-25.8-0.5-38.7,1
	C338,57.1,338.1,70.2,338.2,83.6z M341.2,77.2c0.3-8.5-0.6-17.4,0.6-25.7c0,8.4-0.5,16.8,0,25.2c10.4,0,20.8-0.2,31.1-0.1
	C362.8,77.9,351.7,77.1,341.2,77.2z M373.5,48c-0.8,9.4,0,19.1-0.9,28.4c-0.8-9,0.3-18.8,0.3-28c-10.4-0.2-20.7,0.3-31,0.6
	c0-0.1,0-0.2,0-0.2C352.4,47.9,363,47.9,373.5,48L373.5,48z M305.9,73.4c5.9-0.2,11.8-0.4,17.6-0.4c0,0.1,0,0.2,0,0.3
	c-5.8,0.4-11.9,0.6-17.7,0.5C305.8,73.5,305.9,73.4,305.9,73.4L305.9,73.4z M254.1,73.9c-2.2-1.8-0.8-7,0.5-8.2
	C253.8,68.3,252.5,71.2,254.1,73.9L254.1,73.9z M257.3,66.8c0.9,1.2,1.2,5.8,0.3,7.1C257.9,71.5,257.8,69.2,257.3,66.8z M254.7,72.6
	c-0.6-1.9-0.2-3.8,0.3-5.7c0.1,0,0.1,0,0.2,0c0,1.9-0.6,3.8-0.2,5.7C254.8,72.6,254.8,72.6,254.7,72.6L254.7,72.6z M258.9,73.3
	c0.4-1.8,0.1-3.4-0.3-5.2C259.5,68.5,259.7,72.4,258.9,73.3z M256.7,73.6c0.1-1.6,0.1-3.2,0.2-4.8c0.5,1.6,0.2,3.2,0,4.8
	C256.8,73.6,256.7,73.6,256.7,73.6z M275,64.6c-1.1,2.8-1.5,5.7-0.8,8.6c-0.1,0-0.1,0-0.2,0c-1.1-2.8-0.5-6.1,0.8-8.7
	C274.8,64.6,274.9,64.6,275,64.6z M273.4,66.4c-0.6,2.4-0.7,4.5-0.6,7.1c-1.3-2.2-0.3-4.9,0.4-7.1C273.3,66.4,273.3,66.4,273.4,66.4
	L273.4,66.4z M277,73.3c0.5-2.5,0.4-5-0.4-7.6C277.6,66.5,278.1,71.2,277,73.3z M275.1,67.1v5.4C274.4,72.1,274.2,68.1,275.1,67.1z
	 M275.8,67.2c0.5,0.5,0.6,5,0,5.9V67.2z M278.2,73v-4.1c0.7,1.3,0.5,2.7,0.2,4.1C278.3,73,278.2,73,278.2,73L278.2,73z M265,69.1
	c-0.3,1.5-0.9,2.9-0.3,4.5c-0.1,0-0.2,0-0.2,0.1C263.7,72.3,264.1,70.5,265,69.1z M266.6,73.5c0-1,0.1-1.9,0.1-2.9
	C267.2,71.2,267.1,72.9,266.6,73.5z M265.3,71.3v2.1C264.8,72.9,264.8,71.7,265.3,71.3z M366.8,59.3c-3.1,2.3,0.6,1.7,2.2,2.4
	c-0.8,0.6-2.1,0-3-0.1C364.2,61.3,365.6,59.1,366.8,59.3L366.8,59.3z M77.2,43.1H88v2H77.2V43.1z M85.1,42.4l1.3-1.3
	c0.6,0.3,1.4,0.8,1.8,1.3l-1.3,1.3C86.4,43.3,85.7,42.7,85.1,42.4z M85.6,45.5l2.2,0.4c-1,3.4-2.9,6.1-5.4,7.8
	c-0.3-0.4-1.1-1.3-1.6-1.8C83.2,50.5,84.9,48.3,85.6,45.5z M77,50.5c1.4-0.1,3.4-0.3,5.4-0.5l0.1,1.9c-1.8,0.3-3.8,0.4-5.3,0.7
	L77,50.5z M79.4,47.2v0.9h0.8v-0.9H79.4z M77.6,45.8h4.5v3.8h-4.5V45.8z M82.3,41.6h2.4c0.1,4.6,0.6,9,1.6,9.3
	c0.2,0.1,0.3-0.7,0.4-1.8c0.4,0.4,1.3,1.1,1.8,1.4c-0.3,2.6-1.6,3.4-3.1,2.6C83,52.3,82.5,47.2,82.3,41.6z M74,38.9h17.4v18.3h-2.9
	V41.5H76.7v15.7H74V38.9z M75.7,53.7h14.3v2.6H75.7V53.7z M95.6,38.8h4.5v2.6h-2.1V57h-2.4L95.6,38.8L95.6,38.8z M99.3,38.8h0.4
	l0.4-0.1l1.8,1c-0.4,1.8-1,3.8-1.4,5.4c0.9,1.6,1.1,2.9,1.1,4.1c0,1.4-0.3,2.3-0.9,2.8c-0.3,0.3-0.7,0.4-1.1,0.5
	c-0.3,0.1-0.8,0.1-1.2,0.1c0-0.7-0.3-1.7-0.6-2.4c0.3,0,0.4,0,0.6,0s0.3-0.1,0.4-0.2c0.2-0.2,0.3-0.6,0.3-1.1c0-0.9-0.1-2.1-1-3.5
	c0.4-1.8,0.9-4.5,1.1-5.8L99.3,38.8L99.3,38.8z M104.5,45.6h5.7v2.3h-5.7V45.6z M102.7,49h9.5v2.3h-9.5V49z M103.4,39.5h2.9v1.8
	h-2.9V39.5z M102.8,42.5l1.2-1.3c0.7,0.5,1.6,1.2,2.1,1.6l-1.2,1.4C104.4,43.8,103.4,43.1,102.8,42.5z M109.4,52.8l2.1-1.3
	c0.8,0.9,2.1,2.3,2.6,3.2l-2.3,1.4C111.3,55.4,110.2,53.9,109.4,52.8z M105.8,39.5h0.4l0.4-0.1L108,40c-0.8,4.1-2.8,7.1-5.4,8.8
	c-0.3-0.5-0.9-1.3-1.4-1.8c2.3-1.3,4.1-4.1,4.7-7.2L105.8,39.5L105.8,39.5z M109,39.1h3.1V41H109V39.1z M103.3,38.1l2.1,0.5
	c-0.8,2.2-2,4.2-3.4,5.5c-0.4-0.4-1.2-1.1-1.7-1.4C101.7,41.5,102.8,39.9,103.3,38.1z M111.3,39.1h0.5l0.4-0.1l1.6,0.9
	c-0.6,1.8-1.5,3.7-2.5,4.9c-0.3-0.5-1.1-1.3-1.5-1.6c0.7-0.9,1.3-2.5,1.5-3.6V39.1z M102.9,51.9l2.6,0.8c-0.7,1.3-1.8,2.8-2.6,3.6
	c-0.6-0.4-1.7-1.1-2.3-1.4C101.4,54.1,102.3,52.9,102.9,51.9z M109.4,39.9c0.8,2.9,2.4,5.6,4.9,6.8c-0.6,0.4-1.3,1.4-1.6,2
	c-2.8-1.6-4.4-4.6-5.4-8.3L109.4,39.9z M106.1,50h2.8V57h-2.8V50z M100.9,44.1c0.8-0.1,1.6-0.1,2.6-0.3l0.1,1.4
	c-0.9,0.2-1.6,0.3-2.4,0.5L100.9,44.1z M122.2,46.5l1.9-0.8c0.7,1.3,1.3,2.9,1.4,3.9l-2.1,0.8C123.3,49.5,122.7,47.8,122.2,46.5z
	 M120,51.8l1.9-0.5c0.3,1.3,0.4,2.9,0.5,4l-2.1,0.6C120.4,54.7,120.2,53,120,51.8z M117.6,51.5l2.3,0.4c-0.1,1.8-0.4,3.8-0.8,4.9
	c-0.5-0.3-1.6-0.6-2.1-0.8C117.3,54.9,117.5,53.1,117.6,51.5z M117.8,46.3c-0.1-0.6-0.6-1.8-0.9-2.6c0.4-0.1,0.8-0.4,1.2-1.1
	c0.4-0.6,1.6-2.7,2.3-4.8l2.7,1.1c-0.9,2.1-2.3,4.3-3.6,5.9v0.1C119.4,44.9,117.8,45.8,117.8,46.3z M117.8,46.2l-0.1-2l1.1-0.8
	l3.4-0.3c-0.1,0.7-0.3,1.8-0.3,2.3C118.9,45.8,118.2,46,117.8,46.2z M117.9,50.9c-0.1-0.5-0.6-1.8-0.9-2.6c0.6-0.1,1-0.6,1.7-1.3
	c0.8-0.8,2.9-3.6,4.2-6.3l2.4,1.6c-1.5,2.6-3.7,5.3-5.8,7.3v0.1C119.5,49.7,117.9,50.5,117.9,50.9z M117.9,50.9l-0.2-2.1l1.1-0.8
	l5.1-0.8c-0.1,0.7-0.1,1.7-0.1,2.3C119.3,50.4,118.5,50.7,117.9,50.9z M122,51.3l1.9-0.6c0.4,1,0.8,2.3,1,3.1l-2,0.8
	C122.8,53.7,122.4,52.4,122,51.3z M124.7,38.8h7.1v2.8h-7.1V38.8z M131.1,38.8h0.3l0.4-0.1l2,0.3c-0.3,2.1-0.7,4.4-1.1,6.3l-2.7-0.3
	c0.4-1.9,0.8-4.5,0.9-5.9L131.1,38.8L131.1,38.8z M127.5,44.4h6.1V47h-6.6L127.5,44.4z M132.8,44.4h0.5l0.5-0.1l1.8,0.6
	c-0.9,5.8-3.1,9.8-6.8,12.1c-0.4-0.7-1.2-1.7-1.8-2.2c3.1-1.8,5.1-5.6,5.8-10V44.4z M126.2,39.9h2.8c-0.1,7.2-0.4,13.3-2.8,17.1
	c-0.4-0.4-1.8-1.4-2.5-1.8C126,52,126.3,46.3,126.2,39.9z M129.6,46.3c0.9,3.7,2.9,6.8,6.3,8.3c-0.6,0.6-1.5,1.7-1.9,2.4
	c-3.6-1.9-5.5-5.6-6.6-10.3L129.6,46.3z M141.2,38h2.5v19h-2.5V38z M138.8,44.7h6.9v2.7h-6.9V44.7z M140.2,47.9l1.8,0.6
	c-0.4,2.3-1.1,5-2.4,6.4c-0.3-0.9-0.8-2.2-1.1-3.1C139.3,50.9,140,49.3,140.2,47.9z M144.5,48c0.4,0.4,1.8,2.1,2.1,2.5l-1.8,2.1
	c-0.4-1-1.3-2.7-1.8-3.5L144.5,48z M138.7,39.8l2-0.5c0.3,1.4,0.7,3.1,0.8,4.3l-2.1,0.6C139.3,43,139,41.2,138.7,39.8z M144.4,39.4
	l2.3,0.8c-0.6,1.4-1.2,3.1-1.7,4.1l-1.8-0.6C143.7,42.4,144.2,40.6,144.4,39.4z M146.4,39.4h10.9v2h-10.9V39.4z M146.9,42h10v1.9
	h-10V42z M146.1,44.5h11.6v2.1h-11.6V44.5z M150.3,38h2.8v7.6h-2.8V38z M154.1,47.2h2.7v7.4c0,1.1-0.3,1.8-1,2.1
	C155,57,154,57,152.7,57c-0.1-0.7-0.4-1.6-0.8-2.3c0.6,0.1,1.5,0.1,1.8,0.1s0.3-0.1,0.3-0.3L154.1,47.2L154.1,47.2z M148.4,49.8h6.8
	v1.8h-6.8V49.8z M148.4,52.3h6.8v1.8h-6.8V52.3z M146.9,47.2h2.6v3.6c0,2.1-0.3,4.8-1.9,6.5c-0.4-0.5-1.5-1.5-2-1.8
	c1.2-1.3,1.3-3.2,1.3-4.7V47.2z M148.5,47.2h6.3v2.1h-6.3V47.2z M162,40h16.2v3.1H162V40z M160.8,52.8h18.5v2.9h-18.5V52.8z
	 M168.2,41.7h3.3V54h-3.3V41.7z M188.6,42.2h12.3v2.1h-12.3V42.2z M189.3,47.8H200v2h-10.6V47.8z M188.6,50.5h12v2.2h-12V50.5z
	 M192.7,38.1h2.8v15.6h-2.8V38.1z M189.5,39.4h10.3v7.8h-10.5V45h7.9v-3.4h-7.8L189.5,39.4L189.5,39.4z M182.9,39.1h4.5v2.5h-4.5
	V39.1z M184.6,44.8h2.8v2.5h-2.8V44.8z M186.4,44.8h0.5l0.5-0.1l1.6,0.4c-0.5,6.1-2,10-4.7,12c-0.4-0.6-1.5-1.5-2.1-1.9
	c2.6-1.7,3.8-4.9,4.2-10L186.4,44.8L186.4,44.8z M184.8,48.2c1.6,5.2,5,5.9,9.5,6c1.3,0,5.4,0,7-0.1c-0.4,0.6-0.9,1.9-1,2.6h-6.1
	c-5.7,0-9.6-1.2-11.6-7.9L184.8,48.2z M183.6,48.3c-0.2-0.5-0.8-1.6-1.1-2.2c0.4-0.1,1.1-0.8,1.5-1.4c0.4-0.7,1.7-3.1,2.4-5.5v-0.1
	l1-0.4l1.8,1.2c-1.1,2.7-2.4,5.3-3.6,7.1V47C185.5,47,183.6,47.8,183.6,48.3z M213.2,42.1h10v2.8h-10V42.1z M218.2,38.1h3.1v15.6
	c0,1.6-0.3,2.3-1.2,2.8c-0.9,0.5-2.3,0.6-4,0.6c-0.1-0.8-0.6-2.1-0.9-2.9c1,0.1,2.2,0.1,2.6,0.1c0.4,0,0.5-0.1,0.5-0.4L218.2,38.1
	L218.2,38.1z M218,43.5l2.4,1.4c-1.4,3.4-4.3,7.3-7.1,9.3c-0.5-0.8-1.4-1.8-2.1-2.4C214,50.1,216.6,46.6,218,43.5z M204.4,42.1h8.3
	v2.8h-8.3V42.1z M207.4,38h2.9v19h-2.9V38z M207.2,44l1.9,0.7c-0.8,3.3-2,7.2-3.8,9.3c-0.3-0.9-1-2.1-1.4-2.9
	C205.4,49.3,206.7,46.4,207.2,44z M210.1,45.2c0.6,0.4,2.8,2.4,3.3,2.9l-1.6,2.5c-0.8-1.2-2.2-3-3-4L210.1,45.2z M79.4,70.3l2.7-1.3
	c1.3,1.4,2.6,3.4,3.1,4.8l-2.9,1.6C81.9,74,80.6,71.9,79.4,70.3z M73,80.3c2.1-0.6,5.3-1.9,8.1-3.1l0.7,2.9
	c-2.6,1.2-5.5,2.4-7.8,3.3L73,80.3z M84.5,79l2.3-2.1c1.8,1.9,4.4,4.6,5.5,6.4l-2.5,2.4C88.8,83.9,86.4,81.1,84.5,79z M87.2,68
	l3.3,0.3c-0.9,9-3.4,14.6-9.7,17.5c-0.4-0.6-1.6-2-2.3-2.6C84.5,80.8,86.6,76,87.2,68z M75.2,68l3.1-0.1l0.5,12.9l-3.1,0.1L75.2,68z
	 M105.6,83.5l1.8-1.9c2.3,0.6,4.8,1.6,6.3,2.3l-2.4,1.9C110,85,107.7,84.1,105.6,83.5z M95.4,79.8h18v2.4h-18V79.8z M95.9,67.9h17
	v2.4h-17V67.9z M100.9,81.8l2.4,1.7c-1.6,0.9-4.1,1.9-6.1,2.3c-0.5-0.6-1.3-1.4-2-2C97.3,83.4,99.7,82.5,100.9,81.8z M99.4,73.3h9.6
	v1.6h-9.6V73.3z M99.4,75.4h9.6V77h-9.6V75.4z M99.4,77.5h9.6v1.6h-9.6V77.5z M98,71h13v9.6H108v-7.9h-7.2v7.9H98V71z M103.4,66.6
	l3.1,0.3c-0.3,1.9-0.8,3.8-1.1,4.9l-2.8-0.3C103,70.2,103.3,68.2,103.4,66.6z M122.1,72.5h3.1v9c0,1,0.1,1.1,1,1.1
	c0.4,0,1.9,0,2.3,0c0.9,0,1.1-0.6,1.2-3.6c0.7,0.5,1.9,1,2.8,1.3c-0.3,3.8-1.1,5-3.7,5c-0.6,0-2.4,0-2.9,0c-2.9,0-3.6-0.9-3.6-3.8
	L122.1,72.5L122.1,72.5z M118.2,73.5l2.9,0.6c-0.3,2.8-0.7,6.3-1.3,8.6l-3-1.2C117.5,79.3,118,76.4,118.2,73.5z M130.7,74l2.8-1.1
	c1.1,2.4,2.1,5.4,2.6,7.4l-2.9,1.3C132.7,79.5,131.7,76.3,130.7,74z M122.7,68.8l2-2c1.8,1.1,4.4,2.8,5.7,4l-2.2,2.3
	C127,71.9,124.5,70,122.7,68.8z M146.5,70.6h10.3v1.9h-10.3L146.5,70.6L146.5,70.6z M145.7,73.1h11.8v2h-11.8V73.1z M145.3,80.6
	h12.3v2.1h-12.3V80.6z M147.9,78.1h7.4v1.8h-7.4V78.1z M146.1,68.1h11.1v2h-11.1V68.1z M148,66.7h2.7v7.2H148V66.7z M150.2,74.1h2.6
	v7.3h-2.6V74.1z M152.3,66.7h2.8v7.2h-2.8V66.7z M146.5,75.6h8.6v1.9h-6v8h-2.6V75.6z M154,75.6h2.7v7.5c0,1.1-0.3,1.8-0.9,2.1
	c-0.8,0.4-1.8,0.4-3,0.4c-0.1-0.7-0.4-1.6-0.8-2.3c0.6,0.1,1.4,0,1.7,0c0.3,0,0.3-0.1,0.3-0.3V75.6z M138.9,70.8h6.7v2.7h-6.7V70.8z
	 M141.1,66.7h2.6v19h-2.6V66.7z M141.1,72.6l1.6,0.6c-0.6,3.2-1.6,7-3,9.1c-0.3-0.8-0.8-1.9-1.3-2.6C139.6,78,140.6,75,141.1,72.6z
	 M143.6,74c0.4,0.6,2.1,3.3,2.4,3.9l-1.5,2.1c-0.5-1.3-1.6-3.7-2.2-4.8L143.6,74z M161.1,72h7.1V74h-7.1V72z M163.4,72.6h2.6v4.1
	h-2.6V72.6z M160.9,76.3c1.9-0.2,4.6-0.4,7.2-0.8l0.1,2.2c-2.4,0.3-5,0.6-6.9,0.8L160.9,76.3z M170.5,72.5h2.4v2
	c0,1.7-0.4,3.3-2.9,4.3c-0.4-0.4-1.4-1.3-1.9-1.6c2.1-0.8,2.4-1.7,2.4-2.8V72.5z M173.9,72h2.8v3.6c0,0.3,0,0.5,0,0.6
	c0,0.1,0.1,0.1,0.1,0.1c0.1,0,0.1,0,0.2,0c0.1,0,0.1,0,0.2-0.1c0.1-0.1,0.1-0.1,0.1-0.4c0.1-0.3,0.1-0.8,0.1-1.3
	c0.4,0.4,1.3,0.8,1.8,1c-0.1,0.8-0.2,1.6-0.3,1.9c-0.2,0.4-0.4,0.7-0.8,0.8c-0.3,0.2-0.8,0.3-1.1,0.3c-0.3,0-0.8,0-1,0
	c-0.6,0-1.2-0.2-1.5-0.6c-0.4-0.4-0.6-0.9-0.6-2.3V72z M160.7,79.1h18.4v2.3h-18.4V79.1z M168.5,78h2.8v7.8h-2.8V78z M168.4,75.5
	l0.9-1.6c1.4,0.6,3.6,1.6,4.8,2.3l-1,1.8C172.1,77.3,169.9,76.2,168.4,75.5z M168.9,72h5.9v1.8h-5.9V72z M163.4,67.8h6.3v2.1h-6.3
	V67.8z M171.7,67.8h7.6v2.1h-7.6V67.8z M163.3,66.5l2.6,0.8c-0.9,1.7-2.3,3.5-3.6,4.6c-0.4-0.5-1.3-1.6-1.9-2
	C161.5,69.1,162.7,67.8,163.3,66.5z M171.6,66.5l2.6,0.7c-0.8,1.8-1.9,3.6-3.1,4.7c-0.5-0.4-1.6-1.3-2.1-1.8
	C170.1,69.3,171.1,68,171.6,66.5z M164.5,70.5l1.8-1.4c0.6,0.6,1.4,1.4,1.8,1.9l-1.9,1.6C165.9,72,165.1,71.1,164.5,70.5z
	 M173.3,70.3l2-1.3c0.6,0.5,1.3,1.3,1.6,1.8l-2.1,1.4C174.5,71.7,173.8,70.9,173.3,70.3z M165.7,81.3l2.4,0.9
	c-1.3,1.6-3.3,2.9-5.4,3.5c-0.4-0.7-1.3-1.8-1.9-2.4C162.7,82.9,164.6,82.2,165.7,81.3z M172,82.9l2-1.8c1.6,0.6,3.8,1.7,5.1,2.4
	l-2.2,1.9C175.9,84.7,173.6,83.6,172,82.9z M184.3,67.6h2.9v5.9c0,3.6-0.4,9-2.6,12.3c-0.6-0.5-1.9-1.3-2.6-1.5
	c2.1-3,2.3-7.5,2.3-10.7L184.3,67.6L184.3,67.6z M186.4,67.6h13.4v5.9h-13.4v-2.5h10.5v-0.9h-10.5V67.6z M186.4,75h14.3v2.6h-14.3
	V75z M189.3,82.7h8.8v2.5h-8.8V82.7z M192.3,73.5h2.9v6.4h-2.9V73.5z M188,78.8h11.6v6.9h-2.9v-4.4h-5.9v4.4H188L188,78.8L188,78.8z
	 M204.8,68.2h17.7V73h-3v-2.2h-11.8V73h-2.8V68.2z M208,71.5h11.1v2.4H208V71.5z M210.9,75.4l2.3-1.2c4,3.2,3.9,8.9,2.1,10.5
	c-0.8,0.8-1.4,1.1-2.6,1.1c-0.4,0-1,0-1.6,0c-0.1-0.8-0.3-1.9-0.8-2.8c0.8,0.1,1.3,0.1,1.8,0.1c0.4,0,0.8-0.1,1-0.5
	C213.9,81.7,214.1,77.8,210.9,75.4z M213.1,72.3l2.4,1c-2.2,2.3-5.9,3.8-9.3,4.7c-0.3-0.6-1-1.8-1.4-2.3
	C208.1,75.2,211.4,74,213.1,72.3z M212.2,76.3l1.8,1.4c-1.9,1.4-5.4,2.9-8.1,3.8c-0.3-0.6-0.9-1.6-1.4-2.3
	C207.1,78.7,210.5,77.4,212.2,76.3z M213.4,78.5l2,1.5c-2.3,1.9-6.3,3.9-9.6,4.9c-0.3-0.8-0.9-1.8-1.5-2.4
	C207.6,81.8,211.5,80.2,213.4,78.5z M219,77.5c0.7,2.3,2.1,4.1,4.3,5.1c-0.6,0.6-1.5,1.6-1.9,2.4c-2.6-1.3-4.1-3.8-5-6.8L219,77.5z
	 M218.9,74l2.4,1.9c-1.9,1.4-4.1,2.9-5.9,3.8l-1.9-1.7C215.3,77.1,217.5,75.4,218.9,74z M211.6,67.3l3.1-0.9c0.4,0.8,0.9,1.8,1,2.5
	l-3.3,1C212.3,69.3,211.9,68.1,211.6,67.3z M48.6,98.9c-0.2,0-0.5,0-0.7,0c0.1-1.7,0.1-3.4,0-5.1c0.3,0.1,0.5,0.1,0.7,0
	C48.5,95.4,48.5,97.1,48.6,98.9z M95,98.9c-0.2,0-0.5,0-0.7,0c0.1-1.9,0.1-3.7,0-5.6c0.3,0.1,0.5,0.1,0.7,0C95,95.1,95,97,95,98.9z
	 M241.7,98.9c-0.2,0-0.5,0-0.7,0c0.1-1.9,0.1-3.7,0-5.6c0.3,0.1,0.5,0.1,0.7,0C241.6,95.1,241.6,97,241.7,98.9z M78.3,98.9
	c-0.2,0-0.5,0-0.7,0c0.1-1.2,0.1-2.4,0-3.6c0.3,0.1,0.5,0.1,0.7,0C78.3,96.4,78.3,97.6,78.3,98.9z M51.1,95.9c0.5-0.9,1.9-0.9,2.3,0
	c0.3,0.6,0,1.6,0.1,2.9c-0.2,0-0.4,0-0.6,0c0-0.7,0.1-1.3,0.1-2.1c0-1.5-1.3-1.2-1.5-0.8c-0.3,0.4-0.3,1.2-0.2,2.9
	c-0.2,0-0.4,0-0.7,0c0.1-1.1,0.1-2.4,0-3.6c0.3,0.1,0.4,0.1,0.6,0C51.1,95.6,51.1,95.7,51.1,95.9z M66.2,95.9c0.5-0.9,1.9-0.9,2.3,0
	c0.3,0.6,0,1.6,0.1,2.9c-0.2,0-0.4,0-0.6,0c0-0.7,0.1-1.3,0.1-2.1c0-1.5-1.3-1.2-1.5-0.8c-0.3,0.4-0.3,1.2-0.2,2.9
	c-0.2,0-0.4,0-0.7,0c0.1-1.1,0.1-2.4,0-3.6c0.3,0.1,0.4,0.1,0.6,0C66.2,95.6,66.2,95.7,66.2,95.9z M85.6,95.9c0.5-0.9,1.9-0.9,2.3,0
	c0.3,0.6,0,1.6,0.1,2.9c-0.2,0-0.4,0-0.6,0c0-0.7,0.1-1.3,0.1-2.1c0-1.5-1.3-1.2-1.5-0.8c-0.3,0.4-0.3,1.2-0.2,2.9
	c-0.2,0-0.4,0-0.7,0c0.1-1.1,0.1-2.4,0-3.6c0.3,0.1,0.4,0.1,0.6,0C85.6,95.6,85.6,95.7,85.6,95.9z M56,94.4
	c-0.1,0.4-0.1,0.7-0.1,1.1c0.2,0,0.5,0,0.8,0c0,0.1,0,0.3,0,0.3c-0.2,0-0.5,0-0.8,0c-0.1,2.4-0.2,3.2,0.9,3v0.1
	c-0.6,0.1-1.3,0.2-1.4-0.4c-0.1-0.5-0.1-1.4,0-2.7c-0.2,0-0.4,0-0.5,0c0-0.1,0-0.2,0-0.3c0.2,0,0.4,0,0.5,0c0-0.3,0-0.6-0.1-0.8
	C55.4,94.6,56,94.4,56,94.4z M75.4,94.4c-0.1,0.4-0.1,0.7-0.1,1.1c0.2,0,0.5,0,0.8,0c0,0.1,0,0.3,0,0.3c-0.2,0-0.5,0-0.8,0
	c-0.1,2.4-0.2,3.2,0.9,3v0.1c-0.6,0.1-1.3,0.2-1.4-0.4c-0.1-0.5-0.1-1.4,0-2.7c-0.2,0-0.4,0-0.5,0c0-0.1,0-0.2,0-0.3
	c0.2,0,0.4,0,0.5,0c0-0.3,0-0.6-0.1-0.8C74.8,94.6,75.4,94.4,75.4,94.4z M180,94.4c-0.1,0.4-0.1,0.7-0.1,1.1c0.2,0,0.5,0,0.8,0
	c0,0.1,0,0.3,0,0.3c-0.2,0-0.5,0-0.8,0c-0.1,2.4-0.2,3.2,0.9,3v0.1c-0.6,0.1-1.3,0.2-1.4-0.4c-0.1-0.5-0.1-1.4,0-2.7
	c-0.2,0-0.4,0-0.5,0c0-0.1,0-0.2,0-0.3c0.2,0,0.4,0,0.5,0c0-0.3,0-0.6-0.1-0.8C179.4,94.6,180,94.4,180,94.4z M195.1,94.4
	c-0.1,0.4-0.1,0.7-0.1,1.1c0.2,0,0.5,0,0.8,0c0,0.1,0,0.3,0,0.3c-0.2,0-0.5,0-0.8,0c-0.1,2.4-0.2,3.2,0.9,3v0.1
	c-0.6,0.1-1.3,0.2-1.4-0.4c-0.1-0.5-0.1-1.4,0-2.7c-0.2,0-0.4,0-0.5,0c0-0.1,0-0.2,0-0.3c0.2,0,0.4,0,0.5,0c0-0.3,0-0.6-0.1-0.8
	C194.5,94.6,195.1,94.4,195.1,94.4z M224.1,94.4c-0.1,0.4-0.1,0.7-0.1,1.1c0.2,0,0.5,0,0.8,0c0,0.1,0,0.3,0,0.3c-0.2,0-0.5,0-0.8,0
	c-0.1,2.4-0.2,3.2,0.9,3v0.1c-0.6,0.1-1.3,0.2-1.4-0.4c-0.1-0.5-0.1-1.4,0-2.7c-0.2,0-0.4,0-0.5,0c0-0.1,0-0.2,0-0.3
	c0.2,0,0.4,0,0.5,0c0-0.3,0-0.6-0.1-0.8C223.5,94.6,224.1,94.4,224.1,94.4z M59.5,95.5c-0.7,0-1,0.7-1.1,1.3c0.6,0.1,1.3,0.1,2,0
	C60.4,96.3,60.2,95.5,59.5,95.5z M60.8,98.5c-1.3,1-3,0.3-3-1.3c0-2.9,3.6-2.4,3.2-0.2c-0.8,0-1.7-0.1-2.5,0
	c-0.3,1.5,1.5,2.1,2.4,1.1L60.8,98.5z M118.1,95.5c-0.7,0-1,0.7-1.1,1.3c0.6,0.1,1.3,0.1,2,0C119,96.3,118.8,95.5,118.1,95.5z
	 M119.4,98.5c-1.3,1-3,0.3-3-1.3c0-2.9,3.6-2.4,3.2-0.2c-0.8,0-1.7-0.1-2.5,0c-0.3,1.5,1.5,2.1,2.4,1.1L119.4,98.5z M133.2,95.5
	c-0.7,0-1,0.7-1.1,1.3c0.6,0.1,1.3,0.1,2,0C134.1,96.3,133.8,95.5,133.2,95.5z M134.5,98.5c-1.3,1-3,0.3-3-1.3
	c0-2.9,3.6-2.4,3.2-0.2c-0.8,0-1.7-0.1-2.5,0c-0.3,1.5,1.5,2.1,2.4,1.1L134.5,98.5z M227.6,95.5c-0.7,0-1,0.7-1.1,1.3
	c0.6,0.1,1.3,0.1,2,0C228.5,96.3,228.3,95.5,227.6,95.5z M228.9,98.5c-1.3,1-3,0.3-3-1.3c0-2.9,3.6-2.4,3.2-0.2
	c-0.8,0-1.7-0.1-2.5,0c-0.3,1.5,1.5,2.1,2.4,1.1L228.9,98.5z M63,96.1c0.4-0.6,0.7-0.9,1.2-0.7c-0.1,0.3-0.1,0.5-0.1,0.6
	c-0.5-0.3-1.5-0.5-1.1,2.9c-0.2,0-0.4,0-0.6,0c0.1-1.1,0.1-2.3,0-3.6c0.2,0.1,0.4,0.1,0.6,0C63,95.7,63,95.8,63,96.1z M105,96.1
	c0.4-0.6,0.7-0.9,1.2-0.7c-0.1,0.3-0.1,0.5-0.1,0.6c-0.5-0.3-1.5-0.5-1.1,2.9c-0.2,0-0.4,0-0.6,0c0.1-1.1,0.1-2.3,0-3.6
	c0.2,0.1,0.4,0.1,0.6,0C105,95.7,105,95.8,105,96.1z M129.2,96.1c0.4-0.6,0.7-0.9,1.2-0.7c-0.1,0.3-0.1,0.5-0.1,0.6
	c-0.5-0.3-1.5-0.5-1.1,2.9c-0.2,0-0.4,0-0.6,0c0.1-1.1,0.1-2.3,0-3.6c0.2,0.1,0.4,0.1,0.6,0C129.2,95.7,129.2,95.8,129.2,96.1z
	 M231.1,96.1c0.4-0.6,0.7-0.9,1.2-0.7c-0.1,0.3-0.1,0.5-0.1,0.6c-0.5-0.3-1.5-0.5-1.1,2.9c-0.2,0-0.4,0-0.6,0c0.1-1.1,0.1-2.3,0-3.6
	c0.2,0.1,0.4,0.1,0.6,0C231.1,95.7,231.1,95.8,231.1,96.1z M182.7,96.1c0.4-0.6,0.7-0.9,1.2-0.7c-0.1,0.3-0.1,0.5-0.1,0.6
	c-0.5-0.3-1.5-0.5-1.1,2.9c-0.2,0-0.4,0-0.6,0c0.1-1.1,0.1-2.3,0-3.6c0.2,0.1,0.4,0.1,0.6,0C182.7,95.7,182.7,95.8,182.7,96.1z
	 M72.3,97.1c-0.6,0.2-1.5,0.2-1.5,1c0,0.7,0.9,1,1.5,0.2L72.3,97.1z M70.5,96.1v-0.4c0.7-0.6,2.4-0.7,2.4,0.8c0,2-0.2,2.2,0.4,2.1
	v0.2c-0.4,0.2-1,0.2-1-0.4c-1.1,1.1-2.6,0.3-2.1-0.8c0.4-0.8,2.1-0.5,2.1-1.1C72.3,95.4,71.1,95.4,70.5,96.1z M109.4,97.1
	c-0.6,0.2-1.5,0.2-1.5,1c0,0.7,0.9,1,1.5,0.2L109.4,97.1z M107.6,96.1v-0.4c0.7-0.6,2.4-0.7,2.4,0.8c0,2-0.2,2.2,0.4,2.1v0.2
	c-0.4,0.2-1,0.2-1-0.4c-1.1,1.1-2.6,0.3-2.1-0.8c0.4-0.8,2.1-0.5,2.1-1.1C109.4,95.4,108.3,95.4,107.6,96.1z M221,97.1
	c-0.6,0.2-1.5,0.2-1.5,1c0,0.7,0.9,1,1.5,0.2L221,97.1z M219.1,96.1v-0.4c0.7-0.6,2.4-0.7,2.4,0.8c0,2-0.2,2.2,0.4,2.1v0.2
	c-0.4,0.2-1,0.2-1-0.4c-1.1,1.1-2.6,0.3-2.1-0.8c0.4-0.8,2.1-0.5,2.1-1.1C221,95.4,219.9,95.4,219.1,96.1z M238.4,97.1
	c-0.6,0.2-1.5,0.2-1.5,1c0,0.7,0.9,1,1.5,0.2L238.4,97.1z M236.5,96.1v-0.4c0.7-0.6,2.4-0.7,2.4,0.8c0,2-0.2,2.2,0.4,2.1v0.2
	c-0.4,0.2-1,0.2-1-0.4c-1.1,1.1-2.6,0.3-2.1-0.8c0.4-0.8,2.1-0.5,2.1-1.1C238.4,95.4,237.2,95.4,236.5,96.1z M91.7,97.1
	c-0.6,0.2-1.5,0.2-1.5,1c0,0.7,0.9,1,1.5,0.2L91.7,97.1z M89.9,96.1v-0.4c0.7-0.6,2.4-0.7,2.4,0.8c0,2-0.2,2.2,0.4,2.1v0.2
	c-0.4,0.2-1,0.2-1-0.4c-1.1,1.1-2.6,0.3-2.1-0.8c0.4-0.8,2.1-0.5,2.1-1.1C91.7,95.4,90.6,95.4,89.9,96.1z M77.6,94.1
	c0-0.5,0.7-0.5,0.7,0C78.4,94.6,77.6,94.6,77.6,94.1z M147.6,98.9c-0.2,0-0.5,0-0.7,0c0.1-1.2,0.1-2.4,0-3.6c0.3,0.1,0.5,0.1,0.7,0
	C147.5,96.4,147.5,97.6,147.6,98.9z M146.9,94.1c0-0.5,0.7-0.5,0.7,0C147.6,94.6,146.9,94.6,146.9,94.1z M198,98.9
	c-0.2,0-0.5,0-0.7,0c0.1-1.2,0.1-2.4,0-3.6c0.3,0.1,0.5,0.1,0.7,0C197.9,96.4,197.9,97.6,198,98.9z M197.2,94.1c0-0.5,0.7-0.5,0.7,0
	C198,94.6,197.2,94.6,197.2,94.1z M141.3,98.9c-0.2,0-0.5,0-0.7,0c0.1-1.2,0.1-2.4,0-3.6c0.3,0.1,0.5,0.1,0.7,0
	C141.3,96.4,141.3,97.6,141.3,98.9z M140.6,94.1c0-0.5,0.7-0.5,0.7,0C141.4,94.6,140.6,94.6,140.6,94.1z M234.5,98.9
	c-0.2,0-0.5,0-0.7,0c0.1-1.2,0.1-2.4,0-3.6c0.3,0.1,0.5,0.1,0.7,0C234.5,96.4,234.5,97.6,234.5,98.9z M233.8,94.1
	c0-0.5,0.7-0.5,0.7,0C234.6,94.6,233.8,94.6,233.8,94.1z M80.6,97.1c0,2.1,2.3,2.1,2.3,0C82.9,95,80.6,95,80.6,97.1z M79.9,97.1
	c0-2.4,3.6-2.4,3.6,0C83.6,99.6,79.9,99.6,79.9,97.1z M155,95.9c0.5-0.9,1.9-0.8,2.3,0c0.3,0.6,0,1.6,0.1,2.9c-0.2,0-0.4,0-0.6,0
	c0-0.7,0.1-1.3,0.1-2.1c0-1.5-1.3-1.2-1.5-0.8c-0.3,0.4-0.3,1.1-0.2,2.9c-0.2,0-0.4,0-0.7,0c0.1-1.1,0.1-2.4,0-3.5
	c0.3,0.1,0.4,0.1,0.6,0C155,95.6,155,95.8,155,95.9z M187.6,98.2c-0.5,0.9-1.9,0.8-2.3,0c-0.3-0.6,0-1.6-0.1-2.9c0.2,0,0.4,0,0.6,0
	c0,0.7-0.1,1.3-0.1,2.1c0,1.5,1.3,1.2,1.5,0.8c0.3-0.4,0.3-1.1,0.2-2.9c0.2,0,0.4,0,0.7,0c-0.1,1.1-0.1,2.4,0,3.5
	c-0.3-0.1-0.4-0.1-0.6,0C187.6,98.7,187.6,98.4,187.6,98.2z M149.9,97.1c0,2.1,2.3,2.1,2.3,0C152.2,95,149.9,95,149.9,97.1z
	 M149.2,97.1c0-2.4,3.6-2.4,3.6,0C152.8,99.6,149.2,99.6,149.2,97.1z M171.6,95.9c0.5-0.9,1.9-0.9,2.3,0c0.3,0.6,0,1.6,0.1,2.9
	c-0.2,0-0.4,0-0.6,0c0-0.7,0.1-1.3,0.1-2.1c0-1.5-1.3-1.2-1.5-0.8c-0.3,0.4-0.3,1.2-0.2,2.9c-0.2,0-0.4,0-0.7,0
	c0.1-1.1,0.1-2.4,0-3.6c0.3,0.1,0.4,0.1,0.6,0C171.6,95.6,171.6,95.7,171.6,95.9z M205.3,95.9c0.5-0.9,1.9-0.9,2.3,0
	c0.3,0.6,0,1.6,0.1,2.9c-0.2,0-0.4,0-0.6,0c0-0.7,0.1-1.3,0.1-2.1c0-1.5-1.3-1.2-1.5-0.8c-0.3,0.4-0.3,1.2-0.2,2.9
	c-0.2,0-0.4,0-0.7,0c0.1-1.1,0.1-2.4,0-3.6c0.3,0.1,0.4,0.1,0.6,0C205.3,95.6,205.3,95.7,205.3,95.9z M166.6,97.1
	c0,2.1,2.3,2.1,2.3,0C168.9,95,166.6,95,166.6,97.1z M165.9,97.1c0-2.4,3.6-2.4,3.6,0C169.5,99.6,165.9,99.6,165.9,97.1z
	 M200.3,97.1c0,2.1,2.3,2.1,2.3,0C202.5,95,200.3,95,200.3,97.1z M199.6,97.1c0-2.4,3.6-2.4,3.6,0C203.2,99.6,199.6,99.6,199.6,97.1
	z M98.5,97v0.5h-1.9V97H98.5z M102.5,99.7c0-0.7-0.4-0.8-1.1-0.8c-0.6,0-1.2,0.1-1.2,0.8C100.2,101,102.5,100.9,102.5,99.7z
	 M102.1,96.5c0-1.3-1.6-1.2-1.6,0.1C100.5,97.9,102.1,97.8,102.1,96.5z M100.5,98.8c-0.7-0.2-0.6-1.1,0.1-1.2
	c-1.2-0.4-1-2.3,0.6-2.3c0.6,0,1.3,0.1,1.8,0c0,0.1,0,0.2,0,0.3c-0.3,0-0.8-0.1-0.8-0.1c0.7,0.4,0.8,2.1-0.8,2.1
	c-0.2,0-0.8-0.1-0.8,0.3c0,0.4,0.2,0.4,1.2,0.4c2.2,0,1.5,2.4-0.4,2.4C99.4,100.9,99.4,99.2,100.5,98.8z M112.3,97.2
	c0,2.1,2.1,1.9,2.1-0.2C114.4,95.1,112.3,95.1,112.3,97.2z M114.4,98.2c-0.6,1.2-2.8,1.1-2.8-1c0-2.2,2.3-2.3,2.8-1.2v-2.8
	c0.2,0.1,0.4,0.1,0.7,0c-0.1,1.9-0.1,3.7-0.1,5.6c-0.2,0-0.4,0-0.6,0L114.4,98.2z M126.4,97.1c0-2.1-2.1-1.9-2.1,0.2
	C124.2,99.2,126.4,99.2,126.4,97.1z M124.2,96.1c0.6-1.2,2.8-1.1,2.8,1c0,2.2-2.3,2.3-2.8,1.2v2.7c-0.2-0.1-0.4-0.1-0.7,0
	c0.1-1.9,0.1-3.6,0.1-5.5c0.2,0,0.4,0,0.6,0L124.2,96.1z M135.9,97.1c0-1.8,1.9-2.3,3.1-1.5c-0.1,0.1-0.2,0.5-0.2,0.5
	c-0.6-1-2.2-0.8-2.2,1c0,1.8,1.5,1.9,2.4,1c0,0-0.1,0.3-0.1,0.4C137.8,99.4,135.9,99,135.9,97.1z M161.6,97.1c0-1.8,1.9-2.3,3.1-1.5
	c-0.1,0.1-0.2,0.5-0.2,0.5c-0.6-1-2.2-0.8-2.2,1c0,1.8,1.5,1.9,2.4,1c0,0-0.1,0.3-0.1,0.4C163.6,99.4,161.6,99,161.6,97.1z
	 M189.8,97.1c0-1.8,1.9-2.3,3.1-1.5c-0.1,0.1-0.2,0.5-0.2,0.5c-0.6-1-2.2-0.8-2.2,1c0,1.8,1.5,1.9,2.4,1c0,0-0.1,0.3-0.1,0.4
	C191.8,99.4,189.8,99,189.8,97.1z M143.1,98.2c0.3,0.6,1.6,0.8,1.6-0.2c0-0.8-1.8-0.4-1.8-1.6c0-1.1,1.2-1.4,2.1-0.9
	c-0.1,0.1-0.2,0.4-0.2,0.5c-0.5-0.7-1.4-0.5-1.4,0.2c0,0.8,1.8,0.3,1.8,1.5c0,1-1,1.6-2.3,1C143,98.6,143.1,98.3,143.1,98.2z
	 M175.7,98.2c0.3,0.6,1.6,0.8,1.6-0.2c0-0.8-1.8-0.4-1.8-1.6c0-1.1,1.2-1.4,2.1-0.9c-0.1,0.1-0.2,0.4-0.2,0.5
	c-0.5-0.7-1.4-0.5-1.4,0.2c0,0.8,1.8,0.3,1.8,1.5c0,1-1,1.6-2.3,1C175.6,98.6,175.7,98.3,175.7,98.2z M243.4,98.2
	c0.3,0.6,1.6,0.8,1.6-0.2c0-0.8-1.8-0.4-1.8-1.6c0-1.1,1.2-1.4,2.1-0.9c-0.1,0.1-0.2,0.4-0.2,0.5c-0.5-0.7-1.4-0.5-1.4,0.2
	c0,0.8,1.8,0.3,1.8,1.5c0,1-1,1.6-2.3,1C243.3,98.6,243.4,98.3,243.4,98.2z M215,96c0.2-0.5,0.7-0.7,1.3-0.7c1.7,0,0.8,2.1,1.1,3.6
	c-0.2,0-0.4,0-0.6,0c0.2-2.7,0.2-3.2-0.7-3.2c-0.9,0-1.1,0.5-0.9,3.2c-0.2,0-0.4,0-0.6,0c0.2-2.7,0.1-3.2-0.7-3.2
	c-1.1,0-1,1.1-0.9,3.2c-0.2,0-0.4,0-0.7,0c0.1-1.2,0.1-2.4,0-3.6c0.3,0.1,0.4,0.1,0.6,0c0,0.2,0,0.4,0,0.6C213.3,95,214.7,95,215,96
	z M247.2,98.5c0-0.1,0.1-0.2,0.1-0.3c0.1-0.1,0.2-0.1,0.3-0.1c0.1,0,0.2,0.1,0.3,0.1c0.1,0.1,0.1,0.2,0.1,0.3c0,0.1-0.1,0.2-0.1,0.3
	c-0.1,0.1-0.2,0.1-0.3,0.1c-0.1,0-0.2-0.1-0.3-0.1C247.2,98.8,247.2,98.7,247.2,98.5z"/>
<linearGradient id="SVGID_1_" gradientUnits="userSpaceOnUse" x1="148.7503" y1="73.0805" x2="148.7503" y2="97.401" gradientTransform="matrix(1 0 0 -1 0 102)">
	<stop  offset="0" style="stop-color:#FFFFFF;stop-opacity:0.4"/>
	<stop  offset="0.6631" style="stop-color:#FFFFFF"/>
</linearGradient>
<path class="st1" d="M81,6V5.7h13.1v3.5h-0.2c0-1.9-1.3-2.8-3.7-2.8h-4.6v10.2h4.1c1.6,0,3.1-0.3,3.2-2.2h0.2v5.1h-0.2
	c-0.2-1.7-1.6-2.3-3-2.2h-4.2v8c0,1.3,0.3,2.2,1.9,2.2c2.8,0,6.3,0.7,7.2-2.8h0.2l-0.8,3.5H81V28c1.3,0.1,2.4-0.9,2.4-2.5v-17
	C83.4,7.1,82.6,5.8,81,6z M96.7,28c1.4,0.1,2.4-1,2.4-2.5v-17c0-1.7-0.9-2.5-2.4-2.5V5.8h7.1V6c-1.5,0.1-2.4,0.8-2.4,2.5V25
	c0,1,0.3,1.6,0.7,2c0.7,0.7,3.1,0.6,4.3,0.6c2.3,0.1,3.3-0.9,4.1-3h0.3l-0.8,3.7H96.7V28z M112,6V5.7h13.1v3.5h-0.2
	c0-1.9-1.3-2.8-3.7-2.8h-4.6v10.2h4.1c1.6,0,3.1-0.3,3.2-2.2h0.2v5.1h-0.2c-0.2-1.7-1.6-2.3-3-2.2h-4.2v8c0,1.3,0.3,2.2,1.9,2.2
	c2.8,0,6.3,0.7,7.2-2.8h0.2l-0.8,3.5H112V28c1.3,0.1,2.4-0.9,2.4-2.5v-17C114.4,7.1,113.6,5.8,112,6z M147.8,10.4h-0.3
	c-1.4-5.4-9.4-5.8-13.3-2.6c-4.7,3.5-4.3,13.1-1.1,17.2c1.7,2.8,7.4,3.8,10.8,2.8c1.3-0.4,1.5-0.9,1.6-2.2v-4.1
	c0-1.9-0.8-2.3-2.5-2.6v-0.3h7.2v0.3c-1.7,0.1-2.5,1-2.4,2.7v6.3c-24,6.7-25.4-22.4-7.6-22.8c2,0,2.8,0.3,5.1,0.7
	c1,0.2,1.7,0.4,2.2-0.6h0.3L147.8,10.4L147.8,10.4z M161.7,5.4l6.6,19.3c0.7,1.8,1.1,3.1,3,3.3v0.3H164V28c2.3,0.1,2.7-0.9,2-2.9
	l-2-6h-7.6l-1.8,5.5c-0.6,1.7-0.7,3.5,1.4,3.4v0.3h-5.2V28c1.8-0.2,2.3-1.4,2.9-3.1l6.3-19.4C160.1,5.4,161.7,5.4,161.7,5.4z
	 M156.7,18.3h7l-3.6-10.7h0L156.7,18.3z M195.5,5.7V6c-1.9,0.1-2.4,1.2-2.4,3.1v19.7H193L176.1,9.5v13.8c0.1,2.3-0.3,4.5,2.5,4.6
	v0.3H173v-0.3c2.5-0.1,2.3-2.3,2.4-4.6V8.6c-1.2-1.4-2.1-2.5-3.8-2.7V5.6h4.1l16.7,19.1V10.2c0-2.3,0.1-4.2-2.5-4.3V5.7H195.5z
	 M216.5,10.1h-0.3c-0.2-2.8-1.6-3.4-4-3.5h-4.4v18.9c0,1.6,0.8,2.4,2.4,2.5v0.3h-7V28c1.5-0.1,2.4-0.8,2.4-2.5V6.6h-4.4
	c-2.4,0.1-3.8,0.7-4,3.5H197V4.6h0.3c0.5,1,1.4,1.1,2.5,1.1H214c0.9,0,1.7-0.4,2.2-1.1h0.3V10.1z"/>
</svg>
