<svg width="660" height="64" viewBox="0 0 660 64" fill="none" xmlns="http://www.w3.org/2000/svg">
<g clip-path="url(#clip0_6_218)">
<path d="M273.63 61.15L299.96 0.76001H305.56L331.55 61.15H326.4L317.89 41.8H287.2L278.69 61.15H273.65H273.63ZM316.2 37.93L302.53 5.44001L288.53 37.93H316.2Z" fill="#E6E6E6"/>
<path d="M339.61 61.1501V17.7701H344.09V27.5501C345.36 24.4301 347.23 21.8801 349.69 19.9101C352.23 18.0101 354.92 17.0601 357.76 17.0601H360.34V21.7401C360.12 21.7401 359.85 21.6701 359.56 21.5401C359.34 21.4001 359.19 21.3401 359.11 21.3401C355.6 21.3401 352.43 22.7001 349.59 25.4101C346.75 28.1301 344.92 31.5601 344.1 35.7001V61.1601H339.62L339.61 61.1501Z" fill="#E6E6E6"/>
<path d="M371.54 56.16C367.13 51.54 364.93 45.98 364.93 39.46C364.93 32.94 367.13 27.61 371.54 23.06C375.95 18.51 381.29 16.24 387.56 16.24C392.71 16.24 397.12 17.63 400.78 20.42C404.44 23.27 406.27 26.67 406.27 30.6H401.79C401.79 27.75 400.41 25.31 397.65 23.27C394.89 21.23 391.52 20.21 387.57 20.21C382.57 20.21 378.27 22.08 374.69 25.81C371.18 29.61 369.43 34.16 369.43 39.46C369.43 44.76 371.18 49.54 374.69 53.41C378.27 57.28 382.57 59.21 387.57 59.21C391.45 59.21 394.74 58.16 397.43 56.05C400.19 53.95 401.58 51.43 401.58 48.51H406.28C406.28 52.52 404.45 55.94 400.79 58.8C397.13 61.65 392.72 63.08 387.57 63.08C381.3 63.08 375.96 60.77 371.55 56.15L371.54 56.16Z" fill="#E6E6E6"/>
<path d="M416.01 61.15V0.76001H420.49V25.92C421.98 23 424.22 20.66 427.21 18.89C430.12 17.13 433.3 16.24 436.73 16.24C441.21 16.24 445.06 17.77 448.27 20.82C451.48 23.81 453.09 27.44 453.09 31.72V61.15H448.61V32.53C448.61 29 447.45 26.01 445.14 23.57C442.82 21.06 440.02 19.8 436.74 19.8C433.08 19.8 429.76 21.02 426.77 23.47C423.71 25.85 421.62 28.97 420.5 32.84V61.15H416.02H416.01Z" fill="#E6E6E6"/>
<path d="M466.64 0.76001H471.12V6.98001H466.64V0.76001ZM466.64 61.15V17.77H471.12V61.15H466.64Z" fill="#E6E6E6"/>
<path d="M488.48 59.93C486.76 58.17 485.9 55.99 485.9 53.41V20.93H479.07V17.77H485.9V5.44995H490.38V17.77H496.88V20.93H490.38V53.41C490.38 55.11 490.87 56.57 491.84 57.79C492.74 59.01 493.86 59.6199 495.2 59.6199C496.62 59.6199 497.78 59.38 498.67 58.91V61.86C497.03 62.4 495.76 62.6699 494.86 62.6699C492.4 62.6699 490.27 61.75 488.47 59.9199L488.48 59.93Z" fill="#E6E6E6"/>
<path d="M509.54 56.37C505.66 52.09 503.71 46.46 503.71 39.46C503.71 32.46 505.65 26.83 509.54 22.56C513.42 18.35 518.58 16.25 525 16.25C531.42 16.25 536.57 18.18 540.46 22.05C544.34 25.92 546.28 31.08 546.28 37.53V39.47H508.19C508.19 45.38 509.72 50.1 512.78 53.63C515.84 57.16 519.91 58.92 524.99 58.92C528.8 58.92 532.23 58 535.3 56.17C538.44 54.27 540.6 51.79 541.8 48.74H546.28C545.53 52.75 543.14 56.07 539.11 58.72C535.08 61.37 530.37 62.69 525 62.69C518.58 62.69 513.42 60.59 509.54 56.38V56.37ZM541.8 35.59V34.06C541.43 30.05 539.63 26.66 536.42 23.88C533.13 21.17 529.32 19.81 524.99 19.81C520.66 19.81 516.89 21.2 513.68 23.98C510.39 26.83 508.56 30.33 508.19 34.47V35.59H541.8Z" fill="#E6E6E6"/>
<path d="M560.17 56.16C555.76 51.54 553.56 45.98 553.56 39.46C553.56 32.94 555.76 27.61 560.17 23.06C564.58 18.51 569.92 16.24 576.19 16.24C581.34 16.24 585.75 17.63 589.41 20.42C593.07 23.27 594.9 26.67 594.9 30.6H590.42C590.42 27.75 589.04 25.31 586.28 23.27C583.52 21.23 580.15 20.21 576.2 20.21C571.2 20.21 566.9 22.08 563.32 25.81C559.81 29.61 558.06 34.16 558.06 39.46C558.06 44.76 559.81 49.54 563.32 53.41C566.9 57.28 571.2 59.21 576.2 59.21C580.08 59.21 583.37 58.16 586.06 56.05C588.82 53.95 590.21 51.43 590.21 48.51H594.91C594.91 52.52 593.08 55.94 589.42 58.8C585.76 61.65 581.35 63.08 576.2 63.08C569.93 63.08 564.59 60.77 560.18 56.15L560.17 56.16Z" fill="#E6E6E6"/>
<path d="M607.67 59.93C605.95 58.17 605.09 55.99 605.09 53.41V20.93H598.26V17.77H605.09V5.44995H609.57V17.77H616.07V20.93H609.57V53.41C609.57 55.11 610.05 56.57 611.03 57.79C611.93 59.01 613.05 59.6199 614.39 59.6199C615.81 59.6199 616.97 59.38 617.86 58.91V61.86C616.22 62.4 614.95 62.6699 614.05 62.6699C611.59 62.6699 609.46 61.75 607.66 59.9199L607.67 59.93Z" fill="#E6E6E6"/>
<path d="M627.27 58.1999C623.69 55.4899 621.89 52.1899 621.89 48.3199H626.03C626.03 51.2399 627.41 53.7499 630.18 55.8599C632.94 57.8999 636.27 58.9199 640.15 58.9199C644.63 58.9199 648.25 57.9999 651.02 56.1699C653.71 54.2699 655.05 51.7899 655.05 48.7399C655.05 46.4299 653.63 44.4599 650.79 42.8299C647.95 41.2699 644.14 40.2799 639.36 39.8799C634.28 39.4699 630.25 38.1799 627.26 36.0099C624.2 33.8399 622.67 31.1599 622.67 27.9699C622.67 24.3699 624.2 21.5899 627.26 19.6199C630.32 17.6499 634.61 16.6699 640.14 16.6699C645.67 16.6699 649.66 17.7199 652.8 19.8299C656.01 21.9399 657.62 24.7499 657.62 28.2799H653.36C652.84 25.6299 651.42 23.5599 649.1 22.0699C646.78 20.5799 643.8 19.8299 640.14 19.8299C636.11 19.8299 632.9 20.5799 630.51 22.0699C628.12 23.5599 626.93 25.5299 626.93 27.9799C626.93 30.2899 628.39 32.2599 631.3 33.8899C634.14 35.4499 637.95 36.4399 642.73 36.8399C647.73 37.2499 651.77 38.6099 654.83 40.9099C657.82 43.2199 659.31 46.0999 659.31 49.5699C659.31 53.4399 657.55 56.5299 654.04 58.8399C650.6 61.1499 645.97 62.2999 640.15 62.2999C635.07 62.2999 630.78 60.9399 627.27 58.2299V58.1999Z" fill="#E6E6E6"/>
<path d="M117.18 42.35H113.14L113.06 42.65C110.23 52.94 101.66 58.61 88.9201 58.61C72.1301 58.61 60.8501 47.58 60.8501 31.15C60.8501 14.72 72.3201 3.61 88.7501 3.61C101.64 3.61 110.21 9.31 112.89 19.65L112.97 19.96H117L116.89 19.46C114.17 7.28 103.66 0 88.7501 0C69.9501 0 56.8201 12.81 56.8201 31.15C56.8201 49.49 69.7201 62.3 88.9101 62.3C103.7 62.3 113.95 55.21 117.04 42.85L117.17 42.34L117.18 42.35Z" fill="#E6E6E6"/>
<path d="M181.03 31.2401C181.03 12.0901 168.92 1.1001 147.8 1.1001H126.17V61.2001H148.3C169.1 61.2001 181.03 50.2801 181.03 31.2301M131.35 57.5001L130.05 56.2101V6.0101L131.35 4.7201H147.3C166.49 4.7201 177.06 14.1401 177.06 31.2401C177.06 48.3401 166.67 57.5101 147.8 57.5101H131.35V57.5001Z" fill="#E6E6E6"/>
<path d="M193.61 46.1101H231.93L233.1 46.8401L240.37 61.2101H244.94L214.42 1.1001H211.03L181.03 61.2001H185.25L192.45 46.8201L193.61 46.1001V46.1101ZM209.19 12.8001L212.73 5.8901L212.79 6.0001C213.95 8.2501 215.12 10.6001 216.18 12.8001L229.99 40.6301L228.83 42.5101H196.69L195.52 40.6401L209.19 12.8101V12.8001Z" fill="#E6E6E6"/>
<path d="M33.74 29.23L20.79 26.94C10.63 25.29 6.49 22.14 6.49 16.08C6.49 8.51 13.97 3.62 25.56 3.62C37.15 3.62 44.79 9.46 45.51 17.82L45.54 18.19H49.47L49.43 17.75C48.58 7.13 38.98 0 25.55 0C12.12 0 2.71 6.76 2.71 16.08C2.71 23.99 8.4 28.95 19.61 30.8L32.4 33C42.68 34.74 47.27 38.32 47.27 44.62C47.27 54.93 36.59 58.61 26.59 58.61C11.37 58.61 5.15 50.32 4.35 42.42H0.5C1.56 54.69 11.55 62.3 26.67 62.3C41.79 62.3 51.12 55.19 51.12 44.61C51.12 36.41 45.11 31.09 33.74 29.22" fill="#E6E6E6"/>
</g>
<defs>
<clipPath id="clip0_6_218">
<rect width="658.81" height="63.09" fill="white" transform="translate(0.5)"/>
</clipPath>
</defs>
</svg>
