<svg xmlns="http://www.w3.org/2000/svg" width="442.736" height="427.9" viewBox="0 0 442.736 427.9"><g transform="translate(4380.507 -1561.334)"><circle cx="66.183" cy="66.183" r="66.183" transform="translate(-4259 1658.466) rotate(-45)" fill="#fff" opacity="0.45"/><text transform="translate(-4221 1647.416)" fill="#1b485b" font-size="18.152" font-family="NotoSerifCJKtc-Bold, Noto Serif CJK TC" font-weight="700"><tspan x="0" y="0">生技產業中心</tspan></text><text transform="translate(-4166 1669.518)" fill="#1b485b" font-size="14.852" font-family="Noto Serif CJK TC" font-weight="600"><tspan x="-44.555" y="0">台北生技園區</tspan><tspan x="-35.161" y="21.452">500億產值</tspan></text><circle cx="66.183" cy="66.183" r="66.183" transform="translate(-4259.125 1658.466) rotate(-45)" fill="none" stroke="#fff" stroke-miterlimit="10" stroke-width="5"/><circle cx="66.183" cy="66.183" r="66.183" transform="translate(-4128 1756.437) rotate(-45)" fill="#fff" opacity="0.45"/><text transform="translate(-4035 1767.488)" fill="#1b485b" font-size="14.852" font-family="Noto Serif CJK TC" font-weight="600"><tspan x="-51.98" y="0">港展覽館，全台</tspan><tspan x="-46.003" y="21.452">最大4571展攤</tspan><tspan x="0" y="42.904"></tspan></text><text transform="translate(-4072 1745.386)" fill="#1b485b" font-size="18.152" font-family="NotoSerifCJKtc-Bold, Noto Serif CJK TC" font-weight="700"><tspan x="0" y="0">會展中心</tspan></text><circle cx="66.183" cy="66.183" r="66.183" transform="translate(-4128.5 1756.437) rotate(-45)" fill="none" stroke="#fff" stroke-miterlimit="10" stroke-width="5"/><circle cx="66.183" cy="66.183" r="66.183" transform="translate(-4160.5 1955.815) rotate(-76.717)" fill="none" stroke="#fff" stroke-miterlimit="10" stroke-width="5"/><circle cx="66.183" cy="66.183" r="66.183" transform="translate(-4161 1955.815) rotate(-76.717)" fill="#fff" opacity="0.45"/><text transform="translate(-4137 1895.558)" fill="#1b485b" font-size="18.152" font-family="NotoSerifCJKtc-Bold, Noto Serif CJK TC" font-weight="700"><tspan x="0" y="0">文創產業中心</tspan></text><text transform="translate(-4082 1917.661)" fill="#1b485b" font-size="14.852" font-family="Noto Serif CJK TC" font-weight="600"><tspan x="-30.238" y="0">8.92公頃</tspan><tspan x="-59.406" y="21.452">台北流行音樂中心</tspan></text><circle cx="66.183" cy="66.183" r="66.183" transform="matrix(0.23, -0.973, 0.973, 0.23, -4378, 1805.643)" fill="#fff" opacity="0.45"/><text transform="translate(-4355 1745.386)" fill="#1b485b" font-size="18.152" font-family="NotoSerifCJKtc-Bold, Noto Serif CJK TC" font-weight="700"><tspan x="0" y="0">交通轉運中心 </tspan></text><text transform="translate(-4298 1767.488)" fill="#1b485b" font-size="14.852" font-family="Noto Serif CJK TC" font-weight="600"><tspan x="-14.852" y="0">五鐵</tspan><tspan x="-37.129" y="21.452">南港大車站</tspan></text><circle cx="66.183" cy="66.183" r="66.183" transform="matrix(0.23, -0.973, 0.973, 0.23, -4377.5, 1805.643)" fill="none" stroke="#fff" stroke-miterlimit="10" stroke-width="5"/><circle cx="66.183" cy="66.183" r="66.183" transform="translate(-4329 1955.815) rotate(-76.717)" fill="#fff" opacity="0.45"/><circle cx="66.183" cy="66.183" r="66.183" transform="translate(-4329.5 1955.815) rotate(-76.717)" fill="none" stroke="#fff" stroke-miterlimit="10" stroke-width="5"/><text transform="translate(-4305 1895.558)" fill="#1b485b" font-size="18.152" font-family="NotoSerifCJKtc-Bold, Noto Serif CJK TC" font-weight="700"><tspan x="0" y="0">軟體產業中心</tspan></text><text transform="translate(-4250 1917.661)" fill="#1b485b" font-size="14.852" font-family="Noto Serif CJK TC" font-weight="600"><tspan x="-44.555" y="0">南港軟體園區</tspan><tspan x="-59.406" y="21.452">千億產值亞洲第一</tspan></text></g></svg>