<svg xmlns="http://www.w3.org/2000/svg" width="300.758" height="208.259" viewBox="0 0 300.758 208.259">
  <g id="Group_2017" data-name="Group 2017" transform="translate(-36.813 -1730.237)">
    <g id="Group_19" data-name="Group 19" transform="translate(-3045.919 -0.053)">
      <path id="Path_228" data-name="Path 228" d="M3085.912,1820.714v1.11h-1.38v-6.6h4.95v-2.85h1.44v2.85h4.995v6.509h-1.38v-1.02h-3.615v5.685h-1.44v-5.685Zm3.57-4.739h-3.57v4.019h3.57Zm5.055,0h-3.615v4.019h3.615Z" fill="#4d4d4d"/>
      <path id="Path_229" data-name="Path 229" d="M3112.236,1824.659l-1.035,1.68a8.184,8.184,0,0,1-5.609-5.879c-.66,2.624-2.43,4.859-6.779,5.984l-.21-.51c3.614-1.3,5.024-3.42,5.579-5.579h-5.565v-.676h1.965v-4.694h3.945v-2.61h1.411v2.61h3.869v4.694h2.009v.676h-5.625C3107.5,1823.144,3109.552,1824.119,3112.236,1824.659Zm-7.919-4.98a16.109,16.109,0,0,0,.21-3v-1.019H3101.9v4.019Zm1.621-4.019v1.335a15.7,15.7,0,0,1-.2,2.684h2.744v-4.019Z" fill="#4d4d4d"/>
      <path id="Path_230" data-name="Path 230" d="M3116.213,1816.679a10.848,10.848,0,0,1-2.16,2.97l-.375-.375a17.963,17.963,0,0,0,2.564-6.944l1.44.345-.27.96a15.675,15.675,0,0,1,2.625,2.925v-.96h1.875c.106-.51.195-1.155.255-1.635h-3.12v-.675h7.516v.675h-2.986a17.011,17.011,0,0,1-.945,1.635h3.09v7.514h-5.685v-6.284l-1.05.72a22.911,22.911,0,0,0-1.785-3.255c-.21.585-.42,1.155-.675,1.695a8.946,8.946,0,0,1,1.95,2.235l-1.155.7A14.36,14.36,0,0,0,3116.213,1816.679Zm2.324,8.445-1.14.825a21.711,21.711,0,0,0-2.535-3.72l.33-.39a15.346,15.346,0,0,1,1.74,1.41,18.874,18.874,0,0,0,1.08-3.12h-3.494v-.675h3.434l.361-.254,1.289.615a13.583,13.583,0,0,1-2.219,3.884A10.311,10.311,0,0,1,3118.537,1825.124Zm3.029-1.815,1.2.855a13.655,13.655,0,0,1-4.59,2.355l-.211-.495A11.12,11.12,0,0,0,3121.566,1823.309Zm-.269-5.519h3.135v-1.515H3121.3Zm0,2.264h3.135v-1.59H3121.3Zm0,2.385h3.135v-1.709H3121.3Zm5.73,2.79-.916,1.215a26.087,26.087,0,0,0-3.074-2.61l.255-.48A15.568,15.568,0,0,1,3127.027,1825.229Z" fill="#4d4d4d"/>
      <path id="Path_231" data-name="Path 231" d="M3128.647,1823.909v-.675h5.865v-1.14h-3.975v-4.769h3.975v-1.035h-3.855v-.675h3.855v-1.5h1.381v1.5h3.914v.675h-3.914v1.035h3.914v4.769h-3.914v1.14h5.923v.675h-5.923v2.475h-1.381v-2.475Zm12.884-10.8v3.135h-1.319v-2.46h-10.034v2.46h-1.321v-3.135Zm-7.019,4.89h-2.655v1.335h2.655Zm0,1.964h-2.655v1.455h2.655Zm3.974-1.964h-2.593v1.335h2.593Zm0,1.964h-2.593v1.455h2.593Z" fill="#4d4d4d"/>
      <path id="Path_232" data-name="Path 232" d="M3148.9,1821.914a2.967,2.967,0,0,0,1.906-2.4,1.539,1.539,0,0,1-.511.075,1.133,1.133,0,0,1-1.2-1.2,1.145,1.145,0,0,1,1.215-1.2c.916,0,1.515.555,1.515,1.679a3.446,3.446,0,0,1-2.61,3.465Z" fill="#4d4d4d"/>
      <path id="Path_233" data-name="Path 233" d="M3158.633,1819.649l-.256-.464a15.057,15.057,0,0,0,6.165-6.945l1.59.735a5.243,5.243,0,0,1-.316.585,15.142,15.142,0,0,0,6.436,4.065l-.975,1.694c-1.5-.525-4.3-2.894-5.82-5.189A16.3,16.3,0,0,1,3158.633,1819.649Zm7.514,5.4h5.145v.675h-12.165v-.675h2.37V1819h1.32v6.045h1.951v-8.459h1.379v3.644h3.555v.675h-3.555Z" fill="#4d4d4d"/>
      <path id="Path_234" data-name="Path 234" d="M3187.117,1824.194l-.765,1.545a11.573,11.573,0,0,1-5.49-3.06l.015,3.645h-1.32v-3.465a12.756,12.756,0,0,1-5.94,2.88l-.179-.51a12.661,12.661,0,0,0,5.189-3.135h-4.754v-.675h5.684v-1.05h-4.2v-.645h4.2v-.96h-5.039v-.674h3.689c-.359-.586-.81-1.2-1.215-1.74l.165-.195H3174.1v-.675h2.309c-.3-.6-.795-1.575-1.274-2.415l.434-.345a11.41,11.41,0,0,1,2.07,2.115l-.959.645h1.649v-3.15h1.29v3.15h1.321v-3.15h1.289v3.15h.451a13.865,13.865,0,0,0,1.079-2.82l1.41.69a13.221,13.221,0,0,1-1.74,2.13h3v.675h-4.111l1.006.48a9.6,9.6,0,0,1-1.47,1.455h4.2v.674h-5.22v.96h4.4v.645h-4.379v1.05h5.774v.675h-5.415A14.493,14.493,0,0,0,3187.117,1824.194Zm-7.59-6.584-.585.48h2.1a13.277,13.277,0,0,0,.81-1.935h-4.125A9.663,9.663,0,0,1,3179.527,1817.61Z" fill="#4d4d4d"/>
      <path id="Path_235" data-name="Path 235" d="M3194.452,1823.114a30.4,30.4,0,0,1-5.534,2.325l-.5-1.485c.225-.03.48-.06.75-.12V1819.2h1.17v4.424c.225-.06.465-.1.705-.165v-6.03h-1.785v-4.439h4.59v4.439h-1.514v2.22h1.994v.676h-1.994v2.834c.7-.18,1.379-.375,1.92-.555Zm-3.96-6.359h2.13v-3.09h-2.13Zm11.535,7.829-1.11,1.545c-1.245-.825-3.36-2.715-3.931-7.244h-1v5.009c.72-.165,1.411-.345,2.04-.54l.2.48a20.088,20.088,0,0,1-4.8,1.995l-.479-1.425c.554-.06,1.154-.15,1.754-.255V1812.93h5.88v5.955h-3.045a8.833,8.833,0,0,0,1.095,2.849,9.139,9.139,0,0,0,1.5-2.264l1.26.855a12.106,12.106,0,0,1-2.444,1.859A8.392,8.392,0,0,0,3202.027,1824.584Zm-6.045-9.074h3.3V1813.6h-3.3Zm0,2.7h3.3v-2.025h-3.3Z" fill="#4d4d4d"/>
      <path id="Path_236" data-name="Path 236" d="M3217.162,1824.179l-.54,1.485c-1.6.105-4.08.15-5.9.075-3.075-.12-3.93-.825-4.559-1.995a11.077,11.077,0,0,1-1.83,2.67l-.916-.93a10.47,10.47,0,0,0,2.041-1.95v-3.524h-1.816v-.675h3.1v4.169c.825,1.23,2.715,1.05,4.051,1.05A60.673,60.673,0,0,0,3217.162,1824.179Zm-13.26-8.339.286-.465a11.152,11.152,0,0,1,2.759,1.8l-.96,1.065A21.393,21.393,0,0,0,3203.9,1815.84Zm.721-2.925.27-.435a10.759,10.759,0,0,1,2.759,1.665l-.945,1.065A21.969,21.969,0,0,0,3204.623,1812.915Zm2.4,5.5a17.018,17.018,0,0,0,2.355-6.134l1.4.39a12.1,12.1,0,0,1-.84,2.31h2.685a19.505,19.505,0,0,0-1.051-2.325l.452-.33a8.3,8.3,0,0,1,1.888,2.19l-.795.465h3.166v.675h-2.685v1.71h2.415v.674h-2.415v1.785h2.415v.675h-2.415v2.025h2.984v.675h-6.659v.81H3208.6v-6.659a8.463,8.463,0,0,1-1.186,1.439Zm5.281-2.759h-2.386v1.71h2.386Zm0,2.384h-2.386v1.785h2.386Zm0,2.46h-2.386v2.025h2.386Z" fill="#4d4d4d"/>
      <path id="Path_237" data-name="Path 237" d="M3225.232,1825.739a1.058,1.058,0,1,1,0-2.115,1.06,1.06,0,0,1,1.065,1.065A1.047,1.047,0,0,1,3225.232,1825.739Zm-.509-3.255-.375-8.909h1.754l-.405,8.909Z" fill="#4d4d4d"/>
      <path id="Path_238" data-name="Path 238" d="M3240.907,1815.045v1.65h5.115v8.144c0,1.515-1.29,2.01-3.706.51l.151-.525c1.875.45,2.205.315,2.205-.435v-7.019h-8.744v8.924h-1.351v-9.6h4.935v-1.65h-5.865v-.675h5.865v-1.95h1.41v1.95h5.939v.675Zm3.329,7.754h-3.314v3h-1.32v-3h-3.209v-.675h3.209v-1.47h-3.03v-.674h1.965a11.413,11.413,0,0,0-1.2-2.145l.4-.36a9.474,9.474,0,0,1,2.04,1.995l-.764.51h1.74a13.683,13.683,0,0,0,1.019-2.551l1.38.676a16.069,16.069,0,0,1-1.7,1.875h2.58v.674h-3.12v1.47h3.314Z" fill="#4d4d4d"/>
      <path id="Path_239" data-name="Path 239" d="M3252.457,1818.915v7.469h-1.289v-6.525a12.975,12.975,0,0,1-2.4,3.735l-.375-.345a18.321,18.321,0,0,0,2.519-6.09h-2.25v-.674h2.506v-2.175c-.826.15-1.636.255-2.326.315l-.1-.51a14.791,14.791,0,0,0,4.785-1.875l1.065,1.17a17.114,17.114,0,0,1-2.13.63v2.445h2.13v.674h-2.13v.885a16.1,16.1,0,0,1,2.325,2.01l-1.065.99C3253.417,1820.46,3252.922,1819.649,3252.457,1818.915Zm7.44,2.535v4.784h-1.32v-4.485c-1.6.36-3.225.72-4.83,1.05l-.225-.675c1.68-.345,3.375-.705,5.055-1.08v-8.594h1.32v8.294c.615-.149,1.246-.284,1.86-.435l.181.661C3261.262,1821.134,3260.572,1821.3,3259.9,1821.45Zm-4.965-3.93a10.8,10.8,0,0,1,2.759,2.234l-1.138,1.005a23.726,23.726,0,0,0-2-2.85Zm1.965-.705a27.722,27.722,0,0,0-2.1-2.61l.33-.4a11.149,11.149,0,0,1,2.79,2.01Z" fill="#4d4d4d"/>
      <path id="Path_240" data-name="Path 240" d="M3270.8,1819.8a5.413,5.413,0,0,0-.66.046v-1.035c1.665-.12,2.73-1.11,2.835-2.145.09-.945-.615-1.47-1.755-1.47a3.934,3.934,0,0,0-2.491.945v-1.23a6.254,6.254,0,0,1,2.746-.585c2.355,0,3.135,1.5,3.03,2.415-.135,1.23-1.4,1.994-2.385,2.355v.09a2.948,2.948,0,0,1,2.865,2.489c.119,1.4-.81,3.225-3.39,3.51a8.286,8.286,0,0,1-3.03-.24l-.09-.69a9.385,9.385,0,0,0,2.775.09,2.358,2.358,0,0,0,2.16-2.58C3273.445,1820.519,3272.035,1819.77,3270.8,1819.8Z" fill="#4d4d4d"/>
      <path id="Path_241" data-name="Path 241" d="M3284.321,1822.454l1.4.78a13.112,13.112,0,0,1-3.361,3.165l-.36-.405A13.109,13.109,0,0,0,3284.321,1822.454Zm5.146-.21h-7.32v-.675h1.425v-6.284h-1.26v-.675h1.26v-2.145h1.289v2.145h2.04v-2.145h1.29v2.145h1.215v.675h-1.215v6.284h1.276Zm-2.566-6.959h-2.04v1.545h2.04Zm0,2.19h-2.04v1.65h2.04Zm0,2.3h-2.04v1.8h2.04Zm2,4.559-1.036.9a21.54,21.54,0,0,0-1.74-2.385l.36-.405A11.3,11.3,0,0,1,3288.9,1824.329Zm5.714-11.189v11.774c0,1.35-1.214,1.95-3.734.42l.164-.51c2.055.48,2.25.36,2.25-.42v-3.674h-2.115a7.317,7.317,0,0,1-2.76,5.684l-.375-.4c1.846-1.92,1.905-4.485,1.905-8.264v-4.6Zm-1.32,6.914v-2.864h-2.025v.314c0,.885,0,1.74-.045,2.55Zm-2.025-6.239v2.7h2.025v-2.7Z" fill="#4d4d4d"/>
      <path id="Path_242" data-name="Path 242" d="M3307.648,1820.024l-.074-.03a2.6,2.6,0,0,1-2.22,1.321,3.157,3.157,0,0,1-3.255-3.24,3.671,3.671,0,0,1,3.69-3.75c2.19,0,3.435,1.62,3.435,4.3,0,4.17-2.281,6.21-6.18,6.585l-.136-.69C3306.074,1823.969,3307.379,1822.244,3307.648,1820.024Zm-.06-1.139a2.716,2.716,0,0,0,.121-.75c0-1.485-.51-2.955-2.025-2.955-1.29,0-2.026,1.32-2.026,2.8a2.045,2.045,0,0,0,2.041,2.25A1.937,1.937,0,0,0,3307.588,1818.885Z" fill="#4d4d4d"/>
      <path id="Path_243" data-name="Path 243" d="M3317.713,1817.385c0,1.964-1.409,3.389-3.869,5.654l-.99.915v.09h5.1v.99h-7v-.8l1.185-1.035c2.519-2.2,4.019-4.065,4.019-5.654a2.193,2.193,0,0,0-2.19-2.355,4.209,4.209,0,0,0-2.67,1.11v-1.23a6.9,6.9,0,0,1,2.926-.75A3.218,3.218,0,0,1,3317.713,1817.385Z" fill="#4d4d4d"/>
      <path id="Path_244" data-name="Path 244" d="M3325.066,1820.94l-.314-.45a13.651,13.651,0,0,0,3.975-7.215l1.589.63A14.372,14.372,0,0,1,3325.066,1820.94Zm12.27,4.3-1.606.87c-.253-.69-.6-1.44-.974-2.22a41.775,41.775,0,0,1-8.205,1.68l-.51-1.755c.57.015,1.2.015,1.86,0a23.98,23.98,0,0,0,2.579-6.254l1.711.66a23.933,23.933,0,0,1-3.45,5.579,55.839,55.839,0,0,0,5.73-.48c-.405-.795-.869-1.575-1.35-2.34l.45-.375A21.128,21.128,0,0,1,3337.336,1825.244Zm-3.856-11.294h-2.414v-.675h2.97a7.686,7.686,0,0,0,4.4,5.864l-1.23,1.7A9.916,9.916,0,0,1,3333.48,1813.95Z" fill="#4d4d4d"/>
      <path id="Path_245" data-name="Path 245" d="M3345.5,1821.6a25.086,25.086,0,0,1-5.084,2.73l-.57-1.5c.345-.06.764-.165,1.244-.285v-9.6h1.381v4.185h2.715v.674h-2.715v4.335c1.093-.36,2.189-.75,2.8-1.005Zm2.115,1.68,1.23.915a15.946,15.946,0,0,1-5.114,2.31l-.211-.51A14.229,14.229,0,0,0,3347.611,1823.279Zm.69-9.329h-3.494v-.675h8.279v.675H3349.8a18.718,18.718,0,0,1-1.08,1.8h3.6v7.334h-6.584v-7.334h2.31C3348.15,1815.195,3348.256,1814.46,3348.3,1813.95Zm2.67,2.475h-3.914v1.5h3.914Zm0,2.174h-3.914v1.6h3.914Zm0,2.28h-3.914v1.53h3.914Zm2.58,4.245-.87,1.3a36.948,36.948,0,0,0-3.39-2.565l.225-.495A17.872,17.872,0,0,1,3353.551,1825.124Z" fill="#4d4d4d"/>
      <path id="Path_246" data-name="Path 246" d="M3357.991,1820.19v4.829c0,1.47-1.425,1.725-2.954.375l.209-.495c1.26.36,1.516.3,1.516-.405v-3.69a11.811,11.811,0,0,1-1.321.511l-.525-1.381a17.524,17.524,0,0,0,1.846-.375v-3.284h-1.62v-.675h1.62v-3.135h1.229v3.135h1.425v.675h-1.425v2.939c.406-.135.765-.285,1.08-.42l.271.466A9.069,9.069,0,0,1,3357.991,1820.19Zm2.97-1c-.164,3.074-.84,5.294-2.34,7.124l-.434-.33c1.335-1.92,1.485-4.98,1.485-8.55v-3.479h4.619a12.11,12.11,0,0,0-2.01-1.185l.165-.51a11.762,11.762,0,0,1,2.9.9l-.48.795h3.254v.675h-7.124v1.305h1.275v-.96h1.2v.96h1.8v-.96h1.2v.96h1.636v.675h-1.636v1.379h-4.2V1816.6h-1.275v1.08c0,.285,0,.555-.014.825h7.229v.675Zm2.025,4.649,1.125.675a9.615,9.615,0,0,1-4.17,1.86l-.179-.465A7.316,7.316,0,0,0,3362.986,1823.834Zm-1.65-.165v-3.87h6.33v3.87Zm1.2-2.295h1.364v-.93h-1.364Zm0,1.695h1.364v-1.095h-1.364Zm.93-5.7h1.8v-.765h-1.8Zm5.011,7.934-.811,1.035a16.624,16.624,0,0,0-2.8-1.995l.255-.48A13.351,13.351,0,0,1,3368.477,1825.3Zm-3.436-3.93h1.425v-.93h-1.425Zm0,1.695h1.425v-1.095h-1.425Z" fill="#4d4d4d"/>
      <path id="Path_247" data-name="Path 247" d="M3383.355,1824.389l-.509,1.59c-2.655.18-5.94.21-7.7-.33a5.7,5.7,0,0,1-2.594-1.59,8.672,8.672,0,0,1-2.43,2.415l-.33-.435a8.169,8.169,0,0,0,2.114-2.79,8.714,8.714,0,0,1-1.2-3.269l.525-.151a8.028,8.028,0,0,0,1.065,2.52,16.438,16.438,0,0,0,.871-3.974h-1.306a7.918,7.918,0,0,1-.645,1.034l-1.065-.449a35.229,35.229,0,0,0,2.4-4.875h-2.475v-.645h4.139a39.339,39.339,0,0,1-1.98,4.26h.9l.24-.24,1.185.449a13.878,13.878,0,0,1-1.515,5.325,5.1,5.1,0,0,0,1.68,1.02C3376.682,1824.989,3380.445,1824.734,3383.355,1824.389Zm-5.684-8.129h-3.284v-.645h3.284v-1.2h-2.579v-.675h2.579v-1.335h1.29v1.335h2.925v1.875h1.216v.645h-1.216v2.024h-2.925v1.186h3.061v.675h-3.061v1.394h3.75v.675h-3.75v1.98h-1.29v-1.98h-3.3v-.675h3.3v-1.394h-2.76v-.675h2.76v-1.186h-2.655v-.674h2.655Zm1.29-.645h1.74v-1.2h-1.74Zm0,1.995h1.74v-1.35h-1.74Z" fill="#4d4d4d"/>
      <path id="Path_248" data-name="Path 248" d="M3085.9,1846.825c-.09,3.284-.525,5.729-1.995,7.259l-.4-.345c1.065-1.995,1.094-3.72,1.094-8.34v-3.749l1.185.33a14.9,14.9,0,0,0,3.675-1.62l1.005,1.26a23.774,23.774,0,0,1-4.545.93v1.035h4.425v3.24Zm.015-2.565v1.889h3.195v-1.889Zm4.455,8.234h-3v1.32h-1.2v-5.58h4.2Zm-1.2-3.585h-1.8v2.91h1.8Zm7.89,4.095-.869,1.335a8.546,8.546,0,0,1-2.747-2.79,10.468,10.468,0,0,1-3.763,2.82l-.3-.42a9.979,9.979,0,0,0,3.51-3.525,14.6,14.6,0,0,1-.93-4.62,9.42,9.42,0,0,1-1.275,1.861l-.42-.33c.975-1.6,1.515-3.69,1.7-6.87l1.4.225a18.848,18.848,0,0,1-.6,3.045h4.035v.675h-1.08a13.866,13.866,0,0,1-1.545,6.1A8.371,8.371,0,0,0,3097.057,1853Zm-3.616-3.72a14.767,14.767,0,0,0,.961-4.874h-1.86a2.348,2.348,0,0,1-.1.285A13.494,13.494,0,0,0,3093.441,1849.284Z" fill="#4d4d4d"/>
      <path id="Path_249" data-name="Path 249" d="M3105.994,1852.134a30.065,30.065,0,0,1-7.019,1.74l-.33-1.38c1.08-.06,2.16-.135,3.21-.255v-1.275h-2.986v-.675h2.986v-1.125h-2.581v-4.485h2.581v-1h-3.24V1843h3.24v-.96c-.976.1-1.965.165-2.941.18l-.059-.54a22.176,22.176,0,0,0,6.014-1.44l1.035,1.11a21.958,21.958,0,0,1-2.73.54V1843h3.121v.675h-3.121v1l2.6.046v4.439h-2.6v1.125h2.746v.675h-2.746v1.11c.945-.12,1.846-.285,2.67-.465Zm-5.459-5.58h1.32v-1.2h-1.32Zm1.32,1.936v-1.26h-1.32v1.26Zm1.319-3.135v1.2h1.365v-1.2Zm1.365,1.875h-1.365v1.26h1.365Zm6.78-3.285a59.569,59.569,0,0,1-.525,8.819c-.284,1.14-1.53,1.755-3.659.21l.194-.51c1.755.45,2.07.435,2.22-.435a58.458,58.458,0,0,0,.391-7.409h-1.276c-.09,3.959-.644,7.664-3.689,9.779l-.33-.435c2.219-2.07,2.625-5.625,2.684-9.344h-1.319v-.675h1.319c0-1.185-.014-2.37-.014-3.525h1.349c0,1.17.016,2.355.016,3.525Z" fill="#4d4d4d"/>
      <path id="Path_250" data-name="Path 250" d="M3119.041,1849.914a2.966,2.966,0,0,0,1.906-2.4,1.534,1.534,0,0,1-.51.075,1.133,1.133,0,0,1-1.2-1.2,1.145,1.145,0,0,1,1.215-1.2c.916,0,1.516.555,1.516,1.679a3.447,3.447,0,0,1-2.611,3.465Z" fill="#4d4d4d"/>
      <path id="Path_251" data-name="Path 251" d="M3136.124,1852.959h5.475v.825h-12.27v-.825h5.355v-2.7h-3.81v-.75h3.81v-2.444h-3.241v-.42a14.867,14.867,0,0,1-2.654,1.214l-.224-.51a11.848,11.848,0,0,0,5.7-5.4h-3.375l-.015-.75h5.22c.57,1.875,2.91,3.975,6.255,4.83l-1.066,1.635a13.138,13.138,0,0,1-1.889-1.006v.406h-3.27v2.444h3.855v.75h-3.855Zm2.88-6.57a9.406,9.406,0,0,1-3.24-4.229,10.534,10.534,0,0,1-3.9,4.215Z" fill="#4d4d4d"/>
      <path id="Path_252" data-name="Path 252" d="M3149.141,1849.059a24.058,24.058,0,0,1-4.77,2.97l-.66-1.5c.735-.2,1.41-.405,2.056-.63v-3.645h-1.755v-.674h1.755v-3.135h-1.951v-.675h5.311v.675h-2.07v3.135h1.634v.674h-1.634v3.165c.615-.255,1.2-.525,1.8-.824Zm6.87,3.885c-.989-1.05-2.475-3.39-2.64-8.834h-.346v8.879c0,1.4-1.423,1.875-3.7.285l.18-.51c1.979.54,2.205.33,2.205-.36v-3.36a19.635,19.635,0,0,1-3.165,3.12l-.885-1.32a21.432,21.432,0,0,0,4.05-2.7v-4.035h-3.284v-.675h3.284v-3.06h1.319v3.06H3157v.675h-3.075a18.037,18.037,0,0,0,.42,2.805,14.762,14.762,0,0,0,1.349-2.055l1.186.885a12.513,12.513,0,0,1-2.356,1.86,7.652,7.652,0,0,0,2.791,3.914Zm-5.985-4.694c-.315-1.111-.735-2.25-1.11-3.2l.436-.254a12.083,12.083,0,0,1,1.934,2.8Zm5.43-5.115c-.465-.66-1.2-1.53-1.8-2.22l.33-.405a9.333,9.333,0,0,1,2.446,1.65Z" fill="#4d4d4d"/>
      <path id="Path_253" data-name="Path 253" d="M3158.994,1849.674v-.825h5.864v-2.174h-4.769v-.78h4.769v-5.475h1.441v5.475h4.739v.78H3166.3v2.174h5.894v.825H3166.3v4.68h-1.441v-4.68Zm1.289-8.159.406-.375a18.19,18.19,0,0,1,3.18,3.539l-1.365.9A33.344,33.344,0,0,0,3160.283,1841.515Zm9.045-.48,1.5.795a18.342,18.342,0,0,1-3.314,3.6l-.406-.359A23.575,23.575,0,0,0,3169.328,1841.035Z" fill="#4d4d4d"/>
      <path id="Path_254" data-name="Path 254" d="M3184.445,1850.214h2.865v.675h-2.865v1.89c0,1.6-1.365,2.34-3.75.495l.18-.465c2.086.645,2.281.405,2.281-.495v-1.425h-8.94v-.675h8.94v-.915c-.586,0-1.11-.03-1.68-.06-.736-.045-3.18-.269-4.35-1.739a7.836,7.836,0,0,1-1.875,2.2l-.705-.84a9.759,9.759,0,0,0,1.905-1.65v-1.92H3174.7v-.659h3.045v2.639c.511.51,1.471.871,3.24.946a46.581,46.581,0,0,0,6.391-.361l-.33,1.3c-1.051.06-1.891.105-2.6.12Zm-8.069-5.984a22.99,22.99,0,0,0-1.53-1.74l.315-.435a13.322,13.322,0,0,1,2.024,1.245Zm-.99-3.51.285-.45a9.355,9.355,0,0,1,2.145,1.26l-.794.93A23.153,23.153,0,0,0,3175.386,1840.72Zm2.011,10.409a9.639,9.639,0,0,1,2.489,1.425l-.826,1.035a22.153,22.153,0,0,0-1.949-1.995Zm4.3-8.519h-3.631v-.63h2.941a15.266,15.266,0,0,0-1.275-1.3l.3-.435a7.586,7.586,0,0,1,2.176,1.095l-.54.645h1.6a7.792,7.792,0,0,0,.616-1.725l1.41.525a8.178,8.178,0,0,1-1.186,1.2h3.031v.63h-4.26a6.461,6.461,0,0,1-.511.675h3.646v4.169h-6.961v-4.169h2.536C3181.641,1843.06,3181.671,1842.835,3181.7,1842.61Zm3.09,1.305h-4.5v.585h4.5Zm0,1.125h-4.5v.615h4.5Zm0,1.155h-4.5v.615h4.5Z" fill="#4d4d4d"/>
      <path id="Path_255" data-name="Path 255" d="M3194.148,1847.349v5.715c0,1.26-1.08,1.635-2.52.615l.12-.48c1.245.27,1.275.045,1.275-.51v-1.755h-1.8v3.435h-1.14v-7.02l-.915.03v-2.46h.825v-3.944h4.111v3.944h.764v2.43Zm-3.87-1.754v.975h3.51v-.975Zm.795-.676h.585v-2.189h1.365v-1.08h-1.95Zm.135,3.525h1.815v-1.2h-1.815Zm1.815,1.89v-1.29h-1.815v1.29Zm-.554-7v1.589h.554v-1.589Zm9.869,9.809v.675h-7.755v-.675h2.28a18.882,18.882,0,0,0-.81-1.905l.405-.285a7.979,7.979,0,0,1,1.56,1.86l-.6.33h1.755a9.49,9.49,0,0,0,.735-2.175l1.215.51a13.077,13.077,0,0,1-1.23,1.665Zm-.21-5.655h-7.065v-.674h7.065Zm-.375-1.454h-6.48v-4.2h1.875v-1.41h.93v1.41h.8v-1.41h.93v1.41h1.95Zm-6.239,4.709v-2.475h5.984v2.475Zm.869-7.2h.765v-1.065h-.765Zm0,1.845h.765v-1.215h-.765Zm.36,4.724h3.5v-1.215h-3.5Zm1.335-7.634v1.065h.8v-1.065Zm0,1.7v1.215h.8v-1.215Zm2.535-1.7h-.81v1.065h.81Zm0,1.7h-.81v1.215h.81Z" fill="#4d4d4d"/>
      <path id="Path_256" data-name="Path 256" d="M3208.65,1844.995h2.13v.66H3204.3v-.66h1.92a11.737,11.737,0,0,0-.75-1.86l.33-.21a9.082,9.082,0,0,1,1.455,1.725l-.691.345h1.47a11.792,11.792,0,0,0,.555-2.2h-4.065v-.66h3a9.162,9.162,0,0,0-1.29-1.56l.241-.33a7.892,7.892,0,0,1,2.1,1.245l-.63.645h2.475v.66h-1.4l.8.285A15.362,15.362,0,0,1,3208.65,1844.995Zm-3.585,1.529h5.115v6.36c0,1.3-1.334,2.025-2.94.48l.18-.45c1.14.45,1.5.345,1.5-.33v-1.695l-2.58.015v3.3h-1.275Zm1.26.661.015,1.214h2.58v-1.214Zm2.595,1.829h-2.58v1.26h2.58Zm7.14,4.86a27.093,27.093,0,0,1-3.12,0c-1.4-.075-1.665-.525-1.665-1.665v-6.494h3.81v-1.365h-3.84v-3.9h1.261v1.305h4.529v.675h-4.529v1.26h3.809v2.685h-3.809v.944h3.84v.645h-3.84v.945h3.84v.645h-3.84v1.005h3.885v.645h-3.885v.78c0,.495.029.8.689.84a20.476,20.476,0,0,0,2.715,0c.8-.06.915-.405.84-1.83h.525C3217.859,1852.839,3217.665,1853.784,3216.06,1853.874Z" fill="#4d4d4d"/>
      <path id="Path_257" data-name="Path 257" d="M3225.672,1851.564a30.562,30.562,0,0,1-6.074,2.28l-.465-1.455c.96-.1,2.2-.33,3.4-.585a25.615,25.615,0,0,0,.856-3.854l1.394.359a22.857,22.857,0,0,1-1.424,3.315c.809-.2,1.559-.39,2.115-.57Zm-.3-9.6h-6v-.675h6Zm-.465,5.61h-5.01v-3.945h5.01Zm-4.89.734.495-.21a10.06,10.06,0,0,1,1.649,3.27l-1.305.42A23.519,23.519,0,0,0,3220.018,1848.309Zm3.629-4h-2.489v2.594h2.489Zm3.916,7.034,1.2.855a13.389,13.389,0,0,1-4.844,2.325l-.211-.495A11.27,11.27,0,0,0,3227.563,1851.339Zm.66-9.629h-2.611v-.675h6.7v.675h-2.61a17.713,17.713,0,0,1-1.064,1.785h3v7.619h-5.686v-7.619h2.025C3228.088,1842.94,3228.178,1842.2,3228.223,1841.71Zm2.13,2.46h-3.1v1.575h3.1Zm0,2.249h-3.1v1.65h3.1Zm0,2.325h-3.1v1.695h3.1Zm2.46,4.485-.916,1.215a30.125,30.125,0,0,0-2.834-2.625l.254-.48A15.865,15.865,0,0,1,3232.813,1853.229Z" fill="#4d4d4d"/>
      <path id="Path_258" data-name="Path 258" d="M3247.194,1846.585l-1.364.929c-.3-.6-.66-1.26-1.08-1.949a91.166,91.166,0,0,1-9.42,1.35l-.435-1.65c.69.029,1.38.045,2.085.045a22.109,22.109,0,0,0,2.82-5.025l1.559.75a26.532,26.532,0,0,1-3.494,4.275c2.4-.016,4.77-.165,6.539-.315-.479-.735-1-1.515-1.6-2.31l.434-.375A22.949,22.949,0,0,1,3247.194,1846.585Zm-10.678,1.544h8.894v6.195H3244v-1.11h-6.075v1.095h-1.409Zm1.409,4.4H3244v-3.72h-6.075Z" fill="#4d4d4d"/>
      <path id="Path_259" data-name="Path 259" d="M3252.967,1847.095v7.3h-1.289v-6.389a11.705,11.705,0,0,1-2.026,3.4l-.42-.345a18.328,18.328,0,0,0,2.25-5.819h-2.025v-.675h2.221v-2.325c-.705.15-1.4.27-2.041.36l-.1-.51a12.142,12.142,0,0,0,4.156-1.77l1.244.975a18.829,18.829,0,0,1-1.965.63v2.64h1.77v.33h3.044v-.96h-2.624v-.675h2.624v-.9h-3.013v-.675h3.013v-1.32h1.321v1.32h3.165v.675H3259.1v.9h2.745v.675H3259.1v.96h3.464v.675h-8.144v-.33h-1.455v.915a11,11,0,0,1,1.875,1.874l-1.005.825C3253.6,1848.325,3253.3,1847.71,3252.967,1847.095Zm4.125,4.709,1.2.78a12.952,12.952,0,0,1-4.515,1.95l-.2-.465A10.481,10.481,0,0,0,3257.092,1851.8Zm-1.935-.12v-5.265h6.615v5.265Zm1.29-3.734h4.035v-.855h-4.035Zm0,1.469h4.035v-.87h-4.035Zm0,1.59h4.035v-.99h-4.035Zm6.51,2.265-.735,1.2a24.873,24.873,0,0,0-3.406-2.16l.181-.465A15.583,15.583,0,0,1,3262.957,1853.274Z" fill="#4d4d4d"/>
      <path id="Path_260" data-name="Path 260" d="M3266.239,1845.8h-1.259v-3.089h5.415v-1.02h-4.576v-.675h10.56v.675h-4.664v1.02h5.519v3.089h-1.32v-2.414h-4.2v3.554h-1.32v-3.554h-4.156Zm9.795,8.07c-1.17.03-2.264.03-3.434,0-1.965-.045-2.25-.51-2.25-1.845v-.645h-2.91v.99h-1.26v-5.025h9.689v4.725h-1.29v-.69h-2.909v.66c0,.48.149.675,1.094.72,1.08.045,2.1.045,3.18,0,.736-.03,1.05-.36,1.02-2.49h.54C3278.074,1852.554,3278.134,1853.814,3276.034,1853.874Zm-6.165-9.029h-3.059l-.031-.63h3.09Zm-3.09.975h3.09v.63h-3.059Zm.661,2.265v.99h2.91v-.99Zm2.91,2.684v-1.035h-2.91v1.035Zm4.229-2.684h-2.909v.99h2.909Zm0,2.684v-1.035h-2.909v1.035Zm.765-5.924h-3.1l-.03-.63h3.135Zm-3.135.959h3.18v.631h-3.15Z" fill="#4d4d4d"/>
      <path id="Path_261" data-name="Path 261" d="M3291.8,1841.335v11.414c0,1.6-1.74,2.085-4.2.555l.165-.525c2.205.51,2.625.36,2.625-.585V1842.01h-8.475v12.284h-1.41v-12.959Zm-2,2.31v.675h-7.229v-.675Zm-.914,2.445v5.114h-1.321v-.975h-2.955v1.185h-1.32v-5.324Zm-1.321.674h-2.955v2.79h2.955Z" fill="#4d4d4d"/>
      <path id="Path_262" data-name="Path 262" d="M3294.809,1851.369l-.27-.465a10.908,10.908,0,0,0,3.555-4.245l1.349.75A11.5,11.5,0,0,1,3294.809,1851.369Zm13.049-5.894v.674h-5.46v3.225c0,1.77-2.279,1.245-3.583.405l.149-.51c1.785.375,2.056.165,2.056-.45l.013-2.67h-6.374v-.674h2.82v-4.05h1.32v4.05h2.2v-5.07h1.38v2.34h4.095v.645h-4.095v2.085Zm-2.819,1.785,1.425.644c-1.816,3.69-4.935,6-11.355,6.495l-.12-.54C3300.7,1853.079,3303.449,1850.784,3305.039,1847.26Z" fill="#4d4d4d"/>
      <path id="Path_263" data-name="Path 263" d="M3313.5,1843.36h3.061a63.686,63.686,0,0,1-.511,9.239c-.284,1.305-1.68,1.92-3.96.075l.211-.495c2.024.6,2.25.6,2.43-.48a58.41,58.41,0,0,0,.344-7.664h-1.6c-.166,4.619-.811,8.129-3.6,10.379l-.375-.39c2.085-2.34,2.46-5.865,2.535-9.989h-2.219v-.675h2.234c.016-.945.016-1.905.016-2.9h1.469C3313.526,1841.47,3313.512,1842.43,3313.5,1843.36Zm8.8-.735v10.829h-1.35v-1.365h-2.1v1.545h-1.321v-11.009Zm-1.35.675h-2.1v8.114h2.1Z" fill="#4d4d4d"/>
      <path id="Path_264" data-name="Path 264" d="M3338.273,1852.209l-.375,1.515a60.9,60.9,0,0,1-6.134.1c-2.295-.135-3.151-.465-4.215-2.2a14.248,14.248,0,0,1-2.145,2.79l-.855-.885a10.6,10.6,0,0,0,2.265-2.085v-3.375H3324.7v-.69h3.434v3.945c.886,1.23,1.74,1.26,3.7,1.305A46.383,46.383,0,0,0,3338.273,1852.209Zm-11.144-5.85c-.495-.659-1.41-1.724-2.04-2.384l.3-.45a13.988,13.988,0,0,1,2.715,1.725Zm-1.561-5.534.286-.45a12.3,12.3,0,0,1,2.759,1.65l-.96,1.095A19.752,19.752,0,0,0,3325.568,1840.825Zm6.465,6.435h-2.5v-3.33h3.031v-1.185h-3.526v-.675h3.526v-1.635h1.32v1.635h3.734v.675h-3.734v1.185h3.1v3.33h-3.1v.419a17.814,17.814,0,0,1,3.853,2.19l-.959,1.245a22.322,22.322,0,0,0-2.894-2.685v3.585h-1.32v-3.585a10.811,10.811,0,0,1-3.63,2.97l-.3-.48A11.522,11.522,0,0,0,3332.033,1847.26Zm-1.215-.675h1.741v-1.98h-1.741Zm3.061,0h1.814v-1.98h-1.814Z" fill="#4d4d4d"/>
      <path id="Path_265" data-name="Path 265" d="M3343.115,1848.355v4.574c0,1.305-1.064,1.89-3.329.435l.149-.495c1.576.375,1.891.285,1.891-.42v-3.374c-.541.269-1.051.51-1.5.719l-.615-1.29c.675-.179,1.41-.389,2.115-.615V1844.4h-1.95v-.675h1.95v-3.27h1.289v3.27h1.74v.675h-1.74v3.029a12.918,12.918,0,0,0,1.215-.525l.3.45A14.147,14.147,0,0,1,3343.115,1848.355Zm9.151,5.894a8.543,8.543,0,0,1-3.975-1.89,11.12,11.12,0,0,1-4.77,1.995l-.15-.51a10.815,10.815,0,0,0,4.2-2.25,9.461,9.461,0,0,1-1.8-3.824h-.961v-.661l5.175-.014.3-.226,1.365.631a9.848,9.848,0,0,1-2.415,4.034,10.406,10.406,0,0,0,3.885,1.125Zm-6.5-12.974h4.559v2.985c0,.585.075.764.976.78a1.592,1.592,0,0,0,1.17-.375l.629,1.02a1.937,1.937,0,0,1-1.47.555c-2.2,0-2.594-.15-2.594-1.7v-2.594h-1.965c.029,2.58-.541,4.064-2.61,4.83l-.271-.5C3345.591,1845.355,3345.785,1844.275,3345.771,1841.275Zm.539,6.495a7.4,7.4,0,0,0,1.981,3.1,8.476,8.476,0,0,0,1.739-3.1Z" fill="#4d4d4d"/>
      <path id="Path_266" data-name="Path 266" d="M3359.822,1851.864l1.366.87a19.78,19.78,0,0,1-6.014,1.815l-.166-.525A14.542,14.542,0,0,0,3359.822,1851.864Zm-3.9-5.144-.8-1.095a20.4,20.4,0,0,0,3.24-2.46l.39.33A17.1,17.1,0,0,1,3355.924,1846.72Zm2.084-3.84c-.99-.72-1.755-1.275-2.459-1.695l.18-.51a11,11,0,0,1,3.044,1.005Zm-1.065,3.39,9.315.014v5.445h-9.315Zm1.321,1.6h6.674v-.931h-6.674Zm0,1.514h6.674v-.885h-6.674Zm0,1.665h6.674v-1.035h-6.674Zm.884-6.884-.36-.375a8.1,8.1,0,0,0,1.771-3.555l1.289.345a7.956,7.956,0,0,1-.36.885h4.485l.255-.21,1.3.735a7.1,7.1,0,0,1-2.145,2.025l-.39-.33a6.8,6.8,0,0,0,.9-1.59h-1.951a7.417,7.417,0,0,1-.343,1.065,5.63,5.63,0,0,0,4.423,1.785l-.719,1.4a5.6,5.6,0,0,1-4.05-2.67,6.05,6.05,0,0,1-4.665,2.43l-.15-.51c2.34-.555,3.525-1.695,4-3.495h-1.319A7.415,7.415,0,0,1,3359.148,1844.17Zm3.045,7.769a24.042,24.042,0,0,1,5.625,1.23l-.736,1.335a41.36,41.36,0,0,0-5.023-2.04Z" fill="#4d4d4d"/>
      <path id="Path_267" data-name="Path 267" d="M3375.27,1849.914a2.968,2.968,0,0,0,1.906-2.4,1.539,1.539,0,0,1-.511.075,1.133,1.133,0,0,1-1.2-1.2,1.145,1.145,0,0,1,1.215-1.2c.916,0,1.515.555,1.515,1.679a3.446,3.446,0,0,1-2.61,3.465Z" fill="#4d4d4d"/>
      <path id="Path_268" data-name="Path 268" d="M3088.657,1875.62a14.026,14.026,0,0,1-1.71.93v4.44c0,1.3-1.335,1.784-3.3.434l.15-.495c1.575.375,1.891.285,1.891-.419v-3.39c-.616.255-1.215.48-1.755.66l-.511-1.44c.7-.1,1.485-.255,2.266-.435v-3.495h-2.01v-.675h2.01v-3.315h1.259v3.315h1.62v.675h-1.62v3.18c.526-.15,1.05-.3,1.516-.48Zm8.31,4.874v.691h-6.435v1.184h-1.35v-8.744a12.92,12.92,0,0,1-1.185,1.26l-.375-.39a15.29,15.29,0,0,0,2.476-6.15l1.514.435a25.018,25.018,0,0,1-1.049,2.67h2.58a29.029,29.029,0,0,0-1.111-2.715l.45-.3a11.719,11.719,0,0,1,2.025,2.49l-.9.525h3.15v.675h-2.819v2.175h2.294v.675h-2.294v2.22h2.294v.675h-2.294v2.624Zm-4.35-8.369h-2.085v2.175h2.085Zm0,2.85h-2.085v2.22h2.085Zm0,2.9h-2.085v2.624h2.085Z" fill="#4d4d4d"/>
      <path id="Path_269" data-name="Path 269" d="M3111.874,1874.21v.825h-3.405v7.334h-1.41v-7.334h-3.344c-.18,3.795-1.606,6.12-4.606,7.439l-.285-.51c2.611-1.71,3.271-3.764,3.436-6.929h-3.346v-.825h3.36v-3.06a21.769,21.769,0,0,1-3.149.75l-.135-.555a16.56,16.56,0,0,0,5.9-2.91l1.484.975a17.32,17.32,0,0,1-2.639,1.245v3.555h3.329v-5.685h1.41v5.685Z" fill="#4d4d4d"/>
      <path id="Path_270" data-name="Path 270" d="M3121.052,1871.045v1.65h5.114v8.144c0,1.516-1.289,2.01-3.705.51l.15-.524c1.875.449,2.2.314,2.2-.436v-7.019h-8.744v8.924h-1.35v-9.6h4.934v-1.65h-5.864v-.675h5.864v-1.95h1.41v1.95h5.94v.675Zm3.329,7.755h-3.315v3h-1.32v-3h-3.209v-.675h3.209v-1.47h-3.029v-.675h1.965a11.446,11.446,0,0,0-1.2-2.145l.405-.36a9.519,9.519,0,0,1,2.04,1.995l-.765.51h1.74a13.769,13.769,0,0,0,1.02-2.55l1.38.675a16.073,16.073,0,0,1-1.7,1.875h2.581v.675h-3.121v1.47h3.315Z" fill="#4d4d4d"/>
      <path id="Path_271" data-name="Path 271" d="M3132.674,1874.915v7.469h-1.289v-6.524a12.954,12.954,0,0,1-2.4,3.735l-.375-.345a18.31,18.31,0,0,0,2.52-6.09h-2.25v-.675h2.506v-2.175c-.826.15-1.636.255-2.326.315l-.1-.51a14.778,14.778,0,0,0,4.784-1.875l1.066,1.17a17.114,17.114,0,0,1-2.13.63v2.445h2.13v.675h-2.13v.885a16.038,16.038,0,0,1,2.325,2.01l-1.065.99C3133.634,1876.46,3133.139,1875.65,3132.674,1874.915Zm7.439,2.535v4.784h-1.319v-4.484c-1.6.36-3.226.72-4.83,1.05l-.226-.675c1.681-.345,3.375-.7,5.056-1.08v-8.6h1.319v8.3c.616-.15,1.246-.285,1.861-.435l.18.66C3141.479,1877.135,3140.789,1877.3,3140.113,1877.45Zm-4.965-3.93a10.79,10.79,0,0,1,2.76,2.235l-1.138,1.005a23.777,23.777,0,0,0-2-2.85Zm1.965-.705a27.522,27.522,0,0,0-2.1-2.61l.33-.4a11.153,11.153,0,0,1,2.79,2.01Z" fill="#4d4d4d"/>
      <path id="Path_272" data-name="Path 272" d="M3148.676,1879.82h-2.4v1.319h-1.229v-4.709a11.462,11.462,0,0,1-.961,1.395l-.42-.345a17.635,17.635,0,0,0,1.981-7.11h-1.666v-.7h5.4v.7h-2.475a14.482,14.482,0,0,1-.75,3.585h2.52Zm-1.23-5.22h-1.17v4.545h1.17Zm9.93,6.255-.75,1.529a7.659,7.659,0,0,1-3.405-2.265,10.854,10.854,0,0,1-4.08,2.355l-.225-.48a11.214,11.214,0,0,0,3.689-2.684,9.009,9.009,0,0,1-1.394-3.96h-.359c-.076,2.7-.542,5.085-2.9,7.005l-.375-.391c1.875-2.16,1.966-4.364,1.966-7.334v-3.975l1.2.285h1.74v-2.475h1.321v2.475h1.619l.346-.3,1.319.66a9.667,9.667,0,0,1-1.65,2.43l-.48-.255a11.524,11.524,0,0,0,.525-1.86h-1.679l-.032,3.06h.9l.36-.285,1.274.57a10.589,10.589,0,0,1-2.279,4.334A8.952,8.952,0,0,0,3157.376,1880.855Zm-6.51-6.18h1.59l.03-3.06h-1.62v3.06Zm2.37,3.84a8.857,8.857,0,0,0,1.455-3.165h-2.94A7.169,7.169,0,0,0,3153.236,1878.515Z" fill="#4d4d4d"/>
      <path id="Path_273" data-name="Path 273" d="M3164.724,1874.42c.014,3.585-1.321,6.645-4.935,8.054l-.256-.54c2.6-1.38,3.586-3.659,3.781-6.389a15.856,15.856,0,0,1-3.255,2.325l-.75-1.32a23.069,23.069,0,0,0,4.035-1.8v-.33l-.03-5.955h1.379Zm-2.955-.405a20.919,20.919,0,0,0-2.13-3.54l.375-.375a12.009,12.009,0,0,1,3.045,2.97Zm8.7,7.62a26.133,26.133,0,0,1-2.655-.016c-1.845-.1-1.89-.914-1.89-2.22v-10.934h1.349v4.77a14.1,14.1,0,0,0,2.3-3.15l1.35.945a16.63,16.63,0,0,1-3.645,3.015v.555a14.8,14.8,0,0,1,4.14,2.055l-.944,1.3a18.172,18.172,0,0,0-3.2-2.655v4.2c0,.691.21.841.856.9a12.448,12.448,0,0,0,2.25-.016c.8-.059.914-.3.84-2.639h.524C3172.838,1880.825,3172.463,1881.559,3170.469,1881.635Z" fill="#4d4d4d"/>
      <path id="Path_274" data-name="Path 274" d="M3176.466,1876.1c0,2.745-.406,4.95-2.069,6.314l-.42-.345c.914-1.214,1.17-2.714,1.17-5.669v-3h2.054l-.135-.315a21.462,21.462,0,0,0,3.24-1.02,25.085,25.085,0,0,0-2.58-.72l.12-.495a24.492,24.492,0,0,1,3.585.675,7.668,7.668,0,0,0,1.364-.9h-7.949v-.675h6.314c-.66-.4-1.59-.93-2.159-1.215l.135-.495a15.582,15.582,0,0,1,3.21.855l-.51.855h4.979v.675h-2.639l.255.165a10.751,10.751,0,0,1-1.695,1.11,23.506,23.506,0,0,1,2.34.81l-.435.69h2.58v.675h-10.755Zm10.769,4.995v.675H3176.15v-.675h5.071v-1.86h-3.255v-.675h3.255v-1.545h-2.475a10.847,10.847,0,0,1-2.01,2.355l-.345-.405a10.619,10.619,0,0,0,1.935-4.35l1.334.405a11.87,11.87,0,0,1-.539,1.32h2.1v-1.74h1.23v1.74h3.914v.675h-3.914v1.545h3.435v.675h-3.435v1.86Zm-9.075-7.695h5.416c-.735-.345-1.44-.645-2.131-.915A19.715,19.715,0,0,1,3178.16,1873.4Z" fill="#4d4d4d"/>
      <path id="Path_275" data-name="Path 275" d="M3192.123,1872.365v9.929h-1.29v-7.634a12.451,12.451,0,0,1-1.485,1.755l-.39-.375a18.052,18.052,0,0,0,2.865-7.77l1.486.315A19.228,19.228,0,0,1,3192.123,1872.365Zm10.23,8.76v.674h-9.615v-.674h1.366v-8.565h2.309c.075-.51.165-1.1.239-1.68h-3.329v-.675h3.42c.09-.63.165-1.26.225-1.785l1.4.15c-.09.6-.179,1.14-.24,1.635h3.66v.675h-3.765c-.075.6-.151,1.155-.241,1.68h3.151v8.565Zm-2.656-7.89h-4.424v1.4h4.424Zm0,2.025h-4.424v1.485h4.424Zm0,2.115h-4.424v1.53h4.424Zm0,2.159h-4.424v1.591h4.424Z" fill="#4d4d4d"/>
      <path id="Path_276" data-name="Path 276" d="M3209.475,1877.915a2.968,2.968,0,0,0,1.906-2.4,1.567,1.567,0,0,1-.511.075,1.134,1.134,0,0,1-1.2-1.2,1.146,1.146,0,0,1,1.215-1.2c.916,0,1.515.555,1.515,1.68a3.446,3.446,0,0,1-2.61,3.465Z" fill="#4d4d4d"/>
      <path id="Path_277" data-name="Path 277" d="M3220.423,1879.07l.51.12a12.928,12.928,0,0,1-.451,3.165l-1.274-.466A8.97,8.97,0,0,0,3220.423,1879.07Zm1.934-1.74v-1.2h-2.594v-.675h2.594v-1.185h-2.474l-.016-4.98h6.256v4.98h-2.506v1.185h2.49v.675h-2.49v1.11c.871-.06,1.711-.15,2.49-.255l.121.495a42.767,42.767,0,0,1-6.51,1.305l-.3-1.35C3220.408,1877.42,3221.4,1877.39,3222.357,1877.33Zm.151-3.735v-3.63h-1.5v3.63Zm-.87-3.165a10.162,10.162,0,0,1,.75,2.43l-.976.165c-.045-.8-.119-1.65-.224-2.475Zm.6,8.535a15.606,15.606,0,0,1,.659,2.834l-1.169.12c.014-.869.03-1.9-.015-2.895Zm1.409-.421a10.857,10.857,0,0,1,1.036,2.535l-1.111.286a27.026,27.026,0,0,0-.4-2.686Zm-.149-4.949h1.484v-2.49a10.543,10.543,0,0,1-.855,2.055l-.465-.135a25.052,25.052,0,0,0,.4-2.58l.915.24v-.72H3223.5Zm1.529,4.56a9.258,9.258,0,0,1,1.276,2.115l-.99.45c-.2-.765-.451-1.6-.706-2.355Zm4.741-5.505v3.1h2.324v6.465h-1.26v-1.141h-3.09v1.155h-1.26v-6.479h2v-7.305h1.29v3.525h2.7v.675Zm-2.026,3.78v3.975h3.09v-3.975Z" fill="#4d4d4d"/>
      <path id="Path_278" data-name="Path 278" d="M3237.91,1880.464a27.266,27.266,0,0,0-.84-2.684,9.059,9.059,0,0,1-2.461,4.785l-.375-.391c1.532-1.964,1.981-4.589,1.981-8.954v-4.77h1.26v4.59a19.968,19.968,0,0,0,.765-2.04l1.095.585a10.116,10.116,0,0,1-1.86,2.49,20.64,20.64,0,0,1-.27,2.985,9.758,9.758,0,0,1,1.875,2.819Zm-3.615-9.179.54-.1a15.026,15.026,0,0,1,.99,4.05l-1.29.165A24.6,24.6,0,0,0,3234.295,1871.285Zm8.67,1.38a9.473,9.473,0,0,1-3.75,6.195l-.3-.42c2.085-1.86,2.835-4.68,3.06-7.41h-1.11c-.06.225-.135.45-.211.66a6.937,6.937,0,0,1,.946,1.425l-.87.51c-.1-.39-.225-.825-.345-1.215-.18.45-.391.87-.6,1.275a6.854,6.854,0,0,1,1.05,1.53l-.931.51a12.712,12.712,0,0,0-.449-1.5,7.91,7.91,0,0,1-1.215,1.545l-.375-.345a14.9,14.9,0,0,0,2.22-7.065l1.29.24a17.5,17.5,0,0,1-.33,1.77h.824l.256-.255,1.154.345c-.045.525-.119,1.035-.2,1.53h.736c.014-.315.014-.63.014-.96v-2.565h1.291v2.505c0,.345-.016.69-.03,1.02h2.415v.675h-2.01a8.047,8.047,0,0,0,2.279,5.04l-1.23.99c-.494-.75-1.364-1.98-1.529-5.79-.27,2.7-1.17,4.71-3.63,5.94l-.271-.45c1.92-1.35,2.535-3.1,2.67-5.73Zm-3.255,6.195.51.15a7.575,7.575,0,0,1-1.111,3.539l-1.184-.9A5.523,5.523,0,0,0,3239.71,1878.86Zm1.8.164a11.587,11.587,0,0,1,1.17,3.061l-1.321.194a21.105,21.105,0,0,0-.314-3.164Zm2.055-.254a10.472,10.472,0,0,1,1.544,2.984l-1.275.375a22.06,22.06,0,0,0-.734-3.21Zm2-.27a10.73,10.73,0,0,1,2.174,3.119l-1.3.6a23.274,23.274,0,0,0-1.3-3.465Zm.6-6.735a19.409,19.409,0,0,0-.66-2.25l.435-.225a7.241,7.241,0,0,1,1.29,2.07Z" fill="#4d4d4d"/>
      <path id="Path_279" data-name="Path 279" d="M3262.267,1874.585l-1.365.93c-.3-.6-.66-1.26-1.08-1.95a90.823,90.823,0,0,1-9.42,1.35l-.435-1.65c.69.03,1.381.045,2.086.045a22.1,22.1,0,0,0,2.819-5.025l1.56.75a26.636,26.636,0,0,1-3.494,4.275c2.4-.015,4.769-.165,6.539-.315-.48-.735-1-1.515-1.6-2.31l.435-.375A23.016,23.016,0,0,1,3262.267,1874.585Zm-10.679,1.545h8.894v6.195h-1.41v-1.111H3253v1.095h-1.409Zm1.409,4.394h6.075v-3.719H3253Z" fill="#4d4d4d"/>
      <path id="Path_280" data-name="Path 280" d="M3266.119,1874.69a25.061,25.061,0,0,0-1.785-2.265l.3-.435a10.586,10.586,0,0,1,2.43,1.7Zm.391.96.525.165a57.062,57.062,0,0,1-1.156,5.834l-1.454-.6C3265.084,1879.655,3265.91,1877.42,3266.51,1875.65Zm.18-4.83c-.661-.81-1.321-1.47-1.92-2.085l.269-.42a11.505,11.505,0,0,1,2.551,1.485Zm1.185,5.175-.826-.465a5.365,5.365,0,0,0,.961-1.8l.375.12A6.947,6.947,0,0,1,3267.875,1875.995Zm0-5.16a17.126,17.126,0,0,0,.645-2.445l.99.3c-.405.84-.766,1.575-1.111,2.13.255-.015.525-.03.8-.06a11.819,11.819,0,0,0,.48-1.125l.826.405v-.375h2.01a11.7,11.7,0,0,0-1.215-.99l.164-.375a6.457,6.457,0,0,1,1.83.78l-.4.585h1.529v.6H3270.5v-.03a14.918,14.918,0,0,1-1.92,2.43,11.944,11.944,0,0,0,1.23-.24c-.076-.18-.151-.375-.241-.555l.316-.18a5.007,5.007,0,0,1,1.035,1.38l-.735.345c-.06-.2-.136-.39-.21-.585a10.889,10.889,0,0,1-2.415.87l-.286-.9c.255-.015.5-.03.736-.06a11.067,11.067,0,0,0,.869-1.38,7.637,7.637,0,0,1-1.319.33l-.181-.87C3267.545,1870.82,3267.709,1870.835,3267.875,1870.835Zm1.784,8.055h7.8a12.062,12.062,0,0,1-.63,2.55c-.569,1.334-1.86,1.379-4.11-.136l.2-.494c2.16.644,2.415.765,2.79-.09a5.979,5.979,0,0,0,.285-1.186h-6.6c-.135.316-.254.631-.389.93l-1.261-.254a21.8,21.8,0,0,0,1.275-3.255l1.156.54h5.234v-.825h-7.125v-.645h8.356v2.07h-6.676C3269.869,1878.365,3269.764,1878.635,3269.659,1878.89Zm-.63-5.2a10.181,10.181,0,0,1,.7,1.785l-.87.2c-.03-.63-.1-1.26-.194-1.875Zm1.1,1.665a15.294,15.294,0,0,0-.586-1.77l.33-.18a7.516,7.516,0,0,1,1.08,1.6Zm3.794-3.96h-2.925v-.57h2.925Zm0,1.155h-2.925v-.57h2.925Zm-2.85,2.85v-2.265h2.85v2.265Zm.826-.555h1.184v-1.17H3271.9Zm2.16.675a5.583,5.583,0,0,0,.84-1.755l.389.1a6.431,6.431,0,0,1-.45,2.025Zm.6-4.755a13.234,13.234,0,0,0,.645-2.475l.961.285a14.891,14.891,0,0,1-1.112,2.19c.256-.015.526-.03.811-.06.18-.4.346-.81.5-1.2l.944.42a16.061,16.061,0,0,1-1.994,2.73,11.272,11.272,0,0,0,1.244-.21c-.089-.225-.179-.465-.284-.69l.3-.195a5.638,5.638,0,0,1,1.065,1.485l-.765.375-.18-.585a12.876,12.876,0,0,1-2.415.84l-.285-.945c.27,0,.525-.015.75-.03a10.329,10.329,0,0,0,.87-1.44,6.01,6.01,0,0,1-1.305.315l-.209-.825C3274.354,1870.76,3274.5,1870.76,3274.654,1870.76Zm1.215,2.9a9.229,9.229,0,0,1,.69,1.8l-.855.21a18.186,18.186,0,0,0-.181-1.905Zm1.141,1.74a17.725,17.725,0,0,0-.737-1.785l.3-.195a7.013,7.013,0,0,1,1.2,1.56Z" fill="#4d4d4d"/>
      <path id="Path_281" data-name="Path 281" d="M3283.4,1874.915v7.469h-1.29v-6.524a12.934,12.934,0,0,1-2.4,3.735l-.375-.345a18.331,18.331,0,0,0,2.52-6.09h-2.25v-.675h2.5v-2.175c-.826.15-1.635.255-2.326.315l-.1-.51a14.786,14.786,0,0,0,4.784-1.875l1.065,1.17a17.085,17.085,0,0,1-2.129.63v2.445h2.129v.675H3283.4v.885a16.077,16.077,0,0,1,2.325,2.01l-1.066.99C3284.356,1876.46,3283.861,1875.65,3283.4,1874.915Zm7.439,2.535v4.784h-1.319v-4.484c-1.6.36-3.226.72-4.83,1.05l-.226-.675c1.681-.345,3.375-.7,5.056-1.08v-8.6h1.319v8.3c.615-.15,1.246-.285,1.86-.435l.181.66C3292.2,1877.135,3291.512,1877.3,3290.836,1877.45Zm-4.965-3.93a10.8,10.8,0,0,1,2.76,2.235l-1.139,1.005a23.656,23.656,0,0,0-2-2.85Zm1.965-.705a27.528,27.528,0,0,0-2.1-2.61l.33-.4a11.114,11.114,0,0,1,2.79,2.01Z" fill="#4d4d4d"/>
      <path id="Path_282" data-name="Path 282" d="M3298.139,1876.445l-.015,4.545c0,1.3-1.035,1.889-3.3.434l.151-.495c1.574.375,1.889.285,1.889-.419v-3.525c-.615.24-1.229.435-1.86.63l-.435-1.47c.826-.12,1.576-.225,2.295-.375V1872.6h-2.145v-.675h2.145v-3.48h1.29l-.015,3.48h1.785v.675h-1.785v2.9c.435-.1.884-.24,1.336-.375l.194.51Q3298.9,1876.085,3298.139,1876.445Zm9.029,5.759a10.008,10.008,0,0,1-3.764-2.174,12.063,12.063,0,0,1-5.025,2.309l-.18-.51a11.431,11.431,0,0,0,4.455-2.624,10.082,10.082,0,0,1-1.89-4.455h-1v-.675h2.819V1871.6h-3v-.675h3v-2.475h1.351v2.475h3.45v.675h-3.45v2.475h1.065l.36-.24,1.365.675a12.835,12.835,0,0,1-2.4,4.62,12.723,12.723,0,0,0,3.766,1.515Zm-3.795-3.824a10.741,10.741,0,0,0,1.681-3.63h-3.75A7.8,7.8,0,0,0,3303.373,1878.38Z" fill="#4d4d4d"/>
      <path id="Path_283" data-name="Path 283" d="M3311.276,1877.885a12.605,12.605,0,0,1-.45,4.289l-1.47-.6a10.139,10.139,0,0,0,1.4-3.75Zm-.585-2.025a14.558,14.558,0,0,0,2.1-2.865,21.543,21.543,0,0,1-2.744.69l-.271-1.365c.33.03.661.045.99.06a18.874,18.874,0,0,0,1.365-4.095l1.365.45a18.27,18.27,0,0,1-2.1,3.66c.584,0,1.169-.03,1.769-.075.269-.54.54-1.14.78-1.77l1.335.57a15.884,15.884,0,0,1-3.81,4.71c.8-.045,1.621-.15,2.416-.27-.136-.39-.285-.78-.436-1.125l.45-.225a10.477,10.477,0,0,1,1.621,2.49l-1.141.525c-.09-.33-.2-.735-.33-1.14a24,24,0,0,1-3.989,1.23l-.375-1.47C3310.017,1875.86,3310.346,1875.86,3310.691,1875.86Zm1.8,1.845a24.463,24.463,0,0,1,1.035,3.525l-1.379.24c0-.916-.061-2.416-.135-3.675Zm2.955,2.474-1.216.5c-.208-.99-.524-2.22-.795-3.2l.452-.18A16.067,16.067,0,0,1,3315.446,1880.179Zm7.53.96v.676h-8.28v-.676h3.525v-3.179h-2.879v-.675h7.079v.675h-2.88v3.179Zm-.255-10.994h-7.7v-.675h7.7Zm-6.855,3.345a10.923,10.923,0,0,1,1.845,2.64l-1.38.615a11.779,11.779,0,0,0-1.184-3.24,14.079,14.079,0,0,0,1.08-3l1.41.555A13.351,13.351,0,0,1,3315.866,1873.49Zm2.909,3.255a15.176,15.176,0,0,0-1.259-3.24,16.3,16.3,0,0,0,1.125-2.985l1.349.57a11.6,11.6,0,0,1-1.769,2.4,10.478,10.478,0,0,1,1.95,2.64Zm2.446-.015a16.472,16.472,0,0,0-1.425-3.225,14.432,14.432,0,0,0,1.184-2.985l1.366.6a13.037,13.037,0,0,1-1.83,2.37,9.762,9.762,0,0,1,2.07,2.61Z" fill="#4d4d4d"/>
      <path id="Path_284" data-name="Path 284" d="M3326.979,1874.72a28.239,28.239,0,0,0-2.206-2.46l.3-.465a14.591,14.591,0,0,1,2.9,1.77Zm.375,1.005a41.605,41.605,0,0,1-1.125,5.88l-1.456-.6a48.594,48.594,0,0,0,2.055-5.444Zm-.255-4.68a27.4,27.4,0,0,0-1.951-2.235l.315-.435a11.884,11.884,0,0,1,2.58,1.59Zm8.085,4.89h1.289v6.329h-1.289v-2.429h-4.816c-.45,1.23-1.335,1.905-2.97,2.549l-.254-.465c1.875-1.155,2.205-2.174,2.28-4.364v-1.62h1.319v1.215h4.441Zm-6.151-3.63h-.824v-.63h3.494a19.317,19.317,0,0,1-.15,3.06c-.209,1.005-1.289.975-2.084.33l.15-.45c.84.21.914.075.975-.3.045-.285.1-1.68.09-2.01h-.631a4.984,4.984,0,0,1-2.1,4.005l-.33-.375A5,5,0,0,0,3329.033,1872.305Zm2.506-1.71H3328.4v-.675h4.515c-.72-.45-1.41-.885-1.979-1.2l.165-.54a15.067,15.067,0,0,1,2.984.84l-.465.9h4.1v.675h-3.511l.765.285a8.746,8.746,0,0,1-1.3,1.965v3.39h-1.2v-3.54h.764a16.5,16.5,0,0,0,.63-2.1h-2.07a6.061,6.061,0,0,1,1.336,1.5l-.931.6a14.684,14.684,0,0,0-.929-1.875Zm3.645,7.23h-4.441a10.413,10.413,0,0,1-.179,1.334h4.62Zm2.939-2.94-.855.915a2.679,2.679,0,0,1-.629-.99,9.96,9.96,0,0,1-2.446.9l-.314-1.065.674-.045v-2.79l.615.09a6.716,6.716,0,0,0,2-1.08l.78.8a8.845,8.845,0,0,1-1.3.435A4.307,4.307,0,0,0,3338.123,1874.885Zm-1.65-.57a11.137,11.137,0,0,1-.36-2.145c-.2.045-.375.075-.554.1v2.2C3335.873,1874.435,3336.174,1874.375,3336.473,1874.315Z" fill="#4d4d4d"/>
      <path id="Path_285" data-name="Path 285" d="M3344.9,1870.13a11.681,11.681,0,0,1,2,3.09l-1.26.54c-.1-.405-.255-.855-.42-1.32a31.918,31.918,0,0,1-5.01,1.215l-.36-1.44c.435.015.9,0,1.394-.015a19.35,19.35,0,0,0,1.08-3.96l1.576.495a18.272,18.272,0,0,1-1.98,3.42c1.035-.06,2.13-.18,3.09-.3-.18-.48-.391-.975-.6-1.47Zm-4.17,4.05h5.46v6.78c0,1.26-1.245,1.829-3.36.524l.15-.524c1.741.375,1.861.27,1.861-.555v-1.515h-2.76v3.4h-1.351Zm1.336.675v1.32h2.775v-1.32Zm2.775,3.375v-1.4h-2.775v1.4Zm5.61,3.734c-2.761,0-3.33-.135-3.33-1.739v-4.875h1.35v2.865a12.4,12.4,0,0,0,2.894-2.175l1.186,1.095a18.827,18.827,0,0,1-4.08,1.695v1.065c0,.72.389.885,1.9.869,1.6-.014,1.666-.3,1.711-2.2h.539C3353.211,1881,3353.346,1881.964,3350.451,1881.964Zm-3.315-9.074v-4.455h1.349v2.865a10.694,10.694,0,0,0,2.656-2.025l1.214,1.05a15.478,15.478,0,0,1-3.87,1.635v.855c0,.75.3.855,1.7.84,1.634-.015,1.649-.255,1.665-1.935l.539-.015c.69,2.79.225,3.135-2.309,3.12C3347.75,1874.81,3347.136,1874.84,3347.136,1872.89Z" fill="#4d4d4d"/>
      <path id="Path_286" data-name="Path 286" d="M3368,1881.034v.676h-12.885v-.676h5.789v-.974h-4.558v-.675h4.558v-1.005h-3.869v-3.81h9.164v3.81h-3.974v1.005h4.71v.675h-4.71v.974Zm-.27-7.244H3355.4v-.675h12.33Zm-1.861-1.485h-8.489v-3.345h8.489Zm-4.965,5.4v-.915h-2.609l-.016.915Zm-2.609-1.56h2.609v-.9h-2.609Zm6.345-6.51h-6.031v.645h6.031Zm0,1.29h-6.031v.7h6.031Zm-2.415,5.22h2.715v-.9h-2.715Zm0,1.56h2.7l.015-.915h-2.715Z" fill="#4d4d4d"/>
      <path id="Path_287" data-name="Path 287" d="M3372.646,1875.575h5.579a23.353,23.353,0,0,1-.87,5.76c-.33.944-2.13,1.814-4.53-.571l.271-.494c1.979.78,2.639,1.065,2.969.149a19.08,19.08,0,0,0,.63-4.169h-4.185c-.119.63-.254,1.215-.39,1.725l-1.38-.21c.375-1.545.87-4.095,1.08-5.715l1.321.42h3.1v-2.82h-5.6v-.675h6.915v4.17h-4.485C3372.961,1873.925,3372.81,1874.765,3372.646,1875.575Zm9.479-7.125v13.8h-1.38v-13.8Z" fill="#4d4d4d"/>
      <path id="Path_288" data-name="Path 288" d="M3083.707,1901.91l-.285-.39a7.818,7.818,0,0,0,1.815-3.09l1.14.33a3.01,3.01,0,0,1-.27.54h4.26c-.03,1.47-.075,2.565-.165,3.24-.165,1.23-1.649,1.17-2.55.4l.135-.4c1.02.255,1.215.18,1.32-.3a14.971,14.971,0,0,0,.1-2.37h-3.465c-.149.21-.315.435-.51.66h3.031v1.83h-3.3v-1.515A7.349,7.349,0,0,1,3083.707,1901.91Zm7.335,5.07h5.8v.675h-5.8v1.53c0,1.619-2.024,1.44-3.6.345l.15-.526c1.86.45,2.131.331,2.131-.314v-1.035h-6.076v-.675h6.076v-.915h-4.951v-.675h4.951v-.825c-1.545.105-3.121.135-4.441.105l-.03-.54a27.682,27.682,0,0,0,8.34-1.275l1.2,1.065a33.922,33.922,0,0,1-3.75.54v.93h4.755v.675h-4.755Zm-5.189-8.985h-2.04v-.615h2.04v-.99h1.065v.99h1.184v-1.02h1.065v1.02h2.19v.615h-2.19v.855H3088.1v-.855h-1.184v.6h-1.065Zm.059,3.81h1.395v-.735h-1.379Zm4.651-1.485a9.518,9.518,0,0,0,1.589-3.99l1.26.315a8.135,8.135,0,0,1-.63,1.485h3.945v.645h-1.155a5.126,5.126,0,0,1-1.215,2.37,8.544,8.544,0,0,0,2.594.915l-.6,1.335a6.034,6.034,0,0,1-2.745-1.53,8.03,8.03,0,0,1-3.06,1.47l-.164-.48a6.311,6.311,0,0,0,2.654-1.62,6.331,6.331,0,0,1-1.005-1.86,6.824,6.824,0,0,1-1.139,1.26Zm1.859-1.545c-.029.03-.045.075-.074.1a4.72,4.72,0,0,0,1.2,1.68,5.709,5.709,0,0,0,.734-1.785Z" fill="#4d4d4d"/>
      <path id="Path_289" data-name="Path 289" d="M3105.3,1909.74a1.058,1.058,0,1,1,0-2.115,1.058,1.058,0,0,1,1.064,1.065A1.047,1.047,0,0,1,3105.3,1909.74Zm-.51-3.255-.375-8.91h1.754l-.4,8.91Z" fill="#4d4d4d"/>
      <path id="Path_290" data-name="Path 290" d="M3126.916,1908.839v.826h-13.109v-.826h2.25v-7.694h1.38v7.694h2.79V1898.25h-5.67v-.75h11.8v.75h-4.7v4.575h4.08v.675h-4.08v5.339Z" fill="#4d4d4d"/>
      <path id="Path_291" data-name="Path 291" d="M3137.369,1898.34v2.55h3.57v9.3h-1.38v-1.216h-8.174v1.276H3130v-9.36h3.255v-2.55h-4.29v-.75h12.9v.75Zm2.19,9.96v-2.205h-1.905c-1.41,0-1.6-.42-1.6-1.62v-2.91h-1.44c-.06,2.1-.48,4.335-2.655,5.85l-.36-.42c1.53-1.59,1.665-3.87,1.665-5.43h-1.874v6.735Zm-3.51-9.96h-1.44v2.55h1.44Zm1.32,3.225v2.43c0,.66.164.87.855.87h1.335v-3.3Z" fill="#4d4d4d"/>
      <path id="Path_292" data-name="Path 292" d="M3144.731,1897.005h5.175v5.46h-3.824v7.769h-1.351Zm3.855,2.325v-1.65h-2.5v1.65Zm0,2.475v-1.8h-2.5v1.8Zm3.766,6.749c2.173.631,2.714.555,2.714-.449v-5.64h-3.794v-5.46h5.144v11.459c0,1.845-1.575,2.46-4.26.615Zm2.714-9.224v-1.65h-2.474v1.65Zm0,2.475v-1.8h-2.474v1.8Z" fill="#4d4d4d"/>
      <path id="Path_293" data-name="Path 293" d="M3172.434,1903.635l-.84,1.59a9.772,9.772,0,0,1-3.691-2.25,12.051,12.051,0,0,1-4.349,2.475l-.21-.495a11.51,11.51,0,0,0,1.215-.585h-1.71v3.195c.7-.21,1.35-.42,1.86-.615l.194.51a27.62,27.62,0,0,1-5.684,2.415l-.436-1.5c.256-.03.541-.06.826-.1v-5.1h1.17v4.89l.78-.181V1901.7h-1.845v-4.6h4.694v4.6h-1.559v1.995h1.9v.57a9.119,9.119,0,0,0,2.489-2.04,9.1,9.1,0,0,1-1.17-2.115,8.758,8.758,0,0,1-1.259,1.41l-.375-.36a12.124,12.124,0,0,0,1.86-4.875l1.455.465a13.375,13.375,0,0,1-.525,1.305h1.964l.27-.24,1.336.675a11.835,11.835,0,0,1-2.1,3.675A10.39,10.39,0,0,0,3172.434,1903.635Zm-11.491-2.61h2.266v-3.255h-2.266Zm4.125,4.065h5.64v5.174h-1.26v-.974h-3.12v.989h-1.26Zm1.26,3.509h3.12v-2.834h-3.12Zm1.516-7.154a11.073,11.073,0,0,0,1.26-2.715h-2.19c-.15.285-.3.54-.451.81A7.606,7.606,0,0,0,3167.844,1901.445Z" fill="#4d4d4d"/>
      <path id="Path_294" data-name="Path 294" d="M3187.625,1908.585l-1.095,1.709c-1.44-.659-4.62-3.509-5.4-8.759a11.268,11.268,0,0,1-6.9,8.864l-.269-.51a11.1,11.1,0,0,0,5.654-8.639h-5.159v-.825h5.265c.03-.345.06-.705.075-1.065.045-.915.059-1.995.075-2.985l1.529.045c0,1.185-.029,2.265-.09,3.42l-.044.585h5.654v.825h-5.279A10.688,10.688,0,0,0,3187.625,1908.585Z" fill="#4d4d4d"/>
      <path id="Path_295" data-name="Path 295" d="M3202.638,1908.33l-.45,1.469c-1.6.105-4.14.151-5.956.076-3.074-.121-3.929-1.095-4.558-2.265a11.658,11.658,0,0,1-1.74,2.789l-.976-.915a10.726,10.726,0,0,0,1.95-2.085v-3.389h-1.814v-.675h3.164v4.035c.825,1.229,2.715,1.289,4.051,1.289A56.908,56.908,0,0,0,3202.638,1908.33Zm-11.339-6.045a26.56,26.56,0,0,0-2.086-2.4l.285-.465a12.727,12.727,0,0,1,2.76,1.8Zm-1.591-5.4.271-.435a10.759,10.759,0,0,1,2.759,1.665l-.945,1.065A21.864,21.864,0,0,0,3189.708,1896.885Zm7.021,2.52h-3.872v-.66h2.776c-.4-.75-.9-1.575-1.289-2.16l.374-.39a10.859,10.859,0,0,1,2.235,2.01l-.735.54h2.22a13.4,13.4,0,0,0,.735-2.55l1.485.45a10.672,10.672,0,0,1-1.575,2.1h3.075v.66h-3.974a13.041,13.041,0,0,1-1.006,1.485h3.945v6.989h-1.32v-.794h-4.365v.84h-1.32v-7.035h2.34A13.133,13.133,0,0,0,3196.729,1899.405Zm3.074,2.16h-4.365v1.11h4.365Zm0,1.755h-4.365v1.215h4.365Zm0,1.86h-4.365v1.23h4.365Z" fill="#4d4d4d"/>
      <path id="Path_296" data-name="Path 296" d="M3209.475,1905.915a2.968,2.968,0,0,0,1.906-2.4,1.567,1.567,0,0,1-.511.075,1.134,1.134,0,0,1-1.2-1.2,1.146,1.146,0,0,1,1.215-1.2c.916,0,1.515.555,1.515,1.68a3.446,3.446,0,0,1-2.61,3.465Z" fill="#4d4d4d"/>
      <path id="Path_297" data-name="Path 297" d="M3219.777,1896.75h1.17v6.21c0,3.69-.269,5.534-1.424,7.23l-.465-.271c.57-1.244.719-2.609.719-6.7Zm1.951,1.14h1.049v10.545h-1.049Zm3,11.235h-1.14v-12.36h1.14Zm2.684-1.74,1.155.84a13.05,13.05,0,0,1-4.694,2.309l-.211-.5A11.12,11.12,0,0,0,3227.412,1907.385Zm.526-9.375h-2.76v-.675h7.215v.675h-3a16.057,16.057,0,0,1-.975,1.635h3.329v7.455H3225.7v-7.455h1.994C3227.787,1899.135,3227.893,1898.49,3227.938,1898.01Zm2.49,2.31h-3.495v1.53h3.495Zm0,2.205h-3.495v1.59h3.495Zm0,2.265h-3.495v1.635h3.495Zm2.34,4.41-.856,1.229a31.223,31.223,0,0,0-3.15-2.5l.225-.5A17.571,17.571,0,0,1,3232.768,1909.2Z" fill="#4d4d4d"/>
      <path id="Path_298" data-name="Path 298" d="M3237.7,1904.31v4.68c0,1.3-1.034,1.889-3.3.434l.15-.495c1.575.375,1.89.285,1.89-.419v-3.585c-.6.27-1.185.525-1.71.7l-.509-1.41c.689-.135,1.454-.3,2.219-.495v-3.18h-2.085v-.675h2.085v-3.45h1.259v3.45h1.771v.675H3237.7v2.82a15.439,15.439,0,0,0,1.5-.525l.2.48C3238.9,1903.65,3238.315,1903.98,3237.7,1904.31Zm8.01.735a6.685,6.685,0,0,1-1.215,2.624,15.088,15.088,0,0,1,2.7,1.5l-.944,1.275a19.562,19.562,0,0,0-2.535-1.964,9.493,9.493,0,0,1-5.43,1.919l-.135-.524a8.644,8.644,0,0,0,4.559-1.98,16.5,16.5,0,0,0-1.725-.825c-.24.434-.464.825-.644,1.125l-1.1-.54c.391-.645.931-1.62,1.41-2.61h-2.324v-.675h2.64a13.924,13.924,0,0,0,.66-1.65l1.245.405c-.135.375-.315.8-.525,1.245h5.234v.675Zm-1.229-5.955h-5.4v-.675h4a21.1,21.1,0,0,0-2.069-1.65l.225-.45a10.6,10.6,0,0,1,2.82,1.14l-.691.96H3247v.675h-2.445l1.365.54a17.922,17.922,0,0,1-1.65,2.325h3.24v.675h-8.776v-.675h2.506a19.5,19.5,0,0,0-.99-2.46l.48-.27a9.556,9.556,0,0,1,1.785,2.265l-.87.465h1.92A23.219,23.219,0,0,0,3244.48,1899.09Zm-.2,5.955h-2.25l-.78,1.53a17.045,17.045,0,0,1,2.055.63A6.608,6.608,0,0,0,3244.285,1905.045Z" fill="#4d4d4d"/>
      <path id="Path_299" data-name="Path 299" d="M3256.072,1906.919l.2.51a24.38,24.38,0,0,1-6.586,2.73l-.48-1.514a39.194,39.194,0,0,0,4.155-.9v-5.2h-3.735v-.75h3.735v-4.935h1.38v10.5Zm3.735,2.821c-2.76,0-2.97-.331-2.97-2.341v-10.544h1.38v5.55a15.764,15.764,0,0,0,2.8-2.715l1.185,1.215a21.377,21.377,0,0,1-3.99,2.22v4.23c0,.96.135,1.095,1.859,1.095,1.471,0,1.531-.24,1.516-3.39h.54C3263.076,1909.125,3262.9,1909.74,3259.807,1909.74Z" fill="#4d4d4d"/>
      <path id="Path_300" data-name="Path 300" d="M3270.694,1898.91l1.5.48c-1.065,6.345-3.854,9.479-7.259,11.144l-.316-.51c3.615-2.429,5.236-5.789,5.835-10.064l-2.4-.03a14.491,14.491,0,0,1-1.02,2.1,9.534,9.534,0,0,1,2.19,1.68l-1.1,1.155a16.967,16.967,0,0,0-1.515-2.2,8.737,8.737,0,0,1-1.874,2.025l-.361-.42c1.186-1.44,2.461-3.78,3.09-7.98l1.531.315a21.547,21.547,0,0,1-.69,2.655h2.024Zm6,6.6c-.539-.915-1.454-2.25-2.249-3.375v8.234h-1.379V1896.48h1.379v4.635a23.476,23.476,0,0,1,3.51,3.24Z" fill="#4d4d4d"/>
      <path id="Path_301" data-name="Path 301" d="M3284.582,1905.255a19.81,19.81,0,0,1-4.545,2.43l-.555-1.47c.57-.09,1.2-.24,1.83-.4v-3.675h-1.576v-.675h1.576v-3.45h-1.77v-.675h4.725v.675h-1.7v3.45h1.455v.675h-1.455v3.3a16.779,16.779,0,0,0,1.754-.66Zm8.4,3.614-.809,1.381c-1.756-.75-3.2-2.085-3.66-5.145h-.285a5.056,5.056,0,0,1-1.036.99v2.25a16.95,16.95,0,0,0,1.755-.541l.226.5a15.648,15.648,0,0,1-4.5,1.934l-.481-1.349c.571-.06,1.186-.151,1.8-.27v-1.755a14.756,14.756,0,0,1-3.015,1.259l-.2-.524a9.967,9.967,0,0,0,3.916-2.49h-1.875l-.015-2.595h7.035v2.595h-2.76a5.732,5.732,0,0,0,.824,1.875,8.2,8.2,0,0,0,1.426-1.59l1.049.84a10.187,10.187,0,0,1-2.084,1.215A6.267,6.267,0,0,0,3292.981,1908.869Zm-8.729-7.889h8.444v.675h-8.444Zm7.889-.75h-7.559v-3.24h7.559Zm-5.385-2.565h-.944v1.89h.944Zm-.659,6.795h4.469v-1.3h-4.484Zm2.715-6.795h-.976v1.89h.976Zm2.1,0h-1.019v1.89h1.019Z" fill="#4d4d4d"/>
      <path id="Path_302" data-name="Path 302" d="M3295.934,1898.985a10.34,10.34,0,0,1-.2,4.41l-1.365-.51a7.986,7.986,0,0,0,1.021-3.9Zm.615-2.55h1.29v13.9h-1.29Zm11.49,12.285-1.1,1.649c-1.365-.81-3.253-2.595-3.914-6.329h-.015a8.132,8.132,0,0,1-4.7,6.4l-.3-.45a7.874,7.874,0,0,0,3.614-5.954h-2.97v-.675h3.045c.061-.645.09-1.335.09-2.1v-1.44h-2.311v-.675h2.311v-2.775l1.38.015v2.76h3.135v4.215h1.455v.675h-4.2A7.092,7.092,0,0,0,3308.039,1908.72Zm-9.42-6.315a30.242,30.242,0,0,0-.6-3.33l.479-.18a10.562,10.562,0,0,1,1.409,3.195Zm4.485.96h1.89v-3.54h-1.815v1.86C3303.179,1902.27,3303.148,1902.84,3303.1,1903.365Z" fill="#4d4d4d"/>
      <path id="Path_303" data-name="Path 303" d="M3323.2,1908.21l-.375,1.514a60.917,60.917,0,0,1-6.135.1c-2.294-.135-3.15-.464-4.214-2.2a14.28,14.28,0,0,1-2.145,2.789l-.855-.884a10.613,10.613,0,0,0,2.264-2.085v-3.375h-2.114v-.69h3.433v3.945c.886,1.229,1.741,1.26,3.706,1.3A46.217,46.217,0,0,0,3323.2,1908.21Zm-11.144-5.85c-.495-.66-1.41-1.725-2.04-2.385l.3-.45a14.011,14.011,0,0,1,2.715,1.725Zm-1.561-5.535.285-.45a12.3,12.3,0,0,1,2.76,1.65l-.96,1.095A19.752,19.752,0,0,0,3310.5,1896.825Zm6.465,6.435h-2.5v-3.33h3.03v-1.185h-3.525v-.675h3.525v-1.635h1.321v1.635h3.734v.675h-3.734v1.185h3.1v3.33h-3.1v.42a17.832,17.832,0,0,1,3.853,2.19l-.959,1.245a22.312,22.312,0,0,0-2.894-2.685v3.584h-1.321v-3.584a10.8,10.8,0,0,1-3.63,2.969l-.3-.48A11.513,11.513,0,0,0,3316.961,1903.26Zm-1.215-.675h1.74v-1.98h-1.74Zm3.061,0h1.814v-1.98h-1.814Z" fill="#4d4d4d"/>
      <path id="Path_304" data-name="Path 304" d="M3338.288,1908.33l-.45,1.469c-1.6.105-4.14.151-5.955.076-3.074-.121-3.93-1.095-4.559-2.265a11.619,11.619,0,0,1-1.74,2.789l-.976-.915a10.732,10.732,0,0,0,1.951-2.085v-3.389h-1.815v-.675h3.164v4.035c.825,1.229,2.715,1.289,4.051,1.289A56.9,56.9,0,0,0,3338.288,1908.33Zm-11.339-6.045a26.4,26.4,0,0,0-2.086-2.4l.285-.465a12.721,12.721,0,0,1,2.76,1.8Zm-1.591-5.4.271-.435a10.763,10.763,0,0,1,2.76,1.665l-.946,1.065A21.681,21.681,0,0,0,3325.358,1896.885Zm7.021,2.52h-3.871v-.66h2.775c-.4-.75-.9-1.575-1.289-2.16l.374-.39a10.886,10.886,0,0,1,2.236,2.01l-.736.54h2.22a13.328,13.328,0,0,0,.735-2.55l1.486.45a10.677,10.677,0,0,1-1.576,2.1h3.076v.66h-3.975a12.73,12.73,0,0,1-1.006,1.485h3.945v6.989h-1.32v-.794h-4.365v.84h-1.319v-7.035h2.339A12.814,12.814,0,0,0,3332.379,1899.405Zm3.074,2.16h-4.365v1.11h4.365Zm0,1.755h-4.365v1.215h4.365Zm0,1.86h-4.365v1.23h4.365Z" fill="#4d4d4d"/>
      <path id="Path_305" data-name="Path 305" d="M3353.3,1903.635l-.84,1.59a9.764,9.764,0,0,1-3.69-2.25,12.054,12.054,0,0,1-4.35,2.475l-.21-.495a11.418,11.418,0,0,0,1.215-.585h-1.71v3.195c.7-.21,1.35-.42,1.86-.615l.2.51a27.649,27.649,0,0,1-5.685,2.415l-.436-1.5c.256-.03.541-.06.827-.1v-5.1h1.17v4.89l.779-.181V1901.7h-1.845v-4.6h4.694v4.6h-1.559v1.995h1.905v.57a9.126,9.126,0,0,0,2.489-2.04,9.131,9.131,0,0,1-1.17-2.115,8.712,8.712,0,0,1-1.259,1.41l-.375-.36a12.124,12.124,0,0,0,1.86-4.875l1.455.465a13.375,13.375,0,0,1-.525,1.305h1.964l.27-.24,1.336.675a11.835,11.835,0,0,1-2.1,3.675A10.39,10.39,0,0,0,3353.3,1903.635Zm-11.491-2.61h2.266v-3.255h-2.266Zm4.125,4.065h5.64v5.174h-1.26v-.974h-3.12v.989h-1.26Zm1.26,3.509h3.12v-2.834h-3.12Zm1.516-7.154a11.064,11.064,0,0,0,1.26-2.715h-2.19c-.15.285-.3.54-.451.81A7.605,7.605,0,0,0,3348.711,1901.445Z" fill="#4d4d4d"/>
      <path id="Path_306" data-name="Path 306" d="M3360.2,1905.915a2.969,2.969,0,0,0,1.907-2.4,1.565,1.565,0,0,1-.511.075,1.2,1.2,0,1,1,.014-2.4c.916,0,1.516.555,1.516,1.68a3.446,3.446,0,0,1-2.61,3.465Z" fill="#4d4d4d"/>
      <path id="Path_307" data-name="Path 307" d="M3383.49,1908.21l-.375,1.514a57.992,57.992,0,0,1-5.984.1c-2.3-.135-3.285-.359-4.351-2.16a13.009,13.009,0,0,1-2.009,2.791l-.916-.93a12.274,12.274,0,0,0,2.161-2.04v-3.42h-1.981v-.69h3.361v3.99c.884,1.245,1.844,1.215,3.809,1.259A44.053,44.053,0,0,0,3383.49,1908.21Zm-11.219-6c-.5-.645-1.5-1.785-2.13-2.46l.3-.45a14.624,14.624,0,0,1,2.805,1.8Zm-1.56-5.385.285-.45a12.9,12.9,0,0,1,2.879,1.755l-.959,1.095C3372.271,1898.46,3371.43,1897.53,3370.711,1896.825Zm5.249,10.905-1.29-.015v-7.6h4.051c-.646-.45-1.455-.99-2.25-1.455l.179-.525a18.821,18.821,0,0,1,2.355.78,9.333,9.333,0,0,0,1.17-1.125l-5.46.045v-.66l5.625-.045.42-.24,1.381.93a9.081,9.081,0,0,1-2.431,1.41l.345.18-.465.7h2.91v6.135c0,1.62-1.62,1.664-3,.645l.135-.51c1.41.345,1.575.18,1.575-.525v-1.02h-1.995v2.775h-1.26v-2.76h-2Zm0-6.945v1.335h2v-1.335Zm2,3.4v-1.425h-2v1.425Zm3.255-3.4h-1.995v1.335h1.995Zm0,3.4v-1.425h-1.995v1.425Z" fill="#4d4d4d"/>
      <path id="Path_308" data-name="Path 308" d="M3096.232,1927.96a50.654,50.654,0,0,1-.69,9.03c-.315,1.125-1.59,1.724-3.66-.075l.24-.5c1.784.646,2.069.555,2.28-.4a45.343,45.343,0,0,0,.465-7.379h-1.29c-.059,4.32-1.274,7.859-4.559,9.794l-.316-.449a7.958,7.958,0,0,0,1.335-1.321,35.631,35.631,0,0,1-5.97,1.26l-.344-1.425c.914-.044,1.965-.1,3.014-.194v-1.26H3084.1v-.675h2.639v-1.035h-2.864v-.675h2.864v-.945h-2.565V1929.2h2.565v-.945h-1.62v-1.845h-1.455v-.675h1.455v-1.335h1.26v1.335h2.16v-1.335h1.26v1.335h1.56v.675h-1.56v1.845h-1.755v.945h2.685v2.505h-2.685v.945h2.851v.675h-2.851v1.035h2.521v.675h-2.521v1.155c.9-.09,1.771-.195,2.55-.316,1.11-1.814,1.575-4.154,1.575-7.244h-1.694v-.675h1.694v-3.54h1.41v3.54Zm-9.48,3.075v-1.155h-1.32v1.155Zm1.785-3.45v-1.17h-2.16v1.17Zm-.48,3.45h1.41v-1.155h-1.41Z" fill="#4d4d4d"/>
      <path id="Path_309" data-name="Path 309" d="M3105.907,1927.045v1.65h5.115v8.144c0,1.516-1.29,2.01-3.706.51l.151-.524c1.875.449,2.205.314,2.205-.436v-7.019h-8.744v8.924h-1.351v-9.6h4.935v-1.65h-5.865v-.675h5.865v-1.95h1.41v1.95h5.939v.675Zm3.329,7.755h-3.314v3h-1.32v-3h-3.209v-.675h3.209v-1.47h-3.03v-.675h1.965a11.444,11.444,0,0,0-1.2-2.145l.4-.36a9.5,9.5,0,0,1,2.04,1.995l-.764.51h1.74a13.7,13.7,0,0,0,1.019-2.55l1.38.675a15.989,15.989,0,0,1-1.7,1.875h2.58v.675h-3.12v1.47h3.314Z" fill="#4d4d4d"/>
      <path id="Path_310" data-name="Path 310" d="M3117.457,1930.915v7.469h-1.289v-6.524a12.975,12.975,0,0,1-2.4,3.735l-.375-.345a18.329,18.329,0,0,0,2.519-6.09h-2.25v-.675h2.506v-2.175c-.826.15-1.636.255-2.326.315l-.1-.51a14.791,14.791,0,0,0,4.785-1.875l1.065,1.17a17.114,17.114,0,0,1-2.13.63v2.445h2.13v.675h-2.13v.885a16.025,16.025,0,0,1,2.325,2.01l-1.065.99C3118.417,1932.46,3117.922,1931.65,3117.457,1930.915Zm7.44,2.535v4.784h-1.32v-4.484c-1.6.36-3.225.72-4.83,1.05l-.225-.675c1.68-.345,3.375-.7,5.055-1.08v-8.6h1.32v8.3c.615-.15,1.246-.285,1.86-.435l.181.66C3126.262,1933.135,3125.572,1933.3,3124.9,1933.45Zm-4.965-3.93a10.8,10.8,0,0,1,2.759,2.235l-1.138,1.005a23.658,23.658,0,0,0-2-2.85Zm1.965-.705a27.722,27.722,0,0,0-2.1-2.61l.33-.4a11.149,11.149,0,0,1,2.79,2.01Z" fill="#4d4d4d"/>
      <path id="Path_311" data-name="Path 311" d="M3131.032,1934.53l.5.21a10.293,10.293,0,0,1-1.529,3.7l-1.351-.944A9.685,9.685,0,0,0,3131.032,1934.53Zm-.014-3.975h-2.145v-.675h2.145v-2.2a9.251,9.251,0,0,1-1.741,1.41l-.344-.42a13.206,13.206,0,0,0,2.954-4.47l1.381.615a10.058,10.058,0,0,1-1.141,1.65h8.955v.675h-1.635v2.745h2.475v.675h-2.475v2.97h2.235v.675h-12.674v-.675h2.01Zm2.459-.675v-2.745h-1.26v2.745Zm0,.675h-1.26v2.97h1.26Zm.045,4.155a17,17,0,0,1,1.486,3.194l-1.516.39c-.1-.9-.255-2.369-.48-3.4Zm2.34-4.83v-2.745h-1.245v2.745Zm0,.675h-1.245v2.97h1.245Zm.48,4.095a13.374,13.374,0,0,1,2.1,2.939l-1.439.661a24.913,24.913,0,0,0-1.125-3.331Zm1.905-7.515H3137v2.745h1.245Zm0,3.42H3137v2.97h1.245Zm3.72,6.915-1.455.734a19.7,19.7,0,0,0-1.47-3.464l.435-.3A14.657,14.657,0,0,1,3141.967,1937.47Z" fill="#4d4d4d"/>
      <path id="Path_312" data-name="Path 312" d="M3144.938,1934.08a10.681,10.681,0,0,1-.3,3.989l-1.365-.585a7.853,7.853,0,0,0,1.17-3.464Zm-.406-1.935a26.945,26.945,0,0,0,1.441-2.805,12.687,12.687,0,0,1-2.086.63l-.329-1.23c.269,0,.54.015.78,0a30.1,30.1,0,0,0,1.215-4.425l1.349.435a31.788,31.788,0,0,1-1.964,3.975,12.581,12.581,0,0,0,1.334-.12c.271-.645.525-1.35.765-2.1l1.245.57a25.774,25.774,0,0,1-3.135,5.01c.51-.075,1.021-.165,1.621-.285-.106-.345-.225-.675-.346-.99l.391-.225a10.973,10.973,0,0,1,1.469,2.415l-1.08.45q-.112-.517-.27-1.08a16.353,16.353,0,0,1-3.045,1.185l-.494-1.335C3143.813,1932.2,3144.172,1932.175,3144.532,1932.145Zm1.455,1.71a32.79,32.79,0,0,1,.87,3.419l-1.2.18c-.014-.749-.059-2.549-.149-3.524Zm2.5,2.4-1.125.436c-.165-.735-.465-2.025-.765-2.97l.435-.165A16.666,16.666,0,0,1,3148.492,1936.254Zm8.625.256-.36,1.365a18.108,18.108,0,0,1-3.12.1c-1.98-.1-3.045-.556-3.705-2.115a11.634,11.634,0,0,1-1.3,2.595l-.99-.72a12.71,12.71,0,0,0,1.621-2.1v-3.689h-1.381v-.7h2.641v4.47c.854,1.11,1.529,1.005,3.209,1.049A17.226,17.226,0,0,0,3157.117,1936.51Zm-9-11.745.24-.375a8.938,8.938,0,0,1,2.325,1.3l-.795,1.02A22.048,22.048,0,0,0,3148.117,1924.765Zm2.43,4.23-.9.87a16.14,16.14,0,0,0-1.41-1.98l.3-.375A8.538,8.538,0,0,1,3150.547,1928.995Zm-.09-1.17a9.713,9.713,0,0,0,1.859-3.51l1.17.375c-.164.345-.343.675-.524.975l1.694-.015.316-.2,1.094.6a7.978,7.978,0,0,1-1.589,2.325,8.272,8.272,0,0,0,2.461.825l-.676,1.2a6,6,0,0,1-2.5-1.4,10.568,10.568,0,0,1-3.525,1.665l-.179-.495a8.289,8.289,0,0,0,3.058-1.845,5.831,5.831,0,0,1-.944-1.53,7.819,7.819,0,0,1-1.38,1.35Zm2.535,8.55v-1.47h-2.22v-.645h2.22v-1.08h-1.71v-.63h1.71v-1.065h-1.965v-.63h1.965V1929.7h1.231v1.155h1.965v.63h-1.965v1.065h1.619v.63h-1.619v1.08h2.34v.645h-2.34v1.47Zm-.405-10.125-.1.15a4.9,4.9,0,0,0,1.14,1.41,5.422,5.422,0,0,0,1.021-1.575Z" fill="#4d4d4d"/>
      <path id="Path_313" data-name="Path 313" d="M3161.977,1932.31v4.68c0,1.3-1.035,1.889-3.3.434l.149-.495c1.575.375,1.89.285,1.89-.419v-3.585c-.6.27-1.185.525-1.709.7l-.51-1.41c.69-.135,1.454-.3,2.219-.495v-3.18h-2.084v-.675h2.084v-3.45h1.26v3.45h1.77v.675h-1.77v2.82a15.625,15.625,0,0,0,1.5-.525l.2.48C3163.178,1931.65,3162.592,1931.98,3161.977,1932.31Zm8.009.735a6.7,6.7,0,0,1-1.214,2.624,15.145,15.145,0,0,1,2.7,1.5l-.945,1.275a19.564,19.564,0,0,0-2.535-1.964,9.492,9.492,0,0,1-5.429,1.919l-.135-.524a8.638,8.638,0,0,0,4.558-1.98,16.6,16.6,0,0,0-1.724-.825c-.24.434-.465.825-.645,1.125l-1.095-.54c.39-.645.93-1.62,1.41-2.61h-2.325v-.675h2.64a13.758,13.758,0,0,0,.66-1.65l1.245.405c-.134.375-.315.8-.525,1.245h5.234v.675Zm-1.229-5.955h-5.4v-.675h4a21.128,21.128,0,0,0-2.069-1.65l.226-.45a10.6,10.6,0,0,1,2.819,1.14l-.69.96h3.63v.675h-2.445l1.365.54a17.829,17.829,0,0,1-1.65,2.325h3.24v.675h-8.775v-.675h2.506a19.638,19.638,0,0,0-.991-2.46l.481-.27a9.559,9.559,0,0,1,1.784,2.265l-.87.465h1.92A23.1,23.1,0,0,0,3168.757,1927.09Zm-.194,5.955h-2.25l-.781,1.53a16.988,16.988,0,0,1,2.055.63A6.631,6.631,0,0,0,3168.563,1933.045Z" fill="#4d4d4d"/>
      <path id="Path_314" data-name="Path 314" d="M3180.307,1935.429h-2.549v2.91h-1.291v-2.91h-3.015v-.674h3.015v-1.38h-2.25v-5.16h2.265v-1.3h-2.8v-.675h2.8v-1.875h1.29v1.875h2.625v.675h-2.625v1.3h2.22v5.16h-2.234v1.38h2.549Zm-3.795-6.539h-1.094v1.41h1.094Zm0,2.04h-1.094v1.77h1.094Zm1.17-.63h1.14v-1.41h-1.14Zm1.14,2.4v-1.77h-1.14v1.77Zm6.405,5.294c-1.379,0-1.515-.51-1.515-1.919v-7.635h-.976c-.089,4.7-.614,7.979-3.659,10.109l-.345-.42c2.265-2.174,2.61-4.529,2.67-9.689h-1.1v-.675h1.1v-3.33l1.35.015v3.315h2.3v8.1c0,.78.1.855.42.855.51,0,.54-.061.48-2.61h.539C3187.537,1937.875,3186.787,1937.994,3185.227,1937.994Z" fill="#4d4d4d"/>
      <path id="Path_315" data-name="Path 315" d="M3193.9,1933.915a2.968,2.968,0,0,0,1.906-2.4,1.565,1.565,0,0,1-.511.075,1.134,1.134,0,0,1-1.2-1.2,1.146,1.146,0,0,1,1.215-1.2c.916,0,1.515.555,1.515,1.68a3.446,3.446,0,0,1-2.61,3.465Z" fill="#4d4d4d"/>
      <path id="Path_316" data-name="Path 316" d="M3207.457,1930.915v7.469h-1.289v-6.524a12.975,12.975,0,0,1-2.4,3.735l-.375-.345a18.329,18.329,0,0,0,2.519-6.09h-2.25v-.675h2.506v-2.175c-.826.15-1.636.255-2.326.315l-.1-.51a14.791,14.791,0,0,0,4.785-1.875l1.065,1.17a17.114,17.114,0,0,1-2.13.63v2.445h2.13v.675h-2.13v.885a16.025,16.025,0,0,1,2.325,2.01l-1.065.99C3208.417,1932.46,3207.922,1931.65,3207.457,1930.915Zm7.44,2.535v4.784h-1.32v-4.484c-1.6.36-3.225.72-4.83,1.05l-.225-.675c1.68-.345,3.375-.7,5.055-1.08v-8.6h1.32v8.3c.615-.15,1.246-.285,1.86-.435l.181.66C3216.262,1933.135,3215.572,1933.3,3214.9,1933.45Zm-4.965-3.93a10.8,10.8,0,0,1,2.759,2.235l-1.138,1.005a23.658,23.658,0,0,0-2-2.85Zm1.965-.705a27.722,27.722,0,0,0-2.1-2.61l.33-.4a11.149,11.149,0,0,1,2.79,2.01Z" fill="#4d4d4d"/>
      <path id="Path_317" data-name="Path 317" d="M3222.127,1932.445l-.015,4.545c0,1.3-1.035,1.889-3.3.434l.15-.495c1.574.375,1.89.285,1.89-.419v-3.525c-.616.24-1.23.435-1.861.63l-.434-1.47c.825-.12,1.575-.225,2.295-.375V1928.6h-2.146v-.675h2.146v-3.48h1.29l-.016,3.48h1.785v.675h-1.785v2.9c.436-.1.885-.24,1.336-.375l.194.51Q3222.892,1932.085,3222.127,1932.445Zm9.029,5.759a10,10,0,0,1-3.763-2.174,12.068,12.068,0,0,1-5.026,2.309l-.179-.51a11.448,11.448,0,0,0,4.455-2.624,10.072,10.072,0,0,1-1.891-4.455h-1v-.675h2.819V1927.6h-3v-.675h3v-2.475h1.351v2.475h3.45v.675h-3.45v2.475h1.065l.36-.24,1.365.675a12.834,12.834,0,0,1-2.4,4.62,12.721,12.721,0,0,0,3.765,1.515Zm-3.795-3.824a10.741,10.741,0,0,0,1.681-3.63h-3.75A7.815,7.815,0,0,0,3227.361,1934.38Z" fill="#4d4d4d"/>
      <path id="Path_318" data-name="Path 318" d="M3237.893,1934.065v4.26h-1.321v-3.855a9.881,9.881,0,0,1-2.8,2.82l-.33-.421a11.581,11.581,0,0,0,2.82-4.064h-2.4v-.645h2.715v-1.47h1.321v1.47h2.519v.645h-2.519v.48a11.266,11.266,0,0,1,2.414,1.874l-.959.931C3238.867,1935.325,3238.357,1934.679,3237.893,1934.065Zm2.774-3.675h-7.02v-.675h1.965a24.063,24.063,0,0,0-.944-2.34l.449-.3a10.475,10.475,0,0,1,1.7,2.19l-.871.45h1.755a15.244,15.244,0,0,0,.6-2.67l1.35.435a13.032,13.032,0,0,1-1.365,2.235h2.385Zm-.36-3.42h-6.434v-.66h3.135a21.255,21.255,0,0,0-1.666-1.62l.27-.45a10.311,10.311,0,0,1,2.5,1.26l-.615.81h2.8Zm6.585,3.045h-1.545v8.249h-1.32v-8.249h-1.711v.6c0,3.87-.779,6.284-2.638,7.875l-.406-.361c1.425-1.754,1.7-3.854,1.7-7.019v-5.55l1.245.33a9.383,9.383,0,0,0,3.06-1.5l1.291,1.095a17.164,17.164,0,0,1-4.247.945v2.91h4.576Z" fill="#4d4d4d"/>
      <path id="Path_319" data-name="Path 319" d="M3254.572,1929.16v-.84h-4.14v-2.64h4.14v-1.305h1.321v1.305h4.2v2.64h-4.2v.84h5.939v.675h-13.2v-.675Zm-1.05,6.675,1.4.9a20.836,20.836,0,0,1-6.044,1.815l-.166-.525A14.876,14.876,0,0,0,3253.522,1935.835Zm6.45-5.265v5.19H3250.6v-5.19Zm-5.4-4.215h-2.849v1.29h2.849Zm4.11,4.89h-6.78v.81h6.78Zm0,1.455h-6.78v.855h6.78Zm0,1.5h-6.78v.885h6.78Zm-2.924,2.264.135-.524a24.209,24.209,0,0,1,5.548,1.229l-.66,1.335A41.453,41.453,0,0,0,3255.758,1936.464Zm3.044-10.109h-2.909v1.29h2.909Z" fill="#4d4d4d"/>
      <path id="Path_320" data-name="Path 320" d="M3276.861,1937.125v.674h-13.183v-.674h2.295v-6.66h3.314l.09-.99h-5.43v-.675h5.491l.089-.96h-4.769v-2.82h10.978v2.82h-4.92l-.089.96h5.836v.675h-5.9l-.09.99h3.9v6.66Zm-8.879-11.43h-1.935v1.47h1.935Zm5.175,5.445h-5.865v.96h5.865Zm0,1.59h-5.865v1.02h5.865Zm0,1.65h-5.865v1.035h5.865Zm0,1.664h-5.865v1.081h5.865Zm-3.915-8.879h1.965v-1.47h-1.965Zm3.225,0h1.98v-1.47h-1.98Z" fill="#4d4d4d"/>
      <path id="Path_321" data-name="Path 321" d="M3281.032,1932.1c0,2.745-.405,4.95-2.069,6.314l-.42-.345c.914-1.214,1.17-2.714,1.17-5.669v-3h2.055l-.135-.315a21.464,21.464,0,0,0,3.239-1.02,25.038,25.038,0,0,0-2.58-.72l.12-.495a24.5,24.5,0,0,1,3.585.675,7.65,7.65,0,0,0,1.364-.9h-7.949v-.675h6.315c-.661-.4-1.59-.93-2.16-1.215l.135-.495a15.584,15.584,0,0,1,3.21.855l-.51.855h4.98v.675h-2.64l.255.165a10.742,10.742,0,0,1-1.694,1.11,23.6,23.6,0,0,1,2.34.81l-.436.69h2.58v.675h-10.755Zm10.77,4.995v.675h-11.085v-.675h5.07v-1.86h-3.255v-.675h3.255v-1.545h-2.474a10.9,10.9,0,0,1-2.01,2.355l-.346-.405a10.62,10.62,0,0,0,1.936-4.35l1.334.405a11.869,11.869,0,0,1-.539,1.32h2.1v-1.74h1.231v1.74h3.914v.675h-3.914v1.545h3.434v.675h-3.434v1.86Zm-9.075-7.695h5.416c-.736-.345-1.441-.645-2.131-.915A19.745,19.745,0,0,1,3282.727,1929.4Z" fill="#4d4d4d"/>
      <path id="Path_322" data-name="Path 322" d="M3300.907,1927.945a12.841,12.841,0,0,1-1.094,1.725h5.114v8.639h-1.441v-1.035h-6.269v1.081h-1.44v-8.685h3.315a16.014,16.014,0,0,0,.27-1.725h-5.684v-.825h4.379c-.48-.96-.975-1.74-1.469-2.565l.389-.39a11.539,11.539,0,0,1,2.445,2.325l-.93.63h2.79a15.132,15.132,0,0,0,1.17-2.88l1.56.615a12.514,12.514,0,0,1-1.98,2.265h4.784v.825Zm2.579,2.4h-6.269v1.56h6.269Zm0,2.235h-6.269v1.65h6.269Zm0,2.325h-6.269v1.694h6.269Z" fill="#4d4d4d"/>
      <path id="Path_323" data-name="Path 323" d="M3310.4,1935.669v-3.449h-1.724v-.675h3.045v4.094c.824,1.3,2.715,1.095,4.049,1.095a59.15,59.15,0,0,0,6.464-.359l-.539,1.44c-1.6.1-4.185.119-6,.044-3.075-.119-3.96-.734-4.59-1.98a10.591,10.591,0,0,1-1.769,2.625l-.916-.929A11.806,11.806,0,0,0,3310.4,1935.669Zm-1.8-7.679.284-.465a11.631,11.631,0,0,1,2.775,1.8l-.96,1.1A23.434,23.434,0,0,0,3308.6,1927.99Zm.569-3.1.3-.465a10.559,10.559,0,0,1,2.8,1.665l-.915,1.08A25.37,25.37,0,0,0,3309.172,1924.885Zm5.43,8.16v-1.335h-1.83v-.675h1.83v-1.17h1.23v1.17h2.07v-1.17h1.23v1.17h1.995v.675h-1.995v1.335h2.535v.675h-9.329v-.675Zm.765.795,1.231.7a11.266,11.266,0,0,1-3.916,1.756l-.254-.48A8.907,8.907,0,0,0,3315.367,1933.84Zm-.33-5.34c.735,0,.93,0,1.26-.525l.7.69c-.375.7-.93.825-1.98.825-1.7,0-2.25-.075-2.25-1.515v-2.715h3.615v2.3h-2.445v.345C3313.942,1928.515,3314.242,1928.5,3315.037,1928.5Zm-1.1-2.61v1.035h1.335v-1.035Zm3.96,5.82h-2.07v1.335h2.07Zm1.56-3.21c.87,0,1.02,0,1.351-.51l.689.7c-.359.66-1.02.8-2.145.8-1.589,0-2.175-.1-2.175-1.515v-2.715h3.69v2.3h-2.52v.345C3318.352,1928.515,3318.682,1928.5,3319.462,1928.5Zm-2.159,5.925.179-.51a16.529,16.529,0,0,1,4,1.2l-.705,1.23A34.77,34.77,0,0,0,3317.3,1934.425Zm1.049-8.535v1.035h1.41v-1.035Z" fill="#4d4d4d"/>
      <path id="Path_324" data-name="Path 324" d="M3328.357,1931.38a1.981,1.981,0,0,1,.555-1.425,1.824,1.824,0,0,1,1.365-.6,2.028,2.028,0,0,1,0,4.05A1.987,1.987,0,0,1,3328.357,1931.38Zm3.1,0a1.21,1.21,0,0,0-1.185-1.245,1.253,1.253,0,0,0-.825,2.13,1.082,1.082,0,0,0,.825.36A1.21,1.21,0,0,0,3331.462,1931.38Z" fill="#4d4d4d"/>
    </g>
    <g id="Group_20" data-name="Group 20" transform="translate(-3045.919 -0.053)">
      <path id="Path_325" data-name="Path 325" d="M3108.731,1740.464v10.814h-1.867v-9.446a18.739,18.739,0,0,1-3.474,5.407l-.543-.5a26.507,26.507,0,0,0,3.648-8.816h-3.257v-.977h3.626V1733.8c-1.194.217-2.367.37-3.366.456l-.151-.738a21.421,21.421,0,0,0,6.925-2.714l1.543,1.694a24.988,24.988,0,0,1-3.084.912v3.539h3.084v.977h-3.084v1.281a23.168,23.168,0,0,1,3.366,2.91l-1.541,1.433C3110.121,1742.7,3109.4,1741.528,3108.731,1740.464Zm10.77,3.67v6.926h-1.911v-6.492c-2.323.521-4.668,1.042-6.991,1.52l-.327-.977c2.433-.5,4.886-1.021,7.318-1.563v-12.442h1.911v12.007c.891-.217,1.8-.412,2.692-.629l.261.955C3121.477,1743.678,3120.479,1743.917,3119.5,1744.134Zm-7.187-5.689a15.71,15.71,0,0,1,4,3.235l-1.651,1.455a34.374,34.374,0,0,0-2.887-4.125Zm2.844-1.021a39.833,39.833,0,0,0-3.04-3.778l.479-.586a16.161,16.161,0,0,1,4.038,2.91Z" fill="#182c80"/>
      <path id="Path_326" data-name="Path 326" d="M3134.3,1742.679l-.023,6.579c0,1.889-1.5,2.736-4.776.63l.217-.717c2.28.543,2.736.413,2.736-.608v-5.1c-.891.347-1.78.629-2.692.912l-.63-2.128c1.194-.174,2.28-.326,3.322-.543v-4.582h-3.1v-.977h3.1v-5.037h1.867l-.021,5.037h2.584v.977H3134.3v4.191c.629-.152,1.28-.347,1.932-.543l.283.739Q3135.41,1742.158,3134.3,1742.679Zm13.071,8.338a14.491,14.491,0,0,1-5.45-3.149,17.431,17.431,0,0,1-7.275,3.344l-.259-.738a16.556,16.556,0,0,0,6.448-3.8,14.562,14.562,0,0,1-2.735-6.449h-1.456v-.977h4.083v-3.582h-4.343v-.977h4.343v-3.583h1.954v3.583h4.994v.977h-4.994v3.582h1.542l.52-.347,1.977.977a18.6,18.6,0,0,1-3.475,6.688,18.424,18.424,0,0,0,5.45,2.193Zm-5.494-5.537a15.578,15.578,0,0,0,2.433-5.255h-5.429A11.305,11.305,0,0,0,3141.88,1745.48Z" fill="#182c80"/>
      <path id="Path_327" data-name="Path 327" d="M3174.485,1747.456l-.912,2.54a49.742,49.742,0,0,1-6.448.2c-4.582-.109-6.471-2.085-7.4-4.321-1.129-2.736-1.042.977-2.281,4.82l-2.279-1.194c2.627-4.147,3.365-8.012,5.059-4.712.087.2.2.369.3.565,3.083-2.063,6.666-5.429,8.4-8.62H3156.29v-1.195h12.658l.891-.586,2.389,1.368a28.252,28.252,0,0,1-11.248,9.771c.847,1.107,2.345,2.041,6.232,2.041A45.771,45.771,0,0,0,3174.485,1747.456Zm-14.113-16.089.435-.717a23.451,23.451,0,0,1,5.406,2.823l-1.585,1.932A55.9,55.9,0,0,0,3160.372,1731.367Z" fill="#182c80"/>
      <path id="Path_328" data-name="Path 328" d="M3189.591,1738.163h3.083v.977h-3.821a18.3,18.3,0,0,1-2.084,2.171h4.625v9.771h-1.869v-1.563h-3.734v1.65h-1.867v-7.795c-.76.478-1.52.868-2.3,1.259l-.369-.694a19.215,19.215,0,0,0,5.624-4.8h-5.342v-.977h3.757v-2.91h-2.932v-.977h2.932v-3.148h1.91v3.148h2.541c.261-.586.478-1.216.7-1.846l1.758.717A22.94,22.94,0,0,1,3189.591,1738.163Zm-.066,4.125h-3.734v2.541h3.734Zm0,3.453h-3.734v2.8h3.734Zm-1.91-7.578a22.506,22.506,0,0,0,1.694-2.91H3187.2v2.91Zm7.817,8.859.26-.739c2.368.63,2.627.109,2.432-2.084a10.762,10.762,0,0,0-2.062-4.951,32.492,32.492,0,0,0,1.563-5.927h-2.692v17.891h-1.868v-19.346l1.868.478h2.431l.543-.348,1.846.912a23.533,23.533,0,0,1-2.91,6.3c1.629,1.846,2.715,3.322,3.061,5.189C3200.708,1748.737,3197.321,1748.824,3195.432,1747.022Z" fill="#182c80"/>
      <path id="Path_329" data-name="Path 329" d="M3226.865,1747.217l-1.476,2.541a17.8,17.8,0,0,1-7.405-7.578v9.141H3215.9v-9.055a20.625,20.625,0,0,1-8.295,7.47l-.433-.717a22.81,22.81,0,0,0,7.469-8.012h-6.753v-1.194h8.012v-3.431h-6.492V1735.3h6.492v-4.191h2.084v4.191h6.407v1.085h-6.407v3.431h8.056v1.194h-7.664A17.836,17.836,0,0,0,3226.865,1747.217Z" fill="#182c80"/>
      <path id="Path_330" data-name="Path 330" d="M3252.48,1747.456l-1.434,2.389a18,18,0,0,1-7.1-7.253v8.664h-2v-7.882a21.012,21.012,0,0,1-8.1,6.514l-.348-.717a23.562,23.562,0,0,0,7.556-7.382l-1.2.825c-.412-1.064-.889-2.063-1.3-2.888a11.44,11.44,0,0,1-3.8,5.081l-.521-.586a13.144,13.144,0,0,0,3.1-8.186l2.063.391a21.493,21.493,0,0,1-.478,2.171,16.285,16.285,0,0,1,2.432,2.671,10.384,10.384,0,0,0,.586-1.238v-4.6h-7.665v-1.194h7.665v-3.192h2v3.192h7.751v1.194h-7.751v5.428c.283.391.565.76.847,1.086a12.849,12.849,0,0,0,2.084-5.949l2.041.521a17.248,17.248,0,0,1-.8,2.214,19.515,19.515,0,0,1,3.193,2.845l-1.52,1.411a32.254,32.254,0,0,0-2.128-3.322,10.52,10.52,0,0,1-2.28,2.975A17.4,17.4,0,0,0,3252.48,1747.456Z" fill="#182c80"/>
      <path id="Path_331" data-name="Path 331" d="M3270.081,1735.405v3.561h6.275v7.752c0,2.323-2.366,2.714-5.232.716l.217-.738c2.627.565,3.018.369,3.018-.608v-6.145h-4.278V1751.3h-2.041v-11.356h-4.19v9.359h-2v-10.336h6.187v-3.561h-8.489v-1.086h9.554a42.11,42.11,0,0,0-3.127-2.952l.347-.717a19.072,19.072,0,0,1,4.6,2.3l-1.065,1.368h8.664v1.086Z" fill="#182c80"/>
      <path id="Path_332" data-name="Path 332" d="M3121.781,1768.987l-1.976,1.346c-.434-.869-.955-1.824-1.564-2.823a131.413,131.413,0,0,1-13.636,1.954l-.629-2.388c1,.043,2,.065,3.018.065a31.921,31.921,0,0,0,4.082-7.274l2.259,1.086a38.534,38.534,0,0,1-5.06,6.188c3.474-.022,6.905-.239,9.467-.456-.694-1.064-1.455-2.193-2.323-3.344l.63-.543A33.329,33.329,0,0,1,3121.781,1768.987Zm-15.46,2.236H3119.2v8.968h-2.041v-1.607h-8.794v1.585h-2.041Zm2.041,6.362h8.794V1772.2h-8.794Z" fill="#182c80"/>
      <path id="Path_333" data-name="Path 333" d="M3131.588,1769.139a36.366,36.366,0,0,0-2.584-3.279l.435-.63a15.267,15.267,0,0,1,3.517,2.454Zm.564,1.389.761.239a83.092,83.092,0,0,1-1.672,8.447l-2.106-.869C3130.09,1776.326,3131.284,1773.09,3132.152,1770.528Zm.261-6.991c-.955-1.173-1.91-2.128-2.779-3.019l.39-.608a16.6,16.6,0,0,1,3.692,2.15Zm1.716,7.491-1.194-.673a7.717,7.717,0,0,0,1.389-2.606l.543.174A10.011,10.011,0,0,1,3134.129,1771.028Zm0-7.47a24.4,24.4,0,0,0,.934-3.539l1.432.434c-.586,1.216-1.107,2.28-1.606,3.084.369-.022.759-.044,1.15-.087a17.187,17.187,0,0,0,.695-1.629l1.2.587v-.543h2.909a16.784,16.784,0,0,0-1.759-1.433l.239-.543a9.336,9.336,0,0,1,2.649,1.129l-.586.847h2.215v.868h-5.667v-.043a21.632,21.632,0,0,1-2.78,3.517,17.267,17.267,0,0,0,1.781-.347c-.109-.261-.217-.543-.348-.8l.456-.26a7.175,7.175,0,0,1,1.5,2l-1.063.5c-.087-.282-.2-.565-.3-.847a15.78,15.78,0,0,1-3.5,1.26l-.413-1.3c.369-.022.717-.044,1.064-.087a16.044,16.044,0,0,0,1.259-2,11.031,11.031,0,0,1-1.91.478l-.261-1.259C3133.651,1763.537,3133.89,1763.558,3134.129,1763.558Zm2.584,11.66H3148a17.586,17.586,0,0,1-.912,3.691c-.825,1.933-2.693,2-5.95-.2l.283-.716c3.126.933,3.495,1.107,4.038-.131a8.621,8.621,0,0,0,.413-1.715h-9.555c-.2.456-.369.912-.564,1.346l-1.823-.369a31.618,31.618,0,0,0,1.845-4.712l1.672.782h7.577v-1.194h-10.313v-.934h12.095v3h-9.663C3137.017,1774.458,3136.864,1774.849,3136.713,1775.218Zm-.912-7.534a14.649,14.649,0,0,1,1.02,2.584l-1.259.282c-.043-.912-.152-1.824-.283-2.714Zm1.585,2.41a22.215,22.215,0,0,0-.847-2.562l.478-.261a10.939,10.939,0,0,1,1.563,2.324Zm5.493-5.732h-4.233v-.825h4.233Zm0,1.671h-4.233v-.824h4.233Zm-4.125,4.126v-3.279h4.125v3.279Zm1.194-.8h1.715v-1.694h-1.715Zm3.126.977a8.069,8.069,0,0,0,1.216-2.541l.565.152a9.339,9.339,0,0,1-.651,2.932Zm.869-6.883a19.454,19.454,0,0,0,.934-3.583l1.39.413a21.716,21.716,0,0,1-1.608,3.17c.369-.022.761-.044,1.173-.087.261-.586.5-1.173.717-1.737l1.368.608a23.292,23.292,0,0,1-2.889,3.952,16.723,16.723,0,0,0,1.8-.3c-.131-.326-.261-.673-.413-1l.435-.282a8.177,8.177,0,0,1,1.542,2.149l-1.108.543-.261-.847a18.566,18.566,0,0,1-3.5,1.216l-.412-1.368c.391,0,.76-.021,1.086-.043a15.076,15.076,0,0,0,1.259-2.085,8.644,8.644,0,0,1-1.889.456l-.3-1.194C3143.509,1763.45,3143.726,1763.45,3143.943,1763.45Zm1.759,4.19a13.307,13.307,0,0,1,1,2.606l-1.237.3a26.279,26.279,0,0,0-.261-2.758Zm1.651,2.519a26.452,26.452,0,0,0-1.065-2.584l.435-.282a10.2,10.2,0,0,1,1.736,2.258Z" fill="#182c80"/>
      <path id="Path_334" data-name="Path 334" d="M3161.5,1778.171v-1.65h-2.41v2.519h-1.781v-8.425a16.1,16.1,0,0,1-1.78,2.345l-.587-.543a19.4,19.4,0,0,0,3.127-9.836h-2.714v-1.02h9.272v1.02h-4.56a18.366,18.366,0,0,1-1.476,5.624h4.689v9.966Zm0-2.584v-6.448h-2.41v6.448Zm12.594-12.029c-1.151,8.751-5.255,14.722-10.661,16.937l-.413-.673c5.146-3.062,7.817-8.751,8.664-15.46h-3.822a26.029,26.029,0,0,1-1.3,3.387,12.716,12.716,0,0,1,3.149,2.975l-1.65,1.3a31.476,31.476,0,0,0-1.954-3.387,14.653,14.653,0,0,1-2.107,3.018l-.586-.542c1.715-2.8,2.627-6.428,3.148-11.335l2.258.391a31.17,31.17,0,0,1-.672,3.214h3.322l.543-.5Z" fill="#182c80"/>
      <path id="Path_335" data-name="Path 335" d="M3201.077,1770.962l-1.368,2.367a16.617,16.617,0,0,1-8.468-7.339,22.467,22.467,0,0,1-9.923,7.47l-.369-.695a21.2,21.2,0,0,0,9.163-9.38l2.28.846c-.2.348-.412.7-.629,1.021C3193.8,1767.836,3196.583,1769.681,3201.077,1770.962Zm-18.869-3.712-.412-.674a21.431,21.431,0,0,0,5.537-6.427l2.106,1.216A22.737,22.737,0,0,1,3182.208,1767.25Zm2.779,4.863h11.987v8.013h-1.954V1778.8h-8.078v1.455h-1.955Zm1.955,5.711h8.078v-4.734h-8.078Zm5.059-16.763.413-.673a29.93,29.93,0,0,1,7.013,4.343l-1.694,1.911A54.566,54.566,0,0,0,3192,1761.061Z" fill="#182c80"/>
      <path id="Path_336" data-name="Path 336" d="M3226.974,1777.086l-.782,2.149c-2.323.152-5.906.217-8.533.109-4.451-.174-5.688-1.194-6.6-2.888a15.941,15.941,0,0,1-2.65,3.865l-1.324-1.346a15.146,15.146,0,0,0,2.953-2.823v-5.1h-2.628v-.977h4.5v6.037c1.2,1.78,3.93,1.519,5.863,1.519A87.868,87.868,0,0,0,3226.974,1777.086Zm-19.2-12.073.413-.673a16.164,16.164,0,0,1,4,2.606l-1.39,1.541A30.991,30.991,0,0,0,3207.779,1765.013Zm1.043-4.234.391-.63a15.588,15.588,0,0,1,4,2.41l-1.368,1.542A31.84,31.84,0,0,0,3208.822,1760.779Zm3.474,7.969a24.676,24.676,0,0,0,3.409-8.881l2.02.565a17.628,17.628,0,0,1-1.216,3.343h3.886a28.339,28.339,0,0,0-1.52-3.365l.651-.478a12,12,0,0,1,2.737,3.17l-1.152.673h4.582v.977h-3.886v2.476h3.5v.977h-3.5v2.584h3.5v.977h-3.5v2.931h4.32v.977h-9.641v1.173h-1.91v-9.641a12.187,12.187,0,0,1-1.716,2.085Zm7.644-4h-3.454v2.476h3.454Zm0,3.453h-3.454v2.584h3.454Zm0,3.561h-3.454v2.931h3.454Z" fill="#182c80"/>
      <path id="Path_337" data-name="Path 337" d="M3238.821,1768.748v11.595h-1.954v-9.532a18.218,18.218,0,0,1-3.257,2.475l-.434-.651a25.531,25.531,0,0,0,6.232-8.469l1.867,1A17.01,17.01,0,0,1,3238.821,1768.748Zm-4.538-1.737-.477-.608a20.885,20.885,0,0,0,4.754-6.6l1.846,1.021A20.8,20.8,0,0,1,3234.283,1767.011Zm18.066.977h-3.8V1778c0,2.345-2.15,3.148-6.166.847l.238-.76c3.562.738,3.887.477,3.887-.739v-9.358h-5.319v-.977h11.16Zm-.977-5.277h-9.12v-.977h9.12Z" fill="#182c80"/>
      <path id="Path_338" data-name="Path 338" d="M3274.576,1778.8c-2.475-2.171-3.626-7.079-4.016-12.659h-10.814v-1.194h10.727c-.087-1.607-.11-3.235-.087-4.864l2.041.044c-.044,1.628-.044,3.257.021,4.82h5.754v1.194h-5.711c.3,4.669,1.194,8.642,3.063,10.575,1.475,1.519,1.411.325,1.432-3.149h.782C3279.44,1778.649,3277.855,1781.689,3274.576,1778.8Zm-3.626-4.278.261.739a50.932,50.932,0,0,1-10.51,3.344l-.738-2.28c1.368-.087,2.888-.261,4.408-.478v-5.276h-4.017v-1.086h9.879v1.086h-3.865v4.95C3268.063,1775.218,3269.669,1774.871,3270.95,1774.523Zm4.929-10.009c-.8-1.2-2.107-2.932-2.822-3.778l.52-.608a18.1,18.1,0,0,1,3.865,2.887Z" fill="#182c80"/>
    </g>
    <line id="Line_3" data-name="Line 3" y2="50.202" transform="translate(38.313 1730.237)" fill="none" stroke="#182c80" stroke-miterlimit="10" stroke-width="3"/>
  </g>
</svg>
