<svg xmlns="http://www.w3.org/2000/svg" width="1341.286" height="108.59" viewBox="0 0 1341.286 108.59">
  <g id="Group_2015" data-name="Group 2015" transform="translate(-288.509 -2957.357)">
    <g id="Group_1014" data-name="Group 1014">
      <path id="Path_1440" data-name="Path 1440" d="M292.607,2972.224v1.85h-2.3v-11h8.248v-4.749h2.4v4.749h8.323v10.847h-2.3v-1.7h-6.024v9.473h-2.4v-9.473Zm5.949-7.9h-5.949v6.7h5.949Zm8.423,0h-6.024v6.7h6.024Z" fill="#4d4d4d"/>
      <path id="Path_1441" data-name="Path 1441" d="M336.477,2978.8l-1.724,2.8a13.638,13.638,0,0,1-9.348-9.8c-1.1,4.374-4.049,8.1-11.3,9.973l-.349-.85c6.023-2.175,8.373-5.7,9.3-9.3h-9.274V2970.5h3.275v-7.823h6.573v-4.349h2.349v4.349h6.449v7.823h3.349v1.125H326.4C328.58,2976.273,332,2977.9,336.477,2978.8Zm-13.2-8.3a26.863,26.863,0,0,0,.35-5v-1.7h-4.374v6.7Zm2.7-6.7v2.224a26.365,26.365,0,0,1-.325,4.474h4.574v-6.7Z" fill="#4d4d4d"/>
      <path id="Path_1442" data-name="Path 1442" d="M343.107,2965.5a18.052,18.052,0,0,1-3.6,4.95l-.624-.625a29.947,29.947,0,0,0,4.273-11.573l2.4.575-.451,1.6a26.017,26.017,0,0,1,4.374,4.873v-1.6h3.125c.175-.849.325-1.923.425-2.723h-5.2v-1.125h12.522v1.125H355.38a28.535,28.535,0,0,1-1.575,2.723h5.148v12.523H349.48V2965.75l-1.749,1.2a38.184,38.184,0,0,0-2.974-5.423c-.35.974-.7,1.924-1.125,2.824a14.9,14.9,0,0,1,3.25,3.724l-1.925,1.174A23.855,23.855,0,0,0,343.107,2965.5Zm3.874,14.072-1.9,1.375a36.059,36.059,0,0,0-4.224-6.2l.55-.65a26,26,0,0,1,2.9,2.35,31.676,31.676,0,0,0,1.8-5.2h-5.823v-1.125h5.724l.6-.424,2.15,1.024a22.619,22.619,0,0,1-3.7,6.474A16.953,16.953,0,0,1,346.981,2979.572Zm5.049-3.024,2,1.424a22.709,22.709,0,0,1-7.647,3.924l-.351-.824A18.556,18.556,0,0,0,352.03,2976.548Zm-.45-9.2H356.8v-2.525H351.58Zm0,3.774H356.8v-2.649H351.58Zm0,3.974H356.8v-2.849H351.58Zm9.548,4.649-1.525,2.025a43.584,43.584,0,0,0-5.124-4.35l.425-.8A25.937,25.937,0,0,1,361.128,2979.747Z" fill="#4d4d4d"/>
      <path id="Path_1443" data-name="Path 1443" d="M363.833,2977.547v-1.124h9.773v-1.9h-6.624v-7.948h6.624v-1.724h-6.423v-1.125h6.423v-2.5h2.3v2.5h6.524v1.125H375.9v1.724h6.524v7.948H375.9v1.9h9.873v1.124H375.9v4.124h-2.3v-4.124Zm21.47-18v5.224h-2.2v-4.1h-16.72v4.1h-2.2v-5.224Zm-11.7,8.148h-4.423v2.224h4.423Zm0,3.274h-4.423v2.425h4.423Zm6.623-3.274H375.9v2.224h4.324Zm0,3.274H375.9v2.425h4.324Z" fill="#4d4d4d"/>
      <path id="Path_1444" data-name="Path 1444" d="M397.581,2974.223a4.942,4.942,0,0,0,3.175-4,2.577,2.577,0,0,1-.851.125,1.888,1.888,0,0,1-2-2,1.909,1.909,0,0,1,2.025-2c1.524,0,2.524.925,2.524,2.8a5.744,5.744,0,0,1-4.349,5.773Z" fill="#4d4d4d"/>
      <path id="Path_1445" data-name="Path 1445" d="M413.809,2970.45l-.425-.776a25.088,25.088,0,0,0,10.272-11.572l2.65,1.225a9.466,9.466,0,0,1-.526.975,25.211,25.211,0,0,0,10.723,6.773l-1.625,2.824c-2.5-.874-7.173-4.824-9.7-8.648A27.194,27.194,0,0,1,413.809,2970.45Zm12.521,9H434.9v1.125h-20.27v-1.125h3.949v-10.073h2.2v10.073h3.249v-14.1h2.3v6.074h5.924v1.125H426.33Z" fill="#4d4d4d"/>
      <path id="Path_1446" data-name="Path 1446" d="M461.278,2978.022,460,2980.6c-2.324-.5-6.823-2.4-9.148-5.1l.026,6.074h-2.2V2975.8c-1.775,1.8-5.623,3.9-9.9,4.8l-.3-.85c2.925-1.025,6.449-2.724,8.649-5.224h-7.924V2973.4h9.473v-1.75h-7v-1.074h7v-1.6h-8.4v-1.125h6.149c-.6-.975-1.35-2-2.025-2.9l.275-.325h-5.1V2963.5h3.85c-.5-1-1.326-2.625-2.125-4.024l.724-.575a18.994,18.994,0,0,1,3.449,3.524l-1.6,1.075h2.75v-5.249h2.149v5.249h2.2v-5.249h2.15v5.249h.75a22.994,22.994,0,0,0,1.8-4.7l2.348,1.149a21.917,21.917,0,0,1-2.9,3.55h5v1.124H453.28l1.674.8a15.971,15.971,0,0,1-2.449,2.425h7v1.125h-8.7v1.6h7.323v1.074h-7.3v1.75h9.623v1.124h-9.022C454.6,2976.823,459.478,2977.8,461.278,2978.022Zm-12.647-10.972-.975.8h3.5a22.153,22.153,0,0,0,1.35-3.225h-6.873A16.129,16.129,0,0,1,448.631,2967.05Z" fill="#4d4d4d"/>
      <path id="Path_1447" data-name="Path 1447" d="M473.506,2976.223a50.735,50.735,0,0,1-9.223,3.874l-.824-2.475c.374-.049.8-.1,1.249-.2V2969.7h1.95v7.373c.374-.1.775-.175,1.174-.275V2966.75h-2.974v-7.4h7.648v7.4h-2.524v3.7h3.324v1.124h-3.324v4.724c1.174-.3,2.3-.625,3.2-.925Zm-6.6-10.6h3.55v-5.148h-3.55Zm19.221,13.047-1.85,2.574c-2.074-1.374-5.6-4.523-6.548-12.072h-1.674v8.349c1.2-.276,2.349-.575,3.4-.9l.324.8a33.413,33.413,0,0,1-8,3.324l-.8-2.374c.925-.1,1.925-.25,2.925-.424v-18.7h9.8v9.922H478.63a14.733,14.733,0,0,0,1.824,4.749,15.225,15.225,0,0,0,2.5-3.774l2.1,1.425a20.147,20.147,0,0,1-4.075,3.1A14.023,14.023,0,0,0,486.128,2978.672Zm-10.072-15.121h5.5v-3.175h-5.5Zm0,4.5h5.5v-3.374h-5.5Z" fill="#4d4d4d"/>
      <path id="Path_1448" data-name="Path 1448" d="M511.352,2978l-.9,2.475c-2.674.175-6.8.25-9.822.125-5.124-.2-6.549-1.375-7.6-3.324a18.359,18.359,0,0,1-3.049,4.448l-1.524-1.549a17.447,17.447,0,0,0,3.4-3.249v-5.874h-3.024v-1.125h5.174v6.948c1.375,2.05,4.524,1.75,6.749,1.75A101.144,101.144,0,0,0,511.352,2978Zm-22.093-13.9.474-.775a18.523,18.523,0,0,1,4.6,3l-1.6,1.775A35.644,35.644,0,0,0,489.259,2964.1Zm1.2-4.874.45-.725a17.9,17.9,0,0,1,4.6,2.775l-1.574,1.774A36.478,36.478,0,0,0,490.458,2959.227Zm4,9.173a28.364,28.364,0,0,0,3.924-10.223l2.324.65a20.068,20.068,0,0,1-1.4,3.849h4.474a32.8,32.8,0,0,0-1.75-3.874l.75-.55a13.833,13.833,0,0,1,3.15,3.649l-1.326.775h5.274v1.125H505.4v2.849h4.025v1.125H505.4v2.974h4.025v1.125H505.4v3.374h4.974v1.124h-11.1v1.35h-2.2v-11.1a13.98,13.98,0,0,1-1.975,2.4Zm8.8-4.6h-3.974v2.849h3.974Zm0,3.974h-3.974v2.974h3.974Zm0,4.1h-3.974v3.374h3.974Z" fill="#4d4d4d"/>
      <path id="Path_1449" data-name="Path 1449" d="M524.806,2980.6a1.762,1.762,0,1,1,0-3.524,1.764,1.764,0,0,1,1.774,1.774A1.745,1.745,0,0,1,524.806,2980.6Zm-.85-5.424-.625-14.847h2.925l-.675,14.847Z" fill="#4d4d4d"/>
      <path id="Path_1450" data-name="Path 1450" d="M550.931,2962.776v2.75h8.522V2979.1c0,2.524-2.149,3.35-6.173.85l.25-.875c3.124.75,3.674.525,3.674-.725v-11.7H542.633v14.872h-2.25v-16h8.223v-2.75h-9.773v-1.124h9.773v-3.25h2.349v3.25h9.9v1.124Zm5.548,12.922h-5.524v5h-2.2v-5h-5.349v-1.124h5.349v-2.45h-5.049V2971h3.274a19.091,19.091,0,0,0-2-3.574l.675-.6a15.829,15.829,0,0,1,3.4,3.324l-1.275.85h2.9a22.814,22.814,0,0,0,1.7-4.249l2.3,1.125a26.787,26.787,0,0,1-2.825,3.124h4.3v1.125h-5.2v2.45h5.524Z" fill="#4d4d4d"/>
      <path id="Path_1451" data-name="Path 1451" d="M570.182,2969.224v12.447h-2.15V2970.8a21.552,21.552,0,0,1-4,6.224l-.625-.575a30.484,30.484,0,0,0,4.2-10.148h-3.749v-1.125h4.174v-3.624c-1.374.25-2.724.425-3.874.525l-.175-.85a24.646,24.646,0,0,0,7.973-3.124l1.775,1.95a28.556,28.556,0,0,1-3.549,1.049v4.074h3.549v1.125h-3.549v1.475a26.727,26.727,0,0,1,3.874,3.349l-1.775,1.65C571.781,2971.8,570.957,2970.45,570.182,2969.224Zm12.4,4.225v7.972h-2.2v-7.472c-2.675.6-5.374,1.2-8.049,1.749l-.375-1.124c2.8-.576,5.624-1.175,8.424-1.8v-14.322h2.2v13.822c1.024-.25,2.074-.475,3.1-.725l.3,1.1C584.853,2972.924,583.7,2973.2,582.579,2973.449Zm-8.273-6.549a18.036,18.036,0,0,1,4.6,3.724l-1.9,1.675a39.319,39.319,0,0,0-3.324-4.749Zm3.274-1.175a46.025,46.025,0,0,0-3.5-4.349l.55-.675a18.578,18.578,0,0,1,4.648,3.35Z" fill="#4d4d4d"/>
      <path id="Path_1452" data-name="Path 1452" d="M601.144,2970.7a9.041,9.041,0,0,0-1.1.075v-1.724c2.774-.2,4.549-1.85,4.724-3.575.15-1.574-1.025-2.449-2.924-2.449a6.54,6.54,0,0,0-4.15,1.575v-2.05a10.4,10.4,0,0,1,4.574-.975c3.924,0,5.224,2.5,5.049,4.024-.225,2.05-2.325,3.325-3.974,3.925v.149c2.224.175,4.649,1.725,4.774,4.15.2,2.324-1.349,5.373-5.648,5.848a13.8,13.8,0,0,1-5.049-.4l-.151-1.15a15.593,15.593,0,0,0,4.624.15,3.929,3.929,0,0,0,3.6-4.3C605.544,2971.9,603.194,2970.649,601.144,2970.7Z" fill="#4d4d4d"/>
      <path id="Path_1453" data-name="Path 1453" d="M624.057,2975.123l2.324,1.3a21.859,21.859,0,0,1-5.6,5.274l-.6-.675A21.944,21.944,0,0,0,624.057,2975.123Zm8.572-.35h-12.2v-1.124h2.374v-10.473h-2.1v-1.125h2.1v-3.574h2.149v3.574h3.4v-3.574h2.15v3.574h2.024v1.125h-2.024v10.473h2.124Zm-4.274-11.6h-3.4v2.574h3.4Zm0,3.649h-3.4v2.75h3.4Zm0,3.824h-3.4v3h3.4Zm3.325,7.6-1.725,1.5a36.155,36.155,0,0,0-2.9-3.974l.6-.675A18.818,18.818,0,0,1,631.68,2978.247ZM641.2,2959.6v19.62c0,2.249-2.024,3.249-6.224.7l.276-.85c3.424.8,3.749.6,3.749-.7v-6.123h-3.525c-.325,3.774-1.349,6.973-4.6,9.472l-.625-.674c3.074-3.2,3.174-7.473,3.174-13.772V2959.6Zm-2.2,11.522v-4.774h-3.374v.525c0,1.475,0,2.9-.075,4.249Zm-3.374-10.4v4.5H639v-4.5Z" fill="#4d4d4d"/>
      <path id="Path_1454" data-name="Path 1454" d="M663.317,2971.074l-.125-.05a4.328,4.328,0,0,1-3.7,2.2,5.26,5.26,0,0,1-5.424-5.4,6.117,6.117,0,0,1,6.149-6.249c3.649,0,5.723,2.7,5.723,7.173,0,6.949-3.8,10.348-10.3,10.973l-.225-1.149C660.692,2977.648,662.867,2974.773,663.317,2971.074Zm-.1-1.9a4.5,4.5,0,0,0,.2-1.249c0-2.475-.85-4.924-3.374-4.924-2.149,0-3.374,2.2-3.374,4.674,0,2.174,1.324,3.749,3.4,3.749A3.232,3.232,0,0,0,663.217,2969.174Z" fill="#4d4d4d"/>
      <path id="Path_1455" data-name="Path 1455" d="M680.092,2966.675c0,3.275-2.35,5.649-6.448,9.423l-1.651,1.524v.151h8.5v1.649H668.819V2978.1l1.975-1.725c4.2-3.673,6.7-6.773,6.7-9.422a3.655,3.655,0,0,0-3.649-3.924,7.018,7.018,0,0,0-4.449,1.849v-2.049a11.469,11.469,0,0,1,4.874-1.25C678.117,2961.576,680.092,2964.276,680.092,2966.675Z" fill="#4d4d4d"/>
      <path id="Path_1456" data-name="Path 1456" d="M692.731,2972.6l-.524-.75a22.749,22.749,0,0,0,6.623-12.023l2.649,1.05A23.962,23.962,0,0,1,692.731,2972.6Zm20.446,7.173-2.675,1.449c-.425-1.149-1-2.4-1.624-3.7a69.659,69.659,0,0,1-13.672,2.8l-.85-2.924c.95.024,2,.024,3.1,0a40.087,40.087,0,0,0,4.3-10.423l2.848,1.1a39.86,39.86,0,0,1-5.748,9.3,93.091,93.091,0,0,0,9.548-.8c-.676-1.325-1.45-2.624-2.25-3.9l.75-.625A35.2,35.2,0,0,1,713.177,2979.772Zm-6.424-18.821h-4.024v-1.125h4.949A12.807,12.807,0,0,0,715,2969.6l-2.049,2.825C709.8,2970.049,707.6,2966.525,706.753,2960.951Z" fill="#4d4d4d"/>
      <path id="Path_1457" data-name="Path 1457" d="M726.779,2973.7a41.826,41.826,0,0,1-8.472,4.548l-.951-2.5c.576-.1,1.276-.275,2.076-.475v-16h2.3v6.973h4.525v1.125H721.73v7.223c1.826-.6,3.65-1.25,4.674-1.674Zm3.525,2.8,2.049,1.525a26.585,26.585,0,0,1-8.523,3.849l-.35-.849A23.707,23.707,0,0,0,730.3,2976.5Zm1.149-15.546H725.63v-1.125h13.8v1.125h-5.474a31.377,31.377,0,0,1-1.8,3h6v12.223H727.18V2963.95h3.848C731.2,2963.026,731.378,2961.8,731.453,2960.951Zm4.449,4.124h-6.523v2.5H735.9Zm0,3.625h-6.523v2.674H735.9Zm0,3.8h-6.523v2.55H735.9Zm4.3,7.074-1.449,2.174a61.762,61.762,0,0,0-5.65-4.274l.375-.824A29.778,29.778,0,0,1,740.2,2979.572Z" fill="#4d4d4d"/>
      <path id="Path_1458" data-name="Path 1458" d="M747.6,2971.349v8.048c0,2.449-2.374,2.874-4.923.625l.349-.825c2.1.6,2.525.5,2.525-.675v-6.149a19.039,19.039,0,0,1-2.2.85l-.875-2.3a28.949,28.949,0,0,0,3.075-.625v-5.474h-2.7V2963.7h2.7v-5.223H747.6v5.223h2.374v1.125H747.6v4.9c.675-.225,1.275-.475,1.8-.7l.449.774A14.834,14.834,0,0,1,747.6,2971.349Zm4.95-1.675c-.276,5.124-1.4,8.823-3.9,11.872l-.724-.55c2.224-3.2,2.474-8.3,2.474-14.246v-5.8h7.7a20.283,20.283,0,0,0-3.348-1.974l.274-.85a19.609,19.609,0,0,1,4.824,1.5l-.8,1.324h5.424v1.125H752.6v2.175h2.124v-1.6h2v1.6h3v-1.6h2v1.6h2.724v1.124h-2.724v2.3h-7v-2.3H752.6v1.8c0,.475,0,.925-.025,1.375h12.047v1.124Zm3.374,7.748,1.874,1.125a16.034,16.034,0,0,1-6.949,3.1l-.3-.776A12.179,12.179,0,0,0,755.929,2977.422Zm-2.75-.274V2970.7h10.548v6.449Zm2-3.824h2.274v-1.55h-2.274Zm0,2.824h2.274v-1.824h-2.274Zm1.549-9.5h3v-1.275h-3Zm8.348,13.222-1.349,1.724a27.674,27.674,0,0,0-4.674-3.324l.424-.8A22.208,22.208,0,0,1,765.076,2979.872Zm-5.724-6.548h2.375v-1.55h-2.375Zm0,2.824h2.375v-1.824h-2.375Z" fill="#4d4d4d"/>
      <path id="Path_1459" data-name="Path 1459" d="M789.876,2978.347l-.85,2.649c-4.424.3-9.9.35-12.821-.549a9.515,9.515,0,0,1-4.324-2.65,14.432,14.432,0,0,1-4.049,4.025l-.55-.726a13.608,13.608,0,0,0,3.524-4.648,14.5,14.5,0,0,1-2-5.449l.875-.25a13.355,13.355,0,0,0,1.774,4.2,27.328,27.328,0,0,0,1.449-6.623H770.73a13.4,13.4,0,0,1-1.074,1.724l-1.774-.75a58.585,58.585,0,0,0,4-8.123h-4.124V2960.1h6.9a65.922,65.922,0,0,1-3.3,7.1h1.5l.4-.4,1.974.75a23.139,23.139,0,0,1-2.524,8.873,8.472,8.472,0,0,0,2.8,1.7C778.754,2979.347,785.027,2978.922,789.876,2978.347ZM780.4,2964.8H774.93v-1.075H780.4v-2h-4.3V2960.6h4.3v-2.225h2.15v2.225h4.874v3.124h2.024v1.075h-2.024v3.374h-4.874v1.974h5.1v1.125h-5.1v2.324H788.8v1.125h-6.249v3.3H780.4v-3.3h-5.5V2973.6h5.5v-2.324h-4.6v-1.125h4.6v-1.974h-4.424v-1.125H780.4Zm2.15-1.075h2.9v-2h-2.9Zm0,3.324h2.9V2964.8h-2.9Z" fill="#4d4d4d"/>
      <path id="Path_1460" data-name="Path 1460" d="M796.406,2969.075c-.15,5.473-.875,9.547-3.324,12.1l-.675-.574c1.775-3.324,1.824-6.2,1.824-13.9v-6.249l1.975.55a24.814,24.814,0,0,0,6.123-2.7l1.675,2.1a39.623,39.623,0,0,1-7.573,1.549v1.725H803.8v5.4Zm.025-4.274v3.149h5.324V2964.8Zm7.422,13.721h-5v2.2h-2v-9.3h7Zm-2-5.973h-3v4.849h3ZM815,2979.372l-1.449,2.224a14.224,14.224,0,0,1-4.575-4.648,17.468,17.468,0,0,1-6.273,4.7l-.5-.7a16.626,16.626,0,0,0,5.849-5.874,24.371,24.371,0,0,1-1.55-7.7,15.67,15.67,0,0,1-2.124,3.1l-.7-.55c1.625-2.674,2.524-6.148,2.824-11.447l2.325.375a31.534,31.534,0,0,1-1,5.074h6.724v1.125h-1.8c-.275,4.224-1.05,7.523-2.574,10.172A13.947,13.947,0,0,0,815,2979.372Zm-6.024-6.2a24.625,24.625,0,0,0,1.6-8.122h-3.1a3.757,3.757,0,0,1-.175.475A22.489,22.489,0,0,0,808.977,2973.173Z" fill="#4d4d4d"/>
      <path id="Path_1461" data-name="Path 1461" d="M829.778,2977.922a50.077,50.077,0,0,1-11.7,2.9l-.551-2.3c1.8-.1,3.6-.225,5.35-.425v-2.124h-4.975v-1.125h4.975v-1.874h-4.3V2965.5h4.3v-1.675h-5.4V2962.7h5.4v-1.6c-1.625.176-3.275.275-4.9.3l-.1-.9a36.939,36.939,0,0,0,10.022-2.4l1.725,1.849a36.855,36.855,0,0,1-4.549.9v1.849h5.2v1.124h-5.2v1.675l4.324.075v7.4H825.08v1.874h4.573v1.125H825.08v1.85c1.574-.2,3.074-.476,4.448-.775Zm-9.1-9.3h2.2v-2h-2.2Zm2.2,3.225v-2.1h-2.2v2.1Zm2.2-5.224v2h2.274v-2Zm2.274,3.124H825.08v2.1h2.274Zm11.3-5.473c-.149,7.873-.424,12.872-.875,14.7-.474,1.9-2.549,2.924-6.1.35l.324-.85c2.925.75,3.449.725,3.7-.725a97.441,97.441,0,0,0,.65-12.346h-2.125c-.149,6.6-1.074,12.771-6.148,16.3l-.55-.725c3.7-3.449,4.374-9.373,4.474-15.571h-2.2v-1.125H832c0-1.975-.025-3.95-.025-5.874h2.249c0,1.95.026,3.924.026,5.874Z" fill="#4d4d4d"/>
      <path id="Path_1462" data-name="Path 1462" d="M851.4,2974.223a4.94,4.94,0,0,0,3.175-4,2.576,2.576,0,0,1-.851.125,1.889,1.889,0,0,1-2-2,1.909,1.909,0,0,1,2.025-2c1.524,0,2.524.925,2.524,2.8a5.744,5.744,0,0,1-4.348,5.773Z" fill="#4d4d4d"/>
      <path id="Path_1463" data-name="Path 1463" d="M879.754,2979.3h9.123v1.375H868.432V2979.3h8.922v-4.5h-6.348v-1.25h6.348v-4.074h-5.4v-.7a24.85,24.85,0,0,1-4.425,2.024l-.374-.849c5.224-2.525,8.4-6.4,9.5-9h-5.623l-.025-1.25h8.7c.949,3.125,4.849,6.624,10.422,8.049l-1.774,2.724a21.788,21.788,0,0,1-3.15-1.674v.674h-5.448v4.074h6.423v1.25h-6.423Zm4.8-10.947a15.693,15.693,0,0,1-5.4-7.049,17.56,17.56,0,0,1-6.5,7.024Z" fill="#4d4d4d"/>
      <path id="Path_1464" data-name="Path 1464" d="M901.329,2972.8a40.061,40.061,0,0,1-7.947,4.948l-1.1-2.5c1.225-.325,2.349-.674,3.424-1.049v-6.074h-2.925V2967h2.925v-5.223h-3.249v-1.125H901.3v1.125h-3.45V2967h2.725v1.125h-2.725v5.274c1.025-.425,2-.875,3-1.375Zm11.447,6.473c-1.649-1.749-4.124-5.649-4.4-14.721H907.8v14.8c0,2.324-2.374,3.124-6.173.475l.3-.85c3.3.9,3.673.55,3.673-.6v-5.6a32.755,32.755,0,0,1-5.273,5.2l-1.475-2.2a35.714,35.714,0,0,0,6.748-4.5v-6.723H900.13v-1.125H905.6v-5.1h2.2v5.1h6.624v1.125H909.3a29.558,29.558,0,0,0,.7,4.673,24.688,24.688,0,0,0,2.249-3.424l1.975,1.475a20.8,20.8,0,0,1-3.924,3.1,12.713,12.713,0,0,0,4.648,6.524Zm-9.971-7.823c-.526-1.85-1.226-3.749-1.85-5.324l.725-.425a20.111,20.111,0,0,1,3.223,4.674Zm9.047-8.523c-.775-1.1-2-2.55-3-3.7l.55-.675a15.592,15.592,0,0,1,4.075,2.749Z" fill="#4d4d4d"/>
      <path id="Path_1465" data-name="Path 1465" d="M917.632,2973.824v-1.375H927.4v-3.624h-7.948v-1.3H927.4V2958.4h2.4v9.123h7.9v1.3h-7.9v3.624h9.822v1.375H929.8v7.8h-2.4v-7.8Zm2.149-13.6.675-.625a30.3,30.3,0,0,1,5.3,5.9l-2.275,1.5A55.886,55.886,0,0,0,919.781,2960.227Zm15.071-.8,2.5,1.324a30.645,30.645,0,0,1-5.524,6l-.675-.6A39.326,39.326,0,0,0,934.852,2959.427Z" fill="#4d4d4d"/>
      <path id="Path_1466" data-name="Path 1466" d="M959.928,2974.723H964.7v1.125h-4.773V2979c0,2.674-2.275,3.9-6.249.825l.3-.775c3.475,1.075,3.8.675,3.8-.825v-2.374h-14.9v-1.125h14.9V2973.2c-.974,0-1.849-.05-2.8-.1-1.224-.074-5.3-.449-7.248-2.9a13.046,13.046,0,0,1-3.124,3.673l-1.174-1.4a16.319,16.319,0,0,0,3.173-2.75v-3.2h-2.923v-1.1h5.073v4.4c.85.849,2.45,1.449,5.4,1.574a77.59,77.59,0,0,0,10.648-.6l-.551,2.175c-1.749.1-3.149.175-4.323.2Zm-13.448-9.973a38.187,38.187,0,0,0-2.548-2.9l.524-.725a22.175,22.175,0,0,1,3.374,2.075Zm-1.649-5.848.475-.75a15.577,15.577,0,0,1,3.574,2.1l-1.324,1.549A38.679,38.679,0,0,0,944.831,2958.9Zm3.35,17.346a16.056,16.056,0,0,1,4.148,2.374l-1.374,1.725a37.035,37.035,0,0,0-3.25-3.324Zm7.172-14.2H949.3V2961h4.9a25.345,25.345,0,0,0-2.125-2.174l.5-.725a12.635,12.635,0,0,1,3.624,1.825l-.9,1.074h2.673a13.042,13.042,0,0,0,1.026-2.874l2.349.875a13.608,13.608,0,0,1-1.974,2h5.049v1.05h-7.1a10.983,10.983,0,0,1-.85,1.125h6.074v6.948h-11.6v-6.948h4.224C955.254,2962.8,955.3,2962.426,955.353,2962.051Zm5.149,2.175H953v.974h7.5Zm0,1.874H953v1.025h7.5Zm0,1.925H953v1.025h7.5Z" fill="#4d4d4d"/>
      <path id="Path_1467" data-name="Path 1467" d="M975.979,2969.95v9.522c0,2.1-1.8,2.725-4.2,1.024l.2-.8c2.075.45,2.125.075,2.125-.85v-2.924h-3v5.724h-1.9v-11.7l-1.524.049v-4.1h1.375v-6.573H975.9v6.573h1.276v4.05Zm-6.448-2.925v1.625h5.849v-1.625Zm1.324-1.125h.976v-3.649H974.1v-1.8h-3.25Zm.226,5.874H974.1v-2h-3.024Zm3.024,3.149v-2.149h-3.024v2.149Zm-.924-11.672v2.649h.924v-2.649Zm16.445,16.346v1.125H976.7V2979.6h3.8a31.287,31.287,0,0,0-1.35-3.174l.675-.475a13.263,13.263,0,0,1,2.6,3.1l-1,.55h2.923a15.816,15.816,0,0,0,1.225-3.624l2.025.85a21.744,21.744,0,0,1-2.049,2.774Zm-.35-9.423H977.5v-1.124h11.772Zm-.625-2.424h-10.8v-7h3.124V2958.4h1.55v2.349h1.324V2958.4h1.55v2.349h3.249Zm-10.4,7.848v-4.124h9.973v4.124Zm1.45-12h1.274v-1.775H979.7Zm0,3.074h1.274v-2.024H979.7Zm.6,7.873h5.823v-2.024H980.3Zm2.224-12.722v1.775h1.324v-1.775Zm0,2.825v2.024h1.324v-2.024Zm4.224-2.825H985.4v1.775h1.35Zm0,2.825H985.4v2.024h1.35Z" fill="#4d4d4d"/>
      <path id="Path_1468" data-name="Path 1468" d="M1000.03,2966.025h3.549v1.1h-10.8v-1.1h3.2a19.489,19.489,0,0,0-1.249-3.1l.55-.35a15.092,15.092,0,0,1,2.424,2.874l-1.149.575h2.449a19.749,19.749,0,0,0,.925-3.674h-6.774v-1.1h5a15.283,15.283,0,0,0-2.149-2.6l.4-.55a13.147,13.147,0,0,1,3.5,2.075l-1.05,1.074h4.124v1.1h-2.325l1.325.475A25.66,25.66,0,0,1,1000.03,2966.025Zm-5.973,2.55h8.522v10.6c0,2.174-2.225,3.374-4.9.8l.3-.75c1.9.75,2.5.575,2.5-.55v-2.824l-4.3.025v5.5h-2.124Zm2.1,1.1.025,2.025h4.3v-2.025Zm4.323,3.05h-4.3v2.1h4.3Zm11.9,8.1a45.044,45.044,0,0,1-5.2,0c-2.325-.125-2.774-.875-2.774-2.775v-10.822h6.348v-2.275h-6.4v-6.5h2.1v2.174H1014v1.125h-7.549v2.1h6.349v4.474h-6.349v1.574h6.4v1.075h-6.4v1.575h6.4v1.074h-6.4v1.675h6.474v1.074h-6.474v1.3c0,.825.05,1.325,1.15,1.4a34.115,34.115,0,0,0,4.524,0c1.324-.1,1.524-.675,1.4-3.049h.875C1015.376,2979.1,1015.051,2980.672,1012.377,2980.822Z" fill="#4d4d4d"/>
      <path id="Path_1469" data-name="Path 1469" d="M1028.279,2976.973a51.009,51.009,0,0,1-10.123,3.8l-.774-2.425c1.6-.175,3.674-.55,5.674-.975a42.716,42.716,0,0,0,1.424-6.423l2.325.6a38.24,38.24,0,0,1-2.375,5.524c1.349-.326,2.6-.65,3.524-.95Zm-.5-16h-10v-1.125h10Zm-.774,9.348h-8.349v-6.574h8.349Zm-8.149,1.224.826-.35a16.8,16.8,0,0,1,2.749,5.449l-2.175.7A39.449,39.449,0,0,0,1018.856,2971.549Zm6.049-6.674h-4.149v4.325h4.149Zm6.524,11.723,2,1.424a22.3,22.3,0,0,1-8.074,3.874l-.349-.824A18.78,18.78,0,0,0,1031.429,2976.6Zm1.1-16.046h-4.349v-1.125h11.173v1.125H1035a29.288,29.288,0,0,1-1.775,2.974h5v12.7h-9.473v-12.7h3.374C1032.3,2962.6,1032.453,2961.376,1032.528,2960.552Zm3.549,4.1H1030.9v2.624h5.174Zm0,3.749H1030.9v2.749h5.174Zm0,3.874H1030.9v2.824h5.174Zm4.1,7.473-1.525,2.025a50.048,50.048,0,0,0-4.723-4.374l.425-.8A26.38,26.38,0,0,1,1040.176,2979.747Z" fill="#4d4d4d"/>
      <path id="Path_1470" data-name="Path 1470" d="M1064.026,2968.675l-2.274,1.549c-.5-1-1.1-2.1-1.8-3.249a151.49,151.49,0,0,1-15.7,2.249l-.725-2.749c1.151.05,2.3.075,3.475.075a36.737,36.737,0,0,0,4.7-8.373l2.6,1.25a44.354,44.354,0,0,1-5.824,7.123c4-.025,7.949-.275,10.9-.525-.8-1.224-1.675-2.524-2.675-3.849l.725-.625A38.328,38.328,0,0,1,1064.026,2968.675Zm-17.8,2.574h14.822v10.323H1058.7v-1.85H1048.58v1.824h-2.35Zm2.35,7.324H1058.7v-6.2H1048.58Z" fill="#4d4d4d"/>
      <path id="Path_1471" data-name="Path 1471" d="M1073.53,2969.525V2981.7h-2.149v-10.648a19.461,19.461,0,0,1-3.374,5.674l-.7-.575a30.573,30.573,0,0,0,3.749-9.7h-3.374v-1.125h3.7v-3.874c-1.175.25-2.324.45-3.4.6l-.174-.85a20.171,20.171,0,0,0,6.922-2.949l2.076,1.625a31.657,31.657,0,0,1-3.275,1.05v4.4h2.949v.55h5.075v-1.6h-4.374v-1.125h4.374v-1.5h-5.025v-1.125h5.025v-2.2h2.2v2.2h5.273v1.125h-5.273v1.5h4.573v1.125h-4.573v1.6h5.773V2967h-13.571v-.55h-2.425v1.525a18.444,18.444,0,0,1,3.124,3.124l-1.675,1.375C1074.58,2971.574,1074.08,2970.549,1073.53,2969.525Zm6.873,7.847,2,1.3a21.547,21.547,0,0,1-7.523,3.249l-.325-.774A17.462,17.462,0,0,0,1080.4,2977.372Zm-3.223-.2V2968.4H1088.2v8.772Zm2.149-6.223h6.723v-1.424h-6.723Zm0,2.45h6.723v-1.45h-6.723Zm0,2.649h6.723v-1.65h-6.723Zm10.847,3.774-1.225,2a41.434,41.434,0,0,0-5.673-3.6l.3-.774A25.941,25.941,0,0,1,1090.176,2979.822Z" fill="#4d4d4d"/>
      <path id="Path_1472" data-name="Path 1472" d="M1095.531,2967.375h-2.1v-5.149h9.022v-1.7h-7.623V2959.4h17.6v1.125h-7.774v1.7h9.2v5.149h-2.2v-4.024h-7v5.924h-2.2v-5.924h-6.923Zm16.321,13.447c-1.95.049-3.774.049-5.724,0-3.274-.076-3.749-.85-3.749-3.075v-1.074h-4.849v1.65h-2.1v-8.373h16.146v7.873h-2.149v-1.15h-4.849v1.1c0,.8.25,1.124,1.824,1.2,1.8.075,3.5.075,5.3,0,1.225-.05,1.749-.6,1.7-4.149h.9C1115.251,2978.622,1115.352,2980.722,1111.852,2980.822Zm-10.273-15.046h-5.1l-.049-1.05h5.148Zm-5.148,1.624h5.148v1.05h-5.1Zm1.1,3.774v1.65h4.849v-1.65Zm4.849,4.474v-1.725h-4.849v1.725Zm7.049-4.474h-4.849v1.65h4.849Zm0,4.474v-1.725h-4.849v1.725Zm1.274-9.872h-5.174l-.05-1.05h5.224Zm-5.224,1.6h5.3v1.05h-5.249Z" fill="#4d4d4d"/>
      <path id="Path_1473" data-name="Path 1473" d="M1138,2959.927v19.02c0,2.674-2.9,3.474-7,.925l.274-.875c3.674.85,4.374.6,4.374-.975v-16.97H1121.53v20.47h-2.348v-21.595Zm-3.324,3.849v1.125h-12.047v-1.125Zm-1.525,4.074v8.522h-2.2v-1.624h-4.924v1.975h-2.2v-8.873Zm-2.2,1.125h-4.924v4.648h4.924Z" fill="#4d4d4d"/>
      <path id="Path_1474" data-name="Path 1474" d="M289.083,3018.648l-.449-.775a18.2,18.2,0,0,0,5.923-7.073l2.25,1.25A19.2,19.2,0,0,1,289.083,3018.648Zm21.745-9.823v1.125h-9.1v5.374c0,2.949-3.8,2.074-5.973.674l.25-.849c2.974.625,3.424.275,3.424-.75l.025-4.449H288.833v-1.125h4.7v-6.748h2.2v6.748h3.675v-8.448h2.3v3.9h6.823v1.074H301.7v3.474Zm-4.7,2.975,2.375,1.074c-3.025,6.149-8.224,10-18.921,10.823l-.2-.9C298.906,3021.5,303.479,3017.673,306.129,3011.8Z" fill="#4d4d4d"/>
      <path id="Path_1475" data-name="Path 1475" d="M321.008,3005.3h5.1c-.125,8.9-.45,13.547-.849,15.4-.475,2.174-2.8,3.2-6.6.125l.35-.826c3.375,1,3.75,1,4.05-.8a97.149,97.149,0,0,0,.574-12.772h-2.674c-.275,7.7-1.35,13.547-6,17.3l-.625-.65c3.475-3.9,4.1-9.773,4.225-16.646h-3.7V3005.3h3.724c.025-1.574.025-3.174.025-4.824h2.45C321.058,3002.152,321.033,3003.751,321.008,3005.3Zm14.672-1.225v18.046h-2.25v-2.274h-3.5v2.574h-2.2v-18.346Zm-2.25,1.125h-3.5v13.522h3.5Z" fill="#4d4d4d"/>
      <path id="Path_1476" data-name="Path 1476" d="M363.079,3020.048l-.625,2.524a101.506,101.506,0,0,1-10.223.175c-3.823-.225-5.248-.775-7.022-3.674a23.763,23.763,0,0,1-3.574,4.649l-1.425-1.475a17.607,17.607,0,0,0,3.774-3.474v-5.624H340.46V3012h5.724v6.574c1.474,2.049,2.9,2.1,6.172,2.174A77.142,77.142,0,0,0,363.079,3020.048Zm-18.57-9.748c-.825-1.1-2.35-2.874-3.4-3.974l.5-.75a23.381,23.381,0,0,1,4.525,2.874Zm-2.6-9.223.476-.75a20.549,20.549,0,0,1,4.6,2.749l-1.6,1.825A32.922,32.922,0,0,0,341.909,3001.077Zm10.773,10.723h-4.174v-5.549h5.049v-1.974h-5.874v-1.125h5.874v-2.725h2.2v2.725h6.223v1.125h-6.223v1.974h5.174v5.549h-5.174v.7a29.736,29.736,0,0,1,6.424,3.65l-1.6,2.074a37.3,37.3,0,0,0-4.824-4.474v5.974h-2.2v-5.974a18.029,18.029,0,0,1-6.049,4.949l-.5-.8A19.19,19.19,0,0,0,352.682,3011.8Zm-2.025-1.125h2.9v-3.3h-2.9Zm5.1,0h3.024v-3.3h-3.024Z" fill="#4d4d4d"/>
      <path id="Path_1477" data-name="Path 1477" d="M371.935,3013.624v7.623c0,2.175-1.775,3.15-5.549.725l.25-.825c2.624.625,3.149.475,3.149-.7v-5.624c-.9.45-1.75.85-2.5,1.2l-1.024-2.15c1.125-.3,2.349-.65,3.524-1.025v-5.823h-3.25V3005.9h3.25v-5.449h2.15v5.449h2.9v1.125h-2.9v5.049c.724-.275,1.424-.576,2.024-.875l.5.75A23.332,23.332,0,0,1,371.935,3013.624Zm15.246,9.823a14.243,14.243,0,0,1-6.623-3.15,18.523,18.523,0,0,1-7.949,3.324l-.25-.849a18.04,18.04,0,0,0,7-3.749,15.778,15.778,0,0,1-3-6.373h-1.6v-1.1l8.623-.025.5-.375,2.274,1.05a16.428,16.428,0,0,1-4.024,6.723,17.324,17.324,0,0,0,6.473,1.874Zm-10.823-21.62h7.6v4.974c0,.975.125,1.274,1.625,1.3a2.635,2.635,0,0,0,1.949-.624l1.05,1.7a3.219,3.219,0,0,1-2.449.925c-3.674,0-4.324-.25-4.324-2.824v-4.325h-3.275c.051,4.3-.9,6.774-4.348,8.049l-.451-.825C376.059,3008.625,376.383,3006.825,376.358,3001.827Zm.9,10.823a12.322,12.322,0,0,0,3.3,5.173,14.173,14.173,0,0,0,2.9-5.173Z" fill="#4d4d4d"/>
      <path id="Path_1478" data-name="Path 1478" d="M400.56,3019.473l2.274,1.449a32.968,32.968,0,0,1-10.023,3.025l-.275-.875A24.247,24.247,0,0,0,400.56,3019.473Zm-6.5-8.573-1.325-1.825a33.954,33.954,0,0,0,5.4-4.1l.65.55A28.421,28.421,0,0,1,394.061,3010.9Zm3.474-6.4c-1.649-1.2-2.924-2.124-4.1-2.824l.3-.85a18.332,18.332,0,0,1,5.074,1.675Zm-1.774,5.649,15.521.025v9.073H395.761Zm2.2,2.675h11.122v-1.55H397.96Zm0,2.524h11.122v-1.475H397.96Zm0,2.774h11.122V3016.4H397.96Zm1.475-11.472-.6-.625a13.478,13.478,0,0,0,2.949-5.924l2.15.575a13,13,0,0,1-.6,1.475h7.473l.424-.35,2.175,1.225a11.862,11.862,0,0,1-3.574,3.374l-.649-.55a11.375,11.375,0,0,0,1.5-2.65h-3.249a12.365,12.365,0,0,1-.575,1.775c2.15,2.524,4.824,2.825,7.373,2.974l-1.2,2.325a9.32,9.32,0,0,1-6.748-4.449c-1.625,2.45-4.449,3.724-7.773,4.049l-.25-.85c3.9-.925,5.874-2.824,6.674-5.824h-2.2A12.365,12.365,0,0,1,399.435,3006.651Zm5.074,12.947a40.082,40.082,0,0,1,9.372,2.049l-1.225,2.224a68.916,68.916,0,0,0-8.373-3.4Z" fill="#4d4d4d"/>
      <path id="Path_1479" data-name="Path 1479" d="M427.085,3016.223a4.939,4.939,0,0,0,3.174-4,2.571,2.571,0,0,1-.85.125,1.889,1.889,0,0,1-2-2,1.91,1.91,0,0,1,2.026-2c1.524,0,2.524.925,2.524,2.8a5.744,5.744,0,0,1-4.35,5.773Z" fill="#4d4d4d"/>
      <path id="Path_1480" data-name="Path 1480" d="M452.586,3012.4a23.451,23.451,0,0,1-2.85,1.549v7.4c0,2.175-2.224,2.975-5.5.725l.25-.825c2.625.625,3.15.475,3.15-.7V3014.9c-1.025.425-2.025.8-2.924,1.1l-.85-2.4c1.174-.175,2.474-.425,3.774-.725v-5.823h-3.349v-1.125h3.349V3000.4h2.1v5.523h2.7v1.125h-2.7v5.3c.875-.25,1.75-.5,2.525-.8Zm13.847,8.123v1.149H455.71v1.975h-2.249v-14.572a21.861,21.861,0,0,1-1.975,2.1l-.625-.65a25.451,25.451,0,0,0,4.124-10.247l2.525.724a41.278,41.278,0,0,1-1.75,4.449h4.3a48.062,48.062,0,0,0-1.85-4.524l.75-.5a19.585,19.585,0,0,1,3.374,4.149l-1.5.875h5.248v1.124h-4.7v3.625h3.824v1.125h-3.824v3.7h3.824v1.125h-3.824v4.374Zm-7.248-13.948H455.71v3.625h3.475Zm0,4.75H455.71v3.7h3.475Zm0,4.824H455.71v4.374h3.475Z" fill="#4d4d4d"/>
      <path id="Path_1481" data-name="Path 1481" d="M492.059,3010.05v1.375h-5.674v12.222h-2.35v-12.222h-5.573c-.3,6.323-2.675,10.2-7.674,12.4l-.475-.85c4.349-2.85,5.45-6.273,5.724-11.547h-5.573v-1.375h5.6v-5.1a36.274,36.274,0,0,1-5.249,1.25l-.224-.925a27.547,27.547,0,0,0,9.822-4.849l2.475,1.625a28.89,28.89,0,0,1-4.4,2.074v5.924h5.549v-9.473h2.35v9.473Z" fill="#4d4d4d"/>
      <path id="Path_1482" data-name="Path 1482" d="M508.137,3004.777v2.749h8.522V3021.1c0,2.524-2.149,3.35-6.173.85l.25-.874c3.124.749,3.674.524,3.674-.726v-11.7H499.839v14.871h-2.25v-16h8.223v-2.749h-9.773v-1.125h9.773V3000.4h2.349v3.249h9.9v1.125Zm5.548,12.921h-5.524v5h-2.2v-5h-5.349v-1.124h5.349v-2.45h-5.049V3013h3.274a19.09,19.09,0,0,0-2-3.574l.675-.6a15.834,15.834,0,0,1,3.4,3.325l-1.275.849h2.9a22.783,22.783,0,0,0,1.7-4.249l2.3,1.125a26.79,26.79,0,0,1-2.825,3.124h4.3v1.125h-5.2v2.45h5.524Z" fill="#4d4d4d"/>
      <path id="Path_1483" data-name="Path 1483" d="M528.288,3011.225v12.447h-2.149V3012.8a21.551,21.551,0,0,1-4,6.224l-.625-.575a30.516,30.516,0,0,0,4.2-10.148h-3.749v-1.124h4.174v-3.624c-1.374.25-2.725.425-3.874.524l-.175-.849a24.657,24.657,0,0,0,7.972-3.125l1.776,1.95a28.619,28.619,0,0,1-3.55,1.05v4.074h3.55v1.124h-3.55v1.475a26.674,26.674,0,0,1,3.874,3.349l-1.774,1.65C529.888,3013.8,529.063,3012.45,528.288,3011.225Zm12.4,4.224v7.973h-2.2v-7.473c-2.675.6-5.374,1.2-8.049,1.749l-.375-1.124c2.8-.576,5.624-1.175,8.424-1.8v-14.322h2.2v13.822c1.025-.25,2.075-.475,3.1-.725l.3,1.1C542.96,3014.924,541.81,3015.2,540.685,3015.449Zm-8.273-6.549a18.079,18.079,0,0,1,4.6,3.724l-1.9,1.675a39.287,39.287,0,0,0-3.324-4.749Zm3.274-1.174a45.721,45.721,0,0,0-3.5-4.35l.55-.675a18.583,18.583,0,0,1,4.649,3.35Z" fill="#4d4d4d"/>
      <path id="Path_1484" data-name="Path 1484" d="M555.739,3019.4h-4v2.2h-2.05v-7.848a18.914,18.914,0,0,1-1.6,2.325l-.7-.576a29.422,29.422,0,0,0,3.3-11.846h-2.774v-1.175h9v1.175H552.79a24.24,24.24,0,0,1-1.25,5.973h4.2Zm-2.05-8.7H551.74v7.573h1.949Zm16.546,10.422-1.25,2.55a12.788,12.788,0,0,1-5.674-3.774,18.085,18.085,0,0,1-6.8,3.924l-.375-.8a18.737,18.737,0,0,0,6.148-4.474,14.987,14.987,0,0,1-2.324-6.6h-.6c-.125,4.5-.9,8.472-4.824,11.671l-.625-.649c3.124-3.6,3.274-7.273,3.274-12.222v-6.624l2,.475h2.9v-4.124h2.2v4.124h2.7l.574-.5,2.2,1.1a16.041,16.041,0,0,1-2.75,4.049l-.8-.425a19.35,19.35,0,0,0,.875-3.1h-2.8l-.051,5.1h1.5l.6-.475,2.125.95a17.693,17.693,0,0,1-3.8,7.223A14.915,14.915,0,0,0,570.235,3021.122Zm-10.847-10.3h2.649l.05-5.1h-2.7v5.1Zm3.949,6.4a14.77,14.77,0,0,0,2.425-5.273h-4.9A11.931,11.931,0,0,0,563.337,3017.223Z" fill="#4d4d4d"/>
      <path id="Path_1485" data-name="Path 1485" d="M583.265,3010.4c.024,5.973-2.2,11.072-8.224,13.422l-.425-.9c4.324-2.3,5.974-6.1,6.3-10.647a26.389,26.389,0,0,1-5.424,3.874l-1.25-2.2a38.347,38.347,0,0,0,6.724-3v-.55l-.05-9.923h2.3Zm-4.924-.675a34.892,34.892,0,0,0-3.55-5.9l.625-.625a19.967,19.967,0,0,1,5.074,4.95Zm14.5,12.7a43.55,43.55,0,0,1-4.424-.025c-3.074-.175-3.149-1.525-3.149-3.7v-18.221h2.25v7.948a23.536,23.536,0,0,0,3.823-5.248l2.25,1.574a27.763,27.763,0,0,1-6.073,5.024v.925a24.672,24.672,0,0,1,6.9,3.424l-1.574,2.174a30.354,30.354,0,0,0-5.323-4.424v7c0,1.15.349,1.4,1.423,1.5a20.778,20.778,0,0,0,3.75-.025c1.325-.1,1.525-.5,1.4-4.4h.875C596.786,3021.073,596.161,3022.3,592.837,3022.422Z" fill="#4d4d4d"/>
      <path id="Path_1486" data-name="Path 1486" d="M603.616,3013.2c0,4.573-.675,8.248-3.449,10.522l-.7-.575c1.525-2.025,1.95-4.524,1.95-9.448v-5h3.424l-.225-.525a35.856,35.856,0,0,0,5.4-1.7,41.834,41.834,0,0,0-4.3-1.2l.2-.825a40.853,40.853,0,0,1,5.974,1.125,12.8,12.8,0,0,0,2.274-1.5H600.917v-1.125h10.522c-1.1-.674-2.649-1.549-3.6-2.024l.225-.825a25.942,25.942,0,0,1,5.349,1.425l-.851,1.424h8.3v1.125h-4.4l.425.275a17.836,17.836,0,0,1-2.825,1.85,38.731,38.731,0,0,1,3.9,1.35l-.726,1.149h4.3v1.125H603.616Zm17.945,8.322v1.125h-18.47v-1.125h8.448v-3.1h-5.424V3017.3h5.424v-2.574h-4.124a18.1,18.1,0,0,1-3.349,3.924l-.575-.675a17.653,17.653,0,0,0,3.224-7.248l2.224.675a19.916,19.916,0,0,1-.9,2.2h3.5v-2.9h2.05v2.9h6.523v1.125h-6.523v2.574h5.723v1.125h-5.723v3.1ZM606.44,3008.7h9.023c-1.225-.575-2.4-1.075-3.549-1.524A32.868,32.868,0,0,1,606.44,3008.7Z" fill="#4d4d4d"/>
      <path id="Path_1487" data-name="Path 1487" d="M630.492,3006.976v16.546h-2.15V3010.8a20.8,20.8,0,0,1-2.474,2.924l-.65-.625a30.085,30.085,0,0,0,4.774-12.946l2.474.524A31.964,31.964,0,0,1,630.492,3006.976Zm17.045,14.6v1.124h-16.02v-1.124h2.274V3007.3h3.849c.125-.85.275-1.825.4-2.8h-5.549v-1.125h5.7c.151-1.049.276-2.1.375-2.973l2.326.25c-.151,1-.3,1.9-.4,2.723h6.1v1.125h-6.274c-.125,1-.25,1.925-.4,2.8h5.249v14.272Zm-4.424-13.148H635.74v2.325h7.373Zm0,3.375H635.74v2.474h7.373Zm0,3.524H635.74v2.549h7.373Zm0,3.6H635.74v2.65h7.373Z" fill="#4d4d4d"/>
      <path id="Path_1488" data-name="Path 1488" d="M660.191,3016.223a4.938,4.938,0,0,0,3.175-4,2.575,2.575,0,0,1-.85.125,1.888,1.888,0,0,1-2-2,1.908,1.908,0,0,1,2.024-2c1.524,0,2.524.925,2.524,2.8a5.743,5.743,0,0,1-4.348,5.773Z" fill="#4d4d4d"/>
      <path id="Path_1489" data-name="Path 1489" d="M679.219,3018.148l.849.2a21.543,21.543,0,0,1-.75,5.273l-2.124-.774A14.925,14.925,0,0,0,679.219,3018.148Zm3.224-2.9v-2h-4.324v-1.125h4.324v-1.974h-4.124l-.025-8.3h10.423v8.3h-4.175v1.974h4.149v1.125h-4.149v1.85c1.45-.1,2.85-.25,4.149-.425l.2.824a71.161,71.161,0,0,1-10.848,2.175l-.5-2.249C679.193,3015.4,680.844,3015.349,682.443,3015.249Zm.25-6.224v-6.048h-2.5v6.048Zm-1.45-5.274a16.939,16.939,0,0,1,1.25,4.05l-1.625.274c-.075-1.324-.2-2.749-.375-4.124Zm1,14.222a26.072,26.072,0,0,1,1.1,4.724l-1.949.2c.024-1.449.049-3.174-.026-4.824Zm2.35-.7a18.183,18.183,0,0,1,1.724,4.224l-1.849.475a44.837,44.837,0,0,0-.675-4.474Zm-.25-8.248h2.473v-4.149a17.571,17.571,0,0,1-1.423,3.424l-.776-.225a41.883,41.883,0,0,0,.675-4.3l1.524.4v-1.2h-2.473Zm2.549,7.6a15.4,15.4,0,0,1,2.125,3.525l-1.65.749c-.325-1.275-.75-2.674-1.175-3.924Zm7.9-9.173v5.174h3.874V3023.4h-2.1v-1.9h-5.148v1.925h-2.1v-10.8h3.325v-12.172h2.149v5.874h4.5v1.124Zm-3.374,6.3v6.623h5.148v-6.623Z" fill="#4d4d4d"/>
      <path id="Path_1490" data-name="Path 1490" d="M709.144,3020.472a45.574,45.574,0,0,0-1.4-4.474,15.106,15.106,0,0,1-4.1,7.974l-.624-.65c2.549-3.274,3.3-7.648,3.3-14.921v-7.949h2.1v7.648a33.266,33.266,0,0,0,1.274-3.4l1.825.975a16.855,16.855,0,0,1-3.1,4.149,34.364,34.364,0,0,1-.45,4.974,16.223,16.223,0,0,1,3.124,4.7Zm-6.024-15.3.9-.175a24.971,24.971,0,0,1,1.651,6.748l-2.151.276A40.889,40.889,0,0,0,703.12,3005.176Zm14.446,2.3c-.849,4.124-2.524,7.623-6.248,10.322l-.5-.7c3.474-3.1,4.724-7.8,5.1-12.347h-1.85c-.1.375-.224.75-.349,1.1a11.457,11.457,0,0,1,1.574,2.374l-1.449.85c-.175-.65-.375-1.375-.575-2.024-.3.75-.65,1.449-1,2.124a11.374,11.374,0,0,1,1.75,2.55l-1.55.85a21.087,21.087,0,0,0-.75-2.5,13.167,13.167,0,0,1-2.025,2.575l-.625-.575c2.1-2.95,3.275-7.249,3.7-11.773l2.149.4a28.922,28.922,0,0,1-.55,2.95h1.375l.425-.425,1.925.575c-.075.874-.2,1.724-.325,2.549h1.224c.026-.525.026-1.05.026-1.6v-4.274h2.149v4.175c0,.574-.025,1.149-.051,1.7h4.025v1.125h-3.349c.649,4.7,2.2,6.7,3.8,8.4l-2.05,1.65c-.825-1.249-2.274-3.3-2.549-9.648-.45,4.5-1.95,7.849-6.049,9.9l-.45-.75c3.2-2.249,4.224-5.173,4.449-9.547Zm-5.423,10.322.85.25a12.671,12.671,0,0,1-1.849,5.9l-1.975-1.5A9.208,9.208,0,0,0,712.143,3017.8Zm3,.275a19.367,19.367,0,0,1,1.949,5.1l-2.2.324a35.583,35.583,0,0,0-.526-5.273Zm3.423-.425a17.444,17.444,0,0,1,2.575,4.974l-2.124.625a37.208,37.208,0,0,0-1.225-5.349Zm3.325-.449a17.909,17.909,0,0,1,3.624,5.2l-2.175,1a38.933,38.933,0,0,0-2.174-5.774Zm1-11.223a32.451,32.451,0,0,0-1.1-3.749l.725-.375a12.064,12.064,0,0,1,2.149,3.449Z" fill="#4d4d4d"/>
      <path id="Path_1491" data-name="Path 1491" d="M750.516,3010.675l-2.275,1.549c-.5-1-1.1-2.1-1.8-3.249a151.427,151.427,0,0,1-15.7,2.25l-.725-2.75c1.151.051,2.3.075,3.475.075a36.739,36.739,0,0,0,4.7-8.373l2.6,1.25a44.259,44.259,0,0,1-5.823,7.123c4-.024,7.948-.274,10.9-.524-.8-1.225-1.675-2.525-2.675-3.85l.725-.624A38.306,38.306,0,0,1,750.516,3010.675Zm-17.8,2.574h14.821v10.323h-2.349v-1.85H735.069v1.825H732.72Zm2.349,7.324h10.123v-6.2H735.069Z" fill="#4d4d4d"/>
      <path id="Path_1492" data-name="Path 1492" d="M757.721,3010.85a42.214,42.214,0,0,0-2.974-3.775l.5-.724a17.642,17.642,0,0,1,4.049,2.824Zm.65,1.6.875.274a95.235,95.235,0,0,1-1.925,9.723l-2.425-1C756,3019.123,757.371,3015.4,758.371,3012.45Zm.3-8.048c-1.1-1.35-2.2-2.45-3.2-3.475l.45-.7a19.162,19.162,0,0,1,4.249,2.474Zm1.974,8.622-1.375-.775a8.881,8.881,0,0,0,1.6-3l.625.2A11.5,11.5,0,0,1,760.645,3013.024Zm0-8.6a27.9,27.9,0,0,0,1.075-4.074l1.65.5c-.675,1.4-1.275,2.625-1.85,3.55.425-.026.875-.051,1.325-.1a19.95,19.95,0,0,0,.8-1.874l1.375.675v-.625h3.349a19.464,19.464,0,0,0-2.024-1.65l.275-.625a10.769,10.769,0,0,1,3.049,1.3l-.675.975h2.55v1h-6.524v-.05a24.831,24.831,0,0,1-3.2,4.049,19.84,19.84,0,0,0,2.05-.4c-.125-.3-.25-.624-.4-.924l.525-.3a8.282,8.282,0,0,1,1.724,2.3l-1.225.574c-.1-.324-.225-.65-.35-.975a18.054,18.054,0,0,1-4.024,1.45l-.475-1.5c.425-.024.826-.049,1.225-.1a18.332,18.332,0,0,0,1.45-2.3,12.74,12.74,0,0,1-2.2.55l-.3-1.449C760.1,3004.4,760.37,3004.426,760.645,3004.426Zm2.975,13.422h13a20.113,20.113,0,0,1-1.05,4.249c-.949,2.225-3.1,2.3-6.847-.225l.324-.825c3.6,1.075,4.024,1.275,4.649-.15a9.867,9.867,0,0,0,.475-1.974h-11c-.225.525-.425,1.05-.651,1.549l-2.1-.424a36.444,36.444,0,0,0,2.124-5.424l1.925.9h8.722v-1.375H761.32v-1.074h13.922v3.449H764.119C763.97,3016.973,763.795,3017.423,763.62,3017.848Zm-1.05-8.673a16.977,16.977,0,0,1,1.175,2.975l-1.45.324c-.05-1.049-.175-2.1-.325-3.124Zm1.824,2.775a25.453,25.453,0,0,0-.974-2.95l.55-.3a12.585,12.585,0,0,1,1.8,2.674Zm6.324-6.6h-4.874v-.949h4.874Zm0,1.925h-4.874v-.95h4.874Zm-4.749,4.749v-3.775h4.749v3.775Zm1.375-.925h1.974v-1.95h-1.974Zm3.6,1.124a9.324,9.324,0,0,0,1.4-2.924l.649.175a10.682,10.682,0,0,1-.75,3.374Zm1-7.923a22.258,22.258,0,0,0,1.076-4.124l1.6.476a25.093,25.093,0,0,1-1.849,3.648c.424-.024.875-.05,1.349-.1.3-.674.575-1.349.825-2l1.575.7a26.8,26.8,0,0,1-3.325,4.548,18.922,18.922,0,0,0,2.075-.349c-.15-.375-.3-.775-.475-1.15l.5-.325a9.378,9.378,0,0,1,1.774,2.474l-1.274.625-.3-.975a21.329,21.329,0,0,1-4.024,1.4l-.475-1.575c.449,0,.875-.024,1.249-.049a17.273,17.273,0,0,0,1.45-2.4,9.979,9.979,0,0,1-2.174.525l-.35-1.374C771.442,3004.3,771.692,3004.3,771.942,3004.3Zm2.025,4.824a15.4,15.4,0,0,1,1.15,3l-1.425.35a30.687,30.687,0,0,0-.3-3.174Zm1.9,2.9a29.906,29.906,0,0,0-1.225-2.975l.5-.325a11.76,11.76,0,0,1,2,2.6Z" fill="#4d4d4d"/>
      <path id="Path_1493" data-name="Path 1493" d="M787.3,3011.225v12.447h-2.15V3012.8a21.531,21.531,0,0,1-4,6.224l-.625-.575a30.517,30.517,0,0,0,4.2-10.148h-3.749v-1.124h4.173v-3.624c-1.375.25-2.724.425-3.874.524l-.174-.849a24.692,24.692,0,0,0,7.972-3.125l1.775,1.95a28.651,28.651,0,0,1-3.549,1.05v4.074h3.549v1.124H787.3v1.475a26.782,26.782,0,0,1,3.874,3.349l-1.775,1.65C788.9,3013.8,788.07,3012.45,787.3,3011.225Zm12.4,4.224v7.973h-2.2v-7.473c-2.675.6-5.374,1.2-8.048,1.749l-.375-1.124c2.8-.576,5.624-1.175,8.423-1.8v-14.322h2.2v13.822c1.026-.25,2.076-.475,3.1-.725l.3,1.1C801.967,3014.924,800.817,3015.2,799.692,3015.449Zm-8.272-6.549a18.079,18.079,0,0,1,4.6,3.724l-1.9,1.675a39.287,39.287,0,0,0-3.324-4.749Zm3.274-1.174a45.894,45.894,0,0,0-3.5-4.35l.55-.675a18.587,18.587,0,0,1,4.65,3.35Z" fill="#4d4d4d"/>
      <path id="Path_1494" data-name="Path 1494" d="M812.646,3013.774l-.024,7.573c0,2.175-1.725,3.149-5.5.725l.25-.825c2.624.625,3.149.475,3.149-.7v-5.873c-1.025.4-2.049.725-3.1,1.05l-.725-2.45c1.375-.2,2.624-.375,3.824-.624v-5.275h-3.574v-1.124h3.574v-5.8h2.15l-.026,5.8h2.975v1.124h-2.975v4.825c.725-.175,1.475-.4,2.225-.625l.325.849Q813.922,3013.174,812.646,3013.774Zm15.047,9.6a16.668,16.668,0,0,1-6.273-3.624,20.067,20.067,0,0,1-8.373,3.85l-.3-.85a19.058,19.058,0,0,0,7.423-4.374,16.78,16.78,0,0,1-3.15-7.423h-1.674v-1.125h4.7V3005.7h-5v-1.125h5v-4.124h2.249v4.124h5.749v1.125h-5.749v4.124h1.775l.6-.4,2.274,1.125a21.4,21.4,0,0,1-4,7.7,21.205,21.205,0,0,0,6.274,2.525ZM821.369,3017a17.921,17.921,0,0,0,2.8-6.048H817.92A13.016,13.016,0,0,0,821.369,3017Z" fill="#4d4d4d"/>
      <path id="Path_1495" data-name="Path 1495" d="M835.323,3016.173a21.072,21.072,0,0,1-.75,7.149l-2.449-1a16.834,16.834,0,0,0,2.324-6.248Zm-.974-3.374a24.3,24.3,0,0,0,3.5-4.773,35.936,35.936,0,0,1-4.575,1.149l-.449-2.274c.55.049,1.1.075,1.65.1a31.521,31.521,0,0,0,2.274-6.824l2.274.75a30.285,30.285,0,0,1-3.5,6.1c.975,0,1.95-.05,2.95-.125.45-.9.9-1.9,1.3-2.95l2.225.95a26.449,26.449,0,0,1-6.349,7.848c1.325-.075,2.7-.25,4.024-.45-.225-.649-.475-1.3-.725-1.874l.75-.375a17.373,17.373,0,0,1,2.7,4.149l-1.9.875c-.15-.55-.325-1.225-.55-1.9a39.971,39.971,0,0,1-6.648,2.05l-.625-2.449C833.224,3012.8,833.773,3012.8,834.349,3012.8Zm3,3.074a40.791,40.791,0,0,1,1.724,5.874l-2.3.4c0-1.525-.1-4.024-.225-6.123Zm4.923,4.124-2.024.826c-.35-1.65-.875-3.7-1.324-5.325l.749-.3A26.7,26.7,0,0,1,842.271,3020Zm12.547,1.6v1.125h-13.8V3021.6H846.9v-5.3h-4.8v-1.124h11.8v1.124h-4.8v5.3Zm-.424-18.32H841.572v-1.125h12.822Zm-11.422,5.573a18.24,18.24,0,0,1,3.074,4.4l-2.3,1.025a19.561,19.561,0,0,0-1.975-5.4,23.2,23.2,0,0,0,1.8-5l2.35.925A22.205,22.205,0,0,1,842.972,3008.85Zm4.848,5.424a25.357,25.357,0,0,0-2.1-5.4,27.282,27.282,0,0,0,1.875-4.973l2.249.949a19.386,19.386,0,0,1-2.95,4,17.456,17.456,0,0,1,3.249,4.4Zm4.074-.025a27.4,27.4,0,0,0-2.375-5.374,24.04,24.04,0,0,0,1.975-4.973l2.275,1a21.722,21.722,0,0,1-3.049,3.949,16.283,16.283,0,0,1,3.449,4.35Z" fill="#4d4d4d"/>
      <path id="Path_1496" data-name="Path 1496" d="M862.273,3010.9a47.352,47.352,0,0,0-3.673-4.1l.5-.775a24.392,24.392,0,0,1,4.823,2.949Zm.625,1.675a69.21,69.21,0,0,1-1.875,9.8l-2.423-1a81.422,81.422,0,0,0,3.423-9.073Zm-.424-7.8a45.808,45.808,0,0,0-3.249-3.725l.524-.725a19.829,19.829,0,0,1,4.3,2.65Zm13.471,8.147h2.15v10.548h-2.15v-4.049h-8.023c-.75,2.049-2.225,3.174-4.948,4.249l-.425-.775c3.124-1.925,3.674-3.624,3.8-7.274v-2.7h2.2v2.025h7.4Zm-10.248-6.048h-1.374v-1.05h5.823a32.268,32.268,0,0,1-.25,5.1c-.349,1.674-2.149,1.624-3.473.55l.25-.75c1.4.35,1.524.125,1.624-.5.075-.475.175-2.8.15-3.349H867.4a8.308,8.308,0,0,1-3.5,6.673l-.549-.625A8.336,8.336,0,0,0,865.7,3006.876Zm4.175-2.849h-5.225V3002.9h7.524c-1.2-.75-2.35-1.475-3.3-2l.274-.9a25.072,25.072,0,0,1,4.974,1.4l-.774,1.5h6.823v1.125H874.32l1.276.474a14.659,14.659,0,0,1-2.175,3.275v5.648h-2v-5.9H872.7a27.96,27.96,0,0,0,1.05-3.5H870.3a10.038,10.038,0,0,1,2.223,2.5l-1.548,1a24.286,24.286,0,0,0-1.55-3.124Zm6.073,12.047h-7.4a17.185,17.185,0,0,1-.3,2.224h7.7Zm4.9-4.9-1.425,1.525a4.483,4.483,0,0,1-1.05-1.65,16.549,16.549,0,0,1-4.073,1.5l-.526-1.774,1.125-.075v-4.649l1.025.15a11.221,11.221,0,0,0,3.324-1.8l1.3,1.324a14.782,14.782,0,0,1-2.175.725A7.19,7.19,0,0,0,880.844,3011.175Zm-2.749-.95a18.326,18.326,0,0,1-.6-3.574c-.325.075-.625.125-.925.174v3.675C877.095,3010.425,877.595,3010.325,878.095,3010.225Z" fill="#4d4d4d"/>
      <path id="Path_1497" data-name="Path 1497" d="M892.923,3003.252a19.425,19.425,0,0,1,3.324,5.149l-2.1.9c-.174-.675-.424-1.425-.7-2.2a53.277,53.277,0,0,1-8.347,2.024l-.6-2.4c.725.025,1.5,0,2.324-.026a32.378,32.378,0,0,0,1.8-6.6l2.625.825a30.3,30.3,0,0,1-3.3,5.7c1.725-.1,3.55-.3,5.15-.5-.3-.8-.651-1.625-1-2.449ZM885.975,3010h9.1v11.3c0,2.1-2.074,3.049-5.6.875l.25-.875c2.9.625,3.1.45,3.1-.925v-2.524h-4.6v5.674h-2.25Zm2.224,1.125v2.2h4.624v-2.2Zm4.624,5.623v-2.324H888.2v2.324Zm9.348,6.224c-4.6,0-5.549-.225-5.549-2.9v-8.123h2.25v4.773a20.592,20.592,0,0,0,4.823-3.624l1.975,1.825a31.235,31.235,0,0,1-6.8,2.824v1.775c0,1.2.649,1.474,3.174,1.449,2.675-.024,2.774-.5,2.849-3.674h.9C906.769,3021.372,906.995,3022.972,902.171,3022.972Zm-5.524-15.121v-7.424H898.9v4.774a17.745,17.745,0,0,0,4.424-3.374l2.025,1.749a25.791,25.791,0,0,1-6.449,2.725v1.425c0,1.249.5,1.424,2.825,1.4,2.724-.025,2.75-.425,2.774-3.224l.9-.025c1.15,4.649.375,5.224-3.849,5.2C897.672,3011.05,896.647,3011.1,896.647,3007.851Z" fill="#4d4d4d"/>
      <path id="Path_1498" data-name="Path 1498" d="M932.2,3021.422v1.125h-21.47v-1.125h9.648V3019.8h-7.6v-1.125h7.6V3017h-6.449v-6.348H929.2V3017h-6.623v1.675h7.848v1.125h-7.848v1.624Zm-.45-12.072H911.2v-1.125h20.545Zm-3.1-2.474H914.5V3001.3h14.146Zm-8.272,9v-1.524h-4.35l-.024,1.524Zm-4.35-2.6h4.35v-1.5h-4.35Zm10.574-10.847H916.55v1.074H926.6Zm0,2.149H916.55v1.175H926.6Zm-4.025,8.7H927.1v-1.5h-4.524Zm0,2.6h4.5l.025-1.524h-4.524Z" fill="#4d4d4d"/>
      <path id="Path_1499" data-name="Path 1499" d="M940.726,3012.325h9.3c-.5,5.9-.849,7.9-1.45,9.6-.55,1.574-3.549,3.025-7.548-.95l.451-.824c3.3,1.3,4.4,1.774,4.948.25.375-1.05.575-2.275,1.05-6.948H940.5c-.2,1.049-.426,2.024-.65,2.874l-2.3-.35c.625-2.575,1.45-6.824,1.8-9.523l2.2.7h5.174v-4.7H937.4v-1.125h11.523v6.949H941.45C941.25,3009.575,941,3010.975,940.726,3012.325Zm15.795-11.873v23h-2.3v-23Z" fill="#4d4d4d"/>
      <path id="Path_1500" data-name="Path 1500" d="M962.352,3009.55l-.474-.65a13.008,13.008,0,0,0,3.023-5.149l1.9.55a5.09,5.09,0,0,1-.45.9h7.1c-.05,2.45-.125,4.274-.274,5.4-.276,2.05-2.749,1.949-4.249.675l.224-.675c1.7.425,2.025.3,2.2-.5a25,25,0,0,0,.174-3.949h-5.773c-.25.35-.525.725-.851,1.1h5.049v3.049h-5.5v-2.524A12.3,12.3,0,0,1,962.352,3009.55ZM974.574,3018h9.673v1.125h-9.673v2.549c0,2.7-3.374,2.4-6,.575l.25-.875c3.1.75,3.549.55,3.549-.525v-1.724H962.252V3018h10.123v-1.525h-8.248v-1.124h8.248v-1.375c-2.574.175-5.2.225-7.4.175l-.05-.9a46.145,46.145,0,0,0,13.9-2.124l2,1.774a56.35,56.35,0,0,1-6.249.9v1.55H982.5v1.124h-7.923Zm-8.647-14.971h-3.4V3002h3.4v-1.65H967.7V3002h1.975v-1.7h1.774v1.7h3.65v1.025h-3.65v1.424h-1.774v-1.424H967.7v1h-1.774Zm.1,6.348h2.325v-1.224h-2.3Zm7.748-2.474a15.817,15.817,0,0,0,2.65-6.649l2.1.526a13.5,13.5,0,0,1-1.049,2.474h6.573v1.074h-1.925a8.513,8.513,0,0,1-2.024,3.95,14.236,14.236,0,0,0,4.324,1.524l-1,2.225a10.05,10.05,0,0,1-4.573-2.55,13.411,13.411,0,0,1-5.1,2.45l-.275-.8a10.494,10.494,0,0,0,4.423-2.7,10.56,10.56,0,0,1-1.674-3.1,11.339,11.339,0,0,1-1.9,2.1Zm3.1-2.575c-.05.05-.075.125-.125.175a7.894,7.894,0,0,0,2,2.8,9.509,9.509,0,0,0,1.225-2.975Z" fill="#4d4d4d"/>
      <path id="Path_1501" data-name="Path 1501" d="M999.126,3022.6a1.762,1.762,0,1,1,0-3.524,1.765,1.765,0,0,1,1.774,1.774A1.744,1.744,0,0,1,999.126,3022.6Zm-.851-5.424-.624-14.846h2.924l-.675,14.846Z" fill="#4d4d4d"/>
      <path id="Path_1502" data-name="Path 1502" d="M1035.923,3021.1v1.375h-21.844V3021.1h3.749v-12.821h2.3V3021.1h4.649v-17.646h-9.448V3002.2H1035v1.249h-7.823v7.624h6.8v1.125h-6.8v8.9Z" fill="#4d4d4d"/>
      <path id="Path_1503" data-name="Path 1503" d="M1054.126,3003.6v4.249h5.948v15.5h-2.3v-2.024h-13.622v2.124h-2.3v-15.6h5.423V3003.6h-7.147v-1.25h21.494v1.25Zm3.649,16.6v-3.674H1054.6c-2.349,0-2.674-.7-2.674-2.7v-4.849h-2.4c-.1,3.5-.8,7.224-4.424,9.748l-.6-.7c2.549-2.65,2.773-6.448,2.773-9.048h-3.124V3020.2Zm-5.848-16.6h-2.4v4.249h2.4Zm2.2,5.373v4.049c0,1.1.275,1.45,1.425,1.45h2.224v-5.5Z" fill="#4d4d4d"/>
      <path id="Path_1504" data-name="Path 1504" d="M1067.18,3001.377h8.623v9.1h-6.373v12.947h-2.25Zm6.423,3.874V3002.5h-4.173v2.749Zm0,4.124v-3h-4.173v3Zm6.274,11.247c3.624,1.05,4.524.925,4.524-.75v-9.4h-6.324v-9.1h8.573v19.095c0,3.075-2.624,4.1-7.1,1.025Zm4.524-15.371V3002.5h-4.124v2.749Zm0,4.124v-3h-4.124v3Z" fill="#4d4d4d"/>
      <path id="Path_1505" data-name="Path 1505" d="M1114.126,3012.424l-1.4,2.65a16.292,16.292,0,0,1-6.149-3.749,20.109,20.109,0,0,1-7.249,4.124l-.35-.825a19.04,19.04,0,0,0,2.025-.975h-2.85v5.324c1.175-.35,2.25-.7,3.1-1.025l.325.85a46.013,46.013,0,0,1-9.473,4.024l-.724-2.5c.425-.05.9-.1,1.374-.175v-8.5h1.95v8.148l1.3-.3v-10.3h-3.074v-7.673h7.823v7.673h-2.6v3.325h3.175v.949a15.2,15.2,0,0,0,4.149-3.4,15.112,15.112,0,0,1-1.95-3.524,14.517,14.517,0,0,1-2.1,2.349l-.625-.6c1.625-2.149,2.5-5.123,3.1-8.123l2.425.775a21.9,21.9,0,0,1-.875,2.175h3.275l.449-.4,2.224,1.125a19.654,19.654,0,0,1-3.5,6.123A17.3,17.3,0,0,0,1114.126,3012.424Zm-19.146-4.349h3.775v-5.423h-3.775Zm6.873,6.774h9.4v8.623h-2.1v-1.625h-5.2v1.649h-2.1Zm2.1,5.849h5.2v-4.724h-5.2Zm2.525-11.922a18.3,18.3,0,0,0,2.1-4.525h-3.649c-.25.475-.5.9-.749,1.35A12.648,12.648,0,0,0,1106.478,3008.776Z" fill="#4d4d4d"/>
      <path id="Path_1506" data-name="Path 1506" d="M1140.227,3020.672l-1.826,2.85c-2.4-1.1-7.7-5.849-9-14.6-1.3,7.6-6.1,12.7-11.5,14.772l-.449-.85c4.349-2.475,8.248-6.573,9.423-14.4h-8.6v-1.375h8.774c.049-.574.1-1.174.125-1.774.074-1.524.1-3.324.125-4.974l2.549.076c0,1.974-.05,3.773-.15,5.7l-.075.974h9.423v1.375h-8.8A17.81,17.81,0,0,0,1140.227,3020.672Z" fill="#4d4d4d"/>
      <path id="Path_1507" data-name="Path 1507" d="M311.3,3062.247l-.75,2.45c-2.674.175-6.9.25-9.922.125-5.124-.2-6.549-1.825-7.6-3.774a19.315,19.315,0,0,1-2.9,4.649l-1.624-1.525a17.947,17.947,0,0,0,3.249-3.474v-5.649h-3.025v-1.124h5.274v6.723c1.375,2.05,4.524,2.149,6.749,2.149A94.376,94.376,0,0,0,311.3,3062.247Zm-18.9-10.072a43.812,43.812,0,0,0-3.473-4l.474-.775a21.23,21.23,0,0,1,4.6,3Zm-2.649-9,.45-.725a17.9,17.9,0,0,1,4.6,2.775L293.232,3047A36.442,36.442,0,0,0,289.758,3043.177Zm11.7,4.2h-6.448v-1.1h4.624c-.675-1.25-1.5-2.625-2.15-3.6l.625-.649a18.127,18.127,0,0,1,3.724,3.348l-1.225.9h3.7a22.273,22.273,0,0,0,1.224-4.249l2.475.75a17.849,17.849,0,0,1-2.624,3.5H310.5v1.1H303.88a21.477,21.477,0,0,1-1.675,2.475h6.573V3061.5h-2.2v-1.324h-7.273v1.4h-2.2v-11.722h3.9A21.719,21.719,0,0,0,301.455,3047.376Zm5.124,3.6h-7.273v1.85h7.273Zm0,2.925h-7.273v2.024h7.273Zm0,3.1h-7.273v2.049h7.273Z" fill="#4d4d4d"/>
      <path id="Path_1508" data-name="Path 1508" d="M322.581,3058.223a4.94,4.94,0,0,0,3.175-4,2.577,2.577,0,0,1-.851.125,1.888,1.888,0,0,1-2-2,1.909,1.909,0,0,1,2.025-2c1.524,0,2.524.925,2.524,2.8a5.743,5.743,0,0,1-4.349,5.773Z" fill="#4d4d4d"/>
      <path id="Path_1509" data-name="Path 1509" d="M339.633,3042.952h1.95V3053.3c0,6.149-.45,9.223-2.375,12.047l-.774-.45c.95-2.074,1.2-4.349,1.2-11.172Zm3.25,1.9h1.749v17.57h-1.749Zm5,18.721h-1.9v-20.6h1.9Zm4.474-2.9,1.924,1.4a21.789,21.789,0,0,1-7.822,3.849l-.351-.825A18.523,18.523,0,0,0,352.355,3060.673Zm.874-15.621h-4.6v-1.125h12.022v1.125h-5a26.112,26.112,0,0,1-1.625,2.724h5.549V3060.2H349.506v-12.422h3.324C352.98,3046.926,353.155,3045.852,353.229,3045.052Zm4.15,3.849h-5.823v2.549h5.823Zm0,3.674h-5.823v2.649h5.823Zm0,3.774h-5.823v2.725h5.823Zm3.9,7.348-1.425,2.049a52,52,0,0,0-5.249-4.173l.375-.825A29.21,29.21,0,0,1,361.278,3063.7Z" fill="#4d4d4d"/>
      <path id="Path_1510" data-name="Path 1510" d="M369.382,3055.549v7.8c0,2.175-1.725,3.149-5.5.725l.25-.825c2.624.625,3.148.475,3.148-.7v-5.973c-1,.45-1.974.875-2.848,1.174l-.85-2.349c1.149-.225,2.424-.5,3.7-.824v-5.3h-3.473v-1.125h3.473V3042.4h2.1v5.748h2.949v1.125h-2.949v4.7a26.217,26.217,0,0,0,2.5-.875l.324.8C371.382,3054.45,370.407,3055,369.382,3055.549Zm13.346,1.225a11.2,11.2,0,0,1-2.024,4.374,25.2,25.2,0,0,1,4.5,2.5l-1.574,2.125a32.552,32.552,0,0,0-4.225-3.275c-2.1,1.775-5.073,2.85-9.048,3.2l-.224-.875c3.7-.7,6.049-1.8,7.6-3.3a27.769,27.769,0,0,0-2.875-1.375c-.4.725-.774,1.375-1.074,1.875l-1.825-.9c.65-1.075,1.55-2.7,2.35-4.349h-3.874v-1.125h4.4a23.14,23.14,0,0,0,1.1-2.749l2.074.675c-.225.625-.525,1.324-.875,2.074h8.723v1.125Zm-2.048-9.923h-9v-1.124h6.672a35.171,35.171,0,0,0-3.449-2.75l.375-.75a17.646,17.646,0,0,1,4.7,1.9l-1.149,1.6h6.048v1.124H380.8l2.274.9a29.927,29.927,0,0,1-2.75,3.874h5.4v1.125H371.106v-1.125h4.174a32.261,32.261,0,0,0-1.649-4.1l.8-.45a15.9,15.9,0,0,1,2.974,3.774l-1.45.775h3.2A38.715,38.715,0,0,0,380.68,3046.851Zm-.326,9.923h-3.749l-1.3,2.55a28.171,28.171,0,0,1,3.423,1.049A11,11,0,0,0,380.354,3056.774Z" fill="#4d4d4d"/>
      <path id="Path_1511" data-name="Path 1511" d="M399.881,3059.9l.325.85a40.654,40.654,0,0,1-10.973,4.549l-.8-2.524a65.515,65.515,0,0,0,6.922-1.5V3052.6h-6.222v-1.25h6.222v-8.223h2.3v17.5Zm6.223,4.7c-4.6,0-4.949-.55-4.949-3.9v-17.571h2.3v9.248a26.293,26.293,0,0,0,4.674-4.524l1.974,2.024a35.609,35.609,0,0,1-6.648,3.7v7.048c0,1.6.225,1.825,3.1,1.825,2.45,0,2.549-.4,2.524-5.649h.9C411.553,3063.573,411.253,3064.6,406.1,3064.6Z" fill="#4d4d4d"/>
      <path id="Path_1512" data-name="Path 1512" d="M424.131,3046.551l2.5.8c-1.775,10.573-6.423,15.8-12.1,18.571l-.524-.85c6.023-4.049,8.722-9.648,9.722-16.771l-4-.05a23.962,23.962,0,0,1-1.7,3.5,15.9,15.9,0,0,1,3.65,2.8l-1.825,1.925a28.423,28.423,0,0,0-2.524-3.674,14.582,14.582,0,0,1-3.125,3.374l-.6-.7c1.975-2.4,4.1-6.3,5.149-13.3l2.55.525a35.817,35.817,0,0,1-1.15,4.424h3.374Zm10,11c-.9-1.525-2.425-3.749-3.749-5.624v13.722h-2.3V3042.5h2.3v7.723a39.186,39.186,0,0,1,5.847,5.4Z" fill="#4d4d4d"/>
      <path id="Path_1513" data-name="Path 1513" d="M447.156,3057.124a33.014,33.014,0,0,1-7.573,4.049l-.925-2.45c.95-.149,2-.4,3.05-.674v-6.124h-2.625V3050.8h2.625v-5.748h-2.949v-1.125h7.873v1.125h-2.824v5.748h2.423v1.125h-2.423v5.5a27.967,27.967,0,0,0,2.923-1.1Zm14,6.023-1.349,2.3c-2.925-1.25-5.325-3.474-6.1-8.573h-.476a8.409,8.409,0,0,1-1.724,1.65v3.749a28.556,28.556,0,0,0,2.925-.9l.375.826a26.088,26.088,0,0,1-7.5,3.224l-.8-2.25c.949-.1,1.974-.25,3-.45V3059.8a24.664,24.664,0,0,1-5.024,2.1l-.325-.875a16.588,16.588,0,0,0,6.524-4.149h-3.124l-.026-4.324h11.723v4.324h-4.6a9.57,9.57,0,0,0,1.375,3.124,13.647,13.647,0,0,0,2.374-2.649l1.75,1.4a16.976,16.976,0,0,1-3.474,2.025A10.457,10.457,0,0,0,461.153,3063.147ZM446.606,3050h14.072v1.125H446.606Zm13.147-1.249h-12.6v-5.4h12.6Zm-8.973-4.274h-1.574v3.149h1.574Zm-1.1,11.322h7.448v-2.175h-7.473Zm4.524-11.322H452.58v3.149H454.2Zm3.5,0H456v3.149h1.7Z" fill="#4d4d4d"/>
      <path id="Path_1514" data-name="Path 1514" d="M465.958,3046.676c.375,2.2.325,5.849-.325,7.349l-2.275-.85a13.28,13.28,0,0,0,1.7-6.5Zm1.024-4.249h2.15v23.17h-2.15Zm19.146,20.47-1.824,2.75c-2.275-1.35-5.424-4.324-6.524-10.548h-.025c-.775,4.949-3.2,8.248-7.823,10.673l-.5-.75a13.122,13.122,0,0,0,6.024-9.923h-4.949v-1.124h5.074c.1-1.075.149-2.225.149-3.5v-2.4h-3.848v-1.125h3.848v-4.624l2.3.025v4.6h5.224v7.024h2.424v1.124h-7A11.805,11.805,0,0,0,486.128,3062.9Zm-15.7-10.522a49.99,49.99,0,0,0-1-5.549l.8-.3a17.627,17.627,0,0,1,2.35,5.323Zm7.473,1.6h3.15v-5.9H478.03v3.1C478.03,3052.15,477.98,3053.1,477.9,3053.975Z" fill="#4d4d4d"/>
      <path id="Path_1515" data-name="Path 1515" d="M511.278,3062.048l-.625,2.524a101.5,101.5,0,0,1-10.222.175c-3.825-.225-5.249-.775-7.024-3.674a23.724,23.724,0,0,1-3.574,4.649l-1.425-1.475a17.613,17.613,0,0,0,3.775-3.474v-5.624h-3.525V3054h5.724v6.574c1.474,2.049,2.9,2.1,6.174,2.174A77.147,77.147,0,0,0,511.278,3062.048Zm-18.571-9.748c-.824-1.1-2.349-2.874-3.4-3.974l.5-.75a23.4,23.4,0,0,1,4.523,2.874Zm-2.6-9.223.475-.75a20.532,20.532,0,0,1,4.6,2.749l-1.6,1.825A33,33,0,0,0,490.108,3043.077Zm10.773,10.723h-4.175v-5.549h5.049v-1.974h-5.873v-1.125h5.873v-2.725h2.2v2.725h6.224v1.125h-6.224v1.974h5.174v5.549h-5.174v.7a29.705,29.705,0,0,1,6.423,3.65l-1.6,2.074a37.227,37.227,0,0,0-4.823-4.474v5.974h-2.2v-5.974a18.006,18.006,0,0,1-6.048,4.949l-.5-.8A19.2,19.2,0,0,0,500.881,3053.8Zm-2.025-1.125h2.9v-3.3h-2.9Zm5.1,0h3.024v-3.3h-3.024Z" fill="#4d4d4d"/>
      <path id="Path_1516" data-name="Path 1516" d="M536.3,3062.247l-.75,2.45c-2.674.175-6.9.25-9.922.125-5.124-.2-6.549-1.825-7.6-3.774a19.314,19.314,0,0,1-2.9,4.649l-1.624-1.525a17.945,17.945,0,0,0,3.249-3.474v-5.649h-3.025v-1.124h5.274v6.723c1.375,2.05,4.524,2.149,6.749,2.149A94.375,94.375,0,0,0,536.3,3062.247Zm-18.9-10.072a43.82,43.82,0,0,0-3.473-4l.474-.775a21.232,21.232,0,0,1,4.6,3Zm-2.649-9,.45-.725a17.9,17.9,0,0,1,4.6,2.775L518.232,3047A36.449,36.449,0,0,0,514.758,3043.177Zm11.7,4.2h-6.448v-1.1h4.624c-.675-1.25-1.5-2.625-2.15-3.6l.625-.649a18.127,18.127,0,0,1,3.724,3.348l-1.225.9h3.7a22.273,22.273,0,0,0,1.224-4.249l2.475.75a17.848,17.848,0,0,1-2.624,3.5H535.5v1.1H528.88a21.473,21.473,0,0,1-1.675,2.475h6.573V3061.5h-2.2v-1.324h-7.273v1.4h-2.2v-11.722h3.9A21.72,21.72,0,0,0,526.455,3047.376Zm5.124,3.6h-7.273v1.85h7.273Zm0,2.925h-7.273v2.024h7.273Zm0,3.1h-7.273v2.049h7.273Z" fill="#4d4d4d"/>
      <path id="Path_1517" data-name="Path 1517" d="M561.2,3054.424l-1.4,2.65a16.293,16.293,0,0,1-6.149-3.749,20.11,20.11,0,0,1-7.249,4.124l-.349-.825a19.113,19.113,0,0,0,2.024-.975h-2.85v5.324c1.175-.35,2.25-.7,3.1-1.025l.325.85a46.027,46.027,0,0,1-9.472,4.024l-.725-2.5c.425-.05.9-.1,1.374-.175v-8.5h1.95v8.148l1.3-.3v-10.3h-3.074v-7.673h7.823v7.673h-2.6v3.325h3.175v.949a15.205,15.205,0,0,0,4.149-3.4,15.112,15.112,0,0,1-1.95-3.524,14.517,14.517,0,0,1-2.1,2.349l-.625-.6c1.625-2.149,2.5-5.123,3.1-8.123l2.425.775a21.9,21.9,0,0,1-.875,2.175H555.8l.449-.4,2.224,1.125a19.656,19.656,0,0,1-3.5,6.123A17.3,17.3,0,0,0,561.2,3054.424Zm-19.145-4.349h3.774v-5.423h-3.774Zm6.873,6.774h9.4v8.623h-2.1v-1.625h-5.2v1.649h-2.1Zm2.1,5.849h5.2v-4.724h-5.2Zm2.525-11.922a18.293,18.293,0,0,0,2.1-4.525h-3.649c-.25.475-.5.9-.749,1.35A12.673,12.673,0,0,0,553.555,3050.776Z" fill="#4d4d4d"/>
      <path id="Path_1518" data-name="Path 1518" d="M572.581,3058.223a4.94,4.94,0,0,0,3.175-4,2.576,2.576,0,0,1-.851.125,1.889,1.889,0,0,1-2-2,1.909,1.909,0,0,1,2.025-2c1.524,0,2.524.925,2.524,2.8a5.743,5.743,0,0,1-4.349,5.773Z" fill="#4d4d4d"/>
      <path id="Path_1519" data-name="Path 1519" d="M611.278,3062.048l-.625,2.524a96.64,96.64,0,0,1-9.972.175c-3.825-.225-5.474-.6-7.248-3.6a21.772,21.772,0,0,1-3.35,4.649l-1.524-1.55a20.43,20.43,0,0,0,3.6-3.4v-5.7h-3.3V3054h5.6v6.649c1.475,2.074,3.074,2.024,6.349,2.1A73.531,73.531,0,0,0,611.278,3062.048Zm-18.7-10c-.825-1.075-2.5-2.975-3.55-4.1l.5-.75a24.4,24.4,0,0,1,4.674,3Zm-2.6-8.973.475-.75a21.506,21.506,0,0,1,4.8,2.925l-1.6,1.824C592.583,3045.8,591.183,3044.252,589.983,3043.077Zm8.748,18.171-2.149-.025v-12.672h6.748c-1.075-.75-2.425-1.65-3.749-2.425l.3-.874a31.438,31.438,0,0,1,3.924,1.3,15.779,15.779,0,0,0,1.949-1.874l-9.1.075v-1.1l9.373-.075.7-.4,2.3,1.55a15.1,15.1,0,0,1-4.049,2.349l.576.3-.776,1.175h4.849v10.223c0,2.7-2.7,2.774-5,1.074l.224-.85c2.35.576,2.624.3,2.624-.875v-1.7h-3.324v4.624h-2.1v-4.6h-3.325Zm0-11.572v2.224h3.325v-2.224Zm3.325,5.673v-2.374h-3.325v2.374Zm5.422-5.673h-3.324v2.224h3.324Zm0,5.673v-2.374h-3.324v2.374Z" fill="#4d4d4d"/>
      <path id="Path_1520" data-name="Path 1520" d="M634.8,3048.3c-.176,8.2-.651,13.247-1.151,15.046-.524,1.875-2.649,2.874-6.1-.125l.4-.824c2.975,1.074,3.449.925,3.8-.675a75.545,75.545,0,0,0,.775-12.3H630.38c-.1,7.2-2.125,13.1-7.6,16.32l-.524-.749a13.244,13.244,0,0,0,2.223-2.2,59.534,59.534,0,0,1-9.947,2.1l-.575-2.374c1.525-.075,3.274-.176,5.024-.325v-2.1h-4.4v-1.125h4.4v-1.724h-4.774v-1.125h4.774v-1.575h-4.274v-4.174h4.274V3048.8h-2.7v-3.074h-2.425V3044.6h2.425v-2.225h2.1v2.225h3.6v-2.225h2.1v2.225h2.6v1.125h-2.6v3.074h-2.925v1.574h4.475v4.174h-4.475v1.575h4.749v1.125h-4.749v1.724h4.2v1.125h-4.2v1.925c1.5-.151,2.949-.325,4.249-.526,1.85-3.024,2.625-6.922,2.625-12.071h-2.824V3048.3h2.824v-5.9h2.35v5.9Zm-15.8,5.124V3051.5h-2.2v1.925Zm2.974-5.749v-1.949h-3.6v1.949Zm-.8,5.749h2.349V3051.5h-2.349Z" fill="#4d4d4d"/>
      <path id="Path_1521" data-name="Path 1521" d="M650.931,3046.777v2.749h8.522V3063.1c0,2.524-2.149,3.35-6.173.85l.25-.874c3.124.749,3.674.524,3.674-.726v-11.7H642.633v14.871h-2.25v-16h8.223v-2.749h-9.773v-1.125h9.773V3042.4h2.349v3.249h9.9v1.125Zm5.548,12.921h-5.524v5h-2.2v-5h-5.349v-1.124h5.349v-2.45h-5.049V3055h3.274a19.091,19.091,0,0,0-2-3.574l.675-.6a15.834,15.834,0,0,1,3.4,3.325l-1.275.849h2.9a22.787,22.787,0,0,0,1.7-4.249l2.3,1.125a26.787,26.787,0,0,1-2.825,3.124h4.3v1.125h-5.2v2.45h5.524Z" fill="#4d4d4d"/>
      <path id="Path_1522" data-name="Path 1522" d="M670.182,3053.225v12.447h-2.15V3054.8a21.552,21.552,0,0,1-4,6.224l-.625-.575a30.475,30.475,0,0,0,4.2-10.148h-3.749v-1.124h4.174v-3.624c-1.374.25-2.724.425-3.874.524l-.175-.849a24.67,24.67,0,0,0,7.973-3.125l1.775,1.95a28.552,28.552,0,0,1-3.549,1.05v4.074h3.549v1.124h-3.549v1.475a26.727,26.727,0,0,1,3.874,3.349l-1.775,1.65C671.781,3055.8,670.957,3054.45,670.182,3053.225Zm12.4,4.224v7.973h-2.2v-7.473c-2.675.6-5.374,1.2-8.049,1.749l-.375-1.124c2.8-.576,5.624-1.175,8.424-1.8v-14.322h2.2v13.822c1.024-.25,2.074-.475,3.1-.725l.3,1.1C684.853,3056.924,683.7,3057.2,682.579,3057.449Zm-8.273-6.549a18.056,18.056,0,0,1,4.6,3.724l-1.9,1.675a39.4,39.4,0,0,0-3.324-4.749Zm3.274-1.174a46.039,46.039,0,0,0-3.5-4.35l.55-.675a18.578,18.578,0,0,1,4.648,3.35Z" fill="#4d4d4d"/>
      <path id="Path_1523" data-name="Path 1523" d="M692.808,3059.248l.824.35a17.15,17.15,0,0,1-2.549,6.174l-2.25-1.575A16.178,16.178,0,0,0,692.808,3059.248Zm-.026-6.623h-3.574V3051.5h3.574v-3.674a15.263,15.263,0,0,1-2.9,2.349l-.574-.7a22.037,22.037,0,0,0,4.923-7.448l2.3,1.024a16.663,16.663,0,0,1-1.9,2.75h14.922v1.124h-2.725v4.574h4.124v1.125h-4.124v4.949h3.724v1.125H689.434v-1.125h3.348Zm4.1-1.125v-4.574h-2.1v4.574Zm0,1.125h-2.1v4.949h2.1Zm.074,6.923a28.217,28.217,0,0,1,2.475,5.324l-2.525.65c-.175-1.5-.425-3.949-.8-5.674Zm3.9-8.048v-4.574h-2.074v4.574Zm0,1.125h-2.074v4.949h2.074Zm.8,6.824a22.287,22.287,0,0,1,3.5,4.9l-2.4,1.1a41.455,41.455,0,0,0-1.874-5.549Zm3.174-12.523h-2.074v4.574h2.074Zm0,5.7h-2.074v4.949h2.074Zm6.2,11.522-2.425,1.224a32.783,32.783,0,0,0-2.449-5.773l.725-.5A24.351,24.351,0,0,1,711.028,3064.147Z" fill="#4d4d4d"/>
      <path id="Path_1524" data-name="Path 1524" d="M715.983,3058.5a17.814,17.814,0,0,1-.5,6.649l-2.274-.975a13.124,13.124,0,0,0,1.949-5.773Zm-.675-3.224a44.783,44.783,0,0,0,2.4-4.674,21.107,21.107,0,0,1-3.474,1.05l-.549-2.049c.45,0,.9.024,1.3,0a50.327,50.327,0,0,0,2.025-7.374l2.249.725a52.482,52.482,0,0,1-3.274,6.623,20.449,20.449,0,0,0,2.224-.2c.45-1.074.875-2.249,1.275-3.5l2.075.95a42.942,42.942,0,0,1-5.224,8.348c.85-.125,1.7-.275,2.7-.474-.175-.576-.375-1.125-.575-1.65l.65-.375a18.228,18.228,0,0,1,2.45,4.024l-1.8.75q-.187-.862-.45-1.8a27.2,27.2,0,0,1-5.074,1.974l-.825-2.224C714.108,3055.374,714.708,3055.325,715.308,3055.274Zm2.424,2.849a54.906,54.906,0,0,1,1.451,5.7l-2,.3c-.026-1.25-.1-4.249-.25-5.874Zm4.174,4-1.874.725c-.275-1.225-.775-3.374-1.275-4.948l.725-.276A27.744,27.744,0,0,1,721.906,3062.122Zm14.372.425-.6,2.275a30,30,0,0,1-5.2.175c-3.3-.175-5.074-.925-6.173-3.524a19.448,19.448,0,0,1-2.174,4.324l-1.651-1.2a21.086,21.086,0,0,0,2.7-3.5v-6.148h-2.3v-1.175h4.4v7.448c1.425,1.85,2.55,1.674,5.349,1.749A28.67,28.67,0,0,0,736.278,3062.547Zm-15-19.57.4-.625a14.909,14.909,0,0,1,3.874,2.175l-1.326,1.7A36.4,36.4,0,0,0,721.281,3042.977Zm4.05,7.049-1.5,1.449a26.876,26.876,0,0,0-2.35-3.3l.5-.625A14.221,14.221,0,0,1,725.331,3050.026Zm-.15-1.95a16.26,16.26,0,0,0,3.1-5.849l1.949.625c-.275.575-.575,1.125-.875,1.625l2.825-.025.525-.325,1.824,1a13.348,13.348,0,0,1-2.649,3.874,13.767,13.767,0,0,0,4.1,1.374l-1.125,2a10,10,0,0,1-4.173-2.324,17.633,17.633,0,0,1-5.874,2.774l-.3-.825a13.816,13.816,0,0,0,5.1-3.074,9.723,9.723,0,0,1-1.574-2.55,13.074,13.074,0,0,1-2.3,2.25Zm4.223,14.247v-2.45h-3.7V3058.8h3.7V3057h-2.848v-1.05H729.4v-1.775h-3.273v-1.049H729.4V3051.2h2.05v1.925h3.274v1.049h-3.274v1.775h2.7V3057h-2.7v1.8h3.9v1.075h-3.9v2.45Zm-.675-16.872-.174.25a8.094,8.094,0,0,0,1.9,2.35,8.981,8.981,0,0,0,1.7-2.624Z" fill="#4d4d4d"/>
      <path id="Path_1525" data-name="Path 1525" d="M744.382,3055.549v7.8c0,2.175-1.725,3.149-5.5.725l.25-.825c2.624.625,3.148.475,3.148-.7v-5.973c-1,.45-1.974.875-2.848,1.174l-.85-2.349c1.149-.225,2.424-.5,3.7-.824v-5.3h-3.473v-1.125h3.473V3042.4h2.1v5.748h2.949v1.125h-2.949v4.7a26.223,26.223,0,0,0,2.5-.875l.324.8C746.382,3054.45,745.407,3055,744.382,3055.549Zm13.346,1.225a11.2,11.2,0,0,1-2.024,4.374,25.194,25.194,0,0,1,4.5,2.5l-1.574,2.125a32.552,32.552,0,0,0-4.225-3.275c-2.1,1.775-5.073,2.85-9.048,3.2l-.224-.875c3.7-.7,6.049-1.8,7.6-3.3a27.763,27.763,0,0,0-2.875-1.375c-.4.725-.774,1.375-1.074,1.875l-1.825-.9c.65-1.075,1.55-2.7,2.35-4.349h-3.874v-1.125h4.4a23.136,23.136,0,0,0,1.1-2.749l2.074.675c-.225.625-.525,1.324-.875,2.074h8.723v1.125Zm-2.048-9.923h-9v-1.124h6.672a35.174,35.174,0,0,0-3.449-2.75l.375-.75a17.646,17.646,0,0,1,4.7,1.9l-1.149,1.6h6.048v1.124H755.8l2.274.9a29.921,29.921,0,0,1-2.75,3.874h5.4v1.125H746.106v-1.125h4.174a32.261,32.261,0,0,0-1.649-4.1l.8-.45a15.9,15.9,0,0,1,2.974,3.774l-1.45.775h3.2A38.715,38.715,0,0,0,755.68,3046.851Zm-.326,9.923H751.6l-1.3,2.55a28.172,28.172,0,0,1,3.423,1.049A11,11,0,0,0,755.354,3056.774Z" fill="#4d4d4d"/>
      <path id="Path_1526" data-name="Path 1526" d="M774.931,3060.748h-4.249v4.849h-2.15v-4.849h-5.023v-1.125h5.023v-2.3h-3.749v-8.6h3.775v-2.175h-4.674v-1.124h4.674V3042.3h2.149v3.125h4.374v1.124h-4.374v2.175h3.7v8.6h-3.724v2.3h4.249Zm-6.324-10.9h-1.824v2.349h1.824Zm0,3.4h-1.824v2.949h1.824Zm1.95-1.05h1.9v-2.349h-1.9Zm1.9,4v-2.949h-1.9v2.949Zm10.673,8.823c-2.3,0-2.525-.85-2.525-3.2V3049.1h-1.625c-.149,7.823-1.024,13.3-6.1,16.846l-.574-.7c3.773-3.625,4.348-7.548,4.448-16.146h-1.824v-1.125h1.824v-5.549l2.25.025v5.524h3.824v13.5c0,1.3.175,1.424.7,1.424.851,0,.9-.1.8-4.349h.9C786.977,3064.822,785.728,3065.022,783.129,3065.022Z" fill="#4d4d4d"/>
      <path id="Path_1527" data-name="Path 1527" d="M797.581,3058.223a4.94,4.94,0,0,0,3.175-4,2.576,2.576,0,0,1-.851.125,1.889,1.889,0,0,1-2-2,1.909,1.909,0,0,1,2.025-2c1.524,0,2.524.925,2.524,2.8a5.743,5.743,0,0,1-4.349,5.773Z" fill="#4d4d4d"/>
      <path id="Path_1528" data-name="Path 1528" d="M820.182,3053.225v12.447h-2.15V3054.8a21.552,21.552,0,0,1-4,6.224l-.625-.575a30.475,30.475,0,0,0,4.2-10.148h-3.749v-1.124h4.174v-3.624c-1.374.25-2.724.425-3.874.524l-.175-.849a24.67,24.67,0,0,0,7.973-3.125l1.775,1.95a28.552,28.552,0,0,1-3.549,1.05v4.074h3.549v1.124h-3.549v1.475a26.727,26.727,0,0,1,3.874,3.349l-1.775,1.65C821.781,3055.8,820.957,3054.45,820.182,3053.225Zm12.4,4.224v7.973h-2.2v-7.473c-2.675.6-5.374,1.2-8.049,1.749l-.375-1.124c2.8-.576,5.624-1.175,8.424-1.8v-14.322h2.2v13.822c1.024-.25,2.074-.475,3.1-.725l.3,1.1C834.853,3056.924,833.7,3057.2,832.579,3057.449Zm-8.273-6.549a18.056,18.056,0,0,1,4.6,3.724l-1.9,1.675a39.4,39.4,0,0,0-3.324-4.749Zm3.274-1.174a46.039,46.039,0,0,0-3.5-4.35l.55-.675a18.578,18.578,0,0,1,4.648,3.35Z" fill="#4d4d4d"/>
      <path id="Path_1529" data-name="Path 1529" d="M844.632,3055.774l-.025,7.573c0,2.175-1.724,3.149-5.5.725l.25-.825c2.624.625,3.15.475,3.15-.7v-5.873c-1.026.4-2.05.725-3.1,1.05l-.724-2.45c1.375-.2,2.624-.375,3.824-.624v-5.275h-3.574v-1.124h3.574v-5.8h2.149l-.025,5.8h2.974v1.124h-2.974v4.825c.724-.175,1.474-.4,2.224-.625l.326.849Q845.907,3055.174,844.632,3055.774Zm15.047,9.6a16.664,16.664,0,0,1-6.274-3.624,20.068,20.068,0,0,1-8.373,3.85l-.3-.85a19.059,19.059,0,0,0,7.423-4.374,16.779,16.779,0,0,1-3.149-7.423h-1.675v-1.125h4.7V3047.7h-5v-1.125h5v-4.124h2.249v4.124h5.749v1.125h-5.749v4.124h1.776l.6-.4,2.275,1.125a21.436,21.436,0,0,1-4,7.7,21.187,21.187,0,0,0,6.273,2.525ZM853.354,3059a17.9,17.9,0,0,0,2.8-6.048h-6.249A13.025,13.025,0,0,0,853.354,3059Z" fill="#4d4d4d"/>
      <path id="Path_1530" data-name="Path 1530" d="M870.906,3058.473v7.1h-2.2v-6.424a16.444,16.444,0,0,1-4.674,4.7l-.55-.7a19.272,19.272,0,0,0,4.7-6.773h-4V3055.3h4.523v-2.449h2.2v2.449h4.2v1.075h-4.2v.8a18.678,18.678,0,0,1,4.025,3.124l-1.6,1.55C872.531,3060.573,871.682,3059.5,870.906,3058.473Zm4.624-6.123h-11.7v-1.125h3.274a39.354,39.354,0,0,0-1.574-3.9l.75-.5a17.412,17.412,0,0,1,2.824,3.649l-1.45.75h2.925a25.377,25.377,0,0,0,1-4.448l2.249.724a21.866,21.866,0,0,1-2.274,3.724h3.973Zm-.6-5.7H864.208v-1.1h5.224a35.167,35.167,0,0,0-2.774-2.7l.449-.75a17.186,17.186,0,0,1,4.174,2.1l-1.024,1.35h4.674Zm10.972,5.073h-2.574v13.747h-2.2v-13.747H878.28v1c0,6.448-1.3,10.473-4.4,13.122l-.675-.6c2.375-2.924,2.824-6.423,2.824-11.7V3044.3l2.074.55a15.642,15.642,0,0,0,5.1-2.5l2.149,1.825a28.5,28.5,0,0,1-7.073,1.574v4.849H885.9Z" fill="#4d4d4d"/>
      <path id="Path_1531" data-name="Path 1531" d="M898.706,3050.3v-1.4h-6.9v-4.4h6.9v-2.175h2.2v2.175h7v4.4h-7v1.4h9.9v1.125H888.809V3050.3Zm-1.75,11.123,2.325,1.5a34.829,34.829,0,0,1-10.073,3.025l-.274-.875A24.827,24.827,0,0,0,896.956,3061.423Zm10.748-8.773v8.648H892.083v-8.648Zm-9-7.024h-4.749v2.15h4.749Zm6.849,8.149h-11.3v1.349h11.3Zm0,2.424h-11.3v1.424h11.3Zm0,2.5h-11.3v1.474h11.3Zm-4.874,3.773.224-.874a40.414,40.414,0,0,1,9.248,2.049l-1.1,2.224A69.05,69.05,0,0,0,900.681,3062.472Zm5.073-16.846h-4.849v2.15h4.849Z" fill="#4d4d4d"/>
      <path id="Path_1532" data-name="Path 1532" d="M935.853,3063.573v1.124H913.884v-1.124h3.823v-11.1h5.524l.15-1.65h-9.048V3049.7h9.148l.15-1.6h-7.948v-4.7h18.3v4.7h-8.2l-.149,1.6h9.722v1.125H925.53l-.149,1.65h6.5v11.1Zm-14.8-19.046h-3.225v2.449h3.225Zm8.623,9.073h-9.773v1.6h9.773Zm0,2.649h-9.773v1.7h9.773Zm0,2.749h-9.773v1.725h9.773Zm0,2.775h-9.773v1.8h9.773Zm-6.524-14.8h3.275v-2.449h-3.275Zm5.374,0h3.3v-2.449h-3.3Z" fill="#4d4d4d"/>
      <path id="Path_1533" data-name="Path 1533" d="M942.808,3055.2c0,4.573-.675,8.248-3.45,10.522l-.7-.575c1.526-2.025,1.95-4.524,1.95-9.448v-5h3.424l-.224-.525a35.8,35.8,0,0,0,5.4-1.7,41.834,41.834,0,0,0-4.3-1.2l.2-.825a40.805,40.805,0,0,1,5.974,1.125,12.76,12.76,0,0,0,2.274-1.5H940.108v-1.125h10.523c-1.1-.674-2.65-1.549-3.6-2.024l.226-.825a25.934,25.934,0,0,1,5.348,1.425l-.85,1.424h8.3v1.125h-4.4l.425.275a17.775,17.775,0,0,1-2.824,1.85,38.706,38.706,0,0,1,3.9,1.35l-.725,1.149h4.3v1.125h-17.92Zm17.945,8.322v1.125H942.282v-1.125h8.448v-3.1h-5.423V3059.3h5.423v-2.574h-4.124a18.092,18.092,0,0,1-3.348,3.924l-.575-.675a17.652,17.652,0,0,0,3.223-7.248l2.225.675a19.9,19.9,0,0,1-.9,2.2h3.5v-2.9h2.05v2.9H959.3v1.125H952.78v2.574H958.5v1.125H952.78v3.1ZM945.632,3050.7h9.022c-1.224-.575-2.4-1.075-3.549-1.524A32.883,32.883,0,0,1,945.632,3050.7Z" fill="#4d4d4d"/>
      <path id="Path_1534" data-name="Path 1534" d="M975.931,3048.276a21.11,21.11,0,0,1-1.826,2.874h8.524v14.4h-2.4v-1.725H969.782v1.8h-2.4V3051.15h5.523a27.071,27.071,0,0,0,.45-2.874h-9.472V3046.9h7.3c-.8-1.6-1.625-2.9-2.45-4.274l.65-.649a19.218,19.218,0,0,1,4.074,3.874l-1.55,1.049h4.65a25.257,25.257,0,0,0,1.949-4.8l2.6,1.025a20.836,20.836,0,0,1-3.3,3.774h7.973v1.375Zm4.3,4H969.782v2.6h10.447Zm0,3.724H969.782v2.749h10.447Zm0,3.874H969.782v2.825h10.447Z" fill="#4d4d4d"/>
      <path id="Path_1535" data-name="Path 1535" d="M991.758,3061.148V3055.4h-2.874v-1.124h5.073v6.823c1.375,2.174,4.524,1.824,6.748,1.824a98.2,98.2,0,0,0,10.773-.6l-.9,2.4c-2.675.175-6.974.2-10,.075-5.124-.2-6.6-1.224-7.648-3.3a17.68,17.68,0,0,1-2.95,4.374l-1.524-1.549A19.711,19.711,0,0,0,991.758,3061.148Zm-3-12.8.474-.775a19.367,19.367,0,0,1,4.624,3l-1.6,1.825A38.721,38.721,0,0,0,988.759,3048.351Zm.949-5.174.5-.774a17.53,17.53,0,0,1,4.674,2.774l-1.525,1.8A42.284,42.284,0,0,0,989.708,3043.177Zm9.048,13.6v-2.225h-3.049v-1.124h3.049v-1.95h2.05v1.95h3.449v-1.95h2.049v1.95h3.324v1.124H1006.3v2.225h4.224v1.125H994.982v-1.125Zm1.274,1.324,2.05,1.175a18.743,18.743,0,0,1-6.523,2.925l-.425-.8A14.817,14.817,0,0,0,1000.03,3058.1Zm-.55-8.9c1.225,0,1.55,0,2.1-.874l1.175,1.15c-.625,1.175-1.55,1.374-3.3,1.374-2.824,0-3.749-.125-3.749-2.524V3043.8h6.023v3.824h-4.074v.575C997.656,3049.226,998.156,3049.2,999.48,3049.2Zm-1.824-4.348v1.724h2.225v-1.724Zm6.6,9.7h-3.449v2.225h3.449Zm2.6-5.349c1.45,0,1.7,0,2.249-.849l1.15,1.175c-.6,1.1-1.7,1.324-3.574,1.324-2.65,0-3.624-.175-3.624-2.524V3043.8h6.148v3.824h-4.2v.575C1005.005,3049.226,1005.555,3049.2,1006.854,3049.2Zm-3.6,9.874.3-.851a27.583,27.583,0,0,1,6.673,2l-1.174,2.05A57.853,57.853,0,0,0,1003.255,3059.074Zm1.75-14.222v1.724h2.348v-1.724Z" fill="#4d4d4d"/>
      <path id="Path_1536" data-name="Path 1536" d="M1021.682,3054a3.3,3.3,0,0,1,.924-2.374,3.037,3.037,0,0,1,2.275-1,3.379,3.379,0,0,1,0,6.748A3.31,3.31,0,0,1,1021.682,3054Zm5.173,0a2.018,2.018,0,0,0-1.974-2.074,2.088,2.088,0,0,0-1.375,3.549,1.8,1.8,0,0,0,1.375.6A2.018,2.018,0,0,0,1026.855,3054Z" fill="#4d4d4d"/>
    </g>
    <g id="Group_1015" data-name="Group 1015">
      <path id="Path_1537" data-name="Path 1537" d="M1316.919,2975.433v19.917h-3.439v-17.4a34.483,34.483,0,0,1-6.4,9.958l-1-.919a48.825,48.825,0,0,0,6.719-16.238h-6v-1.8h6.679v-5.8c-2.2.4-4.359.679-6.2.839l-.28-1.359a39.451,39.451,0,0,0,12.758-5l2.84,3.12a45.933,45.933,0,0,1-5.68,1.68v6.518h5.68v1.8h-5.68v2.36a42.7,42.7,0,0,1,6.2,5.359l-2.839,2.64C1319.479,2979.553,1318.159,2977.393,1316.919,2975.433Zm19.837,6.759v12.758h-3.52v-11.958c-4.279.96-8.6,1.919-12.878,2.8l-.6-1.8c4.479-.92,9-1.879,13.477-2.879V2958.2h3.52v22.116c1.64-.4,3.319-.76,4.959-1.16l.48,1.759C1340.4,2981.352,1338.556,2981.792,1336.756,2982.192Zm-13.237-10.478a28.9,28.9,0,0,1,7.358,5.959l-3.039,2.68a62.971,62.971,0,0,0-5.319-7.6Zm5.239-1.88a73.583,73.583,0,0,0-5.6-6.959l.88-1.079a29.732,29.732,0,0,1,7.439,5.359Z" fill="#182c80"/>
      <path id="Path_1538" data-name="Path 1538" d="M1364.04,2979.513l-.04,12.118c0,3.479-2.76,5.039-8.8,1.159l.4-1.319c4.2,1,5.039.76,5.039-1.12v-9.4c-1.64.64-3.28,1.161-4.959,1.68l-1.159-3.919c2.2-.32,4.2-.6,6.118-1v-8.438h-5.719v-1.8h5.719V2958.2h3.439l-.039,9.278h4.759v1.8h-4.759v7.718c1.159-.28,2.359-.64,3.559-1l.52,1.36Q1366.079,2978.553,1364.04,2979.513Zm24.075,15.357a26.719,26.719,0,0,1-10.038-5.8c-3.319,2.8-7.6,4.719-13.4,6.159l-.481-1.36c5.4-1.92,9.159-4.239,11.878-7a26.853,26.853,0,0,1-5.039-11.878h-2.68v-1.8h7.52v-6.6h-8v-1.8h8v-6.6h3.6v6.6h9.2v1.8h-9.2v6.6h2.839l.96-.64,3.64,1.8c-1.72,5.239-3.68,9.238-6.4,12.317a33.87,33.87,0,0,0,10.038,4.04Zm-10.118-10.2a28.7,28.7,0,0,0,4.48-9.679h-10A20.821,20.821,0,0,0,1378,2984.672Z" fill="#182c80"/>
      <path id="Path_1539" data-name="Path 1539" d="M1438.075,2988.311l-1.679,4.68a91.976,91.976,0,0,1-11.878.359c-8.439-.2-11.918-3.839-13.638-7.958-2.08-5.039-1.92,1.8-4.2,8.878l-4.2-2.2c4.839-7.639,6.2-14.758,9.319-8.679.16.36.359.68.559,1.04,5.679-3.8,12.279-10,15.478-15.878H1404.56v-2.2h23.317l1.64-1.08,4.4,2.52a52.03,52.03,0,0,1-20.717,18c1.56,2.04,4.32,3.76,11.479,3.76A84.414,84.414,0,0,0,1438.075,2988.311Zm-26-29.635.8-1.319a43.214,43.214,0,0,1,9.958,5.2l-2.92,3.56A103.221,103.221,0,0,0,1412.079,2958.676Z" fill="#182c80"/>
      <path id="Path_1540" data-name="Path 1540" d="M1465.919,2971.194h5.679v1.8h-7.039a33.479,33.479,0,0,1-3.839,4h8.518v18H1465.8v-2.879h-6.879v3.039h-3.44v-14.358c-1.4.88-2.8,1.6-4.239,2.32l-.68-1.28a35.31,35.31,0,0,0,10.358-8.839h-9.838v-1.8H1458v-5.359h-5.4v-1.8h5.4v-5.8h3.52v5.8h4.678c.481-1.08.88-2.239,1.281-3.4l3.239,1.319A42.276,42.276,0,0,1,1465.919,2971.194Zm-.12,7.6h-6.879v4.679h6.879Zm0,6.359h-6.879v5.159h6.879Zm-3.52-13.958a41.44,41.44,0,0,0,3.119-5.359h-3.878v5.359Zm14.4,16.317.479-1.359c4.36,1.159,4.84.2,4.48-3.84-.2-2.159-.96-4.719-3.8-9.118a60,60,0,0,0,2.879-10.918h-4.959v32.954h-3.44V2959.6l3.44.88h4.479l1-.64,3.4,1.68a43.314,43.314,0,0,1-5.36,11.6c3,3.4,5,6.119,5.639,9.558C1486.4,2990.671,1480.156,2990.831,1476.677,2987.511Z" fill="#182c80"/>
      <path id="Path_1541" data-name="Path 1541" d="M1534.595,2987.871l-2.719,4.68a32.765,32.765,0,0,1-13.638-13.958v16.837h-3.84v-16.677c-3.159,5.6-9.358,10.758-15.277,13.758l-.8-1.32a42,42,0,0,0,13.758-14.758h-12.438v-2.2H1514.4v-6.32H1502.44v-2H1514.4V2958.2h3.84v7.718h11.8v2h-11.8v6.32h14.837v2.2h-14.117C1522.917,2982.152,1529.356,2986.032,1534.595,2987.871Z" fill="#182c80"/>
      <path id="Path_1542" data-name="Path 1542" d="M1581.8,2988.311l-2.64,4.4a33.153,33.153,0,0,1-13.077-13.357v15.957h-3.68v-14.518a38.689,38.689,0,0,1-14.917,12l-.64-1.319a43.373,43.373,0,0,0,13.918-13.6l-2.2,1.52c-.761-1.96-1.641-3.8-2.4-5.319a21.09,21.09,0,0,1-7,9.358l-.96-1.08c3.8-4.479,5.239-8.958,5.719-15.077l3.8.719a39.63,39.63,0,0,1-.88,4,30.036,30.036,0,0,1,4.478,4.919,19.032,19.032,0,0,0,1.08-2.279v-8.479h-14.117v-2.2H1562.4v-5.879h3.68v5.879h14.277v2.2h-14.277v10c.52.719,1.04,1.4,1.56,2a23.659,23.659,0,0,0,3.839-10.958l3.759.96a32.282,32.282,0,0,1-1.479,4.079,36.009,36.009,0,0,1,5.879,5.239l-2.8,2.6a59.33,59.33,0,0,0-3.919-6.12,19.374,19.374,0,0,1-4.2,5.48A32.045,32.045,0,0,0,1581.8,2988.311Z" fill="#182c80"/>
      <path id="Path_1543" data-name="Path 1543" d="M1614.238,2966.115v6.559H1625.8v14.277c0,4.28-4.36,5-9.639,1.32l.4-1.36c4.839,1.04,5.558.68,5.558-1.12v-11.318h-7.878v20.917h-3.759v-20.917h-7.719v17.238h-3.68v-19.037h11.4v-6.559h-15.638v-2h17.6a77.576,77.576,0,0,0-5.76-5.44l.64-1.319a35.071,35.071,0,0,1,8.479,4.239l-1.96,2.52H1629.8v2Z" fill="#182c80"/>
      <path id="Path_1544" data-name="Path 1544" d="M1340.955,3039.554l-3.639,2.479c-.8-1.6-1.759-3.359-2.88-5.2a242.246,242.246,0,0,1-25.116,3.6l-1.159-4.4c1.84.08,3.679.12,5.559.12a58.792,58.792,0,0,0,7.518-13.4l4.16,2a70.936,70.936,0,0,1-9.319,11.4c6.4-.04,12.719-.44,17.438-.84-1.28-1.959-2.68-4.039-4.28-6.158l1.16-1A61.354,61.354,0,0,1,1340.955,3039.554Zm-28.475,4.119H1336.2v16.517h-3.76v-2.959h-16.2v2.919h-3.759Zm3.759,11.718h16.2v-9.919h-16.2Z" fill="#182c80"/>
      <path id="Path_1545" data-name="Path 1545" d="M1359.04,3039.833a67.987,67.987,0,0,0-4.759-6.039l.8-1.159a28.164,28.164,0,0,1,6.479,4.519Zm1.04,2.56,1.4.44a152.09,152.09,0,0,1-3.08,15.557l-3.878-1.6C1356.281,3053.072,1358.48,3047.113,1360.08,3042.393Zm.48-12.878c-1.759-2.159-3.519-3.919-5.119-5.559l.72-1.12a30.611,30.611,0,0,1,6.8,3.96Zm3.16,13.8-2.2-1.24a14.229,14.229,0,0,0,2.559-4.8l1,.32A18.443,18.443,0,0,1,1363.72,3043.313Zm0-13.758a45.145,45.145,0,0,0,1.72-6.519l2.639.8c-1.08,2.239-2.04,4.2-2.96,5.679.68-.04,1.4-.08,2.12-.16a32.02,32.02,0,0,0,1.28-3l2.2,1.08v-1h5.358a31.2,31.2,0,0,0-3.239-2.64l.44-1a17.278,17.278,0,0,1,4.879,2.08l-1.08,1.56h4.079v1.6h-10.437v-.08a39.81,39.81,0,0,1-5.119,6.479,31.187,31.187,0,0,0,3.279-.64c-.2-.479-.4-1-.64-1.479l.84-.48a13.269,13.269,0,0,1,2.759,3.679l-1.959.92c-.16-.52-.36-1.04-.561-1.56a28.976,28.976,0,0,1-6.438,2.32l-.76-2.4c.68-.04,1.32-.08,1.959-.16a29.2,29.2,0,0,0,2.32-3.679,20.4,20.4,0,0,1-3.519.88l-.481-2.32C1362.84,3029.515,1363.279,3029.555,1363.72,3029.555Zm4.759,21.477h20.8a32.351,32.351,0,0,1-1.679,6.8c-1.52,3.56-4.959,3.68-10.958-.359l.519-1.32c5.759,1.719,6.44,2.04,7.439-.241a15.905,15.905,0,0,0,.76-3.159h-17.6c-.36.84-.68,1.68-1.04,2.48l-3.36-.68a58.052,58.052,0,0,0,3.4-8.679l3.08,1.44H1383.8v-2.2h-19v-1.72h22.276v5.519h-17.8C1369.039,3049.632,1368.759,3050.352,1368.479,3051.032Zm-1.68-13.878a27.137,27.137,0,0,1,1.88,4.759l-2.32.52c-.08-1.68-.28-3.359-.52-5Zm2.92,4.439a40.9,40.9,0,0,0-1.56-4.719l.88-.48a20.1,20.1,0,0,1,2.879,4.279Zm10.118-10.558h-7.8v-1.52h7.8Zm0,3.08h-7.8v-1.52h7.8Zm-7.6,7.6v-6.039h7.6v6.039Zm2.2-1.479h3.16v-3.12h-3.16Zm5.759,1.8a14.892,14.892,0,0,0,2.239-4.679l1.041.28a17.167,17.167,0,0,1-1.2,5.4Zm1.6-12.678a35.7,35.7,0,0,0,1.72-6.6l2.559.76a39.946,39.946,0,0,1-2.96,5.839c.68-.04,1.4-.08,2.16-.159.48-1.08.92-2.161,1.32-3.2l2.519,1.12a42.9,42.9,0,0,1-5.319,7.278,29.77,29.77,0,0,0,3.319-.56c-.239-.6-.479-1.239-.76-1.84l.8-.519a15.042,15.042,0,0,1,2.84,3.959l-2.04,1-.479-1.56a34.274,34.274,0,0,1-6.439,2.24l-.761-2.52c.721,0,1.4-.04,2-.08a27.7,27.7,0,0,0,2.32-3.839,16,16,0,0,1-3.48.84l-.559-2.2C1381,3029.355,1381.4,3029.355,1381.8,3029.355Zm3.239,7.719a24.609,24.609,0,0,1,1.84,4.8l-2.28.56a48.554,48.554,0,0,0-.48-5.079Zm3.039,4.639a47.579,47.579,0,0,0-1.959-4.759l.8-.52a18.828,18.828,0,0,1,3.2,4.159Z" fill="#182c80"/>
      <path id="Path_1546" data-name="Path 1546" d="M1414.159,3056.471v-3.04h-4.439v4.64h-3.28v-15.518a29.718,29.718,0,0,1-3.279,4.319l-1.08-1a35.754,35.754,0,0,0,5.759-18.117h-5v-1.879h17.077v1.879h-8.4a33.9,33.9,0,0,1-2.72,10.359h8.639v18.357Zm0-4.76v-11.878h-4.439v11.878Zm23.2-22.156c-2.12,16.117-9.678,27.116-19.636,31.2l-.76-1.24c9.479-5.639,14.4-16.117,15.957-28.475h-7.039a48.2,48.2,0,0,1-2.4,6.239,23.431,23.431,0,0,1,5.8,5.479l-3.039,2.4a57.578,57.578,0,0,0-3.6-6.24,27.015,27.015,0,0,1-3.879,5.56l-1.08-1c3.159-5.159,4.839-11.838,5.8-20.877l4.159.72a57.439,57.439,0,0,1-1.24,5.919h6.12l1-.919Z" fill="#182c80"/>
      <path id="Path_1547" data-name="Path 1547" d="M1487.075,3043.193l-2.519,4.359a30.6,30.6,0,0,1-15.6-13.518,41.371,41.371,0,0,1-18.277,13.758l-.68-1.28c7.959-4.439,13.238-9.958,16.877-17.277l4.2,1.56c-.36.64-.761,1.28-1.16,1.88C1473.678,3037.434,1478.8,3040.833,1487.075,3043.193Zm-34.754-6.839-.761-1.239a39.472,39.472,0,0,0,10.2-11.839l3.88,2.24A41.876,41.876,0,0,1,1452.321,3036.354Zm5.119,8.959h22.077v14.757h-3.6v-2.44h-14.878v2.68h-3.6Zm3.6,10.518h14.878v-8.718h-14.878Zm9.318-30.875.761-1.24a55.148,55.148,0,0,1,12.917,8l-3.119,3.519A100.681,100.681,0,0,0,1470.357,3024.956Z" fill="#182c80"/>
      <path id="Path_1548" data-name="Path 1548" d="M1534.8,3054.471l-1.44,3.959c-4.279.28-10.877.4-15.717.2-8.2-.32-10.478-2.2-12.158-5.319a29.426,29.426,0,0,1-4.879,7.119l-2.44-2.48a27.882,27.882,0,0,0,5.44-5.2v-9.4h-4.84v-1.8h8.279v11.118c2.2,3.279,7.238,2.8,10.8,2.8A161.819,161.819,0,0,0,1534.8,3054.471Zm-35.354-22.236.76-1.24a29.7,29.7,0,0,1,7.359,4.8l-2.56,2.84A57.121,57.121,0,0,0,1499.441,3032.235Zm1.919-7.8.72-1.16a28.689,28.689,0,0,1,7.36,4.439l-2.52,2.84A58.379,58.379,0,0,0,1501.36,3024.436Zm6.4,14.678a45.407,45.407,0,0,0,6.278-16.358l3.72,1.04a32.236,32.236,0,0,1-2.239,6.159h7.158a52.474,52.474,0,0,0-2.8-6.2l1.2-.88a22.1,22.1,0,0,1,5.039,5.839l-2.119,1.24h8.438v1.8h-7.159v4.559h6.44v1.8h-6.44v4.759h6.44v1.8h-6.44v5.4h7.959v1.8h-17.756v2.16h-3.52v-17.757a22.507,22.507,0,0,1-3.159,3.84Zm14.077-7.359h-6.358v4.559h6.358Zm0,6.359h-6.358v4.759h6.358Zm0,6.559h-6.358v5.4h6.358Z" fill="#182c80"/>
      <path id="Path_1549" data-name="Path 1549" d="M1556.64,3039.114v21.356h-3.6v-17.557a33.567,33.567,0,0,1-6,4.559l-.8-1.2a47.036,47.036,0,0,0,11.479-15.6l3.439,1.84A31.379,31.379,0,0,1,1556.64,3039.114Zm-8.359-3.2-.88-1.12a38.5,38.5,0,0,0,8.758-12.158l3.4,1.88A38.323,38.323,0,0,1,1548.281,3035.914Zm33.275,1.8h-7v18.437c0,4.319-3.96,5.8-11.359,1.559l.441-1.4c6.558,1.359,7.158.88,7.158-1.36v-17.237H1561v-1.8h20.557Zm-1.8-9.719h-16.8v-1.8h16.8Z" fill="#182c80"/>
      <path id="Path_1550" data-name="Path 1550" d="M1622.517,3057.63c-4.56-4-6.679-13.037-7.4-23.315H1595.2v-2.2h19.757c-.16-2.959-.2-5.959-.16-8.958l3.759.08c-.079,3-.079,6,.04,8.878h10.6v2.2h-10.518c.56,8.6,2.2,15.917,5.639,19.476,2.72,2.8,2.6.6,2.64-5.8h1.44C1631.475,3057.351,1628.556,3062.95,1622.517,3057.63Zm-6.679-7.878.479,1.36a93.842,93.842,0,0,1-19.356,6.159l-1.36-4.2c2.519-.161,5.319-.481,8.119-.88v-9.719h-7.4v-2h18.2v2H1607.4v9.119C1610.519,3051.032,1613.478,3050.392,1615.838,3049.752Zm9.078-18.437c-1.48-2.2-3.879-5.4-5.2-6.959l.96-1.119a33.394,33.394,0,0,1,7.119,5.318Z" fill="#182c80"/>
    </g>
    <line id="Line_8" data-name="Line 8" y2="104.346" transform="translate(1273.542 2957.472)" fill="none" stroke="#182c80" stroke-miterlimit="10" stroke-width="6"/>
  </g>
</svg>
