<svg xmlns="http://www.w3.org/2000/svg" width="77.199" height="530.311" viewBox="0 0 77.199 530.311">
  <g id="Group_1016" data-name="Group 1016" transform="translate(-1593.464 -2208.823)">
    <path id="Path_1551" data-name="Path 1551" d="M1636.371,2227.4c-2.94,0-2.94.327-2.94,3.594v7.405c0,4.465.217,7.95.653,9.257.436,1.2.981,2.069,3.812,2.723l4.356.98c.653.544.653,2.4,0,2.831-2.614,0-6.97-.435-11-.435-3.921,0-8.059.435-10.563.435-.654-.435-.654-2.069,0-2.831l4.246-1.089c1.961-.545,3.485-1.416,4.138-3.485.436-1.525.545-4.247.545-8.386V2231c0-3.267-.109-3.594-2.94-3.594h-15.138c-11.435,0-13.068.218-13.612,6.643l-.327,3.7c-.436.653-2.4.435-2.723-.218.218-6.425.327-10.128.327-14.484,0-4.791-.109-8.494-.327-13.612a2.114,2.114,0,0,1,2.723-.218l.327,2.722c.762,6.317,2.177,6.534,13.612,6.534h39.2c11.435,0,12.959-.217,13.722-6.534l.217-1.742c.436-.654,2.4-.436,2.723.218-.218,4.574-.327,8.276-.327,12.632v20.038c0,6.97,0,13.286.327,14.7-5.01,0-10.237.109-14.375.327a1.959,1.959,0,0,1-.327-2.614c4.9-.871,8.931-2.178,10.346-7.623.653-2.4.653-5.99.653-10.564v-6.643c0-3.267-.218-3.267-4.355-3.267Z" fill="#182c80"/>
    <path id="Path_1552" data-name="Path 1552" d="M1639.747,2350.791c6.752,0,19.275-.218,22.543-2.07,1.307-.762,2.068-2.722,2.286-5.444l.218-2.723a1.969,1.969,0,0,1,2.614.218c-.218,4.138-.327,8.167-.327,12.415,0,4.574.109,7.514.327,11.434a1.881,1.881,0,0,1-2.614.218l-.218-2.614c-.218-2.722-1.2-4.791-2.613-5.444-3.594-1.525-16.117-1.525-22.216-1.525h-12.306c-9.474,0-19.494-1.525-26.028-7.623-5.118-4.683-7.949-12.742-7.949-20.8,0-7.514,1.415-15.028,5.989-20.364,4.792-5.772,12.741-8.5,25.7-8.5h25.7c11.327,0,13.178-.217,13.722-6.534l.218-2.722c.436-.654,2.287-.436,2.614.217-.218,5.446-.327,9.148-.327,13.5,0,4.465.109,8.059.327,13.4-.327.654-2.178.871-2.614.218l-.218-2.614c-.544-6.316-2.4-6.534-13.722-6.534h-23.522c-17.533,0-29.077,5.445-29.077,22.108,0,15.79,12.415,21.78,28.969,21.78Z" fill="#182c80"/>
    <path id="Path_1553" data-name="Path 1553" d="M1611.541,2428c-11.435,0-13.068.218-13.612,6.533l-.327,3.485c-.436.654-2.4.436-2.723-.217.218-6.207.327-9.911.327-14.267s-.109-8.167-.327-15.137a1.9,1.9,0,0,1,2.723,0l.327,3.921c.544,6.207,2.177,6.752,13.612,6.752h48.68c3.376,0,3.484,0,3.484-3.268v-5.989c0-4.683-.218-10.673-2.723-13.4a19.877,19.877,0,0,0-7.513-4.9,2.1,2.1,0,0,1,.761-2.831,114.8,114.8,0,0,0,16.227,4.138,2.72,2.72,0,0,1,0,2.069c-3.484.654-3.376,4.247-3.376,9.257v44.1c0,5.881.218,6.861,3.05,8.495.218.544.108,1.742-.327,1.96a65.95,65.95,0,0,0-16.553-1.634c-.871-.435-.871-2.287-.218-2.831,2.723-.327,6.752-1.089,7.949-2.723,1.852-2.5,2.723-6.643,2.723-12.632v-7.733c0-3.267-.108-3.157-3.7-3.157Z" fill="#182c80"/>
    <path id="Path_1554" data-name="Path 1554" d="M1639.747,2547.467c6.752,0,19.275-.218,22.543-2.069,1.307-.762,2.068-2.722,2.286-5.445l.218-2.723a1.97,1.97,0,0,1,2.614.218c-.218,4.138-.327,8.168-.327,12.415,0,4.574.109,7.514.327,11.435a1.881,1.881,0,0,1-2.614.217l-.218-2.613c-.218-2.723-1.2-4.792-2.613-5.445-3.594-1.525-16.117-1.525-22.216-1.525h-12.306c-9.474,0-19.494-1.524-26.028-7.623-5.118-4.683-7.949-12.742-7.949-20.8,0-7.515,1.415-15.029,5.989-20.365,4.792-5.772,12.741-8.494,25.7-8.494h25.7c11.327,0,13.178-.218,13.722-6.534l.218-2.723c.436-.653,2.287-.436,2.614.218-.218,5.445-.327,9.148-.327,13.5,0,4.464.109,8.058.327,13.4-.327.653-2.178.871-2.614.217l-.218-2.613c-.544-6.317-2.4-6.535-13.722-6.535h-23.522c-17.533,0-29.077,5.446-29.077,22.108,0,15.79,12.415,21.78,28.969,21.78Z" fill="#182c80"/>
    <path id="Path_1555" data-name="Path 1555" d="M1650.637,2598.542c10.345,0,12.2-.327,12.742-4.792l.436-3.485a1.819,1.819,0,0,1,2.722.109c.544,6.1.871,13.613.871,24.285,0,6.752-.545,13.177-3.267,18.187-2.723,5.227-7.623,9.039-15.246,9.039-10.346,0-16.009-8.168-18.187-13.613-.653-.545-1.742,0-2.613.545-14.049,8.712-22.761,14.484-28.968,21.889a13.032,13.032,0,0,0-3.05,7.514.912.912,0,0,1-1.524.109,16.94,16.94,0,0,1-.545-4.792c0-9.256,2.722-14.81,13.721-22.543,4.03-2.831,11.544-7.3,16.445-10.672,2.4-1.633,3.485-3.376,3.485-7.732,0-4.9-.109-5.118-2.4-5.118h-13.722c-11.435,0-12.741.218-13.612,6.534l-.327,2.287a2.131,2.131,0,0,1-2.723-.218c.218-4.9.327-8.6.327-12.959,0-4.574-.109-8.495-.327-13.613.327-.654,1.961-.871,2.723-.218l.327,2.723c.762,6.316,2.177,6.534,13.612,6.534Zm-15.572,8.93c-1.961,0-3.159,0-3.594.327-.327.326-.545,1.96-.545,7.514,0,3.92.435,8.058,2.832,11.217,2.286,2.94,6.1,5.445,13.5,5.445,8.6,0,16.771-5.337,16.771-17.424,0-6.752-.435-7.079-3.485-7.079Z" fill="#182c80"/>
    <path id="Path_1556" data-name="Path 1556" d="M1650.746,2690.564c11.326,0,12.959-.218,13.722-6.643l.217-1.742c.436-.654,2.4-.437,2.723.217-.218,4.683-.327,8.386-.327,12.85v20.474c0,6.97,0,13.4.327,14.7-1.851.653-9.692,1.307-14.484,1.742a2.143,2.143,0,0,1-.218-2.722c5.118-1.634,8.931-2.614,10.346-8.277.545-2.287.653-5.772.653-10.563v-7.841c0-3.267-.218-3.267-4.355-3.267h-21.781c-3.049,0-3.049.327-3.049,3.594v6.316c0,4.574.217,7.95.653,9.256s1.089,2.07,3.811,2.614l4.465.871c.655.545.655,2.4-.108,2.832-2.613,0-6.862-.436-11-.436-3.921,0-8.059.436-10.455.436-.762-.436-.762-2.287-.109-2.832l4.247-.98c1.96-.435,3.594-1.2,4.139-3.376.436-1.525.544-4.138.544-8.385v-6.316c0-3.267-.108-3.594-2.94-3.594h-15.356c-5.771,0-9.473.327-11.325,2.069-1.307,1.307-2.505,3.594-2.505,13.177,0,8.385.436,11.543,1.634,13.939,1.089,1.96,4.9,4.9,10.563,7.732a2,2,0,0,1-.762,2.723,94.914,94.914,0,0,1-15.138-4.9c.218-9.8.327-19.494.327-29.186v-9.8c0-4.682-.109-8.385-.327-14.81a2.117,2.117,0,0,1,2.723-.218l.327,3.594c.544,6.207,2.177,6.752,13.612,6.752Z" fill="#182c80"/>
  </g>
</svg>
