<?xml version="1.0" encoding="utf-8"?>
<!-- Generator: Adobe Illustrator 26.5.0, SVG Export Plug-In . SVG Version: 6.00 Build 0)  -->
<svg version="1.1" id="圖層_1" xmlns="http://www.w3.org/2000/svg" xmlns:xlink="http://www.w3.org/1999/xlink" x="0px" y="0px"
	 viewBox="0 0 441 95" style="enable-background:new 0 0 441 95;" xml:space="preserve">
<style type="text/css">
	.st0{fill:#5CA5B8;}
</style>
<path class="st0" d="M0,90.6V3.4c12.5,1,33.4-3,43.6,4.4c12.1,7.8,11.9,33.2-4,36.6c18.3,2.2,21.1,28.7,9.3,39.7
	C37.9,94.6,14.7,89.4,0,90.6L0,90.6z M13.9,40.3c10.8-0.1,24.1,1,23.9-12.1c0.5-14.3-12.3-12.7-23.9-12.9V40.3L13.9,40.3z
	 M13.9,78.8c13.8,0,27.2,0.7,27.3-13.8c0.4-15.2-15.8-14.3-27.3-14V78.8z M95.8,51.6v39H82.5V3.4c10.8,0.2,34.7-1.5,41.5,4.9
	c14.9,11.7,9.8,42.4-11.6,42.7l30,39.7h-16l-29-39H95.8L95.8,51.6z M96.6,40.6c11.3-0.4,21.3,0.9,21.2-12c0.2-13-9.6-13-21.2-13.1
	L96.6,40.6L96.6,40.6z M220.6,90.6l-9.9-22.4h-34.5L166,90.6h-14.9L193.4,0l42.2,90.6C235.6,90.6,220.6,90.6,220.6,90.6z
	 M181.4,56.4h24.3c-3.1-7.3-10.4-21.7-12.2-29.8C192,34.2,184.4,49.3,181.4,56.4z M255.9,90.6V0c7.4,7.6,59.9,56.4,64.9,63.9V3.4
	h13.1v90.6c-6.3-6.7-61.5-57.5-64.9-64v60.6H255.9z M366.1,90.6V3.4c35.5-0.7,73.3-3.5,74,43.7C439.1,94.5,401.9,91.2,366.1,90.6
	L366.1,90.6z M380.2,77.8c24.8,1,44.5,0,45.1-30.9c-0.3-30.3-20.6-31.9-45.1-30.9L380.2,77.8L380.2,77.8z"/>
</svg>
