<svg xmlns="http://www.w3.org/2000/svg" width="172.795" height="172.795" viewBox="0 0 172.795 172.795">
  <g id="Group_6096" data-name="Group 6096" transform="translate(-189.508 -2999.018)">
    <text id="下樓有" transform="translate(237.807 3059.592)" fill="#3f96e2" font-size="26.374" font-weight="500"><tspan x="0" y="0">下樓有</tspan></text>
    <circle id="Ellipse_29" data-name="Ellipse 29" cx="72.906" cy="72.906" r="72.906" transform="matrix(0.191, -0.981, 0.981, 0.191, 190.388, 3143.011)" fill="none" stroke="#fff" stroke-miterlimit="10" stroke-width="1.5"/>
    <text id="Ubike_" data-name="Ubike " transform="translate(251.157 3089.512)" font-size="21.579" font-family="Arial" letter-spacing="0.02em"><tspan x="0" y="0">Ubike </tspan></text>
    <path id="Path_12423" data-name="Path 12423" d="M3627.329,3265.75a9.774,9.774,0,0,0-11.737-5.85l-3.9-9.894h6.539a1.408,1.408,0,1,1,0,2.816.981.981,0,0,0,0,1.963,3.37,3.37,0,0,0,0-6.741h-7.98a.981.981,0,0,0-.913,1.341l1.7,4.314h-15.366l-2.753-4.658h3.92v-1.963h-8.761v1.963h2.562l3.341,5.654-8.072,14.112a.981.981,0,0,0,.852,1.468h7.736a7.8,7.8,0,1,1-7.729-8.777h.041l.01-1.962h-.051a9.758,9.758,0,0,0-9.44,12.263,9.762,9.762,0,0,0,19.145-1.524h6.951v-.981l.011-.007.011.988a.984.984,0,0,0,.849-.489l7.792-13.425,5.233,13.292,1.825-.719-2.831-7.191a7.788,7.788,0,1,1-4.145,2.651l-1.527-1.232a9.758,9.758,0,1,0,16.684,2.588Zm-38.874,2.563,3-5.242a7.738,7.738,0,0,1,2.846,4.221,8.018,8.018,0,0,1,.192,1.021Zm8.018,0a9.943,9.943,0,0,0-.278-1.525,9.681,9.681,0,0,0-3.76-5.434l2.66-4.649,6.64,11.608Zm6.971-.965-6.685-11.687h13.468Z" transform="translate(-3326 -141)" fill="#3f96e2"/>
  </g>
</svg>
