<svg xmlns="http://www.w3.org/2000/svg" width="165.282" height="165.281" viewBox="0 0 165.282 165.281">
  <g id="Group_6097" data-name="Group 6097" transform="translate(-361.177 -3002.775)">
    <text id="_300M" data-name="300M" transform="translate(408.007 3057.345)" fill="#3f96e2" font-size="34.929" font-family="NotoSansHant-Regular, Noto Sans T Chinese"><tspan x="0" y="0">300</tspan><tspan y="0" font-size="24.714">M</tspan></text>
    <text id="河濱公園" transform="translate(410.479 3086.558)" font-size="17.186" font-family="NotoSansHant-Regular, Noto Sans T Chinese"><tspan x="0" y="0">河濱公園</tspan></text>
    <circle id="Ellipse_28" data-name="Ellipse 28" cx="72.906" cy="72.906" r="72.906" transform="translate(362.018 3148.18) rotate(-82.499)" fill="none" stroke="#fff" stroke-miterlimit="10" stroke-width="1.5"/>
    <g id="Group_5505" data-name="Group 5505" transform="translate(-3326 -141)">
      <path id="Path_12434" data-name="Path 12434" d="M3792.732,3282.982c-3.957-2-12.543-3.394-22.5-3.394-9.564,0-17.865,1.282-22.011,3.16" fill="none" stroke="#3f96e2" stroke-linecap="round" stroke-linejoin="round" stroke-width="1.717"/>
      <path id="Path_12435" data-name="Path 12435" d="M3779.848,3279.424l.018-16.312c-1.593-2.858-.434-9.166,1.484-12.024" fill="none" stroke="#3f96e2" stroke-linecap="round" stroke-linejoin="round" stroke-width="1.717"/>
      <path id="Path_12436" data-name="Path 12436" d="M3780.1,3263.5c3.759-.922,6.785-1.829,7.934-4.5" fill="none" stroke="#3f96e2" stroke-linecap="round" stroke-linejoin="round" stroke-width="1.717"/>
      <path id="Path_12437" data-name="Path 12437" d="M3775.731,3279c.017-2.912.461-11-.233-11.355-2.367-1.21-3.926-.625-5.975-3.9" fill="none" stroke="#3f96e2" stroke-linecap="round" stroke-linejoin="round" stroke-width="1.717"/>
      <path id="Path_12438" data-name="Path 12438" d="M3772.043,3272.542c-9.72-.4-10.963-12.659-3.109-16.211a7.547,7.547,0,0,1-.393-3.23c.44-4.767,5.069-8.631,10.34-8.631,4.831,0,8.522,3.246,8.767,7.458,8.017,1.033,11.9,15.912-2.221,13.811" fill="none" stroke="#3f96e2" stroke-linecap="round" stroke-linejoin="round" stroke-width="1.717"/>
      <path id="Path_12439" data-name="Path 12439" d="M3765,3252.877a17.355,17.355,0,0,1-4.316-5.647,14,14,0,0,1-8.953,8.858,23.271,23.271,0,0,0,5.122,1.764,13.77,13.77,0,0,1-7.55,6.069,21.613,21.613,0,0,0,5.63,1.876c-2.239,2.77-4.036,4.648-8.082,5.745,5.324,2.672,12.474,3.637,19.49,2.485" fill="none" stroke="#3f96e2" stroke-linecap="round" stroke-linejoin="round" stroke-width="1.717"/>
      <line id="Line_93" data-name="Line 93" y2="2.53" transform="translate(3759.343 3277.065)" fill="none" stroke="#3f96e2" stroke-linecap="round" stroke-linejoin="round" stroke-width="1.717"/>
      <path id="Path_12440" data-name="Path 12440" d="M3790.017,3266.484a5.29,5.29,0,0,1,.1,3.234c-.847,2.556-3.776,3.729-6.419,3.614" fill="none" stroke="#3f96e2" stroke-linecap="round" stroke-linejoin="round" stroke-width="1.717"/>
      <line id="Line_94" data-name="Line 94" y2="2.28" transform="translate(3763.317 3276.835)" fill="none" stroke="#3f96e2" stroke-linecap="round" stroke-linejoin="round" stroke-width="1.717"/>
      <path id="Path_12441" data-name="Path 12441" d="M3778.5,3257.041c-1.452-.966-2.428-1.868-2.7-3.593" fill="none" stroke="#3f96e2" stroke-linecap="round" stroke-linejoin="round" stroke-width="1.717"/>
    </g>
  </g>
</svg>
