<svg xmlns="http://www.w3.org/2000/svg" width="165.282" height="165.281" viewBox="0 0 165.282 165.281">
  <g id="Group_6105" data-name="Group 6105" transform="translate(-527.659 -3002.813)">
    <g id="Group_5435" data-name="Group 5435" transform="translate(-3326 -141)">
      <path id="Path_12337" data-name="Path 12337" d="M3945.59,3246.9l.065.007-.071-.809.1-1.108a.123.123,0,0,0-.124-.121l-5.8-.433a.126.126,0,0,0-.144.1l-.1,1.107,0,.045-3.078,2.771c-.053.042.121.008.982.132l8.518.572Z" fill="#faed00"/>
      <path id="Path_12338" data-name="Path 12338" d="M3945.932,3249.8h-.043l-8.518-.572-.049,0c-.42-.061-.67-.082-.8-.094a.719.719,0,0,1-.711-.478.665.665,0,0,1,.194-.677l2.889-2.6.082-.9a.777.777,0,0,1,.832-.687l5.8.433a.786.786,0,0,1,.543.274.734.734,0,0,1,.175.549l-.094,1.049.066.753a.636.636,0,0,1-.027.245l.3,1.973a.644.644,0,0,1-.636.74Zm-8-1.827,7.248.486-.222-1.472a.622.622,0,0,1,.035-.326l-.045-.517a.515.515,0,0,1,0-.113l.051-.568-4.786-.357-.057.629a.644.644,0,0,1-.211.426Zm7.585-2.471h0Zm-.47-.578v0Zm-4.787-.34v0Z" fill="#3f96e2"/>
      <path id="Path_12339" data-name="Path 12339" d="M3942.793,3249.239a.661.661,0,0,1,.23-.441l2.4-2.717,2.663,3.078a.639.639,0,0,1,.148.468l-.167,1.863-5.445-.389Z" fill="#faed00"/>
      <path id="Path_12340" data-name="Path 12340" d="M3948.07,3252.134l-.046,0-5.445-.388a.646.646,0,0,1-.6-.7l.168-1.863a1.294,1.294,0,0,1,.414-.837l2.378-2.69a.6.6,0,0,1,.487-.217.642.642,0,0,1,.483.223l2.663,3.078a1.283,1.283,0,0,1,.3.947l-.168,1.863A.644.644,0,0,1,3948.07,3252.134Zm-4.745-1.629,4.16.3.111-1.233-2.175-2.51-1.915,2.166a.51.51,0,0,1-.063.061l-.008.01Z" fill="#3f96e2"/>
      <path id="Path_12341" data-name="Path 12341" d="M3945.932,3249.16l-1.471,10.051-2.727,3.483-6.54-.489,1.206-13.431c.011-.112,0-.032.032-.318Z" fill="#faed00"/>
      <path id="Path_12342" data-name="Path 12342" d="M3941.734,3263.339l-.048,0-6.54-.49a.644.644,0,0,1-.593-.7l1.238-13.755a.649.649,0,0,1,.688-.58l9.5.705a.64.64,0,0,1,.59.735l-1.47,10.052a.635.635,0,0,1-.13.3l-2.726,3.484A.647.647,0,0,1,3941.734,3263.339Zm-5.84-1.728,5.545.415,2.409-3.077,1.346-9.2-8.179-.607Z" fill="#3f96e2"/>
      <path id="Path_12343" data-name="Path 12343" d="M3948.237,3249.627a.614.614,0,0,0-.039-.275.629.629,0,0,0-.109-.193l-2.536-3.069-2.53,2.708a.769.769,0,0,0-.119.137.659.659,0,0,0-.111.3l-1.209,13.445,5.445.388Z" fill="#faed00"/>
      <path id="Path_12344" data-name="Path 12344" d="M3947.03,3263.716h-.047l-5.444-.389a.641.641,0,0,1-.445-.225.648.648,0,0,1-.152-.475l1.209-13.445a1.29,1.29,0,0,1,.22-.606,1.318,1.318,0,0,1,.2-.237l2.51-2.688a.645.645,0,0,1,.968.03l2.535,3.068a1.311,1.311,0,0,1,.295.935v0l-1.209,13.445A.643.643,0,0,1,3947.03,3263.716Zm-4.745-1.628,4.159.3,1.151-12.8-2.073-2.514-2.028,2.172a.643.643,0,0,1-.051.049Z" fill="#3f96e2"/>
      <g id="Group_5425" data-name="Group 5425">
        <path id="Path_12345" data-name="Path 12345" d="M3943.16,3281.845l2.96,1.885h6.04l-2.664-25.362h-5.067l-3.068,8.069Z" fill="#faed00"/>
        <path id="Path_12346" data-name="Path 12346" d="M3952.16,3284.375h-6.039a.646.646,0,0,1-.347-.1l-2.96-1.886.692-1.086,2.8,1.784h5.135l-2.528-24.074h-4.043l-2.911,7.655-1.2-.459,3.068-8.069a.645.645,0,0,1,.6-.415h5.067a.645.645,0,0,1,.641.577l2.664,25.362a.644.644,0,0,1-.641.712Z" fill="#3f96e2"/>
      </g>
      <path id="Path_12347" data-name="Path 12347" d="M3928.024,3251.045a7.065,7.065,0,0,0,3.513,1.616l1.023.054a6.648,6.648,0,0,0,3.093-.894,17.724,17.724,0,0,1,2.5-1.2l.431-.162a1.592,1.592,0,0,1,.5.366,1.621,1.621,0,0,1,.283.44,5.645,5.645,0,0,1-1.6,3.035l-2.06,2.277Z" fill="#faed00"/>
      <path id="Path_12348" data-name="Path 12348" d="M3935.7,3257.226a.643.643,0,0,1-.477-1.076l2.059-2.277.027-.028a4.986,4.986,0,0,0,1.378-2.477.749.749,0,0,0-.082-.1.886.886,0,0,0-.088-.086l-.135.051a16.888,16.888,0,0,0-2.41,1.151,7.21,7.21,0,0,1-3.393.979.443.443,0,0,1-.054,0l-1.023-.053-.054-.006a7.636,7.636,0,0,1-3.835-1.757.644.644,0,1,1,.82-.994,6.381,6.381,0,0,0,3.165,1.472l.967.05a5.939,5.939,0,0,0,2.768-.808,18.129,18.129,0,0,1,2.594-1.239l.43-.162a.646.646,0,0,1,.5.019,2.234,2.234,0,0,1,1.1,1.135.647.647,0,0,1,.042.371,6.34,6.34,0,0,1-.925,2.327,6.263,6.263,0,0,1-.848,1.038l-2.047,2.263A.642.642,0,0,1,3935.7,3257.226Z" fill="#3f96e2"/>
      <g id="Group_5426" data-name="Group 5426">
        <path id="Path_12349" data-name="Path 12349" d="M3923.586,3251.407a3.658,3.658,0,0,1,.942-1.163c.124-.547.092-.444.2-1.03q.16-.854.282-1.662l.678,0c.1.7.137.985.235,1.689a12.131,12.131,0,0,1-.309,1.43c.04.184.877,3.764,3.912,5.287l.951.382a6.637,6.637,0,0,0,3.216.152,17.709,17.709,0,0,1,2.754-.323l.46-.014a1.585,1.585,0,0,1,.479,1.014,5.727,5.727,0,0,1-1.461,1.711,5.667,5.667,0,0,1-1.038.644,8.962,8.962,0,0,1-7.91-.5,8.64,8.64,0,0,1-3.736-5.269A3.8,3.8,0,0,1,3923.586,3251.407Z" fill="#faed00"/>
        <path id="Path_12350" data-name="Path 12350" d="M3931.275,3260.875a8.693,8.693,0,0,1-4.635-1.294,9.221,9.221,0,0,1-4.024-5.67l-.008-.037a4.453,4.453,0,0,1,.4-2.761,4.289,4.289,0,0,1,.934-1.218c.039-.182.052-.255.076-.389.017-.093.038-.214.075-.411.1-.537.194-1.089.278-1.639a.644.644,0,0,1,.637-.548h.005l.679.005a.644.644,0,0,1,.633.556l.234,1.688a.629.629,0,0,1,0,.184,10.132,10.132,0,0,1-.243,1.176l-.039.158a7.68,7.68,0,0,0,3.514,4.7l.9.36a5.967,5.967,0,0,0,2.88.129,18.091,18.091,0,0,1,2.856-.335l.46-.014a.623.623,0,0,1,.467.18,2.21,2.21,0,0,1,.673,1.428.629.629,0,0,1-.08.365,6.282,6.282,0,0,1-2.783,2.621A10.31,10.31,0,0,1,3931.275,3260.875Zm-7.4-7.24a7.91,7.91,0,0,0,3.443,4.85,8.272,8.272,0,0,0,7.313.453,4.962,4.962,0,0,0,.9-.56,5.038,5.038,0,0,0,1.186-1.33.884.884,0,0,0-.045-.125.8.8,0,0,0-.057-.109l-.142,0a16.744,16.744,0,0,0-2.654.312,7.219,7.219,0,0,1-3.528-.17.457.457,0,0,1-.05-.018l-.951-.381-.049-.022c-3.341-1.677-4.217-5.562-4.253-5.726a.763.763,0,0,1-.013-.1l-.037.032a3.02,3.02,0,0,0-.777.958h0A3.149,3.149,0,0,0,3923.875,3253.635Z" fill="#3f96e2"/>
      </g>
      <g id="Group_5427" data-name="Group 5427">
        <path id="Path_12351" data-name="Path 12351" d="M3944.429,3258.368l-2.747,1.52-2.746-1.52-2.744,1.52-2.746-1.52-2.744,1.52-2.744-1.52-2.744,1.52-2.744-1.52-1.692,25.362h25.343Z" fill="#faed00"/>
        <path id="Path_12352" data-name="Path 12352" d="M3946.121,3284.375h-25.344a.645.645,0,0,1-.642-.687l1.692-25.363a.645.645,0,0,1,.954-.521l2.432,1.347,2.432-1.347a.647.647,0,0,1,.624,0l2.432,1.347,2.433-1.347a.647.647,0,0,1,.624,0l2.433,1.347,2.433-1.347a.647.647,0,0,1,.624,0l2.434,1.347,2.435-1.347a.645.645,0,0,1,.954.521l1.693,25.363a.646.646,0,0,1-.643.687Zm-24.655-1.289h23.966l-1.579-23.664-1.859,1.029a.64.64,0,0,1-.624,0l-2.435-1.346-2.432,1.346a.641.641,0,0,1-.624,0l-2.434-1.346-2.431,1.346a.643.643,0,0,1-.625,0l-2.432-1.346-2.432,1.346a.641.641,0,0,1-.624,0l-1.857-1.028Z" fill="#3f96e2"/>
      </g>
      <g id="Group_5433" data-name="Group 5433">
        <g id="Group_5431" data-name="Group 5431">
          <g id="Group_5428" data-name="Group 5428">
            <path id="Path_12353" data-name="Path 12353" d="M3927.628,3263.2v6.587a.78.78,0,0,0,.761.8h.981l-.609,9.059h2.749l-.609-9.059h.982a.78.78,0,0,0,.761-.8V3263.2Z" fill="#faed00"/>
            <path id="Path_12354" data-name="Path 12354" d="M3931.51,3280.285h-2.748a.643.643,0,0,1-.643-.687l.562-8.372h-.292a1.425,1.425,0,0,1-1.405-1.441V3263.2h1.288v6.587a.139.139,0,0,0,.117.153h.981a.639.639,0,0,1,.47.2.647.647,0,0,1,.173.483l-.563,8.371h1.371l-.562-8.371a.643.643,0,0,1,.642-.687h.982a.14.14,0,0,0,.116-.153V3263.2h1.289v6.587a1.425,1.425,0,0,1-1.405,1.441h-.292l.561,8.372a.643.643,0,0,1-.642.687Z" fill="#3f96e2"/>
          </g>
          <g id="Group_5429" data-name="Group 5429">
            <path id="Path_12355" data-name="Path 12355" d="M3929.386,3263.2v0Z" fill="#faed00"/>
            <rect id="Rectangle_435" data-name="Rectangle 435" width="1.288" height="5.143" transform="translate(3928.741 3263.198)" fill="#3f96e2"/>
          </g>
          <g id="Group_5430" data-name="Group 5430">
            <path id="Path_12356" data-name="Path 12356" d="M3931,3263.2v0Z" fill="#faed00"/>
            <rect id="Rectangle_436" data-name="Rectangle 436" width="1.289" height="5.143" transform="translate(3930.352 3263.198)" fill="#3f96e2"/>
          </g>
        </g>
        <g id="Group_5432" data-name="Group 5432">
          <path id="Path_12357" data-name="Path 12357" d="M3936.008,3263.039v16.6h2.495l-.751-6.536,1.744-.066-.665-7.2a3.16,3.16,0,0,0-2.505-2.719Z" fill="#faed00"/>
          <path id="Path_12358" data-name="Path 12358" d="M3938.5,3280.285h-2.5a.644.644,0,0,1-.644-.644v-16.6a.646.646,0,0,1,.246-.507.64.64,0,0,1,.55-.119l.319.077a3.811,3.811,0,0,1,3,3.291l.664,7.2a.647.647,0,0,1-.618.7l-1.049.039.672,5.845a.646.646,0,0,1-.64.718Zm-1.852-1.289h1.129l-.669-5.818a.645.645,0,0,1,.616-.717l1.065-.041-.6-6.525a2.444,2.444,0,0,0-1.539-1.994Z" fill="#3f96e2"/>
        </g>
      </g>
      <g id="Group_5434" data-name="Group 5434">
        <path id="Path_12359" data-name="Path 12359" d="M3951.741,3280.386h-3.5a.644.644,0,0,1,0-1.288h3.5a.644.644,0,0,1,0,1.288Z" fill="#3f96e2"/>
      </g>
    </g>
    <text id="_2mins" data-name="2mins" transform="translate(577.896 3057.345)" fill="#3f96e2" font-size="34.929" font-family="Arial" ><tspan x="0" y="0">2</tspan><tspan y="0" font-size="24.714">mins</tspan></text>
    <text id="豐年商圈" transform="translate(576 3086.558)" font-size="17.186" font-family="Arial"><tspan x="0" y="0">豐年商圈</tspan></text>
    <circle id="Ellipse_28" data-name="Ellipse 28" cx="72.906" cy="72.906" r="72.906" transform="translate(528.5 3148.219) rotate(-82.499)" fill="none" stroke="#fff" stroke-miterlimit="10" stroke-width="1.5"/>
  </g>
</svg>
