<svg xmlns="http://www.w3.org/2000/svg" width="163.25" height="163.25" viewBox="0 0 163.25 163.25">
  <g id="Group_6099" data-name="Group 6099" transform="translate(-698.015 -3003.791)">
    <text id="_2mins" data-name="2mins" transform="translate(747.677 3057.345)" fill="#3f96e2" font-size="34.929" font-family="NotoSansHant-Regular, Noto Sans T Chinese"><tspan x="0" y="0">2</tspan><tspan y="0" font-size="24.714">mins</tspan></text>
    <text id="_65快速道路" data-name="65快速道路" transform="translate(736.426 3086.558)" font-size="17.186" font-family="NotoSansHant-Regular, Noto Sans T Chinese"><tspan x="0" y="0">65快速道路</tspan></text>
    <circle id="Ellipse_31" data-name="Ellipse 31" cx="72.905" cy="72.905" r="72.905" transform="translate(698.846 3021.362) rotate(-6.593)" fill="none" stroke="#fff" stroke-miterlimit="10" stroke-width="1.5"/>
    <g id="Group_5502" data-name="Group 5502" transform="translate(-3326 -141)">
      <path id="Path_12420" data-name="Path 12420" d="M4128.162,3257.356v-1.793h-4.4l-1.746,1.526-2.618-5.949a4.454,4.454,0,0,0-4.467-2.95h-17.356a4.438,4.438,0,0,0-4.452,2.917l-2.632,5.982-1.746-1.526h-4.4v1.793h3.731l1.368,1.2-1.778,1.5a5.422,5.422,0,0,0-1.932,4.155v6.813a3.317,3.317,0,0,0,1.63,2.851v2.9a2.26,2.26,0,0,0,2.257,2.258h3.63a2.261,2.261,0,0,0,2.258-2.258v-2.431h21.648v2.431a2.261,2.261,0,0,0,2.258,2.258h3.629a2.261,2.261,0,0,0,2.258-2.258v-2.989a3.313,3.313,0,0,0,1.479-2.758v-6.813a5.425,5.425,0,0,0-1.932-4.155l-1.779-1.5,1.369-1.2Zm-33.388-5.56a2.684,2.684,0,0,1,2.8-1.814h17.356a2.7,2.7,0,0,1,2.811,1.847l2.857,6.491-2.054,1.82h-24.584l-2.053-1.82Zm-1.066,24.969a.466.466,0,0,1-.465.465h-3.63a.466.466,0,0,1-.465-.465v-2.431h4.56Zm29.793,0a.465.465,0,0,1-.465.465h-3.629a.465.465,0,0,1-.465-.465v-2.431h4.515l.044,0Zm.184-15.344a3.63,3.63,0,0,1,1.295,2.784v6.813a1.525,1.525,0,0,1-1.523,1.523h-34.415a1.524,1.524,0,0,1-1.523-1.523v-6.813a3.631,3.631,0,0,1,1.294-2.784l1.989-1.676.524.458,1.951,1.73h25.945l1.95-1.729.525-.459Z" fill="#3f96e2"/>
      <rect id="Rectangle_452" data-name="Rectangle 452" width="15.208" height="1.793" transform="translate(4098.646 3269.214)" fill="#3f96e2"/>
      <path id="Path_12421" data-name="Path 12421" d="M4099.856,3267.266a.9.9,0,0,0-.217-.983l-2.723-2.571a.9.9,0,1,0-1.231,1.3l1.084,1.023h-3.947a2.862,2.862,0,0,1-2.551-1.955.9.9,0,0,0-1.705.557,4.647,4.647,0,0,0,4.256,3.191h6.2A.9.9,0,0,0,4099.856,3267.266Z" fill="#3f96e2"/>
      <path id="Path_12422" data-name="Path 12422" d="M4119.676,3266.038h-3.946l1.083-1.023a.9.9,0,1,0-1.231-1.3l-2.722,2.571a.9.9,0,0,0,.616,1.548h6.2a4.644,4.644,0,0,0,4.256-3.191.9.9,0,0,0-1.705-.557A2.86,2.86,0,0,1,4119.676,3266.038Z" fill="#3f96e2"/>
    </g>
  </g>
</svg>
