<svg xmlns="http://www.w3.org/2000/svg" width="163.25" height="163.25" viewBox="0 0 163.25 163.25">
  <g id="Group_6106" data-name="Group 6106" transform="translate(-866.669 -3001.648)">
    <circle id="Ellipse_31" data-name="Ellipse 31" cx="72.905" cy="72.905" r="72.905" transform="translate(867.5 3019.22) rotate(-6.593)" fill="none" stroke="#fff" stroke-miterlimit="10" stroke-width="1.5"/>
    <text id="_3mins" data-name="3mins" transform="translate(913.708 3057.345)" fill="#3f96e2" font-size="34.929" font-family="NotoSansHant-Regular, Noto Sans T Chinese"><tspan x="0" y="0">3</tspan><tspan y="0" font-size="24.714">mins</tspan></text>
    <text id="廟街商圈" transform="translate(914 3086.558)" font-size="17.186" font-family="NotoSansHant-Regular, Noto Sans T Chinese"><tspan x="0" y="0">廟街商圈</tspan></text>
    <g id="Group_5504" data-name="Group 5504" transform="translate(-3323.818 -141)">
      <path id="Path_12428" data-name="Path 12428" d="M4284.014,3274.57a16.142,16.142,0,0,1-21.694.218" fill="none" stroke="#3f96e2" stroke-linecap="round" stroke-linejoin="round" stroke-width="1.483"/>
      <path id="Path_12429" data-name="Path 12429" d="M4264.506,3249.023a16.149,16.149,0,0,1,19.464,1.813" fill="none" stroke="#3f96e2" stroke-linecap="round" stroke-linejoin="round" stroke-width="1.483"/>
      <path id="Path_12430" data-name="Path 12430" d="M4282.144,3259.463a9.663,9.663,0,1,1-9.1-6.4,9.817,9.817,0,0,1,1.325.089" fill="none" stroke="#3f96e2" stroke-linecap="round" stroke-linejoin="round" stroke-width="1.483"/>
      <path id="Path_12431" data-name="Path 12431" d="M4290.234,3267.236l.5,9.82c.1,2.011-1.142,3.277-2.387,3.286-1.263.009-2.532-1.27-2.391-3.286l.687-9.882" fill="none" stroke="#3f96e2" stroke-linecap="round" stroke-linejoin="round" stroke-width="1.483"/>
      <path id="Path_12432" data-name="Path 12432" d="M4290.477,3245.513h0c-7.852,4.561-4.568,17.8-3.7,21.879-.723-.123,1.283-1.059,3.543-.066l.155-21.813Z" fill="none" stroke="#3f96e2" stroke-linecap="round" stroke-linejoin="round" stroke-width="1.483"/>
      <line id="Line_91" data-name="Line 91" y2="7.128" transform="translate(4259.228 3245.71)" fill="none" stroke="#3f96e2" stroke-linecap="round" stroke-linejoin="round" stroke-width="1.483"/>
      <line id="Line_92" data-name="Line 92" y1="7.128" transform="translate(4256.514 3245.71)" fill="none" stroke="#3f96e2" stroke-linecap="round" stroke-linejoin="round" stroke-width="1.483"/>
      <path id="Path_12433" data-name="Path 12433" d="M4261.922,3245.71v8.6c0,.962-1.053,1.791-2.535,2.134l.908,20.524c.205,4.638-5.054,4.639-4.849,0l.908-20.524c-1.483-.343-2.536-1.172-2.536-2.134v-8.6" fill="none" stroke="#3f96e2" stroke-linecap="round" stroke-linejoin="round" stroke-width="1.483"/>
    </g>
  </g>
</svg>
