<svg xmlns="http://www.w3.org/2000/svg" width="165.204" height="165.204" viewBox="0 0 165.204 165.204">
  <g id="Group_6101" data-name="Group 6101" transform="translate(-1032.861 -3002.813)">
    <text id="_5mins" data-name="5mins" transform="translate(1081.445 3057.345)" fill="#3f96e2" font-size="34.929" font-family="NotoSansHant-Regular, Noto Sans T Chinese"><tspan x="0" y="0">5</tspan><tspan y="0" font-size="24.714">mins</tspan></text>
    <text id="輔大_新莊捷運站" data-name="輔大
新莊捷運站" transform="translate(1114.347 3082.558)" font-size="17.186" font-family="NotoSansHant-Regular, Noto Sans T Chinese"><tspan x="-17.186" y="0">輔大</tspan><tspan x="-42.965" y="20.768">新莊捷運站</tspan></text>
    <circle id="Ellipse_33" data-name="Ellipse 33" cx="72.906" cy="72.906" r="72.906" transform="matrix(0.13, -0.992, 0.992, 0.13, 1033.702, 3148.23)" fill="none" stroke="#fff" stroke-miterlimit="10" stroke-width="1.5"/>
    <g id="Group_5503" data-name="Group 5503" transform="translate(-3326 -141)">
      <path id="Path_12424" data-name="Path 12424" d="M4453.144,3282.332V3268.01c0-3.053-3.579-4.537-10.941-4.537s-10.94,1.484-10.94,4.537v14.322a4.193,4.193,0,0,0,4.188,4.189h2l-3.008,3.8a.7.7,0,1,0,1.1.87l1.262-1.592a.737.737,0,0,0,.142.014h10.536a.753.753,0,0,0,.125-.012l1.259,1.59a.7.7,0,1,0,1.1-.87l-3.009-3.8h2A4.193,4.193,0,0,0,4453.144,3282.332Zm-1.4-5.665H4442.9v-7.32h8.837Zm-9.538-11.791c4.314,0,9.445.535,9.533,3.068h-19.067C4432.758,3265.411,4437.89,3264.876,4442.2,3264.876Zm-9.538,4.471h8.837v7.32h-8.837Zm5.236,18.863,1.338-1.689h5.928l1.337,1.689Zm-2.45-3.092a2.789,2.789,0,0,1-2.786-2.786v-4.262h19.076v4.262a2.789,2.789,0,0,1-2.786,2.786Z" fill="#3f96e2"/>
      <path id="Path_12425" data-name="Path 12425" d="M4436.252,3279.046a2.322,2.322,0,1,0,2.321,2.322A2.324,2.324,0,0,0,4436.252,3279.046Zm0,3.24a.918.918,0,1,1,.918-.918A.919.919,0,0,1,4436.252,3282.286Z" fill="#3f96e2"/>
      <path id="Path_12426" data-name="Path 12426" d="M4450.476,3281.368a2.322,2.322,0,1,0-2.322,2.321A2.325,2.325,0,0,0,4450.476,3281.368Zm-2.322.918a.918.918,0,1,1,.919-.918A.919.919,0,0,1,4448.154,3282.286Z" fill="#3f96e2"/>
      <path id="Path_12427" data-name="Path 12427" d="M4442.214,3256.374a18.623,18.623,0,0,0-10.6,33.933l.8-1.153a17.22,17.22,0,1,1,19.607,0l.8,1.153a18.623,18.623,0,0,0-10.6-33.933Z" fill="#3f96e2"/>
    </g>
  </g>
</svg>
