<?xml version="1.0" encoding="utf-8"?>
<!-- Generator: Adobe Illustrator 26.0.2, SVG Export Plug-In . SVG Version: 6.00 Build 0)  -->
<svg version="1.1" id="圖層_1" xmlns="http://www.w3.org/2000/svg" xmlns:xlink="http://www.w3.org/1999/xlink" x="0px" y="0px"
	 viewBox="0 0 167.6 167.6" style="enable-background:new 0 0 167.6 167.6;" xml:space="preserve">
<style type="text/css">
	.st0{fill:#3F96E2;}
	.st1{fill:#FAED00;}
	.st2{enable-background:new    ;}
	.st3{font-family:'AdobeMingStd-Light-B5pc-H';}
	.st4{font-size:17.186px;}
	.st5{fill:none;stroke:#FFFFFF;stroke-width:1.5;stroke-miterlimit:10;}
</style>
<g id="Group_6102" transform="translate(-1199.585 -3001.626)">
	<g id="_20" transform="translate(-3326 -141)">
		<g id="Group_5479">
			<g id="Group_5476">
				<path id="Path_12386" class="st0" d="M4618.8,3256.2c-0.4,0-0.6-0.3-0.6-0.6c0-0.1,0-0.3,0.1-0.4l-1.7-8.8
					c-0.2-0.6-0.7-1-1.3-1.1c-1.3-0.3-1.7-0.5-1.8-1l-0.2-1.1l-1.1,0.2l0.2,1.1c0.1,0.5-0.2,0.8-1.2,1.5l0,0
					c-0.5,0.3-0.8,0.9-0.7,1.5l0.5,2.7c0.1,0.3-0.2,0.7-0.5,0.8s-0.7-0.2-0.8-0.5l-0.5-2.7c-0.1-1.1,0.3-2.1,1.2-2.8l0,0
					c0.4-0.3,0.6-0.4,0.7-0.6l-0.3-1.4c-0.1-0.3,0.2-0.7,0.5-0.8l2.3-0.5c0.4-0.1,0.7,0.2,0.8,0.5l0,0l0.3,1.4
					c0.1,0.1,0.4,0.1,0.8,0.3l0,0c1.1,0.2,1.9,1,2.2,2.1l1.8,9c0.1,0.5-0.2,0.9-0.7,1C4618.9,3256.2,4618.9,3256.2,4618.8,3256.2z
					 M4618.7,3254.9L4618.7,3254.9z M4611.2,3244.8L4611.2,3244.8z"/>
			</g>
			<g id="Group_5477">
				<path id="Rectangle_449" class="st1" d="M4610.2,3242.2l4.6-0.9l0,0l0.3,1.4c0,0.1-0.1,0.2-0.2,0.3l-4.1,0.8
					c-0.1,0-0.2-0.1-0.3-0.2l0,0L4610.2,3242.2L4610.2,3242.2z"/>
				<path id="Path_12387" class="st0" d="M4611.2,3244.3c-0.8,0-1.4-0.5-1.6-1.3l-0.1-0.7c-0.1-0.3,0.2-0.7,0.5-0.8l4.5-0.9
					c0.3-0.1,0.7,0.2,0.8,0.5l0,0l0.1,0.7c0.2,0.9-0.4,1.7-1.2,1.9l-2.7,0.5C4611.5,3244.3,4611.4,3244.3,4611.2,3244.3z
					 M4611,3242.7L4611,3242.7c0,0.2,0.2,0.3,0.4,0.3l2.7-0.5l0,0c0.1,0,0.1-0.1,0.2-0.1c0-0.1,0.1-0.1,0-0.2l0,0L4611,3242.7z"/>
			</g>
			<g id="Group_5478">
				
					<rect id="Rectangle_450" x="4610" y="3246.7" transform="matrix(0.9808 -0.195 0.195 0.9808 -544.6671 962.007)" class="st0" width="7.4" height="1.3"/>
			</g>
		</g>
		<g id="Group_5482">
			<g id="Group_5480">
				<path id="Path_12388" class="st1" d="M4620.2,3252.6h-9.1v9.3l13-0.1v-9.3h-1.8L4620.2,3252.6z"/>
				<path id="Path_12389" class="st0" d="M4611.1,3262.6c-0.4,0-0.6-0.3-0.6-0.6v-9.3c0-0.4,0.3-0.6,0.6-0.6h9.1v1.3h-8.5v8
					l11.7-0.1v-8h-1.2v-1.3h1.8l0,0c0.4,0,0.6,0.3,0.6,0.6v9.3c0,0.4-0.3,0.6-0.6,0.6l0,0L4611.1,3262.6L4611.1,3262.6z"/>
			</g>
			<g id="Group_5481">
				
					<rect id="Rectangle_451" x="4615.1" y="3252.6" transform="matrix(1 -5.270831e-03 5.270831e-03 1 -17.0871 24.3844)" class="st1" width="5.3" height="2.7"/>
				<path id="Path_12390" class="st0" d="M4615,3256c-0.4,0-0.6-0.3-0.6-0.6v-2.7c0-0.4,0.3-0.6,0.6-0.6l0,0h5.3l0,0
					c0.4,0,0.6,0.3,0.6,0.6v2.7c0,0.4-0.3,0.6-0.6,0.6l0,0H4615L4615,3256z M4615.6,3253.3v1.4h4v-1.4H4615.6z"/>
			</g>
		</g>
		<g id="Group_5487">
			<g id="Group_5483">
				<path id="Path_12391" class="st1" d="M4601.6,3246.2c0.4,0.6,0.8,1.2,1.1,1.9c0.6,1.2,1.1,2.5,1.5,3.8c0,0.1,0,0.2-0.1,0.3
					c-0.1,0-0.2,0-0.2-0.1c-1.1-1.1-2.1-2.2-3.2-3.3L4601.6,3246.2z"/>
				<path id="Path_12392" class="st0" d="M4604,3252.8c-0.2,0-0.5-0.1-0.6-0.3l-3.2-3.3l0.9-0.9l1.8,1.9c-0.3-0.6-0.5-1.2-0.8-1.8
					s-0.7-1.3-1.1-1.8l1.1-0.7c0.4,0.6,0.8,1.3,1.1,2c0.6,1.2,1.2,2.5,1.6,3.9c0.1,0.4,0,0.8-0.4,1
					C4604.3,3252.8,4604.2,3252.8,4604,3252.8z"/>
			</g>
			<g id="Group_5484">
				<path id="Path_12393" class="st1" d="M4600,3252.5c0.4,0.6,0.8,1.2,1.1,1.9c0.6,1.2,1.1,2.5,1.5,3.8c0,0.1,0,0.2-0.1,0.3
					c-0.1,0-0.2,0-0.2-0.1l-3.2-3.3L4600,3252.5z"/>
				<path id="Path_12394" class="st0" d="M4602.5,3259.1c-0.2,0-0.5-0.1-0.6-0.3l-3.2-3.3l0.9-0.9l1.8,1.9c-0.3-0.6-0.5-1.2-0.8-1.8
					s-0.7-1.3-1.1-1.8l1.1-0.7c0.4,0.6,0.8,1.3,1.1,2c0.6,1.2,1.2,2.5,1.6,3.9c0.1,0.4,0,0.8-0.4,1
					C4602.8,3259,4602.6,3259.1,4602.5,3259.1z"/>
			</g>
			<g id="Group_5485">
				<path id="Path_12395" class="st1" d="M4598.5,3258.5c0.4,0.6,0.8,1.2,1.1,1.9c0.6,1.2,1.1,2.5,1.5,3.8c0,0.1,0,0.2-0.2,0.3
					c-0.1,0-0.2,0-0.2-0.1l-3.2-3.3L4598.5,3258.5z"/>
				<path id="Path_12396" class="st0" d="M4601,3265.1c-0.2,0-0.5-0.1-0.6-0.3l-3.2-3.3l0.9-0.9l1.8,1.9c-0.3-0.6-0.5-1.2-0.8-1.8
					s-0.7-1.3-1.1-1.8l1.1-0.7c0.4,0.6,0.8,1.3,1.1,2c0.6,1.2,1.2,2.5,1.6,3.9c0.1,0.4,0,0.8-0.4,1
					C4601.3,3265.1,4601.1,3265.1,4601,3265.1z"/>
			</g>
			<g id="Group_5486">
				<path id="Path_12397" class="st0" d="M4603.1,3267.3c-0.1,0-0.1,0-0.2,0l-6.5-1.6c-0.3-0.1-0.6-0.4-0.5-0.8l4.4-17.8
					c0.3-1.1,0.9-2,1.8-2.7s2-1,3.1-0.8l0,0c2.2,0.6,3.3,3.3,2.8,5.4l-4.4,17.8C4603.7,3267.1,4603.4,3267.3,4603.1,3267.3z
					 M4597.4,3264.6l5.2,1.3l4.3-17.2c0.4-1.4-0.4-3.5-1.8-3.8s-3,1.1-3.4,2.5L4597.4,3264.6z"/>
			</g>
		</g>
		<g id="Group_5497">
			<g id="Group_5488">
				<path id="Path_12398" class="st1" d="M4599.2,3276.5h21.6l4.8-15.6h-29.7L4599.2,3276.5z"/>
				<path id="Path_12399" class="st0" d="M4620.7,3277.1h-21.6v-1.3h21.1l4.4-14.3h-28.9v-1.3h29.7c0.4,0,0.6,0.3,0.6,0.6
					c0,0.1,0,0.1,0,0.2l-4.8,15.6C4621.3,3277,4621,3277.1,4620.7,3277.1z"/>
			</g>
			<g id="Group_5489">
				<path id="Path_12400" class="st0" d="M4604.5,3274.4c-0.3,0-0.6-0.3-0.6-0.6l-0.7-12.8c0-0.4,0.3-0.7,0.6-0.7
					c0.4,0,0.6,0.3,0.7,0.6l0.7,12.8C4605.1,3274.1,4604.9,3274.4,4604.5,3274.4L4604.5,3274.4L4604.5,3274.4z"/>
			</g>
			<g id="Group_5490">
				<path id="Path_12401" class="st0" d="M4616.1,3274.4L4616.1,3274.4c-0.4,0-0.7-0.3-0.6-0.7l0,0l0.7-12.8c0-0.4,0.3-0.6,0.7-0.6
					c0.4,0,0.6,0.3,0.6,0.7l-0.7,12.8C4616.7,3274.1,4616.4,3274.4,4616.1,3274.4z"/>
			</g>
			<g id="Group_5491">
				<path id="Path_12402" class="st0" d="M4620.3,3266.7h-20.4c-0.4,0-0.6-0.3-0.6-0.6s0.3-0.6,0.6-0.6h20.4c0.4,0,0.6,0.3,0.6,0.6
					S4620.6,3266.7,4620.3,3266.7z"/>
			</g>
			<g id="Group_5492">
				<path id="Path_12403" class="st0" d="M4619.2,3271.8h-18.3c-0.4,0-0.6-0.3-0.6-0.7c0-0.3,0.3-0.6,0.6-0.6h18.3
					c0.4,0,0.7,0.3,0.7,0.6C4619.9,3271.5,4619.6,3271.8,4619.2,3271.8C4619.3,3271.8,4619.3,3271.8,4619.2,3271.8z"/>
			</g>
			<g id="Group_5493">
				<path id="Path_12404" class="st0" d="M4617.2,3283.1h-13.8c-2.1,0-3.9-1.5-4.3-3.6l-4.9-22.4c-0.3-1.6-1.7-2.8-3.4-2.8h-4.1
					v-1.3h4.1c2.3,0,4.2,1.6,4.6,3.8l4.9,22.4c0.3,1.5,1.5,2.5,3,2.5h13.8L4617.2,3283.1z"/>
			</g>
			<g id="Group_5494">
				<path id="Path_12405" class="st0" d="M4617.2,3287.1c-1.5,0-2.7-1.2-2.7-2.7s1.2-2.7,2.7-2.7s2.7,1.2,2.7,2.7
					C4619.9,3285.9,4618.7,3287.1,4617.2,3287.1z M4617.2,3283.1c-0.8,0-1.4,0.6-1.4,1.4s0.6,1.4,1.4,1.4s1.4-0.6,1.4-1.4
					C4618.6,3283.7,4618,3283.1,4617.2,3283.1z"/>
			</g>
			<g id="Group_5495">
				<path id="Path_12406" class="st0" d="M4603.9,3287.1c-1.5,0-2.7-1.2-2.7-2.7s1.2-2.7,2.7-2.7s2.7,1.2,2.7,2.7
					C4606.5,3285.9,4605.3,3287.1,4603.9,3287.1z M4603.9,3283.1c-0.8,0-1.4,0.6-1.4,1.4c0,0.8,0.6,1.4,1.4,1.4s1.4-0.6,1.4-1.4
					C4605.3,3283.7,4604.6,3283.1,4603.9,3283.1z"/>
			</g>
			<g id="Group_5496">
				<path id="Path_12407" class="st0" d="M4610.3,3274.4c-0.4,0-0.6-0.3-0.6-0.6l0,0V3261c0-0.4,0.3-0.6,0.6-0.6s0.6,0.3,0.6,0.6
					v12.8C4610.9,3274.1,4610.6,3274.4,4610.3,3274.4L4610.3,3274.4z"/>
			</g>
		</g>
	</g>
	<g class="st2">
		<path class="st0" d="M1251.9,3035.6v-3h16.2v2.4c-1.6,1.7-3.2,3.9-4.7,6.8c-1.6,2.8-2.8,5.7-3.6,8.7c-0.6,2.1-1,4.4-1.2,6.9h-3.2
			c0-2,0.4-4.3,1.2-7.1s1.8-5.5,3.2-8.1c1.4-2.6,2.9-4.8,4.4-6.5H1251.9z"/>
	</g>
	<g class="st2">
		<path class="st0" d="M1270.7,3057.3v-12.8h1.9v1.8c0.4-0.6,0.9-1.1,1.6-1.5c0.7-0.4,1.4-0.6,2.3-0.6c0.9,0,1.7,0.2,2.3,0.6
			s1,0.9,1.3,1.7c1-1.5,2.3-2.2,4-2.2c1.3,0,2.2,0.4,2.9,1.1c0.7,0.7,1,1.8,1,3.3v8.8h-2.2v-8.1c0-0.9-0.1-1.5-0.2-1.9
			c-0.1-0.4-0.4-0.7-0.8-0.9c-0.4-0.2-0.8-0.3-1.3-0.3c-0.9,0-1.6,0.3-2.2,0.9c-0.6,0.6-0.9,1.6-0.9,2.9v7.4h-2.2v-8.3
			c0-1-0.2-1.7-0.5-2.2c-0.4-0.5-0.9-0.7-1.7-0.7c-0.6,0-1.2,0.2-1.7,0.5c-0.5,0.3-0.9,0.8-1.1,1.4c-0.2,0.6-0.4,1.5-0.4,2.7v6.6
			H1270.7z"/>
		<path class="st0" d="M1291.3,3042.2v-2.5h2.2v2.5H1291.3z M1291.3,3057.3v-12.8h2.2v12.8H1291.3z"/>
		<path class="st0" d="M1296.8,3057.3v-12.8h2v1.8c0.9-1.4,2.3-2.1,4.1-2.1c0.8,0,1.5,0.1,2.1,0.4c0.6,0.3,1.1,0.6,1.5,1.1
			c0.3,0.5,0.5,1,0.7,1.6c0.1,0.4,0.1,1.1,0.1,2.1v7.9h-2.2v-7.8c0-0.9-0.1-1.5-0.3-2s-0.5-0.8-0.9-1c-0.4-0.3-0.9-0.4-1.5-0.4
			c-0.9,0-1.7,0.3-2.4,0.9s-1,1.7-1,3.3v7H1296.8z"/>
		<path class="st0" d="M1309.7,3053.5l2.1-0.3c0.1,0.9,0.5,1.5,1,2c0.6,0.5,1.3,0.7,2.3,0.7c1,0,1.7-0.2,2.2-0.6s0.7-0.9,0.7-1.4
			c0-0.5-0.2-0.9-0.6-1.2c-0.3-0.2-1-0.4-2.2-0.7c-1.6-0.4-2.7-0.8-3.3-1c-0.6-0.3-1.1-0.7-1.4-1.2c-0.3-0.5-0.5-1.1-0.5-1.7
			c0-0.6,0.1-1.1,0.4-1.6c0.3-0.5,0.6-0.9,1.1-1.2c0.3-0.2,0.8-0.5,1.4-0.6c0.6-0.2,1.2-0.3,1.9-0.3c1,0,1.9,0.1,2.6,0.4
			c0.8,0.3,1.3,0.7,1.7,1.2s0.6,1.2,0.7,2l-2.1,0.3c-0.1-0.7-0.4-1.2-0.8-1.5c-0.5-0.4-1.1-0.6-2-0.6c-1,0-1.7,0.2-2.1,0.5
			c-0.4,0.3-0.6,0.7-0.6,1.2c0,0.3,0.1,0.5,0.3,0.8c0.2,0.2,0.5,0.4,0.8,0.6c0.2,0.1,0.9,0.3,1.9,0.6c1.5,0.4,2.6,0.7,3.2,1
			s1.1,0.6,1.4,1.1s0.5,1.1,0.5,1.9c0,0.7-0.2,1.4-0.6,2c-0.4,0.6-1,1.1-1.8,1.5c-0.8,0.3-1.7,0.5-2.7,0.5c-1.7,0-2.9-0.3-3.8-1
			C1310.5,3055.9,1309.9,3054.9,1309.7,3053.5z"/>
	</g>
	<text transform="matrix(1 0 0 1 1252.149 3086.5581)" class="st3 st4">宏匯廣場</text>
	<circle id="Ellipse_34" class="st5" cx="1283.4" cy="3085.4" r="72.9"/>
	<text transform="matrix(1 0 0 1 959.2791 3088.1912)" class="st0" style="font-family:'ArialMT'; font-size:34.929px;">7</text>
	<text transform="matrix(1 0 0 1 978.1307 3088.1912)" class="st0" style="font-family:'ArialMT'; font-size:24.714px;">mins</text>
</g>
</svg>
