<svg xmlns="http://www.w3.org/2000/svg" width="167.579" height="167.579" viewBox="0 0 167.579 167.579">
  <g id="Group_6102" data-name="Group 6102" transform="translate(-1199.585 -3001.626)">
    <g id="_20" data-name="20" transform="translate(-3326 -141)">
      <g id="Group_5479" data-name="Group 5479">
        <g id="Group_5476" data-name="Group 5476">
          <path id="Path_12386" data-name="Path 12386" d="M4618.808,3256.2a.645.645,0,0,1-.527-1.015l-1.739-8.761a1.731,1.731,0,0,0-1.253-1.09c-1.264-.335-1.664-.511-1.755-.972l-.207-1.073-1.059.21.213,1.074c.091.457-.209.77-1.218,1.542l-.031.023a1.716,1.716,0,0,0-.724,1.484l.535,2.7a.644.644,0,0,1-1.264.251l-.535-2.7a2.947,2.947,0,0,1,1.2-2.756l.036-.027c.363-.276.567-.449.679-.552l-.281-1.42a.645.645,0,0,1,.506-.758l2.326-.461a.646.646,0,0,1,.759.509l.273,1.419c.146.053.4.135.848.254l.033.008a2.961,2.961,0,0,1,2.182,2.084l1.785,8.994a.859.859,0,0,1-.657,1.021A.688.688,0,0,1,4618.808,3256.2Zm-.124-1.276h0Zm-7.467-10.1v0Z" fill="#3f96e2"/>
        </g>
        <g id="Group_5477" data-name="Group 5477">
          <path id="Rectangle_449" data-name="Rectangle 449" d="M0,0H4.639a0,0,0,0,1,0,0V1.4a.232.232,0,0,1-.232.232H.232A.232.232,0,0,1,0,1.4V0A0,0,0,0,1,0,0Z" transform="matrix(0.981, -0.195, 0.195, 0.981, 4610.194, 3242.193)" fill="#faed00"/>
          <path id="Path_12387" data-name="Path 12387" d="M4611.25,3244.272a1.592,1.592,0,0,1-1.554-1.278l-.133-.676a.645.645,0,0,1,.506-.757l4.55-.9a.642.642,0,0,1,.757.507l.134.674a1.589,1.589,0,0,1-1.247,1.866l-2.7.536A1.667,1.667,0,0,1,4611.25,3244.272Zm-.3-1.573.008.044a.3.3,0,0,0,.351.234l2.7-.536h0a.3.3,0,0,0,.19-.127.292.292,0,0,0,.044-.224l-.008-.043Z" fill="#3f96e2"/>
        </g>
        <g id="Group_5478" data-name="Group 5478">
          <rect id="Rectangle_450" data-name="Rectangle 450" width="7.439" height="1.288" transform="matrix(0.981, -0.195, 0.195, 0.981, 4609.862, 3247.672)" fill="#3f96e2"/>
        </g>
      </g>
      <g id="Group_5482" data-name="Group 5482">
        <g id="Group_5480" data-name="Group 5480">
          <path id="Path_12388" data-name="Path 12388" d="M4620.221,3252.632l-9.128.048.049,9.271,12.989-.068-.049-9.271-1.828.009Z" fill="#faed00"/>
          <path id="Path_12389" data-name="Path 12389" d="M4611.142,3262.595a.644.644,0,0,1-.644-.64l-.05-9.271a.646.646,0,0,1,.641-.648l9.128-.048.007,1.288-8.484.045.042,7.983,11.7-.062-.042-7.983-1.184.006-.007-1.288,1.828-.01h0a.645.645,0,0,1,.646.641l.048,9.271a.644.644,0,0,1-.641.648l-12.988.068Z" fill="#3f96e2"/>
        </g>
        <g id="Group_5481" data-name="Group 5481">
          <rect id="Rectangle_451" data-name="Rectangle 451" width="5.266" height="2.666" transform="translate(4620.234 3255.298) rotate(179.698)" fill="#faed00"/>
          <path id="Path_12390" data-name="Path 12390" d="M4614.969,3255.97a.645.645,0,0,1-.645-.641l-.013-2.666a.642.642,0,0,1,.64-.647l5.266-.028h0a.644.644,0,0,1,.643.641l.015,2.665a.644.644,0,0,1-.641.648l-5.266.028Zm.634-2.669.006,1.377,3.978-.021-.007-1.377Z" fill="#3f96e2"/>
        </g>
      </g>
      <g id="Group_5487" data-name="Group 5487">
        <g id="Group_5483" data-name="Group 5483">
          <path id="Path_12391" data-name="Path 12391" d="M4601.587,3246.2a21,21,0,0,1,1.1,1.9,23.371,23.371,0,0,1,1.543,3.752.229.229,0,0,1-.386.225q-1.593-1.667-3.184-3.334Z" fill="#faed00"/>
          <path id="Path_12392" data-name="Path 12392" d="M4604.011,3252.8a.87.87,0,0,1-.631-.271l-3.185-3.336.932-.889,1.828,1.914q-.381-.927-.84-1.817a20.5,20.5,0,0,0-1.068-1.847l1.08-.7a21.69,21.69,0,0,1,1.133,1.959,24.106,24.106,0,0,1,1.586,3.856.87.87,0,0,1-.39,1.011A.879.879,0,0,1,4604.011,3252.8Z" fill="#3f96e2"/>
        </g>
        <g id="Group_5484" data-name="Group 5484">
          <path id="Path_12393" data-name="Path 12393" d="M4600.032,3252.465a20.736,20.736,0,0,1,1.1,1.9,23.282,23.282,0,0,1,1.543,3.752.229.229,0,0,1-.386.225l-3.184-3.335Z" fill="#faed00"/>
          <path id="Path_12394" data-name="Path 12394" d="M4602.457,3259.062a.87.87,0,0,1-.632-.272l-3.184-3.334.931-.89,1.829,1.914c-.254-.618-.534-1.225-.839-1.815a20.827,20.827,0,0,0-1.069-1.849l1.079-.7a21.685,21.685,0,0,1,1.134,1.958,24.112,24.112,0,0,1,1.586,3.856.87.87,0,0,1-.39,1.012A.879.879,0,0,1,4602.457,3259.062Z" fill="#3f96e2"/>
        </g>
        <g id="Group_5485" data-name="Group 5485">
          <path id="Path_12395" data-name="Path 12395" d="M4598.526,3258.536a20.662,20.662,0,0,1,1.1,1.9,23.281,23.281,0,0,1,1.543,3.752.229.229,0,0,1-.385.225l-3.184-3.335Z" fill="#faed00"/>
          <path id="Path_12396" data-name="Path 12396" d="M4600.95,3265.133a.877.877,0,0,1-.632-.271l-3.183-3.335.931-.89,1.829,1.914q-.381-.927-.84-1.816a20.5,20.5,0,0,0-1.069-1.847l1.08-.7a21.479,21.479,0,0,1,1.133,1.959,23.985,23.985,0,0,1,1.586,3.856.87.87,0,0,1-.388,1.011A.882.882,0,0,1,4600.95,3265.133Z" fill="#3f96e2"/>
        </g>
        <g id="Group_5486" data-name="Group 5486">
          <path id="Path_12397" data-name="Path 12397" d="M4603.1,3267.32a.6.6,0,0,1-.156-.019l-6.484-1.608a.648.648,0,0,1-.471-.78l4.416-17.8a4.954,4.954,0,0,1,1.824-2.692,3.706,3.706,0,0,1,3.139-.768h0c2.213.55,3.289,3.293,2.772,5.379l-4.415,17.8A.645.645,0,0,1,4603.1,3267.32Zm-5.7-2.723,5.233,1.3,4.26-17.169c.356-1.435-.381-3.458-1.83-3.818s-3.048,1.084-3.4,2.519Z" fill="#3f96e2"/>
        </g>
      </g>
      <g id="Group_5497" data-name="Group 5497">
        <g id="Group_5488" data-name="Group 5488">
          <path id="Path_12398" data-name="Path 12398" d="M4599.17,3276.5h21.557l4.769-15.55h-29.734Z" fill="#faed00"/>
          <path id="Path_12399" data-name="Path 12399" d="M4620.727,3277.148H4599.17v-1.288h21.08l4.374-14.262h-28.863v-1.288H4625.5a.643.643,0,0,1,.616.833l-4.768,15.55A.645.645,0,0,1,4620.727,3277.148Z" fill="#3f96e2"/>
        </g>
        <g id="Group_5489" data-name="Group 5489">
          <path id="Path_12400" data-name="Path 12400" d="M4604.469,3274.392a.644.644,0,0,1-.643-.61l-.683-12.794a.644.644,0,0,1,1.286-.068l.683,12.794a.643.643,0,0,1-.608.677Z" fill="#3f96e2"/>
        </g>
        <g id="Group_5490" data-name="Group 5490">
          <path id="Path_12401" data-name="Path 12401" d="M4616.051,3274.392h-.035a.643.643,0,0,1-.609-.677l.683-12.794a.654.654,0,0,1,.678-.609.644.644,0,0,1,.609.677l-.684,12.794A.643.643,0,0,1,4616.051,3274.392Z" fill="#3f96e2"/>
        </g>
        <g id="Group_5491" data-name="Group 5491">
          <path id="Path_12402" data-name="Path 12402" d="M4620.273,3266.69h-20.385a.644.644,0,1,1,0-1.288h20.385a.644.644,0,1,1,0,1.288Z" fill="#3f96e2"/>
        </g>
        <g id="Group_5492" data-name="Group 5492">
          <path id="Path_12403" data-name="Path 12403" d="M4619.24,3271.843h-18.32a.645.645,0,0,1,0-1.289h18.32a.645.645,0,1,1,0,1.289Z" fill="#3f96e2"/>
        </g>
        <g id="Group_5493" data-name="Group 5493">
          <path id="Path_12404" data-name="Path 12404" d="M4617.222,3283.057h-13.773a4.366,4.366,0,0,1-4.288-3.558l-4.852-22.358a3.432,3.432,0,0,0-3.37-2.811h-4.111v-1.288h4.111a4.715,4.715,0,0,1,4.632,3.843l4.853,22.359a3.083,3.083,0,0,0,3.025,2.525h13.773Z" fill="#3f96e2"/>
        </g>
        <g id="Group_5494" data-name="Group 5494">
          <path id="Path_12405" data-name="Path 12405" d="M4617.222,3287.137a2.682,2.682,0,1,1,2.682-2.682A2.686,2.686,0,0,1,4617.222,3287.137Zm0-4.077a1.395,1.395,0,1,0,1.393,1.4A1.4,1.4,0,0,0,4617.222,3283.06Z" fill="#3f96e2"/>
        </g>
        <g id="Group_5495" data-name="Group 5495">
          <path id="Path_12406" data-name="Path 12406" d="M4603.854,3287.137a2.682,2.682,0,1,1,2.683-2.682A2.685,2.685,0,0,1,4603.854,3287.137Zm0-4.077a1.395,1.395,0,1,0,1.4,1.4A1.4,1.4,0,0,0,4603.854,3283.06Z" fill="#3f96e2"/>
        </g>
        <g id="Group_5496" data-name="Group 5496">
          <path id="Path_12407" data-name="Path 12407" d="M4610.268,3274.392a.644.644,0,0,1-.644-.644v-12.794a.644.644,0,0,1,1.288,0v12.794A.644.644,0,0,1,4610.268,3274.392Z" fill="#3f96e2"/>
        </g>
      </g>
    </g>
    <text id="_12mins" data-name="12mins" transform="translate(1243.263 3057.345)" fill="#3f96e2" font-size="34.929" font-family="Arial"><tspan x="0" y="0">12</tspan><tspan y="0" font-size="24.714">mins</tspan></text>
    <text id="宏匯廣場" transform="translate(1286.521 3086.558)" font-size="17.186" font-family="Arial"><tspan x="-34.372" y="0">宏匯廣場</tspan></text>
    <circle id="Ellipse_34" data-name="Ellipse 34" cx="72.906" cy="72.906" r="72.906" transform="translate(1200.438 3146.67) rotate(-81.449)" fill="none" stroke="#fff" stroke-miterlimit="10" stroke-width="1.5"/>
  </g>
</svg>
