<svg xmlns="http://www.w3.org/2000/svg" width="165.204" height="165.204" viewBox="0 0 165.204 165.204">
  <g id="Group_6103" data-name="Group 6103" transform="translate(-1368.683 -3002.813)">
    <g id="Group_5475" data-name="Group 5475" transform="translate(-3326 -141)">
      <g id="Group_5449" data-name="Group 5449">
        <g id="Group_5438" data-name="Group 5438">
          <g id="Group_5437" data-name="Group 5437">
            <g id="Group_5436" data-name="Group 5436">
              <path id="Path_12360" data-name="Path 12360" d="M4767.6,3249.684a.6.6,0,0,1-.6-.6v-.745a4.244,4.244,0,0,1,3.5-4.183c.242-.044.678-.064.727-.067a.6.6,0,1,1,.053,1.2c-.154.007-.444.027-.568.048a3.046,3.046,0,0,0-2.509,3v.745A.6.6,0,0,1,4767.6,3249.684Z" fill="#3f96e2"/>
            </g>
          </g>
        </g>
        <g id="Group_5439" data-name="Group 5439">
          <path id="Path_12361" data-name="Path 12361" d="M4784.2,3251.036h0Z" fill="#faed00"/>
          <path id="Path_12362" data-name="Path 12362" d="M4784.2,3251.636h-17.561a.6.6,0,1,1,0-1.2H4784.2a.6.6,0,0,1,0,1.2Z" fill="#3f96e2"/>
        </g>
        <g id="Group_5440" data-name="Group 5440">
          <path id="Path_12363" data-name="Path 12363" d="M4765.818,3264.486h-4.3l2.416-13.45,1.262.868,1.443-.868-1.117,13.45h.3Z" fill="#faed00"/>
          <path id="Path_12364" data-name="Path 12364" d="M4786.088,3265.086h-24.572a.6.6,0,0,1-.591-.706l2.416-13.45a.6.6,0,0,1,.931-.388l.943.648,1.113-.668a.6.6,0,0,1,.906.563l-1.063,12.8h19.917Zm-23.856-1.2h2.735l.975-11.733-.44.265a.6.6,0,0,1-.648-.02l-.5-.341Z" fill="#3f96e2"/>
        </g>
        <g id="Group_5441" data-name="Group 5441">
          <rect id="Rectangle_437" data-name="Rectangle 437" width="17.335" height="1.2" transform="translate(4767.999 3260.316)" fill="#3f96e2"/>
        </g>
        <g id="Group_5448" data-name="Group 5448">
          <g id="Group_5442" data-name="Group 5442">
            <rect id="Rectangle_438" data-name="Rectangle 438" width="1.432" height="2.77" transform="translate(4779.038 3251.954) rotate(180)" fill="#faed00"/>
          </g>
          <g id="Group_5443" data-name="Group 5443">
            <rect id="Rectangle_439" data-name="Rectangle 439" width="1.432" height="2.77" transform="translate(4771.737 3251.954) rotate(180)" fill="#faed00"/>
          </g>
          <g id="Group_5447" data-name="Group 5447">
            <g id="Group_5444" data-name="Group 5444">
              <path id="Path_12365" data-name="Path 12365" d="M4778.182,3253.062a.856.856,0,1,0,.856-.856A.856.856,0,0,0,4778.182,3253.062Z" fill="#faed00"/>
              <path id="Path_12366" data-name="Path 12366" d="M4779.038,3254.518a1.456,1.456,0,1,1,1.456-1.456A1.457,1.457,0,0,1,4779.038,3254.518Zm0-1.712a.256.256,0,1,0,.256.256A.256.256,0,0,0,4779.038,3252.806Z" fill="#3f96e2"/>
            </g>
            <g id="Group_5445" data-name="Group 5445">
              <path id="Path_12367" data-name="Path 12367" d="M4770.881,3253.062a.856.856,0,1,0,.856-.856A.857.857,0,0,0,4770.881,3253.062Z" fill="#faed00"/>
              <path id="Path_12368" data-name="Path 12368" d="M4771.737,3254.518a1.456,1.456,0,1,1,1.456-1.456A1.458,1.458,0,0,1,4771.737,3254.518Zm0-1.712a.256.256,0,1,0,.256.256A.257.257,0,0,0,4771.737,3252.806Z" fill="#3f96e2"/>
            </g>
            <g id="Group_5446" data-name="Group 5446">
              <path id="Path_12369" data-name="Path 12369" d="M4779.038,3252.806a.6.6,0,0,1-.6-.6v-3.224a3.051,3.051,0,0,0-6.1,0v3.224a.6.6,0,1,1-1.2,0v-3.224a4.25,4.25,0,0,1,8.5,0v3.224A.6.6,0,0,1,4779.038,3252.806Z" fill="#3f96e2"/>
            </g>
          </g>
        </g>
      </g>
      <g id="Group_5456" data-name="Group 5456">
        <g id="Group_5450" data-name="Group 5450">
          <path id="Path_12370" data-name="Path 12370" d="M4761.418,3264.491l3.111.006,13.97.027-.02,16.487-19.88-.039.014-11.609,0-2.249,0-2.629Z" fill="#faed00"/>
          <path id="Path_12371" data-name="Path 12371" d="M4778.479,3281.611h0l-19.88-.038a.6.6,0,0,1-.6-.6l.02-16.487a.6.6,0,0,1,.6-.6h0l2.8.006h0l17.081.032a.6.6,0,0,1,.6.6l-.02,16.487a.6.6,0,0,1-.6.6Zm-19.279-1.237,18.68.036.018-15.287-18.679-.036Z" fill="#3f96e2"/>
        </g>
        <g id="Group_5451" data-name="Group 5451">
          <path id="Path_12372" data-name="Path 12372" d="M4769.891,3281.594h0l-2.7,0a.6.6,0,0,1-.6-.6l.019-16.486a.6.6,0,0,1,.6-.6h0l2.7,0a.6.6,0,0,1,.6.6l-.02,16.486a.6.6,0,0,1-.6.6Zm-2.1-1.2,1.5,0,.019-15.288-1.5,0Z" fill="#3f96e2"/>
        </g>
        <g id="Group_5452" data-name="Group 5452">
          <rect id="Rectangle_440" data-name="Rectangle 440" width="1.2" height="6.922" transform="translate(4758.61 3272) rotate(-89.891)" fill="#3f96e2"/>
        </g>
        <g id="Group_5453" data-name="Group 5453">
          <rect id="Rectangle_441" data-name="Rectangle 441" width="1.2" height="6.922" transform="matrix(0.002, -1, 1, 0.002, 4758.607, 3274.763)" fill="#3f96e2"/>
        </g>
        <g id="Group_5454" data-name="Group 5454">
          <rect id="Rectangle_442" data-name="Rectangle 442" width="1.2" height="8.72" transform="matrix(0.002, -1, 1, 0.002, 4769.77, 3272.021)" fill="#3f96e2"/>
        </g>
        <g id="Group_5455" data-name="Group 5455">
          <rect id="Rectangle_443" data-name="Rectangle 443" width="1.2" height="6.922" transform="matrix(0.002, -1, 1, 0.002, 4769.767, 3274.784)" fill="#3f96e2"/>
        </g>
      </g>
      <g id="Group_5470" data-name="Group 5470">
        <g id="Group_5459" data-name="Group 5459">
          <g id="Group_5458" data-name="Group 5458">
            <g id="Group_5457" data-name="Group 5457">
              <path id="Path_12373" data-name="Path 12373" d="M4781.908,3259.441a.6.6,0,0,1-.6-.6v-.943a5.239,5.239,0,0,1,4.171-5.117.6.6,0,0,1,.241,1.175,4.035,4.035,0,0,0-3.212,3.942v.943A.6.6,0,0,1,4781.908,3259.441Z" fill="#3f96e2"/>
            </g>
          </g>
        </g>
        <g id="Group_5460" data-name="Group 5460">
          <path id="Path_12374" data-name="Path 12374" d="M4778.983,3282.519H4773.8l2.86-23.177h3.226l-1.187,23.177h19.341l-1.642-23.177h-16.513Z" fill="#faed00"/>
        </g>
        <g id="Group_5461" data-name="Group 5461">
          <path id="Path_12375" data-name="Path 12375" d="M4781.342,3281.011h-5.182l2.726-20.513,1.414,1.278,1.812-1.278-1.052,20.513H4800.4l-1.776-20.513h-16.513Z" fill="#faed00"/>
          <path id="Path_12376" data-name="Path 12376" d="M4800.4,3281.611h-24.24a.6.6,0,0,1-.6-.679l2.726-20.513a.6.6,0,0,1,1-.365l1.058.956,1.42-1a.6.6,0,0,1,.345-.11h16.513a.6.6,0,0,1,.6.549L4801,3280.96a.6.6,0,0,1-.6.651Zm-18.709-1.2h18.055l-1.672-19.313h-15.392Zm-4.846,0h3.645l.959-18.712-.8.567a.6.6,0,0,1-.749-.045l-.567-.513Z" fill="#3f96e2"/>
        </g>
        <g id="Group_5462" data-name="Group 5462">
          <rect id="Rectangle_444" data-name="Rectangle 444" width="16.299" height="1.2" transform="translate(4783.393 3275.155)" fill="#3f96e2"/>
        </g>
        <g id="Group_5469" data-name="Group 5469">
          <g id="Group_5463" data-name="Group 5463">
            <rect id="Rectangle_445" data-name="Rectangle 445" width="1.813" height="3.507" transform="translate(4795.169 3261.661) rotate(180)" fill="#faed00"/>
          </g>
          <g id="Group_5464" data-name="Group 5464">
            <rect id="Rectangle_446" data-name="Rectangle 446" width="1.814" height="3.507" transform="translate(4785.922 3261.661) rotate(180)" fill="#faed00"/>
          </g>
          <g id="Group_5468" data-name="Group 5468">
            <g id="Group_5465" data-name="Group 5465">
              <path id="Path_12377" data-name="Path 12377" d="M4794.084,3263.065a1.084,1.084,0,1,0,1.085-1.084A1.084,1.084,0,0,0,4794.084,3263.065Z" fill="#faed00"/>
              <path id="Path_12378" data-name="Path 12378" d="M4795.168,3264.749a1.684,1.684,0,1,1,1.685-1.684A1.686,1.686,0,0,1,4795.168,3264.749Zm0-2.168a.484.484,0,1,0,.485.484A.483.483,0,0,0,4795.168,3262.581Z" fill="#3f96e2"/>
            </g>
            <g id="Group_5466" data-name="Group 5466">
              <path id="Path_12379" data-name="Path 12379" d="M4784.838,3263.065a1.084,1.084,0,1,0,1.084-1.084A1.084,1.084,0,0,0,4784.838,3263.065Z" fill="#faed00"/>
              <path id="Path_12380" data-name="Path 12380" d="M4785.922,3264.749a1.684,1.684,0,1,1,1.684-1.684A1.687,1.687,0,0,1,4785.922,3264.749Zm0-2.168a.484.484,0,1,0,.484.484A.484.484,0,0,0,4785.922,3262.581Z" fill="#3f96e2"/>
            </g>
            <g id="Group_5467" data-name="Group 5467">
              <path id="Path_12381" data-name="Path 12381" d="M4795.168,3262.581a.6.6,0,0,1-.6-.6V3257.9a4.023,4.023,0,0,0-8.046,0v4.083a.6.6,0,0,1-1.2,0V3257.9a5.224,5.224,0,0,1,10.448,0v4.083A.6.6,0,0,1,4795.168,3262.581Z" fill="#3f96e2"/>
            </g>
          </g>
        </g>
      </g>
      <g id="Group_5474" data-name="Group 5474">
        <g id="Group_5471" data-name="Group 5471">
          <path id="Path_12382" data-name="Path 12382" d="M4788.721,3273.062l4.031-7.16Z" fill="#faed00"/>
          <path id="Path_12383" data-name="Path 12383" d="M4788.72,3273.662a.6.6,0,0,1-.523-.894l4.032-7.161a.6.6,0,0,1,1.046.589l-4.032,7.16A.6.6,0,0,1,4788.72,3273.662Z" fill="#3f96e2"/>
        </g>
        <g id="Group_5472" data-name="Group 5472">
          <rect id="Rectangle_447" data-name="Rectangle 447" width="1.968" height="2.516" rx="0.226" transform="translate(4787.644 3266.504)" fill="#faed00"/>
          <path id="Path_12384" data-name="Path 12384" d="M4788.694,3269.619h-.132a1.519,1.519,0,0,1-1.518-1.516v-.682a1.52,1.52,0,0,1,1.518-1.517h.132a1.519,1.519,0,0,1,1.517,1.517v.682A1.518,1.518,0,0,1,4788.694,3269.619Zm-.132-2.515a.317.317,0,0,0-.318.317v.682a.317.317,0,0,0,.318.316h.132a.318.318,0,0,0,.318-.316v-.682a.318.318,0,0,0-.318-.317Z" fill="#3f96e2"/>
        </g>
        <g id="Group_5473" data-name="Group 5473">
          <path id="Rectangle_448" data-name="Rectangle 448" d="M.226,0H1.741a.227.227,0,0,1,.227.227V2.289a.226.226,0,0,1-.226.226H.226A.226.226,0,0,1,0,2.289V.226A.226.226,0,0,1,.226,0Z" transform="translate(4791.882 3269.767)" fill="#faed00"/>
          <path id="Path_12385" data-name="Path 12385" d="M4792.933,3272.882h-.134a1.519,1.519,0,0,1-1.517-1.517v-.681a1.519,1.519,0,0,1,1.517-1.517h.134a1.518,1.518,0,0,1,1.516,1.517v.681A1.517,1.517,0,0,1,4792.933,3272.882Zm-.134-2.515a.318.318,0,0,0-.317.317v.681a.318.318,0,0,0,.317.318h.134a.318.318,0,0,0,.317-.318v-.681a.318.318,0,0,0-.317-.317Z" fill="#3f96e2"/>
        </g>
      </g>
    </g>
    <text id="_14mins" data-name="14mins" transform="translate(1409.263 3057.345)" fill="#3f96e2" font-size="34.929" font-family="Arial"><tspan x="0" y="0">14</tspan><tspan y="0" font-size="24.714">mins</tspan></text>
    <text id="宏匯i-Tower" transform="translate(1452.521 3086.558)" font-size="17.186" font-family="Arial"><tspan x="-46.711" y="0">宏匯i-Tower</tspan></text>
    <circle id="Ellipse_35" data-name="Ellipse 35" cx="72.906" cy="72.906" r="72.906" transform="matrix(0.13, -0.992, 0.992, 0.13, 1369.524, 3148.23)" fill="none" stroke="#fff" stroke-miterlimit="10" stroke-width="1.5"/>
  </g>
</svg>
