<svg xmlns="http://www.w3.org/2000/svg" xmlns:xlink="http://www.w3.org/1999/xlink" viewBox="0 0 2025.16 869.5"><defs><style>.cls-1{fill:none;}.cls-2{clip-path:url(#clip-path);}.cls-3{clip-path:url(#clip-path-2);}.cls-4{fill:#fff;}.cls-5{fill:#bb974a;}.cls-6{clip-path:url(#clip-path-3);}.cls-7{clip-path:url(#clip-path-4);}.cls-8{fill:#64848b;}.cls-9{clip-path:url(#clip-path-5);}.cls-10{fill:#d5be8f;}.cls-11{fill:#005e3c;}</style><clipPath id="clip-path" transform="translate(49.94 27.13)"><circle class="cls-1" cx="877.65" cy="129.26" r="129.26" transform="matrix(0.25, -0.97, 0.97, 0.25, 530.99, 945.84)"/></clipPath><clipPath id="clip-path-2" transform="translate(49.94 27.13)"><rect class="cls-1" x="738.61" y="-4.95" width="299.21" height="265.24"/></clipPath><clipPath id="clip-path-3" transform="translate(49.94 27.13)"><path class="cls-1" d="M602.27,266.53a44.81,44.81,0,1,1,44.81,44.81A44.81,44.81,0,0,1,602.27,266.53Z"/></clipPath><clipPath id="clip-path-4" transform="translate(49.94 27.13)"><rect class="cls-1" x="599.87" y="219.34" width="96.53" height="96.51"/></clipPath><clipPath id="clip-path-5" transform="translate(49.94 27.13)"><rect class="cls-1" y="677.27" width="227.06" height="200.26"/></clipPath></defs><g id="圖層_2" data-name="圖層 2"><g id="圖層_1-2" data-name="圖層 1"><g class="cls-2"><g class="cls-3"><polygon class="cls-4" points="788.56 0 796.33 11.19 796.33 44.34 788.56 33.16 788.56 0"/><polygon class="cls-4" points="805.18 0 797.41 11.19 797.41 44.34 805.18 33.16 805.18 0"/><polygon class="cls-5" points="805.18 0 812.95 11.19 812.95 44.34 805.18 33.16 805.18 0"/><polygon class="cls-5" points="821.8 0 814.03 11.19 814.03 44.34 821.8 33.16 821.8 0"/><rect class="cls-5" x="796.32" y="11.19" width="1.09" height="33.16"/><rect class="cls-4" x="812.95" y="11.19" width="1.09" height="33.16"/><polygon class="cls-5" points="788.56 33.16 796.33 44.34 796.33 77.5 788.56 66.31 788.56 33.16"/><polygon class="cls-5" points="805.18 33.16 797.41 44.34 797.41 77.5 805.18 66.31 805.18 33.16"/><rect class="cls-4" x="796.32" y="44.34" width="1.09" height="33.15"/><polygon class="cls-4" points="821.8 0 829.57 11.19 829.57 44.34 821.8 33.16 821.8 0"/><polygon class="cls-4" points="838.43 0 830.66 11.19 830.66 44.34 838.43 33.16 838.43 0"/><polygon class="cls-5" points="838.43 0 846.2 11.19 846.2 44.34 838.43 33.16 838.43 0"/><polygon class="cls-5" points="855.05 0 847.28 11.19 847.28 44.34 855.05 33.16 855.05 0"/><rect class="cls-5" x="829.57" y="11.19" width="1.09" height="33.16"/><rect class="cls-4" x="846.2" y="11.19" width="1.09" height="33.16"/><polygon class="cls-4" points="805.18 33.16 812.95 44.34 812.95 77.5 805.18 66.31 805.18 33.16"/><polygon class="cls-4" points="821.8 33.16 814.03 44.34 814.03 77.5 821.8 66.31 821.8 33.16"/><polygon class="cls-5" points="821.8 33.16 829.57 44.34 829.57 77.5 821.8 66.31 821.8 33.16"/><polygon class="cls-5" points="838.43 33.16 830.66 44.34 830.66 77.5 838.43 66.31 838.43 33.16"/><rect class="cls-5" x="812.95" y="44.34" width="1.09" height="33.15"/><rect class="cls-4" x="829.57" y="44.34" width="1.09" height="33.15"/><polygon class="cls-4" points="855.05 0 862.82 11.19 862.82 44.34 855.05 33.16 855.05 0"/><polygon class="cls-4" points="871.67 0 863.9 11.19 863.9 44.34 871.67 33.16 871.67 0"/><polygon class="cls-5" points="871.67 0 879.44 11.19 879.44 44.34 871.67 33.16 871.67 0"/><polygon class="cls-5" points="888.29 0 880.52 11.19 880.52 44.34 888.29 33.16 888.29 0"/><rect class="cls-5" x="862.82" y="11.19" width="1.09" height="33.16"/><rect class="cls-4" x="879.44" y="11.19" width="1.09" height="33.16"/><polygon class="cls-4" points="838.43 33.16 846.2 44.34 846.2 77.5 838.43 66.31 838.43 33.16"/><polygon class="cls-4" points="855.05 33.16 847.28 44.34 847.28 77.5 855.05 66.31 855.05 33.16"/><polygon class="cls-5" points="855.05 33.16 862.82 44.34 862.82 77.5 855.05 66.31 855.05 33.16"/><polygon class="cls-5" points="871.67 33.16 863.9 44.34 863.9 77.5 871.67 66.31 871.67 33.16"/><rect class="cls-5" x="846.2" y="44.34" width="1.09" height="33.15"/><rect class="cls-4" x="862.82" y="44.34" width="1.09" height="33.15"/><polygon class="cls-4" points="888.29 0 896.06 11.19 896.06 44.34 888.29 33.16 888.29 0"/><polygon class="cls-4" points="904.92 0 897.15 11.19 897.15 44.34 904.92 33.16 904.92 0"/><polygon class="cls-5" points="904.92 0 912.68 11.19 912.68 44.34 904.92 33.16 904.92 0"/><polygon class="cls-5" points="921.54 0 913.77 11.19 913.77 44.34 921.54 33.16 921.54 0"/><rect class="cls-5" x="896.06" y="11.19" width="1.09" height="33.16"/><rect class="cls-4" x="912.68" y="11.19" width="1.09" height="33.16"/><polygon class="cls-4" points="871.67 33.16 879.44 44.34 879.44 77.5 871.67 66.31 871.67 33.16"/><polygon class="cls-4" points="888.29 33.16 880.52 44.34 880.52 77.5 888.29 66.31 888.29 33.16"/><polygon class="cls-5" points="888.29 33.16 896.06 44.34 896.06 77.5 888.29 66.31 888.29 33.16"/><polygon class="cls-5" points="904.92 33.16 897.15 44.34 897.15 77.5 904.92 66.31 904.92 33.16"/><rect class="cls-5" x="879.44" y="44.34" width="1.09" height="33.15"/><rect class="cls-4" x="896.06" y="44.34" width="1.09" height="33.15"/><polygon class="cls-4" points="921.54 0 929.31 11.19 929.31 44.34 921.54 33.16 921.54 0"/><polygon class="cls-4" points="938.16 0 930.39 11.19 930.39 44.34 938.16 33.16 938.16 0"/><polygon class="cls-5" points="938.16 0 945.93 11.19 945.93 44.34 938.16 33.16 938.16 0"/><polygon class="cls-5" points="954.78 0 947.02 11.19 947.02 44.34 954.78 33.16 954.78 0"/><rect class="cls-5" x="929.31" y="11.19" width="1.09" height="33.16"/><rect class="cls-4" x="945.93" y="11.19" width="1.09" height="33.16"/><polygon class="cls-4" points="904.92 33.16 912.68 44.34 912.68 77.5 904.92 66.31 904.92 33.16"/><polygon class="cls-4" points="921.54 33.16 913.77 44.34 913.77 77.5 921.54 66.31 921.54 33.16"/><polygon class="cls-5" points="921.54 33.16 929.31 44.34 929.31 77.5 921.54 66.31 921.54 33.16"/><polygon class="cls-5" points="938.16 33.16 930.39 44.34 930.39 77.5 938.16 66.31 938.16 33.16"/><rect class="cls-5" x="912.68" y="44.34" width="1.09" height="33.15"/><rect class="cls-4" x="929.31" y="44.34" width="1.09" height="33.15"/><polygon class="cls-4" points="954.78 0 962.55 11.19 962.55 44.34 954.78 33.16 954.78 0"/><polygon class="cls-4" points="971.41 0 963.64 11.19 963.64 44.34 971.41 33.16 971.41 0"/><polygon class="cls-5" points="971.41 0 979.17 11.19 979.17 44.34 971.41 33.16 971.41 0"/><polygon class="cls-5" points="988.03 0 980.26 11.19 980.26 44.34 988.03 33.16 988.03 0"/><rect class="cls-5" x="962.55" y="11.19" width="1.09" height="33.16"/><rect class="cls-4" x="979.18" y="11.19" width="1.09" height="33.16"/><polygon class="cls-4" points="938.16 33.16 945.93 44.34 945.93 77.5 938.16 66.31 938.16 33.16"/><polygon class="cls-4" points="954.78 33.16 947.02 44.34 947.02 77.5 954.78 66.31 954.78 33.16"/><polygon class="cls-5" points="954.78 33.16 962.55 44.34 962.55 77.5 954.78 66.31 954.78 33.16"/><polygon class="cls-5" points="971.41 33.16 963.64 44.34 963.64 77.5 971.41 66.31 971.41 33.16"/><rect class="cls-5" x="945.93" y="44.34" width="1.09" height="33.15"/><rect class="cls-4" x="962.55" y="44.34" width="1.09" height="33.15"/><polygon class="cls-4" points="988.03 0 995.8 11.19 995.8 44.34 988.03 33.16 988.03 0"/><polygon class="cls-4" points="1004.65 0 996.88 11.19 996.88 44.34 1004.65 33.16 1004.65 0"/><polygon class="cls-5" points="1004.65 0 1012.42 11.19 1012.42 44.34 1004.65 33.16 1004.65 0"/><polygon class="cls-5" points="1021.27 0 1013.51 11.19 1013.51 44.34 1021.27 33.16 1021.27 0"/><rect class="cls-5" x="995.8" y="11.19" width="1.09" height="33.16"/><rect class="cls-4" x="1012.42" y="11.19" width="1.09" height="33.16"/><polygon class="cls-4" points="971.41 33.16 979.17 44.34 979.17 77.5 971.41 66.31 971.41 33.16"/><polygon class="cls-4" points="988.03 33.16 980.26 44.34 980.26 77.5 988.03 66.31 988.03 33.16"/><polygon class="cls-5" points="988.03 33.16 995.8 44.34 995.8 77.5 988.03 66.31 988.03 33.16"/><polygon class="cls-5" points="1004.65 33.16 996.88 44.34 996.88 77.5 1004.65 66.31 1004.65 33.16"/><rect class="cls-5" x="979.18" y="44.34" width="1.09" height="33.15"/><rect class="cls-4" x="995.8" y="44.34" width="1.09" height="33.15"/><polygon class="cls-4" points="1021.27 0 1029.04 11.19 1029.04 44.34 1021.27 33.16 1021.27 0"/><polygon class="cls-4" points="1037.9 0 1030.13 11.19 1030.13 44.34 1037.9 33.16 1037.9 0"/><polygon class="cls-5" points="1037.9 0 1045.67 11.19 1045.67 44.34 1037.9 33.16 1037.9 0"/><polygon class="cls-5" points="1054.52 0 1046.75 11.19 1046.75 44.34 1054.52 33.16 1054.52 0"/><rect class="cls-5" x="1029.04" y="11.19" width="1.09" height="33.16"/><rect class="cls-4" x="1045.67" y="11.19" width="1.09" height="33.16"/><polygon class="cls-4" points="1004.65 33.16 1012.42 44.34 1012.42 77.5 1004.65 66.31 1004.65 33.16"/><polygon class="cls-4" points="1021.27 33.16 1013.51 44.34 1013.51 77.5 1021.27 66.31 1021.27 33.16"/><polygon class="cls-5" points="1021.27 33.16 1029.04 44.34 1029.04 77.5 1021.27 66.31 1021.27 33.16"/><polygon class="cls-5" points="1037.9 33.16 1030.13 44.34 1030.13 77.5 1037.9 66.31 1037.9 33.16"/><rect class="cls-5" x="1012.42" y="44.34" width="1.09" height="33.15"/><rect class="cls-4" x="1029.04" y="44.34" width="1.09" height="33.15"/><polygon class="cls-4" points="1054.52 0 1062.29 11.19 1062.29 44.34 1054.52 33.16 1054.52 0"/><polygon class="cls-4" points="1071.14 0 1063.38 11.19 1063.38 44.34 1071.14 33.16 1071.14 0"/><polygon class="cls-5" points="1071.14 0 1078.91 11.19 1078.91 44.34 1071.14 33.16 1071.14 0"/><polygon class="cls-5" points="1087.77 0 1080 11.19 1080 44.34 1087.77 33.16 1087.77 0"/><rect class="cls-5" x="1062.29" y="11.19" width="1.09" height="33.16"/><rect class="cls-4" x="1078.91" y="11.19" width="1.09" height="33.16"/><polygon class="cls-4" points="1037.9 33.16 1045.67 44.34 1045.67 77.5 1037.9 66.31 1037.9 33.16"/><polygon class="cls-4" points="1054.52 33.16 1046.75 44.34 1046.75 77.5 1054.52 66.31 1054.52 33.16"/><polygon class="cls-5" points="1054.52 33.16 1062.29 44.34 1062.29 77.5 1054.52 66.31 1054.52 33.16"/><polygon class="cls-5" points="1071.14 33.16 1063.38 44.34 1063.38 77.5 1071.14 66.31 1071.14 33.16"/><rect class="cls-5" x="1045.67" y="44.34" width="1.09" height="33.15"/><rect class="cls-4" x="1062.29" y="44.34" width="1.09" height="33.15"/><polygon class="cls-4" points="1071.14 33.16 1078.91 44.34 1078.91 77.5 1071.14 66.31 1071.14 33.16"/><polygon class="cls-4" points="1087.77 33.16 1080 44.34 1080 77.5 1087.77 66.31 1087.77 33.16"/><rect class="cls-5" x="1078.91" y="44.34" width="1.09" height="33.15"/><polygon class="cls-4" points="788.56 66.31 796.33 77.5 796.33 110.66 788.56 99.47 788.56 66.31"/><polygon class="cls-4" points="805.18 66.31 797.41 77.5 797.41 110.66 805.18 99.47 805.18 66.31"/><polygon class="cls-5" points="805.18 66.31 812.95 77.5 812.95 110.66 805.18 99.47 805.18 66.31"/><polygon class="cls-5" points="821.8 66.31 814.03 77.5 814.03 110.66 821.8 99.47 821.8 66.31"/><rect class="cls-5" x="796.32" y="77.5" width="1.09" height="33.16"/><rect class="cls-4" x="812.95" y="77.5" width="1.09" height="33.16"/><polygon class="cls-5" points="788.56 99.47 796.33 110.66 796.33 143.81 788.56 132.63 788.56 99.47"/><polygon class="cls-5" points="805.18 99.47 797.41 110.66 797.41 143.81 805.18 132.63 805.18 99.47"/><rect class="cls-4" x="796.32" y="110.66" width="1.09" height="33.16"/><polygon class="cls-4" points="821.8 66.31 829.57 77.5 829.57 110.66 821.8 99.47 821.8 66.31"/><polygon class="cls-4" points="838.43 66.31 830.66 77.5 830.66 110.66 838.43 99.47 838.43 66.31"/><polygon class="cls-5" points="838.43 66.31 846.2 77.5 846.2 110.66 838.43 99.47 838.43 66.31"/><polygon class="cls-5" points="855.05 66.31 847.28 77.5 847.28 110.66 855.05 99.47 855.05 66.31"/><rect class="cls-5" x="829.57" y="77.5" width="1.09" height="33.16"/><rect class="cls-4" x="846.2" y="77.5" width="1.09" height="33.16"/><polygon class="cls-4" points="805.18 99.47 812.95 110.66 812.95 143.81 805.18 132.63 805.18 99.47"/><polygon class="cls-4" points="821.8 99.47 814.03 110.66 814.03 143.81 821.8 132.63 821.8 99.47"/><polygon class="cls-5" points="821.8 99.47 829.57 110.66 829.57 143.81 821.8 132.63 821.8 99.47"/><polygon class="cls-5" points="838.43 99.47 830.66 110.66 830.66 143.81 838.43 132.63 838.43 99.47"/><rect class="cls-5" x="812.95" y="110.66" width="1.09" height="33.16"/><rect class="cls-4" x="829.57" y="110.66" width="1.09" height="33.16"/><polygon class="cls-4" points="855.05 66.31 862.82 77.5 862.82 110.66 855.05 99.47 855.05 66.31"/><polygon class="cls-4" points="871.67 66.31 863.9 77.5 863.9 110.66 871.67 99.47 871.67 66.31"/><polygon class="cls-5" points="871.67 66.31 879.44 77.5 879.44 110.66 871.67 99.47 871.67 66.31"/><polygon class="cls-5" points="888.29 66.31 880.52 77.5 880.52 110.66 888.29 99.47 888.29 66.31"/><rect class="cls-5" x="862.82" y="77.5" width="1.09" height="33.16"/><rect class="cls-4" x="879.44" y="77.5" width="1.09" height="33.16"/><polygon class="cls-4" points="838.43 99.47 846.2 110.66 846.2 143.81 838.43 132.63 838.43 99.47"/><polygon class="cls-4" points="855.05 99.47 847.28 110.66 847.28 143.81 855.05 132.63 855.05 99.47"/><polygon class="cls-5" points="855.05 99.47 862.82 110.66 862.82 143.81 855.05 132.63 855.05 99.47"/><polygon class="cls-5" points="871.67 99.47 863.9 110.66 863.9 143.81 871.67 132.63 871.67 99.47"/><rect class="cls-5" x="846.2" y="110.66" width="1.09" height="33.16"/><rect class="cls-4" x="862.82" y="110.66" width="1.09" height="33.16"/><polygon class="cls-4" points="888.29 66.31 896.06 77.5 896.06 110.66 888.29 99.47 888.29 66.31"/><polygon class="cls-4" points="904.92 66.31 897.15 77.5 897.15 110.66 904.92 99.47 904.92 66.31"/><polygon class="cls-5" points="904.92 66.31 912.68 77.5 912.68 110.66 904.92 99.47 904.92 66.31"/><polygon class="cls-5" points="921.54 66.31 913.77 77.5 913.77 110.66 921.54 99.47 921.54 66.31"/><rect class="cls-5" x="896.06" y="77.5" width="1.09" height="33.16"/><rect class="cls-4" x="912.68" y="77.5" width="1.09" height="33.16"/><polygon class="cls-4" points="871.67 99.47 879.44 110.66 879.44 143.81 871.67 132.63 871.67 99.47"/><polygon class="cls-4" points="888.29 99.47 880.52 110.66 880.52 143.81 888.29 132.63 888.29 99.47"/><polygon class="cls-5" points="888.29 99.47 896.06 110.66 896.06 143.81 888.29 132.63 888.29 99.47"/><polygon class="cls-5" points="904.92 99.47 897.15 110.66 897.15 143.81 904.92 132.63 904.92 99.47"/><rect class="cls-5" x="879.44" y="110.66" width="1.09" height="33.16"/><rect class="cls-4" x="896.06" y="110.66" width="1.09" height="33.16"/><polygon class="cls-4" points="921.54 66.31 929.31 77.5 929.31 110.66 921.54 99.47 921.54 66.31"/><polygon class="cls-4" points="938.16 66.31 930.39 77.5 930.39 110.66 938.16 99.47 938.16 66.31"/><polygon class="cls-5" points="938.16 66.31 945.93 77.5 945.93 110.66 938.16 99.47 938.16 66.31"/><polygon class="cls-5" points="954.78 66.31 947.02 77.5 947.02 110.66 954.78 99.47 954.78 66.31"/><rect class="cls-5" x="929.31" y="77.5" width="1.09" height="33.16"/><rect class="cls-4" x="945.93" y="77.5" width="1.09" height="33.16"/><polygon class="cls-4" points="904.92 99.47 912.68 110.66 912.68 143.81 904.92 132.63 904.92 99.47"/><polygon class="cls-4" points="921.54 99.47 913.77 110.66 913.77 143.81 921.54 132.63 921.54 99.47"/><polygon class="cls-5" points="921.54 99.47 929.31 110.66 929.31 143.81 921.54 132.63 921.54 99.47"/><polygon class="cls-5" points="938.16 99.47 930.39 110.66 930.39 143.81 938.16 132.63 938.16 99.47"/><rect class="cls-5" x="912.68" y="110.66" width="1.09" height="33.16"/><rect class="cls-4" x="929.31" y="110.66" width="1.09" height="33.16"/><polygon class="cls-4" points="954.78 66.31 962.55 77.5 962.55 110.66 954.78 99.47 954.78 66.31"/><polygon class="cls-4" points="971.41 66.31 963.64 77.5 963.64 110.66 971.41 99.47 971.41 66.31"/><polygon class="cls-5" points="971.41 66.31 979.17 77.5 979.17 110.66 971.41 99.47 971.41 66.31"/><polygon class="cls-5" points="988.03 66.31 980.26 77.5 980.26 110.66 988.03 99.47 988.03 66.31"/><rect class="cls-5" x="962.55" y="77.5" width="1.09" height="33.16"/><rect class="cls-4" x="979.18" y="77.5" width="1.09" height="33.16"/><polygon class="cls-4" points="938.16 99.47 945.93 110.66 945.93 143.81 938.16 132.63 938.16 99.47"/><polygon class="cls-4" points="954.78 99.47 947.02 110.66 947.02 143.81 954.78 132.63 954.78 99.47"/><polygon class="cls-5" points="954.78 99.47 962.55 110.66 962.55 143.81 954.78 132.63 954.78 99.47"/><polygon class="cls-5" points="971.41 99.47 963.64 110.66 963.64 143.81 971.41 132.63 971.41 99.47"/><rect class="cls-5" x="945.93" y="110.66" width="1.09" height="33.16"/><rect class="cls-4" x="962.55" y="110.66" width="1.09" height="33.16"/><polygon class="cls-4" points="988.03 66.31 995.8 77.5 995.8 110.66 988.03 99.47 988.03 66.31"/><polygon class="cls-4" points="1004.65 66.31 996.88 77.5 996.88 110.66 1004.65 99.47 1004.65 66.31"/><polygon class="cls-5" points="1004.65 66.31 1012.42 77.5 1012.42 110.66 1004.65 99.47 1004.65 66.31"/><polygon class="cls-5" points="1021.27 66.31 1013.51 77.5 1013.51 110.66 1021.27 99.47 1021.27 66.31"/><rect class="cls-5" x="995.8" y="77.5" width="1.09" height="33.16"/><rect class="cls-4" x="1012.42" y="77.5" width="1.09" height="33.16"/><polygon class="cls-4" points="971.41 99.47 979.17 110.66 979.17 143.81 971.41 132.63 971.41 99.47"/><polygon class="cls-4" points="988.03 99.47 980.26 110.66 980.26 143.81 988.03 132.63 988.03 99.47"/><polygon class="cls-5" points="988.03 99.47 995.8 110.66 995.8 143.81 988.03 132.63 988.03 99.47"/><polygon class="cls-5" points="1004.65 99.47 996.88 110.66 996.88 143.81 1004.65 132.63 1004.65 99.47"/><rect class="cls-5" x="979.18" y="110.66" width="1.09" height="33.16"/><rect class="cls-4" x="995.8" y="110.66" width="1.09" height="33.16"/><polygon class="cls-4" points="1021.27 66.31 1029.04 77.5 1029.04 110.66 1021.27 99.47 1021.27 66.31"/><polygon class="cls-4" points="1037.9 66.31 1030.13 77.5 1030.13 110.66 1037.9 99.47 1037.9 66.31"/><polygon class="cls-5" points="1037.9 66.31 1045.67 77.5 1045.67 110.66 1037.9 99.47 1037.9 66.31"/><polygon class="cls-5" points="1054.52 66.31 1046.75 77.5 1046.75 110.66 1054.52 99.47 1054.52 66.31"/><rect class="cls-5" x="1029.04" y="77.5" width="1.09" height="33.16"/><rect class="cls-4" x="1045.67" y="77.5" width="1.09" height="33.16"/><polygon class="cls-4" points="1004.65 99.47 1012.42 110.66 1012.42 143.81 1004.65 132.63 1004.65 99.47"/><polygon class="cls-4" points="1021.27 99.47 1013.51 110.66 1013.51 143.81 1021.27 132.63 1021.27 99.47"/><polygon class="cls-5" points="1021.27 99.47 1029.04 110.66 1029.04 143.81 1021.27 132.63 1021.27 99.47"/><polygon class="cls-5" points="1037.9 99.47 1030.13 110.66 1030.13 143.81 1037.9 132.63 1037.9 99.47"/><rect class="cls-5" x="1012.42" y="110.66" width="1.09" height="33.16"/><rect class="cls-4" x="1029.04" y="110.66" width="1.09" height="33.16"/><polygon class="cls-4" points="1054.52 66.31 1062.29 77.5 1062.29 110.66 1054.52 99.47 1054.52 66.31"/><polygon class="cls-4" points="1071.14 66.31 1063.38 77.5 1063.38 110.66 1071.14 99.47 1071.14 66.31"/><polygon class="cls-5" points="1071.14 66.31 1078.91 77.5 1078.91 110.66 1071.14 99.47 1071.14 66.31"/><polygon class="cls-5" points="1087.77 66.31 1080 77.5 1080 110.66 1087.77 99.47 1087.77 66.31"/><rect class="cls-5" x="1062.29" y="77.5" width="1.09" height="33.16"/><rect class="cls-4" x="1078.91" y="77.5" width="1.09" height="33.16"/><polygon class="cls-4" points="1037.9 99.47 1045.67 110.66 1045.67 143.81 1037.9 132.63 1037.9 99.47"/><polygon class="cls-4" points="1054.52 99.47 1046.75 110.66 1046.75 143.81 1054.52 132.63 1054.52 99.47"/><polygon class="cls-5" points="1054.52 99.47 1062.29 110.66 1062.29 143.81 1054.52 132.63 1054.52 99.47"/><polygon class="cls-5" points="1071.14 99.47 1063.38 110.66 1063.38 143.81 1071.14 132.63 1071.14 99.47"/><rect class="cls-5" x="1045.67" y="110.66" width="1.09" height="33.16"/><rect class="cls-4" x="1062.29" y="110.66" width="1.09" height="33.16"/><polygon class="cls-4" points="1071.14 99.47 1078.91 110.66 1078.91 143.81 1071.14 132.63 1071.14 99.47"/><polygon class="cls-4" points="1087.77 99.47 1080 110.66 1080 143.81 1087.77 132.63 1087.77 99.47"/><rect class="cls-5" x="1078.91" y="110.66" width="1.09" height="33.16"/><polygon class="cls-4" points="788.56 132.63 796.33 143.81 796.33 176.97 788.56 165.78 788.56 132.63"/><polygon class="cls-4" points="805.18 132.63 797.41 143.81 797.41 176.97 805.18 165.78 805.18 132.63"/><polygon class="cls-5" points="805.18 132.63 812.95 143.81 812.95 176.97 805.18 165.78 805.18 132.63"/><polygon class="cls-5" points="821.8 132.63 814.03 143.81 814.03 176.97 821.8 165.78 821.8 132.63"/><rect class="cls-5" x="796.32" y="143.81" width="1.09" height="33.16"/><rect class="cls-4" x="812.95" y="143.81" width="1.09" height="33.16"/><polygon class="cls-5" points="788.56 165.78 796.33 176.97 796.33 210.12 788.56 198.93 788.56 165.78"/><polygon class="cls-5" points="805.18 165.78 797.41 176.97 797.41 210.12 805.18 198.93 805.18 165.78"/><rect class="cls-4" x="796.32" y="176.97" width="1.09" height="33.16"/><polygon class="cls-4" points="821.8 132.63 829.57 143.81 829.57 176.97 821.8 165.78 821.8 132.63"/><polygon class="cls-4" points="838.43 132.63 830.66 143.81 830.66 176.97 838.43 165.78 838.43 132.63"/><polygon class="cls-5" points="838.43 132.63 846.2 143.81 846.2 176.97 838.43 165.78 838.43 132.63"/><polygon class="cls-5" points="855.05 132.63 847.28 143.81 847.28 176.97 855.05 165.78 855.05 132.63"/><rect class="cls-5" x="829.57" y="143.81" width="1.09" height="33.16"/><rect class="cls-4" x="846.2" y="143.81" width="1.09" height="33.16"/><polygon class="cls-4" points="805.18 165.78 812.95 176.97 812.95 210.12 805.18 198.93 805.18 165.78"/><polygon class="cls-4" points="821.8 165.78 814.03 176.97 814.03 210.12 821.8 198.93 821.8 165.78"/><polygon class="cls-5" points="821.8 165.78 829.57 176.97 829.57 210.12 821.8 198.93 821.8 165.78"/><polygon class="cls-5" points="838.43 165.78 830.66 176.97 830.66 210.12 838.43 198.93 838.43 165.78"/><rect class="cls-5" x="812.95" y="176.97" width="1.09" height="33.16"/><rect class="cls-4" x="829.57" y="176.97" width="1.09" height="33.16"/><polygon class="cls-4" points="855.05 132.63 862.82 143.81 862.82 176.97 855.05 165.78 855.05 132.63"/><polygon class="cls-4" points="871.67 132.63 863.9 143.81 863.9 176.97 871.67 165.78 871.67 132.63"/><polygon class="cls-5" points="871.67 132.63 879.44 143.81 879.44 176.97 871.67 165.78 871.67 132.63"/><polygon class="cls-5" points="888.29 132.63 880.52 143.81 880.52 176.97 888.29 165.78 888.29 132.63"/><rect class="cls-5" x="862.82" y="143.81" width="1.09" height="33.16"/><rect class="cls-4" x="879.44" y="143.81" width="1.09" height="33.16"/><polygon class="cls-4" points="838.43 165.78 846.2 176.97 846.2 210.12 838.43 198.93 838.43 165.78"/><polygon class="cls-4" points="855.05 165.78 847.28 176.97 847.28 210.12 855.05 198.93 855.05 165.78"/><polygon class="cls-5" points="855.05 165.78 862.82 176.97 862.82 210.12 855.05 198.93 855.05 165.78"/><polygon class="cls-5" points="871.67 165.78 863.9 176.97 863.9 210.12 871.67 198.93 871.67 165.78"/><rect class="cls-5" x="846.2" y="176.97" width="1.09" height="33.16"/><rect class="cls-4" x="862.82" y="176.97" width="1.09" height="33.16"/><polygon class="cls-4" points="888.29 132.63 896.06 143.81 896.06 176.97 888.29 165.78 888.29 132.63"/><polygon class="cls-4" points="904.92 132.63 897.15 143.81 897.15 176.97 904.92 165.78 904.92 132.63"/><polygon class="cls-5" points="904.92 132.63 912.68 143.81 912.68 176.97 904.92 165.78 904.92 132.63"/><polygon class="cls-5" points="921.54 132.63 913.77 143.81 913.77 176.97 921.54 165.78 921.54 132.63"/><rect class="cls-5" x="896.06" y="143.81" width="1.09" height="33.16"/><rect class="cls-4" x="912.68" y="143.81" width="1.09" height="33.16"/><polygon class="cls-4" points="871.67 165.78 879.44 176.97 879.44 210.12 871.67 198.93 871.67 165.78"/><polygon class="cls-4" points="888.29 165.78 880.52 176.97 880.52 210.12 888.29 198.93 888.29 165.78"/><polygon class="cls-5" points="888.29 165.78 896.06 176.97 896.06 210.12 888.29 198.93 888.29 165.78"/><polygon class="cls-5" points="904.92 165.78 897.15 176.97 897.15 210.12 904.92 198.93 904.92 165.78"/><rect class="cls-5" x="879.44" y="176.97" width="1.09" height="33.16"/><rect class="cls-4" x="896.06" y="176.97" width="1.09" height="33.16"/><polygon class="cls-4" points="921.54 132.63 929.31 143.81 929.31 176.97 921.54 165.78 921.54 132.63"/><polygon class="cls-4" points="938.16 132.63 930.39 143.81 930.39 176.97 938.16 165.78 938.16 132.63"/><polygon class="cls-5" points="938.16 132.63 945.93 143.81 945.93 176.97 938.16 165.78 938.16 132.63"/><polygon class="cls-5" points="954.78 132.63 947.02 143.81 947.02 176.97 954.78 165.78 954.78 132.63"/><rect class="cls-5" x="929.31" y="143.81" width="1.09" height="33.16"/><rect class="cls-4" x="945.93" y="143.81" width="1.09" height="33.16"/><polygon class="cls-4" points="904.92 165.78 912.68 176.97 912.68 210.12 904.92 198.93 904.92 165.78"/><polygon class="cls-4" points="921.54 165.78 913.77 176.97 913.77 210.12 921.54 198.93 921.54 165.78"/><polygon class="cls-5" points="921.54 165.78 929.31 176.97 929.31 210.12 921.54 198.93 921.54 165.78"/><polygon class="cls-5" points="938.16 165.78 930.39 176.97 930.39 210.12 938.16 198.93 938.16 165.78"/><rect class="cls-5" x="912.68" y="176.97" width="1.09" height="33.16"/><rect class="cls-4" x="929.31" y="176.97" width="1.09" height="33.16"/><polygon class="cls-4" points="954.78 132.63 962.55 143.81 962.55 176.97 954.78 165.78 954.78 132.63"/><polygon class="cls-4" points="971.41 132.63 963.64 143.81 963.64 176.97 971.41 165.78 971.41 132.63"/><polygon class="cls-5" points="971.41 132.63 979.17 143.81 979.17 176.97 971.41 165.78 971.41 132.63"/><polygon class="cls-5" points="988.03 132.63 980.26 143.81 980.26 176.97 988.03 165.78 988.03 132.63"/><rect class="cls-5" x="962.55" y="143.81" width="1.09" height="33.16"/><rect class="cls-4" x="979.18" y="143.81" width="1.09" height="33.16"/><polygon class="cls-4" points="938.16 165.78 945.93 176.97 945.93 210.12 938.16 198.93 938.16 165.78"/><polygon class="cls-4" points="954.78 165.78 947.02 176.97 947.02 210.12 954.78 198.93 954.78 165.78"/><polygon class="cls-5" points="954.78 165.78 962.55 176.97 962.55 210.12 954.78 198.93 954.78 165.78"/><polygon class="cls-5" points="971.41 165.78 963.64 176.97 963.64 210.12 971.41 198.93 971.41 165.78"/><rect class="cls-5" x="945.93" y="176.97" width="1.09" height="33.16"/><rect class="cls-4" x="962.55" y="176.97" width="1.09" height="33.16"/><polygon class="cls-4" points="988.03 132.63 995.8 143.81 995.8 176.97 988.03 165.78 988.03 132.63"/><polygon class="cls-4" points="1004.65 132.63 996.88 143.81 996.88 176.97 1004.65 165.78 1004.65 132.63"/><polygon class="cls-5" points="1004.65 132.63 1012.42 143.81 1012.42 176.97 1004.65 165.78 1004.65 132.63"/><polygon class="cls-5" points="1021.27 132.63 1013.51 143.81 1013.51 176.97 1021.27 165.78 1021.27 132.63"/><rect class="cls-5" x="995.8" y="143.81" width="1.09" height="33.16"/><rect class="cls-4" x="1012.42" y="143.81" width="1.09" height="33.16"/><polygon class="cls-4" points="971.41 165.78 979.17 176.97 979.17 210.12 971.41 198.93 971.41 165.78"/><polygon class="cls-4" points="988.03 165.78 980.26 176.97 980.26 210.12 988.03 198.93 988.03 165.78"/><polygon class="cls-5" points="988.03 165.78 995.8 176.97 995.8 210.12 988.03 198.93 988.03 165.78"/><polygon class="cls-5" points="1004.65 165.78 996.88 176.97 996.88 210.12 1004.65 198.93 1004.65 165.78"/><rect class="cls-5" x="979.18" y="176.97" width="1.09" height="33.16"/><rect class="cls-4" x="995.8" y="176.97" width="1.09" height="33.16"/><polygon class="cls-4" points="1021.27 132.63 1029.04 143.81 1029.04 176.97 1021.27 165.78 1021.27 132.63"/><polygon class="cls-4" points="1037.9 132.63 1030.13 143.81 1030.13 176.97 1037.9 165.78 1037.9 132.63"/><polygon class="cls-5" points="1037.9 132.63 1045.67 143.81 1045.67 176.97 1037.9 165.78 1037.9 132.63"/><polygon class="cls-5" points="1054.52 132.63 1046.75 143.81 1046.75 176.97 1054.52 165.78 1054.52 132.63"/><rect class="cls-5" x="1029.04" y="143.81" width="1.09" height="33.16"/><rect class="cls-4" x="1045.67" y="143.81" width="1.09" height="33.16"/><polygon class="cls-4" points="1004.65 165.78 1012.42 176.97 1012.42 210.12 1004.65 198.93 1004.65 165.78"/><polygon class="cls-4" points="1021.27 165.78 1013.51 176.97 1013.51 210.12 1021.27 198.93 1021.27 165.78"/><polygon class="cls-5" points="1021.27 165.78 1029.04 176.97 1029.04 210.12 1021.27 198.93 1021.27 165.78"/><polygon class="cls-5" points="1037.9 165.78 1030.13 176.97 1030.13 210.12 1037.9 198.93 1037.9 165.78"/><rect class="cls-5" x="1012.42" y="176.97" width="1.09" height="33.16"/><rect class="cls-4" x="1029.04" y="176.97" width="1.09" height="33.16"/><polygon class="cls-4" points="1054.52 132.63 1062.29 143.81 1062.29 176.97 1054.52 165.78 1054.52 132.63"/><polygon class="cls-4" points="1071.14 132.63 1063.38 143.81 1063.38 176.97 1071.14 165.78 1071.14 132.63"/><polygon class="cls-5" points="1071.14 132.63 1078.91 143.81 1078.91 176.97 1071.14 165.78 1071.14 132.63"/><polygon class="cls-5" points="1087.77 132.63 1080 143.81 1080 176.97 1087.77 165.78 1087.77 132.63"/><rect class="cls-5" x="1062.29" y="143.81" width="1.09" height="33.16"/><rect class="cls-4" x="1078.91" y="143.81" width="1.09" height="33.16"/><polygon class="cls-4" points="1037.9 165.78 1045.67 176.97 1045.67 210.12 1037.9 198.93 1037.9 165.78"/><polygon class="cls-4" points="1054.52 165.78 1046.75 176.97 1046.75 210.12 1054.52 198.93 1054.52 165.78"/><polygon class="cls-5" points="1054.52 165.78 1062.29 176.97 1062.29 210.12 1054.52 198.93 1054.52 165.78"/><polygon class="cls-5" points="1071.14 165.78 1063.38 176.97 1063.38 210.12 1071.14 198.93 1071.14 165.78"/><rect class="cls-5" x="1045.67" y="176.97" width="1.09" height="33.16"/><rect class="cls-4" x="1062.29" y="176.97" width="1.09" height="33.16"/><polygon class="cls-4" points="1071.14 165.78 1078.91 176.97 1078.91 210.12 1071.14 198.93 1071.14 165.78"/><polygon class="cls-4" points="1087.77 165.78 1080 176.97 1080 210.12 1087.77 198.93 1087.77 165.78"/><rect class="cls-5" x="1078.91" y="176.97" width="1.09" height="33.16"/><polygon class="cls-4" points="788.56 198.93 796.33 210.12 796.33 243.28 788.56 232.09 788.56 198.93"/><polygon class="cls-4" points="805.18 198.93 797.41 210.12 797.41 243.28 805.18 232.09 805.18 198.93"/><polygon class="cls-5" points="805.18 198.93 812.95 210.12 812.95 243.28 805.18 232.09 805.18 198.93"/><polygon class="cls-5" points="821.8 198.93 814.03 210.12 814.03 243.28 821.8 232.09 821.8 198.93"/><rect class="cls-5" x="796.32" y="210.12" width="1.09" height="33.16"/><rect class="cls-4" x="812.95" y="210.12" width="1.09" height="33.16"/><polygon class="cls-5" points="788.56 232.09 796.33 243.28 796.33 276.43 788.56 265.25 788.56 232.09"/><polygon class="cls-5" points="805.18 232.09 797.41 243.28 797.41 276.43 805.18 265.25 805.18 232.09"/><rect class="cls-4" x="796.32" y="243.28" width="1.09" height="33.15"/><polygon class="cls-4" points="821.8 198.93 829.57 210.12 829.57 243.28 821.8 232.09 821.8 198.93"/><polygon class="cls-4" points="838.43 198.93 830.66 210.12 830.66 243.28 838.43 232.09 838.43 198.93"/><polygon class="cls-5" points="838.43 198.93 846.2 210.12 846.2 243.28 838.43 232.09 838.43 198.93"/><polygon class="cls-5" points="855.05 198.93 847.28 210.12 847.28 243.28 855.05 232.09 855.05 198.93"/><rect class="cls-5" x="829.57" y="210.12" width="1.09" height="33.16"/><rect class="cls-4" x="846.2" y="210.12" width="1.09" height="33.16"/><polygon class="cls-4" points="805.18 232.09 812.95 243.28 812.95 276.43 805.18 265.25 805.18 232.09"/><polygon class="cls-4" points="821.8 232.09 814.03 243.28 814.03 276.43 821.8 265.25 821.8 232.09"/><polygon class="cls-5" points="821.8 232.09 829.57 243.28 829.57 276.43 821.8 265.25 821.8 232.09"/><polygon class="cls-5" points="838.43 232.09 830.66 243.28 830.66 276.43 838.43 265.25 838.43 232.09"/><rect class="cls-5" x="812.95" y="243.28" width="1.09" height="33.15"/><rect class="cls-4" x="829.57" y="243.28" width="1.09" height="33.15"/><polygon class="cls-4" points="855.05 198.93 862.82 210.12 862.82 243.28 855.05 232.09 855.05 198.93"/><polygon class="cls-4" points="871.67 198.93 863.9 210.12 863.9 243.28 871.67 232.09 871.67 198.93"/><polygon class="cls-5" points="871.67 198.93 879.44 210.12 879.44 243.28 871.67 232.09 871.67 198.93"/><polygon class="cls-5" points="888.29 198.93 880.52 210.12 880.52 243.28 888.29 232.09 888.29 198.93"/><rect class="cls-5" x="862.82" y="210.12" width="1.09" height="33.16"/><rect class="cls-4" x="879.44" y="210.12" width="1.09" height="33.16"/><polygon class="cls-4" points="838.43 232.09 846.2 243.28 846.2 276.43 838.43 265.25 838.43 232.09"/><polygon class="cls-4" points="855.05 232.09 847.28 243.28 847.28 276.43 855.05 265.25 855.05 232.09"/><polygon class="cls-5" points="855.05 232.09 862.82 243.28 862.82 276.43 855.05 265.25 855.05 232.09"/><polygon class="cls-5" points="871.67 232.09 863.9 243.28 863.9 276.43 871.67 265.25 871.67 232.09"/><rect class="cls-5" x="846.2" y="243.28" width="1.09" height="33.15"/><rect class="cls-4" x="862.82" y="243.28" width="1.09" height="33.15"/><polygon class="cls-4" points="888.29 198.93 896.06 210.12 896.06 243.28 888.29 232.09 888.29 198.93"/><polygon class="cls-4" points="904.92 198.93 897.15 210.12 897.15 243.28 904.92 232.09 904.92 198.93"/><polygon class="cls-5" points="904.92 198.93 912.68 210.12 912.68 243.28 904.92 232.09 904.92 198.93"/><polygon class="cls-5" points="921.54 198.93 913.77 210.12 913.77 243.28 921.54 232.09 921.54 198.93"/><rect class="cls-5" x="896.06" y="210.12" width="1.09" height="33.16"/><rect class="cls-4" x="912.68" y="210.12" width="1.09" height="33.16"/><polygon class="cls-4" points="871.67 232.09 879.44 243.28 879.44 276.43 871.67 265.25 871.67 232.09"/><polygon class="cls-4" points="888.29 232.09 880.52 243.28 880.52 276.43 888.29 265.25 888.29 232.09"/><polygon class="cls-5" points="888.29 232.09 896.06 243.28 896.06 276.43 888.29 265.25 888.29 232.09"/><polygon class="cls-5" points="904.92 232.09 897.15 243.28 897.15 276.43 904.92 265.25 904.92 232.09"/><rect class="cls-5" x="879.44" y="243.28" width="1.09" height="33.15"/><rect class="cls-4" x="896.06" y="243.28" width="1.09" height="33.15"/><polygon class="cls-4" points="921.54 198.93 929.31 210.12 929.31 243.28 921.54 232.09 921.54 198.93"/><polygon class="cls-4" points="938.16 198.93 930.39 210.12 930.39 243.28 938.16 232.09 938.16 198.93"/><polygon class="cls-5" points="938.16 198.93 945.93 210.12 945.93 243.28 938.16 232.09 938.16 198.93"/><polygon class="cls-5" points="954.78 198.93 947.02 210.12 947.02 243.28 954.78 232.09 954.78 198.93"/><rect class="cls-5" x="929.31" y="210.12" width="1.09" height="33.16"/><rect class="cls-4" x="945.93" y="210.12" width="1.09" height="33.16"/><polygon class="cls-4" points="904.92 232.09 912.68 243.28 912.68 276.43 904.92 265.25 904.92 232.09"/><polygon class="cls-4" points="921.54 232.09 913.77 243.28 913.77 276.43 921.54 265.25 921.54 232.09"/><polygon class="cls-5" points="921.54 232.09 929.31 243.28 929.31 276.43 921.54 265.25 921.54 232.09"/><polygon class="cls-5" points="938.16 232.09 930.39 243.28 930.39 276.43 938.16 265.25 938.16 232.09"/><rect class="cls-5" x="912.68" y="243.28" width="1.09" height="33.15"/><rect class="cls-4" x="929.31" y="243.28" width="1.09" height="33.15"/><polygon class="cls-4" points="954.78 198.93 962.55 210.12 962.55 243.28 954.78 232.09 954.78 198.93"/><polygon class="cls-4" points="971.41 198.93 963.64 210.12 963.64 243.28 971.41 232.09 971.41 198.93"/><polygon class="cls-5" points="971.41 198.93 979.17 210.12 979.17 243.28 971.41 232.09 971.41 198.93"/><polygon class="cls-5" points="988.03 198.93 980.26 210.12 980.26 243.28 988.03 232.09 988.03 198.93"/><rect class="cls-5" x="962.55" y="210.12" width="1.09" height="33.16"/><rect class="cls-4" x="979.18" y="210.12" width="1.09" height="33.16"/><polygon class="cls-4" points="938.16 232.09 945.93 243.28 945.93 276.43 938.16 265.25 938.16 232.09"/><polygon class="cls-4" points="954.78 232.09 947.02 243.28 947.02 276.43 954.78 265.25 954.78 232.09"/><polygon class="cls-5" points="954.78 232.09 962.55 243.28 962.55 276.43 954.78 265.25 954.78 232.09"/><polygon class="cls-5" points="971.41 232.09 963.64 243.28 963.64 276.43 971.41 265.25 971.41 232.09"/><rect class="cls-5" x="945.93" y="243.28" width="1.09" height="33.15"/><rect class="cls-4" x="962.55" y="243.28" width="1.09" height="33.15"/><polygon class="cls-4" points="988.03 198.93 995.8 210.12 995.8 243.28 988.03 232.09 988.03 198.93"/><polygon class="cls-4" points="1004.65 198.93 996.88 210.12 996.88 243.28 1004.65 232.09 1004.65 198.93"/><polygon class="cls-5" points="1004.65 198.93 1012.42 210.12 1012.42 243.28 1004.65 232.09 1004.65 198.93"/><polygon class="cls-5" points="1021.27 198.93 1013.51 210.12 1013.51 243.28 1021.27 232.09 1021.27 198.93"/><rect class="cls-5" x="995.8" y="210.12" width="1.09" height="33.16"/><rect class="cls-4" x="1012.42" y="210.12" width="1.09" height="33.16"/><polygon class="cls-4" points="971.41 232.09 979.17 243.28 979.17 276.43 971.41 265.25 971.41 232.09"/><polygon class="cls-4" points="988.03 232.09 980.26 243.28 980.26 276.43 988.03 265.25 988.03 232.09"/><polygon class="cls-5" points="988.03 232.09 995.8 243.28 995.8 276.43 988.03 265.25 988.03 232.09"/><polygon class="cls-5" points="1004.65 232.09 996.88 243.28 996.88 276.43 1004.65 265.25 1004.65 232.09"/><rect class="cls-5" x="979.18" y="243.28" width="1.09" height="33.15"/><rect class="cls-4" x="995.8" y="243.28" width="1.09" height="33.15"/><polygon class="cls-4" points="1021.27 198.93 1029.04 210.12 1029.04 243.28 1021.27 232.09 1021.27 198.93"/><polygon class="cls-4" points="1037.9 198.93 1030.13 210.12 1030.13 243.28 1037.9 232.09 1037.9 198.93"/><polygon class="cls-5" points="1037.9 198.93 1045.67 210.12 1045.67 243.28 1037.9 232.09 1037.9 198.93"/><polygon class="cls-5" points="1054.52 198.93 1046.75 210.12 1046.75 243.28 1054.52 232.09 1054.52 198.93"/><rect class="cls-5" x="1029.04" y="210.12" width="1.09" height="33.16"/><rect class="cls-4" x="1045.67" y="210.12" width="1.09" height="33.16"/><polygon class="cls-4" points="1004.65 232.09 1012.42 243.28 1012.42 276.43 1004.65 265.25 1004.65 232.09"/><polygon class="cls-4" points="1021.27 232.09 1013.51 243.28 1013.51 276.43 1021.27 265.25 1021.27 232.09"/><polygon class="cls-5" points="1021.27 232.09 1029.04 243.28 1029.04 276.43 1021.27 265.25 1021.27 232.09"/><polygon class="cls-5" points="1037.9 232.09 1030.13 243.28 1030.13 276.43 1037.9 265.25 1037.9 232.09"/><rect class="cls-5" x="1012.42" y="243.28" width="1.09" height="33.15"/><rect class="cls-4" x="1029.04" y="243.28" width="1.09" height="33.15"/><polygon class="cls-4" points="1054.52 198.93 1062.29 210.12 1062.29 243.28 1054.52 232.09 1054.52 198.93"/><polygon class="cls-4" points="1071.14 198.93 1063.38 210.12 1063.38 243.28 1071.14 232.09 1071.14 198.93"/><polygon class="cls-5" points="1071.14 198.93 1078.91 210.12 1078.91 243.28 1071.14 232.09 1071.14 198.93"/><polygon class="cls-5" points="1087.77 198.93 1080 210.12 1080 243.28 1087.77 232.09 1087.77 198.93"/><rect class="cls-5" x="1062.29" y="210.12" width="1.09" height="33.16"/><rect class="cls-4" x="1078.91" y="210.12" width="1.09" height="33.16"/><polygon class="cls-4" points="1037.9 232.09 1045.67 243.28 1045.67 276.43 1037.9 265.25 1037.9 232.09"/><polygon class="cls-4" points="1054.52 232.09 1046.75 243.28 1046.75 276.43 1054.52 265.25 1054.52 232.09"/><polygon class="cls-5" points="1054.52 232.09 1062.29 243.28 1062.29 276.43 1054.52 265.25 1054.52 232.09"/><polygon class="cls-5" points="1071.14 232.09 1063.38 243.28 1063.38 276.43 1071.14 265.25 1071.14 232.09"/><rect class="cls-5" x="1045.67" y="243.28" width="1.09" height="33.15"/><rect class="cls-4" x="1062.29" y="243.28" width="1.09" height="33.15"/><polygon class="cls-4" points="1071.14 232.09 1078.91 243.28 1078.91 276.43 1071.14 265.25 1071.14 232.09"/><polygon class="cls-4" points="1087.77 232.09 1080 243.28 1080 276.43 1087.77 265.25 1087.77 232.09"/><rect class="cls-5" x="1078.91" y="243.28" width="1.09" height="33.15"/><polygon class="cls-4" points="788.56 265.25 796.33 276.43 796.33 309.59 788.56 298.4 788.56 265.25"/><polygon class="cls-4" points="805.18 265.25 797.41 276.43 797.41 309.59 805.18 298.4 805.18 265.25"/><polygon class="cls-5" points="805.18 265.25 812.95 276.43 812.95 309.59 805.18 298.4 805.18 265.25"/><polygon class="cls-5" points="821.8 265.25 814.03 276.43 814.03 309.59 821.8 298.4 821.8 265.25"/><rect class="cls-5" x="796.32" y="276.43" width="1.09" height="33.16"/><rect class="cls-4" x="812.95" y="276.43" width="1.09" height="33.16"/><polygon class="cls-4" points="821.8 265.25 829.57 276.43 829.57 309.59 821.8 298.4 821.8 265.25"/><polygon class="cls-4" points="838.43 265.25 830.66 276.43 830.66 309.59 838.43 298.4 838.43 265.25"/><polygon class="cls-5" points="838.43 265.25 846.2 276.43 846.2 309.59 838.43 298.4 838.43 265.25"/><polygon class="cls-5" points="855.05 265.25 847.28 276.43 847.28 309.59 855.05 298.4 855.05 265.25"/><rect class="cls-5" x="829.57" y="276.43" width="1.09" height="33.16"/><rect class="cls-4" x="846.2" y="276.43" width="1.09" height="33.16"/><polygon class="cls-4" points="855.05 265.25 862.82 276.43 862.82 309.59 855.05 298.4 855.05 265.25"/><polygon class="cls-4" points="871.67 265.25 863.9 276.43 863.9 309.59 871.67 298.4 871.67 265.25"/><polygon class="cls-5" points="871.67 265.25 879.44 276.43 879.44 309.59 871.67 298.4 871.67 265.25"/><polygon class="cls-5" points="888.29 265.25 880.52 276.43 880.52 309.59 888.29 298.4 888.29 265.25"/><rect class="cls-5" x="862.82" y="276.43" width="1.09" height="33.16"/><rect class="cls-4" x="879.44" y="276.43" width="1.09" height="33.16"/><polygon class="cls-4" points="888.29 265.25 896.06 276.43 896.06 309.59 888.29 298.4 888.29 265.25"/><polygon class="cls-4" points="904.92 265.25 897.15 276.43 897.15 309.59 904.92 298.4 904.92 265.25"/><polygon class="cls-5" points="904.92 265.25 912.68 276.43 912.68 309.59 904.92 298.4 904.92 265.25"/><polygon class="cls-5" points="921.54 265.25 913.77 276.43 913.77 309.59 921.54 298.4 921.54 265.25"/><rect class="cls-5" x="896.06" y="276.43" width="1.09" height="33.16"/><rect class="cls-4" x="912.68" y="276.43" width="1.09" height="33.16"/><polygon class="cls-4" points="921.54 265.25 929.31 276.43 929.31 309.59 921.54 298.4 921.54 265.25"/><polygon class="cls-4" points="938.16 265.25 930.39 276.43 930.39 309.59 938.16 298.4 938.16 265.25"/><polygon class="cls-5" points="938.16 265.25 945.93 276.43 945.93 309.59 938.16 298.4 938.16 265.25"/><polygon class="cls-5" points="954.78 265.25 947.02 276.43 947.02 309.59 954.78 298.4 954.78 265.25"/><rect class="cls-5" x="929.31" y="276.43" width="1.09" height="33.16"/><rect class="cls-4" x="945.93" y="276.43" width="1.09" height="33.16"/><polygon class="cls-4" points="954.78 265.25 962.55 276.43 962.55 309.59 954.78 298.4 954.78 265.25"/><polygon class="cls-4" points="971.41 265.25 963.64 276.43 963.64 309.59 971.41 298.4 971.41 265.25"/><polygon class="cls-5" points="971.41 265.25 979.17 276.43 979.17 309.59 971.41 298.4 971.41 265.25"/><polygon class="cls-5" points="988.03 265.25 980.26 276.43 980.26 309.59 988.03 298.4 988.03 265.25"/><rect class="cls-5" x="962.55" y="276.43" width="1.09" height="33.16"/><rect class="cls-4" x="979.18" y="276.43" width="1.09" height="33.16"/><polygon class="cls-4" points="988.03 265.25 995.8 276.43 995.8 309.59 988.03 298.4 988.03 265.25"/><polygon class="cls-4" points="1004.65 265.25 996.88 276.43 996.88 309.59 1004.65 298.4 1004.65 265.25"/><polygon class="cls-5" points="1004.65 265.25 1012.42 276.43 1012.42 309.59 1004.65 298.4 1004.65 265.25"/><polygon class="cls-5" points="1021.27 265.25 1013.51 276.43 1013.51 309.59 1021.27 298.4 1021.27 265.25"/><rect class="cls-5" x="995.8" y="276.43" width="1.09" height="33.16"/><rect class="cls-4" x="1012.42" y="276.43" width="1.09" height="33.16"/><polygon class="cls-4" points="1021.27 265.25 1029.04 276.43 1029.04 309.59 1021.27 298.4 1021.27 265.25"/><polygon class="cls-4" points="1037.9 265.25 1030.13 276.43 1030.13 309.59 1037.9 298.4 1037.9 265.25"/><polygon class="cls-5" points="1037.9 265.25 1045.67 276.43 1045.67 309.59 1037.9 298.4 1037.9 265.25"/><polygon class="cls-5" points="1054.52 265.25 1046.75 276.43 1046.75 309.59 1054.52 298.4 1054.52 265.25"/><rect class="cls-5" x="1029.04" y="276.43" width="1.09" height="33.16"/><rect class="cls-4" x="1045.67" y="276.43" width="1.09" height="33.16"/><polygon class="cls-4" points="1054.52 265.25 1062.29 276.43 1062.29 309.59 1054.52 298.4 1054.52 265.25"/><polygon class="cls-4" points="1071.14 265.25 1063.38 276.43 1063.38 309.59 1071.14 298.4 1071.14 265.25"/><polygon class="cls-5" points="1071.14 265.25 1078.91 276.43 1078.91 309.59 1071.14 298.4 1071.14 265.25"/><polygon class="cls-5" points="1087.77 265.25 1080 276.43 1080 309.59 1087.77 298.4 1087.77 265.25"/><rect class="cls-5" x="1062.29" y="276.43" width="1.09" height="33.16"/><rect class="cls-4" x="1078.91" y="276.43" width="1.09" height="33.16"/></g></g><g class="cls-6"><g class="cls-7"><polygon class="cls-5" points="739.43 324.59 737.04 323.35 738.28 325.74 737.04 328.13 739.43 326.89 741.82 328.13 740.58 325.74 741.82 323.35 739.43 324.59"/><polygon class="cls-5" points="737.04 314.34 737.04 314.34 739.43 313.1 741.82 314.34 741.81 314.34 741.82 314.34 740.58 311.95 741.82 309.57 741.81 309.57 741.82 309.57 739.43 310.8 737.04 309.57 737.04 309.57 737.04 309.57 738.28 311.95 737.04 314.34 737.04 314.34"/><polygon class="cls-5" points="746.34 320 748.73 321.23 747.49 318.85 748.73 316.46 746.34 317.7 743.96 316.46 745.19 318.85 743.96 321.23 746.34 320"/><polygon class="cls-5" points="732.55 320 734.94 321.23 733.7 318.85 734.94 316.46 732.55 317.7 730.17 316.46 731.4 318.85 730.17 321.23 732.55 320"/><polygon class="cls-5" points="725.64 324.59 723.25 323.35 724.49 325.74 723.25 328.13 725.64 326.89 728.03 328.13 726.79 325.74 728.03 323.35 725.64 324.59"/><polygon class="cls-5" points="723.25 314.34 723.25 314.34 725.64 313.1 728.02 314.34 728.02 314.34 728.03 314.34 726.79 311.95 728.03 309.57 728.02 309.57 728.02 309.57 725.64 310.8 723.25 309.57 723.25 309.57 723.25 309.57 724.49 311.95 723.25 314.34 723.25 314.34"/><polygon class="cls-5" points="718.76 320 721.15 321.23 719.91 318.85 721.15 316.46 718.76 317.7 716.38 316.46 717.62 318.85 716.38 321.23 718.76 320"/><polygon class="cls-5" points="711.85 324.59 709.47 323.35 710.71 325.74 709.47 328.13 711.85 326.89 714.24 328.13 713 325.74 714.24 323.35 711.85 324.59"/><polygon class="cls-5" points="709.47 314.34 709.47 314.34 711.85 313.1 714.24 314.34 714.24 314.34 714.24 314.34 713 311.95 714.24 309.57 714.24 309.57 714.24 309.57 711.85 310.8 709.47 309.57 709.47 309.57 709.47 309.57 710.7 311.95 709.47 314.34 709.47 314.34"/><polygon class="cls-5" points="704.98 320 707.36 321.23 706.12 318.85 707.36 316.46 704.98 317.7 702.59 316.46 703.83 318.85 702.59 321.23 704.98 320"/><polygon class="cls-5" points="698.06 324.59 695.68 323.35 696.92 325.74 695.68 328.13 698.06 326.89 700.45 328.13 699.21 325.74 700.45 323.35 698.06 324.59"/><polygon class="cls-5" points="695.68 314.34 695.68 314.34 698.06 313.1 700.45 314.34 700.45 314.34 700.45 314.34 699.21 311.95 700.45 309.57 700.45 309.57 700.45 309.57 698.06 310.8 695.68 309.57 695.68 309.57 695.68 309.57 696.92 311.95 695.68 314.34 695.68 314.34"/><polygon class="cls-5" points="691.19 320 693.57 321.23 692.33 318.85 693.57 316.46 691.19 317.7 688.8 316.46 690.04 318.85 688.8 321.23 691.19 320"/><polygon class="cls-5" points="684.28 324.59 681.89 323.35 683.13 325.74 681.89 328.13 684.28 326.89 686.66 328.13 685.42 325.74 686.66 323.35 684.28 324.59"/><polygon class="cls-5" points="681.89 314.34 681.89 314.34 684.27 313.1 686.66 314.34 686.66 314.34 686.66 314.34 685.42 311.95 686.66 309.57 686.66 309.57 686.66 309.57 684.27 310.8 681.89 309.57 681.89 309.57 681.89 309.57 683.13 311.95 681.89 314.34 681.89 314.34"/><polygon class="cls-5" points="677.4 320 679.78 321.23 678.55 318.85 679.78 316.46 677.4 317.7 675.01 316.46 676.25 318.85 675.01 321.23 677.4 320"/><polygon class="cls-5" points="670.49 324.59 668.1 323.35 669.34 325.74 668.1 328.13 670.49 326.89 672.87 328.13 671.63 325.74 672.87 323.35 670.49 324.59"/><polygon class="cls-5" points="668.1 314.34 668.1 314.34 670.49 313.1 672.87 314.34 672.87 314.34 672.87 314.34 671.63 311.95 672.87 309.57 672.87 309.57 672.87 309.57 670.49 310.8 668.1 309.57 668.1 309.57 668.1 309.57 669.34 311.95 668.1 314.34 668.1 314.34"/><polygon class="cls-5" points="663.61 320 666 321.23 664.76 318.85 666 316.46 663.61 317.7 661.23 316.46 662.46 318.85 661.23 321.23 663.61 320"/><polygon class="cls-5" points="656.7 324.59 654.31 323.35 655.55 325.74 654.31 328.13 656.7 326.89 659.09 328.13 657.85 325.74 659.09 323.35 656.7 324.59"/><polygon class="cls-5" points="654.31 314.34 654.31 314.34 656.7 313.1 659.08 314.34 659.08 314.34 659.09 314.34 657.85 311.95 659.09 309.57 659.08 309.57 659.08 309.57 656.7 310.8 654.31 309.57 654.31 309.57 654.31 309.57 655.55 311.95 654.31 314.34 654.31 314.34"/><polygon class="cls-5" points="649.82 320 652.21 321.23 650.97 318.85 652.21 316.46 649.82 317.7 647.44 316.46 648.67 318.85 647.44 321.23 649.82 320"/><polygon class="cls-5" points="739.43 338.38 737.04 337.14 738.28 339.53 737.04 341.91 739.43 340.67 741.82 341.91 740.58 339.53 741.82 337.14 739.43 338.38"/><polygon class="cls-5" points="746.34 333.78 748.73 335.02 747.49 332.63 748.73 330.25 746.34 331.49 743.96 330.25 745.19 332.63 743.96 335.02 746.34 333.78"/><polygon class="cls-5" points="732.55 333.78 734.94 335.02 733.7 332.63 734.94 330.25 732.55 331.49 730.17 330.25 731.4 332.63 730.17 335.02 732.55 333.78"/><polygon class="cls-5" points="725.64 338.38 723.25 337.14 724.49 339.53 723.25 341.91 725.64 340.67 728.03 341.91 726.79 339.53 728.03 337.14 725.64 338.38"/><polygon class="cls-5" points="718.76 333.78 721.15 335.02 719.91 332.63 721.15 330.25 718.76 331.49 716.38 330.25 717.62 332.63 716.38 335.02 718.76 333.78"/><polygon class="cls-5" points="711.85 338.38 709.47 337.14 710.71 339.53 709.47 341.91 711.85 340.67 714.24 341.91 713 339.53 714.24 337.14 711.85 338.38"/><polygon class="cls-5" points="704.98 333.78 707.36 335.02 706.12 332.63 707.36 330.25 704.98 331.49 702.59 330.25 703.83 332.63 702.59 335.02 704.98 333.78"/><polygon class="cls-5" points="698.06 338.38 695.68 337.14 696.92 339.53 695.68 341.91 698.06 340.67 700.45 341.91 699.21 339.53 700.45 337.14 698.06 338.38"/><polygon class="cls-5" points="691.19 333.78 693.57 335.02 692.33 332.63 693.57 330.25 691.19 331.49 688.8 330.25 690.04 332.63 688.8 335.02 691.19 333.78"/><polygon class="cls-5" points="684.28 338.38 681.89 337.14 683.13 339.53 681.89 341.91 684.28 340.67 686.66 341.91 685.42 339.53 686.66 337.14 684.28 338.38"/><polygon class="cls-5" points="677.4 333.78 679.78 335.02 678.55 332.63 679.78 330.25 677.4 331.49 675.01 330.25 676.25 332.63 675.01 335.02 677.4 333.78"/><polygon class="cls-5" points="670.49 338.38 668.1 337.14 669.34 339.53 668.1 341.91 670.49 340.67 672.87 341.91 671.63 339.53 672.87 337.14 670.49 338.38"/><polygon class="cls-5" points="663.61 333.78 666 335.02 664.76 332.63 666 330.25 663.61 331.49 661.23 330.25 662.46 332.63 661.23 335.02 663.61 333.78"/><polygon class="cls-5" points="656.7 338.38 654.31 337.14 655.55 339.53 654.31 341.91 656.7 340.67 659.09 341.91 657.85 339.53 659.09 337.14 656.7 338.38"/><polygon class="cls-5" points="647.44 335.02 649.82 333.78 652.21 335.02 650.97 332.63 652.21 330.25 649.82 331.49 647.44 330.25 648.67 332.63 647.44 335.02"/><polygon class="cls-5" points="739.43 283.23 737.04 281.99 738.28 284.38 737.04 286.76 739.43 285.53 741.82 286.76 740.58 284.38 741.82 281.99 739.43 283.23"/><polygon class="cls-5" points="737.04 272.98 737.04 272.98 739.43 271.74 741.82 272.98 741.81 272.98 741.82 272.98 740.58 270.59 741.82 268.21 741.81 268.21 741.82 268.21 739.43 269.44 737.04 268.21 737.04 268.21 737.04 268.21 738.28 270.59 737.04 272.98 737.04 272.98"/><polygon class="cls-5" points="746.34 278.63 748.73 279.87 747.49 277.49 748.73 275.1 746.34 276.34 743.96 275.1 745.19 277.49 743.96 279.87 746.34 278.63"/><polygon class="cls-5" points="732.55 278.63 734.94 279.87 733.7 277.49 734.94 275.1 732.55 276.34 730.17 275.1 731.4 277.49 730.17 279.87 732.55 278.63"/><polygon class="cls-5" points="725.64 283.23 723.25 281.99 724.49 284.38 723.25 286.76 725.64 285.53 728.03 286.76 726.79 284.38 728.03 281.99 725.64 283.23"/><polygon class="cls-5" points="723.25 272.98 723.25 272.98 725.64 271.74 728.02 272.98 728.02 272.98 728.03 272.98 726.79 270.59 728.03 268.21 728.02 268.21 728.02 268.21 725.64 269.44 723.25 268.21 723.25 268.21 723.25 268.21 724.49 270.59 723.25 272.98 723.25 272.98"/><polygon class="cls-5" points="718.76 278.63 721.15 279.87 719.91 277.49 721.15 275.1 718.76 276.34 716.38 275.1 717.62 277.49 716.38 279.87 718.76 278.63"/><polygon class="cls-5" points="711.85 283.23 709.47 281.99 710.71 284.38 709.47 286.76 711.85 285.53 714.24 286.76 713 284.38 714.24 281.99 711.85 283.23"/><polygon class="cls-5" points="709.47 272.98 709.47 272.98 711.85 271.74 714.24 272.98 714.24 272.98 714.24 272.98 713 270.59 714.24 268.21 714.24 268.21 714.24 268.21 711.85 269.44 709.47 268.21 709.47 268.21 709.47 268.21 710.7 270.59 709.47 272.98 709.47 272.98"/><polygon class="cls-5" points="704.98 278.63 707.36 279.87 706.12 277.49 707.36 275.1 704.98 276.34 702.59 275.1 703.83 277.49 702.59 279.87 704.98 278.63"/><polygon class="cls-5" points="698.06 283.23 695.68 281.99 696.92 284.38 695.68 286.76 698.06 285.53 700.45 286.76 699.21 284.38 700.45 281.99 698.06 283.23"/><polygon class="cls-5" points="695.68 272.98 695.68 272.98 698.06 271.74 700.45 272.98 700.45 272.98 700.45 272.98 699.21 270.59 700.45 268.21 700.45 268.21 700.45 268.21 698.06 269.44 695.68 268.21 695.68 268.21 695.68 268.21 696.92 270.59 695.68 272.98 695.68 272.98"/><polygon class="cls-5" points="691.19 278.63 693.57 279.87 692.33 277.49 693.57 275.1 691.19 276.34 688.8 275.1 690.04 277.49 688.8 279.87 691.19 278.63"/><polygon class="cls-5" points="684.28 283.23 681.89 281.99 683.13 284.38 681.89 286.76 684.28 285.53 686.66 286.76 685.42 284.38 686.66 281.99 684.28 283.23"/><polygon class="cls-5" points="681.89 272.98 681.89 272.98 684.27 271.74 686.66 272.98 686.66 272.98 686.66 272.98 685.42 270.59 686.66 268.21 686.66 268.21 686.66 268.21 684.27 269.44 681.89 268.21 681.89 268.21 681.89 268.21 683.13 270.59 681.89 272.98 681.89 272.98"/><polygon class="cls-5" points="677.4 278.63 679.78 279.87 678.55 277.49 679.78 275.1 677.4 276.34 675.01 275.1 676.25 277.49 675.01 279.87 677.4 278.63"/><polygon class="cls-5" points="670.49 283.23 668.1 281.99 669.34 284.38 668.1 286.76 670.49 285.53 672.87 286.76 671.63 284.38 672.87 281.99 670.49 283.23"/><polygon class="cls-5" points="668.1 272.98 668.1 272.98 670.49 271.74 672.87 272.98 672.87 272.98 672.87 272.98 671.63 270.59 672.87 268.21 672.87 268.21 672.87 268.21 670.49 269.44 668.1 268.21 668.1 268.21 668.1 268.21 669.34 270.59 668.1 272.98 668.1 272.98"/><polygon class="cls-5" points="663.61 278.63 666 279.87 664.76 277.49 666 275.1 663.61 276.34 661.23 275.1 662.46 277.49 661.23 279.87 663.61 278.63"/><polygon class="cls-5" points="656.7 283.23 654.31 281.99 655.55 284.38 654.31 286.76 656.7 285.53 659.09 286.76 657.85 284.38 659.09 281.99 656.7 283.23"/><polygon class="cls-5" points="654.31 272.98 654.31 272.98 656.7 271.74 659.08 272.98 659.08 272.98 659.09 272.98 657.85 270.59 659.09 268.21 659.08 268.21 659.08 268.21 656.7 269.44 654.31 268.21 654.31 268.21 654.31 268.21 655.55 270.59 654.31 272.98 654.31 272.98"/><polygon class="cls-5" points="649.82 278.63 652.21 279.87 650.97 277.49 652.21 275.1 649.82 276.34 647.44 275.1 648.67 277.49 647.44 279.87 649.82 278.63"/><polygon class="cls-5" points="739.43 297.02 737.04 295.78 738.28 298.17 737.04 300.55 739.43 299.31 741.82 300.55 740.58 298.17 741.82 295.78 739.43 297.02"/><polygon class="cls-5" points="746.34 292.42 748.73 293.66 747.49 291.27 748.73 288.89 746.34 290.13 743.96 288.89 745.19 291.27 743.96 293.66 746.34 292.42"/><polygon class="cls-5" points="732.55 292.42 734.94 293.66 733.7 291.27 734.94 288.89 732.55 290.13 730.17 288.89 731.4 291.27 730.17 293.66 732.55 292.42"/><polygon class="cls-5" points="725.64 297.02 723.25 295.78 724.49 298.17 723.25 300.55 725.64 299.31 728.03 300.55 726.79 298.17 728.03 295.78 725.64 297.02"/><polygon class="cls-5" points="718.76 292.42 721.15 293.66 719.91 291.27 721.15 288.89 718.76 290.13 716.38 288.89 717.62 291.27 716.38 293.66 718.76 292.42"/><polygon class="cls-5" points="711.85 297.02 709.47 295.78 710.71 298.17 709.47 300.55 711.85 299.31 714.24 300.55 713 298.17 714.24 295.78 711.85 297.02"/><polygon class="cls-5" points="704.98 292.42 707.36 293.66 706.12 291.27 707.36 288.89 704.98 290.13 702.59 288.89 703.83 291.27 702.59 293.66 704.98 292.42"/><polygon class="cls-5" points="698.06 297.02 695.68 295.78 696.92 298.17 695.68 300.55 698.06 299.31 700.45 300.55 699.21 298.17 700.45 295.78 698.06 297.02"/><polygon class="cls-5" points="691.19 292.42 693.57 293.66 692.33 291.27 693.57 288.89 691.19 290.13 688.8 288.89 690.04 291.27 688.8 293.66 691.19 292.42"/><polygon class="cls-5" points="684.28 297.02 681.89 295.78 683.13 298.17 681.89 300.55 684.28 299.31 686.66 300.55 685.42 298.17 686.66 295.78 684.28 297.02"/><polygon class="cls-5" points="677.4 292.42 679.78 293.66 678.55 291.27 679.78 288.89 677.4 290.13 675.01 288.89 676.25 291.27 675.01 293.66 677.4 292.42"/><polygon class="cls-5" points="670.49 297.02 668.1 295.78 669.34 298.17 668.1 300.55 670.49 299.31 672.87 300.55 671.63 298.17 672.87 295.78 670.49 297.02"/><polygon class="cls-5" points="663.61 292.42 666 293.66 664.76 291.27 666 288.89 663.61 290.13 661.23 288.89 662.46 291.27 661.23 293.66 663.61 292.42"/><polygon class="cls-5" points="656.7 297.02 654.31 295.78 655.55 298.17 654.31 300.55 656.7 299.31 659.09 300.55 657.85 298.17 659.09 295.78 656.7 297.02"/><polygon class="cls-5" points="649.82 292.42 652.21 293.66 650.97 291.27 652.21 288.89 649.82 290.13 647.44 288.89 648.67 291.27 647.44 293.66 649.82 292.42"/><polygon class="cls-5" points="746.34 306.21 748.73 307.45 747.49 305.06 748.73 302.68 746.34 303.91 743.96 302.68 745.19 305.06 743.96 307.45 746.34 306.21"/><polygon class="cls-5" points="732.55 306.21 734.94 307.45 733.7 305.06 734.94 302.68 732.55 303.91 730.17 302.68 731.4 305.06 730.17 307.45 732.55 306.21"/><polygon class="cls-5" points="718.76 306.21 721.15 307.45 719.91 305.06 721.15 302.68 718.76 303.91 716.38 302.68 717.62 305.06 716.38 307.45 718.76 306.21"/><polygon class="cls-5" points="704.98 306.21 707.36 307.45 706.12 305.06 707.36 302.68 704.98 303.91 702.59 302.68 703.83 305.06 702.59 307.45 704.98 306.21"/><polygon class="cls-5" points="691.19 306.21 693.57 307.45 692.33 305.06 693.57 302.68 691.19 303.91 688.8 302.68 690.04 305.06 688.8 307.45 691.19 306.21"/><polygon class="cls-5" points="677.4 306.21 679.78 307.45 678.55 305.06 679.78 302.68 677.4 303.91 675.01 302.68 676.25 305.06 675.01 307.45 677.4 306.21"/><polygon class="cls-5" points="663.61 306.21 666 307.45 664.76 305.06 666 302.68 663.61 303.91 661.23 302.68 662.46 305.06 661.23 307.45 663.61 306.21"/><polygon class="cls-5" points="649.82 306.21 652.21 307.45 650.97 305.06 652.21 302.68 649.82 303.91 647.44 302.68 648.67 305.06 647.44 307.45 649.82 306.21"/><polygon class="cls-5" points="739.43 257.95 741.82 259.19 740.58 256.81 741.82 254.42 739.43 255.66 737.04 254.42 738.28 256.81 737.04 259.19 739.43 257.95"/><polygon class="cls-5" points="746.34 251.06 748.73 252.3 747.49 249.91 748.73 247.53 746.34 248.76 743.96 247.53 745.19 249.91 743.96 252.3 746.34 251.06"/><polygon class="cls-5" points="732.55 251.06 734.94 252.3 733.7 249.91 734.94 247.53 732.55 248.76 730.17 247.53 731.4 249.91 730.17 252.3 732.55 251.06"/><polygon class="cls-5" points="725.64 257.95 728.03 259.19 726.79 256.81 728.03 254.42 725.64 255.66 723.25 254.42 724.49 256.81 723.25 259.19 725.64 257.95"/><polygon class="cls-5" points="718.76 251.06 721.15 252.3 719.91 249.91 721.15 247.53 718.76 248.76 716.38 247.53 717.62 249.91 716.38 252.3 718.76 251.06"/><polygon class="cls-5" points="711.85 257.95 714.24 259.19 713 256.81 714.24 254.42 711.85 255.66 709.47 254.42 710.71 256.81 709.47 259.19 711.85 257.95"/><polygon class="cls-5" points="704.98 251.06 707.36 252.3 706.12 249.91 707.36 247.53 704.98 248.76 702.59 247.53 703.83 249.91 702.59 252.3 704.98 251.06"/><polygon class="cls-5" points="698.06 257.95 700.45 259.19 699.21 256.81 700.45 254.42 698.06 255.66 695.68 254.42 696.92 256.81 695.68 259.19 698.06 257.95"/><polygon class="cls-5" points="691.19 251.06 693.57 252.3 692.33 249.91 693.57 247.53 691.19 248.76 688.8 247.53 690.04 249.91 688.8 252.3 691.19 251.06"/><polygon class="cls-5" points="684.28 257.95 686.66 259.19 685.42 256.81 686.66 254.42 684.28 255.66 681.89 254.42 683.13 256.81 681.89 259.19 684.28 257.95"/><polygon class="cls-5" points="677.4 251.06 679.78 252.3 678.55 249.91 679.78 247.53 677.4 248.76 675.01 247.53 676.25 249.91 675.01 252.3 677.4 251.06"/><polygon class="cls-5" points="670.49 257.95 672.87 259.19 671.63 256.81 672.87 254.42 670.49 255.66 668.1 254.42 669.34 256.81 668.1 259.19 670.49 257.95"/><polygon class="cls-5" points="663.61 251.06 666 252.3 664.76 249.91 666 247.53 663.61 248.76 661.23 247.53 662.46 249.91 661.23 252.3 663.61 251.06"/><polygon class="cls-5" points="656.7 257.95 659.09 259.19 657.85 256.81 659.09 254.42 656.7 255.66 654.31 254.42 655.55 256.81 654.31 259.19 656.7 257.95"/><polygon class="cls-5" points="649.82 251.06 652.21 252.3 650.97 249.91 652.21 247.53 649.82 248.76 647.44 247.53 648.67 249.91 647.44 252.3 649.82 251.06"/><polygon class="cls-5" points="746.34 264.85 748.73 266.08 747.49 263.7 748.73 261.31 746.34 262.55 743.96 261.31 745.19 263.7 743.96 266.08 746.34 264.85"/><polygon class="cls-5" points="732.55 264.85 734.94 266.08 733.7 263.7 734.94 261.31 732.55 262.55 730.17 261.31 731.4 263.7 730.17 266.08 732.55 264.85"/><polygon class="cls-5" points="718.76 264.85 721.15 266.08 719.91 263.7 721.15 261.31 718.76 262.55 716.38 261.31 717.62 263.7 716.38 266.08 718.76 264.85"/><polygon class="cls-5" points="704.98 264.85 707.36 266.08 706.12 263.7 707.36 261.31 704.98 262.55 702.59 261.31 703.83 263.7 702.59 266.08 704.98 264.85"/><polygon class="cls-5" points="691.19 264.85 693.57 266.08 692.33 263.7 693.57 261.31 691.19 262.55 688.8 261.31 690.04 263.7 688.8 266.08 691.19 264.85"/><polygon class="cls-5" points="677.4 264.85 679.78 266.08 678.55 263.7 679.78 261.31 677.4 262.55 675.01 261.31 676.25 263.7 675.01 266.08 677.4 264.85"/><polygon class="cls-5" points="663.61 264.85 666 266.08 664.76 263.7 666 261.31 663.61 262.55 661.23 261.31 662.46 263.7 661.23 266.08 663.61 264.85"/><polygon class="cls-5" points="649.82 264.85 652.21 266.08 650.97 263.7 652.21 261.31 649.82 262.55 647.44 261.31 648.67 263.7 647.44 266.08 649.82 264.85"/></g></g><circle class="cls-8" cx="149.59" cy="221.72" r="9.1" transform="translate(-50.63 343.5) rotate(-76.72)"/><g class="cls-9"><path class="cls-10" d="M145.3,753.16h-6.13a1.39,1.39,0,0,1,0-2.77h6.13a7.53,7.53,0,1,0,0-15.06H40.57a7.53,7.53,0,0,0,0,15.06H92.93a1.39,1.39,0,1,1,0,2.77H40.57a10.3,10.3,0,1,1,0-20.59H145.3a10.3,10.3,0,0,1,0,20.59Z" transform="translate(49.94 27.13)"/><path class="cls-10" d="M139.17,753.16a1.39,1.39,0,0,1,0-2.77,7.53,7.53,0,1,0,0-15.06H46.7a7.53,7.53,0,0,0,0,15.06H92.93a1.39,1.39,0,1,1,0,2.77H46.7a10.3,10.3,0,1,1,0-20.59h92.47a10.3,10.3,0,1,1,0,20.59Z" transform="translate(49.94 27.13)"/><path class="cls-10" d="M201,788.81h-7.54a1.39,1.39,0,0,1,0-2.77H201A7.53,7.53,0,1,0,201,771H133.6a1.38,1.38,0,1,1,0-2.76H201a10.3,10.3,0,1,1,0,20.59Z" transform="translate(49.94 27.13)"/><path class="cls-10" d="M194.87,771H130.46a10.3,10.3,0,0,1,0-20.59h8.71a1.39,1.39,0,0,1,0,2.77h-8.71a7.53,7.53,0,1,0,0,15.06h64.41a1.38,1.38,0,1,1,0,2.76Z" transform="translate(49.94 27.13)"/><path class="cls-10" d="M197.61,771h-61a10.3,10.3,0,1,1,0-20.59,1.39,1.39,0,0,1,0,2.77,7.53,7.53,0,1,0,0,15.06h61a1.38,1.38,0,1,1,0,2.76Z" transform="translate(49.94 27.13)"/><path class="cls-10" d="M-32.63,806.64h-7a10.31,10.31,0,0,1-10.29-10.3A10.31,10.31,0,0,1-39.65,786H194.88a7.53,7.53,0,1,0,0-15.06H133.6a1.38,1.38,0,1,1,0-2.76h61.28a10.3,10.3,0,0,1,0,20.59H-39.65a7.54,7.54,0,0,0-7.53,7.53,7.54,7.54,0,0,0,7.53,7.53h7a1.38,1.38,0,0,1,1.38,1.38A1.38,1.38,0,0,1-32.63,806.64Z" transform="translate(49.94 27.13)"/><path class="cls-10" d="M124.69,842.38H71.25a10.3,10.3,0,1,1,0-20.59h6.18a7.53,7.53,0,1,0,0-15.06H-27.3l-6.24-.09a10.3,10.3,0,0,1-10.27-10.3A10.3,10.3,0,0,1-33.52,786H59a1.39,1.39,0,1,1,0,2.77H-33.52A7.54,7.54,0,0,0-41,796.34a7.54,7.54,0,0,0,7.53,7.53l6.24.09H77.43a10.3,10.3,0,0,1,0,20.59H71.25a7.53,7.53,0,1,0,0,15.06h53.44a1.39,1.39,0,0,1,0,2.77Z" transform="translate(49.94 27.13)"/><path class="cls-10" d="M71.3,824.55a1.38,1.38,0,1,1,0-2.76,7.53,7.53,0,1,0,0-15.06H-21.17a1.39,1.39,0,0,1-1.39-1.39A1.38,1.38,0,0,1-21.17,804H71.3a10.3,10.3,0,0,1,0,20.59Z" transform="translate(49.94 27.13)"/><path class="cls-10" d="M124.69,842.38H65.12a10.3,10.3,0,1,1,0-20.59H71.3a1.38,1.38,0,1,1,0,2.76H65.12a7.53,7.53,0,1,0,0,15.06h59.57a1.39,1.39,0,0,1,0,2.77Z" transform="translate(49.94 27.13)"/></g></g><g id="圖層_3" data-name="圖層 3"><rect class="cls-11" x="1626" y="764.1" width="399.16" height="20.98"/></g></g></svg>