<svg xmlns="http://www.w3.org/2000/svg" xmlns:xlink="http://www.w3.org/1999/xlink" viewBox="0 0 481.8 796.47"><defs><style>.cls-1{fill:none;}.cls-2{clip-path:url(#clip-path);}.cls-3{clip-path:url(#clip-path-2);}.cls-4{fill:#fff;}.cls-5{fill:#bb974a;}.cls-6{clip-path:url(#clip-path-3);}.cls-7{clip-path:url(#clip-path-4);}.cls-8{clip-path:url(#clip-path-5);}.cls-9{fill:#d5be8f;}</style><clipPath id="clip-path" transform="translate(27.44 13.6)"><circle class="cls-1" cx="374.07" cy="64.79" r="64.79" transform="translate(216.93 410.39) rotate(-75.38)"/></clipPath><clipPath id="clip-path-2" transform="translate(27.44 13.6)"><rect class="cls-1" x="304.38" y="-2.48" width="149.98" height="132.96"/></clipPath><clipPath id="clip-path-3" transform="translate(27.44 13.6)"><path class="cls-1" d="M236,133.6a22.47,22.47,0,1,1,22.47,22.47A22.47,22.47,0,0,1,236,133.6Z"/></clipPath><clipPath id="clip-path-4" transform="translate(27.44 13.6)"><rect class="cls-1" x="234.83" y="109.95" width="48.39" height="48.38"/></clipPath><clipPath id="clip-path-5" transform="translate(27.44 13.6)"><rect class="cls-1" y="692.15" width="124.76" height="110.03"/></clipPath></defs><g id="圖層_2" data-name="圖層 2"><g id="圖層_1-2" data-name="圖層 1"><g class="cls-2"><g class="cls-3"><polygon class="cls-4" points="331.82 0 335.71 5.61 335.71 22.23 331.82 16.62 331.82 0"/><polygon class="cls-4" points="340.15 0 336.26 5.61 336.26 22.23 340.15 16.62 340.15 0"/><polygon class="cls-5" points="340.15 0 344.05 5.61 344.05 22.23 340.15 16.62 340.15 0"/><polygon class="cls-5" points="348.49 0 344.59 5.61 344.59 22.23 348.49 16.62 348.49 0"/><rect class="cls-5" x="335.71" y="5.61" width="0.55" height="16.62"/><rect class="cls-4" x="344.05" y="5.61" width="0.54" height="16.62"/><polygon class="cls-5" points="331.82 16.62 335.71 22.23 335.71 38.85 331.82 33.24 331.82 16.62"/><polygon class="cls-5" points="340.15 16.62 336.26 22.23 336.26 38.85 340.15 33.24 340.15 16.62"/><rect class="cls-4" x="335.71" y="22.23" width="0.55" height="16.62"/><polygon class="cls-4" points="348.49 0 352.38 5.61 352.38 22.23 348.49 16.62 348.49 0"/><polygon class="cls-4" points="356.82 0 352.92 5.61 352.92 22.23 356.82 16.62 356.82 0"/><polygon class="cls-5" points="356.82 0 360.71 5.61 360.71 22.23 356.82 16.62 356.82 0"/><polygon class="cls-5" points="365.15 0 361.26 5.61 361.26 22.23 365.15 16.62 365.15 0"/><rect class="cls-5" x="352.38" y="5.61" width="0.54" height="16.62"/><rect class="cls-4" x="360.71" y="5.61" width="0.54" height="16.62"/><polygon class="cls-4" points="340.15 16.62 344.05 22.23 344.05 38.85 340.15 33.24 340.15 16.62"/><polygon class="cls-4" points="348.49 16.62 344.59 22.23 344.59 38.85 348.49 33.24 348.49 16.62"/><polygon class="cls-5" points="348.49 16.62 352.38 22.23 352.38 38.85 348.49 33.24 348.49 16.62"/><polygon class="cls-5" points="356.82 16.62 352.92 22.23 352.92 38.85 356.82 33.24 356.82 16.62"/><rect class="cls-5" x="344.05" y="22.23" width="0.54" height="16.62"/><rect class="cls-4" x="352.38" y="22.23" width="0.54" height="16.62"/><polygon class="cls-4" points="365.15 0 369.04 5.61 369.04 22.23 365.15 16.62 365.15 0"/><polygon class="cls-4" points="373.48 0 369.59 5.61 369.59 22.23 373.48 16.62 373.48 0"/><polygon class="cls-5" points="373.48 0 377.38 5.61 377.38 22.23 373.48 16.62 373.48 0"/><polygon class="cls-5" points="381.81 0 377.92 5.61 377.92 22.23 381.81 16.62 381.81 0"/><rect class="cls-5" x="369.04" y="5.61" width="0.55" height="16.62"/><rect class="cls-4" x="377.38" y="5.61" width="0.54" height="16.62"/><polygon class="cls-4" points="356.82 16.62 360.71 22.23 360.71 38.85 356.82 33.24 356.82 16.62"/><polygon class="cls-4" points="365.15 16.62 361.26 22.23 361.26 38.85 365.15 33.24 365.15 16.62"/><polygon class="cls-5" points="365.15 16.62 369.04 22.23 369.04 38.85 365.15 33.24 365.15 16.62"/><polygon class="cls-5" points="373.48 16.62 369.59 22.23 369.59 38.85 373.48 33.24 373.48 16.62"/><rect class="cls-5" x="360.71" y="22.23" width="0.54" height="16.62"/><rect class="cls-4" x="369.04" y="22.23" width="0.54" height="16.62"/><polygon class="cls-4" points="381.81 0 385.71 5.61 385.71 22.23 381.81 16.62 381.81 0"/><polygon class="cls-4" points="390.15 0 386.25 5.61 386.25 22.23 390.15 16.62 390.15 0"/><polygon class="cls-5" points="390.15 0 394.04 5.61 394.04 22.23 390.15 16.62 390.15 0"/><polygon class="cls-5" points="398.48 0 394.59 5.61 394.59 22.23 398.48 16.62 398.48 0"/><rect class="cls-5" x="385.71" y="5.61" width="0.54" height="16.62"/><rect class="cls-4" x="394.04" y="5.61" width="0.55" height="16.62"/><polygon class="cls-4" points="373.48 16.62 377.38 22.23 377.38 38.85 373.48 33.24 373.48 16.62"/><polygon class="cls-4" points="381.81 16.62 377.92 22.23 377.92 38.85 381.81 33.24 381.81 16.62"/><polygon class="cls-5" points="381.81 16.62 385.71 22.23 385.71 38.85 381.81 33.24 381.81 16.62"/><polygon class="cls-5" points="390.15 16.62 386.25 22.23 386.25 38.85 390.15 33.24 390.15 16.62"/><rect class="cls-5" x="377.38" y="22.23" width="0.54" height="16.62"/><rect class="cls-4" x="385.71" y="22.23" width="0.54" height="16.62"/><polygon class="cls-4" points="398.48 0 402.37 5.61 402.37 22.23 398.48 16.62 398.48 0"/><polygon class="cls-4" points="406.81 0 402.92 5.61 402.92 22.23 406.81 16.62 406.81 0"/><polygon class="cls-5" points="406.81 0 410.71 5.61 410.71 22.23 406.81 16.62 406.81 0"/><polygon class="cls-5" points="415.14 0 411.25 5.61 411.25 22.23 415.14 16.62 415.14 0"/><rect class="cls-5" x="402.37" y="5.61" width="0.54" height="16.62"/><rect class="cls-4" x="410.71" y="5.61" width="0.54" height="16.62"/><polygon class="cls-4" points="390.15 16.62 394.04 22.23 394.04 38.85 390.15 33.24 390.15 16.62"/><polygon class="cls-4" points="398.48 16.62 394.59 22.23 394.59 38.85 398.48 33.24 398.48 16.62"/><polygon class="cls-5" points="398.48 16.62 402.37 22.23 402.37 38.85 398.48 33.24 398.48 16.62"/><polygon class="cls-5" points="406.81 16.62 402.92 22.23 402.92 38.85 406.81 33.24 406.81 16.62"/><rect class="cls-5" x="394.04" y="22.23" width="0.55" height="16.62"/><rect class="cls-4" x="402.37" y="22.23" width="0.54" height="16.62"/><polygon class="cls-4" points="415.14 0 419.04 5.61 419.04 22.23 415.14 16.62 415.14 0"/><polygon class="cls-4" points="423.48 0 419.58 5.61 419.58 22.23 423.48 16.62 423.48 0"/><polygon class="cls-5" points="423.48 0 427.37 5.61 427.37 22.23 423.48 16.62 423.48 0"/><polygon class="cls-5" points="431.81 0 427.92 5.61 427.92 22.23 431.81 16.62 431.81 0"/><rect class="cls-5" x="419.04" y="5.61" width="0.55" height="16.62"/><rect class="cls-4" x="427.37" y="5.61" width="0.54" height="16.62"/><polygon class="cls-4" points="406.81 16.62 410.71 22.23 410.71 38.85 406.81 33.24 406.81 16.62"/><polygon class="cls-4" points="415.14 16.62 411.25 22.23 411.25 38.85 415.14 33.24 415.14 16.62"/><polygon class="cls-5" points="415.14 16.62 419.04 22.23 419.04 38.85 415.14 33.24 415.14 16.62"/><polygon class="cls-5" points="423.48 16.62 419.58 22.23 419.58 38.85 423.48 33.24 423.48 16.62"/><rect class="cls-5" x="410.71" y="22.23" width="0.54" height="16.62"/><rect class="cls-4" x="419.04" y="22.23" width="0.55" height="16.62"/><polygon class="cls-4" points="431.81 0 435.7 5.61 435.7 22.23 431.81 16.62 431.81 0"/><polygon class="cls-4" points="440.14 0 436.25 5.61 436.25 22.23 440.14 16.62 440.14 0"/><polygon class="cls-5" points="440.14 0 444.04 5.61 444.04 22.23 440.14 16.62 440.14 0"/><polygon class="cls-5" points="448.47 0 444.58 5.61 444.58 22.23 448.47 16.62 448.47 0"/><rect class="cls-5" x="435.7" y="5.61" width="0.54" height="16.62"/><rect class="cls-4" x="444.04" y="5.61" width="0.54" height="16.62"/><polygon class="cls-4" points="423.48 16.62 427.37 22.23 427.37 38.85 423.48 33.24 423.48 16.62"/><polygon class="cls-4" points="431.81 16.62 427.92 22.23 427.92 38.85 431.81 33.24 431.81 16.62"/><polygon class="cls-5" points="431.81 16.62 435.7 22.23 435.7 38.85 431.81 33.24 431.81 16.62"/><polygon class="cls-5" points="440.14 16.62 436.25 22.23 436.25 38.85 440.14 33.24 440.14 16.62"/><rect class="cls-5" x="427.37" y="22.23" width="0.54" height="16.62"/><rect class="cls-4" x="435.7" y="22.23" width="0.54" height="16.62"/><polygon class="cls-4" points="448.47 0 452.37 5.61 452.37 22.23 448.47 16.62 448.47 0"/><polygon class="cls-4" points="456.81 0 452.91 5.61 452.91 22.23 456.81 16.62 456.81 0"/><polygon class="cls-5" points="456.81 0 460.7 5.61 460.7 22.23 456.81 16.62 456.81 0"/><polygon class="cls-5" points="465.14 0 461.25 5.61 461.25 22.23 465.14 16.62 465.14 0"/><rect class="cls-5" x="452.37" y="5.61" width="0.54" height="16.62"/><rect class="cls-4" x="460.7" y="5.61" width="0.54" height="16.62"/><polygon class="cls-4" points="440.14 16.62 444.04 22.23 444.04 38.85 440.14 33.24 440.14 16.62"/><polygon class="cls-4" points="448.47 16.62 444.58 22.23 444.58 38.85 448.47 33.24 448.47 16.62"/><polygon class="cls-5" points="448.47 16.62 452.37 22.23 452.37 38.85 448.47 33.24 448.47 16.62"/><polygon class="cls-5" points="456.81 16.62 452.91 22.23 452.91 38.85 456.81 33.24 456.81 16.62"/><rect class="cls-5" x="444.04" y="22.23" width="0.54" height="16.62"/><rect class="cls-4" x="452.37" y="22.23" width="0.54" height="16.62"/><polygon class="cls-4" points="465.14 0 469.03 5.61 469.03 22.23 465.14 16.62 465.14 0"/><polygon class="cls-4" points="473.47 0 469.58 5.61 469.58 22.23 473.47 16.62 473.47 0"/><polygon class="cls-5" points="473.47 0 477.37 5.61 477.37 22.23 473.47 16.62 473.47 0"/><polygon class="cls-5" points="481.8 0 477.91 5.61 477.91 22.23 481.8 16.62 481.8 0"/><rect class="cls-5" x="469.03" y="5.61" width="0.54" height="16.62"/><rect class="cls-4" x="477.37" y="5.61" width="0.55" height="16.62"/><polygon class="cls-4" points="456.81 16.62 460.7 22.23 460.7 38.85 456.81 33.24 456.81 16.62"/><polygon class="cls-4" points="465.14 16.62 461.25 22.23 461.25 38.85 465.14 33.24 465.14 16.62"/><polygon class="cls-5" points="465.14 16.62 469.03 22.23 469.03 38.85 465.14 33.24 465.14 16.62"/><polygon class="cls-5" points="473.47 16.62 469.58 22.23 469.58 38.85 473.47 33.24 473.47 16.62"/><rect class="cls-5" x="460.7" y="22.23" width="0.54" height="16.62"/><rect class="cls-4" x="469.03" y="22.23" width="0.54" height="16.62"/><polygon class="cls-4" points="473.47 16.62 477.37 22.23 477.37 38.85 473.47 33.24 473.47 16.62"/><polygon class="cls-4" points="481.8 16.62 477.91 22.23 477.91 38.85 481.8 33.24 481.8 16.62"/><rect class="cls-5" x="477.37" y="22.23" width="0.55" height="16.62"/><polygon class="cls-4" points="331.82 33.24 335.71 38.85 335.71 55.47 331.82 49.86 331.82 33.24"/><polygon class="cls-4" points="340.15 33.24 336.26 38.85 336.26 55.47 340.15 49.86 340.15 33.24"/><polygon class="cls-5" points="340.15 33.24 344.05 38.85 344.05 55.47 340.15 49.86 340.15 33.24"/><polygon class="cls-5" points="348.49 33.24 344.59 38.85 344.59 55.47 348.49 49.86 348.49 33.24"/><rect class="cls-5" x="335.71" y="38.85" width="0.55" height="16.62"/><rect class="cls-4" x="344.05" y="38.85" width="0.54" height="16.62"/><polygon class="cls-5" points="331.82 49.86 335.71 55.47 335.71 72.09 331.82 66.48 331.82 49.86"/><polygon class="cls-5" points="340.15 49.86 336.26 55.47 336.26 72.09 340.15 66.48 340.15 49.86"/><rect class="cls-4" x="335.71" y="55.47" width="0.55" height="16.62"/><polygon class="cls-4" points="348.49 33.24 352.38 38.85 352.38 55.47 348.49 49.86 348.49 33.24"/><polygon class="cls-4" points="356.82 33.24 352.92 38.85 352.92 55.47 356.82 49.86 356.82 33.24"/><polygon class="cls-5" points="356.82 33.24 360.71 38.85 360.71 55.47 356.82 49.86 356.82 33.24"/><polygon class="cls-5" points="365.15 33.24 361.26 38.85 361.26 55.47 365.15 49.86 365.15 33.24"/><rect class="cls-5" x="352.38" y="38.85" width="0.54" height="16.62"/><rect class="cls-4" x="360.71" y="38.85" width="0.54" height="16.62"/><polygon class="cls-4" points="340.15 49.86 344.05 55.47 344.05 72.09 340.15 66.48 340.15 49.86"/><polygon class="cls-4" points="348.49 49.86 344.59 55.47 344.59 72.09 348.49 66.48 348.49 49.86"/><polygon class="cls-5" points="348.49 49.86 352.38 55.47 352.38 72.09 348.49 66.48 348.49 49.86"/><polygon class="cls-5" points="356.82 49.86 352.92 55.47 352.92 72.09 356.82 66.48 356.82 49.86"/><rect class="cls-5" x="344.05" y="55.47" width="0.54" height="16.62"/><rect class="cls-4" x="352.38" y="55.47" width="0.54" height="16.62"/><polygon class="cls-4" points="365.15 33.24 369.04 38.85 369.04 55.47 365.15 49.86 365.15 33.24"/><polygon class="cls-4" points="373.48 33.24 369.59 38.85 369.59 55.47 373.48 49.86 373.48 33.24"/><polygon class="cls-5" points="373.48 33.24 377.38 38.85 377.38 55.47 373.48 49.86 373.48 33.24"/><polygon class="cls-5" points="381.81 33.24 377.92 38.85 377.92 55.47 381.81 49.86 381.81 33.24"/><rect class="cls-5" x="369.04" y="38.85" width="0.55" height="16.62"/><rect class="cls-4" x="377.38" y="38.85" width="0.54" height="16.62"/><polygon class="cls-4" points="356.82 49.86 360.71 55.47 360.71 72.09 356.82 66.48 356.82 49.86"/><polygon class="cls-4" points="365.15 49.86 361.26 55.47 361.26 72.09 365.15 66.48 365.15 49.86"/><polygon class="cls-5" points="365.15 49.86 369.04 55.47 369.04 72.09 365.15 66.48 365.15 49.86"/><polygon class="cls-5" points="373.48 49.86 369.59 55.47 369.59 72.09 373.48 66.48 373.48 49.86"/><rect class="cls-5" x="360.71" y="55.47" width="0.54" height="16.62"/><rect class="cls-4" x="369.04" y="55.47" width="0.54" height="16.62"/><polygon class="cls-4" points="381.81 33.24 385.71 38.85 385.71 55.47 381.81 49.86 381.81 33.24"/><polygon class="cls-4" points="390.15 33.24 386.25 38.85 386.25 55.47 390.15 49.86 390.15 33.24"/><polygon class="cls-5" points="390.15 33.24 394.04 38.85 394.04 55.47 390.15 49.86 390.15 33.24"/><polygon class="cls-5" points="398.48 33.24 394.59 38.85 394.59 55.47 398.48 49.86 398.48 33.24"/><rect class="cls-5" x="385.71" y="38.85" width="0.54" height="16.62"/><rect class="cls-4" x="394.04" y="38.85" width="0.55" height="16.62"/><polygon class="cls-4" points="373.48 49.86 377.38 55.47 377.38 72.09 373.48 66.48 373.48 49.86"/><polygon class="cls-4" points="381.81 49.86 377.92 55.47 377.92 72.09 381.81 66.48 381.81 49.86"/><polygon class="cls-5" points="381.81 49.86 385.71 55.47 385.71 72.09 381.81 66.48 381.81 49.86"/><polygon class="cls-5" points="390.15 49.86 386.25 55.47 386.25 72.09 390.15 66.48 390.15 49.86"/><rect class="cls-5" x="377.38" y="55.47" width="0.54" height="16.62"/><rect class="cls-4" x="385.71" y="55.47" width="0.54" height="16.62"/><polygon class="cls-4" points="398.48 33.24 402.37 38.85 402.37 55.47 398.48 49.86 398.48 33.24"/><polygon class="cls-4" points="406.81 33.24 402.92 38.85 402.92 55.47 406.81 49.86 406.81 33.24"/><polygon class="cls-5" points="406.81 33.24 410.71 38.85 410.71 55.47 406.81 49.86 406.81 33.24"/><polygon class="cls-5" points="415.14 33.24 411.25 38.85 411.25 55.47 415.14 49.86 415.14 33.24"/><rect class="cls-5" x="402.37" y="38.85" width="0.54" height="16.62"/><rect class="cls-4" x="410.71" y="38.85" width="0.54" height="16.62"/><polygon class="cls-4" points="390.15 49.86 394.04 55.47 394.04 72.09 390.15 66.48 390.15 49.86"/><polygon class="cls-4" points="398.48 49.86 394.59 55.47 394.59 72.09 398.48 66.48 398.48 49.86"/><polygon class="cls-5" points="398.48 49.86 402.37 55.47 402.37 72.09 398.48 66.48 398.48 49.86"/><polygon class="cls-5" points="406.81 49.86 402.92 55.47 402.92 72.09 406.81 66.48 406.81 49.86"/><rect class="cls-5" x="394.04" y="55.47" width="0.55" height="16.62"/><rect class="cls-4" x="402.37" y="55.47" width="0.54" height="16.62"/><polygon class="cls-4" points="415.14 33.24 419.04 38.85 419.04 55.47 415.14 49.86 415.14 33.24"/><polygon class="cls-4" points="423.48 33.24 419.58 38.85 419.58 55.47 423.48 49.86 423.48 33.24"/><polygon class="cls-5" points="423.48 33.24 427.37 38.85 427.37 55.47 423.48 49.86 423.48 33.24"/><polygon class="cls-5" points="431.81 33.24 427.92 38.85 427.92 55.47 431.81 49.86 431.81 33.24"/><rect class="cls-5" x="419.04" y="38.85" width="0.55" height="16.62"/><rect class="cls-4" x="427.37" y="38.85" width="0.54" height="16.62"/><polygon class="cls-4" points="406.81 49.86 410.71 55.47 410.71 72.09 406.81 66.48 406.81 49.86"/><polygon class="cls-4" points="415.14 49.86 411.25 55.47 411.25 72.09 415.14 66.48 415.14 49.86"/><polygon class="cls-5" points="415.14 49.86 419.04 55.47 419.04 72.09 415.14 66.48 415.14 49.86"/><polygon class="cls-5" points="423.48 49.86 419.58 55.47 419.58 72.09 423.48 66.48 423.48 49.86"/><rect class="cls-5" x="410.71" y="55.47" width="0.54" height="16.62"/><rect class="cls-4" x="419.04" y="55.47" width="0.55" height="16.62"/><polygon class="cls-4" points="431.81 33.24 435.7 38.85 435.7 55.47 431.81 49.86 431.81 33.24"/><polygon class="cls-4" points="440.14 33.24 436.25 38.85 436.25 55.47 440.14 49.86 440.14 33.24"/><polygon class="cls-5" points="440.14 33.24 444.04 38.85 444.04 55.47 440.14 49.86 440.14 33.24"/><polygon class="cls-5" points="448.47 33.24 444.58 38.85 444.58 55.47 448.47 49.86 448.47 33.24"/><rect class="cls-5" x="435.7" y="38.85" width="0.54" height="16.62"/><rect class="cls-4" x="444.04" y="38.85" width="0.54" height="16.62"/><polygon class="cls-4" points="423.48 49.86 427.37 55.47 427.37 72.09 423.48 66.48 423.48 49.86"/><polygon class="cls-4" points="431.81 49.86 427.92 55.47 427.92 72.09 431.81 66.48 431.81 49.86"/><polygon class="cls-5" points="431.81 49.86 435.7 55.47 435.7 72.09 431.81 66.48 431.81 49.86"/><polygon class="cls-5" points="440.14 49.86 436.25 55.47 436.25 72.09 440.14 66.48 440.14 49.86"/><rect class="cls-5" x="427.37" y="55.47" width="0.54" height="16.62"/><rect class="cls-4" x="435.7" y="55.47" width="0.54" height="16.62"/><polygon class="cls-4" points="448.47 33.24 452.37 38.85 452.37 55.47 448.47 49.86 448.47 33.24"/><polygon class="cls-4" points="456.81 33.24 452.91 38.85 452.91 55.47 456.81 49.86 456.81 33.24"/><polygon class="cls-5" points="456.81 33.24 460.7 38.85 460.7 55.47 456.81 49.86 456.81 33.24"/><polygon class="cls-5" points="465.14 33.24 461.25 38.85 461.25 55.47 465.14 49.86 465.14 33.24"/><rect class="cls-5" x="452.37" y="38.85" width="0.54" height="16.62"/><rect class="cls-4" x="460.7" y="38.85" width="0.54" height="16.62"/><polygon class="cls-4" points="440.14 49.86 444.04 55.47 444.04 72.09 440.14 66.48 440.14 49.86"/><polygon class="cls-4" points="448.47 49.86 444.58 55.47 444.58 72.09 448.47 66.48 448.47 49.86"/><polygon class="cls-5" points="448.47 49.86 452.37 55.47 452.37 72.09 448.47 66.48 448.47 49.86"/><polygon class="cls-5" points="456.81 49.86 452.91 55.47 452.91 72.09 456.81 66.48 456.81 49.86"/><rect class="cls-5" x="444.04" y="55.47" width="0.54" height="16.62"/><rect class="cls-4" x="452.37" y="55.47" width="0.54" height="16.62"/><polygon class="cls-4" points="465.14 33.24 469.03 38.85 469.03 55.47 465.14 49.86 465.14 33.24"/><polygon class="cls-4" points="473.47 33.24 469.58 38.85 469.58 55.47 473.47 49.86 473.47 33.24"/><polygon class="cls-5" points="473.47 33.24 477.37 38.85 477.37 55.47 473.47 49.86 473.47 33.24"/><polygon class="cls-5" points="481.8 33.24 477.91 38.85 477.91 55.47 481.8 49.86 481.8 33.24"/><rect class="cls-5" x="469.03" y="38.85" width="0.54" height="16.62"/><rect class="cls-4" x="477.37" y="38.85" width="0.55" height="16.62"/><polygon class="cls-4" points="456.81 49.86 460.7 55.47 460.7 72.09 456.81 66.48 456.81 49.86"/><polygon class="cls-4" points="465.14 49.86 461.25 55.47 461.25 72.09 465.14 66.48 465.14 49.86"/><polygon class="cls-5" points="465.14 49.86 469.03 55.47 469.03 72.09 465.14 66.48 465.14 49.86"/><polygon class="cls-5" points="473.47 49.86 469.58 55.47 469.58 72.09 473.47 66.48 473.47 49.86"/><rect class="cls-5" x="460.7" y="55.47" width="0.54" height="16.62"/><rect class="cls-4" x="469.03" y="55.47" width="0.54" height="16.62"/><polygon class="cls-4" points="473.47 49.86 477.37 55.47 477.37 72.09 473.47 66.48 473.47 49.86"/><polygon class="cls-4" points="481.8 49.86 477.91 55.47 477.91 72.09 481.8 66.48 481.8 49.86"/><rect class="cls-5" x="477.37" y="55.47" width="0.55" height="16.62"/><polygon class="cls-4" points="331.82 66.48 335.71 72.09 335.71 88.71 331.82 83.1 331.82 66.48"/><polygon class="cls-4" points="340.15 66.48 336.26 72.09 336.26 88.71 340.15 83.1 340.15 66.48"/><polygon class="cls-5" points="340.15 66.48 344.05 72.09 344.05 88.71 340.15 83.1 340.15 66.48"/><polygon class="cls-5" points="348.49 66.48 344.59 72.09 344.59 88.71 348.49 83.1 348.49 66.48"/><rect class="cls-5" x="335.71" y="72.09" width="0.55" height="16.62"/><rect class="cls-4" x="344.05" y="72.09" width="0.54" height="16.62"/><polygon class="cls-5" points="331.82 83.1 335.71 88.71 335.71 105.33 331.82 99.72 331.82 83.1"/><polygon class="cls-5" points="340.15 83.1 336.26 88.71 336.26 105.33 340.15 99.72 340.15 83.1"/><rect class="cls-4" x="335.71" y="88.71" width="0.55" height="16.62"/><polygon class="cls-4" points="348.49 66.48 352.38 72.09 352.38 88.71 348.49 83.1 348.49 66.48"/><polygon class="cls-4" points="356.82 66.48 352.92 72.09 352.92 88.71 356.82 83.1 356.82 66.48"/><polygon class="cls-5" points="356.82 66.48 360.71 72.09 360.71 88.71 356.82 83.1 356.82 66.48"/><polygon class="cls-5" points="365.15 66.48 361.26 72.09 361.26 88.71 365.15 83.1 365.15 66.48"/><rect class="cls-5" x="352.38" y="72.09" width="0.54" height="16.62"/><rect class="cls-4" x="360.71" y="72.09" width="0.54" height="16.62"/><polygon class="cls-4" points="340.15 83.1 344.05 88.71 344.05 105.33 340.15 99.72 340.15 83.1"/><polygon class="cls-4" points="348.49 83.1 344.59 88.71 344.59 105.33 348.49 99.72 348.49 83.1"/><polygon class="cls-5" points="348.49 83.1 352.38 88.71 352.38 105.33 348.49 99.72 348.49 83.1"/><polygon class="cls-5" points="356.82 83.1 352.92 88.71 352.92 105.33 356.82 99.72 356.82 83.1"/><rect class="cls-5" x="344.05" y="88.71" width="0.54" height="16.62"/><rect class="cls-4" x="352.38" y="88.71" width="0.54" height="16.62"/><polygon class="cls-4" points="365.15 66.48 369.04 72.09 369.04 88.71 365.15 83.1 365.15 66.48"/><polygon class="cls-4" points="373.48 66.48 369.59 72.09 369.59 88.71 373.48 83.1 373.48 66.48"/><polygon class="cls-5" points="373.48 66.48 377.38 72.09 377.38 88.71 373.48 83.1 373.48 66.48"/><polygon class="cls-5" points="381.81 66.48 377.92 72.09 377.92 88.71 381.81 83.1 381.81 66.48"/><rect class="cls-5" x="369.04" y="72.09" width="0.55" height="16.62"/><rect class="cls-4" x="377.38" y="72.09" width="0.54" height="16.62"/><polygon class="cls-4" points="356.82 83.1 360.71 88.71 360.71 105.33 356.82 99.72 356.82 83.1"/><polygon class="cls-4" points="365.15 83.1 361.26 88.71 361.26 105.33 365.15 99.72 365.15 83.1"/><polygon class="cls-5" points="365.15 83.1 369.04 88.71 369.04 105.33 365.15 99.72 365.15 83.1"/><polygon class="cls-5" points="373.48 83.1 369.59 88.71 369.59 105.33 373.48 99.72 373.48 83.1"/><rect class="cls-5" x="360.71" y="88.71" width="0.54" height="16.62"/><rect class="cls-4" x="369.04" y="88.71" width="0.54" height="16.62"/><polygon class="cls-4" points="381.81 66.48 385.71 72.09 385.71 88.71 381.81 83.1 381.81 66.48"/><polygon class="cls-4" points="390.15 66.48 386.25 72.09 386.25 88.71 390.15 83.1 390.15 66.48"/><polygon class="cls-5" points="390.15 66.48 394.04 72.09 394.04 88.71 390.15 83.1 390.15 66.48"/><polygon class="cls-5" points="398.48 66.48 394.59 72.09 394.59 88.71 398.48 83.1 398.48 66.48"/><rect class="cls-5" x="385.71" y="72.09" width="0.54" height="16.62"/><rect class="cls-4" x="394.04" y="72.09" width="0.55" height="16.62"/><polygon class="cls-4" points="373.48 83.1 377.38 88.71 377.38 105.33 373.48 99.72 373.48 83.1"/><polygon class="cls-4" points="381.81 83.1 377.92 88.71 377.92 105.33 381.81 99.72 381.81 83.1"/><polygon class="cls-5" points="381.81 83.1 385.71 88.71 385.71 105.33 381.81 99.72 381.81 83.1"/><polygon class="cls-5" points="390.15 83.1 386.25 88.71 386.25 105.33 390.15 99.72 390.15 83.1"/><rect class="cls-5" x="377.38" y="88.71" width="0.54" height="16.62"/><rect class="cls-4" x="385.71" y="88.71" width="0.54" height="16.62"/><polygon class="cls-4" points="398.48 66.48 402.37 72.09 402.37 88.71 398.48 83.1 398.48 66.48"/><polygon class="cls-4" points="406.81 66.48 402.92 72.09 402.92 88.71 406.81 83.1 406.81 66.48"/><polygon class="cls-5" points="406.81 66.48 410.71 72.09 410.71 88.71 406.81 83.1 406.81 66.48"/><polygon class="cls-5" points="415.14 66.48 411.25 72.09 411.25 88.71 415.14 83.1 415.14 66.48"/><rect class="cls-5" x="402.37" y="72.09" width="0.54" height="16.62"/><rect class="cls-4" x="410.71" y="72.09" width="0.54" height="16.62"/><polygon class="cls-4" points="390.15 83.1 394.04 88.71 394.04 105.33 390.15 99.72 390.15 83.1"/><polygon class="cls-4" points="398.48 83.1 394.59 88.71 394.59 105.33 398.48 99.72 398.48 83.1"/><polygon class="cls-5" points="398.48 83.1 402.37 88.71 402.37 105.33 398.48 99.72 398.48 83.1"/><polygon class="cls-5" points="406.81 83.1 402.92 88.71 402.92 105.33 406.81 99.72 406.81 83.1"/><rect class="cls-5" x="394.04" y="88.71" width="0.55" height="16.62"/><rect class="cls-4" x="402.37" y="88.71" width="0.54" height="16.62"/><polygon class="cls-4" points="415.14 66.48 419.04 72.09 419.04 88.71 415.14 83.1 415.14 66.48"/><polygon class="cls-4" points="423.48 66.48 419.58 72.09 419.58 88.71 423.48 83.1 423.48 66.48"/><polygon class="cls-5" points="423.48 66.48 427.37 72.09 427.37 88.71 423.48 83.1 423.48 66.48"/><polygon class="cls-5" points="431.81 66.48 427.92 72.09 427.92 88.71 431.81 83.1 431.81 66.48"/><rect class="cls-5" x="419.04" y="72.09" width="0.55" height="16.62"/><rect class="cls-4" x="427.37" y="72.09" width="0.54" height="16.62"/><polygon class="cls-4" points="406.81 83.1 410.71 88.71 410.71 105.33 406.81 99.72 406.81 83.1"/><polygon class="cls-4" points="415.14 83.1 411.25 88.71 411.25 105.33 415.14 99.72 415.14 83.1"/><polygon class="cls-5" points="415.14 83.1 419.04 88.71 419.04 105.33 415.14 99.72 415.14 83.1"/><polygon class="cls-5" points="423.48 83.1 419.58 88.71 419.58 105.33 423.48 99.72 423.48 83.1"/><rect class="cls-5" x="410.71" y="88.71" width="0.54" height="16.62"/><rect class="cls-4" x="419.04" y="88.71" width="0.55" height="16.62"/><polygon class="cls-4" points="431.81 66.48 435.7 72.09 435.7 88.71 431.81 83.1 431.81 66.48"/><polygon class="cls-4" points="440.14 66.48 436.25 72.09 436.25 88.71 440.14 83.1 440.14 66.48"/><polygon class="cls-5" points="440.14 66.48 444.04 72.09 444.04 88.71 440.14 83.1 440.14 66.48"/><polygon class="cls-5" points="448.47 66.48 444.58 72.09 444.58 88.71 448.47 83.1 448.47 66.48"/><rect class="cls-5" x="435.7" y="72.09" width="0.54" height="16.62"/><rect class="cls-4" x="444.04" y="72.09" width="0.54" height="16.62"/><polygon class="cls-4" points="423.48 83.1 427.37 88.71 427.37 105.33 423.48 99.72 423.48 83.1"/><polygon class="cls-4" points="431.81 83.1 427.92 88.71 427.92 105.33 431.81 99.72 431.81 83.1"/><polygon class="cls-5" points="431.81 83.1 435.7 88.71 435.7 105.33 431.81 99.72 431.81 83.1"/><polygon class="cls-5" points="440.14 83.1 436.25 88.71 436.25 105.33 440.14 99.72 440.14 83.1"/><rect class="cls-5" x="427.37" y="88.71" width="0.54" height="16.62"/><rect class="cls-4" x="435.7" y="88.71" width="0.54" height="16.62"/><polygon class="cls-4" points="448.47 66.48 452.37 72.09 452.37 88.71 448.47 83.1 448.47 66.48"/><polygon class="cls-4" points="456.81 66.48 452.91 72.09 452.91 88.71 456.81 83.1 456.81 66.48"/><polygon class="cls-5" points="456.81 66.48 460.7 72.09 460.7 88.71 456.81 83.1 456.81 66.48"/><polygon class="cls-5" points="465.14 66.48 461.25 72.09 461.25 88.71 465.14 83.1 465.14 66.48"/><rect class="cls-5" x="452.37" y="72.09" width="0.54" height="16.62"/><rect class="cls-4" x="460.7" y="72.09" width="0.54" height="16.62"/><polygon class="cls-4" points="440.14 83.1 444.04 88.71 444.04 105.33 440.14 99.72 440.14 83.1"/><polygon class="cls-4" points="448.47 83.1 444.58 88.71 444.58 105.33 448.47 99.72 448.47 83.1"/><polygon class="cls-5" points="448.47 83.1 452.37 88.71 452.37 105.33 448.47 99.72 448.47 83.1"/><polygon class="cls-5" points="456.81 83.1 452.91 88.71 452.91 105.33 456.81 99.72 456.81 83.1"/><rect class="cls-5" x="444.04" y="88.71" width="0.54" height="16.62"/><rect class="cls-4" x="452.37" y="88.71" width="0.54" height="16.62"/><polygon class="cls-4" points="465.14 66.48 469.03 72.09 469.03 88.71 465.14 83.1 465.14 66.48"/><polygon class="cls-4" points="473.47 66.48 469.58 72.09 469.58 88.71 473.47 83.1 473.47 66.48"/><polygon class="cls-5" points="473.47 66.48 477.37 72.09 477.37 88.71 473.47 83.1 473.47 66.48"/><polygon class="cls-5" points="481.8 66.48 477.91 72.09 477.91 88.71 481.8 83.1 481.8 66.48"/><rect class="cls-5" x="469.03" y="72.09" width="0.54" height="16.62"/><rect class="cls-4" x="477.37" y="72.09" width="0.55" height="16.62"/><polygon class="cls-4" points="456.81 83.1 460.7 88.71 460.7 105.33 456.81 99.72 456.81 83.1"/><polygon class="cls-4" points="465.14 83.1 461.25 88.71 461.25 105.33 465.14 99.72 465.14 83.1"/><polygon class="cls-5" points="465.14 83.1 469.03 88.71 469.03 105.33 465.14 99.72 465.14 83.1"/><polygon class="cls-5" points="473.47 83.1 469.58 88.71 469.58 105.33 473.47 99.72 473.47 83.1"/><rect class="cls-5" x="460.7" y="88.71" width="0.54" height="16.62"/><rect class="cls-4" x="469.03" y="88.71" width="0.54" height="16.62"/><polygon class="cls-4" points="473.47 83.1 477.37 88.71 477.37 105.33 473.47 99.72 473.47 83.1"/><polygon class="cls-4" points="481.8 83.1 477.91 88.71 477.91 105.33 481.8 99.72 481.8 83.1"/><rect class="cls-5" x="477.37" y="88.71" width="0.55" height="16.62"/><polygon class="cls-4" points="331.82 99.72 335.71 105.33 335.71 121.95 331.82 116.34 331.82 99.72"/><polygon class="cls-4" points="340.15 99.72 336.26 105.33 336.26 121.95 340.15 116.34 340.15 99.72"/><polygon class="cls-5" points="340.15 99.72 344.05 105.33 344.05 121.95 340.15 116.34 340.15 99.72"/><polygon class="cls-5" points="348.49 99.72 344.59 105.33 344.59 121.95 348.49 116.34 348.49 99.72"/><rect class="cls-5" x="335.71" y="105.33" width="0.55" height="16.62"/><rect class="cls-4" x="344.05" y="105.33" width="0.54" height="16.62"/><polygon class="cls-5" points="331.82 116.34 335.71 121.95 335.71 138.57 331.82 132.96 331.82 116.34"/><polygon class="cls-5" points="340.15 116.34 336.26 121.95 336.26 138.57 340.15 132.96 340.15 116.34"/><rect class="cls-4" x="335.71" y="121.95" width="0.55" height="16.62"/><polygon class="cls-4" points="348.49 99.72 352.38 105.33 352.38 121.95 348.49 116.34 348.49 99.72"/><polygon class="cls-4" points="356.82 99.72 352.92 105.33 352.92 121.95 356.82 116.34 356.82 99.72"/><polygon class="cls-5" points="356.82 99.72 360.71 105.33 360.71 121.95 356.82 116.34 356.82 99.72"/><polygon class="cls-5" points="365.15 99.72 361.26 105.33 361.26 121.95 365.15 116.34 365.15 99.72"/><rect class="cls-5" x="352.38" y="105.33" width="0.54" height="16.62"/><rect class="cls-4" x="360.71" y="105.33" width="0.54" height="16.62"/><polygon class="cls-4" points="340.15 116.34 344.05 121.95 344.05 138.57 340.15 132.96 340.15 116.34"/><polygon class="cls-4" points="348.49 116.34 344.59 121.95 344.59 138.57 348.49 132.96 348.49 116.34"/><polygon class="cls-5" points="348.49 116.34 352.38 121.95 352.38 138.57 348.49 132.96 348.49 116.34"/><polygon class="cls-5" points="356.82 116.34 352.92 121.95 352.92 138.57 356.82 132.96 356.82 116.34"/><rect class="cls-5" x="344.05" y="121.95" width="0.54" height="16.62"/><rect class="cls-4" x="352.38" y="121.95" width="0.54" height="16.62"/><polygon class="cls-4" points="365.15 99.72 369.04 105.33 369.04 121.95 365.15 116.34 365.15 99.72"/><polygon class="cls-4" points="373.48 99.72 369.59 105.33 369.59 121.95 373.48 116.34 373.48 99.72"/><polygon class="cls-5" points="373.48 99.72 377.38 105.33 377.38 121.95 373.48 116.34 373.48 99.72"/><polygon class="cls-5" points="381.81 99.72 377.92 105.33 377.92 121.95 381.81 116.34 381.81 99.72"/><rect class="cls-5" x="369.04" y="105.33" width="0.55" height="16.62"/><rect class="cls-4" x="377.38" y="105.33" width="0.54" height="16.62"/><polygon class="cls-4" points="356.82 116.34 360.71 121.95 360.71 138.57 356.82 132.96 356.82 116.34"/><polygon class="cls-4" points="365.15 116.34 361.26 121.95 361.26 138.57 365.15 132.96 365.15 116.34"/><polygon class="cls-5" points="365.15 116.34 369.04 121.95 369.04 138.57 365.15 132.96 365.15 116.34"/><polygon class="cls-5" points="373.48 116.34 369.59 121.95 369.59 138.57 373.48 132.96 373.48 116.34"/><rect class="cls-5" x="360.71" y="121.95" width="0.54" height="16.62"/><rect class="cls-4" x="369.04" y="121.95" width="0.54" height="16.62"/><polygon class="cls-4" points="381.81 99.72 385.71 105.33 385.71 121.95 381.81 116.34 381.81 99.72"/><polygon class="cls-4" points="390.15 99.72 386.25 105.33 386.25 121.95 390.15 116.34 390.15 99.72"/><polygon class="cls-5" points="390.15 99.72 394.04 105.33 394.04 121.95 390.15 116.34 390.15 99.72"/><polygon class="cls-5" points="398.48 99.72 394.59 105.33 394.59 121.95 398.48 116.34 398.48 99.72"/><rect class="cls-5" x="385.71" y="105.33" width="0.54" height="16.62"/><rect class="cls-4" x="394.04" y="105.33" width="0.55" height="16.62"/><polygon class="cls-4" points="373.48 116.34 377.38 121.95 377.38 138.57 373.48 132.96 373.48 116.34"/><polygon class="cls-4" points="381.81 116.34 377.92 121.95 377.92 138.57 381.81 132.96 381.81 116.34"/><polygon class="cls-5" points="381.81 116.34 385.71 121.95 385.71 138.57 381.81 132.96 381.81 116.34"/><polygon class="cls-5" points="390.15 116.34 386.25 121.95 386.25 138.57 390.15 132.96 390.15 116.34"/><rect class="cls-5" x="377.38" y="121.95" width="0.54" height="16.62"/><rect class="cls-4" x="385.71" y="121.95" width="0.54" height="16.62"/><polygon class="cls-4" points="398.48 99.72 402.37 105.33 402.37 121.95 398.48 116.34 398.48 99.72"/><polygon class="cls-4" points="406.81 99.72 402.92 105.33 402.92 121.95 406.81 116.34 406.81 99.72"/><polygon class="cls-5" points="406.81 99.72 410.71 105.33 410.71 121.95 406.81 116.34 406.81 99.72"/><polygon class="cls-5" points="415.14 99.72 411.25 105.33 411.25 121.95 415.14 116.34 415.14 99.72"/><rect class="cls-5" x="402.37" y="105.33" width="0.54" height="16.62"/><rect class="cls-4" x="410.71" y="105.33" width="0.54" height="16.62"/><polygon class="cls-4" points="390.15 116.34 394.04 121.95 394.04 138.57 390.15 132.96 390.15 116.34"/><polygon class="cls-4" points="398.48 116.34 394.59 121.95 394.59 138.57 398.48 132.96 398.48 116.34"/><polygon class="cls-5" points="398.48 116.34 402.37 121.95 402.37 138.57 398.48 132.96 398.48 116.34"/><polygon class="cls-5" points="406.81 116.34 402.92 121.95 402.92 138.57 406.81 132.96 406.81 116.34"/><rect class="cls-5" x="394.04" y="121.95" width="0.55" height="16.62"/><rect class="cls-4" x="402.37" y="121.95" width="0.54" height="16.62"/><polygon class="cls-4" points="415.14 99.72 419.04 105.33 419.04 121.95 415.14 116.34 415.14 99.72"/><polygon class="cls-4" points="423.48 99.72 419.58 105.33 419.58 121.95 423.48 116.34 423.48 99.72"/><polygon class="cls-5" points="423.48 99.72 427.37 105.33 427.37 121.95 423.48 116.34 423.48 99.72"/><polygon class="cls-5" points="431.81 99.72 427.92 105.33 427.92 121.95 431.81 116.34 431.81 99.72"/><rect class="cls-5" x="419.04" y="105.33" width="0.55" height="16.62"/><rect class="cls-4" x="427.37" y="105.33" width="0.54" height="16.62"/><polygon class="cls-4" points="406.81 116.34 410.71 121.95 410.71 138.57 406.81 132.96 406.81 116.34"/><polygon class="cls-4" points="415.14 116.34 411.25 121.95 411.25 138.57 415.14 132.96 415.14 116.34"/><polygon class="cls-5" points="415.14 116.34 419.04 121.95 419.04 138.57 415.14 132.96 415.14 116.34"/><polygon class="cls-5" points="423.48 116.34 419.58 121.95 419.58 138.57 423.48 132.96 423.48 116.34"/><rect class="cls-5" x="410.71" y="121.95" width="0.54" height="16.62"/><rect class="cls-4" x="419.04" y="121.95" width="0.55" height="16.62"/><polygon class="cls-4" points="431.81 99.72 435.7 105.33 435.7 121.95 431.81 116.34 431.81 99.72"/><polygon class="cls-4" points="440.14 99.72 436.25 105.33 436.25 121.95 440.14 116.34 440.14 99.72"/><polygon class="cls-5" points="440.14 99.72 444.04 105.33 444.04 121.95 440.14 116.34 440.14 99.72"/><polygon class="cls-5" points="448.47 99.72 444.58 105.33 444.58 121.95 448.47 116.34 448.47 99.72"/><rect class="cls-5" x="435.7" y="105.33" width="0.54" height="16.62"/><rect class="cls-4" x="444.04" y="105.33" width="0.54" height="16.62"/><polygon class="cls-4" points="423.48 116.34 427.37 121.95 427.37 138.57 423.48 132.96 423.48 116.34"/><polygon class="cls-4" points="431.81 116.34 427.92 121.95 427.92 138.57 431.81 132.96 431.81 116.34"/><polygon class="cls-5" points="431.81 116.34 435.7 121.95 435.7 138.57 431.81 132.96 431.81 116.34"/><polygon class="cls-5" points="440.14 116.34 436.25 121.95 436.25 138.57 440.14 132.96 440.14 116.34"/><rect class="cls-5" x="427.37" y="121.95" width="0.54" height="16.62"/><rect class="cls-4" x="435.7" y="121.95" width="0.54" height="16.62"/><polygon class="cls-4" points="448.47 99.72 452.37 105.33 452.37 121.95 448.47 116.34 448.47 99.72"/><polygon class="cls-4" points="456.81 99.72 452.91 105.33 452.91 121.95 456.81 116.34 456.81 99.72"/><polygon class="cls-5" points="456.81 99.72 460.7 105.33 460.7 121.95 456.81 116.34 456.81 99.72"/><polygon class="cls-5" points="465.14 99.72 461.25 105.33 461.25 121.95 465.14 116.34 465.14 99.72"/><rect class="cls-5" x="452.37" y="105.33" width="0.54" height="16.62"/><rect class="cls-4" x="460.7" y="105.33" width="0.54" height="16.62"/><polygon class="cls-4" points="440.14 116.34 444.04 121.95 444.04 138.57 440.14 132.96 440.14 116.34"/><polygon class="cls-4" points="448.47 116.34 444.58 121.95 444.58 138.57 448.47 132.96 448.47 116.34"/><polygon class="cls-5" points="448.47 116.34 452.37 121.95 452.37 138.57 448.47 132.96 448.47 116.34"/><polygon class="cls-5" points="456.81 116.34 452.91 121.95 452.91 138.57 456.81 132.96 456.81 116.34"/><rect class="cls-5" x="444.04" y="121.95" width="0.54" height="16.62"/><rect class="cls-4" x="452.37" y="121.95" width="0.54" height="16.62"/><polygon class="cls-4" points="465.14 99.72 469.03 105.33 469.03 121.95 465.14 116.34 465.14 99.72"/><polygon class="cls-4" points="473.47 99.72 469.58 105.33 469.58 121.95 473.47 116.34 473.47 99.72"/><polygon class="cls-5" points="473.47 99.72 477.37 105.33 477.37 121.95 473.47 116.34 473.47 99.72"/><polygon class="cls-5" points="481.8 99.72 477.91 105.33 477.91 121.95 481.8 116.34 481.8 99.72"/><rect class="cls-5" x="469.03" y="105.33" width="0.54" height="16.62"/><rect class="cls-4" x="477.37" y="105.33" width="0.55" height="16.62"/><polygon class="cls-4" points="456.81 116.34 460.7 121.95 460.7 138.57 456.81 132.96 456.81 116.34"/><polygon class="cls-4" points="465.14 116.34 461.25 121.95 461.25 138.57 465.14 132.96 465.14 116.34"/><polygon class="cls-5" points="465.14 116.34 469.03 121.95 469.03 138.57 465.14 132.96 465.14 116.34"/><polygon class="cls-5" points="473.47 116.34 469.58 121.95 469.58 138.57 473.47 132.96 473.47 116.34"/><rect class="cls-5" x="460.7" y="121.95" width="0.54" height="16.62"/><rect class="cls-4" x="469.03" y="121.95" width="0.54" height="16.62"/><polygon class="cls-4" points="473.47 116.34 477.37 121.95 477.37 138.57 473.47 132.96 473.47 116.34"/><polygon class="cls-4" points="481.8 116.34 477.91 121.95 477.91 138.57 481.8 132.96 481.8 116.34"/><rect class="cls-5" x="477.37" y="121.95" width="0.55" height="16.62"/><polygon class="cls-4" points="331.82 132.96 335.71 138.57 335.71 155.19 331.82 149.58 331.82 132.96"/><polygon class="cls-4" points="340.15 132.96 336.26 138.57 336.26 155.19 340.15 149.58 340.15 132.96"/><polygon class="cls-5" points="340.15 132.96 344.05 138.57 344.05 155.19 340.15 149.58 340.15 132.96"/><polygon class="cls-5" points="348.49 132.96 344.59 138.57 344.59 155.19 348.49 149.58 348.49 132.96"/><rect class="cls-5" x="335.71" y="138.57" width="0.55" height="16.62"/><rect class="cls-4" x="344.05" y="138.57" width="0.54" height="16.62"/><polygon class="cls-4" points="348.49 132.96 352.38 138.57 352.38 155.19 348.49 149.58 348.49 132.96"/><polygon class="cls-4" points="356.82 132.96 352.92 138.57 352.92 155.19 356.82 149.58 356.82 132.96"/><polygon class="cls-5" points="356.82 132.96 360.71 138.57 360.71 155.19 356.82 149.58 356.82 132.96"/><polygon class="cls-5" points="365.15 132.96 361.26 138.57 361.26 155.19 365.15 149.58 365.15 132.96"/><rect class="cls-5" x="352.38" y="138.57" width="0.54" height="16.62"/><rect class="cls-4" x="360.71" y="138.57" width="0.54" height="16.62"/><polygon class="cls-4" points="365.15 132.96 369.04 138.57 369.04 155.19 365.15 149.58 365.15 132.96"/><polygon class="cls-4" points="373.48 132.96 369.59 138.57 369.59 155.19 373.48 149.58 373.48 132.96"/><polygon class="cls-5" points="373.48 132.96 377.38 138.57 377.38 155.19 373.48 149.58 373.48 132.96"/><polygon class="cls-5" points="381.81 132.96 377.92 138.57 377.92 155.19 381.81 149.58 381.81 132.96"/><rect class="cls-5" x="369.04" y="138.57" width="0.55" height="16.62"/><rect class="cls-4" x="377.38" y="138.57" width="0.54" height="16.62"/><polygon class="cls-4" points="381.81 132.96 385.71 138.57 385.71 155.19 381.81 149.58 381.81 132.96"/><polygon class="cls-4" points="390.15 132.96 386.25 138.57 386.25 155.19 390.15 149.58 390.15 132.96"/><polygon class="cls-5" points="390.15 132.96 394.04 138.57 394.04 155.19 390.15 149.58 390.15 132.96"/><polygon class="cls-5" points="398.48 132.96 394.59 138.57 394.59 155.19 398.48 149.58 398.48 132.96"/><rect class="cls-5" x="385.71" y="138.57" width="0.54" height="16.62"/><rect class="cls-4" x="394.04" y="138.57" width="0.55" height="16.62"/><polygon class="cls-4" points="398.48 132.96 402.37 138.57 402.37 155.19 398.48 149.58 398.48 132.96"/><polygon class="cls-4" points="406.81 132.96 402.92 138.57 402.92 155.19 406.81 149.58 406.81 132.96"/><polygon class="cls-5" points="406.81 132.96 410.71 138.57 410.71 155.19 406.81 149.58 406.81 132.96"/><polygon class="cls-5" points="415.14 132.96 411.25 138.57 411.25 155.19 415.14 149.58 415.14 132.96"/><rect class="cls-5" x="402.37" y="138.57" width="0.54" height="16.62"/><rect class="cls-4" x="410.71" y="138.57" width="0.54" height="16.62"/><polygon class="cls-4" points="415.14 132.96 419.04 138.57 419.04 155.19 415.14 149.58 415.14 132.96"/><polygon class="cls-4" points="423.48 132.96 419.58 138.57 419.58 155.19 423.48 149.58 423.48 132.96"/><polygon class="cls-5" points="423.48 132.96 427.37 138.57 427.37 155.19 423.48 149.58 423.48 132.96"/><polygon class="cls-5" points="431.81 132.96 427.92 138.57 427.92 155.19 431.81 149.58 431.81 132.96"/><rect class="cls-5" x="419.04" y="138.57" width="0.55" height="16.62"/><rect class="cls-4" x="427.37" y="138.57" width="0.54" height="16.62"/><polygon class="cls-4" points="431.81 132.96 435.7 138.57 435.7 155.19 431.81 149.58 431.81 132.96"/><polygon class="cls-4" points="440.14 132.96 436.25 138.57 436.25 155.19 440.14 149.58 440.14 132.96"/><polygon class="cls-5" points="440.14 132.96 444.04 138.57 444.04 155.19 440.14 149.58 440.14 132.96"/><polygon class="cls-5" points="448.47 132.96 444.58 138.57 444.58 155.19 448.47 149.58 448.47 132.96"/><rect class="cls-5" x="435.7" y="138.57" width="0.54" height="16.62"/><rect class="cls-4" x="444.04" y="138.57" width="0.54" height="16.62"/><polygon class="cls-4" points="448.47 132.96 452.37 138.57 452.37 155.19 448.47 149.58 448.47 132.96"/><polygon class="cls-4" points="456.81 132.96 452.91 138.57 452.91 155.19 456.81 149.58 456.81 132.96"/><polygon class="cls-5" points="456.81 132.96 460.7 138.57 460.7 155.19 456.81 149.58 456.81 132.96"/><polygon class="cls-5" points="465.14 132.96 461.25 138.57 461.25 155.19 465.14 149.58 465.14 132.96"/><rect class="cls-5" x="452.37" y="138.57" width="0.54" height="16.62"/><rect class="cls-4" x="460.7" y="138.57" width="0.54" height="16.62"/><polygon class="cls-4" points="465.14 132.96 469.03 138.57 469.03 155.19 465.14 149.58 465.14 132.96"/><polygon class="cls-4" points="473.47 132.96 469.58 138.57 469.58 155.19 473.47 149.58 473.47 132.96"/><polygon class="cls-5" points="473.47 132.96 477.37 138.57 477.37 155.19 473.47 149.58 473.47 132.96"/><polygon class="cls-5" points="481.8 132.96 477.91 138.57 477.91 155.19 481.8 149.58 481.8 132.96"/><rect class="cls-5" x="469.03" y="138.57" width="0.54" height="16.62"/><rect class="cls-4" x="477.37" y="138.57" width="0.55" height="16.62"/></g></g><g class="cls-6"><g class="cls-7"><polygon class="cls-5" points="307.19 162.71 306 162.09 306.62 163.28 306 164.48 307.19 163.86 308.39 164.48 307.77 163.28 308.39 162.09 307.19 162.71"/><polygon class="cls-5" points="306 157.57 306 157.57 307.19 156.95 308.39 157.57 308.39 157.57 308.39 157.57 307.77 156.37 308.39 155.18 308.39 155.18 308.39 155.18 307.19 155.8 306 155.18 306 155.18 306 155.18 306.62 156.37 306 157.57 306 157.57"/><polygon class="cls-5" points="310.66 160.4 311.85 161.02 311.23 159.83 311.85 158.63 310.66 159.25 309.46 158.63 310.08 159.83 309.46 161.02 310.66 160.4"/><polygon class="cls-5" points="303.75 160.4 304.94 161.02 304.32 159.83 304.94 158.63 303.75 159.25 302.55 158.63 303.17 159.83 302.55 161.02 303.75 160.4"/><polygon class="cls-5" points="300.28 162.71 299.09 162.09 299.71 163.28 299.09 164.48 300.28 163.86 301.48 164.48 300.86 163.28 301.48 162.09 300.28 162.71"/><polygon class="cls-5" points="299.09 157.57 299.09 157.57 300.28 156.95 301.48 157.57 301.48 157.57 301.48 157.57 300.86 156.37 301.48 155.18 301.48 155.18 301.48 155.18 300.28 155.8 299.09 155.18 299.09 155.18 299.08 155.18 299.71 156.37 299.08 157.57 299.09 157.57"/><polygon class="cls-5" points="296.83 160.4 298.03 161.02 297.41 159.83 298.03 158.63 296.83 159.25 295.64 158.63 296.26 159.83 295.64 161.02 296.83 160.4"/><polygon class="cls-5" points="293.37 162.71 292.17 162.09 292.8 163.28 292.17 164.48 293.37 163.86 294.57 164.48 293.94 163.28 294.57 162.09 293.37 162.71"/><polygon class="cls-5" points="292.18 157.57 292.17 157.57 293.37 156.95 294.56 157.57 294.56 157.57 294.57 157.57 293.94 156.37 294.57 155.18 294.56 155.18 294.56 155.18 293.37 155.8 292.17 155.18 292.18 155.18 292.17 155.18 292.79 156.37 292.17 157.57 292.18 157.57"/><polygon class="cls-5" points="289.92 160.4 291.12 161.02 290.5 159.83 291.12 158.63 289.92 159.25 288.73 158.63 289.35 159.83 288.73 161.02 289.92 160.4"/><polygon class="cls-5" points="286.46 162.71 285.26 162.09 285.88 163.28 285.26 164.48 286.46 163.86 287.65 164.48 287.03 163.28 287.65 162.09 286.46 162.71"/><polygon class="cls-5" points="285.26 157.57 285.26 157.57 286.46 156.95 287.65 157.57 287.65 157.57 287.65 157.57 287.03 156.37 287.65 155.18 287.65 155.18 287.65 155.18 286.46 155.8 285.26 155.18 285.26 155.18 285.26 155.18 285.88 156.37 285.26 157.57 285.26 157.57"/><polygon class="cls-5" points="283.01 160.4 284.21 161.02 283.59 159.83 284.21 158.63 283.01 159.25 281.81 158.63 282.44 159.83 281.81 161.02 283.01 160.4"/><polygon class="cls-5" points="279.55 162.71 278.35 162.09 278.97 163.28 278.35 164.48 279.55 163.86 280.74 164.48 280.12 163.28 280.74 162.09 279.55 162.71"/><polygon class="cls-5" points="278.35 157.57 278.35 157.57 279.55 156.95 280.74 157.57 280.74 157.57 280.74 157.57 280.12 156.37 280.74 155.18 280.74 155.18 280.74 155.18 279.55 155.8 278.35 155.18 278.35 155.18 278.35 155.18 278.97 156.37 278.35 157.57 278.35 157.57"/><polygon class="cls-5" points="276.1 160.4 277.3 161.02 276.68 159.83 277.3 158.63 276.1 159.25 274.9 158.63 275.52 159.83 274.9 161.02 276.1 160.4"/><polygon class="cls-5" points="272.63 162.71 271.44 162.09 272.06 163.28 271.44 164.48 272.63 163.86 273.83 164.48 273.21 163.28 273.83 162.09 272.63 162.71"/><polygon class="cls-5" points="271.44 157.57 271.44 157.57 272.63 156.95 273.83 157.57 273.83 157.57 273.83 157.57 273.21 156.37 273.83 155.18 273.83 155.18 273.83 155.18 272.63 155.8 271.44 155.18 271.44 155.18 271.44 155.18 272.06 156.37 271.44 157.57 271.44 157.57"/><polygon class="cls-5" points="269.19 160.4 270.38 161.02 269.76 159.83 270.38 158.63 269.19 159.25 267.99 158.63 268.61 159.83 267.99 161.02 269.19 160.4"/><polygon class="cls-5" points="265.72 162.71 264.53 162.09 265.15 163.28 264.53 164.48 265.72 163.86 266.92 164.48 266.3 163.28 266.92 162.09 265.72 162.71"/><polygon class="cls-5" points="264.53 157.57 264.53 157.57 265.72 156.95 266.92 157.57 266.92 157.57 266.92 157.57 266.3 156.37 266.92 155.18 266.92 155.18 266.92 155.18 265.72 155.8 264.53 155.18 264.53 155.18 264.53 155.18 265.15 156.37 264.53 157.57 264.53 157.57"/><polygon class="cls-5" points="262.28 160.4 263.47 161.02 262.85 159.83 263.47 158.63 262.28 159.25 261.08 158.63 261.7 159.83 261.08 161.02 262.28 160.4"/><polygon class="cls-5" points="307.19 169.62 306 169 306.62 170.19 306 171.39 307.19 170.77 308.39 171.39 307.77 170.19 308.39 169 307.19 169.62"/><polygon class="cls-5" points="310.66 167.31 311.85 167.94 311.23 166.74 311.85 165.54 310.66 166.16 309.46 165.54 310.08 166.74 309.46 167.94 310.66 167.31"/><polygon class="cls-5" points="303.75 167.31 304.94 167.94 304.32 166.74 304.94 165.54 303.75 166.16 302.55 165.54 303.17 166.74 302.55 167.94 303.75 167.31"/><polygon class="cls-5" points="300.28 169.62 299.09 169 299.71 170.19 299.09 171.39 300.28 170.77 301.48 171.39 300.86 170.19 301.48 169 300.28 169.62"/><polygon class="cls-5" points="296.83 167.31 298.03 167.94 297.41 166.74 298.03 165.54 296.83 166.16 295.64 165.54 296.26 166.74 295.64 167.94 296.83 167.31"/><polygon class="cls-5" points="293.37 169.62 292.17 169 292.8 170.19 292.17 171.39 293.37 170.77 294.57 171.39 293.94 170.19 294.57 169 293.37 169.62"/><polygon class="cls-5" points="289.92 167.31 291.12 167.94 290.5 166.74 291.12 165.54 289.92 166.16 288.73 165.54 289.35 166.74 288.73 167.94 289.92 167.31"/><polygon class="cls-5" points="286.46 169.62 285.26 169 285.88 170.19 285.26 171.39 286.46 170.77 287.65 171.39 287.03 170.19 287.65 169 286.46 169.62"/><polygon class="cls-5" points="283.01 167.31 284.21 167.94 283.59 166.74 284.21 165.54 283.01 166.16 281.81 165.54 282.44 166.74 281.81 167.94 283.01 167.31"/><polygon class="cls-5" points="279.55 169.62 278.35 169 278.97 170.19 278.35 171.39 279.55 170.77 280.74 171.39 280.12 170.19 280.74 169 279.55 169.62"/><polygon class="cls-5" points="276.1 167.31 277.3 167.94 276.68 166.74 277.3 165.54 276.1 166.16 274.9 165.54 275.52 166.74 274.9 167.94 276.1 167.31"/><polygon class="cls-5" points="272.63 169.62 271.44 169 272.06 170.19 271.44 171.39 272.63 170.77 273.83 171.39 273.21 170.19 273.83 169 272.63 169.62"/><polygon class="cls-5" points="269.19 167.31 270.38 167.94 269.76 166.74 270.38 165.54 269.19 166.16 267.99 165.54 268.61 166.74 267.99 167.94 269.19 167.31"/><polygon class="cls-5" points="265.72 169.62 264.53 169 265.15 170.19 264.53 171.39 265.72 170.77 266.92 171.39 266.3 170.19 266.92 169 265.72 169.62"/><polygon class="cls-5" points="261.08 167.94 262.28 167.31 263.47 167.94 262.85 166.74 263.47 165.54 262.28 166.16 261.08 165.54 261.7 166.74 261.08 167.94"/><polygon class="cls-5" points="307.19 141.97 306 141.35 306.62 142.55 306 143.75 307.19 143.13 308.39 143.75 307.77 142.55 308.39 141.35 307.19 141.97"/><polygon class="cls-5" points="306 136.84 306 136.84 307.19 136.22 308.39 136.84 308.39 136.84 308.39 136.84 307.77 135.64 308.39 134.44 308.39 134.44 308.39 134.44 307.19 135.06 306 134.44 306 134.44 306 134.44 306.62 135.64 306 136.84 306 136.84"/><polygon class="cls-5" points="310.66 139.67 311.85 140.29 311.23 139.1 311.85 137.9 310.66 138.52 309.46 137.9 310.08 139.1 309.46 140.29 310.66 139.67"/><polygon class="cls-5" points="303.75 139.67 304.94 140.29 304.32 139.1 304.94 137.9 303.75 138.52 302.55 137.9 303.17 139.1 302.55 140.29 303.75 139.67"/><polygon class="cls-5" points="300.28 141.97 299.09 141.35 299.71 142.55 299.09 143.75 300.28 143.13 301.48 143.75 300.86 142.55 301.48 141.35 300.28 141.97"/><polygon class="cls-5" points="299.09 136.84 299.09 136.84 300.28 136.22 301.48 136.84 301.48 136.84 301.48 136.84 300.86 135.64 301.48 134.44 301.48 134.44 301.48 134.44 300.28 135.06 299.09 134.44 299.09 134.44 299.08 134.44 299.71 135.64 299.08 136.84 299.09 136.84"/><polygon class="cls-5" points="296.83 139.67 298.03 140.29 297.41 139.1 298.03 137.9 296.83 138.52 295.64 137.9 296.26 139.1 295.64 140.29 296.83 139.67"/><polygon class="cls-5" points="293.37 141.97 292.17 141.35 292.8 142.55 292.17 143.75 293.37 143.13 294.57 143.75 293.94 142.55 294.57 141.35 293.37 141.97"/><polygon class="cls-5" points="292.18 136.84 292.17 136.84 293.37 136.22 294.56 136.84 294.56 136.84 294.57 136.84 293.94 135.64 294.57 134.44 294.56 134.44 294.56 134.44 293.37 135.06 292.17 134.44 292.18 134.44 292.17 134.44 292.79 135.64 292.17 136.84 292.18 136.84"/><polygon class="cls-5" points="289.92 139.67 291.12 140.29 290.5 139.1 291.12 137.9 289.92 138.52 288.73 137.9 289.35 139.1 288.73 140.29 289.92 139.67"/><polygon class="cls-5" points="286.46 141.97 285.26 141.35 285.88 142.55 285.26 143.75 286.46 143.13 287.65 143.75 287.03 142.55 287.65 141.35 286.46 141.97"/><polygon class="cls-5" points="285.26 136.84 285.26 136.84 286.46 136.22 287.65 136.84 287.65 136.84 287.65 136.84 287.03 135.64 287.65 134.44 287.65 134.44 287.65 134.44 286.46 135.06 285.26 134.44 285.26 134.44 285.26 134.44 285.88 135.64 285.26 136.84 285.26 136.84"/><polygon class="cls-5" points="283.01 139.67 284.21 140.29 283.59 139.1 284.21 137.9 283.01 138.52 281.81 137.9 282.44 139.1 281.81 140.29 283.01 139.67"/><polygon class="cls-5" points="279.55 141.97 278.35 141.35 278.97 142.55 278.35 143.75 279.55 143.13 280.74 143.75 280.12 142.55 280.74 141.35 279.55 141.97"/><polygon class="cls-5" points="278.35 136.84 278.35 136.84 279.55 136.22 280.74 136.84 280.74 136.84 280.74 136.84 280.12 135.64 280.74 134.44 280.74 134.44 280.74 134.44 279.55 135.06 278.35 134.44 278.35 134.44 278.35 134.44 278.97 135.64 278.35 136.84 278.35 136.84"/><polygon class="cls-5" points="276.1 139.67 277.3 140.29 276.68 139.1 277.3 137.9 276.1 138.52 274.9 137.9 275.52 139.1 274.9 140.29 276.1 139.67"/><polygon class="cls-5" points="272.63 141.97 271.44 141.35 272.06 142.55 271.44 143.75 272.63 143.13 273.83 143.75 273.21 142.55 273.83 141.35 272.63 141.97"/><polygon class="cls-5" points="271.44 136.84 271.44 136.84 272.63 136.22 273.83 136.84 273.83 136.84 273.83 136.84 273.21 135.64 273.83 134.44 273.83 134.44 273.83 134.44 272.63 135.06 271.44 134.44 271.44 134.44 271.44 134.44 272.06 135.64 271.44 136.84 271.44 136.84"/><polygon class="cls-5" points="269.19 139.67 270.38 140.29 269.76 139.1 270.38 137.9 269.19 138.52 267.99 137.9 268.61 139.1 267.99 140.29 269.19 139.67"/><polygon class="cls-5" points="265.72 141.97 264.53 141.35 265.15 142.55 264.53 143.75 265.72 143.13 266.92 143.75 266.3 142.55 266.92 141.35 265.72 141.97"/><polygon class="cls-5" points="264.53 136.84 264.53 136.84 265.72 136.22 266.92 136.84 266.92 136.84 266.92 136.84 266.3 135.64 266.92 134.44 266.92 134.44 266.92 134.44 265.72 135.06 264.53 134.44 264.53 134.44 264.53 134.44 265.15 135.64 264.53 136.84 264.53 136.84"/><polygon class="cls-5" points="262.28 139.67 263.47 140.29 262.85 139.1 263.47 137.9 262.28 138.52 261.08 137.9 261.7 139.1 261.08 140.29 262.28 139.67"/><polygon class="cls-5" points="307.19 148.89 306 148.27 306.62 149.46 306 150.66 307.19 150.04 308.39 150.66 307.77 149.46 308.39 148.27 307.19 148.89"/><polygon class="cls-5" points="310.66 146.58 311.85 147.2 311.23 146.01 311.85 144.81 310.66 145.43 309.46 144.81 310.08 146.01 309.46 147.2 310.66 146.58"/><polygon class="cls-5" points="303.75 146.58 304.94 147.2 304.32 146.01 304.94 144.81 303.75 145.43 302.55 144.81 303.17 146.01 302.55 147.2 303.75 146.58"/><polygon class="cls-5" points="300.28 148.89 299.09 148.27 299.71 149.46 299.09 150.66 300.28 150.04 301.48 150.66 300.86 149.46 301.48 148.27 300.28 148.89"/><polygon class="cls-5" points="296.83 146.58 298.03 147.2 297.41 146.01 298.03 144.81 296.83 145.43 295.64 144.81 296.26 146.01 295.64 147.2 296.83 146.58"/><polygon class="cls-5" points="293.37 148.89 292.17 148.27 292.8 149.46 292.17 150.66 293.37 150.04 294.57 150.66 293.94 149.46 294.57 148.27 293.37 148.89"/><polygon class="cls-5" points="289.92 146.58 291.12 147.2 290.5 146.01 291.12 144.81 289.92 145.43 288.73 144.81 289.35 146.01 288.73 147.2 289.92 146.58"/><polygon class="cls-5" points="286.46 148.89 285.26 148.27 285.88 149.46 285.26 150.66 286.46 150.04 287.65 150.66 287.03 149.46 287.65 148.27 286.46 148.89"/><polygon class="cls-5" points="283.01 146.58 284.21 147.2 283.59 146.01 284.21 144.81 283.01 145.43 281.81 144.81 282.44 146.01 281.81 147.2 283.01 146.58"/><polygon class="cls-5" points="279.55 148.89 278.35 148.27 278.97 149.46 278.35 150.66 279.55 150.04 280.74 150.66 280.12 149.46 280.74 148.27 279.55 148.89"/><polygon class="cls-5" points="276.1 146.58 277.3 147.2 276.68 146.01 277.3 144.81 276.1 145.43 274.9 144.81 275.52 146.01 274.9 147.2 276.1 146.58"/><polygon class="cls-5" points="272.63 148.89 271.44 148.27 272.06 149.46 271.44 150.66 272.63 150.04 273.83 150.66 273.21 149.46 273.83 148.27 272.63 148.89"/><polygon class="cls-5" points="269.19 146.58 270.38 147.2 269.76 146.01 270.38 144.81 269.19 145.43 267.99 144.81 268.61 146.01 267.99 147.2 269.19 146.58"/><polygon class="cls-5" points="265.72 148.89 264.53 148.27 265.15 149.46 264.53 150.66 265.72 150.04 266.92 150.66 266.3 149.46 266.92 148.27 265.72 148.89"/><polygon class="cls-5" points="262.28 146.58 263.47 147.2 262.85 146.01 263.47 144.81 262.28 145.43 261.08 144.81 261.7 146.01 261.08 147.2 262.28 146.58"/><polygon class="cls-5" points="310.66 153.49 311.85 154.11 311.23 152.92 311.85 151.72 310.66 152.34 309.46 151.72 310.08 152.92 309.46 154.11 310.66 153.49"/><polygon class="cls-5" points="303.75 153.49 304.94 154.11 304.32 152.92 304.94 151.72 303.75 152.34 302.55 151.72 303.17 152.92 302.55 154.11 303.75 153.49"/><polygon class="cls-5" points="296.83 153.49 298.03 154.11 297.41 152.92 298.03 151.72 296.83 152.34 295.64 151.72 296.26 152.92 295.64 154.11 296.83 153.49"/><polygon class="cls-5" points="289.92 153.49 291.12 154.11 290.5 152.92 291.12 151.72 289.92 152.34 288.73 151.72 289.35 152.92 288.73 154.11 289.92 153.49"/><polygon class="cls-5" points="283.01 153.49 284.21 154.11 283.59 152.92 284.21 151.72 283.01 152.34 281.81 151.72 282.44 152.92 281.81 154.11 283.01 153.49"/><polygon class="cls-5" points="276.1 153.49 277.3 154.11 276.68 152.92 277.3 151.72 276.1 152.34 274.9 151.72 275.52 152.92 274.9 154.11 276.1 153.49"/><polygon class="cls-5" points="269.19 153.49 270.38 154.11 269.76 152.92 270.38 151.72 269.19 152.34 267.99 151.72 268.61 152.92 267.99 154.11 269.19 153.49"/><polygon class="cls-5" points="262.28 153.49 263.47 154.11 262.85 152.92 263.47 151.72 262.28 152.34 261.08 151.72 261.7 152.92 261.08 154.11 262.28 153.49"/><polygon class="cls-5" points="307.19 129.3 308.39 129.92 307.77 128.73 308.39 127.53 307.19 128.15 306 127.53 306.62 128.73 306 129.92 307.19 129.3"/><polygon class="cls-5" points="310.66 125.85 311.85 126.47 311.23 125.27 311.85 124.08 310.66 124.7 309.46 124.08 310.08 125.27 309.46 126.47 310.66 125.85"/><polygon class="cls-5" points="303.75 125.85 304.94 126.47 304.32 125.27 304.94 124.08 303.75 124.7 302.55 124.08 303.17 125.27 302.55 126.47 303.75 125.85"/><polygon class="cls-5" points="300.28 129.3 301.48 129.92 300.86 128.73 301.48 127.53 300.28 128.15 299.09 127.53 299.71 128.73 299.09 129.92 300.28 129.3"/><polygon class="cls-5" points="296.83 125.85 298.03 126.47 297.41 125.27 298.03 124.08 296.83 124.7 295.64 124.08 296.26 125.27 295.64 126.47 296.83 125.85"/><polygon class="cls-5" points="293.37 129.3 294.57 129.92 293.94 128.73 294.57 127.53 293.37 128.15 292.17 127.53 292.8 128.73 292.17 129.92 293.37 129.3"/><polygon class="cls-5" points="289.92 125.85 291.12 126.47 290.5 125.27 291.12 124.08 289.92 124.7 288.73 124.08 289.35 125.27 288.73 126.47 289.92 125.85"/><polygon class="cls-5" points="286.46 129.3 287.65 129.92 287.03 128.73 287.65 127.53 286.46 128.15 285.26 127.53 285.88 128.73 285.26 129.92 286.46 129.3"/><polygon class="cls-5" points="283.01 125.85 284.21 126.47 283.59 125.27 284.21 124.08 283.01 124.7 281.81 124.08 282.44 125.27 281.81 126.47 283.01 125.85"/><polygon class="cls-5" points="279.55 129.3 280.74 129.92 280.12 128.73 280.74 127.53 279.55 128.15 278.35 127.53 278.97 128.73 278.35 129.92 279.55 129.3"/><polygon class="cls-5" points="276.1 125.85 277.3 126.47 276.68 125.27 277.3 124.08 276.1 124.7 274.9 124.08 275.52 125.27 274.9 126.47 276.1 125.85"/><polygon class="cls-5" points="272.63 129.3 273.83 129.92 273.21 128.73 273.83 127.53 272.63 128.15 271.44 127.53 272.06 128.73 271.44 129.92 272.63 129.3"/><polygon class="cls-5" points="269.19 125.85 270.38 126.47 269.76 125.27 270.38 124.08 269.19 124.7 267.99 124.08 268.61 125.27 267.99 126.47 269.19 125.85"/><polygon class="cls-5" points="265.72 129.3 266.92 129.92 266.3 128.73 266.92 127.53 265.72 128.15 264.53 127.53 265.15 128.73 264.53 129.92 265.72 129.3"/><polygon class="cls-5" points="262.28 125.85 263.47 126.47 262.85 125.27 263.47 124.08 262.28 124.7 261.08 124.08 261.7 125.27 261.08 126.47 262.28 125.85"/><polygon class="cls-5" points="310.66 132.76 311.85 133.38 311.23 132.19 311.85 130.99 310.66 131.61 309.46 130.99 310.08 132.19 309.46 133.38 310.66 132.76"/><polygon class="cls-5" points="303.75 132.76 304.94 133.38 304.32 132.19 304.94 130.99 303.75 131.61 302.55 130.99 303.17 132.19 302.55 133.38 303.75 132.76"/><polygon class="cls-5" points="296.83 132.76 298.03 133.38 297.41 132.19 298.03 130.99 296.83 131.61 295.64 130.99 296.26 132.19 295.64 133.38 296.83 132.76"/><polygon class="cls-5" points="289.92 132.76 291.12 133.38 290.5 132.19 291.12 130.99 289.92 131.61 288.73 130.99 289.35 132.19 288.73 133.38 289.92 132.76"/><polygon class="cls-5" points="283.01 132.76 284.21 133.38 283.59 132.19 284.21 130.99 283.01 131.61 281.81 130.99 282.44 132.19 281.81 133.38 283.01 132.76"/><polygon class="cls-5" points="276.1 132.76 277.3 133.38 276.68 132.19 277.3 130.99 276.1 131.61 274.9 130.99 275.52 132.19 274.9 133.38 276.1 132.76"/><polygon class="cls-5" points="269.19 132.76 270.38 133.38 269.76 132.19 270.38 130.99 269.19 131.61 267.99 130.99 268.61 132.19 267.99 133.38 269.19 132.76"/><polygon class="cls-5" points="262.28 132.76 263.47 133.38 262.85 132.19 263.47 130.99 262.28 131.61 261.08 130.99 261.7 132.19 261.08 133.38 262.28 132.76"/></g></g><g class="cls-8"><path class="cls-9" d="M79.83,733.85H76.47a.76.76,0,0,1,0-1.52h3.36a4.14,4.14,0,1,0,0-8.27H22.29a4.14,4.14,0,1,0,0,8.27H51.06a.76.76,0,1,1,0,1.52H22.29a5.66,5.66,0,1,1,0-11.31H79.83a5.66,5.66,0,1,1,0,11.31Z" transform="translate(27.44 13.6)"/><path class="cls-9" d="M76.47,733.85a.76.76,0,0,1,0-1.52,4.14,4.14,0,1,0,0-8.27H25.66a4.14,4.14,0,1,0,0,8.27h25.4a.76.76,0,1,1,0,1.52H25.66a5.66,5.66,0,1,1,0-11.31H76.47a5.66,5.66,0,0,1,0,11.31Z" transform="translate(27.44 13.6)"/><path class="cls-9" d="M110.44,753.44H106.3a.76.76,0,1,1,0-1.52h4.14a4.14,4.14,0,1,0,0-8.28h-37a.76.76,0,1,1,0-1.51h37a5.66,5.66,0,1,1,0,11.31Z" transform="translate(27.44 13.6)"/><path class="cls-9" d="M107.07,743.64H71.68a5.66,5.66,0,0,1,0-11.31h4.79a.76.76,0,1,1,0,1.52H71.68a4.14,4.14,0,0,0,0,8.28h35.39a.76.76,0,1,1,0,1.51Z" transform="translate(27.44 13.6)"/><path class="cls-9" d="M108.58,743.64H75.05a5.66,5.66,0,1,1,0-11.31.76.76,0,1,1,0,1.52,4.14,4.14,0,0,0,0,8.28h33.53a.76.76,0,1,1,0,1.51Z" transform="translate(27.44 13.6)"/><path class="cls-9" d="M-17.93,763.23h-3.85a5.66,5.66,0,0,1-5.66-5.65,5.67,5.67,0,0,1,5.66-5.66H107.08a4.14,4.14,0,0,0,0-8.28H73.41a.76.76,0,1,1,0-1.51h33.67a5.66,5.66,0,0,1,0,11.31H-21.78a4.14,4.14,0,0,0-4.14,4.14,4.13,4.13,0,0,0,4.14,4.13h3.85a.76.76,0,0,1,.76.76A.76.76,0,0,1-17.93,763.23Z" transform="translate(27.44 13.6)"/><path class="cls-9" d="M68.51,782.87H39.15a5.66,5.66,0,1,1,0-11.31h3.39a4.14,4.14,0,1,0,0-8.28H-15l-3.43,0a5.65,5.65,0,0,1-5.64-5.65,5.66,5.66,0,0,1,5.65-5.66H32.39a.76.76,0,0,1,0,1.52H-18.42a4.14,4.14,0,0,0-4.13,4.14,4.13,4.13,0,0,0,4.13,4.13l3.43,0H42.54a5.66,5.66,0,0,1,0,11.32H39.15a4.14,4.14,0,1,0,0,8.27H68.51a.76.76,0,0,1,0,1.52Z" transform="translate(27.44 13.6)"/><path class="cls-9" d="M39.18,773.08a.76.76,0,1,1,0-1.52,4.14,4.14,0,0,0,0-8.28H-11.63a.76.76,0,0,1-.76-.76.76.76,0,0,1,.76-.76H39.18a5.66,5.66,0,0,1,0,11.32Z" transform="translate(27.44 13.6)"/><path class="cls-9" d="M68.51,782.87H35.78a5.66,5.66,0,1,1,0-11.31h3.39a.76.76,0,0,1,0,1.52H35.78a4.14,4.14,0,1,0,0,8.27H68.51a.76.76,0,0,1,0,1.52Z" transform="translate(27.44 13.6)"/></g></g></g></svg>