<svg width="284" height="196" viewBox="0 0 284 196" fill="none" xmlns="http://www.w3.org/2000/svg">
<path d="M133.3 54.6L148.7 71.43" stroke="#595757" stroke-width="0.5" stroke-miterlimit="10"/>
<path d="M148.7 54.6L133.3 71.43" stroke="#595757" stroke-width="0.5" stroke-miterlimit="10"/>
<path d="M133.3 129.37L148.7 146.21" stroke="#595757" stroke-width="0.5" stroke-miterlimit="10"/>
<path d="M148.7 129.37L133.3 146.21" stroke="#595757" stroke-width="0.5" stroke-miterlimit="10"/>
<path d="M100.19 26.49V3.13H91.46V0H112.45V3.13H103.69V26.49H100.19V26.49Z" fill="#595757"/>
<path d="M124.05 24.12C122.85 25.14 121.69 25.87 120.57 26.29C119.46 26.71 118.26 26.92 116.98 26.92C114.87 26.92 113.25 26.41 112.12 25.38C110.99 24.35 110.42 23.03 110.42 21.43C110.42 20.49 110.63 19.63 111.06 18.86C111.49 18.08 112.05 17.46 112.74 16.99C113.43 16.52 114.21 16.17 115.08 15.92C115.72 15.75 116.68 15.59 117.97 15.43C120.6 15.12 122.53 14.74 123.77 14.31C123.78 13.86 123.79 13.58 123.79 13.46C123.79 12.14 123.48 11.2 122.87 10.66C122.04 9.93 120.8 9.56 119.17 9.56C117.64 9.56 116.51 9.82999 115.78 10.36C115.05 10.9 114.51 11.84 114.16 13.21L110.98 12.78C111.27 11.42 111.75 10.32 112.41 9.47999C113.07 8.63999 114.03 8 115.28 7.55C116.53 7.1 117.98 6.87 119.63 6.87C121.28 6.87 122.6 7.06 123.62 7.45C124.64 7.84 125.4 8.31999 125.88 8.89999C126.36 9.47999 126.7 10.22 126.89 11.11C127 11.66 127.05 12.66 127.05 14.11V18.45C127.05 21.47 127.12 23.39 127.26 24.19C127.4 24.99 127.67 25.76 128.08 26.49H124.68C124.34 25.82 124.13 25.03 124.03 24.12H124.05ZM123.78 16.86C122.6 17.34 120.83 17.75 118.47 18.09C117.13 18.28 116.19 18.5 115.63 18.74C115.08 18.98 114.65 19.33 114.35 19.8C114.05 20.26 113.9 20.78 113.9 21.34C113.9 22.21 114.23 22.93 114.88 23.51C115.53 24.09 116.5 24.38 117.76 24.38C119.02 24.38 120.13 24.11 121.1 23.56C122.08 23.01 122.79 22.26 123.25 21.31C123.6 20.58 123.77 19.49 123.77 18.06V16.87L123.78 16.86Z" fill="#595757"/>
<path d="M132.11 26.49V7.3H135.04V10.03C136.45 7.92 138.49 6.87 141.15 6.87C142.31 6.87 143.37 7.08 144.34 7.49C145.31 7.90999 146.04 8.45 146.52 9.13C147 9.8 147.34 10.61 147.53 11.53C147.65 12.13 147.71 13.19 147.71 14.69V26.49H144.46V14.81C144.46 13.49 144.33 12.49 144.08 11.84C143.83 11.18 143.38 10.66 142.73 10.27C142.09 9.88 141.33 9.68 140.46 9.68C139.08 9.68 137.88 10.12 136.87 11C135.86 11.88 135.36 13.55 135.36 16V26.48H132.11V26.49Z" fill="#595757"/>
<path d="M152.09 28.08L155.25 28.55C155.38 29.53 155.75 30.24 156.35 30.68C157.16 31.28 158.26 31.58 159.66 31.58C161.17 31.58 162.33 31.28 163.15 30.68C163.97 30.08 164.52 29.23 164.81 28.15C164.98 27.49 165.06 26.1 165.05 23.98C163.63 25.65 161.86 26.49 159.74 26.49C157.1 26.49 155.06 25.54 153.62 23.64C152.17 21.74 151.45 19.45 151.45 16.79C151.45 14.96 151.78 13.27 152.44 11.72C153.1 10.17 154.06 8.98 155.32 8.13C156.58 7.29 158.06 6.87 159.76 6.87C162.02 6.87 163.89 7.79 165.36 9.62V7.31H168.36V23.88C168.36 26.87 168.06 28.98 167.45 30.23C166.84 31.48 165.88 32.46 164.56 33.18C163.24 33.9 161.62 34.26 159.69 34.26C157.4 34.26 155.55 33.74 154.14 32.72C152.73 31.69 152.05 30.14 152.1 28.07L152.09 28.08ZM154.78 16.55C154.78 19.07 155.28 20.9 156.28 22.06C157.28 23.22 158.53 23.79 160.04 23.79C161.55 23.79 162.79 23.21 163.8 22.06C164.81 20.91 165.32 19.11 165.32 16.65C165.32 14.19 164.8 12.53 163.76 11.34C162.72 10.15 161.46 9.55 159.99 9.55C158.52 9.55 157.32 10.14 156.3 11.31C155.29 12.48 154.78 14.23 154.78 16.54V16.55Z" fill="#595757"/>
<path d="M186.4 20.31L189.76 20.73C189.23 22.69 188.25 24.22 186.81 25.3C185.38 26.38 183.55 26.93 181.32 26.93C178.51 26.93 176.29 26.07 174.65 24.34C173.01 22.61 172.18 20.19 172.18 17.07C172.18 13.95 173.01 11.34 174.67 9.55C176.33 7.77 178.49 6.88 181.14 6.88C183.79 6.88 185.8 7.75 187.43 9.5C189.05 11.25 189.87 13.7 189.87 16.87C189.87 17.06 189.87 17.35 189.85 17.74H175.54C175.66 19.85 176.26 21.46 177.33 22.58C178.4 23.7 179.74 24.26 181.34 24.26C182.53 24.26 183.55 23.95 184.39 23.32C185.23 22.69 185.9 21.69 186.39 20.32L186.4 20.31ZM175.72 15.05H186.43C186.29 13.44 185.88 12.23 185.2 11.42C184.16 10.17 182.82 9.54 181.17 9.54C179.68 9.54 178.42 10.04 177.4 11.04C176.38 12.04 175.82 13.38 175.71 15.05H175.72Z" fill="#595757"/>
<path d="M88.3301 35.1899V45.2499H87.1401V44.5199H81.4901V45.2999H80.3501V35.1899H88.3301V35.1899ZM81.4901 36.3199V39.2499H87.1401V36.3199H81.4901ZM87.1401 43.3999V40.3499H81.4901V43.3999H87.1401Z" fill="#699DC4"/>
<path d="M98.7201 37.97C99.5501 39.86 100.92 41.64 102.45 42.58C102.17 42.81 101.77 43.24 101.57 43.56C101.05 43.2 100.56 42.76 100.12 42.25V43.29H97.4701V45.41H96.3001V43.29H93.6501V42.22C93.1701 42.75 92.6801 43.2 92.1601 43.59C91.9701 43.3 91.6101 42.91 91.3301 42.68C92.8401 41.72 94.2001 39.9 95.0101 37.97H91.7001V36.84H96.2901V34.42H97.4601V36.84H102.11V37.97H98.7001H98.7201ZM96.3001 42.17V37.97H96.1401C95.5501 39.54 94.7001 41.02 93.6801 42.17H96.3001V42.17ZM100.04 42.17C99.0301 41.02 98.1901 39.53 97.6101 37.97H97.4801V42.17H100.05H100.04Z" fill="#699DC4"/>
<path d="M114.87 38.91V39.83H104.15V38.91H107.78V36.74H104.81V35.83H106.97C106.8 35.49 106.54 35.07 106.27 34.76L107.24 34.39C107.59 34.76 107.94 35.25 108.07 35.61L107.58 35.83H110.81C111.09 35.41 111.43 34.82 111.61 34.39L112.71 34.74C112.49 35.12 112.25 35.51 112.01 35.83H114.28V36.74H111.16V38.91H114.87V38.91ZM106.2 36.79C106.6 37.31 106.96 38.01 107.09 38.5L106.13 38.88C106 38.4 105.66 37.67 105.29 37.13L106.2 36.78V36.79ZM105.71 40.47H113.35V45.38H112.21V45.04H106.8V45.42H105.71V40.47V40.47ZM106.8 41.33V42.31H112.21V41.33H106.8ZM112.21 44.16V43.16H106.8V44.16H112.21ZM108.82 38.91H110.11V36.74H108.82V38.91ZM111.79 38.59C112.08 38.1 112.46 37.32 112.65 36.77L113.67 37.08C113.35 37.74 112.97 38.42 112.65 38.88L111.79 38.59Z" fill="#699DC4"/>
<path d="M127.44 43.83V44.96H116.75V43.83H122.56C123.18 42.34 123.87 39.99 124.23 38.28L125.49 38.52C125.02 40.27 124.35 42.37 123.76 43.83H127.44V43.83ZM126.95 37.75H117.27V36.62H126.95V37.75V37.75ZM119.92 43.41C119.75 42.09 119.27 40.06 118.84 38.53L119.97 38.25C120.44 39.81 120.91 41.78 121.11 43.11L119.92 43.41V43.41ZM121.71 36.57C121.61 36.04 121.35 35.23 121.13 34.61L122.23 34.33C122.46 34.93 122.73 35.72 122.87 36.23L121.71 36.57Z" fill="#699DC4"/>
<path d="M133.56 42.1C134.05 42.99 134.5 44.15 134.64 44.93L133.68 45.24C133.63 44.98 133.56 44.66 133.45 44.34C130.39 44.71 129.92 44.81 129.64 44.94C129.58 44.75 129.39 44.29 129.24 44.03C129.56 43.96 129.89 43.65 130.34 43.14C130.63 42.85 131.25 42.11 131.91 41.18C130.26 41.32 129.92 41.4 129.69 41.48C129.63 41.29 129.46 40.83 129.33 40.58C129.56 40.53 129.76 40.32 130 39.98C130.25 39.67 131.04 38.44 131.5 37.27L132.56 37.68C132.1 38.62 131.5 39.58 130.89 40.35L132.53 40.24C132.84 39.78 133.13 39.28 133.39 38.8L134.42 39.26C133.46 40.84 132.3 42.4 131.13 43.65L133.11 43.43C132.97 43.07 132.8 42.7 132.62 42.37L133.54 42.08L133.56 42.1ZM131.7 36.3H129.45V35.3H131.7V34.41H132.8V35.3H134.46V36.3H132.8V37.07H131.7V36.3ZM139.29 45.33C139.22 45.03 139.1 44.67 138.94 44.3C135.59 44.7 135.1 44.79 134.79 44.94C134.74 44.74 134.54 44.28 134.41 44.03C134.73 43.96 135.06 43.65 135.53 43.14C135.81 42.85 136.42 42.11 137.08 41.19C135.33 41.35 134.97 41.42 134.74 41.5C134.69 41.31 134.5 40.85 134.37 40.6C134.61 40.55 134.83 40.34 135.07 40.01C135.33 39.71 136.16 38.49 136.64 37.32L137.68 37.73C137.21 38.64 136.59 39.61 135.97 40.38L137.71 40.27C138.01 39.8 138.31 39.32 138.56 38.84L139.58 39.28C138.62 40.86 137.47 42.4 136.32 43.65L138.54 43.41C138.35 43.05 138.13 42.68 137.93 42.37L138.83 42.01C139.47 42.9 140.05 44.08 140.29 44.9L139.31 45.33H139.29ZM136.56 36.3H134.93V35.3H136.56V34.41H137.65V35.3H139.99V36.3H137.65V37.08H136.56V36.3Z" fill="#699DC4"/>
<path d="M151.17 44.2601C151.63 44.2601 151.7 44.0301 151.75 42.5601C152 42.7501 152.48 42.9301 152.79 43.0201C152.66 44.8701 152.36 45.3201 151.27 45.3201H149.54C148.3 45.3201 148 44.9801 148 43.8601V41.3701H146.39C146.13 43.4201 145.41 44.7601 142.44 45.4701C142.33 45.1601 142.03 44.6801 141.79 44.4501C144.42 43.9201 144.96 42.9401 145.18 41.3701H143.44V37.7501H146.68V36.5701H142.16V35.5601H146.68V34.4301H147.81V35.5601H152.45V36.5701H147.81V37.7501H151.2V41.3701H149.11V43.8401C149.11 44.2101 149.21 44.2701 149.66 44.2701H151.15L151.17 44.2601ZM144.54 40.3601H150.07V38.7201H144.54V40.3601Z" fill="#699DC4"/>
<path d="M158.08 37.46C157.8 37.95 157.44 38.46 157.07 38.95V45.43H155.99V40.19C155.58 40.63 155.14 41.02 154.73 41.35C154.63 41.1 154.35 40.5 154.17 40.22C155.24 39.46 156.39 38.26 157.1 37.07L158.08 37.47V37.46ZM157.91 34.88C157.17 35.94 155.99 37.06 154.91 37.77C154.79 37.52 154.51 37.07 154.33 36.85C155.27 36.25 156.32 35.28 156.83 34.46L157.91 34.88ZM165.27 42.24H163.56V44.27C163.56 44.82 163.45 45.1 163.06 45.25C162.66 45.42 162.09 45.43 161.24 45.43C161.18 45.13 161.02 44.71 160.88 44.42C161.48 44.44 162.05 44.44 162.22 44.43C162.4 44.42 162.45 44.38 162.45 44.24V42.24H157.83V41.28H162.45V40.4H158.12V39.48H165.05V40.4H163.56V41.28H165.27V42.24V42.24ZM159.54 42.31C160.07 42.79 160.72 43.47 161.02 43.93L160.18 44.53C159.9 44.07 159.28 43.35 158.75 42.84L159.54 42.31V42.31ZM164.57 38.8H158.79V34.78H164.57V38.8V38.8ZM163.44 35.6H159.87V36.4H163.44V35.6ZM163.44 37.17H159.87V37.97H163.44V37.17Z" fill="#699DC4"/>
<path d="M173.85 42.93C175.27 43.43 177.04 44.11 178.02 44.55L177.49 45.44C176.45 44.92 174.34 44.06 172.81 43.5L173.18 42.94H172.71C172.19 43.94 170.88 44.95 167.58 45.49C167.45 45.24 167.17 44.83 166.94 44.58C169.45 44.2 170.71 43.57 171.33 42.94H167.04V42.02H171.85C171.87 41.88 171.89 41.74 171.89 41.62V40.86H172.99V41.64C172.99 41.76 172.99 41.88 172.97 42.01H175.26C175.01 41.77 174.66 41.51 174.38 41.31L174.76 40.94H174.33C174.29 40.68 174.16 40.35 174.03 40.1C174.51 40.12 174.98 40.12 175.11 40.11C175.24 40.1 175.29 40.07 175.29 39.94V38.98H172.86C173.28 39.24 173.7 39.6 173.92 39.88L173.2 40.47C172.95 40.12 172.41 39.65 171.95 39.35L172.43 38.98H171.12V38.22H171.49C171.41 38.02 171.23 37.75 171.08 37.6C172.21 37.48 173.32 37.24 174.27 36.86C173.98 36.54 173.59 36.14 173.2 35.84C172.74 36.02 172.25 36.19 171.72 36.34C171.6 36.14 171.34 35.85 171.14 35.7C172.58 35.36 173.68 34.88 174.32 34.37L175.26 34.59C175.08 34.73 174.91 34.88 174.71 35.02H176.67L176.85 34.98L177.44 35.29C176.43 37.06 174.24 37.84 171.85 38.22H175.29V37.38H176.35V38.22H177.79V38.98H176.35V39.98C176.35 40.46 176.25 40.68 175.92 40.81C175.7 40.89 175.44 40.92 175.1 40.93C175.47 41.19 175.88 41.51 176.1 41.73L175.84 42.01H177.97V42.93H173.84H173.85ZM168.87 38.97C168.87 39.56 168.69 40.67 167.89 41.36C167.69 41.2 167.28 40.98 167.03 40.86C167.76 40.3 167.88 39.41 167.88 38.94V38.9H167.1V38.02H169.7V37.22H167.62V34.73H168.56V36.35H169.7V34.47H170.71V41.22H169.7V38.91H168.87V38.98V38.97ZM173.41 36.97C172.75 37.04 172.14 37.09 171.55 37.15L171.45 36.53C172 36.51 172.64 36.46 173.39 36.41V36.97H173.41ZM174.06 35.69C174.4 35.95 174.72 36.25 174.98 36.55C175.42 36.3 175.81 36.01 176.11 35.69H174.06V35.69Z" fill="#699DC4"/>
<path d="M190 34.9V45.39H188.93V44.83H181.23V45.44H180.21V34.9H190ZM188.93 43.95V35.76H181.23V43.95H188.93ZM188.59 42.1H186.96V43.06C186.96 43.46 186.86 43.59 186.58 43.67C186.28 43.77 185.84 43.77 185.14 43.77C185.1 43.57 185 43.35 184.9 43.17C185.31 43.18 185.74 43.18 185.86 43.18C185.99 43.17 186.03 43.13 186.03 43.02V42.1H181.58V41.45H186.03V41.05H186.96V41.45H188.59V42.1ZM187.26 39.94C187.69 40.26 188.16 40.71 188.41 41L187.81 41.46C187.69 41.3 187.52 41.14 187.34 40.96C185.3 41.02 183.25 41.08 181.77 41.12L181.72 40.47C182.51 40.47 183.5 40.46 184.56 40.45V39.96H182.1V37.55H184.56V37.12H181.69V36.46H184.56V35.97H185.48V36.46H188.41V37.12H185.48V37.55H188.03V39.96H187.24L187.26 39.94ZM183.71 43.57C183.52 43.25 183.12 42.78 182.76 42.45L183.47 42.09C183.83 42.4 184.26 42.85 184.45 43.16L183.71 43.57ZM182.99 38.47H184.57V38.03H182.99V38.47ZM184.57 39.42V38.96H182.99V39.42H184.57ZM185.49 38.03V38.47H187.15V38.03H185.49ZM187.15 39.42V38.96H185.49V39.42H187.15ZM186.75 40.4C186.68 40.34 186.61 40.28 186.53 40.22L186.97 39.93H185.48V40.42L186.74 40.4H186.75Z" fill="#699DC4"/>
<path d="M196.22 35.32C195.88 36.32 195.46 37.56 195.09 38.5C195.89 39.46 196.07 40.28 196.07 40.99C196.07 41.7 195.93 42.18 195.58 42.43C195.4 42.54 195.18 42.62 194.93 42.66C194.71 42.68 194.41 42.68 194.14 42.67C194.13 42.41 194.04 41.97 193.89 41.71C194.13 41.73 194.33 41.73 194.5 41.72C194.64 41.72 194.75 41.68 194.86 41.61C195.03 41.49 195.09 41.21 195.09 40.85C195.09 40.25 194.89 39.48 194.11 38.61C194.42 37.79 194.73 36.74 194.95 35.94H193.67V45.44H192.69V34.93H195.34L195.5 34.89L196.23 35.31L196.22 35.32ZM202.95 38.57C202.49 38.91 201.95 39.27 201.44 39.58C201.85 40.88 202.64 42.29 203.4 43.05C203.18 43.21 202.85 43.55 202.68 43.79C201.91 42.93 201.13 41.44 200.67 40.05L200.53 40.12C201.13 42.06 200.87 44.11 200.17 44.75C199.81 45.15 199.45 45.27 198.9 45.28C198.67 45.28 198.28 45.27 197.95 45.26C197.93 44.97 197.84 44.55 197.67 44.26C198.07 44.3 198.45 44.31 198.69 44.31C198.98 44.31 199.18 44.26 199.36 44.01C199.65 43.73 199.84 42.93 199.8 41.96C198.89 42.72 197.63 43.45 196.56 43.88C196.4 43.62 196.15 43.27 195.9 43.08C197.23 42.66 198.83 41.76 199.68 40.89C199.62 40.63 199.55 40.35 199.45 40.09C198.72 40.68 197.71 41.31 196.94 41.7C196.81 41.47 196.54 41.11 196.34 40.9C197.23 40.56 198.45 39.89 199.12 39.3C198.96 39.01 198.8 38.75 198.6 38.48C197.93 38.98 197.2 39.43 196.5 39.75C196.37 39.55 196.06 39.14 195.84 38.95C196.8 38.58 197.8 38.01 198.54 37.35H196.12V36.38H198.27C197.98 35.96 197.47 35.41 197 35.03L197.83 34.5C198.38 34.93 198.98 35.53 199.26 35.98L198.66 36.39H199.88C200.31 35.87 200.8 35.06 201.08 34.47L202.15 34.79C201.81 35.35 201.41 35.94 201.05 36.4H203.1V37.36H199.85C199.69 37.55 199.5 37.72 199.31 37.9C199.69 38.33 199.98 38.82 200.21 39.33C200.93 38.9 201.72 38.31 202.25 37.85L202.96 38.59L202.95 38.57Z" fill="#699DC4"/>
<path d="M88.52 106.26L98.69 79.77H102.47L113.31 106.26H109.32L106.23 98.24H95.16L92.25 106.26H88.53H88.52ZM96.16 95.38H105.14L102.38 88.05C101.54 85.82 100.91 83.99 100.5 82.56C100.16 84.26 99.69 85.94 99.07 87.62L96.16 95.39V95.38Z" fill="#595757"/>
<path d="M128.82 100.09L132.18 100.51C131.65 102.47 130.67 104 129.23 105.08C127.8 106.16 125.97 106.71 123.74 106.71C120.93 106.71 118.71 105.85 117.07 104.12C115.43 102.39 114.6 99.97 114.6 96.85C114.6 93.73 115.43 91.12 117.09 89.33C118.75 87.55 120.91 86.66 123.56 86.66C126.21 86.66 128.22 87.53 129.85 89.28C131.47 91.03 132.29 93.48 132.29 96.65C132.29 96.84 132.29 97.13 132.27 97.52H117.96C118.08 99.63 118.68 101.24 119.75 102.36C120.82 103.48 122.16 104.04 123.76 104.04C124.95 104.04 125.97 103.73 126.81 103.1C127.65 102.47 128.32 101.47 128.81 100.1L128.82 100.09ZM118.14 94.83H128.85C128.71 93.22 128.3 92.01 127.62 91.2C126.58 89.95 125.24 89.32 123.59 89.32C122.1 89.32 120.84 89.82 119.82 90.82C118.8 91.82 118.24 93.16 118.13 94.83H118.14Z" fill="#595757"/>
<path d="M148.72 106.26V103.84C147.5 105.74 145.72 106.69 143.35 106.69C141.82 106.69 140.41 106.27 139.13 105.43C137.85 104.59 136.85 103.41 136.15 101.9C135.45 100.39 135.09 98.65 135.09 96.69C135.09 94.73 135.41 93.04 136.05 91.48C136.69 89.92 137.65 88.72 138.92 87.89C140.19 87.06 141.62 86.64 143.2 86.64C144.36 86.64 145.39 86.88 146.29 87.37C147.19 87.86 147.93 88.49 148.49 89.28V79.78H151.72V106.27H148.7L148.72 106.26ZM138.44 96.68C138.44 99.14 138.96 100.97 139.99 102.19C141.03 103.41 142.25 104.01 143.66 104.01C145.07 104.01 146.29 103.43 147.28 102.27C148.27 101.11 148.77 99.33 148.77 96.95C148.77 94.32 148.26 92.4 147.25 91.17C146.24 89.94 144.99 89.33 143.51 89.33C142.03 89.33 140.86 89.92 139.89 91.1C138.92 92.28 138.44 94.14 138.44 96.68Z" fill="#595757"/>
<path d="M169.37 103.9C168.17 104.92 167.01 105.65 165.89 106.07C164.78 106.49 163.58 106.7 162.3 106.7C160.19 106.7 158.57 106.19 157.44 105.16C156.31 104.13 155.74 102.81 155.74 101.21C155.74 100.27 155.95 99.41 156.38 98.64C156.81 97.86 157.37 97.24 158.06 96.77C158.75 96.3 159.53 95.95 160.4 95.7C161.04 95.53 162 95.37 163.29 95.21C165.92 94.9 167.85 94.52 169.09 94.09C169.1 93.64 169.11 93.36 169.11 93.24C169.11 91.92 168.8 90.98 168.19 90.44C167.36 89.71 166.12 89.34 164.49 89.34C162.96 89.34 161.83 89.61 161.1 90.14C160.37 90.68 159.83 91.62 159.48 92.99L156.3 92.56C156.59 91.2 157.07 90.1 157.73 89.26C158.39 88.42 159.35 87.78 160.6 87.33C161.85 86.88 163.3 86.65 164.95 86.65C166.6 86.65 167.92 86.84 168.94 87.23C169.96 87.62 170.72 88.1 171.2 88.68C171.68 89.26 172.02 90 172.21 90.89C172.32 91.44 172.37 92.44 172.37 93.89V98.23C172.37 101.25 172.44 103.17 172.58 103.97C172.72 104.77 172.99 105.54 173.4 106.27H170C169.66 105.6 169.45 104.81 169.35 103.9H169.37ZM169.1 96.64C167.92 97.12 166.15 97.53 163.79 97.87C162.45 98.06 161.51 98.28 160.95 98.52C160.4 98.76 159.97 99.11 159.67 99.58C159.37 100.04 159.22 100.56 159.22 101.12C159.22 101.99 159.55 102.71 160.2 103.29C160.85 103.87 161.82 104.16 163.08 104.16C164.34 104.16 165.45 103.89 166.42 103.34C167.4 102.79 168.11 102.04 168.57 101.09C168.92 100.36 169.09 99.27 169.09 97.84V96.65L169.1 96.64Z" fill="#595757"/>
<path d="M176.12 100.54L179.33 100.03C179.51 101.32 180.01 102.31 180.84 102.99C181.67 103.67 182.82 104.02 184.3 104.02C185.78 104.02 186.9 103.72 187.62 103.11C188.34 102.5 188.7 101.79 188.7 100.97C188.7 100.24 188.38 99.66 187.74 99.24C187.29 98.95 186.19 98.58 184.42 98.14C182.04 97.54 180.38 97.02 179.46 96.58C178.54 96.14 177.84 95.53 177.36 94.75C176.88 93.97 176.65 93.12 176.65 92.18C176.65 91.33 176.85 90.53 177.24 89.8C177.63 89.07 178.16 88.47 178.84 87.98C179.35 87.61 180.04 87.29 180.91 87.03C181.78 86.77 182.72 86.64 183.72 86.64C185.23 86.64 186.55 86.86 187.69 87.29C188.83 87.72 189.67 88.31 190.21 89.05C190.75 89.79 191.13 90.78 191.33 92.02L188.15 92.45C188.01 91.46 187.59 90.69 186.9 90.14C186.21 89.59 185.23 89.31 183.96 89.31C182.47 89.31 181.4 89.56 180.76 90.05C180.12 90.54 179.8 91.12 179.8 91.78C179.8 92.2 179.93 92.58 180.2 92.92C180.47 93.27 180.88 93.56 181.45 93.79C181.78 93.91 182.73 94.19 184.32 94.62C186.62 95.23 188.23 95.74 189.14 96.13C190.05 96.52 190.76 97.09 191.28 97.84C191.8 98.59 192.06 99.51 192.06 100.62C192.06 101.73 191.74 102.72 191.11 103.68C190.48 104.64 189.57 105.38 188.37 105.9C187.18 106.42 185.83 106.69 184.32 106.69C181.83 106.69 179.93 106.17 178.62 105.14C177.31 104.1 176.48 102.57 176.12 100.53V100.54Z" fill="#595757"/>
<path d="M65.9801 118.89H70.5201V119.9H60.4001V118.89H64.8001V117.13H61.5701V116.16H64.8001V114.53H62.1101V113.56C61.5801 113.93 61.0501 114.26 60.5501 114.52C60.3901 114.23 60.1101 113.85 59.8501 113.61C61.2801 112.99 62.9201 111.8 64.0801 110.59H62.1701V109.55H66.0001C67.0701 111.15 69.0701 112.7 71.0101 113.47C70.7801 113.7 70.4201 114.17 70.2501 114.48C69.7301 114.24 69.2101 113.94 68.7001 113.6V114.54H65.9501V116.17H69.2101V117.14H65.9501V118.9L65.9801 118.89ZM62.1401 113.54H68.6501C67.4101 112.71 66.2601 111.64 65.4101 110.58C64.5501 111.62 63.3501 112.69 62.1401 113.54V113.54Z" fill="#699DC4"/>
<path d="M83.3902 113.33C82.7502 114.17 81.9902 115.15 81.3602 115.8C81.8902 116.9 82.6202 117.73 83.7002 118.49C83.4502 118.69 83.1402 119.04 83.0202 119.35C81.8402 118.46 81.0402 117.49 80.4802 116.23V118.9C80.4802 119.5 80.3402 119.81 79.9802 119.99C79.6102 120.18 79.0402 120.22 78.1202 120.22C78.0702 119.93 77.8802 119.44 77.7402 119.15C78.3902 119.17 78.9602 119.16 79.1402 119.16C79.3302 119.15 79.4002 119.09 79.4002 118.9V116.45C78.4802 117.37 77.5302 118.27 76.7402 118.99L76.0602 118.02L76.2302 117.89C74.9902 118.3 73.7002 118.71 72.6902 119.02L72.4502 117.95C72.8702 117.84 73.4002 117.69 73.9602 117.52V114.4H72.6802V113.37H73.9602V110.98H72.5902V109.95H76.3002V110.98H74.9902V113.37H76.1202V114.4H74.9902V117.21L76.3602 116.79L76.5002 117.68C77.2902 117.04 78.3802 116.12 79.4002 115.25V112.24H76.5602V111.21H79.4002V109.22H80.4802V111.21H83.5102V112.24H80.4802V112.73C80.6102 113.55 80.7802 114.24 80.9802 114.87C81.5002 114.23 82.0602 113.45 82.4202 112.83L83.3902 113.33V113.33ZM77.5502 112.9C78.0502 113.56 78.5902 114.45 78.8002 115.03L77.8802 115.47C77.7002 114.87 77.1802 113.96 76.6902 113.28L77.5502 112.9ZM82.3502 111.2C82.0602 110.82 81.4602 110.26 80.9602 109.89L81.5802 109.31C82.1002 109.66 82.7202 110.17 83.0202 110.53L82.3502 111.19V111.2Z" fill="#699DC4"/>
<path d="M90.4802 119.04C90.4802 119.56 90.3702 119.83 90.0202 119.99C89.6602 120.17 89.1202 120.18 88.3602 120.18C88.2902 119.9 88.1302 119.47 87.9902 119.22C88.5202 119.24 89.0502 119.24 89.1902 119.23C89.3602 119.22 89.4102 119.17 89.4102 119.01V117.66H86.9502C86.8202 118.6 86.5702 119.53 86.0502 120.24C85.8702 120.06 85.4402 119.72 85.2002 119.6C85.9802 118.51 86.0602 116.97 86.0602 115.8V113.01H90.4702V119.04H90.4802ZM95.9702 111.03V112.05H85.2802V111.03H88.0302C87.8302 110.6 87.4102 110 87.0302 109.55L88.0702 109.19C88.5102 109.67 89.0202 110.34 89.2202 110.8L88.6102 111.03H92.0602C92.4602 110.47 92.8802 109.72 93.1102 109.16L94.3202 109.53C94.0002 110.05 93.6602 110.57 93.3202 111.03H95.9502H95.9702ZM89.4102 116.81V115.79H87.0702V115.81C87.0702 116.11 87.0602 116.46 87.0302 116.81H89.4002H89.4102ZM87.0702 113.91V114.94H89.4102V113.91H87.0702ZM92.7802 118H91.7502V113.12H92.7802V118ZM94.1402 112.78H95.2402V118.92C95.2402 119.51 95.1102 119.81 94.7002 119.98C94.3002 120.16 93.6802 120.2 92.7802 120.18C92.7302 119.88 92.5402 119.4 92.3802 119.12C93.0502 119.14 93.7002 119.14 93.8802 119.13C94.0702 119.12 94.1302 119.07 94.1302 118.9V112.77L94.1402 112.78Z" fill="#699DC4"/>
<path d="M108.54 118.5V119.6H97.9502V118.5H100.8C101.02 117.46 101.24 116.19 101.47 114.88H99.3302V113.79H101.65C101.77 112.99 101.88 112.19 101.99 111.44H98.6802V110.35H107.72V111.44H103.21C103.1 112.2 102.98 112.99 102.86 113.79H105.5L105.72 113.74L106.58 113.81C106.5 115.15 106.34 116.95 106.16 118.5H108.53H108.54ZM102.68 114.88C102.46 116.2 102.24 117.47 102.03 118.5H104.99C105.13 117.3 105.25 115.93 105.33 114.88H102.68V114.88Z" fill="#699DC4"/>
<path d="M116.71 113.68C117.53 116.17 119.04 118.2 121.3 119.15C121.02 119.39 120.65 119.86 120.47 120.19C118.23 119.15 116.78 117.2 115.84 114.66C115.23 116.83 113.93 118.91 111.21 120.19C111.03 119.89 110.67 119.49 110.36 119.25C113.21 118 114.38 115.84 114.86 113.67H110.6V112.52H115.06C115.2 111.32 115.19 110.17 115.2 109.21H116.41C116.4 110.18 116.39 111.33 116.24 112.52H121.07V113.67H116.69L116.71 113.68Z" fill="#699DC4"/>
<path d="M124.9 116.85C124.6 117.69 124.12 118.65 123.69 119.26C123.51 119.12 123.15 118.85 122.92 118.73C123.36 118.17 123.77 117.35 124.02 116.58L124.9 116.84V116.85ZM126.45 116.07V120.14H125.37V116.07H123.07V115.12H125.37V114.03H122.99V113.09H124.3C124.25 112.68 124.08 112.06 123.88 111.59L124.79 111.36C124.98 111.83 125.17 112.44 125.23 112.84L124.34 113.09H126.23C126.45 112.59 126.7 111.85 126.82 111.35L127.85 111.57C127.65 112.1 127.44 112.65 127.24 113.09H128.64V114.03H126.43V115.12H128.47V116.07H126.43H126.45ZM128.46 111.34H123.18V110.42H125.37C125.24 110.08 125.08 109.7 124.94 109.4L126.04 109.11C126.24 109.52 126.48 110.02 126.64 110.42H128.45V111.34H128.46ZM127.61 116.49C128.01 117.05 128.41 117.81 128.61 118.29L127.83 118.76C127.64 118.26 127.23 117.48 126.87 116.9L127.61 116.49ZM133.92 114.21H132.7V120.15H131.61V114.21H130.21V114.5C130.21 116.23 130.05 118.63 128.99 120.15C128.82 119.95 128.37 119.61 128.14 119.49C129.09 118.1 129.17 116.07 129.17 114.5V110.35C130.5 110.12 131.98 109.75 132.84 109.38L133.72 110.2C132.74 110.58 131.44 110.87 130.22 111.09V113.19H133.94V114.22L133.92 114.21Z" fill="#699DC4"/>
<path d="M141.01 111.35C141.01 111.35 141 111.75 141 111.9C140.78 117.02 140.6 118.82 140.17 119.38C139.92 119.73 139.68 119.85 139.32 119.91C139 119.96 138.5 119.96 137.99 119.93C137.98 119.61 137.85 119.11 137.67 118.79C138.14 118.83 138.56 118.84 138.77 118.84C138.95 118.84 139.06 118.79 139.19 118.62C139.49 118.26 139.69 116.68 139.86 112.43H138.4C138.26 115.43 137.82 118.32 136.36 120.18C136.16 119.9 135.77 119.57 135.47 119.39C136.81 117.76 137.19 115.14 137.29 112.43H135.75V111.34H137.32C137.33 110.63 137.33 109.91 137.33 109.23H138.46C138.46 109.91 138.45 110.63 138.44 111.34H141.01V111.35ZM146.01 110.63V119.91H144.86V119.14H142.86V120H141.76V110.62H146.02L146.01 110.63ZM144.86 118.08V111.71H142.86V118.08H144.86Z" fill="#699DC4"/>
<path d="M152.04 116.6C150.83 117.19 149.51 117.78 148.49 118.24L148.06 117.15C148.48 116.99 149.02 116.79 149.61 116.54V113.07H148.21V112.01H149.61V109.35H150.65V112.01H151.92V113.07H150.65V116.12L151.8 115.64L152.04 116.6V116.6ZM158.62 114.06C158.22 115.68 157.55 116.95 156.65 117.96C157.38 118.54 158.22 118.97 159.22 119.24C158.97 119.47 158.66 119.89 158.5 120.2C157.49 119.85 156.62 119.36 155.87 118.71C155.14 119.35 154.28 119.83 153.35 120.2C153.22 119.92 152.94 119.52 152.73 119.29C153.61 119.01 154.43 118.57 155.14 117.97C154.4 117.09 153.83 116.05 153.4 114.84C153.33 116.58 152.94 118.69 151.54 120.13C151.37 119.91 150.94 119.54 150.71 119.41C152.2 117.89 152.35 115.69 152.35 114.04V110.9H155.02V109.22H156.1V110.9H158.11L158.28 110.86L159.1 111.04C158.87 111.9 158.58 112.89 158.32 113.52L157.35 113.3C157.48 112.93 157.61 112.44 157.73 111.93H156.1V113.83H157.71L157.91 113.79L158.61 114.05L158.62 114.06ZM153.43 111.94V113.84H155.04V111.94H153.43ZM154.44 114.82C154.78 115.73 155.27 116.55 155.89 117.23C156.48 116.56 156.98 115.74 157.29 114.82H154.44Z" fill="#699DC4"/>
<path d="M164.34 113.39C164.16 115.09 163.84 116.51 163.34 117.64C164.48 118.71 166.06 118.95 167.96 118.95C168.52 118.95 171.04 118.95 171.74 118.94C171.58 119.18 171.39 119.66 171.33 119.96H167.94C165.82 119.96 164.14 119.68 162.89 118.56C162.49 119.23 162.03 119.76 161.49 120.18C161.33 119.96 160.93 119.59 160.69 119.44C161.28 119.03 161.78 118.47 162.18 117.74C161.76 117.14 161.41 116.39 161.12 115.45L161.95 115.14C162.14 115.78 162.36 116.3 162.63 116.76C162.89 116.04 163.1 115.2 163.23 114.25H161.31C161.81 113.37 162.45 112.08 162.97 110.9H161.01V109.93H164.51C164.03 110.99 163.43 112.24 162.92 113.28H163.52L163.72 113.24L164.34 113.41V113.39ZM167.12 111.06H164.95V110.18H167.12V109.24H168.16V110.18H170.76V111.78H171.5V112.66H170.76V114.27H168.16V115.01H170.94V115.85H168.16V116.65H171.35V117.55H168.16V118.57H167.12V117.55H164.31V116.65H167.12V115.85H164.79V115.01H167.12V114.27H164.88V113.39H167.12V112.66H164.23V111.78H167.12V111.06ZM168.16 111.06V111.78H169.77V111.06H168.16ZM169.77 112.66H168.16V113.39H169.77V112.66Z" fill="#699DC4"/>
<path d="M175.3 110.74C174.93 111.23 174.5 111.69 174.09 112.04C173.93 111.85 173.56 111.46 173.35 111.28C174.06 110.74 174.75 109.93 175.14 109.1L176.12 109.41C176.05 109.57 175.96 109.72 175.88 109.88H178.72V110.74H176.66C177 111.05 177.36 111.45 177.55 111.7L176.79 112.3C176.59 111.98 176.13 111.47 175.78 111.11L176.28 110.74H175.3V110.74ZM177.57 117.96C176.81 118.87 175.48 119.66 174.22 120.03C174.05 119.75 173.73 119.35 173.48 119.12C174.68 118.86 175.99 118.28 176.65 117.61L177.57 117.96V117.96ZM179.36 116.54H184.19V117.43H179.36V120.19H178.29V117.43H173.5V116.54H178.29V115.9C178.11 115.73 177.87 115.52 177.7 115.41C178.42 115.16 178.85 114.86 179.13 114.55C178.75 114.37 178.37 114.19 178.04 114.05L178.45 113.4C178.76 113.52 179.12 113.68 179.48 113.83C179.5 113.7 179.52 113.57 179.52 113.43V113.06H178.25V112.29H182.58V114.69C182.58 114.89 182.58 115.01 182.63 115.06C182.67 115.1 182.73 115.11 182.79 115.11H183.05C183.12 115.11 183.19 115.1 183.24 115.07C183.28 115.03 183.32 114.96 183.35 114.82C183.37 114.69 183.39 114.35 183.4 113.94C183.59 114.1 183.9 114.25 184.15 114.34C184.13 114.78 184.08 115.29 184.01 115.47C183.94 115.66 183.82 115.79 183.65 115.88C183.51 115.96 183.27 115.99 183.07 115.99H182.51C182.26 115.99 181.96 115.92 181.79 115.76C181.6 115.59 181.54 115.36 181.54 114.68V113.06H180.45V113.46C180.45 113.71 180.43 113.98 180.35 114.23C180.77 114.42 181.14 114.61 181.42 114.77L181.01 115.51C180.76 115.35 180.4 115.17 180 114.97C179.77 115.28 179.45 115.57 178.99 115.81H179.36V116.54V116.54ZM173.57 115.06C174.05 115 174.64 114.93 175.28 114.84V113.16H173.71V112.36H177.82V113.16H176.3V114.71C176.79 114.64 177.32 114.57 177.82 114.49L177.86 115.34C176.38 115.57 174.85 115.78 173.7 115.95L173.57 115.05V115.06ZM184.28 109.88V110.74H181.93C182.24 111.03 182.57 111.36 182.73 111.62L181.94 112.2C181.74 111.89 181.32 111.42 180.96 111.07L181.45 110.75H180.24C179.92 111.24 179.53 111.69 179.15 112.02C178.97 111.84 178.56 111.5 178.32 111.35C179.02 110.81 179.63 109.98 179.95 109.11L180.97 109.37C180.9 109.55 180.83 109.71 180.74 109.89H184.28V109.88ZM180.85 117.52C181.89 117.96 183.28 118.65 184.02 119.15L183.23 119.94C182.56 119.44 181.18 118.69 180.11 118.23L180.85 117.52V117.52Z" fill="#699DC4"/>
<path d="M196.87 116.85H195.62V118.95H194.49V118.43H191.94V119.05C191.94 119.66 191.78 119.91 191.38 120.07C190.97 120.21 190.35 120.23 189.34 120.23C189.28 119.98 189.11 119.57 188.96 119.33C189.62 119.35 190.34 119.35 190.53 119.34C190.75 119.33 190.82 119.27 190.82 119.06V118.42H187.08V117.58H190.82V116.84H186.02V115.96H190.82V115.28H187.19V114.49H190.82V113.78H187.5V111.57H190.82V110.96H186.28V110.06H190.82V109.18H191.95V110.06H196.63V110.96H191.95V111.57H195.44V113.78H191.95V114.49H195.63V115.97H196.88V116.85H196.87ZM190.81 113.05V112.33H188.56V113.05H190.81ZM191.94 112.33V113.05H194.3V112.33H191.94ZM191.94 115.98H194.49V115.3H191.94V115.98ZM194.49 116.86H191.94V117.6H194.49V116.86Z" fill="#699DC4"/>
<path d="M208.56 111.36C208.24 112.12 207.78 112.75 207.23 113.28C207.94 113.69 208.77 113.99 209.65 114.18C209.42 114.4 209.1 114.83 208.95 115.12C207.99 114.87 207.12 114.48 206.35 113.97C205.62 114.45 204.76 114.81 203.82 115.1C203.76 114.97 203.64 114.79 203.51 114.61C203.31 115.32 203.08 116.03 202.85 116.54L202.08 116.16C202.27 115.69 202.45 115.02 202.61 114.36H201.69V118.97C201.69 119.51 201.61 119.81 201.25 120C200.9 120.16 200.41 120.18 199.67 120.18C199.63 119.88 199.49 119.42 199.35 119.12C199.83 119.14 200.31 119.14 200.45 119.13C200.59 119.12 200.64 119.09 200.64 118.95V115.7C200.2 116.73 199.63 117.7 199.02 118.3C198.91 117.98 198.65 117.52 198.46 117.23C199.18 116.59 199.86 115.46 200.29 114.35H198.62V113.38H201.68C201.02 112.9 199.98 112.34 199.11 111.96L199.81 111.24C200.15 111.37 200.53 111.54 200.89 111.72C201.26 111.43 201.62 111.07 201.92 110.71H198.77V109.76H202.72L202.9 109.72L203.62 110.16C203.18 110.87 202.46 111.61 201.75 112.16C202.13 112.38 202.46 112.6 202.71 112.8L202.19 113.36H202.93L203.1 113.3L203.77 113.54C203.73 113.7 203.7 113.85 203.66 114.02C204.34 113.83 204.95 113.58 205.49 113.26C205.08 112.88 204.72 112.46 204.42 112C204.18 112.26 203.94 112.49 203.7 112.7C203.48 112.52 203.05 112.21 202.78 112.06C203.73 111.38 204.58 110.3 205.06 109.17L206.1 109.46C205.96 109.78 205.79 110.1 205.61 110.41H209.39V111.35H208.56V111.36ZM209.17 115.86C209.17 115.86 209.16 116.15 209.13 116.3C208.93 118.45 208.71 119.37 208.38 119.73C208.14 119.97 207.9 120.04 207.58 120.09C207.28 120.11 206.79 120.11 206.25 120.09C206.23 119.78 206.11 119.35 205.95 119.06C206.42 119.11 206.86 119.12 207.07 119.12C207.25 119.12 207.35 119.1 207.45 118.99C207.65 118.81 207.82 118.2 207.98 116.8H206.24C205.83 118.28 204.99 119.47 203.1 120.22C202.97 119.96 202.67 119.55 202.44 119.36C204 118.8 204.73 117.9 205.1 116.81H203.42V115.87H205.34C205.4 115.5 205.45 115.13 205.48 114.73H206.58C206.54 115.13 206.5 115.5 206.44 115.87H209.17V115.86ZM205.12 111.36C205.43 111.85 205.84 112.28 206.33 112.68C206.75 112.31 207.08 111.86 207.34 111.36H205.12Z" fill="#699DC4"/>
<path d="M212.86 115.91C212.79 117.4 212.56 119.09 211.88 120.26C211.69 120.04 211.22 119.67 210.97 119.55C211.74 118.12 211.8 116.11 211.8 114.55V110.33C213.23 110.15 214.89 109.85 215.85 109.44L216.57 110.38C215.59 110.76 214.18 111.02 212.9 111.17V112.18H216.04V115.91H212.86V115.91ZM212.9 113.19V114.9H214.98V113.19H212.9ZM222.12 114.29H220.85V120.17H219.75V114.29H218.15C218.14 116.15 217.87 118.69 216.26 120.25C216.08 120.03 215.62 119.64 215.37 119.49C216.88 118.01 217.03 115.88 217.03 114.2V110.36C218.51 110.14 220.18 109.78 221.18 109.35L221.94 110.31C220.91 110.71 219.48 110.99 218.16 111.19V113.21H222.13V114.29H222.12Z" fill="#699DC4"/>
<path d="M0 181.04V154.55H3.5V165.43H17.27V154.55H20.77V181.04H17.27V168.56H3.5V181.04H0Z" fill="#595757"/>
<path d="M38.7198 178.68C37.5198 179.7 36.3598 180.43 35.2398 180.85C34.1298 181.27 32.9298 181.48 31.6498 181.48C29.5398 181.48 27.9198 180.97 26.7898 179.94C25.6598 178.91 25.0898 177.59 25.0898 175.99C25.0898 175.05 25.2998 174.19 25.7298 173.42C26.1598 172.64 26.7198 172.02 27.4098 171.55C28.0998 171.08 28.8798 170.73 29.7498 170.48C30.3898 170.31 31.3498 170.15 32.6398 169.99C35.2698 169.68 37.1998 169.3 38.4398 168.87C38.4498 168.42 38.4598 168.14 38.4598 168.02C38.4598 166.7 38.1498 165.76 37.5398 165.22C36.7098 164.49 35.4698 164.12 33.8398 164.12C32.3098 164.12 31.1798 164.39 30.4498 164.92C29.7198 165.46 29.1798 166.4 28.8298 167.77L25.6498 167.34C25.9398 165.98 26.4198 164.88 27.0798 164.04C27.7398 163.2 28.6998 162.56 29.9498 162.11C31.1998 161.66 32.6498 161.43 34.2998 161.43C35.9498 161.43 37.2698 161.62 38.2898 162.01C39.3098 162.4 40.0698 162.88 40.5498 163.46C41.0298 164.04 41.3698 164.78 41.5598 165.67C41.6698 166.22 41.7198 167.22 41.7198 168.67V173.01C41.7198 176.03 41.7898 177.95 41.9298 178.75C42.0698 179.55 42.3398 180.32 42.7498 181.05H39.3498C39.0098 180.38 38.7998 179.59 38.6998 178.68H38.7198ZM38.4498 171.42C37.2698 171.9 35.4998 172.31 33.1398 172.65C31.7998 172.84 30.8598 173.06 30.2998 173.3C29.7498 173.54 29.3198 173.89 29.0198 174.36C28.7198 174.82 28.5698 175.34 28.5698 175.9C28.5698 176.77 28.8998 177.49 29.5498 178.07C30.1998 178.65 31.1698 178.94 32.4298 178.94C33.6898 178.94 34.7998 178.67 35.7698 178.12C36.7498 177.57 37.4598 176.82 37.9198 175.87C38.2698 175.14 38.4398 174.05 38.4398 172.62V171.43L38.4498 171.42Z" fill="#595757"/>
<path d="M46.77 181.04V161.85H49.7V164.58C51.11 162.47 53.15 161.42 55.81 161.42C56.97 161.42 58.03 161.63 59 162.04C59.97 162.46 60.7 163 61.18 163.68C61.66 164.35 62 165.16 62.19 166.08C62.31 166.68 62.37 167.74 62.37 169.24V181.04H59.12V169.37C59.12 168.05 58.99 167.05 58.74 166.4C58.49 165.74 58.04 165.22 57.39 164.83C56.75 164.44 55.99 164.24 55.12 164.24C53.74 164.24 52.54 164.68 51.53 165.56C50.52 166.44 50.02 168.11 50.02 170.56V181.04H46.77V181.04Z" fill="#595757"/>
<path d="M79.7999 181.04V178.62C78.5799 180.52 76.7999 181.47 74.4299 181.47C72.8999 181.47 71.4899 181.05 70.2099 180.21C68.9299 179.37 67.9299 178.19 67.2299 176.68C66.5299 175.17 66.1699 173.43 66.1699 171.47C66.1699 169.51 66.4899 167.82 67.1299 166.26C67.7699 164.7 68.7299 163.5 69.9999 162.67C71.2699 161.84 72.6999 161.42 74.2799 161.42C75.4399 161.42 76.4699 161.66 77.3699 162.15C78.2699 162.64 79.0099 163.27 79.5699 164.06V154.56H82.7999V181.05H79.7799L79.7999 181.04ZM69.5199 171.46C69.5199 173.92 70.0399 175.75 71.0699 176.97C72.1099 178.19 73.3299 178.79 74.7399 178.79C76.1499 178.79 77.3699 178.21 78.3599 177.05C79.3499 175.89 79.8499 174.11 79.8499 171.73C79.8499 169.1 79.3399 167.18 78.3299 165.95C77.3199 164.72 76.0699 164.11 74.5899 164.11C73.1099 164.11 71.9399 164.7 70.9699 165.88C69.9999 167.06 69.5199 168.92 69.5199 171.46Z" fill="#595757"/>
<path d="M101.06 174.87L104.42 175.29C103.89 177.25 102.91 178.78 101.47 179.86C100.04 180.94 98.2099 181.49 95.9799 181.49C93.1699 181.49 90.9498 180.63 89.3098 178.9C87.6698 177.17 86.8398 174.75 86.8398 171.63C86.8398 168.51 87.6698 165.9 89.3298 164.11C90.9898 162.33 93.1499 161.44 95.7999 161.44C98.4499 161.44 100.46 162.31 102.09 164.06C103.71 165.81 104.53 168.26 104.53 171.43C104.53 171.62 104.53 171.91 104.51 172.3H90.1998C90.3198 174.41 90.9198 176.02 91.9898 177.14C93.0598 178.26 94.3998 178.82 95.9998 178.82C97.1898 178.82 98.2099 178.51 99.0499 177.88C99.8899 177.25 100.56 176.25 101.05 174.88L101.06 174.87ZM90.3798 169.61H101.09C100.95 168 100.54 166.79 99.8598 165.98C98.8198 164.73 97.4798 164.1 95.8298 164.1C94.3398 164.1 93.0798 164.6 92.0598 165.6C91.0398 166.6 90.4799 167.94 90.3699 169.61H90.3798Z" fill="#595757"/>
<path d="M108.43 181.04V154.55H111.68V181.04H108.43Z" fill="#595757"/>
<path d="M122.47 181.04L132.64 154.55H136.42L147.26 181.04H143.27L140.18 173.02H129.11L126.2 181.04H122.48H122.47ZM130.11 170.16H139.09L136.33 162.83C135.49 160.6 134.86 158.77 134.45 157.34C134.11 159.04 133.64 160.72 133.02 162.4L130.11 170.17V170.16Z" fill="#595757"/>
<path d="M149.61 181.04V161.85H152.54V164.76C153.29 163.4 153.98 162.5 154.61 162.07C155.24 161.64 155.94 161.42 156.7 161.42C157.8 161.42 158.91 161.77 160.04 162.47L158.92 165.49C158.13 165.02 157.33 164.79 156.54 164.79C155.83 164.79 155.19 165 154.62 165.43C154.05 165.86 153.65 166.45 153.41 167.21C153.05 168.37 152.87 169.63 152.87 171V181.04H149.62H149.61Z" fill="#595757"/>
<path d="M174.49 174.02L177.69 174.44C177.34 176.64 176.45 178.37 175.01 179.62C173.57 180.87 171.8 181.49 169.71 181.49C167.08 181.49 164.97 180.63 163.38 178.92C161.78 177.2 160.99 174.74 160.99 171.54C160.99 169.47 161.33 167.66 162.02 166.1C162.71 164.55 163.75 163.38 165.15 162.6C166.55 161.82 168.08 161.43 169.73 161.43C171.81 161.43 173.52 161.96 174.84 163.01C176.16 164.06 177.01 165.56 177.39 167.5L174.23 167.99C173.93 166.7 173.4 165.73 172.63 165.08C171.86 164.43 170.94 164.1 169.86 164.1C168.22 164.1 166.89 164.69 165.87 165.86C164.85 167.03 164.33 168.89 164.33 171.43C164.33 173.97 164.82 175.88 165.81 177.05C166.8 178.22 168.09 178.8 169.68 178.8C170.96 178.8 172.02 178.41 172.88 177.63C173.74 176.85 174.28 175.64 174.51 174.02H174.49Z" fill="#595757"/>
<path d="M180.47 181.04V154.55H183.72V164.05C185.24 162.29 187.15 161.41 189.46 161.41C190.88 161.41 192.12 161.69 193.16 162.25C194.21 162.81 194.96 163.58 195.41 164.57C195.86 165.56 196.09 166.99 196.09 168.87V181.03H192.84V168.87C192.84 167.24 192.49 166.06 191.78 165.32C191.07 164.58 190.08 164.21 188.79 164.21C187.83 164.21 186.92 164.46 186.07 164.96C185.22 165.46 184.61 166.14 184.25 166.99C183.89 167.85 183.71 169.03 183.71 170.53V181.03H180.46L180.47 181.04Z" fill="#595757"/>
<path d="M201.06 158.3V154.56H204.31V158.3H201.06ZM201.06 181.05V161.86H204.31V181.05H201.06Z" fill="#595757"/>
<path d="M216.36 178.14L216.83 181.01C215.91 181.2 215.1 181.3 214.37 181.3C213.19 181.3 212.27 181.11 211.62 180.74C210.97 180.37 210.51 179.88 210.25 179.27C209.99 178.66 209.85 177.38 209.85 175.43V164.39H207.47V161.86H209.85V157.11L213.08 155.16V161.86H216.35V164.39H213.08V175.61C213.08 176.54 213.14 177.13 213.25 177.4C213.36 177.67 213.55 177.88 213.81 178.03C214.07 178.19 214.44 178.26 214.92 178.26C215.28 178.26 215.76 178.22 216.35 178.13L216.36 178.14Z" fill="#595757"/>
<path d="M232.68 174.87L236.04 175.29C235.51 177.25 234.53 178.78 233.09 179.86C231.66 180.94 229.83 181.49 227.6 181.49C224.79 181.49 222.57 180.63 220.93 178.9C219.29 177.17 218.46 174.75 218.46 171.63C218.46 168.51 219.29 165.9 220.95 164.11C222.61 162.33 224.77 161.44 227.42 161.44C230.07 161.44 232.08 162.31 233.71 164.06C235.33 165.81 236.15 168.26 236.15 171.43C236.15 171.62 236.15 171.91 236.13 172.3H221.82C221.94 174.41 222.54 176.02 223.61 177.14C224.68 178.26 226.02 178.82 227.62 178.82C228.81 178.82 229.83 178.51 230.67 177.88C231.51 177.25 232.18 176.25 232.67 174.88L232.68 174.87ZM222 169.61H232.71C232.57 168 232.16 166.79 231.48 165.98C230.44 164.73 229.1 164.1 227.45 164.1C225.96 164.1 224.7 164.6 223.68 165.6C222.66 166.6 222.1 167.94 221.99 169.61H222Z" fill="#595757"/>
<path d="M252.64 174.02L255.84 174.44C255.49 176.64 254.6 178.37 253.16 179.62C251.72 180.87 249.95 181.49 247.86 181.49C245.23 181.49 243.12 180.63 241.53 178.92C239.93 177.2 239.14 174.74 239.14 171.54C239.14 169.47 239.48 167.66 240.17 166.1C240.86 164.55 241.9 163.38 243.3 162.6C244.7 161.82 246.23 161.43 247.88 161.43C249.96 161.43 251.67 161.96 252.99 163.01C254.31 164.06 255.16 165.56 255.54 167.5L252.38 167.99C252.08 166.7 251.55 165.73 250.78 165.08C250.01 164.43 249.09 164.1 248.01 164.1C246.37 164.1 245.04 164.69 244.02 165.86C243 167.03 242.48 168.89 242.48 171.43C242.48 173.97 242.97 175.88 243.96 177.05C244.95 178.22 246.24 178.8 247.83 178.8C249.11 178.8 250.17 178.41 251.03 177.63C251.89 176.85 252.43 175.64 252.66 174.02H252.64Z" fill="#595757"/>
<path d="M265.72 178.14L266.19 181.01C265.27 181.2 264.46 181.3 263.73 181.3C262.55 181.3 261.63 181.11 260.98 180.74C260.33 180.37 259.87 179.88 259.61 179.27C259.35 178.66 259.21 177.38 259.21 175.43V164.39H256.83V161.86H259.21V157.11L262.44 155.16V161.86H265.71V164.39H262.44V175.61C262.44 176.54 262.5 177.13 262.61 177.4C262.72 177.67 262.91 177.88 263.17 178.03C263.43 178.19 263.8 178.26 264.28 178.26C264.64 178.26 265.12 178.22 265.71 178.13L265.72 178.14Z" fill="#595757"/>
<path d="M267.6 175.32L270.81 174.81C270.99 176.1 271.49 177.09 272.32 177.77C273.15 178.45 274.3 178.8 275.78 178.8C277.26 178.8 278.38 178.5 279.1 177.89C279.82 177.28 280.18 176.57 280.18 175.75C280.18 175.02 279.86 174.44 279.22 174.02C278.77 173.73 277.67 173.36 275.9 172.92C273.52 172.32 271.86 171.8 270.94 171.36C270.02 170.92 269.32 170.31 268.84 169.53C268.36 168.75 268.13 167.9 268.13 166.96C268.13 166.11 268.33 165.31 268.72 164.58C269.11 163.85 269.64 163.25 270.32 162.76C270.83 162.39 271.52 162.07 272.39 161.81C273.26 161.55 274.2 161.42 275.2 161.42C276.71 161.42 278.03 161.64 279.17 162.07C280.31 162.5 281.15 163.09 281.69 163.83C282.23 164.57 282.61 165.56 282.81 166.8L279.63 167.23C279.49 166.24 279.07 165.47 278.38 164.92C277.69 164.37 276.71 164.09 275.44 164.09C273.95 164.09 272.88 164.34 272.24 164.83C271.6 165.32 271.28 165.9 271.28 166.56C271.28 166.98 271.41 167.36 271.68 167.7C271.95 168.05 272.36 168.34 272.93 168.57C273.26 168.69 274.21 168.97 275.8 169.4C278.1 170.01 279.71 170.52 280.62 170.91C281.53 171.3 282.24 171.87 282.76 172.62C283.28 173.37 283.54 174.29 283.54 175.4C283.54 176.51 283.22 177.5 282.59 178.46C281.96 179.42 281.05 180.16 279.85 180.68C278.66 181.2 277.31 181.47 275.8 181.47C273.31 181.47 271.41 180.95 270.1 179.92C268.79 178.88 267.96 177.35 267.6 175.31V175.32Z" fill="#595757"/>
<path d="M105.29 191.85C105.17 192.88 104.97 194 104.73 194.74C104.53 194.63 104.12 194.49 103.89 194.43C104.17 193.72 104.32 192.67 104.42 191.7L105.3 191.86L105.29 191.85ZM107.53 188.49C107.88 189.25 108.24 190.25 108.37 190.85L107.59 191.15C107.57 190.99 107.53 190.81 107.47 190.62C104.95 191.02 104.57 191.11 104.32 191.24C104.27 191.02 104.12 190.52 103.98 190.26C104.26 190.2 104.52 189.91 104.88 189.47C105.05 189.28 105.4 188.83 105.78 188.26C104.68 188.39 104.41 188.45 104.23 188.54C104.17 188.32 104.03 187.83 103.89 187.57C104.11 187.52 104.31 187.28 104.55 186.92C104.81 186.56 105.61 185.2 106.05 183.92L107.06 184.33C106.58 185.41 105.94 186.54 105.32 187.44L106.38 187.34C106.68 186.84 106.98 186.28 107.22 185.76L108.13 186.32C107.42 187.63 106.51 188.96 105.6 190.03L107.22 189.8C107.09 189.44 106.94 189.07 106.8 188.73L107.53 188.49V188.49ZM106.46 191.64C106.6 192.42 106.75 193.43 106.78 194.1L105.96 194.3C105.94 193.62 105.82 192.6 105.67 191.81L106.45 191.64H106.46ZM107.61 191.32C107.86 191.96 108.14 192.78 108.25 193.35L107.47 193.61C107.37 193.06 107.11 192.19 106.88 191.55L107.61 191.32ZM113.78 189.98C113.74 191.34 113.71 192.62 113.65 193.65H114.77V194.68H108.41V193.65H109.61C109.72 192.62 109.85 191.34 109.96 189.98H108.27V188.95H110.04C110.12 187.82 110.2 186.66 110.26 185.63H108.75V184.6H113.87C113.87 185.93 113.85 187.45 113.81 188.95H114.95V189.98H113.79H113.78ZM112.52 193.65C112.59 192.61 112.65 191.32 112.69 189.98H111.05C110.94 191.34 110.83 192.63 110.74 193.65H112.53H112.52ZM111.33 185.63C111.27 186.67 111.2 187.82 111.11 188.95H112.72C112.74 187.82 112.77 186.68 112.77 185.63H111.33Z" fill="#699DC4"/>
<path d="M118.34 191.9C118.16 192.93 117.84 194.06 117.55 194.77C117.32 194.66 116.87 194.52 116.59 194.45C116.92 193.73 117.19 192.66 117.36 191.72L118.34 191.91V191.9ZM120.77 191.18C120.73 191 120.69 190.78 120.63 190.54C117.7 191.01 117.27 191.12 117.01 191.25C116.95 191.05 116.78 190.52 116.65 190.22C116.95 190.16 117.24 189.9 117.66 189.46C117.85 189.27 118.27 188.81 118.73 188.22C117.43 188.38 117.13 188.44 116.97 188.53C116.91 188.31 116.74 187.81 116.61 187.52C116.85 187.48 117.08 187.24 117.35 186.9C117.65 186.55 118.56 185.23 119.11 183.95L120.13 184.39C119.57 185.43 118.86 186.51 118.15 187.38L119.43 187.27C119.77 186.8 120.09 186.3 120.38 185.79L121.33 186.4C120.5 187.64 119.52 188.88 118.54 189.9L120.39 189.65C120.28 189.3 120.15 188.94 120.03 188.63L120.93 188.4C121.25 189.2 121.6 190.25 121.72 190.88L120.78 191.16L120.77 191.18ZM119.69 191.62C119.86 192.46 120.04 193.53 120.09 194.25L119.15 194.5C119.11 193.77 118.96 192.68 118.81 191.84L119.69 191.62ZM121.07 191.34C121.37 192.05 121.69 192.96 121.84 193.57L120.98 193.89C120.85 193.29 120.54 192.34 120.26 191.61L121.08 191.33L121.07 191.34ZM127.23 186.15C127.23 186.15 127.22 186.56 127.22 186.71C127.08 191.94 126.93 193.75 126.48 194.33C126.19 194.73 125.89 194.85 125.45 194.91C125.03 194.97 124.32 194.95 123.64 194.91C123.62 194.61 123.47 194.12 123.28 193.81C124.01 193.87 124.68 193.87 124.98 193.87C125.2 193.87 125.34 193.83 125.46 193.68C125.8 193.31 125.96 191.57 126.08 187.22H122.91C122.62 187.86 122.3 188.43 121.97 188.89C121.75 188.73 121.27 188.41 121 188.25C121.84 187.23 122.48 185.61 122.83 184L123.93 184.22C123.76 184.88 123.56 185.54 123.34 186.16H127.21L127.23 186.15ZM124.38 191.85C124.01 191.13 123.13 190.02 122.32 189.25L123.1 188.69C123.9 189.42 124.83 190.49 125.21 191.21L124.38 191.86V191.85Z" fill="#699DC4"/>
<path d="M131.17 189.46C130.75 189.05 129.89 188.45 129.21 188.06L129.83 187.34C130.5 187.71 131.38 188.26 131.82 188.66L131.16 189.46H131.17ZM132.29 191.13C131.79 192.33 131.12 193.68 130.53 194.75L129.58 194.1C130.13 193.22 130.89 191.77 131.46 190.48L132.29 191.13V191.13ZM131.63 186.43C131.26 185.99 130.47 185.3 129.83 184.83L130.53 184.18C131.15 184.6 131.98 185.25 132.36 185.7L131.63 186.42V186.43ZM140.11 191.98V192.83H136.22C135.72 193.77 134.7 194.56 132.74 195.02C132.61 194.79 132.33 194.37 132.1 194.17C133.59 193.87 134.44 193.4 134.94 192.83H132.23V191.98H135.42C135.49 191.75 135.53 191.54 135.56 191.3H132.75V190.45H135.58V189.85H132.82V187.54H135.58V187.07H133.77V185.65H132.37V184.77H133.77V183.95H134.84V184.77H137.31V183.95H138.43V184.77H139.89V185.65H138.43V187.07H136.66V187.54H139.44V189.85H136.66V190.45H139.62V191.3H136.63C136.61 191.54 136.57 191.76 136.52 191.98H140.09H140.11ZM135.6 189.09V188.29H133.85V189.09H135.6ZM134.86 186.32H137.33V185.65H134.86V186.32ZM136.96 192.87C137.98 193.19 139.38 193.76 140.1 194.15L139.6 195C138.9 194.59 137.53 193.98 136.47 193.62L136.96 192.86V192.87ZM136.67 188.29V189.09H138.4V188.29H136.67Z" fill="#699DC4"/>
<path d="M145.35 186.94C145.07 187.49 144.74 188.04 144.39 188.58V195H143.35V190.05C143 190.51 142.64 190.91 142.29 191.25C142.17 191.01 141.85 190.48 141.65 190.23C142.63 189.32 143.68 187.93 144.34 186.58L145.35 186.94V186.94ZM145.15 184.41C144.38 185.47 143.24 186.71 142.27 187.54C142.16 187.29 141.9 186.86 141.74 186.63C142.57 185.93 143.61 184.83 144.13 183.99L145.15 184.41ZM144.66 194.08C145.09 193.52 145.45 192.6 145.67 191.86L146.51 192.2C146.29 192.97 145.97 193.93 145.5 194.56L144.66 194.08V194.08ZM152.8 191.18H148.95C149.25 191.64 149.6 192.25 149.78 192.61L148.92 192.95C148.74 192.57 148.4 191.92 148.1 191.46L148.87 191.18H145.16V190.28H152.8V191.18ZM148.18 186.55C148.23 186.32 148.26 186.07 148.3 185.81H145.29V184.91H148.4C148.44 184.57 148.46 184.24 148.47 183.96L149.65 184L149.52 184.91H152.75V185.81H149.38C149.34 186.09 149.3 186.33 149.26 186.55H152.34V189.61H145.78V186.55H148.19H148.18ZM147.68 187.38H146.65V188.78H147.68V187.38ZM149.75 193.98C150.11 193.98 150.17 193.85 150.22 192.91C150.42 193.05 150.82 193.2 151.1 193.26C150.99 194.53 150.72 194.84 149.86 194.84H148.22C147.13 194.84 146.87 194.56 146.87 193.68V192.02H147.84V193.66C147.84 193.94 147.92 193.97 148.34 193.97H149.76L149.75 193.98ZM149.53 187.38H148.46V188.78H149.53V187.38ZM150.32 188.78H151.41V187.38H150.32V188.78ZM151.61 191.77C152.1 192.48 152.64 193.41 152.86 194.04L151.97 194.44C151.78 193.82 151.29 192.86 150.78 192.14L151.61 191.78V191.77Z" fill="#699DC4"/>
<path d="M158.01 188.17C157.83 189.87 157.51 191.29 157.01 192.42C158.15 193.49 159.73 193.73 161.63 193.73C162.19 193.73 164.71 193.73 165.41 193.72C165.25 193.96 165.06 194.44 165 194.74H161.61C159.49 194.74 157.81 194.46 156.56 193.34C156.16 194.01 155.7 194.54 155.16 194.96C155 194.74 154.6 194.37 154.36 194.22C154.95 193.81 155.45 193.25 155.85 192.52C155.43 191.92 155.08 191.17 154.79 190.23L155.62 189.92C155.81 190.56 156.03 191.08 156.3 191.54C156.56 190.82 156.77 189.98 156.9 189.03H154.98C155.48 188.15 156.12 186.86 156.64 185.68H154.68V184.71H158.18C157.7 185.77 157.1 187.02 156.59 188.06H157.19L157.39 188.02L158.01 188.19V188.17ZM160.79 185.84H158.62V184.96H160.79V184.02H161.83V184.96H164.43V186.56H165.17V187.44H164.43V189.05H161.83V189.79H164.61V190.63H161.83V191.43H165.02V192.33H161.83V193.35H160.79V192.33H157.98V191.43H160.79V190.63H158.46V189.79H160.79V189.05H158.55V188.17H160.79V187.44H157.9V186.56H160.79V185.84V185.84ZM161.83 185.84V186.56H163.44V185.84H161.83ZM163.44 187.44H161.83V188.17H163.44V187.44Z" fill="#699DC4"/>
<path d="M168.97 185.52C168.6 186.01 168.17 186.47 167.76 186.82C167.6 186.63 167.23 186.24 167.02 186.06C167.73 185.52 168.42 184.71 168.81 183.88L169.79 184.19C169.72 184.35 169.63 184.5 169.55 184.66H172.39V185.52H170.33C170.67 185.83 171.03 186.23 171.22 186.48L170.46 187.08C170.26 186.76 169.8 186.25 169.45 185.89L169.95 185.52H168.97V185.52ZM171.24 192.74C170.48 193.65 169.15 194.44 167.89 194.81C167.72 194.53 167.4 194.13 167.15 193.9C168.35 193.64 169.66 193.06 170.32 192.39L171.24 192.74V192.74ZM173.03 191.32H177.86V192.21H173.03V194.97H171.96V192.21H167.17V191.32H171.96V190.68C171.78 190.51 171.54 190.3 171.37 190.19C172.09 189.94 172.52 189.64 172.8 189.33C172.42 189.15 172.04 188.97 171.71 188.83L172.12 188.18C172.43 188.3 172.79 188.46 173.15 188.61C173.17 188.48 173.19 188.35 173.19 188.21V187.84H171.92V187.07H176.25V189.47C176.25 189.67 176.25 189.79 176.3 189.84C176.34 189.88 176.4 189.89 176.46 189.89H176.72C176.79 189.89 176.86 189.88 176.91 189.85C176.95 189.81 176.99 189.74 177.02 189.6C177.04 189.47 177.06 189.13 177.07 188.72C177.26 188.88 177.57 189.03 177.82 189.12C177.8 189.56 177.75 190.07 177.68 190.25C177.61 190.44 177.49 190.57 177.32 190.66C177.18 190.74 176.94 190.77 176.74 190.77H176.18C175.93 190.77 175.63 190.7 175.46 190.54C175.27 190.37 175.21 190.14 175.21 189.46V187.84H174.12V188.24C174.12 188.49 174.1 188.76 174.02 189.01C174.44 189.2 174.81 189.39 175.09 189.55L174.68 190.29C174.43 190.13 174.07 189.95 173.67 189.75C173.44 190.06 173.12 190.35 172.66 190.59H173.03V191.32V191.32ZM167.24 189.84C167.72 189.78 168.31 189.71 168.95 189.62V187.94H167.38V187.14H171.49V187.94H169.97V189.49C170.46 189.42 170.99 189.35 171.49 189.27L171.53 190.12C170.05 190.35 168.52 190.56 167.37 190.73L167.24 189.83V189.84ZM177.95 184.66V185.52H175.6C175.91 185.81 176.24 186.14 176.4 186.4L175.61 186.98C175.41 186.67 174.99 186.2 174.63 185.85L175.12 185.53H173.91C173.59 186.02 173.2 186.47 172.82 186.8C172.64 186.62 172.23 186.28 171.99 186.13C172.69 185.59 173.3 184.76 173.62 183.89L174.64 184.15C174.57 184.33 174.5 184.49 174.41 184.67H177.95V184.66ZM174.52 192.3C175.56 192.74 176.95 193.43 177.69 193.93L176.9 194.72C176.23 194.22 174.85 193.47 173.78 193.01L174.52 192.3V192.3Z" fill="#699DC4"/>
</svg>
