<?xml version="1.0" encoding="utf-8"?>
<!-- Generator: Adobe Illustrator 26.0.2, SVG Export Plug-In . SVG Version: 6.00 Build 0)  -->
<svg version="1.1" id="圖層_1" xmlns="http://www.w3.org/2000/svg" xmlns:xlink="http://www.w3.org/1999/xlink" x="0px" y="0px"
	 viewBox="0 0 1598.9 938.2" style="enable-background:new 0 0 1598.9 938.2;" xml:space="preserve">
<style type="text/css">
	.st0{fill:url(#SVGID_00000160166210995872756720000012189805911609848218_);}
</style>
<g>
	<defs>
		<path id="SVGID_1_" d="M3424.1-130.8c639.7,0,1279.3,0,1919,0c0,701.7,0,1403.4,0,2105c-22.5,4-44.9,8.2-67.5,12
			c-19.9,3.3-39.8,6.3-59.8,9.2c-27.9,4-55.8,8.1-83.7,11.6c-25.1,3.2-50.3,5.8-75.4,8.3c-34.1,3.4-68.3,6.7-102.5,9.6
			c-21.8,1.8-43.6,3-65.4,4c-24.5,1.2-49.1,2.9-73.7,2.9c-50.9,0-101.8-0.5-152.7-1.7c-25.5-0.6-51-3-76.4-4.8
			c-26.3-1.9-52.6-3.9-78.9-6c-32.4-2.6-64.7-5.4-97-7.9c-19.2-1.5-38.4-2.8-57.5-4.2c-20.7-1.6-41.3-3.2-62-4.9
			c-10.1-0.8-20.2-1.5-30.2-2.4c-21.6-1.8-43.3-3.8-64.9-5.5c-14.2-1.2-28.4-2-42.6-3.1c-18.5-1.5-36.9-3.4-55.3-4.8
			c-12.2-1-24.4-1.4-36.6-2.2c-23.7-1.6-47.3-3.4-71-4.9c-15.7-1-31.5-1.5-47.2-2.2c-24.7-1-49.5-2.9-74.2-2.8
			c-33.6,0.1-67.1,1.7-100.6,2.9c-12.2,0.4-24.3,1-36.4,2.4c-34.2,3.7-68.4,7.5-102.5,11.9c-24.5,3.1-48.9,6.8-73.2,11.1
			c-35.8,6.2-71.6,13.1-107.3,19.9c-7.9,1.5-15.7,3.4-24.2,5.2c0-3.7,0-6.6,0-9.6c0-342.1,0-684.3,0-1026.4c0-332.1,0-664.3,0-996.4
			C3424.2-46.8,3424.1-88.8,3424.1-130.8z"/>
	</defs>
	<clipPath id="SVGID_00000057150344194170469420000008183444980873707906_">
		<use xlink:href="#SVGID_1_"  style="overflow:visible;"/>
	</clipPath>
	<g style="clip-path:url(#SVGID_00000057150344194170469420000008183444980873707906_);">
		
			<image style="overflow:visible;" width="300" height="300" xlink:href="../s6/point.png"  transform="matrix(1 0 0 1 -411.2315 337.0887)">
		</image>
	</g>
	<g style="clip-path:url(#SVGID_00000057150344194170469420000008183444980873707906_);">
		
			<image style="overflow:visible;" width="300" height="300" xlink:href="../s6/point.png"  transform="matrix(1 0 0 1 -111.2315 337.0887)">
		</image>
	</g>
	<g style="clip-path:url(#SVGID_00000057150344194170469420000008183444980873707906_);">
		
			<image style="overflow:visible;" width="300" height="300" xlink:href="../s6/point.png"  transform="matrix(1 0 0 1 188.7685 337.0887)">
		</image>
	</g>
	<g style="clip-path:url(#SVGID_00000057150344194170469420000008183444980873707906_);">
		
			<image style="overflow:visible;" width="300" height="300" xlink:href="../s6/point.png"  transform="matrix(1 0 0 1 488.7685 337.0887)">
		</image>
	</g>
	<g style="clip-path:url(#SVGID_00000057150344194170469420000008183444980873707906_);">
		
			<image style="overflow:visible;" width="300" height="300" xlink:href="../s6/point.png"  transform="matrix(1 0 0 1 788.7686 337.0887)">
		</image>
	</g>
	<g style="clip-path:url(#SVGID_00000057150344194170469420000008183444980873707906_);">
		
			<image style="overflow:visible;" width="300" height="300" xlink:href="../s6/point.png"  transform="matrix(1 0 0 1 1088.7686 337.0887)">
		</image>
	</g>
	<g style="clip-path:url(#SVGID_00000057150344194170469420000008183444980873707906_);">
		
			<image style="overflow:visible;" width="300" height="300" xlink:href="../s6/point.png"  transform="matrix(1 0 0 1 1388.7686 337.0887)">
		</image>
	</g>
	<g style="clip-path:url(#SVGID_00000057150344194170469420000008183444980873707906_);">
		
			<image style="overflow:visible;" width="300" height="300" xlink:href="../s6/point.png"  transform="matrix(1 0 0 1 -411.2315 637.0887)">
		</image>
	</g>
	<g style="clip-path:url(#SVGID_00000057150344194170469420000008183444980873707906_);">
		
			<image style="overflow:visible;" width="300" height="300" xlink:href="../s6/point.png"  transform="matrix(1 0 0 1 -111.2315 637.0887)">
		</image>
	</g>
	<g style="clip-path:url(#SVGID_00000057150344194170469420000008183444980873707906_);">
		
			<image style="overflow:visible;" width="300" height="300" xlink:href="../s6/point.png"  transform="matrix(1 0 0 1 188.7685 637.0887)">
		</image>
	</g>
	<g style="clip-path:url(#SVGID_00000057150344194170469420000008183444980873707906_);">
		
			<image style="overflow:visible;" width="300" height="300" xlink:href="../s6/point.png"  transform="matrix(1 0 0 1 488.7685 637.0887)">
		</image>
	</g>
	<g style="clip-path:url(#SVGID_00000057150344194170469420000008183444980873707906_);">
		
			<image style="overflow:visible;" width="300" height="300" xlink:href="../s6/point.png"  transform="matrix(1 0 0 1 788.7686 637.0887)">
		</image>
	</g>
	<g style="clip-path:url(#SVGID_00000057150344194170469420000008183444980873707906_);">
		
			<image style="overflow:visible;" width="300" height="300" xlink:href="../s6/point.png"  transform="matrix(1 0 0 1 1088.7686 637.0887)">
		</image>
	</g>
	<g style="clip-path:url(#SVGID_00000057150344194170469420000008183444980873707906_);">
		
			<image style="overflow:visible;" width="300" height="300" xlink:href="../s6/point.png"  transform="matrix(1 0 0 1 1388.7686 637.0887)">
		</image>
	</g>
	<g style="clip-path:url(#SVGID_00000057150344194170469420000008183444980873707906_);">
		
			<image style="overflow:visible;" width="300" height="300" xlink:href="../s6/point.png"  transform="matrix(1 0 0 1 -411.2315 937.0887)">
		</image>
	</g>
	<g style="clip-path:url(#SVGID_00000057150344194170469420000008183444980873707906_);">
		
			<image style="overflow:visible;" width="300" height="300" xlink:href="../s6/point.png"  transform="matrix(1 0 0 1 -111.2315 937.0887)">
		</image>
	</g>
	<g style="clip-path:url(#SVGID_00000057150344194170469420000008183444980873707906_);">
		
			<image style="overflow:visible;" width="300" height="300" xlink:href="../s6/point.png"  transform="matrix(1 0 0 1 188.7685 937.0887)">
		</image>
	</g>
	<g style="clip-path:url(#SVGID_00000057150344194170469420000008183444980873707906_);">
		
			<image style="overflow:visible;" width="300" height="300" xlink:href="../s6/point.png"  transform="matrix(1 0 0 1 488.7685 937.0887)">
		</image>
	</g>
	<g style="clip-path:url(#SVGID_00000057150344194170469420000008183444980873707906_);">
		
			<image style="overflow:visible;" width="300" height="300" xlink:href="../s6/point.png"  transform="matrix(1 0 0 1 788.7686 937.0887)">
		</image>
	</g>
	<g style="clip-path:url(#SVGID_00000057150344194170469420000008183444980873707906_);">
		
			<image style="overflow:visible;" width="300" height="300" xlink:href="../s6/point.png"  transform="matrix(1 0 0 1 1088.7686 937.0887)">
		</image>
	</g>
	<g style="clip-path:url(#SVGID_00000057150344194170469420000008183444980873707906_);">
		
			<image style="overflow:visible;" width="300" height="300" xlink:href="../s6/point.png"  transform="matrix(1 0 0 1 1388.7686 937.0887)">
		</image>
	</g>
	<g style="clip-path:url(#SVGID_00000057150344194170469420000008183444980873707906_);">
		
			<image style="overflow:visible;" width="300" height="300" xlink:href="../s6/point.png"  transform="matrix(1 0 0 1 -411.2315 1237.0887)">
		</image>
	</g>
	<g style="clip-path:url(#SVGID_00000057150344194170469420000008183444980873707906_);">
		
			<image style="overflow:visible;" width="300" height="300" xlink:href="../s6/point.png"  transform="matrix(1 0 0 1 -111.2315 1237.0887)">
		</image>
	</g>
	<g style="clip-path:url(#SVGID_00000057150344194170469420000008183444980873707906_);">
		
			<image style="overflow:visible;" width="300" height="300" xlink:href="../s6/point.png"  transform="matrix(1 0 0 1 188.7685 1237.0887)">
		</image>
	</g>
	<g style="clip-path:url(#SVGID_00000057150344194170469420000008183444980873707906_);">
		
			<image style="overflow:visible;" width="300" height="300" xlink:href="../s6/point.png"  transform="matrix(1 0 0 1 488.7685 1237.0887)">
		</image>
	</g>
	<g style="clip-path:url(#SVGID_00000057150344194170469420000008183444980873707906_);">
		
			<image style="overflow:visible;" width="300" height="300" xlink:href="../s6/point.png"  transform="matrix(1 0 0 1 788.7686 1237.0887)">
		</image>
	</g>
	<g style="clip-path:url(#SVGID_00000057150344194170469420000008183444980873707906_);">
		
			<image style="overflow:visible;" width="300" height="300" xlink:href="../s6/point.png"  transform="matrix(1 0 0 1 1088.7686 1237.0887)">
		</image>
	</g>
	<g style="clip-path:url(#SVGID_00000057150344194170469420000008183444980873707906_);">
		
			<image style="overflow:visible;" width="300" height="300" xlink:href="../s6/point.png"  transform="matrix(1 0 0 1 1388.7686 1237.0887)">
		</image>
	</g>
	<g style="clip-path:url(#SVGID_00000057150344194170469420000008183444980873707906_);">
		
			<image style="overflow:visible;" width="300" height="300" xlink:href="../s6/point.png"  transform="matrix(1 0 0 1 -411.2315 1537.0887)">
		</image>
	</g>
	<g style="clip-path:url(#SVGID_00000057150344194170469420000008183444980873707906_);">
		
			<image style="overflow:visible;" width="300" height="300" xlink:href="../s6/point.png"  transform="matrix(1 0 0 1 -111.2315 1537.0887)">
		</image>
	</g>
	<g style="clip-path:url(#SVGID_00000057150344194170469420000008183444980873707906_);">
		
			<image style="overflow:visible;" width="300" height="300" xlink:href="../s6/point.png"  transform="matrix(1 0 0 1 188.7685 1537.0887)">
		</image>
	</g>
	<g style="clip-path:url(#SVGID_00000057150344194170469420000008183444980873707906_);">
		
			<image style="overflow:visible;" width="300" height="300" xlink:href="../s6/point.png"  transform="matrix(1 0 0 1 488.7685 1537.0887)">
		</image>
	</g>
	<g style="clip-path:url(#SVGID_00000057150344194170469420000008183444980873707906_);">
		
			<image style="overflow:visible;" width="300" height="300" xlink:href="../s6/point.png"  transform="matrix(1 0 0 1 788.7686 1537.0887)">
		</image>
	</g>
	<g style="clip-path:url(#SVGID_00000057150344194170469420000008183444980873707906_);">
		
			<image style="overflow:visible;" width="300" height="300" xlink:href="../s6/point.png"  transform="matrix(1 0 0 1 1088.7686 1537.0887)">
		</image>
	</g>
	<g style="clip-path:url(#SVGID_00000057150344194170469420000008183444980873707906_);">
		
			<image style="overflow:visible;" width="300" height="300" xlink:href="../s6/point.png"  transform="matrix(1 0 0 1 1388.7686 1537.0887)">
		</image>
	</g>
	<g style="clip-path:url(#SVGID_00000057150344194170469420000008183444980873707906_);">
		
			<image style="overflow:visible;" width="300" height="300" xlink:href="../s6/point.png"  transform="matrix(1 0 0 1 -411.2315 1837.0887)">
		</image>
	</g>
	<g style="clip-path:url(#SVGID_00000057150344194170469420000008183444980873707906_);">
		
			<image style="overflow:visible;" width="300" height="300" xlink:href="../s6/point.png"  transform="matrix(1 0 0 1 -111.2315 1837.0887)">
		</image>
	</g>
	<g style="clip-path:url(#SVGID_00000057150344194170469420000008183444980873707906_);">
		
			<image style="overflow:visible;" width="300" height="300" xlink:href="../s6/point.png"  transform="matrix(1 0 0 1 188.7685 1837.0887)">
		</image>
	</g>
	<g style="clip-path:url(#SVGID_00000057150344194170469420000008183444980873707906_);">
		
			<image style="overflow:visible;" width="300" height="300" xlink:href="../s6/point.png"  transform="matrix(1 0 0 1 488.7685 1837.0887)">
		</image>
	</g>
	<g style="clip-path:url(#SVGID_00000057150344194170469420000008183444980873707906_);">
		
			<image style="overflow:visible;" width="300" height="300" xlink:href="../s6/point.png"  transform="matrix(1 0 0 1 788.7686 1837.0887)">
		</image>
	</g>
	<g style="clip-path:url(#SVGID_00000057150344194170469420000008183444980873707906_);">
		
			<image style="overflow:visible;" width="300" height="300" xlink:href="../s6/point.png"  transform="matrix(1 0 0 1 1088.7686 1837.0887)">
		</image>
	</g>
	<g style="clip-path:url(#SVGID_00000057150344194170469420000008183444980873707906_);">
		
			<image style="overflow:visible;" width="300" height="300" xlink:href="../s6/point.png"  transform="matrix(1 0 0 1 1388.7686 1837.0887)">
		</image>
	</g>
	<g style="clip-path:url(#SVGID_00000057150344194170469420000008183444980873707906_);">
		
			<image style="overflow:visible;" width="300" height="300" xlink:href="../s6/point.png"  transform="matrix(1 0 0 1 -411.2315 2137.0889)">
		</image>
	</g>
	<g style="clip-path:url(#SVGID_00000057150344194170469420000008183444980873707906_);">
		
			<image style="overflow:visible;" width="300" height="300" xlink:href="../s6/point.png"  transform="matrix(1 0 0 1 -111.2315 2137.0889)">
		</image>
	</g>
	<g style="clip-path:url(#SVGID_00000057150344194170469420000008183444980873707906_);">
		
			<image style="overflow:visible;" width="300" height="300" xlink:href="../s6/point.png"  transform="matrix(1 0 0 1 188.7685 2137.0889)">
		</image>
	</g>
	<g style="clip-path:url(#SVGID_00000057150344194170469420000008183444980873707906_);">
		
			<image style="overflow:visible;" width="300" height="300" xlink:href="../s6/point.png"  transform="matrix(1 0 0 1 488.7685 2137.0889)">
		</image>
	</g>
	<g style="clip-path:url(#SVGID_00000057150344194170469420000008183444980873707906_);">
		
			<image style="overflow:visible;" width="300" height="300" xlink:href="../s6/point.png"  transform="matrix(1 0 0 1 788.7686 2137.0889)">
		</image>
	</g>
	<g style="clip-path:url(#SVGID_00000057150344194170469420000008183444980873707906_);">
		
			<image style="overflow:visible;" width="300" height="300" xlink:href="../s6/point.png"  transform="matrix(1 0 0 1 1088.7686 2137.0889)">
		</image>
	</g>
	<g style="clip-path:url(#SVGID_00000057150344194170469420000008183444980873707906_);">
		
			<image style="overflow:visible;" width="300" height="300" xlink:href="../s6/point.png"  transform="matrix(1 0 0 1 1388.7686 2137.0889)">
		</image>
	</g>
	<g style="clip-path:url(#SVGID_00000057150344194170469420000008183444980873707906_);">
		
			<image style="overflow:visible;" width="300" height="300" xlink:href="../s6/point.png"  transform="matrix(1 0 0 1 -411.2315 2437.0889)">
		</image>
	</g>
	<g style="clip-path:url(#SVGID_00000057150344194170469420000008183444980873707906_);">
		
			<image style="overflow:visible;" width="300" height="300" xlink:href="../s6/point.png"  transform="matrix(1 0 0 1 -111.2315 2437.0889)">
		</image>
	</g>
	<g style="clip-path:url(#SVGID_00000057150344194170469420000008183444980873707906_);">
		
			<image style="overflow:visible;" width="300" height="300" xlink:href="../s6/point.png"  transform="matrix(1 0 0 1 188.7685 2437.0889)">
		</image>
	</g>
	<g style="clip-path:url(#SVGID_00000057150344194170469420000008183444980873707906_);">
		
			<image style="overflow:visible;" width="300" height="300" xlink:href="../s6/point.png"  transform="matrix(1 0 0 1 488.7685 2437.0889)">
		</image>
	</g>
	<g style="clip-path:url(#SVGID_00000057150344194170469420000008183444980873707906_);">
		
			<image style="overflow:visible;" width="300" height="300" xlink:href="../s6/point.png"  transform="matrix(1 0 0 1 788.7686 2437.0889)">
		</image>
	</g>
	<g style="clip-path:url(#SVGID_00000057150344194170469420000008183444980873707906_);">
		
			<image style="overflow:visible;" width="300" height="300" xlink:href="../s6/point.png"  transform="matrix(1 0 0 1 1088.7686 2437.0889)">
		</image>
	</g>
	<g style="clip-path:url(#SVGID_00000057150344194170469420000008183444980873707906_);">
		
			<image style="overflow:visible;" width="300" height="300" xlink:href="../s6/point.png"  transform="matrix(1 0 0 1 1388.7686 2437.0889)">
		</image>
	</g>
</g>
<g>
	<g>
		
			<linearGradient id="SVGID_00000007428738562982933290000005626292880195621021_" gradientUnits="userSpaceOnUse" x1="1731.5753" y1="537.4478" x2="61.7881" y2="414.8946">
			<stop  offset="0.2502" style="stop-color:#163E46"/>
			<stop  offset="1" style="stop-color:#0C7049"/>
		</linearGradient>
		<path style="fill:url(#SVGID_00000007428738562982933290000005626292880195621021_);" d="M1598.9,3.9c0,296.3,0,592.7,0,889
			c-8.8,1.4-17.6,2.9-26.4,4.3c-19.9,3.2-39.8,6.5-59.8,9.4c-17,2.5-34.1,4.6-51.2,6.8c-19,2.5-38,5.1-57.1,7.3
			c-17.3,2-34.6,3.5-51.9,5.1c-24.6,2.3-49.1,4.7-73.7,6.5c-23.3,1.8-46.6,3.1-70,4.2c-18.2,0.9-36.5,1.3-54.8,1.5
			c-20.7,0.2-41.3,0.2-62,0c-20.1-0.1-40.3-0.3-60.4-0.9c-13.1-0.4-26.1-1.6-39.1-2.5c-9.6-0.6-19.2-1-28.8-1.7
			c-17.7-1.3-35.3-2.8-52.9-4.1c-8.8-0.7-17.6-1-26.3-1.7c-13-1-26-2.2-39-3.2c-8.4-0.7-16.9-1.1-25.3-1.7
			c-13.2-1-26.4-2.2-39.6-3.3c-8.6-0.7-17.2-1.1-25.8-1.8c-16.3-1.3-32.6-2.8-49-4.1c-11.9-0.9-23.8-1.5-35.7-2.5
			c-20-1.6-39.9-3.4-59.9-4.9c-13.5-1-27.1-1.7-40.7-2.7c-22-1.6-43.9-3.4-65.9-4.9c-18-1.3-36.1-2.4-54.1-3.3
			c-19.6-1-39.2-2.1-58.8-2.3c-27.1-0.3-54.3-0.1-81.4,0.6c-16.4,0.4-32.7,2.3-49,3.4c-11.1,0.8-22.2,1.1-33.3,2.3
			c-18.4,2-36.8,4.3-55.2,6.8c-24.9,3.4-49.9,6.8-74.7,10.9c-26.1,4.3-52.1,9.4-78.2,14.1c-6.1,1.1-12.3,2.3-18.8,3.5
			C0.2,932,0,930.3,0,928.7c0-35.3,0-70.6,0-106c0-108.1,0.1-216.3,0.1-324.4c0-112.6,0-225.3,0-337.9c0-36.7,0-73.3,0-110
			c0-2.6-0.1-4.8,3.5-5.4c18.5-2.9,36.9-6.2,55.4-9c23.7-3.6,47.5-7,71.2-10.1c26.4-3.5,52.8-6.8,79.3-9.8
			c22.7-2.6,45.4-4.8,68.2-6.8c22.6-2,45.3-3.7,67.9-5c29.7-1.7,59.3-3.1,89-4c21.1-0.6,42.1-0.4,63.2-0.2
			c22.5,0.1,44.9,0.5,67.4,0.9c6.8,0.1,13.6,0.5,20.3,1c14.2,1,28.4,2.2,42.6,3.2c13.6,1,27.1,1.7,40.7,2.7c17,1.3,34,2.7,51,4
			c12.2,0.9,24.5,1.6,36.8,2.5c13.5,1,27,2.3,40.5,3.4c8.1,0.6,16.2,1,24.3,1.6c13.4,1.1,26.7,2.3,40.1,3.4
			c8.1,0.6,16.3,0.9,24.4,1.6c16.2,1.3,32.3,2.9,48.5,4.2c16.4,1.3,32.7,2.3,49.1,3.4c18.3,1.3,36.7,2.7,55,4
			c9.1,0.7,18.2,1.3,27.3,1.9c14.5,1,29.1,2.1,43.6,3.1c11.9,0.7,23.9,1.2,35.8,1.9c20.2,1.1,40.4,2.7,60.6,3
			c25.6,0.3,51.2-0.3,76.8-0.9c14.8-0.3,29.5-1,44.3-2.2c24.1-2,48.1-4.1,72.1-6.8c25.3-2.9,50.6-6.3,75.8-10
			c19.6-2.8,39.2-6.1,58.7-9.6C1555.3,12.4,1577.1,8,1598.9,3.9z"/>
	</g>
</g>
</svg>
