<?xml version="1.0" encoding="utf-8"?>
<!-- Generator: Adobe Illustrator 26.0.2, SVG Export Plug-In . SVG Version: 6.00 Build 0)  -->
<svg version="1.1" id="圖層_1" xmlns="http://www.w3.org/2000/svg" xmlns:xlink="http://www.w3.org/1999/xlink" x="0px" y="0px"
	 viewBox="0 0 750.5 1414.9" style="enable-background:new 0 0 750.5 1414.9;" xml:space="preserve">
<style type="text/css">
	.st0{fill:url(#SVGID_1_);}
	.st1{fill:url(#SVGID_00000093858352893107102820000012407934369871997317_);}
</style>
<g>
	<linearGradient id="SVGID_1_" gradientUnits="userSpaceOnUse" x1="710.8953" y1="1572.4307" x2="217.6187" y2="304.0052">
		<stop  offset="0" style="stop-color:#163E46"/>
		<stop  offset="1" style="stop-color:#0C7049"/>
	</linearGradient>
	<path class="st0" d="M0,1413.8c8.5-1.9,15.9-3.8,23.4-5.3c8.1-1.6,16.3-2.7,24.4-4c8.7-1.4,17.5-3,26.2-4
		c10.6-1.2,21.2-2.3,31.7-3.8c13-1.8,26.4-2.3,39.5-2c25.3,0.6,50.6-2.1,75.8,1.7c10.3,1.6,20.9-0.6,31.4,1.9
		c8.8,2.1,18.1-0.3,27.4,1.9c9.1,2.1,18.9-0.1,28.4,2.2c8.2,1.9,16.8-0.5,25.4,1.9c8.2,2.2,17.2,1.7,25.9,2.4
		c8.3,0.6,16.7,1.3,25,1.9c9,0.7,18,1.5,27,2.1c9,0.6,17.9,0.1,26.9,1.6c13.1,2.2,26.6,2.4,39.9,2.2c36.5-0.7,73,2.3,109.4-1.6
		c10.3-1.1,20.6,0.3,31-1.8c12.6-2.5,25.6-2.9,38.4-4.3c11.5-1.3,23-2.6,34.5-4.1c9-1.2,18-2.6,26.9-3.9c9.1-1.3,18.2-2.9,27.4-3.9
		c3.6-0.4,4.4-1.8,4.4-5c0-34.2,0.1-68.5,0.1-102.7c0-44.2-0.2-88.5-0.2-132.7c0-30.4,0-60.8,0-91.3c0-41.6,0-83.2,0-124.7
		c0-48.7,0.2-97.5,0.2-146.2c0-29.8-0.2-59.6-0.2-89.3c0-45.1,0-90.2,0-135.2c0-30.4,0.1-60.8,0.2-91.3c0-52.6-0.1-105.1-0.1-157.7
		c0-31.3,0-62.6,0-93.8c0-58.9-0.1-117.8-0.1-176.7c0-13.8-0.1-27.6,0-41.4c0-3-0.6-5.1-4.1-4.4c-3.1,0.6-6.2,1.4-9.3,2.1
		c-8.8,1.9-17.6,4-26.5,5.8c-7.9,1.6-15.9,2.9-23.8,4c-10.3,1.5-20.6,2.7-30.9,4c-6.4,0.8-12.9,1.5-19.4,2.1
		c-9.6,0.8-19.3,2.2-28.9,1.9c-20.6-0.6-41.2,2.1-61.8-1.6c-11.1-2-22.4,0.9-33.9-1.9c-10-2.4-20.9-1.4-31.3-2.3
		c-8.5-0.7-16.8,0.5-25.5-1.6c-8.7-2.1-18.2,0.3-27.3-2.1c-7.7-2-15.7,0.4-23.9-1.7c-8.8-2.3-18.5-0.1-27.8-2.3
		c-7.7-1.8-15.9-1.5-23.9-2.1c-9-0.7-18-1.3-27-2c-9-0.7-18-1.4-27-2c-11.3-0.8-22.7-2.3-34-1.9c-26.6,0.9-53.2-2.3-79.8,1.7
		c-12.8,1.9-26-0.7-38.9,2.1c-4.9,1.1-10.3-0.3-15.4,0.3c-10.1,1.1-20.2,2.9-30.3,4c-8.5,0.9-17,1.3-25.4,1.9c-0.3,0-0.6,0.2-1,0.2
		c-7.2,1.3-14.3,2.9-21.5,3.8c-7.3,1-14.6,1.4-21.9,2.1c-0.5,0-0.9,0.3-1.4,0.4c-6.5,1.1-12.9,2.7-19.5,3.2C2.2,20.6,0.1,22,0,28.5
		C0,41.3,0,54.1,0,66.9c0.1,41.1,0.3,82.2,0.3,123.3c0,32.4-0.2,64.9-0.3,97.3c0,30.8,0.2,61.6,0.2,92.3c0,39.8-0.1,79.5-0.1,119.3
		c0,32.6,0.2,65.2,0.1,97.8c0,34.4-0.2,68.9-0.2,103.3c0,42.1,0.2,84.2,0.2,126.3c0,45.1-0.1,90.2-0.2,135.2
		c0,55.6,0.1,111.2,0.1,166.7c0,49.4-0.1,98.9-0.1,148.3c0,29,0,57.9,0,86.9C0,1380,0,1396.2,0,1413.8z"/>
	
		<linearGradient id="SVGID_00000172402898811842767590000017627398438989414050_" gradientUnits="userSpaceOnUse" x1="710.8953" y1="1572.4307" x2="217.6187" y2="304.0052">
		<stop  offset="0" style="stop-color:#163E46"/>
		<stop  offset="1" style="stop-color:#0C7049"/>
	</linearGradient>
	<path style="fill:url(#SVGID_00000172402898811842767590000017627398438989414050_);" d="M0,1413.8c0-17.6,0-33.9,0-50.2
		c0-29,0-57.9,0-86.9c0-49.4,0.1-98.9,0.1-148.3c0-55.6-0.1-111.2-0.1-166.7c0-45.1,0.2-90.2,0.2-135.2c0-42.1-0.2-84.2-0.2-126.3
		c0-34.4,0.2-68.9,0.2-103.3c0-32.6-0.1-65.2-0.1-97.8c0-39.8,0.1-79.5,0.1-119.3c0-30.8-0.2-61.6-0.2-92.3
		c0-32.4,0.3-64.9,0.3-97.3C0.3,149.1,0.1,108,0,66.9c0-12.8,0-25.6,0-38.4c0-6.5,2.2-7.9,8.8-8.4c6.5-0.5,13-2.1,19.5-3.2
		c0.5-0.1,0.9-0.4,1.4-0.4c7.3-0.7,14.6-1.1,21.9-2.1c7.2-1,14.4-2.5,21.5-3.8c0.3-0.1,0.6-0.2,1-0.2c8.5-0.6,17-1,25.4-1.9
		c10.1-1.1,20.2-3,30.3-4c5.1-0.5,10.5,0.8,15.4-0.3c12.9-2.8,26.1-0.2,38.9-2.1c26.6-3.9,53.2-0.8,79.8-1.7
		c11.3-0.4,22.7,1.2,34,1.9c9,0.6,18,1.3,27,2c9,0.7,18,1.3,27,2c8,0.6,16.2,0.3,23.9,2.1c9.3,2.2,19,0,27.8,2.3
		c8.2,2.1,16.3-0.3,23.9,1.7c9.2,2.4,18.7,0,27.3,2.1c8.6,2.1,17,0.9,25.5,1.6c10.4,0.9,21.3-0.1,31.3,2.3
		c11.4,2.7,22.8-0.1,33.9,1.9c20.6,3.7,41.2,1,61.8,1.6c9.6,0.3,19.3-1.1,28.9-1.9c6.5-0.5,12.9-1.3,19.4-2.1
		c10.3-1.3,20.6-2.5,30.9-4c8-1.1,15.9-2.5,23.8-4c8.9-1.7,17.7-3.8,26.5-5.8c3.1-0.7,6.2-1.5,9.3-2.1c3.5-0.6,4.1,1.4,4.1,4.4
		c-0.1,13.8-0.1,27.6,0,41.4c0,58.9,0.1,117.8,0.1,176.7c0,31.3,0,62.6,0,93.8c0,52.6,0.1,105.1,0.1,157.7c0,30.4-0.1,60.8-0.2,91.3
		c0,45.1-0.1,90.2,0,135.2c0,29.8,0.2,59.6,0.2,89.3c0,48.7-0.2,97.5-0.2,146.2c0,41.6,0,83.2,0,124.7c0,30.4-0.1,60.8,0,91.3
		c0,44.2,0.2,88.5,0.2,132.7c0,34.2-0.1,68.5-0.1,102.7c0,3.2-0.8,4.6-4.4,5c-9.2,1-18.3,2.6-27.4,3.9c-9,1.3-17.9,2.7-26.9,3.9
		c-11.5,1.5-23,2.8-34.5,4.1c-12.8,1.4-25.8,1.8-38.4,4.3c-10.4,2.1-20.7,0.7-31,1.8c-36.4,3.9-72.9,1-109.4,1.6
		c-13.3,0.2-26.8,0-39.9-2.2c-9.1-1.5-18-1-26.9-1.6c-9-0.6-18-1.4-27-2.1c-8.3-0.6-16.7-1.3-25-1.9c-8.7-0.7-17.7-0.1-25.9-2.4
		c-8.6-2.3-17.2,0.1-25.4-1.9c-9.5-2.2-19.3,0-28.4-2.2c-9.3-2.2-18.6,0.2-27.4-1.9c-10.5-2.5-21.1-0.4-31.4-1.9
		c-25.2-3.8-50.6-1.1-75.8-1.7c-13.2-0.3-26.5,0.2-39.5,2c-10.6,1.5-21.1,2.6-31.7,3.8c-8.8,1-17.5,2.6-26.2,4
		c-8.1,1.3-16.3,2.5-24.4,4C15.9,1410,8.5,1411.9,0,1413.8z"/>
</g>
</svg>
