<svg xmlns="http://www.w3.org/2000/svg" width="35.046" height="271.963" viewBox="0 0 35.046 271.963">
  <g id="Group_31" data-name="Group 31" transform="translate(-3365.014 -2018.979)">
    <g id="Group_30" data-name="Group 30">
      <path id="Path_457" data-name="Path 457" d="M3391.652,2023.974c5.268,0,6.028-.1,6.382-3.09l.1-.81c.2-.3,1.114-.2,1.266.1-.1,2.178-.152,3.9-.152,5.976v9.521a68,68,0,0,0,.152,6.837,56.934,56.934,0,0,1-6.736.811,1,1,0,0,1-.1-1.266c2.379-.76,4.152-1.216,4.81-3.849a24.114,24.114,0,0,0,.3-4.913v-3.646c0-1.519-.1-1.519-2.027-1.519h-10.129c-1.418,0-1.418.151-1.418,1.671v2.937a18.829,18.829,0,0,0,.3,4.305c.2.608.507.962,1.773,1.215l2.077.405a1,1,0,0,1-.051,1.317c-1.216,0-3.19-.2-5.115-.2-1.823,0-3.748.2-4.862.2a1,1,0,0,1-.05-1.317l1.974-.455a2.166,2.166,0,0,0,1.925-1.57,16.99,16.99,0,0,0,.253-3.9V2029.8c0-1.52-.051-1.671-1.367-1.671h-7.141c-2.684,0-4.406.151-5.267.962-.608.607-1.164,1.671-1.164,6.128,0,3.9.2,5.368.759,6.482.506.912,2.279,2.279,4.912,3.6a.931.931,0,0,1-.354,1.266,44.262,44.262,0,0,1-7.04-2.279c.1-4.558.152-9.065.152-13.573v-4.558c0-2.177-.051-3.9-.152-6.887a.986.986,0,0,1,1.267-.1l.151,1.672c.254,2.887,1.014,3.14,6.331,3.14Z" fill="#182c80"/>
      <path id="Path_458" data-name="Path 458" d="M3365.014,2068.544a15.805,15.805,0,0,1,1.874-7.9,23.362,23.362,0,0,1,7.09-1.367c.354.253.456,1.013.152,1.215-2.583.76-7.546,2.836-7.546,8.711,0,4.254,2.785,6.33,5.824,6.33,2.229,0,4.71-.456,7.09-4.153l3.14-4.811c1.672-2.532,4.558-5.469,8.711-5.469,4.811,0,8.711,3.747,8.711,10.331a19.544,19.544,0,0,1-.659,4.71,6.78,6.78,0,0,0-.3,1.773,22.2,22.2,0,0,1-6.179.911c-.3-.2-.456-1.013-.152-1.266,2.43-.658,5.722-2.026,5.722-6.888,0-4.962-3.292-6.026-5.621-6.026-2.937,0-5.064,2.431-6.229,4.3l-2.533,4.051c-1.974,3.191-4.912,6.331-9.723,6.331C3368.813,2079.332,3365.014,2075.128,3365.014,2068.544Z" fill="#182c80"/>
      <path id="Path_459" data-name="Path 459" d="M3365.014,2103.441a15.805,15.805,0,0,1,1.874-7.9,23.37,23.37,0,0,1,7.09-1.367c.354.253.456,1.013.152,1.215-2.583.76-7.546,2.836-7.546,8.711,0,4.254,2.785,6.33,5.824,6.33,2.229,0,4.71-.456,7.09-4.153l3.14-4.811c1.672-2.532,4.558-5.469,8.711-5.469,4.811,0,8.711,3.747,8.711,10.331a19.544,19.544,0,0,1-.659,4.71,6.78,6.78,0,0,0-.3,1.773,22.187,22.187,0,0,1-6.179.911c-.3-.2-.456-1.013-.152-1.266,2.43-.658,5.722-2.026,5.722-6.888,0-4.962-3.292-6.026-5.621-6.026-2.937,0-5.064,2.431-6.229,4.3l-2.533,4.051c-1.974,3.191-4.912,6.331-9.723,6.331C3368.813,2114.229,3365.014,2110.025,3365.014,2103.441Z" fill="#182c80"/>
      <path id="Path_460" data-name="Path 460" d="M3391.652,2133.477c5.268,0,6.028-.1,6.382-3.089l.1-.811c.2-.3,1.114-.2,1.266.1-.1,2.177-.152,3.9-.152,5.976v9.521a68.015,68.015,0,0,0,.152,6.837,57.152,57.152,0,0,1-6.736.81,1,1,0,0,1-.1-1.266c2.379-.76,4.152-1.216,4.81-3.849a24.115,24.115,0,0,0,.3-4.913v-3.646c0-1.519-.1-1.519-2.027-1.519h-10.129c-1.418,0-1.418.152-1.418,1.671v2.937a18.828,18.828,0,0,0,.3,4.3c.2.608.507.962,1.773,1.215l2.077.406a1,1,0,0,1-.051,1.316c-1.216,0-3.19-.2-5.115-.2-1.823,0-3.748.2-4.862.2a1,1,0,0,1-.05-1.316l1.974-.456a2.166,2.166,0,0,0,1.925-1.57,16.989,16.989,0,0,0,.253-3.9V2139.3c0-1.519-.051-1.671-1.367-1.671h-7.141c-2.684,0-4.406.152-5.267.962-.608.608-1.164,1.671-1.164,6.128,0,3.9.2,5.368.759,6.482.506.912,2.279,2.279,4.912,3.6a.931.931,0,0,1-.354,1.266,44.139,44.139,0,0,1-7.04-2.279c.1-4.558.152-9.065.152-13.573v-4.557c0-2.178-.051-3.9-.152-6.888a.984.984,0,0,1,1.267-.1l.151,1.671c.254,2.887,1.014,3.14,6.331,3.14Z" fill="#182c80"/>
      <path id="Path_461" data-name="Path 461" d="M3374.434,2200.432c-1.52,0-7.546,0-8.863.152a.914.914,0,0,1-.557-.962c.861-.608,2.633-2.077,7.647-6.483l13.37-11.749c1.571-1.367,5.723-4.811,6.837-5.875v-.1a12.838,12.838,0,0,0-3.292-.253h-11.04c-2.381,0-8.964.05-10.483.912-.558.3-.862,1.316-.963,2.582l-.151,1.57a.928.928,0,0,1-1.267-.1c.1-2.279.152-4.051.152-5.925,0-2.127-.051-3.495-.152-5.267a.94.94,0,0,1,1.267-.1l.151,1.368c.152,1.165.456,1.975,1.014,2.228,1.823.709,8,.659,10.432.659h14.636a4.644,4.644,0,0,0,3.646-1.115,5.492,5.492,0,0,0,1.216-3.14l.1-.86a.886.886,0,0,1,1.266.1c-.152,2.127-.152,4.811-.152,5.723a16.417,16.417,0,0,0,.152,2.329c-2.583,1.013-9.268,6.989-11.141,8.66l-5.521,4.913c-3.9,3.494-6.735,5.976-9.167,8.356v.1a5.109,5.109,0,0,0,2.128.2h10.837c2.381,0,8.965-.051,10.484-1.013.456-.3.759-1.114,1.013-3.14l.1-.861c.3-.354,1.114-.3,1.266.1-.1,2.33-.152,4.052-.152,5.976,0,2.178.051,3.5.152,5.217a.89.89,0,0,1-1.266.1l-.1-.709c-.254-1.621-.659-2.633-1.063-2.836-1.824-.861-8.1-.76-10.434-.76Z" fill="#182c80"/>
      <path id="Path_462" data-name="Path 462" d="M3395.755,2225.1a21.822,21.822,0,0,1,4.305,13.674,39.1,39.1,0,0,1-1.216,8.964,3.806,3.806,0,0,0-.2,1.418c-1.165.051-4.356.3-7.445.709a1.068,1.068,0,0,1-.1-1.367c3.443-.76,7.393-3.039,7.393-10.382,0-7.749-4.912-14.333-15.4-14.333-10.635,0-16.51,6.736-16.51,15.042a10.8,10.8,0,0,0,7.242,10.584,1.064,1.064,0,0,1-.2,1.317,19.017,19.017,0,0,1-6.938-2.431,10.231,10.231,0,0,0-.506-1.772,29.817,29.817,0,0,1-1.165-8,22.192,22.192,0,0,1,3.393-12.611,16.326,16.326,0,0,1,13.927-7.191A16.822,16.822,0,0,1,3395.755,2225.1Z" fill="#182c80"/>
      <path id="Path_463" data-name="Path 463" d="M3391.652,2268.355c5.268,0,6.028-.1,6.382-3.09l.1-.81c.2-.3,1.114-.2,1.266.1-.1,2.178-.152,3.9-.152,5.977v9.521a67.98,67.98,0,0,0,.152,6.836,56.644,56.644,0,0,1-6.736.811,1,1,0,0,1-.1-1.266c2.379-.76,4.152-1.215,4.81-3.849a24.107,24.107,0,0,0,.3-4.912v-3.647c0-1.519-.1-1.519-2.027-1.519h-10.129c-1.418,0-1.418.151-1.418,1.671v2.938a18.823,18.823,0,0,0,.3,4.3c.2.608.507.962,1.773,1.216l2.077.405a1,1,0,0,1-.051,1.316c-1.216,0-3.19-.2-5.115-.2-1.823,0-3.748.2-4.862.2a1,1,0,0,1-.05-1.316l1.974-.456a2.165,2.165,0,0,0,1.925-1.57,16.982,16.982,0,0,0,.253-3.9v-2.938c0-1.52-.051-1.671-1.367-1.671h-7.141c-2.684,0-4.406.151-5.267.962-.608.607-1.164,1.671-1.164,6.128,0,3.9.2,5.368.759,6.482.506.912,2.279,2.279,4.912,3.6a.931.931,0,0,1-.354,1.266,44.065,44.065,0,0,1-7.04-2.279c.1-4.558.152-9.065.152-13.572v-4.558c0-2.178-.051-3.9-.152-6.888a.984.984,0,0,1,1.267-.1l.151,1.671c.254,2.887,1.014,3.14,6.331,3.14Z" fill="#182c80"/>
    </g>
  </g>
</svg>
