<svg xmlns="http://www.w3.org/2000/svg" xmlns:xlink="http://www.w3.org/1999/xlink" viewBox="0 0 416.25 413.89"><defs><style>.cls-1{opacity:0.4;}.cls-1,.cls-43{fill:url(#linear-gradient);}.cls-2{fill:url(#linear-gradient-2);}.cls-3{fill:url(#linear-gradient-3);}.cls-4{fill:url(#linear-gradient-4);}.cls-5{fill:url(#linear-gradient-5);}.cls-6{fill:url(#linear-gradient-6);}.cls-7{fill:url(#linear-gradient-7);}.cls-8{fill:url(#linear-gradient-8);}.cls-9{fill:url(#linear-gradient-9);}.cls-10{fill:url(#linear-gradient-10);}.cls-11{fill:url(#linear-gradient-11);}.cls-12{fill:url(#linear-gradient-12);}.cls-13{fill:url(#linear-gradient-13);}.cls-14{fill:url(#linear-gradient-14);}.cls-15{fill:url(#linear-gradient-15);}.cls-16{fill:url(#linear-gradient-16);}.cls-17{fill:url(#linear-gradient-17);}.cls-18{fill:url(#linear-gradient-18);}.cls-19{fill:url(#linear-gradient-19);}.cls-20{fill:url(#linear-gradient-20);}.cls-21{fill:url(#linear-gradient-21);}.cls-22{fill:url(#linear-gradient-22);}.cls-23{fill:url(#linear-gradient-23);}.cls-24{fill:url(#linear-gradient-24);}.cls-25{fill:url(#linear-gradient-25);}.cls-26{fill:url(#linear-gradient-26);}.cls-27{fill:url(#linear-gradient-27);}.cls-28{fill:url(#linear-gradient-28);}.cls-29{fill:url(#linear-gradient-29);}.cls-30{fill:url(#linear-gradient-30);}.cls-31{fill:url(#linear-gradient-31);}.cls-32{fill:url(#linear-gradient-32);}.cls-33{fill:url(#linear-gradient-33);}.cls-34{fill:url(#linear-gradient-34);}.cls-35{fill:url(#linear-gradient-35);}.cls-36{fill:url(#linear-gradient-36);}.cls-37{fill:url(#linear-gradient-37);}.cls-38{fill:url(#linear-gradient-38);}.cls-39{fill:url(#linear-gradient-39);}.cls-40{fill:url(#linear-gradient-40);}.cls-41{fill:url(#linear-gradient-41);}.cls-42{fill:url(#linear-gradient-42);}</style><linearGradient id="linear-gradient" x1="1281.11" y1="6080.11" x2="1281.11" y2="5674.33" gradientTransform="matrix(-0.82, 0.57, -0.57, -0.82, 4628.6, 4286.74)" gradientUnits="userSpaceOnUse"><stop offset="0" stop-color="#dde6e3"/><stop offset="0.23" stop-color="#b9d1da"/><stop offset="1" stop-color="#1496ba"/></linearGradient><linearGradient id="linear-gradient-2" x1="1274.28" y1="5885.6" x2="1274.28" y2="5872.18" xlink:href="#linear-gradient"/><linearGradient id="linear-gradient-3" x1="1274.6" y1="5890.27" x2="1274.6" y2="5867.09" xlink:href="#linear-gradient"/><linearGradient id="linear-gradient-4" x1="1275.03" y1="5895.27" x2="1275.03" y2="5861.93" xlink:href="#linear-gradient"/><linearGradient id="linear-gradient-5" x1="1275.46" y1="5899.92" x2="1275.46" y2="5856.58" xlink:href="#linear-gradient"/><linearGradient id="linear-gradient-6" x1="1275.97" y1="5904.98" x2="1275.97" y2="5851.28" xlink:href="#linear-gradient"/><linearGradient id="linear-gradient-7" x1="1276.39" y1="5909.84" x2="1276.39" y2="5845.65" xlink:href="#linear-gradient"/><linearGradient id="linear-gradient-8" x1="1276.81" y1="5914.65" x2="1276.81" y2="5839.96" xlink:href="#linear-gradient"/><linearGradient id="linear-gradient-9" x1="1277.09" y1="5919.35" x2="1277.09" y2="5833.5" xlink:href="#linear-gradient"/><linearGradient id="linear-gradient-10" x1="1276.63" y1="5924.4" x2="1276.63" y2="5827.47" xlink:href="#linear-gradient"/><linearGradient id="linear-gradient-11" x1="1276.53" y1="5929.28" x2="1276.53" y2="5821.42" xlink:href="#linear-gradient"/><linearGradient id="linear-gradient-12" x1="1276.22" y1="5933.85" x2="1276.22" y2="5815.43" xlink:href="#linear-gradient"/><linearGradient id="linear-gradient-13" x1="1275.91" y1="5938.19" x2="1275.91" y2="5809.55" xlink:href="#linear-gradient"/><linearGradient id="linear-gradient-14" x1="1275.85" y1="5943.6" x2="1275.85" y2="5803.95" xlink:href="#linear-gradient"/><linearGradient id="linear-gradient-15" x1="1275.66" y1="5948.31" x2="1275.66" y2="5798.58" xlink:href="#linear-gradient"/><linearGradient id="linear-gradient-16" x1="1275.66" y1="5953.07" x2="1275.66" y2="5793.8" xlink:href="#linear-gradient"/><linearGradient id="linear-gradient-17" x1="1275.22" y1="5957.87" x2="1275.22" y2="5789.68" xlink:href="#linear-gradient"/><linearGradient id="linear-gradient-18" x1="1275.23" y1="5962.81" x2="1275.23" y2="5786.31" xlink:href="#linear-gradient"/><linearGradient id="linear-gradient-19" x1="1275.42" y1="5967.85" x2="1275.42" y2="5783.46" xlink:href="#linear-gradient"/><linearGradient id="linear-gradient-20" x1="1275.6" y1="5972.94" x2="1275.6" y2="5780.45" xlink:href="#linear-gradient"/><linearGradient id="linear-gradient-21" x1="1275.81" y1="5978.01" x2="1275.81" y2="5777.41" xlink:href="#linear-gradient"/><linearGradient id="linear-gradient-22" x1="1275.98" y1="5983.11" x2="1275.98" y2="5774.16" xlink:href="#linear-gradient"/><linearGradient id="linear-gradient-23" x1="1275.94" y1="5988.12" x2="1275.94" y2="5770.51" xlink:href="#linear-gradient"/><linearGradient id="linear-gradient-24" x1="1275.97" y1="5993.23" x2="1275.97" y2="5766.51" xlink:href="#linear-gradient"/><linearGradient id="linear-gradient-25" x1="1276.82" y1="5997.8" x2="1276.82" y2="5761.87" xlink:href="#linear-gradient"/><linearGradient id="linear-gradient-26" x1="1277.41" y1="6002.73" x2="1277.41" y2="5756.84" xlink:href="#linear-gradient"/><linearGradient id="linear-gradient-27" x1="1277.87" y1="6007.48" x2="1277.87" y2="5751.41" xlink:href="#linear-gradient"/><linearGradient id="linear-gradient-28" x1="1278.9" y1="6012.33" x2="1278.9" y2="5745.65" xlink:href="#linear-gradient"/><linearGradient id="linear-gradient-29" x1="1279.62" y1="6016.92" x2="1279.62" y2="5739.98" xlink:href="#linear-gradient"/><linearGradient id="linear-gradient-30" x1="1280.16" y1="6021.56" x2="1280.16" y2="5734.28" xlink:href="#linear-gradient"/><linearGradient id="linear-gradient-31" x1="1280.47" y1="6026.2" x2="1280.47" y2="5729.04" xlink:href="#linear-gradient"/><linearGradient id="linear-gradient-32" x1="1280.51" y1="6030.88" x2="1280.51" y2="5724.17" xlink:href="#linear-gradient"/><linearGradient id="linear-gradient-33" x1="1280.38" y1="6035.54" x2="1280.38" y2="5719.43" xlink:href="#linear-gradient"/><linearGradient id="linear-gradient-34" x1="1280.34" y1="6040.21" x2="1280.34" y2="5714.74" xlink:href="#linear-gradient"/><linearGradient id="linear-gradient-35" x1="1280.33" y1="6044.68" x2="1280.33" y2="5710.05" xlink:href="#linear-gradient"/><linearGradient id="linear-gradient-36" x1="1280.6" y1="6048.77" x2="1280.6" y2="5705.2" xlink:href="#linear-gradient"/><linearGradient id="linear-gradient-37" x1="1280.91" y1="6052.67" x2="1280.91" y2="5700.18" xlink:href="#linear-gradient"/><linearGradient id="linear-gradient-38" x1="1281.16" y1="6056.49" x2="1281.16" y2="5695.61" xlink:href="#linear-gradient"/><linearGradient id="linear-gradient-39" x1="1281.43" y1="6060.51" x2="1281.43" y2="5691.19" xlink:href="#linear-gradient"/><linearGradient id="linear-gradient-40" x1="1281.57" y1="6064.79" x2="1281.57" y2="5687.05" xlink:href="#linear-gradient"/><linearGradient id="linear-gradient-41" x1="1281.65" y1="6069.47" x2="1281.65" y2="5682.33" xlink:href="#linear-gradient"/><linearGradient id="linear-gradient-42" x1="1281.33" y1="6074.64" x2="1281.33" y2="5678.36" xlink:href="#linear-gradient"/></defs><g id="圖層_2" data-name="圖層 2"><g id="圖層_1-2" data-name="圖層 1"><path class="cls-1" d="M217.86,411.67c-19.66,3.05-39.58,4.18-58.73-4.87A120.36,120.36,0,0,1,143,397c-5.56-3.78-11.3-7.69-17.61-10.43a129.8,129.8,0,0,0-18.13-5.86c-6.84-1.85-13.9-3.76-20.44-6.9C75.25,368.25,66,358.89,56.67,349c-8.56-9.15-17.12-19.31-19.48-33.92a115.7,115.7,0,0,1-1.12-13.53c-.42-9.48-.86-19.29-6.22-27.47-2.89-4.4-7-8.34-11.07-12.14-6.9-6.52-14-13.27-15.57-22.93C-2.65,202.29-.5,175.44,9.76,156.9a106.17,106.17,0,0,1,9-13.09c4.05-5.26,8.24-10.7,11-17,2.3-5.36,3.64-11.28,4.94-17,1.84-8.09,3.74-16.45,8.34-23.52,5-7.58,12.54-12.84,19.89-17.92a126.59,126.59,0,0,0,11.72-8.8C78,56.59,81,53.32,84,50.15c5.65-6.09,11.5-12.4,19.54-16.37,5.79-2.85,12-4.7,18-6.48,6.75-2,13.74-4.08,20-7.59,3.28-1.83,6.55-4,9.7-6C159,8.58,167.06,3.32,176.52,1.85l.14,0c29.6-4.47,57.45,0,85.75,5.37,22.62,4.3,50.86,11.94,68.6,33a161.63,161.63,0,0,1,10.56,14.64,146.55,146.55,0,0,0,11.51,15.73A125.46,125.46,0,0,0,364.6,81.7c6,5.31,12.19,10.8,16.62,17.86,3.93,6.26,6.38,13.28,8.75,20.06A127.26,127.26,0,0,0,396.09,135c1.61,3.18,3.4,6.42,5.13,9.55,5.36,9.71,10.91,19.75,12.6,30.76a206.7,206.7,0,0,1,2.17,42c-.77,14.66-5.5,24.76-11.49,37.55-4.42,9.42-6.32,18.92-8.34,29-.67,3.31-1.35,6.73-2.13,10.14-3.36,14.64-10.91,26.33-17.85,35.83-8.46,11.59-16.32,20.52-27.18,26.45-8.93,4.87-18.6,8.51-27.94,12L316.37,370c-2.36.89-4.8,1.79-7.17,2.65-9.54,3.5-19.4,7.11-27.89,12.31a105.24,105.24,0,0,0-11.18,8.33c-7.27,5.93-14.79,12.06-24.38,13.57-4.51.71-9.13,1.54-13.59,2.34C227.42,410.07,222.65,410.93,217.86,411.67Z"/><path class="cls-2" d="M212.88,209.61a6.94,6.94,0,0,1-7.85-5.48,6.44,6.44,0,0,1,1.13-4.9,6.6,6.6,0,0,1,4.39-2.7h0a6.81,6.81,0,0,1,7.66,5.52,6.41,6.41,0,0,1-5.31,7.56Zm-2.08-11.55h0a5.09,5.09,0,0,0-3.37,2.07,4.93,4.93,0,0,0-.86,3.74,5.38,5.38,0,0,0,6.11,4.21,4.85,4.85,0,0,0,4-5.75A5.26,5.26,0,0,0,210.8,198.06Z"/><path class="cls-3" d="M214.37,214.47l-.41.05c-5.77.64-13-3.07-14-9.41-1-5.82,3.48-12,9.55-13.16a10.69,10.69,0,0,1,8.14,1.85,11.51,11.51,0,0,1,2.93,16.84A9.44,9.44,0,0,1,214.37,214.47Zm-4.28-21.06-.32.06c-5.28,1-9.17,6.36-8.32,11.38.75,4.41,6,8.83,12.34,8.13a8,8,0,0,0,5.51-3.27,10,10,0,0,0-2.57-14.63A9.23,9.23,0,0,0,210.09,193.41Z"/><path class="cls-4" d="M215.3,219.44h0c-8.47,1.3-19-3.84-20.55-13.27h0A16,16,0,0,1,197.64,194a16.47,16.47,0,0,1,10.7-6.62h0a16.87,16.87,0,0,1,18.94,13.68,17.14,17.14,0,0,1-2.77,12.77A13.8,13.8,0,0,1,215.3,219.44ZM208.57,189a14.87,14.87,0,0,0-9.68,6,14.5,14.5,0,0,0-2.65,11h0c1.41,8.54,11,13.17,18.79,12h0a12.15,12.15,0,0,0,8.2-4.94,15.5,15.5,0,0,0,2.5-11.61A15.29,15.29,0,0,0,208.59,189Z"/><path class="cls-5" d="M217.14,224.31l-.5.07c-11.33,1.46-25.38-5.55-27.22-17.1-1.76-11,6.52-22.36,17.71-24.33a20.72,20.72,0,0,1,15.76,3.72,21.5,21.5,0,0,1,8.81,14c1,6.46-.35,12.73-3.72,17.21A16.41,16.41,0,0,1,217.14,224.31Zm-9.37-39.9-.38.07C197,186.3,189.32,196.84,191,207c1.71,10.71,14.87,17.18,25.49,15.81a15,15,0,0,0,10.3-5.85c3.07-4.09,4.36-10.09,3.43-16a20,20,0,0,0-8.18-13A19.28,19.28,0,0,0,207.77,184.41Z"/><path class="cls-6" d="M218,229.33a34,34,0,0,1-24.31-6.07c-5.39-3.92-8.71-9.06-9.62-14.85a26.44,26.44,0,0,1,5.07-19.68,25.21,25.21,0,0,1,16.75-10.24,27.59,27.59,0,0,1,20.33,5.21,25,25,0,0,1,9.84,16.66c1.71,12.34-2.11,26.43-17.94,28.95Zm-12.21-49.26a23.75,23.75,0,0,0-15.41,9.58,24.94,24.94,0,0,0-4.78,18.52c.84,5.38,4,10.16,9,13.83a32.76,32.76,0,0,0,23.27,5.78c6.58-1.05,11.37-4.26,14.22-9.53,2.55-4.7,3.39-10.82,2.44-17.68a23.56,23.56,0,0,0-9.24-15.63A26,26,0,0,0,206.13,180Z"/><path class="cls-7" d="M219.92,234.21l-.3,0a42.8,42.8,0,0,1-25.43-4.62C185.5,225,180,217.85,178.76,209.55l.76-.12-.76.12a31.13,31.13,0,0,1,5.72-23.06A30.58,30.58,0,0,1,204.58,174h.09a31.91,31.91,0,0,1,24.24,5.73A29.87,29.87,0,0,1,240.46,200C243.06,219.9,236,231.72,219.92,234.21Zm-15.11-58.63a29,29,0,0,0-19.07,11.82,29.57,29.57,0,0,0-5.45,21.91h0c1.19,7.81,6.38,14.54,14.63,18.95a41.23,41.23,0,0,0,24.47,4.46c15.47-2.29,22.06-13.22,19.53-32.52A28.31,28.31,0,0,0,228,181a30.39,30.39,0,0,0-23.07-5.44Z"/><path class="cls-8" d="M221.76,239.09l-.69.1c-12,1.69-26-1.89-35.56-9.13-6.84-5.17-11-11.88-12-19.41A37.36,37.36,0,0,1,180.2,184a35,35,0,0,1,23.29-14.5c10.55-1.6,20.6.74,28.29,6.57a34.33,34.33,0,0,1,13.08,23.51C246.89,216.05,246.06,235.32,221.76,239.09Zm-47.53-28.54.76-.11c1,7.11,4.95,13.46,11.46,18.38a48.63,48.63,0,0,0,34.41,8.83c10.18-1.42,16.81-5.59,20.25-12.73,2.88-6,3.59-13.95,2.22-25.11a32.8,32.8,0,0,0-12.48-22.46c-7.36-5.58-17-7.81-27.13-6.28l-.13,0c-18.07,2.8-31.16,20.79-28.6,39.35Z"/><path class="cls-9" d="M224,243.9l-1.52.22A58.4,58.4,0,0,1,188.76,238c-11.67-6.1-19-15.42-20.53-26.25l.76-.11-.76.11A41.63,41.63,0,0,1,176,181.57,40.7,40.7,0,0,1,202.37,165c12-1.93,23.34.56,32,7,8.3,6.24,13.62,15.88,15,27.15.13,1.11.28,2.24.43,3.4,1.21,9.2,2.58,19.63-2,28C242.76,239.74,232.13,242.63,224,243.9Zm-21-77.43-.35.05a39.18,39.18,0,0,0-25.37,16,40.12,40.12,0,0,0-7.48,29c1.5,10.32,8.5,19.23,19.72,25.09a56.74,56.74,0,0,0,32.75,6c16.68-2.31,21.78-8.36,24.16-12.71,4.35-8,3-18.12,1.83-27.09-.15-1.16-.3-2.3-.43-3.41-1.31-10.85-6.42-20.11-14.37-26.1C225.21,167.11,214.4,164.69,203,166.47Z"/><path class="cls-10" d="M225,248.84l-1.34.2c-12.17,1.78-26.27-.75-37.7-6.78-13-6.83-21.09-17.32-22.89-29.53a46.88,46.88,0,0,1,9-34.54,44.44,44.44,0,0,1,29.27-17.83c13.65-2,28.74,1.35,38.44,8.44,10.2,7.46,12.84,19.3,14.07,29.89.2,1.77.46,3.59.73,5.52,1.39,9.94,3,21.22-2,30.24C247.47,244,236.42,247.07,225,248.84Zm-61.16-36.22.77-.12c1.72,11.72,9.56,21.8,22.08,28.39,11.15,5.88,24.89,8.35,36.75,6.62,11.46-1.68,22.77-4.51,27.84-13.8,4.69-8.58,3.14-19.58,1.78-29.29-.27-1.93-.53-3.76-.73-5.55-1.19-10.26-3.72-21.71-13.44-28.81-9.4-6.87-24-10.07-37.31-8.16a42.88,42.88,0,0,0-28.25,17.22,45.27,45.27,0,0,0-8.72,33.38Z"/><path class="cls-11" d="M227.89,253.47l-3.17.48a69.78,69.78,0,0,1-41.66-7.46c-14-7.53-22.9-19.2-25-32.86a51.57,51.57,0,0,1,9.81-38.09,49.47,49.47,0,0,1,32.61-19.91c15.38-2.24,32.31,1.47,43.14,9.46,11,8.15,13.41,20.77,14.91,33,.27,2.22.62,4.5,1,6.92,1.69,11,3.61,23.4-1.93,33.32C251.7,249,238.59,251.81,227.89,253.47Zm-69-39.95.77-.12c2,13.16,10.57,24.43,24.17,31.72a68.09,68.09,0,0,0,40.7,7.29c10.81-1.59,25.61-3.77,31.79-14.84,5.27-9.46,3.4-21.61,1.74-32.34-.37-2.42-.72-4.72-1-7-1.45-11.89-3.76-24.15-14.29-31.93s-27-11.36-42-9.17a47.86,47.86,0,0,0-31.6,19.3,50,50,0,0,0-9.52,36.93Z"/><path class="cls-12" d="M230.38,258.11l-3,.45-1.91.28c-30,4.58-67.13-12.56-72.38-44.47-2.3-14,1.24-28.35,10-40.41a56.72,56.72,0,0,1,36.71-23h.1c16.89-2.62,35.58,1.43,47.65,10.34,12.23,9,14.08,23.3,15.72,35.9.34,2.64.79,5.35,1.28,8.23,2,12.06,4.31,25.73-2,36.68C256.12,253.39,242.33,256.25,230.38,258.11ZM200.14,152.52l-.1,0a55.12,55.12,0,0,0-35.7,22.33c-8.47,11.73-11.91,25.66-9.68,39.25C157,228.48,166.37,240.88,181,249c13.26,7.39,29.82,10.49,44.3,8.28l1.91-.29c12.22-1.83,27.42-4.11,34-15.65,6-10.47,3.77-23.85,1.79-35.66-.49-2.89-.94-5.61-1.29-8.28-1.59-12.29-3.4-26.22-15.1-34.85S216.64,150,200.14,152.52Z"/><path class="cls-13" d="M232.69,262.8l-3.79.57-3,.45c-15.79,2.43-34-1.25-48.8-9.84-16.16-9.39-26.56-23.33-29.29-39.26-2.47-14.41,1.18-29.35,10.29-42.06,9.81-13.68,25.15-23.36,41-25.89a80.55,80.55,0,0,1,27.08.43,62.66,62.66,0,0,1,25.19,10.31c12.2,8.87,13.87,21.78,15.64,35.45.12.94.25,1.88.37,2.82.46,3.45,1.15,7,1.87,10.76,2.49,12.9,5.32,27.53-1.79,39.39C260.48,257.63,245.67,260.79,232.69,262.8Zm-33-114.54-.27.05c-15.49,2.46-30.45,11.9-40,25.26-8.86,12.36-12.42,26.89-10,40.88,5.69,33.22,45,52.65,76.33,47.84l3-.45c13.43-2,30.16-4.48,37.49-16.71,6.8-11.35,4.16-25,1.6-38.3-.73-3.78-1.42-7.35-1.89-10.84-.12-1-.24-1.89-.37-2.83-1.72-13.33-3.35-25.92-15-34.39a61.06,61.06,0,0,0-24.56-10A78.76,78.76,0,0,0,199.65,148.26Z"/><path class="cls-14" d="M233,267.81l-3.9.59-3.19.48c-16.78,2.58-36.38-1.67-52.41-11.37C156.16,247,145,231.82,142.18,214.74c-2.62-15.69,4.67-35.74,13.23-47.44,9.8-13.4,23.9-21.39,43.12-24.44a94.2,94.2,0,0,1,29.27.06c10.71,1.76,20.16,5.48,27.32,10.74,12.23,9,13.72,21.45,15.28,34.65.22,1.8.44,3.67.69,5.53.57,4.23,1.55,8.66,2.58,13.34,3.08,14,6.56,29.78-1.4,42.39S247.06,265.64,233,267.81Zm-89.32-53.32c2.77,16.62,13.65,31.43,30.62,41.7,15.73,9.51,34.94,13.69,51.38,11.16l3.19-.48c15.06-2.25,33.79-5,42-18.12,7.63-12.08,4.37-26.9,1.21-41.23-1-4.72-2-9.18-2.6-13.47-.26-1.87-.48-3.75-.69-5.56-1.53-12.85-3-25-14.67-33.58-10.4-7.65-30.32-14.42-55.08-10.57l-.35,0c-18.79,3-32.56,10.78-42.11,23.82C148.3,179.65,141.16,199.22,143.71,214.49Z"/><path class="cls-15" d="M231.64,273.11l-4.33.66-1.59.24c-18.85,2.84-41.68-2.23-56.79-12.62a90.17,90.17,0,0,1-20.71-20.55c-6.57-9-10.68-18.13-11.89-26.31-1.33-8.95,1.1-19.13,3.37-26.1a91.54,91.54,0,0,1,11.77-24c10-14,24.38-21.8,46.49-25.28l.18,0c18.21-2.83,43.56-1.51,60.35,10.64,12.5,9.05,13.74,21.18,15.05,34,.25,2.52.52,5.12.87,7.73a154.1,154.1,0,0,0,3.29,15.58c3.75,15.32,8,32.69-.87,45.91C267.74,266.6,247.77,270.61,231.64,273.11ZM137.1,214.42l.76-.12c2.56,17.25,18.36,36.48,31.94,45.81,14.82,10.18,37.2,15.15,55.69,12.37l1.59-.24c16.42-2.46,38.92-5.83,48.47-20.07,8.48-12.65,4.32-29.67.64-44.68a157.66,157.66,0,0,1-3.31-15.75c-.36-2.63-.63-5.24-.88-7.77-1.34-13-2.49-24.3-14.42-32.93-10.76-7.79-31.95-14.6-59.17-10.38l-.21,0c-21.67,3.4-35.69,11-45.47,24.64-11.47,16-16.57,37.47-14.87,49Z"/><path class="cls-16" d="M229,278.62l-3.68.56a86.61,86.61,0,0,1-30.91-1.54c-11.13-2.5-21-6.75-28.43-12.3-15.55-11.55-33.33-33.41-35.65-51.17l.76-.1-.76.1c-1.19-9.07,2.26-17.67,5.61-26l1.1-2.75c.77-2,1.5-4,2.22-6,2.22-6.11,4.52-12.43,8.26-17.89,12.23-17.91,31.1-23.07,49.69-26l.19,0a122.88,122.88,0,0,1,33-.62c12.65,1.57,23.11,5.24,31.09,10.9,12.88,9.12,13.94,21.2,15.06,34,.26,3,.53,6,.95,9.14a152.66,152.66,0,0,0,3.92,17.53c4.4,16.77,9.38,35.78-.43,49.6C270.24,271.29,244.21,276.26,229,278.62Zm-31.5-141.46c-30.88,4.79-41.66,15-48.7,25.3-3.63,5.3-5.89,11.53-8.08,17.55-.72,2-1.46,4-2.24,6-.36.92-.73,1.84-1.1,2.77-3.27,8.13-6.65,16.54-5.52,25.21,1.35,10.31,7.83,20.79,13,27.76a112.77,112.77,0,0,0,22,22.37c14.44,10.73,38.91,16.42,58.18,13.54,14.06-2.1,43.33-6.47,54.64-22.4,9.39-13.22,4.5-31.86.19-48.31a155.26,155.26,0,0,1-4-17.72c-.42-3.14-.69-6.22-1-9.21-1.14-13-2.13-24.15-14.42-32.86-7.77-5.5-18-9.08-30.38-10.62a121.42,121.42,0,0,0-32.58.62Z"/><path class="cls-17" d="M227.07,284l-2.22.33c-9.57,1.39-21,.71-32.25-1.91-11.79-2.75-22.28-7.47-29.53-13.3-7.07-5.69-12.89-13-18.51-20.17l-2.11-2.66-1.1-1.38c-6.95-8.72-15.61-19.57-17.06-31.17h0c-1.13-9,3-17.65,7.1-26,1.06-2.16,2.05-4.21,2.94-6.23,1.18-2.71,2.19-5.6,3.16-8.39,1.73-5,3.52-10.12,6.44-14.63,12.25-18.89,32-23.29,52.94-26.46a133.53,133.53,0,0,1,34.51-.78c13.15,1.53,24.13,5.19,32.63,10.89,13.63,9.13,14.55,21.24,15.53,34.05.25,3.29.51,6.68,1,10.14.76,5.66,2.51,12.1,4.36,18.92,5,18.33,10.61,39.1-.53,53.64-5.48,7.15-14.7,13.13-27.42,17.75A158.69,158.69,0,0,1,227.07,284Zm-102-70.36.77-.09c1.4,11.17,9.55,21.38,16.75,30.39l1.1,1.38q1.05,1.32,2.1,2.67c5.58,7,11.34,14.35,18.27,19.92s17.34,10.3,28.92,13c11,2.58,22.28,3.25,31.67,1.89,16.57-2.4,46.21-8.81,58.49-24.84,10.67-13.93,5.14-34.3.27-52.28A157.68,157.68,0,0,1,279,186.59c-.47-3.5-.73-6.92-1-10.23-1-13-1.84-24.17-14.85-32.89-22.42-15-56.22-11.34-66-9.85-20.55,3.11-40,7.41-51.87,25.77-2.82,4.35-4.58,9.4-6.28,14.29-1,2.82-2,5.73-3.2,8.5-.9,2-1.9,4.11-3,6.29-3.95,8.12-8,16.53-7,25.11Z"/><path class="cls-18" d="M224.55,289.53l-.16,0c-12.63,1.94-26.49-1.45-38.49-4.79-9.55-2.66-18.71-5.57-25.92-12-5.85-5.23-10.86-11.6-15.71-17.76-1.53-1.95-3.11-4-4.68-5.88-1-1.25-2.08-2.51-3.19-3.85-7.83-9.37-16.71-20-18.14-31.85l.77-.09-.77.09c-1.1-9.13,3.79-17.64,8.53-25.87,1.5-2.62,2.93-5.1,4.13-7.55a84.06,84.06,0,0,0,4.16-11c1.51-4.6,3.06-9.37,5.59-13.66,11.9-20.23,33.31-23.46,54-26.58l1.62-.24a140.07,140.07,0,0,1,35.82-.85c13.67,1.53,25.15,5.2,34.12,10.91,8.39,5.34,14.28,13.35,16.15,22a58.53,58.53,0,0,1,.82,13.08,70.09,70.09,0,0,0,.35,10.16c.81,6.09,2.69,13,4.68,20.28,5.38,19.7,11.48,42-1.42,57.41C273.78,277.07,246.13,286.18,224.55,289.53ZM190.63,131c-19,2.94-37.91,7-48.63,25.18-2.43,4.14-4,8.83-5.45,13.35a83.63,83.63,0,0,1-4.24,11.17c-1.22,2.5-2.66,5-4.18,7.64-4.61,8-9.37,16.3-8.33,24.92,1.38,11.39,10.1,21.83,17.79,31,1.12,1.34,2.17,2.6,3.2,3.86,1.58,1.93,3.17,3.95,4.7,5.9,4.81,6.11,9.77,12.42,15.52,17.57,7,6.23,15.94,9.08,25.3,11.68,11.85,3.3,25.52,6.66,37.85,4.76l.15,0c21.3-3.3,48.55-12.25,61.33-27.49,12.38-14.77,6.4-36.68,1.12-56-2-7.35-3.91-14.29-4.73-20.49a72,72,0,0,1-.36-10.38,57.48,57.48,0,0,0-.78-12.73c-1.79-8.23-7.43-15.88-15.47-21-6-3.84-28.84-15.9-68.88-9.84l-1.62.24Z"/><path class="cls-19" d="M224.19,294.69l-.16,0c-13.79,2.11-29.11-2.41-41.42-6l-.44-.13c-9.12-2.69-18.56-5.47-25.54-12.42a151.59,151.59,0,0,1-13.2-15.84c-2.3-3-4.67-6.16-7.09-9.08-1.49-1.78-3.08-3.61-4.77-5.55-8.39-9.62-17.9-20.53-19.23-32.52l.77-.09-.77.09c-1-9.43,5-18.64,10.35-26.78,2-3,3.9-5.93,5.4-8.74a65.94,65.94,0,0,0,4.7-12.73,66.76,66.76,0,0,1,4.71-12.81c10.92-20.59,32.11-23.57,52.61-26.45,1.89-.27,3.77-.53,5.63-.81,10.54-1.57,46.92-5.48,72.59,10.18,8.62,5.27,15.1,13.56,17.31,22.19,1.18,4.58,1.05,9.39.92,14a67.67,67.67,0,0,0,.23,10.18c.85,6.69,2.84,14.06,5,21.87,5.59,20.68,11.94,44.12-2.79,60.63-8.43,9.44-20.4,14.7-32,19.79l-1.89.83C246,288.53,235.38,293,224.19,294.69ZM182.73,128.26c-17.58,2.72-34.64,7.14-43.86,24.54a64.81,64.81,0,0,0-4.59,12.51,67.24,67.24,0,0,1-4.82,13c-1.53,2.87-3.45,5.78-5.47,8.86-5.45,8.3-11.09,16.89-10.11,25.75,1.28,11.51,10.62,22.23,18.86,31.68,1.69,2,3.29,3.78,4.79,5.58,2.44,2.95,4.83,6.09,7.14,9.13A149.21,149.21,0,0,0,157.72,275c6.7,6.68,15.95,9.4,24.89,12l.44.13c12.16,3.59,27.3,8.05,40.75,6l.16,0c11-1.7,21.51-6.08,30.51-10l1.88-.83c11.43-5,23.25-10.21,31.45-19.41,6.32-7.07,9.15-16.12,8.65-27.66-.44-10.26-3.37-21.07-6.2-31.53-2.13-7.86-4.14-15.28-5-22.08a69.62,69.62,0,0,1-.24-10.41c.12-4.54.25-9.24-.87-13.62-2.12-8.24-8.33-16.19-16.62-21.24-6.38-3.9-30.39-16.12-71.55-10-1.87.28-3.75.54-5.65.81C187.8,127.51,185.26,127.86,182.73,128.26Z"/><path class="cls-20" d="M223.87,299.82h0c-14,2.17-29.43-2.62-43.06-6.85l-1.49-.46-2.09-.64c-8.8-2.69-17.9-5.48-24.23-12.45a162.64,162.64,0,0,1-11.54-14.92c-3-4.26-6.18-8.67-9.58-12.68-1.68-2-3.51-4-5.45-6.17-8.67-9.63-18.5-20.53-19.8-32.59-1.06-9.83,5.56-18.86,12-27.58a102.62,102.62,0,0,0,6.9-10.19c2.46-4.41,3.63-9.22,4.76-13.87a61.69,61.69,0,0,1,4.09-12.62c10.57-21.65,32.21-24.34,53.15-26.94,2.52-.31,5.13-.64,7.66-1,13.84-1.93,48.88-4.78,75.08,10.56,9.4,5.5,16.72,14.62,19.11,23.81,1.18,4.55,1,9.31.83,13.91a62.58,62.58,0,0,0,.16,10.16c.89,7,2.88,14.61,5,22.64,2.92,11.14,5.94,22.67,6.22,33.7.33,12.6-3.09,22.6-10.44,30.55-8.26,8.93-19.72,14.39-30.81,19.66-1.61.77-3.21,1.53-4.79,2.3l-.09,0C245.4,293.06,235.07,298.09,223.87,299.82ZM176.64,124.88c-16.74,2.6-32.54,7.45-40.92,24.6a60.28,60.28,0,0,0-4,12.31c-1.16,4.75-2.36,9.66-4.92,14.26a102.78,102.78,0,0,1-7,10.35c-6.23,8.48-12.67,17.26-11.67,26.49,1.25,11.56,10.9,22.27,19.41,31.72,2,2.16,3.79,4.21,5.49,6.21,3.44,4.06,6.6,8.49,9.66,12.78a160.67,160.67,0,0,0,11.42,14.78c6,6.65,14.93,9.37,23.54,12l2.09.64,1.49.46c13.47,4.18,28.73,8.91,42.36,6.8h0c11-1.7,21.19-6.67,31.08-11.48l.09-.05,4.8-2.3c10.95-5.21,22.27-10.6,30.33-19.31,7.06-7.64,10.35-17.28,10-29.46-.27-10.85-3.27-22.29-6.17-33.35-2.12-8.08-4.12-15.71-5-22.84a64.64,64.64,0,0,1-.17-10.41c.17-4.49.35-9.13-.78-13.46-2.29-8.8-9.34-17.56-18.39-22.86-25.78-15.09-60.4-12.28-74.09-10.36-2.53.35-5.15.68-7.68,1C184,123.86,180.3,124.32,176.64,124.88ZM107.39,213Z"/><path class="cls-21" d="M224.33,304.81l-.37.06c-14.87,2.19-31.24-3.15-45.68-7.85l-3-1-3.13-1c-8.14-2.55-17.36-5.44-23.12-12.38a134.64,134.64,0,0,1-9.43-13.46,126.84,126.84,0,0,0-10.16-14.33c-2.1-2.45-4.47-5-7-7.66-9.43-10-20.11-21.43-21.32-34-1-10.41,6.39-19.8,13.54-28.89a101.71,101.71,0,0,0,8.1-11.25c2.78-4.77,3.71-9.67,4.71-14.85A55.19,55.19,0,0,1,131,145.59c4.57-10.14,12.06-17.16,22.9-21.46,9.51-3.78,20.4-5.06,30.92-6.3,3.19-.38,6.48-.77,9.62-1.22,29-4.14,58.06,0,77.64,11.16,9.94,5.65,18,15.25,20.95,25,1.45,4.77,1.26,9.84,1.07,14.73a62.16,62.16,0,0,0,.15,10.13,207.59,207.59,0,0,0,4.81,22.76c2.94,11.8,6,24,6.08,35.67.1,13.33-3.76,23.9-11.82,32.32-8.31,8.69-19.51,14.3-30.35,19.72-3.08,1.55-6.27,3.15-9.28,4.76l-1.22.66C243.28,298.53,234.56,303.23,224.33,304.81ZM101.94,213.2l.78-.08c1.15,12,11.64,23.19,20.9,33,2.52,2.69,4.9,5.24,7,7.71a128.55,128.55,0,0,1,10.3,14.5,131.45,131.45,0,0,0,9.32,13.31c5.46,6.59,14.06,9.28,22.38,11.89l3.15,1,3,1c14.28,4.66,30.46,9.93,45,7.8,10.12-1.5,18.82-6.18,28-11.14l1.23-.66c3-1.63,6.22-3.23,9.32-4.78,10.71-5.37,21.79-10.92,29.92-19.41,7.77-8.12,11.49-18.33,11.39-31.24-.1-11.48-3.12-23.59-6-35.31a203.79,203.79,0,0,1-4.84-22.94,63.09,63.09,0,0,1-.17-10.38c.18-4.77.38-9.7-1-14.22-2.88-9.43-10.63-18.68-20.24-24.14-19.29-11-47.94-15.07-76.65-11-3.16.45-6.46.84-9.66,1.21-21,2.48-42.75,5-52.59,26.87a53.89,53.89,0,0,0-3.4,12.34c-1,5.08-2,10.34-4.89,15.34a103.68,103.68,0,0,1-8.22,11.43c-7,8.85-14.16,18-13.21,27.78Z"/><path class="cls-22" d="M224.79,309.77l-.36.06c-15.12,2.22-31.58-3.2-46.1-8l-4.06-1.33c-1.55-.5-3.16-1-4.86-1.5-8.82-2.65-18.82-5.65-24.58-13a41,41,0,0,1-4.62-8.25c-.6-1.32-1.23-2.69-1.91-4-3.34-6.34-7.9-11.83-11.91-16.47-2.34-2.7-5-5.48-7.85-8.43-9.84-10.24-21-21.83-22.44-35l.77-.08-.77.08c-1.23-11.05,6.84-20.77,14.64-30.18,3.61-4.35,7-8.47,9.34-12.52,2.84-5,3.57-10.08,4.33-15.47.62-4.35,1.26-8.84,3.11-13.2,4.54-10.67,12.25-18.07,23.56-22.61,9.92-4,21.25-5.32,32.22-6.61,3.63-.43,7-.84,10.45-1.33,22.45-3.29,55.33-1.85,80.26,12a53.66,53.66,0,0,1,22.43,25.2c2.34,5.52,2.2,11.36,2.06,17a64.38,64.38,0,0,0,.32,10.39c.95,6.76,2.63,13.89,4.4,21.44,3,12.6,6,25.62,5.95,38.1-.09,14.26-4.38,25.54-13.14,34.49-7.91,8.08-18.22,13.43-28.2,18.61-4.19,2.17-8.51,4.41-12.53,6.8l-3.3,2C243.35,303.23,235.16,308.16,224.79,309.77Zm-54-193.3c-17.59,2.73-34,8-41.86,26.64-1.78,4.17-2.4,8.56-3,12.8-.76,5.3-1.54,10.78-4.53,16-2.38,4.17-5.83,8.33-9.49,12.74-7.59,9.16-15.45,18.63-14.29,29,1.4,12.64,12.35,24,22,34.09,2.85,3,5.54,5.76,7.91,8.5,4.07,4.7,8.7,10.27,12.11,16.76.7,1.33,1.34,2.71,2,4.05a39.67,39.67,0,0,0,4.43,7.95c5.46,7,15.2,9.9,23.81,12.49,1.7.51,3.32,1,4.89,1.51l4.06,1.33c14.36,4.72,30.63,10.08,45.4,7.91,10.23-1.5,18.37-6.41,27-11.6l3.31-2c4.05-2.41,8.4-4.67,12.6-6.85,9.87-5.12,20.08-10.41,27.82-18.32,8.45-8.64,12.6-19.57,12.69-33.41.07-12.29-3-25.23-5.91-37.73-1.78-7.59-3.46-14.75-4.43-21.58a65.53,65.53,0,0,1-.33-10.65c.14-5.73.27-11.15-1.94-16.37a52,52,0,0,0-21.76-24.44c-24.59-13.72-57.07-15.13-79.28-11.88-3.41.5-7,.93-10.49,1.34C179.25,115.32,175,115.82,170.81,116.47Z"/><path class="cls-23" d="M225.66,314.43c-.26.05-.53.08-.79.12-16.44,2.27-34.27-3.7-50-9L170,304c-1.77-.58-3.61-1.13-5.56-1.71-8.73-2.58-18.63-5.51-24.16-12.87a35.81,35.81,0,0,1-4.54-9.33c-.48-1.31-1-2.66-1.54-3.94-2.76-6.42-6.94-11.54-11-16.23-2.52-2.92-5.4-5.91-8.45-9.07-10.17-10.55-21.7-22.5-23-36l.77-.08-.77.08c-1.16-11.63,7.09-21.74,15.06-31.53,3.87-4.75,7.53-9.24,10.08-13.8,2.9-5.2,3.45-10.51,4-16.14.48-4.55,1-9.25,2.83-13.82,10.08-24.87,36-28.27,58.79-31.26,3.62-.48,7-.93,10.39-1.46l.3,0a127.1,127.1,0,0,1,46.28,1.87l3.26.72c10.94,2.44,23.33,5.19,33.22,10.71,10.24,5.72,19.51,16,24.81,27.57,2.77,6,2.93,12.76,3.09,19.27a90.63,90.63,0,0,0,.56,9.53c.81,6.14,2.15,12.74,3.58,19.71,5.38,26.35,11.47,56.22-8.77,76.68-7.91,8-18,13.32-27.81,18.47a186.54,186.54,0,0,0-16.79,9.59l-.14.09C245.16,307.25,237.05,312.67,225.66,314.43ZM172.21,111.29c-19.35,3-38.78,8.53-47,28.84-1.78,4.37-2.26,9-2.72,13.4-.58,5.54-1.18,11.26-4.24,16.73-2.61,4.69-6.31,9.22-10.23,14-7.77,9.54-15.81,19.41-14.72,30.4,1.29,12.94,12.62,24.69,22.61,35.05,3.07,3.18,6,6.18,8.51,9.14,4.13,4.78,8.4,10,11.25,16.63.56,1.32,1.07,2.69,1.56,4a34.71,34.71,0,0,0,4.33,8.94c5.22,7,14.86,9.8,23.36,12.32,2,.58,3.82,1.13,5.6,1.71l4.86,1.62c15.56,5.22,33.21,11.13,49.28,8.9,11.46-1.58,19.6-7,29-13.31l.14-.09a185.2,185.2,0,0,1,16.93-9.67c9.68-5.09,19.68-10.36,27.43-18.19,19.66-19.88,13.65-49.31,8.35-75.28-1.43-7-2.78-13.62-3.6-19.82a94.06,94.06,0,0,1-.57-9.69c-.15-6.35-.31-12.91-3-18.67C294.24,137,285.21,127,275.24,121.44c-9.68-5.41-22-8.14-32.8-10.55l-3.26-.73a125.52,125.52,0,0,0-46-1.8c-3.37.53-6.8,1-10.44,1.46C179.29,110.28,175.75,110.74,172.21,111.29Z"/><path class="cls-24" d="M225.77,318.7l-1.21.18c-17.26,2.33-35.74-3.78-52.05-9.17l-3.41-1.13c-2.21-.72-4.59-1.39-7.11-2.09-9.63-2.7-20.55-5.76-26.44-13.58-2.23-3-3.29-6.46-4.31-9.85-.25-.81-.5-1.65-.77-2.47-2.49-7.63-6.34-13-11.35-18.73-2.26-2.6-4.74-5.22-7.36-8-10.4-11-22.19-23.54-23.63-37.74l.77-.07-.77.07c-1.25-12.33,7-23.08,15-33.47,3.81-5,7.42-9.65,10-14.47,2.88-5.33,3.34-11.11,3.79-16.7.39-4.88.79-9.92,2.77-14.74,8.71-21.32,29.09-28,43.65-31.14,6.23-1.35,12.56-2.14,18.68-2.91,3.5-.43,6.82-.85,10-1.35,14.16-2.23,31.49-1.33,47.54,2.46l3.9.92c11.35,2.63,24.22,5.62,34.53,11.35,10.92,6.07,21.46,17.6,27.52,30.09,3.51,7.26,4.27,15.63,5,23.73.22,2.54.44,4.93.74,7.25.74,5.8,1.85,11.69,3,17.94,2.35,12.52,4.78,25.46,4.21,38-.8,17.45-6.58,33.16-15.45,42-7.71,7.69-17.34,12.81-26.65,17.76-6.4,3.4-13,6.92-18.92,11.23C247.49,311.46,238.18,316.78,225.77,318.7Zm-54.2-213c-2.63.41-5.26.88-7.87,1.44-22.61,4.9-36.13,14.5-42.55,30.22-1.88,4.6-2.27,9.52-2.65,14.27-.46,5.75-.94,11.7-4,17.32-2.66,4.93-6.47,9.88-10.15,14.67C96.56,193.75,88.49,204.25,89.68,216c1.38,13.67,13,26,23.21,36.83,2.63,2.79,5.11,5.42,7.4,8,5.14,5.88,9.08,11.4,11.65,19.28.28.83.53,1.68.78,2.5,1,3.26,2,6.63,4.07,9.37,5.57,7.4,16.22,10.38,25.62,13,2.53.71,4.93,1.38,7.17,2.12l3.42,1.13c16.93,5.6,34.44,11.39,51.35,9.1,12.7-1.71,22.09-7,32.29-14.49,6-4.38,12.65-7.92,19.1-11.35,9.21-4.9,18.74-10,26.28-17.49,8.61-8.59,14.22-23.91,15-41,.57-12.37-1.85-25.22-4.19-37.66-1.18-6.26-2.29-12.18-3-18-.3-2.35-.52-4.76-.75-7.31-.72-8-1.47-16.19-4.86-23.19-5.92-12.22-16.22-23.49-26.88-29.41-10.12-5.63-22.87-8.59-34.12-11.2l-3.91-.92c-15.86-3.74-33-4.62-46.94-2.44-3.25.51-6.57.92-10.09,1.36S175.15,105.12,171.57,105.67Z"/><path class="cls-25" d="M225.32,322.65c-.55.09-1.09.17-1.65.24-17.76,2.45-36-2.91-54.65-9.11-2.59-.86-5.49-1.65-8.57-2.49-11-3-23.38-6.41-29.77-14.77-2.61-3.42-3.59-7.38-4.54-11.22-.21-.83-.42-1.7-.65-2.54-1.67-6.22-4.59-11.39-9.75-17.3-1.75-2-3.55-4-5.46-6.11-11-12.16-23.44-25.93-25.2-41.7-1.44-13,6.31-24.25,13.81-35.12,3.61-5.25,7.35-10.68,9.9-16.14,2.47-5.28,3-10.95,3.44-16.44.45-5.28.92-10.73,3.14-15.87,2.43-5.62,6.87-11.47,12.85-16.92a79,79,0,0,1,17.47-12.06c10.6-5.28,22.68-6.71,34.36-8.09,3.87-.45,7.52-.89,11.15-1.45h.07c13.06-2,29-.89,48.64,3.47l1.86.41c12.72,2.81,27.14,6,38.51,12.46,11.19,6.36,20.34,16.1,27.19,28.94a112.59,112.59,0,0,1,11.68,37.66c.39,3,.83,5.95,1.28,9.11,2.16,14.9,4.6,31.8,3.21,47.1-1,10.92-4.4,31-16.06,42.74-8.21,8.28-18.62,14-28.69,19.58a186,186,0,0,0-19.67,12A75.65,75.65,0,0,1,225.32,322.65ZM85.85,217.56l.77-.08c1.7,15.27,14,28.85,24.81,40.83,1.91,2.12,3.72,4.12,5.48,6.13,5.32,6.1,8.34,11.46,10.07,17.91.24.86.45,1.74.66,2.58,1,3.85,1.86,7.49,4.27,10.65,6.07,7.94,18.23,11.27,29,14.21,3.1.85,6,1.65,8.65,2.52,18.49,6.14,36.52,11.44,54,9.05,13.42-1.85,24.81-6.31,34.85-13.64a183.79,183.79,0,0,1,19.83-12.05c10-5.51,20.28-11.2,28.34-19.32,11.32-11.42,14.64-31.08,15.61-41.79,1.38-15.12-1-31.92-3.19-46.74-.46-3.16-.89-6.15-1.29-9.12a111.46,111.46,0,0,0-11.5-37.14c-6.72-12.58-15.66-22.11-26.6-28.32-11.16-6.35-25.46-9.51-38.08-12.3l-1.85-.41c-19.52-4.32-35.26-5.43-48.14-3.44-3.66.57-7.5,1-11.21,1.46-11.55,1.37-23.49,2.78-33.85,7.94-11,5.51-24.48,16.37-29.59,28.2-2.11,4.91-2.55,10-3,15.39-.48,5.63-1,11.44-3.57,17s-6.38,11.06-10,16.36c-7.33,10.64-14.92,21.65-13.54,34.07Z"/><path class="cls-26" d="M224.14,326.43l-1.77.26c-19.15,2.75-37.92-2.55-57.05-8.72-2.49-.8-5.25-1.56-8.18-2.37-11.5-3.18-24.54-6.79-31.46-15.31-2.84-3.51-3.72-7.45-4.65-11.63-.19-.82-.37-1.64-.57-2.47a40.36,40.36,0,0,0-8.47-17c-1.62-2-3.32-4-5-6-11-13.18-22.46-26.82-24.6-43.89-1.78-14.15,5.63-26.67,12.79-38.78,2.49-4.22,5.07-8.58,7.15-12.86,2.84-5.84,3.61-12.2,4.36-18.35.72-6,1.47-12.14,4.1-17.82,2.73-5.89,7.5-12,13.8-17.78a92.25,92.25,0,0,1,18.43-13c11.88-6.28,25.54-8.16,38.74-10,2.8-.39,5.69-.78,8.47-1.21,16.32-2.52,34.57,1.44,50.68,5l1.14.25,2.91.62c12.93,2.79,26.3,5.66,37.63,12.24,11.6,6.73,22.08,17.63,30.29,31.52a115,115,0,0,1,14.7,41.12c1.76,12.25,4.23,35.94.95,56.94-2.36,15.06-5.73,32-16,42.62-8.76,9-20.07,15.32-31,21.4-6.13,3.42-12.47,6.94-18.21,10.88C252.79,319.36,240.31,323.92,224.14,326.43ZM83.2,219.24l.77-.09c2.09,16.62,13.35,30.07,24.25,43.08,1.65,2,3.35,4,5,6a42.41,42.41,0,0,1,8.77,17.6c.21.84.39,1.68.58,2.51.89,4,1.73,7.76,4.35,11,6.6,8.14,19.39,11.67,30.67,14.79,2.93.82,5.71,1.58,8.23,2.4,19.68,6.34,37.51,11.37,56.36,8.66,16.79-2.41,29.59-7,40.29-14.3,5.8-4,12.17-7.53,18.34-11,10.84-6,22.05-12.26,30.65-21.13,10-10.28,13.29-27,15.6-41.78,3.26-20.8.81-44.31-.94-56.48A113.65,113.65,0,0,0,311.59,140c-8.08-13.66-18.36-24.37-29.74-31-11.12-6.45-24.36-9.3-37.17-12.06l-2.92-.63-1.14-.25c-16-3.47-34.08-7.41-50.11-4.93-2.8.43-5.69.83-8.5,1.21-13.07,1.8-26.58,3.66-38.23,9.81C126.55,111.26,116,124,112.24,132.19c-2.53,5.45-3.23,11.23-4,17.35-.76,6.28-1.55,12.77-4.5,18.84-2.12,4.34-4.71,8.72-7.21,13-7,11.89-14.3,24.19-12.59,37.81Z"/><path class="cls-27" d="M221.91,330.2l-1.07.16c-20.46,3.12-38.43-1.3-54.81-6.53-2.83-.91-6-1.77-9.27-2.69-13.07-3.63-27.88-7.74-35.95-17-3.53-4-4.51-8.61-5.55-13.44l-.22-1a43.08,43.08,0,0,0-8.49-18.19l-1.09-1.42C93.78,255,82.75,240.62,80,221.12l.76-.11-.76.11c-2.16-15.24,3.89-27.53,10.29-40.54,2.4-4.87,4.88-9.91,6.86-15.07s2.88-10.95,3.74-16.5c1-6.77,2.13-13.78,5.24-19.93,7.88-15.56,25.51-27.29,32.72-31.61,14.2-8.5,30.9-11,47.06-13.44l3.42-.52c14.15-2.16,29,1.27,43.36,4.58,3.68.85,7.16,1.65,10.63,2.37l5.18,1c12.46,2.48,25.35,5,36.64,11.82,24.57,14.79,46.64,48.77,51.32,79,2.16,13.92,1.3,31.74-2.62,54.5-.21,1.21-.42,2.45-.63,3.7-2.44,14.59-5.21,31.12-15.25,41.82-9.46,10.07-22,16.94-34.12,23.58-5.47,3-11.12,6.09-16.32,9.4C253.5,324.28,237.35,327.8,221.91,330.2ZM180.79,86.37c-14.3,2.22-28.75,5-41.14,12.43-7.1,4.25-24.44,15.78-32.13,31-3,5.93-4.07,12.81-5.1,19.47-.87,5.63-1.76,11.45-3.82,16.81s-4.5,10.3-6.92,15.2c-6.29,12.79-12.24,24.87-10.15,39.64,2.7,19.1,13.61,33.27,25.16,48.27l1.09,1.42a44.67,44.67,0,0,1,8.78,18.81l.21,1c1,4.83,1.94,9,5.21,12.75,7.77,8.9,22.34,12.95,35.19,16.51,3.33.93,6.47,1.8,9.33,2.71,16.2,5.18,34,9.55,54.1,6.48,15.61-2.38,32-5.81,46.09-14.79,5.24-3.34,10.91-6.45,16.4-9.45,12-6.58,24.45-13.39,33.74-23.29,9.71-10.34,12.45-26.63,14.86-41,.21-1.26.41-2.5.62-3.72,3.89-22.58,4.75-40.24,2.62-54-2.18-14.11-8.43-29.76-17.59-44.09-9.4-14.68-21.12-26.71-33-33.86C273.29,98,260.53,95.46,248.2,93c-1.73-.34-3.46-.68-5.19-1-3.49-.71-7-1.52-10.66-2.37-14.22-3.28-28.93-6.67-42.79-4.56l-3.42.52Z"/><path class="cls-28" d="M218.4,334.13c-17.58,2.72-33.43,1.43-51.28-4.17-10-3.15-19.73-6.71-28.73-10.08l-2.47-.92c-6.84-2.51-14.59-5.36-19.88-10.82-4.23-4.36-5.25-9.12-6.44-14.63l-.27-1.26a46.41,46.41,0,0,0-8.5-18.3c-13.71-18.45-20.44-33.23-23.22-51-2.84-18.23,3.3-33.49,9.79-49.65.79-2,1.58-3.93,2.37-5.92,2.18-5.55,3.39-11.72,4.56-17.68,1.56-7.91,3.17-16.08,7-23,3.17-5.66,13.05-20.32,36.47-34.3C153,83.3,171.12,80,188.39,77.42c13.05-2,26.8,1.6,40.1,5,5.87,1.52,11.42,3,16.93,4l5.69,1c12.95,2.22,25.17,4.31,36.69,11.55,15.17,9.53,26.77,24.56,33.84,35.49,8.28,12.8,20.8,32.16,23.75,50,2.33,14.1-1.42,30.65-4.73,45.25-.74,3.29-1.44,6.39-2.07,9.43s-1.16,6.12-1.72,9.4c-2.25,13.11-4.58,26.67-13.24,36.43-10,11.28-23.87,18.59-37.3,25.67-4.9,2.58-10,5.26-14.67,8-15.81,9.38-34.32,12.38-52.22,15.27l-.21,0ZM79.15,222.69c2.73,17.52,9.38,32.11,22.93,50.34a48,48,0,0,1,8.77,18.89l.27,1.26c1.13,5.28,2.11,9.84,6,13.88,5,5.2,12.3,7.87,19.31,10.45l2.48.92c9,3.36,18.66,6.91,28.65,10.05,17.88,5.61,33.74,6.85,51.39,4l.21,0c17.76-2.87,36.13-5.84,51.68-15.07,4.73-2.81,9.82-5.49,14.74-8.08,13.3-7,27.05-14.26,36.86-25.33,8.37-9.43,10.66-22.76,12.87-35.66.56-3.29,1.1-6.4,1.73-9.45s1.34-6.17,2.08-9.46c3.28-14.46,7-30.85,4.71-44.66-2.9-17.56-15.31-36.75-23.52-49.45-7-10.8-18.44-25.64-33.37-35-11.25-7.07-23.33-9.14-36.12-11.33-1.89-.33-3.8-.65-5.71-1-5.56-1-11.4-2.51-17-4C215,80.56,201.36,77,188.62,79c-17.12,2.56-35.07,5.82-50,14.72-23.1,13.79-32.81,28.18-35.91,33.72C99,134.14,97.39,142.18,95.86,150c-1.19,6-2.42,12.27-4.65,18-.79,2-1.58,4-2.37,5.93C82.43,189.8,76.37,204.87,79.15,222.69Z"/><path class="cls-29" d="M210.5,338.88a105.27,105.27,0,0,1-19.64,1.55A84.33,84.33,0,0,1,167.45,336c-6.8-2.18-13.55-4.83-20.09-7.39-3.31-1.31-6.75-2.65-10.13-3.92-1.41-.52-2.82-1-4.32-1.56-7.59-2.7-15.44-5.48-21.27-10.9-4.9-4.55-6-9.33-7.4-15.38l-.22-.95a52.09,52.09,0,0,0-8.58-18.71C84.67,261.8,78.78,246.6,75.11,224.67c-3.06-18.27-.62-35.67,8.14-58.17l.72-1.82c2.64-6.77,5.14-13.15,6.55-20.11.24-1.21.47-2.42.68-3.58,1.09-5.82,2.11-11.33,5.54-16.83C107,107.7,126.57,93.9,134.51,88.73s22.35-12.78,53-17.32c12.47-1.85,25.43,1.91,38,5.55,7,2,14.27,4.14,21.22,5.17,2,.29,4,.57,5.93.83,13.24,1.84,25.75,3.56,38,11.67,14.82,9.81,27.32,25.72,35.2,37.34l2.45,3.6c10.2,15,22.9,33.6,25.89,50.87,2.06,11.93-2.19,25.49-6.31,38.6-1.78,5.7-3.47,11.09-4.6,16.2-.83,3.76-1.46,7.68-2.12,11.82-2,12.4-4,25.23-11.95,34.64-10.12,12-24.62,19.41-38.65,26.57-4.35,2.21-8.84,4.51-13,6.87-16.63,9.34-35.86,12.56-54.46,15.66l-5.25.89C215.34,338.09,212.92,338.5,210.5,338.88ZM76.64,224.41c3.63,21.69,9.44,36.7,20.07,51.83a53.75,53.75,0,0,1,8.82,19.26l.22.95c1.34,5.79,2.39,10.37,7,14.6,5.59,5.19,13.29,7.93,20.73,10.57,1.43.51,2.92,1,4.34,1.57,3.4,1.27,6.84,2.62,10.16,3.92,6.51,2.56,13.25,5.2,20,7.37a82.83,82.83,0,0,0,23,4.4c8.86.29,17.86-1.24,26.56-2.72l5.25-.89c18.47-3.08,37.57-6.27,54-15.48,4.22-2.38,8.73-4.68,13.1-6.91C303.67,305.8,318,298.47,328,286.7c7.65-9.08,9.66-21.69,11.6-33.88.67-4.17,1.29-8.11,2.14-11.92,1.14-5.17,2.84-10.59,4.64-16.32,4.05-12.94,8.24-26.31,6.25-37.87-2.93-17-15.52-35.42-25.64-50.27-.84-1.22-1.65-2.42-2.45-3.6-7.8-11.51-20.16-27.25-34.78-36.92C277.75,88,266,86.38,252.36,84.5c-1.93-.27-3.93-.54-6-.84-7-1-14.36-3.16-21.42-5.21-12.37-3.59-25.17-7.31-37.31-5.5-30.3,4.49-44.37,11.9-52.33,17.08s-27.19,18.75-37.29,35c-3.28,5.26-4.23,10.37-5.33,16.3-.22,1.16-.44,2.37-.69,3.6C90.61,152,88,158.71,85.41,165.24l-.71,1.83C76,189.29,73.63,206.44,76.64,224.41Z"/><path class="cls-30" d="M197.53,346c-.9.15-1.81.26-2.72.34-7.44.65-15.9-.67-25.85-4-6.18-2.09-12.29-4.7-18.19-7.22-4.06-1.73-8.26-3.53-12.44-5.13-2.42-.93-4.91-1.78-7.54-2.68-8.1-2.77-16.48-5.64-23-11-5.41-4.47-6.79-9.47-8.53-15.79l-.15-.54a61.62,61.62,0,0,0-8.66-18.81c-5.06-7.44-10.28-15.14-13.2-24.59-2-6.44-2.79-13.28-3.57-19.88-.43-3.61-.83-7-1.41-10.34-3.06-17.58-5-38.41,4.17-59.54l1.86-4.22c2.81-6.34,5.47-12.33,7-19,.4-1.71.74-3.43,1.07-5.1,1.17-5.95,2.27-11.57,5.9-16.88,4.42-6.48,10.43-11.72,16.24-16.8l3.13-2.74c1.59-1.41,3.2-2.88,4.76-4.3,5.38-4.91,11-10,17.1-14.06,13.1-8.66,30.44-14.58,53-18.09h0c12.15-1.89,24.6,2.14,36.64,6,7.89,2.55,16,5.19,23.92,6.07l5.56.6c14.81,1.54,27.6,2.88,40.77,12.18,6.89,4.88,12.45,11.27,17.82,17.46l2.39,2.74c1.43,1.63,2.92,3.27,4.35,4.87a154.24,154.24,0,0,1,13.28,16.13c1.79,2.63,3.68,5.31,5.68,8.16,10.56,15,22.53,32.07,25.36,48.25,1.44,8.24-1.83,16.6-5,24.69l-.69,1.75a186.51,186.51,0,0,0-8.27,26.3c-1,4.31-1.69,8.87-2.44,13.7-2,12.87-4.05,26.17-11.65,36-9.87,12.76-25.29,20.35-40.2,27.7-4,2-7.75,3.82-11.39,5.76-17.69,9.43-38,12.82-57.64,16.1-2.82.47-5.73,1-8.54,1.45s-5.77,1.28-8.8,2.1A93.25,93.25,0,0,1,197.53,346ZM73.83,226c.59,3.38,1,6.8,1.42,10.43.77,6.53,1.57,13.29,3.51,19.6,2.85,9.23,8,16.83,13,24.18a63,63,0,0,1,8.88,19.27l.15.54c1.67,6.06,3,10.84,8,15,6.27,5.18,14.51,8,22.49,10.73,2.52.87,5.14,1.76,7.59,2.7,4.2,1.62,8.41,3.41,12.49,5.15,5.87,2.51,12,5.11,18.08,7.18,9.74,3.3,18,4.6,25.22,4a74.19,74.19,0,0,0,12.61-2.63c2.94-.8,6-1.62,8.94-2.14s5.73-1,8.55-1.45c19.52-3.25,39.71-6.63,57.17-15.94,3.67-2,7.44-3.81,11.43-5.78,14.76-7.27,30-14.78,39.66-27.26,7.36-9.52,9.39-22.62,11.35-35.28.75-4.86,1.46-9.45,2.46-13.81A186.63,186.63,0,0,1,355.19,214c.23-.58.45-1.17.69-1.76,3.09-7.89,6.28-16,4.92-23.85-2.77-15.84-14.64-32.73-25.11-47.63-2-2.85-3.89-5.54-5.69-8.18a152.49,152.49,0,0,0-13.15-16c-1.44-1.6-2.93-3.25-4.37-4.89l-2.39-2.74c-5.31-6.12-10.8-12.44-17.55-17.21-12.84-9.07-25.44-10.39-40-11.91-1.83-.19-3.68-.38-5.58-.6-8-.9-16.26-3.56-24.22-6.14-11.86-3.84-24.13-7.81-35.92-6h0C164.44,70.57,147.3,76.41,134.39,85c-6,4-11.57,9-16.91,13.9-1.56,1.43-3.18,2.9-4.77,4.32l-3.14,2.75c-5.74,5-11.67,10.19-16,16.5-3.45,5-4.52,10.52-5.66,16.31-.33,1.68-.67,3.41-1.08,5.15-1.58,6.81-4.39,13.14-7.1,19.27q-.93,2.1-1.85,4.21C68.93,188.12,70.81,208.67,73.83,226Z"/><path class="cls-31" d="M194.36,351.65l-.46.07c-8,1.12-17.08-.48-27.62-4.9-4.38-1.84-8.76-3.85-13-5.79-5.82-2.68-11.85-5.44-17.95-7.78-2.73-1.06-5.58-2-8.6-3-7.79-2.57-15.84-5.22-22.13-10-6.62-5-9.62-13.15-12.53-21-1.82-4.92-3.7-10-6.43-14.17l-.48-.74c-5-7.63-9.76-14.84-12.16-24-1.65-6.25-2.12-12.85-2.58-19.23A134.41,134.41,0,0,0,69,227.71c-.38-2.22-.8-4.47-1.21-6.65-3.27-17.65-6.66-35.9,2.12-54.05.95-2,2-3.95,2.94-5.86,3.11-6.1,6.06-11.86,7.79-18.47.57-2.14,1-4.35,1.45-6.49,1.22-5.95,2.47-12.1,6.21-17.37,4-5.62,9.5-10.17,14.83-14.57,1.84-1.52,3.74-3.09,5.51-4.65,2.55-2.25,5.08-4.65,7.52-7A157.36,157.36,0,0,1,129.71,80.7c13.28-10,32.11-17,56-20.71h0c12.19-1.89,24.53,2.38,36.47,6.5,8.89,3.07,18.08,6.25,27.09,6.83l2.58.17c16.4,1,30.56,1.92,44.51,13,5.57,4.43,10.19,10,14.65,15.29,1.46,1.75,3,3.56,4.49,5.29,2.35,2.68,4.86,5.33,7.29,7.9a163.12,163.12,0,0,1,11.94,13.57c4.13,5.46,7.85,11.45,11.44,17.24,2.14,3.45,4.36,7,6.62,10.41l2,3c6.42,9.52,13.06,19.36,14.92,29.93,1.51,8.54-2.72,17.23-6.44,24.88l-1,2A121.94,121.94,0,0,0,353,242.87c-.93,4.2-1.65,8.59-2.4,13.24-2.15,13.23-4.37,26.91-11.93,37.29-9.83,13.51-26.61,21.66-41.41,28.84-3.11,1.51-6,2.93-8.92,4.4-19.84,10.12-42.23,13.86-63.88,17.48-2.92.49-5.82,1-8.7,1.47a66.79,66.79,0,0,0-10.15,2.92A65.94,65.94,0,0,1,194.36,351.65ZM186.31,61.46l-.39.06c-23.61,3.69-42.21,10.56-55.28,20.42a160.09,160.09,0,0,0-13.39,11.81c-2.45,2.33-5,4.74-7.56,7-1.79,1.58-3.7,3.16-5.55,4.68-5.26,4.34-10.69,8.83-14.55,14.27-3.55,5-4.72,10.73-6,16.79-.44,2.16-.89,4.4-1.47,6.58-1.77,6.77-4.9,12.87-7.91,18.78-1,1.89-2,3.86-2.93,5.83-8.55,17.68-5.21,35.68-2,53.08.4,2.19.82,4.45,1.21,6.67.76,4.36,1.1,9.05,1.43,13.58.45,6.31.92,12.84,2.52,19,2.35,8.91,7,16,12,23.54l.49.74c2.83,4.31,4.74,9.48,6.59,14.49,2.83,7.66,5.75,15.58,12,20.31,6.09,4.6,14,7.21,21.68,9.74,3,1,5.91,1.94,8.68,3,6.14,2.36,12.19,5.13,18,7.82,4.22,1.94,8.58,3.94,12.94,5.77,10.28,4.31,19.05,5.88,26.8,4.79a61.57,61.57,0,0,0,11.38-3.13,67.65,67.65,0,0,1,10.39-3l8.7-1.47c21.54-3.6,43.81-7.32,63.43-17.33,2.9-1.48,5.84-2.9,8.95-4.42,15.36-7.45,31.24-15.15,40.84-28.35,7.34-10.09,9.53-23.58,11.65-36.63.76-4.67,1.47-9.08,2.41-13.32a124.41,124.41,0,0,1,9.5-27.16c.32-.67.65-1.34,1-2,3.8-7.81,7.73-15.89,6.31-23.94-1.8-10.24-8.35-19.95-14.67-29.33-.69-1-1.37-2-2-3-2.28-3.41-4.5-7-6.65-10.45-3.57-5.76-7.27-11.72-11.36-17.12A161.11,161.11,0,0,0,321.68,116c-2.44-2.58-5-5.24-7.33-8-1.53-1.75-3.05-3.56-4.52-5.31-4.41-5.28-9-10.74-14.43-15.07C281.83,76.92,268.57,76.08,251.77,75l-2.59-.16c-9.22-.6-18.51-3.81-27.5-6.91C198.28,59.86,192,60.57,186.31,61.46Z"/><path class="cls-32" d="M192.56,357.45c-7,1.08-15-.33-23.73-4.2-4.91-2.17-9.75-4.62-14.44-7A219.79,219.79,0,0,0,134.45,337c-3.28-1.26-6.77-2.39-10.15-3.49-7.47-2.41-15.19-4.9-21.76-9.16-6.06-3.93-8.81-8.72-11.52-15.65a111.88,111.88,0,0,0-11.64-22c-5.73-8.56-9.64-15.75-11.45-25.14a118.32,118.32,0,0,1-1.58-17.38,125.42,125.42,0,0,0-1.26-15.32c-.77-4.59-1.85-9.24-2.89-13.73-3.64-15.62-7.39-31.76,1.55-47.83,1.17-2.09,2.4-4.16,3.6-6.16,3.45-5.79,6.71-11.26,8.7-17.66.87-2.83,1.53-5.78,2.16-8.63,1.4-6.29,2.85-12.8,6.75-18.42,4.09-5.88,10-10.5,15.66-15,2.7-2.12,5.49-4.31,8-6.57,2.73-2.47,5.38-5.17,8-7.77a130.21,130.21,0,0,1,12.25-11.43c12.76-10,31.62-17,56.05-20.93l.17,0c12.31-1.91,24.59,2.51,36.46,6.79,9.27,3.34,18.86,6.8,28.36,7.18l4.19.16c16.87.59,31.44,1.11,45.22,13.94A124.15,124.15,0,0,1,311.5,96.69c2.18,2.73,4.43,5.56,6.77,8.21,2.91,3.31,6.12,6.49,9.21,9.56a159.21,159.21,0,0,1,11.63,12.4A167.91,167.91,0,0,1,350.76,144c2.16,3.48,4.4,7.08,6.72,10.47q1.29,1.88,2.64,3.8c6.57,9.42,14,20.09,16,31.24,1.59,9.07-2.93,17.31-7.31,25.27l-.73,1.33a102.74,102.74,0,0,0-10.36,28c-.89,4-1.63,8.18-2.42,12.59-2.5,14.06-5.08,28.59-13.06,39.68-10.7,14.85-28.7,23.54-44.58,31.2L293,329.84c-23.23,11.33-49,15.53-74,19.59l-3.42.56a51.62,51.62,0,0,0-11.19,3.66,57.8,57.8,0,0,1-10.7,3.61ZM185.27,56.26l-.16,0c-24.18,3.86-42.8,10.79-55.34,20.61a130.78,130.78,0,0,0-12.11,11.29c-2.58,2.63-5.25,5.34-8,7.84-2.54,2.3-5.35,4.51-8.07,6.64-5.6,4.4-11.39,8.94-15.34,14.63-3.74,5.38-5.08,11.45-6.51,17.87-.64,2.89-1.31,5.87-2.2,8.76-2,6.58-5.5,12.38-8.85,18-1.19,2-2.42,4.05-3.58,6.13-8.65,15.54-5.12,30.68-1.39,46.72,1.05,4.52,2.14,9.19,2.91,13.83a125.08,125.08,0,0,1,1.28,15.51,116.07,116.07,0,0,0,1.56,17.15c1.76,9.13,5.59,16.17,11.21,24.56a114.19,114.19,0,0,1,11.8,22.3c2.65,6.79,5.18,11.18,10.92,14.91,6.39,4.14,14,6.61,21.38,9,3.4,1.1,6.92,2.23,10.24,3.52,6.94,2.68,13.62,6.06,20.09,9.33,4.66,2.36,9.48,4.81,14.36,7,8.94,3.95,17,5.26,23.89,3.91a56.6,56.6,0,0,0,10.4-3.52,52.84,52.84,0,0,1,11.54-3.76l3.43-.56c24.85-4,50.55-8.22,73.57-19.46l4.66-2.26c15.72-7.58,33.54-16.17,44-30.71,7.78-10.79,10.33-25.15,12.8-39,.78-4.43,1.53-8.61,2.43-12.66a104.11,104.11,0,0,1,10.51-28.43l.73-1.34c4.25-7.73,8.64-15.72,7.15-24.25-1.9-10.82-9.24-21.34-15.72-30.62-.9-1.29-1.79-2.56-2.65-3.82-2.34-3.41-4.59-7-6.76-10.52a166.76,166.76,0,0,0-11.53-16.95,157.72,157.72,0,0,0-11.52-12.28c-3.11-3.09-6.34-6.28-9.29-9.63-2.36-2.69-4.62-5.53-6.81-8.28A123.5,123.5,0,0,0,298.2,83.93C284.84,71.5,271.23,71,254,70.4l-4.21-.15c-9.73-.39-19.43-3.89-28.82-7.27C209.27,58.77,197.19,54.41,185.27,56.26Z"/><path class="cls-33" d="M191.8,363.1c-9.4,1.46-18.39-2.39-24.55-5.55-3.62-1.86-7.19-3.89-10.63-5.84a173.28,173.28,0,0,0-18-9.32c-4.88-2.05-10.08-3.72-15.11-5.33-7.45-2.39-15.16-4.86-22.11-8.67-9.22-5.06-14.3-15.14-19.2-24.89a123,123,0,0,0-6.69-12.15c-5.92-9-11-17.33-12.63-28.82a157,157,0,0,1-1.21-16.27,145.44,145.44,0,0,0-1.27-16.56l.77-.12-.77.12a161.75,161.75,0,0,0-3.68-16.2c-4-15.21-8.14-30.95,1.32-46.06,1.44-2.3,3-4.54,4.45-6.71,4-5.79,7.7-11.25,9.94-18,1-3.1,1.81-6.3,2.57-9.4,1.56-6.42,3.18-13.05,7.12-19,4.07-6.12,10-10.64,15.66-15,2.79-2.14,5.67-4.35,8.27-6.71,3.4-3.07,6.57-6.52,9.63-9.85a132.7,132.7,0,0,1,11-11c12.25-10.58,31.59-17.93,57.52-21.9C196.67,48,209,52.41,221,56.69c9.85,3.53,20,7.18,30.27,7.26l3,0c18.35.1,34.19.19,47.84,15.27,3.48,3.83,6.61,8,9.63,12.09s6,8.1,9.41,11.84,7,7.1,10.65,10.41a151.76,151.76,0,0,1,11.16,11c4.94,5.57,9,12.2,12.92,18.61,2.17,3.54,4.4,7.19,6.73,10.57l2.43,3.49c6.63,9.48,14.15,20.23,16.1,31.69,1.67,9.82-3.15,18.35-7.81,26.6l-.91,1.61c-4.9,8.73-7.45,17.28-10,28.23-.86,3.75-1.62,7.58-2.42,11.65-3,15-6,30.5-14.64,42.41C334,315.08,316.84,324,297.18,333.32c-26.58,12.55-55.75,17.67-81,21.47-4.4.66-8.23,2.36-12.28,4.16a66.46,66.46,0,0,1-9.17,3.52A25.38,25.38,0,0,1,191.8,363.1Zm-8-311.59C158.45,55.44,139.55,62.66,127.61,73a132.69,132.69,0,0,0-10.82,10.92c-3.09,3.35-6.28,6.83-9.74,10-2.64,2.4-5.55,4.63-8.37,6.79-5.6,4.29-11.39,8.73-15.31,14.64-3.79,5.69-5.3,11.9-6.91,18.48-.76,3.12-1.55,6.36-2.6,9.52-2.31,6.91-6.28,12.72-10.13,18.35-1.47,2.15-3,4.38-4.42,6.65-9.1,14.55-5.23,29.26-1.13,44.84a165.88,165.88,0,0,1,3.72,16.36h0a147.18,147.18,0,0,1,1.28,16.74,155.46,155.46,0,0,0,1.19,16.1C66,273.48,71,281.69,76.76,290.5a122.33,122.33,0,0,1,6.78,12.31c4.8,9.53,9.77,19.4,18.57,24.22,6.82,3.74,14.45,6.19,21.83,8.55,5.07,1.62,10.3,3.3,15.25,5.38a176,176,0,0,1,18.19,9.4c3.44,1.95,7,4,10.57,5.81,10.45,5.37,18.82,6.89,26.36,4.8a65,65,0,0,0,8.95-3.44c4-1.76,8.06-3.58,12.68-4.27,25.15-3.79,54.19-8.88,80.58-21.34C316,322.73,333,313.87,344.1,298.5c8.41-11.63,11.44-27,14.38-41.8.8-4.08,1.56-7.93,2.43-11.7,2.56-11.09,5.15-19.75,10.14-28.64l.91-1.61c4.53-8,9.21-16.3,7.63-25.58-1.89-11.11-9-21.26-15.84-31.07l-2.44-3.49c-2.35-3.41-4.6-7.09-6.77-10.64-3.89-6.35-7.91-12.93-12.76-18.4a152.73,152.73,0,0,0-11-10.85c-3.63-3.33-7.39-6.77-10.76-10.51s-6.51-7.95-9.49-12-6.11-8.19-9.54-12c-13.19-14.57-28.72-14.66-46.69-14.76l-3,0c-10.5-.09-20.81-3.78-30.79-7.35-11.78-4.22-24-8.58-36.12-6.72Z"/><path class="cls-34" d="M191.92,368.32c-7.17,1.11-14.82-.5-22.78-4.83-4.14-2.24-8.12-4.75-12-7.19-6-3.79-12.23-7.71-19-10.59a175,175,0,0,0-17-5.85c-6.81-2.08-13.86-4.23-20.4-7.35C89.23,327,82.49,315,76,303.39c-2.14-3.81-4.16-7.41-6.31-10.71-6.88-10.56-10.24-19.1-11.59-29.48-.68-5.17-1-10.51-1.37-15.67-.37-5.64-.76-11.48-1.57-17l.77-.11-.77.11a150.35,150.35,0,0,0-3.69-16.28c-4.28-16.22-8.7-33,1.82-47.53,1.47-2,3-4,4.49-5.91,4.37-5.59,8.5-10.87,11-17.6a112.07,112.07,0,0,0,3.33-11.36c1.67-6.55,3.39-13.33,7.26-19.36C83.53,106,89.62,101.4,95.5,96.94c3-2.31,6.2-4.69,9-7.3a125.59,125.59,0,0,0,10.34-11.23c2.83-3.34,5.75-6.79,8.95-9.92,6.5-6.37,15.91-11.74,28-16a172.39,172.39,0,0,1,31.57-7.43c12.88-1.85,25.39,2.52,37.48,6.74,10.32,3.6,21,7.33,31.85,7.2l2.34,0c19.56-.24,36.45-.46,49.83,16.73,2.6,3.33,5,6.87,7.29,10.28a130.51,130.51,0,0,0,10.62,14.26,130.07,130.07,0,0,0,12.93,12.07c3.69,3.15,7.5,6.4,11,9.94,5.35,5.49,9.44,12.4,13.41,19.09C362,144.58,364,147.9,366,151c1,1.44,2,2.89,3,4.36,7,10.3,14.35,20.95,16.27,32.59,1.7,10.29-3.47,20-8,28.55-5.13,9.63-7.34,18.81-9.9,29.43l-.18.71c-.78,3.26-1.51,6.56-2.29,10.06-3.58,16.18-7.28,32.91-16.64,45.82-12.32,17-30.86,27.07-47.37,34.67-22.73,10.45-49.1,17.66-83,22.68-4.64.68-8.82,2.43-13.24,4.29a85.25,85.25,0,0,1-9,3.39A27.37,27.37,0,0,1,191.92,368.32ZM181.31,47c-15.77,2.45-42,8.49-56.41,22.64-3.14,3.08-6,6.5-8.85,9.81a125.54,125.54,0,0,1-10.47,11.37c-2.89,2.66-6.07,5.07-9.14,7.39-5.78,4.38-11.76,8.9-15.78,15.17-3.74,5.82-5.36,12.18-7.07,18.91a111.64,111.64,0,0,1-3.38,11.52c-2.6,7-6.8,12.33-11.24,18-1.48,1.89-3,3.85-4.47,5.85-10.09,14-5.76,30.37-1.57,46.24a153.6,153.6,0,0,1,3.73,16.44c.82,5.56,1.2,11.43,1.58,17.11.34,5.14.68,10.45,1.35,15.57,1.33,10.13,4.62,18.48,11.36,28.83,2.18,3.35,4.21,7,6.36,10.81,6.41,11.41,13,23.21,24.06,28.47,6.44,3.07,13.44,5.21,20.2,7.27a173.63,173.63,0,0,1,17.19,5.91c6.9,2.92,13.16,6.87,19.23,10.7,3.83,2.42,7.8,4.92,11.89,7.14,9,4.86,17.47,6.17,25.27,3.88a85.56,85.56,0,0,0,8.87-3.33c4.31-1.81,8.78-3.68,13.61-4.4,33.74-5,60-12.16,82.57-22.55,16.33-7.51,34.65-17.44,46.77-34.17,9.17-12.65,12.83-29.22,16.38-45.25.77-3.5,1.51-6.81,2.3-10.08l.17-.72c2.59-10.72,4.82-20,10-29.79,4.44-8.34,9.47-17.8,7.86-27.56-1.87-11.3-9.06-21.81-16-32-1-1.47-2-2.93-3-4.37-2.07-3.09-4.05-6.43-6-9.66-3.91-6.61-8-13.44-13.18-18.79-3.41-3.5-7.19-6.73-10.85-9.85a134.1,134.1,0,0,1-13.09-12.21,131.27,131.27,0,0,1-10.74-14.43c-2.3-3.4-4.67-6.91-7.23-10.19-12.91-16.59-29.45-16.38-48.59-16.14l-2.35,0c-11.14.13-21.93-3.64-32.37-7.28-11.92-4.17-24.24-8.47-36.75-6.68Z"/><path class="cls-35" d="M191.24,372.72a31,31,0,0,1-21.74-4.13c-4-2.38-7.84-5.07-11.54-7.68-5.79-4.08-11.78-8.3-18.53-11.28a156,156,0,0,0-20.27-6.78,167.73,167.73,0,0,1-18.81-6.14C86.69,331,78,316.64,70.37,303.93c-1.62-2.69-3.15-5.23-4.71-7.67-10.15-15.88-12.38-34.47-14.53-52.45-.49-4.08-1-8.3-1.59-12.36l.77-.11-.77.11A156.92,156.92,0,0,0,46.15,216c-4.18-16.63-8.92-35.48,2.38-49.46,1.6-2,3.26-3.88,4.86-5.71,5-5.72,9.69-11.11,12.5-18.46a105.77,105.77,0,0,0,3.57-12.14c1.66-6.62,3.38-13.46,7.19-19.56,4.24-6.8,10.45-11.45,16.46-16,3-2.25,6.13-4.59,9-7.17a98.13,98.13,0,0,0,11.25-12.87c2.61-3.36,5.32-6.84,8.33-10,7-7.35,16.52-10.87,25.77-14.28l2.62-1c9.5-3.55,20.79-7.4,32.58-9.08,12.15-1.73,24.72,2.63,35.81,6.47l2.46.86c11.77,4,22.07,6.66,34.13,6.26,11.28-.37,20.6-.47,29.17,1.71,9.95,2.53,17.41,7.82,23.47,16.63,2.13,3.09,4.08,6.33,6,9.46,3.29,5.47,6.69,11.11,11.08,16s9.49,8.91,14.48,12.84c3.55,2.8,7.24,5.7,10.62,8.88,6.14,5.77,10.41,13.33,14.54,20.63,1.8,3.19,3.67,6.5,5.64,9.55,1,1.58,2.11,3.22,3.15,4.8,6.76,10.22,13.75,20.78,15.61,32.25,1.73,10.6-3,20.62-7.56,30.32l-.1.2c-3.74,8-5.6,15.8-7.57,24.09-.51,2.14-1,4.36-1.6,6.59s-1.14,4.62-1.74,7.06c-4.16,17-8.88,36.36-19.25,50.65s-25.86,26.14-47,35.79c-23.62,10.78-52.49,18.94-83.46,23.63a96.73,96.73,0,0,0-15.19,4A90.94,90.94,0,0,1,191.24,372.72ZM181.66,42c-11.22,1.74-22,5.42-31.07,8.82l-2.62,1c-9.08,3.35-18.48,6.81-25.18,13.89-3,3.13-5.64,6.58-8.23,9.91a100.2,100.2,0,0,1-11.43,13.07c-2.9,2.63-6,5-9.09,7.26-6.16,4.62-12,9-16.08,15.53-3.67,5.89-5.36,12.61-7,19.11a106.65,106.65,0,0,1-3.62,12.32c-2.91,7.61-7.71,13.11-12.78,18.93-1.59,1.82-3.24,3.71-4.83,5.67-10.81,13.37-6.17,31.82-2.07,48.1,1.39,5.54,2.71,10.78,3.42,15.66.59,4.08,1.1,8.31,1.59,12.4,2.13,17.8,4.34,36.22,14.3,51.8,1.57,2.45,3.1,5,4.73,7.7,7.52,12.5,16,26.67,29.24,32.15a166.09,166.09,0,0,0,18.64,6.08,155.15,155.15,0,0,1,20.47,6.85c6.9,3.05,12.95,7.31,18.8,11.43,3.67,2.59,7.47,5.26,11.44,7.62,12.46,7.37,23.16,3.91,34.48.24a98.62,98.62,0,0,1,15.43-4.06c30.84-4.68,59.56-12.79,83.06-23.51,20.93-9.54,36.11-21.08,46.42-35.29,10.2-14,14.87-33.2,19-50.1.6-2.45,1.17-4.76,1.75-7.08s1.08-4.43,1.59-6.56c2-8.38,3.86-16.3,7.68-24.4l.1-.2c4.46-9.48,9.08-19.29,7.44-29.41-1.81-11.14-8.71-21.57-15.38-31.65-1.05-1.58-2.13-3.22-3.16-4.81-2-3.09-3.88-6.41-5.69-9.63-4.07-7.2-8.28-14.65-14.25-20.26-3.34-3.13-7-6-10.52-8.8-5-4-10.25-8.06-14.68-13S315.64,88,312.31,82.47c-1.88-3.11-3.81-6.32-5.92-9.38-13-18.92-31.61-18.31-51.31-17.67-12.3.4-22.76-2.25-34.68-6.35l-2.47-.85c-11.45-4-23.3-8.08-35.08-6.41Z"/><path class="cls-36" d="M193.55,377.62c-8.31,1.29-16.65.62-25.62-5.25-3.55-2.32-6.89-4.92-10.12-7.43-5.36-4.17-10.9-8.48-17.38-11.46-7.13-3.27-14.83-5.2-22.28-7.07a158.27,158.27,0,0,1-18.27-5.36C82.05,334.22,69.53,312.54,62,299.59c-11.48-19.88-15.28-46.11-18.33-67.19l.77-.11-.77.11c-.66-4.57-1.79-9.47-3-14.66-4-17.5-8.56-37.33,3.54-51.76,2-2.37,4.08-4.56,6.1-6.67,4.78-5,9.3-9.73,12.18-16.46a86.67,86.67,0,0,0,4.27-14.52c1.54-6.67,3.13-13.56,6.91-19.75,4.35-7.1,10.79-11.84,17-16.42a109.7,109.7,0,0,0,10.08-8,84.91,84.91,0,0,0,10.23-12.35,98.87,98.87,0,0,1,8.7-10.87c7-7.27,16.47-10.8,25.59-14.21,1.44-.53,2.93-1.09,4.38-1.65C161,40.69,171.14,37,181.89,35.47c13-1.81,26.35,2.51,38.15,6.33,12.72,4.11,23.78,6.81,36.39,6.63h.08c22-.32,41-.6,53.95,20.2,1.93,3.09,3.67,6.32,5.35,9.43,3.35,6.18,6.8,12.57,11.74,17.94,4.31,4.69,9.5,8.52,14.51,12.22a137.18,137.18,0,0,1,11.34,9c6.26,5.78,10.31,13.26,14.24,20.51,1.63,3,3.32,6.12,5.13,9.05,1.28,2.06,2.6,4.11,4,6.28,6.56,10.16,13.34,20.66,15,32.11s-2.8,22.52-6.4,31.49c-3,7.4-4.6,14.68-6.33,22.38-.66,3-1.36,6.08-2.13,9.17-4.82,19.22-10.82,43.14-23.38,60.39-11.63,16-29.1,29.66-47.94,37.53-28.14,11.76-57.25,20.29-82,24.06A121,121,0,0,0,208.07,374,113.45,113.45,0,0,1,193.55,377.62ZM181,37.17c-10.17,1.58-19.93,5.16-30.67,9.31l-4.39,1.66c-9,3.34-18.24,6.81-25,13.83a98,98,0,0,0-8.57,10.7,85.62,85.62,0,0,1-10.42,12.57,111.48,111.48,0,0,1-10.22,8.17c-6.39,4.7-12.42,9.14-16.61,16-3.65,6-5.21,12.74-6.72,19.29A88,88,0,0,1,64,143.45c-3,7-7.61,11.82-12.49,16.93-2,2.09-4.08,4.26-6,6.59-11.6,13.85-7.15,33.28-3.22,50.43,1.19,5.21,2.32,10.15,3,14.78,3,20.94,6.81,47,18.15,66.63,7.38,12.78,19.73,34.16,37,40.79a157.39,157.39,0,0,0,18.09,5.31c7.52,1.88,15.3,3.83,22.56,7.17,6.64,3.05,12.25,7.41,17.69,11.64,3.2,2.49,6.51,5.07,10,7.35,13.57,8.88,25.85,5.29,38.85,1.48a121.24,121.24,0,0,1,15.81-3.86C248,365,277,356.45,305,344.73c18.59-7.76,35.82-21.25,47.29-37,12.38-17,18.34-40.77,23.13-59.86.77-3.07,1.45-6.15,2.12-9.13,1.74-7.76,3.38-15.1,6.4-22.62,4.49-11.19,7.81-20.55,6.31-30.68-1.65-11.12-8.35-21.48-14.82-31.5-1.4-2.17-2.73-4.23-4-6.3-1.84-3-3.53-6.11-5.17-9.14-3.87-7.13-7.87-14.5-13.93-20.1a133.18,133.18,0,0,0-11.21-8.92c-5.07-3.75-10.32-7.62-14.74-12.42-5.06-5.51-8.56-12-11.95-18.25-1.67-3.09-3.41-6.3-5.31-9.35C296.65,49.4,278.06,49.67,256.54,50h-.08c-12.83.19-24-2.55-36.9-6.71-11.64-3.76-24.83-8-37.46-6.26Z"/><path class="cls-37" d="M196.35,382.74c-9.49,1.47-18.87.87-28.56-5.51a110.73,110.73,0,0,1-10.85-8.48c-4.88-4.16-9.93-8.46-16-11.37-7.47-3.59-15.7-5.4-23.67-7.14a147.42,147.42,0,0,1-18-4.76C76.91,337.47,62,309.38,58,301c-4.68-9.77-7.6-20.22-10.42-30.33l-.68-2.42c-.89-3.17-1.87-6.4-2.82-9.53-2.51-8.26-5.1-16.8-6.35-25.31-.61-4.15-1.53-8.56-2.5-13.23-3.88-18.73-8.28-40,4.86-54.82,2.15-2.43,4.42-4.64,6.62-6.78,5.26-5.11,10.23-9.94,13.11-17.2a87.44,87.44,0,0,0,3.91-14.55c1.42-6.89,2.9-14,6.8-20.5,4.45-7.38,11-12.07,17.41-16.61A107.16,107.16,0,0,0,98.07,81.8c4.1-3.74,7.3-8.3,10.4-12.71a84.51,84.51,0,0,1,9.43-11.83c6.85-6.75,15.72-10.18,24.3-13.5,1.86-.71,3.78-1.46,5.64-2.22l2.52-1c9.86-4,20.06-8.24,30.78-9.84,12.9-1.93,25.68,1.42,39.85,5.65,10.73,3.2,22.61,6.18,36.7,6.3,11.29.09,22,.18,31.41,3,10.62,3.15,18.31,9.3,24.18,19.36,1.86,3.2,3.51,6.56,5.11,9.81,3.09,6.29,6.28,12.79,11.07,18.14,4.42,4.95,9.88,8.81,15.16,12.55a112.86,112.86,0,0,1,12.3,9.6c6.51,6.1,10.58,14,14.52,21.54,1.6,3.1,3.26,6.29,5.06,9.33,1.22,2.06,2.54,4.19,3.81,6.25,6.11,9.87,12.43,20.09,14.27,31.45,1.89,11.72-1.82,23-5.41,34l-.07.2a179.42,179.42,0,0,0-4.8,19.4c-.88,4.28-1.8,8.71-2.93,13.06-5.68,21.86-12.65,44.44-25.05,61.47C343,330,325.43,344.06,308.16,350.23c-5.25,1.88-10.68,3.89-15.92,5.84-21.24,7.88-43.19,16-64.88,19.46a152.2,152.2,0,0,0-15.59,3.63A146,146,0,0,1,196.35,382.74ZM38.48,233.26l.76-.11c1.24,8.39,3.81,16.87,6.31,25.08,1,3.13,1.93,6.38,2.82,9.56l.68,2.42c2.81,10.05,5.71,20.44,10.33,30.08A120.86,120.86,0,0,0,76,326.06c7.73,9,15.76,15.06,23.88,18a145.64,145.64,0,0,0,17.79,4.7c8,1.77,16.37,3.6,24,7.26,6.24,3,11.37,7.36,16.32,11.58a110.67,110.67,0,0,0,10.7,8.37c14.3,9.41,28.11,5.68,42.72,1.73A154.07,154.07,0,0,1,227.11,374c21.55-3.41,43.43-11.53,64.59-19.39,5.25-1.95,10.68-4,15.93-5.84,17-6.06,34.28-19.9,47.43-38,12.25-16.83,19.16-39.24,24.81-60.95,1.12-4.31,2-8.72,2.92-13a175.12,175.12,0,0,1,4.84-19.57l.06-.2c3.54-10.76,7.19-21.89,5.36-33.24-1.79-11.06-8-21.14-14.05-30.89-1.28-2.06-2.6-4.2-3.83-6.27-1.82-3.07-3.49-6.29-5.11-9.4-3.88-7.48-7.89-15.21-14.2-21.13a110.87,110.87,0,0,0-12.14-9.46c-5.34-3.79-10.88-7.71-15.42-12.79-4.92-5.51-8.17-12.1-11.3-18.48-1.59-3.23-3.23-6.57-5.06-9.72-12.39-21.22-31.79-21.38-54.27-21.56-14.28-.12-26.28-3.13-37.13-6.37-14-4.17-26.59-7.48-39.18-5.6-10.53,1.57-20.64,5.72-30.41,9.74l-2.52,1c-1.88.77-3.8,1.51-5.67,2.23-8.43,3.26-17.15,6.63-23.77,13.16A83.39,83.39,0,0,0,109.74,70c-3.14,4.48-6.4,9.11-10.62,13a107.27,107.27,0,0,1-10.3,8c-6.53,4.65-12.7,9-17,16.15-3.77,6.25-5.22,13.25-6.62,20a87.56,87.56,0,0,1-4,14.81c-3,7.56-8.08,12.5-13.47,17.73-2.18,2.12-4.43,4.31-6.54,6.7-12.63,14.27-8.31,35.1-4.5,53.47,1,4.7,1.9,9.13,2.51,13.33Z"/><path class="cls-38" d="M199.75,387.7c-11.39,1.77-22.5,1.22-33.69-6.45a103,103,0,0,1-10.43-8.58c-5.26-4.73-10.22-9.2-16.71-12-7-3.07-14.74-4.58-22.2-6.05a133.29,133.29,0,0,1-18.41-4.53C78.87,343.26,62.22,321.39,55,304a187.84,187.84,0,0,1-6.63-20.17c-1.36-4.73-2.77-9.62-4.42-14.33-1.34-3.83-3-7.69-4.54-11.43-3.19-7.57-6.49-15.4-7.75-23.66-.53-3.51-1.22-7.19-1.95-11.07-3.78-20.21-8.06-43.1,5.89-58.87a93.82,93.82,0,0,1,7.49-7.33C48.31,152.33,53.27,147.84,56,141a86.42,86.42,0,0,0,4-15.67c1.39-7.3,2.82-14.85,6.9-21.66C71.49,96,78.43,91.19,85.14,86.57a101.4,101.4,0,0,0,11.14-8.48c3.83-3.51,6.83-7.85,9.73-12s6-8.72,10-12.37c6.68-6.1,15-9.41,23.07-12.6,2.31-.92,4.7-1.86,7-2.86,2-.85,4-1.74,5.89-2.61,9-4,18.43-8.22,28.4-9.74,15.23-2.31,30.46,1.43,45.19,5.05,10.55,2.59,21.46,5.27,32.24,5.68l.83,0c22.93.89,44.59,1.72,57.48,24.53,1.88,3.34,3.55,6.87,5.16,10.28,3.25,6.88,6.6,14,11.87,19.7,4.2,4.56,9.41,8.16,14.45,11.64a94.18,94.18,0,0,1,13.51,10.6c6.11,6.12,9.91,13.87,13.59,21.36,1.61,3.27,3.27,6.66,5.1,9.85,1.16,2,2.41,4.13,3.62,6.15,5.88,9.88,12,20.08,13.76,31.26,1.91,11.82-.7,23.46-3.79,35.33-1.4,5.38-2.53,10.92-3.63,16.27-1.25,6.1-2.54,12.42-4.24,18.57-5.7,20.6-12.91,44.13-26.4,62.62-18.65,25.57-37.47,35.63-50,39.56-11.69,3.68-23.58,7.79-35.33,12.21-3.3,1.25-6.67,2.6-9.92,3.91-10.52,4.22-21.4,8.59-32.67,10.42-5.23.84-10.49,2.14-15.57,3.39C210.28,385.59,205,386.89,199.75,387.7ZM33.17,234.12c1.23,8.07,4.49,15.81,7.64,23.3,1.58,3.76,3.21,7.64,4.58,11.52,1.66,4.75,3.07,9.66,4.44,14.41a185.44,185.44,0,0,0,6.57,20c7.12,17.13,23.43,38.6,42.42,45.25a133.13,133.13,0,0,0,18.2,4.47c7.54,1.48,15.34,3,22.52,6.15,6.72,2.93,12,7.69,17.13,12.3A100.3,100.3,0,0,0,166.94,380c15.75,10.8,31.59,6.91,48.36,2.79,5.11-1.26,10.4-2.56,15.69-3.41,11.1-1.8,21.9-6.14,32.34-10.33,3.26-1.31,6.64-2.67,9.95-3.92,11.78-4.43,23.69-8.55,35.41-12.24,12.28-3.86,30.79-13.76,49.19-39,13.33-18.28,20.49-41.66,26.16-62.13,1.68-6.1,3-12.38,4.21-18.46,1.1-5.37,2.23-10.93,3.65-16.35,3-11.71,5.62-23.17,3.76-34.69-1.75-10.89-7.76-21-13.56-30.71-1.21-2-2.47-4.14-3.64-6.18-1.85-3.24-3.52-6.64-5.14-9.93-3.62-7.38-7.37-15-13.3-21a93.74,93.74,0,0,0-13.29-10.41c-5.11-3.53-10.39-7.18-14.71-11.87-5.43-5.89-8.83-13.11-12.13-20.09-1.6-3.38-3.25-6.89-5.11-10.17-5.69-10.07-13.33-16.36-24-19.79-9.63-3.09-20.56-3.51-32.14-4l-.83,0c-10.94-.42-21.92-3.12-32.54-5.73-14.59-3.58-29.67-7.28-44.6-5l-.19,0c-9.71,1.51-18.91,5.62-27.81,9.6-1.93.86-3.94,1.76-5.91,2.61-2.33,1-4.73,2-7.05,2.88-7.93,3.14-16.12,6.39-22.59,12.31-3.86,3.52-6.87,7.88-9.78,12.1s-6,8.69-10,12.32A103.19,103.19,0,0,1,86,87.84c-6.88,4.74-13.37,9.22-17.82,16.64-3.94,6.58-5.35,14-6.71,21.16a87.4,87.4,0,0,1-4.08,15.94c-2.83,7.16-8.15,12-13.3,16.66a94.34,94.34,0,0,0-7.38,7.2c-13.45,15.21-9.24,37.71-5.52,57.56.73,3.9,1.42,7.59,2,11.12Z"/><path class="cls-39" d="M203.71,392.65c-13.1,2-26.23,1.75-38.78-6.66a96.89,96.89,0,0,1-11-9.05c-5-4.55-10.16-9.25-16.45-12.05-6.93-3.08-14.64-4.46-22.09-5.8a121,121,0,0,1-18.49-4.35c-21-7.4-39.05-30.64-45.29-48.74-1.74-5.05-3-10.27-4.29-15.32-1.7-6.84-3.45-13.91-6.31-20.54-1.72-4-3.89-7.92-6-11.74-4-7.26-8.12-14.77-9.48-23-.37-2.26-.78-4.59-1.22-7.06-3.7-21-8.3-47.13,6-64.36a83.73,83.73,0,0,1,8.45-8.4c5.28-4.78,10.26-9.29,12.92-15.83,2.17-5.36,3.2-11.11,4.19-16.66,1.35-7.51,2.74-15.26,6.94-22.28,4.71-7.86,11.77-12.6,18.6-17.19a92.11,92.11,0,0,0,12.13-9.16,75.23,75.23,0,0,0,9.25-11.35c3.41-4.79,6.93-9.75,11.76-13.59,6.5-5.18,14.31-8.26,21.87-11.24,3.34-1.32,6.8-2.68,10.06-4.2,2.1-1,4.23-2,6.3-3,8.51-4.14,17.31-8.42,26.84-10,16.35-2.64,32.89.95,48.88,4.41,9.92,2.14,20.18,4.35,30.22,5,11.58.79,23.56,1.61,34.1,5.2A45.94,45.94,0,0,1,319,57.2c2,3.49,3.74,7.22,5.42,10.82,3.16,6.76,6.43,13.75,11.46,19.39,4.16,4.66,9.41,8.32,14.49,11.87a93.59,93.59,0,0,1,13.21,10.47c6.38,6.42,10.13,14.41,13.76,22.14,1.56,3.32,3.18,6.76,5,10.05,1.26,2.27,2.62,4.63,3.93,6.91,5.78,10,11.75,20.38,13.55,31.52,2,12.45.07,25.42-2.1,36.47-.44,2.2-.86,4.4-1.28,6.59a289.87,289.87,0,0,1-6.52,28.78c-.82,2.73-1.62,5.5-2.39,8.18-2.39,8.25-4.86,16.79-8,25a139.61,139.61,0,0,1-17.39,32.45c-15.51,21.25-32.11,34.28-50.75,39.83a323.22,323.22,0,0,0-34.5,12c-3.92,1.66-7.92,3.58-11.79,5.44-9.64,4.62-19.6,9.4-30,11.08-5.07.82-10.27,2-15.3,3.15C214.47,390.59,209.09,391.82,203.71,392.65ZM27.1,235.1c1.32,8,5.38,15.41,9.31,22.56,2.11,3.84,4.29,7.82,6,11.87,2.91,6.74,4.68,13.87,6.4,20.77,1.24,5,2.53,10.21,4.25,15.19,6.12,17.77,23.74,40.55,44.34,47.78,5.85,2.06,12.15,3.19,18.25,4.29,7.54,1.36,15.33,2.76,22.43,5.92,6.53,2.89,11.79,7.69,16.88,12.32a93.93,93.93,0,0,0,10.79,8.9c17.16,11.5,35.71,7.26,53.66,3.16,5.05-1.15,10.28-2.34,15.4-3.17,10.19-1.65,20.05-6.38,29.59-10.95,3.89-1.86,7.9-3.79,11.86-5.46A323,323,0,0,1,311,356.17c18.3-5.45,34.64-18.29,49.94-39.25a138.51,138.51,0,0,0,17.2-32.1c3.11-8.13,5.57-16.64,7.95-24.86.77-2.68,1.57-5.46,2.39-8.19a285.09,285.09,0,0,0,6.49-28.63c.42-2.2.84-4.39,1.27-6.6,2.15-10.91,4.07-23.71,2.1-35.93-1.76-10.86-7.66-21.09-13.36-31-1.32-2.28-2.68-4.64-3.94-6.94-1.84-3.32-3.46-6.79-5-10.13-3.74-8-7.27-15.48-13.46-21.71a92.57,92.57,0,0,0-13-10.29C344.36,97,339,93.24,334.75,88.44c-5.18-5.8-8.49-12.9-11.7-19.76-1.67-3.58-3.4-7.28-5.37-10.71-13-22.77-35.37-24.3-59.05-25.92-10.15-.7-20.46-2.92-30.43-5.08-15.86-3.42-32.26-7-48.32-4.38-9.29,1.49-18,5.72-26.41,9.82-2.07,1-4.21,2.05-6.32,3-3.3,1.53-6.78,2.9-10.14,4.23-7.45,2.94-15.16,6-21.47,11-4.66,3.71-8.12,8.57-11.47,13.28a76.55,76.55,0,0,1-9.44,11.57,92.15,92.15,0,0,1-12.34,9.33c-7,4.7-13.6,9.13-18.13,16.7-4.06,6.77-5.42,14.39-6.74,21.75-1,5.63-2.05,11.46-4.29,17C50.35,147.15,45,152,39.82,156.68a83.84,83.84,0,0,0-8.3,8.24c-13.82,16.67-9.28,42.42-5.64,63.1C26.32,230.49,26.73,232.82,27.1,235.1Z"/><path class="cls-40" d="M207.72,397.57c-15.23,2.37-30.49,2.31-44.78-7.09a101.68,101.68,0,0,1-11.08-8.86c-5-4.38-10.14-8.91-16.29-11.72-6.89-3.15-14.56-4.57-22-5.94-6.17-1.14-12.55-2.32-18.52-4.49C74.7,352.08,54,329.12,48,307.2c-1.17-4.26-2-8.62-2.79-12.83-1.54-8.13-3-15.8-6.74-23.18a107.43,107.43,0,0,0-7.57-12.1c-4.85-7-9.87-14.34-11.3-22.77l-.36-2.1c-3.76-22.06-8.92-52.27,6.1-71.62a88.71,88.71,0,0,1,8.81-9.32c5.33-5.09,10.35-9.91,13.06-16.85,2.06-5.26,3.07-10.9,4.05-16.36,1.36-7.62,2.78-15.5,7-22.59,4.75-7.87,11.92-12.64,18.86-17.26a95.21,95.21,0,0,0,12-9,81.22,81.22,0,0,0,9.41-11c3.62-4.8,7.37-9.76,12.39-13.56,6.46-4.91,14.09-7.84,21.47-10.68,4.13-1.58,8.39-3.22,12.37-5.18,2.61-1.28,5.25-2.68,7.8-4,8.27-4.4,16.82-8.94,26.23-10.52,17.93-3,36.12.47,53.71,3.84,8.84,1.7,18,3.45,26.93,4.33C272,25.65,284,27.07,294.64,31c12.14,4.45,21.08,11.69,27.34,22.13,2.18,3.63,4.08,7.5,5.92,11.25,3.2,6.53,6.52,13.28,11.38,18.86,4.18,4.81,9.41,8.67,14.47,12.39s10.59,7.8,14.94,12.86c5.26,6.1,8.43,13.4,11.49,20.46,1.51,3.47,3.07,7,4.85,10.45,1.43,2.71,3,5.51,4.51,8.22,5.57,10,11.33,20.24,13.11,31.22,2,12,3.39,37.68-8.8,74.19-1.66,4.95-3,10.1-4.38,15.09a197.69,197.69,0,0,1-6.13,20,145.94,145.94,0,0,1-18,32.75c-15.72,21.58-31.89,33.92-52.41,40-11.67,3.46-24,7.32-35.75,13-3.7,1.8-7.47,3.93-11.11,6-8.71,4.93-17.71,10-27.37,11.63-4.77.79-9.71,1.84-14.5,2.86C218.75,395.55,213.24,396.72,207.72,397.57ZM180.06,17.63l-.92.15c-9.15,1.53-17.59,6-25.75,10.36-2.57,1.36-5.22,2.77-7.84,4.06-4.05,2-8.35,3.64-12.5,5.24-7.28,2.8-14.81,5.69-21.1,10.46-4.84,3.68-8.52,8.55-12.08,13.26a82.66,82.66,0,0,1-9.6,11.23A97.3,97.3,0,0,1,78,81.51c-7.11,4.73-13.82,9.2-18.39,16.77-4.13,6.84-5.52,14.58-6.86,22.07-1,5.52-2,11.24-4.12,16.65-2.84,7.26-8.22,12.41-13.43,17.4a85.33,85.33,0,0,0-8.66,9.15C12,182.36,17.06,212.18,20.78,234l.36,2.11c1.37,8.09,6.29,15.24,11,22.15a111.93,111.93,0,0,1,7.68,12.28c3.84,7.57,5.38,15.72,6.87,23.59.79,4.18,1.61,8.51,2.77,12.71,5.89,21.49,26.14,44,46.1,51.22,5.85,2.13,12.17,3.3,18.27,4.43,7.51,1.39,15.27,2.82,22.34,6.05,6.36,2.9,11.6,7.51,16.67,12a99.62,99.62,0,0,0,10.9,8.72c18.93,12.45,39.86,8,60.1,3.69,4.8-1,9.76-2.08,14.57-2.88,9.38-1.55,18.26-6.58,26.85-11.45,3.67-2.08,7.46-4.22,11.2-6.05,11.82-5.75,24.26-9.63,36-13.11,20.17-6,36.09-18.15,51.6-39.44a143.93,143.93,0,0,0,17.79-32.39A196.51,196.51,0,0,0,388,267.7c1.35-5,2.74-10.19,4.4-15.18,12.1-36.2,10.68-61.56,8.75-73.45-1.73-10.71-7.43-20.88-12.93-30.71-1.52-2.72-3.1-5.53-4.53-8.26-1.81-3.45-3.38-7.06-4.9-10.55-3-7-6.14-14.14-11.24-20.07-4.24-4.93-9.55-8.84-14.69-12.62s-10.42-7.68-14.72-12.62c-5-5.74-8.35-12.58-11.6-19.2-1.83-3.71-3.71-7.56-5.86-11.14-6.07-10.12-14.75-17.15-26.55-21.47-10.48-3.84-22.41-5.25-34.73-6.47-9-.89-18.18-2.64-27.06-4.34C215.15,18.33,197.42,14.94,180.06,17.63Z"/><path class="cls-41" d="M211.2,402.54c-16.4,2.54-32.83,2.82-48.23-6a100.25,100.25,0,0,1-13.37-9.76c-5.41-4.41-11-9-17.59-11.81s-13.56-4.25-20.38-5.66c-6.28-1.3-12.78-2.64-18.91-5-10.47-4.07-21.21-11.93-30.25-22.15-9.17-10.37-15.52-22-17.87-32.76-.89-4.09-1.46-8.21-2-12.21-1.26-9.19-2.46-17.87-7.3-26a93.69,93.69,0,0,0-8.6-11.52c-5.59-6.74-11.37-13.72-12.86-22.34-2-11.67-4-25.38-3.81-38.64.26-15.89,3.59-28.16,10.18-37.53a88.94,88.94,0,0,1,9-10.3c4.93-5.12,9.59-9.95,12.32-16.52,2.31-5.54,3.45-11.54,4.56-17.35,1.49-7.8,3-15.87,7.41-23C58.28,86,65.69,81.05,72.87,76.23A110.72,110.72,0,0,0,84.34,67.8a92.62,92.62,0,0,0,10.1-11c4.46-5.43,9.08-11,15.45-15,5.86-3.67,12.42-6,18.76-8.26a122.42,122.42,0,0,0,14.59-5.92c3.09-1.58,6.19-3.38,9.2-5.11,8-4.65,16.35-9.45,25.7-11,20.51-3.48,41.23.14,61.27,3.65,7.15,1.24,14.54,2.54,21.79,3.48,24.33,3.17,49.3,8.11,63.78,30.31,2.53,3.88,4.76,8,6.92,11.95,3.65,6.7,7.41,13.62,12.66,19.49a95.26,95.26,0,0,0,12.89,11.32c5.19,4,10.55,8.21,14.81,13.55,5.08,6.36,8.12,13.83,11.06,21,1.61,4,3.28,8.06,5.27,11.92,1.41,2.75,3,5.58,4.46,8.31,5.42,9.87,11,20.08,12.76,30.94,4,24.58,1,51.25-8.58,77.13a186.84,186.84,0,0,0-5.61,19.29c-1.37,5.42-2.78,11-4.61,16.46-3.58,10.67-9.56,21.65-18.26,33.56S352,344.36,343.81,350.49c-9,6.7-18.52,10-30.05,13.58l-1.56.48c-11,3.42-22.31,6.95-32.52,12.36-4,2.12-8,4.77-11.88,7.34-8.14,5.38-16.55,10.94-26,12.51-4.54.75-9.06,1.67-13.84,2.64C222.44,400.53,216.82,401.67,211.2,402.54ZM15.36,237c1.42,8.22,7.06,15,12.52,21.62a94.35,94.35,0,0,1,8.74,11.72c5,8.43,6.28,17.67,7.51,26.61.54,4,1.1,8.06,2,12.09,4.67,21.37,25.83,45.5,47.17,53.79,6,2.34,12.44,3.67,18.66,4.95,6.9,1.43,14,2.91,20.68,5.76s12.47,7.55,18,12a100.21,100.21,0,0,0,13.16,9.62c20.17,11.57,42.43,7.06,64,2.7,4.59-.93,9.33-1.89,13.89-2.65,9.07-1.51,17.35-7,25.35-12.28,3.91-2.58,7.95-5.25,12-7.41,10.34-5.48,21.75-9,32.79-12.47l1.55-.48c11.4-3.55,20.81-6.79,29.59-13.34,8.08-6,15.91-14.4,24.62-26.31s14.51-22.62,18-33.15c1.81-5.37,3.22-10.94,4.58-16.34A187.88,187.88,0,0,1,395.78,254c9.48-25.62,12.42-52,8.5-76.34-1.7-10.6-7.24-20.69-12.59-30.44-1.51-2.75-3.06-5.58-4.48-8.35-2-3.92-3.7-8.05-5.33-12.05-2.9-7.11-5.89-14.47-10.83-20.67-4.15-5.19-9.44-9.31-14.55-13.28-4.51-3.51-9.18-7.14-13.1-11.52-5.36-6-9.17-13-12.86-19.78-2.14-3.94-4.36-8-6.86-11.84C309.56,28.08,285,23.23,261,20.11c-7.28-.95-14.69-2.25-21.86-3.5C219.23,13.13,198.65,9.53,178.4,13c-9.07,1.54-17.26,6.27-25.19,10.85-3,1.74-6.14,3.55-9.26,5.15a124,124,0,0,1-14.78,6c-6.27,2.23-12.74,4.54-18.46,8.11-6.16,3.85-10.49,9.12-15.07,14.69A93.88,93.88,0,0,1,85.36,69a111.7,111.7,0,0,1-11.63,8.56c-7.36,4.94-14.31,9.61-19,17.2-4.22,6.9-5.74,14.83-7.2,22.49-1.13,5.89-2.29,12-4.66,17.65-2.85,6.85-7.82,12-12.64,17A87,87,0,0,0,21.47,162c-6.4,9.11-9.64,21.1-9.9,36.66C11.35,211.78,13.36,225.4,15.36,237Z"/><path class="cls-42" d="M214.87,407.18c-18.31,2.84-36.75,3.5-54.15-5.78a110.24,110.24,0,0,1-14.14-9.52c-5.36-4-10.9-8.19-17.2-11s-13.27-4.45-19.94-6c-6.5-1.54-13.23-3.13-19.53-5.81C77.94,364,68.4,354.36,59.66,345c-9.6-10.33-16.49-20.11-18.88-34.24-.66-3.89-1-7.85-1.32-11.68-.81-9.53-1.58-18.54-6.9-26.71a84.84,84.84,0,0,0-9.77-11.55c-6.35-6.66-12.92-13.55-14.46-22.62-2.61-15.42-3.73-28.46-3.4-39.89.45-16,3.79-29.07,9.9-38.87A99.21,99.21,0,0,1,24,147.57C28.71,142,33.19,136.81,36,130c2.2-5.35,3.4-11.16,4.56-16.77,1.63-7.87,3.32-16,7.76-23.09,4.91-7.85,12.56-13.06,20-18.11A115.78,115.78,0,0,0,80.41,63a104.78,104.78,0,0,0,9.12-9.65c4.7-5.4,9.56-11,16.15-14.82,6.14-3.57,12.9-5.79,19.45-7.94,6-2,12.27-4,17.94-7.12,3-1.65,6.06-3.53,9-5.35,7.85-4.88,16-9.91,25.33-11.46,24.3-4,47.33-.09,71.72,4.05,3.52.59,7.17,1.21,10.77,1.8,25.61,4.14,52,10,68.1,32.1,3.05,4.17,5.75,8.65,8.36,13,3.69,6.14,7.52,12.48,12.37,18A110.87,110.87,0,0,0,361,86.84c5.56,4.63,11.32,9.42,15.68,15.56,4.57,6.45,7.37,13.86,10.08,21a139.24,139.24,0,0,0,5.86,14c1.4,2.73,2.92,5.53,4.39,8.24,5.3,9.72,10.78,19.78,12.49,30.57a185.1,185.1,0,0,1,1.59,42.26c-1,13.58-4.94,23.89-9.64,35-3.55,8.39-5.62,17.19-7.62,25.69-1.06,4.48-2.15,9.1-3.45,13.66-3.88,13.65-11.65,25.35-18,34-7.18,9.82-15.32,19.86-26.12,26.76-9.55,6.1-19.74,9.56-30.54,13.22l-.33.11-4.56,1.53c-10.55,3.53-21.45,7.18-31,12.76a122.73,122.73,0,0,0-11.1,7.72c-7.49,5.62-15.24,11.44-24.48,13-4.39.72-8.94,1.59-13.34,2.42C225.61,405.33,220.25,406.35,214.87,407.18ZM178.74,8l-1.09.17c-9.05,1.5-17,6.45-24.77,11.24-2.95,1.83-6,3.73-9.07,5.4C138,28,131.71,30,125.61,32c-6.47,2.13-13.15,4.33-19.15,7.81-6.37,3.71-10.93,8.95-15.76,14.5a108.91,108.91,0,0,1-9.25,9.79,116.5,116.5,0,0,1-12.29,9.18c-7.27,5-14.79,10.08-19.53,17.65-4.29,6.85-6,14.85-7.55,22.58-1.18,5.69-2.4,11.57-4.65,17-2.9,7-7.67,12.61-12.28,18a97.1,97.1,0,0,0-9,11.64c-6,9.55-9.22,22.37-9.67,38.09-.32,11.32.78,24.26,3.38,39.58,1.46,8.6,7.86,15.32,14.05,21.81a85.42,85.42,0,0,1,10,11.78C39.4,280,40.21,289.59,41,298.9c.32,3.79.65,7.72,1.3,11.55,2.33,13.75,9.07,23.32,18.49,33.45,9,9.67,18,18.76,29.72,23.75,6.18,2.64,12.84,4.21,19.27,5.73,6.74,1.59,13.71,3.24,20.22,6.11s12.07,7.07,17.5,11.15A107.55,107.55,0,0,0,161.45,400c22,11.75,46,7.18,69.19,2.76,4.41-.84,9-1.71,13.38-2.43,8.87-1.46,16.46-7.16,23.8-12.67a122.31,122.31,0,0,1,11.25-7.81c9.66-5.67,20.64-9.34,31.26-12.9l4.55-1.53.33-.11c10.71-3.63,20.82-7.06,30.21-13.06,10.58-6.76,18.6-16.67,25.7-26.37,6.26-8.56,13.94-20.11,17.75-33.52,1.29-4.53,2.38-9.14,3.43-13.59,2-8.57,4.11-17.43,7.7-25.94,4.65-11,8.57-21.15,9.53-34.5a183.66,183.66,0,0,0-1.58-41.9c-1.67-10.54-7.08-20.47-12.32-30.08-1.48-2.72-3-5.53-4.41-8.27A138.59,138.59,0,0,1,385.29,124c-2.68-7.08-5.44-14.4-9.9-20.68-4.24-6-9.91-10.7-15.4-15.27a111.8,111.8,0,0,1-12.43-11.47c-4.95-5.6-8.81-12-12.54-18.2-2.59-4.3-5.27-8.75-8.28-12.87C311,23.91,284.94,18.1,259.64,14c-3.6-.59-7.25-1.21-10.78-1.8C225,8.15,202.38,4.32,178.74,8Z"/><path class="cls-43" d="M217.86,411.67c-19.66,3.05-39.58,4.18-58.73-4.87A120.36,120.36,0,0,1,143,397c-5.56-3.78-11.3-7.69-17.61-10.43a129.8,129.8,0,0,0-18.13-5.86c-6.84-1.85-13.9-3.76-20.44-6.9C75.25,368.25,66,358.89,56.67,349c-8.56-9.15-17.12-19.31-19.48-33.92a115.7,115.7,0,0,1-1.12-13.53c-.42-9.48-.86-19.29-6.22-27.47-2.89-4.4-7-8.34-11.07-12.14-6.9-6.52-14-13.27-15.57-22.93C-2.65,202.29-.5,175.44,9.76,156.9a106.17,106.17,0,0,1,9-13.09c4.05-5.26,8.24-10.7,11-17,2.3-5.36,3.64-11.28,4.94-17,1.84-8.09,3.74-16.45,8.34-23.52,5-7.58,12.54-12.84,19.89-17.92a126.59,126.59,0,0,0,11.72-8.8C78,56.59,81,53.32,84,50.15c5.65-6.09,11.5-12.4,19.54-16.37,5.79-2.85,12-4.7,18-6.48,6.75-2,13.74-4.08,20-7.59,3.28-1.83,6.55-4,9.7-6C159,8.58,167.06,3.32,176.52,1.85l.14,0c29.6-4.47,57.45,0,85.75,5.37,22.62,4.3,50.86,11.94,68.6,33a161.63,161.63,0,0,1,10.56,14.64,146.55,146.55,0,0,0,11.51,15.73A125.46,125.46,0,0,0,364.6,81.7c6,5.31,12.19,10.8,16.62,17.86,3.93,6.26,6.38,13.28,8.75,20.06A127.26,127.26,0,0,0,396.09,135c1.61,3.18,3.4,6.42,5.13,9.55,5.36,9.71,10.91,19.75,12.6,30.76a206.7,206.7,0,0,1,2.17,42c-.77,14.66-5.5,24.76-11.49,37.55-4.42,9.42-6.32,18.92-8.34,29-.67,3.31-1.35,6.73-2.13,10.14-3.36,14.64-10.91,26.33-17.85,35.83-8.46,11.59-16.32,20.52-27.18,26.45-8.93,4.87-18.6,8.51-27.94,12L316.37,370c-2.36.89-4.8,1.79-7.17,2.65-9.54,3.5-19.4,7.11-27.89,12.31a105.24,105.24,0,0,0-11.18,8.33c-7.27,5.93-14.79,12.06-24.38,13.57-4.51.71-9.13,1.54-13.59,2.34C227.42,410.07,222.65,410.93,217.86,411.67ZM176.76,3.38C167.62,4.8,159.75,10,152.12,15c-3.18,2.08-6.47,4.24-9.8,6.1-6.45,3.59-13.52,5.68-20.36,7.71-6,1.77-12.11,3.59-17.79,6.39-7.78,3.85-13.27,9.77-19.09,16a133.4,133.4,0,0,1-9.41,9.48A123.59,123.59,0,0,1,63.81,69.6c-7.22,5-14.69,10.17-19.47,17.5-4.45,6.84-6.32,15.06-8.12,23-1.32,5.79-2.68,11.78-5,17.27-2.79,6.52-7,12-11.15,17.37a106.66,106.66,0,0,0-8.93,12.9C1,175.88-1.06,202.4,4.74,238.73c1.46,9.15,8.4,15.71,15.11,22,4.09,3.87,8.31,7.86,11.3,12.42,5.59,8.54,6,18.56,6.47,28.25a115.9,115.9,0,0,0,1.1,13.35C41,329,49.4,338.94,57.81,347.91,67,357.72,76.16,367,87.47,372.4c6.41,3.08,13.41,5,20.17,6.8A131.16,131.16,0,0,1,126,385.14c6.44,2.8,12.24,6.75,17.86,10.57a119.51,119.51,0,0,0,16,9.69c23.35,11,48.13,6.6,72.09,2.3,4.47-.81,9.09-1.64,13.62-2.35,9.18-1.44,16.53-7.44,23.64-13.24a106,106,0,0,1,11.35-8.45c8.62-5.28,18.56-8.92,28.17-12.44,2.36-.86,4.8-1.76,7.15-2.65l4.69-1.77c9.3-3.5,18.91-7.11,27.75-11.94,10.6-5.79,18.33-14.57,26.67-26,6.85-9.38,14.29-20.9,17.58-35.27.78-3.39,1.46-6.8,2.13-10.09,2-10.16,4-19.75,8.46-29.34,5.91-12.63,10.58-22.61,11.34-37a205,205,0,0,0-2.16-41.67c-1.64-10.74-7.12-20.66-12.42-30.25-1.74-3.14-3.53-6.4-5.15-9.6a128.77,128.77,0,0,1-6.2-15.55c-2.35-6.7-4.77-13.63-8.6-19.75-4.31-6.87-10.43-12.28-16.34-17.52a128.38,128.38,0,0,1-11.66-11.23,148.09,148.09,0,0,1-11.63-15.89,160.62,160.62,0,0,0-10.45-14.5C312.4,20.51,284.49,13,262.12,8.72,234,3.37,206.25-1.07,176.89,3.36Z"/></g></g></svg>