<svg xmlns="http://www.w3.org/2000/svg" width="186.75" height="14" viewBox="0 0 186.75 14">
  <g id="Group_288" data-name="Group 288" transform="translate(-8606.125 -699.019)">
    <text id="左右滑動_觀看更多" data-name="左右滑動 觀看更多" transform="translate(8641.911 711.019)" fill="#fff" font-size="14" font-family="NotoSansHant-Bold, Noto Sans T Chinese" font-weight="700"><tspan x="0" y="0">左右滑動 觀看更多</tspan></text>
    <g id="Group_287" data-name="Group 287">
      <g id="Group_285" data-name="Group 285">
        <path id="Path_195" data-name="Path 195" d="M8792.445,705.05,8787.2,699.8a1.391,1.391,0,0,0-1.9-.1,1.34,1.34,0,0,0-.052,1.943l2.378,2.378a.426.426,0,0,1-.3.728h-8.573a1.39,1.39,0,0,0-1.413,1.267,1.339,1.339,0,0,0,1.337,1.411h8.649a.426.426,0,0,1,.3.728l-2.325,2.324a1.391,1.391,0,0,0-.1,1.895,1.342,1.342,0,0,0,1.944.053l5.3-5.3A1.472,1.472,0,0,0,8792.445,705.05Z" fill="#fff"/>
        <path id="Path_196" data-name="Path 196" d="M8773.717,704.751h-1.544a1.339,1.339,0,0,0,0,2.678h1.544a1.339,1.339,0,0,0,0-2.678Z" fill="#fff"/>
        <path id="Path_197" data-name="Path 197" d="M8767.608,704.751h-.145a1.339,1.339,0,0,0,0,2.678h.145a1.339,1.339,0,0,0,0-2.678Z" fill="#fff"/>
      </g>
      <g id="Group_286" data-name="Group 286">
        <path id="Path_198" data-name="Path 198" d="M8606.555,707.146l5.246,5.246a1.391,1.391,0,0,0,1.9.1,1.34,1.34,0,0,0,.052-1.943l-2.378-2.378a.426.426,0,0,1,.3-.727h8.573a1.39,1.39,0,0,0,1.413-1.267,1.339,1.339,0,0,0-1.337-1.412h-8.649a.426.426,0,0,1-.3-.727l2.325-2.324a1.391,1.391,0,0,0,.1-1.9,1.341,1.341,0,0,0-1.944-.053l-5.3,5.3A1.472,1.472,0,0,0,8606.555,707.146Z" fill="#fff"/>
        <path id="Path_199" data-name="Path 199" d="M8625.283,707.446h1.544a1.339,1.339,0,0,0,0-2.679h-1.544a1.339,1.339,0,0,0,0,2.679Z" fill="#fff"/>
        <path id="Path_200" data-name="Path 200" d="M8631.392,707.446h.145a1.339,1.339,0,0,0,0-2.679h-.145a1.339,1.339,0,0,0,0,2.679Z" fill="#fff"/>
      </g>
    </g>
  </g>
</svg>
