<svg width="375" height="36" viewBox="0 0 375 36" fill="none" xmlns="http://www.w3.org/2000/svg">
<path d="M356 21H376" stroke="#FFAA2A"/>
<path d="M0 21H20" stroke="#FFAA2A"/>
<path d="M44.2664 31.425C48.4164 31.425 50.9914 29.35 50.9914 26.3C50.9914 23.35 49.2164 21.325 44.2164 21.075V21.45C48.7164 21.025 50.4414 19 50.4414 16.425C50.4414 13.85 48.5664 12 44.7414 12C41.7914 12 39.2414 13.225 39.1164 16.15C39.3664 16.6 39.8414 16.9 40.4414 16.9C41.2664 16.9 41.9664 16.5 42.1914 15.3L42.7164 12.775L41.2414 13.425C42.1664 13.025 42.9664 12.85 43.6914 12.85C45.6414 12.85 46.7664 14.1 46.7664 16.55C46.7664 19.475 45.2664 20.85 43.0164 20.85H42.1414V21.8H43.1414C45.7664 21.8 47.1414 23.375 47.1414 26.3C47.1414 29.075 45.6914 30.575 43.0914 30.575C42.1664 30.575 41.5914 30.35 40.8414 29.975L42.0664 30.7L41.5664 28.075C41.3414 26.525 40.7664 26.05 39.8414 26.05C39.2164 26.05 38.6164 26.375 38.3414 27.125C38.6164 29.85 40.6164 31.425 44.2664 31.425ZM62.0049 9.675L61.8549 9.825C62.7049 10.55 63.5549 11.8 63.7799 13C66.8549 14.775 69.2049 9.075 62.0049 9.675ZM67.8549 28.375H61.4049V29.075H67.8549V28.375ZM66.3549 24.7H66.6049V30.3H67.1299C68.1299 30.3 69.5799 29.7 69.6049 29.525V25.85C70.0799 25.75 70.3799 25.55 70.5299 25.35L67.7049 23.3L66.3549 24.7ZM63.1549 29.8V25.425H68.1799V24.7H63.2549L60.2049 23.525V30.7H60.6049C61.8049 30.7 63.1549 30.05 63.1549 29.8ZM69.2799 19.225H60.0299V19.95H69.2799V19.225ZM67.9549 15.575H68.2049V21.125H68.7549C69.7799 21.125 71.4549 20.625 71.4799 20.45V16.825C72.0049 16.725 72.3299 16.475 72.4799 16.3L69.4049 13.975L67.9549 15.575ZM61.7049 20.475V16.3H69.3299V15.575H61.8549L58.5049 14.3V21.425H58.9299C60.2549 21.425 61.7049 20.725 61.7049 20.475ZM57.8299 32.25V22.75H72.9549V22.025H58.1049L54.6299 20.7V33.3H55.1049C56.4549 33.3 57.8299 32.575 57.8299 32.25ZM71.8549 22.025H72.1049V29.575C72.1049 29.85 72.0049 30.025 71.6549 30.025C71.0549 30.025 68.9049 29.9 68.9049 29.9V30.2C70.0799 30.425 70.5299 30.775 70.9049 31.2C71.2299 31.65 71.3549 32.35 71.4299 33.325C74.9049 33.025 75.4049 31.875 75.4049 29.9V23.275C75.9299 23.175 76.2549 22.95 76.4049 22.75L73.3049 20.4L71.8549 22.025ZM73.2299 10.625L71.3799 12.925H53.3049L53.5049 13.625H75.9049C76.2799 13.625 76.5549 13.5 76.6299 13.225C75.3549 12.15 73.2299 10.625 73.2299 10.625ZM85.7049 31.4H89.0049V12.1H86.4549L78.2049 24.75V26.7H91.7799V24.275H79.3799V23.825L79.1049 24.875L82.8549 19.1L86.1799 13.975L85.3049 14.225H85.7049V25.9V31.4ZM100.694 18.6L100.894 19.325H116.569C116.919 19.325 117.144 19.2 117.194 18.925C116.569 18.1 115.369 16.85 115.369 16.85L114.319 18.6H100.694ZM100.969 12.675L101.169 13.375H115.744C116.094 13.375 116.344 13.25 116.419 12.975C115.344 11.95 113.544 10.475 113.544 10.475L111.919 12.675H100.969ZM106.369 9.85V30.175L109.544 31.6V10.95C110.219 10.85 110.394 10.6 110.444 10.25L106.369 9.85ZM102.194 15.4L102.419 16.1H112.569V15.4H102.194ZM102.144 22L102.369 22.7H112.619V22H102.144ZM111.369 15.4V23.5H111.869C112.869 23.5 114.294 22.875 114.319 22.7V16.525C114.769 16.425 115.069 16.225 115.194 16.05L112.469 13.975L111.119 15.4H111.369ZM108.019 25.675V26.375H114.669C115.019 26.375 115.294 26.25 115.369 25.975C114.319 24.975 112.569 23.525 112.569 23.525L111.019 25.675H108.019ZM101.594 23.7C101.669 27.625 100.594 30.775 98.7439 33.125L99.0189 33.35C102.069 31.925 103.944 29.475 104.844 25C105.419 24.95 105.694 24.725 105.769 24.4L101.594 23.7ZM103.819 26.5L103.619 26.625C104.844 31.525 107.319 32.75 111.994 32.75C112.894 32.75 114.944 32.75 115.794 32.75C115.794 31.425 116.219 30.3 117.119 30.075V29.775C115.819 29.8 113.244 29.8 112.144 29.8C107.694 29.8 105.294 29.275 103.819 26.5ZM93.1189 15.675L93.3189 16.4H101.594C101.944 16.4 102.194 16.275 102.244 16C101.544 15 100.119 13.425 100.119 13.425L98.8689 15.675H93.1189ZM95.8439 9.7V29.525C95.8439 29.825 95.7439 29.925 95.3939 29.925C94.9439 29.925 92.9689 29.775 92.9689 29.775V30.125C94.0189 30.325 94.4439 30.65 94.7939 31.125C95.0939 31.6 95.1939 32.325 95.2439 33.35C98.5189 33.05 98.9439 31.9 98.9439 29.725V10.775C99.5689 10.7 99.8189 10.45 99.8689 10.075L95.8439 9.7ZM92.7939 21.8L94.0439 25.45C94.3439 25.35 94.6189 25.1 94.6939 24.75C98.0439 22.7 100.394 20.975 101.844 19.85L101.769 19.6C98.0939 20.575 94.2439 21.525 92.7939 21.8ZM125.744 31.4H129.044V12.1H126.494L118.244 24.75V26.7H131.819V24.275H119.419V23.825L119.144 24.875L122.894 19.1L126.219 13.975L125.344 14.225H125.744V25.9V31.4ZM142.933 23.975L142.708 24.1C143.533 25.225 144.458 26.875 144.758 28.35C147.458 30.3 149.958 25.15 142.933 23.975ZM153.483 20.125L149.433 19.75V29.7C149.433 30.025 149.308 30.175 148.883 30.175C148.283 30.175 144.883 29.975 144.883 29.975V30.275C146.433 30.525 147.058 30.85 147.583 31.3C148.083 31.775 148.233 32.425 148.333 33.375C152.083 33.075 152.633 31.95 152.633 29.825V20.775C153.183 20.7 153.433 20.5 153.483 20.125ZM151.258 10.025L147.283 9.675V18.9H150.458V10.675C151.058 10.575 151.233 10.35 151.258 10.025ZM154.283 20.4L152.758 22.425H141.708L141.908 23.125H156.358C156.708 23.125 156.983 23 157.033 22.725C156.008 21.775 154.283 20.4 154.283 20.4ZM153.233 16.425L151.683 18.45H143.208L143.408 19.175H155.383C155.758 19.175 156.008 19.05 156.058 18.775C155.008 17.8 153.233 16.425 153.233 16.425ZM153.808 11.825L152.183 13.95H142.433L142.633 14.675H156.058C156.433 14.675 156.683 14.55 156.758 14.275C155.658 13.275 153.808 11.825 153.808 11.825ZM141.408 14L140.108 16.175H134.683V16.9H143.058C143.408 16.9 143.658 16.775 143.708 16.5C142.933 15.5 141.408 14 141.408 14ZM133.283 23.45L135.433 26.825C135.733 26.725 135.958 26.45 136.033 26.125C139.583 23.725 141.933 21.9 143.433 20.625L143.383 20.35C139.183 21.75 135.033 23.025 133.283 23.45ZM137.758 12.9L134.083 12.3C134.083 15.575 133.808 19.325 133.283 22.025L133.658 22.2C135.208 20.025 136.233 16.85 136.833 13.525C137.408 13.475 137.683 13.25 137.758 12.9ZM141.383 10.2L137.408 9.8V33.275H138.008C139.158 33.275 140.458 32.525 140.458 32.2V10.9C141.158 10.8 141.333 10.55 141.383 10.2ZM174.308 24.625L174.033 24.775C175.583 26.875 177.308 29.825 177.833 32.375C181.033 34.85 183.433 28.2 174.308 24.625ZM174.433 10.1L170.208 9.7V19.55C170.208 24.8 169.258 29.65 165.058 33.075L165.258 33.3C171.808 30.625 173.483 25.35 173.533 19.55V10.825C174.183 10.725 174.383 10.45 174.433 10.1ZM175.158 14.425H175.408V22.575H178.533V15.575C179.058 15.475 179.383 15.275 179.533 15.075L176.633 12.875L175.158 14.425ZM179.608 20.15L178.283 22.275H165.608L165.808 23H181.308C181.633 23 181.883 22.875 181.958 22.6C181.133 21.65 179.608 20.15 179.608 20.15ZM177.258 14.425H166.983L167.208 15.125H177.258V14.425ZM164.733 14.175L164.433 14.275C164.858 15.425 165.208 17.075 165.083 18.45C166.783 20.3 169.308 16.75 164.733 14.175ZM160.008 14.425H159.633C159.808 16.075 159.133 18 158.583 18.75C157.933 19.3 157.683 20.05 158.083 20.725C158.608 21.5 159.833 21.35 160.333 20.575C161.008 19.425 161.133 17.225 160.008 14.425ZM165.258 10.125L161.308 9.725V33.325H161.908C163.083 33.325 164.333 32.725 164.333 32.45V10.825C165.033 10.725 165.208 10.475 165.258 10.125ZM195.434 24.5L195.159 24.75C198.034 30.1 203.734 32.2 210.784 33.125C211.059 31.55 211.834 30.425 213.209 30.025V29.7C206.134 29.625 198.609 28.475 195.434 24.5ZM204.809 24.375H205.159C202.359 28.525 196.109 31.4 189.334 32.9L189.459 33.25C197.459 32.675 204.309 30.3 208.384 25.775C209.084 25.75 209.359 25.675 209.534 25.4L206.784 22.725L204.809 24.375ZM207.009 24.375H190.359L190.584 25.1H207.009V24.375ZM205.734 9.725L205.509 9.875C206.109 10.525 206.634 11.625 206.659 12.6C208.834 14.325 211.284 10.15 205.734 9.725ZM194.784 9.825L194.584 9.975C195.159 10.6 195.684 11.725 195.709 12.7C197.884 14.425 200.334 10.25 194.784 9.825ZM195.709 10.925L192.334 9.675C191.634 12.45 190.409 15.175 189.159 16.9L189.484 17.125C191.509 15.875 193.359 13.9 194.709 11.375C195.259 11.4 195.584 11.2 195.709 10.925ZM206.234 10.825L202.834 9.675C202.284 12.4 201.184 15 200.009 16.7L200.334 16.925C202.309 15.75 204.059 13.825 205.284 11.325C205.834 11.35 206.134 11.125 206.234 10.825ZM208.609 13.4H205.984V22.05H208.609V13.4ZM204.534 22.85V13.05H204.859L203.384 12.475L201.759 14.675V23.7H202.259C203.684 23.7 204.534 23.05 204.534 22.85ZM210.534 20.025L209.209 21.7H203.234V22.425H212.259C212.609 22.425 212.859 22.3 212.934 22.025C212.034 21.175 210.534 20.025 210.534 20.025ZM209.984 17.375L208.834 18.825H203.234V19.55H211.409C211.759 19.55 211.984 19.425 212.034 19.15C211.259 18.4 209.984 17.375 209.984 17.375ZM209.984 14.475L208.834 15.925H203.234V16.625H211.409C211.734 16.625 211.984 16.5 212.034 16.225C211.259 15.475 209.984 14.475 209.984 14.475ZM210.059 11.55L208.809 13.05H203.184V13.75H211.709C212.059 13.75 212.309 13.625 212.384 13.35C211.484 12.575 210.059 11.55 210.059 11.55ZM197.784 13.4H195.209V22.05H197.784V13.4ZM193.859 22.95V13.05H194.184L192.734 12.5L191.134 14.7V23.775H191.634C193.009 23.775 193.859 23.15 193.859 22.95ZM199.334 20.1L198.084 21.7H192.559V22.425H200.984C201.334 22.425 201.559 22.3 201.634 22.025C200.784 21.2 199.334 20.1 199.334 20.1ZM198.959 17.35L197.884 18.725H192.559V19.425H200.309C200.659 19.425 200.859 19.3 200.934 19.025C200.184 18.325 198.959 17.35 198.959 17.35ZM198.959 14.475L197.884 15.85H192.559V16.575H200.309C200.634 16.575 200.859 16.45 200.934 16.175C200.184 15.45 198.959 14.475 198.959 14.475ZM199.034 11.575L197.809 13.05H192.459V13.75H200.634C200.984 13.75 201.234 13.625 201.284 13.35C200.409 12.6 199.034 11.575 199.034 11.575ZM234.909 15.1L233.234 17.95H229.509V18.65H237.109C237.484 18.65 237.734 18.525 237.809 18.25C236.809 17.025 234.909 15.1 234.909 15.1ZM231.684 10.7L227.534 10.25V29.25C227.534 31.575 228.334 32.2 230.909 32.2H233.034C236.884 32.2 238.134 31.55 238.134 30.175C238.134 29.6 237.859 29.2 237.009 28.825L236.909 25.125H236.634C236.209 26.65 235.734 28.15 235.409 28.625C235.209 28.9 234.959 28.975 234.709 29C234.409 29 233.909 29.025 233.334 29.025H231.709C231.034 29.025 230.809 28.825 230.809 28.275V11.375C231.434 11.275 231.659 11.025 231.684 10.7ZM214.609 29.175L216.234 33.25C216.534 33.15 216.834 32.9 216.984 32.575C221.684 30.425 224.809 28.75 226.734 27.525L226.709 27.275C221.684 28.15 216.609 28.95 214.609 29.175ZM225.109 10.625L220.959 10.25V29.1H221.559C222.809 29.1 224.184 28.4 224.184 28.125V11.35C224.884 11.25 225.059 10.975 225.109 10.625ZM223.284 17.9H215.209L215.434 18.6H223.284V17.9ZM243.059 14.275V33.25H243.609C245.084 33.25 246.459 32.425 246.459 32.025V14.975H258.134V14.275H246.709L243.059 12.825V14.275ZM256.184 14.275V33.15H256.734C257.984 33.15 259.609 32.4 259.659 32.15V15.6C260.234 15.475 260.559 15.25 260.759 15.025L257.559 12.45L255.909 14.275H256.184ZM244.559 19.55V20.25H257.934V19.55H244.559ZM244.559 25V25.7H257.934V25H244.559ZM244.559 30.525V31.225H257.934V30.525H244.559ZM249.109 9.7C249.034 11.175 248.809 13.325 248.509 14.775H249.059C250.534 13.725 252.084 12.2 253.084 11.075C253.659 11.05 253.909 10.825 253.984 10.5L249.109 9.7ZM272.459 20.95L269.659 19.925L268.334 21.65V33.25H268.984C270.259 33.25 271.609 32.6 271.659 32.375V21.45C272.134 21.35 272.359 21.2 272.459 20.95ZM281.459 17.05L277.334 16.7V31.325H280.659V17.7C281.234 17.6 281.409 17.375 281.459 17.05ZM277.634 10.825L272.984 9.65C271.884 14.925 269.134 21.775 264.209 26.025L264.434 26.275C271.159 22.875 274.784 16.65 276.659 11.375C277.309 11.35 277.534 11.125 277.634 10.825ZM284.684 28.7L282.884 30.975H271.959L272.159 31.675H287.209C287.584 31.675 287.884 31.55 287.959 31.275C286.709 30.225 284.684 28.7 284.684 28.7ZM283.359 20.475L281.684 22.6H272.709L272.909 23.3H285.684C286.034 23.3 286.309 23.175 286.359 22.9C285.234 21.9 283.359 20.475 283.359 20.475ZM284.259 12.5L282.384 14.9H264.834L265.034 15.6H286.959C287.334 15.6 287.609 15.475 287.684 15.2C286.384 14.125 284.259 12.5 284.259 12.5ZM289.709 13.8V25.875H290.084C291.109 25.875 292.084 25.3 292.084 25.05V14.525H297.609V13.8H292.209L289.709 12.75V13.8ZM300.609 11.35V19.95H301.034C302.309 19.95 303.659 19.275 303.659 18.975V12.05H309.859V11.35H303.784L300.609 10.075V11.35ZM296.684 13.8V25.3H297.109C298.084 25.3 299.234 24.475 299.259 24.2V14.825C299.659 14.75 299.959 14.575 300.084 14.425L297.684 12.55L296.459 13.8H296.684ZM307.909 11.35V19.375H308.434C309.434 19.375 311.009 18.85 311.034 18.65V12.475C311.509 12.375 311.809 12.2 311.959 12L309.059 9.825L307.659 11.35H307.909ZM290.959 18.7V19.4H297.909V18.7H290.959ZM290.859 23.5V24.2H297.934V23.5H290.859ZM301.609 14.6V15.3H309.659V14.6H301.609ZM301.634 17.825V18.525H309.709V17.825H301.634ZM298.334 20.725L298.534 21.425H312.509C312.859 21.425 313.109 21.3 313.184 21.025C312.159 20.05 310.409 18.625 310.409 18.625L308.859 20.725H298.334ZM301.284 23.3L300.784 24.025H311.309V23.3H301.284ZM303.184 23.3C302.134 26.15 300.109 28.7 297.284 30.5L297.509 30.875C301.384 29.25 304.209 26.9 305.734 23.7V23.3H303.184ZM301.659 20.725C300.784 23.2 299.159 25.65 296.909 27.325L297.134 27.65C300.734 26.175 303.509 24.025 304.934 21.125V20.725H301.659ZM306.234 23.3C305.284 27.5 303.034 30.675 298.934 32.8L299.109 33.175C304.709 31.275 307.709 28.25 309.109 23.7V23.3H306.234ZM293.084 9.7V33.275H293.559C294.534 33.275 295.634 32.65 295.634 32.35V10.75C296.284 10.675 296.484 10.4 296.559 10.05L293.084 9.7ZM309.359 23.3C309.109 27.225 308.684 29.675 308.109 30.225C307.934 30.375 307.784 30.4 307.484 30.4C307.034 30.4 305.484 30.3 304.459 30.225V30.55C305.434 30.75 306.334 31.175 306.734 31.6C307.084 32 307.209 32.6 307.209 33.275C308.509 33.275 309.384 33.075 310.084 32.525C311.334 31.6 311.884 29 312.234 24.475C312.734 24.4 313.059 24.275 313.234 24.05L310.609 21.875L309.084 23.3H309.359ZM318.834 26.45L318.609 26.575C320.359 31.25 323.159 32.375 328.934 32.375C330.634 32.375 334.834 32.375 336.459 32.375C336.484 31.175 337.009 30.1 338.059 29.85V29.525C335.934 29.575 331.009 29.575 328.984 29.575C323.509 29.575 320.659 29.225 318.834 26.45ZM320.259 16.6L317.934 15.725C317.434 17.175 316.059 20.275 315.259 21.7L316.109 20.9C315.634 21 315.009 21.325 314.659 21.6L316.909 23.1L317.759 22.25H317.584C318.334 20.8 319.684 17.925 320.259 16.6ZM317.634 15.725H317.934L318.234 17C319.434 17.175 320.809 17.15 321.259 16.675L318.809 14.5L317.634 15.725ZM318.609 21.55H318.884C318.359 25.3 316.834 29.825 314.409 32.75L314.659 33.025C318.509 30.4 320.709 26.35 321.709 22.6C322.259 22.55 322.484 22.475 322.634 22.225L320.084 20.075L318.609 21.55ZM318.934 15.725H314.509L314.734 16.425H318.934V15.725ZM320.184 21.55H317.209L316.934 22.25H320.184V21.55ZM315.234 10.35L315.059 10.5C315.934 11.425 316.834 12.925 317.084 14.3C319.884 16.15 322.259 10.75 315.234 10.35ZM322.934 9.9L322.709 10.025C323.159 10.825 323.659 12.075 323.684 13.175C325.884 15.1 328.734 10.95 322.934 9.9ZM325.459 14.1H322.734C322.934 19.175 322.834 24.325 320.559 28.475L320.784 28.725C324.659 25.075 325.359 19.75 325.459 14.1ZM326.009 17.85H326.284C326.159 23.125 326.034 25.55 325.584 26.075C325.459 26.225 325.359 26.25 325.159 26.25C324.809 26.25 323.934 26.2 323.284 26.15V26.525C323.984 26.675 324.534 27 324.784 27.35C325.034 27.65 325.134 28.25 325.134 28.775C326.034 28.75 326.759 28.575 327.334 28.1C328.384 27.175 328.584 24.675 328.709 18.925C329.209 18.875 329.509 18.725 329.684 18.5L327.334 16.55L326.009 17.85ZM335.259 11.725L333.909 13.5H329.934V14.2H337.034C337.384 14.2 337.609 14.075 337.684 13.8C336.784 12.95 335.259 11.725 335.259 11.725ZM327.659 17.85H324.134V18.55H327.659V17.85ZM333.059 16.3H333.334C333.109 17.125 332.559 18.7 332.034 19.575H332.384C333.609 19.05 334.959 18.075 335.859 17.35C336.359 17.3 336.634 17.25 336.834 17.075L334.384 14.925L333.059 16.3ZM333.709 10.65L330.159 9.8C329.959 12.3 329.334 14.925 328.559 16.725L328.909 16.925C330.559 15.65 331.884 13.625 332.784 11.2C333.334 11.175 333.609 10.95 333.709 10.65ZM334.834 19.175L331.459 18.85V25.95C331.459 26.225 331.384 26.325 331.059 26.325C330.709 26.325 329.134 26.2 329.134 26.2V26.55C329.959 26.7 330.334 26.975 330.584 27.3C330.859 27.675 330.909 28.225 330.959 28.975C333.634 28.725 334.009 27.825 334.009 26.025V19.8C334.534 19.725 334.784 19.55 334.834 19.175ZM327.784 12.3L326.659 13.925H320.584L320.784 14.65H329.134C329.484 14.65 329.734 14.525 329.784 14.25C329.059 13.45 327.784 12.3 327.784 12.3ZM335.784 19.675L334.609 21.4H328.809L329.009 22.125H337.259C337.609 22.125 337.834 22 337.884 21.725C337.134 20.9 335.784 19.675 335.784 19.675ZM335.309 16.3H329.634L329.859 17.025H335.309V16.3Z" fill="#FFAA2A"/>
</svg>
