<svg width="751" height="87" viewBox="0 0 751 87" fill="none" xmlns="http://www.w3.org/2000/svg">
<g filter="url(#filter0_d_3_155)">
<path d="M15.2349 6.96V8.36H22.4549V6.96H15.2349ZM4.51492 2.3V3.58H13.3349V2.3H4.51492ZM4.29492 10.24V11.54H13.4349V10.24H4.29492ZM4.19492 6.88V8.16H13.6549V6.88H4.19492ZM18.7949 7.56V18.52H20.2549V7.56H18.7949ZM5.81492 3.98C6.17492 4.86 6.47492 6.04 6.57492 6.8L7.85492 6.44C7.75492 5.7 7.41492 4.56 7.03492 3.7L5.81492 3.98ZM10.8349 3.68C10.5549 4.68 10.0549 6.18 9.63492 7.1L10.8749 7.4C11.2949 6.52 11.7949 5.16 12.2149 3.98L10.8349 3.68ZM20.8949 0.559999C19.4549 1.18 16.8949 1.76 14.6349 2.14C14.8149 2.46 15.0349 2.96 15.1149 3.28C17.4749 2.94 20.2149 2.38 22.1149 1.68L20.8949 0.559999ZM7.57492 0.479999C8.03492 1.32 8.53492 2.44 8.75492 3.14L10.2949 2.68C10.0749 2 9.53492 0.899999 9.05492 0.0999994L7.57492 0.479999ZM14.6349 2.14V9.06C14.6349 11.74 14.4949 15.18 12.7949 17.6C13.1149 17.78 13.6949 18.24 13.9349 18.52C15.7749 15.9 16.0349 11.94 16.0349 9.06V2.14H14.6349ZM10.6949 13.02C11.2949 14.02 12.0149 15.4 12.3349 16.26L13.3949 15.64C13.0949 14.78 12.3749 13.48 11.7149 12.48L10.6949 13.02ZM6.07492 12.6C5.63492 13.92 4.95492 15.3 4.17492 16.24C4.47492 16.4 4.99492 16.78 5.21492 16.98C5.99492 15.96 6.81492 14.38 7.29492 12.94L6.07492 12.6ZM8.31492 7.54V18.52H9.77492V7.54H8.31492ZM37.2149 3.96V4.78H44.6149V3.96H37.2149ZM30.4749 5.5V6.52H45.0349V5.5H30.4749ZM30.3749 17.04V18.02H46.3149V17.04H30.3749ZM33.0749 0.219999V3.66H34.5549V0.219999H33.0749ZM39.9349 0.219999V3.62H41.4149V0.219999H39.9349ZM37.7349 10.28V13.5H38.9349V10.28H37.7349ZM36.3149 3.1V5.8H37.7149V3.1H36.3149ZM32.3749 14.44V17.42H33.6549V15.3H36.0349V17.42H37.1749V15.3H39.5949V17.42H40.7349V15.3H43.1749V17.42H44.4749V14.44H32.3749ZM34.2949 12.26H42.4949V13.1H34.2949V12.26ZM34.2949 10.74H42.4949V11.56H34.2949V10.74ZM33.0349 10.02V13.82H43.8349V10.02H33.0349ZM29.7949 5.5V9.22C29.7949 11.74 29.6149 15.3 27.9349 17.86C28.2549 18 28.8549 18.38 29.0949 18.6C30.8349 15.88 31.1549 11.96 31.1549 9.24V5.5H29.7949ZM44.6349 5.5V5.68C44.4749 6.4 44.2349 7.26 44.0149 7.82L45.2349 8.06C45.5149 7.46 45.8349 6.5 46.0549 5.66L45.0949 5.46L44.8549 5.5H44.6349ZM28.5349 1.44V2.58H36.9949V1.44H28.5349ZM37.6749 1.44V2.58H46.1149V1.44H37.6749ZM31.9949 7.46L32.0549 8.5L36.9349 8.24L36.8749 7.2L31.9949 7.46ZM36.0149 6.28V7.82C36.0149 8.92 36.3149 9.4 37.7149 9.4C38.1549 9.4 41.4949 9.4 42.1549 9.4C42.8749 9.4 43.6949 9.4 44.0349 9.3C43.9749 9.04 43.9349 8.74 43.9149 8.38C43.5149 8.46 42.5549 8.5 42.0349 8.5C41.4349 8.5 38.5149 8.5 37.9349 8.5C37.3349 8.5 37.2349 8.36 37.2349 7.84V6.28H36.0149ZM36.7549 7.2L36.7749 8L42.4549 7.72V6.92L36.7549 7.2ZM64.0949 0.199999C63.9149 0.939999 63.5549 2.04 63.2349 2.78L64.4949 3.12C64.8749 2.48 65.3349 1.48 65.7749 0.54L64.0949 0.199999ZM61.7349 6.4H68.0149V8.18H61.7349V6.4ZM61.7349 3.52H68.0149V5.28H61.7349V3.52ZM60.3349 2.34V9.38H69.4749V2.34H60.3349ZM64.3349 8.88V16.94C64.3349 17.18 64.2749 17.24 64.0149 17.26C63.7549 17.28 62.8949 17.28 61.9549 17.24C62.1549 17.64 62.3349 18.22 62.3949 18.62C63.6949 18.62 64.5549 18.62 65.0949 18.38C65.6149 18.14 65.7749 17.72 65.7749 16.96V8.88H64.3349ZM59.5949 11.06V12.32H62.8549V11.06H59.5949ZM62.5349 11.06V11.28C61.9549 13.7 60.3149 15.7 58.5149 16.6C58.7949 16.86 59.1949 17.34 59.3749 17.66C61.4349 16.52 63.1749 14.36 63.8949 11.32L63.0149 11L62.7749 11.06H62.5349ZM68.9749 10.1C68.2749 10.98 66.9949 12.22 66.0949 12.94L66.9349 13.68C67.8949 13 69.0949 11.94 70.1149 11L68.9749 10.1ZM65.6949 9.86L64.6549 10.14C65.5349 13.38 67.2349 16.3 69.5749 17.74C69.8149 17.36 70.2549 16.82 70.5749 16.56C68.2749 15.38 66.5349 12.74 65.6949 9.86ZM56.7149 8.1C57.1949 9.5 57.6349 11.34 57.7949 12.44L59.0149 12.06C58.8549 11 58.3549 9.2 57.8549 7.82L56.7149 8.1ZM54.9149 13.24C55.1349 14.6 55.3349 16.38 55.3749 17.56L56.5549 17.34C56.4949 16.16 56.2949 14.42 56.0549 13.04L54.9149 13.24ZM52.9549 13.08C52.7749 14.74 52.4749 16.56 51.9949 17.8C52.3149 17.9 52.8949 18.1 53.1549 18.24C53.5749 16.98 53.9749 15.04 54.1949 13.28L52.9549 13.08ZM52.4749 7.7C52.4749 7.4 53.4149 6.92 53.4149 6.92V6.88C54.6949 5.3 56.0149 2.98 57.0149 0.759999L55.6149 0.18C54.8349 2.34 53.4949 4.62 53.0749 5.22C52.6749 5.82 52.3349 6.24 51.9949 6.32C52.1549 6.7 52.3949 7.4 52.4749 7.7ZM52.4749 7.7C52.7949 7.54 53.3349 7.42 56.5149 7.06C56.5149 6.76 56.5749 6.24 56.6349 5.84L53.1549 6.16L52.4349 6.58L52.4749 7.7ZM52.5949 12.2C52.5949 11.9 53.5749 11.44 53.5749 11.44V11.4C55.4549 9.44 57.3949 6.7 58.8949 3.98L57.5749 3.2C56.2949 5.9 54.2149 8.74 53.5949 9.44C52.9749 10.18 52.5349 10.7 52.1149 10.8C52.2749 11.18 52.5149 11.9 52.5949 12.2ZM52.5949 12.2C52.9949 12 53.6149 11.86 58.0749 11.2C58.0549 10.9 58.0749 10.36 58.1349 10L53.2749 10.62L52.5549 11.08L52.5949 12.2ZM56.7949 12.86C57.1549 13.9 57.5749 15.26 57.7149 16.14L58.8349 15.78C58.6549 14.9 58.2349 13.58 57.8349 12.54L56.7949 12.86ZM82.4749 2V3.22H94.1549V2H82.4749ZM88.2149 13.1V14.34H93.3949V13.1H88.2149ZM82.2149 7.28V8.5H94.6549V7.28H82.2149ZM83.3549 4.58V5.78H91.8149V10.16H83.3549V11.36H93.2149V4.58H83.3549ZM87.4549 0.199999V16.88L88.8549 17.6V0.199999H87.4549ZM83.5749 11.7C83.2349 14.3 82.3749 16.46 80.8149 17.84C81.1549 18.02 81.7349 18.44 81.9749 18.68C83.5549 17.14 84.5349 14.78 84.9749 11.88L83.5749 11.7ZM84.4349 13.5L83.3349 13.96C84.7149 17.58 86.9949 18.44 90.6749 18.44H94.1749C94.2349 18.06 94.4349 17.44 94.6349 17.12C93.9549 17.12 91.1949 17.12 90.7349 17.12C87.6949 17.12 85.5149 16.46 84.4349 13.5ZM75.8349 10.58L76.2349 12.04C77.9349 11.5 80.1349 10.78 82.2149 10.06L82.0149 8.68C79.7349 9.42 77.3949 10.14 75.8349 10.58ZM76.1149 4.24V5.64H82.1949V4.24H76.1149ZM78.6349 0.219999V16.86C78.6349 17.16 78.5149 17.22 78.2749 17.22C78.0349 17.24 77.2749 17.24 76.3949 17.22C76.5949 17.64 76.7749 18.26 76.8349 18.62C78.0949 18.62 78.8749 18.58 79.3349 18.34C79.8349 18.1 80.0349 17.7 80.0349 16.86V0.219999H78.6349ZM110.935 2.9V16.06H112.395V2.9H110.935ZM107.935 9.58H115.475V10.94H107.935V9.58ZM107.935 7.28H115.475V8.6H107.935V7.28ZM106.675 6.26V11.96H116.795V6.26H106.675ZM105.555 0.92V4.5H106.955V2.08H116.275V4.5H117.735V0.92H105.555ZM107.095 3.92V5.04H116.295V3.92H107.095ZM105.675 13.24V14.42H117.975V13.24H105.675ZM100.955 0.859999C101.775 1.86 102.815 3.26 103.295 4.1L104.495 3.32C103.995 2.5 102.955 1.2 102.095 0.219999L100.955 0.859999ZM100.215 4.84V6.1H104.435V4.84H100.215ZM103.775 14L102.775 14.46C104.295 17.76 106.915 18.28 111.615 18.28C113.815 18.28 116.335 18.24 118.235 18.12C118.315 17.72 118.495 17.04 118.715 16.72C116.655 16.9 113.735 16.98 111.615 16.98C107.615 16.98 105.015 16.62 103.775 14ZM103.775 9.82V10.08C103.275 13.68 101.875 16.24 99.8949 17.6C100.195 17.82 100.695 18.34 100.895 18.64C102.975 17.1 104.515 14.26 105.155 10.06L104.475 9.78L104.215 9.82H103.775ZM100.515 11.32C100.655 11.16 101.175 11.04 101.695 11.04H104.395V9.82H101.235L100.515 10.18V11.32ZM100.515 11.32C100.515 10.94 101.635 10.38 101.635 10.38C102.755 9.1 104.515 6.54 105.435 5.18L104.455 4.72L104.015 4.92V4.98C103.355 6.04 101.515 8.76 100.915 9.36C100.575 9.76 100.255 9.88 99.9549 9.96C100.115 10.28 100.415 10.98 100.515 11.32ZM133.215 3.96V4.78H140.615V3.96H133.215ZM126.475 5.5V6.52H141.035V5.5H126.475ZM126.375 17.04V18.02H142.315V17.04H126.375ZM129.075 0.219999V3.66H130.555V0.219999H129.075ZM135.935 0.219999V3.62H137.415V0.219999H135.935ZM133.735 10.28V13.5H134.935V10.28H133.735ZM132.315 3.1V5.8H133.715V3.1H132.315ZM128.375 14.44V17.42H129.655V15.3H132.035V17.42H133.175V15.3H135.595V17.42H136.735V15.3H139.175V17.42H140.475V14.44H128.375ZM130.295 12.26H138.495V13.1H130.295V12.26ZM130.295 10.74H138.495V11.56H130.295V10.74ZM129.035 10.02V13.82H139.835V10.02H129.035ZM125.795 5.5V9.22C125.795 11.74 125.615 15.3 123.935 17.86C124.255 18 124.855 18.38 125.095 18.6C126.835 15.88 127.155 11.96 127.155 9.24V5.5H125.795ZM140.635 5.5V5.68C140.475 6.4 140.235 7.26 140.015 7.82L141.235 8.06C141.515 7.46 141.835 6.5 142.055 5.66L141.095 5.46L140.855 5.5H140.635ZM124.535 1.44V2.58H132.995V1.44H124.535ZM133.675 1.44V2.58H142.115V1.44H133.675ZM127.995 7.46L128.055 8.5L132.935 8.24L132.875 7.2L127.995 7.46ZM132.015 6.28V7.82C132.015 8.92 132.315 9.4 133.715 9.4C134.155 9.4 137.495 9.4 138.155 9.4C138.875 9.4 139.695 9.4 140.035 9.3C139.975 9.04 139.935 8.74 139.915 8.38C139.515 8.46 138.555 8.5 138.035 8.5C137.435 8.5 134.515 8.5 133.935 8.5C133.335 8.5 133.235 8.36 133.235 7.84V6.28H132.015ZM132.755 7.2L132.775 8L138.455 7.72V6.92L132.755 7.2ZM159.775 0.939999V18.16H161.195V0.939999H159.775ZM164.155 0.64V18.6H165.595V0.64H164.155ZM155.455 0.659999V7.64C155.455 11.26 155.195 14.86 152.715 17.72C153.115 17.92 153.675 18.34 153.955 18.6C156.575 15.5 156.895 11.58 156.895 7.64V0.659999H155.455ZM157.035 6.54C157.595 7.94 158.155 9.8 158.335 11L159.455 10.6C159.235 9.4 158.675 7.56 158.075 6.16L157.035 6.54ZM161.055 6.3C161.875 7.78 162.755 9.78 163.115 11.06L164.235 10.54C163.855 9.28 162.955 7.34 162.095 5.86L161.055 6.3ZM148.915 1.5C150.035 2.12 151.455 3.06 152.135 3.72L153.075 2.5C152.335 1.88 150.895 1 149.795 0.419999L148.915 1.5ZM148.035 6.88C149.195 7.46 150.675 8.34 151.435 8.92L152.315 7.72C151.535 7.16 150.015 6.32 148.895 5.8L148.035 6.88ZM148.455 17.56L149.795 18.36C150.675 16.5 151.675 14.04 152.435 11.96L151.235 11.16C150.415 13.4 149.275 16.02 148.455 17.56ZM152.735 6.48C153.335 7.98 153.935 9.96 154.135 11.26L155.335 10.84C155.095 9.56 154.495 7.6 153.875 6.1L152.735 6.48ZM172.455 3.98V5.36H180.235V3.98H172.455ZM172.215 15.12L172.575 16.62C174.675 16.08 177.495 15.38 180.135 14.68L179.995 13.3C177.155 14 174.175 14.72 172.215 15.12ZM173.255 6.52C173.695 8.78 174.115 11.72 174.215 13.68L175.475 13.44C175.355 11.46 174.935 8.56 174.435 6.28L173.255 6.52ZM177.875 6.04C177.615 8.52 177.075 12.14 176.555 14.24L177.655 14.52C178.215 12.42 178.875 8.94 179.295 6.3L177.875 6.04ZM174.795 0.72C175.335 1.66 175.915 2.94 176.135 3.76L177.495 3.3C177.255 2.48 176.655 1.24 176.075 0.319999L174.795 0.72ZM184.755 4.36V5.78H190.495V4.36H184.755ZM181.315 16.22V17.64H188.875V16.22H181.315ZM183.875 0.199999V10.4H185.395V0.199999H183.875ZM180.615 9.78V18.58H182.075V11.18H188.115V18.5H189.635V9.78H180.615ZM200.515 17.28C202.975 17.28 205.315 15.44 205.315 12.24C205.315 9 203.335 7.56 200.895 7.56C200.015 7.56 199.355 7.78 198.695 8.14L199.075 3.9H204.615V2.34H197.475L197.015 9.2L197.995 9.82C198.835 9.26 199.455 8.94 200.435 8.94C202.255 8.94 203.455 10.2 203.455 12.3C203.455 14.42 202.075 15.76 200.335 15.76C198.655 15.76 197.575 14.98 196.755 14.12L195.835 15.32C196.835 16.32 198.235 17.28 200.515 17.28ZM214.129 7.78V9.24H225.569V7.78H214.129ZM225.069 7.78V8.06C224.809 14 224.509 16.28 223.969 16.82C223.769 17.04 223.529 17.08 223.129 17.08C222.649 17.08 221.409 17.06 220.089 16.94C220.369 17.38 220.569 18 220.589 18.46C221.849 18.52 223.109 18.54 223.769 18.48C224.469 18.42 224.909 18.28 225.309 17.78C226.029 17.02 226.309 14.7 226.589 8.5C226.609 8.3 226.629 7.78 226.629 7.78H225.069ZM218.349 8.18C217.949 11.96 217.149 15.66 211.909 17.4C212.249 17.72 212.689 18.32 212.869 18.7C218.449 16.7 219.489 12.56 219.949 8.18H218.349ZM216.269 0.859999C215.309 4 213.469 6.68 211.089 8.34C211.449 8.6 212.089 9.14 212.349 9.44C214.709 7.58 216.709 4.7 217.829 1.24L216.269 0.859999ZM219.409 0.559999V1.96H223.789V0.559999H219.409ZM222.349 0.559999V1.4H222.769C223.869 4.62 226.049 7.7 228.709 9.4C228.969 9 229.469 8.38 229.789 8.06C227.229 6.62 225.069 3.7 224.049 0.559999H222.349ZM242.349 16.98V18.12H253.669V16.98H242.349ZM242.929 2.1V3.3H253.269V2.1H242.929ZM243.269 14.44V15.56H252.929V14.44H243.269ZM242.389 5.46V6.66H253.729V5.46H242.389ZM244.809 10.94H251.349V12.32H244.809V10.94ZM244.809 8.64H251.349V9.98H244.809V8.64ZM243.509 7.62V13.32H252.709V7.62H243.509ZM250.149 3.26C249.909 4.02 249.409 5.16 249.009 5.88L250.189 6.18C250.609 5.5 251.169 4.5 251.609 3.58L250.149 3.26ZM244.629 3.56C244.949 4.22 245.269 5.1 245.369 5.68L246.689 5.34C246.569 4.8 246.249 3.92 245.889 3.3L244.629 3.56ZM247.389 8.16V12.64H247.329V17.52H248.749V12.64H248.669V8.16H247.389ZM246.669 0.499999C247.129 1.14 247.509 2.08 247.609 2.68L249.069 2.26C248.929 1.66 248.509 0.759999 248.049 0.119999L246.669 0.499999ZM236.509 5.3V6.6H241.469V5.3H236.509ZM235.489 8.8V10.1H242.029V8.8H235.489ZM235.849 11.42C236.169 12.62 236.489 14.14 236.549 15.16L237.529 14.84C237.449 13.86 237.149 12.34 236.789 11.16L235.849 11.42ZM235.269 16.58L235.589 17.92C237.349 17.5 239.789 16.88 242.089 16.3L242.009 15.08C239.509 15.66 236.929 16.24 235.269 16.58ZM240.809 10.92C240.649 12.02 240.269 13.62 239.949 14.6L240.809 14.94C241.149 14 241.529 12.52 241.889 11.3L240.809 10.92ZM238.329 5.88V16.76L239.489 16.56V5.88H238.329ZM238.829 0.0999994C237.949 2.06 236.469 3.92 235.009 5.08C235.209 5.46 235.529 6.26 235.609 6.6C237.209 5.16 238.889 2.9 239.909 0.619999L238.829 0.0999994ZM238.349 2.16C239.629 3.08 241.069 4.34 241.909 5.3L242.569 4.08C241.709 3.18 240.269 1.96 238.949 1.08L238.349 2.16ZM266.749 13.24C268.849 12.52 270.209 10.88 270.209 8.72C270.209 7.32 269.609 6.4 268.489 6.4C267.689 6.4 266.969 6.9 266.969 7.84C266.969 8.78 267.649 9.28 268.469 9.28C268.849 9.28 269.249 9.18 269.529 8.82L268.449 7.3L268.829 8.98C268.829 10.5 267.929 11.52 266.289 12.18L266.749 13.24ZM284.769 2.16V3.64H299.889V2.16H284.769ZM283.509 16.02V17.52H301.309V16.02H283.509ZM290.629 2.68C290.069 7.12 289.029 13.3 288.229 16.88H289.869C290.609 13.4 291.629 7.24 292.289 2.68H290.629ZM285.869 7.98V9.44H296.929V7.98H285.869ZM296.349 7.98V8.18C296.229 10.16 295.889 14.12 295.549 16.9L297.089 17.02C297.449 14.24 297.809 10.52 297.949 8.02L296.789 7.92L296.529 7.98H296.349ZM308.669 16.68L309.449 17.88C310.989 17.16 312.949 16.2 314.789 15.3L314.489 14.16C312.349 15.12 310.109 16.1 308.669 16.68ZM315.709 9.72V16.92C315.709 17.16 315.609 17.24 315.329 17.26C315.049 17.26 314.069 17.26 313.009 17.24C313.209 17.6 313.409 18.14 313.489 18.5C314.909 18.5 315.829 18.5 316.389 18.3C316.949 18.08 317.129 17.72 317.129 16.94V9.72H315.709ZM317.869 15.12C319.509 15.9 321.629 17.14 322.769 17.94L323.669 16.86C322.529 16.12 320.409 14.94 318.749 14.16L317.869 15.12ZM311.349 11.9C312.189 12.52 313.129 13.44 313.569 14.06L314.669 13.24C314.209 12.62 313.229 11.74 312.409 11.16L311.349 11.9ZM320.309 11.06C319.749 11.74 318.729 12.76 318.009 13.36L319.029 14.06C319.769 13.5 320.749 12.66 321.509 11.82L320.309 11.06ZM307.389 7.8V9.06H325.329V7.8H307.389ZM309.489 4.92V6.12H323.589V4.92H309.489ZM308.489 2.1V3.36H324.409V2.1H308.489ZM319.789 8.04L318.509 8.5C319.849 10.72 322.289 12.64 324.789 13.62C325.009 13.24 325.449 12.68 325.789 12.38C323.369 11.6 320.989 9.94 319.789 8.04ZM315.569 0.219999C315.169 4.92 312.809 10.08 307.109 12.8C307.489 13.04 308.009 13.52 308.209 13.88C314.009 10.9 316.509 5.48 317.129 0.339999L315.569 0.219999ZM339.409 1.2V2.48H349.369V1.2H339.409ZM339.789 11.6V12.88H348.989V11.6H339.789ZM338.669 16.8V18.1H349.609V16.8H338.669ZM343.469 12.22V17.76H344.969V12.22H343.469ZM341.009 3.16C340.609 4.12 339.809 5.66 339.069 6.88C340.029 8.3 340.869 9.88 341.269 10.94L342.489 10.44C342.109 9.5 341.269 8.08 340.449 6.86C341.069 5.82 341.789 4.52 342.289 3.48L341.009 3.16ZM344.289 3.16C343.869 4.12 343.049 5.64 342.269 6.88C343.289 8.28 344.209 9.86 344.609 10.92L345.849 10.38C345.409 9.46 344.529 8.04 343.669 6.86C344.289 5.82 345.049 4.52 345.549 3.48L344.289 3.16ZM347.689 3.16C347.249 4.12 346.369 5.66 345.549 6.88C346.629 8.3 347.629 9.88 348.089 10.94L349.289 10.42C348.849 9.48 347.909 8.04 347.009 6.86C347.649 5.82 348.449 4.56 348.989 3.48L347.689 3.16ZM331.409 2.38V3.72H338.909V2.38H331.409ZM331.149 13.78V15.12H339.069V13.78H331.149ZM334.529 0.219999V5.68H335.789V0.219999H334.529ZM334.649 5.76V11.58H334.529V18.64H335.809V11.58H335.709V5.76H334.649ZM332.909 9.2H337.469V11.04H332.909V9.2ZM332.909 6.32H337.469V8.12H332.909V6.32ZM331.789 5.2V12.16H338.649V5.2H331.789ZM364.209 4.56V5.9H370.849V4.56H364.209ZM366.369 0.26V6.54C366.369 10.4 366.049 14.54 362.629 17.76C362.989 17.98 363.509 18.4 363.769 18.7C367.409 15.26 367.769 10.74 367.769 6.54V0.26H366.369ZM355.469 2.36V3.7H364.029V2.36H355.469ZM355.189 13.78V15.12H364.269V13.78H355.189ZM359.069 0.219999V5.74H360.489V0.219999H359.069ZM359.189 5.72V11.54H359.069V18.6H360.469V11.54H360.349V5.72H359.189ZM357.149 9.22H362.469V11.06H357.149V9.22ZM357.149 6.34H362.469V8.14H357.149V6.34ZM355.949 5.22V12.18H363.729V5.22H355.949ZM369.909 4.56V16.4C369.909 17.46 369.969 17.8 370.249 18.08C370.549 18.38 370.949 18.48 371.349 18.48C371.569 18.48 372.009 18.48 372.249 18.48C372.609 18.48 372.969 18.4 373.229 18.2C373.489 18.02 373.649 17.72 373.749 17.22C373.829 16.8 373.889 15.52 373.909 14.48C373.549 14.36 373.089 14.1 372.809 13.86C372.829 14.98 372.789 15.94 372.749 16.34C372.729 16.6 372.629 16.78 372.549 16.9C372.489 16.98 372.329 17.02 372.189 17.02C372.029 17.02 371.849 17.02 371.729 17.02C371.589 17.02 371.489 16.96 371.409 16.88C371.329 16.82 371.289 16.68 371.289 16.54V4.56H369.909ZM380.389 17H382.249V10.42H387.829V8.88H382.249V3.9H388.829V2.34H380.389V17ZM398.984 17.28C401.744 17.28 403.524 14.74 403.524 9.62C403.524 4.54 401.744 2.08 398.984 2.08C396.184 2.08 394.404 4.54 394.404 9.62C394.404 14.74 396.184 17.28 398.984 17.28ZM398.984 15.8C397.304 15.8 396.164 13.94 396.164 9.62C396.164 5.36 397.304 3.54 398.984 3.54C400.644 3.54 401.764 5.36 401.764 9.62C401.764 13.94 400.644 15.8 398.984 15.8ZM414.538 17.28C416.798 17.28 418.738 15.36 418.738 12.52C418.738 9.44 417.138 7.92 414.658 7.92C413.478 7.92 412.118 8.64 411.218 9.82L411.278 11.28C412.258 9.82 413.438 9.26 414.378 9.26C416.138 9.26 417.018 10.52 417.018 12.52C417.018 14.5 415.938 15.84 414.538 15.84C412.478 15.84 411.338 13.78 411.338 10.02C411.338 5.22 413.058 3.6 415.118 3.6C415.998 3.6 416.898 4.02 417.458 4.7L418.478 3.58C417.678 2.72 416.558 2.08 415.038 2.08C412.198 2.08 409.618 4.28 409.618 10.02C409.618 14.86 411.718 17.28 414.538 17.28ZM424.771 3.98V5.36H432.551V3.98H424.771ZM424.531 15.12L424.891 16.62C426.991 16.08 429.811 15.38 432.451 14.68L432.311 13.3C429.471 14 426.491 14.72 424.531 15.12ZM425.571 6.52C426.011 8.78 426.431 11.72 426.531 13.68L427.791 13.44C427.671 11.46 427.251 8.56 426.751 6.28L425.571 6.52ZM430.191 6.04C429.931 8.52 429.391 12.14 428.871 14.24L429.971 14.52C430.531 12.42 431.191 8.94 431.611 6.3L430.191 6.04ZM427.111 0.72C427.651 1.66 428.231 2.94 428.451 3.76L429.811 3.3C429.571 2.48 428.971 1.24 428.391 0.319999L427.111 0.72ZM437.071 4.36V5.78H442.811V4.36H437.071ZM433.631 16.22V17.64H441.191V16.22H433.631ZM436.191 0.199999V10.4H437.711V0.199999H436.191ZM432.931 9.78V18.58H434.391V11.18H440.431V18.5H441.951V9.78H432.931ZM448.731 2.62V3.9H458.151V2.62H448.731ZM448.411 6.28V7.58H458.171V6.28H448.411ZM450.751 0.379999V7.08H452.131V0.379999H450.751ZM454.711 0.379999V7.08H456.091V0.379999H454.711ZM455.611 8.8V17.06C455.611 17.3 455.551 17.36 455.311 17.36C455.071 17.38 454.291 17.38 453.431 17.36C453.611 17.7 453.811 18.26 453.871 18.62C455.091 18.62 455.891 18.6 456.371 18.38C456.871 18.18 457.031 17.8 457.031 17.08V8.8H455.611ZM459.691 3.94V5.34H466.811V3.94H459.691ZM460.191 0.199999C459.691 3.58 458.811 6.92 457.371 9.06C457.691 9.32 458.211 9.94 458.411 10.24C459.991 7.84 461.011 4.2 461.611 0.419999L460.191 0.199999ZM464.191 4.7C463.491 10.84 461.831 15.04 457.671 17.42C457.951 17.72 458.371 18.32 458.511 18.64C462.911 15.9 464.731 11.5 465.591 4.84L464.191 4.7ZM460.511 5.12L459.331 5.32C460.291 11.36 462.131 16.3 465.971 18.6C466.171 18.22 466.651 17.66 466.991 17.38C463.291 15.4 461.391 10.64 460.511 5.12ZM450.671 8.8V9.94H456.051V8.8H450.671ZM449.851 8.8V12.62C449.851 14.28 449.731 16.38 448.571 17.94C448.871 18.1 449.451 18.52 449.671 18.78C450.991 17.06 451.211 14.52 451.211 12.64V8.8H449.851ZM451.051 15L451.611 16.24C453.011 15.68 454.671 14.98 456.311 14.28L456.131 13.3C454.231 13.96 452.351 14.62 451.051 15ZM451.471 11.48C452.511 11.98 453.811 12.8 454.491 13.28L455.171 12.3C454.511 11.82 453.251 11.14 452.151 10.62L451.471 11.48ZM477.431 8.6C476.491 10.26 474.891 11.88 473.371 12.94C473.711 13.2 474.271 13.78 474.511 14.08C476.051 12.84 477.771 10.96 478.871 9.1L477.431 8.6ZM487.371 8.78C484.971 13.6 480.051 16.08 472.631 17.08C472.951 17.46 473.251 18.06 473.411 18.5C481.071 17.34 486.151 14.66 488.791 9.46L487.371 8.78ZM472.791 6.32V7.76H490.331V6.32H472.791ZM482.051 2.34V3.76H488.511V2.34H482.051ZM481.031 0.219999V7.1H482.631V0.219999H481.031ZM475.791 1.76V7.02H477.311V1.76H475.791ZM480.911 7.38V14.08H482.491V7.38H480.911ZM501.631 17.28C503.891 17.28 505.831 15.36 505.831 12.52C505.831 9.44 504.231 7.92 501.751 7.92C500.571 7.92 499.211 8.64 498.311 9.82L498.371 11.28C499.351 9.82 500.531 9.26 501.471 9.26C503.231 9.26 504.111 10.52 504.111 12.52C504.111 14.5 503.031 15.84 501.631 15.84C499.571 15.84 498.431 13.78 498.431 10.02C498.431 5.22 500.151 3.6 502.211 3.6C503.091 3.6 503.991 4.02 504.551 4.7L505.571 3.58C504.771 2.72 503.651 2.08 502.131 2.08C499.291 2.08 496.711 4.28 496.711 10.02C496.711 14.86 498.811 17.28 501.631 17.28ZM514.445 7.78V9.24H525.885V7.78H514.445ZM525.385 7.78V8.06C525.125 14 524.825 16.28 524.285 16.82C524.085 17.04 523.845 17.08 523.445 17.08C522.965 17.08 521.725 17.06 520.405 16.94C520.685 17.38 520.885 18 520.905 18.46C522.165 18.52 523.425 18.54 524.085 18.48C524.785 18.42 525.225 18.28 525.625 17.78C526.345 17.02 526.625 14.7 526.905 8.5C526.925 8.3 526.945 7.78 526.945 7.78H525.385ZM518.665 8.18C518.265 11.96 517.465 15.66 512.225 17.4C512.565 17.72 513.005 18.32 513.185 18.7C518.765 16.7 519.805 12.56 520.265 8.18H518.665ZM516.585 0.859999C515.625 4 513.785 6.68 511.405 8.34C511.765 8.6 512.405 9.14 512.665 9.44C515.025 7.58 517.025 4.7 518.145 1.24L516.585 0.859999ZM519.725 0.559999V1.96H524.105V0.559999H519.725ZM522.665 0.559999V1.4H523.085C524.185 4.62 526.365 7.7 529.025 9.4C529.285 9 529.785 8.38 530.105 8.06C527.545 6.62 525.385 3.7 524.365 0.559999H522.665ZM542.665 16.98V18.12H553.985V16.98H542.665ZM543.245 2.1V3.3H553.585V2.1H543.245ZM543.585 14.44V15.56H553.245V14.44H543.585ZM542.705 5.46V6.66H554.045V5.46H542.705ZM545.125 10.94H551.665V12.32H545.125V10.94ZM545.125 8.64H551.665V9.98H545.125V8.64ZM543.825 7.62V13.32H553.025V7.62H543.825ZM550.465 3.26C550.225 4.02 549.725 5.16 549.325 5.88L550.505 6.18C550.925 5.5 551.485 4.5 551.925 3.58L550.465 3.26ZM544.945 3.56C545.265 4.22 545.585 5.1 545.685 5.68L547.005 5.34C546.885 4.8 546.565 3.92 546.205 3.3L544.945 3.56ZM547.705 8.16V12.64H547.645V17.52H549.065V12.64H548.985V8.16H547.705ZM546.985 0.499999C547.445 1.14 547.825 2.08 547.925 2.68L549.385 2.26C549.245 1.66 548.825 0.759999 548.365 0.119999L546.985 0.499999ZM536.825 5.3V6.6H541.785V5.3H536.825ZM535.805 8.8V10.1H542.345V8.8H535.805ZM536.165 11.42C536.485 12.62 536.805 14.14 536.865 15.16L537.845 14.84C537.765 13.86 537.465 12.34 537.105 11.16L536.165 11.42ZM535.585 16.58L535.905 17.92C537.665 17.5 540.105 16.88 542.405 16.3L542.325 15.08C539.825 15.66 537.245 16.24 535.585 16.58ZM541.125 10.92C540.965 12.02 540.585 13.62 540.265 14.6L541.125 14.94C541.465 14 541.845 12.52 542.205 11.3L541.125 10.92ZM538.645 5.88V16.76L539.805 16.56V5.88H538.645ZM539.145 0.0999994C538.265 2.06 536.785 3.92 535.325 5.08C535.525 5.46 535.845 6.26 535.925 6.6C537.525 5.16 539.205 2.9 540.225 0.619999L539.145 0.0999994ZM538.665 2.16C539.945 3.08 541.385 4.34 542.225 5.3L542.885 4.08C542.025 3.18 540.585 1.96 539.265 1.08L538.665 2.16ZM567.065 13.24C569.165 12.52 570.525 10.88 570.525 8.72C570.525 7.32 569.925 6.4 568.805 6.4C568.005 6.4 567.285 6.9 567.285 7.84C567.285 8.78 567.965 9.28 568.785 9.28C569.165 9.28 569.565 9.18 569.845 8.82L568.765 7.3L569.145 8.98C569.145 10.5 568.245 11.52 566.605 12.18L567.065 13.24ZM591.845 0.219999V18.58H593.425V0.219999H591.845ZM584.785 9.64V16.14H586.325V11.04H599.105V16.1H600.705V9.64H584.785ZM587.105 3.88H598.205V6.64H587.105V3.88ZM585.585 2.52V7.96H599.805V2.52H585.585ZM585.725 13.94V15.3H599.745V13.94H585.725ZM607.665 1.08V2.44H614.305V1.08H607.665ZM609.505 5.26V6.54H613.005V5.26H609.505ZM609.505 9.38V10.66H613.005V9.38H609.505ZM608.665 1.76V14.56H609.905V1.76H608.665ZM612.205 1.74V18.62H613.505V1.74H612.205ZM607.445 14.32L607.745 15.68C609.285 15.4 611.225 15.06 613.165 14.7L613.085 13.44C610.985 13.8 608.905 14.12 607.445 14.32ZM617.945 6.62C618.325 7.7 618.745 9.14 618.945 10L619.925 9.66C619.745 8.86 619.305 7.44 618.885 6.4L617.945 6.62ZM614.485 5.8C614.485 5.48 615.285 5.04 615.285 5.04V5C616.185 4.02 617.165 2.44 617.925 0.859999L616.785 0.36C616.245 1.86 615.225 3.34 614.945 3.72C614.645 4.12 614.385 4.36 614.125 4.42C614.265 4.8 614.445 5.5 614.485 5.8ZM614.485 5.8C614.745 5.68 615.225 5.58 617.605 5.42C617.645 5.18 617.765 4.72 617.885 4.4L615.065 4.54L614.485 4.9V5.8ZM614.345 9.64C614.345 9.32 615.125 8.9 615.125 8.9V8.86C616.565 7.46 618.045 5.38 619.325 3.26L618.265 2.7C617.205 4.7 615.625 6.78 615.145 7.3C614.705 7.84 614.305 8.2 613.985 8.28C614.125 8.66 614.285 9.34 614.345 9.64ZM614.345 9.64C614.645 9.48 615.225 9.36 619.285 8.88C619.225 8.62 619.145 8.18 619.145 7.88L614.905 8.28L614.325 8.7L614.345 9.64ZM623.825 6.42C624.285 7.52 624.825 9 625.085 9.86L626.045 9.48C625.785 8.64 625.225 7.2 624.745 6.12L623.825 6.42ZM620.205 5.7C620.205 5.38 621.005 4.96 621.005 4.96V4.92C621.845 3.98 622.765 2.48 623.485 0.959999L622.445 0.439999C621.905 1.88 620.925 3.36 620.645 3.72C620.385 4.12 620.105 4.34 619.845 4.4C620.005 4.74 620.145 5.42 620.205 5.7ZM620.205 5.7C620.445 5.58 620.905 5.5 623.185 5.32C623.225 5.08 623.345 4.62 623.485 4.32L620.765 4.44L620.205 4.8V5.7ZM620.345 9.54C620.345 9.22 621.225 8.78 621.225 8.78V8.76C622.485 7.38 623.805 5.34 624.885 3.26L623.845 2.68C622.965 4.68 621.505 6.74 621.085 7.24C620.685 7.8 620.325 8.16 619.985 8.22C620.145 8.58 620.285 9.24 620.345 9.54ZM620.345 9.54C620.685 9.36 621.245 9.24 625.285 8.68C625.225 8.46 625.185 8.02 625.165 7.7L620.925 8.2L620.345 8.58V9.54ZM618.025 10.12V13.18C618.025 14.78 617.625 16.5 614.985 17.72C615.225 17.94 615.665 18.46 615.825 18.78C618.725 17.38 619.305 15.14 619.305 13.2V10.12H618.025ZM615.405 13.24V14.56H618.785V13.24H615.405ZM620.665 10.1V18.64H621.985V10.1H620.665ZM615.065 10.12V14.56H616.305V10.12H615.065ZM623.685 10.28V15.28H624.945V10.28H623.685ZM621.405 13.22V14.54H624.345V13.22H621.405ZM631.505 1.58V2.92H636.885V1.58H631.505ZM631.705 7.4V8.74H636.665V7.4H631.705ZM631.265 15.04L631.565 16.44C633.125 15.94 635.085 15.34 636.945 14.74L636.785 13.42C634.745 14.04 632.685 14.68 631.265 15.04ZM633.585 2.36V15.08L634.905 14.72V2.36H633.585ZM637.525 6.16V7.4H649.645V6.16H637.525ZM640.245 9.62H646.945V11.5H640.245V9.62ZM638.885 8.5V12.64H648.365V8.5H638.885ZM645.645 2H647.645V4.06H645.645V2ZM642.605 2H644.565V4.06H642.605V2ZM639.645 2H641.525V4.06H639.645V2ZM638.365 0.899999V5.16H648.965V0.899999H638.365ZM644.465 12.04L643.265 12.32C644.265 15.22 646.245 17.46 649.145 18.42C649.325 18.06 649.745 17.52 650.065 17.26C647.325 16.5 645.345 14.5 644.465 12.04ZM648.405 12.9C647.625 13.52 646.185 14.44 645.185 14.96L645.945 15.66C646.985 15.22 648.325 14.5 649.425 13.8L648.405 12.9ZM642.825 11.82C641.505 13.18 638.925 14.44 636.705 15C637.005 15.26 637.385 15.72 637.585 16.06C639.785 15.34 642.425 13.86 643.865 12.3L642.825 11.82ZM639.625 18.54C639.625 18.08 640.985 17.32 640.985 17.32V13.92L639.745 14.24V16.18C639.745 16.96 639.345 17.28 639.065 17.42C639.265 17.68 639.525 18.22 639.625 18.54ZM639.625 18.54C639.945 18.34 640.525 18.16 644.345 17.16C644.325 16.9 644.305 16.38 644.345 16.04L640.185 17L639.545 17.48L639.625 18.54ZM662.665 6.14V7.62H673.825V6.14H662.665ZM669.505 1.44C670.525 2.54 671.665 4.06 672.145 5.06L673.405 4.38C672.885 3.4 671.745 1.92 670.705 0.839999L669.505 1.44ZM657.025 6V7.36H661.145V6H657.025ZM655.605 10.22V11.58H660.985V10.22H655.605ZM660.565 0.199999V18.58H661.985V0.199999H660.565ZM656.385 1.06V7.36H657.785V1.06H656.385ZM657.165 10.7V12.16C657.165 13.58 656.925 15.86 655.465 17.46C655.805 17.6 656.345 17.94 656.625 18.18C658.225 16.44 658.545 13.84 658.545 12.2V10.7H657.165ZM667.045 0.219999V5.7C667.045 9.62 666.605 14.16 661.945 17.5C662.265 17.76 662.765 18.3 662.965 18.64C667.985 15 668.485 10.08 668.485 5.68V0.219999H667.045ZM668.785 6.6L667.385 6.7C667.705 9.64 668.385 15.76 672.965 18.5C673.205 18.12 673.665 17.62 674.085 17.32C669.665 14.82 668.985 9.28 668.785 6.6ZM691.505 0.199999C691.325 0.939999 690.965 2.04 690.645 2.78L691.905 3.12C692.285 2.48 692.745 1.48 693.185 0.54L691.505 0.199999ZM689.145 6.4H695.425V8.18H689.145V6.4ZM689.145 3.52H695.425V5.28H689.145V3.52ZM687.745 2.34V9.38H696.885V2.34H687.745ZM691.745 8.88V16.94C691.745 17.18 691.685 17.24 691.425 17.26C691.165 17.28 690.305 17.28 689.365 17.24C689.565 17.64 689.745 18.22 689.805 18.62C691.105 18.62 691.965 18.62 692.505 18.38C693.025 18.14 693.185 17.72 693.185 16.96V8.88H691.745ZM687.005 11.06V12.32H690.265V11.06H687.005ZM689.945 11.06V11.28C689.365 13.7 687.725 15.7 685.925 16.6C686.205 16.86 686.605 17.34 686.785 17.66C688.845 16.52 690.585 14.36 691.305 11.32L690.425 11L690.185 11.06H689.945ZM696.385 10.1C695.685 10.98 694.405 12.22 693.505 12.94L694.345 13.68C695.305 13 696.505 11.94 697.525 11L696.385 10.1ZM693.105 9.86L692.065 10.14C692.945 13.38 694.645 16.3 696.985 17.74C697.225 17.36 697.665 16.82 697.985 16.56C695.685 15.38 693.945 12.74 693.105 9.86ZM684.125 8.1C684.605 9.5 685.045 11.34 685.205 12.44L686.425 12.06C686.265 11 685.765 9.2 685.265 7.82L684.125 8.1ZM682.325 13.24C682.545 14.6 682.745 16.38 682.785 17.56L683.965 17.34C683.905 16.16 683.705 14.42 683.465 13.04L682.325 13.24ZM680.365 13.08C680.185 14.74 679.885 16.56 679.405 17.8C679.725 17.9 680.305 18.1 680.565 18.24C680.985 16.98 681.385 15.04 681.605 13.28L680.365 13.08ZM679.885 7.7C679.885 7.4 680.825 6.92 680.825 6.92V6.88C682.105 5.3 683.425 2.98 684.425 0.759999L683.025 0.18C682.245 2.34 680.905 4.62 680.485 5.22C680.085 5.82 679.745 6.24 679.405 6.32C679.565 6.7 679.805 7.4 679.885 7.7ZM679.885 7.7C680.205 7.54 680.745 7.42 683.925 7.06C683.925 6.76 683.985 6.24 684.045 5.84L680.565 6.16L679.845 6.58L679.885 7.7ZM680.005 12.2C680.005 11.9 680.985 11.44 680.985 11.44V11.4C682.865 9.44 684.805 6.7 686.305 3.98L684.985 3.2C683.705 5.9 681.625 8.74 681.005 9.44C680.385 10.18 679.945 10.7 679.525 10.8C679.685 11.18 679.925 11.9 680.005 12.2ZM680.005 12.2C680.405 12 681.025 11.86 685.485 11.2C685.465 10.9 685.485 10.36 685.545 10L680.685 10.62L679.965 11.08L680.005 12.2ZM684.205 12.86C684.565 13.9 684.985 15.26 685.125 16.14L686.245 15.78C686.065 14.9 685.645 13.58 685.245 12.54L684.205 12.86ZM714.225 12.32L715.585 11.16C714.345 9.7 712.545 7.88 711.105 6.72L709.805 7.86C711.225 9.02 712.945 10.74 714.225 12.32ZM727.665 4.08V5.46H732.705V4.08H727.665ZM729.785 0.199999V18.58H731.105V0.199999H729.785ZM729.765 4.9C729.325 7.66 728.285 11.06 727.225 12.82C727.445 13.2 727.765 13.86 727.925 14.3C729.065 12.3 730.105 8.36 730.565 5.24L729.765 4.9ZM730.985 6.6L730.385 7.2C730.785 7.92 731.845 10.04 732.185 10.96L732.925 9.84C732.625 9.32 731.345 7.1 730.985 6.6ZM733.125 10.54V11.76H745.425V10.54H733.125ZM734.885 13.2C735.885 14 737.145 15.14 737.785 15.84L738.705 14.94C738.065 14.26 736.765 13.18 735.785 12.42L734.885 13.2ZM741.425 9.26C742.145 9.72 743.025 10.36 743.505 10.8L744.285 10C743.825 9.56 742.905 8.96 742.205 8.54L741.425 9.26ZM743.225 11.98C742.085 14.4 739.705 16.4 736.665 17.54C736.945 17.78 737.305 18.24 737.485 18.5C740.605 17.24 743.165 15.16 744.505 12.46L743.225 11.98ZM738.165 0.36C738.505 10.7 739.705 18.3 744.165 18.6C744.985 18.64 745.605 17.92 746.005 15.7C745.725 15.58 745.225 15.22 744.985 14.94C744.805 16.4 744.545 17.16 744.125 17.12C740.945 16.84 739.665 9.86 739.445 0.36H738.165ZM736.405 6.38C736.805 7.36 737.205 8.64 737.365 9.44L738.365 9.08C738.205 8.34 737.785 7.08 737.345 6.12L736.405 6.38ZM733.365 5.84C733.365 5.56 734.085 5.2 734.085 5.2V5.18C734.925 4.12 735.865 2.48 736.565 0.879999L735.445 0.519999C734.945 2.04 734.025 3.6 733.745 4C733.485 4.4 733.225 4.66 733.005 4.72C733.125 5.02 733.305 5.58 733.365 5.84ZM733.365 5.84C733.605 5.7 734.065 5.6 736.365 5.3C736.425 5.06 736.585 4.6 736.745 4.3L733.925 4.58L733.345 4.96L733.365 5.84ZM733.545 9.26C733.545 9 734.225 8.62 734.225 8.62V8.6C735.485 7.32 736.825 5.4 737.945 3.44L736.825 3.02C735.985 4.86 734.605 6.76 734.185 7.22C733.825 7.72 733.485 8.08 733.185 8.14C733.305 8.42 733.485 9.02 733.545 9.26ZM733.545 9.26C733.825 9.1 734.345 9 737.645 8.54C737.545 8.3 737.425 7.86 737.385 7.56L734.065 7.98L733.505 8.34L733.545 9.26ZM743.585 6.02C744.005 7 744.465 8.32 744.645 9.1L745.625 8.74C745.425 7.98 744.965 6.7 744.525 5.76L743.585 6.02ZM740.525 5.44C740.525 5.16 741.225 4.8 741.225 4.8V4.76C741.985 3.8 742.825 2.32 743.425 0.839999L742.305 0.479999C741.885 1.84 741.065 3.28 740.845 3.66C740.605 4.02 740.385 4.28 740.165 4.3C740.305 4.62 740.465 5.18 740.525 5.44ZM740.525 5.44C740.765 5.3 741.205 5.2 743.405 4.92C743.485 4.68 743.645 4.22 743.785 3.92L741.085 4.18L740.525 4.54V5.44ZM740.745 8.88C740.745 8.62 741.445 8.22 741.445 8.22V8.2C742.665 6.9 743.965 4.96 745.005 3L743.845 2.56C743.065 4.4 741.745 6.32 741.345 6.8C740.985 7.3 740.665 7.64 740.365 7.7C740.485 8.02 740.685 8.64 740.745 8.88ZM740.745 8.88C741.025 8.72 741.525 8.62 744.805 8.12C744.745 7.88 744.625 7.48 744.565 7.18L741.265 7.6L740.705 7.96L740.745 8.88ZM734.645 11V12.02C734.645 13.72 734.145 16.02 731.785 17.72C732.085 17.9 732.585 18.36 732.785 18.62C735.305 16.74 735.945 14.06 735.945 12.06V11H734.645ZM24.9594 38.42V39.74H37.5594V38.42H24.9594ZM27.2194 41.14V42.36H35.9394V41.14H27.2194ZM28.1994 38.92C27.2794 40.9 25.6194 42.64 23.7794 43.74C24.0794 43.96 24.5994 44.42 24.7994 44.68C26.6594 43.44 28.4794 41.48 29.4994 39.26L28.1994 38.92ZM35.6594 41.14V41.36C35.3794 45.28 35.0594 46.78 34.6794 47.16C34.5194 47.36 34.3594 47.38 34.0594 47.38C33.7794 47.38 33.1194 47.36 32.3594 47.3C32.5594 47.62 32.6994 48.16 32.6994 48.54C33.4994 48.58 34.2594 48.56 34.6994 48.54C35.1794 48.5 35.5394 48.38 35.8594 48.04C36.3994 47.46 36.7194 45.88 37.0194 41.74C37.0594 41.52 37.0794 41.14 37.0794 41.14H35.6594ZM28.2994 34.58H34.7394V36.18H28.2994V34.58ZM28.2994 31.92H34.7394V33.5H28.2994V31.92ZM26.9394 30.8V37.3H36.1394V30.8H26.9394ZM19.3994 34.54V35.98H25.3394V34.54H19.3994ZM21.7394 30.36V42.66H23.1594V30.36H21.7394ZM19.0194 43.46L19.5994 44.96C21.2994 44.14 23.4794 43.06 25.5194 42.02L25.1994 40.7C22.9194 41.76 20.5594 42.82 19.0194 43.46ZM33.0994 41.36C32.3794 43.84 30.6994 46.56 28.8194 47.82C29.1994 48.04 29.6594 48.38 29.9194 48.68C31.7394 47.3 33.3994 44.46 34.1594 41.92L33.0994 41.36ZM29.9794 41.42C28.9994 43.52 26.8994 45.82 24.9194 46.9C25.2794 47.12 25.6994 47.5 25.9394 47.82C27.8794 46.58 29.9794 44.2 30.9994 42.02L29.9794 41.42ZM55.1594 30.2C54.9794 30.94 54.6194 32.04 54.2994 32.78L55.5594 33.12C55.9394 32.48 56.3994 31.48 56.8394 30.54L55.1594 30.2ZM52.7994 36.4H59.0794V38.18H52.7994V36.4ZM52.7994 33.52H59.0794V35.28H52.7994V33.52ZM51.3994 32.34V39.38H60.5394V32.34H51.3994ZM55.3994 38.88V46.94C55.3994 47.18 55.3394 47.24 55.0794 47.26C54.8194 47.28 53.9594 47.28 53.0194 47.24C53.2194 47.64 53.3994 48.22 53.4594 48.62C54.7594 48.62 55.6194 48.62 56.1594 48.38C56.6794 48.14 56.8394 47.72 56.8394 46.96V38.88H55.3994ZM50.6594 41.06V42.32H53.9194V41.06H50.6594ZM53.5994 41.06V41.28C53.0194 43.7 51.3794 45.7 49.5794 46.6C49.8594 46.86 50.2594 47.34 50.4394 47.66C52.4994 46.52 54.2394 44.36 54.9594 41.32L54.0794 41L53.8394 41.06H53.5994ZM60.0394 40.1C59.3394 40.98 58.0594 42.22 57.1594 42.94L57.9994 43.68C58.9594 43 60.1594 41.94 61.1794 41L60.0394 40.1ZM56.7594 39.86L55.7194 40.14C56.5994 43.38 58.2994 46.3 60.6394 47.74C60.8794 47.36 61.3194 46.82 61.6394 46.56C59.3394 45.38 57.5994 42.74 56.7594 39.86ZM47.7794 38.1C48.2594 39.5 48.6994 41.34 48.8594 42.44L50.0794 42.06C49.9194 41 49.4194 39.2 48.9194 37.82L47.7794 38.1ZM45.9794 43.24C46.1994 44.6 46.3994 46.38 46.4394 47.56L47.6194 47.34C47.5594 46.16 47.3594 44.42 47.1194 43.04L45.9794 43.24ZM44.0194 43.08C43.8394 44.74 43.5394 46.56 43.0594 47.8C43.3794 47.9 43.9594 48.1 44.2194 48.24C44.6394 46.98 45.0394 45.04 45.2594 43.28L44.0194 43.08ZM43.5394 37.7C43.5394 37.4 44.4794 36.92 44.4794 36.92V36.88C45.7594 35.3 47.0794 32.98 48.0794 30.76L46.6794 30.18C45.8994 32.34 44.5594 34.62 44.1394 35.22C43.7394 35.82 43.3994 36.24 43.0594 36.32C43.2194 36.7 43.4594 37.4 43.5394 37.7ZM43.5394 37.7C43.8594 37.54 44.3994 37.42 47.5794 37.06C47.5794 36.76 47.6394 36.24 47.6994 35.84L44.2194 36.16L43.4994 36.58L43.5394 37.7ZM43.6594 42.2C43.6594 41.9 44.6394 41.44 44.6394 41.44V41.4C46.5194 39.44 48.4594 36.7 49.9594 33.98L48.6394 33.2C47.3594 35.9 45.2794 38.74 44.6594 39.44C44.0394 40.18 43.5994 40.7 43.1794 40.8C43.3394 41.18 43.5794 41.9 43.6594 42.2ZM43.6594 42.2C44.0594 42 44.6794 41.86 49.1394 41.2C49.1194 40.9 49.1394 40.36 49.1994 40L44.3394 40.62L43.6194 41.08L43.6594 42.2ZM47.8594 42.86C48.2194 43.9 48.6394 45.26 48.7794 46.14L49.8994 45.78C49.7194 44.9 49.2994 43.58 48.8994 42.54L47.8594 42.86ZM72.4594 32.98V39.58H73.6994V32.98H72.4594ZM69.6194 34.7V35.68H75.6794V34.7H69.6194ZM69.6194 36.86V37.86H75.6794V36.86H69.6194ZM68.8794 39.06V40.1H76.3394V39.06H68.8794ZM70.0194 30.22C69.3794 32.1 68.2994 33.92 67.0394 35.14C67.2994 35.38 67.7194 35.92 67.8794 36.18C69.2394 34.8 70.4594 32.68 71.2394 30.54L70.0194 30.22ZM80.9394 32.9V39.66H82.2194V32.9H80.9394ZM78.2394 34.7V35.7H84.5194V34.7H78.2394ZM78.2394 36.88V37.88H84.5194V36.88H78.2394ZM77.4994 39.08V40.12H85.2594V39.08H77.4994ZM78.5794 30.22C77.8994 32.14 76.7794 34.04 75.4994 35.3C75.7794 35.54 76.2194 36.08 76.3794 36.32C77.7394 34.9 79.0194 32.72 79.8194 30.56L78.5794 30.22ZM69.9594 32.48L69.0194 33.54H76.0994V32.48H69.9594ZM68.8794 33.74V39.6H70.1994V32.76L68.8794 33.74ZM78.4994 32.5L77.5594 33.56H84.9594V32.5H78.4994ZM77.4994 33.76V39.62H78.7994V32.72L77.4994 33.76ZM68.4194 41.26V42.54H82.0794V41.26H68.4194ZM81.5594 41.26V41.48C79.2194 45.08 73.0394 46.76 67.2794 47.26C67.5394 47.62 67.7994 48.24 67.9194 48.62C73.9794 47.96 80.3794 46.12 83.1794 41.84L82.1794 41.2L81.8994 41.26H81.5594ZM72.1194 42.02L70.7594 42.68C73.5394 45.96 78.6194 47.8 84.3594 48.46C84.5594 48.02 84.9594 47.36 85.2994 47C79.6194 46.48 74.5194 44.84 72.1194 42.02ZM80.4394 30.72C80.8594 31.5 81.3194 32.52 81.5394 33.14L82.7994 32.74C82.5794 32.1 82.0994 31.12 81.6594 30.38L80.4394 30.72ZM71.8994 30.64C72.3194 31.42 72.7594 32.44 72.9794 33.08L74.2394 32.66C74.0394 32.04 73.5594 31.04 73.1194 30.32L71.8994 30.64ZM100.279 34.48V48.62H101.579V35.84H107.619V48.48H108.979V34.48H100.279ZM100.899 40.12V41.48H108.219V40.12H100.899ZM100.899 46.14V47.5H108.219V46.14H100.899ZM103.819 30.22V35.12H103.859V46.94H105.179V35.12H105.239V30.22H103.819ZM91.3394 32.38V33.72H99.6194V32.38H91.3394ZM91.1394 43.78V45.12H99.8594V43.78H91.1394ZM94.8394 30.22V35.68H96.1994V30.22H94.8394ZM94.9594 35.76V41.58H94.8394V48.64H96.1994V41.58H96.0594V35.76H94.9594ZM93.0394 39.2H98.0794V41.04H93.0394V39.2ZM93.0394 36.32H98.0794V38.12H93.0394V36.32ZM91.8794 35.2V42.16H99.2594V35.2H91.8794ZM127.159 30.2C126.979 30.94 126.619 32.04 126.299 32.78L127.559 33.12C127.939 32.48 128.399 31.48 128.839 30.54L127.159 30.2ZM124.799 36.4H131.079V38.18H124.799V36.4ZM124.799 33.52H131.079V35.28H124.799V33.52ZM123.399 32.34V39.38H132.539V32.34H123.399ZM127.399 38.88V46.94C127.399 47.18 127.339 47.24 127.079 47.26C126.819 47.28 125.959 47.28 125.019 47.24C125.219 47.64 125.399 48.22 125.459 48.62C126.759 48.62 127.619 48.62 128.159 48.38C128.679 48.14 128.839 47.72 128.839 46.96V38.88H127.399ZM122.659 41.06V42.32H125.919V41.06H122.659ZM125.599 41.06V41.28C125.019 43.7 123.379 45.7 121.579 46.6C121.859 46.86 122.259 47.34 122.439 47.66C124.499 46.52 126.239 44.36 126.959 41.32L126.079 41L125.839 41.06H125.599ZM132.039 40.1C131.339 40.98 130.059 42.22 129.159 42.94L129.999 43.68C130.959 43 132.159 41.94 133.179 41L132.039 40.1ZM128.759 39.86L127.719 40.14C128.599 43.38 130.299 46.3 132.639 47.74C132.879 47.36 133.319 46.82 133.639 46.56C131.339 45.38 129.599 42.74 128.759 39.86ZM119.779 38.1C120.259 39.5 120.699 41.34 120.859 42.44L122.079 42.06C121.919 41 121.419 39.2 120.919 37.82L119.779 38.1ZM117.979 43.24C118.199 44.6 118.399 46.38 118.439 47.56L119.619 47.34C119.559 46.16 119.359 44.42 119.119 43.04L117.979 43.24ZM116.019 43.08C115.839 44.74 115.539 46.56 115.059 47.8C115.379 47.9 115.959 48.1 116.219 48.24C116.639 46.98 117.039 45.04 117.259 43.28L116.019 43.08ZM115.539 37.7C115.539 37.4 116.479 36.92 116.479 36.92V36.88C117.759 35.3 119.079 32.98 120.079 30.76L118.679 30.18C117.899 32.34 116.559 34.62 116.139 35.22C115.739 35.82 115.399 36.24 115.059 36.32C115.219 36.7 115.459 37.4 115.539 37.7ZM115.539 37.7C115.859 37.54 116.399 37.42 119.579 37.06C119.579 36.76 119.639 36.24 119.699 35.84L116.219 36.16L115.499 36.58L115.539 37.7ZM115.659 42.2C115.659 41.9 116.639 41.44 116.639 41.44V41.4C118.519 39.44 120.459 36.7 121.959 33.98L120.639 33.2C119.359 35.9 117.279 38.74 116.659 39.44C116.039 40.18 115.599 40.7 115.179 40.8C115.339 41.18 115.579 41.9 115.659 42.2ZM115.659 42.2C116.059 42 116.679 41.86 121.139 41.2C121.119 40.9 121.139 40.36 121.199 40L116.339 40.62L115.619 41.08L115.659 42.2ZM119.859 42.86C120.219 43.9 120.639 45.26 120.779 46.14L121.899 45.78C121.719 44.9 121.299 43.58 120.899 42.54L119.859 42.86ZM148.419 36.38C146.739 36.38 145.359 37.74 145.359 39.42C145.359 41.12 146.739 42.48 148.419 42.48C150.099 42.48 151.459 41.12 151.459 39.42C151.459 37.74 150.099 36.38 148.419 36.38ZM148.419 41.46C147.299 41.46 146.379 40.56 146.379 39.42C146.379 38.32 147.299 37.4 148.419 37.4C149.539 37.4 150.439 38.32 150.439 39.42C150.439 40.56 149.539 41.46 148.419 41.46ZM171.499 30.22V46.64H173.139V30.22H171.499ZM178.619 40.2V48.56H180.259V40.2H178.619ZM165.339 32.02V38.92H179.459V32.02H177.839V37.46H166.899V32.02H165.339ZM164.439 40.2V47.44H179.419V45.94H166.079V40.2H164.439ZM188.899 34.18V35.32H194.459V34.18H188.899ZM198.099 34.18V35.32H203.759V34.18H198.099ZM203.119 31.16V46.56C203.119 46.94 202.999 47.04 202.599 47.06C202.199 47.08 200.819 47.1 199.439 47.02C199.659 47.46 199.919 48.16 199.999 48.58C201.819 48.58 202.999 48.56 203.699 48.3C204.379 48.06 204.619 47.58 204.619 46.56V31.16H203.119ZM189.019 31.16V32.42H193.919V37.24H189.019V38.5H195.339V31.16H189.019ZM203.899 31.16H197.219V38.52H203.899V37.26H198.659V32.42H203.899V31.16ZM188.179 31.16V48.6H189.659V31.16H188.179ZM211.859 31.94V33.3H228.839V31.94H211.859ZM219.499 30.18C219.379 31.78 219.039 34.14 218.699 35.56L220.099 35.76C220.459 34.38 220.839 32.18 221.139 30.34L219.499 30.18ZM214.899 37.86V39.02H225.979V37.86H214.899ZM214.899 40.62V41.78H225.979V40.62H214.899ZM211.279 46.5V47.88H229.459V46.5H211.279ZM214.139 34.9V47.16H215.579V36.16H225.199V47.16H226.719V34.9H214.139ZM214.959 43.52V44.68H226.059V43.52H214.959ZM243.759 36.68V38.18H251.979V36.68H243.759ZM235.379 46.16V47.66H253.339V46.16H235.379ZM242.899 30.5V46.96H244.479V30.5H242.899ZM262.699 46.04V47.5H273.939V46.04H262.699ZM261.939 40.18V48.6H263.459V41.6H273.179V48.54H274.759V40.18H261.939ZM270.339 33.26C272.299 35.04 274.579 37.56 275.559 39.26L276.859 38.32C275.819 36.66 273.459 34.18 271.499 32.48L270.339 33.26ZM260.859 38.48C260.859 38.18 261.859 37.72 261.859 37.72V37.68C263.979 35.92 266.219 33.44 268.139 30.78L266.639 30.14C265.079 32.62 262.739 35.16 261.999 35.82C261.339 36.48 260.819 36.92 260.359 37C260.539 37.4 260.799 38.16 260.859 38.48ZM260.859 38.48C261.659 38.2 262.859 38.16 274.919 37.48C274.839 37.16 274.779 36.56 274.759 36.14L261.959 36.74L260.839 37.3L260.859 38.48ZM288.379 47.28C290.639 47.28 292.579 45.36 292.579 42.52C292.579 39.44 290.979 37.92 288.499 37.92C287.319 37.92 285.959 38.64 285.059 39.82L285.119 41.28C286.099 39.82 287.279 39.26 288.219 39.26C289.979 39.26 290.859 40.52 290.859 42.52C290.859 44.5 289.779 45.84 288.379 45.84C286.319 45.84 285.179 43.78 285.179 40.02C285.179 35.22 286.899 33.6 288.959 33.6C289.839 33.6 290.739 34.02 291.299 34.7L292.319 33.58C291.519 32.72 290.399 32.08 288.879 32.08C286.039 32.08 283.459 34.28 283.459 40.02C283.459 44.86 285.559 47.28 288.379 47.28ZM304.233 47H305.953V32.34H303.933L297.833 41.76V42.96H307.913V41.52H299.753L303.093 36.52C303.493 35.8 303.893 35.06 304.253 34.34H304.353C304.293 35.1 304.233 36.28 304.233 37.02V47ZM315.947 30.2V48.58H317.427V30.2H315.947ZM314.147 34.06C314.007 35.68 313.627 37.88 313.107 39.22L314.287 39.62C314.807 38.16 315.187 35.86 315.287 34.24L314.147 34.06ZM317.467 33.88C318.067 35.08 318.727 36.68 318.947 37.64L320.087 37.06C319.827 36.14 319.167 34.6 318.547 33.42L317.467 33.88ZM320.207 33.4V34.82H328.627V40.2H330.107V33.4H320.207ZM319.147 39.4V40.84H331.827V39.4H319.147ZM324.127 30.2V36.88C324.127 40.38 323.927 44.8 318.487 47.52C318.827 47.82 319.327 48.36 319.527 48.68C325.127 45.62 325.627 40.8 325.627 36.88V30.2H324.127ZM325.967 41.94C327.467 44.04 329.367 46.88 330.267 48.52L331.627 47.76C330.647 46.12 328.727 43.36 327.227 41.34L325.967 41.94ZM345.247 36.46H353.107V39H345.247V36.46ZM343.847 35.24V40.22H354.567V35.24H343.847ZM343.027 32.3V33.6H355.427V32.3H343.027ZM348.387 30.22V46.02H349.847V30.22H348.387ZM348.027 39.76C346.867 41.6 344.607 43.46 342.567 44.3C342.887 44.58 343.327 45.08 343.527 45.44C345.627 44.4 347.887 42.32 349.127 40.18L348.027 39.76ZM348.747 40.72C350.747 41.96 353.207 43.86 354.367 45.1L355.367 44.02C354.147 42.78 351.647 41 349.667 39.78L348.747 40.72ZM338.207 30.86C339.027 31.86 340.067 33.26 340.547 34.1L341.747 33.32C341.247 32.5 340.207 31.2 339.347 30.22L338.207 30.86ZM337.467 34.82V36.08H341.687V34.82H337.467ZM341.027 44L340.027 44.46C341.547 47.76 344.167 48.28 348.867 48.28C351.067 48.28 353.587 48.24 355.487 48.12C355.567 47.72 355.747 47.04 355.967 46.72C353.907 46.9 350.987 46.98 348.867 46.98C344.867 46.98 342.267 46.62 341.027 44ZM341.027 39.82V40.08C340.527 43.68 339.127 46.24 337.147 47.6C337.447 47.82 337.947 48.34 338.147 48.64C340.227 47.1 341.767 44.26 342.407 40.06L341.727 39.78L341.467 39.82H341.027ZM337.767 41.32C337.907 41.16 338.427 41.04 338.947 41.04H341.647V39.82H338.487L337.767 40.18V41.32ZM337.767 41.3C337.767 40.92 338.887 40.36 338.887 40.36C340.007 39.1 341.767 36.52 342.687 35.16L341.707 34.72L341.267 34.9V34.96C340.607 36.02 338.767 38.76 338.167 39.36C337.827 39.74 337.507 39.88 337.207 39.96C337.367 40.26 337.667 40.96 337.767 41.3ZM366.767 32.86V34.12H379.487V32.86H366.767ZM372.227 33.38C372.067 34.2 371.727 35.38 371.427 36.2L372.687 36.4C373.067 35.66 373.567 34.56 373.927 33.54L372.227 33.38ZM375.727 30.22C375.347 31.06 374.647 32.3 374.047 33.08L375.247 33.46C375.847 32.74 376.547 31.64 377.207 30.64L375.727 30.22ZM368.807 30.76C369.367 31.46 369.967 32.42 370.187 33.04L371.427 32.46C371.187 31.86 370.567 30.92 370.007 30.26L368.807 30.76ZM369.827 39.56H376.307V41.24H369.827V39.56ZM369.827 42.3H376.307V43.98H369.827V42.3ZM369.827 36.84H376.307V38.5H369.827V36.84ZM368.407 35.7V45.14H377.787V35.7H368.407ZM362.207 30.9C363.087 31.88 364.187 33.28 364.727 34.12L365.887 33.3C365.347 32.48 364.247 31.2 363.327 30.24L362.207 30.9ZM361.487 34.82V36.08H365.867V34.82H361.487ZM365.047 44L364.047 44.46C365.547 47.76 368.167 48.32 372.847 48.32C375.047 48.32 377.567 48.26 379.447 48.16C379.527 47.74 379.727 47.04 379.947 46.72C377.907 46.88 374.967 46.98 372.867 46.98C368.887 46.98 366.287 46.62 365.047 44ZM365.327 39.82V40.08C364.767 43.74 363.227 46.28 361.107 47.62C361.387 47.84 361.887 48.34 362.087 48.66C364.327 47.16 365.987 44.34 366.687 40.06L365.927 39.78L365.667 39.82H365.327ZM361.767 41.32C361.907 41.16 362.427 41.04 362.947 41.04H365.807L365.827 39.82H362.487L361.767 40.18V41.32ZM361.767 41.32C361.767 40.94 362.887 40.38 362.887 40.38C364.067 39.1 365.927 36.56 366.907 35.2L365.907 34.72L365.447 34.92V34.98C364.767 36.04 362.807 38.74 362.167 39.36C361.827 39.76 361.507 39.88 361.207 39.96C361.367 40.28 361.667 40.98 361.767 41.32ZM395.147 46.52V47.84H401.747V46.52H395.147ZM396.127 32.26V33.56H401.407V32.26H396.127ZM394.567 41.36V48.56H395.947V42.66H400.987V48.5H402.427V41.36H394.567ZM400.867 32.26V32.52C399.567 36.7 396.027 39.92 392.487 41.28C392.787 41.56 393.187 42.08 393.367 42.42C397.167 40.8 400.827 37.52 402.367 32.6L401.407 32.2L401.127 32.26H400.867ZM396.467 30.2C395.707 32.66 394.327 35 392.687 36.5C393.047 36.72 393.627 37.2 393.867 37.46C395.527 35.8 397.007 33.26 397.907 30.54L396.467 30.2ZM396.067 33.08L395.087 33.9C396.307 36.78 398.947 40.4 403.067 42.18C403.267 41.8 403.687 41.22 404.007 40.94C399.907 39.38 397.227 35.94 396.067 33.08ZM386.327 39.08V46.34H387.587V39.08H386.327ZM387.667 32.36H391.427V35.88H387.667V32.36ZM386.327 31.04V37.2H392.827V31.04H386.327ZM389.147 36.54V45.68H390.507V36.54H389.147ZM385.287 46.18L385.567 47.64C387.667 47.12 390.547 46.42 393.287 45.74L393.147 44.4C390.267 45.08 387.267 45.78 385.287 46.18ZM389.627 40.1V41.44H393.007V40.1H389.627ZM416.907 43.24C419.007 42.52 420.367 40.88 420.367 38.72C420.367 37.32 419.767 36.4 418.647 36.4C417.847 36.4 417.127 36.9 417.127 37.84C417.127 38.78 417.807 39.28 418.627 39.28C419.007 39.28 419.407 39.18 419.687 38.82L418.607 37.3L418.987 38.98C418.987 40.5 418.087 41.52 416.447 42.18L416.907 43.24ZM435.947 30.2V48.58H437.427V30.2H435.947ZM434.147 34.06C434.007 35.68 433.627 37.88 433.107 39.22L434.287 39.62C434.807 38.16 435.187 35.86 435.287 34.24L434.147 34.06ZM437.467 33.88C438.067 35.08 438.727 36.68 438.947 37.64L440.087 37.06C439.827 36.14 439.167 34.6 438.547 33.42L437.467 33.88ZM440.207 33.4V34.82H448.627V40.2H450.107V33.4H440.207ZM439.147 39.4V40.84H451.827V39.4H439.147ZM444.127 30.2V36.88C444.127 40.38 443.927 44.8 438.487 47.52C438.827 47.82 439.327 48.36 439.527 48.68C445.127 45.62 445.627 40.8 445.627 36.88V30.2H444.127ZM445.967 41.94C447.467 44.04 449.367 46.88 450.267 48.52L451.627 47.76C450.647 46.12 448.727 43.36 447.227 41.34L445.967 41.94ZM457.087 40.84L457.487 42.3C459.167 41.74 461.367 41.04 463.447 40.34L463.227 38.96C460.967 39.7 458.627 40.4 457.087 40.84ZM457.367 34.24V35.64H463.547V34.24H457.367ZM459.927 30.22V46.82C459.927 47.08 459.847 47.16 459.607 47.16C459.367 47.18 458.607 47.18 457.747 47.14C457.947 47.56 458.127 48.18 458.167 48.54C459.427 48.56 460.187 48.5 460.667 48.28C461.147 48.04 461.327 47.62 461.327 46.8V30.22H459.927ZM464.427 32.3V33.62H475.147V32.3H464.427ZM463.927 36.98V38.3H475.547V36.98H463.927ZM465.927 34.32C466.507 35.1 467.127 36.2 467.367 36.88L468.667 36.3C468.407 35.64 467.767 34.6 467.167 33.82L465.927 34.32ZM472.227 33.86C471.867 34.82 471.167 36.24 470.607 37.1L471.827 37.5C472.387 36.66 473.067 35.4 473.647 34.26L472.227 33.86ZM463.667 40.5V41.82H475.787V40.5H463.667ZM472.707 39.32C471.887 44.18 469.567 46.44 463.647 47.28C463.907 47.62 464.207 48.16 464.327 48.56C470.667 47.46 473.247 44.96 474.167 39.58L472.707 39.32ZM468.467 30.4C468.907 31.22 469.407 32.34 469.587 33.08L471.247 32.7C471.047 32 470.547 30.92 470.047 30.12L468.467 30.4ZM464.827 44.14L466.367 44.32C467.387 42.96 468.807 40.7 469.647 38.78L468.227 38.48C467.447 40.36 466.007 42.68 464.827 44.14ZM464.827 44.14C468.107 45.28 472.287 47.18 474.327 48.54L475.407 47.46C473.147 46.06 468.987 44.26 465.827 43.22L464.827 44.14ZM484.707 35.14V36.28H496.427V35.14H484.707ZM493.047 33.5C493.807 33.88 494.727 34.46 495.207 34.94L495.927 34.14C495.447 33.68 494.527 33.12 493.747 32.78L493.047 33.5ZM494.367 37.2C493.507 40.66 491.667 43.26 488.947 44.84C489.207 45.06 489.647 45.56 489.827 45.8C492.587 44.02 494.587 41.22 495.587 37.44L494.367 37.2ZM484.507 43.32L484.707 44.46C486.367 44.16 488.507 43.72 490.587 43.32L490.547 42.26C488.287 42.68 486.047 43.06 484.507 43.32ZM486.487 38.48H488.767V40.5H486.487V38.48ZM485.407 37.54V41.42H489.867V37.54H485.407ZM490.627 33C490.987 39.18 491.807 44.86 494.567 45.46C495.627 45.84 496.327 45.04 496.587 42.84C496.307 42.72 495.847 42.4 495.607 42.16C495.467 43.46 495.267 44.3 494.987 44.24C493.047 43.94 492.167 38.66 491.907 33H490.627ZM482.187 31.14V48.68H483.607V32.5H497.407V48.68H498.907V31.14H482.187ZM483.067 46.38V47.74H498.247V46.38H483.067ZM510.767 32.86V34.12H523.487V32.86H510.767ZM516.227 33.38C516.067 34.2 515.727 35.38 515.427 36.2L516.687 36.4C517.067 35.66 517.567 34.56 517.927 33.54L516.227 33.38ZM519.727 30.22C519.347 31.06 518.647 32.3 518.047 33.08L519.247 33.46C519.847 32.74 520.547 31.64 521.207 30.64L519.727 30.22ZM512.807 30.76C513.367 31.46 513.967 32.42 514.187 33.04L515.427 32.46C515.187 31.86 514.567 30.92 514.007 30.26L512.807 30.76ZM513.827 39.56H520.307V41.24H513.827V39.56ZM513.827 42.3H520.307V43.98H513.827V42.3ZM513.827 36.84H520.307V38.5H513.827V36.84ZM512.407 35.7V45.14H521.787V35.7H512.407ZM506.207 30.9C507.087 31.88 508.187 33.28 508.727 34.12L509.887 33.3C509.347 32.48 508.247 31.2 507.327 30.24L506.207 30.9ZM505.487 34.82V36.08H509.867V34.82H505.487ZM509.047 44L508.047 44.46C509.547 47.76 512.167 48.32 516.847 48.32C519.047 48.32 521.567 48.26 523.447 48.16C523.527 47.74 523.727 47.04 523.947 46.72C521.907 46.88 518.967 46.98 516.867 46.98C512.887 46.98 510.287 46.62 509.047 44ZM509.327 39.82V40.08C508.767 43.74 507.227 46.28 505.107 47.62C505.387 47.84 505.887 48.34 506.087 48.66C508.327 47.16 509.987 44.34 510.687 40.06L509.927 39.78L509.667 39.82H509.327ZM505.767 41.32C505.907 41.16 506.427 41.04 506.947 41.04H509.807L509.827 39.82H506.487L505.767 40.18V41.32ZM505.767 41.32C505.767 40.94 506.887 40.38 506.887 40.38C508.067 39.1 509.927 36.56 510.907 35.2L509.907 34.72L509.447 34.92V34.98C508.767 36.04 506.807 38.74 506.167 39.36C505.827 39.76 505.507 39.88 505.207 39.96C505.367 40.28 505.667 40.98 505.767 41.32ZM530.307 47H538.347V45.48H535.387V32.34H533.987C533.207 32.82 532.267 33.16 530.947 33.38V34.56H533.567V45.48H530.307V47ZM546.541 32.22H549.981V35.22H546.541V32.22ZM545.401 31.08V36.36H551.181V31.08H545.401ZM544.441 37.94V39.26H551.661V37.94H544.441ZM546.321 38.5C546.101 39.78 545.741 41.42 545.421 42.52H546.741C547.021 41.48 547.381 39.84 547.621 38.5H546.321ZM546.461 41.3L546.141 42.52H550.081V41.3H546.461ZM549.561 41.3V41.52C549.301 45.2 549.041 46.6 548.661 46.98C548.521 47.14 548.341 47.18 548.041 47.18C547.741 47.18 547.001 47.16 546.221 47.1C546.441 47.44 546.561 47.98 546.581 48.36C547.381 48.42 548.181 48.42 548.581 48.38C549.121 48.34 549.421 48.22 549.741 47.86C550.281 47.3 550.541 45.8 550.841 41.9C550.861 41.7 550.881 41.3 550.881 41.3H549.561ZM557.161 31.58V32.82H561.961V31.58H557.161ZM553.221 34.18V35.4H561.981V34.18H553.221ZM552.541 34.18V39.28C552.541 41.84 552.361 45.32 550.721 47.82C551.041 47.98 551.601 48.38 551.821 48.64C553.601 45.98 553.861 42.06 553.861 39.28V34.18H552.541ZM554.281 37.4L554.421 38.48L560.421 37.86L560.301 36.8L554.281 37.4ZM561.581 34.18V34.36C561.441 35.42 561.181 36.72 560.961 37.54L562.101 37.82C562.361 36.94 562.701 35.54 562.941 34.36L562.021 34.12L561.781 34.18H561.581ZM555.461 41.78C555.341 44.56 554.961 46.5 553.081 47.6C553.381 47.82 553.761 48.28 553.921 48.6C556.101 47.26 556.621 45 556.741 41.78H555.461ZM558.441 41.78V46.4C558.441 47.3 558.521 47.6 558.841 47.86C559.121 48.1 559.581 48.18 560.021 48.18C560.221 48.18 560.841 48.18 561.101 48.18C561.461 48.18 561.901 48.1 562.161 47.98C562.441 47.82 562.641 47.58 562.761 47.22C562.861 46.86 562.941 45.86 562.961 44.92C562.581 44.82 562.101 44.54 561.841 44.3C561.861 45.22 561.821 46 561.781 46.32C561.741 46.52 561.621 46.68 561.521 46.74C561.421 46.82 561.181 46.84 560.981 46.84C560.761 46.84 560.461 46.84 560.301 46.84C560.121 46.84 559.961 46.82 559.881 46.74C559.741 46.7 559.721 46.56 559.721 46.42V41.78H558.441ZM556.481 30.2V34.82H557.921V30.2H556.481ZM556.401 35.52V38.88C556.401 40.18 556.681 40.74 557.961 40.74C558.281 40.74 559.981 40.74 560.381 40.74C560.881 40.74 561.401 40.72 561.681 40.62C561.621 40.3 561.581 39.88 561.541 39.5C561.281 39.58 560.681 39.6 560.321 39.6C559.981 39.6 558.501 39.6 558.181 39.6C557.761 39.6 557.701 39.42 557.701 38.92V35.52H556.401ZM579.161 42.32L580.521 41.16C579.281 39.7 577.481 37.88 576.041 36.72L574.741 37.86C576.161 39.02 577.881 40.74 579.161 42.32ZM594.021 32.16V33.64H609.141V32.16H594.021ZM592.761 46.02V47.52H610.561V46.02H592.761ZM599.881 32.68C599.321 37.12 598.281 43.3 597.481 46.88H599.121C599.861 43.4 600.881 37.24 601.541 32.68H599.881ZM595.121 37.98V39.44H606.181V37.98H595.121ZM605.601 37.98V38.18C605.481 40.16 605.141 44.12 604.801 46.9L606.341 47.02C606.701 44.24 607.061 40.52 607.201 38.02L606.041 37.92L605.781 37.98H605.601ZM623.361 38.62V39.88H634.841V38.62H623.361ZM626.201 34.78H631.981V36.44H626.201V34.78ZM626.201 32.06H631.981V33.7H626.201V32.06ZM624.801 30.94V37.56H633.461V30.94H624.801ZM625.421 41.32L624.821 42.54H633.461V41.32H625.421ZM626.261 39.1C625.381 40.86 623.901 42.52 622.301 43.6C622.601 43.84 623.081 44.32 623.281 44.54C624.881 43.32 626.521 41.44 627.501 39.46L626.261 39.1ZM633.061 41.32V41.54C632.781 45.32 632.481 46.76 632.101 47.14C631.941 47.32 631.781 47.36 631.501 47.34C631.241 47.34 630.601 47.34 629.901 47.28C630.101 47.64 630.221 48.18 630.241 48.56C631.001 48.6 631.741 48.6 632.141 48.58C632.621 48.52 632.941 48.4 633.261 48.06C633.781 47.5 634.101 45.94 634.421 41.94C634.441 41.74 634.461 41.32 634.461 41.32H633.061ZM627.661 41.64C626.721 43.64 624.741 45.88 622.961 46.94C623.301 47.18 623.681 47.58 623.901 47.9C625.681 46.66 627.641 44.32 628.641 42.24L627.661 41.64ZM630.521 41.68C629.801 44.08 628.281 46.58 626.621 47.76C626.981 47.98 627.381 48.36 627.601 48.68C629.281 47.32 630.801 44.68 631.541 42.24L630.521 41.68ZM616.661 34.5V35.92H623.461V34.5H616.661ZM619.621 30.2V48.58H621.021V30.2H619.621ZM619.561 35.38C618.981 38.26 617.641 41.72 616.281 43.52C616.541 43.86 616.901 44.44 617.061 44.84C618.501 42.82 619.881 38.9 620.501 35.7L619.561 35.38ZM620.921 37.28L620.201 37.92C620.761 38.72 622.161 41.06 622.641 42.02L623.481 40.88C623.121 40.3 621.381 37.84 620.921 37.28ZM640.821 32.3V33.6H658.381V32.3H640.821ZM645.341 35.84H654.001V37.64H645.341V35.84ZM643.841 34.72V38.74H655.561V34.72H643.841ZM641.541 39.86V48.6H643.001V41.14H657.261V39.86H641.541ZM656.241 39.86V47.02C656.241 47.26 656.141 47.32 655.881 47.34C655.641 47.34 654.721 47.36 653.841 47.32C654.041 47.62 654.241 48.1 654.321 48.44C655.601 48.46 656.481 48.44 657.001 48.26C657.561 48.06 657.741 47.74 657.741 47.02V39.86H656.241ZM648.441 30.48C648.741 31.36 649.141 32.52 649.301 33.22L650.821 32.78C650.661 32.12 650.241 31 649.901 30.14L648.441 30.48ZM646.041 42.32V43.44H652.401V45.32H646.041V46.44H653.741V42.32H646.041ZM645.261 42.32V47.44H646.661V42.32H645.261ZM675.161 42.32L676.521 41.16C675.281 39.7 673.481 37.88 672.041 36.72L670.741 37.86C672.161 39.02 673.881 40.74 675.161 42.32ZM696.021 38.26C698.101 39.42 700.461 41.22 701.541 42.58L702.621 41.44C701.501 40.08 699.101 38.36 697.021 37.26L696.021 38.26ZM698.181 33.66V35.12H705.581V33.66H698.181ZM699.301 30.18C698.041 33.86 695.921 37.22 693.281 39.3C693.681 39.54 694.341 40.06 694.641 40.34C697.201 38.06 699.441 34.52 700.861 30.58L699.301 30.18ZM704.961 33.66V33.98C703.561 40.98 699.221 45.54 694.241 47.36C694.561 47.68 694.961 48.26 695.181 48.66C700.481 46.46 704.921 41.86 706.521 33.98L705.501 33.58L705.241 33.66H704.961ZM689.561 31.46C690.901 32.04 692.521 32.98 693.321 33.72L694.201 32.46C693.381 31.76 691.701 30.86 690.381 30.36L689.561 31.46ZM688.401 36.92C689.761 37.42 691.461 38.26 692.301 38.92L693.101 37.64C692.241 37 690.521 36.22 689.181 35.78L688.401 36.92ZM689.141 47.32L690.401 48.34C691.581 46.48 692.981 43.98 694.041 41.86L692.961 40.88C691.801 43.16 690.221 45.8 689.141 47.32ZM714.021 32.16V33.64H729.141V32.16H714.021ZM712.761 46.02V47.52H730.561V46.02H712.761ZM719.881 32.68C719.321 37.12 718.281 43.3 717.481 46.88H719.121C719.861 43.4 720.881 37.24 721.541 32.68H719.881ZM715.121 37.98V39.44H726.181V37.98H715.121ZM725.601 37.98V38.18C725.481 40.16 725.141 44.12 724.801 46.9L726.341 47.02C726.701 44.24 727.061 40.52 727.201 38.02L726.041 37.92L725.781 37.98H725.601ZM123.086 62.3V63.6H140.646V62.3H123.086ZM127.606 65.84H136.266V67.64H127.606V65.84ZM126.106 64.72V68.74H137.826V64.72H126.106ZM123.806 69.86V78.6H125.266V71.14H139.526V69.86H123.806ZM138.506 69.86V77.02C138.506 77.26 138.406 77.32 138.146 77.34C137.906 77.34 136.986 77.36 136.106 77.32C136.306 77.62 136.506 78.1 136.586 78.44C137.866 78.46 138.746 78.44 139.266 78.26C139.826 78.06 140.006 77.74 140.006 77.02V69.86H138.506ZM130.706 60.48C131.006 61.36 131.406 62.52 131.566 63.22L133.086 62.78C132.926 62.12 132.506 61 132.166 60.14L130.706 60.48ZM128.306 72.32V73.44H134.666V75.32H128.306V76.44H136.006V72.32H128.306ZM127.526 72.32V77.44H128.926V72.32H127.526ZM154.266 73.24C156.366 72.52 157.726 70.88 157.726 68.72C157.726 67.32 157.126 66.4 156.006 66.4C155.206 66.4 154.486 66.9 154.486 67.84C154.486 68.78 155.166 69.28 155.986 69.28C156.366 69.28 156.766 69.18 157.046 68.82L155.966 67.3L156.346 68.98C156.346 70.5 155.446 71.52 153.806 72.18L154.266 73.24ZM179.006 65.96V67.16H188.486V65.96H179.006ZM178.546 69.18V70.42H188.966V69.18H178.546ZM170.826 70.78V72.04H178.726V70.78H170.826ZM171.326 68.16V69.34H178.246V68.16H171.326ZM180.726 74.14V75.18H186.906V74.14H180.726ZM180.726 76.82V77.98H186.886V76.82H180.726ZM181.026 64.28V69.94H182.426V64.28H181.026ZM174.206 64.28V78.6H175.586V64.28H174.206ZM185.046 64.28V69.94H186.486V64.28H185.046ZM179.886 71.42V78.58H181.266V72.58H186.406V78.54H187.826V71.42H179.886ZM174.126 71.32C173.326 73.18 171.806 75.26 170.426 76.3C170.726 76.54 171.186 77.02 171.406 77.34C172.786 76.12 174.286 73.78 175.106 71.68L174.126 71.32ZM175.366 72.34L174.606 72.98C175.326 73.62 177.126 75.4 177.746 76.16L178.626 75.06C178.126 74.6 175.986 72.78 175.366 72.34ZM177.746 65.22C176.186 65.64 173.346 65.94 170.966 66.08C171.126 66.38 171.286 66.82 171.346 67.12C173.786 67.02 176.726 66.72 178.686 66.2L177.746 65.22ZM170.966 61.64V62.92H179.246V61.64H170.966ZM175.206 60.22V64.02H176.666V60.22H175.206ZM183.326 60.22V64.02H184.786V60.22H183.326ZM180.386 61.64V62.92H188.706V61.64H180.386ZM196.886 69.96V71.42H210.846V69.96H196.886ZM196.886 75.88V77.36H210.786V75.88H196.886ZM196.186 64.1V78.6H197.666V65.6H210.106V78.52H211.646V64.1H196.186ZM203.066 60.22V76.66H204.606V60.22H203.066ZM229.846 66.96V68.36H237.066V66.96H229.846ZM219.126 62.3V63.58H227.946V62.3H219.126ZM218.906 70.24V71.54H228.046V70.24H218.906ZM218.806 66.88V68.16H228.266V66.88H218.806ZM233.406 67.56V78.52H234.866V67.56H233.406ZM220.426 63.98C220.786 64.86 221.086 66.04 221.186 66.8L222.466 66.44C222.366 65.7 222.026 64.56 221.646 63.7L220.426 63.98ZM225.446 63.68C225.166 64.68 224.666 66.18 224.246 67.1L225.486 67.4C225.906 66.52 226.406 65.16 226.826 63.98L225.446 63.68ZM235.506 60.56C234.066 61.18 231.506 61.76 229.246 62.14C229.426 62.46 229.646 62.96 229.726 63.28C232.086 62.94 234.826 62.38 236.726 61.68L235.506 60.56ZM222.186 60.48C222.646 61.32 223.146 62.44 223.366 63.14L224.906 62.68C224.686 62 224.146 60.9 223.666 60.1L222.186 60.48ZM229.246 62.14V69.06C229.246 71.74 229.106 75.18 227.406 77.6C227.726 77.78 228.306 78.24 228.546 78.52C230.386 75.9 230.646 71.94 230.646 69.06V62.14H229.246ZM225.306 73.02C225.906 74.02 226.626 75.4 226.946 76.26L228.006 75.64C227.706 74.78 226.986 73.48 226.326 72.48L225.306 73.02ZM220.686 72.6C220.246 73.92 219.566 75.3 218.786 76.24C219.086 76.4 219.606 76.78 219.826 76.98C220.606 75.96 221.426 74.38 221.906 72.94L220.686 72.6ZM222.926 67.54V78.52H224.386V67.54H222.926ZM243.186 65.28V66.78H249.066V65.28H243.186ZM253.206 60.58V75.12C253.206 77.24 253.726 77.8 255.486 77.8C255.846 77.8 257.786 77.8 258.166 77.8C260.106 77.8 260.486 76.38 260.646 72.24C260.226 72.16 259.586 71.84 259.186 71.52C259.066 75.36 258.946 76.34 258.046 76.34C257.626 76.34 256.006 76.34 255.666 76.34C254.886 76.34 254.746 76.16 254.746 75.14V60.58H253.206ZM248.266 60.58V75.38H249.806V60.58H248.266ZM242.566 76.9L243.266 78.4C245.586 77.48 248.706 76.18 251.606 74.94L251.326 73.62C248.166 74.86 244.706 76.18 242.566 76.9ZM254.006 65.28V66.76H260.386V65.28H254.006ZM266.706 61.58V62.92H272.086V61.58H266.706ZM266.906 67.4V68.74H271.866V67.4H266.906ZM266.466 75.04L266.766 76.44C268.326 75.94 270.286 75.34 272.146 74.74L271.986 73.42C269.946 74.04 267.886 74.68 266.466 75.04ZM268.786 62.36V75.08L270.106 74.72V62.36H268.786ZM272.726 66.16V67.4H284.846V66.16H272.726ZM275.446 69.62H282.146V71.5H275.446V69.62ZM274.086 68.5V72.64H283.566V68.5H274.086ZM280.846 62H282.846V64.06H280.846V62ZM277.806 62H279.766V64.06H277.806V62ZM274.846 62H276.726V64.06H274.846V62ZM273.566 60.9V65.16H284.166V60.9H273.566ZM279.666 72.04L278.466 72.32C279.466 75.22 281.446 77.46 284.346 78.42C284.526 78.06 284.946 77.52 285.266 77.26C282.526 76.5 280.546 74.5 279.666 72.04ZM283.606 72.9C282.826 73.52 281.386 74.44 280.386 74.96L281.146 75.66C282.186 75.22 283.526 74.5 284.626 73.8L283.606 72.9ZM278.026 71.82C276.706 73.18 274.126 74.44 271.906 75C272.206 75.26 272.586 75.72 272.786 76.06C274.986 75.34 277.626 73.86 279.066 72.3L278.026 71.82ZM274.826 78.54C274.826 78.08 276.186 77.32 276.186 77.32V73.92L274.946 74.24V76.18C274.946 76.96 274.546 77.28 274.266 77.42C274.466 77.68 274.726 78.22 274.826 78.54ZM274.826 78.54C275.146 78.34 275.726 78.16 279.546 77.16C279.526 76.9 279.506 76.38 279.546 76.04L275.386 77L274.746 77.48L274.826 78.54ZM293.306 60.2V78.58H294.786V60.2H293.306ZM291.506 64.06C291.366 65.68 290.986 67.88 290.466 69.22L291.646 69.62C292.166 68.16 292.546 65.86 292.646 64.24L291.506 64.06ZM294.826 63.88C295.426 65.08 296.086 66.68 296.306 67.64L297.446 67.06C297.186 66.14 296.526 64.6 295.906 63.42L294.826 63.88ZM297.566 63.4V64.82H305.986V70.2H307.466V63.4H297.566ZM296.506 69.4V70.84H309.186V69.4H296.506ZM301.486 60.2V66.88C301.486 70.38 301.286 74.8 295.846 77.52C296.186 77.82 296.686 78.36 296.886 78.68C302.486 75.62 302.986 70.8 302.986 66.88V60.2H301.486ZM303.326 71.94C304.826 74.04 306.726 76.88 307.626 78.52L308.986 77.76C308.006 76.12 306.086 73.36 304.586 71.34L303.326 71.94ZM325.426 72.32L326.786 71.16C325.546 69.7 323.746 67.88 322.306 66.72L321.006 67.86C322.426 69.02 324.146 70.74 325.426 72.32ZM342.246 76.04V77.5H353.486V76.04H342.246ZM341.486 70.18V78.6H343.006V71.6H352.726V78.54H354.306V70.18H341.486ZM349.886 63.26C351.846 65.04 354.126 67.56 355.106 69.26L356.406 68.32C355.366 66.66 353.006 64.18 351.046 62.48L349.886 63.26ZM340.406 68.48C340.406 68.18 341.406 67.72 341.406 67.72V67.68C343.526 65.92 345.766 63.44 347.686 60.78L346.186 60.14C344.626 62.62 342.286 65.16 341.546 65.82C340.886 66.48 340.366 66.92 339.906 67C340.086 67.4 340.346 68.16 340.406 68.48ZM340.406 68.48C341.206 68.2 342.406 68.16 354.466 67.48C354.386 67.16 354.326 66.56 354.306 66.14L341.506 66.74L340.386 67.3L340.406 68.48ZM367.926 77.28C370.186 77.28 372.126 75.36 372.126 72.52C372.126 69.44 370.526 67.92 368.046 67.92C366.866 67.92 365.506 68.64 364.606 69.82L364.666 71.28C365.646 69.82 366.826 69.26 367.766 69.26C369.526 69.26 370.406 70.52 370.406 72.52C370.406 74.5 369.326 75.84 367.926 75.84C365.866 75.84 364.726 73.78 364.726 70.02C364.726 65.22 366.446 63.6 368.506 63.6C369.386 63.6 370.286 64.02 370.846 64.7L371.866 63.58C371.066 62.72 369.946 62.08 368.426 62.08C365.586 62.08 363.006 64.28 363.006 70.02C363.006 74.86 365.106 77.28 367.926 77.28ZM382.22 77.28C384.68 77.28 387.02 75.44 387.02 72.24C387.02 69 385.04 67.56 382.6 67.56C381.72 67.56 381.06 67.78 380.4 68.14L380.78 63.9H386.32V62.34H379.18L378.72 69.2L379.7 69.82C380.54 69.26 381.16 68.94 382.14 68.94C383.96 68.94 385.16 70.2 385.16 72.3C385.16 74.42 383.78 75.76 382.04 75.76C380.36 75.76 379.28 74.98 378.46 74.12L377.54 75.32C378.54 76.32 379.94 77.28 382.22 77.28ZM397.474 64.7C396.334 66.78 394.474 68.82 392.694 70.16C392.954 70.5 393.374 71.3 393.514 71.62C395.434 70.04 397.494 67.62 398.814 65.22L397.474 64.7ZM397.054 60.26C396.234 61.68 394.514 63.34 392.974 64.38C393.214 64.66 393.594 65.26 393.774 65.6C395.494 64.4 397.354 62.54 398.494 60.8L397.054 60.26ZM395.634 68.4V78.62H397.154V66.98L397.094 66.94L395.634 68.4ZM399.794 69.96V71.4H410.094V69.96H399.794ZM398.494 76.56V77.98H411.254V76.56H398.494ZM399.074 64.02V65.46H410.734V64.02H399.074ZM404.154 64.84V77.24H405.694V64.84H404.154ZM403.054 60.62C403.714 61.68 404.434 63.08 404.714 63.96L406.154 63.38C405.854 62.5 405.094 61.14 404.414 60.12L403.054 60.62ZM417.534 63V64.46H434.794V63H417.534ZM425.254 60.22V78.6H426.814V60.22H425.254ZM425.434 69.1C423.634 72.14 420.174 75.06 416.834 76.42C417.174 76.72 417.654 77.32 417.894 77.7C421.274 76.12 424.734 73.02 426.694 69.6L425.434 69.1ZM426.734 69.14L425.474 69.66C427.414 73.08 430.814 76.2 434.254 77.74C434.514 77.32 434.994 76.72 435.374 76.4C431.914 75.08 428.494 72.2 426.734 69.14ZM420.194 68.06C421.154 68.9 422.354 70.1 422.974 70.82L423.994 69.8C423.374 69.08 422.134 67.94 421.194 67.14L420.194 68.06ZM421.034 64.94C420.434 67.52 419.174 69.7 417.354 71.06C417.714 71.3 418.294 71.78 418.534 72.04C420.394 70.5 421.794 68.12 422.494 65.2L421.034 64.94ZM429.814 68.1C431.174 69.2 432.974 70.74 433.834 71.7L434.894 70.66C433.994 69.74 432.154 68.24 430.814 67.22L429.814 68.1ZM430.514 64.94C430.074 67.18 429.114 69.14 427.654 70.36C428.014 70.54 428.654 70.96 428.934 71.2C430.354 69.8 431.434 67.7 431.954 65.18L430.514 64.94ZM446.194 62.98V69.58H447.434V62.98H446.194ZM443.354 64.7V65.68H449.414V64.7H443.354ZM443.354 66.86V67.86H449.414V66.86H443.354ZM442.614 69.06V70.1H450.074V69.06H442.614ZM443.754 60.22C443.114 62.1 442.034 63.92 440.774 65.14C441.034 65.38 441.454 65.92 441.614 66.18C442.974 64.8 444.194 62.68 444.974 60.54L443.754 60.22ZM454.674 62.9V69.66H455.954V62.9H454.674ZM451.974 64.7V65.7H458.254V64.7H451.974ZM451.974 66.88V67.88H458.254V66.88H451.974ZM451.234 69.08V70.12H458.994V69.08H451.234ZM452.314 60.22C451.634 62.14 450.514 64.04 449.234 65.3C449.514 65.54 449.954 66.08 450.114 66.32C451.474 64.9 452.754 62.72 453.554 60.56L452.314 60.22ZM443.694 62.48L442.754 63.54H449.834V62.48H443.694ZM442.614 63.74V69.6H443.934V62.76L442.614 63.74ZM452.234 62.5L451.294 63.56H458.694V62.5H452.234ZM451.234 63.76V69.62H452.534V62.72L451.234 63.76ZM442.154 71.26V72.54H455.814V71.26H442.154ZM455.294 71.26V71.48C452.954 75.08 446.774 76.76 441.014 77.26C441.274 77.62 441.534 78.24 441.654 78.62C447.714 77.96 454.114 76.12 456.914 71.84L455.914 71.2L455.634 71.26H455.294ZM445.854 72.02L444.494 72.68C447.274 75.96 452.354 77.8 458.094 78.46C458.294 78.02 458.694 77.36 459.034 77C453.354 76.48 448.254 74.84 445.854 72.02ZM454.174 60.72C454.594 61.5 455.054 62.52 455.274 63.14L456.534 62.74C456.314 62.1 455.834 61.12 455.394 60.38L454.174 60.72ZM445.634 60.64C446.054 61.42 446.494 62.44 446.714 63.08L447.974 62.66C447.774 62.04 447.294 61.04 446.854 60.32L445.634 60.64ZM465.374 65.28V66.78H471.254V65.28H465.374ZM475.394 60.58V75.12C475.394 77.24 475.914 77.8 477.674 77.8C478.034 77.8 479.974 77.8 480.354 77.8C482.294 77.8 482.674 76.38 482.834 72.24C482.414 72.16 481.774 71.84 481.374 71.52C481.254 75.36 481.134 76.34 480.234 76.34C479.814 76.34 478.194 76.34 477.854 76.34C477.074 76.34 476.934 76.16 476.934 75.14V60.58H475.394ZM470.454 60.58V75.38H471.994V60.58H470.454ZM464.754 76.9L465.454 78.4C467.774 77.48 470.894 76.18 473.794 74.94L473.514 73.62C470.354 74.86 466.894 76.18 464.754 76.9ZM476.194 65.28V66.76H482.574V65.28H476.194ZM488.674 68.42L489.094 69.78L504.914 64.88L504.534 63.56L488.674 68.42ZM497.974 60.24V74.34H499.474V60.24H497.974ZM492.354 61.58V75.06C492.354 77.64 493.274 78.26 496.254 78.26C496.954 78.26 502.554 78.26 503.294 78.26C506.234 78.26 506.814 77.2 507.134 73.94C506.714 73.84 506.094 73.6 505.734 73.34C505.454 76.22 505.154 76.88 503.274 76.88C502.074 76.88 497.154 76.88 496.194 76.88C494.214 76.88 493.834 76.56 493.834 75.12V61.58H492.354ZM504.174 63.82C504.114 66.54 503.914 70.2 503.594 72.3L504.834 72.64C505.254 70.38 505.514 66.74 505.634 63.96L505.694 63.7L504.574 63.32L503.934 63.82H504.174ZM516.074 70.84V78.6H517.454V70.84H516.074ZM513.874 66.52V67.76H519.694V66.52H513.874ZM520.174 68.6V69.94H531.274V68.6H520.174ZM523.074 64.64H528.534V66.28H523.074V64.64ZM523.074 61.92H528.534V63.54H523.074V61.92ZM521.714 60.76V67.44H529.934V60.76H521.714ZM522.774 69.42C521.954 71.26 520.454 72.92 518.774 73.98C519.094 74.16 519.614 74.58 519.854 74.78C521.494 73.6 523.094 71.78 524.034 69.74L522.774 69.42ZM524.214 71.8C523.214 74.04 521.394 76 519.334 77.22C519.634 77.42 520.174 77.78 520.394 78C522.374 76.64 524.294 74.56 525.434 72.12L524.214 71.8ZM527.014 71.94C526.254 74.44 524.794 76.58 522.934 77.94C523.234 78.12 523.774 78.46 524.014 78.66C525.814 77.18 527.354 74.9 528.214 72.22L527.014 71.94ZM522.574 71.32L521.554 72.56H530.254V71.32H522.574ZM529.654 71.32V71.54C529.394 75.38 529.154 76.8 528.774 77.2C528.634 77.36 528.434 77.42 528.174 77.4C527.874 77.4 527.154 77.4 526.354 77.32C526.554 77.66 526.674 78.18 526.694 78.54C527.554 78.58 528.334 78.58 528.754 78.54C529.274 78.5 529.594 78.38 529.894 78.06C530.414 77.48 530.674 75.94 530.954 71.9C530.974 71.7 530.994 71.32 530.994 71.32H529.654ZM513.814 62.94V64.24H519.094V70.16H513.814V71.46H520.314V62.94H513.814ZM513.334 62.94V72.5H514.494V62.94H513.334ZM516.074 60.22V63.84H516.174V71.12H517.354V63.84H517.454V60.22H516.074ZM544.794 61.42V62.86H554.614V61.42H544.794ZM550.634 67.38V76.66C550.634 77 550.514 77.08 550.114 77.1C549.754 77.12 548.414 77.12 546.994 77.08C547.214 77.52 547.414 78.14 547.474 78.56C549.434 78.56 550.574 78.54 551.254 78.32C551.934 78.08 552.154 77.62 552.154 76.68V67.38H550.634ZM543.914 66.94V68.36H555.194V66.94H543.914ZM539.914 68.48V78.66H541.414V67.26L541.234 67.18L539.914 68.48ZM542.234 64.48C540.854 66.78 538.654 69.1 536.574 70.58C536.894 70.86 537.414 71.52 537.634 71.82C539.734 70.14 542.094 67.56 543.654 65.02L542.234 64.48ZM541.414 60.2C540.394 61.64 538.454 63.44 536.794 64.56C537.054 64.86 537.454 65.44 537.674 65.76C539.454 64.48 541.514 62.54 542.854 60.78L541.414 60.2ZM565.174 60.08C564.194 62.06 562.574 63.96 560.894 65.18C561.194 65.44 561.654 66.08 561.834 66.36C563.594 64.92 565.374 62.74 566.494 60.5L565.174 60.08ZM564.554 62.5L564.054 63.86H578.334V62.5H564.554ZM561.894 67.24V68.6H578.534V67.24H561.894ZM561.214 72.02V73.38H578.954V72.02H561.214ZM567.734 65.02V72.74H569.034V65.02H567.734ZM564.294 65.02V72.8H565.654V65.02H564.294ZM571.354 65.02V72.8H572.654V65.02H571.354ZM574.874 65.02V72.8H576.274V65.02H574.874ZM566.954 74.76C567.194 75.96 567.334 77.52 567.354 78.46L568.814 78.24C568.794 77.34 568.594 75.8 568.334 74.62L566.954 74.76ZM571.074 74.72C571.594 75.92 572.094 77.48 572.274 78.42L573.754 78.12C573.554 77.16 573.014 75.62 572.474 74.48L571.074 74.72ZM575.194 74.62C575.954 75.88 576.854 77.56 577.234 78.58L578.714 77.94C578.274 76.96 577.354 75.3 576.574 74.12L575.194 74.62ZM563.574 74.2C563.074 75.5 562.234 77.08 561.514 78.06L562.954 78.62C563.674 77.54 564.474 75.88 564.994 74.56L563.574 74.2ZM592.074 66.6C591.774 68.16 591.334 69.72 590.594 70.84C590.914 70.96 591.434 71.22 591.674 71.38C592.334 70.24 592.894 68.52 593.234 66.84L592.074 66.6ZM592.274 68.32L591.914 69.52H596.174V68.32H592.274ZM590.914 71.9V73.14H596.314V71.9H590.914ZM596.554 60.92V62.1H602.034V60.92H596.554ZM596.374 66.98V68.24H602.474V66.98H596.374ZM593.054 68.88V71.54C593.054 73.3 592.854 76.02 590.314 77.82C590.594 78.02 590.974 78.38 591.134 78.66C593.894 76.58 594.234 73.62 594.234 71.54V68.88H593.054ZM593.254 74.26C593.954 74.94 594.754 75.92 595.154 76.58L595.974 75.82C595.614 75.22 594.794 74.28 594.074 73.62L593.254 74.26ZM601.714 60.92V61.18C601.134 62.18 599.994 63.56 599.014 64.38C599.234 64.54 599.594 64.9 599.774 65.14C600.914 64.22 602.254 62.78 603.154 61.48L602.274 60.84L602.034 60.92H601.714ZM597.054 64C598.394 64.78 600.094 65.92 600.914 66.7L601.734 65.76C600.874 65 599.154 63.9 597.814 63.2L597.054 64ZM602.074 66.98V67.16C601.914 68.1 601.694 69.18 601.474 69.9L602.494 70.26C602.774 69.46 603.054 68.24 603.294 67.18L602.454 66.92L602.254 66.98H602.074ZM599.234 67.54V77.02L600.414 77.8V67.54H599.234ZM599.834 71.6V72.82H603.074V71.6H599.834ZM597.834 73.18L596.874 73.54C597.794 77.5 599.474 78.34 601.634 78.34H603.074C603.134 78 603.294 77.38 603.474 77.06C603.074 77.08 602.014 77.08 601.734 77.08C600.074 77.08 598.554 76.46 597.834 73.18ZM597.014 70.2C596.934 73.4 596.614 76.26 595.154 77.82C595.434 78 595.794 78.38 595.974 78.64C597.654 76.86 598.014 73.76 598.114 70.2H597.014ZM584.954 61.32V62.66H591.054V61.32H584.954ZM586.874 67.34V68.66H589.294V74.54H586.874V75.86H590.474V67.34H586.874ZM587.154 61.98C586.734 65.66 586.014 69.2 584.594 71.46C584.854 71.8 585.274 72.5 585.414 72.82C587.074 70.22 587.974 66.3 588.494 62.18L587.154 61.98ZM586.254 67.34V77.52H587.434V67.34H586.254ZM591.434 60.24V64.46C591.434 65.86 591.734 66.36 593.034 66.36C593.314 66.36 594.714 66.36 595.054 66.36C595.494 66.36 595.954 66.32 596.214 66.26C596.154 65.96 596.114 65.46 596.074 65.14C595.794 65.2 595.334 65.22 595.034 65.22C594.714 65.22 593.394 65.22 593.094 65.22C592.734 65.22 592.674 65.06 592.674 64.48V60.24H591.434ZM591.814 62.12V63.26H595.854V62.12H591.814ZM618.154 66.38C616.474 66.38 615.094 67.74 615.094 69.42C615.094 71.12 616.474 72.48 618.154 72.48C619.834 72.48 621.194 71.12 621.194 69.42C621.194 67.74 619.834 66.38 618.154 66.38ZM618.154 71.46C617.034 71.46 616.114 70.56 616.114 69.42C616.114 68.32 617.034 67.4 618.154 67.4C619.274 67.4 620.174 68.32 620.174 69.42C620.174 70.56 619.274 71.46 618.154 71.46Z" fill="white"/>
</g>
<defs>
<filter id="filter0_d_3_155" x="0.174927" y="0.100098" width="749.83" height="86.5798" filterUnits="userSpaceOnUse" color-interpolation-filters="sRGB">
<feFlood flood-opacity="0" result="BackgroundImageFix"/>
<feColorMatrix in="SourceAlpha" type="matrix" values="0 0 0 0 0 0 0 0 0 0 0 0 0 0 0 0 0 0 127 0" result="hardAlpha"/>
<feOffset dy="4"/>
<feGaussianBlur stdDeviation="2"/>
<feComposite in2="hardAlpha" operator="out"/>
<feColorMatrix type="matrix" values="0 0 0 0 0 0 0 0 0 0 0 0 0 0 0 0 0 0 0.25 0"/>
<feBlend mode="normal" in2="BackgroundImageFix" result="effect1_dropShadow_3_155"/>
<feBlend mode="normal" in="SourceGraphic" in2="effect1_dropShadow_3_155" result="shape"/>
</filter>
</defs>
</svg>
