<svg xmlns="http://www.w3.org/2000/svg" width="152.663" height="18.235" viewBox="0 0 152.663 18.235">
  <g id="Group_1266" data-name="Group 1266" transform="translate(-153 -1961.961)">
    <text id="往右滑動_觀看更多" data-name="往右滑動 觀看更多" transform="translate(189.663 1976.019)" font-size="14" font-family="NotoSansHant-Bold, Noto Sans T Chinese" font-weight="700"><tspan x="0" y="0">往右滑動 觀看更多</tspan></text>
    <path id="Path_194" data-name="Path 194" d="M8682.142,1961.963c-4.2.025-8.456.332-12.656.074-1.333-.082-2.791-.075-3.717,1.044a3.681,3.681,0,0,0-.527,3.575c1.225,3.2,5.51,1.722,8.045,1.9a3.916,3.916,0,0,0,.27,1.924c.25.615,1.086,1.206.95,1.776a3.344,3.344,0,0,0,.132,1.919c.243.662,1.169,1.327,1.025,1.912a3.477,3.477,0,0,0,1.246,3.494c1.151.881,2.683.565,4.025.565,2.678,0,5.472.37,7.965-.828a9.131,9.131,0,0,0,1.9-15.133C8688.312,1962.032,8685.273,1961.944,8682.142,1961.963Zm6.711,4.085a6.7,6.7,0,0,1,1.259,8.735c-1.954,3-6.114,2.953-9.3,2.809-.661-.03-1.964.023-2.5-.509-.493-.492,1.536-1.085,1.751-1.492a1.354,1.354,0,0,0-.482-1.779c-.608-.311-1.308-.078-1.951-.165a.636.636,0,0,1-.482-.884c.109-.309,1.026-.342,1.31-.522a1.318,1.318,0,0,0-.465-2.386c-.534-.126-2.486.141-2.033-.91.142-.325,1.112-.392,1.408-.628a1.378,1.378,0,0,0,.323-1.716c-.622-1.13-3.052-.707-4.11-.7-1.6.011-3.2.023-4.8-.041-.5-.019-1.254.048-1.187-.638.04-.407.314-.5.692-.53,1.625-.124,3.312.019,4.945-.005,2.006-.029,4.013-.068,6.02-.079C8682.228,1964.591,8686.351,1964.054,8688.853,1966.048Z" transform="translate(-8512)"/>
  </g>
</svg>
